<?xml version="1.0" encoding="utf-8"?>
<!-- Generator: Adobe Illustrator 16.0.2, SVG Export Plug-In . SVG Version: 6.00 Build 0)  -->
<!DOCTYPE svg PUBLIC "-//W3C//DTD SVG 1.1//EN" "http://www.w3.org/Graphics/SVG/1.1/DTD/svg11.dtd">
<svg version="1.1" id="Layer_1" xmlns="http://www.w3.org/2000/svg" xmlns:xlink="http://www.w3.org/1999/xlink" x="0px" y="0px"
	 width="114px" height="114px" viewBox="0 0 114 114" xml:space="preserve">
<path fill="#3A3A3A" d="M46.889,73.135l2.552,6.377c-2.471,0.987-4.935,1.739-7.338,2.243L40.7,75.025
	C42.713,74.604,44.794,73.966,46.889,73.135z M26.432,81.371c2.518,0.727,5.17,1.115,7.882,1.154l0.107-6.875
	c-2.108-0.033-4.156-0.328-6.089-0.887L26.432,81.371z M80.564,69.374c1.98,0.39,3.914,1.067,5.748,2.015l3.155-6.109
	c-2.418-1.242-4.962-2.135-7.573-2.646L80.564,69.374z M66.225,63.734l2.055,6.553c2.103-0.658,4.178-1.074,6.178-1.234l-0.551-6.85
	C71.395,62.404,68.811,62.922,66.225,63.734z M55.188,68.902c-0.772,0.484-1.531,0.928-2.276,1.344l3.344,6.003
	c0.839-0.472,1.698-0.968,2.559-1.504c1.182-0.731,2.336-1.384,3.472-1.961l-3.122-6.123C57.873,67.318,56.543,68.064,55.188,68.902
	z M91.375,43.25H75.248l-3.512,6.875H86.42l7.419,22.264l-2.37,2.618c2.524,2.282,3.834,4.384,3.842,4.392l0.725-0.437l6.426,19.288
	H11.534l6.888-20.646c0.242,0.168,0.43,0.33,0.698,0.498l3.652-5.814c-0.819-0.518-1.49-1.027-2.081-1.504l6.889-20.658h14.69
	c-1.457-2.847-2.604-5.096-3.511-6.875H22.625L2,105.125h110L91.375,43.25z M55.904,17.723h2.192v3.781h-2.192V17.723z
	 M75.98,35.613l0.01,2.192l-7.151,0.028l-0.009-2.192L75.98,35.613z M38.014,35.613h3.402v2.191h-3.402V35.613z M69.65,22.51
	l1.55,1.549l-2.406,2.406l-1.55-1.55L69.65,22.51z M44.349,22.51l2.406,2.405l-1.55,1.55L42.8,24.06L44.349,22.51z M50.747,18.75
	l1.302,3.143l-2.025,0.84l-1.302-3.145L50.747,18.75z M74.121,28.43l0.839,2.025l-3.144,1.302l-0.838-2.024L74.121,28.43z
	 M45.271,40.229l0.881,2.007l-6.254,2.745l-0.881-2.007L45.271,40.229z M63.253,18.748l2.024,0.84l-1.303,3.143l-2.024-0.839
	L63.253,18.748z M39.878,28.432l3.144,1.303l-0.839,2.024l-3.144-1.302L39.878,28.432z M57,33.377c1.917,0,3.471,1.553,3.471,3.47
	S58.917,40.318,57,40.318s-3.471-1.554-3.471-3.471S55.083,33.377,57,33.377z M46.903,28.179l10.74,7.78l-1.286,1.775l-10.739-7.781
	L46.903,28.179z M57,19.261c9.73,0,17.648,7.918,17.648,17.649S66.73,54.56,57,54.56c-9.732,0-17.65-7.918-17.65-17.649
	S47.268,19.261,57,19.261 M57,16.959c-11.02,0-19.952,8.932-19.952,19.951S45.98,56.862,57,56.862
	c11.02,0,19.951-8.934,19.951-19.952C76.951,25.891,68.02,16.959,57,16.959L57,16.959z M55.904,17.723h2.192v3.781h-2.192V17.723z
	 M75.98,35.613l0.01,2.192l-7.151,0.028l-0.009-2.192L75.98,35.613z M38.014,35.613h3.402v2.191h-3.402V35.613z M69.65,22.51
	l1.55,1.549l-2.406,2.406l-1.55-1.55L69.65,22.51z M44.349,22.51l2.406,2.405l-1.55,1.55L42.8,24.06L44.349,22.51z M50.747,18.75
	l1.302,3.143l-2.025,0.84l-1.302-3.145L50.747,18.75z M74.121,28.43l0.839,2.025l-3.144,1.302l-0.838-2.024L74.121,28.43z
	 M45.271,40.229l0.881,2.007l-6.254,2.745l-0.881-2.007L45.271,40.229z M63.253,18.748l2.024,0.84l-1.303,3.143l-2.024-0.839
	L63.253,18.748z M39.878,28.432l3.144,1.303l-0.839,2.024l-3.144-1.302L39.878,28.432z M57,33.377c1.917,0,3.471,1.553,3.471,3.47
	S58.917,40.318,57,40.318s-3.471-1.554-3.471-3.471S55.083,33.377,57,33.377z M46.903,28.179l10.74,7.78l-1.286,1.775l-10.739-7.781
	L46.903,28.179z M57,19.261c9.73,0,17.648,7.918,17.648,17.649S66.73,54.56,57,54.56c-9.732,0-17.65-7.918-17.65-17.649
	S47.268,19.261,57,19.261 M57,16.959c-11.02,0-19.952,8.932-19.952,19.951S45.98,56.862,57,56.862
	c11.02,0,19.951-8.934,19.951-19.952C76.951,25.891,68.02,16.959,57,16.959L57,16.959z M54.25,54.441
	c-7.977-1.234-14.263-7.845-14.986-15.971c-0.988-11.094,8.266-20.348,19.36-19.359c8.505,0.757,15.353,7.605,16.11,16.109
	c0.414,4.647-0.973,8.969-3.535,12.353l1.15,2.076c2.539-3.038,4.198-6.832,4.567-10.978c1.11-12.459-9.283-22.854-21.743-21.744
	c-9.551,0.852-17.242,8.543-18.094,18.094c-0.936,10.497,6.295,19.526,16.045,21.447L54.25,54.441z M55.904,17.723h2.192v3.781
	h-2.192V17.723z M75.98,35.613l0.01,2.192l-7.151,0.028l-0.009-2.192L75.98,35.613z M38.014,35.613h3.402v2.191h-3.402V35.613z
	 M69.65,22.51l1.55,1.549l-2.406,2.406l-1.55-1.55L69.65,22.51z M44.349,22.51l2.406,2.405l-1.55,1.55L42.8,24.06L44.349,22.51z
	 M50.747,18.75l1.302,3.143l-2.025,0.84l-1.302-3.145L50.747,18.75z M74.121,28.43l0.839,2.025l-3.144,1.302l-0.838-2.024
	L74.121,28.43z M45.271,40.229l0.881,2.007l-6.254,2.745l-0.881-2.007L45.271,40.229z M63.253,18.748l2.024,0.84l-1.303,3.143
	l-2.024-0.839L63.253,18.748z M39.878,28.432l3.144,1.303l-0.839,2.024l-3.144-1.302L39.878,28.432z M57,33.377
	c1.917,0,3.471,1.553,3.471,3.47S58.917,40.318,57,40.318s-3.471-1.554-3.471-3.471S55.083,33.377,57,33.377z M46.903,28.179
	l10.74,7.78l-1.286,1.775l-10.739-7.781L46.903,28.179z M57,19.261c9.73,0,17.648,7.918,17.648,17.649S66.73,54.56,57,54.56
	c-9.732,0-17.65-7.918-17.65-17.649S47.268,19.261,57,19.261 M57,16.959c-11.02,0-19.952,8.932-19.952,19.951
	S45.98,56.862,57,56.862c11.02,0,19.951-8.934,19.951-19.952C76.951,25.891,68.02,16.959,57,16.959L57,16.959z"/>
</svg>
