<?xml version="1.0" encoding="utf-8"?>
<!-- Generator: Adobe Illustrator 16.0.2, SVG Export Plug-In . SVG Version: 6.00 Build 0)  -->
<!DOCTYPE svg PUBLIC "-//W3C//DTD SVG 1.1//EN" "http://www.w3.org/Graphics/SVG/1.1/DTD/svg11.dtd">
<svg version="1.1" id="Layer_1" xmlns="http://www.w3.org/2000/svg" xmlns:xlink="http://www.w3.org/1999/xlink" x="0px" y="0px"
	 width="80px" height="80px" viewBox="0 0 80 80" xml:space="preserve">
<g id="group">
	<path fill="#000000" d="M40,14.868l7.928,16.874l18.498,2.325l-13.6,12.753l3.506,18.312L40,56.141l-16.332,8.991l3.505-18.312
		L13.575,34.067l18.497-2.325L40,14.868z"/>
</g>
<g id="disabled">
	<path fill="#000000" d="M40,14.868l7.928,16.874l18.498,2.325l-13.6,12.753l3.506,18.312L40,56.141l-16.332,8.991l3.505-18.312
		L13.575,34.067l18.497-2.325L40,14.868z"/>
</g>
<g id="normal">
	<path fill="#000000" d="M40,14.868l7.928,16.874l18.498,2.325l-13.6,12.753l3.506,18.312L40,56.141l-16.332,8.991l3.505-18.312
		L13.575,34.067l18.497-2.325L40,14.868z"/>
</g>
</svg>
