<?xml version="1.0" encoding="utf-8"?>
<!-- Generator: Adobe Illustrator 17.0.1, SVG Export Plug-In . SVG Version: 6.00 Build 0)  -->
<!DOCTYPE svg PUBLIC "-//W3C//DTD SVG 1.1//EN" "http://www.w3.org/Graphics/SVG/1.1/DTD/svg11.dtd">
<svg version="1.1" id="Layer_1" xmlns="http://www.w3.org/2000/svg" xmlns:xlink="http://www.w3.org/1999/xlink" x="0px" y="0px"
	 width="114px" height="114px" viewBox="0 0 114 114" xml:space="preserve">
<g>
	<path fill="#FFFFFF" d="M45.221,35.255c0-2.263-1.83-4.113-4.069-4.113H5.907c-2.239,0-4.069,1.85-4.069,4.113V70.33
		c0,0.057,0.003,0.116,0.007,0.168l-0.004-0.002L1.9,81.197c0.137,1.101,0.685,1.662,1.418,1.662c0.374,0,0.794-0.147,1.23-0.441
		c2.699-2.655,5.399-5.312,8.093-7.971h0.011V42.455h7.845l16.29,19.05V42.46l8.432-0.009V35.255z"/>
	<polygon fill="#FFFFFF" points="20.898,74.447 36.617,74.447 20.912,56.542 	"/>
	<path fill="#FFFFFF" d="M111.946,55.836H93.029v7.943h9.678c-1.683,2.477-4.525,4.108-7.738,4.108c-5.155,0-9.35-4.195-9.35-9.348
		c0-5.157,4.195-9.351,9.35-9.351c2.932,0,5.553,1.358,7.268,3.477h8.889c-2.405-6.597-8.738-11.318-16.157-11.318
		c-9.056,0-16.495,7.041-17.141,15.935V42.451l-8.476,0.009v19.046l-16.291-19.05h-7.844v32.664h8.244l0.015-18.577l16.298,18.58
		l8.054,0.007V59.794c0.646,8.895,8.085,15.935,17.141,15.935c9.479,0,17.193-7.71,17.193-17.19
		C112.162,57.618,112.086,56.717,111.946,55.836z"/>
</g>
</svg>
