<?xml version="1.0" encoding="utf-8"?>
<!-- Generator: Adobe Illustrator 17.1.0, SVG Export Plug-In . SVG Version: 6.00 Build 0)  -->
<!DOCTYPE svg PUBLIC "-//W3C//DTD SVG 1.1//EN" "http://www.w3.org/Graphics/SVG/1.1/DTD/svg11.dtd">
<svg version="1.1" xmlns="http://www.w3.org/2000/svg" xmlns:xlink="http://www.w3.org/1999/xlink" x="0px" y="0px" width="120px"
	 height="120px" viewBox="0 0 120 120" enable-background="new 0 0 120 120" xml:space="preserve">
<g id="Layer_2" display="none">
	<circle display="inline" opacity="0.5" fill="#DF1F26" cx="60" cy="60" r="60"/>
	<rect x="6.5" y="6.5" display="inline" opacity="0.5" fill="#3B4FA1" width="107" height="107"/>
</g>
<g id="normal">
	<path d="M76.944,117.257c-0.884,0-1.678-0.537-2.008-1.356c-0.106-0.264-0.158-0.537-0.158-0.81c0-0.577,0.232-1.144,0.664-1.56
		c0,0,2.422-2.33,4.792-4.608c-7.689,0-34.446,0-42.26,0c2.422,2.271,4.894,4.589,4.894,4.589c0.446,0.416,0.685,0.992,0.685,1.579
		c0,0.267-0.05,0.537-0.153,0.796c-0.326,0.827-1.125,1.37-2.013,1.37H24.723c-0.532,0-1.045-0.196-1.442-0.55L7.726,102.819
		c-0.459-0.413-0.723-0.999-0.723-1.614c0-0.028,0-0.054,0.002-0.081c0.024-0.643,0.333-1.243,0.844-1.637l14.443-11.111
		c0.378-0.291,0.843-0.449,1.319-0.449c0,0,1.364,0,2.271,0c-4.038-3.812-7.439-8.302-9.988-13.219
		c-3.601-6.947-5.504-14.781-5.504-22.657c0-6.656,1.304-13.113,3.876-19.193c2.483-5.872,6.038-11.144,10.565-15.672
		c4.528-4.527,9.8-8.082,15.672-10.565c6.08-2.573,12.538-3.876,19.193-3.876c17.642,0,33.879,9.405,42.695,24.63
		c1.916,0,8.439,0,8.439,0c1.196,0,2.165,0.969,2.165,2.165v44.999c0,1.196-0.969,2.165-2.165,2.165c0,0-6.512,0-8.426,0
		c-2.394,4.133-5.407,7.933-8.892,11.224c1.656,0,3.54,0,3.54,0c0.593,0,1.162,0.244,1.569,0.674l12.666,13.334
		c0.385,0.404,0.596,0.936,0.596,1.489c0,0.047-0.002,0.095-0.005,0.144c-0.04,0.603-0.329,1.163-0.799,1.543l-14.445,11.666
		c-0.387,0.31-0.865,0.48-1.361,0.48H76.944"/>
	<path fill="#FFFFFF" d="M59.697,99.192c-26.036,0-47.142-21.107-47.142-47.142c0-26.036,21.106-47.142,47.142-47.142
		c26.036,0,47.142,21.106,47.142,47.142C106.839,78.085,85.734,99.192,59.697,99.192L59.697,99.192z M93.61,74.538V29.539h17.222
		v44.999H93.61L93.61,74.538z M95.276,115.091H76.944l8.667-8.334H32.5l8.888,8.334H24.723L9.168,101.203l14.443-11.111H32.5
		l8.223,1.779l16.111,6.333l28.221-8.112h12l12.666,13.334L95.276,115.091L95.276,115.091z"/>
	<path fill-rule="evenodd" clip-rule="evenodd" d="M94.721,111.203h-8.888l7.777-6.666H81.887l-3.637-5h15.915l-7.221-6.111h8.888
		l9.443,9.443L94.721,111.203L94.721,111.203z M76.937,104.537H63.553l-3.636-5h13.838L76.937,104.537L76.937,104.537z
		 M42.904,99.537h12.519l3.181,5H46.541L42.904,99.537L42.904,99.537z M33.056,111.203h-8.334l-11.111-10l10.555-7.777h7.222
		l-6.111,6.111H38.41l3.181,5H25.277L33.056,111.203L33.056,111.203z"/>
	<path fill-rule="evenodd" clip-rule="evenodd" fill="#E63737" d="M59.779,8.976c23.834,0,43.154,19.322,43.154,43.156
		c0,23.833-19.32,43.154-43.154,43.154S16.623,75.964,16.623,52.132C16.623,28.297,35.945,8.976,59.779,8.976L59.779,8.976z"/>
	<path fill-rule="evenodd" clip-rule="evenodd" fill="#FFFFFF" d="M59.779,18.982c18.309,0,33.151,14.842,33.151,33.149
		c0,18.307-14.842,33.149-33.151,33.149c-18.307,0-33.149-14.842-33.149-33.149C26.63,33.824,41.471,18.982,59.779,18.982
		L59.779,18.982z"/>
	<polygon fill-rule="evenodd" clip-rule="evenodd" fill="#FFFFFF" points="21.056,40.204 15.389,49.871 15.723,51.204 
		34.055,51.537 34.166,39.982 21.056,40.204 	"/>
	<path fill-rule="evenodd" clip-rule="evenodd" d="M38.713,69.694v-7.039h-2.708v7.039H12.721V53.077l7.528-13.706h15.757v12.455
		h2.708V32.871h68.23v36.823H38.713L38.713,69.694z M21.384,42.077L16.51,50.2h4.873V42.077L21.384,42.077z M32.756,42.077h-7.581
		l-1.624,1.624V50.2h9.206V42.077L32.756,42.077z"/>
	<path fill-rule="evenodd" clip-rule="evenodd" fill="#FFFFFF" d="M28.19,59.479c5.811,0,10.523,4.71,10.523,10.522
		c0,5.813-4.712,10.523-10.523,10.523c-5.813,0-10.523-4.71-10.523-10.523C17.667,64.189,22.377,59.479,28.19,59.479L28.19,59.479z"
		/>
	<path fill-rule="evenodd" clip-rule="evenodd" fill="#FFFFFF" d="M86.131,59.479c5.811,0,10.523,4.71,10.523,10.522
		c0,5.813-4.712,10.523-10.523,10.523c-5.811,0-10.523-4.71-10.523-10.523C75.607,64.189,80.319,59.479,86.131,59.479L86.131,59.479
		z"/>
	<path fill-rule="evenodd" clip-rule="evenodd" d="M27.633,63.567c3.552,0,6.432,2.88,6.432,6.434c0,3.552-2.88,6.432-6.432,6.432
		c-3.554,0-6.434-2.88-6.434-6.432C21.2,66.447,24.079,63.567,27.633,63.567L27.633,63.567z"/>
	<path fill-rule="evenodd" clip-rule="evenodd" d="M86.144,63.567c3.552,0,6.432,2.88,6.432,6.434c0,3.552-2.88,6.432-6.432,6.432
		c-3.554,0-6.434-2.88-6.434-6.432C79.711,66.447,82.59,63.567,86.144,63.567L86.144,63.567z"/>
</g>
</svg>
