<?xml version="1.0" encoding="utf-8"?>
<!-- Generator: Adobe Illustrator 17.0.0, SVG Export Plug-In . SVG Version: 6.00 Build 0)  -->
<!DOCTYPE svg PUBLIC "-//W3C//DTD SVG 1.1//EN" "http://www.w3.org/Graphics/SVG/1.1/DTD/svg11.dtd">
<svg version="1.1" id="Layer_1" xmlns="http://www.w3.org/2000/svg" xmlns:xlink="http://www.w3.org/1999/xlink" x="0px" y="0px"
	 width="114px" height="114px" viewBox="0 0 114 114" enable-background="new 0 0 114 114" xml:space="preserve">
<path fill-rule="evenodd" clip-rule="evenodd" fill-opacity="0.5" d="M58.072,2.145C88.96,2.145,114,27.185,114,58.072
	C114,88.96,88.96,114,58.072,114S2.144,88.96,2.144,58.072C2.144,27.185,27.183,2.145,58.072,2.145L58.072,2.145z"/>
<path fill-rule="evenodd" clip-rule="evenodd" fill="#FFFFFF" d="M56.928,0.999c30.888,0,55.928,25.04,55.928,55.927
	c0,30.888-25.04,55.928-55.928,55.928S1,87.814,1,56.926C1,26.039,26.039,0.999,56.928,0.999L56.928,0.999z"/>
<linearGradient id="SVGID_1_" gradientUnits="userSpaceOnUse" x1="17.9095" y1="23.008" x2="98.1681" y2="92.7757">
	<stop  offset="0" style="stop-color:#E04144"/>
	<stop  offset="1" style="stop-color:#DA1F22"/>
</linearGradient>
<path fill-rule="evenodd" clip-rule="evenodd" fill="url(#SVGID_1_)" d="M56.928,3.754c29.365,0,53.17,23.807,53.17,53.172
	s-23.805,53.17-53.17,53.17S3.756,86.292,3.756,56.926S27.563,3.754,56.928,3.754L56.928,3.754z"/>
<path fill-rule="evenodd" clip-rule="evenodd" fill="#FFFFFF" d="M56.93,15.487c22.887,0,41.441,18.554,41.441,41.441
	S79.817,98.369,56.93,98.369c-22.887,0-41.441-18.554-41.441-41.441S34.042,15.487,56.93,15.487L56.93,15.487z"/>
<path fill-rule="evenodd" clip-rule="evenodd" d="M63.517,86.277H52.519V58.51c0,0-4.592-2.199-5.687-2.199
	c-1.094,0-4.584-0.216-4.584-0.216s1.965,5.866,1.965,6.84c0,0.972-1.217,2.068-2.554,2.068c-1.339,0-22.746-14.268-22.746-14.268
	S38.767,37.888,40.78,36.789c1.339-0.729,2.311-0.122,2.433,0.73c0.122,0.852-0.964,7.578-0.964,7.578s8.699,0.218,12.469,0.218
	c3.772,0,8.555,5.016,8.799,6.597C63.76,53.494,63.517,86.277,63.517,86.277L63.517,86.277z"/>
<path fill-rule="evenodd" clip-rule="evenodd" d="M52.497,85.584h10.998v-27.11c0,0,1.103-2.199,2.199-2.199
	c1.095,0,7.831,0,7.831,0c0,0-2.647,5.592-2.647,6.566c0,0.972,1.217,2.068,2.554,2.068c1.339,0,22.746-14.268,22.746-14.268
	c0,0-19.854-12.849-21.867-13.946c-1.339-0.73-2.311-0.122-2.433,0.729c-0.122,0.852,1.646,7.854,1.646,7.854c0,0-10.658,0-14.43,0
	c-3.77,0-6.355,2.817-6.598,4.399C52.253,51.257,52.497,85.584,52.497,85.584L52.497,85.584z"/>
<linearGradient id="SVGID_2_" gradientUnits="userSpaceOnUse" x1="18.6845" y1="23.8744" x2="96.988" y2="91.9427">
	<stop  offset="0" style="stop-color:#E04144"/>
	<stop  offset="1" style="stop-color:#DA1F22"/>
</linearGradient>
<polygon fill-rule="evenodd" clip-rule="evenodd" fill="url(#SVGID_2_)" points="20.492,31.967 27.284,24.606 93.909,82.744 
	87.118,90.107 20.492,31.967 "/>
</svg>
