<?xml version="1.0" encoding="utf-8"?>
<!-- Generator: Adobe Illustrator 17.0.0, SVG Export Plug-In . SVG Version: 6.00 Build 0)  -->
<!DOCTYPE svg PUBLIC "-//W3C//DTD SVG 1.1//EN" "http://www.w3.org/Graphics/SVG/1.1/DTD/svg11.dtd">
<svg version="1.1" id="Layer_1" xmlns="http://www.w3.org/2000/svg" xmlns:xlink="http://www.w3.org/1999/xlink" x="0px" y="0px"
	 width="114px" height="114px" viewBox="0 0 114 114" enable-background="new 0 0 114 114" xml:space="preserve">
<path fill-rule="evenodd" clip-rule="evenodd" fill-opacity="0.5" d="M58.072,2.145C88.96,2.145,114,27.185,114,58.072
	C114,88.96,88.96,114,58.072,114S2.144,88.96,2.144,58.072C2.144,27.185,27.183,2.145,58.072,2.145L58.072,2.145z"/>
<path fill-rule="evenodd" clip-rule="evenodd" fill="#FFFFFF" d="M56.928,0.999c30.888,0,55.928,25.04,55.928,55.927
	c0,30.888-25.04,55.928-55.928,55.928S1,87.814,1,56.926C1,26.039,26.039,0.999,56.928,0.999L56.928,0.999z"/>
<linearGradient id="SVGID_1_" gradientUnits="userSpaceOnUse" x1="17.9095" y1="23.008" x2="98.1681" y2="92.7757">
	<stop  offset="0" style="stop-color:#E04144"/>
	<stop  offset="1" style="stop-color:#DA1F22"/>
</linearGradient>
<path fill-rule="evenodd" clip-rule="evenodd" fill="url(#SVGID_1_)" d="M56.928,3.754c29.365,0,53.17,23.807,53.17,53.172
	s-23.805,53.17-53.17,53.17S3.756,86.292,3.756,56.926S27.563,3.754,56.928,3.754L56.928,3.754z"/>
<path fill-rule="evenodd" clip-rule="evenodd" fill="#FFFFFF" d="M56.93,15.487c22.887,0,41.441,18.554,41.441,41.441
	S79.817,98.369,56.93,98.369c-22.887,0-41.441-18.554-41.441-41.441S34.042,15.487,56.93,15.487L56.93,15.487z"/>
<path fill-rule="evenodd" clip-rule="evenodd" d="M79.078,86.526H66.724V56.05c0,0-1.241-2.471-2.471-2.471s-17.298,0-17.298,0
	c0,0,2.207,6.592,2.207,7.684c0,1.094-1.366,2.324-2.868,2.324c-1.504,0-25.555-16.03-25.555-16.03s22.306-14.434,24.567-15.669
	c1.504-0.818,2.598-0.136,2.734,0.82c0.136,0.958-1.084,8.515-1.084,8.515c0,0,18.003,0,22.239,0c4.238,0,9.611,5.637,9.885,7.413
	C79.352,50.413,79.078,86.526,79.078,86.526L79.078,86.526z"/>
<linearGradient id="SVGID_2_" gradientUnits="userSpaceOnUse" x1="18.6845" y1="23.8744" x2="96.988" y2="91.9427">
	<stop  offset="0" style="stop-color:#E04144"/>
	<stop  offset="1" style="stop-color:#DA1F22"/>
</linearGradient>
<polygon fill-rule="evenodd" clip-rule="evenodd" fill="url(#SVGID_2_)" points="20.492,31.967 27.284,24.606 93.909,82.744 
	87.118,90.107 20.492,31.967 "/>
</svg>
