<?xml version="1.0" encoding="utf-8"?>
<!-- Generator: Adobe Illustrator 17.1.0, SVG Export Plug-In . SVG Version: 6.00 Build 0)  -->
<!DOCTYPE svg PUBLIC "-//W3C//DTD SVG 1.1//EN" "http://www.w3.org/Graphics/SVG/1.1/DTD/svg11.dtd">
<svg version="1.1" xmlns="http://www.w3.org/2000/svg" xmlns:xlink="http://www.w3.org/1999/xlink" x="0px" y="0px" width="120px"
	 height="120px" viewBox="0 0 120 120" enable-background="new 0 0 120 120" xml:space="preserve">
<g id="Layer_2" display="none">
	<circle display="inline" opacity="0.5" fill="#DF1F26" cx="60" cy="60" r="60"/>
	<rect x="6.5" y="6.5" display="inline" opacity="0.5" fill="#3B4FA1" width="107" height="107"/>
</g>
<g id="normal">
	<path d="M50.101,110.945c0,0-25.684-25.684-27.459-27.459c-2.224,0.751-18.127,6.122-18.127,6.122
		c-0.229,0.076-0.463,0.114-0.693,0.114c-0.735,0-1.439-0.374-1.843-1.028c-0.217-0.352-0.322-0.745-0.322-1.137
		c0-0.563,0.218-1.122,0.641-1.54c0,0,9.093-9.001,11.496-11.38c-1.94-1.94-5.931-5.931-5.931-5.931
		c-2.271-2.271-3.523-5.291-3.523-8.504c0-3.214,1.252-6.234,3.523-8.504c0,0,8.25-8.25,10.594-10.594
		c-2.609-2.59-17.689-17.565-17.689-17.565c-0.421-0.418-0.64-0.974-0.64-1.536c0-0.409,0.116-0.822,0.354-1.184
		c0.409-0.628,1.099-0.981,1.813-0.981c0.265,0,0.534,0.049,0.792,0.151c0,0,23.774,9.376,26.166,10.319
		c1.409-1.409,5.737-5.737,6.865-6.865c-0.303-1.893-2.353-14.708-2.353-14.708c-0.019-0.114-0.028-0.229-0.028-0.343
		c0-0.836,0.485-1.611,1.264-1.968c0.29-0.132,0.596-0.196,0.9-0.196c0.624,0,1.236,0.27,1.657,0.771c0,0,4.82,5.726,6.857,8.146
		c1.994-1.994,5.685-5.685,5.685-5.685c2.273-2.271,5.293-3.523,8.504-3.523c2.732,0,5.324,0.905,7.436,2.573
		c0.973-1.099,1.992-2.249,1.992-2.249c0.42-0.473,1.014-0.73,1.623-0.73c0.257,0,0.517,0.045,0.766,0.14
		c0.841,0.319,1.397,1.125,1.397,2.025c0,0,0,5.09,0,6.473c1.056,1.056,6.565,6.565,6.565,6.565s15.579,15.577,16.853,16.851
		c1.786-0.109,22.338-1.357,22.338-1.357c0.043-0.004,0.088-0.004,0.132-0.004c0.955,0,1.803,0.628,2.077,1.553
		c0.059,0.203,0.088,0.409,0.088,0.612c0,0.766-0.407,1.494-1.103,1.886c0,0-9.799,5.522-13.33,7.512
		c1.756,1.754,3.909,3.909,3.909,3.909c2.271,2.271,3.523,5.291,3.523,8.504c0,3.211-1.252,6.231-3.523,8.504
		c0,0-18.229,18.228-20.19,20.188c1.139,2.347,7.72,15.912,7.72,15.912c0.146,0.302,0.217,0.624,0.217,0.943
		c0,0.661-0.302,1.305-0.856,1.727c-0.388,0.295-0.849,0.44-1.309,0.44c-0.513,0-1.026-0.182-1.434-0.543
		c0,0-9.71-8.575-12.117-10.698c-2.373,2.373-14.271,14.27-14.271,14.27c-2.269,2.271-5.289,3.523-8.504,3.523
		C55.394,114.468,52.374,113.216,50.101,110.945"/>
	<path fill="#FFFFFF" d="M107.818,67.176l-42.241,42.239c-3.85,3.85-10.093,3.85-13.946,0L9.393,67.176
		c-3.85-3.85-3.85-10.095,0-13.946l42.239-42.239c3.852-3.85,10.095-3.85,13.946,0l42.241,42.239
		C111.668,57.081,111.668,63.325,107.818,67.176L107.818,67.176z M3.821,87.557L17.85,73.668l7.359,6.666L3.821,87.557L3.821,87.557
		z M79.514,92.14l6.389-5l9.027,18.611L79.514,92.14L79.514,92.14z M100.207,48.253l-7.638-8.334l25.138-1.527L100.207,48.253
		L100.207,48.253z M22.432,42.003l-20.138-20l29.583,11.666L22.432,42.003L22.432,42.003z M38.681,25.753L35.904,8.392l9.584,11.388
		L38.681,25.753L38.681,25.753z M65.347,12.558l4.306-4.861v9.722L65.347,12.558L65.347,12.558z"/>
	<path fill-rule="evenodd" clip-rule="evenodd" d="M52.225,107.998C52.008,107.78,12.101,67.51,12.101,67.51
		c-0.012-0.012-0.023-0.024-0.035-0.036c-0.3-0.317-2.949-3.206-3.445-6.848c-0.038-0.277-0.057-0.555-0.057-0.825
		c0-3.471,2.888-6.012,3.665-6.633c2.524-2.651,34.228-35.908,40.16-41.124c2.119-1.86,4.303-2.805,6.494-2.805
		c3.656,0,5.972,2.646,6.571,3.419c2.231,2.186,34.281,33.581,40.422,39.855c2.519,2.574,3.797,5.218,3.797,7.859
		c0,3.421-2.125,5.522-2.694,6.021c-1.612,1.621-35.306,35.53-41.386,41.341c-2.339,2.233-4.742,3.367-7.144,3.367
		C55.414,111.1,53.168,109.219,52.225,107.998 M65.605,12.862L65.6,12.855C65.601,12.858,65.603,12.86,65.605,12.862"/>
	<path fill-rule="evenodd" clip-rule="evenodd" fill="#FF8426" d="M13.682,54.78c0,0-3.334,2.5-2.916,5.555
		c0.416,3.056,2.873,5.652,2.873,5.652l40.233,40.597c0,0,3.975,5.556,10.225-0.416c6.25-5.972,41.403-41.358,41.403-41.358
		s5.218-4.254-1.17-10.782c-6.389-6.527-40.51-39.942-40.51-39.942s-3.939-5.745-10-0.416C47.773,18.987,13.682,54.78,13.682,54.78
		L13.682,54.78z"/>
	<polygon fill-rule="evenodd" clip-rule="evenodd" points="11.459,28.253 38.82,53.946 20.349,54.919 37.015,60.196 11.877,82.279 
		44.515,69.223 37.154,91.722 53.958,75.473 57.431,91.029 63.403,76.029 86.319,94.64 73.126,68.668 91.18,73.529 73.403,59.502 
		106.734,41.585 73.542,44.919 80.346,34.224 66.319,42.696 67.987,13.254 56.458,40.892 39.931,16.865 45.208,43.392 
		11.459,28.253 	"/>
	<polygon fill-rule="evenodd" clip-rule="evenodd" fill="#FFFFFF" points="48.958,56.723 38.265,47.558 52.153,52.419 48.82,38.946 
		57.569,51.169 62.153,40.753 62.431,51.307 81.596,48.946 65.347,58.53 71.319,63.391 63.681,62.141 70.764,74.779 62.015,68.113 
		58.819,73.529 57.015,64.364 48.404,72.696 52.847,60.335 38.542,65.891 48.958,56.723 	"/>
</g>
</svg>
