<?xml version="1.0" encoding="utf-8"?>
<!-- Generator: Adobe Illustrator 17.1.0, SVG Export Plug-In . SVG Version: 6.00 Build 0)  -->
<!DOCTYPE svg PUBLIC "-//W3C//DTD SVG 1.1//EN" "http://www.w3.org/Graphics/SVG/1.1/DTD/svg11.dtd">
<svg version="1.1" xmlns="http://www.w3.org/2000/svg" xmlns:xlink="http://www.w3.org/1999/xlink" x="0px" y="0px" width="120px"
	 height="120px" viewBox="0 0 120 120" enable-background="new 0 0 120 120" xml:space="preserve">
<g id="Layer_2" display="none">
	<circle display="inline" opacity="0.5" fill="#DF1F26" cx="60" cy="60" r="60"/>
	<rect x="6.5" y="6.5" display="inline" opacity="0.5" fill="#3B4FA1" width="107" height="107"/>
</g>
<g id="normal">
	<path d="M30.696,107.605c-7.734-4.749-14.197-11.309-18.824-19.075c-2.396,2.11-6.829,6.011-6.829,6.011
		c-0.402,0.355-0.914,0.541-1.43,0.541c-0.302,0-0.605-0.064-0.891-0.192c-0.775-0.35-1.274-1.122-1.274-1.973v-66.11
		c0-0.863,0.513-1.645,1.307-1.988c0.276-0.12,0.567-0.177,0.856-0.177c0.543,0,1.077,0.203,1.486,0.589
		c0,0,4.332,4.081,6.721,6.331c4.612-7.775,11.062-14.346,18.788-19.11c8.778-5.412,18.893-8.273,29.256-8.273
		c10.4,0,20.549,2.881,29.349,8.33c7.746,4.797,14.197,11.411,18.796,19.233c2.422-2.287,6.895-6.51,6.895-6.51
		c0.409-0.387,0.943-0.591,1.486-0.591c0.29,0,0.581,0.059,0.856,0.177c0.794,0.343,1.309,1.123,1.309,1.988v66.11
		c0,0.865-0.515,1.645-1.309,1.989c-0.276,0.118-0.567,0.177-0.856,0.177c-0.543,0-1.077-0.205-1.486-0.591
		c0,0-4.377-4.135-6.787-6.409c-4.587,7.869-11.045,14.523-18.812,19.353c-8.821,5.487-19.003,8.387-29.441,8.387
		C49.537,115.821,39.451,112.98,30.696,107.605"/>
	<path fill="#FFFFFF" d="M59.861,113.656c-29.633,0-53.657-24.022-53.657-53.655c0-29.633,24.023-53.657,53.657-53.657
		s53.655,24.023,53.655,53.657C113.516,89.634,89.495,113.656,59.861,113.656L59.861,113.656z"/>
	<polygon fill="#FFFFFF" points="3.613,92.916 3.613,26.806 14.722,37.276 14.722,83.138 3.613,92.916 	"/>
	<polygon fill="#FFFFFF" points="106.388,83.471 106.388,36.251 116.387,26.806 116.387,92.916 106.388,83.471 	"/>
	<path fill-rule="evenodd" clip-rule="evenodd" fill="#E63737" d="M10.833,59.907c0-27.127,21.991-49.118,49.12-49.118
		s49.118,21.991,49.118,49.118c0,27.128-21.99,49.12-49.118,49.12S10.833,87.036,10.833,59.907L10.833,59.907z"/>
	<path fill-rule="evenodd" clip-rule="evenodd" fill="#FFFFFF" d="M22.222,59.907c0-20.839,16.893-37.731,37.731-37.731
		c20.839,0,37.731,16.893,37.731,37.731S80.792,97.639,59.953,97.639C39.115,97.639,22.222,80.746,22.222,59.907L22.222,59.907z"/>
	<polygon fill-rule="evenodd" clip-rule="evenodd" points="5.834,87.361 5.834,32.918 32.501,60.14 5.834,87.361 	"/>
	<polygon fill-rule="evenodd" clip-rule="evenodd" points="114.165,87.361 114.165,32.918 87.499,60.14 114.165,87.361 	"/>
	<path d="M64.211,69.486l-4.202-19.049l-4.254,19.049c-0.331,1.445-0.594,2.482-0.789,3.11c-0.195,0.629-0.535,1.192-1.02,1.69
		c-0.485,0.499-1.128,0.747-1.932,0.747c-0.65,0-1.185-0.148-1.604-0.444c-0.42-0.296-0.76-0.715-1.02-1.257
		c-0.26-0.541-0.473-1.184-0.638-1.928s-0.313-1.433-0.443-2.07l-4.325-21.39c-0.26-1.242-0.39-2.189-0.39-2.839
		c0-0.824,0.236-1.517,0.709-2.08c0.473-0.563,1.058-0.845,1.755-0.845c0.957,0,1.602,0.376,1.932,1.127
		c0.331,0.752,0.621,1.842,0.868,3.272l3.403,18.551l3.812-17.359c0.284-1.329,0.538-2.341,0.762-3.034
		c0.224-0.693,0.591-1.293,1.099-1.799c0.508-0.505,1.199-0.758,2.074-0.758c0.887,0,1.575,0.264,2.066,0.791
		c0.491,0.528,0.83,1.102,1.019,1.723c0.189,0.622,0.444,1.647,0.762,3.077l3.847,17.359l3.404-18.551
		c0.165-0.968,0.321-1.726,0.469-2.275c0.148-0.549,0.402-1.04,0.762-1.474c0.36-0.433,0.884-0.65,1.569-0.65
		s1.268,0.279,1.746,0.835c0.479,0.556,0.718,1.253,0.718,2.091c0,0.593-0.13,1.539-0.39,2.839l-4.325,21.39
		c-0.296,1.445-0.541,2.503-0.736,3.175c-0.196,0.672-0.526,1.261-0.993,1.766c-0.467,0.505-1.126,0.758-1.977,0.758
		c-0.803,0-1.448-0.245-1.932-0.736c-0.484-0.492-0.821-1.044-1.011-1.659C64.818,72.026,64.553,70.974,64.211,69.486z"/>
</g>
</svg>
