<?xml version="1.0" encoding="UTF-8" ?>
<!DOCTYPE svg PUBLIC "-//W3C//DTD SVG 1.1//EN" "http://www.w3.org/Graphics/SVG/1.1/DTD/svg11.dtd">
<svg width="265pt" height="297pt" viewBox="0 0 265 297" version="1.1" xmlns="http://www.w3.org/2000/svg">
<g id="#fe2100fe">
<path fill="#fe2100" opacity="1.00" d=" M 129.26 0.00 L 134.76 0.00 C 163.90 0.46 192.70 11.22 215.12 29.83 C 245.57 54.64 263.89 93.10 265.00 132.27 L 265.00 139.72 C 264.33 168.54 254.65 197.16 237.21 220.16 C 224.36 237.18 207.52 251.27 188.21 260.38 C 187.98 260.10 187.52 259.55 187.30 259.28 C 183.79 249.33 179.73 239.52 177.29 229.23 C 177.08 226.73 176.83 224.23 176.43 221.76 C 184.60 219.05 191.32 213.17 197.26 207.13 C 199.41 210.52 201.61 213.86 203.87 217.18 C 206.43 217.58 208.98 218.05 211.52 218.56 C 213.13 212.32 214.28 205.96 216.10 199.77 C 217.65 204.80 217.18 210.82 221.22 214.75 C 224.25 218.71 229.86 220.17 234.59 219.18 C 235.04 217.00 233.13 215.52 232.07 213.90 C 228.82 209.84 226.68 205.05 225.20 200.10 C 228.64 202.43 232.20 208.13 236.83 205.28 C 233.11 201.93 231.32 197.27 229.23 192.88 C 225.78 189.81 221.40 187.99 217.90 184.98 C 217.21 183.96 217.48 182.57 217.19 181.41 C 221.91 176.81 223.01 170.06 225.13 164.09 C 227.50 154.94 229.36 145.48 228.72 135.98 C 229.12 102.67 211.34 69.58 183.05 51.87 C 172.93 45.97 162.15 40.70 150.40 39.17 C 149.05 35.90 148.58 31.73 145.21 29.81 C 141.93 27.05 137.22 27.30 133.99 24.44 C 126.83 27.71 121.76 34.39 119.74 41.91 C 114.76 40.48 109.82 42.67 105.06 43.96 C 78.17 52.27 55.92 73.55 45.64 99.65 C 36.27 122.48 36.00 148.85 45.06 171.82 C 45.66 173.43 46.60 175.15 45.82 176.90 C 45.51 176.74 44.89 176.43 44.58 176.28 C 44.48 177.66 44.38 179.04 44.29 180.42 C 40.65 181.58 36.47 181.86 33.62 184.69 C 30.96 187.18 27.25 188.66 25.55 192.06 C 27.34 192.37 29.14 192.80 30.97 192.74 C 33.68 191.51 36.24 189.99 39.02 188.90 C 37.33 191.40 35.55 193.83 33.81 196.30 C 28.00 195.75 20.93 198.35 19.05 204.33 C 25.91 206.93 33.16 204.70 39.87 202.80 C 43.53 200.11 46.71 196.80 50.24 193.94 C 52.19 202.16 53.95 210.43 55.94 218.64 C 57.00 219.17 57.64 217.83 58.42 217.37 C 61.25 214.72 63.99 211.98 66.77 209.29 C 70.23 212.53 73.98 215.43 77.73 218.32 C 81.04 220.96 85.18 222.56 87.84 225.98 C 84.64 237.64 80.68 249.05 76.84 260.50 C 50.15 247.68 28.04 225.75 14.81 199.27 C 5.52 180.86 0.53 160.34 0.00 139.74 L 0.00 132.30 C 1.07 96.46 16.34 61.12 42.46 36.43 C 65.56 14.09 97.12 0.77 129.26 0.00 Z" />
</g>
<g id="#ffffffff">
<path fill="#ffffff" opacity="1.00" d=" M 119.74 41.91 C 121.76 34.39 126.83 27.71 133.99 24.44 C 137.22 27.30 141.93 27.05 145.21 29.81 C 148.58 31.73 149.05 35.90 150.40 39.17 C 151.13 41.42 152.15 43.60 152.54 45.94 C 152.43 49.34 151.09 52.60 151.14 56.01 C 152.14 60.44 155.08 64.13 156.42 68.44 C 156.95 72.22 156.55 76.06 156.69 79.87 C 160.66 83.73 164.54 87.69 168.51 91.56 C 169.87 92.85 171.00 94.36 171.73 96.09 C 179.62 114.35 187.58 132.59 195.43 150.88 C 197.27 155.01 200.43 158.32 203.02 161.98 C 207.67 168.51 212.93 174.62 217.19 181.41 C 217.48 182.57 217.21 183.96 217.90 184.98 C 221.40 187.99 225.78 189.81 229.23 192.88 C 231.32 197.27 233.11 201.93 236.83 205.28 C 232.20 208.13 228.64 202.43 225.20 200.10 C 226.68 205.05 228.82 209.84 232.07 213.90 C 233.13 215.52 235.04 217.00 234.59 219.18 C 229.86 220.17 224.25 218.71 221.22 214.75 C 217.18 210.82 217.65 204.80 216.10 199.77 C 214.28 205.96 213.13 212.32 211.52 218.56 C 208.98 218.05 206.43 217.58 203.87 217.18 C 201.61 213.86 199.41 210.52 197.26 207.13 C 188.66 194.04 180.33 180.75 170.94 168.20 C 166.57 163.06 166.80 155.89 164.93 149.72 C 163.93 154.58 163.08 159.46 162.27 164.35 C 160.97 165.32 159.67 166.27 158.36 167.22 C 159.79 168.56 161.55 169.79 162.03 171.81 C 167.20 190.92 171.89 210.17 177.29 229.23 C 179.73 239.52 183.79 249.33 187.30 259.28 C 191.70 271.87 196.11 284.47 200.70 297.00 L 161.52 297.00 C 129.41 296.18 97.25 296.76 65.15 295.48 C 69.03 283.82 72.93 272.16 76.84 260.50 C 80.68 249.05 84.64 237.64 87.84 225.98 C 92.52 209.42 96.92 192.78 101.66 176.23 C 90.00 187.22 78.36 198.23 66.77 209.29 C 63.99 211.98 61.25 214.72 58.42 217.37 C 57.64 217.83 57.00 219.17 55.94 218.64 C 53.95 210.43 52.19 202.16 50.24 193.94 C 46.71 196.80 43.53 200.11 39.87 202.80 C 33.16 204.70 25.91 206.93 19.05 204.33 C 20.93 198.35 28.00 195.75 33.81 196.30 C 35.55 193.83 37.33 191.40 39.02 188.90 C 36.24 189.99 33.68 191.51 30.97 192.74 C 29.14 192.80 27.34 192.37 25.55 192.06 C 27.25 188.66 30.96 187.18 33.62 184.69 C 36.47 181.86 40.65 181.58 44.29 180.42 C 44.38 179.04 44.48 177.66 44.58 176.28 C 44.89 176.43 45.51 176.74 45.82 176.90 C 46.21 177.10 46.99 177.50 47.37 177.70 C 48.46 176.70 49.50 175.65 50.47 174.53 C 60.49 162.54 70.57 150.59 80.65 138.64 C 83.48 135.62 81.94 131.02 83.73 127.52 C 85.86 123.44 89.16 120.07 91.06 115.87 C 93.43 108.99 94.31 101.65 96.83 94.83 C 102.02 89.37 108.20 84.92 113.42 79.49 C 115.76 72.58 117.47 65.29 117.53 57.95 C 117.67 52.54 118.44 47.16 119.74 41.91 Z" />
</g>
<g id="#fe6800fe">
<path fill="#fe6800" opacity="1.00" d=" M 150.40 39.17 C 162.15 40.70 172.93 45.97 183.05 51.87 C 211.34 69.58 229.12 102.67 228.72 135.98 C 229.36 145.48 227.50 154.94 225.13 164.09 C 223.01 170.06 221.91 176.81 217.19 181.41 C 212.93 174.62 207.67 168.51 203.02 161.98 C 200.43 158.32 197.27 155.01 195.43 150.88 C 187.58 132.59 179.62 114.35 171.73 96.09 C 171.00 94.36 169.87 92.85 168.51 91.56 C 164.54 87.69 160.66 83.73 156.69 79.87 C 156.55 76.06 156.95 72.22 156.42 68.44 C 155.08 64.13 152.14 60.44 151.14 56.01 C 151.09 52.60 152.43 49.34 152.54 45.94 C 152.15 43.60 151.13 41.42 150.40 39.17 Z" />
<path fill="#fe6800" opacity="1.00" d=" M 105.06 43.96 C 109.82 42.67 114.76 40.48 119.74 41.91 C 118.44 47.16 117.67 52.54 117.53 57.95 C 117.47 65.29 115.76 72.58 113.42 79.49 C 108.20 84.92 102.02 89.37 96.83 94.83 C 94.31 101.65 93.43 108.99 91.06 115.87 C 89.16 120.07 85.86 123.44 83.73 127.52 C 81.94 131.02 83.48 135.62 80.65 138.64 C 70.57 150.59 60.49 162.54 50.47 174.53 C 49.50 175.65 48.46 176.70 47.37 177.70 C 46.99 177.50 46.21 177.10 45.82 176.90 C 46.60 175.15 45.66 173.43 45.06 171.82 C 36.00 148.85 36.27 122.48 45.64 99.65 C 55.92 73.55 78.17 52.27 105.06 43.96 Z" />
<path fill="#fe6800" opacity="1.00" d=" M 162.27 164.35 C 163.08 159.46 163.93 154.58 164.93 149.72 C 166.80 155.89 166.57 163.06 170.94 168.20 C 180.33 180.75 188.66 194.04 197.26 207.13 C 191.32 213.17 184.60 219.05 176.43 221.76 C 176.83 224.23 177.08 226.73 177.29 229.23 C 171.89 210.17 167.20 190.92 162.03 171.81 C 161.55 169.79 159.79 168.56 158.36 167.22 C 159.67 166.27 160.97 165.32 162.27 164.35 Z" />
<path fill="#fe6800" opacity="1.00" d=" M 101.66 176.23 C 96.92 192.78 92.52 209.42 87.84 225.98 C 85.18 222.56 81.04 220.96 77.73 218.32 C 73.98 215.43 70.23 212.53 66.77 209.29 C 78.36 198.23 90.00 187.22 101.66 176.23 Z" />
</g>
</svg>
