<?xml version="1.0" encoding="UTF-8" ?>
<!DOCTYPE svg PUBLIC "-//W3C//DTD SVG 1.1//EN" "http://www.w3.org/Graphics/SVG/1.1/DTD/svg11.dtd">
<svg width="225pt" height="225pt" viewBox="0 0 225 225" version="1.1" xmlns="http://www.w3.org/2000/svg">
<g id="#ffffffff">
</g>
<g id="#aa8dd8ff">
<path fill="#aa8dd8" opacity="1.00" d=" M 116.75 15.26 C 111.70 12.77 113.32 4.12 119.00 3.79 C 125.23 3.72 131.88 6.28 135.65 11.42 C 139.09 16.03 139.32 23.04 135.47 27.48 C 131.60 32.36 125.03 34.13 119.03 33.75 C 115.77 33.63 111.76 32.89 109.51 35.91 C 113.89 39.61 120.04 38.52 124.94 41.04 C 130.09 43.31 134.34 48.24 134.51 54.05 C 134.96 59.32 131.42 63.98 127.09 66.58 C 123.98 68.16 120.53 69.10 117.02 68.97 C 113.26 69.06 108.89 67.86 105.83 70.74 C 108.83 74.81 115.50 72.52 117.80 77.22 C 120.30 81.25 116.63 86.83 112.00 86.51 C 106.02 86.01 99.92 83.47 96.27 78.54 C 92.64 73.76 92.98 66.43 97.02 62.01 C 100.93 57.51 107.22 55.96 112.97 56.19 C 116.22 56.75 119.55 56.60 122.46 54.90 C 120.77 51.82 117.07 51.51 113.98 51.01 C 108.75 50.29 103.53 47.92 100.30 43.64 C 97.05 39.37 96.54 33.04 99.63 28.55 C 102.87 23.45 109.13 21.10 114.98 21.13 C 118.84 21.02 123.35 22.24 126.43 19.19 C 123.80 16.59 120.05 16.41 116.75 15.26 Z" />
<path fill="#aa8dd8" opacity="1.00" d=" M 162.11 102.34 C 179.96 94.87 199.83 92.07 219.02 94.78 C 221.90 94.88 223.90 97.06 225.00 99.53 L 225.00 101.82 C 224.36 104.26 222.73 106.79 220.00 107.06 C 216.32 107.27 212.69 106.41 209.03 106.29 C 195.65 105.74 182.18 108.02 169.68 112.81 C 161.67 116.02 153.92 119.98 146.94 125.08 C 143.78 127.35 138.94 125.58 137.84 121.87 C 136.43 118.86 138.49 115.59 140.97 113.89 C 147.52 109.23 154.63 105.33 162.11 102.34 Z" />
</g>
<g id="#77b255ff">
<path fill="#77b255" opacity="1.00" d=" M 25.12 7.30 C 32.11 5.13 40.58 6.99 45.18 12.93 C 50.91 20.25 51.52 30.02 51.72 38.96 C 51.42 57.99 47.25 76.72 42.06 94.95 C 41.46 98.50 37.41 100.97 34.01 99.63 C 30.81 98.82 28.98 95.13 30.00 92.04 C 34.86 74.07 39.21 55.68 39.14 36.96 C 39.03 31.60 38.87 25.77 35.80 21.17 C 34.38 19.00 31.50 18.39 29.15 19.24 C 26.06 20.89 25.45 24.75 25.10 27.92 C 24.73 30.78 25.78 34.19 23.47 36.47 C 20.79 39.84 14.73 39.01 13.12 34.98 C 11.84 30.75 12.60 26.19 13.43 21.95 C 14.83 15.67 18.71 9.34 25.12 7.30 Z" />
<path fill="#77b255" opacity="1.00" d=" M 191.07 143.08 C 196.32 141.41 202.32 141.23 207.34 143.75 C 211.90 145.98 215.21 150.93 214.97 156.07 C 214.65 162.11 210.30 167.25 205.00 169.80 C 201.42 171.79 196.90 172.05 193.98 175.16 C 193.95 175.58 193.90 176.42 193.87 176.84 C 198.60 178.89 203.28 175.48 208.10 175.85 C 214.72 175.48 222.13 179.19 223.92 185.94 C 224.05 188.62 224.16 191.34 223.77 194.00 C 221.74 200.07 215.89 203.97 209.99 205.72 C 207.28 206.56 203.89 207.61 203.06 210.69 C 206.61 212.56 210.32 210.51 213.98 210.86 C 218.99 211.81 220.41 219.28 216.03 221.95 C 207.65 226.48 194.32 223.79 191.34 213.79 C 189.02 206.07 194.71 198.43 201.65 195.55 C 205.22 193.62 210.85 193.72 212.25 189.14 C 209.32 187.62 206.06 188.44 203.08 189.28 C 196.85 190.89 189.46 189.90 184.84 185.09 C 180.74 181.00 180.16 174.12 183.17 169.24 C 185.88 164.43 190.95 161.53 196.10 159.99 C 198.67 159.08 202.03 158.10 202.59 155.00 C 198.37 152.62 193.32 157.03 189.45 153.70 C 185.63 151.01 186.66 144.56 191.07 143.08 Z" />
</g>
<g id="#ffcc4dff">
<path fill="#ffcc4d" opacity="1.00" d=" M 170.25 13.46 C 177.33 10.36 186.47 15.28 187.27 23.07 C 188.62 30.02 182.96 37.21 175.87 37.43 C 169.62 38.06 163.43 33.17 162.73 26.91 C 161.76 21.38 164.99 15.47 170.25 13.46 Z" />
<path fill="#ffcc4d" opacity="1.00" d=" M 200.12 44.27 C 206.62 41.75 213.97 48.23 212.25 54.98 C 211.36 61.88 201.90 64.94 196.94 60.20 C 191.57 55.85 193.45 46.19 200.12 44.27 Z" />
<path fill="#ffcc4d" opacity="1.00" d=" M 181.28 69.31 C 187.79 66.71 195.19 73.16 193.54 79.95 C 192.52 86.88 182.96 89.98 178.04 85.01 C 172.79 80.66 174.80 71.29 181.28 69.31 Z" />
<path fill="#ffcc4d" opacity="1.00" d=" M 37.07 147.48 C 37.55 143.57 39.60 140.24 42.81 137.97 C 47.17 136.93 52.53 137.73 54.88 142.00 C 58.80 147.75 53.99 156.55 46.99 156.25 C 41.83 156.60 38.20 152.07 37.07 147.48 Z" />
</g>
<g id="#a0041eff">
<path fill="#a0041e" opacity="1.00" d=" M 72.71 46.88 C 75.69 43.38 80.52 42.24 84.92 43.16 C 95.17 45.09 104.45 50.37 112.97 56.19 C 107.22 55.96 100.93 57.51 97.02 62.01 C 92.98 66.43 92.64 73.76 96.27 78.54 C 99.92 83.47 106.02 86.01 112.00 86.51 C 116.63 86.83 120.30 81.25 117.80 77.22 C 115.50 72.52 108.83 74.81 105.83 70.74 C 108.89 67.86 113.26 69.06 117.02 68.97 C 120.53 69.10 123.98 68.16 127.09 66.58 C 139.94 77.26 151.86 89.12 162.11 102.34 C 154.63 105.33 147.52 109.23 140.97 113.89 C 138.49 115.59 136.43 118.86 137.84 121.87 C 138.94 125.58 143.78 127.35 146.94 125.08 C 153.92 119.98 161.67 116.02 169.68 112.81 C 175.28 121.83 181.18 131.30 182.37 142.07 C 182.98 146.28 181.25 150.35 178.27 153.26 C 168.50 154.85 159.06 151.04 150.65 146.48 C 133.31 136.50 118.09 123.22 104.30 108.81 C 95.52 99.00 87.11 88.77 80.51 77.33 C 75.53 68.15 69.46 57.65 72.71 46.88 Z" />
</g>
<g id="#dd2e44ff">
<path fill="#dd2e44" opacity="1.00" d=" M 70.13 51.06 C 70.80 49.56 71.66 48.15 72.71 46.88 C 69.46 57.65 75.53 68.15 80.51 77.33 C 77.61 80.30 75.77 84.06 73.59 87.54 C 63.34 104.36 52.80 121.00 42.81 137.97 C 39.60 140.24 37.55 143.57 37.07 147.48 C 28.34 160.47 20.70 174.16 12.29 187.35 C 9.92 190.85 8.57 195.18 5.05 197.75 C 26.70 148.84 48.49 99.98 70.13 51.06 Z" />
<path fill="#dd2e44" opacity="1.00" d=" M 104.30 108.81 C 118.09 123.22 133.31 136.50 150.65 146.48 C 159.06 151.04 168.50 154.85 178.27 153.26 C 176.61 154.38 174.83 155.27 173.00 156.06 C 121.13 178.98 69.39 202.21 17.46 225.00 L 15.44 225.00 C 13.78 224.39 12.15 223.68 10.56 222.90 C 41.80 184.87 72.87 146.68 104.30 108.81 Z" />
</g>
<g id="#5c913bff">
<path fill="#5c913b" opacity="1.00" d=" M 157.19 50.27 C 163.60 48.38 170.34 55.11 168.43 61.54 C 167.14 68.32 157.63 71.17 152.88 66.05 C 147.55 61.41 150.22 51.57 157.19 50.27 Z" />
<path fill="#5c913b" opacity="1.00" d=" M 199.24 113.33 C 204.49 110.87 211.43 114.24 212.27 120.09 C 213.51 125.31 209.32 130.77 204.03 131.15 C 198.84 131.82 193.63 127.29 193.84 122.01 C 193.57 118.34 196.05 114.91 199.24 113.33 Z" />
<path fill="#5c913b" opacity="1.00" d=" M 143.19 188.26 C 149.13 185.60 156.58 190.46 156.20 197.01 C 156.49 204.01 147.72 208.75 141.96 204.86 C 135.62 201.33 136.36 190.78 143.19 188.26 Z" />
</g>
<g id="#ea596eff">
<path fill="#ea596e" opacity="1.00" d=" M 73.59 87.54 C 75.77 84.06 77.61 80.30 80.51 77.33 C 87.11 88.77 95.52 99.00 104.30 108.81 C 72.87 146.68 41.80 184.87 10.56 222.90 C 6.83 220.24 3.41 216.88 1.45 212.67 C -1.08 207.45 3.22 202.46 5.05 197.75 C 8.57 195.18 9.92 190.85 12.29 187.35 C 20.70 174.16 28.34 160.47 37.07 147.48 C 38.20 152.07 41.83 156.60 46.99 156.25 C 53.99 156.55 58.80 147.75 54.88 142.00 C 52.53 137.73 47.17 136.93 42.81 137.97 C 52.80 121.00 63.34 104.36 73.59 87.54 Z" />
</g>
<g id="#9266ccff">
<path fill="#9266cc" opacity="1.00" d=" M 4.75 102.70 C 10.28 97.95 19.59 99.70 23.17 106.00 C 27.36 112.33 24.03 121.71 16.92 124.20 C 9.55 127.36 0.68 121.56 0.00 113.70 L 0.00 110.35 C 0.88 107.44 2.27 104.56 4.75 102.70 Z" />
</g>
</svg>
