<?xml version="1.0" encoding="UTF-8" ?>
<!DOCTYPE svg PUBLIC "-//W3C//DTD SVG 1.1//EN" "http://www.w3.org/Graphics/SVG/1.1/DTD/svg11.dtd">
<svg width="134pt" height="172pt" viewBox="0 0 134 172" version="1.1" xmlns="http://www.w3.org/2000/svg">
<g id="#ffffffff">
<path fill="#ffffff" opacity="1.00" d=" M 36.09 87.78 C 35.44 86.62 35.72 85.80 36.95 85.30 C 37.07 85.70 37.32 86.49 37.45 86.89 C 37.11 87.11 36.43 87.56 36.09 87.78 Z" />
</g>
<g id="#450000ff">
<path fill="#450000" opacity="1.00" d=" M 73.96 0.00 L 79.17 0.00 C 83.26 1.79 87.37 4.30 89.32 8.50 C 90.11 10.07 91.05 11.57 92.07 13.00 C 93.02 16.53 94.32 19.96 95.81 23.29 L 95.79 23.81 C 95.62 26.64 95.13 29.45 94.62 32.24 C 94.72 27.87 94.25 23.45 92.33 19.47 C 90.89 14.46 88.61 9.65 85.41 5.53 C 83.09 3.46 80.06 2.23 77.06 1.54 C 71.40 1.73 66.97 5.80 63.19 9.60 C 67.10 9.69 71.26 9.64 74.80 11.57 C 77.25 13.05 79.24 15.14 81.33 17.07 C 81.87 15.22 82.46 13.37 83.32 11.64 C 83.59 14.43 83.62 17.24 83.61 20.04 C 86.70 22.54 89.69 25.42 90.78 29.38 C 90.60 29.93 90.26 31.02 90.08 31.57 C 89.18 29.81 88.35 28.02 87.59 26.20 C 86.22 24.84 84.83 23.50 83.40 22.21 C 82.71 21.59 82.03 20.98 81.36 20.35 C 79.58 17.78 77.61 15.30 74.82 13.77 C 71.42 11.06 67.03 10.50 62.83 10.33 C 62.39 10.65 61.51 11.28 61.07 11.60 L 60.81 10.96 C 61.95 6.49 66.67 3.89 70.30 1.44 C 71.52 0.97 72.74 0.49 73.96 0.00 Z" />
<path fill="#450000" opacity="1.00" d=" M 64.45 22.22 C 65.72 22.26 65.35 23.76 65.72 24.57 C 64.96 24.68 63.43 24.90 62.67 25.01 C 63.22 24.06 63.82 23.13 64.45 22.22 Z" />
<path fill="#450000" opacity="1.00" d=" M 56.08 25.82 C 54.85 24.36 57.23 22.16 58.60 23.45 C 59.65 24.79 57.37 26.86 56.08 25.82 Z" />
</g>
<g id="#f70300ff">
<path fill="#f70300" opacity="1.00" d=" M 63.19 9.60 C 66.97 5.80 71.40 1.73 77.06 1.54 C 80.06 2.23 83.09 3.46 85.41 5.53 C 88.61 9.65 90.89 14.46 92.33 19.47 C 92.43 23.55 93.89 27.78 92.11 31.71 C 91.78 31.13 91.11 29.97 90.78 29.38 C 89.69 25.42 86.70 22.54 83.61 20.04 C 83.62 17.24 83.59 14.43 83.32 11.64 C 82.46 13.37 81.87 15.22 81.33 17.07 C 79.24 15.14 77.25 13.05 74.80 11.57 C 71.26 9.64 67.10 9.69 63.19 9.60 Z" />
<path fill="#f70300" opacity="1.00" d=" M 93.52 59.58 C 93.80 56.42 93.67 53.24 93.51 50.08 C 97.12 51.12 100.73 52.39 104.52 52.49 C 104.95 52.56 105.81 52.70 106.23 52.77 C 106.45 53.18 106.90 54.00 107.12 54.41 C 106.33 56.67 105.87 59.25 104.08 60.96 C 100.92 63.28 96.96 64.41 93.05 64.28 C 93.22 62.71 93.39 61.15 93.52 59.58 Z" />
</g>
<g id="#000000ff">
<path fill="#000000" opacity="1.00" d=" M 55.12 14.00 C 56.44 12.16 58.81 11.69 60.81 10.96 L 61.07 11.60 C 61.51 11.28 62.39 10.65 62.83 10.33 C 67.03 10.50 71.42 11.06 74.82 13.77 C 71.02 11.99 67.01 10.77 62.75 11.19 C 58.05 13.30 52.96 16.55 52.63 22.28 L 53.45 22.54 C 53.83 22.64 54.59 22.84 54.96 22.95 L 54.45 23.59 C 54.31 24.66 54.03 26.80 53.89 27.87 C 53.32 26.67 52.95 25.38 52.78 24.06 C 51.97 23.30 51.14 22.55 50.31 21.81 C 50.71 21.61 51.50 21.20 51.89 20.99 C 51.89 20.67 51.87 20.01 51.87 19.69 C 53.00 17.82 53.87 15.80 55.12 14.00 Z" />
<path fill="#000000" opacity="1.00" d=" M 2.38 87.29 C 2.70 86.73 3.03 86.16 3.34 85.59 C 6.19 89.64 11.29 86.12 14.93 85.22 C 14.74 85.72 14.37 86.72 14.19 87.21 C 10.36 89.08 6.08 89.05 1.92 88.89 C 1.57 90.36 1.22 91.82 0.88 93.29 C 3.57 93.43 6.02 92.36 8.31 91.09 C 6.90 93.82 4.14 95.95 4.51 99.33 C 6.50 98.11 8.47 96.69 10.86 96.43 C 9.57 97.71 8.33 99.04 7.10 100.37 C 5.83 99.90 4.57 99.41 3.32 98.91 C 3.34 98.20 3.38 96.77 3.40 96.05 C 2.16 95.59 1.03 94.95 0.00 94.13 L 0.00 89.38 C 0.37 89.06 1.12 88.42 1.49 88.10 C 1.71 87.90 2.16 87.49 2.38 87.29 Z" />
<path fill="#000000" opacity="1.00" d=" M 17.69 85.44 C 19.92 85.45 22.22 85.11 24.40 85.73 C 27.05 88.30 28.95 91.54 31.35 94.35 L 29.40 94.69 C 28.39 94.29 27.88 93.48 27.86 92.27 C 23.17 90.17 16.84 90.32 13.65 94.94 C 13.79 93.73 13.92 92.52 14.07 91.31 C 17.88 90.24 21.83 89.86 25.78 89.87 C 24.84 88.89 24.41 87.17 22.96 86.81 C 20.96 86.62 19.02 87.34 17.09 87.73 C 17.24 87.15 17.54 86.01 17.69 85.44 Z" />
<path fill="#000000" opacity="1.00" d=" M 119.51 129.19 C 119.96 129.42 120.86 129.88 121.31 130.11 C 121.94 130.23 123.20 130.48 123.84 130.60 C 125.04 132.67 126.30 134.71 127.71 136.66 C 128.11 138.16 128.33 139.70 128.43 141.25 C 128.71 141.51 129.26 142.03 129.54 142.29 C 129.47 145.41 129.46 148.53 129.55 151.64 C 125.20 154.64 119.78 154.73 114.77 155.65 C 112.54 156.33 110.34 155.26 108.15 154.92 C 108.11 154.15 108.03 152.62 107.99 151.86 C 113.97 156.56 121.86 152.97 128.20 150.95 C 128.94 144.70 127.58 138.18 123.91 133.03 C 122.53 131.99 120.87 131.41 119.32 130.68 C 119.37 130.31 119.46 129.56 119.51 129.19 Z" />
<path fill="#000000" opacity="1.00" d=" M 113.06 142.97 C 113.82 142.73 115.33 142.25 116.09 142.01 C 115.96 144.21 115.33 146.31 113.94 148.06 C 113.43 147.75 112.39 147.14 111.88 146.84 C 113.07 146.06 114.21 145.22 115.36 144.38 C 114.78 144.03 113.63 143.33 113.06 142.97 Z" />
<path fill="#000000" opacity="1.00" d=" M 70.56 151.54 C 73.55 152.91 76.72 154.38 78.84 156.98 C 78.21 162.64 69.69 163.02 70.64 169.25 C 76.76 169.82 82.92 169.71 89.05 169.55 C 92.31 169.54 94.80 167.11 97.45 165.56 C 96.27 167.54 94.72 169.24 93.08 170.85 C 88.47 171.29 83.38 169.70 79.15 172.00 L 77.04 172.00 L 78.52 170.94 C 76.08 170.86 73.65 170.85 71.21 170.84 C 70.24 169.18 69.31 167.51 68.32 165.87 C 70.96 163.55 74.22 161.97 76.52 159.27 C 77.76 154.73 71.80 153.73 68.97 151.82 L 70.56 151.54 Z" />
</g>
<g id="#d0cbd0ff">
<path fill="#d0cbd0" opacity="1.00" d=" M 62.75 11.19 C 67.01 10.77 71.02 11.99 74.82 13.77 C 77.61 15.30 79.58 17.78 81.36 20.35 C 82.57 24.12 82.04 28.14 82.12 32.03 C 81.21 33.04 80.30 34.06 79.41 35.08 C 78.85 33.75 78.28 32.43 77.71 31.11 C 80.45 29.25 80.12 25.96 80.01 23.04 C 77.49 21.62 75.46 19.37 72.71 18.35 C 69.91 17.49 67.00 16.92 64.07 16.81 C 60.25 18.20 55.81 18.78 53.45 22.54 L 52.63 22.28 C 52.96 16.55 58.05 13.30 62.75 11.19 Z" />
</g>
<g id="#210000ff">
<path fill="#210000" opacity="1.00" d=" M 53.45 22.54 C 55.81 18.78 60.25 18.20 64.07 16.81 C 67.00 16.92 69.91 17.49 72.71 18.35 C 75.46 19.37 77.49 21.62 80.01 23.04 C 80.12 25.96 80.45 29.25 77.71 31.11 C 78.28 32.43 78.85 33.75 79.41 35.08 C 80.30 34.06 81.21 33.04 82.12 32.03 C 82.04 28.14 82.57 24.12 81.36 20.35 C 82.03 20.98 82.71 21.59 83.40 22.21 C 83.30 25.41 83.33 28.61 83.26 31.81 C 82.24 33.52 81.37 35.33 80.60 37.17 C 83.69 36.76 86.82 36.23 89.70 34.99 C 90.44 34.97 91.91 34.95 92.65 34.94 C 91.77 33.84 90.75 32.82 90.08 31.57 C 90.26 31.02 90.60 29.93 90.78 29.38 C 91.11 29.97 91.78 31.13 92.11 31.71 C 92.84 32.45 93.59 33.18 94.36 33.89 C 94.42 33.47 94.56 32.65 94.62 32.24 C 95.13 29.45 95.62 26.64 95.79 23.81 C 95.75 25.30 95.73 26.80 95.71 28.30 C 96.09 28.82 96.85 29.86 97.23 30.38 C 97.92 30.33 99.30 30.24 99.99 30.19 C 100.98 31.70 101.44 33.44 101.82 35.18 C 103.11 34.46 104.40 33.63 105.92 33.56 L 104.26 35.33 C 107.87 35.81 110.74 38.06 113.72 39.92 C 117.36 42.25 120.38 45.36 123.46 48.36 C 124.78 50.75 126.22 53.06 127.56 55.44 C 127.80 56.36 128.02 57.29 128.23 58.22 C 125.05 56.33 124.81 52.16 122.32 49.64 C 116.53 43.48 109.50 37.62 100.91 36.21 C 93.37 35.45 85.24 36.48 78.79 40.69 C 79.97 42.34 81.03 44.10 82.47 45.55 C 84.12 46.16 85.94 46.05 87.68 46.25 L 88.52 47.12 C 87.07 47.21 85.62 47.30 84.17 47.39 C 86.10 50.51 85.65 54.21 85.74 57.70 C 84.17 60.23 82.27 62.53 80.40 64.84 C 79.95 64.63 79.06 64.21 78.61 64.00 C 79.32 65.88 80.09 67.73 80.92 69.55 C 79.87 71.02 78.71 72.41 77.42 73.68 C 73.36 73.46 69.37 72.68 65.56 71.26 C 65.40 68.04 65.70 64.47 63.31 61.94 L 62.42 60.98 C 65.15 60.18 67.92 57.70 70.87 59.09 C 73.90 60.03 76.67 62.03 79.91 62.12 C 84.48 60.11 84.87 53.81 83.35 49.67 C 81.05 45.63 78.03 41.49 73.61 39.63 C 69.91 38.95 66.67 42.05 65.29 45.21 C 66.55 44.62 67.81 44.02 69.06 43.41 C 68.86 43.84 68.46 44.70 68.26 45.13 C 66.61 45.83 64.79 46.26 63.37 47.40 C 61.70 48.78 62.18 51.19 61.83 53.08 C 63.70 52.54 65.58 52.00 67.46 51.51 C 65.80 53.11 63.91 54.47 62.25 56.08 C 61.94 57.71 61.88 59.37 61.74 61.02 C 60.54 61.08 59.34 61.13 58.14 61.19 C 59.05 58.94 61.79 55.28 58.99 53.58 C 57.19 54.64 55.70 56.81 53.35 56.29 C 55.62 53.99 55.77 50.53 53.24 48.37 C 52.28 50.73 51.44 53.13 50.64 55.54 C 50.29 55.41 49.59 55.13 49.25 54.99 C 49.34 53.63 49.43 52.27 49.50 50.91 C 40.26 53.34 34.80 61.69 28.82 68.42 C 30.78 69.38 32.80 70.31 35.00 70.51 C 35.23 71.51 35.45 72.51 35.68 73.51 C 32.61 71.30 28.90 70.57 25.18 70.78 C 23.59 72.47 22.06 74.23 20.73 76.14 C 23.18 76.32 25.63 76.28 28.07 76.57 C 30.50 77.38 32.53 79.05 34.79 80.23 C 34.90 80.85 35.11 82.08 35.22 82.70 C 36.70 80.27 37.30 77.51 37.28 74.68 C 37.72 74.56 38.59 74.32 39.02 74.20 C 38.98 74.91 38.90 76.31 38.86 77.02 L 38.63 78.01 C 38.15 80.27 38.06 82.60 37.81 84.90 L 36.95 85.30 C 35.72 85.80 35.44 86.62 36.09 87.78 C 36.43 87.56 37.11 87.11 37.45 86.89 C 38.04 89.93 37.70 93.80 40.97 95.39 C 41.27 95.59 41.88 96.00 42.18 96.20 C 43.07 96.76 43.97 97.31 44.89 97.84 C 44.87 101.16 44.85 104.56 46.15 107.69 C 49.73 109.52 53.61 110.53 57.66 110.35 C 58.85 110.73 60.05 111.11 61.26 111.48 C 60.89 110.89 60.16 109.70 59.80 109.11 C 59.38 106.93 58.90 104.76 58.45 102.59 C 59.08 102.92 60.33 103.59 60.96 103.92 C 60.95 105.35 60.95 106.78 60.95 108.21 C 61.94 108.50 62.93 108.79 63.93 109.06 L 63.60 110.22 C 63.44 110.86 63.28 111.50 63.12 112.15 C 61.17 112.44 59.24 112.83 57.35 113.37 C 58.19 116.60 58.69 119.91 58.79 123.25 C 61.11 120.52 64.18 118.56 67.37 117.00 C 68.66 116.26 70.14 116.82 71.37 117.38 C 76.95 120.06 82.85 122.33 88.96 123.32 C 93.53 121.81 98.04 120.10 102.53 118.37 C 104.76 116.77 106.92 115.06 108.97 113.22 C 109.26 113.49 109.83 114.01 110.12 114.28 C 109.70 114.44 108.86 114.78 108.44 114.94 C 106.79 116.65 105.11 118.33 103.38 119.94 C 104.79 120.73 106.19 121.56 107.61 122.35 C 109.01 123.02 110.40 123.69 111.74 124.48 C 108.98 124.77 106.51 123.31 104.08 122.22 C 106.57 128.18 107.00 134.79 105.88 141.12 C 108.27 141.25 110.67 141.39 113.07 141.51 C 110.16 141.59 107.26 141.91 104.47 142.76 C 101.97 142.83 99.36 143.09 97.04 141.97 C 94.87 141.73 92.70 141.39 90.68 140.53 C 91.72 142.79 92.81 145.02 93.80 147.29 C 90.96 146.12 90.50 142.96 89.43 140.45 C 88.67 138.39 87.12 136.79 85.73 135.16 C 83.84 139.93 79.28 142.66 74.96 144.95 C 72.57 146.28 69.75 146.05 67.11 146.18 C 66.78 147.09 66.46 148.00 66.16 148.93 C 65.63 147.86 65.28 146.73 65.11 145.54 C 63.41 143.71 61.66 141.92 59.88 140.16 C 59.75 139.68 59.49 138.71 59.36 138.23 C 58.92 137.88 58.03 137.18 57.59 136.84 C 56.73 133.74 55.09 130.07 57.35 127.17 C 57.46 124.42 57.46 121.67 57.28 118.93 C 56.33 117.50 56.22 115.80 56.10 114.14 C 55.42 113.40 54.74 112.66 54.06 111.93 C 54.52 116.87 53.17 121.69 51.57 126.31 C 47.83 125.81 45.35 122.69 42.48 120.55 C 39.74 118.50 38.40 115.30 37.01 112.30 C 37.80 110.58 38.48 108.82 39.36 107.15 C 39.61 109.67 39.09 112.37 40.00 114.78 C 42.22 118.69 46.15 121.13 49.56 123.89 C 52.99 120.87 52.84 116.13 52.67 111.95 C 50.61 111.13 48.58 110.26 46.55 109.38 C 45.64 109.87 44.72 110.33 43.80 110.79 C 47.89 107.98 41.54 103.13 39.36 107.15 C 39.41 105.06 39.42 102.97 39.32 100.88 C 37.80 99.03 38.25 96.59 38.19 94.39 C 37.66 94.57 36.60 94.95 36.06 95.13 C 35.09 95.08 34.12 95.03 33.15 94.98 C 34.61 93.75 36.05 92.50 37.45 91.21 C 36.29 89.87 35.13 88.53 33.99 87.17 C 34.31 85.85 34.69 84.55 34.87 83.20 C 32.34 79.28 27.54 77.30 22.95 77.88 C 16.05 78.63 8.28 78.69 2.93 83.78 C 2.93 83.29 2.92 82.32 2.92 81.84 C 4.26 80.45 6.05 79.67 7.73 78.80 C 9.22 78.68 10.69 78.41 12.02 77.72 C 14.82 77.69 17.63 77.50 20.18 76.24 C 20.21 75.53 20.27 74.12 20.29 73.41 C 21.63 72.24 22.95 71.06 24.28 69.90 C 24.90 69.76 26.12 69.49 26.74 69.35 C 28.70 65.56 32.43 63.22 34.62 59.61 C 37.22 55.61 41.55 53.41 45.35 50.75 C 47.12 50.03 48.94 49.44 50.81 49.01 C 51.13 48.68 51.76 48.00 52.08 47.67 C 50.32 47.03 48.45 46.28 47.49 44.55 C 46.71 40.54 47.06 36.23 49.23 32.68 C 49.46 33.99 49.66 35.32 49.74 36.65 C 49.45 36.98 48.89 37.64 48.61 37.97 C 48.55 38.85 48.43 40.63 48.38 41.51 C 48.47 41.93 48.65 42.76 48.75 43.18 C 49.70 45.10 51.69 46.02 53.43 47.08 C 54.65 47.09 55.87 47.12 57.09 47.16 C 58.48 47.44 59.81 47.33 61.07 46.83 L 61.40 46.64 C 63.72 43.53 66.50 40.82 69.32 38.17 C 70.00 38.20 71.35 38.28 72.03 38.32 C 72.72 36.32 73.25 34.28 73.83 32.26 C 73.70 31.77 73.58 31.29 73.46 30.80 C 74.45 27.66 73.65 23.96 76.56 21.67 C 75.55 20.99 74.47 20.40 73.41 19.80 C 73.80 24.16 71.07 27.80 70.83 32.03 C 69.96 33.05 69.08 34.05 68.20 35.05 C 67.25 35.00 65.35 34.92 64.40 34.88 C 64.29 35.39 64.08 36.39 63.98 36.89 C 62.57 37.39 61.17 37.91 59.78 38.42 C 58.63 37.78 57.47 37.16 56.34 36.50 L 56.20 35.52 C 56.15 35.19 56.05 34.52 56.00 34.19 C 54.81 33.72 53.58 33.64 52.32 33.95 L 51.61 32.24 L 50.72 33.90 L 49.63 32.88 C 50.13 31.50 50.64 30.12 51.15 28.75 C 51.81 29.99 52.49 31.21 53.20 32.42 C 52.80 30.64 52.28 28.89 51.67 27.17 C 52.53 27.63 53.40 28.11 54.26 28.60 C 54.63 29.98 55.08 31.34 55.50 32.71 C 57.27 31.82 59.22 31.47 61.17 31.23 C 62.38 32.00 63.60 32.74 64.82 33.50 C 65.76 33.53 67.64 33.58 68.59 33.61 L 68.60 32.07 C 67.93 31.77 66.59 31.17 65.93 30.87 C 65.16 30.44 64.40 30.03 63.64 29.61 C 61.53 30.83 58.97 30.33 56.66 30.65 C 56.54 30.24 56.31 29.42 56.20 29.01 C 57.36 28.90 58.52 28.80 59.69 28.70 C 62.74 27.40 65.68 28.37 68.04 30.52 C 70.91 28.12 72.48 24.67 72.11 20.91 C 71.76 20.53 71.04 19.77 70.68 19.39 C 68.41 18.82 66.13 18.26 63.83 17.81 C 63.48 18.11 62.79 18.72 62.44 19.02 C 59.54 19.43 57.03 20.93 54.96 22.95 C 54.59 22.84 53.83 22.64 53.45 22.54 M 75.50 24.90 C 75.57 26.85 75.65 28.79 75.77 30.73 C 79.34 29.81 78.86 26.31 78.68 23.42 C 77.88 23.79 76.29 24.53 75.50 24.90 M 74.22 37.73 C 74.97 38.28 75.71 38.84 76.46 39.39 C 77.34 39.31 78.22 39.22 79.10 39.14 C 78.82 37.79 78.46 36.47 77.72 35.29 C 77.23 34.04 76.75 32.78 76.28 31.51 C 74.73 33.24 74.30 35.48 74.22 37.73 M 97.01 31.96 C 95.93 33.58 98.69 34.61 99.78 33.65 C 100.70 32.20 98.02 30.70 97.01 31.96 M 59.00 37.38 C 60.85 36.67 62.61 35.72 64.09 34.38 C 62.46 33.62 60.86 32.55 58.99 32.56 C 56.68 33.54 57.99 35.98 59.00 37.38 M 56.39 49.53 C 56.39 52.20 59.87 49.67 60.00 48.05 C 58.76 48.43 57.49 48.80 56.39 49.53 M 67.94 60.74 C 67.87 62.19 65.18 64.83 67.04 65.56 C 67.91 66.89 68.01 68.46 68.02 70.00 C 71.41 70.88 76.26 74.25 78.73 70.14 C 75.59 69.74 71.51 70.87 69.45 67.73 C 72.52 68.58 75.71 68.85 78.89 68.81 C 78.88 68.50 78.88 67.89 78.87 67.58 L 78.31 67.68 C 78.00 66.46 77.64 65.26 77.23 64.07 C 74.45 62.29 71.36 60.51 67.94 60.74 M 39.51 97.68 C 39.95 100.07 40.99 102.26 42.38 104.23 C 43.95 102.83 43.10 100.86 42.77 99.13 C 41.68 98.65 40.60 98.16 39.51 97.68 M 65.63 119.59 C 62.61 121.30 60.10 123.82 58.62 126.98 C 58.60 129.13 58.55 131.27 58.45 133.42 C 59.22 137.48 62.13 141.07 65.38 143.53 C 68.16 144.38 71.13 143.96 73.98 143.96 L 73.96 142.92 C 77.13 142.27 79.84 140.41 82.05 138.11 C 83.58 136.26 83.67 133.86 82.35 131.86 C 83.46 129.76 84.65 127.71 85.88 125.68 C 81.18 123.81 77.05 120.25 71.94 119.62 L 71.68 119.35 C 69.67 119.40 67.60 119.06 65.63 119.59 M 90.85 124.50 C 88.04 124.94 85.81 127.32 85.39 130.10 C 85.08 130.57 84.46 131.50 84.15 131.97 C 87.56 133.41 88.94 137.26 91.98 139.27 C 94.41 139.76 96.83 140.79 99.36 140.48 C 100.59 141.22 101.91 141.71 103.34 141.96 C 105.36 138.68 104.63 134.72 104.65 131.08 C 104.67 127.41 103.08 123.71 100.26 121.33 C 97.25 122.74 94.08 123.75 90.85 124.50 Z" />
<path fill="#210000" opacity="1.00" d=" M 47.06 104.38 C 47.19 103.78 47.44 102.59 47.57 101.99 C 50.19 103.27 53.10 103.52 55.98 103.51 C 56.46 104.55 56.95 105.60 57.45 106.64 C 57.45 107.24 57.44 108.45 57.44 109.06 C 54.00 108.58 50.62 107.76 47.36 106.56 C 47.29 106.02 47.14 104.92 47.06 104.38 M 47.80 104.44 C 49.66 106.26 52.52 106.13 54.91 106.74 C 54.81 103.31 50.06 104.90 47.80 104.44 Z" />
</g>
<g id="#ff9b9eff">
<path fill="#ff9b9e" opacity="1.00" d=" M 63.83 17.81 C 66.13 18.26 68.41 18.82 70.68 19.39 C 71.04 19.77 71.76 20.53 72.11 20.91 C 72.48 24.67 70.91 28.12 68.04 30.52 C 65.68 28.37 62.74 27.40 59.69 28.70 C 58.52 28.80 57.36 28.90 56.20 29.01 C 55.81 28.61 55.04 27.81 54.65 27.41 C 54.60 26.46 54.50 24.54 54.45 23.59 L 54.96 22.95 C 57.03 20.93 59.54 19.43 62.44 19.02 C 62.79 18.72 63.48 18.11 63.83 17.81 M 65.49 19.37 C 66.01 19.87 66.01 19.87 65.49 19.37 M 64.45 22.22 C 63.82 23.13 63.22 24.06 62.67 25.01 C 63.43 24.90 64.96 24.68 65.72 24.57 C 65.35 23.76 65.72 22.26 64.45 22.22 M 56.08 25.82 C 57.37 26.86 59.65 24.79 58.60 23.45 C 57.23 22.16 54.85 24.36 56.08 25.82 Z" />
</g>
<g id="#450a10ff">
<path fill="#450a10" opacity="1.00" d=" M 65.49 19.37 C 66.01 19.87 66.01 19.87 65.49 19.37 Z" />
</g>
<g id="#ccc9ccff">
<path fill="#ccc9cc" opacity="1.00" d=" M 73.41 19.80 C 74.47 20.40 75.55 20.99 76.56 21.67 C 73.65 23.96 74.45 27.66 73.46 30.80 C 73.58 31.29 73.70 31.77 73.83 32.26 C 73.25 34.28 72.72 36.32 72.03 38.32 C 71.35 38.28 70.00 38.20 69.32 38.17 C 66.50 40.82 63.72 43.53 61.40 46.64 L 61.07 46.83 C 60.20 45.25 57.81 45.65 57.09 47.16 C 55.87 47.12 54.65 47.09 53.43 47.08 C 51.69 46.02 49.70 45.10 48.75 43.18 C 50.10 42.30 49.98 41.74 48.38 41.51 C 48.43 40.63 48.55 38.85 48.61 37.97 C 48.89 37.64 49.45 36.98 49.74 36.65 C 49.94 36.42 50.34 35.95 50.54 35.71 C 50.59 35.26 50.68 34.36 50.72 33.90 L 51.61 32.24 L 52.32 33.95 C 52.63 35.80 54.71 36.10 56.20 35.52 L 56.34 36.50 C 57.47 37.16 58.63 37.78 59.78 38.42 C 61.17 37.91 62.57 37.39 63.98 36.89 C 64.08 36.39 64.29 35.39 64.40 34.88 C 65.35 34.92 67.25 35.00 68.20 35.05 C 69.08 34.05 69.96 33.05 70.83 32.03 C 71.07 27.80 73.80 24.16 73.41 19.80 Z" />
</g>
<g id="#ca181aff">
<path fill="#ca181a" opacity="1.00" d=" M 92.33 19.47 C 94.25 23.45 94.72 27.87 94.62 32.24 C 94.56 32.65 94.42 33.47 94.36 33.89 C 93.59 33.18 92.84 32.45 92.11 31.71 C 93.89 27.78 92.43 23.55 92.33 19.47 Z" />
</g>
<g id="#fbfafeff">
<path fill="#fbfafe" opacity="1.00" d=" M 97.01 31.96 C 98.02 30.70 100.70 32.20 99.78 33.65 C 98.69 34.61 95.93 33.58 97.01 31.96 Z" />
</g>
<g id="#edb5c1ff">
<path fill="#edb5c1" opacity="1.00" d=" M 75.50 24.90 C 76.29 24.53 77.88 23.79 78.68 23.42 C 78.86 26.31 79.34 29.81 75.77 30.73 C 75.65 28.79 75.57 26.85 75.50 24.90 Z" />
</g>
<g id="#f5b0bbff">
<path fill="#f5b0bb" opacity="1.00" d=" M 74.22 37.73 C 74.30 35.48 74.73 33.24 76.28 31.51 C 76.75 32.78 77.23 34.04 77.72 35.29 C 78.46 36.47 78.82 37.79 79.10 39.14 C 78.22 39.22 77.34 39.31 76.46 39.39 C 75.71 38.84 74.97 38.28 74.22 37.73 Z" />
<path fill="#f5b0bb" opacity="1.00" d=" M 56.39 49.53 C 57.49 48.80 58.76 48.43 60.00 48.05 C 59.87 49.67 56.39 52.20 56.39 49.53 Z" />
</g>
<g id="#76111dff">
<path fill="#76111d" opacity="1.00" d=" M 59.00 37.38 C 57.99 35.98 56.68 33.54 58.99 32.56 C 60.86 32.55 62.46 33.62 64.09 34.38 C 62.61 35.72 60.85 36.67 59.00 37.38 Z" />
</g>
<g id="#e6e2e0ff">
<path fill="#e6e2e0" opacity="1.00" d=" M 52.32 33.95 C 53.58 33.64 54.81 33.72 56.00 34.19 C 56.05 34.52 56.15 35.19 56.20 35.52 C 54.71 36.10 52.63 35.80 52.32 33.95 Z" />
</g>
<g id="#9b6633ff">
<path fill="#9b6633" opacity="1.00" d=" M 78.79 40.69 C 85.24 36.48 93.37 35.45 100.91 36.21 C 109.50 37.62 116.53 43.48 122.32 49.64 C 124.81 52.16 125.05 56.33 128.23 58.22 C 128.38 60.59 128.94 62.92 129.82 65.13 C 128.39 65.57 128.42 66.16 129.89 66.89 C 128.65 79.84 116.53 89.06 104.58 91.83 C 103.95 89.08 103.80 86.24 103.26 83.48 C 102.22 79.90 100.65 76.52 99.27 73.07 C 104.13 74.03 108.37 71.40 112.55 69.40 C 116.13 62.78 112.23 55.39 107.62 50.45 C 105.35 47.68 101.54 46.83 99.43 43.91 C 95.30 43.13 91.39 44.64 87.68 46.25 C 85.94 46.05 84.12 46.16 82.47 45.55 C 81.03 44.10 79.97 42.34 78.79 40.69 Z" />
</g>
<g id="#2f3534ff">
<path fill="#2f3534" opacity="1.00" d=" M 65.29 45.21 C 66.67 42.05 69.91 38.95 73.61 39.63 C 78.03 41.49 81.05 45.63 83.35 49.67 C 84.87 53.81 84.48 60.11 79.91 62.12 C 76.67 62.03 73.90 60.03 70.87 59.09 C 67.92 57.70 65.15 60.18 62.42 60.98 L 61.74 61.02 C 61.88 59.37 61.94 57.71 62.25 56.08 C 63.91 54.47 65.80 53.11 67.46 51.51 C 65.58 52.00 63.70 52.54 61.83 53.08 C 62.18 51.19 61.70 48.78 63.37 47.40 C 64.79 46.26 66.61 45.83 68.26 45.13 C 68.46 44.70 68.86 43.84 69.06 43.41 C 67.81 44.02 66.55 44.62 65.29 45.21 Z" />
</g>
<g id="#f3f6f6ff">
<path fill="#f3f6f6" opacity="1.00" d=" M 48.38 41.51 C 49.98 41.74 50.10 42.30 48.75 43.18 C 48.65 42.76 48.47 41.93 48.38 41.51 Z" />
</g>
<g id="#2d0000ff">
<path fill="#2d0000" opacity="1.00" d=" M 87.68 46.25 C 91.39 44.64 95.30 43.13 99.43 43.91 C 101.54 46.83 105.35 47.68 107.62 50.45 C 112.23 55.39 116.13 62.78 112.55 69.40 C 108.37 71.40 104.13 74.03 99.27 73.07 C 100.65 76.52 102.22 79.90 103.26 83.48 C 103.80 86.24 103.95 89.08 104.58 91.83 C 104.77 92.93 104.96 94.03 105.13 95.14 C 107.40 97.55 109.78 99.86 112.08 102.24 C 114.71 102.03 117.46 102.09 119.88 100.90 C 122.74 99.56 124.86 97.15 127.23 95.15 C 127.63 95.31 128.44 95.65 128.84 95.82 C 129.19 96.29 129.51 96.78 129.83 97.29 L 128.71 95.95 C 126.42 98.30 123.78 100.24 121.10 102.09 C 118.46 102.40 115.87 103.03 113.43 104.09 C 114.19 105.32 115.08 106.46 116.02 107.56 C 114.47 110.13 112.45 112.38 110.12 114.28 C 109.83 114.01 109.26 113.49 108.97 113.22 C 110.87 111.26 113.30 109.00 112.65 105.96 C 110.25 102.90 107.55 100.07 104.94 97.19 C 102.28 98.64 100.36 101.09 97.79 102.66 C 95.51 103.84 93.02 104.56 90.63 105.48 C 82.07 108.88 72.86 110.98 63.60 110.22 L 63.93 109.06 C 68.72 109.69 73.25 107.82 77.97 107.61 C 81.92 107.48 85.36 105.33 89.02 104.11 C 93.93 102.44 99.15 100.60 102.52 96.44 C 103.54 95.34 103.34 93.74 103.52 92.38 C 93.54 98.00 82.87 103.94 71.05 103.71 C 67.68 103.58 64.30 104.62 60.96 103.92 C 60.33 103.59 59.08 102.92 58.45 102.59 L 59.52 102.20 C 65.22 102.07 71.00 102.71 76.62 101.44 C 81.63 100.56 86.54 99.15 91.18 97.06 C 93.31 96.36 95.43 95.30 96.06 92.93 C 96.58 91.53 98.43 94.03 99.11 93.56 C 101.37 91.46 102.99 88.39 101.42 85.35 C 100.23 81.00 98.87 76.68 97.85 72.28 C 96.26 71.90 94.67 71.52 93.07 71.17 C 94.28 70.77 95.48 70.37 96.69 69.95 C 100.97 73.15 106.61 71.41 110.51 68.49 C 112.95 66.21 112.54 62.68 111.31 59.90 C 109.53 55.87 107.66 51.64 103.90 49.06 C 100.42 45.67 95.29 46.15 90.85 46.40 C 91.51 47.39 92.18 48.37 92.85 49.36 C 96.97 49.20 101.21 49.85 104.52 52.49 C 100.73 52.39 97.12 51.12 93.51 50.08 C 93.67 53.24 93.80 56.42 93.52 59.58 C 92.72 60.62 91.92 61.67 91.17 62.76 C 90.07 64.63 89.10 66.57 88.09 68.49 C 85.32 67.74 82.70 66.57 80.40 64.84 C 81.98 65.26 83.53 65.79 85.05 66.38 C 90.31 65.25 92.19 59.56 92.50 54.81 C 92.12 54.36 91.37 53.47 90.99 53.02 C 91.02 52.28 91.10 50.80 91.13 50.06 C 90.26 49.08 89.40 48.09 88.52 47.12 L 87.68 46.25 Z" />
</g>
<g id="#e8e6e7ff">
<path fill="#e8e6e7" opacity="1.00" d=" M 57.09 47.16 C 57.81 45.65 60.20 45.25 61.07 46.83 C 59.81 47.33 58.48 47.44 57.09 47.16 Z" />
</g>
<g id="#e60e1fff">
<path fill="#e60e1f" opacity="1.00" d=" M 90.85 46.40 C 95.29 46.15 100.42 45.67 103.90 49.06 C 107.66 51.64 109.53 55.87 111.31 59.90 C 110.68 59.80 109.42 59.61 108.79 59.51 C 108.28 57.79 107.76 56.08 107.12 54.41 C 106.90 54.00 106.45 53.18 106.23 52.77 C 105.81 52.70 104.95 52.56 104.52 52.49 C 101.21 49.85 96.97 49.20 92.85 49.36 C 92.18 48.37 91.51 47.39 90.85 46.40 Z" />
<path fill="#e60e1f" opacity="1.00" d=" M 47.80 104.44 C 50.06 104.90 54.81 103.31 54.91 106.74 C 52.52 106.13 49.66 106.26 47.80 104.44 Z" />
</g>
<g id="#cccacfff">
<path fill="#cccacf" opacity="1.00" d=" M 84.17 47.39 C 85.62 47.30 87.07 47.21 88.52 47.12 C 89.40 48.09 90.26 49.08 91.13 50.06 C 91.10 50.80 91.02 52.28 90.99 53.02 C 91.37 53.47 92.12 54.36 92.50 54.81 C 92.19 59.56 90.31 65.25 85.05 66.38 C 83.53 65.79 81.98 65.26 80.40 64.84 C 82.27 62.53 84.17 60.23 85.74 57.70 C 85.65 54.21 86.10 50.51 84.17 47.39 Z" />
</g>
<g id="#620009ff">
<path fill="#620009" opacity="1.00" d=" M 53.24 48.37 C 55.77 50.53 55.62 53.99 53.35 56.29 C 55.70 56.81 57.19 54.64 58.99 53.58 C 61.79 55.28 59.05 58.94 58.14 61.19 C 59.34 61.13 60.54 61.08 61.74 61.02 L 62.42 60.98 L 63.31 61.94 C 60.56 62.31 57.74 62.73 55.34 64.23 C 54.74 62.20 54.16 60.17 53.58 58.15 C 52.40 58.45 51.22 58.75 50.05 59.05 C 50.16 59.86 50.39 61.47 50.50 62.28 C 49.67 60.49 48.86 58.70 48.03 56.91 C 44.37 63.34 43.10 70.86 38.86 77.02 C 38.90 76.31 38.98 74.91 39.02 74.20 C 38.59 74.32 37.72 74.56 37.28 74.68 C 36.88 74.39 36.08 73.80 35.68 73.51 C 36.43 73.35 37.93 73.01 38.68 72.85 C 40.05 69.27 41.72 65.82 43.51 62.43 C 45.40 59.94 45.22 54.87 49.25 54.99 C 49.59 55.13 50.29 55.41 50.64 55.54 C 51.44 53.13 52.28 50.73 53.24 48.37 Z" />
</g>
<g id="#f60401ff">
<path fill="#f60401" opacity="1.00" d=" M 28.82 68.42 C 34.80 61.69 40.26 53.34 49.50 50.91 C 49.43 52.27 49.34 53.63 49.25 54.99 C 45.22 54.87 45.40 59.94 43.51 62.43 C 40.98 64.09 39.33 66.83 36.58 68.17 C 36.59 69.01 36.60 69.86 36.61 70.70 C 36.21 70.66 35.41 70.56 35.00 70.51 C 32.80 70.31 30.78 69.38 28.82 68.42 Z" />
</g>
<g id="#cd0001ff">
<path fill="#cd0001" opacity="1.00" d=" M 104.08 60.96 C 105.87 59.25 106.33 56.67 107.12 54.41 C 107.76 56.08 108.28 57.79 108.79 59.51 C 109.42 59.61 110.68 59.80 111.31 59.90 C 112.54 62.68 112.95 66.21 110.51 68.49 C 106.61 71.41 100.97 73.15 96.69 69.95 C 95.27 69.17 93.78 68.46 92.54 67.40 C 91.85 65.93 91.58 64.31 91.17 62.76 C 91.92 61.67 92.72 60.62 93.52 59.58 C 93.39 61.15 93.22 62.71 93.05 64.28 C 96.96 64.41 100.92 63.28 104.08 60.96 Z" />
</g>
<g id="#f60302ff">
<path fill="#f60302" opacity="1.00" d=" M 38.86 77.02 C 43.10 70.86 44.37 63.34 48.03 56.91 C 48.86 58.70 49.67 60.49 50.50 62.28 C 50.38 64.76 49.51 67.08 48.24 69.19 C 46.52 72.07 45.97 75.41 45.18 78.61 C 43.06 81.39 43.18 85.13 44.86 88.09 C 46.11 90.57 45.91 93.38 45.86 96.07 C 44.64 96.13 43.41 96.17 42.18 96.20 C 41.88 96.00 41.27 95.59 40.97 95.39 C 38.51 89.92 38.78 83.85 38.63 78.01 L 38.86 77.02 Z" />
</g>
<g id="#200700ff">
<path fill="#200700" opacity="1.00" d=" M 50.05 59.05 C 51.22 58.75 52.40 58.45 53.58 58.15 C 54.16 60.17 54.74 62.20 55.34 64.23 C 54.38 65.27 53.46 66.36 52.55 67.45 C 51.67 65.81 50.84 64.12 50.50 62.28 C 50.39 61.47 50.16 59.86 50.05 59.05 Z" />
</g>
<g id="#643430ff">
<path fill="#643430" opacity="1.00" d=" M 128.23 58.22 C 131.14 59.00 131.21 62.28 132.05 64.65 C 129.97 65.27 130.68 68.83 132.93 68.09 L 132.83 68.57 C 132.73 69.02 132.52 69.92 132.42 70.37 C 133.04 74.99 132.59 79.59 131.57 84.11 C 131.28 88.02 127.70 91.02 128.33 95.08 L 128.84 95.82 C 128.44 95.65 127.63 95.31 127.23 95.15 C 124.86 97.15 122.74 99.56 119.88 100.90 C 117.46 102.09 114.71 102.03 112.08 102.24 C 109.78 99.86 107.40 97.55 105.13 95.14 C 104.96 94.03 104.77 92.93 104.58 91.83 C 116.53 89.06 128.65 79.84 129.89 66.89 L 130.17 66.03 L 129.82 65.13 C 128.94 62.92 128.38 60.59 128.23 58.22 Z" />
</g>
<g id="#92642dff">
<path fill="#92642d" opacity="1.00" d=" M 67.94 60.74 C 71.36 60.51 74.45 62.29 77.23 64.07 C 77.64 65.26 78.00 66.46 78.31 67.68 C 74.37 69.00 70.59 67.09 67.04 65.56 C 65.18 64.83 67.87 62.19 67.94 60.74 Z" />
</g>
<g id="#5e0000ff">
<path fill="#5e0000" opacity="1.00" d=" M 50.50 62.28 C 50.84 64.12 51.67 65.81 52.55 67.45 C 47.39 73.08 46.79 81.25 47.54 88.50 C 47.92 91.54 48.53 94.89 50.88 97.08 C 54.09 98.31 58.73 97.92 59.52 102.20 L 58.45 102.59 L 57.59 102.93 C 57.50 101.97 57.39 101.01 57.27 100.06 C 56.08 100.03 54.89 100.01 53.70 100.00 C 50.92 98.66 47.65 99.25 44.89 97.84 C 43.97 97.31 43.07 96.76 42.18 96.20 C 43.41 96.17 44.64 96.13 45.86 96.07 C 45.91 93.38 46.11 90.57 44.86 88.09 C 44.83 84.92 44.99 81.77 45.18 78.61 C 45.97 75.41 46.52 72.07 48.24 69.19 C 49.51 67.08 50.38 64.76 50.50 62.28 Z" />
</g>
<g id="#fd0100ff">
<path fill="#fd0100" opacity="1.00" d=" M 55.34 64.23 C 57.74 62.73 60.56 62.31 63.31 61.94 C 65.70 64.47 65.40 68.04 65.56 71.26 C 69.37 72.68 73.36 73.46 77.42 73.68 C 78.71 72.41 79.87 71.02 80.92 69.55 C 84.38 68.62 87.85 69.60 91.03 70.98 C 92.33 75.68 93.26 80.51 93.50 85.39 C 93.72 89.71 91.47 93.56 89.21 97.06 C 89.70 97.06 90.69 97.06 91.18 97.06 C 86.54 99.15 81.63 100.56 76.62 101.44 C 71.81 100.70 66.90 101.70 62.15 100.80 C 59.19 98.68 56.17 96.59 52.36 96.57 C 51.00 93.74 49.46 90.99 47.54 88.50 C 46.79 81.25 47.39 73.08 52.55 67.45 C 53.46 66.36 54.38 65.27 55.34 64.23 Z" />
</g>
<g id="#ba0a0fff">
<path fill="#ba0a0f" opacity="1.00" d=" M 36.58 68.17 C 39.33 66.83 40.98 64.09 43.51 62.43 C 41.72 65.82 40.05 69.27 38.68 72.85 C 37.93 73.01 36.43 73.35 35.68 73.51 C 35.45 72.51 35.23 71.51 35.00 70.51 C 35.41 70.56 36.21 70.66 36.61 70.70 C 36.60 69.86 36.59 69.01 36.58 68.17 Z" />
</g>
<g id="#83080aff">
<path fill="#83080a" opacity="1.00" d=" M 88.09 68.49 C 89.10 66.57 90.07 64.63 91.17 62.76 C 91.58 64.31 91.85 65.93 92.54 67.40 C 93.78 68.46 95.27 69.17 96.69 69.95 C 95.48 70.37 94.28 70.77 93.07 71.17 C 92.74 71.10 92.08 70.97 91.75 70.90 C 91.49 70.71 90.97 70.33 90.71 70.14 C 89.88 69.52 89.00 68.98 88.09 68.49 Z" />
</g>
<g id="#c6151cff">
<path fill="#c6151c" opacity="1.00" d=" M 78.61 64.00 C 79.06 64.21 79.95 64.63 80.40 64.84 C 82.70 66.57 85.32 67.74 88.09 68.49 C 89.00 68.98 89.88 69.52 90.71 70.14 L 91.03 70.98 C 87.85 69.60 84.38 68.62 80.92 69.55 C 80.09 67.73 79.32 65.88 78.61 64.00 Z" />
</g>
<g id="#b18b64ff">
<path fill="#b18b64" opacity="1.00" d=" M 129.89 66.89 C 128.42 66.16 128.39 65.57 129.82 65.13 L 130.17 66.03 L 129.89 66.89 Z" />
</g>
<g id="#2b1c13ff">
<path fill="#2b1c13" opacity="1.00" d=" M 132.93 68.09 C 130.68 68.83 129.97 65.27 132.05 64.65 C 133.09 65.59 133.38 66.74 132.93 68.09 Z" />
</g>
<g id="#543627ff">
<path fill="#543627" opacity="1.00" d=" M 67.04 65.56 C 70.59 67.09 74.37 69.00 78.31 67.68 L 78.87 67.58 C 78.88 67.89 78.88 68.50 78.89 68.81 C 75.71 68.85 72.52 68.58 69.45 67.73 C 71.51 70.87 75.59 69.74 78.73 70.14 C 76.26 74.25 71.41 70.88 68.02 70.00 C 68.01 68.46 67.91 66.89 67.04 65.56 Z" />
</g>
<g id="#0b0000ff">
<path fill="#0b0000" opacity="1.00" d=" M 132.42 70.37 C 132.52 69.92 132.73 69.02 132.83 68.57 L 134.00 70.52 L 134.00 81.23 C 133.81 81.67 133.44 82.54 133.25 82.97 C 132.68 87.40 129.95 91.03 128.33 95.08 C 127.70 91.02 131.28 88.02 131.57 84.11 C 132.59 79.59 133.04 74.99 132.42 70.37 Z" />
</g>
<g id="#ce0000ff">
<path fill="#ce0000" opacity="1.00" d=" M 90.71 70.14 C 90.97 70.33 91.49 70.71 91.75 70.90 C 92.99 72.66 94.80 73.66 96.93 73.86 C 97.95 77.85 98.36 82.28 101.42 85.35 C 102.99 88.39 101.37 91.46 99.11 93.56 C 98.43 94.03 96.58 91.53 96.06 92.93 C 95.43 95.30 93.31 96.36 91.18 97.06 C 90.69 97.06 89.70 97.06 89.21 97.06 C 91.47 93.56 93.72 89.71 93.50 85.39 C 93.26 80.51 92.33 75.68 91.03 70.98 L 90.71 70.14 Z" />
</g>
<g id="#c8d0cdff">
<path fill="#c8d0cd" opacity="1.00" d=" M 25.18 70.78 C 28.90 70.57 32.61 71.30 35.68 73.51 C 36.08 73.80 36.88 74.39 37.28 74.68 C 37.30 77.51 36.70 80.27 35.22 82.70 C 35.11 82.08 34.90 80.85 34.79 80.23 C 32.53 79.05 30.50 77.38 28.07 76.57 C 25.63 76.28 23.18 76.32 20.73 76.14 C 22.06 74.23 23.59 72.47 25.18 70.78 Z" />
</g>
<g id="#aa1413ff">
<path fill="#aa1413" opacity="1.00" d=" M 91.75 70.90 C 92.08 70.97 92.74 71.10 93.07 71.17 C 94.67 71.52 96.26 71.90 97.85 72.28 C 98.87 76.68 100.23 81.00 101.42 85.35 C 98.36 82.28 97.95 77.85 96.93 73.86 C 94.80 73.66 92.99 72.66 91.75 70.90 Z" />
</g>
<g id="#323333ff">
<path fill="#323333" opacity="1.00" d=" M 2.93 83.78 C 8.28 78.69 16.05 78.63 22.95 77.88 C 27.54 77.30 32.34 79.28 34.87 83.20 C 34.69 84.55 34.31 85.85 33.99 87.17 C 35.13 88.53 36.29 89.87 37.45 91.21 C 36.05 92.50 34.61 93.75 33.15 94.98 C 34.12 95.03 35.09 95.08 36.06 95.13 C 33.90 96.03 31.42 95.88 29.40 94.69 L 31.35 94.35 C 28.95 91.54 27.05 88.30 24.40 85.73 C 22.22 85.11 19.92 85.45 17.69 85.44 C 17.54 86.01 17.24 87.15 17.09 87.73 C 19.02 87.34 20.96 86.62 22.96 86.81 C 24.41 87.17 24.84 88.89 25.78 89.87 C 21.83 89.86 17.88 90.24 14.07 91.31 C 13.92 92.52 13.79 93.73 13.65 94.94 C 12.75 95.49 11.81 95.96 10.86 96.43 C 8.47 96.69 6.50 98.11 4.51 99.33 C 4.14 95.95 6.90 93.82 8.31 91.09 C 6.02 92.36 3.57 93.43 0.88 93.29 C 1.22 91.82 1.57 90.36 1.92 88.89 C 6.08 89.05 10.36 89.08 14.19 87.21 C 14.37 86.72 14.74 85.72 14.93 85.22 C 11.29 86.12 6.19 89.64 3.34 85.59 C 3.03 86.16 2.70 86.73 2.38 87.29 C 2.16 87.49 1.71 87.90 1.49 88.10 C 1.87 86.26 2.00 84.38 2.25 82.52 L 2.92 81.84 C 2.92 82.32 2.93 83.29 2.93 83.78 Z" />
</g>
<g id="#9a0a11ff">
<path fill="#9a0a11" opacity="1.00" d=" M 37.81 84.90 C 38.06 82.60 38.15 80.27 38.63 78.01 C 38.78 83.85 38.51 89.92 40.97 95.39 C 37.70 93.80 38.04 89.93 37.45 86.89 C 37.32 86.49 37.07 85.70 36.95 85.30 L 37.81 84.90 Z" />
</g>
<g id="#b62018ff">
<path fill="#b62018" opacity="1.00" d=" M 44.86 88.09 C 43.18 85.13 43.06 81.39 45.18 78.61 C 44.99 81.77 44.83 84.92 44.86 88.09 Z" />
</g>
<g id="#ca120fff">
<path fill="#ca120f" opacity="1.00" d=" M 47.54 88.50 C 49.46 90.99 51.00 93.74 52.36 96.57 C 56.17 96.59 59.19 98.68 62.15 100.80 C 66.90 101.70 71.81 100.70 76.62 101.44 C 71.00 102.71 65.22 102.07 59.52 102.20 C 58.73 97.92 54.09 98.31 50.88 97.08 C 48.53 94.89 47.92 91.54 47.54 88.50 Z" />
</g>
<g id="#333231ff">
<path fill="#333231" opacity="1.00" d=" M 71.05 103.71 C 82.87 103.94 93.54 98.00 103.52 92.38 C 103.34 93.74 103.54 95.34 102.52 96.44 C 99.15 100.60 93.93 102.44 89.02 104.11 C 85.36 105.33 81.92 107.48 77.97 107.61 C 73.25 107.82 68.72 109.69 63.93 109.06 C 62.93 108.79 61.94 108.50 60.95 108.21 C 60.95 106.78 60.95 105.35 60.96 103.92 C 64.30 104.62 67.68 103.58 71.05 103.71 Z" />
</g>
<g id="#cd0002ff">
<path fill="#cd0002" opacity="1.00" d=" M 97.79 102.66 C 100.36 101.09 102.28 98.64 104.94 97.19 C 107.55 100.07 110.25 102.90 112.65 105.96 C 113.30 109.00 110.87 111.26 108.97 113.22 C 106.92 115.06 104.76 116.77 102.53 118.37 C 101.91 114.57 102.23 109.87 98.76 107.32 C 96.66 105.07 93.41 105.37 90.63 105.48 C 93.02 104.56 95.51 103.84 97.79 102.66 Z" />
</g>
<g id="#3e3733ff">
<path fill="#3e3733" opacity="1.00" d=" M 39.51 97.68 C 40.60 98.16 41.68 98.65 42.77 99.13 C 43.10 100.86 43.95 102.83 42.38 104.23 C 40.99 102.26 39.95 100.07 39.51 97.68 Z" />
</g>
<g id="#b4b943ff">
<path fill="#b4b943" opacity="1.00" d=" M 44.89 97.84 C 47.65 99.25 50.92 98.66 53.70 100.00 C 51.18 100.14 48.67 100.32 46.15 100.47 C 46.46 101.77 46.78 103.07 47.06 104.38 C 47.14 104.92 47.29 106.02 47.36 106.56 C 50.62 107.76 54.00 108.58 57.44 109.06 C 57.44 108.45 57.45 107.24 57.45 106.64 C 57.48 105.71 57.56 103.86 57.59 102.93 L 58.45 102.59 C 58.90 104.76 59.38 106.93 59.80 109.11 C 60.16 109.70 60.89 110.89 61.26 111.48 C 60.05 111.11 58.85 110.73 57.66 110.35 C 53.61 110.53 49.73 109.52 46.15 107.69 C 44.85 104.56 44.87 101.16 44.89 97.84 Z" />
</g>
<g id="#bed000ff">
<path fill="#bed000" opacity="1.00" d=" M 46.15 100.47 C 48.67 100.32 51.18 100.14 53.70 100.00 C 54.89 100.01 56.08 100.03 57.27 100.06 C 57.39 101.01 57.50 101.97 57.59 102.93 C 57.56 103.86 57.48 105.71 57.45 106.64 C 56.95 105.60 56.46 104.55 55.98 103.51 C 53.10 103.52 50.19 103.27 47.57 101.99 C 47.44 102.59 47.19 103.78 47.06 104.38 C 46.78 103.07 46.46 101.77 46.15 100.47 Z" />
</g>
<g id="#fa0200ff">
<path fill="#fa0200" opacity="1.00" d=" M 90.63 105.48 C 93.41 105.37 96.66 105.07 98.76 107.32 C 102.23 109.87 101.91 114.57 102.53 118.37 C 98.04 120.10 93.53 121.81 88.96 123.32 C 82.85 122.33 76.95 120.06 71.37 117.38 C 70.14 116.82 68.66 116.26 67.37 117.00 C 64.18 118.56 61.11 120.52 58.79 123.25 C 58.69 119.91 58.19 116.60 57.35 113.37 C 59.24 112.83 61.17 112.44 63.12 112.15 C 63.28 111.50 63.44 110.86 63.60 110.22 C 72.86 110.98 82.07 108.88 90.63 105.48 Z" />
</g>
<g id="#f30302ff">
<path fill="#f30302" opacity="1.00" d=" M 39.36 107.15 C 41.54 103.13 47.89 107.98 43.80 110.79 C 44.72 110.33 45.64 109.87 46.55 109.38 C 48.58 110.26 50.61 111.13 52.67 111.95 C 52.84 116.13 52.99 120.87 49.56 123.89 C 46.15 121.13 42.22 118.69 40.00 114.78 C 39.09 112.37 39.61 109.67 39.36 107.15 Z" />
</g>
<g id="#f90300ff">
<path fill="#f90300" opacity="1.00" d=" M 65.63 119.59 C 67.60 119.06 69.67 119.40 71.68 119.35 L 71.94 119.62 C 73.14 120.83 74.35 122.03 75.57 123.22 C 73.13 124.97 70.71 128.07 72.88 131.03 C 75.81 133.60 80.42 134.12 82.05 138.11 C 79.84 140.41 77.13 142.27 73.96 142.92 C 70.89 143.20 67.08 143.73 64.69 141.31 C 62.63 138.66 61.13 135.56 58.45 133.42 C 58.55 131.27 58.60 129.13 58.62 126.98 C 60.10 123.82 62.61 121.30 65.63 119.59 Z" />
<path fill="#f90300" opacity="1.00" d=" M 85.39 130.10 C 86.59 129.44 87.81 128.82 89.04 128.21 C 93.35 130.02 98.04 130.55 102.68 130.63 C 103.09 133.58 103.07 136.57 102.75 139.53 C 101.90 139.77 100.21 140.24 99.36 140.48 C 96.83 140.79 94.41 139.76 91.98 139.27 C 88.94 137.26 87.56 133.41 84.15 131.97 C 84.46 131.50 85.08 130.57 85.39 130.10 Z" />
</g>
<g id="#cd0200ff">
<path fill="#cd0200" opacity="1.00" d=" M 71.94 119.62 C 77.05 120.25 81.18 123.81 85.88 125.68 C 84.65 127.71 83.46 129.76 82.35 131.86 C 83.67 133.86 83.58 136.26 82.05 138.11 C 80.42 134.12 75.81 133.60 72.88 131.03 C 70.71 128.07 73.13 124.97 75.57 123.22 C 74.35 122.03 73.14 120.83 71.94 119.62 Z" />
</g>
<g id="#c80302ff">
<path fill="#c80302" opacity="1.00" d=" M 90.85 124.50 C 94.08 123.75 97.25 122.74 100.26 121.33 C 103.08 123.71 104.67 127.41 104.65 131.08 C 104.63 134.72 105.36 138.68 103.34 141.96 C 101.91 141.71 100.59 141.22 99.36 140.48 C 100.21 140.24 101.90 139.77 102.75 139.53 C 103.07 136.57 103.09 133.58 102.68 130.63 C 98.04 130.55 93.35 130.02 89.04 128.21 C 87.81 128.82 86.59 129.44 85.39 130.10 C 85.81 127.32 88.04 124.94 90.85 124.50 Z" />
</g>
<g id="#313433ff">
<path fill="#313433" opacity="1.00" d=" M 104.08 122.22 C 106.51 123.31 108.98 124.77 111.74 124.48 C 112.23 124.92 112.72 125.37 113.20 125.83 C 112.29 128.05 114.77 129.41 116.43 127.98 C 117.49 128.27 118.51 128.72 119.51 129.19 C 119.46 129.56 119.37 130.31 119.32 130.68 C 120.87 131.41 122.53 131.99 123.91 133.03 C 127.58 138.18 128.94 144.70 128.20 150.95 C 121.86 152.97 113.97 156.56 107.99 151.86 C 107.97 151.39 107.92 150.47 107.90 150.00 C 109.08 148.78 110.44 147.74 111.88 146.84 C 112.39 147.14 113.43 147.75 113.94 148.06 C 115.33 146.31 115.96 144.21 116.09 142.01 C 115.33 142.25 113.82 142.73 113.06 142.97 C 110.19 142.99 107.33 142.90 104.47 142.76 C 107.26 141.91 110.16 141.59 113.07 141.51 C 110.67 141.39 108.27 141.25 105.88 141.12 C 107.00 134.79 106.57 128.18 104.08 122.22 Z" />
</g>
<g id="#181818ff">
<path fill="#181818" opacity="1.00" d=" M 113.20 125.83 C 114.64 125.70 115.67 126.91 116.43 127.98 C 114.77 129.41 112.29 128.05 113.20 125.83 Z" />
</g>
<g id="#b61214ff">
<path fill="#b61214" opacity="1.00" d=" M 58.45 133.42 C 61.13 135.56 62.63 138.66 64.69 141.31 C 67.08 143.73 70.89 143.20 73.96 142.92 L 73.98 143.96 C 71.13 143.96 68.16 144.38 65.38 143.53 C 62.13 141.07 59.22 137.48 58.45 133.42 Z" />
</g>
<g id="#323431ff">
<path fill="#323431" opacity="1.00" d=" M 85.73 135.16 C 87.12 136.79 88.67 138.39 89.43 140.45 C 90.50 142.96 90.96 146.12 93.80 147.29 C 95.35 148.32 97.00 149.22 98.41 150.44 C 99.45 152.84 100.98 155.72 99.40 158.23 C 99.12 159.75 98.89 161.29 98.26 162.72 C 98.18 163.26 98.02 164.35 97.94 164.89 C 97.82 165.06 97.57 165.39 97.45 165.56 C 94.80 167.11 92.31 169.54 89.05 169.55 C 82.92 169.71 76.76 169.82 70.64 169.25 C 69.69 163.02 78.21 162.64 78.84 156.98 C 76.72 154.38 73.55 152.91 70.56 151.54 L 68.97 151.82 C 68.68 151.82 68.11 151.83 67.82 151.83 C 67.25 150.87 66.69 149.90 66.16 148.93 C 66.46 148.00 66.78 147.09 67.11 146.18 C 69.75 146.05 72.57 146.28 74.96 144.95 C 79.28 142.66 83.84 139.93 85.73 135.16 Z" />
</g>
</svg>
