<?xml version="1.0" encoding="UTF-8" ?>
<!DOCTYPE svg PUBLIC "-//W3C//DTD SVG 1.1//EN" "http://www.w3.org/Graphics/SVG/1.1/DTD/svg11.dtd">
<svg width="256pt" height="256pt" viewBox="0 0 256 256" version="1.1" xmlns="http://www.w3.org/2000/svg">
<g id="phase1">
<path fill="white" opacity="1.00" d=" M 75.55 18.55 C 94.12 7.19 116.47 2.44 138.08 4.60 C 161.04 6.71 183.40 16.84 199.53 33.43 C 211.80 45.30 220.20 60.95 224.22 77.48 C 228.37 96.97 226.36 117.84 217.81 135.92 C 230.38 136.05 242.96 136.06 255.53 136.25 C 255.44 152.27 255.53 168.30 255.49 184.33 C 220.12 184.35 184.75 184.56 149.38 184.53 C 149.30 168.43 149.46 152.33 149.42 136.23 C 158.02 131.45 164.79 123.71 169.05 114.91 C 173.97 103.46 173.88 89.85 168.35 78.64 C 161.02 63.62 144.93 52.80 127.98 53.44 C 105.96 52.65 85.31 71.12 83.62 93.08 C 83.52 99.73 83.57 106.61 86.18 112.84 C 89.96 122.29 96.71 130.81 105.77 135.65 C 105.74 151.86 105.60 168.07 105.57 184.28 C 70.61 184.27 35.66 184.28 0.70 184.27 C 0.69 168.24 0.70 152.21 0.69 136.18 C 13.27 136.15 25.84 135.99 38.41 135.93 C 34.88 127.62 32.04 118.97 30.57 110.04 C 29.93 104.04 30.28 97.98 30.19 91.96 C 30.00 83.66 32.30 75.56 34.89 67.76 C 42.02 47.17 57.14 29.92 75.55 18.55 Z" />
<path fill="white" opacity="1.00" d=" M 0.67 204.78 C 19.10 204.25 37.55 204.43 55.99 204.39 C 122.49 204.36 188.99 204.50 255.49 204.58 C 255.50 220.55 255.49 236.52 255.49 252.49 C 170.56 252.49 85.64 252.50 0.71 252.49 C 0.66 236.59 0.34 220.68 0.67 204.78 Z" />
</g>
<g id="phase2">
<path fill="red" opacity="1.00" d=" M 75.55 18.55 C 94.12 7.19 116.47 2.44 138.08 4.60 C 161.04 6.71 183.40 16.84 199.53 33.43 C 211.80 45.30 220.20 60.95 224.22 77.48 C 228.37 96.97 226.36 117.84 217.81 135.92 C 230.38 136.05 242.96 136.06 255.53 136.25 C 255.44 152.27 255.53 168.30 255.49 184.33 C 220.12 184.35 184.75 184.56 149.38 184.53 C 149.30 168.43 149.46 152.33 149.42 136.23 C 158.02 131.45 164.79 123.71 169.05 114.91 C 173.97 103.46 173.88 89.85 168.35 78.64 C 161.02 63.62 144.93 52.80 127.98 53.44 C 105.96 52.65 85.31 71.12 83.62 93.08 C 83.52 99.73 83.57 106.61 86.18 112.84 C 89.96 122.29 96.71 130.81 105.77 135.65 C 105.74 151.86 105.60 168.07 105.57 184.28 C 70.61 184.27 35.66 184.28 0.70 184.27 C 0.69 168.24 0.70 152.21 0.69 136.18 C 13.27 136.15 25.84 135.99 38.41 135.93 C 34.88 127.62 32.04 118.97 30.57 110.04 C 29.93 104.04 30.28 97.98 30.19 91.96 C 30.00 83.66 32.30 75.56 34.89 67.76 C 42.02 47.17 57.14 29.92 75.55 18.55 Z" />
<path fill="red" opacity="1.00" d=" M 0.67 204.78 C 19.10 204.25 37.55 204.43 55.99 204.39 C 122.49 204.36 188.99 204.50 255.49 204.58 C 255.50 220.55 255.49 236.52 255.49 252.49 C 170.56 252.49 85.64 252.50 0.71 252.49 C 0.66 236.59 0.34 220.68 0.67 204.78 Z" />
</g>
<g id="phase3">
<path fill="blue" opacity="1.00" d=" M 75.55 18.55 C 94.12 7.19 116.47 2.44 138.08 4.60 C 161.04 6.71 183.40 16.84 199.53 33.43 C 211.80 45.30 220.20 60.95 224.22 77.48 C 228.37 96.97 226.36 117.84 217.81 135.92 C 230.38 136.05 242.96 136.06 255.53 136.25 C 255.44 152.27 255.53 168.30 255.49 184.33 C 220.12 184.35 184.75 184.56 149.38 184.53 C 149.30 168.43 149.46 152.33 149.42 136.23 C 158.02 131.45 164.79 123.71 169.05 114.91 C 173.97 103.46 173.88 89.85 168.35 78.64 C 161.02 63.62 144.93 52.80 127.98 53.44 C 105.96 52.65 85.31 71.12 83.62 93.08 C 83.52 99.73 83.57 106.61 86.18 112.84 C 89.96 122.29 96.71 130.81 105.77 135.65 C 105.74 151.86 105.60 168.07 105.57 184.28 C 70.61 184.27 35.66 184.28 0.70 184.27 C 0.69 168.24 0.70 152.21 0.69 136.18 C 13.27 136.15 25.84 135.99 38.41 135.93 C 34.88 127.62 32.04 118.97 30.57 110.04 C 29.93 104.04 30.28 97.98 30.19 91.96 C 30.00 83.66 32.30 75.56 34.89 67.76 C 42.02 47.17 57.14 29.92 75.55 18.55 Z" />
<path fill="blue" opacity="1.00" d=" M 0.67 204.78 C 19.10 204.25 37.55 204.43 55.99 204.39 C 122.49 204.36 188.99 204.50 255.49 204.58 C 255.50 220.55 255.49 236.52 255.49 252.49 C 170.56 252.49 85.64 252.50 0.71 252.49 C 0.66 236.59 0.34 220.68 0.67 204.78 Z" />
</g>
<g id="phase4">
<path fill="green" opacity="1.00" d=" M 75.55 18.55 C 94.12 7.19 116.47 2.44 138.08 4.60 C 161.04 6.71 183.40 16.84 199.53 33.43 C 211.80 45.30 220.20 60.95 224.22 77.48 C 228.37 96.97 226.36 117.84 217.81 135.92 C 230.38 136.05 242.96 136.06 255.53 136.25 C 255.44 152.27 255.53 168.30 255.49 184.33 C 220.12 184.35 184.75 184.56 149.38 184.53 C 149.30 168.43 149.46 152.33 149.42 136.23 C 158.02 131.45 164.79 123.71 169.05 114.91 C 173.97 103.46 173.88 89.85 168.35 78.64 C 161.02 63.62 144.93 52.80 127.98 53.44 C 105.96 52.65 85.31 71.12 83.62 93.08 C 83.52 99.73 83.57 106.61 86.18 112.84 C 89.96 122.29 96.71 130.81 105.77 135.65 C 105.74 151.86 105.60 168.07 105.57 184.28 C 70.61 184.27 35.66 184.28 0.70 184.27 C 0.69 168.24 0.70 152.21 0.69 136.18 C 13.27 136.15 25.84 135.99 38.41 135.93 C 34.88 127.62 32.04 118.97 30.57 110.04 C 29.93 104.04 30.28 97.98 30.19 91.96 C 30.00 83.66 32.30 75.56 34.89 67.76 C 42.02 47.17 57.14 29.92 75.55 18.55 Z" />
<path fill="green" opacity="1.00" d=" M 0.67 204.78 C 19.10 204.25 37.55 204.43 55.99 204.39 C 122.49 204.36 188.99 204.50 255.49 204.58 C 255.50 220.55 255.49 236.52 255.49 252.49 C 170.56 252.49 85.64 252.50 0.71 252.49 C 0.66 236.59 0.34 220.68 0.67 204.78 Z" />
</g>
<g id="phase5">
<path fill="black" opacity="1.00" d=" M 75.55 18.55 C 94.12 7.19 116.47 2.44 138.08 4.60 C 161.04 6.71 183.40 16.84 199.53 33.43 C 211.80 45.30 220.20 60.95 224.22 77.48 C 228.37 96.97 226.36 117.84 217.81 135.92 C 230.38 136.05 242.96 136.06 255.53 136.25 C 255.44 152.27 255.53 168.30 255.49 184.33 C 220.12 184.35 184.75 184.56 149.38 184.53 C 149.30 168.43 149.46 152.33 149.42 136.23 C 158.02 131.45 164.79 123.71 169.05 114.91 C 173.97 103.46 173.88 89.85 168.35 78.64 C 161.02 63.62 144.93 52.80 127.98 53.44 C 105.96 52.65 85.31 71.12 83.62 93.08 C 83.52 99.73 83.57 106.61 86.18 112.84 C 89.96 122.29 96.71 130.81 105.77 135.65 C 105.74 151.86 105.60 168.07 105.57 184.28 C 70.61 184.27 35.66 184.28 0.70 184.27 C 0.69 168.24 0.70 152.21 0.69 136.18 C 13.27 136.15 25.84 135.99 38.41 135.93 C 34.88 127.62 32.04 118.97 30.57 110.04 C 29.93 104.04 30.28 97.98 30.19 91.96 C 30.00 83.66 32.30 75.56 34.89 67.76 C 42.02 47.17 57.14 29.92 75.55 18.55 Z" />
<path fill="black" opacity="1.00" d=" M 0.67 204.78 C 19.10 204.25 37.55 204.43 55.99 204.39 C 122.49 204.36 188.99 204.50 255.49 204.58 C 255.50 220.55 255.49 236.52 255.49 252.49 C 170.56 252.49 85.64 252.50 0.71 252.49 C 0.66 236.59 0.34 220.68 0.67 204.78 Z" />
</g>
<g id="phase6">
<path fill="gold" opacity="1.00" d=" M 75.55 18.55 C 94.12 7.19 116.47 2.44 138.08 4.60 C 161.04 6.71 183.40 16.84 199.53 33.43 C 211.80 45.30 220.20 60.95 224.22 77.48 C 228.37 96.97 226.36 117.84 217.81 135.92 C 230.38 136.05 242.96 136.06 255.53 136.25 C 255.44 152.27 255.53 168.30 255.49 184.33 C 220.12 184.35 184.75 184.56 149.38 184.53 C 149.30 168.43 149.46 152.33 149.42 136.23 C 158.02 131.45 164.79 123.71 169.05 114.91 C 173.97 103.46 173.88 89.85 168.35 78.64 C 161.02 63.62 144.93 52.80 127.98 53.44 C 105.96 52.65 85.31 71.12 83.62 93.08 C 83.52 99.73 83.57 106.61 86.18 112.84 C 89.96 122.29 96.71 130.81 105.77 135.65 C 105.74 151.86 105.60 168.07 105.57 184.28 C 70.61 184.27 35.66 184.28 0.70 184.27 C 0.69 168.24 0.70 152.21 0.69 136.18 C 13.27 136.15 25.84 135.99 38.41 135.93 C 34.88 127.62 32.04 118.97 30.57 110.04 C 29.93 104.04 30.28 97.98 30.19 91.96 C 30.00 83.66 32.30 75.56 34.89 67.76 C 42.02 47.17 57.14 29.92 75.55 18.55 Z" />
<path fill="gold" opacity="1.00" d=" M 0.67 204.78 C 19.10 204.25 37.55 204.43 55.99 204.39 C 122.49 204.36 188.99 204.50 255.49 204.58 C 255.50 220.55 255.49 236.52 255.49 252.49 C 170.56 252.49 85.64 252.50 0.71 252.49 C 0.66 236.59 0.34 220.68 0.67 204.78 Z" />
</g>
</svg>
