<?xml version="1.0" encoding="UTF-8" ?>
<!DOCTYPE svg PUBLIC "-//W3C//DTD SVG 1.1//EN" "http://www.w3.org/Graphics/SVG/1.1/DTD/svg11.dtd">
<svg width="256pt" height="256pt" viewBox="0 0 256 256" version="1.1" xmlns="http://www.w3.org/2000/svg">
<g id="phase1">
<path fill="white" opacity="1.00" d=" M 14.47 0.82 C 30.69 0.47 46.92 0.58 63.15 0.57 C 82.46 19.08 96.57 42.70 104.64 68.14 C 109.03 81.65 111.55 95.71 113.20 109.77 C 122.80 110.53 132.55 109.86 142.21 110.11 C 142.51 109.98 143.11 109.70 143.41 109.56 C 146.18 83.37 153.47 57.41 166.72 34.54 C 173.64 22.90 181.81 11.89 191.63 2.53 C 193.75 0.18 197.21 0.85 200.04 0.61 C 214.28 0.49 228.54 0.35 242.77 0.87 C 239.14 5.46 234.82 9.45 231.20 14.06 C 209.54 41.19 199.95 75.97 197.34 110.09 C 210.65 110.10 223.95 110.08 237.25 110.10 C 237.28 125.12 237.28 140.14 237.25 155.16 C 224.28 155.18 211.30 155.21 198.33 155.14 C 201.95 187.42 212.85 219.82 234.20 244.77 C 237.31 248.47 240.88 251.75 244.00 255.44 C 227.39 255.51 210.77 255.56 194.16 255.42 C 186.25 247.71 178.77 239.50 172.67 230.25 C 157.48 208.02 148.52 181.99 144.56 155.47 C 133.76 155.43 122.96 155.50 112.17 155.44 C 109.55 169.08 106.77 182.85 101.63 195.85 C 93.26 218.23 79.99 238.84 62.52 255.20 C 62.55 255.40 62.61 255.80 62.64 256.00 L 62.29 256.00 C 62.27 255.85 62.22 255.54 62.19 255.39 C 45.67 255.62 29.14 255.45 12.61 255.47 C 20.83 246.62 29.00 237.60 35.10 227.10 C 48.24 205.30 55.28 180.33 58.32 155.20 C 44.11 155.14 29.90 155.21 15.69 155.17 C 15.63 140.33 15.82 125.48 15.81 110.64 L 16.32 110.36 C 30.63 110.16 44.95 110.17 59.26 110.13 C 56.95 81.50 50.02 52.69 35.01 27.93 C 29.41 18.20 21.84 9.88 14.31 1.63 L 14.47 0.82 Z" />
</g>
<g id="phase2">
<path fill="red" opacity="1.00" d=" M 14.47 0.82 C 30.69 0.47 46.92 0.58 63.15 0.57 C 82.46 19.08 96.57 42.70 104.64 68.14 C 109.03 81.65 111.55 95.71 113.20 109.77 C 122.80 110.53 132.55 109.86 142.21 110.11 C 142.51 109.98 143.11 109.70 143.41 109.56 C 146.18 83.37 153.47 57.41 166.72 34.54 C 173.64 22.90 181.81 11.89 191.63 2.53 C 193.75 0.18 197.21 0.85 200.04 0.61 C 214.28 0.49 228.54 0.35 242.77 0.87 C 239.14 5.46 234.82 9.45 231.20 14.06 C 209.54 41.19 199.95 75.97 197.34 110.09 C 210.65 110.10 223.95 110.08 237.25 110.10 C 237.28 125.12 237.28 140.14 237.25 155.16 C 224.28 155.18 211.30 155.21 198.33 155.14 C 201.95 187.42 212.85 219.82 234.20 244.77 C 237.31 248.47 240.88 251.75 244.00 255.44 C 227.39 255.51 210.77 255.56 194.16 255.42 C 186.25 247.71 178.77 239.50 172.67 230.25 C 157.48 208.02 148.52 181.99 144.56 155.47 C 133.76 155.43 122.96 155.50 112.17 155.44 C 109.55 169.08 106.77 182.85 101.63 195.85 C 93.26 218.23 79.99 238.84 62.52 255.20 C 62.55 255.40 62.61 255.80 62.64 256.00 L 62.29 256.00 C 62.27 255.85 62.22 255.54 62.19 255.39 C 45.67 255.62 29.14 255.45 12.61 255.47 C 20.83 246.62 29.00 237.60 35.10 227.10 C 48.24 205.30 55.28 180.33 58.32 155.20 C 44.11 155.14 29.90 155.21 15.69 155.17 C 15.63 140.33 15.82 125.48 15.81 110.64 L 16.32 110.36 C 30.63 110.16 44.95 110.17 59.26 110.13 C 56.95 81.50 50.02 52.69 35.01 27.93 C 29.41 18.20 21.84 9.88 14.31 1.63 L 14.47 0.82 Z" />
</g>
<g id="phase3">
<path fill="blue" opacity="1.00" d=" M 14.47 0.82 C 30.69 0.47 46.92 0.58 63.15 0.57 C 82.46 19.08 96.57 42.70 104.64 68.14 C 109.03 81.65 111.55 95.71 113.20 109.77 C 122.80 110.53 132.55 109.86 142.21 110.11 C 142.51 109.98 143.11 109.70 143.41 109.56 C 146.18 83.37 153.47 57.41 166.72 34.54 C 173.64 22.90 181.81 11.89 191.63 2.53 C 193.75 0.18 197.21 0.85 200.04 0.61 C 214.28 0.49 228.54 0.35 242.77 0.87 C 239.14 5.46 234.82 9.45 231.20 14.06 C 209.54 41.19 199.95 75.97 197.34 110.09 C 210.65 110.10 223.95 110.08 237.25 110.10 C 237.28 125.12 237.28 140.14 237.25 155.16 C 224.28 155.18 211.30 155.21 198.33 155.14 C 201.95 187.42 212.85 219.82 234.20 244.77 C 237.31 248.47 240.88 251.75 244.00 255.44 C 227.39 255.51 210.77 255.56 194.16 255.42 C 186.25 247.71 178.77 239.50 172.67 230.25 C 157.48 208.02 148.52 181.99 144.56 155.47 C 133.76 155.43 122.96 155.50 112.17 155.44 C 109.55 169.08 106.77 182.85 101.63 195.85 C 93.26 218.23 79.99 238.84 62.52 255.20 C 62.55 255.40 62.61 255.80 62.64 256.00 L 62.29 256.00 C 62.27 255.85 62.22 255.54 62.19 255.39 C 45.67 255.62 29.14 255.45 12.61 255.47 C 20.83 246.62 29.00 237.60 35.10 227.10 C 48.24 205.30 55.28 180.33 58.32 155.20 C 44.11 155.14 29.90 155.21 15.69 155.17 C 15.63 140.33 15.82 125.48 15.81 110.64 L 16.32 110.36 C 30.63 110.16 44.95 110.17 59.26 110.13 C 56.95 81.50 50.02 52.69 35.01 27.93 C 29.41 18.20 21.84 9.88 14.31 1.63 L 14.47 0.82 Z" />
</g>
<g id="phase4">
<path fill="green" opacity="1.00" d=" M 14.47 0.82 C 30.69 0.47 46.92 0.58 63.15 0.57 C 82.46 19.08 96.57 42.70 104.64 68.14 C 109.03 81.65 111.55 95.71 113.20 109.77 C 122.80 110.53 132.55 109.86 142.21 110.11 C 142.51 109.98 143.11 109.70 143.41 109.56 C 146.18 83.37 153.47 57.41 166.72 34.54 C 173.64 22.90 181.81 11.89 191.63 2.53 C 193.75 0.18 197.21 0.85 200.04 0.61 C 214.28 0.49 228.54 0.35 242.77 0.87 C 239.14 5.46 234.82 9.45 231.20 14.06 C 209.54 41.19 199.95 75.97 197.34 110.09 C 210.65 110.10 223.95 110.08 237.25 110.10 C 237.28 125.12 237.28 140.14 237.25 155.16 C 224.28 155.18 211.30 155.21 198.33 155.14 C 201.95 187.42 212.85 219.82 234.20 244.77 C 237.31 248.47 240.88 251.75 244.00 255.44 C 227.39 255.51 210.77 255.56 194.16 255.42 C 186.25 247.71 178.77 239.50 172.67 230.25 C 157.48 208.02 148.52 181.99 144.56 155.47 C 133.76 155.43 122.96 155.50 112.17 155.44 C 109.55 169.08 106.77 182.85 101.63 195.85 C 93.26 218.23 79.99 238.84 62.52 255.20 C 62.55 255.40 62.61 255.80 62.64 256.00 L 62.29 256.00 C 62.27 255.85 62.22 255.54 62.19 255.39 C 45.67 255.62 29.14 255.45 12.61 255.47 C 20.83 246.62 29.00 237.60 35.10 227.10 C 48.24 205.30 55.28 180.33 58.32 155.20 C 44.11 155.14 29.90 155.21 15.69 155.17 C 15.63 140.33 15.82 125.48 15.81 110.64 L 16.32 110.36 C 30.63 110.16 44.95 110.17 59.26 110.13 C 56.95 81.50 50.02 52.69 35.01 27.93 C 29.41 18.20 21.84 9.88 14.31 1.63 L 14.47 0.82 Z" />
</g>
<g id="phase5">
<path fill="black" opacity="1.00" d=" M 14.47 0.82 C 30.69 0.47 46.92 0.58 63.15 0.57 C 82.46 19.08 96.57 42.70 104.64 68.14 C 109.03 81.65 111.55 95.71 113.20 109.77 C 122.80 110.53 132.55 109.86 142.21 110.11 C 142.51 109.98 143.11 109.70 143.41 109.56 C 146.18 83.37 153.47 57.41 166.72 34.54 C 173.64 22.90 181.81 11.89 191.63 2.53 C 193.75 0.18 197.21 0.85 200.04 0.61 C 214.28 0.49 228.54 0.35 242.77 0.87 C 239.14 5.46 234.82 9.45 231.20 14.06 C 209.54 41.19 199.95 75.97 197.34 110.09 C 210.65 110.10 223.95 110.08 237.25 110.10 C 237.28 125.12 237.28 140.14 237.25 155.16 C 224.28 155.18 211.30 155.21 198.33 155.14 C 201.95 187.42 212.85 219.82 234.20 244.77 C 237.31 248.47 240.88 251.75 244.00 255.44 C 227.39 255.51 210.77 255.56 194.16 255.42 C 186.25 247.71 178.77 239.50 172.67 230.25 C 157.48 208.02 148.52 181.99 144.56 155.47 C 133.76 155.43 122.96 155.50 112.17 155.44 C 109.55 169.08 106.77 182.85 101.63 195.85 C 93.26 218.23 79.99 238.84 62.52 255.20 C 62.55 255.40 62.61 255.80 62.64 256.00 L 62.29 256.00 C 62.27 255.85 62.22 255.54 62.19 255.39 C 45.67 255.62 29.14 255.45 12.61 255.47 C 20.83 246.62 29.00 237.60 35.10 227.10 C 48.24 205.30 55.28 180.33 58.32 155.20 C 44.11 155.14 29.90 155.21 15.69 155.17 C 15.63 140.33 15.82 125.48 15.81 110.64 L 16.32 110.36 C 30.63 110.16 44.95 110.17 59.26 110.13 C 56.95 81.50 50.02 52.69 35.01 27.93 C 29.41 18.20 21.84 9.88 14.31 1.63 L 14.47 0.82 Z" />
</g>
<g id="phase6">
<path fill="gold" opacity="1.00" d=" M 14.47 0.82 C 30.69 0.47 46.92 0.58 63.15 0.57 C 82.46 19.08 96.57 42.70 104.64 68.14 C 109.03 81.65 111.55 95.71 113.20 109.77 C 122.80 110.53 132.55 109.86 142.21 110.11 C 142.51 109.98 143.11 109.70 143.41 109.56 C 146.18 83.37 153.47 57.41 166.72 34.54 C 173.64 22.90 181.81 11.89 191.63 2.53 C 193.75 0.18 197.21 0.85 200.04 0.61 C 214.28 0.49 228.54 0.35 242.77 0.87 C 239.14 5.46 234.82 9.45 231.20 14.06 C 209.54 41.19 199.95 75.97 197.34 110.09 C 210.65 110.10 223.95 110.08 237.25 110.10 C 237.28 125.12 237.28 140.14 237.25 155.16 C 224.28 155.18 211.30 155.21 198.33 155.14 C 201.95 187.42 212.85 219.82 234.20 244.77 C 237.31 248.47 240.88 251.75 244.00 255.44 C 227.39 255.51 210.77 255.56 194.16 255.42 C 186.25 247.71 178.77 239.50 172.67 230.25 C 157.48 208.02 148.52 181.99 144.56 155.47 C 133.76 155.43 122.96 155.50 112.17 155.44 C 109.55 169.08 106.77 182.85 101.63 195.85 C 93.26 218.23 79.99 238.84 62.52 255.20 C 62.55 255.40 62.61 255.80 62.64 256.00 L 62.29 256.00 C 62.27 255.85 62.22 255.54 62.19 255.39 C 45.67 255.62 29.14 255.45 12.61 255.47 C 20.83 246.62 29.00 237.60 35.10 227.10 C 48.24 205.30 55.28 180.33 58.32 155.20 C 44.11 155.14 29.90 155.21 15.69 155.17 C 15.63 140.33 15.82 125.48 15.81 110.64 L 16.32 110.36 C 30.63 110.16 44.95 110.17 59.26 110.13 C 56.95 81.50 50.02 52.69 35.01 27.93 C 29.41 18.20 21.84 9.88 14.31 1.63 L 14.47 0.82 Z" />
</g>
</svg>
