<?xml version="1.0" encoding="UTF-8"?>
<!DOCTYPE svg PUBLIC "-//W3C//DTD SVG 1.1//EN" "http://www.w3.org/Graphics/SVG/1.1/DTD/svg11.dtd">
<svg xmlns="http://www.w3.org/2000/svg" version="1.1" width="280px" height="340px" viewBox="0, 0, 280, 340" style="shape-rendering:geometricPrecision; text-rendering:geometricPrecision; image-rendering:optimizeQuality; fill-rule:evenodd; clip-rule:evenodd" xmlns:xlink="http://www.w3.org/1999/xlink">
<g><path style="opacity:0.075" fill="#a34140" d="M 128.5,-0.5 C 135.833,-0.5 143.167,-0.5 150.5,-0.5C 150.334,4.51108 150.501,9.51108 151,14.5C 151.179,11.4465 151.679,8.44651 152.5,5.5C 153.417,4.87277 154.417,4.53944 155.5,4.5C 155.179,6.04814 154.179,6.71481 152.5,6.5C 152.5,10.1667 152.5,13.8333 152.5,17.5C 151.167,17.5 149.833,17.5 148.5,17.5C 148.167,17.5 147.833,17.5 147.5,17.5C 147.833,16.1667 148.167,14.8333 148.5,13.5C 149.485,9.36559 149.818,5.03225 149.5,0.5C 142.833,0.5 136.167,0.5 129.5,0.5C 129.182,5.03225 129.515,9.36559 130.5,13.5C 130.733,15.0618 131.4,16.3951 132.5,17.5C 130.5,17.5 128.5,17.5 126.5,17.5C 126.763,13.3998 126.43,9.39977 125.5,5.5C 127.112,8.74434 128.112,12.411 128.5,16.5C 128.833,16.1667 129.167,15.8333 129.5,15.5C 128.549,10.2302 128.215,4.89683 128.5,-0.5 Z"/></g>
<g><path style="opacity:0.998" fill="#ed9122" d="M 161.5,-0.5 C 163.833,-0.5 166.167,-0.5 168.5,-0.5C 168.5,-0.166667 168.5,0.166667 168.5,0.5C 166.833,0.5 165.167,0.5 163.5,0.5C 164.213,5.26614 164.38,9.93281 164,14.5C 167.774,15.767 171.608,16.767 175.5,17.5C 175.5,18.1667 175.5,18.8333 175.5,19.5C 172.933,19.7215 170.599,20.3882 168.5,21.5C 166.421,21.0293 164.421,20.3627 162.5,19.5C 159.493,17.8255 156.16,17.1588 152.5,17.5C 152.5,13.8333 152.5,10.1667 152.5,6.5C 154.179,6.71481 155.179,6.04814 155.5,4.5C 157.5,2.83333 159.5,1.16667 161.5,-0.5 Z"/></g>
<g><path style="opacity:1" fill="#e6b827" d="M 168.5,0.5 C 170.78,2.22267 173.447,2.88934 176.5,2.5C 176.821,7.69463 176.487,12.6946 175.5,17.5C 171.608,16.767 167.774,15.767 164,14.5C 164.38,9.93281 164.213,5.26614 163.5,0.5C 165.167,0.5 166.833,0.5 168.5,0.5 Z"/></g>
<g><path style="opacity:1" fill="#e6b827" d="M 148.5,13.5 C 144.5,13.5 140.5,13.5 136.5,13.5C 136.167,5.5 135.833,5.5 135.5,13.5C 133.833,13.5 132.167,13.5 130.5,13.5C 132.167,13.5 133.833,13.5 135.5,13.5C 135.833,5.5 136.167,5.5 136.5,13.5C 140.5,13.5 144.5,13.5 148.5,13.5 Z"/></g>
<g><path style="opacity:0.231" fill="#a84c47" d="M 168.5,0.5 C 171.518,0.703809 174.518,1.03714 177.5,1.5C 178.12,7.92619 177.453,13.9262 175.5,19.5C 175.5,18.8333 175.5,18.1667 175.5,17.5C 176.487,12.6946 176.821,7.69463 176.5,2.5C 173.447,2.88934 170.78,2.22267 168.5,0.5 Z"/></g>
<g><path style="opacity:0.204" fill="#a74946" d="M 109.5,-0.5 C 112.5,-0.5 115.5,-0.5 118.5,-0.5C 120.833,1.5 123.167,3.5 125.5,5.5C 122.167,3.83333 118.833,2.16667 115.5,0.5C 111.246,1.64619 106.913,2.31286 102.5,2.5C 102.179,7.69463 102.513,12.6946 103.5,17.5C 104.167,18.5 104.833,19.5 105.5,20.5C 103.983,20.4894 102.816,19.8228 102,18.5C 101.501,12.8431 101.334,7.17645 101.5,1.5C 104.373,1.19767 107.039,0.531006 109.5,-0.5 Z"/></g>
<g><path style="opacity:1" fill="#e6b727" d="M 115.5,0.5 C 115.666,5.17853 115.499,9.8452 115,14.5C 111.088,15.1785 107.255,16.1785 103.5,17.5C 102.513,12.6946 102.179,7.69463 102.5,2.5C 106.913,2.31286 111.246,1.64619 115.5,0.5 Z"/></g>
<g><path style="opacity:0.993" fill="#ec9523" d="M 148.5,13.5 C 148.167,14.8333 147.833,16.1667 147.5,17.5C 142.5,17.5 137.5,17.5 132.5,17.5C 131.4,16.3951 130.733,15.0618 130.5,13.5C 132.167,13.5 133.833,13.5 135.5,13.5C 135.833,5.5 136.167,5.5 136.5,13.5C 140.5,13.5 144.5,13.5 148.5,13.5 Z"/></g>
<g><path style="opacity:0.996" fill="#ef941f" d="M 115.5,0.5 C 118.833,2.16667 122.167,3.83333 125.5,5.5C 126.43,9.39977 126.763,13.3998 126.5,17.5C 125.833,17.5 125.5,17.8333 125.5,18.5C 125.167,18.5 124.833,18.5 124.5,18.5C 119.374,18.8753 114.374,19.8753 109.5,21.5C 108.432,20.5655 107.099,20.2322 105.5,20.5C 104.833,19.5 104.167,18.5 103.5,17.5C 107.255,16.1785 111.088,15.1785 115,14.5C 115.499,9.8452 115.666,5.17853 115.5,0.5 Z"/></g>
<g><path style="opacity:1" fill="#f0cc27" d="M 126.5,17.5 C 128.5,17.5 130.5,17.5 132.5,17.5C 137.5,17.5 142.5,17.5 147.5,17.5C 147.833,17.5 148.167,17.5 148.5,17.5C 150.265,18.4614 152.265,18.7947 154.5,18.5C 154.5,19.8333 154.5,21.1667 154.5,22.5C 144.833,22.5 135.167,22.5 125.5,22.5C 125.5,21.1667 125.5,19.8333 125.5,18.5C 125.5,17.8333 125.833,17.5 126.5,17.5 Z"/></g>
<g><path style="opacity:0.915" fill="#c28e2e" d="M 148.5,17.5 C 149.833,17.5 151.167,17.5 152.5,17.5C 156.16,17.1588 159.493,17.8255 162.5,19.5C 160.738,19.6427 159.071,19.3094 157.5,18.5C 156.24,20.3529 156.24,22.1862 157.5,24C 160.232,24.413 162.899,25.0797 165.5,26C 164.552,26.4828 163.552,26.6495 162.5,26.5C 162.5,28.1667 162.5,29.8333 162.5,31.5C 164.5,31.8333 166.5,32.1667 168.5,32.5C 168.5,32.8333 168.5,33.1667 168.5,33.5C 161.583,31.9585 154.583,30.9585 147.5,30.5C 147.5,28.1667 147.5,25.8333 147.5,23.5C 142.5,23.5 137.5,23.5 132.5,23.5C 132.5,25.8333 132.5,28.1667 132.5,30.5C 129.098,30.3424 125.764,30.6758 122.5,31.5C 122.5,31.1667 122.5,30.8333 122.5,30.5C 124.948,29.5269 127.615,29.1936 130.5,29.5C 130.5,27.8333 130.5,26.1667 130.5,24.5C 127.391,24.2641 124.391,24.5975 121.5,25.5C 121.082,24.7784 120.416,24.2784 119.5,24C 121.134,23.5065 122.801,23.3398 124.5,23.5C 124.5,21.8333 124.5,20.1667 124.5,18.5C 124.833,18.5 125.167,18.5 125.5,18.5C 125.5,19.8333 125.5,21.1667 125.5,22.5C 135.167,22.5 144.833,22.5 154.5,22.5C 154.5,21.1667 154.5,19.8333 154.5,18.5C 152.265,18.7947 150.265,18.4614 148.5,17.5 Z"/></g>
<g><path style="opacity:0.686" fill="#751a09" d="M 91.5,25.5 C 95.265,24.06 98.9317,24.56 102.5,27C 104.141,28.129 105.141,29.629 105.5,31.5C 104.5,30.8333 103.5,30.1667 102.5,29.5C 99.4533,26.8095 95.7867,25.4762 91.5,25.5 Z"/></g>
<g><path style="opacity:1" fill="#f1cb24" d="M 122.5,30.5 C 121.167,30.5 119.833,30.5 118.5,30.5C 118.5,28.8333 118.5,27.1667 118.5,25.5C 119.5,25.5 120.5,25.5 121.5,25.5C 124.391,24.5975 127.391,24.2641 130.5,24.5C 130.5,26.1667 130.5,27.8333 130.5,29.5C 127.615,29.1936 124.948,29.5269 122.5,30.5 Z"/></g>
<g><path style="opacity:1" fill="#f0ca28" d="M 149.5,24.5 C 153.5,24.8333 157.5,25.1667 161.5,25.5C 161.5,27.1667 161.5,28.8333 161.5,30.5C 157.5,30.1667 153.5,29.8333 149.5,29.5C 149.5,27.8333 149.5,26.1667 149.5,24.5 Z"/></g>
<g><path style="opacity:1" fill="#d66715" d="M 91.5,25.5 C 95.7867,25.4762 99.4533,26.8095 102.5,29.5C 97.2895,32.0394 92.6229,35.3728 88.5,39.5C 89.8037,42.1301 91.4704,44.4634 93.5,46.5C 90.5265,44.8532 87.8599,42.8532 85.5,40.5C 85.9626,34.748 88.6293,30.248 93.5,27C 85.8597,27.1463 78.193,27.4796 70.5,28C 67.8762,30.4491 65.5429,32.9491 63.5,35.5C 64.8184,31.6681 67.1517,28.5014 70.5,26C 77.4921,25.5004 84.4921,25.3337 91.5,25.5 Z"/></g>
<g><path style="opacity:1" fill="#edb328" d="M 162.5,19.5 C 164.421,20.3627 166.421,21.0293 168.5,21.5C 169.693,21.9704 170.36,22.9704 170.5,24.5C 169.336,27.0672 168.67,29.7338 168.5,32.5C 166.5,32.1667 164.5,31.8333 162.5,31.5C 162.5,29.8333 162.5,28.1667 162.5,26.5C 163.552,26.6495 164.552,26.4828 165.5,26C 162.899,25.0797 160.232,24.413 157.5,24C 156.24,22.1862 156.24,20.3529 157.5,18.5C 159.071,19.3094 160.738,19.6427 162.5,19.5 Z"/></g>
<g><path style="opacity:0.914" fill="#ac5228" d="M 175.5,19.5 C 174.739,20.3909 173.739,21.0576 172.5,21.5C 171.865,24.9612 170.865,28.2946 169.5,31.5C 169.808,32.3081 170.308,32.9747 171,33.5C 172.535,30.7063 174.702,28.7063 177.5,27.5C 177.5,28.1667 177.5,28.8333 177.5,29.5C 175.5,30.8333 173.833,32.5 172.5,34.5C 172.167,35.1667 171.833,35.8333 171.5,36.5C 170.5,35.5 169.5,34.5 168.5,33.5C 168.5,33.1667 168.5,32.8333 168.5,32.5C 168.67,29.7338 169.336,27.0672 170.5,24.5C 170.36,22.9704 169.693,21.9704 168.5,21.5C 170.599,20.3882 172.933,19.7215 175.5,19.5 Z"/></g>
<g><path style="opacity:1" fill="#fce203" d="M 85.5,40.5 C 84.1634,41.3149 83.1634,42.4815 82.5,44C 75.144,44.8313 67.8107,44.6646 60.5,43.5C 61.3721,41.5504 62.0388,39.5504 62.5,37.5C 62.3284,36.5084 62.6618,35.8417 63.5,35.5C 65.5429,32.9491 67.8762,30.4491 70.5,28C 78.193,27.4796 85.8597,27.1463 93.5,27C 88.6293,30.248 85.9626,34.748 85.5,40.5 Z"/></g>
<g><path style="opacity:0.516" fill="#984536" d="M 105.5,20.5 C 107.099,20.2322 108.432,20.5655 109.5,21.5C 110.004,25.5066 110.17,29.5066 110,33.5C 107.499,35.0558 105.999,34.3892 105.5,31.5C 107.041,33.7936 108.375,33.7936 109.5,31.5C 108.353,27.6653 107.019,23.9986 105.5,20.5 Z"/></g>
<g><path style="opacity:1" fill="#fce302" d="M 210.5,28.5 C 211.08,30.7488 212.413,32.4154 214.5,33.5C 214.427,35.0269 215.094,36.0269 216.5,36.5C 216.357,38.2624 216.691,39.9291 217.5,41.5C 209.366,42.9603 201.366,42.627 193.5,40.5C 193.037,34.748 190.371,30.248 185.5,27C 193.854,27.0568 202.188,27.5568 210.5,28.5 Z"/></g>
<g><path style="opacity:0.769" fill="#ae5d02" d="M 210.5,28.5 C 212.587,29.5846 213.92,31.2512 214.5,33.5C 212.413,32.4154 211.08,30.7488 210.5,28.5 Z"/></g>
<g><path style="opacity:0.999" fill="#e4b821" d="M 168.5,33.5 C 169.5,34.5 170.5,35.5 171.5,36.5C 169.167,39.5 166.5,42.1667 163.5,44.5C 162.081,43.5489 160.415,43.2155 158.5,43.5C 147.857,42.6548 137.19,42.3215 126.5,42.5C 124.585,42.7845 122.919,42.4511 121.5,41.5C 122.978,41.762 124.311,41.4287 125.5,40.5C 124.754,39.2638 124.421,37.9305 124.5,36.5C 124.5,35.1667 124.5,33.8333 124.5,32.5C 122.599,32.7535 121.933,32.4202 122.5,31.5C 125.764,30.6758 129.098,30.3424 132.5,30.5C 132.5,28.1667 132.5,25.8333 132.5,23.5C 137.5,23.5 142.5,23.5 147.5,23.5C 147.5,25.8333 147.5,28.1667 147.5,30.5C 154.583,30.9585 161.583,31.9585 168.5,33.5 Z"/></g>
<g><path style="opacity:1" fill="#d76715" d="M 210.5,28.5 C 202.188,27.5568 193.854,27.0568 185.5,27C 190.371,30.248 193.037,34.748 193.5,40.5C 190.099,43.9083 186.432,46.9083 182.5,49.5C 181.5,49.5 180.5,49.5 179.5,49.5C 181.5,48.1667 183.5,46.8333 185.5,45.5C 187.145,44.5213 188.479,43.188 189.5,41.5C 185.812,37.1456 181.812,33.1456 177.5,29.5C 177.5,28.8333 177.5,28.1667 177.5,27.5C 179.031,25.3199 181.198,24.3199 184,24.5C 192.149,25.2214 200.316,25.7214 208.5,26C 209.381,26.7083 210.047,27.5416 210.5,28.5 Z"/></g>
<g><path style="opacity:1" fill="#eda618" d="M 124.5,18.5 C 124.5,20.1667 124.5,21.8333 124.5,23.5C 122.801,23.3398 121.134,23.5065 119.5,24C 120.416,24.2784 121.082,24.7784 121.5,25.5C 120.5,25.5 119.5,25.5 118.5,25.5C 118.5,27.1667 118.5,28.8333 118.5,30.5C 119.833,30.5 121.167,30.5 122.5,30.5C 122.5,30.8333 122.5,31.1667 122.5,31.5C 121.933,32.4202 122.599,32.7535 124.5,32.5C 124.5,33.8333 124.5,35.1667 124.5,36.5C 123.596,35.791 123.263,34.791 123.5,33.5C 120.927,33.1485 118.594,33.6485 116.5,35C 118.016,36.897 118.683,39.0637 118.5,41.5C 119.5,41.5 120.5,41.5 121.5,41.5C 122.919,42.4511 124.585,42.7845 126.5,42.5C 124.5,43.1667 122.5,43.8333 120.5,44.5C 119.448,44.3505 118.448,44.5172 117.5,45C 119.156,46.8294 121.156,48.1628 123.5,49C 121.19,49.4966 118.857,49.6633 116.5,49.5C 115.5,49.5 114.5,49.5 113.5,49.5C 112.167,48.8333 110.833,48.1667 109.5,47.5C 113.138,48.2634 114.638,46.9301 114,43.5C 110.933,40.0937 107.599,37.0937 104,34.5C 101.72,38.4467 99.0535,42.1134 96,45.5C 95.5304,46.5768 95.6971,47.5768 96.5,48.5C 94.9731,48.573 93.9731,47.9063 93.5,46.5C 91.4704,44.4634 89.8037,42.1301 88.5,39.5C 92.6229,35.3728 97.2895,32.0394 102.5,29.5C 103.5,30.1667 104.5,30.8333 105.5,31.5C 105.999,34.3892 107.499,35.0558 110,33.5C 110.17,29.5066 110.004,25.5066 109.5,21.5C 114.374,19.8753 119.374,18.8753 124.5,18.5 Z"/></g>
<g><path style="opacity:1" fill="#7f4d0a" d="M 127.5,32.5 C 130.977,32.6118 132.477,34.2785 132,37.5C 130.981,36.3128 129.814,35.3128 128.5,34.5C 127.166,36.8183 127.832,38.485 130.5,39.5C 128.939,40.3473 127.439,40.0139 126,38.5C 125.252,36.1599 125.752,34.1599 127.5,32.5 Z"/></g>
<g><path style="opacity:1" fill="#6d3b07" d="M 142.5,32.5 C 143.859,33.0065 144.859,34.0065 145.5,35.5C 147.404,31.5564 148.404,31.8897 148.5,36.5C 147.167,36.5 145.833,36.5 144.5,36.5C 144.719,37.675 144.386,38.675 143.5,39.5C 142.526,37.2573 142.192,34.924 142.5,32.5 Z"/></g>
<g><path style="opacity:0.157" fill="#792b09" d="M 214.5,33.5 C 215.906,33.9731 216.573,34.9731 216.5,36.5C 215.094,36.0269 214.427,35.0269 214.5,33.5 Z"/></g>
<g><path style="opacity:1" fill="#8f5e0d" d="M 151.5,32.5 C 155.143,33.3822 156.31,35.7155 155,39.5C 151.958,40.9865 150.125,39.9865 149.5,36.5C 149.752,34.9271 150.418,33.5938 151.5,32.5 Z"/></g>
<g><path style="opacity:1" fill="#8a520a" d="M 158.5,33.5 C 160.144,33.2865 161.644,33.6198 163,34.5C 162.917,37.1194 162.75,39.786 162.5,42.5C 156.063,42.1399 154.729,39.1399 158.5,33.5 Z"/></g>
<g><path style="opacity:1" fill="#f6a611" d="M 177.5,29.5 C 181.812,33.1456 185.812,37.1456 189.5,41.5C 188.479,43.188 187.145,44.5213 185.5,45.5C 182.021,40.6763 177.687,37.0096 172.5,34.5C 173.833,32.5 175.5,30.8333 177.5,29.5 Z"/></g>
<g><path style="opacity:1" fill="#9f680e" d="M 124.5,36.5 C 124.421,37.9305 124.754,39.2638 125.5,40.5C 124.311,41.4287 122.978,41.762 121.5,41.5C 120.5,41.5 119.5,41.5 118.5,41.5C 118.683,39.0637 118.016,36.897 116.5,35C 118.594,33.6485 120.927,33.1485 123.5,33.5C 123.263,34.791 123.596,35.791 124.5,36.5 Z"/></g>
<g><path style="opacity:1" fill="#6a3706" d="M 134.5,32.5 C 136.417,33.9093 138.25,35.576 140,37.5C 140.688,38.3317 140.521,38.9984 139.5,39.5C 138.667,38.5 137.833,37.5 137,36.5C 136.751,37.624 136.251,38.624 135.5,39.5C 134.526,37.2573 134.192,34.924 134.5,32.5 Z"/></g>
<g><path style="opacity:1" fill="#fadb03" d="M 109.5,47.5 C 106.951,47.6126 104.618,46.9459 102.5,45.5C 102.167,45.6667 101.833,45.8333 101.5,46C 105.756,48.7229 105.422,49.8896 100.5,49.5C 99.1667,49.5 97.8333,49.5 96.5,49.5C 96.5,49.1667 96.5,48.8333 96.5,48.5C 95.6971,47.5768 95.5304,46.5768 96,45.5C 99.0535,42.1134 101.72,38.4467 104,34.5C 107.599,37.0937 110.933,40.0937 114,43.5C 114.638,46.9301 113.138,48.2634 109.5,47.5 Z"/></g>
<g><path style="opacity:0.235" fill="#9d3840" d="M 126.5,42.5 C 137.19,42.3215 147.857,42.6548 158.5,43.5C 158.5,43.8333 158.5,44.1667 158.5,44.5C 145.835,43.1983 133.168,43.1983 120.5,44.5C 122.5,43.8333 124.5,43.1667 126.5,42.5 Z"/></g>
<g><path style="opacity:1" fill="#f6ba0b" d="M 62.5,37.5 C 62.0388,39.5504 61.3721,41.5504 60.5,43.5C 67.8107,44.6646 75.144,44.8313 82.5,44C 83.1634,42.4815 84.1634,41.3149 85.5,40.5C 84.4388,43.6223 83.1054,46.6223 81.5,49.5C 81.1667,49.5 80.8333,49.5 80.5,49.5C 72.16,49.6664 63.8267,49.4997 55.5,49C 57.0854,46.9307 58.4187,44.764 59.5,42.5C 59.7497,40.326 60.7497,38.6594 62.5,37.5 Z"/></g>
<g><path style="opacity:0.427" fill="#ab5f0a" d="M 109.5,47.5 C 110.833,48.1667 112.167,48.8333 113.5,49.5C 111.833,49.5 110.167,49.5 108.5,49.5C 108.167,48.1667 107.833,48.1667 107.5,49.5C 105.059,50.7563 102.726,50.7563 100.5,49.5C 105.422,49.8896 105.756,48.7229 101.5,46C 101.833,45.8333 102.167,45.6667 102.5,45.5C 104.618,46.9459 106.951,47.6126 109.5,47.5 Z"/></g>
<g><path style="opacity:0.459" fill="#9b4819" d="M 120.5,44.5 C 123.19,46.7295 126.19,48.3962 129.5,49.5C 125.066,50.7943 120.733,50.7943 116.5,49.5C 118.857,49.6633 121.19,49.4966 123.5,49C 121.156,48.1628 119.156,46.8294 117.5,45C 118.448,44.5172 119.448,44.3505 120.5,44.5 Z"/></g>
<g><path style="opacity:1" fill="#f5d008" d="M 172.5,34.5 C 177.687,37.0096 182.021,40.6763 185.5,45.5C 183.5,46.8333 181.5,48.1667 179.5,49.5C 177.021,50.6227 174.688,50.6227 172.5,49.5C 174.378,48.7924 176.045,47.6257 177.5,46C 173.406,46.8567 169.406,48.0234 165.5,49.5C 163.833,49.5 162.167,49.5 160.5,49.5C 158.473,49.6621 156.473,49.4955 154.5,49C 157.823,47.9601 160.823,46.4601 163.5,44.5C 166.5,42.1667 169.167,39.5 171.5,36.5C 171.833,35.8333 172.167,35.1667 172.5,34.5 Z"/></g>
<g><path style="opacity:1" fill="#f5bb0b" d="M 216.5,36.5 C 218.083,38.6626 219.416,40.9959 220.5,43.5C 221.203,45.7157 222.536,47.549 224.5,49C 215.84,49.4998 207.173,49.6664 198.5,49.5C 198.167,49.5 197.833,49.5 197.5,49.5C 195.895,46.6223 194.561,43.6223 193.5,40.5C 201.366,42.627 209.366,42.9603 217.5,41.5C 216.691,39.9291 216.357,38.2624 216.5,36.5 Z"/></g>
<g><path style="opacity:0.09" fill="#a13e02" d="M 172.5,49.5 C 172.167,49.5 171.833,49.5 171.5,49.5C 171.167,48.1667 170.833,48.1667 170.5,49.5C 168.833,49.5 167.167,49.5 165.5,49.5C 169.406,48.0234 173.406,46.8567 177.5,46C 176.045,47.6257 174.378,48.7924 172.5,49.5 Z"/></g>
<g><path style="opacity:0.482" fill="#50749b" d="M 52.5,49.5 C 53.1667,49.5 53.5,49.8333 53.5,50.5C 44.5,50.5 35.5,50.5 26.5,50.5C 26.5,58.5 26.5,66.5 26.5,74.5C 25.8333,74.5 25.1667,74.5 24.5,74.5C 24.5,66.1667 24.5,57.8333 24.5,49.5C 33.8333,49.5 43.1667,49.5 52.5,49.5 Z"/></g>
<g><path style="opacity:1" fill="#b16f1e" d="M 59.5,42.5 C 58.4187,44.764 57.0854,46.9307 55.5,49C 63.8267,49.4997 72.16,49.6664 80.5,49.5C 71.6822,50.4933 62.6822,50.8266 53.5,50.5C 53.5,49.8333 53.1667,49.5 52.5,49.5C 54.5968,47.0158 56.9301,44.6824 59.5,42.5 Z"/></g>
<g><path style="opacity:1" fill="#ad611b" d="M 158.5,44.5 C 158.5,44.1667 158.5,43.8333 158.5,43.5C 160.415,43.2155 162.081,43.5489 163.5,44.5C 160.823,46.4601 157.823,47.9601 154.5,49C 156.473,49.4955 158.473,49.6621 160.5,49.5C 156.935,50.7866 153.268,50.7866 149.5,49.5C 153.348,48.3173 156.348,46.6506 158.5,44.5 Z"/></g>
<g><path style="opacity:1" fill="#ac6e1f" d="M 220.5,43.5 C 222.833,45.1667 224.833,47.1667 226.5,49.5C 217.068,50.8159 207.735,50.8159 198.5,49.5C 207.173,49.6664 215.84,49.4998 224.5,49C 222.536,47.549 221.203,45.7157 220.5,43.5 Z"/></g>
<g><path style="opacity:1" fill="#1e6fb6" d="M 80.5,49.5 C 80.8333,49.5 81.1667,49.5 81.5,49.5C 86.5,49.5 91.5,49.5 96.5,49.5C 97.8333,49.5 99.1667,49.5 100.5,49.5C 102.726,50.7563 105.059,50.7563 107.5,49.5C 107.833,49.5 108.167,49.5 108.5,49.5C 110.167,49.5 111.833,49.5 113.5,49.5C 114.5,49.5 115.5,49.5 116.5,49.5C 120.733,50.7943 125.066,50.7943 129.5,49.5C 136.167,49.5 142.833,49.5 149.5,49.5C 153.268,50.7866 156.935,50.7866 160.5,49.5C 162.167,49.5 163.833,49.5 165.5,49.5C 167.167,49.5 168.833,49.5 170.5,49.5C 170.833,49.5 171.167,49.5 171.5,49.5C 171.833,49.5 172.167,49.5 172.5,49.5C 174.688,50.6227 177.021,50.6227 179.5,49.5C 180.5,49.5 181.5,49.5 182.5,49.5C 187.5,49.5 192.5,49.5 197.5,49.5C 197.833,49.5 198.167,49.5 198.5,49.5C 207.735,50.8159 217.068,50.8159 226.5,49.5C 235.833,49.5 245.167,49.5 254.5,49.5C 254.5,57.8333 254.5,66.1667 254.5,74.5C 253.173,78.7825 252.507,83.4492 252.5,88.5C 252.501,93.3457 252.834,98.0124 253.5,102.5C 253.833,103.167 254.167,103.833 254.5,104.5C 254.5,110.833 254.5,117.167 254.5,123.5C 253.167,140.5 253.167,157.5 254.5,174.5C 254.5,174.833 254.5,175.167 254.5,175.5C 253.532,177.607 253.198,179.941 253.5,182.5C 232.5,182.5 211.5,182.5 190.5,182.5C 190.09,170.469 188.923,158.469 187,146.5C 185.497,141.828 182.33,139.161 177.5,138.5C 177.66,136.801 177.494,135.134 177,133.5C 174.854,130.874 173.521,127.874 173,124.5C 170.223,121.788 168.056,118.621 166.5,115C 169.235,110.808 171.401,106.308 173,101.5C 173.127,98.3959 173.293,95.3959 173.5,92.5C 171.435,88.3688 169.935,84.0355 169,79.5C 166.56,77.7257 164.894,75.3924 164,72.5C 150.712,64.3928 136.546,62.5595 121.5,67C 119.582,69.9277 116.915,71.5943 113.5,72C 111.695,75.4219 109.528,78.5886 107,81.5C 104.861,91.7152 105.028,101.882 107.5,112C 108.5,113.667 109.5,115.333 110.5,117C 107.139,124.084 103.972,131.25 101,138.5C 97.3644,141.462 93.6977,144.462 90,147.5C 88.582,159.096 87.7487,170.763 87.5,182.5C 66.9931,182.17 46.6598,182.503 26.5,183.5C 26.1667,183.5 25.8333,183.5 25.5,183.5C 25.8064,180.615 25.4731,177.948 24.5,175.5C 25.1495,173.565 25.4828,171.565 25.5,169.5C 25.8293,154.657 25.496,139.99 24.5,125.5C 25.464,118.254 25.7973,110.92 25.5,103.5C 25.5,103.167 25.5,102.833 25.5,102.5C 26.4936,93.3483 26.8269,84.015 26.5,74.5C 26.5,66.5 26.5,58.5 26.5,50.5C 35.5,50.5 44.5,50.5 53.5,50.5C 62.6822,50.8266 71.6822,50.4933 80.5,49.5 Z"/></g>
<g><path style="opacity:1" fill="#ded721" d="M 221.5,61.5 C 222.5,61.5 223.5,61.5 224.5,61.5C 224.5,62.5 224.5,63.5 224.5,64.5C 220.148,64.3217 218.148,66.4883 218.5,71C 219.269,78.4284 223.269,81.095 230.5,79C 232.286,78.2155 233.786,77.0488 235,75.5C 235.667,72.5 235.667,69.5 235,66.5C 233.556,64.8446 231.722,64.178 229.5,64.5C 229.5,63.5 229.5,62.5 229.5,61.5C 244.33,65.1612 249.163,74.1612 244,88.5C 236.495,97.6678 227.328,99.8345 216.5,95C 203.299,81.5732 204.966,70.4065 221.5,61.5 Z"/></g>
<g><path style="opacity:1" fill="#fbb90f" d="M 25.5,102.5 C 22.6352,104.471 19.6352,105.137 16.5,104.5C 12.916,99.5357 9.91602,94.2024 7.5,88.5C 11.8722,84.1256 16.5389,80.1256 21.5,76.5C 22.5832,76.4606 23.5832,76.1272 24.5,75.5C 25.4982,84.4754 25.8315,93.4754 25.5,102.5 Z"/></g>
<g><path style="opacity:1" fill="#1c4b7b" d="M 163.5,105.5 C 163.153,101.904 163.82,98.5709 165.5,95.5C 163.031,91.9164 162.031,87.9164 162.5,83.5C 158.684,82.9103 157.017,80.5769 157.5,76.5C 155.473,76.6621 153.473,76.4955 151.5,76C 150.32,74.1039 148.82,72.6039 147,71.5C 143.62,72.9216 140.453,72.5883 137.5,70.5C 134.068,72.0607 130.401,72.894 126.5,73C 125.447,76.3673 123.114,78.034 119.5,78C 118.355,81.2798 116.522,84.1132 114,86.5C 113.605,88.1786 113.772,89.8453 114.5,91.5C 113.6,93.2387 112.933,95.072 112.5,97C 114.02,100.612 114.854,104.445 115,108.5C 116.011,109.337 117.178,109.67 118.5,109.5C 118.055,114.716 120.388,117.383 125.5,117.5C 118.081,120.617 113.747,126.283 112.5,134.5C 110.759,136.395 109.759,138.728 109.5,141.5C 107.196,144.141 104.862,146.808 102.5,149.5C 99.7374,149.744 97.5707,151.077 96,153.5C 95.8087,163.577 95.3087,173.577 94.5,183.5C 92.8333,183.5 91.1667,183.5 89.5,183.5C 68.5,183.5 47.5,183.5 26.5,183.5C 46.6598,182.503 66.9931,182.17 87.5,182.5C 89.1667,182.5 90.8333,182.5 92.5,182.5C 92.3336,173.494 92.5002,164.494 93,155.5C 95.2823,150.884 98.6156,147.217 103,144.5C 107.328,138.84 109.995,132.507 111,125.5C 115.785,118.963 115.452,112.63 110,106.5C 108.508,101.589 108.174,96.5893 109,91.5C 110.716,88.3599 112.049,85.0266 113,81.5C 114.582,80.0397 115.915,78.373 117,76.5C 119.46,75.0422 121.627,73.2089 123.5,71C 138.844,65.6362 152.344,68.4695 164,79.5C 164.14,82.0432 164.806,84.3766 166,86.5C 167.091,93.2327 166.258,99.566 163.5,105.5 Z"/></g>
<g><path style="opacity:1" fill="#fcbc0e" d="M 270.5,87.5 C 266.474,92.3739 262.808,97.5406 259.5,103C 257.455,103.49 255.455,103.323 253.5,102.5C 253.168,93.4754 253.502,84.4754 254.5,75.5C 260.617,78.5477 265.951,82.5477 270.5,87.5 Z"/></g>
<g><path style="opacity:0.373" fill="#8d421a" d="M 254.5,74.5 C 259.527,76.6834 264.193,79.5168 268.5,83C 271.447,85.4356 273.78,88.2689 275.5,91.5C 274.833,91.1667 274.167,90.8333 273.5,90.5C 272.833,89.1667 271.833,88.1667 270.5,87.5C 265.951,82.5477 260.617,78.5477 254.5,75.5C 253.502,84.4754 253.168,93.4754 253.5,102.5C 252.834,98.0124 252.501,93.3457 252.5,88.5C 252.507,83.4492 253.173,78.7825 254.5,74.5 Z"/></g>
<g><path style="opacity:1" fill="#9b6a33" d="M 24.5,74.5 C 25.1667,74.5 25.8333,74.5 26.5,74.5C 26.8269,84.015 26.4936,93.3483 25.5,102.5C 25.8315,93.4754 25.4982,84.4754 24.5,75.5C 23.5832,76.1272 22.5832,76.4606 21.5,76.5C 21.9731,75.0937 22.9731,74.427 24.5,74.5 Z"/></g>
<g><path style="opacity:0.557" fill="#953209" d="M 21.5,76.5 C 16.5389,80.1256 11.8722,84.1256 7.5,88.5C 5.93731,89.9448 4.60398,91.6115 3.5,93.5C 3.0276,95.5313 2.0276,97.1979 0.5,98.5C 2.61488,90.5329 7.28154,84.3663 14.5,80C 16.5766,78.295 18.91,77.1283 21.5,76.5 Z"/></g>
<g><path style="opacity:1" fill="#e2db1d" d="M 55.5,61.5 C 56.8734,61.3433 58.2068,61.51 59.5,62C 60.6796,63.8961 62.1796,65.3961 64,66.5C 65.8341,64.2438 67.5008,64.2438 69,66.5C 69.2868,68.8907 69.7868,71.2241 70.5,73.5C 71.3914,74.5896 72.3914,74.5896 73.5,73.5C 73.8333,74.3333 74.1667,75.1667 74.5,76C 73.7295,78.2711 72.7295,80.4378 71.5,82.5C 72.7323,84.0499 73.2323,85.7166 73,87.5C 70.5378,88.6498 68.2045,89.9831 66,91.5C 65.5078,92.549 65.6744,93.549 66.5,94.5C 62.8614,95.4603 59.1947,95.4603 55.5,94.5C 55.5,95.5 55.5,96.5 55.5,97.5C 54.1266,97.6567 52.7932,97.49 51.5,97C 50.2609,94.7598 48.4276,93.2598 46,92.5C 45.0497,93.0223 44.2164,93.689 43.5,94.5C 41.0805,92.0473 39.9138,89.0473 40,85.5C 38.9887,84.6634 37.8221,84.33 36.5,84.5C 36.6294,81.2341 37.6294,78.2341 39.5,75.5C 35.8101,73.9489 35.8101,72.1155 39.5,70C 44.2415,69.7944 45.9082,67.6278 44.5,63.5C 48.1788,63.7244 51.8455,64.0578 55.5,64.5C 55.5,63.5 55.5,62.5 55.5,61.5 Z"/></g>
<g><path style="opacity:1" fill="#316b9c" d="M 64.5,85.5 C 60.4574,90.4868 55.4574,91.6534 49.5,89C 47.9371,88.2411 46.9371,87.0744 46.5,85.5C 48.22,83.3419 49.0533,80.6752 49,77.5C 50.2912,87.2493 51.9579,87.5827 54,78.5C 53.9698,81.3615 54.8031,83.6948 56.5,85.5C 57.4849,81.3656 57.8182,77.0323 57.5,72.5C 55.901,72.2322 54.5676,72.5655 53.5,73.5C 52.71,74.6085 52.21,75.9419 52,77.5C 51.788,74.5598 50.288,72.7264 47.5,72C 53.643,67.2655 59.4763,67.7655 65,73.5C 67.1303,77.7223 66.9636,81.7223 64.5,85.5 Z"/></g>
<g><path style="opacity:1" fill="#d7cf18" d="M 64.5,85.5 C 62.9385,83.6283 61.9385,81.2949 61.5,78.5C 60.8333,80.8333 60.1667,83.1667 59.5,85.5C 58.1667,82.5 58.1667,79.5 59.5,76.5C 61.0026,77.0522 62.6693,77.0522 64.5,76.5C 64.5,79.5 64.5,82.5 64.5,85.5 Z"/></g>
<g><path style="opacity:1" fill="#718749" d="M 53.5,73.5 C 54.5676,72.5655 55.901,72.2322 57.5,72.5C 57.8182,77.0323 57.4849,81.3656 56.5,85.5C 56.5,81.5 56.5,77.5 56.5,73.5C 55.5,73.5 54.5,73.5 53.5,73.5 Z"/></g>
<g><path style="opacity:1" fill="#2e6999" d="M 46.5,85.5 C 42.8509,81.7151 42.6842,77.7151 46,73.5C 46.4988,77.4862 46.6655,81.4862 46.5,85.5 Z"/></g>
<g><path style="opacity:1" fill="#346a97" d="M 214.5,69.5 C 214.648,80.1505 219.981,84.9838 230.5,84C 237.043,81.4216 239.877,76.5883 239,69.5C 244.941,79.0149 242.775,86.1816 232.5,91C 218.976,93.4564 212.142,87.9564 212,74.5C 212.847,72.8068 213.68,71.1401 214.5,69.5 Z"/></g>
<g><path style="opacity:1" fill="#d6d025" d="M 213.5,77.5 C 218.022,86.4408 225.022,88.9408 234.5,85C 237.106,83.0616 238.939,80.5616 240,77.5C 239.319,85.4794 234.819,89.8127 226.5,90.5C 219.156,89.1563 214.823,84.823 213.5,77.5 Z"/></g>
<g><path style="opacity:1" fill="#f5a212" d="M 270.5,87.5 C 271.833,88.1667 272.833,89.1667 273.5,90.5C 271.087,96.4821 267.753,101.982 263.5,107C 261.311,107.322 259.311,106.822 257.5,105.5C 256.391,105.443 255.391,105.11 254.5,104.5C 254.167,103.833 253.833,103.167 253.5,102.5C 255.455,103.323 257.455,103.49 259.5,103C 262.808,97.5406 266.474,92.3739 270.5,87.5 Z"/></g>
<g><path style="opacity:1" fill="#d16913" d="M 3.5,93.5 C 3.35055,94.552 3.51722,95.552 4,96.5C 7.84648,100.487 11.0131,104.82 13.5,109.5C 14.5,109.5 15.5,109.5 16.5,109.5C 16.5,107.833 16.5,106.167 16.5,104.5C 19.6352,105.137 22.6352,104.471 25.5,102.5C 25.5,102.833 25.5,103.167 25.5,103.5C 24.8333,103.5 24.5,103.833 24.5,104.5C 20.7457,106.748 17.4124,109.581 14.5,113C 17.7768,115.766 20.4434,118.933 22.5,122.5C 18.1473,118.148 13.4807,114.148 8.5,110.5C 6.08435,107.337 3.91768,104.004 2,100.5C 1.52287,108.178 1.68954,115.845 2.5,123.5C 1.83333,124.167 1.16667,124.833 0.5,125.5C 1.47402,119.999 1.14069,114.666 -0.5,109.5C -0.5,106.5 -0.5,103.5 -0.5,100.5C 0.338246,100.158 0.67158,99.4916 0.5,98.5C 2.0276,97.1979 3.0276,95.5313 3.5,93.5 Z"/></g>
<g><path style="opacity:1" fill="#f79018" d="M 7.5,88.5 C 9.91602,94.2024 12.916,99.5357 16.5,104.5C 16.5,106.167 16.5,107.833 16.5,109.5C 15.5,109.5 14.5,109.5 13.5,109.5C 11.0131,104.82 7.84648,100.487 4,96.5C 3.51722,95.552 3.35055,94.552 3.5,93.5C 4.60398,91.6115 5.93731,89.9448 7.5,88.5 Z"/></g>
<g><path style="opacity:1" fill="#ea7918" d="M 273.5,90.5 C 274.167,90.8333 274.833,91.1667 275.5,91.5C 276.167,91.5 276.5,91.8333 276.5,92.5C 276.167,95.8333 275.833,99.1667 275.5,102.5C 274.657,105.516 273.157,108.183 271,110.5C 265.71,113.957 260.877,117.957 256.5,122.5C 258.557,118.933 261.223,115.766 264.5,113C 261.961,110.63 259.628,108.13 257.5,105.5C 259.311,106.822 261.311,107.322 263.5,107C 267.753,101.982 271.087,96.4821 273.5,90.5 Z"/></g>
<g><path style="opacity:0.035" fill="#89756b" d="M 25.5,103.5 C 25.7973,110.92 25.464,118.254 24.5,125.5C 23.8333,125.167 23.1667,124.833 22.5,124.5C 22.5,123.833 22.5,123.167 22.5,122.5C 23.1174,122.611 23.6174,122.944 24,123.5C 24.4995,117.175 24.6662,110.842 24.5,104.5C 24.5,103.833 24.8333,103.5 25.5,103.5 Z"/></g>
<g><path style="opacity:1" fill="#fcd706" d="M 22.5,122.5 C 22.5,123.167 22.5,123.833 22.5,124.5C 22.631,125.239 22.4643,125.906 22,126.5C 15.5461,125.592 9.04605,125.592 2.5,126.5C 2.5,125.5 2.5,124.5 2.5,123.5C 1.68954,115.845 1.52287,108.178 2,100.5C 3.91768,104.004 6.08435,107.337 8.5,110.5C 13.4807,114.148 18.1473,118.148 22.5,122.5 Z"/></g>
<g><path style="opacity:1" fill="#fdd706" d="M 276.5,122.5 C 276.5,123.833 276.5,125.167 276.5,126.5C 269.977,125.928 263.31,125.928 256.5,126.5C 256.5,125.167 256.5,123.833 256.5,122.5C 260.877,117.957 265.71,113.957 271,110.5C 273.157,108.183 274.657,105.516 275.5,102.5C 276.222,102.082 276.722,101.416 277,100.5C 277.372,107.84 277.205,115.173 276.5,122.5 Z"/></g>
<g><path style="opacity:1" fill="#f8ba0c" d="M 2.5,123.5 C 2.5,124.5 2.5,125.5 2.5,126.5C 9.04605,125.592 15.5461,125.592 22,126.5C 22.4643,125.906 22.631,125.239 22.5,124.5C 23.1667,124.833 23.8333,125.167 24.5,125.5C 25.496,139.99 25.8293,154.657 25.5,169.5C 24.2237,171.562 23.3903,173.896 23,176.5C 22.5003,184.159 22.3336,191.826 22.5,199.5C 21.5098,193.355 21.1765,187.022 21.5,180.5C 15.1667,180.5 8.83333,180.5 2.5,180.5C 2.5,186.5 2.5,192.5 2.5,198.5C 2.16667,198.5 1.83333,198.5 1.5,198.5C -0.346155,186.286 0.653845,174.286 4.5,162.5C 6.06825,160.189 6.90158,157.522 7,154.5C 7.66667,151.167 7.66667,147.833 7,144.5C 5.25405,140.673 3.25405,137.007 1,133.5C 0.502577,130.854 0.33591,128.187 0.5,125.5C 1.16667,124.833 1.83333,124.167 2.5,123.5 Z"/></g>
<g><path style="opacity:1" fill="#fbbf0d" d="M 256.5,122.5 C 256.5,123.833 256.5,125.167 256.5,126.5C 263.31,125.928 269.977,125.928 276.5,126.5C 276.5,125.167 276.5,123.833 276.5,122.5C 278.556,127.012 278.722,131.678 277,136.5C 270.557,144.32 269.723,152.653 274.5,161.5C 274.5,161.833 274.5,162.167 274.5,162.5C 274.527,168.278 275.36,173.944 277,179.5C 277.5,185.825 277.666,192.158 277.5,198.5C 277.167,198.5 276.833,198.5 276.5,198.5C 276.5,195.5 276.5,192.5 276.5,189.5C 276.5,186.5 276.5,183.5 276.5,180.5C 269.745,179.877 263.412,180.544 257.5,182.5C 257.098,179.523 256.098,176.857 254.5,174.5C 253.167,157.5 253.167,140.5 254.5,123.5C 255.167,123.167 255.833,122.833 256.5,122.5 Z"/></g>
<g><path style="opacity:0.518" fill="#a34507" d="M -0.5,125.5 C -0.166667,125.5 0.166667,125.5 0.5,125.5C 0.33591,128.187 0.502577,130.854 1,133.5C 3.25405,137.007 5.25405,140.673 7,144.5C 7.66667,147.833 7.66667,151.167 7,154.5C 6.90158,157.522 6.06825,160.189 4.5,162.5C 6.23097,156.156 6.39764,149.823 5,143.5C 3.69368,140.379 1.86034,137.713 -0.5,135.5C -0.5,132.167 -0.5,128.833 -0.5,125.5 Z"/></g>
<g><path style="opacity:0.416" fill="#99430a" d="M 276.5,92.5 C 277.869,94.6915 278.869,97.0248 279.5,99.5C 279.5,103.167 279.5,106.833 279.5,110.5C 277.56,115.596 277.56,120.596 279.5,125.5C 279.5,128.833 279.5,132.167 279.5,135.5C 272.969,143.156 271.303,151.823 274.5,161.5C 269.723,152.653 270.557,144.32 277,136.5C 278.722,131.678 278.556,127.012 276.5,122.5C 277.205,115.173 277.372,107.84 277,100.5C 276.722,101.416 276.222,102.082 275.5,102.5C 275.833,99.1667 276.167,95.8333 276.5,92.5 Z"/></g>
<g><path style="opacity:1" fill="#0763aa" d="M 190.5,182.5 C 188.833,182.5 187.167,182.5 185.5,182.5C 185.891,172.767 185.391,163.1 184,153.5C 182.349,147.862 179.016,143.529 174,140.5C 170.333,133.833 166.667,127.167 163,120.5C 162.192,118.577 161.692,116.577 161.5,114.5C 162.655,111.989 163.322,109.322 163.5,106.5C 163.5,106.167 163.5,105.833 163.5,105.5C 166.258,99.566 167.091,93.2327 166,86.5C 164.806,84.3766 164.14,82.0432 164,79.5C 152.344,68.4695 138.844,65.6362 123.5,71C 121.627,73.2089 119.46,75.0422 117,76.5C 115.915,78.373 114.582,80.0397 113,81.5C 112.049,85.0266 110.716,88.3599 109,91.5C 108.174,96.5893 108.508,101.589 110,106.5C 115.452,112.63 115.785,118.963 111,125.5C 109.995,132.507 107.328,138.84 103,144.5C 98.6156,147.217 95.2823,150.884 93,155.5C 92.5002,164.494 92.3336,173.494 92.5,182.5C 90.8333,182.5 89.1667,182.5 87.5,182.5C 87.7487,170.763 88.582,159.096 90,147.5C 93.6977,144.462 97.3644,141.462 101,138.5C 103.972,131.25 107.139,124.084 110.5,117C 109.5,115.333 108.5,113.667 107.5,112C 105.028,101.882 104.861,91.7152 107,81.5C 109.528,78.5886 111.695,75.4219 113.5,72C 116.915,71.5943 119.582,69.9277 121.5,67C 136.546,62.5595 150.712,64.3928 164,72.5C 164.894,75.3924 166.56,77.7257 169,79.5C 169.935,84.0355 171.435,88.3688 173.5,92.5C 173.293,95.3959 173.127,98.3959 173,101.5C 171.401,106.308 169.235,110.808 166.5,115C 168.056,118.621 170.223,121.788 173,124.5C 173.521,127.874 174.854,130.874 177,133.5C 177.494,135.134 177.66,136.801 177.5,138.5C 182.33,139.161 185.497,141.828 187,146.5C 188.923,158.469 190.09,170.469 190.5,182.5 Z"/></g>
<g><path style="opacity:1" fill="#ae2124" d="M 109.5,141.5 C 116.264,150.226 125.264,155.392 136.5,157C 132.833,157.667 129.167,157.667 125.5,157C 119.713,153.541 114.213,149.708 109,145.5C 108.5,145.667 108,145.833 107.5,146C 109.557,147.719 111.224,149.719 112.5,152C 112.257,152.902 111.923,153.735 111.5,154.5C 110.5,153.833 109.5,153.167 108.5,152.5C 107.313,150.025 105.313,149.025 102.5,149.5C 104.862,146.808 107.196,144.141 109.5,141.5 Z"/></g>
<g><path style="opacity:1" fill="#d92126" d="M 153.5,118.5 C 153.833,118.5 154.167,118.5 154.5,118.5C 154.34,120.199 154.506,121.866 155,123.5C 156.113,124.711 157.28,124.711 158.5,123.5C 159.126,130.352 158.126,137.018 155.5,143.5C 156.868,144.594 158.035,144.26 159,142.5C 160.444,138.589 162.611,135.256 165.5,132.5C 167.664,134.822 169.331,137.489 170.5,140.5C 171.936,143.273 170.936,144.773 167.5,145C 162.533,150.969 157.199,156.635 151.5,162C 145.958,165.301 139.958,166.301 133.5,165C 126.221,162.689 119.221,159.855 112.5,156.5C 112.167,155.833 111.833,155.167 111.5,154.5C 111.923,153.735 112.257,152.902 112.5,152C 111.224,149.719 109.557,147.719 107.5,146C 108,145.833 108.5,145.667 109,145.5C 114.213,149.708 119.713,153.541 125.5,157C 129.167,157.667 132.833,157.667 136.5,157C 125.264,155.392 116.264,150.226 109.5,141.5C 109.759,138.728 110.759,136.395 112.5,134.5C 114.711,136.544 116.711,138.877 118.5,141.5C 120.256,139.446 120.59,137.279 119.5,135C 121.391,135.763 123.391,136.597 125.5,137.5C 125.045,134.797 124.378,132.13 123.5,129.5C 123.931,127.234 125.264,125.734 127.5,125C 127.499,123.601 127.165,122.101 126.5,120.5C 126.833,120.167 127.167,119.833 127.5,119.5C 129.196,122.511 131.196,125.177 133.5,127.5C 129.736,135.55 127.736,143.883 127.5,152.5C 129.107,150.083 130.107,147.416 130.5,144.5C 132.892,141.402 135.058,138.069 137,134.5C 142.696,130.632 146.196,125.298 147.5,118.5C 147.833,118.167 148.167,117.833 148.5,117.5C 148.833,118.667 149.167,119.833 149.5,121C 148.71,123.582 148.71,126.082 149.5,128.5C 150.799,127.91 151.632,126.91 152,125.5C 152.44,123.134 152.94,120.801 153.5,118.5 Z"/></g>
<g><path style="opacity:1" fill="#ac2526" d="M 154.5,118.5 C 161.011,120.823 164.678,125.49 165.5,132.5C 162.611,135.256 160.444,138.589 159,142.5C 158.035,144.26 156.868,144.594 155.5,143.5C 158.126,137.018 159.126,130.352 158.5,123.5C 157.28,124.711 156.113,124.711 155,123.5C 154.506,121.866 154.34,120.199 154.5,118.5 Z"/></g>
<g><path style="opacity:1" fill="#bd2325" d="M 133.5,127.5 C 131.196,125.177 129.196,122.511 127.5,119.5C 127.167,119.833 126.833,120.167 126.5,120.5C 127.165,122.101 127.499,123.601 127.5,125C 125.264,125.734 123.931,127.234 123.5,129.5C 124.378,132.13 125.045,134.797 125.5,137.5C 123.391,136.597 121.391,135.763 119.5,135C 120.59,137.279 120.256,139.446 118.5,141.5C 116.711,138.877 114.711,136.544 112.5,134.5C 113.747,126.283 118.081,120.617 125.5,117.5C 127.833,117.167 129.167,115.833 129.5,113.5C 130.268,112.737 130.768,111.737 131,110.5C 133.151,113.651 135.651,116.484 138.5,119C 136.94,121.963 135.273,124.796 133.5,127.5 Z"/></g>
<g><path style="opacity:1" fill="#d99f21" d="M 145.5,111.5 C 139.135,121.895 134.135,132.895 130.5,144.5C 130.107,147.416 129.107,150.083 127.5,152.5C 127.736,143.883 129.736,135.55 133.5,127.5C 135.273,124.796 136.94,121.963 138.5,119C 135.651,116.484 133.151,113.651 131,110.5C 130.768,111.737 130.268,112.737 129.5,113.5C 129.137,109.113 128.471,104.78 127.5,100.5C 127.507,98.6307 127.84,96.964 128.5,95.5C 128.335,98.5184 128.502,101.518 129,104.5C 129.208,100.082 129.874,95.749 131,91.5C 134.771,87.2119 139.271,86.3786 144.5,89C 148.125,96.2454 148.458,103.745 145.5,111.5 Z"/></g>
<g><path style="opacity:1" fill="#a62121" d="M 145.5,111.5 C 146.167,112.167 146.833,112.833 147.5,113.5C 148.048,116.084 149.715,117.084 152.5,116.5C 152.833,117.167 153.167,117.833 153.5,118.5C 152.94,120.801 152.44,123.134 152,125.5C 151.632,126.91 150.799,127.91 149.5,128.5C 148.71,126.082 148.71,123.582 149.5,121C 149.167,119.833 148.833,118.667 148.5,117.5C 148.167,117.833 147.833,118.167 147.5,118.5C 146.196,125.298 142.696,130.632 137,134.5C 135.058,138.069 132.892,141.402 130.5,144.5C 134.135,132.895 139.135,121.895 145.5,111.5 Z"/></g>
<g><path style="opacity:1" fill="#f0e619" d="M 163.5,105.5 C 163.5,105.833 163.5,106.167 163.5,106.5C 161.983,106.511 160.816,107.177 160,108.5C 159.388,112.946 156.888,115.612 152.5,116.5C 149.715,117.084 148.048,116.084 147.5,113.5C 148.386,108.334 149.386,103.167 150.5,98C 150.36,88.5253 145.693,83.8587 136.5,84C 131.617,86.3693 128.95,90.2027 128.5,95.5C 127.84,96.964 127.507,98.6307 127.5,100.5C 128.471,104.78 129.137,109.113 129.5,113.5C 129.167,115.833 127.833,117.167 125.5,117.5C 120.388,117.383 118.055,114.716 118.5,109.5C 117.178,109.67 116.011,109.337 115,108.5C 114.854,104.445 114.02,100.612 112.5,97C 112.933,95.072 113.6,93.2387 114.5,91.5C 113.772,89.8453 113.605,88.1786 114,86.5C 116.522,84.1132 118.355,81.2798 119.5,78C 123.114,78.034 125.447,76.3673 126.5,73C 130.401,72.894 134.068,72.0607 137.5,70.5C 140.453,72.5883 143.62,72.9216 147,71.5C 148.82,72.6039 150.32,74.1039 151.5,76C 153.473,76.4955 155.473,76.6621 157.5,76.5C 157.017,80.5769 158.684,82.9103 162.5,83.5C 162.031,87.9164 163.031,91.9164 165.5,95.5C 163.82,98.5709 163.153,101.904 163.5,105.5 Z"/></g>
<g><path style="opacity:1" fill="#e49d54" d="M 143.5,95.5 C 144.787,96.8714 145.453,98.7047 145.5,101C 145.261,106.151 143.595,110.817 140.5,115C 135.32,113.206 132.654,109.372 132.5,103.5C 134.717,104.369 137.05,104.702 139.5,104.5C 139.336,101.813 139.503,99.146 140,96.5C 141.011,95.6634 142.178,95.33 143.5,95.5 Z"/></g>
<g><path style="opacity:1" fill="#c44925" d="M 147.5,113.5 C 146.833,112.833 146.167,112.167 145.5,111.5C 148.458,103.745 148.125,96.2454 144.5,89C 139.271,86.3786 134.771,87.2119 131,91.5C 129.874,95.749 129.208,100.082 129,104.5C 128.502,101.518 128.335,98.5184 128.5,95.5C 128.95,90.2027 131.617,86.3693 136.5,84C 145.693,83.8587 150.36,88.5253 150.5,98C 149.386,103.167 148.386,108.334 147.5,113.5 Z"/></g>
<g><path style="opacity:1" fill="#e9c682" d="M 143.5,95.5 C 142.178,95.33 141.011,95.6634 140,96.5C 139.503,99.146 139.336,101.813 139.5,104.5C 137.05,104.702 134.717,104.369 132.5,103.5C 130.18,93.4947 133.846,89.4947 143.5,91.5C 143.5,92.8333 143.5,94.1667 143.5,95.5 Z"/></g>
<g><path style="opacity:1" fill="#de9b85" d="M 177.5,152.5 C 177.634,154.292 177.301,155.958 176.5,157.5C 173.833,157.5 171.167,157.5 168.5,157.5C 168.5,156.5 168.5,155.5 168.5,154.5C 170.804,151.387 173.804,150.72 177.5,152.5 Z"/></g>
<g><path style="opacity:1" fill="#f5f0ef" d="M 175.5,146.5 C 176.492,146.328 177.158,146.662 177.5,147.5C 177.703,149.044 178.37,150.378 179.5,151.5C 179.043,152.298 178.376,152.631 177.5,152.5C 173.804,150.72 170.804,151.387 168.5,154.5C 163.989,165.989 156.322,174.822 145.5,181C 138.82,181.474 132.154,181.307 125.5,180.5C 121.231,177.419 117.398,173.753 114,169.5C 112.778,163.895 110.611,158.728 107.5,154C 107.57,153.235 107.903,152.735 108.5,152.5C 109.5,153.167 110.5,153.833 111.5,154.5C 111.833,155.167 112.167,155.833 112.5,156.5C 120.627,167.06 131.294,171.227 144.5,169C 153.751,163.084 161.751,155.751 168.5,147C 170.81,146.503 173.143,146.337 175.5,146.5 Z"/></g>
<g><path style="opacity:1" fill="#cfc3c7" d="M 177.5,147.5 C 178.458,147.953 179.292,148.619 180,149.5C 181.497,160.808 182.664,172.141 183.5,183.5C 184.055,193.491 184.388,203.491 184.5,213.5C 183.434,208.681 182.6,203.681 182,198.5C 181.5,188.172 181.334,177.839 181.5,167.5C 179.019,167.323 177.186,168.323 176,170.5C 174.021,174.788 172.521,179.122 171.5,183.5C 171.116,178.663 171.783,173.997 173.5,169.5C 173.167,169.167 172.833,168.833 172.5,168.5C 169.144,170.373 165.81,171.039 162.5,170.5C 157.347,176.575 151.014,180.908 143.5,183.5C 143.993,185.806 144.326,188.139 144.5,190.5C 145.161,195.284 144.161,199.618 141.5,203.5C 140.675,204.386 139.675,204.719 138.5,204.5C 138.666,200.486 138.499,196.486 138,192.5C 137.617,191.944 137.117,191.611 136.5,191.5C 135.79,189.254 135.29,186.92 135,184.5C 134.617,183.944 134.117,183.611 133.5,183.5C 130.364,183.397 127.698,182.397 125.5,180.5C 132.154,181.307 138.82,181.474 145.5,181C 156.322,174.822 163.989,165.989 168.5,154.5C 168.5,155.5 168.5,156.5 168.5,157.5C 166.881,161.069 165.548,164.736 164.5,168.5C 166.527,168.662 168.527,168.495 170.5,168C 172.905,164.685 174.905,161.185 176.5,157.5C 177.301,155.958 177.634,154.292 177.5,152.5C 178.376,152.631 179.043,152.298 179.5,151.5C 178.37,150.378 177.703,149.044 177.5,147.5 Z"/></g>
<g><path style="opacity:1" fill="#aa2728" d="M 170.5,140.5 C 172.515,142.219 174.181,144.219 175.5,146.5C 173.143,146.337 170.81,146.503 168.5,147C 161.751,155.751 153.751,163.084 144.5,169C 131.294,171.227 120.627,167.06 112.5,156.5C 119.221,159.855 126.221,162.689 133.5,165C 139.958,166.301 145.958,165.301 151.5,162C 157.199,156.635 162.533,150.969 167.5,145C 170.936,144.773 171.936,143.273 170.5,140.5 Z"/></g>
<g><path style="opacity:1" fill="#92627e" d="M 168.5,157.5 C 171.167,157.5 173.833,157.5 176.5,157.5C 174.905,161.185 172.905,164.685 170.5,168C 168.527,168.495 166.527,168.662 164.5,168.5C 165.548,164.736 166.881,161.069 168.5,157.5 Z"/></g>
<g><path style="opacity:1" fill="#8c2121" d="M 171.5,183.5 C 171.167,183.5 170.833,183.5 170.5,183.5C 170.766,181.653 170.432,180.986 169.5,181.5C 167.665,185.334 166.332,189.334 165.5,193.5C 164.045,185.986 163.045,178.319 162.5,170.5C 165.81,171.039 169.144,170.373 172.5,168.5C 172.833,168.833 173.167,169.167 173.5,169.5C 171.783,173.997 171.116,178.663 171.5,183.5 Z"/></g>
<g><path style="opacity:1" fill="#dacfcf" d="M 102.5,149.5 C 105.313,149.025 107.313,150.025 108.5,152.5C 107.903,152.735 107.57,153.235 107.5,154C 110.611,158.728 112.778,163.895 114,169.5C 117.398,173.753 121.231,177.419 125.5,180.5C 124.833,180.5 124.167,180.5 123.5,180.5C 120.705,179.937 118.372,178.604 116.5,176.5C 116.047,175.542 115.381,174.708 114.5,174C 111.518,173.502 108.518,173.335 105.5,173.5C 108.719,192.032 110.719,210.698 111.5,229.5C 109.265,229.795 107.265,229.461 105.5,228.5C 106.5,228.5 107.5,228.5 108.5,228.5C 107.045,205.896 103.878,183.563 99,161.5C 98.2726,167.694 98.4393,173.86 99.5,180C 99.1667,180.833 98.8333,181.667 98.5,182.5C 97.7189,181.271 97.2189,179.938 97,178.5C 95.4841,194.804 95.1508,211.137 96,227.5C 97.3024,228.085 98.469,228.751 99.5,229.5C 97.8561,229.714 96.3561,229.38 95,228.5C 94.5001,213.504 94.3334,198.504 94.5,183.5C 95.3087,173.577 95.8087,163.577 96,153.5C 97.5707,151.077 99.7374,149.744 102.5,149.5 Z"/></g>
<g><path style="opacity:1" fill="#92628c" d="M 102.5,159.5 C 104.167,159.5 105.833,159.5 107.5,159.5C 107.987,163.474 109.32,167.141 111.5,170.5C 111.291,171.086 110.957,171.586 110.5,172C 108.527,172.495 106.527,172.662 104.5,172.5C 103.099,168.369 102.433,164.036 102.5,159.5 Z"/></g>
<g><path style="opacity:1" fill="#224472" d="M 163.5,106.5 C 163.322,109.322 162.655,111.989 161.5,114.5C 161.692,116.577 162.192,118.577 163,120.5C 166.667,127.167 170.333,133.833 174,140.5C 179.016,143.529 182.349,147.862 184,153.5C 185.391,163.1 185.891,172.767 185.5,182.5C 187.167,182.5 188.833,182.5 190.5,182.5C 211.5,182.5 232.5,182.5 253.5,182.5C 253.5,182.833 253.5,183.167 253.5,183.5C 232.167,183.5 210.833,183.5 189.5,183.5C 187.5,183.5 185.5,183.5 183.5,183.5C 182.664,172.141 181.497,160.808 180,149.5C 179.292,148.619 178.458,147.953 177.5,147.5C 177.158,146.662 176.492,146.328 175.5,146.5C 174.181,144.219 172.515,142.219 170.5,140.5C 169.331,137.489 167.664,134.822 165.5,132.5C 164.678,125.49 161.011,120.823 154.5,118.5C 154.167,118.5 153.833,118.5 153.5,118.5C 153.167,117.833 152.833,117.167 152.5,116.5C 156.888,115.612 159.388,112.946 160,108.5C 160.816,107.177 161.983,106.511 163.5,106.5 Z"/></g>
<g><path style="opacity:1" fill="#fdd308" d="M 276.5,189.5 C 272.745,191.516 268.745,191.849 264.5,190.5C 261.887,190.643 259.553,191.31 257.5,192.5C 257.5,189.167 257.5,185.833 257.5,182.5C 263.412,180.544 269.745,179.877 276.5,180.5C 276.5,183.5 276.5,186.5 276.5,189.5 Z"/></g>
<g><path style="opacity:1" fill="#89288c" d="M 25.5,183.5 C 25.8333,183.5 26.1667,183.5 26.5,183.5C 47.5,183.5 68.5,183.5 89.5,183.5C 89.3334,197.171 89.5001,210.837 90,224.5C 90.1922,226.577 90.6922,228.577 91.5,230.5C 93.1461,231.779 94.3128,233.445 95,235.5C 95.3905,242.484 96.8905,249.151 99.5,255.5C 99.3354,258.518 99.502,261.518 100,264.5C 103.105,274.121 106.105,283.788 109,293.5C 109.465,294.931 110.299,296.097 111.5,297C 114.79,297.253 117.79,298.253 120.5,300C 133.5,300.667 146.5,300.667 159.5,300C 165.719,299.574 171.219,297.408 176,293.5C 177.88,279.174 179.713,264.84 181.5,250.5C 184.808,241.832 187.308,232.832 189,223.5C 188.645,210.099 188.812,196.765 189.5,183.5C 210.833,183.5 232.167,183.5 253.5,183.5C 253.199,191.586 253.533,199.586 254.5,207.5C 252.241,214.971 250.908,222.638 250.5,230.5C 248.411,234.501 247.078,238.835 246.5,243.5C 243.597,248.977 240.93,254.643 238.5,260.5C 234.199,266.477 229.865,272.477 225.5,278.5C 218.891,282.776 212.891,287.776 207.5,293.5C 205.167,295.5 202.833,297.5 200.5,299.5C 199.5,299.5 198.5,299.5 197.5,299.5C 194.378,300.561 191.378,301.895 188.5,303.5C 183.167,305.167 177.833,306.833 172.5,308.5C 170.597,308.796 168.93,309.463 167.5,310.5C 160.864,311.448 154.197,312.115 147.5,312.5C 132.589,313.407 117.922,312.073 103.5,308.5C 102.791,307.596 101.791,307.263 100.5,307.5C 96.8631,305.253 92.8631,303.92 88.5,303.5C 87.0351,302.263 85.3684,301.263 83.5,300.5C 83.1667,300.5 82.8333,300.5 82.5,300.5C 81.4151,298.418 79.9151,298.084 78,299.5C 73.9644,295.296 69.7978,291.296 65.5,287.5C 61.347,283.925 57.0137,280.591 52.5,277.5C 49.4884,273.462 46.4884,269.462 43.5,265.5C 41.0843,260.333 38.4176,255.333 35.5,250.5C 34.2042,245.607 32.5376,240.94 30.5,236.5C 29.9175,232.287 28.9175,228.287 27.5,224.5C 27.2601,220.394 26.5934,216.394 25.5,212.5C 25.4828,210.435 25.1495,208.435 24.5,206.5C 25.492,199.018 25.8254,191.352 25.5,183.5 Z"/></g>
<g><path style="opacity:0.055" fill="#7b6966" d="M 254.5,175.5 C 254.433,176.959 254.766,178.292 255.5,179.5C 254.167,187.5 254.167,195.5 255.5,203.5C 255.768,205.099 255.434,206.432 254.5,207.5C 253.533,199.586 253.199,191.586 253.5,183.5C 253.5,183.167 253.5,182.833 253.5,182.5C 253.198,179.941 253.532,177.607 254.5,175.5 Z"/></g>
<g><path style="opacity:0.286" fill="#9c3c05" d="M 274.5,162.5 C 278.398,174.275 279.398,186.275 277.5,198.5C 277.666,192.158 277.5,185.825 277,179.5C 275.36,173.944 274.527,168.278 274.5,162.5 Z"/></g>
<g><path style="opacity:0.035" fill="#848582" d="M 24.5,175.5 C 25.4731,177.948 25.8064,180.615 25.5,183.5C 25.8254,191.352 25.492,199.018 24.5,206.5C 24.5,205.167 24.5,203.833 24.5,202.5C 24.8254,194.648 24.492,186.982 23.5,179.5C 24.2341,178.292 24.5674,176.959 24.5,175.5 Z"/></g>
<g><path style="opacity:1" fill="#a12326" d="M 116.5,176.5 C 115.057,183.617 114.224,190.951 114,198.5C 113.246,217.517 113.412,236.517 114.5,255.5C 113.167,254.167 111.833,252.833 110.5,251.5C 111.043,251.44 111.376,251.107 111.5,250.5C 110.708,244.551 110.208,238.551 110,232.5C 107.541,231.351 105.041,231.351 102.5,232.5C 102.5,231.5 102.5,230.5 102.5,229.5C 103.209,228.596 104.209,228.263 105.5,228.5C 107.265,229.461 109.265,229.795 111.5,229.5C 110.719,210.698 108.719,192.032 105.5,173.5C 108.518,173.335 111.518,173.502 114.5,174C 115.381,174.708 116.047,175.542 116.5,176.5 Z"/></g>
<g><path style="opacity:0.647" fill="#ae5c06" d="M 254.5,174.5 C 256.098,176.857 257.098,179.523 257.5,182.5C 257.5,185.833 257.5,189.167 257.5,192.5C 257.841,196.16 257.175,199.493 255.5,202.5C 256.672,194.844 256.672,187.178 255.5,179.5C 254.766,178.292 254.433,176.959 254.5,175.5C 254.5,175.167 254.5,174.833 254.5,174.5 Z"/></g>
<g><path style="opacity:1" fill="#f4f3f1" d="M 105.5,228.5 C 104.209,228.263 103.209,228.596 102.5,229.5C 101.5,229.5 100.5,229.5 99.5,229.5C 98.469,228.751 97.3024,228.085 96,227.5C 95.1508,211.137 95.4841,194.804 97,178.5C 97.2189,179.938 97.7189,181.271 98.5,182.5C 98.8333,181.667 99.1667,180.833 99.5,180C 98.4393,173.86 98.2726,167.694 99,161.5C 103.878,183.563 107.045,205.896 108.5,228.5C 107.5,228.5 106.5,228.5 105.5,228.5 Z"/></g>
<g><path style="opacity:1" fill="#fcde04" d="M 22.5,199.5 C 22.4095,202.152 23.0762,204.485 24.5,206.5C 25.1495,208.435 25.4828,210.435 25.5,212.5C 23.8714,210.142 22.7048,207.476 22,204.5C 16.3333,205.833 10.6667,205.833 5,204.5C 4.53566,205.094 4.36899,205.761 4.5,206.5C 3.46899,204.039 2.80233,201.373 2.5,198.5C 2.5,192.5 2.5,186.5 2.5,180.5C 8.83333,180.5 15.1667,180.5 21.5,180.5C 21.1765,187.022 21.5098,193.355 22.5,199.5 Z"/></g>
<g><path style="opacity:1" fill="#fded01" d="M 25.5,212.5 C 26.5934,216.394 27.2601,220.394 27.5,224.5C 27.5,226.167 27.5,227.833 27.5,229.5C 22.4053,229.221 17.4053,229.555 12.5,230.5C 11.675,228.19 10.3417,226.19 8.5,224.5C 6.58119,218.651 5.24786,212.651 4.5,206.5C 4.36899,205.761 4.53566,205.094 5,204.5C 10.6667,205.833 16.3333,205.833 22,204.5C 22.7048,207.476 23.8714,210.142 25.5,212.5 Z"/></g>
<g><path style="opacity:1" fill="#fce702" d="M 276.5,189.5 C 276.5,192.5 276.5,195.5 276.5,198.5C 275.756,202.119 275.423,205.785 275.5,209.5C 272.733,215.615 270.233,221.948 268,228.5C 265.978,233.223 263.478,237.557 260.5,241.5C 256.6,240.57 252.6,240.237 248.5,240.5C 249.374,237.211 250.041,233.877 250.5,230.5C 250.908,222.638 252.241,214.971 254.5,207.5C 255.434,206.432 255.768,205.099 255.5,203.5C 255.5,203.167 255.5,202.833 255.5,202.5C 257.175,199.493 257.841,196.16 257.5,192.5C 259.553,191.31 261.887,190.643 264.5,190.5C 268.745,191.849 272.745,191.516 276.5,189.5 Z"/></g>
<g><path style="opacity:0.557" fill="#a65604" d="M 276.5,198.5 C 276.833,198.5 277.167,198.5 277.5,198.5C 277.57,202.425 276.903,206.091 275.5,209.5C 275.423,205.785 275.756,202.119 276.5,198.5 Z"/></g>
<g><path style="opacity:0.275" fill="#852e08" d="M 25.5,169.5 C 25.4828,171.565 25.1495,173.565 24.5,175.5C 24.5674,176.959 24.2341,178.292 23.5,179.5C 23.1746,187.352 23.508,195.018 24.5,202.5C 24.5,203.833 24.5,205.167 24.5,206.5C 23.0762,204.485 22.4095,202.152 22.5,199.5C 22.3336,191.826 22.5003,184.159 23,176.5C 23.3903,173.896 24.2237,171.562 25.5,169.5 Z"/></g>
<g><path style="opacity:1" fill="#f2eeee" d="M 184.5,213.5 C 185.038,218.467 184.371,223.134 182.5,227.5C 181.5,227.5 180.5,227.5 179.5,227.5C 177.442,228.933 175.108,229.6 172.5,229.5C 170.519,216.542 169.852,203.209 170.5,189.5C 170.5,187.5 170.5,185.5 170.5,183.5C 170.833,183.5 171.167,183.5 171.5,183.5C 172.521,179.122 174.021,174.788 176,170.5C 177.186,168.323 179.019,167.323 181.5,167.5C 181.334,177.839 181.5,188.172 182,198.5C 182.6,203.681 183.434,208.681 184.5,213.5 Z"/></g>
<g><path style="opacity:0.373" fill="#974909" d="M 1.5,198.5 C 1.83333,198.5 2.16667,198.5 2.5,198.5C 2.80233,201.373 3.46899,204.039 4.5,206.5C 5.24786,212.651 6.58119,218.651 8.5,224.5C 4.57211,216.365 2.23878,207.698 1.5,198.5 Z"/></g>
<g><path style="opacity:0.412" fill="#9c4a06" d="M 275.5,209.5 C 272.52,223.452 266.854,236.119 258.5,247.5C 258.5,247.167 258.5,246.833 258.5,246.5C 259.441,244.95 260.107,243.284 260.5,241.5C 263.478,237.557 265.978,233.223 268,228.5C 270.233,221.948 272.733,215.615 275.5,209.5 Z"/></g>
<g><path style="opacity:1" fill="#221f5c" d="M 162.5,170.5 C 163.045,178.319 164.045,185.986 165.5,193.5C 166.143,201.15 166.477,208.817 166.5,216.5C 166.179,236.909 166.512,257.242 167.5,277.5C 167.557,278.609 167.89,279.609 168.5,280.5C 169.578,283.402 170.244,286.402 170.5,289.5C 166.841,290.087 163.341,291.087 160,292.5C 157.031,291.562 154.031,290.562 151,289.5C 148.914,290.418 146.747,291.085 144.5,291.5C 143.72,257.377 143.72,223.711 144.5,190.5C 144.326,188.139 143.993,185.806 143.5,183.5C 151.014,180.908 157.347,176.575 162.5,170.5 Z"/></g>
<g><path style="opacity:1" fill="#292c76" d="M 153.5,181.5 C 154.833,181.5 156.167,181.5 157.5,181.5C 161.184,201.025 162.184,220.692 160.5,240.5C 158.372,233.193 156.372,225.859 154.5,218.5C 153.501,231.483 153.168,244.483 153.5,257.5C 151.876,257.64 150.71,256.973 150,255.5C 149.214,245.139 149.38,234.806 150.5,224.5C 148.947,211.22 148.28,197.887 148.5,184.5C 150.933,184.727 152.599,183.727 153.5,181.5 Z"/></g>
<g><path style="opacity:1" fill="#b32525" d="M 170.5,183.5 C 170.5,185.5 170.5,187.5 170.5,189.5C 169.504,202.99 169.171,216.656 169.5,230.5C 170.791,230.737 171.791,230.404 172.5,229.5C 175.108,229.6 177.442,228.933 179.5,227.5C 180.364,237.755 176.864,246.088 169,252.5C 168.109,255.934 168.609,259.101 170.5,262C 170.022,263.642 169.022,264.809 167.5,265.5C 167.83,248.991 167.496,232.658 166.5,216.5C 166.477,208.817 166.143,201.15 165.5,193.5C 166.332,189.334 167.665,185.334 169.5,181.5C 170.432,180.986 170.766,181.653 170.5,183.5 Z"/></g>
<g><path style="opacity:1" fill="#f9da09" d="M 27.5,224.5 C 28.9175,228.287 29.9175,232.287 30.5,236.5C 30.8511,238.869 31.0178,241.203 31,243.5C 27.1675,242.2 23.3342,242.2 19.5,243.5C 16.4074,239.653 14.0741,235.32 12.5,230.5C 17.4053,229.555 22.4053,229.221 27.5,229.5C 27.5,227.833 27.5,226.167 27.5,224.5 Z"/></g>
<g><path style="opacity:0.302" fill="#974307" d="M 8.5,224.5 C 10.3417,226.19 11.675,228.19 12.5,230.5C 14.0741,235.32 16.4074,239.653 19.5,243.5C 20.758,245.687 21.758,248.02 22.5,250.5C 16.2965,242.766 11.6298,234.099 8.5,224.5 Z"/></g>
<g><path style="opacity:1" fill="#2a2c77" d="M 123.5,180.5 C 124.167,180.5 124.833,180.5 125.5,180.5C 127.698,182.397 130.364,183.397 133.5,183.5C 132.364,192.088 132.198,200.755 133,209.5C 135.372,221.434 137.372,233.434 139,245.5C 139.667,236.167 139.667,226.833 139,217.5C 137.805,208.95 136.972,200.283 136.5,191.5C 137.117,191.611 137.617,191.944 138,192.5C 138.499,196.486 138.666,200.486 138.5,204.5C 139.675,204.719 140.675,204.386 141.5,203.5C 144.161,199.618 145.161,195.284 144.5,190.5C 143.72,223.711 143.72,257.377 144.5,291.5C 143.866,292.947 142.699,293.613 141,293.5C 139.93,293.472 139.097,293.139 138.5,292.5C 137.865,276.508 137.365,260.508 137,244.5C 136.404,239.35 135.237,234.35 133.5,229.5C 132.914,229.709 132.414,230.043 132,230.5C 130.594,238.275 128.76,245.941 126.5,253.5C 122.089,231.962 121.422,210.296 124.5,188.5C 124.449,185.747 124.116,183.08 123.5,180.5 Z"/></g>
<g><path style="opacity:1" fill="#f6c30e" d="M 250.5,230.5 C 250.041,233.877 249.374,237.211 248.5,240.5C 252.6,240.237 256.6,240.57 260.5,241.5C 260.107,243.284 259.441,244.95 258.5,246.5C 257.127,246.343 255.793,246.51 254.5,247C 254.833,247.333 255.167,247.667 255.5,248C 252.167,248.667 248.833,248.667 245.5,248C 246.38,246.644 246.714,245.144 246.5,243.5C 247.078,238.835 248.411,234.501 250.5,230.5 Z"/></g>
<g><path style="opacity:1" fill="#f4b412" d="M 30.5,236.5 C 32.5376,240.94 34.2042,245.607 35.5,250.5C 34.1286,251.787 32.2953,252.453 30,252.5C 27.1755,252.697 24.6755,252.031 22.5,250.5C 21.758,248.02 20.758,245.687 19.5,243.5C 23.3342,242.2 27.1675,242.2 31,243.5C 31.0178,241.203 30.8511,238.869 30.5,236.5 Z"/></g>
<g><path style="opacity:1" fill="#f3a513" d="M 246.5,243.5 C 246.714,245.144 246.38,246.644 245.5,248C 248.833,248.667 252.167,248.667 255.5,248C 255.167,247.667 254.833,247.333 254.5,247C 255.793,246.51 257.127,246.343 258.5,246.5C 258.5,246.833 258.5,247.167 258.5,247.5C 255.34,251.148 252.673,255.148 250.5,259.5C 249.185,260.476 247.852,261.476 246.5,262.5C 244.167,261.167 241.833,261.167 239.5,262.5C 238.702,262.043 238.369,261.376 238.5,260.5C 240.93,254.643 243.597,248.977 246.5,243.5 Z"/></g>
<g><path style="opacity:0.224" fill="#8a2b07" d="M 258.5,247.5 C 256.822,252.197 254.156,256.197 250.5,259.5C 252.673,255.148 255.34,251.148 258.5,247.5 Z"/></g>
<g><path style="opacity:1" fill="#241f5d" d="M 116.5,176.5 C 118.372,178.604 120.705,179.937 123.5,180.5C 124.116,183.08 124.449,185.747 124.5,188.5C 121.422,210.296 122.089,231.962 126.5,253.5C 128.76,245.941 130.594,238.275 132,230.5C 132.414,230.043 132.914,229.709 133.5,229.5C 135.237,234.35 136.404,239.35 137,244.5C 137.365,260.508 137.865,276.508 138.5,292.5C 135.288,291.196 131.955,290.196 128.5,289.5C 126.067,291.047 123.401,292.047 120.5,292.5C 118.045,292.372 116.045,291.372 114.5,289.5C 113.722,288.844 113.056,288.011 112.5,287C 114.013,285.121 114.679,282.954 114.5,280.5C 114.5,279.833 114.5,279.167 114.5,278.5C 114.5,271.833 114.5,265.167 114.5,258.5C 114.5,257.5 114.5,256.5 114.5,255.5C 113.412,236.517 113.246,217.517 114,198.5C 114.224,190.951 115.057,183.617 116.5,176.5 Z"/></g>
<g><path style="opacity:1" fill="#e6751a" d="M 250.5,259.5 C 250.262,261.404 249.262,262.738 247.5,263.5C 244.705,265.751 242.372,268.418 240.5,271.5C 235.353,273.574 230.353,275.907 225.5,278.5C 229.865,272.477 234.199,266.477 238.5,260.5C 238.369,261.376 238.702,262.043 239.5,262.5C 241.833,261.167 244.167,261.167 246.5,262.5C 247.852,261.476 249.185,260.476 250.5,259.5 Z"/></g>
<g><path style="opacity:1" fill="#ef8b18" d="M 22.5,250.5 C 24.6755,252.031 27.1755,252.697 30,252.5C 32.2953,252.453 34.1286,251.787 35.5,250.5C 38.4176,255.333 41.0843,260.333 43.5,265.5C 40.6965,266.638 37.6965,266.805 34.5,266C 31.9688,262.642 29.3021,259.476 26.5,256.5C 24.6736,254.853 23.3403,252.853 22.5,250.5 Z"/></g>
<g><path style="opacity:1" fill="#602260" d="M 89.5,183.5 C 91.1667,183.5 92.8333,183.5 94.5,183.5C 94.3334,198.504 94.5001,213.504 95,228.5C 96.3561,229.38 97.8561,229.714 99.5,229.5C 98.9013,236.391 99.7346,243.058 102,249.5C 103.039,250.71 104.206,251.71 105.5,252.5C 105.5,255.833 105.5,259.167 105.5,262.5C 105.151,265.99 106.651,268.323 110,269.5C 110.128,272.514 110.128,275.514 110,278.5C 111.11,280.037 112.61,280.703 114.5,280.5C 114.679,282.954 114.013,285.121 112.5,287C 113.056,288.011 113.722,288.844 114.5,289.5C 114.062,289.435 113.728,289.601 113.5,290C 116.628,294.257 120.628,295.424 125.5,293.5C 126.134,294.947 127.301,295.613 129,295.5C 131.009,295.242 132.843,294.575 134.5,293.5C 138.5,294.833 142.5,294.833 146.5,293.5C 149.617,296.09 152.617,296.09 155.5,293.5C 157.342,293.723 159.175,294.057 161,294.5C 164.302,292.77 167.802,291.437 171.5,290.5C 171.833,289.833 172.167,289.167 172.5,288.5C 171.485,285.724 170.485,283.057 169.5,280.5C 172.946,276.385 173.279,272.051 170.5,267.5C 171.952,266.06 172.952,264.394 173.5,262.5C 174.482,259.038 174.815,255.371 174.5,251.5C 180.226,244.626 182.893,236.626 182.5,227.5C 184.371,223.134 185.038,218.467 184.5,213.5C 184.388,203.491 184.055,193.491 183.5,183.5C 185.5,183.5 187.5,183.5 189.5,183.5C 188.812,196.765 188.645,210.099 189,223.5C 187.308,232.832 184.808,241.832 181.5,250.5C 179.933,251.681 179.099,253.347 179,255.5C 177.666,266.847 176.333,278.18 175,289.5C 172.14,294.847 167.64,297.514 161.5,297.5C 148.179,298.666 134.846,298.833 121.5,298C 116.087,297.864 112.253,295.364 110,290.5C 108.402,282.377 106.402,274.377 104,266.5C 102.437,262.775 100.937,259.108 99.5,255.5C 96.8905,249.151 95.3905,242.484 95,235.5C 94.3128,233.445 93.1461,231.779 91.5,230.5C 90.6922,228.577 90.1922,226.577 90,224.5C 89.5001,210.837 89.3334,197.171 89.5,183.5 Z"/></g>
<g><path style="opacity:1" fill="#c92b24" d="M 105.5,252.5 C 113.398,255.55 113.398,258.883 105.5,262.5C 105.5,259.167 105.5,255.833 105.5,252.5 Z"/></g>
<g><path style="opacity:1" fill="#d92526" d="M 174.5,251.5 C 174.815,255.371 174.482,259.038 173.5,262.5C 172.977,259.972 171.977,257.639 170.5,255.5C 170.848,253.152 172.182,251.818 174.5,251.5 Z"/></g>
<g><path style="opacity:1" fill="#812030" d="M 166.5,216.5 C 167.496,232.658 167.83,248.991 167.5,265.5C 168.2,268.063 169.2,270.563 170.5,273C 170.101,274.981 169.101,276.481 167.5,277.5C 166.512,257.242 166.179,236.909 166.5,216.5 Z"/></g>
<g><path style="opacity:1" fill="#c72225" d="M 110.5,251.5 C 107.805,251.067 105.638,249.734 104,247.5C 102.675,242.599 102.175,237.599 102.5,232.5C 105.041,231.351 107.541,231.351 110,232.5C 110.208,238.551 110.708,244.551 111.5,250.5C 111.376,251.107 111.043,251.44 110.5,251.5 Z"/></g>
<g><path style="opacity:1" fill="#d19720" d="M 179.5,227.5 C 180.5,227.5 181.5,227.5 182.5,227.5C 182.893,236.626 180.226,244.626 174.5,251.5C 172.182,251.818 170.848,253.152 170.5,255.5C 171.977,257.639 172.977,259.972 173.5,262.5C 172.952,264.394 171.952,266.06 170.5,267.5C 173.279,272.051 172.946,276.385 169.5,280.5C 169.167,280.5 168.833,280.5 168.5,280.5C 167.89,279.609 167.557,278.609 167.5,277.5C 169.101,276.481 170.101,274.981 170.5,273C 169.2,270.563 168.2,268.063 167.5,265.5C 169.022,264.809 170.022,263.642 170.5,262C 168.609,259.101 168.109,255.934 169,252.5C 176.864,246.088 180.364,237.755 179.5,227.5 Z"/></g>
<g><path style="opacity:1" fill="#ecb1b6" d="M 170.5,189.5 C 169.852,203.209 170.519,216.542 172.5,229.5C 171.791,230.404 170.791,230.737 169.5,230.5C 169.171,216.656 169.504,202.99 170.5,189.5 Z"/></g>
<g><path style="opacity:1" fill="#1f1c56" d="M 133.5,183.5 C 134.117,183.611 134.617,183.944 135,184.5C 135.29,186.92 135.79,189.254 136.5,191.5C 136.972,200.283 137.805,208.95 139,217.5C 139.667,226.833 139.667,236.167 139,245.5C 137.372,233.434 135.372,221.434 133,209.5C 132.198,200.755 132.364,192.088 133.5,183.5 Z"/></g>
<g><path style="opacity:1" fill="#cb9124" d="M 99.5,229.5 C 100.5,229.5 101.5,229.5 102.5,229.5C 102.5,230.5 102.5,231.5 102.5,232.5C 102.175,237.599 102.675,242.599 104,247.5C 105.638,249.734 107.805,251.067 110.5,251.5C 111.833,252.833 113.167,254.167 114.5,255.5C 114.5,256.5 114.5,257.5 114.5,258.5C 112.188,260.146 110.188,262.146 108.5,264.5C 113.428,267.384 114.761,271.55 112.5,277C 112.836,278.03 113.503,278.53 114.5,278.5C 114.5,279.167 114.5,279.833 114.5,280.5C 112.61,280.703 111.11,280.037 110,278.5C 110.128,275.514 110.128,272.514 110,269.5C 106.651,268.323 105.151,265.99 105.5,262.5C 113.398,258.883 113.398,255.55 105.5,252.5C 104.206,251.71 103.039,250.71 102,249.5C 99.7346,243.058 98.9013,236.391 99.5,229.5 Z"/></g>
<g><path style="opacity:1" fill="#d56318" d="M 26.5,256.5 C 29.3021,259.476 31.9688,262.642 34.5,266C 37.6965,266.805 40.6965,266.638 43.5,265.5C 46.4884,269.462 49.4884,273.462 52.5,277.5C 47.9735,275.436 43.3068,273.769 38.5,272.5C 38.0825,271.778 37.4158,271.278 36.5,271C 33.1667,270.333 29.8333,270.333 26.5,271C 24.8446,272.444 24.178,274.278 24.5,276.5C 26.3464,276.222 27.6798,276.889 28.5,278.5C 27.9479,280.333 27.1145,282 26,283.5C 24.8647,283.273 23.698,282.94 22.5,282.5C 23.7287,281.719 25.062,281.219 26.5,281C 26.0183,279.992 25.8516,278.825 26,277.5C 24.4361,277.912 22.9361,278.245 21.5,278.5C 22.5147,270.537 26.848,267.204 34.5,268.5C 31.3893,264.736 28.7226,260.736 26.5,256.5 Z"/></g>
<g><path style="opacity:1" fill="#75277a" d="M 181.5,250.5 C 179.713,264.84 177.88,279.174 176,293.5C 171.219,297.408 165.719,299.574 159.5,300C 146.5,300.667 133.5,300.667 120.5,300C 117.79,298.253 114.79,297.253 111.5,297C 110.299,296.097 109.465,294.931 109,293.5C 106.105,283.788 103.105,274.121 100,264.5C 99.502,261.518 99.3354,258.518 99.5,255.5C 100.937,259.108 102.437,262.775 104,266.5C 106.402,274.377 108.402,282.377 110,290.5C 112.253,295.364 116.087,297.864 121.5,298C 134.846,298.833 148.179,298.666 161.5,297.5C 167.64,297.514 172.14,294.847 175,289.5C 176.333,278.18 177.666,266.847 179,255.5C 179.099,253.347 179.933,251.681 181.5,250.5 Z"/></g>
<g><path style="opacity:1" fill="#9e2829" d="M 114.5,258.5 C 114.5,265.167 114.5,271.833 114.5,278.5C 113.503,278.53 112.836,278.03 112.5,277C 114.761,271.55 113.428,267.384 108.5,264.5C 110.188,262.146 112.188,260.146 114.5,258.5 Z"/></g>
<g><path style="opacity:1" fill="#a9520c" d="M 247.5,263.5 C 246.952,265.394 245.952,267.06 244.5,268.5C 252.212,267.213 256.546,270.546 257.5,278.5C 256.057,279.335 255.057,280.668 254.5,282.5C 253.575,281.359 252.741,281.359 252,282.5C 250.991,280.975 250.491,279.308 250.5,277.5C 256.032,278.065 257.032,276.232 253.5,272C 249.741,270.393 246.074,270.226 242.5,271.5C 241.833,271.5 241.167,271.5 240.5,271.5C 242.372,268.418 244.705,265.751 247.5,263.5 Z"/></g>
<g><path style="opacity:1" fill="#e99713" d="M 38.5,272.5 C 36.8338,274.187 35.5005,276.187 34.5,278.5C 38.5283,279.555 39.5283,281.889 37.5,285.5C 35.549,285.773 34.049,285.107 33,283.5C 26.9522,283.371 25.1189,286.038 27.5,291.5C 23.2026,290.409 18.8692,289.409 14.5,288.5C 17.6629,285.683 19.9962,282.35 21.5,278.5C 22.9361,278.245 24.4361,277.912 26,277.5C 25.8516,278.825 26.0183,279.992 26.5,281C 25.062,281.219 23.7287,281.719 22.5,282.5C 23.698,282.94 24.8647,283.273 26,283.5C 27.1145,282 27.9479,280.333 28.5,278.5C 27.6798,276.889 26.3464,276.222 24.5,276.5C 24.178,274.278 24.8446,272.444 26.5,271C 29.8333,270.333 33.1667,270.333 36.5,271C 37.4158,271.278 38.0825,271.778 38.5,272.5 Z"/></g>
<g><path style="opacity:1" fill="#f7b40f" d="M 38.5,272.5 C 43.3068,273.769 47.9735,275.436 52.5,277.5C 57.0137,280.591 61.347,283.925 65.5,287.5C 65.4142,288.496 65.7476,289.329 66.5,290C 64.741,291.008 63.5743,292.508 63,294.5C 61.5861,295.413 60.0861,295.413 58.5,294.5C 56.6912,291.674 54.1912,289.674 51,288.5C 49.779,289.272 48.779,290.272 48,291.5C 47.3123,292.332 47.479,292.998 48.5,293.5C 49.3333,292.5 50.1667,291.5 51,290.5C 51.3988,290.728 51.5654,291.062 51.5,291.5C 49.8798,295.434 47.5465,298.767 44.5,301.5C 39.3271,297.41 33.6605,294.077 27.5,291.5C 25.1189,286.038 26.9522,283.371 33,283.5C 34.049,285.107 35.549,285.773 37.5,285.5C 39.5283,281.889 38.5283,279.555 34.5,278.5C 35.5005,276.187 36.8338,274.187 38.5,272.5 Z"/></g>
<g><path style="opacity:1" fill="#925a04" d="M 40.5,282.5 C 42.2517,282.418 43.2517,283.251 43.5,285C 41.963,285.383 40.6297,286.216 39.5,287.5C 38.7992,285.808 39.1325,284.142 40.5,282.5 Z"/></g>
<g><path style="opacity:1" fill="#f9b411" d="M 240.5,271.5 C 241.167,271.5 241.833,271.5 242.5,271.5C 245.659,271.917 247.659,273.75 248.5,277C 247.556,278.477 246.223,279.477 244.5,280C 246.107,281.049 246.773,282.549 246.5,284.5C 247.5,284.5 248.5,284.5 249.5,284.5C 249.942,288.847 250.775,289.18 252,285.5C 253.187,287.044 253.52,288.711 253,290.5C 250.021,292.067 247.188,293.734 244.5,295.5C 239.635,297.763 235.302,300.763 231.5,304.5C 229.833,305.833 228.167,307.167 226.5,308.5C 220.288,304.272 220.288,300.105 226.5,296C 223.996,291.55 221.662,291.55 219.5,296C 221.021,299.811 220.355,300.311 217.5,297.5C 215.5,298.833 213.5,300.167 211.5,301.5C 209.628,299.09 208.295,296.423 207.5,293.5C 212.891,287.776 218.891,282.776 225.5,278.5C 230.353,275.907 235.353,273.574 240.5,271.5 Z"/></g>
<g><path style="opacity:1" fill="#b37807" d="M 241.5,280.5 C 243.908,281.315 244.741,282.981 244,285.5C 243.667,284.833 243.333,284.167 243,283.5C 241.453,286.544 238.953,288.544 235.5,289.5C 234.264,287.966 233.764,286.3 234,284.5C 236.633,283.248 239.133,281.914 241.5,280.5 Z"/></g>
<g><path style="opacity:1" fill="#bfa9c2" d="M 168.5,280.5 C 168.833,280.5 169.167,280.5 169.5,280.5C 170.485,283.057 171.485,285.724 172.5,288.5C 172.167,289.167 171.833,289.833 171.5,290.5C 167.802,291.437 164.302,292.77 161,294.5C 159.175,294.057 157.342,293.723 155.5,293.5C 152.5,290.833 149.5,290.833 146.5,293.5C 142.5,294.833 138.5,294.833 134.5,293.5C 133.508,291.974 132.008,291.307 130,291.5C 127.992,291.307 126.492,291.974 125.5,293.5C 120.628,295.424 116.628,294.257 113.5,290C 113.728,289.601 114.062,289.435 114.5,289.5C 116.045,291.372 118.045,292.372 120.5,292.5C 123.401,292.047 126.067,291.047 128.5,289.5C 131.955,290.196 135.288,291.196 138.5,292.5C 139.097,293.139 139.93,293.472 141,293.5C 142.699,293.613 143.866,292.947 144.5,291.5C 146.747,291.085 148.914,290.418 151,289.5C 154.031,290.562 157.031,291.562 160,292.5C 163.341,291.087 166.841,290.087 170.5,289.5C 170.244,286.402 169.578,283.402 168.5,280.5 Z"/></g>
<g><path style="opacity:1" fill="#c43f1c" d="M 21.5,278.5 C 19.9962,282.35 17.6629,285.683 14.5,288.5C 18.8692,289.409 23.2026,290.409 27.5,291.5C 24.9146,293.807 22.9146,296.64 21.5,300C 21.9783,301.303 22.645,302.469 23.5,303.5C 18.2359,301.237 14.2359,297.57 11.5,292.5C 13.6926,286.981 17.0259,282.314 21.5,278.5 Z"/></g>
<g><path style="opacity:1" fill="#a46508" d="M 58.5,294.5 C 56.2014,293.068 54.5347,293.734 53.5,296.5C 52.4063,295.132 52.7397,293.965 54.5,293C 53.7562,291.961 52.7562,291.461 51.5,291.5C 51.5654,291.062 51.3988,290.728 51,290.5C 50.1667,291.5 49.3333,292.5 48.5,293.5C 47.479,292.998 47.3123,292.332 48,291.5C 48.779,290.272 49.779,289.272 51,288.5C 54.1912,289.674 56.6912,291.674 58.5,294.5 Z"/></g>
<g><path style="opacity:1" fill="#b63718" d="M 259.5,281.5 C 263.691,284.029 266.357,287.695 267.5,292.5C 266.566,295.102 264.899,297.102 262.5,298.5C 264.87,291.945 262.537,289.279 255.5,290.5C 258.358,289.834 261.358,289.167 264.5,288.5C 262.395,286.408 260.728,284.075 259.5,281.5 Z"/></g>
<g><path style="opacity:1" fill="#87484c" d="M 134.5,293.5 C 132.843,294.575 131.009,295.242 129,295.5C 127.301,295.613 126.134,294.947 125.5,293.5C 126.492,291.974 127.992,291.307 130,291.5C 132.008,291.307 133.508,291.974 134.5,293.5 Z"/></g>
<g><path style="opacity:1" fill="#85464a" d="M 155.5,293.5 C 152.617,296.09 149.617,296.09 146.5,293.5C 149.5,290.833 152.5,290.833 155.5,293.5 Z"/></g>
<g><path style="opacity:1" fill="#aa6c08" d="M 229.5,286.5 C 232.91,286.384 234.244,288.05 233.5,291.5C 231.302,292.014 229.302,293.014 227.5,294.5C 226.155,293.653 225.155,292.487 224.5,291C 225.449,290.383 226.282,290.549 227,291.5C 227.317,289.699 227.984,289.366 229,290.5C 229.49,289.207 229.657,287.873 229.5,286.5 Z"/></g>
<g><path style="opacity:1" fill="#f4931a" d="M 242.5,271.5 C 246.074,270.226 249.741,270.393 253.5,272C 257.032,276.232 256.032,278.065 250.5,277.5C 250.491,279.308 250.991,280.975 252,282.5C 252.741,281.359 253.575,281.359 254.5,282.5C 255.057,280.668 256.057,279.335 257.5,278.5C 258.906,278.973 259.573,279.973 259.5,281.5C 260.728,284.075 262.395,286.408 264.5,288.5C 261.358,289.167 258.358,289.834 255.5,290.5C 254.711,290.783 254.044,291.283 253.5,292C 255.834,294.496 257.5,297.329 258.5,300.5C 255.45,302.692 252.117,304.358 248.5,305.5C 245.856,303.847 243.856,301.513 242.5,298.5C 243.193,297.482 243.859,296.482 244.5,295.5C 247.188,293.734 250.021,292.067 253,290.5C 253.52,288.711 253.187,287.044 252,285.5C 250.775,289.18 249.942,288.847 249.5,284.5C 248.5,284.5 247.5,284.5 246.5,284.5C 246.773,282.549 246.107,281.049 244.5,280C 246.223,279.477 247.556,278.477 248.5,277C 247.659,273.75 245.659,271.917 242.5,271.5 Z"/></g>
<g><path style="opacity:1" fill="#f27e1e" d="M 27.5,291.5 C 33.6605,294.077 39.3271,297.41 44.5,301.5C 44.5,301.833 44.5,302.167 44.5,302.5C 43.5207,303.765 42.5207,305.099 41.5,306.5C 40.1667,306.833 38.8333,307.167 37.5,307.5C 34.1581,306.826 30.8248,306.16 27.5,305.5C 25.847,305.34 24.5137,304.674 23.5,303.5C 22.645,302.469 21.9783,301.303 21.5,300C 22.9146,296.64 24.9146,293.807 27.5,291.5 Z"/></g>
<g><path style="opacity:1" fill="#ec5c21" d="M 255.5,290.5 C 262.537,289.279 264.87,291.945 262.5,298.5C 260.938,298.733 259.605,299.4 258.5,300.5C 257.5,297.329 255.834,294.496 253.5,292C 254.044,291.283 254.711,290.783 255.5,290.5 Z"/></g>
<g><path style="opacity:1" fill="#f0721e" d="M 244.5,295.5 C 243.859,296.482 243.193,297.482 242.5,298.5C 243.856,301.513 245.856,303.847 248.5,305.5C 244.274,307.956 239.607,308.956 234.5,308.5C 234.912,306.027 233.912,304.694 231.5,304.5C 235.302,300.763 239.635,297.763 244.5,295.5 Z"/></g>
<g><path style="opacity:1" fill="#b4331a" d="M 44.5,302.5 C 47.5223,303.522 49.5223,305.522 50.5,308.5C 45.5276,309.422 40.5276,309.588 35.5,309C 32.4006,308.613 29.734,307.446 27.5,305.5C 30.8248,306.16 34.1581,306.826 37.5,307.5C 38.8333,307.167 40.1667,306.833 41.5,306.5C 42.5207,305.099 43.5207,303.765 44.5,302.5 Z"/></g>
<g><path style="opacity:1" fill="#fbdb05" d="M 197.5,299.5 C 198.5,299.5 199.5,299.5 200.5,299.5C 202.283,306.228 205.95,311.728 211.5,316C 210.944,316.383 210.611,316.883 210.5,317.5C 207.968,318.596 205.635,319.929 203.5,321.5C 202.609,322.11 201.609,322.443 200.5,322.5C 199.178,322.33 198.011,322.663 197,323.5C 196.2,315.421 196.367,307.421 197.5,299.5 Z"/></g>
<g><path style="opacity:0.333" fill="#99270d" d="M 262.5,298.5 C 253.679,307.569 243.012,310.903 230.5,308.5C 228.927,308.752 227.594,309.418 226.5,310.5C 226.5,309.833 226.5,309.167 226.5,308.5C 228.167,307.167 229.833,305.833 231.5,304.5C 233.912,304.694 234.912,306.027 234.5,308.5C 239.607,308.956 244.274,307.956 248.5,305.5C 252.117,304.358 255.45,302.692 258.5,300.5C 259.605,299.4 260.938,298.733 262.5,298.5 Z"/></g>
<g><path style="opacity:1" fill="#ec9417" d="M 65.5,287.5 C 69.7978,291.296 73.9644,295.296 78,299.5C 79.9151,298.084 81.4151,298.418 82.5,300.5C 80.8333,300.5 79.1667,300.5 77.5,300.5C 76.4609,307.059 73.1276,312.226 67.5,316C 68.056,316.383 68.3893,316.883 68.5,317.5C 66.1563,315.932 64.1563,316.265 62.5,318.5C 60.0801,315.074 57.0801,312.408 53.5,310.5C 51.9731,310.573 50.9731,309.906 50.5,308.5C 49.5223,305.522 47.5223,303.522 44.5,302.5C 44.5,302.167 44.5,301.833 44.5,301.5C 47.5465,298.767 49.8798,295.434 51.5,291.5C 52.7562,291.461 53.7562,291.961 54.5,293C 52.7397,293.965 52.4063,295.132 53.5,296.5C 54.5347,293.734 56.2014,293.068 58.5,294.5C 60.0861,295.413 61.5861,295.413 63,294.5C 63.5743,292.508 64.741,291.008 66.5,290C 65.7476,289.329 65.4142,288.496 65.5,287.5 Z"/></g>
<g><path style="opacity:1" fill="#5e451c" d="M 100.5,307.5 C 101.791,307.263 102.791,307.596 103.5,308.5C 105.89,310.02 108.557,311.02 111.5,311.5C 111.178,313.722 111.845,315.556 113.5,317C 112.027,317.71 111.36,318.876 111.5,320.5C 110.859,318.903 109.859,316.903 108.5,314.5C 107.356,312.073 105.356,311.073 102.5,311.5C 99.8446,311.44 97.5112,312.107 95.5,313.5C 94.4639,315.391 94.4639,317.224 95.5,319C 94.6919,319.308 94.0253,319.808 93.5,320.5C 96.6767,322.336 98.6767,325.002 99.5,328.5C 98.1001,327.9 97.1001,326.9 96.5,325.5C 95.0603,323.612 93.3936,321.945 91.5,320.5C 93.2702,317.807 93.9368,314.807 93.5,311.5C 96.8573,311.784 99.1906,310.451 100.5,307.5 Z"/></g>
<g><path style="opacity:1" fill="#e88e16" d="M 226.5,308.5 C 226.5,309.167 226.5,309.833 226.5,310.5C 225.205,311.488 223.872,312.488 222.5,313.5C 221.292,312.218 219.958,312.218 218.5,313.5C 219.803,315.589 219.303,317.256 217,318.5C 215.158,316.166 212.991,315.832 210.5,317.5C 210.611,316.883 210.944,316.383 211.5,316C 205.95,311.728 202.283,306.228 200.5,299.5C 202.833,297.5 205.167,295.5 207.5,293.5C 208.295,296.423 209.628,299.09 211.5,301.5C 213.5,300.167 215.5,298.833 217.5,297.5C 220.355,300.311 221.021,299.811 219.5,296C 221.662,291.55 223.996,291.55 226.5,296C 220.288,300.105 220.288,304.272 226.5,308.5 Z"/></g>
<g><path style="opacity:1" fill="#e08023" d="M 188.5,303.5 C 187.032,304.806 185.699,306.306 184.5,308C 186.382,308.198 188.048,308.698 189.5,309.5C 188.167,309.5 186.833,309.5 185.5,309.5C 182.43,309.368 179.43,309.701 176.5,310.5C 174.517,310.843 173.183,310.176 172.5,308.5C 177.833,306.833 183.167,305.167 188.5,303.5 Z"/></g>
<g><path style="opacity:1" fill="#fac20d" d="M 83.5,300.5 C 85.3684,301.263 87.0351,302.263 88.5,303.5C 89.1318,311.573 88.4651,319.24 86.5,326.5C 84.1815,326.008 82.1815,325.008 80.5,323.5C 82.2345,316.19 83.2345,308.524 83.5,300.5 Z"/></g>
<g><path style="opacity:1" fill="#fbe003" d="M 82.5,300.5 C 82.8333,300.5 83.1667,300.5 83.5,300.5C 83.2345,308.524 82.2345,316.19 80.5,323.5C 78.5168,322.529 76.5168,321.529 74.5,320.5C 72.5,319.5 70.5,318.5 68.5,317.5C 68.3893,316.883 68.056,316.383 67.5,316C 73.1276,312.226 76.4609,307.059 77.5,300.5C 79.1667,300.5 80.8333,300.5 82.5,300.5 Z"/></g>
<g><path style="opacity:1" fill="#ac9336" d="M 108.5,314.5 C 108.649,315.552 108.483,316.552 108,317.5C 106.989,316.663 105.822,316.33 104.5,316.5C 107.803,321.372 106.47,323.205 100.5,322C 101.849,320.365 101.682,318.865 100,317.5C 99.5172,318.448 99.3505,319.448 99.5,320.5C 98.5,320.5 97.5,320.5 96.5,320.5C 96.2436,318.208 96.5769,316.041 97.5,314C 96.9056,313.536 96.2389,313.369 95.5,313.5C 97.5112,312.107 99.8446,311.44 102.5,311.5C 105.356,311.073 107.356,312.073 108.5,314.5 Z"/></g>
<g><path style="opacity:1" fill="#845c26" d="M 185.5,309.5 C 186.833,309.5 188.167,309.5 189.5,309.5C 191.441,311.011 191.941,313.011 191,315.5C 190.329,316.252 189.496,316.586 188.5,316.5C 187.508,316.672 186.842,316.338 186.5,315.5C 186.938,315.565 187.272,315.399 187.5,315C 185.845,313.556 185.178,311.722 185.5,309.5 Z"/></g>
<g><path style="opacity:1" fill="#251f19" d="M 185.5,309.5 C 185.178,311.722 185.845,313.556 187.5,315C 187.272,315.399 186.938,315.565 186.5,315.5C 185.735,315.077 184.902,314.743 184,314.5C 181.367,315.644 178.867,316.977 176.5,318.5C 175.256,316.337 174.256,314.003 173.5,311.5C 174.791,311.737 175.791,311.404 176.5,310.5C 179.43,309.701 182.43,309.368 185.5,309.5 Z"/></g>
<g><path style="opacity:1" fill="#f3a716" d="M 88.5,303.5 C 92.8631,303.92 96.8631,305.253 100.5,307.5C 99.1906,310.451 96.8573,311.784 93.5,311.5C 93.9368,314.807 93.2702,317.807 91.5,320.5C 93.3936,321.945 95.0603,323.612 96.5,325.5C 96.5,326.833 96.5,328.167 96.5,329.5C 92.6215,329.976 89.2882,328.976 86.5,326.5C 88.4651,319.24 89.1318,311.573 88.5,303.5 Z"/></g>
<g><path style="opacity:1" fill="#dd962a" d="M 103.5,308.5 C 117.922,312.073 132.589,313.407 147.5,312.5C 147.5,312.833 147.5,313.167 147.5,313.5C 138.833,313.5 130.167,313.5 121.5,313.5C 121.4,316.108 122.067,318.442 123.5,320.5C 122.833,320.5 122.167,320.5 121.5,320.5C 118.235,321.46 114.902,321.46 111.5,320.5C 111.36,318.876 112.027,317.71 113.5,317C 111.845,315.556 111.178,313.722 111.5,311.5C 108.557,311.02 105.89,310.02 103.5,308.5 Z"/></g>
<g><path style="opacity:1" fill="#f2b514" d="M 167.5,310.5 C 169.176,311.183 169.843,312.517 169.5,314.5C 165.942,316.112 162.275,317.445 158.5,318.5C 157.699,316.958 157.366,315.292 157.5,313.5C 154.167,313.5 150.833,313.5 147.5,313.5C 147.5,313.167 147.5,312.833 147.5,312.5C 154.197,312.115 160.864,311.448 167.5,310.5 Z"/></g>
<g><path style="opacity:1" fill="#fae203" d="M 147.5,313.5 C 150.833,313.5 154.167,313.5 157.5,313.5C 157.366,315.292 157.699,316.958 158.5,318.5C 154.962,320.769 151.295,322.769 147.5,324.5C 139.44,323.555 131.44,322.221 123.5,320.5C 122.067,318.442 121.4,316.108 121.5,313.5C 130.167,313.5 138.833,313.5 147.5,313.5 Z"/></g>
<g><path style="opacity:1" fill="#956e31" d="M 95.5,313.5 C 96.2389,313.369 96.9056,313.536 97.5,314C 96.5769,316.041 96.2436,318.208 96.5,320.5C 97.5,320.5 98.5,320.5 99.5,320.5C 99.3505,319.448 99.5172,318.448 100,317.5C 101.682,318.865 101.849,320.365 100.5,322C 106.47,323.205 107.803,321.372 104.5,316.5C 105.822,316.33 106.989,316.663 108,317.5C 108.483,316.552 108.649,315.552 108.5,314.5C 109.859,316.903 110.859,318.903 111.5,320.5C 114.902,321.46 118.235,321.46 121.5,320.5C 120.438,322.234 120.438,323.901 121.5,325.5C 121.44,326.043 121.107,326.376 120.5,326.5C 117.28,323.174 113.946,322.841 110.5,325.5C 106.89,324.153 106.557,324.82 109.5,327.5C 108.167,327.5 107.5,328.167 107.5,329.5C 105.078,327.35 102.411,327.017 99.5,328.5C 98.6767,325.002 96.6767,322.336 93.5,320.5C 94.0253,319.808 94.6919,319.308 95.5,319C 94.4639,317.224 94.4639,315.391 95.5,313.5 Z"/></g>
<g><path style="opacity:1" fill="#f0891c" d="M 186.5,315.5 C 186.842,316.338 187.508,316.672 188.5,316.5C 188.5,320.167 188.5,323.833 188.5,327.5C 193.001,326.913 197.001,325.246 200.5,322.5C 201.609,322.443 202.609,322.11 203.5,321.5C 204.402,324.974 206.068,327.974 208.5,330.5C 205.688,332.408 202.688,334.075 199.5,335.5C 198.962,333.883 198.629,332.216 198.5,330.5C 192.646,329.305 187.98,330.972 184.5,335.5C 183.007,334.555 181.507,333.555 180,332.5C 177.209,333.406 174.376,334.073 171.5,334.5C 170.838,332.696 170.505,330.696 170.5,328.5C 170.643,325.887 171.31,323.553 172.5,321.5C 173.833,321.5 175.167,321.5 176.5,321.5C 176.5,320.5 176.5,319.5 176.5,318.5C 178.867,316.977 181.367,315.644 184,314.5C 184.902,314.743 185.735,315.077 186.5,315.5 Z"/></g>
<g><path style="opacity:1" fill="#f7b014" d="M 197.5,299.5 C 196.367,307.421 196.2,315.421 197,323.5C 198.011,322.663 199.178,322.33 200.5,322.5C 197.001,325.246 193.001,326.913 188.5,327.5C 188.5,323.833 188.5,320.167 188.5,316.5C 189.496,316.586 190.329,316.252 191,315.5C 191.941,313.011 191.441,311.011 189.5,309.5C 188.048,308.698 186.382,308.198 184.5,308C 185.699,306.306 187.032,304.806 188.5,303.5C 191.378,301.895 194.378,300.561 197.5,299.5 Z"/></g>
<g><path style="opacity:1" fill="#d14919" d="M 53.5,310.5 C 57.0801,312.408 60.0801,315.074 62.5,318.5C 64.1563,316.265 66.1563,315.932 68.5,317.5C 70.5,318.5 72.5,319.5 74.5,320.5C 73.4424,323.413 72.1091,326.246 70.5,329C 72.7293,331.4 75.0626,333.567 77.5,335.5C 72.9885,333.503 69.1551,330.503 66,326.5C 62.0004,321.005 57.8337,315.671 53.5,310.5 Z"/></g>
<g><path style="opacity:1" fill="#d84d1b" d="M 222.5,313.5 C 218.07,319.36 213.403,325.026 208.5,330.5C 206.068,327.974 204.402,324.974 203.5,321.5C 205.635,319.929 207.968,318.596 210.5,317.5C 212.991,315.832 215.158,316.166 217,318.5C 219.303,317.256 219.803,315.589 218.5,313.5C 219.958,312.218 221.292,312.218 222.5,313.5 Z"/></g>
<g><path style="opacity:1" fill="#866037" d="M 172.5,308.5 C 173.183,310.176 174.517,310.843 176.5,310.5C 175.791,311.404 174.791,311.737 173.5,311.5C 174.256,314.003 175.256,316.337 176.5,318.5C 176.5,319.5 176.5,320.5 176.5,321.5C 175.167,321.5 173.833,321.5 172.5,321.5C 171.065,320.904 169.398,320.904 167.5,321.5C 168.974,320.325 170.64,319.325 172.5,318.5C 171.306,317.201 170.306,315.868 169.5,314.5C 169.843,312.517 169.176,311.183 167.5,310.5C 168.93,309.463 170.597,308.796 172.5,308.5 Z"/></g>
<g><path style="opacity:1" fill="#bdbcb8" d="M 169.5,314.5 C 170.306,315.868 171.306,317.201 172.5,318.5C 170.64,319.325 168.974,320.325 167.5,321.5C 164.912,323.592 161.912,324.925 158.5,325.5C 156.512,325.827 154.512,326.16 152.5,326.5C 150.443,326.564 148.777,325.898 147.5,324.5C 151.295,322.769 154.962,320.769 158.5,318.5C 162.275,317.445 165.942,316.112 169.5,314.5 Z"/></g>
<g><path style="opacity:1" fill="#e8a116" d="M 172.5,321.5 C 171.31,323.553 170.643,325.887 170.5,328.5C 170.505,330.696 170.838,332.696 171.5,334.5C 167.094,335.651 162.761,336.984 158.5,338.5C 158.167,338.5 157.833,338.5 157.5,338.5C 155.833,338.5 154.167,338.5 152.5,338.5C 153.718,337.839 155.051,337.172 156.5,336.5C 155.398,335.824 154.398,335.158 153.5,334.5C 157.862,334.756 162.195,334.923 166.5,335C 167.406,333.301 167.739,331.467 167.5,329.5C 164.432,329.453 161.432,328.953 158.5,328C 157.402,327.23 157.402,326.397 158.5,325.5C 161.912,324.925 164.912,323.592 167.5,321.5C 169.398,320.904 171.065,320.904 172.5,321.5 Z"/></g>
<g><path style="opacity:1" fill="#654432" d="M 121.5,320.5 C 122.167,320.5 122.833,320.5 123.5,320.5C 131.44,322.221 139.44,323.555 147.5,324.5C 148.777,325.898 150.443,326.564 152.5,326.5C 154.512,326.16 156.512,325.827 158.5,325.5C 157.402,326.397 157.402,327.23 158.5,328C 161.432,328.953 164.432,329.453 167.5,329.5C 167.739,331.467 167.406,333.301 166.5,335C 162.195,334.923 157.862,334.756 153.5,334.5C 153.119,333.069 152.119,332.236 150.5,332C 148.19,331.503 145.857,331.337 143.5,331.5C 140.992,329.446 137.992,328.446 134.5,328.5C 130.317,327.373 125.983,326.373 121.5,325.5C 120.438,323.901 120.438,322.234 121.5,320.5 Z"/></g>
<g><path style="opacity:1" fill="#dda519" d="M 121.5,325.5 C 125.983,326.373 130.317,327.373 134.5,328.5C 132.422,329.101 130.255,329.434 128,329.5C 123.148,328.911 118.314,328.244 113.5,327.5C 112.71,326.599 111.71,325.932 110.5,325.5C 113.946,322.841 117.28,323.174 120.5,326.5C 121.107,326.376 121.44,326.043 121.5,325.5 Z"/></g>
<g><path style="opacity:1" fill="#f09e19" d="M 109.5,327.5 C 115.602,333.422 122.935,335.755 131.5,334.5C 130.282,335.161 128.949,335.828 127.5,336.5C 128.949,337.172 130.282,337.839 131.5,338.5C 123.341,338.068 115.341,336.735 107.5,334.5C 107.5,332.833 107.5,331.167 107.5,329.5C 107.5,328.167 108.167,327.5 109.5,327.5 Z"/></g>
<g><path style="opacity:1" fill="#da7116" d="M 74.5,320.5 C 76.5168,321.529 78.5168,322.529 80.5,323.5C 82.1815,325.008 84.1815,326.008 86.5,326.5C 89.2882,328.976 92.6215,329.976 96.5,329.5C 96.5,328.167 96.5,326.833 96.5,325.5C 97.1001,326.9 98.1001,327.9 99.5,328.5C 102.411,327.017 105.078,327.35 107.5,329.5C 107.5,331.167 107.5,332.833 107.5,334.5C 115.341,336.735 123.341,338.068 131.5,338.5C 138.5,338.5 145.5,338.5 152.5,338.5C 154.167,338.5 155.833,338.5 157.5,338.5C 157.5,338.833 157.5,339.167 157.5,339.5C 145.5,339.5 133.5,339.5 121.5,339.5C 113.954,338.07 106.454,336.07 99,333.5C 97.668,335.66 96.168,337.66 94.5,339.5C 91.5,339.5 88.5,339.5 85.5,339.5C 82.5962,338.715 79.9296,337.381 77.5,335.5C 75.0626,333.567 72.7293,331.4 70.5,329C 72.1091,326.246 73.4424,323.413 74.5,320.5 Z"/></g>
<g><path style="opacity:1" fill="#4a402f" d="M 110.5,325.5 C 111.71,325.932 112.71,326.599 113.5,327.5C 112.668,328.329 113.001,329.162 114.5,330C 121.156,333.066 128.156,334.232 135.5,333.5C 134.432,334.434 133.099,334.768 131.5,334.5C 122.935,335.755 115.602,333.422 109.5,327.5C 106.557,324.82 106.89,324.153 110.5,325.5 Z"/></g>
<g><path style="opacity:1" fill="#c3c3c2" d="M 113.5,327.5 C 118.314,328.244 123.148,328.911 128,329.5C 130.255,329.434 132.422,329.101 134.5,328.5C 137.992,328.446 140.992,329.446 143.5,331.5C 141.162,333.04 138.495,333.706 135.5,333.5C 128.156,334.232 121.156,333.066 114.5,330C 113.001,329.162 112.668,328.329 113.5,327.5 Z"/></g>
<g><path style="opacity:0.122" fill="#8d2508" d="M 208.5,330.5 C 204.253,334.789 199.253,337.789 193.5,339.5C 190.5,339.5 187.5,339.5 184.5,339.5C 182.832,337.66 181.332,335.66 180,333.5C 173.089,336.186 165.922,337.853 158.5,338.5C 162.761,336.984 167.094,335.651 171.5,334.5C 174.376,334.073 177.209,333.406 180,332.5C 181.507,333.555 183.007,334.555 184.5,335.5C 184.874,337.95 186.374,338.95 189,338.5C 192.738,338.192 196.238,337.192 199.5,335.5C 202.688,334.075 205.688,332.408 208.5,330.5 Z"/></g>
<g><path style="opacity:1" fill="#f5e005" d="M 143.5,331.5 C 145.857,331.337 148.19,331.503 150.5,332C 152.119,332.236 153.119,333.069 153.5,334.5C 154.398,335.158 155.398,335.824 156.5,336.5C 155.051,337.172 153.718,337.839 152.5,338.5C 145.5,338.5 138.5,338.5 131.5,338.5C 130.282,337.839 128.949,337.172 127.5,336.5C 128.949,335.828 130.282,335.161 131.5,334.5C 133.099,334.768 134.432,334.434 135.5,333.5C 138.495,333.706 141.162,333.04 143.5,331.5 Z"/></g>
<g><path style="opacity:1" fill="#f6a713" d="M 199.5,335.5 C 196.238,337.192 192.738,338.192 189,338.5C 186.374,338.95 184.874,337.95 184.5,335.5C 187.98,330.972 192.646,329.305 198.5,330.5C 198.629,332.216 198.962,333.883 199.5,335.5 Z"/></g>
<g><path style="opacity:1" fill="#f8a714" d="M 82.5,330.5 C 85.6074,330.351 88.6074,330.851 91.5,332C 92.1383,333.707 92.1383,335.54 91.5,337.5C 87.4557,338.042 83.789,337.209 80.5,335C 81.5822,333.67 82.2488,332.17 82.5,330.5 Z"/></g>
</svg>
