<?xml version="1.0" encoding="UTF-8" ?>
<!DOCTYPE svg PUBLIC "-//W3C//DTD SVG 1.1//EN" "http://www.w3.org/Graphics/SVG/1.1/DTD/svg11.dtd">
<svg width="256pt" height="247pt" viewBox="0 0 256 247" version="1.1" xmlns="http://www.w3.org/2000/svg">
<g id="#ffffffff">
<path fill="#ffffff" opacity="1.00" d=" M 154.22 14.40 C 155.60 13.95 156.66 12.98 157.67 11.98 C 157.73 14.09 157.92 16.19 158.08 18.30 C 156.84 16.95 155.59 15.62 154.22 14.40 Z" />
<path fill="#ffffff" opacity="1.00" d=" M 173.32 12.04 C 174.32 12.35 175.33 12.66 176.34 12.97 C 174.21 16.05 172.29 20.04 168.43 21.18 C 169.56 20.11 170.80 19.15 172.05 18.22 C 172.32 16.13 172.75 14.07 173.32 12.04 Z" />
<path fill="#ffffff" opacity="1.00" d=" M 97.94 50.06 C 104.30 48.59 110.51 46.46 116.88 45.03 C 122.52 44.82 128.18 45.00 133.83 44.90 C 136.63 45.96 140.58 47.27 140.67 50.86 C 141.04 54.45 141.63 58.50 139.80 61.80 C 137.13 63.51 134.72 60.55 131.96 60.65 C 118.56 59.61 106.80 69.54 93.35 67.85 C 96.13 67.30 99.05 66.93 101.55 65.53 C 103.11 60.79 103.31 55.69 102.67 50.77 C 102.10 53.51 101.69 56.28 101.41 59.05 C 101.26 55.71 101.89 51.39 97.94 50.06 Z" />
<path fill="#ffffff" opacity="1.00" d=" M 104.03 193.66 C 104.99 193.69 105.96 193.72 106.94 193.76 C 106.73 195.11 108.42 197.48 106.39 197.99 C 105.15 196.83 104.70 195.16 104.03 193.66 Z" />
<path fill="#ffffff" opacity="1.00" d=" M 111.60 212.29 C 112.93 212.23 114.27 212.18 115.60 212.14 C 115.61 213.70 115.62 215.26 115.62 216.83 C 113.97 215.61 112.49 214.16 111.60 212.29 Z" />
</g>
<g id="#000000ff">
<path fill="#000000" opacity="1.00" d=" M 171.44 0.00 L 173.91 0.00 C 175.41 1.22 176.88 2.46 178.33 3.74 C 181.51 4.38 184.71 5.21 187.34 7.21 C 187.01 11.44 183.71 14.43 180.91 17.25 C 181.17 17.55 181.44 17.84 181.72 18.13 C 186.58 12.30 192.05 6.83 195.54 0.00 L 196.78 0.00 C 196.46 3.88 195.47 7.67 195.01 11.53 C 198.36 9.48 201.20 6.74 204.45 4.57 L 205.59 4.88 C 202.94 11.50 198.48 17.19 193.80 22.49 C 194.39 22.56 195.57 22.70 196.15 22.77 C 194.22 28.27 192.99 34.01 192.74 39.84 C 193.47 39.85 194.94 39.87 195.67 39.88 C 196.22 36.41 197.00 32.74 199.92 30.44 C 199.93 29.01 199.94 27.58 199.96 26.14 C 201.47 24.99 203.05 23.93 204.68 22.94 C 205.34 20.08 206.43 16.72 209.53 15.72 C 213.11 14.26 216.60 16.62 219.14 18.95 C 221.73 17.42 225.45 15.59 228.12 17.96 C 230.93 20.45 230.04 24.53 230.03 27.84 C 231.57 29.32 233.56 30.68 233.90 32.97 C 233.95 34.89 232.87 36.60 232.22 38.35 C 233.91 41.10 234.65 44.40 233.26 47.45 C 235.41 48.78 237.08 50.70 238.23 52.94 C 237.50 54.15 236.78 55.36 236.03 56.55 C 237.23 58.24 238.93 59.88 238.95 62.09 C 238.30 65.15 234.78 66.05 232.08 65.53 C 230.12 65.43 227.08 64.56 226.27 67.07 C 226.36 70.14 229.40 71.82 231.37 73.74 C 245.62 85.67 254.67 103.43 256.00 121.97 L 256.00 128.62 C 255.25 142.54 249.63 156.82 238.22 165.39 C 236.63 175.41 231.42 185.15 222.79 190.79 C 210.94 198.81 195.99 200.16 182.06 199.44 C 173.66 199.08 165.42 197.10 157.01 196.84 C 156.96 199.91 156.91 202.99 156.92 206.08 C 154.45 207.58 151.75 208.66 149.26 210.12 C 149.33 212.71 149.69 215.49 151.22 217.66 C 154.66 220.66 159.48 222.03 162.16 225.87 C 164.65 231.69 161.94 239.37 155.96 241.85 C 151.00 244.34 145.41 243.03 140.25 242.27 C 134.11 244.82 127.64 246.38 121.01 247.00 L 113.76 247.00 C 105.56 246.14 97.07 243.87 91.07 237.87 C 84.97 243.08 76.04 242.67 68.94 239.97 C 64.64 238.35 60.42 234.89 60.07 230.00 C 60.32 225.90 61.27 221.33 64.76 218.70 C 70.60 214.00 78.07 212.11 85.21 210.35 C 82.59 208.52 79.35 206.96 78.12 203.80 C 77.16 200.50 78.65 197.24 80.17 194.38 C 79.24 193.02 78.31 191.67 77.38 190.32 C 68.33 191.72 58.47 186.49 54.95 177.97 C 53.37 174.33 53.90 170.14 55.79 166.73 C 58.14 162.79 57.92 158.07 58.45 153.68 C 53.78 153.25 49.75 150.47 47.57 146.34 C 42.22 148.65 36.47 146.38 31.01 145.73 C 26.36 144.97 25.69 139.37 26.32 135.58 C 23.32 137.93 19.27 138.96 15.64 137.53 C 9.61 135.11 4.99 128.69 5.60 122.08 C 5.73 119.37 7.52 117.26 9.16 115.28 C 5.48 114.21 1.54 112.49 0.00 108.68 L 0.00 106.56 C 0.93 104.45 2.48 102.60 4.60 101.63 C 11.66 98.16 20.36 98.12 27.34 101.85 C 30.64 103.38 33.20 106.34 36.86 107.11 C 40.43 108.16 44.26 107.94 47.80 109.13 C 50.04 109.93 50.88 112.35 52.06 114.19 C 53.88 114.30 55.69 114.43 57.51 114.56 C 57.31 110.29 59.54 106.49 63.23 104.40 C 62.84 102.75 62.46 101.09 62.08 99.44 C 57.50 98.21 53.10 95.42 51.18 90.93 C 48.88 86.46 49.79 80.00 54.46 77.44 C 59.42 74.74 65.07 77.17 69.71 79.37 C 70.58 76.17 71.55 73.01 72.55 69.85 C 70.39 69.66 67.76 70.67 65.96 69.06 C 60.82 64.37 60.64 54.74 66.88 50.88 C 70.32 49.07 73.83 47.37 77.07 45.21 C 77.20 42.96 77.44 40.73 77.79 38.51 C 75.89 38.71 73.99 38.89 72.09 39.07 C 70.64 41.88 68.90 44.83 65.85 46.15 C 60.27 48.94 52.83 45.85 50.86 39.92 C 47.96 33.44 53.02 25.07 60.10 24.58 C 63.22 23.94 65.90 26.10 68.73 26.74 C 74.37 24.60 80.37 24.07 86.34 24.54 C 92.27 21.30 98.82 17.60 105.84 19.28 C 112.50 20.94 116.30 27.18 119.23 32.86 C 121.84 33.32 124.62 33.63 126.85 35.20 C 130.86 37.60 131.92 43.17 136.80 44.36 C 136.34 42.78 135.87 41.20 135.40 39.63 C 136.89 37.97 138.38 36.30 139.87 34.63 C 137.56 34.80 135.25 34.95 132.95 35.07 C 132.42 34.68 131.37 33.90 130.85 33.50 C 131.15 29.05 131.90 24.63 132.56 20.22 C 133.22 17.82 134.86 14.30 137.92 15.06 C 141.45 16.67 143.84 19.88 146.70 22.39 C 147.61 21.11 148.52 19.84 149.44 18.56 C 146.76 15.56 142.02 13.12 142.42 8.49 C 143.49 4.77 148.00 5.85 150.92 5.73 C 153.28 4.02 155.39 1.88 158.07 0.64 C 159.43 -0.17 161.47 0.58 162.17 1.93 C 163.94 5.19 164.55 8.92 165.54 12.46 C 167.39 8.27 167.40 2.86 171.44 0.00 M 151.72 7.26 C 149.05 7.44 146.34 7.27 143.76 8.09 C 144.23 12.49 148.51 14.74 151.17 17.80 C 152.60 19.65 155.00 19.80 157.13 20.14 C 154.82 16.77 151.24 14.46 149.26 10.85 C 151.18 11.14 153.06 11.67 154.98 12.01 C 155.93 10.75 156.68 9.35 157.60 8.05 C 158.97 7.87 158.83 9.29 159.08 10.23 C 159.22 13.76 159.75 17.26 160.22 20.75 C 163.27 21.61 166.04 20.43 168.47 18.63 C 168.96 18.32 169.95 17.71 170.45 17.41 C 170.70 14.67 171.44 12.01 172.96 9.70 C 173.80 10.05 174.61 10.46 175.40 10.90 C 176.60 10.98 177.81 11.06 179.01 11.14 C 177.51 14.76 175.31 18.02 172.65 20.88 C 173.36 21.02 174.77 21.31 175.48 21.45 C 178.69 16.78 183.66 13.30 185.69 7.89 C 183.20 6.59 180.43 6.14 177.79 5.33 C 175.58 4.40 174.01 0.79 171.26 2.09 C 169.97 3.94 169.43 6.16 168.74 8.27 C 167.98 10.80 167.23 13.34 166.60 15.91 C 166.21 16.01 165.43 16.21 165.04 16.31 C 164.61 14.82 164.17 13.34 163.76 11.84 C 162.96 9.39 162.33 6.88 161.46 4.45 C 160.91 3.52 160.47 1.52 159.01 2.00 C 156.29 3.32 154.24 5.64 151.72 7.26 M 193.89 5.91 C 190.77 10.53 187.06 14.71 183.05 18.58 C 181.22 20.33 179.39 22.09 177.59 23.87 C 181.56 23.24 185.60 22.79 189.63 23.13 C 195.18 19.98 198.36 13.98 201.88 8.85 C 199.32 10.60 196.86 12.54 194.00 13.79 C 193.53 11.18 193.72 8.54 193.89 5.91 M 154.22 14.40 C 155.59 15.62 156.84 16.95 158.08 18.30 C 157.92 16.19 157.73 14.09 157.67 11.98 C 156.66 12.98 155.60 13.95 154.22 14.40 M 173.32 12.04 C 172.75 14.07 172.32 16.13 172.05 18.22 C 170.80 19.15 169.56 20.11 168.43 21.18 C 172.29 20.04 174.21 16.05 176.34 12.97 C 175.33 12.66 174.32 12.35 173.32 12.04 M 133.97 20.75 C 134.17 24.94 132.70 28.95 132.62 33.12 C 135.34 33.06 138.07 33.00 140.80 33.01 C 141.67 31.70 142.52 30.37 143.34 29.02 C 144.19 27.43 145.07 25.85 145.99 24.30 C 143.31 21.87 141.01 18.96 137.99 16.93 C 135.49 16.18 135.02 19.19 133.97 20.75 M 210.11 17.12 C 207.19 18.20 207.13 21.62 206.09 24.07 C 204.99 25.19 203.35 25.57 202.00 26.29 C 201.88 28.08 201.78 29.87 201.68 31.66 C 199.94 32.99 198.27 34.58 198.08 36.89 C 197.55 40.29 196.15 44.41 198.68 47.34 L 198.57 48.09 C 200.64 48.06 202.76 48.24 204.79 47.75 C 207.09 44.00 208.03 39.17 206.99 34.84 C 206.90 34.07 206.71 32.52 206.62 31.75 C 208.41 31.19 210.22 30.69 211.97 30.00 C 214.98 28.97 216.51 25.95 218.46 23.67 C 219.22 24.57 219.98 25.46 220.75 26.35 C 221.62 28.94 224.01 30.33 225.83 32.17 C 226.58 35.06 225.86 38.06 225.49 40.96 C 227.37 43.22 229.29 45.67 232.25 46.49 C 232.54 43.52 231.58 40.71 230.31 38.09 C 231.04 36.44 232.26 34.85 232.20 32.97 C 231.45 30.94 229.55 29.61 228.00 28.20 C 228.12 25.24 229.51 21.21 226.78 19.03 C 224.01 17.56 221.30 19.88 218.89 21.03 C 216.47 18.89 213.70 15.92 210.11 17.12 M 179.39 19.39 C 179.63 19.64 179.63 19.64 179.39 19.39 M 86.31 26.56 C 82.12 25.64 77.85 26.06 73.69 26.90 C 69.63 28.15 65.56 30.15 63.52 34.09 C 65.11 35.54 67.02 36.54 69.06 37.20 C 71.92 37.03 74.79 37.02 77.65 36.83 C 78.27 36.76 79.51 36.61 80.13 36.54 C 80.05 37.31 79.90 38.86 79.82 39.64 L 79.08 39.23 C 79.02 41.63 78.98 44.03 78.92 46.44 C 76.85 47.30 74.94 48.45 73.15 49.79 C 78.82 52.00 85.10 51.85 90.91 50.27 C 98.25 48.26 105.60 46.30 112.92 44.21 C 118.86 42.14 125.22 43.36 131.37 43.02 C 129.62 40.43 127.89 37.58 125.03 36.09 C 122.94 34.88 120.47 34.98 118.14 34.79 C 117.40 33.33 116.66 31.87 115.92 30.41 L 115.85 30.40 C 113.35 25.85 109.40 21.24 103.89 20.76 C 97.43 20.01 91.70 23.56 86.31 26.56 M 150.88 20.76 C 152.32 24.08 153.55 27.49 154.67 30.94 C 155.28 33.16 155.82 35.42 156.58 37.61 C 157.35 40.89 157.99 44.21 158.53 47.54 C 160.74 46.84 162.95 46.15 165.18 45.52 C 165.12 47.24 165.05 48.96 164.98 50.67 C 166.04 50.38 167.10 50.10 168.17 49.82 C 168.57 44.57 168.25 39.31 168.04 34.06 C 167.42 30.27 166.42 26.55 164.93 23.01 C 164.17 22.91 162.64 22.71 161.88 22.61 L 161.89 22.45 C 158.20 22.03 154.53 21.44 150.88 20.76 M 145.82 27.96 C 144.95 29.54 144.05 31.11 143.13 32.65 L 143.21 32.74 C 141.96 34.45 140.71 36.15 139.45 37.85 C 138.72 38.62 138.00 39.39 137.27 40.17 C 137.88 42.01 138.49 43.85 139.13 45.69 C 140.01 46.20 140.89 46.72 141.77 47.24 C 142.10 49.20 142.11 51.28 142.97 53.12 C 146.08 52.13 149.08 50.81 152.21 49.88 C 153.77 49.29 155.32 48.69 156.87 48.08 C 156.31 45.26 155.82 42.43 155.27 39.62 C 154.70 37.28 154.06 34.97 153.38 32.66 C 152.27 28.97 150.88 25.37 149.51 21.77 C 148.16 23.77 146.95 25.84 145.82 27.96 M 166.59 22.51 C 168.21 26.08 168.82 29.95 169.81 33.70 C 170.19 38.99 169.90 44.29 170.17 49.57 L 170.70 48.91 C 171.53 48.97 173.19 49.07 174.02 49.13 C 174.01 46.24 174.02 43.35 173.93 40.46 C 174.00 40.09 174.14 39.36 174.21 39.00 C 175.96 39.00 177.71 39.02 179.47 39.04 C 179.01 35.17 178.58 31.30 178.09 27.43 C 177.01 25.70 175.99 23.63 173.94 22.91 C 171.61 21.91 169.03 22.34 166.59 22.51 M 179.02 25.09 C 179.94 28.41 180.38 31.84 180.87 35.24 C 180.94 36.54 181.01 37.85 181.09 39.15 C 184.34 39.34 187.60 39.50 190.86 39.67 C 191.32 34.38 192.26 29.13 193.82 24.05 C 191.24 24.36 188.66 24.64 186.08 24.89 C 183.72 24.96 181.37 25.03 179.02 25.09 M 52.79 31.73 C 49.92 37.22 53.83 44.83 60.09 45.36 C 64.60 46.08 68.54 42.91 70.30 38.99 C 67.06 38.38 63.42 37.50 62.06 34.06 C 62.81 31.50 64.75 29.70 66.54 27.85 C 61.96 24.66 54.91 26.47 52.79 31.73 M 211.86 32.39 L 211.72 33.00 L 211.09 32.78 C 210.53 32.81 209.40 32.87 208.84 32.90 C 209.03 35.33 209.10 37.80 209.77 40.16 C 211.75 44.36 218.04 45.55 221.41 42.33 C 223.39 40.78 224.26 38.32 224.31 35.88 C 224.33 34.81 225.11 32.05 223.11 32.49 C 221.31 30.67 219.80 28.59 218.59 26.35 C 216.95 28.97 214.64 31.04 211.86 32.39 M 176.12 41.17 C 176.62 41.74 176.62 41.74 176.12 41.17 M 175.44 46.59 C 178.20 45.11 181.42 43.93 183.17 41.17 C 180.01 41.65 176.22 43.11 175.44 46.59 M 187.55 41.72 C 184.00 43.91 180.60 46.35 177.01 48.50 C 177.65 49.04 178.29 49.58 178.93 50.12 C 183.32 47.06 188.07 44.50 192.22 41.11 C 190.68 41.25 188.90 40.74 187.55 41.72 M 180.67 51.77 C 181.30 52.20 182.56 53.06 183.19 53.49 C 187.08 50.49 191.39 48.04 195.11 44.83 C 195.23 44.18 195.48 42.89 195.60 42.24 C 190.30 44.88 185.64 48.59 180.67 51.77 M 223.29 42.51 C 222.11 44.23 221.45 46.21 221.11 48.25 C 223.52 49.40 224.96 52.68 227.07 53.45 C 229.55 53.95 232.00 54.59 234.35 55.56 C 235.02 54.56 236.56 53.60 235.87 52.21 C 234.70 50.25 232.57 49.24 230.73 48.04 L 230.74 48.04 C 227.43 47.45 225.47 44.76 223.29 42.51 M 206.97 48.97 C 207.04 50.90 208.33 52.49 209.10 54.19 C 210.07 55.27 211.05 56.34 212.05 57.39 L 211.86 57.62 C 215.45 60.33 220.85 60.16 223.82 56.62 C 225.88 53.25 221.66 50.73 219.18 49.35 L 219.29 49.24 C 217.79 48.71 216.31 48.18 214.82 47.66 L 215.18 47.29 C 213.10 46.05 211.01 44.85 208.87 43.72 C 208.22 45.46 207.47 47.17 206.97 48.97 M 97.94 50.06 C 90.64 52.48 82.80 54.30 75.15 52.41 L 74.94 52.17 C 72.72 51.37 70.05 50.10 68.07 52.13 C 62.45 55.51 62.97 63.70 67.11 68.06 C 69.11 68.05 71.10 68.02 73.09 68.01 C 73.45 66.95 73.76 65.88 74.04 64.80 C 80.45 65.95 86.92 66.80 93.35 67.85 C 106.80 69.54 118.56 59.61 131.96 60.65 C 134.72 60.55 137.13 63.51 139.80 61.80 C 141.63 58.50 141.04 54.45 140.67 50.86 C 140.58 47.27 136.63 45.96 133.83 44.90 C 128.18 45.00 122.52 44.82 116.88 45.03 C 110.51 46.46 104.30 48.59 97.94 50.06 M 218.41 45.28 C 218.00 46.95 218.58 47.49 220.13 46.91 C 220.55 45.24 219.97 44.69 218.41 45.28 M 186.48 54.10 C 187.12 54.81 187.78 55.52 188.44 56.22 C 191.22 53.06 195.22 51.26 197.73 47.86 C 197.23 47.78 196.22 47.63 195.72 47.55 C 192.40 49.34 189.61 52.00 186.48 54.10 M 142.92 55.17 C 142.58 58.54 142.63 62.57 139.07 64.22 C 140.71 67.71 142.29 71.24 144.40 74.48 C 145.88 73.59 147.36 72.72 148.84 71.84 C 150.02 63.33 155.17 55.17 163.15 51.57 C 163.33 50.26 163.50 48.95 163.67 47.64 C 156.74 50.11 149.69 52.27 142.92 55.17 M 190.72 57.82 C 193.10 57.74 195.47 57.43 197.81 56.94 C 199.11 54.52 200.45 52.11 201.60 49.60 C 197.38 51.30 193.43 54.14 190.72 57.82 M 200.72 56.28 C 202.85 55.87 204.97 55.43 207.09 54.98 C 206.09 53.30 205.13 51.58 204.19 49.86 C 202.97 51.97 201.85 54.13 200.72 56.28 M 161.93 53.54 C 163.15 57.59 163.81 62.20 161.27 65.91 C 161.54 65.89 162.06 65.84 162.32 65.82 C 163.70 64.31 165.04 62.52 167.11 61.93 C 169.82 61.10 172.67 62.37 175.41 61.68 C 178.19 61.01 180.96 60.21 183.78 59.68 C 184.00 58.53 184.22 57.38 184.45 56.23 C 182.93 55.27 181.42 54.31 179.90 53.36 C 177.24 56.66 173.38 59.67 168.87 59.01 C 165.49 59.06 163.76 55.84 161.93 53.54 M 226.63 55.07 C 224.79 59.11 220.53 61.81 216.03 61.18 C 212.43 61.33 210.75 56.41 207.15 57.22 C 196.41 58.80 185.64 60.55 175.18 63.52 C 171.02 64.73 166.88 66.02 162.83 67.56 C 158.12 69.46 153.33 71.25 148.99 73.92 L 148.89 73.83 C 145.15 76.02 141.29 78.06 137.85 80.71 C 133.70 83.69 129.75 86.95 126.05 90.47 C 122.56 94.14 119.12 97.88 116.16 102.01 L 116.10 101.97 C 111.32 108.57 107.07 115.57 103.70 123.00 C 105.38 123.00 107.06 123.00 108.75 123.00 C 110.89 118.29 112.27 112.19 117.23 109.65 C 115.33 114.21 111.90 118.06 110.58 122.94 C 111.61 123.31 112.65 123.68 113.68 124.05 C 118.42 118.43 122.56 111.53 129.46 108.39 C 128.12 111.57 124.85 113.16 122.72 115.72 C 120.12 118.76 116.97 121.57 115.54 125.40 C 118.36 123.64 120.93 121.46 124.05 120.22 C 129.46 117.94 134.52 114.50 140.45 113.71 C 144.23 113.92 148.20 115.15 150.48 118.38 C 154.15 123.63 155.68 129.99 158.51 135.68 C 161.88 143.75 165.24 151.91 169.67 159.46 C 167.22 162.59 163.35 163.98 160.19 166.22 C 156.38 168.99 151.68 169.87 147.32 171.39 C 142.41 172.86 137.67 175.20 132.44 175.26 C 135.14 179.98 137.70 184.78 140.54 189.42 C 141.11 191.26 142.36 192.82 143.34 194.47 C 150.54 194.75 157.76 194.86 164.92 195.75 C 170.43 196.28 175.86 197.48 181.42 197.50 C 187.84 198.74 194.44 197.63 200.89 197.06 C 211.32 195.43 222.01 191.40 228.81 182.96 C 233.13 177.97 235.18 171.57 236.57 165.24 C 238.24 162.49 241.28 160.83 243.25 158.27 C 253.33 146.44 255.84 129.83 253.33 114.87 C 250.48 98.67 241.38 83.77 228.53 73.55 C 226.01 71.73 223.60 68.55 225.13 65.31 C 228.31 61.82 233.52 65.25 237.34 62.99 C 237.00 57.56 231.10 55.82 226.63 55.07 M 112.57 66.07 C 112.66 66.24 112.82 66.59 112.90 66.76 C 107.35 67.52 102.06 69.80 96.41 70.19 C 96.29 70.72 96.07 71.79 95.95 72.32 C 95.65 76.00 95.92 80.34 99.37 82.54 C 102.09 84.98 106.55 85.01 108.43 88.36 C 105.15 87.90 102.24 86.25 99.32 84.78 C 94.42 81.53 92.87 75.22 94.95 69.84 C 90.89 69.12 86.81 68.59 82.75 67.97 C 80.23 67.57 77.71 67.15 75.18 66.86 C 74.59 68.99 73.95 71.10 73.35 73.23 L 73.27 73.20 C 72.49 76.12 71.60 79.01 70.54 81.83 C 66.22 79.68 61.34 76.81 56.38 78.47 C 51.34 80.22 50.76 86.86 53.12 90.96 C 55.08 94.97 59.33 96.92 63.41 98.05 C 67.75 94.31 72.98 90.28 79.08 91.07 C 85.33 92.18 89.46 97.67 92.44 102.85 C 95.91 101.81 98.47 99.24 99.06 95.62 C 95.66 93.34 92.70 89.65 93.18 85.32 C 93.72 85.27 94.80 85.16 95.35 85.10 C 93.63 91.11 100.75 96.22 106.33 95.03 C 106.13 95.43 105.74 96.21 105.54 96.60 C 103.83 96.73 102.12 96.82 100.42 96.92 C 99.87 101.43 95.62 103.53 91.85 104.95 C 88.83 100.31 85.74 94.89 80.15 93.08 C 73.68 91.44 68.28 96.14 63.74 100.02 C 64.27 101.75 64.96 103.43 65.90 104.98 C 63.53 106.49 60.48 107.84 59.74 110.85 C 58.37 114.32 60.87 117.54 62.17 120.59 L 62.14 120.73 C 62.85 122.23 63.54 123.74 64.22 125.26 C 59.98 126.02 55.09 125.96 51.85 129.27 C 51.03 131.83 50.86 134.54 50.49 137.20 C 49.76 139.34 49.55 141.61 49.16 143.83 C 48.44 146.71 51.94 149.49 54.36 150.83 C 58.05 152.96 61.93 150.79 65.59 150.06 C 68.00 151.75 69.95 154.06 72.56 155.47 C 75.25 156.80 78.32 156.22 81.18 155.98 C 79.75 153.65 76.55 150.57 78.74 147.81 C 80.73 144.71 84.80 146.16 87.84 145.90 C 87.39 143.23 87.20 140.51 87.65 137.84 C 88.22 134.03 90.47 130.82 92.98 128.02 C 95.51 125.95 98.48 124.61 101.48 123.39 C 105.94 114.26 111.02 105.38 117.46 97.47 C 121.40 92.76 125.81 88.47 130.32 84.29 C 134.41 81.19 138.45 78.01 142.84 75.31 C 141.43 72.95 140.03 70.56 139.00 68.00 C 138.24 66.25 137.54 64.16 135.57 63.45 C 127.80 60.72 120.06 64.17 112.57 66.07 M 151.03 70.51 C 151.50 70.31 152.45 69.90 152.92 69.70 C 152.91 67.87 149.87 69.19 151.03 70.51 M 2.51 105.46 C 0.50 107.89 2.92 110.54 4.89 111.97 C 7.34 112.86 9.81 113.70 12.37 114.22 C 13.17 112.16 14.69 110.56 16.57 109.43 L 16.57 109.15 C 20.39 108.90 25.11 109.12 27.62 112.45 L 26.68 113.14 C 25.79 112.63 24.89 112.12 23.99 111.62 C 21.05 110.94 16.94 109.87 14.93 112.89 C 11.57 118.02 16.30 126.67 22.84 124.03 L 22.68 123.63 C 24.48 122.35 26.24 121.00 28.01 119.68 C 28.45 116.82 28.88 113.96 29.36 111.11 C 30.54 109.91 31.02 108.19 31.84 106.75 C 30.91 106.09 29.98 105.43 29.05 104.78 L 28.98 104.82 C 26.82 103.44 24.48 102.38 22.07 101.55 L 21.23 102.10 L 22.03 101.28 C 15.44 100.62 7.47 100.27 2.51 105.46 M 33.19 107.82 C 31.90 110.39 30.36 112.97 30.24 115.92 C 29.70 124.01 28.06 132.04 28.02 140.14 C 28.51 145.13 34.61 144.19 38.13 145.13 C 41.37 145.82 46.42 146.87 47.52 142.53 C 48.98 135.08 50.62 127.58 50.85 119.97 C 50.71 116.39 50.17 111.29 45.95 110.31 C 41.62 109.91 37.32 109.19 33.19 107.82 M 7.72 127.13 C 10.16 133.24 17.04 138.79 23.76 135.39 C 24.77 134.48 25.80 133.58 26.82 132.68 C 26.89 131.58 26.95 130.47 27.01 129.37 C 27.00 127.19 27.00 125.01 27.03 122.82 C 25.01 124.27 22.84 125.49 20.57 126.50 C 14.91 126.11 12.10 120.73 11.76 115.63 C 7.89 118.12 6.28 122.75 7.72 127.13 M 52.12 115.93 C 52.51 119.03 52.51 122.15 52.16 125.26 C 55.29 124.69 58.40 124.07 61.52 123.44 C 60.35 121.03 59.57 118.39 57.93 116.25 C 56.00 115.99 54.06 115.99 52.12 115.93 M 125.47 121.55 C 127.67 121.94 129.78 122.67 131.72 123.78 C 133.52 126.00 135.14 128.36 136.56 130.84 C 137.59 133.77 138.66 136.90 138.01 140.04 C 137.17 142.72 135.44 145.12 135.16 147.97 C 134.90 150.90 134.91 153.86 134.68 156.80 C 133.62 160.26 130.90 162.72 127.69 164.20 C 125.97 164.74 124.27 165.30 122.58 165.88 C 125.05 168.69 127.56 171.78 131.12 173.23 C 133.43 173.75 136.32 173.72 138.31 172.44 C 143.87 170.83 149.36 168.99 154.82 167.08 C 154.81 162.41 155.00 157.74 155.02 153.07 C 155.14 148.99 154.48 144.77 155.80 140.83 C 157.39 142.50 156.93 144.86 157.00 146.94 C 156.91 153.40 156.93 159.87 156.82 166.33 C 157.21 166.07 157.99 165.55 158.38 165.29 C 161.46 163.51 164.46 161.59 167.49 159.74 C 166.14 156.68 164.72 153.65 163.10 150.72 C 158.89 140.96 154.65 131.21 150.58 121.38 L 150.45 121.38 C 148.71 118.72 146.34 115.93 142.91 115.78 C 136.48 114.90 131.04 119.08 125.47 121.55 M 118.43 125.33 C 120.65 126.98 122.93 128.54 125.08 130.28 C 125.37 137.36 124.53 145.11 119.76 150.70 C 116.79 154.30 112.07 155.69 107.57 155.86 C 108.36 159.06 107.86 164.00 111.99 164.92 C 118.16 165.97 124.71 164.09 129.95 160.82 C 134.11 158.07 132.68 152.67 133.30 148.49 C 133.58 145.06 135.54 142.16 136.52 138.94 C 136.58 133.82 134.06 128.90 130.58 125.27 C 127.08 122.21 122.11 123.07 118.43 125.33 M 93.21 130.27 C 89.30 134.50 88.16 140.74 89.67 146.22 C 91.33 146.13 92.99 146.05 94.66 145.99 C 98.15 151.65 105.24 155.36 111.84 153.59 C 117.12 152.35 120.54 147.72 122.20 142.83 C 123.02 138.95 123.42 135.00 123.47 131.04 C 120.19 128.53 116.60 126.41 112.61 125.27 L 112.84 125.07 C 109.62 124.80 106.40 124.66 103.17 124.83 C 99.52 125.89 95.80 127.36 93.21 130.27 M 83.21 157.69 L 82.35 156.77 C 81.93 159.09 80.45 161.83 82.14 164.00 C 84.25 166.16 86.58 168.15 89.08 169.85 C 91.64 171.17 94.10 169.04 96.23 167.86 C 99.62 171.35 104.47 170.61 108.70 169.37 C 108.02 167.06 107.32 164.76 106.69 162.43 L 106.57 162.53 C 106.00 160.30 106.06 157.94 105.35 155.76 C 103.76 154.76 101.93 154.25 100.19 153.58 C 99.82 155.85 99.33 158.10 98.67 160.30 C 97.66 159.02 97.78 157.39 97.73 155.86 C 97.92 155.54 98.31 154.88 98.50 154.55 C 99.41 151.92 95.68 152.85 95.02 154.30 C 93.72 154.75 92.42 155.22 91.13 155.71 C 91.05 155.31 90.88 154.53 90.80 154.14 C 92.83 153.23 94.88 152.36 96.95 151.55 C 95.96 150.37 94.97 149.18 93.98 148.00 C 91.61 148.01 89.23 147.90 86.90 147.46 C 84.88 147.54 82.87 147.61 80.85 147.63 C 78.00 151.16 83.24 154.06 83.21 157.69 M 60.10 153.27 C 60.00 155.36 59.89 157.45 59.77 159.55 C 59.57 160.36 59.19 161.98 58.99 162.79 C 60.66 161.99 62.50 161.48 64.01 160.39 C 66.66 159.40 69.26 158.26 71.85 157.13 C 70.71 156.33 69.57 155.55 68.44 154.76 C 67.60 154.06 66.76 153.36 65.92 152.67 L 66.45 151.84 C 64.30 152.20 62.20 152.73 60.10 153.27 M 62.23 163.20 C 56.59 164.74 54.89 171.91 56.40 176.94 C 59.05 184.02 66.56 188.50 73.92 188.93 C 76.42 188.81 79.70 188.15 81.04 185.88 L 81.11 184.95 L 81.60 184.99 C 82.00 184.59 82.79 183.79 83.19 183.39 C 85.19 186.82 86.59 191.59 91.13 192.38 C 96.11 192.48 101.08 191.84 106.07 191.92 C 114.60 191.48 123.21 192.07 131.68 190.78 C 134.05 190.85 136.36 190.12 138.70 189.83 C 135.90 185.04 133.35 180.10 130.48 175.35 C 128.14 172.06 123.98 174.18 120.72 174.12 C 112.20 175.11 103.51 176.46 94.97 174.97 C 91.95 174.47 89.11 173.03 87.05 170.75 C 85.30 168.86 83.20 167.38 81.27 165.71 C 79.35 163.91 79.76 161.00 79.42 158.64 C 77.46 158.68 75.50 158.59 73.58 158.24 C 69.78 159.85 66.04 161.61 62.23 163.20 M 109.79 165.85 C 109.88 167.64 109.92 169.42 109.93 171.22 C 105.37 171.57 99.93 173.83 96.25 169.97 C 94.76 170.79 93.28 171.62 91.82 172.48 C 103.00 175.68 114.54 172.72 125.84 171.90 C 123.93 169.99 122.11 167.99 120.27 166.01 L 119.35 166.90 C 116.13 167.06 112.79 167.29 109.79 165.85 M 79.06 189.69 C 80.35 191.39 81.20 193.67 83.01 194.84 C 89.87 196.05 96.87 196.54 103.81 197.21 C 103.39 196.03 102.81 194.95 102.06 193.99 C 98.04 193.71 94.01 194.37 90.00 193.89 C 86.56 192.89 84.45 189.79 82.87 186.80 C 81.61 187.78 80.34 188.75 79.06 189.69 M 124.78 193.20 C 119.35 193.36 113.92 193.36 108.49 193.47 C 108.75 194.66 109.01 195.85 109.27 197.05 C 114.89 196.24 120.55 195.69 126.20 195.06 C 131.10 194.59 135.99 193.96 140.88 193.42 C 140.53 192.97 139.83 192.06 139.48 191.61 C 134.58 192.05 129.73 193.18 124.78 193.20 M 104.03 193.66 C 104.70 195.16 105.15 196.83 106.39 197.99 C 108.42 197.48 106.73 195.11 106.94 193.76 C 105.96 193.72 104.99 193.69 104.03 193.66 M 114.32 198.22 C 111.91 198.15 109.54 198.78 107.20 199.30 L 106.94 199.25 C 107.12 202.87 106.42 206.70 108.02 210.10 C 112.42 210.71 116.89 210.73 121.32 210.86 C 126.14 211.10 131.01 211.33 135.81 210.71 L 136.97 210.86 C 143.23 209.93 149.53 208.52 155.01 205.22 C 154.98 202.37 155.06 199.52 155.20 196.68 C 150.49 195.82 145.06 197.35 140.89 194.77 L 140.36 195.35 C 131.66 196.12 122.99 197.19 114.32 198.22 M 80.79 196.75 C 80.28 198.45 79.50 200.13 79.53 201.94 C 80.03 205.67 83.87 207.60 86.93 209.00 C 92.80 209.44 98.79 209.23 104.56 207.99 C 104.72 205.02 104.88 202.06 104.96 199.09 C 104.30 199.23 102.99 199.52 102.33 199.66 C 97.34 199.87 92.35 199.31 87.46 198.37 C 85.23 197.86 83.01 197.30 80.79 196.75 M 84.72 212.00 C 79.38 213.76 73.36 214.65 69.61 219.29 C 67.08 222.31 66.36 226.20 66.88 230.04 C 71.88 232.07 77.30 232.84 82.67 232.70 C 86.81 232.45 90.93 231.75 94.72 230.02 C 95.73 227.95 97.00 226.02 98.40 224.19 C 102.04 222.07 106.38 221.80 110.07 219.78 C 110.46 218.62 110.85 217.46 111.23 216.30 C 108.13 213.57 104.28 211.10 99.98 211.26 C 94.89 211.32 89.73 210.82 84.72 212.00 M 111.60 212.29 C 112.49 214.16 113.97 215.61 115.62 216.83 C 115.62 215.26 115.61 213.70 115.60 212.14 C 114.27 212.18 112.93 212.23 111.60 212.29 M 142.11 213.23 L 142.02 213.43 C 133.83 214.77 125.51 214.75 117.29 213.75 C 117.25 215.51 117.28 217.27 117.07 219.02 C 115.29 220.36 112.77 220.34 110.70 221.11 C 104.77 223.32 99.78 228.87 100.04 235.47 C 103.01 236.72 105.67 239.17 109.05 239.09 C 118.16 239.04 127.31 239.20 136.36 237.87 C 141.62 237.63 146.86 236.39 151.91 234.92 C 155.72 233.63 160.38 231.58 161.00 227.08 C 158.47 223.67 154.32 222.03 150.87 219.74 C 148.54 217.75 148.06 214.65 147.59 211.81 C 145.76 212.28 143.94 212.77 142.11 213.23 M 64.52 229.24 C 64.79 225.43 65.81 221.78 67.93 218.58 C 64.11 220.42 60.44 225.72 64.52 229.24 M 97.76 227.85 C 96.44 230.00 94.68 233.50 98.09 234.64 C 98.56 230.50 100.55 226.86 103.15 223.68 C 101.07 224.63 98.96 225.81 97.76 227.85 Z" />
<path fill="#000000" opacity="1.00" d=" M 215.41 32.40 C 216.26 32.54 217.10 32.71 217.94 32.91 C 217.12 34.04 216.30 35.17 215.42 36.24 C 214.93 34.93 214.93 33.65 215.41 32.40 Z" />
<path fill="#000000" opacity="1.00" d=" M 219.17 33.15 C 219.77 33.03 220.98 32.79 221.59 32.66 C 221.49 33.23 221.29 34.36 221.19 34.93 C 220.60 35.07 219.42 35.36 218.83 35.51 C 218.92 34.92 219.09 33.74 219.17 33.15 Z" />
<path fill="#000000" opacity="1.00" d=" M 211.82 36.16 C 213.39 37.41 214.94 38.69 216.52 39.93 C 217.99 39.17 219.47 38.41 220.95 37.66 L 220.84 38.80 C 219.49 39.98 218.13 41.46 216.23 41.63 C 213.58 41.25 212.30 38.51 211.82 36.16 Z" />
<path fill="#000000" opacity="1.00" d=" M 74.56 71.22 C 77.24 70.43 80.02 69.84 82.85 70.05 C 87.19 73.45 85.13 79.22 83.19 83.37 C 80.78 80.31 78.37 77.24 76.14 74.04 C 75.59 73.11 75.06 72.17 74.56 71.22 M 76.85 71.99 C 78.77 74.81 80.84 77.52 82.81 80.30 C 83.55 77.55 84.42 74.61 82.91 71.96 C 80.89 71.94 78.87 71.96 76.85 71.99 Z" />
<path fill="#000000" opacity="1.00" d=" M 71.92 82.88 C 72.60 82.17 73.30 81.48 74.03 80.82 C 76.82 82.86 76.15 86.66 74.81 89.35 C 71.54 88.90 71.95 85.31 71.92 82.88 Z" />
<path fill="#000000" opacity="1.00" d=" M 74.06 104.69 C 76.79 103.91 78.24 101.25 80.28 99.50 C 79.30 102.77 79.09 106.36 77.26 109.32 C 73.70 106.90 68.35 106.30 67.09 101.49 C 69.38 102.60 71.50 104.21 74.06 104.69 Z" />
<path fill="#000000" opacity="1.00" d=" M 68.05 111.22 C 68.47 110.55 68.89 109.89 69.30 109.22 C 71.06 111.25 73.40 112.58 75.64 113.99 C 74.05 114.00 72.46 114.01 70.87 114.02 C 69.91 113.10 68.97 112.17 68.05 111.22 Z" />
</g>
<g id="#fcd842ff">
<path fill="#fcd842" opacity="1.00" d=" M 151.72 7.26 C 154.24 5.64 156.29 3.32 159.01 2.00 C 160.47 1.52 160.91 3.52 161.46 4.45 C 162.33 6.88 162.96 9.39 163.76 11.84 C 162.20 11.30 160.64 10.76 159.08 10.23 C 158.83 9.29 158.97 7.87 157.60 8.05 C 156.68 9.35 155.93 10.75 154.98 12.01 C 153.06 11.67 151.18 11.14 149.26 10.85 C 151.24 14.46 154.82 16.77 157.13 20.14 C 155.00 19.80 152.60 19.65 151.17 17.80 C 148.51 14.74 144.23 12.49 143.76 8.09 C 146.34 7.27 149.05 7.44 151.72 7.26 Z" />
</g>
<g id="#fee05eff">
<path fill="#fee05e" opacity="1.00" d=" M 171.26 2.09 C 174.01 0.79 175.58 4.40 177.79 5.33 C 180.43 6.14 183.20 6.59 185.69 7.89 C 183.66 13.30 178.69 16.78 175.48 21.45 C 174.77 21.31 173.36 21.02 172.65 20.88 C 175.31 18.02 177.51 14.76 179.01 11.14 C 177.81 11.06 176.60 10.98 175.40 10.90 C 174.61 10.46 173.80 10.05 172.96 9.70 C 171.57 9.18 170.16 8.72 168.74 8.27 C 169.43 6.16 169.97 3.94 171.26 2.09 Z" />
</g>
<g id="#fbd63eff">
<path fill="#fbd63e" opacity="1.00" d=" M 193.89 5.91 C 193.72 8.54 193.53 11.18 194.00 13.79 C 196.86 12.54 199.32 10.60 201.88 8.85 C 198.36 13.98 195.18 19.98 189.63 23.13 C 189.25 21.85 188.87 20.56 188.50 19.28 C 186.68 19.04 184.87 18.81 183.05 18.58 C 187.06 14.71 190.77 10.53 193.89 5.91 Z" />
</g>
<g id="#fbd532ff">
<path fill="#fbd532" opacity="1.00" d=" M 168.74 8.27 C 170.16 8.72 171.57 9.18 172.96 9.70 C 171.44 12.01 170.70 14.67 170.45 17.41 C 169.95 17.71 168.96 18.32 168.47 18.63 C 168.53 17.55 168.59 16.47 168.66 15.40 C 168.15 15.52 167.11 15.78 166.60 15.91 C 167.23 13.34 167.98 10.80 168.74 8.27 Z" />
</g>
<g id="#f9cc12ff">
<path fill="#f9cc12" opacity="1.00" d=" M 159.08 10.23 C 160.64 10.76 162.20 11.30 163.76 11.84 C 164.17 13.34 164.61 14.82 165.04 16.31 C 165.43 16.21 166.21 16.01 166.60 15.91 C 167.11 15.78 168.15 15.52 168.66 15.40 C 168.59 16.47 168.53 17.55 168.47 18.63 C 166.04 20.43 163.27 21.61 160.22 20.75 C 159.75 17.26 159.22 13.76 159.08 10.23 Z" />
</g>
<g id="#fddd53ff">
<path fill="#fddd53" opacity="1.00" d=" M 133.97 20.75 C 135.02 19.19 135.49 16.18 137.99 16.93 C 141.01 18.96 143.31 21.87 145.99 24.30 C 145.07 25.85 144.19 27.43 143.34 29.02 C 138.81 28.29 135.88 24.65 133.97 20.75 Z" />
</g>
<g id="#242424ff">
<path fill="#242424" opacity="1.00" d=" M 210.11 17.12 C 213.70 15.92 216.47 18.89 218.89 21.03 C 221.30 19.88 224.01 17.56 226.78 19.03 C 229.51 21.21 228.12 25.24 228.00 28.20 C 225.95 26.56 223.36 25.06 220.75 26.35 C 219.98 25.46 219.22 24.57 218.46 23.67 C 216.51 25.95 214.98 28.97 211.97 30.00 C 210.22 30.69 208.41 31.19 206.62 31.75 C 206.71 32.52 206.90 34.07 206.99 34.84 C 206.49 34.70 205.48 34.42 204.98 34.28 C 200.96 37.46 198.93 42.29 198.68 47.34 C 196.15 44.41 197.55 40.29 198.08 36.89 C 198.27 34.58 199.94 32.99 201.68 31.66 C 201.78 29.87 201.88 28.08 202.00 26.29 C 203.35 25.57 204.99 25.19 206.09 24.07 C 207.13 21.62 207.19 18.20 210.11 17.12 Z" />
</g>
<g id="#757575ff">
<path fill="#757575" opacity="1.00" d=" M 179.39 19.39 C 179.63 19.64 179.63 19.64 179.39 19.39 Z" />
</g>
<g id="#f8cc17ff">
<path fill="#f8cc17" opacity="1.00" d=" M 177.59 23.87 C 179.39 22.09 181.22 20.33 183.05 18.58 C 184.87 18.81 186.68 19.04 188.50 19.28 C 188.87 20.56 189.25 21.85 189.63 23.13 C 185.60 22.79 181.56 23.24 177.59 23.87 Z" />
</g>
<g id="#e21919ff">
<path fill="#e21919" opacity="1.00" d=" M 86.31 26.56 C 91.70 23.56 97.43 20.01 103.89 20.76 C 109.40 21.24 113.35 25.85 115.85 30.40 C 111.09 29.92 106.82 27.32 102.00 27.26 C 95.39 26.96 88.33 27.01 82.47 30.50 C 80.08 31.89 78.99 34.56 77.65 36.83 C 74.79 37.02 71.92 37.03 69.06 37.20 C 71.41 34.14 73.57 30.89 76.52 28.35 C 75.57 27.87 74.63 27.38 73.69 26.90 C 77.85 26.06 82.12 25.64 86.31 26.56 Z" />
<path fill="#e21919" opacity="1.00" d=" M 7.72 127.13 C 6.28 122.75 7.89 118.12 11.76 115.63 C 12.10 120.73 14.91 126.11 20.57 126.50 C 22.78 127.31 24.89 128.35 27.01 129.37 C 26.95 130.47 26.89 131.58 26.82 132.68 C 25.80 133.58 24.77 134.48 23.76 135.39 C 23.61 134.54 23.46 133.69 23.31 132.85 C 18.17 131.45 13.57 128.72 9.46 125.38 C 9.03 125.82 8.15 126.69 7.72 127.13 Z" />
</g>
<g id="#ffe46dff">
<path fill="#ffe46d" opacity="1.00" d=" M 133.97 20.75 C 135.88 24.65 138.81 28.29 143.34 29.02 C 142.52 30.37 141.67 31.70 140.80 33.01 C 138.07 33.00 135.34 33.06 132.62 33.12 C 132.70 28.95 134.17 24.94 133.97 20.75 Z" />
</g>
<g id="#4343bbff">
<path fill="#4343bb" opacity="1.00" d=" M 150.88 20.76 C 154.53 21.44 158.20 22.03 161.89 22.45 L 161.88 22.61 C 161.67 24.61 161.93 26.91 160.50 28.53 C 159.15 30.35 156.68 30.38 154.67 30.94 C 153.55 27.49 152.32 24.08 150.88 20.76 Z" />
</g>
<g id="#4545b9ff">
<path fill="#4545b9" opacity="1.00" d=" M 145.82 27.96 C 146.95 25.84 148.16 23.77 149.51 21.77 C 150.88 25.37 152.27 28.97 153.38 32.66 C 149.91 33.08 147.77 30.35 145.82 27.96 Z" />
</g>
<g id="#f9cd19ff">
<path fill="#f9cd19" opacity="1.00" d=" M 166.59 22.51 C 169.03 22.34 171.61 21.91 173.94 22.91 C 175.99 23.63 177.01 25.70 178.09 27.43 C 177.17 31.26 175.42 34.87 172.09 37.15 C 171.31 36.01 170.54 34.87 169.81 33.70 C 168.82 29.95 168.21 26.08 166.59 22.51 Z" />
</g>
<g id="#3131cdff">
<path fill="#3131cd" opacity="1.00" d=" M 160.50 28.53 C 161.93 26.91 161.67 24.61 161.88 22.61 C 162.64 22.71 164.17 22.91 164.93 23.01 C 166.42 26.55 167.42 30.27 168.04 34.06 C 164.58 35.92 160.73 39.70 156.58 37.61 C 155.82 35.42 155.28 33.16 154.67 30.94 C 156.68 30.38 159.15 30.35 160.50 28.53 Z" />
</g>
<g id="#1010eeff">
<path fill="#1010ee" opacity="1.00" d=" M 179.02 25.09 C 181.37 25.03 183.72 24.96 186.08 24.89 C 186.73 25.63 187.37 26.37 188.02 27.10 C 186.81 30.22 185.14 33.12 183.04 35.72 C 182.50 35.60 181.41 35.36 180.87 35.24 C 180.38 31.84 179.94 28.41 179.02 25.09 Z" />
</g>
<g id="#0303fbff">
<path fill="#0303fb" opacity="1.00" d=" M 186.08 24.89 C 188.66 24.64 191.24 24.36 193.82 24.05 C 192.26 29.13 191.32 34.38 190.86 39.67 C 187.60 39.50 184.34 39.34 181.09 39.15 C 181.01 37.85 180.94 36.54 180.87 35.24 C 181.41 35.36 182.50 35.60 183.04 35.72 C 185.14 33.12 186.81 30.22 188.02 27.10 C 187.37 26.37 186.73 25.63 186.08 24.89 Z" />
</g>
<g id="#181818ff">
<path fill="#181818" opacity="1.00" d=" M 220.75 26.35 C 223.36 25.06 225.95 26.56 228.00 28.20 C 229.55 29.61 231.45 30.94 232.20 32.97 C 232.26 34.85 231.04 36.44 230.31 38.09 C 231.58 40.71 232.54 43.52 232.25 46.49 C 229.29 45.67 227.37 43.22 225.49 40.96 C 225.86 38.06 226.58 35.06 225.83 32.17 C 224.01 30.33 221.62 28.94 220.75 26.35 Z" />
</g>
<g id="#f0f0f0ff">
<path fill="#f0f0f0" opacity="1.00" d=" M 52.79 31.73 C 54.91 26.47 61.96 24.66 66.54 27.85 C 64.75 29.70 62.81 31.50 62.06 34.06 C 63.42 37.50 67.06 38.38 70.30 38.99 C 68.54 42.91 64.60 46.08 60.09 45.36 C 53.83 44.83 49.92 37.22 52.79 31.73 Z" />
</g>
<g id="#da0c0cff">
<path fill="#da0c0c" opacity="1.00" d=" M 63.52 34.09 C 65.56 30.15 69.63 28.15 73.69 26.90 C 74.63 27.38 75.57 27.87 76.52 28.35 C 73.57 30.89 71.41 34.14 69.06 37.20 C 67.02 36.54 65.11 35.54 63.52 34.09 Z" />
</g>
<g id="#f03333ff">
<path fill="#f03333" opacity="1.00" d=" M 82.47 30.50 C 88.33 27.01 95.39 26.96 102.00 27.26 C 106.82 27.32 111.09 29.92 115.85 30.40 L 115.92 30.41 C 116.66 31.87 117.40 33.33 118.14 34.79 C 116.22 37.54 114.59 40.86 111.37 42.30 C 105.70 45.11 99.20 45.15 93.03 44.68 C 88.22 44.36 83.93 41.94 79.82 39.64 C 79.90 38.86 80.05 37.31 80.13 36.54 C 79.51 36.61 78.27 36.76 77.65 36.83 C 78.99 34.56 80.08 31.89 82.47 30.50 Z" />
</g>
<g id="#ff9a56ff">
<path fill="#ff9a56" opacity="1.00" d=" M 211.86 32.39 C 214.64 31.04 216.95 28.97 218.59 26.35 C 219.80 28.59 221.31 30.67 223.11 32.49 C 222.73 32.53 221.97 32.62 221.59 32.66 C 220.98 32.79 219.77 33.03 219.17 33.15 C 219.09 33.74 218.92 34.92 218.83 35.51 C 219.42 35.36 220.60 35.07 221.19 34.93 C 221.13 35.61 221.01 36.97 220.95 37.66 C 219.47 38.41 217.99 39.17 216.52 39.93 C 214.94 38.69 213.39 37.41 211.82 36.16 C 211.79 35.37 211.74 33.79 211.72 33.00 L 211.86 32.39 M 215.41 32.40 C 214.93 33.65 214.93 34.93 215.42 36.24 C 216.30 35.17 217.12 34.04 217.94 32.91 C 217.10 32.71 216.26 32.54 215.41 32.40 Z" />
<path fill="#ff9a56" opacity="1.00" d=" M 218.41 45.28 C 219.97 44.69 220.55 45.24 220.13 46.91 C 218.58 47.49 218.00 46.95 218.41 45.28 Z" />
<path fill="#ff9a56" opacity="1.00" d=" M 200.72 56.28 C 201.85 54.13 202.97 51.97 204.19 49.86 C 205.13 51.58 206.09 53.30 207.09 54.98 C 204.97 55.43 202.85 55.87 200.72 56.28 Z" />
</g>
<g id="#3636c8ff">
<path fill="#3636c8" opacity="1.00" d=" M 145.82 27.96 C 147.77 30.35 149.91 33.08 153.38 32.66 C 154.06 34.97 154.70 37.28 155.27 39.62 C 149.90 41.03 146.47 36.08 143.21 32.74 L 143.13 32.65 C 144.05 31.11 144.95 29.54 145.82 27.96 Z" />
</g>
<g id="#fdd535ff">
<path fill="#fdd535" opacity="1.00" d=" M 172.09 37.15 C 175.42 34.87 177.17 31.26 178.09 27.43 C 178.58 31.30 179.01 35.17 179.47 39.04 C 177.71 39.02 175.96 39.00 174.21 39.00 C 174.14 39.36 174.00 40.09 173.93 40.46 C 173.25 43.40 172.88 46.63 170.70 48.91 L 170.17 49.57 C 169.90 44.29 170.19 38.99 169.81 33.70 C 170.54 34.87 171.31 36.01 172.09 37.15 Z" />
</g>
<g id="#ff8f44ff">
<path fill="#ff8f44" opacity="1.00" d=" M 223.11 32.49 C 225.11 32.05 224.33 34.81 224.31 35.88 C 224.26 38.32 223.39 40.78 221.41 42.33 C 218.04 45.55 211.75 44.36 209.77 40.16 C 209.10 37.80 209.03 35.33 208.84 32.90 C 209.40 32.87 210.53 32.81 211.09 32.78 L 211.72 33.00 C 211.74 33.79 211.79 35.37 211.82 36.16 C 212.30 38.51 213.58 41.25 216.23 41.63 C 218.13 41.46 219.49 39.98 220.84 38.80 L 220.95 37.66 C 221.01 36.97 221.13 35.61 221.19 34.93 C 221.29 34.36 221.49 33.23 221.59 32.66 C 221.97 32.62 222.73 32.53 223.11 32.49 Z" />
</g>
<g id="#2525daff">
<path fill="#2525da" opacity="1.00" d=" M 143.21 32.74 C 146.47 36.08 149.90 41.03 155.27 39.62 C 155.82 42.43 156.31 45.26 156.87 48.08 C 155.32 48.69 153.77 49.29 152.21 49.88 C 146.93 47.15 141.77 43.57 139.45 37.85 C 140.71 36.15 141.96 34.45 143.21 32.74 Z" />
</g>
<g id="#1717e7ff">
<path fill="#1717e7" opacity="1.00" d=" M 156.58 37.61 C 160.73 39.70 164.58 35.92 168.04 34.06 C 168.25 39.31 168.57 44.57 168.17 49.82 C 167.10 50.10 166.04 50.38 164.98 50.67 C 165.05 48.96 165.12 47.24 165.18 45.52 C 162.95 46.15 160.74 46.84 158.53 47.54 C 157.99 44.21 157.35 40.89 156.58 37.61 Z" />
</g>
<g id="#131313ff">
<path fill="#131313" opacity="1.00" d=" M 204.98 34.28 C 205.48 34.42 206.49 34.70 206.99 34.84 C 208.03 39.17 207.09 44.00 204.79 47.75 C 202.76 48.24 200.64 48.06 198.57 48.09 L 198.68 47.34 C 198.93 42.29 200.96 37.46 204.98 34.28 Z" />
</g>
<g id="#e11616ff">
<path fill="#e11616" opacity="1.00" d=" M 111.37 42.30 C 114.59 40.86 116.22 37.54 118.14 34.79 C 120.47 34.98 122.94 34.88 125.03 36.09 C 127.89 37.58 129.62 40.43 131.37 43.02 C 125.22 43.36 118.86 42.14 112.92 44.21 C 105.60 46.30 98.25 48.26 90.91 50.27 C 85.10 51.85 78.82 52.00 73.15 49.79 C 74.94 48.45 76.85 47.30 78.92 46.44 C 78.98 44.03 79.02 41.63 79.08 39.23 L 79.82 39.64 C 83.93 41.94 88.22 44.36 93.03 44.68 C 99.20 45.15 105.70 45.11 111.37 42.30 Z" />
</g>
<g id="#1313ecff">
<path fill="#1313ec" opacity="1.00" d=" M 137.27 40.17 C 138.00 39.39 138.72 38.62 139.45 37.85 C 141.77 43.57 146.93 47.15 152.21 49.88 C 149.08 50.81 146.08 52.13 142.97 53.12 C 142.11 51.28 142.10 49.20 141.77 47.24 C 140.89 46.72 140.01 46.20 139.13 45.69 C 138.49 43.85 137.88 42.01 137.27 40.17 Z" />
</g>
<g id="#fff553ff">
<path fill="#fff553" opacity="1.00" d=" M 170.70 48.91 C 172.88 46.63 173.25 43.40 173.93 40.46 C 174.02 43.35 174.01 46.24 174.02 49.13 C 173.19 49.07 171.53 48.97 170.70 48.91 Z" />
</g>
<g id="#03a038ff">
<path fill="#03a038" opacity="1.00" d=" M 176.12 41.17 C 176.62 41.74 176.62 41.74 176.12 41.17 Z" />
</g>
<g id="#039132ff">
<path fill="#039132" opacity="1.00" d=" M 175.44 46.59 C 176.22 43.11 180.01 41.65 183.17 41.17 C 181.42 43.93 178.20 45.11 175.44 46.59 Z" />
</g>
<g id="#029232ff">
<path fill="#029232" opacity="1.00" d=" M 187.55 41.72 C 188.90 40.74 190.68 41.25 192.22 41.11 C 188.07 44.50 183.32 47.06 178.93 50.12 C 178.29 49.58 177.65 49.04 177.01 48.50 C 180.60 46.35 184.00 43.91 187.55 41.72 Z" />
</g>
<g id="#017f2bff">
<path fill="#017f2b" opacity="1.00" d=" M 180.67 51.77 C 185.64 48.59 190.30 44.88 195.60 42.24 C 195.48 42.89 195.23 44.18 195.11 44.83 C 191.39 48.04 187.08 50.49 183.19 53.49 C 182.56 53.06 181.30 52.20 180.67 51.77 Z" />
</g>
<g id="#ff9e5eff">
<path fill="#ff9e5e" opacity="1.00" d=" M 223.29 42.51 C 225.47 44.76 227.43 47.45 230.74 48.04 L 230.73 48.04 C 229.41 49.78 228.25 51.62 227.07 53.45 C 224.96 52.68 223.52 49.40 221.11 48.25 C 221.45 46.21 222.11 44.23 223.29 42.51 Z" />
</g>
<g id="#ffa163ff">
<path fill="#ffa163" opacity="1.00" d=" M 206.97 48.97 C 207.47 47.17 208.22 45.46 208.87 43.72 C 211.01 44.85 213.10 46.05 215.18 47.29 L 214.82 47.66 C 212.77 49.71 210.87 51.91 209.10 54.19 C 208.33 52.49 207.04 50.90 206.97 48.97 Z" />
</g>
<g id="#017628ff">
<path fill="#017628" opacity="1.00" d=" M 186.48 54.10 C 189.61 52.00 192.40 49.34 195.72 47.55 C 196.22 47.63 197.23 47.78 197.73 47.86 C 195.22 51.26 191.22 53.06 188.44 56.22 C 187.78 55.52 187.12 54.81 186.48 54.10 Z" />
</g>
<g id="#ffdd55ff">
<path fill="#ffdd55" opacity="1.00" d=" M 142.92 55.17 C 149.69 52.27 156.74 50.11 163.67 47.64 C 163.50 48.95 163.33 50.26 163.15 51.57 C 155.17 55.17 150.02 63.33 148.84 71.84 C 147.36 72.72 145.88 73.59 144.40 74.48 C 142.29 71.24 140.71 67.71 139.07 64.22 C 142.63 62.57 142.58 58.54 142.92 55.17 Z" />
</g>
<g id="#ff9046ff">
<path fill="#ff9046" opacity="1.00" d=" M 209.10 54.19 C 210.87 51.91 212.77 49.71 214.82 47.66 C 216.31 48.18 217.79 48.71 219.29 49.24 L 219.18 49.35 C 216.72 51.96 214.32 54.62 212.05 57.39 C 211.05 56.34 210.07 55.27 209.10 54.19 Z" />
</g>
<g id="#ff7f2aff">
<path fill="#ff7f2a" opacity="1.00" d=" M 227.07 53.45 C 228.25 51.62 229.41 49.78 230.73 48.04 C 232.57 49.24 234.70 50.25 235.87 52.21 C 236.56 53.60 235.02 54.56 234.35 55.56 C 232.00 54.59 229.55 53.95 227.07 53.45 Z" />
<path fill="#ff7f2a" opacity="1.00" d=" M 212.05 57.39 C 214.32 54.62 216.72 51.96 219.18 49.35 C 221.66 50.73 225.88 53.25 223.82 56.62 C 220.85 60.16 215.45 60.33 211.86 57.62 L 212.05 57.39 Z" />
</g>
<g id="#efefefff">
<path fill="#efefef" opacity="1.00" d=" M 75.15 52.41 C 82.80 54.30 90.64 52.48 97.94 50.06 C 101.89 51.39 101.26 55.71 101.41 59.05 C 101.69 56.28 102.10 53.51 102.67 50.77 C 103.31 55.69 103.11 60.79 101.55 65.53 C 99.05 66.93 96.13 67.30 93.35 67.85 C 86.92 66.80 80.45 65.95 74.04 64.80 C 73.91 64.59 73.64 64.18 73.51 63.98 C 75.99 63.86 78.48 63.74 80.96 63.63 C 81.02 60.96 81.01 58.29 80.90 55.63 C 79.37 55.06 77.84 54.49 76.36 53.82 C 76.05 53.46 75.45 52.76 75.15 52.41 Z" />
</g>
<g id="#029633ff">
<path fill="#029633" opacity="1.00" d=" M 190.72 57.82 C 193.43 54.14 197.38 51.30 201.60 49.60 C 200.45 52.11 199.11 54.52 197.81 56.94 C 195.47 57.43 193.10 57.74 190.72 57.82 Z" />
</g>
<g id="#e2e2e2ff">
<path fill="#e2e2e2" opacity="1.00" d=" M 68.07 52.13 C 70.05 50.10 72.72 51.37 74.94 52.17 L 75.15 52.41 C 75.45 52.76 76.05 53.46 76.36 53.82 C 77.84 54.49 79.37 55.06 80.90 55.63 C 81.01 58.29 81.02 60.96 80.96 63.63 C 78.48 63.74 75.99 63.86 73.51 63.98 C 73.64 64.18 73.91 64.59 74.04 64.80 C 73.76 65.88 73.45 66.95 73.09 68.01 C 71.10 68.02 69.11 68.05 67.11 68.06 C 62.97 63.70 62.45 55.51 68.07 52.13 Z" />
<path fill="#e2e2e2" opacity="1.00" d=" M 81.37 130.20 C 85.25 129.53 88.92 127.22 92.98 128.02 C 90.47 130.82 88.22 134.03 87.65 137.84 C 87.18 140.35 86.81 142.87 86.38 145.39 C 86.05 143.01 85.73 140.63 85.41 138.25 C 74.56 140.84 63.28 140.43 52.38 138.35 C 51.35 140.20 50.27 142.02 49.16 143.83 C 49.55 141.61 49.76 139.34 50.49 137.20 C 51.79 134.59 52.88 131.87 54.31 129.33 C 57.33 129.28 60.21 130.32 63.16 130.76 C 69.19 131.86 75.39 131.34 81.37 130.20 Z" />
</g>
<g id="#be5a17ff">
<path fill="#be5a17" opacity="1.00" d=" M 161.93 53.54 C 163.76 55.84 165.49 59.06 168.87 59.01 C 173.38 59.67 177.24 56.66 179.90 53.36 C 181.42 54.31 182.93 55.27 184.45 56.23 C 184.22 57.38 184.00 58.53 183.78 59.68 C 180.96 60.21 178.19 61.01 175.41 61.68 C 172.67 62.37 169.82 61.10 167.11 61.93 C 165.04 62.52 163.70 64.31 162.32 65.82 C 162.06 65.84 161.54 65.89 161.27 65.91 C 163.81 62.20 163.15 57.59 161.93 53.54 Z" />
</g>
<g id="#8d0000ff">
<path fill="#8d0000" opacity="1.00" d=" M 226.63 55.07 C 231.10 55.82 237.00 57.56 237.34 62.99 C 233.52 65.25 228.31 61.82 225.13 65.31 C 223.60 68.55 226.01 71.73 228.53 73.55 C 241.38 83.77 250.48 98.67 253.33 114.87 C 255.84 129.83 253.33 146.44 243.25 158.27 C 241.28 160.83 238.24 162.49 236.57 165.24 C 235.18 171.57 233.13 177.97 228.81 182.96 C 222.01 191.40 211.32 195.43 200.89 197.06 C 200.67 196.50 200.24 195.39 200.02 194.83 C 203.73 192.03 207.83 189.51 210.50 185.60 C 212.45 182.74 214.36 179.84 216.56 177.15 L 215.00 177.06 C 215.45 176.88 216.35 176.51 216.80 176.33 L 216.27 176.08 C 216.46 175.74 216.85 175.06 217.04 174.72 L 217.50 174.82 L 217.13 173.99 L 217.71 174.22 C 217.82 173.88 218.02 173.19 218.13 172.85 C 221.00 166.71 222.20 159.97 223.46 153.36 C 224.87 145.76 222.17 138.34 221.04 130.90 C 217.06 114.99 208.57 100.46 197.95 88.08 C 191.82 81.85 186.29 74.94 179.20 69.75 C 177.33 68.06 173.57 66.63 175.18 63.52 C 185.64 60.55 196.41 58.80 207.15 57.22 C 210.75 56.41 212.43 61.33 216.03 61.18 C 220.53 61.81 224.79 59.11 226.63 55.07 Z" />
</g>
<g id="#d4d4d4ff">
<path fill="#d4d4d4" opacity="1.00" d=" M 112.57 66.07 C 120.06 64.17 127.80 60.72 135.57 63.45 C 137.54 64.16 138.24 66.25 139.00 68.00 C 140.03 70.56 141.43 72.95 142.84 75.31 C 138.45 78.01 134.41 81.19 130.32 84.29 C 128.93 83.94 127.26 83.93 126.30 82.69 C 122.77 79.07 119.82 74.68 115.10 72.47 L 115.05 72.54 C 113.40 71.57 111.77 70.59 110.13 69.62 C 111.16 68.73 112.20 67.85 113.25 66.97 L 112.90 66.76 C 112.82 66.59 112.66 66.24 112.57 66.07 Z" />
</g>
<g id="#960707ff">
<path fill="#960707" opacity="1.00" d=" M 162.83 67.56 C 166.88 66.02 171.02 64.73 175.18 63.52 C 173.57 66.63 177.33 68.06 179.20 69.75 C 186.29 74.94 191.82 81.85 197.95 88.08 C 208.57 100.46 217.06 114.99 221.04 130.90 C 222.17 138.34 224.87 145.76 223.46 153.36 C 222.20 159.97 221.00 166.71 218.13 172.85 C 218.02 173.19 217.82 173.88 217.71 174.22 L 217.13 173.99 L 217.50 174.82 L 217.04 174.72 C 216.85 175.06 216.46 175.74 216.27 176.08 L 216.80 176.33 C 216.35 176.51 215.45 176.88 215.00 177.06 L 216.56 177.15 C 214.36 179.84 212.45 182.74 210.50 185.60 C 207.83 189.51 203.73 192.03 200.02 194.83 C 200.24 195.39 200.67 196.50 200.89 197.06 C 194.44 197.63 187.84 198.74 181.42 197.50 C 179.65 196.81 177.90 196.05 176.16 195.32 C 186.80 191.74 196.02 184.74 202.97 176.00 C 205.97 171.94 207.46 167.06 209.50 162.51 C 211.16 158.90 211.92 154.96 211.89 151.00 C 211.93 143.65 212.34 136.08 209.92 129.02 C 208.72 125.49 207.85 121.85 206.40 118.41 C 200.77 106.77 194.06 95.36 184.30 86.68 C 178.27 79.08 169.93 74.01 162.83 67.56 Z" />
</g>
<g id="#ffd8bbff">
<path fill="#ffd8bb" opacity="1.00" d=" M 75.18 66.86 C 77.71 67.15 80.23 67.57 82.75 67.97 C 82.77 68.49 82.82 69.53 82.85 70.05 C 80.02 69.84 77.24 70.43 74.56 71.22 C 75.06 72.17 75.59 73.11 76.14 74.04 C 75.44 73.84 74.05 73.43 73.35 73.23 C 73.95 71.10 74.59 68.99 75.18 66.86 Z" />
</g>
<g id="#dfdfdfff">
<path fill="#dfdfdf" opacity="1.00" d=" M 96.41 70.19 C 102.06 69.80 107.35 67.52 112.90 66.76 L 113.25 66.97 C 112.20 67.85 111.16 68.73 110.13 69.62 C 111.77 70.59 113.40 71.57 115.05 72.54 L 115.10 72.47 C 119.82 74.68 122.77 79.07 126.30 82.69 C 127.26 83.93 128.93 83.94 130.32 84.29 C 125.81 88.47 121.40 92.76 117.46 97.47 C 115.11 95.33 114.31 92.27 113.08 89.48 C 110.34 84.71 105.43 81.83 100.66 79.44 C 97.75 78.24 97.16 74.87 95.95 72.32 C 96.07 71.79 96.29 70.72 96.41 70.19 Z" />
</g>
<g id="#ffd3b7ff">
<path fill="#ffd3b7" opacity="1.00" d=" M 82.75 67.97 C 86.81 68.59 90.89 69.12 94.95 69.84 C 92.87 75.22 94.42 81.53 99.32 84.78 C 98.00 84.87 96.67 84.98 95.35 85.10 C 94.80 85.16 93.72 85.27 93.18 85.32 C 92.70 89.65 95.66 93.34 99.06 95.62 C 98.47 99.24 95.91 101.81 92.44 102.85 C 89.46 97.67 85.33 92.18 79.08 91.07 C 72.98 90.28 67.75 94.31 63.41 98.05 C 59.33 96.92 55.08 94.97 53.12 90.96 C 50.76 86.86 51.34 80.22 56.38 78.47 C 61.34 76.81 66.22 79.68 70.54 81.83 C 71.60 79.01 72.49 76.12 73.27 73.20 L 73.35 73.23 C 74.05 73.43 75.44 73.84 76.14 74.04 C 78.37 77.24 80.78 80.31 83.19 83.37 C 85.13 79.22 87.19 73.45 82.85 70.05 C 82.82 69.53 82.77 68.49 82.75 67.97 M 71.92 82.88 C 71.95 85.31 71.54 88.90 74.81 89.35 C 76.15 86.66 76.82 82.86 74.03 80.82 C 73.30 81.48 72.60 82.17 71.92 82.88 Z" />
</g>
<g id="#a51212ff">
<path fill="#a51212" opacity="1.00" d=" M 148.99 73.92 C 153.33 71.25 158.12 69.46 162.83 67.56 C 169.93 74.01 178.27 79.08 184.30 86.68 C 194.06 95.36 200.77 106.77 206.40 118.41 C 207.85 121.85 208.72 125.49 209.92 129.02 C 212.34 136.08 211.93 143.65 211.89 151.00 C 211.92 154.96 211.16 158.90 209.50 162.51 C 207.46 167.06 205.97 171.94 202.97 176.00 C 196.02 184.74 186.80 191.74 176.16 195.32 C 177.90 196.05 179.65 196.81 181.42 197.50 C 175.86 197.48 170.43 196.28 164.92 195.75 C 157.76 194.86 150.54 194.75 143.34 194.47 C 142.36 192.82 141.11 191.26 140.54 189.42 C 140.51 188.34 140.53 187.27 140.53 186.20 C 153.96 186.34 167.92 183.10 178.72 174.83 C 183.15 172.00 186.01 167.48 188.97 163.26 C 193.09 157.34 194.32 150.03 195.20 143.03 C 195.18 136.81 194.72 130.24 191.68 124.67 C 190.91 121.03 189.54 117.55 187.72 114.31 C 181.44 101.93 171.80 91.62 161.14 82.88 C 157.12 79.85 152.55 77.55 148.99 73.92 Z" />
</g>
<g id="#e3701dff">
<path fill="#e3701d" opacity="1.00" d=" M 151.03 70.51 C 149.87 69.19 152.91 67.87 152.92 69.70 C 152.45 69.90 151.50 70.31 151.03 70.51 Z" />
</g>
<g id="#e6e6e6ff">
<path fill="#e6e6e6" opacity="1.00" d=" M 76.85 71.99 C 78.87 71.96 80.89 71.94 82.91 71.96 C 84.42 74.61 83.55 77.55 82.81 80.30 C 80.84 77.52 78.77 74.81 76.85 71.99 Z" />
</g>
<g id="#eaeaeaff">
<path fill="#eaeaea" opacity="1.00" d=" M 95.95 72.32 C 97.16 74.87 97.75 78.24 100.66 79.44 C 105.43 81.83 110.34 84.71 113.08 89.48 C 114.31 92.27 115.11 95.33 117.46 97.47 C 111.02 105.38 105.94 114.26 101.48 123.39 C 98.48 124.61 95.51 125.95 92.98 128.02 C 88.92 127.22 85.25 129.53 81.37 130.20 C 75.39 131.34 69.19 131.86 63.16 130.76 C 60.21 130.32 57.33 129.28 54.31 129.33 C 52.88 131.87 51.79 134.59 50.49 137.20 C 50.86 134.54 51.03 131.83 51.85 129.27 C 55.09 125.96 59.98 126.02 64.22 125.26 C 63.54 123.74 62.85 122.23 62.14 120.73 L 62.17 120.59 C 62.36 119.50 62.55 118.41 62.75 117.32 C 73.98 121.27 88.63 118.90 95.32 108.24 C 97.43 105.08 99.57 101.94 101.68 98.78 C 102.76 98.45 103.84 98.10 104.91 97.73 C 105.07 97.45 105.38 96.89 105.54 96.60 C 105.74 96.21 106.13 95.43 106.33 95.03 C 100.75 96.22 93.63 91.11 95.35 85.10 C 96.67 84.98 98.00 84.87 99.32 84.78 C 102.24 86.25 105.15 87.90 108.43 88.36 C 106.55 85.01 102.09 84.98 99.37 82.54 C 95.92 80.34 95.65 76.00 95.95 72.32 Z" />
<path fill="#eaeaea" opacity="1.00" d=" M 62.23 163.20 C 66.04 161.61 69.78 159.85 73.58 158.24 C 75.50 158.59 77.46 158.68 79.42 158.64 C 79.76 161.00 79.35 163.91 81.27 165.71 C 83.20 167.38 85.30 168.86 87.05 170.75 C 85.56 172.28 84.07 173.80 82.57 175.33 C 82.62 177.54 82.67 179.76 82.74 181.97 C 82.25 180.20 81.75 178.43 81.21 176.68 C 80.90 179.42 80.75 182.20 81.11 184.95 L 81.04 185.88 C 79.70 188.15 76.42 188.81 73.92 188.93 C 66.56 188.50 59.05 184.02 56.40 176.94 C 54.89 171.91 56.59 164.74 62.23 163.20 Z" />
</g>
<g id="#b72020ff">
<path fill="#b72020" opacity="1.00" d=" M 137.85 80.71 C 141.29 78.06 145.15 76.02 148.89 73.83 L 148.99 73.92 C 152.55 77.55 157.12 79.85 161.14 82.88 C 171.80 91.62 181.44 101.93 187.72 114.31 C 189.54 117.55 190.91 121.03 191.68 124.67 C 194.72 130.24 195.18 136.81 195.20 143.03 C 194.32 150.03 193.09 157.34 188.97 163.26 C 186.01 167.48 183.15 172.00 178.72 174.83 C 167.92 183.10 153.96 186.34 140.53 186.20 C 140.53 187.27 140.51 188.34 140.54 189.42 C 137.70 184.78 135.14 179.98 132.44 175.26 C 137.67 175.20 142.41 172.86 147.32 171.39 C 151.68 169.87 156.38 168.99 160.19 166.22 C 163.35 163.98 167.22 162.59 169.67 159.46 C 169.88 159.81 170.31 160.49 170.53 160.83 C 172.55 156.33 175.59 152.27 176.94 147.47 C 177.90 143.70 178.96 139.87 178.82 135.94 C 178.01 126.34 174.59 116.98 168.81 109.24 C 163.27 100.61 155.47 93.70 147.09 87.91 C 143.97 85.61 139.41 84.64 137.85 80.71 Z" />
</g>
<g id="#c92e2eff">
<path fill="#c92e2e" opacity="1.00" d=" M 126.05 90.47 C 129.75 86.95 133.70 83.69 137.85 80.71 C 139.41 84.64 143.97 85.61 147.09 87.91 C 155.47 93.70 163.27 100.61 168.81 109.24 C 174.59 116.98 178.01 126.34 178.82 135.94 C 178.96 139.87 177.90 143.70 176.94 147.47 C 175.59 152.27 172.55 156.33 170.53 160.83 C 170.31 160.49 169.88 159.81 169.67 159.46 C 165.24 151.91 161.88 143.75 158.51 135.68 C 159.77 129.65 156.86 123.97 154.45 118.65 C 151.64 112.23 146.65 107.12 141.55 102.45 C 137.27 98.52 131.84 96.24 126.71 93.67 C 126.49 92.61 126.27 91.54 126.05 90.47 Z" />
</g>
<g id="#dc3c3cff">
<path fill="#dc3c3c" opacity="1.00" d=" M 116.16 102.01 C 119.12 97.88 122.56 94.14 126.05 90.47 C 126.27 91.54 126.49 92.61 126.71 93.67 C 131.84 96.24 137.27 98.52 141.55 102.45 C 146.65 107.12 151.64 112.23 154.45 118.65 C 156.86 123.97 159.77 129.65 158.51 135.68 C 155.68 129.99 154.15 123.63 150.48 118.38 C 148.20 115.15 144.23 113.92 140.45 113.71 C 138.16 113.31 135.80 113.08 133.64 112.20 C 131.34 110.54 129.82 107.79 126.99 106.93 C 123.25 105.58 119.37 104.45 116.16 102.01 Z" />
</g>
<g id="#f7f7f7ff">
<path fill="#f7f7f7" opacity="1.00" d=" M 63.74 100.02 C 68.28 96.14 73.68 91.44 80.15 93.08 C 85.74 94.89 88.83 100.31 91.85 104.95 C 95.62 103.53 99.87 101.43 100.42 96.92 C 102.12 96.82 103.83 96.73 105.54 96.60 C 105.38 96.89 105.07 97.45 104.91 97.73 C 103.84 98.10 102.76 98.45 101.68 98.78 C 99.57 101.94 97.43 105.08 95.32 108.24 C 88.63 118.90 73.98 121.27 62.75 117.32 C 62.55 118.41 62.36 119.50 62.17 120.59 C 60.87 117.54 58.37 114.32 59.74 110.85 C 60.48 107.84 63.53 106.49 65.90 104.98 C 64.96 103.43 64.27 101.75 63.74 100.02 M 74.06 104.69 C 71.50 104.21 69.38 102.60 67.09 101.49 C 68.35 106.30 73.70 106.90 77.26 109.32 C 79.09 106.36 79.30 102.77 80.28 99.50 C 78.24 101.25 76.79 103.91 74.06 104.69 M 68.05 111.22 C 68.97 112.17 69.91 113.10 70.87 114.02 C 72.46 114.01 74.05 114.00 75.64 113.99 C 73.40 112.58 71.06 111.25 69.30 109.22 C 68.89 109.89 68.47 110.55 68.05 111.22 Z" />
<path fill="#f7f7f7" opacity="1.00" d=" M 37.31 118.42 C 42.20 116.23 46.73 121.38 46.90 125.96 C 46.70 128.54 45.58 131.00 44.11 133.10 C 42.35 135.69 38.13 136.67 35.80 134.26 C 30.82 130.40 31.20 120.98 37.31 118.42 Z" />
<path fill="#f7f7f7" opacity="1.00" d=" M 82.57 175.33 C 84.07 173.80 85.56 172.28 87.05 170.75 C 89.11 173.03 91.95 174.47 94.97 174.97 C 103.51 176.46 112.20 175.11 120.72 174.12 C 120.76 176.99 120.86 179.85 120.97 182.71 C 120.35 182.23 119.73 181.76 119.11 181.28 C 119.19 182.44 119.27 183.59 119.35 184.75 C 117.60 186.43 115.86 188.12 114.13 189.82 C 119.99 190.00 125.92 189.44 131.68 190.78 C 123.21 192.07 114.60 191.48 106.07 191.92 C 101.08 191.84 96.11 192.48 91.13 192.38 C 86.59 191.59 85.19 186.82 83.19 183.39 C 82.79 183.79 82.00 184.59 81.60 184.99 L 81.11 184.95 C 80.75 182.20 80.90 179.42 81.21 176.68 C 81.75 178.43 82.25 180.20 82.74 181.97 C 82.67 179.76 82.62 177.54 82.57 175.33 Z" />
</g>
<g id="#d40101ff">
<path fill="#d40101" opacity="1.00" d=" M 2.51 105.46 C 7.47 100.27 15.44 100.62 22.03 101.28 L 21.23 102.10 C 15.64 105.15 10.09 108.25 4.89 111.97 C 2.92 110.54 0.50 107.89 2.51 105.46 Z" />
</g>
<g id="#de1212ff">
<path fill="#de1212" opacity="1.00" d=" M 21.23 102.10 L 22.07 101.55 C 24.48 102.38 26.82 103.44 28.98 104.82 C 25.24 107.11 20.87 107.80 16.57 108.19 C 16.57 108.43 16.57 108.91 16.57 109.15 L 16.57 109.43 C 14.69 110.56 13.17 112.16 12.37 114.22 C 9.81 113.70 7.34 112.86 4.89 111.97 C 10.09 108.25 15.64 105.15 21.23 102.10 Z" />
</g>
<g id="#ee4a4aff">
<path fill="#ee4a4a" opacity="1.00" d=" M 116.10 101.97 L 116.16 102.01 C 119.37 104.45 123.25 105.58 126.99 106.93 C 129.82 107.79 131.34 110.54 133.64 112.20 C 135.80 113.08 138.16 113.31 140.45 113.71 C 134.52 114.50 129.46 117.94 124.05 120.22 C 120.93 121.46 118.36 123.64 115.54 125.40 C 116.97 121.57 120.12 118.76 122.72 115.72 C 124.85 113.16 128.12 111.57 129.46 108.39 C 122.56 111.53 118.42 118.43 113.68 124.05 C 112.65 123.68 111.61 123.31 110.58 122.94 C 111.90 118.06 115.33 114.21 117.23 109.65 C 112.27 112.19 110.89 118.29 108.75 123.00 C 107.06 123.00 105.38 123.00 103.70 123.00 C 107.07 115.57 111.32 108.57 116.10 101.97 Z" />
</g>
<g id="#e72323ff">
<path fill="#e72323" opacity="1.00" d=" M 28.98 104.82 L 29.05 104.78 C 29.98 105.43 30.91 106.09 31.84 106.75 C 31.02 108.19 30.54 109.91 29.36 111.11 C 28.79 111.56 28.21 112.01 27.62 112.45 C 25.11 109.12 20.39 108.90 16.57 109.15 C 16.57 108.91 16.57 108.43 16.57 108.19 C 20.87 107.80 25.24 107.11 28.98 104.82 Z" />
</g>
<g id="#ebebebff">
<path fill="#ebebeb" opacity="1.00" d=" M 33.19 107.82 C 37.32 109.19 41.62 109.91 45.95 110.31 C 50.17 111.29 50.71 116.39 50.85 119.97 C 50.62 127.58 48.98 135.08 47.52 142.53 C 46.42 146.87 41.37 145.82 38.13 145.13 C 34.61 144.19 28.51 145.13 28.02 140.14 C 28.06 132.04 29.70 124.01 30.24 115.92 C 30.36 112.97 31.90 110.39 33.19 107.82 M 37.31 118.42 C 31.20 120.98 30.82 130.40 35.80 134.26 C 38.13 136.67 42.35 135.69 44.11 133.10 C 45.58 131.00 46.70 128.54 46.90 125.96 C 46.73 121.38 42.20 116.23 37.31 118.42 Z" />
</g>
<g id="#ea2929ff">
<path fill="#ea2929" opacity="1.00" d=" M 14.93 112.89 C 16.94 109.87 21.05 110.94 23.99 111.62 C 22.96 113.76 21.77 115.84 21.08 118.13 C 20.95 120.08 22.07 121.84 22.68 123.63 L 22.84 124.03 C 16.30 126.67 11.57 118.02 14.93 112.89 Z" />
</g>
<g id="#f53a3aff">
<path fill="#f53a3a" opacity="1.00" d=" M 27.62 112.45 C 28.21 112.01 28.79 111.56 29.36 111.11 C 28.88 113.96 28.45 116.82 28.01 119.68 C 26.24 121.00 24.48 122.35 22.68 123.63 C 22.07 121.84 20.95 120.08 21.08 118.13 C 21.77 115.84 22.96 113.76 23.99 111.62 C 24.89 112.12 25.79 112.63 26.68 113.14 L 27.62 112.45 Z" />
</g>
<g id="#df1313ff">
<path fill="#df1313" opacity="1.00" d=" M 52.12 115.93 C 54.06 115.99 56.00 115.99 57.93 116.25 C 59.57 118.39 60.35 121.03 61.52 123.44 C 58.40 124.07 55.29 124.69 52.16 125.26 C 52.51 122.15 52.51 119.03 52.12 115.93 Z" />
<path fill="#df1313" opacity="1.00" d=" M 97.76 227.85 C 98.96 225.81 101.07 224.63 103.15 223.68 C 100.55 226.86 98.56 230.50 98.09 234.64 C 94.68 233.50 96.44 230.00 97.76 227.85 Z" />
</g>
<g id="#da0b0bff">
<path fill="#da0b0b" opacity="1.00" d=" M 125.47 121.55 C 131.04 119.08 136.48 114.90 142.91 115.78 C 146.34 115.93 148.71 118.72 150.45 121.38 C 144.12 121.15 137.49 120.58 131.72 123.78 C 129.78 122.67 127.67 121.94 125.47 121.55 Z" />
<path fill="#da0b0b" opacity="1.00" d=" M 60.10 153.27 C 62.20 152.73 64.30 152.20 66.45 151.84 L 65.92 152.67 C 64.37 155.37 62.14 157.56 59.77 159.55 C 59.89 157.45 60.00 155.36 60.10 153.27 Z" />
<path fill="#da0b0b" opacity="1.00" d=" M 124.78 193.20 C 129.73 193.18 134.58 192.05 139.48 191.61 C 139.83 192.06 140.53 192.97 140.88 193.42 C 135.99 193.96 131.10 194.59 126.20 195.06 C 125.85 194.59 125.13 193.67 124.78 193.20 Z" />
</g>
<g id="#e41c1cff">
<path fill="#e41c1c" opacity="1.00" d=" M 131.72 123.78 C 137.49 120.58 144.12 121.15 150.45 121.38 L 150.58 121.38 C 154.65 131.21 158.89 140.96 163.10 150.72 C 161.60 155.62 157.35 159.82 158.38 165.29 C 157.99 165.55 157.21 166.07 156.82 166.33 C 156.93 159.87 156.91 153.40 157.00 146.94 C 156.93 144.86 157.39 142.50 155.80 140.83 C 153.64 137.83 151.83 134.45 148.98 132.02 C 145.38 129.36 140.68 130.61 136.56 130.84 C 135.14 128.36 133.52 126.00 131.72 123.78 Z" />
</g>
<g id="#ed2a2aff">
<path fill="#ed2a2a" opacity="1.00" d=" M 20.57 126.50 C 22.84 125.49 25.01 124.27 27.03 122.82 C 27.00 125.01 27.00 127.19 27.01 129.37 C 24.89 128.35 22.78 127.31 20.57 126.50 Z" />
</g>
<g id="#ffd5d5ff">
<path fill="#ffd5d5" opacity="1.00" d=" M 118.43 125.33 C 122.11 123.07 127.08 122.21 130.58 125.27 C 134.06 128.90 136.58 133.82 136.52 138.94 C 135.54 142.16 133.58 145.06 133.30 148.49 C 132.68 152.67 134.11 158.07 129.95 160.82 C 124.71 164.09 118.16 165.97 111.99 164.92 C 107.86 164.00 108.36 159.06 107.57 155.86 C 112.07 155.69 116.79 154.30 119.76 150.70 C 124.53 145.11 125.37 137.36 125.08 130.28 C 122.93 128.54 120.65 126.98 118.43 125.33 Z" />
</g>
<g id="#d90a0aff">
<path fill="#d90a0a" opacity="1.00" d=" M 9.46 125.38 C 13.57 128.72 18.17 131.45 23.31 132.85 C 23.46 133.69 23.61 134.54 23.76 135.39 C 17.04 138.79 10.16 133.24 7.72 127.13 C 8.15 126.69 9.03 125.82 9.46 125.38 Z" />
<path fill="#d90a0a" opacity="1.00" d=" M 163.10 150.72 C 164.72 153.65 166.14 156.68 167.49 159.74 C 164.46 161.59 161.46 163.51 158.38 165.29 C 157.35 159.82 161.60 155.62 163.10 150.72 Z" />
</g>
<g id="#d40000ff">
<path fill="#d40000" opacity="1.00" d=" M 93.21 130.27 C 95.80 127.36 99.52 125.89 103.17 124.83 C 101.67 129.77 99.44 134.96 100.85 140.20 C 102.23 146.23 107.28 151.38 113.70 151.51 C 113.09 152.21 112.47 152.90 111.84 153.59 C 105.24 155.36 98.15 151.65 94.66 145.99 C 92.99 146.05 91.33 146.13 89.67 146.22 C 88.16 140.74 89.30 134.50 93.21 130.27 Z" />
</g>
<g id="#e31c1cff">
<path fill="#e31c1c" opacity="1.00" d=" M 103.17 124.83 C 106.40 124.66 109.62 124.80 112.84 125.07 L 112.61 125.27 C 109.27 127.80 106.24 131.43 106.42 135.87 C 106.74 139.20 108.30 142.97 111.63 144.28 C 115.18 145.58 118.86 144.01 122.20 142.83 C 120.54 147.72 117.12 152.35 111.84 153.59 C 112.47 152.90 113.09 152.21 113.70 151.51 C 107.28 151.38 102.23 146.23 100.85 140.20 C 99.44 134.96 101.67 129.77 103.17 124.83 Z" />
</g>
<g id="#f33838ff">
<path fill="#f33838" opacity="1.00" d=" M 106.42 135.87 C 106.24 131.43 109.27 127.80 112.61 125.27 C 116.60 126.41 120.19 128.53 123.47 131.04 C 123.42 135.00 123.02 138.95 122.20 142.83 C 118.86 144.01 115.18 145.58 111.63 144.28 C 108.30 142.97 106.74 139.20 106.42 135.87 Z" />
<path fill="#f33838" opacity="1.00" d=" M 84.72 212.00 C 89.73 210.82 94.89 211.32 99.98 211.26 C 104.28 211.10 108.13 213.57 111.23 216.30 C 110.85 217.46 110.46 218.62 110.07 219.78 C 106.38 221.80 102.04 222.07 98.40 224.19 C 98.37 223.75 98.31 222.87 98.28 222.43 C 92.93 220.02 89.83 214.73 84.72 212.00 Z" />
</g>
<g id="#f33737ff">
<path fill="#f33737" opacity="1.00" d=" M 136.56 130.84 C 140.68 130.61 145.38 129.36 148.98 132.02 C 151.83 134.45 153.64 137.83 155.80 140.83 C 154.48 144.77 155.14 148.99 155.02 153.07 C 154.69 152.67 154.03 151.86 153.70 151.46 C 151.46 154.00 149.27 156.99 145.86 157.98 C 142.13 159.27 138.31 157.63 134.68 156.80 C 134.91 153.86 134.90 150.90 135.16 147.97 C 135.44 145.12 137.17 142.72 138.01 140.04 C 138.66 136.90 137.59 133.77 136.56 130.84 Z" />
</g>
<g id="#d8d8d8ff">
<path fill="#d8d8d8" opacity="1.00" d=" M 52.38 138.35 C 63.28 140.43 74.56 140.84 85.41 138.25 C 85.73 140.63 86.05 143.01 86.38 145.39 C 86.81 142.87 87.18 140.35 87.65 137.84 C 87.20 140.51 87.39 143.23 87.84 145.90 C 84.80 146.16 80.73 144.71 78.74 147.81 C 76.55 150.57 79.75 153.65 81.18 155.98 C 78.32 156.22 75.25 156.80 72.56 155.47 C 69.95 154.06 68.00 151.75 65.59 150.06 C 61.93 150.79 58.05 152.96 54.36 150.83 C 51.94 149.49 48.44 146.71 49.16 143.83 C 50.27 142.02 51.35 140.20 52.38 138.35 Z" />
</g>
<g id="#b93030ff">
<path fill="#b93030" opacity="1.00" d=" M 83.21 157.69 C 83.24 154.06 78.00 151.16 80.85 147.63 C 84.77 150.35 85.65 155.73 89.84 158.16 C 93.55 160.85 98.24 160.95 102.62 160.58 C 104.30 160.18 105.41 161.57 106.57 162.53 C 104.06 165.00 100.29 164.45 97.09 164.40 C 91.79 164.19 86.68 161.70 83.21 157.69 Z" />
</g>
<g id="#cb4141ff">
<path fill="#cb4141" opacity="1.00" d=" M 80.85 147.63 C 82.87 147.61 84.88 147.54 86.90 147.46 C 88.74 149.32 90.51 151.43 90.80 154.14 C 90.88 154.53 91.05 155.31 91.13 155.71 C 92.42 155.22 93.72 154.75 95.02 154.30 C 95.82 154.98 96.73 155.52 97.73 155.86 C 97.78 157.39 97.66 159.02 98.67 160.30 C 99.33 158.10 99.82 155.85 100.19 153.58 C 101.93 154.25 103.76 154.76 105.35 155.76 C 106.06 157.94 106.00 160.30 106.57 162.53 C 105.41 161.57 104.30 160.18 102.62 160.58 C 98.24 160.95 93.55 160.85 89.84 158.16 C 85.65 155.73 84.77 150.35 80.85 147.63 Z" />
</g>
<g id="#dc5656ff">
<path fill="#dc5656" opacity="1.00" d=" M 86.90 147.46 C 89.23 147.90 91.61 148.01 93.98 148.00 C 94.97 149.18 95.96 150.37 96.95 151.55 C 94.88 152.36 92.83 153.23 90.80 154.14 C 90.51 151.43 88.74 149.32 86.90 147.46 Z" />
</g>
<g id="#e31a1aff">
<path fill="#e31a1a" opacity="1.00" d=" M 145.86 157.98 C 149.27 156.99 151.46 154.00 153.70 151.46 C 154.03 151.86 154.69 152.67 155.02 153.07 C 155.00 157.74 154.81 162.41 154.82 167.08 C 149.36 168.99 143.87 170.83 138.31 172.44 C 138.83 171.76 139.35 171.06 139.85 170.37 C 135.36 169.30 131.24 167.14 127.69 164.20 C 130.90 162.72 133.62 160.26 134.68 156.80 C 138.31 157.63 142.13 159.27 145.86 157.98 Z" />
</g>
<g id="#e92222ff">
<path fill="#e92222" opacity="1.00" d=" M 65.92 152.67 C 66.76 153.36 67.60 154.06 68.44 154.76 C 66.98 156.65 65.55 158.56 64.01 160.39 C 62.50 161.48 60.66 161.99 58.99 162.79 C 59.19 161.98 59.57 160.36 59.77 159.55 C 62.14 157.56 64.37 155.37 65.92 152.67 Z" />
</g>
<g id="#d05050ff">
<path fill="#d05050" opacity="1.00" d=" M 95.02 154.30 C 95.68 152.85 99.41 151.92 98.50 154.55 C 98.31 154.88 97.92 155.54 97.73 155.86 C 96.73 155.52 95.82 154.98 95.02 154.30 Z" />
</g>
<g id="#fc4646ff">
<path fill="#fc4646" opacity="1.00" d=" M 68.44 154.76 C 69.57 155.55 70.71 156.33 71.85 157.13 C 69.26 158.26 66.66 159.40 64.01 160.39 C 65.55 158.56 66.98 156.65 68.44 154.76 Z" />
<path fill="#fc4646" opacity="1.00" d=" M 109.79 165.85 C 112.79 167.29 116.13 167.06 119.35 166.90 C 116.99 169.74 113.68 171.44 109.93 171.22 C 109.92 169.42 109.88 167.64 109.79 165.85 Z" />
</g>
<g id="#a61b1bff">
<path fill="#a61b1b" opacity="1.00" d=" M 82.35 156.77 L 83.21 157.69 C 86.68 161.70 91.79 164.19 97.09 164.40 C 100.29 164.45 104.06 165.00 106.57 162.53 L 106.69 162.43 C 107.32 164.76 108.02 167.06 108.70 169.37 C 104.47 170.61 99.62 171.35 96.23 167.86 C 94.10 169.04 91.64 171.17 89.08 169.85 C 86.58 168.15 84.25 166.16 82.14 164.00 C 80.45 161.83 81.93 159.09 82.35 156.77 Z" />
</g>
<g id="#d60505ff">
<path fill="#d60505" opacity="1.00" d=" M 122.58 165.88 C 124.27 165.30 125.97 164.74 127.69 164.20 C 131.24 167.14 135.36 169.30 139.85 170.37 C 139.35 171.06 138.83 171.76 138.31 172.44 C 136.32 173.72 133.43 173.75 131.12 173.23 C 127.56 171.78 125.05 168.69 122.58 165.88 Z" />
</g>
<g id="#f43636ff">
<path fill="#f43636" opacity="1.00" d=" M 119.35 166.90 L 120.27 166.01 C 122.11 167.99 123.93 169.99 125.84 171.90 C 114.54 172.72 103.00 175.68 91.82 172.48 C 93.28 171.62 94.76 170.79 96.25 169.97 C 99.93 173.83 105.37 171.57 109.93 171.22 C 113.68 171.44 116.99 169.74 119.35 166.90 Z" />
</g>
<g id="#eeeeeeff">
<path fill="#eeeeee" opacity="1.00" d=" M 120.72 174.12 C 123.98 174.18 128.14 172.06 130.48 175.35 C 133.35 180.10 135.90 185.04 138.70 189.83 C 136.36 190.12 134.05 190.85 131.68 190.78 C 125.92 189.44 119.99 190.00 114.13 189.82 C 115.86 188.12 117.60 186.43 119.35 184.75 C 119.27 183.59 119.19 182.44 119.11 181.28 C 119.73 181.76 120.35 182.23 120.97 182.71 C 120.86 179.85 120.76 176.99 120.72 174.12 Z" />
</g>
<g id="#e41d1dff">
<path fill="#e41d1d" opacity="1.00" d=" M 79.06 189.69 C 80.34 188.75 81.61 187.78 82.87 186.80 C 84.45 189.79 86.56 192.89 90.00 193.89 C 94.01 194.37 98.04 193.71 102.06 193.99 C 102.81 194.95 103.39 196.03 103.81 197.21 C 96.87 196.54 89.87 196.05 83.01 194.84 C 81.20 193.67 80.35 191.39 79.06 189.69 Z" />
<path fill="#e41d1d" opacity="1.00" d=" M 69.61 219.29 C 73.36 214.65 79.38 213.76 84.72 212.00 C 89.83 214.73 92.93 220.02 98.28 222.43 C 98.31 222.87 98.37 223.75 98.40 224.19 C 97.00 226.02 95.73 227.95 94.72 230.02 C 90.93 231.75 86.81 232.45 82.67 232.70 C 78.81 227.75 73.21 224.50 69.61 219.29 Z" />
<path fill="#e41d1d" opacity="1.00" d=" M 142.11 213.23 C 143.94 212.77 145.76 212.28 147.59 211.81 C 148.06 214.65 148.54 217.75 150.87 219.74 C 145.29 225.66 140.49 232.51 133.24 236.58 C 134.27 237.02 135.31 237.45 136.36 237.87 C 127.31 239.20 118.16 239.04 109.05 239.09 C 105.67 239.17 103.01 236.72 100.04 235.47 C 99.78 228.87 104.77 223.32 110.70 221.11 C 113.46 224.79 116.63 229.77 121.95 229.14 C 130.70 227.82 139.02 221.97 142.02 213.43 L 142.11 213.23 Z" />
</g>
<g id="#f12121ff">
<path fill="#f12121" opacity="1.00" d=" M 108.49 193.47 C 113.92 193.36 119.35 193.36 124.78 193.20 C 125.13 193.67 125.85 194.59 126.20 195.06 C 120.55 195.69 114.89 196.24 109.27 197.05 C 109.01 195.85 108.75 194.66 108.49 193.47 Z" />
</g>
<g id="#f2f2f2ff">
<path fill="#f2f2f2" opacity="1.00" d=" M 114.32 198.22 C 122.99 197.19 131.66 196.12 140.36 195.35 C 139.73 196.04 139.11 196.73 138.48 197.43 C 140.05 198.86 141.63 200.29 143.19 201.74 C 138.05 207.60 129.10 207.27 122.42 204.64 C 120.16 203.92 120.44 201.39 120.10 199.51 C 118.17 199.06 116.25 198.61 114.32 198.22 Z" />
<path fill="#f2f2f2" opacity="1.00" d=" M 121.32 210.86 C 126.07 209.56 131.03 209.58 135.81 210.71 C 131.01 211.33 126.14 211.10 121.32 210.86 Z" />
</g>
<g id="#dededeff">
<path fill="#dedede" opacity="1.00" d=" M 140.36 195.35 L 140.89 194.77 C 145.06 197.35 150.49 195.82 155.20 196.68 C 155.06 199.52 154.98 202.37 155.01 205.22 C 149.53 208.52 143.23 209.93 136.97 210.86 C 133.09 207.51 127.55 209.64 123.00 208.13 C 118.54 207.40 115.16 204.22 112.87 200.50 C 110.98 200.11 109.09 199.71 107.20 199.30 C 109.54 198.78 111.91 198.15 114.32 198.22 C 116.25 198.61 118.17 199.06 120.10 199.51 C 120.44 201.39 120.16 203.92 122.42 204.64 C 129.10 207.27 138.05 207.60 143.19 201.74 C 141.63 200.29 140.05 198.86 138.48 197.43 C 139.11 196.73 139.73 196.04 140.36 195.35 Z" />
<path fill="#dedede" opacity="1.00" d=" M 80.79 196.75 C 83.01 197.30 85.23 197.86 87.46 198.37 C 87.14 200.63 85.19 203.72 87.73 205.32 C 90.32 206.67 93.75 206.70 96.33 205.34 C 98.11 203.22 99.53 200.60 102.33 199.66 C 102.99 199.52 104.30 199.23 104.96 199.09 C 104.88 202.06 104.72 205.02 104.56 207.99 C 98.79 209.23 92.80 209.44 86.93 209.00 C 83.87 207.60 80.03 205.67 79.53 201.94 C 79.50 200.13 80.28 198.45 80.79 196.75 Z" />
</g>
<g id="#f4f4f4ff">
<path fill="#f4f4f4" opacity="1.00" d=" M 87.46 198.37 C 92.35 199.31 97.34 199.87 102.33 199.66 C 99.53 200.60 98.11 203.22 96.33 205.34 C 93.75 206.70 90.32 206.67 87.73 205.32 C 85.19 203.72 87.14 200.63 87.46 198.37 Z" />
</g>
<g id="#d5d5d5ff">
<path fill="#d5d5d5" opacity="1.00" d=" M 106.94 199.25 L 107.20 199.30 C 109.09 199.71 110.98 200.11 112.87 200.50 C 115.16 204.22 118.54 207.40 123.00 208.13 C 127.55 209.64 133.09 207.51 136.97 210.86 L 135.81 210.71 C 131.03 209.58 126.07 209.56 121.32 210.86 C 116.89 210.73 112.42 210.71 108.02 210.10 C 106.42 206.70 107.12 202.87 106.94 199.25 Z" />
</g>
<g id="#f13333ff">
<path fill="#f13333" opacity="1.00" d=" M 117.29 213.75 C 125.51 214.75 133.83 214.77 142.02 213.43 C 139.02 221.97 130.70 227.82 121.95 229.14 C 116.63 229.77 113.46 224.79 110.70 221.11 C 112.77 220.34 115.29 220.36 117.07 219.02 C 117.28 217.27 117.25 215.51 117.29 213.75 Z" />
</g>
<g id="#d80707ff">
<path fill="#d80707" opacity="1.00" d=" M 64.52 229.24 C 60.44 225.72 64.11 220.42 67.93 218.58 C 65.81 221.78 64.79 225.43 64.52 229.24 Z" />
<path fill="#d80707" opacity="1.00" d=" M 66.88 230.04 C 66.36 226.20 67.08 222.31 69.61 219.29 C 73.21 224.50 78.81 227.75 82.67 232.70 C 77.30 232.84 71.88 232.07 66.88 230.04 Z" />
</g>
<g id="#d50202ff">
<path fill="#d50202" opacity="1.00" d=" M 133.24 236.58 C 140.49 232.51 145.29 225.66 150.87 219.74 C 154.32 222.03 158.47 223.67 161.00 227.08 C 160.38 231.58 155.72 233.63 151.91 234.92 C 146.86 236.39 141.62 237.63 136.36 237.87 C 135.31 237.45 134.27 237.02 133.24 236.58 Z" />
</g>
</svg>
