<?xml version="1.0" encoding="UTF-8" ?>
<!DOCTYPE svg PUBLIC "-//W3C//DTD SVG 1.1//EN" "http://www.w3.org/Graphics/SVG/1.1/DTD/svg11.dtd">
<svg width="256pt" height="247pt" viewBox="0 0 256 247" version="1.1" xmlns="http://www.w3.org/2000/svg">
<g id="#ffffffff">
</g>
<g id="#2d3c48ff">
<path fill="#2d3c48" opacity="1.00" d=" M 123.43 2.28 C 124.57 0.94 126.06 2.36 127.24 2.83 C 139.80 9.43 152.44 17.35 160.27 29.55 C 167.31 40.20 169.25 53.46 167.64 65.96 C 158.84 46.92 144.27 30.69 126.94 18.97 C 107.71 32.16 93.16 51.86 85.96 74.03 C 83.83 80.52 83.55 87.43 81.54 93.95 C 80.56 96.79 79.03 100.03 75.86 100.86 C 75.40 76.39 80.77 51.11 95.13 30.91 C 102.84 19.83 112.72 10.43 123.43 2.28 Z" />
<path fill="#2d3c48" opacity="1.00" d=" M 170.58 69.43 C 172.62 63.15 177.24 57.06 175.51 50.15 C 184.85 61.84 187.02 77.47 186.79 91.99 C 185.27 120.20 176.28 148.46 158.94 170.98 C 155.10 175.83 150.75 180.27 145.88 184.09 C 148.88 170.92 157.65 160.18 162.92 147.94 C 169.23 133.08 174.36 117.29 174.33 100.99 C 174.26 94.76 173.97 88.38 171.68 82.51 C 170.08 78.39 169.04 73.74 170.58 69.43 Z" />
<path fill="#2d3c48" opacity="1.00" d=" M 74.06 106.25 C 100.01 95.98 128.47 94.38 156.06 96.11 C 160.35 96.38 165.41 97.42 167.48 101.69 C 157.72 103.48 147.80 102.66 137.96 102.57 C 113.40 103.77 88.48 110.64 68.55 125.46 C 65.00 127.97 62.54 131.74 58.85 134.06 C 54.81 136.01 50.15 135.49 45.83 136.28 C 42.34 137.02 38.95 138.44 36.20 140.77 C 36.19 140.39 36.17 139.65 36.16 139.27 C 43.87 123.82 58.31 112.71 74.06 106.25 Z" />
<path fill="#2d3c48" opacity="1.00" d=" M 190.24 104.92 C 192.91 105.96 195.10 107.86 197.43 109.48 C 211.25 119.52 224.05 131.40 233.12 146.00 C 243.36 162.40 248.40 181.69 249.06 200.92 C 232.49 210.57 213.18 216.87 193.84 214.67 C 185.50 213.60 176.54 209.72 172.69 201.75 C 193.33 205.56 214.42 200.51 233.57 192.81 C 233.15 182.18 231.36 171.54 227.36 161.64 C 222.57 149.12 214.62 138.14 206.19 127.84 C 201.97 122.72 197.90 117.47 193.28 112.70 C 191.18 110.66 190.54 107.73 190.24 104.92 Z" />
<path fill="#2d3c48" opacity="1.00" d=" M 81.70 120.77 C 86.95 121.74 88.31 127.59 90.43 131.67 C 97.58 145.81 106.39 159.21 117.22 170.82 C 128.94 183.27 143.61 193.04 159.89 198.39 C 161.99 199.38 165.20 199.17 166.12 201.71 C 169.38 208.69 176.78 212.25 180.71 218.72 C 159.59 215.95 138.91 207.43 123.18 192.86 C 102.09 173.97 89.87 147.39 81.70 120.77 Z" />
<path fill="#2d3c48" opacity="1.00" d=" M 25.57 163.56 C 30.89 152.19 40.60 142.62 52.69 138.80 C 48.44 147.47 43.40 155.75 39.76 164.71 C 35.32 175.14 32.66 186.35 32.29 197.69 C 46.90 207.17 64.99 208.29 81.91 208.13 C 98.21 208.13 113.62 199.30 130.04 202.12 C 121.35 209.05 110.72 213.00 100.02 215.62 C 80.71 220.00 60.45 220.63 40.98 216.87 C 32.49 215.21 24.22 212.33 16.77 207.90 C 17.12 192.81 19.00 177.32 25.57 163.56 Z" />
</g>
<g id="#c2b163ff">
<path fill="#c2b163" opacity="1.00" d=" M 26.57 67.57 C 42.44 43.51 66.77 24.22 95.13 17.64 C 98.38 17.05 96.16 21.00 94.42 21.39 C 73.88 31.96 54.05 45.56 40.83 64.89 C 31.59 78.24 26.16 93.99 23.99 110.01 C 21.54 127.01 23.45 144.36 20.42 161.29 C 19.68 164.46 19.37 167.90 17.39 170.60 C 7.24 151.88 5.99 129.58 9.97 108.98 C 12.87 94.32 18.16 79.99 26.57 67.57 Z" />
<path fill="#c2b163" opacity="1.00" d=" M 157.09 18.31 C 179.68 22.51 201.28 33.00 218.02 48.84 C 234.12 63.94 244.31 84.61 248.41 106.16 C 251.68 122.88 251.39 140.27 247.65 156.88 C 247.30 156.92 246.60 157.00 246.25 157.04 C 243.02 152.93 240.44 148.23 239.23 143.12 C 236.32 131.61 237.89 119.59 235.90 107.94 C 233.29 87.71 224.74 68.13 210.74 53.18 C 196.06 37.33 176.79 26.67 157.09 18.31 Z" />
<path fill="#c2b163" opacity="1.00" d=" M 165.12 236.13 C 178.70 230.78 191.18 222.94 204.96 218.06 C 204.80 219.82 204.54 221.98 202.61 222.69 C 188.43 229.21 174.98 237.58 159.84 241.84 C 152.44 244.21 144.72 245.29 137.03 246.23 C 109.37 247.41 81.23 239.80 58.39 224.03 C 73.69 223.11 86.22 233.32 100.06 238.00 C 120.99 245.65 144.58 244.45 165.12 236.13 Z" />
</g>
</svg>
