<?xml version="1.0" encoding="UTF-8" ?>
<!DOCTYPE svg PUBLIC "-//W3C//DTD SVG 1.1//EN" "http://www.w3.org/Graphics/SVG/1.1/DTD/svg11.dtd">
<svg width="205pt" height="245pt" viewBox="0 0 205 245" version="1.1" xmlns="http://www.w3.org/2000/svg">
<g id="#fdfdf9ff">
</g>
<g id="#ccaa58ff">
<path fill="#ccaa58" opacity="1.00" d=" M 72.45 0.00 L 79.53 0.00 C 70.84 3.78 59.95 2.17 51.96 7.94 C 50.62 7.89 49.28 7.84 47.95 7.77 C 55.45 3.38 64.17 2.17 72.45 0.00 Z" />
</g>
<g id="#f0b91fff">
<path fill="#f0b91f" opacity="1.00" d=" M 79.53 0.00 L 87.48 0.00 C 97.76 2.22 107.96 5.37 118.21 7.86 C 118.68 8.10 119.61 8.58 120.08 8.82 C 121.63 11.47 132.92 14.99 127.90 17.84 C 125.41 19.05 123.45 21.01 121.87 23.26 C 118.53 21.48 115.22 19.62 111.69 18.24 C 106.14 15.70 100.16 14.40 94.23 13.09 C 93.20 -0.82 72.40 2.55 69.43 13.93 C 65.67 11.68 61.82 15.09 58.19 16.11 C 51.38 17.21 45.74 21.33 40.10 25.00 C 39.01 25.64 37.91 26.26 36.81 26.88 C 39.30 18.70 46.31 13.77 51.96 7.94 C 59.95 2.17 70.84 3.78 79.53 0.00 Z" />
</g>
<g id="#d3af5aff">
<path fill="#d3af5a" opacity="1.00" d=" M 87.48 0.00 L 93.57 0.00 C 101.88 2.29 110.89 2.92 118.21 7.86 C 107.96 5.37 97.76 2.22 87.48 0.00 Z" />
</g>
<g id="#fefefdff">
</g>
<g id="#4f3012ff">
<path fill="#4f3012" opacity="1.00" d=" M 69.43 13.93 C 72.40 2.55 93.20 -0.82 94.23 13.09 C 93.91 13.36 93.27 13.89 92.95 14.16 C 92.42 13.35 91.84 12.59 91.20 11.87 C 88.23 7.78 81.90 8.16 78.63 11.72 C 74.85 14.60 71.45 17.94 67.71 20.87 C 67.94 19.66 68.15 18.45 68.37 17.24 C 68.71 16.13 69.07 15.03 69.43 13.93 Z" />
</g>
<g id="#de982cff">
<path fill="#de982c" opacity="1.00" d=" M 0.00 72.42 C 4.53 44.93 21.84 18.85 47.95 7.77 C 41.79 15.04 28.90 17.96 26.35 29.07 C 27.86 35.77 21.10 40.55 21.21 47.09 C 16.90 65.31 26.94 81.69 31.32 98.73 C 35.26 101.63 36.03 108.75 42.15 107.17 C 31.19 113.54 23.41 124.31 19.93 136.40 C 8.28 124.85 3.11 108.26 0.00 92.47 L 0.00 72.42 Z" />
</g>
<g id="#e8a825ff">
<path fill="#e8a825" opacity="1.00" d=" M 47.95 7.77 C 49.28 7.84 50.62 7.89 51.96 7.94 C 46.31 13.77 39.30 18.70 36.81 26.88 C 29.39 32.68 24.96 42.10 27.12 51.71 C 26.16 68.36 33.92 83.85 42.71 97.29 C 47.51 106.33 57.01 100.99 64.77 100.65 C 64.91 100.20 65.20 99.28 65.35 98.83 C 65.61 99.89 65.86 100.96 66.07 102.03 C 57.79 101.53 49.56 103.54 42.15 107.17 C 36.03 108.75 35.26 101.63 31.32 98.73 C 26.94 81.69 16.90 65.31 21.21 47.09 C 21.10 40.55 27.86 35.77 26.35 29.07 C 28.90 17.96 41.79 15.04 47.95 7.77 Z" />
</g>
<g id="#ddbb32ff">
<path fill="#ddbb32" opacity="1.00" d=" M 78.63 11.72 C 81.90 8.16 88.23 7.78 91.20 11.87 C 87.08 12.76 82.66 13.23 78.63 11.72 Z" />
</g>
<g id="#d1af65ff">
<path fill="#d1af65" opacity="1.00" d=" M 120.08 8.82 C 126.28 10.42 131.04 15.17 136.17 18.70 C 133.41 18.39 130.64 18.09 127.90 17.84 C 132.92 14.99 121.63 11.47 120.08 8.82 Z" />
</g>
<g id="#fbef9eff">
<path fill="#fbef9e" opacity="1.00" d=" M 67.71 20.87 C 71.45 17.94 74.85 14.60 78.63 11.72 C 82.66 13.23 87.08 12.76 91.20 11.87 C 91.84 12.59 92.42 13.35 92.95 14.16 C 99.70 19.69 104.87 27.80 107.41 36.63 C 110.80 41.79 104.19 47.91 110.16 52.30 C 109.71 53.47 109.26 54.65 108.81 55.83 C 101.41 54.98 103.71 69.38 96.65 69.09 C 100.06 57.26 97.94 41.37 86.45 34.57 C 82.62 26.80 71.48 32.57 67.17 37.45 C 64.87 37.54 62.10 35.28 64.06 33.07 C 66.90 29.58 66.78 25.06 67.71 20.87 Z" />
</g>
<g id="#fce375ff">
<path fill="#fce375" opacity="1.00" d=" M 58.19 16.11 C 61.82 15.09 65.67 11.68 69.43 13.93 C 69.07 15.03 68.71 16.13 68.37 17.24 C 68.89 11.86 65.21 15.06 63.56 17.54 C 54.25 20.65 56.29 33.88 57.52 41.39 C 56.82 46.00 64.28 48.13 64.91 42.95 C 65.16 43.56 65.65 44.77 65.90 45.38 C 64.39 50.41 63.96 55.67 63.92 60.90 C 59.22 60.12 54.57 59.04 49.92 57.98 C 47.94 54.05 46.55 48.12 52.86 48.69 C 47.89 42.37 48.62 34.21 45.96 27.07 C 48.83 22.25 53.41 18.88 58.19 16.11 Z" />
</g>
<g id="#fce87eff">
<path fill="#fce87e" opacity="1.00" d=" M 94.23 13.09 C 100.16 14.40 106.14 15.70 111.69 18.24 C 117.55 25.92 119.86 36.86 115.90 45.87 C 113.77 47.82 111.88 49.99 110.16 52.30 C 104.19 47.91 110.80 41.79 107.41 36.63 C 104.87 27.80 99.70 19.69 92.95 14.16 C 93.27 13.89 93.91 13.36 94.23 13.09 Z" />
</g>
<g id="#fcea8aff">
<path fill="#fcea8a" opacity="1.00" d=" M 63.56 17.54 C 65.21 15.06 68.89 11.86 68.37 17.24 C 68.15 18.45 67.94 19.66 67.71 20.87 C 66.78 25.06 66.90 29.58 64.06 33.07 C 62.10 35.28 64.87 37.54 67.17 37.45 C 66.41 39.28 65.68 41.12 64.91 42.95 C 64.28 48.13 56.82 46.00 57.52 41.39 C 56.29 33.88 54.25 20.65 63.56 17.54 Z" />
</g>
<g id="#fadb62ff">
<path fill="#fadb62" opacity="1.00" d=" M 40.10 25.00 C 45.74 21.33 51.38 17.21 58.19 16.11 C 53.41 18.88 48.83 22.25 45.96 27.07 C 48.62 34.21 47.89 42.37 52.86 48.69 C 46.55 48.12 47.94 54.05 49.92 57.98 C 55.46 61.03 63.74 62.10 69.82 66.20 C 70.11 66.42 70.68 66.86 70.97 67.08 C 73.13 68.93 74.90 71.16 76.85 73.21 C 78.68 77.19 80.53 81.17 82.05 85.28 C 76.36 83.93 71.15 80.82 65.18 80.50 C 60.73 75.78 54.21 74.08 47.87 75.32 C 47.17 68.29 57.19 71.72 60.93 68.77 C 62.22 61.03 51.12 62.95 46.46 61.57 C 39.57 51.25 29.92 36.37 40.10 25.00 Z" />
</g>
<g id="#fadb5fff">
<path fill="#fadb5f" opacity="1.00" d=" M 111.69 18.24 C 115.22 19.62 118.53 21.48 121.87 23.26 C 121.41 26.86 122.50 27.36 124.93 24.80 C 125.85 25.90 126.77 27.01 127.71 28.09 C 128.72 33.29 135.73 37.83 131.83 43.60 C 129.16 43.73 126.53 43.17 123.87 43.00 C 125.20 44.06 126.58 45.04 127.95 46.05 C 123.96 45.64 119.85 44.83 115.90 45.87 C 119.86 36.86 117.55 25.92 111.69 18.24 Z" />
</g>
<g id="#4f2f0fff">
<path fill="#4f2f0f" opacity="1.00" d=" M 121.87 23.26 C 123.45 21.01 125.41 19.05 127.90 17.84 C 130.64 18.09 133.41 18.39 136.17 18.70 C 137.47 20.80 138.84 22.86 140.14 24.96 C 140.56 28.02 140.93 31.08 141.18 34.16 C 139.96 42.05 136.98 33.34 135.88 30.03 C 134.78 25.74 128.94 20.42 124.93 24.80 C 122.50 27.36 121.41 26.86 121.87 23.26 Z" />
</g>
<g id="#cfb887ff">
<path fill="#cfb887" opacity="1.00" d=" M 136.17 18.70 C 138.85 20.30 141.13 22.44 143.06 24.88 C 142.33 24.90 140.87 24.94 140.14 24.96 C 138.84 22.86 137.47 20.80 136.17 18.70 Z" />
</g>
<g id="#ebad25ff">
<path fill="#ebad25" opacity="1.00" d=" M 124.93 24.80 C 128.94 20.42 134.78 25.74 135.88 30.03 C 136.98 33.34 139.96 42.05 141.18 34.16 C 140.48 30.19 142.36 25.74 145.30 29.72 C 147.98 36.69 155.74 41.94 154.73 50.02 C 154.49 60.21 155.20 71.03 150.30 80.26 C 148.09 83.78 143.71 81.01 140.76 80.11 C 143.85 72.40 143.50 63.65 139.79 56.23 C 142.73 45.87 137.14 33.12 127.71 28.09 C 126.77 27.01 125.85 25.90 124.93 24.80 Z" />
</g>
<g id="#f7c741ff">
<path fill="#f7c741" opacity="1.00" d=" M 36.81 26.88 C 37.91 26.26 39.01 25.64 40.10 25.00 C 29.92 36.37 39.57 51.25 46.46 61.57 C 51.12 62.95 62.22 61.03 60.93 68.77 C 57.19 71.72 47.17 68.29 47.87 75.32 C 46.64 75.88 45.38 76.39 44.16 76.98 C 44.00 73.09 43.55 68.31 39.10 66.83 C 33.12 63.54 30.75 57.05 27.12 51.71 C 24.96 42.10 29.39 32.68 36.81 26.88 Z" />
</g>
<g id="#db942eff">
<path fill="#db942e" opacity="1.00" d=" M 140.14 24.96 C 140.87 24.94 142.33 24.90 143.06 24.88 C 155.48 38.01 163.79 54.80 166.35 72.71 C 166.21 78.20 165.80 83.70 166.12 89.19 C 154.28 87.24 141.96 87.03 130.82 91.99 C 130.05 87.63 141.98 83.59 134.95 83.94 C 137.47 83.39 139.92 82.70 140.76 80.11 C 143.71 81.01 148.09 83.78 150.30 80.26 C 155.20 71.03 154.49 60.21 154.73 50.02 C 155.74 41.94 147.98 36.69 145.30 29.72 C 142.36 25.74 140.48 30.19 141.18 34.16 C 140.93 31.08 140.56 28.02 140.14 24.96 Z" />
</g>
<g id="#f6c63fff">
<path fill="#f6c63f" opacity="1.00" d=" M 127.71 28.09 C 137.14 33.12 142.73 45.87 139.79 56.23 C 136.70 51.96 132.36 48.83 127.95 46.05 C 126.58 45.04 125.20 44.06 123.87 43.00 C 126.53 43.17 129.16 43.73 131.83 43.60 C 135.73 37.83 128.72 33.29 127.71 28.09 Z" />
</g>
<g id="#f4c56bff">
<path fill="#f4c56b" opacity="1.00" d=" M 67.17 37.45 C 71.48 32.57 82.62 26.80 86.45 34.57 C 77.45 31.35 69.79 37.91 65.90 45.38 C 65.65 44.77 65.16 43.56 64.91 42.95 C 65.68 41.12 66.41 39.28 67.17 37.45 Z" />
</g>
<g id="#9e9e77ff">
<path fill="#9e9e77" opacity="1.00" d=" M 65.90 45.38 C 69.79 37.91 77.45 31.35 86.45 34.57 C 97.94 41.37 100.06 57.26 96.65 69.09 C 95.32 72.73 93.19 75.97 90.95 79.10 C 88.04 80.97 83.69 81.59 82.60 85.35 L 82.05 85.28 C 80.53 81.17 78.68 77.19 76.85 73.21 L 77.82 73.25 C 78.87 74.50 79.84 75.81 80.76 77.16 C 81.72 84.59 89.02 78.62 91.38 75.16 C 93.93 72.05 95.20 68.07 96.20 64.24 C 97.18 60.46 97.23 56.50 96.32 52.71 C 95.51 48.95 94.29 45.21 91.94 42.11 C 87.46 33.54 74.65 33.14 70.04 42.12 C 66.07 47.63 66.00 54.62 64.85 61.06 L 63.92 60.90 C 63.96 55.67 64.39 50.41 65.90 45.38 Z" />
</g>
<g id="#bbe3ecff">
<path fill="#bbe3ec" opacity="1.00" d=" M 70.04 42.12 C 74.65 33.14 87.46 33.54 91.94 42.11 C 84.60 40.75 77.32 40.21 70.04 42.12 Z" />
</g>
<g id="#e7f2f4ff">
<path fill="#e7f2f4" opacity="1.00" d=" M 70.04 42.12 C 77.32 40.21 84.60 40.75 91.94 42.11 C 94.29 45.21 95.51 48.95 96.32 52.71 C 96.17 56.55 96.03 60.40 96.20 64.24 C 95.20 68.07 93.93 72.05 91.38 75.16 C 90.26 71.20 84.15 77.22 80.76 77.16 C 79.84 75.81 78.87 74.50 77.82 73.25 C 83.12 73.36 87.83 69.17 89.23 64.22 C 89.80 61.42 90.62 58.41 89.33 55.71 C 88.11 52.44 85.53 49.96 83.08 47.59 C 80.87 46.06 78.82 46.06 76.94 47.60 C 74.22 49.29 71.40 51.42 70.75 54.77 C 70.20 58.24 69.93 61.75 69.79 65.27 C 68.19 63.81 66.52 62.43 64.85 61.06 C 66.00 54.62 66.07 47.63 70.04 42.12 Z" />
</g>
<g id="#a19460ff">
<path fill="#a19460" opacity="1.00" d=" M 115.90 45.87 C 119.85 44.83 123.96 45.64 127.95 46.05 C 132.36 48.83 136.70 51.96 139.79 56.23 C 143.50 63.65 143.85 72.40 140.76 80.11 C 139.92 82.70 137.47 83.39 134.95 83.94 C 130.00 84.68 125.63 92.58 121.09 87.91 C 118.24 84.83 115.57 81.59 113.29 78.07 C 112.88 76.67 112.50 75.26 112.16 73.84 C 113.83 75.38 115.46 76.98 116.83 78.80 C 118.02 82.37 120.57 86.98 124.88 86.88 C 129.44 84.36 134.14 82.08 138.80 79.79 C 144.25 70.49 141.27 57.11 132.28 50.98 C 125.72 45.17 112.03 45.33 111.00 56.00 C 110.78 58.73 107.51 65.40 111.81 66.27 C 111.85 67.99 111.93 71.42 111.97 73.13 L 111.20 73.22 C 109.14 67.66 109.00 61.68 108.81 55.83 C 109.26 54.65 109.71 53.47 110.16 52.30 C 111.88 49.99 113.77 47.82 115.90 45.87 Z" />
</g>
<g id="#8d8aa5ff">
<path fill="#8d8aa5" opacity="1.00" d=" M 76.94 47.60 C 78.82 46.06 80.87 46.06 83.08 47.59 C 81.13 48.53 78.89 48.49 76.94 47.60 Z" />
</g>
<g id="#bfe0e8ff">
<path fill="#bfe0e8" opacity="1.00" d=" M 111.00 56.00 C 112.03 45.33 125.72 45.17 132.28 50.98 C 126.89 53.36 118.41 46.62 116.77 55.26 C 113.93 58.32 111.19 61.79 111.81 66.27 C 107.51 65.40 110.78 58.73 111.00 56.00 Z" />
</g>
<g id="#2a4a86ff">
<path fill="#2a4a86" opacity="1.00" d=" M 70.75 54.77 C 71.40 51.42 74.22 49.29 76.94 47.60 C 78.89 48.49 81.13 48.53 83.08 47.59 C 85.53 49.96 88.11 52.44 89.33 55.71 C 89.32 58.55 89.28 61.38 89.23 64.22 C 87.83 69.17 83.12 73.36 77.82 73.25 L 76.85 73.21 C 74.90 71.16 73.13 68.93 70.97 67.08 C 70.88 62.98 70.80 58.87 70.75 54.77 M 75.18 59.03 C 73.47 59.81 74.63 66.77 77.58 65.76 C 77.52 70.79 83.57 68.70 83.13 64.82 C 88.20 64.24 83.34 50.28 80.03 54.14 C 76.68 48.56 69.54 55.75 75.18 59.03 Z" />
</g>
<g id="#e6f1f4ff">
<path fill="#e6f1f4" opacity="1.00" d=" M 116.77 55.26 C 118.41 46.62 126.89 53.36 132.28 50.98 C 141.27 57.11 144.25 70.49 138.80 79.79 C 134.14 82.08 129.44 84.36 124.88 86.88 C 120.57 86.98 118.02 82.37 116.83 78.80 C 125.43 83.39 132.01 73.61 131.02 65.96 C 131.37 58.64 123.91 51.66 116.77 55.26 Z" />
</g>
<g id="#f5c122ff">
<path fill="#f5c122" opacity="1.00" d=" M 27.12 51.71 C 30.75 57.05 33.12 63.54 39.10 66.83 C 43.55 68.31 44.00 73.09 44.16 76.98 C 43.41 77.69 42.68 78.41 41.97 79.14 C 46.69 77.82 51.53 76.32 56.51 77.22 C 58.36 82.83 62.55 87.33 63.75 93.16 C 64.25 95.06 64.87 96.92 65.35 98.83 C 65.20 99.28 64.91 100.20 64.77 100.65 C 57.01 100.99 47.51 106.33 42.71 97.29 C 33.92 83.85 26.16 68.36 27.12 51.71 Z" />
</g>
<g id="#d9e0e4ff">
<path fill="#d9e0e4" opacity="1.00" d=" M 75.18 59.03 C 69.54 55.75 76.68 48.56 80.03 54.14 C 80.39 56.97 78.03 59.38 75.18 59.03 Z" />
</g>
<g id="#090e16ff">
<path fill="#090e16" opacity="1.00" d=" M 80.03 54.14 C 83.34 50.28 88.20 64.24 83.13 64.82 C 81.12 63.88 79.09 64.00 77.58 65.76 C 74.63 66.77 73.47 59.81 75.18 59.03 C 78.03 59.38 80.39 56.97 80.03 54.14 Z" />
</g>
<g id="#bec8baff">
<path fill="#bec8ba" opacity="1.00" d=" M 96.32 52.71 C 97.23 56.50 97.18 60.46 96.20 64.24 C 96.03 60.40 96.17 56.55 96.32 52.71 Z" />
</g>
<g id="#2a4b87ff">
<path fill="#2a4b87" opacity="1.00" d=" M 116.77 55.26 C 123.91 51.66 131.37 58.64 131.02 65.96 C 132.01 73.61 125.43 83.39 116.83 78.80 C 115.46 76.98 113.83 75.38 112.16 73.84 L 111.97 73.13 C 111.93 71.42 111.85 67.99 111.81 66.27 C 111.19 61.79 113.93 58.32 116.77 55.26 M 117.18 66.00 C 114.14 66.35 117.80 77.62 119.81 71.81 C 118.50 76.98 125.53 76.95 124.16 71.78 C 130.42 72.40 122.12 52.90 121.26 64.20 C 121.26 62.12 121.16 58.30 118.07 59.02 C 113.91 59.39 113.21 64.59 117.18 66.00 Z" />
</g>
<g id="#707b92ff">
<path fill="#707b92" opacity="1.00" d=" M 69.79 65.27 C 69.93 61.75 70.20 58.24 70.75 54.77 C 70.80 58.87 70.88 62.98 70.97 67.08 C 70.68 66.86 70.11 66.42 69.82 66.20 L 69.79 65.27 Z" />
</g>
<g id="#a1b0c5ff">
<path fill="#a1b0c5" opacity="1.00" d=" M 89.33 55.71 C 90.62 58.41 89.80 61.42 89.23 64.22 C 89.28 61.38 89.32 58.55 89.33 55.71 Z" />
</g>
<g id="#fae684ff">
<path fill="#fae684" opacity="1.00" d=" M 96.65 69.09 C 103.71 69.38 101.41 54.98 108.81 55.83 C 109.00 61.68 109.14 67.66 111.20 73.22 C 104.26 68.39 98.84 79.99 90.95 79.10 C 93.19 75.97 95.32 72.73 96.65 69.09 Z" />
</g>
<g id="#ab9543ff">
<path fill="#ab9543" opacity="1.00" d=" M 49.92 57.98 C 54.57 59.04 59.22 60.12 63.92 60.90 L 64.85 61.06 C 66.52 62.43 68.19 63.81 69.79 65.27 L 69.82 66.20 C 63.74 62.10 55.46 61.03 49.92 57.98 Z" />
</g>
<g id="#dae1e6ff">
<path fill="#dae1e6" opacity="1.00" d=" M 117.18 66.00 C 113.21 64.59 113.91 59.39 118.07 59.02 C 121.16 58.30 121.26 62.12 121.26 64.20 C 120.38 65.68 118.78 66.02 117.18 66.00 Z" />
</g>
<g id="#070a10ff">
<path fill="#070a10" opacity="1.00" d=" M 121.26 64.20 C 122.12 52.90 130.42 72.40 124.16 71.78 C 122.80 71.81 120.56 70.16 119.81 71.81 C 117.80 77.62 114.14 66.35 117.18 66.00 C 118.78 66.02 120.38 65.68 121.26 64.20 Z" />
</g>
<g id="#cdd6e1ff">
<path fill="#cdd6e1" opacity="1.00" d=" M 77.58 65.76 C 79.09 64.00 81.12 63.88 83.13 64.82 C 83.57 68.70 77.52 70.79 77.58 65.76 Z" />
</g>
<g id="#fcdf61ff">
<path fill="#fcdf61" opacity="1.00" d=" M 90.95 79.10 C 98.84 79.99 104.26 68.39 111.20 73.22 L 111.97 73.13 L 112.16 73.84 C 112.50 75.26 112.88 76.67 113.29 78.07 C 107.17 77.65 103.00 83.03 97.30 84.25 C 92.46 84.91 87.50 85.63 82.60 85.35 C 83.69 81.59 88.04 80.97 90.95 79.10 Z" />
</g>
<g id="#d5e2e7ff">
<path fill="#d5e2e7" opacity="1.00" d=" M 119.81 71.81 C 120.56 70.16 122.80 71.81 124.16 71.78 C 125.53 76.95 118.50 76.98 119.81 71.81 Z" />
</g>
<g id="#bde5efff">
<path fill="#bde5ef" opacity="1.00" d=" M 80.76 77.16 C 84.15 77.22 90.26 71.20 91.38 75.16 C 89.02 78.62 81.72 84.59 80.76 77.16 Z" />
</g>
<g id="#caa671ff">
<path fill="#caa671" opacity="1.00" d=" M 166.35 72.71 C 167.22 78.36 166.98 84.10 167.02 89.80 L 166.31 90.32 L 166.12 89.19 C 165.80 83.70 166.21 78.20 166.35 72.71 Z" />
</g>
<g id="#ae8b19ff">
<path fill="#ae8b19" opacity="1.00" d=" M 47.87 75.32 C 54.21 74.08 60.73 75.78 65.18 80.50 C 62.80 80.55 60.89 78.95 58.80 78.06 C 60.07 81.99 62.58 85.30 64.65 88.82 C 64.31 90.25 64.01 91.70 63.75 93.16 C 62.55 87.33 58.36 82.83 56.51 77.22 C 51.53 76.32 46.69 77.82 41.97 79.14 C 42.68 78.41 43.41 77.69 44.16 76.98 C 45.38 76.39 46.64 75.88 47.87 75.32 Z" />
</g>
<g id="#fad539ff">
<path fill="#fad539" opacity="1.00" d=" M 58.80 78.06 C 60.89 78.95 62.80 80.55 65.18 80.50 C 71.15 80.82 76.36 83.93 82.05 85.28 L 82.60 85.35 C 87.50 85.63 92.46 84.91 97.30 84.25 C 103.00 83.03 107.17 77.65 113.29 78.07 C 115.57 81.59 118.24 84.83 121.09 87.91 C 114.27 78.69 108.42 87.77 101.57 90.51 C 95.88 90.91 89.74 93.47 84.28 90.75 C 78.35 93.10 73.24 87.97 66.81 87.97 C 67.51 90.01 70.72 90.98 69.12 93.41 C 67.53 91.97 66.01 90.47 64.65 88.82 C 62.58 85.30 60.07 81.99 58.80 78.06 Z" />
</g>
<g id="#f7c51cff">
<path fill="#f7c51c" opacity="1.00" d=" M 101.57 90.51 C 108.42 87.77 114.27 78.69 121.09 87.91 C 125.63 92.58 130.00 84.68 134.95 83.94 C 141.98 83.59 130.05 87.63 130.82 91.99 C 124.99 96.31 118.37 100.33 114.73 106.84 C 98.79 108.36 82.80 103.35 69.85 94.16 C 69.67 93.97 69.30 93.60 69.12 93.41 C 70.72 90.98 67.51 90.01 66.81 87.97 C 73.24 87.97 78.35 93.10 84.28 90.75 C 89.74 93.47 95.88 90.91 101.57 90.51 Z" />
</g>
<g id="#a2221fff">
<path fill="#a2221f" opacity="1.00" d=" M 130.82 91.99 C 141.96 87.03 154.28 87.24 166.12 89.19 L 166.31 90.32 C 160.02 92.18 150.68 88.20 144.13 92.20 C 145.15 95.51 144.64 97.80 140.74 97.79 C 132.14 99.09 123.56 102.67 118.03 109.59 C 117.07 110.44 116.10 111.28 115.12 112.12 C 115.02 110.66 114.90 109.20 114.78 107.75 L 114.73 106.84 C 118.37 100.33 124.99 96.31 130.82 91.99 Z" />
</g>
<g id="#3b1a0fff">
<path fill="#3b1a0f" opacity="1.00" d=" M 63.75 93.16 C 64.01 91.70 64.31 90.25 64.65 88.82 C 66.01 90.47 67.53 91.97 69.12 93.41 C 69.30 93.60 69.67 93.97 69.85 94.16 C 70.06 95.44 70.19 96.75 70.56 98.00 C 71.27 99.86 72.30 101.58 73.31 103.28 C 70.86 103.16 68.46 102.54 66.07 102.03 C 65.86 100.96 65.61 99.89 65.35 98.83 C 64.87 96.92 64.25 95.06 63.75 93.16 Z" />
</g>
<g id="#9f2b32ff">
<path fill="#9f2b32" opacity="1.00" d=" M 144.13 92.20 C 150.68 88.20 160.02 92.18 166.31 90.32 L 167.02 89.80 C 175.01 94.21 183.41 98.77 188.09 107.01 C 190.26 111.90 181.45 110.18 180.86 115.00 C 180.18 115.77 179.51 116.55 178.83 117.32 C 178.63 116.90 178.22 116.05 178.02 115.62 C 170.89 102.94 155.09 95.42 140.74 97.79 C 144.64 97.80 145.15 95.51 144.13 92.20 Z" />
</g>
<g id="#fdfdfcff">
</g>
<g id="#8d7936ff">
<path fill="#8d7936" opacity="1.00" d=" M 69.85 94.16 C 82.80 103.35 98.79 108.36 114.73 106.84 L 114.78 107.75 C 114.33 108.08 113.43 108.74 112.98 109.07 C 100.16 109.36 87.44 105.65 76.07 99.94 C 74.22 99.26 72.51 95.99 70.56 98.00 C 70.19 96.75 70.06 95.44 69.85 94.16 Z" />
</g>
<g id="#dbe3daff">
<path fill="#dbe3da" opacity="1.00" d=" M 70.56 98.00 C 72.51 95.99 74.22 99.26 76.07 99.94 C 87.44 105.65 100.16 109.36 112.98 109.07 C 111.80 116.64 105.17 120.46 97.90 119.20 C 92.02 111.36 83.34 104.36 73.31 103.28 C 72.30 101.58 71.27 99.86 70.56 98.00 Z" />
</g>
<g id="#b94c50ff">
<path fill="#b94c50" opacity="1.00" d=" M 140.74 97.79 C 155.09 95.42 170.89 102.94 178.02 115.62 C 176.32 117.39 176.24 119.64 176.75 121.91 C 173.25 120.87 169.54 119.58 166.94 123.01 C 158.79 118.05 154.35 106.59 143.30 107.37 C 136.56 109.99 128.87 108.90 122.44 112.33 C 117.35 116.10 118.48 111.79 118.03 109.59 C 123.56 102.67 132.14 99.09 140.74 97.79 Z" />
</g>
<g id="#9f1c21ff">
<path fill="#9f1c21" opacity="1.00" d=" M 42.15 107.17 C 49.56 103.54 57.79 101.53 66.07 102.03 C 68.46 102.54 70.86 103.16 73.31 103.28 C 83.34 104.36 92.02 111.36 97.90 119.20 C 99.19 122.11 100.25 125.12 100.83 128.26 C 99.96 127.18 99.11 126.10 98.30 124.98 C 86.03 105.59 54.30 105.33 39.94 122.89 C 32.88 129.63 30.76 139.70 30.22 149.08 C 26.62 147.73 20.18 149.89 18.82 145.96 C 19.22 142.77 19.72 139.60 19.93 136.40 C 23.41 124.31 31.19 113.54 42.15 107.17 Z" />
</g>
<g id="#be4243ff">
<path fill="#be4243" opacity="1.00" d=" M 143.30 107.37 C 154.35 106.59 158.79 118.05 166.94 123.01 C 169.54 119.58 173.25 120.87 176.75 121.91 C 176.24 119.64 176.32 117.39 178.02 115.62 C 178.22 116.05 178.63 116.90 178.83 117.32 C 179.05 119.93 179.16 122.57 179.59 125.16 L 179.65 125.92 C 181.12 136.37 171.25 133.96 165.35 137.91 C 163.76 134.39 162.48 130.67 160.04 127.62 C 163.80 125.32 160.71 124.39 157.77 125.75 C 162.63 122.23 155.87 118.52 153.60 115.34 C 135.89 108.66 111.15 118.29 109.82 138.89 C 110.02 141.94 106.10 141.05 105.32 139.26 C 110.25 131.68 107.43 119.21 115.12 112.12 C 116.10 111.28 117.07 110.44 118.03 109.59 C 118.48 111.79 117.35 116.10 122.44 112.33 C 128.87 108.90 136.56 109.99 143.30 107.37 Z" />
</g>
<g id="#d59740ff">
<path fill="#d59740" opacity="1.00" d=" M 188.09 107.01 C 195.62 109.68 201.98 114.60 205.00 122.39 L 205.00 133.68 C 203.22 137.29 200.48 140.28 197.44 142.88 C 191.73 143.30 186.27 142.06 183.97 136.29 C 180.37 133.91 179.40 130.15 179.65 125.92 L 179.59 125.16 C 180.15 125.42 181.27 125.94 181.83 126.21 L 181.73 127.01 C 177.30 135.08 188.20 132.31 187.72 138.35 C 193.81 142.05 202.77 138.47 203.07 131.02 C 206.72 119.23 190.93 106.95 180.86 115.00 C 181.45 110.18 190.26 111.90 188.09 107.01 Z" />
</g>
<g id="#7a1d1aff">
<path fill="#7a1d1a" opacity="1.00" d=" M 112.98 109.07 C 113.43 108.74 114.33 108.08 114.78 107.75 C 114.90 109.20 115.02 110.66 115.12 112.12 C 107.43 119.21 110.25 131.68 105.32 139.26 C 104.55 135.31 103.33 131.48 100.83 128.26 C 100.25 125.12 99.19 122.11 97.90 119.20 C 105.17 120.46 111.80 116.64 112.98 109.07 Z" />
</g>
<g id="#bd464aff">
<path fill="#bd464a" opacity="1.00" d=" M 39.94 122.89 C 54.30 105.33 86.03 105.59 98.30 124.98 C 95.89 129.15 89.19 125.29 85.13 124.82 C 70.98 124.14 54.02 125.48 45.00 138.10 C 44.49 138.07 43.48 138.01 42.97 137.98 C 45.12 131.82 51.07 128.06 53.14 121.92 C 44.31 123.13 41.62 133.89 37.05 140.22 C 38.24 134.46 37.94 128.48 39.94 122.89 Z" />
</g>
<g id="#f1be27ff">
<path fill="#f1be27" opacity="1.00" d=" M 180.86 115.00 C 190.93 106.95 206.72 119.23 203.07 131.02 C 202.77 138.47 193.81 142.05 187.72 138.35 C 188.20 132.31 177.30 135.08 181.73 127.01 C 184.89 132.18 192.07 130.28 197.00 129.90 C 196.14 126.90 194.98 123.99 193.67 121.17 C 189.12 120.38 185.58 124.26 181.83 126.21 C 181.27 125.94 180.15 125.42 179.59 125.16 C 179.16 122.57 179.05 119.93 178.83 117.32 C 179.51 116.55 180.18 115.77 180.86 115.00 Z" />
</g>
<g id="#cc3a3bff">
<path fill="#cc3a3b" opacity="1.00" d=" M 109.82 138.89 C 111.15 118.29 135.89 108.66 153.60 115.34 C 155.87 118.52 162.63 122.23 157.77 125.75 C 155.30 127.85 152.85 129.99 150.27 131.96 C 149.16 130.14 150.11 125.53 147.15 126.11 C 144.43 130.03 144.99 135.41 142.21 139.37 C 142.17 136.18 142.66 133.06 142.88 129.90 C 139.81 130.36 139.91 134.55 138.69 136.86 C 138.53 137.43 138.21 138.57 138.05 139.14 C 134.99 131.87 123.24 140.24 127.06 145.74 C 126.61 146.10 125.73 146.82 125.28 147.18 C 126.53 144.40 123.93 136.62 120.03 139.99 C 117.76 142.29 113.29 143.91 114.16 147.80 C 113.61 147.57 112.52 147.11 111.97 146.88 C 111.52 139.55 107.51 152.97 105.68 155.77 C 99.33 156.62 105.75 148.73 107.22 145.98 C 105.37 147.19 103.66 148.61 101.96 150.02 C 103.68 146.82 103.50 140.83 107.90 145.01 C 111.68 138.98 99.41 141.77 96.34 143.62 C 95.65 141.18 94.80 138.87 92.68 141.72 C 87.84 140.98 88.84 145.63 88.86 149.17 C 90.36 143.61 85.19 142.37 83.09 146.19 C 71.19 145.15 57.60 150.96 44.85 148.87 C 45.37 146.78 50.06 142.10 45.64 142.68 C 42.78 143.26 45.17 139.61 45.00 138.10 C 54.02 125.48 70.98 124.14 85.13 124.82 C 89.19 125.29 95.89 129.15 98.30 124.98 C 99.11 126.10 99.96 127.18 100.83 128.26 C 103.33 131.48 104.55 135.31 105.32 139.26 C 106.10 141.05 110.02 141.94 109.82 138.89 Z" />
</g>
<g id="#fbdf55ff">
<path fill="#fbdf55" opacity="1.00" d=" M 181.83 126.21 C 185.58 124.26 189.12 120.38 193.67 121.17 C 194.98 123.99 196.14 126.90 197.00 129.90 C 192.07 130.28 184.89 132.18 181.73 127.01 L 181.83 126.21 Z" />
</g>
<g id="#db8281ff">
<path fill="#db8281" opacity="1.00" d=" M 37.05 140.22 C 41.62 133.89 44.31 123.13 53.14 121.92 C 51.07 128.06 45.12 131.82 42.97 137.98 C 40.37 140.81 40.41 146.55 35.96 147.13 C 36.04 144.79 36.57 142.50 37.05 140.22 Z" />
</g>
<g id="#b63737ff">
<path fill="#b63737" opacity="1.00" d=" M 30.22 149.08 C 30.76 139.70 32.88 129.63 39.94 122.89 C 37.94 128.48 38.24 134.46 37.05 140.22 C 36.57 142.50 36.04 144.79 35.96 147.13 C 40.41 146.55 40.37 140.81 42.97 137.98 C 43.48 138.01 44.49 138.07 45.00 138.10 C 45.17 139.61 42.78 143.26 45.64 142.68 C 50.06 142.10 45.37 146.78 44.85 148.87 C 40.70 148.98 39.96 154.10 36.92 156.20 C 34.59 155.62 33.48 156.57 33.97 158.96 C 33.19 155.79 32.88 152.11 30.20 149.87 L 30.22 149.08 Z" />
</g>
<g id="#f2cccaff">
<path fill="#f2ccca" opacity="1.00" d=" M 157.77 125.75 C 160.71 124.39 163.80 125.32 160.04 127.62 C 157.01 128.82 154.28 130.68 152.02 133.03 C 149.50 138.60 160.69 147.11 153.69 151.81 C 150.22 152.44 146.91 149.24 145.63 146.24 C 145.60 142.25 146.74 138.52 147.94 134.79 C 146.37 136.27 145.23 138.12 144.22 140.02 C 141.32 142.59 139.04 139.88 138.69 136.86 C 139.91 134.55 139.81 130.36 142.88 129.90 C 142.66 133.06 142.17 136.18 142.21 139.37 C 144.99 135.41 144.43 130.03 147.15 126.11 C 150.11 125.53 149.16 130.14 150.27 131.96 C 152.85 129.99 155.30 127.85 157.77 125.75 M 148.02 138.92 C 148.16 142.17 148.24 148.99 153.02 149.06 C 152.80 145.56 152.21 139.43 148.02 138.92 Z" />
</g>
<g id="#bb3337ff">
<path fill="#bb3337" opacity="1.00" d=" M 165.35 137.91 C 171.25 133.96 181.12 136.37 179.65 125.92 C 179.40 130.15 180.37 133.91 183.97 136.29 C 183.03 141.50 180.64 146.11 176.92 149.77 C 174.60 152.73 175.20 156.65 174.70 160.17 C 174.03 160.06 172.70 159.84 172.04 159.73 C 168.15 157.70 165.67 162.10 163.07 164.22 C 163.14 167.68 167.81 179.04 167.94 171.00 C 169.26 173.34 172.00 171.90 174.10 172.06 C 162.29 187.47 146.55 199.44 131.94 212.07 C 135.08 206.09 141.16 202.45 144.60 196.66 C 148.13 189.78 156.19 184.70 154.96 176.08 C 156.64 177.53 158.93 178.89 160.27 176.24 C 161.60 174.02 161.98 171.40 162.09 168.86 C 160.71 170.65 159.46 172.54 158.04 174.30 C 158.07 172.44 158.12 168.72 158.15 166.86 C 158.58 167.12 159.43 167.65 159.86 167.92 C 157.97 163.09 163.48 161.52 163.43 157.36 C 165.68 148.72 161.98 140.52 160.67 132.13 C 157.77 132.18 154.89 132.70 152.02 133.03 C 154.28 130.68 157.01 128.82 160.04 127.62 C 162.48 130.67 163.76 134.39 165.35 137.91 Z" />
</g>
<g id="#c72328ff">
<path fill="#c72328" opacity="1.00" d=" M 152.02 133.03 C 154.89 132.70 157.77 132.18 160.67 132.13 C 161.98 140.52 165.68 148.72 163.43 157.36 C 163.48 161.52 157.97 163.09 159.86 167.92 C 159.43 167.65 158.58 167.12 158.15 166.86 C 157.82 166.65 157.16 166.23 156.82 166.02 C 156.31 166.21 155.29 166.59 154.77 166.79 C 153.38 169.39 153.84 172.57 154.73 175.25 L 154.96 176.08 C 156.19 184.70 148.13 189.78 144.60 196.66 C 141.16 202.45 135.08 206.09 131.94 212.07 C 126.86 215.57 125.23 223.62 119.09 225.27 C 115.01 220.79 109.86 217.64 104.10 215.87 C 101.01 215.33 98.78 210.42 95.63 213.01 C 94.74 208.75 93.48 204.57 92.66 200.29 C 92.81 196.44 92.97 192.61 92.80 188.76 C 93.52 184.92 94.89 181.18 97.04 177.91 C 99.70 174.40 103.94 173.08 108.15 172.63 C 104.82 168.74 99.20 173.81 95.97 175.56 C 92.80 178.09 90.54 181.76 89.76 185.74 C 88.54 191.21 88.82 196.84 89.73 202.33 C 90.56 205.81 87.24 202.95 86.41 201.60 C 80.79 195.40 74.02 188.84 65.13 188.39 C 61.55 187.53 55.62 193.01 57.83 186.30 C 50.82 183.39 49.02 174.97 46.32 168.68 C 44.34 163.73 39.75 160.60 36.92 156.20 C 39.96 154.10 40.70 148.98 44.85 148.87 C 57.60 150.96 71.19 145.15 83.09 146.19 C 85.19 142.37 90.36 143.61 88.86 149.17 C 90.75 153.19 89.94 157.23 85.19 158.27 C 85.18 155.65 86.28 145.17 81.10 150.27 C 83.76 158.03 79.47 164.15 77.93 171.10 C 81.21 171.11 82.04 167.36 83.43 165.08 C 85.09 166.64 86.41 168.51 87.98 170.15 C 86.11 165.28 84.41 159.26 91.01 156.91 C 94.98 159.99 97.02 165.56 102.25 166.99 C 96.08 159.83 90.67 152.03 92.68 141.72 C 94.80 138.87 95.65 141.18 96.34 143.62 C 99.41 141.77 111.68 138.98 107.90 145.01 C 103.50 140.83 103.68 146.82 101.96 150.02 C 99.62 152.74 99.38 156.85 101.23 159.91 C 106.11 160.67 109.15 155.84 114.15 156.70 C 110.86 154.25 111.28 150.54 111.97 146.88 C 112.52 147.11 113.61 147.57 114.16 147.80 C 116.06 152.68 116.99 157.95 119.30 162.68 C 124.07 165.54 118.32 154.30 120.18 153.23 C 121.77 151.13 123.92 149.48 125.28 147.18 C 125.73 146.82 126.61 146.10 127.06 145.74 C 128.54 150.58 129.45 155.71 132.14 160.08 C 135.08 159.18 132.99 156.34 132.76 154.29 C 129.93 147.91 138.63 145.40 138.05 139.14 C 138.21 138.57 138.53 137.43 138.69 136.86 C 139.04 139.88 141.32 142.59 144.22 140.02 C 144.59 142.11 145.05 144.19 145.63 146.24 C 146.91 149.24 150.22 152.44 153.69 151.81 C 160.69 147.11 149.50 138.60 152.02 133.03 M 142.83 163.80 C 141.61 164.56 136.21 167.98 139.14 169.84 C 141.08 169.23 144.93 163.09 144.96 167.95 C 143.22 168.94 142.64 171.01 143.22 174.16 C 141.00 168.81 135.97 175.39 133.18 177.25 C 133.58 180.14 137.54 183.24 133.03 186.01 C 130.59 193.06 123.27 187.04 125.00 181.96 C 127.54 181.34 127.95 184.17 128.24 185.99 C 130.04 184.08 131.58 177.49 127.00 177.95 C 121.28 178.41 121.99 186.78 124.71 190.30 C 129.14 193.40 134.30 189.37 135.63 184.97 C 135.52 187.14 137.87 187.57 138.85 185.82 C 138.52 182.40 135.73 176.82 139.81 174.94 C 141.53 177.83 143.82 184.81 148.08 180.81 C 149.39 180.43 150.02 178.94 151.00 178.07 C 153.43 177.63 155.88 171.79 148.03 175.83 C 148.10 171.32 146.48 164.60 152.06 162.79 C 157.32 162.54 154.01 158.43 150.14 161.05 C 147.67 157.78 144.69 162.52 142.83 163.80 M 157.26 160.08 C 152.57 164.98 162.92 161.37 157.26 160.08 M 110.99 173.98 C 109.14 177.32 109.14 180.67 111.00 184.02 C 111.20 189.34 118.03 197.84 123.19 192.21 C 107.69 192.57 124.33 175.64 117.67 169.29 C 114.63 166.54 110.89 170.83 110.99 173.98 M 101.95 192.08 C 103.85 190.40 104.07 187.24 105.06 184.90 C 103.83 186.01 101.52 186.93 101.34 188.65 C 95.34 191.81 102.72 203.20 105.98 195.61 C 107.40 195.64 110.30 195.60 110.74 194.04 C 110.56 193.13 109.97 192.45 108.97 192.00 C 108.51 189.54 110.28 184.91 107.90 183.90 C 106.15 184.80 104.75 198.46 101.95 192.08 Z" />
</g>
<g id="#fefdfdff">
</g>
<g id="#c77375ff">
<path fill="#c77375" opacity="1.00" d=" M 144.22 140.02 C 145.23 138.12 146.37 136.27 147.94 134.79 C 146.74 138.52 145.60 142.25 145.63 146.24 C 145.05 144.19 144.59 142.11 144.22 140.02 Z" />
</g>
<g id="#f1c7c2ff">
<path fill="#f1c7c2" opacity="1.00" d=" M 127.06 145.74 C 123.24 140.24 134.99 131.87 138.05 139.14 C 138.63 145.40 129.93 147.91 132.76 154.29 C 132.99 156.34 135.08 159.18 132.14 160.08 C 129.45 155.71 128.54 150.58 127.06 145.74 M 132.18 138.06 C 130.23 140.59 128.93 143.78 130.01 147.12 C 134.50 147.34 137.95 137.84 132.18 138.06 Z" />
</g>
<g id="#9f2e37ff">
<path fill="#9f2e37" opacity="1.00" d=" M 183.97 136.29 C 186.27 142.06 191.73 143.30 197.44 142.88 C 194.96 166.04 178.98 184.43 161.59 198.55 C 148.54 210.62 130.93 220.15 124.84 237.81 C 124.34 239.91 123.86 242.02 123.39 244.14 C 121.60 239.70 119.34 235.31 115.67 232.14 C 116.78 229.83 117.93 227.55 119.09 225.27 C 125.23 223.62 126.86 215.57 131.94 212.07 C 146.55 199.44 162.29 187.47 174.10 172.06 C 172.00 171.90 169.26 173.34 167.94 171.00 C 167.70 168.02 166.66 164.84 168.17 162.05 C 172.15 161.46 172.60 172.20 176.81 167.83 C 175.59 165.42 172.16 163.48 172.04 159.73 C 172.70 159.84 174.03 160.06 174.70 160.17 C 178.19 165.96 188.03 162.62 187.06 155.82 C 184.68 157.92 183.16 162.28 179.22 160.92 C 177.99 159.33 175.89 156.49 177.67 154.73 C 179.94 152.39 179.71 157.82 180.50 159.18 C 182.33 155.19 183.29 148.58 176.92 149.77 C 180.64 146.11 183.03 141.50 183.97 136.29 Z" />
</g>
<g id="#bb3a3dff">
<path fill="#bb3a3d" opacity="1.00" d=" M 132.18 138.06 C 137.95 137.84 134.50 147.34 130.01 147.12 C 128.93 143.78 130.23 140.59 132.18 138.06 Z" />
</g>
<g id="#f2c7c4ff">
<path fill="#f2c7c4" opacity="1.00" d=" M 120.03 139.99 C 123.93 136.62 126.53 144.40 125.28 147.18 C 123.92 149.48 121.77 151.13 120.18 153.23 C 118.32 154.30 124.07 165.54 119.30 162.68 C 116.99 157.95 116.06 152.68 114.16 147.80 C 113.29 143.91 117.76 142.29 120.03 139.99 M 120.25 142.19 C 117.12 144.03 117.72 148.05 118.01 151.15 C 121.68 150.75 126.36 140.36 120.25 142.19 Z" />
</g>
<g id="#be4249ff">
<path fill="#be4249" opacity="1.00" d=" M 148.02 138.92 C 152.21 139.43 152.80 145.56 153.02 149.06 C 148.24 148.99 148.16 142.17 148.02 138.92 Z" />
</g>
<g id="#f3cec9ff">
<path fill="#f3cec9" opacity="1.00" d=" M 88.86 149.17 C 88.84 145.63 87.84 140.98 92.68 141.72 C 90.67 152.03 96.08 159.83 102.25 166.99 C 97.02 165.56 94.98 159.99 91.01 156.91 C 84.41 159.26 86.11 165.28 87.98 170.15 C 86.41 168.51 85.09 166.64 83.43 165.08 C 82.04 167.36 81.21 171.11 77.93 171.10 C 79.47 164.15 83.76 158.03 81.10 150.27 C 86.28 145.17 85.18 155.65 85.19 158.27 C 89.94 157.23 90.75 153.19 88.86 149.17 Z" />
</g>
<g id="#bb3b3cff">
<path fill="#bb3b3c" opacity="1.00" d=" M 120.25 142.19 C 126.36 140.36 121.68 150.75 118.01 151.15 C 117.72 148.05 117.12 144.03 120.25 142.19 Z" />
</g>
<g id="#f2cecaff">
<path fill="#f2ceca" opacity="1.00" d=" M 105.68 155.77 C 107.51 152.97 111.52 139.55 111.97 146.88 C 111.28 150.54 110.86 154.25 114.15 156.70 C 109.15 155.84 106.11 160.67 101.23 159.91 C 99.38 156.85 99.62 152.74 101.96 150.02 C 103.66 148.61 105.37 147.19 107.22 145.98 C 105.75 148.73 99.33 156.62 105.68 155.77 Z" />
</g>
<g id="#cfa056ff">
<path fill="#cfa056" opacity="1.00" d=" M 8.87 157.88 C 10.65 152.75 15.67 150.10 18.82 145.96 C 20.18 149.89 26.62 147.73 30.22 149.08 L 30.20 149.87 C 25.26 149.77 19.72 147.95 15.55 151.54 C 2.89 160.99 13.66 187.90 29.85 180.13 C 29.63 181.35 29.75 182.57 29.98 183.78 C 20.33 184.92 11.64 180.77 8.84 171.17 C 8.85 166.73 8.82 162.31 8.87 157.88 Z" />
</g>
<g id="#f0bd27ff">
<path fill="#f0bd27" opacity="1.00" d=" M 15.55 151.54 C 19.72 147.95 25.26 149.77 30.20 149.87 C 32.88 152.11 33.19 155.79 33.97 158.96 C 37.06 162.59 35.42 167.10 34.58 171.09 C 35.76 174.78 33.70 179.14 29.85 180.13 C 13.66 187.90 2.89 160.99 15.55 151.54 M 26.30 159.26 C 19.40 158.01 17.06 165.01 20.20 169.91 C 26.06 171.29 28.75 164.62 33.87 163.65 C 35.09 159.62 29.13 158.83 26.30 159.26 Z" />
</g>
<g id="#efbfc1ff">
<path fill="#efbfc1" opacity="1.00" d=" M 176.92 149.77 C 183.29 148.58 182.33 155.19 180.50 159.18 C 179.71 157.82 179.94 152.39 177.67 154.73 C 175.89 156.49 177.99 159.33 179.22 160.92 C 183.16 162.28 184.68 157.92 187.06 155.82 C 188.03 162.62 178.19 165.96 174.70 160.17 C 175.20 156.65 174.60 152.73 176.92 149.77 Z" />
</g>
<g id="#b62123ff">
<path fill="#b62123" opacity="1.00" d=" M 33.97 158.96 C 33.48 156.57 34.59 155.62 36.92 156.20 C 39.75 160.60 44.34 163.73 46.32 168.68 C 49.02 174.97 50.82 183.39 57.83 186.30 C 55.62 193.01 61.55 187.53 65.13 188.39 C 63.91 189.08 62.68 189.82 61.69 190.84 C 60.82 191.72 60.09 192.72 59.36 193.72 L 59.03 194.15 C 58.29 194.81 57.99 197.63 56.87 195.99 C 49.73 188.31 37.72 182.23 37.61 170.32 C 37.23 167.61 35.56 170.17 34.58 171.09 C 35.42 167.10 37.06 162.59 33.97 158.96 Z" />
</g>
<g id="#ebcea2ff">
<path fill="#ebcea2" opacity="1.00" d=" M 8.84 171.17 C 6.74 167.09 8.17 162.13 8.87 157.88 C 8.82 162.31 8.85 166.73 8.84 171.17 Z" />
</g>
<g id="#fce05bff">
<path fill="#fce05b" opacity="1.00" d=" M 26.30 159.26 C 29.13 158.83 35.09 159.62 33.87 163.65 C 28.75 164.62 26.06 171.29 20.20 169.91 C 17.06 165.01 19.40 158.01 26.30 159.26 Z" />
</g>
<g id="#f2cfcaff">
<path fill="#f2cfca" opacity="1.00" d=" M 163.07 164.22 C 165.67 162.10 168.15 157.70 172.04 159.73 C 172.16 163.48 175.59 165.42 176.81 167.83 C 172.60 172.20 172.15 161.46 168.17 162.05 C 166.66 164.84 167.70 168.02 167.94 171.00 C 167.81 179.04 163.14 167.68 163.07 164.22 Z" />
</g>
<g id="#f4cdcdff">
<path fill="#f4cdcd" opacity="1.00" d=" M 142.83 163.80 C 144.69 162.52 147.67 157.78 150.14 161.05 C 150.77 161.64 151.41 162.22 152.06 162.79 C 146.48 164.60 148.10 171.32 148.03 175.83 C 155.88 171.79 153.43 177.63 151.00 178.07 C 144.22 179.95 144.96 172.76 144.96 167.95 C 144.93 163.09 141.08 169.23 139.14 169.84 C 136.21 167.98 141.61 164.56 142.83 163.80 Z" />
</g>
<g id="#d66562ff">
<path fill="#d66562" opacity="1.00" d=" M 150.14 161.05 C 154.01 158.43 157.32 162.54 152.06 162.79 C 151.41 162.22 150.77 161.64 150.14 161.05 Z" />
</g>
<g id="#f2a195ff">
<path fill="#f2a195" opacity="1.00" d=" M 157.26 160.08 C 162.92 161.37 152.57 164.98 157.26 160.08 Z" />
</g>
<g id="#f8e5e2ff">
<path fill="#f8e5e2" opacity="1.00" d=" M 154.77 166.79 C 155.29 166.59 156.31 166.21 156.82 166.02 C 157.20 168.72 156.02 172.14 158.04 174.30 C 158.76 174.96 159.51 175.61 160.27 176.24 C 158.93 178.89 156.64 177.53 154.96 176.08 L 154.73 175.25 C 154.72 172.43 154.74 169.60 154.77 166.79 Z" />
</g>
<g id="#dd9299ff">
<path fill="#dd9299" opacity="1.00" d=" M 156.82 166.02 C 157.16 166.23 157.82 166.65 158.15 166.86 C 158.12 168.72 158.07 172.44 158.04 174.30 C 156.02 172.14 157.20 168.72 156.82 166.02 Z" />
</g>
<g id="#e28c91ff">
<path fill="#e28c91" opacity="1.00" d=" M 154.73 175.25 C 153.84 172.57 153.38 169.39 154.77 166.79 C 154.74 169.60 154.72 172.43 154.73 175.25 Z" />
</g>
<g id="#f5c4c3ff">
<path fill="#f5c4c3" opacity="1.00" d=" M 110.99 173.98 C 110.89 170.83 114.63 166.54 117.67 169.29 C 124.33 175.64 107.69 192.57 123.19 192.21 C 118.03 197.84 111.20 189.34 111.00 184.02 C 110.97 180.66 110.97 177.33 110.99 173.98 M 115.17 171.22 C 110.83 174.64 112.41 180.65 113.97 185.09 C 116.14 181.94 118.92 173.31 115.17 171.22 Z" />
</g>
<g id="#b14d52ff">
<path fill="#b14d52" opacity="1.00" d=" M 143.22 174.16 C 142.64 171.01 143.22 168.94 144.96 167.95 C 144.96 172.76 144.22 179.95 151.00 178.07 C 150.02 178.94 149.39 180.43 148.08 180.81 C 144.80 180.21 144.05 176.90 143.22 174.16 Z" />
</g>
<g id="#a01e27ff">
<path fill="#a01e27" opacity="1.00" d=" M 34.58 171.09 C 35.56 170.17 37.23 167.61 37.61 170.32 C 37.72 182.23 49.73 188.31 56.87 195.99 C 57.99 197.63 58.29 194.81 59.03 194.15 C 59.15 195.64 59.39 198.62 59.51 200.11 C 61.51 207.25 72.96 205.89 71.98 198.07 C 71.81 192.32 75.91 206.68 78.18 199.71 C 83.78 205.11 89.24 210.91 95.74 215.19 C 95.72 214.64 95.66 213.55 95.63 213.01 C 98.78 210.42 101.01 215.33 104.10 215.87 C 109.86 217.64 115.01 220.79 119.09 225.27 C 117.93 227.55 116.78 229.83 115.67 232.14 C 88.28 213.99 51.12 211.18 29.98 183.78 C 29.75 182.57 29.63 181.35 29.85 180.13 C 33.70 179.14 35.76 174.78 34.58 171.09 Z" />
</g>
<g id="#e0838dff">
<path fill="#e0838d" opacity="1.00" d=" M 158.04 174.30 C 159.46 172.54 160.71 170.65 162.09 168.86 C 161.98 171.40 161.60 174.02 160.27 176.24 C 159.51 175.61 158.76 174.96 158.04 174.30 Z" />
</g>
<g id="#f1b4a9ff">
<path fill="#f1b4a9" opacity="1.00" d=" M 95.97 175.56 C 99.20 173.81 104.82 168.74 108.15 172.63 C 103.94 173.08 99.70 174.40 97.04 177.91 C 96.77 177.32 96.24 176.15 95.97 175.56 Z" />
</g>
<g id="#cc252cff">
<path fill="#cc252c" opacity="1.00" d=" M 115.17 171.22 C 118.92 173.31 116.14 181.94 113.97 185.09 C 112.41 180.65 110.83 174.64 115.17 171.22 Z" />
</g>
<g id="#f1c2bdff">
<path fill="#f1c2bd" opacity="1.00" d=" M 133.18 177.25 C 135.97 175.39 141.00 168.81 143.22 174.16 C 144.05 176.90 144.80 180.21 148.08 180.81 C 143.82 184.81 141.53 177.83 139.81 174.94 C 135.73 176.82 138.52 182.40 138.85 185.82 C 137.87 187.57 135.52 187.14 135.63 184.97 C 134.30 189.37 129.14 193.40 124.71 190.30 C 121.99 186.78 121.28 178.41 127.00 177.95 C 131.58 177.49 130.04 184.08 128.24 185.99 C 127.95 184.17 127.54 181.34 125.00 181.96 C 123.27 187.04 130.59 193.06 133.03 186.01 C 137.54 183.24 133.58 180.14 133.18 177.25 Z" />
</g>
<g id="#e17b7fff">
<path fill="#e17b7f" opacity="1.00" d=" M 111.00 184.02 C 109.14 180.67 109.14 177.32 110.99 173.98 C 110.97 177.33 110.97 180.66 111.00 184.02 Z" />
</g>
<g id="#f6dfdcff">
<path fill="#f6dfdc" opacity="1.00" d=" M 89.76 185.74 C 90.54 181.76 92.80 178.09 95.97 175.56 C 96.24 176.15 96.77 177.32 97.04 177.91 C 94.89 181.18 93.52 184.92 92.80 188.76 C 91.80 192.54 91.87 196.48 92.66 200.29 C 93.48 204.57 94.74 208.75 95.63 213.01 C 95.66 213.55 95.72 214.64 95.74 215.19 C 89.24 210.91 83.78 205.11 78.18 199.71 C 74.05 196.07 68.95 189.89 62.78 191.94 C 62.51 191.67 61.96 191.12 61.69 190.84 C 62.68 189.82 63.91 189.08 65.13 188.39 C 74.02 188.84 80.79 195.40 86.41 201.60 C 87.24 202.95 90.56 205.81 89.73 202.33 C 89.88 196.80 90.12 191.27 89.76 185.74 Z" />
</g>
<g id="#f2cccdff">
<path fill="#f2cccd" opacity="1.00" d=" M 101.95 192.08 C 104.75 198.46 106.15 184.80 107.90 183.90 C 108.25 186.53 106.96 190.01 108.97 192.00 C 109.97 192.45 110.56 193.13 110.74 194.04 C 109.07 193.86 106.33 193.26 105.98 195.61 C 102.72 203.20 95.34 191.81 101.34 188.65 C 101.55 189.79 101.75 190.93 101.95 192.08 Z" />
</g>
<g id="#cf676aff">
<path fill="#cf676a" opacity="1.00" d=" M 107.90 183.90 C 110.28 184.91 108.51 189.54 108.97 192.00 C 106.96 190.01 108.25 186.53 107.90 183.90 Z" />
</g>
<g id="#e5878dff">
<path fill="#e5878d" opacity="1.00" d=" M 101.34 188.65 C 101.52 186.93 103.83 186.01 105.06 184.90 C 104.07 187.24 103.85 190.40 101.95 192.08 C 101.75 190.93 101.55 189.79 101.34 188.65 Z" />
</g>
<g id="#e7a4a2ff">
<path fill="#e7a4a2" opacity="1.00" d=" M 89.73 202.33 C 88.82 196.84 88.54 191.21 89.76 185.74 C 90.12 191.27 89.88 196.80 89.73 202.33 Z" />
</g>
<g id="#e29296ff">
<path fill="#e29296" opacity="1.00" d=" M 92.66 200.29 C 91.87 196.48 91.80 192.54 92.80 188.76 C 92.97 192.61 92.81 196.44 92.66 200.29 Z" />
</g>
<g id="#ecc7c3ff">
<path fill="#ecc7c3" opacity="1.00" d=" M 59.36 193.72 C 60.09 192.72 60.82 191.72 61.69 190.84 C 61.96 191.12 62.51 191.67 62.78 191.94 C 61.51 195.30 61.50 203.01 66.90 202.01 C 70.91 201.50 68.11 195.60 64.82 197.71 C 65.38 193.30 70.86 194.70 71.98 198.07 C 72.96 205.89 61.51 207.25 59.51 200.11 C 60.56 198.10 60.61 195.66 59.36 193.72 Z" />
</g>
<g id="#b53039ff">
<path fill="#b53039" opacity="1.00" d=" M 62.78 191.94 C 68.95 189.89 74.05 196.07 78.18 199.71 C 75.91 206.68 71.81 192.32 71.98 198.07 C 70.86 194.70 65.38 193.30 64.82 197.71 C 68.11 195.60 70.91 201.50 66.90 202.01 C 61.50 203.01 61.51 195.30 62.78 191.94 Z" />
</g>
<g id="#b96973ff">
<path fill="#b96973" opacity="1.00" d=" M 59.03 194.15 L 59.36 193.72 C 60.61 195.66 60.56 198.10 59.51 200.11 C 59.39 198.62 59.15 195.64 59.03 194.15 Z" />
</g>
<g id="#d06c73ff">
<path fill="#d06c73" opacity="1.00" d=" M 105.98 195.61 C 106.33 193.26 109.07 193.86 110.74 194.04 C 110.30 195.60 107.40 195.64 105.98 195.61 Z" />
</g>
<g id="#c7a0a4ff">
<path fill="#c7a0a4" opacity="1.00" d=" M 123.39 244.14 C 123.86 242.02 124.34 239.91 124.84 237.81 C 124.87 239.61 124.95 243.20 124.99 245.00 L 123.21 245.00 L 123.39 244.14 Z" />
</g>
</svg>
