<?xml version="1.0" encoding="utf-8"?>
<!-- Generator: Adobe Illustrator 17.0.1, SVG Export Plug-In . SVG Version: 6.00 Build 0)  -->
<!DOCTYPE svg PUBLIC "-//W3C//DTD SVG 1.1//EN" "http://www.w3.org/Graphics/SVG/1.1/DTD/svg11.dtd">
<svg version="1.1" id="Layer_1" xmlns="http://www.w3.org/2000/svg" xmlns:xlink="http://www.w3.org/1999/xlink" x="0px" y="0px"
	 width="228px" height="354px" viewBox="0 0 228 354" enable-background="new 0 0 228 354" xml:space="preserve">
<g>
	<path opacity="0.15" fill-rule="evenodd" clip-rule="evenodd" d="M24.875,351.999c-6.616,0-11.999-5.383-11.999-11.999V18.663
		c0-6.617,5.383-12.001,11.999-12.001H251c6.617,0,12.001,5.384,12.001,12.001V340c0,6.616-5.384,11.999-12.001,11.999H24.875z"/>
	<path opacity="0.2" fill-rule="evenodd" clip-rule="evenodd" d="M23.875,350.999c-6.616,0-11.999-5.383-11.999-11.999V17.663
		c0-6.617,5.383-12.001,11.999-12.001H250c6.617,0,12.001,5.384,12.001,12.001V339c0,6.616-5.384,11.999-12.001,11.999H23.875z"/>
	<path opacity="0.2" fill-rule="evenodd" clip-rule="evenodd" d="M22.875,349.999c-6.616,0-11.999-5.383-11.999-11.999V16.663
		c0-6.617,5.383-12.001,11.999-12.001H249c6.617,0,12.001,5.384,12.001,12.001V338c0,6.616-5.384,11.999-12.001,11.999H22.875z"/>
	<path opacity="0.2" fill-rule="evenodd" clip-rule="evenodd" d="M21.875,348.999c-6.616,0-11.999-5.383-11.999-11.999V15.663
		c0-6.617,5.383-12.001,11.999-12.001H248c6.617,0,12.001,5.384,12.001,12.001V337c0,6.616-5.384,11.999-12.001,11.999H21.875z"/>
</g>
<path fill-rule="evenodd" clip-rule="evenodd" fill="#6A6A6A" d="M20.875,347.999c-6.616,0-11.999-5.383-11.999-11.999V14.663
	c0-6.617,5.383-12.001,11.999-12.001H247c6.617,0,12.001,5.384,12.001,12.001V336c0,6.616-5.384,11.999-12.001,11.999H20.875z"/>
<linearGradient id="SVGID_1_" gradientUnits="userSpaceOnUse" x1="31.0999" y1="353.4519" x2="236.7759" y2="-2.7893">
	<stop  offset="0" style="stop-color:#3D2A35"/>
	<stop  offset="0.7686" style="stop-color:#1C0E0A"/>
	<stop  offset="1" style="stop-color:#22150E"/>
</linearGradient>
<path fill-rule="evenodd" clip-rule="evenodd" fill="url(#SVGID_1_)" d="M20.875,4.662H247c5.523,0,10.001,4.478,10.001,10.001V336
	c0,5.523-4.478,9.999-10.001,9.999H20.875c-5.523,0-9.999-4.476-9.999-9.999V14.663C10.876,9.14,15.352,4.662,20.875,4.662
	L20.875,4.662z"/>
<g>
	<path opacity="0.3" d="M247,1.662H20.875c-6.616,0-11.999,5.384-11.999,12.001V335c0,6.616,5.383,11.999,11.999,11.999H247
		c6.617,0,12.001-5.383,12.001-11.999V13.663C259.001,7.046,253.617,1.662,247,1.662z M257.001,335
		c0,5.523-4.478,9.999-10.001,9.999H20.875c-5.523,0-9.999-4.476-9.999-9.999V13.663c0-5.523,4.476-10.001,9.999-10.001H247
		c5.523,0,10.001,4.478,10.001,10.001V335z"/>
	<path opacity="0.15" d="M248,3.662H21.875c-6.616,0-11.999,5.384-11.999,12.001V337c0,6.616,5.383,11.999,11.999,11.999H248
		c6.617,0,12.001-5.383,12.001-11.999V15.663C260.001,9.046,254.617,3.662,248,3.662z M258.001,337
		c0,5.523-4.478,9.999-10.001,9.999H21.875c-5.523,0-9.999-4.476-9.999-9.999V15.663c0-5.523,4.476-10.001,9.999-10.001H248
		c5.523,0,10.001,4.478,10.001,10.001V337z"/>
	<path opacity="0.15" d="M249,4.662H22.875c-6.616,0-11.999,5.384-11.999,12.001V338c0,6.616,5.383,11.999,11.999,11.999H249
		c6.617,0,12.001-5.383,12.001-11.999V16.663C261.001,10.046,255.617,4.662,249,4.662z M259.001,338
		c0,5.523-4.478,9.999-10.001,9.999H22.875c-5.523,0-9.999-4.476-9.999-9.999V16.663c0-5.523,4.476-10.001,9.999-10.001H249
		c5.523,0,10.001,4.478,10.001,10.001V338z"/>
	<path opacity="0.15" d="M250,5.662H23.875c-6.616,0-11.999,5.384-11.999,12.001V339c0,6.616,5.383,11.999,11.999,11.999H250
		c6.617,0,12.001-5.383,12.001-11.999V17.663C262.001,11.046,256.617,5.662,250,5.662z M260.001,339
		c0,5.523-4.478,9.999-10.001,9.999H23.875c-5.523,0-9.999-4.476-9.999-9.999V17.663c0-5.523,4.476-10.001,9.999-10.001H250
		c5.523,0,10.001,4.478,10.001,10.001V339z"/>
	<path opacity="0.15" d="M251,6.662H24.875c-6.616,0-11.999,5.384-11.999,12.001V340c0,6.616,5.383,11.999,11.999,11.999H251
		c6.617,0,12.001-5.383,12.001-11.999V18.663C263.001,12.046,257.617,6.662,251,6.662z M261.001,340
		c0,5.523-4.478,9.999-10.001,9.999H24.875c-5.523,0-9.999-4.476-9.999-9.999V18.663c0-5.523,4.476-10.001,9.999-10.001H251
		c5.523,0,10.001,4.478,10.001,10.001V340z"/>
</g>
<path fill="#6A6A6A" d="M247,2.833H20.874c-6.616,0-11.999,5.384-11.999,12.001V336.17c0,6.616,5.383,11.999,11.999,11.999H247
	c6.617,0,12.001-5.383,12.001-11.999V14.834C259.001,8.216,253.617,2.833,247,2.833z M257,336.171c0,5.523-4.478,9.999-10.001,9.999
	H20.875c-5.523,0-9.999-4.476-9.999-9.999V14.834c0-5.523,4.476-10.001,9.999-10.001h226.125c5.523,0,10.001,4.478,10.001,10.001
	V336.171z"/>
<linearGradient id="SVGID_2_" gradientUnits="userSpaceOnUse" x1="47.2874" y1="331.7289" x2="211.282" y2="47.6819">
	<stop  offset="0" style="stop-color:#6D6A6A"/>
	<stop  offset="1" style="stop-color:#3B3B3B"/>
</linearGradient>
<polygon fill-rule="evenodd" clip-rule="evenodd" fill="url(#SVGID_2_)" points="104.831,5 137.354,5 170.14,346.002 72.01,346.002 
	104.831,5 "/>
<linearGradient id="SVGID_3_" gradientUnits="userSpaceOnUse" x1="47.7722" y1="326.6476" x2="208.8748" y2="47.6096">
	<stop  offset="0" style="stop-color:#423E3E"/>
	<stop  offset="1" style="stop-color:#2A2A2A"/>
</linearGradient>
<polygon fill-rule="evenodd" clip-rule="evenodd" fill="url(#SVGID_3_)" points="135.072,5 162.417,345.562 80.534,345.562 
	107.91,5 135.072,5 "/>
</svg>
