<?xml version="1.0" encoding="utf-8"?>
<!-- Generator: Adobe Illustrator 16.0.2, SVG Export Plug-In . SVG Version: 6.00 Build 0)  -->
<!DOCTYPE svg PUBLIC "-//W3C//DTD SVG 1.1//EN" "http://www.w3.org/Graphics/SVG/1.1/DTD/svg11.dtd">
<svg version="1.1" id="_x30_" xmlns="http://www.w3.org/2000/svg" xmlns:xlink="http://www.w3.org/1999/xlink" x="0px" y="0px"
	 width="100px" height="100px" viewBox="0 0 100 100" enable-background="new 0 0 100 100" xml:space="preserve">
<g id="LWPOLYLINE_1_">
	<path fill="#FFA500" d="M99,75V25C99,11.745,88.255,1,75,1H25C11.745,1,1,11.745,1,25v50c0,13.255,10.745,24,24,24h50
		C88.255,99,99,88.255,99,75z"/>
</g>
<g id="LWPOLYLINE">
	<path d="M95,75V25c0-11.046-8.954-20-20-20H25C13.954,5,5,13.954,5,25v50c0,11.046,8.954,20,20,20h50C86.046,95,95,86.046,95,75z"
		/>
</g>
</svg>
