<?xml version="1.0" encoding="UTF-8" ?>
<!DOCTYPE svg PUBLIC "-//W3C//DTD SVG 1.1//EN" "http://www.w3.org/Graphics/SVG/1.1/DTD/svg11.dtd">
<svg width="512pt" height="512pt" viewBox="0 0 512 512" version="1.1" xmlns="http://www.w3.org/2000/svg">
<g id="#010101ff">
<path fill="#EECFA1" opacity="1.00" d=" M 187.82 45.81 C 216.81 38.33 248.32 41.07 275.61 53.40 C 302.38 65.33 324.99 86.36 338.82 112.20 C 353.09 138.42 358.01 169.51 352.88 198.89 C 347.94 228.28 332.70 255.75 310.53 275.64 C 290.28 294.03 264.25 305.93 237.08 309.17 C 204.25 313.28 169.69 305.07 143.11 285.10 C 113.60 312.26 84.09 339.42 54.61 366.62 C 50.13 370.49 46.22 375.26 40.71 377.73 C 33.77 380.98 25.09 380.69 18.73 376.25 C 14.45 373.19 10.74 369.03 9.12 363.95 C 6.31 355.92 8.40 346.36 14.60 340.46 C 46.48 311.04 78.43 281.70 110.33 252.31 C 95.42 230.96 87.86 204.95 87.50 179.01 C 86.72 148.90 96.41 118.65 114.68 94.70 C 132.68 70.85 158.81 53.16 187.82 45.81 M 213.14 69.23 C 185.30 71.01 158.54 84.43 140.24 105.44 C 121.38 126.70 111.64 155.74 113.99 184.08 C 115.53 205.68 124.01 226.69 137.75 243.41 C 152.45 261.53 173.24 274.66 195.98 279.98 C 220.90 285.90 247.94 282.62 270.66 270.75 C 295.14 258.31 314.32 236.01 323.08 210.00 C 330.82 187.14 330.51 161.62 322.06 139.00 C 313.57 115.86 296.70 95.94 275.36 83.63 C 256.71 72.69 234.69 67.70 213.14 69.23 Z" />
<path fill="#00FFFF" opacity="1.00" d=" M 375.59 165.03 C 407.12 171.50 436.47 188.03 458.36 211.63 C 486.56 241.59 502.57 282.82 501.31 324.01 C 500.68 357.77 488.64 391.14 467.75 417.65 C 445.70 445.87 414.04 466.78 378.97 474.59 C 337.83 483.51 293.22 475.89 257.63 453.31 C 233.10 437.92 212.92 415.56 200.49 389.38 C 192.05 372.09 187.59 353.10 185.80 334.01 C 185.66 331.17 185.70 328.33 185.69 325.48 C 190.40 326.64 195.13 327.74 199.87 328.77 C 201.44 359.67 213.66 389.79 233.35 413.58 C 241.45 423.20 250.95 431.82 262.03 437.89 C 258.91 424.89 258.37 411.00 251.85 399.04 C 247.40 390.37 240.11 383.28 237.20 373.82 C 232.77 361.23 235.68 347.54 240.18 335.40 C 245.57 337.83 251.11 339.92 256.38 342.63 C 260.29 344.05 262.80 347.50 265.95 350.01 C 268.81 352.53 272.07 354.60 274.68 357.40 C 277.35 360.70 276.40 365.23 276.31 369.14 C 283.98 370.27 292.36 371.18 298.52 376.35 C 302.16 379.35 302.91 384.44 302.30 388.87 C 301.34 396.18 298.96 403.21 298.04 410.53 C 293.94 411.71 289.80 413.49 287.02 416.86 C 282.97 421.74 280.60 427.78 276.37 432.53 C 273.47 435.69 271.93 440.71 274.58 444.50 C 278.80 450.73 286.30 453.41 293.02 456.03 C 315.11 463.31 338.82 466.33 361.95 463.28 C 381.21 460.94 399.42 453.47 416.28 444.13 C 428.18 437.37 440.51 429.78 447.98 417.95 C 452.56 411.21 449.87 402.18 454.46 395.45 C 456.73 392.37 459.42 389.63 461.94 386.77 C 463.48 390.51 465.65 394.17 465.38 398.38 C 468.97 387.00 474.83 376.54 479.64 365.66 C 485.97 350.19 485.96 333.16 486.97 316.73 C 479.57 321.64 471.42 325.29 462.87 327.69 C 452.83 316.15 452.62 299.55 444.08 287.17 C 441.76 293.33 444.12 299.88 446.26 305.73 C 449.25 312.87 452.07 320.22 456.60 326.56 C 460.76 332.15 468.24 332.89 473.87 336.39 C 471.79 341.70 469.29 347.15 464.65 350.72 C 458.53 355.77 450.87 360.21 448.15 368.13 C 446.23 375.54 447.80 383.28 447.74 390.82 C 443.68 393.69 439.86 396.96 436.93 401.00 C 431.68 407.76 428.40 416.19 421.45 421.53 C 416.01 425.81 408.87 426.89 402.14 426.99 C 400.05 423.46 396.85 420.69 395.12 416.94 C 393.11 412.78 391.39 408.43 390.61 403.86 C 388.22 392.11 393.72 379.97 389.45 368.43 C 388.21 362.84 383.19 357.98 384.71 351.98 C 385.18 348.97 384.71 345.94 384.37 342.95 C 378.73 342.09 373.93 338.17 368.07 338.42 C 360.38 338.54 352.27 339.17 345.09 335.82 C 339.02 333.02 335.00 326.97 333.61 320.56 C 331.87 312.41 332.53 303.64 336.07 296.05 C 339.10 289.50 343.89 284.01 348.43 278.48 C 351.74 274.71 353.83 269.93 357.88 266.81 C 360.37 264.21 364.16 264.17 367.49 263.76 C 375.29 262.83 383.09 261.97 390.88 261.04 C 392.79 264.19 394.51 267.44 396.44 270.57 C 398.56 274.27 402.83 275.72 406.26 277.88 C 409.70 280.21 413.40 276.99 417.07 277.37 C 424.30 276.89 430.90 281.10 438.10 280.60 C 443.54 279.95 446.03 274.33 447.71 269.81 C 443.01 268.24 438.18 267.05 433.53 265.37 C 429.62 262.86 428.39 258.01 425.86 254.35 C 422.89 256.06 420.81 258.79 418.94 261.60 C 414.68 256.75 413.03 250.17 408.66 245.40 C 406.62 243.00 403.80 241.50 400.97 240.26 C 403.62 245.56 405.96 251.20 410.13 255.52 C 406.31 254.53 402.31 253.34 399.49 250.40 C 396.93 247.77 394.02 245.52 390.94 243.52 C 386.42 245.04 382.26 247.53 378.82 250.84 C 375.11 254.13 372.03 258.50 367.19 260.21 C 363.43 261.51 359.47 260.32 355.92 258.97 C 355.42 256.69 354.56 254.34 355.03 251.99 C 356.02 248.90 357.87 246.18 359.41 243.36 C 363.31 242.97 367.24 243.01 371.15 242.65 C 370.22 238.45 368.82 234.38 367.46 230.31 C 372.68 229.14 377.61 227.00 382.11 224.12 C 385.91 221.65 390.36 220.49 394.26 218.26 C 395.55 215.34 394.82 211.85 395.23 208.71 C 397.43 211.23 399.50 213.87 401.80 216.31 C 407.25 216.24 412.69 216.30 418.14 216.29 C 422.25 212.87 425.28 208.31 426.98 203.25 C 423.32 201.06 419.65 198.88 416.01 196.66 C 414.13 202.12 412.43 207.65 410.51 213.10 C 408.33 212.37 406.07 211.53 404.70 209.56 C 402.96 207.11 400.07 206.10 397.45 204.92 C 396.92 205.20 395.86 205.74 395.33 206.02 C 394.20 205.39 393.07 204.77 391.93 204.16 C 392.15 201.07 391.71 197.81 392.85 194.87 C 397.21 194.81 400.09 191.57 401.86 187.91 C 393.31 184.74 384.46 182.51 375.64 180.27 C 375.62 175.19 375.66 170.11 375.59 165.03 M 471.69 286.34 C 473.07 290.65 473.84 295.53 477.14 298.88 C 479.24 301.00 482.33 300.27 484.83 299.43 C 483.67 294.06 478.18 291.48 475.67 286.83 C 474.33 286.67 473.01 286.50 471.69 286.34 Z" />
</g>
</svg>
