<?xml version="1.0" encoding="utf-8"?>
<!-- Generator: Adobe Illustrator 16.0.2, SVG Export Plug-In . SVG Version: 6.00 Build 0)  -->
<!DOCTYPE svg PUBLIC "-//W3C//DTD SVG 1.1//EN" "http://www.w3.org/Graphics/SVG/1.1/DTD/svg11.dtd">
<svg version="1.1" id="Layer_1" xmlns="http://www.w3.org/2000/svg" xmlns:xlink="http://www.w3.org/1999/xlink" x="0px" y="0px"
	 width="62.406px" height="62.406px" viewBox="0 0 62.406 62.406" enable-background="new 0 0 62.406 62.406" xml:space="preserve">
<path fill="#FF0000" d="M46.458,10.401l4.16,11.095l2.08-2.081c5.548,9.016,4.161,21.496-4.16,29.123
	c-8.32,9.016-21.495,9.708-31.203,2.773l0.693,3.467l-4.854-1.387c11.788,9.015,27.736,8.32,38.138-2.08
	c9.708-9.707,11.095-24.27,4.16-34.67l2.773-2.773L46.458,10.401z M13.868,13.868c-8.32,7.628-9.708,20.108-4.16,29.123l2.08-2.08
	l4.16,11.094L4.16,48.538l2.774-2.772C0,34.67,1.386,20.802,11.094,11.094C21.495,0.693,37.443,0,49.231,9.014l-4.854-1.388
	L45.07,10.4C35.363,4.161,22.189,4.854,13.868,13.868z M20.802,32.59l7.629-18.027h13.175L31.203,28.429h9.708L20.802,50.618
	l9.016-18.028H20.802z"/>
</svg>
