<?xml version="1.0" encoding="utf-8"?>
<!-- Generator: Adobe Illustrator 15.0.0, SVG Export Plug-In . SVG Version: 6.00 Build 0)  -->
<!DOCTYPE svg PUBLIC "-//W3C//DTD SVG 1.1//EN" "http://www.w3.org/Graphics/SVG/1.1/DTD/svg11.dtd">
<svg version="1.1" id="Layer_1" xmlns="http://www.w3.org/2000/svg" xmlns:xlink="http://www.w3.org/1999/xlink" x="0px" y="0px"
	 width="120px" height="120px" viewBox="0 0 120 120" enable-background="new 0 0 120 120" xml:space="preserve">
<g id="active">
	<g>
		<g>
			<path fill="#690000" d="M6.5,18.39l0.01,83.22H113.5V18.39H6.5z M104.61,92.67H15.4V27.33h89.21V92.67z"/>
			<path fill="#FFFFFF" d="M15.4,27.33v65.34h89.21V27.33H15.4z M27.3,80.68V70l14.14-14.14c1.19-1.19,2.81-1.86,4.49-1.86h1.26
				c0.93,0,1.82,0.37,2.47,1.02l8.72,8.73c0.6,0.59,1.4,0.92,2.23,0.92h0.29c0.689,0,1.35-0.28,1.84-0.76l3.67-3.68
				c0.58-0.57,1.359-0.9,2.18-0.9h0.09c0.83,0,1.63,0.34,2.221,0.92l20.42,20.43H27.3z M90.76,48.29c-0.24,0.16-0.46,0.38-0.62,0.62
				c-7.12,4.97-14.909-2.82-9.939-9.94c0.24-0.17,0.46-0.38,0.62-0.62C87.94,33.38,95.73,41.17,90.76,48.29z"/>
			<path fill="#FDFF3F" d="M90.76,48.29c-0.24,0.16-0.46,0.38-0.62,0.62c-7.12,4.97-14.909-2.82-9.939-9.94
				c0.24-0.17,0.46-0.38,0.62-0.62C87.94,33.38,95.73,41.17,90.76,48.29z"/>
			<path fill="#499400" d="M91.32,80.68H27.3V70l14.14-14.14c1.19-1.19,2.81-1.86,4.49-1.86h1.26c0.93,0,1.82,0.37,2.47,1.02
				l8.72,8.73c0.6,0.59,1.4,0.92,2.23,0.92h0.29c0.689,0,1.35-0.28,1.84-0.76l3.67-3.68c0.58-0.57,1.359-0.9,2.18-0.9h0.09
				c0.83,0,1.63,0.34,2.221,0.92L91.32,80.68z"/>
		</g>
	</g>
</g>
<g id="disabled" opacity="0.2">
	<g>
		<g>
			<path fill="#FFFFFF" d="M70.898,60.253c-0.588-0.588-1.385-0.919-2.217-0.919h-0.095c-0.815,0-1.599,0.324-2.177,0.901
				l-3.672,3.671c-0.488,0.488-1.151,0.763-1.842,0.763h-0.283c-0.835,0-1.637-0.332-2.229-0.923L49.66,55.02
				c-0.654-0.654-1.541-1.021-2.466-1.021H45.93c-1.682,0-3.296,0.668-4.486,1.858L27.297,70.005v10.671h64.026L70.898,60.253z
				 M6.5,18.39l0.012,83.221H113.5V18.39H6.5z M104.607,92.666H15.405V27.329h89.203V92.666z M90.139,48.907
				c0.166-0.238,0.381-0.453,0.62-0.619c4.972-7.12-2.817-14.909-9.937-9.939c-0.166,0.238-0.381,0.453-0.62,0.62
				C75.23,46.087,83.02,53.876,90.139,48.907z"/>
		</g>
	</g>
</g>
</svg>
