<?xml version="1.0" encoding="utf-8"?>
<!-- Generator: Adobe Illustrator 17.0.0, SVG Export Plug-In . SVG Version: 6.00 Build 0)  -->
<!DOCTYPE svg PUBLIC "-//W3C//DTD SVG 1.1//EN" "http://www.w3.org/Graphics/SVG/1.1/DTD/svg11.dtd">
<svg version="1.1" xmlns="http://www.w3.org/2000/svg" xmlns:xlink="http://www.w3.org/1999/xlink" x="0px" y="0px" width="114px"
	 height="114px" viewBox="0 0 114 114" enable-background="new 0 0 114 114" xml:space="preserve">
<g id="normal">
	<path fill-rule="evenodd" clip-rule="evenodd" fill="#00FF26" d="M85.055,34.363l3.386,2.282l0.588,1.621l-3.973,1.619
		l-4.121,1.619l-3.752,0.442l-1.619-1.177l2.87-1.252l-0.774-4.38l5.042-0.774l1.765,3.093l-1.03,1.326l2.796-0.81l-1.03-1.4
		L85.055,34.363L85.055,34.363z M95.971,67.506c0.147-0.799,0.285-1.734,0.343-2.663c0.147-2.356-0.221-5.964-0.221-5.964
		s1.472-5.226-1.472-15.093c-2.944-9.864-10.89-13.693-10.89-13.693l-2.354-0.663l-2.43,1.768l-3.31,0.661l-3.973,0.442l-1.545,3.24
		L71,40.4l3.9,1.031l0.516,0.735v2.945l-1.103,3.092l0.882,5.301l3.973,5.52l1.545,1.547l4.857-0.663l3.091-1.766h3.089l2.208,3.093
		l1.103,4.417l0.4,3.599c-5.182,16.318-20.443,28.14-38.468,28.14c-22.291,0-40.363-18.079-40.363-40.382
		c0-22.303,18.072-40.382,40.363-40.382s40.361,18.08,40.361,40.382C97.357,60.642,96.87,64.159,95.971,67.506L95.971,67.506z
		 M68.278,35.026l-0.221-1.84l-0.956-2.503l-0.884,1.398l0.442,2.798l-1.103,1.4l-0.663,2.282h2.282l1.765-0.221l0.147-0.958
		L68.278,35.026L68.278,35.026z M65.04,65.432l-3.31-3.977l-4.194-2.429l-4.196-0.661l-1.544-2.429l-6.624-1.987l-6.622,0.219
		l-4.415-1.324l-0.221-4.859l-5.134-2.261l7.868-1.936l2.273,2.703l1.464,0.639l-1.127-4.758l1.943-2.191l7.727-4.564l2.428-3.314
		l0.661-4.196l-2.87-2.209l-4.635,1.545l-1.987,2.208l-2.649-3.314l-2.87-0.44l-2.428,1.545l-4.636,3.314l-3.973,2.43l-3.091,2.872
		l-0.442,5.741v4.859l2.429,3.756l5.519,1.766l1.765,2.43l5.961,3.756l-1.103,5.741l1.766,7.068l5.961,5.303l0.219,7.066
		l-1.103,5.301l1.103,6.406h2.87l1.105-5.743l5.298-2.429l3.531-5.301l7.727-5.743l0.882-3.754l3.312-4.638L65.04,65.432
		L65.04,65.432z"/>
</g>
<g id="active">
	<path fill-rule="evenodd" clip-rule="evenodd" fill="#00FF26" d="M85.055,34.363l3.386,2.282l0.588,1.621l-3.973,1.619
		l-4.121,1.619l-3.752,0.442l-1.619-1.177l2.87-1.252l-0.774-4.38l5.042-0.774l1.765,3.093l-1.03,1.326l2.796-0.81l-1.03-1.4
		L85.055,34.363L85.055,34.363z M95.971,67.506c0.147-0.799,0.285-1.734,0.343-2.663c0.147-2.356-0.221-5.964-0.221-5.964
		s1.472-5.226-1.472-15.093c-2.944-9.864-10.89-13.693-10.89-13.693l-2.354-0.663l-2.43,1.768l-3.31,0.661l-3.973,0.442l-1.545,3.24
		L71,40.4l3.9,1.031l0.516,0.735v2.945l-1.103,3.092l0.882,5.301l3.973,5.52l1.545,1.547l4.857-0.663l3.091-1.766h3.089l2.208,3.093
		l1.103,4.417l0.4,3.599c-5.182,16.318-20.443,28.14-38.468,28.14c-22.291,0-40.363-18.079-40.363-40.382
		c0-22.303,18.072-40.382,40.363-40.382s40.361,18.08,40.361,40.382C97.357,60.642,96.87,64.159,95.971,67.506L95.971,67.506z
		 M68.278,35.026l-0.221-1.84l-0.956-2.503l-0.884,1.398l0.442,2.798l-1.103,1.4l-0.663,2.282h2.282l1.765-0.221l0.147-0.958
		L68.278,35.026L68.278,35.026z M65.04,65.432l-3.31-3.977l-4.194-2.429l-4.196-0.661l-1.544-2.429l-6.624-1.987l-6.622,0.219
		l-4.415-1.324l-0.221-4.859l-5.134-2.261l7.868-1.936l2.273,2.703l1.464,0.639l-1.127-4.758l1.943-2.191l7.727-4.564l2.428-3.314
		l0.661-4.196l-2.87-2.209l-4.635,1.545l-1.987,2.208l-2.649-3.314l-2.87-0.44l-2.428,1.545l-4.636,3.314l-3.973,2.43l-3.091,2.872
		l-0.442,5.741v4.859l2.429,3.756l5.519,1.766l1.765,2.43l5.961,3.756l-1.103,5.741l1.766,7.068l5.961,5.303l0.219,7.066
		l-1.103,5.301l1.103,6.406h2.87l1.105-5.743l5.298-2.429l3.531-5.301l7.727-5.743l0.882-3.754l3.312-4.638L65.04,65.432
		L65.04,65.432z"/>
</g>
<g id="disabled" opacity="0.6">
	<path fill-rule="evenodd" clip-rule="evenodd" fill="#00FF26" d="M85.055,34.363l3.386,2.282l0.588,1.621l-3.973,1.619
		l-4.121,1.619l-3.752,0.442l-1.619-1.177l2.87-1.252l-0.774-4.38l5.042-0.774l1.765,3.093l-1.03,1.326l2.796-0.81l-1.03-1.4
		L85.055,34.363L85.055,34.363z M95.971,67.506c0.147-0.799,0.285-1.734,0.343-2.663c0.147-2.356-0.221-5.964-0.221-5.964
		s1.472-5.226-1.472-15.093c-2.944-9.864-10.89-13.693-10.89-13.693l-2.354-0.663l-2.43,1.768l-3.31,0.661l-3.973,0.442l-1.545,3.24
		L71,40.4l3.9,1.031l0.516,0.735v2.945l-1.103,3.092l0.882,5.301l3.973,5.52l1.545,1.547l4.857-0.663l3.091-1.766h3.089l2.208,3.093
		l1.103,4.417l0.4,3.599c-5.182,16.318-20.443,28.14-38.468,28.14c-22.291,0-40.363-18.079-40.363-40.382
		c0-22.303,18.072-40.382,40.363-40.382s40.361,18.08,40.361,40.382C97.357,60.642,96.87,64.159,95.971,67.506L95.971,67.506z
		 M68.278,35.026l-0.221-1.84l-0.956-2.503l-0.884,1.398l0.442,2.798l-1.103,1.4l-0.663,2.282h2.282l1.765-0.221l0.147-0.958
		L68.278,35.026L68.278,35.026z M65.04,65.432l-3.31-3.977l-4.194-2.429l-4.196-0.661l-1.544-2.429l-6.624-1.987l-6.622,0.219
		l-4.415-1.324l-0.221-4.859l-5.134-2.261l7.868-1.936l2.273,2.703l1.464,0.639l-1.127-4.758l1.943-2.191l7.727-4.564l2.428-3.314
		l0.661-4.196l-2.87-2.209l-4.635,1.545l-1.987,2.208l-2.649-3.314l-2.87-0.44l-2.428,1.545l-4.636,3.314l-3.973,2.43l-3.091,2.872
		l-0.442,5.741v4.859l2.429,3.756l5.519,1.766l1.765,2.43l5.961,3.756l-1.103,5.741l1.766,7.068l5.961,5.303l0.219,7.066
		l-1.103,5.301l1.103,6.406h2.87l1.105-5.743l5.298-2.429l3.531-5.301l7.727-5.743l0.882-3.754l3.312-4.638L65.04,65.432
		L65.04,65.432z"/>
</g>
</svg>
