<?xml version="1.0" encoding="utf-8"?>
<!-- Generator: Adobe Illustrator 15.0.0, SVG Export Plug-In . SVG Version: 6.00 Build 0)  -->
<!DOCTYPE svg PUBLIC "-//W3C//DTD SVG 1.1//EN" "http://www.w3.org/Graphics/SVG/1.1/DTD/svg11.dtd">
<svg version="1.1" id="Layer_1" xmlns="http://www.w3.org/2000/svg" xmlns:xlink="http://www.w3.org/1999/xlink" x="0px" y="0px"
	 width="120px" height="120px" viewBox="0 0 120 120" enable-background="new 0 0 120 120" xml:space="preserve">
<g id="normal">
	<path fill="#FFFF00" stroke="#000000" stroke-width="3" stroke-miterlimit="10" d="M60,75.18c-9.012,0-16.317-7.168-16.317-16.009
		V22.508C43.683,13.667,50.988,6.5,60,6.5c9.01,0,16.316,7.167,16.316,16.008V59.17C76.316,68.011,69.01,75.18,60,75.18L60,75.18z
		 M94.863,60.041c0,0.1,0,0.196,0,0.281c0,18.466-15.594,33.434-34.827,33.434c-19.164,0-34.708-14.859-34.822-33.232
		c-0.074-0.344-0.113-0.703-0.113-1.069c0-2.837,2.298-5.138,5.13-5.138c2.756,0,4.995,2.175,5.119,4.903
		c0.022,0.005,0.035,0.009,0.035,0.014c0-0.401,0-0.765,0-0.765c0,13.999,11.037,25.347,24.652,25.347
		c13.375,0,24.256-10.178,24.633-23.81c-0.02-0.18-0.029-0.364-0.029-0.55c0-2.837,2.295-5.138,5.129-5.138s5.131,2.301,5.131,5.138
		C94.898,59.653,94.885,59.848,94.863,60.041L94.863,60.041z M73.445,113.5H46.542c-2.705,0-4.898-2.197-4.898-4.906
		s2.193-4.906,4.898-4.906h26.903c2.705,0,4.898,2.197,4.898,4.906S76.15,113.5,73.445,113.5L73.445,113.5z M54.832,105.012v-12.92
		h10.334v12.92H54.832L54.832,105.012z"/>
</g>
<g id="active">
	<path fill="#FFFF00" stroke="#000000" stroke-width="3" stroke-miterlimit="10" d="M60,75.18c-9.012,0-16.317-7.168-16.317-16.009
		V22.508C43.683,13.667,50.988,6.5,60,6.5c9.01,0,16.316,7.167,16.316,16.008V59.17C76.316,68.011,69.01,75.18,60,75.18L60,75.18z
		 M94.863,60.041c0,0.1,0,0.196,0,0.281c0,18.466-15.594,33.434-34.827,33.434c-19.164,0-34.708-14.859-34.822-33.232
		c-0.074-0.344-0.113-0.703-0.113-1.069c0-2.837,2.298-5.138,5.13-5.138c2.756,0,4.995,2.175,5.119,4.903
		c0.022,0.005,0.035,0.009,0.035,0.014c0-0.401,0-0.765,0-0.765c0,13.999,11.037,25.347,24.652,25.347
		c13.375,0,24.256-10.178,24.633-23.81c-0.02-0.18-0.029-0.364-0.029-0.55c0-2.837,2.295-5.138,5.129-5.138s5.131,2.301,5.131,5.138
		C94.898,59.653,94.885,59.848,94.863,60.041L94.863,60.041z M73.445,113.5H46.542c-2.705,0-4.898-2.197-4.898-4.906
		s2.193-4.906,4.898-4.906h26.903c2.705,0,4.898,2.197,4.898,4.906S76.15,113.5,73.445,113.5L73.445,113.5z M54.832,105.012v-12.92
		h10.334v12.92H54.832L54.832,105.012z"/>
</g>
<g id="disabled" opacity="0.2">
	<path fill="#FFFF00" d="M60,75.18c-9.012,0-16.317-7.168-16.317-16.009V22.508C43.683,13.667,50.988,6.5,60,6.5
		c9.01,0,16.316,7.167,16.316,16.008V59.17C76.316,68.011,69.01,75.18,60,75.18L60,75.18z M94.863,60.041c0,0.1,0,0.196,0,0.281
		c0,18.466-15.594,33.434-34.827,33.434c-19.164,0-34.708-14.859-34.822-33.232c-0.074-0.344-0.113-0.703-0.113-1.069
		c0-2.837,2.298-5.138,5.13-5.138c2.756,0,4.995,2.175,5.119,4.903c0.022,0.005,0.035,0.009,0.035,0.014c0-0.401,0-0.765,0-0.765
		c0,13.999,11.037,25.347,24.652,25.347c13.375,0,24.256-10.178,24.633-23.81c-0.02-0.18-0.029-0.364-0.029-0.55
		c0-2.837,2.295-5.138,5.129-5.138s5.131,2.301,5.131,5.138C94.898,59.653,94.885,59.848,94.863,60.041L94.863,60.041z
		 M73.445,113.5H46.542c-2.705,0-4.898-2.197-4.898-4.906s2.193-4.906,4.898-4.906h26.903c2.705,0,4.898,2.197,4.898,4.906
		S76.15,113.5,73.445,113.5L73.445,113.5z M54.832,105.012v-12.92h10.334v12.92H54.832L54.832,105.012z"/>
</g>
</svg>
