<?xml version="1.0" encoding="utf-8"?>
<!-- Generator: Adobe Illustrator 19.2.1, SVG Export Plug-In . SVG Version: 6.00 Build 0)  -->
<svg version="1.1"
	 id="svg7952" inkscape:version="0.48.5 r10040" sodipodi:docname="ico_route_chargeroad.svg" xmlns:cc="http://creativecommons.org/ns#" xmlns:dc="http://purl.org/dc/elements/1.1/" xmlns:inkscape="http://www.inkscape.org/namespaces/inkscape" xmlns:rdf="http://www.w3.org/1999/02/22-rdf-syntax-ns#" xmlns:sodipodi="http://sodipodi.sourceforge.net/DTD/sodipodi-0.dtd" xmlns:svg="http://www.w3.org/2000/svg"
	 xmlns="http://www.w3.org/2000/svg" xmlns:xlink="http://www.w3.org/1999/xlink" x="0px" y="0px" viewBox="0 0 120 120"
	 enable-background="new 0 0 120 120" xml:space="preserve">
<g id="normal">
	
		<linearGradient id="path7960_1_" gradientUnits="userSpaceOnUse" x1="49.0252" y1="58.3539" x2="96.8472" y2="30.7439" gradientTransform="matrix(1 0 0 -1 0 120)">
		<stop  offset="0" style="stop-color:#FFFFFF"/>
		<stop  offset="0.3717" style="stop-color:#C3C3C3"/>
		<stop  offset="1" style="stop-color:#565656"/>
	</linearGradient>
	<path id="path7960" fill="url(#path7960_1_)" d="M100.62,32.5c-13.04,2.5-66.53,15.91-67.74,81h22.87
		C55.71,112.08,54.53,49.29,100.62,32.5z M106.58,33.7c-49.41,13.27-47.9,79.08-47.88,79.75l-1.47,0.05h25.62
		C82.85,97.79,75.17,62.45,106.58,33.7z"/>
	
		<linearGradient id="SVGID_1_" gradientUnits="userSpaceOnUse" x1="28.88" y1="53.97" x2="34.78" y2="53.97" gradientTransform="matrix(1 0 0 -1 0 120)">
		<stop  offset="0" style="stop-color:#FFFFFF"/>
		<stop  offset="0.1584" style="stop-color:#FAFAFA"/>
		<stop  offset="0.3594" style="stop-color:#EAEAEA"/>
		<stop  offset="0.5834" style="stop-color:#D0D0D0"/>
		<stop  offset="0.8223" style="stop-color:#ACACAC"/>
		<stop  offset="1" style="stop-color:#8C8C8C"/>
	</linearGradient>
	<path fill="url(#SVGID_1_)" d="M34.78,63.37v5.32h-5.9v-5.16c0.29,0.01,0.58,0.02,0.88,0.029h2.91
		C33.39,63.53,34.09,63.47,34.78,63.37z"/>
	
		<linearGradient id="SVGID_2_" gradientUnits="userSpaceOnUse" x1="13.418" y1="64.355" x2="28.88" y2="64.355" gradientTransform="matrix(1 0 0 -1 0 120)">
		<stop  offset="0" style="stop-color:#FFFFFF"/>
		<stop  offset="0.1584" style="stop-color:#FAFAFA"/>
		<stop  offset="0.3594" style="stop-color:#EAEAEA"/>
		<stop  offset="0.5834" style="stop-color:#D0D0D0"/>
		<stop  offset="0.8223" style="stop-color:#ACACAC"/>
		<stop  offset="1" style="stop-color:#8C8C8C"/>
	</linearGradient>
	<path fill="url(#SVGID_2_)" d="M28.88,57.42v6.11c-9.25-0.51-15.59-6.02-15.46-15.77h7.7C21.05,53.41,23.37,56.92,28.88,57.42z"/>
	
		<linearGradient id="SVGID_3_" gradientUnits="userSpaceOnUse" x1="28.88" y1="70.81" x2="34.78" y2="70.81" gradientTransform="matrix(1 0 0 -1 0 120)">
		<stop  offset="0" style="stop-color:#FFFFFF"/>
		<stop  offset="0.1584" style="stop-color:#FAFAFA"/>
		<stop  offset="0.3594" style="stop-color:#EAEAEA"/>
		<stop  offset="0.5834" style="stop-color:#D0D0D0"/>
		<stop  offset="0.8223" style="stop-color:#ACACAC"/>
		<stop  offset="1" style="stop-color:#8C8C8C"/>
	</linearGradient>
	<path fill="url(#SVGID_3_)" d="M34.78,42.36v14.82c-0.67,0.16-1.37,0.25-2.11,0.3h-2.91c-0.3-0.01-0.59-0.03-0.88-0.06V40.9
		c0.29,0.09,0.59,0.17,0.88,0.25l2.91,0.6C33.38,41.93,34.09,42.13,34.78,42.36z"/>
	
		<linearGradient id="SVGID_4_" gradientUnits="userSpaceOnUse" x1="28.88" y1="59.6305" x2="34.78" y2="59.6305" gradientTransform="matrix(1 0 0 -1 0 120)">
		<stop  offset="0" style="stop-color:#FFFFFF"/>
		<stop  offset="0.1584" style="stop-color:#FAFAFA"/>
		<stop  offset="0.3594" style="stop-color:#EAEAEA"/>
		<stop  offset="0.5834" style="stop-color:#D0D0D0"/>
		<stop  offset="0.8223" style="stop-color:#ACACAC"/>
		<stop  offset="1" style="stop-color:#8C8C8C"/>
	</linearGradient>
	<path fill="url(#SVGID_4_)" d="M34.78,57.18v6.19c-0.69,0.1-1.39,0.16-2.11,0.189h-2.91c-0.3-0.01-0.59-0.02-0.88-0.029v-6.11
		c0.29,0.03,0.58,0.05,0.88,0.06h2.91C33.41,57.43,34.11,57.34,34.78,57.18z"/>
	
		<linearGradient id="SVGID_5_" gradientUnits="userSpaceOnUse" x1="34.78" y1="71.33" x2="48.67" y2="71.33" gradientTransform="matrix(1 0 0 -1 0 120)">
		<stop  offset="0" style="stop-color:#FFFFFF"/>
		<stop  offset="0.1584" style="stop-color:#FAFAFA"/>
		<stop  offset="0.3594" style="stop-color:#EAEAEA"/>
		<stop  offset="0.5834" style="stop-color:#D0D0D0"/>
		<stop  offset="0.8223" style="stop-color:#ACACAC"/>
		<stop  offset="1" style="stop-color:#8C8C8C"/>
	</linearGradient>
	<path fill="url(#SVGID_5_)" d="M48.67,48.37c0,9.32-5.94,14.01-13.89,15v-6.19c3.72-0.8,6.19-3.15,6.19-7.73
		c0-4.21-2.84-5.99-6.19-7.09v-8.39C42.13,36.12,48.67,39.43,48.67,48.37z"/>
	
		<linearGradient id="SVGID_6_" gradientUnits="userSpaceOnUse" x1="28.88" y1="82.62" x2="34.78" y2="82.62" gradientTransform="matrix(1 0 0 -1 0 120)">
		<stop  offset="0" style="stop-color:#FFFFFF"/>
		<stop  offset="0.1584" style="stop-color:#FAFAFA"/>
		<stop  offset="0.3594" style="stop-color:#EAEAEA"/>
		<stop  offset="0.5834" style="stop-color:#D0D0D0"/>
		<stop  offset="0.8223" style="stop-color:#ACACAC"/>
		<stop  offset="1" style="stop-color:#8C8C8C"/>
	</linearGradient>
	<path fill="url(#SVGID_6_)" d="M34.78,33.97v8.39c-0.69-0.23-1.4-0.43-2.11-0.61l-2.91-0.6c-0.29-0.08-0.59-0.16-0.88-0.25v-8.5
		c0.29,0.09,0.59,0.17,0.88,0.24l2.91,0.74C33.38,33.57,34.08,33.76,34.78,33.97z"/>
	
		<linearGradient id="SVGID_7_" gradientUnits="userSpaceOnUse" x1="28.88" y1="93.445" x2="34.78" y2="93.445" gradientTransform="matrix(1 0 0 -1 0 120)">
		<stop  offset="0" style="stop-color:#FFFFFF"/>
		<stop  offset="0.1584" style="stop-color:#FAFAFA"/>
		<stop  offset="0.3594" style="stop-color:#EAEAEA"/>
		<stop  offset="0.5834" style="stop-color:#D0D0D0"/>
		<stop  offset="0.8223" style="stop-color:#ACACAC"/>
		<stop  offset="1" style="stop-color:#8C8C8C"/>
	</linearGradient>
	<path fill="url(#SVGID_7_)" d="M34.78,19.35v14.62c-0.7-0.21-1.4-0.4-2.11-0.59l-2.91-0.74c-0.29-0.07-0.59-0.15-0.88-0.24V19.16
		c0.29-0.01,0.58-0.02,0.88-0.02h2.91C33.44,19.14,34.14,19.21,34.78,19.35z"/>
	
		<linearGradient id="SVGID_8_" gradientUnits="userSpaceOnUse" x1="14.44" y1="93.01" x2="28.88" y2="93.01" gradientTransform="matrix(1 0 0 -1 0 120)">
		<stop  offset="0" style="stop-color:#FFFFFF"/>
		<stop  offset="0.1584" style="stop-color:#FAFAFA"/>
		<stop  offset="0.3594" style="stop-color:#EAEAEA"/>
		<stop  offset="0.5834" style="stop-color:#D0D0D0"/>
		<stop  offset="0.8223" style="stop-color:#ACACAC"/>
		<stop  offset="1" style="stop-color:#8C8C8C"/>
	</linearGradient>
	<path fill="url(#SVGID_8_)" d="M22.13,25.75c0,4.05,3.28,5.68,6.75,6.65v8.5c-7.1-2.03-14.44-5.14-14.44-14.61
		c0-8.26,6.77-12.88,14.44-13.21v6.08C24.57,19.38,22.13,21.32,22.13,25.75z"/>
	
		<linearGradient id="SVGID_9_" gradientUnits="userSpaceOnUse" x1="28.88" y1="110.17" x2="34.78" y2="110.17" gradientTransform="matrix(1 0 0 -1 0 120)">
		<stop  offset="0" style="stop-color:#FFFFFF"/>
		<stop  offset="0.1584" style="stop-color:#FAFAFA"/>
		<stop  offset="0.3594" style="stop-color:#EAEAEA"/>
		<stop  offset="0.5834" style="stop-color:#D0D0D0"/>
		<stop  offset="0.8223" style="stop-color:#ACACAC"/>
		<stop  offset="1" style="stop-color:#8C8C8C"/>
	</linearGradient>
	<path fill="url(#SVGID_9_)" d="M34.78,6.5v6.66c-0.69-0.07-1.4-0.1-2.11-0.1h-2.91c-0.29,0-0.59,0.01-0.88,0.02V6.5H34.78z"/>
	
		<linearGradient id="SVGID_10_" gradientUnits="userSpaceOnUse" x1="28.88" y1="103.795" x2="34.78" y2="103.795" gradientTransform="matrix(1 0 0 -1 0 120)">
		<stop  offset="0" style="stop-color:#FFFFFF"/>
		<stop  offset="0.1584" style="stop-color:#FAFAFA"/>
		<stop  offset="0.3594" style="stop-color:#EAEAEA"/>
		<stop  offset="0.5834" style="stop-color:#D0D0D0"/>
		<stop  offset="0.8223" style="stop-color:#ACACAC"/>
		<stop  offset="1" style="stop-color:#8C8C8C"/>
	</linearGradient>
	<path fill="url(#SVGID_10_)" d="M34.78,13.16v6.19c-0.64-0.14-1.34-0.21-2.11-0.21h-2.91c-0.3,0-0.59,0.01-0.88,0.02v-6.08
		c0.29-0.01,0.59-0.02,0.88-0.02h2.91C33.38,13.06,34.09,13.09,34.78,13.16z"/>
	
		<linearGradient id="SVGID_11_" gradientUnits="userSpaceOnUse" x1="34.78" y1="100.31" x2="47.45" y2="100.31" gradientTransform="matrix(1 0 0 -1 0 120)">
		<stop  offset="0" style="stop-color:#FFFFFF"/>
		<stop  offset="0.1584" style="stop-color:#FAFAFA"/>
		<stop  offset="0.3594" style="stop-color:#EAEAEA"/>
		<stop  offset="0.5834" style="stop-color:#D0D0D0"/>
		<stop  offset="0.8223" style="stop-color:#ACACAC"/>
		<stop  offset="1" style="stop-color:#8C8C8C"/>
	</linearGradient>
	<path fill="url(#SVGID_11_)" d="M47.45,26.22h-7.7c-0.17-3.79-1.66-6.2-4.97-6.87v-6.19C41.9,13.85,47.45,18.1,47.45,26.22z"/>
</g>
</svg>
