<?xml version="1.0" encoding="utf-8"?>
<!-- Generator: Adobe Illustrator 15.0.0, SVG Export Plug-In . SVG Version: 6.00 Build 0)  -->
<!DOCTYPE svg PUBLIC "-//W3C//DTD SVG 1.1//EN" "http://www.w3.org/Graphics/SVG/1.1/DTD/svg11.dtd">
<svg version="1.1" id="Layer_1" xmlns="http://www.w3.org/2000/svg" xmlns:xlink="http://www.w3.org/1999/xlink" x="0px" y="0px"
	 width="120px" height="120px" viewBox="0 0 120 120" enable-background="new 0 0 120 120" xml:space="preserve">
<g id="normal">
	<path fill="#FF2400" d="M108.26,25.48H41.11c-0.07,0-0.13,0.01-0.2,0.02c-1.42-0.1-2.86,0.38-3.95,1.48L8,56.32
		c-2,2.03-2,5.31,0,7.34L36.96,93c1.06,1.07,2.47,1.56,3.85,1.49c0.1,0.01,0.2,0.04,0.3,0.04h67.15c2.891,0,5.24-2.38,5.24-5.32
		V30.79C113.5,27.85,111.15,25.48,108.26,25.48z M83.3,68.26c1.84,1.87,1.84,4.9,0,6.76c-1.84,1.87-4.83,1.87-6.68,0l-8.44-8.55
		l-7.449,7.54c-1.84,1.88-4.84,1.88-6.69,0c-1.84-1.87-1.84-4.899,0-6.779l7.44-7.541l-7.86-7.95c-1.84-1.87-1.84-4.9,0-6.76
		c1.85-1.87,4.84-1.87,6.68,0l7.86,7.95l8.93-9.05c1.851-1.88,4.84-1.88,6.69,0c1.85,1.87,1.85,4.9,0,6.78l-8.931,9.05L83.3,68.26z"
		/>
	<path fill="#FFFFFF" d="M83.3,68.26c1.84,1.87,1.84,4.9,0,6.76c-1.84,1.87-4.83,1.87-6.68,0l-8.44-8.55l-7.449,7.54
		c-1.84,1.88-4.84,1.88-6.69,0c-1.84-1.87-1.84-4.899,0-6.779l7.44-7.541l-7.86-7.95c-1.84-1.87-1.84-4.9,0-6.76
		c1.85-1.87,4.84-1.87,6.68,0l7.86,7.95l8.93-9.05c1.851-1.88,4.84-1.88,6.69,0c1.85,1.87,1.85,4.9,0,6.78l-8.931,9.05L83.3,68.26z"
		/>
</g>
<g id="active">
	<path fill="#B51B00" d="M108.26,25.48H41.11c-0.07,0-0.13,0.01-0.2,0.02c-1.42-0.1-2.86,0.38-3.95,1.48L8,56.32
		c-2,2.03-2,5.31,0,7.34L36.96,93c1.06,1.07,2.47,1.561,3.85,1.49c0.1,0.01,0.2,0.04,0.3,0.04h67.15c2.891,0,5.24-2.38,5.24-5.32
		V30.79C113.5,27.85,111.15,25.48,108.26,25.48z M83.3,68.26c1.841,1.87,1.841,4.9,0,6.76c-1.84,1.871-4.829,1.871-6.68,0
		l-8.44-8.55l-7.449,7.54c-1.839,1.881-4.839,1.881-6.689,0c-1.84-1.869-1.84-4.898,0-6.779l7.439-7.541l-7.859-7.95
		c-1.84-1.87-1.84-4.9,0-6.76c1.85-1.87,4.84-1.87,6.68,0l7.86,7.95l8.93-9.05c1.851-1.88,4.841-1.88,6.69,0
		c1.85,1.87,1.85,4.9,0,6.78l-8.932,9.05L83.3,68.26z"/>
</g>
<g id="disabled" opacity="0.2">
	<path fill="#FFFFFF" d="M108.26,25.48H41.11c-0.07,0-0.13,0.01-0.2,0.02c-1.42-0.1-2.86,0.38-3.95,1.48L8,56.32
		c-2,2.03-2,5.31,0,7.34L36.96,93c1.06,1.07,2.47,1.56,3.85,1.49c0.1,0.01,0.2,0.04,0.3,0.04h67.15c2.891,0,5.24-2.38,5.24-5.32
		V30.79C113.5,27.85,111.15,25.48,108.26,25.48z M83.3,68.26c1.84,1.87,1.84,4.9,0,6.76c-1.84,1.87-4.83,1.87-6.68,0l-8.44-8.55
		l-7.449,7.54c-1.84,1.88-4.84,1.88-6.69,0c-1.84-1.87-1.84-4.899,0-6.779l7.44-7.541l-7.86-7.95c-1.84-1.87-1.84-4.9,0-6.76
		c1.85-1.87,4.84-1.87,6.68,0l7.86,7.95l8.93-9.05c1.851-1.88,4.84-1.88,6.69,0c1.85,1.87,1.85,4.9,0,6.78l-8.931,9.05L83.3,68.26z"
		/>
	<path fill="#FFFFFF" d="M83.3,68.26c1.84,1.87,1.84,4.9,0,6.76c-1.84,1.87-4.83,1.87-6.68,0l-8.44-8.55l-7.449,7.54
		c-1.84,1.88-4.84,1.88-6.69,0c-1.84-1.87-1.84-4.899,0-6.779l7.44-7.541l-7.86-7.95c-1.84-1.87-1.84-4.9,0-6.76
		c1.85-1.87,4.84-1.87,6.68,0l7.86,7.95l8.93-9.05c1.851-1.88,4.84-1.88,6.69,0c1.85,1.87,1.85,4.9,0,6.78l-8.931,9.05L83.3,68.26z"
		/>
</g>
</svg>
