<?xml version="1.0" encoding="utf-8"?>
<!-- Generator: Adobe Illustrator 16.0.1, SVG Export Plug-In . SVG Version: 6.00 Build 0)  -->
<!DOCTYPE svg PUBLIC "-//W3C//DTD SVG 1.1//EN" "http://www.w3.org/Graphics/SVG/1.1/DTD/svg11.dtd">
<svg version="1.1" id="Слой_1" xmlns="http://www.w3.org/2000/svg" xmlns:xlink="http://www.w3.org/1999/xlink" x="0px" y="0px"
	 width="120px" height="120px" viewBox="0 0 120 120" enable-background="new 0 0 120 120" xml:space="preserve">
<g id="Layer_2" display="none">
	<circle display="inline" opacity="0.5" fill="#DF1F26" enable-background="new    " cx="57" cy="57" r="60"/>
	<rect x="3.5" y="3.5" display="inline" opacity="0.5" fill="#3B4FA1" enable-background="new    " width="107" height="107"/>
</g>
<g id="normal">
	<g>
		<path fill="none" stroke="#FFFF00" stroke-width="8.0185" stroke-miterlimit="10" d="M4.5,103.507
			c0,6.624,5.401,11.993,12.063,11.993h86.875c6.663,0,12.063-5.369,12.063-11.993V16.493c0-6.624-5.399-11.993-12.063-11.993
			H16.563C9.901,4.5,4.5,9.87,4.5,16.493V103.507z"/>
	</g>
	<g>
		<g>
			<path d="M63.966,25H29.592C24.294,25,20,29.644,20,35.372V84.63C20,90.357,24.294,95,29.592,95h34.374
				c5.301,0,9.594-4.643,9.594-10.37V35.37C73.558,29.644,69.265,25,63.966,25z M41.413,87.732c-7.445,0-13.479-6.58-13.479-14.693
				c0-8.117,6.033-14.695,13.479-14.695c7.443,0,13.478,6.578,13.478,14.695C54.89,81.154,48.856,87.732,41.413,87.732z
				 M58.301,46.125c-4.125,0-7.47-3.646-7.47-8.144c0-4.5,3.344-8.146,7.47-8.146c4.125,0,7.47,3.647,7.47,8.146
				S62.426,46.125,58.301,46.125z"/>
			<ellipse cx="58.382" cy="37.981" rx="4.252" ry="4.603"/>
			<ellipse cx="41.355" cy="72.995" rx="9.361" ry="10.136"/>
			<rect x="75.062" y="36.701" width="3.597" height="40.701"/>
			<rect x="81.357" y="38.786" width="3.597" height="38.616"/>
			<polygon points="101.834,51.318 91.211,51.318 91.211,44.619 87.613,44.619 87.613,80.537 75.056,80.537 75.056,85.017 
				87.613,85.017 91.109,85.017 91.211,85.017 91.211,74.146 101.834,74.146 			"/>
		</g>
	</g>
	<line fill="none" stroke="#E80000" stroke-width="16" stroke-linecap="round" stroke-miterlimit="10" x1="10" y1="10" x2="107" y2="107"/>
</g>
<g id="active">
	<g>
		<path fill="none" stroke="#FFFF00" stroke-width="8.0185" stroke-miterlimit="10" d="M4.5,103.507
			c0,6.624,5.401,11.993,12.063,11.993h86.875c6.663,0,12.063-5.369,12.063-11.993V16.493c0-6.624-5.399-11.993-12.063-11.993
			H16.563C9.901,4.5,4.5,9.87,4.5,16.493V103.507z"/>
	</g>
	<g>
		<g>
			<path d="M63.966,25H29.592C24.294,25,20,29.644,20,35.372V84.63C20,90.357,24.294,95,29.592,95h34.374
				c5.301,0,9.594-4.643,9.594-10.37V35.37C73.558,29.644,69.265,25,63.966,25z M41.413,87.732c-7.445,0-13.479-6.58-13.479-14.693
				c0-8.117,6.033-14.695,13.479-14.695c7.443,0,13.478,6.578,13.478,14.695C54.89,81.154,48.856,87.732,41.413,87.732z
				 M58.301,46.125c-4.125,0-7.47-3.646-7.47-8.144c0-4.5,3.344-8.146,7.47-8.146c4.125,0,7.47,3.647,7.47,8.146
				S62.426,46.125,58.301,46.125z"/>
			<ellipse cx="58.382" cy="37.981" rx="4.252" ry="4.603"/>
			<ellipse cx="41.355" cy="72.995" rx="9.361" ry="10.136"/>
			<rect x="75.062" y="36.701" width="3.597" height="40.701"/>
			<rect x="81.357" y="38.786" width="3.597" height="38.616"/>
			<polygon points="101.834,51.318 91.211,51.318 91.211,44.619 87.613,44.619 87.613,80.537 75.056,80.537 75.056,85.017 
				87.613,85.017 91.109,85.017 91.211,85.017 91.211,74.146 101.834,74.146 			"/>
		</g>
	</g>
	<line fill="none" stroke="#E80000" stroke-width="16" stroke-linecap="round" stroke-miterlimit="10" x1="10" y1="10" x2="107" y2="107"/>
</g>
<g id="disabled" opacity="0.4">
	<g>
		<path fill="none" stroke="#FFFF00" stroke-width="8.0185" stroke-miterlimit="10" d="M4.5,103.507
			c0,6.624,5.401,11.993,12.063,11.993h86.875c6.663,0,12.063-5.369,12.063-11.993V16.493c0-6.624-5.399-11.993-12.063-11.993
			H16.563C9.901,4.5,4.5,9.87,4.5,16.493V103.507z"/>
	</g>
	<g>
		<g>
			<path d="M63.966,25H29.592C24.294,25,20,29.644,20,35.372V84.63C20,90.357,24.294,95,29.592,95h34.374
				c5.301,0,9.594-4.643,9.594-10.37V35.37C73.558,29.644,69.265,25,63.966,25z M41.413,87.732c-7.445,0-13.479-6.58-13.479-14.693
				c0-8.117,6.033-14.695,13.479-14.695c7.443,0,13.478,6.578,13.478,14.695C54.89,81.154,48.856,87.732,41.413,87.732z
				 M58.301,46.125c-4.125,0-7.47-3.646-7.47-8.144c0-4.5,3.344-8.146,7.47-8.146c4.125,0,7.47,3.647,7.47,8.146
				S62.426,46.125,58.301,46.125z"/>
			<ellipse cx="58.382" cy="37.981" rx="4.252" ry="4.603"/>
			<ellipse cx="41.355" cy="72.995" rx="9.361" ry="10.136"/>
			<rect x="75.062" y="36.701" width="3.597" height="40.701"/>
			<rect x="81.357" y="38.786" width="3.597" height="38.616"/>
			<polygon points="101.834,51.318 91.211,51.318 91.211,44.619 87.613,44.619 87.613,80.537 75.056,80.537 75.056,85.017 
				87.613,85.017 91.109,85.017 91.211,85.017 91.211,74.146 101.834,74.146 			"/>
		</g>
	</g>
	<line fill="none" stroke="#E80000" stroke-width="16" stroke-linecap="round" stroke-miterlimit="10" x1="10" y1="10" x2="107" y2="107"/>
</g>
</svg>
