<?xml version="1.0" encoding="utf-8"?>
<!-- Generator: Adobe Illustrator 19.2.1, SVG Export Plug-In . SVG Version: 6.00 Build 0)  -->
<svg version="1.1" id="Layer_1" xmlns="http://www.w3.org/2000/svg" xmlns:xlink="http://www.w3.org/1999/xlink" x="0px" y="0px"
	 viewBox="0 0 255 841.89" enable-background="new 0 0 255 841.89" xml:space="preserve">
<g>
	
		<linearGradient id="SVGID_1_" gradientUnits="userSpaceOnUse" x1="91.2181" y1="-60.3735" x2="162.8216" y2="63.6473" gradientTransform="matrix(1 0 0 1 -0.02 720.9844)">
		<stop  offset="0" style="stop-color:#F5F5F5"/>
		<stop  offset="1" style="stop-color:#ADADAD"/>
	</linearGradient>
	<path fill="url(#SVGID_1_)" d="M177.567,672.052c-13.649-13.65-31.608-21.17-50.567-21.17c-18.957,0-36.917,7.52-50.568,21.17
		c-13.651,13.652-21.169,31.611-21.169,50.568c0,18.959,7.518,36.918,21.169,50.57c13.652,13.65,31.611,21.17,50.568,21.17
		c18.959,0,36.918-7.52,50.567-21.17c13.652-13.652,21.171-31.611,21.171-50.57C198.738,703.666,191.22,685.707,177.567,672.052z
		 M126.999,784.361c-33.676,0-61.738-28.063-61.738-61.738s28.063-61.738,61.738-61.738s61.738,28.063,61.738,61.738
		C188.738,756.296,160.675,784.361,126.999,784.361z"/>
</g>
<g>
	
		<linearGradient id="SVGID_2_" gradientUnits="userSpaceOnUse" x1="91.2185" y1="-362.3011" x2="162.8216" y2="-238.2809" gradientTransform="matrix(1 0 0 1 -0.02 720.9844)">
		<stop  offset="0" style="stop-color:#F5F5F5"/>
		<stop  offset="1" style="stop-color:#ADADAD"/>
	</linearGradient>
	<path fill="url(#SVGID_2_)" d="M177.567,370.125c-13.649-13.651-31.608-21.17-50.567-21.17c-18.957,0-36.917,7.519-50.568,21.17
		c-13.651,13.652-21.169,31.611-21.169,50.568c0,18.959,7.518,36.918,21.169,50.568c13.652,13.652,31.611,21.17,50.568,21.17
		c18.959,0,36.918-7.518,50.567-21.17c13.652-13.65,21.171-31.609,21.171-50.568C198.738,401.736,191.22,383.777,177.567,370.125z
		 M126.999,482.431c-33.676,0-61.738-28.063-61.738-61.738s28.063-61.738,61.738-61.738s61.738,28.063,61.738,61.738
		C188.738,454.369,160.675,482.431,126.999,482.431z"/>
	
		<radialGradient id="SVGID_3_" cx="127.019" cy="-300.5414" r="61.738" gradientTransform="matrix(1 0 0 1 -0.02 720.9844)" gradientUnits="userSpaceOnUse">
		<stop  offset="0" style="stop-color:#FFA730"/>
		<stop  offset="1" style="stop-color:#BA0000"/>
	</radialGradient>
	<path fill="url(#SVGID_3_)" d="M65.261,420.443c0-33.675,28.063-61.738,61.738-61.738s61.738,28.063,61.738,61.738
		c0,33.676-28.063,61.738-61.738,61.738S65.261,454.119,65.261,420.443L65.261,420.443z"/>
</g>
<g>
	
		<linearGradient id="SVGID_4_" gradientUnits="userSpaceOnUse" x1="91.2177" y1="-663.7285" x2="162.8214" y2="-539.7071" gradientTransform="matrix(1 0 0 1 -0.02 720.9844)">
		<stop  offset="0" style="stop-color:#F5F5F5"/>
		<stop  offset="1" style="stop-color:#ADADAD"/>
	</linearGradient>
	<path fill="url(#SVGID_4_)" d="M177.567,68.698c-13.65-13.652-31.609-21.17-50.567-21.17s-36.917,7.518-50.569,21.17
		c-13.651,13.651-21.169,31.61-21.169,50.568s7.518,36.917,21.169,50.569c13.652,13.652,31.611,21.17,50.569,21.17
		s36.917-7.518,50.567-21.17c13.651-13.651,21.171-31.611,21.171-50.569C198.738,100.309,191.219,82.35,177.567,68.698z
		 M126.999,181.005c-33.677,0-61.738-28.063-61.738-61.739c0-33.675,28.063-61.738,61.738-61.738s61.738,28.063,61.738,61.738
		C188.738,152.943,160.675,181.005,126.999,181.005z"/>
</g>
</svg>
