<?xml version="1.0" encoding="utf-8"?>
<!-- Generator: Adobe Illustrator 19.2.1, SVG Export Plug-In . SVG Version: 6.00 Build 0)  -->
<svg version="1.1" id="Layer_1" xmlns="http://www.w3.org/2000/svg" xmlns:xlink="http://www.w3.org/1999/xlink" x="0px" y="0px"
	 viewBox="0 0 120 120" enable-background="new 0 0 120 120" xml:space="preserve">
<g id="normal">
	<g>
		
			<radialGradient id="SVGID_1_" cx="60" cy="103.545" r="29.8821" gradientTransform="matrix(1 0 0 -8 0 844.815)" gradientUnits="userSpaceOnUse">
			<stop  offset="0" style="stop-color:#F0F0F0"/>
			<stop  offset="0.332" style="stop-color:#EDEDED"/>
			<stop  offset="0.5149" style="stop-color:#E5E5E5"/>
			<stop  offset="0.6614" style="stop-color:#D8D8D8"/>
			<stop  offset="0.7888" style="stop-color:#C4C4C4"/>
			<stop  offset="0.9024" style="stop-color:#ABABAB"/>
			<stop  offset="1" style="stop-color:#8F8F8F"/>
			<stop  offset="1" style="stop-color:#6F6D69"/>
		</radialGradient>
		<path fill="url(#SVGID_1_)" d="M18.7,25.41v-8.02c0-4.807,2.745-9.89,5.34-9.89h71.92c2.206,0,5.34,5.115,5.34,9.89v8.02H18.7z"/>
	</g>
	
		<radialGradient id="SVGID_2_" cx="60.0005" cy="47.5588" r="44.2802" gradientTransform="matrix(1 0 0 -8 0 452.9113)" gradientUnits="userSpaceOnUse">
		<stop  offset="0" style="stop-color:#F0F0F0"/>
		<stop  offset="0.332" style="stop-color:#EDEDED"/>
		<stop  offset="0.5149" style="stop-color:#E5E5E5"/>
		<stop  offset="0.6614" style="stop-color:#D8D8D8"/>
		<stop  offset="0.7888" style="stop-color:#C4C4C4"/>
		<stop  offset="0.9024" style="stop-color:#ABABAB"/>
		<stop  offset="1" style="stop-color:#8F8F8F"/>
		<stop  offset="1" style="stop-color:#6F6D69"/>
	</radialGradient>
	<path fill="url(#SVGID_2_)" d="M102.3,31.38H17.7c-2.75,0-4.98,2.23-4.98,4.98v59.72c0,1.9,1.08,3.53,2.65,4.37v7.08
		c0,6.279-0.18,5.97,11.17,5.97c11.15,0,11.18-0.02,11.18-5.97v-6.471h44.71v6.471c0,6.279-0.17,5.97,11.181,5.97
		c11.14,0,11.18-0.02,11.18-5.97v-7.16c1.479-0.87,2.49-2.45,2.49-4.29V36.36C107.28,33.61,105.05,31.38,102.3,31.38z M31.56,87.77
		c0,1.69-0.41,3.15-2.46,3.15h-3.58c-2.05,0-2.55-1.47-2.55-3.15v-9.1c0-1.689,0.5-3.85,2.55-3.85h3.58c2.05,0,2.46,2.16,2.46,3.85
		C31.56,78.67,31.56,87.77,31.56,87.77z M25.16,63.73c-2.75,0-4.97-2.23-4.97-4.98V41.34c0-2.75,2.22-4.98,4.97-4.98h32.35v27.37
		C57.51,63.73,25.16,63.73,25.16,63.73z M82.78,93.68H37.19v-5.65h45.59V93.68z M37.9,83.81v-5.65h43.99v5.649L37.9,83.81
		L37.9,83.81z M82.78,73.79H37.19v-5.66h45.59V73.79z M97.03,87.77c0,1.69-0.42,3.15-2.46,3.15h-3.59c-2.04,0-2.54-1.47-2.54-3.15
		v-9.1c0-1.689,0.5-3.85,2.54-3.85h3.59c2.04,0,2.46,2.16,2.46,3.85V87.77z M99.81,58.75c0,2.75-2.229,4.98-4.97,4.98H62.49V36.36
		h32.35c2.75,0,4.97,2.23,4.97,4.98V58.75z"/>
</g>
<g id="active">
	
		<radialGradient id="SVGID_3_" cx="60.0005" cy="72.4412" r="44.2802" gradientTransform="matrix(1 0 0 8 0 -507.0887)" gradientUnits="userSpaceOnUse">
		<stop  offset="0" style="stop-color:#F0F0F0"/>
		<stop  offset="0.1344" style="stop-color:#EAEAEA"/>
		<stop  offset="0.3018" style="stop-color:#DBDBDB"/>
		<stop  offset="0.4869" style="stop-color:#C2C2C2"/>
		<stop  offset="0.6846" style="stop-color:#9E9E9E"/>
		<stop  offset="0.8902" style="stop-color:#717171"/>
		<stop  offset="1" style="stop-color:#565656"/>
	</radialGradient>
	<path fill="url(#SVGID_3_)" d="M102.3,31.38H17.7c-2.75,0-4.98,2.23-4.98,4.98v59.72c0,1.9,1.08,3.53,2.65,4.37v7.08
		c0,6.279-0.18,5.97,11.17,5.97c11.15,0,11.18-0.02,11.18-5.97v-6.471h44.71v6.471c0,6.279-0.17,5.97,11.181,5.97
		c11.14,0,11.18-0.02,11.18-5.97v-7.16c1.479-0.87,2.49-2.45,2.49-4.29V36.36C107.28,33.61,105.05,31.38,102.3,31.38z M31.56,87.77
		c0,1.69-0.41,3.15-2.46,3.15h-3.58c-2.05,0-2.55-1.47-2.55-3.15v-9.1c0-1.689,0.5-3.85,2.55-3.85h3.58c2.05,0,2.46,2.16,2.46,3.85
		C31.56,78.67,31.56,87.77,31.56,87.77z M25.16,63.73c-2.75,0-4.97-2.23-4.97-4.98V41.34c0-2.75,2.22-4.98,4.97-4.98h32.35v27.37
		C57.51,63.73,25.16,63.73,25.16,63.73z M82.78,93.68H37.19v-5.65h45.59V93.68z M37.9,83.81v-5.65h43.99v5.649L37.9,83.81
		L37.9,83.81z M82.78,73.79H37.19v-5.66h45.59V73.79z M97.03,87.77c0,1.69-0.42,3.15-2.46,3.15h-3.59c-2.04,0-2.54-1.47-2.54-3.15
		v-9.1c0-1.689,0.5-3.85,2.54-3.85h3.59c2.04,0,2.46,2.16,2.46,3.85V87.77z M99.81,58.75c0,2.75-2.229,4.98-4.97,4.98H62.49V36.36
		h32.35c2.75,0,4.97,2.23,4.97,4.98V58.75z"/>
</g>
<g id="disabled" opacity="0.2">
	<path fill="#109E00" d="M102.3,31.38H17.7c-2.75,0-4.98,2.23-4.98,4.98v59.72c0,1.9,1.08,3.53,2.65,4.37v7.08
		c0,6.279-0.18,5.97,11.17,5.97c11.15,0,11.18-0.02,11.18-5.97v-6.471h44.71v6.471c0,6.279-0.17,5.97,11.181,5.97
		c11.14,0,11.18-0.02,11.18-5.97v-7.16c1.479-0.87,2.49-2.45,2.49-4.29V36.36C107.28,33.61,105.05,31.38,102.3,31.38z M31.56,87.77
		c0,1.69-0.41,3.15-2.46,3.15h-3.58c-2.05,0-2.55-1.47-2.55-3.15v-9.1c0-1.689,0.5-3.85,2.55-3.85h3.58c2.05,0,2.46,2.16,2.46,3.85
		C31.56,78.67,31.56,87.77,31.56,87.77z M25.16,63.73c-2.75,0-4.97-2.23-4.97-4.98V41.34c0-2.75,2.22-4.98,4.97-4.98h32.35v27.37
		C57.51,63.73,25.16,63.73,25.16,63.73z M82.78,93.68H37.19v-5.65h45.59V93.68z M37.9,83.81v-5.65h43.99v5.649L37.9,83.81
		L37.9,83.81z M82.78,73.79H37.19v-5.66h45.59V73.79z M97.03,87.77c0,1.69-0.42,3.15-2.46,3.15h-3.59c-2.04,0-2.54-1.47-2.54-3.15
		v-9.1c0-1.689,0.5-3.85,2.54-3.85h3.59c2.04,0,2.46,2.16,2.46,3.85V87.77z M99.81,58.75c0,2.75-2.229,4.98-4.97,4.98H62.49V36.36
		h32.35c2.75,0,4.97,2.23,4.97,4.98V58.75z"/>
	<g>
		<path fill="#FFC000" d="M18.2,25.91v-8.52C18.2,12.244,21.147,7,24.04,7h71.92c2.442,0,5.84,5.236,5.84,10.39v8.52H18.2z"/>
		<path d="M95.96,7.5c2.206,0,5.34,5.115,5.34,9.89v8.02H18.7v-8.02c0-4.807,2.745-9.89,5.34-9.89L95.96,7.5 M95.96,6.5H24.04
			c-3.28,0-6.34,5.59-6.34,10.89v9.02h84.6v-9.02C102.3,12.21,98.91,6.5,95.96,6.5L95.96,6.5z"/>
	</g>
</g>
</svg>
