<?xml version="1.0" encoding="utf-8"?>
<!-- Generator: Adobe Illustrator 16.0.0, SVG Export Plug-In . SVG Version: 6.00 Build 0)  -->
<!DOCTYPE svg PUBLIC "-//W3C//DTD SVG 1.1//EN" "http://www.w3.org/Graphics/SVG/1.1/DTD/svg11.dtd">
<svg version="1.1" id="Слой_1" xmlns="http://www.w3.org/2000/svg" xmlns:xlink="http://www.w3.org/1999/xlink" x="0px" y="0px"
	 width="120px" height="120px" viewBox="0 0 120 120" enable-background="new 0 0 120 120" xml:space="preserve">
<g id="Layer_4" display="none">
	<circle display="inline" opacity="0.5" fill="#DF1F26" enable-background="new    " cx="60" cy="60" r="60"/>
	<rect x="6.5" y="6.5" display="inline" opacity="0.5" fill="#3B4FA1" enable-background="new    " width="107" height="107"/>
</g>
<g id="normal">
	
		<radialGradient id="SVGID_1_" cx="19.7642" cy="924.8711" r="3.6972" gradientTransform="matrix(1 0 0 1 -0.1304 -917.1865)" gradientUnits="userSpaceOnUse">
		<stop  offset="0" style="stop-color:#FFFFFF"/>
		<stop  offset="1" style="stop-color:#949494"/>
	</radialGradient>
	<path fill="url(#SVGID_1_)" d="M16.956,7.073c1.144-1.343,2.36-1.716,3.64-1.123c1.318,0.651,1.832,1.785,1.538,3.404v0.143
		l-0.889,1.271l-1.183,0.442l-1.924-0.09c-0.826-0.587-1.293-1.132-1.393-1.625l0.056-1.688L16.956,7.073"/>
	
		<linearGradient id="SVGID_2_" gradientUnits="userSpaceOnUse" x1="22.3994" y1="975.4912" x2="26.2733" y2="975.1523" gradientTransform="matrix(1 0 0 1 -0.1304 -917.1865)">
		<stop  offset="0.004" style="stop-color:#969696"/>
		<stop  offset="0.4427" style="stop-color:#D1D1D1"/>
		<stop  offset="1" style="stop-color:#919191"/>
	</linearGradient>
	<path fill="url(#SVGID_2_)" d="M18.141,11.125l1.924,0.086l1.183-0.44l1.035,10.798l1.035,11.446L24.436,44.2l0.889,10.856h0.208
		l2.459,25.526l0.056,0.146l0.146,2.811l0.088,0.146l0.058,0.146l1.714,18.846l0.146,2.162l-1.271,0.504h-1.098l-0.678-0.299
		l0.09-1.389l-0.241-0.533l0.086-1.035l-0.294-0.887l0.144-0.59l-0.236-0.738l-0.208-3.758l-0.299-1.123L24.78,78.811l-0.208-2.156
		l-0.241-0.357l0.088-1.184l-0.239-0.529l0.146-0.209l-3.907-38.399L18.141,11.125"/>
	<linearGradient id="SVGID_3_" gradientUnits="userSpaceOnUse" x1="22.5996" y1="39.6494" x2="104.1242" y2="33.9487">
		<stop  offset="0" style="stop-color:#FFFF00"/>
		<stop  offset="0.0763" style="stop-color:#FCFA00"/>
		<stop  offset="0.1691" style="stop-color:#F2EB00"/>
		<stop  offset="0.2705" style="stop-color:#E2D200"/>
		<stop  offset="0.3773" style="stop-color:#CCB000"/>
		<stop  offset="0.4289" style="stop-color:#BF9D00"/>
		<stop  offset="0.4653" style="stop-color:#C4A500"/>
		<stop  offset="0.5227" style="stop-color:#D3BC01"/>
		<stop  offset="0.5935" style="stop-color:#EBE003"/>
		<stop  offset="0.6443" style="stop-color:#FFFF04"/>
		<stop  offset="0.704" style="stop-color:#F8F504"/>
		<stop  offset="0.806" style="stop-color:#E6DA03"/>
		<stop  offset="0.9374" style="stop-color:#C9AE01"/>
		<stop  offset="1" style="stop-color:#BA9600"/>
	</linearGradient>
	<path fill="url(#SVGID_3_)" enable-background="new    " d="M102.745,14.384l-0.002-0.007l0.002-0.144l-0.055-0.149l-16.123-0.208
		l-0.002,0.008h-0.002l0.002-0.009l16.121,0.208l-16.065-0.352l-0.016,0.038l0.016-0.04l-0.144-0.147l-0.001,0.001l-14.409-0.677
		l-0.088-0.005l-0.021,0.037h-0.002l0.022-0.039l-12.482-1.477l-0.234,0.147l0,0v-0.001l-10.65-1.922h-0.058v0.002l-7.631-0.887
		l-3.907-0.208l-0.064,0.031l-0.584-0.031l-0.097,0.047l-3.054-0.056l-0.175,0.009l-0.474-0.009l-5.97,0.296l-5.122,0.651
		l-0.887,1.271l0.012,0.127l-0.012,0.018l1.034,10.799l0.012-0.002v-0.001l1.035,11.446h0.009l0.001,0.012h-0.014l1.114,11.18h0.001
		l0.888,10.847h0.208l0.433-0.103l0.008,0.103h0.208l1.482-0.354l5.176-0.591l3.518-0.078l3.763,0.226v-0.039l0.015,0.001v0.19
		l3.314,0.357l7.778,1.714l10.051,3.016l0.043-0.044l0.023,0.039l2.81,0.737l9.026,1.688h0.084l-0.002-0.084l0.409,0.055
		l0.159,0.029h0.066l12.822,1.691l-0.002-0.086l0.649,0.086l-0.001-0.064l6.223,0.555l8.574,0.383v-0.029l0.649,0.029l0.09-11.921
		h-0.001v-0.008l0.01,0.001v-0.056l0.057-0.238l0.147-11.984l0.089-0.146h-0.089v-0.005l0.089-0.146h-0.16l0.207-12.567
		l-0.002-0.001l0.002-0.15l-0.113-0.046l0.056-0.096L102.745,14.384z M60.688,59.477l-0.01,0.01v-0.034l0.01,0.003V59.477z
		 M63.864,12.085l7.456,0.834l-0.001,0.001L63.864,12.085z M86.269,13.731l-1.485-0.086l1.487,0.086l0.123-0.087l-0.121,0.087
		l0.006,0.149h-0.005L86.269,13.731z"/>
	<path fill="#00ff00" d="M45.093,113.25c-14.359,0-25.999-11.639-25.999-25.993c0-14.356,11.64-25.995,25.999-25.995
		c14.359,0,26.001,11.639,26.001,25.995C71.093,101.611,59.452,113.25,45.093,113.25L45.093,113.25z M45.204,68.061
		c-10.412,0-18.853,8.439-18.853,18.849s8.441,18.85,18.853,18.85c10.411,0,18.853-8.438,18.853-18.85
		C64.055,76.5,55.614,68.061,45.204,68.061L45.204,68.061z M44.611,69.277h4.866v21.888h-4.866V69.277L44.611,69.277z
		 M36.071,86.294h8.513v4.862h-8.513V86.294L36.071,86.294z"/>
</g>
<g id="active_1_">
	
		<radialGradient id="SVGID_4_" cx="19.7642" cy="924.8711" r="3.6972" gradientTransform="matrix(1 0 0 1 -0.1304 -917.1865)" gradientUnits="userSpaceOnUse">
		<stop  offset="0" style="stop-color:#FFFFFF"/>
		<stop  offset="1" style="stop-color:#949494"/>
	</radialGradient>
	<path fill="url(#SVGID_4_)" d="M16.956,7.073c1.144-1.343,2.36-1.716,3.64-1.123c1.318,0.651,1.832,1.785,1.538,3.404v0.143
		l-0.889,1.271l-1.183,0.442l-1.924-0.09c-0.826-0.587-1.293-1.132-1.393-1.625l0.056-1.688L16.956,7.073"/>
	
		<linearGradient id="SVGID_5_" gradientUnits="userSpaceOnUse" x1="22.3994" y1="975.4912" x2="26.2733" y2="975.1523" gradientTransform="matrix(1 0 0 1 -0.1304 -917.1865)">
		<stop  offset="0.004" style="stop-color:#969696"/>
		<stop  offset="0.4427" style="stop-color:#D1D1D1"/>
		<stop  offset="1" style="stop-color:#919191"/>
	</linearGradient>
	<path fill="url(#SVGID_5_)" d="M18.141,11.125l1.924,0.086l1.183-0.44l1.035,10.798l1.035,11.446L24.436,44.2l0.889,10.856h0.208
		l2.459,25.526l0.056,0.146l0.146,2.811l0.088,0.146l0.058,0.146l1.714,18.846l0.146,2.162l-1.271,0.504h-1.098l-0.678-0.299
		l0.09-1.389l-0.241-0.533l0.086-1.035l-0.294-0.887l0.144-0.59l-0.236-0.738l-0.208-3.758l-0.299-1.123L24.78,78.811l-0.208-2.156
		l-0.241-0.357l0.088-1.184l-0.239-0.529l0.146-0.209l-3.907-38.399L18.141,11.125"/>
	<linearGradient id="SVGID_6_" gradientUnits="userSpaceOnUse" x1="22.5996" y1="39.6494" x2="104.1242" y2="33.9487">
		<stop  offset="0" style="stop-color:#FFFF00"/>
		<stop  offset="0.0763" style="stop-color:#FCFA00"/>
		<stop  offset="0.1691" style="stop-color:#F2EB00"/>
		<stop  offset="0.2705" style="stop-color:#E2D200"/>
		<stop  offset="0.3773" style="stop-color:#CCB000"/>
		<stop  offset="0.4289" style="stop-color:#BF9D00"/>
		<stop  offset="0.4653" style="stop-color:#C4A500"/>
		<stop  offset="0.5227" style="stop-color:#D3BC01"/>
		<stop  offset="0.5935" style="stop-color:#EBE003"/>
		<stop  offset="0.6443" style="stop-color:#FFFF04"/>
		<stop  offset="0.704" style="stop-color:#F8F504"/>
		<stop  offset="0.806" style="stop-color:#E6DA03"/>
		<stop  offset="0.9374" style="stop-color:#C9AE01"/>
		<stop  offset="1" style="stop-color:#BA9600"/>
	</linearGradient>
	<path fill="url(#SVGID_6_)" enable-background="new    " d="M102.745,14.384l-0.002-0.007l0.002-0.144l-0.055-0.149l-16.123-0.208
		l-0.002,0.008h-0.002l0.002-0.009l16.121,0.208l-16.065-0.352l-0.016,0.038l0.016-0.04l-0.144-0.147l-0.001,0.001l-14.409-0.677
		l-0.088-0.005l-0.021,0.037h-0.002l0.022-0.039l-12.482-1.477l-0.234,0.147l0,0v-0.001l-10.65-1.922h-0.058v0.002l-7.631-0.887
		l-3.907-0.208l-0.064,0.031l-0.584-0.031l-0.097,0.047l-3.054-0.056l-0.175,0.009l-0.474-0.009l-5.97,0.296l-5.122,0.651
		l-0.887,1.271l0.012,0.127l-0.012,0.018l1.034,10.799l0.012-0.002v-0.001l1.035,11.446h0.009l0.001,0.012h-0.014l1.114,11.18h0.001
		l0.888,10.847h0.208l0.433-0.103l0.008,0.103h0.208l1.482-0.354l5.176-0.591l3.518-0.078l3.763,0.226v-0.039l0.015,0.001v0.19
		l3.314,0.357l7.778,1.714l10.051,3.016l0.043-0.044l0.023,0.039l2.81,0.737l9.026,1.688h0.084l-0.002-0.084l0.409,0.055
		l0.159,0.029h0.066l12.822,1.691l-0.002-0.086l0.649,0.086l-0.001-0.064l6.223,0.555l8.574,0.383v-0.029l0.649,0.029l0.09-11.921
		h-0.001v-0.008l0.01,0.001v-0.056l0.057-0.238l0.147-11.984l0.089-0.146h-0.089v-0.005l0.089-0.146h-0.16l0.207-12.567
		l-0.002-0.001l0.002-0.15l-0.113-0.046l0.056-0.096L102.745,14.384z M60.688,59.477l-0.01,0.01v-0.034l0.01,0.003V59.477z
		 M63.864,12.085l7.456,0.834l-0.001,0.001L63.864,12.085z M86.269,13.731l-1.485-0.086l1.487,0.086l0.123-0.087l-0.121,0.087
		l0.006,0.149h-0.005L86.269,13.731z"/>
	<path fill="#00ff00" d="M45.093,113.25c-14.359,0-25.999-11.639-25.999-25.993c0-14.356,11.64-25.995,25.999-25.995
		c14.359,0,26.001,11.639,26.001,25.995C71.093,101.611,59.452,113.25,45.093,113.25L45.093,113.25z M45.204,68.061
		c-10.412,0-18.853,8.439-18.853,18.849s8.441,18.85,18.853,18.85c10.411,0,18.853-8.438,18.853-18.85
		C64.055,76.5,55.614,68.061,45.204,68.061L45.204,68.061z M44.611,69.277h4.866v21.888h-4.866V69.277L44.611,69.277z
		 M36.071,86.294h8.513v4.862h-8.513V86.294L36.071,86.294z"/>
</g>
<g id="disabled_1_" opacity="0.2">
	
		<radialGradient id="SVGID_7_" cx="19.7642" cy="924.8711" r="3.6972" gradientTransform="matrix(1 0 0 1 -0.1304 -917.1865)" gradientUnits="userSpaceOnUse">
		<stop  offset="0" style="stop-color:#FFFFFF"/>
		<stop  offset="1" style="stop-color:#949494"/>
	</radialGradient>
	<path fill="url(#SVGID_7_)" d="M16.956,7.073c1.144-1.343,2.36-1.716,3.64-1.123c1.318,0.651,1.832,1.785,1.538,3.404v0.143
		l-0.889,1.271l-1.183,0.442l-1.924-0.09c-0.826-0.587-1.293-1.132-1.393-1.625l0.056-1.688L16.956,7.073"/>
	
		<linearGradient id="SVGID_8_" gradientUnits="userSpaceOnUse" x1="22.3994" y1="975.4912" x2="26.2733" y2="975.1523" gradientTransform="matrix(1 0 0 1 -0.1304 -917.1865)">
		<stop  offset="0.004" style="stop-color:#969696"/>
		<stop  offset="0.4427" style="stop-color:#D1D1D1"/>
		<stop  offset="1" style="stop-color:#919191"/>
	</linearGradient>
	<path fill="url(#SVGID_8_)" d="M18.141,11.125l1.924,0.086l1.183-0.44l1.035,10.798l1.035,11.446L24.436,44.2l0.889,10.856h0.208
		l2.459,25.526l0.056,0.146l0.146,2.811l0.088,0.146l0.058,0.146l1.714,18.846l0.146,2.162l-1.271,0.504h-1.098l-0.678-0.299
		l0.09-1.389l-0.241-0.533l0.086-1.035l-0.294-0.887l0.144-0.59l-0.236-0.738l-0.208-3.758l-0.299-1.123L24.78,78.811l-0.208-2.156
		l-0.241-0.357l0.088-1.184l-0.239-0.529l0.146-0.209l-3.907-38.399L18.141,11.125"/>
	<linearGradient id="SVGID_9_" gradientUnits="userSpaceOnUse" x1="22.5996" y1="39.6494" x2="104.1242" y2="33.9487">
		<stop  offset="0" style="stop-color:#E3E3E3"/>
		<stop  offset="0.0879" style="stop-color:#DEDEDE"/>
		<stop  offset="0.1947" style="stop-color:#CFCFCF"/>
		<stop  offset="0.3115" style="stop-color:#B6B6B6"/>
		<stop  offset="0.4289" style="stop-color:#969696"/>
		<stop  offset="0.472" style="stop-color:#9E9E9E"/>
		<stop  offset="0.5399" style="stop-color:#B5B5B5"/>
		<stop  offset="0.6237" style="stop-color:#D9D9D9"/>
		<stop  offset="0.6443" style="stop-color:#E3E3E3"/>
		<stop  offset="0.7156" style="stop-color:#D9D9D9"/>
		<stop  offset="0.8376" style="stop-color:#BEBEBE"/>
		<stop  offset="0.9946" style="stop-color:#929292"/>
		<stop  offset="1" style="stop-color:#909090"/>
	</linearGradient>
	<path fill="url(#SVGID_9_)" enable-background="new    " d="M102.745,14.384l-0.002-0.007l0.002-0.144l-0.055-0.149l-16.123-0.208
		l-0.002,0.008h-0.002l0.002-0.009l16.121,0.208l-16.065-0.352l-0.016,0.038l0.016-0.04l-0.144-0.147l-0.001,0.001l-14.409-0.677
		l-0.088-0.005l-0.021,0.037h-0.002l0.022-0.039l-12.482-1.477l-0.234,0.147l0,0v-0.001l-10.65-1.922h-0.058v0.002l-7.631-0.887
		l-3.907-0.208l-0.064,0.031l-0.584-0.031l-0.097,0.047l-3.054-0.056l-0.175,0.009l-0.474-0.009l-5.97,0.296l-5.122,0.651
		l-0.887,1.271l0.012,0.127l-0.012,0.018l1.034,10.799l0.012-0.002v-0.001l1.035,11.446h0.009l0.001,0.012h-0.014l1.114,11.18h0.001
		l0.888,10.847h0.208l0.433-0.103l0.008,0.103h0.208l1.482-0.354l5.176-0.591l3.518-0.078l3.763,0.226v-0.039l0.015,0.001v0.19
		l3.314,0.357l7.778,1.714l10.051,3.016l0.043-0.044l0.023,0.039l2.81,0.737l9.026,1.688h0.084l-0.002-0.084l0.409,0.055
		l0.159,0.029h0.066l12.822,1.691l-0.002-0.086l0.649,0.086l-0.001-0.064l6.223,0.555l8.574,0.383v-0.029l0.649,0.029l0.09-11.921
		h-0.001v-0.008l0.01,0.001v-0.056l0.057-0.238l0.147-11.984l0.089-0.146h-0.089v-0.005l0.089-0.146h-0.16l0.207-12.567
		l-0.002-0.001l0.002-0.15l-0.113-0.046l0.056-0.096L102.745,14.384z M60.688,59.477l-0.01,0.01v-0.034l0.01,0.003V59.477z
		 M63.864,12.085l7.456,0.834l-0.001,0.001L63.864,12.085z M86.269,13.731l-1.485-0.086l1.487,0.086l0.123-0.087l-0.121,0.087
		l0.006,0.149h-0.005L86.269,13.731z"/>
	<path fill="#999999" d="M45.093,113.25c-14.359,0-25.999-11.639-25.999-25.993c0-14.356,11.64-25.995,25.999-25.995
		c14.359,0,26.001,11.639,26.001,25.995C71.093,101.611,59.452,113.25,45.093,113.25L45.093,113.25z M45.204,68.061
		c-10.412,0-18.853,8.439-18.853,18.849s8.441,18.85,18.853,18.85c10.411,0,18.853-8.438,18.853-18.85
		C64.055,76.5,55.614,68.061,45.204,68.061L45.204,68.061z M44.611,69.277h4.866v21.888h-4.866V69.277L44.611,69.277z
		 M36.071,86.294h8.513v4.862h-8.513V86.294L36.071,86.294z"/>
</g>
</svg>
