<?xml version="1.0" encoding="utf-8"?>
<!-- Generator: Adobe Illustrator 19.2.1, SVG Export Plug-In . SVG Version: 6.00 Build 0)  -->
<svg version="1.1" id="Слой_1" xmlns="http://www.w3.org/2000/svg" xmlns:xlink="http://www.w3.org/1999/xlink" x="0px" y="0px"
	 viewBox="0 0 120 120" enable-background="new 0 0 120 120" xml:space="preserve">
<g id="Layer_4" display="none">
	<circle display="inline" opacity="0.5" fill="#FD030B" enable-background="new    " cx="60" cy="60" r="60"/>
	<rect x="6.5" y="6.5" display="inline" opacity="0.5" fill="#FD030B" enable-background="new    " width="107" height="107"/>
</g>
<g id="normal">
	
		<radialGradient id="SVGID_1_" cx="60.0015" cy="59.9997" r="50.6138" gradientTransform="matrix(1 0 0 -8 0 539.9978)" gradientUnits="userSpaceOnUse">
		<stop  offset="0" style="stop-color:#F2F2F2"/>
		<stop  offset="0.2033" style="stop-color:#EFEFEF"/>
		<stop  offset="0.3945" style="stop-color:#E3E3E3"/>
		<stop  offset="0.5809" style="stop-color:#D0D0D0"/>
		<stop  offset="0.7644" style="stop-color:#B5B5B5"/>
		<stop  offset="0.9441" style="stop-color:#939393"/>
		<stop  offset="1" style="stop-color:#878787"/>
	</radialGradient>
	<path fill="url(#SVGID_1_)" d="M102.797,101.388v6.399c0,5.688-3.192,5.706-7.131,5.706c-3.941,0-7.133,0.457-7.133-5.706v-6.182
		H31.468v6.182c0,5.688-3.192,5.706-7.133,5.706c-3.939,0-7.131,0.457-7.131-5.706v-6.399c-3.888-1.077-4.755-6.184-4.755-10.795
		v-7.758c0-4.911,0.981-10.393,5.551-10.957L28.3,51.55c0-5.183,7.428-9.386,12.68-9.386h38.043c5.252,0,12.68,4.202,12.68,9.386
		l10.3,20.328c4.569,0.564,5.551,6.046,5.551,10.957v7.758C107.552,95.204,106.685,100.31,102.797,101.388L102.797,101.388z
		 M21.957,86.15c0,4.597,3.726,8.323,8.323,8.323c4.595,0,8.321-3.726,8.321-8.323c0-4.595-3.726-8.321-8.321-8.321
		C25.683,77.829,21.957,81.555,21.957,86.15L21.957,86.15z M79.021,48.421H40.979c-8.457,0-13.472,21.612-13.472,21.612h64.988
		C92.494,70.034,87.479,48.421,79.021,48.421L79.021,48.421z M87.342,77.829c-4.595,0-8.321,3.726-8.321,8.321
		c0,4.597,3.726,8.323,8.321,8.323c4.597,0,8.323-3.726,8.323-8.323C95.665,81.555,91.939,77.829,87.342,77.829L87.342,77.829z
		 M82.43,37.408H37.57c-6.194,0-14.954,5.023-14.954,11.218l-5.413,10.827v-45.82c0-3.468,3.441-7.133,7.131-7.133h71.33
		c3.319,0,7.131,3.739,7.131,7.133v45.82l-5.413-10.827C97.384,42.431,88.624,37.408,82.43,37.408L82.43,37.408z M71.888,18.406
		h-7.152v-7.151h-9.472v7.151h-7.152v9.474h7.152v7.151h9.472V27.88h7.152V18.406L71.888,18.406z"/>
</g>
<g id="active">
	
		<radialGradient id="SVGID_2_" cx="60.0015" cy="60.0003" r="50.6138" gradientTransform="matrix(1 0 0 8 0 -420.0022)" gradientUnits="userSpaceOnUse">
		<stop  offset="0" style="stop-color:#F0F0F0"/>
		<stop  offset="0.1398" style="stop-color:#EBEBEB"/>
		<stop  offset="0.3049" style="stop-color:#DCDCDC"/>
		<stop  offset="0.4828" style="stop-color:#C5C5C5"/>
		<stop  offset="0.6697" style="stop-color:#A3A3A3"/>
		<stop  offset="0.8617" style="stop-color:#797979"/>
		<stop  offset="1" style="stop-color:#565656"/>
	</radialGradient>
	<path fill="url(#SVGID_2_)" d="M102.797,101.388v6.399c0,5.688-3.192,5.706-7.131,5.706c-3.941,0-7.133,0.457-7.133-5.706v-6.182
		H31.468v6.182c0,5.688-3.192,5.706-7.133,5.706c-3.939,0-7.131,0.457-7.131-5.706v-6.399c-3.888-1.077-4.755-6.184-4.755-10.795
		v-7.758c0-4.911,0.981-10.393,5.551-10.957L28.3,51.55c0-5.183,7.428-9.386,12.68-9.386h38.043c5.252,0,12.68,4.202,12.68,9.386
		l10.3,20.328c4.569,0.564,5.551,6.046,5.551,10.957v7.758C107.552,95.204,106.685,100.31,102.797,101.388L102.797,101.388z
		 M21.957,86.15c0,4.597,3.726,8.323,8.323,8.323c4.595,0,8.321-3.726,8.321-8.323c0-4.595-3.726-8.321-8.321-8.321
		C25.683,77.829,21.957,81.555,21.957,86.15L21.957,86.15z M79.021,48.421H40.979c-8.457,0-13.472,21.612-13.472,21.612h64.988
		C92.494,70.034,87.479,48.421,79.021,48.421L79.021,48.421z M87.342,77.829c-4.595,0-8.321,3.726-8.321,8.321
		c0,4.597,3.726,8.323,8.321,8.323c4.597,0,8.323-3.726,8.323-8.323C95.665,81.555,91.939,77.829,87.342,77.829L87.342,77.829z
		 M82.43,37.408H37.57c-6.194,0-14.954,5.023-14.954,11.218l-5.413,10.827v-45.82c0-3.468,3.441-7.133,7.131-7.133h71.33
		c3.319,0,7.131,3.739,7.131,7.133v45.82l-5.413-10.827C97.384,42.431,88.624,37.408,82.43,37.408L82.43,37.408z M71.888,18.406
		h-7.152v-7.151h-9.472v7.151h-7.152v9.474h7.152v7.151h9.472V27.88h7.152V18.406L71.888,18.406z"/>
</g>
<g id="disabled" opacity="0.2">
	<path fill="#FC0511" d="M102.797,101.388v6.399c0,5.688-3.192,5.706-7.131,5.706c-3.941,0-7.133,0.457-7.133-5.706v-6.182H31.468
		v6.182c0,5.688-3.192,5.706-7.133,5.706c-3.939,0-7.131,0.457-7.131-5.706v-6.399c-3.888-1.077-4.755-6.184-4.755-10.795v-7.758
		c0-4.911,0.981-10.393,5.551-10.957L28.3,51.55c0-5.183,7.428-9.386,12.68-9.386h38.043c5.252,0,12.68,4.202,12.68,9.386
		l10.3,20.328c4.569,0.564,5.551,6.046,5.551,10.957v7.758C107.552,95.204,106.685,100.31,102.797,101.388L102.797,101.388z
		 M21.957,86.15c0,4.597,3.726,8.323,8.323,8.323c4.595,0,8.321-3.726,8.321-8.323c0-4.595-3.726-8.321-8.321-8.321
		C25.683,77.829,21.957,81.555,21.957,86.15L21.957,86.15z M79.021,48.421H40.979c-8.457,0-13.472,21.612-13.472,21.612h64.988
		C92.494,70.034,87.479,48.421,79.021,48.421L79.021,48.421z M87.342,77.829c-4.595,0-8.321,3.726-8.321,8.321
		c0,4.597,3.726,8.323,8.321,8.323c4.597,0,8.323-3.726,8.323-8.323C95.665,81.555,91.939,77.829,87.342,77.829L87.342,77.829z
		 M82.43,37.408H37.57c-6.194,0-14.954,5.023-14.954,11.218l-5.413,10.827v-45.82c0-3.468,3.441-7.133,7.131-7.133h71.33
		c3.319,0,7.131,3.739,7.131,7.133v45.82l-5.413-10.827C97.384,42.431,88.624,37.408,82.43,37.408L82.43,37.408z M71.888,18.406
		h-7.152v-7.151h-9.472v7.151h-7.152v9.474h7.152v7.151h9.472V27.88h7.152V18.406L71.888,18.406z"/>
</g>
</svg>
