<?xml version="1.0" encoding="utf-8"?>
<!-- Generator: Adobe Illustrator 16.0.1, SVG Export Plug-In . SVG Version: 6.00 Build 0)  -->
<!DOCTYPE svg PUBLIC "-//W3C//DTD SVG 1.1//EN" "http://www.w3.org/Graphics/SVG/1.1/DTD/svg11.dtd">
<svg version="1.1" id="Слой_1" xmlns="http://www.w3.org/2000/svg" xmlns:xlink="http://www.w3.org/1999/xlink" x="0px" y="0px"
	 width="120px" height="120px" viewBox="0 0 120 120" enable-background="new 0 0 120 120" xml:space="preserve">
<g id="Layer_4" display="none">
	<circle display="inline" opacity="0.5" fill="#DF1F26" enable-background="new    " cx="60" cy="60" r="60"/>
	<rect x="6.5" y="6.5" display="inline" opacity="0.5" fill="#3B4FA1" enable-background="new    " width="107" height="107"/>
</g>
<g id="normal" opacity="0.5">
	<g id="car_2_">
		<g>
			<path fill="#FFFFFF" d="M47.526,90.703H22.473l-2.222,5.014l-0.385,0.869h4.831c-0.006-0.039-0.012-0.078-0.012-0.119v-0.75
				v-1.426c0-0.42,0.366-0.762,0.82-0.762c0.453,0,0.82,0.342,0.82,0.762v1.426v0.75c0,0.041-0.006,0.08-0.013,0.119h7.88
				c-0.007-0.039-0.014-0.078-0.014-0.119v-0.75v-1.426c0-0.42,0.369-0.762,0.822-0.762c0.451,0,0.82,0.342,0.82,0.762v1.426v0.75
				c0,0.041-0.006,0.08-0.014,0.119h7.881c-0.007-0.039-0.015-0.078-0.015-0.119v-0.75v-1.426c0-0.42,0.369-0.762,0.821-0.762
				c0.451,0,0.82,0.342,0.82,0.762v1.426v0.75c0,0.041-0.007,0.08-0.014,0.119h4.831l-0.387-0.869L47.526,90.703z"/>
			<path fill="#FFFFFF" d="M68.896,71.137c-0.164-0.438-0.744-0.783-1.229-0.783c-2.093,0-4.188,0-6.279,0
				c-0.484,0-1.063,0.346-1.229,0.783c-0.223,0.607-0.368,1.123-0.433,1.611c-2.766-4.941-5.825-10.439-5.825-10.439
				c-0.301-0.781-1.029-1.354-1.907-1.5C46.339,59.856,40.62,59.375,35,59.375s-11.341,0.481-17.001,1.434
				c-0.879,0.146-1.606,0.719-1.907,1.5c0,0-3.06,5.498-5.823,10.438c-0.065-0.486-0.209-1.004-0.435-1.611
				c-0.163-0.438-0.741-0.782-1.227-0.782c-2.092,0-4.187,0-6.28,0c-0.483,0-1.062,0.345-1.227,0.785
				c-0.636,1.719-0.636,2.704,0,4.424c0.165,0.44,0.744,0.785,1.227,0.785c2.089,0,4.179,0,6.271,0c0,0.071,0.005,0.144,0.014,0.217
				c-1.321,0.371-2.283,1.511-2.283,2.86V91.98v0.744v6.463c0,0.793,0.692,1.438,1.547,1.438h7.792c0.855,0,1.547-0.645,1.547-1.438
				v-3.473h1.261l2.689-6.064c0.126-0.285,0.425-0.475,0.759-0.475h26.151c0.332,0,0.633,0.188,0.758,0.475l2.69,6.064h1.261v3.473
				c0,0.793,0.693,1.438,1.548,1.438h7.792c0.854,0,1.547-0.645,1.547-1.438v-6.463V91.98V79.426c0-1.35-0.964-2.488-2.282-2.861
				c0.01-0.07,0.016-0.145,0.016-0.217c2.092,0,4.182,0,6.271,0c0.482,0,1.063-0.344,1.229-0.785
				C69.534,73.842,69.534,72.857,68.896,71.137z M19.547,64.004c0,0,2.361-0.557,9.202-0.786c1.024-0.034,2.148-0.062,3.379-0.077
				c0.899-0.013,1.854-0.02,2.87-0.02c11.712,0,15.451,0.883,15.451,0.883l5.493,12.344H14.056L19.547,64.004z M12.723,85.363
				v-4.057h9.46l2.81,4.057H12.723z M57.276,85.363H45.005l2.812-4.057h9.458L57.276,85.363L57.276,85.363z"/>
		</g>
	</g>
	<g id="car1_2_">
		<g>
			<path fill="#FFFFFF" d="M70.299,76.586h4.832l-0.387-0.869l-2.219-5.014H58.522c0.033,0.086,0.067,0.173,0.102,0.259
				c0.555,0.66,1.197,1.621,1.664,2.621c0.31,0.108,0.532,0.383,0.532,0.708v0.796c0.125,0.546,0.15,1.06,0.029,1.499h7.838
				c-0.008-0.039-0.016-0.078-0.016-0.119v-2.176c0-0.42,0.369-0.762,0.821-0.762c0.45,0,0.819,0.342,0.819,0.762v2.176
				C70.313,76.508,70.307,76.547,70.299,76.586z"/>
			<path fill="#FFFFFF" d="M93.896,51.137c-0.164-0.439-0.744-0.783-1.229-0.783h-6.279c-0.484,0-1.063,0.344-1.229,0.783
				c-0.225,0.607-0.368,1.123-0.434,1.611C81.96,47.807,78.9,42.309,78.9,42.309c-0.301-0.781-1.027-1.354-1.904-1.501
				C71.339,39.855,65.619,39.375,60,39.375c-5.62,0-11.341,0.481-17.001,1.433c-0.879,0.146-1.606,0.72-1.907,1.501
				c0,0-3.06,5.498-5.823,10.439c-0.065-0.486-0.209-1.004-0.435-1.611c-0.163-0.439-0.741-0.783-1.227-0.783h-6.28
				c-0.483,0-1.062,0.344-1.227,0.785c-0.636,1.719-0.636,2.705,0,4.424c0.165,0.441,0.744,0.785,1.227,0.785h6.271
				c0,0.072,0.005,0.143,0.014,0.217c-1.187,0.333-2.407,1.524-2.269,2.852c0.018,0.174,6.12-0.073,6.615-0.037
				c0.648,0.046,1.369-0.041,1.992,0.167c3.193,0.134,6.427,0.511,9.591,0.875c0.759,0.088,1.499,0.143,2.192,0.314
				c0.485,0.037,0.954,0.166,1.357,0.474c0.183,0.14,0.337,0.306,0.46,0.483c0.017,0.016,0.035,0.027,0.051,0.043
				c0.318,0.31,0.444,0.658,0.445,0.996c0,0.115,0.604,0.949,0.699,1.103c0.627,1.015,1.339,2.166,1.803,3.294
				c0.446,0.674,0.885,1.35,1.269,2.049h15.258c0.332,0,0.633,0.188,0.758,0.475l2.69,6.064h1.261v3.473
				c0,0.793,0.692,1.438,1.549,1.438h7.792c0.854,0,1.547-0.645,1.547-1.438V59.426c0-1.35-0.964-2.488-2.281-2.861
				c0.008-0.072,0.014-0.145,0.014-0.217h6.271c0.482,0,1.063-0.344,1.227-0.785C94.534,53.842,94.534,52.857,93.896,51.137z
				 M39.056,56.348l5.49-12.344c0,0,3.742-0.883,15.452-0.883c11.713,0,15.451,0.883,15.451,0.883l5.494,12.344H39.056z
				 M82.275,65.363H70.005l2.812-4.057h9.459V65.363L82.275,65.363z"/>
		</g>
	</g>
	<g id="car2_1_">
		<g>
			<path fill="#FFFFFF" d="M95.311,56.467c0,0.041-0.006,0.08-0.014,0.119h4.832l-0.387-0.869l-2.217-5.014H83.73
				c0.222,0.471,0.443,0.929,0.67,1.357c0.267,0.501,0.438,0.997,0.533,1.481c0.021-0.002,0.041-0.012,0.063-0.012
				c0.451,0,0.819,0.342,0.819,0.762v2.176c0,0.041-0.006,0.08-0.014,0.119h7.881c-0.008-0.039-0.016-0.078-0.016-0.119v-2.176
				c0-0.42,0.369-0.762,0.82-0.762s0.82,0.342,0.82,0.762v2.176H95.311z"/>
			<path fill="#FFFFFF" d="M118.896,31.137c-0.164-0.439-0.744-0.783-1.229-0.783h-6.279c-0.484,0-1.063,0.344-1.229,0.783
				c-0.225,0.607-0.368,1.123-0.434,1.611c-2.767-4.941-5.826-10.439-5.826-10.439c-0.301-0.781-1.027-1.354-1.904-1.501
				C96.339,19.855,90.619,19.375,85,19.375c-5.62,0-11.341,0.481-17.001,1.433c-0.879,0.146-1.604,0.72-1.906,1.501
				c0,0-3.06,5.498-5.823,10.439c-0.065-0.486-0.209-1.004-0.435-1.611c-0.162-0.439-0.741-0.783-1.227-0.783h-6.281
				c-0.483,0-1.062,0.344-1.227,0.785c-0.636,1.719-0.636,2.705,0,4.424c0.165,0.441,0.744,0.785,1.227,0.785h6.271
				c0,0.072,0.005,0.143,0.014,0.217c-1.313,0.369-2.271,1.5-2.281,2.841c2.788-0.038,5.565-0.104,8.34,0.011
				c0.954,0.04,1.865,0.22,2.829,0.25c1.645,0.051,3.173,0.255,4.797,0.46c0.488,0.062,0.982,0.091,1.469,0.147
				c0.373,0.044,0.961,0.254,1.284,0.235c0.025-0.001,0.05-0.01,0.075-0.01h0.208c0.222,0,0.401,0.058,0.569,0.133
				c0.092,0.016,0.184,0.04,0.275,0.061c0.549-0.039,1.067,0.105,1.557,0.346c0.298,0.147,0.647,0.67,0.928,0.71
				c0.041,0.006,0.051-0.011,0.051-0.035c0.186,0.155,0.299,0.275,0.24,0.299c-0.006,0.002-0.11-0.004-0.113-0.042
				c0.03,0.45,0.381,0.845,0.577,1.234c0.31,0.613,0.647,1.149,0.946,1.754c0.436,0.884,0.953,1.751,1.484,2.581
				c0.321,0.504,0.533,1.45,1.182,1.604c0.063,0.015,0.129,0.025,0.201,0.032c0.504,0.043,1.028,0,1.533,0h13.313
				c0.332,0,0.633,0.188,0.758,0.473l2.691,6.066h1.26v3.471c0,0.793,0.693,1.438,1.549,1.438h7.792
				c0.854,0,1.547-0.645,1.547-1.438v-19.76c0-1.35-0.964-2.488-2.282-2.861c0.01-0.072,0.017-0.145,0.017-0.217h6.271
				c0.481,0,1.063-0.344,1.227-0.785C119.534,33.842,119.534,32.857,118.896,31.137z M64.057,36.348l5.49-12.344
				c0,0,3.742-0.883,15.451-0.883c11.713,0,15.451,0.883,15.451,0.883l5.494,12.344H64.057z M107.275,45.363H95.005l2.812-4.057
				h9.459V45.363L107.275,45.363z"/>
		</g>
	</g>
</g>
<g id="active" opacity="0.5">
	<g id="car">
		<g>
			<path fill="#FFFFFF" d="M47.526,90.703H22.473l-2.222,5.014l-0.385,0.869h4.831c-0.006-0.039-0.012-0.078-0.012-0.119v-0.75
				v-1.426c0-0.42,0.366-0.762,0.82-0.762c0.453,0,0.82,0.342,0.82,0.762v1.426v0.75c0,0.041-0.006,0.08-0.013,0.119h7.88
				c-0.007-0.039-0.014-0.078-0.014-0.119v-0.75v-1.426c0-0.42,0.369-0.762,0.822-0.762c0.451,0,0.82,0.342,0.82,0.762v1.426v0.75
				c0,0.041-0.006,0.08-0.014,0.119h7.881c-0.007-0.039-0.015-0.078-0.015-0.119v-0.75v-1.426c0-0.42,0.369-0.762,0.821-0.762
				c0.451,0,0.82,0.342,0.82,0.762v1.426v0.75c0,0.041-0.007,0.08-0.014,0.119h4.831l-0.387-0.869L47.526,90.703z"/>
			<path fill="#FFFFFF" d="M68.896,71.137c-0.164-0.438-0.744-0.783-1.229-0.783c-2.093,0-4.188,0-6.279,0
				c-0.484,0-1.063,0.346-1.229,0.783c-0.223,0.607-0.368,1.123-0.433,1.611c-2.766-4.941-5.825-10.439-5.825-10.439
				c-0.301-0.781-1.029-1.354-1.907-1.5C46.339,59.856,40.62,59.375,35,59.375s-11.341,0.481-17.001,1.434
				c-0.879,0.146-1.606,0.719-1.907,1.5c0,0-3.06,5.498-5.823,10.438c-0.065-0.486-0.209-1.004-0.435-1.611
				c-0.163-0.438-0.741-0.782-1.227-0.782c-2.092,0-4.187,0-6.28,0c-0.483,0-1.062,0.345-1.227,0.785
				c-0.636,1.719-0.636,2.704,0,4.424c0.165,0.44,0.744,0.785,1.227,0.785c2.089,0,4.179,0,6.271,0c0,0.071,0.005,0.144,0.014,0.217
				c-1.321,0.371-2.283,1.511-2.283,2.86V91.98v0.744v6.463c0,0.793,0.692,1.438,1.547,1.438h7.792c0.855,0,1.547-0.645,1.547-1.438
				v-3.473h1.261l2.689-6.064c0.126-0.285,0.425-0.475,0.759-0.475h26.151c0.332,0,0.633,0.188,0.758,0.475l2.69,6.064h1.261v3.473
				c0,0.793,0.693,1.438,1.548,1.438h7.792c0.854,0,1.547-0.645,1.547-1.438v-6.463V91.98V79.426c0-1.35-0.964-2.488-2.282-2.861
				c0.01-0.07,0.016-0.145,0.016-0.217c2.092,0,4.182,0,6.271,0c0.482,0,1.063-0.344,1.229-0.785
				C69.534,73.842,69.534,72.857,68.896,71.137z M19.547,64.004c0,0,2.361-0.557,9.202-0.786c1.024-0.034,2.148-0.062,3.379-0.077
				c0.899-0.013,1.854-0.02,2.87-0.02c11.712,0,15.451,0.883,15.451,0.883l5.493,12.344H14.056L19.547,64.004z M12.723,85.363
				v-4.057h9.46l2.81,4.057H12.723z M57.276,85.363H45.005l2.812-4.057h9.458L57.276,85.363L57.276,85.363z"/>
		</g>
	</g>
	<g id="car1">
		<g>
			<path fill="#FFFFFF" d="M70.299,76.586h4.832l-0.387-0.869l-2.219-5.014H58.522c0.033,0.086,0.067,0.173,0.102,0.259
				c0.555,0.66,1.197,1.621,1.664,2.621c0.31,0.108,0.532,0.383,0.532,0.708v0.796c0.125,0.546,0.15,1.06,0.029,1.499h7.838
				c-0.008-0.039-0.016-0.078-0.016-0.119v-2.176c0-0.42,0.369-0.762,0.821-0.762c0.45,0,0.819,0.342,0.819,0.762v2.176
				C70.313,76.508,70.307,76.547,70.299,76.586z"/>
			<path fill="#FFFFFF" d="M93.896,51.137c-0.164-0.439-0.744-0.783-1.229-0.783h-6.279c-0.484,0-1.063,0.344-1.229,0.783
				c-0.225,0.607-0.368,1.123-0.434,1.611C81.96,47.807,78.9,42.309,78.9,42.309c-0.301-0.781-1.027-1.354-1.904-1.501
				C71.339,39.855,65.619,39.375,60,39.375c-5.62,0-11.341,0.481-17.001,1.433c-0.879,0.146-1.606,0.72-1.907,1.501
				c0,0-3.06,5.498-5.823,10.439c-0.065-0.486-0.209-1.004-0.435-1.611c-0.163-0.439-0.741-0.783-1.227-0.783h-6.28
				c-0.483,0-1.062,0.344-1.227,0.785c-0.636,1.719-0.636,2.705,0,4.424c0.165,0.441,0.744,0.785,1.227,0.785h6.271
				c0,0.072,0.005,0.143,0.014,0.217c-1.187,0.333-2.407,1.524-2.269,2.852c0.018,0.174,6.12-0.073,6.615-0.037
				c0.648,0.046,1.369-0.041,1.992,0.167c3.193,0.134,6.427,0.511,9.591,0.875c0.759,0.088,1.499,0.143,2.192,0.314
				c0.485,0.037,0.954,0.166,1.357,0.474c0.183,0.14,0.337,0.306,0.46,0.483c0.017,0.016,0.035,0.027,0.051,0.043
				c0.318,0.31,0.444,0.658,0.445,0.996c0,0.115,0.604,0.949,0.699,1.103c0.627,1.015,1.339,2.166,1.803,3.294
				c0.446,0.674,0.885,1.35,1.269,2.049h15.258c0.332,0,0.633,0.188,0.758,0.475l2.69,6.064h1.261v3.473
				c0,0.793,0.692,1.438,1.549,1.438h7.792c0.854,0,1.547-0.645,1.547-1.438V59.426c0-1.35-0.964-2.488-2.281-2.861
				c0.008-0.072,0.014-0.145,0.014-0.217h6.271c0.482,0,1.063-0.344,1.227-0.785C94.534,53.842,94.534,52.857,93.896,51.137z
				 M39.056,56.348l5.49-12.344c0,0,3.742-0.883,15.452-0.883c11.713,0,15.451,0.883,15.451,0.883l5.494,12.344H39.056z
				 M82.275,65.363H70.005l2.812-4.057h9.459V65.363L82.275,65.363z"/>
		</g>
	</g>
	<g id="car2">
		<g>
			<path fill="#FFFFFF" d="M95.311,56.467c0,0.041-0.006,0.08-0.014,0.119h4.832l-0.387-0.869l-2.217-5.014H83.73
				c0.222,0.471,0.443,0.929,0.67,1.357c0.267,0.501,0.438,0.997,0.533,1.481c0.021-0.002,0.041-0.012,0.063-0.012
				c0.451,0,0.819,0.342,0.819,0.762v2.176c0,0.041-0.006,0.08-0.014,0.119h7.881c-0.008-0.039-0.016-0.078-0.016-0.119v-2.176
				c0-0.42,0.369-0.762,0.82-0.762s0.82,0.342,0.82,0.762v2.176H95.311z"/>
			<path fill="#FFFFFF" d="M118.896,31.137c-0.164-0.439-0.744-0.783-1.229-0.783h-6.279c-0.484,0-1.063,0.344-1.229,0.783
				c-0.225,0.607-0.368,1.123-0.434,1.611c-2.767-4.941-5.826-10.439-5.826-10.439c-0.301-0.781-1.027-1.354-1.904-1.501
				C96.339,19.855,90.619,19.375,85,19.375c-5.62,0-11.341,0.481-17.001,1.433c-0.879,0.146-1.604,0.72-1.906,1.501
				c0,0-3.06,5.498-5.823,10.439c-0.065-0.486-0.209-1.004-0.435-1.611c-0.162-0.439-0.741-0.783-1.227-0.783h-6.281
				c-0.483,0-1.062,0.344-1.227,0.785c-0.636,1.719-0.636,2.705,0,4.424c0.165,0.441,0.744,0.785,1.227,0.785h6.271
				c0,0.072,0.005,0.143,0.014,0.217c-1.313,0.369-2.271,1.5-2.281,2.841c2.788-0.038,5.565-0.104,8.34,0.011
				c0.954,0.04,1.865,0.22,2.829,0.25c1.645,0.051,3.173,0.255,4.797,0.46c0.488,0.062,0.982,0.091,1.469,0.147
				c0.373,0.044,0.961,0.254,1.284,0.235c0.025-0.001,0.05-0.01,0.075-0.01h0.208c0.222,0,0.401,0.058,0.569,0.133
				c0.092,0.016,0.184,0.04,0.275,0.061c0.549-0.039,1.067,0.105,1.557,0.346c0.298,0.147,0.647,0.67,0.928,0.71
				c0.041,0.006,0.051-0.011,0.051-0.035c0.186,0.155,0.299,0.275,0.24,0.299c-0.006,0.002-0.11-0.004-0.113-0.042
				c0.03,0.45,0.381,0.845,0.577,1.234c0.31,0.613,0.647,1.149,0.946,1.754c0.436,0.884,0.953,1.751,1.484,2.581
				c0.321,0.504,0.533,1.45,1.182,1.604c0.063,0.015,0.129,0.025,0.201,0.032c0.504,0.043,1.028,0,1.533,0h13.313
				c0.332,0,0.633,0.188,0.758,0.473l2.691,6.066h1.26v3.471c0,0.793,0.693,1.438,1.549,1.438h7.792
				c0.854,0,1.547-0.645,1.547-1.438v-19.76c0-1.35-0.964-2.488-2.282-2.861c0.01-0.072,0.017-0.145,0.017-0.217h6.271
				c0.481,0,1.063-0.344,1.227-0.785C119.534,33.842,119.534,32.857,118.896,31.137z M64.057,36.348l5.49-12.344
				c0,0,3.742-0.883,15.451-0.883c11.713,0,15.451,0.883,15.451,0.883l5.494,12.344H64.057z M107.275,45.363H95.005l2.812-4.057
				h9.459V45.363L107.275,45.363z"/>
		</g>
	</g>
</g>
<g id="disabled" opacity="0.7">
	<g id="car_1_">
		<g>
			<path fill="#FFFFFF" d="M47.526,90.703H22.473l-2.222,5.014l-0.385,0.869h4.831c-0.006-0.039-0.012-0.078-0.012-0.119v-0.75
				v-1.426c0-0.42,0.366-0.762,0.82-0.762c0.453,0,0.82,0.342,0.82,0.762v1.426v0.75c0,0.041-0.006,0.08-0.013,0.119h7.88
				c-0.007-0.039-0.014-0.078-0.014-0.119v-0.75v-1.426c0-0.42,0.369-0.762,0.822-0.762c0.451,0,0.82,0.342,0.82,0.762v1.426v0.75
				c0,0.041-0.006,0.08-0.014,0.119h7.881c-0.007-0.039-0.015-0.078-0.015-0.119v-0.75v-1.426c0-0.42,0.369-0.762,0.821-0.762
				c0.451,0,0.82,0.342,0.82,0.762v1.426v0.75c0,0.041-0.007,0.08-0.014,0.119h4.831l-0.387-0.869L47.526,90.703z"/>
			<path fill="#FFFFFF" d="M68.896,71.137c-0.164-0.438-0.744-0.783-1.229-0.783c-2.093,0-4.188,0-6.279,0
				c-0.484,0-1.063,0.346-1.229,0.783c-0.223,0.607-0.368,1.123-0.433,1.611c-2.766-4.941-5.825-10.439-5.825-10.439
				c-0.301-0.781-1.029-1.354-1.907-1.5C46.339,59.856,40.62,59.375,35,59.375s-11.341,0.481-17.001,1.434
				c-0.879,0.146-1.606,0.719-1.907,1.5c0,0-3.06,5.498-5.823,10.438c-0.065-0.486-0.209-1.004-0.435-1.611
				c-0.163-0.438-0.741-0.782-1.227-0.782c-2.092,0-4.187,0-6.28,0c-0.483,0-1.062,0.345-1.227,0.785
				c-0.636,1.719-0.636,2.704,0,4.424c0.165,0.44,0.744,0.785,1.227,0.785c2.089,0,4.179,0,6.271,0c0,0.071,0.005,0.144,0.014,0.217
				c-1.321,0.371-2.283,1.511-2.283,2.86V91.98v0.744v6.463c0,0.793,0.692,1.438,1.547,1.438h7.792c0.855,0,1.547-0.645,1.547-1.438
				v-3.473h1.261l2.689-6.064c0.126-0.285,0.425-0.475,0.759-0.475h26.151c0.332,0,0.633,0.188,0.758,0.475l2.69,6.064h1.261v3.473
				c0,0.793,0.693,1.438,1.548,1.438h7.792c0.854,0,1.547-0.645,1.547-1.438v-6.463V91.98V79.426c0-1.35-0.964-2.488-2.282-2.861
				c0.01-0.07,0.016-0.145,0.016-0.217c2.092,0,4.182,0,6.271,0c0.482,0,1.063-0.344,1.229-0.785
				C69.534,73.842,69.534,72.857,68.896,71.137z M19.547,64.004c0,0,2.361-0.557,9.202-0.786c1.024-0.034,2.148-0.062,3.379-0.077
				c0.899-0.013,1.854-0.02,2.87-0.02c11.712,0,15.451,0.883,15.451,0.883l5.493,12.344H14.056L19.547,64.004z M12.723,85.363
				v-4.057h9.46l2.81,4.057H12.723z M57.276,85.363H45.005l2.812-4.057h9.458L57.276,85.363L57.276,85.363z"/>
		</g>
	</g>
	<g id="car1_1_">
		<g>
			<path fill="#FFFFFF" d="M70.299,76.586h4.832l-0.387-0.869l-2.219-5.014H58.522c0.033,0.086,0.067,0.173,0.102,0.259
				c0.555,0.66,1.197,1.621,1.664,2.621c0.31,0.108,0.532,0.383,0.532,0.708v0.796c0.125,0.546,0.15,1.06,0.029,1.499h7.838
				c-0.008-0.039-0.016-0.078-0.016-0.119v-2.176c0-0.42,0.369-0.762,0.821-0.762c0.45,0,0.819,0.342,0.819,0.762v2.176
				C70.313,76.508,70.307,76.547,70.299,76.586z"/>
			<path fill="#FFFFFF" d="M93.896,51.137c-0.164-0.439-0.744-0.783-1.229-0.783h-6.279c-0.484,0-1.063,0.344-1.229,0.783
				c-0.225,0.607-0.368,1.123-0.434,1.611C81.96,47.807,78.9,42.309,78.9,42.309c-0.301-0.781-1.027-1.354-1.904-1.501
				C71.339,39.855,65.619,39.375,60,39.375c-5.62,0-11.341,0.481-17.001,1.433c-0.879,0.146-1.606,0.72-1.907,1.501
				c0,0-3.06,5.498-5.823,10.439c-0.065-0.486-0.209-1.004-0.435-1.611c-0.163-0.439-0.741-0.783-1.227-0.783h-6.28
				c-0.483,0-1.062,0.344-1.227,0.785c-0.636,1.719-0.636,2.705,0,4.424c0.165,0.441,0.744,0.785,1.227,0.785h6.271
				c0,0.072,0.005,0.143,0.014,0.217c-1.187,0.333-2.407,1.524-2.269,2.852c0.018,0.174,6.12-0.073,6.615-0.037
				c0.648,0.046,1.369-0.041,1.992,0.167c3.193,0.134,6.427,0.511,9.591,0.875c0.759,0.088,1.499,0.143,2.192,0.314
				c0.485,0.037,0.954,0.166,1.357,0.474c0.183,0.14,0.337,0.306,0.46,0.483c0.017,0.016,0.035,0.027,0.051,0.043
				c0.318,0.31,0.444,0.658,0.445,0.996c0,0.115,0.604,0.949,0.699,1.103c0.627,1.015,1.339,2.166,1.803,3.294
				c0.446,0.674,0.885,1.35,1.269,2.049h15.258c0.332,0,0.633,0.188,0.758,0.475l2.69,6.064h1.261v3.473
				c0,0.793,0.692,1.438,1.549,1.438h7.792c0.854,0,1.547-0.645,1.547-1.438V59.426c0-1.35-0.964-2.488-2.281-2.861
				c0.008-0.072,0.014-0.145,0.014-0.217h6.271c0.482,0,1.063-0.344,1.227-0.785C94.534,53.842,94.534,52.857,93.896,51.137z
				 M39.056,56.348l5.49-12.344c0,0,3.742-0.883,15.452-0.883c11.713,0,15.451,0.883,15.451,0.883l5.494,12.344H39.056z
				 M82.275,65.363H70.005l2.812-4.057h9.459V65.363L82.275,65.363z"/>
		</g>
	</g>
	<g id="car2_2_">
		<g>
			<path fill="#FFFFFF" d="M95.311,56.467c0,0.041-0.006,0.08-0.014,0.119h4.832l-0.387-0.869l-2.217-5.014H83.73
				c0.222,0.471,0.443,0.929,0.67,1.357c0.267,0.501,0.438,0.997,0.533,1.481c0.021-0.002,0.041-0.012,0.063-0.012
				c0.451,0,0.819,0.342,0.819,0.762v2.176c0,0.041-0.006,0.08-0.014,0.119h7.881c-0.008-0.039-0.016-0.078-0.016-0.119v-2.176
				c0-0.42,0.369-0.762,0.82-0.762s0.82,0.342,0.82,0.762v2.176H95.311z"/>
			<path fill="#FFFFFF" d="M118.896,31.137c-0.164-0.439-0.744-0.783-1.229-0.783h-6.279c-0.484,0-1.063,0.344-1.229,0.783
				c-0.225,0.607-0.368,1.123-0.434,1.611c-2.767-4.941-5.826-10.439-5.826-10.439c-0.301-0.781-1.027-1.354-1.904-1.501
				C96.339,19.855,90.619,19.375,85,19.375c-5.62,0-11.341,0.481-17.001,1.433c-0.879,0.146-1.604,0.72-1.906,1.501
				c0,0-3.06,5.498-5.823,10.439c-0.065-0.486-0.209-1.004-0.435-1.611c-0.162-0.439-0.741-0.783-1.227-0.783h-6.281
				c-0.483,0-1.062,0.344-1.227,0.785c-0.636,1.719-0.636,2.705,0,4.424c0.165,0.441,0.744,0.785,1.227,0.785h6.271
				c0,0.072,0.005,0.143,0.014,0.217c-1.313,0.369-2.271,1.5-2.281,2.841c2.788-0.038,5.565-0.104,8.34,0.011
				c0.954,0.04,1.865,0.22,2.829,0.25c1.645,0.051,3.173,0.255,4.797,0.46c0.488,0.062,0.982,0.091,1.469,0.147
				c0.373,0.044,0.961,0.254,1.284,0.235c0.025-0.001,0.05-0.01,0.075-0.01h0.208c0.222,0,0.401,0.058,0.569,0.133
				c0.092,0.016,0.184,0.04,0.275,0.061c0.549-0.039,1.067,0.105,1.557,0.346c0.298,0.147,0.647,0.67,0.928,0.71
				c0.041,0.006,0.051-0.011,0.051-0.035c0.186,0.155,0.299,0.275,0.24,0.299c-0.006,0.002-0.11-0.004-0.113-0.042
				c0.03,0.45,0.381,0.845,0.577,1.234c0.31,0.613,0.647,1.149,0.946,1.754c0.436,0.884,0.953,1.751,1.484,2.581
				c0.321,0.504,0.533,1.45,1.182,1.604c0.063,0.015,0.129,0.025,0.201,0.032c0.504,0.043,1.028,0,1.533,0h13.313
				c0.332,0,0.633,0.188,0.758,0.473l2.691,6.066h1.26v3.471c0,0.793,0.693,1.438,1.549,1.438h7.792
				c0.854,0,1.547-0.645,1.547-1.438v-19.76c0-1.35-0.964-2.488-2.282-2.861c0.01-0.072,0.017-0.145,0.017-0.217h6.271
				c0.481,0,1.063-0.344,1.227-0.785C119.534,33.842,119.534,32.857,118.896,31.137z M64.057,36.348l5.49-12.344
				c0,0,3.742-0.883,15.451-0.883c11.713,0,15.451,0.883,15.451,0.883l5.494,12.344H64.057z M107.275,45.363H95.005l2.812-4.057
				h9.459V45.363L107.275,45.363z"/>
		</g>
	</g>
</g>
</svg>
