<?xml version="1.0" encoding="utf-8"?>
<!-- Generator: Adobe Illustrator 19.2.1, SVG Export Plug-In . SVG Version: 6.00 Build 0)  -->
<svg version="1.1" id="Layer_1" xmlns="http://www.w3.org/2000/svg" xmlns:xlink="http://www.w3.org/1999/xlink" x="0px" y="0px"
	 viewBox="0 0 120 120" enable-background="new 0 0 120 120" xml:space="preserve">
<g id="Layer_2" display="none">
	<circle display="inline" opacity="0.5" fill="#DF1F26" enable-background="new    " cx="60" cy="60" r="60"/>
	<rect x="6.5" y="6.5" display="inline" opacity="0.5" fill="#3B4FA1" enable-background="new    " width="107" height="107"/>
</g>
<g id="normal">
	
		<radialGradient id="SVGID_1_" cx="60.0005" cy="72.4412" r="44.2802" gradientTransform="matrix(1 0 0 8 0 -507.0887)" gradientUnits="userSpaceOnUse">
		<stop  offset="0" style="stop-color:#F2F2F2"/>
		<stop  offset="0.3072" style="stop-color:#F0F0F0"/>
		<stop  offset="0.4897" style="stop-color:#E7E7E7"/>
		<stop  offset="0.6396" style="stop-color:#D9D9D9"/>
		<stop  offset="0.7718" style="stop-color:#C5C5C5"/>
		<stop  offset="0.8912" style="stop-color:#ABABAB"/>
		<stop  offset="1" style="stop-color:#8C8C8C"/>
	</radialGradient>
	<path fill="url(#SVGID_1_)" d="M102.3,31.38H17.7c-2.75,0-4.98,2.23-4.98,4.98v59.72c0,1.9,1.08,3.53,2.65,4.37v7.08
		c0,6.279-0.18,5.97,11.17,5.97c11.15,0,11.18-0.02,11.18-5.97v-6.471h44.71v6.471c0,6.279-0.17,5.97,11.181,5.97
		c11.14,0,11.18-0.02,11.18-5.97v-7.16c1.479-0.87,2.49-2.45,2.49-4.29V36.36C107.28,33.61,105.05,31.38,102.3,31.38z M31.56,87.77
		c0,1.69-0.41,3.15-2.46,3.15h-3.58c-2.05,0-2.55-1.47-2.55-3.15v-9.1c0-1.689,0.5-3.85,2.55-3.85h3.58c2.05,0,2.46,2.16,2.46,3.85
		C31.56,78.67,31.56,87.77,31.56,87.77z M25.16,63.73c-2.75,0-4.97-2.23-4.97-4.98V41.34c0-2.75,2.22-4.98,4.97-4.98h32.35v27.37
		H25.16z M82.78,93.68H37.19v-5.65h45.59V93.68z M37.9,83.81v-5.65h43.99v5.649L37.9,83.81L37.9,83.81z M82.78,73.79H37.19v-5.66
		h45.59V73.79z M97.03,87.77c0,1.69-0.42,3.15-2.46,3.15h-3.59c-2.04,0-2.54-1.47-2.54-3.15v-9.1c0-1.689,0.5-3.85,2.54-3.85h3.59
		c2.04,0,2.46,2.16,2.46,3.85V87.77z M99.81,58.75c0,2.75-2.229,4.98-4.97,4.98H62.49V36.36h32.35c2.75,0,4.97,2.23,4.97,4.98V58.75
		z"/>
</g>
<g id="active">
	
		<radialGradient id="SVGID_2_" cx="60.0005" cy="72.4412" r="44.2802" gradientTransform="matrix(1 0 0 8 0 -507.0887)" gradientUnits="userSpaceOnUse">
		<stop  offset="0" style="stop-color:#F2F2F2"/>
		<stop  offset="0.2073" style="stop-color:#EEEEEE"/>
		<stop  offset="0.4062" style="stop-color:#E3E3E3"/>
		<stop  offset="0.6018" style="stop-color:#D0D0D0"/>
		<stop  offset="0.7951" style="stop-color:#B4B4B4"/>
		<stop  offset="0.9854" style="stop-color:#929292"/>
		<stop  offset="1" style="stop-color:#8F8F8F"/>
	</radialGradient>
	<path fill="url(#SVGID_2_)" d="M102.3,31.38H17.7c-2.75,0-4.98,2.23-4.98,4.98v59.72c0,1.9,1.08,3.53,2.65,4.37v7.08
		c0,6.279-0.18,5.97,11.17,5.97c11.15,0,11.18-0.02,11.18-5.97v-6.471h44.71v6.471c0,6.279-0.17,5.97,11.181,5.97
		c11.14,0,11.18-0.02,11.18-5.97v-7.16c1.479-0.87,2.49-2.45,2.49-4.29V36.36C107.28,33.61,105.05,31.38,102.3,31.38z M31.56,87.77
		c0,1.69-0.41,3.15-2.46,3.15h-3.58c-2.05,0-2.55-1.47-2.55-3.15v-9.1c0-1.689,0.5-3.85,2.55-3.85h3.58c2.05,0,2.46,2.16,2.46,3.85
		C31.56,78.67,31.56,87.77,31.56,87.77z M25.16,63.73c-2.75,0-4.97-2.23-4.97-4.98V41.34c0-2.75,2.22-4.98,4.97-4.98h32.35v27.37
		H25.16z M82.78,93.68H37.19v-5.65h45.59V93.68z M37.9,83.81v-5.65h43.99v5.649L37.9,83.81L37.9,83.81z M82.78,73.79H37.19v-5.66
		h45.59V73.79z M97.03,87.77c0,1.69-0.42,3.15-2.46,3.15h-3.59c-2.04,0-2.54-1.47-2.54-3.15v-9.1c0-1.689,0.5-3.85,2.54-3.85h3.59
		c2.04,0,2.46,2.16,2.46,3.85V87.77z M99.81,58.75c0,2.75-2.229,4.98-4.97,4.98H62.49V36.36h32.35c2.75,0,4.97,2.23,4.97,4.98V58.75
		z"/>
	
		<radialGradient id="SVGID_3_" cx="60" cy="16.455" r="30.7278" gradientTransform="matrix(1 0 0 8 0 -115.185)" gradientUnits="userSpaceOnUse">
		<stop  offset="0" style="stop-color:#CCCCCC"/>
		<stop  offset="0.2475" style="stop-color:#C4C4C4"/>
		<stop  offset="0.6212" style="stop-color:#B0B0B0"/>
		<stop  offset="1" style="stop-color:#949494"/>
	</radialGradient>
	<path fill="url(#SVGID_3_)" d="M102.3,17.39v9.02H17.7v-9.02c0-5.3,3.06-10.89,6.34-10.89h71.92C98.91,6.5,102.3,12.21,102.3,17.39
		z"/>
</g>
<g id="disabled" opacity="0.2">
	<path fill="#FFFFFF" d="M104.789,100.366v7.159c0,5.953-0.035,5.973-11.178,5.973c-11.35,0-11.178,0.313-11.178-5.973v-6.469
		H37.722v6.469c0,5.953-0.037,5.973-11.178,5.973c-11.35,0-11.178,0.313-11.178-5.973v-7.075c-1.566-0.837-2.643-2.468-2.643-4.369
		V36.359c0-2.748,2.227-4.977,4.975-4.977h84.604c2.748,0,4.975,2.228,4.975,4.977V96.08
		C107.277,97.918,106.271,99.503,104.789,100.366L104.789,100.366z M20.186,41.336v17.419c0,2.748,2.228,4.978,4.977,4.978h32.349
		V36.359H25.163C22.414,36.359,20.186,38.587,20.186,41.336L20.186,41.336z M99.814,41.336c0-2.748-2.229-4.977-4.978-4.977H62.488
		V63.73h32.349c2.748,0,4.978-2.228,4.978-4.977L99.814,41.336L99.814,41.336z M17.697,17.386c0-5.294,3.062-10.886,6.346-10.886
		h71.913c2.953,0,6.344,5.707,6.344,10.886v9.02H17.697V17.386L17.697,17.386z M37.187,93.684h45.59v-5.651h-45.59V93.684
		L37.187,93.684z M81.889,83.814V78.16H37.9v5.654H81.889L81.889,83.814z M37.187,73.785h45.59v-5.654h-45.59V73.785L37.187,73.785z
		 M22.974,87.768c0,1.687,0.499,3.147,2.542,3.147h3.586c2.045,0,2.456-1.46,2.456-3.147v-9.093c0-1.69-0.411-3.858-2.456-3.858
		h-3.586c-2.043,0-2.542,2.168-2.542,3.858V87.768L22.974,87.768z M97.025,78.675c0-1.69-0.412-3.858-2.455-3.858h-3.586
		c-2.043,0-2.543,2.168-2.543,3.858v9.093c0,1.687,0.5,3.147,2.543,3.147h3.586c2.043,0,2.455-1.46,2.455-3.147V78.675
		L97.025,78.675z"/>
</g>
</svg>
