<?xml version="1.0" encoding="utf-8"?>
<!-- Generator: Adobe Illustrator 19.2.1, SVG Export Plug-In . SVG Version: 6.00 Build 0)  -->
<svg version="1.1" id="Слой_1" xmlns="http://www.w3.org/2000/svg" xmlns:xlink="http://www.w3.org/1999/xlink" x="0px" y="0px"
	 viewBox="0 0 120 120" enable-background="new 0 0 120 120" xml:space="preserve">
<g id="normal">
	<g>
		
			<radialGradient id="SVGID_1_" cx="60" cy="60" r="59" gradientTransform="matrix(1 0 0 -1 0 120)" gradientUnits="userSpaceOnUse">
			<stop  offset="0" style="stop-color:#36363D"/>
			<stop  offset="0" style="stop-color:#39393F"/>
			<stop  offset="0" style="stop-color:#414146"/>
			<stop  offset="0" style="stop-color:#4F4F52"/>
			<stop  offset="0" style="stop-color:#636364"/>
			<stop  offset="0" style="stop-color:#828282"/>
			<stop  offset="0.1565" style="stop-color:#797979"/>
			<stop  offset="0.4117" style="stop-color:#616162"/>
			<stop  offset="0.7317" style="stop-color:#39393D"/>
			<stop  offset="1" style="stop-color:#131318"/>
		</radialGradient>
		<circle fill="url(#SVGID_1_)" cx="60" cy="60" r="59"/>
		<path fill="#8DC6FF" d="M60,5c30.327,0,55,24.673,55,55s-24.673,55-55,55S5,90.327,5,60S29.673,5,60,5 M60,1
			C27.415,1,1,27.415,1,60s26.415,59,59,59s59-26.415,59-59S92.585,1,60,1L60,1z"/>
	</g>
	<g>
		<path fill="#8DC6FF" d="M65.117,57.91c4.271,1.147,7.486,3.01,9.648,5.59c2.161,2.58,3.242,5.654,3.242,9.225
			c0,4.69-1.68,8.482-5.039,11.375c-3.359,2.892-8.061,4.338-14.102,4.338c-5.365,0-9.519-1.256-12.461-3.77
			c-2.943-2.513-4.414-5.723-4.414-9.629c0-2.369,0.601-4.225,1.803-5.566c1.201-1.341,2.743-2.012,4.624-2.012
			c1.698,0,3.089,0.534,4.173,1.602s1.627,2.396,1.627,3.984c0,2.162-1.115,3.881-3.345,5.156c-0.944,0.547-1.516,0.944-1.712,1.191
			c-0.196,0.248-0.295,0.566-0.295,0.957c0,0.938,0.611,1.797,1.836,2.578c1.797,1.146,3.828,1.719,6.094,1.719
			c2.916,0,5.215-0.989,6.895-2.969c1.68-1.979,2.52-5.052,2.52-9.219c0-4.114-0.775-7.161-2.324-9.141
			c-1.55-1.979-3.522-2.969-5.918-2.969c-0.573,0-1.328,0.092-2.266,0.273c-0.912,0.156-1.602,0.234-2.07,0.234
			c-0.729,0-1.303-0.201-1.719-0.605c-0.417-0.403-0.625-0.97-0.625-1.699c0-0.807,0.221-1.412,0.664-1.816
			c0.442-0.403,1.119-0.605,2.031-0.605c0.364,0,0.885,0.039,1.563,0.117c0.833,0.104,1.51,0.156,2.031,0.156
			c2.344,0,4.18-0.807,5.508-2.422c1.302-1.588,1.953-4.244,1.953-7.969c0-3.724-0.729-6.419-2.188-8.086
			c-1.459-1.666-3.516-2.5-6.172-2.5c-1.823,0-3.21,0.3-4.16,0.898c-0.951,0.6-1.426,1.237-1.426,1.914
			c0,0.339,0.064,0.605,0.195,0.801c0.13,0.195,0.508,0.541,1.133,1.035c1.25,0.99,2.076,1.843,2.48,2.559
			c0.403,0.717,0.605,1.557,0.605,2.52c0,1.563-0.527,2.858-1.582,3.887s-2.377,1.543-3.965,1.543c-1.667,0-3.066-0.631-4.199-1.895
			c-1.133-1.263-1.699-2.896-1.699-4.902c0-2.864,1.055-5.442,3.164-7.734c2.708-2.994,6.666-4.492,11.875-4.492
			c3.489,0,6.504,0.605,9.043,1.815s4.466,2.85,5.781,4.918c1.314,2.069,1.973,4.34,1.973,6.812c0,2.681-0.827,5.087-2.48,7.221
			C71.764,54.462,68.997,56.323,65.117,57.91z"/>
	</g>
</g>
<g id="active">
	<g>
		
			<radialGradient id="SVGID_2_" cx="60" cy="60" r="59" gradientTransform="matrix(1 0 0 -1 0 120)" gradientUnits="userSpaceOnUse">
			<stop  offset="0" style="stop-color:#36363D"/>
			<stop  offset="0" style="stop-color:#39393F"/>
			<stop  offset="0" style="stop-color:#414146"/>
			<stop  offset="0" style="stop-color:#4F4F52"/>
			<stop  offset="0" style="stop-color:#636364"/>
			<stop  offset="0" style="stop-color:#828282"/>
			<stop  offset="0.1565" style="stop-color:#797979"/>
			<stop  offset="0.4117" style="stop-color:#616162"/>
			<stop  offset="0.7317" style="stop-color:#39393D"/>
			<stop  offset="1" style="stop-color:#131318"/>
		</radialGradient>
		<circle fill="url(#SVGID_2_)" cx="60" cy="60" r="59"/>
		<path fill="#8DC6FF" d="M60,5c30.327,0,55,24.673,55,55s-24.673,55-55,55S5,90.327,5,60S29.673,5,60,5 M60,1
			C27.415,1,1,27.415,1,60s26.415,59,59,59s59-26.415,59-59S92.585,1,60,1L60,1z"/>
	</g>
	<g>
		<path fill="#8DC6FF" d="M65.117,57.91c4.271,1.147,7.486,3.01,9.648,5.59c2.161,2.58,3.242,5.654,3.242,9.225
			c0,4.69-1.68,8.482-5.039,11.375c-3.359,2.892-8.061,4.338-14.102,4.338c-5.365,0-9.519-1.256-12.461-3.77
			c-2.943-2.513-4.414-5.723-4.414-9.629c0-2.369,0.601-4.225,1.803-5.566c1.201-1.341,2.743-2.012,4.624-2.012
			c1.698,0,3.089,0.534,4.173,1.602s1.627,2.396,1.627,3.984c0,2.162-1.115,3.881-3.345,5.156c-0.944,0.547-1.516,0.944-1.712,1.191
			c-0.196,0.248-0.295,0.566-0.295,0.957c0,0.938,0.611,1.797,1.836,2.578c1.797,1.146,3.828,1.719,6.094,1.719
			c2.916,0,5.215-0.989,6.895-2.969c1.68-1.979,2.52-5.052,2.52-9.219c0-4.114-0.775-7.161-2.324-9.141
			c-1.55-1.979-3.522-2.969-5.918-2.969c-0.573,0-1.328,0.092-2.266,0.273c-0.912,0.156-1.602,0.234-2.07,0.234
			c-0.729,0-1.303-0.201-1.719-0.605c-0.417-0.403-0.625-0.97-0.625-1.699c0-0.807,0.221-1.412,0.664-1.816
			c0.442-0.403,1.119-0.605,2.031-0.605c0.364,0,0.885,0.039,1.563,0.117c0.833,0.104,1.51,0.156,2.031,0.156
			c2.344,0,4.18-0.807,5.508-2.422c1.302-1.588,1.953-4.244,1.953-7.969c0-3.724-0.729-6.419-2.188-8.086
			c-1.459-1.666-3.516-2.5-6.172-2.5c-1.823,0-3.21,0.3-4.16,0.898c-0.951,0.6-1.426,1.237-1.426,1.914
			c0,0.339,0.064,0.605,0.195,0.801c0.13,0.195,0.508,0.541,1.133,1.035c1.25,0.99,2.076,1.843,2.48,2.559
			c0.403,0.717,0.605,1.557,0.605,2.52c0,1.563-0.527,2.858-1.582,3.887s-2.377,1.543-3.965,1.543c-1.667,0-3.066-0.631-4.199-1.895
			c-1.133-1.263-1.699-2.896-1.699-4.902c0-2.864,1.055-5.442,3.164-7.734c2.708-2.994,6.666-4.492,11.875-4.492
			c3.489,0,6.504,0.605,9.043,1.815s4.466,2.85,5.781,4.918c1.314,2.069,1.973,4.34,1.973,6.812c0,2.681-0.827,5.087-2.48,7.221
			C71.764,54.462,68.997,56.323,65.117,57.91z"/>
	</g>
</g>
<g id="disabled" opacity="0.3">
	<g>
		
			<radialGradient id="SVGID_3_" cx="60" cy="60" r="59" gradientTransform="matrix(1 0 0 -1 0 120)" gradientUnits="userSpaceOnUse">
			<stop  offset="0" style="stop-color:#36363D"/>
			<stop  offset="0" style="stop-color:#39393F"/>
			<stop  offset="0" style="stop-color:#414146"/>
			<stop  offset="0" style="stop-color:#4F4F52"/>
			<stop  offset="0" style="stop-color:#636364"/>
			<stop  offset="0" style="stop-color:#828282"/>
			<stop  offset="0.1565" style="stop-color:#797979"/>
			<stop  offset="0.4117" style="stop-color:#616162"/>
			<stop  offset="0.7317" style="stop-color:#39393D"/>
			<stop  offset="1" style="stop-color:#131318"/>
		</radialGradient>
		<circle fill="url(#SVGID_3_)" cx="60" cy="60" r="59"/>
		<path fill="#8DC6FF" d="M60,5c30.327,0,55,24.673,55,55s-24.673,55-55,55S5,90.327,5,60S29.673,5,60,5 M60,1
			C27.415,1,1,27.415,1,60s26.415,59,59,59s59-26.415,59-59S92.585,1,60,1L60,1z"/>
	</g>
	<g>
		<path fill="#8DC6FF" d="M65.117,57.91c4.271,1.147,7.486,3.01,9.648,5.59c2.161,2.58,3.242,5.654,3.242,9.225
			c0,4.69-1.68,8.482-5.039,11.375c-3.359,2.892-8.061,4.338-14.102,4.338c-5.365,0-9.519-1.256-12.461-3.77
			c-2.943-2.513-4.414-5.723-4.414-9.629c0-2.369,0.601-4.225,1.803-5.566c1.201-1.341,2.743-2.012,4.624-2.012
			c1.698,0,3.089,0.534,4.173,1.602s1.627,2.396,1.627,3.984c0,2.162-1.115,3.881-3.345,5.156c-0.944,0.547-1.516,0.944-1.712,1.191
			c-0.196,0.248-0.295,0.566-0.295,0.957c0,0.938,0.611,1.797,1.836,2.578c1.797,1.146,3.828,1.719,6.094,1.719
			c2.916,0,5.215-0.989,6.895-2.969c1.68-1.979,2.52-5.052,2.52-9.219c0-4.114-0.775-7.161-2.324-9.141
			c-1.55-1.979-3.522-2.969-5.918-2.969c-0.573,0-1.328,0.092-2.266,0.273c-0.912,0.156-1.602,0.234-2.07,0.234
			c-0.729,0-1.303-0.201-1.719-0.605c-0.417-0.403-0.625-0.97-0.625-1.699c0-0.807,0.221-1.412,0.664-1.816
			c0.442-0.403,1.119-0.605,2.031-0.605c0.364,0,0.885,0.039,1.563,0.117c0.833,0.104,1.51,0.156,2.031,0.156
			c2.344,0,4.18-0.807,5.508-2.422c1.302-1.588,1.953-4.244,1.953-7.969c0-3.724-0.729-6.419-2.188-8.086
			c-1.459-1.666-3.516-2.5-6.172-2.5c-1.823,0-3.21,0.3-4.16,0.898c-0.951,0.6-1.426,1.237-1.426,1.914
			c0,0.339,0.064,0.605,0.195,0.801c0.13,0.195,0.508,0.541,1.133,1.035c1.25,0.99,2.076,1.843,2.48,2.559
			c0.403,0.717,0.605,1.557,0.605,2.52c0,1.563-0.527,2.858-1.582,3.887s-2.377,1.543-3.965,1.543c-1.667,0-3.066-0.631-4.199-1.895
			c-1.133-1.263-1.699-2.896-1.699-4.902c0-2.864,1.055-5.442,3.164-7.734c2.708-2.994,6.666-4.492,11.875-4.492
			c3.489,0,6.504,0.605,9.043,1.815s4.466,2.85,5.781,4.918c1.314,2.069,1.973,4.34,1.973,6.812c0,2.681-0.827,5.087-2.48,7.221
			C71.764,54.462,68.997,56.323,65.117,57.91z"/>
	</g>
</g>
</svg>
