<?xml version="1.0" encoding="utf-8"?>
<!-- Generator: Adobe Illustrator 15.0.0, SVG Export Plug-In . SVG Version: 6.00 Build 0)  -->
<!DOCTYPE svg PUBLIC "-//W3C//DTD SVG 1.1//EN" "http://www.w3.org/Graphics/SVG/1.1/DTD/svg11.dtd">
<svg version="1.1" id="Layer_1" xmlns="http://www.w3.org/2000/svg" xmlns:xlink="http://www.w3.org/1999/xlink" x="0px" y="0px"
	 width="48px" height="48px" viewBox="0 0 48 48" enable-background="new 0 0 48 48" xml:space="preserve">
<g id="normal">
	<path fill="#FF0000" d="M7.044,14.064l17.938,17.939c0.535,0.534,0.535,1.399,0,1.933c-0.533,0.534-1.397,0.534-1.932,0
		L5.113,15.997c-0.534-0.534-0.534-1.399,0-1.933C5.646,13.53,6.511,13.53,7.044,14.064L7.044,14.064z M42.887,14.064
		c0.534,0.534,0.534,1.399,0,1.933L24.949,33.936c-0.534,0.534-1.399,0.534-1.932,0c-0.534-0.533-0.534-1.398,0-1.933l17.939-17.939
		C41.488,13.53,42.354,13.53,42.887,14.064L42.887,14.064z"/>
</g>
<g id="active">
	<path fill="#FF0000" d="M7.044,14.064l17.938,17.939c0.535,0.534,0.535,1.399,0,1.933c-0.533,0.534-1.397,0.534-1.932,0
		L5.113,15.997c-0.534-0.534-0.534-1.399,0-1.933C5.646,13.53,6.511,13.53,7.044,14.064L7.044,14.064z M42.887,14.064
		c0.534,0.534,0.534,1.399,0,1.933L24.949,33.936c-0.534,0.534-1.399,0.534-1.932,0c-0.534-0.533-0.534-1.398,0-1.933l17.939-17.939
		C41.488,13.53,42.354,13.53,42.887,14.064L42.887,14.064z"/>
</g>
<g id="disabled" display="none" opacity="0.6">
	<path display="inline" fill="#FFFFFF" d="M7.044,14.064l17.938,17.939c0.535,0.534,0.535,1.399,0,1.933
		c-0.533,0.534-1.397,0.534-1.932,0L5.113,15.997c-0.534-0.534-0.534-1.399,0-1.933C5.646,13.53,6.511,13.53,7.044,14.064
		L7.044,14.064z M42.887,14.064c0.534,0.534,0.534,1.399,0,1.933L24.949,33.936c-0.534,0.534-1.399,0.534-1.932,0
		c-0.534-0.533-0.534-1.398,0-1.933l17.939-17.939C41.488,13.53,42.354,13.53,42.887,14.064L42.887,14.064z"/>
</g>
</svg>
