<?xml version="1.0" encoding="UTF-8" standalone="no"?>
<svg
   xmlns:dc="http://purl.org/dc/elements/1.1/"
   xmlns:cc="http://creativecommons.org/ns#"
   xmlns:rdf="http://www.w3.org/1999/02/22-rdf-syntax-ns#"
   xmlns:svg="http://www.w3.org/2000/svg"
   xmlns="http://www.w3.org/2000/svg"
   xmlns:sodipodi="http://sodipodi.sourceforge.net/DTD/sodipodi-0.dtd"
   xmlns:inkscape="http://www.inkscape.org/namespaces/inkscape"
   viewBox="0 0 120 120"
   id="svg2"
   version="1.1"
   inkscape:version="0.48.5 r10040"
   width="100%"
   height="100%"
   sodipodi:docname="color-ico_parked_car.svg">
  <metadata
     id="metadata21">
    <rdf:RDF>
      <cc:Work
         rdf:about="">
        <dc:format>image/svg+xml</dc:format>
        <dc:type
           rdf:resource="http://purl.org/dc/dcmitype/StillImage" />
      </cc:Work>
    </rdf:RDF>
  </metadata>
  <defs
     id="defs19" />
  <sodipodi:namedview
     pagecolor="#ffffff"
     bordercolor="#666666"
     borderopacity="1"
     objecttolerance="10"
     gridtolerance="10"
     guidetolerance="10"
     inkscape:pageopacity="0"
     inkscape:pageshadow="2"
     inkscape:window-width="1536"
     inkscape:window-height="803"
     id="namedview17"
     showgrid="false"
     inkscape:zoom="3.4403928"
     inkscape:cx="60"
     inkscape:cy="60"
     inkscape:window-x="-8"
     inkscape:window-y="-8"
     inkscape:window-maximized="1"
     inkscape:current-layer="normal" />
  <g
     id="normal">
    <g
       id="path5"
       transform="matrix(0.81948349,0,0.01347716,0.80902538,-2.965991,-29.021019)">
      <g
         id="#ffffffff" />
      <g
         id="#164294ff">
        <path
           style="fill:#c1cdc1"
           inkscape:connector-curvature="0"
           id="path16"
           d="m 19.182034,68.147288 c 2.15,-3.93 6.68,-6.19 11.11,-5.92 15.69,0.03 31.38,-0.02 47.07,0.02 5.33,-0.16 10.58,3.8 11.5,9.12 0.37,2.7 0.19,5.43 0.22,8.14 2.89,0.8 4.41,3.26 4.13,6.23 3.55,0.48 9.069996,-1.62 10.929996,2.57 0.41,5.34 0.12,10.71 0.17,16.060002 0.22,1.89 -0.96,3.91 -2.94,4.21 -2.779996,0.32 -5.579996,0.15 -8.359996,0.17 0,16.16 0,32.33 0.06,48.49 -0.03,2.7 0.54,5.98 -1.65,8.05 -1.55,1.65 -3.98,1.46 -6.04,1.73 -0.5,2.56 -0.99,5.12 -1.46,7.69 -4.75,0.06 -9.51,0.02 -14.26,0.05 -0.03,-2.63 -0.03,-5.26 -0.04,-7.89 -10.79,-0.01 -21.57,0 -32.36,0 0,2.62 0,5.24 0,7.87 -4.75,0.01 -9.51,0 -14.26,0 -0.51,-2.57 -1,-5.14 -1.52,-7.71 -2.08,-0.28 -4.55,-0.09 -6.09,-1.8 -2.07,-2.07 -1.59,-5.25 -1.58,-7.9 0.07,-16.19 0.09,-32.39 0.07,-48.59 -3.58,-0.46 -8.6200001,1.46 -10.9600001,-2.14 -0.93,-4.36 -0.19,-8.920002 -0.44,-13.350002 0.14,-2.36 -0.58,-5.62 1.95,-6.98 2.95,-1.03 6.2000001,-0.38 9.2800001,-0.52 -0.24,-2.93 1.16,-5.49 4.11,-6.25 0.13,-3.78 -0.64,-7.91 1.36,-11.35 m -2.26,16.35 c 0.52,7.93 1.02,15.860002 1.52,23.800002 4.69,0.01 9.38,-0.03 14.06,0.04 3.43,-3.74 6.65,-7.67 10.1,-11.390002 0.2,0.81 0.62,2.42 0.82,3.220002 -1.85,2.99 -4.49,5.38 -6.69,8.11 9.91,0.06 19.82,-0.03 29.73,0.05 3.41,-3.75 6.64,-7.67 10.08,-11.390002 0.21,0.81 0.62,2.43 0.83,3.240002 -1.87,2.99 -4.5,5.39 -6.72,8.1 5.92,0.04 11.85,0.01 17.78,0.02 0.52,-7.93 1,-15.870002 1.53,-23.800002 -24.35,-0.01 -48.69,-0.02 -73.04,0 m -8.7800001,3.93 c -0.01,5.87 -0.01,11.750002 0,17.620002 1.9100001,0 3.8300001,0 5.7500001,-0.01 -0.01,-5.87 -0.01,-11.740002 0,-17.600002 -1.92,-0.01 -3.84,-0.01 -5.7500001,-0.01 m 84.8800001,0 c -0.02,5.87 -0.01,11.750002 -0.01,17.620002 1.91,0 3.83,0 5.74,0.01 0.01,-5.88 0.01,-11.760002 0,-17.640002 -1.92,0.01 -3.82,0.01 -5.73,0.01 m -65.29,31.760002 c 0.33,1.72 -0.1,3.95 1.54,5.12 1.39,1.13 3.32,0.77 4.97,0.89 13.69,-0.11 27.39,0.09 41.08,-0.09 3.18,0.09 3.93,-3.41 3.85,-5.91 -17.15,-0.03 -34.3,-0.02 -51.44,-0.01 m 1.98,10.14 c 0.36,1.68 -0.04,3.84 1.5,5.03 1.38,1.24 3.38,0.83 5.07,0.96 12.35,-0.11 24.7,0.1 37.05,-0.09 3.18,0.09 3.84,-3.42 3.86,-5.88 -15.82,-0.09 -31.65,-0.05 -47.48,-0.02 m 2.57,10.13 c 0.29,1.75 -0.06,3.98 1.6,5.15 1.57,1.17 3.67,0.7 5.49,0.84 10.65,-0.16 21.33,0.18 31.98,-0.16 2.92,-0.26 3.15,-3.57 3.24,-5.85 -14.1,0 -28.21,-0.05 -42.31,0.02 m 11.12,10.12 c 0.16,2.21 0.25,5.29 3,5.82 4.59,0.39 9.24,0.34 13.83,0.04 2.91,-0.34 3.13,-3.6 3.25,-5.88 -6.69,0 -13.39,-0.03 -20.08,0.02 m -26.96,0.41 c 0,2.63 0.01,5.25 0.01,7.87 3.03,-0.09 6.13,0.35 9.11,-0.35 2.96,-1.27 2.11,-4.96 2.32,-7.51 -3.81,-0.01 -7.62,-0.01 -11.44,-0.01 m 62.56,0.01 c 0.22,2.56 -0.65,6.27 2.36,7.54 2.98,0.62 6.05,0.26 9.08,0.31 0,-2.62 0,-5.24 0,-7.86 -3.81,0 -7.62,0 -11.44,0.01 z" />
      </g>
    </g>
    <path
       d="m 90.208525,19.821678 c -1.827,0 -3.115,0.112 -3.787,0.286 v 11.465 c 0.796,0.174 1.714,0.23 3.119,0.23 4.942,0 8.002,-2.362 8.002,-6.281 -0.002,-3.573 -2.631,-5.7 -7.334,-5.7 z"
       id="path7"
       style="fill:#0000ff"
       inkscape:connector-curvature="0" />
    <path
       d="M 55.216356,0.84745763 V 67.081271 H 120.54237 V 0.84745763 H 55.216356 z M 103.51172,36.181409 c -3.735432,3.491767 -9.253489,5.158176 -15.703356,5.158176 -1.429391,0 -2.726172,-0.07064 -3.730735,-0.290139 V 58.638211 H 73.259785 V 10.30853 c 3.366934,-0.5777562 8.098714,-1.0154885 14.762167,-1.0154885 6.740908,0 11.545443,1.3081505 14.770378,3.9231915 3.16039,2.471232 5.15778,6.539493 5.15778,11.336888 -10e-4,4.796132 -1.50567,8.938821 -4.43839,11.628288 z"
       id="path9"
       style="fill:#0000ff"
       inkscape:connector-curvature="0" />
    <rect
       style="opacity:0.93999999;fill:#0000ff;fill-opacity:1"
       id="rect2998"
       width="3.2818532"
       height="12.162162"
       x="84.169884"
       y="19.80695" />
    <rect
       style="opacity:0.93999999;fill:#ffffff;fill-opacity:1"
       id="rect3027"
       width="10.810811"
       height="24.864864"
       x="73.24324"
       y="33.873875" />
    <rect
       style="opacity:0.93999999;fill:#ffffff;fill-opacity:1"
       id="rect3029"
       width="9.7297297"
       height="26.036036"
       x="73.423424"
       y="32.432434" />
    <g
       id="g3027"
       transform="matrix(0.98169437,0,0,0.99456753,55.584937,0.85191392)">
      <g
         id="#0000ffff">
        <path
           id="path3014"
           d="M 0,0 65,0 65,66 0,66 0,0 m 17.99,9.42 c -0.03,16.06 -0.01,32.11 -0.01,48.17 3.58,0 7.16,0 10.74,0 0,-5.82 0,-11.65 0,-17.47 5.84,0.48 12.12,0.01 17.16,-3.3 C 55.09,31.18 54.64,14.91 44.4,10.58 36.06,7.1 26.71,8.62 17.99,9.42 z"
           inkscape:connector-curvature="0"
           style="fill:#0000ff" />
        <path
           id="path3016"
           d="m 28,16.05 c 3.35,0.12 6.76,-0.25 10.06,0.49 2.25,0.57 3.8,2.42 5.47,3.9 0.42,2.95 0.84,6.38 -1.34,8.78 -0.78,0.57 -1.53,1.18 -2.12,1.97 -3.65,2.15 -8.01,1.7 -12.07,1.79 0,-5.64 0,-11.29 0,-16.93 z"
           inkscape:connector-curvature="0"
           style="fill:#0000ff" />
      </g>
      <g
         id="#ffffffff-1">
        <path
           id="path3019"
           d="m 17.99,9.42 c 8.72,-0.8 18.07,-2.32 26.41,1.16 10.24,4.33 10.69,20.6 1.48,26.24 -5.04,3.31 -11.32,3.78 -17.16,3.3 0,5.82 0,11.65 0,17.47 -3.58,0 -7.16,0 -10.74,0 0,-16.06 -0.02,-32.11 0.01,-48.17 M 28,16.05 c 0,5.64 0,11.29 0,16.93 4.06,-0.09 8.42,0.36 12.07,-1.79 0.59,-0.79 1.34,-1.4 2.12,-1.97 2.18,-2.4 1.76,-5.83 1.34,-8.78 -1.67,-1.48 -3.22,-3.33 -5.47,-3.9 C 34.76,15.8 31.35,16.17 28,16.05 z"
           inkscape:connector-curvature="0"
           style="fill:#ffffff" />
      </g>
    </g>
  </g>
  <g
     id="active">
    <use
       href="#normal"
       id="use12" />
  </g>
  <g
     id="disabled"
     opacity=".2">
    <use
       href="#normal"
       id="use15" />
  </g>
</svg>
