<?xml version="1.0" encoding="UTF-8" standalone="no"?>
<!-- Generator: Adobe Illustrator 18.0.0, SVG Export Plug-In . SVG Version: 6.00 Build 0)  -->

<svg
   xmlns:dc="http://purl.org/dc/elements/1.1/"
   xmlns:cc="http://creativecommons.org/ns#"
   xmlns:rdf="http://www.w3.org/1999/02/22-rdf-syntax-ns#"
   xmlns:svg="http://www.w3.org/2000/svg"
   xmlns="http://www.w3.org/2000/svg"
   xmlns:sodipodi="http://sodipodi.sourceforge.net/DTD/sodipodi-0.dtd"
   xmlns:inkscape="http://www.inkscape.org/namespaces/inkscape"
   version="1.1"
   id="Layer_1"
   x="0px"
   y="0px"
   viewBox="0 0 132 132"
   enable-background="new 0 0 132 132"
   xml:space="preserve"
   inkscape:version="0.48.5 r10040"
   width="100%"
   height="100%"
   sodipodi:docname="ico_umwelt_zone_start.svg"><metadata
   id="metadata3267"><rdf:RDF><cc:Work
       rdf:about=""><dc:format>image/svg+xml</dc:format><dc:type
         rdf:resource="http://purl.org/dc/dcmitype/StillImage" /></cc:Work></rdf:RDF></metadata><defs
   id="defs3265" /><sodipodi:namedview
   pagecolor="#ffffff"
   bordercolor="#666666"
   borderopacity="1"
   objecttolerance="10"
   gridtolerance="10"
   guidetolerance="10"
   inkscape:pageopacity="0"
   inkscape:pageshadow="2"
   inkscape:window-width="1600"
   inkscape:window-height="1137"
   id="namedview3263"
   showgrid="false"
   inkscape:zoom="1.7878788"
   inkscape:cx="66"
   inkscape:cy="66"
   inkscape:window-x="-8"
   inkscape:window-y="-8"
   inkscape:window-maximized="1"
   inkscape:current-layer="Layer_1" />
<g
   id="path">
	<g
   id="g3162">
		<path
   fill="#575757"
   d="M66,1C30.1,1,1,30.1,1,66s29.1,65,65,65s65-29.1,65-65S101.9,1,66,1z M66,115.2c-27.2,0-49.2-22-49.2-49.2    s22-49.2,49.2-49.2s49.2,22,49.2,49.2S93.2,115.2,66,115.2z"
   id="path3164"
   style="fill:#ff0000" />
	</g>
	<circle
   fill="#FFFFFF"
   cx="66"
   cy="66"
   r="49.2"
   id="circle3166" />
	<g
   id="LWPOLYLINE_6_">
		<path
   d="M48,40l0.4-0.1l0.4-0.2l0.3-0.3l0.3-0.3l0.2-0.8l0.1-0.9v-3.4h1.6v7.2h-1.5v-1.6c-0.3,1-1.2,1.8-2.3,1.7    c-0.1,0-0.2,0-0.3,0c-1.2-0.1-2-1.1-1.9-2.3v-5.1H47v4.6c-0.1,0.6,0.3,1.1,0.9,1.2C47.9,40,48,40,48,40z"
   id="path3169" />
	</g>
	<g
   id="LWPOLYLINE_7_">
		<path
   d="M70.1,108.3h-1.2V105c0.1-0.5-0.3-1-0.8-1.1c0,0-0.1,0-0.1,0c-0.8,0.1-1.3,0.8-1.2,1.6c0,0,0,0,0,0v2.8h-1.2v-5.4h1.1v1.3    c0.2-0.8,0.9-1.3,1.7-1.4c0.1,0,0.2,0,0.3,0c1,0.2,1.6,1.1,1.5,2V108.3z"
   id="path3172" />
	</g>
	<g
   id="LWPOLYLINE_8_">
		<path
   d="M57.1,34v1.6l-0.7,0.1l-0.6,0.3l-0.5,0.5L55,37.2L54.9,38v3.4h-1.6v-7.2h1.5v1.8c0.2-1,1.1-1.8,2.1-2l0.1,0L57.1,34z"
   id="path3175" />
	</g>
	<g
   id="LWPOLYLINE_9_">
		<path
   d="M99.1,97.9h-1.2v-3.3c0.1-0.5-0.3-1-0.8-1.1c0,0-0.1,0-0.1,0c-0.8,0.1-1.3,0.8-1.2,1.6c0,0,0,0,0,0v2.8h-1.2v-5.4h1.1v1.3    c0.2-0.8,0.9-1.3,1.7-1.4c0.1,0,0.2,0,0.3,0c1,0.2,1.6,1.1,1.5,2V97.9z"
   id="path3178" />
	</g>
	<g
   id="g3180">
		<path
   d="M72.3,36.6L72,35.5l-0.5-0.8l-0.8-0.6L69.8,34c-1,0-1.9,0.6-2.2,1.5v-1.4H66v9.7h1.6v-3.5c0.4,0.8,1.2,1.2,2,1.2l0.7-0.1    l0.6-0.2l0.5-0.4l0.4-0.5l0.5-1.2l0.1-1.3L72.3,36.6z M70.7,38.5l-0.2,0.7l-0.2,0.3L70,39.8L69.6,40l-0.4,0    c-0.9,0-1.6-0.7-1.6-1.6v-0.9c0,0,0,0,0-0.1c-0.1-1,0.7-1.8,1.6-1.9l0.4,0l0.4,0.2l0.3,0.3l0.2,0.3l0.2,0.7l0.1,0.8L70.7,38.5z"
   id="path3182" />
	</g>
	<g
   id="LWPOLYLINE_11_">
		<path
   d="M71.9,94.1v3.8h-1.2v-3.4c0.1-0.5-0.3-1-0.8-1c-0.1,0-0.1,0-0.2,0c-0.7,0-1.3,0.7-1.3,1.4c0,0,0,0.1,0,0.1v2.8h-1.2v-3.4    c0.1-0.5-0.2-1-0.7-1c-0.1,0-0.1,0-0.2,0c-0.8,0-1.4,0.7-1.3,1.5c0,0,0,0,0,0.1v2.8h-1.2v-5.4h1.2v1.2c0.3-0.8,1-1.3,1.8-1.3    c0.8,0,1.4,0.5,1.6,1.3c0.3-0.7,1-1.2,1.8-1.3c0,0,0.1,0,0.1,0C71.1,92.4,71.9,93.2,71.9,94.1z"
   id="path3185" />
	</g>
	<g
   id="LWPOLYLINE_12_">
		<polygon
   points="39.3,33 39.3,35.6 42.9,35.6 42.9,37.1 39.3,37.1 39.3,39.9 43.8,39.9 43.8,41.4 37.5,41.4 37.5,31.5 43.8,31.5     43.8,33   "
   id="polygon3188" />
	</g>
	<g
   id="LWPOLYLINE_13_">
		<path
   d="M94,41.4v-4.5c0.1-0.7-0.3-1.3-1-1.4c0,0-0.1,0-0.1,0c-1,0.2-1.8,1.1-1.6,2.2c0,0,0,0,0,0v3.7h-1.6v-7.2h1.5v1.7    c0.3-1,1.2-1.7,2.2-1.8c0.1,0,0.2,0,0.4,0c1.3,0.2,2.2,1.4,2,2.7v4.7H94z"
   id="path3191" />
	</g>
	<g
   id="LWPOLYLINE_14_">
		<polygon
   points="37.3,96.8 40.5,96.8 40.5,97.9 36,97.9 36,90.5 37.3,90.5   "
   id="polygon3194" />
	</g>
	<g
   id="LWPOLYLINE_15_">
		<polygon
   points="53.1,92.5 54.1,92.5 52.5,97.9 51.4,97.9 50.5,94.1 49.5,97.9 48.3,97.9 46.6,92.5 47.9,92.5 49,96.2 50,92.5     51.1,92.5 52,96.1   "
   id="polygon3197" />
	</g>
	<g
   id="LWPOLYLINE_16_">
		<polygon
   points="59.1,93.6 61.8,93.6 61.8,94.7 59.1,94.7 59.1,96.8 62.5,96.8 62.5,97.9 57.8,97.9 57.8,90.5 62.5,90.5     62.5,91.7 59.1,91.7   "
   id="polygon3200" />
	</g>
	<g
   id="LWPOLYLINE_17_">
		<polygon
   points="81.8,79.8 81.8,85.7 108.3,85.7 108.3,76.8 93.1,76.8 107.4,52.2 107.4,46.3 82.7,46.3 82.7,55.2 96,55.2   "
   id="polygon3203" />
	</g>
	<g
   id="LWPOLYLINE_18_">
		<polygon
   points="54.9,107.2 58.8,107.2 58.8,108.3 53.3,108.3 53.3,107.3 57.2,102.1 53.6,102.1 53.6,101 58.7,101 58.7,102.1       "
   id="polygon3206" />
	</g>
	<g
   id="LWPOLYLINE_19_">
		<rect
   x="73.3"
   y="90.5"
   width="1.2"
   height="1.3"
   id="rect3209" />
	</g>
	<g
   id="LWPOLYLINE_20_">
		<rect
   x="73.3"
   y="92.5"
   width="1.2"
   height="5.4"
   id="rect3212" />
	</g>
	<g
   id="LWPOLYLINE_21_">
		<rect
   x="86"
   y="90.5"
   width="1.2"
   height="1.3"
   id="rect3215" />
	</g>
	<g
   id="LWPOLYLINE_22_">
		<rect
   x="86"
   y="92.5"
   width="1.2"
   height="5.4"
   id="rect3218" />
	</g>
	<g
   id="LWPOLYLINE_23_">
		<polygon
   points="75.8,55.2 75.8,46.3 53.2,46.3 53.2,85.7 75.8,85.7 75.8,76.8 62.1,76.8 62.1,70.2 73.9,70.2 73.9,61.8     62.1,61.8 62.1,55.2   "
   id="polygon3221" />
	</g>
	<g
   id="LWPOLYLINE_24_">
		<polygon
   points="47.3,85.7 47.3,76.8 34.5,76.8 34.5,46.3 25.6,46.3 25.6,85.7   "
   id="polygon3224" />
	</g>
	<g
   id="g3226">
		<path
   d="M87.8,40.7l-0.1-0.8v-3.3l0-0.7l-0.1-0.7l-0.4-0.6l-0.7-0.5L85.7,34l-0.9,0c-1.5-0.2-2.9,0.6-3.3,2.1l1.4,0.3    c0.2-0.7,1-1.1,1.7-1l0.5,0l0.5,0.1l0.2,0.1l0.2,0.2l0.1,0.5v0.5l-0.2,0l-0.3,0l-1.4,0.1l-1.4,0.3l-0.6,0.3L81.7,38l-0.3,0.6    l-0.1,0.7c0,1.2,1,2.2,2.2,2.2c0.1,0,0.1,0,0.2,0c1.1,0.1,2.1-0.6,2.4-1.6l0.1,0.7l0.2,0.8H88L87.8,40.7z M86.1,38.4    c0,0.1,0,0.1,0,0.2c-0.1,0.9-0.9,1.7-1.9,1.6c0,0,0,0-0.1,0c-0.6,0.1-1.2-0.4-1.2-1l0.1-0.5l0.3-0.4l0.4-0.2l0.4-0.1l0.9-0.1    l0.9,0V38.4z"
   id="path3228" />
	</g>
	<g
   id="g3230">
		<path
   d="M64.5,105.6c0.1-1.4-0.9-2.7-2.3-2.8c-0.1,0-0.1,0-0.2,0c-1.4,0-2.6,1.2-2.6,2.6c0,0.1,0,0.1,0,0.2    c-0.1,1.4,0.9,2.7,2.3,2.8c0,0,0.1,0,0.1,0c1.4,0,2.6-1.2,2.6-2.7C64.5,105.7,64.5,105.7,64.5,105.6z M63.2,106.2l-0.2,0.6    l-0.2,0.3l-0.3,0.2l-0.6,0.1l-0.6-0.2l-0.4-0.4l-0.2-0.6l-0.1-0.6l0.1-0.6l0.2-0.6l0.2-0.3l0.2-0.2l0.6-0.1l0.6,0.1l0.2,0.2    l0.2,0.3l0.2,0.6l0.1,0.6L63.2,106.2z"
   id="path3232" />
	</g>
	<g
   id="g3234">
		<path
   d="M74.1,102.8c-0.1,0-0.2,0-0.2,0c-1.4,0-2.6,1.2-2.6,2.6c0,0.1,0,0.2,0,0.2c-0.1,1.4,0.9,2.6,2.3,2.8c0.1,0,0.2,0,0.3,0    c1.1,0,2.1-0.7,2.4-1.7l-1.2-0.1c-0.2,0.5-0.7,0.9-1.2,0.8c-0.1,0-0.2,0-0.3,0c-0.7-0.2-1.2-0.9-1-1.6h3.8l0-0.1    C76.4,104.3,75.5,103,74.1,102.8z M72.5,105c0-0.7,0.6-1.3,1.3-1.3c0,0,0,0,0.1,0c0.7,0,1.2,0.6,1.2,1.3H72.5z"
   id="path3236" />
	</g>
	<g
   id="LWPOLYLINE_30_">
		<path
   d="M80.1,105.1l-1.1-0.2l-0.5-0.1l-0.2-0.1l-0.1-0.1l0-0.1l0-0.1l0.1-0.1l0.1-0.1l0.1-0.1l0.6-0.1l0.5,0.1l0.2,0.2l0.1,0.3    l1.1-0.2c-0.2-0.9-1.1-1.5-2.1-1.4c-1-0.1-1.9,0.6-2,1.6c0,0.1,0,0.1,0,0.2c0,0.9,0.7,1.6,1.6,1.6l1,0.2c0.3,0,0.5,0.2,0.6,0.5    l0,0.2l-0.1,0.2l-0.1,0.1l-0.2,0.1l-0.7,0.1c-0.5,0.1-0.9-0.2-1.1-0.6l-1.2,0.2c0.3,1,1.3,1.6,2.3,1.4l0.7-0.1l0.7-0.2l0.5-0.3    l0.3-0.5l0.1-0.6C81.4,105.9,80.9,105.2,80.1,105.1z"
   id="path3239" />
	</g>
	<g
   id="g3241">
		<path
   d="M46.1,95.2c0.1-1.4-0.9-2.7-2.3-2.8c-0.1,0-0.1,0-0.2,0c-1.4,0-2.6,1.2-2.6,2.6c0,0.1,0,0.1,0,0.2    C41,96.6,42,97.9,43.4,98c0,0,0.1,0,0.1,0c1.4,0,2.6-1.2,2.6-2.7C46.1,95.3,46.1,95.2,46.1,95.2z M44.8,95.8l-0.2,0.6l-0.2,0.3    l-0.3,0.2L43.6,97L43,96.8l-0.4-0.4l-0.2-0.6l-0.1-0.6l0.1-0.6l0.2-0.6l0.2-0.3l0.2-0.2l0.6-0.1l0.6,0.1l0.2,0.2l0.2,0.3l0.2,0.6    l0.1,0.6L44.8,95.8z"
   id="path3243" />
	</g>
	<g
   id="g3245">
		<path
   d="M77.3,34c-0.1,0-0.2,0-0.3,0c-1.9,0-3.5,1.6-3.5,3.5c0,0.1,0,0.2,0,0.3c-0.2,1.9,1.2,3.5,3,3.7c0.1,0,0.2,0,0.3,0    c1.5,0.1,2.8-0.9,3.2-2.3l-1.6-0.1c-0.2,0.7-0.9,1.1-1.6,1.1c-0.1,0-0.2,0-0.3,0c-1-0.2-1.6-1.2-1.4-2.2h5.1l0-0.2    C80.4,35.9,79.1,34.2,77.3,34z M75.2,36.9c0-1,0.8-1.8,1.7-1.8c0,0,0.1,0,0.1,0c0.9,0,1.6,0.8,1.6,1.8H75.2z"
   id="path3247" />
	</g>
	<g
   id="LWPOLYLINE_34_">
		<path
   d="M78.7,94.7l-1.1-0.2l-0.5-0.1l-0.2-0.1l-0.1-0.1l0-0.1l0-0.1l0.1-0.1l0.1-0.1l0.1-0.1l0.6-0.1l0.5,0.1l0.2,0.2l0.1,0.3    l1.1-0.2c-0.2-0.9-1.1-1.5-2.1-1.4c-1-0.1-1.9,0.6-2,1.6c0,0.1,0,0.1,0,0.2c0,0.9,0.7,1.6,1.6,1.6l1,0.2c0.3,0,0.5,0.2,0.6,0.5    l0,0.2l-0.1,0.2l-0.1,0.1l-0.2,0.1L77.7,97c-0.5,0.1-0.9-0.2-1.1-0.6l-1.2,0.2c0.3,1,1.3,1.6,2.3,1.4l0.7-0.1l0.7-0.2l0.5-0.3    l0.3-0.5l0.1-0.6C80,95.5,79.4,94.8,78.7,94.7z"
   id="path3250" />
	</g>
	<g
   id="LWPOLYLINE_35_">
		<path
   d="M83.7,94.7l-1.1-0.2l-0.5-0.1l-0.2-0.1l-0.1-0.1l0-0.1l0-0.1l0.1-0.1l0.1-0.1l0.1-0.1l0.6-0.1l0.5,0.1l0.2,0.2l0.1,0.3    l1.1-0.2c-0.2-0.9-1.1-1.5-2.1-1.4c-1-0.1-1.9,0.6-2,1.6c0,0.1,0,0.1,0,0.2c0,0.9,0.7,1.6,1.6,1.6l1,0.2c0.3,0,0.5,0.2,0.6,0.5    l0,0.2l-0.1,0.2l-0.1,0.1l-0.2,0.1L82.7,97c-0.5,0.1-0.9-0.2-1.1-0.6l-1.2,0.2c0.3,1,1.3,1.6,2.3,1.4l0.7-0.1l0.7-0.2l0.5-0.3    l0.3-0.5l0.1-0.6C85,95.5,84.5,94.8,83.7,94.7z"
   id="path3253" />
	</g>
	<g
   id="g3255">
		<path
   d="M93.4,95.2c0.1-1.4-0.9-2.7-2.3-2.8c-0.1,0-0.1,0-0.2,0c-1.4,0-2.6,1.2-2.6,2.6c0,0.1,0,0.1,0,0.2    c-0.1,1.4,0.9,2.7,2.3,2.8c0,0,0.1,0,0.1,0c1.4,0,2.6-1.2,2.6-2.7C93.4,95.3,93.4,95.2,93.4,95.2z M92.1,95.8l-0.2,0.6l-0.2,0.3    l-0.3,0.2L90.9,97l-0.6-0.2l-0.4-0.4l-0.2-0.6l-0.1-0.6l0.1-0.6l0.2-0.6l0.2-0.3l0.2-0.2l0.6-0.1l0.6,0.1l0.2,0.2l0.2,0.3l0.2,0.6    l0.1,0.6L92.1,95.8z"
   id="path3257" />
	</g>
	<g
   id="g3259">
		<path
   d="M64.5,37.7c0.2-1.9-1.2-3.5-3.1-3.7c-0.1,0-0.1,0-0.2,0c-1.9,0-3.4,1.6-3.4,3.5c0,0.1,0,0.2,0,0.2    c-0.2,1.9,1.2,3.6,3.1,3.8c0.1,0,0.1,0,0.2,0c1.9,0,3.5-1.6,3.4-3.5C64.5,37.9,64.5,37.8,64.5,37.7z M62.8,38.6l-0.3,0.8l-0.2,0.3    L61.9,40l-0.4,0.1l-0.4,0l-0.4,0l-0.4-0.2L60,39.7l-0.2-0.3l-0.3-0.8l-0.1-0.8l0.1-0.8l0.3-0.8l0.2-0.3l0.3-0.3l0.4-0.1l0.4,0    l0.4,0l0.4,0.1l0.3,0.3l0.2,0.3l0.3,0.8l0.1,0.8L62.8,38.6z"
   id="path3261" />
	</g>
</g>
</svg>