<?xml version="1.0" encoding="utf-8"?>
<!-- Generator: Adobe Illustrator 19.2.1, SVG Export Plug-In . SVG Version: 6.00 Build 0)  -->
<svg version="1.1" id="Layer_1" xmlns="http://www.w3.org/2000/svg" xmlns:xlink="http://www.w3.org/1999/xlink" x="0px" y="0px"
	 viewBox="0 0 120 120" enable-background="new 0 0 120 120" xml:space="preserve">
<g id="Layer_4" display="none">
	<circle display="inline" opacity="0.5" fill="#DF1F26" enable-background="new    " cx="60" cy="60" r="60"/>
	<rect x="6.5" y="6.5" display="inline" opacity="0.5" fill="#3B4FA1" enable-background="new    " width="107" height="107"/>
</g>
<g id="normal">
	<g>
		<g>
			
				<linearGradient id="SVGID_1_" gradientUnits="userSpaceOnUse" x1="59.9995" y1="8.066" x2="59.9995" y2="111.933" gradientTransform="matrix(1 0 0 -1 0 120)">
				<stop  offset="0" style="stop-color:#FFFFFF"/>
				<stop  offset="0.1151" style="stop-color:#F6F6F6"/>
				<stop  offset="0.3044" style="stop-color:#DDDDDD"/>
				<stop  offset="0.5445" style="stop-color:#B5B5B5"/>
				<stop  offset="0.823" style="stop-color:#7D7D7D"/>
				<stop  offset="1" style="stop-color:#565656"/>
			</linearGradient>
			<path fill="url(#SVGID_1_)" d="M81.206,8.067H64.625v24.87h20.973L81.206,8.067z M55.414,8.067H38.833l-4.392,24.87h20.973V8.067
				z M64.625,52.986v58.948h34.924L89.154,53.07L64.625,52.986z M6.5,40.991V47.1h9.565v7.074h6.459V47.1h75.912v7.074h6.459V47.1
				h8.604v-6.109L6.5,40.991L6.5,40.991z M20.49,111.934h34.924V52.955L30.92,52.872L20.49,111.934z"/>
		</g>
	</g>
</g>
<g id="active">
	<g>
		<g>
			<linearGradient id="SVGID_2_" gradientUnits="userSpaceOnUse" x1="59.9995" y1="111.934" x2="59.9995" y2="8.067">
				<stop  offset="0" style="stop-color:#FFFFFF"/>
				<stop  offset="0.1174" style="stop-color:#F5F5F5"/>
				<stop  offset="0.3207" style="stop-color:#D8D8D8"/>
				<stop  offset="0.5853" style="stop-color:#ABABAB"/>
				<stop  offset="0.898" style="stop-color:#6C6C6C"/>
				<stop  offset="1" style="stop-color:#565656"/>
			</linearGradient>
			<path fill="url(#SVGID_2_)" d="M81.206,8.067H64.625v24.87h20.973L81.206,8.067z M55.414,8.067H38.833l-4.392,24.87h20.973V8.067
				z M64.625,52.986v58.948h34.924L89.154,53.07L64.625,52.986z M6.5,40.991V47.1h9.565v7.074h6.459V47.1h75.912v7.074h6.459V47.1
				h8.604v-6.109L6.5,40.991L6.5,40.991z M20.49,111.934h34.924V52.955L30.92,52.872L20.49,111.934z"/>
		</g>
	</g>
</g>
<g id="disabled" opacity="0.2">
	<g>
		<g>
			<path fill="#FFFFFF" d="M81.206,8.067H64.625v24.87h20.973L81.206,8.067z M55.414,8.067H38.833l-4.392,24.87h20.973V8.067z
				 M64.625,52.986v58.948h34.924L89.154,53.07L64.625,52.986z M6.5,40.991V47.1h9.565v7.074h6.459V47.1h75.912v7.074h6.459V47.1
				h8.604v-6.109L6.5,40.991L6.5,40.991z M20.49,111.934h34.924V52.955L30.92,52.872L20.49,111.934z"/>
		</g>
	</g>
</g>
</svg>
