<?xml version="1.0" encoding="utf-8"?>
<!-- Generator: Adobe Illustrator 16.0.0, SVG Export Plug-In . SVG Version: 6.00 Build 0)  -->
<!DOCTYPE svg PUBLIC "-//W3C//DTD SVG 1.1//EN" "http://www.w3.org/Graphics/SVG/1.1/DTD/svg11.dtd">
<svg version="1.1" id="Calque_1" xmlns="http://www.w3.org/2000/svg" xmlns:xlink="http://www.w3.org/1999/xlink" x="0px" y="0px"
	 width="114px" height="114px" viewBox="0 0 114 114" enable-background="new 0 0 114 114" xml:space="preserve">
<rect x="6.532" y="23.935" fill="#FFCC33" width="100.168" height="23.234"/>
<linearGradient id="SVGID_1_" gradientUnits="userSpaceOnUse" x1="58.5723" y1="-664.521" x2="58.5723" y2="-639.6509" gradientTransform="matrix(1 0 0 -1 -0.0601 -615.7158)">
	<stop  offset="0" style="stop-color:#990000"/>
	<stop  offset="0.5257" style="stop-color:#FF0000"/>
	<stop  offset="1" style="stop-color:#990000"/>
</linearGradient>
<path fill="url(#SVGID_1_)" d="M11.724,48.805l14.243-24.869h17.548L29.159,48.805H11.724z M42.619,48.805l14.243-24.87h17.55
	L60.05,48.805H42.619z M73.511,48.805l14.244-24.869H105.3L90.944,48.805H73.511z"/>
<linearGradient id="SVGID_2_" gradientUnits="userSpaceOnUse" x1="56.3921" y1="-637.3906" x2="56.3921" y2="-714.2559" gradientTransform="matrix(1 0 0 -1 -0.0601 -615.7158)">
	<stop  offset="0" style="stop-color:#E1DEDB"/>
	<stop  offset="0" style="stop-color:#D8D4D1"/>
	<stop  offset="0.0309" style="stop-color:#C9C6C3"/>
	<stop  offset="0.0902" style="stop-color:#A2A29F"/>
	<stop  offset="0.1712" style="stop-color:#646764"/>
	<stop  offset="0.1771" style="stop-color:#5F6360"/>
	<stop  offset="0.3011" style="stop-color:#B1B3B2"/>
	<stop  offset="0.3636" style="stop-color:#D5D6D6"/>
	<stop  offset="0.3646" style="stop-color:#CECECE"/>
	<stop  offset="0.369" style="stop-color:#B1B1B1"/>
	<stop  offset="0.3715" style="stop-color:#A6A6A6"/>
	<stop  offset="0.516" style="stop-color:#AFAFB0"/>
	<stop  offset="0.7586" style="stop-color:#C8C8CA"/>
	<stop  offset="0.8696" style="stop-color:#D6D6D8"/>
	<stop  offset="0.8925" style="stop-color:#A7A8AB"/>
	<stop  offset="0.912" style="stop-color:#7C7E82"/>
	<stop  offset="0.9275" style="stop-color:#808286"/>
	<stop  offset="0.9431" style="stop-color:#8C8E92"/>
	<stop  offset="0.9586" style="stop-color:#A0A1A5"/>
	<stop  offset="0.9605" style="stop-color:#A3A4A8"/>
	<stop  offset="1" style="stop-color:#979695"/>
</linearGradient>
<path fill="url(#SVGID_2_)" d="M106.063,21.675H6.6c-1.248,0-2.26,1.012-2.26,2.26v24.869c0,1.246,1.012,2.259,2.26,2.259h13.561
	v38.429c0,1.251-9.04,2.263-9.04,2.263c-1.248,0-2.261,1.013-2.261,2.263v2.26c0,1.248,1.012,2.263,2.261,2.263h27.126
	c1.248,0,2.26-1.015,2.26-2.263v-2.26c0-1.25-1.011-2.263-2.26-2.263c0,0-9.043-1.012-9.043-2.263v-38.43h54.254v38.431
	c0,1.248-9.041,2.261-9.041,2.261c-1.248,0-2.263,1.014-2.263,2.262v2.262c0,1.246,1.013,2.26,2.263,2.26h27.123
	c1.25,0,2.264-1.014,2.264-2.26v-2.262c0-1.248-1.014-2.262-2.264-2.262c0,0-9.039-1.013-9.039-2.261V51.062h13.562
	c1.249,0,2.263-1.011,2.263-2.259V23.934C108.325,22.687,107.318,21.675,106.063,21.675z M103.804,44.282
	c0,1.247-1.014,2.26-2.264,2.26H11.121c-1.248,0-2.261-1.013-2.261-2.26V28.456c0-1.247,1.012-2.26,2.261-2.26h90.423
	c1.246,0,2.261,1.013,2.261,2.26L103.804,44.282L103.804,44.282z"/>
<radialGradient id="SVGID_3_" cx="84.4766" cy="814.7559" r="27.1255" gradientTransform="matrix(1 0 0 1 -0.04 -728.8105)" gradientUnits="userSpaceOnUse">
	<stop  offset="0.264" style="stop-color:#3A3D3B"/>
	<stop  offset="0.2742" style="stop-color:#414442"/>
	<stop  offset="0.371" style="stop-color:#838584"/>
	<stop  offset="0.4524" style="stop-color:#B3B4B4"/>
	<stop  offset="0.5142" style="stop-color:#D1D1D2"/>
	<stop  offset="0.5493" style="stop-color:#DCDCDD"/>
	<stop  offset="0.576" style="stop-color:#D2D2D4"/>
	<stop  offset="0.6208" style="stop-color:#B8B9BA"/>
	<stop  offset="0.6482" style="stop-color:#A5A6A8"/>
	<stop  offset="0.6511" style="stop-color:#7C7E82"/>
	<stop  offset="0.8775" style="stop-color:#D9D8D6"/>
	<stop  offset="1" style="stop-color:#C9C8C8"/>
</radialGradient>
<path fill="url(#SVGID_3_)" stroke="#000000" stroke-width="0.5" stroke-miterlimit="10" d="M110.854,92.611
	c-0.034,0.129-0.068,0.26-0.104,0.393c-0.396,1.48-0.907,2.896-1.521,4.247c-1.529-0.081-3.422-0.278-5.684-0.615
	c-0.643,1.148-1.375,2.23-2.197,3.229c1.133,1.984,2.01,3.671,2.636,5.063c-1.147,1.186-2.397,2.252-3.729,3.204
	c-1.282-0.835-2.822-1.959-4.613-3.373c-1.12,0.666-2.295,1.236-3.521,1.693c-0.013,2.286-0.086,4.187-0.25,5.706
	c-1.565,0.445-3.186,0.752-4.826,0.913c-0.699-1.363-1.471-3.101-2.314-5.233c-1.286,0.023-2.588-0.08-3.893-0.297
	c-1.147,1.97-2.17,3.577-3.07,4.822c-0.133-0.034-0.262-0.069-0.389-0.1c-1.484-0.396-2.897-0.91-4.243-1.522
	c0.071-1.532,0.276-3.425,0.61-5.681c-1.148-0.646-2.229-1.381-3.228-2.207c-1.985,1.138-3.67,2.015-5.067,2.641
	c-1.181-1.148-2.254-2.396-3.201-3.729c0.832-1.285,1.959-2.824,3.373-4.613c-0.668-1.122-1.235-2.301-1.69-3.524
	c-2.288-0.01-4.188-0.09-5.716-0.249c-0.443-1.566-0.752-3.186-0.905-4.828c1.36-0.701,3.103-1.475,5.231-2.313
	c-0.021-1.288,0.082-2.592,0.299-3.893c-1.973-1.147-3.582-2.176-4.82-3.074c0.026-0.131,0.063-0.262,0.096-0.385
	c0.394-1.484,0.91-2.9,1.521-4.252c1.534,0.076,3.426,0.28,5.687,0.614c0.646-1.146,1.379-2.229,2.2-3.229
	c-1.133-1.983-2.015-3.67-2.637-5.066c1.147-1.18,2.396-2.251,3.728-3.195c1.286,0.83,2.826,1.954,4.617,3.368
	c1.12-0.669,2.297-1.233,3.518-1.692c0.015-2.285,0.095-4.184,0.25-5.705c1.569-0.443,3.188-0.756,4.826-0.91
	c0.697,1.359,1.467,3.103,2.313,5.229c1.289-0.02,2.589,0.083,3.895,0.303c1.151-1.975,2.178-3.58,3.071-4.819
	c0.135,0.028,0.265,0.065,0.388,0.094c1.479,0.397,2.898,0.907,4.252,1.521c-0.076,1.535-0.279,3.424-0.611,5.688
	c1.145,0.639,2.229,1.377,3.228,2.201c1.981-1.143,3.671-2.018,5.063-2.639c1.188,1.146,2.25,2.398,3.201,3.726
	c-0.832,1.285-1.959,2.828-3.375,4.614c0.672,1.117,1.237,2.301,1.692,3.518c2.29,0.02,4.187,0.098,5.706,0.255
	c0.447,1.567,0.755,3.188,0.914,4.826c-1.359,0.698-3.105,1.472-5.229,2.313c0.02,1.285-0.078,2.59-0.299,3.893
	C108.005,90.693,109.614,91.715,110.854,92.611L110.854,92.611z M88.286,71.557c-7.949-2.129-16.115,2.588-18.25,10.533
	c-2.127,7.948,2.594,16.118,10.537,18.248c7.949,2.13,16.118-2.588,18.248-10.533C100.948,81.854,96.232,73.688,88.286,71.557
	L88.286,71.557z"/>
</svg>
