<?xml version="1.0" encoding="utf-8"?>
<!-- Generator: Adobe Illustrator 19.2.1, SVG Export Plug-In . SVG Version: 6.00 Build 0)  -->
<svg version="1.1"
	 id="Слой_1" inkscape:version="0.48.5 r10040" sodipodi:docname="ico_address.svg" xmlns:cc="http://creativecommons.org/ns#" xmlns:dc="http://purl.org/dc/elements/1.1/" xmlns:inkscape="http://www.inkscape.org/namespaces/inkscape" xmlns:rdf="http://www.w3.org/1999/02/22-rdf-syntax-ns#" xmlns:sodipodi="http://sodipodi.sourceforge.net/DTD/sodipodi-0.dtd" xmlns:svg="http://www.w3.org/2000/svg"
	 xmlns="http://www.w3.org/2000/svg" xmlns:xlink="http://www.w3.org/1999/xlink" x="0px" y="0px" viewBox="0 0 120 120"
	 enable-background="new 0 0 120 120" xml:space="preserve">
<sodipodi:namedview  bordercolor="#666666" borderopacity="1" gridtolerance="10" guidetolerance="10" id="namedview3117" inkscape:current-layer="Слой_1" inkscape:cx="60" inkscape:cy="60" inkscape:pageopacity="0" inkscape:pageshadow="2" inkscape:window-height="1147" inkscape:window-maximized="1" inkscape:window-width="1600" inkscape:window-x="-8" inkscape:window-y="-8" inkscape:zoom="7.75" objecttolerance="10" pagecolor="#ffffff" showgrid="false">
	</sodipodi:namedview>
<g id="Layer_4" display="none">
	<circle id="circle3056" display="inline" opacity="0.5" fill="#DF1F26" enable-background="new    " cx="62" cy="60" r="60"/>
	
		<rect id="rect3058" x="8.5" y="6.5" display="inline" opacity="0.5" fill="#3B4FA1" enable-background="new    " width="107" height="107"/>
</g>
<g id="normal">
	<g id="g3061">
		<g id="g3063">
			<path id="path3065" fill="#EFCE2E" d="M114.708,57.223l5.149-40.979L82.918,2.094L38.607,23.456L0,6.999l5.213,43.72L0.217,93.77
				l41.021,7.769l41.838-8.043l36.924,8.6L114.708,57.223z M82.782,6.435l32.721,12.443l-2.253,17.92l-32.613-8.326L82.782,6.435z
				 M4.831,13.427l16.872,7.191c-0.048,2.373-0.58,5.817-2.885,8.627c-2.404,2.927-6.229,4.563-11.385,4.893L4.831,13.427z
				 M55.264,94.742c-0.16-2.84,0.025-8.03,2.741-12.658c-0.78,0.514-1.598,0.977-2.446,1.395c-1.931,4.461-2.01,8.983-1.833,11.558
				L41.232,97.44l-0.351-0.065l1.19-11.407c-1.332-0.089-2.656-0.256-3.958-0.502L36.95,96.632l-18.122-3.433l2.618-16.985
				l0.348-0.28c-0.31-0.414-0.599-0.845-0.879-1.283l-0.9,0.729l-2.701,17.53l-12.7-2.402l4.149-35.16l8.934,1.396
				c0.193-1.339,0.479-2.661,0.878-3.938l-9.339-1.459L7.629,35.681c5.547-0.369,9.708-2.19,12.374-5.442
				c2.403-2.927,3.095-6.388,3.228-8.97l13.578,5.788l1.182,10.546c1.287-0.35,2.59-0.679,3.901-1.009l-1.091-9.735l37.652-18.15
				l-1.727,18.764l-0.027-0.008l-22.581,2.938l-0.136,0.504c-0.016,0.063-0.944,3.514-2.268,7.24
				c0.489,0.175,0.969,0.359,1.439,0.562c1.066-2.985,1.869-5.774,2.179-6.898l21.246-2.769L75,50.56l-8.951,1.361
				c0.499,1.243,0.905,2.54,1.215,3.885l8.125-1.236l1.604,16.515c-4.43,0.209-8.251,1.049-11.475,2.482
				c-0.424,0.859-0.886,1.689-1.406,2.474c3.423-2.019,7.771-3.164,13.025-3.404l1.705,17.57L55.264,94.742z M80.493,30.036
				l32.565,8.312l-1.953,15.527l-32.154-3.918L80.493,30.036z M106.676,67.289L91.861,65.51l2.715,26.529l-11.87-2.576l-3.367-35.49
				l0.349-0.056l31.084,3.983l4.6,38.98l-19.235-4.479L93.599,67.28l13.204,1.549L106.676,67.289z"/>
		</g>
	</g>
	<g id="g3067">
		<g id="g3069">
			<g id="g3071">
				<linearGradient id="path3073_1_" gradientUnits="userSpaceOnUse" x1="55.2604" y1="83.7366" x2="99.7385" y2="109.416">
					<stop  offset="0" style="stop-color:#FFFFFF"/>
					<stop  offset="0.3717" style="stop-color:#C3C3C3"/>
					<stop  offset="1" style="stop-color:#565656"/>
				</linearGradient>
				<path id="path3073" fill="url(#path3073_1_)" d="M96.063,99.917L68.268,74.125c-4.141,5.977-9.621,11.061-16.062,14.902
					l27.796,25.789c4.439,4.119,11.633,4.119,16.061,0C100.501,110.709,100.501,104.031,96.063,99.917z"/>
				<linearGradient id="path3075_1_" gradientUnits="userSpaceOnUse" x1="16.0155" y1="47.0917" x2="67.9846" y2="77.0961">
					<stop  offset="0" style="stop-color:#FFFFFF"/>
					<stop  offset="0.3717" style="stop-color:#C3C3C3"/>
					<stop  offset="1" style="stop-color:#565656"/>
				</linearGradient>
				<path id="path3075" fill="url(#path3075_1_)" d="M72,62.094c0-16.566-13.431-30-30-30c-16.568,0-30,13.434-30,30
					s13.432,30,30,30C58.569,92.092,72,78.66,72,62.094z M42,84.593c-12.407,0-22.5-10.093-22.5-22.499
					c0-12.407,10.093-22.5,22.5-22.5c12.408,0,22.502,10.093,22.502,22.5C64.502,74.5,54.408,84.593,42,84.593z"/>
				<linearGradient id="path3077_1_" gradientUnits="userSpaceOnUse" x1="28.4492" y1="50.5723" x2="38.1887" y2="56.1954">
					<stop  offset="0" style="stop-color:#FFFFFF"/>
					<stop  offset="0.3717" style="stop-color:#C3C3C3"/>
					<stop  offset="1" style="stop-color:#565656"/>
				</linearGradient>
				<path id="path3077" fill="url(#path3077_1_)" d="M24.5,62.094h5c0-6.892,5.608-12.5,12.5-12.5v-5
					C32.352,44.594,24.5,52.445,24.5,62.094z"/>
			</g>
		</g>
	</g>
</g>
</svg>
