<?xml version="1.0" encoding="utf-8"?>
<!-- Generator: Adobe Illustrator 16.0.0, SVG Export Plug-In . SVG Version: 6.00 Build 0)  -->
<!DOCTYPE svg PUBLIC "-//W3C//DTD SVG 1.1//EN" "http://www.w3.org/Graphics/SVG/1.1/DTD/svg11.dtd">
<svg version="1.1" id="Слой_1" xmlns="http://www.w3.org/2000/svg" xmlns:xlink="http://www.w3.org/1999/xlink" x="0px" y="0px"
	 width="120px" height="120px" viewBox="0 0 120 120" enable-background="new 0 0 120 120" xml:space="preserve">
<g id="Layer_2" display="none">
	<linearGradient id="SVGID_1_" gradientUnits="userSpaceOnUse" x1="60.0005" y1="120" x2="60.0005" y2="4.882813e-004">
		<stop  offset="0" style="stop-color:#E1DEDB"/>
		<stop  offset="0" style="stop-color:#D8D4D1"/>
		<stop  offset="0.0553" style="stop-color:#C9C5C3"/>
		<stop  offset="0.161" style="stop-color:#A49E9F"/>
		<stop  offset="0.264" style="stop-color:#797377"/>
		<stop  offset="0.5225" style="stop-color:#F2F2F2"/>
		<stop  offset="0.5775" style="stop-color:#E4E3E3"/>
		<stop  offset="0.6832" style="stop-color:#BFBCBD"/>
		<stop  offset="0.8274" style="stop-color:#837E7F"/>
		<stop  offset="0.8764" style="stop-color:#6D6769"/>
		<stop  offset="1" style="stop-color:#C9C8C8"/>
		<stop  offset="1" style="stop-color:#979695"/>
	</linearGradient>
	<linearGradient id="SVGID_2_" gradientUnits="userSpaceOnUse" x1="90.2549" y1="112.4033" x2="29.7446" y2="7.5965">
		<stop  offset="0" style="stop-color:#E1DEDB"/>
		<stop  offset="0" style="stop-color:#D8D4D1"/>
		<stop  offset="0.0369" style="stop-color:#C9C6C3"/>
		<stop  offset="0.1078" style="stop-color:#A2A19E"/>
		<stop  offset="0.2045" style="stop-color:#646563"/>
		<stop  offset="0.264" style="stop-color:#3A3D3B"/>
		<stop  offset="0.2751" style="stop-color:#414442"/>
		<stop  offset="0.3799" style="stop-color:#838584"/>
		<stop  offset="0.468" style="stop-color:#B3B4B4"/>
		<stop  offset="0.535" style="stop-color:#D1D1D2"/>
		<stop  offset="0.573" style="stop-color:#DCDCDD"/>
		<stop  offset="0.6269" style="stop-color:#D2D2D4"/>
		<stop  offset="0.7175" style="stop-color:#B8B9BB"/>
		<stop  offset="0.8332" style="stop-color:#8E8F93"/>
		<stop  offset="0.8764" style="stop-color:#7C7E82"/>
		<stop  offset="1" style="stop-color:#C9C8C8"/>
		<stop  offset="1" style="stop-color:#979695"/>
	</linearGradient>
	
		<circle display="inline" opacity="0.5" fill="url(#SVGID_1_)" stroke="url(#SVGID_2_)" stroke-miterlimit="10" enable-background="new    " cx="60" cy="60" r="60"/>
	<linearGradient id="SVGID_3_" gradientUnits="userSpaceOnUse" x1="60.0005" y1="113.5" x2="60.0005" y2="6.5005">
		<stop  offset="0" style="stop-color:#E1DEDB"/>
		<stop  offset="0" style="stop-color:#D8D4D1"/>
		<stop  offset="0.0553" style="stop-color:#C9C5C3"/>
		<stop  offset="0.161" style="stop-color:#A49E9F"/>
		<stop  offset="0.264" style="stop-color:#797377"/>
		<stop  offset="0.5225" style="stop-color:#F2F2F2"/>
		<stop  offset="0.5775" style="stop-color:#E4E3E3"/>
		<stop  offset="0.6832" style="stop-color:#BFBCBD"/>
		<stop  offset="0.8274" style="stop-color:#837E7F"/>
		<stop  offset="0.8764" style="stop-color:#6D6769"/>
		<stop  offset="1" style="stop-color:#C9C8C8"/>
		<stop  offset="1" style="stop-color:#979695"/>
	</linearGradient>
	<linearGradient id="SVGID_4_" gradientUnits="userSpaceOnUse" x1="96.8828" y1="123.8828" x2="23.1177" y2="-3.8821">
		<stop  offset="0" style="stop-color:#E1DEDB"/>
		<stop  offset="0" style="stop-color:#D8D4D1"/>
		<stop  offset="0.0369" style="stop-color:#C9C6C3"/>
		<stop  offset="0.1078" style="stop-color:#A2A19E"/>
		<stop  offset="0.2045" style="stop-color:#646563"/>
		<stop  offset="0.264" style="stop-color:#3A3D3B"/>
		<stop  offset="0.2751" style="stop-color:#414442"/>
		<stop  offset="0.3799" style="stop-color:#838584"/>
		<stop  offset="0.468" style="stop-color:#B3B4B4"/>
		<stop  offset="0.535" style="stop-color:#D1D1D2"/>
		<stop  offset="0.573" style="stop-color:#DCDCDD"/>
		<stop  offset="0.6269" style="stop-color:#D2D2D4"/>
		<stop  offset="0.7175" style="stop-color:#B8B9BB"/>
		<stop  offset="0.8332" style="stop-color:#8E8F93"/>
		<stop  offset="0.8764" style="stop-color:#7C7E82"/>
		<stop  offset="1" style="stop-color:#C9C8C8"/>
		<stop  offset="1" style="stop-color:#979695"/>
	</linearGradient>
	
		<rect x="6.5" y="6.5" display="inline" opacity="0.5" fill="url(#SVGID_3_)" stroke="url(#SVGID_4_)" stroke-miterlimit="10" enable-background="new    " width="107" height="107"/>
</g>
<g id="normal">
	<linearGradient id="SVGID_5_" gradientUnits="userSpaceOnUse" x1="60.0005" y1="100" x2="60.0005" y2="20.5034">
		<stop  offset="0" style="stop-color:#E1DEDB"/>
		<stop  offset="0" style="stop-color:#D8D4D1"/>
		<stop  offset="0.0553" style="stop-color:#C9C5C3"/>
		<stop  offset="0.161" style="stop-color:#A49E9F"/>
		<stop  offset="0.264" style="stop-color:#797377"/>
		<stop  offset="0.5225" style="stop-color:#F2F2F2"/>
		<stop  offset="0.5775" style="stop-color:#E4E3E3"/>
		<stop  offset="0.6832" style="stop-color:#BFBCBD"/>
		<stop  offset="0.8274" style="stop-color:#837E7F"/>
		<stop  offset="0.8764" style="stop-color:#6D6769"/>
		<stop  offset="1" style="stop-color:#C9C8C8"/>
		<stop  offset="1" style="stop-color:#979695"/>
	</linearGradient>
	<linearGradient id="SVGID_6_" gradientUnits="userSpaceOnUse" x1="82.1738" y1="108.2109" x2="28.9707" y2="16.0604">
		<stop  offset="0" style="stop-color:#E1DEDB"/>
		<stop  offset="0" style="stop-color:#D8D4D1"/>
		<stop  offset="0.0369" style="stop-color:#C9C6C3"/>
		<stop  offset="0.1078" style="stop-color:#A2A19E"/>
		<stop  offset="0.2045" style="stop-color:#646563"/>
		<stop  offset="0.264" style="stop-color:#3A3D3B"/>
		<stop  offset="0.2751" style="stop-color:#414442"/>
		<stop  offset="0.3799" style="stop-color:#838584"/>
		<stop  offset="0.468" style="stop-color:#B3B4B4"/>
		<stop  offset="0.535" style="stop-color:#D1D1D2"/>
		<stop  offset="0.573" style="stop-color:#DCDCDD"/>
		<stop  offset="0.6269" style="stop-color:#D2D2D4"/>
		<stop  offset="0.7175" style="stop-color:#B8B9BB"/>
		<stop  offset="0.8332" style="stop-color:#8E8F93"/>
		<stop  offset="0.8764" style="stop-color:#7C7E82"/>
		<stop  offset="1" style="stop-color:#C9C8C8"/>
		<stop  offset="1" style="stop-color:#979695"/>
	</linearGradient>
	<path fill="url(#SVGID_5_)" stroke="url(#SVGID_6_)" stroke-miterlimit="10" d="M52.596,99.58H6.5
		c0-34.293,33.069-33.512,33.069-58.009c0-6.457-2.783-11.913-9.798-11.913c-9.463,0-11.022,8.462-11.022,16.478H6.723
		c0-15.697,6.46-25.385,23.271-25.385c16.145,0,22.269,9.575,22.269,21.043c0,26.166-25.608,27.836-31.622,47.099h31.955V99.58z
		 M85.443,100H62.842V20.503h22.602c24.94,0,28.057,16.258,28.057,39.749C113.5,83.745,110.384,100,85.443,100L85.443,100z
		 M86,30.078H75.533v60.346H86c10.466,0,14.809-6.902,14.809-30.173C100.809,37.872,97.021,30.078,86,30.078L86,30.078z"/>
</g>
<g id="active">
	<linearGradient id="SVGID_7_" gradientUnits="userSpaceOnUse" x1="60.0005" y1="100" x2="60.0005" y2="20.5034">
		<stop  offset="0" style="stop-color:#E1DEDB"/>
		<stop  offset="0" style="stop-color:#D8D4D1"/>
		<stop  offset="0.0553" style="stop-color:#C9C5C3"/>
		<stop  offset="0.161" style="stop-color:#A49E9F"/>
		<stop  offset="0.264" style="stop-color:#797377"/>
		<stop  offset="0.5225" style="stop-color:#F2F2F2"/>
		<stop  offset="0.5775" style="stop-color:#E4E3E3"/>
		<stop  offset="0.6832" style="stop-color:#BFBCBD"/>
		<stop  offset="0.8274" style="stop-color:#837E7F"/>
		<stop  offset="0.8764" style="stop-color:#6D6769"/>
		<stop  offset="1" style="stop-color:#C9C8C8"/>
		<stop  offset="1" style="stop-color:#979695"/>
	</linearGradient>
	<linearGradient id="SVGID_8_" gradientUnits="userSpaceOnUse" x1="82.1738" y1="108.2109" x2="28.9707" y2="16.0604">
		<stop  offset="0" style="stop-color:#E1DEDB"/>
		<stop  offset="0" style="stop-color:#D8D4D1"/>
		<stop  offset="0.0369" style="stop-color:#C9C6C3"/>
		<stop  offset="0.1078" style="stop-color:#A2A19E"/>
		<stop  offset="0.2045" style="stop-color:#646563"/>
		<stop  offset="0.264" style="stop-color:#3A3D3B"/>
		<stop  offset="0.2751" style="stop-color:#414442"/>
		<stop  offset="0.3799" style="stop-color:#838584"/>
		<stop  offset="0.468" style="stop-color:#B3B4B4"/>
		<stop  offset="0.535" style="stop-color:#D1D1D2"/>
		<stop  offset="0.573" style="stop-color:#DCDCDD"/>
		<stop  offset="0.6269" style="stop-color:#D2D2D4"/>
		<stop  offset="0.7175" style="stop-color:#B8B9BB"/>
		<stop  offset="0.8332" style="stop-color:#8E8F93"/>
		<stop  offset="0.8764" style="stop-color:#7C7E82"/>
		<stop  offset="1" style="stop-color:#C9C8C8"/>
		<stop  offset="1" style="stop-color:#979695"/>
	</linearGradient>
	<path fill="url(#SVGID_7_)" stroke="url(#SVGID_8_)" stroke-miterlimit="10" d="M52.596,99.58H6.5
		c0-34.293,33.069-33.512,33.069-58.009c0-6.457-2.783-11.913-9.798-11.913c-9.463,0-11.022,8.462-11.022,16.478H6.723
		c0-15.697,6.46-25.385,23.271-25.385c16.145,0,22.269,9.575,22.269,21.043c0,26.166-25.608,27.836-31.622,47.099h31.955V99.58z
		 M85.443,100H62.842V20.503h22.602c24.94,0,28.057,16.258,28.057,39.749C113.5,83.745,110.384,100,85.443,100L85.443,100z
		 M86,30.078H75.533v60.346H86c10.466,0,14.809-6.902,14.809-30.173C100.809,37.872,97.021,30.078,86,30.078L86,30.078z"/>
</g>
<g id="disabled" opacity="0.2">
	<linearGradient id="SVGID_9_" gradientUnits="userSpaceOnUse" x1="60.0005" y1="100" x2="60.0005" y2="20.5034">
		<stop  offset="0" style="stop-color:#E1DEDB"/>
		<stop  offset="0" style="stop-color:#D8D4D1"/>
		<stop  offset="0.0553" style="stop-color:#C9C5C3"/>
		<stop  offset="0.161" style="stop-color:#A49E9F"/>
		<stop  offset="0.264" style="stop-color:#797377"/>
		<stop  offset="0.5225" style="stop-color:#F2F2F2"/>
		<stop  offset="0.5775" style="stop-color:#E4E3E3"/>
		<stop  offset="0.6832" style="stop-color:#BFBCBD"/>
		<stop  offset="0.8274" style="stop-color:#837E7F"/>
		<stop  offset="0.8764" style="stop-color:#6D6769"/>
		<stop  offset="1" style="stop-color:#C9C8C8"/>
		<stop  offset="1" style="stop-color:#979695"/>
	</linearGradient>
	<linearGradient id="SVGID_10_" gradientUnits="userSpaceOnUse" x1="82.1738" y1="108.2109" x2="28.9707" y2="16.0604">
		<stop  offset="0" style="stop-color:#E1DEDB"/>
		<stop  offset="0" style="stop-color:#D8D4D1"/>
		<stop  offset="0.0369" style="stop-color:#C9C6C3"/>
		<stop  offset="0.1078" style="stop-color:#A2A19E"/>
		<stop  offset="0.2045" style="stop-color:#646563"/>
		<stop  offset="0.264" style="stop-color:#3A3D3B"/>
		<stop  offset="0.2751" style="stop-color:#414442"/>
		<stop  offset="0.3799" style="stop-color:#838584"/>
		<stop  offset="0.468" style="stop-color:#B3B4B4"/>
		<stop  offset="0.535" style="stop-color:#D1D1D2"/>
		<stop  offset="0.573" style="stop-color:#DCDCDD"/>
		<stop  offset="0.6269" style="stop-color:#D2D2D4"/>
		<stop  offset="0.7175" style="stop-color:#B8B9BB"/>
		<stop  offset="0.8332" style="stop-color:#8E8F93"/>
		<stop  offset="0.8764" style="stop-color:#7C7E82"/>
		<stop  offset="1" style="stop-color:#C9C8C8"/>
		<stop  offset="1" style="stop-color:#979695"/>
	</linearGradient>
	<path fill="url(#SVGID_9_)" stroke="url(#SVGID_10_)" stroke-miterlimit="10" d="M52.596,99.58H6.5
		c0-34.293,33.069-33.512,33.069-58.009c0-6.457-2.783-11.913-9.798-11.913c-9.463,0-11.022,8.462-11.022,16.478H6.723
		c0-15.697,6.46-25.385,23.271-25.385c16.145,0,22.269,9.575,22.269,21.043c0,26.166-25.608,27.836-31.622,47.099h31.955V99.58z
		 M85.443,100H62.842V20.503h22.602c24.94,0,28.057,16.258,28.057,39.749C113.5,83.745,110.384,100,85.443,100L85.443,100z
		 M86,30.078H75.533v60.346H86c10.466,0,14.809-6.902,14.809-30.173C100.809,37.872,97.021,30.078,86,30.078L86,30.078z"/>
</g>
</svg>
