<?xml version="1.0" encoding="utf-8"?>
<!-- Generator: Adobe Illustrator 19.2.1, SVG Export Plug-In . SVG Version: 6.00 Build 0)  -->
<svg version="1.1" id="Слой_1" xmlns="http://www.w3.org/2000/svg" xmlns:xlink="http://www.w3.org/1999/xlink" x="0px" y="0px"
	 viewBox="0 0 120 120" enable-background="new 0 0 120 120" xml:space="preserve">
<g id="Layer_4" display="none">
	<circle display="inline" opacity="0.5" fill="#DF1F26" enable-background="new    " cx="60" cy="60" r="60"/>
	<rect x="6.5" y="6.5" display="inline" opacity="0.5" fill="#3B4FA1" enable-background="new    " width="107" height="107"/>
</g>
<g id="normal_1_" transform="matrix(.46448,0,0,.46448,-22.61162,-6.93346)">
	<path fill="#FFBB00" d="M255.005,224.886c-0.317,0.341-42.094-19.604-42.472-19.33c-0.378,0.273,5.376,46.204,4.951,46.398
		c-0.425,0.193-31.388-34.216-31.842-34.111c-0.452,0.109-12.716,44.745-13.18,44.762c-0.467,0.017-15.905-43.622-16.366-43.698
		c-0.46-0.076-28.87,36.474-29.308,36.31c-0.437-0.164,2.002-46.389,1.604-46.633c-0.397-0.248-40.631,22.648-40.973,22.328
		c-0.341-0.315,19.601-42.092,19.329-42.47c-0.273-0.378-46.205,5.374-46.399,4.949c-0.194-0.425,34.217-31.386,34.11-31.84
		s-44.745-12.716-44.762-13.183s43.624-15.903,43.699-16.364c0.075-0.46-36.473-28.871-36.31-29.309
		c0.163-0.437,46.389,2.002,46.635,1.604c0.245-0.396-22.648-40.631-22.33-40.972c0.317-0.342,42.093,19.601,42.471,19.328
		c0.378-0.272-5.375-46.204-4.95-46.399c0.424-0.193,31.387,34.218,31.841,34.111c0.454-0.108,12.716-44.745,13.183-44.762
		c0.467-0.017,15.903,43.624,16.364,43.698c0.46,0.075,28.871-36.472,29.309-36.309s-2.002,46.389-1.604,46.634
		c0.397,0.245,40.631-22.648,40.973-22.329c0.341,0.317-19.601,42.093-19.33,42.471c0.273,0.378,46.206-5.376,46.4-4.951
		c0.193,0.425-34.218,31.387-34.111,31.841c0.109,0.454,44.745,12.717,44.762,13.183c0.017,0.467-43.624,15.904-43.698,16.363
		c-0.076,0.463,36.472,28.871,36.31,29.309c-0.164,0.437-46.389-2.002-46.635-1.602
		C232.428,184.308,255.322,224.541,255.005,224.886L255.005,224.886z"/>
	
		<radialGradient id="SVGID_1_" cx="799.0758" cy="-48.9356" r="43.3558" gradientTransform="matrix(7.340698e-008 -0.5806 0.6107 7.687808e-008 198.0841 608.049)" gradientUnits="userSpaceOnUse">
		<stop  offset="0" style="stop-color:#FFFDBC"/>
		<stop  offset="1" style="stop-color:#FCFF00"/>
	</radialGradient>
	<path fill="url(#SVGID_1_)" d="M248.748,219.062c-0.263,0.282-35.9-13.733-36.215-13.506c-0.313,0.227,1.751,38.467,1.4,38.627
		s-27.915-26.428-28.289-26.34c-0.376,0.093-13.105,36.209-13.49,36.222c-0.387,0.017-15.676-35.095-16.059-35.158
		c-0.381-0.059-25.961,28.438-26.323,28.304c-0.363-0.135-1.051-38.425-1.38-38.627c-0.329-0.206-34.868,16.336-35.151,16.071
		c-0.283-0.261,13.733-35.898,13.507-36.213s-38.466,1.749-38.627,1.4c-0.161-0.353,26.427-27.917,26.338-28.291
		s-36.208-13.103-36.222-13.49c-0.014-0.387,35.097-15.675,35.159-16.057c0.062-0.382-28.437-25.961-28.302-26.324
		c0.135-0.362,38.423-1.051,38.627-1.38c0.203-0.328-16.337-34.868-16.074-35.15c0.263-0.283,35.901,13.733,36.214,13.506
		c0.313-0.226-1.75-38.465-1.399-38.626c0.352-0.161,27.914,26.426,28.29,26.338c0.376-0.089,13.103-36.208,13.49-36.222
		c0.387-0.014,15.676,35.097,16.057,35.159c0.383,0.061,25.962-28.437,26.325-28.303c0.362,0.136,1.051,38.424,1.379,38.627
		c0.328,0.204,34.868-16.336,35.151-16.074c0.282,0.263-13.733,35.901-13.506,36.215c0.225,0.313,38.465-1.75,38.625-1.399
		c0.162,0.352-26.426,27.914-26.338,28.29c0.09,0.375,36.209,13.103,36.222,13.489c0.015,0.387-35.097,15.677-35.158,16.056
		c-0.061,0.383,28.436,25.961,28.302,26.323c-0.135,0.366-38.423,1.055-38.627,1.383
		C232.472,184.241,249.011,218.78,248.748,219.062L248.748,219.062z"/>
	
		<linearGradient id="SVGID_2_" gradientUnits="userSpaceOnUse" x1="359.7428" y1="-1042.2072" x2="359.7428" y2="-997.5038" gradientTransform="matrix(0.5802 0 0 0.5802 -43.9722 662.7075)">
		<stop  offset="0" style="stop-color:#FFFFFF;stop-opacity:0.375"/>
		<stop  offset="1" style="stop-color:#FFFFFF;stop-opacity:0"/>
	</linearGradient>
	<path fill="url(#SVGID_2_)" d="M165.853,58.259c-3.827-0.179-7.325,2.149-8.639,5.747c-0.21,0.578-0.521,1.406-0.723,1.95
		c-0.627,1.701-1.156,3.118-1.562,4.168c-0.229,0.594-0.37,0.958-0.505,1.277c-0.061,0.147-0.034,0.096-0.235,0.505
		c-0.286,0.578,0.006,0.038-0.235,0.42c-0.309,0.49,0.019,0.044-0.37,0.487c-0.549,0.627-0.513,0.615-0.654,0.791
		c-0.231,0.091-0.557,0.225-1.312,0.403c-0.746,0.178-1.081,0.213-1.327,0.235c-0.206-0.094-0.174-0.101-0.959-0.42
		c-0.549-0.223-0.069,0.024-0.555-0.268c-0.423-0.255,0.04,0.053-0.387-0.269c-0.322-0.243-0.235-0.182-0.437-0.353
		c-0.284-0.243-0.572-0.496-1.024-0.907c-0.839-0.762-1.957-1.788-3.278-3.025c-0.284-0.266-0.927-0.911-1.512-1.462
		c-2.597-2.442-6.413-3.069-9.653-1.585c-3.24,1.483-5.258,4.782-5.106,8.342c0.025,0.602,0.06,1.5,0.084,2.118
		c0.075,1.849,0.142,3.384,0.168,4.453c0.014,0.547,0.02,0.894,0.017,1.345c-0.003,0.427,0.004,0.261-0.017,0.572
		c-0.028,0.432,0.021-0.027-0.067,0.488c-0.101,0.584,0.04,0.023-0.151,0.588c-0.267,0.788-0.238,0.756-0.303,0.976
		c-0.176,0.171-0.427,0.417-1.059,0.874c-0.619,0.448-0.925,0.609-1.143,0.722c-0.234-0.007-0.191-0.021-1.025-0.017
		c-0.633,0.004-0.156,0.038-0.622-0.034c-0.438-0.066,0.163,0.047-0.47-0.117c-0.386-0.101-0.288-0.07-0.538-0.151
		c-0.364-0.119-0.723-0.249-1.294-0.454c-1.045-0.375-2.461-0.903-4.168-1.546c-0.488-0.184-1.327-0.496-1.967-0.739
		c-3.327-1.261-7.087-0.385-9.514,2.219c-2.427,2.603-3.037,6.416-1.545,9.646c0.28,0.603,0.665,1.412,0.891,1.9
		c0.766,1.662,1.387,3.044,1.831,4.05c0.261,0.589,0.428,0.947,0.555,1.26c0.078,0.191,0.046,0.11,0.185,0.521
		c0.22,0.651,0.057,0.054,0.151,0.47c0.146,0.651,0.046,0.016,0.084,0.589c0.054,0.823,0.06,0.786,0.083,1.008
		c-0.097,0.228-0.243,0.559-0.655,1.227c-0.407,0.659-0.614,0.937-0.773,1.126c-0.21,0.079-0.185,0.044-0.959,0.37
		c-0.521,0.221,0.068,0.026-0.571,0.185c-0.517,0.128-0.073,0.045-0.471,0.101c-0.376,0.053-0.269,0.026-0.571,0.05
		c-0.426,0.034-0.801,0.057-1.362,0.084c-1.081,0.052-2.612,0.108-4.453,0.168c-0.582,0.019-1.474,0.047-2.101,0.067
		c-3.563,0.106-6.705,2.36-7.948,5.7c-1.244,3.34-0.341,7.1,2.284,9.511l1.546,1.412c1.358,1.254,2.485,2.286,3.261,3.025
		c0.36,0.342,0.642,0.62,0.991,0.975c0.271,0.275,0.164,0.148,0.387,0.404c0.468,0.534,0.034,0.013,0.285,0.369
		c0.263,0.373,0.038-0.034,0.32,0.538c0.379,0.768,0.379,0.727,0.488,0.924c-0.004,0.247-0.029,0.589-0.151,1.346
		c-0.122,0.754-0.211,1.073-0.286,1.31c-0.162,0.149-0.151,0.128-0.756,0.74c-0.414,0.418,0.039,0.023-0.454,0.387
		c-0.354,0.261,0.182-0.076-0.404,0.268c-0.295,0.174-0.177,0.102-0.504,0.269c-0.401,0.205-0.736,0.357-1.227,0.589
		c-1.023,0.481-2.4,1.12-4.05,1.866l-1.9,0.857c-3.239,1.466-5.27,4.745-5.141,8.3c0.129,3.549,2.393,6.673,5.728,7.901l1.967,0.723
		c1.689,0.622,3.081,1.148,4.151,1.564c0.599,0.231,0.964,0.37,1.277,0.505c0.283,0.118,0.187,0.067,0.521,0.235
		c0.586,0.29,0.041-0.004,0.419,0.235c0.386,0.244-0.014-0.055,0.471,0.37c0.627,0.547,0.615,0.513,0.791,0.652
		c0.091,0.231,0.225,0.559,0.403,1.312c0.112,0.475,0.116,0.58,0.185,1.362c0.217,2.456,1.457,4.705,3.418,6.198
		c1.962,1.497,4.46,2.094,6.886,1.653c39.576,0.601,87.704-14.965,124.104-37.986c2.512-0.958,4.445-3.015,5.244-5.58
		c-0.099,0.32-0.238,0.798,0.538-1.109c0.225-0.552-0.023-0.073,0.269-0.555c0.257-0.425-0.05,0.036,0.269-0.387
		c0.16-0.21,0.025-0.034,0.37-0.436c0.334-0.392,0.563-0.649,0.889-1.009c0.767-0.842,1.791-1.961,3.025-3.277
		c0.351-0.374,0.978-1.032,1.447-1.53c2.441-2.596,3.068-6.412,1.585-9.651c-1.484-3.24-4.783-5.258-8.343-5.106
		c-0.767,0.033-1.665,0.085-2.084,0.101c-1.802,0.071-3.314,0.124-4.453,0.151c-0.549,0.014-0.921,0.02-1.362,0.017
		c-0.433-0.003-0.235,0.005-0.555-0.017c-0.444-0.029,0.04,0.021-0.471-0.067c-0.595-0.102-0.044,0.039-0.603-0.151
		c-0.795-0.269-0.759-0.239-0.976-0.302c-0.172-0.177-0.418-0.428-0.875-1.06c-0.452-0.629-0.61-0.927-0.721-1.143
		c0.006-0.234,0.021-0.191,0.017-1.025c-0.004-0.629-0.04-0.147,0.032-0.622c0.063-0.416-0.071,0.276,0.118-0.453
		c0.099-0.382,0.069-0.28,0.151-0.538c0.132-0.41,0.267-0.786,0.454-1.311c0.372-1.037,0.902-2.456,1.547-4.168l0.738-1.95
		c1.268-3.331,0.391-7.099-2.218-9.527c-2.611-2.429-6.432-3.034-9.663-1.532c-0.597,0.278-1.404,0.662-1.901,0.891
		c-1.636,0.756-3.007,1.369-4.049,1.831c-0.584,0.259-0.942,0.426-1.261,0.555c-0.183,0.075-0.105,0.044-0.521,0.185
		c-0.748,0.253-0.059,0.062-0.452,0.151c-0.591,0.134-0.023,0.045-0.606,0.084c-0.824,0.054-0.786,0.06-1.009,0.084
		c-0.227-0.098-0.559-0.244-1.226-0.656c-0.658-0.406-0.921-0.615-1.11-0.773c-0.078-0.212-0.057-0.178-0.387-0.959
		c-0.221-0.526-0.029,0.041-0.185-0.588c-0.128-0.521-0.046-0.085-0.101-0.471c-0.053-0.382-0.027-0.262-0.05-0.555
		c-0.036-0.447-0.057-0.815-0.084-1.361c-0.053-1.091-0.109-2.619-0.168-4.453c-0.019-0.591-0.048-1.482-0.067-2.101
		c-0.105-3.563-2.359-6.705-5.7-7.948c-3.339-1.244-7.1-0.341-9.51,2.284c-0.484,0.525-1.074,1.182-1.396,1.53
		c-1.253,1.358-2.285,2.484-3.025,3.261c-0.343,0.36-0.62,0.642-0.973,0.991c-0.275,0.271-0.149,0.164-0.404,0.387
		c-0.534,0.468-0.013,0.034-0.37,0.286c-0.372,0.262,0.034,0.037-0.538,0.319c-0.767,0.38-0.727,0.38-0.923,0.488
		c-0.248-0.004-0.589-0.028-1.346-0.151c-0.755-0.122-1.074-0.211-1.312-0.286c-0.149-0.162-0.126-0.151-0.738-0.756
		c-0.416-0.412-0.021,0.043-0.387-0.454c-0.259-0.351,0.08,0.189-0.269-0.404c-0.172-0.291-0.099-0.169-0.269-0.504
		c-0.238-0.466-0.399-0.777-0.606-1.21c-0.463-0.983-1.089-2.392-1.848-4.067l-0.858-1.9
		C172.066,60.413,169.144,58.419,165.853,58.259L165.853,58.259z"/>
	<g>
		
			<radialGradient id="SVGID_3_" cx="-3109.323" cy="-10.8811" r="25.714" gradientTransform="matrix(-0.0101 0.5007 -0.4898 -0.0099 132.6607 1699.5575)" gradientUnits="userSpaceOnUse">
			<stop  offset="0" style="stop-color:#FFFF00"/>
			<stop  offset="0.5" style="stop-color:#FFD400"/>
			<stop  offset="1" style="stop-color:#FFA900"/>
		</radialGradient>
		<path fill="url(#SVGID_3_)" d="M226.592,144.105c0,32.251-26.142,58.393-58.392,58.393s-58.393-26.142-58.393-58.393
			c0-32.249,26.143-58.392,58.393-58.392S226.592,111.856,226.592,144.105L226.592,144.105L226.592,144.105z"/>
	</g>
	
		<linearGradient id="SVGID_4_" gradientUnits="userSpaceOnUse" x1="860.4399" y1="433.2961" x2="864.4805" y2="452.7172" gradientTransform="matrix(0.5802 0 0 0.5802 -342.7859 -152.2328)">
		<stop  offset="0" style="stop-color:#FFFFFF"/>
		<stop  offset="1" style="stop-color:#FFFFFF;stop-opacity:0"/>
	</linearGradient>
	<path fill="url(#SVGID_4_)" d="M163.86,92.076c-21.128,0-39.507,14.862-44.204,34.774c-1.194,5.061-0.214,10.39,2.701,14.695
		c2.916,4.304,7.502,7.193,12.644,7.962c4.525,0.669,9.644,0.761,16.538,0.303c12.384-0.828,26.092-4.138,40.776-8.707
		c5.464-1.702,9.84-5.827,11.862-11.181c2.023-5.355,1.465-11.342-1.51-16.232C194.754,100.695,180.051,92.076,163.86,92.076
		L163.86,92.076z"/>
	
		<linearGradient id="SVGID_5_" gradientUnits="userSpaceOnUse" x1="956.3962" y1="488.9857" x2="957.8102" y2="516.0582" gradientTransform="matrix(0.5802 0 0 0.5802 -353.6494 -125.0687)">
		<stop  offset="0" style="stop-color:#C7D8FF"/>
		<stop  offset="1" style="stop-color:#0092C7"/>
	</linearGradient>
	<path fill="url(#SVGID_5_)" d="M185.965,142.426c-17.467,0-32.999,8.33-42.826,21.244c-2.145-0.399-4.361-0.606-6.621-0.606
		c-19.794,0-35.851,16.059-35.851,35.852s16.057,35.864,35.851,35.864c3.631,0,7.134-0.538,10.437-1.543
		c9.802,10.315,23.666,16.757,39.01,16.757c8.584,0,16.698-2.018,23.899-5.597c7.203,3.578,15.317,5.597,23.901,5.597
		c17.68,0,33.373-8.553,43.177-21.731c16.08-0.139,29.077-13.237,29.077-29.346c0-14.852-11.042-27.122-25.362-29.061
		c-9.224-16.37-26.773-27.429-46.892-27.429c-8.587,0-16.698,2.014-23.901,5.597C202.661,144.441,194.552,142.426,185.965,142.426z"
		/>
	
		<linearGradient id="SVGID_6_" gradientUnits="userSpaceOnUse" x1="-1547.9727" y1="367.6795" x2="-1542.4615" y2="395.9632" gradientTransform="matrix(0.5802 0 0 0.5802 1075.2103 -81.6062)">
		<stop  offset="0" style="stop-color:#FFFFFF"/>
		<stop  offset="1" style="stop-color:#FFFFFF;stop-opacity:0"/>
	</linearGradient>
	<path fill="url(#SVGID_6_)" d="M184.879,146.673c-15.321,0-29.149,7.447-37.714,18.708c-1.491,1.96-3.866,2.885-6.286,2.435
		c-1.756-0.328-3.574-0.505-5.445-0.505c-15.639,0-29.43,13.792-29.43,29.431c0,2.06,0.155,2.763,0.101,1.901
		c0.469,7.384,5.851,13.523,13.109,14.957c17.25,3.41,40.632,1.871,68.422-5.025c22.425-5.567,46.56-14.078,70.524-23.666
		c5.37-2.153,9.196-6.993,10.054-12.712c0.858-5.723-1.383-11.471-5.887-15.104c-8.05-6.484-18.479-10.42-29.647-10.42
		c-7.504,0-14.747,1.791-21.042,4.924c-1.814,0.904-3.902,0.904-5.715,0C199.625,148.465,192.382,146.673,184.879,146.673z"/>
</g>
<g id="active_1_" transform="matrix(.46448,0,0,.46448,-22.61162,-6.93346)">
	<path fill="#FFBB00" d="M255.005,224.886c-0.317,0.341-42.094-19.604-42.472-19.33c-0.378,0.273,5.376,46.204,4.951,46.398
		c-0.425,0.193-31.388-34.216-31.842-34.111c-0.452,0.109-12.716,44.745-13.18,44.762c-0.467,0.017-15.905-43.622-16.366-43.698
		c-0.46-0.076-28.87,36.474-29.308,36.31c-0.437-0.164,2.002-46.389,1.604-46.633c-0.397-0.248-40.631,22.648-40.973,22.328
		c-0.341-0.315,19.601-42.092,19.329-42.47c-0.273-0.378-46.205,5.374-46.399,4.949c-0.194-0.425,34.217-31.386,34.11-31.84
		s-44.745-12.716-44.762-13.183s43.624-15.903,43.699-16.364c0.075-0.46-36.473-28.871-36.31-29.309
		c0.163-0.437,46.389,2.002,46.635,1.604c0.245-0.396-22.648-40.631-22.33-40.972c0.317-0.342,42.093,19.601,42.471,19.328
		c0.378-0.272-5.375-46.204-4.95-46.399c0.424-0.193,31.387,34.218,31.841,34.111c0.454-0.108,12.716-44.745,13.183-44.762
		c0.467-0.017,15.903,43.624,16.364,43.698c0.46,0.075,28.871-36.472,29.309-36.309s-2.002,46.389-1.604,46.634
		c0.397,0.245,40.631-22.648,40.973-22.329c0.341,0.317-19.601,42.093-19.33,42.471c0.273,0.378,46.206-5.376,46.4-4.951
		c0.193,0.425-34.218,31.387-34.111,31.841c0.109,0.454,44.745,12.717,44.762,13.183c0.017,0.467-43.624,15.904-43.698,16.363
		c-0.076,0.463,36.472,28.871,36.31,29.309c-0.164,0.437-46.389-2.002-46.635-1.602
		C232.428,184.308,255.322,224.541,255.005,224.886L255.005,224.886z"/>
	
		<radialGradient id="SVGID_7_" cx="799.0758" cy="-48.9356" r="43.3558" gradientTransform="matrix(7.340698e-008 -0.5806 0.6107 7.687808e-008 198.0841 608.049)" gradientUnits="userSpaceOnUse">
		<stop  offset="0" style="stop-color:#FFFDBC"/>
		<stop  offset="1" style="stop-color:#FCFF00"/>
	</radialGradient>
	<path fill="url(#SVGID_7_)" d="M248.748,219.062c-0.263,0.282-35.9-13.733-36.215-13.506c-0.313,0.227,1.751,38.467,1.4,38.627
		s-27.915-26.428-28.289-26.34c-0.376,0.093-13.105,36.209-13.49,36.222c-0.387,0.017-15.676-35.095-16.059-35.158
		c-0.381-0.059-25.961,28.438-26.323,28.304c-0.363-0.135-1.051-38.425-1.38-38.627c-0.329-0.206-34.868,16.336-35.151,16.071
		c-0.283-0.261,13.733-35.898,13.507-36.213s-38.466,1.749-38.627,1.4c-0.161-0.353,26.427-27.917,26.338-28.291
		s-36.208-13.103-36.222-13.49c-0.014-0.387,35.097-15.675,35.159-16.057c0.062-0.382-28.437-25.961-28.302-26.324
		c0.135-0.362,38.423-1.051,38.627-1.38c0.203-0.328-16.337-34.868-16.074-35.15c0.263-0.283,35.901,13.733,36.214,13.506
		c0.313-0.226-1.75-38.465-1.399-38.626c0.352-0.161,27.914,26.426,28.29,26.338c0.376-0.089,13.103-36.208,13.49-36.222
		c0.387-0.014,15.676,35.097,16.057,35.159c0.383,0.061,25.962-28.437,26.325-28.303c0.362,0.136,1.051,38.424,1.379,38.627
		c0.328,0.204,34.868-16.336,35.151-16.074c0.282,0.263-13.733,35.901-13.506,36.215c0.225,0.313,38.465-1.75,38.625-1.399
		c0.162,0.352-26.426,27.914-26.338,28.29c0.09,0.375,36.209,13.103,36.222,13.489c0.015,0.387-35.097,15.677-35.158,16.056
		c-0.061,0.383,28.436,25.961,28.302,26.323c-0.135,0.366-38.423,1.055-38.627,1.383
		C232.472,184.241,249.011,218.78,248.748,219.062L248.748,219.062z"/>
	
		<linearGradient id="SVGID_8_" gradientUnits="userSpaceOnUse" x1="359.7428" y1="-1042.2072" x2="359.7428" y2="-997.5038" gradientTransform="matrix(0.5802 0 0 0.5802 -43.9722 662.7075)">
		<stop  offset="0" style="stop-color:#FFFFFF;stop-opacity:0.375"/>
		<stop  offset="1" style="stop-color:#FFFFFF;stop-opacity:0"/>
	</linearGradient>
	<path fill="url(#SVGID_8_)" d="M165.853,58.259c-3.827-0.179-7.325,2.149-8.639,5.747c-0.21,0.578-0.521,1.406-0.723,1.95
		c-0.627,1.701-1.156,3.118-1.562,4.168c-0.229,0.594-0.37,0.958-0.505,1.277c-0.061,0.147-0.034,0.096-0.235,0.505
		c-0.286,0.578,0.006,0.038-0.235,0.42c-0.309,0.49,0.019,0.044-0.37,0.487c-0.549,0.627-0.513,0.615-0.654,0.791
		c-0.231,0.091-0.557,0.225-1.312,0.403c-0.746,0.178-1.081,0.213-1.327,0.235c-0.206-0.094-0.174-0.101-0.959-0.42
		c-0.549-0.223-0.069,0.024-0.555-0.268c-0.423-0.255,0.04,0.053-0.387-0.269c-0.322-0.243-0.235-0.182-0.437-0.353
		c-0.284-0.243-0.572-0.496-1.024-0.907c-0.839-0.762-1.957-1.788-3.278-3.025c-0.284-0.266-0.927-0.911-1.512-1.462
		c-2.597-2.442-6.413-3.069-9.653-1.585c-3.24,1.483-5.258,4.782-5.106,8.342c0.025,0.602,0.06,1.5,0.084,2.118
		c0.075,1.849,0.142,3.384,0.168,4.453c0.014,0.547,0.02,0.894,0.017,1.345c-0.003,0.427,0.004,0.261-0.017,0.572
		c-0.028,0.432,0.021-0.027-0.067,0.488c-0.101,0.584,0.04,0.023-0.151,0.588c-0.267,0.788-0.238,0.756-0.303,0.976
		c-0.176,0.171-0.427,0.417-1.059,0.874c-0.619,0.448-0.925,0.609-1.143,0.722c-0.234-0.007-0.191-0.021-1.025-0.017
		c-0.633,0.004-0.156,0.038-0.622-0.034c-0.438-0.066,0.163,0.047-0.47-0.117c-0.386-0.101-0.288-0.07-0.538-0.151
		c-0.364-0.119-0.723-0.249-1.294-0.454c-1.045-0.375-2.461-0.903-4.168-1.546c-0.488-0.184-1.327-0.496-1.967-0.739
		c-3.327-1.261-7.087-0.385-9.514,2.219c-2.427,2.603-3.037,6.416-1.545,9.646c0.28,0.603,0.665,1.412,0.891,1.9
		c0.766,1.662,1.387,3.044,1.831,4.05c0.261,0.589,0.428,0.947,0.555,1.26c0.078,0.191,0.046,0.11,0.185,0.521
		c0.22,0.651,0.057,0.054,0.151,0.47c0.146,0.651,0.046,0.016,0.084,0.589c0.054,0.823,0.06,0.786,0.083,1.008
		c-0.097,0.228-0.243,0.559-0.655,1.227c-0.407,0.659-0.614,0.937-0.773,1.126c-0.21,0.079-0.185,0.044-0.959,0.37
		c-0.521,0.221,0.068,0.026-0.571,0.185c-0.517,0.128-0.073,0.045-0.471,0.101c-0.376,0.053-0.269,0.026-0.571,0.05
		c-0.426,0.034-0.801,0.057-1.362,0.084c-1.081,0.052-2.612,0.108-4.453,0.168c-0.582,0.019-1.474,0.047-2.101,0.067
		c-3.563,0.106-6.705,2.36-7.948,5.7c-1.244,3.34-0.341,7.1,2.284,9.511l1.546,1.412c1.358,1.254,2.485,2.286,3.261,3.025
		c0.36,0.342,0.642,0.62,0.991,0.975c0.271,0.275,0.164,0.148,0.387,0.404c0.468,0.534,0.034,0.013,0.285,0.369
		c0.263,0.373,0.038-0.034,0.32,0.538c0.379,0.768,0.379,0.727,0.488,0.924c-0.004,0.247-0.029,0.589-0.151,1.346
		c-0.122,0.754-0.211,1.073-0.286,1.31c-0.162,0.149-0.151,0.128-0.756,0.74c-0.414,0.418,0.039,0.023-0.454,0.387
		c-0.354,0.261,0.182-0.076-0.404,0.268c-0.295,0.174-0.177,0.102-0.504,0.269c-0.401,0.205-0.736,0.357-1.227,0.589
		c-1.023,0.481-2.4,1.12-4.05,1.866l-1.9,0.857c-3.239,1.466-5.27,4.745-5.141,8.3c0.129,3.549,2.393,6.673,5.728,7.901l1.967,0.723
		c1.689,0.622,3.081,1.148,4.151,1.564c0.599,0.231,0.964,0.37,1.277,0.505c0.283,0.118,0.187,0.067,0.521,0.235
		c0.586,0.29,0.041-0.004,0.419,0.235c0.386,0.244-0.014-0.055,0.471,0.37c0.627,0.547,0.615,0.513,0.791,0.652
		c0.091,0.231,0.225,0.559,0.403,1.312c0.112,0.475,0.116,0.58,0.185,1.362c0.217,2.456,1.457,4.705,3.418,6.198
		c1.962,1.497,4.46,2.094,6.886,1.653c39.576,0.601,87.704-14.965,124.104-37.986c2.512-0.958,4.445-3.015,5.244-5.58
		c-0.099,0.32-0.238,0.798,0.538-1.109c0.225-0.552-0.023-0.073,0.269-0.555c0.257-0.425-0.05,0.036,0.269-0.387
		c0.16-0.21,0.025-0.034,0.37-0.436c0.334-0.392,0.563-0.649,0.889-1.009c0.767-0.842,1.791-1.961,3.025-3.277
		c0.351-0.374,0.978-1.032,1.447-1.53c2.441-2.596,3.068-6.412,1.585-9.651c-1.484-3.24-4.783-5.258-8.343-5.106
		c-0.767,0.033-1.665,0.085-2.084,0.101c-1.802,0.071-3.314,0.124-4.453,0.151c-0.549,0.014-0.921,0.02-1.362,0.017
		c-0.433-0.003-0.235,0.005-0.555-0.017c-0.444-0.029,0.04,0.021-0.471-0.067c-0.595-0.102-0.044,0.039-0.603-0.151
		c-0.795-0.269-0.759-0.239-0.976-0.302c-0.172-0.177-0.418-0.428-0.875-1.06c-0.452-0.629-0.61-0.927-0.721-1.143
		c0.006-0.234,0.021-0.191,0.017-1.025c-0.004-0.629-0.04-0.147,0.032-0.622c0.063-0.416-0.071,0.276,0.118-0.453
		c0.099-0.382,0.069-0.28,0.151-0.538c0.132-0.41,0.267-0.786,0.454-1.311c0.372-1.037,0.902-2.456,1.547-4.168l0.738-1.95
		c1.268-3.331,0.391-7.099-2.218-9.527c-2.611-2.429-6.432-3.034-9.663-1.532c-0.597,0.278-1.404,0.662-1.901,0.891
		c-1.636,0.756-3.007,1.369-4.049,1.831c-0.584,0.259-0.942,0.426-1.261,0.555c-0.183,0.075-0.105,0.044-0.521,0.185
		c-0.748,0.253-0.059,0.062-0.452,0.151c-0.591,0.134-0.023,0.045-0.606,0.084c-0.824,0.054-0.786,0.06-1.009,0.084
		c-0.227-0.098-0.559-0.244-1.226-0.656c-0.658-0.406-0.921-0.615-1.11-0.773c-0.078-0.212-0.057-0.178-0.387-0.959
		c-0.221-0.526-0.029,0.041-0.185-0.588c-0.128-0.521-0.046-0.085-0.101-0.471c-0.053-0.382-0.027-0.262-0.05-0.555
		c-0.036-0.447-0.057-0.815-0.084-1.361c-0.053-1.091-0.109-2.619-0.168-4.453c-0.019-0.591-0.048-1.482-0.067-2.101
		c-0.105-3.563-2.359-6.705-5.7-7.948c-3.339-1.244-7.1-0.341-9.51,2.284c-0.484,0.525-1.074,1.182-1.396,1.53
		c-1.253,1.358-2.285,2.484-3.025,3.261c-0.343,0.36-0.62,0.642-0.973,0.991c-0.275,0.271-0.149,0.164-0.404,0.387
		c-0.534,0.468-0.013,0.034-0.37,0.286c-0.372,0.262,0.034,0.037-0.538,0.319c-0.767,0.38-0.727,0.38-0.923,0.488
		c-0.248-0.004-0.589-0.028-1.346-0.151c-0.755-0.122-1.074-0.211-1.312-0.286c-0.149-0.162-0.126-0.151-0.738-0.756
		c-0.416-0.412-0.021,0.043-0.387-0.454c-0.259-0.351,0.08,0.189-0.269-0.404c-0.172-0.291-0.099-0.169-0.269-0.504
		c-0.238-0.466-0.399-0.777-0.606-1.21c-0.463-0.983-1.089-2.392-1.848-4.067l-0.858-1.9
		C172.066,60.413,169.144,58.419,165.853,58.259L165.853,58.259z"/>
	<g>
		
			<radialGradient id="SVGID_9_" cx="-3109.323" cy="-10.8811" r="25.714" gradientTransform="matrix(-0.0101 0.5007 -0.4898 -0.0099 132.6607 1699.5575)" gradientUnits="userSpaceOnUse">
			<stop  offset="0" style="stop-color:#FFFF00"/>
			<stop  offset="0.5" style="stop-color:#FFD400"/>
			<stop  offset="1" style="stop-color:#FFA900"/>
		</radialGradient>
		<path fill="url(#SVGID_9_)" d="M226.592,144.105c0,32.251-26.142,58.393-58.392,58.393s-58.393-26.142-58.393-58.393
			c0-32.249,26.143-58.392,58.393-58.392S226.592,111.856,226.592,144.105L226.592,144.105L226.592,144.105z"/>
	</g>
	
		<linearGradient id="SVGID_10_" gradientUnits="userSpaceOnUse" x1="860.4399" y1="433.2961" x2="864.4805" y2="452.7172" gradientTransform="matrix(0.5802 0 0 0.5802 -342.7859 -152.2328)">
		<stop  offset="0" style="stop-color:#FFFFFF"/>
		<stop  offset="1" style="stop-color:#FFFFFF;stop-opacity:0"/>
	</linearGradient>
	<path fill="url(#SVGID_10_)" d="M163.86,92.076c-21.128,0-39.507,14.862-44.204,34.774c-1.194,5.061-0.214,10.39,2.701,14.695
		c2.916,4.304,7.502,7.193,12.644,7.962c4.525,0.669,9.644,0.761,16.538,0.303c12.384-0.828,26.092-4.138,40.776-8.707
		c5.464-1.702,9.84-5.827,11.862-11.181c2.023-5.355,1.465-11.342-1.51-16.232C194.754,100.695,180.051,92.076,163.86,92.076
		L163.86,92.076z"/>
	
		<linearGradient id="SVGID_11_" gradientUnits="userSpaceOnUse" x1="956.3962" y1="488.9857" x2="957.8102" y2="516.0582" gradientTransform="matrix(0.5802 0 0 0.5802 -353.6494 -125.0687)">
		<stop  offset="0" style="stop-color:#96BEFF"/>
		<stop  offset="1" style="stop-color:#09719F"/>
	</linearGradient>
	<path fill="url(#SVGID_11_)" d="M185.965,142.426c-17.467,0-32.999,8.33-42.826,21.244c-2.145-0.399-4.361-0.606-6.621-0.606
		c-19.794,0-35.851,16.059-35.851,35.852s16.057,35.864,35.851,35.864c3.631,0,7.134-0.538,10.437-1.543
		c9.802,10.315,23.666,16.757,39.01,16.757c8.584,0,16.698-2.018,23.899-5.597c7.203,3.578,15.317,5.597,23.901,5.597
		c17.68,0,33.373-8.553,43.177-21.731c16.08-0.139,29.077-13.237,29.077-29.346c0-14.852-11.042-27.122-25.362-29.061
		c-9.224-16.37-26.773-27.429-46.892-27.429c-8.587,0-16.698,2.014-23.901,5.597C202.661,144.441,194.552,142.426,185.965,142.426z"
		/>
	
		<linearGradient id="SVGID_12_" gradientUnits="userSpaceOnUse" x1="-1547.9727" y1="367.6795" x2="-1542.4615" y2="395.9632" gradientTransform="matrix(0.5802 0 0 0.5802 1075.2103 -81.6062)">
		<stop  offset="0" style="stop-color:#FFFFFF"/>
		<stop  offset="1" style="stop-color:#FFFFFF;stop-opacity:0"/>
	</linearGradient>
	<path fill="url(#SVGID_12_)" d="M184.879,146.673c-15.321,0-29.149,7.447-37.714,18.708c-1.491,1.96-3.866,2.885-6.286,2.435
		c-1.756-0.328-3.574-0.505-5.445-0.505c-15.639,0-29.43,13.792-29.43,29.431c0,2.06,0.155,2.763,0.101,1.901
		c0.469,7.384,5.851,13.523,13.109,14.957c17.25,3.41,40.632,1.871,68.422-5.025c22.425-5.567,46.56-14.078,70.524-23.666
		c5.37-2.153,9.196-6.993,10.054-12.712c0.858-5.723-1.383-11.471-5.887-15.104c-8.05-6.484-18.479-10.42-29.647-10.42
		c-7.504,0-14.747,1.791-21.042,4.924c-1.814,0.904-3.902,0.904-5.715,0C199.625,148.465,192.382,146.673,184.879,146.673z"/>
</g>
<g id="disabled_1_" transform="matrix(.46448,0,0,.46448,-22.61162,-6.93346)" opacity="0.2">
	<path fill="#FFBB00" d="M255.005,224.886c-0.317,0.341-42.094-19.604-42.472-19.33c-0.378,0.273,5.376,46.204,4.951,46.398
		c-0.425,0.193-31.388-34.216-31.842-34.111c-0.452,0.109-12.716,44.745-13.18,44.762c-0.467,0.017-15.905-43.622-16.366-43.698
		c-0.46-0.076-28.87,36.474-29.308,36.31c-0.437-0.164,2.002-46.389,1.604-46.633c-0.397-0.248-40.631,22.648-40.973,22.328
		c-0.341-0.315,19.601-42.092,19.329-42.47c-0.273-0.378-46.205,5.374-46.399,4.949c-0.194-0.425,34.217-31.386,34.11-31.84
		s-44.745-12.716-44.762-13.183s43.624-15.903,43.699-16.364c0.075-0.46-36.473-28.871-36.31-29.309
		c0.163-0.437,46.389,2.002,46.635,1.604c0.245-0.396-22.648-40.631-22.33-40.972c0.317-0.342,42.093,19.601,42.471,19.328
		c0.378-0.272-5.375-46.204-4.95-46.399c0.424-0.193,31.387,34.218,31.841,34.111c0.454-0.108,12.716-44.745,13.183-44.762
		c0.467-0.017,15.903,43.624,16.364,43.698c0.46,0.075,28.871-36.472,29.309-36.309s-2.002,46.389-1.604,46.634
		c0.397,0.245,40.631-22.648,40.973-22.329c0.341,0.317-19.601,42.093-19.33,42.471c0.273,0.378,46.206-5.376,46.4-4.951
		c0.193,0.425-34.218,31.387-34.111,31.841c0.109,0.454,44.745,12.717,44.762,13.183c0.017,0.467-43.624,15.904-43.698,16.363
		c-0.076,0.463,36.472,28.871,36.31,29.309c-0.164,0.437-46.389-2.002-46.635-1.602
		C232.428,184.308,255.322,224.541,255.005,224.886L255.005,224.886z"/>
	
		<radialGradient id="SVGID_13_" cx="799.0758" cy="-48.9356" r="43.3558" gradientTransform="matrix(7.340698e-008 -0.5806 0.6107 7.687808e-008 198.0841 608.049)" gradientUnits="userSpaceOnUse">
		<stop  offset="0" style="stop-color:#FFFDBC"/>
		<stop  offset="1" style="stop-color:#FCFF00"/>
	</radialGradient>
	<path fill="url(#SVGID_13_)" d="M248.748,219.062c-0.263,0.282-35.9-13.733-36.215-13.506c-0.313,0.227,1.751,38.467,1.4,38.627
		s-27.915-26.428-28.289-26.34c-0.376,0.093-13.105,36.209-13.49,36.222c-0.387,0.017-15.676-35.095-16.059-35.158
		c-0.381-0.059-25.961,28.438-26.323,28.304c-0.363-0.135-1.051-38.425-1.38-38.627c-0.329-0.206-34.868,16.336-35.151,16.071
		c-0.283-0.261,13.733-35.898,13.507-36.213s-38.466,1.749-38.627,1.4c-0.161-0.353,26.427-27.917,26.338-28.291
		s-36.208-13.103-36.222-13.49c-0.014-0.387,35.097-15.675,35.159-16.057c0.062-0.382-28.437-25.961-28.302-26.324
		c0.135-0.362,38.423-1.051,38.627-1.38c0.203-0.328-16.337-34.868-16.074-35.15c0.263-0.283,35.901,13.733,36.214,13.506
		c0.313-0.226-1.75-38.465-1.399-38.626c0.352-0.161,27.914,26.426,28.29,26.338c0.376-0.089,13.103-36.208,13.49-36.222
		c0.387-0.014,15.676,35.097,16.057,35.159c0.383,0.061,25.962-28.437,26.325-28.303c0.362,0.136,1.051,38.424,1.379,38.627
		c0.328,0.204,34.868-16.336,35.151-16.074c0.282,0.263-13.733,35.901-13.506,36.215c0.225,0.313,38.465-1.75,38.625-1.399
		c0.162,0.352-26.426,27.914-26.338,28.29c0.09,0.375,36.209,13.103,36.222,13.489c0.015,0.387-35.097,15.677-35.158,16.056
		c-0.061,0.383,28.436,25.961,28.302,26.323c-0.135,0.366-38.423,1.055-38.627,1.383
		C232.472,184.241,249.011,218.78,248.748,219.062L248.748,219.062z"/>
	
		<linearGradient id="SVGID_14_" gradientUnits="userSpaceOnUse" x1="359.7428" y1="-1042.2072" x2="359.7428" y2="-997.5038" gradientTransform="matrix(0.5802 0 0 0.5802 -43.9722 662.7075)">
		<stop  offset="0" style="stop-color:#FFFFFF;stop-opacity:0.375"/>
		<stop  offset="1" style="stop-color:#FFFFFF;stop-opacity:0"/>
	</linearGradient>
	<path fill="url(#SVGID_14_)" d="M165.853,58.259c-3.827-0.179-7.325,2.149-8.639,5.747c-0.21,0.578-0.521,1.406-0.723,1.95
		c-0.627,1.701-1.156,3.118-1.562,4.168c-0.229,0.594-0.37,0.958-0.505,1.277c-0.061,0.147-0.034,0.096-0.235,0.505
		c-0.286,0.578,0.006,0.038-0.235,0.42c-0.309,0.49,0.019,0.044-0.37,0.487c-0.549,0.627-0.513,0.615-0.654,0.791
		c-0.231,0.091-0.557,0.225-1.312,0.403c-0.746,0.178-1.081,0.213-1.327,0.235c-0.206-0.094-0.174-0.101-0.959-0.42
		c-0.549-0.223-0.069,0.024-0.555-0.268c-0.423-0.255,0.04,0.053-0.387-0.269c-0.322-0.243-0.235-0.182-0.437-0.353
		c-0.284-0.243-0.572-0.496-1.024-0.907c-0.839-0.762-1.957-1.788-3.278-3.025c-0.284-0.266-0.927-0.911-1.512-1.462
		c-2.597-2.442-6.413-3.069-9.653-1.585c-3.24,1.483-5.258,4.782-5.106,8.342c0.025,0.602,0.06,1.5,0.084,2.118
		c0.075,1.849,0.142,3.384,0.168,4.453c0.014,0.547,0.02,0.894,0.017,1.345c-0.003,0.427,0.004,0.261-0.017,0.572
		c-0.028,0.432,0.021-0.027-0.067,0.488c-0.101,0.584,0.04,0.023-0.151,0.588c-0.267,0.788-0.238,0.756-0.303,0.976
		c-0.176,0.171-0.427,0.417-1.059,0.874c-0.619,0.448-0.925,0.609-1.143,0.722c-0.234-0.007-0.191-0.021-1.025-0.017
		c-0.633,0.004-0.156,0.038-0.622-0.034c-0.438-0.066,0.163,0.047-0.47-0.117c-0.386-0.101-0.288-0.07-0.538-0.151
		c-0.364-0.119-0.723-0.249-1.294-0.454c-1.045-0.375-2.461-0.903-4.168-1.546c-0.488-0.184-1.327-0.496-1.967-0.739
		c-3.327-1.261-7.087-0.385-9.514,2.219c-2.427,2.603-3.037,6.416-1.545,9.646c0.28,0.603,0.665,1.412,0.891,1.9
		c0.766,1.662,1.387,3.044,1.831,4.05c0.261,0.589,0.428,0.947,0.555,1.26c0.078,0.191,0.046,0.11,0.185,0.521
		c0.22,0.651,0.057,0.054,0.151,0.47c0.146,0.651,0.046,0.016,0.084,0.589c0.054,0.823,0.06,0.786,0.083,1.008
		c-0.097,0.228-0.243,0.559-0.655,1.227c-0.407,0.659-0.614,0.937-0.773,1.126c-0.21,0.079-0.185,0.044-0.959,0.37
		c-0.521,0.221,0.068,0.026-0.571,0.185c-0.517,0.128-0.073,0.045-0.471,0.101c-0.376,0.053-0.269,0.026-0.571,0.05
		c-0.426,0.034-0.801,0.057-1.362,0.084c-1.081,0.052-2.612,0.108-4.453,0.168c-0.582,0.019-1.474,0.047-2.101,0.067
		c-3.563,0.106-6.705,2.36-7.948,5.7c-1.244,3.34-0.341,7.1,2.284,9.511l1.546,1.412c1.358,1.254,2.485,2.286,3.261,3.025
		c0.36,0.342,0.642,0.62,0.991,0.975c0.271,0.275,0.164,0.148,0.387,0.404c0.468,0.534,0.034,0.013,0.285,0.369
		c0.263,0.373,0.038-0.034,0.32,0.538c0.379,0.768,0.379,0.727,0.488,0.924c-0.004,0.247-0.029,0.589-0.151,1.346
		c-0.122,0.754-0.211,1.073-0.286,1.31c-0.162,0.149-0.151,0.128-0.756,0.74c-0.414,0.418,0.039,0.023-0.454,0.387
		c-0.354,0.261,0.182-0.076-0.404,0.268c-0.295,0.174-0.177,0.102-0.504,0.269c-0.401,0.205-0.736,0.357-1.227,0.589
		c-1.023,0.481-2.4,1.12-4.05,1.866l-1.9,0.857c-3.239,1.466-5.27,4.745-5.141,8.3c0.129,3.549,2.393,6.673,5.728,7.901l1.967,0.723
		c1.689,0.622,3.081,1.148,4.151,1.564c0.599,0.231,0.964,0.37,1.277,0.505c0.283,0.118,0.187,0.067,0.521,0.235
		c0.586,0.29,0.041-0.004,0.419,0.235c0.386,0.244-0.014-0.055,0.471,0.37c0.627,0.547,0.615,0.513,0.791,0.652
		c0.091,0.231,0.225,0.559,0.403,1.312c0.112,0.475,0.116,0.58,0.185,1.362c0.217,2.456,1.457,4.705,3.418,6.198
		c1.962,1.497,4.46,2.094,6.886,1.653c39.576,0.601,87.704-14.965,124.104-37.986c2.512-0.958,4.445-3.015,5.244-5.58
		c-0.099,0.32-0.238,0.798,0.538-1.109c0.225-0.552-0.023-0.073,0.269-0.555c0.257-0.425-0.05,0.036,0.269-0.387
		c0.16-0.21,0.025-0.034,0.37-0.436c0.334-0.392,0.563-0.649,0.889-1.009c0.767-0.842,1.791-1.961,3.025-3.277
		c0.351-0.374,0.978-1.032,1.447-1.53c2.441-2.596,3.068-6.412,1.585-9.651c-1.484-3.24-4.783-5.258-8.343-5.106
		c-0.767,0.033-1.665,0.085-2.084,0.101c-1.802,0.071-3.314,0.124-4.453,0.151c-0.549,0.014-0.921,0.02-1.362,0.017
		c-0.433-0.003-0.235,0.005-0.555-0.017c-0.444-0.029,0.04,0.021-0.471-0.067c-0.595-0.102-0.044,0.039-0.603-0.151
		c-0.795-0.269-0.759-0.239-0.976-0.302c-0.172-0.177-0.418-0.428-0.875-1.06c-0.452-0.629-0.61-0.927-0.721-1.143
		c0.006-0.234,0.021-0.191,0.017-1.025c-0.004-0.629-0.04-0.147,0.032-0.622c0.063-0.416-0.071,0.276,0.118-0.453
		c0.099-0.382,0.069-0.28,0.151-0.538c0.132-0.41,0.267-0.786,0.454-1.311c0.372-1.037,0.902-2.456,1.547-4.168l0.738-1.95
		c1.268-3.331,0.391-7.099-2.218-9.527c-2.611-2.429-6.432-3.034-9.663-1.532c-0.597,0.278-1.404,0.662-1.901,0.891
		c-1.636,0.756-3.007,1.369-4.049,1.831c-0.584,0.259-0.942,0.426-1.261,0.555c-0.183,0.075-0.105,0.044-0.521,0.185
		c-0.748,0.253-0.059,0.062-0.452,0.151c-0.591,0.134-0.023,0.045-0.606,0.084c-0.824,0.054-0.786,0.06-1.009,0.084
		c-0.227-0.098-0.559-0.244-1.226-0.656c-0.658-0.406-0.921-0.615-1.11-0.773c-0.078-0.212-0.057-0.178-0.387-0.959
		c-0.221-0.526-0.029,0.041-0.185-0.588c-0.128-0.521-0.046-0.085-0.101-0.471c-0.053-0.382-0.027-0.262-0.05-0.555
		c-0.036-0.447-0.057-0.815-0.084-1.361c-0.053-1.091-0.109-2.619-0.168-4.453c-0.019-0.591-0.048-1.482-0.067-2.101
		c-0.105-3.563-2.359-6.705-5.7-7.948c-3.339-1.244-7.1-0.341-9.51,2.284c-0.484,0.525-1.074,1.182-1.396,1.53
		c-1.253,1.358-2.285,2.484-3.025,3.261c-0.343,0.36-0.62,0.642-0.973,0.991c-0.275,0.271-0.149,0.164-0.404,0.387
		c-0.534,0.468-0.013,0.034-0.37,0.286c-0.372,0.262,0.034,0.037-0.538,0.319c-0.767,0.38-0.727,0.38-0.923,0.488
		c-0.248-0.004-0.589-0.028-1.346-0.151c-0.755-0.122-1.074-0.211-1.312-0.286c-0.149-0.162-0.126-0.151-0.738-0.756
		c-0.416-0.412-0.021,0.043-0.387-0.454c-0.259-0.351,0.08,0.189-0.269-0.404c-0.172-0.291-0.099-0.169-0.269-0.504
		c-0.238-0.466-0.399-0.777-0.606-1.21c-0.463-0.983-1.089-2.392-1.848-4.067l-0.858-1.9
		C172.066,60.413,169.144,58.419,165.853,58.259L165.853,58.259z"/>
	<g>
		
			<radialGradient id="SVGID_15_" cx="-3109.323" cy="-10.8811" r="25.714" gradientTransform="matrix(-0.0101 0.5007 -0.4898 -0.0099 132.6607 1699.5575)" gradientUnits="userSpaceOnUse">
			<stop  offset="0" style="stop-color:#FFFF00"/>
			<stop  offset="0.5" style="stop-color:#FFD400"/>
			<stop  offset="1" style="stop-color:#FFA900"/>
		</radialGradient>
		<path fill="url(#SVGID_15_)" d="M226.592,144.105c0,32.251-26.142,58.393-58.392,58.393s-58.393-26.142-58.393-58.393
			c0-32.249,26.143-58.392,58.393-58.392S226.592,111.856,226.592,144.105L226.592,144.105L226.592,144.105z"/>
	</g>
	
		<linearGradient id="SVGID_16_" gradientUnits="userSpaceOnUse" x1="860.4399" y1="433.2961" x2="864.4805" y2="452.7172" gradientTransform="matrix(0.5802 0 0 0.5802 -342.7859 -152.2328)">
		<stop  offset="0" style="stop-color:#FFFFFF"/>
		<stop  offset="1" style="stop-color:#FFFFFF;stop-opacity:0"/>
	</linearGradient>
	<path fill="url(#SVGID_16_)" d="M163.86,92.076c-21.128,0-39.507,14.862-44.204,34.774c-1.194,5.061-0.214,10.39,2.701,14.695
		c2.916,4.304,7.502,7.193,12.644,7.962c4.525,0.669,9.644,0.761,16.538,0.303c12.384-0.828,26.092-4.138,40.776-8.707
		c5.464-1.702,9.84-5.827,11.862-11.181c2.023-5.355,1.465-11.342-1.51-16.232C194.754,100.695,180.051,92.076,163.86,92.076
		L163.86,92.076z"/>
	
		<linearGradient id="SVGID_17_" gradientUnits="userSpaceOnUse" x1="956.3962" y1="488.9857" x2="957.8102" y2="516.0582" gradientTransform="matrix(0.5802 0 0 0.5802 -353.6494 -125.0687)">
		<stop  offset="0" style="stop-color:#96BEFF"/>
		<stop  offset="1" style="stop-color:#09719F"/>
	</linearGradient>
	<path fill="url(#SVGID_17_)" d="M185.965,142.426c-17.467,0-32.999,8.33-42.826,21.244c-2.145-0.399-4.361-0.606-6.621-0.606
		c-19.794,0-35.851,16.059-35.851,35.852s16.057,35.864,35.851,35.864c3.631,0,7.134-0.538,10.437-1.543
		c9.802,10.315,23.666,16.757,39.01,16.757c8.584,0,16.698-2.018,23.899-5.597c7.203,3.578,15.317,5.597,23.901,5.597
		c17.68,0,33.373-8.553,43.177-21.731c16.08-0.139,29.077-13.237,29.077-29.346c0-14.852-11.042-27.122-25.362-29.061
		c-9.224-16.37-26.773-27.429-46.892-27.429c-8.587,0-16.698,2.014-23.901,5.597C202.661,144.441,194.552,142.426,185.965,142.426z"
		/>
	
		<linearGradient id="SVGID_18_" gradientUnits="userSpaceOnUse" x1="-1547.9727" y1="367.6795" x2="-1542.4615" y2="395.9632" gradientTransform="matrix(0.5802 0 0 0.5802 1075.2103 -81.6062)">
		<stop  offset="0" style="stop-color:#FFFFFF"/>
		<stop  offset="1" style="stop-color:#FFFFFF;stop-opacity:0"/>
	</linearGradient>
	<path fill="url(#SVGID_18_)" d="M184.879,146.673c-15.321,0-29.149,7.447-37.714,18.708c-1.491,1.96-3.866,2.885-6.286,2.435
		c-1.756-0.328-3.574-0.505-5.445-0.505c-15.639,0-29.43,13.792-29.43,29.431c0,2.06,0.155,2.763,0.101,1.901
		c0.469,7.384,5.851,13.523,13.109,14.957c17.25,3.41,40.632,1.871,68.422-5.025c22.425-5.567,46.56-14.078,70.524-23.666
		c5.37-2.153,9.196-6.993,10.054-12.712c0.858-5.723-1.383-11.471-5.887-15.104c-8.05-6.484-18.479-10.42-29.647-10.42
		c-7.504,0-14.747,1.791-21.042,4.924c-1.814,0.904-3.902,0.904-5.715,0C199.625,148.465,192.382,146.673,184.879,146.673z"/>
</g>
</svg>
