<?xml version="1.0" encoding="UTF-8" standalone="no"?>
<svg
   xmlns:dc="http://purl.org/dc/elements/1.1/"
   xmlns:cc="http://creativecommons.org/ns#"
   xmlns:rdf="http://www.w3.org/1999/02/22-rdf-syntax-ns#"
   xmlns:svg="http://www.w3.org/2000/svg"
   xmlns="http://www.w3.org/2000/svg"
   id="svg79"
   width="592pt"
   viewBox="1 1 592.00002 592.00002"
   version="1.1"
   height="592pt">
  <g
     transform="translate(1,1)"
     id="surface1">
    <path
       id="path2"
       style="fill:#4297cf;fill-opacity:1;fill-rule:nonzero;stroke:none"
       d="M 20.414062,0 H 571.58594 C 582.86328,0 592,9.136719 592,20.414062 V 142.89844 c 0,11.27734 -9.13672,20.41015 -20.41406,20.41015 H 20.414062 C 9.136719,163.30859 0,154.17578 0,142.89844 V 20.414062 C 0,9.136719 9.136719,0 20.414062,0 Z m 0,0" />
    <path
       id="path4"
       style="fill:#3d8ac7;fill-opacity:1;fill-rule:nonzero;stroke:none"
       d="M 571.58594,0 H 367.44922 L 204.13672,163.30859 H 571.58594 C 582.86328,163.30859 592,154.17578 592,142.89844 V 20.414062 C 592,9.136719 582.86328,0 571.58594,0 Z m 0,0" />
    <path
       id="path6"
       style="fill:#87b335;fill-opacity:1;fill-rule:nonzero;stroke:none"
       d="m 551.17187,81.65625 c 0,11.273438 -9.14062,20.41406 -20.41406,20.41406 -11.27344,0 -20.41406,-9.140622 -20.41406,-20.41406 0,-11.273438 9.14062,-20.414062 20.41406,-20.414062 11.27344,0 20.41406,9.140624 20.41406,20.414062 z m 0,0" />
    <path
       id="path8"
       style="fill:#87b335;fill-opacity:1;fill-rule:nonzero;stroke:none"
       d="m 469.51562,81.65625 c 0,11.273438 -9.13671,20.41406 -20.41406,20.41406 -11.27344,0 -20.41015,-9.140622 -20.41015,-20.41406 0,-11.273438 9.13671,-20.414062 20.41015,-20.414062 11.27735,0 20.41406,9.140624 20.41406,20.414062 z m 0,0" />
    <path
       id="path10"
       style="fill:#87b335;fill-opacity:1;fill-rule:nonzero;stroke:none"
       d="m 387.86328,81.65625 c 0,11.273438 -9.14062,20.41406 -20.41406,20.41406 -11.27344,0 -20.41406,-9.140622 -20.41406,-20.41406 0,-11.273438 9.14062,-20.414062 20.41406,-20.414062 11.27344,0 20.41406,9.140624 20.41406,20.414062 z m 0,0" />
    <path
       id="path12"
       style="fill:#115e99;fill-opacity:1;fill-rule:nonzero;stroke:none"
       d="M 30.621094,91.863281 H 51.035156 V 132.69141 H 30.621094 Z m 0,0" />
    <path
       id="path14"
       style="fill:#115e99;fill-opacity:1;fill-rule:nonzero;stroke:none"
       d="M 71.449219,91.863281 H 91.863281 V 132.69141 H 71.449219 Z m 0,0" />
    <path
       id="path16"
       style="fill:#115e99;fill-opacity:1;fill-rule:nonzero;stroke:none"
       d="m 112.27734,91.863281 h 20.41407 v 40.828129 h -20.41407 z m 0,0" />
    <path
       id="path18"
       style="fill:#115e99;fill-opacity:1;fill-rule:nonzero;stroke:none"
       d="m 153.10156,91.863281 h 20.41406 v 40.828129 h -20.41406 z m 0,0" />
    <path
       id="path20"
       style="fill:#115e99;fill-opacity:1;fill-rule:nonzero;stroke:none"
       d="m 193.92969,91.863281 h 20.41406 v 40.828129 h -20.41406 z m 0,0" />
    <path
       id="path22"
       style="fill:#115e99;fill-opacity:1;fill-rule:nonzero;stroke:none"
       d="m 234.75781,91.863281 h 20.41406 v 40.828129 h -20.41406 z m 0,0" />
    <path
       id="path24"
       style="fill:#115e99;fill-opacity:1;fill-rule:nonzero;stroke:none"
       d="M 30.621094,30.621094 H 51.035156 V 71.449219 H 30.621094 Z m 0,0" />
    <path
       id="path26"
       style="fill:#115e99;fill-opacity:1;fill-rule:nonzero;stroke:none"
       d="M 71.449219,30.621094 H 91.863281 V 71.449219 H 71.449219 Z m 0,0" />
    <path
       id="path28"
       style="fill:#115e99;fill-opacity:1;fill-rule:nonzero;stroke:none"
       d="m 112.27734,30.621094 h 20.41407 v 40.828125 h -20.41407 z m 0,0" />
    <path
       id="path30"
       style="fill:#115e99;fill-opacity:1;fill-rule:nonzero;stroke:none"
       d="m 153.10156,30.621094 h 20.41406 v 40.828125 h -20.41406 z m 0,0" />
    <path
       id="path32"
       style="fill:#115e99;fill-opacity:1;fill-rule:nonzero;stroke:none"
       d="m 193.92969,30.621094 h 20.41406 v 40.828125 h -20.41406 z m 0,0" />
    <path
       id="path34"
       style="fill:#115e99;fill-opacity:1;fill-rule:nonzero;stroke:none"
       d="m 234.75781,30.621094 h 20.41406 v 40.828125 h -20.41406 z m 0,0" />
    <path
       id="path36"
       style="fill:#85ccd9;fill-opacity:1;fill-rule:nonzero;stroke:none"
       d="M 449.10156,204.13672 357.24219,296 h 51.03515 v 91.86328 h 81.65235 V 296 h 51.03515 z m 0,0" />
    <path
       id="path38"
       style="fill:#85ccd9;fill-opacity:1;fill-rule:nonzero;stroke:none"
       d="M 142.89844,387.86328 234.75781,296 H 183.72266 V 204.13672 H 102.07031 V 296 H 51.035156 Z m 0,0" />
    <path
       id="path40"
       style="fill:#4297cf;fill-opacity:1;fill-rule:nonzero;stroke:none"
       d="M 20.414062,428.69141 H 571.58594 c 11.27734,0 20.41406,9.13281 20.41406,20.41015 V 571.58594 C 592,582.86328 582.86328,592 571.58594,592 H 20.414062 C 9.136719,592 0,582.86328 0,571.58594 V 449.10156 c 0,-11.27734 9.136719,-20.41015 20.414062,-20.41015 z m 0,0" />
    <path
       id="path42"
       style="fill:#3d8ac7;fill-opacity:1;fill-rule:nonzero;stroke:none"
       d="M 571.58594,428.69141 H 367.44922 L 204.13672,592 H 571.58594 C 582.86328,592 592,582.86328 592,571.58594 V 449.10156 c 0,-11.27734 -9.13672,-20.41015 -20.41406,-20.41015 z m 0,0" />
    <path
       id="path44"
       style="fill:#87b335;fill-opacity:1;fill-rule:nonzero;stroke:none"
       d="m 551.17187,510.34375 c 0,11.27344 -9.14062,20.41406 -20.41406,20.41406 -11.27344,0 -20.41406,-9.14062 -20.41406,-20.41406 0,-11.27344 9.14062,-20.41406 20.41406,-20.41406 11.27344,0 20.41406,9.14062 20.41406,20.41406 z m 0,0" />
    <path
       id="path46"
       style="fill:#87b335;fill-opacity:1;fill-rule:nonzero;stroke:none"
       d="m 469.51562,510.34375 c 0,11.27344 -9.13671,20.41406 -20.41406,20.41406 -11.27344,0 -20.41015,-9.14062 -20.41015,-20.41406 0,-11.27344 9.13671,-20.41406 20.41015,-20.41406 11.27735,0 20.41406,9.14062 20.41406,20.41406 z m 0,0" />
    <path
       id="path48"
       style="fill:#87b335;fill-opacity:1;fill-rule:nonzero;stroke:none"
       d="m 387.86328,510.34375 c 0,11.27344 -9.14062,20.41406 -20.41406,20.41406 -11.27344,0 -20.41406,-9.14062 -20.41406,-20.41406 0,-11.27344 9.14062,-20.41406 20.41406,-20.41406 11.27344,0 20.41406,9.14062 20.41406,20.41406 z m 0,0" />
    <path
       id="path50"
       style="fill:#115e99;fill-opacity:1;fill-rule:nonzero;stroke:none"
       d="m 30.621094,520.55078 h 20.414062 v 40.82813 H 30.621094 Z m 0,0" />
    <path
       id="path52"
       style="fill:#115e99;fill-opacity:1;fill-rule:nonzero;stroke:none"
       d="m 71.449219,520.55078 h 20.414062 v 40.82813 H 71.449219 Z m 0,0" />
    <path
       id="path54"
       style="fill:#115e99;fill-opacity:1;fill-rule:nonzero;stroke:none"
       d="m 112.27734,520.55078 h 20.41407 v 40.82813 h -20.41407 z m 0,0" />
    <path
       id="path56"
       style="fill:#115e99;fill-opacity:1;fill-rule:nonzero;stroke:none"
       d="m 153.10156,520.55078 h 20.41406 v 40.82813 h -20.41406 z m 0,0" />
    <path
       id="path58"
       style="fill:#115e99;fill-opacity:1;fill-rule:nonzero;stroke:none"
       d="m 193.92969,520.55078 h 20.41406 v 40.82813 h -20.41406 z m 0,0" />
    <path
       id="path60"
       style="fill:#115e99;fill-opacity:1;fill-rule:nonzero;stroke:none"
       d="m 234.75781,520.55078 h 20.41406 v 40.82813 h -20.41406 z m 0,0" />
    <path
       id="path62"
       style="fill:#115e99;fill-opacity:1;fill-rule:nonzero;stroke:none"
       d="m 30.621094,459.30859 h 20.414062 v 40.82813 H 30.621094 Z m 0,0" />
    <path
       id="path64"
       style="fill:#115e99;fill-opacity:1;fill-rule:nonzero;stroke:none"
       d="m 71.449219,459.30859 h 20.414062 v 40.82813 H 71.449219 Z m 0,0" />
    <path
       id="path66"
       style="fill:#115e99;fill-opacity:1;fill-rule:nonzero;stroke:none"
       d="m 112.27734,459.30859 h 20.41407 v 40.82813 h -20.41407 z m 0,0" />
    <path
       id="path68"
       style="fill:#115e99;fill-opacity:1;fill-rule:nonzero;stroke:none"
       d="m 153.10156,459.30859 h 20.41406 v 40.82813 h -20.41406 z m 0,0" />
    <path
       id="path70"
       style="fill:#115e99;fill-opacity:1;fill-rule:nonzero;stroke:none"
       d="m 193.92969,459.30859 h 20.41406 v 40.82813 h -20.41406 z m 0,0" />
    <path
       id="path72"
       style="fill:#115e99;fill-opacity:1;fill-rule:nonzero;stroke:none"
       d="m 234.75781,459.30859 h 20.41406 v 40.82813 h -20.41406 z m 0,0" />
    <path
       id="path74"
       style="fill:#70c2cf;fill-opacity:1;fill-rule:nonzero;stroke:none"
       d="M 183.72266,255.17187 96.964844,341.92969 142.89844,387.86328 234.75781,296 h -51.03515 z m 0,0" />
    <path
       id="path76"
       style="fill:#70c2cf;fill-opacity:1;fill-rule:nonzero;stroke:none"
       d="m 408.27734,347.03516 v 40.82812 h 81.65235 V 296 h 51.03515 l -40.82812,-40.82813 z m 0,0" />
  </g>
</svg>
