<?xml version="1.0" encoding="utf-8"?>
<!-- Generator: Adobe Illustrator 16.0.0, SVG Export Plug-In . SVG Version: 6.00 Build 0)  -->
<!DOCTYPE svg PUBLIC "-//W3C//DTD SVG 1.1//EN" "http://www.w3.org/Graphics/SVG/1.1/DTD/svg11.dtd">
<svg version="1.1" id="Слой_1" xmlns="http://www.w3.org/2000/svg" xmlns:xlink="http://www.w3.org/1999/xlink" x="0px" y="0px"
	 width="120px" height="120px" viewBox="0 0 120 120" enable-background="new 0 0 120 120" xml:space="preserve">
<g id="Layer_2" display="none">
	<circle display="inline" opacity="0.5" fill="#DF1F26" enable-background="new    " cx="60" cy="60.001" r="60"/>
	<rect x="6.5" y="6.501" display="inline" opacity="0.5" fill="#3B4FA1" enable-background="new    " width="107" height="107"/>
</g>
<g id="normal_1_">
	<linearGradient id="SVGID_1_" gradientUnits="userSpaceOnUse" x1="59.2866" y1="1.2734" x2="59.2866" y2="125.9814">
		<stop  offset="0" style="stop-color:#BD4E02"/>
		<stop  offset="0.3391" style="stop-color:#943D01"/>
		<stop  offset="0.996" style="stop-color:#3B1800"/>
	</linearGradient>
	<path fill="url(#SVGID_1_)" d="M12.2,118.291c-1.032-0.001-1.894-0.787-1.989-1.814s0.606-1.959,1.62-2.15
		c41.096-7.77,68.868-22.873,70.753-38.479c1.23-10.181-8.439-20.341-27.978-29.416L30.486,60.466
		c-0.309,0.179-0.656,0.271-1.006,0.271c-0.196,0.001-0.394-0.028-0.585-0.087c-0.533-0.163-0.974-0.541-1.216-1.043L1.103,4.58
		C0.797,3.949,0.845,3.205,1.229,2.618c0.37-0.567,1-0.907,1.675-0.907c0.023,0,112.838,3.997,112.838,3.997
		c0.883,0.031,1.641,0.638,1.863,1.493c0.224,0.855-0.141,1.755-0.895,2.214l-30.094,18.31
		c23.357,12.629,34.087,28.283,30.267,44.321c-3.009,12.634-14.953,24.27-33.634,32.766c-19.115,8.693-44.259,13.48-70.8,13.48H12.2
		z"/>
	<linearGradient id="SVGID_2_" gradientUnits="userSpaceOnUse" x1="59.2866" y1="3.7104" x2="59.2866" y2="116.2915">
		<stop  offset="0" style="stop-color:#FF6C03"/>
		<stop  offset="1" style="stop-color:#753100"/>
	</linearGradient>
	<path fill="url(#SVGID_2_)" d="M12.202,116.291c69.487-13.137,99.7-45.97,42.295-72.11L29.48,58.738L2.903,3.71L115.67,7.706
		l-33.119,20.15C153.316,63.595,101.535,116.389,12.202,116.291L12.202,116.291z"/>
	<linearGradient id="SVGID_3_" gradientUnits="userSpaceOnUse" x1="59.8872" y1="5.4126" x2="59.8872" y2="123.578">
		<stop  offset="0" style="stop-color:#FF8F03"/>
		<stop  offset="1" style="stop-color:#B52E00"/>
	</linearGradient>
	<path fill="url(#SVGID_3_)" d="M12.202,116.291C62.25,107.5,84.804,90.823,86.555,76.327c1.031-8.538-3.549-21.362-31.229-33.966
		c-0.264-0.12-0.546-0.18-0.829-0.18c-0.349,0-0.696,0.091-1.006,0.271l-23.149,13.47L6.146,5.827l102.779,3.642l-27.415,16.68
		c-0.62,0.377-0.987,1.062-0.958,1.788c0.028,0.726,0.448,1.379,1.097,1.706c23.728,11.983,34.859,26.713,31.343,41.477
		C107.983,92.145,74.5,115,12.202,116.291z"/>
	
		<radialGradient id="SVGID_4_" cx="-1132.2993" cy="3519.5566" r="202.1974" gradientTransform="matrix(-0.4649 -0.8969 0.2252 -0.03 -1208.6124 -861.1464)" gradientUnits="userSpaceOnUse">
		<stop  offset="0" style="stop-color:#FFFFFF"/>
		<stop  offset="1" style="stop-color:#FFFFFF;stop-opacity:0"/>
	</radialGradient>
	<path opacity="0.6989" fill="url(#SVGID_4_)" enable-background="new    " d="M59.658,9.712
		c-16.134,41.866,88.175,43.825,15.997,96.749c0,0,28.318-11.512,36.292-24.365c12.695-20.461,1.986-39.279-32.974-54.919
		l21.179-12.151l7.35-4.155L59.658,9.712z"/>
</g>
<g id="active_1_">
	<linearGradient id="SVGID_5_" gradientUnits="userSpaceOnUse" x1="59.2866" y1="1.2734" x2="59.2866" y2="125.9814">
		<stop  offset="0" style="stop-color:#BD4E02"/>
		<stop  offset="0.3391" style="stop-color:#943D01"/>
		<stop  offset="0.996" style="stop-color:#3B1800"/>
	</linearGradient>
	<path fill="url(#SVGID_5_)" d="M12.2,118.291c-1.032-0.001-1.894-0.787-1.989-1.814s0.606-1.959,1.62-2.15
		c41.096-7.77,68.868-22.873,70.753-38.479c1.23-10.181-8.439-20.341-27.978-29.416L30.486,60.466
		c-0.309,0.179-0.656,0.271-1.006,0.271c-0.196,0.001-0.394-0.028-0.585-0.087c-0.533-0.163-0.974-0.541-1.216-1.043L1.103,4.58
		C0.797,3.949,0.845,3.205,1.229,2.618c0.37-0.567,1-0.907,1.675-0.907c0.023,0,112.838,3.997,112.838,3.997
		c0.883,0.031,1.641,0.638,1.863,1.493c0.224,0.855-0.141,1.755-0.895,2.214l-30.094,18.31
		c23.357,12.629,34.087,28.283,30.267,44.321c-3.009,12.634-14.953,24.27-33.634,32.766c-19.115,8.693-44.259,13.48-70.8,13.48H12.2
		z"/>
	<linearGradient id="SVGID_6_" gradientUnits="userSpaceOnUse" x1="59.2866" y1="3.7104" x2="59.2866" y2="116.2915">
		<stop  offset="0" style="stop-color:#FF6C03"/>
		<stop  offset="1" style="stop-color:#753100"/>
	</linearGradient>
	<path fill="url(#SVGID_6_)" d="M12.202,116.291c69.487-13.137,99.7-45.97,42.295-72.11L29.48,58.738L2.903,3.71L115.67,7.706
		l-33.119,20.15C153.316,63.595,101.535,116.389,12.202,116.291L12.202,116.291z"/>
	<linearGradient id="SVGID_7_" gradientUnits="userSpaceOnUse" x1="59.8872" y1="5.4126" x2="59.8872" y2="123.578">
		<stop  offset="0" style="stop-color:#FF8F03"/>
		<stop  offset="1" style="stop-color:#B52E00"/>
	</linearGradient>
	<path fill="url(#SVGID_7_)" d="M12.202,116.291C62.25,107.5,84.804,90.823,86.555,76.327c1.031-8.538-3.549-21.362-31.229-33.966
		c-0.264-0.12-0.546-0.18-0.829-0.18c-0.349,0-0.696,0.091-1.006,0.271l-23.149,13.47L6.146,5.827l102.779,3.642l-27.415,16.68
		c-0.62,0.377-0.987,1.062-0.958,1.788c0.028,0.726,0.448,1.379,1.097,1.706c23.728,11.983,34.859,26.713,31.343,41.477
		C107.983,92.145,74.5,115,12.202,116.291z"/>
	
		<radialGradient id="SVGID_8_" cx="-1132.2993" cy="3519.5566" r="202.1974" gradientTransform="matrix(-0.4649 -0.8969 0.2252 -0.03 -1208.6124 -861.1464)" gradientUnits="userSpaceOnUse">
		<stop  offset="0" style="stop-color:#FFFFFF"/>
		<stop  offset="1" style="stop-color:#FFFFFF;stop-opacity:0"/>
	</radialGradient>
	<path opacity="0.6989" fill="url(#SVGID_8_)" enable-background="new    " d="M59.658,9.712
		c-16.134,41.866,88.175,43.825,15.997,96.749c0,0,28.318-11.512,36.292-24.365c12.695-20.461,1.986-39.279-32.974-54.919
		l21.179-12.151l7.35-4.155L59.658,9.712z"/>
</g>
<g id="disabled" opacity="0.2">
	<linearGradient id="SVGID_9_" gradientUnits="userSpaceOnUse" x1="59.2866" y1="1.2734" x2="59.2866" y2="125.9814">
		<stop  offset="0" style="stop-color:#BD4E02"/>
		<stop  offset="0.3391" style="stop-color:#943D01"/>
		<stop  offset="0.996" style="stop-color:#3B1800"/>
	</linearGradient>
	<path fill="url(#SVGID_9_)" d="M12.2,118.291c-1.032-0.001-1.894-0.787-1.989-1.814s0.606-1.959,1.62-2.15
		c41.096-7.77,68.868-22.873,70.753-38.479c1.23-10.181-8.439-20.341-27.978-29.416L30.486,60.466
		c-0.309,0.179-0.656,0.271-1.006,0.271c-0.196,0.001-0.394-0.028-0.585-0.087c-0.533-0.163-0.974-0.541-1.216-1.043L1.103,4.58
		C0.797,3.949,0.845,3.205,1.229,2.618c0.37-0.567,1-0.907,1.675-0.907c0.023,0,112.838,3.997,112.838,3.997
		c0.883,0.031,1.641,0.638,1.863,1.493c0.224,0.855-0.141,1.755-0.895,2.214l-30.094,18.31
		c23.357,12.629,34.087,28.283,30.267,44.321c-3.009,12.634-14.953,24.27-33.634,32.766c-19.115,8.693-44.259,13.48-70.8,13.48H12.2
		z"/>
	<linearGradient id="SVGID_10_" gradientUnits="userSpaceOnUse" x1="59.2866" y1="3.7104" x2="59.2866" y2="116.2915">
		<stop  offset="0" style="stop-color:#FF6C03"/>
		<stop  offset="1" style="stop-color:#753100"/>
	</linearGradient>
	<path fill="url(#SVGID_10_)" d="M12.202,116.291c69.487-13.137,99.7-45.97,42.295-72.11L29.48,58.738L2.903,3.71L115.67,7.706
		l-33.119,20.15C153.316,63.595,101.535,116.389,12.202,116.291L12.202,116.291z"/>
	<linearGradient id="SVGID_11_" gradientUnits="userSpaceOnUse" x1="59.8872" y1="5.4126" x2="59.8872" y2="123.578">
		<stop  offset="0" style="stop-color:#FF8F03"/>
		<stop  offset="1" style="stop-color:#B52E00"/>
	</linearGradient>
	<path fill="url(#SVGID_11_)" d="M12.202,116.291C62.25,107.5,84.804,90.823,86.555,76.327c1.031-8.538-3.549-21.362-31.229-33.966
		c-0.264-0.12-0.546-0.18-0.829-0.18c-0.349,0-0.696,0.091-1.006,0.271l-23.149,13.47L6.146,5.827l102.779,3.642l-27.415,16.68
		c-0.62,0.377-0.987,1.062-0.958,1.788c0.028,0.726,0.448,1.379,1.097,1.706c23.728,11.983,34.859,26.713,31.343,41.477
		C107.983,92.145,74.5,115,12.202,116.291z"/>
</g>
</svg>
