<?xml version="1.0" encoding="utf-8"?>
<!-- Generator: Adobe Illustrator 16.0.0, SVG Export Plug-In . SVG Version: 6.00 Build 0)  -->
<!DOCTYPE svg PUBLIC "-//W3C//DTD SVG 1.1//EN" "http://www.w3.org/Graphics/SVG/1.1/DTD/svg11.dtd">
<svg version="1.1" id="Calque_1" xmlns="http://www.w3.org/2000/svg" xmlns:xlink="http://www.w3.org/1999/xlink" x="0px" y="0px"
	 width="114px" height="114px" viewBox="0 0 114 114" enable-background="new 0 0 114 114" xml:space="preserve">
<g id="normal_2_">
	
		<linearGradient id="SVGID_1_" gradientUnits="userSpaceOnUse" x1="22.1157" y1="-1493.0215" x2="22.1157" y2="-1385.6353" gradientTransform="matrix(1 0 0 -1 33.3394 -1382.7451)">
		<stop  offset="0" style="stop-color:#FFFFFF"/>
		<stop  offset="0.1517" style="stop-color:#939393"/>
		<stop  offset="0.4438" style="stop-color:#FFFFFF"/>
		<stop  offset="0.736" style="stop-color:#D6D6D6"/>
		<stop  offset="1" style="stop-color:#FFFFFF"/>
	</linearGradient>
	<path fill="url(#SVGID_1_)" stroke="#000000" stroke-width="0.5" stroke-miterlimit="10" d="M47.504,110.276
		c-1.888,0-3.459-1.422-3.623-3.271c0,0-1.071-12.162-1.398-15.891c-8.703-2.604-16.573-7.988-22.379-15.361
		c-6.384-8.1-9.899-18.15-9.899-28.291c0-11.906,4.707-23.099,13.256-31.515C32.007,7.527,43.37,2.89,55.456,2.89
		c12.085,0,23.448,4.635,31.997,13.056c8.545,8.417,13.252,19.609,13.252,31.514c0,10.162-3.51,20.217-9.881,28.316
		c-5.801,7.369-13.68,12.756-22.395,15.342c-0.328,3.736-1.396,15.887-1.396,15.887c-0.164,1.854-1.734,3.271-3.623,3.271H47.504"/>
	
		<linearGradient id="SVGID_2_" gradientUnits="userSpaceOnUse" x1="5.3784" y1="-2258.2393" x2="5.3784" y2="-2158.0122" gradientTransform="matrix(1 0 0 -1 50.0791 -2151.5449)">
		<stop  offset="0" style="stop-color:#724300"/>
		<stop  offset="0.17" style="stop-color:#ECCD14;stop-opacity:0.8085"/>
		<stop  offset="1" style="stop-color:#F2FA0C"/>
	</linearGradient>
	<path fill="url(#SVGID_2_)" d="M55.457,6.467c22.986,0,41.613,18.353,41.613,40.989c0,19.418-13.641,36.619-32.043,40.855
		l-1.615,18.383H47.506l-1.618-18.383C27.521,84.05,13.844,66.849,13.844,47.456C13.841,24.82,32.474,6.467,55.457,6.467
		L55.457,6.467z"/>
	
		<radialGradient id="SVGID_3_" cx="-1202.9639" cy="-2169.2236" r="46.0599" gradientTransform="matrix(-4.371139e-008 -1 -0.7 3.059797e-008 -1462.9989 -1146.3835)" gradientUnits="userSpaceOnUse">
		<stop  offset="0.5688" style="stop-color:#F2FA0C"/>
		<stop  offset="0.62" style="stop-color:#EEF40C"/>
		<stop  offset="0.6855" style="stop-color:#E3E50B"/>
		<stop  offset="0.7587" style="stop-color:#D1CA09"/>
		<stop  offset="0.8376" style="stop-color:#B7A606"/>
		<stop  offset="0.9201" style="stop-color:#977703"/>
		<stop  offset="1" style="stop-color:#724300"/>
	</radialGradient>
	<path opacity="0.3" fill="url(#SVGID_3_)" enable-background="new    " d="M55.457,6.467c22.986,0,41.613,18.353,41.613,40.989
		c0,19.418-13.641,36.619-32.043,40.855l-1.615,18.383H47.506l-1.618-18.383C27.521,84.05,13.844,66.849,13.844,47.456
		C13.841,24.82,32.474,6.467,55.457,6.467L55.457,6.467z"/>
	
		<linearGradient id="SVGID_4_" gradientUnits="userSpaceOnUse" x1="5.3804" y1="-2236.6729" x2="5.3804" y2="-2200.3223" gradientTransform="matrix(1 0 0 -1 50.0791 -2151.5449)">
		<stop  offset="0" style="stop-color:#FAFBAE"/>
		<stop  offset="1" style="stop-color:#DDB100;stop-opacity:0"/>
	</linearGradient>
	<path fill="url(#SVGID_4_)" d="M55.457,85.128c22.723,0,37.854-13.971,37.854-36.351c-33.977,15.841-39.719,14.878-75.702,0
		C17.608,71.157,32.733,85.128,55.457,85.128L55.457,85.128z"/>
	<path d="M83.82,58.702v-17.15h6.197v17.15H83.82L83.82,58.702z M65.219,58.702h9.301V35.835h6.199v28.59h-15.5V58.702
		L65.219,58.702z M65.219,30.116h6.195v25.734h-6.195V30.116L65.219,30.116z M55.919,72.999H34.216
		c-4.189,0-6.152-2.619-6.152-6.484V28.027c0-3.865,1.963-6.487,6.152-6.487h18.599c4.189,0,9.3,1.854,9.3,5.717V67.28
		C62.115,71.147,60.107,72.999,55.919,72.999L55.919,72.999z M33.756,58.626c0,4.354,3.828,7.889,8.552,7.889
		c4.729,0,8.555-3.531,8.555-7.889c0-4.354-3.827-7.889-8.555-7.889C37.583,50.737,33.756,54.271,33.756,58.626L33.756,58.626z
		 M52.722,28.027c-3.141,0-5.687,2.351-5.687,5.247c0,2.898,2.545,5.251,5.687,5.251c3.144,0,5.692-2.353,5.692-5.251
		C58.416,30.378,55.866,28.027,52.722,28.027L52.722,28.027z"/>
	
		<linearGradient id="SVGID_5_" gradientUnits="userSpaceOnUse" x1="-15.9126" y1="-2167.6392" x2="-15.9126" y2="-2192.0947" gradientTransform="matrix(1 0 0 -1 50.0791 -2151.5449)">
		<stop  offset="0" style="stop-color:#FFFFFF"/>
		<stop  offset="1" style="stop-color:#FFFFFF;stop-opacity:0"/>
	</linearGradient>
	<path fill="url(#SVGID_5_)" d="M46.581,16.094c-0.547,0.662-11.715-0.28-11.715,12.015C21.19,28.323,22.397,39.966,21.752,40.55
		C21.751,25.869,31.676,16.094,46.581,16.094L46.581,16.094z"/>
	<path fill="#FFFFFF" d="M84.798,111.703l-0.605-1.18c-0.536-1.045-1.116-2.32-1.729-3.807c-0.418-0.021-0.838-0.054-1.262-0.1
		c-0.839,1.395-1.592,2.546-2.286,3.503l-0.772,1.066l-1.613-0.405c-1.505-0.4-2.932-0.912-4.291-1.534l-1.2-0.55l0.063-1.318
		c0.058-1.186,0.193-2.58,0.402-4.158c-0.356-0.229-0.707-0.469-1.048-0.715c-1.429,0.789-2.655,1.414-3.728,1.893l-1.207,0.539
		l-0.948-0.922c-1.177-1.145-2.251-2.396-3.192-3.723l-0.765-1.076l0.718-1.11c0.633-0.978,1.432-2.097,2.43-3.396
		c-0.194-0.375-0.379-0.759-0.551-1.145c-1.649-0.03-3.025-0.105-4.183-0.229l-1.31-0.14L57.36,91.93
		c-0.451-1.59-0.755-3.213-0.904-4.82l-0.121-1.311l1.168-0.604c1.059-0.546,2.336-1.127,3.811-1.734
		c0.021-0.416,0.054-0.838,0.098-1.26c-1.382-0.835-2.557-1.6-3.501-2.285l-1.034-0.75l0.274-1.25
		c0.028-0.128,0.062-0.258,0.093-0.381c0.393-1.478,0.903-2.902,1.533-4.294l0.546-1.208l1.325,0.064
		c1.189,0.059,2.56,0.19,4.162,0.404c0.229-0.357,0.468-0.707,0.713-1.048c-0.787-1.426-1.411-2.653-1.891-3.729l-0.541-1.208
		l0.922-0.947c1.146-1.179,2.399-2.252,3.723-3.189l1.076-0.764l1.109,0.715c0.978,0.631,2.117,1.445,3.397,2.428
		c0.375-0.192,0.757-0.377,1.144-0.551c0.031-1.64,0.104-3.014,0.225-4.17l0.137-1.316l1.273-0.359
		c1.604-0.453,3.227-0.758,4.817-0.906l1.313-0.123l0.604,1.174c0.531,1.035,1.111,2.312,1.729,3.805
		c0.422,0.021,0.844,0.053,1.265,0.098c0.834-1.38,1.599-2.552,2.278-3.497l0.744-1.028l1.703,0.375
		c1.467,0.394,2.895,0.903,4.24,1.52l1.204,0.55l-0.065,1.321c-0.06,1.171-0.194,2.564-0.403,4.156
		c0.354,0.229,0.704,0.468,1.046,0.714c1.396-0.774,2.646-1.407,3.725-1.89l1.201-0.537l0.947,0.914
		c1.146,1.104,2.223,2.356,3.197,3.718l0.772,1.081l-0.723,1.113c-0.638,0.984-1.452,2.121-2.429,3.396
		c0.193,0.375,0.377,0.757,0.552,1.146c1.661,0.033,3.034,0.109,4.171,0.229l1.313,0.137l0.36,1.27
		c0.446,1.565,0.753,3.187,0.911,4.813l0.128,1.318l-1.179,0.605c-1.03,0.529-2.307,1.108-3.805,1.729
		c-0.021,0.421-0.054,0.844-0.1,1.266c1.404,0.847,2.559,1.599,3.501,2.278l1.075,0.777l-0.43,1.677
		c-0.392,1.454-0.901,2.88-1.518,4.231L107.692,97l-1.327-0.07c-1.203-0.063-2.595-0.2-4.149-0.406
		c-0.229,0.355-0.467,0.707-0.713,1.048c0.784,1.422,1.406,2.646,1.889,3.722l0.541,1.205l-0.918,0.949
		c-1.121,1.158-2.371,2.234-3.721,3.197l-1.082,0.771l-1.113-0.725c-0.986-0.641-2.125-1.456-3.394-2.428
		c-0.378,0.195-0.759,0.38-1.144,0.552c-0.03,1.665-0.106,3.042-0.229,4.182l-0.142,1.308l-1.264,0.358
		c-1.559,0.444-3.178,0.75-4.813,0.91L84.798,111.703z M85.103,102.816l0.496,1.256c0.52,1.309,1.011,2.465,1.469,3.453
		c0.506-0.079,1.006-0.173,1.501-0.283c0.067-1.052,0.104-2.289,0.11-3.747l0.006-1.347l1.262-0.471
		c0.999-0.373,1.99-0.852,2.945-1.42l1.154-0.685l1.051,0.831c1.104,0.871,2.107,1.627,3.002,2.255
		c0.399-0.319,0.785-0.649,1.158-0.991c-0.481-0.968-1.076-2.072-1.776-3.3l-0.667-1.167l0.854-1.038
		c0.68-0.825,1.299-1.733,1.84-2.702l0.656-1.175l1.332,0.198c1.368,0.203,2.614,0.354,3.721,0.453
		c0.182-0.473,0.349-0.952,0.502-1.438c-0.889-0.592-1.944-1.242-3.194-1.974l-1.163-0.681l0.227-1.33
		c0.182-1.074,0.266-2.168,0.25-3.25l-0.021-1.346l1.252-0.496c1.316-0.521,2.474-1.015,3.451-1.47
		c-0.078-0.503-0.172-1.003-0.282-1.498c-1.054-0.065-2.293-0.104-3.753-0.114l-1.34-0.011l-0.473-1.257
		c-0.383-1.025-0.859-2.013-1.412-2.934l-0.695-1.156l0.837-1.059c0.874-1.105,1.63-2.111,2.257-3.002
		c-0.32-0.4-0.652-0.787-0.99-1.155c-0.978,0.483-2.078,1.077-3.293,1.774l-1.17,0.674l-1.042-0.859
		c-0.829-0.684-1.737-1.303-2.698-1.84l-1.174-0.656l0.194-1.329c0.204-1.394,0.356-2.642,0.452-3.726
		c-0.471-0.182-0.949-0.351-1.436-0.502c-0.602,0.904-1.264,1.973-1.978,3.195l-0.681,1.162l-1.328-0.224
		c-1.006-0.17-2.023-0.255-3.028-0.255l-1.569,0.018l-0.496-1.248c-0.521-1.313-1.013-2.469-1.469-3.451
		c-0.497,0.077-0.996,0.172-1.497,0.284c-0.065,1.063-0.103,2.3-0.11,3.745l-0.008,1.339l-1.254,0.474
		c-1.023,0.389-2.017,0.865-2.949,1.42l-1.151,0.688l-1.054-0.833c-1.111-0.877-2.115-1.631-3.004-2.254
		c-0.395,0.316-0.779,0.646-1.156,0.991c0.479,0.965,1.074,2.069,1.777,3.298l0.668,1.168l-0.854,1.039
		c-0.673,0.816-1.293,1.729-1.845,2.708l-0.656,1.169l-1.328-0.197c-1.395-0.205-2.641-0.356-3.723-0.453
		c-0.187,0.478-0.354,0.957-0.504,1.436c0.901,0.601,1.972,1.263,3.193,1.975l1.163,0.678l-0.221,1.328
		c-0.185,1.102-0.269,2.195-0.25,3.252l0.021,1.354l-1.259,0.495c-1.302,0.512-2.458,1.002-3.45,1.465
		c0.075,0.502,0.17,1.002,0.28,1.502c1.062,0.067,2.302,0.104,3.752,0.11l1.347,0.007l0.471,1.259
		c0.381,1.016,0.855,2.008,1.416,2.949l0.687,1.152l-0.83,1.053c-0.884,1.119-1.64,2.123-2.258,3.001
		c0.317,0.396,0.647,0.78,0.992,1.157c0.965-0.48,2.067-1.075,3.301-1.779l1.17-0.67l1.04,0.859c0.821,0.68,1.73,1.299,2.7,1.844
		l1.174,0.656l-0.198,1.332c-0.207,1.383-0.357,2.627-0.455,3.717c0.473,0.186,0.951,0.353,1.437,0.504
		c0.599-0.9,1.259-1.969,1.972-3.191l0.678-1.163l1.328,0.222c1.01,0.168,2.01,0.252,2.971,0.252L85.103,102.816z M83.515,100.264
		c-0.002,0,0,0-0.002,0c-1.373,0-2.746-0.182-4.082-0.539C71.044,97.477,66.05,88.826,68.294,80.44
		c1.848-6.873,8.098-11.67,15.204-11.67c1.372,0,2.745,0.18,4.082,0.538c8.384,2.248,13.378,10.896,11.136,19.281
		C96.871,95.465,90.62,100.264,83.515,100.264z M83.499,72.67c-5.345,0-10.048,3.61-11.438,8.78
		c-1.688,6.31,2.068,12.815,8.378,14.507c1.007,0.271,2.042,0.407,3.073,0.407c5.347,0,10.049-3.61,11.436-8.782
		c1.688-6.307-2.07-12.813-8.377-14.506C85.564,72.805,84.531,72.67,83.499,72.67z"/>
	<radialGradient id="SVGID_6_" cx="83.5117" cy="84.5156" r="25.1167" gradientUnits="userSpaceOnUse">
		<stop  offset="0.0337" style="stop-color:#8A8883"/>
		<stop  offset="0.1183" style="stop-color:#949392"/>
		<stop  offset="0.2191" style="stop-color:#A3A3A9"/>
		<stop  offset="0.3447" style="stop-color:#94959A"/>
		<stop  offset="0.5846" style="stop-color:#6D7073"/>
		<stop  offset="0.7191" style="stop-color:#55595B"/>
		<stop  offset="1" style="stop-color:#7D8084"/>
	</radialGradient>
	<path fill="url(#SVGID_6_)" d="M107.974,90.688c-0.031,0.119-0.063,0.24-0.096,0.363c-0.367,1.371-0.839,2.681-1.408,3.933
		c-1.416-0.075-3.168-0.259-5.262-0.57c-0.594,1.063-1.273,2.065-2.035,2.99c1.049,1.838,1.862,3.399,2.441,4.688
		c-1.063,1.098-2.219,2.086-3.453,2.967c-1.188-0.772-2.615-1.813-4.273-3.123c-1.037,0.617-2.125,1.145-3.26,1.568
		c-0.011,2.117-0.08,3.875-0.232,5.284c-1.449,0.413-2.948,0.696-4.469,0.845c-0.647-1.262-1.36-2.871-2.142-4.845
		c-1.192,0.021-2.396-0.075-3.604-0.276c-1.063,1.824-2.01,3.313-2.844,4.465c-0.123-0.031-0.242-0.063-0.359-0.092
		c-1.375-0.367-2.684-0.842-3.93-1.41c0.068-1.418,0.256-3.17,0.567-5.26c-1.065-0.598-2.065-1.277-2.989-2.043
		c-1.839,1.053-3.398,1.866-4.693,2.445c-1.092-1.063-2.086-2.219-2.963-3.453c0.771-1.189,1.814-2.615,3.123-4.271
		c-0.619-1.04-1.144-2.13-1.566-3.263c-2.118-0.01-3.879-0.084-5.291-0.232c-0.411-1.45-0.697-2.948-0.839-4.469
		c1.26-0.65,2.872-1.366,4.844-2.142c-0.021-1.192,0.076-2.399,0.276-3.604c-1.825-1.063-3.316-2.014-4.463-2.846
		c0.026-0.121,0.059-0.242,0.088-0.356c0.365-1.376,0.844-2.685,1.408-3.937c1.422,0.07,3.172,0.26,5.266,0.569
		c0.597-1.062,1.275-2.065,2.037-2.991c-1.049-1.837-1.864-3.398-2.441-4.691c1.063-1.092,2.219-2.084,3.451-2.959
		c1.191,0.768,2.617,1.809,4.275,3.119c1.037-0.619,2.127-1.144,3.256-1.569c0.014-2.115,0.088-3.873,0.232-5.282
		c1.454-0.41,2.952-0.7,4.469-0.842c0.646,1.259,1.358,2.872,2.141,4.84c1.193-0.016,2.396,0.077,3.605,0.28
		c1.067-1.828,2.016-3.314,2.844-4.462c0.125,0.025,0.244,0.061,0.359,0.087c1.371,0.368,2.684,0.839,3.937,1.409
		c-0.071,1.42-0.259,3.17-0.566,5.265c1.06,0.592,2.063,1.276,2.988,2.038c1.836-1.057,3.399-1.868,4.688-2.443
		c1.1,1.061,2.084,2.221,2.965,3.45c-0.771,1.19-1.814,2.618-3.125,4.274c0.621,1.033,1.146,2.129,1.568,3.256
		c2.12,0.017,3.875,0.089,5.283,0.236c0.414,1.451,0.699,2.952,0.846,4.469c-1.259,0.646-2.877,1.361-4.842,2.141
		c0.018,1.191-0.072,2.4-0.277,3.605C105.335,88.912,106.824,89.857,107.974,90.688L107.974,90.688z M87.077,71.192
		c-7.361-1.972-14.923,2.396-16.898,9.753c-1.969,7.359,2.402,14.924,9.756,16.896c7.361,1.972,14.924-2.396,16.897-9.754
		C98.802,80.728,94.435,73.165,87.077,71.192L87.077,71.192z"/>
</g>
</svg>
