<?xml version="1.0" encoding="utf-8"?>
<!-- Generator: Adobe Illustrator 19.2.1, SVG Export Plug-In . SVG Version: 6.00 Build 0)  -->
<svg version="1.1" id="Слой_1" xmlns="http://www.w3.org/2000/svg" xmlns:xlink="http://www.w3.org/1999/xlink" x="0px" y="0px"
	 viewBox="0 0 120 120" enable-background="new 0 0 120 120" xml:space="preserve">
<g id="Layer_4" display="none">
	<circle display="inline" opacity="0.5" fill="#DF1F26" enable-background="new    " cx="60" cy="60" r="60"/>
	<rect x="6.5" y="6.5" display="inline" opacity="0.5" fill="#3B4FA1" enable-background="new    " width="107" height="107"/>
</g>
<g id="normal">
	
		<radialGradient id="SVGID_1_" cx="60.0005" cy="60" r="45.1676" gradientTransform="matrix(1 0 0 8 0 -420)" gradientUnits="userSpaceOnUse">
		<stop  offset="0" style="stop-color:#FFFFFF"/>
		<stop  offset="0.1146" style="stop-color:#F7F7F7"/>
		<stop  offset="0.2968" style="stop-color:#E0E0E0"/>
		<stop  offset="0.5239" style="stop-color:#BABABA"/>
		<stop  offset="0.7843" style="stop-color:#868686"/>
		<stop  offset="1" style="stop-color:#565656"/>
	</radialGradient>
	<path fill="url(#SVGID_1_)" d="M60,75.179c-9.012,0-16.317-7.167-16.317-16.008V22.508C43.683,13.667,50.988,6.5,60,6.5
		c9.01,0,16.316,7.167,16.316,16.008V59.17C76.316,68.011,69.01,75.179,60,75.179L60,75.179z M94.863,60.041c0,0.1,0,0.196,0,0.281
		c0,18.466-15.593,33.434-34.827,33.434c-19.164,0-34.708-14.86-34.822-33.232c-0.074-0.345-0.113-0.703-0.113-1.07
		c0-2.837,2.298-5.138,5.13-5.138c2.756,0,4.995,2.175,5.119,4.903c0.022,0.005,0.035,0.009,0.035,0.014c0-0.401,0-0.765,0-0.765
		c0,13.999,11.037,25.346,24.652,25.346c13.375,0,24.256-10.177,24.633-23.809c-0.019-0.18-0.03-0.364-0.03-0.55
		c0-2.837,2.296-5.138,5.13-5.138s5.13,2.301,5.13,5.138C94.899,59.653,94.885,59.848,94.863,60.041L94.863,60.041z M73.446,113.5
		H46.542c-2.705,0-4.898-2.197-4.898-4.906s2.193-4.906,4.898-4.906h26.904c2.705,0,4.898,2.197,4.898,4.906
		S76.151,113.5,73.446,113.5L73.446,113.5z M54.832,105.012v-12.92h10.334v12.92H54.832L54.832,105.012z"/>
</g>
<g id="active">
	<path fill="#D7D7D7" d="M60,75.179c-9.012,0-16.317-7.167-16.317-16.008V22.508C43.683,13.667,50.988,6.5,60,6.5
		c9.01,0,16.316,7.167,16.316,16.008V59.17C76.316,68.011,69.01,75.179,60,75.179L60,75.179z M94.863,60.041c0,0.1,0,0.196,0,0.281
		c0,18.466-15.593,33.434-34.827,33.434c-19.164,0-34.708-14.86-34.822-33.232c-0.074-0.345-0.113-0.703-0.113-1.07
		c0-2.837,2.298-5.138,5.13-5.138c2.756,0,4.995,2.175,5.119,4.903c0.022,0.005,0.035,0.009,0.035,0.014c0-0.401,0-0.765,0-0.765
		c0,13.999,11.037,25.346,24.652,25.346c13.375,0,24.256-10.177,24.633-23.809c-0.019-0.18-0.03-0.364-0.03-0.55
		c0-2.837,2.296-5.138,5.13-5.138s5.13,2.301,5.13,5.138C94.899,59.653,94.885,59.848,94.863,60.041L94.863,60.041z M73.446,113.5
		H46.542c-2.705,0-4.898-2.197-4.898-4.906s2.193-4.906,4.898-4.906h26.904c2.705,0,4.898,2.197,4.898,4.906
		S76.151,113.5,73.446,113.5L73.446,113.5z M54.832,105.012v-12.92h10.334v12.92H54.832L54.832,105.012z"/>
</g>
<g id="disabled" opacity="0.2">
	<path fill="#D7D7D7" d="M60,75.179c-9.012,0-16.317-7.167-16.317-16.008V22.508C43.683,13.667,50.988,6.5,60,6.5
		c9.01,0,16.316,7.167,16.316,16.008V59.17C76.316,68.011,69.01,75.179,60,75.179L60,75.179z M94.863,60.041c0,0.1,0,0.196,0,0.281
		c0,18.466-15.593,33.434-34.827,33.434c-19.164,0-34.708-14.86-34.822-33.232c-0.074-0.345-0.113-0.703-0.113-1.07
		c0-2.837,2.298-5.138,5.13-5.138c2.756,0,4.995,2.175,5.119,4.903c0.022,0.005,0.035,0.009,0.035,0.014c0-0.401,0-0.765,0-0.765
		c0,13.999,11.037,25.346,24.652,25.346c13.375,0,24.256-10.177,24.633-23.809c-0.019-0.18-0.03-0.364-0.03-0.55
		c0-2.837,2.296-5.138,5.13-5.138s5.13,2.301,5.13,5.138C94.899,59.653,94.885,59.848,94.863,60.041L94.863,60.041z M73.446,113.5
		H46.542c-2.705,0-4.898-2.197-4.898-4.906s2.193-4.906,4.898-4.906h26.904c2.705,0,4.898,2.197,4.898,4.906
		S76.151,113.5,73.446,113.5L73.446,113.5z M54.832,105.012v-12.92h10.334v12.92H54.832L54.832,105.012z"/>
</g>
</svg>
