<?xml version="1.0" encoding="utf-8"?>
<!-- Generator: Adobe Illustrator 16.0.0, SVG Export Plug-In . SVG Version: 6.00 Build 0)  -->
<!DOCTYPE svg PUBLIC "-//W3C//DTD SVG 1.1//EN" "http://www.w3.org/Graphics/SVG/1.1/DTD/svg11.dtd">
<svg version="1.1" id="Слой_1" xmlns="http://www.w3.org/2000/svg" xmlns:xlink="http://www.w3.org/1999/xlink" x="0px" y="0px"
	 width="120px" height="120px" viewBox="0 0 120 120" enable-background="new 0 0 120 120" xml:space="preserve">
<g id="Layer_4" display="none">
	<linearGradient id="SVGID_1_" gradientUnits="userSpaceOnUse" x1="0" y1="60" x2="120" y2="60">
		<stop  offset="0" style="stop-color:#FFFFFF"/>
		<stop  offset="1" style="stop-color:#000000"/>
	</linearGradient>
	<circle display="inline" opacity="0.5" fill="url(#SVGID_1_)" enable-background="new    " cx="60" cy="60" r="60"/>
	<linearGradient id="SVGID_2_" gradientUnits="userSpaceOnUse" x1="6.5" y1="60" x2="113.5" y2="60">
		<stop  offset="0" style="stop-color:#FFFFFF"/>
		<stop  offset="1" style="stop-color:#000000"/>
	</linearGradient>
	
		<rect x="6.5" y="6.5" display="inline" opacity="0.5" fill="url(#SVGID_2_)" enable-background="new    " width="107" height="107"/>
</g>
<g id="normal_1_">
	<g>
		<g>
			<g>
				
					<linearGradient id="SVGID_3_" gradientUnits="userSpaceOnUse" x1="52.9331" y1="80.2441" x2="66.1016" y2="80.2441" gradientTransform="matrix(0.8764 -0.4816 0.774 1.4085 -30.8359 17.2611)">
					<stop  offset="0" style="stop-color:#666666"/>
					<stop  offset="0.2281" style="stop-color:#F1F1F1"/>
					<stop  offset="0.2924" style="stop-color:#666666"/>
					<stop  offset="0.6608" style="stop-color:#FFFFFF"/>
					<stop  offset="1" style="stop-color:#363636"/>
				</linearGradient>
				<polygon fill="url(#SVGID_3_)" points="96.365,111.705 84.935,118.025 70.505,91.542 81.931,85.215 				"/>
			</g>
			<path fill="#4E4E4E" d="M33.594,10.93C10.58,23.575,2.173,52.487,14.822,75.5c12.644,23.009,41.553,31.406,64.567,18.767
				c23.02-12.652,31.427-41.549,18.781-64.566C85.514,6.688,56.613-1.72,33.594,10.93z M75.009,86.293
				c-18.606,10.225-41.982,3.422-52.208-15.177c-10.227-18.611-3.428-41.984,15.177-52.208C56.59,8.68,79.956,15.479,90.187,34.086
				C100.402,52.696,93.618,76.063,75.009,86.293z"/>
			<g>
				<defs>
					<path id="SVGID_4_" d="M78.816,93.219c-22.399,12.304-50.64,4.096-62.949-18.295C3.561,52.523,11.774,24.284,34.17,11.977
						C56.567-0.329,84.805,7.88,97.117,30.279C109.424,52.677,101.208,80.912,78.816,93.219L78.816,93.219z M37.403,17.858
						c-19.159,10.529-26.178,34.673-15.651,53.83c10.522,19.161,34.67,26.175,53.829,15.653
						c19.161-10.53,26.177-34.678,15.657-53.833C80.709,14.353,56.56,7.331,37.403,17.858L37.403,17.858z"/>
				</defs>
				<clipPath id="SVGID_5_">
					<use xlink:href="#SVGID_4_"  overflow="visible"/>
				</clipPath>
				<g clip-path="url(#SVGID_5_)">
					<image overflow="visible" width="101" height="101" xlink:href="3716657F.png"  transform="matrix(1 0 0 1 5.5 2.5)">
					</image>
				</g>
			</g>
		</g>
		<path fill="#FFFFFF" d="M78.994,93.545c-22.584,12.403-51.042,4.131-63.451-18.444C3.138,52.518,11.407,24.059,33.991,11.649
			C56.569-0.758,85.026,7.519,97.44,30.1C109.844,52.678,101.577,81.14,78.994,93.545L78.994,93.545z M34.351,12.309
			C12.133,24.518,3.985,52.524,16.196,74.74c12.206,22.218,40.219,30.36,62.433,18.149c22.225-12.207,30.36-40.214,18.149-62.429
			C84.571,8.242,56.569,0.096,34.351,12.309L34.351,12.309z"/>
		
			<radialGradient id="SVGID_6_" cx="61.0127" cy="62.9883" r="44.1632" gradientTransform="matrix(0.8764 -0.4816 0.4816 0.8764 -16.2679 43.7728)" gradientUnits="userSpaceOnUse">
			<stop  offset="0" style="stop-color:#D3E9F6"/>
			<stop  offset="0.6725" style="stop-color:#66A8DE"/>
			<stop  offset="1" style="stop-color:#48779B"/>
		</radialGradient>
		<path opacity="0.2" fill="url(#SVGID_6_)" d="M75.009,86.293c-18.606,10.225-41.982,3.422-52.208-15.177
			c-10.227-18.611-3.428-41.984,15.177-52.208C56.59,8.68,79.956,15.479,90.187,34.086C100.402,52.696,93.618,76.063,75.009,86.293z
			"/>
		
			<linearGradient id="SVGID_7_" gradientUnits="userSpaceOnUse" x1="60.3921" y1="48.1138" x2="54.9038" y2="13.9292" gradientTransform="matrix(0.8764 -0.4816 0.4816 0.8764 -16.2679 43.7728)">
			<stop  offset="0" style="stop-color:#FFFFFF"/>
			<stop  offset="1" style="stop-color:#FFFFFF;stop-opacity:0"/>
		</linearGradient>
		<path opacity="0.4" fill="url(#SVGID_7_)" d="M35.907,59.715c8.107-8.566,17.979-15.89,28.916-20.45
			c6.99-2.92,14.433-5.275,22.032-6.789C76.488,16.813,55.689,11.453,38.939,20.658C21.302,30.35,14.854,52.507,24.552,70.152
			c0.613,1.116,1.281,2.189,1.995,3.219C28.992,68.524,31.933,63.917,35.907,59.715z"/>
	</g>
	<g>
		<g>
			<polygon fill="#810000" points="49.13,81.852 49.13,61.885 30.247,61.885 30.247,47.622 49.13,47.622 49.13,27.922 
				63.854,27.922 63.854,47.622 82.734,47.622 82.734,61.885 63.854,61.885 63.854,81.852 			"/>
			<linearGradient id="SVGID_8_" gradientUnits="userSpaceOnUse" x1="56.4907" y1="29.3311" x2="56.4907" y2="80.4507">
				<stop  offset="0" style="stop-color:#EFCF54"/>
				<stop  offset="0.5056" style="stop-color:#D14943"/>
				<stop  offset="1" style="stop-color:#DB7D43"/>
			</linearGradient>
			<polygon fill="url(#SVGID_8_)" points="50.54,80.45 50.54,60.476 31.657,60.476 31.657,49.032 50.54,49.032 50.54,29.331 
				62.439,29.331 62.439,49.032 81.325,49.032 81.325,60.476 62.439,60.476 62.439,80.45 			"/>
			<linearGradient id="SVGID_9_" gradientUnits="userSpaceOnUse" x1="56.4907" y1="29.3311" x2="56.4907" y2="80.4507">
				<stop  offset="0" style="stop-color:#FFFFFF"/>
				<stop  offset="1" style="stop-color:#FFFFFF;stop-opacity:0"/>
			</linearGradient>
			<path opacity="0.4" fill="url(#SVGID_9_)" d="M62.439,49.032V29.331h-11.9v19.701H31.657v11.444H50.54V80.45h11.9V60.476h18.886
				V49.032H62.439z M79.914,59.067H61.03v19.968h-9.078V59.067H33.066v-8.623h18.886V30.742h9.078v19.702h18.884V59.067z"/>
		</g>
	</g>
</g>
<g id="active_1_">
	<g>
		<g>
			<g>
				
					<linearGradient id="SVGID_10_" gradientUnits="userSpaceOnUse" x1="52.9331" y1="80.2441" x2="66.1016" y2="80.2441" gradientTransform="matrix(0.8764 -0.4816 0.774 1.4085 -30.8359 17.2611)">
					<stop  offset="0" style="stop-color:#666666"/>
					<stop  offset="0.2281" style="stop-color:#F1F1F1"/>
					<stop  offset="0.2924" style="stop-color:#666666"/>
					<stop  offset="0.6608" style="stop-color:#FFFFFF"/>
					<stop  offset="1" style="stop-color:#363636"/>
				</linearGradient>
				<polygon fill="url(#SVGID_10_)" points="96.365,111.705 84.935,118.025 70.505,91.542 81.931,85.215 				"/>
			</g>
			<path fill="#4E4E4E" d="M33.594,10.93C10.58,23.575,2.173,52.487,14.822,75.5c12.644,23.009,41.553,31.406,64.567,18.767
				c23.02-12.652,31.427-41.549,18.781-64.566C85.514,6.688,56.613-1.72,33.594,10.93z M75.009,86.293
				c-18.606,10.225-41.982,3.422-52.208-15.177c-10.227-18.611-3.428-41.984,15.177-52.208C56.59,8.68,79.956,15.479,90.187,34.086
				C100.402,52.696,93.618,76.063,75.009,86.293z"/>
			<g>
				<defs>
					<path id="SVGID_11_" d="M78.816,93.219c-22.399,12.304-50.64,4.096-62.949-18.295C3.561,52.523,11.774,24.284,34.17,11.977
						C56.567-0.329,84.805,7.88,97.117,30.279C109.424,52.677,101.208,80.912,78.816,93.219L78.816,93.219z M37.403,17.858
						c-19.159,10.529-26.178,34.673-15.651,53.83c10.522,19.161,34.67,26.175,53.829,15.653
						c19.161-10.53,26.177-34.678,15.657-53.833C80.709,14.353,56.56,7.331,37.403,17.858L37.403,17.858z"/>
				</defs>
				<clipPath id="SVGID_12_">
					<use xlink:href="#SVGID_11_"  overflow="visible"/>
				</clipPath>
				<g clip-path="url(#SVGID_12_)">
					<image overflow="visible" width="101" height="101" xlink:href="3716657D.png"  transform="matrix(1 0 0 1 5.5 2.5)">
					</image>
				</g>
			</g>
		</g>
		<path fill="#FFFFFF" d="M78.994,93.545c-22.584,12.403-51.042,4.131-63.451-18.444C3.138,52.518,11.407,24.059,33.991,11.649
			C56.569-0.758,85.026,7.519,97.44,30.1C109.844,52.678,101.577,81.14,78.994,93.545L78.994,93.545z M34.351,12.309
			C12.133,24.518,3.985,52.524,16.196,74.74c12.206,22.218,40.219,30.36,62.433,18.149c22.225-12.207,30.36-40.214,18.149-62.429
			C84.571,8.242,56.569,0.096,34.351,12.309L34.351,12.309z"/>
		
			<radialGradient id="SVGID_13_" cx="61.0127" cy="62.9883" r="44.1632" gradientTransform="matrix(0.8764 -0.4816 0.4816 0.8764 -16.2679 43.7728)" gradientUnits="userSpaceOnUse">
			<stop  offset="0" style="stop-color:#D3E9F6"/>
			<stop  offset="0.6725" style="stop-color:#66A8DE"/>
			<stop  offset="1" style="stop-color:#48779B"/>
		</radialGradient>
		<path opacity="0.2" fill="url(#SVGID_13_)" d="M75.009,86.293c-18.606,10.225-41.982,3.422-52.208-15.177
			c-10.227-18.611-3.428-41.984,15.177-52.208C56.59,8.68,79.956,15.479,90.187,34.086C100.402,52.696,93.618,76.063,75.009,86.293z
			"/>
		
			<linearGradient id="SVGID_14_" gradientUnits="userSpaceOnUse" x1="60.3921" y1="48.1138" x2="54.9038" y2="13.9292" gradientTransform="matrix(0.8764 -0.4816 0.4816 0.8764 -16.2679 43.7728)">
			<stop  offset="0" style="stop-color:#FFFFFF"/>
			<stop  offset="1" style="stop-color:#FFFFFF;stop-opacity:0"/>
		</linearGradient>
		<path opacity="0.4" fill="url(#SVGID_14_)" d="M35.907,59.715c8.107-8.566,17.979-15.89,28.916-20.45
			c6.99-2.92,14.433-5.275,22.032-6.789C76.488,16.813,55.689,11.453,38.939,20.658C21.302,30.35,14.854,52.507,24.552,70.152
			c0.613,1.116,1.281,2.189,1.995,3.219C28.992,68.524,31.933,63.917,35.907,59.715z"/>
	</g>
	<g>
		<g>
			<polygon fill="#810000" points="49.13,81.852 49.13,61.885 30.247,61.885 30.247,47.622 49.13,47.622 49.13,27.922 
				63.854,27.922 63.854,47.622 82.734,47.622 82.734,61.885 63.854,61.885 63.854,81.852 			"/>
			<linearGradient id="SVGID_15_" gradientUnits="userSpaceOnUse" x1="56.4907" y1="29.3311" x2="56.4907" y2="80.4507">
				<stop  offset="0" style="stop-color:#EFCF54"/>
				<stop  offset="0.5056" style="stop-color:#D14943"/>
				<stop  offset="1" style="stop-color:#DB7D43"/>
			</linearGradient>
			<polygon fill="url(#SVGID_15_)" points="50.54,80.45 50.54,60.476 31.657,60.476 31.657,49.032 50.54,49.032 50.54,29.331 
				62.439,29.331 62.439,49.032 81.325,49.032 81.325,60.476 62.439,60.476 62.439,80.45 			"/>
			<linearGradient id="SVGID_16_" gradientUnits="userSpaceOnUse" x1="56.4907" y1="29.3311" x2="56.4907" y2="80.4507">
				<stop  offset="0" style="stop-color:#FFFFFF"/>
				<stop  offset="1" style="stop-color:#FFFFFF;stop-opacity:0"/>
			</linearGradient>
			<path opacity="0.4" fill="url(#SVGID_16_)" d="M62.439,49.032V29.331h-11.9v19.701H31.657v11.444H50.54V80.45h11.9V60.476h18.886
				V49.032H62.439z M79.914,59.067H61.03v19.968h-9.078V59.067H33.066v-8.623h18.886V30.742h9.078v19.702h18.884V59.067z"/>
		</g>
	</g>
</g>
<g id="disabled_1_" opacity="0.2">
	<g>
		<g>
			<g>
				
					<linearGradient id="SVGID_17_" gradientUnits="userSpaceOnUse" x1="52.9331" y1="80.2441" x2="66.1016" y2="80.2441" gradientTransform="matrix(0.8764 -0.4816 0.774 1.4085 -30.8359 17.2611)">
					<stop  offset="0" style="stop-color:#666666"/>
					<stop  offset="0.2281" style="stop-color:#F1F1F1"/>
					<stop  offset="0.2924" style="stop-color:#666666"/>
					<stop  offset="0.6608" style="stop-color:#FFFFFF"/>
					<stop  offset="1" style="stop-color:#363636"/>
				</linearGradient>
				<polygon fill="url(#SVGID_17_)" points="96.365,111.705 84.935,118.025 70.505,91.542 81.931,85.215 				"/>
			</g>
			<path fill="#4E4E4E" d="M33.594,10.93C10.58,23.575,2.173,52.487,14.822,75.5c12.644,23.009,41.553,31.406,64.567,18.767
				c23.02-12.652,31.427-41.549,18.781-64.566C85.514,6.688,56.613-1.72,33.594,10.93z M75.009,86.293
				c-18.606,10.225-41.982,3.422-52.208-15.177c-10.227-18.611-3.428-41.984,15.177-52.208C56.59,8.68,79.956,15.479,90.187,34.086
				C100.402,52.696,93.618,76.063,75.009,86.293z"/>
			<g>
				<defs>
					<path id="SVGID_18_" d="M78.816,93.219c-22.399,12.304-50.64,4.096-62.949-18.295C3.561,52.523,11.774,24.284,34.17,11.977
						C56.567-0.329,84.805,7.88,97.117,30.279C109.424,52.677,101.208,80.912,78.816,93.219L78.816,93.219z M37.403,17.858
						c-19.159,10.529-26.178,34.673-15.651,53.83c10.522,19.161,34.67,26.175,53.829,15.653
						c19.161-10.53,26.177-34.678,15.657-53.833C80.709,14.353,56.56,7.331,37.403,17.858L37.403,17.858z"/>
				</defs>
				<clipPath id="SVGID_19_">
					<use xlink:href="#SVGID_18_"  overflow="visible"/>
				</clipPath>
				<g clip-path="url(#SVGID_19_)">
					<image overflow="visible" width="101" height="101" xlink:href="37166583.png"  transform="matrix(1 0 0 1 5.5 2.5)">
					</image>
				</g>
			</g>
		</g>
		<path fill="#FFFFFF" d="M78.994,93.545c-22.584,12.403-51.042,4.131-63.451-18.444C3.138,52.518,11.407,24.059,33.991,11.649
			C56.569-0.758,85.026,7.519,97.44,30.1C109.844,52.678,101.577,81.14,78.994,93.545L78.994,93.545z M34.351,12.309
			C12.133,24.518,3.985,52.524,16.196,74.74c12.206,22.218,40.219,30.36,62.433,18.149c22.225-12.207,30.36-40.214,18.149-62.429
			C84.571,8.242,56.569,0.096,34.351,12.309L34.351,12.309z"/>
		
			<radialGradient id="SVGID_20_" cx="61.0127" cy="62.9883" r="44.1632" gradientTransform="matrix(0.8764 -0.4816 0.4816 0.8764 -16.2679 43.7728)" gradientUnits="userSpaceOnUse">
			<stop  offset="0" style="stop-color:#D3E9F6"/>
			<stop  offset="0.6725" style="stop-color:#66A8DE"/>
			<stop  offset="1" style="stop-color:#48779B"/>
		</radialGradient>
		<path opacity="0.2" fill="url(#SVGID_20_)" d="M75.009,86.293c-18.606,10.225-41.982,3.422-52.208-15.177
			c-10.227-18.611-3.428-41.984,15.177-52.208C56.59,8.68,79.956,15.479,90.187,34.086C100.402,52.696,93.618,76.063,75.009,86.293z
			"/>
		
			<linearGradient id="SVGID_21_" gradientUnits="userSpaceOnUse" x1="60.3921" y1="48.1138" x2="54.9038" y2="13.9292" gradientTransform="matrix(0.8764 -0.4816 0.4816 0.8764 -16.2679 43.7728)">
			<stop  offset="0" style="stop-color:#FFFFFF"/>
			<stop  offset="1" style="stop-color:#FFFFFF;stop-opacity:0"/>
		</linearGradient>
		<path opacity="0.4" fill="url(#SVGID_21_)" d="M35.907,59.715c8.107-8.566,17.979-15.89,28.916-20.45
			c6.99-2.92,14.433-5.275,22.032-6.789C76.488,16.813,55.689,11.453,38.939,20.658C21.302,30.35,14.854,52.507,24.552,70.152
			c0.613,1.116,1.281,2.189,1.995,3.219C28.992,68.524,31.933,63.917,35.907,59.715z"/>
	</g>
	<g>
		<g>
			<polygon fill="#999999" points="49.13,81.852 49.13,61.885 30.247,61.885 30.247,47.622 49.13,47.622 49.13,27.922 
				63.854,27.922 63.854,47.622 82.734,47.622 82.734,61.885 63.854,61.885 63.854,81.852 			"/>
			<polygon fill="#999999" points="50.54,80.45 50.54,60.476 31.657,60.476 31.657,49.032 50.54,49.032 50.54,29.331 62.439,29.331 
				62.439,49.032 81.325,49.032 81.325,60.476 62.439,60.476 62.439,80.45 			"/>
			<path opacity="0.4" fill="#999999" d="M62.439,49.032V29.331h-11.9v19.701H31.657v11.444H50.54V80.45h11.9V60.476h18.886V49.032
				H62.439z M79.914,59.067H61.03v19.968h-9.078V59.067H33.066v-8.623h18.886V30.742h9.078v19.702h18.884V59.067z"/>
		</g>
	</g>
</g>
</svg>
