<?xml version="1.0" encoding="utf-8"?>
<!-- Generator: Adobe Illustrator 15.0.0, SVG Export Plug-In . SVG Version: 6.00 Build 0)  -->
<!DOCTYPE svg PUBLIC "-//W3C//DTD SVG 1.1//EN" "http://www.w3.org/Graphics/SVG/1.1/DTD/svg11.dtd">
<svg version="1.1" id="Layer_1" xmlns="http://www.w3.org/2000/svg" xmlns:xlink="http://www.w3.org/1999/xlink" x="0px" y="0px"
	 width="120px" height="120px" viewBox="0 0 120 120" enable-background="new 0 0 120 120" xml:space="preserve">
<g id="Layer_2" display="none">
	<circle display="inline" opacity="0.5" fill="#DF1F26" enable-background="new    " cx="60" cy="60" r="60"/>
	<rect x="6.5" y="6.5" display="inline" opacity="0.5" fill="#3B4FA1" enable-background="new    " width="107" height="107"/>
</g>
<g id="normal">
	<path fill="#00FF00" d="M110.507,35.284L49.484,96.911c-0.461,0.849-1.002,1.667-1.716,2.387c-2.121,2.144-4.937,3.146-7.715,3.032
		c-2.672,0.045-5.359-0.955-7.399-3.016c-0.64-0.647-1.141-1.375-1.575-2.131L9.522,75.422c-4.03-4.068-4.03-10.665,0-14.734
		c4.03-4.068,10.564-4.068,14.595,0L40.285,77.01l55.773-56.327c3.99-4.031,10.459-4.031,14.448,0
		C114.498,24.715,114.498,31.252,110.507,35.284L110.507,35.284z"/>
</g>
<g id="active">
	<path fill="#00FF00" d="M110.507,35.284L49.484,96.911c-0.461,0.849-1.002,1.667-1.716,2.387c-2.121,2.144-4.937,3.146-7.715,3.032
		c-2.672,0.045-5.359-0.955-7.399-3.016c-0.64-0.647-1.141-1.375-1.575-2.131L9.522,75.422c-4.03-4.068-4.03-10.665,0-14.734
		c4.03-4.068,10.564-4.068,14.595,0L40.285,77.01l55.773-56.327c3.99-4.031,10.459-4.031,14.448,0
		C114.498,24.715,114.498,31.252,110.507,35.284L110.507,35.284z"/>
</g>
<g id="disabled" opacity="0.2">
	<path fill="#FFFFFF" d="M110.507,35.284L49.484,96.911c-0.461,0.849-1.002,1.667-1.716,2.387c-2.121,2.144-4.937,3.146-7.715,3.032
		c-2.672,0.045-5.359-0.955-7.399-3.016c-0.64-0.647-1.141-1.375-1.575-2.131L9.522,75.422c-4.03-4.068-4.03-10.665,0-14.734
		c4.03-4.068,10.564-4.068,14.595,0L40.285,77.01l55.773-56.327c3.99-4.031,10.459-4.031,14.448,0
		C114.498,24.715,114.498,31.252,110.507,35.284L110.507,35.284z"/>
</g>
</svg>
