<?xml version="1.0" encoding="utf-8"?>
<!-- Generator: Adobe Illustrator 18.0.0, SVG Export Plug-In . SVG Version: 6.00 Build 0)  -->
<!DOCTYPE svg PUBLIC "-//W3C//DTD SVG 1.1//EN" "http://www.w3.org/Graphics/SVG/1.1/DTD/svg11.dtd">
<svg version="1.1" xmlns="http://www.w3.org/2000/svg" xmlns:xlink="http://www.w3.org/1999/xlink" x="0px" y="0px" width="120px"
	 height="120px" viewBox="0 0 120 120" enable-background="new 0 0 120 120" xml:space="preserve">
<g id="Layer_2" display="none">
	<circle display="inline" opacity="0.5" fill="#DF1F26" cx="60" cy="60" r="60"/>
	<rect x="6.5" y="6.5" display="inline" opacity="0.5" fill="#3B4FA1" width="107" height="107"/>
</g>
<g id="normal">
	<path fill="#FE8D03" d="M79.9,53.7L68.6,41.8c0,0-13.3-18.9-34.9,1.2c-21.6,20.1-3.5,34.5-3.5,34.5l11.2,11.9l-21.6,20.1L8.7,97.5
		l9.6-8.9c0,0-29.4-26.3,4.2-57.5C56-0.1,80.6,30.7,80.6,30.7l9.6-8.9l11.2,11.9L79.9,53.7L79.9,53.7z M108.2,40.8l-6.7-7.1
		L90.2,21.8l-6.7-7.1l28-3.7l2.2,2.4L108.2,40.8L108.2,40.8z"/>
</g>
<g id="active">
	<path fill="#FE8D03" d="M79.9,53.7L68.6,41.8c0,0-13.3-18.9-34.9,1.2c-21.6,20.1-3.5,34.5-3.5,34.5l11.2,11.9l-21.6,20.1L8.7,97.5
		l9.6-8.9c0,0-29.4-26.3,4.2-57.5C56-0.1,80.6,30.7,80.6,30.7l9.6-8.9l11.2,11.9L79.9,53.7L79.9,53.7z M108.2,40.8l-6.7-7.1
		L90.2,21.8l-6.7-7.1l28-3.7l2.2,2.4L108.2,40.8L108.2,40.8z"/>
</g>
<g id="disabled" opacity="0.2">
	<path fill="#FE8D03" d="M79.9,53.7L68.6,41.8c0,0-13.3-18.9-34.9,1.2c-21.6,20.1-3.5,34.5-3.5,34.5l11.2,11.9l-21.6,20.1L8.7,97.5
		l9.6-8.9c0,0-29.4-26.3,4.2-57.5C56-0.1,80.6,30.7,80.6,30.7l9.6-8.9l11.2,11.9L79.9,53.7L79.9,53.7z M108.2,40.8l-6.7-7.1
		L90.2,21.8l-6.7-7.1l28-3.7l2.2,2.4L108.2,40.8L108.2,40.8z"/>
</g>
</svg>
