<?xml version="1.0" encoding="utf-8"?>
<!-- Generator: Adobe Illustrator 18.1.1, SVG Export Plug-In . SVG Version: 6.00 Build 0)  -->
<svg version="1.1" id="Ebene_1" xmlns="http://www.w3.org/2000/svg" xmlns:xlink="http://www.w3.org/1999/xlink" x="0px" y="0px"
	 width="84px" height="84px" viewBox="-17 19 84 84" enable-background="new -17 19 84 84" xml:space="preserve">
<g id="FRAME_0_1_">
	
		<radialGradient id="SVGID_1_" cx="25.8305" cy="357.5621" r="13.2241" gradientTransform="matrix(1 0 0 -1 -0.0552 387.8589)" gradientUnits="userSpaceOnUse">
		<stop  offset="0" style="stop-color:#3C3C3C"/>
		<stop  offset="1" style="stop-color:#202020"/>
	</radialGradient>
	<path fill="url(#SVGID_1_)" d="M30.846,40.283l-0.25,0.374l-0.436,0.561l-0.061,0.062c-2.785,2.618-5.901,2.909-9.351,0.873h-0.062
		l-0.125-0.125l-0.499-0.436l-0.124-0.125l-0.186-0.249l-0.312-0.312c-1.205-0.914-1.579-3.095-1.122-6.545
		c0.624-2.41,2.556-3.99,5.798-4.738c2.327-0.499,4.55,0.54,6.67,3.117c1.412,1.912,1.496,4.301,0.248,7.169L30.846,40.283
		 M25.172,42.527c4.322-1.122,6.296-3.262,5.922-6.421c-0.831-4.155-3.179-6.088-7.043-5.798c-0.956,0.084-1.932,0.499-2.929,1.246
		l-1.559,1.808l-0.686,2.119l-0.062,1.87C19.687,40.761,21.806,42.486,25.172,42.527"/>
	
		<radialGradient id="SVGID_2_" cx="31.5311" cy="344.9579" r="54.0134" gradientTransform="matrix(1 0 0 -1 -0.0552 387.8589)" gradientUnits="userSpaceOnUse">
		<stop  offset="0" style="stop-color:#FEFFFF"/>
		<stop  offset="0.4031" style="stop-color:#FDC500"/>
		<stop  offset="1" style="stop-color:#EB690B"/>
	</radialGradient>
	<path fill="url(#SVGID_2_)" d="M30.846,40.283l0.186-0.374c1.247-2.867,1.164-5.257-0.248-7.169
		c-2.119-2.577-4.342-3.615-6.67-3.117c-3.242,0.748-5.174,2.327-5.798,4.738c-0.457,3.45-0.084,5.631,1.122,6.545l0.312,0.312
		l0.186,0.249l0.124,0.125l0.499,0.436l0.125,0.125h0.062c3.366,2.203,6.483,1.912,9.351-0.873l0.061-0.062l0.436-0.561
		L30.846,40.283 M16.134,52.875h0.748c1.33-0.332,1.954,0.976,1.87,3.928v20.945c-0.125,2.95-0.395,4.571-0.811,4.862l-1.496,0.561
		l-2.867,0.375l-3.615,0.374l-0.187,0.311l0.062,4.115h30.108v-4.115l-0.374-0.311l-3.679-0.311l-1.932-0.374l-1.62-0.625
		l-0.562-1.558l-0.186-1.933V46.08l-0.562-1.807c-0.955-0.125-1.911-0.021-2.867,0.311l-17.891,4.987v4.426l1.434-0.249l0.561-0.125
		l0.312-0.062l0.561-0.125l0.312-0.062l0.311-0.062l0.249-0.062l0.311-0.062l0.25-0.062l0.311-0.062L15.199,53l0.25-0.062
		l0.374-0.062L16.134,52.875 M26.108,95.826c-7.564,0.706-15.626-2.182-24.187-8.665C-4.812,81.467-8.738,73.488-9.861,63.223
		c-0.832-8.686,2.056-17.143,8.664-25.372C4.663,30.787,13.162,26.86,24.299,26.07c9.516,0.083,17.433,2.971,23.751,8.664
		c6.691,5.611,10.618,13.589,11.781,23.938c0.789,8.644-2.1,17.102-8.664,25.371C44.808,91.233,36.455,95.16,26.108,95.826"/>
	
		<radialGradient id="SVGID_3_" cx="20.1363" cy="347.7699" r="12.2193" gradientTransform="matrix(1 0 0 -1 -0.0552 387.8589)" gradientUnits="userSpaceOnUse">
		<stop  offset="0" style="stop-color:#3C3C3C"/>
		<stop  offset="1" style="stop-color:#3C3C3C"/>
	</radialGradient>
	<path fill="url(#SVGID_3_)" d="M25.172,42.527c-3.366-0.041-5.485-1.766-6.358-5.174l0.062-1.87l0.686-2.119l1.559-1.808
		c0.997-0.748,1.974-1.164,2.929-1.246c3.865-0.29,6.213,1.642,7.043,5.798C31.469,39.265,29.494,41.405,25.172,42.527"/>
	
		<radialGradient id="SVGID_4_" cx="29.1076" cy="345.728" r="11.439" gradientTransform="matrix(1 0 0 -1 -0.0552 387.8589)" gradientUnits="userSpaceOnUse">
		<stop  offset="0" style="stop-color:#FFFFFF"/>
		<stop  offset="1" style="stop-color:#A2A2A2"/>
	</radialGradient>
	<path fill="url(#SVGID_4_)" d="M20.747,42.153c3.45,2.036,6.566,1.745,9.351-0.873C27.23,44.064,24.113,44.356,20.747,42.153"/>
	
		<radialGradient id="SVGID_5_" cx="27.5087" cy="342.2395" r="46.2269" gradientTransform="matrix(1 0 0 -1 -0.0552 387.8589)" gradientUnits="userSpaceOnUse">
		<stop  offset="0" style="stop-color:#3C3C3C"/>
		<stop  offset="1" style="stop-color:#222222"/>
	</radialGradient>
	<path fill="url(#SVGID_5_)" d="M16.134,52.875h-0.312l-0.374,0.062l-0.25,0.062l-0.311,0.063l-0.311,0.062l-0.25,0.062
		l-0.311,0.062l-0.249,0.062l-0.311,0.062l-0.312,0.062L12.58,53.56l-0.312,0.062l-0.561,0.125l-1.434,0.249V49.57l17.891-4.987
		c0.956-0.333,1.912-0.436,2.867-0.311l0.562,1.807v33.039l0.186,1.933l0.562,1.558c0,0.375,0.81,0.727,2.431,1.06l5.173,0.561
		v4.115H9.836L9.774,84.23l5.922-0.685c1.08-0.125,1.829-0.436,2.244-0.936c0.416-0.291,0.686-1.912,0.811-4.862V56.802
		c0.084-2.95-0.54-4.26-1.87-3.928L16.134,52.875 M39.074,87.66l0.063-2.494c-5.694-0.166-8.395-1.309-8.105-3.43l-0.311-3.116
		l0.062-32.416l-0.374-1.122h-1.123l-0.934,0.249l-14.15,4.052l-3.179,0.749v2.742c4.488-1.537,7.21-1.372,8.166,0.499l0.374,3.117
		v22.068l-0.311,3.054c-0.333,1.247-0.602,1.912-0.81,1.994c-0.706,0.707-3.345,1.227-7.917,1.56v2.494L39.074,87.66"/>
	
		<radialGradient id="SVGID_6_" cx="18.0134" cy="305.334" r="8.3326" gradientTransform="matrix(1 0 0 -1 -0.0552 387.8589)" gradientUnits="userSpaceOnUse">
		<stop  offset="0" style="stop-color:#F5F5F5"/>
		<stop  offset="1" style="stop-color:#A9A9A9"/>
	</radialGradient>
	<path fill="url(#SVGID_6_)" d="M13.578,83.545l2.867-0.375l1.496-0.561c-0.415,0.499-1.164,0.811-2.244,0.936L9.775,84.23
		l0.187-0.311L13.578,83.545"/>
	
		<radialGradient id="SVGID_7_" cx="32.4738" cy="305.2742" r="7.6663" gradientTransform="matrix(1 0 0 -1 -0.0552 387.8589)" gradientUnits="userSpaceOnUse">
		<stop  offset="0" style="stop-color:#F5F5F5"/>
		<stop  offset="1" style="stop-color:#ACACAC"/>
	</radialGradient>
	<path fill="url(#SVGID_7_)" d="M39.573,83.918l0.374,0.311l-5.173-0.561c-1.621-0.333-2.431-0.685-2.431-1.06l1.62,0.625
		l1.932,0.374L39.573,83.918"/>
	
		<radialGradient id="SVGID_8_" cx="27.5087" cy="342.2395" r="45.2909" gradientTransform="matrix(1 0 0 -1 -0.0552 387.8589)" gradientUnits="userSpaceOnUse">
		<stop  offset="0" style="stop-color:#3C3C3C"/>
		<stop  offset="1" style="stop-color:#3A3A3A"/>
	</radialGradient>
	<path fill="url(#SVGID_8_)" d="M39.074,87.66h-28.55v-2.494c4.572-0.333,7.21-0.851,7.917-1.56c0.208-0.083,0.478-0.747,0.81-1.994
		l0.311-3.054V56.49l-0.374-3.117c-0.956-1.87-3.677-2.036-8.166-0.499v-2.742l3.179-0.749l14.151-4.052l0.934-0.249h1.123
		l0.374,1.122l-0.062,32.416l0.311,3.116c-0.291,2.12,2.411,3.263,8.105,3.43L39.074,87.66"/>
	<path opacity="0.3961" enable-background="new    " d="M24.612,29.686h-0.499l0.499-0.062c3.74-1.039,6.505,0.395,8.292,4.301
		l0.186,2.494l-0.498,2.057l-1.184,2.119c-1.205,1.289-2.327,2.079-3.366,2.369l0.935-0.561l0.061-0.187l-0.311,0.062
		c1.954-0.624,2.908-3.075,2.867-7.356c-0.789-2.659-2.535-4.364-5.236-5.112l-0.624-0.124h-0.499H24.612 M23.489,29.748h0.249
		l-0.125,0.062L23.489,29.748 M21.806,30.372v0.062h-0.125L21.806,30.372 M21.557,30.558h-0.124l0.124-0.062V30.558 M21.058,30.808
		l0.187-0.125h0.249l-0.81,0.499v-0.125l0.187-0.124L21.058,30.808 M6.347,31.431l0.872-0.436l-0.748,0.561L6.347,31.431
		 M19.687,32.179l0.249-0.311l-0.374,0.249L19.687,32.179 M27.916,42.713l-0.873,0.436l-1.621,0.311c0.041,0.125,0.395,0.125,1.06,0
		l0.934-0.249c-3.989,2.369-7.895,1.558-11.719-2.431c-2.659-4.322-1.08-7.481,4.738-9.475c-2.285,3.075-2.515,6.068-0.685,8.976
		C22.658,43.109,25.38,43.919,27.916,42.713 M10.71,54.06l4.925-1.184l1.434-0.062h-1.496l-1.185,0.25l-4.115,0.872L10.71,54.06
		 M16.321,83.296h-0.872l0.561-1.932l0.561-3.491l0.748-7.481L17.63,60.23l-0.062-2.555l-0.312-2.369
		c-0.624-1.995-3.615-2.016-8.976-0.062H7.905l-0.25-3.865l0.749-0.686l1.869-0.997l0.562,0.311
		c0.166,2.162,0.062,3.366-0.312,3.615l5.298-1.122l1.871-0.062l0.685,0.25c0.499,0.457,0.749,0.894,0.749,1.309l0.187,1.994
		L19.25,79.867l-0.561,2.494c-0.457,0.248-0.624,0.457-0.499,0.624L16.321,83.296 M31.967,82.548l-0.436-1.745l-0.188-2.992
		l0.063-31.854l-0.375-0.935v-0.685h0.624l0.561,1.807l-0.311,7.979v13.34l0.311,10.596l0.562,3.865l0.498,1.121l0.312,0.063
		l0.124,0.248C32.716,83.191,32.134,82.922,31.967,82.548 M49.111,85.914c8.186-7.896,11.532-18.203,10.036-30.92
		c-2.867-12.758-9.724-21.465-20.571-26.119c10.472,4.53,17.267,12.53,20.384,24c2.785,10.847-0.021,21.423-8.415,31.73
		L49.111,85.914 M38.512,88.844l0.125-0.499l1.06-0.062H9.837l0.873,0.062l0.499,0.561l10.971-0.187L38.512,88.844l-0.623,1.495
		l-2.12,2.929l2.495-0.686l2.494-0.996l2.992-1.56l1.995-1.309c-3.284,2.868-8.229,5.05-14.836,6.546l-0.312,0.061l-1.246,0.188
		l-0.624,0.061l-0.624,0.062l-0.873,0.063l-0.81,0.061h-0.311h-2.182h-0.499l-0.624-0.061h-0.499l-0.374-0.063h-0.249l-0.374-0.062
		h-0.311l-0.187-0.061h-0.374L20.31,95.45h-0.311l-0.186-0.061h-0.187l-0.187-0.063H19.25l-0.125-0.061h-0.311l-0.125-0.063h-0.187
		l-0.125-0.062H18.19l-0.125-0.062h-0.187l-0.124-0.062h-0.187l-0.125-0.061c-5.07-0.79-10.472-3.595-16.208-8.417
		C-3.629,82.216-7.078,76.19-9.114,68.46c-1.538-6.025-0.997-12.8,1.621-20.323c1.953-5.9,6.483-11.408,13.59-16.518
		C-0.719,36.398-5.145,43.089-7.181,51.692l-0.624,5.361v3.242l0.374,3.928l0.499,2.805l1.683,4.925l2.618,5.235l2.057,3.055
		l2.743,3.18l1.932,1.931L6.283,87.1l0.311-0.062l1.059-1.06l2.057-1.558c0.707,0.083,0.914,1.267,0.624,3.553h28.8h0.311
		l0.249,0.311l0.062-3.491c-0.041-0.582,0.061-0.851,0.311-0.809l1.371,0.685l0.625,3.991l0.124,0.311L38.512,88.844"/>
	<path opacity="0.7961" enable-background="new    " d="M23.489,29.81v-0.062l0.125,0.062H23.489 M20.684,31.182l-0.125,0.062
		l-0.125,0.062L20.684,31.182 M19.687,32.179l-0.125-0.062l0.374-0.249L19.687,32.179 M28.663,42.341l0.062-0.063l0.311-0.062
		l-0.061,0.187l-0.935,0.561l-0.625,0.25l-0.934,0.249c-0.665,0.125-1.019,0.125-1.06,0l1.621-0.311l0.873-0.436l0.624-0.311
		L28.663,42.341 M10.71,54.06l-0.436-0.125l4.115-0.872l1.185-0.25h1.496l-1.434,0.062L10.71,54.06 M49.111,85.914l1.434-1.309
		c-4.945,5.568-11.492,9.121-19.637,10.659c6.608-1.496,11.553-3.678,14.836-6.546l0.061-0.061l0.125-0.063l0.187-0.125l2.245-1.869
		l0.125-0.063L49.111,85.914 M38.512,88.844L22.18,88.718l-10.971,0.187l-0.499-0.561l-0.873-0.062h29.86l-1.06,0.062L38.512,88.844
		"/>
	<path opacity="0.8" fill="#FFEAAD" enable-background="new    " d="M20.186,46.891c-5.278-4.198-10.639-4.759-16.083-1.684
		c-4.364,2.494-6.982,7.065-7.854,13.714c0.415,7.604,2.992,12.613,7.729,15.023c5.651,2.494,10.556,2.161,14.711-0.998l0.062,3.118
		c-4.696,2.618-9.912,2.472-15.646-0.436C-2.714,71.554-5.29,65.55-4.624,57.612l0.81-3.928l1.62-3.865
		c1.954-3.407,4.55-5.839,7.792-7.293c6.067-2.785,11.948-1.621,17.642,3.49L20.186,46.891 M53.224,52.501
		c3.575-0.997,3.345-4.738-0.686-11.22c-5.694-6.691-9.642-9.039-11.844-7.044c-1.828,3.49-1.08,7.543,2.245,12.155
		C46.804,50.714,50.232,52.75,53.224,52.501 M53.473,54.558c-4.239,0.208-8.394-2.182-12.468-7.169
		c-3.739-5.485-4.405-10.182-1.994-14.088c2.452-2.245,7.003,0.333,13.651,7.729l2.431,4.239l0.436,1.122l0.748,3.49
		C56.777,52.21,55.842,53.769,53.473,54.558"/>
	<path fill="#FFEAAD" d="M53.224,52.501c-2.992,0.249-6.421-1.786-10.285-6.109c-3.325-4.613-4.073-8.665-2.245-12.155
		c2.203-1.995,6.151,0.353,11.844,7.044C56.569,47.763,56.799,51.504,53.224,52.501 M18.69,72.947
		c-4.155,3.159-9.06,3.492-14.711,0.998c-4.738-2.41-7.314-7.419-7.729-15.023c0.872-6.649,3.49-11.221,7.854-13.714
		c5.444-3.075,10.805-2.514,16.083,1.684l-9.849,2.618l-0.063,0.562v3.927l0.873-0.062l4.364-0.997
		c1.745-0.332,2.742-0.021,2.992,0.934l0.311,3.118L18.69,72.947"/>
	<path opacity="0.3686" fill="#FFEAAD" enable-background="new    " d="M53.473,54.558c2.369-0.789,3.304-2.348,2.805-4.675
		l-0.748-3.49l-0.436-1.122l-2.431-4.239c-6.648-7.397-11.199-9.974-13.651-7.729c-2.411,3.907-1.745,8.602,1.994,14.088
		C45.079,52.376,49.234,54.766,53.473,54.558 M53.162,57.675c-4.904,0.499-9.911-2.265-15.023-8.291
		c-1.954-2.785-3.18-5.693-3.678-8.727c-0.665-3.823,0-6.649,1.994-8.478c1.247-1.371,4.053-0.935,8.417,1.309
		c3.574,2.161,6.399,4.945,8.478,8.354c2.244,3.574,3.491,6.711,3.739,9.413l-0.062,2.68c0.041,0.54-0.084,0.997-0.374,1.372
		l-0.935,1.371C54.305,57.426,53.453,57.758,53.162,57.675 M31.718,66.34l-0.125-13.901C33.215,55.514,33.255,60.147,31.718,66.34
		 M18.752,76.064l-0.062,4.051l-3.99,0.873c-4.323,0.624-8.644-0.601-12.966-3.677c-5.776-4.987-8.311-11.678-7.605-20.073
		c0.997-7.813,5.07-13.631,12.218-17.453c2.369-1.538,6.295-1.829,11.782-0.874c0.291-0.041,0.686,0.562,1.185,1.808l1.683,1.745
		c1.496,0.914,3.22,1.288,5.174,1.121l0.997,0.935l0.187,0.374l-4.115,1.122c-5.693-5.112-11.574-6.275-17.642-3.49
		c-3.242,1.454-5.839,3.886-7.792,7.293l-1.62,3.865l-0.81,3.928c-0.665,7.938,1.912,13.943,7.729,18.016
		C8.84,78.537,14.056,78.683,18.752,76.064"/>
</g>
</svg>
