<?xml version="1.0" encoding="utf-8"?>
<!-- Generator: Adobe Illustrator 16.0.0, SVG Export Plug-In . SVG Version: 6.00 Build 0)  -->
<!DOCTYPE svg PUBLIC "-//W3C//DTD SVG 1.1//EN" "http://www.w3.org/Graphics/SVG/1.1/DTD/svg11.dtd">
<svg version="1.1" id="Слой_1" xmlns="http://www.w3.org/2000/svg" xmlns:xlink="http://www.w3.org/1999/xlink" x="0px" y="0px"
	 width="580px" height="603px" viewBox="0 0 580 603" enable-background="new 0 0 580 603" xml:space="preserve">
<g id="normal_1_">
	<path id="path3" fill="#8C8C8C" d="M568.631,441.943c0,33.719-42.392,27.271-64.373,27.271H377.983H97.493
		c-21.792,0-60.898,5.556-60.898-27.466v-96.917v-145.89c0-24.568-4.971-60.126,30.72-60.126h440.477
		c18.092,0,46.035-4.851,57.047,13.492c11.108,18.493,3.81,56.059,3.81,76.042c0,71.192,0,142.396,0,213.595"/>
	<path id="path5" d="M64.566,136.745c-40.653,0-29.972,60.693-29.972,86.25v151.171c0,23.165-10.142,78.753,14.861,93.066
		c17.048,9.764,48.779,3.996,67.105,3.996h291.173h112.54c24.316,0,50.433-1.601,50.433-33.921V207.979
		c0-24.41,7.587-71.235-29.979-71.235c-16.669-2.253-35.214,0-51.992,0H64.566 M38.665,441.943v-238.6
		c0-23.824-6.648-62.514,28.665-62.514h81.428h297.574h89.059c33.998,0,31.238,29.236,31.238,53.916v232.791
		c0,22.578-6.987,39.607-32.835,39.607h-77.245h-258.98H94.147C74.297,467.147,38.665,472.088,38.665,441.943"/>
	<path id="path7" fill="#B2B2B2" d="M547.217,437.713c0,33.739-46.372,26.229-68.038,26.229H348.511H81.714
		c-25.079,0-45.093-5.277-45.093-35.349V301.694V178.779c0-31.423,23.688-33.038,47.869-33.038h417.616
		c19.359,0,45.087-0.336,45.087,27.058v73.788c0.008,63.711,0.008,127.403,0.008,191.125"/>
	<path id="path9" fill="#E5E5E5" d="M404.495,334.364c0,45.438-32.511,92.601-81.326,92.601c-48.825,0-81.336-47.157-81.336-92.601
		c0-45.452,32.507-92.646,81.336-92.646C371.992,241.714,404.495,288.917,404.495,334.364"/>
	<path id="path11" fill="#3F3F3F" d="M151.931,140.244c0,14.918-83.551,14.918-83.551,0
		C68.38,125.332,151.931,125.324,151.931,140.244"/>
	<path id="path13" d="M143.254,141.353c0,10.942-73.928,10.934-73.928,0C69.326,130.475,143.254,130.467,143.254,141.353"/>
	<path id="path15" fill="#3F3F3F" d="M403.815,139.107c0,19.043-146.839,19.036-146.839,0
		C256.976,120.025,403.815,120.025,403.815,139.107"/>
	<path id="path17" d="M388.565,140.514c0,13.757-129.891,13.749-129.891,0C258.678,126.749,388.565,126.749,388.565,140.514"/>
	<path id="path19" fill="#C6C6C6" d="M534.767,189.645h-71.271h-36.73c-6.342,0-6.982-17.135-3.833-20.339
		c7.363-7.492,60.56,0,71.267,0h36.734C538.876,169.31,534.767,183.183,534.767,189.645"/>
	<path id="path21" fill="#FFFFFF" d="M519.033,156.71c0,8.6-411.514,4.237-454.339,4.237c-15.155,0-25.982-8.474-6.574-8.474h97.152
		h294.038c6.071,0,69.731-4.726,69.731,4.237"/>
	<path id="path23" fill="#8C8C8C" d="M510.198,152.528H493.36c23.194,81.701,44.212,240.71-61.816,276.622
		c-48.771,16.515-104.361,12.251-154.788,8.628c-82.191-5.904-175.321-6.841-250.323-43.647c0,31.246-4.834,66.44,35.818,66.44
		h92.919h288.334h66.233c36.516,0,27.283-50.895,27.283-74.222V242.76C537.02,219.086,548.854,152.528,510.198,152.528"/>
	<path id="path25" d="M547.298,187.371H324.502H175.044c-14.14,0-55.229,7.905-65.591-4.494h222.11h150.871
		C491.929,182.873,546.916,177.473,547.298,187.371"/>
	<path id="path27" fill="#5E5D5D" d="M459.443,429.186c0,26.562-41.225,26.586-41.225,0
		C418.226,402.535,459.443,402.551,459.443,429.186"/>
	<path id="path34" d="M456.249,429.186c0,22.428-34.846,22.428-34.846,0C421.404,406.726,456.249,406.709,456.249,429.186"/>
	<path id="path36" d="M534.767,189.645h-71.271h-36.73c-6.342,0-6.982-17.135-3.833-20.339c7.363-7.492,60.56,0,71.267,0h36.734
		C538.876,169.31,534.767,183.183,534.767,189.645"/>
	<path id="path38" fill="#FFFFFF" d="M526.296,187.371h-56.673h-33.8c-6.233,0-8.309-11.927-4.426-15.836
		c5.925-5.976,48.171,0,56.682,0h33.8C530.017,171.535,526.296,180.35,526.296,187.371"/>
	<path id="path40" fill="#E5E5E5" d="M515.014,182.291c-10.026,0-76.321,2.033-72.269-5.674c1.475-2.825,35.615,0,39.315,0
		C490.162,176.624,516.375,171.207,515.014,182.291"/>
	<path id="path42" fill="#3F3F3F" d="M335.242,447.513c-43.012,4.567-89.042-11.559-114.794-47.454
		c49.78,90.389,187.468,75.499,217.04-23.088C419.823,417.465,378.258,442.94,335.242,447.513"/>
	<path id="path44" fill="#C6C6C6" d="M446.871,330.283c0,67.717-56.564,124.224-124.266,124.224
		c-67.709,0-124.245-56.503-124.245-124.224c0-67.722,56.532-124.275,124.245-124.275
		C390.327,206.008,446.871,262.57,446.871,330.283"/>
	<path id="path46" d="M446.871,330.283c0,67.717-56.564,124.224-124.266,124.224c-67.709,0-124.245-56.503-124.245-124.224
		c0-67.722,56.532-124.275,124.245-124.275C390.327,206.008,446.871,262.57,446.871,330.283"/>
	<path id="path48" fill="#8C8C8C" d="M428.399,330.283c0,136.431-211.602,136.439-211.602,0
		C216.797,193.771,428.399,193.771,428.399,330.283"/>
	<path id="path50" fill="#E5E5E5" d="M322.314,220.533c36.265,0,75.333,15.135,95.313,46.837c-35.315-75.92-155.305-75.908-190.62,0
		C246.988,235.676,286.052,220.533,322.314,220.533"/>
	<path id="path52" fill="#666666" d="M322.209,410.997c-34.339,0.341-64.184-22.667-77.248-53.662
		c26.744,85.079,128.465,83.984,153.451-1.601C385.971,387.021,356.58,410.652,322.209,410.997"/>
	<path id="path54" fill="#FFFFFF" d="M323.279,240.006c35.405,0,74.206,15.188,92.382,47.222c-32.198-76.726-152.516-76.7-184.721,0
		C249.115,255.198,287.87,240.006,323.279,240.006"/>
	
		<radialGradient id="path67_3_" cx="322.6077" cy="271.835" r="80.0154" gradientTransform="matrix(1 0 0 -1 -0.02 602.0947)" gradientUnits="userSpaceOnUse">
		<stop  offset="0" style="stop-color:#617377"/>
		<stop  offset="0.5393" style="stop-color:#2D4547"/>
		<stop  offset="1" style="stop-color:#132421"/>
	</radialGradient>
	<path id="path67" fill="url(#path67_3_)" d="M403.92,330.242c0,104.934-162.665,104.917-162.665,0
		C241.256,225.368,403.92,225.359,403.92,330.242"/>
	<path id="path73" fill="#383838" d="M325.184,270.922c4.287,8.831-31.466,25.901-35.685,16.999
		C285.321,278.977,321.009,262.059,325.184,270.922"/>
	<g>
		<path id="path75" fill="#E5E5E5" d="M365.946,294.666c0,6.806-9.9,6.796-9.9,0C356.045,287.879,365.946,287.875,365.946,294.666"
			/>
		<path id="path77" fill="#E5E5E5" d="M351.972,278.866c0,10.857-15.802,10.839-15.802,0
			C336.17,268.008,351.972,267.996,351.972,278.866"/>
	</g>
	<path id="path79" d="M288.508,182.873c0,32.013-49.68,32.029-49.68,0C238.828,150.771,288.508,150.789,288.508,182.873"/>
	<path id="path81" d="M338.238,182.873c0,23.285-36.146,23.285-36.146,0C302.091,159.513,338.238,159.517,338.238,182.873"/>
	<g>
		<path id="path83" fill="#5E5D5D" d="M261.007,173.073c10.545,0,17.779,8.948,17.317,19.003
			c18.28-23.206-28.44-42.177-31.008-12.276C250.83,175.444,255.395,173.211,261.007,173.073"/>
		<path id="path85" fill="#5E5D5D" d="M317.131,177.037c7.842,0,12.17,6.338,12.279,13.459
			c13.063-16.825-20.122-29.407-21.941-8.685C309.946,178.735,313.171,177.142,317.131,177.037"/>
	</g>
	<path id="path87" d="M155.214,333.087c0,36.799-4.764,74.481-14.486,110.044c-7.54,27.587-36.918,30.035-60.698,30.035
		c-19.982,0-56.566,7.108-68.969-13.495c-6.961-11.559-3.818-31.016-3.818-43.754V253.8v-57.764c0-4.701-0.336-9.777,0.991-14.339
		c2.308-7.935,8.981-13.285,16.825-15.159c7.267-1.727,18.053,3.723,10.154,11.824c26.868,0,63.48-7.981,82.247,15.782
		C145.076,229.121,155.214,290.586,155.214,333.087"/>
	<path id="path89" fill="#7C7C7C" d="M13.575,170.38c-13.317,11.384-8.026,42.394-8.026,57.64v105.238
		c0,31.903-19.234,141.603,32.76,141.603c26.095,0,62.274,5.908,85.95-7.887c32.831-19.157,31.474-91.041,32.458-122.247
		c1.457-46.323-9.512-95.691-29.324-137.73c-18.211-38.422-54.839-30.316-90.321-30.316C39.2,160.048,25.61,160.076,13.575,170.38
		 M8.948,445.943V289.292v-88.135c0-6.594-0.918-15.04,1.708-21.247c5.072-11.958,30.981-19.49,22.124-0.15
		c30.653,2.071,67.563-9.682,87.105,20.687c27.613,42.92,35.905,106.082,32.931,155.457c-2.316,38.606-1.52,108.54-51.771,114.928
		C77.377,473.847,8.948,481.79,8.948,445.943"/>
	<path id="path91" fill="#5E5D5D" d="M42.803,463.541c0,12.113-27.664,4.973-27.664-8.515V434.09v-96.127v-99.912
		c0-6.744-5.275-49.535,2.158-54.854c5.972-4.271,25.506,5.51,25.506,11.952c1.536,3.477,0,11.171,0,14.87v90.769V463.541"/>
	<path id="path93" fill="#FFFFFF" d="M60.749,165.288c0,16.928-18.365,16.936-18.365,0
		C42.384,148.352,60.749,148.355,60.749,165.288"/>
	<path id="path95" fill="#C6C6C6" d="M30.282,455.658c0.752,4.652-0.527,8.422-3.846,11.283c-6.993,0-6.993-276.081,0-276.081
		C34.345,190.861,30.282,430.677,30.282,455.658"/>
	<path id="path97" fill="#E5E5E5" d="M26.813,455.658c0.535,4.013-0.057,7.773-1.802,11.283c-3.252,0-3.252-276.081,0-276.081
		C28.718,190.861,26.813,431.536,26.813,455.658"/>
	<path id="path99" fill="#5E5D5D" d="M150.711,334.854c0,29.406-14.01,78.558-51.198,78.558c-37.2,0-51.194-49.135-51.194-78.558
		s14.002-78.544,51.194-78.544C136.693,256.31,150.711,305.447,150.711,334.854"/>
	<path id="path101" d="M151.566,332.706c0,36.305-4.539,73.42-13.852,108.549c-6.827,25.743-52.523,43.36-70.542,18.663
		c-8.221-11.279-5.151-30.801-5.151-43.854v-84.232c0-39.98-6.158-85.365,0-124.952c0-47.056,51.962-20.791,62.554,4.669
		C140.332,249.459,151.566,291.49,151.566,332.706"/>
	<path id="path103" fill="#5E5D5D" d="M148.387,332.236c0,31.773-6.543,63.579-18.62,92.921
		c-2.091,5.082-13.575,37.018-21.305,37.018c-9.911,0-9.911-269.985,0-269.985c7.615,0,19.42,37.021,21.305,42.076
		C141.353,265.5,148.387,298.848,148.387,332.236"/>
	<path id="path105" fill="#666666" d="M551.407,469.952c0-6.233-428.53-6.01-428.53,0
		C122.877,478.459,551.407,478.823,551.407,469.952"/>
</g>
<g id="active_1_">
	<path id="path3_1_" fill="#8C8C8C" d="M568.631,441.943c0,33.719-42.392,27.271-64.373,27.271H377.983H97.493
		c-21.792,0-60.898,5.556-60.898-27.466v-96.917v-145.89c0-24.568-4.971-60.126,30.72-60.126h440.477
		c18.092,0,46.035-4.851,57.047,13.492c11.108,18.493,3.81,56.059,3.81,76.042c0,71.192,0,142.396,0,213.595"/>
	<path id="path5_1_" d="M64.566,136.745c-40.653,0-29.972,60.693-29.972,86.25v151.171c0,23.165-10.142,78.753,14.861,93.066
		c17.048,9.764,48.779,3.996,67.105,3.996h291.173h112.54c24.316,0,50.433-1.601,50.433-33.921V207.979
		c0-24.41,7.587-71.235-29.979-71.235c-16.669-2.253-35.214,0-51.992,0H64.566 M38.665,441.943v-238.6
		c0-23.824-6.648-62.514,28.665-62.514h81.428h297.574h89.059c33.998,0,31.238,29.236,31.238,53.916v232.791
		c0,22.578-6.987,39.607-32.835,39.607h-77.245h-258.98H94.147C74.297,467.147,38.665,472.088,38.665,441.943"/>
	<path id="path7_1_" fill="#B2B2B2" d="M547.217,437.713c0,33.739-46.372,26.229-68.038,26.229H348.511H81.714
		c-25.079,0-45.093-5.277-45.093-35.349V301.694V178.779c0-31.423,23.688-33.038,47.869-33.038h417.616
		c19.359,0,45.087-0.336,45.087,27.058v73.788c0.008,63.711,0.008,127.403,0.008,191.125"/>
	<path id="path9_1_" fill="#E5E5E5" d="M404.495,334.364c0,45.438-32.511,92.601-81.326,92.601
		c-48.825,0-81.336-47.157-81.336-92.601c0-45.452,32.507-92.646,81.336-92.646C371.992,241.714,404.495,288.917,404.495,334.364"/>
	<path id="path11_1_" fill="#3F3F3F" d="M151.931,140.244c0,14.918-83.551,14.918-83.551,0
		C68.38,125.332,151.931,125.324,151.931,140.244"/>
	<path id="path13_1_" d="M143.254,141.353c0,10.942-73.928,10.934-73.928,0C69.326,130.475,143.254,130.467,143.254,141.353"/>
	<path id="path15_1_" fill="#3F3F3F" d="M403.815,139.107c0,19.043-146.839,19.036-146.839,0
		C256.976,120.025,403.815,120.025,403.815,139.107"/>
	<path id="path17_1_" d="M388.565,140.514c0,13.757-129.891,13.749-129.891,0C258.678,126.749,388.565,126.749,388.565,140.514"/>
	<path id="path19_1_" fill="#C6C6C6" d="M534.767,189.645h-71.271h-36.73c-6.342,0-6.982-17.135-3.833-20.339
		c7.363-7.492,60.56,0,71.267,0h36.734C538.876,169.31,534.767,183.183,534.767,189.645"/>
	<path id="path21_1_" fill="#FFFFFF" d="M519.033,156.71c0,8.6-411.514,4.237-454.339,4.237c-15.155,0-25.982-8.474-6.574-8.474
		h97.152h294.038c6.071,0,69.731-4.726,69.731,4.237"/>
	<path id="path23_1_" fill="#8C8C8C" d="M510.198,152.528H493.36c23.194,81.701,44.212,240.71-61.816,276.622
		c-48.771,16.515-104.361,12.251-154.788,8.628c-82.191-5.904-175.321-6.841-250.323-43.647c0,31.246-4.834,66.44,35.818,66.44
		h92.919h288.334h66.233c36.516,0,27.283-50.895,27.283-74.222V242.76C537.02,219.086,548.854,152.528,510.198,152.528"/>
	<path id="path25_1_" d="M547.298,187.371H324.502H175.044c-14.14,0-55.229,7.905-65.591-4.494h222.11h150.871
		C491.929,182.873,546.916,177.473,547.298,187.371"/>
	<path id="path27_1_" fill="#5E5D5D" d="M459.443,429.186c0,26.562-41.225,26.586-41.225,0
		C418.226,402.535,459.443,402.551,459.443,429.186"/>
	<path id="path34_1_" d="M456.249,429.186c0,22.428-34.846,22.428-34.846,0C421.404,406.726,456.249,406.709,456.249,429.186"/>
	<path id="path36_1_" d="M534.767,189.645h-71.271h-36.73c-6.342,0-6.982-17.135-3.833-20.339c7.363-7.492,60.56,0,71.267,0h36.734
		C538.876,169.31,534.767,183.183,534.767,189.645"/>
	<path id="path38_1_" fill="#FFFFFF" d="M526.296,187.371h-56.673h-33.8c-6.233,0-8.309-11.927-4.426-15.836
		c5.925-5.976,48.171,0,56.682,0h33.8C530.017,171.535,526.296,180.35,526.296,187.371"/>
	<path id="path40_1_" fill="#E5E5E5" d="M515.014,182.291c-10.026,0-76.321,2.033-72.269-5.674c1.475-2.825,35.615,0,39.315,0
		C490.162,176.624,516.375,171.207,515.014,182.291"/>
	<path id="path42_1_" fill="#3F3F3F" d="M335.242,447.513c-43.012,4.567-89.042-11.559-114.794-47.454
		c49.78,90.389,187.468,75.499,217.04-23.088C419.823,417.465,378.258,442.94,335.242,447.513"/>
	<path id="path44_1_" fill="#C6C6C6" d="M446.871,330.283c0,67.717-56.564,124.224-124.266,124.224
		c-67.709,0-124.245-56.503-124.245-124.224c0-67.722,56.532-124.275,124.245-124.275
		C390.327,206.008,446.871,262.57,446.871,330.283"/>
	<path id="path46_1_" d="M446.871,330.283c0,67.717-56.564,124.224-124.266,124.224c-67.709,0-124.245-56.503-124.245-124.224
		c0-67.722,56.532-124.275,124.245-124.275C390.327,206.008,446.871,262.57,446.871,330.283"/>
	<path id="path48_1_" fill="#8C8C8C" d="M428.399,330.283c0,136.431-211.602,136.439-211.602,0
		C216.797,193.771,428.399,193.771,428.399,330.283"/>
	<path id="path50_1_" fill="#E5E5E5" d="M322.314,220.533c36.265,0,75.333,15.135,95.313,46.837
		c-35.315-75.92-155.305-75.908-190.62,0C246.988,235.676,286.052,220.533,322.314,220.533"/>
	<path id="path52_1_" fill="#666666" d="M322.209,410.997c-34.339,0.341-64.184-22.667-77.248-53.662
		c26.744,85.079,128.465,83.984,153.451-1.601C385.971,387.021,356.58,410.652,322.209,410.997"/>
	<path id="path54_1_" fill="#FFFFFF" d="M323.279,240.006c35.405,0,74.206,15.188,92.382,47.222
		c-32.198-76.726-152.516-76.7-184.721,0C249.115,255.198,287.87,240.006,323.279,240.006"/>
	
		<radialGradient id="path67_4_" cx="322.6077" cy="271.835" r="80.0154" gradientTransform="matrix(1 0 0 -1 -0.02 602.0947)" gradientUnits="userSpaceOnUse">
		<stop  offset="0" style="stop-color:#617377"/>
		<stop  offset="0.5393" style="stop-color:#2D4547"/>
		<stop  offset="1" style="stop-color:#132421"/>
	</radialGradient>
	<path id="path67_1_" fill="url(#path67_4_)" d="M403.92,330.242c0,104.934-162.665,104.917-162.665,0
		C241.256,225.368,403.92,225.359,403.92,330.242"/>
	<path id="path73_1_" fill="#383838" d="M325.184,270.922c4.287,8.831-31.466,25.901-35.685,16.999
		C285.321,278.977,321.009,262.059,325.184,270.922"/>
	<g>
		<path id="path75_1_" fill="#E5E5E5" d="M365.946,294.666c0,6.806-9.9,6.796-9.9,0
			C356.045,287.879,365.946,287.875,365.946,294.666"/>
		<path id="path77_1_" fill="#E5E5E5" d="M351.972,278.866c0,10.857-15.802,10.839-15.802,0
			C336.17,268.008,351.972,267.996,351.972,278.866"/>
	</g>
	<path id="path79_1_" d="M288.508,182.873c0,32.013-49.68,32.029-49.68,0C238.828,150.771,288.508,150.789,288.508,182.873"/>
	<path id="path81_1_" d="M338.238,182.873c0,23.285-36.146,23.285-36.146,0C302.091,159.513,338.238,159.517,338.238,182.873"/>
	<g>
		<path id="path83_1_" fill="#5E5D5D" d="M261.007,173.073c10.545,0,17.779,8.948,17.317,19.003
			c18.28-23.206-28.44-42.177-31.008-12.276C250.83,175.444,255.395,173.211,261.007,173.073"/>
		<path id="path85_1_" fill="#5E5D5D" d="M317.131,177.037c7.842,0,12.17,6.338,12.279,13.459
			c13.063-16.825-20.122-29.407-21.941-8.685C309.946,178.735,313.171,177.142,317.131,177.037"/>
	</g>
	<path id="path87_1_" d="M155.214,333.087c0,36.799-4.764,74.481-14.486,110.044c-7.54,27.587-36.918,30.035-60.698,30.035
		c-19.982,0-56.566,7.108-68.969-13.495c-6.961-11.559-3.818-31.016-3.818-43.754V253.8v-57.764c0-4.701-0.336-9.777,0.991-14.339
		c2.308-7.935,8.981-13.285,16.825-15.159c7.267-1.727,18.053,3.723,10.154,11.824c26.868,0,63.48-7.981,82.247,15.782
		C145.076,229.121,155.214,290.586,155.214,333.087"/>
	<path id="path89_1_" fill="#7C7C7C" d="M13.575,170.38c-13.317,11.384-8.026,42.394-8.026,57.64v105.238
		c0,31.903-19.234,141.603,32.76,141.603c26.095,0,62.274,5.908,85.95-7.887c32.831-19.157,31.474-91.041,32.458-122.247
		c1.457-46.323-9.512-95.691-29.324-137.73c-18.211-38.422-54.839-30.316-90.321-30.316C39.2,160.048,25.61,160.076,13.575,170.38
		 M8.948,445.943V289.292v-88.135c0-6.594-0.918-15.04,1.708-21.247c5.072-11.958,30.981-19.49,22.124-0.15
		c30.653,2.071,67.563-9.682,87.105,20.687c27.613,42.92,35.905,106.082,32.931,155.457c-2.316,38.606-1.52,108.54-51.771,114.928
		C77.377,473.847,8.948,481.79,8.948,445.943"/>
	<path id="path91_1_" fill="#5E5D5D" d="M42.803,463.541c0,12.113-27.664,4.973-27.664-8.515V434.09v-96.127v-99.912
		c0-6.744-5.275-49.535,2.158-54.854c5.972-4.271,25.506,5.51,25.506,11.952c1.536,3.477,0,11.171,0,14.87v90.769V463.541"/>
	<path id="path93_1_" fill="#FFFFFF" d="M60.749,165.288c0,16.928-18.365,16.936-18.365,0
		C42.384,148.352,60.749,148.355,60.749,165.288"/>
	<path id="path95_1_" fill="#C6C6C6" d="M30.282,455.658c0.752,4.652-0.527,8.422-3.846,11.283c-6.993,0-6.993-276.081,0-276.081
		C34.345,190.861,30.282,430.677,30.282,455.658"/>
	<path id="path97_1_" fill="#E5E5E5" d="M26.813,455.658c0.535,4.013-0.057,7.773-1.802,11.283c-3.252,0-3.252-276.081,0-276.081
		C28.718,190.861,26.813,431.536,26.813,455.658"/>
	<path id="path99_1_" fill="#5E5D5D" d="M150.711,334.854c0,29.406-14.01,78.558-51.198,78.558c-37.2,0-51.194-49.135-51.194-78.558
		s14.002-78.544,51.194-78.544C136.693,256.31,150.711,305.447,150.711,334.854"/>
	<path id="path101_1_" d="M151.566,332.706c0,36.305-4.539,73.42-13.852,108.549c-6.827,25.743-52.523,43.36-70.542,18.663
		c-8.221-11.279-5.151-30.801-5.151-43.854v-84.232c0-39.98-6.158-85.365,0-124.952c0-47.056,51.962-20.791,62.554,4.669
		C140.332,249.459,151.566,291.49,151.566,332.706"/>
	<path id="path103_1_" fill="#5E5D5D" d="M148.387,332.236c0,31.773-6.543,63.579-18.62,92.921
		c-2.091,5.082-13.575,37.018-21.305,37.018c-9.911,0-9.911-269.985,0-269.985c7.615,0,19.42,37.021,21.305,42.076
		C141.353,265.5,148.387,298.848,148.387,332.236"/>
	<path id="path105_1_" fill="#666666" d="M551.407,469.952c0-6.233-428.53-6.01-428.53,0
		C122.877,478.459,551.407,478.823,551.407,469.952"/>
</g>
<g id="disabled_1_">
	<path id="path3_2_" fill="#8C8C8C" d="M568.631,441.943c0,33.719-42.392,27.271-64.373,27.271H377.983H97.493
		c-21.792,0-60.898,5.556-60.898-27.466v-96.917v-145.89c0-24.568-4.971-60.126,30.72-60.126h440.477
		c18.092,0,46.035-4.851,57.047,13.492c11.108,18.493,3.81,56.059,3.81,76.042c0,71.192,0,142.396,0,213.595"/>
	<path id="path5_2_" d="M64.566,136.745c-40.653,0-29.972,60.693-29.972,86.25v151.171c0,23.165-10.142,78.753,14.861,93.066
		c17.048,9.764,48.779,3.996,67.105,3.996h291.173h112.54c24.316,0,50.433-1.601,50.433-33.921V207.979
		c0-24.41,7.587-71.235-29.979-71.235c-16.669-2.253-35.214,0-51.992,0H64.566 M38.665,441.943v-238.6
		c0-23.824-6.648-62.514,28.665-62.514h81.428h297.574h89.059c33.998,0,31.238,29.236,31.238,53.916v232.791
		c0,22.578-6.987,39.607-32.835,39.607h-77.245h-258.98H94.147C74.297,467.147,38.665,472.088,38.665,441.943"/>
	<path id="path7_2_" fill="#B2B2B2" d="M547.217,437.713c0,33.739-46.372,26.229-68.038,26.229H348.511H81.714
		c-25.079,0-45.093-5.277-45.093-35.349V301.694V178.779c0-31.423,23.688-33.038,47.869-33.038h417.616
		c19.359,0,45.087-0.336,45.087,27.058v73.788c0.008,63.711,0.008,127.403,0.008,191.125"/>
	<path id="path9_2_" fill="#E5E5E5" d="M404.495,334.364c0,45.438-32.511,92.601-81.326,92.601
		c-48.825,0-81.336-47.157-81.336-92.601c0-45.452,32.507-92.646,81.336-92.646C371.992,241.714,404.495,288.917,404.495,334.364"/>
	<path id="path11_2_" fill="#3F3F3F" d="M151.931,140.244c0,14.918-83.551,14.918-83.551,0
		C68.38,125.332,151.931,125.324,151.931,140.244"/>
	<path id="path13_2_" d="M143.254,141.353c0,10.942-73.928,10.934-73.928,0C69.326,130.475,143.254,130.467,143.254,141.353"/>
	<path id="path15_2_" fill="#3F3F3F" d="M403.815,139.107c0,19.043-146.839,19.036-146.839,0
		C256.976,120.025,403.815,120.025,403.815,139.107"/>
	<path id="path17_2_" d="M388.565,140.514c0,13.757-129.891,13.749-129.891,0C258.678,126.749,388.565,126.749,388.565,140.514"/>
	<path id="path19_2_" fill="#C6C6C6" d="M534.767,189.645h-71.271h-36.73c-6.342,0-6.982-17.135-3.833-20.339
		c7.363-7.492,60.56,0,71.267,0h36.734C538.876,169.31,534.767,183.183,534.767,189.645"/>
	<path id="path21_2_" fill="#FFFFFF" d="M519.033,156.71c0,8.6-411.514,4.237-454.339,4.237c-15.155,0-25.982-8.474-6.574-8.474
		h97.152h294.038c6.071,0,69.731-4.726,69.731,4.237"/>
	<path id="path23_2_" fill="#8C8C8C" d="M510.198,152.528H493.36c23.194,81.701,44.212,240.71-61.816,276.622
		c-48.771,16.515-104.361,12.251-154.788,8.628c-82.191-5.904-175.321-6.841-250.323-43.647c0,31.246-4.834,66.44,35.818,66.44
		h92.919h288.334h66.233c36.516,0,27.283-50.895,27.283-74.222V242.76C537.02,219.086,548.854,152.528,510.198,152.528"/>
	<path id="path25_2_" d="M547.298,187.371H324.502H175.044c-14.14,0-55.229,7.905-65.591-4.494h222.11h150.871
		C491.929,182.873,546.916,177.473,547.298,187.371"/>
	<path id="path27_2_" fill="#5E5D5D" d="M459.443,429.186c0,26.562-41.225,26.586-41.225,0
		C418.226,402.535,459.443,402.551,459.443,429.186"/>
	<path id="path34_2_" d="M456.249,429.186c0,22.428-34.846,22.428-34.846,0C421.404,406.726,456.249,406.709,456.249,429.186"/>
	<path id="path36_2_" d="M534.767,189.645h-71.271h-36.73c-6.342,0-6.982-17.135-3.833-20.339c7.363-7.492,60.56,0,71.267,0h36.734
		C538.876,169.31,534.767,183.183,534.767,189.645"/>
	<path id="path38_2_" fill="#FFFFFF" d="M526.296,187.371h-56.673h-33.8c-6.233,0-8.309-11.927-4.426-15.836
		c5.925-5.976,48.171,0,56.682,0h33.8C530.017,171.535,526.296,180.35,526.296,187.371"/>
	<path id="path40_2_" fill="#E5E5E5" d="M515.014,182.291c-10.026,0-76.321,2.033-72.269-5.674c1.475-2.825,35.615,0,39.315,0
		C490.162,176.624,516.375,171.207,515.014,182.291"/>
	<path id="path42_2_" fill="#3F3F3F" d="M335.242,447.513c-43.012,4.567-89.042-11.559-114.794-47.454
		c49.78,90.389,187.468,75.499,217.04-23.088C419.823,417.465,378.258,442.94,335.242,447.513"/>
	<path id="path44_2_" fill="#C6C6C6" d="M446.871,330.283c0,67.717-56.564,124.224-124.266,124.224
		c-67.709,0-124.245-56.503-124.245-124.224c0-67.722,56.532-124.275,124.245-124.275
		C390.327,206.008,446.871,262.57,446.871,330.283"/>
	<path id="path46_2_" d="M446.871,330.283c0,67.717-56.564,124.224-124.266,124.224c-67.709,0-124.245-56.503-124.245-124.224
		c0-67.722,56.532-124.275,124.245-124.275C390.327,206.008,446.871,262.57,446.871,330.283"/>
	<path id="path48_2_" fill="#8C8C8C" d="M428.399,330.283c0,136.431-211.602,136.439-211.602,0
		C216.797,193.771,428.399,193.771,428.399,330.283"/>
	<path id="path50_2_" fill="#E5E5E5" d="M322.314,220.533c36.265,0,75.333,15.135,95.313,46.837
		c-35.315-75.92-155.305-75.908-190.62,0C246.988,235.676,286.052,220.533,322.314,220.533"/>
	<path id="path52_2_" fill="#666666" d="M322.209,410.997c-34.339,0.341-64.184-22.667-77.248-53.662
		c26.744,85.079,128.465,83.984,153.451-1.601C385.971,387.021,356.58,410.652,322.209,410.997"/>
	<path id="path54_2_" fill="#FFFFFF" d="M323.279,240.006c35.405,0,74.206,15.188,92.382,47.222
		c-32.198-76.726-152.516-76.7-184.721,0C249.115,255.198,287.87,240.006,323.279,240.006"/>
	
		<radialGradient id="path67_5_" cx="322.6077" cy="271.835" r="80.0154" gradientTransform="matrix(1 0 0 -1 -0.02 602.0947)" gradientUnits="userSpaceOnUse">
		<stop  offset="0" style="stop-color:#617377"/>
		<stop  offset="0.5393" style="stop-color:#2D4547"/>
		<stop  offset="1" style="stop-color:#132421"/>
	</radialGradient>
	<path id="path67_2_" fill="url(#path67_5_)" d="M403.92,330.242c0,104.934-162.665,104.917-162.665,0
		C241.256,225.368,403.92,225.359,403.92,330.242"/>
	<path id="path73_2_" fill="#383838" d="M325.184,270.922c4.287,8.831-31.466,25.901-35.685,16.999
		C285.321,278.977,321.009,262.059,325.184,270.922"/>
	<g>
		<path id="path75_2_" fill="#E5E5E5" d="M365.946,294.666c0,6.806-9.9,6.796-9.9,0
			C356.045,287.879,365.946,287.875,365.946,294.666"/>
		<path id="path77_2_" fill="#E5E5E5" d="M351.972,278.866c0,10.857-15.802,10.839-15.802,0
			C336.17,268.008,351.972,267.996,351.972,278.866"/>
	</g>
	<path id="path79_2_" d="M288.508,182.873c0,32.013-49.68,32.029-49.68,0C238.828,150.771,288.508,150.789,288.508,182.873"/>
	<path id="path81_2_" d="M338.238,182.873c0,23.285-36.146,23.285-36.146,0C302.091,159.513,338.238,159.517,338.238,182.873"/>
	<g>
		<path id="path83_2_" fill="#5E5D5D" d="M261.007,173.073c10.545,0,17.779,8.948,17.317,19.003
			c18.28-23.206-28.44-42.177-31.008-12.276C250.83,175.444,255.395,173.211,261.007,173.073"/>
		<path id="path85_2_" fill="#5E5D5D" d="M317.131,177.037c7.842,0,12.17,6.338,12.279,13.459
			c13.063-16.825-20.122-29.407-21.941-8.685C309.946,178.735,313.171,177.142,317.131,177.037"/>
	</g>
	<path id="path87_2_" d="M155.214,333.087c0,36.799-4.764,74.481-14.486,110.044c-7.54,27.587-36.918,30.035-60.698,30.035
		c-19.982,0-56.566,7.108-68.969-13.495c-6.961-11.559-3.818-31.016-3.818-43.754V253.8v-57.764c0-4.701-0.336-9.777,0.991-14.339
		c2.308-7.935,8.981-13.285,16.825-15.159c7.267-1.727,18.053,3.723,10.154,11.824c26.868,0,63.48-7.981,82.247,15.782
		C145.076,229.121,155.214,290.586,155.214,333.087"/>
	<path id="path89_2_" fill="#7C7C7C" d="M13.575,170.38c-13.317,11.384-8.026,42.394-8.026,57.64v105.238
		c0,31.903-19.234,141.603,32.76,141.603c26.095,0,62.274,5.908,85.95-7.887c32.831-19.157,31.474-91.041,32.458-122.247
		c1.457-46.323-9.512-95.691-29.324-137.73c-18.211-38.422-54.839-30.316-90.321-30.316C39.2,160.048,25.61,160.076,13.575,170.38
		 M8.948,445.943V289.292v-88.135c0-6.594-0.918-15.04,1.708-21.247c5.072-11.958,30.981-19.49,22.124-0.15
		c30.653,2.071,67.563-9.682,87.105,20.687c27.613,42.92,35.905,106.082,32.931,155.457c-2.316,38.606-1.52,108.54-51.771,114.928
		C77.377,473.847,8.948,481.79,8.948,445.943"/>
	<path id="path91_2_" fill="#5E5D5D" d="M42.803,463.541c0,12.113-27.664,4.973-27.664-8.515V434.09v-96.127v-99.912
		c0-6.744-5.275-49.535,2.158-54.854c5.972-4.271,25.506,5.51,25.506,11.952c1.536,3.477,0,11.171,0,14.87v90.769V463.541"/>
	<path id="path93_2_" fill="#FFFFFF" d="M60.749,165.288c0,16.928-18.365,16.936-18.365,0
		C42.384,148.352,60.749,148.355,60.749,165.288"/>
	<path id="path95_2_" fill="#C6C6C6" d="M30.282,455.658c0.752,4.652-0.527,8.422-3.846,11.283c-6.993,0-6.993-276.081,0-276.081
		C34.345,190.861,30.282,430.677,30.282,455.658"/>
	<path id="path97_2_" fill="#E5E5E5" d="M26.813,455.658c0.535,4.013-0.057,7.773-1.802,11.283c-3.252,0-3.252-276.081,0-276.081
		C28.718,190.861,26.813,431.536,26.813,455.658"/>
	<path id="path99_2_" fill="#5E5D5D" d="M150.711,334.854c0,29.406-14.01,78.558-51.198,78.558c-37.2,0-51.194-49.135-51.194-78.558
		s14.002-78.544,51.194-78.544C136.693,256.31,150.711,305.447,150.711,334.854"/>
	<path id="path101_2_" d="M151.566,332.706c0,36.305-4.539,73.42-13.852,108.549c-6.827,25.743-52.523,43.36-70.542,18.663
		c-8.221-11.279-5.151-30.801-5.151-43.854v-84.232c0-39.98-6.158-85.365,0-124.952c0-47.056,51.962-20.791,62.554,4.669
		C140.332,249.459,151.566,291.49,151.566,332.706"/>
	<path id="path103_2_" fill="#5E5D5D" d="M148.387,332.236c0,31.773-6.543,63.579-18.62,92.921
		c-2.091,5.082-13.575,37.018-21.305,37.018c-9.911,0-9.911-269.985,0-269.985c7.615,0,19.42,37.021,21.305,42.076
		C141.353,265.5,148.387,298.848,148.387,332.236"/>
	<path id="path105_2_" fill="#666666" d="M551.407,469.952c0-6.233-428.53-6.01-428.53,0
		C122.877,478.459,551.407,478.823,551.407,469.952"/>
</g>
</svg>
