<?xml version="1.0" encoding="UTF-8" standalone="no"?>
<!-- Generator: Adobe Illustrator 17.1.0, SVG Export Plug-In . SVG Version: 6.00 Build 0)  -->

<svg
   xmlns:dc="http://purl.org/dc/elements/1.1/"
   xmlns:cc="http://creativecommons.org/ns#"
   xmlns:rdf="http://www.w3.org/1999/02/22-rdf-syntax-ns#"
   xmlns:svg="http://www.w3.org/2000/svg"
   xmlns="http://www.w3.org/2000/svg"
   xmlns:sodipodi="http://sodipodi.sourceforge.net/DTD/sodipodi-0.dtd"
   xmlns:inkscape="http://www.inkscape.org/namespaces/inkscape"
   version="1.1"
   x="0px"
   y="0px"
   width="120px"
   height="120px"
   viewBox="0 0 120 120"
   enable-background="new 0 0 120 120"
   xml:space="preserve"
   id="svg3007"
   inkscape:version="0.48.5 r10040"
   sodipodi:docname="ico_footer_close.svg"><metadata
   id="metadata3027"><rdf:RDF><cc:Work
       rdf:about=""><dc:format>image/svg+xml</dc:format><dc:type
         rdf:resource="http://purl.org/dc/dcmitype/StillImage" /></cc:Work></rdf:RDF></metadata><defs
   id="defs3025" /><sodipodi:namedview
   pagecolor="#ffffff"
   bordercolor="#666666"
   borderopacity="1"
   objecttolerance="10"
   gridtolerance="10"
   guidetolerance="10"
   inkscape:pageopacity="0"
   inkscape:pageshadow="2"
   inkscape:window-width="640"
   inkscape:window-height="480"
   id="namedview3023"
   showgrid="false"
   inkscape:zoom="1.9666667"
   inkscape:cx="60"
   inkscape:cy="60"
   inkscape:window-x="0"
   inkscape:window-y="0"
   inkscape:window-maximized="0"
   inkscape:current-layer="svg3007" />
<g
   id="Layer_2"
   display="none">
	<circle
   display="inline"
   opacity="0.5"
   fill="#DF1F26"
   cx="60"
   cy="60"
   r="60"
   id="circle3010" />
	<rect
   x="6.5"
   y="6.5"
   display="inline"
   opacity="0.5"
   fill="#3B4FA1"
   width="107"
   height="107"
   id="rect3012" />
</g>
<g
   id="normal">
	<path
   fill="#DF1F26"
   d="M107.027,80.12H12.973c-3.729,0-6.751-2.614-6.751-5.835V37.308c0-3.224,3.023-5.835,6.751-5.835h94.055   c3.729,0,6.751,2.611,6.751,5.835v36.977C113.779,77.506,110.756,80.12,107.027,80.12L107.027,80.12z M110.32,37.308   c0-1.304-1.508-2.404-3.293-2.404H12.973c-1.785,0-3.293,1.1-3.293,2.404v36.977c0,1.301,1.508,2.404,3.293,2.404h94.055   c1.785,0,3.293-1.103,3.293-2.404V37.308L110.32,37.308z M17.513,52.58v-9.732h9.798v9.732H17.513L17.513,52.58z M32.505,52.58   v-9.732h9.798v9.732H32.505L32.505,52.58z M47.495,52.58v-9.732h9.801v9.732H47.495L47.495,52.58z M62.488,52.58v-9.732h9.801   v9.732H62.488L62.488,52.58z M77.481,52.58v-9.732h9.798v9.732H77.481L77.481,52.58z M92.473,52.58v-9.732h9.798v9.732H92.473   L92.473,52.58z M17.513,69.73v-9.732h9.798v9.732H17.513L17.513,69.73z M32.505,69.73v-9.732h9.798v9.732H32.505L32.505,69.73z    M47.495,69.73v-9.732h39.783v9.732H47.495L47.495,69.73z M92.473,69.73v-9.732h9.798v9.732H92.473L92.473,69.73z M60,95.687   L46.458,85.39h27.074L60,95.687L60,95.687z"
   id="path3015" />
</g>
<g
   id="active">
	<path
   fill="#EA3187"
   d="M107.027,80.12H12.973c-3.729,0-6.751-2.614-6.751-5.835V37.308c0-3.224,3.023-5.835,6.751-5.835h94.055   c3.729,0,6.751,2.611,6.751,5.835v36.977C113.779,77.506,110.756,80.12,107.027,80.12L107.027,80.12z M110.32,37.308   c0-1.304-1.508-2.404-3.293-2.404H12.973c-1.785,0-3.293,1.1-3.293,2.404v36.977c0,1.301,1.508,2.404,3.293,2.404h94.055   c1.785,0,3.293-1.103,3.293-2.404V37.308L110.32,37.308z M17.513,52.58v-9.732h9.798v9.732H17.513L17.513,52.58z M32.505,52.58   v-9.732h9.798v9.732H32.505L32.505,52.58z M47.495,52.58v-9.732h9.801v9.732H47.495L47.495,52.58z M62.488,52.58v-9.732h9.801   v9.732H62.488L62.488,52.58z M77.481,52.58v-9.732h9.798v9.732H77.481L77.481,52.58z M92.473,52.58v-9.732h9.798v9.732H92.473   L92.473,52.58z M17.513,69.73v-9.732h9.798v9.732H17.513L17.513,69.73z M32.505,69.73v-9.732h9.798v9.732H32.505L32.505,69.73z    M47.495,69.73v-9.732h39.783v9.732H47.495L47.495,69.73z M92.473,69.73v-9.732h9.798v9.732H92.473L92.473,69.73z M60,95.687   L46.458,85.39h27.074L60,95.687L60,95.687z"
   id="path3018" />
</g>

</svg>