<?xml version="1.0" encoding="utf-8"?>
<!-- Generator: Adobe Illustrator 15.0.0, SVG Export Plug-In . SVG Version: 6.00 Build 0)  -->
<!DOCTYPE svg PUBLIC "-//W3C//DTD SVG 1.1//EN" "http://www.w3.org/Graphics/SVG/1.1/DTD/svg11.dtd">
<svg version="1.1" id="Layer_1" xmlns="http://www.w3.org/2000/svg" xmlns:xlink="http://www.w3.org/1999/xlink" x="0px" y="0px"
	 width="487px" height="466px" viewBox="0 0 487 466" enable-background="new 0 0 487 466" xml:space="preserve">
<g>
	<g>
		<path fill="#746E72" d="M80.449,462.363C32.353,447.576,8.095,426.6,7.719,407.691c-1.417-70.893,373.074-88.391,274.139-127.699
			c-52.065-20.688-79.26-40.979-77.438-56.604c2.108-18.135,26.706-40.826,114.405-57.772h21.675
			c-10.706,4.53-36.838,16.124-52.947,27.887c-18.542,13.542-13.009,21.825,1.065,27.396
			c41.761,16.534,92.705,20.801,135.179,35.854c26.991,9.567,79.494,32.748,49.56,68.882
			c-32.934,39.742-137.698,70.521,0.488,136.727L80.449,462.363L80.449,462.363z"/>
		<path fill="#FFFFFF" d="M293.94,347.633c-27.315,10.58-66.532,20.695-88.249,41.436h-17.965
			c18.068-21.322,52.872-32.195,77.964-41.434L293.94,347.633L293.94,347.633z"/>
		<path fill="#FFFFFF" d="M382.232,307.117c-12.266,9.844-36.049,20.057-63.969,31.059h-26.011
			c31.672-11.039,61.659-21.123,77.32-31.058L382.232,307.117L382.232,307.117z"/>
		<path fill="#FFFFFF" d="M360.264,271.133c9.249,3.18,39.072,13.2,28.644,29.031h-10.859
			c12.953-15.527-22.416-25.412-33.379-29.031H360.264L360.264,271.133z"/>
		<path fill="#FFFFFF" d="M309.924,254.322c12.657,4.566,24.917,8.561,34.667,11.704l-15.471-0.002
			c-10.56-3.466-22.36-7.406-33.951-11.7L309.924,254.322L309.924,254.322z"/>
		<path fill="#FFFFFF" d="M271.04,238.227c8.77,4.332,18.717,8.498,28.789,12.35l-14.478-0.001
			c-9.924-3.92-19.358-8.058-27.342-12.345L271.04,238.227L271.04,238.227z"/>
		<path fill="#FFFFFF" d="M247.097,222.78c4.078,4.013,10.053,8.026,17.173,11.935l-12.396-0.002
			c-6.379-3.908-11.375-7.906-14.27-11.933H247.097L247.097,222.78z"/>
		<path fill="#FFFFFF" d="M243.23,206.035c-3.086,4.367-2.42,8.889,0.973,13.443h-8.521c-1.865-4.137-2.253-8.536,1.405-13.443
			H243.23L243.23,206.035z"/>
		<path fill="#FFFFFF" d="M256.177,195.739c-3.904,2.414-7.265,4.799-9.988,7.123l-6.302,0.083c2.795-2.711,6.131-5.051,9.359-7.205
			L256.177,195.739L256.177,195.739z"/>
		<path fill="#FFFFFF" d="M275.88,185.436c-5.4,2.438-10.353,4.927-14.771,7.398h-7.26c4.36-2.609,9.093-5.078,14.122-7.396
			L275.88,185.436L275.88,185.436z"/>
		<path fill="#FFFFFF" d="M293.568,178.194c-3.963,1.471-7.782,2.985-11.424,4.516h-8.001c3.715-1.563,7.563-3.079,11.497-4.515
			L293.568,178.194L293.568,178.194z"/>
		<path fill="#FFFFFF" d="M311.556,172.193l-10.798,3.441h-7.794c4.048-1.233,8.095-2.469,12.142-3.703L311.556,172.193
			L311.556,172.193z"/>
		<path fill="#FFFFFF" d="M323.345,168.705c-4.464,0.988-6.303,1.273-7.839,1.764l-6.121-0.002c2.048-0.531,3.797-1.117,6.692-1.76
			L323.345,168.705L323.345,168.705z"/>
		<path fill="#FFFFFF" d="M231.705,462.365h39.443c-18.426-6.232-35.315-13.32-48.311-21.506
			c-20.852-13.156-29.43-26.416-25.688-38.91l-16.48-0.002c-4.336,16.42,8.154,33.094,30.32,48.34
			C217.119,454.494,224.042,458.566,231.705,462.365L231.705,462.365z"/>
		<path fill="#FFFFFF" d="M334.62,165.646c-4.343,0.835-5.814,1.242-7.353,1.732l-5.846-0.002c2.048-0.531,3.797-1.117,6.692-1.76
			L334.62,165.646L334.62,165.646z"/>
		<g>
			<path fill="#14BD29" d="M214.026,395.243c-10.187,0-20.507-0.858-30.674-2.553l-0.804-0.134l-0.172-0.797
				c-2.139-9.909-4.13-22.617-5.919-37.78c-8.154-2.116-16.15-4.92-23.793-8.343c-10.814,10.678-20.308,19.358-28.227,25.813
				l-0.633,0.515l-0.711-0.398c-9.865-5.521-19.231-11.925-27.837-19.031l-0.628-0.519l0.25-0.775
				c3.153-9.779,7.791-21.79,13.791-35.711c-5.973-5.873-11.495-12.288-16.428-19.089c-14.742,3.849-27.314,6.624-37.377,8.253
				l-0.805,0.13l-0.418-0.699c-5.795-9.715-10.715-19.936-14.625-30.38l-0.286-0.764l0.604-0.547
				c7.608-6.889,17.627-14.969,29.788-24.022c-2.222-8.038-3.782-16.365-4.64-24.778c-14.635-4.021-26.899-7.902-36.46-11.541
				l-0.764-0.291l-0.023-1.731c-0.011-0.614-0.022-1.232-0.018-1.85c-0.005-10.254,0.852-20.641,2.548-30.864l0.133-0.805
				l0.797-0.172c9.975-2.15,22.687-4.138,37.792-5.912c2.089-8.117,4.894-16.117,8.344-23.804
				c-10.715-10.853-19.399-20.345-25.817-28.218l-0.516-0.633l0.399-0.712c5.525-9.868,11.93-19.237,19.038-27.847l0.519-0.628
				l0.775,0.25c9.8,3.161,21.811,7.8,35.708,13.791c5.885-5.98,12.302-11.502,19.093-16.428c-3.854-14.724-6.629-27.296-8.25-37.376
				l-0.129-0.803l0.698-0.417c9.654-5.774,19.876-10.695,30.381-14.625l0.763-0.286l0.547,0.604
				c6.923,7.648,15.003,17.666,24.022,29.785c8.046-2.224,16.372-3.782,24.773-4.638c4.024-14.674,7.902-26.937,11.531-36.46
				l0.291-0.764l1.767-0.024c0.518-0.01,1.037-0.019,1.559-0.019l0.353,0c10.2,0,20.553,0.858,30.77,2.549l0.805,0.133l0.172,0.798
				c2.149,9.965,4.137,22.676,5.91,37.791c8.149,2.105,16.149,4.909,23.807,8.343c10.813-10.684,20.301-19.368,28.207-25.816
				l0.633-0.516l0.712,0.399c9.888,5.534,19.259,11.94,27.854,19.04l0.628,0.519l-0.251,0.775
				c-3.173,9.826-7.811,21.835-13.789,35.708c5.968,5.862,11.488,12.28,16.424,19.096c14.719-3.85,27.294-6.625,37.386-8.25
				l0.803-0.129l0.417,0.698c5.762,9.628,10.682,19.85,14.624,30.38l0.285,0.764l-0.604,0.547
				c-7.57,6.85-17.589,14.93-29.786,24.023c2.228,8.071,3.786,16.399,4.639,24.78c14.664,4.022,26.927,7.9,36.455,11.528
				l0.764,0.291l0.023,1.713c0.012,0.62,0.022,1.244,0.019,1.868c0.006,10.268-0.854,20.658-2.554,30.875l-0.134,0.806l-0.798,0.171
				c-10.018,2.151-22.724,4.136-37.778,5.898c-2.106,8.137-4.91,16.139-8.343,23.811c10.668,10.806,19.346,20.296,25.802,28.218
				l0.515,0.632l-0.397,0.712c-5.485,9.81-11.885,19.178-19.021,27.843l-0.519,0.63l-0.776-0.251
				c-9.846-3.177-21.857-7.817-35.711-13.794c-5.887,5.984-12.304,11.508-19.095,16.436c3.842,14.7,6.618,27.265,8.253,37.356
				l0.13,0.804l-0.697,0.418c-9.593,5.752-19.813,10.676-30.379,14.634l-0.764,0.286l-0.547-0.604
				c-6.893-7.617-14.972-17.635-24.019-29.787c-8.062,2.229-16.389,3.785-24.781,4.63c-3.996,14.563-7.874,26.83-11.531,36.47
				l-0.289,0.761l-1.488,0.025c-0.541,0.011-1.08,0.021-1.622,0.021L214.026,395.243z M214.219,107.857
				c-55.345,0-100.371,45.031-100.371,100.382c0,55.348,45.029,100.376,100.376,100.376
				c55.346-0.005,100.372-45.038,100.372-100.387C314.597,152.888,269.567,107.862,214.219,107.857L214.219,107.857z"/>
			<path d="M213.984,22.416c0.083,0,0.166,0,0.248,0.001c0.035,0,0.069,0,0.104,0c10.416,0,20.621,0.885,30.574,2.533
				c2.197,10.188,4.189,23.019,5.987,38.496c8.711,2.199,17.132,5.163,25.16,8.817c11.063-10.956,20.63-19.731,28.708-26.32
				c9.803,5.487,19.069,11.81,27.676,18.918c-3.207,9.93-7.89,22.049-14.076,36.358c6.377,6.194,12.178,12.944,17.36,20.184
				c15.076-3.962,27.766-6.776,38.068-8.435c5.707,9.538,10.58,19.635,14.529,30.185c-7.737,7-17.862,15.148-30.358,24.442
				c2.383,8.451,4.038,17.2,4.902,26.19c15.01,4.098,27.392,7.998,37.142,11.71c0.011,0.907,0.038,1.825,0.032,2.742
				c0.006,10.457-0.876,20.703-2.537,30.687c-10.188,2.188-23.023,4.182-38.484,5.975c-2.206,8.722-5.168,17.129-8.817,25.165
				c10.947,11.063,19.717,20.635,26.304,28.718c-5.479,9.8-11.813,19.06-18.9,27.666c-9.935-3.206-22.055-7.889-36.36-14.081
				c-6.197,6.37-12.947,12.183-20.183,17.372c3.957,15.07,6.771,27.759,8.438,38.041c-9.543,5.723-19.638,10.589-30.183,14.539
				c-6.996-7.73-15.147-17.851-24.438-30.359c-8.451,2.39-17.212,4.041-26.191,4.894c-4.103,15.024-8.014,27.407-11.714,37.158
				c-0.762,0.012-1.518,0.033-2.278,0.033c-0.154,0-0.309-0.001-0.464-0.003c-0.068,0-0.137,0-0.205,0
				c-10.384,0-20.565-0.885-30.478-2.536c-2.199-10.188-4.189-23.018-5.996-38.485c-8.708-2.209-17.118-5.168-25.146-8.817
				c-11.069,10.954-20.646,19.729-28.728,26.314c-9.79-5.479-19.058-11.808-27.659-18.91c3.201-9.93,7.889-22.049,14.077-36.36
				c-6.367-6.191-12.176-12.941-17.365-20.177c-15.085,3.956-27.762,6.771-38.061,8.438c-5.701-9.556-10.584-19.639-14.531-30.186
				c7.733-7.003,17.843-15.146,30.359-24.441c-2.386-8.443-4.039-17.219-4.904-26.188c-15.021-4.107-27.403-8.015-37.146-11.723
				c-0.01-0.907-0.038-1.824-0.032-2.742c-0.006-10.452,0.875-20.696,2.531-30.675c10.191-2.196,23.021-4.189,38.499-5.988
				c2.191-8.719,5.16-17.128,8.817-25.157c-10.956-11.072-19.739-20.646-26.32-28.719c5.487-9.8,11.81-19.061,18.916-27.669
				c9.93,3.203,22.048,7.889,36.357,14.077c6.194-6.365,12.944-12.176,20.182-17.365c-3.965-15.077-6.779-27.762-8.435-38.059
				c9.535-5.703,19.633-10.583,30.185-14.531c6.998,7.731,15.148,17.84,24.441,30.357c8.45-2.387,17.198-4.037,26.184-4.902
				c4.103-15.029,8.002-27.406,11.713-37.146C212.318,22.441,213.148,22.416,213.984,22.416 M214.225,309.815
				c56.092-0.005,101.572-45.478,101.572-101.587c0-56.093-45.477-101.566-101.578-101.571
				c-56.098,0-101.571,45.478-101.571,101.582C112.648,264.344,158.126,309.815,214.225,309.815 M213.984,20.016
				c-0.529,0-1.055,0.01-1.58,0.02c-0.314,0.006-0.628,0.012-0.942,0.015l-1.634,0.019l-0.582,1.527
				c-3.577,9.388-7.393,21.417-11.35,35.779c-7.915,0.849-15.758,2.317-23.36,4.373c-8.845-11.854-16.783-21.679-23.606-29.217
				l-1.094-1.208l-1.526,0.571c-10.572,3.955-20.86,8.907-30.576,14.719l-1.396,0.835l0.258,1.605
				c1.598,9.937,4.311,22.277,8.067,36.698c-6.379,4.68-12.423,9.88-18.003,15.49c-13.614-5.849-25.404-10.391-35.062-13.507
				l-1.551-0.5l-1.037,1.256c-7.152,8.665-13.599,18.094-19.159,28.025l-0.797,1.424l1.031,1.265
				c6.327,7.762,14.84,17.083,25.317,27.72c-3.213,7.266-5.855,14.802-7.869,22.448c-14.787,1.754-27.258,3.715-37.09,5.834
				l-1.595,0.344l-0.267,1.609c-1.707,10.288-2.569,20.741-2.563,31.07c-0.004,0.61,0.007,1.237,0.018,1.86
				c0.005,0.304,0.011,0.606,0.014,0.908l0.019,1.635l1.528,0.582c9.423,3.586,21.455,7.405,35.779,11.358
				c0.851,7.926,2.32,15.77,4.374,23.365c-11.896,8.879-21.721,16.816-29.219,23.606l-1.208,1.094l0.571,1.526
				c3.934,10.512,8.886,20.798,14.718,30.574l0.835,1.4l1.609-0.261c9.919-1.605,22.259-4.319,36.698-8.07
				c4.687,6.388,9.887,12.43,15.49,18c-5.858,13.637-10.4,25.427-13.507,35.064l-0.5,1.55l1.255,1.037
				c8.662,7.152,18.088,13.597,28.015,19.154l1.424,0.796l1.265-1.03c7.806-6.361,17.129-14.872,27.729-25.313
				c7.227,3.189,14.759,5.83,22.437,7.867c1.769,14.843,3.733,27.312,5.841,37.081l0.344,1.593l1.607,0.268
				c10.232,1.705,20.619,2.569,30.872,2.569h0.207c0.132,0.002,0.297,0.002,0.462,0.002c0.549,0,1.096-0.01,1.645-0.021l0.671-0.013
				l1.628-0.025l0.577-1.522c3.604-9.499,7.42-21.532,11.349-35.786c7.906-0.839,15.751-2.305,23.368-4.366
				c8.873,11.888,16.809,21.712,23.603,29.219l1.094,1.209l1.527-0.572c10.634-3.983,20.921-8.938,30.575-14.728l1.395-0.837
				l-0.26-1.605c-1.612-9.947-4.325-22.279-8.07-36.678c6.379-4.681,12.424-9.884,18.005-15.497
				c13.571,5.836,25.362,10.379,35.064,13.511l1.553,0.501l1.037-1.26c7.183-8.721,13.623-18.148,19.143-28.021l0.796-1.423
				l-1.03-1.264c-6.362-7.809-14.87-17.128-25.303-27.72c3.198-7.254,5.84-14.792,7.867-22.454
				c14.737-1.744,27.204-3.701,37.077-5.822l1.596-0.342l0.268-1.61c1.711-10.282,2.576-20.739,2.57-31.082
				c0.004-0.616-0.008-1.249-0.019-1.879c-0.006-0.298-0.011-0.595-0.015-0.89l-0.019-1.633l-1.527-0.581
				c-9.392-3.577-21.422-7.392-35.773-11.347c-0.847-7.897-2.315-15.743-4.374-23.368c11.932-8.917,21.756-16.854,29.219-23.606
				l1.209-1.094l-0.571-1.527c-3.968-10.599-8.92-20.886-14.718-30.576l-0.835-1.396l-1.606,0.258
				c-9.948,1.602-22.29,4.314-36.706,8.067c-4.688-6.401-9.888-12.446-15.486-18.006c5.838-13.589,10.379-25.378,13.506-35.061
				l0.5-1.55l-1.256-1.038c-8.65-7.146-18.082-13.592-28.032-19.162l-1.424-0.797l-1.265,1.032
				c-7.794,6.357-17.111,14.87-27.709,25.317c-7.24-3.199-14.777-5.84-22.451-7.868c-1.753-14.795-3.715-27.267-5.832-37.089
				l-0.345-1.595l-1.61-0.267c-10.281-1.703-20.699-2.565-30.965-2.565h-0.054h-0.05L213.984,20.016L213.984,20.016z
				 M214.225,307.415c-54.686,0-99.177-44.49-99.177-99.176c0-54.689,44.488-99.182,99.171-99.182
				c54.687,0.005,99.178,44.493,99.178,99.171C313.396,262.916,268.908,307.41,214.225,307.415L214.225,307.415L214.225,307.415z"/>
		</g>
	</g>
</g>
</svg>
