<?xml version="1.0" encoding="utf-8"?>
<!-- Generator: Adobe Illustrator 16.0.0, SVG Export Plug-In . SVG Version: 6.00 Build 0)  -->
<!DOCTYPE svg PUBLIC "-//W3C//DTD SVG 1.1//EN" "http://www.w3.org/Graphics/SVG/1.1/DTD/svg11.dtd">
<svg version="1.1" id="Слой_1" xmlns="http://www.w3.org/2000/svg" xmlns:xlink="http://www.w3.org/1999/xlink" x="0px" y="0px"
	 width="120px" height="120px" viewBox="0 0 120 120" enable-background="new 0 0 120 120" xml:space="preserve">
<g id="disabled" display="none" opacity="0.2">
	<path display="inline" fill="#FFFFFF" d="M105.887,108.396c-22.949,0-70.281,0-92.652,0c-6.025-0.197-8.837-6.28-4.943-12.836
		c16.306-28.742,35.27-62.158,45.058-79.42c3.4-5.997,9.775-5.997,13.046-0.307c9.949,17.299,28.765,50.705,45.32,79.89
		C115.295,102.184,113.555,107.607,105.887,108.396L105.887,108.396z M53.203,92.879c0,1.916,0.681,3.532,2.04,4.839
		c1.36,1.312,2.993,1.966,4.902,1.966c1.837,0,3.063-0.653,4.457-1.966c1.396-1.308,2.094-2.923,2.094-4.839
		c0-1.854-0.696-3.434-2.094-4.744c-1.395-1.309-2.619-1.965-4.457-1.963c-1.908,0-3.543,0.654-4.902,1.963
		C53.883,89.445,53.203,91.025,53.203,92.879L53.203,92.879z M63.956,34.565c-1.058-1.16-2.41-1.741-4.057-1.74
		c-1.587,0-2.939,0.58-4.056,1.74c-1.116,1.158-1.675,2.41-1.675,3.749l0.001,33.711c-0.001,1.605,0.558,2.899,1.675,3.882
		c1.118,0.981,2.469,1.473,4.057,1.473c1.647-0.001,2.998-0.491,4.057-1.474c1.058-0.982,1.586-2.276,1.587-3.883v-33.71
		C65.543,36.974,65.014,35.723,63.956,34.565L63.956,34.565z"/>
</g>
<g id="normal_1_" transform="translate(0,-352.36218)">
	<path fill="#AFAFAF" d="M60,467.685c-1.421,0-2.741-0.508-3.756-1.522L6.199,416.118c-2.03-2.03-2.03-5.482,0-7.512l50.045-50.045
		c1.015-1.015,2.335-1.522,3.756-1.522c1.319,0,2.741,0.508,3.756,1.522l50.045,50.045c2.03,2.03,2.03,5.482,0,7.512l-50.045,50.045
		C62.843,467.178,61.422,467.685,60,467.685z"/>
	
		<linearGradient id="SVGID_1_" gradientUnits="userSpaceOnUse" x1="-177.1387" y1="770.6024" x2="-177.1387" y2="791.2284" gradientTransform="matrix(5.3152 0 0 5.3152 1001.5343 -3738.3828)">
		<stop  offset="0" style="stop-color:#FFFFFF"/>
		<stop  offset="1" style="stop-color:#CFCFCF"/>
	</linearGradient>
	<path fill="url(#SVGID_1_)" d="M60,467.178c-1.421,0-2.741-0.508-3.756-1.522L6.707,416.118c-2.03-2.03-2.03-5.482,0-7.512
		l49.538-49.537c1.015-1.015,2.335-1.522,3.756-1.522c1.319,0,2.741,0.507,3.756,1.522l49.537,49.537c2.03,2.03,2.03,5.482,0,7.512
		l-49.537,49.537C62.843,466.67,61.422,467.178,60,467.178z"/>
	<path d="M63.452,463.828l48.015-48.015c1.928-1.929,1.928-4.974,0-6.903l-48.015-48.015c-2.64-2.538-4.365-2.436-6.904,0
		L8.433,409.012c-1.929,1.929-1.929,4.974,0,6.903l48.015,47.913C58.477,465.757,61.522,465.757,63.452,463.828z"/>
	
		<linearGradient id="SVGID_2_" gradientUnits="userSpaceOnUse" x1="-748.5654" y1="2519.6182" x2="-750.0527" y2="2520.189" gradientTransform="matrix(17.954 -17.954 17.954 17.954 -31732.1973 -58276)">
		<stop  offset="0" style="stop-color:#FFED00"/>
		<stop  offset="1" style="stop-color:#FFA700"/>
	</linearGradient>
	<path fill="url(#SVGID_2_)" d="M62.741,452.864l38.37-37.863c2.641-2.74,2.641-2.74,0-5.38l-38.269-37.762
		c-2.64-2.842-2.741-2.842-5.481,0l-38.27,37.864c-2.639,2.842-2.741,2.842,0,5.38l38.27,37.761
		C60,455.707,60,455.605,62.741,452.864z"/>
	
		<linearGradient id="SVGID_3_" gradientUnits="userSpaceOnUse" x1="-133.9146" y1="1055.4188" x2="-129.6617" y2="1055.4188" gradientTransform="matrix(0 19.3106 19.0432 0 -20043.7734 2940.4629)">
		<stop  offset="0" style="stop-color:#FFFFFF"/>
		<stop  offset="0.5" style="stop-color:#FFFFFF;stop-opacity:0.3"/>
		<stop  offset="1" style="stop-color:#FFFFFF;stop-opacity:0"/>
	</linearGradient>
	<path opacity="0.9" fill="url(#SVGID_3_)" enable-background="new    " d="M84.465,400.079c1.42-1.421,14.109,0.609,8.222-9.136
		l-30.149-30.555c-0.812-0.71-1.624-1.116-2.639-1.218l0,0c-0.913,0-1.726,0.508-2.537,1.218l-35.936,36.544
		c-4.974,5.583-7.41,11.573-5.279,11.37c2.132-0.203,9.949-6.395,12.689-6.294c1.32-0.203,2.64-0.304,4.264-0.304
		c3.146,0,5.482,0.406,8.527,0.914c3.857,0.305,7.613,0.609,10.659,1.015C57.259,404.85,73.399,402.414,84.465,400.079"/>
	
		<linearGradient id="SVGID_4_" gradientUnits="userSpaceOnUse" x1="463.5293" y1="1351.2362" x2="464.9458" y2="1351.2362" gradientTransform="matrix(0 -8.5908 -8.4718 0 11511.5293 4433.4907)">
		<stop  offset="0" style="stop-color:#FFFFFF"/>
		<stop  offset="1" style="stop-color:#FFFFFF;stop-opacity:0"/>
	</linearGradient>
	<path opacity="0.5" fill="url(#SVGID_4_)" enable-background="new    " d="M46.093,441.698l12.689,12.689
		c0.305,0.305,0.71,0.507,1.116,0.507s0.813-0.202,1.117-0.507l21.215-20.912C73.095,442.815,55.838,451.343,46.093,441.698z"/>
	<path d="M60.203,429.276c-2.842,0-5.177,2.334-5.177,5.075c0,2.842,2.335,5.178,5.177,5.178s5.075-2.336,5.075-5.178
		C65.38,431.61,63.045,429.276,60.203,429.276 M61.522,424.606v-2.437c0-3.045,0.609-8.933,1.32-12.688l2.232-10.862
		c0.711-3.654,1.117-6.497,1.117-8.121c0-4.669-2.132-7.411-5.786-7.411c-3.858,0-5.786,2.639-5.786,8.121
		c0,1.726,0,1.726,0.913,7.207l1.726,10.456c0.609,3.451,1.218,10.252,1.218,13.297v2.538L61.522,424.606"/>
</g>
<g id="active_1_" transform="translate(0,-352.36218)">
	<path fill="#AFAFAF" d="M60,467.685c-1.421,0-2.741-0.508-3.756-1.522L6.199,416.118c-2.03-2.03-2.03-5.482,0-7.512l50.045-50.045
		c1.015-1.015,2.335-1.522,3.756-1.522c1.319,0,2.741,0.508,3.756,1.522l50.045,50.045c2.03,2.03,2.03,5.482,0,7.512l-50.045,50.045
		C62.843,467.178,61.422,467.685,60,467.685z"/>
	
		<linearGradient id="SVGID_5_" gradientUnits="userSpaceOnUse" x1="-177.1387" y1="770.6024" x2="-177.1387" y2="791.2284" gradientTransform="matrix(5.3152 0 0 5.3152 1001.5343 -3738.3828)">
		<stop  offset="0" style="stop-color:#FFFFFF"/>
		<stop  offset="1" style="stop-color:#CFCFCF"/>
	</linearGradient>
	<path fill="url(#SVGID_5_)" d="M60,467.178c-1.421,0-2.741-0.508-3.756-1.522L6.707,416.118c-2.03-2.03-2.03-5.482,0-7.512
		l49.538-49.537c1.015-1.015,2.335-1.522,3.756-1.522c1.319,0,2.741,0.507,3.756,1.522l49.537,49.537c2.03,2.03,2.03,5.482,0,7.512
		l-49.537,49.537C62.843,466.67,61.422,467.178,60,467.178z"/>
	<path d="M63.452,463.828l48.015-48.015c1.928-1.929,1.928-4.974,0-6.903l-48.015-48.015c-2.64-2.538-4.365-2.436-6.904,0
		L8.433,409.012c-1.929,1.929-1.929,4.974,0,6.903l48.015,47.913C58.477,465.757,61.522,465.757,63.452,463.828z"/>
	
		<linearGradient id="SVGID_6_" gradientUnits="userSpaceOnUse" x1="-748.5654" y1="2519.6182" x2="-750.0527" y2="2520.189" gradientTransform="matrix(17.954 -17.954 17.954 17.954 -31732.1973 -58276)">
		<stop  offset="0" style="stop-color:#FFED00"/>
		<stop  offset="1" style="stop-color:#FFA700"/>
	</linearGradient>
	<path fill="url(#SVGID_6_)" d="M62.741,452.864l38.37-37.863c2.641-2.74,2.641-2.74,0-5.38l-38.269-37.762
		c-2.64-2.842-2.741-2.842-5.481,0l-38.27,37.864c-2.639,2.842-2.741,2.842,0,5.38l38.27,37.761
		C60,455.707,60,455.605,62.741,452.864z"/>
	
		<linearGradient id="SVGID_7_" gradientUnits="userSpaceOnUse" x1="-133.9146" y1="1055.4188" x2="-129.6617" y2="1055.4188" gradientTransform="matrix(0 19.3106 19.0432 0 -20043.7734 2940.4629)">
		<stop  offset="0" style="stop-color:#FFFFFF"/>
		<stop  offset="0.5" style="stop-color:#FFFFFF;stop-opacity:0.3"/>
		<stop  offset="1" style="stop-color:#FFFFFF;stop-opacity:0"/>
	</linearGradient>
	<path opacity="0.9" fill="url(#SVGID_7_)" enable-background="new    " d="M84.465,400.079c1.42-1.421,14.109,0.609,8.222-9.136
		l-30.149-30.555c-0.812-0.71-1.624-1.116-2.639-1.218l0,0c-0.913,0-1.726,0.508-2.537,1.218l-35.936,36.544
		c-4.974,5.583-7.41,11.573-5.279,11.37c2.132-0.203,9.949-6.395,12.689-6.294c1.32-0.203,2.64-0.304,4.264-0.304
		c3.146,0,5.482,0.406,8.527,0.914c3.857,0.305,7.613,0.609,10.659,1.015C57.259,404.85,73.399,402.414,84.465,400.079"/>
	
		<linearGradient id="SVGID_8_" gradientUnits="userSpaceOnUse" x1="463.5293" y1="1351.2362" x2="464.9458" y2="1351.2362" gradientTransform="matrix(0 -8.5908 -8.4718 0 11511.5293 4433.4907)">
		<stop  offset="0" style="stop-color:#FFFFFF"/>
		<stop  offset="1" style="stop-color:#FFFFFF;stop-opacity:0"/>
	</linearGradient>
	<path opacity="0.5" fill="url(#SVGID_8_)" enable-background="new    " d="M46.093,441.698l12.689,12.689
		c0.305,0.305,0.71,0.507,1.116,0.507s0.813-0.202,1.117-0.507l21.215-20.912C73.095,442.815,55.838,451.343,46.093,441.698z"/>
	<path d="M60.203,429.276c-2.842,0-5.177,2.334-5.177,5.075c0,2.842,2.335,5.178,5.177,5.178s5.075-2.336,5.075-5.178
		C65.38,431.61,63.045,429.276,60.203,429.276 M61.522,424.606v-2.437c0-3.045,0.609-8.933,1.32-12.688l2.232-10.862
		c0.711-3.654,1.117-6.497,1.117-8.121c0-4.669-2.132-7.411-5.786-7.411c-3.858,0-5.786,2.639-5.786,8.121
		c0,1.726,0,1.726,0.913,7.207l1.726,10.456c0.609,3.451,1.218,10.252,1.218,13.297v2.538L61.522,424.606"/>
</g>
<g id="disabled_1_" transform="translate(0,-352.36218)" opacity="0.2">
	<path fill="#AFAFAF" d="M60,467.685c-1.421,0-2.741-0.508-3.756-1.522L6.199,416.118c-2.03-2.03-2.03-5.482,0-7.512l50.045-50.045
		c1.015-1.015,2.335-1.522,3.756-1.522c1.319,0,2.741,0.508,3.756,1.522l50.045,50.045c2.03,2.03,2.03,5.482,0,7.512l-50.045,50.045
		C62.843,467.178,61.422,467.685,60,467.685z"/>
	
		<linearGradient id="SVGID_9_" gradientUnits="userSpaceOnUse" x1="-177.1387" y1="770.6024" x2="-177.1387" y2="791.2284" gradientTransform="matrix(5.3152 0 0 5.3152 1001.5343 -3738.3828)">
		<stop  offset="0" style="stop-color:#FFFFFF"/>
		<stop  offset="1" style="stop-color:#CFCFCF"/>
	</linearGradient>
	<path fill="url(#SVGID_9_)" d="M60,467.178c-1.421,0-2.741-0.508-3.756-1.522L6.707,416.118c-2.03-2.03-2.03-5.482,0-7.512
		l49.538-49.537c1.015-1.015,2.335-1.522,3.756-1.522c1.319,0,2.741,0.507,3.756,1.522l49.537,49.537c2.03,2.03,2.03,5.482,0,7.512
		l-49.537,49.537C62.843,466.67,61.422,467.178,60,467.178z"/>
	<path d="M63.452,463.828l48.015-48.015c1.928-1.929,1.928-4.974,0-6.903l-48.015-48.015c-2.64-2.538-4.365-2.436-6.904,0
		L8.433,409.012c-1.929,1.929-1.929,4.974,0,6.903l48.015,47.913C58.477,465.757,61.522,465.757,63.452,463.828z"/>
	
		<linearGradient id="SVGID_10_" gradientUnits="userSpaceOnUse" x1="-748.5654" y1="2519.6182" x2="-750.0527" y2="2520.189" gradientTransform="matrix(17.954 -17.954 17.954 17.954 -31732.1973 -58276)">
		<stop  offset="0" style="stop-color:#FFED00"/>
		<stop  offset="1" style="stop-color:#FFA700"/>
	</linearGradient>
	<path fill="url(#SVGID_10_)" d="M62.741,452.864l38.37-37.863c2.641-2.74,2.641-2.74,0-5.38l-38.269-37.762
		c-2.64-2.842-2.741-2.842-5.481,0l-38.27,37.864c-2.639,2.842-2.741,2.842,0,5.38l38.27,37.761
		C60,455.707,60,455.605,62.741,452.864z"/>
	
		<linearGradient id="SVGID_11_" gradientUnits="userSpaceOnUse" x1="-133.9146" y1="1055.4188" x2="-129.6617" y2="1055.4188" gradientTransform="matrix(0 19.3106 19.0432 0 -20043.7734 2940.4629)">
		<stop  offset="0" style="stop-color:#FFFFFF"/>
		<stop  offset="0.5" style="stop-color:#FFFFFF;stop-opacity:0.3"/>
		<stop  offset="1" style="stop-color:#FFFFFF;stop-opacity:0"/>
	</linearGradient>
	<path opacity="0.9" fill="url(#SVGID_11_)" enable-background="new    " d="M84.465,400.079c1.42-1.421,14.109,0.609,8.222-9.136
		l-30.149-30.555c-0.812-0.71-1.624-1.116-2.639-1.218l0,0c-0.913,0-1.726,0.508-2.537,1.218l-35.936,36.544
		c-4.974,5.583-7.41,11.573-5.279,11.37c2.132-0.203,9.949-6.395,12.689-6.294c1.32-0.203,2.64-0.304,4.264-0.304
		c3.146,0,5.482,0.406,8.527,0.914c3.857,0.305,7.613,0.609,10.659,1.015C57.259,404.85,73.399,402.414,84.465,400.079"/>
	
		<linearGradient id="SVGID_12_" gradientUnits="userSpaceOnUse" x1="463.5293" y1="1351.2362" x2="464.9458" y2="1351.2362" gradientTransform="matrix(0 -8.5908 -8.4718 0 11511.5293 4433.4907)">
		<stop  offset="0" style="stop-color:#FFFFFF"/>
		<stop  offset="1" style="stop-color:#FFFFFF;stop-opacity:0"/>
	</linearGradient>
	<path opacity="0.5" fill="url(#SVGID_12_)" enable-background="new    " d="M46.093,441.698l12.689,12.689
		c0.305,0.305,0.71,0.507,1.116,0.507s0.813-0.202,1.117-0.507l21.215-20.912C73.095,442.815,55.838,451.343,46.093,441.698z"/>
	<path d="M60.203,429.276c-2.842,0-5.177,2.334-5.177,5.075c0,2.842,2.335,5.178,5.177,5.178s5.075-2.336,5.075-5.178
		C65.38,431.61,63.045,429.276,60.203,429.276 M61.522,424.606v-2.437c0-3.045,0.609-8.933,1.32-12.688l2.232-10.862
		c0.711-3.654,1.117-6.497,1.117-8.121c0-4.669-2.132-7.411-5.786-7.411c-3.858,0-5.786,2.639-5.786,8.121
		c0,1.726,0,1.726,0.913,7.207l1.726,10.456c0.609,3.451,1.218,10.252,1.218,13.297v2.538L61.522,424.606"/>
</g>
</svg>
