<?xml version="1.0" encoding="utf-8"?>
<!-- Generator: Adobe Illustrator 18.1.1, SVG Export Plug-In . SVG Version: 6.00 Build 0)  -->
<svg version="1.1" xmlns="http://www.w3.org/2000/svg" xmlns:xlink="http://www.w3.org/1999/xlink" x="0px" y="0px" width="120px"
	 height="120px" viewBox="0 0 120 120" enable-background="new 0 0 120 120" xml:space="preserve">
<g id="Layer_4" display="none">
	<circle display="inline" opacity="0.5" fill="#DF1F26" cx="60" cy="60" r="60"/>
	<rect x="6.5" y="6.5" display="inline" opacity="0.5" fill="#3B4FA1" width="107" height="107"/>
</g>
<g id="normal">
	<g>
		
			<radialGradient id="SVGID_1_" cx="86.5189" cy="265.1933" r="13.7842" gradientTransform="matrix(1.4167 0 0 -1.4167 -23.0845 435.4535)" gradientUnits="userSpaceOnUse">
			<stop  offset="0" style="stop-color:#FFFFFF"/>
			<stop  offset="1" style="stop-color:#FFFFFF"/>
		</radialGradient>
		<path fill="url(#SVGID_1_)" d="M91.259,58.998l8.041,0.802l0.106,0.052L98.28,72.398l-9.166-1.073l-6.061-0.912l0.324-4.878
			l0.052-0.162v-0.644l0.052-0.43v-0.372l0.106-1.501l0.056-0.43v-0.372l0.158-3.594L91.259,58.998"/>
		
			<radialGradient id="SVGID_2_" cx="30.3758" cy="301.6218" r="2.7932" gradientTransform="matrix(1.4167 0 0 -1.4167 -23.0845 435.4535)" gradientUnits="userSpaceOnUse">
			<stop  offset="0" style="stop-color:#FFFFFF"/>
			<stop  offset="1" style="stop-color:#9D9D9D"/>
		</radialGradient>
		<path fill="url(#SVGID_2_)" d="M22.525,10.477l-0.538,0.912l-0.43,0.32l-1.821,0.272c-0.825,0-1.307-0.091-1.449-0.272
			l-0.692-0.64c-0.252-0.214-0.447-0.754-0.596-1.611l0.376-1.607c0.501-0.786,0.983-1.232,1.449-1.339l1.445-0.158
			c0.572,0.035,1.073,0.249,1.501,0.64c1.002,0.858,1.268,1.983,0.806,3.377L22.525,10.477"/>
		
			<radialGradient id="SVGID_3_" cx="32.3566" cy="300.0155" r="10.6455" gradientTransform="matrix(1.4167 0 0 -1.4167 -23.0845 435.4535)" gradientUnits="userSpaceOnUse">
			<stop  offset="0" style="stop-color:#B5B5B5"/>
			<stop  offset="1" style="stop-color:#B5B5B5"/>
		</radialGradient>
		<path fill="url(#SVGID_3_)" d="M22.525,10.477l0.052-0.11l6.485-0.214l8.526,0.43h-0.162l-9.862-0.324L22.525,10.477"/>
		
			<radialGradient id="SVGID_4_" cx="42.7929" cy="299.9052" r="14.2761" gradientTransform="matrix(1.4167 0 0 -1.4167 -23.0845 435.4535)" gradientUnits="userSpaceOnUse">
			<stop  offset="0" style="stop-color:#FFFFFF"/>
			<stop  offset="1" style="stop-color:#FFFFFF"/>
		</radialGradient>
		<path fill="url(#SVGID_4_)" d="M22.525,10.477l5.04-0.214l9.862,0.32l0.052,0.324l0.052,5.04v7.025v0.158v0.162l-6.271-0.434
			h-2.145l-4.344,0.056l-2.839,0.214l-0.376-11.421l0.43-0.324L22.525,10.477"/>
		
			<radialGradient id="SVGID_5_" cx="50.8319" cy="298.8385" r="11.2655" gradientTransform="matrix(1.4167 0 0 -1.4167 -23.0845 435.4535)" gradientUnits="userSpaceOnUse">
			<stop  offset="0" style="stop-color:#000000"/>
			<stop  offset="1" style="stop-color:#000000"/>
		</radialGradient>
		<path fill="url(#SVGID_5_)" d="M37.589,10.581l5.899,0.644l5.418,0.912l-0.162,12.866l-0.052,0.162l-4.878-1.02l-6.165-0.806
			l-0.11-0.052v-0.158v-0.162v-7.025l-0.052-5.04l-0.052-0.32h0.154"/>
		
			<radialGradient id="SVGID_6_" cx="30.4496" cy="299.6017" r="70.0575" gradientTransform="matrix(1.4167 0 0 -1.4167 -23.0845 435.4535)" gradientUnits="userSpaceOnUse">
			<stop  offset="0" style="stop-color:#BCBCBC"/>
			<stop  offset="1" style="stop-color:#9E9E9E"/>
		</radialGradient>
		<path fill="url(#SVGID_6_)" d="M21.558,11.707l0.376,11.417l0.372,12.117l0.162,0.056l0.268,11.687l0.376,11.311l0.268-0.052
			l0.912,27.61v0.268l0.162,4.936c0,0.252-0.391,0.447-1.178,0.592h-0.644l-1.126-0.32l-0.162-0.434l-0.158-4.716l-0.052-0.268
			l-2.847-74.203c0.143,0.181,0.628,0.272,1.449,0.272L21.558,11.707"/>
		
			<radialGradient id="SVGID_7_" cx="42.7809" cy="299.9305" r="8.317" gradientTransform="matrix(1.4167 0 0 -1.4167 -23.0845 435.4535)" gradientUnits="userSpaceOnUse">
			<stop  offset="0" style="stop-color:#131313"/>
			<stop  offset="1" style="stop-color:#111111"/>
		</radialGradient>
		<path fill="url(#SVGID_7_)" d="M41.609,10.853l7.347,1.232l-0.05,0.056l-5.418-0.915l-5.899-0.644L41.609,10.853"/>
		
			<radialGradient id="SVGID_8_" cx="58.1269" cy="297.3585" r="10.7234" gradientTransform="matrix(1.4167 0 0 -1.4167 -23.0845 435.4535)" gradientUnits="userSpaceOnUse">
			<stop  offset="0" style="stop-color:#E7E7E7"/>
			<stop  offset="1" style="stop-color:#DEDEDE"/>
		</radialGradient>
		<path fill="url(#SVGID_8_)" d="M48.958,12.084l10.292,2.145l-0.43,13.452l-9.972-2.465l-0.158-0.052l0.048-0.158L48.9,12.14
			L48.958,12.084"/>
		
			<radialGradient id="SVGID_9_" cx="58.3315" cy="297.4182" r="7.6377" gradientTransform="matrix(1.4167 0 0 -1.4167 -23.0845 435.4535)" gradientUnits="userSpaceOnUse">
			<stop  offset="0" style="stop-color:#B6B6B6"/>
			<stop  offset="1" style="stop-color:#B5B5B5"/>
		</radialGradient>
		<path fill="url(#SVGID_9_)" d="M48.958,12.084l10.347,2.089l-0.056,0.052L48.958,12.084"/>
		
			<radialGradient id="SVGID_10_" cx="66.9018" cy="296.087" r="12.2674" gradientTransform="matrix(1.4167 0 0 -1.4167 -23.0845 435.4535)" gradientUnits="userSpaceOnUse">
			<stop  offset="0" style="stop-color:#000000"/>
			<stop  offset="1" style="stop-color:#000000"/>
		</radialGradient>
		<path fill="url(#SVGID_10_)" d="M59.305,14.173l12.385,1.879l-0.696,13.886l-12.065-2.145l-0.11-0.106l0.43-13.456L59.305,14.173"
			/>
		
			<radialGradient id="SVGID_11_" cx="58.3274" cy="297.4428" r="8.8675" gradientTransform="matrix(1.4167 0 0 -1.4167 -23.0845 435.4535)" gradientUnits="userSpaceOnUse">
			<stop  offset="0" style="stop-color:#0F0F0F"/>
			<stop  offset="1" style="stop-color:#0D0D0D"/>
		</radialGradient>
		<path fill="url(#SVGID_11_)" d="M59.305,14.173l12.546,1.769l-0.162,0.11L59.305,14.173"/>
		
			<radialGradient id="SVGID_12_" cx="75.7139" cy="295.26" r="8.8571" gradientTransform="matrix(1.4167 0 0 -1.4167 -23.0845 435.4535)" gradientUnits="userSpaceOnUse">
			<stop  offset="0" style="stop-color:#B7B7B7"/>
			<stop  offset="1" style="stop-color:#B6B6B6"/>
		</radialGradient>
		<path fill="url(#SVGID_12_)" d="M71.852,15.943l14.526,1.449l-0.21,0.106L71.69,16.053L71.852,15.943"/>
		
			<radialGradient id="SVGID_13_" cx="77.1275" cy="295.0515" r="13.8507" gradientTransform="matrix(1.4167 0 0 -1.4167 -23.0845 435.4535)" gradientUnits="userSpaceOnUse">
			<stop  offset="0" style="stop-color:#FFFFFF"/>
			<stop  offset="1" style="stop-color:#FFFFFF"/>
		</radialGradient>
		<path fill="url(#SVGID_13_)" d="M86.163,17.496L85.2,31.758l-14.1-1.769l-0.106-0.056l0.696-13.886L86.163,17.496"/>
		
			<radialGradient id="SVGID_14_" cx="77.1262" cy="295.0501" r="10.1113" gradientTransform="matrix(1.4167 0 0 -1.4167 -23.0845 435.4535)" gradientUnits="userSpaceOnUse">
			<stop  offset="0" style="stop-color:#D9D9D9"/>
			<stop  offset="1" style="stop-color:#D8D8D8"/>
		</radialGradient>
		<path fill="url(#SVGID_14_)" d="M86.163,17.496l0.214-0.106l0.11,0.214l-0.11,0.052l-0.324,4.288v0.214l-0.052,0.534v0.538
			l-0.052,0.268l-0.052,0.754v0.158l-0.052,0.592v0.482l-0.052,0.32l-0.32,5.845l-0.272,0.106L86.163,17.496"/>
		
			<radialGradient id="SVGID_15_" cx="77.4716" cy="295.0123" r="11.5678" gradientTransform="matrix(1.4167 0 0 -1.4167 -23.0845 435.4535)" gradientUnits="userSpaceOnUse">
			<stop  offset="0" style="stop-color:#0C0C0C"/>
			<stop  offset="1" style="stop-color:#0B0B0B"/>
		</radialGradient>
		<path fill="url(#SVGID_15_)" d="M86.487,17.606l16.509,1.073l-0.052,0.106L86.377,17.66L86.487,17.606"/>
		
			<radialGradient id="SVGID_16_" cx="88.068" cy="284.0931" r="10.197" gradientTransform="matrix(1.4167 0 0 -1.4167 -23.0845 435.4535)" gradientUnits="userSpaceOnUse">
			<stop  offset="0" style="stop-color:#1F1F1F"/>
			<stop  offset="1" style="stop-color:#1E1E1E"/>
		</radialGradient>
		<path fill="url(#SVGID_16_)" d="M103,18.679l-1.235,14.15l-0.11,0.11l1.287-14.154L103,18.679"/>
		
			<radialGradient id="SVGID_17_" cx="88.99" cy="294.148" r="15.3739" gradientTransform="matrix(1.4167 0 0 -1.4167 -23.0845 435.4535)" gradientUnits="userSpaceOnUse">
			<stop  offset="0" style="stop-color:#050505"/>
			<stop  offset="1" style="stop-color:#020202"/>
		</radialGradient>
		<path fill="url(#SVGID_17_)" d="M86.377,17.658l16.567,1.126l-1.284,14.154v0.052l-10.399-0.75l-5.789-0.592l0.32-5.842
			l0.052-0.324v-0.482l0.052-0.588v-0.162l0.052-0.754L86,23.23v-0.534l0.052-0.538V21.95L86.377,17.658"/>
		
			<radialGradient id="SVGID_18_" cx="32.6423" cy="291.1562" r="13.5202" gradientTransform="matrix(1.4167 0 0 -1.4167 -23.0845 435.4535)" gradientUnits="userSpaceOnUse">
			<stop  offset="0" style="stop-color:#121212"/>
			<stop  offset="1" style="stop-color:#050505"/>
		</radialGradient>
		<path fill="url(#SVGID_18_)" d="M21.934,23.128l2.843-0.214l4.344-0.052h2.141l6.275,0.43l0.11,0.052v10.509v1.235v0.158
			l-0.052,0.214h-0.162h-0.11l-0.534-0.052l-0.534-0.052L35.664,35.3l-0.534-0.052l-0.596-0.052l-0.912-0.052l-0.912-0.056
			l-0.964-0.052l-2.789-0.052h-0.106l-4.024,0.052l-2.361,0.268l-0.158-0.052L21.934,23.128"/>
		
			<radialGradient id="SVGID_19_" cx="44.8308" cy="290.7809" r="11.5133" gradientTransform="matrix(1.4167 0 0 -1.4167 -23.0845 435.4535)" gradientUnits="userSpaceOnUse">
			<stop  offset="0" style="stop-color:#FFFFFF"/>
			<stop  offset="1" style="stop-color:#F9F9F9"/>
		</radialGradient>
		<path fill="url(#SVGID_19_)" d="M37.643,23.343l6.165,0.802l4.878,1.02l0.162,0.052l-0.214,12.117v0.162v0.106l-5.04-1.178
			l-5.842-0.912h-0.162V35.46l0.052-1.607V23.343"/>
		
			<radialGradient id="SVGID_20_" cx="53.3242" cy="280.0264" r="10.0359" gradientTransform="matrix(1.4167 0 0 -1.4167 -23.0845 435.4535)" gradientUnits="userSpaceOnUse">
			<stop  offset="0" style="stop-color:#020202"/>
			<stop  offset="1" style="stop-color:#010101"/>
		</radialGradient>
		<path fill="url(#SVGID_20_)" d="M48.848,25.217l9.972,2.465l0.11,0.11l-0.372,12.704l-9.756-2.789H48.75l-0.11-0.106v-0.11v-0.162
			L48.848,25.217"/>
		
			<radialGradient id="SVGID_21_" cx="66.5244" cy="286.4365" r="11.7139" gradientTransform="matrix(1.4167 0 0 -1.4167 -23.0845 435.4535)" gradientUnits="userSpaceOnUse">
			<stop  offset="0" style="stop-color:#FFFFFF"/>
			<stop  offset="1" style="stop-color:#F8F8F8"/>
		</radialGradient>
		<path fill="url(#SVGID_21_)" d="M58.926,27.791l12.068,2.145l0.106,0.052l-0.644,13.028l-11.795-2.411L58.609,40.5h-0.052
			L58.926,27.791"/>
		
			<radialGradient id="SVGID_22_" cx="76.531" cy="285.1904" r="13.2926" gradientTransform="matrix(1.4167 0 0 -1.4167 -23.0845 435.4535)" gradientUnits="userSpaceOnUse">
			<stop  offset="0" style="stop-color:#010101"/>
			<stop  offset="1" style="stop-color:#000000"/>
		</radialGradient>
		<path fill="url(#SVGID_22_)" d="M85.2,31.76l-0.806,13.404l-13.776-2.037l-0.11-0.056l-0.052-0.052L71.1,29.99L85.2,31.76"/>
		
			<radialGradient id="SVGID_23_" cx="75.8761" cy="275.5114" r="9.8086" gradientTransform="matrix(1.4167 0 0 -1.4167 -23.0845 435.4535)" gradientUnits="userSpaceOnUse">
			<stop  offset="0" style="stop-color:#060606"/>
			<stop  offset="1" style="stop-color:#050505"/>
		</radialGradient>
		<path fill="url(#SVGID_23_)" d="M85.2,31.76l0.272-0.106l-0.218,3.644l-0.052,0.7v0.43l-0.052,0.372l-0.106,1.501v0.378
			l-0.052,0.43v0.696l-0.056,0.11l-0.32,5.146l-0.214,0.11L85.2,31.76"/>
		
			<radialGradient id="SVGID_24_" cx="88.157" cy="284.212" r="9.9517" gradientTransform="matrix(1.4167 0 0 -1.4167 -23.0845 435.4535)" gradientUnits="userSpaceOnUse">
			<stop  offset="0" style="stop-color:#8E8E8E"/>
			<stop  offset="1" style="stop-color:#8E8E8E"/>
		</radialGradient>
		<path fill="url(#SVGID_24_)" d="M101.765,32.827l-1.178,13.78l-0.214,0.056l1.287-13.676v-0.052L101.765,32.827"/>
		
			<radialGradient id="SVGID_25_" cx="88.1371" cy="284.1157" r="14.8019" gradientTransform="matrix(1.4167 0 0 -1.4167 -23.0845 435.4535)" gradientUnits="userSpaceOnUse">
			<stop  offset="0" style="stop-color:#FFFFFF"/>
			<stop  offset="1" style="stop-color:#FFFFFF"/>
		</radialGradient>
		<path fill="url(#SVGID_25_)" d="M91.259,32.242l10.398,0.75l-1.287,13.676h-0.048l-0.644-0.052l-0.538-0.056l-0.59-0.056
			l-0.596-0.052l-0.588-0.052l-0.538-0.052l-0.588-0.052l-0.596-0.056l-0.588-0.048l-0.592-0.056l-0.592-0.052l-0.586-0.058
			l-0.534-0.052l-0.592-0.052l-0.592-0.056l-0.592-0.048l-0.534-0.056l-0.482-0.052l-0.376-0.052H89.43l-0.376-0.056l-0.482-0.052
			l-0.43-0.052l-0.486-0.052l-0.426-0.056l-0.486-0.052l-0.482-0.052l-0.43-0.052l-0.482-0.052l-0.376-0.052h-0.052l-0.32-0.052
			l0.32-5.15l0.052-0.106v-0.696l0.056-0.43V38.32l0.106-1.501l0.052-0.372v-0.43l0.052-0.7l0.214-3.648L91.259,32.242"/>
		
			<radialGradient id="SVGID_26_" cx="42.9869" cy="282.3234" r="13.5547" gradientTransform="matrix(1.4167 0 0 -1.4167 -23.0845 435.4535)" gradientUnits="userSpaceOnUse">
			<stop  offset="0" style="stop-color:#FFFFFF"/>
			<stop  offset="1" style="stop-color:#FFFFFF"/>
		</radialGradient>
		<path fill="url(#SVGID_26_)" d="M28.853,34.978h0.106l2.789,0.052l0.964,0.052l0.912,0.052l0.915,0.052l0.592,0.052l0.534,0.056
			l0.592,0.052l0.534,0.056l0.534,0.052h0.11l0.162,0.052h0.158v0.052v0.214l0.052,3.59v7.669v0.162v0.11l-4.612-0.486l-2.681-0.106
			l-5.15,0.052l-2.623,0.214L22.468,35.29L28.853,34.978"/>
		
			<radialGradient id="SVGID_27_" cx="42.9125" cy="282.3633" r="8.6195" gradientTransform="matrix(1.4167 0 0 -1.4167 -23.0845 435.4535)" gradientUnits="userSpaceOnUse">
			<stop  offset="0" style="stop-color:#010101"/>
			<stop  offset="1" style="stop-color:#010101"/>
		</radialGradient>
		<path fill="url(#SVGID_27_)" d="M37.643,33.853l-0.052,1.607l0.052-0.214v-0.162V33.853"/>
		
			<radialGradient id="SVGID_28_" cx="32.8115" cy="42.2761" r="10.2654" gradientTransform="matrix(1.4167 0 0 1.4167 -22.9281 -24.5648)" gradientUnits="userSpaceOnUse">
			<stop  offset="0" style="stop-color:#BBBBBB"/>
			<stop  offset="1" style="stop-color:#BBBBBB"/>
		</radialGradient>
		<path fill="url(#SVGID_28_)" d="M24.829,35.03l4.024-0.052l-6.383,0.324L24.829,35.03 M37.589,35.46v0.052l-0.162-0.052H37.589"/>
		
			<radialGradient id="SVGID_29_" cx="50.7282" cy="280.8508" r="10.3454" gradientTransform="matrix(1.4167 0 0 -1.4167 -23.0845 435.4535)" gradientUnits="userSpaceOnUse">
			<stop  offset="0" style="stop-color:#000000"/>
			<stop  offset="1" style="stop-color:#000000"/>
		</radialGradient>
		<path fill="url(#SVGID_29_)" d="M37.751,35.512l5.842,0.915l5.04,1.178l0.106,0.106l-0.162,11.903l-0.048,0.052l-6.705-1.659
			l-3.91-0.64l-0.114-0.052v-0.11v-0.162v-7.669l-0.048-3.59V35.57V35.512"/>
		
			<radialGradient id="SVGID_30_" cx="57.7483" cy="278.8454" r="9.6873" gradientTransform="matrix(1.4167 0 0 -1.4167 -23.0845 435.4535)" gradientUnits="userSpaceOnUse">
			<stop  offset="0" style="stop-color:#E3E3E3"/>
			<stop  offset="1" style="stop-color:#DADADA"/>
		</radialGradient>
		<path fill="url(#SVGID_30_)" d="M48.74,37.711h0.056l9.756,2.789h0.052l0.052,0.106l-0.32,12.279v0.052l-9.652-3.163l-0.114-0.052
			l-0.048-0.056l0.048-0.052L48.74,37.711"/>
		
			<radialGradient id="SVGID_31_" cx="66.1592" cy="277.1023" r="11.2108" gradientTransform="matrix(1.4167 0 0 -1.4167 -23.0845 435.4535)" gradientUnits="userSpaceOnUse">
			<stop  offset="0" style="stop-color:#000000"/>
			<stop  offset="1" style="stop-color:#000000"/>
		</radialGradient>
		<path fill="url(#SVGID_31_)" d="M58.662,40.606l11.793,2.413l0.052,0.056l0.11,0.052l-0.644,12.651l-11.525-2.733l-0.106-0.11
			v-0.052L58.662,40.606"/>
		
			<radialGradient id="SVGID_32_" cx="80.1751" cy="49.8182" r="7.0661" gradientTransform="matrix(1.4167 0 0 1.4167 -22.9281 -24.5648)" gradientUnits="userSpaceOnUse">
			<stop  offset="0" style="stop-color:#050505"/>
			<stop  offset="1" style="stop-color:#040404"/>
		</radialGradient>
		<path fill="url(#SVGID_32_)" d="M84.608,45.058l0.324,0.052h-0.214L84.608,45.058 M100.587,46.609l-0.052,0.11l-0.162-0.052
			L100.587,46.609"/>
		
			<radialGradient id="SVGID_33_" cx="75.9531" cy="275.6589" r="9.3314" gradientTransform="matrix(1.4167 0 0 -1.4167 -23.0845 435.4535)" gradientUnits="userSpaceOnUse">
			<stop  offset="0" style="stop-color:#D6D6D6"/>
			<stop  offset="1" style="stop-color:#D5D5D5"/>
		</radialGradient>
		<path fill="url(#SVGID_33_)" d="M84.608,45.058l0.11,0.052l-0.268,3.486l-0.052,0.644v0.426l-0.052,0.376l-0.056,0.806
			l-0.052,0.692v0.43l-0.052,0.376v0.696l-0.052,0.106l-0.32,4.882l-0.214,0.11l0.806-12.974L84.608,45.058"/>
		
			<radialGradient id="SVGID_34_" cx="87.2947" cy="274.4273" r="14.2555" gradientTransform="matrix(1.4167 0 0 -1.4167 -23.0845 435.4535)" gradientUnits="userSpaceOnUse">
			<stop  offset="0" style="stop-color:#020202"/>
			<stop  offset="1" style="stop-color:#000000"/>
		</radialGradient>
		<path fill="url(#SVGID_34_)" d="M84.718,45.112h0.21h0.056l0.372,0.052l0.482,0.052l0.43,0.052l0.486,0.052l0.482,0.052
			l0.426,0.052l0.486,0.052l0.43,0.056l0.482,0.052l0.376,0.052h0.158l0.376,0.056l0.486,0.052l0.53,0.052l0.596,0.052l0.588,0.052
			l0.592,0.056l0.534,0.052l0.592,0.052l0.592,0.052l0.592,0.052l0.592,0.052l0.592,0.052l0.588,0.056l0.538,0.052l0.588,0.052
			l0.596,0.052l0.588,0.052l0.538,0.052l0.644,0.056h0.052l0.162,0.052l-1.239,13.08l-8.041-0.806l-7.453-0.964l0.324-4.878
			l0.052-0.11V52.32l0.052-0.376v-0.426l0.052-0.696l0.052-0.806l0.056-0.376v-0.426l0.048-0.644L84.718,45.112"/>
		
			<radialGradient id="SVGID_35_" cx="75.9531" cy="275.6575" r="12.7728" gradientTransform="matrix(1.4167 0 0 -1.4167 -23.0845 435.4535)" gradientUnits="userSpaceOnUse">
			<stop  offset="0" style="stop-color:#FFFFFF"/>
			<stop  offset="1" style="stop-color:#FFFFFF"/>
		</radialGradient>
		<path fill="url(#SVGID_35_)" d="M70.616,43.127l13.776,2.037l-0.806,12.974l-13.51-2.307l-0.052-0.052h-0.052L70.616,43.127"/>
		
			<radialGradient id="SVGID_36_" cx="86.479" cy="265.2837" r="9.277" gradientTransform="matrix(1.4167 0 0 -1.4167 -23.0845 435.4535)" gradientUnits="userSpaceOnUse">
			<stop  offset="0" style="stop-color:#232323"/>
			<stop  offset="1" style="stop-color:#212121"/>
		</radialGradient>
		<path fill="url(#SVGID_36_)" d="M100.587,46.609l-1.126,13.028l-0.056,0.214L99.3,59.799l1.235-13.08L100.587,46.609"/>
		
			<radialGradient id="SVGID_37_" cx="33.1896" cy="274.319" r="12.9295" gradientTransform="matrix(1.4167 0 0 -1.4167 -23.0845 435.4535)" gradientUnits="userSpaceOnUse">
			<stop  offset="0" style="stop-color:#090909"/>
			<stop  offset="1" style="stop-color:#020202"/>
		</radialGradient>
		<path fill="url(#SVGID_37_)" d="M22.739,46.985l2.623-0.214l5.146-0.052l2.685,0.11l4.612,0.482l0.11,0.052v10.939v0.162v0.158
			l-4.292-0.482l-3.109-0.162L25.85,58.03l-2.465,0.214l-0.268,0.052L22.739,46.985"/>
		
			<radialGradient id="SVGID_38_" cx="44.9492" cy="273.7584" r="11.1414" gradientTransform="matrix(1.4167 0 0 -1.4167 -23.0845 435.4535)" gradientUnits="userSpaceOnUse">
			<stop  offset="0" style="stop-color:#FFFFFF"/>
			<stop  offset="1" style="stop-color:#F8F8F8"/>
		</radialGradient>
		<path fill="url(#SVGID_38_)" d="M41.825,48.005l6.705,1.659l0.048,0.052l0.114,0.052L48.53,61.079v0.218l-4.02-1.235l-6.595-1.449
			V58.45v-0.162V47.353L41.825,48.005"/>
		
			<radialGradient id="SVGID_39_" cx="53.0014" cy="263.1985" r="9.4854" gradientTransform="matrix(1.4167 0 0 -1.4167 -23.0845 435.4535)" gradientUnits="userSpaceOnUse">
			<stop  offset="0" style="stop-color:#030303"/>
			<stop  offset="1" style="stop-color:#020202"/>
		</radialGradient>
		<path fill="url(#SVGID_39_)" d="M48.69,49.774l9.652,3.163l0.106,0.11l-0.372,11.687v0.052l-9.542-3.486v-0.214L48.69,49.774"/>
		
			<radialGradient id="SVGID_40_" cx="65.8124" cy="268.1886" r="10.7447" gradientTransform="matrix(1.4167 0 0 -1.4167 -23.0845 435.4535)" gradientUnits="userSpaceOnUse">
			<stop  offset="0" style="stop-color:#FFFFFF"/>
			<stop  offset="1" style="stop-color:#F4F4F4"/>
		</radialGradient>
		<path fill="url(#SVGID_40_)" d="M69.973,55.779h0.052l0.052,0.052l-0.588,12.065l-8.902-2.251l-2.519-0.858v-0.052l0.372-11.687
			L69.973,55.779"/>
		
			<radialGradient id="SVGID_41_" cx="75.4058" cy="266.5724" r="12.2793" gradientTransform="matrix(1.4167 0 0 -1.4167 -23.0845 435.4535)" gradientUnits="userSpaceOnUse">
			<stop  offset="0" style="stop-color:#000000"/>
			<stop  offset="1" style="stop-color:#000000"/>
		</radialGradient>
		<path fill="url(#SVGID_41_)" d="M70.082,55.831l13.51,2.307l-0.806,12.327l-13.238-2.571h-0.052L70.082,55.831"/>
		
			<radialGradient id="SVGID_42_" cx="74.7945" cy="257.6287" r="9.0904" gradientTransform="matrix(1.4167 0 0 -1.4167 -23.0845 435.4535)" gradientUnits="userSpaceOnUse">
			<stop  offset="0" style="stop-color:#070707"/>
			<stop  offset="1" style="stop-color:#060606"/>
		</radialGradient>
		<path fill="url(#SVGID_42_)" d="M83.806,58.03l-0.162,3.594V62l-0.052,0.426l-0.11,1.501V64.3l-0.052,0.434v0.644l-0.052,0.158
			l-0.32,4.878l-0.272,0.052l0.806-12.327L83.806,58.03"/>
		
			<radialGradient id="SVGID_43_" cx="86.5442" cy="265.3129" r="9.087" gradientTransform="matrix(1.4167 0 0 -1.4167 -23.0845 435.4535)" gradientUnits="userSpaceOnUse">
			<stop  offset="0" style="stop-color:#8F8F8F"/>
			<stop  offset="1" style="stop-color:#8F8F8F"/>
		</radialGradient>
		<path fill="url(#SVGID_43_)" d="M99.406,59.851l0.052-0.214l0.11,0.056l-1.126,12.223l-0.162,0.482L99.406,59.851"/>
		<path opacity="0.7882" fill="#FFFFFF" enable-background="new    " d="M21.29,9.296v0.268l-0.052,0.43l-0.268,0.056l-0.376-0.218
			v-0.59c0.285-0.285,0.501-0.285,0.644,0L21.29,9.296 M18.881,9.829c-0.395-0.925-0.289-1.322,0.32-1.178l0.162,0.644L18.881,9.829
			 M20.432,11.922h0.43l0.052,0.162v0.106v0.11v0.106v0.11v0.106v0.11v0.052l0.052,0.592v0.106v0.104v0.11v0.106v0.11v0.106v0.11
			v0.11v0.106v0.052l0.052,0.592v0.106v0.11v0.11v0.106v0.11v0.106v0.11v0.11v0.106v0.056l0.056,0.588v0.11v0.11v0.106v0.11v0.106
			v0.106v0.11v0.106v0.11v0.052l0.052,0.592v0.11v0.106v0.106v0.11v0.106v0.11v0.11v0.106v0.106v0.052l0.052,0.7v0.106v0.11v0.106
			v0.11v0.106v0.11v0.11v0.106v0.052l0.052,0.696v0.11v0.106v0.11v0.106v0.11v0.106v0.11v0.106v0.052l0.052,0.696v0.11v0.106v0.11
			v0.11v0.106v0.11v0.11v0.106v0.052l0.052,0.696v0.11v0.106v0.11v0.11v0.106v0.11v0.106v0.11v0.11v0.01l0.056,0.7v0.106v0.11v0.106
			v0.11v0.11v0.106v0.11v0.11v0.048l0.052,0.7v0.106v0.11v0.106v0.106v0.11v0.106v0.106v0.11v0.106v0.056l0.052,0.588v0.106v0.11
			v0.106v0.11v0.11v0.106v0.106v0.11v0.106v0.056l0.052,0.696v0.11v0.106v0.11v0.106v0.11v0.052l0.056,1.073l-0.056,1.02
			L20.432,11.922 M24.133,22.966l-2.145,0.162l-0.43-11.421c0.715-0.572,1.02-0.967,0.912-1.178l1.879-0.162L24.133,22.966
			 M21.614,35.192l-0.11-0.052l0.11-0.861V35.192 M22.793,46.183L22.418,35.46c0.039-0.249,0.501-0.339,1.397-0.268l-0.052,3.057
			L22.793,46.183"/>
		<path opacity="0.3686" fill="#FFFFFF" enable-background="new    " d="M21.29,9.296l-0.052-0.052
			c-0.143-0.463-0.447-0.447-0.912,0.052v0.534l0.75,0.376l0.214-0.11l-0.052-0.106l0.052-0.43V9.296 M18.881,9.829l0.106,0.11
			l0.106-0.11l0.218-0.426l0.21-0.056L19.417,8.76l-0.268-0.272l-0.538,0.214l-0.106,0.432L18.881,9.829 M18.987,10.047l-0.7-0.754
			c-0.071-0.252,0.143-0.592,0.644-1.016C19.97,8.741,19.985,9.332,18.987,10.047 M21.132,10.421l-1.126-0.482V9.245l0.912-0.538
			C21.629,8.885,21.704,9.457,21.132,10.421 M19.413,12.188v-0.104l0.272,0.106l0.21,8.041c0.04,0.896-0.015,1.397-0.158,1.501
			l-0.214-6.219v-0.11l-0.11-2.251v-0.104v-0.106v-0.11v-0.108v-0.106v-0.11v-0.104v-0.106V12.188 M21.076,12.942l-0.11,0.43
			l-0.052-0.592L21.076,12.942 M20.97,14.387l0.162,0.162l-0.11,0.43L20.97,14.387 M21.024,15.999l0.158,0.158l-0.106,0.43
			L21.024,15.999 M34.428,15.675l1.449,0.592l1.659,1.07l0.11,6.007l-5.522-0.43l-0.754-1.825l-0.588-10.509v-0.268l1.927,0.052
			L34.428,15.675 M21.076,17.606l0.162,0.158l-0.11,0.43L21.076,17.606 M21.132,19.213l0.158,0.162l-0.11,0.534L21.132,19.213
			 M71.528,20.663l4.554-0.218l4.024-0.75l4.344-1.339l0.372-0.964l1.393,0.158l-0.802,11.797l-1.178,2.303l-13.084-1.663
			l-0.106-0.106L71.528,20.663 M21.182,20.824l0.162,0.158l-0.106,0.538L21.182,20.824 M24.99,22.914l0.324-11.259l-0.108-1.287
			H26.6l-0.32,12.546h-1.02H24.99 M21.29,23.128l-0.052-0.696L21.4,22.7L21.29,23.128 M38.876,23.451l-1.02,2.089h-0.162
			l-0.048-2.199L38.876,23.451 M21.344,24.735l-0.052-0.696l0.162,0.268L21.344,24.735 M21.344,25.756l0.162,0.158L21.4,26.452
			L21.344,25.756 M21.452,28.059L21.4,27.364l0.162,0.272L21.452,28.059 M21.452,29.079l0.162,0.162l-0.11,0.43L21.452,29.079
			 M21.558,31.382l-0.052-0.696l0.158,0.268L21.558,31.382 M21.614,33.047l0.106,2.199l-0.106-0.052v-0.915l-0.056-0.21
			L21.614,33.047l-0.056-1.073l0.162,0.644L21.614,33.047 M21.72,35.836l0.11,0.32l-0.11,0.214l-0.052-0.052v-0.324L21.72,35.836
			 M21.776,38.087l-0.11-0.052l0.11-0.538l0.106,0.214L21.776,38.087 M21.826,39.694L21.72,39.37l0.106-0.158l0.11,0.21
			L21.826,39.694 M21.826,44.682l0.11,0.052v-0.428c0.098,0,0.154,0.052,0.158,0.162l-0.106,0.43c-0.181,0.035-0.181,0.32,0,0.858
			l0.158,0.43l-0.106,0.588l0.324,6.381l0.158,5.36c0.035,0.572-0.015,0.896-0.158,0.964l-1.02-18.98l-1.126-23.482l-0.162-4.506
			c-0.106-0.463-0.035-0.659,0.214-0.588L21.826,44.682 M26.116,35.14l-0.644,11.631l-1.178,0.11h-0.214l0.592-11.741H26.116"/>
		<path opacity="0.5765" fill="#FFFFFF" enable-background="new    " d="M18.881,9.829l-0.376-0.696l0.106-0.43l0.538-0.214
			l0.268,0.272l0.106,0.588l-0.212,0.054l-0.218,0.426l-0.106,0.11L18.881,9.829l0.482-0.534l-0.162-0.644
			C18.592,8.507,18.486,8.902,18.881,9.829 M20.97,10.047l0.268-0.056l0.052,0.11l-0.214,0.11l-0.75-0.376v-0.54
			c0.463-0.501,0.763-0.517,0.912-0.048c-0.143-0.285-0.358-0.285-0.644,0v0.588L20.97,10.047 M24.347,10.367h0.858l0.11,1.287
			L24.99,22.914l-0.644,0.052h-0.214L24.347,10.367 M37.537,10.691v0.21v5.098v1.336l-1.659-1.07l-1.449-0.592l-1.717-5.306
			L37.537,10.691 M20.274,11.922h0.158l1.126,22.144l0.056,0.21l-0.11,0.861l0.11,0.052l0.106,0.052v0.592l-0.052,0.158v0.324
			l0.052,0.052l0.056,1.126l-0.11,0.534l0.11,0.052l0.052,1.126l-0.11,0.162l0.11,0.32l0.052,1.235v0.482l0.052,1.178l0.052,0.592
			l-0.052,1.126v0.43l-0.106-0.052L20.274,11.922 M84.822,17.392l-0.372,0.964l-4.344,1.339l-4.024,0.75l-4.554,0.218l0.162-4.616
			L84.822,17.392 M23.813,35.192l0.854-0.052l-0.588,11.741l-1.073,0.11h-0.216v-0.806l0.967-7.935L23.813,35.192 M21.988,44.896
			v0.858C21.81,45.216,21.81,44.931,21.988,44.896"/>
		<path opacity="0.5765" fill="#F2F2F2" enable-background="new    " d="M37.537,10.691h1.235v0.268l-1.178,2.357l-0.056-2.413
			v-0.212 M24.99,22.914h0.268l-0.482,12.169l-0.964,0.052l0.214-2.413l0.32-9.756L24.99,22.914 M24.081,46.877h0.21l-0.162,3.057
			l-1.016,6.861l-0.214-8.954l0.11-0.854L24.081,46.877"/>
		<path opacity="0.3686" fill="#F2F2F2" enable-background="new    " d="M38.768,10.959v-0.268l3.914,0.426L40.376,23.02
			c-0.177-0.106-0.339,0.075-0.482,0.538l-1.016-0.11l-1.235-0.11l0.052,2.203v5.576c0.075,0.64,0.019,1.002-0.162,1.073
			l-1.607-0.912l-1.287-0.43l-1.769-4.612l-1.393-3.109v-0.214h0.64l5.525,0.43l-0.11-6.007v-1.336l0.052-2.685L38.768,10.959
			 M71.528,20.663l-0.482,9.222h-0.482l-0.372-0.272l-1.663-1.979l-3.914-5.473l-2.519-4.178L61.4,14.873v-0.272h0.268l10.028,1.449
			L71.528,20.663 M26.278,22.914h0.372L26.22,34.92l-1.449,0.158l0.486-12.169h1.02 M86.433,17.712l5.04,0.324l-1.559,2.789
			l-3.968,5.737l-0.11-0.592L86.433,17.712 M71.15,29.99l13.08,1.663l1.02,0.106l-1.769,3.325L78.063,36.1l-2.519,0.214
			l-4.506-0.052l-0.162-0.052L71.15,29.99 M25.472,46.771l0.324,0.052l-0.858,11.315L23.117,58.3v-1.501l1.016-6.865l0.162-3.053
			L25.472,46.771"/>
		<path opacity="0.7882" fill="#F2F2F2" enable-background="new    " d="M24.347,22.966l-0.32,9.756l-0.214,2.413l-1.501,0.106
			l-0.324-12.113l2.145-0.162L24.347,22.966 M23.007,46.985l-0.106,0.858l-0.11-0.858H23.007"/>
	</g>
	<path fill="#00ff00" d="M42.102,103.888v-9.071H84.65v9.071H42.102L42.102,103.888z M76.345,113.25V85.193L103,99.222
		L76.345,113.25L76.345,113.25z M27.78,109.866c-5.954,0-10.78-4.828-10.78-10.782c0-5.954,4.826-10.78,10.78-10.78
		c5.954,0,10.78,4.826,10.78,10.78C38.56,105.038,33.734,109.866,27.78,109.866L27.78,109.866z"/>
</g>
<g id="active">
	<g>
		
			<radialGradient id="SVGID_44_" cx="86.5189" cy="265.1933" r="13.7842" gradientTransform="matrix(1.4167 0 0 -1.4167 -23.0845 435.4535)" gradientUnits="userSpaceOnUse">
			<stop  offset="0" style="stop-color:#FFFFFF"/>
			<stop  offset="1" style="stop-color:#FFFFFF"/>
		</radialGradient>
		<path fill="url(#SVGID_44_)" d="M91.259,58.998l8.041,0.802l0.106,0.052L98.28,72.398l-9.166-1.073l-6.061-0.912l0.324-4.878
			l0.052-0.162v-0.644l0.052-0.43v-0.372l0.106-1.501l0.056-0.43v-0.372l0.158-3.594L91.259,58.998"/>
		
			<radialGradient id="SVGID_45_" cx="30.3758" cy="301.6218" r="2.7932" gradientTransform="matrix(1.4167 0 0 -1.4167 -23.0845 435.4535)" gradientUnits="userSpaceOnUse">
			<stop  offset="0" style="stop-color:#FFFFFF"/>
			<stop  offset="1" style="stop-color:#9D9D9D"/>
		</radialGradient>
		<path fill="url(#SVGID_45_)" d="M22.525,10.477l-0.538,0.912l-0.43,0.32l-1.821,0.272c-0.825,0-1.307-0.091-1.449-0.272
			l-0.692-0.64c-0.252-0.214-0.447-0.754-0.596-1.611l0.376-1.607c0.501-0.786,0.983-1.232,1.449-1.339l1.445-0.158
			c0.572,0.035,1.073,0.249,1.501,0.64c1.002,0.858,1.268,1.983,0.806,3.377L22.525,10.477"/>
		
			<radialGradient id="SVGID_46_" cx="32.3566" cy="300.0155" r="10.6455" gradientTransform="matrix(1.4167 0 0 -1.4167 -23.0845 435.4535)" gradientUnits="userSpaceOnUse">
			<stop  offset="0" style="stop-color:#B5B5B5"/>
			<stop  offset="1" style="stop-color:#B5B5B5"/>
		</radialGradient>
		<path fill="url(#SVGID_46_)" d="M22.525,10.477l0.052-0.11l6.485-0.214l8.526,0.43h-0.162l-9.862-0.324L22.525,10.477"/>
		
			<radialGradient id="SVGID_47_" cx="42.7929" cy="299.9052" r="14.2761" gradientTransform="matrix(1.4167 0 0 -1.4167 -23.0845 435.4535)" gradientUnits="userSpaceOnUse">
			<stop  offset="0" style="stop-color:#FFFFFF"/>
			<stop  offset="1" style="stop-color:#FFFFFF"/>
		</radialGradient>
		<path fill="url(#SVGID_47_)" d="M22.525,10.477l5.04-0.214l9.862,0.32l0.052,0.324l0.052,5.04v7.025v0.158v0.162l-6.271-0.434
			h-2.145l-4.344,0.056l-2.839,0.214l-0.376-11.421l0.43-0.324L22.525,10.477"/>
		
			<radialGradient id="SVGID_48_" cx="50.8319" cy="298.8385" r="11.2655" gradientTransform="matrix(1.4167 0 0 -1.4167 -23.0845 435.4535)" gradientUnits="userSpaceOnUse">
			<stop  offset="0" style="stop-color:#000000"/>
			<stop  offset="1" style="stop-color:#000000"/>
		</radialGradient>
		<path fill="url(#SVGID_48_)" d="M37.589,10.581l5.899,0.644l5.418,0.912l-0.162,12.866l-0.052,0.162l-4.878-1.02l-6.165-0.806
			l-0.11-0.052v-0.158v-0.162v-7.025l-0.052-5.04l-0.052-0.32h0.154"/>
		
			<radialGradient id="SVGID_49_" cx="30.4496" cy="299.6017" r="70.0575" gradientTransform="matrix(1.4167 0 0 -1.4167 -23.0845 435.4535)" gradientUnits="userSpaceOnUse">
			<stop  offset="0" style="stop-color:#BCBCBC"/>
			<stop  offset="1" style="stop-color:#9E9E9E"/>
		</radialGradient>
		<path fill="url(#SVGID_49_)" d="M21.558,11.707l0.376,11.417l0.372,12.117l0.162,0.056l0.268,11.687l0.376,11.311l0.268-0.052
			l0.912,27.61v0.268l0.162,4.936c0,0.252-0.391,0.447-1.178,0.592h-0.644l-1.126-0.32l-0.162-0.434l-0.158-4.716l-0.052-0.268
			l-2.847-74.203c0.143,0.181,0.628,0.272,1.449,0.272L21.558,11.707"/>
		
			<radialGradient id="SVGID_50_" cx="42.7809" cy="299.9305" r="8.317" gradientTransform="matrix(1.4167 0 0 -1.4167 -23.0845 435.4535)" gradientUnits="userSpaceOnUse">
			<stop  offset="0" style="stop-color:#131313"/>
			<stop  offset="1" style="stop-color:#111111"/>
		</radialGradient>
		<path fill="url(#SVGID_50_)" d="M41.609,10.853l7.347,1.232l-0.05,0.056l-5.418-0.915l-5.899-0.644L41.609,10.853"/>
		
			<radialGradient id="SVGID_51_" cx="58.1269" cy="297.3585" r="10.7234" gradientTransform="matrix(1.4167 0 0 -1.4167 -23.0845 435.4535)" gradientUnits="userSpaceOnUse">
			<stop  offset="0" style="stop-color:#E7E7E7"/>
			<stop  offset="1" style="stop-color:#DEDEDE"/>
		</radialGradient>
		<path fill="url(#SVGID_51_)" d="M48.958,12.084l10.292,2.145l-0.43,13.452l-9.972-2.465l-0.158-0.052l0.048-0.158L48.9,12.14
			L48.958,12.084"/>
		
			<radialGradient id="SVGID_52_" cx="58.3315" cy="297.4182" r="7.6377" gradientTransform="matrix(1.4167 0 0 -1.4167 -23.0845 435.4535)" gradientUnits="userSpaceOnUse">
			<stop  offset="0" style="stop-color:#B6B6B6"/>
			<stop  offset="1" style="stop-color:#B5B5B5"/>
		</radialGradient>
		<path fill="url(#SVGID_52_)" d="M48.958,12.084l10.347,2.089l-0.056,0.052L48.958,12.084"/>
		
			<radialGradient id="SVGID_53_" cx="66.9018" cy="296.087" r="12.2674" gradientTransform="matrix(1.4167 0 0 -1.4167 -23.0845 435.4535)" gradientUnits="userSpaceOnUse">
			<stop  offset="0" style="stop-color:#000000"/>
			<stop  offset="1" style="stop-color:#000000"/>
		</radialGradient>
		<path fill="url(#SVGID_53_)" d="M59.305,14.173l12.385,1.879l-0.696,13.886l-12.065-2.145l-0.11-0.106l0.43-13.456L59.305,14.173"
			/>
		
			<radialGradient id="SVGID_54_" cx="58.3274" cy="297.4428" r="8.8675" gradientTransform="matrix(1.4167 0 0 -1.4167 -23.0845 435.4535)" gradientUnits="userSpaceOnUse">
			<stop  offset="0" style="stop-color:#0F0F0F"/>
			<stop  offset="1" style="stop-color:#0D0D0D"/>
		</radialGradient>
		<path fill="url(#SVGID_54_)" d="M59.305,14.173l12.546,1.769l-0.162,0.11L59.305,14.173"/>
		
			<radialGradient id="SVGID_55_" cx="75.7139" cy="295.26" r="8.8571" gradientTransform="matrix(1.4167 0 0 -1.4167 -23.0845 435.4535)" gradientUnits="userSpaceOnUse">
			<stop  offset="0" style="stop-color:#B7B7B7"/>
			<stop  offset="1" style="stop-color:#B6B6B6"/>
		</radialGradient>
		<path fill="url(#SVGID_55_)" d="M71.852,15.943l14.526,1.449l-0.21,0.106L71.69,16.053L71.852,15.943"/>
		
			<radialGradient id="SVGID_56_" cx="77.1275" cy="295.0515" r="13.8507" gradientTransform="matrix(1.4167 0 0 -1.4167 -23.0845 435.4535)" gradientUnits="userSpaceOnUse">
			<stop  offset="0" style="stop-color:#FFFFFF"/>
			<stop  offset="1" style="stop-color:#FFFFFF"/>
		</radialGradient>
		<path fill="url(#SVGID_56_)" d="M86.163,17.496L85.2,31.758l-14.1-1.769l-0.106-0.056l0.696-13.886L86.163,17.496"/>
		
			<radialGradient id="SVGID_57_" cx="77.1262" cy="295.0501" r="10.1113" gradientTransform="matrix(1.4167 0 0 -1.4167 -23.0845 435.4535)" gradientUnits="userSpaceOnUse">
			<stop  offset="0" style="stop-color:#D9D9D9"/>
			<stop  offset="1" style="stop-color:#D8D8D8"/>
		</radialGradient>
		<path fill="url(#SVGID_57_)" d="M86.163,17.496l0.214-0.106l0.11,0.214l-0.11,0.052l-0.324,4.288v0.214l-0.052,0.534v0.538
			l-0.052,0.268l-0.052,0.754v0.158l-0.052,0.592v0.482l-0.052,0.32l-0.32,5.845l-0.272,0.106L86.163,17.496"/>
		
			<radialGradient id="SVGID_58_" cx="77.4716" cy="295.0123" r="11.5678" gradientTransform="matrix(1.4167 0 0 -1.4167 -23.0845 435.4535)" gradientUnits="userSpaceOnUse">
			<stop  offset="0" style="stop-color:#0C0C0C"/>
			<stop  offset="1" style="stop-color:#0B0B0B"/>
		</radialGradient>
		<path fill="url(#SVGID_58_)" d="M86.487,17.606l16.509,1.073l-0.052,0.106L86.377,17.66L86.487,17.606"/>
		
			<radialGradient id="SVGID_59_" cx="88.068" cy="284.0931" r="10.197" gradientTransform="matrix(1.4167 0 0 -1.4167 -23.0845 435.4535)" gradientUnits="userSpaceOnUse">
			<stop  offset="0" style="stop-color:#1F1F1F"/>
			<stop  offset="1" style="stop-color:#1E1E1E"/>
		</radialGradient>
		<path fill="url(#SVGID_59_)" d="M103,18.679l-1.235,14.15l-0.11,0.11l1.287-14.154L103,18.679"/>
		
			<radialGradient id="SVGID_60_" cx="88.99" cy="294.148" r="15.3739" gradientTransform="matrix(1.4167 0 0 -1.4167 -23.0845 435.4535)" gradientUnits="userSpaceOnUse">
			<stop  offset="0" style="stop-color:#050505"/>
			<stop  offset="1" style="stop-color:#020202"/>
		</radialGradient>
		<path fill="url(#SVGID_60_)" d="M86.377,17.658l16.567,1.126l-1.284,14.154v0.052l-10.399-0.75l-5.789-0.592l0.32-5.842
			l0.052-0.324v-0.482l0.052-0.588v-0.162l0.052-0.754L86,23.23v-0.534l0.052-0.538V21.95L86.377,17.658"/>
		
			<radialGradient id="SVGID_61_" cx="32.6423" cy="291.1562" r="13.5202" gradientTransform="matrix(1.4167 0 0 -1.4167 -23.0845 435.4535)" gradientUnits="userSpaceOnUse">
			<stop  offset="0" style="stop-color:#121212"/>
			<stop  offset="1" style="stop-color:#050505"/>
		</radialGradient>
		<path fill="url(#SVGID_61_)" d="M21.934,23.128l2.843-0.214l4.344-0.052h2.141l6.275,0.43l0.11,0.052v10.509v1.235v0.158
			l-0.052,0.214h-0.162h-0.11l-0.534-0.052l-0.534-0.052L35.664,35.3l-0.534-0.052l-0.596-0.052l-0.912-0.052l-0.912-0.056
			l-0.964-0.052l-2.789-0.052h-0.106l-4.024,0.052l-2.361,0.268l-0.158-0.052L21.934,23.128"/>
		
			<radialGradient id="SVGID_62_" cx="44.8308" cy="290.7809" r="11.5133" gradientTransform="matrix(1.4167 0 0 -1.4167 -23.0845 435.4535)" gradientUnits="userSpaceOnUse">
			<stop  offset="0" style="stop-color:#FFFFFF"/>
			<stop  offset="1" style="stop-color:#F9F9F9"/>
		</radialGradient>
		<path fill="url(#SVGID_62_)" d="M37.643,23.343l6.165,0.802l4.878,1.02l0.162,0.052l-0.214,12.117v0.162v0.106l-5.04-1.178
			l-5.842-0.912h-0.162V35.46l0.052-1.607V23.343"/>
		
			<radialGradient id="SVGID_63_" cx="53.3242" cy="280.0264" r="10.0359" gradientTransform="matrix(1.4167 0 0 -1.4167 -23.0845 435.4535)" gradientUnits="userSpaceOnUse">
			<stop  offset="0" style="stop-color:#020202"/>
			<stop  offset="1" style="stop-color:#010101"/>
		</radialGradient>
		<path fill="url(#SVGID_63_)" d="M48.848,25.217l9.972,2.465l0.11,0.11l-0.372,12.704l-9.756-2.789H48.75l-0.11-0.106v-0.11v-0.162
			L48.848,25.217"/>
		
			<radialGradient id="SVGID_64_" cx="66.5244" cy="286.4365" r="11.7139" gradientTransform="matrix(1.4167 0 0 -1.4167 -23.0845 435.4535)" gradientUnits="userSpaceOnUse">
			<stop  offset="0" style="stop-color:#FFFFFF"/>
			<stop  offset="1" style="stop-color:#F8F8F8"/>
		</radialGradient>
		<path fill="url(#SVGID_64_)" d="M58.926,27.791l12.068,2.145l0.106,0.052l-0.644,13.028l-11.795-2.411L58.609,40.5h-0.052
			L58.926,27.791"/>
		
			<radialGradient id="SVGID_65_" cx="76.531" cy="285.1904" r="13.2926" gradientTransform="matrix(1.4167 0 0 -1.4167 -23.0845 435.4535)" gradientUnits="userSpaceOnUse">
			<stop  offset="0" style="stop-color:#010101"/>
			<stop  offset="1" style="stop-color:#000000"/>
		</radialGradient>
		<path fill="url(#SVGID_65_)" d="M85.2,31.76l-0.806,13.404l-13.776-2.037l-0.11-0.056l-0.052-0.052L71.1,29.99L85.2,31.76"/>
		
			<radialGradient id="SVGID_66_" cx="75.8761" cy="275.5114" r="9.8086" gradientTransform="matrix(1.4167 0 0 -1.4167 -23.0845 435.4535)" gradientUnits="userSpaceOnUse">
			<stop  offset="0" style="stop-color:#060606"/>
			<stop  offset="1" style="stop-color:#050505"/>
		</radialGradient>
		<path fill="url(#SVGID_66_)" d="M85.2,31.76l0.272-0.106l-0.218,3.644l-0.052,0.7v0.43l-0.052,0.372l-0.106,1.501v0.378
			l-0.052,0.43v0.696l-0.056,0.11l-0.32,5.146l-0.214,0.11L85.2,31.76"/>
		
			<radialGradient id="SVGID_67_" cx="88.157" cy="284.212" r="9.9517" gradientTransform="matrix(1.4167 0 0 -1.4167 -23.0845 435.4535)" gradientUnits="userSpaceOnUse">
			<stop  offset="0" style="stop-color:#8E8E8E"/>
			<stop  offset="1" style="stop-color:#8E8E8E"/>
		</radialGradient>
		<path fill="url(#SVGID_67_)" d="M101.765,32.827l-1.178,13.78l-0.214,0.056l1.287-13.676v-0.052L101.765,32.827"/>
		
			<radialGradient id="SVGID_68_" cx="88.1371" cy="284.1157" r="14.8019" gradientTransform="matrix(1.4167 0 0 -1.4167 -23.0845 435.4535)" gradientUnits="userSpaceOnUse">
			<stop  offset="0" style="stop-color:#FFFFFF"/>
			<stop  offset="1" style="stop-color:#FFFFFF"/>
		</radialGradient>
		<path fill="url(#SVGID_68_)" d="M91.259,32.242l10.398,0.75l-1.287,13.676h-0.048l-0.644-0.052l-0.538-0.056l-0.59-0.056
			l-0.596-0.052l-0.588-0.052l-0.538-0.052l-0.588-0.052l-0.596-0.056l-0.588-0.048l-0.592-0.056l-0.592-0.052l-0.586-0.058
			l-0.534-0.052l-0.592-0.052l-0.592-0.056l-0.592-0.048l-0.534-0.056l-0.482-0.052l-0.376-0.052H89.43l-0.376-0.056l-0.482-0.052
			l-0.43-0.052l-0.486-0.052l-0.426-0.056l-0.486-0.052l-0.482-0.052l-0.43-0.052l-0.482-0.052l-0.376-0.052h-0.052l-0.32-0.052
			l0.32-5.15l0.052-0.106v-0.696l0.056-0.43V38.32l0.106-1.501l0.052-0.372v-0.43l0.052-0.7l0.214-3.648L91.259,32.242"/>
		
			<radialGradient id="SVGID_69_" cx="42.9869" cy="282.3234" r="13.5547" gradientTransform="matrix(1.4167 0 0 -1.4167 -23.0845 435.4535)" gradientUnits="userSpaceOnUse">
			<stop  offset="0" style="stop-color:#FFFFFF"/>
			<stop  offset="1" style="stop-color:#FFFFFF"/>
		</radialGradient>
		<path fill="url(#SVGID_69_)" d="M28.853,34.978h0.106l2.789,0.052l0.964,0.052l0.912,0.052l0.915,0.052l0.592,0.052l0.534,0.056
			l0.592,0.052l0.534,0.056l0.534,0.052h0.11l0.162,0.052h0.158v0.052v0.214l0.052,3.59v7.669v0.162v0.11l-4.612-0.486l-2.681-0.106
			l-5.15,0.052l-2.623,0.214L22.468,35.29L28.853,34.978"/>
		
			<radialGradient id="SVGID_70_" cx="42.9125" cy="282.3633" r="8.6195" gradientTransform="matrix(1.4167 0 0 -1.4167 -23.0845 435.4535)" gradientUnits="userSpaceOnUse">
			<stop  offset="0" style="stop-color:#010101"/>
			<stop  offset="1" style="stop-color:#010101"/>
		</radialGradient>
		<path fill="url(#SVGID_70_)" d="M37.643,33.853l-0.052,1.607l0.052-0.214v-0.162V33.853"/>
		
			<radialGradient id="SVGID_71_" cx="32.8115" cy="42.2761" r="10.2654" gradientTransform="matrix(1.4167 0 0 1.4167 -22.9281 -24.5648)" gradientUnits="userSpaceOnUse">
			<stop  offset="0" style="stop-color:#BBBBBB"/>
			<stop  offset="1" style="stop-color:#BBBBBB"/>
		</radialGradient>
		<path fill="url(#SVGID_71_)" d="M24.829,35.03l4.024-0.052l-6.383,0.324L24.829,35.03 M37.589,35.46v0.052l-0.162-0.052H37.589"/>
		
			<radialGradient id="SVGID_72_" cx="50.7282" cy="280.8508" r="10.3454" gradientTransform="matrix(1.4167 0 0 -1.4167 -23.0845 435.4535)" gradientUnits="userSpaceOnUse">
			<stop  offset="0" style="stop-color:#000000"/>
			<stop  offset="1" style="stop-color:#000000"/>
		</radialGradient>
		<path fill="url(#SVGID_72_)" d="M37.751,35.512l5.842,0.915l5.04,1.178l0.106,0.106l-0.162,11.903l-0.048,0.052l-6.705-1.659
			l-3.91-0.64l-0.114-0.052v-0.11v-0.162v-7.669l-0.048-3.59V35.57V35.512"/>
		
			<radialGradient id="SVGID_73_" cx="57.7483" cy="278.8454" r="9.6873" gradientTransform="matrix(1.4167 0 0 -1.4167 -23.0845 435.4535)" gradientUnits="userSpaceOnUse">
			<stop  offset="0" style="stop-color:#E3E3E3"/>
			<stop  offset="1" style="stop-color:#DADADA"/>
		</radialGradient>
		<path fill="url(#SVGID_73_)" d="M48.74,37.711h0.056l9.756,2.789h0.052l0.052,0.106l-0.32,12.279v0.052l-9.652-3.163l-0.114-0.052
			l-0.048-0.056l0.048-0.052L48.74,37.711"/>
		
			<radialGradient id="SVGID_74_" cx="66.1592" cy="277.1023" r="11.2108" gradientTransform="matrix(1.4167 0 0 -1.4167 -23.0845 435.4535)" gradientUnits="userSpaceOnUse">
			<stop  offset="0" style="stop-color:#000000"/>
			<stop  offset="1" style="stop-color:#000000"/>
		</radialGradient>
		<path fill="url(#SVGID_74_)" d="M58.662,40.606l11.793,2.413l0.052,0.056l0.11,0.052l-0.644,12.651l-11.525-2.733l-0.106-0.11
			v-0.052L58.662,40.606"/>
		
			<radialGradient id="SVGID_75_" cx="80.1751" cy="49.8182" r="7.0661" gradientTransform="matrix(1.4167 0 0 1.4167 -22.9281 -24.5648)" gradientUnits="userSpaceOnUse">
			<stop  offset="0" style="stop-color:#050505"/>
			<stop  offset="1" style="stop-color:#040404"/>
		</radialGradient>
		<path fill="url(#SVGID_75_)" d="M84.608,45.058l0.324,0.052h-0.214L84.608,45.058 M100.587,46.609l-0.052,0.11l-0.162-0.052
			L100.587,46.609"/>
		
			<radialGradient id="SVGID_76_" cx="75.9531" cy="275.6589" r="9.3314" gradientTransform="matrix(1.4167 0 0 -1.4167 -23.0845 435.4535)" gradientUnits="userSpaceOnUse">
			<stop  offset="0" style="stop-color:#D6D6D6"/>
			<stop  offset="1" style="stop-color:#D5D5D5"/>
		</radialGradient>
		<path fill="url(#SVGID_76_)" d="M84.608,45.058l0.11,0.052l-0.268,3.486l-0.052,0.644v0.426l-0.052,0.376l-0.056,0.806
			l-0.052,0.692v0.43l-0.052,0.376v0.696l-0.052,0.106l-0.32,4.882l-0.214,0.11l0.806-12.974L84.608,45.058"/>
		
			<radialGradient id="SVGID_77_" cx="87.2947" cy="274.4273" r="14.2555" gradientTransform="matrix(1.4167 0 0 -1.4167 -23.0845 435.4535)" gradientUnits="userSpaceOnUse">
			<stop  offset="0" style="stop-color:#020202"/>
			<stop  offset="1" style="stop-color:#000000"/>
		</radialGradient>
		<path fill="url(#SVGID_77_)" d="M84.718,45.112h0.21h0.056l0.372,0.052l0.482,0.052l0.43,0.052l0.486,0.052l0.482,0.052
			l0.426,0.052l0.486,0.052l0.43,0.056l0.482,0.052l0.376,0.052h0.158l0.376,0.056l0.486,0.052l0.53,0.052l0.596,0.052l0.588,0.052
			l0.592,0.056l0.534,0.052l0.592,0.052l0.592,0.052l0.592,0.052l0.592,0.052l0.592,0.052l0.588,0.056l0.538,0.052l0.588,0.052
			l0.596,0.052l0.588,0.052l0.538,0.052l0.644,0.056h0.052l0.162,0.052l-1.239,13.08l-8.041-0.806l-7.453-0.964l0.324-4.878
			l0.052-0.11V52.32l0.052-0.376v-0.426l0.052-0.696l0.052-0.806l0.056-0.376v-0.426l0.048-0.644L84.718,45.112"/>
		
			<radialGradient id="SVGID_78_" cx="75.9531" cy="275.6575" r="12.7728" gradientTransform="matrix(1.4167 0 0 -1.4167 -23.0845 435.4535)" gradientUnits="userSpaceOnUse">
			<stop  offset="0" style="stop-color:#FFFFFF"/>
			<stop  offset="1" style="stop-color:#FFFFFF"/>
		</radialGradient>
		<path fill="url(#SVGID_78_)" d="M70.616,43.127l13.776,2.037l-0.806,12.974l-13.51-2.307l-0.052-0.052h-0.052L70.616,43.127"/>
		
			<radialGradient id="SVGID_79_" cx="86.479" cy="265.2837" r="9.277" gradientTransform="matrix(1.4167 0 0 -1.4167 -23.0845 435.4535)" gradientUnits="userSpaceOnUse">
			<stop  offset="0" style="stop-color:#232323"/>
			<stop  offset="1" style="stop-color:#212121"/>
		</radialGradient>
		<path fill="url(#SVGID_79_)" d="M100.587,46.609l-1.126,13.028l-0.056,0.214L99.3,59.799l1.235-13.08L100.587,46.609"/>
		
			<radialGradient id="SVGID_80_" cx="33.1896" cy="274.319" r="12.9295" gradientTransform="matrix(1.4167 0 0 -1.4167 -23.0845 435.4535)" gradientUnits="userSpaceOnUse">
			<stop  offset="0" style="stop-color:#090909"/>
			<stop  offset="1" style="stop-color:#020202"/>
		</radialGradient>
		<path fill="url(#SVGID_80_)" d="M22.739,46.985l2.623-0.214l5.146-0.052l2.685,0.11l4.612,0.482l0.11,0.052v10.939v0.162v0.158
			l-4.292-0.482l-3.109-0.162L25.85,58.03l-2.465,0.214l-0.268,0.052L22.739,46.985"/>
		
			<radialGradient id="SVGID_81_" cx="44.9492" cy="273.7584" r="11.1414" gradientTransform="matrix(1.4167 0 0 -1.4167 -23.0845 435.4535)" gradientUnits="userSpaceOnUse">
			<stop  offset="0" style="stop-color:#FFFFFF"/>
			<stop  offset="1" style="stop-color:#F8F8F8"/>
		</radialGradient>
		<path fill="url(#SVGID_81_)" d="M41.825,48.005l6.705,1.659l0.048,0.052l0.114,0.052L48.53,61.079v0.218l-4.02-1.235l-6.595-1.449
			V58.45v-0.162V47.353L41.825,48.005"/>
		
			<radialGradient id="SVGID_82_" cx="53.0014" cy="263.1985" r="9.4854" gradientTransform="matrix(1.4167 0 0 -1.4167 -23.0845 435.4535)" gradientUnits="userSpaceOnUse">
			<stop  offset="0" style="stop-color:#030303"/>
			<stop  offset="1" style="stop-color:#020202"/>
		</radialGradient>
		<path fill="url(#SVGID_82_)" d="M48.69,49.774l9.652,3.163l0.106,0.11l-0.372,11.687v0.052l-9.542-3.486v-0.214L48.69,49.774"/>
		
			<radialGradient id="SVGID_83_" cx="65.8124" cy="268.1886" r="10.7447" gradientTransform="matrix(1.4167 0 0 -1.4167 -23.0845 435.4535)" gradientUnits="userSpaceOnUse">
			<stop  offset="0" style="stop-color:#FFFFFF"/>
			<stop  offset="1" style="stop-color:#F4F4F4"/>
		</radialGradient>
		<path fill="url(#SVGID_83_)" d="M69.973,55.779h0.052l0.052,0.052l-0.588,12.065l-8.902-2.251l-2.519-0.858v-0.052l0.372-11.687
			L69.973,55.779"/>
		
			<radialGradient id="SVGID_84_" cx="75.4058" cy="266.5724" r="12.2793" gradientTransform="matrix(1.4167 0 0 -1.4167 -23.0845 435.4535)" gradientUnits="userSpaceOnUse">
			<stop  offset="0" style="stop-color:#000000"/>
			<stop  offset="1" style="stop-color:#000000"/>
		</radialGradient>
		<path fill="url(#SVGID_84_)" d="M70.082,55.831l13.51,2.307l-0.806,12.327l-13.238-2.571h-0.052L70.082,55.831"/>
		
			<radialGradient id="SVGID_85_" cx="74.7945" cy="257.6287" r="9.0904" gradientTransform="matrix(1.4167 0 0 -1.4167 -23.0845 435.4535)" gradientUnits="userSpaceOnUse">
			<stop  offset="0" style="stop-color:#070707"/>
			<stop  offset="1" style="stop-color:#060606"/>
		</radialGradient>
		<path fill="url(#SVGID_85_)" d="M83.806,58.03l-0.162,3.594V62l-0.052,0.426l-0.11,1.501V64.3l-0.052,0.434v0.644l-0.052,0.158
			l-0.32,4.878l-0.272,0.052l0.806-12.327L83.806,58.03"/>
		
			<radialGradient id="SVGID_86_" cx="86.5442" cy="265.3129" r="9.087" gradientTransform="matrix(1.4167 0 0 -1.4167 -23.0845 435.4535)" gradientUnits="userSpaceOnUse">
			<stop  offset="0" style="stop-color:#8F8F8F"/>
			<stop  offset="1" style="stop-color:#8F8F8F"/>
		</radialGradient>
		<path fill="url(#SVGID_86_)" d="M99.406,59.851l0.052-0.214l0.11,0.056l-1.126,12.223l-0.162,0.482L99.406,59.851"/>
		<path opacity="0.7882" fill="#FFFFFF" enable-background="new    " d="M21.29,9.296v0.268l-0.052,0.43l-0.268,0.056l-0.376-0.218
			v-0.59c0.285-0.285,0.501-0.285,0.644,0L21.29,9.296 M18.881,9.829c-0.395-0.925-0.289-1.322,0.32-1.178l0.162,0.644L18.881,9.829
			 M20.432,11.922h0.43l0.052,0.162v0.106v0.11v0.106v0.11v0.106v0.11v0.052l0.052,0.592v0.106v0.104v0.11v0.106v0.11v0.106v0.11
			v0.11v0.106v0.052l0.052,0.592v0.106v0.11v0.11v0.106v0.11v0.106v0.11v0.11v0.106v0.056l0.056,0.588v0.11v0.11v0.106v0.11v0.106
			v0.106v0.11v0.106v0.11v0.052l0.052,0.592v0.11v0.106v0.106v0.11v0.106v0.11v0.11v0.106v0.106v0.052l0.052,0.7v0.106v0.11v0.106
			v0.11v0.106v0.11v0.11v0.106v0.052l0.052,0.696v0.11v0.106v0.11v0.106v0.11v0.106v0.11v0.106v0.052l0.052,0.696v0.11v0.106v0.11
			v0.11v0.106v0.11v0.11v0.106v0.052l0.052,0.696v0.11v0.106v0.11v0.11v0.106v0.11v0.106v0.11v0.11v0.01l0.056,0.7v0.106v0.11v0.106
			v0.11v0.11v0.106v0.11v0.11v0.048l0.052,0.7v0.106v0.11v0.106v0.106v0.11v0.106v0.106v0.11v0.106v0.056l0.052,0.588v0.106v0.11
			v0.106v0.11v0.11v0.106v0.106v0.11v0.106v0.056l0.052,0.696v0.11v0.106v0.11v0.106v0.11v0.052l0.056,1.073l-0.056,1.02
			L20.432,11.922 M24.133,22.966l-2.145,0.162l-0.43-11.421c0.715-0.572,1.02-0.967,0.912-1.178l1.879-0.162L24.133,22.966
			 M21.614,35.192l-0.11-0.052l0.11-0.861V35.192 M22.793,46.183L22.418,35.46c0.039-0.249,0.501-0.339,1.397-0.268l-0.052,3.057
			L22.793,46.183"/>
		<path opacity="0.3686" fill="#FFFFFF" enable-background="new    " d="M21.29,9.296l-0.052-0.052
			c-0.143-0.463-0.447-0.447-0.912,0.052v0.534l0.75,0.376l0.214-0.11l-0.052-0.106l0.052-0.43V9.296 M18.881,9.829l0.106,0.11
			l0.106-0.11l0.218-0.426l0.21-0.056L19.417,8.76l-0.268-0.272l-0.538,0.214l-0.106,0.432L18.881,9.829 M18.987,10.047l-0.7-0.754
			c-0.071-0.252,0.143-0.592,0.644-1.016C19.97,8.741,19.985,9.332,18.987,10.047 M21.132,10.421l-1.126-0.482V9.245l0.912-0.538
			C21.629,8.885,21.704,9.457,21.132,10.421 M19.413,12.188v-0.104l0.272,0.106l0.21,8.041c0.04,0.896-0.015,1.397-0.158,1.501
			l-0.214-6.219v-0.11l-0.11-2.251v-0.104v-0.106v-0.11v-0.108v-0.106v-0.11v-0.104v-0.106V12.188 M21.076,12.942l-0.11,0.43
			l-0.052-0.592L21.076,12.942 M20.97,14.387l0.162,0.162l-0.11,0.43L20.97,14.387 M21.024,15.999l0.158,0.158l-0.106,0.43
			L21.024,15.999 M34.428,15.675l1.449,0.592l1.659,1.07l0.11,6.007l-5.522-0.43l-0.754-1.825l-0.588-10.509v-0.268l1.927,0.052
			L34.428,15.675 M21.076,17.606l0.162,0.158l-0.11,0.43L21.076,17.606 M21.132,19.213l0.158,0.162l-0.11,0.534L21.132,19.213
			 M71.528,20.663l4.554-0.218l4.024-0.75l4.344-1.339l0.372-0.964l1.393,0.158l-0.802,11.797l-1.178,2.303l-13.084-1.663
			l-0.106-0.106L71.528,20.663 M21.182,20.824l0.162,0.158l-0.106,0.538L21.182,20.824 M24.99,22.914l0.324-11.259l-0.108-1.287
			H26.6l-0.32,12.546h-1.02H24.99 M21.29,23.128l-0.052-0.696L21.4,22.7L21.29,23.128 M38.876,23.451l-1.02,2.089h-0.162
			l-0.048-2.199L38.876,23.451 M21.344,24.735l-0.052-0.696l0.162,0.268L21.344,24.735 M21.344,25.756l0.162,0.158L21.4,26.452
			L21.344,25.756 M21.452,28.059L21.4,27.364l0.162,0.272L21.452,28.059 M21.452,29.079l0.162,0.162l-0.11,0.43L21.452,29.079
			 M21.558,31.382l-0.052-0.696l0.158,0.268L21.558,31.382 M21.614,33.047l0.106,2.199l-0.106-0.052v-0.915l-0.056-0.21
			L21.614,33.047l-0.056-1.073l0.162,0.644L21.614,33.047 M21.72,35.836l0.11,0.32l-0.11,0.214l-0.052-0.052v-0.324L21.72,35.836
			 M21.776,38.087l-0.11-0.052l0.11-0.538l0.106,0.214L21.776,38.087 M21.826,39.694L21.72,39.37l0.106-0.158l0.11,0.21
			L21.826,39.694 M21.826,44.682l0.11,0.052v-0.428c0.098,0,0.154,0.052,0.158,0.162l-0.106,0.43c-0.181,0.035-0.181,0.32,0,0.858
			l0.158,0.43l-0.106,0.588l0.324,6.381l0.158,5.36c0.035,0.572-0.015,0.896-0.158,0.964l-1.02-18.98l-1.126-23.482l-0.162-4.506
			c-0.106-0.463-0.035-0.659,0.214-0.588L21.826,44.682 M26.116,35.14l-0.644,11.631l-1.178,0.11h-0.214l0.592-11.741H26.116"/>
		<path opacity="0.5765" fill="#FFFFFF" enable-background="new    " d="M18.881,9.829l-0.376-0.696l0.106-0.43l0.538-0.214
			l0.268,0.272l0.106,0.588l-0.212,0.054l-0.218,0.426l-0.106,0.11L18.881,9.829l0.482-0.534l-0.162-0.644
			C18.592,8.507,18.486,8.902,18.881,9.829 M20.97,10.047l0.268-0.056l0.052,0.11l-0.214,0.11l-0.75-0.376v-0.54
			c0.463-0.501,0.763-0.517,0.912-0.048c-0.143-0.285-0.358-0.285-0.644,0v0.588L20.97,10.047 M24.347,10.367h0.858l0.11,1.287
			L24.99,22.914l-0.644,0.052h-0.214L24.347,10.367 M37.537,10.691v0.21v5.098v1.336l-1.659-1.07l-1.449-0.592l-1.717-5.306
			L37.537,10.691 M20.274,11.922h0.158l1.126,22.144l0.056,0.21l-0.11,0.861l0.11,0.052l0.106,0.052v0.592l-0.052,0.158v0.324
			l0.052,0.052l0.056,1.126l-0.11,0.534l0.11,0.052l0.052,1.126l-0.11,0.162l0.11,0.32l0.052,1.235v0.482l0.052,1.178l0.052,0.592
			l-0.052,1.126v0.43l-0.106-0.052L20.274,11.922 M84.822,17.392l-0.372,0.964l-4.344,1.339l-4.024,0.75l-4.554,0.218l0.162-4.616
			L84.822,17.392 M23.813,35.192l0.854-0.052l-0.588,11.741l-1.073,0.11h-0.216v-0.806l0.967-7.935L23.813,35.192 M21.988,44.896
			v0.858C21.81,45.216,21.81,44.931,21.988,44.896"/>
		<path opacity="0.5765" fill="#F2F2F2" enable-background="new    " d="M37.537,10.691h1.235v0.268l-1.178,2.357l-0.056-2.413
			v-0.212 M24.99,22.914h0.268l-0.482,12.169l-0.964,0.052l0.214-2.413l0.32-9.756L24.99,22.914 M24.081,46.877h0.21l-0.162,3.057
			l-1.016,6.861l-0.214-8.954l0.11-0.854L24.081,46.877"/>
		<path opacity="0.3686" fill="#F2F2F2" enable-background="new    " d="M38.768,10.959v-0.268l3.914,0.426L40.376,23.02
			c-0.177-0.106-0.339,0.075-0.482,0.538l-1.016-0.11l-1.235-0.11l0.052,2.203v5.576c0.075,0.64,0.019,1.002-0.162,1.073
			l-1.607-0.912l-1.287-0.43l-1.769-4.612l-1.393-3.109v-0.214h0.64l5.525,0.43l-0.11-6.007v-1.336l0.052-2.685L38.768,10.959
			 M71.528,20.663l-0.482,9.222h-0.482l-0.372-0.272l-1.663-1.979l-3.914-5.473l-2.519-4.178L61.4,14.873v-0.272h0.268l10.028,1.449
			L71.528,20.663 M26.278,22.914h0.372L26.22,34.92l-1.449,0.158l0.486-12.169h1.02 M86.433,17.712l5.04,0.324l-1.559,2.789
			l-3.968,5.737l-0.11-0.592L86.433,17.712 M71.15,29.99l13.08,1.663l1.02,0.106l-1.769,3.325L78.063,36.1l-2.519,0.214
			l-4.506-0.052l-0.162-0.052L71.15,29.99 M25.472,46.771l0.324,0.052l-0.858,11.315L23.117,58.3v-1.501l1.016-6.865l0.162-3.053
			L25.472,46.771"/>
		<path opacity="0.7882" fill="#F2F2F2" enable-background="new    " d="M24.347,22.966l-0.32,9.756l-0.214,2.413l-1.501,0.106
			l-0.324-12.113l2.145-0.162L24.347,22.966 M23.007,46.985l-0.106,0.858l-0.11-0.858H23.007"/>
	</g>
	<path fill="#00ff00" d="M42.102,103.888v-9.071H84.65v9.071H42.102L42.102,103.888z M76.345,113.25V85.193L103,99.222
		L76.345,113.25L76.345,113.25z M27.78,109.866c-5.954,0-10.78-4.828-10.78-10.782c0-5.954,4.826-10.78,10.78-10.78
		c5.954,0,10.78,4.826,10.78,10.78C38.56,105.038,33.734,109.866,27.78,109.866L27.78,109.866z"/>
</g>
<g id="disabled" opacity="0.2">
	<g>
		
			<radialGradient id="SVGID_87_" cx="86.5189" cy="265.1933" r="13.7842" gradientTransform="matrix(1.4167 0 0 -1.4167 -23.0845 435.4535)" gradientUnits="userSpaceOnUse">
			<stop  offset="0" style="stop-color:#FFFFFF"/>
			<stop  offset="1" style="stop-color:#FFFFFF"/>
		</radialGradient>
		<path fill="url(#SVGID_87_)" d="M91.259,58.998l8.041,0.802l0.106,0.052L98.28,72.398l-9.166-1.073l-6.061-0.912l0.324-4.878
			l0.052-0.162v-0.644l0.052-0.43v-0.372l0.106-1.501l0.056-0.43v-0.372l0.158-3.594L91.259,58.998"/>
		
			<radialGradient id="SVGID_88_" cx="30.3758" cy="301.6218" r="2.7932" gradientTransform="matrix(1.4167 0 0 -1.4167 -23.0845 435.4535)" gradientUnits="userSpaceOnUse">
			<stop  offset="0" style="stop-color:#FFFFFF"/>
			<stop  offset="1" style="stop-color:#9D9D9D"/>
		</radialGradient>
		<path fill="url(#SVGID_88_)" d="M22.525,10.477l-0.538,0.912l-0.43,0.32l-1.821,0.272c-0.825,0-1.307-0.091-1.449-0.272
			l-0.692-0.64c-0.252-0.214-0.447-0.754-0.596-1.611l0.376-1.607c0.501-0.786,0.983-1.232,1.449-1.339l1.445-0.158
			c0.572,0.035,1.073,0.249,1.501,0.64c1.002,0.858,1.268,1.983,0.806,3.377L22.525,10.477"/>
		
			<radialGradient id="SVGID_89_" cx="32.3566" cy="300.0155" r="10.6455" gradientTransform="matrix(1.4167 0 0 -1.4167 -23.0845 435.4535)" gradientUnits="userSpaceOnUse">
			<stop  offset="0" style="stop-color:#B5B5B5"/>
			<stop  offset="1" style="stop-color:#B5B5B5"/>
		</radialGradient>
		<path fill="url(#SVGID_89_)" d="M22.525,10.477l0.052-0.11l6.485-0.214l8.526,0.43h-0.162l-9.862-0.324L22.525,10.477"/>
		
			<radialGradient id="SVGID_90_" cx="42.7929" cy="299.9052" r="14.2761" gradientTransform="matrix(1.4167 0 0 -1.4167 -23.0845 435.4535)" gradientUnits="userSpaceOnUse">
			<stop  offset="0" style="stop-color:#FFFFFF"/>
			<stop  offset="1" style="stop-color:#FFFFFF"/>
		</radialGradient>
		<path fill="url(#SVGID_90_)" d="M22.525,10.477l5.04-0.214l9.862,0.32l0.052,0.324l0.052,5.04v7.025v0.158v0.162l-6.271-0.434
			h-2.145l-4.344,0.056l-2.839,0.214l-0.376-11.421l0.43-0.324L22.525,10.477"/>
		
			<radialGradient id="SVGID_91_" cx="50.8319" cy="298.8385" r="11.2655" gradientTransform="matrix(1.4167 0 0 -1.4167 -23.0845 435.4535)" gradientUnits="userSpaceOnUse">
			<stop  offset="0" style="stop-color:#000000"/>
			<stop  offset="1" style="stop-color:#000000"/>
		</radialGradient>
		<path fill="url(#SVGID_91_)" d="M37.589,10.581l5.899,0.644l5.418,0.912l-0.162,12.866l-0.052,0.162l-4.878-1.02l-6.165-0.806
			l-0.11-0.052v-0.158v-0.162v-7.025l-0.052-5.04l-0.052-0.32h0.154"/>
		
			<radialGradient id="SVGID_92_" cx="30.4496" cy="299.6017" r="70.0575" gradientTransform="matrix(1.4167 0 0 -1.4167 -23.0845 435.4535)" gradientUnits="userSpaceOnUse">
			<stop  offset="0" style="stop-color:#BCBCBC"/>
			<stop  offset="1" style="stop-color:#9E9E9E"/>
		</radialGradient>
		<path fill="url(#SVGID_92_)" d="M21.558,11.707l0.376,11.417l0.372,12.117l0.162,0.056l0.268,11.687l0.376,11.311l0.268-0.052
			l0.912,27.61v0.268l0.162,4.936c0,0.252-0.391,0.447-1.178,0.592h-0.644l-1.126-0.32l-0.162-0.434l-0.158-4.716l-0.052-0.268
			l-2.847-74.203c0.143,0.181,0.628,0.272,1.449,0.272L21.558,11.707"/>
		
			<radialGradient id="SVGID_93_" cx="42.7809" cy="299.9305" r="8.317" gradientTransform="matrix(1.4167 0 0 -1.4167 -23.0845 435.4535)" gradientUnits="userSpaceOnUse">
			<stop  offset="0" style="stop-color:#131313"/>
			<stop  offset="1" style="stop-color:#111111"/>
		</radialGradient>
		<path fill="url(#SVGID_93_)" d="M41.609,10.853l7.347,1.232l-0.05,0.056l-5.418-0.915l-5.899-0.644L41.609,10.853"/>
		
			<radialGradient id="SVGID_94_" cx="58.1269" cy="297.3585" r="10.7234" gradientTransform="matrix(1.4167 0 0 -1.4167 -23.0845 435.4535)" gradientUnits="userSpaceOnUse">
			<stop  offset="0" style="stop-color:#E7E7E7"/>
			<stop  offset="1" style="stop-color:#DEDEDE"/>
		</radialGradient>
		<path fill="url(#SVGID_94_)" d="M48.958,12.084l10.292,2.145l-0.43,13.452l-9.972-2.465l-0.158-0.052l0.048-0.158L48.9,12.14
			L48.958,12.084"/>
		
			<radialGradient id="SVGID_95_" cx="58.3315" cy="297.4182" r="7.6377" gradientTransform="matrix(1.4167 0 0 -1.4167 -23.0845 435.4535)" gradientUnits="userSpaceOnUse">
			<stop  offset="0" style="stop-color:#B6B6B6"/>
			<stop  offset="1" style="stop-color:#B5B5B5"/>
		</radialGradient>
		<path fill="url(#SVGID_95_)" d="M48.958,12.084l10.347,2.089l-0.056,0.052L48.958,12.084"/>
		
			<radialGradient id="SVGID_96_" cx="66.9018" cy="296.087" r="12.2674" gradientTransform="matrix(1.4167 0 0 -1.4167 -23.0845 435.4535)" gradientUnits="userSpaceOnUse">
			<stop  offset="0" style="stop-color:#000000"/>
			<stop  offset="1" style="stop-color:#000000"/>
		</radialGradient>
		<path fill="url(#SVGID_96_)" d="M59.305,14.173l12.385,1.879l-0.696,13.886l-12.065-2.145l-0.11-0.106l0.43-13.456L59.305,14.173"
			/>
		
			<radialGradient id="SVGID_97_" cx="58.3274" cy="297.4428" r="8.8675" gradientTransform="matrix(1.4167 0 0 -1.4167 -23.0845 435.4535)" gradientUnits="userSpaceOnUse">
			<stop  offset="0" style="stop-color:#0F0F0F"/>
			<stop  offset="1" style="stop-color:#0D0D0D"/>
		</radialGradient>
		<path fill="url(#SVGID_97_)" d="M59.305,14.173l12.546,1.769l-0.162,0.11L59.305,14.173"/>
		
			<radialGradient id="SVGID_98_" cx="75.7139" cy="295.26" r="8.8571" gradientTransform="matrix(1.4167 0 0 -1.4167 -23.0845 435.4535)" gradientUnits="userSpaceOnUse">
			<stop  offset="0" style="stop-color:#B7B7B7"/>
			<stop  offset="1" style="stop-color:#B6B6B6"/>
		</radialGradient>
		<path fill="url(#SVGID_98_)" d="M71.852,15.943l14.526,1.449l-0.21,0.106L71.69,16.053L71.852,15.943"/>
		
			<radialGradient id="SVGID_99_" cx="77.1275" cy="295.0515" r="13.8507" gradientTransform="matrix(1.4167 0 0 -1.4167 -23.0845 435.4535)" gradientUnits="userSpaceOnUse">
			<stop  offset="0" style="stop-color:#FFFFFF"/>
			<stop  offset="1" style="stop-color:#FFFFFF"/>
		</radialGradient>
		<path fill="url(#SVGID_99_)" d="M86.163,17.496L85.2,31.758l-14.1-1.769l-0.106-0.056l0.696-13.886L86.163,17.496"/>
		
			<radialGradient id="SVGID_100_" cx="77.1262" cy="295.0501" r="10.1113" gradientTransform="matrix(1.4167 0 0 -1.4167 -23.0845 435.4535)" gradientUnits="userSpaceOnUse">
			<stop  offset="0" style="stop-color:#D9D9D9"/>
			<stop  offset="1" style="stop-color:#D8D8D8"/>
		</radialGradient>
		<path fill="url(#SVGID_100_)" d="M86.163,17.496l0.214-0.106l0.11,0.214l-0.11,0.052l-0.324,4.288v0.214l-0.052,0.534v0.538
			l-0.052,0.268l-0.052,0.754v0.158l-0.052,0.592v0.482l-0.052,0.32l-0.32,5.845l-0.272,0.106L86.163,17.496"/>
		
			<radialGradient id="SVGID_101_" cx="77.4716" cy="295.0123" r="11.5678" gradientTransform="matrix(1.4167 0 0 -1.4167 -23.0845 435.4535)" gradientUnits="userSpaceOnUse">
			<stop  offset="0" style="stop-color:#0C0C0C"/>
			<stop  offset="1" style="stop-color:#0B0B0B"/>
		</radialGradient>
		<path fill="url(#SVGID_101_)" d="M86.487,17.606l16.509,1.073l-0.052,0.106L86.377,17.66L86.487,17.606"/>
		
			<radialGradient id="SVGID_102_" cx="88.068" cy="284.0931" r="10.197" gradientTransform="matrix(1.4167 0 0 -1.4167 -23.0845 435.4535)" gradientUnits="userSpaceOnUse">
			<stop  offset="0" style="stop-color:#1F1F1F"/>
			<stop  offset="1" style="stop-color:#1E1E1E"/>
		</radialGradient>
		<path fill="url(#SVGID_102_)" d="M103,18.679l-1.235,14.15l-0.11,0.11l1.287-14.154L103,18.679"/>
		
			<radialGradient id="SVGID_103_" cx="88.99" cy="294.148" r="15.3739" gradientTransform="matrix(1.4167 0 0 -1.4167 -23.0845 435.4535)" gradientUnits="userSpaceOnUse">
			<stop  offset="0" style="stop-color:#050505"/>
			<stop  offset="1" style="stop-color:#020202"/>
		</radialGradient>
		<path fill="url(#SVGID_103_)" d="M86.377,17.658l16.567,1.126l-1.284,14.154v0.052l-10.399-0.75l-5.789-0.592l0.32-5.842
			l0.052-0.324v-0.482l0.052-0.588v-0.162l0.052-0.754L86,23.23v-0.534l0.052-0.538V21.95L86.377,17.658"/>
		
			<radialGradient id="SVGID_104_" cx="32.6423" cy="291.1562" r="13.5202" gradientTransform="matrix(1.4167 0 0 -1.4167 -23.0845 435.4535)" gradientUnits="userSpaceOnUse">
			<stop  offset="0" style="stop-color:#121212"/>
			<stop  offset="1" style="stop-color:#050505"/>
		</radialGradient>
		<path fill="url(#SVGID_104_)" d="M21.934,23.128l2.843-0.214l4.344-0.052h2.141l6.275,0.43l0.11,0.052v10.509v1.235v0.158
			l-0.052,0.214h-0.162h-0.11l-0.534-0.052l-0.534-0.052L35.664,35.3l-0.534-0.052l-0.596-0.052l-0.912-0.052l-0.912-0.056
			l-0.964-0.052l-2.789-0.052h-0.106l-4.024,0.052l-2.361,0.268l-0.158-0.052L21.934,23.128"/>
		
			<radialGradient id="SVGID_105_" cx="44.8308" cy="290.7809" r="11.5133" gradientTransform="matrix(1.4167 0 0 -1.4167 -23.0845 435.4535)" gradientUnits="userSpaceOnUse">
			<stop  offset="0" style="stop-color:#FFFFFF"/>
			<stop  offset="1" style="stop-color:#F9F9F9"/>
		</radialGradient>
		<path fill="url(#SVGID_105_)" d="M37.643,23.343l6.165,0.802l4.878,1.02l0.162,0.052l-0.214,12.117v0.162v0.106l-5.04-1.178
			l-5.842-0.912h-0.162V35.46l0.052-1.607V23.343"/>
		
			<radialGradient id="SVGID_106_" cx="53.3242" cy="280.0264" r="10.0359" gradientTransform="matrix(1.4167 0 0 -1.4167 -23.0845 435.4535)" gradientUnits="userSpaceOnUse">
			<stop  offset="0" style="stop-color:#020202"/>
			<stop  offset="1" style="stop-color:#010101"/>
		</radialGradient>
		<path fill="url(#SVGID_106_)" d="M48.848,25.217l9.972,2.465l0.11,0.11l-0.372,12.704l-9.756-2.789H48.75l-0.11-0.106v-0.11
			v-0.162L48.848,25.217"/>
		
			<radialGradient id="SVGID_107_" cx="66.5244" cy="286.4365" r="11.7139" gradientTransform="matrix(1.4167 0 0 -1.4167 -23.0845 435.4535)" gradientUnits="userSpaceOnUse">
			<stop  offset="0" style="stop-color:#FFFFFF"/>
			<stop  offset="1" style="stop-color:#F8F8F8"/>
		</radialGradient>
		<path fill="url(#SVGID_107_)" d="M58.926,27.791l12.068,2.145l0.106,0.052l-0.644,13.028l-11.795-2.411L58.609,40.5h-0.052
			L58.926,27.791"/>
		
			<radialGradient id="SVGID_108_" cx="76.531" cy="285.1904" r="13.2926" gradientTransform="matrix(1.4167 0 0 -1.4167 -23.0845 435.4535)" gradientUnits="userSpaceOnUse">
			<stop  offset="0" style="stop-color:#010101"/>
			<stop  offset="1" style="stop-color:#000000"/>
		</radialGradient>
		<path fill="url(#SVGID_108_)" d="M85.2,31.76l-0.806,13.404l-13.776-2.037l-0.11-0.056l-0.052-0.052L71.1,29.99L85.2,31.76"/>
		
			<radialGradient id="SVGID_109_" cx="75.8761" cy="275.5114" r="9.8086" gradientTransform="matrix(1.4167 0 0 -1.4167 -23.0845 435.4535)" gradientUnits="userSpaceOnUse">
			<stop  offset="0" style="stop-color:#060606"/>
			<stop  offset="1" style="stop-color:#050505"/>
		</radialGradient>
		<path fill="url(#SVGID_109_)" d="M85.2,31.76l0.272-0.106l-0.218,3.644l-0.052,0.7v0.43l-0.052,0.372l-0.106,1.501v0.378
			l-0.052,0.43v0.696l-0.056,0.11l-0.32,5.146l-0.214,0.11L85.2,31.76"/>
		
			<radialGradient id="SVGID_110_" cx="88.157" cy="284.212" r="9.9517" gradientTransform="matrix(1.4167 0 0 -1.4167 -23.0845 435.4535)" gradientUnits="userSpaceOnUse">
			<stop  offset="0" style="stop-color:#8E8E8E"/>
			<stop  offset="1" style="stop-color:#8E8E8E"/>
		</radialGradient>
		<path fill="url(#SVGID_110_)" d="M101.765,32.827l-1.178,13.78l-0.214,0.056l1.287-13.676v-0.052L101.765,32.827"/>
		
			<radialGradient id="SVGID_111_" cx="88.1371" cy="284.1157" r="14.8019" gradientTransform="matrix(1.4167 0 0 -1.4167 -23.0845 435.4535)" gradientUnits="userSpaceOnUse">
			<stop  offset="0" style="stop-color:#FFFFFF"/>
			<stop  offset="1" style="stop-color:#FFFFFF"/>
		</radialGradient>
		<path fill="url(#SVGID_111_)" d="M91.259,32.242l10.398,0.75l-1.287,13.676h-0.048l-0.644-0.052l-0.538-0.056l-0.59-0.056
			l-0.596-0.052l-0.588-0.052l-0.538-0.052l-0.588-0.052l-0.596-0.056l-0.588-0.048l-0.592-0.056l-0.592-0.052l-0.586-0.058
			l-0.534-0.052l-0.592-0.052l-0.592-0.056l-0.592-0.048l-0.534-0.056l-0.482-0.052l-0.376-0.052H89.43l-0.376-0.056l-0.482-0.052
			l-0.43-0.052l-0.486-0.052l-0.426-0.056l-0.486-0.052l-0.482-0.052l-0.43-0.052l-0.482-0.052l-0.376-0.052h-0.052l-0.32-0.052
			l0.32-5.15l0.052-0.106v-0.696l0.056-0.43V38.32l0.106-1.501l0.052-0.372v-0.43l0.052-0.7l0.214-3.648L91.259,32.242"/>
		
			<radialGradient id="SVGID_112_" cx="42.9869" cy="282.3234" r="13.5547" gradientTransform="matrix(1.4167 0 0 -1.4167 -23.0845 435.4535)" gradientUnits="userSpaceOnUse">
			<stop  offset="0" style="stop-color:#FFFFFF"/>
			<stop  offset="1" style="stop-color:#FFFFFF"/>
		</radialGradient>
		<path fill="url(#SVGID_112_)" d="M28.853,34.978h0.106l2.789,0.052l0.964,0.052l0.912,0.052l0.915,0.052l0.592,0.052l0.534,0.056
			l0.592,0.052l0.534,0.056l0.534,0.052h0.11l0.162,0.052h0.158v0.052v0.214l0.052,3.59v7.669v0.162v0.11l-4.612-0.486l-2.681-0.106
			l-5.15,0.052l-2.623,0.214L22.468,35.29L28.853,34.978"/>
		
			<radialGradient id="SVGID_113_" cx="42.9125" cy="282.3633" r="8.6195" gradientTransform="matrix(1.4167 0 0 -1.4167 -23.0845 435.4535)" gradientUnits="userSpaceOnUse">
			<stop  offset="0" style="stop-color:#010101"/>
			<stop  offset="1" style="stop-color:#010101"/>
		</radialGradient>
		<path fill="url(#SVGID_113_)" d="M37.643,33.853l-0.052,1.607l0.052-0.214v-0.162V33.853"/>
		
			<radialGradient id="SVGID_114_" cx="32.8115" cy="42.2761" r="10.2654" gradientTransform="matrix(1.4167 0 0 1.4167 -22.9281 -24.5648)" gradientUnits="userSpaceOnUse">
			<stop  offset="0" style="stop-color:#BBBBBB"/>
			<stop  offset="1" style="stop-color:#BBBBBB"/>
		</radialGradient>
		<path fill="url(#SVGID_114_)" d="M24.829,35.03l4.024-0.052l-6.383,0.324L24.829,35.03 M37.589,35.46v0.052l-0.162-0.052H37.589"
			/>
		
			<radialGradient id="SVGID_115_" cx="50.7282" cy="280.8508" r="10.3454" gradientTransform="matrix(1.4167 0 0 -1.4167 -23.0845 435.4535)" gradientUnits="userSpaceOnUse">
			<stop  offset="0" style="stop-color:#000000"/>
			<stop  offset="1" style="stop-color:#000000"/>
		</radialGradient>
		<path fill="url(#SVGID_115_)" d="M37.751,35.512l5.842,0.915l5.04,1.178l0.106,0.106l-0.162,11.903l-0.048,0.052l-6.705-1.659
			l-3.91-0.64l-0.114-0.052v-0.11v-0.162v-7.669l-0.048-3.59V35.57V35.512"/>
		
			<radialGradient id="SVGID_116_" cx="57.7483" cy="278.8454" r="9.6873" gradientTransform="matrix(1.4167 0 0 -1.4167 -23.0845 435.4535)" gradientUnits="userSpaceOnUse">
			<stop  offset="0" style="stop-color:#E3E3E3"/>
			<stop  offset="1" style="stop-color:#DADADA"/>
		</radialGradient>
		<path fill="url(#SVGID_116_)" d="M48.74,37.711h0.056l9.756,2.789h0.052l0.052,0.106l-0.32,12.279v0.052l-9.652-3.163
			l-0.114-0.052l-0.048-0.056l0.048-0.052L48.74,37.711"/>
		
			<radialGradient id="SVGID_117_" cx="66.1592" cy="277.1023" r="11.2108" gradientTransform="matrix(1.4167 0 0 -1.4167 -23.0845 435.4535)" gradientUnits="userSpaceOnUse">
			<stop  offset="0" style="stop-color:#000000"/>
			<stop  offset="1" style="stop-color:#000000"/>
		</radialGradient>
		<path fill="url(#SVGID_117_)" d="M58.662,40.606l11.793,2.413l0.052,0.056l0.11,0.052l-0.644,12.651l-11.525-2.733l-0.106-0.11
			v-0.052L58.662,40.606"/>
		
			<radialGradient id="SVGID_118_" cx="80.1751" cy="49.8182" r="7.0661" gradientTransform="matrix(1.4167 0 0 1.4167 -22.9281 -24.5648)" gradientUnits="userSpaceOnUse">
			<stop  offset="0" style="stop-color:#050505"/>
			<stop  offset="1" style="stop-color:#040404"/>
		</radialGradient>
		<path fill="url(#SVGID_118_)" d="M84.608,45.058l0.324,0.052h-0.214L84.608,45.058 M100.587,46.609l-0.052,0.11l-0.162-0.052
			L100.587,46.609"/>
		
			<radialGradient id="SVGID_119_" cx="75.9531" cy="275.6589" r="9.3314" gradientTransform="matrix(1.4167 0 0 -1.4167 -23.0845 435.4535)" gradientUnits="userSpaceOnUse">
			<stop  offset="0" style="stop-color:#D6D6D6"/>
			<stop  offset="1" style="stop-color:#D5D5D5"/>
		</radialGradient>
		<path fill="url(#SVGID_119_)" d="M84.608,45.058l0.11,0.052l-0.268,3.486l-0.052,0.644v0.426l-0.052,0.376l-0.056,0.806
			l-0.052,0.692v0.43l-0.052,0.376v0.696l-0.052,0.106l-0.32,4.882l-0.214,0.11l0.806-12.974L84.608,45.058"/>
		
			<radialGradient id="SVGID_120_" cx="87.2947" cy="274.4273" r="14.2555" gradientTransform="matrix(1.4167 0 0 -1.4167 -23.0845 435.4535)" gradientUnits="userSpaceOnUse">
			<stop  offset="0" style="stop-color:#020202"/>
			<stop  offset="1" style="stop-color:#000000"/>
		</radialGradient>
		<path fill="url(#SVGID_120_)" d="M84.718,45.112h0.21h0.056l0.372,0.052l0.482,0.052l0.43,0.052l0.486,0.052l0.482,0.052
			l0.426,0.052l0.486,0.052l0.43,0.056l0.482,0.052l0.376,0.052h0.158l0.376,0.056l0.486,0.052l0.53,0.052l0.596,0.052l0.588,0.052
			l0.592,0.056l0.534,0.052l0.592,0.052l0.592,0.052l0.592,0.052l0.592,0.052l0.592,0.052l0.588,0.056l0.538,0.052l0.588,0.052
			l0.596,0.052l0.588,0.052l0.538,0.052l0.644,0.056h0.052l0.162,0.052l-1.239,13.08l-8.041-0.806l-7.453-0.964l0.324-4.878
			l0.052-0.11V52.32l0.052-0.376v-0.426l0.052-0.696l0.052-0.806l0.056-0.376v-0.426l0.048-0.644L84.718,45.112"/>
		
			<radialGradient id="SVGID_121_" cx="75.9531" cy="275.6575" r="12.7728" gradientTransform="matrix(1.4167 0 0 -1.4167 -23.0845 435.4535)" gradientUnits="userSpaceOnUse">
			<stop  offset="0" style="stop-color:#FFFFFF"/>
			<stop  offset="1" style="stop-color:#FFFFFF"/>
		</radialGradient>
		<path fill="url(#SVGID_121_)" d="M70.616,43.127l13.776,2.037l-0.806,12.974l-13.51-2.307l-0.052-0.052h-0.052L70.616,43.127"/>
		
			<radialGradient id="SVGID_122_" cx="86.479" cy="265.2837" r="9.277" gradientTransform="matrix(1.4167 0 0 -1.4167 -23.0845 435.4535)" gradientUnits="userSpaceOnUse">
			<stop  offset="0" style="stop-color:#232323"/>
			<stop  offset="1" style="stop-color:#212121"/>
		</radialGradient>
		<path fill="url(#SVGID_122_)" d="M100.587,46.609l-1.126,13.028l-0.056,0.214L99.3,59.799l1.235-13.08L100.587,46.609"/>
		
			<radialGradient id="SVGID_123_" cx="33.1896" cy="274.319" r="12.9295" gradientTransform="matrix(1.4167 0 0 -1.4167 -23.0845 435.4535)" gradientUnits="userSpaceOnUse">
			<stop  offset="0" style="stop-color:#090909"/>
			<stop  offset="1" style="stop-color:#020202"/>
		</radialGradient>
		<path fill="url(#SVGID_123_)" d="M22.739,46.985l2.623-0.214l5.146-0.052l2.685,0.11l4.612,0.482l0.11,0.052v10.939v0.162v0.158
			l-4.292-0.482l-3.109-0.162L25.85,58.03l-2.465,0.214l-0.268,0.052L22.739,46.985"/>
		
			<radialGradient id="SVGID_124_" cx="44.9492" cy="273.7584" r="11.1414" gradientTransform="matrix(1.4167 0 0 -1.4167 -23.0845 435.4535)" gradientUnits="userSpaceOnUse">
			<stop  offset="0" style="stop-color:#FFFFFF"/>
			<stop  offset="1" style="stop-color:#F8F8F8"/>
		</radialGradient>
		<path fill="url(#SVGID_124_)" d="M41.825,48.005l6.705,1.659l0.048,0.052l0.114,0.052L48.53,61.079v0.218l-4.02-1.235
			l-6.595-1.449V58.45v-0.162V47.353L41.825,48.005"/>
		
			<radialGradient id="SVGID_125_" cx="53.0014" cy="263.1985" r="9.4854" gradientTransform="matrix(1.4167 0 0 -1.4167 -23.0845 435.4535)" gradientUnits="userSpaceOnUse">
			<stop  offset="0" style="stop-color:#030303"/>
			<stop  offset="1" style="stop-color:#020202"/>
		</radialGradient>
		<path fill="url(#SVGID_125_)" d="M48.69,49.774l9.652,3.163l0.106,0.11l-0.372,11.687v0.052l-9.542-3.486v-0.214L48.69,49.774"/>
		
			<radialGradient id="SVGID_126_" cx="65.8124" cy="268.1886" r="10.7447" gradientTransform="matrix(1.4167 0 0 -1.4167 -23.0845 435.4535)" gradientUnits="userSpaceOnUse">
			<stop  offset="0" style="stop-color:#FFFFFF"/>
			<stop  offset="1" style="stop-color:#F4F4F4"/>
		</radialGradient>
		<path fill="url(#SVGID_126_)" d="M69.973,55.779h0.052l0.052,0.052l-0.588,12.065l-8.902-2.251l-2.519-0.858v-0.052l0.372-11.687
			L69.973,55.779"/>
		
			<radialGradient id="SVGID_127_" cx="75.4058" cy="266.5724" r="12.2793" gradientTransform="matrix(1.4167 0 0 -1.4167 -23.0845 435.4535)" gradientUnits="userSpaceOnUse">
			<stop  offset="0" style="stop-color:#000000"/>
			<stop  offset="1" style="stop-color:#000000"/>
		</radialGradient>
		<path fill="url(#SVGID_127_)" d="M70.082,55.831l13.51,2.307l-0.806,12.327l-13.238-2.571h-0.052L70.082,55.831"/>
		
			<radialGradient id="SVGID_128_" cx="74.7945" cy="257.6287" r="9.0904" gradientTransform="matrix(1.4167 0 0 -1.4167 -23.0845 435.4535)" gradientUnits="userSpaceOnUse">
			<stop  offset="0" style="stop-color:#070707"/>
			<stop  offset="1" style="stop-color:#060606"/>
		</radialGradient>
		<path fill="url(#SVGID_128_)" d="M83.806,58.03l-0.162,3.594V62l-0.052,0.426l-0.11,1.501V64.3l-0.052,0.434v0.644l-0.052,0.158
			l-0.32,4.878l-0.272,0.052l0.806-12.327L83.806,58.03"/>
		
			<radialGradient id="SVGID_129_" cx="86.5442" cy="265.3129" r="9.087" gradientTransform="matrix(1.4167 0 0 -1.4167 -23.0845 435.4535)" gradientUnits="userSpaceOnUse">
			<stop  offset="0" style="stop-color:#8F8F8F"/>
			<stop  offset="1" style="stop-color:#8F8F8F"/>
		</radialGradient>
		<path fill="url(#SVGID_129_)" d="M99.406,59.851l0.052-0.214l0.11,0.056l-1.126,12.223l-0.162,0.482L99.406,59.851"/>
		<path opacity="0.7882" fill="#FFFFFF" enable-background="new    " d="M21.29,9.296v0.268l-0.052,0.43l-0.268,0.056l-0.376-0.218
			v-0.59c0.285-0.285,0.501-0.285,0.644,0L21.29,9.296 M18.881,9.829c-0.395-0.925-0.289-1.322,0.32-1.178l0.162,0.644L18.881,9.829
			 M20.432,11.922h0.43l0.052,0.162v0.106v0.11v0.106v0.11v0.106v0.11v0.052l0.052,0.592v0.106v0.104v0.11v0.106v0.11v0.106v0.11
			v0.11v0.106v0.052l0.052,0.592v0.106v0.11v0.11v0.106v0.11v0.106v0.11v0.11v0.106v0.056l0.056,0.588v0.11v0.11v0.106v0.11v0.106
			v0.106v0.11v0.106v0.11v0.052l0.052,0.592v0.11v0.106v0.106v0.11v0.106v0.11v0.11v0.106v0.106v0.052l0.052,0.7v0.106v0.11v0.106
			v0.11v0.106v0.11v0.11v0.106v0.052l0.052,0.696v0.11v0.106v0.11v0.106v0.11v0.106v0.11v0.106v0.052l0.052,0.696v0.11v0.106v0.11
			v0.11v0.106v0.11v0.11v0.106v0.052l0.052,0.696v0.11v0.106v0.11v0.11v0.106v0.11v0.106v0.11v0.11v0.01l0.056,0.7v0.106v0.11v0.106
			v0.11v0.11v0.106v0.11v0.11v0.048l0.052,0.7v0.106v0.11v0.106v0.106v0.11v0.106v0.106v0.11v0.106v0.056l0.052,0.588v0.106v0.11
			v0.106v0.11v0.11v0.106v0.106v0.11v0.106v0.056l0.052,0.696v0.11v0.106v0.11v0.106v0.11v0.052l0.056,1.073l-0.056,1.02
			L20.432,11.922 M24.133,22.966l-2.145,0.162l-0.43-11.421c0.715-0.572,1.02-0.967,0.912-1.178l1.879-0.162L24.133,22.966
			 M21.614,35.192l-0.11-0.052l0.11-0.861V35.192 M22.793,46.183L22.418,35.46c0.039-0.249,0.501-0.339,1.397-0.268l-0.052,3.057
			L22.793,46.183"/>
		<path opacity="0.3686" fill="#FFFFFF" enable-background="new    " d="M21.29,9.296l-0.052-0.052
			c-0.143-0.463-0.447-0.447-0.912,0.052v0.534l0.75,0.376l0.214-0.11l-0.052-0.106l0.052-0.43V9.296 M18.881,9.829l0.106,0.11
			l0.106-0.11l0.218-0.426l0.21-0.056L19.417,8.76l-0.268-0.272l-0.538,0.214l-0.106,0.432L18.881,9.829 M18.987,10.047l-0.7-0.754
			c-0.071-0.252,0.143-0.592,0.644-1.016C19.97,8.741,19.985,9.332,18.987,10.047 M21.132,10.421l-1.126-0.482V9.245l0.912-0.538
			C21.629,8.885,21.704,9.457,21.132,10.421 M19.413,12.188v-0.104l0.272,0.106l0.21,8.041c0.04,0.896-0.015,1.397-0.158,1.501
			l-0.214-6.219v-0.11l-0.11-2.251v-0.104v-0.106v-0.11v-0.108v-0.106v-0.11v-0.104v-0.106V12.188 M21.076,12.942l-0.11,0.43
			l-0.052-0.592L21.076,12.942 M20.97,14.387l0.162,0.162l-0.11,0.43L20.97,14.387 M21.024,15.999l0.158,0.158l-0.106,0.43
			L21.024,15.999 M34.428,15.675l1.449,0.592l1.659,1.07l0.11,6.007l-5.522-0.43l-0.754-1.825l-0.588-10.509v-0.268l1.927,0.052
			L34.428,15.675 M21.076,17.606l0.162,0.158l-0.11,0.43L21.076,17.606 M21.132,19.213l0.158,0.162l-0.11,0.534L21.132,19.213
			 M71.528,20.663l4.554-0.218l4.024-0.75l4.344-1.339l0.372-0.964l1.393,0.158l-0.802,11.797l-1.178,2.303l-13.084-1.663
			l-0.106-0.106L71.528,20.663 M21.182,20.824l0.162,0.158l-0.106,0.538L21.182,20.824 M24.99,22.914l0.324-11.259l-0.108-1.287
			H26.6l-0.32,12.546h-1.02H24.99 M21.29,23.128l-0.052-0.696L21.4,22.7L21.29,23.128 M38.876,23.451l-1.02,2.089h-0.162
			l-0.048-2.199L38.876,23.451 M21.344,24.735l-0.052-0.696l0.162,0.268L21.344,24.735 M21.344,25.756l0.162,0.158L21.4,26.452
			L21.344,25.756 M21.452,28.059L21.4,27.364l0.162,0.272L21.452,28.059 M21.452,29.079l0.162,0.162l-0.11,0.43L21.452,29.079
			 M21.558,31.382l-0.052-0.696l0.158,0.268L21.558,31.382 M21.614,33.047l0.106,2.199l-0.106-0.052v-0.915l-0.056-0.21
			L21.614,33.047l-0.056-1.073l0.162,0.644L21.614,33.047 M21.72,35.836l0.11,0.32l-0.11,0.214l-0.052-0.052v-0.324L21.72,35.836
			 M21.776,38.087l-0.11-0.052l0.11-0.538l0.106,0.214L21.776,38.087 M21.826,39.694L21.72,39.37l0.106-0.158l0.11,0.21
			L21.826,39.694 M21.826,44.682l0.11,0.052v-0.428c0.098,0,0.154,0.052,0.158,0.162l-0.106,0.43c-0.181,0.035-0.181,0.32,0,0.858
			l0.158,0.43l-0.106,0.588l0.324,6.381l0.158,5.36c0.035,0.572-0.015,0.896-0.158,0.964l-1.02-18.98l-1.126-23.482l-0.162-4.506
			c-0.106-0.463-0.035-0.659,0.214-0.588L21.826,44.682 M26.116,35.14l-0.644,11.631l-1.178,0.11h-0.214l0.592-11.741H26.116"/>
		<path opacity="0.5765" fill="#FFFFFF" enable-background="new    " d="M18.881,9.829l-0.376-0.696l0.106-0.43l0.538-0.214
			l0.268,0.272l0.106,0.588l-0.212,0.054l-0.218,0.426l-0.106,0.11L18.881,9.829l0.482-0.534l-0.162-0.644
			C18.592,8.507,18.486,8.902,18.881,9.829 M20.97,10.047l0.268-0.056l0.052,0.11l-0.214,0.11l-0.75-0.376v-0.54
			c0.463-0.501,0.763-0.517,0.912-0.048c-0.143-0.285-0.358-0.285-0.644,0v0.588L20.97,10.047 M24.347,10.367h0.858l0.11,1.287
			L24.99,22.914l-0.644,0.052h-0.214L24.347,10.367 M37.537,10.691v0.21v5.098v1.336l-1.659-1.07l-1.449-0.592l-1.717-5.306
			L37.537,10.691 M20.274,11.922h0.158l1.126,22.144l0.056,0.21l-0.11,0.861l0.11,0.052l0.106,0.052v0.592l-0.052,0.158v0.324
			l0.052,0.052l0.056,1.126l-0.11,0.534l0.11,0.052l0.052,1.126l-0.11,0.162l0.11,0.32l0.052,1.235v0.482l0.052,1.178l0.052,0.592
			l-0.052,1.126v0.43l-0.106-0.052L20.274,11.922 M84.822,17.392l-0.372,0.964l-4.344,1.339l-4.024,0.75l-4.554,0.218l0.162-4.616
			L84.822,17.392 M23.813,35.192l0.854-0.052l-0.588,11.741l-1.073,0.11h-0.216v-0.806l0.967-7.935L23.813,35.192 M21.988,44.896
			v0.858C21.81,45.216,21.81,44.931,21.988,44.896"/>
		<path opacity="0.5765" fill="#F2F2F2" enable-background="new    " d="M37.537,10.691h1.235v0.268l-1.178,2.357l-0.056-2.413
			v-0.212 M24.99,22.914h0.268l-0.482,12.169l-0.964,0.052l0.214-2.413l0.32-9.756L24.99,22.914 M24.081,46.877h0.21l-0.162,3.057
			l-1.016,6.861l-0.214-8.954l0.11-0.854L24.081,46.877"/>
		<path opacity="0.3686" fill="#F2F2F2" enable-background="new    " d="M38.768,10.959v-0.268l3.914,0.426L40.376,23.02
			c-0.177-0.106-0.339,0.075-0.482,0.538l-1.016-0.11l-1.235-0.11l0.052,2.203v5.576c0.075,0.64,0.019,1.002-0.162,1.073
			l-1.607-0.912l-1.287-0.43l-1.769-4.612l-1.393-3.109v-0.214h0.64l5.525,0.43l-0.11-6.007v-1.336l0.052-2.685L38.768,10.959
			 M71.528,20.663l-0.482,9.222h-0.482l-0.372-0.272l-1.663-1.979l-3.914-5.473l-2.519-4.178L61.4,14.873v-0.272h0.268l10.028,1.449
			L71.528,20.663 M26.278,22.914h0.372L26.22,34.92l-1.449,0.158l0.486-12.169h1.02 M86.433,17.712l5.04,0.324l-1.559,2.789
			l-3.968,5.737l-0.11-0.592L86.433,17.712 M71.15,29.99l13.08,1.663l1.02,0.106l-1.769,3.325L78.063,36.1l-2.519,0.214
			l-4.506-0.052l-0.162-0.052L71.15,29.99 M25.472,46.771l0.324,0.052l-0.858,11.315L23.117,58.3v-1.501l1.016-6.865l0.162-3.053
			L25.472,46.771"/>
		<path opacity="0.7882" fill="#F2F2F2" enable-background="new    " d="M24.347,22.966l-0.32,9.756l-0.214,2.413l-1.501,0.106
			l-0.324-12.113l2.145-0.162L24.347,22.966 M23.007,46.985l-0.106,0.858l-0.11-0.858H23.007"/>
	</g>
	<path fill="#00ff00" d="M42.102,103.888v-9.071H84.65v9.071H42.102L42.102,103.888z M76.345,113.25V85.193L103,99.222
		L76.345,113.25L76.345,113.25z M27.78,109.866c-5.954,0-10.78-4.828-10.78-10.782c0-5.954,4.826-10.78,10.78-10.78
		c5.954,0,10.78,4.826,10.78,10.78C38.56,105.038,33.734,109.866,27.78,109.866L27.78,109.866z"/>
</g>
</svg>
