<?xml version="1.0" encoding="utf-8"?>
<!-- Generator: Adobe Illustrator 16.0.0, SVG Export Plug-In . SVG Version: 6.00 Build 0)  -->
<!DOCTYPE svg PUBLIC "-//W3C//DTD SVG 1.1//EN" "http://www.w3.org/Graphics/SVG/1.1/DTD/svg11.dtd">
<svg version="1.1" id="Слой_1" xmlns="http://www.w3.org/2000/svg" xmlns:xlink="http://www.w3.org/1999/xlink" x="0px" y="0px"
	 width="120px" height="120px" viewBox="0 0 120 120" enable-background="new 0 0 120 120" xml:space="preserve">
<g id="Layer_2" display="none">
	<linearGradient id="SVGID_1_" gradientUnits="userSpaceOnUse" x1="60.0005" y1="120" x2="60.0005" y2="4.882813e-004">
		<stop  offset="0" style="stop-color:#E1DEDB"/>
		<stop  offset="0" style="stop-color:#D8D4D1"/>
		<stop  offset="0.0553" style="stop-color:#C9C5C3"/>
		<stop  offset="0.161" style="stop-color:#A49E9F"/>
		<stop  offset="0.264" style="stop-color:#797377"/>
		<stop  offset="0.5225" style="stop-color:#F2F2F2"/>
		<stop  offset="0.5775" style="stop-color:#E4E3E3"/>
		<stop  offset="0.6832" style="stop-color:#BFBCBD"/>
		<stop  offset="0.8274" style="stop-color:#837E7F"/>
		<stop  offset="0.8764" style="stop-color:#6D6769"/>
		<stop  offset="1" style="stop-color:#C9C8C8"/>
		<stop  offset="1" style="stop-color:#979695"/>
	</linearGradient>
	<linearGradient id="SVGID_2_" gradientUnits="userSpaceOnUse" x1="90.2549" y1="112.4033" x2="29.7446" y2="7.5965">
		<stop  offset="0" style="stop-color:#E1DEDB"/>
		<stop  offset="0" style="stop-color:#D8D4D1"/>
		<stop  offset="0.0369" style="stop-color:#C9C6C3"/>
		<stop  offset="0.1078" style="stop-color:#A2A19E"/>
		<stop  offset="0.2045" style="stop-color:#646563"/>
		<stop  offset="0.264" style="stop-color:#3A3D3B"/>
		<stop  offset="0.2751" style="stop-color:#414442"/>
		<stop  offset="0.3799" style="stop-color:#838584"/>
		<stop  offset="0.468" style="stop-color:#B3B4B4"/>
		<stop  offset="0.535" style="stop-color:#D1D1D2"/>
		<stop  offset="0.573" style="stop-color:#DCDCDD"/>
		<stop  offset="0.6269" style="stop-color:#D2D2D4"/>
		<stop  offset="0.7175" style="stop-color:#B8B9BB"/>
		<stop  offset="0.8332" style="stop-color:#8E8F93"/>
		<stop  offset="0.8764" style="stop-color:#7C7E82"/>
		<stop  offset="1" style="stop-color:#C9C8C8"/>
		<stop  offset="1" style="stop-color:#979695"/>
	</linearGradient>
	
		<circle display="inline" opacity="0.5" fill="url(#SVGID_1_)" stroke="url(#SVGID_2_)" stroke-miterlimit="10" enable-background="new    " cx="60" cy="60" r="60"/>
	<linearGradient id="SVGID_3_" gradientUnits="userSpaceOnUse" x1="60.0005" y1="113.5" x2="60.0005" y2="6.5005">
		<stop  offset="0" style="stop-color:#E1DEDB"/>
		<stop  offset="0" style="stop-color:#D8D4D1"/>
		<stop  offset="0.0553" style="stop-color:#C9C5C3"/>
		<stop  offset="0.161" style="stop-color:#A49E9F"/>
		<stop  offset="0.264" style="stop-color:#797377"/>
		<stop  offset="0.5225" style="stop-color:#F2F2F2"/>
		<stop  offset="0.5775" style="stop-color:#E4E3E3"/>
		<stop  offset="0.6832" style="stop-color:#BFBCBD"/>
		<stop  offset="0.8274" style="stop-color:#837E7F"/>
		<stop  offset="0.8764" style="stop-color:#6D6769"/>
		<stop  offset="1" style="stop-color:#C9C8C8"/>
		<stop  offset="1" style="stop-color:#979695"/>
	</linearGradient>
	<linearGradient id="SVGID_4_" gradientUnits="userSpaceOnUse" x1="96.8828" y1="123.8828" x2="23.1177" y2="-3.8821">
		<stop  offset="0" style="stop-color:#E1DEDB"/>
		<stop  offset="0" style="stop-color:#D8D4D1"/>
		<stop  offset="0.0369" style="stop-color:#C9C6C3"/>
		<stop  offset="0.1078" style="stop-color:#A2A19E"/>
		<stop  offset="0.2045" style="stop-color:#646563"/>
		<stop  offset="0.264" style="stop-color:#3A3D3B"/>
		<stop  offset="0.2751" style="stop-color:#414442"/>
		<stop  offset="0.3799" style="stop-color:#838584"/>
		<stop  offset="0.468" style="stop-color:#B3B4B4"/>
		<stop  offset="0.535" style="stop-color:#D1D1D2"/>
		<stop  offset="0.573" style="stop-color:#DCDCDD"/>
		<stop  offset="0.6269" style="stop-color:#D2D2D4"/>
		<stop  offset="0.7175" style="stop-color:#B8B9BB"/>
		<stop  offset="0.8332" style="stop-color:#8E8F93"/>
		<stop  offset="0.8764" style="stop-color:#7C7E82"/>
		<stop  offset="1" style="stop-color:#C9C8C8"/>
		<stop  offset="1" style="stop-color:#979695"/>
	</linearGradient>
	
		<rect x="6.5" y="6.5" display="inline" opacity="0.5" fill="url(#SVGID_3_)" stroke="url(#SVGID_4_)" stroke-miterlimit="10" enable-background="new    " width="107" height="107"/>
</g>
<g id="normal">
	<linearGradient id="SVGID_5_" gradientUnits="userSpaceOnUse" x1="60.0005" y1="100" x2="60.0005" y2="20.6685">
		<stop  offset="0" style="stop-color:#E1DEDB"/>
		<stop  offset="0" style="stop-color:#D8D4D1"/>
		<stop  offset="0.0553" style="stop-color:#C9C5C3"/>
		<stop  offset="0.161" style="stop-color:#A49E9F"/>
		<stop  offset="0.264" style="stop-color:#797377"/>
		<stop  offset="0.5225" style="stop-color:#F2F2F2"/>
		<stop  offset="0.5775" style="stop-color:#E4E3E3"/>
		<stop  offset="0.6832" style="stop-color:#BFBCBD"/>
		<stop  offset="0.8274" style="stop-color:#837E7F"/>
		<stop  offset="0.8764" style="stop-color:#6D6769"/>
		<stop  offset="1" style="stop-color:#C9C8C8"/>
		<stop  offset="1" style="stop-color:#979695"/>
	</linearGradient>
	<linearGradient id="SVGID_6_" gradientUnits="userSpaceOnUse" x1="85.3955" y1="106.3721" x2="32.3462" y2="14.488">
		<stop  offset="0" style="stop-color:#E1DEDB"/>
		<stop  offset="0" style="stop-color:#D8D4D1"/>
		<stop  offset="0.0369" style="stop-color:#C9C6C3"/>
		<stop  offset="0.1078" style="stop-color:#A2A19E"/>
		<stop  offset="0.2045" style="stop-color:#646563"/>
		<stop  offset="0.264" style="stop-color:#3A3D3B"/>
		<stop  offset="0.2751" style="stop-color:#414442"/>
		<stop  offset="0.3799" style="stop-color:#838584"/>
		<stop  offset="0.468" style="stop-color:#B3B4B4"/>
		<stop  offset="0.535" style="stop-color:#D1D1D2"/>
		<stop  offset="0.573" style="stop-color:#DCDCDD"/>
		<stop  offset="0.6269" style="stop-color:#D2D2D4"/>
		<stop  offset="0.7175" style="stop-color:#B8B9BB"/>
		<stop  offset="0.8332" style="stop-color:#8E8F93"/>
		<stop  offset="0.8764" style="stop-color:#7C7E82"/>
		<stop  offset="1" style="stop-color:#C9C8C8"/>
		<stop  offset="1" style="stop-color:#979695"/>
	</linearGradient>
	<path fill="url(#SVGID_5_)" stroke="url(#SVGID_6_)" stroke-miterlimit="10" d="M38.611,57.528v1.25
		c8.112,0.667,14.333,6.121,14.333,16.849c0,15.175-7.777,23.736-23.999,23.736C14.724,99.361,6.5,92.533,6.5,76.494h12.001
		c0,6.721,2.223,14.197,10.777,14.197c7.89,0,11.002-6.178,11.002-13.764c0-9.428-3.224-14.305-12.777-14.305h-4.89v-8.67h4.555
		c8.444,0,11.334-5.635,11.334-13.114c0-5.528-2.555-11.055-9.111-11.055c-7.777,0-10,6.505-10,13.44H7.39
		c0-14.308,7.667-22.111,22.668-22.111c9.443,0,21.109,4.227,21.109,19.616c0,7.913-4.778,16.584-12.555,17.775L38.611,57.528
		L38.611,57.528z M85.502,100H62.947V20.668h22.555c24.889,0,27.998,16.224,27.998,39.666C113.5,83.777,110.391,100,85.502,100
		L85.502,100z M86.057,30.224H75.611v60.221h10.445c10.445,0,14.778-6.889,14.778-30.11C100.835,38.001,97.057,30.224,86.057,30.224
		L86.057,30.224z"/>
</g>
<g id="active">
	<linearGradient id="SVGID_7_" gradientUnits="userSpaceOnUse" x1="60.0005" y1="100" x2="60.0005" y2="20.6685">
		<stop  offset="0" style="stop-color:#E1DEDB"/>
		<stop  offset="0" style="stop-color:#D8D4D1"/>
		<stop  offset="0.0553" style="stop-color:#C9C5C3"/>
		<stop  offset="0.161" style="stop-color:#A49E9F"/>
		<stop  offset="0.264" style="stop-color:#797377"/>
		<stop  offset="0.5225" style="stop-color:#F2F2F2"/>
		<stop  offset="0.5775" style="stop-color:#E4E3E3"/>
		<stop  offset="0.6832" style="stop-color:#BFBCBD"/>
		<stop  offset="0.8274" style="stop-color:#837E7F"/>
		<stop  offset="0.8764" style="stop-color:#6D6769"/>
		<stop  offset="1" style="stop-color:#C9C8C8"/>
		<stop  offset="1" style="stop-color:#979695"/>
	</linearGradient>
	<linearGradient id="SVGID_8_" gradientUnits="userSpaceOnUse" x1="85.3955" y1="106.3721" x2="32.3462" y2="14.488">
		<stop  offset="0" style="stop-color:#E1DEDB"/>
		<stop  offset="0" style="stop-color:#D8D4D1"/>
		<stop  offset="0.0369" style="stop-color:#C9C6C3"/>
		<stop  offset="0.1078" style="stop-color:#A2A19E"/>
		<stop  offset="0.2045" style="stop-color:#646563"/>
		<stop  offset="0.264" style="stop-color:#3A3D3B"/>
		<stop  offset="0.2751" style="stop-color:#414442"/>
		<stop  offset="0.3799" style="stop-color:#838584"/>
		<stop  offset="0.468" style="stop-color:#B3B4B4"/>
		<stop  offset="0.535" style="stop-color:#D1D1D2"/>
		<stop  offset="0.573" style="stop-color:#DCDCDD"/>
		<stop  offset="0.6269" style="stop-color:#D2D2D4"/>
		<stop  offset="0.7175" style="stop-color:#B8B9BB"/>
		<stop  offset="0.8332" style="stop-color:#8E8F93"/>
		<stop  offset="0.8764" style="stop-color:#7C7E82"/>
		<stop  offset="1" style="stop-color:#C9C8C8"/>
		<stop  offset="1" style="stop-color:#979695"/>
	</linearGradient>
	<path fill="url(#SVGID_7_)" stroke="url(#SVGID_8_)" stroke-miterlimit="10" d="M38.611,57.528v1.25
		c8.112,0.667,14.333,6.121,14.333,16.849c0,15.175-7.777,23.736-23.999,23.736C14.724,99.361,6.5,92.533,6.5,76.494h12.001
		c0,6.721,2.223,14.197,10.777,14.197c7.89,0,11.002-6.178,11.002-13.764c0-9.428-3.224-14.305-12.777-14.305h-4.89v-8.67h4.555
		c8.444,0,11.334-5.635,11.334-13.114c0-5.528-2.555-11.055-9.111-11.055c-7.777,0-10,6.505-10,13.44H7.39
		c0-14.308,7.667-22.111,22.668-22.111c9.443,0,21.109,4.227,21.109,19.616c0,7.913-4.778,16.584-12.555,17.775L38.611,57.528
		L38.611,57.528z M85.502,100H62.947V20.668h22.555c24.889,0,27.998,16.224,27.998,39.666C113.5,83.777,110.391,100,85.502,100
		L85.502,100z M86.057,30.224H75.611v60.221h10.445c10.445,0,14.778-6.889,14.778-30.11C100.835,38.001,97.057,30.224,86.057,30.224
		L86.057,30.224z"/>
</g>
<g id="disabled" opacity="0.2">
	<linearGradient id="SVGID_9_" gradientUnits="userSpaceOnUse" x1="60.0005" y1="100" x2="60.0005" y2="20.6685">
		<stop  offset="0" style="stop-color:#E1DEDB"/>
		<stop  offset="0" style="stop-color:#D8D4D1"/>
		<stop  offset="0.0553" style="stop-color:#C9C5C3"/>
		<stop  offset="0.161" style="stop-color:#A49E9F"/>
		<stop  offset="0.264" style="stop-color:#797377"/>
		<stop  offset="0.5225" style="stop-color:#F2F2F2"/>
		<stop  offset="0.5775" style="stop-color:#E4E3E3"/>
		<stop  offset="0.6832" style="stop-color:#BFBCBD"/>
		<stop  offset="0.8274" style="stop-color:#837E7F"/>
		<stop  offset="0.8764" style="stop-color:#6D6769"/>
		<stop  offset="1" style="stop-color:#C9C8C8"/>
		<stop  offset="1" style="stop-color:#979695"/>
	</linearGradient>
	<linearGradient id="SVGID_10_" gradientUnits="userSpaceOnUse" x1="85.3955" y1="106.3721" x2="32.3462" y2="14.488">
		<stop  offset="0" style="stop-color:#E1DEDB"/>
		<stop  offset="0" style="stop-color:#D8D4D1"/>
		<stop  offset="0.0369" style="stop-color:#C9C6C3"/>
		<stop  offset="0.1078" style="stop-color:#A2A19E"/>
		<stop  offset="0.2045" style="stop-color:#646563"/>
		<stop  offset="0.264" style="stop-color:#3A3D3B"/>
		<stop  offset="0.2751" style="stop-color:#414442"/>
		<stop  offset="0.3799" style="stop-color:#838584"/>
		<stop  offset="0.468" style="stop-color:#B3B4B4"/>
		<stop  offset="0.535" style="stop-color:#D1D1D2"/>
		<stop  offset="0.573" style="stop-color:#DCDCDD"/>
		<stop  offset="0.6269" style="stop-color:#D2D2D4"/>
		<stop  offset="0.7175" style="stop-color:#B8B9BB"/>
		<stop  offset="0.8332" style="stop-color:#8E8F93"/>
		<stop  offset="0.8764" style="stop-color:#7C7E82"/>
		<stop  offset="1" style="stop-color:#C9C8C8"/>
		<stop  offset="1" style="stop-color:#979695"/>
	</linearGradient>
	<path fill="url(#SVGID_9_)" stroke="url(#SVGID_10_)" stroke-miterlimit="10" d="M38.611,57.528v1.25
		c8.112,0.667,14.333,6.121,14.333,16.849c0,15.175-7.777,23.736-23.999,23.736C14.724,99.361,6.5,92.533,6.5,76.494h12.001
		c0,6.721,2.223,14.197,10.777,14.197c7.89,0,11.002-6.178,11.002-13.764c0-9.428-3.224-14.305-12.777-14.305h-4.89v-8.67h4.555
		c8.444,0,11.334-5.635,11.334-13.114c0-5.528-2.555-11.055-9.111-11.055c-7.777,0-10,6.505-10,13.44H7.39
		c0-14.308,7.667-22.111,22.668-22.111c9.443,0,21.109,4.227,21.109,19.616c0,7.913-4.778,16.584-12.555,17.775L38.611,57.528
		L38.611,57.528z M85.502,100H62.947V20.668h22.555c24.889,0,27.998,16.224,27.998,39.666C113.5,83.777,110.391,100,85.502,100
		L85.502,100z M86.057,30.224H75.611v60.221h10.445c10.445,0,14.778-6.889,14.778-30.11C100.835,38.001,97.057,30.224,86.057,30.224
		L86.057,30.224z"/>
</g>
</svg>
