<?xml version="1.0" encoding="utf-8"?>
<!-- Generator: Adobe Illustrator 19.2.1, SVG Export Plug-In . SVG Version: 6.00 Build 0)  -->
<svg version="1.1" id="Capa_1" xmlns="http://www.w3.org/2000/svg" xmlns:xlink="http://www.w3.org/1999/xlink" x="0px" y="0px"
	 viewBox="0 0 120 120" enable-background="new 0 0 120 120" xml:space="preserve">
<g>
	<g>
		<g>
			<linearGradient id="SVGID_1_" gradientUnits="userSpaceOnUse" x1="99.8086" y1="11.2381" x2="77.4735" y2="24.1333">
				<stop  offset="0" style="stop-color:#DEE8F7"/>
				<stop  offset="0.6064" style="stop-color:#BED3EF"/>
				<stop  offset="1" style="stop-color:#8AB3E1"/>
			</linearGradient>
			<polygon fill="url(#SVGID_1_)" points="86.55,22.38 89.876,31.745 92.689,22.214 102.623,21.945 94.428,16.323 97.242,6.793 
				89.364,12.85 81.169,7.228 84.494,16.592 76.617,22.649 			"/>
			<path fill="#646464" d="M95.411,9.461l-1.942,6.579l-0.206,0.697l0.599,0.411l5.657,3.881l-6.858,0.186l-0.726,0.02l-0.206,0.697
				l-1.942,6.579l-2.296-6.464l-0.243-0.685l-0.726,0.02l-6.857,0.186l5.438-4.181l0.576-0.443l-0.243-0.685l-2.295-6.464
				l5.657,3.88l0.599,0.411l0.576-0.443L95.411,9.461 M97.242,6.793l-7.878,6.057l-8.195-5.621l3.325,9.364l-7.878,6.057
				l9.933-0.269l3.326,9.365l2.813-9.531l9.934-0.269l-8.195-5.622L97.242,6.793L97.242,6.793z"/>
		</g>
		<g>
			<linearGradient id="SVGID_2_" gradientUnits="userSpaceOnUse" x1="105.2795" y1="47.0601" x2="73.8127" y2="65.2274">
				<stop  offset="0" style="stop-color:#DEE8F7"/>
				<stop  offset="0.6064" style="stop-color:#BED3EF"/>
				<stop  offset="1" style="stop-color:#8AB3E1"/>
			</linearGradient>
			<polygon fill="url(#SVGID_2_)" points="91.088,50.063 83.936,37.395 82.276,51.847 68.017,54.735 81.25,60.78 79.589,75.232 
				89.428,64.515 102.66,70.56 95.508,57.892 105.346,47.176 			"/>
			<path fill="#646464" d="M84.579,40.566l5.639,9.988l0.357,0.633l0.712-0.144l11.241-2.277l-7.757,8.449l-0.491,0.535l0.357,0.633
				l5.639,9.988l-10.432-4.767l-0.661-0.302l-0.491,0.535l-7.758,8.45l1.309-11.395l0.083-0.722l-0.661-0.302l-10.433-4.766
				l11.243-2.276l0.712-0.144l0.083-0.722L84.579,40.566 M83.936,37.395l-1.66,14.453l-14.26,2.887L81.25,60.78l-1.661,14.453
				l9.839-10.718l13.232,6.046l-7.152-12.668l9.838-10.716l-14.258,2.887L83.936,37.395L83.936,37.395z"/>
		</g>
		<g>
			<linearGradient id="SVGID_3_" gradientUnits="userSpaceOnUse" x1="70.6678" y1="32.8292" x2="53.2758" y2="42.8705">
				<stop  offset="0" style="stop-color:#DEE8F7"/>
				<stop  offset="0.6064" style="stop-color:#BED3EF"/>
				<stop  offset="1" style="stop-color:#8AB3E1"/>
			</linearGradient>
			<polygon fill="url(#SVGID_3_)" points="55.094,46.019 61.334,41.486 67.574,46.019 65.19,38.683 71.431,34.151 63.717,34.151 
				61.334,26.815 58.951,34.151 51.237,34.151 57.477,38.683 			"/>
			<path fill="#646464" d="M61.334,30.051l1.432,4.408l0.224,0.691h0.727h4.635l-3.75,2.724l-0.588,0.427l0.225,0.691l1.433,4.409
				l-3.75-2.724l-0.588-0.427l-0.588,0.427l-3.751,2.725l1.433-4.409l0.225-0.691l-0.588-0.427l-3.749-2.724h4.635h0.727
				l0.225-0.691L61.334,30.051 M61.334,26.815l-2.383,7.336h-7.713l6.24,4.533l-2.384,7.336l6.24-4.533l6.24,4.533l-2.384-7.336
				l6.24-4.533h-7.714L61.334,26.815L61.334,26.815z"/>
		</g>
		<g>
			<linearGradient id="SVGID_4_" gradientUnits="userSpaceOnUse" x1="92.839" y1="40.2346" x2="12.6136" y2="86.5528">
				<stop  offset="0" style="stop-color:#DEE8F7"/>
				<stop  offset="0.6064" style="stop-color:#BED3EF"/>
				<stop  offset="1" style="stop-color:#8AB3E1"/>
			</linearGradient>
			<path fill="url(#SVGID_4_)" d="M54.229,65.772C37.798,49.342,33.518,25.366,41.381,5c-7.183,2.773-13.917,7.053-19.711,12.848
				c-22.225,22.225-22.225,58.259,0,80.483c22.225,22.225,58.258,22.225,80.483,0c5.794-5.795,10.075-12.529,12.848-19.711
				C94.635,86.483,70.658,82.202,54.229,65.772z"/>
			<path fill="#646464" d="M39.669,6.78c-7.119,20.837-1.803,44.044,13.852,59.699c10.936,10.936,25.477,16.959,40.944,16.959
				c6.424,0,12.722-1.044,18.755-3.107c-2.791,6.454-6.745,12.263-11.775,17.293C90.885,108.184,76.845,114,61.911,114
				c-14.934,0-28.974-5.816-39.534-16.376c-10.56-10.56-16.376-24.6-16.376-39.534c0-14.934,5.816-28.975,16.376-39.535
				C27.406,13.525,33.215,9.571,39.669,6.78 M41.381,5c-7.183,2.773-13.917,7.053-19.711,12.848
				c-22.225,22.225-22.225,58.259,0,80.483C32.782,109.444,47.346,115,61.911,115s29.129-5.556,40.242-16.669
				c5.794-5.795,10.075-12.529,12.848-19.711c-6.592,2.545-13.566,3.818-20.536,3.818c-14.564,0-29.125-5.554-40.236-16.666
				C37.798,49.342,33.518,25.366,41.381,5L41.381,5z"/>
		</g>
	</g>
</g>
</svg>
