<?xml version="1.0" encoding="iso-8859-1"?>
<!-- Generator: Adobe Illustrator 17.1.0, SVG Export Plug-In . SVG Version: 6.00 Build 0)  -->
<!DOCTYPE svg PUBLIC "-//W3C//DTD SVG 1.1//EN" "http://www.w3.org/Graphics/SVG/1.1/DTD/svg11.dtd">
<svg version="1.1" xmlns="http://www.w3.org/2000/svg" xmlns:xlink="http://www.w3.org/1999/xlink" x="0px" y="0px" width="120px"
	 height="120px" viewBox="0 0 120 120" enable-background="new 0 0 120 120" xml:space="preserve">
<g id="Layer_4" display="none">
	<circle display="inline" opacity="0.5" fill="#DF1F26" cx="60" cy="60" r="60"/>
	<rect x="6.5" y="6.5" display="inline" opacity="0.5" fill="#3B4FA1" width="107" height="107"/>
</g>
<g id="normal">
	<g>
		<g>
			<path fill-rule="evenodd" clip-rule="evenodd" fill="#ffff00" d="M101.77,57.974c-1.049-21.329-18.32-38.383-39.734-39.104V6.5
				h-4.115v12.434c-20.81,1.351-37.409,18.143-38.437,39.04H6.5v4.115h12.984c1.029,20.896,17.628,37.687,38.437,39.038V113.5h4.115
				v-12.309c21.413-0.721,38.684-17.774,39.734-39.102h11.73v-4.115H101.77z M62.036,92.009V78.767
				c-0.469,0.035-0.937,0.071-1.415,0.071c-0.919,0-1.816-0.088-2.7-0.216v13.3c-15.735-1.317-28.23-14.011-29.234-29.833h13.248
				c-0.073-0.676-0.117-1.36-0.117-2.055c0-0.697,0.044-1.383,0.118-2.06H28.686c1.005-15.822,13.499-28.516,29.234-29.833v13.305
				c0.884-0.128,1.781-0.216,2.7-0.216c0.478,0,0.946,0.036,1.415,0.071V28.056c16.339,0.71,29.494,13.666,30.526,29.919H79.307
				c0.074,0.677,0.118,1.363,0.118,2.06c0,0.695-0.044,1.38-0.117,2.055h13.255C91.53,78.343,78.375,91.299,62.036,92.009z"/>
		</g>
	</g>
</g>
<g id="active">
	<g>
		<g>
			<path fill-rule="evenodd" clip-rule="evenodd" fill="#ffff00" d="M101.77,57.974c-1.049-21.329-18.32-38.383-39.734-39.104V6.5
				h-4.115v12.434c-20.81,1.351-37.409,18.143-38.437,39.04H6.5v4.115h12.984c1.029,20.896,17.628,37.687,38.437,39.038V113.5h4.115
				v-12.309c21.413-0.721,38.684-17.774,39.734-39.102h11.73v-4.115H101.77z M62.036,92.009V78.767
				c-0.469,0.035-0.937,0.071-1.415,0.071c-0.919,0-1.816-0.088-2.7-0.216v13.3c-15.735-1.317-28.23-14.011-29.234-29.833h13.248
				c-0.073-0.676-0.117-1.36-0.117-2.055c0-0.697,0.044-1.383,0.118-2.06H28.686c1.005-15.822,13.499-28.516,29.234-29.833v13.305
				c0.884-0.128,1.781-0.216,2.7-0.216c0.478,0,0.946,0.036,1.415,0.071V28.056c16.339,0.71,29.494,13.666,30.526,29.919H79.307
				c0.074,0.677,0.118,1.363,0.118,2.06c0,0.695-0.044,1.38-0.117,2.055h13.255C91.53,78.343,78.375,91.299,62.036,92.009z"/>
		</g>
	</g>
</g>
<g id="disabled" opacity="0.2">
	<g>
		<g>
			<path fill-rule="evenodd" clip-rule="evenodd" fill="#ffff00" d="M101.77,57.974c-1.049-21.329-18.32-38.383-39.734-39.104V6.5
				h-4.115v12.434c-20.81,1.351-37.409,18.143-38.437,39.04H6.5v4.115h12.984c1.029,20.896,17.628,37.687,38.437,39.038V113.5h4.115
				v-12.309c21.413-0.721,38.684-17.774,39.734-39.102h11.73v-4.115H101.77z M62.036,92.009V78.767
				c-0.469,0.035-0.937,0.071-1.415,0.071c-0.919,0-1.816-0.088-2.7-0.216v13.3c-15.735-1.317-28.23-14.011-29.234-29.833h13.248
				c-0.073-0.676-0.117-1.36-0.117-2.055c0-0.697,0.044-1.383,0.118-2.06H28.686c1.005-15.822,13.499-28.516,29.234-29.833v13.305
				c0.884-0.128,1.781-0.216,2.7-0.216c0.478,0,0.946,0.036,1.415,0.071V28.056c16.339,0.71,29.494,13.666,30.526,29.919H79.307
				c0.074,0.677,0.118,1.363,0.118,2.06c0,0.695-0.044,1.38-0.117,2.055h13.255C91.53,78.343,78.375,91.299,62.036,92.009z"/>
		</g>
	</g>
</g>
</svg>
