<?xml version="1.0" encoding="utf-8"?>
<!-- Generator: Adobe Illustrator 15.0.0, SVG Export Plug-In . SVG Version: 6.00 Build 0)  -->
<!DOCTYPE svg PUBLIC "-//W3C//DTD SVG 1.1//EN" "http://www.w3.org/Graphics/SVG/1.1/DTD/svg11.dtd">
<svg version="1.1" id="Layer_1" xmlns="http://www.w3.org/2000/svg" xmlns:xlink="http://www.w3.org/1999/xlink" x="0px" y="0px"
	 width="120px" height="120px" viewBox="0 0 120 120" enable-background="new 0 0 120 120" xml:space="preserve">
<g id="Layer_2" display="none">
	<circle display="inline" opacity="0.5" fill="#DF1F26" enable-background="new    " cx="60" cy="60" r="60"/>
	<rect x="6.5" y="6.5" display="inline" opacity="0.5" fill="#3B4FA1" enable-background="new    " width="107" height="107"/>
</g>
<g id="normal">
	<polygon fill="#00A000" points="50,89.3 35.8,75.3 115.6,75.3 102.9,101.7 37.5,101.7 	"/>
	<path fill="#FFA000" d="M79.8,53.7L68.6,41.8c0,0-13.3-18.9-34.899,1.2c-21.6,20.1-3.5,34.5-3.5,34.5l11.2,11.9l-21.6,20.1
		l-11.2-12l9.6-8.9c0,0-29.4-26.3,4.2-57.5C56-0.1,80.6,30.7,80.6,30.7l9.601-8.9l11.2,11.9L79.8,53.7L79.8,53.7z M108.1,40.8
		l-6.699-7.1L90.2,21.8l-6.7-7.1l28-3.7l2.2,2.4L108.1,40.8L108.1,40.8z"/>
	<path fill="#00A000" d="M45.3,72.8c0-13.6-5.8-14.3-5.8-14.3v-2.7h4.9c0.4,0,0.7,0.1,1,0.4l3.7,3.7l3.7-5.4
		c0.3-0.4,0.8-0.7,1.3-0.7h19.2c0.5,0,0.9,0.2,1.2,0.6l5.5,6.8c0.3,0.3,0.7,0.5,1.1,0.5h11c0.7,0,1.301,0.3,1.801,0.8l5.1,5.1
		c0.3,0.301,0.5,0.801,0.5,1.301V71.6c0,0.7-0.6,1.301-1.3,1.301H45.3V72.8z M84.6,76.6L82,72.8h9.6L89,76.6c-0.4,0.601-1.1,1-1.8,1
		h-0.9C85.6,77.5,85,77.2,84.6,76.6z M51,76.6l-2.5-3.8h9.6l-2.5,3.8c-0.4,0.601-1.1,1-1.8,1h-0.9C52.1,77.5,51.4,77.2,51,76.6z"/>
</g>
<g id="active">
	<polygon fill="#00A000" points="50,89.3 35.8,75.3 115.6,75.3 102.9,101.7 37.5,101.7 	"/>
	<path fill="#FFA000" d="M79.8,53.7L68.6,41.8c0,0-13.3-18.9-34.899,1.2c-21.6,20.1-3.5,34.5-3.5,34.5l11.2,11.9l-21.6,20.1
		l-11.2-12l9.6-8.9c0,0-29.4-26.3,4.2-57.5C56-0.1,80.6,30.7,80.6,30.7l9.601-8.9l11.2,11.9L79.8,53.7L79.8,53.7z M108.1,40.8
		l-6.699-7.1L90.2,21.8l-6.7-7.1l28-3.7l2.2,2.4L108.1,40.8L108.1,40.8z"/>
	<path fill="#00A000" d="M45.3,72.8c0-13.6-5.8-14.3-5.8-14.3v-2.7h4.9c0.4,0,0.7,0.1,1,0.4l3.7,3.7l3.7-5.4
		c0.3-0.4,0.8-0.7,1.3-0.7h19.2c0.5,0,0.9,0.2,1.2,0.6l5.5,6.8c0.3,0.3,0.7,0.5,1.1,0.5h11c0.7,0,1.301,0.3,1.801,0.8l5.1,5.1
		c0.3,0.301,0.5,0.801,0.5,1.301V71.6c0,0.7-0.6,1.301-1.3,1.301H45.3V72.8z M84.6,76.6L82,72.8h9.6L89,76.6c-0.4,0.601-1.1,1-1.8,1
		h-0.9C85.6,77.5,85,77.2,84.6,76.6z M51,76.6l-2.5-3.8h9.6l-2.5,3.8c-0.4,0.601-1.1,1-1.8,1h-0.9C52.1,77.5,51.4,77.2,51,76.6z"/>
</g>
<g id="disabled" opacity="0.2">
	<polygon points="50,89.3 35.8,75.3 115.6,75.3 102.9,101.7 37.5,101.7 	"/>
	<path fill="#3A3A3A" d="M79.8,53.7L68.6,41.8c0,0-13.3-18.9-34.899,1.2c-21.6,20.1-3.5,34.5-3.5,34.5l11.2,11.9l-21.6,20.1
		l-11.2-12l9.6-8.9c0,0-29.4-26.3,4.2-57.5C56-0.1,80.6,30.7,80.6,30.7l9.601-8.9l11.2,11.9L79.8,53.7L79.8,53.7z M108.1,40.8
		l-6.699-7.1L90.2,21.8l-6.7-7.1l28-3.7l2.2,2.4L108.1,40.8L108.1,40.8z"/>
	<path fill="#3A3A3A" d="M45.3,72.8c0-13.6-5.8-14.3-5.8-14.3v-2.7h4.9c0.4,0,0.7,0.1,1,0.4l3.7,3.7l3.7-5.4
		c0.3-0.4,0.8-0.7,1.3-0.7h19.2c0.5,0,0.9,0.2,1.2,0.6l5.5,6.8c0.3,0.3,0.7,0.5,1.1,0.5h11c0.7,0,1.301,0.3,1.801,0.8l5.1,5.1
		c0.3,0.301,0.5,0.801,0.5,1.301V71.6c0,0.7-0.6,1.301-1.3,1.301H45.3V72.8z M84.6,76.6L82,72.8h9.6L89,76.6c-0.4,0.601-1.1,1-1.8,1
		h-0.9C85.6,77.5,85,77.2,84.6,76.6z M51,76.6l-2.5-3.8h9.6l-2.5,3.8c-0.4,0.601-1.1,1-1.8,1h-0.9C52.1,77.5,51.4,77.2,51,76.6z"/>
</g>
</svg>
