<?xml version="1.0" encoding="utf-8"?>
<!-- Generator: Adobe Illustrator 16.0.0, SVG Export Plug-In . SVG Version: 6.00 Build 0)  -->
<!DOCTYPE svg PUBLIC "-//W3C//DTD SVG 1.1//EN" "http://www.w3.org/Graphics/SVG/1.1/DTD/svg11.dtd">
<svg version="1.1" id="Слой_1" xmlns="http://www.w3.org/2000/svg" xmlns:xlink="http://www.w3.org/1999/xlink" x="0px" y="0px"
	 width="120px" height="120px" viewBox="0 0 120 120" enable-background="new 0 0 120 120" xml:space="preserve">
<g id="normal">
	<linearGradient id="SVGID_1_" gradientUnits="userSpaceOnUse" x1="60" y1="113.5" x2="60" y2="6.501">
		<stop  offset="0" style="stop-color:#E1DEDB"/>
		<stop  offset="0" style="stop-color:#D8D4D1"/>
		<stop  offset="0.0553" style="stop-color:#C9C5C3"/>
		<stop  offset="0.161" style="stop-color:#A49E9F"/>
		<stop  offset="0.264" style="stop-color:#797377"/>
		<stop  offset="0.5225" style="stop-color:#F2F2F2"/>
		<stop  offset="0.5775" style="stop-color:#E4E3E3"/>
		<stop  offset="0.6832" style="stop-color:#BFBCBD"/>
		<stop  offset="0.8274" style="stop-color:#837E7F"/>
		<stop  offset="0.8764" style="stop-color:#6D6769"/>
		<stop  offset="1" style="stop-color:#C9C8C8"/>
		<stop  offset="1" style="stop-color:#979695"/>
	</linearGradient>
	<path fill="url(#SVGID_1_)" d="M29.536,102.307c-2.526,0-4.593-2.066-4.593-4.593V21.462c0-2.526,2.067-4.593,4.593-4.593h8.121
		c2.526,0,4.593,2.067,4.593,4.593v76.253c0,2.526-2.067,4.594-4.593,4.594h-8.121V102.307z M44.938,69.813
		c-1.864-1.705-3.389-5.166-3.389-7.692v-8.614c0-2.526,1.589-5.914,3.531-7.529L91.525,7.354c1.941-1.615,3.531-0.87,3.531,1.656
		v102.055c0,2.525-1.525,3.197-3.39,1.492L44.938,69.813z"/>
</g>
<g id="active">
	<linearGradient id="SVGID_2_" gradientUnits="userSpaceOnUse" x1="60" y1="113.5" x2="60" y2="6.501">
		<stop  offset="0" style="stop-color:#E1DEDB"/>
		<stop  offset="0" style="stop-color:#D8D4D1"/>
		<stop  offset="0.0553" style="stop-color:#C9C5C3"/>
		<stop  offset="0.161" style="stop-color:#A49E9F"/>
		<stop  offset="0.264" style="stop-color:#797377"/>
		<stop  offset="0.5225" style="stop-color:#F2F2F2"/>
		<stop  offset="0.5775" style="stop-color:#E4E3E3"/>
		<stop  offset="0.6832" style="stop-color:#BFBCBD"/>
		<stop  offset="0.8274" style="stop-color:#837E7F"/>
		<stop  offset="0.8764" style="stop-color:#6D6769"/>
		<stop  offset="1" style="stop-color:#C9C8C8"/>
		<stop  offset="1" style="stop-color:#979695"/>
	</linearGradient>
	<path fill="url(#SVGID_2_)" d="M29.536,102.307c-2.526,0-4.593-2.066-4.593-4.593V21.462c0-2.526,2.067-4.593,4.593-4.593h8.121
		c2.526,0,4.593,2.067,4.593,4.593v76.253c0,2.526-2.067,4.594-4.593,4.594h-8.121V102.307z M44.938,69.813
		c-1.864-1.705-3.389-5.166-3.389-7.692v-8.614c0-2.526,1.589-5.914,3.531-7.529L91.525,7.354c1.941-1.615,3.531-0.87,3.531,1.656
		v102.055c0,2.525-1.525,3.197-3.39,1.492L44.938,69.813z"/>
</g>
<g id="disabled" opacity="0.2">
	<linearGradient id="SVGID_3_" gradientUnits="userSpaceOnUse" x1="60" y1="113.5" x2="60" y2="6.501">
		<stop  offset="0" style="stop-color:#E1DEDB"/>
		<stop  offset="0" style="stop-color:#D8D4D1"/>
		<stop  offset="0.0553" style="stop-color:#C9C5C3"/>
		<stop  offset="0.161" style="stop-color:#A49E9F"/>
		<stop  offset="0.264" style="stop-color:#797377"/>
		<stop  offset="0.5225" style="stop-color:#F2F2F2"/>
		<stop  offset="0.5775" style="stop-color:#E4E3E3"/>
		<stop  offset="0.6832" style="stop-color:#BFBCBD"/>
		<stop  offset="0.8274" style="stop-color:#837E7F"/>
		<stop  offset="0.8764" style="stop-color:#6D6769"/>
		<stop  offset="1" style="stop-color:#C9C8C8"/>
		<stop  offset="1" style="stop-color:#979695"/>
	</linearGradient>
	<path fill="url(#SVGID_3_)" d="M29.536,102.307c-2.526,0-4.593-2.066-4.593-4.593V21.462c0-2.526,2.067-4.593,4.593-4.593h8.121
		c2.526,0,4.593,2.067,4.593,4.593v76.253c0,2.526-2.067,4.594-4.593,4.594h-8.121V102.307z M44.938,69.813
		c-1.864-1.705-3.389-5.166-3.389-7.692v-8.614c0-2.526,1.589-5.914,3.531-7.529L91.525,7.354c1.941-1.615,3.531-0.87,3.531,1.656
		v102.055c0,2.525-1.525,3.197-3.39,1.492L44.938,69.813z"/>
</g>
</svg>
