<?xml version="1.0" encoding="utf-8"?>
<!-- Generator: Adobe Illustrator 16.0.0, SVG Export Plug-In . SVG Version: 6.00 Build 0)  -->
<!DOCTYPE svg PUBLIC "-//W3C//DTD SVG 1.1//EN" "http://www.w3.org/Graphics/SVG/1.1/DTD/svg11.dtd">
<svg version="1.1" id="Слой_1" xmlns="http://www.w3.org/2000/svg" xmlns:xlink="http://www.w3.org/1999/xlink" x="0px" y="0px"
	 width="120px" height="120px" viewBox="0 0 120 120" enable-background="new 0 0 120 120" xml:space="preserve">
<g id="normal_1_">
	<path id="path9383" fill="#FFFFFF" stroke="#000000" stroke-width="3.6769" stroke-linecap="round" stroke-linejoin="round" d="
		M55.077,71.986c4.75,4.982,7.772,13.911,14.464,13.911c6.477-1.73,7.34-16.542,8.203-19.726
		C70.404,71.018,62.85,73.785,55.077,71.986L55.077,71.986z"/>
	<path id="path4369" fill="#328ADA" stroke="#000000" stroke-width="3.6769" stroke-linecap="round" stroke-linejoin="round" d="
		M26.079,97.756c-0.391,24.223,64.239,26.994,64.081,0C91.705,76.29,80.6,64.085,77.84,66.16c-1.4,1.053-1.922,24.452-11.389,19.07
		c-4.604-2.616-9.751-12.668-12.004-13.003c-3.399-0.502-9.908-3.147-15.886-8.099C36.993,62.83,26.607,76.184,26.079,97.756
		L26.079,97.756z"/>
	<path id="path3713" fill="#F4D2BA" stroke="#000000" stroke-width="2.9415" stroke-linecap="round" stroke-linejoin="round" d="
		M86.137,47.548c0-13.542-12.029-24.52-26.867-24.52c-14.838,0-26.867,10.978-26.867,24.52c0,13.542,12.029,24.521,26.867,24.521
		C74.107,72.068,86.137,61.09,86.137,47.548L86.137,47.548z"/>
	<path id="path14564" fill="#F5CB00" stroke="#000000" stroke-width="3.6769" stroke-linecap="round" stroke-linejoin="round" d="
		M54.807,5.067C15.8,12.434,27.814,64.01,40.453,35.806c2.589,8.562,35.584,13.056,35.693,9.521
		c1.15-37.436,0.525,1.438,11.951,1.694C100.576,28.641,82.455,2.66,54.807,5.067L54.807,5.067z"/>
	
		<radialGradient id="path2861_3_" cx="-233.2568" cy="470.8535" r="0.5461" fx="-233.2517" fy="470.8457" gradientTransform="matrix(59.7357 0 0 -37.6956 13982.8682 17772.4297)" gradientUnits="userSpaceOnUse">
		<stop  offset="0" style="stop-color:#FFFFFF;stop-opacity:0.775"/>
		<stop  offset="1" style="stop-color:#FFFFFF;stop-opacity:0"/>
	</radialGradient>
	<path id="path2861" fill="url(#path2861_3_)" d="M54.8,4.685C39.035,6.81,25.882,23.219,31.091,38.292
		c4.358,5.313,5.557-8.085,9.812-6.215c7.513,8.258,20.645,9.835,31.611,10.093c3.172-2.815,0.771-10.654,2.098-15.342
		c5.443-5.566,5.549,7.064,7.918,10.254c1.934,6.905,6.467,5.318,6.717-1.138C92.836,17.479,72.834,2.508,54.8,4.685L54.8,4.685z"/>
	
		<radialGradient id="path2864_3_" cx="-233.4019" cy="473.0625" r="0.5" fx="-233.4085" fy="473.0469" gradientTransform="matrix(59.8953 0 0 -48.0226 14020.1133 22798.7461)" gradientUnits="userSpaceOnUse">
		<stop  offset="0" style="stop-color:#FFFFFF;stop-opacity:0.775"/>
		<stop  offset="1" style="stop-color:#FFFFFF;stop-opacity:0"/>
	</radialGradient>
	<path id="path2864" fill="url(#path2864_3_)" d="M38.548,68.65c-7.074,9.915-10.31,22.582-9,34.489
		c6.375,12.513,23.415,14.244,36.333,13.325c10.725-0.593,24.443-6.802,23.197-18.974c0.182-9.566-1.381-20.466-8.844-27.399
		c-2.139,6.639-1.363,17.238-9.844,19.558c-9.955-0.777-10.955-14.352-20.741-15.453C45.663,73.315,41.721,68.702,38.548,68.65
		L38.548,68.65z"/>
</g>
<g id="active_1_">
	<path id="path9383_1_" fill="#FFFFFF" stroke="#000000" stroke-width="3.6769" stroke-linecap="round" stroke-linejoin="round" d="
		M55.077,71.986c4.75,4.982,7.772,13.911,14.464,13.911c6.477-1.73,7.34-16.542,8.203-19.726
		C70.404,71.018,62.85,73.785,55.077,71.986L55.077,71.986z"/>
	<path id="path4369_1_" fill="#328ADA" stroke="#000000" stroke-width="3.6769" stroke-linecap="round" stroke-linejoin="round" d="
		M26.079,97.756c-0.391,24.223,64.239,26.994,64.081,0C91.705,76.29,80.6,64.085,77.84,66.16c-1.4,1.053-1.922,24.452-11.389,19.07
		c-4.604-2.616-9.751-12.668-12.004-13.003c-3.399-0.502-9.908-3.147-15.886-8.099C36.993,62.83,26.607,76.184,26.079,97.756
		L26.079,97.756z"/>
	<path id="path3713_1_" fill="#F4D2BA" stroke="#000000" stroke-width="2.9415" stroke-linecap="round" stroke-linejoin="round" d="
		M86.137,47.548c0-13.542-12.029-24.52-26.867-24.52c-14.838,0-26.867,10.978-26.867,24.52c0,13.542,12.029,24.521,26.867,24.521
		C74.107,72.068,86.137,61.09,86.137,47.548L86.137,47.548z"/>
	
		<path id="path14564_1_" fill="#F5CB00" stroke="#000000" stroke-width="3.6769" stroke-linecap="round" stroke-linejoin="round" d="
		M54.807,5.067C15.8,12.434,27.814,64.01,40.453,35.806c2.589,8.562,35.584,13.056,35.693,9.521
		c1.15-37.436,0.525,1.438,11.951,1.694C100.576,28.641,82.455,2.66,54.807,5.067L54.807,5.067z"/>
	
		<radialGradient id="path2861_4_" cx="-233.2568" cy="470.8535" r="0.5461" fx="-233.2517" fy="470.8457" gradientTransform="matrix(59.7357 0 0 -37.6956 13982.8682 17772.4297)" gradientUnits="userSpaceOnUse">
		<stop  offset="0" style="stop-color:#FFFFFF;stop-opacity:0.775"/>
		<stop  offset="1" style="stop-color:#FFFFFF;stop-opacity:0"/>
	</radialGradient>
	<path id="path2861_1_" fill="url(#path2861_4_)" d="M54.8,4.685C39.035,6.81,25.882,23.219,31.091,38.292
		c4.358,5.313,5.557-8.085,9.812-6.215c7.513,8.258,20.645,9.835,31.611,10.093c3.172-2.815,0.771-10.654,2.098-15.342
		c5.443-5.566,5.549,7.064,7.918,10.254c1.934,6.905,6.467,5.318,6.717-1.138C92.836,17.479,72.834,2.508,54.8,4.685L54.8,4.685z"/>
	
		<radialGradient id="path2864_4_" cx="-233.4019" cy="473.0625" r="0.5" fx="-233.4085" fy="473.0469" gradientTransform="matrix(59.8953 0 0 -48.0226 14020.1133 22798.7461)" gradientUnits="userSpaceOnUse">
		<stop  offset="0" style="stop-color:#FFFFFF;stop-opacity:0.775"/>
		<stop  offset="1" style="stop-color:#FFFFFF;stop-opacity:0"/>
	</radialGradient>
	<path id="path2864_1_" fill="url(#path2864_4_)" d="M38.548,68.65c-7.074,9.915-10.31,22.582-9,34.489
		c6.375,12.513,23.415,14.244,36.333,13.325c10.725-0.593,24.443-6.802,23.197-18.974c0.182-9.566-1.381-20.466-8.844-27.399
		c-2.139,6.639-1.363,17.238-9.844,19.558c-9.955-0.777-10.955-14.352-20.741-15.453C45.663,73.315,41.721,68.702,38.548,68.65
		L38.548,68.65z"/>
</g>
<g id="disabled_1_" opacity="0.2">
	<path id="path9383_2_" fill="#FFFFFF" stroke="#000000" stroke-width="3.6769" stroke-linecap="round" stroke-linejoin="round" d="
		M55.077,71.986c4.75,4.982,7.772,13.911,14.464,13.911c6.477-1.73,7.34-16.542,8.203-19.726
		C70.404,71.018,62.85,73.785,55.077,71.986L55.077,71.986z"/>
	<path id="path4369_2_" fill="#666666" stroke="#000000" stroke-width="3.6769" stroke-linecap="round" stroke-linejoin="round" d="
		M26.079,97.756c-0.391,24.223,64.239,26.994,64.081,0C91.705,76.29,80.6,64.085,77.84,66.16c-1.4,1.053-1.922,24.452-11.389,19.07
		c-4.604-2.616-9.751-12.668-12.004-13.003c-3.399-0.502-9.908-3.147-15.886-8.099C36.993,62.83,26.607,76.184,26.079,97.756
		L26.079,97.756z"/>
	<path id="path3713_2_" fill="#CCCCCC" stroke="#000000" stroke-width="2.9415" stroke-linecap="round" stroke-linejoin="round" d="
		M86.137,47.548c0-13.542-12.029-24.52-26.867-24.52c-14.838,0-26.867,10.978-26.867,24.52c0,13.542,12.029,24.521,26.867,24.521
		C74.107,72.068,86.137,61.09,86.137,47.548L86.137,47.548z"/>
	
		<path id="path14564_2_" fill="#999999" stroke="#000000" stroke-width="3.6769" stroke-linecap="round" stroke-linejoin="round" d="
		M54.807,5.067C15.8,12.434,27.814,64.01,40.453,35.806c2.589,8.562,35.584,13.056,35.693,9.521
		c1.15-37.436,0.525,1.438,11.951,1.694C100.576,28.641,82.455,2.66,54.807,5.067L54.807,5.067z"/>
	
		<radialGradient id="path2861_5_" cx="-233.2568" cy="470.8535" r="0.5461" fx="-233.2517" fy="470.8457" gradientTransform="matrix(59.7357 0 0 -37.6956 13982.8682 17772.4297)" gradientUnits="userSpaceOnUse">
		<stop  offset="0" style="stop-color:#FFFFFF;stop-opacity:0.775"/>
		<stop  offset="1" style="stop-color:#FFFFFF;stop-opacity:0"/>
	</radialGradient>
	<path id="path2861_2_" fill="url(#path2861_5_)" d="M54.8,4.685C39.035,6.81,25.882,23.219,31.091,38.292
		c4.358,5.313,5.557-8.085,9.812-6.215c7.513,8.258,20.645,9.835,31.611,10.093c3.172-2.815,0.771-10.654,2.098-15.342
		c5.443-5.566,5.549,7.064,7.918,10.254c1.934,6.905,6.467,5.318,6.717-1.138C92.836,17.479,72.834,2.508,54.8,4.685L54.8,4.685z"/>
	
		<radialGradient id="path2864_5_" cx="-233.4019" cy="473.0625" r="0.5" fx="-233.4085" fy="473.0469" gradientTransform="matrix(59.8953 0 0 -48.0226 14020.1133 22798.7461)" gradientUnits="userSpaceOnUse">
		<stop  offset="0" style="stop-color:#FFFFFF;stop-opacity:0.775"/>
		<stop  offset="1" style="stop-color:#FFFFFF;stop-opacity:0"/>
	</radialGradient>
	<path id="path2864_2_" fill="url(#path2864_5_)" d="M38.548,68.65c-7.074,9.915-10.31,22.582-9,34.489
		c6.375,12.513,23.415,14.244,36.333,13.325c10.725-0.593,24.443-6.802,23.197-18.974c0.182-9.566-1.381-20.466-8.844-27.399
		c-2.139,6.639-1.363,17.238-9.844,19.558c-9.955-0.777-10.955-14.352-20.741-15.453C45.663,73.315,41.721,68.702,38.548,68.65
		L38.548,68.65z"/>
</g>
</svg>
