<?xml version="1.0" encoding="utf-8"?>
<!-- Generator: Adobe Illustrator 19.2.1, SVG Export Plug-In . SVG Version: 6.00 Build 0)  -->
<svg version="1.1"
	 id="Layer_1" inkscape:version="0.48.5 r10040" sodipodi:docname="ico_route_umweltzone.svg" xmlns:cc="http://creativecommons.org/ns#" xmlns:dc="http://purl.org/dc/elements/1.1/" xmlns:inkscape="http://www.inkscape.org/namespaces/inkscape" xmlns:rdf="http://www.w3.org/1999/02/22-rdf-syntax-ns#" xmlns:sodipodi="http://sodipodi.sourceforge.net/DTD/sodipodi-0.dtd" xmlns:svg="http://www.w3.org/2000/svg"
	 xmlns="http://www.w3.org/2000/svg" xmlns:xlink="http://www.w3.org/1999/xlink" x="0px" y="0px" viewBox="0 0 120 120"
	 enable-background="new 0 0 120 120" xml:space="preserve">
<g id="normal">
	<g id="LWPOLYLINE">
		<g>
			
				<radialGradient id="path3011_2_" cx="60.0024" cy="59.9979" r="45.2493" gradientTransform="matrix(1.1175 0 0 -1.0698 -7.05 124.1909)" gradientUnits="userSpaceOnUse">
				<stop  offset="0" style="stop-color:#A1420E"/>
				<stop  offset="0" style="stop-color:#EE6321"/>
				<stop  offset="0" style="stop-color:#EF6920"/>
				<stop  offset="0" style="stop-color:#F1791C"/>
				<stop  offset="0" style="stop-color:#F49516"/>
				<stop  offset="0" style="stop-color:#F9BB0D"/>
				<stop  offset="0" style="stop-color:#FEEC02"/>
				<stop  offset="0" style="stop-color:#FFF101"/>
				<stop  offset="0" style="stop-color:#FFF101"/>
				<stop  offset="0.2765" style="stop-color:#FFEE02"/>
				<stop  offset="0.4407" style="stop-color:#FEE603"/>
				<stop  offset="0.5756" style="stop-color:#FCD807"/>
				<stop  offset="0.6946" style="stop-color:#FAC40B"/>
				<stop  offset="0.8032" style="stop-color:#F6AA11"/>
				<stop  offset="0.9026" style="stop-color:#F38A18"/>
				<stop  offset="0.996" style="stop-color:#EE6521"/>
				<stop  offset="1" style="stop-color:#EE6321"/>
				<stop  offset="1" style="stop-color:#CC6600"/>
			</radialGradient>
			<path id="path3011_1_" fill="url(#path3011_2_)" d="M109.223,72.368c7.077-4.814,8.569-13.908,3.725-20.683
				c-1.863-2.496-4.283-4.279-7.262-5.349c2.981-6.598-0.371-14.264-7.262-16.939c-3.915-1.605-8.571-1.249-12.296,0.891
				c-1.12-8.203-9.124-14.087-17.694-13.017c-5.96,0.714-10.988,4.636-12.851,10.164c-4.097-6.954-13.223-9.45-20.487-5.528
				c-4.657,2.496-7.636,7.31-7.636,12.482c-6.518-3.744-15.086-1.783-18.998,4.636c-3.167,4.993-2.422,11.591,1.676,15.87
				c-6.519,4.636-7.823,13.373-2.98,19.614C9.206,77,12,78.783,15.167,79.675c-0.559,7.133,5.029,13.555,12.479,14.264
				c3.725,0.356,7.45-0.891,10.244-3.21c-0.187,6.421,5.029,11.947,11.92,12.125c6.146,0.182,11.362-3.919,12.479-9.625
				c2.423,7.31,10.616,11.233,18.067,8.915c5.029-1.605,8.753-5.528,9.685-10.342c7.634,3.033,16.387-0.353,19.554-7.665
				C111.086,80.035,110.899,75.933,109.223,72.368z"/>
			
				<linearGradient id="SVGID_1_" gradientUnits="userSpaceOnUse" x1="60" y1="105" x2="60" y2="15" gradientTransform="matrix(1 0 0 -1 0 120)">
				<stop  offset="0" style="stop-color:#FFFFFF"/>
				<stop  offset="0.5218" style="stop-color:#C4C4C4"/>
				<stop  offset="1" style="stop-color:#8A8A8A"/>
			</linearGradient>
			<path fill="url(#SVGID_1_)" d="M50.205,105c-0.154,0-0.308-0.003-0.463-0.007c-3.905-0.1-7.524-1.664-10.183-4.403
				c-1.705-1.756-2.887-3.858-3.477-6.13c-2.685,1.315-5.697,1.89-8.658,1.608c-8.053-0.767-14.246-7.274-14.521-14.881
				c-2.96-1.127-5.53-2.958-7.502-5.358c-2.736-3.525-3.869-7.784-3.226-12.038c0.534-3.533,2.243-6.728,4.879-9.188
				C3.544,49.666,3.27,43.088,6.552,37.913c2.148-3.527,5.633-6.049,9.793-7.071c3.088-0.758,6.265-0.629,9.209,0.344
				c0.969-4.669,4.024-8.775,8.45-11.147c7.075-3.821,15.816-2.295,21.136,3.205c2.774-4.392,7.558-7.443,13.017-8.096
				c8.834-1.109,17.031,4.152,19.553,12.051c3.766-1.329,7.927-1.274,11.594,0.23c3.879,1.504,6.924,4.419,8.537,8.19
				c1.322,3.09,1.531,6.418,0.631,9.563c2.499,1.239,4.61,3.001,6.294,5.258c5.275,7.377,3.941,16.982-2.857,22.625
				c1.317,3.732,1.254,7.768-0.202,11.774c-0.014,0.039-0.029,0.078-0.046,0.116c-1.759,4.063-5.07,7.214-9.323,8.874
				c-3.454,1.349-7.198,1.585-10.765,0.711c-1.684,4.461-5.534,8.045-10.509,9.633c-4.221,1.312-8.717,0.959-12.68-0.989
				c-2.344-1.153-4.324-2.782-5.829-4.761C59.972,102.435,55.372,104.999,50.205,105z M37.891,88.59
				c0.324,0,0.651,0.068,0.956,0.206c0.801,0.364,1.302,1.145,1.277,1.993c-0.074,2.565,0.888,5.012,2.709,6.887
				c1.834,1.89,4.334,2.969,7.037,3.039c4.999,0.16,9.299-3.167,10.222-7.881c0.189-0.964,1.038-1.682,2.06-1.742
				c1.009-0.069,1.957,0.553,2.267,1.489c0.981,2.96,3.115,5.373,6.007,6.796c2.894,1.424,6.177,1.685,9.239,0.73
				c4.264-1.36,7.403-4.695,8.178-8.697c0.123-0.635,0.539-1.183,1.132-1.491c0.594-0.308,1.3-0.343,1.923-0.096
				c3.151,1.252,6.612,1.267,9.752,0.042c3.118-1.217,5.551-3.522,6.856-6.493c1.258-3.503,1.147-7.004-0.322-10.128
				c-0.438-0.931-0.127-2.03,0.744-2.621c5.98-4.068,7.375-11.857,3.175-17.731c-1.589-2.128-3.625-3.629-6.202-4.555
				c-0.573-0.206-1.033-0.627-1.272-1.166c-0.239-0.539-0.237-1.149,0.005-1.686c1.192-2.636,1.217-5.564,0.07-8.244
				c-1.154-2.696-3.326-4.778-6.12-5.862c-3.261-1.337-7.195-1.045-10.305,0.743c-0.647,0.37-1.445,0.406-2.123,0.092
				c-0.679-0.314-1.146-0.934-1.244-1.649c-0.967-7.086-7.782-12.094-15.189-11.172c-5.12,0.613-9.439,4.027-11.013,8.699
				c-0.272,0.809-1.019,1.386-1.902,1.472c-0.877,0.085-1.735-0.337-2.172-1.078c-3.482-5.912-11.307-8.026-17.442-4.715
				c-4.011,2.15-6.499,6.217-6.499,10.618c0,0.771-0.433,1.482-1.134,1.862c-0.7,0.38-1.561,0.37-2.251-0.027
				c-2.682-1.539-5.825-1.979-8.854-1.235c-2.993,0.735-5.501,2.551-7.063,5.115c-2.637,4.159-2.043,9.758,1.393,13.346
				c0.428,0.447,0.638,1.046,0.578,1.649c-0.06,0.603-0.385,1.153-0.893,1.514c-2.669,1.898-4.399,4.666-4.871,7.794
				c-0.473,3.127,0.363,6.261,2.352,8.826c1.711,2.081,4.091,3.615,6.845,4.39c1.011,0.284,1.677,1.207,1.599,2.213
				c-0.471,6.008,4.227,11.381,10.471,11.975c3.026,0.291,6.145-0.694,8.559-2.698C36.841,88.768,37.363,88.59,37.891,88.59z
				 M109.596,84.136h0.011H109.596z"/>
		</g>
	</g>
	<g id="g3013">
		<path id="path3015" stroke="#000000" stroke-miterlimit="10" d="M67.503,40.807c-6.708,0-12.106,5.171-12.106,11.59v9.985
			c0,6.423,5.401,11.591,12.106,11.591s12.106-5.167,12.106-11.59v-9.985C79.609,45.978,74.208,40.807,67.503,40.807z
			 M74.953,62.383c0,3.923-3.355,7.133-7.45,7.133c-4.098,0-7.45-3.21-7.45-7.133v-9.985c0-3.923,3.353-7.133,7.45-7.133
			c4.096,0,7.45,3.21,7.45,7.133V62.383z"/>
	</g>
	<g id="LWPOLYLINE_3_">
		<path id="path3018" stroke="#000000" stroke-miterlimit="10" d="M46.084,62.383c0,3.923-3.353,7.133-7.45,7.133
			s-7.45-3.21-7.45-7.133v-9.985c0-3.923,3.353-7.133,7.45-7.133s7.45,3.21,7.45,7.133h4.657c0-6.419-5.401-11.59-12.106-11.59
			s-12.106,5.171-12.106,11.59v9.985c0,6.422,5.401,11.59,12.106,11.59s12.106-5.167,12.106-11.59H46.084z"/>
	</g>
	<g id="LWPOLYLINE_4_">
		<path id="path3021" stroke="#000000" stroke-miterlimit="10" d="M94.695,76.826h-7.45v-0.356l5.961-6.598
			c1.863-1.961,1.674-4.993-0.559-6.775c-2.235-1.783-5.216-1.605-7.079,0.535c-0.743,0.891-1.302,1.961-1.302,3.208v1.783h2.794
			V66.84c0-0.535,0.187-1.07,0.559-1.426c0.743-0.891,2.235-1.07,3.166-0.179s1.118,2.14,0.187,3.031l-6.705,7.311v4.101h10.43
			V76.826z"/>
	</g>
</g>
</svg>
