<?xml version="1.0" encoding="utf-8"?>
<!-- Generator: Adobe Illustrator 19.2.1, SVG Export Plug-In . SVG Version: 6.00 Build 0)  -->
<svg version="1.1" id="Layer_1" xmlns="http://www.w3.org/2000/svg" xmlns:xlink="http://www.w3.org/1999/xlink" x="0px" y="0px"
	 viewBox="0 0 120 120" enable-background="new 0 0 120 120" xml:space="preserve">
<g id="normal">
	<g>
		<path fill="#E5E503" d="M107.249,57.211l0.001,4.385L86.297,83.712h-4.155L107.249,57.211L107.249,57.211z M107.249,68.172v4.386
			L96.684,83.712h-4.156L107.249,68.172L107.249,68.172z M107.249,79.137l0.001,4.385l-0.179,0.19h-4.155L107.249,79.137
			L107.249,79.137z M75.912,83.712h-4.153l35.49-37.461l-0.001,4.382L75.912,83.712L75.912,83.712z M65.524,83.712h-4.152
			l45.878-48.423l0.001,4.384L65.524,83.712L65.524,83.712z M44.754,83.712h-4.153l52.874-55.809h4.156L44.754,83.712L44.754,83.712
			z M34.369,83.712h-4.157l52.875-55.807l4.154-0.001L34.369,83.712L34.369,83.712z M23.982,83.712h-4.154l52.874-55.808
			l4.153,0.001L23.982,83.712L23.982,83.712z M13.597,83.712H13.25l-0.001-4.02l49.069-51.791l4.154,0.001L13.597,83.712
			L13.597,83.712z M13.249,73.115l0.001-4.383l38.683-40.83h4.153L13.249,73.115L13.249,73.115z M13.25,62.153V57.77l28.3-29.867
			h4.151L13.25,62.153L13.25,62.153z M13.25,51.191l0.001-4.382l17.91-18.907h4.156L13.25,51.191L13.25,51.191z M14.544,27.903
			l-1.294,1.365v-1.365H14.544L14.544,27.903z M13.252,40.23l-0.002-4.385l7.527-7.943h4.152L13.252,40.23L13.252,40.23z
			 M50.986,83.712l52.875-55.808l3.389-0.001v0.808L55.141,83.709L50.986,83.712L50.986,83.712z"/>
		<linearGradient id="SVGID_1_" gradientUnits="userSpaceOnUse" x1="60.2505" y1="105.417" x2="60.2505" y2="15.5">
			<stop  offset="0" style="stop-color:#808080"/>
			<stop  offset="0.0483" style="stop-color:#979696"/>
			<stop  offset="0.1395" style="stop-color:#BCBABA"/>
			<stop  offset="0.2307" style="stop-color:#D9D6D6"/>
			<stop  offset="0.3208" style="stop-color:#EEEAEA"/>
			<stop  offset="0.4091" style="stop-color:#FBF6F6"/>
			<stop  offset="0.4938" style="stop-color:#FFFAFA"/>
			<stop  offset="0.5941" style="stop-color:#FBF7F7"/>
			<stop  offset="0.6829" style="stop-color:#F1ECEC"/>
			<stop  offset="0.7673" style="stop-color:#DFDBDB"/>
			<stop  offset="0.849" style="stop-color:#C5C2C2"/>
			<stop  offset="0.928" style="stop-color:#A5A3A3"/>
			<stop  offset="1" style="stop-color:#808080"/>
		</linearGradient>
		<path fill="url(#SVGID_1_)" d="M119.001,21.702L119,99.214c0.002,3.425-2.632,6.203-5.874,6.202l-105.75,0.001
			c-3.245,0-5.875-2.778-5.875-6.203L1.5,21.702c0-3.424,2.632-6.201,5.876-6.201l105.75-0.001
			C116.371,15.5,119.001,18.278,119.001,21.702L119.001,21.702z M58.826,102.268c2.432,0,4.405-2.082,4.405-4.649
			c0-2.569-1.973-4.652-4.405-4.652c-2.436,0-4.406,2.081-4.406,4.652C54.42,100.186,56.391,102.268,58.826,102.268L58.826,102.268z
			 M7.375,21.702v68.209l105.751,0.001V21.701L7.375,21.702L7.375,21.702z"/>
	</g>
</g>
</svg>
