<?xml version="1.0" encoding="utf-8"?>
<!-- Generator: Adobe Illustrator 16.0.0, SVG Export Plug-In . SVG Version: 6.00 Build 0)  -->
<!DOCTYPE svg PUBLIC "-//W3C//DTD SVG 1.1//EN" "http://www.w3.org/Graphics/SVG/1.1/DTD/svg11.dtd">
<svg version="1.1" id="Слой_1" xmlns="http://www.w3.org/2000/svg" xmlns:xlink="http://www.w3.org/1999/xlink" x="0px" y="0px"
	 width="120px" height="120px" viewBox="0 0 120 120" enable-background="new 0 0 120 120" xml:space="preserve">
<g id="Слой_1">
	<g>
		<g id="Layer_4_9_" display="none">
			<circle display="inline" opacity="0.5" fill="#DF1F26" enable-background="new    " cx="59.39" cy="59.424" r="42"/>
			
				<rect x="21.939" y="21.974" display="inline" opacity="0.5" fill="#3B4FA1" enable-background="new    " width="74.9" height="74.899"/>
		</g>
		<g id="normal_9_">
			<g id="g5876_29_" transform="translate(-565.64286,-258.14451)" enable-background="new    ">
				
					<linearGradient id="rect4908_3_" gradientUnits="userSpaceOnUse" x1="1361.5315" y1="-163.8389" x2="1395.854" y2="-163.8389" gradientTransform="matrix(1 0 0 -1 -746.0195 152.3838)">
					<stop  offset="0" style="stop-color:#CEDDF5"/>
					<stop  offset="1" style="stop-color:#75ACFF"/>
				</linearGradient>
				<path id="rect4908_29_" inkscape:connector-curvature="0" fill="url(#rect4908_3_)" stroke="#2C5AA0" stroke-width="2.1" d="
					M602.496,264.478c-2.412,0-4.353,1.941-4.353,4.353s1.941,4.353,4.353,4.353h4.638v18.484l-25.9,59.5
					c0,4.266,3.66,10.53,7.7,11.9c11.146,3.778,22.277,4.899,34.65,4.899c12.374,0,23.504-1.121,34.65-4.899
					c4.04-1.37,7.7-7.635,7.7-11.9l-25.9-59.5v-18.484h4.156c2.412,0,4.354-1.941,4.354-4.353s-1.941-4.353-4.354-4.353H602.496z"/>
				
					<linearGradient id="path4923_3_" gradientUnits="userSpaceOnUse" x1="1368.7708" y1="-172.1279" x2="1369.8391" y2="-212.0286" gradientTransform="matrix(1 0 0 -1 -746.0195 152.3838)">
					<stop  offset="0" style="stop-color:#FFCC00"/>
					<stop  offset="1" style="stop-color:#F56A00"/>
				</linearGradient>
				<path id="path4923_29_" inkscape:connector-curvature="0" fill="url(#path4923_3_)" d="M595.584,321.593
					c-4.463,10.114-8.879,20.252-12.884,30.472c0.664,6.243,6.327,10.97,12.447,11.354c19.917,4.641,41.237,4.371,60.988-1.094
					c6.503-1.736,10.803-10.22,6.234-15.881c-3.587-8.291-7.229-16.568-10.851-24.851H595.584z"/>
				<path id="path4920_29_" inkscape:connector-curvature="0" sodipodi:nodetypes="csccc" fill="#C2D7F7" d="M630.119,290.586
					c0,0-10.724,1.777-16.004,4.673c-3.946,2.164-13.831,23.404-24.073,40.966c5.078-13.275,18.372-35.68,19.504-44.979
					C616.039,291.868,618.821,290.894,630.119,290.586L630.119,290.586z"/>
				<path id="path4932_29_" inkscape:connector-curvature="0" sodipodi:nodetypes="cscssc" fill="#214478" d="M614.563,270.973
					c14.063,0.936,24.79,0.194,25.711,0.194c0.921,0,0.368,2.581,0.368,2.581s-2.646,0.539-6.148,0.354
					c-3.502-0.185-5.148-0.289-9.267-0.563C623.532,273.426,620.015,273.216,614.563,270.973z"/>
				<path id="path4934_29_" inkscape:connector-curvature="0" sodipodi:nodetypes="ccccc" fill="#C64A00" d="M660.454,357.841
					c-3.649,3.854-14.396,5.881-31.834,6.895c21.282-6.147,20.169-12.566,6.691-16.424c16.424-3.447,20.276-7.503,17.843-17.438
					C653.284,327.194,664.427,348.793,660.454,357.841L660.454,357.841z"/>
				<path id="path5704_29_" inkscape:connector-curvature="0" sodipodi:nodetypes="cscc" fill="#C64A00" d="M589.081,338.983
					c0,0-9.327,19.061,2.23,22.103c11.558,3.041,21.088,3.041,21.088,3.041C596.193,361.368,584.368,355.688,589.081,338.983z"/>
				<path id="path5723_29_" inkscape:connector-curvature="0" sodipodi:nodetypes="cccc" fill="#C64A00" d="M650.519,322.561
					c-1.539,4.202-19.203,3.566-30.415,4.866c12.077,0.206,30.176-1.49,33.05,1.621L650.519,322.561z"/>
			</g>
		</g>
		<g id="active_9_">
			<g id="g5876_28_" transform="translate(-565.64286,-258.14451)" enable-background="new    ">
				
					<linearGradient id="rect4908_4_" gradientUnits="userSpaceOnUse" x1="1361.5315" y1="-163.8389" x2="1395.854" y2="-163.8389" gradientTransform="matrix(1 0 0 -1 -746.0195 152.3838)">
					<stop  offset="0" style="stop-color:#CEDDF5"/>
					<stop  offset="1" style="stop-color:#75ACFF"/>
				</linearGradient>
				<path id="rect4908_28_" inkscape:connector-curvature="0" fill="url(#rect4908_4_)" stroke="#2C5AA0" stroke-width="2.1" d="
					M602.496,264.478c-2.412,0-4.353,1.941-4.353,4.353s1.941,4.353,4.353,4.353h4.638v18.484l-25.9,59.5
					c0,4.266,3.66,10.53,7.7,11.9c11.146,3.778,22.277,4.899,34.65,4.899c12.374,0,23.504-1.121,34.65-4.899
					c4.04-1.37,7.7-7.635,7.7-11.9l-25.9-59.5v-18.484h4.156c2.412,0,4.354-1.941,4.354-4.353s-1.941-4.353-4.354-4.353H602.496z"/>
				
					<linearGradient id="path4923_4_" gradientUnits="userSpaceOnUse" x1="1368.7708" y1="-172.1279" x2="1369.8391" y2="-212.0286" gradientTransform="matrix(1 0 0 -1 -746.0195 152.3838)">
					<stop  offset="0" style="stop-color:#FFCC00"/>
					<stop  offset="1" style="stop-color:#F56A00"/>
				</linearGradient>
				<path id="path4923_28_" inkscape:connector-curvature="0" fill="url(#path4923_4_)" d="M595.584,321.593
					c-4.463,10.114-8.879,20.252-12.884,30.472c0.664,6.243,6.327,10.97,12.447,11.354c19.917,4.641,41.237,4.371,60.988-1.094
					c6.503-1.736,10.803-10.22,6.234-15.881c-3.587-8.291-7.229-16.568-10.851-24.851H595.584z"/>
				<path id="path4920_28_" inkscape:connector-curvature="0" sodipodi:nodetypes="csccc" fill="#C2D7F7" d="M630.119,290.586
					c0,0-10.724,1.777-16.004,4.673c-3.946,2.164-13.831,23.404-24.073,40.966c5.078-13.275,18.372-35.68,19.504-44.979
					C616.039,291.868,618.821,290.894,630.119,290.586L630.119,290.586z"/>
				<path id="path4932_28_" inkscape:connector-curvature="0" sodipodi:nodetypes="cscssc" fill="#214478" d="M614.563,270.973
					c14.063,0.936,24.79,0.194,25.711,0.194c0.921,0,0.368,2.581,0.368,2.581s-2.646,0.539-6.148,0.354
					c-3.502-0.185-5.148-0.289-9.267-0.563C623.532,273.426,620.015,273.216,614.563,270.973z"/>
				<path id="path4934_28_" inkscape:connector-curvature="0" sodipodi:nodetypes="ccccc" fill="#C64A00" d="M660.454,357.841
					c-3.649,3.854-14.396,5.881-31.834,6.895c21.282-6.147,20.169-12.566,6.691-16.424c16.424-3.447,20.276-7.503,17.843-17.438
					C653.284,327.194,664.427,348.793,660.454,357.841L660.454,357.841z"/>
				<path id="path5704_28_" inkscape:connector-curvature="0" sodipodi:nodetypes="cscc" fill="#C64A00" d="M589.081,338.983
					c0,0-9.327,19.061,2.23,22.103c11.558,3.041,21.088,3.041,21.088,3.041C596.193,361.368,584.368,355.688,589.081,338.983z"/>
				<path id="path5723_28_" inkscape:connector-curvature="0" sodipodi:nodetypes="cccc" fill="#C64A00" d="M650.519,322.561
					c-1.539,4.202-19.203,3.566-30.415,4.866c12.077,0.206,30.176-1.49,33.05,1.621L650.519,322.561z"/>
			</g>
		</g>
		<g id="disabled_9_" opacity="0.2">
			<g id="g5876_27_" transform="translate(-565.64286,-258.14451)" enable-background="new    ">
				
					<linearGradient id="rect4908_5_" gradientUnits="userSpaceOnUse" x1="1361.5315" y1="-163.8389" x2="1395.854" y2="-163.8389" gradientTransform="matrix(1 0 0 -1 -746.0195 152.3838)">
					<stop  offset="0" style="stop-color:#CEDDF5"/>
					<stop  offset="1" style="stop-color:#75ACFF"/>
				</linearGradient>
				<path id="rect4908_27_" inkscape:connector-curvature="0" fill="url(#rect4908_5_)" stroke="#2C5AA0" stroke-width="2.1" d="
					M602.496,264.478c-2.412,0-4.353,1.941-4.353,4.353s1.941,4.353,4.353,4.353h4.638v18.484l-25.9,59.5
					c0,4.266,3.66,10.53,7.7,11.9c11.146,3.778,22.277,4.899,34.65,4.899c12.374,0,23.504-1.121,34.65-4.899
					c4.04-1.37,7.7-7.635,7.7-11.9l-25.9-59.5v-18.484h4.156c2.412,0,4.354-1.941,4.354-4.353s-1.941-4.353-4.354-4.353H602.496z"/>
				
					<linearGradient id="path4923_5_" gradientUnits="userSpaceOnUse" x1="1368.7708" y1="-172.1279" x2="1369.8391" y2="-212.0286" gradientTransform="matrix(1 0 0 -1 -746.0195 152.3838)">
					<stop  offset="0" style="stop-color:#FFCC00"/>
					<stop  offset="1" style="stop-color:#F56A00"/>
				</linearGradient>
				<path id="path4923_27_" inkscape:connector-curvature="0" fill="url(#path4923_5_)" d="M595.584,321.593
					c-4.463,10.114-8.879,20.252-12.884,30.472c0.664,6.243,6.327,10.97,12.447,11.354c19.917,4.641,41.237,4.371,60.988-1.094
					c6.503-1.736,10.803-10.22,6.234-15.881c-3.587-8.291-7.229-16.568-10.851-24.851H595.584z"/>
				<path id="path4920_27_" inkscape:connector-curvature="0" sodipodi:nodetypes="csccc" fill="#C2D7F7" d="M630.119,290.586
					c0,0-10.724,1.777-16.004,4.673c-3.946,2.164-13.831,23.404-24.073,40.966c5.078-13.275,18.372-35.68,19.504-44.979
					C616.039,291.868,618.821,290.894,630.119,290.586L630.119,290.586z"/>
				<path id="path4932_27_" inkscape:connector-curvature="0" sodipodi:nodetypes="cscssc" fill="#214478" d="M614.563,270.973
					c14.063,0.936,24.79,0.194,25.711,0.194c0.921,0,0.368,2.581,0.368,2.581s-2.646,0.539-6.148,0.354
					c-3.502-0.185-5.148-0.289-9.267-0.563C623.532,273.426,620.015,273.216,614.563,270.973z"/>
				<path id="path4934_27_" inkscape:connector-curvature="0" sodipodi:nodetypes="ccccc" fill="#C64A00" d="M660.454,357.841
					c-3.649,3.854-14.396,5.881-31.834,6.895c21.282-6.147,20.169-12.566,6.691-16.424c16.424-3.447,20.276-7.503,17.843-17.438
					C653.284,327.194,664.427,348.793,660.454,357.841L660.454,357.841z"/>
				<path id="path5704_27_" inkscape:connector-curvature="0" sodipodi:nodetypes="cscc" fill="#C64A00" d="M589.081,338.983
					c0,0-9.327,19.061,2.23,22.103c11.558,3.041,21.088,3.041,21.088,3.041C596.193,361.368,584.368,355.688,589.081,338.983z"/>
				<path id="path5723_27_" inkscape:connector-curvature="0" sodipodi:nodetypes="cccc" fill="#C64A00" d="M650.519,322.561
					c-1.539,4.202-19.203,3.566-30.415,4.866c12.077,0.206,30.176-1.49,33.05,1.621L650.519,322.561z"/>
			</g>
		</g>
	</g>
</g>
</svg>
