<?xml version="1.0" encoding="utf-8"?>
<!-- Generator: Adobe Illustrator 16.0.2, SVG Export Plug-In . SVG Version: 6.00 Build 0)  -->
<!DOCTYPE svg PUBLIC "-//W3C//DTD SVG 1.1//EN" "http://www.w3.org/Graphics/SVG/1.1/DTD/svg11.dtd">
<svg version="1.1"
	 id="svg4076" sodipodi:docbase="/home/david/Documenti/Progetti/add2cvs/" sodipodi:docname="/home/david/Documenti/Progetti/add2cvs/gnome-mime-application-x-font.svgz" sodipodi:version="0.32" xmlns:xml="http://www.w3.org/XML/1998/namespace" xmlns:sodipodi="http://sodipodi.sourceforge.net/DTD/sodipodi-0.dtd"
	 xmlns="http://www.w3.org/2000/svg" xmlns:xlink="http://www.w3.org/1999/xlink" x="0px" y="0px" width="120px" height="120px"
	 viewBox="0 0 120 120" enable-background="new 0 0 120 120" xml:space="preserve">
<g id="Layer_1">
	<g id="g4098">
		<path id="path4107" fill="#00FA9A" d="M32.851,26.715c-0.601,0-1.134,0.367-1.356,0.929l-9.989,25.787
			c-3.708,9.59-7.157,18.357-10.241,26.073c-0.558,1.383-1.128,2.467-1.686,3.217c-0.537,0.723-1.321,1.436-2.34,2.118
			c-0.558,0.354-1.344,0.666-2.309,0.902c-1.05,0.256-1.922,0.411-2.584,0.465C1.584,86.26,1,86.896,1,87.652v3.088
			c0,0.803,0.651,1.453,1.453,1.453H25.69c0.801,0,1.453-0.65,1.453-1.453v-3.088c0-0.771-0.61-1.412-1.38-1.452
			c-2.143-0.106-4.084-0.462-5.767-1.052c-0.658-0.231-1.765-0.709-1.765-1.322c0-0.402,0.065-0.956,0.192-1.648
			c0.137-0.729,0.385-1.697,0.744-2.884c-0.003,0.017,1.356-4.13,1.356-4.13c0.411-1.225,0.965-2.702,1.597-4.313
			c1.72,0,17.843,0,19.595,0c0.608,1.65,4.749,12.873,4.749,12.873c0.014,0.028,0.188,0.721,0.188,0.721s0.023,0.262,0.045,0.476
			c-0.155,0.097-0.477,0.265-1.165,0.47c-1.383,0.403-3.169,0.674-5.312,0.812c-0.769,0.053-1.361,0.685-1.361,1.452v3.088
			c0,0.803,0.65,1.453,1.453,1.453h25.624c0.803,0,1.453-0.65,1.453-1.453v-3.088c0-0.779-0.619-1.424-1.398-1.452
			c-0.611-0.024-1.413-0.163-2.383-0.407c-0.931-0.246-1.674-0.531-2.213-0.859c-0.799-0.545-1.46-1.129-1.917-1.705
			c-0.458-0.57-0.88-1.369-1.26-2.355L37.677,27.648c-0.216-0.562-0.754-0.929-1.355-0.929L32.851,26.715 M31.834,45.642
			c1.793,4.604,6.079,15.594,7.169,18.393c-2.898,0-11.35,0-14.235,0C25.841,61.247,30.068,50.249,31.834,45.642z"/>
		<path id="path4115" fill="#FF00FF " d="M88.73,46.149c-1.972,0.598-3.682,1.345-5.088,2.221c-1.662,1.05-3.021,2.259-4.063,3.601
			c-1.145,1.468-1.727,3.055-1.727,4.711c0,1.557,0.422,2.987,1.26,4.255c0.662,0.998,1.961,2.191,4.395,2.191
			c1.991,0,3.598-0.554,4.771-1.645c1.219-1.124,1.834-2.417,1.834-3.846c0-1.061-0.15-2.229-0.448-3.468
			c-0.171-0.706-0.261-1.201-0.313-1.57c0.297-0.193,0.74-0.43,1.445-0.704c0.977-0.38,2.057-0.575,3.215-0.575
			c1.623,0,2.854,0.307,3.658,0.908c0.889,0.666,1.584,1.453,2.068,2.34c0.439,0.806,0.732,1.67,0.865,2.563
			c0.196,1.315,0.229,1.792,0.229,1.961c0,0,0,2.258,0,3.391c-1.462,0.681-3.798,1.563-7.094,2.666
			c-3.975,1.324-6.672,2.246-8.004,2.746c-1.123,0.438-2.316,1.019-3.563,1.725c-1.342,0.764-2.438,1.658-3.274,2.656
			c-1.019,1.136-1.819,2.484-2.345,3.957c-0.519,1.453-0.782,3.107-0.782,4.918c0,3.586,1.196,6.539,3.558,8.779
			c2.34,2.223,5.344,3.352,8.932,3.352c3.255,0,6.097-0.604,8.446-1.791c1.73-0.875,3.393-2.053,4.952-3.52
			c0.565,1.309,1.356,2.403,2.422,3.238c1.61,1.253,3.741,1.891,6.339,1.891c1.445,0,2.768-0.174,3.936-0.521
			c0-0.003,3.687-1.229,3.687-1.229c0.597-0.197,0.961-0.74,0.961-1.363v-2.793c0-0.795-0.658-1.445-1.453-1.453l-2.848-0.047
			c-0.984-0.03-1.306-0.197-1.363-0.229c-0.616-0.35-1.043-0.74-1.306-1.189c-0.25-0.43-0.389-1.104-0.389-1.955l0.135-10.455
			c0.092-3.196,0.137-6.917,0.137-11.059c0-3.073-0.422-5.654-1.264-7.668c-0.871-2.081-2.172-3.759-3.865-4.987
			c-1.641-1.217-3.504-2.03-5.533-2.401c-1.898-0.35-4.135-0.524-6.646-0.524C92.691,45.239,90.716,45.545,88.73,46.149
			 M88.712,84.322c-0.938-0.836-1.415-2.258-1.415-4.227c0-1.594,0.348-2.914,1.051-4.041c0.731-1.166,1.764-2.199,3.057-3.072
			c1.494-0.965,3.154-1.795,4.926-2.455c1.324-0.49,2.88-0.998,4.541-1.512c-0.074,2.895-0.273,11.571-0.297,12.45
			c-0.924,1.095-2.02,2.082-3.313,2.91c-1.351,0.856-2.878,1.272-4.682,1.272C90.975,85.652,89.712,85.219,88.712,84.322z"/>
	</g>
</g>
</svg>
