<?xml version="1.0" encoding="UTF-8" standalone="no"?>
<!-- Generator: Adobe Illustrator 17.0.0, SVG Export Plug-In . SVG Version: 6.00 Build 0)  -->

<svg
   xmlns:dc="http://purl.org/dc/elements/1.1/"
   xmlns:cc="http://creativecommons.org/ns#"
   xmlns:rdf="http://www.w3.org/1999/02/22-rdf-syntax-ns#"
   xmlns:svg="http://www.w3.org/2000/svg"
   xmlns="http://www.w3.org/2000/svg"
   xmlns:sodipodi="http://sodipodi.sourceforge.net/DTD/sodipodi-0.dtd"
   xmlns:inkscape="http://www.inkscape.org/namespaces/inkscape"
   version="1.1"
   x="0px"
   y="0px"
   width="114px"
   height="114px"
   viewBox="0 0 114 114"
   enable-background="new 0 0 114 114"
   xml:space="preserve"
   id="svg3047"
   inkscape:version="0.48.5 r10040"
   sodipodi:docname="ico_detour_bw.svg"><metadata
   id="metadata3056"><rdf:RDF><cc:Work
       rdf:about=""><dc:format>image/svg+xml</dc:format><dc:type
         rdf:resource="http://purl.org/dc/dcmitype/StillImage" /></cc:Work></rdf:RDF></metadata><defs
   id="defs3054" /><sodipodi:namedview
   pagecolor="#ffffff"
   bordercolor="#666666"
   borderopacity="1"
   objecttolerance="10"
   gridtolerance="10"
   guidetolerance="10"
   inkscape:pageopacity="0"
   inkscape:pageshadow="2"
   inkscape:window-width="1600"
   inkscape:window-height="1137"
   id="namedview3052"
   showgrid="false"
   inkscape:zoom="2.0701754"
   inkscape:cx="57"
   inkscape:cy="37.677966"
   inkscape:window-x="-8"
   inkscape:window-y="-8"
   inkscape:window-maximized="1"
   inkscape:current-layer="svg3047" />
<g
   id="normal">
	<path
   fill-rule="evenodd"
   clip-rule="evenodd"
   fill="#888888"
   d="M90.452,41.519c-3.402,3.405-8.929,3.392-12.345-0.029   c-3.418-3.423-3.431-8.958-0.029-12.366c3.4-3.407,8.929-3.394,12.345,0.029C93.84,32.574,93.853,38.112,90.452,41.519   L90.452,41.519z M62.691,29.534c-8.901-0.172-18.147,3.333-25.276,10.474c-9.878,9.896-12.837,23.869-8.633,35.338   c-1.72,0.579-3.338,1.543-4.708,2.914c-0.058,0.058-0.107,0.121-0.164,0.181c-5.396-13.619-2.002-30.488,9.842-42.353   C42.096,27.734,52.912,23.6,63.332,23.76l0.793-7.135l10.688,12.618L61.75,38L62.691,29.534L62.691,29.534z M38.896,80.766   c3.417,3.423,3.429,8.959,0.027,12.365c-3.401,3.407-8.927,3.394-12.345-0.028c-3.417-3.422-3.429-8.959-0.027-12.364   C29.952,77.331,35.479,77.344,38.896,80.766L38.896,80.766z M39.252,76.615l8.307-8.319l4.544,4.551l-8.508,8.522   c-0.568-1.104-1.312-2.144-2.236-3.069C40.707,77.647,39.997,77.091,39.252,76.615L39.252,76.615z M61.383,54.448L65.928,59   l-9.803,9.819l-4.543-4.554L61.383,54.448L61.383,54.448z M73.962,41.848c0.474,0.747,1.029,1.458,1.681,2.11   c0.925,0.926,1.964,1.669,3.066,2.24l-8.759,8.774l-4.546-4.551L73.962,41.848L73.962,41.848z"
   id="path3050"
   style="fill:#6600ff" />
</g>
</svg>