<?xml version="1.0" encoding="utf-8"?>
<!-- Generator: Adobe Illustrator 15.0.0, SVG Export Plug-In . SVG Version: 6.00 Build 0)  -->
<!DOCTYPE svg PUBLIC "-//W3C//DTD SVG 1.1//EN" "http://www.w3.org/Graphics/SVG/1.1/DTD/svg11.dtd">
<svg version="1.1" id="Layer_1" xmlns="http://www.w3.org/2000/svg" xmlns:xlink="http://www.w3.org/1999/xlink" x="0px" y="0px"
	 width="612px" height="792px" viewBox="0 0 612 792" enable-background="new 0 0 612 792" xml:space="preserve">
<g id="Layer_1_1_">
	<g id="phase10">
		<path fill="#4C545C" d="M384.979,656.131c-0.402-0.989-1.01-1.923-1.994-2.714c-3.351-2.651-8.757-2.651-12.103,0l-3.641,2.893
			h-37.403l53.146-42.198c3.341-2.651,3.341-6.946,0-9.598c-3.351-2.652-8.757-2.652-12.103,0l-65.234,51.79h-5.656l-65.244-51.795
			c-3.341-2.652-8.757-2.652-12.092,0c-3.335,2.651-3.335,6.946,0,9.598l53.147,42.197h-37.414l-3.641-2.892
			c-3.341-2.651-8.757-2.651-12.092,0c-0.841,0.668-1.464,1.443-1.882,2.27c-18.676-2.341-32.63-11.898-32.63-30.585
			c0,0,7.706-19.527,7.706-38.561c0-99.807,0-411.442,0-411.442c0-21.767,17.636-39.403,39.403-39.403h1.03l58.379,46.359
			c0.429,0.801,0.418,1.704,1.239,2.361c1.902,1.51,4.453,2.061,6.926,1.852c2.474,0.209,5.024-0.342,6.916-1.852
			c0.821-0.653,0.821-1.561,1.239-2.361l58.391-46.359h7.385c21.767,0,39.402,17.636,39.402,39.403c0,0,0,300.757,0,405.975
			c0,22.318,7.716,44.028,7.716,44.028C423.861,645.813,406.694,655.243,384.979,656.131L384.979,656.131z M382.984,164.185
			c-3.351-2.652-8.757-2.652-12.103,0l-68.064,54.035l-68.069-54.035c-3.341-2.652-8.757-2.652-12.092,0s-3.335,6.946,0,9.598
			l72.002,57.171c0.428,0.801,0.418,1.704,1.239,2.361c1.902,1.51,4.452,2.061,6.926,1.862c2.474,0.199,5.024-0.352,6.916-1.862
			c0.821-0.653,0.821-1.561,1.239-2.361l72.012-57.171C386.32,171.131,386.32,166.836,382.984,164.185L382.984,164.185z
			 M382.984,213.094c-3.351-2.652-8.757-2.652-12.103,0l-68.064,54.044l-68.069-54.044c-3.341-2.652-8.757-2.652-12.092,0
			c-3.335,2.652-3.335,6.946,0,9.598l72.002,57.171c0.428,0.801,0.418,1.704,1.239,2.361c1.902,1.51,4.452,2.061,6.926,1.861
			c2.474,0.199,5.024-0.352,6.916-1.861c0.821-0.653,0.821-1.561,1.239-2.361l72.012-57.171
			C386.32,220.04,386.32,215.746,382.984,213.094L382.984,213.094z M382.984,261.646c-3.351-2.652-8.757-2.652-12.103,0
			l-68.064,54.045l-68.069-54.045c-3.341-2.652-8.757-2.652-12.092,0c-3.335,2.652-3.335,6.946,0,9.598l72.002,57.171
			c0.428,0.8,0.418,1.713,1.239,2.361c1.902,1.51,4.452,2.061,6.926,1.862c2.474,0.199,5.024-0.352,6.916-1.862
			c0.821-0.643,0.821-1.561,1.239-2.361l72.012-57.171C386.32,268.592,386.32,264.298,382.984,261.646L382.984,261.646z
			 M382.984,310.549c-3.351-2.652-8.757-2.652-12.103,0l-68.064,54.045l-68.069-54.045c-3.341-2.652-8.757-2.652-12.092,0
			c-3.335,2.652-3.335,6.946,0,9.598l72.002,57.171c0.428,0.8,0.418,1.713,1.239,2.361c1.902,1.509,4.452,2.06,6.926,1.861
			c2.474,0.199,5.024-0.352,6.916-1.861c0.821-0.643,0.821-1.561,1.239-2.361l72.012-57.171
			C386.32,317.496,386.32,313.202,382.984,310.549L382.984,310.549z M382.984,359.458c-3.351-2.652-8.757-2.652-12.103,0
			l-68.064,54.044l-68.069-54.044c-3.341-2.652-8.757-2.652-12.092,0s-3.335,6.946,0,9.598l72.002,57.171
			c0.428,0.801,0.418,1.714,1.239,2.361c1.902,1.51,4.452,2.061,6.926,1.861c2.474,0.199,5.024-0.352,6.916-1.861
			c0.821-0.643,0.821-1.561,1.239-2.361l72.012-57.171C386.32,366.405,386.32,362.11,382.984,359.458L382.984,359.458z
			 M382.984,408.011c-3.351-2.652-8.757-2.652-12.103,0l-68.064,54.045l-68.069-54.045c-3.341-2.652-8.757-2.652-12.092,0
			c-3.335,2.651-3.335,6.946,0,9.598l72.002,57.171c0.428,0.801,0.418,1.714,1.239,2.372c1.902,1.499,4.452,2.061,6.926,1.852
			c2.474,0.209,5.024-0.353,6.916-1.852c0.821-0.653,0.821-1.571,1.239-2.372l72.012-57.171
			C386.32,414.957,386.32,410.662,382.984,408.011L382.984,408.011z M382.984,456.914c-3.351-2.651-8.757-2.651-12.103,0
			l-68.064,54.045l-68.069-54.045c-3.341-2.651-8.757-2.651-12.092,0c-3.335,2.652-3.335,6.946,0,9.608l72.002,57.161
			c0.428,0.811,0.418,1.714,1.239,2.371c1.902,1.5,4.452,2.061,6.926,1.852c2.474,0.209,5.024-0.352,6.916-1.852
			c0.821-0.652,0.821-1.561,1.239-2.371l72.012-57.161C386.32,463.865,386.32,459.566,382.984,456.914L382.984,456.914z
			 M382.984,505.823c-3.351-2.651-8.757-2.651-12.103,0l-68.064,54.045l-68.069-54.045c-3.341-2.651-8.757-2.651-12.092,0
			c-3.335,2.652-3.335,6.956,0,9.608l72.002,57.161c0.428,0.811,0.418,1.714,1.239,2.371c1.902,1.5,4.452,2.061,6.926,1.852
			c2.474,0.209,5.024-0.352,6.916-1.852c0.821-0.652,0.821-1.561,1.239-2.371l72.012-57.161
			C386.32,512.78,386.32,508.476,382.984,505.823L382.984,505.823z M382.984,555.604c-3.351-2.652-8.757-2.652-12.103,0
			l-68.059,54.045l-68.075-54.045c-3.341-2.652-8.757-2.652-12.092,0s-3.335,6.946,0,9.599l72.002,57.171
			c0.428,0.801,0.418,1.713,1.239,2.361c1.902,1.509,4.452,2.06,6.926,1.861c2.474,0.198,5.024-0.353,6.916-1.861
			c0.821-0.643,0.821-1.561,1.239-2.361l72.012-57.171C386.32,562.551,386.32,558.257,382.984,555.604L382.984,555.604z
			 M260.462,135.696h84.701l-42.346,33.62L260.462,135.696L260.462,135.696z"/>
	</g>
	<g id="phase9">
		<path fill="#AB8A6B" d="M244.091,649.628v-0.229h39.479v8.369h-39.479v-0.041h0.663v-8.099H244.091L244.091,649.628z
			 M257.015,613.342h-39.469v-12.883h39.469V613.342L257.015,613.342z M217.117,454.176h-39.469v-12.883h39.469V454.176
			L217.117,454.176z M217.117,347.29h-39.469v-12.883h39.469V347.29L217.117,347.29z M243.719,241.725H204.24v-12.883h39.479
			V241.725L243.719,241.725z M268.464,188.114h-39.479v-12.882h39.479V188.114L268.464,188.114z M365.405,663.562v0.331h-72.288
			c2.193-1.622,3.56-3.764,3.56-6.033v-0.133h29.453v-8.099h-29.453v-0.693c0-4.769-5.947-8.64-13.296-8.64h-39.27
			c-7.344,0-13.295,3.871-13.295,8.64v0.693h-18.054v0.525c-10.781-8.599-20.838-21.094-29.825-36.873h21.323v0.209
			c0,7.344,5.946,13.893,13.295,13.893h39.275c7.344,0,13.295-6.549,13.295-13.893v-0.209h28.443
			c3.228,5.978,10.955,8.517,17.351,5.865l12.684-5.289c6.788-2.815,9.996-10.603,7.17-17.381l-15.086-36.261
			c-2.814-6.778-10.603-9.985-17.38-7.171l-12.684,5.289c-6.788,2.815-10.552,10.832-7.727,17.61l10.348,24.873h-23.113v-1.066
			c0-7.344-5.947-13.306-13.296-13.306h-39.275c-7.344,0-13.296,5.957-13.296,13.306v1.066h-25.688v4.365
			c-19.252-37.506-33.013-90.494-38.072-151.067h23.868v0.209c0,7.334,5.947,13.893,13.295,13.893h39.275
			c7.344,0,13.295-6.559,13.295-13.893v-0.209h29.463v-12.47h-29.463v-1.075c0-7.345-5.946-13.296-13.295-13.296h-39.275
			c-7.344,0-13.295,5.946-13.295,13.296v1.075h-24.786c-0.795-12.734-1.25-25.739-1.25-39.015c0-19.15,0.954-37.72,2.586-55.692
			h23.444v1.066c0,7.344,5.947,13.296,13.296,13.296h39.275c7.344,0,13.296-5.947,13.296-13.296v-1.066h29.463v-12.464h-29.463
			v-0.209c0-7.344-5.947-13.903-13.296-13.903h-39.275c-7.344,0-13.296,6.559-13.296,13.903v0.209h-22.221
			c4.386-38.888,12.383-74.2,23.134-103.632v10.531h25.689v1.066c0,7.344,5.946,13.296,13.295,13.296h39.27
			c7.344,0,13.296-5.947,13.296-13.296v-1.066h23.383l-4.376,15.259c-2.03,7.053,2.626,14.586,9.695,16.616l13.214,3.79
			c7.054,2.03,14.423-2.05,16.438-9.114l10.832-37.74c2.029-7.068-2.051-14.423-9.114-16.447l-13.198-3.784
			c-7.069-2.03-15.009,1.882-17.029,8.95l-2.876,10.017h-26.959v-0.209c0-7.344-5.946-13.903-13.295-13.903h-39.27
			c-7.344,0-13.296,6.559-13.296,13.903v0.209h-24.954c6.992-18.758,15.055-35.165,24.011-48.45v7.303h25.679v1.076
			c0,7.344,5.957,13.296,13.295,13.296h39.275c7.344,0,13.306-5.947,13.306-13.296v-1.076h26.183
			c0.465,3.188,1.964,6.258,4.468,8.507l10.221,9.175c5.473,4.906,13.882,4.447,18.788-1.025l26.214-29.238
			c4.906-5.462,4.438-13.872-1.024-18.778l-10.23-9.175c-5.473-4.906-14.321-4.84-19.223,0.622l-25.948,28.927v-1.479h-29.453
			v-0.199c0-7.344-5.957-13.903-13.306-13.903h-39.275c-7.334,0-13.296,6.559-13.296,13.903v0.199h-22.017
			c13.438-18.228,28.667-29.733,44.88-32.757h21.634v0.133c0,4.769,5.947,9.032,13.296,9.032h39.275
			c7.344,0,13.295-4.263,13.295-9.032v-0.133h29.453v-0.602h6.396c1.015-0.072,2.02-0.271,3.039-0.271
			c60.048,0,108.712,116.836,108.712,260.962C473.662,546.394,425.232,662.96,365.405,663.562L365.405,663.562z M165.276,559.68
			h25.688v0.209c0,7.334,5.947,13.893,13.296,13.893h39.27c7.344,0,13.295-6.559,13.295-13.893v-0.209h29.453v-12.465h-29.453
			v-1.076c0-7.334-5.946-13.296-13.295-13.296h-39.27c-7.344,0-13.296,5.957-13.296,13.296v1.076h-25.688V559.68L165.276,559.68z
			 M256.474,387.662h-25.75v-0.209c0-7.344-5.947-13.892-13.296-13.892h-39.27c-7.344,0-13.295,6.548-13.295,13.892v0.209h-25.689
			v12.464h25.689v1.065c0,7.345,5.946,13.307,13.295,13.307h39.27c7.344,0,13.296-5.957,13.296-13.307v-1.065h24.862l1.377,32.477
			c0.311,7.334,7.12,13.005,14.454,12.694l13.729-0.592c7.334-0.312,13.036-6.508,12.725-13.842l-1.667-39.239
			c-0.321-7.333-6.518-13.025-13.852-12.714l-13.729,0.581C263.313,379.716,258.585,383.066,256.474,387.662L256.474,387.662z
			 M272.988,281.286h-29.453v-0.209c0-7.344-5.957-13.903-13.306-13.903h-39.26c-7.344,0-13.306,6.559-13.306,13.903v0.209h-25.679
			v12.464h25.679v1.066c0,7.344,5.957,13.296,13.306,13.296h39.26c7.344,0,13.306-5.947,13.306-13.296v-1.066h29.453V281.286
			L272.988,281.286z M295.53,294.592l-13.561-2.152c-7.262-1.147-14.663,3.703-15.82,10.955l-6.146,38.786
			c-1.147,7.252,4.386,14.152,11.638,15.31l13.571,2.152c7.252,1.147,14.071-3.799,15.218-11.052l6.156-38.786
			C307.739,302.558,302.782,295.739,295.53,294.592L295.53,294.592z M308.02,519.869l-5.411-38.888
			c-1.004-7.272-7.716-12.353-14.999-11.338l-13.607,1.893c-7.272,1.005-12.954,7.813-11.939,15.086l1.137,8.216h-19.666v-1.071
			c0-7.344-5.957-13.306-13.306-13.306h-39.26c-7.344,0-13.306,5.957-13.306,13.306v1.066h-25.679v12.464h25.679v0.21
			c0,7.344,5.957,13.892,13.306,13.892h39.26c7.344,0,13.306-6.548,13.306-13.892v-0.21h21.405l2.535,18.207
			c1.015,7.273,8.318,12.271,15.601,11.256l13.606-1.882C303.95,533.868,309.029,527.151,308.02,519.869L308.02,519.869z
			 M375.905,200.787c-36.25,0-65.632,89.903-65.632,200.813c0,110.904,29.382,200.813,65.632,200.813
			c36.251,0,65.632-89.902,65.632-200.813C441.537,290.69,412.156,200.787,375.905,200.787L375.905,200.787z M371.51,592.37
			c-29.723,0-57.141-85.415-57.141-190.775c0-105.361,27.418-190.766,57.141-190.766s52.483,85.405,52.483,190.766
			C423.993,506.955,401.232,592.37,371.51,592.37L371.51,592.37z M362.314,302.4c-15.458,0-27.984,44.416-27.984,99.205
			c0,54.779,12.531,99.195,27.984,99.195c15.458,0,27.983-44.416,27.983-99.195C390.298,346.815,377.768,302.4,362.314,302.4
			L362.314,302.4z M275.946,484.495l12.755-1.78l5.442,39.107l-12.766,1.77L275.946,484.495L275.946,484.495z M272.988,507.297
			h-8.048l-1.739-12.464h9.787V507.297L272.988,507.297z M190.944,494.481h39.479v12.882h-39.479V494.481L190.944,494.481z
			 M273.865,344.393l6.187-38.995l12.725,2.02l-6.187,38.995L273.865,344.393L273.865,344.393z M190.944,281.225h39.479v12.882
			h-39.479V281.225L190.944,281.225z M283.871,431.476l-12.867,0.551l-1.678-39.448l12.873-0.551L283.871,431.476L283.871,431.476z
			 M260.187,400.126h-4.605l-0.291-6.768c-0.082-2.03,0.373-3.942,1.178-5.702h3.713v12.47H260.187z M178.148,387.6h39.469v12.882
			h-39.469V387.6L178.148,387.6z M243.719,559.74H204.24v-12.882h39.479V559.74L243.719,559.74z M357.138,165.684l-26.352,29.391
			l-9.588-8.599l26.352-29.391L357.138,165.684L357.138,165.684z M307.76,187.762c-0.562-3.774,0.342-7.706,2.988-10.674l0.28-0.311
			v10.985H307.76L307.76,187.762z M312.589,226.134l-10.883,37.939l-12.383-3.55l10.883-37.949L312.589,226.134L312.589,226.134z
			 M286.283,241.373h-6.074l3.58-12.464h2.494V241.373L286.283,241.373z M322.83,601.882l-11.889,4.947l-15.167-36.45l11.898-4.946
			L322.83,601.882L322.83,601.882z M299.584,613.28h-1.025c-0.199-0.362-0.423-0.693-0.592-1.076l-4.738-11.388h6.354V613.28
			L299.584,613.28z M244.111,666.892c-5.752,0-10.603-2.616-12.454-6.044c4.554,1.551,9.185,2.494,13.903,2.647v0.393h47.557
			c-2.433,1.811-5.875,2.999-9.736,2.999h-39.27V666.892z M230.816,657.727v0.133c0,1.035,0.321,2.04,0.836,2.988
			c-2.453-0.836-4.871-1.902-7.273-3.126h6.437V657.727z M323.523,141.938h-10.572v-7.727h-39.479v7.727h-6.961v-7.502h-6.309
			v-0.694c0-4.769,5.946-8.639,13.295-8.639h39.275c7.345,0,13.296,3.871,13.296,8.639v0.694h-2.534v7.502H323.523z
			 M312.951,142.581h-39.479v-0.643h39.479V142.581L312.951,142.581z"/>
	</g>
	<g id="phase8">
		<g>
			<path fill="#0092DF" d="M370.888,667.849c-63.092,0-122.732-14.77-177.264-43.898c-78.56-41.968-89.457-73.217-99.071-100.787
				c-1.238-3.551-2.407-6.904-3.712-10.261l-0.021-0.053l-0.026-0.05c-20.191-38.457-31.311-88.361-31.311-140.52
				c0-32.869,4.311-64.408,12.812-93.74c0.719-3.302,1.443-6.099,2.295-8.869c37.923-123.643,151.013-140.398,173.298-142.501
				c13.537-2.006,27.22-3.02,40.721-3.02c43.268,0,85.324,10.039,118.419,28.268c44.161,20.02,84.075,76.328,104.348,147.082
				c-0.229,0.146-1.13,0.729-1.13,0.729c-12.116-1.996-22.301-3.007-30.274-3.007c-2.092,0-4.05,0.072-5.818,0.213
				c-20.732,1.657-190.55,29.93-204.141,32.641c-1.642,0.329-4.558,0.597-8.25,0.936c-23.107,2.125-77.22,7.1-80.873,48.892
				c-4.101,46.823,39.428,89.529,41.419,91.452c1.307,1.747,19.103,23.74,89.001,28.987c32.455,2.432,62.023,3.664,87.883,3.664
				c36.437,0,66.002-2.444,87.873-7.265c32.525-7.17,39.078-20.925,40.386-26.505c1.363-5.816-0.609-11.368-5.411-15.23
				c-16.244-13.054-50.717-77.198-42.043-115.966c2.463-10.989,7.583-19.339,15.251-24.9c-5.805,7.978-8.324,16.866-7.497,26.496
				c2.431,28.371,15.959,82.057,41.912,105.411c9.676,10.902,21.429,26.987,22.566,41.781c2.125,27.686-6.807,98.626-25.128,126.849
				c-17.907,27.595-72.089,48.033-112.02,51.145C404.114,666.678,389.094,667.849,370.888,667.849z M464.126,584.162
				c-7.314,0-12.82,0.381-16.367,1.132c-1.33,0.281-5.376,1.139-5.376,3.702c0,4.968,17.945,10.106,24.166,10.106
				c0.212,0,0.413-0.006,0.604-0.017c34.376-1.87,54.336-13.595,62.814-36.897c4.191-11.527,4.091-14.085,3.358-15.132
				c-0.287-0.409-0.736-0.644-1.232-0.644c-1.855,0-4.561,3.843-5.346,5.021l-0.054,0.081l-0.038,0.09
				c-0.136,0.326-14.092,32.574-59.213,32.574c-0.336,0-0.668-0.001-1.007-0.005C465.643,584.166,464.871,584.162,464.126,584.162z
				 M464.123,555.48c-7.313,0-12.82,0.381-16.367,1.133c-1.329,0.281-5.375,1.139-5.375,3.704c0,4.97,17.946,10.112,24.167,10.112
				c0.212,0,0.414-0.006,0.605-0.017c34.376-1.88,54.336-13.604,62.814-36.896c4.192-11.535,4.091-14.094,3.357-15.141
				c-0.286-0.409-0.735-0.644-1.231-0.644c-1.857,0-4.562,3.842-5.346,5.02l-0.054,0.081l-0.038,0.09
				c-0.136,0.325-14.097,32.574-59.225,32.574c-0.333,0-0.659-0.001-0.995-0.005C465.644,555.484,464.868,555.48,464.123,555.48z
				 M466.351,525.722c-19.271,0-21.743,2.584-21.743,4.836c0,4.97,17.952,10.113,24.175,10.113c0.21,0,0.409-0.005,0.599-0.016
				c34.378-1.88,54.338-13.604,62.815-36.897c4.192-11.535,4.092-14.094,3.358-15.141c-0.286-0.409-0.735-0.644-1.231-0.644
				c-1.918,0-4.784,4.184-5.339,5.022l-0.053,0.079l-0.036,0.089c-0.137,0.325-14.104,32.571-59.226,32.574
				c-0.336,0-0.666-0.001-1.005-0.005C467.872,525.726,467.096,525.722,466.351,525.722z M147.242,322.299
				c-7.613,0-13.806,8.875-13.806,19.784s6.193,19.783,13.806,19.783s13.806-8.875,13.806-19.783S154.855,322.299,147.242,322.299z"
				/>
			<path d="M288.609,125.15c43.103,0,84.987,9.995,117.937,28.144l0.068,0.038l0.07,0.032
				c43.685,19.8,83.269,75.552,103.524,145.698c-0.028,0.019-0.058,0.037-0.086,0.056c-0.032,0.021-0.063,0.041-0.095,0.062
				c-12.003-1.962-22.112-2.958-30.057-2.958c-2.118,0-4.103,0.073-5.897,0.216c-20.752,1.659-190.661,29.945-204.259,32.658
				c-1.59,0.318-4.482,0.584-8.144,0.921c-23.356,2.147-78.052,7.176-81.777,49.8c-2.21,25.23,9.294,49.01,19.334,64.518
				c10.34,15.971,20.996,26.405,22.335,27.691c1.775,2.31,20.303,24.106,89.673,29.314c32.479,2.434,62.073,3.667,87.957,3.667
				c36.509,0,66.146-2.452,88.089-7.288c33.079-7.293,39.793-21.488,41.144-27.253c1.455-6.206-0.645-12.125-5.759-16.238
				c-6.965-5.598-19.783-24.12-29.818-47.425c-6.633-15.402-16.995-44.657-11.875-67.542c1.825-8.145,5.136-14.8,9.888-19.905
				c-3.381,6.615-4.759,13.765-4.106,21.368c2.443,28.507,16.06,82.464,42.199,106.031c9.566,10.787,21.164,26.653,22.279,41.152
				c1.065,13.883-0.882,38.921-4.847,62.303c-4.873,28.739-12.02,51.441-20.123,63.925c-8.303,12.794-25.316,25.125-47.908,34.722
				c-20.216,8.587-43.307,14.408-63.351,15.97c-10.951,0.854-25.95,2.022-44.117,2.022c-27.604,0-53.604-2.668-79.489-8.157
				c-33.687-7.144-66.424-19.129-97.304-35.623c-78.215-41.784-89.044-72.837-98.598-100.234c-1.241-3.56-2.413-6.921-3.725-10.294
				l-0.041-0.105l-0.052-0.1c-20.118-38.316-31.197-88.056-31.197-140.055c0-32.775,4.297-64.22,12.772-93.462l0.019-0.065
				l0.015-0.067c0.696-3.208,1.414-5.979,2.258-8.722c8.687-28.322,22.031-53.13,39.664-73.737
				c14.526-16.977,32.077-31.26,52.166-42.452c35.108-19.56,68.066-24.425,80.607-25.608l0.053-0.005l0.053-0.008
				C261.523,126.16,275.156,125.15,288.609,125.15 M147.242,362.866c8.164,0,14.806-9.323,14.806-20.783
				s-6.642-20.784-14.806-20.784s-14.806,9.324-14.806,20.784S139.078,362.866,147.242,362.866 M469.67,524.738
				c-0.332,0-0.659-0.001-0.995-0.005c-0.797-0.008-1.575-0.012-2.324-0.012c-17.521-0.001-21.101,2.106-22.291,4.169
				c-0.633,1.096-0.605,2.349,0.076,3.529c2.759,4.778,18.615,9.251,24.646,9.251c0.229,0,0.446-0.005,0.654-0.017
				c34.826-1.905,55.067-13.839,63.7-37.556c4.569-12.572,4.139-14.769,3.237-16.056c-0.477-0.68-1.224-1.069-2.051-1.069
				c-2.109,0-4.521,2.975-6.173,5.471l-0.105,0.159l-0.074,0.178c-0.032,0.079-3.371,7.971-12.172,15.874
				C507.628,515.992,492.992,524.738,469.67,524.738 M467.432,554.497c-0.329,0-0.652-0.001-0.985-0.005
				c-0.797-0.008-1.574-0.012-2.323-0.012c-7.383,0-12.959,0.389-16.574,1.154c-1.525,0.323-6.168,1.308-6.168,4.683
				c0,6.385,19.906,11.112,25.167,11.112c0.231,0,0.451-0.006,0.66-0.018c34.825-1.905,55.066-13.838,63.7-37.555
				c4.568-12.571,4.138-14.768,3.236-16.055c-0.477-0.681-1.224-1.07-2.051-1.07c-2.097-0.001-4.517,2.972-6.178,5.465l-0.108,0.163
				l-0.073,0.177c-0.034,0.08-3.46,8.108-12.322,16.012C505.253,545.824,490.653,554.497,467.432,554.497 M467.443,583.179
				c-0.332,0-0.661-0.001-0.997-0.005c-0.797-0.008-1.572-0.012-2.32-0.012c-7.384,0-12.96,0.388-16.574,1.153
				c-1.526,0.323-6.169,1.307-6.169,4.681c0,6.381,19.905,11.106,25.166,11.106c0.231,0,0.45-0.006,0.658-0.018
				c34.826-1.896,55.067-13.828,63.701-37.555c4.567-12.564,4.138-14.76,3.237-16.047c-0.477-0.68-1.224-1.069-2.051-1.07
				c-2.095-0.001-4.517,2.972-6.179,5.466l-0.108,0.163l-0.075,0.181c-0.032,0.078-3.368,7.97-12.167,15.873
				C505.397,574.433,490.766,583.179,467.443,583.179 M288.609,123.15c-14.04,0-27.678,1.076-40.815,3.024
				c-22.915,2.163-136.079,19.043-174.16,143.203c-0.984,3.198-1.698,6.11-2.3,8.884c-8.19,28.259-12.852,60.17-12.852,94.019
				c0,54.351,11.918,103.831,31.426,140.985c11.465,29.488,14.26,64.03,103.245,111.567c68.932,36.82,132.708,44.017,177.735,44.017
				c18.069,0,33.123-1.159,44.272-2.028c38.943-3.034,94.069-22.762,112.781-51.597c18.712-28.825,27.306-101.164,25.286-127.47
				c-1.163-15.126-12.984-31.299-22.853-42.411c-25.266-22.69-39.153-75.924-41.627-104.79c-1.152-13.418,4.564-23.394,11.067-30.36
				c-9.012,4.57-17.294,13.015-20.793,28.631c-8.945,39.979,26.785,104.422,42.392,116.963c11.908,9.578,6.018,31.033-34.563,39.979
				c-22.874,5.042-52.942,7.241-87.658,7.241c-26.882,0-56.553-1.319-87.808-3.661c-71.609-5.376-88.322-28.652-88.322-28.652
				s-45.359-42.957-41.178-90.703c4.172-47.731,76.383-46.543,88.322-48.935c11.939-2.382,183.284-30.967,204.025-32.625
				c1.803-0.144,3.727-0.21,5.738-0.21c9.441,0,20.807,1.45,30.492,3.056c0.714-0.454,1.469-0.964,2.081-1.326
				c-20.665-72.71-61.287-128.581-105.034-148.41C375.381,133.845,333.933,123.15,288.609,123.15L288.609,123.15z M147.242,360.866
				c-7.069,0-12.806-8.41-12.806-18.783c0-10.374,5.732-18.784,12.806-18.784c7.068,0,12.806,8.41,12.806,18.784
				C160.048,352.456,154.311,360.866,147.242,360.866L147.242,360.866z M469.67,526.738c46.375,0,60.148-33.19,60.148-33.19
				c0.717-1.084,3.301-4.574,4.505-4.574c1.141,0,1.042,3.139-3.066,14.442c-8.45,23.216-28.463,34.41-61.93,36.241
				c-0.173,0.01-0.354,0.014-0.545,0.014c-10.132,0-45.247-12.951-2.432-12.949c0.742,0,1.515,0.004,2.304,0.012
				C468.997,526.737,469.331,526.738,469.67,526.738L469.67,526.738z M467.432,556.497c46.381,0,60.148-33.19,60.148-33.19
				c0.723-1.084,3.309-4.575,4.514-4.574c1.142,0,1.043,3.139-3.065,14.442c-8.451,23.215-28.463,34.409-61.93,36.24
				c-0.174,0.01-0.357,0.015-0.551,0.015c-10.135,0-45.232-12.949-2.425-12.949c0.742,0,1.514,0.004,2.303,0.012
				C466.766,556.496,467.096,556.497,467.432,556.497L467.432,556.497z M467.443,585.179c46.375,0,60.137-33.19,60.137-33.19
				c0.723-1.084,3.31-4.576,4.514-4.575c1.142,0.001,1.041,3.138-3.065,14.434c-8.451,23.226-28.463,34.42-61.93,36.241
				c-0.174,0.01-0.357,0.015-0.55,0.015c-10.136,0-45.23-12.94-2.423-12.94c0.742,0,1.511,0.004,2.3,0.012
				C466.769,585.178,467.104,585.179,467.443,585.179L467.443,585.179z"/>
		</g>
	</g>
	<g id="phase7">
		
			<rect x="300.83" y="625.57" fill="#FFFFFF" stroke="#000000" stroke-width="2" stroke-miterlimit="10" width="26.45" height="8.68"/>
		<polygon fill="#FFFFFF" stroke="#000000" stroke-width="2" stroke-miterlimit="10" points="526.32,613.94 526.32,634.68 
			499.87,634.68 499.87,621.19 114.31,621.19 114.31,634.68 87.86,634.68 87.86,613.94 88.28,613.94 88.28,607.89 526.19,607.89 
			526.19,613.94 		"/>
		<path fill="#FFFFFF" stroke="#000000" stroke-width="2" stroke-miterlimit="10" d="M548.01,580.91
			c-4.56,7.46-12.34,12.79-22.54,12.79h-52.29v13.74H446.73V593.7H154.16v13.74h-26.45V593.7H87.17c-8.72,0-16.45-4.33-21.55-10.9
			l60.07-35.689c1.7,0.39,3.44,0.659,5.25,0.659h350.63c2.979,0,5.59-0.649,8.02-1.569L548.01,580.91z"/>
		<path fill="#FFFFFF" stroke="#000000" stroke-width="2" stroke-miterlimit="10" d="M552.41,568.06l-52.07-30.93
			c3.69-6.51,4.07-14.93,0.021-22.21c-10.761-19.4-165.69-287.35-175.37-303.75c-3.221-5.47-8.08-8.91-13.37-10.35v-43.5
			c7.149,1.54,13.83,5.85,18.13,13.16c12.09,20.5,205.75,355.45,219.21,379.7C552.02,555.71,553.08,562.01,552.41,568.06z"/>
		<path fill="#FFFFFF" stroke="#000000" stroke-width="2" stroke-miterlimit="10" d="M298.33,157.76v43.85
			c-4.47,1.69-8.54,4.75-11.32,9.56c-13.18,22.78-167.33,289.71-174.96,303.07c-5.27,9.2-3.8,18.35,1.2,24.8l-53.22,31.62
			c-1.41-6.73-0.57-14.17,3.53-21.33c9.55-16.7,202.23-350.36,218.71-378.85C286.16,163.78,291.98,159.62,298.33,157.76z"/>
		<path fill="#DF1000" d="M479.45,540.17c-1.57,0.35-3.181,0.65-4.94,0.65h-336.6c-0.47,0-0.89-0.141-1.35-0.17l76.9-45.69h189.9
			L479.45,540.17z"/>
		<path fill="#DF1000" d="M491.59,531.92l-88.77-52.74l-91.2-157.97V207.85c4.97,1.41,9.56,4.67,12.59,9.83
			c9.28,15.75,158.021,272.98,168.34,291.61C496.73,516.81,495.92,525.53,491.59,531.92z"/>
		<path fill="#DF1000" d="M298.32,208.61v116.12l-91.71,158.84l-84.57,50.25c-5.71-6.21-7.7-15.69-2.27-25.19
			c7.33-12.83,155.31-269.08,167.96-290.95C290.35,213.17,294.16,210.26,298.32,208.61z"/>
	</g>
	<g id="phase6">
		<path fill="#FFFFFF" stroke="#000000" stroke-width="2" stroke-miterlimit="10" d="M502.84,579.51v6.74
			c0,3.66-3.149,6.65-7.05,6.65h-49.35c-3.9,0-7.051-2.98-7.051-6.65v-6.74H502.84z"/>
		<path fill="#FFFFFF" stroke="#000000" stroke-width="2" stroke-miterlimit="10" d="M172.92,579.51v6.74
			c0,3.66-3.16,6.65-7.06,6.65h-49.35c-3.9,0-7.05-2.98-7.05-6.65v-6.74H172.92z"/>
		<path fill="#FFFFFF" stroke="#000000" stroke-width="2" stroke-miterlimit="10" d="M528.06,237.97H83.94
			c-14.01,0-25.37,11.36-25.37,25.38V554.02c0,14.011,11.36,25.381,25.37,25.381h444.12c14.011,0,25.381-11.36,25.381-25.381V263.35
			C553.44,249.33,542.07,237.97,528.06,237.97z M426.09,453.14h-75.31v75.71h-89.01v-75.71H185.6v-89.01h76.17v-75.79h89.01v75.79
			h75.31V453.14z"/>
		<path fill="#FFFFFF" stroke="#000000" stroke-width="2" stroke-miterlimit="10" d="M363.06,211.79v12.83H248.84v-12.83
			c0-7,5.68-12.69,12.68-12.69h88.85C357.38,199.1,363.06,204.79,363.06,211.79z"/>
		<polygon fill="#9F1100" points="426.09,364.13 426.09,453.14 350.78,453.14 350.78,528.85 261.77,528.85 261.77,453.14 
			185.6,453.14 185.6,364.13 261.77,364.13 261.77,288.34 350.78,288.34 350.78,364.13 		"/>
	</g>
	<g id="phase5">
		<path fill="#FFE81F" stroke="#000000" stroke-width="2" stroke-miterlimit="10" d="M527.748,203.766L353.996,421.913v207.034
			l-269.744-1.03V415.543l80.32,0.424c-0.852,11.546-1.8,27.795-1.8,43.518c0,31.737,25.729,57.478,57.477,57.478h7.956
			c31.748,0,57.487-25.74,57.487-57.478c0-8.675-0.275-17.886-0.638-26.249c6.732-3.8,9.19-9.211,7.161-16.621l53.009,0.275
			l169.851-213.257l-23.598-29.151l7.768-6.298l28.483,35.185l-0.234,0.194L527.748,203.766L527.748,203.766z M209.554,463.784
			c0,10.108-8.19,18.299-18.299,18.299c-10.108,0-18.299-8.19-18.299-18.299c0-10.104,8.191-18.299,18.299-18.299
			C201.363,445.49,209.554,453.681,209.554,463.784L209.554,463.784z M353.629,322.759c-11.75,35.246-27.57,56.784-42.243,69.916
			c-5.641,4.743-11.669,9.027-18.069,12.771c-2.285,1.214-4.478,2.265-6.502,3.105c-2.729,1.143-3.213,1.658-2.071,1.505
			c-0.321,0.153-0.627,0.342-0.949,0.495c-0.234-3.499-0.403-5.61-0.403-5.61s-29.04,7.079-55.192,7.079h-7.956
			c-25.153,0-54.325-11.99-54.325-11.99s-0.286,2.759-0.678,7.339c-40.372-22.093-67.784-64.842-67.784-114.107
			c0-71.916,58.298-130.213,130.213-130.213c41.917,0,79.096,19.88,102.908,50.643c0.163,0.306,0.271,0.505,0.271,0.505
			s10.21,12.658,18.237,32.293c5.609,14.53,8.797,30.264,8.797,46.772c0,6.359-0.474,12.627-1.356,18.742
			C355.776,315.568,354.832,319.148,353.629,322.759L353.629,322.759z M221.595,179.964c-2.78,0-5.498,0.204-8.221,0.383
			c7.492,11.011-6.595,36.975-32.354,59.048c-26.469,22.68-55.172,32.625-64.112,22.185c-6.104-7.12-1.397-21.889,10.598-37.765
			c-14.438,17.967-23.093,40.147-23.093,64.224c0,48.792,33.324,80.34,80.835,90.229v-17.59c0-7.318,5.401-13.295,12.434-14.346
			l-19.12-77.708l14.153-3.489l19.936,80.978h30.575l19.936-80.978l14.147,3.489l-19.273,78.326
			c5.752,1.943,9.909,7.318,9.909,13.729v9.241c30.707-16.177,49.796-47.297,49.796-81.885
			C317.73,228.353,286.314,179.964,221.595,179.964L221.595,179.964z M224.527,262.497l0.021-0.082l-22.012,7.533l-4.712-13.78
			l29.091-9.95l0.867,2.529l0.102-0.433l29.09,6.885l-3.356,14.183L224.527,262.497L224.527,262.497z"/>
	</g>
	<g id="phase4">
		<path fill="#0070FF" d="M531.854,169.065v135.64c3.651,8.017,5.886,17.87,5.886,28.646c0,26.27-12.832,47.537-28.744,47.981
			c0.128,5.926,0.24,12.189,0.24,15.397c0,7.135-20.313,8.996-20.313,22.313c0,9.007,0.902,11.408,8.578,11.133
			c10.21-0.356,17.533-13.703,23.572-15.901c6.043-2.188,9.358,13.271,0.811,13.479c-8.537,0.209-10.914,16.335-24.174,16.692
			c-7.135,0.198-21.955-4.392-21.955-22.502c0-25.321,21.925-31.375,21.925-31.375l-0.296-12.796
			c-10.629-7.186-25.261-24.353-25.261-44.421c0-11.516,3.086-21.945,7.187-30.228V175.497l-66.703,7.706l-180.642,121.64
			l9.715,16.82l-9.904,5.717l15.101,26.163h146.773c19.09,0,33.176,13.627,33.176,32.711v129.535h12.47
			c6.354,0,13.606,5.156,13.606,11.525v20.1c0,6.364-7.252,15.703-13.606,15.703h-37.118c-0.893-2.188-1.494-4.188-1.494-5.84
			v-44.783h15.998V455.39h-15.998v-0.041c0-19.089-10.985-34.573-30.08-34.573H74.485V246.958h57.084
			c7.915,0,16.932,13.01,22.639,25.913l127.546-75.924l-0.484,0.051l82.921-49.2l0.147-0.01l1.106-0.663l112.108-7.65l-1.591,1.071
			l45.548-2.958c6.334-0.535,11.894,2.703,12.408,7.232l1.969,17.366C536.188,164.889,534.506,167.326,531.854,169.065
			L531.854,169.065z M121.926,294.791c-11.694,0-21.165,9.471-21.165,21.165c0,11.684,9.471,21.155,21.165,21.155
			c11.684,0,21.155-9.471,21.155-21.155C143.081,304.261,133.61,294.791,121.926,294.791L121.926,294.791z M198.558,274.278
			c-5.243,0-9.481,4.243-9.481,9.481c0,5.243,4.244,9.481,9.481,9.481c5.238,0,9.481-4.243,9.481-9.481
			C208.039,278.517,203.796,274.278,198.558,274.278L198.558,274.278z M218.943,334.785l-11.378,6.569l-8.344-14.458l-23.174,15.596
			l3.019,11.052h50.705L218.943,334.785L218.943,334.785z M518.803,171.886l-25.934,2.402V288.89
			c3.412-2.295,10.694-3.096,14.606-3.096c4.223,0,7.706,1.02,11.322,3.672V171.886H518.803z M387.533,467.135v86.185
			c0,1.771,1.413,5.411,3.423,9.787h-25.587c0-59.904-43.202-102.372-96.426-102.372c-53.137,0-94.605,41.906-94.753,101.643H74.485
			v-129.81h285.411C378.986,432.567,387.533,448.046,387.533,467.135L387.533,467.135z M405.909,593.523
			c-1.061-3.841-9.945-19.503-14.953-30.417h11.22C407.771,576.739,426.549,598.082,405.909,593.523L405.909,593.523z
			 M74.261,432.567v-11.786h0.219v11.786H74.261L74.261,432.567z M180.117,613.5c-17.967,0-32.941-10.399-36.781-24.312H74.399
			v-13.052h68.651c0.051-0.239,0.158-0.464,0.219-0.693h30.289c2.968,13.704,9.272,26.143,18.08,36.414
			C187.991,612.837,184.161,613.5,180.117,613.5L180.117,613.5z M185.666,559.175c0-46.022,37.307-83.334,83.334-83.334
			c46.022,0,83.334,37.312,83.334,83.334c0,41.656-30.605,76.071-70.534,82.237h183.651v13.061H74.337v-13.061h181.861
			C216.271,635.246,185.666,600.831,185.666,559.175L185.666,559.175z M302.297,559.134c0-18.406-14.922-33.329-33.329-33.329
			c-18.416,0-33.344,14.923-33.344,33.329s14.923,33.328,33.344,33.328C287.37,592.462,302.297,577.54,302.297,559.134
			L302.297,559.134z M268.862,547.658c6.344,0,11.505,5.156,11.505,11.506c0,6.345-5.156,11.506-11.505,11.506
			c-6.354,0-11.506-5.156-11.506-11.506C257.356,552.814,262.502,547.658,268.862,547.658L268.862,547.658z"/>
	</g>
	<g id="phase3">
		<path fill="#FFF200" d="M264.7,551.23L62.35,616.9l0.13-50.67L224.3,506.7c0,0,9.82,14.93,16.42,23.45
			C251.39,543.92,264.7,551.23,264.7,551.23z"/>
		<path fill="#FFF200" d="M212.51,490.01L62.35,540.33l0.13-50.67l130.5-44.79c0,0,3.85,12.6,7.22,22.84
			C205.35,483.33,212.51,490.01,212.51,490.01z"/>
		<path fill="#FFF200" d="M187.95,419.59l-125.6,42.94l0.13-50.67l119.44-40.48c0,0,0.31,9.8,2.32,25.3
			C185.88,409.33,187.95,419.59,187.95,419.59z"/>
		<path fill="#FFF200" d="M189.15,317.65c-6.97,21.15-5.5,30.9-5.5,30.9l-121.3,35.58l0.14-50.68l139.7-46.01
			C202.19,287.44,194.94,300.12,189.15,317.65z"/>
		<path fill="#FFF200" d="M248.03,198.79c0,0-12.97,17.9-21.02,34.51c-6.98,14.4-13.49,27.84-13.49,27.84L62.14,308.99l0.13-50.67
			L248.03,198.79z"/>
		<path fill="#DFB800" d="M549.82,361.44C546.28,196.9,299.28,175.1,299.28,175.1s-90.49,71.65-85.75,204.93
			c4.27,120.14,99.63,185.3,99.63,185.3S553.52,533.72,549.82,361.44z M326.1,515.38c0,0-67.12-59.46-70.8-136.77
			c-4.39-92.39,56.931-155.1,56.931-155.1s183.84,4.35,190.409,142.58C508.29,484.8,326.1,515.38,326.1,515.38z"/>
	</g>
	<g id="phase2">
		<path fill="#DF1800" d="M439.223,147.839c0,0-0.847,27.117-36.45,37.286c-22.404,6.406-60.746,17.105-86.21,24.21
			c17.728,6.548,41.799,15.489,56.319,20.981c25.066,9.486,25.663,34.802,25.663,34.802l-87.955-31.334v32.778
			c-5.37-0.658-11.052-1.102-17.325-1.102c-5.477,0-10.455,0.332-15.218,0.795V221.06l-13.5,1.26c0,0-44.661-3.32-58.145,29.871
			c-13.49,33.18-5.631,105.814-2.05,123.063c2.331,11.261,8.022,59.267,9.323,98.904V371.097h0.051v-53.718h0.969
			c0.617-15.489,11.592-46.058,63.352-51.123v12.735c0,8.981-8.619,16.269,16.269,16.269c26.295,0,16.269-7.288,16.269-16.269
			v-12.429c49.465,6.054,62.261,37.628,62.261,52.291c0,0.606-0.312,1.178-0.383,1.774c0,0,0,174.645,0,250.803
			c0,2.061-10.889,11.394-10.889,13.291c0,1.219,10.889,11.603,10.889,12.744c0,13.796,0,18.396,0,18.396h-0.484
			c-1.464,15.733-32.747,28.305-78.254,28.305c-45.492,0-77.963-12.571-79.478-28.305h-0.525v-50.082h-0.051v-63.48
			c-0.413,8.89-1.3,16.325-2.846,21.231c-8.629,27.336-15.805,42.284-15.805,42.284s-1.637,28.377-22.241,11.363
			c0,0,8.063-16.116,17.911-45.66c9.848-29.555-2.693-142.367-6.268-161.176c-3.59-18.798-9.848-94.906,5.371-130.728
			c15.229-35.813,65.826-37.164,65.826-37.164l29.101,0.454c0,0,0.638,0.234,1.586,0.627l-4.733-13.332L439.223,147.839
			L439.223,147.839z M221.88,529.242c21.446,11.313,43.391,9.195,65.321,7.579c0-44.584,0-89.174,0-133.819
			c-22.23,1.535-44.482,3.494-66.249-8.292c-1.999,12.918-3.855,30.748-3.855,52.754C217.097,473.652,219.56,505.257,221.88,529.242
			L221.88,529.242z"/>
	</g>
	<g id="phase1">
		<path fill="#FFFA00" d="M488.438,601.382c-7.359,3.412-83.028,24.017-177.816,28.279c-0.189,0.011-0.362,0-0.552,0.011
			c-7.349-4.314-24.638-15.254-33.165-26.826c67.565-2.157,135.548-23.536,200.461-56.381c-3.101-12.969-5.865-29.473-7.242-48.908
			c-62.256,31.829-128.285,51.035-194.596,52.561c-0.311,0.01-0.52-0.199-0.791-0.281c0.714-9.939,1.484-20.277,2.285-30.717
			c64.724-2.086,129.84-21.813,192.28-52.352c0.24-16.998,1.597-35.354,4.713-54.927c-61.537,32.063-126.883,51.77-192.622,54.314
			c2.866-31.931,5.778-58.155,8.083-66.08c5.386-18.544,21.501-39.362,28.249-47.538c33.508-35.802,68.376-126.934,68.376-179.464
			c0-3.56-0.143-7.079-0.403-10.542c5.177,1.071,10.262,2.178,15.224,3.32c-1.504,25.714-4.932,98.563,2.657,126.551
			c8.426,31.11,30.615,92.294,76.821,112.874c-0.03,0.209-0.051,0.393-0.081,0.602c0.03,0.01,0.051,0.041,0.081,0.051
			c-3.692,22.313-5.115,42.08-5.207,59.849c-0.01,4.804,0.051,9.496,0.24,13.969c0.01,0.051,0,0.102,0,0.153
			c0.219,5.044,0.551,9.878,0.964,14.55c-0.031,0.011-0.052,0.03-0.082,0.041c1.693,19.313,4.973,35.333,8.486,48.308
			c0.062-0.031,0.112-0.062,0.179-0.092c5.074,18.625,10.511,31.068,11.985,38.25C501.162,601.433,495.786,597.97,488.438,601.382
			L488.438,601.382z M486.209,370.944c-0.853,4.865-1.617,9.465-2.418,14.152c-39.643-20.359-58.956-73.69-66.428-101.25
			c-6.828-25.214-3.881-90.295-2.479-114.597c3.02,0.77,6.288,1.535,9.078,2.295c-1.214,10.282-1.846,20.94-1.846,31.86
			c0,78.927,19.104,151.781,61.006,165.021c1.143,0.209,2.254,0.393,3.392,0.602c-0.011,0.062-0.021,0.112-0.03,0.189
			c2.014,0.469,3.993,0.974,6.155,1.183C490.421,370.643,488.294,370.811,486.209,370.944L486.209,370.944z M304.883,346.765
			l-0.913-0.123c0,0-0.332,0.383-0.872,1.005c-22.012,6.757-65.887-127.694-66.933-180.596
			c17.101,11.144,41.922,18.192,69.61,18.192c0.01,0,0.01-0.01,0.021-0.01v-0.01c0.092,0,0.179,0,0.271,0c0.081,0,0.168,0,0.26,0
			v0.01c0.011,0,0.021,0.01,0.021,0.01c27.841,0,52.79-7.109,69.9-18.38c-0.893,54.355-44.043,150.659-70.027,178.821
			C305.796,346.153,305.342,346.443,304.883,346.765L304.883,346.765z M292.725,360.835c-7.37,10.098-16.305,24.067-20.038,36.945
			c-1.856,6.41-4.182,26.616-6.559,52.591c-43.212-3.249-85.956-14.301-127.266-34.099c2.82,19.176,4.101,37.245,4.182,53.871
			c38.332,19.166,78.163,29.733,118.708,32.885c-0.78,10.129-1.545,20.35-2.275,30.386c-39.902-3.713-79.366-14.132-117.626-32.053
			c-1.576,19.145-4.442,35.43-7.594,47.944c39.153,21.099,79.958,32.875,121.559,36.838c-1.204,17.921-2.126,32.263-2.606,39.882
			c-71.166-7.41-123.593-21.823-129.642-24.639c-7.349-3.411-12.725,0.052-8.522-20.43c1.413-6.86,6.528-18.555,11.49-35.813
			c0.153,0.092,0.321,0.168,0.479,0.26l-0.153-0.147c3.59-12.775,7.079-28.05,8.956-46.696c-0.082-0.04-0.158-0.071-0.24-0.111
			c0.995-9.507,1.607-19.809,1.607-31.06c-0.123-17.207-1.627-36.603-5.294-58.686c0.132-0.062,0.25-0.071,0.372-0.122
			c-0.051-0.321-0.082-0.622-0.132-0.954c50.312-17.723,74.052-82.788,82.844-115.219c7.731-28.56,4.014-103.688,2.565-127.933
			c3.269-0.714,6.507-1.443,9.817-2.137c-0.27,3.54-0.413,7.109-0.413,10.741C226.93,222.932,264.093,339.614,292.725,360.835
			L292.725,360.835z M128.8,387.81c-0.933-5.544-1.866-11.062-2.876-16.866c-2.086-0.133-4.223-0.301-6.437-0.551
			c2.147-0.209,4.131-0.714,6.146-1.183c-0.01-0.072-0.021-0.123-0.03-0.189c1.152-0.209,2.264-0.393,3.401-0.602
			C170.906,355.18,190,282.331,190,203.398c0-10.919-0.632-21.573-1.836-31.859c4.723-1.286,10.037-2.596,15.381-3.892
			c1.352,22.863,4.605,90.387-2.387,116.193C193.336,312.748,172.482,369.98,128.8,387.81L128.8,387.81z"/>
	</g>
	<g id="phase0">
		<g>
			<path fill="#FFFFFF" d="M143.546,615.79c-1.011-0.607-3.952-2.375-5.985-3.592c0.775-10.271,15.809-21.503,41.516-30.951
				c24.252-8.914,50.103-13.577,63.103-13.577h1.5v-1.5c0-135.17-3.522-138.505-93.745-223.933
				c-20.405-19.32-45.778-43.344-76.494-74.048c0.019-5.993,0.316-8.464,0.624-9.405c0.854,0.654,2.412,2.5,3.812,4.158
				c4.412,5.226,11.064,13.105,21.494,18.751c0.391,0.395,1.495,1.507,3.213,3.22l-2.519-0.03l2.819,2.641
				c0.328,0.308,33.202,31.097,66.259,61.593c67.2,61.992,69.595,62.397,70.746,62.592c2.286,0.377,11.837,0.649,22.717,0.649
				c8.816,0,29.838-0.193,34.62-1.985c3.769-1.405,38.093-31.668,67.731-58.9c12.098-11.115,29.354-27.181,42.864-40.603
				c19.688-19.559,19.344-21.467,19.116-22.73c-0.009-0.05-0.021-0.1-0.033-0.149c1.471-1.493,2.42-2.47,2.78-2.841
				c10.648-5.77,17.84-14.615,22.61-20.482c1.746-2.148,3.701-4.552,4.666-5.184c0.289,0.698,0.7,2.74,0.728,8.705
				c-31.588,31.574-57.445,55.943-78.24,75.541c-88.553,83.456-92.009,86.714-92.009,222.439v1.5h1.5
				c13.004,0,38.861,4.663,63.117,13.577c25.712,9.447,40.747,20.678,41.522,30.95c-2.038,1.217-4.976,2.984-5.986,3.593H143.546z"
				/>
			<path d="M75.115,262.017c0.536,0.614,1.1,1.282,1.616,1.894c4.187,4.959,11.158,13.217,21.73,18.996
				c0.12,0.122,0.274,0.277,0.461,0.464l-2.7-0.032l5.638,5.281c0.328,0.308,33.206,31.101,66.268,61.601
				c67.528,62.294,69.926,62.7,71.525,62.97c2.663,0.439,13.563,0.669,22.955,0.669c11.052,0,30.315-0.271,35.142-2.079
				c4.82-1.798,48.046-40.662,68.224-59.201c12.107-11.124,29.379-27.205,42.906-40.643c18.127-18.008,19.735-21.502,19.622-23.429
				c1.007-1.024,1.72-1.755,2.102-2.148c10.798-5.912,18.042-14.823,22.857-20.744c0.813-1.001,1.728-2.125,2.53-3.049
				c0.097,1.129,0.174,2.732,0.194,5.007c-31.371,31.344-57.073,55.567-77.764,75.067c-44.923,42.337-67.471,63.587-79.57,92.225
				c-12.336,29.2-12.911,65.105-12.911,131.306v3h3c12.557,0,38.764,4.726,62.599,13.484c24.374,8.957,38.921,19.34,40.439,28.752
				c-1.716,1.027-3.748,2.249-4.802,2.884H143.962c-1.054-0.634-3.088-1.855-4.8-2.882c1.517-9.413,16.062-19.797,40.433-28.754
				c23.832-8.759,50.032-13.484,62.585-13.484h3v-3c0-65.94-0.585-101.72-13.147-131.107c-12.319-28.82-35.294-50.575-81.067-93.914
				c-20.301-19.222-45.518-43.099-76.022-73.578C74.96,265.06,75.027,263.279,75.115,262.017 M73.789,257.068
				c-1.392,0-1.849,3.211-1.849,11.742C237.15,434.02,242.18,400.66,242.18,566.17c-28.12,0-106.15,20.83-106.15,46.86
				c2.36,1.41,7.1,4.26,7.1,4.26h244.88c0,0,4.73-2.85,7.101-4.26c0-26.03-78.04-46.86-106.17-46.86
				c0-167.28,5.04-132.15,170.25-297.36c0-7.935-0.576-10.963-2.008-10.963c-3.4,0.001-11.627,17.099-28.413,26.093
				c0,0-1.439,1.49-4.069,4.15c0.05,0,0.1-0.01,0.149-0.01c0.037-0.003,0.073-0.004,0.106-0.004
				c9.735,0.002-121.659,118.433-128.256,120.894c-3.765,1.411-19.933,1.89-34.093,1.89c-10.738,0-20.324-0.275-22.467-0.629
				c-4.97-0.841-136.23-123.8-136.23-123.8s0.81,0.01,2.34,0.01c-3.82-3.78-5.97-5.96-5.97-5.96
				C84.031,271.77,76.767,257.068,73.789,257.068L73.789,257.068z"/>
		</g>
		<path fill="#CCFF5F" fill-opacity="0.5" d="M424.7,288.09c-21.19,21.44-119.32,118.65-156.94,118.65
			c-37.53,0-136.23-95.26-161.51-120.3c21.91,0.18,192.13,1.52,274.51,1.77c1.01,2.52,2.15,4.99,3.4,7.38
			c1.96-2.08,4.34-4.59,7.05-7.36C409.85,288.27,422.26,288.24,424.7,288.09z"/>
		<path fill="#FFFFFF" fill-opacity="0.5" d="M384.16,295.59c-1.25-2.39-2.391-4.86-3.4-7.38c3.66,0.01,7.15,0.02,10.45,0.02
			C388.5,291,386.12,293.51,384.16,295.59z"/>
		<path fill="#BF6D00" fill-opacity="0.5" d="M296.7,408.97c-6.62,2.48-51.59,2.08-56.56,1.261
			c-4.97-0.841-136.23-123.8-136.23-123.8s0.81,0.01,2.34,0.01c25.28,25.04,123.98,120.3,161.51,120.3
			c37.62,0,135.75-97.21,156.94-118.65c0.05,0,0.1-0.01,0.149-0.01C435.61,287.25,303.32,406.5,296.7,408.97z"/>
		<path fill="#DFC000" d="M540.07,257.36c-0.011,45.66-37.021,82.66-82.67,82.66c-12.95,0-25.15-3.06-36.061-8.37
			c11.771-10.88,32.4-29.65,44.47-47.18c2.721,7.35,6.24,14.57,10.641,19.23c12.399,13.07,19.14,18.22,32.22,5.82
			c13.09-12.4,7.64-18.76-4.76-31.85c-6.5-6.86-18.61-12.11-28.69-15.57c0.08-2.04-0.05-4.03-0.68-5.84
			c10.85-1.17,24.77-3.71,32.95-9.33c14.87-10.19,21.01-16.04,10.819-30.91c-10.18-14.87-17.329-10.48-32.199-0.29
			c-9.15,6.26-17.351,20.54-22.301,30.6c-0.439-0.15-0.85-0.42-1.319-0.55c3.149-10.77,6.68-26.63,4.18-37.34
			c-4.09-17.56-7.31-25.41-24.87-21.31c-17.55,4.09-16.069,12.34-11.97,29.89c2.28,9.8,10.99,21.26,18.25,29.48
			c-1.64,0.47-3.29,1.03-4.98,1.71c-9.31-4.83-21.02-9.73-30.189-9.73c-18.03,0-26.4,1.35-26.4,19.38
			c0,14.53,5.55,17.58,17.11,18.24c-4.57,4.25-8.78,8.43-12.41,12.13c-3.3,0-6.79-0.01-10.45-0.02
			c-3.859-9.53-6.01-19.93-6.01-30.85c0-45.65,37-82.65,82.66-82.65C503.06,174.71,540.07,211.71,540.07,257.36z"/>
		<path fill="#FF0000" d="M391.21,288.23c-2.71,2.77-5.09,5.28-7.05,7.36c-1.25-2.39-2.391-4.86-3.4-7.38
			C384.42,288.22,387.91,288.23,391.21,288.23z"/>
	</g>
</g>
</svg>
