<?xml version="1.0" encoding="utf-8"?>
<!-- Generator: Adobe Illustrator 16.0.2, SVG Export Plug-In . SVG Version: 6.00 Build 0)  -->
<!DOCTYPE svg PUBLIC "-//W3C//DTD SVG 1.1//EN" "http://www.w3.org/Graphics/SVG/1.1/DTD/svg11.dtd">
<svg version="1.1" id="Layer_1" xmlns="http://www.w3.org/2000/svg" xmlns:xlink="http://www.w3.org/1999/xlink" x="0px" y="0px"
	 width="114px" height="114px" viewBox="0 0 114 114" enable-background="new 0 0 114 114" xml:space="preserve">
<path fill="#008B8B" d="M46.889,73.135l2.552,6.377c-2.471,0.987-4.935,1.739-7.338,2.243L40.7,75.025
	C42.713,74.604,44.794,73.966,46.889,73.135z M26.432,81.371c2.518,0.727,5.17,1.115,7.882,1.154l0.107-6.875
	c-2.108-0.033-4.156-0.328-6.089-0.887L26.432,81.371z M80.564,69.374c1.98,0.39,3.914,1.067,5.748,2.015l3.155-6.109
	c-2.418-1.242-4.962-2.135-7.573-2.646L80.564,69.374z M66.225,63.734l2.055,6.553c2.103-0.658,4.178-1.074,6.178-1.234l-0.551-6.85
	C71.395,62.404,68.811,62.922,66.225,63.734z M55.188,68.902c-0.772,0.484-1.531,0.928-2.276,1.344l3.344,6.003
	c0.839-0.472,1.698-0.968,2.559-1.504c1.182-0.731,2.336-1.384,3.472-1.961l-3.122-6.123C57.873,67.318,56.543,68.064,55.188,68.902
	z M74.188,26.063c0,2.807-0.672,5.465-1.865,7.802L57,63.875c0,0-15.442-30.259-15.502-30.387c-1.081-2.243-1.685-4.767-1.685-7.426
	c0-9.493,7.694-17.188,17.188-17.188S74.188,16.569,74.188,26.063z M67.313,26.063c0-5.693-4.619-10.313-10.313-10.313
	c-5.694,0-10.313,4.619-10.313,10.313S51.307,36.375,57,36.375C62.693,36.375,67.313,31.756,67.313,26.063z M91.375,43.25H75.248
	l-3.512,6.875H86.42l7.419,22.264l-2.37,2.618c2.524,2.282,3.834,4.384,3.842,4.392l0.725-0.437l6.426,19.288H11.534l6.888-20.646
	c0.242,0.168,0.43,0.33,0.698,0.498l3.652-5.814c-0.819-0.518-1.49-1.027-2.081-1.504l6.889-20.658h14.69
	c-1.457-2.847-2.604-5.096-3.511-6.875H22.625L2,105.125h110L91.375,43.25z"/>
</svg>
