<?xml version="1.0" encoding="utf-8"?>
<!-- Generator: Adobe Illustrator 16.0.2, SVG Export Plug-In . SVG Version: 6.00 Build 0)  -->
<!DOCTYPE svg PUBLIC "-//W3C//DTD SVG 1.1//EN" "http://www.w3.org/Graphics/SVG/1.1/DTD/svg11.dtd">
<svg version="1.1" id="Layer_1" xmlns="http://www.w3.org/2000/svg" xmlns:xlink="http://www.w3.org/1999/xlink" x="0px" y="0px"
	 width="62.406px" height="62.406px" viewBox="0 0 62.406 62.406" enable-background="new 0 0 62.406 62.406" xml:space="preserve">
<path fill="#0BB29A" d="M43.3,47.086H32.593V29.044l7.515,0.062L43.3,47.086L43.3,47.086z M29.813,29.044v18.042H19.106L22.3,28.985
	L29.813,29.044L29.813,29.044z M24.725,15.32h5.088v7.572h-6.448L24.725,15.32L24.725,15.32z M32.593,15.32h5.09l1.358,7.572h-6.448
	V15.32L32.593,15.32z M44.896,27.269v2.13h-1.951v-2.13H19.757v2.13h-2.011v-2.13h-2.896v-1.895H47.56v1.895H44.896L44.896,27.269z
	 M46.79,10.056l3.608,11.594l2.482-2.484c5.205,9.464,3.785,21.531-4.198,29.519c-8.52,8.577-21.827,9.583-31.471,2.958l0.828,3.192
	l-4.555-1.184c11.238,8.873,27.563,8.104,37.916-2.248c9.522-9.464,10.943-24.016,4.26-35.018l2.721-2.724L46.79,10.056z
	 M13.664,13.664C5.678,21.65,4.318,33.776,9.523,43.181l2.482-2.484l3.608,11.594L4.022,48.742l2.721-2.722
	c-6.684-11.002-5.264-25.556,4.2-35.077C21.354,0.592,37.739-0.177,48.978,8.814L44.305,7.63l0.769,3.076
	C35.492,4.14,22.241,5.146,13.664,13.664z"/>
</svg>
