<?xml version="1.0" encoding="utf-8"?>
<!-- Generator: Adobe Illustrator 18.0.0, SVG Export Plug-In . SVG Version: 6.00 Build 0)  -->
<!DOCTYPE svg PUBLIC "-//W3C//DTD SVG 1.1//EN" "http://www.w3.org/Graphics/SVG/1.1/DTD/svg11.dtd">
<svg version="1.1" id="overview1" xmlns="http://www.w3.org/2000/svg" xmlns:xlink="http://www.w3.org/1999/xlink" x="0px" y="0px"
	 viewBox="0 0 72 72" enable-background="new 0 0 72 72" xml:space="preserve">
<g id="normal">
	<g id="LWPOLYLINE_1_">
		<path fill="#57DBA6" d="M22.3,41.3c0.2-0.2,0.2-0.5-0.1-0.7c-0.1-0.1-0.2-0.1-0.3-0.1l-7.8-0.8c-0.2,0-0.3,0-0.4,0.2
			c-0.6,0.7-1.2,1.4-1.8,2.1c-0.2,0.2-0.1,0.5,0.1,0.7c0,0,0,0,0,0l5.1,4.1c0.2,0.2,0.5,0.1,0.7-0.1C19.3,44.9,20.8,43.1,22.3,41.3z
			"/>
	</g>
	<path fill="#57DBA6" d="M57.9,14.7c-1.9-1.9-4.9-2-6.9-0.2c-12,10.7-23.2,22.3-33.3,34.8c-0.8,1-0.7,2.4,0.3,3.2
		c0.8,0.6,1.9,0.7,2.8,0.1C33.9,43.3,46.3,33,57.8,21.7C59.8,19.8,59.8,16.6,57.9,14.7z M56.9,20.1c0,0.1-0.1,0.1-0.2,0.1
		c-0.1,0-0.3-0.1-0.3-0.2c-0.3-2-1.8-3.7-3.8-4.1c-0.1,0-0.1-0.1-0.2-0.1c-0.1-0.1,0-0.3,0.1-0.3c1.1-0.7,2.6-0.7,3.7,0.1
		C57.7,16.6,58,18.7,56.9,20.1z"/>
	<g id="LWPOLYLINE_3_">
		<path fill="#57DBA6" d="M12.3,16.5c1-1.1,2.1-2.2,3.1-3.3c0.1-0.1,0.3-0.2,0.5-0.1l23.9,7.9c0.1,0,0.1,0.1,0.2,0.1
			c0.2,0.2,0.2,0.5,0,0.7c-3.3,3.2-6.5,6.5-9.7,9.8c-0.2,0.2-0.5,0.2-0.7,0L12.4,17.3c0,0,0,0,0,0C12.1,17.1,12.1,16.7,12.3,16.5z"
			/>
	</g>
	<g id="LWPOLYLINE_4_">
		<path fill="#57DBA6" d="M53,60.1C53,60.1,53,60.1,53,60.1c-0.2,0.2-0.6,0.1-0.7-0.1L39,41.8c-0.2-0.2-0.1-0.5,0.1-0.7
			c3.6-2.9,7-5.9,10.5-9c0.1-0.1,0.1-0.1,0.2-0.1c0.3-0.1,0.5,0.1,0.6,0.4l6.2,24.4c0,0.2,0,0.4-0.2,0.5
			C55.3,58.2,54.1,59.2,53,60.1z"/>
	</g>
	<g id="LWPOLYLINE_5_">
		<path fill="#57DBA6" d="M23.3,52.6c-0.2,0.2-0.3,0.5-0.1,0.7l3.7,5.4c0.2,0.2,0.5,0.3,0.7,0.1c0,0,0,0,0,0
			c0.7-0.5,1.5-1.1,2.2-1.6c0.1-0.1,0.2-0.3,0.2-0.4l-0.3-7.9c0-0.3-0.2-0.5-0.5-0.5c-0.1,0-0.2,0-0.3,0.1
			C27.1,49.9,25.2,51.2,23.3,52.6z"/>
	</g>
</g>
<g id="active">
	<g id="LWPOLYLINE_1_">
		<path fill="#57DBA6" d="M22.3,41.3c0.2-0.2,0.2-0.5-0.1-0.7c-0.1-0.1-0.2-0.1-0.3-0.1l-7.8-0.8c-0.2,0-0.3,0-0.4,0.2
			c-0.6,0.7-1.2,1.4-1.8,2.1c-0.2,0.2-0.1,0.5,0.1,0.7c0,0,0,0,0,0l5.1,4.1c0.2,0.2,0.5,0.1,0.7-0.1C19.3,44.9,20.8,43.1,22.3,41.3z
			"/>
	</g>
	<path fill="#57DBA6" d="M57.9,14.7c-1.9-1.9-4.9-2-6.9-0.2c-12,10.7-23.2,22.3-33.3,34.8c-0.8,1-0.7,2.4,0.3,3.2
		c0.8,0.6,1.9,0.7,2.8,0.1C33.9,43.3,46.3,33,57.8,21.7C59.8,19.8,59.8,16.6,57.9,14.7z M56.9,20.1c0,0.1-0.1,0.1-0.2,0.1
		c-0.1,0-0.3-0.1-0.3-0.2c-0.3-2-1.8-3.7-3.8-4.1c-0.1,0-0.1-0.1-0.2-0.1c-0.1-0.1,0-0.3,0.1-0.3c1.1-0.7,2.6-0.7,3.7,0.1
		C57.7,16.6,58,18.7,56.9,20.1z"/>
	<g id="LWPOLYLINE_3_">
		<path fill="#57DBA6" d="M12.3,16.5c1-1.1,2.1-2.2,3.1-3.3c0.1-0.1,0.3-0.2,0.5-0.1l23.9,7.9c0.1,0,0.1,0.1,0.2,0.1
			c0.2,0.2,0.2,0.5,0,0.7c-3.3,3.2-6.5,6.5-9.7,9.8c-0.2,0.2-0.5,0.2-0.7,0L12.4,17.3c0,0,0,0,0,0C12.1,17.1,12.1,16.7,12.3,16.5z"
			/>
	</g>
	<g id="LWPOLYLINE_4_">
		<path fill="#57DBA6" d="M53,60.1C53,60.1,53,60.1,53,60.1c-0.2,0.2-0.6,0.1-0.7-0.1L39,41.8c-0.2-0.2-0.1-0.5,0.1-0.7
			c3.6-2.9,7-5.9,10.5-9c0.1-0.1,0.1-0.1,0.2-0.1c0.3-0.1,0.5,0.1,0.6,0.4l6.2,24.4c0,0.2,0,0.4-0.2,0.5
			C55.3,58.2,54.1,59.2,53,60.1z"/>
	</g>
	<g id="LWPOLYLINE_5_">
		<path fill="#57DBA6" d="M23.3,52.6c-0.2,0.2-0.3,0.5-0.1,0.7l3.7,5.4c0.2,0.2,0.5,0.3,0.7,0.1c0,0,0,0,0,0
			c0.7-0.5,1.5-1.1,2.2-1.6c0.1-0.1,0.2-0.3,0.2-0.4l-0.3-7.9c0-0.3-0.2-0.5-0.5-0.5c-0.1,0-0.2,0-0.3,0.1
			C27.1,49.9,25.2,51.2,23.3,52.6z"/>
	</g>
</g>
<g id="disabled" opacity="0.2">
	<g id="LWPOLYLINE_1_">
		<path fill="#57DBA6" d="M22.3,41.3c0.2-0.2,0.2-0.5-0.1-0.7c-0.1-0.1-0.2-0.1-0.3-0.1l-7.8-0.8c-0.2,0-0.3,0-0.4,0.2
			c-0.6,0.7-1.2,1.4-1.8,2.1c-0.2,0.2-0.1,0.5,0.1,0.7c0,0,0,0,0,0l5.1,4.1c0.2,0.2,0.5,0.1,0.7-0.1C19.3,44.9,20.8,43.1,22.3,41.3z
			"/>
	</g>
	<path fill="#57DBA6" d="M57.9,14.7c-1.9-1.9-4.9-2-6.9-0.2c-12,10.7-23.2,22.3-33.3,34.8c-0.8,1-0.7,2.4,0.3,3.2
		c0.8,0.6,1.9,0.7,2.8,0.1C33.9,43.3,46.3,33,57.8,21.7C59.8,19.8,59.8,16.6,57.9,14.7z M56.9,20.1c0,0.1-0.1,0.1-0.2,0.1
		c-0.1,0-0.3-0.1-0.3-0.2c-0.3-2-1.8-3.7-3.8-4.1c-0.1,0-0.1-0.1-0.2-0.1c-0.1-0.1,0-0.3,0.1-0.3c1.1-0.7,2.6-0.7,3.7,0.1
		C57.7,16.6,58,18.7,56.9,20.1z"/>
	<g id="LWPOLYLINE_3_">
		<path fill="#57DBA6" d="M12.3,16.5c1-1.1,2.1-2.2,3.1-3.3c0.1-0.1,0.3-0.2,0.5-0.1l23.9,7.9c0.1,0,0.1,0.1,0.2,0.1
			c0.2,0.2,0.2,0.5,0,0.7c-3.3,3.2-6.5,6.5-9.7,9.8c-0.2,0.2-0.5,0.2-0.7,0L12.4,17.3c0,0,0,0,0,0C12.1,17.1,12.1,16.7,12.3,16.5z"
			/>
	</g>
	<g id="LWPOLYLINE_4_">
		<path fill="#57DBA6" d="M53,60.1C53,60.1,53,60.1,53,60.1c-0.2,0.2-0.6,0.1-0.7-0.1L39,41.8c-0.2-0.2-0.1-0.5,0.1-0.7
			c3.6-2.9,7-5.9,10.5-9c0.1-0.1,0.1-0.1,0.2-0.1c0.3-0.1,0.5,0.1,0.6,0.4l6.2,24.4c0,0.2,0,0.4-0.2,0.5
			C55.3,58.2,54.1,59.2,53,60.1z"/>
	</g>
	<g id="LWPOLYLINE_5_">
		<path fill="#57DBA6" d="M23.3,52.6c-0.2,0.2-0.3,0.5-0.1,0.7l3.7,5.4c0.2,0.2,0.5,0.3,0.7,0.1c0,0,0,0,0,0
			c0.7-0.5,1.5-1.1,2.2-1.6c0.1-0.1,0.2-0.3,0.2-0.4l-0.3-7.9c0-0.3-0.2-0.5-0.5-0.5c-0.1,0-0.2,0-0.3,0.1
			C27.1,49.9,25.2,51.2,23.3,52.6z"/>
	</g>
</g>
</svg>
