<?xml version="1.0" encoding="utf-8"?>
<!-- Generator: Adobe Illustrator 15.0.0, SVG Export Plug-In . SVG Version: 6.00 Build 0)  -->
<!DOCTYPE svg PUBLIC "-//W3C//DTD SVG 1.1//EN" "http://www.w3.org/Graphics/SVG/1.1/DTD/svg11.dtd">
<svg version="1.1" id="Layer_x5F_1" xmlns="http://www.w3.org/2000/svg" xmlns:xlink="http://www.w3.org/1999/xlink" x="0px"
	 y="0px" width="132px" height="132px" viewBox="0 0 132 132" enable-background="new 0 0 132 132" xml:space="preserve">
<g id="INSERT">
	<path fill="#FFFFFF" stroke="#FFFFFF" stroke-miterlimit="10" d="M83.26,37.01c-0.92-0.33-1.569-1.2-1.569-2.22v-0.18
		C82.29,35.36,82.82,36.16,83.26,37.01z"/>
</g>
<g>
	<path fill="#FFFFFF" d="M81.69,34.61v0.18c0,1.02,0.649,1.89,1.569,2.22C82.82,36.16,82.29,35.36,81.69,34.61z M81.69,34.61v0.18
		c0,1.02,0.649,1.89,1.569,2.22C82.82,36.16,82.29,35.36,81.69,34.61z"/>
	<path fill="#03A0FF" d="M109.5,34.76c0-0.55-0.17-1.1-0.55-1.53L85.81,6.81C85.8,6.8,85.8,6.8,85.79,6.79
		c-0.14-0.16-0.3-0.28-0.47-0.39c-0.051-0.04-0.101-0.07-0.15-0.1c-0.15-0.08-0.31-0.14-0.47-0.19c-0.04-0.02-0.08-0.03-0.12-0.05
		C84.4,6.02,84.22,6,84.04,6H27.18c-2.6,0-4.71,2.11-4.71,4.71v110.58c0,2.6,2.11,4.71,4.71,4.71h77.64c2.6,0,4.71-2.11,4.71-4.71
		V35.02C109.53,34.93,109.52,34.84,109.5,34.76z M56.46,104.63c0,3.61-2.92,6.54-6.53,6.54h-3.16v6.53h-5.53V93.34h8.69
		c1.81,0,3.44,0.73,4.62,1.92c1.19,1.181,1.92,2.811,1.92,4.61L56.46,104.63z M77.72,111.17c0,3.61-2.93,6.53-6.529,6.53h-2.15
		c-3.61,0-6.54-2.92-6.54-6.53v-11.3c0-3.601,2.93-6.53,6.54-6.53h2.15c1.81,0,3.439,0.73,4.619,1.92
		c1.181,1.181,1.91,2.82,1.91,4.62V111.17z M90.03,117.7H84.5V93.34h5.53V117.7z M27.18,85.9V10.71h54.51v11.97
		c0.939,0.46,1.85,0.99,2.729,1.57c4.8,3.16,8.25,7.66,9.97,12.89h10.431l0.01,48.76H27.18z"/>
	<path fill="#FFFFFF" d="M104.82,37.14H94.39c0.37,1.11,0.65,2.24,0.86,3.41c0.12,0.7-0.35,1.38-1.05,1.5
		c-0.08,0.01-0.16,0.02-0.23,0.02c-0.62,0-1.17-0.44-1.279-1.07c-0.24-1.33-0.591-2.62-1.061-3.86h-7.59
		c-0.271,0-0.54-0.05-0.78-0.13c0.75,1.4,1.271,2.92,1.55,4.51c0.131,0.7-0.34,1.38-1.05,1.5c-0.08,0.01-0.149,0.02-0.229,0.02
		c-0.61,0-1.16-0.44-1.271-1.07c-0.62-3.5-2.64-6.53-5.689-8.55c-3.08-2.03-6.83-2.78-10.57-2.12c-0.71,0.12-1.38-0.35-1.51-1.06
		c-0.12-0.7,0.35-1.38,1.06-1.5c4.391-0.78,8.82,0.12,12.45,2.51c1.42,0.95,2.66,2.08,3.69,3.36v-8.99
		c-4.96-2.84-10.82-3.84-16.65-2.81c-0.71,0.12-1.38-0.35-1.5-1.06c-0.13-0.7,0.34-1.37,1.05-1.5c5.94-1.04,11.9-0.18,17.101,2.43
		V10.71H27.18V85.9h77.65L104.82,37.14z M65.55,37.25c2.601-0.46,5.23,0.07,7.38,1.49c2.181,1.44,3.62,3.62,4.07,6.13
		c0.12,0.7-0.35,1.38-1.06,1.5c-0.07,0.02-0.15,0.02-0.221,0.02c-0.62,0-1.17-0.44-1.279-1.07c-0.32-1.8-1.36-3.37-2.94-4.41
		c-1.6-1.06-3.55-1.45-5.5-1.1c-0.71,0.12-1.38-0.35-1.51-1.06C64.37,38.05,64.84,37.37,65.55,37.25z M89.03,73.43
		c-1.7,1.271-6.09,4.23-10.24,4.23c-3.87,0-8.86-2.58-12.37-4.74c-4.71-2.9-9.77-6.9-14.27-11.29l-0.02-0.01l-1.42-1.43
		c-4.38-4.5-8.39-9.56-11.29-14.26c-2.16-3.51-4.74-8.51-4.74-12.38c0-4.14,2.96-8.54,4.24-10.24c0.99-1.32,4.46-5.65,7.41-5.65
		c1.21,0,2.52,0.8,4.23,2.57c1.52,1.58,2.97,3.53,3.93,4.89c1.28,1.83,2.46,3.75,3.33,5.4c1.41,2.67,1.57,3.81,1.57,4.44
		c0,1.27-0.66,2.37-1.97,3.27c-0.86,0.6-1.89,1.04-2.89,1.48c-0.67,0.29-1.75,0.75-2.16,1.08c0.14,0.61,0.77,2.07,2.46,4.55
		c1.58,2.32,3.61,4.83,5.46,6.72c1.89,1.84,4.4,3.88,6.71,5.45c2.48,1.69,3.95,2.32,4.55,2.46c0.33-0.41,0.8-1.48,1.09-2.16
		c0.431-1,0.88-2.03,1.471-2.89c0.899-1.31,2-1.97,3.27-1.97c0.63,0,1.78,0.16,4.45,1.57c1.64,0.87,3.56,2.06,5.39,3.34
		c1.36,0.95,3.32,2.41,4.891,3.92c1.779,1.72,2.569,3.02,2.569,4.23C94.68,68.96,90.36,72.43,89.03,73.43z"/>
	<path fill="#009615" d="M95.25,40.55c0.12,0.7-0.35,1.38-1.05,1.5c-0.08,0.01-0.16,0.02-0.23,0.02c-0.62,0-1.17-0.44-1.279-1.07
		c-0.24-1.33-0.591-2.62-1.061-3.86h2.76C94.76,38.25,95.04,39.38,95.25,40.55z"/>
	<path fill="#009615" d="M81.69,22.68v2.94c-4.96-2.84-10.82-3.84-16.65-2.81c-0.71,0.12-1.38-0.35-1.5-1.06
		c-0.13-0.7,0.34-1.37,1.05-1.5C70.53,19.21,76.49,20.07,81.69,22.68z"/>
	<path fill="#009615" d="M84.81,41.52c0.131,0.7-0.34,1.38-1.05,1.5c-0.08,0.01-0.149,0.02-0.229,0.02c-0.61,0-1.16-0.44-1.271-1.07
		c-0.62-3.5-2.64-6.53-5.689-8.55c-3.08-2.03-6.83-2.78-10.57-2.12c-0.71,0.12-1.38-0.35-1.51-1.06c-0.12-0.7,0.35-1.38,1.06-1.5
		c4.391-0.78,8.82,0.12,12.45,2.51c1.42,0.95,2.66,2.08,3.69,3.36v0.18c0,1.02,0.649,1.89,1.569,2.22
		C84.01,38.41,84.53,39.93,84.81,41.52z"/>
	<path fill="#009615" d="M77,44.87c0.12,0.7-0.35,1.38-1.06,1.5c-0.07,0.02-0.15,0.02-0.221,0.02c-0.62,0-1.17-0.44-1.279-1.07
		c-0.32-1.8-1.36-3.37-2.94-4.41c-1.6-1.06-3.55-1.45-5.5-1.1c-0.71,0.12-1.38-0.35-1.51-1.06c-0.12-0.7,0.35-1.38,1.06-1.5
		c2.601-0.46,5.23,0.07,7.38,1.49C75.11,40.18,76.55,42.36,77,44.87z"/>
	<path fill="#009615" d="M92.11,61.78c-1.57-1.51-3.53-2.97-4.891-3.92c-1.83-1.28-3.75-2.47-5.39-3.34
		c-2.67-1.41-3.82-1.57-4.45-1.57c-1.27,0-2.37,0.66-3.27,1.97c-0.591,0.86-1.04,1.89-1.471,2.89c-0.29,0.68-0.76,1.75-1.09,2.16
		c-0.6-0.14-2.069-0.77-4.55-2.46c-2.31-1.57-4.82-3.61-6.71-5.45c-1.85-1.89-3.88-4.4-5.46-6.72c-1.69-2.48-2.32-3.94-2.46-4.55
		c0.41-0.33,1.49-0.79,2.16-1.08c1-0.44,2.03-0.88,2.89-1.48c1.31-0.9,1.97-2,1.97-3.27c0-0.63-0.16-1.77-1.57-4.44
		c-0.87-1.65-2.05-3.57-3.33-5.4c-0.96-1.36-2.41-3.31-3.93-4.89c-1.71-1.77-3.02-2.57-4.23-2.57c-2.95,0-6.42,4.33-7.41,5.65
		c-1.28,1.7-4.24,6.1-4.24,10.24c0,3.87,2.58,8.87,4.74,12.38c2.9,4.7,6.91,9.76,11.29,14.26l1.42,1.43l0.02,0.01
		c4.5,4.39,9.56,8.39,14.27,11.29c3.51,2.16,8.5,4.74,12.37,4.74c4.15,0,8.54-2.96,10.24-4.23c1.33-1,5.649-4.47,5.649-7.42
		C94.68,64.8,93.89,63.5,92.11,61.78z M89.99,67.79c-0.83,0.95-1.98,1.99-3.25,2.93c-2.891,2.13-5.86,3.4-7.95,3.4
		c-2.33,0-6.17-1.54-10.521-4.22c-4.479-2.761-9.319-6.59-13.64-10.8l-1.39-1.39c-4.2-4.31-8.04-9.16-10.8-13.64
		c-2.68-4.35-4.22-8.18-4.22-10.52c0-2.08,1.27-5.05,3.4-7.94c0.94-1.27,1.98-2.43,2.93-3.25c0.9-0.78,1.49-1.06,1.72-1.14
		c0.65,0.3,2.66,2.09,5.53,6.24c1.12,1.64,2.16,3.32,2.91,4.75c0.94,1.8,1.11,2.55,1.14,2.72c-0.05,0.07-0.21,0.26-0.71,0.56
		c-0.56,0.34-1.3,0.65-2.02,0.96c-0.89,0.39-1.8,0.79-2.54,1.28c-1.21,0.79-1.81,1.78-1.79,2.92c0.01,0.54,0.05,2.19,3.11,6.69
		c1.69,2.48,3.88,5.18,5.86,7.21l0.04,0.03c2.03,1.98,4.72,4.17,7.2,5.86c4.5,3.06,6.15,3.1,6.7,3.11h0.06
		c1.12,0,2.09-0.61,2.87-1.8c0.49-0.74,0.88-1.65,1.26-2.53c0.311-0.72,0.63-1.46,0.96-2.01c0.301-0.5,0.5-0.67,0.561-0.71
		c0.17,0.02,0.92,0.19,2.72,1.13c1.43,0.75,3.12,1.79,4.75,2.91c4.16,2.87,5.94,4.89,6.24,5.53C91.05,66.31,90.76,66.89,89.99,67.79
		z"/>
	<path fill="#00CC15" d="M91.12,66.07c-0.07,0.24-0.36,0.821-1.13,1.72c-0.83,0.95-1.98,1.99-3.25,2.93
		c-2.891,2.13-5.86,3.4-7.95,3.4c-2.33,0-6.17-1.54-10.521-4.22c-4.479-2.762-9.319-6.59-13.641-10.8l-1.39-1.39
		c-4.2-4.31-8.04-9.16-10.8-13.64c-2.68-4.35-4.22-8.18-4.22-10.52c0-2.08,1.27-5.05,3.4-7.94c0.94-1.27,1.98-2.43,2.93-3.25
		c0.9-0.78,1.49-1.06,1.72-1.14c0.65,0.3,2.66,2.09,5.53,6.24c1.12,1.64,2.16,3.32,2.91,4.75c0.94,1.8,1.11,2.55,1.14,2.72
		c-0.05,0.07-0.21,0.26-0.71,0.56c-0.56,0.34-1.3,0.65-2.02,0.96c-0.89,0.39-1.8,0.79-2.54,1.28c-1.21,0.79-1.81,1.78-1.79,2.92
		c0.01,0.54,0.05,2.19,3.11,6.69c1.69,2.48,3.88,5.18,5.86,7.21l0.04,0.03c2.03,1.98,4.72,4.17,7.2,5.86
		c4.5,3.06,6.149,3.1,6.7,3.11h0.06c1.12,0,2.091-0.61,2.87-1.8c0.49-0.74,0.88-1.65,1.26-2.53c0.312-0.72,0.631-1.46,0.961-2.01
		c0.301-0.5,0.5-0.67,0.561-0.71c0.17,0.02,0.92,0.19,2.72,1.13c1.431,0.75,3.12,1.79,4.75,2.91
		C89.04,63.41,90.82,65.43,91.12,66.07z"/>
	<path fill="#FFFFFF" d="M54.55,95.26c-1.18-1.189-2.81-1.92-4.62-1.92h-8.69v24.36h5.53v-6.53h3.16c3.61,0,6.53-2.93,6.53-6.54
		l0.01-4.76C56.47,98.07,55.74,96.44,54.55,95.26z M50.93,105.45c0,0.6-0.48,1.09-1.08,1.09h-1.99c-0.6,0-1.09-0.49-1.09-1.09v-6.4
		c0-0.6,0.49-1.09,1.09-1.09h1.99c0.6,0,1.09,0.49,1.08,1.09V105.45z"/>
	<path fill="#FFFFFF" d="M75.81,95.26c-1.18-1.189-2.81-1.92-4.619-1.92h-2.15c-3.61,0-6.54,2.93-6.54,6.53v11.3
		c0,3.61,2.93,6.53,6.54,6.53h2.15c3.6,0,6.529-2.92,6.529-6.53V99.88C77.72,98.08,76.99,96.44,75.81,95.26z M72.19,111.99
		c0,0.6-0.49,1.09-1.091,1.09H69.12c-0.601,0-1.09-0.49-1.09-1.09V99.05c0-0.6,0.489-1.09,1.09-1.09H71.1
		c0.601,0,1.091,0.49,1.091,1.09V111.99z"/>
	<rect x="84.5" y="93.34" fill="#FFFFFF" width="5.53" height="24.36"/>
	<path fill="#00A1FF" d="M50.93,99.05v6.4c0,0.6-0.48,1.09-1.08,1.09h-1.99c-0.6,0-1.09-0.49-1.09-1.09v-6.4
		c0-0.6,0.49-1.09,1.09-1.09h1.99C50.45,97.96,50.94,98.45,50.93,99.05z"/>
	<path fill="#00A1FF" d="M72.19,99.05v12.94c0,0.6-0.49,1.09-1.091,1.09H69.12c-0.601,0-1.09-0.49-1.09-1.09V99.05
		c0-0.6,0.489-1.09,1.09-1.09H71.1C71.7,97.96,72.19,98.45,72.19,99.05z"/>
	<path fill="#03A0FF" d="M91.63,37.14h-7.59c-0.271,0-0.54-0.05-0.78-0.13c-0.439-0.85-0.97-1.65-1.569-2.4v-8.99
		c0.439,0.25,0.869,0.52,1.3,0.8C87.04,29.09,90.02,32.81,91.63,37.14z"/>
	<path fill="#03A0FF" d="M94.39,37.14h-2.76c-1.61-4.33-4.59-8.05-8.64-10.72c-0.431-0.28-0.86-0.55-1.3-0.8v-2.94
		c0.939,0.46,1.85,0.99,2.729,1.57C89.22,27.41,92.67,31.91,94.39,37.14z"/>
</g>
</svg>
