<?xml version="1.0" encoding="utf-8"?>
<!-- Generator: Adobe Illustrator 15.0.0, SVG Export Plug-In . SVG Version: 6.00 Build 0)  -->
<!DOCTYPE svg PUBLIC "-//W3C//DTD SVG 1.1//EN" "http://www.w3.org/Graphics/SVG/1.1/DTD/svg11.dtd">
<svg version="1.1" id="Layer_x5F_1" xmlns="http://www.w3.org/2000/svg" xmlns:xlink="http://www.w3.org/1999/xlink" x="0px"
	 y="0px" width="132px" height="132px" viewBox="0 0 132 132" enable-background="new 0 0 132 132" xml:space="preserve">
<g>
	<g>
		<path fill="#0095FF" d="M109.51,34.76c-0.01-0.55-0.18-1.1-0.56-1.53L85.81,6.81C85.8,6.8,85.8,6.8,85.79,6.79
			c-0.14-0.16-0.3-0.28-0.47-0.39c-0.051-0.04-0.101-0.07-0.15-0.1c-0.15-0.08-0.3-0.14-0.47-0.19c-0.04-0.02-0.08-0.03-0.12-0.04
			C84.4,6.03,84.22,6,84.04,6H27.18c-2.6,0-4.71,2.11-4.71,4.71v110.58c0,2.6,2.11,4.71,4.71,4.71h77.64c2.6,0,4.71-2.11,4.71-4.71
			V35.02C109.53,34.93,109.52,34.84,109.51,34.76z M45.25,117.7l-5.97-10.521l-2.09,2.57v7.95h-5.46V93.34h5.46v10.771h0.1
			c0.55-0.94,1.12-1.811,1.67-2.67l5.53-8.101h6.76l-8.06,10.37l8.49,13.99H45.25z M74.89,117.7l-0.359-9.33
			c-0.11-2.92-0.221-6.47-0.221-10.01H74.2c-0.76,3.109-1.771,6.58-2.71,9.439l-2.96,9.5h-4.3l-2.61-9.43
			c-0.79-2.86-1.62-6.33-2.2-9.51h-0.07c-0.15,3.29-0.26,7.05-0.44,10.09l-0.43,9.25h-5.1l1.56-24.36h7.33l2.39,8.13
			c0.76,2.82,1.52,5.86,2.06,8.71h0.11c0.689-2.819,1.52-6.04,2.31-8.75l2.601-8.1h7.2l1.34,24.37H74.89z M99.72,117.7H84.5V93.34
			h5.53v19.74h9.689V117.7z M27.18,85.91v-75.2h54.51v14.47c4.31,2.98,7.79,7.11,9.96,11.96h13.17l0.01,48.77H27.18z"/>
		<path fill="#FFFFFF" d="M90.01,43.2c-0.85,0.7-2.06,0.82-3.069-0.04c-1.341-1.14-2.57-2.43-3.69-3.78
			c-2.54-3.07-4.8-6.38-7.49-9.3c-3.47-3.76-7.979-5.59-13.09-5.9c-1.39-0.09-2.79-0.14-4.19-0.21c-0.27-0.02-0.53-0.09-0.81-0.14
			c-0.01-0.15-0.03-0.3-0.05-0.46c1.3-0.29,2.59-0.68,3.9-0.85c7.48-0.99,14.22,0.9,20.17,5.42v6.85c0,1.29,1.05,2.35,2.35,2.35
			h5.26c0.5,1.02,0.94,2.08,1.311,3.18C91.08,41.73,90.93,42.45,90.01,43.2z"/>
		<path fill="#FFFFFF" d="M104.83,85.91H27.18v-75.2h54.51v14.47c-4.69-3.26-10.36-5.15-16.42-5.13
			c-15.81-0.04-28.83,12.99-28.88,28.78c-0.05,15.62,12.76,28.92,28.63,29.05C81.21,78,94.15,64.72,94.19,49.01
			c0.01-4.24-0.9-8.26-2.54-11.87h13.17L104.83,85.91z"/>
		<path fill="#FFFFFF" d="M51.68,117.7h-6.43l-5.97-10.521l-2.09,2.57v7.95h-5.46V93.34h5.46v10.771h0.1
			c0.55-0.94,1.12-1.811,1.67-2.67l5.53-8.101h6.76l-8.06,10.37L51.68,117.7z"/>
		<path fill="#FFFFFF" d="M80.28,117.7H74.89l-0.359-9.33c-0.11-2.92-0.221-6.47-0.221-10.01H74.2
			c-0.76,3.109-1.771,6.58-2.71,9.439l-2.96,9.5h-4.3l-2.61-9.43c-0.79-2.86-1.62-6.33-2.2-9.51h-0.07
			c-0.15,3.29-0.26,7.05-0.44,10.09l-0.43,9.25h-5.1l1.56-24.36h7.33l2.39,8.13c0.76,2.82,1.52,5.86,2.06,8.71h0.11
			c0.689-2.819,1.52-6.04,2.31-8.75l2.601-8.1h7.2L80.28,117.7z"/>
		<polygon fill="#FFFFFF" points="99.72,113.08 99.72,117.7 84.5,117.7 84.5,93.34 90.03,93.34 90.03,113.08 		"/>
		<path fill="#0095FF" d="M89.3,37.14h-5.26c-1.3,0-2.35-1.06-2.35-2.35v-6.85c0.06,0.04,0.119,0.08,0.18,0.13
			C85.08,30.54,87.57,33.57,89.3,37.14z"/>
		<g>
			<path fill="#0002BF" d="M91.65,37.14H89.3c0.5,1.02,0.94,2.08,1.311,3.18c0.47,1.41,0.319,2.13-0.601,2.88
				c-0.85,0.7-2.06,0.82-3.069-0.04c-1.341-1.14-2.57-2.43-3.69-3.78c-2.54-3.07-4.8-6.38-7.49-9.3c-3.47-3.76-7.979-5.59-13.09-5.9
				c-1.39-0.09-2.79-0.14-4.19-0.21c-0.27-0.02-0.53-0.09-0.81-0.14c-0.01-0.15-0.03-0.3-0.05-0.46c1.3-0.29,2.59-0.68,3.9-0.85
				c7.48-0.99,14.22,0.9,20.17,5.42v-2.76c-4.69-3.26-10.36-5.15-16.42-5.13c-15.81-0.04-28.83,12.99-28.88,28.78
				c-0.05,15.62,12.76,28.92,28.63,29.05C81.21,78,94.15,64.72,94.19,49.01C94.2,44.77,93.29,40.75,91.65,37.14z M85.81,66.25
				c-2.119,3.13-5.439,3.79-8.829,4.3c-6.421,0.96-12.701,0.21-18.931-1.39c-0.36-0.101-0.72-0.17-1.08-0.24
				c-2.58-0.54-3.61,0.521-2.98,3.04c0.09,0.35,0.14,0.7,0.27,1.33c-0.63-0.22-1.07-0.32-1.46-0.521
				c-4.79-2.539-8.51-6.189-11.12-10.939c-1.12-2.02,0.17-4.39,2.51-4.23c1.75,0.12,3.53,0.7,5.17,1.37
				c5.19,2.13,10.32,4.44,15.86,5.49c3.2,0.61,6.47,1.05,9.72,1.21c3.77,0.19,7.46-0.68,11.09-1.67c0.34-0.1,0.68-0.17,1.02-0.26
				c0.11,0.11,0.22,0.23,0.33,0.34C86.85,64.8,86.31,65.51,85.81,66.25z M91.01,56.56c-0.149,0.73-0.52,0.95-1.35,0.79
				c-5.36-1.04-10.34-3.09-14.92-5.97c-5.78-3.62-11.35-7.58-17.04-11.36c-1.28-0.85-2.67-1.58-4.05-2.27
				c-4.09-2.06-7.79-1.23-11.19,1.59c-0.57,0.47-1.1,0.99-1.67,1.45c-0.26,0.21-0.57,0.36-0.85,0.53c-0.1-0.07-0.19-0.13-0.29-0.2
				c0.21-0.68,0.38-1.37,0.63-2.04c1.32-3.61,3.54-6.65,6.34-9.21c0.82-0.74,2.18-1,3.34-1.23c4.7-0.94,9.12-0.35,12.89,2.87
				c2.78,2.37,5.43,4.89,8.209,7.25c4.03,3.41,8.07,6.8,12.221,10.05c2.27,1.77,4.89,3.03,7.729,3.7c0.561,0.13,0.8,0.37,0.62,1.03
				C91.35,54.52,91.23,55.55,91.01,56.56z"/>
			<path fill="#FFFFFF" d="M91.63,53.54c-0.28,0.98-0.399,2.01-0.62,3.02c-0.149,0.73-0.52,0.95-1.35,0.79
				c-5.36-1.04-10.34-3.09-14.92-5.97c-5.78-3.62-11.35-7.58-17.04-11.36c-1.28-0.85-2.67-1.58-4.05-2.27
				c-4.09-2.06-7.79-1.23-11.19,1.59c-0.57,0.47-1.1,0.99-1.67,1.45c-0.26,0.21-0.57,0.36-0.85,0.53c-0.1-0.07-0.19-0.13-0.29-0.2
				c0.21-0.68,0.38-1.37,0.63-2.04c1.32-3.61,3.54-6.65,6.34-9.21c0.82-0.74,2.18-1,3.34-1.23c4.7-0.94,9.12-0.35,12.89,2.87
				c2.78,2.37,5.43,4.89,8.209,7.25c4.03,3.41,8.07,6.8,12.221,10.05c2.27,1.77,4.89,3.03,7.729,3.7
				C91.57,52.64,91.81,52.88,91.63,53.54z"/>
			<path fill="#FFFFFF" d="M87.38,64.08c-0.53,0.72-1.07,1.43-1.57,2.17c-2.119,3.13-5.439,3.79-8.829,4.3
				c-6.421,0.96-12.701,0.21-18.931-1.39c-0.36-0.101-0.72-0.17-1.08-0.24c-2.58-0.54-3.61,0.521-2.98,3.04
				c0.09,0.35,0.14,0.7,0.27,1.33c-0.63-0.22-1.07-0.32-1.46-0.521c-4.79-2.539-8.51-6.189-11.12-10.939
				c-1.12-2.02,0.17-4.39,2.51-4.23c1.75,0.12,3.53,0.7,5.17,1.37c5.19,2.13,10.32,4.44,15.86,5.49c3.2,0.61,6.47,1.05,9.72,1.21
				c3.77,0.19,7.46-0.68,11.09-1.67c0.34-0.1,0.68-0.17,1.02-0.26C87.16,63.85,87.27,63.97,87.38,64.08z"/>
			<path fill="#0095FF" d="M91.65,37.14H89.3c-1.729-3.57-4.22-6.6-7.43-9.07c-0.061-0.05-0.12-0.09-0.18-0.13v-2.76
				C86,28.16,89.48,32.29,91.65,37.14z"/>
		</g>
	</g>
</g>
</svg>
