<?xml version="1.0" encoding="UTF-8" ?>
<!DOCTYPE svg PUBLIC "-//W3C//DTD SVG 1.1//EN" "http://www.w3.org/Graphics/SVG/1.1/DTD/svg11.dtd">
<svg width="64pt" height="64pt" viewBox="0 0 64 64" version="1.1" xmlns="http://www.w3.org/2000/svg">
<g id="#e31324ff">
<path fill="#e31324" opacity="1.00" d=" M 26.37 9.50 C 32.57 6.74 38.47 3.25 44.85 0.92 C 50.75 9.52 56.76 18.06 62.47 26.78 C 62.44 27.52 62.38 28.99 62.34 29.73 C 61.73 30.05 60.49 30.69 59.87 31.01 C 51.97 34.23 44.68 38.71 36.95 42.30 C 34.87 39.51 32.98 36.57 31.04 33.67 L 31.48 32.58 C 33.33 35.12 35.07 37.74 37.02 40.20 C 40.98 38.11 45.03 36.16 48.78 33.70 C 52.84 31.07 57.47 29.39 61.38 26.52 C 53.54 31.25 44.86 34.22 36.86 38.66 C 35.18 36.27 33.48 33.89 31.77 31.52 C 34.04 30.38 36.18 27.64 38.96 29.03 C 39.21 29.09 39.73 29.20 39.99 29.25 C 41.17 28.74 42.31 28.16 43.45 27.58 C 43.53 24.84 43.46 22.06 44.17 19.38 C 46.41 17.09 48.74 14.45 48.98 11.09 C 48.74 9.16 47.32 7.66 46.34 6.05 C 45.68 5.12 45.03 4.18 44.38 3.25 C 42.59 3.80 40.87 4.56 39.22 5.46 C 33.33 8.52 27.23 11.15 21.28 14.08 C 19.89 14.86 18.23 14.35 16.74 14.47 C 19.74 12.42 23.14 11.12 26.37 9.50 Z" />
</g>
<g id="#d1676bff">
<path fill="#d1676b" opacity="1.00" d=" M 39.22 5.46 C 40.87 4.56 42.59 3.80 44.38 3.25 C 45.03 4.18 45.68 5.12 46.34 6.05 C 45.80 9.47 43.49 12.09 41.47 14.74 C 40.94 14.39 39.86 13.68 39.32 13.33 C 38.03 14.07 36.70 14.75 35.34 15.37 C 35.47 18.17 35.56 20.97 35.57 23.78 C 32.31 24.86 28.96 23.97 25.71 23.34 C 25.40 23.26 24.79 23.10 24.48 23.02 L 24.15 22.64 C 25.07 21.22 26.79 21.46 28.21 21.25 C 31.68 16.43 36.09 12.35 39.36 7.40 C 39.32 6.91 39.25 5.94 39.22 5.46 Z" />
</g>
<g id="#d38484ff">
<path fill="#d38484" opacity="1.00" d=" M 21.28 14.08 C 27.23 11.15 33.33 8.52 39.22 5.46 C 39.25 5.94 39.32 6.91 39.36 7.40 C 36.09 12.35 31.68 16.43 28.21 21.25 C 26.79 21.46 25.07 21.22 24.15 22.64 C 23.49 21.62 22.87 20.58 22.27 19.51 C 22.87 19.56 24.05 19.65 24.64 19.69 C 23.81 18.78 22.99 17.86 22.17 16.95 L 21.79 18.88 C 21.02 17.87 20.25 16.86 19.49 15.85 C 16.43 16.91 13.41 18.08 10.37 19.19 L 9.57 17.52 C 11.37 18.24 14.54 17.17 14.70 15.03 C 15.38 14.84 16.06 14.64 16.74 14.47 C 18.23 14.35 19.89 14.86 21.28 14.08 Z" />
</g>
<g id="#d44d53ff">
<path fill="#d44d53" opacity="1.00" d=" M 46.34 6.05 C 47.32 7.66 48.74 9.16 48.98 11.09 C 48.74 14.45 46.41 17.09 44.17 19.38 C 44.08 18.59 43.90 17.01 43.80 16.22 C 43.02 15.73 42.25 15.24 41.47 14.74 C 43.49 12.09 45.80 9.47 46.34 6.05 Z" />
</g>
<g id="#000000ff">
<path fill="#000000" opacity="1.00" d=" M 35.34 15.37 C 36.70 14.75 38.03 14.07 39.32 13.33 C 39.86 13.68 40.94 14.39 41.47 14.74 C 42.25 15.24 43.02 15.73 43.80 16.22 C 43.90 17.01 44.08 18.59 44.17 19.38 C 43.46 22.06 43.53 24.84 43.45 27.58 C 42.31 28.16 41.17 28.74 39.99 29.25 C 39.73 29.20 39.21 29.09 38.96 29.03 L 39.61 28.98 C 40.85 28.45 42.04 27.80 43.22 27.16 C 43.17 23.63 43.38 20.11 43.39 16.59 C 42.14 17.20 40.89 17.81 39.65 18.42 C 38.29 18.11 37.22 17.20 36.11 16.44 C 36.07 18.84 35.96 21.26 36.14 23.66 L 35.57 23.78 C 35.56 20.97 35.47 18.17 35.34 15.37 Z" />
<path fill="#000000" opacity="1.00" d=" M 5.53 23.80 C 5.96 23.58 6.83 23.13 7.26 22.91 C 7.27 25.01 7.30 27.11 7.24 29.22 L 6.69 29.80 C 6.86 36.32 6.78 42.85 6.76 49.38 C 9.74 51.11 12.93 52.46 15.74 54.47 C 15.31 50.02 15.70 45.55 15.32 41.10 C 16.06 41.69 16.84 42.26 17.71 42.65 C 15.61 43.23 16.46 45.40 16.38 47.00 C 16.46 49.18 16.39 51.37 16.30 53.55 C 16.30 53.82 16.30 54.36 16.29 54.63 C 21.46 57.24 26.76 59.60 31.75 62.55 C 33.62 61.59 35.51 60.66 37.41 59.76 C 35.86 61.20 33.98 62.20 32.05 63.03 C 31.70 62.93 31.02 62.72 30.67 62.62 C 22.47 58.47 14.30 54.23 6.22 49.84 C 6.19 42.21 6.23 34.58 6.21 26.95 C 6.23 25.85 6.00 24.80 5.53 23.80 Z" />
<path fill="#000000" opacity="1.00" d=" M 15.43 27.07 C 16.41 28.58 18.26 28.67 19.81 29.23 C 19.15 29.29 17.82 29.43 17.16 29.50 L 16.56 29.54 L 16.57 30.08 L 16.62 31.47 C 16.63 32.12 16.65 33.43 16.66 34.09 C 16.37 34.01 15.80 33.86 15.51 33.79 C 15.43 31.55 15.53 29.31 15.43 27.07 Z" />
<path fill="#000000" opacity="1.00" d=" M 20.08 29.64 C 23.28 30.18 20.64 33.60 21.81 35.58 C 21.43 35.17 20.68 34.33 20.31 33.91 C 20.49 33.53 20.87 32.77 21.06 32.39 C 20.81 31.71 20.33 30.33 20.08 29.64 Z" />
</g>
<g id="#6f211dca">
<path fill="#6f211d" opacity="0.79" d=" M 9.57 17.52 C 11.15 16.44 12.82 15.46 14.70 15.03 C 14.54 17.17 11.37 18.24 9.57 17.52 Z" />
</g>
<g id="#9e3636f7">
<path fill="#9e3636" opacity="0.97" d=" M 10.37 19.19 C 13.41 18.08 16.43 16.91 19.49 15.85 C 20.25 16.86 21.02 17.87 21.79 18.88 L 22.17 16.95 C 22.99 17.86 23.81 18.78 24.64 19.69 C 24.05 19.65 22.87 19.56 22.27 19.51 C 22.87 20.58 23.49 21.62 24.15 22.64 L 24.48 23.02 C 25.21 23.87 25.94 24.73 26.65 25.60 L 25.30 26.26 C 23.54 23.44 21.59 20.75 19.62 18.07 C 18.28 18.25 16.93 18.47 15.71 19.09 C 12.88 20.32 9.99 21.44 7.26 22.91 C 6.83 23.13 5.96 23.58 5.53 23.80 C 4.46 24.13 2.32 24.77 1.24 25.09 L 1.26 23.16 C 4.24 21.71 7.30 20.44 10.37 19.19 Z" />
</g>
<g id="#e0e2e5ff">
<path fill="#e0e2e5" opacity="1.00" d=" M 36.11 16.44 C 37.22 17.20 38.29 18.11 39.65 18.42 C 39.03 20.64 39.63 23.92 36.84 24.68 L 36.14 23.66 C 35.96 21.26 36.07 18.84 36.11 16.44 Z" />
</g>
<g id="#fefefeff">
<path fill="#fefefe" opacity="1.00" d=" M 39.65 18.42 C 40.89 17.81 42.14 17.20 43.39 16.59 C 43.38 20.11 43.17 23.63 43.22 27.16 C 42.04 27.80 40.85 28.45 39.61 28.98 C 38.72 27.52 37.82 26.08 36.84 24.68 C 39.63 23.92 39.03 20.64 39.65 18.42 Z" />
<path fill="#fefefe" opacity="1.00" d=" M 24.48 23.02 C 24.79 23.10 25.40 23.26 25.71 23.34 C 27.91 25.93 29.75 28.79 31.77 31.52 C 33.48 33.89 35.18 36.27 36.86 38.66 C 44.86 34.22 53.54 31.25 61.38 26.52 C 57.47 29.39 52.84 31.07 48.78 33.70 C 45.03 36.16 40.98 38.11 37.02 40.20 C 35.07 37.74 33.33 35.12 31.48 32.58 C 31.00 31.47 30.26 30.50 29.36 29.69 C 28.66 28.21 27.77 26.81 26.65 25.60 C 25.94 24.73 25.21 23.87 24.48 23.02 Z" />
</g>
<g id="#923b37f0">
<path fill="#923b37" opacity="0.94" d=" M 1.34 21.79 C 3.77 19.84 6.85 18.96 9.57 17.52 L 10.37 19.19 C 7.30 20.44 4.24 21.71 1.26 23.16 L 1.34 21.79 Z" />
</g>
<g id="#949699ff">
<path fill="#949699" opacity="1.00" d=" M 15.71 19.09 C 16.93 18.47 18.28 18.25 19.62 18.07 C 21.59 20.75 23.54 23.44 25.30 26.26 L 26.65 25.60 C 25.38 27.28 27.31 30.24 29.36 29.69 C 28.46 31.06 29.73 33.66 31.48 32.58 L 31.04 33.67 C 32.98 36.57 34.87 39.51 36.95 42.30 C 44.68 38.71 51.97 34.23 59.87 31.01 C 59.29 31.29 58.11 31.83 57.52 32.10 C 57.08 37.88 57.38 43.69 57.32 49.48 C 55.20 50.84 52.97 52.02 50.60 52.90 C 52.06 51.63 53.70 50.60 55.42 49.73 C 55.70 49.46 56.24 48.91 56.51 48.64 C 56.87 44.24 56.22 39.82 56.66 35.41 C 52.83 37.68 48.72 39.38 44.79 41.47 C 42.67 42.57 40.52 43.64 38.39 44.74 C 36.54 45.71 34.68 46.67 32.72 47.42 L 32.22 47.60 C 32.27 45.73 32.30 43.85 32.29 41.97 C 29.44 38.70 26.83 35.23 24.48 31.58 C 24.74 30.99 25.24 29.81 25.50 29.22 C 23.50 25.99 21.39 22.83 19.30 19.66 C 18.11 19.45 16.91 19.26 15.71 19.09 Z" />
</g>
<g id="#ababacff">
<path fill="#ababac" opacity="1.00" d=" M 7.26 22.91 C 9.99 21.44 12.88 20.32 15.71 19.09 C 16.91 19.26 18.11 19.45 19.30 19.66 C 21.39 22.83 23.50 25.99 25.50 29.22 C 25.24 29.81 24.74 30.99 24.48 31.58 C 22.83 29.16 21.14 26.76 19.54 24.30 C 15.32 25.62 11.20 27.28 7.24 29.22 C 7.30 27.11 7.27 25.01 7.26 22.91 Z" />
</g>
<g id="#cb1721ff">
<path fill="#cb1721" opacity="1.00" d=" M 25.71 23.34 C 28.96 23.97 32.31 24.86 35.57 23.78 L 36.14 23.66 L 36.84 24.68 C 37.82 26.08 38.72 27.52 39.61 28.98 L 38.96 29.03 C 36.18 27.64 34.04 30.38 31.77 31.52 C 29.75 28.79 27.91 25.93 25.71 23.34 Z" />
<path fill="#cb1721" opacity="1.00" d=" M 26.65 25.60 C 27.77 26.81 28.66 28.21 29.36 29.69 C 27.31 30.24 25.38 27.28 26.65 25.60 Z" />
<path fill="#cb1721" opacity="1.00" d=" M 29.36 29.69 C 30.26 30.50 31.00 31.47 31.48 32.58 C 29.73 33.66 28.46 31.06 29.36 29.69 Z" />
</g>
<g id="#e1e3e6ff">
<path fill="#e1e3e6" opacity="1.00" d=" M 7.24 29.22 C 11.20 27.28 15.32 25.62 19.54 24.30 C 21.14 26.76 22.83 29.16 24.48 31.58 C 26.83 35.23 29.44 38.70 32.29 41.97 C 32.30 43.85 32.27 45.73 32.22 47.60 C 29.10 48.59 26.24 50.17 23.39 51.72 C 23.20 49.43 22.86 47.15 22.23 44.93 C 20.76 44.09 19.26 43.31 17.71 42.65 C 16.84 42.26 16.06 41.69 15.32 41.10 C 15.70 45.55 15.31 50.02 15.74 54.47 C 12.93 52.46 9.74 51.11 6.76 49.38 C 6.78 42.85 6.86 36.32 6.69 29.80 L 7.24 29.22 M 15.43 27.07 C 15.53 29.31 15.43 31.55 15.51 33.79 C 15.80 33.86 16.37 34.01 16.66 34.09 C 16.65 33.43 16.63 32.12 16.62 31.47 C 17.12 31.96 18.14 32.93 18.65 33.42 C 18.50 33.84 18.20 34.69 18.05 35.11 C 19.26 35.83 20.68 35.80 22.05 35.85 L 21.81 35.58 C 20.64 33.60 23.28 30.18 20.08 29.64 L 19.93 29.21 L 19.81 29.23 C 18.26 28.67 16.41 28.58 15.43 27.07 Z" />
</g>
<g id="#0a090952">
<path fill="#0a0909" opacity="0.32" d=" M 62.34 29.73 C 62.92 28.72 63.47 27.70 64.00 26.66 L 64.00 30.66 C 62.22 32.06 59.78 32.89 58.77 35.05 C 58.16 40.42 59.25 45.90 58.24 51.22 C 50.66 56.07 42.10 59.22 34.46 64.00 L 30.32 64.00 L 30.67 62.62 C 31.02 62.72 31.70 62.93 32.05 63.03 C 33.98 62.20 35.86 61.20 37.41 59.76 C 38.39 59.22 39.37 58.71 40.36 58.21 C 43.06 56.86 45.73 55.44 48.42 54.06 C 49.15 53.68 49.88 53.29 50.60 52.90 C 52.97 52.02 55.20 50.84 57.32 49.48 C 57.38 43.69 57.08 37.88 57.52 32.10 C 58.11 31.83 59.29 31.29 59.87 31.01 C 60.49 30.69 61.73 30.05 62.34 29.73 Z" />
</g>
<g id="#909099ff">
<path fill="#909099" opacity="1.00" d=" M 19.81 29.23 L 19.93 29.21 L 20.08 29.64 C 20.33 30.33 20.81 31.71 21.06 32.39 C 20.87 32.77 20.49 33.53 20.31 33.91 C 20.68 34.33 21.43 35.17 21.81 35.58 L 22.05 35.85 C 20.68 35.80 19.26 35.83 18.05 35.11 C 18.20 34.69 18.50 33.84 18.65 33.42 C 18.14 32.93 17.12 31.96 16.62 31.47 L 16.57 30.08 L 17.16 30.08 L 17.16 29.50 C 17.82 29.43 19.15 29.29 19.81 29.23 Z" />
</g>
<g id="#d0d0d7ff">
<path fill="#d0d0d7" opacity="1.00" d=" M 16.56 29.54 L 17.16 29.50 L 17.16 30.08 L 16.57 30.08 L 16.56 29.54 Z" />
</g>
<g id="#b3b8beff">
<path fill="#b3b8be" opacity="1.00" d=" M 44.79 41.47 C 48.72 39.38 52.83 37.68 56.66 35.41 C 56.22 39.82 56.87 44.24 56.51 48.64 C 56.24 48.91 55.70 49.46 55.42 49.73 C 52.45 46.32 48.86 43.48 44.79 41.47 Z" />
</g>
<g id="#c8ccd0ff">
<path fill="#c8ccd0" opacity="1.00" d=" M 38.39 44.74 C 40.52 43.64 42.67 42.57 44.79 41.47 C 48.86 43.48 52.45 46.32 55.42 49.73 C 53.70 50.60 52.06 51.63 50.60 52.90 C 49.88 53.29 49.15 53.68 48.42 54.06 C 46.07 50.01 41.57 48.03 38.39 44.74 Z" />
</g>
<g id="#985300ff">
<path fill="#985300" opacity="1.00" d=" M 16.38 47.00 C 16.46 45.40 15.61 43.23 17.71 42.65 C 19.26 43.31 20.76 44.09 22.23 44.93 C 22.22 45.76 22.20 47.43 22.19 48.26 C 20.26 47.83 18.32 47.41 16.38 47.00 Z" />
</g>
<g id="#fdfdfdff">
<path fill="#fdfdfd" opacity="1.00" d=" M 22.23 44.93 C 22.86 47.15 23.20 49.43 23.39 51.72 C 26.24 50.17 29.10 48.59 32.22 47.60 L 32.72 47.42 C 33.00 49.12 33.13 50.86 33.63 52.53 C 35.60 54.72 38.12 56.31 40.36 58.21 C 39.37 58.71 38.39 59.22 37.41 59.76 C 35.51 60.66 33.62 61.59 31.75 62.55 C 26.76 59.60 21.46 57.24 16.29 54.63 C 16.30 54.36 16.30 53.82 16.30 53.55 C 18.27 54.61 20.23 55.67 22.19 56.73 C 22.16 53.91 22.18 51.08 22.19 48.26 C 22.20 47.43 22.22 45.76 22.23 44.93 Z" />
</g>
<g id="#dee0e3ff">
<path fill="#dee0e3" opacity="1.00" d=" M 32.72 47.42 C 34.68 46.67 36.54 45.71 38.39 44.74 C 41.57 48.03 46.07 50.01 48.42 54.06 C 45.73 55.44 43.06 56.86 40.36 58.21 C 38.12 56.31 35.60 54.72 33.63 52.53 C 33.13 50.86 33.00 49.12 32.72 47.42 Z" />
</g>
<g id="#b45d00ff">
<path fill="#b45d00" opacity="1.00" d=" M 16.38 47.00 C 18.32 47.41 20.26 47.83 22.19 48.26 C 22.18 51.08 22.16 53.91 22.19 56.73 C 20.23 55.67 18.27 54.61 16.30 53.55 C 16.39 51.37 16.46 49.18 16.38 47.00 Z" />
</g>
</svg>
