<?xml version="1.0" encoding="iso-8859-1"?>
<!DOCTYPE svg PUBLIC "-//W3C//DTD SVG 1.1//EN" "http://www.w3.org/Graphics/SVG/1.1/DTD/svg11.dtd">
<svg version="1.1" xmlns="http://www.w3.org/2000/svg" xmlns:xlink="http://www.w3.org/1999/xlink" x="0px" y="0px" width="120px"
	 height="120px" viewBox="0 0 120 120" enable-background="new 0 0 120 120" xml:space="preserve">
<g id="normal">
	<g>
		<path display="none" fill="#000000" d="M100.504,38.24L31.638,7.354l0.371,65.102L100.504,38.24L100.504,38.24z M27.67,113.499
			L27.67,6.5l-8.171,0.001L19.496,113.5L27.67,113.499L27.67,113.499z"/>
		<g>
			<polygon fill="#00FF00" points="19.497,91.847 27.67,83.665 27.67,54.335 19.498,46.153 			"/>
			<polygon fill="#00FF00" points="32.009,72.456 41.19,67.87 31.93,58.6 			"/>
			<polygon fill="#00FF00" points="32.581,23.85 60,51.299 81.54,29.735 31.638,7.354 31.737,24.694 			"/>
			<polygon fill="#00FF00" points="19.497,101.053 19.496,113.5 27.67,113.499 27.67,109.235 			"/>
			<polygon fill="#00FF00" points="27.67,28.766 27.67,6.5 19.498,6.501 19.498,36.946 			"/>
		</g>
		<path fill="#B91111" d="M87.419,102.831L26.207,41.55l6.374-6.381l61.213,61.279L87.419,102.831L87.419,102.831z M32.581,102.831
			l-6.374-6.381l61.213-61.281l6.374,6.382L32.581,102.831L32.581,102.831z"/>
	</g>
</g>
<g id="active">
	<g>
		<path display="none" fill="#000000" d="M100.504,38.24L31.638,7.354l0.371,65.102L100.504,38.24L100.504,38.24z M27.67,113.499
			L27.67,6.5l-8.171,0.001L19.496,113.5L27.67,113.499L27.67,113.499z"/>
		<g>
			<polygon fill="#00FF00" points="19.497,91.847 27.67,83.665 27.67,54.335 19.498,46.153 			"/>
			<polygon fill="#00FF00" points="32.009,72.456 41.19,67.87 31.93,58.6 			"/>
			<polygon fill="#00FF00" points="32.581,23.85 60,51.299 81.54,29.735 31.638,7.354 31.737,24.694 			"/>
			<polygon fill="#00FF00" points="19.497,101.053 19.496,113.5 27.67,113.499 27.67,109.235 			"/>
			<polygon fill="#00FF00" points="27.67,28.766 27.67,6.5 19.498,6.501 19.498,36.946 			"/>
		</g>
		<path fill="#B91111" d="M87.419,102.831L26.207,41.55l6.374-6.381l61.213,61.279L87.419,102.831L87.419,102.831z M32.581,102.831
			l-6.374-6.381l61.213-61.281l6.374,6.382L32.581,102.831L32.581,102.831z"/>
	</g>
</g>
<g id="disabled" opacity="0.5">
	<g>
		<path display="none" fill="#000000" d="M100.504,38.24L31.638,7.354l0.371,65.102L100.504,38.24L100.504,38.24z M27.67,113.499
			L27.67,6.5l-8.171,0.001L19.496,113.5L27.67,113.499L27.67,113.499z"/>
		<g>
			<polygon fill="#00FF00" points="19.497,91.847 27.67,83.665 27.67,54.335 19.498,46.153 			"/>
			<polygon fill="#00FF00" points="32.009,72.456 41.19,67.87 31.93,58.6 			"/>
			<polygon fill="#00FF00" points="32.581,23.85 60,51.299 81.54,29.735 31.638,7.354 31.737,24.694 			"/>
			<polygon fill="#00FF00" points="19.497,101.053 19.496,113.5 27.67,113.499 27.67,109.235 			"/>
			<polygon fill="#00FF00" points="27.67,28.766 27.67,6.5 19.498,6.501 19.498,36.946 			"/>
		</g>
		<path fill="#B91111" d="M87.419,102.831L26.207,41.55l6.374-6.381l61.213,61.279L87.419,102.831L87.419,102.831z M32.581,102.831
			l-6.374-6.381l61.213-61.281l6.374,6.382L32.581,102.831L32.581,102.831z"/>
	</g>
</g>
</svg>
