<?xml version="1.0" encoding="UTF-8" ?>
<!DOCTYPE svg PUBLIC "-//W3C//DTD SVG 1.1//EN" "http://www.w3.org/Graphics/SVG/1.1/DTD/svg11.dtd">
<svg width="512pt" height="512pt" viewBox="0 0 512 512" version="1.1" xmlns="http://www.w3.org/2000/svg">
<g id="#000000ff">
<path fill="#87CEEB" opacity="1.00" d=" M 226.46 64.59 C 229.59 63.92 232.81 64.00 236.00 63.99 C 251.03 64.06 266.06 63.91 281.09 64.06 C 293.15 64.14 303.91 74.93 303.94 86.99 C 304.04 103.66 304.04 120.33 303.95 137.00 C 303.86 149.05 293.12 159.83 281.07 159.96 C 264.36 160.03 247.64 160.03 230.93 159.96 C 218.89 159.84 208.14 149.08 208.05 137.03 C 207.92 121.69 208.06 106.34 207.98 91.00 C 207.96 87.11 208.04 83.10 209.49 79.42 C 212.27 72.13 218.81 66.29 226.46 64.59 Z" />
<path fill="#00FF00" opacity="1.00" d=" M 226.41 192.60 C 229.55 191.92 232.79 192.00 235.98 191.99 C 250.99 192.06 266.00 191.91 281.00 192.06 C 293.06 192.09 303.87 202.86 303.94 214.92 C 304.04 231.64 304.04 248.37 303.94 265.09 C 303.81 277.11 293.09 287.83 281.07 287.96 C 265.72 288.08 250.37 287.94 235.02 288.02 C 231.66 288.01 228.22 288.03 224.98 287.02 C 215.53 284.18 208.18 275.06 208.05 265.10 C 207.91 249.73 208.06 234.36 207.98 218.99 C 207.96 215.07 208.04 211.05 209.51 207.36 C 212.30 200.11 218.80 194.31 226.41 192.60 Z" />
<path fill="#FF3030" opacity="1.00" d=" M 226.47 320.59 C 229.61 319.91 232.84 320.00 236.03 319.99 C 251.04 320.06 266.04 319.91 281.04 320.06 C 293.10 320.11 303.89 330.89 303.94 342.96 C 304.04 359.65 304.04 376.34 303.94 393.03 C 303.84 405.09 293.08 415.85 281.02 415.96 C 264.31 416.02 247.60 416.04 230.89 415.95 C 218.87 415.82 208.14 405.06 208.05 393.03 C 207.96 376.34 207.97 359.65 208.05 342.96 C 208.11 332.45 216.29 322.82 226.47 320.59 Z" />
</g>
</svg>
