<?xml version="1.0" encoding="utf-8"?>
<!-- Generator: Adobe Illustrator 17.1.0, SVG Export Plug-In . SVG Version: 6.00 Build 0)  -->
<!DOCTYPE svg PUBLIC "-//W3C//DTD SVG 1.1//EN" "http://www.w3.org/Graphics/SVG/1.1/DTD/svg11.dtd">
<svg version="1.1" xmlns="http://www.w3.org/2000/svg" xmlns:xlink="http://www.w3.org/1999/xlink" x="0px" y="0px" width="120px"
	 height="120px" viewBox="0 0 120 120" enable-background="new 0 0 120 120" xml:space="preserve">
<g id="Layer_4" display="none">
	<circle display="inline" opacity="0.5" fill="#DF1F26" cx="60" cy="60" r="60"/>
	<rect x="6.5" y="6.5" display="inline" opacity="0.5" fill="#3B4FA1" width="107" height="107"/>
</g>
<g id="normal">
	<path fill="#D7D7D7" d="M69.442,37.92c-2.344-1.452-5.162-2.179-8.454-2.179c-7.786,0-14.352,3.08-19.698,9.239
		c-5.346,6.159-8.018,13.791-8.018,22.893c0,6.275,1.559,11.06,4.677,14.352c3.118,3.293,7.641,4.939,13.568,4.939
		c3.796,0,7.127-0.823,9.994-2.47c2.866-1.646,5.365-4.193,7.496-7.641v1.104c0,3.022,0.978,5.298,2.934,6.828
		c1.956,1.531,4.852,2.295,8.687,2.295c3.292,0,6.517-0.561,9.675-1.685c3.157-1.123,6.052-2.731,8.687-4.823
		c4.686-3.719,8.26-8.289,10.72-13.713c2.459-5.423,3.69-11.524,3.69-18.303c0-5.887-1.307-11.369-3.922-16.444
		c-2.615-5.074-6.441-9.548-11.476-13.422c-4.106-3.176-9.006-5.636-14.701-7.379c-5.694-1.743-11.699-2.615-18.013-2.615
		c-9.684,0-18.506,1.782-26.467,5.346c-7.96,3.564-14.769,8.794-20.424,15.688c-3.835,4.687-6.76,9.898-8.774,15.63
		c-2.014,5.733-3.021,11.795-3.021,18.187c0,7.67,1.472,14.526,4.416,20.569c2.943,6.043,7.398,11.35,13.364,15.921
		c4.725,3.602,10.148,6.313,16.269,8.135c6.12,1.82,12.86,2.731,20.221,2.731c7.089,0,13.858-1.085,20.308-3.254
		c6.449-2.17,12.541-5.404,18.274-9.703l-3.196-4.765c-5.152,3.563-10.817,6.294-16.996,8.193
		c-6.179,1.897-12.542,2.847-19.087,2.847c-5.849,0-11.418-0.804-16.705-2.412c-5.288-1.608-9.869-3.903-13.742-6.885
		c-5.075-3.835-8.803-8.289-11.185-13.364c-2.382-5.074-3.574-11.04-3.574-17.897c0-8.677,2.034-16.608,6.101-23.794
		c4.067-7.185,9.8-12.986,17.199-17.402c3.796-2.246,7.882-3.912,12.26-4.997c4.377-1.084,9.142-1.627,14.294-1.627
		c11.97,0,21.644,3.119,29.024,9.355c7.379,6.237,11.069,14.372,11.069,24.404c0,4.764-0.872,9.288-2.615,13.567
		c-1.743,4.281-4.165,7.893-7.263,10.837c-2.015,1.898-4.077,3.361-6.188,4.387c-2.112,1.027-4.097,1.54-5.956,1.54
		c-1.898,0-3.341-0.465-4.329-1.395c-0.988-0.93-1.482-2.285-1.482-4.067c0-0.503,0.038-1.046,0.116-1.627
		c0.077-0.581,0.193-1.181,0.349-1.801l8.483-33.468h-7.67l-3.312,6.682C73.655,41.551,71.785,39.373,69.442,37.92z M63.515,76.879
		c-3.002,2.673-6.383,4.009-10.139,4.009c-3.448,0-6.111-1.104-7.99-3.312c-1.879-2.208-2.818-5.346-2.818-9.413
		c0-7.321,1.82-13.5,5.462-18.536c3.64-5.035,8.135-7.554,13.48-7.554c3.022,0,5.529,0.93,7.525,2.789
		c1.995,1.859,3.321,4.494,3.98,7.902l-3.428,13.713C68.541,70.74,66.517,74.207,63.515,76.879z"/>
</g>
</svg>
