<?xml version="1.0" encoding="utf-8"?>
<!-- Generator: Adobe Illustrator 18.0.0, SVG Export Plug-In . SVG Version: 6.00 Build 0)  -->
<!DOCTYPE svg PUBLIC "-//W3C//DTD SVG 1.1//EN" "http://www.w3.org/Graphics/SVG/1.1/DTD/svg11.dtd">
<svg version="1.1" xmlns="http://www.w3.org/2000/svg" xmlns:xlink="http://www.w3.org/1999/xlink" x="0px" y="0px" width="120px"
	 height="120px" viewBox="0 0 120 120" enable-background="new 0 0 120 120" xml:space="preserve">
<g id="Layer_4" display="none">
	<circle display="inline" opacity="0.5" fill="#DF1F26" cx="60" cy="60" r="60"/>
	<rect x="6.5" y="6.5" display="inline" opacity="0.5" fill="#3B4FA1" width="107" height="107"/>
</g>
<g id="normal">
	<g>
		<g>
			<path fill-rule="evenodd" clip-rule="evenodd" fill="#FDBF04" d="M83.264,38.96c1.807,1.484,3.469,3.138,4.964,4.936l8.77-13.717
				L83.264,38.96z M94.303,54.383c0.816,2.158,1.435,4.407,1.835,6.736l14.41-7.472L94.303,54.383z M73.53,16.63l-7.536,14.533
				c2.35,0.389,4.619,0.998,6.796,1.81L73.53,16.63z M23.802,61.108c0.4-2.326,1.018-4.571,1.834-6.726L9.413,53.648L23.802,61.108z
				 M36.685,38.953L22.962,30.18l8.761,13.703C33.218,42.087,34.878,40.435,36.685,38.953z M59.966,40.304
				c-14.944,0-27.058,12.114-27.058,27.058c0,0.345,0.013,0.686,0.026,1.027h54.064c0.013-0.341,0.026-0.683,0.026-1.027
				C87.024,52.418,74.91,40.304,59.966,40.304z M53.965,31.16l-7.534-14.53l0.74,16.334C49.347,32.154,51.616,31.547,53.965,31.16z"
				/>
		</g>
	</g>
	<path fill-rule="evenodd" clip-rule="evenodd" fill="#FC8003" d="M-0.045,85.025v-6.817h120.09v6.817H-0.045z"/>
</g>
</svg>
