<?xml version="1.0" encoding="utf-8"?>
<!-- Generator: Adobe Illustrator 16.0.1, SVG Export Plug-In . SVG Version: 6.00 Build 0)  -->
<!DOCTYPE svg PUBLIC "-//W3C//DTD SVG 1.1//EN" "http://www.w3.org/Graphics/SVG/1.1/DTD/svg11.dtd">
<svg version="1.1"
	 id="Layer_1" xmlns:rdf="http://www.w3.org/1999/02/22-rdf-syntax-ns#" xmlns:cc="http://creativecommons.org/ns#" xmlns:inkscape="http://www.inkscape.org/namespaces/inkscape" xmlns:svg="http://www.w3.org/2000/svg" xmlns:dc="http://purl.org/dc/elements/1.1/" xmlns:sodipodi="http://sodipodi.sourceforge.net/DTD/sodipodi-0.dtd" sodipodi:docname="spr_gpsstatusbg.svg" inkscape:version="0.48.5 r10040"
	 xmlns="http://www.w3.org/2000/svg" xmlns:xlink="http://www.w3.org/1999/xlink" x="0px" y="0px" width="320px" height="320px"
	 viewBox="0 0 320 320" enable-background="new 0 0 320 320" xml:space="preserve">
<rect id="rect3" display="none" fill="#DD0028" width="320" height="320"/>
<linearGradient id="path12_1_" gradientUnits="userSpaceOnUse" x1="764.9492" y1="-613.8462" x2="979.0142" y2="-827.9111" gradientTransform="matrix(1 0 0 -1 -712.9805 -560.8799)">
	<stop  offset="0" style="stop-color:#000000"/>
	<stop  offset="0.5" style="stop-color:#979596;stop-opacity:0"/>
	<stop  offset="1" style="stop-color:#FFFFFF"/>
</linearGradient>
<path id="path12" fill="url(#path12_1_)" fill-opacity="0.6" d="M159,8.5C75.58,8.5,7.5,76.58,7.5,160S75.58,311.5,159,311.5
	S310.5,243.42,310.5,160S242.42,8.5,159,8.5L159,8.5z"/>
<g id="g14">
	
		<radialGradient id="path25_1_" cx="16.2695" cy="873.6309" r="140.75" gradientTransform="matrix(-1 0 0 1 186.5195 -703.3809)" gradientUnits="userSpaceOnUse">
		<stop  offset="0" style="stop-color:#FFFFFF;stop-opacity:0"/>
		<stop  offset="0.02" style="stop-color:#FFFFFF"/>
		<stop  offset="0.04" style="stop-color:#FFFFFF"/>
		<stop  offset="0.06" style="stop-color:#FFFFFF;stop-opacity:0"/>
	</radialGradient>
	<path id="path25" fill="url(#path25_1_)" d="M29.569,185.579c1.032,34.429,23.286,70.745,23.286,70.745S58.333,266.833,73,280.5
		s47.492,29.398,81.921,30.432c86.813,2.604,158.613-69.197,156.01-156.011c-1.029-34.429-20.304-63.216-41.681-87.421
		c-7.904-8.949-19.057-17.082-19.057-17.082s-30.188-19.817-64.614-20.849C98.766,26.966,26.966,98.766,29.569,185.579z"/>
	<path id="path27" fill="#FFFFFF" fill-opacity="0.05" d="M165,310.25c-22.889,0-51.034-4.32-51.509-13.454
		c-0.476-9.134,4.046-11.78,12.227-15.87l1-0.5c3.263-1.63,6.707-2.482,10.207-2.482c1.838,0,3.69,0.233,5.542,0.718
		c0.806,0.178,7.999,1.69,18.826,1.69c22.443-0.002,55.462-6.242,85.307-35.978c36.385-36.252,34.409-85.851,34.313-87.81
		c-0.87-10.997,9.192-21.019,19.837-23.943c2-0.549,6.74,1.919,8.583,10.712c1.166,5.565,2.225,15.638-2,44
		c-3.396,22.782-11.084,47.61-39.541,76.333c-22.815,23.029-45.254,37.212-76.667,43.333C182.081,308.764,165.002,310.25,165,310.25
		z"/>
	<path id="path29" fill="#FFFFFF" fill-opacity="0.1" d="M136,301.5c0,0,23.16,8.706,55,2.5
		c22.486-4.382,51.948-17.236,74.667-40.166c23.747-23.968,36.523-55.511,39.5-75.5c3.5-23.5-1.306-33.337-1.306-33.337
		s4.306,60.504-41.027,105.67C205.311,317.979,137,301,137,301L136,301.5z"/>
	<path id="path31" fill="#FFFFFF" fill-opacity="0.1" d="M166.961,304.23c-6.508,0-12.261-0.545-17.015-1.266
		c3.042,0.229,6.513,0.385,10.348,0.385c26.968,0,66.597-7.457,102.245-42.978c35.171-35.042,40.645-79.74,41.326-98.058
		c0.721,5.322,1.009,13.479-0.688,24.865c-3.085,20.713-16.409,51.92-39.221,74.943c-19.56,19.741-47.278,34.652-74.147,39.891
		c-7.535,1.469-15.222,2.213-22.845,2.213C166.964,304.23,166.963,304.23,166.961,304.23z"/>
</g>
<g id="g33">
	<g id="g35">
		
			<radialGradient id="path46_1_" cx="873.2305" cy="-721.1299" r="150.2503" gradientTransform="matrix(1 0 0 -1 -712.9805 -560.8799)" gradientUnits="userSpaceOnUse">
			<stop  offset="0.94" style="stop-color:#000000;stop-opacity:0"/>
			<stop  offset="0.96" style="stop-color:#000000"/>
			<stop  offset="0.98" style="stop-color:#000000"/>
			<stop  offset="1" style="stop-color:#000000;stop-opacity:0"/>
		</radialGradient>
		<path id="path46" opacity="0.05" fill="url(#path46_1_)" enable-background="new    " d="M289,138.5
			c0-36.257-12.866-69.612-34.257-95.743C228.611,21.366,195.257,8.5,159,8.5C75.58,8.5,7.5,76.58,7.5,160
			c0,36.257,12.866,69.611,34.257,95.743C67.888,277.134,101.243,290,137.5,290C220.92,290,289,221.92,289,138.5z"/>
	</g>
	<g id="g48">
		
			<radialGradient id="path59_1_" cx="873.2305" cy="-721.1289" r="150.2504" gradientTransform="matrix(1 0 0 -1 -712.9805 -560.8799)" gradientUnits="userSpaceOnUse">
			<stop  offset="0.94" style="stop-color:#000000;stop-opacity:0"/>
			<stop  offset="0.96" style="stop-color:#000000"/>
			<stop  offset="0.98" style="stop-color:#000000"/>
			<stop  offset="1" style="stop-color:#000000;stop-opacity:0"/>
		</radialGradient>
		<path id="path59" opacity="0.05" fill="url(#path59_1_)" enable-background="new    " d="M288.932,133.921
			c-1.033-34.429-23.287-70.745-23.287-70.745S260.333,55,245.667,41.333S198.008,9.601,163.579,8.569
			C76.766,5.966,4.966,77.766,7.569,164.579c1.032,34.429,21.553,62.411,42.931,86.614c7.904,8.949,17.806,17.889,17.806,17.889
			s30.186,19.816,64.615,20.85C219.734,292.533,291.533,220.734,288.932,133.921z"/>
	</g>
	<path id="path61" fill-opacity="0.1" d="M154.828,9.548c22.889,0,51.033,4.32,51.509,13.454s-4.046,11.781-12.228,15.87l-1,0.5
		c-3.262,1.63-6.707,2.483-10.207,2.483c-1.838,0-3.689-0.234-5.541-0.716c-0.807-0.178-8-1.692-18.826-1.692
		c-22.443,0.001-55.462,6.242-85.306,35.977c-36.386,36.252-34.41,85.852-34.313,87.811c0.87,10.996-9.194,21.021-19.837,23.942
		c-2,0.55-6.74-1.919-8.583-10.712c-1.166-5.564-2.225-15.638,2-44c3.394-22.782,11.084-47.611,39.541-76.333
		c22.816-23.03,45.254-37.212,76.667-43.333C137.746,11.036,154.826,9.548,154.828,9.548z"/>
	<path id="path63" fill-opacity="0.1" d="M183.828,18.298c0,0-23.16-8.706-55-2.5C106.341,20.18,76.88,33.034,54.161,55.965
		c-23.747,23.968-36.523,55.511-39.5,75.5c-3.5,23.5,1.306,33.337,1.306,33.337s-4.306-60.504,41.027-105.67
		C114.517,1.82,182.827,18.799,182.827,18.799L183.828,18.298z"/>
	<path id="path65" fill-opacity="0.1" d="M152.867,15.567c6.508,0,12.261,0.546,17.015,1.264c-3.042-0.229-6.513-0.383-10.348-0.383
		c-26.967,0.001-66.596,7.457-102.245,42.976c-35.171,35.042-40.645,79.74-41.326,98.056c-0.721-5.323-1.009-13.479,0.688-24.866
		c3.085-20.713,16.409-51.919,39.221-74.943c19.56-19.741,47.278-34.653,74.148-39.89c7.535-1.469,15.221-2.213,22.844-2.213
		C152.864,15.567,152.865,15.567,152.867,15.567z"/>
	<path id="path67" fill-opacity="0.1" d="M16,177c-1.617,0.689-1.575-33.041,0.999-49.001c3.996-24.774,19.419-60.509,56.001-87
		C114.305,11.088,171.01,5.072,213.25,24c41.206,18.465,41.846,26.75,41.846,26.75S171.25-23.625,75.001,43.999
		C2.059,95.248,16,177,16,177L16,177z"/>
</g>
<circle id="circle69" fill="#FFFFFF" fill-opacity="0.1" cx="159" cy="159" r="142.5"/>
<circle id="circle71" cx="160" cy="160" r="142.5"/>
<g id="g73">
	<g id="layer1">
		<g id="g3020" transform="matrix(1.673435,0,0,1.673435,-3.189256,-2.668541)">
			<g id="g8936" transform="matrix(1.284706,0,0,1.284706,-63.89629,19.96894)">
				<g id="g6564" transform="matrix(0.468894,0,0,0.468894,50.74397,-14.61784)">
					
						<linearGradient id="path6566_1_" gradientUnits="userSpaceOnUse" x1="754.5855" y1="-378.3205" x2="759.1321" y2="-384.759" gradientTransform="matrix(0.62 23.8727 -15.9475 0.4723 -6465.791 -17721.8281)">
						<stop  offset="0" style="stop-color:#85868C"/>
						<stop  offset="0" style="stop-color:#C1C1C2"/>
						<stop  offset="0.5685" style="stop-color:#5C5C63"/>
						<stop  offset="1" style="stop-color:#2F2F33"/>
					</linearGradient>
					
						<radialGradient id="path6566_2_" cx="1299.5291" cy="1706.795" r="12.8948" gradientTransform="matrix(7.2884 0 0 7.1533 -8924.7246 -11600.5127)" gradientUnits="userSpaceOnUse">
						<stop  offset="0" style="stop-color:#FFFFFF"/>
						<stop  offset="1" style="stop-color:#FFFFFF;stop-opacity:0"/>
					</radialGradient>
					<path id="path6566" fill="url(#path6566_1_)" stroke="url(#path6566_2_)" stroke-width="7.6269" d="M111.423,193.041
						l-3.972-7.783l-7.444-1.666l-3.979-10.571l-9.931,1.108l-8.436-6.107l-8.955,7.787v1.232c-2.705-0.767-6.028-0.882-8.436-2.356
						l-1.999-5.551v-6.117l-5.973,0.558c0.506-3.895,1.003-7.786,1.5-11.677h-3.476l-3.475,4.454l-3.475,1.656l-4.966-2.773
						l-0.508-6.12l0.99-6.673l7.458-5.551h5.949l0.997-3.345l7.45,1.676l5.462,6.674l0.993-11.129l9.441-7.777l3.472-8.348
						l6.958-2.775l3.978-5.561l8.939-1.674l4.47-6.665c-4.47,0-8.944,0-13.413,0l8.442-3.892h5.953l8.459-2.78l0.992-3.338
						l-2.985-2.78l-3.467-1.118l0.997-3.332l-2.477-4.999l-5.969,2.22l0.993-4.44l-6.953-3.898l-5.466,9.439l0.49,3.337
						l-5.462,2.235l-3.476,7.22l-1.485-6.668l-9.445-3.893l-1.485-4.999l12.426-7.238l5.467-5.004l0.506-6.108l-2.973-1.673
						l-3.989-0.562l-2.479,6.123c0,0-4.158,0.804-5.218,1.07C58.8,75.319,31.228,102.16,24.824,152.814
						c0.253,1.175,4.639,7.987,4.639,7.987l10.428,6.113l10.435,2.783l4.468,5.553l6.947,5.027l3.979-0.558l2.974,1.317v0.901
						l-3.973,10.579l-2.991,4.446l0.999,2.238l-2.488,8.302l8.948,16.14l8.945,7.777l3.972,5.567l-0.504,11.672l2.98,6.654
						l-2.98,12.81c0,0-0.235-0.089,0.15,1.211c0.379,1.287,15.921,9.802,16.905,9.056c0.978-0.735,1.828-1.375,1.828-1.375
						l-0.989-2.773l3.974-3.892l1.495-3.894l6.46-2.236l4.961-12.251l-1.484-3.312l3.472-5.019l7.449-1.666l3.972-8.882
						l-0.989-11.121l5.96-8.359l0.993-8.343C127.601,201.277,119.522,197.174,111.423,193.041"/>
				</g>
				<g id="g6540" transform="matrix(0.468894,0,0,0.468894,50.523,-14.44107)">
					
						<linearGradient id="path6542_1_" gradientUnits="userSpaceOnUse" x1="441.6944" y1="-977.6891" x2="442.7644" y2="-985.3936" gradientTransform="matrix(1.45 55.8398 -7.3362 0.2171 -7692.123 -24432.7031)">
						<stop  offset="0" style="stop-color:#85868C"/>
						<stop  offset="0" style="stop-color:#C1C1C2"/>
						<stop  offset="0.5685" style="stop-color:#5C5C63"/>
						<stop  offset="1" style="stop-color:#2F2F33"/>
					</linearGradient>
					
						<radialGradient id="path6542_2_" cx="1205.8463" cy="1523.566" r="20.1754" gradientTransform="matrix(8.1791 0 0 8.0275 -9130.71 -11706.4043)" gradientUnits="userSpaceOnUse">
						<stop  offset="0" style="stop-color:#FFFFFF"/>
						<stop  offset="1" style="stop-color:#FFFFFF;stop-opacity:0"/>
					</radialGradient>
					<path id="path6542" fill="url(#path6542_1_)" stroke="url(#path6542_2_)" stroke-width="7.6269" d="M176.753,35.674
						l-14.497-5.62l-16.719,1.871l-20.641,5.616l-3.898,3.743l12.827,8.733v4.989l-5.035,4.997l6.702,13.122l4.443-2.512
						l5.596-8.733c8.61-2.635,16.331-5.624,24.522-9.364L176.753,35.674"/>
				</g>
				<g id="g6580" transform="matrix(0.468894,0,0,0.468894,50.83236,-14.75043)">
					
						<linearGradient id="path6582_1_" gradientUnits="userSpaceOnUse" x1="370.3903" y1="-1352.9692" x2="370.9217" y2="-1360.165" gradientTransform="matrix(2.0184 77.6876 -5.4269 0.1611 -8001.8301 -28519.209)">
						<stop  offset="0" style="stop-color:#85868C"/>
						<stop  offset="0" style="stop-color:#C1C1C2"/>
						<stop  offset="0.5685" style="stop-color:#5C5C63"/>
						<stop  offset="1" style="stop-color:#2F2F33"/>
					</linearGradient>
					
						<radialGradient id="path6582_2_" cx="1236.2244" cy="1495.1874" r="29.2285" gradientTransform="matrix(8.1791 0 0 8.0275 -9081.9453 -11712.002)" gradientUnits="userSpaceOnUse">
						<stop  offset="0" style="stop-color:#FFFFFF"/>
						<stop  offset="1" style="stop-color:#FFFFFF;stop-opacity:0"/>
					</radialGradient>
					<path id="path6582" fill="url(#path6582_1_)" stroke="url(#path6582_2_)" stroke-width="7.6269" d="M91.547,53.625l-2.79,6.857
						h5.572l2.79-6.236c2.408-1.678,4.807-3.374,7.247-4.993l5.574,1.876c3.719,2.492,7.427,4.999,11.151,7.486l5.572-4.995
						l-6.127-2.492l-2.795-5.622l-10.603-1.245l-0.55-3.117l-5.028,1.251l-2.23,4.374l-2.789-5.627l-1.11,2.496l0.549,6.24
						L91.547,53.625"/>
				</g>
				<g id="g6626" transform="matrix(0.468894,0,0,0.468894,50.12526,-14.48526)">
					
						<linearGradient id="path6628_1_" gradientUnits="userSpaceOnUse" x1="824.7261" y1="-475.5927" x2="829.3145" y2="-482.4834" gradientTransform="matrix(0.5607 21.5812 -13.595 0.4022 -6750.063 -17499.1953)">
						<stop  offset="0" style="stop-color:#85868C"/>
						<stop  offset="0" style="stop-color:#C1C1C2"/>
						<stop  offset="0.5685" style="stop-color:#5C5C63"/>
						<stop  offset="1" style="stop-color:#2F2F33"/>
					</linearGradient>
					
						<radialGradient id="path6628_2_" cx="1271.8335" cy="1657.7405" r="12.4061" gradientTransform="matrix(7.5092 0 0 7.37 -9043.9141 -11628.8447)" gradientUnits="userSpaceOnUse">
						<stop  offset="0" style="stop-color:#FFFFFF"/>
						<stop  offset="1" style="stop-color:#FFFFFF;stop-opacity:0"/>
					</radialGradient>
					<path id="path6628" fill="url(#path6628_1_)" stroke="url(#path6628_2_)" stroke-width="7.6269" d="M293.984,141.516
						C293.984,143.343,293.984,141.516,293.984,141.516l-3.826,4.299c-2.344-2.739-4.99-5.041-7.68-7.455l-5.875,0.857l-5.388-6.013
						v7.44l4.62,3.451l3.075,3.437l4.1-4.587c1.032,1.913,2.049,3.823,3.083,5.737v5.721l-4.628,5.159l-8.45,5.724l-6.382,6.318
						l-4.11-4.599l2.049-5.154l-4.092-4.59l-6.904-14.61l-5.886-6.572l-1.54,1.713l2.297,8.316l4.364,4.867
						c2.454,7.08,4.918,13.854,8.202,20.636c5.036,0,9.807-0.535,14.826-1.162v4.009l-6.151,14.909l-5.62,6.287l-4.62,9.742
						c0,5.35,0,10.695,0,16.017l1.544,6.334l-2.578,2.858l-5.616,3.441l-5.906,4.871l4.866,5.45l-6.647,5.721l1.269,3.726
						l-9.997,11.178h-6.652l-5.628,3.449h-3.583v-4.597l-1.531-9.184c-1.987-5.752-4.036-11.455-6.154-17.172
						c0-4.224,0.256-8.411,0.527-12.607l2.546-5.723l-3.583-6.88l0.271-9.471l-4.873-5.427l2.423-7.884l-3.955-4.414h-6.922
						l-2.309-2.598l-6.899,4.309l-2.812-3.166l-6.402,5.458c-4.343-4.871-8.693-9.742-13.047-14.62l-5.117-12.028l4.607-6.874
						l-2.559-2.862l5.634-13.189c4.618-5.673,9.457-11.134,14.339-16.609l8.696-2.294l9.738-1.146l6.65,1.722l9.477,9.445
						l3.324-3.73l4.611-0.562l8.692,2.848h6.657l4.622-4.007l2.052-2.866l-4.62-2.868l-7.69-0.56
						c-2.135-2.927-4.119-6.002-6.649-8.6l-2.567,1.145l-1.031,7.455l-4.6-5.162l-1.021-5.733l-5.131-4h-2.051l5.142,5.727
						l-2.057,5.15l-4.09,1.146l2.548-5.15l-4.618-2.29l-4.099-4.577l-7.691,1.718l-1.028,2.277l-4.594,2.879l-2.571,6.3
						l-6.381,3.144l-2.828-3.144h-3.066v-10.323l6.673-3.443h5.11l-1.036-4.007l-4.075-4.01l6.896-1.433l3.835-4.29l3.066-5.16
						h5.652l-1.544-4.007l3.586-2.287v4.582l7.679,1.712l7.692-6.293l0.518-2.883l6.656-4.582c-2.417,0.297-4.818,0.518-7.164,1.155
						v-5.173l2.546-5.731h-2.546l-5.622,5.16l-1.565,2.871l1.565,4.009l-2.578,6.873l-4.115-2.292l-3.555-4.002l-5.645,4.002
						l-2.061-9.162l9.73-6.301v-3.437l6.152-4.007l9.727-2.293l6.657,2.293l12.283,2.291l-3.075,3.437h-6.675l6.675,6.877
						l5.129-5.728l1.543-2.517c0,0,19.641,17.396,30.846,36.428C288.722,114.517,293.984,136.954,293.984,141.516z"/>
				</g>
			</g>
		</g>
	</g>
	
		<linearGradient id="path155_1_" gradientUnits="userSpaceOnUse" x1="872.7861" y1="-701.4238" x2="872.7861" y2="-580.8798" gradientTransform="matrix(1 0 0 -1 -712.9805 -560.8798)">
		<stop  offset="0" style="stop-color:#FEFEFF;stop-opacity:0"/>
		<stop  offset="1" style="stop-color:#FEFEFF"/>
	</linearGradient>
	<path id="path155" fill="url(#path155_1_)" fill-opacity="0.7" enable-background="new    " d="M160.147,20
		C98.991,20,49.076,55.136,49.076,98.917c0,57.922,221.459,53.029,221.459,0C270.535,55.136,221.303,20,160.147,20L160.147,20z"/>
	
		<radialGradient id="polygon164_1_" cx="872.9805" cy="-720.8798" r="142.5" gradientTransform="matrix(1 0 0 -1 -712.9805 -560.8798)" gradientUnits="userSpaceOnUse">
		<stop  offset="0.5613" style="stop-color:#FFFFFF"/>
		<stop  offset="0.9673" style="stop-color:#FFFFFF;stop-opacity:0.4448"/>
		<stop  offset="1" style="stop-color:#FFFFFF;stop-opacity:0.4"/>
	</radialGradient>
	<polygon id="polygon164" fill="url(#polygon164_1_)" fill-opacity="0.4" points="302.5,158.979 161.021,158.979 161.021,17.5 
		158.979,17.5 158.979,158.979 17.5,158.979 17.5,161.022 158.979,161.022 158.979,302.5 161.021,302.5 161.021,161.022 
		302.5,161.022 	"/>
</g>
</svg>
