<?xml version="1.0" encoding="utf-8"?>
<!-- Generator: Adobe Illustrator 16.0.2, SVG Export Plug-In . SVG Version: 6.00 Build 0)  -->
<!DOCTYPE svg PUBLIC "-//W3C//DTD SVG 1.1//EN" "http://www.w3.org/Graphics/SVG/1.1/DTD/svg11.dtd">
<svg version="1.1" id="Layer_1" xmlns="http://www.w3.org/2000/svg" xmlns:xlink="http://www.w3.org/1999/xlink" x="0px" y="0px"
	 width="120px" height="120px" viewBox="0 0 120 120" enable-background="new 0 0 120 120" xml:space="preserve">
<g id="black_white">
	<path fill="#FFFFFF" d="M102.676,51.646c0-18.985-15.39-34.375-34.375-34.375c-18.95,0-34.316,15.334-34.372,34.271h-0.003v0.104
		l0,0l0,0v13.76H19.203c-1.54,0-2.423,1.754-1.508,2.992l24.591,33.246c0.75,1.012,2.266,1.012,3.015,0l24.592-33.246
		c0.916-1.238,0.031-2.992-1.509-2.992H54.826v-13.76l0,0c0-7.442,6.033-13.475,13.475-13.475c7.42,0,13.436,5.997,13.473,13.407
		h-0.008v51.15h20.9V51.646H102.676z"/>
</g>
<g id="blue">
	<path fill-opacity="0.1" d="M83.984,105.854c-1.656,0-2.998-1.342-2.998-3V52.212c0-2.969-1.152-5.757-3.243-7.851
		c-2.095-2.096-4.89-3.251-7.87-3.251c-6.107,0-10.894,4.877-10.894,11.102c0,0,0,6.163,0,9.654c3.634,0,10.498,0,10.646,0
		c0.221-0.029,0.441-0.044,0.664-0.044c2.814,0,5.104,2.291,5.104,5.105c0,1.461-0.627,2.846-1.703,3.809
		c-0.438,0.593-23.779,32.059-24.002,32.357c-0.917,1.557-2.575,2.51-4.397,2.51c-1.788,0-3.421-0.92-4.347-2.428
		c-0.1-0.137-23.307-31.794-23.767-32.42c-1.092-0.962-1.729-2.354-1.729-3.828c0-2.814,2.29-5.105,5.104-5.105
		c0.218,0,0.439,0.015,0.658,0.044c0.36,0,8.017,0,11.786,0c0-3.491,0-9.654,0-9.654v-0.218v-1.987c0-0.295,0.045-0.584,0.126-0.858
		c0.75-9.064,4.815-17.471,11.489-23.727c6.859-6.43,15.831-9.971,25.262-9.971c19.399,0,35.606,14.892,37.063,33.976
		c0.037,0.187,0.057,0.383,0.057,0.58c0,0,0,0.189,0,0.277c0.035,0.645,0.051,1.292,0.051,1.928c0,0.191-0.018,0.376-0.051,0.556
		c0,1.087,0,50.085,0,50.085c0,1.656-1.344,3-3,3H83.984"/>
	<path fill="#70B7E0" d="M81.984,103.854c-1.656,0-2.998-1.342-2.998-3V50.212c0-2.969-1.152-5.757-3.243-7.851
		c-2.095-2.096-4.89-3.251-7.87-3.251c-6.107,0-10.894,4.877-10.894,11.102c0,0,0,6.163,0,9.654c3.634,0,10.498,0,10.646,0
		c0.221-0.029,0.441-0.044,0.664-0.044c2.814,0,5.104,2.291,5.104,5.105c0,1.461-0.627,2.846-1.703,3.809
		c-0.438,0.593-23.779,32.059-24.002,32.357c-0.917,1.557-2.575,2.51-4.397,2.51c-1.788,0-3.421-0.92-4.347-2.428
		c-0.1-0.137-23.307-31.794-23.767-32.42c-1.092-0.962-1.729-2.354-1.729-3.828c0-2.814,2.29-5.105,5.104-5.105
		c0.218,0,0.439,0.015,0.658,0.044c0.36,0,8.017,0,11.786,0c0-3.491,0-9.654,0-9.654v-0.218v-1.987c0-0.295,0.045-0.584,0.126-0.858
		c0.75-9.064,4.815-17.471,11.489-23.727c6.859-6.43,15.831-9.971,25.262-9.971c19.399,0,35.606,14.892,37.063,33.976
		c0.037,0.187,0.057,0.383,0.057,0.58c0,0,0,0.189,0,0.277c0.035,0.645,0.051,1.292,0.051,1.928c0,0.191-0.018,0.376-0.051,0.556
		c0,1.087,0,50.085,0,50.085c0,1.656-1.344,3-3,3H81.984"/>
	<g>
		
			<linearGradient id="SVGID_1_" gradientUnits="userSpaceOnUse" x1="296.8457" y1="-340.7534" x2="296.8457" y2="-256.3516" gradientTransform="matrix(1 0 0 -1 -237.5996 -239.9004)">
			<stop  offset="0" style="stop-color:#48A2FB"/>
			<stop  offset="0.1758" style="stop-color:#059CF4"/>
			<stop  offset="0.4969" style="stop-color:#0398EF"/>
			<stop  offset="0.782" style="stop-color:#0293E7"/>
			<stop  offset="1" style="stop-color:#0189D8"/>
		</linearGradient>
		<path fill="url(#SVGID_1_)" d="M45.039,99.627l-3.624-0.156L16.898,66.029l2.061-3.164h48.762l2.271,3.119L45.039,99.627
			L45.039,99.627z M68.289,67.029c-1.161,0-2.104-0.941-2.104-2.104s0.941-2.104,2.104-2.104c1.163,0,2.104,0.941,2.104,2.104
			C70.395,66.088,69.452,67.029,68.289,67.029L68.289,67.029z M18.551,67.029c-1.163,0-2.104-0.941-2.104-2.104
			s0.942-2.104,2.104-2.104c1.161,0,2.103,0.941,2.103,2.104S19.712,67.029,18.551,67.029L18.551,67.029z M43.29,100.604
			c-1.161,0-2.103-0.94-2.103-2.103c0-1.163,0.942-2.104,2.103-2.104c1.163,0,2.104,0.941,2.104,2.104
			C45.394,99.662,44.453,100.604,43.29,100.604L43.29,100.604z M81.984,100.854V44.7l20.009,3.307v52.847H81.984L81.984,100.854z
			 M33.995,66.107V48.007l19.985-9.921v28.021H33.995L33.995,66.107z M81.984,50.212c0-7.788-6.285-14.101-14.111-14.101
			c-7.825,0-13.893,6.313-13.893,14.101H33.995c0-18.645,15.142-33.761,33.878-33.761c18.736,0,34.172,15.117,34.172,33.761
			C101.993,50.212,81.984,50.212,81.984,50.212L81.984,50.212z"/>
	</g>
	
		<linearGradient id="SVGID_2_" gradientUnits="userSpaceOnUse" x1="305.1465" y1="-272.5957" x2="305.1465" y2="-256.4883" gradientTransform="matrix(1 0 0 -1 -237.5996 -239.9004)">
		<stop  offset="0" style="stop-color:#FFFFFF;stop-opacity:0"/>
		<stop  offset="1" style="stop-color:#FFFFFF;stop-opacity:0.8"/>
	</linearGradient>
	<path fill="url(#SVGID_2_)" d="M67.546,16.588c-11.537,0-21.522,5.686-21.522,9.095c0,2.724,2.936,5.168,7.463,6.835
		c3.821,1.406,3.235-6.007,14.085-6.007c10.85,0,10.97,7.279,14.893,5.674c4.035-1.651,6.604-3.954,6.604-6.502
		C89.068,22.274,79.084,16.588,67.546,16.588L67.546,16.588z"/>
</g>
<g id="green">
	<path fill-opacity="0.1" d="M83.984,105.854c-1.656,0-2.998-1.342-2.998-3V52.212c0-2.969-1.152-5.757-3.243-7.851
		c-2.095-2.096-4.89-3.251-7.87-3.251c-6.107,0-10.894,4.877-10.894,11.102c0,0,0,6.163,0,9.654c3.634,0,10.498,0,10.646,0
		c0.221-0.029,0.441-0.044,0.664-0.044c2.814,0,5.104,2.291,5.104,5.105c0,1.461-0.627,2.846-1.703,3.809
		c-0.438,0.593-23.779,32.059-24.002,32.357c-0.917,1.557-2.575,2.51-4.397,2.51c-1.788,0-3.421-0.92-4.347-2.428
		c-0.1-0.137-23.307-31.794-23.767-32.42c-1.092-0.962-1.729-2.354-1.729-3.828c0-2.814,2.29-5.105,5.104-5.105
		c0.218,0,0.439,0.015,0.658,0.044c0.36,0,8.017,0,11.786,0c0-3.491,0-9.654,0-9.654v-0.218v-1.987c0-0.295,0.045-0.584,0.126-0.858
		c0.75-9.064,4.815-17.471,11.489-23.727c6.859-6.43,15.831-9.971,25.262-9.971c19.399,0,35.606,14.892,37.063,33.976
		c0.037,0.187,0.057,0.383,0.057,0.58c0,0,0,0.189,0,0.277c0.035,0.645,0.051,1.292,0.051,1.928c0,0.191-0.018,0.376-0.051,0.556
		c0,1.087,0,50.085,0,50.085c0,1.656-1.344,3-3,3H83.984"/>
	<path fill="#03FC30" d="M81.984,103.854c-1.656,0-2.998-1.342-2.998-3V50.212c0-2.969-1.152-5.757-3.243-7.851
		c-2.095-2.096-4.89-3.251-7.87-3.251c-6.107,0-10.894,4.877-10.894,11.102c0,0,0,6.163,0,9.654c3.634,0,10.498,0,10.646,0
		c0.221-0.029,0.441-0.044,0.664-0.044c2.814,0,5.104,2.291,5.104,5.105c0,1.461-0.627,2.846-1.703,3.809
		c-0.438,0.593-23.779,32.059-24.002,32.357c-0.917,1.557-2.575,2.51-4.397,2.51c-1.788,0-3.421-0.92-4.347-2.428
		c-0.1-0.137-23.307-31.794-23.767-32.42c-1.092-0.962-1.729-2.354-1.729-3.828c0-2.814,2.29-5.105,5.104-5.105
		c0.218,0,0.439,0.015,0.658,0.044c0.36,0,8.017,0,11.786,0c0-3.491,0-9.654,0-9.654v-0.218v-1.987c0-0.295,0.045-0.584,0.126-0.858
		c0.75-9.064,4.815-17.471,11.489-23.727c6.859-6.43,15.831-9.971,25.262-9.971c19.399,0,35.606,14.892,37.063,33.976
		c0.037,0.187,0.057,0.383,0.057,0.58c0,0,0,0.189,0,0.277c0.035,0.645,0.051,1.292,0.051,1.928c0,0.191-0.018,0.376-0.051,0.556
		c0,1.087,0,50.085,0,50.085c0,1.656-1.344,3-3,3H81.984"/>
	<g>
		
			<linearGradient id="SVGID_3_" gradientUnits="userSpaceOnUse" x1="296.8457" y1="-340.7534" x2="296.8457" y2="-256.3516" gradientTransform="matrix(1 0 0 -1 -237.5996 -239.9004)">
			<stop  offset="0" style="stop-color:#00DF34"/>
			<stop  offset="0.1758" style="stop-color:#00CD26"/>
			<stop  offset="0.4969" style="stop-color:#00B211"/>
			<stop  offset="0.782" style="stop-color:#00A204"/>
			<stop  offset="1" style="stop-color:#009C00"/>
		</linearGradient>
		<path fill="url(#SVGID_3_)" d="M45.039,99.627l-3.624-0.156L16.898,66.029l2.061-3.164h48.762l2.271,3.119L45.039,99.627
			L45.039,99.627z M68.289,67.029c-1.161,0-2.104-0.941-2.104-2.104s0.941-2.104,2.104-2.104c1.163,0,2.104,0.941,2.104,2.104
			C70.395,66.088,69.452,67.029,68.289,67.029L68.289,67.029z M18.551,67.029c-1.163,0-2.104-0.941-2.104-2.104
			s0.942-2.104,2.104-2.104c1.161,0,2.103,0.941,2.103,2.104S19.712,67.029,18.551,67.029L18.551,67.029z M43.29,100.604
			c-1.161,0-2.103-0.94-2.103-2.103c0-1.163,0.942-2.104,2.103-2.104c1.163,0,2.104,0.941,2.104,2.104
			C45.394,99.662,44.453,100.604,43.29,100.604L43.29,100.604z M81.984,100.854V44.7l20.009,3.307v52.847H81.984L81.984,100.854z
			 M33.995,66.107V48.007l19.985-9.921v28.021H33.995L33.995,66.107z M81.984,50.212c0-7.788-6.285-14.101-14.111-14.101
			c-7.825,0-13.893,6.313-13.893,14.101H33.995c0-18.645,15.142-33.761,33.878-33.761c18.736,0,34.172,15.117,34.172,33.761
			C101.993,50.212,81.984,50.212,81.984,50.212L81.984,50.212z"/>
	</g>
	
		<linearGradient id="SVGID_4_" gradientUnits="userSpaceOnUse" x1="305.1465" y1="-272.5957" x2="305.1465" y2="-256.4883" gradientTransform="matrix(1 0 0 -1 -237.5996 -239.9004)">
		<stop  offset="0" style="stop-color:#FFFFFF;stop-opacity:0"/>
		<stop  offset="1" style="stop-color:#FFFFFF;stop-opacity:0.8"/>
	</linearGradient>
	<path fill="url(#SVGID_4_)" d="M67.546,16.588c-11.537,0-21.522,5.686-21.522,9.095c0,2.724,2.936,5.168,7.463,6.835
		c3.821,1.406,3.235-6.007,14.085-6.007c10.85,0,10.97,7.279,14.893,5.674c4.035-1.651,6.604-3.954,6.604-6.502
		C89.068,22.274,79.084,16.588,67.546,16.588L67.546,16.588z"/>
</g>
<g id="kia">
	<path fill-opacity="0.1" d="M83.984,105.854c-1.656,0-2.998-1.342-2.998-3V52.212c0-2.969-1.152-5.757-3.243-7.851
		c-2.095-2.096-4.89-3.251-7.87-3.251c-6.107,0-10.894,4.877-10.894,11.102c0,0,0,6.163,0,9.654c3.634,0,10.498,0,10.646,0
		c0.221-0.029,0.441-0.044,0.664-0.044c2.814,0,5.104,2.291,5.104,5.105c0,1.461-0.627,2.846-1.703,3.809
		c-0.438,0.593-23.779,32.059-24.002,32.357c-0.917,1.557-2.575,2.51-4.397,2.51c-1.788,0-3.421-0.92-4.347-2.428
		c-0.1-0.137-23.307-31.794-23.767-32.42c-1.092-0.962-1.729-2.354-1.729-3.828c0-2.814,2.29-5.105,5.104-5.105
		c0.218,0,0.439,0.015,0.658,0.044c0.36,0,8.017,0,11.786,0c0-3.491,0-9.654,0-9.654v-0.218v-1.987c0-0.295,0.045-0.584,0.126-0.858
		c0.75-9.064,4.815-17.471,11.489-23.727c6.859-6.43,15.831-9.971,25.262-9.971c19.399,0,35.606,14.892,37.063,33.976
		c0.037,0.187,0.057,0.383,0.057,0.58c0,0,0,0.189,0,0.277c0.035,0.645,0.051,1.292,0.051,1.928c0,0.191-0.018,0.376-0.051,0.556
		c0,1.087,0,50.085,0,50.085c0,1.656-1.344,3-3,3H83.984"/>
	<path fill="#179e1e" d="M81.984,103.854c-1.656,0-2.998-1.342-2.998-3V50.212c0-2.969-1.152-5.757-3.243-7.851
		c-2.095-2.096-4.89-3.251-7.87-3.251c-6.107,0-10.894,4.877-10.894,11.102c0,0,0,6.163,0,9.654c3.634,0,10.498,0,10.646,0
		c0.221-0.029,0.441-0.044,0.664-0.044c2.814,0,5.104,2.291,5.104,5.105c0,1.461-0.627,2.846-1.703,3.809
		c-0.438,0.593-23.779,32.059-24.002,32.357c-0.917,1.557-2.575,2.51-4.397,2.51c-1.788,0-3.421-0.92-4.347-2.428
		c-0.1-0.137-23.307-31.794-23.767-32.42c-1.092-0.962-1.729-2.354-1.729-3.828c0-2.814,2.29-5.105,5.104-5.105
		c0.218,0,0.439,0.015,0.658,0.044c0.36,0,8.017,0,11.786,0c0-3.491,0-9.654,0-9.654v-0.218v-1.987c0-0.295,0.045-0.584,0.126-0.858
		c0.75-9.064,4.815-17.471,11.489-23.727c6.859-6.43,15.831-9.971,25.262-9.971c19.399,0,35.606,14.892,37.063,33.976
		c0.037,0.187,0.057,0.383,0.057,0.58c0,0,0,0.189,0,0.277c0.035,0.645,0.051,1.292,0.051,1.928c0,0.191-0.018,0.376-0.051,0.556
		c0,1.087,0,50.085,0,50.085c0,1.656-1.344,3-3,3H81.984"/>
	<g>
		
			<linearGradient id="SVGID_5_" gradientUnits="userSpaceOnUse" x1="296.8457" y1="-340.7534" x2="296.8457" y2="-256.3516" gradientTransform="matrix(1 0 0 -1 -237.5996 -239.9004)">
			<stop  offset="0" style="stop-color:#FFFFFF"/>
			<stop  offset="0.1758" style="stop-color:#E7E9EA"/>
			<stop  offset="0.4969" style="stop-color:#CDD2D5"/>
			<stop  offset="0.782" style="stop-color:#C5CACC"/>
			<stop  offset="1" style="stop-color:#BABDC0"/>
		</linearGradient>
		<path fill="url(#SVGID_5_)" d="M45.039,99.627l-3.624-0.156L16.898,66.029l2.061-3.164h48.762l2.271,3.119L45.039,99.627
			L45.039,99.627z M68.289,67.029c-1.161,0-2.104-0.941-2.104-2.104s0.941-2.104,2.104-2.104c1.163,0,2.104,0.941,2.104,2.104
			C70.395,66.088,69.452,67.029,68.289,67.029L68.289,67.029z M18.551,67.029c-1.163,0-2.104-0.941-2.104-2.104
			s0.942-2.104,2.104-2.104c1.161,0,2.103,0.941,2.103,2.104S19.712,67.029,18.551,67.029L18.551,67.029z M43.29,100.604
			c-1.161,0-2.103-0.94-2.103-2.103c0-1.163,0.942-2.104,2.103-2.104c1.163,0,2.104,0.941,2.104,2.104
			C45.394,99.662,44.453,100.604,43.29,100.604L43.29,100.604z M81.984,100.854V44.7l20.009,3.307v52.847H81.984L81.984,100.854z
			 M33.995,66.107V48.007l19.985-9.921v28.021H33.995L33.995,66.107z M81.984,50.212c0-7.788-6.285-14.101-14.111-14.101
			c-7.825,0-13.893,6.313-13.893,14.101H33.995c0-18.645,15.142-33.761,33.878-33.761c18.736,0,34.172,15.117,34.172,33.761
			C101.993,50.212,81.984,50.212,81.984,50.212L81.984,50.212z"/>
	</g>
	
		<linearGradient id="SVGID_6_" gradientUnits="userSpaceOnUse" x1="305.1465" y1="-272.5957" x2="305.1465" y2="-256.4883" gradientTransform="matrix(1 0 0 -1 -237.5996 -239.9004)">
		<stop  offset="0" style="stop-color:#FFFFFF;stop-opacity:0"/>
		<stop  offset="1" style="stop-color:#FFFFFF;stop-opacity:0.8"/>
	</linearGradient>
	<path fill="url(#SVGID_6_)" d="M67.546,16.588c-11.537,0-21.522,5.686-21.522,9.095c0,2.724,2.936,5.168,7.463,6.835
		c3.821,1.406,3.235-6.007,14.085-6.007c10.85,0,10.97,7.279,14.893,5.674c4.035-1.651,6.604-3.954,6.604-6.502
		C89.068,22.274,79.084,16.588,67.546,16.588L67.546,16.588z"/>
</g>
<g id="orange">
	<path fill-opacity="0.1" d="M83.984,105.854c-1.656,0-2.998-1.342-2.998-3V52.212c0-2.969-1.152-5.757-3.243-7.851
		c-2.095-2.096-4.89-3.251-7.87-3.251c-6.107,0-10.894,4.877-10.894,11.102c0,0,0,6.163,0,9.654c3.634,0,10.498,0,10.646,0
		c0.221-0.029,0.441-0.044,0.664-0.044c2.814,0,5.104,2.291,5.104,5.105c0,1.461-0.627,2.846-1.703,3.809
		c-0.438,0.593-23.779,32.059-24.002,32.357c-0.917,1.557-2.575,2.51-4.397,2.51c-1.788,0-3.421-0.92-4.347-2.428
		c-0.1-0.137-23.307-31.794-23.767-32.42c-1.092-0.962-1.729-2.354-1.729-3.828c0-2.814,2.29-5.105,5.104-5.105
		c0.218,0,0.439,0.015,0.658,0.044c0.36,0,8.017,0,11.786,0c0-3.491,0-9.654,0-9.654v-0.218v-1.987c0-0.295,0.045-0.584,0.126-0.858
		c0.75-9.064,4.815-17.471,11.489-23.727c6.859-6.43,15.831-9.971,25.262-9.971c19.399,0,35.606,14.892,37.063,33.976
		c0.037,0.187,0.057,0.383,0.057,0.58c0,0,0,0.189,0,0.277c0.035,0.645,0.051,1.292,0.051,1.928c0,0.191-0.018,0.376-0.051,0.556
		c0,1.087,0,50.085,0,50.085c0,1.656-1.344,3-3,3H83.984"/>
	<path fill="#FFE035" d="M81.984,103.854c-1.656,0-2.998-1.342-2.998-3V50.212c0-2.969-1.152-5.757-3.243-7.851
		c-2.095-2.096-4.89-3.251-7.87-3.251c-6.107,0-10.894,4.877-10.894,11.102c0,0,0,6.163,0,9.654c3.634,0,10.498,0,10.646,0
		c0.221-0.029,0.441-0.044,0.664-0.044c2.814,0,5.104,2.291,5.104,5.105c0,1.461-0.627,2.846-1.703,3.809
		c-0.438,0.593-23.779,32.059-24.002,32.357c-0.917,1.557-2.575,2.51-4.397,2.51c-1.788,0-3.421-0.92-4.347-2.428
		c-0.1-0.137-23.307-31.794-23.767-32.42c-1.092-0.962-1.729-2.354-1.729-3.828c0-2.814,2.29-5.105,5.104-5.105
		c0.218,0,0.439,0.015,0.658,0.044c0.36,0,8.017,0,11.786,0c0-3.491,0-9.654,0-9.654v-0.218v-1.987c0-0.295,0.045-0.584,0.126-0.858
		c0.75-9.064,4.815-17.471,11.489-23.727c6.859-6.43,15.831-9.971,25.262-9.971c19.399,0,35.606,14.892,37.063,33.976
		c0.037,0.187,0.057,0.383,0.057,0.58c0,0,0,0.189,0,0.277c0.035,0.645,0.051,1.292,0.051,1.928c0,0.191-0.018,0.376-0.051,0.556
		c0,1.087,0,50.085,0,50.085c0,1.656-1.344,3-3,3H81.984"/>
	<g>
		
			<linearGradient id="SVGID_7_" gradientUnits="userSpaceOnUse" x1="296.8457" y1="-340.7534" x2="296.8457" y2="-256.3516" gradientTransform="matrix(1 0 0 -1 -237.5996 -239.9004)">
			<stop  offset="0" style="stop-color:#FEDF34"/>
			<stop  offset="0.1758" style="stop-color:#FECD26"/>
			<stop  offset="0.4969" style="stop-color:#FFB211"/>
			<stop  offset="0.782" style="stop-color:#FFA204"/>
			<stop  offset="1" style="stop-color:#FF9C00"/>
		</linearGradient>
		<path fill="url(#SVGID_7_)" d="M45.039,99.627l-3.624-0.156L16.898,66.029l2.061-3.164h48.762l2.271,3.119L45.039,99.627
			L45.039,99.627z M68.289,67.029c-1.161,0-2.104-0.941-2.104-2.104s0.941-2.104,2.104-2.104c1.163,0,2.104,0.941,2.104,2.104
			C70.395,66.088,69.452,67.029,68.289,67.029L68.289,67.029z M18.551,67.029c-1.163,0-2.104-0.941-2.104-2.104
			s0.942-2.104,2.104-2.104c1.161,0,2.103,0.941,2.103,2.104S19.712,67.029,18.551,67.029L18.551,67.029z M43.29,100.604
			c-1.161,0-2.103-0.94-2.103-2.103c0-1.163,0.942-2.104,2.103-2.104c1.163,0,2.104,0.941,2.104,2.104
			C45.394,99.662,44.453,100.604,43.29,100.604L43.29,100.604z M81.984,100.854V44.7l20.009,3.307v52.847H81.984L81.984,100.854z
			 M33.995,66.107V48.007l19.985-9.921v28.021H33.995L33.995,66.107z M81.984,50.212c0-7.788-6.285-14.101-14.111-14.101
			c-7.825,0-13.893,6.313-13.893,14.101H33.995c0-18.645,15.142-33.761,33.878-33.761c18.736,0,34.172,15.117,34.172,33.761
			C101.993,50.212,81.984,50.212,81.984,50.212L81.984,50.212z"/>
	</g>
	
		<linearGradient id="SVGID_8_" gradientUnits="userSpaceOnUse" x1="305.1465" y1="-272.5957" x2="305.1465" y2="-256.4883" gradientTransform="matrix(1 0 0 -1 -237.5996 -239.9004)">
		<stop  offset="0" style="stop-color:#FFFFFF;stop-opacity:0"/>
		<stop  offset="1" style="stop-color:#FFFFFF;stop-opacity:0.8"/>
	</linearGradient>
	<path fill="url(#SVGID_8_)" d="M67.546,16.588c-11.537,0-21.522,5.686-21.522,9.095c0,2.724,2.936,5.168,7.463,6.835
		c3.821,1.406,3.235-6.007,14.085-6.007c10.85,0,10.97,7.279,14.893,5.674c4.035-1.651,6.604-3.954,6.604-6.502
		C89.068,22.274,79.084,16.588,67.546,16.588L67.546,16.588z"/>
</g>
<g id="red">
	<path fill-opacity="0.1" d="M83.984,105.854c-1.656,0-2.998-1.342-2.998-3V52.212c0-2.969-1.152-5.757-3.243-7.851
		c-2.095-2.096-4.89-3.251-7.87-3.251c-6.107,0-10.894,4.877-10.894,11.102c0,0,0,6.163,0,9.654c3.634,0,10.498,0,10.646,0
		c0.221-0.029,0.441-0.044,0.664-0.044c2.814,0,5.104,2.291,5.104,5.105c0,1.461-0.627,2.846-1.703,3.809
		c-0.438,0.593-23.779,32.059-24.002,32.357c-0.917,1.557-2.575,2.51-4.397,2.51c-1.788,0-3.421-0.92-4.347-2.428
		c-0.1-0.137-23.307-31.794-23.767-32.42c-1.092-0.962-1.729-2.354-1.729-3.828c0-2.814,2.29-5.105,5.104-5.105
		c0.218,0,0.439,0.015,0.658,0.044c0.36,0,8.017,0,11.786,0c0-3.491,0-9.654,0-9.654v-0.218v-1.987c0-0.295,0.045-0.584,0.126-0.858
		c0.75-9.064,4.815-17.471,11.489-23.727c6.859-6.43,15.831-9.971,25.262-9.971c19.399,0,35.606,14.892,37.063,33.976
		c0.037,0.187,0.057,0.383,0.057,0.58c0,0,0,0.189,0,0.277c0.035,0.645,0.051,1.292,0.051,1.928c0,0.191-0.018,0.376-0.051,0.556
		c0,1.087,0,50.085,0,50.085c0,1.656-1.344,3-3,3H83.984"/>
	<path fill="#FC7E7E" d="M81.984,103.854c-1.656,0-2.998-1.342-2.998-3V50.212c0-2.969-1.152-5.757-3.243-7.851
		c-2.095-2.096-4.89-3.251-7.87-3.251c-6.107,0-10.894,4.877-10.894,11.102c0,0,0,6.163,0,9.654c3.634,0,10.498,0,10.646,0
		c0.221-0.029,0.441-0.044,0.664-0.044c2.814,0,5.104,2.291,5.104,5.105c0,1.461-0.627,2.846-1.703,3.809
		c-0.438,0.593-23.779,32.059-24.002,32.357c-0.917,1.557-2.575,2.51-4.397,2.51c-1.788,0-3.421-0.92-4.347-2.428
		c-0.1-0.137-23.307-31.794-23.767-32.42c-1.092-0.962-1.729-2.354-1.729-3.828c0-2.814,2.29-5.105,5.104-5.105
		c0.218,0,0.439,0.015,0.658,0.044c0.36,0,8.017,0,11.786,0c0-3.491,0-9.654,0-9.654v-0.218v-1.987c0-0.295,0.045-0.584,0.126-0.858
		c0.75-9.064,4.815-17.471,11.489-23.727c6.859-6.43,15.831-9.971,25.262-9.971c19.399,0,35.606,14.892,37.063,33.976
		c0.037,0.187,0.057,0.383,0.057,0.58c0,0,0,0.189,0,0.277c0.035,0.645,0.051,1.292,0.051,1.928c0,0.191-0.018,0.376-0.051,0.556
		c0,1.087,0,50.085,0,50.085c0,1.656-1.344,3-3,3H81.984"/>
	<g>
		
			<linearGradient id="SVGID_9_" gradientUnits="userSpaceOnUse" x1="296.8457" y1="-340.7534" x2="296.8457" y2="-256.3516" gradientTransform="matrix(1 0 0 -1 -237.5996 -239.9004)">
			<stop  offset="0" style="stop-color:#FF0000"/>
			<stop  offset="0.1758" style="stop-color:#F60303"/>
			<stop  offset="0.4969" style="stop-color:#EC0404"/>
			<stop  offset="0.782" style="stop-color:#E30101"/>
			<stop  offset="1" style="stop-color:#D60202"/>
		</linearGradient>
		<path fill="url(#SVGID_9_)" d="M45.039,99.627l-3.624-0.156L16.898,66.029l2.061-3.164h48.762l2.271,3.119L45.039,99.627
			L45.039,99.627z M68.289,67.029c-1.161,0-2.104-0.941-2.104-2.104s0.941-2.104,2.104-2.104c1.163,0,2.104,0.941,2.104,2.104
			C70.395,66.088,69.452,67.029,68.289,67.029L68.289,67.029z M18.551,67.029c-1.163,0-2.104-0.941-2.104-2.104
			s0.942-2.104,2.104-2.104c1.161,0,2.103,0.941,2.103,2.104S19.712,67.029,18.551,67.029L18.551,67.029z M43.29,100.604
			c-1.161,0-2.103-0.94-2.103-2.103c0-1.163,0.942-2.104,2.103-2.104c1.163,0,2.104,0.941,2.104,2.104
			C45.394,99.662,44.453,100.604,43.29,100.604L43.29,100.604z M81.984,100.854V44.7l20.009,3.307v52.847H81.984L81.984,100.854z
			 M33.995,66.107V48.007l19.985-9.921v28.021H33.995L33.995,66.107z M81.984,50.212c0-7.788-6.285-14.101-14.111-14.101
			c-7.825,0-13.893,6.313-13.893,14.101H33.995c0-18.645,15.142-33.761,33.878-33.761c18.736,0,34.172,15.117,34.172,33.761
			C101.993,50.212,81.984,50.212,81.984,50.212L81.984,50.212z"/>
	</g>
	
		<linearGradient id="SVGID_10_" gradientUnits="userSpaceOnUse" x1="305.1465" y1="-272.5957" x2="305.1465" y2="-256.4883" gradientTransform="matrix(1 0 0 -1 -237.5996 -239.9004)">
		<stop  offset="0" style="stop-color:#FFFFFF;stop-opacity:0"/>
		<stop  offset="1" style="stop-color:#FFFFFF;stop-opacity:0.8"/>
	</linearGradient>
	<path fill="url(#SVGID_10_)" d="M67.546,16.588c-11.537,0-21.522,5.686-21.522,9.095c0,2.724,2.936,5.168,7.463,6.835
		c3.821,1.406,3.235-6.007,14.085-6.007c10.85,0,10.97,7.279,14.893,5.674c4.035-1.651,6.604-3.954,6.604-6.502
		C89.068,22.274,79.084,16.588,67.546,16.588L67.546,16.588z"/>
</g>
</svg>
