<?xml version="1.0" encoding="utf-8"?>
<!-- Generator: Adobe Illustrator 16.0.2, SVG Export Plug-In . SVG Version: 6.00 Build 0)  -->
<!DOCTYPE svg PUBLIC "-//W3C//DTD SVG 1.1//EN" "http://www.w3.org/Graphics/SVG/1.1/DTD/svg11.dtd">
<svg version="1.1" id="Layer_1" xmlns="http://www.w3.org/2000/svg" xmlns:xlink="http://www.w3.org/1999/xlink" x="0px" y="0px"
	 width="120px" height="120px" viewBox="0 0 120 120" enable-background="new 0 0 120 120" xml:space="preserve">
<g id="black_white">
	<path fill="#FFFFFF" d="M78.833,77.803l-1.717,1.063l-0.929,0.573c-2.574,1.594-5.819-0.612-5.287-3.592l2.953-16.502
		c0.334-1.868,2.297-2.96,4.061-2.26l4.557,1.809l-8.785-38.83H61.885v9.563h-3.768v-9.563h-11.8l-8.784,38.829l4.553-1.808
		c1.764-0.7,3.726,0.392,4.06,2.26l2.953,16.502c0.533,2.979-2.713,5.186-5.287,3.592l-0.928-0.573l-1.717-1.062
		c-2.419,6.182-6.377,11.717-11.541,16.043l-0.5,2.211H51.1v0.035h18.019v-0.035h21.758l-0.5-2.207
		C85.212,89.523,81.253,83.986,78.833,77.803z M61.885,36.53v10.395h-3.768V36.53H61.885z M58.117,66.346V53.827h3.768v12.517
		h-3.768V66.346z M61.885,73.246v15.945h-3.768V73.246H61.885z M8.372,86.085c0.114,0.001,0.228,0.002,0.341,0.002
		c2.384,0,4.756-0.31,7.051-0.916c7.153-1.894,13.116-6.44,16.789-12.806l1.455-2.52l-5.212-3.226
		c-0.419-0.259-0.364-0.886,0.094-1.067l13.621-5.409c0.353-0.14,0.745,0.078,0.812,0.452l2.783,15.557
		c0.091,0.512-0.465,0.89-0.906,0.617l-5.511-3.41l-1.312,3.352C34.102,87.635,24.724,95.964,13.293,98.99
		c-1.59,0.421-3.236,0.736-4.921,0.943V86.085L8.372,86.085z M111.628,99.936c-1.685-0.207-3.331-0.522-4.921-0.943
		c-11.432-3.026-20.811-11.355-25.085-22.279l-1.312-3.352l-5.512,3.41c-0.441,0.272-0.998-0.105-0.906-0.617l2.785-15.557
		c0.066-0.374,0.459-0.592,0.811-0.452l13.621,5.409c0.459,0.182,0.515,0.807,0.095,1.067l-5.212,3.226l1.453,2.52
		c3.675,6.363,9.637,10.912,16.791,12.806c2.293,0.606,4.666,0.916,7.051,0.916c0.113,0,0.229-0.001,0.341-0.002V99.936
		L111.628,99.936z"/>
</g>
<g id="blue">
	<path fill-opacity="0.1" d="M31.33,106.922c-8.949,0-16.229-7.279-16.229-16.229V31.164c0-8.948,7.28-16.228,16.229-16.228h59.527
		c8.949,0,16.229,7.28,16.229,16.228v59.529c0,8.947-7.28,16.229-16.229,16.229H31.33"/>
	<path fill="#70B7E0" d="M29.33,104.922c-8.949,0-16.229-7.279-16.229-16.229V29.164c0-8.948,7.28-16.228,16.229-16.228h59.527
		c8.949,0,16.229,7.28,16.229,16.228v59.529c0,8.947-7.28,16.229-16.229,16.229H29.33"/>
	<g>
		
			<linearGradient id="SVGID_1_" gradientUnits="userSpaceOnUse" x1="296.6943" y1="-341.8228" x2="296.6942" y2="-255.8354" gradientTransform="matrix(1 0 0 -1 -237.5996 -239.9004)">
			<stop  offset="0" style="stop-color:#48A2FB"/>
			<stop  offset="0.1758" style="stop-color:#059CF4"/>
			<stop  offset="0.4969" style="stop-color:#0398EF"/>
			<stop  offset="0.782" style="stop-color:#0293E7"/>
			<stop  offset="1" style="stop-color:#0189D8"/>
		</linearGradient>
		<path fill="url(#SVGID_1_)" d="M88.857,101.923H29.33c-7.306,0-13.23-5.923-13.23-13.229V29.164
			c0-7.306,5.924-13.229,13.23-13.229h59.527c7.308,0,13.23,5.922,13.23,13.229v59.529C102.089,96,96.165,101.923,88.857,101.923
			L88.857,101.923z"/>
	</g>
	<path fill="#70B7E0" d="M53.167,96.541c-0.116,0-0.228-0.01-0.338-0.027c-0.644,0-14.298,0-14.298,0
		c-0.598,0-1.165-0.269-1.544-0.729c-0.298-0.364-0.457-0.815-0.457-1.275c0-0.126,0.013-0.254,0.037-0.381l13.032-66.527
		c0.184-0.938,1.007-1.616,1.963-1.616h6.276c0.476,0,2.035,0,2.512,0h6.275c0.956,0,1.779,0.678,1.964,1.616L81.62,94.128
		c0.024,0.127,0.037,0.255,0.037,0.381c0,0.46-0.158,0.911-0.456,1.275c-0.381,0.461-0.947,0.729-1.544,0.729c0,0-13.509,0-14.153,0
		c-0.109,0.02-0.222,0.027-0.338,0.027H53.167"/>
	<g>
		<polygon fill="#FFFFFF" points="38.531,94.514 57.839,94.514 57.839,27.985 51.563,27.985 		"/>
		<polygon fill="#FFFFFF" points="66.626,27.985 60.35,27.985 60.35,94.514 79.658,94.514 		"/>
	</g>
	<g>
		<rect x="53.167" y="88.5" fill="#FFFFFF" width="12" height="6.041"/>
		<rect x="53.167" y="68.501" fill="#FFFFFF" width="12" height="6.04"/>
		<rect x="53.167" y="51.5" fill="#FFFFFF" width="12" height="6.041"/>
		<rect x="53.167" y="36.356" fill="#FFFFFF" width="12" height="6.042"/>
	</g>
	<path fill="#70B7E0" d="M95.941,96.825c-4.813-0.601-9.272-1.882-13.252-3.804c-3.199-1.543-6.098-3.504-8.611-5.824
		c-2.625-2.422-4.28-4.729-5.191-6.202c-1.468,1.101-3.726,2.795-3.726,2.795c-0.265,0.198-0.581,0.301-0.899,0.301
		c-0.214,0-0.429-0.046-0.63-0.139c-0.5-0.229-0.833-0.718-0.868-1.269l-1.275-20.396c0-0.03-0.002-0.061-0.002-0.092
		c0-0.463,0.215-0.904,0.586-1.189c0.267-0.205,0.59-0.313,0.916-0.313c0.158,0,0.318,0.025,0.473,0.076l19.121,6.375
		c0.529,0.178,0.917,0.633,1.007,1.184c0.013,0.08,0.021,0.16,0.021,0.238c0,0.468-0.219,0.914-0.602,1.201c0,0-2.667,2-4.012,3.01
		c0.402,0.551,1.027,1.265,1.93,1.975c2.508,1.973,5.868,2.971,9.988,2.971c1.554,0,3.227-0.146,4.968-0.438
		c0.082-0.014,0.165-0.021,0.247-0.021c0.354,0,0.696,0.125,0.969,0.355c0.338,0.285,0.532,0.705,0.532,1.146v16.569
		c0,0.431-0.187,0.839-0.508,1.124c-0.274,0.244-0.63,0.375-0.991,0.375C96.066,96.836,96.005,96.833,95.941,96.825 M78.383,71.797
		c-0.001-0.002-0.001-0.005-0.001-0.005S78.382,71.795,78.383,71.797 M21.066,96.461c-0.322-0.285-0.508-0.693-0.508-1.124V78.768
		c0-0.44,0.196-0.861,0.532-1.146c0.272-0.23,0.617-0.355,0.969-0.355c0.082,0,0.165,0.008,0.247,0.021
		c1.742,0.29,3.415,0.438,4.968,0.438c4.121,0,7.481-0.998,9.989-2.971c0.901-0.71,1.526-1.424,1.93-1.975
		c-1.345-1.01-4.012-3.01-4.012-3.01c-0.383-0.287-0.601-0.733-0.601-1.201c0-0.078,0.006-0.158,0.019-0.238
		c0.09-0.551,0.478-1.006,1.007-1.184l19.121-6.375c0.154-0.051,0.314-0.076,0.473-0.076c0.327,0,0.65,0.107,0.916,0.313
		c0.372,0.285,0.586,0.729,0.586,1.189c0,0.031-0.001,0.062-0.003,0.092l-1.275,20.396c-0.035,0.551-0.368,1.037-0.868,1.269
		c-0.202,0.093-0.416,0.139-0.629,0.139c-0.318,0-0.636-0.103-0.9-0.301c0,0-2.258-1.694-3.725-2.795
		c-0.911,1.474-2.567,3.78-5.192,6.203c-2.514,2.319-5.411,4.28-8.611,5.823c-3.979,1.922-8.438,3.203-13.252,3.804
		c-0.063,0.008-0.125,0.011-0.188,0.011C21.696,96.836,21.342,96.705,21.066,96.461 M39.804,71.797
		c0.001-0.002,0.001-0.005,0.001-0.005S39.806,71.795,39.804,71.797"/>
	<path fill="#FFFFFF" d="M84.088,90.366c-2.923-1.4-5.566-3.173-7.861-5.271c-3.922-3.584-5.486-6.922-5.502-6.955
		c-0.189-0.41-0.558-0.718-0.996-0.828c-0.121-0.029-0.246-0.045-0.369-0.045c-0.32,0-0.639,0.103-0.898,0.299
		c0,0-1.46,1.096-2.875,2.156c-0.227-3.621-0.773-12.412-0.962-15.4c2.808,0.936,10.81,3.604,14.293,4.766
		c-1.39,1.043-2.81,2.105-2.81,2.105c-0.387,0.291-0.601,0.738-0.601,1.199c0,0.199,0.04,0.4,0.122,0.592
		c0.137,0.314,3.452,7.74,15.284,7.74c1.187,0,2.433-0.076,3.714-0.229c0,2.45,0,10.659,0,13.11
		C90.82,92.984,87.281,91.896,84.088,90.366 M23.56,80.496c1.283,0.152,2.527,0.229,3.714,0.229c11.832,0,15.149-7.425,15.285-7.74
		c0.082-0.189,0.122-0.391,0.122-0.59c0-0.461-0.213-0.91-0.601-1.199c0,0-1.419-1.063-2.809-2.106
		c3.485-1.161,11.486-3.83,14.293-4.767c-0.188,2.988-0.737,11.779-0.962,15.4c-1.414-1.061-2.875-2.156-2.875-2.156
		c-0.261-0.195-0.578-0.299-0.898-0.299c-0.123,0-0.248,0.017-0.37,0.047c-0.439,0.109-0.806,0.416-0.996,0.828
		c-0.015,0.032-1.579,3.371-5.501,6.955c-2.295,2.096-4.939,3.868-7.862,5.27c-3.193,1.531-6.733,2.617-10.54,3.24
		C23.56,91.154,23.56,82.945,23.56,80.496"/>
	
		<linearGradient id="SVGID_2_" gradientUnits="userSpaceOnUse" x1="297.291" y1="-282.6055" x2="297.291" y2="-257.9302" gradientTransform="matrix(1 0 0 -1 -237.5996 -239.9004)">
		<stop  offset="0" style="stop-color:#FFFFFF;stop-opacity:0"/>
		<stop  offset="1" style="stop-color:#FFFFFF;stop-opacity:0.8"/>
	</linearGradient>
	<path fill="url(#SVGID_2_)" d="M36.279,34.888c-10.953-3.797-15.283-8.096-16.986-10.74c1.672-3.347,4.899-5.653,8.636-6.118
		c0.237,0,61.958,0,61.958,0l0.297,0.01c0,0,0.086,0.005,0.168,0.008c5.557,0.737,9.737,5.503,9.737,11.116c0,0,0,10.497,0,13.541
		C72.244,42.546,50.784,39.917,36.279,34.888"/>
</g>
<g id="green">
	<path fill-opacity="0.1" d="M31.33,106.922c-8.949,0-16.229-7.279-16.229-16.229V31.164c0-8.948,7.28-16.228,16.229-16.228h59.527
		c8.949,0,16.229,7.28,16.229,16.228v59.529c0,8.947-7.28,16.229-16.229,16.229H31.33"/>
	<path fill="#03FC30" d="M29.33,104.922c-8.949,0-16.229-7.279-16.229-16.229V29.164c0-8.948,7.28-16.228,16.229-16.228h59.527
		c8.949,0,16.229,7.28,16.229,16.228v59.529c0,8.947-7.28,16.229-16.229,16.229H29.33"/>
	<g>
		
			<linearGradient id="SVGID_3_" gradientUnits="userSpaceOnUse" x1="296.6943" y1="-341.8228" x2="296.6942" y2="-255.8354" gradientTransform="matrix(1 0 0 -1 -237.5996 -239.9004)">
			<stop  offset="0" style="stop-color:#00DF34"/>
			<stop  offset="0.1758" style="stop-color:#00CD26"/>
			<stop  offset="0.4969" style="stop-color:#00B211"/>
			<stop  offset="0.782" style="stop-color:#00A204"/>
			<stop  offset="1" style="stop-color:#009C00"/>
		</linearGradient>
		<path fill="url(#SVGID_3_)" d="M88.857,101.923H29.33c-7.306,0-13.23-5.923-13.23-13.229V29.164
			c0-7.306,5.924-13.229,13.23-13.229h59.527c7.308,0,13.23,5.922,13.23,13.229v59.529C102.089,96,96.165,101.923,88.857,101.923
			L88.857,101.923z"/>
	</g>
	<path fill="#03FC30" d="M53.167,96.541c-0.116,0-0.228-0.01-0.338-0.027c-0.644,0-14.298,0-14.298,0
		c-0.598,0-1.165-0.269-1.544-0.729c-0.298-0.364-0.457-0.815-0.457-1.275c0-0.126,0.013-0.254,0.037-0.381l13.032-66.527
		c0.184-0.938,1.007-1.616,1.963-1.616h6.276c0.476,0,2.035,0,2.512,0h6.275c0.956,0,1.779,0.678,1.964,1.616L81.62,94.128
		c0.024,0.127,0.037,0.255,0.037,0.381c0,0.46-0.158,0.911-0.456,1.275c-0.381,0.461-0.947,0.729-1.544,0.729c0,0-13.509,0-14.153,0
		c-0.109,0.02-0.222,0.027-0.338,0.027H53.167"/>
	<g>
		<polygon fill="#FFFFFF" points="38.531,94.514 57.839,94.514 57.839,27.985 51.563,27.985 		"/>
		<polygon fill="#FFFFFF" points="66.626,27.985 60.35,27.985 60.35,94.514 79.658,94.514 		"/>
	</g>
	<g>
		<rect x="53.167" y="88.5" fill="#FFFFFF" width="12" height="6.041"/>
		<rect x="53.167" y="68.501" fill="#FFFFFF" width="12" height="6.04"/>
		<rect x="53.167" y="51.5" fill="#FFFFFF" width="12" height="6.041"/>
		<rect x="53.167" y="36.356" fill="#FFFFFF" width="12" height="6.042"/>
	</g>
	<path fill="#03FC30" d="M95.941,96.825c-4.813-0.601-9.272-1.882-13.252-3.804c-3.199-1.543-6.098-3.504-8.611-5.824
		c-2.625-2.422-4.28-4.729-5.191-6.202c-1.468,1.101-3.726,2.795-3.726,2.795c-0.265,0.198-0.581,0.301-0.899,0.301
		c-0.214,0-0.429-0.046-0.63-0.139c-0.5-0.229-0.833-0.718-0.868-1.269l-1.275-20.396c0-0.03-0.002-0.061-0.002-0.092
		c0-0.463,0.215-0.904,0.586-1.189c0.267-0.205,0.59-0.313,0.916-0.313c0.158,0,0.318,0.025,0.473,0.076l19.121,6.375
		c0.529,0.178,0.917,0.633,1.007,1.184c0.013,0.08,0.021,0.16,0.021,0.238c0,0.468-0.219,0.914-0.602,1.201c0,0-2.667,2-4.012,3.01
		c0.402,0.551,1.027,1.265,1.93,1.975c2.508,1.973,5.868,2.971,9.988,2.971c1.554,0,3.227-0.146,4.968-0.438
		c0.082-0.014,0.165-0.021,0.247-0.021c0.354,0,0.696,0.125,0.969,0.355c0.338,0.285,0.532,0.705,0.532,1.146v16.569
		c0,0.431-0.187,0.839-0.508,1.124c-0.274,0.244-0.63,0.375-0.991,0.375C96.066,96.836,96.005,96.833,95.941,96.825 M78.383,71.797
		c-0.001-0.002-0.001-0.005-0.001-0.005S78.382,71.795,78.383,71.797 M21.066,96.461c-0.322-0.285-0.508-0.693-0.508-1.124V78.768
		c0-0.44,0.196-0.861,0.532-1.146c0.272-0.23,0.617-0.355,0.969-0.355c0.082,0,0.165,0.008,0.247,0.021
		c1.742,0.29,3.415,0.438,4.968,0.438c4.121,0,7.481-0.998,9.989-2.971c0.901-0.71,1.526-1.424,1.93-1.975
		c-1.345-1.01-4.012-3.01-4.012-3.01c-0.383-0.287-0.601-0.733-0.601-1.201c0-0.078,0.006-0.158,0.019-0.238
		c0.09-0.551,0.478-1.006,1.007-1.184l19.121-6.375c0.154-0.051,0.314-0.076,0.473-0.076c0.327,0,0.65,0.107,0.916,0.313
		c0.372,0.285,0.586,0.729,0.586,1.189c0,0.031-0.001,0.062-0.003,0.092l-1.275,20.396c-0.035,0.551-0.368,1.037-0.868,1.269
		c-0.202,0.093-0.416,0.139-0.629,0.139c-0.318,0-0.636-0.103-0.9-0.301c0,0-2.258-1.694-3.725-2.795
		c-0.911,1.474-2.567,3.78-5.192,6.203c-2.514,2.319-5.411,4.28-8.611,5.823c-3.979,1.922-8.438,3.203-13.252,3.804
		c-0.063,0.008-0.125,0.011-0.188,0.011C21.696,96.836,21.342,96.705,21.066,96.461 M39.804,71.797
		c0.001-0.002,0.001-0.005,0.001-0.005S39.806,71.795,39.804,71.797"/>
	<path fill="#FFFFFF" d="M84.088,90.366c-2.923-1.4-5.566-3.173-7.861-5.271c-3.922-3.584-5.486-6.922-5.502-6.955
		c-0.189-0.41-0.558-0.718-0.996-0.828c-0.121-0.029-0.246-0.045-0.369-0.045c-0.32,0-0.639,0.103-0.898,0.299
		c0,0-1.46,1.096-2.875,2.156c-0.227-3.621-0.773-12.412-0.962-15.4c2.808,0.936,10.81,3.604,14.293,4.766
		c-1.39,1.043-2.81,2.105-2.81,2.105c-0.387,0.291-0.601,0.738-0.601,1.199c0,0.199,0.04,0.4,0.122,0.592
		c0.137,0.314,3.452,7.74,15.284,7.74c1.187,0,2.433-0.076,3.714-0.229c0,2.45,0,10.659,0,13.11
		C90.82,92.984,87.281,91.896,84.088,90.366 M23.56,80.496c1.283,0.152,2.527,0.229,3.714,0.229c11.832,0,15.149-7.425,15.285-7.74
		c0.082-0.189,0.122-0.391,0.122-0.59c0-0.461-0.213-0.91-0.601-1.199c0,0-1.419-1.063-2.809-2.106
		c3.485-1.161,11.486-3.83,14.293-4.767c-0.188,2.988-0.737,11.779-0.962,15.4c-1.414-1.061-2.875-2.156-2.875-2.156
		c-0.261-0.195-0.578-0.299-0.898-0.299c-0.123,0-0.248,0.017-0.37,0.047c-0.439,0.109-0.806,0.416-0.996,0.828
		c-0.015,0.032-1.579,3.371-5.501,6.955c-2.295,2.096-4.939,3.868-7.862,5.27c-3.193,1.531-6.733,2.617-10.54,3.24
		C23.56,91.154,23.56,82.945,23.56,80.496"/>
	
		<linearGradient id="SVGID_4_" gradientUnits="userSpaceOnUse" x1="297.291" y1="-282.6055" x2="297.291" y2="-257.9302" gradientTransform="matrix(1 0 0 -1 -237.5996 -239.9004)">
		<stop  offset="0" style="stop-color:#FFFFFF;stop-opacity:0"/>
		<stop  offset="1" style="stop-color:#FFFFFF;stop-opacity:0.8"/>
	</linearGradient>
	<path fill="url(#SVGID_4_)" d="M36.279,34.888c-10.953-3.797-15.283-8.096-16.986-10.74c1.672-3.347,4.899-5.653,8.636-6.118
		c0.237,0,61.958,0,61.958,0l0.297,0.01c0,0,0.086,0.005,0.168,0.008c5.557,0.737,9.737,5.503,9.737,11.116c0,0,0,10.497,0,13.541
		C72.244,42.546,50.784,39.917,36.279,34.888"/>
</g>
<g id="kia">
	<path fill-opacity="0.1" d="M31.33,106.922c-8.949,0-16.229-7.279-16.229-16.229V31.164c0-8.948,7.28-16.228,16.229-16.228h59.527
		c8.949,0,16.229,7.28,16.229,16.228v59.529c0,8.947-7.28,16.229-16.229,16.229H31.33"/>
	<path fill="#179e1e" d="M29.33,104.922c-8.949,0-16.229-7.279-16.229-16.229V29.164c0-8.948,7.28-16.228,16.229-16.228h59.527
		c8.949,0,16.229,7.28,16.229,16.228v59.529c0,8.947-7.28,16.229-16.229,16.229H29.33"/>
	<g>
		
			<linearGradient id="SVGID_5_" gradientUnits="userSpaceOnUse" x1="296.6943" y1="-341.8228" x2="296.6942" y2="-255.8354" gradientTransform="matrix(1 0 0 -1 -237.5996 -239.9004)">
			<stop  offset="0" style="stop-color:#FFFFFF"/>
			<stop  offset="0.1758" style="stop-color:#E7E9EA"/>
			<stop  offset="0.4969" style="stop-color:#CDD2D5"/>
			<stop  offset="0.782" style="stop-color:#C5CACC"/>
			<stop  offset="1" style="stop-color:#BABDC0"/>
		</linearGradient>
		<path fill="url(#SVGID_5_)" d="M88.857,101.923H29.33c-7.306,0-13.23-5.923-13.23-13.229V29.164
			c0-7.306,5.924-13.229,13.23-13.229h59.527c7.308,0,13.23,5.922,13.23,13.229v59.529C102.089,96,96.165,101.923,88.857,101.923
			L88.857,101.923z"/>
	</g>
	<path fill="#179e1e" d="M53.167,96.541c-0.116,0-0.228-0.01-0.338-0.027c-0.644,0-14.298,0-14.298,0
		c-0.598,0-1.165-0.269-1.544-0.729c-0.298-0.364-0.457-0.815-0.457-1.275c0-0.126,0.013-0.254,0.037-0.381l13.032-66.527
		c0.184-0.938,1.007-1.616,1.963-1.616h6.276c0.476,0,2.035,0,2.512,0h6.275c0.956,0,1.779,0.678,1.964,1.616L81.62,94.128
		c0.024,0.127,0.037,0.255,0.037,0.381c0,0.46-0.158,0.911-0.456,1.275c-0.381,0.461-0.947,0.729-1.544,0.729c0,0-13.509,0-14.153,0
		c-0.109,0.02-0.222,0.027-0.338,0.027H53.167"/>
	<g>
		<polygon fill="#FFFFFF" points="38.531,94.514 57.839,94.514 57.839,27.985 51.563,27.985 		"/>
		<polygon fill="#FFFFFF" points="66.626,27.985 60.35,27.985 60.35,94.514 79.658,94.514 		"/>
	</g>
	<g>
		<rect x="53.167" y="88.5" fill="#FFFFFF" width="12" height="6.041"/>
		<rect x="53.167" y="68.501" fill="#FFFFFF" width="12" height="6.04"/>
		<rect x="53.167" y="51.5" fill="#FFFFFF" width="12" height="6.041"/>
		<rect x="53.167" y="36.356" fill="#FFFFFF" width="12" height="6.042"/>
	</g>
	<path fill="#179e1e" d="M95.941,96.825c-4.813-0.601-9.272-1.882-13.252-3.804c-3.199-1.543-6.098-3.504-8.611-5.824
		c-2.625-2.422-4.28-4.729-5.191-6.202c-1.468,1.101-3.726,2.795-3.726,2.795c-0.265,0.198-0.581,0.301-0.899,0.301
		c-0.214,0-0.429-0.046-0.63-0.139c-0.5-0.229-0.833-0.718-0.868-1.269l-1.275-20.396c0-0.03-0.002-0.061-0.002-0.092
		c0-0.463,0.215-0.904,0.586-1.189c0.267-0.205,0.59-0.313,0.916-0.313c0.158,0,0.318,0.025,0.473,0.076l19.121,6.375
		c0.529,0.178,0.917,0.633,1.007,1.184c0.013,0.08,0.021,0.16,0.021,0.238c0,0.468-0.219,0.914-0.602,1.201c0,0-2.667,2-4.012,3.01
		c0.402,0.551,1.027,1.265,1.93,1.975c2.508,1.973,5.868,2.971,9.988,2.971c1.554,0,3.227-0.146,4.968-0.438
		c0.082-0.014,0.165-0.021,0.247-0.021c0.354,0,0.696,0.125,0.969,0.355c0.338,0.285,0.532,0.705,0.532,1.146v16.569
		c0,0.431-0.187,0.839-0.508,1.124c-0.274,0.244-0.63,0.375-0.991,0.375C96.066,96.836,96.005,96.833,95.941,96.825 M78.383,71.797
		c-0.001-0.002-0.001-0.005-0.001-0.005S78.382,71.795,78.383,71.797 M21.066,96.461c-0.322-0.285-0.508-0.693-0.508-1.124V78.768
		c0-0.44,0.196-0.861,0.532-1.146c0.272-0.23,0.617-0.355,0.969-0.355c0.082,0,0.165,0.008,0.247,0.021
		c1.742,0.29,3.415,0.438,4.968,0.438c4.121,0,7.481-0.998,9.989-2.971c0.901-0.71,1.526-1.424,1.93-1.975
		c-1.345-1.01-4.012-3.01-4.012-3.01c-0.383-0.287-0.601-0.733-0.601-1.201c0-0.078,0.006-0.158,0.019-0.238
		c0.09-0.551,0.478-1.006,1.007-1.184l19.121-6.375c0.154-0.051,0.314-0.076,0.473-0.076c0.327,0,0.65,0.107,0.916,0.313
		c0.372,0.285,0.586,0.729,0.586,1.189c0,0.031-0.001,0.062-0.003,0.092l-1.275,20.396c-0.035,0.551-0.368,1.037-0.868,1.269
		c-0.202,0.093-0.416,0.139-0.629,0.139c-0.318,0-0.636-0.103-0.9-0.301c0,0-2.258-1.694-3.725-2.795
		c-0.911,1.474-2.567,3.78-5.192,6.203c-2.514,2.319-5.411,4.28-8.611,5.823c-3.979,1.922-8.438,3.203-13.252,3.804
		c-0.063,0.008-0.125,0.011-0.188,0.011C21.696,96.836,21.342,96.705,21.066,96.461 M39.804,71.797
		c0.001-0.002,0.001-0.005,0.001-0.005S39.806,71.795,39.804,71.797"/>
	<path fill="#FFFFFF" d="M84.088,90.366c-2.923-1.4-5.566-3.173-7.861-5.271c-3.922-3.584-5.486-6.922-5.502-6.955
		c-0.189-0.41-0.558-0.718-0.996-0.828c-0.121-0.029-0.246-0.045-0.369-0.045c-0.32,0-0.639,0.103-0.898,0.299
		c0,0-1.46,1.096-2.875,2.156c-0.227-3.621-0.773-12.412-0.962-15.4c2.808,0.936,10.81,3.604,14.293,4.766
		c-1.39,1.043-2.81,2.105-2.81,2.105c-0.387,0.291-0.601,0.738-0.601,1.199c0,0.199,0.04,0.4,0.122,0.592
		c0.137,0.314,3.452,7.74,15.284,7.74c1.187,0,2.433-0.076,3.714-0.229c0,2.45,0,10.659,0,13.11
		C90.82,92.984,87.281,91.896,84.088,90.366 M23.56,80.496c1.283,0.152,2.527,0.229,3.714,0.229c11.832,0,15.149-7.425,15.285-7.74
		c0.082-0.189,0.122-0.391,0.122-0.59c0-0.461-0.213-0.91-0.601-1.199c0,0-1.419-1.063-2.809-2.106
		c3.485-1.161,11.486-3.83,14.293-4.767c-0.188,2.988-0.737,11.779-0.962,15.4c-1.414-1.061-2.875-2.156-2.875-2.156
		c-0.261-0.195-0.578-0.299-0.898-0.299c-0.123,0-0.248,0.017-0.37,0.047c-0.439,0.109-0.806,0.416-0.996,0.828
		c-0.015,0.032-1.579,3.371-5.501,6.955c-2.295,2.096-4.939,3.868-7.862,5.27c-3.193,1.531-6.733,2.617-10.54,3.24
		C23.56,91.154,23.56,82.945,23.56,80.496"/>
	
		<linearGradient id="SVGID_6_" gradientUnits="userSpaceOnUse" x1="297.291" y1="-282.6055" x2="297.291" y2="-257.9302" gradientTransform="matrix(1 0 0 -1 -237.5996 -239.9004)">
		<stop  offset="0" style="stop-color:#FFFFFF;stop-opacity:0"/>
		<stop  offset="1" style="stop-color:#FFFFFF;stop-opacity:0.8"/>
	</linearGradient>
	<path fill="url(#SVGID_6_)" d="M36.279,34.888c-10.953-3.797-15.283-8.096-16.986-10.74c1.672-3.347,4.899-5.653,8.636-6.118
		c0.237,0,61.958,0,61.958,0l0.297,0.01c0,0,0.086,0.005,0.168,0.008c5.557,0.737,9.737,5.503,9.737,11.116c0,0,0,10.497,0,13.541
		C72.244,42.546,50.784,39.917,36.279,34.888"/>
</g>
<g id="orange">
	<path fill-opacity="0.1" d="M31.33,106.922c-8.949,0-16.229-7.279-16.229-16.229V31.164c0-8.948,7.28-16.228,16.229-16.228h59.527
		c8.949,0,16.229,7.28,16.229,16.228v59.529c0,8.947-7.28,16.229-16.229,16.229H31.33"/>
	<path fill="#FFE035" d="M29.33,104.922c-8.949,0-16.229-7.279-16.229-16.229V29.164c0-8.948,7.28-16.228,16.229-16.228h59.527
		c8.949,0,16.229,7.28,16.229,16.228v59.529c0,8.947-7.28,16.229-16.229,16.229H29.33"/>
	<g>
		
			<linearGradient id="SVGID_7_" gradientUnits="userSpaceOnUse" x1="296.6943" y1="-341.8228" x2="296.6942" y2="-255.8354" gradientTransform="matrix(1 0 0 -1 -237.5996 -239.9004)">
			<stop  offset="0" style="stop-color:#FEDF34"/>
			<stop  offset="0.1758" style="stop-color:#FECD26"/>
			<stop  offset="0.4969" style="stop-color:#FFB211"/>
			<stop  offset="0.782" style="stop-color:#FFA204"/>
			<stop  offset="1" style="stop-color:#FF9C00"/>
		</linearGradient>
		<path fill="url(#SVGID_7_)" d="M88.857,101.923H29.33c-7.306,0-13.23-5.923-13.23-13.229V29.164
			c0-7.306,5.924-13.229,13.23-13.229h59.527c7.308,0,13.23,5.922,13.23,13.229v59.529C102.089,96,96.165,101.923,88.857,101.923
			L88.857,101.923z"/>
	</g>
	<path fill="#FFE035" d="M53.167,96.541c-0.116,0-0.228-0.01-0.338-0.027c-0.644,0-14.298,0-14.298,0
		c-0.598,0-1.165-0.269-1.544-0.729c-0.298-0.364-0.457-0.815-0.457-1.275c0-0.126,0.013-0.254,0.037-0.381l13.032-66.527
		c0.184-0.938,1.007-1.616,1.963-1.616h6.276c0.476,0,2.035,0,2.512,0h6.275c0.956,0,1.779,0.678,1.964,1.616L81.62,94.128
		c0.024,0.127,0.037,0.255,0.037,0.381c0,0.46-0.158,0.911-0.456,1.275c-0.381,0.461-0.947,0.729-1.544,0.729c0,0-13.509,0-14.153,0
		c-0.109,0.02-0.222,0.027-0.338,0.027H53.167"/>
	<g>
		<polygon fill="#FFFFFF" points="38.531,94.514 57.839,94.514 57.839,27.985 51.563,27.985 		"/>
		<polygon fill="#FFFFFF" points="66.626,27.985 60.35,27.985 60.35,94.514 79.658,94.514 		"/>
	</g>
	<g>
		<rect x="53.167" y="88.5" fill="#FFFFFF" width="12" height="6.041"/>
		<rect x="53.167" y="68.501" fill="#FFFFFF" width="12" height="6.04"/>
		<rect x="53.167" y="51.5" fill="#FFFFFF" width="12" height="6.041"/>
		<rect x="53.167" y="36.356" fill="#FFFFFF" width="12" height="6.042"/>
	</g>
	<path fill="#FFE035" d="M95.941,96.825c-4.813-0.601-9.272-1.882-13.252-3.804c-3.199-1.543-6.098-3.504-8.611-5.824
		c-2.625-2.422-4.28-4.729-5.191-6.202c-1.468,1.101-3.726,2.795-3.726,2.795c-0.265,0.198-0.581,0.301-0.899,0.301
		c-0.214,0-0.429-0.046-0.63-0.139c-0.5-0.229-0.833-0.718-0.868-1.269l-1.275-20.396c0-0.03-0.002-0.061-0.002-0.092
		c0-0.463,0.215-0.904,0.586-1.189c0.267-0.205,0.59-0.313,0.916-0.313c0.158,0,0.318,0.025,0.473,0.076l19.121,6.375
		c0.529,0.178,0.917,0.633,1.007,1.184c0.013,0.08,0.021,0.16,0.021,0.238c0,0.468-0.219,0.914-0.602,1.201c0,0-2.667,2-4.012,3.01
		c0.402,0.551,1.027,1.265,1.93,1.975c2.508,1.973,5.868,2.971,9.988,2.971c1.554,0,3.227-0.146,4.968-0.438
		c0.082-0.014,0.165-0.021,0.247-0.021c0.354,0,0.696,0.125,0.969,0.355c0.338,0.285,0.532,0.705,0.532,1.146v16.569
		c0,0.431-0.187,0.839-0.508,1.124c-0.274,0.244-0.63,0.375-0.991,0.375C96.066,96.836,96.005,96.833,95.941,96.825 M78.383,71.797
		c-0.001-0.002-0.001-0.005-0.001-0.005S78.382,71.795,78.383,71.797 M21.066,96.461c-0.322-0.285-0.508-0.693-0.508-1.124V78.768
		c0-0.44,0.196-0.861,0.532-1.146c0.272-0.23,0.617-0.355,0.969-0.355c0.082,0,0.165,0.008,0.247,0.021
		c1.742,0.29,3.415,0.438,4.968,0.438c4.121,0,7.481-0.998,9.989-2.971c0.901-0.71,1.526-1.424,1.93-1.975
		c-1.345-1.01-4.012-3.01-4.012-3.01c-0.383-0.287-0.601-0.733-0.601-1.201c0-0.078,0.006-0.158,0.019-0.238
		c0.09-0.551,0.478-1.006,1.007-1.184l19.121-6.375c0.154-0.051,0.314-0.076,0.473-0.076c0.327,0,0.65,0.107,0.916,0.313
		c0.372,0.285,0.586,0.729,0.586,1.189c0,0.031-0.001,0.062-0.003,0.092l-1.275,20.396c-0.035,0.551-0.368,1.037-0.868,1.269
		c-0.202,0.093-0.416,0.139-0.629,0.139c-0.318,0-0.636-0.103-0.9-0.301c0,0-2.258-1.694-3.725-2.795
		c-0.911,1.474-2.567,3.78-5.192,6.203c-2.514,2.319-5.411,4.28-8.611,5.823c-3.979,1.922-8.438,3.203-13.252,3.804
		c-0.063,0.008-0.125,0.011-0.188,0.011C21.696,96.836,21.342,96.705,21.066,96.461 M39.804,71.797
		c0.001-0.002,0.001-0.005,0.001-0.005S39.806,71.795,39.804,71.797"/>
	<path fill="#FFFFFF" d="M84.088,90.366c-2.923-1.4-5.566-3.173-7.861-5.271c-3.922-3.584-5.486-6.922-5.502-6.955
		c-0.189-0.41-0.558-0.718-0.996-0.828c-0.121-0.029-0.246-0.045-0.369-0.045c-0.32,0-0.639,0.103-0.898,0.299
		c0,0-1.46,1.096-2.875,2.156c-0.227-3.621-0.773-12.412-0.962-15.4c2.808,0.936,10.81,3.604,14.293,4.766
		c-1.39,1.043-2.81,2.105-2.81,2.105c-0.387,0.291-0.601,0.738-0.601,1.199c0,0.199,0.04,0.4,0.122,0.592
		c0.137,0.314,3.452,7.74,15.284,7.74c1.187,0,2.433-0.076,3.714-0.229c0,2.45,0,10.659,0,13.11
		C90.82,92.984,87.281,91.896,84.088,90.366 M23.56,80.496c1.283,0.152,2.527,0.229,3.714,0.229c11.832,0,15.149-7.425,15.285-7.74
		c0.082-0.189,0.122-0.391,0.122-0.59c0-0.461-0.213-0.91-0.601-1.199c0,0-1.419-1.063-2.809-2.106
		c3.485-1.161,11.486-3.83,14.293-4.767c-0.188,2.988-0.737,11.779-0.962,15.4c-1.414-1.061-2.875-2.156-2.875-2.156
		c-0.261-0.195-0.578-0.299-0.898-0.299c-0.123,0-0.248,0.017-0.37,0.047c-0.439,0.109-0.806,0.416-0.996,0.828
		c-0.015,0.032-1.579,3.371-5.501,6.955c-2.295,2.096-4.939,3.868-7.862,5.27c-3.193,1.531-6.733,2.617-10.54,3.24
		C23.56,91.154,23.56,82.945,23.56,80.496"/>
	
		<linearGradient id="SVGID_8_" gradientUnits="userSpaceOnUse" x1="297.291" y1="-282.6055" x2="297.291" y2="-257.9302" gradientTransform="matrix(1 0 0 -1 -237.5996 -239.9004)">
		<stop  offset="0" style="stop-color:#FFFFFF;stop-opacity:0"/>
		<stop  offset="1" style="stop-color:#FFFFFF;stop-opacity:0.8"/>
	</linearGradient>
	<path fill="url(#SVGID_8_)" d="M36.279,34.888c-10.953-3.797-15.283-8.096-16.986-10.74c1.672-3.347,4.899-5.653,8.636-6.118
		c0.237,0,61.958,0,61.958,0l0.297,0.01c0,0,0.086,0.005,0.168,0.008c5.557,0.737,9.737,5.503,9.737,11.116c0,0,0,10.497,0,13.541
		C72.244,42.546,50.784,39.917,36.279,34.888"/>
</g>
<g id="red">
	<path fill-opacity="0.1" d="M31.33,106.922c-8.949,0-16.229-7.279-16.229-16.229V31.164c0-8.948,7.28-16.228,16.229-16.228h59.527
		c8.949,0,16.229,7.28,16.229,16.228v59.529c0,8.947-7.28,16.229-16.229,16.229H31.33"/>
	<path fill="#FC7E7E" d="M29.33,104.922c-8.949,0-16.229-7.279-16.229-16.229V29.164c0-8.948,7.28-16.228,16.229-16.228h59.527
		c8.949,0,16.229,7.28,16.229,16.228v59.529c0,8.947-7.28,16.229-16.229,16.229H29.33"/>
	<g>
		
			<linearGradient id="SVGID_9_" gradientUnits="userSpaceOnUse" x1="296.6943" y1="-341.8228" x2="296.6942" y2="-255.8354" gradientTransform="matrix(1 0 0 -1 -237.5996 -239.9004)">
			<stop  offset="0" style="stop-color:#FF0000"/>
			<stop  offset="0.1758" style="stop-color:#F60303"/>
			<stop  offset="0.4969" style="stop-color:#EC0404"/>
			<stop  offset="0.782" style="stop-color:#E30101"/>
			<stop  offset="1" style="stop-color:#D60202"/>
		</linearGradient>
		<path fill="url(#SVGID_9_)" d="M88.857,101.923H29.33c-7.306,0-13.23-5.923-13.23-13.229V29.164
			c0-7.306,5.924-13.229,13.23-13.229h59.527c7.308,0,13.23,5.922,13.23,13.229v59.529C102.089,96,96.165,101.923,88.857,101.923
			L88.857,101.923z"/>
	</g>
	<path fill="#FC7E7E" d="M53.167,96.541c-0.116,0-0.228-0.01-0.338-0.027c-0.644,0-14.298,0-14.298,0
		c-0.598,0-1.165-0.269-1.544-0.729c-0.298-0.364-0.457-0.815-0.457-1.275c0-0.126,0.013-0.254,0.037-0.381l13.032-66.527
		c0.184-0.938,1.007-1.616,1.963-1.616h6.276c0.476,0,2.035,0,2.512,0h6.275c0.956,0,1.779,0.678,1.964,1.616L81.62,94.128
		c0.024,0.127,0.037,0.255,0.037,0.381c0,0.46-0.158,0.911-0.456,1.275c-0.381,0.461-0.947,0.729-1.544,0.729c0,0-13.509,0-14.153,0
		c-0.109,0.02-0.222,0.027-0.338,0.027H53.167"/>
	<g>
		<polygon fill="#FFFFFF" points="38.531,94.514 57.839,94.514 57.839,27.985 51.563,27.985 		"/>
		<polygon fill="#FFFFFF" points="66.626,27.985 60.35,27.985 60.35,94.514 79.658,94.514 		"/>
	</g>
	<g>
		<rect x="53.167" y="88.5" fill="#FFFFFF" width="12" height="6.041"/>
		<rect x="53.167" y="68.501" fill="#FFFFFF" width="12" height="6.04"/>
		<rect x="53.167" y="51.5" fill="#FFFFFF" width="12" height="6.041"/>
		<rect x="53.167" y="36.356" fill="#FFFFFF" width="12" height="6.042"/>
	</g>
	<path fill="#FC7E7E" d="M95.941,96.825c-4.813-0.601-9.272-1.882-13.252-3.804c-3.199-1.543-6.098-3.504-8.611-5.824
		c-2.625-2.422-4.28-4.729-5.191-6.202c-1.468,1.101-3.726,2.795-3.726,2.795c-0.265,0.198-0.581,0.301-0.899,0.301
		c-0.214,0-0.429-0.046-0.63-0.139c-0.5-0.229-0.833-0.718-0.868-1.269l-1.275-20.396c0-0.03-0.002-0.061-0.002-0.092
		c0-0.463,0.215-0.904,0.586-1.189c0.267-0.205,0.59-0.313,0.916-0.313c0.158,0,0.318,0.025,0.473,0.076l19.121,6.375
		c0.529,0.178,0.917,0.633,1.007,1.184c0.013,0.08,0.021,0.16,0.021,0.238c0,0.468-0.219,0.914-0.602,1.201c0,0-2.667,2-4.012,3.01
		c0.402,0.551,1.027,1.265,1.93,1.975c2.508,1.973,5.868,2.971,9.988,2.971c1.554,0,3.227-0.146,4.968-0.438
		c0.082-0.014,0.165-0.021,0.247-0.021c0.354,0,0.696,0.125,0.969,0.355c0.338,0.285,0.532,0.705,0.532,1.146v16.569
		c0,0.431-0.187,0.839-0.508,1.124c-0.274,0.244-0.63,0.375-0.991,0.375C96.066,96.836,96.005,96.833,95.941,96.825 M78.383,71.797
		c-0.001-0.002-0.001-0.005-0.001-0.005S78.382,71.795,78.383,71.797 M21.066,96.461c-0.322-0.285-0.508-0.693-0.508-1.124V78.768
		c0-0.44,0.196-0.861,0.532-1.146c0.272-0.23,0.617-0.355,0.969-0.355c0.082,0,0.165,0.008,0.247,0.021
		c1.742,0.29,3.415,0.438,4.968,0.438c4.121,0,7.481-0.998,9.989-2.971c0.901-0.71,1.526-1.424,1.93-1.975
		c-1.345-1.01-4.012-3.01-4.012-3.01c-0.383-0.287-0.601-0.733-0.601-1.201c0-0.078,0.006-0.158,0.019-0.238
		c0.09-0.551,0.478-1.006,1.007-1.184l19.121-6.375c0.154-0.051,0.314-0.076,0.473-0.076c0.327,0,0.65,0.107,0.916,0.313
		c0.372,0.285,0.586,0.729,0.586,1.189c0,0.031-0.001,0.062-0.003,0.092l-1.275,20.396c-0.035,0.551-0.368,1.037-0.868,1.269
		c-0.202,0.093-0.416,0.139-0.629,0.139c-0.318,0-0.636-0.103-0.9-0.301c0,0-2.258-1.694-3.725-2.795
		c-0.911,1.474-2.567,3.78-5.192,6.203c-2.514,2.319-5.411,4.28-8.611,5.823c-3.979,1.922-8.438,3.203-13.252,3.804
		c-0.063,0.008-0.125,0.011-0.188,0.011C21.696,96.836,21.342,96.705,21.066,96.461 M39.804,71.797
		c0.001-0.002,0.001-0.005,0.001-0.005S39.806,71.795,39.804,71.797"/>
	<path fill="#FFFFFF" d="M84.088,90.366c-2.923-1.4-5.566-3.173-7.861-5.271c-3.922-3.584-5.486-6.922-5.502-6.955
		c-0.189-0.41-0.558-0.718-0.996-0.828c-0.121-0.029-0.246-0.045-0.369-0.045c-0.32,0-0.639,0.103-0.898,0.299
		c0,0-1.46,1.096-2.875,2.156c-0.227-3.621-0.773-12.412-0.962-15.4c2.808,0.936,10.81,3.604,14.293,4.766
		c-1.39,1.043-2.81,2.105-2.81,2.105c-0.387,0.291-0.601,0.738-0.601,1.199c0,0.199,0.04,0.4,0.122,0.592
		c0.137,0.314,3.452,7.74,15.284,7.74c1.187,0,2.433-0.076,3.714-0.229c0,2.45,0,10.659,0,13.11
		C90.82,92.984,87.281,91.896,84.088,90.366 M23.56,80.496c1.283,0.152,2.527,0.229,3.714,0.229c11.832,0,15.149-7.425,15.285-7.74
		c0.082-0.189,0.122-0.391,0.122-0.59c0-0.461-0.213-0.91-0.601-1.199c0,0-1.419-1.063-2.809-2.106
		c3.485-1.161,11.486-3.83,14.293-4.767c-0.188,2.988-0.737,11.779-0.962,15.4c-1.414-1.061-2.875-2.156-2.875-2.156
		c-0.261-0.195-0.578-0.299-0.898-0.299c-0.123,0-0.248,0.017-0.37,0.047c-0.439,0.109-0.806,0.416-0.996,0.828
		c-0.015,0.032-1.579,3.371-5.501,6.955c-2.295,2.096-4.939,3.868-7.862,5.27c-3.193,1.531-6.733,2.617-10.54,3.24
		C23.56,91.154,23.56,82.945,23.56,80.496"/>
	
		<linearGradient id="SVGID_10_" gradientUnits="userSpaceOnUse" x1="297.291" y1="-282.6055" x2="297.291" y2="-257.9302" gradientTransform="matrix(1 0 0 -1 -237.5996 -239.9004)">
		<stop  offset="0" style="stop-color:#FFFFFF;stop-opacity:0"/>
		<stop  offset="1" style="stop-color:#FFFFFF;stop-opacity:0.8"/>
	</linearGradient>
	<path fill="url(#SVGID_10_)" d="M36.279,34.888c-10.953-3.797-15.283-8.096-16.986-10.74c1.672-3.347,4.899-5.653,8.636-6.118
		c0.237,0,61.958,0,61.958,0l0.297,0.01c0,0,0.086,0.005,0.168,0.008c5.557,0.737,9.737,5.503,9.737,11.116c0,0,0,10.497,0,13.541
		C72.244,42.546,50.784,39.917,36.279,34.888"/>
</g>
</svg>
