<?xml version="1.0" encoding="utf-8"?>
<!-- Generator: Adobe Illustrator 19.0.0, SVG Export Plug-In . SVG Version: 6.00 Build 0)  -->
<svg version="1.1" id="layer_1" xmlns="http://www.w3.org/2000/svg" xmlns:xlink="http://www.w3.org/1999/xlink" x="0px" y="0px"
	 width="114px" height="114px" viewBox="-248 340 114 114" enable-background="new -248 340 114 114" xml:space="preserve">
<g id="normal">
	<g>
		<path fill="#FFFFFF" d="M-142.8,386.073c0,11.177,0,22.354,0,33.53c0,0.466,0,0.466,0,0.931c-0.466,1.863-0.931,3.26-1.397,5.123
			c-3.26,6.986-9.314,10.711-16.765,10.711c-20.025,0-39.585,0-59.61,0c-8.848,0-15.834-5.588-18.162-13.971
			c0-0.931-0.466-1.863-0.466-2.794c0-13.505,0-26.545,0-40.05c0,0,0,0,0-0.466c0.466-4.191,2.794-6.986,6.986-8.848
			c0.466,0,0.466-0.466,0.466-0.931c0.466-2.329,1.397-3.726,3.726-3.726c2.328,0,4.657,0,6.986,0c0.931,0,1.863,0.466,2.328,0.931
			c0.931,0.466,0.931,1.863,1.863,2.794c1.863,0,3.726,0,6.054,0c0.466,0,0.466-0.466,0.931-0.466
			c1.397-2.328,2.794-4.657,3.726-6.986c1.397-2.794,3.26-3.726,6.52-3.726c4.657,0,8.848,0,13.505,0c3.726,0,7.917,0,11.643,0
			c2.328,0,4.657,0.931,5.588,3.26c0.931,1.863,2.329,3.726,3.26,6.054c0.466,1.397,1.397,1.863,3.26,1.863c0.466,0,0.931,0,0.931,0
			c8.383,0,14.902,4.657,17.231,12.574C-143.266,383.279-142.8,384.676-142.8,386.073z M-213.586,399.113
			c0,14.437,11.643,26.545,26.079,26.545c14.437,0,26.545-11.643,26.545-26.079c0-14.902-11.643-26.079-26.079-26.545
			C-201.478,373.034-213.586,384.676-213.586,399.113z M-219.175,376.759c0-3.26-2.328-5.588-5.588-5.588s-5.588,2.328-5.588,5.588
			c0,3.26,2.794,5.588,5.588,5.588C-221.503,382.348-219.175,380.019-219.175,376.759z"/>
		<path fill="#FFFFFF" d="M-169.345,399.113c0,9.78-7.917,17.697-17.697,17.697c-9.78,0-18.162-7.917-17.697-17.697
			c0-9.78,7.917-17.697,18.162-17.697C-177.262,381.416-169.345,389.333-169.345,399.113z"/>
	</g>
</g>
</svg>
