<?xml version="1.0" encoding="utf-8"?>
<!-- Generator: Adobe Illustrator 17.0.1, SVG Export Plug-In . SVG Version: 6.00 Build 0)  -->
<!DOCTYPE svg PUBLIC "-//W3C//DTD SVG 1.1//EN" "http://www.w3.org/Graphics/SVG/1.1/DTD/svg11.dtd">
<svg version="1.1" xmlns="http://www.w3.org/2000/svg" xmlns:xlink="http://www.w3.org/1999/xlink" x="0px" y="0px" width="114px"
	 height="114px" viewBox="0 0 114 114" enable-background="new 0 0 114 114" xml:space="preserve">
<g id="base">
	<path fill="#7B7B7B" d="M43.622,88.662c-4.092-1.731-7.766-4.207-10.921-7.364c-3.156-3.154-5.632-6.829-7.364-10.921
		c-1.792-4.239-2.702-8.739-2.702-13.377s0.91-9.138,2.702-13.377c1.731-4.092,4.207-7.767,7.364-10.921
		c3.155-3.157,6.829-5.633,10.921-7.364c4.239-1.792,8.739-2.701,13.377-2.701c4.638,0,9.138,0.909,13.378,2.701
		c4.092,1.731,7.768,4.207,10.922,7.364c3.154,3.154,5.633,6.829,7.363,10.921c1.793,4.239,2.703,8.739,2.703,13.377
		s-0.91,9.138-2.703,13.377c-1.73,4.092-4.209,7.767-7.363,10.921c-3.154,3.157-6.83,5.633-10.922,7.364
		c-4.24,1.792-8.74,2.701-13.378,2.701C52.361,91.363,47.861,90.454,43.622,88.662 M41.198,56.998
		c0,8.713,7.088,15.799,15.801,15.799c8.712,0,15.8-7.086,15.8-15.799c0-8.712-7.088-15.8-15.8-15.8
		C48.287,41.198,41.198,48.286,41.198,56.998"/>
	<path fill="#BDBEBD" d="M56.999,89.363c-17.875,0-32.363-14.489-32.363-32.363s14.489-32.363,32.363-32.363
		c17.874,0,32.364,14.489,32.364,32.363S74.873,89.363,56.999,89.363L56.999,89.363z M56.999,39.197
		c-9.832,0-17.801,7.97-17.801,17.801c0,9.83,7.969,17.8,17.801,17.8c9.829,0,17.8-7.97,17.8-17.8
		C74.799,47.167,66.828,39.197,56.999,39.197L56.999,39.197z"/>
</g>
<g id="exit_00">
	<defs>
		<filter id="Adobe_OpacityMaskFilter" filterUnits="userSpaceOnUse" x="47.036" y="77.225" width="19.946" height="32.604">
			<feColorMatrix  type="matrix" values="1 0 0 0 0  0 1 0 0 0  0 0 1 0 0  0 0 0 1 0"/>
		</filter>
	</defs>
	<mask maskUnits="userSpaceOnUse" x="47.036" y="77.225" width="19.946" height="32.604" id="SVGID_1_">
		<g filter="url(#Adobe_OpacityMaskFilter)">
			<path fill-rule="evenodd" clip-rule="evenodd" fill="#FFFFFF" d="M57.079,106.729c-27.337,0-49.5-22.162-49.5-49.498
				c0-27.338,22.163-49.5,49.5-49.5c27.336,0,49.5,22.162,49.5,49.5C106.579,84.567,84.415,106.729,57.079,106.729L57.079,106.729z
				 M57.086,30.432c-14.798,0-26.794,11.997-26.794,26.793c0,14.798,11.996,26.794,26.794,26.794
				c14.798,0,26.793-11.996,26.793-26.794C83.879,42.429,71.884,30.432,57.086,30.432L57.086,30.432z"/>
		</g>
	</mask>
	<path mask="url(#SVGID_1_)" fill="#7B7B7B" d="M51.07,109.828c-2.225,0-4.034-1.81-4.034-4.032V81.259
		c0-2.225,1.81-4.034,4.034-4.034h11.878c2.225,0,4.034,1.81,4.034,4.034v24.537c0,2.223-1.81,4.032-4.034,4.032H51.07"/>
	<defs>
		<filter id="Adobe_OpacityMaskFilter_1_" filterUnits="userSpaceOnUse" x="49.036" y="79.225" width="15.946" height="28.604">
			<feColorMatrix  type="matrix" values="1 0 0 0 0  0 1 0 0 0  0 0 1 0 0  0 0 0 1 0"/>
		</filter>
	</defs>
	<mask maskUnits="userSpaceOnUse" x="49.036" y="79.225" width="15.946" height="28.604" id="SVGID_2_">
		<g filter="url(#Adobe_OpacityMaskFilter_1_)">
			<path fill-rule="evenodd" clip-rule="evenodd" fill="#FFFFFF" d="M57.079,106.729c-27.337,0-49.5-22.162-49.5-49.498
				c0-27.338,22.163-49.5,49.5-49.5c27.336,0,49.5,22.162,49.5,49.5C106.579,84.567,84.415,106.729,57.079,106.729L57.079,106.729z
				 M57.086,30.432c-14.798,0-26.794,11.997-26.794,26.793c0,14.798,11.996,26.794,26.794,26.794
				c14.798,0,26.793-11.996,26.793-26.794C83.879,42.429,71.884,30.432,57.086,30.432L57.086,30.432z"/>
		</g>
	</mask>
	<path mask="url(#SVGID_2_)" fill="#BDBEBD" d="M49.036,105.796V81.259c0-1.123,0.912-2.034,2.034-2.034h11.878
		c1.125,0,2.034,0.911,2.034,2.034v24.537c0,1.122-0.909,2.032-2.034,2.032H51.07C49.948,107.828,49.036,106.918,49.036,105.796
		L49.036,105.796z"/>
</g>
<g id="exit_01">
	<defs>
		<filter id="Adobe_OpacityMaskFilter_2_" filterUnits="userSpaceOnUse" x="59.954" y="71.009" width="30.624" height="35.258">
			<feColorMatrix  type="matrix" values="1 0 0 0 0  0 1 0 0 0  0 0 1 0 0  0 0 0 1 0"/>
		</filter>
	</defs>
	<mask maskUnits="userSpaceOnUse" x="59.954" y="71.009" width="30.624" height="35.258" id="SVGID_3_">
		<g filter="url(#Adobe_OpacityMaskFilter_2_)">
			<path fill-rule="evenodd" clip-rule="evenodd" fill="#FFFFFF" d="M57.079,106.729c-27.337,0-49.5-22.162-49.5-49.498
				c0-27.338,22.163-49.5,49.5-49.5c27.336,0,49.5,22.162,49.5,49.5C106.579,84.567,84.415,106.729,57.079,106.729L57.079,106.729z
				 M57.086,30.432c-14.798,0-26.794,11.997-26.794,26.793c0,14.798,11.996,26.794,26.794,26.794
				c14.798,0,26.793-11.996,26.793-26.794C83.879,42.429,71.884,30.432,57.086,30.432L57.086,30.432z"/>
		</g>
	</mask>
	<path mask="url(#SVGID_3_)" fill="#7B7B7B" d="M72.765,104.249L60.495,83c-0.355-0.615-0.541-1.311-0.541-2.014
		c0-1.438,0.773-2.776,2.018-3.494l10.288-5.941c0.608-0.353,1.307-0.542,2.015-0.542c1.437,0,2.775,0.773,3.493,2.019l12.271,21.25
		c0.354,0.615,0.54,1.311,0.54,2.014c0,1.438-0.773,2.776-2.018,3.494l-10.288,5.941c-0.615,0.354-1.311,0.54-2.014,0.54
		C74.82,106.267,73.481,105.493,72.765,104.249"/>
	<defs>
		<filter id="Adobe_OpacityMaskFilter_3_" filterUnits="userSpaceOnUse" x="61.954" y="73.01" width="26.623" height="31.257">
			<feColorMatrix  type="matrix" values="1 0 0 0 0  0 1 0 0 0  0 0 1 0 0  0 0 0 1 0"/>
		</filter>
	</defs>
	<mask maskUnits="userSpaceOnUse" x="61.954" y="73.01" width="26.623" height="31.257" id="SVGID_4_">
		<g filter="url(#Adobe_OpacityMaskFilter_3_)">
			<path fill-rule="evenodd" clip-rule="evenodd" fill="#FFFFFF" d="M57.079,106.729c-27.337,0-49.5-22.162-49.5-49.498
				c0-27.338,22.163-49.5,49.5-49.5c27.336,0,49.5,22.162,49.5,49.5C106.579,84.567,84.415,106.729,57.079,106.729L57.079,106.729z
				 M57.086,30.432c-14.798,0-26.794,11.997-26.794,26.793c0,14.798,11.996,26.794,26.794,26.794
				c14.798,0,26.793-11.996,26.793-26.794C83.879,42.429,71.884,30.432,57.086,30.432L57.086,30.432z"/>
		</g>
	</mask>
	<path mask="url(#SVGID_4_)" fill="#BDBEBD" d="M74.496,103.249L62.227,82c-0.561-0.972-0.228-2.216,0.744-2.776l10.288-5.94
		c0.973-0.563,2.216-0.229,2.777,0.743l12.27,21.25c0.561,0.973,0.228,2.217-0.745,2.777l-10.288,5.94
		C76.301,104.555,75.057,104.222,74.496,103.249L74.496,103.249z"/>
</g>
<g id="exit_02">
	<defs>
		<filter id="Adobe_OpacityMaskFilter_4_" filterUnits="userSpaceOnUse" x="71.014" y="59.944" width="35.259" height="30.624">
			<feColorMatrix  type="matrix" values="1 0 0 0 0  0 1 0 0 0  0 0 1 0 0  0 0 0 1 0"/>
		</filter>
	</defs>
	<mask maskUnits="userSpaceOnUse" x="71.014" y="59.944" width="35.259" height="30.624" id="SVGID_5_">
		<g filter="url(#Adobe_OpacityMaskFilter_4_)">
			<path fill-rule="evenodd" clip-rule="evenodd" fill="#FFFFFF" d="M57.079,106.729c-27.337,0-49.5-22.162-49.5-49.498
				c0-27.338,22.163-49.5,49.5-49.5c27.336,0,49.5,22.162,49.5,49.5C106.579,84.567,84.415,106.729,57.079,106.729L57.079,106.729z
				 M57.086,30.432c-14.798,0-26.794,11.997-26.794,26.793c0,14.798,11.996,26.794,26.794,26.794
				c14.798,0,26.793-11.996,26.793-26.794C83.879,42.429,71.884,30.432,57.086,30.432L57.086,30.432z"/>
		</g>
	</mask>
	<path mask="url(#SVGID_5_)" fill="#7B7B7B" d="M94.285,90.03c-0.001-0.002-0.003-0.002-0.003-0.003l-21.249-12.27
		c-1.244-0.716-2.02-2.055-2.02-3.493c0-0.708,0.189-1.406,0.545-2.02l5.937-10.283c0.719-1.244,2.058-2.018,3.495-2.018
		c0.707,0,1.405,0.188,2.019,0.544l21.244,12.265c1.245,0.718,2.02,2.057,2.02,3.495c0,0.707-0.188,1.405-0.544,2.02l-5.937,10.283
		c-0.72,1.244-2.059,2.018-3.496,2.018C95.593,90.568,94.897,90.383,94.285,90.03"/>
	<defs>
		<filter id="Adobe_OpacityMaskFilter_5_" filterUnits="userSpaceOnUse" x="73.015" y="61.945" width="31.257" height="26.623">
			<feColorMatrix  type="matrix" values="1 0 0 0 0  0 1 0 0 0  0 0 1 0 0  0 0 0 1 0"/>
		</filter>
	</defs>
	<mask maskUnits="userSpaceOnUse" x="73.015" y="61.945" width="31.257" height="26.623" id="SVGID_6_">
		<g filter="url(#Adobe_OpacityMaskFilter_5_)">
			<path fill-rule="evenodd" clip-rule="evenodd" fill="#FFFFFF" d="M57.079,106.729c-27.337,0-49.5-22.162-49.5-49.498
				c0-27.338,22.163-49.5,49.5-49.5c27.336,0,49.5,22.162,49.5,49.5C106.579,84.567,84.415,106.729,57.079,106.729L57.079,106.729z
				 M57.086,30.432c-14.798,0-26.794,11.997-26.794,26.793c0,14.798,11.996,26.794,26.794,26.794
				c14.798,0,26.793-11.996,26.793-26.794C83.879,42.429,71.884,30.432,57.086,30.432L57.086,30.432z"/>
		</g>
	</mask>
	<path mask="url(#SVGID_6_)" fill="#BDBEBD" d="M95.281,88.296l-21.248-12.27c-0.975-0.561-1.308-1.805-0.745-2.776l5.94-10.288
		c0.561-0.973,1.805-1.306,2.776-0.743l21.249,12.268c0.974,0.562,1.307,1.805,0.745,2.776l-5.94,10.288
		C97.498,88.523,96.254,88.856,95.281,88.296L95.281,88.296z"/>
</g>
<g id="exit_03">
	<defs>
		<filter id="Adobe_OpacityMaskFilter_6_" filterUnits="userSpaceOnUse" x="77.225" y="47.006" width="32.603" height="19.946">
			<feColorMatrix  type="matrix" values="1 0 0 0 0  0 1 0 0 0  0 0 1 0 0  0 0 0 1 0"/>
		</filter>
	</defs>
	<mask maskUnits="userSpaceOnUse" x="77.225" y="47.006" width="32.603" height="19.946" id="SVGID_7_">
		<g filter="url(#Adobe_OpacityMaskFilter_6_)">
			<path fill-rule="evenodd" clip-rule="evenodd" fill="#FFFFFF" d="M57.079,106.729c-27.337,0-49.5-22.162-49.5-49.498
				c0-27.338,22.163-49.5,49.5-49.5c27.336,0,49.5,22.162,49.5,49.5C106.579,84.567,84.415,106.729,57.079,106.729L57.079,106.729z
				 M57.086,30.432c-14.798,0-26.794,11.997-26.794,26.793c0,14.798,11.996,26.794,26.794,26.794
				c14.798,0,26.793-11.996,26.793-26.794C83.879,42.429,71.884,30.432,57.086,30.432L57.086,30.432z"/>
		</g>
	</mask>
	<path mask="url(#SVGID_7_)" fill="#7B7B7B" d="M81.259,66.952c-2.225,0-4.034-1.81-4.034-4.034V51.04
		c0-2.225,1.81-4.034,4.034-4.034h24.537c2.223,0,4.032,1.809,4.032,4.034v11.878c0,2.225-1.809,4.034-4.032,4.034H81.259"/>
	<defs>
		<filter id="Adobe_OpacityMaskFilter_7_" filterUnits="userSpaceOnUse" x="79.225" y="49.006" width="28.603" height="15.946">
			<feColorMatrix  type="matrix" values="1 0 0 0 0  0 1 0 0 0  0 0 1 0 0  0 0 0 1 0"/>
		</filter>
	</defs>
	<mask maskUnits="userSpaceOnUse" x="79.225" y="49.006" width="28.603" height="15.946" id="SVGID_8_">
		<g filter="url(#Adobe_OpacityMaskFilter_7_)">
			<path fill-rule="evenodd" clip-rule="evenodd" fill="#FFFFFF" d="M57.079,106.729c-27.337,0-49.5-22.162-49.5-49.498
				c0-27.338,22.163-49.5,49.5-49.5c27.336,0,49.5,22.162,49.5,49.5C106.579,84.567,84.415,106.729,57.079,106.729L57.079,106.729z
				 M57.086,30.432c-14.798,0-26.794,11.997-26.794,26.793c0,14.798,11.996,26.794,26.794,26.794
				c14.798,0,26.793-11.996,26.793-26.794C83.879,42.429,71.884,30.432,57.086,30.432L57.086,30.432z"/>
		</g>
	</mask>
	<path mask="url(#SVGID_8_)" fill="#BDBEBD" d="M81.259,49.006h24.537c1.122,0,2.032,0.91,2.032,2.034v11.878
		c0,1.123-0.91,2.034-2.032,2.034H81.259c-1.124,0-2.034-0.911-2.034-2.034V51.04C79.225,49.916,80.135,49.006,81.259,49.006
		L81.259,49.006z"/>
</g>
<g id="exit_04">
	<defs>
		<filter id="Adobe_OpacityMaskFilter_8_" filterUnits="userSpaceOnUse" x="70.986" y="23.417" width="35.26" height="30.624">
			<feColorMatrix  type="matrix" values="1 0 0 0 0  0 1 0 0 0  0 0 1 0 0  0 0 0 1 0"/>
		</filter>
	</defs>
	<mask maskUnits="userSpaceOnUse" x="70.986" y="23.417" width="35.26" height="30.624" id="SVGID_9_">
		<g filter="url(#Adobe_OpacityMaskFilter_8_)">
			<path fill-rule="evenodd" clip-rule="evenodd" fill="#FFFFFF" d="M57.079,106.729c-27.337,0-49.5-22.162-49.5-49.498
				c0-27.338,22.163-49.5,49.5-49.5c27.336,0,49.5,22.162,49.5,49.5C106.579,84.567,84.415,106.729,57.079,106.729L57.079,106.729z
				 M57.086,30.432c-14.798,0-26.794,11.997-26.794,26.793c0,14.798,11.996,26.794,26.794,26.794
				c14.798,0,26.793-11.996,26.793-26.794C83.879,42.429,71.884,30.432,57.086,30.432L57.086,30.432z"/>
		</g>
	</mask>
	<path mask="url(#SVGID_9_)" fill="#7B7B7B" d="M77.47,52.023c0,0,0,0-0.002,0l-5.939-10.288c-0.353-0.608-0.542-1.307-0.542-2.015
		c0-1.438,0.775-2.777,2.021-3.495l21.247-12.268c0.615-0.355,1.311-0.541,2.014-0.541c1.438,0,2.776,0.773,3.494,2.018
		l5.941,10.288c0.353,0.609,0.542,1.308,0.542,2.016c0,1.438-0.775,2.776-2.021,3.494L82.978,53.5
		c-0.608,0.353-1.308,0.541-2.015,0.541C79.526,54.041,78.188,53.268,77.47,52.023"/>
	<defs>
		<filter id="Adobe_OpacityMaskFilter_9_" filterUnits="userSpaceOnUse" x="72.987" y="25.417" width="31.257" height="26.623">
			<feColorMatrix  type="matrix" values="1 0 0 0 0  0 1 0 0 0  0 0 1 0 0  0 0 0 1 0"/>
		</filter>
	</defs>
	<mask maskUnits="userSpaceOnUse" x="72.987" y="25.417" width="31.257" height="26.623" id="SVGID_10_">
		<g filter="url(#Adobe_OpacityMaskFilter_9_)">
			<path fill-rule="evenodd" clip-rule="evenodd" fill="#FFFFFF" d="M57.079,106.729c-27.337,0-49.5-22.162-49.5-49.498
				c0-27.338,22.163-49.5,49.5-49.5c27.336,0,49.5,22.162,49.5,49.5C106.579,84.567,84.415,106.729,57.079,106.729L57.079,106.729z
				 M57.086,30.432c-14.798,0-26.794,11.997-26.794,26.793c0,14.798,11.996,26.794,26.794,26.794
				c14.798,0,26.793-11.996,26.793-26.794C83.879,42.429,71.884,30.432,57.086,30.432L57.086,30.432z"/>
		</g>
	</mask>
	<path mask="url(#SVGID_10_)" fill="#BDBEBD" d="M74.006,37.959L95.255,25.69c0.972-0.562,2.216-0.228,2.776,0.745l5.94,10.288
		c0.562,0.972,0.229,2.215-0.745,2.776L81.978,51.767c-0.972,0.563-2.216,0.229-2.776-0.742l-5.941-10.288
		C72.698,39.764,73.032,38.52,74.006,37.959L74.006,37.959z"/>
</g>
<g id="exit_05">
	<defs>
		<filter id="Adobe_OpacityMaskFilter_10_" filterUnits="userSpaceOnUse" x="59.938" y="7.731" width="30.625" height="35.257">
			<feColorMatrix  type="matrix" values="1 0 0 0 0  0 1 0 0 0  0 0 1 0 0  0 0 0 1 0"/>
		</filter>
	</defs>
	<mask maskUnits="userSpaceOnUse" x="59.938" y="7.731" width="30.625" height="35.257" id="SVGID_11_">
		<g filter="url(#Adobe_OpacityMaskFilter_10_)">
			<path fill-rule="evenodd" clip-rule="evenodd" fill="#FFFFFF" d="M57.079,106.729c-27.337,0-49.5-22.162-49.5-49.498
				c0-27.338,22.163-49.5,49.5-49.5c27.336,0,49.5,22.162,49.5,49.5C106.579,84.567,84.415,106.729,57.079,106.729L57.079,106.729z
				 M57.086,30.432c-14.798,0-26.794,11.997-26.794,26.793c0,14.798,11.996,26.794,26.794,26.794
				c14.798,0,26.793-11.996,26.793-26.794C83.879,42.429,71.884,30.432,57.086,30.432L57.086,30.432z"/>
		</g>
	</mask>
	<path mask="url(#SVGID_11_)" fill="#7B7B7B" d="M72.239,42.443l0.005,0.003l-10.288-5.94c-1.245-0.719-2.019-2.058-2.019-3.494
		c0-0.708,0.189-1.406,0.545-2.019L72.747,9.748c0.722-1.246,2.061-2.017,3.496-2.017c0.703,0,1.397,0.185,2.01,0.538l10.291,5.941
		c1.244,0.719,2.019,2.058,2.019,3.496c0,0.703-0.187,1.398-0.539,2.01L77.752,40.968c-0.717,1.245-2.056,2.02-3.493,2.02
		C73.551,42.987,72.853,42.799,72.239,42.443"/>
	<defs>
		<filter id="Adobe_OpacityMaskFilter_11_" filterUnits="userSpaceOnUse" x="61.939" y="9.73" width="26.623" height="31.257">
			<feColorMatrix  type="matrix" values="1 0 0 0 0  0 1 0 0 0  0 0 1 0 0  0 0 0 1 0"/>
		</filter>
	</defs>
	<mask maskUnits="userSpaceOnUse" x="61.939" y="9.73" width="26.623" height="31.257" id="SVGID_12_">
		<g filter="url(#Adobe_OpacityMaskFilter_11_)">
			<path fill-rule="evenodd" clip-rule="evenodd" fill="#FFFFFF" d="M57.079,106.729c-27.337,0-49.5-22.162-49.5-49.498
				c0-27.338,22.163-49.5,49.5-49.5c27.336,0,49.5,22.162,49.5,49.5C106.579,84.567,84.415,106.729,57.079,106.729L57.079,106.729z
				 M57.086,30.432c-14.798,0-26.794,11.997-26.794,26.793c0,14.798,11.996,26.794,26.794,26.794
				c14.798,0,26.793-11.996,26.793-26.794C83.879,42.429,71.884,30.432,57.086,30.432L57.086,30.432z"/>
		</g>
	</mask>
	<path mask="url(#SVGID_12_)" fill="#BDBEBD" d="M62.212,31.996l12.268-21.249c0.563-0.972,1.805-1.307,2.777-0.744l10.288,5.939
		c0.972,0.56,1.305,1.806,0.744,2.777L76.021,39.969c-0.561,0.974-1.805,1.307-2.777,0.745l-10.288-5.941
		C61.983,34.213,61.649,32.969,62.212,31.996L62.212,31.996z"/>
</g>
<g id="exit_06">
	<defs>
		<filter id="Adobe_OpacityMaskFilter_12_" filterUnits="userSpaceOnUse" x="47.036" y="4.172" width="19.946" height="32.603">
			<feColorMatrix  type="matrix" values="1 0 0 0 0  0 1 0 0 0  0 0 1 0 0  0 0 0 1 0"/>
		</filter>
	</defs>
	<mask maskUnits="userSpaceOnUse" x="47.036" y="4.172" width="19.946" height="32.603" id="SVGID_13_">
		<g filter="url(#Adobe_OpacityMaskFilter_12_)">
			<path fill-rule="evenodd" clip-rule="evenodd" fill="#FFFFFF" d="M57.079,106.729c-27.337,0-49.5-22.162-49.5-49.498
				c0-27.338,22.163-49.5,49.5-49.5c27.336,0,49.5,22.162,49.5,49.5C106.579,84.567,84.415,106.729,57.079,106.729L57.079,106.729z
				 M57.086,30.432c-14.798,0-26.794,11.997-26.794,26.793c0,14.798,11.996,26.794,26.794,26.794
				c14.798,0,26.793-11.996,26.793-26.794C83.879,42.429,71.884,30.432,57.086,30.432L57.086,30.432z"/>
		</g>
	</mask>
	<path mask="url(#SVGID_13_)" fill="#7B7B7B" d="M51.07,36.775c-2.225,0-4.034-1.81-4.034-4.032V8.206
		c0-2.225,1.81-4.034,4.034-4.034h11.878c2.225,0,4.034,1.81,4.034,4.034v24.537c0,2.223-1.81,4.032-4.034,4.032H51.07"/>
	<defs>
		<filter id="Adobe_OpacityMaskFilter_13_" filterUnits="userSpaceOnUse" x="49.036" y="6.172" width="15.946" height="28.603">
			<feColorMatrix  type="matrix" values="1 0 0 0 0  0 1 0 0 0  0 0 1 0 0  0 0 0 1 0"/>
		</filter>
	</defs>
	<mask maskUnits="userSpaceOnUse" x="49.036" y="6.172" width="15.946" height="28.603" id="SVGID_14_">
		<g filter="url(#Adobe_OpacityMaskFilter_13_)">
			<path fill-rule="evenodd" clip-rule="evenodd" fill="#FFFFFF" d="M57.079,106.729c-27.337,0-49.5-22.162-49.5-49.498
				c0-27.338,22.163-49.5,49.5-49.5c27.336,0,49.5,22.162,49.5,49.5C106.579,84.567,84.415,106.729,57.079,106.729L57.079,106.729z
				 M57.086,30.432c-14.798,0-26.794,11.997-26.794,26.793c0,14.798,11.996,26.794,26.794,26.794
				c14.798,0,26.793-11.996,26.793-26.794C83.879,42.429,71.884,30.432,57.086,30.432L57.086,30.432z"/>
		</g>
	</mask>
	<path mask="url(#SVGID_14_)" fill="#BDBEBD" d="M49.036,32.743V8.206c0-1.123,0.912-2.034,2.034-2.034h11.878
		c1.125,0,2.034,0.911,2.034,2.034v24.537c0,1.122-0.909,2.032-2.034,2.032H51.07C49.948,34.775,49.036,33.865,49.036,32.743
		L49.036,32.743z"/>
</g>
<g id="exit_07">
	<defs>
		<filter id="Adobe_OpacityMaskFilter_14_" filterUnits="userSpaceOnUse" x="23.427" y="7.743" width="30.626" height="35.259">
			<feColorMatrix  type="matrix" values="1 0 0 0 0  0 1 0 0 0  0 0 1 0 0  0 0 0 1 0"/>
		</filter>
	</defs>
	<mask maskUnits="userSpaceOnUse" x="23.427" y="7.743" width="30.626" height="35.259" id="SVGID_15_">
		<g filter="url(#Adobe_OpacityMaskFilter_14_)">
			<path fill-rule="evenodd" clip-rule="evenodd" fill="#FFFFFF" d="M57.079,106.729c-27.337,0-49.5-22.162-49.5-49.498
				c0-27.338,22.163-49.5,49.5-49.5c27.336,0,49.5,22.162,49.5,49.5C106.579,84.567,84.415,106.729,57.079,106.729L57.079,106.729z
				 M57.086,30.432c-14.798,0-26.794,11.997-26.794,26.793c0,14.798,11.996,26.794,26.794,26.794
				c14.798,0,26.793-11.996,26.793-26.794C83.879,42.429,71.884,30.432,57.086,30.432L57.086,30.432z"/>
		</g>
	</mask>
	<path mask="url(#SVGID_15_)" fill="#7B7B7B" d="M36.235,40.98v0.002L23.968,19.733c-0.353-0.608-0.541-1.307-0.541-2.015
		c0-1.437,0.773-2.775,2.017-3.493l10.288-5.941c0.609-0.353,1.308-0.541,2.015-0.541c1.438,0,2.777,0.775,3.495,2.02L53.51,31.012
		c0.354,0.608,0.543,1.307,0.543,2.015c0,1.438-0.775,2.776-2.021,3.494l-10.285,5.938c-0.608,0.354-1.307,0.543-2.015,0.543
		C38.294,43.002,36.953,42.227,36.235,40.98"/>
	<defs>
		<filter id="Adobe_OpacityMaskFilter_15_" filterUnits="userSpaceOnUse" x="25.428" y="9.744" width="26.624" height="31.257">
			<feColorMatrix  type="matrix" values="1 0 0 0 0  0 1 0 0 0  0 0 1 0 0  0 0 0 1 0"/>
		</filter>
	</defs>
	<mask maskUnits="userSpaceOnUse" x="25.428" y="9.744" width="26.624" height="31.257" id="SVGID_16_">
		<g filter="url(#Adobe_OpacityMaskFilter_15_)">
			<path fill-rule="evenodd" clip-rule="evenodd" fill="#FFFFFF" d="M57.079,106.729c-27.337,0-49.5-22.162-49.5-49.498
				c0-27.338,22.163-49.5,49.5-49.5c27.336,0,49.5,22.162,49.5,49.5C106.579,84.567,84.415,106.729,57.079,106.729L57.079,106.729z
				 M57.086,30.432c-14.798,0-26.794,11.997-26.794,26.793c0,14.798,11.996,26.794,26.794,26.794
				c14.798,0,26.793-11.996,26.793-26.794C83.879,42.429,71.884,30.432,57.086,30.432L57.086,30.432z"/>
		</g>
	</mask>
	<path mask="url(#SVGID_16_)" fill="#BDBEBD" d="M37.969,39.983L25.701,18.734c-0.563-0.973-0.229-2.217,0.743-2.777l10.288-5.939
		c0.972-0.563,2.216-0.229,2.776,0.744l12.27,21.249c0.563,0.973,0.229,2.217-0.745,2.777l-10.286,5.939
		C39.773,41.29,38.53,40.957,37.969,39.983L37.969,39.983z"/>
</g>
<g id="exit_08">
	<defs>
		<filter id="Adobe_OpacityMaskFilter_16_" filterUnits="userSpaceOnUse" x="7.749" y="23.417" width="35.258" height="30.626">
			<feColorMatrix  type="matrix" values="1 0 0 0 0  0 1 0 0 0  0 0 1 0 0  0 0 0 1 0"/>
		</filter>
	</defs>
	<mask maskUnits="userSpaceOnUse" x="7.749" y="23.417" width="35.258" height="30.626" id="SVGID_17_">
		<g filter="url(#Adobe_OpacityMaskFilter_16_)">
			<path fill-rule="evenodd" clip-rule="evenodd" fill="#FFFFFF" d="M57.079,106.729c-27.337,0-49.5-22.162-49.5-49.498
				c0-27.338,22.163-49.5,49.5-49.5c27.336,0,49.5,22.162,49.5,49.5C106.579,84.567,84.415,106.729,57.079,106.729L57.079,106.729z
				 M57.086,30.432c-14.798,0-26.794,11.997-26.794,26.793c0,14.798,11.996,26.794,26.794,26.794
				c14.798,0,26.793-11.996,26.793-26.794C83.879,42.429,71.884,30.432,57.086,30.432L57.086,30.432z"/>
		</g>
	</mask>
	<path mask="url(#SVGID_17_)" fill="#7B7B7B" d="M31.012,53.498l0.005,0.004L9.768,41.234c-1.246-0.723-2.019-2.062-2.019-3.496
		c0-0.703,0.187-1.398,0.539-2.011l5.941-10.291c0.717-1.244,2.056-2.02,3.494-2.02c0.708,0,1.406,0.189,2.02,0.545l21.246,12.266
		c1.244,0.719,2.018,2.058,2.018,3.494c0,0.708-0.189,1.406-0.545,2.02l-5.937,10.284c-0.719,1.244-2.058,2.018-3.494,2.018
		C32.323,54.043,31.625,53.854,31.012,53.498"/>
	<defs>
		<filter id="Adobe_OpacityMaskFilter_17_" filterUnits="userSpaceOnUse" x="9.749" y="25.418" width="31.256" height="26.624">
			<feColorMatrix  type="matrix" values="1 0 0 0 0  0 1 0 0 0  0 0 1 0 0  0 0 0 1 0"/>
		</filter>
	</defs>
	<mask maskUnits="userSpaceOnUse" x="9.749" y="25.418" width="31.256" height="26.624" id="SVGID_18_">
		<g filter="url(#Adobe_OpacityMaskFilter_17_)">
			<path fill-rule="evenodd" clip-rule="evenodd" fill="#FFFFFF" d="M57.079,106.729c-27.337,0-49.5-22.162-49.5-49.498
				c0-27.338,22.163-49.5,49.5-49.5c27.336,0,49.5,22.162,49.5,49.5C106.579,84.567,84.415,106.729,57.079,106.729L57.079,106.729z
				 M57.086,30.432c-14.798,0-26.794,11.997-26.794,26.793c0,14.798,11.996,26.794,26.794,26.794
				c14.798,0,26.793-11.996,26.793-26.794C83.879,42.429,71.884,30.432,57.086,30.432L57.086,30.432z"/>
		</g>
	</mask>
	<path mask="url(#SVGID_18_)" fill="#BDBEBD" d="M32.016,51.769L10.767,39.501c-0.972-0.563-1.307-1.805-0.744-2.777l5.939-10.288
		c0.561-0.974,1.805-1.307,2.777-0.744l21.25,12.269c0.973,0.561,1.306,1.806,0.743,2.777l-5.939,10.288
		C34.232,51.998,32.987,52.331,32.016,51.769L32.016,51.769z"/>
</g>
<g id="exit_09">
	<defs>
		<filter id="Adobe_OpacityMaskFilter_18_" filterUnits="userSpaceOnUse" x="4.172" y="47.006" width="32.604" height="19.946">
			<feColorMatrix  type="matrix" values="1 0 0 0 0  0 1 0 0 0  0 0 1 0 0  0 0 0 1 0"/>
		</filter>
	</defs>
	<mask maskUnits="userSpaceOnUse" x="4.172" y="47.006" width="32.604" height="19.946" id="SVGID_19_">
		<g filter="url(#Adobe_OpacityMaskFilter_18_)">
			<path fill-rule="evenodd" clip-rule="evenodd" fill="#FFFFFF" d="M57.079,106.729c-27.337,0-49.5-22.162-49.5-49.498
				c0-27.338,22.163-49.5,49.5-49.5c27.336,0,49.5,22.162,49.5,49.5C106.579,84.567,84.415,106.729,57.079,106.729L57.079,106.729z
				 M57.086,30.432c-14.798,0-26.794,11.997-26.794,26.793c0,14.798,11.996,26.794,26.794,26.794
				c14.798,0,26.793-11.996,26.793-26.794C83.879,42.429,71.884,30.432,57.086,30.432L57.086,30.432z"/>
		</g>
	</mask>
	<path mask="url(#SVGID_19_)" fill="#7B7B7B" d="M8.206,66.952c-2.225,0-4.034-1.81-4.034-4.034V51.04
		c0-2.225,1.81-4.034,4.034-4.034h24.537c2.223,0,4.032,1.809,4.032,4.034v11.878c0,2.225-1.81,4.034-4.032,4.034H8.206"/>
	<defs>
		<filter id="Adobe_OpacityMaskFilter_19_" filterUnits="userSpaceOnUse" x="6.172" y="49.006" width="28.604" height="15.946">
			<feColorMatrix  type="matrix" values="1 0 0 0 0  0 1 0 0 0  0 0 1 0 0  0 0 0 1 0"/>
		</filter>
	</defs>
	<mask maskUnits="userSpaceOnUse" x="6.172" y="49.006" width="28.604" height="15.946" id="SVGID_20_">
		<g filter="url(#Adobe_OpacityMaskFilter_19_)">
			<path fill-rule="evenodd" clip-rule="evenodd" fill="#FFFFFF" d="M57.079,106.729c-27.337,0-49.5-22.162-49.5-49.498
				c0-27.338,22.163-49.5,49.5-49.5c27.336,0,49.5,22.162,49.5,49.5C106.579,84.567,84.415,106.729,57.079,106.729L57.079,106.729z
				 M57.086,30.432c-14.798,0-26.794,11.997-26.794,26.793c0,14.798,11.996,26.794,26.794,26.794
				c14.798,0,26.793-11.996,26.793-26.794C83.879,42.429,71.884,30.432,57.086,30.432L57.086,30.432z"/>
		</g>
	</mask>
	<path mask="url(#SVGID_20_)" fill="#BDBEBD" d="M8.206,49.006h24.537c1.122,0,2.032,0.91,2.032,2.034v11.878
		c0,1.123-0.91,2.034-2.032,2.034H8.206c-1.124,0-2.034-0.911-2.034-2.034V51.04C6.172,49.916,7.082,49.006,8.206,49.006
		L8.206,49.006z"/>
</g>
<g id="exit_10">
	<defs>
		<filter id="Adobe_OpacityMaskFilter_20_" filterUnits="userSpaceOnUse" x="7.723" y="59.942" width="35.257" height="30.624">
			<feColorMatrix  type="matrix" values="1 0 0 0 0  0 1 0 0 0  0 0 1 0 0  0 0 0 1 0"/>
		</filter>
	</defs>
	<mask maskUnits="userSpaceOnUse" x="7.723" y="59.942" width="35.257" height="30.624" id="SVGID_21_">
		<g filter="url(#Adobe_OpacityMaskFilter_20_)">
			<path fill-rule="evenodd" clip-rule="evenodd" fill="#FFFFFF" d="M57.079,106.729c-27.337,0-49.5-22.162-49.5-49.498
				c0-27.338,22.163-49.5,49.5-49.5c27.336,0,49.5,22.162,49.5,49.5C106.579,84.567,84.415,106.729,57.079,106.729L57.079,106.729z
				 M57.086,30.432c-14.798,0-26.794,11.997-26.794,26.793c0,14.798,11.996,26.794,26.794,26.794
				c14.798,0,26.793-11.996,26.793-26.794C83.879,42.429,71.884,30.432,57.086,30.432L57.086,30.432z"/>
		</g>
	</mask>
	<path mask="url(#SVGID_21_)" fill="#7B7B7B" d="M14.205,88.552c-0.002,0-0.002-0.001-0.003-0.003l-5.94-10.288
		c-0.354-0.615-0.539-1.31-0.539-2.013c0-1.436,0.771-2.774,2.015-3.493l21.252-12.27c0.608-0.353,1.307-0.542,2.015-0.542
		c1.439,0,2.777,0.773,3.494,2.018l5.94,10.288c0.353,0.608,0.541,1.307,0.541,2.015c0,1.437-0.773,2.775-2.018,3.492L19.711,90.027
		c-0.614,0.354-1.309,0.539-2.013,0.539C16.263,90.566,14.924,89.795,14.205,88.552"/>
	<defs>
		<filter id="Adobe_OpacityMaskFilter_21_" filterUnits="userSpaceOnUse" x="9.723" y="61.943" width="31.256" height="26.623">
			<feColorMatrix  type="matrix" values="1 0 0 0 0  0 1 0 0 0  0 0 1 0 0  0 0 0 1 0"/>
		</filter>
	</defs>
	<mask maskUnits="userSpaceOnUse" x="9.723" y="61.943" width="31.256" height="26.623" id="SVGID_22_">
		<g filter="url(#Adobe_OpacityMaskFilter_21_)">
			<path fill-rule="evenodd" clip-rule="evenodd" fill="#FFFFFF" d="M57.079,106.729c-27.337,0-49.5-22.162-49.5-49.498
				c0-27.338,22.163-49.5,49.5-49.5c27.336,0,49.5,22.162,49.5,49.5C106.579,84.567,84.415,106.729,57.079,106.729L57.079,106.729z
				 M57.086,30.432c-14.798,0-26.794,11.997-26.794,26.793c0,14.798,11.996,26.794,26.794,26.794
				c14.798,0,26.793-11.996,26.793-26.794C83.879,42.429,71.884,30.432,57.086,30.432L57.086,30.432z"/>
		</g>
	</mask>
	<path mask="url(#SVGID_22_)" fill="#BDBEBD" d="M10.739,74.484l21.249-12.268c0.974-0.563,2.217-0.229,2.778,0.743l5.938,10.288
		c0.563,0.972,0.229,2.217-0.743,2.777l-21.25,12.269c-0.973,0.561-2.215,0.228-2.777-0.744L9.995,77.262
		C9.435,76.289,9.768,75.047,10.739,74.484L10.739,74.484z"/>
</g>
<g id="exit_11">
	<defs>
		<filter id="Adobe_OpacityMaskFilter_22_" filterUnits="userSpaceOnUse" x="23.411" y="70.995" width="30.625" height="35.259">
			<feColorMatrix  type="matrix" values="1 0 0 0 0  0 1 0 0 0  0 0 1 0 0  0 0 0 1 0"/>
		</filter>
	</defs>
	<mask maskUnits="userSpaceOnUse" x="23.411" y="70.995" width="30.625" height="35.259" id="SVGID_23_">
		<g filter="url(#Adobe_OpacityMaskFilter_22_)">
			<path fill-rule="evenodd" clip-rule="evenodd" fill="#FFFFFF" d="M57.079,106.729c-27.337,0-49.5-22.162-49.5-49.498
				c0-27.338,22.163-49.5,49.5-49.5c27.336,0,49.5,22.162,49.5,49.5C106.579,84.567,84.415,106.729,57.079,106.729L57.079,106.729z
				 M57.086,30.432c-14.798,0-26.794,11.997-26.794,26.793c0,14.798,11.996,26.794,26.794,26.794
				c14.798,0,26.793-11.996,26.793-26.794C83.879,42.429,71.884,30.432,57.086,30.432L57.086,30.432z"/>
		</g>
	</mask>
	<path mask="url(#SVGID_23_)" fill="#7B7B7B" d="M35.714,105.709l0.005,0.003l-10.288-5.939c-1.245-0.718-2.02-2.057-2.02-3.495
		c0-0.707,0.188-1.405,0.544-2.02l12.268-21.243c0.716-1.245,2.055-2.02,3.493-2.02c0.708,0,1.406,0.188,2.02,0.544l10.283,5.937
		c1.244,0.72,2.017,2.059,2.017,3.495c0,0.708-0.188,1.406-0.544,2.019l-12.265,21.244c-0.718,1.244-2.057,2.02-3.494,2.02
		C37.025,106.254,36.327,106.064,35.714,105.709"/>
	<defs>
		<filter id="Adobe_OpacityMaskFilter_23_" filterUnits="userSpaceOnUse" x="25.412" y="72.996" width="26.624" height="31.257">
			<feColorMatrix  type="matrix" values="1 0 0 0 0  0 1 0 0 0  0 0 1 0 0  0 0 0 1 0"/>
		</filter>
	</defs>
	<mask maskUnits="userSpaceOnUse" x="25.412" y="72.996" width="26.624" height="31.257" id="SVGID_24_">
		<g filter="url(#Adobe_OpacityMaskFilter_23_)">
			<path fill-rule="evenodd" clip-rule="evenodd" fill="#FFFFFF" d="M57.079,106.729c-27.337,0-49.5-22.162-49.5-49.498
				c0-27.338,22.163-49.5,49.5-49.5c27.336,0,49.5,22.162,49.5,49.5C106.579,84.567,84.415,106.729,57.079,106.729L57.079,106.729z
				 M57.086,30.432c-14.798,0-26.794,11.997-26.794,26.793c0,14.798,11.996,26.794,26.794,26.794
				c14.798,0,26.793-11.996,26.793-26.794C83.879,42.429,71.884,30.432,57.086,30.432L57.086,30.432z"/>
		</g>
	</mask>
	<path mask="url(#SVGID_24_)" fill="#BDBEBD" d="M25.685,95.263l12.27-21.249c0.56-0.974,1.805-1.307,2.777-0.745l10.288,5.94
		c0.972,0.561,1.305,1.805,0.743,2.776l-12.268,21.249c-0.563,0.974-1.806,1.308-2.777,0.745l-10.288-5.94
		C25.456,97.479,25.123,96.234,25.685,95.263L25.685,95.263z"/>
</g>
<g id="exit_num">
</g>
</svg>
