<?xml version="1.0" encoding="utf-8"?>
<!-- Generator: Adobe Illustrator 15.0.1, SVG Export Plug-In . SVG Version: 6.00 Build 0)  -->
<!DOCTYPE svg PUBLIC "-//W3C//DTD SVG 1.1//EN" "http://www.w3.org/Graphics/SVG/1.1/DTD/svg11.dtd">
<svg version="1.1" id="Layer_1" xmlns="http://www.w3.org/2000/svg" xmlns:xlink="http://www.w3.org/1999/xlink" x="0px" y="0px"
	 width="120px" height="120px" viewBox="0 0 120 120" xml:space="preserve">

<path id="Night" d="M84.213,77.294c7.017,0,13.868-1.871,20.552-5.614c-2.807,9.692-8.238,17.629-16.292,23.811
	c-8.054,6.184-17.227,9.274-27.521,9.274c-12.565,0-23.326-4.462-32.282-13.384c-8.957-8.924-13.435-19.701-13.435-32.334
	c0-10.293,3.091-19.466,9.273-27.52c6.183-8.054,14.12-13.484,23.811-16.292c-3.742,6.683-5.615,13.534-5.615,20.552
	c0,11.496,4.061,21.288,12.182,29.376C63.008,73.251,72.783,77.294,84.213,77.294z"/>
</svg>
