<?xml version="1.0" encoding="UTF-8" ?>
<!DOCTYPE svg PUBLIC "-//W3C//DTD SVG 1.1//EN" "http://www.w3.org/Graphics/SVG/1.1/DTD/svg11.dtd">
<svg width="128pt" height="128pt" viewBox="0 0 128 128" version="1.1" xmlns="http://www.w3.org/2000/svg">
<g id="#000000ff">
<path fill="white" opacity="1.00" d=" M 62.43 0.00 L 65.56 0.00 C 74.73 0.24 83.69 2.66 92.05 6.37 L 91.66 6.33 C 103.99 12.14 113.95 22.19 120.45 34.09 C 125.15 42.80 127.54 52.61 128.00 62.47 L 128.00 66.44 C 127.26 83.75 119.18 100.45 106.28 111.97 C 95.03 121.80 80.43 127.50 65.50 128.00 L 61.70 128.00 C 45.27 127.32 29.32 120.17 17.89 108.36 C 7.14 97.10 0.70 81.98 0.00 66.43 L 0.00 62.10 C 0.71 46.63 6.88 31.57 17.44 20.21 L 17.56 20.29 C 28.87 7.71 45.60 0.50 62.43 0.00 M 29.84 16.27 C 32.42 16.54 34.92 17.33 37.14 18.69 C 38.07 18.68 39.94 18.65 40.88 18.63 C 39.82 18.13 38.75 17.65 37.68 17.15 C 36.56 16.23 35.27 15.66 33.81 15.42 C 35.76 14.14 37.83 12.94 40.26 13.16 C 41.87 16.44 45.16 15.23 47.73 14.01 C 46.53 15.84 44.75 16.92 42.55 17.07 C 42.53 17.52 42.49 18.43 42.47 18.88 C 44.95 18.71 47.34 18.01 49.68 17.19 C 49.22 16.59 48.28 15.37 47.82 14.77 C 49.64 14.37 51.50 14.28 53.35 14.16 C 52.56 15.15 51.77 16.13 50.97 17.11 C 51.62 17.42 52.91 18.06 53.56 18.37 C 54.01 17.07 53.57 14.92 55.40 14.61 C 58.64 13.12 61.95 14.71 64.83 16.21 C 65.47 17.48 66.33 18.67 66.65 20.07 C 65.72 20.37 64.77 20.63 63.82 20.86 C 63.49 21.26 62.83 22.05 62.50 22.44 C 60.93 22.02 59.37 21.60 57.80 21.18 C 59.18 20.14 60.57 19.12 61.90 18.02 C 57.69 16.10 53.72 19.00 51.31 22.27 C 50.65 21.65 49.98 21.04 49.31 20.42 C 46.92 21.68 44.55 22.99 42.19 24.32 C 42.78 26.73 45.00 27.50 47.16 28.00 C 47.39 29.14 47.65 30.27 47.93 31.40 C 48.76 30.41 49.53 29.36 50.29 28.31 C 51.23 27.95 52.17 27.59 53.10 27.23 C 53.12 25.89 53.13 24.56 53.15 23.23 C 53.62 22.90 54.57 22.23 55.04 21.89 C 57.21 22.44 59.82 22.87 59.10 25.87 C 60.37 25.30 61.64 24.73 62.91 24.15 C 63.01 25.20 63.12 26.26 63.23 27.31 C 64.47 28.35 65.27 29.67 65.61 31.26 L 64.12 30.30 C 64.02 31.48 63.92 32.65 63.83 33.83 L 65.03 32.46 C 65.29 33.14 65.82 34.50 66.09 35.18 C 64.61 34.79 63.14 34.39 61.67 33.98 C 61.86 33.29 62.23 31.93 62.41 31.24 C 60.16 32.81 57.60 30.56 55.38 31.74 C 56.00 32.29 57.25 33.38 57.87 33.92 C 54.99 33.09 53.33 35.70 51.26 37.10 C 46.66 39.86 44.61 45.20 39.90 47.86 C 39.93 48.87 39.97 50.90 40.00 51.92 C 38.70 51.01 37.66 49.85 37.15 48.33 C 34.45 48.45 31.53 47.87 29.02 49.13 C 25.89 50.52 24.29 54.59 25.87 57.69 C 26.59 57.71 28.02 57.75 28.74 57.77 C 30.43 56.77 32.15 55.81 33.91 54.93 C 33.46 56.29 32.96 57.64 32.47 58.99 C 33.28 59.12 34.90 59.39 35.71 59.52 C 35.83 61.29 35.95 63.05 36.07 64.82 C 37.64 65.09 39.20 65.36 40.77 65.63 C 41.74 64.45 42.71 63.27 43.67 62.08 C 45.66 62.49 47.61 63.13 48.99 64.71 C 50.42 64.42 51.83 64.09 53.23 63.71 C 54.30 65.03 55.34 66.36 56.38 67.71 C 57.67 67.73 58.96 67.76 60.26 67.79 C 60.78 69.56 61.25 71.34 61.69 73.14 C 64.52 74.56 67.68 74.86 70.81 74.81 C 71.16 75.39 71.87 76.54 72.23 77.12 C 72.87 77.35 74.16 77.81 74.80 78.04 C 73.85 79.87 72.69 81.61 71.84 83.50 C 70.90 86.40 71.68 90.03 68.96 92.11 C 67.56 92.03 66.15 91.96 64.75 91.90 C 64.39 93.81 64.49 95.75 64.79 97.66 C 63.08 99.93 61.58 102.39 59.66 104.49 C 57.93 105.70 55.80 106.13 53.86 106.86 C 54.58 107.28 55.30 107.70 56.03 108.13 C 55.55 108.76 54.61 110.03 54.14 110.66 C 54.84 110.94 56.25 111.49 56.95 111.77 C 56.67 112.83 56.40 113.90 56.13 114.96 C 57.09 116.06 58.10 117.12 59.05 118.24 C 58.00 118.31 55.91 118.45 54.86 118.53 C 51.09 115.53 47.71 111.13 48.94 106.01 C 48.34 105.09 47.74 104.16 47.15 103.24 C 47.80 98.20 45.95 93.23 46.66 88.15 C 44.96 87.07 43.25 86.01 41.54 84.96 C 40.13 82.40 38.37 80.07 36.51 77.83 C 36.72 76.00 36.93 74.16 37.14 72.33 C 38.13 71.64 39.13 70.95 40.12 70.25 C 39.94 69.05 39.76 67.85 39.58 66.65 C 38.10 66.53 36.63 66.41 35.16 66.28 C 33.16 63.22 29.84 61.79 26.80 60.02 C 24.78 59.80 22.59 60.03 20.73 59.08 C 18.73 57.64 19.18 54.82 18.03 52.85 C 16.69 50.45 15.87 47.77 14.26 45.52 C 14.10 48.79 15.81 51.59 17.08 54.45 C 16.48 54.39 15.29 54.26 14.70 54.20 C 12.87 51.67 12.03 48.70 12.31 45.58 C 11.77 45.30 10.70 44.76 10.16 44.48 C 9.93 43.38 9.71 42.28 9.49 41.17 C 7.40 48.30 5.24 55.52 5.31 63.02 C 4.94 79.69 12.17 96.29 24.56 107.42 C 37.42 119.29 55.79 124.80 73.06 121.96 C 87.10 119.91 99.94 112.27 109.17 101.60 C 107.34 100.36 107.74 97.94 106.72 96.21 C 105.55 94.28 105.27 92.04 105.20 89.82 C 102.64 87.29 104.03 84.15 105.63 81.55 C 103.50 77.87 100.68 74.12 101.94 69.60 C 98.95 68.97 95.87 66.76 92.89 68.62 C 90.71 68.84 88.51 69.26 86.32 69.02 C 84.21 67.18 82.52 64.94 80.66 62.86 C 80.65 61.48 80.65 60.09 80.64 58.71 C 81.06 57.91 81.48 57.10 81.91 56.29 C 81.23 55.41 80.56 54.53 79.90 53.64 C 82.18 52.08 84.44 50.47 86.67 48.82 C 86.62 47.97 86.53 46.28 86.48 45.43 C 91.47 43.36 96.99 43.00 102.29 42.26 C 102.30 43.10 102.32 44.77 102.33 45.61 C 104.55 46.26 106.76 46.95 108.96 47.69 C 109.88 44.20 113.66 46.16 115.51 47.69 C 117.13 47.73 118.75 47.75 120.37 47.77 C 119.87 46.20 119.36 44.63 118.84 43.06 C 117.66 42.93 116.50 42.74 115.34 42.50 C 114.15 41.38 113.98 39.56 113.22 38.19 C 112.50 39.65 111.81 41.12 111.08 42.58 C 109.05 39.51 107.95 34.31 103.12 35.24 C 104.07 37.12 105.74 38.37 107.51 39.41 C 107.41 40.17 107.22 41.70 107.13 42.47 C 105.86 42.24 104.61 41.99 103.36 41.72 C 104.16 41.51 105.77 41.08 106.57 40.87 C 104.82 39.49 103.05 38.13 101.33 36.71 C 100.06 37.07 98.78 37.40 97.50 37.71 C 96.25 39.32 95.12 41.05 93.72 42.54 C 91.78 43.01 89.79 42.51 87.86 42.27 C 87.84 40.50 87.80 38.73 87.82 36.96 C 89.92 36.87 92.01 36.90 94.11 37.02 C 93.75 35.60 93.41 34.18 93.10 32.74 C 94.24 32.51 95.37 32.27 96.50 32.02 C 97.81 29.16 100.53 28.47 103.46 28.84 C 103.41 28.31 103.29 27.26 103.23 26.73 C 100.85 27.29 99.40 25.27 97.78 23.97 C 99.41 22.55 101.20 21.32 102.98 20.10 C 92.90 11.66 80.28 6.09 67.08 5.39 C 53.88 4.77 40.67 8.74 29.84 16.27 M 28.66 20.45 C 30.50 20.52 32.89 21.15 33.54 18.73 C 31.84 19.05 30.09 19.40 28.66 20.45 M 30.45 22.29 C 29.07 23.84 31.88 25.18 32.78 23.66 C 34.19 22.12 31.35 20.79 30.45 22.29 M 107.01 23.94 C 107.05 26.21 105.32 27.46 103.70 28.68 C 105.83 28.68 108.18 29.06 109.85 27.42 C 108.90 26.26 107.95 25.10 107.01 23.94 M 34.51 29.09 C 34.95 29.56 35.83 30.50 36.28 30.98 C 37.48 30.61 37.50 29.18 37.99 28.25 C 36.83 28.51 35.66 28.79 34.51 29.09 M 37.72 33.82 C 38.22 34.03 39.20 34.46 39.69 34.67 C 38.76 36.02 37.93 37.46 38.56 39.14 C 39.82 37.45 40.98 35.70 42.13 33.93 C 42.49 34.83 43.21 36.63 43.57 37.54 C 42.70 38.22 41.85 38.91 41.01 39.63 C 42.19 39.17 44.36 39.68 44.27 37.62 C 45.48 37.88 46.69 38.14 47.91 38.38 C 47.53 37.42 47.11 36.49 46.65 35.57 C 45.67 35.41 44.68 35.38 43.71 35.21 C 43.33 34.58 42.59 33.32 42.21 32.69 C 40.66 32.81 39.19 33.34 37.72 33.82 M 116.64 40.30 C 117.85 39.59 117.83 38.86 116.56 38.13 C 115.34 38.84 115.37 39.57 116.64 40.30 Z" />
<path fill="white" opacity="1.00" d=" M 90.41 26.88 C 91.29 26.11 92.18 25.35 93.08 24.60 C 93.93 26.97 95.18 29.17 96.86 31.06 C 95.08 31.40 93.29 31.67 91.50 31.95 C 92.07 30.73 92.66 29.52 93.27 28.31 C 92.55 27.95 91.12 27.24 90.41 26.88 Z" />
<path fill="white" opacity="1.00" d=" M 89.65 27.94 C 92.70 27.01 90.90 31.26 88.82 30.86 C 87.05 30.52 88.55 28.18 89.65 27.94 Z" />
<path fill="white" opacity="1.00" d=" M 55.13 36.18 C 55.76 36.71 55.76 36.71 55.13 36.18 Z" />
</g>
</svg>
