<?xml version="1.0" encoding="UTF-8"?>
<!DOCTYPE svg PUBLIC "-//W3C//DTD SVG 1.1//EN" "http://www.w3.org/Graphics/SVG/1.1/DTD/svg11.dtd">
<!-- Creator: CorelDRAW X7 -->
<svg xmlns="http://www.w3.org/2000/svg" xml:space="preserve" width="0.866748in" height="0.866748in" version="1.1" style="shape-rendering:geometricPrecision; text-rendering:geometricPrecision; image-rendering:optimizeQuality; fill-rule:evenodd; clip-rule:evenodd"
viewBox="0 0 197 197"
 xmlns:xlink="http://www.w3.org/1999/xlink">
 <defs>
  <style type="text/css">
   <![CDATA[
    .fil2 {fill:none}
    .fil1 {fill:#FEFEFE}
    .fil0 {fill:#959699}
   ]]>
  </style>
 </defs>
 <g id="Layer_x0020_1">
  <metadata id="CorelCorpID_0Corel-Layer"/>
  <g id="_2299870521104">
   <path class="fil0" d="M147 44c2,-1 4,-1 6,0 1,1 1,3 0,5l-20 26c-1,1 -3,1 -5,1l-3 -2 24 28c1,2 1,4 -1,5 -1,2 -3,2 -4,1l-57 -29 60 61c2,1 2,4 0,5 -1,2 -3,2 -4,1l-63 -35 22 32c1,1 1,4 0,5 -2,1 -3,1 -5,0l-16 -8 -21 25c-1,2 -4,2 -5,1 -2,-1 -2,-4 -1,-5l23 -28c1,-1 3,-2 4,-1l6 3 -24 -34c-1,-1 -2,-3 -1,-4 1,-2 4,-3 5,-2l54 30 -58 -59c-1,-1 -1,-3 0,-4 1,-2 3,-3 5,-2l61 31 -21 -24c-1,-1 -1,-3 0,-4 0,-2 3,-3 5,-2l16 7 18 -24z"/>
   <path class="fil1" d="M59 183c9,-3 14,-11 11,-19 -2,-8 -10,-13 -18,-11 -9,2 -13,11 -11,19 2,8 10,13 18,11zm109 -130l-3 38 11 -4c5,33 -13,68 -45,82 -19,9 -40,9 -58,3 -1,4 -4,8 -7,10 22,9 47,9 70,-2 38,-17 58,-59 51,-98l10 -5 -29 -24zm-10 3c8,-2 13,-10 11,-18 -2,-9 -11,-13 -19,-11 -8,2 -13,10 -11,18 3,9 11,13 19,11z"/>
   <polygon class="fil2" points="0,0 197,0 197,197 0,197 "/>
  </g>
 </g>
</svg>
