<?xml version="1.0" encoding="utf-8"?>
<!-- Generator: Adobe Illustrator 17.0.1, SVG Export Plug-In . SVG Version: 6.00 Build 0)  -->
<!DOCTYPE svg PUBLIC "-//W3C//DTD SVG 1.1//EN" "http://www.w3.org/Graphics/SVG/1.1/DTD/svg11.dtd">
<svg version="1.1" id="normal" xmlns="http://www.w3.org/2000/svg" xmlns:xlink="http://www.w3.org/1999/xlink" x="0px" y="0px"
	 width="114px" height="114px" viewBox="0 0 114 114" enable-background="new 0 0 114 114" xml:space="preserve">
<path fill-rule="evenodd" clip-rule="evenodd" fill="#A6A6A6" d="M65.578,81.735h-5.322l7.096-11.547h5.322L65.578,81.735
	L65.578,81.735z M56.58,81.735V70.188h7.223l-7.095,11.547H56.58L56.58,81.735z M36.845,91.796l11.923-11.821L36.845,68.155V52.043
	h7.253l9.984,11.547v31.342H36.845V91.796L36.845,91.796z M76.53,70.92c1.952,0.381,2.795,0.607,4.146,0.677l-6.23,10.138h-5.322
	l6.734-10.958C76.077,70.826,76.297,70.874,76.53,70.92L76.53,70.92z M81.936,81.735h-3.94l3.669-5.972L81.936,81.735L81.936,81.735
	z M91.106,74.834l2.492-4.055c0.029-0.013,0.043-0.022,0.074-0.035c0.359-0.146,0.729-0.34,1.1-0.556h0.309v11.547h-4.167
	L91.106,74.834L91.106,74.834z"/>
<path fill-rule="evenodd" clip-rule="evenodd" fill="#A6A6A6" d="M95.235,34.391c-2.538-0.431-2.993-0.812-4.953-0.866v-6.368H80.19
	l-4.989-5.275l21.725-2.878l1.742,1.843l-2.759,13.669C95.68,34.475,95.473,34.431,95.235,34.391L95.235,34.391z M79.95,33.579
	c-4.881,0.405-5.514,2.671-8.248,4.609c-2.734,1.939-4.101,4.287-4.101,7.043c0,0.735,0.067,1.401,0.171,2.034l-4.074-4.31
	c0,0-10.338-14.628-27.069,0.918c-16.731,15.546-2.676,26.721-2.676,26.721l8.712,9.215L25.934,95.356l-8.712-9.215l7.436-6.909
	c0,0-22.767-20.39,3.259-44.573c26.026-24.183,45.076-0.34,45.076-0.34l6.957-6.464V33.579L79.95,33.579z M79.151,45.906
	c-0.088-0.277-0.144-0.572-0.144-0.895c0-0.974,0.447-1.718,1.34-2.233c0.887-0.511,1.933-0.81,3.145-0.906L79.151,45.906
	L79.151,45.906z"/>
<path fill="#A6A6A6" d="M98.263,53.1c-1.75-1.501-4.444-2.641-8.083-3.421l-2.309-0.495v-6.608c1.976,0.104,3.717,0.381,5.223,0.833
	c1.504,0.45,2.896,1.067,4.172,1.847h0.841v-7.492c-1.086-0.469-2.647-0.906-4.684-1.315c-2.039-0.407-3.845-0.637-5.42-0.689v-6.01
	h-4.303v6.062c-3.919,0.381-6.976,1.488-9.172,3.317c-2.196,1.831-3.293,4.045-3.293,6.648c0,1.787,0.275,3.248,0.826,4.383
	c0.551,1.137,1.307,2.104,2.269,2.902c0.98,0.815,2.082,1.456,3.307,1.925c1.224,0.468,2.51,0.866,3.856,1.196l2.337,0.572v7.207
	c-2.17-0.086-4.348-0.48-6.534-1.184c-2.188-0.703-3.701-1.323-4.54-1.859h-0.839v7.545c1.347,0.676,3.174,1.24,5.484,1.691
	c2.309,0.45,4.409,0.684,6.299,0.701v9.289h4.303v-9.419c1.994-0.104,3.788-0.482,5.379-1.132c1.592-0.65,2.939-1.47,4.042-2.458
	c1.084-0.97,1.931-2.108,2.545-3.408c0.612-1.3,0.919-2.679,0.919-4.137C100.888,56.765,100.012,54.601,98.263,53.1L98.263,53.1z
	 M81.021,47.415c-0.42-0.485-0.629-1.1-0.629-1.847c0-0.919,0.359-1.621,1.076-2.108c0.717-0.485,1.566-0.772,2.545-0.858v6.087
	C82.438,48.326,81.442,47.902,81.021,47.415L81.021,47.415z M90.468,62.986c-0.751,0.512-1.678,0.82-2.782,0.924V57.25
	c1.366,0.259,2.357,0.668,2.979,1.224c0.621,0.554,0.932,1.265,0.932,2.133C91.598,61.681,91.221,62.476,90.468,62.986
	L90.468,62.986z"/>
</svg>
