<?xml version="1.0" encoding="utf-8"?>
<!-- Generator: Adobe Illustrator 17.0.1, SVG Export Plug-In . SVG Version: 6.00 Build 0)  -->
<!DOCTYPE svg PUBLIC "-//W3C//DTD SVG 1.1//EN" "http://www.w3.org/Graphics/SVG/1.1/DTD/svg11.dtd">
<svg version="1.1" id="normal" xmlns="http://www.w3.org/2000/svg" xmlns:xlink="http://www.w3.org/1999/xlink" x="0px" y="0px"
	 width="114px" height="114px" viewBox="0 0 114 114" enable-background="new 0 0 114 114" xml:space="preserve">
<path fill-rule="evenodd" clip-rule="evenodd" fill="#A6A6A6" d="M94.367,42.156l-5.227-5.53l-8.895,8.265
	c-3.328-1.629-7.063-2.569-11.026-2.569c-1.877,0-3.728,0.223-5.536,0.612c-0.344-0.477-10.607-14.342-27.053,0.94
	c-16.731,15.546-2.676,26.721-2.676,26.721l8.712,9.215L25.934,95.356l-8.712-9.215l7.436-6.909c0,0-22.767-20.39,3.259-44.573
	c26.026-24.183,45.076-0.34,45.076-0.34l7.436-6.909l-5.227-5.528l21.725-2.878l1.742,1.843L94.367,42.156L94.367,42.156z"/>
<path fill-rule="evenodd" clip-rule="evenodd" fill="#A6A6A6" d="M69.215,58.609c6.986,0,12.65,5.977,12.65,13.352v20.38
	l-25.302,0.042V71.961C56.563,64.586,62.227,58.609,69.215,58.609L69.215,58.609z"/>
<g>
	<g>
		<path fill-rule="evenodd" clip-rule="evenodd" fill="#A6A6A6" d="M69.218,46.377c-13.791,0-26.494,11.084-26.494,24.756v2.047
			l6.384,6.504l-6.384,6.49v6.167h12.055V71.145c0-7.905,6.465-14.314,14.439-14.314s14.439,6.409,14.439,14.314v21.196H94.19
			V71.133C94.19,57.461,83.01,46.377,69.218,46.377z"/>
	</g>
</g>
</svg>
