<?xml version="1.0" encoding="utf-8"?>
<!-- Generator: Adobe Illustrator 17.0.1, SVG Export Plug-In . SVG Version: 6.00 Build 0)  -->
<!DOCTYPE svg PUBLIC "-//W3C//DTD SVG 1.1//EN" "http://www.w3.org/Graphics/SVG/1.1/DTD/svg11.dtd">
<svg version="1.1" id="normal" xmlns="http://www.w3.org/2000/svg" xmlns:xlink="http://www.w3.org/1999/xlink" x="0px" y="0px"
	 width="114px" height="114px" viewBox="0 0 114 114" enable-background="new 0 0 114 114" xml:space="preserve">
<polygon fill-rule="evenodd" clip-rule="evenodd" fill="#A6A6A6" points="49.261,79.78 38.317,68.928 100.127,68.928 90.283,89.351 
	39.608,89.351 49.261,79.78 "/>
<path fill="#A6A6A6" d="M72.408,52.171l-8.711-9.215c0,0-10.338-14.628-27.069,0.918c-16.731,15.546-2.676,26.721-2.676,26.721
	l8.712,9.215L25.934,95.356l-8.712-9.215l7.436-6.909c0,0-22.767-20.39,3.259-44.573c26.026-24.183,45.076-0.34,45.076-0.34
	l7.436-6.909l8.711,9.215L72.408,52.171L72.408,52.171z M94.367,42.156l-5.227-5.53l-8.711-9.215l-5.227-5.528l21.725-2.878
	l1.742,1.843L94.367,42.156L94.367,42.156z"/>
<path fill="#A6A6A6" d="M45.648,66.945c0-10.57-4.499-11.118-4.499-11.118v-2.116h4.266l3.198,3.173l3.221-4.662h16.089l4.95,6.135
	h9.901l4.949,4.907v3.68C87.723,66.945,48.847,66.945,45.648,66.945L45.648,66.945z M79.061,70.627h-2.474l-2.476-3.682h7.426
	L79.061,70.627L79.061,70.627z M53.073,70.627h-2.474l-2.476-3.682h7.426L53.073,70.627L53.073,70.627z"/>
</svg>
