<svg id="svg" version="1.1" xmlns="http://www.w3.org/2000/svg" xmlns:xlink="http://www.w3.org/1999/xlink" width="400" height="400" viewBox="0, 0, 400,400"><g id="svgg"><path id="path0" d="M11.910 10.712 C 12.017 11.310,12.351 12.085,12.653 12.432 C 12.955 12.780,13.096 13.170,12.968 13.299 C 12.839 13.428,12.703 53.213,12.667 101.710 L 12.600 189.887 51.101 189.925 L 89.603 189.963 90.402 189.106 C 90.938 188.530,91.055 188.158,90.758 187.974 C 90.434 187.774,90.434 187.626,90.757 187.426 C 91.001 187.276,91.179 186.488,91.154 185.676 C 91.128 184.864,91.024 184.517,90.923 184.905 C 90.822 185.293,90.573 185.507,90.370 185.381 C 89.845 185.057,89.910 183.697,90.459 183.514 C 90.712 183.429,90.989 182.680,91.074 181.848 C 91.176 180.857,91.084 180.425,90.808 180.595 C 90.576 180.738,90.468 180.986,90.567 181.147 C 90.666 181.307,90.582 181.700,90.380 182.019 C 90.073 182.503,90.011 182.485,90.006 181.912 C 90.003 181.534,89.640 180.583,89.200 179.800 C 88.418 178.407,88.400 177.634,88.400 145.188 C 88.400 109.609,88.295 111.697,90.070 111.943 C 90.218 111.963,90.333 107.124,90.325 101.190 L 90.311 90.400 89.356 90.400 C 88.830 90.400,88.400 90.220,88.400 90.000 C 88.400 89.780,88.760 89.600,89.200 89.600 C 90.248 89.600,90.217 89.042,89.130 88.320 C 88.559 87.941,88.348 87.511,88.517 87.071 C 88.912 86.044,314.683 86.030,315.078 87.058 C 315.227 87.448,315.059 87.914,314.665 88.202 C 314.299 88.469,314.014 89.028,314.032 89.444 C 314.049 89.866,314.152 89.979,314.265 89.700 C 314.376 89.425,314.722 89.200,315.033 89.200 C 315.997 89.200,315.855 309.451,314.891 310.683 C 314.202 311.563,314.153 311.566,299.409 311.630 C 291.275 311.666,284.390 311.783,284.109 311.890 C 282.225 312.613,285.230 312.800,298.751 312.800 C 311.916 312.800,313.969 312.881,314.414 313.417 C 315.450 314.665,314.138 314.783,298.889 314.809 L 283.600 314.836 283.600 351.642 C 283.600 378.383,283.479 388.373,283.159 388.174 C 282.916 388.024,283.026 388.374,283.405 388.951 L 284.092 390.000 337.227 390.000 C 376.698 390.000,390.624 389.881,391.381 389.536 L 392.400 389.072 392.499 264.636 C 392.600 139.154,392.584 125.354,392.318 106.800 C 392.238 101.190,392.297 89.310,392.450 80.400 C 392.603 71.490,392.626 52.399,392.500 37.977 L 392.271 11.753 202.636 11.684 C 98.336 11.645,12.865 11.611,12.700 11.607 C 12.535 11.603,12.400 11.251,12.400 10.824 C 12.400 10.397,12.246 9.952,12.058 9.836 C 11.870 9.719,11.803 10.114,11.910 10.712 M56.300 189.087 C 55.695 189.178,54.705 189.178,54.100 189.087 C 53.495 188.995,53.990 188.920,55.200 188.920 C 56.410 188.920,56.905 188.995,56.300 189.087 M60.700 189.076 C 60.315 189.176,59.685 189.176,59.300 189.076 C 58.915 188.975,59.230 188.893,60.000 188.893 C 60.770 188.893,61.085 188.975,60.700 189.076 M65.336 189.300 C 65.084 189.712,63.924 189.666,63.213 189.216 C 62.797 188.953,63.047 188.867,64.072 188.922 C 64.868 188.965,65.437 189.135,65.336 189.300 " stroke="none" fill="#048404" fill-rule="evenodd"></path><path id="path1" d="M90.901 91.400 C 90.905 92.280,90.987 92.593,91.083 92.095 C 91.179 91.598,91.175 90.878,91.075 90.495 C 90.975 90.113,90.896 90.520,90.901 91.400 M56.800 217.400 C 56.800 217.853,56.311 218.000,54.800 218.000 C 53.333 218.000,52.587 218.213,52.000 218.800 C 51.377 219.423,50.667 219.600,48.787 219.600 C 47.012 219.600,46.314 219.758,46.145 220.200 C 46.013 220.542,45.417 220.800,44.757 220.800 C 43.995 220.800,43.600 221.005,43.600 221.400 C 43.600 221.816,43.181 222.000,42.233 222.000 C 40.471 222.000,39.600 222.345,39.600 223.043 C 39.600 223.413,39.130 223.600,38.200 223.600 C 37.352 223.600,36.796 223.797,36.790 224.100 C 36.779 224.594,34.175 226.000,33.269 226.000 C 33.011 226.000,32.800 226.360,32.800 226.800 C 32.800 227.448,32.533 227.600,31.400 227.600 C 30.422 227.600,30.000 227.781,30.000 228.200 C 30.000 228.530,29.730 228.800,29.400 228.800 C 29.070 228.800,28.800 229.070,28.800 229.400 C 28.800 229.730,28.530 230.000,28.200 230.000 C 27.867 230.000,27.600 230.356,27.600 230.800 C 27.600 231.333,27.333 231.600,26.800 231.600 C 26.356 231.600,26.000 231.867,26.000 232.200 C 26.000 232.530,25.730 232.800,25.400 232.800 C 25.070 232.800,24.800 233.011,24.800 233.269 C 24.800 234.364,23.359 236.780,22.700 236.790 C 22.315 236.795,22.000 237.070,22.000 237.400 C 22.000 237.730,21.730 238.000,21.400 238.000 C 21.067 238.000,20.800 238.356,20.800 238.800 C 20.800 239.244,20.533 239.600,20.200 239.600 C 19.800 239.600,19.600 240.000,19.600 240.800 C 19.600 241.733,19.422 242.000,18.800 242.000 C 18.152 242.000,18.000 242.267,18.000 243.400 C 18.000 244.378,17.819 244.800,17.400 244.800 C 16.981 244.800,16.800 245.222,16.800 246.200 C 16.800 247.178,16.619 247.600,16.200 247.600 C 15.800 247.600,15.600 248.000,15.600 248.800 C 15.600 249.467,15.244 250.356,14.800 250.800 C 14.356 251.244,14.000 252.133,14.000 252.800 C 14.000 253.600,13.800 254.000,13.400 254.000 C 12.939 254.000,12.800 254.511,12.800 256.200 C 12.800 257.889,12.661 258.400,12.200 258.400 C 11.733 258.400,11.600 258.933,11.600 260.800 C 11.600 262.673,11.423 263.377,10.794 264.006 C 10.017 264.783,9.992 265.242,10.094 276.706 L 10.200 288.600 27.764 288.704 C 49.701 288.834,47.200 290.042,47.200 279.322 C 47.200 272.131,47.287 270.966,47.876 270.317 C 48.301 269.846,48.616 268.652,48.726 267.085 C 48.833 265.556,49.112 264.477,49.450 264.280 C 49.753 264.104,50.000 263.519,50.000 262.980 C 50.000 262.376,50.230 262.000,50.600 262.000 C 51.019 262.000,51.200 261.578,51.200 260.600 C 51.200 259.467,51.352 259.200,52.000 259.200 C 52.444 259.200,52.800 258.933,52.800 258.600 C 52.800 258.270,53.070 258.000,53.400 258.000 C 53.730 258.000,54.000 257.730,54.000 257.400 C 54.000 257.070,54.270 256.800,54.600 256.800 C 54.930 256.800,55.560 256.440,56.000 256.000 C 56.440 255.560,57.070 255.200,57.400 255.200 C 57.730 255.200,58.000 254.930,58.000 254.600 C 58.000 254.270,58.270 254.000,58.600 254.000 C 58.930 254.000,59.200 253.730,59.200 253.400 C 59.200 252.954,59.671 252.800,61.037 252.800 C 62.538 252.800,62.913 252.654,63.084 252.000 C 63.354 250.968,75.600 250.726,75.600 251.753 C 75.600 252.360,76.787 252.786,78.500 252.795 C 79.209 252.798,79.600 253.013,79.600 253.400 C 79.600 253.730,79.870 254.000,80.200 254.000 C 80.530 254.000,80.800 254.270,80.800 254.600 C 80.800 255.019,81.222 255.200,82.200 255.200 C 83.333 255.200,83.600 255.352,83.600 256.000 C 83.600 256.444,83.867 256.800,84.200 256.800 C 84.530 256.800,84.800 257.051,84.800 257.357 C 84.800 257.664,85.070 258.018,85.400 258.145 C 85.730 258.271,86.000 258.847,86.000 259.425 C 86.000 260.138,86.256 260.542,86.800 260.684 C 87.367 260.832,87.600 261.230,87.600 262.047 C 87.600 262.805,87.805 263.200,88.200 263.200 C 88.653 263.200,88.800 263.689,88.800 265.200 C 88.800 266.711,88.947 267.200,89.400 267.200 C 89.900 267.200,90.000 268.000,90.000 272.000 C 90.000 276.000,89.900 276.800,89.400 276.800 C 88.947 276.800,88.800 277.289,88.800 278.800 C 88.800 280.311,88.653 280.800,88.200 280.800 C 87.781 280.800,87.600 281.222,87.600 282.200 C 87.600 283.333,87.448 283.600,86.800 283.600 C 86.360 283.600,86.000 283.851,86.000 284.157 C 86.000 284.464,85.730 284.818,85.400 284.945 C 85.049 285.079,84.800 285.679,84.800 286.387 C 84.800 287.199,84.601 287.600,84.200 287.600 C 83.800 287.600,83.600 288.000,83.600 288.800 C 83.600 289.733,83.422 290.000,82.800 290.000 C 82.267 290.000,82.000 290.267,82.000 290.800 C 82.000 291.240,81.773 291.600,81.495 291.600 C 81.217 291.600,80.812 292.004,80.595 292.498 C 80.378 292.992,79.705 293.632,79.100 293.920 C 78.495 294.208,78.000 294.704,78.000 295.022 C 78.000 295.340,77.730 295.600,77.400 295.600 C 77.070 295.600,76.800 295.870,76.800 296.200 C 76.800 296.530,76.530 296.800,76.200 296.800 C 75.870 296.800,75.600 297.070,75.600 297.400 C 75.600 297.733,75.244 298.000,74.800 298.000 C 74.267 298.000,74.000 298.267,74.000 298.800 C 74.000 299.244,73.733 299.600,73.400 299.600 C 73.070 299.600,72.800 299.870,72.800 300.200 C 72.800 300.530,72.530 300.800,72.200 300.800 C 71.870 300.800,71.600 301.070,71.600 301.400 C 71.600 301.730,71.255 302.000,70.833 302.000 C 69.641 302.000,68.800 302.431,68.800 303.043 C 68.800 303.349,68.530 303.600,68.200 303.600 C 67.870 303.600,67.600 303.870,67.600 304.200 C 67.600 304.533,67.244 304.800,66.800 304.800 C 66.356 304.800,66.000 305.067,66.000 305.400 C 66.000 305.800,65.600 306.000,64.800 306.000 C 63.867 306.000,63.600 306.178,63.600 306.800 C 63.600 307.333,63.333 307.600,62.800 307.600 C 62.356 307.600,62.000 307.867,62.000 308.200 C 62.000 308.600,61.600 308.800,60.800 308.800 C 60.000 308.800,59.600 309.000,59.600 309.400 C 59.600 309.733,59.244 310.000,58.800 310.000 C 58.267 310.000,58.000 310.267,58.000 310.800 C 58.000 311.316,57.733 311.600,57.249 311.600 C 56.836 311.600,56.274 311.870,56.000 312.200 C 55.726 312.530,55.164 312.800,54.751 312.800 C 54.338 312.800,54.000 313.070,54.000 313.400 C 54.000 313.730,53.730 314.000,53.400 314.000 C 53.067 314.000,52.800 314.356,52.800 314.800 C 52.800 315.448,52.533 315.600,51.400 315.600 C 50.422 315.600,50.000 315.781,50.000 316.200 C 50.000 316.530,49.730 316.800,49.400 316.800 C 49.070 316.800,48.800 317.070,48.800 317.400 C 48.800 317.804,48.396 318.000,47.563 318.000 C 46.662 318.000,46.268 318.217,46.116 318.800 C 46.001 319.240,45.658 319.600,45.353 319.600 C 45.049 319.600,44.800 319.870,44.800 320.200 C 44.800 320.530,44.530 320.800,44.200 320.800 C 43.870 320.800,43.600 321.070,43.600 321.400 C 43.600 321.730,43.255 322.000,42.833 322.000 C 41.641 322.000,40.800 322.431,40.800 323.043 C 40.800 323.349,40.530 323.600,40.200 323.600 C 39.870 323.600,39.600 323.870,39.600 324.200 C 39.600 324.533,39.244 324.800,38.800 324.800 C 38.356 324.800,38.000 325.067,38.000 325.400 C 38.000 325.730,37.730 326.000,37.400 326.000 C 37.067 326.000,36.800 326.356,36.800 326.800 C 36.800 327.448,36.533 327.600,35.400 327.600 C 34.422 327.600,34.000 327.781,34.000 328.200 C 34.000 328.530,33.730 328.800,33.400 328.800 C 33.070 328.800,32.800 329.070,32.800 329.400 C 32.800 329.730,32.530 330.000,32.200 330.000 C 31.867 330.000,31.600 330.356,31.600 330.800 C 31.600 331.333,31.333 331.600,30.800 331.600 C 30.356 331.600,30.000 331.867,30.000 332.200 C 30.000 332.530,29.730 332.800,29.400 332.800 C 29.070 332.800,28.800 333.070,28.800 333.400 C 28.800 333.730,28.530 334.000,28.200 334.000 C 27.867 334.000,27.600 334.356,27.600 334.800 C 27.600 335.333,27.333 335.600,26.800 335.600 C 26.356 335.600,26.000 335.867,26.000 336.200 C 26.000 336.530,25.730 336.800,25.400 336.800 C 25.070 336.800,24.800 337.070,24.800 337.400 C 24.800 337.730,24.530 338.000,24.200 338.000 C 23.867 338.000,23.600 338.356,23.600 338.800 C 23.600 339.333,23.333 339.600,22.800 339.600 C 22.356 339.600,22.000 339.867,22.000 340.200 C 22.000 340.530,21.730 340.800,21.400 340.800 C 21.070 340.800,20.800 341.051,20.800 341.357 C 20.800 341.664,20.530 342.018,20.200 342.145 C 19.849 342.279,19.600 342.879,19.600 343.587 C 19.600 344.533,19.424 344.800,18.800 344.800 C 18.356 344.800,18.000 345.067,18.000 345.400 C 18.000 345.730,17.730 346.000,17.400 346.000 C 17.070 346.000,16.800 346.338,16.800 346.751 C 16.800 347.164,16.530 347.726,16.200 348.000 C 15.870 348.274,15.600 348.836,15.600 349.249 C 15.600 349.662,15.326 350.000,14.990 350.000 C 14.655 350.000,14.216 350.433,14.015 350.961 C 13.814 351.490,13.458 352.040,13.225 352.185 C 12.991 352.329,12.800 352.777,12.800 353.181 C 12.800 353.584,12.530 354.018,12.200 354.145 C 11.849 354.279,11.600 354.879,11.600 355.587 C 11.600 356.357,11.397 356.800,11.043 356.800 C 10.345 356.800,10.000 357.671,10.000 359.433 C 10.000 360.381,9.816 360.800,9.400 360.800 C 9.070 360.800,8.800 361.076,8.800 361.413 C 8.800 361.749,8.530 362.129,8.200 362.255 C 7.742 362.431,7.600 363.183,7.600 365.443 C 7.600 367.875,7.457 368.543,6.793 369.207 C 6.021 369.979,5.991 370.443,6.093 379.907 L 6.200 389.800 67.176 389.901 C 115.692 389.982,128.216 389.900,128.469 389.501 C 128.838 388.921,128.921 359.581,128.557 358.633 C 128.424 358.285,128.083 358.000,127.800 358.000 C 127.517 358.000,127.182 357.730,127.055 357.400 C 126.853 356.873,122.526 356.794,91.713 356.754 C 72.401 356.728,56.915 356.625,57.300 356.524 C 57.766 356.403,58.000 355.949,58.000 355.171 C 58.000 354.397,58.203 354.000,58.600 354.000 C 58.930 354.000,59.200 353.730,59.200 353.400 C 59.200 353.070,59.487 352.800,59.837 352.800 C 60.188 352.800,60.569 352.440,60.684 352.000 C 60.799 351.560,61.142 351.200,61.447 351.200 C 61.751 351.200,62.000 350.930,62.000 350.600 C 62.000 350.270,62.270 350.000,62.600 350.000 C 62.930 350.000,63.200 349.730,63.200 349.400 C 63.200 349.070,63.545 348.800,63.967 348.800 C 65.159 348.800,66.000 348.369,66.000 347.757 C 66.000 347.451,66.270 347.200,66.600 347.200 C 66.930 347.200,67.200 346.930,67.200 346.600 C 67.200 346.270,67.461 346.000,67.780 346.000 C 68.099 346.000,68.504 345.771,68.680 345.492 C 68.856 345.212,69.495 344.766,70.100 344.500 C 70.705 344.235,71.200 343.833,71.200 343.609 C 71.200 343.384,71.476 343.200,71.813 343.200 C 72.149 343.200,72.529 342.930,72.655 342.600 C 72.782 342.270,73.136 342.000,73.443 342.000 C 73.749 342.000,74.000 341.730,74.000 341.400 C 74.000 341.027,74.377 340.800,74.997 340.800 C 75.560 340.800,76.210 340.452,76.493 340.000 C 76.768 339.560,77.219 339.200,77.496 339.200 C 77.773 339.200,78.000 338.930,78.000 338.600 C 78.000 338.270,78.270 338.000,78.600 338.000 C 78.930 338.000,79.200 337.750,79.200 337.445 C 79.200 337.126,79.798 336.777,80.600 336.626 C 81.438 336.469,82.000 336.130,82.000 335.782 C 82.000 335.462,82.270 335.200,82.600 335.200 C 82.930 335.200,83.200 334.930,83.200 334.600 C 83.200 334.270,83.547 334.000,83.971 334.000 C 84.396 334.000,84.981 333.765,85.271 333.478 C 85.562 333.190,86.115 332.836,86.500 332.690 C 86.885 332.544,87.200 332.149,87.200 331.813 C 87.200 331.467,87.548 331.200,88.000 331.200 C 88.444 331.200,88.800 330.933,88.800 330.600 C 88.800 330.270,89.070 330.000,89.400 330.000 C 89.730 330.000,90.000 329.730,90.000 329.400 C 90.000 329.027,90.377 328.800,90.997 328.800 C 91.560 328.800,92.210 328.452,92.493 328.000 C 92.768 327.560,93.219 327.200,93.496 327.200 C 93.773 327.200,94.000 326.930,94.000 326.600 C 94.000 326.225,94.379 326.000,95.013 326.000 C 95.569 326.000,96.126 325.737,96.250 325.415 C 96.373 325.094,96.817 324.721,97.237 324.588 C 97.657 324.455,98.000 324.088,98.000 323.773 C 98.000 323.458,98.270 323.200,98.600 323.200 C 98.930 323.200,99.200 322.930,99.200 322.600 C 99.200 322.267,99.556 322.000,100.000 322.000 C 100.444 322.000,100.800 321.733,100.800 321.400 C 100.800 321.070,101.070 320.800,101.400 320.800 C 101.733 320.800,102.000 320.444,102.000 320.000 C 102.000 319.378,102.267 319.200,103.200 319.200 C 104.000 319.200,104.400 319.000,104.400 318.600 C 104.400 318.270,104.600 318.000,104.844 318.000 C 105.458 318.000,107.185 316.310,107.193 315.700 C 107.197 315.425,107.560 315.200,108.000 315.200 C 108.444 315.200,108.800 314.933,108.800 314.600 C 108.800 314.270,109.070 314.000,109.400 314.000 C 109.730 314.000,110.000 313.730,110.000 313.400 C 110.000 313.070,110.270 312.800,110.600 312.800 C 110.933 312.800,111.200 312.444,111.200 312.000 C 111.200 311.467,111.467 311.200,112.000 311.200 C 112.444 311.200,112.800 310.933,112.800 310.600 C 112.800 310.270,113.070 310.000,113.400 310.000 C 113.730 310.000,114.000 309.730,114.000 309.400 C 114.000 309.070,114.270 308.800,114.600 308.800 C 114.933 308.800,115.200 308.444,115.200 308.000 C 115.200 307.467,115.467 307.200,116.000 307.200 C 116.444 307.200,116.800 306.933,116.800 306.600 C 116.800 306.270,117.070 306.000,117.400 306.000 C 117.730 306.000,118.000 305.749,118.000 305.443 C 118.000 305.136,118.270 304.782,118.600 304.655 C 118.943 304.524,119.200 303.927,119.200 303.259 C 119.200 302.430,119.431 302.033,120.000 301.884 C 120.583 301.732,120.800 301.338,120.800 300.437 C 120.800 299.604,120.996 299.200,121.400 299.200 C 121.801 299.200,122.000 298.799,122.000 297.987 C 122.000 297.279,122.249 296.679,122.600 296.545 C 122.945 296.412,123.200 295.815,123.200 295.140 C 123.200 294.495,123.560 293.580,124.000 293.108 C 124.545 292.522,124.800 291.696,124.800 290.512 C 124.800 289.337,124.994 288.700,125.400 288.545 C 125.921 288.345,126.000 285.906,126.000 269.957 C 126.000 253.906,125.925 251.600,125.400 251.600 C 124.996 251.600,124.800 251.196,124.800 250.363 C 124.800 249.462,124.583 249.068,124.000 248.916 C 123.338 248.743,123.200 248.370,123.200 246.753 C 123.200 245.284,123.051 244.800,122.600 244.800 C 122.199 244.800,122.000 244.399,122.000 243.587 C 122.000 242.879,121.751 242.279,121.400 242.145 C 121.070 242.018,120.800 241.664,120.800 241.357 C 120.800 241.051,120.440 240.800,120.000 240.800 C 119.556 240.800,119.200 240.533,119.200 240.200 C 119.200 239.870,118.930 239.600,118.600 239.600 C 118.181 239.600,118.000 239.178,118.000 238.200 C 118.000 237.222,117.819 236.800,117.400 236.800 C 117.070 236.800,116.800 236.530,116.800 236.200 C 116.800 235.867,116.444 235.600,116.000 235.600 C 115.467 235.600,115.200 235.333,115.200 234.800 C 115.200 234.356,114.933 234.000,114.600 234.000 C 114.270 234.000,114.000 233.730,114.000 233.400 C 114.000 233.070,113.730 232.800,113.400 232.800 C 113.070 232.800,112.800 232.530,112.800 232.200 C 112.800 231.867,112.444 231.600,112.000 231.600 C 111.461 231.600,111.200 231.333,111.200 230.784 C 111.200 229.388,109.586 227.600,108.325 227.600 C 107.467 227.600,107.200 227.410,107.200 226.800 C 107.200 226.356,106.933 226.000,106.600 226.000 C 106.270 226.000,106.000 225.730,106.000 225.400 C 106.000 224.981,105.578 224.800,104.600 224.800 C 103.622 224.800,103.200 224.619,103.200 224.200 C 103.200 223.805,102.805 223.600,102.047 223.600 C 101.230 223.600,100.832 223.367,100.684 222.800 C 100.531 222.215,100.138 222.000,99.225 222.000 C 98.483 222.000,97.881 221.756,97.745 221.400 C 97.588 220.991,96.947 220.800,95.729 220.800 C 94.675 220.800,93.697 220.554,93.343 220.200 C 92.926 219.783,91.904 219.600,89.991 219.600 C 87.786 219.600,87.162 219.461,86.849 218.900 C 86.497 218.271,85.533 218.188,77.365 218.078 C 70.234 217.983,68.095 217.832,67.448 217.378 C 66.223 216.521,56.800 216.540,56.800 217.400 M197.055 219.000 C 196.929 219.330,196.549 219.600,196.213 219.600 C 195.876 219.600,195.600 219.780,195.600 220.000 C 195.600 220.220,195.240 220.760,194.800 221.200 C 194.360 221.640,194.000 222.360,194.000 222.800 C 194.000 223.244,193.733 223.600,193.400 223.600 C 193.070 223.600,192.800 223.870,192.800 224.200 C 192.800 224.530,192.530 224.800,192.200 224.800 C 191.781 224.800,191.600 225.222,191.600 226.200 C 191.600 227.333,191.448 227.600,190.800 227.600 C 190.356 227.600,190.000 227.867,190.000 228.200 C 190.000 228.530,189.730 228.800,189.400 228.800 C 189.035 228.800,188.800 229.172,188.800 229.751 C 188.800 230.274,188.530 230.926,188.200 231.200 C 187.870 231.474,187.600 231.946,187.600 232.249 C 187.600 232.552,187.240 232.800,186.800 232.800 C 186.282 232.800,186.000 233.067,186.000 233.557 C 186.000 233.974,185.730 234.418,185.400 234.545 C 185.070 234.671,184.800 235.231,184.800 235.787 C 184.800 236.421,184.575 236.800,184.200 236.800 C 183.870 236.800,183.600 237.049,183.600 237.353 C 183.600 237.658,183.240 238.001,182.800 238.116 C 182.217 238.268,182.000 238.662,182.000 239.563 C 182.000 240.396,181.804 240.800,181.400 240.800 C 181.070 240.800,180.800 241.070,180.800 241.400 C 180.800 241.730,180.530 242.000,180.200 242.000 C 179.870 242.000,179.600 242.339,179.600 242.753 C 179.600 243.170,179.243 243.600,178.800 243.716 C 178.259 243.857,178.000 244.262,178.000 244.963 C 178.000 245.618,177.779 246.000,177.400 246.000 C 177.067 246.000,176.800 246.356,176.800 246.800 C 176.800 247.244,176.533 247.600,176.200 247.600 C 175.800 247.600,175.600 248.000,175.600 248.800 C 175.600 249.733,175.422 250.000,174.800 250.000 C 174.267 250.000,174.000 250.267,174.000 250.800 C 174.000 251.244,173.733 251.600,173.400 251.600 C 173.070 251.600,172.800 251.848,172.800 252.151 C 172.800 252.454,172.530 252.926,172.200 253.200 C 171.870 253.474,171.600 254.126,171.600 254.649 C 171.600 255.333,171.376 255.600,170.800 255.600 C 170.360 255.600,170.000 255.851,170.000 256.157 C 170.000 256.464,169.730 256.818,169.400 256.945 C 169.049 257.079,168.800 257.679,168.800 258.387 C 168.800 259.199,168.601 259.600,168.200 259.600 C 167.870 259.600,167.600 259.870,167.600 260.200 C 167.600 260.533,167.244 260.800,166.800 260.800 C 166.152 260.800,166.000 261.067,166.000 262.200 C 166.000 263.178,165.819 263.600,165.400 263.600 C 165.070 263.600,164.800 263.870,164.800 264.200 C 164.800 264.530,164.530 264.800,164.200 264.800 C 163.870 264.800,163.600 265.027,163.600 265.304 C 163.600 265.581,163.240 266.032,162.800 266.307 C 162.348 266.590,162.000 267.240,162.000 267.803 C 162.000 268.423,161.773 268.800,161.400 268.800 C 161.070 268.800,160.800 269.070,160.800 269.400 C 160.800 269.730,160.530 270.000,160.200 270.000 C 159.781 270.000,159.600 270.422,159.600 271.400 C 159.600 272.533,159.448 272.800,158.800 272.800 C 158.356 272.800,158.000 273.067,158.000 273.400 C 158.000 273.730,157.730 274.000,157.400 274.000 C 157.070 274.000,156.800 274.341,156.800 274.757 C 156.800 275.174,156.530 275.618,156.200 275.745 C 155.870 275.871,155.600 276.431,155.600 276.987 C 155.600 277.733,155.389 278.000,154.800 278.000 C 154.267 278.000,154.000 278.267,154.000 278.800 C 154.000 279.244,153.733 279.600,153.400 279.600 C 153.000 279.600,152.800 280.000,152.800 280.800 C 152.800 281.600,152.600 282.000,152.200 282.000 C 151.867 282.000,151.600 282.356,151.600 282.800 C 151.600 283.333,151.333 283.600,150.800 283.600 C 150.339 283.600,150.000 283.867,150.000 284.229 C 150.000 284.574,149.730 285.127,149.400 285.457 C 149.070 285.787,148.800 286.404,148.800 286.829 C 148.800 287.253,148.530 287.600,148.200 287.600 C 147.870 287.600,147.600 287.849,147.600 288.153 C 147.600 288.458,147.240 288.801,146.800 288.916 C 146.217 289.068,146.000 289.462,146.000 290.363 C 146.000 291.196,145.804 291.600,145.400 291.600 C 145.070 291.600,144.800 291.870,144.800 292.200 C 144.800 292.530,144.530 292.800,144.200 292.800 C 143.870 292.800,143.600 293.030,143.600 293.311 C 143.600 293.592,143.240 294.130,142.800 294.507 C 142.360 294.884,142.000 295.554,142.000 295.996 C 142.000 296.444,141.734 296.800,141.400 296.800 C 141.070 296.800,140.800 297.051,140.800 297.357 C 140.800 297.664,140.530 298.018,140.200 298.145 C 139.849 298.279,139.600 298.879,139.600 299.587 C 139.600 300.533,139.424 300.800,138.800 300.800 C 138.356 300.800,138.000 301.067,138.000 301.400 C 138.000 301.730,137.730 302.000,137.400 302.000 C 136.981 302.000,136.800 302.422,136.800 303.400 C 136.800 304.378,136.619 304.800,136.200 304.800 C 135.870 304.800,135.600 305.070,135.600 305.400 C 135.600 305.733,135.244 306.000,134.800 306.000 C 134.284 306.000,134.000 306.267,134.000 306.751 C 134.000 307.164,133.730 307.726,133.400 308.000 C 133.070 308.274,132.800 308.836,132.800 309.249 C 132.800 309.662,132.530 310.000,132.200 310.000 C 131.867 310.000,131.600 310.356,131.600 310.800 C 131.600 311.333,131.333 311.600,130.800 311.600 C 130.360 311.600,130.000 311.851,130.000 312.157 C 130.000 312.464,129.728 312.819,129.396 312.946 C 128.867 313.149,128.805 315.685,128.896 333.489 L 129.000 353.800 162.900 353.902 L 196.800 354.005 196.800 372.002 L 196.800 390.000 214.000 390.000 L 231.200 390.000 231.200 372.000 L 231.200 354.000 241.177 354.000 C 251.034 354.000,251.162 353.989,251.777 353.111 C 252.701 351.792,252.723 320.800,251.800 320.800 C 251.470 320.800,251.200 320.530,251.200 320.200 C 251.200 319.683,249.822 319.600,241.200 319.600 L 231.200 319.600 231.200 269.600 C 231.200 227.129,231.116 219.600,230.643 219.600 C 230.336 219.600,229.982 219.330,229.855 219.000 C 229.656 218.480,227.459 218.400,213.455 218.400 C 199.451 218.400,197.255 218.480,197.055 219.000 M195.600 295.400 L 195.600 319.600 178.700 319.554 C 169.405 319.528,162.115 319.425,162.500 319.324 C 162.885 319.224,163.200 318.906,163.200 318.617 C 163.200 318.329,163.560 317.999,164.000 317.884 C 164.440 317.769,164.800 317.388,164.800 317.037 C 164.800 316.687,165.070 316.400,165.400 316.400 C 165.800 316.400,166.000 316.000,166.000 315.200 C 166.000 314.400,166.200 314.000,166.600 314.000 C 166.930 314.000,167.200 313.773,167.200 313.496 C 167.200 313.219,167.560 312.768,168.000 312.493 C 168.452 312.210,168.800 311.560,168.800 310.997 C 168.800 310.377,169.027 310.000,169.400 310.000 C 169.730 310.000,170.000 309.724,170.000 309.387 C 170.000 309.051,170.270 308.671,170.600 308.545 C 170.942 308.413,171.200 307.817,171.200 307.157 C 171.200 306.267,171.384 306.000,172.000 306.000 C 172.452 306.000,172.800 305.733,172.800 305.387 C 172.800 305.051,173.070 304.671,173.400 304.545 C 173.730 304.418,174.000 303.974,174.000 303.557 C 174.000 303.141,174.168 302.800,174.373 302.800 C 174.578 302.800,174.874 302.395,175.030 301.900 C 175.187 301.405,175.649 300.765,176.057 300.477 C 176.466 300.190,176.800 299.515,176.800 298.977 C 176.800 298.375,177.030 298.000,177.400 298.000 C 177.730 298.000,178.000 297.730,178.000 297.400 C 178.000 297.070,178.184 296.800,178.410 296.800 C 178.635 296.800,178.991 296.350,179.200 295.800 C 179.409 295.250,179.761 294.800,179.982 294.800 C 180.204 294.800,180.494 294.363,180.628 293.829 C 180.763 293.295,181.126 292.761,181.436 292.641 C 181.746 292.522,182.000 292.149,182.000 291.813 C 182.000 291.476,182.270 291.200,182.600 291.200 C 183.000 291.200,183.200 290.800,183.200 290.000 C 183.200 289.169,183.396 288.800,183.837 288.800 C 184.188 288.800,184.569 288.440,184.684 288.000 C 184.799 287.560,185.142 287.200,185.447 287.200 C 185.795 287.200,186.000 286.755,186.000 286.000 C 186.000 285.200,186.200 284.800,186.600 284.800 C 186.933 284.800,187.200 284.444,187.200 284.000 C 187.200 283.467,187.467 283.200,188.000 283.200 C 188.622 283.200,188.800 282.933,188.800 282.000 C 188.800 281.200,189.000 280.800,189.400 280.800 C 189.733 280.800,190.000 280.444,190.000 280.000 C 190.000 279.556,190.267 279.200,190.600 279.200 C 190.995 279.200,191.200 278.805,191.200 278.047 C 191.200 277.230,191.433 276.832,192.000 276.684 C 192.440 276.569,192.800 276.188,192.800 275.837 C 192.800 275.487,193.070 275.200,193.400 275.200 C 193.800 275.200,194.000 274.800,194.000 274.000 C 194.000 273.200,194.200 272.800,194.600 272.800 C 194.933 272.800,195.200 272.444,195.200 272.000 C 195.200 271.560,195.290 271.200,195.400 271.200 C 195.510 271.200,195.600 282.090,195.600 295.400 M282.583 311.972 C 282.709 312.177,282.630 312.458,282.407 312.596 C 282.135 312.764,282.032 325.203,282.096 350.124 L 282.192 387.400 282.396 350.200 C 282.508 329.740,282.754 312.685,282.943 312.300 C 283.169 311.838,283.127 311.600,282.819 311.600 C 282.563 311.600,282.456 311.768,282.583 311.972 " stroke="none" fill="#040404" fill-rule="evenodd"></path><path id="path2" d="M12.215 10.100 C 12.368 10.815,12.539 11.451,12.594 11.514 C 12.649 11.576,98.083 11.656,202.447 11.691 L 392.200 11.754 392.412 28.377 L 392.624 45.000 392.688 27.743 C 392.723 18.251,392.628 10.361,392.476 10.210 C 392.324 10.058,392.200 9.723,392.200 9.467 C 392.200 8.804,14.941 8.585,14.143 9.247 C 13.743 9.579,13.600 9.580,13.600 9.249 C 13.600 9.002,13.226 8.800,12.768 8.800 C 12.039 8.800,11.971 8.961,12.215 10.100 M392.588 93.000 C 392.588 106.420,392.638 111.852,392.700 105.071 C 392.761 98.290,392.761 87.310,392.700 80.671 C 392.638 74.032,392.588 79.580,392.588 93.000 M88.400 90.006 C 88.400 90.230,88.928 90.373,89.572 90.323 C 90.217 90.274,90.656 90.091,90.549 89.917 C 90.262 89.452,88.400 89.530,88.400 90.006 M90.270 101.275 C 90.309 106.994,90.433 111.766,90.545 111.878 C 90.875 112.208,90.831 91.846,90.500 91.338 C 90.335 91.084,90.232 95.555,90.270 101.275 M392.588 187.000 C 392.588 199.980,392.638 205.232,392.700 198.671 C 392.762 192.111,392.761 181.491,392.700 175.071 C 392.638 168.652,392.587 174.020,392.588 187.000 M90.293 189.200 C 89.768 189.813,89.737 190.000,90.157 190.000 C 90.459 190.000,90.801 189.640,90.916 189.200 C 91.031 188.760,91.092 188.400,91.051 188.400 C 91.011 188.400,90.670 188.760,90.293 189.200 M392.588 280.200 C 392.588 293.180,392.638 298.432,392.700 291.871 C 392.762 285.311,392.761 274.691,392.700 268.271 C 392.638 261.852,392.587 267.220,392.588 280.200 M283.400 313.200 C 283.237 313.464,288.329 313.600,298.376 313.600 C 308.259 313.600,313.600 313.740,313.600 314.000 C 313.600 314.260,308.311 314.400,298.533 314.400 C 290.247 314.400,283.565 314.498,283.685 314.619 C 284.074 315.007,314.159 314.801,314.552 314.408 C 314.784 314.176,314.732 313.800,314.414 313.417 C 313.797 312.674,283.855 312.465,283.400 313.200 M282.652 315.082 C 282.124 315.609,282.378 387.923,282.908 388.138 C 283.290 388.292,283.291 388.344,282.913 388.368 C 282.644 388.386,282.528 388.669,282.654 388.998 C 283.444 391.056,283.585 385.559,283.596 352.207 C 283.607 318.543,283.497 314.236,282.652 315.082 M392.588 351.800 C 392.588 364.780,392.638 370.032,392.700 363.471 C 392.762 356.911,392.761 346.291,392.700 339.871 C 392.638 333.452,392.587 338.820,392.588 351.800 " stroke="none" fill="#047404" fill-rule="evenodd"></path><path id="path3" d="M10.197 9.700 C 10.078 10.195,10.029 50.920,10.090 100.200 L 10.200 189.800 11.265 189.840 C 12.802 189.897,12.710 195.502,12.719 100.712 C 12.724 52.767,12.834 13.432,12.965 13.302 C 13.095 13.172,12.927 12.761,12.591 12.390 C 12.255 12.019,11.955 11.059,11.925 10.257 C 11.861 8.555,10.575 8.140,10.197 9.700 M88.522 87.058 C 87.825 88.875,82.959 88.800,201.800 88.800 C 320.641 88.800,315.775 88.875,315.078 87.058 C 314.688 86.042,88.912 86.042,88.522 87.058 M314.239 89.842 C 314.104 90.195,313.993 140.100,313.994 200.742 C 313.995 288.477,313.893 310.959,313.497 310.800 C 312.532 310.412,284.000 310.431,284.000 310.820 C 284.000 311.029,284.000 311.315,284.000 311.457 C 284.001 312.308,314.209 311.549,314.891 310.680 C 315.847 309.463,315.998 89.200,315.043 89.200 C 314.736 89.200,314.375 89.489,314.239 89.842 M90.970 101.400 C 90.971 106.240,91.029 108.165,91.099 105.678 C 91.169 103.191,91.169 99.231,91.098 96.878 C 91.028 94.525,90.970 96.560,90.970 101.400 M392.158 104.600 C 392.158 107.680,392.221 108.887,392.297 107.282 C 392.373 105.678,392.373 103.158,392.296 101.682 C 392.219 100.207,392.157 101.520,392.158 104.600 M89.100 111.919 C 87.931 112.152,88.028 177.713,89.200 179.800 C 89.640 180.583,90.003 181.534,90.006 181.912 C 90.011 182.485,90.073 182.503,90.380 182.019 C 90.582 181.700,90.666 181.307,90.567 181.147 C 90.468 180.986,90.570 180.742,90.793 180.604 C 91.064 180.437,91.200 168.858,91.200 146.062 C 91.200 108.498,91.382 111.465,89.100 111.919 M392.101 114.200 C 392.105 115.080,392.187 115.393,392.283 114.895 C 392.379 114.398,392.375 113.678,392.275 113.295 C 392.175 112.913,392.096 113.320,392.101 114.200 M90.000 184.376 C 90.000 184.803,90.180 185.264,90.400 185.400 C 90.627 185.540,90.800 185.204,90.800 184.624 C 90.800 184.061,90.620 183.600,90.400 183.600 C 90.180 183.600,90.000 183.949,90.000 184.376 M54.100 189.087 C 54.705 189.178,55.695 189.178,56.300 189.087 C 56.905 188.995,56.410 188.920,55.200 188.920 C 53.990 188.920,53.495 188.995,54.100 189.087 M59.300 189.076 C 59.685 189.176,60.315 189.176,60.700 189.076 C 61.085 188.975,60.770 188.893,60.000 188.893 C 59.230 188.893,58.915 188.975,59.300 189.076 M63.213 189.216 C 63.924 189.666,65.084 189.712,65.336 189.300 C 65.437 189.135,64.868 188.965,64.072 188.922 C 63.047 188.867,62.797 188.953,63.213 189.216 M40.520 189.898 C 42.455 189.972,45.515 189.971,47.320 189.897 C 49.124 189.823,47.540 189.763,43.800 189.764 C 40.060 189.764,38.584 189.825,40.520 189.898 M392.577 221.800 C 392.577 228.180,392.632 230.734,392.699 227.476 C 392.767 224.217,392.766 218.997,392.699 215.876 C 392.631 212.754,392.576 215.420,392.577 221.800 M392.550 382.200 C 392.551 384.620,392.616 385.558,392.696 384.285 C 392.776 383.012,392.775 381.032,392.694 379.885 C 392.614 378.738,392.549 379.780,392.550 382.200 " stroke="none" fill="#048c04" fill-rule="evenodd"></path><path id="path4" d="M392.157 9.388 C 392.302 10.375,392.800 10.590,392.800 9.667 C 392.800 9.190,392.636 8.800,392.435 8.800 C 392.235 8.800,392.110 9.065,392.157 9.388 M392.577 152.000 C 392.577 158.490,392.632 161.145,392.699 157.900 C 392.766 154.655,392.766 149.345,392.699 146.100 C 392.632 142.855,392.577 145.510,392.577 152.000 M392.577 245.000 C 392.577 251.600,392.632 254.356,392.699 251.125 C 392.766 247.893,392.766 242.493,392.699 239.125 C 392.632 235.756,392.577 238.400,392.577 245.000 M392.578 316.400 C 392.578 323.110,392.632 325.855,392.699 322.500 C 392.766 319.145,392.766 313.655,392.699 310.300 C 392.632 306.945,392.578 309.690,392.578 316.400 M283.200 312.024 C 283.200 312.257,283.065 312.364,282.900 312.262 C 282.735 312.161,282.553 312.750,282.495 313.572 C 282.417 314.685,282.545 315.067,282.995 315.067 C 283.328 315.067,283.600 314.917,283.600 314.733 C 283.600 314.550,290.350 314.400,298.600 314.400 C 308.333 314.400,313.600 314.260,313.600 314.000 C 313.600 313.740,308.285 313.600,298.455 313.600 L 283.311 313.600 283.502 312.600 C 283.607 312.050,283.582 311.600,283.447 311.600 C 283.311 311.600,283.200 311.791,283.200 312.024 " stroke="none" fill="#046404" fill-rule="evenodd"></path></g></svg>