<?xml version="1.0" encoding="UTF-8" ?>
<!DOCTYPE svg PUBLIC "-//W3C//DTD SVG 1.1//EN" "http://www.w3.org/Graphics/SVG/1.1/DTD/svg11.dtd">
<svg width="438pt" height="439pt" viewBox="0 0 438 439" version="1.1" xmlns="http://www.w3.org/2000/svg">
<g id="#f8f8f8ff">
</g>
<g id="#0e1726ff">
</g>
<g id="#ffffffff">
<path fill="#ffffff" opacity="1.00" d=" M 53.29 38.44 C 118.85 38.19 184.43 38.40 250.00 38.33 C 258.68 38.42 267.38 38.04 276.04 38.76 C 309.04 38.82 342.03 38.73 375.02 38.80 C 392.89 39.17 408.60 55.11 408.67 72.99 C 408.71 168.67 408.70 264.36 408.71 360.04 C 408.51 379.22 391.18 396.06 372.07 396.13 C 267.71 396.13 163.34 396.13 58.98 396.13 C 45.91 396.02 33.33 388.32 26.96 376.96 C 23.06 370.37 21.76 362.63 21.88 355.06 C 21.50 261.04 21.78 167.02 21.69 73.00 C 21.65 55.73 36.14 40.04 53.29 38.44 M 41.64 55.32 C 37.40 59.36 33.85 64.67 33.43 70.64 C 33.16 72.72 33.06 74.83 33.07 76.93 C 33.14 99.60 33.02 122.26 32.99 144.92 C 33.05 147.76 32.60 150.69 33.24 153.48 C 32.94 181.41 33.09 209.36 33.11 237.30 C 33.13 255.30 32.86 273.33 33.28 291.33 C 33.05 303.99 33.10 316.69 33.46 329.35 C 33.06 334.89 33.45 340.46 33.34 346.02 C 33.26 350.06 34.41 354.66 37.98 357.01 C 41.57 359.18 46.14 357.68 49.23 355.30 C 52.49 352.46 55.40 349.25 58.53 346.26 C 66.60 338.34 74.64 330.37 82.69 322.42 C 87.57 317.58 92.52 312.82 97.33 307.91 C 124.69 307.70 152.05 308.09 179.40 307.70 C 205.26 308.08 231.14 307.73 257.01 307.84 C 261.45 307.79 265.89 308.01 270.32 307.61 C 281.17 306.84 290.79 297.16 291.56 286.33 C 292.00 282.89 291.86 279.43 291.86 275.98 C 291.84 257.97 291.85 239.95 291.83 221.94 C 291.76 221.58 291.63 220.86 291.56 220.49 C 292.15 215.36 291.75 210.19 291.86 205.04 C 291.77 184.82 292.00 164.60 291.72 144.39 C 292.03 124.91 291.75 105.43 291.83 85.95 C 291.71 80.55 292.18 75.13 291.44 69.77 C 290.29 62.39 285.31 55.76 278.69 52.36 C 271.63 48.58 263.29 49.56 255.62 49.92 C 249.44 49.36 243.23 49.78 237.04 49.65 C 225.23 49.85 213.37 49.26 201.60 49.92 C 195.76 49.36 189.88 49.77 184.02 49.65 C 173.21 49.85 162.33 49.26 151.56 49.93 C 145.73 49.36 139.87 49.77 134.03 49.65 C 122.57 49.84 111.05 49.27 99.63 49.92 C 85.77 49.30 71.87 49.83 57.99 49.63 C 52.03 49.37 46.29 51.71 41.64 55.32 M 294.01 49.65 C 299.70 56.45 303.47 65.03 303.36 74.01 C 303.37 162.65 303.35 251.29 303.37 339.93 C 303.62 351.85 295.78 363.32 284.64 367.50 C 280.03 369.42 274.96 369.63 270.03 369.51 C 194.00 369.48 117.97 369.51 41.93 369.50 C 39.51 369.51 37.17 368.86 34.83 368.32 C 38.72 378.43 49.17 385.49 60.00 385.39 C 161.33 385.40 262.66 385.39 363.99 385.39 C 369.33 385.39 374.87 385.75 379.96 383.80 C 391.38 379.95 398.90 367.97 398.15 356.04 C 398.03 262.04 397.79 168.05 397.83 74.04 C 398.17 61.25 386.87 49.53 374.03 49.65 C 347.36 49.64 320.68 49.64 294.01 49.65 M 97.42 319.47 C 97.42 332.20 97.45 344.93 97.41 357.66 C 100.70 357.71 103.99 357.72 107.28 357.53 C 106.99 344.82 107.48 332.11 107.03 319.41 C 103.83 319.48 100.62 319.49 97.42 319.47 M 113.95 333.03 C 115.75 340.22 124.06 341.17 129.44 344.55 C 132.33 346.62 128.95 351.26 125.93 350.21 C 123.50 349.71 123.07 347.09 122.49 345.11 C 119.32 345.13 116.15 345.13 112.99 345.17 C 113.20 348.33 113.61 351.72 115.83 354.17 C 119.86 358.77 126.87 359.12 132.42 357.63 C 139.49 355.80 142.46 346.20 138.47 340.38 C 134.81 335.50 128.22 334.81 123.64 331.19 C 122.19 328.60 125.69 325.86 128.04 327.11 C 129.60 327.58 129.81 329.38 130.52 330.62 C 133.67 330.61 136.81 330.62 139.96 330.62 C 140.15 323.67 133.68 318.32 126.95 318.74 C 119.54 318.40 111.75 325.22 113.95 333.03 M 193.82 319.59 C 189.02 332.36 183.63 344.91 178.90 357.71 C 182.40 357.70 185.90 357.69 189.40 357.66 C 189.96 355.85 190.52 354.04 191.07 352.23 C 195.57 352.18 200.08 352.17 204.59 352.24 C 205.16 354.05 205.75 355.87 206.34 357.69 C 209.89 357.68 213.44 357.69 216.99 357.67 C 212.11 344.93 207.21 332.20 202.31 319.47 C 199.48 319.45 196.65 319.46 193.82 319.59 M 221.21 319.44 C 221.12 332.19 221.18 344.94 221.15 357.69 C 228.34 357.68 235.53 357.69 242.72 357.68 C 242.71 354.85 242.71 352.03 242.73 349.20 C 238.76 349.18 234.80 349.18 230.83 349.18 C 230.82 346.97 230.81 344.76 230.81 342.56 C 234.68 342.56 238.56 342.59 242.43 342.49 C 242.39 339.68 242.37 336.87 242.33 334.07 C 238.49 334.13 234.65 334.16 230.81 333.95 C 230.81 331.99 230.82 330.03 230.83 328.08 C 234.77 328.09 238.71 328.08 242.66 328.10 C 242.71 325.21 242.72 322.33 242.68 319.46 C 235.52 319.49 228.36 319.51 221.21 319.44 M 146.13 319.57 C 146.23 332.22 146.30 344.88 146.11 357.54 C 149.38 357.74 152.66 357.72 155.94 357.58 C 155.72 347.75 156.13 337.93 155.86 328.09 C 158.24 328.18 160.77 327.79 163.02 328.76 C 166.65 330.43 166.74 336.24 163.50 338.33 C 161.28 339.37 158.75 339.23 156.37 339.45 C 159.53 345.58 162.87 351.62 166.16 357.68 C 169.47 357.68 172.78 357.68 176.10 357.68 C 173.62 353.01 171.00 348.42 168.32 343.86 C 177.25 339.90 177.50 325.51 168.81 321.23 C 161.64 318.34 153.66 319.79 146.13 319.57 M 249.82 319.51 C 249.91 332.24 249.66 344.98 249.94 357.71 C 256.91 357.67 263.88 357.66 270.85 357.72 C 270.89 354.87 270.90 352.03 270.89 349.18 C 267.14 349.19 263.39 349.19 259.64 349.19 C 259.53 339.27 259.70 329.35 259.54 319.43 C 256.30 319.48 253.06 319.48 249.82 319.51 Z" />
<path fill="#ffffff" opacity="1.00" d=" M 331.85 80.86 C 334.98 75.75 341.16 73.46 346.94 73.48 C 354.41 73.46 361.89 73.37 369.37 73.55 C 369.35 75.16 369.34 76.78 369.33 78.40 C 361.27 78.71 353.19 78.22 345.14 78.65 C 339.85 78.91 335.03 82.82 333.86 88.01 C 332.05 94.66 337.27 102.41 344.32 102.53 C 352.65 102.82 360.98 102.56 369.31 102.65 C 369.31 104.46 369.31 106.27 369.31 108.08 C 356.15 108.02 342.99 108.27 329.85 107.95 C 329.87 106.30 329.89 104.65 329.93 103.01 C 331.56 102.94 333.19 102.89 334.82 102.84 C 328.12 97.70 327.23 87.67 331.85 80.86 Z" />
<path fill="#ffffff" opacity="1.00" d=" M 110.50 124.14 C 119.47 115.18 132.70 110.95 145.22 112.10 C 158.56 113.49 171.21 121.56 177.34 133.60 C 177.91 134.91 178.84 136.27 178.61 137.78 C 171.21 137.47 163.80 137.70 156.40 137.59 C 150.52 129.03 138.21 127.03 129.48 132.26 C 124.20 135.82 119.91 141.38 119.38 147.89 C 118.56 156.24 120.89 165.81 128.06 170.88 C 135.21 175.77 145.51 176.89 152.88 171.84 C 156.04 169.77 157.70 166.25 159.08 162.87 C 151.34 162.67 143.60 162.78 135.86 162.80 C 135.77 157.44 135.73 152.08 135.78 146.73 C 150.09 147.02 164.42 146.88 178.73 146.79 L 179.03 145.60 C 181.18 131.38 191.64 118.92 205.25 114.31 C 215.61 110.66 227.36 111.15 237.34 115.74 C 246.30 119.83 253.68 127.34 257.47 136.44 C 261.25 145.34 261.56 155.56 258.69 164.77 C 256.30 172.13 251.73 178.76 245.69 183.61 C 236.17 191.32 223.20 194.08 211.24 191.83 C 196.88 189.36 184.67 178.42 180.36 164.53 C 178.33 168.64 176.57 172.95 173.71 176.58 C 168.15 184.00 159.87 189.20 150.90 191.40 C 135.64 195.21 118.34 189.98 108.44 177.59 C 101.04 168.70 97.98 156.50 99.93 145.13 C 101.42 137.34 104.93 129.85 110.50 124.14 M 212.37 130.67 C 205.71 133.07 200.70 139.12 199.12 145.96 C 196.71 155.72 200.42 167.42 209.53 172.44 C 217.08 176.80 227.41 175.79 233.66 169.58 C 243.34 160.62 243.08 143.44 233.31 134.65 C 227.78 129.55 219.38 128.02 212.37 130.67 Z" />
<path fill="#ffffff" opacity="1.00" d=" M 64.84 121.69 C 67.50 114.16 76.92 109.96 84.07 113.98 C 91.74 117.65 93.62 128.52 88.15 134.87 C 83.79 139.65 76.08 141.06 70.60 137.38 C 65.34 134.22 63.20 127.49 64.84 121.69 M 75.28 120.41 C 70.78 122.16 70.48 129.16 74.80 131.31 C 78.58 133.77 84.10 130.46 83.91 126.02 C 84.16 121.77 79.08 118.36 75.28 120.41 Z" />
<path fill="#ffffff" opacity="1.00" d=" M 338.33 119.31 C 342.15 116.60 346.90 116.09 351.44 115.90 C 351.52 127.86 351.44 139.82 351.48 151.78 C 358.66 151.09 364.94 145.13 365.62 137.89 C 366.32 131.40 362.15 125.22 356.42 122.46 C 356.41 120.65 356.41 118.84 356.43 117.02 C 362.31 119.24 367.22 124.02 369.18 130.04 C 371.89 137.49 369.46 146.35 363.56 151.58 C 357.27 157.51 347.13 158.58 339.62 154.40 C 333.90 151.36 329.83 145.44 329.11 138.99 C 328.06 131.38 331.87 123.42 338.33 119.31 M 333.54 136.02 C 333.16 143.70 339.53 150.35 346.91 151.52 C 346.88 141.46 346.81 131.40 346.95 121.34 C 339.93 122.62 333.55 128.59 333.54 136.02 Z" />
<path fill="#ffffff" opacity="1.00" d=" M 68.35 142.66 C 68.42 142.54 68.55 142.30 68.62 142.18 C 74.46 145.20 81.39 145.11 87.24 142.16 C 87.19 158.39 87.23 174.61 87.19 190.84 C 80.98 190.93 74.76 190.61 68.56 191.09 C 68.26 174.95 68.63 158.80 68.35 142.66 Z" />
<path fill="#ffffff" opacity="1.00" d=" M 329.86 164.84 C 341.58 164.77 353.30 164.83 365.01 164.80 C 368.68 164.83 372.56 165.17 375.67 167.31 C 384.16 172.73 387.03 184.78 382.72 193.71 C 380.39 198.80 375.83 202.95 370.29 204.14 C 370.30 202.49 370.31 200.84 370.33 199.19 C 373.48 197.23 376.90 195.15 378.52 191.64 C 381.63 185.58 380.49 177.31 375.04 172.97 C 371.56 170.01 366.76 169.64 362.40 169.87 C 365.33 172.25 368.12 175.06 369.21 178.78 C 372.34 187.47 368.43 197.85 360.58 202.60 C 353.60 207.12 343.96 206.60 337.33 201.66 C 330.85 197.13 327.50 188.56 329.49 180.86 C 330.35 176.36 333.39 172.75 336.74 169.80 C 334.43 169.84 332.12 169.83 329.81 169.79 C 329.83 168.14 329.84 166.49 329.86 164.84 M 346.22 170.21 C 338.30 171.70 332.21 179.90 333.73 187.95 C 334.93 195.96 343.22 201.69 351.14 200.56 C 359.03 200.06 366.08 193.02 365.67 184.95 C 365.73 175.31 355.34 168.04 346.22 170.21 Z" />
<path fill="#ffffff" opacity="1.00" d=" M 329.30 209.16 C 332.35 209.13 335.41 209.14 338.47 209.19 C 338.42 211.04 338.38 212.91 338.34 214.77 C 348.66 214.92 358.98 214.78 369.30 214.84 C 369.33 218.85 369.41 222.87 369.19 226.88 C 358.91 226.85 348.62 226.62 338.34 227.00 C 338.38 228.88 338.41 230.76 338.46 232.65 C 335.43 232.67 332.40 232.67 329.38 232.67 C 329.36 230.77 329.46 228.87 329.18 226.99 C 324.82 226.57 320.43 226.91 316.06 226.83 C 315.89 222.83 316.04 218.84 316.11 214.84 C 320.54 214.81 324.98 214.89 329.41 214.75 C 329.37 212.88 329.33 211.02 329.30 209.16 Z" />
<path fill="#ffffff" opacity="1.00" d=" M 140.86 212.42 C 144.29 212.33 147.73 212.33 151.16 212.41 C 151.13 214.89 151.11 217.38 151.05 219.88 C 147.66 219.90 144.28 219.90 140.89 219.85 C 140.88 217.37 140.87 214.89 140.86 212.42 Z" />
<path fill="#ffffff" opacity="1.00" d=" M 80.22 226.88 C 85.47 221.05 95.17 220.98 101.04 225.88 C 108.26 232.17 109.24 243.91 103.94 251.72 C 98.71 258.94 87.38 260.62 80.76 254.33 C 80.85 259.00 80.83 263.66 80.76 268.33 C 77.45 268.27 74.14 268.35 70.83 268.32 L 70.67 268.19 C 70.78 253.33 70.77 238.48 70.67 223.62 C 73.91 223.54 77.15 223.57 80.39 223.47 C 80.31 224.60 80.26 225.74 80.22 226.88 M 85.38 232.47 C 79.93 234.72 78.66 242.94 83.29 246.68 C 87.71 251.05 96.18 248.24 97.04 242.05 C 98.75 235.64 91.36 229.51 85.38 232.47 Z" />
<path fill="#ffffff" opacity="1.00" d=" M 125.39 226.19 C 127.71 223.99 130.57 222.52 133.76 222.08 C 133.84 225.48 133.97 228.89 133.67 232.29 C 131.74 232.73 129.62 232.81 127.90 233.89 C 125.90 235.25 126.00 237.93 125.88 240.08 C 125.82 245.75 125.93 251.42 125.87 257.09 C 122.62 257.10 119.34 257.34 116.10 256.94 C 115.50 245.86 116.07 234.73 115.80 223.63 C 119.03 223.54 122.27 223.51 125.50 223.51 C 125.47 224.18 125.42 225.52 125.39 226.19 Z" />
<path fill="#ffffff" opacity="1.00" d=" M 170.54 226.73 C 173.49 223.04 178.17 221.89 182.71 222.44 C 185.48 223.53 187.75 225.51 189.48 227.91 C 192.18 224.94 195.67 222.18 199.93 222.40 C 205.73 222.02 210.86 226.24 212.46 231.68 C 212.60 240.10 212.47 248.52 212.58 256.95 C 209.22 257.13 205.85 257.16 202.48 257.14 C 202.32 250.22 202.72 243.28 202.30 236.37 C 202.28 233.30 198.98 230.96 196.08 231.98 C 193.81 232.50 192.15 234.61 192.20 236.94 C 191.87 243.66 192.26 250.40 192.00 257.12 C 188.66 257.12 185.32 257.12 181.98 257.12 C 181.57 249.86 182.43 242.54 181.50 235.33 C 180.44 230.66 173.71 230.81 171.69 234.69 C 170.71 242.13 171.42 249.66 171.20 257.14 C 167.85 257.14 164.50 257.24 161.15 257.04 C 161.09 245.89 161.20 234.73 161.09 223.58 C 164.29 223.55 167.48 223.53 170.67 223.54 C 170.64 224.33 170.57 225.93 170.54 226.73 Z" />
<path fill="#ffffff" opacity="1.00" d=" M 227.31 226.27 C 232.11 222.27 238.73 221.97 244.65 222.75 C 247.48 224.35 250.58 225.71 252.66 228.31 C 256.33 232.43 257.68 238.19 256.96 243.59 C 255.90 247.99 253.66 252.26 249.90 254.92 C 242.26 260.38 230.30 259.14 224.53 251.51 C 221.32 247.53 220.70 242.25 220.74 237.32 C 222.26 233.30 223.76 228.97 227.31 226.27 M 235.42 232.68 C 229.35 235.59 229.62 245.66 235.85 248.20 C 240.80 250.51 247.10 246.46 246.91 240.98 C 247.91 234.99 240.85 229.48 235.42 232.68 Z" />
<path fill="#ffffff" opacity="1.00" d=" M 140.91 223.51 C 144.36 223.57 147.81 223.48 151.26 223.52 C 150.96 234.71 151.24 245.92 151.08 257.12 C 147.70 257.14 144.33 257.14 140.95 257.13 C 140.81 245.92 140.85 234.72 140.91 223.51 Z" />
<path fill="#ffffff" opacity="1.00" d=" M 347.91 246.57 C 355.02 241.40 362.08 236.16 369.30 231.16 C 369.33 236.04 369.36 240.92 369.26 245.80 C 365.13 248.36 361.01 250.95 357.01 253.72 C 361.11 256.44 365.22 259.15 369.31 261.88 C 369.31 266.58 369.33 271.28 369.32 275.98 C 362.00 271.30 355.08 266.02 347.97 261.04 C 341.65 265.29 335.78 270.18 329.32 274.20 C 329.34 269.53 329.38 264.87 329.31 260.21 C 332.73 257.97 336.23 255.87 339.72 253.76 C 336.34 251.41 332.73 249.45 329.29 247.20 C 329.38 242.54 329.30 237.88 329.36 233.22 C 335.62 237.57 341.72 242.13 347.91 246.57 Z" />
<path fill="#ffffff" opacity="1.00" d=" M 333.94 283.97 C 338.86 278.90 346.25 276.97 353.14 277.74 C 353.09 287.74 353.24 297.74 353.05 307.74 C 357.39 307.34 360.80 303.31 360.59 298.98 C 360.83 295.79 358.70 293.26 356.82 290.96 C 356.75 286.94 356.71 282.92 356.91 278.91 C 361.91 281.25 366.53 284.91 368.84 290.04 C 372.58 297.93 370.39 308.02 363.90 313.81 C 358.13 319.14 349.36 320.81 342.01 318.08 C 335.97 316.00 330.95 311.06 328.98 304.96 C 326.76 297.76 328.47 289.30 333.94 283.97 M 338.60 295.48 C 336.87 300.53 339.78 306.46 345.11 307.62 C 345.17 301.55 345.16 295.47 345.11 289.40 C 342.11 290.24 339.45 292.41 338.60 295.48 Z" />
<path fill="#ffffff" opacity="1.00" d=" M 331.61 329.61 C 334.13 326.58 338.14 325.33 341.98 325.32 C 351.07 325.14 360.15 325.35 369.24 325.22 C 369.36 329.22 369.33 333.23 369.31 337.23 C 362.19 337.26 355.07 337.23 347.95 337.23 C 345.75 337.31 343.32 337.18 341.46 338.56 C 338.37 340.93 338.53 346.14 341.41 348.62 C 343.11 350.40 345.75 350.19 348.01 350.26 C 355.07 350.20 362.12 350.32 369.18 350.17 C 369.41 354.18 369.32 358.20 369.31 362.21 C 356.00 362.25 342.69 362.19 329.38 362.25 C 329.31 358.43 329.31 354.62 329.38 350.80 C 330.31 350.81 332.18 350.83 333.11 350.84 C 326.52 345.92 326.57 335.59 331.61 329.61 Z" />
<path fill="#ffffff" opacity="1.00" d=" M 197.54 331.63 C 199.57 335.66 200.46 340.14 202.02 344.35 C 199.18 344.44 196.34 344.46 193.51 344.43 C 194.92 340.18 196.11 335.87 197.54 331.63 Z" />
</g>
<g id="#007dc6ff">
<path fill="#007dc6" opacity="1.00" d=" M 41.64 55.32 C 46.29 51.71 52.03 49.37 57.99 49.63 C 71.87 49.83 85.77 49.30 99.63 49.92 C 94.95 51.79 89.85 50.78 84.96 51.15 C 87.99 54.74 91.45 57.91 94.75 61.25 C 110.06 76.61 125.46 91.90 140.74 107.29 C 142.13 108.65 143.83 109.61 145.50 110.60 C 145.43 110.98 145.29 111.72 145.22 112.10 C 132.70 110.95 119.47 115.18 110.50 124.14 C 95.90 109.20 81.00 94.55 66.25 79.76 C 58.01 71.65 50.04 63.26 41.64 55.32 Z" />
</g>
<g id="#0088cfff">
<path fill="#0088cf" opacity="1.00" d=" M 99.63 49.92 C 111.05 49.27 122.57 49.84 134.03 49.65 C 139.87 49.77 145.73 49.36 151.56 49.93 C 148.18 51.26 144.52 51.19 140.96 51.18 C 159.67 70.75 179.28 89.42 198.19 108.80 C 200.26 110.97 202.70 112.74 205.25 114.31 C 191.64 118.92 181.18 131.38 179.03 145.60 C 176.17 145.21 173.26 145.08 170.44 144.46 C 168.17 143.32 166.72 141.08 165.04 139.26 C 169.54 138.76 174.47 140.02 178.61 137.78 C 178.84 136.27 177.91 134.91 177.34 133.60 C 171.21 121.56 158.56 113.49 145.22 112.10 C 145.29 111.72 145.43 110.98 145.50 110.60 C 143.83 109.61 142.13 108.65 140.74 107.29 C 125.46 91.90 110.06 76.61 94.75 61.25 C 91.45 57.91 87.99 54.74 84.96 51.15 C 89.85 50.78 94.95 51.79 99.63 49.92 Z" />
</g>
<g id="#0095d9ff">
<path fill="#0095d9" opacity="1.00" d=" M 151.56 49.93 C 162.33 49.26 173.21 49.85 184.02 49.65 C 189.88 49.77 195.76 49.36 201.60 49.92 C 197.73 51.27 193.59 50.99 189.59 51.55 C 210.42 72.33 231.22 93.13 252.04 113.92 C 264.35 126.42 276.78 138.80 289.48 150.90 C 289.92 148.63 290.49 146.37 291.72 144.39 C 292.00 164.60 291.77 184.82 291.86 205.04 C 291.75 210.19 292.15 215.36 291.56 220.49 L 290.86 218.94 C 290.99 209.59 291.21 200.22 290.70 190.88 C 290.30 192.54 289.92 194.20 289.54 195.86 C 279.12 185.64 268.60 175.48 258.69 164.77 C 261.56 155.56 261.25 145.34 257.47 136.44 C 253.68 127.34 246.30 119.83 237.34 115.74 C 227.36 111.15 215.61 110.66 205.25 114.31 C 202.70 112.74 200.26 110.97 198.19 108.80 C 179.28 89.42 159.67 70.75 140.96 51.18 C 144.52 51.19 148.18 51.26 151.56 49.93 Z" />
</g>
<g id="#009fe2ff">
<path fill="#009fe2" opacity="1.00" d=" M 201.60 49.92 C 213.37 49.26 225.23 49.85 237.04 49.65 C 243.23 49.78 249.44 49.36 255.62 49.92 C 252.83 50.81 249.91 51.17 247.00 51.26 C 256.13 61.04 265.87 70.23 275.25 79.77 C 280.12 84.51 284.70 89.56 289.83 94.03 C 292.02 86.10 290.45 77.83 291.44 69.77 C 292.18 75.13 291.71 80.55 291.83 85.95 C 291.75 105.43 292.03 124.91 291.72 144.39 C 290.49 146.37 289.92 148.63 289.48 150.90 C 276.78 138.80 264.35 126.42 252.04 113.92 C 231.22 93.13 210.42 72.33 189.59 51.55 C 193.59 50.99 197.73 51.27 201.60 49.92 Z" />
</g>
<g id="#00a9ebff">
<path fill="#00a9eb" opacity="1.00" d=" M 255.62 49.92 C 263.29 49.56 271.63 48.58 278.69 52.36 C 285.31 55.76 290.29 62.39 291.44 69.77 C 290.45 77.83 292.02 86.10 289.83 94.03 C 284.70 89.56 280.12 84.51 275.25 79.77 C 265.87 70.23 256.13 61.04 247.00 51.26 C 249.91 51.17 252.83 50.81 255.62 49.92 Z" />
</g>
<g id="#f6881fff">
<path fill="#f6881f" opacity="1.00" d=" M 294.01 49.65 C 320.68 49.64 347.36 49.64 374.03 49.65 C 386.87 49.53 398.17 61.25 397.83 74.04 C 397.79 168.05 398.03 262.04 398.15 356.04 C 398.90 367.97 391.38 379.95 379.96 383.80 C 374.87 385.75 369.33 385.39 363.99 385.39 C 262.66 385.39 161.33 385.40 60.00 385.39 C 49.17 385.49 38.72 378.43 34.83 368.32 C 37.17 368.86 39.51 369.51 41.93 369.50 C 117.97 369.51 194.00 369.48 270.03 369.51 C 274.96 369.63 280.03 369.42 284.64 367.50 C 295.78 363.32 303.62 351.85 303.37 339.93 C 303.35 251.29 303.37 162.65 303.36 74.01 C 303.47 65.03 299.70 56.45 294.01 49.65 M 331.85 80.86 C 327.23 87.67 328.12 97.70 334.82 102.84 C 333.19 102.89 331.56 102.94 329.93 103.01 C 329.89 104.65 329.87 106.30 329.85 107.95 C 342.99 108.27 356.15 108.02 369.31 108.08 C 369.31 106.27 369.31 104.46 369.31 102.65 C 360.98 102.56 352.65 102.82 344.32 102.53 C 337.27 102.41 332.05 94.66 333.86 88.01 C 335.03 82.82 339.85 78.91 345.14 78.65 C 353.19 78.22 361.27 78.71 369.33 78.40 C 369.34 76.78 369.35 75.16 369.37 73.55 C 361.89 73.37 354.41 73.46 346.94 73.48 C 341.16 73.46 334.98 75.75 331.85 80.86 M 338.33 119.31 C 331.87 123.42 328.06 131.38 329.11 138.99 C 329.83 145.44 333.90 151.36 339.62 154.40 C 347.13 158.58 357.27 157.51 363.56 151.58 C 369.46 146.35 371.89 137.49 369.18 130.04 C 367.22 124.02 362.31 119.24 356.43 117.02 C 356.41 118.84 356.41 120.65 356.42 122.46 C 362.15 125.22 366.32 131.40 365.62 137.89 C 364.94 145.13 358.66 151.09 351.48 151.78 C 351.44 139.82 351.52 127.86 351.44 115.90 C 346.90 116.09 342.15 116.60 338.33 119.31 M 329.86 164.84 C 329.84 166.49 329.83 168.14 329.81 169.79 C 332.12 169.83 334.43 169.84 336.74 169.80 C 333.39 172.75 330.35 176.36 329.49 180.86 C 327.50 188.56 330.85 197.13 337.33 201.66 C 343.96 206.60 353.60 207.12 360.58 202.60 C 368.43 197.85 372.34 187.47 369.21 178.78 C 368.12 175.06 365.33 172.25 362.40 169.87 C 366.76 169.64 371.56 170.01 375.04 172.97 C 380.49 177.31 381.63 185.58 378.52 191.64 C 376.90 195.15 373.48 197.23 370.33 199.19 C 370.31 200.84 370.30 202.49 370.29 204.14 C 375.83 202.95 380.39 198.80 382.72 193.71 C 387.03 184.78 384.16 172.73 375.67 167.31 C 372.56 165.17 368.68 164.83 365.01 164.80 C 353.30 164.83 341.58 164.77 329.86 164.84 M 329.30 209.16 C 329.33 211.02 329.37 212.88 329.41 214.75 C 324.98 214.89 320.54 214.81 316.11 214.84 C 316.04 218.84 315.89 222.83 316.06 226.83 C 320.43 226.91 324.82 226.57 329.18 226.99 C 329.46 228.87 329.36 230.77 329.38 232.67 C 332.40 232.67 335.43 232.67 338.46 232.65 C 338.41 230.76 338.38 228.88 338.34 227.00 C 348.62 226.62 358.91 226.85 369.19 226.88 C 369.41 222.87 369.33 218.85 369.30 214.84 C 358.98 214.78 348.66 214.92 338.34 214.77 C 338.38 212.91 338.42 211.04 338.47 209.19 C 335.41 209.14 332.35 209.13 329.30 209.16 M 347.91 246.57 C 341.72 242.13 335.62 237.57 329.36 233.22 C 329.30 237.88 329.38 242.54 329.29 247.20 C 332.73 249.45 336.34 251.41 339.72 253.76 C 336.23 255.87 332.73 257.97 329.31 260.21 C 329.38 264.87 329.34 269.53 329.32 274.20 C 335.78 270.18 341.65 265.29 347.97 261.04 C 355.08 266.02 362.00 271.30 369.32 275.98 C 369.33 271.28 369.31 266.58 369.31 261.88 C 365.22 259.15 361.11 256.44 357.01 253.72 C 361.01 250.95 365.13 248.36 369.26 245.80 C 369.36 240.92 369.33 236.04 369.30 231.16 C 362.08 236.16 355.02 241.40 347.91 246.57 M 333.94 283.97 C 328.47 289.30 326.76 297.76 328.98 304.96 C 330.95 311.06 335.97 316.00 342.01 318.08 C 349.36 320.81 358.13 319.14 363.90 313.81 C 370.39 308.02 372.58 297.93 368.84 290.04 C 366.53 284.91 361.91 281.25 356.91 278.91 C 356.71 282.92 356.75 286.94 356.82 290.96 C 358.70 293.26 360.83 295.79 360.59 298.98 C 360.80 303.31 357.39 307.34 353.05 307.74 C 353.24 297.74 353.09 287.74 353.14 277.74 C 346.25 276.97 338.86 278.90 333.94 283.97 M 331.61 329.61 C 326.57 335.59 326.52 345.92 333.11 350.84 C 332.18 350.83 330.31 350.81 329.38 350.80 C 329.31 354.62 329.31 358.43 329.38 362.25 C 342.69 362.19 356.00 362.25 369.31 362.21 C 369.32 358.20 369.41 354.18 369.18 350.17 C 362.12 350.32 355.07 350.20 348.01 350.26 C 345.75 350.19 343.11 350.40 341.41 348.62 C 338.53 346.14 338.37 340.93 341.46 338.56 C 343.32 337.18 345.75 337.31 347.95 337.23 C 355.07 337.23 362.19 337.26 369.31 337.23 C 369.33 333.23 369.36 329.22 369.24 325.22 C 360.15 325.35 351.07 325.14 341.98 325.32 C 338.14 325.33 334.13 326.58 331.61 329.61 Z" />
<path fill="#f6881f" opacity="1.00" d=" M 333.54 136.02 C 333.55 128.59 339.93 122.62 346.95 121.34 C 346.81 131.40 346.88 141.46 346.91 151.52 C 339.53 150.35 333.16 143.70 333.54 136.02 Z" />
<path fill="#f6881f" opacity="1.00" d=" M 346.22 170.21 C 355.34 168.04 365.73 175.31 365.67 184.95 C 366.08 193.02 359.03 200.06 351.14 200.56 C 343.22 201.69 334.93 195.96 333.73 187.95 C 332.21 179.90 338.30 171.70 346.22 170.21 Z" />
<path fill="#f6881f" opacity="1.00" d=" M 338.60 295.48 C 339.45 292.41 342.11 290.24 345.11 289.40 C 345.16 295.47 345.17 301.55 345.11 307.62 C 339.78 306.46 336.87 300.53 338.60 295.48 Z" />
</g>
<g id="#0075beff">
<path fill="#0075be" opacity="1.00" d=" M 33.43 70.64 C 33.85 64.67 37.40 59.36 41.64 55.32 C 50.04 63.26 58.01 71.65 66.25 79.76 C 81.00 94.55 95.90 109.20 110.50 124.14 C 104.93 129.85 101.42 137.34 99.93 145.13 C 94.54 143.94 91.49 138.79 88.15 134.87 C 93.62 128.52 91.74 117.65 84.07 113.98 C 76.92 109.96 67.50 114.16 64.84 121.69 C 63.87 121.92 62.90 122.15 61.93 122.39 C 53.95 114.62 46.25 106.57 38.25 98.82 C 37.26 97.80 36.19 96.81 35.48 95.57 C 34.07 87.31 34.37 78.92 33.43 70.64 Z" />
</g>
<g id="#006bb7ff">
<path fill="#006bb7" opacity="1.00" d=" M 33.07 76.93 C 33.06 74.83 33.16 72.72 33.43 70.64 C 34.37 78.92 34.07 87.31 35.48 95.57 C 36.19 96.81 37.26 97.80 38.25 98.82 C 46.25 106.57 53.95 114.62 61.93 122.39 C 62.90 122.15 63.87 121.92 64.84 121.69 C 63.20 127.49 65.34 134.22 70.60 137.38 C 76.08 141.06 83.79 139.65 88.15 134.87 C 91.49 138.79 94.54 143.94 99.93 145.13 C 97.98 156.50 101.04 168.70 108.44 177.59 C 118.34 189.98 135.64 195.21 150.90 191.40 C 151.38 191.71 152.35 192.32 152.84 192.63 C 151.98 192.93 151.12 193.24 150.26 193.55 C 158.81 202.44 167.93 210.78 176.41 219.74 C 178.38 221.53 181.41 220.79 183.85 221.28 C 183.57 221.57 182.99 222.15 182.71 222.44 C 178.17 221.89 173.49 223.04 170.54 226.73 C 170.57 225.93 170.64 224.33 170.67 223.54 C 167.48 223.53 164.29 223.55 161.09 223.58 C 161.20 234.73 161.09 245.89 161.15 257.04 L 160.24 256.71 C 159.43 248.54 160.38 240.30 159.68 232.13 C 158.40 230.47 156.19 229.81 154.77 228.26 C 153.50 226.75 152.50 225.05 151.26 223.52 C 147.81 223.48 144.36 223.57 140.91 223.51 C 140.70 223.51 140.30 223.50 140.09 223.50 C 140.07 229.36 138.86 235.14 138.70 240.99 C 136.56 239.09 134.48 237.12 132.52 235.05 C 132.92 234.13 133.30 233.21 133.67 232.29 C 133.97 228.89 133.84 225.48 133.76 222.08 C 130.57 222.52 127.71 223.99 125.39 226.19 C 125.42 225.52 125.47 224.18 125.50 223.51 C 125.52 223.14 125.55 222.40 125.56 222.04 C 122.08 221.65 117.64 223.08 115.05 220.04 C 108.21 212.85 101.39 205.58 93.74 199.23 C 91.26 197.05 89.34 194.25 86.56 192.42 C 80.68 190.95 74.40 193.02 68.56 191.09 C 74.76 190.61 80.98 190.93 87.19 190.84 C 87.23 174.61 87.19 158.39 87.24 142.16 C 81.39 145.11 74.46 145.20 68.62 142.18 C 68.55 142.30 68.42 142.54 68.35 142.66 C 66.55 145.08 67.06 148.21 66.97 151.03 C 66.94 158.67 67.00 166.32 66.76 173.96 C 56.81 164.67 47.50 154.70 37.69 145.26 C 33.74 142.30 35.57 136.92 34.49 132.73 C 33.58 139.92 34.07 147.18 33.89 154.40 L 33.24 153.48 C 32.60 150.69 33.05 147.76 32.99 144.92 C 33.02 122.26 33.14 99.60 33.07 76.93 M 140.86 212.42 C 140.87 214.89 140.88 217.37 140.89 219.85 C 144.28 219.90 147.66 219.90 151.05 219.88 C 151.11 217.38 151.13 214.89 151.16 212.41 C 147.73 212.33 144.29 212.33 140.86 212.42 Z" />
</g>
<g id="#0071bbff">
<path fill="#0071bb" opacity="1.00" d=" M 75.28 120.41 C 79.08 118.36 84.16 121.77 83.91 126.02 C 84.10 130.46 78.58 133.77 74.80 131.31 C 70.48 129.16 70.78 122.16 75.28 120.41 Z" />
</g>
<g id="#007dc5ff">
<path fill="#007dc5" opacity="1.00" d=" M 129.48 132.26 C 138.21 127.03 150.52 129.03 156.40 137.59 C 163.80 137.70 171.21 137.47 178.61 137.78 C 174.47 140.02 169.54 138.76 165.04 139.26 C 166.72 141.08 168.17 143.32 170.44 144.46 C 173.26 145.08 176.17 145.21 179.03 145.60 L 178.73 146.79 C 164.42 146.88 150.09 147.02 135.78 146.73 C 138.20 146.05 140.69 145.71 143.17 145.41 C 140.68 145.13 138.10 145.13 135.72 144.30 C 133.10 141.94 130.33 139.61 128.27 136.75 C 128.51 135.21 129.03 133.74 129.48 132.26 Z" />
</g>
<g id="#008ad0ff">
<path fill="#008ad0" opacity="1.00" d=" M 212.37 130.67 C 219.38 128.02 227.78 129.55 233.31 134.65 C 243.08 143.44 243.34 160.62 233.66 169.58 C 227.41 175.79 217.08 176.80 209.53 172.44 C 200.42 167.42 196.71 155.72 199.12 145.96 C 200.70 139.12 205.71 133.07 212.37 130.67 Z" />
</g>
<g id="#0062b0ff">
<path fill="#0062b0" opacity="1.00" d=" M 34.49 132.73 C 35.57 136.92 33.74 142.30 37.69 145.26 C 47.50 154.70 56.81 164.67 66.76 173.96 C 67.00 166.32 66.94 158.67 66.97 151.03 C 67.06 148.21 66.55 145.08 68.35 142.66 C 68.63 158.80 68.26 174.95 68.56 191.09 C 74.40 193.02 80.68 190.95 86.56 192.42 C 89.34 194.25 91.26 197.05 93.74 199.23 C 101.39 205.58 108.21 212.85 115.05 220.04 C 117.64 223.08 122.08 221.65 125.56 222.04 C 125.55 222.40 125.52 223.14 125.50 223.51 C 122.27 223.51 119.03 223.54 115.80 223.63 C 116.07 234.73 115.50 245.86 116.10 256.94 C 119.34 257.34 122.62 257.10 125.87 257.09 C 125.93 251.42 125.82 245.75 125.88 240.08 C 126.00 237.93 125.90 235.25 127.90 233.89 C 129.62 232.81 131.74 232.73 133.67 232.29 C 133.30 233.21 132.92 234.13 132.52 235.05 C 134.48 237.12 136.56 239.09 138.70 240.99 C 138.86 235.14 140.07 229.36 140.09 223.50 C 140.30 223.50 140.70 223.51 140.91 223.51 C 140.85 234.72 140.81 245.92 140.95 257.13 C 144.33 257.14 147.70 257.14 151.08 257.12 C 151.24 245.92 150.96 234.71 151.26 223.52 C 152.50 225.05 153.50 226.75 154.77 228.26 C 156.19 229.81 158.40 230.47 159.68 232.13 C 160.38 240.30 159.43 248.54 160.24 256.71 L 161.15 257.04 C 164.50 257.24 167.85 257.14 171.20 257.14 C 171.42 249.66 170.71 242.13 171.69 234.69 C 172.90 239.73 173.05 244.91 173.09 250.06 C 172.78 252.75 175.03 254.51 176.67 256.25 C 191.12 270.52 205.42 284.93 219.78 299.28 C 221.96 301.37 223.80 303.91 226.40 305.52 C 240.92 308.01 255.71 306.33 270.32 307.61 C 265.89 308.01 261.45 307.79 257.01 307.84 C 231.14 307.73 205.26 308.08 179.40 307.70 C 172.53 305.87 165.40 306.28 158.42 305.57 C 154.19 302.53 151.17 298.13 147.19 294.78 C 132.67 280.54 118.43 266.01 103.94 251.72 C 109.24 243.91 108.26 232.17 101.04 225.88 C 95.17 220.98 85.47 221.05 80.22 226.88 C 80.26 225.74 80.31 224.60 80.39 223.47 C 80.43 223.14 80.51 222.49 80.55 222.17 C 77.64 221.87 74.21 222.30 72.04 219.91 C 61.96 209.68 51.87 199.45 41.63 189.37 C 39.49 187.20 36.98 185.26 35.54 182.53 C 33.81 173.26 33.91 163.79 33.89 154.40 C 34.07 147.18 33.58 139.92 34.49 132.73 Z" />
</g>
<g id="#0076bfff">
<path fill="#0076bf" opacity="1.00" d=" M 119.38 147.89 C 119.91 141.38 124.20 135.82 129.48 132.26 C 129.03 133.74 128.51 135.21 128.27 136.75 C 130.33 139.61 133.10 141.94 135.72 144.30 C 138.10 145.13 140.68 145.13 143.17 145.41 C 140.69 145.71 138.20 146.05 135.78 146.73 C 135.73 152.08 135.77 157.44 135.86 162.80 C 143.60 162.78 151.34 162.67 159.08 162.87 C 157.70 166.25 156.04 169.77 152.88 171.84 C 145.51 176.89 135.21 175.77 128.06 170.88 C 120.89 165.81 118.56 156.24 119.38 147.89 Z" />
</g>
<g id="#0056a7ff">
<path fill="#0056a7" opacity="1.00" d=" M 33.24 153.48 L 33.89 154.40 C 33.91 163.79 33.81 173.26 35.54 182.53 C 36.98 185.26 39.49 187.20 41.63 189.37 C 51.87 199.45 61.96 209.68 72.04 219.91 C 74.21 222.30 77.64 221.87 80.55 222.17 C 80.51 222.49 80.43 223.14 80.39 223.47 C 77.15 223.57 73.91 223.54 70.67 223.62 C 70.77 238.48 70.78 253.33 70.67 268.19 C 66.55 262.73 61.63 257.99 56.73 253.24 C 49.43 246.31 42.83 238.60 35.17 232.07 C 34.26 233.71 33.59 235.48 33.11 237.30 C 33.09 209.36 32.94 181.41 33.24 153.48 Z" />
</g>
<g id="#0079c2ff">
<path fill="#0079c2" opacity="1.00" d=" M 173.71 176.58 C 176.57 172.95 178.33 168.64 180.36 164.53 C 184.67 178.42 196.88 189.36 211.24 191.83 C 210.20 192.39 209.17 192.94 208.13 193.50 C 216.52 202.24 225.24 210.66 233.75 219.27 C 236.60 222.40 241.82 219.47 244.65 222.75 C 238.73 221.97 232.11 222.27 227.31 226.27 C 223.76 228.97 222.26 233.30 220.74 237.32 C 220.46 237.71 219.91 238.49 219.64 238.88 C 219.20 239.85 218.80 240.84 218.42 241.85 C 217.18 240.73 215.54 239.89 214.75 238.38 C 214.09 236.11 213.82 233.69 212.46 231.68 C 210.86 226.24 205.73 222.02 199.93 222.40 C 195.67 222.18 192.18 224.94 189.48 227.91 C 187.75 225.51 185.48 223.53 182.71 222.44 C 182.99 222.15 183.57 221.57 183.85 221.28 C 181.41 220.79 178.38 221.53 176.41 219.74 C 167.93 210.78 158.81 202.44 150.26 193.55 C 151.12 193.24 151.98 192.93 152.84 192.63 C 152.35 192.32 151.38 191.71 150.90 191.40 C 159.87 189.20 168.15 184.00 173.71 176.58 Z" />
</g>
<g id="#008cd2ff">
<path fill="#008cd2" opacity="1.00" d=" M 258.69 164.77 C 268.60 175.48 279.12 185.64 289.54 195.86 C 289.92 194.20 290.30 192.54 290.70 190.88 C 291.21 200.22 290.99 209.59 290.86 218.94 C 290.35 221.96 289.90 224.98 289.54 228.01 C 276.25 214.79 263.01 201.51 249.76 188.23 C 248.35 186.74 247.02 185.17 245.69 183.61 C 251.73 178.76 256.30 172.13 258.69 164.77 Z" />
</g>
<g id="#0083cbff">
<path fill="#0083cb" opacity="1.00" d=" M 211.24 191.83 C 223.20 194.08 236.17 191.32 245.69 183.61 C 247.02 185.17 248.35 186.74 249.76 188.23 C 263.01 201.51 276.25 214.79 289.54 228.01 C 289.90 224.98 290.35 221.96 290.86 218.94 L 291.56 220.49 C 291.63 220.86 291.76 221.58 291.83 221.94 C 291.85 239.95 291.84 257.97 291.86 275.98 C 291.86 279.43 292.00 282.89 291.56 286.33 C 290.40 280.58 291.08 274.71 290.52 268.92 C 290.25 270.97 290.00 273.03 289.75 275.09 C 280.25 265.99 271.01 256.62 261.81 247.23 C 260.36 245.81 258.66 244.69 256.96 243.59 C 257.68 238.19 256.33 232.43 252.66 228.31 C 250.58 225.71 247.48 224.35 244.65 222.75 C 241.82 219.47 236.60 222.40 233.75 219.27 C 225.24 210.66 216.52 202.24 208.13 193.50 C 209.17 192.94 210.20 192.39 211.24 191.83 Z" />
</g>
<g id="#0f4ba1ff">
<path fill="#0f4ba1" opacity="1.00" d=" M 35.17 232.07 C 42.83 238.60 49.43 246.31 56.73 253.24 C 61.63 257.99 66.55 262.73 70.67 268.19 L 70.83 268.32 C 74.60 271.10 78.02 274.31 81.25 277.71 C 90.42 287.07 99.80 296.23 109.04 305.53 C 105.70 307.40 101.82 306.96 98.15 307.19 C 97.95 307.37 97.54 307.73 97.33 307.91 C 92.52 312.82 87.57 317.58 82.69 322.42 C 68.96 308.09 54.61 294.36 40.73 280.18 C 38.80 278.17 36.76 276.28 34.64 274.47 C 33.44 280.02 34.24 285.75 33.28 291.33 C 32.86 273.33 33.13 255.30 33.11 237.30 C 33.59 235.48 34.26 233.71 35.17 232.07 Z" />
</g>
<g id="#005babff">
<path fill="#005bab" opacity="1.00" d=" M 85.38 232.47 C 91.36 229.51 98.75 235.64 97.04 242.05 C 96.18 248.24 87.71 251.05 83.29 246.68 C 78.66 242.94 79.93 234.72 85.38 232.47 Z" />
</g>
<g id="#0074bdff">
<path fill="#0074bd" opacity="1.00" d=" M 171.69 234.69 C 173.71 230.81 180.44 230.66 181.50 235.33 C 182.43 242.54 181.57 249.86 181.98 257.12 C 185.32 257.12 188.66 257.12 192.00 257.12 C 192.26 250.40 191.87 243.66 192.20 236.94 C 192.15 234.61 193.81 232.50 196.08 231.98 C 198.98 230.96 202.28 233.30 202.30 236.37 C 202.72 243.28 202.32 250.22 202.48 257.14 C 205.85 257.16 209.22 257.13 212.58 256.95 C 212.47 248.52 212.60 240.10 212.46 231.68 C 213.82 233.69 214.09 236.11 214.75 238.38 C 215.54 239.89 217.18 240.73 218.42 241.85 C 218.80 240.84 219.20 239.85 219.64 238.88 C 219.91 238.49 220.46 237.71 220.74 237.32 C 220.70 242.25 221.32 247.53 224.53 251.51 C 230.30 259.14 242.26 260.38 249.90 254.92 C 253.66 252.26 255.90 247.99 256.96 243.59 C 258.66 244.69 260.36 245.81 261.81 247.23 C 271.01 256.62 280.25 265.99 289.75 275.09 C 290.00 273.03 290.25 270.97 290.52 268.92 C 291.08 274.71 290.40 280.58 291.56 286.33 C 290.79 297.16 281.17 306.84 270.32 307.61 C 255.71 306.33 240.92 308.01 226.40 305.52 C 223.80 303.91 221.96 301.37 219.78 299.28 C 205.42 284.93 191.12 270.52 176.67 256.25 C 175.03 254.51 172.78 252.75 173.09 250.06 C 173.05 244.91 172.90 239.73 171.69 234.69 Z" />
</g>
<g id="#007bc4ff">
<path fill="#007bc4" opacity="1.00" d=" M 235.42 232.68 C 240.85 229.48 247.91 234.99 246.91 240.98 C 247.10 246.46 240.80 250.51 235.85 248.20 C 229.62 245.66 229.35 235.59 235.42 232.68 Z" />
</g>
<g id="#0056a8ff">
<path fill="#0056a8" opacity="1.00" d=" M 80.76 254.33 C 87.38 260.62 98.71 258.94 103.94 251.72 C 118.43 266.01 132.67 280.54 147.19 294.78 C 151.17 298.13 154.19 302.53 158.42 305.57 C 165.40 306.28 172.53 305.87 179.40 307.70 C 152.05 308.09 124.69 307.70 97.33 307.91 C 97.54 307.73 97.95 307.37 98.15 307.19 C 101.82 306.96 105.70 307.40 109.04 305.53 C 99.80 296.23 90.42 287.07 81.25 277.71 C 78.02 274.31 74.60 271.10 70.83 268.32 C 74.14 268.35 77.45 268.27 80.76 268.33 C 80.83 263.66 80.85 259.00 80.76 254.33 Z" />
</g>
<g id="#20409aff">
<path fill="#20409a" opacity="1.00" d=" M 33.28 291.33 C 34.24 285.75 33.44 280.02 34.64 274.47 C 36.76 276.28 38.80 278.17 40.73 280.18 C 54.61 294.36 68.96 308.09 82.69 322.42 C 74.64 330.37 66.60 338.34 58.53 346.26 C 52.77 341.80 48.03 336.24 42.76 331.24 C 39.63 328.16 36.25 325.19 34.22 321.21 C 34.16 323.93 33.88 326.65 33.46 329.35 C 33.10 316.69 33.05 303.99 33.28 291.33 Z" />
</g>
<g id="#16459dff">
<path fill="#16459d" opacity="1.00" d=" M 97.42 319.47 C 100.62 319.49 103.83 319.48 107.03 319.41 C 107.48 332.11 106.99 344.82 107.28 357.53 C 103.99 357.72 100.70 357.71 97.41 357.66 C 97.45 344.93 97.42 332.20 97.42 319.47 Z" />
</g>
<g id="#0d4ca1ff">
<path fill="#0d4ca1" opacity="1.00" d=" M 113.95 333.03 C 111.75 325.22 119.54 318.40 126.95 318.74 C 133.68 318.32 140.15 323.67 139.96 330.62 C 136.81 330.62 133.67 330.61 130.52 330.62 C 129.81 329.38 129.60 327.58 128.04 327.11 C 125.69 325.86 122.19 328.60 123.64 331.19 C 128.22 334.81 134.81 335.50 138.47 340.38 C 142.46 346.20 139.49 355.80 132.42 357.63 C 126.87 359.12 119.86 358.77 115.83 354.17 C 113.61 351.72 113.20 348.33 112.99 345.17 C 116.15 345.13 119.32 345.13 122.49 345.11 C 123.07 347.09 123.50 349.71 125.93 350.21 C 128.95 351.26 132.33 346.62 129.44 344.55 C 124.06 341.17 115.75 340.22 113.95 333.03 Z" />
</g>
<g id="#005cacff">
<path fill="#005cac" opacity="1.00" d=" M 193.82 319.59 C 196.65 319.46 199.48 319.45 202.31 319.47 C 207.21 332.20 212.11 344.93 216.99 357.67 C 213.44 357.69 209.89 357.68 206.34 357.69 C 205.75 355.87 205.16 354.05 204.59 352.24 C 200.08 352.17 195.57 352.18 191.07 352.23 C 190.52 354.04 189.96 355.85 189.40 357.66 C 185.90 357.69 182.40 357.70 178.90 357.71 C 183.63 344.91 189.02 332.36 193.82 319.59 M 197.54 331.63 C 196.11 335.87 194.92 340.18 193.51 344.43 C 196.34 344.46 199.18 344.44 202.02 344.35 C 200.46 340.14 199.57 335.66 197.54 331.63 Z" />
</g>
<g id="#0063b1ff">
<path fill="#0063b1" opacity="1.00" d=" M 221.21 319.44 C 228.36 319.51 235.52 319.49 242.68 319.46 C 242.72 322.33 242.71 325.21 242.66 328.10 C 238.71 328.08 234.77 328.09 230.83 328.08 C 230.82 330.03 230.81 331.99 230.81 333.95 C 234.65 334.16 238.49 334.13 242.33 334.07 C 242.37 336.87 242.39 339.68 242.43 342.49 C 238.56 342.59 234.68 342.56 230.81 342.56 C 230.81 344.76 230.82 346.97 230.83 349.18 C 234.80 349.18 238.76 349.18 242.73 349.20 C 242.71 352.03 242.71 354.85 242.72 357.68 C 235.53 357.69 228.34 357.68 221.15 357.69 C 221.18 344.94 221.12 332.19 221.21 319.44 Z" />
</g>
<g id="#0054a6ff">
<path fill="#0054a6" opacity="1.00" d=" M 146.13 319.57 C 153.66 319.79 161.64 318.34 168.81 321.23 C 177.50 325.51 177.25 339.90 168.32 343.86 C 171.00 348.42 173.62 353.01 176.10 357.68 C 172.78 357.68 169.47 357.68 166.16 357.68 C 162.87 351.62 159.53 345.58 156.37 339.45 C 158.75 339.23 161.28 339.37 163.50 338.33 C 166.74 336.24 166.65 330.43 163.02 328.76 C 160.77 327.79 158.24 328.18 155.86 328.09 C 156.13 337.93 155.72 347.75 155.94 357.58 C 152.66 357.72 149.38 357.74 146.11 357.54 C 146.30 344.88 146.23 332.22 146.13 319.57 Z" />
</g>
<g id="#0068b5ff">
<path fill="#0068b5" opacity="1.00" d=" M 249.82 319.51 C 253.06 319.48 256.30 319.48 259.54 319.43 C 259.70 329.35 259.53 339.27 259.64 349.19 C 263.39 349.19 267.14 349.19 270.89 349.18 C 270.90 352.03 270.89 354.87 270.85 357.72 C 263.88 357.66 256.91 357.67 249.94 357.71 C 249.66 344.98 249.91 332.24 249.82 319.51 Z" />
</g>
<g id="#2a3695ff">
<path fill="#2a3695" opacity="1.00" d=" M 34.22 321.21 C 36.25 325.19 39.63 328.16 42.76 331.24 C 48.03 336.24 52.77 341.80 58.53 346.26 C 55.40 349.25 52.49 352.46 49.23 355.30 C 46.14 357.68 41.57 359.18 37.98 357.01 C 34.41 354.66 33.26 350.06 33.34 346.02 C 33.45 340.46 33.06 334.89 33.46 329.35 C 33.88 326.65 34.16 323.93 34.22 321.21 Z" />
</g>
</svg>
