<svg id="svg" version="1.1" xmlns="http://www.w3.org/2000/svg" xmlns:xlink="http://www.w3.org/1999/xlink" width="400" height="400" viewBox="0, 0, 400,400"><g id="svgg"><path id="path0" d="M174.333 0.380 C 174.260 0.589,171.950 0.785,169.200 0.815 C 164.837 0.863,164.124 0.965,163.600 1.618 C 163.105 2.235,162.381 2.378,159.448 2.438 C 156.356 2.502,155.871 2.607,155.701 3.256 C 155.534 3.896,155.098 4.000,152.580 4.000 C 150.005 4.000,149.623 4.096,149.400 4.800 C 149.178 5.500,148.795 5.600,146.336 5.600 C 143.862 5.600,143.500 5.696,143.316 6.400 C 143.137 7.086,142.770 7.200,140.753 7.200 C 138.667 7.200,138.400 7.291,138.400 8.000 C 138.400 8.711,138.133 8.800,136.000 8.800 C 133.867 8.800,133.600 8.889,133.600 9.600 C 133.600 10.303,133.333 10.400,131.400 10.400 C 129.467 10.400,129.200 10.497,129.200 11.200 C 129.200 11.904,128.933 12.000,126.987 12.000 C 125.390 12.000,124.711 12.167,124.545 12.600 C 124.401 12.975,123.790 13.200,122.920 13.200 C 121.862 13.200,121.475 13.393,121.316 14.000 C 121.161 14.593,120.770 14.800,119.807 14.800 C 119.093 14.800,118.069 15.145,117.533 15.567 C 116.996 15.989,115.892 16.459,115.079 16.612 C 114.217 16.773,113.600 17.121,113.600 17.445 C 113.600 17.765,113.191 18.000,112.633 18.000 C 111.252 18.000,110.400 18.398,110.400 19.043 C 110.400 19.395,109.960 19.600,109.203 19.600 C 108.440 19.600,107.826 19.890,107.507 20.400 C 107.204 20.885,106.574 21.200,105.907 21.200 C 105.240 21.200,104.610 21.515,104.307 22.000 C 104.032 22.440,103.519 22.800,103.166 22.800 C 102.813 22.800,102.198 23.160,101.800 23.600 C 101.402 24.040,100.727 24.400,100.301 24.400 C 99.862 24.400,99.434 24.747,99.316 25.200 C 99.157 25.806,98.770 26.000,97.716 26.000 C 96.662 26.000,96.275 26.194,96.116 26.800 C 95.981 27.317,95.570 27.600,94.957 27.600 C 94.434 27.600,93.782 27.960,93.507 28.400 C 93.232 28.840,92.691 29.200,92.304 29.200 C 91.917 29.200,91.600 29.438,91.600 29.729 C 91.600 30.021,90.925 30.433,90.100 30.645 C 89.275 30.857,88.645 31.249,88.700 31.515 C 88.755 31.782,88.423 32.000,87.963 32.000 C 87.462 32.000,87.041 32.321,86.916 32.800 C 86.782 33.313,86.370 33.600,85.769 33.600 C 85.253 33.600,84.509 33.931,84.116 34.336 C 83.722 34.741,83.085 35.185,82.700 35.323 C 82.315 35.462,82.000 35.851,82.000 36.187 C 82.000 36.524,81.683 36.800,81.296 36.800 C 80.909 36.800,80.368 37.160,80.093 37.600 C 79.818 38.040,79.218 38.400,78.759 38.400 C 78.262 38.400,77.841 38.723,77.716 39.200 C 77.600 39.643,77.170 40.000,76.753 40.000 C 76.267 40.000,76.000 40.283,76.000 40.800 C 76.000 41.333,75.733 41.600,75.200 41.600 C 74.667 41.600,74.400 41.867,74.400 42.400 C 74.400 42.933,74.133 43.200,73.600 43.200 C 73.160 43.200,72.440 43.560,72.000 44.000 C 71.560 44.440,70.924 44.800,70.587 44.800 C 70.251 44.800,69.874 45.063,69.750 45.385 C 69.627 45.706,69.183 46.079,68.763 46.212 C 68.343 46.345,68.000 46.691,68.000 46.980 C 68.000 47.270,67.640 47.601,67.200 47.716 C 66.760 47.831,66.400 48.191,66.400 48.516 C 66.400 48.841,66.040 49.201,65.600 49.316 C 65.160 49.431,64.800 49.791,64.800 50.116 C 64.800 50.441,64.440 50.801,64.000 50.916 C 63.560 51.031,63.200 51.412,63.200 51.763 C 63.200 52.113,62.930 52.400,62.600 52.400 C 62.267 52.400,62.000 52.756,62.000 53.200 C 62.000 53.733,61.733 54.000,61.200 54.000 C 60.667 54.000,60.400 54.267,60.400 54.800 C 60.400 55.333,60.133 55.600,59.600 55.600 C 59.067 55.600,58.800 55.867,58.800 56.400 C 58.800 56.933,58.533 57.200,58.000 57.200 C 57.467 57.200,57.200 57.467,57.200 58.000 C 57.200 58.533,56.933 58.800,56.400 58.800 C 55.867 58.800,55.600 59.067,55.600 59.600 C 55.600 60.133,55.333 60.400,54.800 60.400 C 54.267 60.400,54.000 60.667,54.000 61.200 C 54.000 61.733,53.733 62.000,53.200 62.000 C 52.760 62.000,52.400 62.258,52.400 62.573 C 52.400 62.888,52.040 63.260,51.600 63.400 C 51.160 63.540,50.800 63.891,50.800 64.180 C 50.800 64.470,50.440 64.801,50.000 64.916 C 49.560 65.031,49.200 65.400,49.200 65.736 C 49.200 66.071,48.840 66.460,48.400 66.600 C 47.889 66.762,47.600 67.205,47.600 67.827 C 47.600 68.362,47.420 68.800,47.200 68.800 C 46.980 68.800,46.800 69.160,46.800 69.600 C 46.800 70.040,46.980 70.400,47.200 70.400 C 47.420 70.400,47.602 70.805,47.605 71.300 C 47.615 72.827,48.067 74.000,48.647 74.000 C 48.951 74.000,49.200 74.326,49.200 74.725 C 49.200 75.123,49.560 75.836,50.000 76.308 C 50.440 76.780,50.800 77.534,50.800 77.983 C 50.800 78.533,51.061 78.800,51.600 78.800 C 52.252 78.800,52.400 79.067,52.400 80.237 C 52.400 81.338,52.587 81.724,53.200 81.884 C 53.766 82.032,54.000 82.430,54.000 83.243 C 54.000 83.960,54.301 84.581,54.800 84.893 C 55.240 85.168,55.600 85.666,55.600 86.000 C 55.600 86.334,55.960 86.832,56.400 87.107 C 56.865 87.397,57.200 88.040,57.200 88.641 C 57.200 89.338,57.460 89.743,58.000 89.884 C 58.601 90.041,58.800 90.430,58.800 91.447 C 58.800 92.533,58.958 92.800,59.600 92.800 C 60.252 92.800,60.400 93.067,60.400 94.237 C 60.400 95.338,60.587 95.724,61.200 95.884 C 61.643 96.000,62.000 96.430,62.000 96.847 C 62.000 97.261,62.270 97.600,62.600 97.600 C 63.022 97.600,63.200 98.026,63.200 99.037 C 63.200 100.138,63.387 100.524,64.000 100.684 C 64.508 100.817,64.800 101.230,64.800 101.814 C 64.800 103.139,65.204 104.000,65.825 104.000 C 66.124 104.000,66.481 104.622,66.626 105.400 C 66.777 106.202,67.126 106.800,67.445 106.800 C 67.750 106.800,68.000 107.160,68.000 107.600 C 68.000 108.133,68.267 108.400,68.800 108.400 C 69.467 108.400,69.600 108.667,69.600 110.000 C 69.600 111.333,69.733 111.600,70.400 111.600 C 71.052 111.600,71.200 111.867,71.200 113.037 C 71.200 114.138,71.387 114.524,72.000 114.684 C 72.440 114.799,72.800 115.218,72.800 115.614 C 72.800 116.762,73.240 117.600,73.843 117.600 C 74.170 117.600,74.400 118.012,74.400 118.600 C 74.400 119.333,74.613 119.600,75.200 119.600 C 75.852 119.600,76.000 119.867,76.000 121.037 C 76.000 122.138,76.187 122.524,76.800 122.684 C 77.401 122.841,77.600 123.230,77.600 124.247 C 77.600 125.333,77.758 125.600,78.400 125.600 C 78.981 125.600,79.200 125.867,79.200 126.572 C 79.200 127.728,80.788 130.359,81.500 130.383 C 81.804 130.393,82.000 130.963,82.000 131.837 C 82.000 132.938,82.187 133.324,82.800 133.484 C 83.366 133.632,83.600 134.030,83.600 134.843 C 83.600 135.560,83.901 136.181,84.400 136.493 C 84.840 136.768,85.200 137.269,85.200 137.608 C 85.200 137.946,85.560 138.483,86.000 138.800 C 86.440 139.117,86.800 139.804,86.800 140.326 C 86.800 140.938,87.084 141.349,87.600 141.484 C 88.201 141.641,88.400 142.030,88.400 143.047 C 88.400 144.133,88.558 144.400,89.200 144.400 C 89.852 144.400,90.000 144.667,90.000 145.837 C 90.000 146.938,90.187 147.324,90.800 147.484 C 91.240 147.599,91.600 147.993,91.600 148.358 C 91.600 148.724,91.960 149.283,92.400 149.600 C 92.870 149.939,93.200 150.635,93.200 151.288 C 93.200 152.133,93.392 152.400,94.000 152.400 C 94.643 152.400,94.800 152.667,94.800 153.757 C 94.800 154.539,95.033 155.204,95.349 155.325 C 95.652 155.441,96.020 156.181,96.168 156.968 C 96.330 157.831,96.667 158.400,97.018 158.400 C 97.338 158.400,97.600 158.760,97.600 159.200 C 97.600 159.733,97.867 160.000,98.400 160.000 C 99.052 160.000,99.200 160.267,99.200 161.437 C 99.200 162.538,99.387 162.924,100.000 163.084 C 100.606 163.243,100.800 163.630,100.800 164.684 C 100.800 165.716,100.997 166.126,101.562 166.274 C 102.048 166.401,102.418 166.968,102.581 167.837 C 102.732 168.646,103.073 169.200,103.418 169.200 C 103.772 169.200,104.000 169.592,104.000 170.200 C 104.000 170.933,104.213 171.200,104.800 171.200 C 105.452 171.200,105.600 171.467,105.600 172.637 C 105.600 173.738,105.787 174.124,106.400 174.284 C 107.001 174.441,107.200 174.830,107.200 175.847 C 107.200 176.933,107.358 177.200,108.000 177.200 C 108.620 177.200,108.800 177.467,108.800 178.386 C 108.800 179.787,109.705 180.400,111.774 180.400 C 113.156 180.400,113.200 180.353,113.200 178.896 C 113.200 177.826,113.430 177.249,114.000 176.893 C 114.642 176.492,114.800 175.960,114.800 174.200 C 114.800 172.440,114.958 171.908,115.600 171.507 C 116.155 171.161,116.400 170.574,116.400 169.593 C 116.400 168.673,116.680 167.938,117.200 167.493 C 117.780 166.996,118.000 166.313,118.000 165.004 C 118.000 163.467,118.118 163.200,118.800 163.200 C 119.463 163.200,119.600 162.933,119.600 161.647 C 119.600 160.430,119.773 160.048,120.400 159.884 C 120.974 159.734,121.200 159.338,121.200 158.484 C 121.200 157.630,121.426 157.234,122.000 157.084 C 122.453 156.966,122.800 156.538,122.800 156.099 C 122.800 155.673,123.160 154.998,123.600 154.600 C 124.040 154.202,124.400 153.563,124.400 153.181 C 124.400 152.798,124.670 152.382,125.000 152.255 C 125.377 152.111,125.600 151.499,125.600 150.613 C 125.600 149.467,125.751 149.200,126.400 149.200 C 126.933 149.200,127.200 148.933,127.200 148.400 C 127.200 147.867,127.467 147.600,128.000 147.600 C 128.444 147.600,128.800 147.333,128.800 147.000 C 128.800 146.670,129.160 146.040,129.600 145.600 C 130.040 145.160,130.400 144.350,130.400 143.800 C 130.400 143.067,130.613 142.800,131.200 142.800 C 131.644 142.800,132.000 142.533,132.000 142.200 C 132.000 141.870,132.287 141.600,132.637 141.600 C 132.988 141.600,133.369 141.240,133.484 140.800 C 133.599 140.360,133.959 140.000,134.284 140.000 C 134.609 140.000,134.967 139.646,135.081 139.213 C 135.194 138.781,135.627 138.318,136.043 138.186 C 136.459 138.054,136.800 137.688,136.800 137.373 C 136.800 137.058,137.058 136.800,137.373 136.800 C 137.688 136.800,138.060 136.440,138.200 136.000 C 138.340 135.560,138.700 135.200,139.000 135.200 C 139.300 135.200,139.657 134.849,139.794 134.420 C 139.930 133.992,140.392 133.530,140.820 133.394 C 141.249 133.257,141.600 132.888,141.600 132.573 C 141.600 132.258,141.870 132.000,142.200 132.000 C 142.533 132.000,142.800 131.644,142.800 131.200 C 142.800 130.667,143.067 130.400,143.600 130.400 C 144.133 130.400,144.400 130.133,144.400 129.600 C 144.400 128.955,144.667 128.800,145.773 128.800 C 146.795 128.800,147.211 128.595,147.400 128.000 C 147.540 127.560,147.929 127.200,148.264 127.200 C 148.600 127.200,148.969 126.840,149.084 126.400 C 149.200 125.957,149.630 125.600,150.047 125.600 C 150.461 125.600,150.800 125.432,150.800 125.227 C 150.800 124.827,152.246 124.219,153.600 124.050 C 153.820 124.022,154.000 123.730,154.000 123.400 C 154.000 123.067,154.356 122.800,154.800 122.800 C 155.240 122.800,155.960 122.440,156.400 122.000 C 156.840 121.560,157.470 121.200,157.800 121.200 C 158.133 121.200,158.400 120.844,158.400 120.400 C 158.400 119.742,158.667 119.600,159.904 119.600 C 160.974 119.600,161.551 119.370,161.907 118.800 C 162.263 118.230,162.840 118.000,163.915 118.000 C 164.965 118.000,165.599 117.757,166.000 117.200 C 166.402 116.643,167.035 116.400,168.088 116.400 C 169.333 116.400,169.600 116.259,169.600 115.600 C 169.600 114.875,169.867 114.800,172.437 114.800 C 174.889 114.800,175.302 114.697,175.474 114.040 C 175.646 113.382,176.134 113.260,179.069 113.140 C 181.732 113.030,182.575 112.849,182.976 112.300 C 183.434 111.673,184.333 111.600,191.541 111.600 C 199.160 111.600,199.620 111.557,200.093 110.800 C 200.590 110.004,201.026 110.000,289.696 110.000 L 378.800 110.000 378.800 107.800 C 378.800 105.867,378.703 105.600,378.000 105.600 C 377.333 105.600,377.200 105.333,377.200 104.000 C 377.200 102.667,377.067 102.400,376.400 102.400 C 375.785 102.400,375.600 102.133,375.600 101.249 C 375.600 100.616,375.342 99.883,375.026 99.621 C 374.710 99.359,374.333 98.605,374.188 97.945 C 374.043 97.286,373.672 96.649,373.362 96.530 C 373.053 96.412,372.800 95.974,372.800 95.557 C 372.800 95.067,372.518 94.800,372.000 94.800 C 371.421 94.800,371.200 94.533,371.200 93.833 C 371.200 92.452,370.802 91.600,370.157 91.600 C 369.851 91.600,369.600 91.283,369.600 90.896 C 369.600 90.509,369.240 89.968,368.800 89.693 C 368.335 89.403,368.000 88.760,368.000 88.159 C 368.000 87.462,367.740 87.057,367.200 86.916 C 366.760 86.801,366.400 86.411,366.400 86.050 C 366.400 85.688,366.040 85.168,365.600 84.893 C 365.157 84.616,364.800 83.960,364.800 83.424 C 364.800 82.824,364.511 82.362,364.043 82.214 C 363.627 82.082,363.194 81.619,363.081 81.187 C 362.967 80.754,362.588 80.400,362.237 80.400 C 361.792 80.400,361.600 80.028,361.600 79.163 C 361.600 78.262,361.383 77.868,360.800 77.716 C 360.357 77.600,360.000 77.170,360.000 76.753 C 360.000 76.267,359.717 76.000,359.200 76.000 C 358.667 76.000,358.400 75.733,358.400 75.200 C 358.400 74.756,358.133 74.400,357.800 74.400 C 357.470 74.400,357.200 74.138,357.200 73.818 C 357.200 73.498,356.750 72.786,356.200 72.236 C 355.650 71.686,355.200 70.958,355.200 70.618 C 355.200 70.278,355.016 70.000,354.790 70.000 C 354.565 70.000,354.209 69.550,354.000 69.000 C 353.791 68.450,353.366 68.000,353.057 68.000 C 352.747 68.000,352.394 67.622,352.274 67.160 C 352.152 66.696,351.862 66.438,351.626 66.584 C 351.388 66.731,351.026 66.393,350.809 65.824 C 350.595 65.261,350.145 64.800,349.810 64.800 C 349.467 64.800,349.200 64.450,349.200 64.000 C 349.200 63.467,348.933 63.200,348.400 63.200 C 347.956 63.200,347.600 62.933,347.600 62.600 C 347.600 62.267,347.244 62.000,346.800 62.000 C 346.267 62.000,346.000 61.733,346.000 61.200 C 346.000 60.667,345.733 60.400,345.200 60.400 C 344.667 60.400,344.400 60.133,344.400 59.600 C 344.400 59.067,344.133 58.800,343.600 58.800 C 343.067 58.800,342.800 58.533,342.800 58.000 C 342.800 57.556,342.533 57.200,342.200 57.200 C 341.867 57.200,341.600 56.844,341.600 56.400 C 341.600 55.867,341.333 55.600,340.800 55.600 C 340.267 55.600,340.000 55.333,340.000 54.800 C 340.000 54.283,339.733 54.000,339.247 54.000 C 338.830 54.000,338.400 53.643,338.284 53.200 C 338.169 52.760,337.788 52.400,337.437 52.400 C 337.067 52.400,336.800 52.065,336.800 51.600 C 336.800 51.083,336.533 50.800,336.047 50.800 C 335.630 50.800,335.200 50.443,335.084 50.000 C 334.969 49.560,334.609 49.200,334.284 49.200 C 333.959 49.200,333.599 48.840,333.484 48.400 C 333.369 47.960,332.988 47.600,332.637 47.600 C 332.287 47.600,332.000 47.324,332.000 46.987 C 332.000 46.651,331.685 46.255,331.300 46.108 C 330.457 45.786,329.821 45.295,328.700 44.100 C 328.211 43.579,327.381 43.200,326.728 43.200 C 325.867 43.200,325.600 43.011,325.600 42.400 C 325.600 41.960,325.351 41.600,325.047 41.600 C 324.742 41.600,324.399 41.240,324.284 40.800 C 324.164 40.340,323.738 40.000,323.284 40.000 C 322.830 40.000,322.404 39.660,322.284 39.200 C 322.132 38.617,321.738 38.400,320.837 38.400 C 319.867 38.400,319.600 38.228,319.600 37.600 C 319.600 37.067,319.333 36.800,318.800 36.800 C 318.350 36.800,318.000 36.533,318.000 36.190 C 318.000 35.855,317.550 35.409,317.000 35.200 C 316.450 34.991,316.000 34.644,316.000 34.428 C 316.000 34.213,315.370 33.918,314.600 33.774 C 313.748 33.614,313.200 33.279,313.200 32.918 C 313.200 32.592,312.852 32.234,312.428 32.123 C 312.003 32.012,311.562 31.679,311.449 31.383 C 311.335 31.086,310.603 30.724,309.821 30.578 C 309.003 30.424,308.400 30.075,308.400 29.755 C 308.400 29.445,308.001 29.200,307.496 29.200 C 306.999 29.200,306.376 28.853,306.111 28.430 C 305.847 28.006,305.256 27.601,304.799 27.530 C 304.342 27.458,303.991 27.240,304.018 27.045 C 304.096 26.494,303.114 26.013,301.900 26.006 C 301.069 26.001,300.800 25.805,300.800 25.200 C 300.800 24.533,300.533 24.400,299.200 24.400 C 297.867 24.400,297.600 24.267,297.600 23.600 C 297.600 22.992,297.333 22.800,296.488 22.800 C 295.835 22.800,295.139 22.470,294.800 22.000 C 294.483 21.560,293.931 21.200,293.574 21.200 C 293.216 21.200,292.598 20.840,292.200 20.400 C 291.802 19.960,291.082 19.600,290.600 19.600 C 290.118 19.600,289.398 19.240,289.000 18.800 C 288.523 18.273,287.768 18.000,286.785 18.000 C 285.630 18.000,285.246 17.820,285.084 17.200 C 284.925 16.594,284.538 16.400,283.484 16.400 C 282.430 16.400,282.043 16.206,281.884 15.600 C 281.724 14.987,281.338 14.800,280.237 14.800 C 279.280 14.800,278.800 14.615,278.800 14.247 C 278.800 13.616,277.600 13.213,275.700 13.205 C 274.814 13.202,274.400 13.009,274.400 12.600 C 274.400 12.156,273.933 12.000,272.600 12.000 C 271.067 12.000,270.800 11.881,270.800 11.200 C 270.800 10.498,270.533 10.400,268.627 10.400 C 266.805 10.400,266.413 10.271,266.200 9.600 C 265.988 8.932,265.595 8.800,263.820 8.800 C 262.030 8.800,261.660 8.673,261.484 8.000 C 261.307 7.324,260.938 7.200,259.099 7.200 C 257.432 7.200,256.755 7.013,256.200 6.400 C 255.639 5.781,254.968 5.600,253.226 5.600 C 251.435 5.600,250.859 5.437,250.400 4.800 C 249.921 4.135,249.365 4.000,247.112 4.000 C 244.933 4.000,244.243 3.843,243.600 3.200 C 242.928 2.528,242.267 2.400,239.462 2.400 C 236.632 2.400,236.014 2.278,235.400 1.600 C 234.757 0.890,234.168 0.800,230.138 0.800 C 227.379 0.800,225.600 0.643,225.600 0.400 C 225.600 -0.134,174.521 -0.154,174.333 0.380 M294.400 377.849 C 294.400 378.380,294.509 378.408,295.000 378.000 C 295.330 377.726,295.600 377.434,295.600 377.351 C 295.600 377.268,295.330 377.200,295.000 377.200 C 294.670 377.200,294.400 377.492,294.400 377.849 " stroke="none" fill="#f44434" fill-rule="evenodd"></path><path id="path1" d="M189.300 132.412 C 188.805 132.611,188.400 132.960,188.400 133.187 C 188.400 133.437,187.133 133.600,185.200 133.600 C 182.533 133.600,181.867 133.733,181.200 134.400 C 180.654 134.946,179.861 135.202,178.700 135.206 C 176.957 135.212,175.900 135.615,175.973 136.245 C 175.996 136.440,175.291 136.655,174.407 136.723 C 173.125 136.821,172.800 137.003,172.800 137.623 C 172.800 138.255,172.518 138.400,171.296 138.400 C 170.226 138.400,169.649 138.630,169.293 139.200 C 169.003 139.665,168.360 140.000,167.759 140.000 C 167.062 140.000,166.657 140.260,166.516 140.800 C 166.383 141.308,165.970 141.600,165.386 141.600 C 164.049 141.600,163.200 142.005,163.200 142.643 C 163.200 142.949,162.838 143.200,162.396 143.200 C 161.954 143.200,161.284 143.560,160.907 144.000 C 160.530 144.440,159.902 144.800,159.511 144.800 C 159.120 144.800,158.800 145.049,158.800 145.353 C 158.800 145.658,158.440 146.001,158.000 146.116 C 157.560 146.231,157.200 146.612,157.200 146.963 C 157.200 147.333,156.865 147.600,156.400 147.600 C 155.867 147.600,155.600 147.867,155.600 148.400 C 155.600 148.853,155.333 149.200,154.986 149.200 C 153.850 149.200,149.200 153.850,149.200 154.986 C 149.200 155.333,148.853 155.600,148.400 155.600 C 147.867 155.600,147.600 155.867,147.600 156.400 C 147.600 156.865,147.333 157.200,146.963 157.200 C 146.612 157.200,146.231 157.560,146.116 158.000 C 146.001 158.440,145.658 158.800,145.353 158.800 C 145.049 158.800,144.800 159.120,144.800 159.511 C 144.800 159.902,144.440 160.530,144.000 160.907 C 143.560 161.284,143.200 161.933,143.200 162.349 C 143.200 162.770,142.845 163.200,142.400 163.316 C 141.794 163.475,141.600 163.862,141.600 164.916 C 141.600 165.970,141.406 166.357,140.800 166.516 C 140.260 166.657,140.000 167.062,140.000 167.759 C 140.000 168.360,139.665 169.003,139.200 169.293 C 138.630 169.649,138.400 170.226,138.400 171.296 C 138.400 172.533,138.258 172.800,137.600 172.800 C 136.933 172.800,136.800 173.067,136.800 174.400 C 136.800 175.582,136.637 176.000,136.176 176.000 C 135.833 176.000,135.664 176.180,135.800 176.400 C 135.936 176.620,135.890 176.800,135.698 176.800 C 135.506 176.800,135.307 177.619,135.255 178.619 C 135.195 179.793,134.884 180.716,134.381 181.219 C 133.737 181.863,133.600 182.560,133.600 185.200 C 133.600 187.658,133.472 188.400,133.047 188.400 C 132.133 188.400,132.011 189.767,132.011 200.000 C 132.011 210.233,132.133 211.600,133.047 211.600 C 133.472 211.600,133.600 212.342,133.600 214.800 C 133.600 217.467,133.733 218.133,134.400 218.800 C 134.963 219.363,135.200 220.133,135.200 221.400 C 135.200 222.400,135.388 223.200,135.624 223.200 C 135.857 223.200,135.936 223.380,135.800 223.600 C 135.664 223.820,135.833 224.000,136.176 224.000 C 136.637 224.000,136.800 224.418,136.800 225.600 C 136.800 226.933,136.933 227.200,137.600 227.200 C 138.258 227.200,138.400 227.467,138.400 228.704 C 138.400 229.774,138.630 230.351,139.200 230.707 C 139.710 231.026,140.000 231.640,140.000 232.403 C 140.000 233.333,140.178 233.600,140.800 233.600 C 141.467 233.600,141.600 233.867,141.600 235.200 C 141.600 236.533,141.733 236.800,142.400 236.800 C 142.935 236.800,143.200 237.067,143.200 237.604 C 143.200 238.046,143.560 238.716,144.000 239.093 C 144.440 239.470,144.800 240.103,144.800 240.501 C 144.800 240.899,145.070 241.329,145.400 241.455 C 145.730 241.582,146.000 241.936,146.000 242.243 C 146.000 242.549,146.360 242.800,146.800 242.800 C 147.333 242.800,147.600 243.067,147.600 243.600 C 147.600 244.133,147.867 244.400,148.400 244.400 C 148.840 244.400,149.200 244.662,149.200 244.982 C 149.200 246.079,153.921 250.800,155.018 250.800 C 155.338 250.800,155.600 251.160,155.600 251.600 C 155.600 252.133,155.867 252.400,156.400 252.400 C 156.933 252.400,157.200 252.667,157.200 253.200 C 157.200 253.733,157.467 254.000,158.000 254.000 C 158.444 254.000,158.800 254.267,158.800 254.600 C 158.800 254.930,158.980 255.222,159.200 255.250 C 159.420 255.278,159.735 255.323,159.900 255.351 C 160.419 255.438,162.985 257.336,163.320 257.880 C 163.496 258.166,164.261 258.400,165.020 258.400 C 166.133 258.400,166.400 258.555,166.400 259.200 C 166.400 259.867,166.667 260.000,168.000 260.000 C 169.333 260.000,169.600 260.133,169.600 260.800 C 169.600 261.463,169.867 261.600,171.153 261.600 C 172.370 261.600,172.752 261.773,172.916 262.400 C 173.081 263.031,173.462 263.200,174.718 263.200 C 175.990 263.200,176.300 263.341,176.256 263.900 C 176.210 264.472,176.588 264.622,178.322 264.722 C 179.769 264.805,180.691 265.091,181.222 265.622 C 181.859 266.259,182.562 266.400,185.104 266.400 C 187.774 266.400,188.277 266.512,188.707 267.200 C 189.571 268.583,211.879 268.393,211.348 267.008 C 211.192 266.602,211.986 266.449,214.805 266.341 C 217.720 266.229,218.569 266.058,218.977 265.500 C 219.351 264.988,220.049 264.800,221.582 264.800 C 223.338 264.800,223.709 264.671,223.884 264.000 C 224.048 263.373,224.430 263.200,225.647 263.200 C 226.933 263.200,227.200 263.063,227.200 262.400 C 227.200 261.733,227.467 261.600,228.800 261.600 C 230.133 261.600,230.400 261.467,230.400 260.800 C 230.400 260.148,230.667 260.000,231.837 260.000 C 232.938 260.000,233.324 259.813,233.484 259.200 C 233.648 258.573,234.030 258.400,235.247 258.400 C 236.361 258.400,236.800 258.230,236.800 257.800 C 236.800 257.470,237.064 257.200,237.386 257.200 C 237.708 257.200,238.165 256.840,238.400 256.400 C 238.635 255.960,239.149 255.600,239.542 255.600 C 240.365 255.600,242.800 253.555,242.800 252.864 C 242.800 252.609,243.160 252.400,243.600 252.400 C 244.133 252.400,244.400 252.133,244.400 251.600 C 244.400 251.067,244.667 250.800,245.200 250.800 C 245.733 250.800,246.000 250.533,246.000 250.000 C 246.000 249.560,246.262 249.200,246.582 249.200 C 247.336 249.200,249.200 247.336,249.200 246.582 C 249.200 246.262,249.560 246.000,250.000 246.000 C 250.533 246.000,250.800 245.733,250.800 245.200 C 250.800 244.667,251.067 244.400,251.600 244.400 C 252.133 244.400,252.400 244.133,252.400 243.600 C 252.400 243.067,252.667 242.800,253.200 242.800 C 253.640 242.800,254.000 242.570,254.000 242.289 C 254.000 242.008,254.360 241.470,254.800 241.093 C 255.240 240.716,255.600 239.956,255.600 239.404 C 255.600 238.752,255.824 238.400,256.237 238.400 C 256.588 238.400,256.969 238.040,257.084 237.600 C 257.199 237.160,257.542 236.800,257.847 236.800 C 258.226 236.800,258.400 236.296,258.400 235.200 C 258.400 233.867,258.533 233.600,259.200 233.600 C 259.867 233.600,260.000 233.333,260.000 232.000 C 260.000 230.667,260.133 230.400,260.800 230.400 C 261.467 230.400,261.600 230.133,261.600 228.800 C 261.600 227.467,261.733 227.200,262.400 227.200 C 263.048 227.200,263.200 226.933,263.200 225.800 C 263.200 224.933,263.505 224.095,264.000 223.600 C 264.586 223.014,264.800 222.267,264.800 220.803 C 264.800 219.240,264.974 218.698,265.600 218.307 C 266.288 217.878,266.400 217.374,266.400 214.724 C 266.400 212.202,266.528 211.568,267.100 211.248 C 268.277 210.590,268.385 190.717,267.220 189.141 C 266.594 188.295,266.400 187.426,266.400 185.470 C 266.400 183.514,266.211 182.667,265.600 181.891 C 265.064 181.209,264.800 180.268,264.800 179.037 C 264.800 177.733,264.568 176.968,264.000 176.400 C 263.505 175.905,263.200 175.067,263.200 174.200 C 263.200 173.067,263.048 172.800,262.400 172.800 C 261.733 172.800,261.600 172.533,261.600 171.200 C 261.600 169.867,261.467 169.600,260.800 169.600 C 260.148 169.600,260.000 169.333,260.000 168.163 C 260.000 167.062,259.813 166.676,259.200 166.516 C 258.605 166.360,258.400 165.970,258.400 164.996 C 258.400 164.200,258.164 163.595,257.800 163.455 C 257.470 163.329,257.200 162.949,257.200 162.613 C 257.200 162.267,256.852 162.000,256.400 162.000 C 255.821 162.000,255.600 161.733,255.600 161.033 C 255.600 159.652,255.202 158.800,254.557 158.800 C 254.251 158.800,254.000 158.440,254.000 158.000 C 254.000 157.467,253.733 157.200,253.200 157.200 C 252.667 157.200,252.400 156.933,252.400 156.400 C 252.400 155.867,252.133 155.600,251.600 155.600 C 251.067 155.600,250.800 155.333,250.800 154.800 C 250.800 154.267,250.533 154.000,250.000 154.000 C 249.560 154.000,249.200 153.738,249.200 153.418 C 249.200 152.664,247.336 150.800,246.582 150.800 C 246.262 150.800,246.000 150.440,246.000 150.000 C 246.000 149.467,245.733 149.200,245.200 149.200 C 244.667 149.200,244.400 148.933,244.400 148.400 C 244.400 147.867,244.133 147.600,243.600 147.600 C 243.156 147.600,242.800 147.333,242.800 147.000 C 242.800 146.670,242.542 146.400,242.227 146.400 C 241.912 146.400,241.540 146.040,241.400 145.600 C 241.238 145.090,240.795 144.800,240.176 144.800 C 239.640 144.800,238.984 144.443,238.707 144.000 C 238.432 143.560,237.897 143.200,237.518 143.200 C 237.139 143.200,236.635 142.840,236.400 142.400 C 236.120 141.876,235.562 141.600,234.786 141.600 C 233.867 141.600,233.600 141.420,233.600 140.800 C 233.600 140.133,233.333 140.000,232.000 140.000 C 230.667 140.000,230.400 139.867,230.400 139.200 C 230.400 138.533,230.133 138.400,228.800 138.400 C 227.467 138.400,227.200 138.267,227.200 137.600 C 227.200 136.933,226.933 136.800,225.600 136.800 C 224.499 136.800,224.000 136.626,224.000 136.243 C 224.000 135.510,223.117 135.200,221.029 135.200 C 219.843 135.200,219.108 134.961,218.614 134.416 C 218.224 133.985,217.791 133.646,217.652 133.663 C 215.507 133.931,211.258 133.515,211.434 133.054 C 211.835 132.011,191.747 131.429,189.300 132.412 " stroke="none" fill="#1c94f4" fill-rule="evenodd"></path><path id="path2" d="M30.516 90.800 C 30.401 91.240,30.058 91.600,29.753 91.600 C 29.385 91.600,29.200 92.080,29.200 93.037 C 29.200 94.138,29.013 94.524,28.400 94.684 C 27.960 94.799,27.600 95.211,27.600 95.600 C 27.600 95.989,27.240 96.401,26.800 96.516 C 26.222 96.667,26.000 97.062,26.000 97.936 C 26.000 98.795,25.768 99.220,25.200 99.400 C 24.605 99.589,24.400 100.005,24.400 101.027 C 24.400 102.133,24.245 102.400,23.600 102.400 C 22.933 102.400,22.800 102.667,22.800 104.000 C 22.800 105.333,22.667 105.600,22.000 105.600 C 21.378 105.600,21.200 105.867,21.200 106.797 C 21.200 107.560,20.910 108.174,20.400 108.493 C 19.960 108.768,19.600 109.371,19.600 109.834 C 19.600 110.297,19.240 111.002,18.800 111.400 C 18.315 111.839,18.000 112.632,18.000 113.415 C 18.000 114.355,17.790 114.762,17.227 114.909 C 16.676 115.053,16.417 115.529,16.327 116.564 C 16.257 117.363,16.040 117.998,15.845 117.974 C 15.316 117.911,14.813 118.871,14.806 119.956 C 14.803 120.482,14.518 121.118,14.173 121.370 C 13.829 121.622,13.446 122.584,13.322 123.508 C 13.198 124.432,12.850 125.393,12.548 125.643 C 12.247 125.893,12.000 126.796,12.000 127.649 C 12.000 128.933,11.862 129.200,11.200 129.200 C 10.499 129.200,10.400 129.467,10.400 131.353 C 10.400 133.151,10.271 133.540,9.621 133.710 C 8.981 133.878,8.821 134.329,8.721 136.257 C 8.630 138.019,8.451 138.600,8.000 138.600 C 7.352 138.600,7.325 138.700,7.250 141.400 C 7.215 142.648,7.029 143.200,6.643 143.200 C 5.862 143.200,5.600 144.102,5.600 146.784 C 5.600 148.961,4.943 150.409,4.263 149.730 C 4.118 149.585,4.000 150.803,4.000 152.437 C 4.000 154.974,3.883 155.480,3.200 155.907 C 2.496 156.347,2.400 156.840,2.400 160.003 C 2.400 162.811,2.278 163.600,1.843 163.600 C 0.963 163.600,0.800 164.543,0.800 169.633 C 0.800 172.544,0.644 174.400,0.400 174.400 C 0.138 174.400,0.000 183.133,0.000 199.800 C 0.000 216.467,0.138 225.200,0.400 225.200 C 0.643 225.200,0.800 226.992,0.800 229.777 C 0.800 233.867,0.883 234.413,1.583 234.903 C 2.248 235.369,2.376 235.978,2.435 238.977 C 2.495 242.051,2.600 242.527,3.252 242.698 C 3.900 242.867,4.000 243.301,4.000 245.950 C 4.000 248.574,4.113 249.078,4.800 249.507 C 5.465 249.923,5.600 250.440,5.600 252.576 C 5.600 254.774,5.713 255.182,6.381 255.394 C 7.014 255.595,7.184 256.072,7.281 257.921 C 7.378 259.784,7.525 260.190,8.084 260.147 C 8.461 260.118,8.754 260.208,8.737 260.347 C 8.488 262.332,8.912 264.912,9.600 265.600 C 10.133 266.133,10.400 266.933,10.400 268.000 C 10.400 269.333,10.533 269.600,11.200 269.600 C 11.896 269.600,12.000 269.867,12.000 271.656 C 12.000 273.057,12.199 273.857,12.624 274.168 C 12.968 274.419,13.265 275.204,13.285 275.912 C 13.313 276.885,13.503 277.200,14.061 277.200 C 14.467 277.200,14.800 277.391,14.800 277.624 C 14.800 277.857,14.575 277.912,14.300 277.747 C 13.907 277.511,13.903 277.574,14.280 278.040 C 14.543 278.366,14.865 279.255,14.995 280.016 C 15.124 280.777,15.494 281.600,15.815 281.844 C 16.137 282.088,16.400 282.659,16.400 283.111 C 16.400 284.356,16.821 285.200,17.443 285.200 C 17.811 285.200,18.000 285.666,18.000 286.573 C 18.000 287.595,18.205 288.011,18.800 288.200 C 19.401 288.391,19.600 288.805,19.600 289.864 C 19.600 290.938,19.791 291.325,20.400 291.484 C 21.001 291.641,21.200 292.030,21.200 293.047 C 21.200 294.133,21.358 294.400,22.000 294.400 C 22.667 294.400,22.800 294.667,22.800 296.000 C 22.800 297.333,22.933 297.600,23.600 297.600 C 24.252 297.600,24.400 297.867,24.400 299.037 C 24.400 300.138,24.587 300.524,25.200 300.684 C 25.717 300.819,26.000 301.230,26.000 301.843 C 26.000 302.366,26.360 303.018,26.800 303.293 C 27.240 303.568,27.600 304.126,27.600 304.534 C 27.600 304.941,27.960 305.369,28.400 305.484 C 29.001 305.641,29.200 306.030,29.200 307.047 C 29.200 307.983,29.385 308.400,29.800 308.400 C 30.133 308.400,30.400 308.756,30.400 309.200 C 30.400 309.733,30.667 310.000,31.200 310.000 C 31.805 310.000,32.001 310.269,32.006 311.100 C 32.013 312.348,32.516 313.334,33.045 313.134 C 33.240 313.060,33.458 313.405,33.528 313.900 C 33.610 314.478,33.932 314.800,34.428 314.800 C 34.991 314.800,35.200 315.079,35.200 315.831 C 35.200 316.504,35.757 317.414,36.800 318.447 C 37.680 319.318,38.400 320.351,38.400 320.743 C 38.400 321.135,38.857 321.853,39.416 322.339 C 39.975 322.826,40.333 323.385,40.211 323.583 C 40.088 323.781,40.351 324.057,40.794 324.198 C 41.237 324.339,41.600 324.712,41.600 325.027 C 41.600 325.342,41.960 325.600,42.400 325.600 C 42.908 325.600,43.200 325.867,43.200 326.330 C 43.200 326.732,43.644 327.478,44.188 327.988 C 44.731 328.499,45.072 329.084,44.945 329.289 C 44.819 329.494,45.094 330.014,45.557 330.446 C 46.021 330.878,46.400 331.404,46.400 331.616 C 46.400 331.827,46.649 332.000,46.953 332.000 C 47.258 332.000,47.606 332.378,47.726 332.840 C 47.848 333.304,48.138 333.562,48.374 333.416 C 48.612 333.269,48.974 333.607,49.191 334.176 C 49.405 334.739,49.855 335.200,50.190 335.200 C 50.533 335.200,50.800 335.550,50.800 336.000 C 50.800 336.517,51.067 336.800,51.553 336.800 C 51.970 336.800,52.400 337.157,52.516 337.600 C 52.631 338.040,53.012 338.400,53.363 338.400 C 53.733 338.400,54.000 338.735,54.000 339.200 C 54.000 339.733,54.267 340.000,54.800 340.000 C 55.333 340.000,55.600 340.267,55.600 340.800 C 55.600 341.333,55.867 341.600,56.400 341.600 C 56.844 341.600,57.200 341.867,57.200 342.200 C 57.200 342.533,57.556 342.800,58.000 342.800 C 58.533 342.800,58.800 343.067,58.800 343.600 C 58.800 344.065,59.067 344.400,59.437 344.400 C 59.788 344.400,60.169 344.760,60.284 345.200 C 60.400 345.643,60.830 346.000,61.247 346.000 C 61.733 346.000,62.000 346.283,62.000 346.800 C 62.000 347.240,62.249 347.600,62.553 347.600 C 62.858 347.600,63.201 347.960,63.316 348.400 C 63.431 348.840,63.812 349.200,64.163 349.200 C 64.513 349.200,64.800 349.467,64.800 349.792 C 64.800 350.118,65.238 350.495,65.773 350.629 C 66.417 350.791,66.670 351.072,66.521 351.461 C 66.378 351.835,66.605 352.129,67.148 352.271 C 67.617 352.393,68.000 352.748,68.000 353.059 C 68.000 353.370,68.311 353.744,68.691 353.890 C 69.071 354.036,69.984 354.758,70.720 355.494 C 71.456 356.230,72.585 356.937,73.229 357.066 C 73.873 357.195,74.400 357.547,74.400 357.850 C 74.400 358.153,74.760 358.400,75.200 358.400 C 75.733 358.400,76.000 358.667,76.000 359.200 C 76.000 359.733,76.267 360.000,76.800 360.000 C 77.333 360.000,77.600 360.267,77.600 360.800 C 77.600 361.311,77.867 361.600,78.338 361.600 C 78.744 361.600,79.402 361.960,79.800 362.400 C 80.198 362.840,80.856 363.200,81.262 363.200 C 81.668 363.200,82.000 363.476,82.000 363.813 C 82.000 364.149,82.315 364.543,82.700 364.686 C 83.085 364.830,83.635 365.274,83.923 365.674 C 84.210 366.073,84.877 366.400,85.404 366.400 C 86.316 366.400,88.400 368.053,88.400 368.775 C 88.400 369.215,89.421 369.600,90.586 369.600 C 91.170 369.600,91.583 369.892,91.716 370.400 C 91.831 370.840,92.193 371.200,92.520 371.200 C 92.847 371.200,93.209 371.447,93.325 371.749 C 93.441 372.050,94.045 372.425,94.668 372.581 C 95.290 372.737,96.122 373.210,96.516 373.632 C 96.909 374.055,97.655 374.400,98.173 374.400 C 98.691 374.400,99.218 374.670,99.345 375.000 C 99.471 375.330,99.867 375.600,100.224 375.600 C 100.582 375.600,101.331 375.960,101.891 376.400 C 102.450 376.840,103.110 377.200,103.358 377.200 C 103.605 377.200,104.032 377.560,104.307 378.000 C 104.610 378.485,105.240 378.800,105.907 378.800 C 106.574 378.800,107.204 379.115,107.507 379.600 C 107.826 380.110,108.440 380.400,109.203 380.400 C 109.960 380.400,110.400 380.605,110.400 380.957 C 110.400 381.569,111.241 382.000,112.433 382.000 C 112.855 382.000,113.560 382.360,114.000 382.800 C 114.529 383.329,115.333 383.600,116.373 383.600 C 117.595 383.600,118.003 383.779,118.200 384.400 C 118.387 384.988,118.805 385.200,119.780 385.200 C 120.770 385.200,121.160 385.403,121.316 386.000 C 121.478 386.620,121.862 386.800,123.018 386.800 C 123.947 386.800,124.695 387.051,124.996 387.462 C 125.453 388.087,126.189 388.288,128.300 388.367 C 128.795 388.385,129.200 388.649,129.200 388.953 C 129.200 389.607,130.412 389.987,132.524 389.995 C 133.539 389.998,133.955 390.148,133.772 390.445 C 133.334 391.155,134.436 391.587,136.700 391.594 C 138.164 391.598,138.770 391.751,138.700 392.100 C 138.632 392.442,139.313 392.637,140.858 392.719 C 142.706 392.816,143.154 392.980,143.321 393.619 C 143.501 394.307,143.886 394.400,146.563 394.400 C 149.333 394.400,149.600 394.470,149.600 395.200 C 149.600 395.927,149.867 396.000,152.511 396.000 C 154.927 396.000,155.539 396.136,156.107 396.800 C 157.152 398.020,163.200 398.006,163.200 396.783 C 163.200 396.334,163.560 395.580,164.000 395.108 C 164.440 394.636,164.800 393.944,164.800 393.571 C 164.800 393.198,165.160 392.799,165.600 392.684 C 166.178 392.533,166.400 392.138,166.400 391.264 C 166.400 390.405,166.632 389.980,167.200 389.800 C 167.795 389.611,168.000 389.195,168.000 388.173 C 168.000 387.067,168.155 386.800,168.800 386.800 C 169.337 386.800,169.600 386.533,169.600 385.987 C 169.600 385.541,169.865 385.073,170.189 384.949 C 170.513 384.824,170.893 384.110,171.034 383.361 C 171.174 382.613,171.520 382.000,171.802 382.000 C 172.406 382.000,172.800 381.118,172.800 379.767 C 172.800 379.165,173.031 378.800,173.413 378.800 C 174.039 378.800,174.854 377.251,174.523 376.690 C 174.423 376.520,174.579 376.430,174.870 376.490 C 175.185 376.555,175.451 376.161,175.525 375.519 C 175.599 374.873,175.961 374.339,176.425 374.192 C 176.986 374.014,177.200 373.581,177.200 372.620 C 177.200 371.630,177.403 371.240,178.000 371.084 C 178.440 370.969,178.800 370.588,178.800 370.237 C 178.800 369.887,179.160 369.240,179.600 368.800 C 180.040 368.360,180.400 367.661,180.400 367.247 C 180.400 366.830,180.757 366.400,181.200 366.284 C 181.806 366.125,182.000 365.738,182.000 364.684 C 182.000 363.630,182.194 363.243,182.800 363.084 C 183.340 362.943,183.600 362.538,183.600 361.841 C 183.600 361.240,183.935 360.597,184.400 360.307 C 184.840 360.032,185.200 359.491,185.200 359.104 C 185.200 358.717,185.481 358.400,185.824 358.400 C 186.167 358.400,186.336 358.220,186.200 358.000 C 186.064 357.780,186.143 357.600,186.376 357.600 C 186.609 357.600,186.800 357.193,186.800 356.696 C 186.800 356.199,187.160 355.568,187.600 355.293 C 188.110 354.974,188.400 354.360,188.400 353.597 C 188.400 352.791,188.599 352.400,189.010 352.400 C 189.345 352.400,189.791 351.950,190.000 351.400 C 190.209 350.850,190.584 350.400,190.833 350.400 C 191.082 350.400,191.182 350.130,191.055 349.800 C 190.929 349.470,190.999 349.200,191.213 349.200 C 191.426 349.200,191.600 348.840,191.600 348.400 C 191.600 347.956,191.867 347.600,192.200 347.600 C 192.633 347.600,192.800 347.156,192.800 346.000 C 192.800 344.667,192.933 344.400,193.600 344.400 C 194.097 344.400,194.400 344.133,194.400 343.696 C 194.400 343.309,194.760 342.768,195.200 342.493 C 195.665 342.203,196.000 341.560,196.000 340.959 C 196.000 340.262,196.260 339.857,196.800 339.716 C 197.401 339.559,197.600 339.170,197.600 338.153 C 197.600 337.067,197.758 336.800,198.400 336.800 C 198.939 336.800,199.200 336.533,199.200 335.983 C 199.200 335.534,199.560 334.780,200.000 334.308 C 200.440 333.836,200.800 333.039,200.800 332.537 C 200.800 331.851,200.965 331.688,201.466 331.881 C 201.913 332.052,202.036 331.983,201.842 331.668 C 201.683 331.411,201.743 331.200,201.976 331.200 C 202.209 331.200,202.400 330.660,202.400 330.000 C 202.400 329.067,202.578 328.800,203.200 328.800 C 203.822 328.800,204.000 328.533,204.000 327.603 C 204.000 326.840,204.290 326.226,204.800 325.907 C 205.240 325.632,205.600 325.091,205.600 324.704 C 205.600 324.317,205.862 324.000,206.182 324.000 C 206.528 324.000,206.868 323.444,207.021 322.628 C 207.163 321.873,207.531 321.159,207.839 321.040 C 208.174 320.912,208.400 320.255,208.400 319.413 C 208.400 318.267,208.551 318.000,209.200 318.000 C 209.724 318.000,210.000 317.733,210.000 317.227 C 210.000 316.802,210.360 316.340,210.800 316.200 C 211.388 316.013,211.600 315.595,211.600 314.620 C 211.600 313.630,211.803 313.240,212.400 313.084 C 213.013 312.924,213.200 312.538,213.200 311.437 C 213.200 310.267,213.348 310.000,214.000 310.000 C 214.444 310.000,214.800 309.733,214.800 309.400 C 214.800 309.070,215.160 308.440,215.600 308.000 C 216.040 307.560,216.400 306.846,216.400 306.414 C 216.400 305.982,216.760 305.435,217.200 305.200 C 217.713 304.926,218.000 304.362,218.000 303.633 C 218.000 302.830,218.236 302.432,218.800 302.284 C 219.240 302.169,219.600 301.738,219.600 301.326 C 219.600 300.915,219.960 300.270,220.400 299.893 C 220.840 299.516,221.200 298.865,221.200 298.447 C 221.200 298.028,221.460 297.586,221.778 297.464 C 222.096 297.342,222.473 296.619,222.616 295.858 C 222.782 294.971,223.149 294.402,223.638 294.274 C 224.143 294.142,224.400 293.721,224.400 293.025 C 224.400 292.447,224.670 291.871,225.000 291.745 C 225.330 291.618,225.600 291.084,225.600 290.557 C 225.600 289.864,225.822 289.600,226.407 289.600 C 227.691 289.600,227.467 285.682,226.165 285.356 C 225.084 285.084,223.560 285.511,223.002 286.242 C 222.763 286.554,221.627 286.799,220.200 286.846 C 217.351 286.940,216.800 287.101,216.800 287.843 C 216.800 288.289,215.807 288.400,211.796 288.400 C 207.287 288.400,206.724 288.479,206.107 289.200 C 205.062 290.421,193.621 290.421,192.400 289.200 C 191.691 288.491,191.067 288.400,186.896 288.400 C 182.626 288.400,182.146 288.326,181.693 287.600 C 181.272 286.926,180.760 286.800,178.443 286.800 C 176.030 286.800,175.668 286.702,175.484 286.000 C 175.307 285.323,174.938 285.200,173.084 285.200 C 171.230 285.200,170.861 285.077,170.684 284.400 C 170.509 283.732,170.138 283.600,168.437 283.600 C 166.893 283.600,166.400 283.455,166.400 283.000 C 166.400 282.670,166.265 282.379,166.100 282.354 C 165.935 282.329,165.317 282.251,164.726 282.180 C 164.135 282.110,163.280 281.680,162.826 281.226 C 162.372 280.772,161.550 280.400,161.000 280.400 C 160.378 280.400,160.000 280.173,160.000 279.800 C 160.000 279.383,159.581 279.200,158.627 279.200 C 157.605 279.200,157.189 278.995,157.000 278.400 C 156.811 277.805,156.395 277.600,155.373 277.600 C 154.267 277.600,154.000 277.445,154.000 276.800 C 154.000 276.303,153.733 276.000,153.296 276.000 C 152.909 276.000,152.368 275.640,152.093 275.200 C 151.774 274.690,151.160 274.400,150.397 274.400 C 149.481 274.400,149.200 274.219,149.200 273.628 C 149.200 273.132,148.878 272.810,148.300 272.728 C 147.805 272.658,147.400 272.330,147.400 272.000 C 147.400 271.670,147.175 271.377,146.900 271.350 C 146.625 271.322,146.310 271.255,146.200 271.200 C 146.090 271.145,145.835 271.078,145.633 271.050 C 145.432 271.022,145.117 270.836,144.933 270.636 C 144.740 270.424,144.810 270.392,145.100 270.559 C 145.375 270.718,145.600 270.665,145.600 270.442 C 145.600 270.219,144.970 269.918,144.200 269.774 C 143.187 269.584,142.800 269.302,142.800 268.755 C 142.800 268.340,142.530 268.000,142.200 268.000 C 141.870 268.000,141.600 267.713,141.600 267.363 C 141.600 267.012,141.240 266.631,140.800 266.516 C 140.360 266.401,140.000 266.052,140.000 265.741 C 140.000 265.430,139.712 265.064,139.360 264.929 C 138.542 264.615,136.800 262.882,136.800 262.382 C 136.800 262.172,136.440 262.000,136.000 262.000 C 135.467 262.000,135.200 261.733,135.200 261.200 C 135.200 260.667,134.933 260.400,134.400 260.400 C 133.867 260.400,133.600 260.133,133.600 259.600 C 133.600 259.067,133.333 258.800,132.800 258.800 C 132.267 258.800,132.000 258.533,132.000 258.000 C 132.000 257.560,131.640 256.840,131.200 256.400 C 130.760 255.960,130.400 255.313,130.400 254.963 C 130.400 254.612,130.040 254.231,129.600 254.116 C 129.157 254.000,128.800 253.570,128.800 253.153 C 128.800 252.667,128.517 252.400,128.000 252.400 C 127.418 252.400,127.200 252.133,127.200 251.423 C 127.200 250.885,126.866 250.210,126.457 249.923 C 126.049 249.635,125.587 248.995,125.430 248.500 C 125.274 248.005,124.993 247.600,124.805 247.600 C 124.617 247.600,124.345 247.059,124.199 246.397 C 124.054 245.735,123.585 245.006,123.156 244.777 C 122.728 244.547,122.491 244.177,122.629 243.953 C 122.767 243.729,122.502 243.447,122.040 243.326 C 121.494 243.183,121.200 242.785,121.200 242.186 C 121.200 240.849,120.795 240.000,120.157 240.000 C 119.805 240.000,119.600 239.560,119.600 238.803 C 119.600 238.040,119.310 237.426,118.800 237.107 C 118.360 236.832,118.000 236.319,118.000 235.966 C 118.000 235.613,117.640 234.998,117.200 234.600 C 116.760 234.202,116.400 233.527,116.400 233.101 C 116.400 232.662,116.053 232.234,115.600 232.116 C 114.894 231.931,114.541 230.841,114.753 229.500 C 114.779 229.335,114.440 229.200,114.000 229.200 C 113.348 229.200,113.200 228.933,113.200 227.763 C 113.200 226.662,113.013 226.276,112.400 226.116 C 111.960 226.001,111.600 225.607,111.600 225.242 C 111.600 224.876,111.240 224.317,110.800 224.000 C 110.330 223.661,110.000 222.965,110.000 222.312 C 110.000 221.467,109.808 221.200,109.200 221.200 C 108.551 221.200,108.400 220.933,108.400 219.787 C 108.400 218.928,108.175 218.288,107.824 218.154 C 107.508 218.033,107.134 217.409,106.993 216.769 C 106.853 216.129,106.502 215.469,106.213 215.302 C 105.925 215.136,105.622 214.640,105.539 214.200 C 105.457 213.760,105.122 213.400,104.795 213.400 C 104.396 213.400,104.159 212.905,104.076 211.900 C 103.979 210.725,103.784 210.400,103.176 210.400 C 102.552 210.400,102.400 210.118,102.400 208.963 C 102.400 207.862,102.213 207.476,101.600 207.316 C 101.160 207.201,100.800 206.792,100.800 206.407 C 100.800 206.023,100.440 205.250,100.000 204.691 C 99.560 204.131,99.200 203.387,99.200 203.037 C 99.200 202.667,98.865 202.400,98.400 202.400 C 97.755 202.400,97.600 202.133,97.600 201.027 C 97.600 200.005,97.395 199.589,96.800 199.400 C 96.212 199.213,96.000 198.795,96.000 197.820 C 96.000 196.830,95.797 196.440,95.200 196.284 C 94.720 196.159,94.400 195.738,94.400 195.234 C 94.400 194.771,94.040 194.084,93.600 193.707 C 93.160 193.330,92.800 192.702,92.800 192.311 C 92.800 191.920,92.530 191.600,92.200 191.600 C 91.832 191.600,91.600 191.226,91.600 190.633 C 91.600 189.282,91.206 188.400,90.602 188.400 C 90.320 188.400,89.970 187.765,89.824 186.989 C 89.679 186.213,89.406 185.673,89.219 185.788 C 89.031 185.904,88.690 185.459,88.460 184.800 C 88.230 184.140,87.842 183.600,87.597 183.600 C 87.353 183.600,87.264 183.420,87.400 183.200 C 87.536 182.980,87.469 182.800,87.250 182.800 C 87.032 182.800,86.796 182.305,86.727 181.700 C 86.639 180.940,86.384 180.617,85.900 180.656 C 85.357 180.699,85.200 180.399,85.200 179.318 C 85.200 178.262,85.007 177.875,84.400 177.716 C 83.834 177.568,83.600 177.170,83.600 176.357 C 83.600 175.640,83.299 175.019,82.800 174.707 C 82.360 174.432,82.000 173.919,82.000 173.566 C 82.000 173.213,81.640 172.598,81.200 172.200 C 80.760 171.802,80.400 171.054,80.400 170.538 C 80.400 169.867,80.173 169.600,79.600 169.600 C 78.955 169.600,78.800 169.333,78.800 168.227 C 78.800 167.205,78.595 166.789,78.000 166.600 C 77.432 166.420,77.200 165.995,77.200 165.136 C 77.200 164.262,76.978 163.867,76.400 163.716 C 75.957 163.600,75.600 163.170,75.600 162.753 C 75.600 162.339,75.330 162.000,75.000 162.000 C 74.578 162.000,74.400 161.574,74.400 160.563 C 74.400 159.490,74.208 159.075,73.646 158.928 C 73.132 158.793,72.811 158.231,72.641 157.165 C 72.480 156.158,72.178 155.600,71.795 155.600 C 71.468 155.600,71.177 155.420,71.150 155.200 C 71.123 154.980,71.055 154.620,71.000 154.400 C 70.945 154.180,70.877 153.730,70.850 153.400 C 70.823 153.070,70.530 152.800,70.200 152.800 C 69.827 152.800,69.600 152.422,69.600 151.800 C 69.600 151.067,69.387 150.800,68.800 150.800 C 68.076 150.800,67.733 149.807,67.945 148.324 C 67.966 148.173,67.627 147.936,67.192 147.797 C 66.503 147.579,66.162 146.616,66.364 145.466 C 66.396 145.282,66.058 145.036,65.611 144.919 C 65.083 144.781,64.800 144.375,64.800 143.753 C 64.800 143.229,64.440 142.440,64.000 142.000 C 63.560 141.560,63.200 140.930,63.200 140.600 C 63.200 140.267,62.844 140.000,62.400 140.000 C 61.733 140.000,61.600 139.733,61.600 138.400 C 61.600 137.067,61.467 136.800,60.800 136.800 C 60.066 136.800,59.709 135.717,59.964 134.266 C 59.996 134.082,59.658 133.836,59.211 133.719 C 58.630 133.567,58.400 133.176,58.400 132.341 C 58.400 131.673,58.143 131.076,57.800 130.945 C 57.470 130.818,57.200 130.374,57.200 129.957 C 57.200 129.467,56.918 129.200,56.400 129.200 C 55.748 129.200,55.600 128.933,55.600 127.763 C 55.600 126.662,55.413 126.276,54.800 126.116 C 54.292 125.983,54.000 125.570,54.000 124.986 C 54.000 123.649,53.595 122.800,52.957 122.800 C 52.651 122.800,52.400 122.440,52.400 122.000 C 52.400 121.560,52.040 120.840,51.600 120.400 C 51.160 119.960,50.800 119.313,50.800 118.963 C 50.800 118.612,50.440 118.231,50.000 118.116 C 49.403 117.960,49.200 117.570,49.200 116.580 C 49.200 115.605,48.988 115.187,48.400 115.000 C 47.832 114.820,47.600 114.395,47.600 113.536 C 47.600 112.662,47.378 112.267,46.800 112.116 C 46.281 111.980,46.000 111.570,46.000 110.949 C 46.000 110.423,45.640 109.684,45.200 109.307 C 44.760 108.930,44.400 108.302,44.400 107.911 C 44.400 107.467,44.100 107.200,43.600 107.200 C 42.931 107.200,42.800 106.933,42.800 105.576 C 42.800 104.653,42.636 104.054,42.420 104.188 C 42.106 104.382,40.915 102.821,41.132 102.500 C 41.350 102.179,41.151 101.116,40.918 101.349 C 40.762 101.504,40.346 101.039,39.992 100.316 C 39.639 99.592,39.174 99.032,38.960 99.072 C 38.745 99.111,38.533 98.661,38.488 98.072 C 38.443 97.482,38.045 96.701,37.603 96.336 C 37.161 95.971,36.800 95.189,36.800 94.598 C 36.800 93.862,36.549 93.460,36.000 93.316 C 35.451 93.172,35.200 92.770,35.200 92.033 C 35.200 89.971,31.020 88.871,30.516 90.800 " stroke="none" fill="#4cb44c" fill-rule="evenodd"></path><path id="path3" d="M260.900 132.267 C 260.058 132.604,260.289 134.711,261.200 135.000 C 261.640 135.140,262.000 135.602,262.000 136.027 C 262.000 136.452,262.166 136.800,262.368 136.800 C 262.837 136.800,266.400 140.346,266.400 140.812 C 266.400 141.003,266.683 141.319,267.029 141.512 C 267.376 141.706,267.871 142.219,268.129 142.652 C 269.689 145.260,270.254 145.995,270.700 145.997 C 270.975 145.999,271.200 146.360,271.200 146.800 C 271.200 147.333,271.467 147.600,272.000 147.600 C 272.533 147.600,272.800 147.867,272.800 148.400 C 272.800 149.637,272.856 149.764,273.654 150.323 C 274.064 150.610,274.400 151.195,274.400 151.623 C 274.400 152.133,274.674 152.400,275.200 152.400 C 275.815 152.400,276.000 152.667,276.000 153.551 C 276.000 154.242,276.314 154.922,276.786 155.251 C 277.218 155.553,277.638 156.340,277.719 157.000 C 277.805 157.699,278.104 158.200,278.434 158.200 C 278.777 158.200,279.048 158.699,279.123 159.470 C 279.191 160.169,279.506 160.956,279.823 161.219 C 280.140 161.483,280.400 162.000,280.400 162.369 C 280.400 162.738,280.616 163.256,280.880 163.520 C 281.144 163.784,281.200 164.000,281.004 164.000 C 280.807 164.000,280.943 164.225,281.305 164.500 C 281.856 164.918,282.164 165.846,282.367 167.700 C 282.385 167.865,282.670 168.000,283.000 168.000 C 283.444 168.000,283.600 168.466,283.600 169.797 C 283.600 171.160,283.793 171.714,284.400 172.093 C 284.993 172.463,285.200 173.026,285.200 174.264 C 285.200 176.318,285.513 177.200,286.243 177.200 C 286.669 177.200,286.800 177.895,286.800 180.151 C 286.800 182.879,287.379 184.488,288.101 183.765 C 288.381 183.486,288.533 193.879,288.428 206.169 C 288.357 214.565,288.285 215.420,287.575 216.322 C 286.982 217.076,286.800 217.942,286.800 220.007 C 286.800 222.278,286.685 222.737,286.074 222.897 C 285.504 223.046,285.327 223.545,285.251 225.219 C 285.147 227.500,284.942 228.135,284.414 227.809 C 283.949 227.521,283.600 228.608,283.600 230.344 C 283.600 231.327,283.332 232.052,282.800 232.507 C 282.355 232.888,282.000 233.687,282.000 234.307 C 282.000 234.927,281.645 235.726,281.200 236.107 C 280.760 236.484,280.400 237.222,280.400 237.747 C 280.400 238.272,280.130 238.926,279.800 239.200 C 279.470 239.474,279.200 240.227,279.200 240.873 C 279.200 241.519,279.065 241.965,278.900 241.866 C 278.616 241.694,277.287 242.857,277.500 243.090 C 277.955 243.589,277.476 244.800,276.824 244.800 C 276.216 244.800,276.021 245.125,275.924 246.300 C 275.840 247.311,275.605 247.800,275.200 247.800 C 274.795 247.800,274.560 248.289,274.476 249.300 C 274.394 250.294,274.154 250.800,273.766 250.800 C 273.444 250.800,273.018 251.225,272.821 251.745 C 272.623 252.265,272.177 252.800,271.831 252.933 C 271.465 253.073,271.200 253.644,271.200 254.291 C 271.200 254.974,270.890 255.601,270.400 255.907 C 269.890 256.226,269.600 256.840,269.600 257.603 C 269.600 258.411,269.401 258.800,268.987 258.800 C 268.651 258.800,268.263 259.115,268.127 259.500 C 267.990 259.885,267.649 260.470,267.368 260.800 C 267.087 261.130,266.828 261.531,266.793 261.691 C 266.493 263.066,266.247 263.573,265.798 263.745 C 265.511 263.856,265.152 264.510,265.000 265.200 C 264.849 265.889,264.392 266.577,263.986 266.727 C 263.250 266.999,263.200 267.091,263.200 268.171 C 263.200 268.486,262.949 268.993,262.643 269.300 C 262.337 269.606,262.019 270.204,261.938 270.628 C 261.856 271.053,261.522 271.400,261.195 271.400 C 260.796 271.400,260.559 271.895,260.476 272.900 C 260.379 274.075,260.184 274.400,259.576 274.400 C 258.937 274.400,258.800 274.683,258.800 276.000 C 258.800 277.314,258.662 277.600,258.028 277.600 C 257.534 277.600,257.206 277.925,257.118 278.500 C 257.043 278.995,256.747 279.351,256.461 279.290 C 256.175 279.230,256.055 279.365,256.194 279.590 C 256.333 279.816,256.257 280.000,256.024 280.000 C 255.791 280.000,255.600 280.438,255.600 280.973 C 255.600 281.595,255.311 282.038,254.800 282.200 C 254.212 282.387,254.000 282.805,254.000 283.780 C 254.000 284.770,253.797 285.160,253.200 285.316 C 252.739 285.437,252.400 285.862,252.400 286.320 C 252.400 286.757,252.119 287.222,251.775 287.354 C 251.431 287.486,251.261 287.776,251.398 287.997 C 251.535 288.219,251.457 288.400,251.224 288.400 C 250.991 288.400,250.800 288.760,250.800 289.200 C 250.800 289.642,250.533 290.000,250.205 290.000 C 249.822 290.000,249.520 290.558,249.359 291.565 C 249.189 292.631,248.868 293.193,248.354 293.328 C 247.883 293.451,247.600 293.881,247.600 294.474 C 247.600 294.995,247.240 295.730,246.800 296.107 C 246.360 296.484,246.000 297.064,246.000 297.396 C 246.000 297.728,245.730 298.000,245.400 298.000 C 244.981 298.000,244.800 298.422,244.800 299.400 C 244.800 300.533,244.648 300.800,244.000 300.800 C 243.333 300.800,243.200 301.067,243.200 302.400 C 243.200 303.733,243.067 304.000,242.400 304.000 C 241.808 304.000,241.600 304.267,241.600 305.024 C 241.600 305.587,241.465 305.965,241.300 305.866 C 240.692 305.497,240.000 306.633,240.000 308.000 C 240.000 308.533,239.733 308.800,239.200 308.800 C 238.537 308.800,238.400 309.067,238.400 310.353 C 238.400 311.570,238.227 311.952,237.600 312.116 C 237.121 312.241,236.800 312.662,236.800 313.163 C 236.800 313.623,236.575 313.955,236.300 313.900 C 236.025 313.845,235.845 314.025,235.900 314.300 C 235.955 314.575,235.820 314.800,235.600 314.800 C 235.380 314.800,235.200 315.166,235.200 315.613 C 235.200 316.070,234.837 316.560,234.370 316.733 C 233.914 316.901,233.554 317.166,233.570 317.320 C 233.731 318.838,233.508 319.531,232.800 319.716 C 232.347 319.834,232.000 320.262,232.000 320.701 C 232.000 321.127,231.640 321.802,231.200 322.200 C 230.760 322.598,230.400 323.256,230.400 323.662 C 230.400 324.068,230.130 324.400,229.800 324.400 C 229.367 324.400,229.200 324.844,229.200 326.000 C 229.200 327.333,229.067 327.600,228.400 327.600 C 227.652 327.600,227.293 328.747,227.586 330.200 C 227.630 330.420,227.533 330.467,227.370 330.303 C 226.932 329.866,226.000 330.781,226.000 331.649 C 226.000 332.062,225.749 332.400,225.443 332.400 C 224.840 332.400,224.400 333.238,224.400 334.386 C 224.400 334.782,224.040 335.201,223.600 335.316 C 222.987 335.476,222.800 335.862,222.800 336.963 C 222.800 338.133,222.652 338.400,222.000 338.400 C 221.500 338.400,221.200 338.667,221.200 339.112 C 221.200 339.503,220.840 340.083,220.400 340.400 C 219.930 340.739,219.600 341.435,219.600 342.088 C 219.600 342.933,219.408 343.200,218.800 343.200 C 218.158 343.200,218.000 343.467,218.000 344.553 C 218.000 345.570,217.801 345.959,217.200 346.116 C 216.735 346.238,216.400 346.662,216.400 347.129 C 216.400 347.571,216.187 348.004,215.928 348.091 C 215.668 348.177,215.263 348.820,215.028 349.518 C 214.792 350.217,214.440 350.775,214.245 350.760 C 213.688 350.716,213.213 351.695,213.206 352.900 C 213.202 353.586,212.984 354.000,212.627 354.000 C 212.298 354.000,211.999 354.470,211.927 355.100 C 211.851 355.757,211.587 356.156,211.270 356.090 C 210.979 356.030,210.855 356.165,210.994 356.390 C 211.133 356.616,211.057 356.800,210.824 356.800 C 210.591 356.800,210.400 357.250,210.400 357.800 C 210.400 358.533,210.187 358.800,209.600 358.800 C 208.933 358.800,208.800 359.067,208.800 360.400 C 208.800 361.733,208.667 362.000,208.000 362.000 C 207.475 362.000,207.200 362.267,207.200 362.776 C 207.200 363.203,207.002 363.675,206.759 363.825 C 206.517 363.975,206.064 364.706,205.754 365.449 C 205.443 366.192,204.922 366.800,204.595 366.800 C 204.186 366.800,204.000 367.222,204.000 368.153 C 204.000 369.170,203.801 369.559,203.200 369.716 C 202.660 369.857,202.400 370.262,202.400 370.959 C 202.400 371.560,202.065 372.203,201.600 372.493 C 201.160 372.768,200.800 373.315,200.800 373.709 C 200.800 374.103,200.535 374.527,200.211 374.651 C 199.887 374.776,199.510 375.473,199.373 376.202 C 199.215 377.044,198.843 377.600,198.351 377.729 C 197.925 377.840,197.604 378.082,197.636 378.266 C 197.839 379.422,197.497 380.379,196.800 380.600 C 196.358 380.740,196.000 381.205,196.000 381.640 C 196.000 382.072,195.730 382.529,195.400 382.655 C 195.063 382.785,194.800 383.380,194.800 384.016 C 194.800 384.795,194.551 385.225,194.000 385.400 C 193.405 385.589,193.200 386.005,193.200 387.027 C 193.200 388.133,193.045 388.400,192.400 388.400 C 191.903 388.400,191.600 388.667,191.600 389.104 C 191.600 389.491,191.240 390.032,190.800 390.307 C 190.290 390.626,190.000 391.240,190.000 392.003 C 190.000 392.933,189.822 393.200,189.200 393.200 C 188.558 393.200,188.400 393.467,188.400 394.553 C 188.400 395.570,188.201 395.959,187.600 396.116 C 186.946 396.287,186.800 396.662,186.800 398.163 L 186.800 400.000 206.200 400.000 C 218.867 400.000,225.600 399.861,225.600 399.600 C 225.600 399.354,227.584 399.200,230.751 399.200 C 235.426 399.200,235.953 399.127,236.451 398.411 C 236.921 397.737,237.514 397.613,240.552 397.556 C 243.647 397.498,244.129 397.393,244.299 396.744 C 244.467 396.102,244.904 396.000,247.484 396.000 C 250.138 396.000,250.498 395.910,250.684 395.200 C 250.866 394.506,251.230 394.400,253.443 394.400 C 255.560 394.400,256.078 394.264,256.493 393.600 C 256.889 392.966,257.426 392.800,259.076 392.800 C 260.475 392.800,261.266 392.610,261.483 392.223 C 261.680 391.872,262.557 391.608,263.734 391.547 C 265.001 391.481,265.823 391.217,266.134 390.773 C 266.425 390.358,267.356 390.024,268.556 389.904 C 269.791 389.781,270.641 389.469,270.873 389.055 C 271.098 388.654,271.754 388.400,272.566 388.400 C 273.295 388.400,274.350 388.040,274.909 387.600 C 275.469 387.160,276.500 386.800,277.201 386.800 C 278.138 386.800,278.530 386.589,278.684 386.000 C 278.848 385.373,279.230 385.200,280.447 385.200 C 281.733 385.200,282.000 385.063,282.000 384.400 C 282.000 383.733,282.267 383.600,283.600 383.600 C 285.041 383.600,285.364 383.365,285.275 382.383 C 285.264 382.264,285.820 382.123,286.510 382.070 C 287.200 382.018,288.119 381.665,288.551 381.287 C 289.147 380.766,289.265 380.745,289.039 381.200 C 288.818 381.644,288.880 381.632,289.276 381.152 C 289.571 380.796,290.395 380.377,291.109 380.220 C 291.823 380.063,292.303 379.767,292.177 379.563 C 292.050 379.358,292.499 379.080,293.173 378.945 C 294.019 378.776,294.400 378.467,294.400 377.950 C 294.400 377.342,294.702 377.200,296.000 377.200 C 297.333 377.200,297.600 377.067,297.600 376.400 C 297.600 375.733,297.867 375.600,299.200 375.600 C 300.333 375.600,300.800 375.430,300.800 375.018 C 300.800 374.672,301.356 374.332,302.172 374.179 C 302.927 374.037,303.641 373.669,303.760 373.361 C 303.878 373.052,304.238 372.800,304.560 372.800 C 304.883 372.800,305.260 372.440,305.400 372.000 C 305.621 371.303,306.578 370.961,307.734 371.164 C 307.918 371.196,308.164 370.858,308.281 370.411 C 308.398 369.965,308.810 369.600,309.198 369.600 C 309.585 369.600,310.149 369.295,310.451 368.923 C 310.924 368.340,310.917 368.293,310.400 368.587 C 310.042 368.791,309.935 368.781,310.133 368.564 C 310.317 368.364,310.587 368.193,310.733 368.185 C 311.878 368.119,313.200 367.480,313.200 366.992 C 313.200 366.667,313.517 366.400,313.904 366.400 C 314.291 366.400,314.825 366.053,315.090 365.628 C 315.355 365.203,316.073 364.798,316.686 364.728 C 317.353 364.651,317.800 364.359,317.800 364.000 C 317.800 363.670,318.205 363.342,318.700 363.272 C 319.278 363.190,319.600 362.868,319.600 362.372 C 319.600 361.816,319.879 361.600,320.597 361.600 C 321.160 361.600,321.810 361.252,322.093 360.800 C 322.368 360.360,322.818 360.000,323.093 360.000 C 323.368 360.000,323.818 359.640,324.093 359.200 C 324.368 358.760,324.819 358.400,325.096 358.400 C 325.373 358.400,325.600 358.130,325.600 357.800 C 325.600 357.467,325.956 357.200,326.400 357.200 C 326.933 357.200,327.200 356.933,327.200 356.400 C 327.200 355.889,327.467 355.600,327.938 355.600 C 328.344 355.600,329.002 355.240,329.400 354.800 C 329.798 354.360,330.289 354.000,330.491 354.000 C 330.971 354.000,332.157 352.812,331.729 352.760 C 331.548 352.738,331.850 352.595,332.400 352.442 C 332.950 352.289,333.403 351.992,333.406 351.782 C 333.416 351.181,335.573 349.200,336.218 349.200 C 336.538 349.200,336.800 348.840,336.800 348.400 C 336.800 347.960,337.058 347.600,337.373 347.600 C 337.688 347.600,338.060 347.240,338.200 346.800 C 338.340 346.360,338.802 346.000,339.227 346.000 C 339.733 346.000,340.000 345.724,340.000 345.200 C 340.000 344.667,340.267 344.400,340.800 344.400 C 341.333 344.400,341.600 344.133,341.600 343.600 C 341.600 343.156,341.867 342.800,342.200 342.800 C 342.530 342.800,342.800 342.530,342.800 342.200 C 342.800 341.867,343.156 341.600,343.600 341.600 C 344.124 341.600,344.400 341.333,344.400 340.827 C 344.400 340.402,344.760 339.940,345.200 339.800 C 345.640 339.660,346.000 339.288,346.000 338.973 C 346.000 338.658,346.287 338.400,346.637 338.400 C 346.988 338.400,347.365 338.057,347.474 337.637 C 347.584 337.217,348.017 336.784,348.437 336.674 C 348.857 336.565,349.200 336.209,349.200 335.884 C 349.200 335.559,349.560 335.199,350.000 335.084 C 350.502 334.953,350.800 334.538,350.800 333.971 C 350.800 333.474,350.918 333.185,351.063 333.330 C 351.410 333.677,352.450 332.804,352.190 332.383 C 352.079 332.204,352.345 331.944,352.780 331.806 C 353.279 331.648,353.665 331.058,353.824 330.214 C 353.983 329.366,354.355 328.800,354.838 328.674 C 355.257 328.565,355.600 328.188,355.600 327.837 C 355.600 327.487,355.858 327.200,356.173 327.200 C 356.488 327.200,356.860 326.840,357.000 326.400 C 357.140 325.960,357.512 325.600,357.827 325.600 C 358.142 325.600,358.400 325.252,358.400 324.827 C 358.400 324.402,358.760 323.940,359.200 323.800 C 359.760 323.622,360.000 323.195,360.000 322.373 C 360.000 321.467,360.182 321.200,360.800 321.200 C 361.317 321.200,361.600 320.933,361.600 320.447 C 361.600 320.030,361.957 319.600,362.400 319.484 C 362.879 319.359,363.200 318.938,363.200 318.437 C 363.200 317.977,363.451 317.600,363.757 317.600 C 364.369 317.600,364.800 316.759,364.800 315.567 C 364.800 315.145,365.074 314.800,365.410 314.800 C 365.745 314.800,366.182 314.375,366.379 313.855 C 366.577 313.335,367.024 312.800,367.373 312.666 C 367.722 312.532,367.984 312.282,367.956 312.111 C 367.774 310.999,368.083 310.000,368.610 310.000 C 368.945 310.000,369.395 309.539,369.609 308.976 C 369.823 308.413,370.175 308.061,370.392 308.195 C 370.611 308.331,370.898 307.728,371.042 306.826 C 371.184 305.940,371.437 305.299,371.605 305.403 C 371.772 305.506,372.094 305.368,372.321 305.096 C 372.764 304.562,372.800 304.419,372.800 303.200 C 372.800 302.760,373.025 302.400,373.301 302.400 C 373.882 302.400,375.603 299.332,375.601 298.300 C 375.600 297.866,375.904 297.600,376.400 297.600 C 377.067 297.600,377.200 297.333,377.200 296.000 C 377.200 294.683,377.337 294.400,377.976 294.400 C 378.584 294.400,378.779 294.075,378.876 292.900 C 378.960 291.889,379.195 291.400,379.600 291.400 C 380.008 291.400,380.241 290.905,380.327 289.856 C 380.419 288.729,380.663 288.256,381.227 288.109 C 381.792 287.961,382.000 287.555,382.000 286.600 C 382.000 285.645,382.208 285.239,382.773 285.091 C 383.337 284.944,383.581 284.471,383.673 283.344 C 383.753 282.372,383.985 281.837,384.300 281.900 C 384.575 281.955,384.814 281.865,384.831 281.700 C 384.847 281.535,384.933 281.040,385.021 280.600 C 385.109 280.160,385.224 279.291,385.278 278.670 C 385.331 278.048,385.543 277.435,385.749 277.308 C 385.971 277.170,385.986 277.305,385.785 277.638 C 385.497 278.117,385.547 278.119,386.123 277.651 C 386.495 277.349,386.800 276.559,386.800 275.895 C 386.800 275.231,387.072 274.488,387.405 274.244 C 388.006 273.802,388.321 272.774,388.482 270.725 C 388.533 270.075,388.850 269.576,389.283 269.462 C 389.821 269.322,390.000 268.877,390.000 267.680 C 390.000 266.603,390.203 266.008,390.625 265.846 C 390.969 265.714,391.139 265.424,391.002 265.203 C 390.865 264.981,390.910 264.800,391.102 264.800 C 391.294 264.800,391.491 263.945,391.541 262.900 C 391.593 261.796,391.876 260.814,392.216 260.556 C 392.604 260.261,392.800 259.371,392.800 257.903 C 392.800 256.030,392.922 255.661,393.600 255.484 C 394.300 255.301,394.400 254.938,394.400 252.571 C 394.400 251.084,394.511 249.978,394.648 250.114 C 395.336 250.802,396.000 249.082,396.000 246.612 C 396.000 244.519,396.167 243.787,396.800 243.108 C 397.458 242.401,397.600 241.696,397.600 239.128 C 397.600 236.440,397.711 235.937,398.400 235.507 C 399.129 235.052,399.200 234.574,399.200 230.104 C 399.200 227.101,399.355 225.200,399.600 225.200 C 399.862 225.200,400.000 216.467,400.000 199.800 C 400.000 183.133,399.862 174.400,399.600 174.400 C 399.358 174.400,399.200 172.685,399.200 170.054 C 399.200 166.314,399.089 165.566,398.400 164.691 C 397.762 163.880,397.600 163.068,397.600 160.686 C 397.600 157.955,397.026 156.308,396.320 157.014 C 396.206 157.127,396.078 155.753,396.035 153.960 C 395.962 150.936,395.361 149.172,394.648 149.886 C 394.511 150.022,394.400 148.954,394.400 147.513 C 394.400 145.230,394.297 144.866,393.600 144.684 C 392.920 144.506,392.800 144.138,392.800 142.237 C 392.800 139.556,392.797 139.540,392.129 138.871 C 391.838 138.581,391.600 137.917,391.600 137.397 C 391.600 136.355,391.163 135.219,390.062 133.400 L 389.335 132.200 325.367 132.133 C 290.185 132.097,261.175 132.157,260.900 132.267 " stroke="none" fill="#fcc404" fill-rule="evenodd"></path><path id="path4" d="M8.100 260.265 C 7.825 260.376,7.600 260.642,7.600 260.857 C 7.600 261.072,7.765 261.145,7.966 261.021 C 8.167 260.897,8.419 261.021,8.525 261.298 C 8.631 261.574,8.699 261.395,8.674 260.900 C 8.650 260.405,8.623 260.014,8.615 260.032 C 8.607 260.049,8.375 260.154,8.100 260.265 M13.600 277.551 C 13.600 278.362,14.632 278.767,14.692 277.980 C 14.725 277.541,14.499 277.200,14.175 277.200 C 13.859 277.200,13.600 277.358,13.600 277.551 " stroke="none" fill="#4c8474" fill-rule="evenodd"></path></g></svg>