<?xml version="1.0" encoding="UTF-8" ?>
<!DOCTYPE svg PUBLIC "-//W3C//DTD SVG 1.1//EN" "http://www.w3.org/Graphics/SVG/1.1/DTD/svg11.dtd">
<svg width="512pt" height="512pt" viewBox="0 0 512 512" version="1.1" xmlns="http://www.w3.org/2000/svg">
<g id="#ffffffff">
<path fill="#ffffff" opacity="1.00" d=" M 130.83 83.70 C 134.14 69.19 148.00 57.99 162.91 58.01 C 224.94 57.99 286.97 58.00 348.99 58.01 C 365.07 57.88 379.87 70.94 381.73 86.91 C 382.22 91.60 382.05 96.32 382.06 101.02 C 382.02 124.75 382.01 148.48 382.00 172.21 C 381.34 176.24 377.08 179.22 373.07 178.05 C 370.36 177.40 368.57 174.86 368.00 172.25 C 367.81 144.86 368.25 117.45 367.60 90.07 C 365.81 79.96 356.37 71.87 346.05 72.01 C 286.01 72.02 225.97 71.99 165.93 72.03 C 156.46 71.95 147.49 78.79 144.93 87.88 C 143.20 94.76 144.18 101.93 143.94 108.94 C 143.94 115.29 143.94 121.65 143.94 128.00 C 143.99 135.00 144.01 141.99 144.00 148.99 C 144.01 156.01 143.98 163.03 144.03 170.05 C 144.19 173.16 142.92 176.67 139.78 177.82 C 136.15 179.33 132.17 177.19 130.36 173.95 C 130.26 173.30 130.06 172.00 129.96 171.35 C 130.04 148.25 129.96 125.15 129.94 102.05 C 129.99 95.93 129.57 89.73 130.83 83.70 Z" />
<path fill="#ffffff" opacity="1.00" d=" M 158.31 95.89 C 159.32 90.05 165.04 85.63 170.95 86.00 C 227.65 86.00 284.36 86.00 341.06 86.00 C 345.13 85.72 348.83 87.80 351.56 90.67 C 353.16 93.14 354.10 96.00 354.06 98.96 C 354.23 126.61 353.74 154.26 354.20 181.90 C 353.91 201.63 354.23 221.36 353.97 241.09 C 353.23 245.69 349.99 249.88 345.47 251.27 C 341.75 252.33 337.83 251.95 334.02 252.01 C 280.00 251.99 225.97 252.02 171.95 252.00 C 166.08 252.41 160.05 248.73 158.51 242.90 C 157.51 238.04 158.13 233.04 157.99 228.11 C 158.03 216.09 157.96 204.06 157.99 192.03 C 158.02 184.69 157.97 177.35 158.00 170.01 C 158.01 163.02 157.99 156.03 158.00 149.04 C 158.01 142.01 157.98 134.99 158.00 127.96 C 158.01 121.60 157.98 115.24 158.00 108.88 C 158.11 104.55 157.71 100.19 158.31 95.89 M 233.96 112.08 C 218.78 117.87 206.13 129.92 199.65 144.83 C 196.25 152.75 194.52 161.34 194.53 169.96 C 194.69 180.70 197.67 191.32 203.10 200.58 C 209.72 211.59 219.67 220.61 231.50 225.70 C 245.73 231.99 262.41 232.52 277.00 227.10 C 291.24 221.92 303.56 211.27 310.32 197.66 L 310.06 197.18 L 310.70 196.98 C 315.39 188.48 317.30 178.66 317.45 169.01 C 317.32 160.68 315.61 152.40 312.29 144.75 C 305.82 129.92 293.25 117.90 278.13 112.12 C 264.10 106.65 248.01 106.64 233.96 112.08 M 321.37 216.50 C 317.62 217.65 314.76 221.17 314.45 225.08 C 313.76 230.63 318.42 236.03 323.99 236.20 C 329.95 236.69 335.34 231.01 334.55 225.09 C 334.14 218.89 327.21 214.36 321.37 216.50 Z" />
<path fill="#ffffff" opacity="1.00" d=" M 224.95 265.00 C 245.65 265.00 266.35 265.00 287.05 265.00 C 287.01 269.66 287.22 274.33 286.81 278.98 C 285.54 280.97 283.74 283.01 281.16 282.93 C 275.80 283.16 270.43 282.93 265.06 283.01 C 265.06 296.34 265.06 309.67 265.06 323.00 C 259.02 323.00 252.98 323.00 246.94 323.00 C 246.94 309.67 246.94 296.34 246.94 283.00 C 241.56 282.94 236.18 283.16 230.81 282.93 C 228.20 283.02 226.40 280.95 225.12 278.95 C 224.77 274.31 225.00 269.65 224.95 265.00 Z" />
<path fill="#ffffff" opacity="1.00" d=" M 4.15 361.04 C 172.05 361.05 339.95 361.04 507.86 361.05 C 507.38 378.34 507.79 395.64 507.66 412.94 C 507.82 423.91 507.87 435.14 504.33 445.67 C 501.12 450.89 499.38 456.86 496.01 461.99 C 481.45 486.75 453.84 503.58 424.93 503.72 C 411.34 505.16 397.66 504.46 384.01 504.63 C 289.34 504.61 194.67 504.58 100.00 504.65 C 93.98 504.32 87.99 503.58 81.96 503.49 C 64.77 502.12 48.00 495.31 34.89 484.07 C 29.30 478.73 23.44 473.50 19.16 466.99 C 15.75 462.05 13.30 456.52 9.72 451.70 C 5.50 441.37 3.97 430.12 4.32 419.01 C 4.24 399.69 4.62 380.36 4.15 361.04 M 417.50 408.49 C 411.60 414.82 407.54 423.27 407.75 432.04 C 408.58 432.82 409.74 433.06 410.75 433.54 C 409.76 434.52 409.93 436.02 409.69 437.28 C 409.29 435.67 408.82 434.07 407.91 432.67 L 406.60 434.92 C 406.88 442.16 410.55 448.76 414.95 454.32 C 417.47 456.94 420.40 459.11 423.58 460.87 C 425.67 461.42 427.77 462.07 429.96 462.20 C 434.38 462.14 438.18 459.54 441.54 456.93 L 440.99 458.40 C 438.78 459.64 436.72 461.12 434.80 462.77 C 440.77 463.27 446.94 463.00 452.49 460.52 C 457.19 458.95 461.87 455.76 464.50 451.51 C 467.43 447.91 469.47 443.73 470.80 439.30 C 468.40 440.48 465.94 441.55 463.30 442.01 C 462.03 442.27 460.76 442.52 459.54 442.95 C 455.68 442.60 451.80 442.62 447.95 442.98 C 447.23 443.21 445.79 443.66 445.07 443.89 C 445.77 443.34 446.47 442.79 447.18 442.24 C 454.71 442.18 463.04 442.95 469.67 438.67 C 473.86 435.12 472.98 429.01 472.87 424.13 C 472.90 424.00 472.95 423.75 472.98 423.62 L 472.74 423.55 C 471.40 418.13 469.00 412.90 465.25 408.73 C 463.19 406.48 460.72 404.19 457.49 404.05 C 452.58 401.89 447.57 399.54 442.07 399.67 C 433.06 398.77 423.99 402.29 417.50 408.49 M 40.59 407.48 C 38.05 411.07 38.46 416.33 40.61 420.04 C 45.66 419.97 50.71 420.00 55.76 420.01 C 55.72 431.77 55.79 443.53 55.73 455.29 C 58.94 457.29 62.99 457.51 66.55 456.39 C 67.69 456.11 68.60 455.12 68.48 453.91 C 68.55 442.61 68.47 431.30 68.50 420.00 C 73.61 419.79 78.80 420.44 83.86 419.66 C 85.67 416.84 85.66 413.21 84.97 410.03 C 84.66 408.60 83.77 406.86 82.02 407.27 C 68.21 407.37 54.37 406.95 40.59 407.48 M 105.53 407.59 C 100.81 408.83 96.41 411.42 93.14 415.07 C 84.44 424.37 84.64 440.27 93.65 449.30 C 102.34 458.78 118.43 459.65 128.10 451.19 C 136.53 444.40 139.39 431.97 135.12 422.09 C 130.61 410.81 117.20 404.31 105.53 407.59 M 145.99 419.94 C 143.82 425.01 144.28 430.64 144.25 436.02 C 144.31 441.99 144.14 447.97 144.30 453.94 C 144.13 455.52 145.74 456.28 147.01 456.63 C 150.37 457.46 154.02 457.12 157.05 455.41 C 156.96 446.60 157.00 437.80 157.01 428.99 C 156.77 424.71 159.88 420.48 164.13 419.66 C 168.82 418.61 174.12 422.27 174.45 427.14 C 174.73 436.39 174.16 445.68 174.70 454.92 C 176.55 457.49 180.33 457.05 183.12 456.90 C 184.69 456.63 187.53 456.31 187.23 454.06 C 187.37 445.37 187.09 436.68 187.32 427.99 C 187.44 423.17 192.06 418.96 196.90 419.52 C 201.14 419.92 204.72 423.61 204.86 427.88 C 205.28 436.96 204.74 446.06 205.10 455.14 C 206.15 456.69 208.28 456.80 209.97 457.00 C 212.48 457.07 215.42 457.18 217.36 455.30 C 217.72 448.88 217.39 442.44 217.50 436.02 C 217.32 430.91 218.20 425.60 216.27 420.72 C 213.62 413.43 206.75 407.93 199.04 407.01 C 192.48 405.92 185.82 408.47 180.93 412.81 C 176.16 408.43 169.51 406.03 163.04 406.97 C 155.58 407.82 148.82 412.97 145.99 419.94 M 222.23 407.41 C 219.64 410.76 219.75 416.36 222.14 419.81 C 227.16 420.26 232.21 419.88 237.25 420.00 C 237.32 431.56 237.11 443.13 237.34 454.69 C 240.23 458.33 246.33 457.40 250.04 455.33 C 249.95 443.56 250.02 431.78 250.00 420.00 C 254.69 419.94 259.39 420.12 264.08 419.94 C 265.76 420.14 266.18 418.11 266.55 416.90 C 267.04 413.84 267.27 410.24 265.32 407.62 C 263.63 406.97 261.73 407.32 259.96 407.23 C 247.39 407.39 234.79 407.01 222.23 407.41 M 286.57 407.71 C 276.98 410.25 269.46 418.99 268.41 428.85 C 267.10 438.28 271.77 448.19 279.89 453.16 C 289.36 459.34 303.01 458.02 310.98 449.94 C 318.75 442.73 320.73 430.41 316.11 420.96 C 311.13 410.19 297.93 404.29 286.57 407.71 M 335.99 409.99 C 329.44 413.88 325.66 421.46 325.77 428.99 C 325.87 437.68 325.47 446.40 325.97 455.07 C 329.14 457.96 334.99 457.72 338.36 455.29 C 338.76 446.22 338.30 437.12 338.55 428.05 C 338.68 423.95 341.97 420.17 346.05 419.59 C 351.07 418.70 356.10 423.01 356.14 428.09 C 356.57 437.22 355.87 446.39 356.46 455.51 C 360.00 457.70 364.97 457.63 368.54 455.52 C 369.11 446.39 368.48 437.21 368.82 428.06 C 368.91 423.70 372.62 419.74 377.00 419.50 C 381.83 419.13 386.35 423.28 386.41 428.13 C 386.74 437.16 386.22 446.22 386.63 455.25 C 388.83 457.43 392.31 457.09 395.15 456.89 C 396.64 456.60 399.26 456.23 398.97 454.12 C 399.04 445.08 398.99 436.03 399.00 426.99 C 398.80 417.17 390.72 408.41 381.04 407.07 C 374.30 405.81 367.46 408.40 362.38 412.78 C 355.48 406.13 344.09 404.77 335.99 409.99 Z" />
<path fill="#ffffff" opacity="1.00" d=" M 415.11 421.68 C 418.79 412.68 427.54 405.57 437.46 405.39 C 437.03 405.85 436.17 406.76 435.74 407.22 C 436.23 408.58 436.50 410.22 437.88 411.03 C 442.64 414.51 447.98 417.19 452.46 421.06 C 446.80 420.17 442.50 415.83 436.97 414.55 C 435.42 414.03 433.91 414.88 433.36 416.36 C 431.79 419.14 435.87 420.48 437.70 421.66 C 437.23 421.76 436.29 421.98 435.82 422.09 C 434.37 422.63 432.19 422.62 431.67 424.40 C 430.09 428.97 429.48 433.81 428.39 438.51 C 427.77 438.90 427.16 439.29 426.56 439.68 C 426.49 433.16 427.10 426.62 426.69 420.11 C 426.89 417.84 423.80 417.74 422.26 418.31 C 420.27 419.35 420.68 422.00 420.37 423.88 C 419.71 429.09 421.37 434.65 419.08 439.58 C 418.36 434.11 418.29 428.37 415.90 423.28 C 415.70 422.88 415.31 422.08 415.11 421.68 Z" />
<path fill="#ffffff" opacity="1.00" d=" M 108.11 420.09 C 115.38 417.41 124.04 423.33 124.28 431.04 C 125.02 437.93 118.92 444.55 111.97 444.30 C 105.31 444.63 99.30 438.59 99.46 431.97 C 99.33 426.66 103.12 421.71 108.11 420.09 Z" />
<path fill="#ffffff" opacity="1.00" d=" M 289.18 420.23 C 296.13 417.42 304.70 422.50 305.69 429.89 C 307.05 436.90 301.21 444.23 294.04 444.28 C 287.20 444.94 280.84 438.82 280.96 432.02 C 280.80 426.84 284.39 422.01 289.18 420.23 Z" />
</g>
<g id="#b5b5b5ff">
<path fill="#b5b5b5" opacity="1.00" d=" M 79.00 0.00 L 433.32 0.00 C 440.58 1.58 447.96 2.88 454.82 5.83 C 452.44 6.52 450.04 7.18 447.62 7.71 C 438.99 5.04 429.94 3.98 420.92 3.97 C 312.63 3.98 204.33 3.96 96.04 3.98 C 85.37 3.75 74.57 4.50 64.34 7.73 C 61.93 7.20 59.55 6.53 57.18 5.83 C 64.14 2.85 71.62 1.50 79.00 0.00 Z" />
</g>
<g id="#434343ff">
<path fill="#434343" opacity="1.00" d=" M 64.34 7.73 C 74.57 4.50 85.37 3.75 96.04 3.98 C 204.33 3.96 312.63 3.98 420.92 3.97 C 429.94 3.98 438.99 5.04 447.62 7.71 C 452.91 9.52 458.10 11.67 463.01 14.36 C 466.40 16.24 469.71 18.29 472.85 20.59 C 475.26 22.38 477.62 24.24 479.89 26.21 C 482.35 28.39 484.66 30.73 486.75 33.27 C 488.81 35.83 490.94 38.33 493.21 40.70 C 494.64 40.66 496.07 40.63 497.51 40.59 C 498.56 42.23 499.57 43.90 500.54 45.59 C 499.11 45.73 497.69 45.86 496.28 45.99 C 494.32 43.95 492.22 41.48 489.05 41.96 C 336.69 42.05 184.33 41.97 31.97 42.02 C 28.02 42.07 24.03 41.63 20.12 42.32 C 18.29 43.01 17.12 44.74 15.70 46.00 C 14.29 45.86 12.88 45.72 11.47 45.57 C 12.52 43.74 13.64 41.94 14.80 40.17 C 16.55 39.80 18.53 39.96 20.12 39.02 C 22.45 37.11 24.09 34.53 26.08 32.28 C 27.94 30.13 29.99 28.13 32.12 26.24 C 34.38 24.28 36.72 22.39 39.13 20.60 C 42.27 18.30 45.59 16.25 48.99 14.35 C 53.89 11.67 59.06 9.53 64.34 7.73 Z" />
</g>
<g id="#a2a2a2ff">
<path fill="#a2a2a2" opacity="1.00" d=" M 43.12 12.87 C 47.57 10.09 52.32 7.81 57.18 5.83 C 59.55 6.53 61.93 7.20 64.34 7.73 C 59.06 9.53 53.89 11.67 48.99 14.35 C 47.03 13.86 45.07 13.37 43.12 12.87 Z" />
<path fill="#a2a2a2" opacity="1.00" d=" M 454.82 5.83 C 459.70 7.82 464.46 10.11 468.93 12.91 C 466.96 13.40 464.98 13.88 463.01 14.36 C 458.10 11.67 452.91 9.52 447.62 7.71 C 450.04 7.18 452.44 6.52 454.82 5.83 Z" />
</g>
<g id="#929191ff">
<path fill="#929191" opacity="1.00" d=" M 34.39 18.92 C 37.18 16.74 40.10 14.73 43.12 12.87 C 45.07 13.37 47.03 13.86 48.99 14.35 C 45.59 16.25 42.27 18.30 39.13 20.60 C 37.55 20.04 35.97 19.48 34.39 18.92 Z" />
<path fill="#929191" opacity="1.00" d=" M 468.93 12.91 C 471.94 14.76 474.84 16.77 477.64 18.93 C 476.04 19.49 474.44 20.04 472.85 20.59 C 469.71 18.29 466.40 16.24 463.01 14.36 C 464.98 13.88 466.96 13.40 468.93 12.91 Z" />
</g>
<g id="#808080ff">
<path fill="#808080" opacity="1.00" d=" M 26.80 25.59 C 29.21 23.23 31.73 20.99 34.39 18.92 C 35.97 19.48 37.55 20.04 39.13 20.60 C 36.72 22.39 34.38 24.28 32.12 26.24 C 30.35 26.02 28.57 25.80 26.80 25.59 Z" />
<path fill="#808080" opacity="1.00" d=" M 477.64 18.93 C 480.31 20.99 482.84 23.21 485.23 25.59 C 483.45 25.79 481.67 26.00 479.89 26.21 C 477.62 24.24 475.26 22.38 472.85 20.59 C 474.44 20.04 476.04 19.49 477.64 18.93 Z" />
</g>
<g id="#6e6e6eff">
<path fill="#6e6e6e" opacity="1.00" d=" M 20.91 31.91 C 22.75 29.69 24.75 27.61 26.80 25.59 C 28.57 25.80 30.35 26.02 32.12 26.24 C 29.99 28.13 27.94 30.13 26.08 32.28 C 24.35 32.16 22.63 32.03 20.91 31.91 Z" />
</g>
<g id="#6b6b6bff">
<path fill="#6b6b6b" opacity="1.00" d=" M 479.89 26.21 C 481.67 26.00 483.45 25.79 485.23 25.59 C 487.40 27.77 489.53 30.01 491.49 32.40 C 489.90 32.68 488.32 32.98 486.75 33.27 C 484.66 30.73 482.35 28.39 479.89 26.21 Z" />
</g>
<g id="#575757ff">
<path fill="#575757" opacity="1.00" d=" M 20.91 31.91 C 22.63 32.03 24.35 32.16 26.08 32.28 C 24.09 34.53 22.45 37.11 20.12 39.02 C 18.53 39.96 16.55 39.80 14.80 40.17 C 16.67 37.30 18.74 34.56 20.91 31.91 Z" />
<path fill="#575757" opacity="1.00" d=" M 486.75 33.27 C 488.32 32.98 489.90 32.68 491.49 32.40 C 493.62 35.03 495.66 37.75 497.51 40.59 C 496.07 40.63 494.64 40.66 493.21 40.70 C 490.94 38.33 488.81 35.83 486.75 33.27 Z" />
</g>
<g id="#3c3c3cff">
<path fill="#3c3c3c" opacity="1.00" d=" M 15.70 46.00 C 17.12 44.74 18.29 43.01 20.12 42.32 C 24.03 41.63 28.02 42.07 31.97 42.02 C 184.33 41.97 336.69 42.05 489.05 41.96 C 492.22 41.48 494.32 43.95 496.28 45.99 C 497.69 45.86 499.11 45.73 500.54 45.59 C 501.84 47.89 503.05 50.24 504.14 52.65 C 502.79 52.49 501.43 52.33 500.09 52.18 C 504.47 63.19 507.65 74.89 506.83 86.85 C 465.13 87.04 423.43 86.81 381.73 86.91 C 379.87 70.94 365.07 57.88 348.99 58.01 C 286.97 58.00 224.94 57.99 162.91 58.01 C 148.00 57.99 134.14 69.19 130.83 83.70 C 128.57 83.36 126.30 83.02 124.02 82.92 C 84.47 82.90 44.92 83.14 5.38 82.81 C 5.12 81.05 4.87 79.30 4.67 77.54 C 5.35 74.64 4.64 72.01 1.93 70.51 C 3.81 61.78 7.06 53.34 11.47 45.57 C 12.88 45.72 14.29 45.86 15.70 46.00 Z" />
</g>
<g id="#313131ff">
<path fill="#313131" opacity="1.00" d=" M 500.09 52.18 C 501.43 52.33 502.79 52.49 504.14 52.65 C 507.86 60.98 510.42 69.84 511.51 78.91 C 510.70 79.01 509.10 79.21 508.30 79.31 C 508.25 88.53 507.86 97.76 508.04 106.99 C 508.07 112.67 507.79 118.36 507.90 124.04 C 466.30 123.96 424.70 123.82 383.10 124.05 C 382.85 134.68 382.83 145.30 382.83 155.93 C 382.78 161.36 383.07 166.85 382.00 172.21 C 382.01 148.48 382.02 124.75 382.06 101.02 C 382.05 96.32 382.22 91.60 381.73 86.91 C 423.43 86.81 465.13 87.04 506.83 86.85 C 507.65 74.89 504.47 63.19 500.09 52.18 Z" />
</g>
<g id="#282828ff">
<path fill="#282828" opacity="1.00" d=" M 0.00 82.42 C 0.53 78.43 1.13 74.45 1.93 70.51 C 4.64 72.01 5.35 74.64 4.67 77.54 C 2.73 86.61 4.64 95.89 3.96 105.06 C 2.64 105.04 1.32 105.02 -0.00 105.00 L 0.00 82.42 Z" />
<path fill="#282828" opacity="1.00" d=" M 4.05 119.92 C 45.64 120.10 87.25 119.71 128.84 120.14 C 129.20 131.07 129.17 142.01 129.18 152.94 C 87.49 153.04 45.79 152.86 4.09 153.00 C 4.17 147.30 3.94 141.61 3.97 135.91 C 3.99 130.58 3.99 125.25 4.05 119.92 Z" />
</g>
<g id="#373737ff">
<path fill="#373737" opacity="1.00" d=" M 144.93 87.88 C 147.49 78.79 156.46 71.95 165.93 72.03 C 225.97 71.99 286.01 72.02 346.05 72.01 C 356.37 71.87 365.81 79.96 367.60 90.07 C 362.25 90.14 356.89 90.21 351.56 90.67 C 348.83 87.80 345.13 85.72 341.06 86.00 C 284.36 86.00 227.65 86.00 170.95 86.00 C 165.04 85.63 159.32 90.05 158.31 95.89 C 157.71 100.19 158.11 104.55 158.00 108.88 C 153.31 108.82 148.63 108.84 143.94 108.94 C 144.18 101.93 143.20 94.76 144.93 87.88 Z" />
</g>
<g id="#323232ff">
<path fill="#323232" opacity="1.00" d=" M 3.96 105.06 C 4.64 95.89 2.73 86.61 4.67 77.54 C 4.87 79.30 5.12 81.05 5.38 82.81 C 44.92 83.14 84.47 82.90 124.02 82.92 C 126.30 83.02 128.57 83.36 130.83 83.70 C 129.57 89.73 129.99 95.93 129.94 102.05 C 129.96 125.15 130.04 148.25 129.96 171.35 C 129.02 165.26 129.25 159.08 129.18 152.94 C 129.17 142.01 129.20 131.07 128.84 120.14 C 87.25 119.71 45.64 120.10 4.05 119.92 C 4.08 114.96 3.87 110.01 3.96 105.06 Z" />
</g>
<g id="#272727ff">
<path fill="#272727" opacity="1.00" d=" M 508.30 79.31 C 509.10 79.21 510.70 79.01 511.51 78.91 C 511.72 80.67 511.91 82.45 512.00 84.23 L 512.00 106.94 C 510.67 106.96 509.35 106.97 508.04 106.99 C 507.86 97.76 508.25 88.53 508.30 79.31 Z" />
<path fill="#272727" opacity="1.00" d=" M 383.10 124.05 C 424.70 123.82 466.30 123.96 507.90 124.04 C 507.96 128.00 508.07 131.95 508.14 135.90 C 508.30 142.62 507.84 149.34 507.98 156.06 C 466.26 155.75 424.54 156.12 382.83 155.93 C 382.83 145.30 382.85 134.68 383.10 124.05 Z" />
<path fill="#272727" opacity="1.00" d=" M 143.94 128.00 C 148.62 128.01 153.31 128.00 158.00 127.96 C 157.98 134.99 158.01 142.01 158.00 149.04 C 153.33 149.02 148.67 149.00 144.00 148.99 C 144.01 141.99 143.99 135.00 143.94 128.00 Z" />
</g>
<g id="#2b2b2bff">
<path fill="#2b2b2b" opacity="1.00" d=" M 351.56 90.67 C 356.89 90.21 362.25 90.14 367.60 90.07 C 368.25 117.45 367.81 144.86 368.00 172.25 C 367.35 169.24 367.21 166.14 366.60 163.13 C 362.82 162.15 358.88 162.74 355.05 162.94 C 354.52 168.81 355.22 174.73 354.49 180.58 L 354.20 181.90 C 353.74 154.26 354.23 126.61 354.06 98.96 C 354.10 96.00 353.16 93.14 351.56 90.67 Z" />
</g>
<g id="#1c1c1cff">
<path fill="#1c1c1c" opacity="1.00" d=" M -0.00 105.00 C 1.32 105.02 2.64 105.04 3.96 105.06 C 3.87 110.01 4.08 114.96 4.05 119.92 C 3.99 125.25 3.99 130.58 3.97 135.91 C 2.65 135.92 1.32 135.93 0.00 135.94 L 0.00 105.00 Z" />
<path fill="#1c1c1c" opacity="1.00" d=" M 508.04 106.99 C 509.35 106.97 510.67 106.96 512.00 106.94 L 512.00 136.42 C 510.71 136.25 509.42 136.07 508.14 135.90 C 508.07 131.95 507.96 128.00 507.90 124.04 C 507.79 118.36 508.07 112.67 508.04 106.99 Z" />
</g>
<g id="#2c2c2cff">
<path fill="#2c2c2c" opacity="1.00" d=" M 233.96 112.08 C 248.01 106.64 264.10 106.65 278.13 112.12 C 293.25 117.90 305.82 129.92 312.29 144.75 C 307.21 144.84 301.72 144.16 297.25 147.12 C 289.56 132.42 273.64 122.44 257.01 122.27 C 240.27 121.70 223.91 131.13 215.57 145.57 C 210.31 144.68 204.97 144.76 199.65 144.83 C 206.13 129.92 218.78 117.87 233.96 112.08 Z" />
</g>
<g id="#2d2d2dff">
<path fill="#2d2d2d" opacity="1.00" d=" M 143.94 108.94 C 148.63 108.84 153.31 108.82 158.00 108.88 C 157.98 115.24 158.01 121.60 158.00 127.96 C 153.31 128.00 148.62 128.01 143.94 128.00 C 143.94 121.65 143.94 115.29 143.94 108.94 Z" />
</g>
<g id="#bdd731ff">
<path fill="#bdd731" opacity="1.00" d=" M 215.57 145.57 C 223.91 131.13 240.27 121.70 257.01 122.27 C 273.64 122.44 289.56 132.42 297.25 147.12 C 300.89 153.82 302.62 161.45 302.71 169.05 C 302.64 178.66 299.59 188.20 293.99 196.01 C 285.99 207.32 272.76 214.73 258.92 215.51 C 244.35 216.55 229.59 210.12 220.25 198.92 C 213.54 190.83 209.54 180.53 209.30 169.99 C 209.19 161.48 211.30 152.95 215.57 145.57 Z" />
</g>
<g id="#131313ff">
<path fill="#131313" opacity="1.00" d=" M 0.00 135.94 C 1.32 135.93 2.65 135.92 3.97 135.91 C 3.94 141.61 4.17 147.30 4.09 153.00 C 3.94 160.00 4.13 166.99 4.07 173.99 C 3.98 179.96 3.96 185.94 4.15 191.91 C 55.42 192.27 106.71 192.04 157.99 192.03 C 157.96 204.06 158.03 216.09 157.99 228.11 C 106.73 228.19 55.46 227.97 4.20 228.18 C 4.08 245.11 3.79 262.05 3.95 278.98 C 4.10 306.33 3.59 333.70 4.15 361.04 C 2.77 361.02 1.38 361.00 0.00 360.99 L 0.00 135.94 Z" />
</g>
<g id="#101010ff">
<path fill="#101010" opacity="1.00" d=" M 508.14 135.90 C 509.42 136.07 510.71 136.25 512.00 136.42 L 512.00 360.97 C 510.61 360.99 509.23 361.01 507.86 361.05 C 508.16 333.69 507.82 306.33 507.97 278.98 C 508.09 266.36 507.98 253.73 507.86 241.11 C 456.57 240.91 405.27 240.95 353.97 241.09 C 354.23 221.36 353.91 201.63 354.20 181.90 L 354.49 180.58 C 355.58 192.30 354.69 204.11 355.12 215.87 C 388.76 216.03 422.40 215.89 456.04 215.94 C 473.29 215.82 490.55 216.19 507.80 215.83 C 508.10 204.25 508.12 192.66 507.99 181.08 C 507.89 172.74 508.21 164.40 507.98 156.06 C 507.84 149.34 508.30 142.62 508.14 135.90 Z" />
<path fill="#101010" opacity="1.00" d=" M 321.37 216.50 C 327.21 214.36 334.14 218.89 334.55 225.09 C 335.34 231.01 329.95 236.69 323.99 236.20 C 318.42 236.03 313.76 230.63 314.45 225.08 C 314.76 221.17 317.62 217.65 321.37 216.50 Z" />
</g>
<g id="#222222ff">
<path fill="#222222" opacity="1.00" d=" M 194.53 169.96 C 194.52 161.34 196.25 152.75 199.65 144.83 C 204.97 144.76 210.31 144.68 215.57 145.57 C 211.30 152.95 209.19 161.48 209.30 169.99 C 204.38 169.98 199.45 169.97 194.53 169.96 Z" />
<path fill="#222222" opacity="1.00" d=" M 297.25 147.12 C 301.72 144.16 307.21 144.84 312.29 144.75 C 315.61 152.40 317.32 160.68 317.45 169.01 C 312.53 169.05 307.62 169.06 302.71 169.05 C 302.62 161.45 300.89 153.82 297.25 147.12 Z" />
<path fill="#222222" opacity="1.00" d=" M 144.00 148.99 C 148.67 149.00 153.33 149.02 158.00 149.04 C 157.99 156.03 158.01 163.02 158.00 170.01 C 153.34 169.99 148.68 170.00 144.03 170.05 C 143.98 163.03 144.01 156.01 144.00 148.99 Z" />
</g>
<g id="#202020ff">
<path fill="#202020" opacity="1.00" d=" M 4.09 153.00 C 45.79 152.86 87.49 153.04 129.18 152.94 C 129.25 159.08 129.02 165.26 129.96 171.35 C 130.06 172.00 130.26 173.30 130.36 173.95 C 88.27 174.04 46.17 174.00 4.07 173.99 C 4.13 166.99 3.94 160.00 4.09 153.00 Z" />
</g>
<g id="#1f1f1fff">
<path fill="#1f1f1f" opacity="1.00" d=" M 382.83 155.93 C 424.54 156.12 466.26 155.75 507.98 156.06 C 508.21 164.40 507.89 172.74 507.99 181.08 C 461.67 180.91 415.34 181.10 369.01 181.04 C 364.16 181.10 359.31 181.17 354.49 180.58 C 355.22 174.73 354.52 168.81 355.05 162.94 C 358.88 162.74 362.82 162.15 366.60 163.13 C 367.21 166.14 367.35 169.24 368.00 172.25 C 368.57 174.86 370.36 177.40 373.07 178.05 C 377.08 179.22 381.34 176.24 382.00 172.21 C 383.07 166.85 382.78 161.36 382.83 155.93 Z" />
</g>
<g id="#1b1b1bff">
<path fill="#1b1b1b" opacity="1.00" d=" M 302.71 169.05 C 307.62 169.06 312.53 169.05 317.45 169.01 C 317.30 178.66 315.39 188.48 310.70 196.98 L 310.06 197.18 C 304.85 195.62 299.36 195.91 293.99 196.01 C 299.59 188.20 302.64 178.66 302.71 169.05 Z" />
<path fill="#1b1b1b" opacity="1.00" d=" M 144.03 170.05 C 148.68 170.00 153.34 169.99 158.00 170.01 C 157.97 177.35 158.02 184.69 157.99 192.03 C 106.71 192.04 55.42 192.27 4.15 191.91 C 3.96 185.94 3.98 179.96 4.07 173.99 C 46.17 174.00 88.27 174.04 130.36 173.95 C 132.17 177.19 136.15 179.33 139.78 177.82 C 142.92 176.67 144.19 173.16 144.03 170.05 Z" />
<path fill="#1b1b1b" opacity="1.00" d=" M 194.53 169.96 C 199.45 169.97 204.38 169.98 209.30 169.99 C 209.54 180.53 213.54 190.83 220.25 198.92 C 214.53 199.28 208.46 197.99 203.10 200.58 C 197.67 191.32 194.69 180.70 194.53 169.96 Z" />
</g>
<g id="#171717ff">
<path fill="#171717" opacity="1.00" d=" M 354.49 180.58 C 359.31 181.17 364.16 181.10 369.01 181.04 C 415.34 181.10 461.67 180.91 507.99 181.08 C 508.12 192.66 508.10 204.25 507.80 215.83 C 490.55 216.19 473.29 215.82 456.04 215.94 C 422.40 215.89 388.76 216.03 355.12 215.87 C 354.69 204.11 355.58 192.30 354.49 180.58 Z" />
</g>
<g id="#121212ff">
<path fill="#121212" opacity="1.00" d=" M 258.92 215.51 C 272.76 214.73 285.99 207.32 293.99 196.01 C 299.36 195.91 304.85 195.62 310.06 197.18 L 310.32 197.66 C 303.56 211.27 291.24 221.92 277.00 227.10 C 262.41 232.52 245.73 231.99 231.50 225.70 C 219.67 220.61 209.72 211.59 203.10 200.58 C 208.46 197.99 214.53 199.28 220.25 198.92 C 229.59 210.12 244.35 216.55 258.92 215.51 Z" />
</g>
<g id="#090909ff">
<path fill="#090909" opacity="1.00" d=" M 4.20 228.18 C 55.46 227.97 106.73 228.19 157.99 228.11 C 158.13 233.04 157.51 238.04 158.51 242.90 C 160.05 248.73 166.08 252.41 171.95 252.00 C 225.97 252.02 280.00 251.99 334.02 252.01 C 337.83 251.95 341.75 252.33 345.47 251.27 C 349.99 249.88 353.23 245.69 353.97 241.09 C 405.27 240.95 456.57 240.91 507.86 241.11 C 507.98 253.73 508.09 266.36 507.97 278.98 C 434.25 278.99 360.53 278.95 286.81 278.98 C 287.22 274.33 287.01 269.66 287.05 265.00 C 266.35 265.00 245.65 265.00 224.95 265.00 C 225.00 269.65 224.77 274.31 225.12 278.95 C 151.40 278.97 77.67 278.99 3.95 278.98 C 3.79 262.05 4.08 245.11 4.20 228.18 Z" />
</g>
<g id="#030303ff">
<path fill="#030303" opacity="1.00" d=" M 3.95 278.98 C 77.67 278.99 151.40 278.97 225.12 278.95 C 226.40 280.95 228.20 283.02 230.81 282.93 C 236.18 283.16 241.56 282.94 246.94 283.00 C 246.94 296.34 246.94 309.67 246.94 323.00 C 252.98 323.00 259.02 323.00 265.06 323.00 C 265.06 309.67 265.06 296.34 265.06 283.01 C 270.43 282.93 275.80 283.16 281.16 282.93 C 283.74 283.01 285.54 280.97 286.81 278.98 C 360.53 278.95 434.25 278.99 507.97 278.98 C 507.82 306.33 508.16 333.69 507.86 361.05 C 339.95 361.04 172.05 361.05 4.15 361.04 C 3.59 333.70 4.10 306.33 3.95 278.98 Z" />
</g>
<g id="#e1e1e1ff">
<path fill="#e1e1e1" opacity="1.00" d=" M 0.00 360.99 C 1.38 361.00 2.77 361.02 4.15 361.04 C 4.62 380.36 4.24 399.69 4.32 419.01 C 3.97 430.12 5.50 441.37 9.72 451.70 C 11.15 457.31 14.02 462.37 16.87 467.37 C 15.78 468.15 14.69 468.94 13.55 469.67 C 5.97 458.54 2.42 445.35 0.00 432.27 L 0.00 360.99 Z" />
<path fill="#e1e1e1" opacity="1.00" d=" M 507.86 361.05 C 509.23 361.01 510.61 360.99 512.00 360.97 L 512.00 432.43 C 509.71 443.73 507.03 455.14 501.21 465.23 C 497.35 471.87 493.09 478.39 487.65 483.86 C 486.12 483.46 484.60 483.07 483.08 482.68 C 492.38 471.89 501.57 459.97 504.33 445.67 C 507.87 435.14 507.82 423.91 507.66 412.94 C 507.79 395.64 507.38 378.34 507.86 361.05 Z" />
</g>
<g id="#eeeff0ff">
<path fill="#eeeff0" opacity="1.00" d=" M 417.50 408.49 C 423.99 402.29 433.06 398.77 442.07 399.67 C 447.57 399.54 452.58 401.89 457.49 404.05 C 457.41 404.73 457.24 406.09 457.16 406.77 C 458.12 407.96 459.09 409.16 460.04 410.39 C 456.84 408.09 454.04 405.27 450.67 403.22 C 448.77 401.86 445.19 402.16 445.56 405.19 C 447.99 408.41 451.41 410.68 454.26 413.50 C 454.78 413.57 455.83 413.70 456.35 413.77 C 456.24 414.44 456.15 415.13 456.11 415.82 C 451.73 412.86 447.52 409.65 442.97 406.97 C 441.31 405.96 439.42 405.24 437.46 405.39 C 427.54 405.57 418.79 412.68 415.11 421.68 C 415.31 422.08 415.70 422.88 415.90 423.28 C 414.45 423.98 412.03 423.94 411.88 426.02 C 411.46 431.61 413.01 437.11 413.62 442.65 C 412.85 441.96 412.09 441.29 411.33 440.62 C 411.75 440.68 412.60 440.78 413.02 440.83 C 412.28 438.33 411.56 435.82 410.99 433.28 L 410.75 433.54 C 409.74 433.06 408.58 432.82 407.75 432.04 C 407.54 423.27 411.60 414.82 417.50 408.49 Z" />
</g>
<g id="#ed2224ff">
<path fill="#ed2224" opacity="1.00" d=" M 445.56 405.19 C 445.19 402.16 448.77 401.86 450.67 403.22 C 454.04 405.27 456.84 408.09 460.04 410.39 C 459.09 409.16 458.12 407.96 457.16 406.77 C 457.24 406.09 457.41 404.73 457.49 404.05 C 460.72 404.19 463.19 406.48 465.25 408.73 C 469.00 412.90 471.40 418.13 472.74 423.55 C 472.42 423.45 471.79 423.24 471.47 423.14 C 470.18 421.24 469.05 419.24 467.89 417.26 C 463.92 422.56 466.36 429.57 471.04 433.52 C 471.67 430.39 472.24 427.25 472.87 424.13 C 472.98 429.01 473.86 435.12 469.67 438.67 C 463.04 442.95 454.71 442.18 447.18 442.24 C 443.84 442.06 440.52 441.74 437.22 441.23 C 437.54 439.13 436.24 435.60 439.11 434.96 C 443.58 434.73 448.95 436.50 452.68 433.20 C 452.51 431.09 451.00 429.59 449.46 428.34 C 445.68 425.87 441.77 423.60 437.70 421.66 C 435.87 420.48 431.79 419.14 433.36 416.36 C 433.91 414.88 435.42 414.03 436.97 414.55 C 442.50 415.83 446.80 420.17 452.46 421.06 C 447.98 417.19 442.64 414.51 437.88 411.03 C 436.50 410.22 436.23 408.58 435.74 407.22 C 436.17 406.76 437.03 405.85 437.46 405.39 C 439.42 405.24 441.31 405.96 442.97 406.97 C 447.52 409.65 451.73 412.86 456.11 415.82 C 456.15 415.13 456.24 414.44 456.35 413.77 C 455.83 413.70 454.78 413.57 454.26 413.50 C 451.41 410.68 447.99 408.41 445.56 405.19 Z" />
<path fill="#ed2224" opacity="1.00" d=" M 422.26 418.31 C 423.80 417.74 426.89 417.84 426.69 420.11 C 427.10 426.62 426.49 433.16 426.56 439.68 C 427.16 439.29 427.77 438.90 428.39 438.51 C 429.48 433.81 430.09 428.97 431.67 424.40 C 432.19 422.62 434.37 422.63 435.82 422.09 C 436.34 422.62 437.37 423.68 437.89 424.21 C 437.56 429.82 435.57 435.19 434.57 440.70 C 433.68 443.84 433.36 447.13 434.33 450.31 C 438.50 449.27 441.78 446.49 445.07 443.89 C 445.79 443.66 447.23 443.21 447.95 442.98 C 448.81 444.84 449.65 446.73 450.45 448.63 C 447.71 451.63 444.63 454.30 441.54 456.93 C 438.18 459.54 434.38 462.14 429.96 462.20 C 427.77 462.07 425.67 461.42 423.58 460.87 C 425.29 460.56 426.99 460.25 428.72 459.95 C 427.36 452.59 420.44 446.37 412.73 447.62 C 413.29 448.53 413.88 449.49 414.50 450.40 C 414.99 451.04 415.97 452.34 416.46 452.98 C 416.08 453.32 415.33 453.99 414.95 454.32 C 410.55 448.76 406.88 442.16 406.60 434.92 L 407.91 432.67 C 408.82 434.07 409.29 435.67 409.69 437.28 C 409.93 436.02 409.76 434.52 410.75 433.54 L 410.99 433.28 C 411.56 435.82 412.28 438.33 413.02 440.83 C 412.60 440.78 411.75 440.68 411.33 440.62 C 412.09 441.29 412.85 441.96 413.62 442.65 C 413.01 437.11 411.46 431.61 411.88 426.02 C 412.03 423.94 414.45 423.98 415.90 423.28 C 418.29 428.37 418.36 434.11 419.08 439.58 C 421.37 434.65 419.71 429.09 420.37 423.88 C 420.68 422.00 420.27 419.35 422.26 418.31 Z" />
</g>
<g id="#221e1fff">
<path fill="#221e1f" opacity="1.00" d=" M 40.59 407.48 C 54.37 406.95 68.21 407.37 82.02 407.27 C 83.77 406.86 84.66 408.60 84.97 410.03 C 85.66 413.21 85.67 416.84 83.86 419.66 C 78.80 420.44 73.61 419.79 68.50 420.00 C 68.47 431.30 68.55 442.61 68.48 453.91 C 68.60 455.12 67.69 456.11 66.55 456.39 C 62.99 457.51 58.94 457.29 55.73 455.29 C 55.79 443.53 55.72 431.77 55.76 420.01 C 50.71 420.00 45.66 419.97 40.61 420.04 C 38.46 416.33 38.05 411.07 40.59 407.48 Z" />
<path fill="#221e1f" opacity="1.00" d=" M 105.53 407.59 C 117.20 404.31 130.61 410.81 135.12 422.09 C 139.39 431.97 136.53 444.40 128.10 451.19 C 118.43 459.65 102.34 458.78 93.65 449.30 C 84.64 440.27 84.44 424.37 93.14 415.07 C 96.41 411.42 100.81 408.83 105.53 407.59 M 108.11 420.09 C 103.12 421.71 99.33 426.66 99.46 431.97 C 99.30 438.59 105.31 444.63 111.97 444.30 C 118.92 444.55 125.02 437.93 124.28 431.04 C 124.04 423.33 115.38 417.41 108.11 420.09 Z" />
<path fill="#221e1f" opacity="1.00" d=" M 145.99 419.94 C 148.82 412.97 155.58 407.82 163.04 406.97 C 169.51 406.03 176.16 408.43 180.93 412.81 C 185.82 408.47 192.48 405.92 199.04 407.01 C 206.75 407.93 213.62 413.43 216.27 420.72 C 218.20 425.60 217.32 430.91 217.50 436.02 C 217.39 442.44 217.72 448.88 217.36 455.30 C 215.42 457.18 212.48 457.07 209.97 457.00 C 208.28 456.80 206.15 456.69 205.10 455.14 C 204.74 446.06 205.28 436.96 204.86 427.88 C 204.72 423.61 201.14 419.92 196.90 419.52 C 192.06 418.96 187.44 423.17 187.32 427.99 C 187.09 436.68 187.37 445.37 187.23 454.06 C 187.53 456.31 184.69 456.63 183.12 456.90 C 180.33 457.05 176.55 457.49 174.70 454.92 C 174.16 445.68 174.73 436.39 174.45 427.14 C 174.12 422.27 168.82 418.61 164.13 419.66 C 159.88 420.48 156.77 424.71 157.01 428.99 C 157.00 437.80 156.96 446.60 157.05 455.41 C 154.02 457.12 150.37 457.46 147.01 456.63 C 145.74 456.28 144.13 455.52 144.30 453.94 C 144.14 447.97 144.31 441.99 144.25 436.02 C 144.28 430.64 143.82 425.01 145.99 419.94 Z" />
<path fill="#221e1f" opacity="1.00" d=" M 222.23 407.41 C 234.79 407.01 247.39 407.39 259.96 407.23 C 261.73 407.32 263.63 406.97 265.32 407.62 C 267.27 410.24 267.04 413.84 266.55 416.90 C 266.18 418.11 265.76 420.14 264.08 419.94 C 259.39 420.12 254.69 419.94 250.00 420.00 C 250.02 431.78 249.95 443.56 250.04 455.33 C 246.33 457.40 240.23 458.33 237.34 454.69 C 237.11 443.13 237.32 431.56 237.25 420.00 C 232.21 419.88 227.16 420.26 222.14 419.81 C 219.75 416.36 219.64 410.76 222.23 407.41 Z" />
<path fill="#221e1f" opacity="1.00" d=" M 286.57 407.71 C 297.93 404.29 311.13 410.19 316.11 420.96 C 320.73 430.41 318.75 442.73 310.98 449.94 C 303.01 458.02 289.36 459.34 279.89 453.16 C 271.77 448.19 267.10 438.28 268.41 428.85 C 269.46 418.99 276.98 410.25 286.57 407.71 M 289.18 420.23 C 284.39 422.01 280.80 426.84 280.96 432.02 C 280.84 438.82 287.20 444.94 294.04 444.28 C 301.21 444.23 307.05 436.90 305.69 429.89 C 304.70 422.50 296.13 417.42 289.18 420.23 Z" />
<path fill="#221e1f" opacity="1.00" d=" M 335.99 409.99 C 344.09 404.77 355.48 406.13 362.38 412.78 C 367.46 408.40 374.30 405.81 381.04 407.07 C 390.72 408.41 398.80 417.17 399.00 426.99 C 398.99 436.03 399.04 445.08 398.97 454.12 C 399.26 456.23 396.64 456.60 395.15 456.89 C 392.31 457.09 388.83 457.43 386.63 455.25 C 386.22 446.22 386.74 437.16 386.41 428.13 C 386.35 423.28 381.83 419.13 377.00 419.50 C 372.62 419.74 368.91 423.70 368.82 428.06 C 368.48 437.21 369.11 446.39 368.54 455.52 C 364.97 457.63 360.00 457.70 356.46 455.51 C 355.87 446.39 356.57 437.22 356.14 428.09 C 356.10 423.01 351.07 418.70 346.05 419.59 C 341.97 420.17 338.68 423.95 338.55 428.05 C 338.30 437.12 338.76 446.22 338.36 455.29 C 334.99 457.72 329.14 457.96 325.97 455.07 C 325.47 446.40 325.87 437.68 325.77 428.99 C 325.66 421.46 329.44 413.88 335.99 409.99 Z" />
</g>
<g id="#f26658ff">
<path fill="#f26658" opacity="1.00" d=" M 471.04 433.52 C 466.36 429.57 463.92 422.56 467.89 417.26 C 469.05 419.24 470.18 421.24 471.47 423.14 C 471.79 423.24 472.42 423.45 472.74 423.55 L 472.98 423.62 C 472.95 423.75 472.90 424.00 472.87 424.13 C 472.24 427.25 471.67 430.39 471.04 433.52 Z" />
</g>
<g id="#eeeff1ff">
<path fill="#eeeff1" opacity="1.00" d=" M 435.82 422.09 C 436.29 421.98 437.23 421.76 437.70 421.66 C 441.77 423.60 445.68 425.87 449.46 428.34 C 446.62 431.41 443.10 433.69 439.11 434.96 C 436.24 435.60 437.54 439.13 437.22 441.23 C 436.52 441.80 435.81 442.37 435.12 442.94 C 434.98 442.38 434.71 441.26 434.57 440.70 C 435.57 435.19 437.56 429.82 437.89 424.21 C 437.37 423.68 436.34 422.62 435.82 422.09 Z" />
</g>
<g id="#d8dadcff">
<path fill="#d8dadc" opacity="1.00" d=" M 439.11 434.96 C 443.10 433.69 446.62 431.41 449.46 428.34 C 451.00 429.59 452.51 431.09 452.68 433.20 C 448.95 436.50 443.58 434.73 439.11 434.96 Z" />
</g>
<g id="#b3b5b6ff">
<path fill="#b3b5b6" opacity="1.00" d=" M 463.30 442.01 C 465.94 441.55 468.40 440.48 470.80 439.30 C 469.47 443.73 467.43 447.91 464.50 451.51 C 464.96 448.29 464.80 444.95 463.30 442.01 Z" />
</g>
<g id="#d4d6d7ff">
<path fill="#d4d6d7" opacity="1.00" d=" M 434.33 450.31 C 433.36 447.13 433.68 443.84 434.57 440.70 C 434.71 441.26 434.98 442.38 435.12 442.94 C 435.81 442.37 436.52 441.80 437.22 441.23 C 440.52 441.74 443.84 442.06 447.18 442.24 C 446.47 442.79 445.77 443.34 445.07 443.89 C 441.78 446.49 438.50 449.27 434.33 450.31 Z" />
<path fill="#d4d6d7" opacity="1.00" d=" M 459.54 442.95 C 460.76 442.52 462.03 442.27 463.30 442.01 C 464.80 444.95 464.96 448.29 464.50 451.51 C 461.87 455.76 457.19 458.95 452.49 460.52 C 450.24 460.18 448.01 459.70 445.79 459.26 C 445.43 458.26 445.08 457.26 444.74 456.28 C 443.49 456.98 442.23 457.68 440.99 458.40 L 441.54 456.93 C 444.63 454.30 447.71 451.63 450.45 448.63 C 452.99 446.05 456.22 444.30 459.54 442.95 M 451.78 456.13 C 455.73 457.30 459.42 454.66 460.66 450.95 C 459.72 449.61 458.51 449.24 457.02 449.84 C 454.37 451.01 453.03 453.70 451.78 456.13 Z" />
</g>
<g id="#bdbec0ff">
<path fill="#bdbec0" opacity="1.00" d=" M 447.95 442.98 C 451.80 442.62 455.68 442.60 459.54 442.95 C 456.22 444.30 452.99 446.05 450.45 448.63 C 449.65 446.73 448.81 444.84 447.95 442.98 Z" />
</g>
<g id="#efefefff">
<path fill="#efefef" opacity="1.00" d=" M 496.01 461.99 C 499.38 456.86 501.12 450.89 504.33 445.67 C 501.57 459.97 492.38 471.89 483.08 482.68 C 473.29 492.78 460.67 499.88 447.38 504.29 C 435.99 507.89 423.92 508.18 412.08 507.98 C 313.71 507.91 215.34 507.99 116.97 507.95 C 105.64 507.84 94.30 508.25 82.98 507.64 C 65.41 506.59 48.54 499.26 35.04 488.11 C 27.80 482.38 21.61 475.29 16.87 467.37 C 14.02 462.37 11.15 457.31 9.72 451.70 C 13.30 456.52 15.75 462.05 19.16 466.99 C 23.44 473.50 29.30 478.73 34.89 484.07 C 48.00 495.31 64.77 502.12 81.96 503.49 C 87.99 503.58 93.98 504.32 100.00 504.65 C 194.67 504.58 289.34 504.61 384.01 504.63 C 397.66 504.46 411.34 505.16 424.93 503.72 C 453.84 503.58 481.45 486.75 496.01 461.99 Z" />
</g>
<g id="#f05045ff">
<path fill="#f05045" opacity="1.00" d=" M 412.73 447.62 C 420.44 446.37 427.36 452.59 428.72 459.95 C 426.99 460.25 425.29 460.56 423.58 460.87 C 420.40 459.11 417.47 456.94 414.95 454.32 C 415.33 453.99 416.08 453.32 416.46 452.98 C 418.81 455.73 421.86 457.78 425.14 459.26 C 425.14 453.70 419.94 449.45 414.50 450.40 C 413.88 449.49 413.29 448.53 412.73 447.62 Z" />
</g>
<g id="#f36e5fff">
<path fill="#f36e5f" opacity="1.00" d=" M 414.50 450.40 C 419.94 449.45 425.14 453.70 425.14 459.26 C 421.86 457.78 418.81 455.73 416.46 452.98 C 415.97 452.34 414.99 451.04 414.50 450.40 Z" />
</g>
<g id="#f5f6f7ff">
<path fill="#f5f6f7" opacity="1.00" d=" M 451.78 456.13 C 453.03 453.70 454.37 451.01 457.02 449.84 C 458.51 449.24 459.72 449.61 460.66 450.95 C 459.42 454.66 455.73 457.30 451.78 456.13 Z" />
</g>
<g id="#afb2b4ff">
<path fill="#afb2b4" opacity="1.00" d=" M 440.99 458.40 C 442.23 457.68 443.49 456.98 444.74 456.28 C 445.08 457.26 445.43 458.26 445.79 459.26 C 448.01 459.70 450.24 460.18 452.49 460.52 C 446.94 463.00 440.77 463.27 434.80 462.77 C 436.72 461.12 438.78 459.64 440.99 458.40 Z" />
</g>
<g id="#d4d4d4ff">
<path fill="#d4d4d4" opacity="1.00" d=" M 13.55 469.67 C 14.69 468.94 15.78 468.15 16.87 467.37 C 21.61 475.29 27.80 482.38 35.04 488.11 C 48.54 499.26 65.41 506.59 82.98 507.64 C 94.30 508.25 105.64 507.84 116.97 507.95 C 215.34 507.99 313.71 507.91 412.08 507.98 C 423.92 508.18 435.99 507.89 447.38 504.29 C 460.67 499.88 473.29 492.78 483.08 482.68 C 484.60 483.07 486.12 483.46 487.65 483.86 C 475.78 495.97 460.85 505.35 444.28 509.35 C 440.24 510.22 436.19 511.11 432.15 512.00 L 79.58 512.00 C 72.74 510.35 65.73 509.28 59.13 506.74 C 40.39 499.87 24.12 486.60 13.55 469.67 Z" />
</g>
</svg>
