<?xml version="1.0" encoding="UTF-8" ?>
<!DOCTYPE svg PUBLIC "-//W3C//DTD SVG 1.1//EN" "http://www.w3.org/Graphics/SVG/1.1/DTD/svg11.dtd">
<svg width="300pt" height="300pt" viewBox="0 0 300 300" version="1.1" xmlns="http://www.w3.org/2000/svg">
<g id="#00000032">
<path fill="#000000" opacity="0.20" d=" M 109.60 11.01 C 113.29 8.62 119.03 10.11 122.28 12.88 C 118.17 11.57 113.97 9.14 109.60 11.01 Z" />
<path fill="#000000" opacity="0.20" d=" M 125.79 14.04 C 128.81 13.86 131.92 14.95 134.18 16.97 C 131.38 15.99 128.58 15.05 125.79 14.04 Z" />
<path fill="#000000" opacity="0.20" d=" M 247.99 19.28 C 252.00 18.35 256.01 16.72 260.20 17.12 C 236.35 22.75 212.49 28.33 188.68 34.08 C 189.53 32.90 191.05 32.78 192.34 32.42 C 210.92 28.16 229.39 23.45 247.99 19.28 Z" />
<path fill="#000000" opacity="0.20" d=" M 164.31 27.21 C 165.81 25.70 170.08 26.60 169.65 29.00 C 167.84 28.48 166.05 27.90 164.31 27.21 Z" />
<path fill="#000000" opacity="0.20" d=" M 12.65 34.08 C 16.27 31.82 20.96 31.06 25.20 31.11 C 21.00 32.03 16.87 33.26 12.65 34.08 Z" />
<path fill="#000000" opacity="0.20" d=" M 9.27 43.03 C 9.43 40.56 8.70 37.83 10.16 35.64 C 10.04 120.39 10.29 205.15 10.03 289.90 C 8.67 287.15 9.46 284.01 9.29 281.07 C 9.27 201.72 9.29 122.37 9.27 43.03 Z" />
<path fill="#000000" opacity="0.20" d=" M 48.41 37.05 C 49.06 50.54 48.62 64.07 48.65 77.57 C 46.96 77.78 45.27 78.01 43.60 78.37 C 36.36 80.07 29.20 82.13 21.88 83.50 C 21.97 83.40 22.13 83.22 22.22 83.13 C 28.80 81.97 35.26 80.23 41.73 78.56 C 43.79 77.91 46.42 77.97 47.89 76.19 C 47.98 75.90 48.15 75.31 48.24 75.01 C 48.61 62.37 48.36 49.70 48.41 37.05 Z" />
<path fill="#000000" opacity="0.20" d=" M 192.59 288.37 C 224.81 280.75 257.02 273.08 289.26 265.59 C 289.13 266.10 288.85 267.11 288.72 267.61 C 260.15 274.45 231.55 281.21 202.96 287.99 C 197.76 289.51 192.29 290.02 187.21 291.97 C 179.80 289.71 172.44 287.30 165.07 284.91 C 158.53 282.60 151.71 281.22 145.24 278.68 C 140.69 276.97 135.95 275.82 131.26 274.56 C 129.33 273.99 127.30 274.07 125.35 274.46 C 119.95 275.47 114.43 274.98 108.97 275.07 C 103.46 275.25 98.16 272.25 92.65 273.58 C 87.42 274.90 82.01 275.21 76.79 276.54 C 70.03 278.72 62.91 279.32 56.09 281.25 C 51.31 282.55 46.36 283.14 41.63 284.62 C 31.43 286.61 21.48 289.71 11.30 291.74 C 9.86 290.23 12.91 289.38 14.01 289.44 C 16.88 289.50 19.28 287.72 22.01 287.15 C 37.94 283.45 53.84 279.62 69.75 275.88 C 76.11 275.80 82.05 273.29 88.25 272.24 C 96.63 270.88 104.78 268.28 113.20 267.21 C 120.67 267.26 127.07 272.57 134.57 272.40 C 151.18 278.08 167.84 283.62 184.41 289.40 C 187.14 290.31 189.90 288.78 192.59 288.37 Z" />
</g>
<g id="#969696ff">
<path fill="#969696" opacity="1.00" d=" M 260.94 17.00 C 270.45 14.08 280.29 12.26 289.95 9.86 C 289.97 10.32 290.01 11.24 290.03 11.70 C 289.93 96.30 290.20 180.90 289.89 265.50 C 289.40 261.02 289.62 256.51 289.59 252.02 C 289.56 171.52 289.66 91.03 289.54 10.54 C 279.96 12.49 270.57 15.32 260.94 17.00 Z" />
<path fill="#969696" opacity="1.00" d=" M 21.88 83.50 C 29.20 82.13 36.36 80.07 43.60 78.37 C 45.52 80.28 47.98 81.40 50.37 82.58 C 53.31 84.00 55.21 86.75 57.20 89.22 C 47.29 91.79 37.24 93.79 27.36 96.45 C 27.12 96.48 26.64 96.53 26.40 96.56 C 25.15 95.31 23.85 93.93 22.00 93.69 C 21.93 90.29 21.50 86.88 21.88 83.50 Z" />
</g>
<g id="#ffffffff">
<path fill="#ffffff" opacity="1.00" d=" M 92.33 15.23 C 98.06 13.73 103.87 12.54 109.60 11.01 C 113.97 9.14 118.17 11.57 122.28 12.88 C 123.44 13.30 124.62 13.66 125.79 14.04 C 128.58 15.05 131.38 15.99 134.18 16.97 C 144.25 20.31 154.26 23.80 164.31 27.21 C 166.05 27.90 167.84 28.48 169.65 29.00 C 172.64 30.15 175.73 31.02 178.71 32.20 C 181.08 33.23 183.49 34.15 185.96 34.90 C 186.51 34.73 187.59 34.40 188.14 34.23 L 188.68 34.08 C 212.49 28.33 236.35 22.75 260.20 17.12 L 260.94 17.00 C 270.57 15.32 279.96 12.49 289.54 10.54 C 289.66 91.03 289.56 171.52 289.59 252.02 C 289.62 256.51 289.40 261.02 289.89 265.50 C 289.74 265.52 289.42 265.57 289.26 265.59 C 257.02 273.08 224.81 280.75 192.59 288.37 C 189.90 288.78 187.14 290.31 184.41 289.40 C 167.84 283.62 151.18 278.08 134.57 272.40 C 130.17 270.77 125.79 269.03 121.24 267.83 C 120.82 266.25 119.06 265.90 117.67 265.78 L 116.99 265.85 C 115.02 265.75 113.02 265.33 111.08 265.91 C 97.34 269.37 83.47 272.32 69.75 275.88 C 53.84 279.62 37.94 283.45 22.01 287.15 C 17.73 286.89 14.24 289.67 10.03 289.90 C 10.29 205.15 10.04 120.39 10.16 35.64 C 10.16 35.36 10.16 34.81 10.17 34.53 C 10.79 34.41 12.03 34.19 12.65 34.08 C 16.87 33.26 21.00 32.03 25.20 31.11 C 45.11 26.42 64.95 21.46 84.92 17.05 C 87.44 16.68 89.94 16.13 92.33 15.23 M 95.99 25.90 C 85.20 27.86 74.77 31.68 63.85 32.95 C 63.61 46.37 63.47 59.82 63.97 73.23 L 65.27 72.74 C 64.64 77.48 65.42 82.29 67.42 86.63 C 63.98 87.65 61.41 84.75 58.73 83.16 C 55.54 81.00 51.91 79.62 48.65 77.57 C 48.62 64.07 49.06 50.54 48.41 37.05 C 40.02 39.42 31.42 40.94 22.98 43.07 C 21.80 43.25 21.24 43.93 21.29 45.11 C 21.62 54.37 20.92 63.65 21.41 72.91 C 21.24 75.93 21.07 78.95 21.31 81.97 C 21.59 86.94 19.75 92.41 22.68 96.90 C 22.29 97.38 21.53 98.36 21.14 98.84 L 21.77 98.89 C 21.70 100.29 21.63 101.69 21.57 103.09 C 21.67 160.56 21.50 218.03 21.64 275.50 C 23.34 275.21 25.06 275.08 26.73 274.61 C 43.76 270.32 61.01 266.85 77.97 262.29 C 89.75 259.74 101.52 256.98 113.22 254.08 C 113.25 215.14 113.64 176.18 112.54 137.26 L 113.08 137.14 C 113.51 131.76 113.14 126.36 113.19 120.97 L 112.96 119.77 C 113.58 110.22 112.69 100.63 113.06 91.07 C 113.06 89.06 113.33 86.80 111.81 85.21 C 113.96 77.94 113.08 69.56 108.60 63.30 C 111.02 62.93 113.55 61.63 115.97 62.82 C 138.80 70.63 161.64 78.46 184.44 86.36 L 184.22 87.08 C 184.76 86.96 185.84 86.72 186.39 86.60 C 216.83 78.75 247.80 72.65 278.13 64.51 L 278.59 64.66 C 278.22 51.29 278.54 37.84 278.36 24.44 C 271.88 25.46 265.54 27.22 259.20 28.85 C 254.83 29.61 250.59 30.93 246.26 31.84 C 240.42 32.82 234.76 34.59 229.01 35.94 C 218.86 38.25 208.74 40.64 198.67 43.23 C 194.64 44.12 190.10 44.20 186.60 46.46 L 186.31 46.28 C 164.93 40.06 144.11 31.93 122.88 25.13 C 119.53 24.18 116.47 22.37 113.01 21.80 C 107.33 23.11 101.66 24.49 95.99 25.90 M 113.64 75.54 C 113.48 90.42 113.68 105.31 113.63 120.20 C 113.65 125.67 113.79 131.14 113.56 136.61 L 114.19 137.42 C 113.12 141.52 113.75 145.78 113.58 149.96 C 113.87 184.64 113.52 219.32 113.82 254.00 C 124.58 256.42 134.69 261.02 145.31 263.88 C 145.68 264.14 146.43 264.66 146.81 264.92 C 147.19 244.47 146.53 224.01 146.73 203.55 C 150.27 204.61 153.72 205.96 157.33 206.80 L 157.38 207.15 C 158.59 207.51 159.80 207.85 161.04 208.13 C 160.36 227.42 160.92 246.75 160.63 266.05 C 160.91 267.39 159.97 270.17 162.25 270.07 C 170.28 272.53 178.11 275.59 186.14 278.04 C 190.33 278.03 194.22 276.21 198.30 275.45 C 205.80 274.01 213.19 272.07 220.55 270.03 C 222.08 269.30 221.12 267.35 221.35 266.05 C 221.25 247.00 221.34 227.94 221.31 208.90 C 223.70 207.11 227.19 207.30 230.02 206.29 C 232.28 206.04 234.48 205.42 236.66 204.79 C 236.73 225.23 236.54 245.67 236.77 266.11 L 237.97 266.04 C 243.02 264.97 248.00 263.53 253.15 263.03 C 253.57 243.69 253.15 224.33 253.34 204.99 C 253.42 203.56 253.28 200.53 251.13 201.34 C 252.85 197.17 253.21 191.31 248.57 188.86 C 248.52 188.47 248.42 187.68 248.37 187.28 C 258.28 185.34 268.08 182.80 277.91 180.52 C 278.09 180.20 278.43 179.55 278.61 179.22 C 278.02 146.09 278.83 112.91 278.20 79.78 L 278.69 78.57 C 247.64 85.58 216.83 93.66 185.83 100.90 L 185.53 100.67 C 180.17 97.98 174.26 96.57 168.67 94.42 C 166.10 93.78 163.56 91.95 160.83 92.78 C 160.51 107.57 160.85 122.37 160.68 137.16 C 156.01 135.36 151.39 133.40 146.78 131.44 C 147.86 126.36 147.01 121.15 147.27 116.00 C 147.13 106.32 147.53 96.61 147.09 86.94 C 135.97 83.06 124.91 78.96 113.64 75.54 M 267.16 197.25 C 266.78 217.94 267.09 238.65 267.07 259.34 L 268.14 258.82 C 271.47 257.88 275.47 257.86 278.27 255.99 C 278.53 236.00 278.42 215.97 278.32 195.97 L 278.58 194.50 C 274.71 195.14 270.92 196.13 267.16 197.25 Z" />
</g>
<g id="#00000029">
<path fill="#000000" opacity="0.16" d=" M 290.03 11.70 C 290.60 12.75 290.83 13.87 290.73 15.06 C 290.65 96.36 290.75 177.66 290.71 258.95 C 290.56 261.13 291.24 263.58 289.89 265.50 C 290.20 180.90 289.93 96.30 290.03 11.70 Z" />
</g>
<g id="#737373bb">
<path fill="#737373" opacity="0.73" d=" M 84.92 17.05 C 87.29 16.08 89.72 15.15 92.33 15.23 C 89.94 16.13 87.44 16.68 84.92 17.05 Z" />
</g>
<g id="#f1ede9ff">
<path fill="#f1ede9" opacity="1.00" d=" M 95.99 25.90 C 101.66 24.49 107.33 23.11 113.01 21.80 C 112.89 34.90 113.01 48.00 113.03 61.11 C 111.26 61.49 109.52 61.96 107.78 62.41 C 104.79 58.90 100.87 56.25 96.51 54.78 C 94.29 50.88 95.07 46.31 94.98 42.04 C 94.94 36.63 96.49 31.32 95.99 25.90 Z" />
</g>
<g id="#f8f6f5ff">
<path fill="#f8f6f5" opacity="1.00" d=" M 113.01 21.80 C 116.47 22.37 119.53 24.18 122.88 25.13 C 144.11 31.93 164.93 40.06 186.31 46.28 C 186.64 59.71 186.46 73.16 186.39 86.60 C 185.84 86.72 184.76 86.96 184.22 87.08 L 184.44 86.36 C 184.52 86.08 184.69 85.51 184.78 85.22 C 163.95 78.12 143.15 70.91 122.33 63.78 C 119.28 62.73 116.26 61.44 113.03 61.11 C 113.01 48.00 112.89 34.90 113.01 21.80 Z" />
<path fill="#f8f6f5" opacity="1.00" d=" M 186.56 101.34 C 199.38 98.10 212.29 95.21 225.17 92.20 C 225.16 95.91 227.30 99.24 226.99 102.97 C 226.75 108.61 228.67 114.28 232.28 118.62 C 225.26 122.74 220.24 130.69 220.59 138.95 C 220.49 143.67 222.50 148.21 225.01 152.10 C 222.61 153.10 221.35 150.45 219.71 149.29 C 210.03 141.44 198.07 137.15 186.10 134.25 C 186.00 139.83 185.97 145.42 186.11 151.00 C 186.22 154.90 185.45 158.83 186.26 162.70 C 199.08 168.68 211.48 175.48 224.01 182.02 C 228.14 184.48 232.33 186.86 236.81 188.63 C 220.20 193.87 202.98 196.91 186.13 201.32 L 185.68 202.34 C 185.61 207.17 185.55 212.00 185.79 216.82 C 186.37 237.21 185.73 257.64 186.14 278.04 C 178.11 275.59 170.28 272.53 162.25 270.07 C 162.27 249.90 162.13 229.73 161.96 209.56 C 169.36 211.25 176.20 214.85 183.69 216.25 L 184.61 216.62 C 185.40 211.79 185.11 206.90 185.03 202.04 C 184.66 200.67 183.32 200.20 182.12 199.80 C 175.46 197.53 168.83 195.19 162.19 192.85 C 161.97 159.86 162.14 126.86 162.10 93.87 C 167.23 95.08 172.09 97.12 177.06 98.84 C 179.80 99.76 182.56 101.16 185.53 100.67 L 185.83 100.90 C 186.01 101.01 186.37 101.23 186.56 101.34 M 169.64 136.48 C 166.08 138.26 165.64 143.26 167.55 146.39 C 171.47 152.90 177.81 157.78 184.65 160.91 C 185.23 156.64 185.40 152.32 185.24 148.01 C 185.07 143.52 185.61 138.97 184.53 134.55 C 179.59 133.10 174.15 134.17 169.64 136.48 Z" />
</g>
<g id="#e4dad6ff">
<path fill="#e4dad6" opacity="1.00" d=" M 259.20 28.85 C 265.54 27.22 271.88 25.46 278.36 24.44 C 278.54 37.84 278.22 51.29 278.59 64.66 L 278.13 64.51 C 273.11 63.76 268.16 66.59 263.15 67.27 C 262.09 66.29 259.94 65.83 260.10 64.03 C 260.06 54.34 260.01 44.64 260.10 34.94 C 260.12 32.88 259.66 30.85 259.20 28.85 Z" />
</g>
<g id="#f5f1efff">
<path fill="#f5f1ef" opacity="1.00" d=" M 63.85 32.95 C 74.77 31.68 85.20 27.86 95.99 25.90 C 96.49 31.32 94.94 36.63 94.98 42.04 C 95.07 46.31 94.29 50.88 96.51 54.78 C 87.80 51.95 77.67 54.70 71.52 61.45 C 68.48 64.60 66.78 68.70 65.27 72.74 L 63.97 73.23 C 63.47 59.82 63.61 46.37 63.85 32.95 Z" />
</g>
<g id="#ebe2ddff">
<path fill="#ebe2dd" opacity="1.00" d=" M 246.26 31.84 C 250.59 30.93 254.83 29.61 259.20 28.85 C 259.66 30.85 260.12 32.88 260.10 34.94 C 260.01 44.64 260.06 54.34 260.10 64.03 C 259.94 65.83 262.09 66.29 263.15 67.27 C 258.82 68.18 254.56 69.35 250.25 70.33 C 249.09 69.57 247.93 68.82 246.78 68.06 C 246.45 55.99 247.59 43.86 246.26 31.84 Z" />
</g>
<g id="#848484bb">
<path fill="#848484" opacity="0.73" d=" M 178.71 32.20 C 181.95 32.51 184.74 34.72 188.14 34.23 C 187.59 34.40 186.51 34.73 185.96 34.90 C 183.49 34.15 181.08 33.23 178.71 32.20 Z" />
</g>
<g id="#f1edeaff">
<path fill="#f1edea" opacity="1.00" d=" M 229.01 35.94 C 234.76 34.59 240.42 32.82 246.26 31.84 C 247.59 43.86 246.45 55.99 246.78 68.06 C 247.93 68.82 249.09 69.57 250.25 70.33 C 239.51 72.76 228.87 75.55 218.19 78.17 C 216.34 76.93 214.23 75.68 213.79 73.30 C 211.68 65.74 206.80 59.47 203.66 52.37 C 202.17 49.23 200.30 46.30 198.67 43.23 C 208.74 40.64 218.86 38.25 229.01 35.94 Z" />
</g>
<g id="#f1eeecff">
<path fill="#f1eeec" opacity="1.00" d=" M 22.98 43.07 C 31.42 40.94 40.02 39.42 48.41 37.05 C 48.36 49.70 48.61 62.37 48.24 75.01 C 48.15 75.31 47.98 75.90 47.89 76.19 C 39.55 74.80 31.59 70.93 22.93 71.47 C 22.55 71.83 21.79 72.55 21.41 72.91 C 20.92 63.65 21.62 54.37 21.29 45.11 C 21.24 43.93 21.80 43.25 22.98 43.07 Z" />
</g>
<g id="#f7f4f4ff">
<path fill="#f7f4f4" opacity="1.00" d=" M 186.60 46.46 C 190.10 44.20 194.64 44.12 198.67 43.23 C 200.30 46.30 202.17 49.23 203.66 52.37 C 206.80 59.47 211.68 65.74 213.79 73.30 C 214.23 75.68 216.34 76.93 218.19 78.17 C 207.64 80.67 197.17 83.50 186.58 85.77 C 186.52 72.66 186.59 59.55 186.60 46.46 Z" />
</g>
<g id="#8e8a8aff">
<path fill="#8e8a8a" opacity="1.00" d=" M 186.31 46.28 L 186.60 46.46 C 186.59 59.55 186.52 72.66 186.58 85.77 C 197.17 83.50 207.64 80.67 218.19 78.17 C 228.87 75.55 239.51 72.76 250.25 70.33 C 254.56 69.35 258.82 68.18 263.15 67.27 C 268.16 66.59 273.11 63.76 278.13 64.51 C 247.80 72.65 216.83 78.75 186.39 86.60 C 186.46 73.16 186.64 59.71 186.31 46.28 Z" />
<path fill="#8e8a8a" opacity="1.00" d=" M 22.08 73.89 C 28.72 74.64 36.12 74.34 41.73 78.56 C 35.26 80.23 28.80 81.97 22.22 83.13 C 21.24 80.13 21.97 76.96 22.08 73.89 Z" />
<path fill="#8e8a8a" opacity="1.00" d=" M 185.83 100.90 C 216.83 93.66 247.64 85.58 278.69 78.57 L 278.20 79.78 C 268.95 81.89 259.73 84.08 250.50 86.27 C 246.15 87.35 241.80 88.39 237.43 89.38 C 233.33 90.24 229.24 91.20 225.17 92.20 C 212.29 95.21 199.38 98.10 186.56 101.34 C 186.37 101.23 186.01 101.01 185.83 100.90 Z" />
<path fill="#8e8a8a" opacity="1.00" d=" M 265.73 182.37 C 270.03 181.37 274.30 180.22 278.61 179.22 C 278.43 179.55 278.09 180.20 277.91 180.52 C 268.08 182.80 258.28 185.34 248.37 187.28 C 248.42 187.68 248.52 188.47 248.57 188.86 C 247.92 188.40 247.26 187.95 246.60 187.50 C 252.87 185.43 259.32 183.93 265.73 182.37 Z" />
</g>
<g id="#eb696bff">
<path fill="#eb696b" opacity="1.00" d=" M 71.52 61.45 C 77.67 54.70 87.80 51.95 96.51 54.78 C 100.87 56.25 104.79 58.90 107.78 62.41 C 107.98 62.63 108.39 63.08 108.60 63.30 C 113.08 69.56 113.96 77.94 111.81 85.21 C 106.67 97.02 100.28 108.25 93.93 119.44 C 93.74 119.05 93.37 118.29 93.18 117.90 C 94.29 114.42 96.28 111.32 98.01 108.12 C 100.36 104.05 102.96 100.12 104.98 95.87 C 106.72 92.26 108.57 88.70 110.10 85.00 C 112.27 79.43 112.41 72.84 109.67 67.44 C 105.74 60.00 97.56 54.74 89.02 55.19 C 82.07 55.11 75.50 58.87 71.43 64.39 C 68.64 67.60 67.96 71.89 67.00 75.88 C 66.86 79.53 68.07 83.01 69.02 86.48 L 67.82 86.60 L 67.42 86.63 C 65.42 82.29 64.64 77.48 65.27 72.74 C 66.78 68.70 68.48 64.60 71.52 61.45 Z" />
<path fill="#eb696b" opacity="1.00" d=" M 82.47 131.59 C 83.39 129.12 85.91 127.93 88.17 126.99 L 88.51 127.96 C 88.81 128.42 89.40 129.33 89.69 129.78 C 89.85 129.32 90.16 128.41 90.31 127.95 C 92.07 126.39 94.33 129.35 95.32 130.80 C 98.65 135.83 92.68 143.04 87.10 140.88 C 83.15 139.96 80.97 135.29 82.47 131.59 Z" />
</g>
<g id="#f5adafff">
<path fill="#f5adaf" opacity="1.00" d=" M 71.43 64.39 C 75.50 58.87 82.07 55.11 89.02 55.19 C 97.56 54.74 105.74 60.00 109.67 67.44 C 112.41 72.84 112.27 79.43 110.10 85.00 C 108.03 83.19 105.42 82.29 103.06 80.96 C 100.93 79.38 99.00 77.55 96.86 75.99 C 96.56 74.15 97.16 71.84 95.53 70.49 C 93.91 68.89 91.52 68.66 89.35 68.68 C 86.47 68.70 83.60 68.69 80.72 68.63 C 80.34 69.97 79.95 71.30 79.57 72.64 C 77.77 69.10 74.32 66.95 71.43 64.39 Z" />
</g>
<g id="#c4c2c1ff">
<path fill="#c4c2c1" opacity="1.00" d=" M 107.78 62.41 C 109.52 61.96 111.26 61.49 113.03 61.11 C 116.26 61.44 119.28 62.73 122.33 63.78 C 143.15 70.91 163.95 78.12 184.78 85.22 C 184.69 85.51 184.52 86.08 184.44 86.36 C 161.64 78.46 138.80 70.63 115.97 62.82 C 113.55 61.63 111.02 62.93 108.60 63.30 C 108.39 63.08 107.98 62.63 107.78 62.41 Z" />
<path fill="#c4c2c1" opacity="1.00" d=" M 169.64 136.48 C 174.15 134.17 179.59 133.10 184.53 134.55 C 185.61 138.97 185.07 143.52 185.24 148.01 C 185.40 152.32 185.23 156.64 184.65 160.91 C 177.81 157.78 171.47 152.90 167.55 146.39 C 165.64 143.26 166.08 138.26 169.64 136.48 Z" />
</g>
<g id="#f18f92ff">
<path fill="#f18f92" opacity="1.00" d=" M 67.00 75.88 C 67.96 71.89 68.64 67.60 71.43 64.39 C 74.32 66.95 77.77 69.10 79.57 72.64 C 79.95 71.30 80.34 69.97 80.72 68.63 C 81.04 76.66 80.62 84.69 80.69 92.73 C 79.35 90.08 78.38 86.97 75.75 85.29 C 72.16 82.85 69.11 79.69 67.00 75.88 Z" />
</g>
<g id="#892c2eff">
<path fill="#892c2e" opacity="1.00" d=" M 80.72 68.63 C 83.60 68.69 86.47 68.70 89.35 68.68 C 87.66 69.43 86.12 70.46 84.60 71.50 C 84.53 71.66 84.39 71.97 84.33 72.13 C 84.21 74.08 84.22 76.03 84.18 77.98 L 84.79 78.12 C 87.60 78.97 90.56 79.60 93.09 81.16 C 90.14 81.23 87.19 81.21 84.24 81.24 C 84.26 84.01 84.29 86.77 84.34 89.54 C 86.77 89.54 89.21 89.58 91.64 89.48 C 92.52 90.33 93.40 91.18 94.28 92.03 C 91.06 92.60 87.78 92.65 84.52 92.71 C 83.25 92.72 81.97 92.72 80.69 92.73 C 80.62 84.69 81.04 76.66 80.72 68.63 Z" />
<path fill="#892c2e" opacity="1.00" d=" M 67.82 86.60 L 69.02 86.48 C 71.09 92.37 74.96 97.37 77.88 102.84 C 82.11 109.61 85.52 116.83 89.18 123.91 C 92.01 123.80 92.15 119.91 93.18 117.90 C 93.37 118.29 93.74 119.05 93.93 119.44 C 93.09 120.99 92.41 122.62 91.78 124.28 L 91.29 125.49 C 94.54 127.13 97.75 129.99 97.66 133.95 C 97.99 136.64 96.27 138.88 95.07 141.09 C 99.09 140.24 103.10 139.30 107.08 138.27 C 109.07 137.83 111.07 137.47 113.08 137.14 L 112.54 137.26 C 104.35 138.96 96.33 141.32 88.22 143.31 C 87.77 143.20 86.88 142.98 86.44 142.87 C 84.17 141.52 81.65 140.01 80.85 137.31 C 79.63 134.06 80.82 130.63 82.56 127.84 C 84.25 126.76 86.09 125.95 88.03 125.43 C 87.93 125.13 87.73 124.53 87.63 124.22 C 82.64 110.88 73.40 99.67 67.82 86.60 M 88.51 127.96 L 88.17 126.99 C 85.91 127.93 83.39 129.12 82.47 131.59 C 80.97 135.29 83.15 139.96 87.10 140.88 C 92.68 143.04 98.65 135.83 95.32 130.80 C 94.33 129.35 92.07 126.39 90.31 127.95 L 89.86 127.17 C 89.52 127.37 88.85 127.76 88.51 127.96 Z" />
</g>
<g id="#9a4143ff">
<path fill="#9a4143" opacity="1.00" d=" M 89.35 68.68 C 91.52 68.66 93.91 68.89 95.53 70.49 C 97.16 71.84 96.56 74.15 96.86 75.99 C 96.03 76.88 95.20 77.78 94.37 78.67 C 98.86 80.51 100.48 86.09 97.47 89.98 C 96.43 90.69 95.36 91.37 94.28 92.03 C 93.40 91.18 92.52 90.33 91.64 89.48 C 93.22 88.76 95.35 88.10 95.41 86.00 C 95.95 83.96 94.50 82.37 93.09 81.16 C 90.56 79.60 87.60 78.97 84.79 78.12 C 87.10 78.12 89.45 78.13 91.73 77.66 C 93.70 76.66 94.28 73.00 91.96 72.12 C 89.54 71.65 87.06 71.61 84.60 71.50 C 86.12 70.46 87.66 69.43 89.35 68.68 Z" />
</g>
<g id="#f4a2a4ff">
<path fill="#f4a2a4" opacity="1.00" d=" M 84.33 72.13 C 84.39 71.97 84.53 71.66 84.60 71.50 C 87.06 71.61 89.54 71.65 91.96 72.12 C 94.28 73.00 93.70 76.66 91.73 77.66 C 89.45 78.13 87.10 78.12 84.79 78.12 L 84.18 77.98 C 84.22 76.03 84.21 74.08 84.33 72.13 Z" />
</g>
<g id="#aab3a3ff">
<path fill="#aab3a3" opacity="1.00" d=" M 21.41 72.91 C 21.79 72.55 22.55 71.83 22.93 71.47 C 31.59 70.93 39.55 74.80 47.89 76.19 C 46.42 77.97 43.79 77.91 41.73 78.56 C 36.12 74.34 28.72 74.64 22.08 73.89 C 21.97 76.96 21.24 80.13 22.22 83.13 C 22.13 83.22 21.97 83.40 21.88 83.50 C 21.50 86.88 21.93 90.29 22.00 93.69 C 23.85 93.93 25.15 95.31 26.40 96.56 C 25.75 96.86 24.45 97.47 23.80 97.77 C 26.17 98.15 28.70 98.06 30.89 99.15 C 42.10 105.54 53.79 111.03 65.30 116.86 C 70.83 119.74 76.67 122.12 81.63 125.97 C 80.77 126.74 79.90 127.49 78.99 128.21 L 78.15 127.44 C 74.29 124.11 69.46 122.29 65.03 119.88 C 54.59 114.25 44.01 108.91 33.40 103.59 C 29.61 101.81 26.27 98.54 21.77 98.89 L 21.14 98.84 C 21.53 98.36 22.29 97.38 22.68 96.90 C 19.75 92.41 21.59 86.94 21.31 81.97 C 21.07 78.95 21.24 75.93 21.41 72.91 Z" />
</g>
<g id="#ed7577ff">
<path fill="#ed7577" opacity="1.00" d=" M 67.00 75.88 C 69.11 79.69 72.16 82.85 75.75 85.29 C 78.38 86.97 79.35 90.08 80.69 92.73 C 81.97 92.72 83.25 92.72 84.52 92.71 C 87.53 99.02 93.46 103.04 98.01 108.12 C 96.28 111.32 94.29 114.42 93.18 117.90 C 92.15 119.91 92.01 123.80 89.18 123.91 C 85.52 116.83 82.11 109.61 77.88 102.84 C 74.96 97.37 71.09 92.37 69.02 86.48 C 68.07 83.01 66.86 79.53 67.00 75.88 Z" />
</g>
<g id="#f4a1a3ff">
<path fill="#f4a1a3" opacity="1.00" d=" M 94.37 78.67 C 95.20 77.78 96.03 76.88 96.86 75.99 C 99.00 77.55 100.93 79.38 103.06 80.96 C 105.42 82.29 108.03 83.19 110.10 85.00 C 108.57 88.70 106.72 92.26 104.98 95.87 C 102.65 93.70 100.02 91.89 97.47 89.98 C 100.48 86.09 98.86 80.51 94.37 78.67 Z" />
</g>
<g id="#eaf3e6ff">
<path fill="#eaf3e6" opacity="1.00" d=" M 113.64 75.54 C 124.91 78.96 135.97 83.06 147.09 86.94 C 147.53 96.61 147.13 106.32 147.27 116.00 C 147.01 121.15 147.86 126.36 146.78 131.44 C 138.11 128.60 129.51 125.57 120.86 122.65 C 118.45 121.83 116.05 121.01 113.63 120.20 C 113.68 105.31 113.48 90.42 113.64 75.54 Z" />
</g>
<g id="#a6a6a5ff">
<path fill="#a6a6a5" opacity="1.00" d=" M 43.60 78.37 C 45.27 78.01 46.96 77.78 48.65 77.57 C 51.91 79.62 55.54 81.00 58.73 83.16 C 61.41 84.75 63.98 87.65 67.42 86.63 L 67.82 86.60 C 73.40 99.67 82.64 110.88 87.63 124.22 C 87.25 124.40 86.51 124.74 86.13 124.91 C 81.33 116.24 77.17 107.23 72.11 98.71 C 70.04 95.14 67.12 92.19 64.87 88.74 L 64.37 88.06 C 61.94 88.20 59.53 88.54 57.20 89.22 C 55.21 86.75 53.31 84.00 50.37 82.58 C 47.98 81.40 45.52 80.28 43.60 78.37 Z" />
<path fill="#a6a6a5" opacity="1.00" d=" M 113.56 136.61 C 117.74 137.49 121.72 139.07 125.76 140.39 C 131.64 142.63 137.66 144.49 143.60 146.55 C 144.82 147.13 146.80 147.28 146.66 149.08 C 147.32 158.89 146.37 168.77 147.04 178.59 C 146.63 186.91 146.97 195.23 146.73 203.55 C 146.53 224.01 147.19 244.47 146.81 264.92 C 146.43 264.66 145.68 264.14 145.31 263.88 C 145.58 252.45 145.64 241.01 145.42 229.58 C 145.67 220.04 145.72 210.49 145.75 200.94 C 146.69 184.98 146.10 168.97 146.41 152.99 C 146.31 151.04 146.78 148.07 144.20 147.60 C 134.82 144.30 125.33 141.32 115.90 138.17 C 115.47 137.98 114.62 137.61 114.19 137.42 L 113.56 136.61 Z" />
</g>
<g id="#e4dbd6ff">
<path fill="#e4dbd6" opacity="1.00" d=" M 250.50 86.27 C 259.73 84.08 268.95 81.89 278.20 79.78 C 278.83 112.91 278.02 146.09 278.61 179.22 C 274.30 180.22 270.03 181.37 265.73 182.37 C 264.48 177.07 265.47 171.58 264.52 166.25 C 263.85 162.52 264.67 158.45 262.67 155.06 C 265.27 149.72 268.26 144.17 267.75 138.02 C 268.05 128.62 261.19 120.29 252.78 116.80 C 251.27 114.87 249.87 112.62 250.21 110.04 C 251.02 102.12 247.16 93.93 250.50 86.27 Z" />
</g>
<g id="#f39697ff">
<path fill="#f39697" opacity="1.00" d=" M 84.24 81.24 C 87.19 81.21 90.14 81.23 93.09 81.16 C 94.50 82.37 95.95 83.96 95.41 86.00 C 95.35 88.10 93.22 88.76 91.64 89.48 C 89.21 89.58 86.77 89.54 84.34 89.54 C 84.29 86.77 84.26 84.01 84.24 81.24 Z" />
</g>
<g id="#dfe7d5ff">
<path fill="#dfe7d5" opacity="1.00" d=" M 93.93 119.44 C 100.28 108.25 106.67 97.02 111.81 85.21 C 113.33 86.80 113.06 89.06 113.06 91.07 C 112.69 100.63 113.58 110.22 112.96 119.77 C 105.92 121.34 98.79 122.56 91.78 124.28 C 92.41 122.62 93.09 120.99 93.93 119.44 Z" />
</g>
<g id="#eee8e5ff">
<path fill="#eee8e5" opacity="1.00" d=" M 237.43 89.38 C 241.80 88.39 246.15 87.35 250.50 86.27 C 247.16 93.93 251.02 102.12 250.21 110.04 C 249.87 112.62 251.27 114.87 252.78 116.80 C 248.66 115.20 244.19 115.22 239.87 115.65 C 240.28 115.14 241.10 114.14 241.51 113.64 C 239.97 110.25 237.93 106.87 238.00 103.03 C 237.97 98.48 237.96 93.92 237.43 89.38 Z" />
</g>
<g id="#6c6864ff">
<path fill="#6c6864" opacity="1.00" d=" M 57.20 89.22 C 59.53 88.54 61.94 88.20 64.37 88.06 L 64.87 88.74 C 55.78 90.99 46.74 93.43 37.62 95.59 C 34.27 96.28 30.74 97.91 27.36 96.45 C 37.24 93.79 47.29 91.79 57.20 89.22 Z" />
</g>
<g id="#818a7cff">
<path fill="#818a7c" opacity="1.00" d=" M 37.62 95.59 C 46.74 93.43 55.78 90.99 64.87 88.74 C 67.12 92.19 70.04 95.14 72.11 98.71 C 77.17 107.23 81.33 116.24 86.13 124.91 C 86.51 124.74 87.25 124.40 87.63 124.22 C 87.73 124.53 87.93 125.13 88.03 125.43 C 86.09 125.95 84.25 126.76 82.56 127.84 C 81.38 128.17 80.20 128.49 79.01 128.78 L 78.99 128.21 C 79.90 127.49 80.77 126.74 81.63 125.97 C 76.67 122.12 70.83 119.74 65.30 116.86 C 53.79 111.03 42.10 105.54 30.89 99.15 C 28.70 98.06 26.17 98.15 23.80 97.77 C 24.45 97.47 25.75 96.86 26.40 96.56 C 26.64 96.53 27.12 96.48 27.36 96.45 C 30.74 97.91 34.27 96.28 37.62 95.59 Z" />
</g>
<g id="#f18b8eff">
<path fill="#f18b8e" opacity="1.00" d=" M 94.28 92.03 C 95.36 91.37 96.43 90.69 97.47 89.98 C 100.02 91.89 102.65 93.70 104.98 95.87 C 102.96 100.12 100.36 104.05 98.01 108.12 C 93.46 103.04 87.53 99.02 84.52 92.71 C 87.78 92.65 91.06 92.60 94.28 92.03 Z" />
</g>
<g id="#f3efecff">
<path fill="#f3efec" opacity="1.00" d=" M 225.17 92.20 C 229.24 91.20 233.33 90.24 237.43 89.38 C 237.96 93.92 237.97 98.48 238.00 103.03 C 237.93 106.87 239.97 110.25 241.51 113.64 C 241.10 114.14 240.28 115.14 239.87 115.65 C 237.32 116.60 234.72 117.44 232.28 118.62 C 228.67 114.28 226.75 108.61 226.99 102.97 C 227.30 99.24 225.16 95.91 225.17 92.20 Z" />
</g>
<g id="#d2cccbff">
<path fill="#d2cccb" opacity="1.00" d=" M 160.83 92.78 C 163.56 91.95 166.10 93.78 168.67 94.42 C 174.26 96.57 180.17 97.98 185.53 100.67 C 182.56 101.16 179.80 99.76 177.06 98.84 C 172.09 97.12 167.23 95.08 162.10 93.87 C 162.14 126.86 161.97 159.86 162.19 192.85 C 168.83 195.19 175.46 197.53 182.12 199.80 C 183.32 200.20 184.66 200.67 185.03 202.04 C 176.96 199.52 169.04 196.54 161.05 193.78 C 160.31 174.93 160.97 156.03 160.68 137.16 C 160.85 122.37 160.51 107.57 160.83 92.78 Z" />
</g>
<g id="#d4e4ccff">
<path fill="#d4e4cc" opacity="1.00" d=" M 21.77 98.89 C 26.27 98.54 29.61 101.81 33.40 103.59 C 44.01 108.91 54.59 114.25 65.03 119.88 C 69.46 122.29 74.29 124.11 78.15 127.44 C 77.80 133.58 77.94 139.74 77.97 145.88 C 78.43 145.83 79.36 145.72 79.83 145.67 C 80.34 145.80 81.35 146.06 81.86 146.19 C 80.85 146.98 79.01 147.30 79.19 148.94 C 78.92 152.96 78.22 156.93 77.92 160.95 C 78.12 191.29 77.93 221.64 78.05 251.98 C 77.99 255.31 78.64 258.98 76.50 261.83 C 76.87 261.95 77.61 262.18 77.97 262.29 C 61.01 266.85 43.76 270.32 26.73 274.61 C 25.06 275.08 23.34 275.21 21.64 275.50 C 21.50 218.03 21.67 160.56 21.57 103.09 C 21.63 101.69 21.70 100.29 21.77 98.89 Z" />
</g>
<g id="#284810ff">
<path fill="#284810" opacity="1.00" d=" M 232.28 118.62 C 234.72 117.44 237.32 116.60 239.87 115.65 C 244.19 115.22 248.66 115.20 252.78 116.80 C 261.19 120.29 268.05 128.62 267.75 138.02 C 268.26 144.17 265.27 149.72 262.67 155.06 C 258.89 162.43 254.62 169.52 250.67 176.80 C 249.05 180.19 246.76 183.34 246.00 187.07 L 246.60 187.50 C 247.26 187.95 247.92 188.40 248.57 188.86 C 253.21 191.31 252.85 197.17 251.13 201.34 C 249.41 202.22 247.81 203.32 246.02 204.05 C 244.22 203.96 242.42 203.87 240.63 203.85 C 241.06 203.82 241.93 203.75 242.37 203.72 C 245.30 203.70 248.34 202.91 250.46 200.78 C 251.99 198.62 251.76 195.87 251.97 193.38 L 251.14 192.85 C 250.04 190.51 247.82 186.96 244.83 188.84 C 244.72 190.20 244.65 191.56 244.61 192.93 C 244.15 191.32 243.71 189.71 243.26 188.11 C 241.43 188.85 239.57 189.60 238.02 190.84 L 237.64 189.73 C 239.32 188.62 241.15 187.74 243.07 187.13 C 240.59 177.20 234.39 168.80 229.42 160.02 C 228.08 157.31 226.83 154.53 225.01 152.10 C 222.50 148.21 220.49 143.67 220.59 138.95 C 220.24 130.69 225.26 122.74 232.28 118.62 M 235.99 117.48 L 236.08 118.19 C 231.61 118.41 228.58 121.90 225.73 124.91 C 221.34 130.21 220.12 137.48 221.59 144.08 C 223.63 150.44 227.99 155.61 230.69 161.69 C 232.99 165.66 235.84 169.36 237.60 173.63 C 240.07 177.88 242.55 182.36 243.38 187.26 L 245.70 187.29 C 246.38 182.78 249.12 178.84 251.18 174.82 C 256.35 164.65 262.85 155.04 266.29 144.08 C 266.99 140.43 266.85 136.60 266.31 132.93 C 264.32 125.71 258.42 119.58 251.30 117.28 L 250.34 117.74 L 250.61 116.54 C 245.72 116.41 240.71 115.83 235.99 117.48 Z" />
<path fill="#284810" opacity="1.00" d=" M 242.12 128.09 C 243.47 128.07 244.82 128.05 246.17 128.02 C 249.47 136.00 252.18 144.20 255.19 152.29 C 253.87 151.94 251.51 152.85 251.04 151.01 C 250.26 149.23 249.68 147.38 249.04 145.55 C 248.59 145.55 247.68 145.55 247.22 145.56 C 244.51 145.61 241.81 145.50 239.10 145.57 C 237.90 148.42 237.75 153.05 233.47 152.33 C 233.62 151.72 233.90 150.48 234.04 149.87 C 236.02 145.12 237.61 140.22 239.35 135.38 C 240.27 132.95 241.12 130.49 242.12 128.09 M 243.90 132.13 C 242.69 135.62 241.43 139.09 240.18 142.57 C 242.76 142.56 245.34 142.55 247.92 142.53 C 246.57 139.07 245.84 135.31 243.90 132.13 Z" />
</g>
<g id="#9cd086ff">
<path fill="#9cd086" opacity="1.00" d=" M 235.99 117.48 C 240.71 115.83 245.72 116.41 250.61 116.54 L 250.34 117.74 C 249.41 118.39 248.47 119.03 247.54 119.68 C 247.00 122.01 246.90 124.41 246.70 126.79 C 245.26 127.04 243.82 127.26 242.39 127.52 L 242.12 128.09 C 241.12 130.49 240.27 132.95 239.35 135.38 C 237.47 129.84 236.93 123.95 236.08 118.19 L 235.99 117.48 Z" />
</g>
<g id="#8bc672ff">
<path fill="#8bc672" opacity="1.00" d=" M 250.34 117.74 L 251.30 117.28 C 258.42 119.58 264.32 125.71 266.31 132.93 C 266.85 136.60 266.99 140.43 266.29 144.08 C 262.85 155.04 256.35 164.65 251.18 174.82 C 249.12 178.84 246.38 182.78 245.70 187.29 L 243.38 187.26 C 242.55 182.36 240.07 177.88 237.60 173.63 C 241.85 166.13 242.64 157.27 244.24 148.93 C 244.40 147.26 246.12 146.55 247.22 145.56 C 247.68 145.55 248.59 145.55 249.04 145.55 C 249.68 147.38 250.26 149.23 251.04 151.01 C 251.51 152.85 253.87 151.94 255.19 152.29 C 252.18 144.20 249.47 136.00 246.17 128.02 C 244.82 128.05 243.47 128.07 242.12 128.09 L 242.39 127.52 C 243.82 127.26 245.26 127.04 246.70 126.79 C 246.90 124.41 247.00 122.01 247.54 119.68 C 248.47 119.03 249.41 118.39 250.34 117.74 Z" />
</g>
<g id="#acd997ff">
<path fill="#acd997" opacity="1.00" d=" M 225.73 124.91 C 228.58 121.90 231.61 118.41 236.08 118.19 C 236.93 123.95 237.47 129.84 239.35 135.38 C 237.61 140.22 236.02 145.12 234.04 149.87 C 233.86 150.84 233.46 151.70 232.84 152.47 C 233.52 152.68 234.86 153.12 235.54 153.33 C 234.27 156.30 233.06 159.40 230.69 161.69 C 227.99 155.61 223.63 150.44 221.59 144.08 C 220.12 137.48 221.34 130.21 225.73 124.91 Z" />
</g>
<g id="#b6b4b4ff">
<path fill="#b6b4b4" opacity="1.00" d=" M 91.78 124.28 C 98.79 122.56 105.92 121.34 112.96 119.77 L 113.19 120.97 C 109.15 121.77 105.13 122.62 101.12 123.54 C 97.87 124.35 94.61 125.07 91.29 125.49 L 91.78 124.28 Z" />
</g>
<g id="#61a4e8ff">
<path fill="#61a4e8" opacity="1.00" d=" M 101.12 123.54 C 105.13 122.62 109.15 121.77 113.19 120.97 C 113.14 126.36 113.51 131.76 113.08 137.14 C 111.07 137.47 109.07 137.83 107.08 138.27 C 105.29 134.35 103.68 130.34 101.38 126.68 C 100.53 125.78 101.12 124.61 101.12 123.54 Z" />
</g>
<g id="#70aeebff">
<path fill="#70aeeb" opacity="1.00" d=" M 113.63 120.20 C 116.05 121.01 118.45 121.83 120.86 122.65 C 119.65 125.69 121.73 128.43 123.16 130.95 C 124.92 133.74 126.49 136.66 127.84 139.68 C 127.32 139.86 126.28 140.21 125.76 140.39 C 121.72 139.07 117.74 137.49 113.56 136.61 C 113.79 131.14 113.65 125.67 113.63 120.20 Z" />
</g>
<g id="#80b9eeff">
<path fill="#80b9ee" opacity="1.00" d=" M 120.86 122.65 C 129.51 125.57 138.11 128.60 146.78 131.44 C 151.39 133.40 156.01 135.36 160.68 137.16 C 160.97 156.03 160.31 174.93 161.05 193.78 C 169.04 196.54 176.96 199.52 185.03 202.04 C 185.11 206.90 185.40 211.79 184.61 216.62 L 183.69 216.25 C 181.95 215.27 180.26 214.16 178.32 213.63 C 172.53 211.89 166.98 209.36 161.04 208.13 C 159.80 207.85 158.59 207.51 157.38 207.15 L 157.33 206.80 C 157.20 204.65 156.06 202.79 155.27 200.85 C 152.35 193.49 149.26 186.20 147.04 178.59 C 146.37 168.77 147.32 158.89 146.66 149.08 C 146.80 147.28 144.82 147.13 143.60 146.55 C 137.66 144.49 131.64 142.63 125.76 140.39 C 126.28 140.21 127.32 139.86 127.84 139.68 C 126.49 136.66 124.92 133.74 123.16 130.95 C 121.73 128.43 119.65 125.69 120.86 122.65 Z" />
</g>
<g id="#5396e4ff">
<path fill="#5396e4" opacity="1.00" d=" M 91.29 125.49 C 94.61 125.07 97.87 124.35 101.12 123.54 C 101.12 124.61 100.53 125.78 101.38 126.68 C 103.68 130.34 105.29 134.35 107.08 138.27 C 103.10 139.30 99.09 140.24 95.07 141.09 C 96.27 138.88 97.99 136.64 97.66 133.95 C 97.75 129.99 94.54 127.13 91.29 125.49 Z" />
</g>
<g id="#d50a0bff">
<path fill="#d50a0b" opacity="1.00" d=" M 88.51 127.96 C 88.85 127.76 89.52 127.37 89.86 127.17 L 90.31 127.95 C 90.16 128.41 89.85 129.32 89.69 129.78 C 89.40 129.33 88.81 128.42 88.51 127.96 Z" />
</g>
<g id="#9f9590ff">
<path fill="#9f9590" opacity="1.00" d=" M 78.15 127.44 L 78.99 128.21 L 79.01 128.78 C 79.26 133.97 79.12 139.16 79.11 144.36 C 81.53 143.77 84.01 143.46 86.44 142.87 C 86.88 142.98 87.77 143.20 88.22 143.31 C 85.38 143.96 82.64 144.95 79.83 145.67 C 79.36 145.72 78.43 145.83 77.97 145.88 C 77.94 139.74 77.80 133.58 78.15 127.44 Z" />
</g>
<g id="#3d82deff">
<path fill="#3d82de" opacity="1.00" d=" M 79.01 128.78 C 80.20 128.49 81.38 128.17 82.56 127.84 C 80.82 130.63 79.63 134.06 80.85 137.31 C 81.65 140.01 84.17 141.52 86.44 142.87 C 84.01 143.46 81.53 143.77 79.11 144.36 C 79.12 139.16 79.26 133.97 79.01 128.78 Z" />
</g>
<g id="#9acf82ff">
<path fill="#9acf82" opacity="1.00" d=" M 243.90 132.13 C 245.84 135.31 246.57 139.07 247.92 142.53 C 245.34 142.55 242.76 142.56 240.18 142.57 C 241.43 139.09 242.69 135.62 243.90 132.13 Z" />
</g>
<g id="#c3c1c0ff">
<path fill="#c3c1c0" opacity="1.00" d=" M 186.10 134.25 C 198.07 137.15 210.03 141.44 219.71 149.29 C 221.35 150.45 222.61 153.10 225.01 152.10 C 226.83 154.53 228.08 157.31 229.42 160.02 C 234.39 168.80 240.59 177.20 243.07 187.13 C 241.15 187.74 239.32 188.62 237.64 189.73 C 237.24 189.96 236.45 190.41 236.05 190.63 C 230.94 191.70 225.91 193.07 220.83 194.26 C 209.08 196.79 197.48 200.03 185.68 202.34 L 186.13 201.32 C 202.98 196.91 220.20 193.87 236.81 188.63 C 232.33 186.86 228.14 184.48 224.01 182.02 C 211.48 175.48 199.08 168.68 186.26 162.70 C 185.45 158.83 186.22 154.90 186.11 151.00 C 185.97 145.42 186.00 139.83 186.10 134.25 Z" />
</g>
<g id="#cddbbeff">
<path fill="#cddbbe" opacity="1.00" d=" M 88.22 143.31 C 96.33 141.32 104.35 138.96 112.54 137.26 C 113.64 176.18 113.25 215.14 113.22 254.08 C 101.52 256.98 89.75 259.74 77.97 262.29 C 77.61 262.18 76.87 261.95 76.50 261.83 C 78.64 258.98 77.99 255.31 78.05 251.98 C 77.93 221.64 78.12 191.29 77.92 160.95 C 78.22 156.93 78.92 152.96 79.19 148.94 C 79.01 147.30 80.85 146.98 81.86 146.19 C 81.35 146.06 80.34 145.80 79.83 145.67 C 82.64 144.95 85.38 143.96 88.22 143.31 Z" />
</g>
<g id="#d5e6cfff">
<path fill="#d5e6cf" opacity="1.00" d=" M 114.19 137.42 C 114.62 137.61 115.47 137.98 115.90 138.17 C 113.79 145.30 115.78 152.73 116.00 159.98 C 115.65 163.86 118.75 166.59 120.15 169.91 C 123.75 177.99 127.86 185.86 130.75 194.24 C 134.97 203.44 138.72 212.84 142.99 222.01 C 143.89 224.51 143.80 227.35 145.42 229.58 C 145.64 241.01 145.58 252.45 145.31 263.88 C 134.69 261.02 124.58 256.42 113.82 254.00 C 113.52 219.32 113.87 184.64 113.58 149.96 C 113.75 145.78 113.12 141.52 114.19 137.42 Z" />
</g>
<g id="#e4efdfff">
<path fill="#e4efdf" opacity="1.00" d=" M 116.00 159.98 C 115.78 152.73 113.79 145.30 115.90 138.17 C 125.33 141.32 134.82 144.30 144.20 147.60 C 146.78 148.07 146.31 151.04 146.41 152.99 C 146.10 168.97 146.69 184.98 145.75 200.94 C 145.72 210.49 145.67 220.04 145.42 229.58 C 143.80 227.35 143.89 224.51 142.99 222.01 C 138.72 212.84 134.97 203.44 130.75 194.24 C 127.86 185.86 123.75 177.99 120.15 169.91 C 118.75 166.59 115.65 163.86 116.00 159.98 Z" />
</g>
<g id="#9ed285ff">
<path fill="#9ed285" opacity="1.00" d=" M 239.10 145.57 C 241.81 145.50 244.51 145.61 247.22 145.56 C 246.12 146.55 244.40 147.26 244.24 148.93 C 242.64 157.27 241.85 166.13 237.60 173.63 C 235.84 169.36 232.99 165.66 230.69 161.69 C 233.06 159.40 234.27 156.30 235.54 153.33 C 234.86 153.12 233.52 152.68 232.84 152.47 C 233.46 151.70 233.86 150.84 234.04 149.87 C 233.90 150.48 233.62 151.72 233.47 152.33 C 237.75 153.05 237.90 148.42 239.10 145.57 Z" />
</g>
<g id="#ece3deff">
<path fill="#ece3de" opacity="1.00" d=" M 250.67 176.80 C 254.62 169.52 258.89 162.43 262.67 155.06 C 264.67 158.45 263.85 162.52 264.52 166.25 C 265.47 171.58 264.48 177.07 265.73 182.37 C 259.32 183.93 252.87 185.43 246.60 187.50 L 246.00 187.07 C 246.76 183.34 249.05 180.19 250.67 176.80 Z" />
</g>
<g id="#73b0ecff">
<path fill="#73b0ec" opacity="1.00" d=" M 147.04 178.59 C 149.26 186.20 152.35 193.49 155.27 200.85 C 156.06 202.79 157.20 204.65 157.33 206.80 C 153.72 205.96 150.27 204.61 146.73 203.55 C 146.97 195.23 146.63 186.91 147.04 178.59 Z" />
</g>
<g id="#a5d58dff">
<path fill="#a5d58d" opacity="1.00" d=" M 238.02 190.84 C 239.57 189.60 241.43 188.85 243.26 188.11 C 243.71 189.71 244.15 191.32 244.61 192.93 C 244.65 191.56 244.72 190.20 244.83 188.84 C 247.82 186.96 250.04 190.51 251.14 192.85 C 246.81 194.80 242.66 197.32 239.57 201.00 C 236.23 198.55 236.85 194.27 238.02 190.84 Z" />
</g>
<g id="#5ba77eff">
<path fill="#5ba77e" opacity="1.00" d=" M 236.05 190.63 C 236.45 190.41 237.24 189.96 237.64 189.73 L 238.02 190.84 C 236.85 194.27 236.23 198.55 239.57 201.00 C 240.50 201.91 241.43 202.82 242.37 203.72 C 241.93 203.75 241.06 203.82 240.63 203.85 L 239.83 203.90 C 238.14 202.30 236.09 200.80 235.48 198.43 C 234.51 195.86 235.51 193.17 236.05 190.63 Z" />
</g>
<g id="#79b4edff">
<path fill="#79b4ed" opacity="1.00" d=" M 220.83 194.26 C 225.91 193.07 230.94 191.70 236.05 190.63 C 235.51 193.17 234.51 195.86 235.48 198.43 C 236.09 200.80 238.14 202.30 239.83 203.90 C 238.76 204.17 237.71 204.46 236.66 204.79 C 234.48 205.42 232.28 206.04 230.02 206.29 C 228.91 206.13 227.81 205.96 226.71 205.79 C 226.68 202.23 225.55 198.85 224.64 195.46 C 223.37 195.04 222.11 194.62 220.83 194.26 Z" />
</g>
<g id="#83bbefff">
<path fill="#83bbef" opacity="1.00" d=" M 185.68 202.34 C 197.48 200.03 209.08 196.79 220.83 194.26 C 222.11 194.62 223.37 195.04 224.64 195.46 C 225.55 198.85 226.68 202.23 226.71 205.79 C 227.81 205.96 228.91 206.13 230.02 206.29 C 227.19 207.30 223.70 207.11 221.31 208.90 C 221.34 227.94 221.25 247.00 221.35 266.05 C 221.12 267.35 222.08 269.30 220.55 270.03 C 220.80 249.74 220.61 229.45 220.66 209.16 C 214.23 209.61 208.25 212.12 201.94 213.19 C 196.49 214.11 191.26 215.98 185.79 216.82 C 185.55 212.00 185.61 207.17 185.68 202.34 Z" />
</g>
<g id="#96cd7aff">
<path fill="#96cd7a" opacity="1.00" d=" M 239.57 201.00 C 242.66 197.32 246.81 194.80 251.14 192.85 L 251.97 193.38 C 251.76 195.87 251.99 198.62 250.46 200.78 C 248.34 202.91 245.30 203.70 242.37 203.72 C 241.43 202.82 240.50 201.91 239.57 201.00 Z" />
</g>
<g id="#b4aba7ff">
<path fill="#b4aba7" opacity="1.00" d=" M 267.16 197.25 C 270.92 196.13 274.71 195.14 278.58 194.50 L 278.32 195.97 C 275.01 196.80 271.65 197.44 268.36 198.34 C 268.37 218.50 268.43 238.66 268.14 258.82 L 267.07 259.34 C 267.09 238.65 266.78 217.94 267.16 197.25 Z" />
</g>
<g id="#e5dcd5ff">
<path fill="#e5dcd5" opacity="1.00" d=" M 268.36 198.34 C 271.65 197.44 275.01 196.80 278.32 195.97 C 278.42 215.97 278.53 236.00 278.27 255.99 C 275.47 257.86 271.47 257.88 268.14 258.82 C 268.43 238.66 268.37 218.50 268.36 198.34 Z" />
</g>
<g id="#f4f0eeff">
<path fill="#f4f0ee" opacity="1.00" d=" M 251.13 201.34 C 253.28 200.53 253.42 203.56 253.34 204.99 C 253.15 224.33 253.57 243.69 253.15 263.03 C 248.00 263.53 243.02 264.97 237.97 266.04 C 237.88 245.72 237.94 225.39 238.09 205.07 C 240.75 204.96 243.42 204.69 246.02 204.05 C 247.81 203.32 249.41 202.22 251.13 201.34 Z" />
</g>
<g id="#cbc4bfff">
<path fill="#cbc4bf" opacity="1.00" d=" M 236.66 204.79 C 237.71 204.46 238.76 204.17 239.83 203.90 L 240.63 203.85 C 242.42 203.87 244.22 203.96 246.02 204.05 C 243.42 204.69 240.75 204.96 238.09 205.07 C 237.94 225.39 237.88 245.72 237.97 266.04 L 236.77 266.11 C 236.54 245.67 236.73 225.23 236.66 204.79 Z" />
</g>
<g id="#c5bfbeff">
<path fill="#c5bfbe" opacity="1.00" d=" M 161.04 208.13 C 166.98 209.36 172.53 211.89 178.32 213.63 C 180.26 214.16 181.95 215.27 183.69 216.25 C 176.20 214.85 169.36 211.25 161.96 209.56 C 162.13 229.73 162.27 249.90 162.25 270.07 C 159.97 270.17 160.91 267.39 160.63 266.05 C 160.92 246.75 160.36 227.42 161.04 208.13 Z" />
</g>
<g id="#f8f7f6ff">
<path fill="#f8f7f6" opacity="1.00" d=" M 201.94 213.19 C 208.25 212.12 214.23 209.61 220.66 209.16 C 220.61 229.45 220.80 249.74 220.55 270.03 C 213.19 272.07 205.80 274.01 198.30 275.45 C 194.22 276.21 190.33 278.03 186.14 278.04 C 185.73 257.64 186.37 237.21 185.79 216.82 C 191.26 215.98 196.49 214.11 201.94 213.19 Z" />
</g>
<g id="#2525248e">
<path fill="#252524" opacity="0.56" d=" M 69.75 275.88 C 83.47 272.32 97.34 269.37 111.08 265.91 C 113.02 265.33 115.02 265.75 116.99 265.85 C 117.38 267.79 119.71 267.66 121.24 267.83 C 125.79 269.03 130.17 270.77 134.57 272.40 C 127.07 272.57 120.67 267.26 113.20 267.21 C 104.78 268.28 96.63 270.88 88.25 272.24 C 82.05 273.29 76.11 275.80 69.75 275.88 Z" />
</g>
<g id="#9b9c9ae2">
<path fill="#9b9c9a" opacity="0.89" d=" M 116.99 265.85 L 117.67 265.78 C 119.06 265.90 120.82 266.25 121.24 267.83 C 119.71 267.66 117.38 267.79 116.99 265.85 Z" />
</g>
<g id="#00000023">
<path fill="#000000" opacity="0.14" d=" M 92.65 273.58 C 98.16 272.25 103.46 275.25 108.97 275.07 C 114.43 274.98 119.95 275.47 125.35 274.46 C 127.30 274.07 129.33 273.99 131.26 274.56 C 135.95 275.82 140.69 276.97 145.24 278.68 C 140.13 281.43 134.29 282.08 128.60 282.43 C 118.78 283.59 108.85 283.44 99.05 282.27 C 91.27 282.14 83.94 279.32 76.79 276.54 C 82.01 275.21 87.42 274.90 92.65 273.58 Z" />
</g>
<g id="#0000000c">
<path fill="#000000" opacity="0.05" d=" M 56.09 281.25 C 62.91 279.32 70.03 278.72 76.79 276.54 C 83.94 279.32 91.27 282.14 99.05 282.27 C 108.85 283.44 118.78 283.59 128.60 282.43 C 134.29 282.08 140.13 281.43 145.24 278.68 C 151.71 281.22 158.53 282.60 165.07 284.91 C 172.44 287.30 179.80 289.71 187.21 291.97 L 187.96 292.86 C 186.51 293.07 185.02 293.06 183.64 292.53 C 178.83 290.88 174.03 289.14 169.04 288.06 C 163.22 291.76 156.78 294.76 149.90 295.71 C 144.62 296.51 139.47 298.46 134.05 297.94 C 128.97 297.37 124.09 299.40 119.02 298.98 C 113.29 298.58 107.43 299.70 101.80 298.23 C 96.23 297.38 90.45 298.43 84.98 296.83 C 81.65 296.06 78.19 296.01 74.92 295.00 C 67.59 292.27 59.16 290.29 54.45 283.46 C 50.17 283.05 45.96 286.28 41.63 284.62 C 46.36 283.14 51.31 282.55 56.09 281.25 Z" />
</g>
</svg>
