<?xml version="1.0" encoding="utf-8"?>
<!-- Generator: Adobe Illustrator 16.0.2, SVG Export Plug-In . SVG Version: 6.00 Build 0)  -->
<!DOCTYPE svg PUBLIC "-//W3C//DTD SVG 1.1//EN" "http://www.w3.org/Graphics/SVG/1.1/DTD/svg11.dtd">
<svg version="1.1" id="Layer_1" xmlns="http://www.w3.org/2000/svg" xmlns:xlink="http://www.w3.org/1999/xlink" x="0px" y="0px"
	 width="120px" height="120px" viewBox="0 0 120 120" enable-background="new 0 0 120 120" xml:space="preserve">
<g id="black_white">
	<path fill="#FFFFFF" d="M111.968,95.803c0,8.313-9.696,8.313-9.696,0c0-0.594,0-9.73,0-9.73h-0.424v-23.41
		c0-0.655-0.531-1.188-1.188-1.188c-0.655,0-2.188,0.532-2.188,1.188v23.41H74.771l31.838-37.151h0.479
		c3.353,0,6.071,2.641,6.071,5.894C113.161,54.814,112.041,95.729,111.968,95.803L111.968,95.803z M90.27,44.521
		c-6.723,0-12.174-5.291-12.174-11.819c0-0.283,0.035-0.607,0.078-0.943h-6.581l5.828-6.035h25.026v6.035
		C102.447,39.209,96.995,44.521,90.27,44.521L90.27,44.521z M71.593,13.937h30.854v7.827H77.252L71.593,13.937L71.593,13.937z
		 M99.131,48.921L69.218,83.827V63.752L45.364,90.243c-2.369,2.301-6.217,2.301-8.586,0c-2.373-2.302-2.373-6.036,0-8.337
		l28.16-31.273c1.184-1.14,2.731-1.706,4.28-1.709v-0.003H99.131L99.131,48.921z M60.982,100.516c0,3.063-2.555,5.547-5.718,5.547
		H24.349c-3.157,0-5.719-2.483-5.719-5.547v-5.89h-6.071c-3.157,0-5.719-2.485-5.719-5.548V59.063c0-3.06,2.562-5.548,5.719-5.548
		h6.071v41.103h42.354v5.897H60.982z"/>
</g>
<g id="blue">
	<path fill-opacity="0.1" d="M31.33,106.609c-8.949,0-16.229-7.28-16.229-16.229V30.85c0-8.948,7.28-16.228,16.229-16.228h59.527
		c8.949,0,16.229,7.28,16.229,16.228v59.53c0,8.948-7.28,16.229-16.229,16.229H31.33"/>
	<path fill="#FFFFFF" d="M29.33,104.609c-8.949,0-16.229-7.28-16.229-16.229V28.85c0-8.948,7.28-16.228,16.229-16.228h59.527
		c8.949,0,16.229,7.28,16.229,16.228v59.53c0,8.948-7.28,16.229-16.229,16.229H29.33"/>
	
		<linearGradient id="SVGID_1_" gradientUnits="userSpaceOnUse" x1="296.6943" y1="-341.5093" x2="296.6942" y2="-255.5215" gradientTransform="matrix(1 0 0 -1 -237.5996 -239.9004)">
		<stop  offset="0.16" style="stop-color:#3E8CE8"/>
		<stop  offset="0.1933" style="stop-color:#3984E6"/>
		<stop  offset="0.3612" style="stop-color:#205EDD"/>
		<stop  offset="0.517" style="stop-color:#0E43D6"/>
		<stop  offset="0.6547" style="stop-color:#0433D2"/>
		<stop  offset="0.76" style="stop-color:#002DD1"/>
	</linearGradient>
	<path fill="url(#SVGID_1_)" d="M88.857,101.609H29.33c-7.306,0-13.23-5.922-13.23-13.229V28.85c0-7.306,5.924-13.229,13.23-13.229
		h59.527c7.308,0,13.23,5.922,13.23,13.229v59.53C102.089,95.688,96.165,101.609,88.857,101.609L88.857,101.609z"/>
	<g>
		
			<radialGradient id="SVGID_2_" cx="296.6934" cy="-298.5156" r="42.9941" gradientTransform="matrix(1 0 0 -1 -237.5996 -239.9004)" gradientUnits="userSpaceOnUse">
			<stop  offset="0" style="stop-color:#000000"/>
			<stop  offset="0.1503" style="stop-color:#202020;stop-opacity:0.8497"/>
			<stop  offset="0.4818" style="stop-color:#737373;stop-opacity:0.5182"/>
			<stop  offset="0.9675" style="stop-color:#F6F6F6;stop-opacity:0.0325"/>
			<stop  offset="1" style="stop-color:#FFFFFF;stop-opacity:0"/>
		</radialGradient>
		<path opacity="0.25" fill="url(#SVGID_2_)" enable-background="new    " d="M88.857,101.609H29.33
			c-7.306,0-13.23-5.922-13.23-13.229V28.85c0-7.306,5.924-13.229,13.23-13.229h59.527c7.308,0,13.23,5.922,13.23,13.229v59.53
			C102.089,95.688,96.165,101.609,88.857,101.609L88.857,101.609z"/>
	</g>
	<path fill-opacity="0.1" d="M61.113,92.3c-17.804,0-32.235-14.431-32.235-32.233c0-17.801,14.432-32.234,32.235-32.234
		c17.802,0,32.232,14.432,32.232,32.234C93.346,77.868,78.915,92.3,61.113,92.3L61.113,92.3z M61.111,37.505
		c-12.463,0-22.564,10.102-22.564,22.563c0,12.463,10.101,22.563,22.564,22.563c12.461,0,22.563-10.102,22.563-22.563
		C83.675,47.607,73.572,37.505,61.111,37.505L61.111,37.505z M43.789,54.948H78.43v10.266H43.789V54.948L43.789,54.948z"/>
	<path fill="#FFFFFF" d="M59.113,90.3c-17.804,0-32.235-14.431-32.235-32.233c0-17.802,14.432-32.235,32.235-32.235
		c17.802,0,32.233,14.432,32.233,32.234C91.346,75.868,76.915,90.3,59.113,90.3L59.113,90.3z M59.111,35.505
		c-12.463,0-22.564,10.102-22.564,22.563c0,12.463,10.101,22.563,22.564,22.563c12.461,0,22.563-10.102,22.563-22.563
		C81.675,45.607,71.572,35.505,59.111,35.505L59.111,35.505z M41.789,52.948H76.43v10.266H41.789V52.948L41.789,52.948z"/>
	
		<linearGradient id="SVGID_3_" gradientUnits="userSpaceOnUse" x1="297.291" y1="-282.2925" x2="297.291" y2="-257.6172" gradientTransform="matrix(1 0 0 -1 -237.5996 -239.9004)">
		<stop  offset="0" style="stop-color:#FFFFFF;stop-opacity:0"/>
		<stop  offset="1" style="stop-color:#FFFFFF;stop-opacity:0.8"/>
	</linearGradient>
	<path fill="url(#SVGID_3_)" d="M36.279,34.575c-10.953-3.797-15.283-8.096-16.986-10.74c1.672-3.347,4.899-5.653,8.636-6.118
		c0.237,0,61.958,0,61.958,0l0.297,0.01c0,0,0.086,0.005,0.168,0.008c5.557,0.737,9.737,5.503,9.737,11.116c0,0,0,10.497,0,13.541
		C72.244,42.233,50.784,39.604,36.279,34.575"/>
</g>
<g id="green">
	<path fill-opacity="0.1" d="M31.33,106.609c-8.949,0-16.229-7.28-16.229-16.229V30.85c0-8.948,7.28-16.228,16.229-16.228h59.527
		c8.949,0,16.229,7.28,16.229,16.228v59.53c0,8.948-7.28,16.229-16.229,16.229H31.33"/>
	<path fill="#FFFFFF" d="M29.33,104.609c-8.949,0-16.229-7.28-16.229-16.229V28.85c0-8.948,7.28-16.228,16.229-16.228h59.527
		c8.949,0,16.229,7.28,16.229,16.228v59.53c0,8.948-7.28,16.229-16.229,16.229H29.33"/>
	
		<linearGradient id="SVGID_4_" gradientUnits="userSpaceOnUse" x1="296.6943" y1="-341.5093" x2="296.6942" y2="-255.5215" gradientTransform="matrix(1 0 0 -1 -237.5996 -239.9004)">
		<stop  offset="0.16" style="stop-color:#3E8CE8"/>
		<stop  offset="0.1933" style="stop-color:#3984E6"/>
		<stop  offset="0.3612" style="stop-color:#205EDD"/>
		<stop  offset="0.517" style="stop-color:#0E43D6"/>
		<stop  offset="0.6547" style="stop-color:#0433D2"/>
		<stop  offset="0.76" style="stop-color:#002DD1"/>
	</linearGradient>
	<path fill="url(#SVGID_4_)" d="M88.857,101.609H29.33c-7.306,0-13.23-5.922-13.23-13.229V28.85c0-7.306,5.924-13.229,13.23-13.229
		h59.527c7.308,0,13.23,5.922,13.23,13.229v59.53C102.089,95.688,96.165,101.609,88.857,101.609L88.857,101.609z"/>
	<g>
		
			<radialGradient id="SVGID_5_" cx="296.6934" cy="-298.5156" r="42.9941" gradientTransform="matrix(1 0 0 -1 -237.5996 -239.9004)" gradientUnits="userSpaceOnUse">
			<stop  offset="0" style="stop-color:#000000"/>
			<stop  offset="0.1503" style="stop-color:#202020;stop-opacity:0.8497"/>
			<stop  offset="0.4818" style="stop-color:#737373;stop-opacity:0.5182"/>
			<stop  offset="0.9675" style="stop-color:#F6F6F6;stop-opacity:0.0325"/>
			<stop  offset="1" style="stop-color:#FFFFFF;stop-opacity:0"/>
		</radialGradient>
		<path opacity="0.25" fill="url(#SVGID_5_)" enable-background="new    " d="M88.857,101.609H29.33
			c-7.306,0-13.23-5.922-13.23-13.229V28.85c0-7.306,5.924-13.229,13.23-13.229h59.527c7.308,0,13.23,5.922,13.23,13.229v59.53
			C102.089,95.688,96.165,101.609,88.857,101.609L88.857,101.609z"/>
	</g>
	<path fill-opacity="0.1" d="M61.113,92.3c-17.804,0-32.235-14.431-32.235-32.233c0-17.801,14.432-32.234,32.235-32.234
		c17.802,0,32.232,14.432,32.232,32.234C93.346,77.868,78.915,92.3,61.113,92.3L61.113,92.3z M61.111,37.505
		c-12.463,0-22.564,10.102-22.564,22.563c0,12.463,10.101,22.563,22.564,22.563c12.461,0,22.563-10.102,22.563-22.563
		C83.675,47.607,73.572,37.505,61.111,37.505L61.111,37.505z M43.789,54.948H78.43v10.266H43.789V54.948L43.789,54.948z"/>
	<path fill="#FFFFFF" d="M59.113,90.3c-17.804,0-32.235-14.431-32.235-32.233c0-17.802,14.432-32.235,32.235-32.235
		c17.802,0,32.233,14.432,32.233,32.234C91.346,75.868,76.915,90.3,59.113,90.3L59.113,90.3z M59.111,35.505
		c-12.463,0-22.564,10.102-22.564,22.563c0,12.463,10.101,22.563,22.564,22.563c12.461,0,22.563-10.102,22.563-22.563
		C81.675,45.607,71.572,35.505,59.111,35.505L59.111,35.505z M41.789,52.948H76.43v10.266H41.789V52.948L41.789,52.948z"/>
	
		<linearGradient id="SVGID_6_" gradientUnits="userSpaceOnUse" x1="297.291" y1="-282.2925" x2="297.291" y2="-257.6172" gradientTransform="matrix(1 0 0 -1 -237.5996 -239.9004)">
		<stop  offset="0" style="stop-color:#FFFFFF;stop-opacity:0"/>
		<stop  offset="1" style="stop-color:#FFFFFF;stop-opacity:0.8"/>
	</linearGradient>
	<path fill="url(#SVGID_6_)" d="M36.279,34.575c-10.953-3.797-15.283-8.096-16.986-10.74c1.672-3.347,4.899-5.653,8.636-6.118
		c0.237,0,61.958,0,61.958,0l0.297,0.01c0,0,0.086,0.005,0.168,0.008c5.557,0.737,9.737,5.503,9.737,11.116c0,0,0,10.497,0,13.541
		C72.244,42.233,50.784,39.604,36.279,34.575"/>
</g>
<g id="kia">
	<path fill-opacity="0.1" d="M31.33,106.609c-8.949,0-16.229-7.28-16.229-16.229V30.85c0-8.948,7.28-16.228,16.229-16.228h59.527
		c8.949,0,16.229,7.28,16.229,16.228v59.53c0,8.948-7.28,16.229-16.229,16.229H31.33"/>
	<path fill="#FFFFFF" d="M29.33,104.609c-8.949,0-16.229-7.28-16.229-16.229V28.85c0-8.948,7.28-16.228,16.229-16.228h59.527
		c8.949,0,16.229,7.28,16.229,16.228v59.53c0,8.948-7.28,16.229-16.229,16.229H29.33"/>
	
		<linearGradient id="SVGID_7_" gradientUnits="userSpaceOnUse" x1="296.6943" y1="-341.5093" x2="296.6942" y2="-255.5215" gradientTransform="matrix(1 0 0 -1 -237.5996 -239.9004)">
		<stop  offset="0.16" style="stop-color:#3E8CE8"/>
		<stop  offset="0.1933" style="stop-color:#3984E6"/>
		<stop  offset="0.3612" style="stop-color:#205EDD"/>
		<stop  offset="0.517" style="stop-color:#0E43D6"/>
		<stop  offset="0.6547" style="stop-color:#0433D2"/>
		<stop  offset="0.76" style="stop-color:#002DD1"/>
	</linearGradient>
	<path fill="url(#SVGID_7_)" d="M88.857,101.609H29.33c-7.306,0-13.23-5.922-13.23-13.229V28.85c0-7.306,5.924-13.229,13.23-13.229
		h59.527c7.308,0,13.23,5.922,13.23,13.229v59.53C102.089,95.688,96.165,101.609,88.857,101.609L88.857,101.609z"/>
	<g>
		
			<radialGradient id="SVGID_8_" cx="296.6934" cy="-298.5156" r="42.9941" gradientTransform="matrix(1 0 0 -1 -237.5996 -239.9004)" gradientUnits="userSpaceOnUse">
			<stop  offset="0" style="stop-color:#000000"/>
			<stop  offset="0.1503" style="stop-color:#202020;stop-opacity:0.8497"/>
			<stop  offset="0.4818" style="stop-color:#737373;stop-opacity:0.5182"/>
			<stop  offset="0.9675" style="stop-color:#F6F6F6;stop-opacity:0.0325"/>
			<stop  offset="1" style="stop-color:#FFFFFF;stop-opacity:0"/>
		</radialGradient>
		<path opacity="0.25" fill="url(#SVGID_8_)" enable-background="new    " d="M88.857,101.609H29.33
			c-7.306,0-13.23-5.922-13.23-13.229V28.85c0-7.306,5.924-13.229,13.23-13.229h59.527c7.308,0,13.23,5.922,13.23,13.229v59.53
			C102.089,95.688,96.165,101.609,88.857,101.609L88.857,101.609z"/>
	</g>
	<path fill-opacity="0.1" d="M61.113,92.3c-17.804,0-32.235-14.431-32.235-32.233c0-17.801,14.432-32.234,32.235-32.234
		c17.802,0,32.232,14.432,32.232,32.234C93.346,77.868,78.915,92.3,61.113,92.3L61.113,92.3z M61.111,37.505
		c-12.463,0-22.564,10.102-22.564,22.563c0,12.463,10.101,22.563,22.564,22.563c12.461,0,22.563-10.102,22.563-22.563
		C83.675,47.607,73.572,37.505,61.111,37.505L61.111,37.505z M43.789,54.948H78.43v10.266H43.789V54.948L43.789,54.948z"/>
	<path fill="#FFFFFF" d="M59.113,90.3c-17.804,0-32.235-14.431-32.235-32.233c0-17.802,14.432-32.235,32.235-32.235
		c17.802,0,32.233,14.432,32.233,32.234C91.346,75.868,76.915,90.3,59.113,90.3L59.113,90.3z M59.111,35.505
		c-12.463,0-22.564,10.102-22.564,22.563c0,12.463,10.101,22.563,22.564,22.563c12.461,0,22.563-10.102,22.563-22.563
		C81.675,45.607,71.572,35.505,59.111,35.505L59.111,35.505z M41.789,52.948H76.43v10.266H41.789V52.948L41.789,52.948z"/>
	
		<linearGradient id="SVGID_9_" gradientUnits="userSpaceOnUse" x1="297.291" y1="-282.2925" x2="297.291" y2="-257.6172" gradientTransform="matrix(1 0 0 -1 -237.5996 -239.9004)">
		<stop  offset="0" style="stop-color:#FFFFFF;stop-opacity:0"/>
		<stop  offset="1" style="stop-color:#FFFFFF;stop-opacity:0.8"/>
	</linearGradient>
	<path fill="url(#SVGID_9_)" d="M36.279,34.575c-10.953-3.797-15.283-8.096-16.986-10.74c1.672-3.347,4.899-5.653,8.636-6.118
		c0.237,0,61.958,0,61.958,0l0.297,0.01c0,0,0.086,0.005,0.168,0.008c5.557,0.737,9.737,5.503,9.737,11.116c0,0,0,10.497,0,13.541
		C72.244,42.233,50.784,39.604,36.279,34.575"/>
</g>
<g id="orange">
	<path fill-opacity="0.1" d="M31.33,106.609c-8.949,0-16.229-7.28-16.229-16.229V30.85c0-8.948,7.28-16.228,16.229-16.228h59.527
		c8.949,0,16.229,7.28,16.229,16.228v59.53c0,8.948-7.28,16.229-16.229,16.229H31.33"/>
	<path fill="#FFFFFF" d="M29.33,104.609c-8.949,0-16.229-7.28-16.229-16.229V28.85c0-8.948,7.28-16.228,16.229-16.228h59.527
		c8.949,0,16.229,7.28,16.229,16.228v59.53c0,8.948-7.28,16.229-16.229,16.229H29.33"/>
	
		<linearGradient id="SVGID_10_" gradientUnits="userSpaceOnUse" x1="296.6943" y1="-341.5093" x2="296.6942" y2="-255.5215" gradientTransform="matrix(1 0 0 -1 -237.5996 -239.9004)">
		<stop  offset="0.16" style="stop-color:#3E8CE8"/>
		<stop  offset="0.1933" style="stop-color:#3984E6"/>
		<stop  offset="0.3612" style="stop-color:#205EDD"/>
		<stop  offset="0.517" style="stop-color:#0E43D6"/>
		<stop  offset="0.6547" style="stop-color:#0433D2"/>
		<stop  offset="0.76" style="stop-color:#002DD1"/>
	</linearGradient>
	<path fill="url(#SVGID_10_)" d="M88.857,101.609H29.33c-7.306,0-13.23-5.922-13.23-13.229V28.85c0-7.306,5.924-13.229,13.23-13.229
		h59.527c7.308,0,13.23,5.922,13.23,13.229v59.53C102.089,95.688,96.165,101.609,88.857,101.609L88.857,101.609z"/>
	<g>
		
			<radialGradient id="SVGID_11_" cx="296.6934" cy="-298.5156" r="42.9941" gradientTransform="matrix(1 0 0 -1 -237.5996 -239.9004)" gradientUnits="userSpaceOnUse">
			<stop  offset="0" style="stop-color:#000000"/>
			<stop  offset="0.1503" style="stop-color:#202020;stop-opacity:0.8497"/>
			<stop  offset="0.4818" style="stop-color:#737373;stop-opacity:0.5182"/>
			<stop  offset="0.9675" style="stop-color:#F6F6F6;stop-opacity:0.0325"/>
			<stop  offset="1" style="stop-color:#FFFFFF;stop-opacity:0"/>
		</radialGradient>
		<path opacity="0.25" fill="url(#SVGID_11_)" enable-background="new    " d="M88.857,101.609H29.33
			c-7.306,0-13.23-5.922-13.23-13.229V28.85c0-7.306,5.924-13.229,13.23-13.229h59.527c7.308,0,13.23,5.922,13.23,13.229v59.53
			C102.089,95.688,96.165,101.609,88.857,101.609L88.857,101.609z"/>
	</g>
	<path fill-opacity="0.1" d="M61.113,92.3c-17.804,0-32.235-14.431-32.235-32.233c0-17.801,14.432-32.234,32.235-32.234
		c17.802,0,32.232,14.432,32.232,32.234C93.346,77.868,78.915,92.3,61.113,92.3L61.113,92.3z M61.111,37.505
		c-12.463,0-22.564,10.102-22.564,22.563c0,12.463,10.101,22.563,22.564,22.563c12.461,0,22.563-10.102,22.563-22.563
		C83.675,47.607,73.572,37.505,61.111,37.505L61.111,37.505z M43.789,54.948H78.43v10.266H43.789V54.948L43.789,54.948z"/>
	<path fill="#FFFFFF" d="M59.113,90.3c-17.804,0-32.235-14.431-32.235-32.233c0-17.802,14.432-32.235,32.235-32.235
		c17.802,0,32.233,14.432,32.233,32.234C91.346,75.868,76.915,90.3,59.113,90.3L59.113,90.3z M59.111,35.505
		c-12.463,0-22.564,10.102-22.564,22.563c0,12.463,10.101,22.563,22.564,22.563c12.461,0,22.563-10.102,22.563-22.563
		C81.675,45.607,71.572,35.505,59.111,35.505L59.111,35.505z M41.789,52.948H76.43v10.266H41.789V52.948L41.789,52.948z"/>
	
		<linearGradient id="SVGID_12_" gradientUnits="userSpaceOnUse" x1="297.291" y1="-282.2925" x2="297.291" y2="-257.6172" gradientTransform="matrix(1 0 0 -1 -237.5996 -239.9004)">
		<stop  offset="0" style="stop-color:#FFFFFF;stop-opacity:0"/>
		<stop  offset="1" style="stop-color:#FFFFFF;stop-opacity:0.8"/>
	</linearGradient>
	<path fill="url(#SVGID_12_)" d="M36.279,34.575c-10.953-3.797-15.283-8.096-16.986-10.74c1.672-3.347,4.899-5.653,8.636-6.118
		c0.237,0,61.958,0,61.958,0l0.297,0.01c0,0,0.086,0.005,0.168,0.008c5.557,0.737,9.737,5.503,9.737,11.116c0,0,0,10.497,0,13.541
		C72.244,42.233,50.784,39.604,36.279,34.575"/>
</g>
<g id="red">
	<path fill-opacity="0.1" d="M31.33,106.609c-8.949,0-16.229-7.28-16.229-16.229V30.85c0-8.948,7.28-16.228,16.229-16.228h59.527
		c8.949,0,16.229,7.28,16.229,16.228v59.53c0,8.948-7.28,16.229-16.229,16.229H31.33"/>
	<path fill="#FFFFFF" d="M29.33,104.609c-8.949,0-16.229-7.28-16.229-16.229V28.85c0-8.948,7.28-16.228,16.229-16.228h59.527
		c8.949,0,16.229,7.28,16.229,16.228v59.53c0,8.948-7.28,16.229-16.229,16.229H29.33"/>
	
		<linearGradient id="SVGID_13_" gradientUnits="userSpaceOnUse" x1="296.6943" y1="-341.5093" x2="296.6942" y2="-255.5215" gradientTransform="matrix(1 0 0 -1 -237.5996 -239.9004)">
		<stop  offset="0.16" style="stop-color:#3E8CE8"/>
		<stop  offset="0.1933" style="stop-color:#3984E6"/>
		<stop  offset="0.3612" style="stop-color:#205EDD"/>
		<stop  offset="0.517" style="stop-color:#0E43D6"/>
		<stop  offset="0.6547" style="stop-color:#0433D2"/>
		<stop  offset="0.76" style="stop-color:#002DD1"/>
	</linearGradient>
	<path fill="url(#SVGID_13_)" d="M88.857,101.609H29.33c-7.306,0-13.23-5.922-13.23-13.229V28.85c0-7.306,5.924-13.229,13.23-13.229
		h59.527c7.308,0,13.23,5.922,13.23,13.229v59.53C102.089,95.688,96.165,101.609,88.857,101.609L88.857,101.609z"/>
	<g>
		
			<radialGradient id="SVGID_14_" cx="296.6934" cy="-298.5156" r="42.9941" gradientTransform="matrix(1 0 0 -1 -237.5996 -239.9004)" gradientUnits="userSpaceOnUse">
			<stop  offset="0" style="stop-color:#000000"/>
			<stop  offset="0.1503" style="stop-color:#202020;stop-opacity:0.8497"/>
			<stop  offset="0.4818" style="stop-color:#737373;stop-opacity:0.5182"/>
			<stop  offset="0.9675" style="stop-color:#F6F6F6;stop-opacity:0.0325"/>
			<stop  offset="1" style="stop-color:#FFFFFF;stop-opacity:0"/>
		</radialGradient>
		<path opacity="0.25" fill="url(#SVGID_14_)" enable-background="new    " d="M88.857,101.609H29.33
			c-7.306,0-13.23-5.922-13.23-13.229V28.85c0-7.306,5.924-13.229,13.23-13.229h59.527c7.308,0,13.23,5.922,13.23,13.229v59.53
			C102.089,95.688,96.165,101.609,88.857,101.609L88.857,101.609z"/>
	</g>
	<path fill-opacity="0.1" d="M61.113,92.3c-17.804,0-32.235-14.431-32.235-32.233c0-17.801,14.432-32.234,32.235-32.234
		c17.802,0,32.232,14.432,32.232,32.234C93.346,77.868,78.915,92.3,61.113,92.3L61.113,92.3z M61.111,37.505
		c-12.463,0-22.564,10.102-22.564,22.563c0,12.463,10.101,22.563,22.564,22.563c12.461,0,22.563-10.102,22.563-22.563
		C83.675,47.607,73.572,37.505,61.111,37.505L61.111,37.505z M43.789,54.948H78.43v10.266H43.789V54.948L43.789,54.948z"/>
	<path fill="#FFFFFF" d="M59.113,90.3c-17.804,0-32.235-14.431-32.235-32.233c0-17.802,14.432-32.235,32.235-32.235
		c17.802,0,32.233,14.432,32.233,32.234C91.346,75.868,76.915,90.3,59.113,90.3L59.113,90.3z M59.111,35.505
		c-12.463,0-22.564,10.102-22.564,22.563c0,12.463,10.101,22.563,22.564,22.563c12.461,0,22.563-10.102,22.563-22.563
		C81.675,45.607,71.572,35.505,59.111,35.505L59.111,35.505z M41.789,52.948H76.43v10.266H41.789V52.948L41.789,52.948z"/>
	
		<linearGradient id="SVGID_15_" gradientUnits="userSpaceOnUse" x1="297.291" y1="-282.2925" x2="297.291" y2="-257.6172" gradientTransform="matrix(1 0 0 -1 -237.5996 -239.9004)">
		<stop  offset="0" style="stop-color:#FFFFFF;stop-opacity:0"/>
		<stop  offset="1" style="stop-color:#FFFFFF;stop-opacity:0.8"/>
	</linearGradient>
	<path fill="url(#SVGID_15_)" d="M36.279,34.575c-10.953-3.797-15.283-8.096-16.986-10.74c1.672-3.347,4.899-5.653,8.636-6.118
		c0.237,0,61.958,0,61.958,0l0.297,0.01c0,0,0.086,0.005,0.168,0.008c5.557,0.737,9.737,5.503,9.737,11.116c0,0,0,10.497,0,13.541
		C72.244,42.233,50.784,39.604,36.279,34.575"/>
</g>
</svg>
