<?xml version="1.0" encoding="utf-8"?>
<!-- Generator: Adobe Illustrator 16.0.2, SVG Export Plug-In . SVG Version: 6.00 Build 0)  -->
<!DOCTYPE svg PUBLIC "-//W3C//DTD SVG 1.1//EN" "http://www.w3.org/Graphics/SVG/1.1/DTD/svg11.dtd">
<svg version="1.1" id="Layer_1" xmlns="http://www.w3.org/2000/svg" xmlns:xlink="http://www.w3.org/1999/xlink" x="0px" y="0px"
	 width="120px" height="120px" viewBox="0 0 120 120" enable-background="new 0 0 120 120" xml:space="preserve">
<g id="black_white">
	<path fill="#FFFFFF" d="M101.253,96.059L84.061,20.064H72.26v9.563h-3.768v-9.563h-11.8l-8.784,38.829l0,0l4.553-1.808
		c1.764-0.7,3.726,0.392,4.06,2.26l2.953,16.502c0.533,2.979-2.713,5.186-5.287,3.592l-0.928-0.573l-1.717-1.062
		c-2.419,6.182-6.377,11.717-11.541,16.043l-0.5,2.211h21.974v0.035h18.02v-0.035H101.253L101.253,96.059z M72.26,73.246v15.945
		h-3.768V73.246H72.26z M68.492,66.346V53.827h3.768v12.517h-3.768V66.346z M72.26,36.53v10.395h-3.768V36.53H72.26z M18.747,86.085
		c0.114,0.001,0.228,0.002,0.341,0.002c2.384,0,4.756-0.31,7.051-0.916c7.153-1.894,13.116-6.44,16.789-12.806l1.455-2.52
		l-5.212-3.226c-0.419-0.259-0.364-0.886,0.094-1.067l13.621-5.409c0.353-0.14,0.745,0.078,0.812,0.452l2.783,15.557
		c0.091,0.512-0.465,0.89-0.906,0.617l-5.511-3.41l-1.312,3.352C44.477,87.637,35.1,95.965,23.668,98.991
		c-1.59,0.421-3.236,0.735-4.921,0.944V86.085z"/>
</g>
<g id="blue">
	<path fill-opacity="0.1" d="M31.33,106.922c-8.949,0-16.229-7.279-16.229-16.229V31.164c0-8.948,7.28-16.228,16.229-16.228h59.527
		c8.949,0,16.229,7.28,16.229,16.228v59.529c0,8.947-7.28,16.229-16.229,16.229H31.33"/>
	<path fill="#70B7E0" d="M29.33,104.922c-8.949,0-16.229-7.279-16.229-16.229V29.164c0-8.948,7.28-16.228,16.229-16.228h59.527
		c8.949,0,16.229,7.28,16.229,16.228v59.529c0,8.947-7.28,16.229-16.229,16.229H29.33"/>
	<g>
		
			<linearGradient id="SVGID_1_" gradientUnits="userSpaceOnUse" x1="296.6943" y1="-341.8228" x2="296.6942" y2="-255.8354" gradientTransform="matrix(1 0 0 -1 -237.5996 -239.9004)">
			<stop  offset="0" style="stop-color:#48A2FB"/>
			<stop  offset="0.1758" style="stop-color:#059CF4"/>
			<stop  offset="0.4969" style="stop-color:#0398EF"/>
			<stop  offset="0.782" style="stop-color:#0293E7"/>
			<stop  offset="1" style="stop-color:#0189D8"/>
		</linearGradient>
		<path fill="url(#SVGID_1_)" d="M88.857,101.923H29.33c-7.306,0-13.23-5.923-13.23-13.229V29.164
			c0-7.306,5.924-13.229,13.23-13.229h59.527c7.308,0,13.23,5.922,13.23,13.229v59.529C102.089,96,96.165,101.923,88.857,101.923
			L88.857,101.923z"/>
	</g>
	<path fill="#70B7E0" d="M53.167,96.541c-0.116,0-0.228-0.01-0.338-0.027c-0.644,0-14.298,0-14.298,0
		c-0.598,0-1.165-0.269-1.544-0.729c-0.298-0.364-0.457-0.815-0.457-1.275c0-0.126,0.013-0.254,0.037-0.381l13.032-66.527
		c0.184-0.938,1.007-1.616,1.963-1.616h6.276c0.476,0,2.035,0,2.512,0h6.275c0.956,0,1.779,0.678,1.964,1.616L81.62,94.128
		c0.024,0.127,0.037,0.255,0.037,0.381c0,0.46-0.158,0.911-0.456,1.275c-0.381,0.461-0.947,0.729-1.544,0.729c0,0-13.509,0-14.153,0
		c-0.109,0.02-0.222,0.027-0.338,0.027H53.167"/>
	<g>
		<polygon fill="#FFFFFF" points="38.531,94.514 57.839,94.514 57.839,27.985 51.563,27.985 		"/>
		<polygon fill="#FFFFFF" points="66.626,27.985 60.35,27.985 60.35,94.514 79.658,94.514 		"/>
	</g>
	<g>
		<rect x="53.167" y="88.5" fill="#FFFFFF" width="12" height="6.041"/>
		<rect x="53.167" y="68.501" fill="#FFFFFF" width="12" height="6.04"/>
		<rect x="53.167" y="51.5" fill="#FFFFFF" width="12" height="6.041"/>
		<rect x="53.167" y="36.356" fill="#FFFFFF" width="12" height="6.042"/>
	</g>
	<path display="none" fill="#FFFFFF" d="M38.531,94.514l13.031-66.528h6.276v66.528H38.531L38.531,94.514z M60.35,94.514V27.985
		h6.276l13.032,66.527H60.35V94.514z M53.167,94.541V88.5h12v6.041H53.167L53.167,94.541z M53.167,74.541v-6.04h12v6.04H53.167
		L53.167,74.541z M53.167,57.542V51.5h12v6.041L53.167,57.542L53.167,57.542z M53.167,42.399v-6.042h12v6.042H53.167L53.167,42.399z
		"/>
	<path fill="#70B7E0" d="M21.066,96.461c-0.322-0.285-0.508-0.693-0.508-1.124V78.768c0-0.44,0.196-0.861,0.532-1.146
		c0.272-0.23,0.617-0.355,0.969-0.355c0.082,0,0.165,0.008,0.247,0.021c1.742,0.29,3.415,0.438,4.968,0.438
		c4.121,0,7.481-0.998,9.989-2.971c0.901-0.71,1.526-1.424,1.93-1.975c-1.345-1.01-4.012-3.01-4.012-3.01
		c-0.383-0.287-0.601-0.733-0.601-1.201c0-0.078,0.006-0.158,0.019-0.238c0.09-0.551,0.478-1.006,1.007-1.184l19.121-6.375
		c0.154-0.051,0.314-0.076,0.473-0.076c0.327,0,0.65,0.107,0.916,0.313c0.372,0.285,0.586,0.729,0.586,1.189
		c0,0.031-0.001,0.062-0.003,0.092l-1.275,20.396c-0.035,0.551-0.368,1.037-0.868,1.269c-0.202,0.093-0.416,0.139-0.629,0.139
		c-0.318,0-0.636-0.103-0.9-0.301c0,0-2.258-1.694-3.725-2.795c-0.911,1.474-2.567,3.78-5.192,6.203
		c-2.514,2.319-5.411,4.28-8.611,5.823c-3.979,1.922-8.438,3.203-13.252,3.804c-0.063,0.008-0.125,0.011-0.188,0.011
		C21.696,96.836,21.342,96.705,21.066,96.461 M39.804,71.797c0.001-0.002,0.001-0.005,0.001-0.005S39.806,71.795,39.804,71.797"/>
	<path fill="#FFFFFF" d="M23.56,80.496c1.283,0.152,2.527,0.229,3.714,0.229c11.832,0,15.149-7.425,15.285-7.74
		c0.082-0.189,0.122-0.391,0.122-0.59c0-0.461-0.213-0.91-0.601-1.199c0,0-1.419-1.063-2.809-2.106
		c3.485-1.161,11.486-3.83,14.293-4.767c-0.188,2.988-0.737,11.779-0.962,15.4c-1.414-1.061-2.875-2.156-2.875-2.156
		c-0.261-0.195-0.578-0.299-0.898-0.299c-0.123,0-0.248,0.017-0.37,0.047c-0.439,0.109-0.806,0.416-0.996,0.828
		c-0.015,0.032-1.579,3.371-5.501,6.955c-2.295,2.096-4.939,3.868-7.862,5.27c-3.193,1.531-6.733,2.617-10.54,3.24
		C23.56,91.154,23.56,82.945,23.56,80.496"/>
	
		<linearGradient id="SVGID_2_" gradientUnits="userSpaceOnUse" x1="297.291" y1="-282.6055" x2="297.291" y2="-257.9302" gradientTransform="matrix(1 0 0 -1 -237.5996 -239.9004)">
		<stop  offset="0" style="stop-color:#FFFFFF;stop-opacity:0"/>
		<stop  offset="1" style="stop-color:#FFFFFF;stop-opacity:0.8"/>
	</linearGradient>
	<path fill="url(#SVGID_2_)" d="M36.279,34.888c-10.953-3.797-15.283-8.096-16.986-10.74c1.672-3.347,4.899-5.653,8.636-6.118
		c0.237,0,61.958,0,61.958,0l0.297,0.01c0,0,0.086,0.005,0.168,0.008c5.557,0.737,9.737,5.503,9.737,11.116c0,0,0,10.497,0,13.541
		C72.244,42.546,50.784,39.917,36.279,34.888"/>
</g>
<g id="green">
	<path fill-opacity="0.1" d="M31.33,106.922c-8.949,0-16.229-7.279-16.229-16.229V31.164c0-8.948,7.28-16.228,16.229-16.228h59.527
		c8.949,0,16.229,7.28,16.229,16.228v59.529c0,8.947-7.28,16.229-16.229,16.229H31.33"/>
	<path fill="#03FC30" d="M29.33,104.922c-8.949,0-16.229-7.279-16.229-16.229V29.164c0-8.948,7.28-16.228,16.229-16.228h59.527
		c8.949,0,16.229,7.28,16.229,16.228v59.529c0,8.947-7.28,16.229-16.229,16.229H29.33"/>
	<g>
		
			<linearGradient id="SVGID_3_" gradientUnits="userSpaceOnUse" x1="296.6943" y1="-341.8228" x2="296.6942" y2="-255.8354" gradientTransform="matrix(1 0 0 -1 -237.5996 -239.9004)">
			<stop  offset="0" style="stop-color:#00DF34"/>
			<stop  offset="0.1758" style="stop-color:#00CD26"/>
			<stop  offset="0.4969" style="stop-color:#00B211"/>
			<stop  offset="0.782" style="stop-color:#00A204"/>
			<stop  offset="1" style="stop-color:#009C00"/>
		</linearGradient>
		<path fill="url(#SVGID_3_)" d="M88.857,101.923H29.33c-7.306,0-13.23-5.923-13.23-13.229V29.164
			c0-7.306,5.924-13.229,13.23-13.229h59.527c7.308,0,13.23,5.922,13.23,13.229v59.529C102.089,96,96.165,101.923,88.857,101.923
			L88.857,101.923z"/>
	</g>
	<path fill="#03FC30" d="M53.167,96.541c-0.116,0-0.228-0.01-0.338-0.027c-0.644,0-14.298,0-14.298,0
		c-0.598,0-1.165-0.269-1.544-0.729c-0.298-0.364-0.457-0.815-0.457-1.275c0-0.126,0.013-0.254,0.037-0.381l13.032-66.527
		c0.184-0.938,1.007-1.616,1.963-1.616h6.276c0.476,0,2.035,0,2.512,0h6.275c0.956,0,1.779,0.678,1.964,1.616L81.62,94.128
		c0.024,0.127,0.037,0.255,0.037,0.381c0,0.46-0.158,0.911-0.456,1.275c-0.381,0.461-0.947,0.729-1.544,0.729c0,0-13.509,0-14.153,0
		c-0.109,0.02-0.222,0.027-0.338,0.027H53.167"/>
	<g>
		<polygon fill="#FFFFFF" points="38.531,94.514 57.839,94.514 57.839,27.985 51.563,27.985 		"/>
		<polygon fill="#FFFFFF" points="66.626,27.985 60.35,27.985 60.35,94.514 79.658,94.514 		"/>
	</g>
	<g>
		<rect x="53.167" y="88.5" fill="#FFFFFF" width="12" height="6.041"/>
		<rect x="53.167" y="68.501" fill="#FFFFFF" width="12" height="6.04"/>
		<rect x="53.167" y="51.5" fill="#FFFFFF" width="12" height="6.041"/>
		<rect x="53.167" y="36.356" fill="#FFFFFF" width="12" height="6.042"/>
	</g>
	<path display="none" fill="#FFFFFF" d="M38.531,94.514l13.031-66.528h6.276v66.528H38.531L38.531,94.514z M60.35,94.514V27.985
		h6.276l13.032,66.527H60.35V94.514z M53.167,94.541V88.5h12v6.041H53.167L53.167,94.541z M53.167,74.541v-6.04h12v6.04H53.167
		L53.167,74.541z M53.167,57.542V51.5h12v6.041L53.167,57.542L53.167,57.542z M53.167,42.399v-6.042h12v6.042H53.167L53.167,42.399z
		"/>
	<path fill="#03FC30" d="M21.066,96.461c-0.322-0.285-0.508-0.693-0.508-1.124V78.768c0-0.44,0.196-0.861,0.532-1.146
		c0.272-0.23,0.617-0.355,0.969-0.355c0.082,0,0.165,0.008,0.247,0.021c1.742,0.29,3.415,0.438,4.968,0.438
		c4.121,0,7.481-0.998,9.989-2.971c0.901-0.71,1.526-1.424,1.93-1.975c-1.345-1.01-4.012-3.01-4.012-3.01
		c-0.383-0.287-0.601-0.733-0.601-1.201c0-0.078,0.006-0.158,0.019-0.238c0.09-0.551,0.478-1.006,1.007-1.184l19.121-6.375
		c0.154-0.051,0.314-0.076,0.473-0.076c0.327,0,0.65,0.107,0.916,0.313c0.372,0.285,0.586,0.729,0.586,1.189
		c0,0.031-0.001,0.062-0.003,0.092l-1.275,20.396c-0.035,0.551-0.368,1.037-0.868,1.269c-0.202,0.093-0.416,0.139-0.629,0.139
		c-0.318,0-0.636-0.103-0.9-0.301c0,0-2.258-1.694-3.725-2.795c-0.911,1.474-2.567,3.78-5.192,6.203
		c-2.514,2.319-5.411,4.28-8.611,5.823c-3.979,1.922-8.438,3.203-13.252,3.804c-0.063,0.008-0.125,0.011-0.188,0.011
		C21.696,96.836,21.342,96.705,21.066,96.461 M39.804,71.797c0.001-0.002,0.001-0.005,0.001-0.005S39.806,71.795,39.804,71.797"/>
	<path fill="#FFFFFF" d="M23.56,80.496c1.283,0.152,2.527,0.229,3.714,0.229c11.832,0,15.149-7.425,15.285-7.74
		c0.082-0.189,0.122-0.391,0.122-0.59c0-0.461-0.213-0.91-0.601-1.199c0,0-1.419-1.063-2.809-2.106
		c3.485-1.161,11.486-3.83,14.293-4.767c-0.188,2.988-0.737,11.779-0.962,15.4c-1.414-1.061-2.875-2.156-2.875-2.156
		c-0.261-0.195-0.578-0.299-0.898-0.299c-0.123,0-0.248,0.017-0.37,0.047c-0.439,0.109-0.806,0.416-0.996,0.828
		c-0.015,0.032-1.579,3.371-5.501,6.955c-2.295,2.096-4.939,3.868-7.862,5.27c-3.193,1.531-6.733,2.617-10.54,3.24
		C23.56,91.154,23.56,82.945,23.56,80.496"/>
	
		<linearGradient id="SVGID_4_" gradientUnits="userSpaceOnUse" x1="297.291" y1="-282.6055" x2="297.291" y2="-257.9302" gradientTransform="matrix(1 0 0 -1 -237.5996 -239.9004)">
		<stop  offset="0" style="stop-color:#FFFFFF;stop-opacity:0"/>
		<stop  offset="1" style="stop-color:#FFFFFF;stop-opacity:0.8"/>
	</linearGradient>
	<path fill="url(#SVGID_4_)" d="M36.279,34.888c-10.953-3.797-15.283-8.096-16.986-10.74c1.672-3.347,4.899-5.653,8.636-6.118
		c0.237,0,61.958,0,61.958,0l0.297,0.01c0,0,0.086,0.005,0.168,0.008c5.557,0.737,9.737,5.503,9.737,11.116c0,0,0,10.497,0,13.541
		C72.244,42.546,50.784,39.917,36.279,34.888"/>
</g>
<g id="kia">
	<path fill-opacity="0.1" d="M31.33,106.922c-8.949,0-16.229-7.279-16.229-16.229V31.164c0-8.948,7.28-16.228,16.229-16.228h59.527
		c8.949,0,16.229,7.28,16.229,16.228v59.529c0,8.947-7.28,16.229-16.229,16.229H31.33"/>
	<path fill="#eeb422" d="M29.33,104.922c-8.949,0-16.229-7.279-16.229-16.229V29.164c0-8.948,7.28-16.228,16.229-16.228h59.527
		c8.949,0,16.229,7.28,16.229,16.228v59.529c0,8.947-7.28,16.229-16.229,16.229H29.33"/>
	<g>
		
			<linearGradient id="SVGID_5_" gradientUnits="userSpaceOnUse" x1="296.6943" y1="-341.8228" x2="296.6942" y2="-255.8354" gradientTransform="matrix(1 0 0 -1 -237.5996 -239.9004)">
			<stop  offset="0" style="stop-color:#FFFFFF"/>
			<stop  offset="0.1758" style="stop-color:#E7E9EA"/>
			<stop  offset="0.4969" style="stop-color:#CDD2D5"/>
			<stop  offset="0.782" style="stop-color:#C5CACC"/>
			<stop  offset="1" style="stop-color:#BABDC0"/>
		</linearGradient>
		<path fill="url(#SVGID_5_)" d="M88.857,101.923H29.33c-7.306,0-13.23-5.923-13.23-13.229V29.164
			c0-7.306,5.924-13.229,13.23-13.229h59.527c7.308,0,13.23,5.922,13.23,13.229v59.529C102.089,96,96.165,101.923,88.857,101.923
			L88.857,101.923z"/>
	</g>
	<path fill="#eeb422" d="M53.167,96.541c-0.116,0-0.228-0.01-0.338-0.027c-0.644,0-14.298,0-14.298,0
		c-0.598,0-1.165-0.269-1.544-0.729c-0.298-0.364-0.457-0.815-0.457-1.275c0-0.126,0.013-0.254,0.037-0.381l13.032-66.527
		c0.184-0.938,1.007-1.616,1.963-1.616h6.276c0.476,0,2.035,0,2.512,0h6.275c0.956,0,1.779,0.678,1.964,1.616L81.62,94.128
		c0.024,0.127,0.037,0.255,0.037,0.381c0,0.46-0.158,0.911-0.456,1.275c-0.381,0.461-0.947,0.729-1.544,0.729c0,0-13.509,0-14.153,0
		c-0.109,0.02-0.222,0.027-0.338,0.027H53.167"/>
	<g>
		<polygon fill="#FFFFFF" points="38.531,94.514 57.839,94.514 57.839,27.985 51.563,27.985 		"/>
		<polygon fill="#FFFFFF" points="66.626,27.985 60.35,27.985 60.35,94.514 79.658,94.514 		"/>
	</g>
	<g>
		<rect x="53.167" y="88.5" fill="#FFFFFF" width="12" height="6.041"/>
		<rect x="53.167" y="68.501" fill="#FFFFFF" width="12" height="6.04"/>
		<rect x="53.167" y="51.5" fill="#FFFFFF" width="12" height="6.041"/>
		<rect x="53.167" y="36.356" fill="#FFFFFF" width="12" height="6.042"/>
	</g>
	<path display="none" fill="#FFFFFF" d="M38.531,94.514l13.031-66.528h6.276v66.528H38.531L38.531,94.514z M60.35,94.514V27.985
		h6.276l13.032,66.527H60.35V94.514z M53.167,94.541V88.5h12v6.041H53.167L53.167,94.541z M53.167,74.541v-6.04h12v6.04H53.167
		L53.167,74.541z M53.167,57.542V51.5h12v6.041L53.167,57.542L53.167,57.542z M53.167,42.399v-6.042h12v6.042H53.167L53.167,42.399z
		"/>
	<path fill="#eeb422" d="M21.066,96.461c-0.322-0.285-0.508-0.693-0.508-1.124V78.768c0-0.44,0.196-0.861,0.532-1.146
		c0.272-0.23,0.617-0.355,0.969-0.355c0.082,0,0.165,0.008,0.247,0.021c1.742,0.29,3.415,0.438,4.968,0.438
		c4.121,0,7.481-0.998,9.989-2.971c0.901-0.71,1.526-1.424,1.93-1.975c-1.345-1.01-4.012-3.01-4.012-3.01
		c-0.383-0.287-0.601-0.733-0.601-1.201c0-0.078,0.006-0.158,0.019-0.238c0.09-0.551,0.478-1.006,1.007-1.184l19.121-6.375
		c0.154-0.051,0.314-0.076,0.473-0.076c0.327,0,0.65,0.107,0.916,0.313c0.372,0.285,0.586,0.729,0.586,1.189
		c0,0.031-0.001,0.062-0.003,0.092l-1.275,20.396c-0.035,0.551-0.368,1.037-0.868,1.269c-0.202,0.093-0.416,0.139-0.629,0.139
		c-0.318,0-0.636-0.103-0.9-0.301c0,0-2.258-1.694-3.725-2.795c-0.911,1.474-2.567,3.78-5.192,6.203
		c-2.514,2.319-5.411,4.28-8.611,5.823c-3.979,1.922-8.438,3.203-13.252,3.804c-0.063,0.008-0.125,0.011-0.188,0.011
		C21.696,96.836,21.342,96.705,21.066,96.461 M39.804,71.797c0.001-0.002,0.001-0.005,0.001-0.005S39.806,71.795,39.804,71.797"/>
	<path fill="#FFFFFF" d="M23.56,80.496c1.283,0.152,2.527,0.229,3.714,0.229c11.832,0,15.149-7.425,15.285-7.74
		c0.082-0.189,0.122-0.391,0.122-0.59c0-0.461-0.213-0.91-0.601-1.199c0,0-1.419-1.063-2.809-2.106
		c3.485-1.161,11.486-3.83,14.293-4.767c-0.188,2.988-0.737,11.779-0.962,15.4c-1.414-1.061-2.875-2.156-2.875-2.156
		c-0.261-0.195-0.578-0.299-0.898-0.299c-0.123,0-0.248,0.017-0.37,0.047c-0.439,0.109-0.806,0.416-0.996,0.828
		c-0.015,0.032-1.579,3.371-5.501,6.955c-2.295,2.096-4.939,3.868-7.862,5.27c-3.193,1.531-6.733,2.617-10.54,3.24
		C23.56,91.154,23.56,82.945,23.56,80.496"/>
	
		<linearGradient id="SVGID_6_" gradientUnits="userSpaceOnUse" x1="297.291" y1="-282.6055" x2="297.291" y2="-257.9302" gradientTransform="matrix(1 0 0 -1 -237.5996 -239.9004)">
		<stop  offset="0" style="stop-color:#FFFFFF;stop-opacity:0"/>
		<stop  offset="1" style="stop-color:#FFFFFF;stop-opacity:0.8"/>
	</linearGradient>
	<path fill="url(#SVGID_6_)" d="M36.279,34.888c-10.953-3.797-15.283-8.096-16.986-10.74c1.672-3.347,4.899-5.653,8.636-6.118
		c0.237,0,61.958,0,61.958,0l0.297,0.01c0,0,0.086,0.005,0.168,0.008c5.557,0.737,9.737,5.503,9.737,11.116c0,0,0,10.497,0,13.541
		C72.244,42.546,50.784,39.917,36.279,34.888"/>
</g>
<g id="orange">
	<path fill-opacity="0.1" d="M31.33,106.922c-8.949,0-16.229-7.279-16.229-16.229V31.164c0-8.948,7.28-16.228,16.229-16.228h59.527
		c8.949,0,16.229,7.28,16.229,16.228v59.529c0,8.947-7.28,16.229-16.229,16.229H31.33"/>
	<path fill="#FFE035" d="M29.33,104.922c-8.949,0-16.229-7.279-16.229-16.229V29.164c0-8.948,7.28-16.228,16.229-16.228h59.527
		c8.949,0,16.229,7.28,16.229,16.228v59.529c0,8.947-7.28,16.229-16.229,16.229H29.33"/>
	<g>
		
			<linearGradient id="SVGID_7_" gradientUnits="userSpaceOnUse" x1="296.6943" y1="-341.8228" x2="296.6942" y2="-255.8354" gradientTransform="matrix(1 0 0 -1 -237.5996 -239.9004)">
			<stop  offset="0" style="stop-color:#FEDF34"/>
			<stop  offset="0.1758" style="stop-color:#FECD26"/>
			<stop  offset="0.4969" style="stop-color:#FFB211"/>
			<stop  offset="0.782" style="stop-color:#FFA204"/>
			<stop  offset="1" style="stop-color:#FF9C00"/>
		</linearGradient>
		<path fill="url(#SVGID_7_)" d="M88.857,101.923H29.33c-7.306,0-13.23-5.923-13.23-13.229V29.164
			c0-7.306,5.924-13.229,13.23-13.229h59.527c7.308,0,13.23,5.922,13.23,13.229v59.529C102.089,96,96.165,101.923,88.857,101.923
			L88.857,101.923z"/>
	</g>
	<path fill="#FFE035" d="M53.167,96.541c-0.116,0-0.228-0.01-0.338-0.027c-0.644,0-14.298,0-14.298,0
		c-0.598,0-1.165-0.269-1.544-0.729c-0.298-0.364-0.457-0.815-0.457-1.275c0-0.126,0.013-0.254,0.037-0.381l13.032-66.527
		c0.184-0.938,1.007-1.616,1.963-1.616h6.276c0.476,0,2.035,0,2.512,0h6.275c0.956,0,1.779,0.678,1.964,1.616L81.62,94.128
		c0.024,0.127,0.037,0.255,0.037,0.381c0,0.46-0.158,0.911-0.456,1.275c-0.381,0.461-0.947,0.729-1.544,0.729c0,0-13.509,0-14.153,0
		c-0.109,0.02-0.222,0.027-0.338,0.027H53.167"/>
	<g>
		<polygon fill="#FFFFFF" points="38.531,94.514 57.839,94.514 57.839,27.985 51.563,27.985 		"/>
		<polygon fill="#FFFFFF" points="66.626,27.985 60.35,27.985 60.35,94.514 79.658,94.514 		"/>
	</g>
	<g>
		<rect x="53.167" y="88.5" fill="#FFFFFF" width="12" height="6.041"/>
		<rect x="53.167" y="68.501" fill="#FFFFFF" width="12" height="6.04"/>
		<rect x="53.167" y="51.5" fill="#FFFFFF" width="12" height="6.041"/>
		<rect x="53.167" y="36.356" fill="#FFFFFF" width="12" height="6.042"/>
	</g>
	<path display="none" fill="#FFFFFF" d="M38.531,94.514l13.031-66.528h6.276v66.528H38.531L38.531,94.514z M60.35,94.514V27.985
		h6.276l13.032,66.527H60.35V94.514z M53.167,94.541V88.5h12v6.041H53.167L53.167,94.541z M53.167,74.541v-6.04h12v6.04H53.167
		L53.167,74.541z M53.167,57.542V51.5h12v6.041L53.167,57.542L53.167,57.542z M53.167,42.399v-6.042h12v6.042H53.167L53.167,42.399z
		"/>
	<path fill="#FFE035" d="M21.066,96.461c-0.322-0.285-0.508-0.693-0.508-1.124V78.768c0-0.44,0.196-0.861,0.532-1.146
		c0.272-0.23,0.617-0.355,0.969-0.355c0.082,0,0.165,0.008,0.247,0.021c1.742,0.29,3.415,0.438,4.968,0.438
		c4.121,0,7.481-0.998,9.989-2.971c0.901-0.71,1.526-1.424,1.93-1.975c-1.345-1.01-4.012-3.01-4.012-3.01
		c-0.383-0.287-0.601-0.733-0.601-1.201c0-0.078,0.006-0.158,0.019-0.238c0.09-0.551,0.478-1.006,1.007-1.184l19.121-6.375
		c0.154-0.051,0.314-0.076,0.473-0.076c0.327,0,0.65,0.107,0.916,0.313c0.372,0.285,0.586,0.729,0.586,1.189
		c0,0.031-0.001,0.062-0.003,0.092l-1.275,20.396c-0.035,0.551-0.368,1.037-0.868,1.269c-0.202,0.093-0.416,0.139-0.629,0.139
		c-0.318,0-0.636-0.103-0.9-0.301c0,0-2.258-1.694-3.725-2.795c-0.911,1.474-2.567,3.78-5.192,6.203
		c-2.514,2.319-5.411,4.28-8.611,5.823c-3.979,1.922-8.438,3.203-13.252,3.804c-0.063,0.008-0.125,0.011-0.188,0.011
		C21.696,96.836,21.342,96.705,21.066,96.461 M39.804,71.797c0.001-0.002,0.001-0.005,0.001-0.005S39.806,71.795,39.804,71.797"/>
	<path fill="#FFFFFF" d="M23.56,80.496c1.283,0.152,2.527,0.229,3.714,0.229c11.832,0,15.149-7.425,15.285-7.74
		c0.082-0.189,0.122-0.391,0.122-0.59c0-0.461-0.213-0.91-0.601-1.199c0,0-1.419-1.063-2.809-2.106
		c3.485-1.161,11.486-3.83,14.293-4.767c-0.188,2.988-0.737,11.779-0.962,15.4c-1.414-1.061-2.875-2.156-2.875-2.156
		c-0.261-0.195-0.578-0.299-0.898-0.299c-0.123,0-0.248,0.017-0.37,0.047c-0.439,0.109-0.806,0.416-0.996,0.828
		c-0.015,0.032-1.579,3.371-5.501,6.955c-2.295,2.096-4.939,3.868-7.862,5.27c-3.193,1.531-6.733,2.617-10.54,3.24
		C23.56,91.154,23.56,82.945,23.56,80.496"/>
	
		<linearGradient id="SVGID_8_" gradientUnits="userSpaceOnUse" x1="297.291" y1="-282.6055" x2="297.291" y2="-257.9302" gradientTransform="matrix(1 0 0 -1 -237.5996 -239.9004)">
		<stop  offset="0" style="stop-color:#FFFFFF;stop-opacity:0"/>
		<stop  offset="1" style="stop-color:#FFFFFF;stop-opacity:0.8"/>
	</linearGradient>
	<path fill="url(#SVGID_8_)" d="M36.279,34.888c-10.953-3.797-15.283-8.096-16.986-10.74c1.672-3.347,4.899-5.653,8.636-6.118
		c0.237,0,61.958,0,61.958,0l0.297,0.01c0,0,0.086,0.005,0.168,0.008c5.557,0.737,9.737,5.503,9.737,11.116c0,0,0,10.497,0,13.541
		C72.244,42.546,50.784,39.917,36.279,34.888"/>
</g>
<g id="red">
	<path fill-opacity="0.1" d="M31.33,106.922c-8.949,0-16.229-7.279-16.229-16.229V31.164c0-8.948,7.28-16.228,16.229-16.228h59.527
		c8.949,0,16.229,7.28,16.229,16.228v59.529c0,8.947-7.28,16.229-16.229,16.229H31.33"/>
	<path fill="#FC7E7E" d="M29.33,104.922c-8.949,0-16.229-7.279-16.229-16.229V29.164c0-8.948,7.28-16.228,16.229-16.228h59.527
		c8.949,0,16.229,7.28,16.229,16.228v59.529c0,8.947-7.28,16.229-16.229,16.229H29.33"/>
	<g>
		
			<linearGradient id="SVGID_9_" gradientUnits="userSpaceOnUse" x1="296.6943" y1="-341.8228" x2="296.6942" y2="-255.8354" gradientTransform="matrix(1 0 0 -1 -237.5996 -239.9004)">
			<stop  offset="0" style="stop-color:#FF0000"/>
			<stop  offset="0.1758" style="stop-color:#F60303"/>
			<stop  offset="0.4969" style="stop-color:#EC0404"/>
			<stop  offset="0.782" style="stop-color:#E30101"/>
			<stop  offset="1" style="stop-color:#D60202"/>
		</linearGradient>
		<path fill="url(#SVGID_9_)" d="M88.857,101.923H29.33c-7.306,0-13.23-5.923-13.23-13.229V29.164
			c0-7.306,5.924-13.229,13.23-13.229h59.527c7.308,0,13.23,5.922,13.23,13.229v59.529C102.089,96,96.165,101.923,88.857,101.923
			L88.857,101.923z"/>
	</g>
	<path fill="#FC7E7E" d="M53.167,96.541c-0.116,0-0.228-0.01-0.338-0.027c-0.644,0-14.298,0-14.298,0
		c-0.598,0-1.165-0.269-1.544-0.729c-0.298-0.364-0.457-0.815-0.457-1.275c0-0.126,0.013-0.254,0.037-0.381l13.032-66.527
		c0.184-0.938,1.007-1.616,1.963-1.616h6.276c0.476,0,2.035,0,2.512,0h6.275c0.956,0,1.779,0.678,1.964,1.616L81.62,94.128
		c0.024,0.127,0.037,0.255,0.037,0.381c0,0.46-0.158,0.911-0.456,1.275c-0.381,0.461-0.947,0.729-1.544,0.729c0,0-13.509,0-14.153,0
		c-0.109,0.02-0.222,0.027-0.338,0.027H53.167"/>
	<g>
		<polygon fill="#FFFFFF" points="38.531,94.514 57.839,94.514 57.839,27.985 51.563,27.985 		"/>
		<polygon fill="#FFFFFF" points="66.626,27.985 60.35,27.985 60.35,94.514 79.658,94.514 		"/>
	</g>
	<g>
		<rect x="53.167" y="88.5" fill="#FFFFFF" width="12" height="6.041"/>
		<rect x="53.167" y="68.501" fill="#FFFFFF" width="12" height="6.04"/>
		<rect x="53.167" y="51.5" fill="#FFFFFF" width="12" height="6.041"/>
		<rect x="53.167" y="36.356" fill="#FFFFFF" width="12" height="6.042"/>
	</g>
	<path display="none" fill="#FFFFFF" d="M38.531,94.514l13.031-66.528h6.276v66.528H38.531L38.531,94.514z M60.35,94.514V27.985
		h6.276l13.032,66.527H60.35V94.514z M53.167,94.541V88.5h12v6.041H53.167L53.167,94.541z M53.167,74.541v-6.04h12v6.04H53.167
		L53.167,74.541z M53.167,57.542V51.5h12v6.041L53.167,57.542L53.167,57.542z M53.167,42.399v-6.042h12v6.042H53.167L53.167,42.399z
		"/>
	<path fill="#FC7E7E" d="M21.066,96.461c-0.322-0.285-0.508-0.693-0.508-1.124V78.768c0-0.44,0.196-0.861,0.532-1.146
		c0.272-0.23,0.617-0.355,0.969-0.355c0.082,0,0.165,0.008,0.247,0.021c1.742,0.29,3.415,0.438,4.968,0.438
		c4.121,0,7.481-0.998,9.989-2.971c0.901-0.71,1.526-1.424,1.93-1.975c-1.345-1.01-4.012-3.01-4.012-3.01
		c-0.383-0.287-0.601-0.733-0.601-1.201c0-0.078,0.006-0.158,0.019-0.238c0.09-0.551,0.478-1.006,1.007-1.184l19.121-6.375
		c0.154-0.051,0.314-0.076,0.473-0.076c0.327,0,0.65,0.107,0.916,0.313c0.372,0.285,0.586,0.729,0.586,1.189
		c0,0.031-0.001,0.062-0.003,0.092l-1.275,20.396c-0.035,0.551-0.368,1.037-0.868,1.269c-0.202,0.093-0.416,0.139-0.629,0.139
		c-0.318,0-0.636-0.103-0.9-0.301c0,0-2.258-1.694-3.725-2.795c-0.911,1.474-2.567,3.78-5.192,6.203
		c-2.514,2.319-5.411,4.28-8.611,5.823c-3.979,1.922-8.438,3.203-13.252,3.804c-0.063,0.008-0.125,0.011-0.188,0.011
		C21.696,96.836,21.342,96.705,21.066,96.461 M39.804,71.797c0.001-0.002,0.001-0.005,0.001-0.005S39.806,71.795,39.804,71.797"/>
	<path fill="#FFFFFF" d="M23.56,80.496c1.283,0.152,2.527,0.229,3.714,0.229c11.832,0,15.149-7.425,15.285-7.74
		c0.082-0.189,0.122-0.391,0.122-0.59c0-0.461-0.213-0.91-0.601-1.199c0,0-1.419-1.063-2.809-2.106
		c3.485-1.161,11.486-3.83,14.293-4.767c-0.188,2.988-0.737,11.779-0.962,15.4c-1.414-1.061-2.875-2.156-2.875-2.156
		c-0.261-0.195-0.578-0.299-0.898-0.299c-0.123,0-0.248,0.017-0.37,0.047c-0.439,0.109-0.806,0.416-0.996,0.828
		c-0.015,0.032-1.579,3.371-5.501,6.955c-2.295,2.096-4.939,3.868-7.862,5.27c-3.193,1.531-6.733,2.617-10.54,3.24
		C23.56,91.154,23.56,82.945,23.56,80.496"/>
	
		<linearGradient id="SVGID_10_" gradientUnits="userSpaceOnUse" x1="297.291" y1="-282.6055" x2="297.291" y2="-257.9302" gradientTransform="matrix(1 0 0 -1 -237.5996 -239.9004)">
		<stop  offset="0" style="stop-color:#FFFFFF;stop-opacity:0"/>
		<stop  offset="1" style="stop-color:#FFFFFF;stop-opacity:0.8"/>
	</linearGradient>
	<path fill="url(#SVGID_10_)" d="M36.279,34.888c-10.953-3.797-15.283-8.096-16.986-10.74c1.672-3.347,4.899-5.653,8.636-6.118
		c0.237,0,61.958,0,61.958,0l0.297,0.01c0,0,0.086,0.005,0.168,0.008c5.557,0.737,9.737,5.503,9.737,11.116c0,0,0,10.497,0,13.541
		C72.244,42.546,50.784,39.917,36.279,34.888"/>
</g>
</svg>
