<?xml version="1.0" encoding="utf-8"?>
<!-- Generator: Adobe Illustrator 16.0.2, SVG Export Plug-In . SVG Version: 6.00 Build 0)  -->
<!DOCTYPE svg PUBLIC "-//W3C//DTD SVG 1.1//EN" "http://www.w3.org/Graphics/SVG/1.1/DTD/svg11.dtd">
<svg version="1.1" id="Layer_1" xmlns="http://www.w3.org/2000/svg" xmlns:xlink="http://www.w3.org/1999/xlink" x="0px" y="0px"
	 width="120px" height="120px" viewBox="0 0 120 120" enable-background="new 0 0 120 120" xml:space="preserve">
<g id="black_white">
	<path fill="#FFFFFF" d="M76.73,107.87h-3.84V96.828h3.84V107.87L76.73,107.87z M76.73,23.172h-3.84V12.13h3.84V23.172L76.73,23.172
		z M76.73,44.435h-3.84V33.393h3.84V44.435L76.73,44.435z M76.73,65.669h-3.84V54.627h3.84V65.669L76.73,65.669z M68.124,50.955
		L43.533,17.709c-0.75-1.013-2.266-1.013-3.015,0L15.926,50.955c-0.916,1.238-0.032,2.991,1.508,2.991h49.182
		C68.154,53.945,69.039,52.193,68.124,50.955z M104.443,83.295c-0.019-5.587-4.424-10.129-9.95-10.391L52.475,62.48v-8.53h-20.9
		v16.5l0,0l0,0l0,0l0,0c0,4.622,3.004,8.536,7.164,9.915l-0.056,0.227l44.862,11.131v10.353h20.9v-18.78H104.443z"/>
</g>
<g id="blue">
	<path fill="#4E4E4E" d="M70.964,106.229c-1.104,0-2-0.895-2-2V92.654c0-1.105,0.896-2.002,2-2.002h4.962c1.104,0,2,0.896,2,2.002
		v11.574c0,1.105-0.896,2-2,2H70.964 M70.964,88.04c-1.104,0-2-0.896-2-2V74.466c0-1.104,0.896-2.001,2-2.001h4.962
		c1.104,0,2,0.896,2,2.001V86.04c0,1.104-0.896,2-2,2H70.964 M70.964,69.852c-1.104,0-2-0.896-2-2V56.275c0-1.105,0.896-2,2-2h4.962
		c1.104,0,2,0.895,2,2v11.577c0,1.104-0.896,2-2,2H70.964 M70.964,51.662c-1.104,0-2-0.896-2-2V38.085c0-1.105,0.896-2,2-2h4.962
		c1.104,0,2,0.896,2,2v11.576c0,1.105-0.896,2-2,2L70.964,51.662 M70.964,33.472c-1.104,0-2-0.896-2-2V19.896c0-1.105,0.896-2,2-2
		h4.962c1.104,0,2,0.896,2,2v11.576c0,1.105-0.896,2-2,2H70.964"/>
	<path fill="#FFFFFF" d="M70.964,104.229V92.654h4.962v11.574H70.964L70.964,104.229z M70.964,86.04V74.466h4.962V86.04H70.964
		L70.964,86.04z M70.964,67.852V56.275h4.962v11.577H70.964L70.964,67.852z M70.964,49.661V38.085h4.962v11.576H70.964
		L70.964,49.661z M70.964,31.471V19.896h4.962v11.576L70.964,31.471L70.964,31.471z"/>
	<path fill-opacity="0.1" d="M90.012,108.848c-1.658,0-3-1.343-3-3c0,0,0-7.943,0-11.104c-1.423-0.38-2.896-0.772-2.896-0.772
		s-4.918-1.314-5.586-1.494c-0.129-0.019-0.258-0.043-0.385-0.076c-1.396-0.375-34.251-9.174-40.388-10.973
		c-3.286-0.965-5.806-2.895-7.284-5.58c-1.26-2.291-1.524-4.684-1.524-6.285c0-0.408,0.016-0.773,0.038-1.082
		c-0.006-0.082-0.009-0.164-0.009-0.248c0,0,0-8.521,0-12.414c-3.764,0-11.409,0-11.52,0c-0.214,0.029-0.424,0.043-0.637,0.043
		c-2.814,0-5.104-2.29-5.104-5.104c0-1.467,0.637-2.858,1.728-3.823c0.431-0.57,23.859-31.601,24.052-31.855
		c0.932-1.493,2.565-2.409,4.324-2.409c1.754,0,3.367,0.898,4.3,2.37c0.045,0.059,23.305,31.227,23.775,31.857
		c1.117,0.962,1.767,2.365,1.767,3.859c0,2.814-2.29,5.104-5.104,5.104c-0.225,0-0.447-0.014-0.666-0.043c-0.371,0-8.114,0-11.895,0
		c0,1.917,0,2.894,0,4.511c3.595,0.979,20.182,5.498,20.182,5.498l-0.033-0.009c6.979,1.822,23.746,6.221,28.688,7.709
		c5.433,1.637,8.731,6.109,9.103,12.31c0.033,0.179,0.051,0.363,0.051,0.55v19.459c0,1.658-1.342,3-3,3H90.012"/>
	<path fill="#70B7E0" d="M88.012,106.848c-1.658,0-3-1.343-3-3c0,0,0-7.943,0-11.104c-1.423-0.38-2.896-0.772-2.896-0.772
		s-4.918-1.314-5.586-1.494c-0.129-0.019-0.258-0.043-0.385-0.076c-1.396-0.375-34.251-9.174-40.388-10.973
		c-3.286-0.965-5.806-2.895-7.284-5.58c-1.26-2.291-1.524-4.684-1.524-6.285c0-0.408,0.016-0.773,0.038-1.082
		c-0.006-0.082-0.009-0.164-0.009-0.248c0,0,0-8.521,0-12.414c-3.764,0-11.409,0-11.52,0c-0.214,0.029-0.424,0.043-0.637,0.043
		c-2.814,0-5.104-2.29-5.104-5.104c0-1.467,0.637-2.858,1.728-3.823c0.431-0.57,23.859-31.601,24.052-31.855
		c0.932-1.493,2.565-2.409,4.324-2.409c1.754,0,3.367,0.898,4.3,2.37c0.045,0.059,23.305,31.227,23.775,31.857
		c1.117,0.962,1.767,2.365,1.767,3.859c0,2.814-2.29,5.104-5.104,5.104c-0.225,0-0.447-0.014-0.666-0.043c-0.371,0-8.114,0-11.895,0
		c0,1.917,0,2.894,0,4.511c3.595,0.979,20.182,5.498,20.182,5.498l-0.033-0.009c6.979,1.822,23.746,6.221,28.688,7.709
		c5.433,1.637,8.731,6.109,9.103,12.31c0.033,0.179,0.051,0.363,0.051,0.55v19.459c0,1.658-1.342,3-3,3H88.012"/>
	<g>
		
			<linearGradient id="SVGID_1_" gradientUnits="userSpaceOnUse" x1="297.4531" y1="-343.7456" x2="297.4531" y2="-253.5703" gradientTransform="matrix(1 0 0 -1 -237.5996 -239.9004)">
			<stop  offset="0" style="stop-color:#48A2FB"/>
			<stop  offset="0.1758" style="stop-color:#059CF4"/>
			<stop  offset="0.4969" style="stop-color:#0398EF"/>
			<stop  offset="0.782" style="stop-color:#0293E7"/>
			<stop  offset="1" style="stop-color:#0189D8"/>
		</linearGradient>
		<path fill="url(#SVGID_1_)" d="M14.821,50.862c0.188,0,0.367-0.032,0.542-0.08l0.025,0.037h14.59v15.414h0.046
			c-0.219,1.863-0.431,8.261,6.578,10.314c6.172,1.811,40.32,10.954,40.32,10.954l0.006-0.024c3.613,0.969,7.607,2.031,11.084,2.963
			v13.406h18.977V84.387l-0.027-0.016c-0.111-2.98-1.166-8.217-6.988-9.971c-5.039-1.518-22.424-6.071-28.582-7.68
			C64.695,64.893,55.65,62.428,49,60.622v-9.805h15.135c0.139,0.029,0.28,0.043,0.426,0.043c1.164,0,2.104-0.941,2.104-2.104
			c0-0.725-0.37-1.368-0.931-1.744l-24.04-32.208h-0.018c-0.353-0.671-1.047-1.134-1.856-1.134c-0.791,0-1.472,0.442-1.832,1.087
			l-24.37,32.277c-0.543,0.381-0.902,1.009-0.902,1.723C12.717,49.921,13.659,50.862,14.821,50.862L14.821,50.862z"/>
	</g>
	
		<linearGradient id="SVGID_2_" gradientUnits="userSpaceOnUse" x1="272.9736" y1="-279.5234" x2="272.9736" y2="-255.3862" gradientTransform="matrix(1 0 0 -1 -237.5996 -239.9004)">
		<stop  offset="0" style="stop-color:#FFFFFF;stop-opacity:0"/>
		<stop  offset="1" style="stop-color:#FFFFFF;stop-opacity:0.8"/>
	</linearGradient>
	<path fill="url(#SVGID_2_)" d="M40.622,15.486c0,0,7.718,9.604,9.793,12.124c-19.154-2.101-30.084,12.013-30.084,12.013
		l19.01-24.117L40.622,15.486L40.622,15.486z"/>
</g>
<g id="green">
	<path fill="#4E4E4E" d="M70.964,106.229c-1.104,0-2-0.895-2-2V92.654c0-1.105,0.896-2.002,2-2.002h4.962c1.104,0,2,0.896,2,2.002
		v11.574c0,1.105-0.896,2-2,2H70.964 M70.964,88.04c-1.104,0-2-0.896-2-2V74.466c0-1.104,0.896-2.001,2-2.001h4.962
		c1.104,0,2,0.896,2,2.001V86.04c0,1.104-0.896,2-2,2H70.964 M70.964,69.852c-1.104,0-2-0.896-2-2V56.275c0-1.105,0.896-2,2-2h4.962
		c1.104,0,2,0.895,2,2v11.577c0,1.104-0.896,2-2,2H70.964 M70.964,51.662c-1.104,0-2-0.896-2-2V38.085c0-1.105,0.896-2,2-2h4.962
		c1.104,0,2,0.896,2,2v11.576c0,1.105-0.896,2-2,2L70.964,51.662 M70.964,33.472c-1.104,0-2-0.896-2-2V19.896c0-1.105,0.896-2,2-2
		h4.962c1.104,0,2,0.896,2,2v11.576c0,1.105-0.896,2-2,2H70.964"/>
	<path fill="#FFFFFF" d="M70.964,104.229V92.654h4.962v11.574H70.964L70.964,104.229z M70.964,86.04V74.466h4.962V86.04H70.964
		L70.964,86.04z M70.964,67.852V56.275h4.962v11.577H70.964L70.964,67.852z M70.964,49.661V38.085h4.962v11.576H70.964
		L70.964,49.661z M70.964,31.471V19.896h4.962v11.576L70.964,31.471L70.964,31.471z"/>
	<path fill-opacity="0.1" d="M90.012,108.848c-1.658,0-3-1.343-3-3c0,0,0-7.943,0-11.104c-1.423-0.38-2.896-0.772-2.896-0.772
		s-4.918-1.314-5.586-1.494c-0.129-0.019-0.258-0.043-0.385-0.076c-1.396-0.375-34.251-9.174-40.388-10.973
		c-3.286-0.965-5.806-2.895-7.284-5.58c-1.26-2.291-1.524-4.684-1.524-6.285c0-0.408,0.016-0.773,0.038-1.082
		c-0.006-0.082-0.009-0.164-0.009-0.248c0,0,0-8.521,0-12.414c-3.764,0-11.409,0-11.52,0c-0.214,0.029-0.424,0.043-0.637,0.043
		c-2.814,0-5.104-2.29-5.104-5.104c0-1.467,0.637-2.858,1.728-3.823c0.431-0.57,23.859-31.601,24.052-31.855
		c0.932-1.493,2.565-2.409,4.324-2.409c1.754,0,3.367,0.898,4.3,2.37c0.045,0.059,23.305,31.227,23.775,31.857
		c1.117,0.962,1.767,2.365,1.767,3.859c0,2.814-2.29,5.104-5.104,5.104c-0.225,0-0.447-0.014-0.666-0.043c-0.371,0-8.114,0-11.895,0
		c0,1.917,0,2.894,0,4.511c3.595,0.979,20.182,5.498,20.182,5.498l-0.033-0.009c6.979,1.822,23.746,6.221,28.688,7.709
		c5.433,1.637,8.731,6.109,9.103,12.31c0.033,0.179,0.051,0.363,0.051,0.55v19.459c0,1.658-1.342,3-3,3H90.012"/>
	<path fill="#03FC30" d="M88.012,106.848c-1.658,0-3-1.343-3-3c0,0,0-7.943,0-11.104c-1.423-0.38-2.896-0.772-2.896-0.772
		s-4.918-1.314-5.586-1.494c-0.129-0.019-0.258-0.043-0.385-0.076c-1.396-0.375-34.251-9.174-40.388-10.973
		c-3.286-0.965-5.806-2.895-7.284-5.58c-1.26-2.291-1.524-4.684-1.524-6.285c0-0.408,0.016-0.773,0.038-1.082
		c-0.006-0.082-0.009-0.164-0.009-0.248c0,0,0-8.521,0-12.414c-3.764,0-11.409,0-11.52,0c-0.214,0.029-0.424,0.043-0.637,0.043
		c-2.814,0-5.104-2.29-5.104-5.104c0-1.467,0.637-2.858,1.728-3.823c0.431-0.57,23.859-31.601,24.052-31.855
		c0.932-1.493,2.565-2.409,4.324-2.409c1.754,0,3.367,0.898,4.3,2.37c0.045,0.059,23.305,31.227,23.775,31.857
		c1.117,0.962,1.767,2.365,1.767,3.859c0,2.814-2.29,5.104-5.104,5.104c-0.225,0-0.447-0.014-0.666-0.043c-0.371,0-8.114,0-11.895,0
		c0,1.917,0,2.894,0,4.511c3.595,0.979,20.182,5.498,20.182,5.498l-0.033-0.009c6.979,1.822,23.746,6.221,28.688,7.709
		c5.433,1.637,8.731,6.109,9.103,12.31c0.033,0.179,0.051,0.363,0.051,0.55v19.459c0,1.658-1.342,3-3,3H88.012"/>
	<g>
		
			<linearGradient id="SVGID_3_" gradientUnits="userSpaceOnUse" x1="297.4531" y1="-343.7456" x2="297.4531" y2="-253.5703" gradientTransform="matrix(1 0 0 -1 -237.5996 -239.9004)">
			<stop  offset="0" style="stop-color:#00DF34"/>
			<stop  offset="0.1758" style="stop-color:#00CD26"/>
			<stop  offset="0.4969" style="stop-color:#00B211"/>
			<stop  offset="0.782" style="stop-color:#00A204"/>
			<stop  offset="1" style="stop-color:#009C00"/>
		</linearGradient>
		<path fill="url(#SVGID_3_)" d="M14.821,50.862c0.188,0,0.367-0.032,0.542-0.08l0.025,0.037h14.59v15.414h0.046
			c-0.219,1.863-0.431,8.261,6.578,10.314c6.172,1.811,40.32,10.954,40.32,10.954l0.006-0.024c3.613,0.969,7.607,2.031,11.084,2.963
			v13.406h18.977V84.387l-0.027-0.016c-0.111-2.98-1.166-8.217-6.988-9.971c-5.039-1.518-22.424-6.071-28.582-7.68
			C64.695,64.893,55.65,62.428,49,60.622v-9.805h15.135c0.139,0.029,0.28,0.043,0.426,0.043c1.164,0,2.104-0.941,2.104-2.104
			c0-0.725-0.37-1.368-0.931-1.744l-24.04-32.208h-0.018c-0.353-0.671-1.047-1.134-1.856-1.134c-0.791,0-1.472,0.442-1.832,1.087
			l-24.37,32.277c-0.543,0.381-0.902,1.009-0.902,1.723C12.717,49.921,13.659,50.862,14.821,50.862L14.821,50.862z"/>
	</g>
	
		<linearGradient id="SVGID_4_" gradientUnits="userSpaceOnUse" x1="272.9736" y1="-279.5234" x2="272.9736" y2="-255.3862" gradientTransform="matrix(1 0 0 -1 -237.5996 -239.9004)">
		<stop  offset="0" style="stop-color:#FFFFFF;stop-opacity:0"/>
		<stop  offset="1" style="stop-color:#FFFFFF;stop-opacity:0.8"/>
	</linearGradient>
	<path fill="url(#SVGID_4_)" d="M40.622,15.486c0,0,7.718,9.604,9.793,12.124c-19.154-2.101-30.084,12.013-30.084,12.013
		l19.01-24.117L40.622,15.486L40.622,15.486z"/>
</g>
<g id="kia">
	<path fill="#4E4E4E" d="M70.964,106.229c-1.104,0-2-0.895-2-2V92.654c0-1.105,0.896-2.002,2-2.002h4.962c1.104,0,2,0.896,2,2.002
		v11.574c0,1.105-0.896,2-2,2H70.964 M70.964,88.04c-1.104,0-2-0.896-2-2V74.466c0-1.104,0.896-2.001,2-2.001h4.962
		c1.104,0,2,0.896,2,2.001V86.04c0,1.104-0.896,2-2,2H70.964 M70.964,69.852c-1.104,0-2-0.896-2-2V56.275c0-1.105,0.896-2,2-2h4.962
		c1.104,0,2,0.895,2,2v11.577c0,1.104-0.896,2-2,2H70.964 M70.964,51.662c-1.104,0-2-0.896-2-2V38.085c0-1.105,0.896-2,2-2h4.962
		c1.104,0,2,0.896,2,2v11.576c0,1.105-0.896,2-2,2L70.964,51.662 M70.964,33.472c-1.104,0-2-0.896-2-2V19.896c0-1.105,0.896-2,2-2
		h4.962c1.104,0,2,0.896,2,2v11.576c0,1.105-0.896,2-2,2H70.964"/>
	<path fill="#FFFFFF" d="M70.964,104.229V92.654h4.962v11.574H70.964L70.964,104.229z M70.964,86.04V74.466h4.962V86.04H70.964
		L70.964,86.04z M70.964,67.852V56.275h4.962v11.577H70.964L70.964,67.852z M70.964,49.661V38.085h4.962v11.576H70.964
		L70.964,49.661z M70.964,31.471V19.896h4.962v11.576L70.964,31.471L70.964,31.471z"/>
	<path fill-opacity="0.1" d="M90.012,108.848c-1.658,0-3-1.343-3-3c0,0,0-7.943,0-11.104c-1.423-0.38-2.896-0.772-2.896-0.772
		s-4.918-1.314-5.586-1.494c-0.129-0.019-0.258-0.043-0.385-0.076c-1.396-0.375-34.251-9.174-40.388-10.973
		c-3.286-0.965-5.806-2.895-7.284-5.58c-1.26-2.291-1.524-4.684-1.524-6.285c0-0.408,0.016-0.773,0.038-1.082
		c-0.006-0.082-0.009-0.164-0.009-0.248c0,0,0-8.521,0-12.414c-3.764,0-11.409,0-11.52,0c-0.214,0.029-0.424,0.043-0.637,0.043
		c-2.814,0-5.104-2.29-5.104-5.104c0-1.467,0.637-2.858,1.728-3.823c0.431-0.57,23.859-31.601,24.052-31.855
		c0.932-1.493,2.565-2.409,4.324-2.409c1.754,0,3.367,0.898,4.3,2.37c0.045,0.059,23.305,31.227,23.775,31.857
		c1.117,0.962,1.767,2.365,1.767,3.859c0,2.814-2.29,5.104-5.104,5.104c-0.225,0-0.447-0.014-0.666-0.043c-0.371,0-8.114,0-11.895,0
		c0,1.917,0,2.894,0,4.511c3.595,0.979,20.182,5.498,20.182,5.498l-0.033-0.009c6.979,1.822,23.746,6.221,28.688,7.709
		c5.433,1.637,8.731,6.109,9.103,12.31c0.033,0.179,0.051,0.363,0.051,0.55v19.459c0,1.658-1.342,3-3,3H90.012"/>
	<path fill="#eeb422" d="M88.012,106.848c-1.658,0-3-1.343-3-3c0,0,0-7.943,0-11.104c-1.423-0.38-2.896-0.772-2.896-0.772
		s-4.918-1.314-5.586-1.494c-0.129-0.019-0.258-0.043-0.385-0.076c-1.396-0.375-34.251-9.174-40.388-10.973
		c-3.286-0.965-5.806-2.895-7.284-5.58c-1.26-2.291-1.524-4.684-1.524-6.285c0-0.408,0.016-0.773,0.038-1.082
		c-0.006-0.082-0.009-0.164-0.009-0.248c0,0,0-8.521,0-12.414c-3.764,0-11.409,0-11.52,0c-0.214,0.029-0.424,0.043-0.637,0.043
		c-2.814,0-5.104-2.29-5.104-5.104c0-1.467,0.637-2.858,1.728-3.823c0.431-0.57,23.859-31.601,24.052-31.855
		c0.932-1.493,2.565-2.409,4.324-2.409c1.754,0,3.367,0.898,4.3,2.37c0.045,0.059,23.305,31.227,23.775,31.857
		c1.117,0.962,1.767,2.365,1.767,3.859c0,2.814-2.29,5.104-5.104,5.104c-0.225,0-0.447-0.014-0.666-0.043c-0.371,0-8.114,0-11.895,0
		c0,1.917,0,2.894,0,4.511c3.595,0.979,20.182,5.498,20.182,5.498l-0.033-0.009c6.979,1.822,23.746,6.221,28.688,7.709
		c5.433,1.637,8.731,6.109,9.103,12.31c0.033,0.179,0.051,0.363,0.051,0.55v19.459c0,1.658-1.342,3-3,3H88.012"/>
	<g>
		
			<linearGradient id="SVGID_5_" gradientUnits="userSpaceOnUse" x1="297.4531" y1="-343.7456" x2="297.4531" y2="-253.5703" gradientTransform="matrix(1 0 0 -1 -237.5996 -239.9004)">
			<stop  offset="0" style="stop-color:#FFFFFF"/>
			<stop  offset="0.1758" style="stop-color:#E7E9EA"/>
			<stop  offset="0.4969" style="stop-color:#CDD2D5"/>
			<stop  offset="0.782" style="stop-color:#C5CACC"/>
			<stop  offset="1" style="stop-color:#BABDC0"/>
		</linearGradient>
		<path fill="url(#SVGID_5_)" d="M14.821,50.862c0.188,0,0.367-0.032,0.542-0.08l0.025,0.037h14.59v15.414h0.046
			c-0.219,1.863-0.431,8.261,6.578,10.314c6.172,1.811,40.32,10.954,40.32,10.954l0.006-0.024c3.613,0.969,7.607,2.031,11.084,2.963
			v13.406h18.977V84.387l-0.027-0.016c-0.111-2.98-1.166-8.217-6.988-9.971c-5.039-1.518-22.424-6.071-28.582-7.68
			C64.695,64.893,55.65,62.428,49,60.622v-9.805h15.135c0.139,0.029,0.28,0.043,0.426,0.043c1.164,0,2.104-0.941,2.104-2.104
			c0-0.725-0.37-1.368-0.931-1.744l-24.04-32.208h-0.018c-0.353-0.671-1.047-1.134-1.856-1.134c-0.791,0-1.472,0.442-1.832,1.087
			l-24.37,32.277c-0.543,0.381-0.902,1.009-0.902,1.723C12.717,49.921,13.659,50.862,14.821,50.862L14.821,50.862z"/>
	</g>
	
		<linearGradient id="SVGID_6_" gradientUnits="userSpaceOnUse" x1="272.9736" y1="-279.5234" x2="272.9736" y2="-255.3862" gradientTransform="matrix(1 0 0 -1 -237.5996 -239.9004)">
		<stop  offset="0" style="stop-color:#FFFFFF;stop-opacity:0"/>
		<stop  offset="1" style="stop-color:#FFFFFF;stop-opacity:0.8"/>
	</linearGradient>
	<path fill="url(#SVGID_6_)" d="M40.622,15.486c0,0,7.718,9.604,9.793,12.124c-19.154-2.101-30.084,12.013-30.084,12.013
		l19.01-24.117L40.622,15.486L40.622,15.486z"/>
</g>
<g id="orange">
	<path fill="#4E4E4E" d="M70.964,106.229c-1.104,0-2-0.895-2-2V92.654c0-1.105,0.896-2.002,2-2.002h4.962c1.104,0,2,0.896,2,2.002
		v11.574c0,1.105-0.896,2-2,2H70.964 M70.964,88.04c-1.104,0-2-0.896-2-2V74.466c0-1.104,0.896-2.001,2-2.001h4.962
		c1.104,0,2,0.896,2,2.001V86.04c0,1.104-0.896,2-2,2H70.964 M70.964,69.852c-1.104,0-2-0.896-2-2V56.275c0-1.105,0.896-2,2-2h4.962
		c1.104,0,2,0.895,2,2v11.577c0,1.104-0.896,2-2,2H70.964 M70.964,51.662c-1.104,0-2-0.896-2-2V38.085c0-1.105,0.896-2,2-2h4.962
		c1.104,0,2,0.896,2,2v11.576c0,1.105-0.896,2-2,2L70.964,51.662 M70.964,33.472c-1.104,0-2-0.896-2-2V19.896c0-1.105,0.896-2,2-2
		h4.962c1.104,0,2,0.896,2,2v11.576c0,1.105-0.896,2-2,2H70.964"/>
	<path fill="#FFFFFF" d="M70.964,104.229V92.654h4.962v11.574H70.964L70.964,104.229z M70.964,86.04V74.466h4.962V86.04H70.964
		L70.964,86.04z M70.964,67.852V56.275h4.962v11.577H70.964L70.964,67.852z M70.964,49.661V38.085h4.962v11.576H70.964
		L70.964,49.661z M70.964,31.471V19.896h4.962v11.576L70.964,31.471L70.964,31.471z"/>
	<path fill-opacity="0.1" d="M90.012,108.848c-1.658,0-3-1.343-3-3c0,0,0-7.943,0-11.104c-1.423-0.38-2.896-0.772-2.896-0.772
		s-4.918-1.314-5.586-1.494c-0.129-0.019-0.258-0.043-0.385-0.076c-1.396-0.375-34.251-9.174-40.388-10.973
		c-3.286-0.965-5.806-2.895-7.284-5.58c-1.26-2.291-1.524-4.684-1.524-6.285c0-0.408,0.016-0.773,0.038-1.082
		c-0.006-0.082-0.009-0.164-0.009-0.248c0,0,0-8.521,0-12.414c-3.764,0-11.409,0-11.52,0c-0.214,0.029-0.424,0.043-0.637,0.043
		c-2.814,0-5.104-2.29-5.104-5.104c0-1.467,0.637-2.858,1.728-3.823c0.431-0.57,23.859-31.601,24.052-31.855
		c0.932-1.493,2.565-2.409,4.324-2.409c1.754,0,3.367,0.898,4.3,2.37c0.045,0.059,23.305,31.227,23.775,31.857
		c1.117,0.962,1.767,2.365,1.767,3.859c0,2.814-2.29,5.104-5.104,5.104c-0.225,0-0.447-0.014-0.666-0.043c-0.371,0-8.114,0-11.895,0
		c0,1.917,0,2.894,0,4.511c3.595,0.979,20.182,5.498,20.182,5.498l-0.033-0.009c6.979,1.822,23.746,6.221,28.688,7.709
		c5.433,1.637,8.731,6.109,9.103,12.31c0.033,0.179,0.051,0.363,0.051,0.55v19.459c0,1.658-1.342,3-3,3H90.012"/>
	<path fill="#FFE035" d="M88.012,106.848c-1.658,0-3-1.343-3-3c0,0,0-7.943,0-11.104c-1.423-0.38-2.896-0.772-2.896-0.772
		s-4.918-1.314-5.586-1.494c-0.129-0.019-0.258-0.043-0.385-0.076c-1.396-0.375-34.251-9.174-40.388-10.973
		c-3.286-0.965-5.806-2.895-7.284-5.58c-1.26-2.291-1.524-4.684-1.524-6.285c0-0.408,0.016-0.773,0.038-1.082
		c-0.006-0.082-0.009-0.164-0.009-0.248c0,0,0-8.521,0-12.414c-3.764,0-11.409,0-11.52,0c-0.214,0.029-0.424,0.043-0.637,0.043
		c-2.814,0-5.104-2.29-5.104-5.104c0-1.467,0.637-2.858,1.728-3.823c0.431-0.57,23.859-31.601,24.052-31.855
		c0.932-1.493,2.565-2.409,4.324-2.409c1.754,0,3.367,0.898,4.3,2.37c0.045,0.059,23.305,31.227,23.775,31.857
		c1.117,0.962,1.767,2.365,1.767,3.859c0,2.814-2.29,5.104-5.104,5.104c-0.225,0-0.447-0.014-0.666-0.043c-0.371,0-8.114,0-11.895,0
		c0,1.917,0,2.894,0,4.511c3.595,0.979,20.182,5.498,20.182,5.498l-0.033-0.009c6.979,1.822,23.746,6.221,28.688,7.709
		c5.433,1.637,8.731,6.109,9.103,12.31c0.033,0.179,0.051,0.363,0.051,0.55v19.459c0,1.658-1.342,3-3,3H88.012"/>
	<g>
		
			<linearGradient id="SVGID_7_" gradientUnits="userSpaceOnUse" x1="297.4531" y1="-343.7456" x2="297.4531" y2="-253.5703" gradientTransform="matrix(1 0 0 -1 -237.5996 -239.9004)">
			<stop  offset="0" style="stop-color:#FEDF34"/>
			<stop  offset="0.1758" style="stop-color:#FECD26"/>
			<stop  offset="0.4969" style="stop-color:#FFB211"/>
			<stop  offset="0.782" style="stop-color:#FFA204"/>
			<stop  offset="1" style="stop-color:#FF9C00"/>
		</linearGradient>
		<path fill="url(#SVGID_7_)" d="M14.821,50.862c0.188,0,0.367-0.032,0.542-0.08l0.025,0.037h14.59v15.414h0.046
			c-0.219,1.863-0.431,8.261,6.578,10.314c6.172,1.811,40.32,10.954,40.32,10.954l0.006-0.024c3.613,0.969,7.607,2.031,11.084,2.963
			v13.406h18.977V84.387l-0.027-0.016c-0.111-2.98-1.166-8.217-6.988-9.971c-5.039-1.518-22.424-6.071-28.582-7.68
			C64.695,64.893,55.65,62.428,49,60.622v-9.805h15.135c0.139,0.029,0.28,0.043,0.426,0.043c1.164,0,2.104-0.941,2.104-2.104
			c0-0.725-0.37-1.368-0.931-1.744l-24.04-32.208h-0.018c-0.353-0.671-1.047-1.134-1.856-1.134c-0.791,0-1.472,0.442-1.832,1.087
			l-24.37,32.277c-0.543,0.381-0.902,1.009-0.902,1.723C12.717,49.921,13.659,50.862,14.821,50.862L14.821,50.862z"/>
	</g>
	
		<linearGradient id="SVGID_8_" gradientUnits="userSpaceOnUse" x1="272.9736" y1="-279.5234" x2="272.9736" y2="-255.3862" gradientTransform="matrix(1 0 0 -1 -237.5996 -239.9004)">
		<stop  offset="0" style="stop-color:#FFFFFF;stop-opacity:0"/>
		<stop  offset="1" style="stop-color:#FFFFFF;stop-opacity:0.8"/>
	</linearGradient>
	<path fill="url(#SVGID_8_)" d="M40.622,15.486c0,0,7.718,9.604,9.793,12.124c-19.154-2.101-30.084,12.013-30.084,12.013
		l19.01-24.117L40.622,15.486L40.622,15.486z"/>
</g>
<g id="red">
	<path fill="#4E4E4E" d="M70.964,106.229c-1.104,0-2-0.895-2-2V92.654c0-1.105,0.896-2.002,2-2.002h4.962c1.104,0,2,0.896,2,2.002
		v11.574c0,1.105-0.896,2-2,2H70.964 M70.964,88.04c-1.104,0-2-0.896-2-2V74.466c0-1.104,0.896-2.001,2-2.001h4.962
		c1.104,0,2,0.896,2,2.001V86.04c0,1.104-0.896,2-2,2H70.964 M70.964,69.852c-1.104,0-2-0.896-2-2V56.275c0-1.105,0.896-2,2-2h4.962
		c1.104,0,2,0.895,2,2v11.577c0,1.104-0.896,2-2,2H70.964 M70.964,51.662c-1.104,0-2-0.896-2-2V38.085c0-1.105,0.896-2,2-2h4.962
		c1.104,0,2,0.896,2,2v11.576c0,1.105-0.896,2-2,2L70.964,51.662 M70.964,33.472c-1.104,0-2-0.896-2-2V19.896c0-1.105,0.896-2,2-2
		h4.962c1.104,0,2,0.896,2,2v11.576c0,1.105-0.896,2-2,2H70.964"/>
	<path fill="#FFFFFF" d="M70.964,104.229V92.654h4.962v11.574H70.964L70.964,104.229z M70.964,86.04V74.466h4.962V86.04H70.964
		L70.964,86.04z M70.964,67.852V56.275h4.962v11.577H70.964L70.964,67.852z M70.964,49.661V38.085h4.962v11.576H70.964
		L70.964,49.661z M70.964,31.471V19.896h4.962v11.576L70.964,31.471L70.964,31.471z"/>
	<path fill-opacity="0.1" d="M90.012,108.848c-1.658,0-3-1.343-3-3c0,0,0-7.943,0-11.104c-1.423-0.38-2.896-0.772-2.896-0.772
		s-4.918-1.314-5.586-1.494c-0.129-0.019-0.258-0.043-0.385-0.076c-1.396-0.375-34.251-9.174-40.388-10.973
		c-3.286-0.965-5.806-2.895-7.284-5.58c-1.26-2.291-1.524-4.684-1.524-6.285c0-0.408,0.016-0.773,0.038-1.082
		c-0.006-0.082-0.009-0.164-0.009-0.248c0,0,0-8.521,0-12.414c-3.764,0-11.409,0-11.52,0c-0.214,0.029-0.424,0.043-0.637,0.043
		c-2.814,0-5.104-2.29-5.104-5.104c0-1.467,0.637-2.858,1.728-3.823c0.431-0.57,23.859-31.601,24.052-31.855
		c0.932-1.493,2.565-2.409,4.324-2.409c1.754,0,3.367,0.898,4.3,2.37c0.045,0.059,23.305,31.227,23.775,31.857
		c1.117,0.962,1.767,2.365,1.767,3.859c0,2.814-2.29,5.104-5.104,5.104c-0.225,0-0.447-0.014-0.666-0.043c-0.371,0-8.114,0-11.895,0
		c0,1.917,0,2.894,0,4.511c3.595,0.979,20.182,5.498,20.182,5.498l-0.033-0.009c6.979,1.822,23.746,6.221,28.688,7.709
		c5.433,1.637,8.731,6.109,9.103,12.31c0.033,0.179,0.051,0.363,0.051,0.55v19.459c0,1.658-1.342,3-3,3H90.012"/>
	<path fill="#FC7E7E" d="M88.012,106.848c-1.658,0-3-1.343-3-3c0,0,0-7.943,0-11.104c-1.423-0.38-2.896-0.772-2.896-0.772
		s-4.918-1.314-5.586-1.494c-0.129-0.019-0.258-0.043-0.385-0.076c-1.396-0.375-34.251-9.174-40.388-10.973
		c-3.286-0.965-5.806-2.895-7.284-5.58c-1.26-2.291-1.524-4.684-1.524-6.285c0-0.408,0.016-0.773,0.038-1.082
		c-0.006-0.082-0.009-0.164-0.009-0.248c0,0,0-8.521,0-12.414c-3.764,0-11.409,0-11.52,0c-0.214,0.029-0.424,0.043-0.637,0.043
		c-2.814,0-5.104-2.29-5.104-5.104c0-1.467,0.637-2.858,1.728-3.823c0.431-0.57,23.859-31.601,24.052-31.855
		c0.932-1.493,2.565-2.409,4.324-2.409c1.754,0,3.367,0.898,4.3,2.37c0.045,0.059,23.305,31.227,23.775,31.857
		c1.117,0.962,1.767,2.365,1.767,3.859c0,2.814-2.29,5.104-5.104,5.104c-0.225,0-0.447-0.014-0.666-0.043c-0.371,0-8.114,0-11.895,0
		c0,1.917,0,2.894,0,4.511c3.595,0.979,20.182,5.498,20.182,5.498l-0.033-0.009c6.979,1.822,23.746,6.221,28.688,7.709
		c5.433,1.637,8.731,6.109,9.103,12.31c0.033,0.179,0.051,0.363,0.051,0.55v19.459c0,1.658-1.342,3-3,3H88.012"/>
	<g>
		
			<linearGradient id="SVGID_9_" gradientUnits="userSpaceOnUse" x1="297.4531" y1="-343.7456" x2="297.4531" y2="-253.5703" gradientTransform="matrix(1 0 0 -1 -237.5996 -239.9004)">
			<stop  offset="0" style="stop-color:#FF0000"/>
			<stop  offset="0.1758" style="stop-color:#F60303"/>
			<stop  offset="0.4969" style="stop-color:#EC0404"/>
			<stop  offset="0.782" style="stop-color:#E30101"/>
			<stop  offset="1" style="stop-color:#D60202"/>
		</linearGradient>
		<path fill="url(#SVGID_9_)" d="M14.821,50.862c0.188,0,0.367-0.032,0.542-0.08l0.025,0.037h14.59v15.414h0.046
			c-0.219,1.863-0.431,8.261,6.578,10.314c6.172,1.811,40.32,10.954,40.32,10.954l0.006-0.024c3.613,0.969,7.607,2.031,11.084,2.963
			v13.406h18.977V84.387l-0.027-0.016c-0.111-2.98-1.166-8.217-6.988-9.971c-5.039-1.518-22.424-6.071-28.582-7.68
			C64.695,64.893,55.65,62.428,49,60.622v-9.805h15.135c0.139,0.029,0.28,0.043,0.426,0.043c1.164,0,2.104-0.941,2.104-2.104
			c0-0.725-0.37-1.368-0.931-1.744l-24.04-32.208h-0.018c-0.353-0.671-1.047-1.134-1.856-1.134c-0.791,0-1.472,0.442-1.832,1.087
			l-24.37,32.277c-0.543,0.381-0.902,1.009-0.902,1.723C12.717,49.921,13.659,50.862,14.821,50.862L14.821,50.862z"/>
	</g>
	
		<linearGradient id="SVGID_10_" gradientUnits="userSpaceOnUse" x1="272.9736" y1="-279.5234" x2="272.9736" y2="-255.3862" gradientTransform="matrix(1 0 0 -1 -237.5996 -239.9004)">
		<stop  offset="0" style="stop-color:#FFFFFF;stop-opacity:0"/>
		<stop  offset="1" style="stop-color:#FFFFFF;stop-opacity:0.8"/>
	</linearGradient>
	<path fill="url(#SVGID_10_)" d="M40.622,15.486c0,0,7.718,9.604,9.793,12.124c-19.154-2.101-30.084,12.013-30.084,12.013
		l19.01-24.117L40.622,15.486L40.622,15.486z"/>
</g>
</svg>
