<?xml version="1.0" encoding="utf-8"?>
<!-- Generator: Adobe Illustrator 16.0.2, SVG Export Plug-In . SVG Version: 6.00 Build 0)  -->
<!DOCTYPE svg PUBLIC "-//W3C//DTD SVG 1.1//EN" "http://www.w3.org/Graphics/SVG/1.1/DTD/svg11.dtd">
<svg version="1.1" id="Layer_1" xmlns="http://www.w3.org/2000/svg" xmlns:xlink="http://www.w3.org/1999/xlink" x="0px" y="0px"
	 width="120px" height="120px" viewBox="0 0 120 120" enable-background="new 0 0 120 120" xml:space="preserve">
<g id="black_white">
	<g>
		<path fill="#FFFFFF" d="M53.995,26.47c0,0-35.587,0-42,0v-2h42c3.315,0,6.001-2.687,6.001-6.001V15.5h2c0,1.429,0,2.969,0,2.969
			C61.996,22.881,58.407,26.47,53.995,26.47z M104.995,24.47c-3.313,0-5.999-2.687-5.999-6.001V15.5h-2c0,1.429,0,2.969,0,2.969
			c0,4.412,3.589,8.001,7.999,8.001c0,0,1.565,0,3.01,0v-2H104.995z M96.996,79.469c0,0,0,21.602,0,25.031h2V79.469
			c0-3.313,2.686-5.998,5.999-5.998h3.01v-2.002c-1.442,0-3.01,0-3.01,0C100.585,71.469,96.996,75.059,96.996,79.469z
			 M25.099,71.438c-6.238,0-10.961,0.031-13.104,0.031v2.002l15.817-0.033C26.909,72.771,25.991,72.096,25.099,71.438z
			 M53.995,71.469c0,0-5.706,0-12.957,0c0,0.651,0,1.346,0,2.002h12.957c3.315,0,6.001,2.684,6.001,5.998V104.5h2
			c0-3.432,0-25.031,0-25.031C61.996,75.059,58.407,71.469,53.995,71.469z M41.038,57.466h20.968c1.102,0,1.999-0.896,1.999-1.999
			s-0.896-2-1.999-2H41.038C41.038,54.653,41.038,56.184,41.038,57.466z M30.563,53.467H12.019v3.999h13.184
			C26.908,56.193,28.808,54.776,30.563,53.467z"/>
		<path fill="#FFFFFF" d="M88.053,77.799l-0.01-0.281l-0.02-0.565c-0.006-0.373-0.056-0.759-0.096-1.14l-0.064-0.574
			c-0.027-0.19-0.067-0.385-0.102-0.576c-0.076-0.387-0.134-0.768-0.248-1.154c-0.383-1.535-1.012-3.063-1.875-4.443
			c-0.859-1.385-1.941-2.61-3.129-3.635c-1.189-1.025-2.478-1.867-3.801-2.529c-1.324-0.668-2.676-1.191-4.047-1.586
			c-0.686-0.198-1.374-0.371-2.076-0.512c-0.352-0.07-0.704-0.135-1.064-0.189l-0.557-0.079l-0.292-0.035l-0.364-0.034l-0.113-0.011
			h-0.184H39.059v-8.491c0-0.989-1.128-1.553-1.92-0.96L20.356,63.579c-0.64,0.479-0.64,1.44,0,1.92l16.783,12.578
			c0.791,0.593,1.92,0.028,1.92-0.96V68.5H69.8l0.153,0.018l0.337,0.049c0.231,0.037,0.469,0.078,0.706,0.127
			c0.477,0.095,0.953,0.213,1.419,0.35c0.938,0.268,1.83,0.622,2.649,1.034c0.826,0.409,1.555,0.903,2.184,1.442
			c0.628,0.545,1.148,1.143,1.557,1.797c0.409,0.654,0.711,1.373,0.907,2.164c0.063,0.189,0.085,0.402,0.128,0.606
			c0.018,0.103,0.043,0.203,0.059,0.308l0.033,0.321c0.021,0.218,0.057,0.427,0.055,0.653l0.021,0.689v7.203v13.275h8.049V85.262
			v-7.201C88.059,77.992,88.057,77.893,88.053,77.799z"/>
	</g>
</g>
<g id="blue">
	<path fill="#7B7B7B" d="M109.99,73.471c-3.313,0-5.999,2.686-5.999,6v25.03h-39v-25.03c0-3.314-2.687-6-6-6h-42v-49h42
		c3.313,0,6-2.687,6-6.001v-2.969h39v2.969c0,3.314,2.687,6.001,5.999,6.001H113v49H109.99L109.99,73.471z"/>
	
		<radialGradient id="SVGID_1_" cx="302.6006" cy="-299.9014" r="46.2826" gradientTransform="matrix(1 0 0 -1 -237.5996 -239.9004)" gradientUnits="userSpaceOnUse">
		<stop  offset="0.14" style="stop-color:#AEAEAE"/>
		<stop  offset="0.96" style="stop-color:#CBCBCB"/>
	</radialGradient>
	<path fill="url(#SVGID_1_)" d="M66.991,104.501c0-3.431,0-25.03,0-25.03c0-4.412-3.589-8-8.001-8c0,0-41.966,0-41.989,0
		c0-4.076,0-40.924,0-45c0.023,0,41.989,0,41.989,0c4.412,0,8.001-3.589,8.001-8.001c0,0,0-1.54,0-2.969c3.405,0,31.594,0,35,0
		c0,1.429,0,2.969,0,2.969c0,4.412,3.589,8.001,7.999,8.001c0,0,1.566,0,3.01,0c0,3.524,0,41.476,0,45c-1.443,0-3.01,0-3.01,0
		c-4.41,0-7.999,3.588-7.999,8c0,0,0,21.6,0,25.03C98.585,104.501,70.396,104.501,66.991,104.501"/>
	<rect x="8" y="47.468" fill="none" width="8.979" height="15.999"/>
	<path fill="#4E4E4E" d="M17.014,57.467v-3.999h49.987c1.103,0,1.999,0.896,1.999,2c0,1.103-0.896,1.999-1.999,1.999H17.014"/>
	<path fill="#FFFFFF" d="M67.001,56.467H17.014v-2h49.987c0.552,0,0.999,0.448,0.999,1C68,56.019,67.553,56.467,67.001,56.467
		L67.001,56.467z"/>
	<path fill-opacity="0.1" d="M87.003,102.539c-1.104,0-2-0.895-2-2V87.264c0,0,0-7.154,0-7.188
		c-0.004-0.084-0.021-0.641-0.021-0.641c-0.002-0.021-0.002-0.043-0.002-0.065v-0.015c0-0.045-0.012-0.142-0.021-0.235l-0.021-0.208
		v0.013c0,0-0.019-0.181-0.025-0.261c-0.004-0.018-0.01-0.048-0.01-0.048s-0.012-0.062-0.022-0.115c0,0.001,0,0.003,0,0.003
		s-0.005-0.023-0.007-0.029c0,0.002,0.004,0.008,0.004,0.01c-0.002-0.006-0.002-0.01-0.004-0.016
		c-0.001-0.005-0.003-0.015-0.005-0.021v-0.002c0-0.004-0.001-0.006-0.001-0.01v-0.004v0.002c-0.016-0.08-0.04-0.215-0.04-0.215
		l-0.026-0.138c0,0,0.004,0.01,0.008,0.021c-0.013-0.041-0.033-0.11-0.041-0.138c-0.146-0.589-0.363-1.106-0.662-1.588
		c-0.297-0.478-0.69-0.931-1.17-1.347l0.008,0.009c-0.532-0.458-1.129-0.853-1.771-1.171c-0.743-0.373-1.519-0.676-2.312-0.903
		c-0.43-0.124-0.85-0.229-1.258-0.31c-0.008-0.002-0.578-0.104-0.625-0.111c-0.037-0.005-0.185-0.027-0.256-0.037
		c0,0-0.025-0.003-0.041-0.005c-0.215,0-25.163,0-28.646,0c0,2.192,0,5.623,0,5.845c0.016,0.123,0.022,0.248,0.022,0.371
		c0,1.697-1.382,3.08-3.08,3.08c-0.879,0-1.709-0.375-2.289-1.018c-0.399-0.293-16.356-12.059-16.473-12.146
		c-0.903-0.559-1.456-1.541-1.456-2.615c0-1.088,0.564-2.074,1.483-2.633c1.232-0.918,14.473-10.796,16.467-12.282
		c0.58-0.629,1.401-0.996,2.268-0.996c1.697,0,3.08,1.382,3.08,3.08c0,0.124-0.008,0.247-0.022,0.369c0,0.118,0,4.508,0,6.897
		c3.501,0,28.976,0,28.976,0h0.182c0.065,0,0.132,0.003,0.197,0.01l0.113,0.011l-0.013-0.001l0.364,0.033
		c0.019,0.004,0.037,0.006,0.057,0.008l0.292,0.034c0.013,0.001,0.024,0.003,0.04,0.005l0.556,0.078
		c0.009,0.002,0.019,0.004,0.027,0.006c0.376,0.059,0.753,0.125,1.151,0.205c0.739,0.149,1.474,0.329,2.238,0.553
		c1.499,0.431,2.977,1.008,4.389,1.717c1.514,0.761,2.931,1.703,4.207,2.804c1.396,1.203,2.582,2.58,3.522,4.095
		c0.94,1.504,1.671,3.231,2.112,4.994c0.104,0.372,0.17,0.719,0.226,1.025l0.05,0.25l0.002,0.023l0.027,0.143l0.088,0.511
		c0.006,0.039,0.003,0.019,0.008,0.058l0.065,0.572c0,0.005,0.002,0.014,0.002,0.02l0.021,0.188c0.037,0.343,0.08,0.729,0.086,1.134
		l-0.002-0.041l0.02,0.564l0.01,0.279c0,0.002,0,0.002,0,0.002v-0.02c0,0,0,0,0,0.002l0.008,0.307v0.039v7.203v13.275
		c0,1.105-0.896,2-2.002,2H87.003 M84.876,78.496c0-0.002,0-0.002,0-0.003C84.876,78.494,84.876,78.494,84.876,78.496
		 M84.811,78.118c-0.002-0.003-0.002-0.007-0.002-0.011C84.809,78.111,84.811,78.118,84.811,78.118"/>
	<path fill="#70B7E0" d="M85.003,100.539c-1.104,0-2-0.895-2-2V85.264c0,0,0-7.154,0-7.188c-0.004-0.084-0.021-0.641-0.021-0.641
		c-0.002-0.021-0.002-0.043-0.002-0.065v-0.015c0-0.045-0.012-0.142-0.021-0.235l-0.021-0.208v0.013c0,0-0.019-0.181-0.025-0.261
		c-0.004-0.018-0.01-0.048-0.01-0.048s-0.012-0.062-0.022-0.115c0,0.001,0,0.003,0,0.003s-0.005-0.023-0.007-0.029
		c0,0.002,0.004,0.008,0.004,0.01c-0.002-0.006-0.002-0.01-0.004-0.016c-0.001-0.005-0.003-0.015-0.005-0.021v-0.002
		c0-0.004-0.001-0.006-0.001-0.01v-0.004v0.002c-0.016-0.08-0.04-0.215-0.04-0.215l-0.026-0.138c0,0,0.004,0.01,0.008,0.021
		c-0.013-0.041-0.033-0.11-0.041-0.138c-0.146-0.589-0.363-1.106-0.662-1.588c-0.297-0.478-0.69-0.931-1.17-1.347l0.008,0.009
		c-0.532-0.458-1.129-0.853-1.771-1.171c-0.743-0.373-1.519-0.676-2.312-0.903c-0.43-0.124-0.85-0.229-1.258-0.31
		c-0.008-0.002-0.578-0.104-0.625-0.111c-0.037-0.005-0.185-0.027-0.256-0.037c0,0-0.025-0.003-0.041-0.005
		c-0.215,0-25.163,0-28.646,0c0,2.192,0,5.623,0,5.845c0.016,0.123,0.022,0.248,0.022,0.371c0,1.697-1.382,3.08-3.08,3.08
		c-0.879,0-1.709-0.375-2.289-1.018c-0.399-0.293-16.356-12.059-16.473-12.146c-0.903-0.559-1.456-1.541-1.456-2.615
		c0-1.088,0.564-2.074,1.483-2.633c1.232-0.918,14.473-10.796,16.467-12.282c0.58-0.629,1.401-0.996,2.268-0.996
		c1.697,0,3.08,1.382,3.08,3.08c0,0.124-0.008,0.247-0.022,0.369c0,0.118,0,4.508,0,6.897c3.501,0,28.976,0,28.976,0h0.182
		c0.065,0,0.132,0.003,0.197,0.01l0.113,0.011l-0.013-0.001l0.364,0.033c0.019,0.003,0.037,0.005,0.057,0.007l0.292,0.035
		c0.013,0.001,0.024,0.003,0.04,0.005l0.556,0.078c0.009,0.002,0.019,0.003,0.027,0.005c0.376,0.06,0.753,0.126,1.151,0.207
		c0.739,0.149,1.474,0.329,2.238,0.551c1.499,0.431,2.977,1.009,4.389,1.717c1.514,0.761,2.931,1.703,4.207,2.804
		c1.396,1.203,2.582,2.58,3.522,4.095c0.94,1.504,1.671,3.231,2.112,4.994c0.104,0.372,0.17,0.719,0.226,1.025l0.05,0.25
		l0.002,0.023l0.027,0.143l0.088,0.511c0.006,0.039,0.003,0.019,0.008,0.058l0.065,0.572c0,0.005,0.002,0.014,0.002,0.02
		l0.021,0.188c0.037,0.343,0.08,0.729,0.086,1.134l-0.002-0.041l0.02,0.564l0.01,0.279c0,0.002,0,0.002,0,0.002v-0.02
		c0,0,0,0,0,0.002l0.008,0.307v0.039v7.203v13.275c0,1.105-0.896,2-2.002,2H85.003 M82.876,76.496c0-0.002,0-0.002,0-0.003
		C82.876,76.494,82.876,76.494,82.876,76.496 M82.811,76.118c-0.002-0.003-0.002-0.007-0.002-0.011
		C82.809,76.111,82.811,76.118,82.811,76.118"/>
	<g>
		
			<linearGradient id="SVGID_2_" gradientUnits="userSpaceOnUse" x1="296.5059" y1="-338.439" x2="296.5059" y2="-290.0083" gradientTransform="matrix(1 0 0 -1 -237.5996 -239.9004)">
			<stop  offset="0" style="stop-color:#48A2FB"/>
			<stop  offset="0.1758" style="stop-color:#059CF4"/>
			<stop  offset="0.4969" style="stop-color:#0398EF"/>
			<stop  offset="0.782" style="stop-color:#0293E7"/>
			<stop  offset="1" style="stop-color:#0189D8"/>
		</linearGradient>
		<path fill="url(#SVGID_2_)" d="M85.003,98.539V85.264v-7.203l-0.022-0.689c0.002-0.229-0.033-0.438-0.055-0.653l-0.033-0.321
			c-0.015-0.104-0.039-0.205-0.058-0.308c-0.043-0.204-0.063-0.417-0.128-0.606c-0.197-0.791-0.498-1.51-0.907-2.164
			c-0.407-0.654-0.929-1.252-1.557-1.797c-0.63-0.539-1.356-1.033-2.183-1.442c-0.82-0.412-1.713-0.767-2.65-1.034
			c-0.467-0.137-0.943-0.255-1.419-0.35c-0.237-0.049-0.474-0.09-0.706-0.127l-0.338-0.049l-0.152-0.018H42.172v-8.047h32.836h0.184
			l0.113,0.011l0.364,0.034l0.292,0.035l0.557,0.078c0.359,0.057,0.713,0.121,1.063,0.191c0.702,0.141,1.392,0.313,2.075,0.51
			c1.371,0.396,2.724,0.92,4.048,1.586c1.323,0.664,2.61,1.506,3.801,2.531c1.188,1.022,2.269,2.25,3.129,3.633
			c0.863,1.383,1.492,2.908,1.875,4.444c0.114,0.386,0.173,0.769,0.247,1.154c0.035,0.192,0.075,0.386,0.104,0.575l0.064,0.574
			c0.04,0.381,0.09,0.768,0.096,1.141l0.02,0.564l0.009,0.282c0.004,0.093,0.007,0.193,0.005,0.261v7.203v13.275H85.003
			L85.003,98.539z M42.409,77.564L25.342,64.98l-0.082-1.858l17.172-12.81l1.602,1.166v25.028L42.409,77.564L42.409,77.564z
			 M42.976,52.267c-0.598,0-1.081-0.484-1.081-1.08s0.483-1.079,1.081-1.079c0.596,0,1.079,0.483,1.079,1.079
			S43.572,52.267,42.976,52.267L42.976,52.267z M42.976,77.796c-0.598,0-1.081-0.483-1.081-1.079c0-0.598,0.483-1.078,1.081-1.078
			c0.596,0,1.079,0.48,1.079,1.078C44.055,77.313,43.572,77.796,42.976,77.796L42.976,77.796z M25.838,65.098
			c-0.596,0-1.079-0.482-1.079-1.078c0-0.597,0.483-1.08,1.079-1.08c0.598,0,1.081,0.483,1.081,1.08
			C26.919,64.615,26.436,65.098,25.838,65.098L25.838,65.098z"/>
	</g>
</g>
<g id="green">
	<path fill="#7B7B7B" d="M109.99,73.471c-3.313,0-5.999,2.686-5.999,6v25.03h-39v-25.03c0-3.314-2.687-6-6-6h-42v-49h42
		c3.313,0,6-2.687,6-6.001v-2.969h39v2.969c0,3.314,2.687,6.001,5.999,6.001H113v49H109.99L109.99,73.471z"/>
	
		<radialGradient id="SVGID_3_" cx="302.6006" cy="-299.9014" r="46.2826" gradientTransform="matrix(1 0 0 -1 -237.5996 -239.9004)" gradientUnits="userSpaceOnUse">
		<stop  offset="0.14" style="stop-color:#AEAEAE"/>
		<stop  offset="0.96" style="stop-color:#CBCBCB"/>
	</radialGradient>
	<path fill="url(#SVGID_3_)" d="M66.991,104.501c0-3.431,0-25.03,0-25.03c0-4.412-3.589-8-8.001-8c0,0-41.966,0-41.989,0
		c0-4.076,0-40.924,0-45c0.023,0,41.989,0,41.989,0c4.412,0,8.001-3.589,8.001-8.001c0,0,0-1.54,0-2.969c3.405,0,31.594,0,35,0
		c0,1.429,0,2.969,0,2.969c0,4.412,3.589,8.001,7.999,8.001c0,0,1.566,0,3.01,0c0,3.524,0,41.476,0,45c-1.443,0-3.01,0-3.01,0
		c-4.41,0-7.999,3.588-7.999,8c0,0,0,21.6,0,25.03C98.585,104.501,70.396,104.501,66.991,104.501"/>
	<rect x="8" y="47.468" fill="none" width="8.979" height="15.999"/>
	<path fill="#4E4E4E" d="M17.014,57.467v-3.999h49.987c1.103,0,1.999,0.896,1.999,2c0,1.103-0.896,1.999-1.999,1.999H17.014"/>
	<path fill="#FFFFFF" d="M67.001,56.467H17.014v-2h49.987c0.552,0,0.999,0.448,0.999,1C68,56.019,67.553,56.467,67.001,56.467
		L67.001,56.467z"/>
	<path fill-opacity="0.1" d="M87.003,102.539c-1.104,0-2-0.895-2-2V87.264c0,0,0-7.154,0-7.188
		c-0.004-0.084-0.021-0.641-0.021-0.641c-0.002-0.021-0.002-0.043-0.002-0.065v-0.015c0-0.045-0.012-0.142-0.021-0.235l-0.021-0.208
		v0.013c0,0-0.019-0.181-0.025-0.261c-0.004-0.018-0.01-0.048-0.01-0.048s-0.012-0.062-0.022-0.115c0,0.001,0,0.003,0,0.003
		s-0.005-0.023-0.007-0.029c0,0.002,0.004,0.008,0.004,0.01c-0.002-0.006-0.002-0.01-0.004-0.016
		c-0.001-0.005-0.003-0.015-0.005-0.021v-0.002c0-0.004-0.001-0.006-0.001-0.01v-0.004v0.002c-0.016-0.08-0.04-0.215-0.04-0.215
		l-0.026-0.138c0,0,0.004,0.01,0.008,0.021c-0.013-0.041-0.033-0.11-0.041-0.138c-0.146-0.589-0.363-1.106-0.662-1.588
		c-0.297-0.478-0.69-0.931-1.17-1.347l0.008,0.009c-0.532-0.458-1.129-0.853-1.771-1.171c-0.743-0.373-1.519-0.676-2.312-0.903
		c-0.43-0.124-0.85-0.229-1.258-0.31c-0.008-0.002-0.578-0.104-0.625-0.111c-0.037-0.005-0.185-0.027-0.256-0.037
		c0,0-0.025-0.003-0.041-0.005c-0.215,0-25.163,0-28.646,0c0,2.192,0,5.623,0,5.845c0.016,0.123,0.022,0.248,0.022,0.371
		c0,1.697-1.382,3.08-3.08,3.08c-0.879,0-1.709-0.375-2.289-1.018c-0.399-0.293-16.356-12.059-16.473-12.146
		c-0.903-0.559-1.456-1.541-1.456-2.615c0-1.088,0.564-2.074,1.483-2.633c1.232-0.918,14.473-10.796,16.467-12.282
		c0.58-0.629,1.401-0.996,2.268-0.996c1.697,0,3.08,1.382,3.08,3.08c0,0.124-0.008,0.247-0.022,0.369c0,0.118,0,4.508,0,6.897
		c3.501,0,28.976,0,28.976,0h0.182c0.065,0,0.132,0.003,0.197,0.01l0.113,0.011l-0.013-0.001l0.364,0.033
		c0.019,0.004,0.037,0.006,0.057,0.008l0.292,0.034c0.013,0.001,0.024,0.003,0.04,0.005l0.556,0.078
		c0.009,0.002,0.019,0.004,0.027,0.006c0.376,0.059,0.753,0.125,1.151,0.205c0.739,0.149,1.474,0.329,2.238,0.553
		c1.499,0.431,2.977,1.008,4.389,1.717c1.514,0.761,2.931,1.703,4.207,2.804c1.396,1.203,2.582,2.58,3.522,4.095
		c0.94,1.504,1.671,3.231,2.112,4.994c0.104,0.372,0.17,0.719,0.226,1.025l0.05,0.25l0.002,0.023l0.027,0.143l0.088,0.511
		c0.006,0.039,0.003,0.019,0.008,0.058l0.065,0.572c0,0.005,0.002,0.014,0.002,0.02l0.021,0.188c0.037,0.343,0.08,0.729,0.086,1.134
		l-0.002-0.041l0.02,0.564l0.01,0.279c0,0.002,0,0.002,0,0.002v-0.02c0,0,0,0,0,0.002l0.008,0.307v0.039v7.203v13.275
		c0,1.105-0.896,2-2.002,2H87.003 M84.876,78.496c0-0.002,0-0.002,0-0.003C84.876,78.494,84.876,78.494,84.876,78.496
		 M84.811,78.118c-0.002-0.003-0.002-0.007-0.002-0.011C84.809,78.111,84.811,78.118,84.811,78.118"/>
	<path fill="#03FC30" d="M85.003,100.539c-1.104,0-2-0.895-2-2V85.264c0,0,0-7.154,0-7.188c-0.004-0.084-0.021-0.641-0.021-0.641
		c-0.002-0.021-0.002-0.043-0.002-0.065v-0.015c0-0.045-0.012-0.142-0.021-0.235l-0.021-0.208v0.013c0,0-0.019-0.181-0.025-0.261
		c-0.004-0.018-0.01-0.048-0.01-0.048s-0.012-0.062-0.022-0.115c0,0.001,0,0.003,0,0.003s-0.005-0.023-0.007-0.029
		c0,0.002,0.004,0.008,0.004,0.01c-0.002-0.006-0.002-0.01-0.004-0.016c-0.001-0.005-0.003-0.015-0.005-0.021v-0.002
		c0-0.004-0.001-0.006-0.001-0.01v-0.004v0.002c-0.016-0.08-0.04-0.215-0.04-0.215l-0.026-0.138c0,0,0.004,0.01,0.008,0.021
		c-0.013-0.041-0.033-0.11-0.041-0.138c-0.146-0.589-0.363-1.106-0.662-1.588c-0.297-0.478-0.69-0.931-1.17-1.347l0.008,0.009
		c-0.532-0.458-1.129-0.853-1.771-1.171c-0.743-0.373-1.519-0.676-2.312-0.903c-0.43-0.124-0.85-0.229-1.258-0.31
		c-0.008-0.002-0.578-0.104-0.625-0.111c-0.037-0.005-0.185-0.027-0.256-0.037c0,0-0.025-0.003-0.041-0.005
		c-0.215,0-25.163,0-28.646,0c0,2.192,0,5.623,0,5.845c0.016,0.123,0.022,0.248,0.022,0.371c0,1.697-1.382,3.08-3.08,3.08
		c-0.879,0-1.709-0.375-2.289-1.018c-0.399-0.293-16.356-12.059-16.473-12.146c-0.903-0.559-1.456-1.541-1.456-2.615
		c0-1.088,0.564-2.074,1.483-2.633c1.232-0.918,14.473-10.796,16.467-12.282c0.58-0.629,1.401-0.996,2.268-0.996
		c1.697,0,3.08,1.382,3.08,3.08c0,0.124-0.008,0.247-0.022,0.369c0,0.118,0,4.508,0,6.897c3.501,0,28.976,0,28.976,0h0.182
		c0.065,0,0.132,0.003,0.197,0.01l0.113,0.011l-0.013-0.001l0.364,0.033c0.019,0.003,0.037,0.005,0.057,0.007l0.292,0.035
		c0.013,0.001,0.024,0.003,0.04,0.005l0.556,0.078c0.009,0.002,0.019,0.003,0.027,0.005c0.376,0.06,0.753,0.126,1.151,0.207
		c0.739,0.149,1.474,0.329,2.238,0.551c1.499,0.431,2.977,1.009,4.389,1.717c1.514,0.761,2.931,1.703,4.207,2.804
		c1.396,1.203,2.582,2.58,3.522,4.095c0.94,1.504,1.671,3.231,2.112,4.994c0.104,0.372,0.17,0.719,0.226,1.025l0.05,0.25
		l0.002,0.023l0.027,0.143l0.088,0.511c0.006,0.039,0.003,0.019,0.008,0.058l0.065,0.572c0,0.005,0.002,0.014,0.002,0.02
		l0.021,0.188c0.037,0.343,0.08,0.729,0.086,1.134l-0.002-0.041l0.02,0.564l0.01,0.279c0,0.002,0,0.002,0,0.002v-0.02
		c0,0,0,0,0,0.002l0.008,0.307v0.039v7.203v13.275c0,1.105-0.896,2-2.002,2H85.003 M82.876,76.496c0-0.002,0-0.002,0-0.003
		C82.876,76.494,82.876,76.494,82.876,76.496 M82.811,76.118c-0.002-0.003-0.002-0.007-0.002-0.011
		C82.809,76.111,82.811,76.118,82.811,76.118"/>
	<g>
		
			<linearGradient id="SVGID_4_" gradientUnits="userSpaceOnUse" x1="296.5059" y1="-338.439" x2="296.5059" y2="-290.0083" gradientTransform="matrix(1 0 0 -1 -237.5996 -239.9004)">
			<stop  offset="0" style="stop-color:#00DF34"/>
			<stop  offset="0.1758" style="stop-color:#00CD26"/>
			<stop  offset="0.4969" style="stop-color:#00B211"/>
			<stop  offset="0.782" style="stop-color:#00A204"/>
			<stop  offset="1" style="stop-color:#009C00"/>
		</linearGradient>
		<path fill="url(#SVGID_4_)" d="M85.003,98.539V85.264v-7.203l-0.022-0.689c0.002-0.229-0.033-0.438-0.055-0.653l-0.033-0.321
			c-0.015-0.104-0.039-0.205-0.058-0.308c-0.043-0.204-0.063-0.417-0.128-0.606c-0.197-0.791-0.498-1.51-0.907-2.164
			c-0.407-0.654-0.929-1.252-1.557-1.797c-0.63-0.539-1.356-1.033-2.183-1.442c-0.82-0.412-1.713-0.767-2.65-1.034
			c-0.467-0.137-0.943-0.255-1.419-0.35c-0.237-0.049-0.474-0.09-0.706-0.127l-0.338-0.049l-0.152-0.018H42.172v-8.047h32.836h0.184
			l0.113,0.011l0.364,0.034l0.292,0.035l0.557,0.078c0.359,0.057,0.713,0.121,1.063,0.191c0.702,0.141,1.392,0.313,2.075,0.51
			c1.371,0.396,2.724,0.92,4.048,1.586c1.323,0.664,2.61,1.506,3.801,2.531c1.188,1.022,2.269,2.25,3.129,3.633
			c0.863,1.383,1.492,2.908,1.875,4.444c0.114,0.386,0.173,0.769,0.247,1.154c0.035,0.192,0.075,0.386,0.104,0.575l0.064,0.574
			c0.04,0.381,0.09,0.768,0.096,1.141l0.02,0.564l0.009,0.282c0.004,0.093,0.007,0.193,0.005,0.261v7.203v13.275H85.003
			L85.003,98.539z M42.409,77.564L25.342,64.98l-0.082-1.858l17.172-12.81l1.602,1.166v25.028L42.409,77.564L42.409,77.564z
			 M42.976,52.267c-0.598,0-1.081-0.484-1.081-1.08s0.483-1.079,1.081-1.079c0.596,0,1.079,0.483,1.079,1.079
			S43.572,52.267,42.976,52.267L42.976,52.267z M42.976,77.796c-0.598,0-1.081-0.483-1.081-1.079c0-0.598,0.483-1.078,1.081-1.078
			c0.596,0,1.079,0.48,1.079,1.078C44.055,77.313,43.572,77.796,42.976,77.796L42.976,77.796z M25.838,65.098
			c-0.596,0-1.079-0.482-1.079-1.078c0-0.597,0.483-1.08,1.079-1.08c0.598,0,1.081,0.483,1.081,1.08
			C26.919,64.615,26.436,65.098,25.838,65.098L25.838,65.098z"/>
	</g>
</g>
<g id="kia">
	<path fill="#7B7B7B" d="M109.99,73.471c-3.313,0-5.999,2.686-5.999,6v25.03h-39v-25.03c0-3.314-2.687-6-6-6h-42v-49h42
		c3.313,0,6-2.687,6-6.001v-2.969h39v2.969c0,3.314,2.687,6.001,5.999,6.001H113v49H109.99L109.99,73.471z"/>
	
		<radialGradient id="SVGID_5_" cx="302.6006" cy="-299.9014" r="46.2826" gradientTransform="matrix(1 0 0 -1 -237.5996 -239.9004)" gradientUnits="userSpaceOnUse">
		<stop  offset="0.14" style="stop-color:#AEAEAE"/>
		<stop  offset="0.96" style="stop-color:#CBCBCB"/>
	</radialGradient>
	<path fill="url(#SVGID_5_)" d="M66.991,104.501c0-3.431,0-25.03,0-25.03c0-4.412-3.589-8-8.001-8c0,0-41.966,0-41.989,0
		c0-4.076,0-40.924,0-45c0.023,0,41.989,0,41.989,0c4.412,0,8.001-3.589,8.001-8.001c0,0,0-1.54,0-2.969c3.405,0,31.594,0,35,0
		c0,1.429,0,2.969,0,2.969c0,4.412,3.589,8.001,7.999,8.001c0,0,1.566,0,3.01,0c0,3.524,0,41.476,0,45c-1.443,0-3.01,0-3.01,0
		c-4.41,0-7.999,3.588-7.999,8c0,0,0,21.6,0,25.03C98.585,104.501,70.396,104.501,66.991,104.501"/>
	<rect x="8" y="47.468" fill="none" width="8.979" height="15.999"/>
	<path fill="#4E4E4E" d="M17.014,57.467v-3.999h49.987c1.103,0,1.999,0.896,1.999,2c0,1.103-0.896,1.999-1.999,1.999H17.014"/>
	<path fill="#FFFFFF" d="M67.001,56.467H17.014v-2h49.987c0.552,0,0.999,0.448,0.999,1C68,56.019,67.553,56.467,67.001,56.467
		L67.001,56.467z"/>
	<path fill-opacity="0.1" d="M87.003,102.539c-1.104,0-2-0.895-2-2V87.264c0,0,0-7.154,0-7.188
		c-0.004-0.084-0.021-0.641-0.021-0.641c-0.002-0.021-0.002-0.043-0.002-0.065v-0.015c0-0.045-0.012-0.142-0.021-0.235l-0.021-0.208
		v0.013c0,0-0.019-0.181-0.025-0.261c-0.004-0.018-0.01-0.048-0.01-0.048s-0.012-0.062-0.022-0.115c0,0.001,0,0.003,0,0.003
		s-0.005-0.023-0.007-0.029c0,0.002,0.004,0.008,0.004,0.01c-0.002-0.006-0.002-0.01-0.004-0.016
		c-0.001-0.005-0.003-0.015-0.005-0.021v-0.002c0-0.004-0.001-0.006-0.001-0.01v-0.004v0.002c-0.016-0.08-0.04-0.215-0.04-0.215
		l-0.026-0.138c0,0,0.004,0.01,0.008,0.021c-0.013-0.041-0.033-0.11-0.041-0.138c-0.146-0.589-0.363-1.106-0.662-1.588
		c-0.297-0.478-0.69-0.931-1.17-1.347l0.008,0.009c-0.532-0.458-1.129-0.853-1.771-1.171c-0.743-0.373-1.519-0.676-2.312-0.903
		c-0.43-0.124-0.85-0.229-1.258-0.31c-0.008-0.002-0.578-0.104-0.625-0.111c-0.037-0.005-0.185-0.027-0.256-0.037
		c0,0-0.025-0.003-0.041-0.005c-0.215,0-25.163,0-28.646,0c0,2.192,0,5.623,0,5.845c0.016,0.123,0.022,0.248,0.022,0.371
		c0,1.697-1.382,3.08-3.08,3.08c-0.879,0-1.709-0.375-2.289-1.018c-0.399-0.293-16.356-12.059-16.473-12.146
		c-0.903-0.559-1.456-1.541-1.456-2.615c0-1.088,0.564-2.074,1.483-2.633c1.232-0.918,14.473-10.796,16.467-12.282
		c0.58-0.629,1.401-0.996,2.268-0.996c1.697,0,3.08,1.382,3.08,3.08c0,0.124-0.008,0.247-0.022,0.369c0,0.118,0,4.508,0,6.897
		c3.501,0,28.976,0,28.976,0h0.182c0.065,0,0.132,0.003,0.197,0.01l0.113,0.011l-0.013-0.001l0.364,0.033
		c0.019,0.004,0.037,0.006,0.057,0.008l0.292,0.034c0.013,0.001,0.024,0.003,0.04,0.005l0.556,0.078
		c0.009,0.002,0.019,0.004,0.027,0.006c0.376,0.059,0.753,0.125,1.151,0.205c0.739,0.149,1.474,0.329,2.238,0.553
		c1.499,0.431,2.977,1.008,4.389,1.717c1.514,0.761,2.931,1.703,4.207,2.804c1.396,1.203,2.582,2.58,3.522,4.095
		c0.94,1.504,1.671,3.231,2.112,4.994c0.104,0.372,0.17,0.719,0.226,1.025l0.05,0.25l0.002,0.023l0.027,0.143l0.088,0.511
		c0.006,0.039,0.003,0.019,0.008,0.058l0.065,0.572c0,0.005,0.002,0.014,0.002,0.02l0.021,0.188c0.037,0.343,0.08,0.729,0.086,1.134
		l-0.002-0.041l0.02,0.564l0.01,0.279c0,0.002,0,0.002,0,0.002v-0.02c0,0,0,0,0,0.002l0.008,0.307v0.039v7.203v13.275
		c0,1.105-0.896,2-2.002,2H87.003 M84.876,78.496c0-0.002,0-0.002,0-0.003C84.876,78.494,84.876,78.494,84.876,78.496
		 M84.811,78.118c-0.002-0.003-0.002-0.007-0.002-0.011C84.809,78.111,84.811,78.118,84.811,78.118"/>
	<path fill="#eeb422" d="M85.003,100.539c-1.104,0-2-0.895-2-2V85.264c0,0,0-7.154,0-7.188c-0.004-0.084-0.021-0.641-0.021-0.641
		c-0.002-0.021-0.002-0.043-0.002-0.065v-0.015c0-0.045-0.012-0.142-0.021-0.235l-0.021-0.208v0.013c0,0-0.019-0.181-0.025-0.261
		c-0.004-0.018-0.01-0.048-0.01-0.048s-0.012-0.062-0.022-0.115c0,0.001,0,0.003,0,0.003s-0.005-0.023-0.007-0.029
		c0,0.002,0.004,0.008,0.004,0.01c-0.002-0.006-0.002-0.01-0.004-0.016c-0.001-0.005-0.003-0.015-0.005-0.021v-0.002
		c0-0.004-0.001-0.006-0.001-0.01v-0.004v0.002c-0.016-0.08-0.04-0.215-0.04-0.215l-0.026-0.138c0,0,0.004,0.01,0.008,0.021
		c-0.013-0.041-0.033-0.11-0.041-0.138c-0.146-0.589-0.363-1.106-0.662-1.588c-0.297-0.478-0.69-0.931-1.17-1.347l0.008,0.009
		c-0.532-0.458-1.129-0.853-1.771-1.171c-0.743-0.373-1.519-0.676-2.312-0.903c-0.43-0.124-0.85-0.229-1.258-0.31
		c-0.008-0.002-0.578-0.104-0.625-0.111c-0.037-0.005-0.185-0.027-0.256-0.037c0,0-0.025-0.003-0.041-0.005
		c-0.215,0-25.163,0-28.646,0c0,2.192,0,5.623,0,5.845c0.016,0.123,0.022,0.248,0.022,0.371c0,1.697-1.382,3.08-3.08,3.08
		c-0.879,0-1.709-0.375-2.289-1.018c-0.399-0.293-16.356-12.059-16.473-12.146c-0.903-0.559-1.456-1.541-1.456-2.615
		c0-1.088,0.564-2.074,1.483-2.633c1.232-0.918,14.473-10.796,16.467-12.282c0.58-0.629,1.401-0.996,2.268-0.996
		c1.697,0,3.08,1.382,3.08,3.08c0,0.124-0.008,0.247-0.022,0.369c0,0.118,0,4.508,0,6.897c3.501,0,28.976,0,28.976,0h0.182
		c0.065,0,0.132,0.003,0.197,0.01l0.113,0.011l-0.013-0.001l0.364,0.033c0.019,0.003,0.037,0.005,0.057,0.007l0.292,0.035
		c0.013,0.001,0.024,0.003,0.04,0.005l0.556,0.078c0.009,0.002,0.019,0.003,0.027,0.005c0.376,0.06,0.753,0.126,1.151,0.207
		c0.739,0.149,1.474,0.329,2.238,0.551c1.499,0.431,2.977,1.009,4.389,1.717c1.514,0.761,2.931,1.703,4.207,2.804
		c1.396,1.203,2.582,2.58,3.522,4.095c0.94,1.504,1.671,3.231,2.112,4.994c0.104,0.372,0.17,0.719,0.226,1.025l0.05,0.25
		l0.002,0.023l0.027,0.143l0.088,0.511c0.006,0.039,0.003,0.019,0.008,0.058l0.065,0.572c0,0.005,0.002,0.014,0.002,0.02
		l0.021,0.188c0.037,0.343,0.08,0.729,0.086,1.134l-0.002-0.041l0.02,0.564l0.01,0.279c0,0.002,0,0.002,0,0.002v-0.02
		c0,0,0,0,0,0.002l0.008,0.307v0.039v7.203v13.275c0,1.105-0.896,2-2.002,2H85.003 M82.876,76.496c0-0.002,0-0.002,0-0.003
		C82.876,76.494,82.876,76.494,82.876,76.496 M82.811,76.118c-0.002-0.003-0.002-0.007-0.002-0.011
		C82.809,76.111,82.811,76.118,82.811,76.118"/>
	<g>
		
			<linearGradient id="SVGID_6_" gradientUnits="userSpaceOnUse" x1="296.5059" y1="-338.439" x2="296.5059" y2="-290.0083" gradientTransform="matrix(1 0 0 -1 -237.5996 -239.9004)">
			<stop  offset="0" style="stop-color:#FFFFFF"/>
			<stop  offset="0.1758" style="stop-color:#E7E9EA"/>
			<stop  offset="0.4969" style="stop-color:#CDD2D5"/>
			<stop  offset="0.782" style="stop-color:#C5CACC"/>
			<stop  offset="1" style="stop-color:#BABDC0"/>
		</linearGradient>
		<path fill="url(#SVGID_6_)" d="M85.003,98.539V85.264v-7.203l-0.022-0.689c0.002-0.229-0.033-0.438-0.055-0.653l-0.033-0.321
			c-0.015-0.104-0.039-0.205-0.058-0.308c-0.043-0.204-0.063-0.417-0.128-0.606c-0.197-0.791-0.498-1.51-0.907-2.164
			c-0.407-0.654-0.929-1.252-1.557-1.797c-0.63-0.539-1.356-1.033-2.183-1.442c-0.82-0.412-1.713-0.767-2.65-1.034
			c-0.467-0.137-0.943-0.255-1.419-0.35c-0.237-0.049-0.474-0.09-0.706-0.127l-0.338-0.049l-0.152-0.018H42.172v-8.047h32.836h0.184
			l0.113,0.011l0.364,0.034l0.292,0.035l0.557,0.078c0.359,0.057,0.713,0.121,1.063,0.191c0.702,0.141,1.392,0.313,2.075,0.51
			c1.371,0.396,2.724,0.92,4.048,1.586c1.323,0.664,2.61,1.506,3.801,2.531c1.188,1.022,2.269,2.25,3.129,3.633
			c0.863,1.383,1.492,2.908,1.875,4.444c0.114,0.386,0.173,0.769,0.247,1.154c0.035,0.192,0.075,0.386,0.104,0.575l0.064,0.574
			c0.04,0.381,0.09,0.768,0.096,1.141l0.02,0.564l0.009,0.282c0.004,0.093,0.007,0.193,0.005,0.261v7.203v13.275H85.003
			L85.003,98.539z M42.409,77.564L25.342,64.98l-0.082-1.858l17.172-12.81l1.602,1.166v25.028L42.409,77.564L42.409,77.564z
			 M42.976,52.267c-0.598,0-1.081-0.484-1.081-1.08s0.483-1.079,1.081-1.079c0.596,0,1.079,0.483,1.079,1.079
			S43.572,52.267,42.976,52.267L42.976,52.267z M42.976,77.796c-0.598,0-1.081-0.483-1.081-1.079c0-0.598,0.483-1.078,1.081-1.078
			c0.596,0,1.079,0.48,1.079,1.078C44.055,77.313,43.572,77.796,42.976,77.796L42.976,77.796z M25.838,65.098
			c-0.596,0-1.079-0.482-1.079-1.078c0-0.597,0.483-1.08,1.079-1.08c0.598,0,1.081,0.483,1.081,1.08
			C26.919,64.615,26.436,65.098,25.838,65.098L25.838,65.098z"/>
	</g>
</g>
<g id="orange">
	<path fill="#7B7B7B" d="M109.99,73.471c-3.313,0-5.999,2.686-5.999,6v25.03h-39v-25.03c0-3.314-2.687-6-6-6h-42v-49h42
		c3.313,0,6-2.687,6-6.001v-2.969h39v2.969c0,3.314,2.687,6.001,5.999,6.001H113v49H109.99L109.99,73.471z"/>
	
		<radialGradient id="SVGID_7_" cx="302.6006" cy="-299.9014" r="46.2826" gradientTransform="matrix(1 0 0 -1 -237.5996 -239.9004)" gradientUnits="userSpaceOnUse">
		<stop  offset="0.14" style="stop-color:#AEAEAE"/>
		<stop  offset="0.96" style="stop-color:#CBCBCB"/>
	</radialGradient>
	<path fill="url(#SVGID_7_)" d="M66.991,104.501c0-3.431,0-25.03,0-25.03c0-4.412-3.589-8-8.001-8c0,0-41.966,0-41.989,0
		c0-4.076,0-40.924,0-45c0.023,0,41.989,0,41.989,0c4.412,0,8.001-3.589,8.001-8.001c0,0,0-1.54,0-2.969c3.405,0,31.594,0,35,0
		c0,1.429,0,2.969,0,2.969c0,4.412,3.589,8.001,7.999,8.001c0,0,1.566,0,3.01,0c0,3.524,0,41.476,0,45c-1.443,0-3.01,0-3.01,0
		c-4.41,0-7.999,3.588-7.999,8c0,0,0,21.6,0,25.03C98.585,104.501,70.396,104.501,66.991,104.501"/>
	<rect x="8" y="47.468" fill="none" width="8.979" height="15.999"/>
	<path fill="#4E4E4E" d="M17.014,57.467v-3.999h49.987c1.103,0,1.999,0.896,1.999,2c0,1.103-0.896,1.999-1.999,1.999H17.014"/>
	<path fill="#FFFFFF" d="M67.001,56.467H17.014v-2h49.987c0.552,0,0.999,0.448,0.999,1C68,56.019,67.553,56.467,67.001,56.467
		L67.001,56.467z"/>
	<path fill-opacity="0.1" d="M87.003,102.539c-1.104,0-2-0.895-2-2V87.264c0,0,0-7.154,0-7.188
		c-0.004-0.084-0.021-0.641-0.021-0.641c-0.002-0.021-0.002-0.043-0.002-0.065v-0.015c0-0.045-0.012-0.142-0.021-0.235l-0.021-0.208
		v0.013c0,0-0.019-0.181-0.025-0.261c-0.004-0.018-0.01-0.048-0.01-0.048s-0.012-0.062-0.022-0.115c0,0.001,0,0.003,0,0.003
		s-0.005-0.023-0.007-0.029c0,0.002,0.004,0.008,0.004,0.01c-0.002-0.006-0.002-0.01-0.004-0.016
		c-0.001-0.005-0.003-0.015-0.005-0.021v-0.002c0-0.004-0.001-0.006-0.001-0.01v-0.004v0.002c-0.016-0.08-0.04-0.215-0.04-0.215
		l-0.026-0.138c0,0,0.004,0.01,0.008,0.021c-0.013-0.041-0.033-0.11-0.041-0.138c-0.146-0.589-0.363-1.106-0.662-1.588
		c-0.297-0.478-0.69-0.931-1.17-1.347l0.008,0.009c-0.532-0.458-1.129-0.853-1.771-1.171c-0.743-0.373-1.519-0.676-2.312-0.903
		c-0.43-0.124-0.85-0.229-1.258-0.31c-0.008-0.002-0.578-0.104-0.625-0.111c-0.037-0.005-0.185-0.027-0.256-0.037
		c0,0-0.025-0.003-0.041-0.005c-0.215,0-25.163,0-28.646,0c0,2.192,0,5.623,0,5.845c0.016,0.123,0.022,0.248,0.022,0.371
		c0,1.697-1.382,3.08-3.08,3.08c-0.879,0-1.709-0.375-2.289-1.018c-0.399-0.293-16.356-12.059-16.473-12.146
		c-0.903-0.559-1.456-1.541-1.456-2.615c0-1.088,0.564-2.074,1.483-2.633c1.232-0.918,14.473-10.796,16.467-12.282
		c0.58-0.629,1.401-0.996,2.268-0.996c1.697,0,3.08,1.382,3.08,3.08c0,0.124-0.008,0.247-0.022,0.369c0,0.118,0,4.508,0,6.897
		c3.501,0,28.976,0,28.976,0h0.182c0.065,0,0.132,0.003,0.197,0.01l0.113,0.011l-0.013-0.001l0.364,0.033
		c0.019,0.004,0.037,0.006,0.057,0.008l0.292,0.034c0.013,0.001,0.024,0.003,0.04,0.005l0.556,0.078
		c0.009,0.002,0.019,0.004,0.027,0.006c0.376,0.059,0.753,0.125,1.151,0.205c0.739,0.149,1.474,0.329,2.238,0.553
		c1.499,0.431,2.977,1.008,4.389,1.717c1.514,0.761,2.931,1.703,4.207,2.804c1.396,1.203,2.582,2.58,3.522,4.095
		c0.94,1.504,1.671,3.231,2.112,4.994c0.104,0.372,0.17,0.719,0.226,1.025l0.05,0.25l0.002,0.023l0.027,0.143l0.088,0.511
		c0.006,0.039,0.003,0.019,0.008,0.058l0.065,0.572c0,0.005,0.002,0.014,0.002,0.02l0.021,0.188c0.037,0.343,0.08,0.729,0.086,1.134
		l-0.002-0.041l0.02,0.564l0.01,0.279c0,0.002,0,0.002,0,0.002v-0.02c0,0,0,0,0,0.002l0.008,0.307v0.039v7.203v13.275
		c0,1.105-0.896,2-2.002,2H87.003 M84.876,78.496c0-0.002,0-0.002,0-0.003C84.876,78.494,84.876,78.494,84.876,78.496
		 M84.811,78.118c-0.002-0.003-0.002-0.007-0.002-0.011C84.809,78.111,84.811,78.118,84.811,78.118"/>
	<path fill="#FFE035" d="M85.003,100.539c-1.104,0-2-0.895-2-2V85.264c0,0,0-7.154,0-7.188c-0.004-0.084-0.021-0.641-0.021-0.641
		c-0.002-0.021-0.002-0.043-0.002-0.065v-0.015c0-0.045-0.012-0.142-0.021-0.235l-0.021-0.208v0.013c0,0-0.019-0.181-0.025-0.261
		c-0.004-0.018-0.01-0.048-0.01-0.048s-0.012-0.062-0.022-0.115c0,0.001,0,0.003,0,0.003s-0.005-0.023-0.007-0.029
		c0,0.002,0.004,0.008,0.004,0.01c-0.002-0.006-0.002-0.01-0.004-0.016c-0.001-0.005-0.003-0.015-0.005-0.021v-0.002
		c0-0.004-0.001-0.006-0.001-0.01v-0.004v0.002c-0.016-0.08-0.04-0.215-0.04-0.215l-0.026-0.138c0,0,0.004,0.01,0.008,0.021
		c-0.013-0.041-0.033-0.11-0.041-0.138c-0.146-0.589-0.363-1.106-0.662-1.588c-0.297-0.478-0.69-0.931-1.17-1.347l0.008,0.009
		c-0.532-0.458-1.129-0.853-1.771-1.171c-0.743-0.373-1.519-0.676-2.312-0.903c-0.43-0.124-0.85-0.229-1.258-0.31
		c-0.008-0.002-0.578-0.104-0.625-0.111c-0.037-0.005-0.185-0.027-0.256-0.037c0,0-0.025-0.003-0.041-0.005
		c-0.215,0-25.163,0-28.646,0c0,2.192,0,5.623,0,5.845c0.016,0.123,0.022,0.248,0.022,0.371c0,1.697-1.382,3.08-3.08,3.08
		c-0.879,0-1.709-0.375-2.289-1.018c-0.399-0.293-16.356-12.059-16.473-12.146c-0.903-0.559-1.456-1.541-1.456-2.615
		c0-1.088,0.564-2.074,1.483-2.633c1.232-0.918,14.473-10.796,16.467-12.282c0.58-0.629,1.401-0.996,2.268-0.996
		c1.697,0,3.08,1.382,3.08,3.08c0,0.124-0.008,0.247-0.022,0.369c0,0.118,0,4.508,0,6.897c3.501,0,28.976,0,28.976,0h0.182
		c0.065,0,0.132,0.003,0.197,0.01l0.113,0.011l-0.013-0.001l0.364,0.033c0.019,0.003,0.037,0.005,0.057,0.007l0.292,0.035
		c0.013,0.001,0.024,0.003,0.04,0.005l0.556,0.078c0.009,0.002,0.019,0.003,0.027,0.005c0.376,0.06,0.753,0.126,1.151,0.207
		c0.739,0.149,1.474,0.329,2.238,0.551c1.499,0.431,2.977,1.009,4.389,1.717c1.514,0.761,2.931,1.703,4.207,2.804
		c1.396,1.203,2.582,2.58,3.522,4.095c0.94,1.504,1.671,3.231,2.112,4.994c0.104,0.372,0.17,0.719,0.226,1.025l0.05,0.25
		l0.002,0.023l0.027,0.143l0.088,0.511c0.006,0.039,0.003,0.019,0.008,0.058l0.065,0.572c0,0.005,0.002,0.014,0.002,0.02
		l0.021,0.188c0.037,0.343,0.08,0.729,0.086,1.134l-0.002-0.041l0.02,0.564l0.01,0.279c0,0.002,0,0.002,0,0.002v-0.02
		c0,0,0,0,0,0.002l0.008,0.307v0.039v7.203v13.275c0,1.105-0.896,2-2.002,2H85.003 M82.876,76.496c0-0.002,0-0.002,0-0.003
		C82.876,76.494,82.876,76.494,82.876,76.496 M82.811,76.118c-0.002-0.003-0.002-0.007-0.002-0.011
		C82.809,76.111,82.811,76.118,82.811,76.118"/>
	<g>
		
			<linearGradient id="SVGID_8_" gradientUnits="userSpaceOnUse" x1="296.5059" y1="-338.439" x2="296.5059" y2="-290.0083" gradientTransform="matrix(1 0 0 -1 -237.5996 -239.9004)">
			<stop  offset="0" style="stop-color:#FEDF34"/>
			<stop  offset="0.1758" style="stop-color:#FECD26"/>
			<stop  offset="0.4969" style="stop-color:#FFB211"/>
			<stop  offset="0.782" style="stop-color:#FFA204"/>
			<stop  offset="1" style="stop-color:#FF9C00"/>
		</linearGradient>
		<path fill="url(#SVGID_8_)" d="M85.003,98.539V85.264v-7.203l-0.022-0.689c0.002-0.229-0.033-0.438-0.055-0.653l-0.033-0.321
			c-0.015-0.104-0.039-0.205-0.058-0.308c-0.043-0.204-0.063-0.417-0.128-0.606c-0.197-0.791-0.498-1.51-0.907-2.164
			c-0.407-0.654-0.929-1.252-1.557-1.797c-0.63-0.539-1.356-1.033-2.183-1.442c-0.82-0.412-1.713-0.767-2.65-1.034
			c-0.467-0.137-0.943-0.255-1.419-0.35c-0.237-0.049-0.474-0.09-0.706-0.127l-0.338-0.049l-0.152-0.018H42.172v-8.047h32.836h0.184
			l0.113,0.011l0.364,0.034l0.292,0.035l0.557,0.078c0.359,0.057,0.713,0.121,1.063,0.191c0.702,0.141,1.392,0.313,2.075,0.51
			c1.371,0.396,2.724,0.92,4.048,1.586c1.323,0.664,2.61,1.506,3.801,2.531c1.188,1.022,2.269,2.25,3.129,3.633
			c0.863,1.383,1.492,2.908,1.875,4.444c0.114,0.386,0.173,0.769,0.247,1.154c0.035,0.192,0.075,0.386,0.104,0.575l0.064,0.574
			c0.04,0.381,0.09,0.768,0.096,1.141l0.02,0.564l0.009,0.282c0.004,0.093,0.007,0.193,0.005,0.261v7.203v13.275H85.003
			L85.003,98.539z M42.409,77.564L25.342,64.98l-0.082-1.858l17.172-12.81l1.602,1.166v25.028L42.409,77.564L42.409,77.564z
			 M42.976,52.267c-0.598,0-1.081-0.484-1.081-1.08s0.483-1.079,1.081-1.079c0.596,0,1.079,0.483,1.079,1.079
			S43.572,52.267,42.976,52.267L42.976,52.267z M42.976,77.796c-0.598,0-1.081-0.483-1.081-1.079c0-0.598,0.483-1.078,1.081-1.078
			c0.596,0,1.079,0.48,1.079,1.078C44.055,77.313,43.572,77.796,42.976,77.796L42.976,77.796z M25.838,65.098
			c-0.596,0-1.079-0.482-1.079-1.078c0-0.597,0.483-1.08,1.079-1.08c0.598,0,1.081,0.483,1.081,1.08
			C26.919,64.615,26.436,65.098,25.838,65.098L25.838,65.098z"/>
	</g>
</g>
<g id="red">
	<path fill="#7B7B7B" d="M109.99,73.471c-3.313,0-5.999,2.686-5.999,6v25.03h-39v-25.03c0-3.314-2.687-6-6-6h-42v-49h42
		c3.313,0,6-2.687,6-6.001v-2.969h39v2.969c0,3.314,2.687,6.001,5.999,6.001H113v49H109.99L109.99,73.471z"/>
	
		<radialGradient id="SVGID_9_" cx="302.6006" cy="-299.9014" r="46.2826" gradientTransform="matrix(1 0 0 -1 -237.5996 -239.9004)" gradientUnits="userSpaceOnUse">
		<stop  offset="0.14" style="stop-color:#AEAEAE"/>
		<stop  offset="0.96" style="stop-color:#CBCBCB"/>
	</radialGradient>
	<path fill="url(#SVGID_9_)" d="M66.991,104.501c0-3.431,0-25.03,0-25.03c0-4.412-3.589-8-8.001-8c0,0-41.966,0-41.989,0
		c0-4.076,0-40.924,0-45c0.023,0,41.989,0,41.989,0c4.412,0,8.001-3.589,8.001-8.001c0,0,0-1.54,0-2.969c3.405,0,31.594,0,35,0
		c0,1.429,0,2.969,0,2.969c0,4.412,3.589,8.001,7.999,8.001c0,0,1.566,0,3.01,0c0,3.524,0,41.476,0,45c-1.443,0-3.01,0-3.01,0
		c-4.41,0-7.999,3.588-7.999,8c0,0,0,21.6,0,25.03C98.585,104.501,70.396,104.501,66.991,104.501"/>
	<rect x="8" y="47.468" fill="none" width="8.979" height="15.999"/>
	<path fill="#4E4E4E" d="M17.014,57.467v-3.999h49.987c1.103,0,1.999,0.896,1.999,2c0,1.103-0.896,1.999-1.999,1.999H17.014"/>
	<path fill="#FFFFFF" d="M67.001,56.467H17.014v-2h49.987c0.552,0,0.999,0.448,0.999,1C68,56.019,67.553,56.467,67.001,56.467
		L67.001,56.467z"/>
	<path fill-opacity="0.1" d="M87.003,102.539c-1.104,0-2-0.895-2-2V87.264c0,0,0-7.154,0-7.188
		c-0.004-0.084-0.021-0.641-0.021-0.641c-0.002-0.021-0.002-0.043-0.002-0.065v-0.015c0-0.045-0.012-0.142-0.021-0.235l-0.021-0.208
		v0.013c0,0-0.019-0.181-0.025-0.261c-0.004-0.018-0.01-0.048-0.01-0.048s-0.012-0.062-0.022-0.115c0,0.001,0,0.003,0,0.003
		s-0.005-0.023-0.007-0.029c0,0.002,0.004,0.008,0.004,0.01c-0.002-0.006-0.002-0.01-0.004-0.016
		c-0.001-0.005-0.003-0.015-0.005-0.021v-0.002c0-0.004-0.001-0.006-0.001-0.01v-0.004v0.002c-0.016-0.08-0.04-0.215-0.04-0.215
		l-0.026-0.138c0,0,0.004,0.01,0.008,0.021c-0.013-0.041-0.033-0.11-0.041-0.138c-0.146-0.589-0.363-1.106-0.662-1.588
		c-0.297-0.478-0.69-0.931-1.17-1.347l0.008,0.009c-0.532-0.458-1.129-0.853-1.771-1.171c-0.743-0.373-1.519-0.676-2.312-0.903
		c-0.43-0.124-0.85-0.229-1.258-0.31c-0.008-0.002-0.578-0.104-0.625-0.111c-0.037-0.005-0.185-0.027-0.256-0.037
		c0,0-0.025-0.003-0.041-0.005c-0.215,0-25.163,0-28.646,0c0,2.192,0,5.623,0,5.845c0.016,0.123,0.022,0.248,0.022,0.371
		c0,1.697-1.382,3.08-3.08,3.08c-0.879,0-1.709-0.375-2.289-1.018c-0.399-0.293-16.356-12.059-16.473-12.146
		c-0.903-0.559-1.456-1.541-1.456-2.615c0-1.088,0.564-2.074,1.483-2.633c1.232-0.918,14.473-10.796,16.467-12.282
		c0.58-0.629,1.401-0.996,2.268-0.996c1.697,0,3.08,1.382,3.08,3.08c0,0.124-0.008,0.247-0.022,0.369c0,0.118,0,4.508,0,6.897
		c3.501,0,28.976,0,28.976,0h0.182c0.065,0,0.132,0.003,0.197,0.01l0.113,0.011l-0.013-0.001l0.364,0.033
		c0.019,0.004,0.037,0.006,0.057,0.008l0.292,0.034c0.013,0.001,0.024,0.003,0.04,0.005l0.556,0.078
		c0.009,0.002,0.019,0.004,0.027,0.006c0.376,0.059,0.753,0.125,1.151,0.205c0.739,0.149,1.474,0.329,2.238,0.553
		c1.499,0.431,2.977,1.008,4.389,1.717c1.514,0.761,2.931,1.703,4.207,2.804c1.396,1.203,2.582,2.58,3.522,4.095
		c0.94,1.504,1.671,3.231,2.112,4.994c0.104,0.372,0.17,0.719,0.226,1.025l0.05,0.25l0.002,0.023l0.027,0.143l0.088,0.511
		c0.006,0.039,0.003,0.019,0.008,0.058l0.065,0.572c0,0.005,0.002,0.014,0.002,0.02l0.021,0.188c0.037,0.343,0.08,0.729,0.086,1.134
		l-0.002-0.041l0.02,0.564l0.01,0.279c0,0.002,0,0.002,0,0.002v-0.02c0,0,0,0,0,0.002l0.008,0.307v0.039v7.203v13.275
		c0,1.105-0.896,2-2.002,2H87.003 M84.876,78.496c0-0.002,0-0.002,0-0.003C84.876,78.494,84.876,78.494,84.876,78.496
		 M84.811,78.118c-0.002-0.003-0.002-0.007-0.002-0.011C84.809,78.111,84.811,78.118,84.811,78.118"/>
	<path fill="#FC7E7E" d="M85.003,100.539c-1.104,0-2-0.895-2-2V85.264c0,0,0-7.154,0-7.188c-0.004-0.084-0.021-0.641-0.021-0.641
		c-0.002-0.021-0.002-0.043-0.002-0.065v-0.015c0-0.045-0.012-0.142-0.021-0.235l-0.021-0.208v0.013c0,0-0.019-0.181-0.025-0.261
		c-0.004-0.018-0.01-0.048-0.01-0.048s-0.012-0.062-0.022-0.115c0,0.001,0,0.003,0,0.003s-0.005-0.023-0.007-0.029
		c0,0.002,0.004,0.008,0.004,0.01c-0.002-0.006-0.002-0.01-0.004-0.016c-0.001-0.005-0.003-0.015-0.005-0.021v-0.002
		c0-0.004-0.001-0.006-0.001-0.01v-0.004v0.002c-0.016-0.08-0.04-0.215-0.04-0.215l-0.026-0.138c0,0,0.004,0.01,0.008,0.021
		c-0.013-0.041-0.033-0.11-0.041-0.138c-0.146-0.589-0.363-1.106-0.662-1.588c-0.297-0.478-0.69-0.931-1.17-1.347l0.008,0.009
		c-0.532-0.458-1.129-0.853-1.771-1.171c-0.743-0.373-1.519-0.676-2.312-0.903c-0.43-0.124-0.85-0.229-1.258-0.31
		c-0.008-0.002-0.578-0.104-0.625-0.111c-0.037-0.005-0.185-0.027-0.256-0.037c0,0-0.025-0.003-0.041-0.005
		c-0.215,0-25.163,0-28.646,0c0,2.192,0,5.623,0,5.845c0.016,0.123,0.022,0.248,0.022,0.371c0,1.697-1.382,3.08-3.08,3.08
		c-0.879,0-1.709-0.375-2.289-1.018c-0.399-0.293-16.356-12.059-16.473-12.146c-0.903-0.559-1.456-1.541-1.456-2.615
		c0-1.088,0.564-2.074,1.483-2.633c1.232-0.918,14.473-10.796,16.467-12.282c0.58-0.629,1.401-0.996,2.268-0.996
		c1.697,0,3.08,1.382,3.08,3.08c0,0.124-0.008,0.247-0.022,0.369c0,0.118,0,4.508,0,6.897c3.501,0,28.976,0,28.976,0h0.182
		c0.065,0,0.132,0.003,0.197,0.01l0.113,0.011l-0.013-0.001l0.364,0.033c0.019,0.003,0.037,0.005,0.057,0.007l0.292,0.035
		c0.013,0.001,0.024,0.003,0.04,0.005l0.556,0.078c0.009,0.002,0.019,0.003,0.027,0.005c0.376,0.06,0.753,0.126,1.151,0.207
		c0.739,0.149,1.474,0.329,2.238,0.551c1.499,0.431,2.977,1.009,4.389,1.717c1.514,0.761,2.931,1.703,4.207,2.804
		c1.396,1.203,2.582,2.58,3.522,4.095c0.94,1.504,1.671,3.231,2.112,4.994c0.104,0.372,0.17,0.719,0.226,1.025l0.05,0.25
		l0.002,0.023l0.027,0.143l0.088,0.511c0.006,0.039,0.003,0.019,0.008,0.058l0.065,0.572c0,0.005,0.002,0.014,0.002,0.02
		l0.021,0.188c0.037,0.343,0.08,0.729,0.086,1.134l-0.002-0.041l0.02,0.564l0.01,0.279c0,0.002,0,0.002,0,0.002v-0.02
		c0,0,0,0,0,0.002l0.008,0.307v0.039v7.203v13.275c0,1.105-0.896,2-2.002,2H85.003 M82.876,76.496c0-0.002,0-0.002,0-0.003
		C82.876,76.494,82.876,76.494,82.876,76.496 M82.811,76.118c-0.002-0.003-0.002-0.007-0.002-0.011
		C82.809,76.111,82.811,76.118,82.811,76.118"/>
	<g>
		
			<linearGradient id="SVGID_10_" gradientUnits="userSpaceOnUse" x1="296.5059" y1="-338.439" x2="296.5059" y2="-290.0083" gradientTransform="matrix(1 0 0 -1 -237.5996 -239.9004)">
			<stop  offset="0" style="stop-color:#FF0000"/>
			<stop  offset="0.1758" style="stop-color:#F60303"/>
			<stop  offset="0.4969" style="stop-color:#EC0404"/>
			<stop  offset="0.782" style="stop-color:#E30101"/>
			<stop  offset="1" style="stop-color:#D60202"/>
		</linearGradient>
		<path fill="url(#SVGID_10_)" d="M85.003,98.539V85.264v-7.203l-0.022-0.689c0.002-0.229-0.033-0.438-0.055-0.653l-0.033-0.321
			c-0.015-0.104-0.039-0.205-0.058-0.308c-0.043-0.204-0.063-0.417-0.128-0.606c-0.197-0.791-0.498-1.51-0.907-2.164
			c-0.407-0.654-0.929-1.252-1.557-1.797c-0.63-0.539-1.356-1.033-2.183-1.442c-0.82-0.412-1.713-0.767-2.65-1.034
			c-0.467-0.137-0.943-0.255-1.419-0.35c-0.237-0.049-0.474-0.09-0.706-0.127l-0.338-0.049l-0.152-0.018H42.172v-8.047h32.836h0.184
			l0.113,0.011l0.364,0.034l0.292,0.035l0.557,0.078c0.359,0.057,0.713,0.121,1.063,0.191c0.702,0.141,1.392,0.313,2.075,0.51
			c1.371,0.396,2.724,0.92,4.048,1.586c1.323,0.664,2.61,1.506,3.801,2.531c1.188,1.022,2.269,2.25,3.129,3.633
			c0.863,1.383,1.492,2.908,1.875,4.444c0.114,0.386,0.173,0.769,0.247,1.154c0.035,0.192,0.075,0.386,0.104,0.575l0.064,0.574
			c0.04,0.381,0.09,0.768,0.096,1.141l0.02,0.564l0.009,0.282c0.004,0.093,0.007,0.193,0.005,0.261v7.203v13.275H85.003
			L85.003,98.539z M42.409,77.564L25.342,64.98l-0.082-1.858l17.172-12.81l1.602,1.166v25.028L42.409,77.564L42.409,77.564z
			 M42.976,52.267c-0.598,0-1.081-0.484-1.081-1.08s0.483-1.079,1.081-1.079c0.596,0,1.079,0.483,1.079,1.079
			S43.572,52.267,42.976,52.267L42.976,52.267z M42.976,77.796c-0.598,0-1.081-0.483-1.081-1.079c0-0.598,0.483-1.078,1.081-1.078
			c0.596,0,1.079,0.48,1.079,1.078C44.055,77.313,43.572,77.796,42.976,77.796L42.976,77.796z M25.838,65.098
			c-0.596,0-1.079-0.482-1.079-1.078c0-0.597,0.483-1.08,1.079-1.08c0.598,0,1.081,0.483,1.081,1.08
			C26.919,64.615,26.436,65.098,25.838,65.098L25.838,65.098z"/>
	</g>
</g>
</svg>
