<?xml version="1.0" encoding="utf-8"?>
<!-- Generator: Adobe Illustrator 16.0.2, SVG Export Plug-In . SVG Version: 6.00 Build 0)  -->
<!DOCTYPE svg PUBLIC "-//W3C//DTD SVG 1.1//EN" "http://www.w3.org/Graphics/SVG/1.1/DTD/svg11.dtd">
<svg version="1.1" id="Layer_1" xmlns="http://www.w3.org/2000/svg" xmlns:xlink="http://www.w3.org/1999/xlink" x="0px" y="0px"
	 width="120px" height="120px" viewBox="0 0 120 120" enable-background="new 0 0 120 120" xml:space="preserve">
<g id="black_white">
	<path fill="#FFFFFF" d="M109.874,103.938H10.126c-1.312,0-2.375-1.063-2.375-2.375v-2.375c0-0.436,0.127-0.836,0.33-1.187
		c-0.203-0.351-0.33-0.753-0.33-1.188V65.938c0-1.312,1.063-2.375,2.375-2.375h42.749c1.312,0,2.375,1.063,2.375,2.375v30.875
		h54.624c1.312,0,2.375,1.063,2.375,2.375v2.375C112.249,102.874,111.186,103.938,109.874,103.938L109.874,103.938z M74.25,35.063
		h7.125v-19h9.5v19H98L86.126,46.938L74.25,35.063L74.25,35.063z M50.727,52.076L49.8,52.583v4.396c0,1.427-0.351,1.851-1.75,1.851
		h-3.139c-1.401,0-1.749-0.424-1.749-1.851v-4.398L19.87,52.583v4.396c0,1.427-0.351,1.851-1.749,1.851h-3.142
		c-1.398,0-1.749-0.424-1.749-1.851v-4.396l-0.927-0.508c-1.176-0.583-2.156-2.269-2.156-7.005c0-4.857,0.408-5.498,0.785-6.219
		c0.373-0.721,1.398-1.541,1.398-1.541l4.23-10.956h0.002c0.876-2.076,3.461-3.169,4.587-3.169h20.735
		c1.127,0,3.711,1.094,4.588,3.169l4.23,10.956c0,0,1.025,0.82,1.4,1.541c0.375,0.721,0.783,1.361,0.783,6.219
		C52.883,49.806,51.903,51.493,50.727,52.076L50.727,52.076z M17.584,40.926c-2.186,0-3.956,1.757-3.956,3.925
		c0,2.167,1.77,3.925,3.956,3.925c2.184,0,3.954-1.758,3.954-3.925C21.538,42.683,19.768,40.926,17.584,40.926L17.584,40.926z
		 M45.468,40.926c-2.184,0-3.956,1.757-3.956,3.925c0,2.167,1.771,3.925,3.956,3.925c2.184,0,3.954-1.758,3.954-3.925
		C49.424,42.683,47.652,40.926,45.468,40.926L45.468,40.926z"/>
</g>
<g id="blue">
	<path fill-opacity="0.1" d="M31.33,106.922c-8.949,0-16.229-7.279-16.229-16.229V31.164c0-8.948,7.28-16.228,16.229-16.228h59.527
		c8.949,0,16.229,7.28,16.229,16.228v59.529c0,8.947-7.28,16.229-16.229,16.229H31.33"/>
	<path fill="#70B7E0" d="M29.33,104.922c-8.949,0-16.229-7.279-16.229-16.229V29.164c0-8.948,7.28-16.228,16.229-16.228h59.527
		c8.949,0,16.229,7.28,16.229,16.228v59.529c0,8.947-7.28,16.229-16.229,16.229H29.33"/>
	<g>
		
			<linearGradient id="SVGID_1_" gradientUnits="userSpaceOnUse" x1="296.6943" y1="-341.8228" x2="296.6942" y2="-255.8354" gradientTransform="matrix(1 0 0 -1 -237.5996 -239.9004)">
			<stop  offset="0" style="stop-color:#48A2FB"/>
			<stop  offset="0.1758" style="stop-color:#059CF4"/>
			<stop  offset="0.4969" style="stop-color:#0398EF"/>
			<stop  offset="0.782" style="stop-color:#0293E7"/>
			<stop  offset="1" style="stop-color:#0189D8"/>
		</linearGradient>
		<path fill="url(#SVGID_1_)" d="M88.857,101.923H29.33c-7.306,0-13.23-5.923-13.23-13.229V29.164
			c0-7.306,5.924-13.229,13.23-13.229h59.527c7.308,0,13.23,5.922,13.23,13.229v59.529C102.089,96,96.165,101.923,88.857,101.923
			L88.857,101.923z"/>
	</g>
	<path fill="#70B7E0" d="M26.001,90.501V84.5h65.998v6.001H26.001L26.001,90.501z M26.001,90.501V72.499H59v18.002H26.001
		L26.001,90.501z M76.063,63.003L65.438,48.475h5.562V33.44h10.004v15.035h5.687L76.063,63.003L76.063,63.003z"/>
	<path fill="#FFFFFF" d="M28.001,88.5c0-2.766,0-11.234,0-14c3.302,0,25.696,0,28.999,0c0,2.777,0,10,0,10c0,1.104,0.896,2,2,2
		c0,0,27.469,0,30.999,0c0,0.889,0,1.111,0,2C86.355,88.5,31.645,88.5,28.001,88.5 M69.378,50.476c0.669,0,1.62,0,1.62,0
		c1.105,0,2.001-0.896,2.001-2c0,0,0-10.027,0-13.035c1.92,0,4.082,0,6.002,0c0,3.008,0,13.035,0,13.035c0,1.105,0.896,2,2.001,2
		c0,0,1.002,0,1.745,0c-2.287,3.126-4.961,6.784-6.685,9.14C74.339,57.259,71.665,53.602,69.378,50.476"/>
	<path fill="#70B7E0" d="M46.614,74.6c-1.105,0-2-0.896-2-2c0,0,0-0.425,0-0.685c-1.417,0-2.263,0-3.681,0c0,0.26,0,0.685,0,0.685
		c0,1.104-0.895,2-2,2h-3.438c-1.105,0-2-0.896-2-2c0,0,0-0.73,0-1.451c-0.19-0.198-0.589-0.611-0.589-0.611
		c-0.358-0.373-0.561-0.871-0.561-1.389v-1.149V67.23v-1.918c0-1.317,0.565-2.281,1.212-2.865c0.351-0.65,2.478-4.6,2.478-4.6
		c0.349-0.648,1.027-1.052,1.762-1.052h9.968c0.735,0,1.413,0.404,1.762,1.052c0,0,1.901,3.53,2.38,4.418
		c0.7,0.494,1.31,1.424,1.31,3.047v1.918v0.768v1.148c0,0.533-0.211,1.041-0.588,1.416c0,0-0.358,0.356-0.575,0.574
		c0,0.725,0,1.461,0,1.461c0,1.105-0.896,2-2,2h-3.44"/>
	<path fill="#FFFFFF" d="M50.446,69.915h-0.394V72.6h-3.438v-2.685h-7.681V72.6h-3.438v-2.685h-0.41l-0.74-0.769v-1.148V67.23
		v-1.918c0-1.148,0.767-1.533,0.767-1.533l2.684-4.984h9.968l2.684,4.984c0,0,0.767,0,0.767,1.533v1.918v0.768v1.148L50.446,69.915
		L50.446,69.915z M36.836,66.084c-0.322,0-0.584,0.256-0.584,0.572s0.263,0.572,0.584,0.572c0.324,0,0.586-0.256,0.586-0.572
		C37.423,66.34,37.16,66.084,36.836,66.084L36.836,66.084z M40.096,67.348h5.368c0.394,0,0.383-0.271,0.383-0.664
		c0-0.395,0.011-0.603-0.383-0.603h-5.368c-0.394,0-0.383,0.208-0.383,0.603C39.713,67.077,39.702,67.348,40.096,67.348
		L40.096,67.348z M46.614,61.096h-7.668l-0.767,2.684h9.202L46.614,61.096L46.614,61.096z M48.723,66.084
		c-0.324,0-0.584,0.256-0.584,0.572s0.261,0.572,0.584,0.572c0.323,0,0.586-0.256,0.586-0.572S49.046,66.084,48.723,66.084
		L48.723,66.084z"/>
	
		<linearGradient id="SVGID_2_" gradientUnits="userSpaceOnUse" x1="297.291" y1="-282.6055" x2="297.291" y2="-257.9302" gradientTransform="matrix(1 0 0 -1 -237.5996 -239.9004)">
		<stop  offset="0" style="stop-color:#FFFFFF;stop-opacity:0"/>
		<stop  offset="1" style="stop-color:#FFFFFF;stop-opacity:0.8"/>
	</linearGradient>
	<path fill="url(#SVGID_2_)" d="M36.279,34.888c-10.953-3.797-15.283-8.096-16.986-10.74c1.672-3.347,4.899-5.653,8.636-6.118
		c0.237,0,61.958,0,61.958,0l0.297,0.01c0,0,0.086,0.005,0.168,0.008c5.557,0.737,9.737,5.503,9.737,11.116c0,0,0,10.497,0,13.541
		C72.244,42.546,50.784,39.917,36.279,34.888"/>
</g>
<g id="green">
	<path fill-opacity="0.1" d="M31.33,106.922c-8.949,0-16.229-7.279-16.229-16.229V31.164c0-8.948,7.28-16.228,16.229-16.228h59.527
		c8.949,0,16.229,7.28,16.229,16.228v59.529c0,8.947-7.28,16.229-16.229,16.229H31.33"/>
	<path fill="#03FC30" d="M29.33,104.922c-8.949,0-16.229-7.279-16.229-16.229V29.164c0-8.948,7.28-16.228,16.229-16.228h59.527
		c8.949,0,16.229,7.28,16.229,16.228v59.529c0,8.947-7.28,16.229-16.229,16.229H29.33"/>
	<g>
		
			<linearGradient id="SVGID_3_" gradientUnits="userSpaceOnUse" x1="296.6943" y1="-341.8228" x2="296.6942" y2="-255.8354" gradientTransform="matrix(1 0 0 -1 -237.5996 -239.9004)">
			<stop  offset="0" style="stop-color:#00DF34"/>
			<stop  offset="0.1758" style="stop-color:#00CD26"/>
			<stop  offset="0.4969" style="stop-color:#00B211"/>
			<stop  offset="0.782" style="stop-color:#00A204"/>
			<stop  offset="1" style="stop-color:#009C00"/>
		</linearGradient>
		<path fill="url(#SVGID_3_)" d="M88.857,101.923H29.33c-7.306,0-13.23-5.923-13.23-13.229V29.164
			c0-7.306,5.924-13.229,13.23-13.229h59.527c7.308,0,13.23,5.922,13.23,13.229v59.529C102.089,96,96.165,101.923,88.857,101.923
			L88.857,101.923z"/>
	</g>
	<path fill="#03FC30" d="M26.001,90.501V84.5h65.998v6.001H26.001L26.001,90.501z M26.001,90.501V72.499H59v18.002H26.001
		L26.001,90.501z M76.063,63.003L65.438,48.475h5.562V33.44h10.004v15.035h5.687L76.063,63.003L76.063,63.003z"/>
	<path fill="#FFFFFF" d="M28.001,88.5c0-2.766,0-11.234,0-14c3.302,0,25.696,0,28.999,0c0,2.777,0,10,0,10c0,1.104,0.896,2,2,2
		c0,0,27.469,0,30.999,0c0,0.889,0,1.111,0,2C86.355,88.5,31.645,88.5,28.001,88.5 M69.378,50.476c0.669,0,1.62,0,1.62,0
		c1.105,0,2.001-0.896,2.001-2c0,0,0-10.027,0-13.035c1.92,0,4.082,0,6.002,0c0,3.008,0,13.035,0,13.035c0,1.105,0.896,2,2.001,2
		c0,0,1.002,0,1.745,0c-2.287,3.126-4.961,6.784-6.685,9.14C74.339,57.259,71.665,53.602,69.378,50.476"/>
	<path fill="#03FC30" d="M46.614,74.6c-1.105,0-2-0.896-2-2c0,0,0-0.425,0-0.685c-1.417,0-2.263,0-3.681,0c0,0.26,0,0.685,0,0.685
		c0,1.104-0.895,2-2,2h-3.438c-1.105,0-2-0.896-2-2c0,0,0-0.73,0-1.451c-0.19-0.198-0.589-0.611-0.589-0.611
		c-0.358-0.373-0.561-0.871-0.561-1.389v-1.149V67.23v-1.918c0-1.317,0.565-2.281,1.212-2.865c0.351-0.65,2.478-4.6,2.478-4.6
		c0.349-0.648,1.027-1.052,1.762-1.052h9.968c0.735,0,1.413,0.404,1.762,1.052c0,0,1.901,3.53,2.38,4.418
		c0.7,0.494,1.31,1.424,1.31,3.047v1.918v0.768v1.148c0,0.533-0.211,1.041-0.588,1.416c0,0-0.358,0.356-0.575,0.574
		c0,0.725,0,1.461,0,1.461c0,1.105-0.896,2-2,2h-3.44"/>
	<path fill="#FFFFFF" d="M50.446,69.915h-0.394V72.6h-3.438v-2.685h-7.681V72.6h-3.438v-2.685h-0.41l-0.74-0.769v-1.148V67.23
		v-1.918c0-1.148,0.767-1.533,0.767-1.533l2.684-4.984h9.968l2.684,4.984c0,0,0.767,0,0.767,1.533v1.918v0.768v1.148L50.446,69.915
		L50.446,69.915z M36.836,66.084c-0.322,0-0.584,0.256-0.584,0.572s0.263,0.572,0.584,0.572c0.324,0,0.586-0.256,0.586-0.572
		C37.423,66.34,37.16,66.084,36.836,66.084L36.836,66.084z M40.096,67.348h5.368c0.394,0,0.383-0.271,0.383-0.664
		c0-0.395,0.011-0.603-0.383-0.603h-5.368c-0.394,0-0.383,0.208-0.383,0.603C39.713,67.077,39.702,67.348,40.096,67.348
		L40.096,67.348z M46.614,61.096h-7.668l-0.767,2.684h9.202L46.614,61.096L46.614,61.096z M48.723,66.084
		c-0.324,0-0.584,0.256-0.584,0.572s0.261,0.572,0.584,0.572c0.323,0,0.586-0.256,0.586-0.572S49.046,66.084,48.723,66.084
		L48.723,66.084z"/>
	
		<linearGradient id="SVGID_4_" gradientUnits="userSpaceOnUse" x1="297.291" y1="-282.6055" x2="297.291" y2="-257.9302" gradientTransform="matrix(1 0 0 -1 -237.5996 -239.9004)">
		<stop  offset="0" style="stop-color:#FFFFFF;stop-opacity:0"/>
		<stop  offset="1" style="stop-color:#FFFFFF;stop-opacity:0.8"/>
	</linearGradient>
	<path fill="url(#SVGID_4_)" d="M36.279,34.888c-10.953-3.797-15.283-8.096-16.986-10.74c1.672-3.347,4.899-5.653,8.636-6.118
		c0.237,0,61.958,0,61.958,0l0.297,0.01c0,0,0.086,0.005,0.168,0.008c5.557,0.737,9.737,5.503,9.737,11.116c0,0,0,10.497,0,13.541
		C72.244,42.546,50.784,39.917,36.279,34.888"/>
</g>
<g id="kia">
	<path fill-opacity="0.1" d="M31.33,106.922c-8.949,0-16.229-7.279-16.229-16.229V31.164c0-8.948,7.28-16.228,16.229-16.228h59.527
		c8.949,0,16.229,7.28,16.229,16.228v59.529c0,8.947-7.28,16.229-16.229,16.229H31.33"/>
	<path fill="#eeb422" d="M29.33,104.922c-8.949,0-16.229-7.279-16.229-16.229V29.164c0-8.948,7.28-16.228,16.229-16.228h59.527
		c8.949,0,16.229,7.28,16.229,16.228v59.529c0,8.947-7.28,16.229-16.229,16.229H29.33"/>
	<g>
		
			<linearGradient id="SVGID_5_" gradientUnits="userSpaceOnUse" x1="296.6943" y1="-341.8228" x2="296.6942" y2="-255.8354" gradientTransform="matrix(1 0 0 -1 -237.5996 -239.9004)">
			<stop  offset="0" style="stop-color:#FFFFFF"/>
			<stop  offset="0.1758" style="stop-color:#E7E9EA"/>
			<stop  offset="0.4969" style="stop-color:#CDD2D5"/>
			<stop  offset="0.782" style="stop-color:#C5CACC"/>
			<stop  offset="1" style="stop-color:#BABDC0"/>
		</linearGradient>
		<path fill="url(#SVGID_5_)" d="M88.857,101.923H29.33c-7.306,0-13.23-5.923-13.23-13.229V29.164
			c0-7.306,5.924-13.229,13.23-13.229h59.527c7.308,0,13.23,5.922,13.23,13.229v59.529C102.089,96,96.165,101.923,88.857,101.923
			L88.857,101.923z"/>
	</g>
	<path fill="#eeb422" d="M26.001,90.501V84.5h65.998v6.001H26.001L26.001,90.501z M26.001,90.501V72.499H59v18.002H26.001
		L26.001,90.501z M76.063,63.003L65.438,48.475h5.562V33.44h10.004v15.035h5.687L76.063,63.003L76.063,63.003z"/>
	<path fill="#FFFFFF" d="M28.001,88.5c0-2.766,0-11.234,0-14c3.302,0,25.696,0,28.999,0c0,2.777,0,10,0,10c0,1.104,0.896,2,2,2
		c0,0,27.469,0,30.999,0c0,0.889,0,1.111,0,2C86.355,88.5,31.645,88.5,28.001,88.5 M69.378,50.476c0.669,0,1.62,0,1.62,0
		c1.105,0,2.001-0.896,2.001-2c0,0,0-10.027,0-13.035c1.92,0,4.082,0,6.002,0c0,3.008,0,13.035,0,13.035c0,1.105,0.896,2,2.001,2
		c0,0,1.002,0,1.745,0c-2.287,3.126-4.961,6.784-6.685,9.14C74.339,57.259,71.665,53.602,69.378,50.476"/>
	<path fill="#eeb422" d="M46.614,74.6c-1.105,0-2-0.896-2-2c0,0,0-0.425,0-0.685c-1.417,0-2.263,0-3.681,0c0,0.26,0,0.685,0,0.685
		c0,1.104-0.895,2-2,2h-3.438c-1.105,0-2-0.896-2-2c0,0,0-0.73,0-1.451c-0.19-0.198-0.589-0.611-0.589-0.611
		c-0.358-0.373-0.561-0.871-0.561-1.389v-1.149V67.23v-1.918c0-1.317,0.565-2.281,1.212-2.865c0.351-0.65,2.478-4.6,2.478-4.6
		c0.349-0.648,1.027-1.052,1.762-1.052h9.968c0.735,0,1.413,0.404,1.762,1.052c0,0,1.901,3.53,2.38,4.418
		c0.7,0.494,1.31,1.424,1.31,3.047v1.918v0.768v1.148c0,0.533-0.211,1.041-0.588,1.416c0,0-0.358,0.356-0.575,0.574
		c0,0.725,0,1.461,0,1.461c0,1.105-0.896,2-2,2h-3.44"/>
	<path fill="#FFFFFF" d="M50.446,69.915h-0.394V72.6h-3.438v-2.685h-7.681V72.6h-3.438v-2.685h-0.41l-0.74-0.769v-1.148V67.23
		v-1.918c0-1.148,0.767-1.533,0.767-1.533l2.684-4.984h9.968l2.684,4.984c0,0,0.767,0,0.767,1.533v1.918v0.768v1.148L50.446,69.915
		L50.446,69.915z M36.836,66.084c-0.322,0-0.584,0.256-0.584,0.572s0.263,0.572,0.584,0.572c0.324,0,0.586-0.256,0.586-0.572
		C37.423,66.34,37.16,66.084,36.836,66.084L36.836,66.084z M40.096,67.348h5.368c0.394,0,0.383-0.271,0.383-0.664
		c0-0.395,0.011-0.603-0.383-0.603h-5.368c-0.394,0-0.383,0.208-0.383,0.603C39.713,67.077,39.702,67.348,40.096,67.348
		L40.096,67.348z M46.614,61.096h-7.668l-0.767,2.684h9.202L46.614,61.096L46.614,61.096z M48.723,66.084
		c-0.324,0-0.584,0.256-0.584,0.572s0.261,0.572,0.584,0.572c0.323,0,0.586-0.256,0.586-0.572S49.046,66.084,48.723,66.084
		L48.723,66.084z"/>
	
		<linearGradient id="SVGID_6_" gradientUnits="userSpaceOnUse" x1="297.291" y1="-282.6055" x2="297.291" y2="-257.9302" gradientTransform="matrix(1 0 0 -1 -237.5996 -239.9004)">
		<stop  offset="0" style="stop-color:#FFFFFF;stop-opacity:0"/>
		<stop  offset="1" style="stop-color:#FFFFFF;stop-opacity:0.8"/>
	</linearGradient>
	<path fill="url(#SVGID_6_)" d="M36.279,34.888c-10.953-3.797-15.283-8.096-16.986-10.74c1.672-3.347,4.899-5.653,8.636-6.118
		c0.237,0,61.958,0,61.958,0l0.297,0.01c0,0,0.086,0.005,0.168,0.008c5.557,0.737,9.737,5.503,9.737,11.116c0,0,0,10.497,0,13.541
		C72.244,42.546,50.784,39.917,36.279,34.888"/>
</g>
<g id="orange">
	<path fill-opacity="0.1" d="M31.33,106.922c-8.949,0-16.229-7.279-16.229-16.229V31.164c0-8.948,7.28-16.228,16.229-16.228h59.527
		c8.949,0,16.229,7.28,16.229,16.228v59.529c0,8.947-7.28,16.229-16.229,16.229H31.33"/>
	<path fill="#FFE035" d="M29.33,104.922c-8.949,0-16.229-7.279-16.229-16.229V29.164c0-8.948,7.28-16.228,16.229-16.228h59.527
		c8.949,0,16.229,7.28,16.229,16.228v59.529c0,8.947-7.28,16.229-16.229,16.229H29.33"/>
	<g>
		
			<linearGradient id="SVGID_7_" gradientUnits="userSpaceOnUse" x1="296.6943" y1="-341.8228" x2="296.6942" y2="-255.8354" gradientTransform="matrix(1 0 0 -1 -237.5996 -239.9004)">
			<stop  offset="0" style="stop-color:#FEDF34"/>
			<stop  offset="0.1758" style="stop-color:#FECD26"/>
			<stop  offset="0.4969" style="stop-color:#FFB211"/>
			<stop  offset="0.782" style="stop-color:#FFA204"/>
			<stop  offset="1" style="stop-color:#FF9C00"/>
		</linearGradient>
		<path fill="url(#SVGID_7_)" d="M88.857,101.923H29.33c-7.306,0-13.23-5.923-13.23-13.229V29.164
			c0-7.306,5.924-13.229,13.23-13.229h59.527c7.308,0,13.23,5.922,13.23,13.229v59.529C102.089,96,96.165,101.923,88.857,101.923
			L88.857,101.923z"/>
	</g>
	<path fill="#FFE035" d="M26.001,90.501V84.5h65.998v6.001H26.001L26.001,90.501z M26.001,90.501V72.499H59v18.002H26.001
		L26.001,90.501z M76.063,63.003L65.438,48.475h5.562V33.44h10.004v15.035h5.687L76.063,63.003L76.063,63.003z"/>
	<path fill="#FFFFFF" d="M28.001,88.5c0-2.766,0-11.234,0-14c3.302,0,25.696,0,28.999,0c0,2.777,0,10,0,10c0,1.104,0.896,2,2,2
		c0,0,27.469,0,30.999,0c0,0.889,0,1.111,0,2C86.355,88.5,31.645,88.5,28.001,88.5 M69.378,50.476c0.669,0,1.62,0,1.62,0
		c1.105,0,2.001-0.896,2.001-2c0,0,0-10.027,0-13.035c1.92,0,4.082,0,6.002,0c0,3.008,0,13.035,0,13.035c0,1.105,0.896,2,2.001,2
		c0,0,1.002,0,1.745,0c-2.287,3.126-4.961,6.784-6.685,9.14C74.339,57.259,71.665,53.602,69.378,50.476"/>
	<path fill="#FFE035" d="M46.614,74.6c-1.105,0-2-0.896-2-2c0,0,0-0.425,0-0.685c-1.417,0-2.263,0-3.681,0c0,0.26,0,0.685,0,0.685
		c0,1.104-0.895,2-2,2h-3.438c-1.105,0-2-0.896-2-2c0,0,0-0.73,0-1.451c-0.19-0.198-0.589-0.611-0.589-0.611
		c-0.358-0.373-0.561-0.871-0.561-1.389v-1.149V67.23v-1.918c0-1.317,0.565-2.281,1.212-2.865c0.351-0.65,2.478-4.6,2.478-4.6
		c0.349-0.648,1.027-1.052,1.762-1.052h9.968c0.735,0,1.413,0.404,1.762,1.052c0,0,1.901,3.53,2.38,4.418
		c0.7,0.494,1.31,1.424,1.31,3.047v1.918v0.768v1.148c0,0.533-0.211,1.041-0.588,1.416c0,0-0.358,0.356-0.575,0.574
		c0,0.725,0,1.461,0,1.461c0,1.105-0.896,2-2,2h-3.44"/>
	<path fill="#FFFFFF" d="M50.446,69.915h-0.394V72.6h-3.438v-2.685h-7.681V72.6h-3.438v-2.685h-0.41l-0.74-0.769v-1.148V67.23
		v-1.918c0-1.148,0.767-1.533,0.767-1.533l2.684-4.984h9.968l2.684,4.984c0,0,0.767,0,0.767,1.533v1.918v0.768v1.148L50.446,69.915
		L50.446,69.915z M36.836,66.084c-0.322,0-0.584,0.256-0.584,0.572s0.263,0.572,0.584,0.572c0.324,0,0.586-0.256,0.586-0.572
		C37.423,66.34,37.16,66.084,36.836,66.084L36.836,66.084z M40.096,67.348h5.368c0.394,0,0.383-0.271,0.383-0.664
		c0-0.395,0.011-0.603-0.383-0.603h-5.368c-0.394,0-0.383,0.208-0.383,0.603C39.713,67.077,39.702,67.348,40.096,67.348
		L40.096,67.348z M46.614,61.096h-7.668l-0.767,2.684h9.202L46.614,61.096L46.614,61.096z M48.723,66.084
		c-0.324,0-0.584,0.256-0.584,0.572s0.261,0.572,0.584,0.572c0.323,0,0.586-0.256,0.586-0.572S49.046,66.084,48.723,66.084
		L48.723,66.084z"/>
	
		<linearGradient id="SVGID_8_" gradientUnits="userSpaceOnUse" x1="297.291" y1="-282.6055" x2="297.291" y2="-257.9302" gradientTransform="matrix(1 0 0 -1 -237.5996 -239.9004)">
		<stop  offset="0" style="stop-color:#FFFFFF;stop-opacity:0"/>
		<stop  offset="1" style="stop-color:#FFFFFF;stop-opacity:0.8"/>
	</linearGradient>
	<path fill="url(#SVGID_8_)" d="M36.279,34.888c-10.953-3.797-15.283-8.096-16.986-10.74c1.672-3.347,4.899-5.653,8.636-6.118
		c0.237,0,61.958,0,61.958,0l0.297,0.01c0,0,0.086,0.005,0.168,0.008c5.557,0.737,9.737,5.503,9.737,11.116c0,0,0,10.497,0,13.541
		C72.244,42.546,50.784,39.917,36.279,34.888"/>
</g>
<g id="red">
	<path fill-opacity="0.1" d="M31.33,106.922c-8.949,0-16.229-7.279-16.229-16.229V31.164c0-8.948,7.28-16.228,16.229-16.228h59.527
		c8.949,0,16.229,7.28,16.229,16.228v59.529c0,8.947-7.28,16.229-16.229,16.229H31.33"/>
	<path fill="#FC7E7E" d="M29.33,104.922c-8.949,0-16.229-7.279-16.229-16.229V29.164c0-8.948,7.28-16.228,16.229-16.228h59.527
		c8.949,0,16.229,7.28,16.229,16.228v59.529c0,8.947-7.28,16.229-16.229,16.229H29.33"/>
	<g>
		
			<linearGradient id="SVGID_9_" gradientUnits="userSpaceOnUse" x1="296.6943" y1="-341.8228" x2="296.6942" y2="-255.8354" gradientTransform="matrix(1 0 0 -1 -237.5996 -239.9004)">
			<stop  offset="0" style="stop-color:#FF0000"/>
			<stop  offset="0.1758" style="stop-color:#F60303"/>
			<stop  offset="0.4969" style="stop-color:#EC0404"/>
			<stop  offset="0.782" style="stop-color:#E30101"/>
			<stop  offset="1" style="stop-color:#D60202"/>
		</linearGradient>
		<path fill="url(#SVGID_9_)" d="M88.857,101.923H29.33c-7.306,0-13.23-5.923-13.23-13.229V29.164
			c0-7.306,5.924-13.229,13.23-13.229h59.527c7.308,0,13.23,5.922,13.23,13.229v59.529C102.089,96,96.165,101.923,88.857,101.923
			L88.857,101.923z"/>
	</g>
	<path fill="#FC7E7E" d="M26.001,90.501V84.5h65.998v6.001H26.001L26.001,90.501z M26.001,90.501V72.499H59v18.002H26.001
		L26.001,90.501z M76.063,63.003L65.438,48.475h5.562V33.44h10.004v15.035h5.687L76.063,63.003L76.063,63.003z"/>
	<path fill="#FFFFFF" d="M28.001,88.5c0-2.766,0-11.234,0-14c3.302,0,25.696,0,28.999,0c0,2.777,0,10,0,10c0,1.104,0.896,2,2,2
		c0,0,27.469,0,30.999,0c0,0.889,0,1.111,0,2C86.355,88.5,31.645,88.5,28.001,88.5 M69.378,50.476c0.669,0,1.62,0,1.62,0
		c1.105,0,2.001-0.896,2.001-2c0,0,0-10.027,0-13.035c1.92,0,4.082,0,6.002,0c0,3.008,0,13.035,0,13.035c0,1.105,0.896,2,2.001,2
		c0,0,1.002,0,1.745,0c-2.287,3.126-4.961,6.784-6.685,9.14C74.339,57.259,71.665,53.602,69.378,50.476"/>
	<path fill="#FC7E7E" d="M46.614,74.6c-1.105,0-2-0.896-2-2c0,0,0-0.425,0-0.685c-1.417,0-2.263,0-3.681,0c0,0.26,0,0.685,0,0.685
		c0,1.104-0.895,2-2,2h-3.438c-1.105,0-2-0.896-2-2c0,0,0-0.73,0-1.451c-0.19-0.198-0.589-0.611-0.589-0.611
		c-0.358-0.373-0.561-0.871-0.561-1.389v-1.149V67.23v-1.918c0-1.317,0.565-2.281,1.212-2.865c0.351-0.65,2.478-4.6,2.478-4.6
		c0.349-0.648,1.027-1.052,1.762-1.052h9.968c0.735,0,1.413,0.404,1.762,1.052c0,0,1.901,3.53,2.38,4.418
		c0.7,0.494,1.31,1.424,1.31,3.047v1.918v0.768v1.148c0,0.533-0.211,1.041-0.588,1.416c0,0-0.358,0.356-0.575,0.574
		c0,0.725,0,1.461,0,1.461c0,1.105-0.896,2-2,2h-3.44"/>
	<path fill="#FFFFFF" d="M50.446,69.915h-0.394V72.6h-3.438v-2.685h-7.681V72.6h-3.438v-2.685h-0.41l-0.74-0.769v-1.148V67.23
		v-1.918c0-1.148,0.767-1.533,0.767-1.533l2.684-4.984h9.968l2.684,4.984c0,0,0.767,0,0.767,1.533v1.918v0.768v1.148L50.446,69.915
		L50.446,69.915z M36.836,66.084c-0.322,0-0.584,0.256-0.584,0.572s0.263,0.572,0.584,0.572c0.324,0,0.586-0.256,0.586-0.572
		C37.423,66.34,37.16,66.084,36.836,66.084L36.836,66.084z M40.096,67.348h5.368c0.394,0,0.383-0.271,0.383-0.664
		c0-0.395,0.011-0.603-0.383-0.603h-5.368c-0.394,0-0.383,0.208-0.383,0.603C39.713,67.077,39.702,67.348,40.096,67.348
		L40.096,67.348z M46.614,61.096h-7.668l-0.767,2.684h9.202L46.614,61.096L46.614,61.096z M48.723,66.084
		c-0.324,0-0.584,0.256-0.584,0.572s0.261,0.572,0.584,0.572c0.323,0,0.586-0.256,0.586-0.572S49.046,66.084,48.723,66.084
		L48.723,66.084z"/>
	
		<linearGradient id="SVGID_10_" gradientUnits="userSpaceOnUse" x1="297.291" y1="-282.6055" x2="297.291" y2="-257.9302" gradientTransform="matrix(1 0 0 -1 -237.5996 -239.9004)">
		<stop  offset="0" style="stop-color:#FFFFFF;stop-opacity:0"/>
		<stop  offset="1" style="stop-color:#FFFFFF;stop-opacity:0.8"/>
	</linearGradient>
	<path fill="url(#SVGID_10_)" d="M36.279,34.888c-10.953-3.797-15.283-8.096-16.986-10.74c1.672-3.347,4.899-5.653,8.636-6.118
		c0.237,0,61.958,0,61.958,0l0.297,0.01c0,0,0.086,0.005,0.168,0.008c5.557,0.737,9.737,5.503,9.737,11.116c0,0,0,10.497,0,13.541
		C72.244,42.546,50.784,39.917,36.279,34.888"/>
</g>
</svg>
