<?xml version="1.0" encoding="utf-8"?>
<!-- Generator: Adobe Illustrator 16.0.0, SVG Export Plug-In . SVG Version: 6.00 Build 0)  -->
<!DOCTYPE svg PUBLIC "-//W3C//DTD SVG 1.1//EN" "http://www.w3.org/Graphics/SVG/1.1/DTD/svg11.dtd">
<svg version="1.1" id="Слой_1" xmlns="http://www.w3.org/2000/svg" xmlns:xlink="http://www.w3.org/1999/xlink" x="0px" y="0px"
	 width="222px" height="114px" viewBox="0 0 222 114" enable-background="new 0 0 222 114" xml:space="preserve">
<g id="on">
	<g>
		
			<linearGradient id="SVGID_1_" gradientUnits="userSpaceOnUse" x1="80.0249" y1="-2.4873" x2="80.0249" y2="68.5679" gradientTransform="matrix(1 0 0 -1 8.3398 90.04)">
			<stop  offset="0" style="stop-color:#eeb422"/>
			<stop  offset="0.1145" style="stop-color:#efbb38"/>
			<stop  offset="0.2225" style="stop-color:#f1c34e"/>
			<stop  offset="0.3278" style="stop-color:#f3ca64"/>
			<stop  offset="0.431" style="stop-color:#f4d27a"/>
			<stop  offset="0.5" style="stop-color:#f6d990"/>
			<stop  offset="0.5584" style="stop-color:#f8e1a6"/>
			<stop  offset="0.6652" style="stop-color:#f9e8bc"/>
			<stop  offset="0.8086" style="stop-color:#fbf0d2"/>
			<stop  offset="0.9813" style="stop-color:#f6d990"/>
			<stop  offset="1" style="stop-color:#eeb422"/>
		</linearGradient>
		<path fill="url(#SVGID_1_)" d="M176.73,87.064c0,3.021-2.446,5.463-5.463,5.463H5.467C2.447,92.527,0,90.085,0,87.064V26.935
			c0-3.016,2.447-5.463,5.467-5.463h165.801c3.017,0,5.463,2.447,5.463,5.463V87.064L176.73,87.064z"/>
		<g>
			<g>
				
					<linearGradient id="SVGID_2_" gradientUnits="userSpaceOnUse" x1="95.7139" y1="69.0781" x2="95.7139" y2="-2.7271" gradientTransform="matrix(1 0 0 -1 8.3398 90.04)">
					<stop  offset="0" style="stop-color:#000000"/>
					<stop  offset="0.1015" style="stop-color:#FFFFFF"/>
				</linearGradient>
				<path opacity="0.3" fill="url(#SVGID_2_)" enable-background="new    " d="M197.941,20.962H6.732
					c-2.16,0-3.911,1.751-3.911,3.911v63.984c0,2.16,1.751,3.91,3.911,3.91H201.37c2.153,0,3.916-1.762,3.916-3.916V28.305
					C205.285,24.258,201.988,20.962,197.941,20.962z M202.838,85.432c0,2.695-2.195,4.891-4.896,4.891H6.732
					c-0.809,0-1.464-0.656-1.464-1.465V24.878c0-0.812,0.658-1.469,1.469-1.469H201.37c0.812,0,1.469,0.658,1.469,1.469
					L202.838,85.432L202.838,85.432z"/>
				<g>
					<path fill-opacity="0.4" d="M2.448,88.786V28.233c0-2.163,1.753-3.916,3.916-3.916H201.57l0,0v-1.223
						c0-0.676-0.549-1.223-1.225-1.223H6.358C2.847,21.87,0,24.717,0,28.228v60.558"/>
					<path fill-opacity="0.3" d="M6.363,26.764h192.429c0.676,0,1.224-0.548,1.224-1.223l0,0c0-0.676-0.549-1.223-1.224-1.223H6.358
						c-2.16,0-3.911,1.751-3.911,3.911V90.01c0,0.676,0.548,1.223,1.223,1.223l0,0c0.676,0,1.223-0.547,1.223-1.223V28.233
						C4.894,27.425,5.555,26.764,6.363,26.764z"/>
					<path fill-opacity="0.2" d="M9.785,29.211h191.453c0.677,0,1.224-0.548,1.224-1.223l0,0c0-0.676-0.548-1.223-1.224-1.223H6.358
						c-0.809,0-1.464,0.656-1.464,1.464v64.227c0,0.676,0.548,1.224,1.223,1.224l0,0c0.676,0,1.223-0.549,1.223-1.224V31.66
						C7.34,30.312,8.437,29.211,9.785,29.211z"/>
					<path fill-opacity="0.1" d="M9.785,96.124l0.002-62.579c0-1.04,0.843-1.882,1.882-1.882l192.013-0.002
						c0.676,0,1.223-0.548,1.223-1.223l0,0c0-0.676-0.547-1.223-1.223-1.223H9.221c-1.04,0-1.882,0.843-1.882,1.882V96.13"/>
				</g>
			</g>
			<g>
				
					<linearGradient id="SVGID_3_" gradientUnits="userSpaceOnUse" x1="161.4619" y1="-1.9092" x2="161.4619" y2="67.7437" gradientTransform="matrix(1 0 0 -1 8.3398 90.04)">
					<stop  offset="0" style="stop-color:#707173"/>
					<stop  offset="0.6786" style="stop-color:#000000"/>
					<stop  offset="1" style="stop-color:#87888A"/>
				</linearGradient>
				<path fill="url(#SVGID_3_)" stroke="#FFFFFF" stroke-width="2.0983" stroke-miterlimit="10" d="M221,86.593
					c0,2.959-2.396,5.356-5.355,5.356h-91.682c-2.959,0-5.359-2.397-5.359-5.356V27.657c0-2.959,2.4-5.36,5.359-5.36h91.682
					c2.959,0,5.355,2.401,5.355,5.36V86.593z"/>
				<g opacity="0.6">
					<g>
						
							<linearGradient id="SVGID_4_" gradientUnits="userSpaceOnUse" x1="142.5586" y1="46.9565" x2="148.4334" y2="41.0816" gradientTransform="matrix(1 0 0 -1 8.3398 90.04)">
							<stop  offset="0.3571" style="stop-color:#1A171B"/>
							<stop  offset="1" style="stop-color:#FFFFFF"/>
						</linearGradient>
						<circle fill="url(#SVGID_4_)" cx="153.836" cy="46.021" r="4.154"/>
						
							<linearGradient id="SVGID_5_" gradientUnits="userSpaceOnUse" x1="153.0674" y1="46.9585" x2="158.9447" y2="41.0811" gradientTransform="matrix(1 0 0 -1 8.3398 90.04)">
							<stop  offset="0.3571" style="stop-color:#1A171B"/>
							<stop  offset="1" style="stop-color:#FFFFFF"/>
						</linearGradient>
						<circle fill="url(#SVGID_5_)" cx="164.346" cy="46.021" r="4.156"/>
						
							<linearGradient id="SVGID_6_" gradientUnits="userSpaceOnUse" x1="163.5791" y1="46.9565" x2="169.4518" y2="41.0839" gradientTransform="matrix(1 0 0 -1 8.3398 90.04)">
							<stop  offset="0.3571" style="stop-color:#1A171B"/>
							<stop  offset="1" style="stop-color:#FFFFFF"/>
						</linearGradient>
						<path fill="url(#SVGID_6_)" d="M179.01,46.021c0,2.291-1.861,4.152-4.156,4.152c-2.291,0-4.15-1.861-4.15-4.152
							c0-2.295,1.861-4.155,4.15-4.155C177.148,41.865,179.01,43.726,179.01,46.021z"/>
						
							<linearGradient id="SVGID_7_" gradientUnits="userSpaceOnUse" x1="174.0908" y1="46.957" x2="179.9652" y2="41.0825" gradientTransform="matrix(1 0 0 -1 8.3398 90.04)">
							<stop  offset="0.3571" style="stop-color:#1A171B"/>
							<stop  offset="1" style="stop-color:#FFFFFF"/>
						</linearGradient>
						<circle fill="url(#SVGID_7_)" cx="185.368" cy="46.021" r="4.154"/>
					</g>
					<g>
						
							<linearGradient id="SVGID_8_" gradientUnits="userSpaceOnUse" x1="142.5586" y1="36.6826" x2="148.4336" y2="30.8076" gradientTransform="matrix(1 0 0 -1 8.3398 90.04)">
							<stop  offset="0.3571" style="stop-color:#1A171B"/>
							<stop  offset="1" style="stop-color:#FFFFFF"/>
						</linearGradient>
						<circle fill="url(#SVGID_8_)" cx="153.836" cy="56.295" r="4.154"/>
						
							<linearGradient id="SVGID_9_" gradientUnits="userSpaceOnUse" x1="153.0674" y1="36.6836" x2="158.9448" y2="30.8062" gradientTransform="matrix(1 0 0 -1 8.3398 90.04)">
							<stop  offset="0.3571" style="stop-color:#1A171B"/>
							<stop  offset="1" style="stop-color:#FFFFFF"/>
						</linearGradient>
						<circle fill="url(#SVGID_9_)" cx="164.346" cy="56.295" r="4.156"/>
						
							<linearGradient id="SVGID_10_" gradientUnits="userSpaceOnUse" x1="163.5801" y1="36.6831" x2="169.4524" y2="30.8108" gradientTransform="matrix(1 0 0 -1 8.3398 90.04)">
							<stop  offset="0.3571" style="stop-color:#1A171B"/>
							<stop  offset="1" style="stop-color:#FFFFFF"/>
						</linearGradient>
						<path fill="url(#SVGID_10_)" d="M179.01,56.295c0,2.291-1.861,4.15-4.156,4.15c-2.291,0-4.15-1.86-4.15-4.15
							c0-2.295,1.861-4.155,4.15-4.155C177.148,52.14,179.01,54,179.01,56.295z"/>
						
							<linearGradient id="SVGID_11_" gradientUnits="userSpaceOnUse" x1="174.0908" y1="36.6826" x2="179.9654" y2="30.8081" gradientTransform="matrix(1 0 0 -1 8.3398 90.04)">
							<stop  offset="0.3571" style="stop-color:#1A171B"/>
							<stop  offset="1" style="stop-color:#FFFFFF"/>
						</linearGradient>
						<circle fill="url(#SVGID_11_)" cx="185.368" cy="56.295" r="4.154"/>
					</g>
					<g>
						
							<linearGradient id="SVGID_12_" gradientUnits="userSpaceOnUse" x1="142.5586" y1="26.627" x2="148.4322" y2="20.7534" gradientTransform="matrix(1 0 0 -1 8.3398 90.04)">
							<stop  offset="0.3571" style="stop-color:#1A171B"/>
							<stop  offset="1" style="stop-color:#FFFFFF"/>
						</linearGradient>
						<path fill="url(#SVGID_12_)" d="M157.99,66.348c0,2.295-1.861,4.156-4.155,4.156c-2.295,0-4.151-1.861-4.151-4.156
							c0-2.291,1.856-4.15,4.151-4.15C156.129,62.197,157.99,64.057,157.99,66.348z"/>
						
							<linearGradient id="SVGID_13_" gradientUnits="userSpaceOnUse" x1="153.0684" y1="26.627" x2="158.9429" y2="20.7524" gradientTransform="matrix(1 0 0 -1 8.3398 90.04)">
							<stop  offset="0.3571" style="stop-color:#1A171B"/>
							<stop  offset="1" style="stop-color:#FFFFFF"/>
						</linearGradient>
						<path fill="url(#SVGID_13_)" d="M168.502,66.348c0,2.295-1.861,4.156-4.156,4.156s-4.154-1.861-4.154-4.156
							c0-2.291,1.86-4.15,4.154-4.15C166.641,62.197,168.502,64.057,168.502,66.348z"/>
						
							<linearGradient id="SVGID_14_" gradientUnits="userSpaceOnUse" x1="163.5801" y1="26.627" x2="169.4528" y2="20.7543" gradientTransform="matrix(1 0 0 -1 8.3398 90.04)">
							<stop  offset="0.3571" style="stop-color:#1A171B"/>
							<stop  offset="1" style="stop-color:#FFFFFF"/>
						</linearGradient>
						<path fill="url(#SVGID_14_)" d="M179.01,66.348c0,2.295-1.861,4.156-4.156,4.156c-2.291,0-4.15-1.861-4.15-4.156
							c0-2.291,1.861-4.15,4.15-4.15C177.148,62.197,179.01,64.057,179.01,66.348z"/>
						
							<linearGradient id="SVGID_15_" gradientUnits="userSpaceOnUse" x1="174.0898" y1="26.6274" x2="179.9638" y2="20.7535" gradientTransform="matrix(1 0 0 -1 8.3398 90.04)">
							<stop  offset="0.3571" style="stop-color:#1A171B"/>
							<stop  offset="1" style="stop-color:#FFFFFF"/>
						</linearGradient>
						<path fill="url(#SVGID_15_)" d="M189.521,66.348c0,2.295-1.86,4.156-4.155,4.156c-2.296,0-4.151-1.861-4.151-4.156
							c0-2.291,1.855-4.15,4.151-4.15C187.661,62.197,189.521,64.057,189.521,66.348z"/>
					</g>
				</g>
			</g>
		</g>
	</g>
</g>
<g id="disabled_on" opacity="0.2">
	<g>
		
			<linearGradient id="SVGID_16_" gradientUnits="userSpaceOnUse" x1="102.6597" y1="-2.4873" x2="102.6597" y2="68.5679" gradientTransform="matrix(1 0 0 -1 8.3398 90.04)">
			<stop  offset="0" style="stop-color:#eeb422"/>
			<stop  offset="0.5357" style="stop-color:#f1c34e"/>
			<stop  offset="1" style="stop-color:#eeb422"/>
		</linearGradient>
		<path fill="url(#SVGID_16_)" d="M222,87.064c0,3.021-2.447,5.463-5.463,5.463H5.467C2.447,92.527,0,90.085,0,87.064V26.935
			c0-3.016,2.447-5.463,5.467-5.463h211.07c3.016,0,5.463,2.447,5.463,5.463V87.064z"/>
		<g>
			<g>
				
					<linearGradient id="SVGID_17_" gradientUnits="userSpaceOnUse" x1="103.8481" y1="69.0781" x2="103.8481" y2="-2.7271" gradientTransform="matrix(1 0 0 -1 8.3398 90.04)">
					<stop  offset="0" style="stop-color:#000000"/>
					<stop  offset="0.1015" style="stop-color:#FFFFFF"/>
				</linearGradient>
				<path opacity="0.3" fill="url(#SVGID_17_)" enable-background="new    " d="M214.211,20.962H6.732
					c-2.16,0-3.911,1.751-3.911,3.911v63.984c0,2.16,1.751,3.91,3.911,3.91h210.907c2.153,0,3.916-1.762,3.916-3.916V28.305
					C221.555,24.258,218.258,20.962,214.211,20.962z M219.107,85.432c0,2.695-2.195,4.891-4.896,4.891H6.732
					c-0.809,0-1.464-0.656-1.464-1.465V24.878c0-0.812,0.658-1.469,1.469-1.469h210.902c0.812,0,1.469,0.658,1.469,1.469V85.432
					L219.107,85.432z"/>
				<g>
					<path fill-opacity="0.4" d="M2.448,88.786V28.233c0-2.163,1.753-3.916,3.916-3.916h211.474l0,0v-1.223
						c0-0.676-0.548-1.223-1.223-1.223H6.358C2.847,21.87,0,24.717,0,28.228v60.558"/>
					<path fill-opacity="0.3" d="M6.363,26.764h208.698c0.676,0,1.224-0.548,1.224-1.223l0,0c0-0.676-0.548-1.223-1.224-1.223H6.358
						c-2.16,0-3.911,1.751-3.911,3.911V90.01c0,0.676,0.548,1.223,1.223,1.223l0,0c0.676,0,1.223-0.547,1.223-1.223V28.233
						C4.894,27.425,5.555,26.764,6.363,26.764z"/>
					<path fill-opacity="0.2" d="M9.785,29.211h207.723c0.676,0,1.223-0.548,1.223-1.223l0,0c0-0.676-0.547-1.223-1.223-1.223H6.358
						c-0.809,0-1.464,0.656-1.464,1.464v64.227c0,0.676,0.548,1.224,1.223,1.224l0,0c0.676,0,1.223-0.549,1.223-1.224V31.66
						C7.34,30.312,8.437,29.211,9.785,29.211z"/>
					<path fill-opacity="0.1" d="M9.785,96.124l0.002-62.579c0-1.04,0.843-1.882,1.882-1.882l208.282-0.002
						c0.676,0,1.223-0.548,1.223-1.223l0,0c0-0.676-0.548-1.223-1.223-1.223H9.221c-1.04,0-1.882,0.843-1.882,1.882V96.13"/>
				</g>
			</g>
			<g>
				
					<linearGradient id="SVGID_18_" gradientUnits="userSpaceOnUse" x1="161.4619" y1="-1.9092" x2="161.4619" y2="67.7437" gradientTransform="matrix(1 0 0 -1 8.3398 90.04)">
					<stop  offset="0" style="stop-color:#707173"/>
					<stop  offset="0.6786" style="stop-color:#000000"/>
					<stop  offset="1" style="stop-color:#87888A"/>
				</linearGradient>
				<path fill="url(#SVGID_18_)" stroke="#FFFFFF" stroke-width="2.0983" stroke-miterlimit="10" d="M221,86.593
					c0,2.959-2.396,5.356-5.355,5.356h-91.682c-2.959,0-5.359-2.397-5.359-5.356V27.657c0-2.959,2.4-5.36,5.359-5.36h91.682
					c2.959,0,5.355,2.401,5.355,5.36V86.593z"/>
				<g opacity="0.6">
					<g>
						
							<linearGradient id="SVGID_19_" gradientUnits="userSpaceOnUse" x1="142.5586" y1="46.9565" x2="148.4334" y2="41.0816" gradientTransform="matrix(1 0 0 -1 8.3398 90.04)">
							<stop  offset="0.3571" style="stop-color:#1A171B"/>
							<stop  offset="1" style="stop-color:#FFFFFF"/>
						</linearGradient>
						<circle fill="url(#SVGID_19_)" cx="153.836" cy="46.021" r="4.154"/>
						
							<linearGradient id="SVGID_20_" gradientUnits="userSpaceOnUse" x1="153.0674" y1="46.9585" x2="158.9447" y2="41.0811" gradientTransform="matrix(1 0 0 -1 8.3398 90.04)">
							<stop  offset="0.3571" style="stop-color:#1A171B"/>
							<stop  offset="1" style="stop-color:#FFFFFF"/>
						</linearGradient>
						<circle fill="url(#SVGID_20_)" cx="164.346" cy="46.021" r="4.156"/>
						
							<linearGradient id="SVGID_21_" gradientUnits="userSpaceOnUse" x1="163.5791" y1="46.9565" x2="169.4518" y2="41.0839" gradientTransform="matrix(1 0 0 -1 8.3398 90.04)">
							<stop  offset="0.3571" style="stop-color:#1A171B"/>
							<stop  offset="1" style="stop-color:#FFFFFF"/>
						</linearGradient>
						<path fill="url(#SVGID_21_)" d="M179.01,46.021c0,2.291-1.861,4.152-4.156,4.152c-2.291,0-4.15-1.861-4.15-4.152
							c0-2.295,1.861-4.155,4.15-4.155C177.148,41.865,179.01,43.726,179.01,46.021z"/>
						
							<linearGradient id="SVGID_22_" gradientUnits="userSpaceOnUse" x1="174.0908" y1="46.957" x2="179.9652" y2="41.0825" gradientTransform="matrix(1 0 0 -1 8.3398 90.04)">
							<stop  offset="0.3571" style="stop-color:#1A171B"/>
							<stop  offset="1" style="stop-color:#FFFFFF"/>
						</linearGradient>
						<circle fill="url(#SVGID_22_)" cx="185.368" cy="46.021" r="4.154"/>
					</g>
					<g>
						
							<linearGradient id="SVGID_23_" gradientUnits="userSpaceOnUse" x1="142.5586" y1="36.6826" x2="148.4336" y2="30.8076" gradientTransform="matrix(1 0 0 -1 8.3398 90.04)">
							<stop  offset="0.3571" style="stop-color:#1A171B"/>
							<stop  offset="1" style="stop-color:#FFFFFF"/>
						</linearGradient>
						<circle fill="url(#SVGID_23_)" cx="153.836" cy="56.295" r="4.154"/>
						
							<linearGradient id="SVGID_24_" gradientUnits="userSpaceOnUse" x1="153.0674" y1="36.6836" x2="158.9448" y2="30.8062" gradientTransform="matrix(1 0 0 -1 8.3398 90.04)">
							<stop  offset="0.3571" style="stop-color:#1A171B"/>
							<stop  offset="1" style="stop-color:#FFFFFF"/>
						</linearGradient>
						<circle fill="url(#SVGID_24_)" cx="164.346" cy="56.295" r="4.156"/>
						
							<linearGradient id="SVGID_25_" gradientUnits="userSpaceOnUse" x1="163.5801" y1="36.6831" x2="169.4524" y2="30.8108" gradientTransform="matrix(1 0 0 -1 8.3398 90.04)">
							<stop  offset="0.3571" style="stop-color:#1A171B"/>
							<stop  offset="1" style="stop-color:#FFFFFF"/>
						</linearGradient>
						<path fill="url(#SVGID_25_)" d="M179.01,56.295c0,2.291-1.861,4.15-4.156,4.15c-2.291,0-4.15-1.86-4.15-4.15
							c0-2.295,1.861-4.155,4.15-4.155C177.148,52.14,179.01,54,179.01,56.295z"/>
						
							<linearGradient id="SVGID_26_" gradientUnits="userSpaceOnUse" x1="174.0908" y1="36.6826" x2="179.9654" y2="30.8081" gradientTransform="matrix(1 0 0 -1 8.3398 90.04)">
							<stop  offset="0.3571" style="stop-color:#1A171B"/>
							<stop  offset="1" style="stop-color:#FFFFFF"/>
						</linearGradient>
						<circle fill="url(#SVGID_26_)" cx="185.368" cy="56.295" r="4.154"/>
					</g>
					<g>
						
							<linearGradient id="SVGID_27_" gradientUnits="userSpaceOnUse" x1="142.5586" y1="26.627" x2="148.4322" y2="20.7534" gradientTransform="matrix(1 0 0 -1 8.3398 90.04)">
							<stop  offset="0.3571" style="stop-color:#1A171B"/>
							<stop  offset="1" style="stop-color:#FFFFFF"/>
						</linearGradient>
						<path fill="url(#SVGID_27_)" d="M157.99,66.348c0,2.295-1.861,4.156-4.155,4.156c-2.295,0-4.151-1.861-4.151-4.156
							c0-2.291,1.856-4.15,4.151-4.15C156.129,62.197,157.99,64.057,157.99,66.348z"/>
						
							<linearGradient id="SVGID_28_" gradientUnits="userSpaceOnUse" x1="153.0684" y1="26.627" x2="158.9429" y2="20.7524" gradientTransform="matrix(1 0 0 -1 8.3398 90.04)">
							<stop  offset="0.3571" style="stop-color:#1A171B"/>
							<stop  offset="1" style="stop-color:#FFFFFF"/>
						</linearGradient>
						<path fill="url(#SVGID_28_)" d="M168.502,66.348c0,2.295-1.861,4.156-4.156,4.156s-4.154-1.861-4.154-4.156
							c0-2.291,1.86-4.15,4.154-4.15C166.641,62.197,168.502,64.057,168.502,66.348z"/>
						
							<linearGradient id="SVGID_29_" gradientUnits="userSpaceOnUse" x1="163.5801" y1="26.627" x2="169.4528" y2="20.7543" gradientTransform="matrix(1 0 0 -1 8.3398 90.04)">
							<stop  offset="0.3571" style="stop-color:#1A171B"/>
							<stop  offset="1" style="stop-color:#FFFFFF"/>
						</linearGradient>
						<path fill="url(#SVGID_29_)" d="M179.01,66.348c0,2.295-1.861,4.156-4.156,4.156c-2.291,0-4.15-1.861-4.15-4.156
							c0-2.291,1.861-4.15,4.15-4.15C177.148,62.197,179.01,64.057,179.01,66.348z"/>
						
							<linearGradient id="SVGID_30_" gradientUnits="userSpaceOnUse" x1="174.0898" y1="26.6274" x2="179.9638" y2="20.7535" gradientTransform="matrix(1 0 0 -1 8.3398 90.04)">
							<stop  offset="0.3571" style="stop-color:#1A171B"/>
							<stop  offset="1" style="stop-color:#FFFFFF"/>
						</linearGradient>
						<path fill="url(#SVGID_30_)" d="M189.521,66.348c0,2.295-1.86,4.156-4.155,4.156c-2.296,0-4.151-1.861-4.151-4.156
							c0-2.291,1.855-4.15,4.151-4.15C187.661,62.197,189.521,64.057,189.521,66.348z"/>
					</g>
				</g>
			</g>
		</g>
	</g>
</g>
<g id="off">
	<g>
		
			<linearGradient id="SVGID_31_" gradientUnits="userSpaceOnUse" x1="125.2949" y1="-2.4873" x2="125.2949" y2="68.5679" gradientTransform="matrix(1 0 0 -1 8.3398 90.04)">
			<stop  offset="0" style="stop-color:#1C1C1C"/>
			<stop  offset="0.5357" style="stop-color:#828282"/>
			<stop  offset="0.9786" style="stop-color:#2E2E2E"/>
			<stop  offset="1" style="stop-color:#A6A6A6"/>
		</linearGradient>
		<path fill="url(#SVGID_31_)" d="M222,87.064c0,3.021-2.447,5.463-5.463,5.463H50.736c-3.02,0-5.467-2.442-5.467-5.463V26.935
			c0-3.016,2.447-5.463,5.467-5.463h165.801c3.016,0,5.463,2.447,5.463,5.463V87.064L222,87.064z"/>
		<g>
			<g>
				
					<linearGradient id="SVGID_32_" gradientUnits="userSpaceOnUse" x1="-293.3208" y1="792.998" x2="-293.3208" y2="721.1914" gradientTransform="matrix(-1 0 0 1 -175.374 -699.8691)">
					<stop  offset="0" style="stop-color:#000000"/>
					<stop  offset="0.1015" style="stop-color:#000000"/>
				</linearGradient>
				<path opacity="0.3" fill="url(#SVGID_32_)" enable-background="new    " d="M24.058,93.129h191.209
					c2.16,0,3.912-1.751,3.912-3.911V25.233c0-2.16-1.752-3.911-3.912-3.911H20.63c-2.154,0-3.916,1.762-3.916,3.916v60.548
					C16.715,89.833,20.011,93.129,24.058,93.129z M19.162,28.66c0-2.696,2.195-4.891,4.896-4.891h191.209
					c0.81,0,1.465,0.656,1.465,1.464v63.979c0,0.812-0.658,1.47-1.469,1.47H20.63c-0.812,0-1.469-0.658-1.469-1.47L19.162,28.66
					L19.162,28.66z"/>
				<g>
					<path fill="#FFFFFF" fill-opacity="0.4" d="M219.052,25.305v60.552c0,2.164-1.753,3.916-3.915,3.916H19.93l0,0v1.224
						c0,0.676,0.548,1.224,1.223,1.224h193.988c3.512,0,6.358-2.847,6.358-6.357V25.305"/>
					<path fill="#FFFFFF" fill-opacity="0.3" d="M215.637,87.327H23.208c-0.676,0-1.223,0.548-1.223,1.224l0,0
						c0,0.676,0.548,1.225,1.223,1.225h192.435c2.159,0,3.91-1.752,3.91-3.911V24.082c0-0.676-0.548-1.223-1.223-1.223l0,0
						c-0.676,0-1.223,0.548-1.223,1.223v61.775C217.105,86.666,216.445,87.327,215.637,87.327z"/>
					<path fill="#FFFFFF" fill-opacity="0.2" d="M212.215,84.88H20.761c-0.676,0-1.223,0.548-1.223,1.224l0,0
						c0,0.676,0.548,1.223,1.223,1.223h194.881c0.809,0,1.463-0.656,1.463-1.465V21.636c0-0.676-0.547-1.223-1.223-1.223l0,0
						c-0.676,0-1.223,0.548-1.223,1.223v60.796C214.66,83.779,213.563,84.88,212.215,84.88z"/>
					<path fill="#FFFFFF" fill-opacity="0.1" d="M212.215,17.967l-0.002,62.579c0,1.04-0.843,1.882-1.882,1.882L18.317,82.43
						c-0.676,0-1.223,0.549-1.223,1.223l0,0c0,0.677,0.548,1.225,1.223,1.225h194.46c1.041,0,1.883-0.843,1.883-1.882V17.962"/>
				</g>
			</g>
			<g>
				
					<linearGradient id="SVGID_33_" gradientUnits="userSpaceOnUse" x1="43.8589" y1="-1.9092" x2="43.8589" y2="67.7437" gradientTransform="matrix(1 0 0 -1 8.3398 90.04)">
					<stop  offset="0" style="stop-color:#707173"/>
					<stop  offset="0.6786" style="stop-color:#000000"/>
					<stop  offset="1" style="stop-color:#87888A"/>
				</linearGradient>
				<path fill="url(#SVGID_33_)" stroke="#FFFFFF" stroke-width="2.0983" stroke-miterlimit="10" d="M103.398,86.593
					c0,2.959-2.397,5.356-5.356,5.356H6.36C3.401,91.95,1,89.552,1,86.593V27.657c0-2.959,2.401-5.36,5.36-5.36h91.681
					c2.959,0,5.356,2.401,5.356,5.36L103.398,86.593L103.398,86.593z"/>
				<g opacity="0.6">
					<g>
						
							<linearGradient id="SVGID_34_" gradientUnits="userSpaceOnUse" x1="24.9565" y1="46.9565" x2="30.8312" y2="41.0818" gradientTransform="matrix(1 0 0 -1 8.3398 90.04)">
							<stop  offset="0.3571" style="stop-color:#1A171B"/>
							<stop  offset="1" style="stop-color:#FFFFFF"/>
						</linearGradient>
						<circle fill="url(#SVGID_34_)" cx="36.234" cy="46.021" r="4.154"/>
						
							<linearGradient id="SVGID_35_" gradientUnits="userSpaceOnUse" x1="35.4648" y1="46.958" x2="41.3421" y2="41.0806" gradientTransform="matrix(1 0 0 -1 8.3398 90.04)">
							<stop  offset="0.3571" style="stop-color:#1A171B"/>
							<stop  offset="1" style="stop-color:#FFFFFF"/>
						</linearGradient>
						<circle fill="url(#SVGID_35_)" cx="46.744" cy="46.021" r="4.156"/>
						
							<linearGradient id="SVGID_36_" gradientUnits="userSpaceOnUse" x1="45.9775" y1="46.957" x2="51.8505" y2="41.084" gradientTransform="matrix(1 0 0 -1 8.3398 90.04)">
							<stop  offset="0.3571" style="stop-color:#1A171B"/>
							<stop  offset="1" style="stop-color:#FFFFFF"/>
						</linearGradient>
						<path fill="url(#SVGID_36_)" d="M61.408,46.021c0,2.291-1.861,4.152-4.156,4.152c-2.291,0-4.151-1.861-4.151-4.152
							c0-2.295,1.861-4.155,4.151-4.155C59.547,41.865,61.408,43.726,61.408,46.021z"/>
						
							<linearGradient id="SVGID_37_" gradientUnits="userSpaceOnUse" x1="56.4888" y1="46.957" x2="62.3634" y2="41.0823" gradientTransform="matrix(1 0 0 -1 8.3398 90.04)">
							<stop  offset="0.3571" style="stop-color:#1A171B"/>
							<stop  offset="1" style="stop-color:#FFFFFF"/>
						</linearGradient>
						<circle fill="url(#SVGID_37_)" cx="67.766" cy="46.021" r="4.154"/>
					</g>
					<g>
						
							<linearGradient id="SVGID_38_" gradientUnits="userSpaceOnUse" x1="24.957" y1="36.6826" x2="30.8318" y2="30.8078" gradientTransform="matrix(1 0 0 -1 8.3398 90.04)">
							<stop  offset="0.3571" style="stop-color:#1A171B"/>
							<stop  offset="1" style="stop-color:#FFFFFF"/>
						</linearGradient>
						<circle fill="url(#SVGID_38_)" cx="36.234" cy="56.295" r="4.154"/>
						
							<linearGradient id="SVGID_39_" gradientUnits="userSpaceOnUse" x1="35.4653" y1="36.6836" x2="41.3428" y2="30.8063" gradientTransform="matrix(1 0 0 -1 8.3398 90.04)">
							<stop  offset="0.3571" style="stop-color:#1A171B"/>
							<stop  offset="1" style="stop-color:#FFFFFF"/>
						</linearGradient>
						<circle fill="url(#SVGID_39_)" cx="46.744" cy="56.295" r="4.156"/>
						
							<linearGradient id="SVGID_40_" gradientUnits="userSpaceOnUse" x1="45.978" y1="36.6836" x2="51.8507" y2="30.811" gradientTransform="matrix(1 0 0 -1 8.3398 90.04)">
							<stop  offset="0.3571" style="stop-color:#1A171B"/>
							<stop  offset="1" style="stop-color:#FFFFFF"/>
						</linearGradient>
						<path fill="url(#SVGID_40_)" d="M61.408,56.295c0,2.291-1.861,4.15-4.156,4.15c-2.291,0-4.151-1.86-4.151-4.15
							c0-2.295,1.861-4.155,4.151-4.155C59.547,52.14,61.408,54,61.408,56.295z"/>
						
							<linearGradient id="SVGID_41_" gradientUnits="userSpaceOnUse" x1="56.4888" y1="36.6826" x2="62.3636" y2="30.8079" gradientTransform="matrix(1 0 0 -1 8.3398 90.04)">
							<stop  offset="0.3571" style="stop-color:#1A171B"/>
							<stop  offset="1" style="stop-color:#FFFFFF"/>
						</linearGradient>
						<circle fill="url(#SVGID_41_)" cx="67.766" cy="56.295" r="4.154"/>
					</g>
					<g>
						
							<linearGradient id="SVGID_42_" gradientUnits="userSpaceOnUse" x1="24.9575" y1="26.6279" x2="30.8312" y2="20.7542" gradientTransform="matrix(1 0 0 -1 8.3398 90.04)">
							<stop  offset="0.3571" style="stop-color:#1A171B"/>
							<stop  offset="1" style="stop-color:#FFFFFF"/>
						</linearGradient>
						<path fill="url(#SVGID_42_)" d="M40.388,66.348c0,2.295-1.861,4.156-4.155,4.156c-2.295,0-4.152-1.861-4.152-4.156
							c0-2.291,1.857-4.15,4.152-4.15C38.527,62.197,40.388,64.057,40.388,66.348z"/>
						
							<linearGradient id="SVGID_43_" gradientUnits="userSpaceOnUse" x1="35.4673" y1="26.6279" x2="41.342" y2="20.7532" gradientTransform="matrix(1 0 0 -1 8.3398 90.04)">
							<stop  offset="0.3571" style="stop-color:#1A171B"/>
							<stop  offset="1" style="stop-color:#FFFFFF"/>
						</linearGradient>
						<path fill="url(#SVGID_43_)" d="M50.9,66.348c0,2.295-1.861,4.156-4.156,4.156s-4.155-1.861-4.155-4.156
							c0-2.291,1.861-4.15,4.155-4.15C49.039,62.197,50.9,64.057,50.9,66.348z"/>
						
							<linearGradient id="SVGID_44_" gradientUnits="userSpaceOnUse" x1="45.978" y1="26.627" x2="51.851" y2="20.754" gradientTransform="matrix(1 0 0 -1 8.3398 90.04)">
							<stop  offset="0.3571" style="stop-color:#1A171B"/>
							<stop  offset="1" style="stop-color:#FFFFFF"/>
						</linearGradient>
						<path fill="url(#SVGID_44_)" d="M61.408,66.348c0,2.295-1.861,4.156-4.156,4.156c-2.291,0-4.151-1.861-4.151-4.156
							c0-2.291,1.861-4.15,4.151-4.15C59.547,62.197,61.408,64.057,61.408,66.348z"/>
						
							<linearGradient id="SVGID_45_" gradientUnits="userSpaceOnUse" x1="56.4878" y1="26.627" x2="62.3617" y2="20.7531" gradientTransform="matrix(1 0 0 -1 8.3398 90.04)">
							<stop  offset="0.3571" style="stop-color:#1A171B"/>
							<stop  offset="1" style="stop-color:#FFFFFF"/>
						</linearGradient>
						<path fill="url(#SVGID_45_)" d="M71.92,66.348c0,2.295-1.861,4.156-4.156,4.156s-4.151-1.861-4.151-4.156
							c0-2.291,1.856-4.15,4.151-4.15S71.92,64.057,71.92,66.348z"/>
					</g>
				</g>
			</g>
		</g>
	</g>
</g>
<g id="disabled_off" opacity="0.2">
	<g>
		
			<linearGradient id="SVGID_46_" gradientUnits="userSpaceOnUse" x1="103.4375" y1="-2.4873" x2="103.4375" y2="68.5679" gradientTransform="matrix(1 0 0 -1 8.3398 90.04)">
			<stop  offset="0" style="stop-color:#1C1C1C"/>
			<stop  offset="0.5357" style="stop-color:#828282"/>
			<stop  offset="0.9786" style="stop-color:#2E2E2E"/>
			<stop  offset="1" style="stop-color:#A6A6A6"/>
		</linearGradient>
		<path fill="url(#SVGID_46_)" d="M222,87.064c0,3.021-2.447,5.463-5.463,5.463H7.022c-3.02,0-5.467-2.442-5.467-5.463V26.935
			c0-3.016,2.447-5.463,5.467-5.463h209.515c3.016,0,5.463,2.447,5.463,5.463V87.064z"/>
		<g>
			<g>
				
					<linearGradient id="SVGID_47_" gradientUnits="userSpaceOnUse" x1="-284.9639" y1="792.998" x2="-284.9639" y2="721.1914" gradientTransform="matrix(-1 0 0 1 -175.374 -699.8691)">
					<stop  offset="0" style="stop-color:#000000"/>
					<stop  offset="0.1015" style="stop-color:#000000"/>
				</linearGradient>
				<path opacity="0.3" fill="url(#SVGID_47_)" enable-background="new    " d="M7.344,93.129h207.923
					c2.16,0,3.912-1.751,3.912-3.911V25.233c0-2.16-1.752-3.911-3.912-3.911H3.916C1.762,21.322,0,23.084,0,25.238v60.548
					C0.001,89.833,3.297,93.129,7.344,93.129z M2.448,28.66c0-2.696,2.195-4.891,4.896-4.891h207.923
					c0.81,0,1.465,0.656,1.465,1.464v63.979c0,0.812-0.658,1.47-1.469,1.47H3.916c-0.812,0-1.469-0.658-1.469-1.47L2.448,28.66
					L2.448,28.66z"/>
				<g>
					<path fill="#FFFFFF" fill-opacity="0.4" d="M219.052,25.305v60.552c0,2.164-1.753,3.916-3.915,3.916H3.216l0,0v1.224
						c0,0.676,0.548,1.224,1.223,1.224h210.702c3.512,0,6.358-2.847,6.358-6.357V25.305"/>
					<path fill="#FFFFFF" fill-opacity="0.3" d="M215.637,87.327H6.494c-0.676,0-1.223,0.548-1.223,1.224l0,0
						c0,0.676,0.548,1.225,1.223,1.225h209.148c2.159,0,3.91-1.752,3.91-3.911V24.082c0-0.676-0.548-1.223-1.223-1.223l0,0
						c-0.676,0-1.223,0.548-1.223,1.223v61.775C217.105,86.666,216.445,87.327,215.637,87.327z"/>
					<path fill="#FFFFFF" fill-opacity="0.2" d="M212.215,84.88H4.047c-0.676,0-1.223,0.548-1.223,1.224l0,0
						c0,0.676,0.548,1.223,1.223,1.223h211.596c0.809,0,1.463-0.656,1.463-1.465V21.636c0-0.676-0.547-1.223-1.223-1.223l0,0
						c-0.676,0-1.223,0.548-1.223,1.223v60.796C214.66,83.779,213.563,84.88,212.215,84.88z"/>
					<path fill="#FFFFFF" fill-opacity="0.1" d="M212.215,17.967l-0.002,62.579c0,1.04-0.843,1.882-1.882,1.882L1.603,82.43
						c-0.676,0-1.223,0.549-1.223,1.223l0,0c0,0.677,0.548,1.225,1.223,1.225h211.174c1.041,0,1.883-0.843,1.883-1.882V17.962"/>
				</g>
			</g>
			<g>
				
					<linearGradient id="SVGID_48_" gradientUnits="userSpaceOnUse" x1="43.8589" y1="-1.9092" x2="43.8589" y2="67.7437" gradientTransform="matrix(1 0 0 -1 8.3398 90.04)">
					<stop  offset="0" style="stop-color:#707173"/>
					<stop  offset="0.6786" style="stop-color:#000000"/>
					<stop  offset="1" style="stop-color:#87888A"/>
				</linearGradient>
				<path fill="url(#SVGID_48_)" stroke="#FFFFFF" stroke-width="2.0983" stroke-miterlimit="10" d="M103.398,86.593
					c0,2.959-2.397,5.356-5.356,5.356H6.36C3.401,91.95,1,89.552,1,86.593V27.657c0-2.959,2.401-5.36,5.36-5.36h91.681
					c2.959,0,5.356,2.401,5.356,5.36L103.398,86.593L103.398,86.593z"/>
				<g opacity="0.6">
					<g>
						
							<linearGradient id="SVGID_49_" gradientUnits="userSpaceOnUse" x1="24.9565" y1="46.9565" x2="30.8312" y2="41.0818" gradientTransform="matrix(1 0 0 -1 8.3398 90.04)">
							<stop  offset="0.3571" style="stop-color:#1A171B"/>
							<stop  offset="1" style="stop-color:#FFFFFF"/>
						</linearGradient>
						<circle fill="url(#SVGID_49_)" cx="36.234" cy="46.021" r="4.154"/>
						
							<linearGradient id="SVGID_50_" gradientUnits="userSpaceOnUse" x1="35.4648" y1="46.958" x2="41.3421" y2="41.0806" gradientTransform="matrix(1 0 0 -1 8.3398 90.04)">
							<stop  offset="0.3571" style="stop-color:#1A171B"/>
							<stop  offset="1" style="stop-color:#FFFFFF"/>
						</linearGradient>
						<circle fill="url(#SVGID_50_)" cx="46.744" cy="46.021" r="4.156"/>
						
							<linearGradient id="SVGID_51_" gradientUnits="userSpaceOnUse" x1="45.9775" y1="46.957" x2="51.8505" y2="41.084" gradientTransform="matrix(1 0 0 -1 8.3398 90.04)">
							<stop  offset="0.3571" style="stop-color:#1A171B"/>
							<stop  offset="1" style="stop-color:#FFFFFF"/>
						</linearGradient>
						<path fill="url(#SVGID_51_)" d="M61.408,46.021c0,2.291-1.861,4.152-4.156,4.152c-2.291,0-4.151-1.861-4.151-4.152
							c0-2.295,1.861-4.155,4.151-4.155C59.547,41.865,61.408,43.726,61.408,46.021z"/>
						
							<linearGradient id="SVGID_52_" gradientUnits="userSpaceOnUse" x1="56.4888" y1="46.957" x2="62.3634" y2="41.0823" gradientTransform="matrix(1 0 0 -1 8.3398 90.04)">
							<stop  offset="0.3571" style="stop-color:#1A171B"/>
							<stop  offset="1" style="stop-color:#FFFFFF"/>
						</linearGradient>
						<circle fill="url(#SVGID_52_)" cx="67.766" cy="46.021" r="4.154"/>
					</g>
					<g>
						
							<linearGradient id="SVGID_53_" gradientUnits="userSpaceOnUse" x1="24.957" y1="36.6826" x2="30.8318" y2="30.8078" gradientTransform="matrix(1 0 0 -1 8.3398 90.04)">
							<stop  offset="0.3571" style="stop-color:#1A171B"/>
							<stop  offset="1" style="stop-color:#FFFFFF"/>
						</linearGradient>
						<circle fill="url(#SVGID_53_)" cx="36.234" cy="56.295" r="4.154"/>
						
							<linearGradient id="SVGID_54_" gradientUnits="userSpaceOnUse" x1="35.4653" y1="36.6836" x2="41.3428" y2="30.8063" gradientTransform="matrix(1 0 0 -1 8.3398 90.04)">
							<stop  offset="0.3571" style="stop-color:#1A171B"/>
							<stop  offset="1" style="stop-color:#FFFFFF"/>
						</linearGradient>
						<circle fill="url(#SVGID_54_)" cx="46.744" cy="56.295" r="4.156"/>
						
							<linearGradient id="SVGID_55_" gradientUnits="userSpaceOnUse" x1="45.978" y1="36.6836" x2="51.8507" y2="30.811" gradientTransform="matrix(1 0 0 -1 8.3398 90.04)">
							<stop  offset="0.3571" style="stop-color:#1A171B"/>
							<stop  offset="1" style="stop-color:#FFFFFF"/>
						</linearGradient>
						<path fill="url(#SVGID_55_)" d="M61.408,56.295c0,2.291-1.861,4.15-4.156,4.15c-2.291,0-4.151-1.86-4.151-4.15
							c0-2.295,1.861-4.155,4.151-4.155C59.547,52.14,61.408,54,61.408,56.295z"/>
						
							<linearGradient id="SVGID_56_" gradientUnits="userSpaceOnUse" x1="56.4888" y1="36.6826" x2="62.3636" y2="30.8079" gradientTransform="matrix(1 0 0 -1 8.3398 90.04)">
							<stop  offset="0.3571" style="stop-color:#1A171B"/>
							<stop  offset="1" style="stop-color:#FFFFFF"/>
						</linearGradient>
						<circle fill="url(#SVGID_56_)" cx="67.766" cy="56.295" r="4.154"/>
					</g>
					<g>
						
							<linearGradient id="SVGID_57_" gradientUnits="userSpaceOnUse" x1="24.9575" y1="26.6279" x2="30.8312" y2="20.7542" gradientTransform="matrix(1 0 0 -1 8.3398 90.04)">
							<stop  offset="0.3571" style="stop-color:#1A171B"/>
							<stop  offset="1" style="stop-color:#FFFFFF"/>
						</linearGradient>
						<path fill="url(#SVGID_57_)" d="M40.388,66.348c0,2.295-1.861,4.156-4.155,4.156c-2.295,0-4.152-1.861-4.152-4.156
							c0-2.291,1.857-4.15,4.152-4.15C38.527,62.197,40.388,64.057,40.388,66.348z"/>
						
							<linearGradient id="SVGID_58_" gradientUnits="userSpaceOnUse" x1="35.4673" y1="26.6279" x2="41.342" y2="20.7532" gradientTransform="matrix(1 0 0 -1 8.3398 90.04)">
							<stop  offset="0.3571" style="stop-color:#1A171B"/>
							<stop  offset="1" style="stop-color:#FFFFFF"/>
						</linearGradient>
						<path fill="url(#SVGID_58_)" d="M50.9,66.348c0,2.295-1.861,4.156-4.156,4.156s-4.155-1.861-4.155-4.156
							c0-2.291,1.861-4.15,4.155-4.15C49.039,62.197,50.9,64.057,50.9,66.348z"/>
						
							<linearGradient id="SVGID_59_" gradientUnits="userSpaceOnUse" x1="45.978" y1="26.627" x2="51.851" y2="20.754" gradientTransform="matrix(1 0 0 -1 8.3398 90.04)">
							<stop  offset="0.3571" style="stop-color:#1A171B"/>
							<stop  offset="1" style="stop-color:#FFFFFF"/>
						</linearGradient>
						<path fill="url(#SVGID_59_)" d="M61.408,66.348c0,2.295-1.861,4.156-4.156,4.156c-2.291,0-4.151-1.861-4.151-4.156
							c0-2.291,1.861-4.15,4.151-4.15C59.547,62.197,61.408,64.057,61.408,66.348z"/>
						
							<linearGradient id="SVGID_60_" gradientUnits="userSpaceOnUse" x1="56.4878" y1="26.627" x2="62.3617" y2="20.7531" gradientTransform="matrix(1 0 0 -1 8.3398 90.04)">
							<stop  offset="0.3571" style="stop-color:#1A171B"/>
							<stop  offset="1" style="stop-color:#FFFFFF"/>
						</linearGradient>
						<path fill="url(#SVGID_60_)" d="M71.92,66.348c0,2.295-1.861,4.156-4.156,4.156s-4.151-1.861-4.151-4.156
							c0-2.291,1.856-4.15,4.151-4.15S71.92,64.057,71.92,66.348z"/>
					</g>
				</g>
			</g>
		</g>
	</g>
</g>
</svg>
