<?xml version="1.0" encoding="utf-8"?>
<!-- Generator: Adobe Illustrator 17.0.0, SVG Export Plug-In . SVG Version: 6.00 Build 0)  -->
<!DOCTYPE svg PUBLIC "-//W3C//DTD SVG 1.1//EN" "http://www.w3.org/Graphics/SVG/1.1/DTD/svg11.dtd">
<svg version="1.1" id="Layer_12" xmlns="http://www.w3.org/2000/svg" xmlns:xlink="http://www.w3.org/1999/xlink" x="0px" y="0px"
	 width="114px" height="114px" viewBox="0 0 114 114" enable-background="new 0 0 114 114" xml:space="preserve">
<g>
	
		<rect x="17.07" y="17.069" transform="matrix(-0.7071 0.7071 -0.7071 -0.7071 137.6106 56.9998)" fill-rule="evenodd" clip-rule="evenodd" fill="#FFF100" width="79.861" height="79.861"/>
	<path d="M57,1.06L112.94,57L57,112.94L1.06,57L57,1.06 M57-0.001L-0.001,57L57,114.001L114.001,57L57-0.001L57-0.001z"/>
</g>
<g>
	<path d="M57,7.843L106.157,57L57,106.157L7.843,57L57,7.843 M57,6.782l-0.53,0.53L7.313,56.47L6.782,57l0.53,0.53l49.157,49.157
		l0.53,0.53l0.53-0.53l49.157-49.157l0.53-0.53l-0.53-0.53L57.53,7.313L57,6.782L57,6.782z"/>
</g>
<path d="M42.188,71.75c-3.129-0.017-3.224,0.022-3.382,1.391l-0.162,1.408l13.299,0.155c7.314,0.085,15.501,0.147,18.193,0.138
	l4.894-0.018l0.163-1.417l0.163-1.417l-14.974-0.112C52.146,71.817,43.959,71.759,42.188,71.75z"/>
<path fill="#020200" d="M41.79,51.175c1.272,1.387,1.296,1.464,1.438,4.7c0.115,2.624,0.331,3.695,1.065,5.289
	c1.575,3.421,5.108,6.435,9.092,7.754c0.858,0.284,2.572,0.42,4.503,0.357c2.665-0.087,3.448-0.261,5.394-1.197
	c4.93-2.371,8.287-7.764,8.287-13.31c0-0.859,0.373-2.156,0.943-3.283l0.943-1.862l-0.779-3.022c-1.152-4.469-0.947-6.102,0.955-7.6
	c0.448-0.353,0.331-0.424-0.717-0.433c-0.777-0.007-1.618,0.277-2.215,0.747c-0.588,0.462-0.884,0.564-0.76,0.26
	c0.112-0.274,0.46-1.327,0.775-2.341c0.526-1.695,0.528-1.979,0.021-3.529c-0.303-0.927-0.552-2.669-0.552-3.872
	c-0.001-2.418-0.714-4.231-1.991-5.057l-0.779-0.504l0.556,1.33c0.635,1.519,0.522,4.525-0.233,6.202
	c-0.436,0.968-0.482,0.765-0.674-2.944c-0.241-4.655-0.857-6.348-3.088-8.486l-1.446-1.386l0.537,1.288
	c0.661,1.583,0.695,3.733,0.073,4.584c-0.411,0.562-0.49,0.371-0.679-1.656c-0.259-2.775-1.823-6.681-3.619-9.039
	c-1.499-1.968-2.446-2.548-1.641-1.005c0.706,1.353,0.647,2.015-0.328,3.688c-0.464,0.796-1.028,2.19-1.255,3.098l-0.412,1.65
	l-1.509-1.391c-1.149-1.059-1.791-1.391-2.695-1.391h-1.187l0.659,1.736c0.883,2.324,0.839,2.968-0.387,5.672
	c-0.575,1.269-1.171,2.888-1.323,3.598l-0.277,1.291l-0.794-1.559c-0.926-1.817-2.037-3.117-2.664-3.117
	c-0.346,0-0.333,0.259,0.06,1.201c0.648,1.551,0.64,4.442-0.018,6.658c-0.286,0.963-0.554,2.16-0.595,2.661
	c-0.041,0.501-0.141,0.91-0.221,0.91c-0.08,0-0.822-0.623-1.649-1.386c-0.827-0.762-1.765-1.386-2.084-1.386
	c-0.525,0-0.53,0.059-0.05,0.606c0.921,1.05,1.654,2.783,1.654,3.907c0,0.596-0.376,2.046-0.836,3.221
	C39.626,47.084,39.736,48.937,41.79,51.175z M67.817,45.436c0.129-0.914,0.808-0.97,0.808-0.067c0,0.317-0.208,0.647-0.462,0.731
	C67.846,46.206,67.738,45.997,67.817,45.436z M66.547,38.525c0.612,0.051,0.923,2.099,0.51,3.351
	c-0.45,1.364-0.935,1.527-1.202,0.404C65.606,41.236,66.112,38.488,66.547,38.525z M60.899,39.512
	c0.122-1.677,1.008-2.184,1.666-0.953c0.312,0.583,0.279,0.913-0.158,1.58C61.494,41.532,60.774,41.233,60.899,39.512z
	 M56.134,35.174c0.344-4.235,0.729-4.835,1.787-2.787c0.618,1.196,1.074,6.202,0.699,7.693c-0.333,1.325-1.137,1.101-1.98-0.552
	C55.985,38.243,55.926,37.734,56.134,35.174z M53.36,38.21c0.578,0,1.93,1.61,1.93,2.298c0,0.695-0.936,0.576-1.732-0.22
	C52.757,39.487,52.635,38.21,53.36,38.21z M49.537,36.219c0.123,0.524,0.082,0.953-0.091,0.953c-0.392,0-0.736-0.857-0.736-1.829
	C48.709,34.395,49.239,34.957,49.537,36.219z M48.54,39.373c0.864-0.332,1.554,0.555,1.554,1.997c0,1.574-0.369,1.691-1.36,0.43
	C47.889,40.726,47.803,39.656,48.54,39.373z M47.368,48.469c4.094-6.18,13.204-7.002,18.409-1.66
	c4.167,4.276,4.789,10.034,1.615,14.945c-1.528,2.365-3.76,4.015-6.644,4.912c-3.482,1.084-6.772,0.609-9.961-1.438
	C45.137,61.602,43.614,54.137,47.368,48.469z M44.616,45.273l0.119-1.002l0.6,1.106c0.607,1.119,0.42,1.675-0.394,1.172
	C44.693,46.396,44.549,45.833,44.616,45.273z"/>
<g>
	<path id="text1895_1_" fill="#010101" d="M62.061,83.051l-0.336,0.364c-0.355,0.355-0.857,0.694-1.505,1.018v-2.112
		c0.505-0.299,0.903-0.595,1.196-0.888c0.293-0.293,0.592-0.698,0.897-1.215h2.233l0,13.123h-1.243h-1.242L62.061,83.051z"/>
	<circle fill="#010101" cx="57.012" cy="92.046" r="1.161"/>
	<path fill="#030100" d="M52.117,85.17c-0.856-0.527-2.723-0.678-3.509-0.284c-0.315,0.158-0.581,0.184-0.694,0.067
		c-0.212-0.22,0.112-2.367,0.401-2.655c0.108-0.107,1.343-0.192,2.744-0.187l2.548,0.008l0.011-0.944l0.011-0.944l-3.504-0.009
		c-1.927-0.005-3.538,0.067-3.58,0.16c-0.131,0.292-0.917,6.618-0.843,6.778c0.123,0.264,1.988,0.195,2.269-0.085
		c0.406-0.404,1.455-0.671,2.034-0.518c0.636,0.169,1.284,0.785,1.478,1.408c0.282,0.905,0.021,2.462-0.5,2.981
		c-0.707,0.704-2.514,0.594-2.976-0.181c-0.625-1.049-0.562-1.012-1.695-1.003l-1.084,0.009l0.095,0.574
		c0.266,1.597,1.789,2.813,3.688,2.943c1.347,0.092,2.209-0.106,3.149-0.726l0,0c1.436-0.947,2.145-2.889,1.781-4.877
		C53.761,86.691,53.091,85.769,52.117,85.17z"/>
</g>
</svg>
