<?xml version="1.0" encoding="utf-8"?>
<!-- Generator: Adobe Illustrator 17.0.0, SVG Export Plug-In . SVG Version: 6.00 Build 0)  -->
<!DOCTYPE svg PUBLIC "-//W3C//DTD SVG 1.1//EN" "http://www.w3.org/Graphics/SVG/1.1/DTD/svg11.dtd">
<svg version="1.1" id="Layer_6" xmlns="http://www.w3.org/2000/svg" xmlns:xlink="http://www.w3.org/1999/xlink" x="0px" y="0px"
	 width="114px" height="114px" viewBox="0 0 114 114" enable-background="new 0 0 114 114" xml:space="preserve">
<g>
	<g>
		
			<rect x="17.07" y="17.069" transform="matrix(-0.7071 0.7071 -0.7071 -0.7071 137.6106 56.9998)" fill-rule="evenodd" clip-rule="evenodd" fill="#FFFFFF" width="79.861" height="79.861"/>
		<path d="M57,1.06L112.94,57L57,112.94L1.06,57L57,1.06 M57-0.001L-0.001,57L57,114.001L114.001,57L57-0.001L57-0.001z"/>
	</g>
	<g>
		<path d="M57,7.843L106.157,57L57,106.157L7.843,57L57,7.843 M57,6.782l-0.53,0.53L7.313,56.47L6.782,57l0.53,0.53l49.157,49.157
			l0.53,0.53l0.53-0.53l49.157-49.157l0.53-0.53l-0.53-0.53L57.53,7.313L57,6.782L57,6.782z"/>
	</g>
	<polygon id="polygon4293" points="106.999,57 57.073,106.926 7.147,57 	"/>
	<path id="path4363" d="M20.367,49.246v4.838H52.68v-4.838H40.558c0,0-0.596,0.178-0.705,0.37c-0.113,0.199-0.203,0.248-0.452,0.249
		c-0.324,0.001-0.547,0.123-1.041,0.571c-0.166,0.151-0.509,0.327-0.787,0.405c-0.483,0.135-1.23-0.11-1.23-0.11
		c-0.405-0.136-0.792-0.248-0.859-0.248c-0.319,0-1.164-0.474-1.411-0.792c-0.146-0.186-0.585-0.445-0.585-0.445H20.367
		L20.367,49.246z M31.827,48.079c-0.52-0.258-0.597-0.333-0.837-0.813c-0.276-0.551-0.523-0.746-0.951-0.748
		c-0.339-0.002-0.676-0.358-0.688-0.725c-0.054-1.762-0.088-1.889-0.653-2.413c-0.558-0.518-0.582-0.642-0.25-1.294
		c0.129-0.252,0.317-0.713,0.419-1.023c0.235-0.719,0.466-0.843,0.852-0.456c0.323,0.323,0.322,0.477-0.006,1.072
		c-0.389,0.705-0.359,0.96,0.163,1.401c0.534,0.451,0.765,0.923,0.676,1.386c-0.169,0.874-0.193,0.786,0.286,1.029
		c0.556,0.281,1.038,0.836,1.108,1.273c0.055,0.343,0.217,0.529,0.782,0.899c0.358,0.235,0.442,0.365,0.363,0.568
		C33.008,48.456,32.448,48.387,31.827,48.079z M34.535,48.095c-0.086-0.05-0.259-0.296-0.386-0.548
		c-0.127-0.252-0.365-0.607-0.528-0.789c-0.29-0.322-0.297-0.35-0.297-1.103c0-0.904-0.086-1.078-0.656-1.33
		c-0.532-0.235-0.629-0.443-0.485-1.044c0.146-0.606,0.058-0.863-0.411-1.211c-0.729-0.54-0.923-1.126-0.549-1.652
		c0.105-0.146,0.276-0.546,0.38-0.889c0.134-0.44,0.261-0.676,0.43-0.802c0.286-0.213,0.452-0.143,0.712,0.301
		c0.151,0.258,0.158,0.343,0.068,0.775c-0.056,0.267-0.183,0.642-0.283,0.833c-0.201,0.385-0.213,0.352,0.354,0.975
		c0.43,0.473,0.444,0.51,0.475,1.199c0.031,0.709,0.175,0.985,0.597,1.152c0.424,0.168,0.69,0.437,0.689,0.698
		c-0.001,0.125-0.08,0.478-0.176,0.784c-0.205,0.654-0.185,0.717,0.453,1.398c0.51,0.545,0.566,0.876,0.197,1.166
		C34.86,48.213,34.761,48.227,34.535,48.095z M40.467,46.716c-0.229-0.186-0.402-1.211-0.329-1.944
		c0.039-0.391,0.105-0.532,0.402-0.854c0.388-0.421,0.421-0.514,0.477-1.377c0.067-1.024,0.694-2.102,1.222-2.102
		c0.303,0,0.6,0.278,0.6,0.561c0,0.33-0.222,0.875-0.568,1.396c-0.301,0.454-0.315,0.506-0.259,0.984
		c0.056,0.478,0.045,0.519-0.207,0.786c-0.4,0.422-0.464,0.605-0.464,1.32c0,0.738-0.119,1.172-0.356,1.298
		C40.763,46.903,40.685,46.893,40.467,46.716z M41.774,46.552c-0.069-0.083-0.111-0.32-0.102-0.569
		c0.021-0.578,0.421-1.346,1.081-2.073c0.567-0.626,0.666-0.846,0.58-1.292c-0.174-0.908-0.169-1.016,0.063-1.404
		c0.124-0.208,0.356-0.478,0.516-0.599c0.924-0.703,1.036-0.881,1.168-1.853c0.079-0.577,0.328-0.937,0.722-1.046
		c0.395-0.109,0.723,0.016,0.882,0.336c0.129,0.26,0.042,0.522-0.322,0.963c-0.223,0.27-0.263,0.395-0.263,0.814
		c0,0.743-0.264,1.171-1.056,1.715c-0.394,0.271-0.698,0.553-0.779,0.723c-0.125,0.265-0.121,0.298,0.105,0.638
		c0.471,0.711,0.449,0.783-0.504,1.685c-0.625,0.592-0.907,0.932-1.079,1.299c-0.128,0.274-0.294,0.567-0.368,0.652
		C42.25,46.732,41.93,46.739,41.774,46.552z M36.541,45.549c-0.513-0.256-0.779-0.695-0.821-1.361
		c-0.038-0.603,0.122-1.084,0.663-1.988c0.159-0.266,0.353-0.673,0.429-0.903c0.076-0.23,0.191-0.418,0.254-0.418
		c0.064,0,0.416,0.3,0.783,0.667c0.892,0.892,1.115,1.362,1.115,2.353c0,0.918-0.169,1.219-0.883,1.579
		C37.503,45.769,37.027,45.791,36.541,45.549z M37.385,44.219c0.134-0.135,0.169-0.247,0.128-0.418
		c-0.072-0.303-0.343-0.675-0.491-0.675c-0.298,0-0.565,0.939-0.332,1.172C36.853,44.46,37.181,44.423,37.385,44.219z
		 M78.648,41.868c-0.328-0.224-0.183-0.498,0.56-1.053c0.223-0.168,0.267-0.268,0.303-0.698c0.046-0.548,0.261-0.825,0.64-0.825
		c0.231,0,0.351-0.126,0.428-0.448c0.03-0.125,0.172-0.376,0.315-0.557c0.155-0.195,0.302-0.525,0.361-0.811
		c0.109-0.524,0.324-0.789,0.709-0.874c0.422-0.093,0.468-0.226,0.311-0.914c-0.184-0.808-0.091-1.063,0.388-1.065
		c0.121-0.001,0.338,0.093,0.482,0.208c0.246,0.197,0.263,0.252,0.284,0.903c0.012,0.381,0.034,0.832,0.047,1.001
		c0.022,0.289-0.003,0.321-0.416,0.529c-0.47,0.236-0.541,0.375-0.562,1.097c-0.007,0.244-0.078,0.418-0.238,0.585
		c-0.125,0.13-0.266,0.41-0.313,0.621c-0.135,0.605-0.285,0.765-0.87,0.927c-0.35,0.097-0.542,0.2-0.576,0.309
		c-0.054,0.172-0.467,0.426-0.693,0.426c-0.073,0-0.29,0.159-0.482,0.353C78.98,41.932,78.832,41.994,78.648,41.868z M72.989,41.675
		c-0.37-0.232-0.629-0.796-0.632-1.374c-0.002-0.377,0.088-0.623,0.575-1.586c0.317-0.627,0.615-1.178,0.661-1.224
		c0.115-0.115,1.316,1.123,1.537,1.582c0.102,0.214,0.183,0.61,0.205,1.009c0.043,0.784-0.093,1.105-0.623,1.473
		C74.234,41.886,73.416,41.943,72.989,41.675z M73.853,40.526c0.21-0.21,0.22-0.364,0.047-0.698
		c-0.222-0.431-0.449-0.424-0.644,0.02c-0.153,0.348-0.134,0.654,0.046,0.759C73.531,40.74,73.657,40.722,73.853,40.526z
		 M68.389,41.206c-0.073-0.059-0.205-0.219-0.293-0.356c-0.097-0.152-0.376-0.346-0.719-0.5c-0.308-0.138-0.605-0.336-0.661-0.441
		c-0.056-0.105-0.231-0.244-0.388-0.31c-0.43-0.18-0.488-0.3-0.468-0.957c0.018-0.569,0.006-0.607-0.261-0.847
		c-0.153-0.138-0.521-0.339-0.816-0.446c-0.644-0.235-1.012-0.613-1.093-1.124c-0.048-0.299-0.125-0.407-0.45-0.63
		c-0.671-0.462-0.838-0.886-0.488-1.236c0.238-0.238,0.783-0.235,1.089,0.006c0.128,0.1,0.232,0.228,0.232,0.283
		c0,0.055,0.164,0.267,0.365,0.473c0.25,0.255,0.382,0.478,0.42,0.708c0.054,0.332,0.06,0.337,0.592,0.432
		c0.97,0.173,1.487,0.631,1.396,1.237c-0.04,0.27,0.001,0.438,0.197,0.804c0.34,0.63,0.778,1.08,1.053,1.08
		c0.151,0,0.403,0.174,0.794,0.551c0.843,0.809,0.891,0.987,0.338,1.249C68.882,41.345,68.573,41.354,68.389,41.206z M76.2,41.087
		c-0.329-0.329-0.297-0.603,0.127-1.063l0.36-0.39l-0.059-0.633c-0.057-0.62-0.053-0.638,0.204-0.882
		c0.172-0.164,0.246-0.307,0.217-0.418c-0.033-0.125,0.131-0.338,0.618-0.808c0.604-0.583,0.671-0.683,0.763-1.136
		c0.085-0.419,0.165-0.555,0.506-0.865l0.405-0.368l-0.055-0.777c-0.05-0.698-0.037-0.8,0.125-1.007
		c0.138-0.176,0.26-0.23,0.516-0.23c0.48,0,0.571,0.155,0.546,0.928c-0.016,0.509,0.018,0.726,0.16,1.002
		c0.277,0.544,0.237,0.7-0.305,1.201c-0.42,0.388-0.485,0.491-0.485,0.775c0,0.598-0.201,0.914-0.733,1.149
		c-0.742,0.328-1.272,1.225-1.158,1.959c0.049,0.316,0.021,0.379-0.374,0.827c-0.235,0.266-0.497,0.594-0.581,0.727
		C76.801,41.387,76.504,41.391,76.2,41.087z M70.128,40.459c-0.129-0.134-0.296-0.42-0.372-0.636
		c-0.165-0.468-0.413-0.752-0.854-0.978c-0.406-0.208-0.55-0.413-0.782-1.109c-0.123-0.37-0.317-0.701-0.589-1.003
		c-0.594-0.66-0.789-1.623-0.36-1.774c0.296-0.104,0.561,0.069,0.778,0.512c0.294,0.599,0.413,0.729,0.813,0.89
		c0.428,0.171,0.825,0.734,0.96,1.36c0.083,0.387,0.19,0.561,0.627,1.016c0.513,0.535,0.528,0.564,0.573,1.124
		c0.051,0.633-0.041,0.842-0.368,0.842C70.448,40.702,70.257,40.593,70.128,40.459z M36.717,39.61
		c-0.631-0.278-0.992-0.986-0.903-1.77c0.051-0.451,1.194-2.852,1.361-2.859c0.202-0.009,1.278,1.535,1.491,2.139
		c0.17,0.482,0.173,1.379,0.005,1.7C38.273,39.581,37.427,39.923,36.717,39.61z M37.481,38.266c0.089-0.08,0.161-0.25,0.161-0.377
		c0-0.31-0.332-0.793-0.549-0.798c-0.096-0.002-0.42,0.67-0.42,0.87C36.673,38.359,37.17,38.546,37.481,38.266z M73.192,37.209
		c-0.409-0.218-0.584-0.397-0.759-0.779c-0.323-0.705-0.188-1.396,0.517-2.643c0.192-0.339,0.397-0.765,0.456-0.946
		c0.059-0.181,0.148-0.355,0.198-0.386c0.119-0.073,1.24,1.039,1.581,1.57c0.299,0.463,0.492,1.432,0.392,1.964
		C75.414,36.856,73.942,37.609,73.192,37.209z M74.007,35.787c0.157-0.2,0.136-0.459-0.065-0.789
		c-0.243-0.398-0.475-0.374-0.652,0.068c-0.191,0.477-0.179,0.667,0.053,0.83C73.56,36.048,73.837,36.002,74.007,35.787z
		 M38.445,32.98c-0.189-0.172-0.316-0.404-0.401-0.736c-0.068-0.266-0.286-1.106-0.483-1.866c-0.198-0.76-0.36-1.536-0.36-1.725
		c0-0.702,0.754-0.997,1.323-0.518c0.147,0.124,0.316,0.209,0.375,0.189c0.059-0.02,0.94-0.235,1.958-0.48
		c1.017-0.244,2.682-0.645,3.7-0.89c1.018-0.245,2.346-0.566,2.952-0.711c0.606-0.146,1.756-0.426,2.555-0.623
		c1.803-0.445,2.359-0.468,2.946-0.124c0.321,0.189,0.467,0.35,0.63,0.699c0.561,1.205-0.071,2.325-1.519,2.695
		c-0.186,0.047-0.556,0.145-0.823,0.217c-0.267,0.072-0.921,0.248-1.454,0.391c-0.533,0.143-1.266,0.342-1.63,0.443
		c-0.363,0.101-1.117,0.303-1.674,0.45c-1.198,0.315-4.015,1.075-4.89,1.318c-0.339,0.095-0.874,0.24-1.189,0.323
		c-0.623,0.164-0.881,0.33-0.881,0.568c0,0.24-0.282,0.519-0.583,0.577C38.774,33.221,38.668,33.183,38.445,32.98z M49.78,29.083
		c1.4-0.383,2.661-0.756,2.803-0.829c0.755-0.393,1.028-1.178,0.661-1.898c-0.43-0.843-0.968-0.827-4.985,0.149
		c-2.829,0.687-4.787,1.159-8.15,1.966c-1.7,0.408-1.915,0.482-2.033,0.703c-0.069,0.13-0.042,0.211,0.131,0.384l0.22,0.22h4.404
		h4.404L49.78,29.083z M71.807,32.826c-0.11-0.054-0.278-0.264-0.373-0.469c-0.103-0.221-0.263-0.407-0.397-0.459
		c-0.201-0.079-2.428-0.685-8.99-2.446c-2.494-0.67-3.477-0.946-3.793-1.069c-0.607-0.235-1.135-0.973-1.139-1.592
		c-0.005-0.818,0.526-1.583,1.232-1.773c0.553-0.149,0.975-0.085,3.436,0.517c1.187,0.291,2.575,0.628,3.084,0.75
		c1.994,0.478,3.2,0.769,4.951,1.195c2.488,0.605,2.446,0.6,2.707,0.322c0.354-0.378,0.968-0.258,1.203,0.234
		c0.133,0.28,0.121,0.36-0.392,2.348c-0.551,2.139-0.674,2.414-1.118,2.499C72.102,32.906,71.917,32.88,71.807,32.826z
		 M72.763,29.294c0.115-0.075,0.209-0.183,0.209-0.239c0-0.141-0.358-0.51-0.495-0.51c-0.061,0-1.016-0.219-2.121-0.486
		c-2.891-0.698-5.575-1.344-6.591-1.587c-0.484-0.116-1.714-0.413-2.731-0.661c-2.437-0.594-2.925-0.55-3.309,0.297
		c-0.209,0.461-0.214,0.819-0.017,1.182c0.322,0.592,0.67,0.742,3.414,1.48c0.679,0.182,1.541,0.414,1.917,0.516
		c0.657,0.178,0.854,0.185,5.099,0.166C71.959,29.433,72.582,29.412,72.763,29.294z"/>
	<path id="path4298" d="M68.218,42.692h0.055h2.381c0.181,0,0.292,0.16,0.459,0.422c0.138,0.217,0.294,0.462,0.552,0.603
		c0.32,0.174,1.96,0.967,2.379,0.907c0.112-0.016,0.277-0.003,0.452,0.011c0.256,0.02,0.547,0.043,0.802-0.013
		c0.459-0.102,0.892-0.405,1.071-0.585c0.125-0.125,0.25-0.166,0.554-0.266l0.12-0.04c0.454-0.152,0.708-0.501,0.718-0.516
		c0.086-0.114,0.283-0.319,0.432-0.369c0.012-0.004,1.222-0.402,2.108-0.215c0.77,0.162,1.634,0.662,2.023,1.052
		c0.084,0.084,0.179,0.185,0.28,0.293c0.405,0.432,0.865,0.921,1.263,1.04c0.454,0.136,0.858,0.182,0.876,0.184l0.011,0.001h0.011
		h4.557v-0.398h-4.545c-0.052-0.006-0.406-0.052-0.795-0.168c-0.296-0.089-0.753-0.576-1.088-0.932
		c-0.103-0.11-0.201-0.213-0.289-0.301c-0.425-0.425-1.348-0.976-2.223-1.16c-0.991-0.209-2.262,0.209-2.316,0.227
		c-0.315,0.105-0.596,0.47-0.627,0.512c-0.004,0.006-0.195,0.264-0.523,0.373l-0.119,0.039c-0.324,0.107-0.519,0.171-0.711,0.363
		c-0.14,0.141-0.502,0.395-0.876,0.477c-0.198,0.044-0.445,0.024-0.685,0.005c-0.197-0.016-0.384-0.03-0.539-0.008
		c-0.225,0.023-1.549-0.544-2.133-0.862c-0.167-0.091-0.284-0.274-0.407-0.467c-0.181-0.284-0.386-0.606-0.794-0.606h-2.378
		c0.003-0.001-0.013-0.003-0.033-0.003h-0.015c-0.016,0.002-0.03,0.004-0.03,0.004v0.001c-0.878,0.026-1.586,0.752-1.586,1.627
		c0,0.491,0.224,0.935,0.574,1.235h-6.681c0.006,0-0.009-0.003-0.029-0.003h-0.015c-0.013,0.001-0.028,0.004-0.028,0.004v0.001
		c-0.768,0.025-1.386,0.66-1.386,1.425c0,0.403,0.174,0.768,0.449,1.029h-1.49c0.006,0-0.009-0.003-0.029-0.003h-0.015
		c-0.013,0.001-0.028,0.004-0.028,0.004v0.001c-0.768,0.025-1.386,0.66-1.386,1.425c0,0.771,0.628,1.411,1.399,1.427
		c0,0,0.001,0,0.001,0c-0.006,0,0.009,0.003,0.029,0.003h0.015c0.009-0.001,0.016-0.002,0.022-0.003h1.727
		c-0.275,0.261-0.449,0.625-0.449,1.029c0,0.771,0.628,1.411,1.4,1.427h0.001c-0.006,0,0.009,0.003,0.029,0.003h0.015
		c0.008-0.001,0.016-0.002,0.021-0.003h0.842c-0.275,0.261-0.449,0.625-0.449,1.029c0,0.771,0.628,1.411,1.4,1.427h0.001
		c-0.006,0,0.009,0.003,0.029,0.003h0.015c0.008-0.001,0.016-0.002,0.021-0.003h9.609c0.857,0,2.104-0.224,3.546-0.483
		c0.589-0.106,1.199-0.215,1.816-0.316c0.448-0.073,0.909-0.106,1.354-0.139c0.644-0.047,1.309-0.096,1.939-0.263
		c0.538-0.143,0.981-0.394,1.409-0.636c0.226-0.128,0.439-0.248,0.658-0.349c0.847-0.389,1.614-0.557,1.819-0.557h4.557v-0.398
		h-4.557c-0.333,0-1.187,0.227-1.985,0.593c-0.234,0.107-0.465,0.238-0.688,0.364c-0.406,0.23-0.827,0.468-1.315,0.598
		c-0.594,0.158-1.212,0.203-1.865,0.251c-0.454,0.033-0.924,0.068-1.389,0.143c-0.621,0.101-1.232,0.21-1.822,0.317
		c-1.424,0.256-2.654,0.477-3.476,0.477h-9.62h-0.051c-0.553-0.012-1.006-0.473-1.006-1.029c0-0.555,0.453-1.017,1.01-1.029h0.047
		h6.368v-0.398h-6.365c0.006,0-0.009-0.003-0.029-0.003h-0.015c-0.009,0.001-0.016,0.002-0.022,0.003h-1.796h-0.051
		c-0.553-0.012-1.006-0.473-1.006-1.029c0-0.555,0.453-1.017,1.01-1.029h0.047h7.563v-0.398h-7.56c0.006,0-0.009-0.003-0.029-0.003
		h-0.015c-0.009,0.001-0.016,0.002-0.022,0.003h-2.681h-0.051c-0.552-0.012-1.005-0.473-1.005-1.029
		c0-0.555,0.453-1.017,1.009-1.029h0.047h2.444h0.001c-0.006,0,0.009,0.003,0.029,0.003h0.015c0.009-0.001,0.016-0.002,0.022-0.003
		h5.805h2.19v-0.398h-2.19h-5.815h-0.051c-0.552-0.012-1.005-0.473-1.005-1.029s0.453-1.017,1.01-1.029h0.047h11.681
		c0.104,0.019,0.821,0.164,1.348,0.616c0.156,0.134,0.404,0.43,0.69,0.772c0.841,1.005,1.994,2.382,3.016,2.417l0.014-0.398
		c-0.844-0.029-1.975-1.38-2.724-2.275c-0.31-0.37-0.555-0.663-0.736-0.819c-0.654-0.561-1.522-0.703-1.559-0.709l-0.009,0.056
		v-0.059h-3.951l0-0.005h-0.06c-0.661-0.014-1.203-0.566-1.203-1.229C67.011,43.258,67.552,42.706,68.218,42.692z"/>
	<path id="path4386" fill="#FFFFFF" d="M53.421,88.677c-0.644-0.407-1.113-0.861-1.408-1.364c-0.403-0.686-0.604-1.475-0.604-2.369
		c0-1.467,0.582-2.668,1.747-3.602c0.908-0.718,2.11-1.077,3.604-1.077c1.978,0,3.441,0.447,4.386,1.34
		c0.946,0.894,1.419,2.018,1.419,3.374c0,0.79-0.188,1.528-0.564,2.214c-0.282,0.51-0.725,1.005-1.329,1.484
		c0.799,0.455,1.394,1.058,1.787,1.807c0.392,0.75,0.589,1.58,0.589,2.49c0,0.878-0.17,1.698-0.51,2.46
		c-0.34,0.762-0.757,1.351-1.252,1.766c-0.495,0.415-1.111,0.721-1.848,0.916c-0.737,0.195-1.523,0.293-2.358,0.293
		c-1.568,0-2.767-0.219-3.595-0.658c-0.828-0.439-1.457-1.085-1.888-1.939c-0.431-0.854-0.646-1.807-0.646-2.861
		c0-1.029,0.201-1.901,0.605-2.616C51.96,89.621,52.581,89.068,53.421,88.677z M55.043,92.785c0,0.776,0.199,1.41,0.599,1.903
		c0.399,0.492,0.856,0.738,1.371,0.738c0.494,0,0.937-0.25,1.33-0.75c0.392-0.5,0.589-1.134,0.589-1.902
		c0-0.776-0.198-1.412-0.594-1.908c-0.396-0.496-0.854-0.744-1.375-0.744c-0.514,0-0.963,0.24-1.345,0.72
		C55.234,91.321,55.043,91.969,55.043,92.785z M55.272,85.226c0,0.609,0.16,1.1,0.48,1.473c0.32,0.373,0.747,0.559,1.28,0.559
		c0.472,0,0.86-0.184,1.164-0.553c0.303-0.368,0.455-0.845,0.455-1.43c0-0.609-0.159-1.104-0.476-1.484
		c-0.317-0.381-0.722-0.571-1.214-0.571c-0.499,0-0.906,0.186-1.219,0.559C55.429,84.151,55.272,84.633,55.272,85.226z"/>
</g>
</svg>
