<?xml version="1.0" encoding="utf-8"?>
<!-- Generator: Adobe Illustrator 17.0.0, SVG Export Plug-In . SVG Version: 6.00 Build 0)  -->
<!DOCTYPE svg PUBLIC "-//W3C//DTD SVG 1.1//EN" "http://www.w3.org/Graphics/SVG/1.1/DTD/svg11.dtd">
<svg version="1.1" id="Layer_8" xmlns="http://www.w3.org/2000/svg" xmlns:xlink="http://www.w3.org/1999/xlink" x="0px" y="0px"
	 width="114px" height="114px" viewBox="0 0 114 114" enable-background="new 0 0 114 114" xml:space="preserve">
<g>
	<g>
		
			<rect x="17.07" y="17.069" transform="matrix(-0.7071 0.7071 -0.7071 -0.7071 137.6106 56.9998)" fill-rule="evenodd" clip-rule="evenodd" fill="#2AB673" width="79.861" height="79.861"/>
		<path d="M57,1.06L112.94,57L57,112.94L1.06,57L57,1.06 M57-0.001L-0.001,57L57,114.001L114.001,57L57-0.001L57-0.001z"/>
	</g>
	<path fill="#FFFFFF" d="M63.207,85.283c0-3.195-3.124-5.48-6.708-4.907c-2.421,0.387-4.613,2.24-5.141,4.346
		c-0.218,0.87-0.099,0.966,1.726,1.387c1.078,0.249,1.986,0.407,2.018,0.352c1.006-1.755,1.475-2.202,2.205-2.098
		c1.215,0.173,1.27,1.866,0.124,3.821c-0.517,0.882-2.221,2.821-3.788,4.309c-2.613,2.482-2.849,2.829-2.849,4.196l-0.125,1.731
		l3.04-0.106c1.603,0.074,1.603,0.074,6.113,0.11l3.197-0.025v-2.069V94.26l-2.918-0.188l-2.918-0.188l2.393-2.137
		C62.318,89.297,63.207,87.716,63.207,85.283z"/>
	<g>
		<path fill="#FFFFFF" d="M57,7.843L106.157,57L57,106.157L7.843,57L57,7.843 M57,6.782l-0.53,0.53L7.313,56.47L6.782,57l0.53,0.53
			l49.157,49.157l0.53,0.53l0.53-0.53l49.157-49.157l0.53-0.53l-0.53-0.53L57.53,7.313L57,6.782L57,6.782z"/>
	</g>
	<path fill="#FFFFFF" d="M89.562,46.42c-0.451-2.053-1.881-2.516-5.291-1.712c-3.739,0.881-5.214,0.833-6.81-0.224
		c-0.84-0.556-2.092-0.888-3.352-0.887c-2.899,0.001-54.035,8.784-54.79,9.411c-1.21,1.005-0.424,7.692,1.035,8.797
		c0.406,0.307,1.152,0.559,1.658,0.56c0.506,0.001,12.284-1.71,26.174-3.802c13.889-2.092,26.048-4.049,27.019-4.348
		c0.971-0.3,2.628-1.291,3.682-2.203c1.422-1.23,2.466-1.729,4.045-1.93c4.292-0.547,4.989-0.723,5.95-1.501
		C89.662,47.947,89.8,47.508,89.562,46.42z"/>
</g>
</svg>
