<?xml version="1.0" encoding="utf-8"?>
<!-- Generator: Adobe Illustrator 17.0.0, SVG Export Plug-In . SVG Version: 6.00 Build 0)  -->
<!DOCTYPE svg PUBLIC "-//W3C//DTD SVG 1.1//EN" "http://www.w3.org/Graphics/SVG/1.1/DTD/svg11.dtd">
<svg version="1.1" id="Layer_1" xmlns="http://www.w3.org/2000/svg" xmlns:xlink="http://www.w3.org/1999/xlink" x="0px" y="0px"
	 width="114px" height="114px" viewBox="0 0 114 114" enable-background="new 0 0 114 114" xml:space="preserve">
<g>
	
		<rect x="17.07" y="17.069" transform="matrix(-0.7071 0.7071 -0.7071 -0.7071 137.6106 56.9998)" fill-rule="evenodd" clip-rule="evenodd" fill="#FFFFFF" width="79.861" height="79.861"/>
	<path d="M57,1.06L112.94,57L57,112.94L1.06,57L57,1.06 M57-0.001L-0.001,57L57,114.001L114.001,57L57-0.001L57-0.001z"/>
</g>
<g>
	<path d="M57,7.843L106.157,57L57,106.157L7.843,57L57,7.843 M57,6.782l-0.53,0.53L7.313,56.47L6.782,57l0.53,0.53l49.157,49.157
		l0.53,0.53l0.53-0.53l49.157-49.157l0.53-0.53l-0.53-0.53L57.53,7.313L57,6.782L57,6.782z"/>
</g>
<g>
	<path d="M57,0.706L112.794,56.5H1.206L57,0.706 M57-0.001L-0.001,57h114.001L57-0.001L57-0.001z"/>
</g>
<polygon points="26.408,56.739 26.408,30.592 17.779,39.22 17.779,56.739 "/>
<polygon points="8.89,56.739 8.89,48.11 0.262,56.738 0.262,56.739 "/>
<polygon points="96.221,56.739 96.221,39.22 87.592,30.592 87.592,56.739 "/>
<polygon points="43.927,56.739 43.927,13.072 35.299,21.701 35.299,56.739 "/>
<polygon points="113.738,56.739 113.738,56.738 105.11,48.11 105.11,56.739 "/>
<polygon points="78.701,56.739 78.701,21.701 70.073,13.072 70.073,56.739 "/>
<polygon points="61.445,56.739 61.445,4.444 57,-0.001 52.817,4.183 52.817,56.739 "/>
<path d="M53.089,97.319c0.849,0.733,1.962,1.101,3.34,1.101c1.914,0,3.468-0.714,4.662-2.139c1.194-1.426,1.79-3.749,1.79-6.969
	c0-3.165-0.573-5.437-1.718-6.82c-1.145-1.381-2.612-2.073-4.397-2.073c-1.643,0-2.994,0.547-4.056,1.641
	c-1.062,1.093-1.591,2.533-1.591,4.319c0,1.715,0.502,3.106,1.508,4.176c1.004,1.068,2.199,1.604,3.586,1.604
	c1.274,0,2.336-0.493,3.185-1.479c-0.136,2.02-0.449,3.35-0.937,3.99c-0.489,0.64-1.081,0.961-1.779,0.961
	c-0.552,0-0.996-0.16-1.333-0.48c-0.337-0.321-0.545-0.813-0.624-1.479l-3.27,0.361C51.695,95.492,52.24,96.587,53.089,97.319
	L53.089,97.319z M58.429,88.914c-0.444,0.513-0.991,0.77-1.64,0.77c-0.674,0-1.234-0.266-1.683-0.799
	c-0.449-0.533-0.672-1.368-0.672-2.506c0-1.121,0.205-1.928,0.618-2.421c0.414-0.492,0.932-0.74,1.556-0.74
	c0.658,0,1.237,0.302,1.737,0.902c0.501,0.602,0.751,1.445,0.751,2.535C59.097,87.65,58.874,88.402,58.429,88.914L58.429,88.914z"/>
</svg>
