<?xml version="1.0" encoding="utf-8"?>
<!-- Generator: Adobe Illustrator 17.0.0, SVG Export Plug-In . SVG Version: 6.00 Build 0)  -->
<!DOCTYPE svg PUBLIC "-//W3C//DTD SVG 1.1//EN" "http://www.w3.org/Graphics/SVG/1.1/DTD/svg11.dtd">
<svg version="1.1" id="Layer_9_copy" xmlns="http://www.w3.org/2000/svg" xmlns:xlink="http://www.w3.org/1999/xlink" x="0px"
	 y="0px" width="114px" height="114px" viewBox="0 0 114 114" enable-background="new 0 0 114 114" xml:space="preserve">
<g>
	<g>
		<polygon fill-rule="evenodd" clip-rule="evenodd" fill="#ED193A" points="114.001,57 57,114.001 -0.001,57 		"/>
	</g>
	<g>
		<polygon fill-rule="evenodd" clip-rule="evenodd" fill="#FFFFFF" points="-0.001,57.001 57,0 114.001,57.001 		"/>
	</g>
	<g>
		<path d="M57,1.06L112.94,57L57,112.94L1.06,57L57,1.06 M57-0.001L-0.001,57L57,114.001L114.001,57L57-0.001L57-0.001z"/>
	</g>
	<g>
		<path d="M57,7.843L106.157,57L57,106.157L7.843,57L57,7.843 M57,6.782l-0.53,0.53L7.313,56.47L6.782,57l0.53,0.53l49.157,49.157
			l0.53,0.53l0.53-0.53l49.157-49.157l0.53-0.53l-0.53-0.53L57.53,7.313L57,6.782L57,6.782z"/>
	</g>
	<path id="path3414" fill="#010101" d="M57.895,98.405v-3.633h-7.378v-3.01l7.821-11.465h2.909v11.454h2.235v3.022h-2.235v3.633
		L57.895,98.405L57.895,98.405z M57.895,91.751v-6.165l-4.145,6.165H57.895z"/>
	<path d="M42.188,71.75c-3.129-0.017-3.224,0.022-3.382,1.391l-0.162,1.408l13.299,0.155c7.314,0.085,15.501,0.147,18.193,0.138
		l4.894-0.018l0.163-1.417l0.163-1.417l-14.974-0.112C52.146,71.817,43.959,71.759,42.188,71.75z"/>
	<path d="M77.254,46.747c-0.419,0-0.625,0.222-0.458,0.493c0.737,1.192-2.815,6.381-3.736,5.459
		c-0.114-0.114,0.607-2.021,1.601-4.238c2.482-5.538,2.668-8.482,0.679-10.794l-1.213-1.41l-0.371,2.026
		c-0.521,2.843-2.475,5.972-4.453,7.128c-1.231,0.719-1.609,0.788-1.417,0.258c0.144-0.398,0.692-2.411,1.219-4.474
		c1.338-5.24,0.626-8.811-2.31-11.576c-2.438-2.297-3.313-2.503-2.593-0.61c0.742,1.953,0.61,6.697-0.244,8.741
		c-0.758,1.814-2.106,2.537-1.65,0.885c1.397-5.059,0.655-9.887-2.265-14.728c-1.815-3.01-2.035-3.737-2.035-6.721
		c0-1.841-0.237-3.493-0.527-3.672c-0.293-0.181-1.146,1.004-1.926,2.674c-1.668,3.576-1.702,6.395-0.142,11.756
		c0.577,1.982,1.049,3.826,1.049,4.097c0,0.271-0.869-0.355-1.932-1.391c-1.063-1.036-2.975-2.434-4.25-3.105
		c-1.488-0.784-2.377-1.623-2.483-2.342c-0.091-0.616-0.496-1.121-0.901-1.121c-1.305,0-0.835,2.737,0.813,4.737
		c2.022,2.453,2.335,4.27,1.538,8.927l-0.655,3.83l-2.961-2.565c-1.629-1.411-3.223-2.565-3.544-2.565
		c-0.346,0-0.092,0.995,0.624,2.447c1.261,2.556,1.258,2.235,0.062,9.339l-0.293,1.741l-1.639-1.53
		c-2.219-2.072-4.983-3.93-5.33-3.582c-0.156,0.156,0.163,0.935,0.709,1.73c0.546,0.796,1.382,3.301,1.858,5.568
		c0.475,2.267,1.566,5.552,2.424,7.301c1.767,3.603,6.094,7.912,8.817,8.783c2.195,0.701,5.596,0.81,5.596,0.178
		c0-0.264-0.451-0.624-1.002-0.798c-2.364-0.75-9.143-9.869-8.107-10.905c0.215-0.215,1.071-0.134,1.903,0.18l1.513,0.571
		l-0.31-2.97c-0.177-1.688-0.099-3.101,0.18-3.273c0.27-0.167,1.235,1.519,2.145,3.745c1.748,4.275,3.725,6.903,2.923,3.885
		c-1.39-5.228-1.624-8.625-0.754-10.914c0.646-1.699,1.164-1.091,1.723,2.021c0.395,2.197,2.019,3.491,2.747,2.189
		c0.419-0.749,0.163-3.912-0.657-8.107c-0.547-2.801,0.594-2.497,1.934,0.515c1.146,2.577,1.382,6.002,0.673,9.788
		c-0.477,2.549-0.101,2.709,1.887,0.805l1.445-1.384v1.676c0,0.922-0.251,2.144-0.557,2.716c-1.07,1.998,0.102,1.665,2.157-0.614
		l2.072-2.297l-0.262,2.669c-0.3,3.052-1.554,5.651-4.244,8.793l-1.875,2.189h1.53c4.301,0,12.509-6.235,14.704-11.169
		C78.866,52.821,79.182,46.747,77.254,46.747z M59.101,38.42c-1.133,0.16-1.199,0.045-0.881-1.546
		c0.189-0.945,0.524-2.646,0.744-3.779l0.401-2.061l0.639,2.229C60.92,36.456,60.613,38.206,59.101,38.42z"/>
</g>
</svg>
