<?xml version="1.0" encoding="utf-8"?>
<!-- Generator: Adobe Illustrator 17.0.0, SVG Export Plug-In . SVG Version: 6.00 Build 0)  -->
<!DOCTYPE svg PUBLIC "-//W3C//DTD SVG 1.1//EN" "http://www.w3.org/Graphics/SVG/1.1/DTD/svg11.dtd">
<svg version="1.1" id="Layer_5" xmlns="http://www.w3.org/2000/svg" xmlns:xlink="http://www.w3.org/1999/xlink" x="0px" y="0px"
	 width="114px" height="114px" viewBox="0 0 114 114" enable-background="new 0 0 114 114" xml:space="preserve">
<g>
	<g>
		
			<rect x="17.07" y="17.069" transform="matrix(-0.7071 0.7071 -0.7071 -0.7071 137.6106 56.9998)" fill-rule="evenodd" clip-rule="evenodd" fill="#FFFFFF" width="79.861" height="79.861"/>
		<path d="M57,1.06L112.94,57L57,112.94L1.06,57L57,1.06 M57-0.001L-0.001,57L57,114.001L114.001,57L57-0.001L57-0.001z"/>
	</g>
	<g>
		<path d="M57,7.843L106.157,57L57,106.157L7.843,57L57,7.843 M57,6.782l-0.53,0.53L7.313,56.47L6.782,57l0.53,0.53l49.157,49.157
			l0.53,0.53l0.53-0.53l49.157-49.157l0.53-0.53l-0.53-0.53L57.53,7.313L57,6.782L57,6.782z"/>
	</g>
	<polygon fill="#FFFFFF" points="106.167,57 57,106.167 7.834,57 	"/>
	<g>
		<polygon fill-rule="evenodd" clip-rule="evenodd" fill="#FFFF00" points="57,7.843 106.157,57 7.843,57 57,7.843 		"/>
	</g>
	<rect x="7.333" y="56.7" fill-rule="evenodd" clip-rule="evenodd" width="99" height="0.75"/>
	<g>
		<path d="M53.484,58.445l-8.166,14.152c7.433,4.292,15.896,4.292,23.33,0l-8.166-14.152c-0.052,0.035-0.105,0.07-0.157,0.105
			c-0.192,0.104-0.402,0.209-0.611,0.297c-0.209,0.087-0.419,0.174-0.646,0.244c-0.227,0.07-0.436,0.122-0.663,0.174
			c-0.227,0.052-0.454,0.087-0.698,0.105c-0.227,0.018-0.471,0.035-0.715,0.035c-0.244,0-0.471-0.017-0.715-0.035
			c-0.227-0.018-0.471-0.052-0.698-0.105c-0.227-0.052-0.453-0.104-0.663-0.174c-0.227-0.07-0.436-0.14-0.646-0.244
			c-0.209-0.088-0.419-0.192-0.611-0.297C53.589,58.515,53.536,58.48,53.484,58.445z"/>
		<path d="M45.317,32.184c-7.433,4.293-11.656,11.621-11.656,20.206h16.333c0-0.244,0.017-0.489,0.035-0.715
			c0.018-0.227,0.07-0.471,0.105-0.698c0.052-0.227,0.105-0.453,0.175-0.663c0.07-0.227,0.139-0.436,0.244-0.646
			c0.088-0.209,0.192-0.419,0.297-0.611c0.105-0.192,0.227-0.384,0.349-0.576c0.123-0.192,0.262-0.367,0.402-0.541
			c0.139-0.175,0.297-0.331,0.453-0.489c0.157-0.157,0.332-0.314,0.506-0.454c0.175-0.14,0.349-0.279,0.541-0.401
			c0.14-0.087,0.279-0.175,0.419-0.262L45.317,32.184z"/>
		<path d="M68.647,32.184l-8.166,14.152c0.139,0.087,0.279,0.157,0.419,0.262c0.192,0.122,0.366,0.262,0.541,0.401
			c0.175,0.14,0.331,0.297,0.506,0.454c0.157,0.157,0.314,0.331,0.454,0.489c0.139,0.175,0.279,0.349,0.401,0.541
			c0.122,0.192,0.244,0.384,0.349,0.576c0.105,0.192,0.209,0.401,0.297,0.611c0.087,0.21,0.175,0.419,0.244,0.646
			c0.07,0.227,0.122,0.436,0.175,0.663c0.052,0.227,0.087,0.454,0.105,0.698c0.017,0.227,0.035,0.471,0.035,0.715l16.333,0
			C80.304,43.805,76.081,36.476,68.647,32.184z"/>
		<circle cx="56.974" cy="52.39" r="4.659"/>
	</g>
	<path d="M50.669,80.326l12.663,0v3.066c-0.86,1.259-1.602,2.604-2.227,4.034c-0.626,1.431-1.202,2.996-1.729,4.696
		c-0.313,0.997-0.562,1.97-0.748,2.918c-0.186,0.948-0.366,2.044-0.542,3.286l-5.071,0c0-0.589,0.107-1.341,0.322-2.256
		c0.215-0.915,0.503-1.892,0.865-2.931c0.362-1.038,0.737-2.015,1.129-2.931c0.39-0.915,0.752-1.683,1.085-2.305l2.286-4.267
		l-8.032,0L50.669,80.326L50.669,80.326z"/>
</g>
</svg>
