<?xml version="1.0" encoding="iso-8859-1"?>
<!-- Generator: Adobe Illustrator 19.0.0, SVG Export Plug-In . SVG Version: 6.00 Build 0)  -->
<svg version="1.1" id="Capa_1" xmlns="http://www.w3.org/2000/svg" xmlns:xlink="http://www.w3.org/1999/xlink" x="0px" y="0px"
	 viewBox="0 0 480 480" xml:space="preserve">
<g>
	<path style="fill:#525C5B;" d="M152,144H96c-4.418,0-8-3.582-8-8v-32h16v24h48V144z"/>
	<path style="fill:#525C5B;" d="M328.004,448.01h40v16h-40V448.01z"/>
</g>
<path style="fill:#DB5437;" d="M384,280h96v56h-96V280z"/>
<path style="fill:#BD4930;" d="M480,336h-96l96-56V336z"/>
<path style="fill:#5C4E36;" d="M368,280h16v168h-16V280z"/>
<path style="fill:#5EB8AB;" d="M392,456.019c-0.011,8.837-7.183,15.991-16.019,15.981c-8.837-0.011-15.991-7.183-15.981-16.019
	c0.011-8.829,7.171-15.981,16-15.981c8.829-0.008,15.992,7.144,16,15.973C392,455.988,392,456.004,392,456.019z"/>
<path style="fill:#D3AC5C;" d="M56,48h80v64H56V48z"/>
<path style="fill:#C4A055;" d="M56,112h80V48L56,112z"/>
<path style="fill:#60A867;" d="M96,8L40,48h112L96,8z"/>
<path style="fill:#919190;" d="M304,464.02L164,464c-15.464,0-28-12.536-28-28s12.536-28,28-28l0,0h136c6.627,0,12-5.373,12-12
	s-5.373-12-12-12H48c-26.51,0-48-21.49-48-48s21.49-48,48-48h244c11.046,0,20-8.954,20-20s-8.954-20-20-20h-84
	c-17.673,0-32-14.327-32-32s14.327-32,32-32h236c11.046,0,20-8.954,20-20s-8.954-20-20-20H168v-16h276c19.882,0,36,16.118,36,36
	s-16.118,36-36,36H208c-8.837,0-16,7.163-16,16s7.163,16,16,16h84c19.882,0,36,16.118,36,36s-16.118,36-36,36H48
	c-17.673,0-32,14.327-32,32s14.327,32,32,32h252c15.464,0,28,12.536,28,28s-12.536,28-28,28H164c-6.627,0-12,5.373-12,12
	s5.373,12,12,12l140,0.02V464.02z"/>

</svg>
