<?xml version="1.0" encoding="UTF-8" ?>
<!DOCTYPE svg PUBLIC "-//W3C//DTD SVG 1.1//EN" "http://www.w3.org/Graphics/SVG/1.1/DTD/svg11.dtd">
<svg width="440pt" height="440pt" viewBox="0 0 440 440" version="1.1" xmlns="http://www.w3.org/2000/svg">
<g id="#000000ed">
<path fill="#000000" opacity="0.93" d=" M 217.00 40.00 C 218.50 40.00 221.50 40.00 223.00 40.00 C 223.00 47.00 223.00 54.00 223.00 61.00 C 221.50 61.00 218.50 61.00 217.00 61.00 C 216.99 54.00 216.99 47.00 217.00 40.00 Z" />
<path fill="#000000" opacity="0.93" d=" M 201.51 40.57 C 202.42 46.22 203.22 51.91 203.15 57.65 C 201.19 52.20 201.47 46.28 201.51 40.57 Z" />
<path fill="#000000" opacity="0.93" d=" M 237.20 41.36 C 237.89 41.41 239.26 41.49 239.94 41.54 C 239.24 46.96 238.44 52.38 236.76 57.60 C 236.36 52.18 236.78 46.76 237.20 41.36 Z" />
<path fill="#000000" opacity="0.93" d=" M 180.82 44.27 C 182.20 43.91 183.59 43.54 184.97 43.17 C 186.40 50.05 187.91 56.91 189.20 63.82 C 187.83 64.23 186.47 64.65 185.12 65.07 C 183.64 58.14 182.12 51.23 180.82 44.27 Z" />
<path fill="#000000" opacity="0.93" d=" M 255.10 43.21 C 256.46 43.56 257.82 43.92 259.20 44.27 C 257.91 51.23 256.43 58.15 254.82 65.04 C 253.47 64.64 252.13 64.22 250.79 63.81 C 252.06 56.91 253.54 50.05 255.10 43.21 Z" />
<path fill="#000000" opacity="0.93" d=" M 164.20 48.50 C 166.68 53.67 169.41 58.95 169.67 64.80 C 166.52 59.94 165.21 54.14 164.20 48.50 Z" />
<path fill="#000000" opacity="0.93" d=" M 269.86 65.45 C 270.12 59.56 272.00 53.77 275.23 48.85 C 273.95 54.52 272.59 60.27 269.86 65.45 Z" />
<path fill="#000000" opacity="0.93" d=" M 144.72 56.42 C 146.51 55.62 148.29 54.81 150.08 54.00 C 153.10 60.26 155.95 66.61 158.56 73.06 C 156.71 74.07 154.85 75.08 153.00 76.09 C 150.07 69.61 147.11 63.13 144.72 56.42 Z" />
<path fill="#000000" opacity="0.93" d=" M 289.94 54.02 C 291.74 54.83 293.53 55.64 295.34 56.44 C 292.85 63.11 289.88 69.58 286.98 76.08 C 285.13 75.07 283.28 74.07 281.44 73.05 C 284.06 66.62 286.96 60.30 289.94 54.02 Z" />
<path fill="#000000" opacity="0.93" d=" M 130.30 62.80 C 134.17 67.16 136.97 72.45 138.63 78.04 C 134.96 73.54 131.16 68.72 130.30 62.80 Z" />
<path fill="#000000" opacity="0.93" d=" M 300.18 79.11 C 301.97 73.60 304.76 68.24 309.22 64.43 C 307.28 69.87 304.55 75.22 300.18 79.11 Z" />
<path fill="#000000" opacity="0.93" d=" M 112.93 75.08 C 114.18 74.31 115.44 73.54 116.70 72.78 C 120.84 78.47 125.07 84.10 129.17 89.82 C 127.91 90.63 126.65 91.45 125.39 92.27 C 121.36 86.45 117.10 80.79 112.93 75.08 Z" />
<path fill="#000000" opacity="0.93" d=" M 323.28 72.67 C 324.53 73.47 325.79 74.28 327.04 75.09 C 322.98 80.87 318.90 86.63 314.73 92.34 C 313.47 91.54 312.22 90.73 310.97 89.92 C 315.07 84.17 319.13 78.39 323.28 72.67 Z" />
<path fill="#000000" opacity="0.93" d=" M 99.91 84.71 C 104.46 88.16 108.23 92.49 111.24 97.32 C 106.49 94.08 102.68 89.74 99.91 84.71 Z" />
<path fill="#000000" opacity="0.93" d=" M 327.25 98.91 C 330.48 94.15 334.44 89.84 339.24 86.64 C 335.98 91.38 331.99 95.63 327.25 98.91 Z" />
<path fill="#000000" opacity="0.93" d=" M 84.59 101.05 C 86.01 99.57 87.45 98.10 88.89 96.64 C 94.30 101.12 99.58 105.75 104.97 110.26 C 103.62 111.92 102.29 113.59 100.96 115.26 C 95.46 110.57 90.03 105.80 84.59 101.05 Z" />
<path fill="#000000" opacity="0.93" d=" M 335.00 110.29 C 340.41 105.76 345.67 101.06 351.16 96.63 C 352.44 98.32 353.71 100.03 354.98 101.73 C 349.60 106.28 344.43 111.06 338.90 115.42 C 337.59 113.72 336.30 112.00 335.00 110.29 Z" />
<path fill="#000000" opacity="0.93" d=" M 74.06 112.52 C 79.40 115.27 84.94 118.25 88.53 123.25 C 82.99 120.84 77.91 117.19 74.06 112.52 Z" />
<path fill="#000000" opacity="0.93" d=" M 349.43 124.20 C 353.70 120.08 358.36 115.91 364.21 114.34 C 359.90 118.42 355.18 122.39 349.43 124.20 Z" />
<path fill="#000000" opacity="0.93" d=" M 66.03 126.97 C 72.07 130.41 78.11 133.84 84.19 137.19 C 83.77 138.59 83.35 139.99 82.91 141.38 C 76.41 138.05 70.06 134.43 63.75 130.75 C 64.50 129.49 65.26 128.23 66.03 126.97 Z" />
<path fill="#000000" opacity="0.93" d=" M 355.64 137.79 C 361.64 134.05 367.73 130.45 373.88 126.96 C 374.60 128.30 375.33 129.65 376.07 130.99 C 369.77 134.57 363.62 138.50 356.93 141.33 C 356.61 140.44 355.96 138.67 355.64 137.79 Z" />
<path fill="#000000" opacity="0.93" d=" M 55.37 145.22 C 61.17 146.80 67.40 148.37 71.76 152.81 C 65.85 151.46 60.18 148.91 55.37 145.22 Z" />
<path fill="#000000" opacity="0.93" d=" M 366.22 153.81 C 370.43 149.45 376.51 147.72 382.31 146.63 C 377.56 150.16 371.96 152.47 366.22 153.81 Z" />
<path fill="#000000" opacity="0.93" d=" M 50.82 160.11 C 57.53 162.30 64.31 164.31 71.07 166.35 C 70.37 168.32 69.67 170.29 68.95 172.26 C 62.13 170.31 55.33 168.28 48.62 166.00 C 49.33 164.03 50.07 162.07 50.82 160.11 Z" />
<path fill="#000000" opacity="0.93" d=" M 368.87 167.10 C 375.57 164.65 382.33 162.37 389.09 160.06 C 389.78 162.00 390.46 163.95 391.13 165.90 C 384.42 168.34 377.67 170.64 370.91 172.94 C 370.22 170.99 369.53 169.05 368.87 167.10 Z" />
<path fill="#000000" opacity="0.93" d=" M 44.36 180.81 C 49.90 181.48 55.66 181.79 60.79 184.21 C 55.05 184.80 49.47 183.28 44.36 180.81 Z" />
<path fill="#000000" opacity="0.93" d=" M 376.53 184.44 C 382.03 182.78 387.72 181.77 393.47 181.56 C 387.96 183.22 382.27 184.23 376.53 184.44 Z" />
<path fill="#000000" opacity="0.93" d=" M 40.89 197.19 C 46.97 197.53 53.07 197.91 59.09 198.94 C 61.61 199.27 64.21 200.52 64.13 203.93 C 57.04 203.48 49.82 203.18 42.97 201.29 L 40.89 197.19 Z" />
<path fill="#000000" opacity="0.93" d=" M 376.14 199.87 C 383.40 198.96 390.68 198.32 397.99 197.84 C 397.98 199.18 397.97 200.53 397.97 201.87 C 391.04 202.49 384.14 203.22 377.23 203.95 C 376.86 202.59 376.50 201.23 376.14 199.87 Z" />
<path fill="#000000" opacity="0.93" d=" M 41.00 217.00 C 46.33 217.00 51.67 217.00 57.00 217.00 C 57.00 217.50 57.00 218.50 57.00 219.00 C 51.67 219.00 46.33 219.00 41.00 219.00 C 41.00 218.50 41.00 217.50 41.00 217.00 Z" />
<path fill="#000000" opacity="0.93" d=" M 379.50 218.15 C 384.99 217.63 390.49 217.18 396.00 216.81 C 395.99 217.60 395.97 219.18 395.96 219.97 C 390.47 219.35 384.96 218.98 379.50 218.15 Z" />
<path fill="#000000" opacity="0.93" d=" M 42.02 233.19 C 48.84 232.69 55.67 232.18 62.48 231.48 C 62.61 233.05 62.89 236.19 63.03 237.76 C 56.02 238.34 49.02 239.11 42.03 239.93 C 42.03 238.24 42.02 234.87 42.02 233.19 Z" />
<path fill="#000000" opacity="0.93" d=" M 377.28 231.73 C 383.92 232.21 390.86 232.18 397.20 234.35 C 397.61 235.77 398.43 238.60 398.83 240.02 C 391.21 239.74 383.63 238.90 376.07 237.94 C 376.48 235.87 376.88 233.79 377.28 231.73 Z" />
<path fill="#000000" opacity="0.93" d=" M 44.38 255.29 C 49.73 253.21 55.47 252.40 61.16 251.95 C 55.96 254.58 50.23 255.86 44.38 255.29 Z" />
<path fill="#000000" opacity="0.93" d=" M 376.33 251.47 C 381.92 252.24 387.99 252.26 392.82 255.56 C 387.15 255.15 381.32 254.40 376.33 251.47 Z" />
<path fill="#000000" opacity="0.93" d=" M 48.96 271.17 C 55.83 268.83 62.74 266.63 69.77 264.81 C 70.08 266.11 70.40 267.41 70.73 268.72 C 63.89 270.87 57.13 273.27 50.23 275.23 C 49.81 273.87 49.38 272.52 48.96 271.17 Z" />
<path fill="#000000" opacity="0.93" d=" M 370.32 264.76 C 377.13 266.88 383.88 269.24 390.74 271.25 C 390.38 272.62 390.03 273.99 389.69 275.37 C 382.79 273.42 376.00 271.16 369.21 268.91 C 369.58 267.53 369.94 266.14 370.32 264.76 Z" />
<path fill="#000000" opacity="0.93" d=" M 365.26 283.16 C 371.17 284.61 377.14 286.80 381.68 291.00 C 375.76 289.56 369.83 287.28 365.26 283.16 Z" />
<path fill="#000000" opacity="0.93" d=" M 56.36 290.80 C 60.65 287.03 66.28 285.55 71.70 284.18 C 67.40 287.94 61.76 289.42 56.36 290.80 Z" />
<path fill="#000000" opacity="0.93" d=" M 63.53 304.36 C 69.64 300.83 75.75 297.31 81.94 293.91 C 82.65 295.35 84.07 298.24 84.78 299.68 C 78.68 303.09 72.59 306.53 66.62 310.18 C 65.58 308.24 64.54 306.31 63.53 304.36 Z" />
<path fill="#000000" opacity="0.93" d=" M 358.10 294.06 C 364.15 297.56 370.25 301.00 376.19 304.71 C 375.30 306.54 374.41 308.37 373.53 310.21 C 367.11 307.00 360.94 303.32 354.72 299.74 C 355.84 297.84 356.97 295.95 358.10 294.06 Z" />
</g>
</svg>
