<?xml version="1.0" encoding="utf-8"?>
<!-- Generator: Adobe Illustrator 16.0.1, SVG Export Plug-In . SVG Version: 6.00 Build 0)  -->
<!DOCTYPE svg PUBLIC "-//W3C//DTD SVG 1.1//EN" "http://www.w3.org/Graphics/SVG/1.1/DTD/svg11.dtd">
<svg version="1.1" id="Слой_1" xmlns="http://www.w3.org/2000/svg" xmlns:xlink="http://www.w3.org/1999/xlink" x="0px" y="0px"
	 width="120px" height="120px" viewBox="0 0 120 120" xml:space="preserve">
<g id="normal">
	<path d="M80.331,116.403c-17.813,6.051-35.511,4.793-53.21-6.274c-4.454-2.854-9.364-7.189-13.359-11.869
		C0.515,81.483-1.882,64.71,1.201,47.935c2.512-11.183,7.307-22.481,19.753-33.55C37.626,0.805,54.297-1.82,70.968,1.033
		c11.304,2.282,22.837,6.96,34.027,19.171c14.046,16.547,16.672,33.208,14.158,49.755c-2.17,11.868-6.852,23.852-20.098,35.49
		C92.774,110.813,86.61,114.123,80.331,116.403"/>
	<path fill="#FFFFFF" d="M79.987,115.377c-18.039,6.049-35.966,4.794-53.896-7.303c-5.823-3.994-12.446-10.955-15.986-16.892
		c-10.848-18.029-11.532-36.06-4.338-54.09C8.85,29.79,13.417,22.372,21.64,15.297C38.083,1.832,54.411-0.679,70.854,2.06
		c11.076,2.282,22.269,6.847,33.229,18.829c13.816,16.318,16.441,32.638,14.046,48.84c-2.17,11.643-6.853,23.396-19.755,34.92
		C92.207,109.899,86.04,113.096,79.987,115.377"/>
	<path fill="#848484" d="M80.901,112.522c7.078-2.853,14.388-7.188,21.354-14.836c13.357-15.633,15.872-31.267,13.702-46.899
		c-2.058-11.183-6.508-22.595-18.841-33.664C80.788,3.657,64.46,1.489,48.017,4.57c-10.048,2.397-20.326,6.847-30.259,17.688
		C4.398,37.893,1.886,53.527,4.056,69.16c2.055,11.184,6.508,22.595,18.84,33.55c16.443,13.466,32.771,15.749,49.1,12.554
		C74.965,114.578,77.934,113.778,80.901,112.522"/>
	<path fill="#FFFFFF" d="M88.098,91.3C67.199,72.926,46.304,54.439,25.293,36.067c-9.02,14.036-9.591,27.958-3.311,41.994
		c2.398,5.023,6.166,10.5,12.218,15.18c13.816,10.154,27.633,10.953,41.447,5.818C79.874,97.35,83.983,95.063,88.098,91.3"/>
	<path fill="#FFFFFF" d="M34.542,26.48c13.816-10.042,27.748-10.727,41.563-5.478c5.598,2.396,11.533,6.163,16.785,12.553
		c10.164,13.352,11.189,26.703,6.967,39.941c-1.027,3.309-2.627,6.618-4.797,9.927l-62.8-55.231
		C33.059,27.622,33.744,27.052,34.542,26.48"/>
	
		<line fill="none" stroke="#1F1A17" stroke-width="0.0867" stroke-miterlimit="10" x1="25.293" y1="36.067" x2="25.179" y2="36.295"/>
	
		<line fill="none" stroke="#1F1A17" stroke-width="0.0867" stroke-miterlimit="10" x1="33.287" y1="27.394" x2="32.26" y2="28.192"/>
	
		<line fill="none" stroke="#1F1A17" stroke-width="0.0867" stroke-miterlimit="10" x1="94.944" y1="83.424" x2="95.289" y2="82.971"/>
	<path d="M36.94,47.935c-0.455,1.597-0.685,3.309-0.685,4.907c0,12.439,0,24.877,0,37.315H49.5V57.406L37.397,46.679"/>
	<path d="M68.343,49.532h2.854l-1.484,9.7l24.665-16.661L69.369,26.253l2.056,10.042c-6.851,0-13.702-0.114-20.439,0.114
		c-2.284,0.229-4.567,0.914-6.852,2.168l12.333,10.955"/>
</g>
</svg>
