<?xml version="1.0" encoding="utf-8"?>
<!-- Generator: Adobe Illustrator 19.2.1, SVG Export Plug-In . SVG Version: 6.00 Build 0)  -->
<svg version="1.1" id="Слой_1" xmlns="http://www.w3.org/2000/svg" xmlns:xlink="http://www.w3.org/1999/xlink" x="0px" y="0px"
	 viewBox="0 0 120 120" enable-background="new 0 0 120 120" xml:space="preserve">
<g>
	<g>
		
			<linearGradient id="SVGID_1_" gradientUnits="userSpaceOnUse" x1="60" y1="115.9243" x2="60" y2="4.0757" gradientTransform="matrix(1 0 0 -1 0 120)">
			<stop  offset="0" style="stop-color:#B5CEED"/>
			<stop  offset="0.4574" style="stop-color:#AECAEB"/>
			<stop  offset="0.8564" style="stop-color:#75A7DB"/>
		</linearGradient>
		<path fill="url(#SVGID_1_)" d="M60.001,4.076c-30.889,0-55.925,25.04-55.925,55.925c0,30.887,25.036,55.924,55.925,55.924
			c30.884,0,55.923-25.037,55.923-55.924C115.924,29.115,90.885,4.076,60.001,4.076z M100.3,60.001
			c0,8.063-2.379,15.569-6.46,21.868L38.131,26.161c6.299-4.081,13.804-6.459,21.87-6.459C82.254,19.701,100.3,37.745,100.3,60.001z
			 M19.702,60.001c0-7.638,2.126-14.779,5.816-20.865l55.347,55.346c-6.086,3.692-13.225,5.817-20.863,5.817
			C37.742,100.299,19.702,82.258,19.702,60.001z"/>
		<path fill="#646464" d="M60.001,4.076c30.884,0,55.923,25.04,55.923,55.925c0,30.887-25.039,55.924-55.923,55.924
			c-30.889,0-55.925-25.037-55.925-55.924C4.076,29.115,29.112,4.076,60.001,4.076 M93.84,81.868
			c4.08-6.298,6.46-13.804,6.46-21.868c0-22.256-18.045-40.299-40.298-40.299c-8.067,0-15.571,2.378-21.87,6.46L93.84,81.868
			 M60.001,100.299c7.639,0,14.777-2.126,20.864-5.817L25.518,39.135c-3.691,6.086-5.816,13.227-5.816,20.865
			C19.702,82.258,37.742,100.299,60.001,100.299 M60.001,3C28.571,3,3,28.57,3,60.001C3,91.43,28.571,117,60.001,117
			C91.43,117,117,91.43,117,60.001C117,28.57,91.43,3,60.001,3L60.001,3z M39.848,26.357c6.084-3.655,13.022-5.58,20.153-5.58
			c21.627,0,39.223,17.596,39.223,39.224c0,7.129-1.925,14.066-5.58,20.15L39.848,26.357L39.848,26.357z M60.001,99.223
			c-21.628,0-39.224-17.595-39.224-39.223c0-6.717,1.713-13.296,4.967-19.117l53.372,53.372
			C73.296,97.51,66.717,99.223,60.001,99.223L60.001,99.223z"/>
	</g>
</g>
</svg>
