<?xml version="1.0" encoding="utf-8"?>
<!-- Generator: Adobe Illustrator 19.2.1, SVG Export Plug-In . SVG Version: 6.00 Build 0)  -->
<svg version="1.1" id="Слой_1" xmlns="http://www.w3.org/2000/svg" xmlns:xlink="http://www.w3.org/1999/xlink" x="0px" y="0px"
	 viewBox="0 0 120 120" enable-background="new 0 0 120 120" xml:space="preserve">
<g>
	<g>
		<g>
			
				<linearGradient id="SVGID_1_" gradientUnits="userSpaceOnUse" x1="1009.9893" y1="-1335.0311" x2="1009.9893" y2="-1383.3625" gradientTransform="matrix(1 0 0 -1 -950.6406 -1321.8398)">
				<stop  offset="0.1281" style="stop-color:#DADADA"/>
				<stop  offset="0.1478" style="stop-color:#D7D7D7"/>
				<stop  offset="0.3734" style="stop-color:#BCBCBC"/>
				<stop  offset="0.5056" style="stop-color:#B2B2B2"/>
				<stop  offset="0.8854" style="stop-color:#575756"/>
			</linearGradient>
			<path fill="url(#SVGID_1_)" d="M54.059,67.921c-11.294,0-21.13-2.882-23.918-7.009l-0.18-0.266l-0.317,0.053
				c-1.304,0.218-2.657,0.328-4.023,0.328c-6.541,0-12.067-2.484-12.067-5.424c0-0.18,0.025-0.365,0.08-0.582l0.153-0.607
				l-0.626-0.015C7.833,54.276,3.5,51.787,3.5,48.852c0-3.063,4.519-5.555,10.074-5.555c0.359,0,0.696,0.011,1.04,0.023l0.211,0.008
				l0.152-0.146c1.929-1.848,5.427-3.426,9.85-4.443l0.572-0.132l-0.221-0.543c-0.167-0.41-0.248-0.8-0.248-1.192
				c0-3.213,5.391-6.053,12.273-6.466l0.418-0.025l0.048-0.417c0.204-1.754,1.65-3.417,4.072-4.681l0.38-0.198l-0.138-0.406
				c-0.258-0.76-0.389-1.526-0.389-2.276c0-6.563,9.269-11.902,20.662-11.902c11.394,0,20.663,5.339,20.663,11.902
				c0,1.204-0.33,2.415-0.981,3.6l-0.511,0.93l1.042-0.198c0.867-0.164,1.721-0.248,2.537-0.248c5.573,0,10.296,3.389,11.229,8.057
				l0.11,0.551l0.534-0.174c1.474-0.479,2.999-0.723,4.532-0.723c7.601,0,13.784,5.711,13.784,12.73
				c0,6.24-4.837,11.508-11.501,12.527l-0.276,0.042l-0.109,0.258c-1.822,4.323-8.261,7.341-15.655,7.341
				c-4.726,0-9.209-1.255-12.301-3.442l-0.263-0.186l-0.278,0.162C70.198,66.317,62.439,67.921,54.059,67.921z"/>
			<path fill="#646464" d="M62.258,11c11.118,0,20.162,5.115,20.162,11.402c0,1.119-0.309,2.249-0.919,3.359l-1.022,1.86
				l2.085-0.396c0.835-0.159,1.657-0.239,2.443-0.239c5.336,0,9.852,3.219,10.739,7.655l0.221,1.103l1.07-0.348
				c1.423-0.463,2.895-0.698,4.376-0.698c7.325,0,13.285,5.486,13.285,12.23c0,5.991-4.659,11.051-11.077,12.033l-0.553,0.085
				l-0.217,0.516c-1.746,4.142-7.994,7.035-15.194,7.035c-4.625,0-9.003-1.221-12.012-3.35l-0.525-0.371l-0.556,0.323
				c-4.544,2.644-12.209,4.222-20.504,4.222c-10.962,0-20.846-2.855-23.504-6.789l-0.36-0.532l-0.634,0.106
				c-1.276,0.213-2.602,0.321-3.941,0.321c-6.816,0-11.567-2.595-11.567-4.923c0-0.138,0.021-0.284,0.065-0.461l0.305-1.214
				L13.172,53.9C8.115,53.783,4,51.518,4,48.851c0-1.244,0.92-2.456,2.592-3.413c1.848-1.059,4.327-1.642,6.991-1.641
				c0.343,0,0.674,0.011,1.012,0.023l0.423,0.016l0.306-0.293c1.865-1.787,5.28-3.32,9.616-4.317l1.145-0.263l-0.443-1.088
				c-0.142-0.349-0.211-0.677-0.211-1.003c0-2.949,5.185-5.57,11.803-5.967l0.836-0.05l0.097-0.832
				c0.185-1.585,1.536-3.111,3.806-4.295l0.76-0.397l-0.276-0.812c-0.24-0.707-0.362-1.419-0.362-2.115
				C42.096,16.115,51.141,11,62.258,11 M62.258,10c-11.689,0-21.162,5.555-21.162,12.402c0,0.837,0.148,1.649,0.415,2.437
				c-2.494,1.302-4.106,3.082-4.337,5.066c-7.18,0.431-12.743,3.381-12.743,6.965c0,0.472,0.101,0.929,0.285,1.38
				c-4.492,1.033-8.063,2.634-10.084,4.57c-0.35-0.013-0.693-0.024-1.049-0.024c-0.003,0-0.007,0-0.01,0
				C7.728,42.796,3,45.509,3,48.851c0,3.262,4.503,5.917,10.149,6.048c-0.059,0.237-0.095,0.467-0.095,0.704
				c0,3.276,5.622,5.923,12.567,5.923c1.439,0,2.819-0.12,4.106-0.335c2.808,4.157,12.632,7.229,24.333,7.229
				c8.785,0,16.517-1.746,21.007-4.358c3.058,2.164,7.56,3.534,12.59,3.534c7.756,0,14.261-3.247,16.116-7.647
				c6.76-1.033,11.926-6.462,11.926-13.021c0-7.306-6.393-13.23-14.285-13.23c-1.642,0-3.216,0.268-4.686,0.747
				c-0.961-4.805-5.837-8.459-11.719-8.459c-0.9,0-1.79,0.097-2.63,0.257c0.666-1.213,1.043-2.502,1.043-3.841
				C83.421,15.557,73.947,10,62.258,10L62.258,10z"/>
		</g>
		<g opacity="0.61" enable-background="new    ">
			
				<linearGradient id="SVGID_2_" gradientUnits="userSpaceOnUse" x1="312.1293" y1="390.2224" x2="319.7593" y2="390.2224" gradientTransform="matrix(1 0 0 1 -237.6602 -359.96)">
				<stop  offset="0.1281" style="stop-color:#DADADA"/>
				<stop  offset="0.1478" style="stop-color:#D7D7D7"/>
				<stop  offset="0.3734" style="stop-color:#BCBCBC"/>
				<stop  offset="0.5056" style="stop-color:#B2B2B2"/>
				<stop  offset="0.8854" style="stop-color:#575756"/>
			</linearGradient>
			<path fill="url(#SVGID_2_)" d="M82.099,27.341c-2.827,0.173-7.6,2.48-7.63,5.842c1.401-2.521,4.732-4.273,7.281-5.31
				L82.099,27.341z"/>
			<path fill="#646464" d="M82.099,27.341c-2.827,0.173-7.6,2.48-7.63,5.842c1.401-2.521,4.732-4.273,7.281-5.31L82.099,27.341
				L82.099,27.341z"/>
		</g>
		<g opacity="0.61" enable-background="new    ">
			
				<linearGradient id="SVGID_3_" gradientUnits="userSpaceOnUse" x1="334.7538" y1="397.1938" x2="342.9826" y2="397.1938" gradientTransform="matrix(1 0 0 1 -237.6602 -359.96)">
				<stop  offset="0.1281" style="stop-color:#DADADA"/>
				<stop  offset="0.1478" style="stop-color:#D7D7D7"/>
				<stop  offset="0.3734" style="stop-color:#BCBCBC"/>
				<stop  offset="0.5056" style="stop-color:#B2B2B2"/>
				<stop  offset="0.8854" style="stop-color:#575756"/>
			</linearGradient>
			<path fill="url(#SVGID_3_)" d="M97.094,37.297c2.731-1.589,5.985-1.398,8.229,0.908c-2.447-1.014-5.32-2.173-7.701-0.55
				L97.094,37.297z"/>
			<path fill="#646464" d="M100.776,36.262c-1.243,0-2.511,0.354-3.682,1.036l0.527,0.359c0.857-0.584,1.777-0.808,2.719-0.808
				c1.675,0,3.416,0.709,4.982,1.358C104.041,36.889,102.43,36.262,100.776,36.262L100.776,36.262z"/>
		</g>
		<g opacity="0.61" enable-background="new    ">
			
				<linearGradient id="SVGID_4_" gradientUnits="userSpaceOnUse" x1="281.6645" y1="380.8798" x2="288.6681" y2="380.8798" gradientTransform="matrix(1 0 0 1 -237.6602 -359.96)">
				<stop  offset="0.1281" style="stop-color:#DADADA"/>
				<stop  offset="0.1478" style="stop-color:#D7D7D7"/>
				<stop  offset="0.3734" style="stop-color:#BCBCBC"/>
				<stop  offset="0.5056" style="stop-color:#B2B2B2"/>
				<stop  offset="0.8854" style="stop-color:#575756"/>
			</linearGradient>
			<path fill="url(#SVGID_4_)" d="M44.004,24.139c0.633-3.149,3.543-6.865,7.004-6.398c-3.076,0.537-5.356,3.423-6.825,5.867
				L44.004,24.139z"/>
			<path fill="#646464" d="M50.414,17.701c-3.195,0-5.813,3.47-6.41,6.438l0.178-0.531c1.469-2.444,3.749-5.33,6.825-5.867
				C50.808,17.714,50.61,17.701,50.414,17.701L50.414,17.701z"/>
		</g>
		<g opacity="0.61" enable-background="new    ">
			
				<linearGradient id="SVGID_5_" gradientUnits="userSpaceOnUse" x1="312.0411" y1="378.3365" x2="312.3926" y2="378.3365" gradientTransform="matrix(1 0 0 1 -237.6602 -359.96)">
				<stop  offset="0.1281" style="stop-color:#DADADA"/>
				<stop  offset="0.1478" style="stop-color:#D7D7D7"/>
				<stop  offset="0.3734" style="stop-color:#BCBCBC"/>
				<stop  offset="0.5056" style="stop-color:#B2B2B2"/>
				<stop  offset="0.8854" style="stop-color:#575756"/>
			</linearGradient>
			<path fill="url(#SVGID_5_)" d="M74.732,18.549c-0.118-0.114-0.235-0.229-0.352-0.346C74.504,18.316,74.622,18.431,74.732,18.549z
				"/>
			<path fill="#646464" d="M69.046,15.421l1.588,0.361c1.967,0.764,3.493,3.368,5.611,4.605
				C75.872,17.673,71.602,15.486,69.046,15.421L69.046,15.421z"/>
		</g>
		<g opacity="0.61" enable-background="new    ">
			
				<linearGradient id="SVGID_6_" gradientUnits="userSpaceOnUse" x1="284.1349" y1="392.5543" x2="289.7635" y2="392.5543" gradientTransform="matrix(1 0 0 1 -237.6602 -359.96)">
				<stop  offset="0.1281" style="stop-color:#DADADA"/>
				<stop  offset="0.1478" style="stop-color:#D7D7D7"/>
				<stop  offset="0.3734" style="stop-color:#BCBCBC"/>
				<stop  offset="0.5056" style="stop-color:#B2B2B2"/>
				<stop  offset="0.8854" style="stop-color:#575756"/>
			</linearGradient>
			<path fill="url(#SVGID_6_)" d="M46.653,34.986c0.361-2.575,2.743-5.048,5.45-4.761c-2.488,0.585-4.473,2.108-5.629,4.582
				L46.653,34.986z"/>
			<path fill="#646464" d="M51.673,30.202c-2.195,0-4.109,1.774-4.796,3.839c1.187-2.025,3.007-3.293,5.227-3.816
				C51.959,30.21,51.815,30.202,51.673,30.202L51.673,30.202z M46.876,34.041c-0.143,0.244-0.277,0.5-0.402,0.766l0.178,0.179
				C46.698,34.668,46.773,34.351,46.876,34.041L46.876,34.041z"/>
		</g>
		<g opacity="0.61" enable-background="new    ">
			
				<linearGradient id="SVGID_7_" gradientUnits="userSpaceOnUse" x1="262.9715" y1="397.0674" x2="267.8537" y2="397.0674" gradientTransform="matrix(1 0 0 1 -237.6602 -359.96)">
				<stop  offset="0.1281" style="stop-color:#DADADA"/>
				<stop  offset="0.1478" style="stop-color:#D7D7D7"/>
				<stop  offset="0.3734" style="stop-color:#BCBCBC"/>
				<stop  offset="0.5056" style="stop-color:#B2B2B2"/>
				<stop  offset="0.8854" style="stop-color:#575756"/>
			</linearGradient>
			<path fill="url(#SVGID_7_)" d="M25.311,39.078c0.106-2.473,2.518-4.157,4.882-3.918c-2.104,0.202-4.307,1.739-4.705,3.918
				L25.311,39.078L25.311,39.078z"/>
			<path fill="#646464" d="M29.745,35.137c-2.211,0-4.334,1.624-4.433,3.941v0h0.177c0.398-2.179,2.601-3.716,4.705-3.918
				C30.044,35.145,29.894,35.137,29.745,35.137L29.745,35.137z"/>
		</g>
		<g opacity="0.61" enable-background="new    ">
			
				<linearGradient id="SVGID_8_" gradientUnits="userSpaceOnUse" x1="275.8466" y1="393.2355" x2="279.8702" y2="393.2355" gradientTransform="matrix(1 0 0 1 -237.6602 -359.96)">
				<stop  offset="0.1281" style="stop-color:#DADADA"/>
				<stop  offset="0.1478" style="stop-color:#D7D7D7"/>
				<stop  offset="0.3734" style="stop-color:#BCBCBC"/>
				<stop  offset="0.5056" style="stop-color:#B2B2B2"/>
				<stop  offset="0.8854" style="stop-color:#575756"/>
			</linearGradient>
			<path fill="url(#SVGID_8_)" d="M38.186,31.784c1.92-0.209,3.816,1.056,4.024,3.005c-1.256-1.005-1.914-2.319-3.496-2.653
				L38.186,31.784z"/>
			<path fill="#646464" d="M38.602,31.762c-0.138,0-0.277,0.007-0.415,0.023l0.527,0.352c1.582,0.334,2.24,1.648,3.496,2.653
				C42.017,32.981,40.372,31.762,38.602,31.762L38.602,31.762z"/>
		</g>
		<g opacity="0.61" enable-background="new    ">
			
				<linearGradient id="SVGID_9_" gradientUnits="userSpaceOnUse" x1="274.7849" y1="402.4461" x2="291.1196" y2="402.4461" gradientTransform="matrix(1 0 0 1 -237.6602 -359.96)">
				<stop  offset="0.1281" style="stop-color:#DADADA"/>
				<stop  offset="0.1478" style="stop-color:#D7D7D7"/>
				<stop  offset="0.3734" style="stop-color:#BCBCBC"/>
				<stop  offset="0.5056" style="stop-color:#B2B2B2"/>
				<stop  offset="0.8854" style="stop-color:#575756"/>
			</linearGradient>
			<path fill="url(#SVGID_9_)" d="M37.125,44.408c2.85-3.323,13.898-6.463,16.335-1.259c-3.982-3.567-12.146-1.715-16.157,1.439
				L37.125,44.408z"/>
			<path fill="#646464" d="M47.797,40.383c-4.048,0-8.916,1.978-10.672,4.025l0.177,0.18c2.464-1.938,6.497-3.385,10.163-3.385
				c2.301,0,4.458,0.57,5.994,1.945C52.524,41.151,50.319,40.383,47.797,40.383L47.797,40.383z"/>
		</g>
		<g opacity="0.61" enable-background="new    ">
			
				<linearGradient id="SVGID_10_" gradientUnits="userSpaceOnUse" x1="302.477" y1="400.2526" x2="312.8569" y2="400.2526" gradientTransform="matrix(1 0 0 1 -237.6602 -359.96)">
				<stop  offset="0.1281" style="stop-color:#DADADA"/>
				<stop  offset="0.1478" style="stop-color:#D7D7D7"/>
				<stop  offset="0.3734" style="stop-color:#BCBCBC"/>
				<stop  offset="0.5056" style="stop-color:#B2B2B2"/>
				<stop  offset="0.8854" style="stop-color:#575756"/>
			</linearGradient>
			<path fill="url(#SVGID_10_)" d="M64.817,41.745c2.28-2.64,7.761-4.217,10.38-1.451c-3.081-1.26-6.991-1.082-9.675,0.92
				L64.817,41.745z"/>
			<path fill="#646464" d="M71.419,38.841c-2.461,0-5.166,1.241-6.602,2.904l0.705-0.531c1.571-1.171,3.56-1.718,5.558-1.718
				c1.417,0,2.838,0.275,4.117,0.798C74.227,39.269,72.866,38.841,71.419,38.841L71.419,38.841z"/>
		</g>
	</g>
	<g>
		<g>
			
				<linearGradient id="SVGID_11_" gradientUnits="userSpaceOnUse" x1="1023.9617" y1="-1358.7056" x2="1023.9617" y2="-1401.8828" gradientTransform="matrix(1 0 0 -1 -950.6406 -1321.8398)">
				<stop  offset="0.1361" style="stop-color:#DADADA"/>
				<stop  offset="0.1496" style="stop-color:#D7D7D7"/>
				<stop  offset="0.3042" style="stop-color:#BCBCBC"/>
				<stop  offset="0.3949" style="stop-color:#B2B2B2"/>
				<stop  offset="1" style="stop-color:#575756"/>
			</linearGradient>
			<path fill="url(#SVGID_11_)" d="M105.06,76.785c-3.999-2.629-8.583-2.998-12.951-2.998c-0.865,0-1.739,0.016-2.619,0.034
				c-3.571,0.078-7.143,0.147-10.714,0.217c-4.383,0.085-8.766,0.171-13.148,0.271c-1.725,0.04-3.457,0.056-5.196,0.056
				c-3.499,0-7.087-0.065-10.557-0.129c-2.812-0.051-5.628-0.103-8.442-0.121c-2.193-0.775-3.499-1.929-3.499-3.093
				c0-0.128,0.019-0.265,0.057-0.418l0.15-0.605l-0.625-0.015c-4.065-0.092-7.373-1.932-7.373-4.103
				c0-2.224,3.528-4.103,7.705-4.103c0.26,0,0.516,0.003,0.771,0.021l0.217,0.015l0.159-0.149c1.491-1.397,4.186-2.588,7.589-3.352
				l0.581-0.13l-0.228-0.549c-0.12-0.288-0.18-0.575-0.18-0.856c0-2.375,4.131-4.479,9.405-4.791l0.417-0.024l0.05-0.414
				c0.158-1.292,1.258-2.521,3.098-3.464l0.391-0.2l-0.148-0.414c-0.197-0.55-0.297-1.117-0.297-1.684
				c0-4.919,7.135-8.921,15.906-8.921c8.772,0,15.91,4.002,15.91,8.921c0,0.896-0.253,1.795-0.751,2.676l-0.531,0.939l1.061-0.202
				c0.657-0.125,1.314-0.188,1.954-0.188c4.262,0,7.873,2.532,8.586,6.021l0.111,0.542l0.528-0.166
				c1.139-0.357,2.311-0.538,3.483-0.538c5.829,0,10.572,4.284,10.572,9.549c0,4.681-3.709,8.634-8.818,9.4l-0.275,0.041
				l-0.109,0.256C106.886,75.071,106.115,75.989,105.06,76.785z"/>
			<path fill="#646464" d="M75.576,37.366c8.353,0,15.41,3.856,15.41,8.421c0,0.807-0.231,1.625-0.686,2.429l-1.063,1.878
				l2.12-0.403c0.627-0.119,1.253-0.18,1.861-0.18c4.025,0,7.43,2.364,8.097,5.621l0.222,1.084l1.056-0.331
				c1.092-0.342,2.214-0.515,3.335-0.515c5.554,0,10.072,4.059,10.072,9.049c0,4.431-3.529,8.176-8.392,8.906l-0.55,0.083
				l-0.22,0.511c-0.341,0.792-0.96,1.562-1.807,2.253c-4.033-2.525-8.581-2.885-12.917-2.885c-0.871,0-1.75,0.015-2.636,0.035
				c-3.566,0.078-7.132,0.147-10.698,0.216c-4.388,0.085-8.777,0.17-13.165,0.271c-1.623,0.037-3.322,0.056-5.193,0.056
				c-3.491,0-7.074-0.065-10.54-0.128c-2.741-0.05-5.573-0.102-8.364-0.121c-1.881-0.682-3.088-1.69-3.088-2.593
				c0-0.087,0.014-0.184,0.042-0.295l0.304-1.214l-1.251-0.028c-4.118-0.093-6.884-1.938-6.884-3.603
				c0-1.704,2.959-3.603,7.205-3.603c0.249,0,0.494,0.002,0.738,0.019l0.434,0.029l0.317-0.297c1.427-1.338,4.04-2.485,7.356-3.229
				l1.161-0.261l-0.457-1.099c-0.095-0.229-0.141-0.446-0.141-0.664c0-1.81,3.416-3.966,8.934-4.292l0.833-0.049l0.101-0.828
				c0.137-1.121,1.141-2.215,2.829-3.079l0.781-0.4l-0.295-0.827c-0.18-0.504-0.268-1-0.268-1.516
				C60.17,41.222,67.225,37.366,75.576,37.366 M75.576,36.366c-9.059,0-16.406,4.225-16.406,9.421c0,0.64,0.113,1.256,0.326,1.852
				c-1.937,0.992-3.181,2.335-3.365,3.848c-5.569,0.329-9.875,2.574-9.875,5.29c0,0.358,0.076,0.707,0.218,1.048
				c-3.483,0.782-6.25,2.002-7.821,3.475c-0.266-0.018-0.533-0.021-0.805-0.021c-4.532,0-8.205,2.061-8.205,4.603
				c0,2.471,3.489,4.504,7.861,4.603c-0.042,0.166-0.071,0.347-0.071,0.538c0,1.467,1.541,2.77,3.913,3.591
				c6.375,0.042,12.766,0.251,19.078,0.251c1.745,0,3.484-0.016,5.216-0.056c7.954-0.183,15.908-0.314,23.861-0.487
				c0.878-0.019,1.751-0.034,2.614-0.034c4.673,0,9.1,0.444,12.956,3.108c1.251-0.878,2.188-1.924,2.686-3.081
				c5.245-0.787,9.244-4.909,9.244-9.895c0-5.552-4.954-10.049-11.072-10.049c-1.275,0-2.49,0.203-3.633,0.561
				c-0.745-3.644-4.52-6.42-9.076-6.42c-0.703,0-1.386,0.071-2.048,0.197c0.521-0.921,0.816-1.9,0.816-2.921
				C91.986,40.591,84.641,36.366,75.576,36.366L75.576,36.366z"/>
		</g>
		<g opacity="0.61" enable-background="new    ">
			
				<linearGradient id="SVGID_12_" gradientUnits="userSpaceOnUse" x1="325.6601" y1="409.5074" x2="325.6601" y2="413.9386" gradientTransform="matrix(1 0 0 1 -237.6602 -359.96)">
				<stop  offset="0.1361" style="stop-color:#DADADA"/>
				<stop  offset="0.1496" style="stop-color:#D7D7D7"/>
				<stop  offset="0.3042" style="stop-color:#BCBCBC"/>
				<stop  offset="0.3949" style="stop-color:#B2B2B2"/>
				<stop  offset="1" style="stop-color:#575756"/>
			</linearGradient>
			<path fill="url(#SVGID_12_)" d="M90.956,49.547c-2.193,0.131-5.888,1.879-5.913,4.431c1.079-1.912,3.667-3.242,5.64-4.025
				L90.956,49.547z"/>
			<path fill="#646464" d="M90.956,49.547c-2.193,0.131-5.888,1.879-5.913,4.431c1.079-1.912,3.667-3.242,5.64-4.025L90.956,49.547
				L90.956,49.547z"/>
		</g>
		<g opacity="0.61" enable-background="new    ">
			
				<linearGradient id="SVGID_13_" gradientUnits="userSpaceOnUse" x1="343.4302" y1="416.2774" x2="343.4302" y2="417.7556" gradientTransform="matrix(1 0 0 1 -237.6602 -359.96)">
				<stop  offset="0.1361" style="stop-color:#DADADA"/>
				<stop  offset="0.1496" style="stop-color:#D7D7D7"/>
				<stop  offset="0.3042" style="stop-color:#BCBCBC"/>
				<stop  offset="0.3949" style="stop-color:#B2B2B2"/>
				<stop  offset="1" style="stop-color:#575756"/>
			</linearGradient>
			<path fill="url(#SVGID_13_)" d="M102.579,57.103c2.118-1.206,4.645-1.061,6.381,0.692c-1.895-0.77-4.125-1.653-5.972-0.424
				L102.579,57.103z"/>
			<path fill="#646464" d="M105.436,56.317c-0.964,0-1.948,0.269-2.856,0.786l0.409,0.268c0.663-0.441,1.374-0.61,2.102-0.61
				c1.301,0,2.654,0.541,3.87,1.034C107.969,56.794,106.72,56.317,105.436,56.317L105.436,56.317z"/>
		</g>
		<g opacity="0.61" enable-background="new    ">
			
				<linearGradient id="SVGID_14_" gradientUnits="userSpaceOnUse" x1="301.8014" y1="402.183" x2="301.8014" y2="407.0704" gradientTransform="matrix(1 0 0 1 -237.6602 -359.96)">
				<stop  offset="0.1361" style="stop-color:#DADADA"/>
				<stop  offset="0.1496" style="stop-color:#D7D7D7"/>
				<stop  offset="0.3042" style="stop-color:#BCBCBC"/>
				<stop  offset="0.3949" style="stop-color:#B2B2B2"/>
				<stop  offset="1" style="stop-color:#575756"/>
			</linearGradient>
			<path fill="url(#SVGID_14_)" d="M61.427,47.11c0.487-2.389,2.748-5.211,5.427-4.857c-2.382,0.406-4.149,2.598-5.291,4.451
				L61.427,47.11z"/>
			<path fill="#646464" d="M66.396,42.223c-2.475,0-4.51,2.636-4.969,4.887l0.137-0.406c1.142-1.853,2.908-4.045,5.291-4.451
				C66.7,42.233,66.548,42.223,66.396,42.223L66.396,42.223z"/>
		</g>
		<g opacity="0.61" enable-background="new    ">
			
				<linearGradient id="SVGID_15_" gradientUnits="userSpaceOnUse" x1="321.2884" y1="400.4489" x2="321.2884" y2="404.2193" gradientTransform="matrix(1 0 0 1 -237.6602 -359.96)">
				<stop  offset="0.1361" style="stop-color:#DADADA"/>
				<stop  offset="0.1496" style="stop-color:#D7D7D7"/>
				<stop  offset="0.3042" style="stop-color:#BCBCBC"/>
				<stop  offset="0.3949" style="stop-color:#B2B2B2"/>
				<stop  offset="1" style="stop-color:#575756"/>
			</linearGradient>
			<path fill="url(#SVGID_15_)" d="M80.837,40.489c1.992,0.054,5.291,1.711,5.582,3.77c-1.636-0.931-2.821-2.911-4.35-3.494
				L80.837,40.489z"/>
			<path fill="#646464" d="M80.837,40.489l1.232,0.276c1.529,0.584,2.714,2.563,4.35,3.494C86.128,42.2,82.829,40.543,80.837,40.489
				L80.837,40.489z"/>
		</g>
		<g opacity="0.61" enable-background="new    ">
			
				<linearGradient id="SVGID_16_" gradientUnits="userSpaceOnUse" x1="303.1857" y1="411.6817" x2="303.1857" y2="415.3136" gradientTransform="matrix(1 0 0 1 -237.6602 -359.96)">
				<stop  offset="0.1361" style="stop-color:#DADADA"/>
				<stop  offset="0.1496" style="stop-color:#D7D7D7"/>
				<stop  offset="0.3042" style="stop-color:#BCBCBC"/>
				<stop  offset="0.3949" style="stop-color:#B2B2B2"/>
				<stop  offset="1" style="stop-color:#575756"/>
			</linearGradient>
			<path fill="url(#SVGID_16_)" d="M63.478,55.354c0.284-1.961,2.125-3.837,4.23-3.614c-1.931,0.441-3.472,1.594-4.366,3.477
				L63.478,55.354z"/>
			<path fill="#646464" d="M67.367,51.722c-1.704,0-3.183,1.346-3.715,2.916c0.919-1.543,2.332-2.504,4.057-2.898
				C67.594,51.728,67.48,51.722,67.367,51.722L67.367,51.722z M63.651,54.638c-0.11,0.185-0.213,0.378-0.309,0.579l0.136,0.137
				C63.513,55.112,63.572,54.873,63.651,54.638L63.651,54.638z"/>
		</g>
		<g opacity="0.61" enable-background="new    ">
			
				<linearGradient id="SVGID_17_" gradientUnits="userSpaceOnUse" x1="286.4897" y1="415.4278" x2="286.4897" y2="418.4193" gradientTransform="matrix(1 0 0 1 -237.6602 -359.96)">
				<stop  offset="0.1361" style="stop-color:#DADADA"/>
				<stop  offset="0.1496" style="stop-color:#D7D7D7"/>
				<stop  offset="0.3042" style="stop-color:#BCBCBC"/>
				<stop  offset="0.3949" style="stop-color:#B2B2B2"/>
				<stop  offset="1" style="stop-color:#575756"/>
			</linearGradient>
			<path fill="url(#SVGID_17_)" d="M46.937,58.459c0.082-1.877,1.956-3.158,3.786-2.974c-1.629,0.157-3.335,1.316-3.65,2.974H46.937
				z"/>
			<path fill="#646464" d="M50.37,55.468c-1.711,0-3.357,1.235-3.434,2.992h0.136c0.315-1.658,2.021-2.817,3.65-2.974
				C50.605,55.474,50.488,55.468,50.37,55.468L50.37,55.468z"/>
		</g>
		<g opacity="0.61" enable-background="new    ">
			
				<linearGradient id="SVGID_18_" gradientUnits="userSpaceOnUse" x1="296.1336" y1="412.8638" x2="296.1336" y2="415.1571" gradientTransform="matrix(1 0 0 1 -237.6602 -359.96)">
				<stop  offset="0.1361" style="stop-color:#DADADA"/>
				<stop  offset="0.1496" style="stop-color:#D7D7D7"/>
				<stop  offset="0.3042" style="stop-color:#BCBCBC"/>
				<stop  offset="0.3949" style="stop-color:#B2B2B2"/>
				<stop  offset="1" style="stop-color:#575756"/>
			</linearGradient>
			<path fill="url(#SVGID_18_)" d="M56.912,52.922c1.492-0.162,2.962,0.801,3.123,2.276c-0.971-0.753-1.481-1.754-2.707-2.006
				L56.912,52.922z"/>
			<path fill="#646464" d="M57.241,52.904c-0.109,0-0.219,0.006-0.329,0.018l0.415,0.269c1.226,0.252,1.736,1.253,2.707,2.006
				C59.886,53.831,58.613,52.904,57.241,52.904L57.241,52.904z"/>
		</g>
		<g opacity="0.61" enable-background="new    ">
			
				<linearGradient id="SVGID_19_" gradientUnits="userSpaceOnUse" x1="300.0889" y1="419.403" x2="300.0889" y2="422.5969" gradientTransform="matrix(1 0 0 1 -237.6602 -359.96)">
				<stop  offset="0.1361" style="stop-color:#DADADA"/>
				<stop  offset="0.1496" style="stop-color:#D7D7D7"/>
				<stop  offset="0.3042" style="stop-color:#BCBCBC"/>
				<stop  offset="0.3949" style="stop-color:#B2B2B2"/>
				<stop  offset="1" style="stop-color:#575756"/>
			</linearGradient>
			<path fill="url(#SVGID_19_)" d="M56.101,62.51c2.204-2.536,10.765-4.919,12.655-0.967c-3.088-2.709-9.414-1.305-12.525,1.094
				L56.101,62.51z"/>
			<path fill="#646464" d="M64.368,59.443c-3.137,0-6.909,1.505-8.267,3.067l0.13,0.127c1.911-1.473,5.035-2.572,7.877-2.572
				c1.784,0,3.457,0.433,4.648,1.478C68.031,60.026,66.323,59.443,64.368,59.443L64.368,59.443z"/>
		</g>
		<g opacity="0.61" enable-background="new    ">
			
				<linearGradient id="SVGID_20_" gradientUnits="userSpaceOnUse" x1="319.2463" y1="418.2376" x2="319.2463" y2="420.4502" gradientTransform="matrix(1 0 0 1 -237.6602 -359.96)">
				<stop  offset="0.1361" style="stop-color:#DADADA"/>
				<stop  offset="0.1496" style="stop-color:#D7D7D7"/>
				<stop  offset="0.3042" style="stop-color:#BCBCBC"/>
				<stop  offset="0.3949" style="stop-color:#B2B2B2"/>
				<stop  offset="1" style="stop-color:#575756"/>
			</linearGradient>
			<path fill="url(#SVGID_20_)" d="M77.56,60.49c1.772-2.006,6.019-3.214,8.052-1.111c-2.395-0.956-5.428-0.826-7.506,0.704
				L77.56,60.49z"/>
			<path fill="#646464" d="M82.689,58.278c-1.91,0-4.012,0.948-5.129,2.213l0.546-0.406c1.215-0.895,2.757-1.311,4.307-1.311
				c1.1,0,2.205,0.21,3.199,0.607C84.861,58.603,83.808,58.278,82.689,58.278L82.689,58.278z"/>
		</g>
	</g>
	<g>
		<g>
			
				<linearGradient id="SVGID_21_" gradientUnits="userSpaceOnUse" x1="988.9095" y1="-1369.4226" x2="987.4615" y2="-1401.6279" gradientTransform="matrix(1 0 0 -1 -950.6406 -1321.8398)">
				<stop  offset="0" style="stop-color:#FFFFFF"/>
				<stop  offset="0.1553" style="stop-color:#E2E2E1"/>
				<stop  offset="0.494" style="stop-color:#979796"/>
				<stop  offset="0.9878" style="stop-color:#20201E"/>
				<stop  offset="1" style="stop-color:#1D1D1B"/>
			</linearGradient>
			<path fill="url(#SVGID_21_)" d="M10.295,75.505c-3.35-0.28-5.959-1.986-5.959-3.911c0-2.137,3.184-3.942,6.952-3.942
				c0.56,0,1.144,0.043,1.737,0.128l0.761,0.108l-0.209-0.739c-0.115-0.406-0.17-0.78-0.17-1.143c0-3.481,4.28-6.313,9.542-6.313
				h0.659l-0.177-0.634c-0.2-0.718-0.302-1.438-0.302-2.137c0-4.943,4.57-8.965,10.187-8.965c5.033,0,9.256,3.174,10.042,7.546
				l0.074,0.412h0.517l0.038-0.014c4.86,0.036,8.801,3.239,8.801,7.171c0,0.324-0.037,0.684-0.11,1.067l-0.18,0.946l0.877-0.396
				c1.756-0.794,3.778-1.214,5.848-1.214c5.977,0,10.841,3.394,10.844,7.564c0,1.113-0.35,2.188-1.04,3.199l-3.397,0.071
				c-1.72,0.04-3.447,0.056-5.182,0.056h-0.001c-3.489,0-7.066-0.065-10.526-0.129c-3.489-0.063-7.097-0.129-10.644-0.129
				c-5.912,0-10.714,0.187-15.112,0.586c-0.822-0.019-1.692-0.051-2.56-0.083c-1.212-0.045-2.466-0.092-3.697-0.092
				c-2.82,0-5,0.25-7.07,0.811C10.653,75.379,10.475,75.441,10.295,75.505L10.295,75.505z"/>
			<path fill="#646464" d="M33.315,48.457c4.791,0,8.807,3.001,9.549,7.135l0.148,0.823h0.836c0.062,0,0.12-0.006,0.171-0.014
				c4.569,0.05,8.266,3.023,8.266,6.671c0,0.293-0.034,0.621-0.101,0.974l-0.36,1.891l1.754-0.792
				c1.694-0.765,3.645-1.169,5.642-1.169c5.701,0,10.341,3.17,10.344,7.065c0,0.933-0.273,1.841-0.813,2.705l-0.93,0.019
				c-0.735,0.015-1.47,0.029-2.205,0.046c-1.62,0.037-3.315,0.055-5.182,0.055c-3.483,0-7.057-0.065-10.514-0.128
				c-3.49-0.064-7.098-0.129-10.648-0.129c-5.902,0-10.702,0.185-15.099,0.583c-0.855-0.017-1.704-0.048-2.55-0.08
				c-1.217-0.045-2.475-0.092-3.716-0.092c-2.867,0-5.088,0.255-7.201,0.828c-0.16,0.043-0.318,0.096-0.474,0.151
				c-2.994-0.282-5.396-1.785-5.396-3.403c0-1.628,2.65-3.442,6.453-3.442c0.538,0,1.098,0.041,1.665,0.123l1.522,0.218l-0.418-1.48
				c-0.104-0.367-0.152-0.687-0.152-1.007c0-3.151,4.141-5.813,9.042-5.813h1.316l-0.353-1.268c-0.188-0.676-0.284-1.35-0.284-2.003
				C23.628,52.254,27.974,48.457,33.315,48.457 M33.315,47.457c-5.9,0-10.687,4.231-10.687,9.465c0,0.79,0.119,1.548,0.32,2.272
				c-5.545,0-10.042,3.059-10.042,6.813c0,0.442,0.071,0.861,0.189,1.279c-0.58-0.083-1.186-0.133-1.807-0.133
				c-4.117,0-7.453,1.996-7.453,4.442c0,2.263,2.848,4.143,6.526,4.418c0.201-0.07,0.399-0.145,0.605-0.2
				c2.328-0.63,4.63-0.793,6.94-0.793c2.085,0,4.177,0.132,6.301,0.173c4.972-0.452,10.01-0.584,15.063-0.584
				c7.064,0,14.162,0.257,21.162,0.257c1.742,0,3.477-0.016,5.205-0.056c1.216-0.028,2.433-0.05,3.649-0.076
				c0.811-1.108,1.277-2.362,1.277-3.694c-0.003-4.455-5.076-8.065-11.344-8.065c-2.228,0-4.301,0.467-6.054,1.258
				c0.07-0.37,0.119-0.767,0.119-1.161c0-4.234-4.2-7.672-9.384-7.672c-0.018,0-0.036,0.015-0.054,0.015
				C43.038,50.901,38.635,47.457,33.315,47.457L33.315,47.457z"/>
		</g>
		<g opacity="0.61" enable-background="new    ">
			<path fill="#FFFFFF" d="M38.941,57.651c2.382-0.698,5.955,0.341,6.855,2.241c-2.186-1.014-4.236-2.258-6.837-1.983L38.941,57.651
				z"/>
			<path fill="#646464" d="M40.582,57.433c-0.576,0-1.136,0.07-1.642,0.218l0.018,0.258c0.249-0.026,0.493-0.039,0.732-0.039
				c2.263,0,4.128,1.105,6.105,2.022C45.087,58.396,42.72,57.433,40.582,57.433L40.582,57.433z"/>
		</g>
		<g opacity="0.61" enable-background="new    ">
			<path fill="#FFFFFF" d="M60.253,66.561c-1.563-1.23-3.781-1.074-5.755-0.264c2.014,0.107,3.785-0.181,5.67,0.432L60.253,66.561z"
				/>
			<path fill="#646464" d="M57.451,65.664c-0.973,0-1.991,0.24-2.952,0.634c0.408,0.022,0.807,0.027,1.198,0.027
				c0.394,0,0.78-0.006,1.163-0.006c1.112,0,2.19,0.047,3.309,0.41l0.084-0.168C59.451,65.93,58.476,65.664,57.451,65.664
				L57.451,65.664z"/>
		</g>
		<g opacity="0.61" enable-background="new    ">
			<path fill="#FFFFFF" d="M18.27,69.632c1.949-1.9,6.458-1.517,7.956,0.644c-1.867-1.48-5.806-2.055-7.749-0.453L18.27,69.632z"/>
			<path fill="#646464" d="M21.829,68.407c-1.365,0-2.707,0.394-3.559,1.225l0.207,0.191c0.815-0.672,1.981-0.961,3.198-0.961
				c1.685,0,3.468,0.554,4.552,1.413C25.383,69.06,23.587,68.407,21.829,68.407L21.829,68.407z"/>
		</g>
		<g opacity="0.61" enable-background="new    ">
			<path fill="#FFFFFF" d="M26.008,54.732c1.812-1.734,5.533-3.142,7.72-1.279c-2.862,0.106-5.505-0.15-7.927,1.097L26.008,54.732z"
				/>
			<path fill="#646464" d="M31.14,52.571c-1.559,0-3.233,0.694-4.446,1.587c2.175-0.798,4.52-0.612,7.035-0.706
				C32.995,52.828,32.089,52.571,31.14,52.571L31.14,52.571z M26.694,54.159c-0.301,0.11-0.598,0.24-0.893,0.391l0.207,0.182
				C26.214,54.535,26.444,54.343,26.694,54.159L26.694,54.159z"/>
		</g>
		<g opacity="0.61" enable-background="new    ">
			<path fill="#FFFFFF" d="M20.735,64.481c1.736-2.583,6.333-4.025,9.628-2.929c-2.785,0.609-6.233,0.432-8.513,2.391L20.735,64.481
				z"/>
			<path fill="#646464" d="M27.929,61.181c-2.827,0-5.858,1.312-7.193,3.3l1.114-0.538c2.28-1.96,5.729-1.782,8.513-2.391
				C29.604,61.299,28.776,61.181,27.929,61.181L27.929,61.181z"/>
		</g>
		<g opacity="0.61" enable-background="new    ">
			<path fill="#FFFFFF" d="M36.886,65.199c0.842-1.325,3.478-2.44,5.462-1.589c0.167,0,0.167-0.017,0-0.017
				c-1.765,0.327-3.655,0.767-5.248,1.604L36.886,65.199L36.886,65.199z"/>
			<path fill="#646464" d="M40.823,63.313c-1.633,0-3.3,0.883-3.937,1.886l0.214-0.002c1.585-0.833,3.464-1.272,5.22-1.599
				C41.846,63.4,41.336,63.313,40.823,63.313L40.823,63.313z M42.348,63.593c-0.009,0.002-0.018,0.003-0.028,0.005
				c0.009,0.004,0.018,0.008,0.028,0.012C42.514,63.61,42.514,63.593,42.348,63.593L42.348,63.593z"/>
		</g>
	</g>
</g>
<g>
	<g>
		<g id="Dibujo_1_">
			<g>
				<path fill="#646464" d="M11.904,78.076h42.752c1.967,0,3.562-1.589,3.562-3.547s-1.596-3.547-3.562-3.547H11.904
					c-1.968,0-3.562,1.589-3.562,3.547S9.936,78.076,11.904,78.076z"/>
				<path fill="#646464" d="M117,85.17c0-1.958-1.596-3.547-3.562-3.547H6.562C4.594,81.623,3,83.212,3,85.17
					s1.594,3.547,3.562,3.547h106.875C115.404,88.717,117,87.128,117,85.17z"/>
				<path fill="#646464" d="M113.438,92.264H11.906c-1.968,0-3.562,1.589-3.562,3.547s1.594,3.547,3.562,3.547h101.531
					c1.967,0,3.562-1.589,3.562-3.547S115.404,92.264,113.438,92.264z"/>
				<path fill="#646464" d="M43.969,102.906l-21.375-0.002c-1.968,0-3.562,1.589-3.562,3.547s1.594,3.547,3.562,3.547L43.969,110
					c1.967,0,3.562-1.589,3.562-3.547C47.531,104.494,45.935,102.906,43.969,102.906z"/>
				<path fill="#646464" d="M61.781,74.529c0,1.958,1.594,3.547,3.562,3.547h37.406c1.967,0,3.562-1.589,3.562-3.547
					s-1.596-3.547-3.562-3.547H65.344C63.375,70.981,61.781,72.57,61.781,74.529z"/>
				<path fill="#646464" d="M102.75,102.904l-48.094,0.002c-1.968,0-3.562,1.589-3.562,3.547S52.688,110,54.656,110l48.094-0.002
					c1.967,0,3.562-1.589,3.562-3.547S104.716,102.904,102.75,102.904z"/>
			</g>
		</g>
	</g>
	<g>
	</g>
	<g>
	</g>
	<g>
	</g>
	<g>
	</g>
	<g>
	</g>
	<g>
	</g>
	<g>
	</g>
	<g>
	</g>
	<g>
	</g>
	<g>
	</g>
	<g>
	</g>
	<g>
	</g>
	<g>
	</g>
	<g>
	</g>
	<g>
	</g>
</g>
</svg>
