<?xml version="1.0" encoding="utf-8"?>
<!-- Generator: Adobe Illustrator 19.2.1, SVG Export Plug-In . SVG Version: 6.00 Build 0)  -->
<svg version="1.1" id="Слой_1" xmlns="http://www.w3.org/2000/svg" xmlns:xlink="http://www.w3.org/1999/xlink" x="0px" y="0px"
	 viewBox="0 0 120 120" enable-background="new 0 0 120 120" xml:space="preserve">
<g>
	<g>
		
			<radialGradient id="SVGID_1_" cx="155.3091" cy="-136.1148" r="3.0068" gradientTransform="matrix(14.7046 -7.2752 -3.7126 -5.1084 -2729.575 516.7547)" gradientUnits="userSpaceOnUse">
			<stop  offset="0" style="stop-color:#F4EA66"/>
			<stop  offset="1" style="stop-color:#F9AF15"/>
		</radialGradient>
		<polygon fill="url(#SVGID_1_)" points="75.403,48.344 46.419,88.342 60.983,81.759 43.651,116 77.136,70.09 64.182,74.064 		"/>
		<path fill="#646464" d="M70.793,56.411l-7.528,17.253l-0.87,1.994l2.08-0.638l10.084-3.093L50.12,105.433L61.875,82.21
			l1.281-2.532l-2.586,1.169L49.438,85.88L70.793,56.411 M75.403,48.344L46.419,88.342l14.564-6.584L43.651,116l33.485-45.91
			l-12.955,3.974L75.403,48.344L75.403,48.344z"/>
	</g>
	<g>
		<g>
			<g>
				
					<linearGradient id="SVGID_2_" gradientUnits="userSpaceOnUse" x1="1011.9842" y1="-1328.8481" x2="1009.7048" y2="-1384.1816" gradientTransform="matrix(1 0 0 -1 -950.6406 -1321.8398)">
					<stop  offset="0" style="stop-color:#FFFFFF"/>
					<stop  offset="0.6044" style="stop-color:#629293"/>
					<stop  offset="1" style="stop-color:#5E7B7D"/>
				</linearGradient>
				<path fill="url(#SVGID_2_)" d="M115.704,45.372c0-8.184-6.356-14.823-14.197-14.823c-1.632,0-3.187,0.301-4.65,0.83
					c-0.96-5.375-5.803-9.47-11.644-9.47c-0.901,0-1.777,0.101-2.62,0.287c0.665-1.358,1.042-2.804,1.042-4.303
					C83.635,10.225,74.217,4,62.605,4c-11.614,0-21.031,6.225-21.031,13.893c0,0.93,0.147,1.848,0.412,2.731
					c-2.478,1.452-4.076,3.446-4.309,5.669c-7.134,0.482-12.662,3.795-12.662,7.81c0,0.529,0.1,1.044,0.283,1.546
					c-4.462,1.152-8.009,2.952-10.019,5.12c-0.344-0.02-0.688-0.027-1.042-0.027c-5.808,0-10.514,3.039-10.514,6.786
					c0,3.654,4.477,6.632,10.083,6.773c-0.058,0.262-0.094,0.529-0.094,0.79c0,3.667,5.586,6.639,12.485,6.639
					c1.43,0,2.802-0.134,4.082-0.374c2.788,4.658,12.551,8.09,24.177,8.09c8.73,0,16.408-1.941,20.878-4.878
					c3.036,2.419,7.504,3.959,12.502,3.959c7.71,0,14.169-3.637,16.012-8.553C110.571,58.798,115.704,52.721,115.704,45.372z"/>
				<path fill="#646464" d="M62.605,5c11.044,0,20.03,5.784,20.03,12.893c0,1.29-0.316,2.59-0.94,3.864l-0.913,1.865l2.028-0.449
					c0.79-0.175,1.599-0.264,2.404-0.264c5.282,0,9.765,3.636,10.659,8.645l0.209,1.168l1.116-0.404
					c1.414-0.511,2.864-0.771,4.31-0.771c7.277,0,13.197,6.201,13.197,13.823c0,6.772-4.638,12.499-11.028,13.617l-0.563,0.099
					l-0.201,0.535c-1.744,4.654-7.944,7.904-15.075,7.904c-4.565,0-8.895-1.364-11.879-3.741l-0.567-0.451l-0.606,0.398
					c-4.492,2.952-12.091,4.714-20.329,4.714c-10.875,0-20.682-3.198-23.319-7.604l-0.358-0.598l-0.685,0.128
					c-1.264,0.237-2.575,0.357-3.898,0.357c-6.226,0-11.485-2.582-11.485-5.639c0-0.171,0.024-0.364,0.07-0.572l0.265-1.187
					l-1.216-0.031c-5.022-0.126-9.108-2.717-9.108-5.774c0-3.136,4.357-5.786,9.514-5.786c0.334,0,0.659,0.006,0.985,0.025
					l0.47,0.027l0.32-0.345c1.863-2.009,5.249-3.725,9.536-4.832l1.066-0.275l-0.376-1.035c-0.148-0.406-0.222-0.811-0.222-1.204
					c0-3.376,5.152-6.368,11.729-6.812l0.839-0.057l0.088-0.837c0.192-1.836,1.549-3.579,3.82-4.91l0.679-0.398l-0.227-0.753
					c-0.245-0.816-0.37-1.637-0.37-2.442C42.575,10.784,51.56,5,62.605,5 M62.605,4c-11.614,0-21.031,6.225-21.031,13.893
					c0,0.93,0.147,1.848,0.412,2.731c-2.478,1.452-4.076,3.446-4.309,5.669c-7.134,0.482-12.662,3.795-12.662,7.81
					c0,0.529,0.1,1.045,0.283,1.546c-4.462,1.152-8.009,2.952-10.019,5.12c-0.344-0.02-0.688-0.027-1.042-0.027
					c-5.808,0-10.514,3.039-10.514,6.786c0,3.654,4.477,6.632,10.083,6.773c-0.058,0.262-0.094,0.529-0.094,0.79
					c0,3.667,5.586,6.639,12.485,6.639c1.43,0,2.802-0.134,4.082-0.374c2.788,4.658,12.551,8.09,24.177,8.09
					c8.73,0,16.408-1.941,20.878-4.878c3.036,2.419,7.504,3.959,12.502,3.959c7.71,0,14.169-3.637,16.012-8.553
					c6.723-1.177,11.856-7.253,11.856-14.602c0-8.184-6.356-14.823-14.197-14.823c-1.632,0-3.187,0.301-4.65,0.83
					c-0.96-5.375-5.803-9.47-11.644-9.47c-0.901,0-1.777,0.101-2.62,0.287c0.665-1.358,1.042-2.804,1.042-4.303
					C83.635,10.225,74.217,4,62.605,4L62.605,4z"/>
			</g>
			<g opacity="0.61" enable-background="new    ">
				<path fill="#FFFFFF" d="M82.316,23.428c-2.807,0.193-7.546,2.777-7.581,6.544c1.39-2.824,4.71-4.785,7.235-5.95L82.316,23.428z"
					/>
				<path fill="#646464" d="M82.316,23.428c-2.807,0.194-7.546,2.777-7.581,6.544c1.39-2.824,4.71-4.785,7.235-5.95L82.316,23.428
					L82.316,23.428z"/>
			</g>
			<g opacity="0.61" enable-background="new    ">
				<path fill="#FFFFFF" d="M97.216,34.584c2.712-1.78,5.952-1.573,8.174,1.01c-2.425-1.13-5.285-2.437-7.652-0.616L97.216,34.584z"
					/>
				<path fill="#646464" d="M100.882,33.421c-1.238,0-2.501,0.398-3.667,1.163l0.522,0.394c0.851-0.654,1.765-0.905,2.699-0.905
					c1.667,0,3.399,0.796,4.952,1.521C104.122,34.121,102.525,33.421,100.882,33.421L100.882,33.421z"/>
			</g>
			<g opacity="0.61" enable-background="new    ">
				<path fill="#FFFFFF" d="M44.464,19.84c0.63-3.527,3.523-7.69,6.962-7.167c-3.055,0.602-5.322,3.834-6.784,6.573L44.464,19.84z"
					/>
				<path fill="#646464" d="M50.837,12.628c-3.176,0-5.779,3.888-6.373,7.212l0.177-0.594c1.462-2.739,3.729-5.971,6.784-6.573
					C51.228,12.643,51.032,12.628,50.837,12.628L50.837,12.628z"/>
			</g>
			<g opacity="0.61" enable-background="new    ">
				<path fill="#FFFFFF" d="M69.354,10.075c2.544,0.074,6.777,2.523,7.146,5.561c-2.102-1.385-3.614-4.302-5.568-5.159
					L69.354,10.075z"/>
				<path fill="#646464" d="M69.354,10.075l1.578,0.402c1.954,0.857,3.467,3.774,5.568,5.159
					C76.131,12.599,71.898,10.15,69.354,10.075L69.354,10.075z"/>
			</g>
			<g opacity="0.61" enable-background="new    ">
				<path fill="#FFFFFF" d="M47.096,31.994c0.359-2.891,2.726-5.656,5.418-5.334c-2.474,0.656-4.444,2.362-5.592,5.133
					L47.096,31.994z"/>
				<path fill="#646464" d="M52.086,26.635c-2.189,0-4.095,1.994-4.773,4.318c1.179-2.278,2.989-3.706,5.202-4.292
					C52.371,26.643,52.228,26.635,52.086,26.635L52.086,26.635z M47.313,30.952c-0.139,0.268-0.269,0.548-0.39,0.84l0.173,0.201
					C47.14,31.643,47.213,31.294,47.313,30.952L47.313,30.952z"/>
			</g>
			<g opacity="0.61" enable-background="new    ">
				<path fill="#FFFFFF" d="M25.893,36.572c0.106-2.764,2.502-4.658,4.853-4.383c-2.093,0.227-4.279,1.948-4.677,4.383H25.893z"/>
				<path fill="#646464" d="M30.291,32.162c-2.196,0-4.299,1.824-4.398,4.41h0.176c0.398-2.436,2.584-4.156,4.677-4.383
					C30.595,32.171,30.443,32.162,30.291,32.162L30.291,32.162z"/>
			</g>
			<g opacity="0.61" enable-background="new    ">
				<path fill="#FFFFFF" d="M38.685,28.407c1.907-0.235,3.792,1.185,3.998,3.366c-1.246-1.124-1.898-2.603-3.471-2.972
					L38.685,28.407z"/>
				<path fill="#646464" d="M39.098,28.381c-0.137,0-0.275,0.008-0.413,0.025l0.527,0.395c1.572,0.368,2.224,1.847,3.471,2.972
					C42.492,29.749,40.856,28.381,39.098,28.381L39.098,28.381z"/>
			</g>
			<g opacity="0.61" enable-background="new    ">
				<path fill="#FFFFFF" d="M37.634,42.548c2.831-3.728,13.81-7.248,16.227-1.413c-3.955-4.002-12.068-1.927-16.052,1.613
					L37.634,42.548z"/>
				<path fill="#646464" d="M48.237,38.033c-4.022,0-8.858,2.218-10.603,4.515l0.174,0.2c2.447-2.175,6.452-3.797,10.095-3.797
					c2.287,0,4.432,0.64,5.957,2.183C52.933,38.894,50.743,38.033,48.237,38.033L48.237,38.033z"/>
			</g>
			<g opacity="0.61" enable-background="new    ">
				<path fill="#FFFFFF" d="M65.151,39.562c2.26-2.959,7.71-4.725,10.313-1.626c-3.069-1.412-6.948-1.211-9.619,1.03L65.151,39.562z
					"/>
				<path fill="#646464" d="M71.709,36.309c-2.446,0-5.134,1.39-6.558,3.254l0.694-0.596c1.563-1.311,3.538-1.924,5.524-1.924
					c1.408,0,2.821,0.308,4.095,0.894C74.5,36.789,73.146,36.309,71.709,36.309L71.709,36.309z"/>
			</g>
		</g>
		<g>
			<g>
				
					<linearGradient id="SVGID_3_" gradientUnits="userSpaceOnUse" x1="1013.4451" y1="-1348.7526" x2="1030.5406" y2="-1387.1144" gradientTransform="matrix(1 0 0 -1 -950.6406 -1321.8398)">
					<stop  offset="0" style="stop-color:#FFFFFF"/>
					<stop  offset="0.6044" style="stop-color:#629293"/>
					<stop  offset="1" style="stop-color:#5E7B7D"/>
				</linearGradient>
				<path fill="url(#SVGID_3_)" d="M117,51.174c0-6.211-4.923-11.25-11.007-11.25c-1.26,0-2.472,0.227-3.603,0.622
					c-0.741-4.076-4.497-7.187-9.024-7.187c-0.701,0-1.379,0.081-2.032,0.22c0.518-1.031,0.806-2.128,0.806-3.273
					c0-5.823-7.293-10.554-16.298-10.554c-9.006,0-16.303,4.731-16.303,10.554c0,0.71,0.112,1.405,0.32,2.075
					c-1.922,1.111-3.16,2.617-3.341,4.31c-5.534,0.361-9.817,2.885-9.817,5.929c0,0.402,0.077,0.79,0.218,1.172
					c-3.458,0.876-6.211,2.242-7.767,3.888c-0.266-0.013-0.533-0.02-0.804-0.02c-4.503,0-8.153,2.308-8.153,5.16
					c0,2.771,3.47,5.033,7.814,5.141c-0.044,0.193-0.07,0.394-0.07,0.609c0,2.778,4.333,5.032,9.677,5.032
					c1.11,0,2.173-0.101,3.166-0.28c2.157,3.54,9.728,6.145,18.74,6.145c6.763,0,12.724-1.473,16.182-3.702
					c2.355,1.841,5.816,2.998,9.696,2.998c5.975,0,10.977-2.756,12.411-6.491C113.022,61.374,117,56.763,117,51.174z"/>
				<path fill="#646464" d="M75.841,20.753c8.435,0,15.298,4.286,15.298,9.554c0,0.951-0.235,1.901-0.699,2.823l-0.936,1.862
					l2.038-0.434c0.617-0.132,1.231-0.198,1.824-0.198c3.989,0,7.37,2.677,8.04,6.366l0.209,1.151l1.104-0.386
					c1.076-0.376,2.177-0.566,3.274-0.566c5.518,0,10.007,4.598,10.007,10.25c0,5.025-3.516,9.278-8.359,10.113l-0.56,0.097
					l-0.204,0.53c-1.323,3.444-6.043,5.85-11.478,5.85c-3.505,0-6.815-1.015-9.08-2.786l-0.56-0.438l-0.598,0.385
					c-3.441,2.218-9.288,3.543-15.64,3.543c-8.364,0-15.886-2.382-17.886-5.665l-0.357-0.586l-0.675,0.122
					c-0.97,0.175-1.975,0.264-2.988,0.264c-5.114,0-8.677-2.125-8.677-4.032c0-0.125,0.015-0.252,0.046-0.389l0.268-1.189
					l-1.219-0.03c-3.771-0.093-6.839-1.951-6.839-4.141c0-2.255,3.276-4.16,7.153-4.16c0.254,0,0.506,0.007,0.756,0.019l0.459,0.022
					l0.316-0.334c1.412-1.493,3.999-2.773,7.286-3.605l1.077-0.273l-0.384-1.042c-0.105-0.286-0.156-0.556-0.156-0.826
					c0-2.44,3.901-4.606,8.882-4.931l0.84-0.055l0.089-0.837c0.14-1.309,1.15-2.57,2.847-3.55l0.692-0.4l-0.237-0.763
					c-0.183-0.588-0.275-1.186-0.275-1.779C60.538,25.039,67.403,20.753,75.841,20.753 M75.841,19.753
					c-9.006,0-16.303,4.731-16.303,10.554c0,0.71,0.112,1.405,0.32,2.075c-1.922,1.111-3.16,2.617-3.341,4.31
					c-5.534,0.361-9.817,2.885-9.817,5.929c0,0.402,0.077,0.79,0.218,1.172c-3.458,0.876-6.211,2.242-7.767,3.888
					c-0.266-0.013-0.533-0.02-0.804-0.02c-4.503,0-8.153,2.308-8.153,5.16c0,2.771,3.47,5.033,7.814,5.141
					c-0.044,0.193-0.07,0.394-0.07,0.609c0,2.778,4.333,5.032,9.677,5.032c1.11,0,2.173-0.101,3.166-0.28
					c2.157,3.54,9.728,6.145,18.74,6.145c6.763,0,12.724-1.473,16.182-3.702c2.355,1.841,5.816,2.998,9.696,2.998
					c5.975,0,10.977-2.756,12.411-6.491c5.211-0.898,9.189-5.51,9.189-11.099c0-6.211-4.923-11.25-11.007-11.25
					c-1.26,0-2.472,0.227-3.603,0.622c-0.741-4.076-4.497-7.187-9.024-7.187c-0.701,0-1.379,0.081-2.032,0.22
					c0.518-1.031,0.806-2.128,0.806-3.273C92.139,24.484,84.846,19.753,75.841,19.753L75.841,19.753z"/>
			</g>
			<g opacity="0.61" enable-background="new    ">
				<path fill="#FFFFFF" d="M91.123,34.511c-2.179,0.148-5.852,2.115-5.876,4.973c1.072-2.149,3.639-3.634,5.603-4.518
					L91.123,34.511z"/>
				<path fill="#646464" d="M91.123,34.511c-2.179,0.148-5.852,2.115-5.876,4.973c1.072-2.149,3.639-3.634,5.603-4.518
					L91.123,34.511L91.123,34.511z"/>
			</g>
			<g opacity="0.61" enable-background="new    ">
				<path fill="#FFFFFF" d="M102.673,42.983c2.101-1.353,4.614-1.192,6.333,0.776c-1.882-0.864-4.098-1.853-5.933-0.475
					L102.673,42.983z"/>
				<path fill="#646464" d="M105.509,42.101c-0.958,0-1.935,0.302-2.836,0.882l0.4,0.301c0.659-0.495,1.366-0.684,2.09-0.684
					c1.293,0,2.637,0.605,3.843,1.159C108.024,42.636,106.784,42.101,105.509,42.101L105.509,42.101z"/>
			</g>
			<g opacity="0.61" enable-background="new    ">
				<path fill="#FFFFFF" d="M61.777,31.787c0.49-2.677,2.732-5.836,5.4-5.442c-2.368,0.455-4.128,2.911-5.261,4.987L61.777,31.787z"
					/>
				<path fill="#646464" d="M66.723,26.312c-2.464,0-4.484,2.951-4.945,5.475l0.139-0.455c1.133-2.075,2.893-4.531,5.261-4.987
					C67.024,26.323,66.873,26.312,66.723,26.312L66.723,26.312z"/>
			</g>
			<g opacity="0.61" enable-background="new    ">
				<path fill="#FFFFFF" d="M81.068,24.372c1.972,0.06,5.251,1.914,5.545,4.222c-1.624-1.045-2.801-3.267-4.32-3.915L81.068,24.372z
					"/>
				<path fill="#646464" d="M81.068,24.372l1.225,0.307c1.519,0.649,2.696,2.871,4.32,3.915
					C86.319,26.286,83.04,24.432,81.068,24.372L81.068,24.372z"/>
			</g>
			<g opacity="0.61" enable-background="new    ">
				<path fill="#FFFFFF" d="M63.819,41.022c0.279-2.195,2.114-4.297,4.205-4.05c-1.921,0.495-3.449,1.788-4.338,3.895L63.819,41.022
					z"/>
				<path fill="#646464" d="M67.687,36.952c-1.698,0-3.174,1.514-3.7,3.278c0.913-1.733,2.318-2.815,4.037-3.258
					C67.91,36.958,67.798,36.952,67.687,36.952L67.687,36.952z M63.987,40.23c-0.107,0.203-0.208,0.416-0.301,0.637l0.133,0.155
					C63.852,40.755,63.909,40.489,63.987,40.23L63.987,40.23z"/>
			</g>
			<g opacity="0.61" enable-background="new    ">
				<path fill="#FFFFFF" d="M47.38,44.497c0.082-2.101,1.942-3.534,3.764-3.327c-1.622,0.167-3.317,1.472-3.626,3.327H47.38z"/>
				<path fill="#646464" d="M50.792,41.15c-1.702,0-3.335,1.381-3.412,3.347h0.138c0.309-1.855,2.004-3.16,3.626-3.327
					C51.026,41.156,50.909,41.15,50.792,41.15L50.792,41.15z"/>
			</g>
			<g opacity="0.61" enable-background="new    ">
				<path fill="#FFFFFF" d="M57.295,38.298c1.48-0.181,2.943,0.897,3.099,2.55c-0.966-0.85-1.469-1.974-2.687-2.256L57.295,38.298z"
					/>
				<path fill="#646464" d="M57.619,38.278c-0.108,0-0.216,0.006-0.324,0.02l0.411,0.294c1.218,0.281,1.722,1.406,2.687,2.256
					C60.249,39.316,58.982,38.278,57.619,38.278L57.619,38.278z"/>
			</g>
			<g opacity="0.61" enable-background="new    ">
				<path fill="#FFFFFF" d="M56.486,49.041c2.193-2.838,10.702-5.509,12.574-1.078c-3.06-3.038-9.354-1.465-12.441,1.224
					L56.486,49.041z"/>
				<path fill="#646464" d="M64.702,45.607c-3.117,0-6.865,1.685-8.216,3.434l0.133,0.146c1.896-1.652,5.001-2.882,7.824-2.882
					c1.773,0,3.436,0.486,4.617,1.658C68.341,46.262,66.644,45.607,64.702,45.607L64.702,45.607z"/>
			</g>
			<g opacity="0.61" enable-background="new    ">
				<path fill="#FFFFFF" d="M77.807,46.77c1.761-2.248,5.982-3.594,8-1.244c-2.377-1.064-5.387-0.917-7.458,0.789L77.807,46.77z"/>
				<path fill="#646464" d="M82.902,44.294c-1.897,0-3.985,1.059-5.095,2.476l0.542-0.455c1.212-0.999,2.746-1.463,4.287-1.463
					c1.091,0,2.185,0.233,3.171,0.674C85.061,44.658,84.014,44.294,82.902,44.294L82.902,44.294z"/>
			</g>
		</g>
		<g>
			<g>
				
					<linearGradient id="SVGID_4_" gradientUnits="userSpaceOnUse" x1="1000.4223" y1="-1342.1658" x2="998.135" y2="-1393.033" gradientTransform="matrix(1 0 0 -1 -950.6406 -1321.8398)">
					<stop  offset="0" style="stop-color:#FFFFFF"/>
					<stop  offset="0.7388" style="stop-color:#629293"/>
					<stop  offset="1" style="stop-color:#5E7B7D"/>
				</linearGradient>
				<path fill="url(#SVGID_4_)" d="M77.902,44.609c-3.015,0-5.815,0.71-8.195,1.914c0.105-0.569,0.167-1.172,0.167-1.774
					c0-6.452-5.684-11.685-12.699-11.685c-0.024,0-0.042,0.007-0.064,0.007c-1.104-6.873-7.052-12.127-14.249-12.127
					c-7.982,0-14.454,6.452-14.454,14.422c0,1.198,0.166,2.362,0.435,3.467c-7.499,0-13.578,4.665-13.578,10.394
					c0,0.669,0.091,1.312,0.254,1.948c-0.785-0.14-1.599-0.206-2.444-0.206C7.505,50.968,3,54.012,3,57.747
					c0,3.743,4.505,6.8,10.075,6.8c0.97,0,1.904-0.114,2.791-0.268c1.16,2.783,5.539,4.872,10.79,4.872
					c3.058,0,5.837-0.703,7.835-1.862c3.927,3.226,10.325,5.327,17.572,5.327c7.287,0,13.725-2.134,17.633-5.382
					c2.378,1.212,5.181,1.912,8.207,1.912c8.464,0,15.329-5.499,15.329-12.264C93.23,50.104,86.367,44.609,77.902,44.609z"/>
				<path fill="#646464" d="M42.861,21.944c6.634,0,12.211,4.746,13.262,11.286l0.135,0.841h0.852c0.043,0,0.083-0.002,0.123-0.007
					c6.424,0.029,11.64,4.811,11.64,10.685c0,0.518-0.05,1.054-0.15,1.592l-0.367,1.986l1.802-0.912
					c2.335-1.182,5.013-1.807,7.744-1.807c7.9,0,14.328,5.057,14.33,11.273c0,6.211-6.428,11.264-14.329,11.264
					c-2.758,0-5.439-0.624-7.753-1.803l-0.587-0.299l-0.507,0.421c-3.882,3.226-10.235,5.152-16.994,5.152
					c-6.719,0-13.051-1.906-16.937-5.1l-0.536-0.441l-0.6,0.348c-1.92,1.114-4.525,1.727-7.334,1.727
					c-4.69,0-8.839-1.79-9.867-4.257l-0.307-0.737l-0.787,0.137c-0.992,0.172-1.825,0.253-2.619,0.253
					c-4.919,0-9.075-2.656-9.075-5.8c0-3.133,4.156-5.779,9.075-5.779c0.796,0,1.559,0.064,2.268,0.191l1.53,0.273l-0.385-1.505
					c-0.15-0.586-0.223-1.142-0.223-1.7c0-5.18,5.642-9.394,12.578-9.394h1.273l-0.302-1.237c-0.27-1.106-0.407-2.192-0.407-3.23
					C29.407,27.965,35.443,21.944,42.861,21.944 M42.861,20.944c-7.982,0-14.454,6.452-14.454,14.422
					c0,1.198,0.166,2.362,0.435,3.467c-7.499,0-13.578,4.665-13.578,10.394c0,0.669,0.091,1.312,0.254,1.948
					c-0.785-0.14-1.599-0.206-2.444-0.206C7.505,50.968,3,54.012,3,57.747c0,3.743,4.505,6.8,10.075,6.8
					c0.97,0,1.904-0.114,2.791-0.268c1.16,2.783,5.539,4.872,10.79,4.872c3.058,0,5.837-0.703,7.835-1.862
					c3.927,3.226,10.325,5.327,17.572,5.327c7.287,0,13.725-2.134,17.633-5.382c2.378,1.212,5.181,1.912,8.207,1.912
					c8.464,0,15.329-5.499,15.329-12.264c-0.002-6.778-6.865-12.273-15.33-12.273c-3.015,0-5.815,0.71-8.195,1.914
					c0.105-0.569,0.167-1.172,0.167-1.774c0-6.452-5.684-11.685-12.699-11.685c-0.024,0-0.042,0.007-0.064,0.007
					C56.006,26.198,50.058,20.944,42.861,20.944L42.861,20.944z"/>
			</g>
			<g opacity="0.61" enable-background="new    ">
				<path fill="#FFFFFF" d="M50.473,36.491c3.223-1.064,8.05,0.522,9.271,3.421c-2.961-1.553-5.727-3.446-9.245-3.033L50.473,36.491
					z"/>
				<path fill="#646464" d="M52.69,36.159c-0.778,0-1.534,0.106-2.218,0.332l0.026,0.388c0.334-0.039,0.66-0.058,0.981-0.058
					c3.063,0,5.584,1.685,8.264,3.091C58.782,37.628,55.581,36.159,52.69,36.159L52.69,36.159z"/>
			</g>
			<g opacity="0.61" enable-background="new    ">
				<path fill="#FFFFFF" d="M79.292,50.077c-2.117-1.888-5.111-1.647-7.778-0.402c2.724,0.168,5.115-0.268,7.664,0.657
					L79.292,50.077z"/>
				<path fill="#646464" d="M75.504,48.701c-1.315,0-2.691,0.368-3.99,0.975c0.579,0.036,1.144,0.044,1.698,0.044
					c0.493,0,0.977-0.007,1.457-0.007c1.517,0,2.984,0.066,4.509,0.619l0.114-0.255C78.206,49.109,76.889,48.701,75.504,48.701
					L75.504,48.701z"/>
			</g>
			<g opacity="0.61" enable-background="new    ">
				<path fill="#FFFFFF" d="M22.517,54.749c2.637-2.885,8.732-2.303,10.767,0.997c-2.532-2.262-7.858-3.146-10.482-0.71
					L22.517,54.749z"/>
				<path fill="#646464" d="M27.324,52.891c-1.844,0-3.655,0.599-4.807,1.858l0.285,0.287c1.097-1.018,2.665-1.457,4.305-1.457
					c2.283,0,4.704,0.85,6.177,2.166C32.137,53.887,29.703,52.891,27.324,52.891L27.324,52.891z"/>
			</g>
			<g opacity="0.61" enable-background="new    ">
				<path fill="#FFFFFF" d="M32.986,32.034c2.45-2.636,7.476-4.792,10.436-1.948c-3.87,0.161-7.443-0.228-10.722,1.673
					L32.986,32.034z"/>
				<path fill="#646464" d="M39.924,28.741c-2.108,0-4.37,1.059-6.01,2.419c2.942-1.216,6.111-0.933,9.508-1.074
					C42.43,29.132,41.206,28.741,39.924,28.741L39.924,28.741z M33.914,31.16c-0.409,0.169-0.813,0.367-1.214,0.599l0.285,0.274
					C33.264,31.734,33.576,31.441,33.914,31.16L33.914,31.16z"/>
			</g>
			<g opacity="0.61" enable-background="new    ">
				<path fill="#FFFFFF" d="M25.856,46.899c2.342-3.935,8.562-6.131,13.019-4.457c-3.768,0.93-8.43,0.657-11.515,3.647
					L25.856,46.899z"/>
				<path fill="#646464" d="M35.574,41.875c-3.822,0-7.917,1.998-9.719,5.024l1.504-0.811c3.085-2.99,7.747-2.717,11.515-3.647
					C37.845,42.055,36.722,41.875,35.574,41.875L35.574,41.875z"/>
			</g>
			<g opacity="0.61" enable-background="new    ">
				<path fill="#FFFFFF" d="M47.691,47.989c1.142-2.014,4.701-3.715,7.387-2.417c0.224,0,0.224-0.02,0-0.02
					c-2.384,0.489-4.945,1.172-7.099,2.437H47.691z"/>
				<path fill="#646464" d="M53.014,45.119c-2.208,0-4.458,1.346-5.323,2.87h0.288c2.145-1.26,4.694-1.942,7.07-2.431
					C54.405,45.253,53.712,45.119,53.014,45.119L53.014,45.119z M55.078,45.553c-0.01,0.002-0.019,0.004-0.029,0.006
					c0.01,0.005,0.019,0.009,0.029,0.014C55.302,45.573,55.302,45.553,55.078,45.553L55.078,45.553z"/>
			</g>
		</g>
		<g>
			<g>
				
					<radialGradient id="SVGID_5_" cx="217.4259" cy="-144.7287" r="1.3658" gradientTransform="matrix(6.0278 0 0 -6.8532 -1214.9382 -892.9423)" gradientUnits="userSpaceOnUse">
					<stop  offset="0" style="stop-color:#FFFFFF"/>
					<stop  offset="1" style="stop-color:#70C1CA"/>
				</radialGradient>
				<path fill="url(#SVGID_5_)" d="M101.636,87.671c-2.637,3.827-5.87,7-9.218,9.971c-0.448,0.308-1.755,1.741-1.525,1.355
					l0.076,0.04c-0.888,1.174-1.444,2.7-1.444,4.377c0,3.721,2.661,6.746,5.933,6.746c3.276,0,5.711-2.735,5.931-6.746
					C101.412,103.022,102.13,92.34,101.636,87.671z"/>
				<path fill="#646464" d="M100.792,90.485c0.099,4.421-0.259,10.623-0.393,12.736l-0.009,0.14c-0.19,3.47-2.173,5.801-4.932,5.801
					c-2.72,0-4.933-2.578-4.933-5.746c0-1.375,0.441-2.716,1.242-3.774l0.049-0.07c0.09-0.086,0.198-0.193,0.333-0.325
					c0.242-0.239,0.693-0.683,0.835-0.781l0.051-0.035l0.046-0.041C95.545,96.203,98.309,93.607,100.792,90.485 M101.636,87.671
					c-2.637,3.827-5.869,7-9.218,9.971c-0.35,0.241-1.226,1.169-1.481,1.379l0.033,0.017c-0.888,1.174-1.444,2.7-1.444,4.377
					c0,3.721,2.661,6.746,5.933,6.746c3.276,0,5.711-2.735,5.931-6.746C101.412,103.022,102.13,92.34,101.636,87.671L101.636,87.671
					z M90.893,98.997c-0.027,0.045-0.033,0.065-0.021,0.065c0.01,0,0.032-0.015,0.065-0.042L90.893,98.997L90.893,98.997z"/>
			</g>
			<g>
				
					<radialGradient id="SVGID_6_" cx="216.7591" cy="-142.2855" r="1.3609" gradientTransform="matrix(6.0278 0 0 -6.8532 -1214.9382 -892.9423)" gradientUnits="userSpaceOnUse">
					<stop  offset="0" style="stop-color:#FFFFFF"/>
					<stop  offset="1" style="stop-color:#70C1CA"/>
				</radialGradient>
				<path fill="url(#SVGID_6_)" d="M97.616,70.932c-2.637,3.821-5.87,6.995-9.218,9.964c-0.443,0.309-1.756,1.741-1.524,1.353
					l0.076,0.039c-0.89,1.178-1.444,2.704-1.444,4.378c0,3.721,2.656,6.746,5.934,6.746c3.27,0,5.695-2.731,5.931-6.746
					C97.392,86.278,98.109,75.596,97.616,70.932z"/>
				<path fill="#646464" d="M96.773,73.743c0.095,4.187-0.221,9.994-0.388,12.675l-0.012,0.19c-0.204,3.472-2.186,5.804-4.933,5.804
					c-2.721,0-4.934-2.578-4.934-5.746c0-1.375,0.441-2.716,1.242-3.775l0.041-0.058c0.098-0.093,0.215-0.208,0.359-0.35
					c0.238-0.234,0.682-0.67,0.821-0.767l0.048-0.033l0.044-0.039C91.525,79.459,94.287,76.866,96.773,73.743 M97.616,70.932
					c-2.637,3.821-5.87,6.995-9.218,9.964c-0.346,0.241-1.22,1.165-1.478,1.376l0.031,0.016c-0.89,1.178-1.444,2.704-1.444,4.378
					c0,3.721,2.656,6.746,5.934,6.746c3.27,0,5.695-2.731,5.931-6.746C97.392,86.278,98.109,75.596,97.616,70.932L97.616,70.932z
					 M86.874,82.249c-0.027,0.046-0.033,0.066-0.022,0.066c0.01,0,0.033-0.015,0.067-0.043L86.874,82.249L86.874,82.249z"/>
			</g>
		</g>
		<g>
			<g>
				
					<radialGradient id="SVGID_7_" cx="212.1953" cy="-144.7287" r="1.3658" gradientTransform="matrix(6.0278 0 0 -6.8532 -1214.9382 -892.9423)" gradientUnits="userSpaceOnUse">
					<stop  offset="0" style="stop-color:#FFFFFF"/>
					<stop  offset="1" style="stop-color:#70C1CA"/>
				</radialGradient>
				<path fill="url(#SVGID_7_)" d="M70.108,87.671c-2.639,3.827-5.87,7-9.22,9.971c-0.447,0.308-1.754,1.741-1.524,1.355l0.077,0.04
					c-0.889,1.174-1.447,2.7-1.447,4.377c0,3.721,2.661,6.746,5.934,6.746c3.278,0,5.705-2.735,5.933-6.746
					C69.882,103.022,70.602,92.34,70.108,87.671z"/>
				<path fill="#646464" d="M69.265,90.484c0.094,4.185-0.222,9.991-0.389,12.671l-0.012,0.203c-0.197,3.471-2.18,5.803-4.935,5.803
					c-2.721,0-4.934-2.578-4.934-5.746c0-1.374,0.442-2.714,1.244-3.774l0.052-0.073c0.09-0.086,0.198-0.192,0.331-0.324
					c0.242-0.238,0.692-0.682,0.834-0.779l0.05-0.035l0.046-0.041C64.015,96.204,66.778,93.61,69.265,90.484 M70.108,87.671
					c-2.639,3.827-5.87,7-9.22,9.971c-0.35,0.241-1.224,1.169-1.48,1.379l0.033,0.017c-0.889,1.174-1.447,2.7-1.447,4.377
					c0,3.721,2.661,6.746,5.934,6.746c3.278,0,5.705-2.735,5.933-6.746C69.882,103.022,70.602,92.34,70.108,87.671L70.108,87.671z
					 M59.365,98.997c-0.027,0.045-0.033,0.065-0.021,0.065c0.01,0,0.032-0.015,0.065-0.042L59.365,98.997L59.365,98.997z"/>
			</g>
		</g>
		<g>
			<g>
				
					<radialGradient id="SVGID_8_" cx="205.5922" cy="-142.2855" r="1.3608" gradientTransform="matrix(6.0278 0 0 -6.8532 -1214.9382 -892.9423)" gradientUnits="userSpaceOnUse">
					<stop  offset="0" style="stop-color:#FFFFFF"/>
					<stop  offset="1" style="stop-color:#70C1CA"/>
				</radialGradient>
				<path fill="url(#SVGID_8_)" d="M30.304,70.932c-2.638,3.821-5.869,6.995-9.219,9.964c-0.445,0.309-1.755,1.741-1.525,1.353
					l0.077,0.039c-0.889,1.178-1.445,2.704-1.445,4.378c0,3.721,2.658,6.746,5.933,6.746c3.277,0,5.704-2.731,5.934-6.746
					C30.081,86.278,30.8,75.596,30.304,70.932z"/>
				<path fill="#646464" d="M29.461,73.744c0.099,4.403-0.257,10.594-0.39,12.705l-0.01,0.161c-0.199,3.471-2.182,5.803-4.936,5.803
					c-2.72,0-4.933-2.578-4.933-5.746c0-1.373,0.442-2.714,1.243-3.776l0.041-0.058c0.097-0.093,0.214-0.207,0.357-0.347
					c0.238-0.234,0.682-0.671,0.821-0.767l0.049-0.034l0.044-0.039C24.209,79.464,26.97,76.872,29.461,73.744 M30.304,70.932
					c-2.638,3.821-5.869,6.995-9.219,9.964c-0.347,0.241-1.22,1.166-1.478,1.376l0.031,0.016c-0.889,1.178-1.445,2.704-1.445,4.378
					c0,3.721,2.658,6.746,5.933,6.746c3.277,0,5.704-2.731,5.934-6.746C30.081,86.278,30.8,75.596,30.304,70.932L30.304,70.932z
					 M19.561,82.249c-0.027,0.046-0.033,0.066-0.021,0.066c0.01,0,0.033-0.015,0.067-0.043L19.561,82.249L19.561,82.249z"/>
			</g>
			<g>
				
					<radialGradient id="SVGID_9_" cx="206.4258" cy="-144.7287" r="1.3658" gradientTransform="matrix(6.0278 0 0 -6.8532 -1214.9382 -892.9423)" gradientUnits="userSpaceOnUse">
					<stop  offset="0" style="stop-color:#FFFFFF"/>
					<stop  offset="1" style="stop-color:#70C1CA"/>
				</radialGradient>
				<path fill="url(#SVGID_9_)" d="M35.329,87.671c-2.638,3.827-5.87,7-9.219,9.971c-0.445,0.308-1.755,1.741-1.525,1.355
					l0.077,0.04c-0.889,1.174-1.445,2.7-1.445,4.377c0,3.721,2.657,6.746,5.933,6.746s5.704-2.735,5.934-6.746
					C35.105,103.022,35.823,92.34,35.329,87.671z"/>
				<path fill="#646464" d="M34.486,90.484c0.095,4.186-0.221,9.993-0.388,12.673l-0.012,0.201
					c-0.199,3.471-2.182,5.803-4.936,5.803c-2.72,0-4.933-2.578-4.933-5.746c0-1.376,0.441-2.716,1.242-3.774l0.05-0.071
					c0.092-0.088,0.202-0.196,0.339-0.331c0.241-0.237,0.689-0.678,0.83-0.776l0.05-0.034l0.045-0.04
					C29.237,96.204,32,93.61,34.486,90.484 M35.329,87.671c-2.638,3.827-5.87,7-9.219,9.971c-0.348,0.241-1.225,1.169-1.48,1.379
					l0.033,0.017c-0.889,1.174-1.445,2.7-1.445,4.377c0,3.721,2.657,6.746,5.933,6.746s5.704-2.735,5.934-6.746
					C35.105,103.022,35.823,92.34,35.329,87.671L35.329,87.671z M24.586,98.997c-0.027,0.045-0.033,0.065-0.021,0.065
					c0.01,0,0.033-0.015,0.066-0.042L24.586,98.997L24.586,98.997z"/>
			</g>
		</g>
	</g>
</g>
</svg>
