<?xml version="1.0" encoding="utf-8"?>
<!-- Generator: Adobe Illustrator 19.2.1, SVG Export Plug-In . SVG Version: 6.00 Build 0)  -->
<svg version="1.1" id="Слой_1" xmlns="http://www.w3.org/2000/svg" xmlns:xlink="http://www.w3.org/1999/xlink" x="0px" y="0px"
	 viewBox="0 0 120 120" enable-background="new 0 0 120 120" xml:space="preserve">
<g>
	<g>
		<g>
			<linearGradient id="SVGID_1_" gradientUnits="userSpaceOnUse" x1="15" y1="41.0811" x2="105" y2="41.0811">
				<stop  offset="0" style="stop-color:#59A3C6"/>
				<stop  offset="0" style="stop-color:#BED2DE"/>
				<stop  offset="0.4149" style="stop-color:#DFE7E5"/>
			</linearGradient>
			<path fill="url(#SVGID_1_)" d="M105,9.427C99.095,8.208,92.919,7.5,86.511,7.5C47.016,7.5,15,32.125,15,62.501
				c0,4.143,0.615,8.174,1.744,12.055c0.58,0.02,1.159,0.051,1.739,0.081c3.126-0.439,6.401-0.28,9.393-0.013
				c0.068,0.006,0.133,0.021,0.201,0.028c0.665-0.132,1.35-0.19,2.049-0.153c7.875,0.408,15.761-0.209,23.623,0.162
				c-1.151-3.912-1.77-7.979-1.77-12.161C51.978,37.056,74.478,15.705,105,9.427z"/>
			<path fill="#646464" d="M17.807,74.602C16.638,70.709,16,66.662,16,62.501C16,32.725,47.631,8.5,86.511,8.5
				c4.464,0,9.006,0.354,13.558,1.055C70.93,17.22,50.978,38.472,50.978,62.501c0,4.138,0.605,8.19,1.733,12.109
				c0.346,0.013,0.691,0.036,1.036,0.052c-1.151-3.912-1.77-7.979-1.77-12.161c0-25.445,22.5-46.796,53.022-53.074
				C99.095,8.208,92.919,7.5,86.511,7.5C47.016,7.5,15,32.125,15,62.501c0,4.143,0.615,8.174,1.744,12.055
				C17.099,74.569,17.453,74.586,17.807,74.602z"/>
		</g>
	</g>
</g>
<g>
	<g>
		<g id="Dibujo_1_">
			<g>
				<path fill="#646464" d="M22.594,70.147h42.75c1.967,0,3.562-1.581,3.562-3.529c0-1.948-1.596-3.529-3.562-3.529h-42.75
					c-1.968,0-3.562,1.581-3.562,3.529C19.031,68.566,20.626,70.147,22.594,70.147z"/>
				<path fill="#646464" d="M11.904,80.735h42.752c1.967,0,3.562-1.581,3.562-3.529s-1.596-3.529-3.562-3.529H11.904
					c-1.968,0-3.562,1.581-3.562,3.529S9.936,80.735,11.904,80.735z"/>
				<path fill="#646464" d="M117,87.794c0-1.948-1.596-3.529-3.562-3.529H6.562C4.594,84.265,3,85.846,3,87.794
					c0,1.948,1.594,3.529,3.562,3.529h106.875C115.404,91.323,117,89.742,117,87.794z"/>
				<path fill="#646464" d="M113.438,94.853H11.906c-1.968,0-3.562,1.581-3.562,3.529s1.594,3.529,3.562,3.529h101.531
					c1.967,0,3.562-1.581,3.562-3.529S115.404,94.853,113.438,94.853z"/>
				<path fill="#646464" d="M43.969,105.441l-21.375-0.002c-1.968,0-3.562,1.581-3.562,3.529s1.594,3.529,3.562,3.529l21.375,0.002
					c1.967,0,3.562-1.581,3.562-3.529C47.531,107.022,45.935,105.441,43.969,105.441z"/>
				<path fill="#646464" d="M77.813,70.147h14.25c1.967,0,3.562-1.581,3.562-3.529c0-1.948-1.596-3.529-3.562-3.529h-14.25
					c-1.968,0-3.562,1.581-3.562,3.529C74.25,68.566,75.844,70.147,77.813,70.147z"/>
				<path fill="#646464" d="M61.781,77.206c0,1.948,1.594,3.529,3.562,3.529h37.406c1.967,0,3.562-1.581,3.562-3.529
					s-1.596-3.529-3.562-3.529H65.344C63.375,73.677,61.781,75.258,61.781,77.206z"/>
				<path fill="#646464" d="M102.75,105.439l-48.094,0.002c-1.968,0-3.562,1.581-3.562,3.529s1.594,3.529,3.562,3.529l48.094-0.002
					c1.967,0,3.562-1.581,3.562-3.529C106.313,107.021,104.716,105.439,102.75,105.439z"/>
			</g>
		</g>
	</g>
	<g>
	</g>
	<g>
	</g>
	<g>
	</g>
	<g>
	</g>
	<g>
	</g>
	<g>
	</g>
	<g>
	</g>
	<g>
	</g>
	<g>
	</g>
	<g>
	</g>
	<g>
	</g>
	<g>
	</g>
	<g>
	</g>
	<g>
	</g>
	<g>
	</g>
</g>
</svg>
