<?xml version="1.0" encoding="utf-8"?>
<!-- Generator: Adobe Illustrator 19.2.1, SVG Export Plug-In . SVG Version: 6.00 Build 0)  -->
<svg version="1.1" id="Слой_1" xmlns="http://www.w3.org/2000/svg" xmlns:xlink="http://www.w3.org/1999/xlink" x="0px" y="0px"
	 viewBox="0 0 120 120" enable-background="new 0 0 120 120" xml:space="preserve">
<g>
	<g>
		<g>
			
				<linearGradient id="SVGID_1_" gradientUnits="userSpaceOnUse" x1="1012.283" y1="-1348.8237" x2="1010.3751" y2="-1395.1396" gradientTransform="matrix(1 0 0 -1 -950.6406 -1321.8398)">
				<stop  offset="0" style="stop-color:#FFFFFF"/>
				<stop  offset="0.6044" style="stop-color:#629293"/>
				<stop  offset="1" style="stop-color:#5E7B7D"/>
			</linearGradient>
			<path fill="url(#SVGID_1_)" d="M117,59.067c0-6.839-6.435-12.384-14.379-12.384c-1.652,0-3.237,0.251-4.717,0.699
				c-0.967-4.497-5.875-7.918-11.796-7.918c-0.906,0-1.802,0.091-2.647,0.24c0.671-1.135,1.05-2.342,1.05-3.595
				c0-6.408-9.536-11.609-21.302-11.609c-11.766,0-21.302,5.199-21.302,11.609c0,0.784,0.149,1.544,0.418,2.281
				c-2.511,1.218-4.133,2.885-4.366,4.742c-7.227,0.403-12.827,3.165-12.827,6.52c0,0.441,0.102,0.87,0.286,1.292
				c-4.521,0.967-8.116,2.466-10.15,4.278c-0.352-0.012-0.697-0.022-1.056-0.022c-5.888-0.003-10.653,2.537-10.653,5.668
				c0,3.054,4.533,5.539,10.216,5.661c-0.06,0.222-0.096,0.437-0.096,0.659c0,3.067,5.659,5.544,12.649,5.544
				c1.449,0,2.838-0.112,4.133-0.313c2.827,3.891,12.715,6.767,24.493,6.767c8.843,0,16.626-1.634,21.145-4.079
				c3.078,2.025,7.609,3.308,12.672,3.308c7.807,0,14.355-3.04,16.222-7.158C111.799,70.289,117,65.207,117,59.067z"/>
			<path fill="#646464" d="M63.209,25.5c11.005,0,20.302,4.858,20.302,10.609c0,1.025-0.306,2.064-0.911,3.087l-1.106,1.872
				l2.141-0.378c0.845-0.149,1.677-0.225,2.473-0.225c5.381,0,9.931,2.998,10.819,7.129l0.228,1.061l1.039-0.315
				c1.439-0.436,2.928-0.656,4.427-0.656c7.377,0,13.379,5.107,13.379,11.384c0,5.571-4.687,10.281-11.146,11.199l-0.543,0.077
				l-0.227,0.5c-1.726,3.807-8.165,6.571-15.311,6.571c-4.668,0-9.087-1.146-12.123-3.143l-0.5-0.329l-0.526,0.285
				c-4.581,2.479-12.308,3.959-20.669,3.959c-12.518,0-21.39-3.197-23.684-6.354l-0.359-0.494l-0.604,0.094
				c-1.288,0.2-2.627,0.302-3.979,0.302c-6.865,0-11.649-2.395-11.649-4.544c0-0.117,0.019-0.244,0.061-0.399l0.333-1.233
				l-1.277-0.028c-5.007-0.108-9.237-2.243-9.237-4.661c0-1.11,0.942-2.249,2.585-3.125c1.868-0.995,4.374-1.543,7.068-1.543
				c0.347,0,0.681,0.01,1.022,0.022l0.4,0.014l0.299-0.267c1.879-1.674,5.321-3.111,9.694-4.046l1.198-0.256l-0.491-1.122
				c-0.136-0.311-0.203-0.603-0.203-0.891c0-2.336,4.543-5.112,11.883-5.521l0.833-0.047l0.104-0.828
				c0.182-1.454,1.535-2.863,3.81-3.967l0.813-0.394l-0.31-0.848c-0.237-0.649-0.357-1.301-0.357-1.938
				C42.907,30.358,52.204,25.5,63.209,25.5 M63.209,24.5c-11.766,0-21.302,5.199-21.302,11.609c0,0.784,0.149,1.544,0.418,2.281
				c-2.511,1.218-4.133,2.885-4.366,4.742c-7.227,0.403-12.827,3.165-12.827,6.52c0,0.441,0.102,0.87,0.286,1.292
				c-4.521,0.967-8.116,2.466-10.15,4.278c-0.352-0.012-0.697-0.022-1.056-0.022c-0.003,0-0.007,0-0.01,0
				c-5.884,0-10.643,2.539-10.643,5.668c0,3.054,4.533,5.539,10.216,5.661c-0.06,0.222-0.096,0.437-0.096,0.659
				c0,3.067,5.659,5.544,12.649,5.544c1.449,0,2.838-0.112,4.133-0.313c2.827,3.891,12.715,6.767,24.493,6.767
				c8.843,0,16.626-1.634,21.145-4.079c3.078,2.025,7.609,3.308,12.672,3.308c7.807,0,14.355-3.04,16.222-7.158
				C111.799,70.289,117,65.207,117,59.067c0-6.839-6.435-12.384-14.379-12.384c-1.652,0-3.237,0.251-4.717,0.699
				c-0.967-4.497-5.875-7.918-11.796-7.918c-0.906,0-1.802,0.091-2.647,0.24c0.671-1.135,1.05-2.342,1.05-3.595
				C84.511,29.701,74.974,24.5,63.209,24.5L63.209,24.5z"/>
		</g>
		<g opacity="0.61" enable-background="new    ">
			<path fill="#FFFFFF" d="M83.181,40.733c-2.846,0.162-7.65,2.321-7.68,5.468c1.41-2.36,4.764-4,7.329-4.97L83.181,40.733z"/>
			<path fill="#646464" d="M83.181,40.733c-2.846,0.162-7.65,2.321-7.68,5.468c1.41-2.36,4.764-3.999,7.329-4.97L83.181,40.733
				L83.181,40.733z"/>
		</g>
		<g opacity="0.61" enable-background="new    ">
			<path fill="#FFFFFF" d="M98.274,50.052c2.749-1.487,6.024-1.308,8.283,0.85c-2.463-0.95-5.355-2.035-7.752-0.515L98.274,50.052z"
				/>
			<path fill="#646464" d="M101.98,49.083c-1.251,0-2.527,0.331-3.707,0.969l0.531,0.336c0.863-0.547,1.789-0.757,2.737-0.757
				c1.686,0,3.439,0.663,5.015,1.271C105.267,49.67,103.646,49.083,101.98,49.083L101.98,49.083z"/>
		</g>
		<g opacity="0.61" enable-background="new    ">
			<path fill="#FFFFFF" d="M44.835,37.735c0.638-2.948,3.566-6.426,7.05-5.989c-3.096,0.503-5.391,3.204-6.87,5.492L44.835,37.735z"
				/>
			<path fill="#646464" d="M51.287,31.709c-3.216,0-5.851,3.249-6.452,6.026l0.18-0.497c1.479-2.288,3.774-4.989,6.87-5.492
				C51.683,31.721,51.484,31.709,51.287,31.709L51.287,31.709z"/>
		</g>
		<g opacity="0.61" enable-background="new    ">
			<path fill="#FFFFFF" d="M70.041,29.574c2.573,0.061,6.871,2.108,7.246,4.648c-2.131-1.157-3.668-3.595-5.648-4.31L70.041,29.574z
				"/>
			<path fill="#646464" d="M70.041,29.574l1.599,0.338c1.98,0.715,3.516,3.153,5.648,4.31
				C76.912,31.682,72.615,29.635,70.041,29.574L70.041,29.574z"/>
		</g>
		<g opacity="0.61" enable-background="new    ">
			<path fill="#FFFFFF" d="M47.501,47.889c0.363-2.41,2.761-4.726,5.486-4.457c-2.505,0.548-4.502,1.973-5.666,4.289L47.501,47.889z
				"/>
			<path fill="#646464" d="M52.554,43.411c-2.21,0-4.136,1.66-4.828,3.593c1.195-1.895,3.026-3.083,5.261-3.572
				C52.842,43.418,52.697,43.411,52.554,43.411L52.554,43.411z M47.726,47.004c-0.144,0.229-0.279,0.468-0.404,0.717l0.18,0.168
				C47.546,47.591,47.622,47.294,47.726,47.004L47.726,47.004z"/>
		</g>
		<g opacity="0.61" enable-background="new    ">
			<path fill="#FFFFFF" d="M26.019,51.718c0.107-2.315,2.534-3.891,4.914-3.668c-2.117,0.189-4.336,1.627-4.736,3.668H26.019
				L26.019,51.718z"/>
			<path fill="#646464" d="M30.482,48.03c-2.226,0-4.363,1.521-4.463,3.689h0.179c0.4-2.04,2.618-3.478,4.736-3.668
				C30.783,48.037,30.632,48.03,30.482,48.03L30.482,48.03z"/>
		</g>
		<g opacity="0.61" enable-background="new    ">
			<path fill="#FFFFFF" d="M38.979,44.892c1.933-0.196,3.841,0.989,4.05,2.813c-1.264-0.94-1.927-2.171-3.519-2.483L38.979,44.892z"
				/>
			<path fill="#646464" d="M39.397,44.871c-0.139,0-0.279,0.007-0.418,0.021l0.531,0.329c1.593,0.313,2.255,1.543,3.519,2.483
				C42.835,46.012,41.179,44.87,39.397,44.871L39.397,44.871z"/>
		</g>
		<g opacity="0.61" enable-background="new    ">
			<path fill="#FFFFFF" d="M37.91,56.708c2.869-3.11,13.99-6.05,16.442-1.179c-4.008-3.339-12.226-1.605-16.264,1.347L37.91,56.708z
				"/>
			<path fill="#646464" d="M48.652,52.941c-4.075,0-8.975,1.851-10.742,3.768l0.179,0.169c2.481-1.814,6.539-3.168,10.23-3.168
				c2.316,0,4.488,0.533,6.033,1.821C53.411,53.66,51.192,52.941,48.652,52.941L48.652,52.941z"/>
		</g>
		<g opacity="0.61" enable-background="new    ">
			<path fill="#FFFFFF" d="M65.784,54.215c2.295-2.471,7.812-3.948,10.448-1.359c-3.101-1.18-7.037-1.013-9.739,0.861L65.784,54.215
				z"/>
			<path fill="#646464" d="M72.43,51.497c-2.477,0-5.2,1.162-6.646,2.718l0.709-0.497c1.581-1.097,3.584-1.609,5.595-1.609
				c1.426,0,2.857,0.258,4.144,0.747C75.257,51.898,73.886,51.497,72.43,51.497L72.43,51.497z"/>
		</g>
	</g>
	<g>
		<g>
			
				<linearGradient id="SVGID_2_" gradientUnits="userSpaceOnUse" x1="987.6481" y1="-1377.6093" x2="1003.7008" y2="-1413.6309" gradientTransform="matrix(1 0 0 -1 -950.6406 -1321.8398)">
				<stop  offset="0" style="stop-color:#FFFFFF"/>
				<stop  offset="0.6044" style="stop-color:#629293"/>
				<stop  offset="1" style="stop-color:#5E7B7D"/>
			</linearGradient>
			<path fill="url(#SVGID_2_)" d="M90.933,78.092c0-5.675-4.986-10.273-11.145-10.273c-1.283,0-2.507,0.208-3.657,0.573
				c-0.75-3.725-4.55-6.563-9.136-6.563c-0.707,0-1.395,0.073-2.062,0.202c0.525-0.942,0.821-1.942,0.821-2.986
				c0-5.312-7.394-9.631-16.518-9.631c-9.118,0-16.514,4.319-16.514,9.631c0,0.654,0.114,1.284,0.328,1.894
				c-1.95,1.014-3.202,2.387-3.388,3.933c-5.606,0.336-9.94,2.631-9.94,5.408c0,0.366,0.077,0.723,0.22,1.071
				c-3.506,0.799-6.291,2.047-7.873,3.553c-0.267-0.018-0.537-0.021-0.81-0.021C6.697,74.882,3,76.988,3,79.587
				c0,2.526,3.512,4.604,7.913,4.705c-0.042,0.17-0.072,0.354-0.072,0.55c0,2.528,4.388,4.593,9.804,4.593
				c1.128,0,2.2-0.102,3.208-0.259c2.189,3.226,9.858,5.604,18.988,5.604c6.852,0,12.882-1.342,16.388-3.371
				c2.385,1.672,5.897,2.722,9.828,2.722c6.046,0,11.122-2.503,12.572-5.923C86.907,87.403,90.933,83.189,90.933,78.092z"/>
			<path fill="#646464" d="M49.236,50.414c8.412,0,15.518,3.952,15.518,8.631c0,0.831-0.234,1.672-0.695,2.5l-1.045,1.875
				l2.108-0.407c0.631-0.122,1.261-0.183,1.872-0.183c4.053,0,7.483,2.423,8.156,5.761l0.22,1.093l1.063-0.338
				c1.099-0.349,2.227-0.526,3.354-0.526c5.594,0,10.145,4.16,10.145,9.273c0,4.542-3.556,8.38-8.455,9.126l-0.552,0.084
				l-0.218,0.514c-1.305,3.079-6.205,5.314-11.651,5.314c-3.577,0-6.95-0.926-9.254-2.541l-0.523-0.366l-0.552,0.32
				c-3.502,2.027-9.441,3.237-15.887,3.237c-9.621,0-16.418-2.599-18.16-5.166l-0.356-0.524l-0.626,0.097
				c-1.069,0.166-2.068,0.247-3.054,0.247c-5.039,0-8.804-1.897-8.804-3.593c0-0.092,0.014-0.194,0.043-0.311l0.298-1.21
				l-1.246-0.029C6.787,83.197,4,81.299,4,79.587c0-1.752,2.981-3.705,7.259-3.705c0.25,0,0.497,0.002,0.742,0.019l0.439,0.03
				l0.319-0.303c1.437-1.368,4.067-2.541,7.405-3.302l1.15-0.262l-0.447-1.092c-0.098-0.238-0.145-0.465-0.145-0.692
				c0-1.861,3.441-4.076,9-4.41l0.834-0.05l0.1-0.829c0.139-1.156,1.153-2.28,2.856-3.165l0.77-0.4l-0.288-0.819
				c-0.183-0.519-0.272-1.03-0.272-1.562C33.722,54.366,40.827,50.414,49.236,50.414 M49.236,49.414
				c-9.118,0-16.514,4.319-16.514,9.631c0,0.654,0.114,1.284,0.328,1.894c-1.95,1.014-3.202,2.387-3.388,3.933
				c-5.606,0.336-9.94,2.631-9.94,5.408c0,0.366,0.077,0.723,0.22,1.071c-3.506,0.799-6.291,2.047-7.873,3.553
				c-0.267-0.018-0.537-0.021-0.81-0.021C6.697,74.882,3,76.988,3,79.587c0,2.526,3.512,4.604,7.913,4.705
				c-0.042,0.17-0.072,0.354-0.072,0.55c0,2.528,4.388,4.593,9.804,4.593c1.128,0,2.2-0.102,3.208-0.259
				c2.189,3.226,9.858,5.604,18.988,5.604c6.852,0,12.882-1.342,16.388-3.371c2.385,1.672,5.897,2.722,9.828,2.722
				c6.046,0,11.122-2.503,12.572-5.923c5.28-0.804,9.305-5.018,9.305-10.115c0-5.675-4.986-10.273-11.145-10.273
				c-1.283,0-2.507,0.208-3.657,0.573c-0.75-3.725-4.55-6.563-9.136-6.563c-0.707,0-1.395,0.073-2.062,0.202
				c0.525-0.942,0.821-1.942,0.821-2.986C65.754,53.733,58.361,49.414,49.236,49.414L49.236,49.414z"/>
		</g>
		<g opacity="0.61" enable-background="new    ">
			<path fill="#FFFFFF" d="M64.718,62.889c-2.207,0.134-5.927,1.921-5.952,4.53c1.086-1.954,3.691-3.315,5.677-4.115L64.718,62.889z
				"/>
			<path fill="#646464" d="M64.718,62.889c-2.207,0.134-5.927,1.921-5.952,4.53c1.086-1.954,3.691-3.315,5.677-4.115L64.718,62.889
				L64.718,62.889z"/>
		</g>
		<g opacity="0.61" enable-background="new    ">
			<path fill="#FFFFFF" d="M76.417,70.613c2.132-1.232,4.676-1.085,6.423,0.708c-1.908-0.787-4.152-1.69-6.011-0.433L76.417,70.613z
				"/>
			<path fill="#646464" d="M79.292,69.809c-0.97,0-1.96,0.275-2.875,0.803l0.412,0.274c0.667-0.451,1.383-0.624,2.116-0.624
				c1.31,0,2.672,0.553,3.895,1.057C81.842,70.297,80.585,69.809,79.292,69.809L79.292,69.809z"/>
		</g>
		<g opacity="0.61" enable-background="new    ">
			<path fill="#FFFFFF" d="M34.994,60.397c0.49-2.443,2.766-5.327,5.463-4.965c-2.398,0.415-4.176,2.656-5.325,4.55L34.994,60.397z"
				/>
			<path fill="#646464" d="M39.996,55.401c-2.492,0-4.54,2.694-5.002,4.996l0.138-0.415c1.149-1.894,2.928-4.135,5.325-4.55
				C40.302,55.411,40.148,55.401,39.996,55.401L39.996,55.401z"/>
		</g>
		<g opacity="0.61" enable-background="new    ">
			<path fill="#FFFFFF" d="M54.532,53.629c2.005,0.056,5.325,1.749,5.619,3.854c-1.646-0.952-2.84-2.975-4.378-3.572L54.532,53.629z
				"/>
			<path fill="#646464" d="M54.532,53.629l1.24,0.283c1.539,0.596,2.732,2.62,4.378,3.572
				C59.857,55.378,56.537,53.684,54.532,53.629L54.532,53.629z"/>
		</g>
		<g opacity="0.61" enable-background="new    ">
			<path fill="#FFFFFF" d="M37.059,68.824c0.285-2.004,2.139-3.922,4.258-3.694c-1.944,0.451-3.494,1.629-4.394,3.555L37.059,68.824
				z"/>
			<path fill="#646464" d="M40.973,65.111c-1.715,0-3.204,1.376-3.74,2.981c0.925-1.577,2.348-2.56,4.084-2.962
				C41.201,65.117,41.087,65.111,40.973,65.111L40.973,65.111z M37.233,68.092c-0.111,0.189-0.215,0.386-0.311,0.592l0.137,0.14
				C37.094,68.578,37.153,68.332,37.233,68.092L37.233,68.092z"/>
		</g>
		<g opacity="0.61" enable-background="new    ">
			<path fill="#FFFFFF" d="M20.408,71.999c0.083-1.919,1.969-3.228,3.811-3.04c-1.639,0.16-3.357,1.345-3.674,3.04H20.408z"/>
			<path fill="#646464" d="M23.865,68.941c-1.722,0-3.379,1.262-3.456,3.058h0.137c0.317-1.695,2.035-2.88,3.674-3.04
				C24.101,68.947,23.983,68.941,23.865,68.941L23.865,68.941z"/>
		</g>
		<g opacity="0.61" enable-background="new    ">
			<path fill="#FFFFFF" d="M30.449,66.338c1.502-0.166,2.982,0.819,3.143,2.326c-0.978-0.77-1.491-1.793-2.725-2.051L30.449,66.338z
				"/>
			<path fill="#646464" d="M30.78,66.32c-0.11,0-0.22,0.006-0.331,0.018l0.418,0.275c1.234,0.257,1.747,1.281,2.725,2.051
				C33.443,67.268,32.162,66.32,30.78,66.32L30.78,66.32z"/>
		</g>
		<g opacity="0.61" enable-background="new    ">
			<path fill="#FFFFFF" d="M29.633,76.14c2.218-2.592,10.835-5.028,12.738-0.988c-3.108-2.77-9.476-1.334-12.608,1.118L29.633,76.14
				z"/>
			<path fill="#646464" d="M37.955,73.004c-3.158,0-6.955,1.538-8.322,3.135l0.131,0.13c1.924-1.506,5.068-2.629,7.929-2.629
				c1.796,0,3.48,0.443,4.679,1.511C41.641,73.601,39.922,73.004,37.955,73.004L37.955,73.004z"/>
		</g>
		<g opacity="0.61" enable-background="new    ">
			<path fill="#FFFFFF" d="M51.233,74.075c1.784-2.051,6.059-3.285,8.105-1.135c-2.411-0.977-5.464-0.845-7.556,0.72L51.233,74.075z
				"/>
			<path fill="#646464" d="M56.396,71.813c-1.922,0-4.038,0.969-5.163,2.262l0.55-0.415c1.223-0.915,2.775-1.34,4.335-1.34
				c1.108,0,2.22,0.214,3.221,0.62C58.582,72.145,57.523,71.813,56.396,71.813L56.396,71.813z"/>
		</g>
	</g>
	<g>
		<g>
			
				<linearGradient id="SVGID_3_" gradientUnits="userSpaceOnUse" x1="1034.6454" y1="-1382.2805" x2="1033.1127" y2="-1416.369" gradientTransform="matrix(1 0 0 -1 -950.6406 -1321.8398)">
				<stop  offset="0" style="stop-color:#FFFFFF"/>
				<stop  offset="0.6953" style="stop-color:#629293"/>
				<stop  offset="1" style="stop-color:#5E7B7D"/>
			</linearGradient>
			<path fill="url(#SVGID_3_)" d="M105.054,76.708c-2.243,0-4.33,0.477-6.094,1.286c0.071-0.378,0.12-0.784,0.12-1.187
				c0-4.328-4.228-7.842-9.445-7.842c-0.018,0-0.036,0.015-0.054,0.015c-0.816-4.614-5.248-8.135-10.603-8.135
				c-5.939,0-10.758,4.325-10.758,9.675c0,0.807,0.12,1.583,0.322,2.322c-5.582,0-10.108,3.127-10.108,6.964
				c0,0.452,0.072,0.88,0.191,1.307c-0.584-0.085-1.193-0.136-1.819-0.136c-4.144,0-7.502,2.041-7.502,4.541
				c0,2.504,3.358,4.555,7.502,4.555c0.722,0,1.419-0.073,2.075-0.173c0.864,1.872,4.126,3.265,8.033,3.265
				c2.278,0,4.348-0.465,5.832-1.245c2.923,2.164,7.687,3.578,13.078,3.578c5.427,0,10.215-1.443,13.126-3.613
				c1.775,0.819,3.857,1.284,6.109,1.284c6.308,0,11.413-3.689,11.413-8.218C116.469,80.399,111.362,76.708,105.054,76.708z"/>
			<path fill="#646464" d="M78.978,61.846c4.824,0,8.869,3.074,9.618,7.309l0.146,0.826h0.839c0.063,0,0.121-0.006,0.173-0.015
				c4.602,0.052,8.326,3.101,8.326,6.842c0,0.302-0.035,0.64-0.103,1.003l-0.356,1.899l1.756-0.805
				c1.705-0.782,3.668-1.195,5.677-1.195c5.742,0,10.416,3.25,10.418,7.244c0,3.98-4.671,7.218-10.413,7.218
				c-2.032,0-4-0.412-5.69-1.192l-0.54-0.249l-0.477,0.355C95.484,93.223,90.8,94.5,85.824,94.5c-4.957,0-9.623-1.264-12.482-3.382
				l-0.504-0.373l-0.556,0.292c-1.367,0.718-3.324,1.13-5.367,1.13c-3.823,0-6.524-1.383-7.125-2.684L59.474,88.8l-0.744,0.114
				c-0.713,0.109-1.342,0.162-1.925,0.162c-3.464,0-6.502-1.661-6.502-3.555c0-1.886,3.038-3.541,6.502-3.541
				c0.541,0,1.104,0.042,1.675,0.125l1.519,0.221l-0.411-1.479c-0.105-0.378-0.154-0.709-0.154-1.04
				c0-3.233,4.171-5.964,9.108-5.964h1.311l-0.346-1.264c-0.19-0.694-0.287-1.387-0.287-2.058
				C69.22,65.737,73.597,61.846,78.978,61.846 M78.978,60.846c-5.939,0-10.758,4.325-10.758,9.675c0,0.807,0.12,1.583,0.322,2.322
				c-5.582,0-10.108,3.127-10.108,6.964c0,0.452,0.072,0.88,0.191,1.307c-0.584-0.085-1.193-0.136-1.819-0.136
				c-4.144,0-7.502,2.041-7.502,4.541c0,2.504,3.358,4.555,7.502,4.555c0.722,0,1.419-0.073,2.075-0.173
				c0.864,1.872,4.126,3.265,8.033,3.265c2.278,0,4.348-0.465,5.832-1.245c2.923,2.164,7.687,3.578,13.078,3.578
				c5.427,0,10.215-1.443,13.126-3.613c1.775,0.819,3.857,1.284,6.109,1.284c6.308,0,11.413-3.689,11.413-8.218
				c-0.003-4.554-5.11-8.244-11.418-8.244c-2.243,0-4.33,0.477-6.094,1.286c0.071-0.378,0.12-0.784,0.12-1.187
				c0-4.328-4.228-7.842-9.445-7.842c-0.018,0-0.036,0.015-0.054,0.015C88.764,64.367,84.333,60.846,78.978,60.846L78.978,60.846z"
				/>
		</g>
		<g opacity="0.61" enable-background="new    ">
			<path fill="#FFFFFF" d="M84.64,71.267c2.398-0.714,5.994,0.348,6.9,2.291c-2.2-1.037-4.264-2.308-6.882-2.027L84.64,71.267z"/>
			<path fill="#646464" d="M86.293,71.044c-0.58,0-1.143,0.072-1.652,0.223l0.018,0.263c0.251-0.027,0.496-0.039,0.737-0.039
				c2.277,0,4.156,1.129,6.145,2.067C90.827,72.028,88.444,71.044,86.293,71.044L86.293,71.044z"/>
		</g>
		<g opacity="0.61" enable-background="new    ">
			<path fill="#FFFFFF" d="M106.093,80.375c-1.574-1.258-3.806-1.098-5.792-0.269c2.028,0.109,3.81-0.185,5.708,0.442
				L106.093,80.375z"/>
			<path fill="#646464" d="M103.272,79.458c-0.979,0-2.004,0.245-2.972,0.648c0.411,0.022,0.812,0.028,1.206,0.028
				c0.396,0,0.786-0.006,1.171-0.006c1.12,0,2.205,0.048,3.331,0.419l0.085-0.172C105.285,79.73,104.304,79.458,103.272,79.458
				L103.272,79.458z"/>
		</g>
		<g opacity="0.61" enable-background="new    ">
			<path fill="#FFFFFF" d="M63.834,83.515c1.962-1.942,6.501-1.55,8.009,0.658c-1.879-1.513-5.844-2.1-7.8-0.463L63.834,83.515z"/>
			<path fill="#646464" d="M67.416,82.262c-1.374,0-2.725,0.403-3.583,1.252l0.209,0.195c0.82-0.687,1.994-0.982,3.219-0.982
				c1.696,0,3.491,0.566,4.581,1.445C70.994,82.93,69.185,82.262,67.416,82.262L67.416,82.262z"/>
		</g>
		<g opacity="0.61" enable-background="new    ">
			<path fill="#FFFFFF" d="M71.623,68.283c1.824-1.772,5.57-3.212,7.771-1.307c-2.881,0.108-5.541-0.153-7.98,1.121L71.623,68.283z"
				/>
			<path fill="#646464" d="M76.788,66.074c-1.569,0-3.255,0.709-4.475,1.623c2.19-0.816,4.55-0.626,7.081-0.721
				C78.655,66.336,77.744,66.074,76.788,66.074L76.788,66.074z M72.313,67.697c-0.303,0.113-0.602,0.245-0.899,0.4l0.209,0.186
				C71.83,68.082,72.062,67.885,72.313,67.697L72.313,67.697z"/>
		</g>
		<g opacity="0.61" enable-background="new    ">
			<path fill="#FFFFFF" d="M66.315,78.249c1.747-2.64,6.375-4.115,9.691-2.995c-2.803,0.623-6.274,0.442-8.569,2.445L66.315,78.249z
				"/>
			<path fill="#646464" d="M73.556,74.876c-2.845,0-5.896,1.342-7.241,3.373l1.122-0.55c2.295-2.003,5.766-1.822,8.569-2.445
				C75.242,74.996,74.408,74.876,73.556,74.876L73.556,74.876z"/>
		</g>
		<g opacity="0.61" enable-background="new    ">
			<path fill="#FFFFFF" d="M82.572,78.983c0.847-1.355,3.501-2.494,5.498-1.624c0.168,0,0.168-0.017,0-0.017
				c-1.776,0.334-3.679,0.784-5.283,1.64L82.572,78.983L82.572,78.983z"/>
			<path fill="#646464" d="M86.535,77.055c-1.644,0-3.321,0.902-3.963,1.928l0.216-0.002c1.595-0.851,3.487-1.301,5.255-1.634
				C87.565,77.144,87.052,77.055,86.535,77.055L86.535,77.055z M88.07,77.341c-0.009,0.002-0.019,0.003-0.028,0.005
				c0.009,0.004,0.019,0.008,0.028,0.012C88.238,77.359,88.238,77.341,88.07,77.341L88.07,77.341z"/>
		</g>
	</g>
</g>
</svg>
