<?xml version="1.0" encoding="utf-8"?>
<!-- Generator: Adobe Illustrator 19.2.1, SVG Export Plug-In . SVG Version: 6.00 Build 0)  -->
<svg version="1.1" id="Слой_1" xmlns="http://www.w3.org/2000/svg" xmlns:xlink="http://www.w3.org/1999/xlink" x="0px" y="0px"
	 viewBox="0 0 120 120" enable-background="new 0 0 120 120" xml:space="preserve">
<g>
	<g>
		<g>
			<g>
				
					<linearGradient id="SVGID_1_" gradientUnits="userSpaceOnUse" x1="774.134" y1="1095.5205" x2="772.1179" y2="1144.4591" gradientTransform="matrix(1 0 0 1 -712.9805 -1080.8799)">
					<stop  offset="0" style="stop-color:#FFFFFF"/>
					<stop  offset="0.6044" style="stop-color:#629293"/>
					<stop  offset="1" style="stop-color:#5E7B7D"/>
				</linearGradient>
				<path fill="url(#SVGID_1_)" d="M115.704,48.552c0-7.231-6.351-13.096-14.19-13.096c-1.639,0-3.197,0.267-4.662,0.74
					c-0.954-4.754-5.794-8.371-11.638-8.371c-0.901,0-1.778,0.095-2.62,0.254c0.671-1.2,1.042-2.478,1.042-3.802
					C83.635,17.499,74.222,12,62.605,12c-11.615,0-21.031,5.498-21.031,12.274c0,0.828,0.147,1.632,0.412,2.413
					c-2.478,1.288-4.076,3.05-4.309,5.014c-7.134,0.426-12.662,3.346-12.662,6.893c0,0.468,0.1,0.922,0.283,1.366
					c-4.462,1.023-8.009,2.608-10.019,4.523c-0.344-0.012-0.688-0.023-1.042-0.023c-5.808,0-10.514,2.684-10.514,5.994
					c0,3.228,4.477,5.859,10.083,5.983c-0.058,0.237-0.094,0.468-0.094,0.698c0,3.241,5.586,5.865,12.485,5.865
					c1.43,0,2.802-0.118,4.082-0.331c2.788,4.114,12.551,7.155,24.177,7.155c8.73,0,16.408-1.722,20.878-4.317
					c3.031,2.141,7.504,3.499,12.509,3.499c7.703,0,14.162-3.216,16.012-7.562C110.571,60.411,115.704,55.043,115.704,48.552z"/>
				<path fill="#646464" d="M62.605,13.009c11.044,0,20.03,5.055,20.032,11.267c0,1.111-0.307,2.224-0.913,3.307l-1.054,1.885
					l2.11-0.4c0.828-0.157,1.648-0.237,2.435-0.237c5.296,0,9.779,3.181,10.658,7.564l0.221,1.104l1.064-0.344
					c1.422-0.459,2.888-0.691,4.357-0.691c7.273,0,13.19,5.423,13.19,12.088c0,5.913-4.626,10.916-11,11.898l-0.549,0.085
					l-0.219,0.514C101.195,65.141,94.988,68,87.844,68c-4.601,0-8.951-1.209-11.936-3.316l-0.521-0.368l-0.552,0.321
					c-4.511,2.619-12.129,4.182-20.379,4.182c-10.894,0-20.715-2.824-23.351-6.716l-0.359-0.53l-0.629,0.105
					c-1.268,0.211-2.587,0.318-3.92,0.318c-6.769,0-11.485-2.56-11.485-4.857c0-0.13,0.021-0.278,0.064-0.454l0.303-1.224
					l-1.251-0.028c-4.935-0.11-9.105-2.389-9.105-4.976c0-2.703,4.357-4.986,9.514-4.986c0.342,0,0.675,0.011,1.008,0.022
					l0.418,0.014l0.304-0.289c1.857-1.769,5.25-3.286,9.554-4.273l1.156-0.265l-0.454-1.104c-0.139-0.338-0.206-0.658-0.206-0.98
					c0-2.909,5.149-5.494,11.721-5.887l0.834-0.049l0.099-0.837c0.186-1.563,1.526-3.068,3.775-4.237l0.768-0.399l-0.28-0.824
					c-0.238-0.699-0.358-1.4-0.358-2.085C42.575,18.063,51.56,13.009,62.605,13.009 M62.605,12.001
					c-11.615,0-21.031,5.498-21.031,12.274c0,0.828,0.147,1.632,0.412,2.413c-2.478,1.288-4.076,3.05-4.309,5.014
					c-7.134,0.426-12.662,3.346-12.662,6.893c0,0.468,0.1,0.922,0.283,1.366c-4.462,1.023-8.009,2.608-10.019,4.523
					c-0.344-0.012-0.688-0.023-1.042-0.023c-5.808,0-10.514,2.684-10.514,5.994c0,3.228,4.477,5.859,10.083,5.983
					c-0.058,0.237-0.094,0.468-0.094,0.698c0,3.241,5.586,5.865,12.485,5.865c1.43,0,2.802-0.118,4.082-0.331
					c2.788,4.114,12.551,7.155,24.177,7.155c8.73,0,16.408-1.722,20.878-4.317c3.031,2.141,7.504,3.499,12.509,3.499
					c7.703,0,14.162-3.216,16.012-7.562c6.716-1.034,11.849-6.404,11.849-12.895c0-7.231-6.351-13.096-14.19-13.096
					c-1.639,0-3.197,0.267-4.662,0.74c-0.954-4.754-5.794-8.371-11.638-8.371c-0.901,0-1.778,0.095-2.62,0.254
					c0.671-1.2,1.042-2.478,1.042-3.802C83.635,17.499,74.222,12.001,62.605,12.001L62.605,12.001z"/>
			</g>
			<g opacity="0.61" enable-background="new    ">
				<path fill="#FFFFFF" d="M82.322,29.165c-2.813,0.171-7.552,2.454-7.581,5.783c1.39-2.495,4.698-4.228,7.229-5.255L82.322,29.165
					z"/>
				<path fill="#646464" d="M82.322,29.165c-2.813,0.171-7.552,2.454-7.581,5.783c1.39-2.495,4.698-4.228,7.229-5.255L82.322,29.165
					L82.322,29.165z"/>
			</g>
			<g opacity="0.61" enable-background="new    ">
				<path fill="#FFFFFF" d="M97.216,39.02c2.718-1.572,5.952-1.384,8.182,0.898c-2.437-1.004-5.287-2.152-7.654-0.543L97.216,39.02z
					"/>
				<path fill="#646464" d="M100.879,37.995c-1.236,0-2.497,0.351-3.664,1.025l0.528,0.355c0.852-0.579,1.767-0.8,2.702-0.8
					c1.663,0,3.392,0.702,4.952,1.344C104.124,38.615,102.524,37.994,100.879,37.995L100.879,37.995z"/>
			</g>
			<g opacity="0.61" enable-background="new    ">
				<path fill="#FFFFFF" d="M44.464,25.994c0.63-3.116,3.523-6.794,6.962-6.332c-3.055,0.532-5.322,3.388-6.784,5.806L44.464,25.994
					z"/>
				<path fill="#646464" d="M50.837,19.623c-3.176,0-5.779,3.435-6.373,6.371l0.177-0.526c1.462-2.418,3.729-5.274,6.784-5.806
					C51.228,19.636,51.031,19.623,50.837,19.623L50.837,19.623z"/>
			</g>
			<g opacity="0.61" enable-background="new    ">
				<path fill="#FFFFFF" d="M69.354,17.369c2.539,0.066,6.777,2.229,7.153,4.914c-2.109-1.224-3.62-3.802-5.581-4.559L69.354,17.369
					z"/>
				<path fill="#646464" d="M69.354,17.369l1.572,0.355c1.961,0.757,3.473,3.335,5.581,4.559
					C76.131,19.598,71.893,17.434,69.354,17.369L69.354,17.369z"/>
			</g>
			<g opacity="0.61" enable-background="new    ">
				<path fill="#FFFFFF" d="M47.096,36.732c0.359-2.548,2.726-4.995,5.418-4.712c-2.474,0.58-4.444,2.087-5.592,4.535L47.096,36.732
					z"/>
				<path fill="#646464" d="M52.088,31.997c-2.189,0-4.095,1.763-4.774,3.813c1.179-2.011,2.988-3.272,5.201-3.791
					C52.371,32.004,52.229,31.997,52.088,31.997L52.088,31.997z M47.314,35.81c-0.139,0.238-0.27,0.486-0.391,0.744l0.173,0.177
					C47.14,36.422,47.213,36.112,47.314,35.81L47.314,35.81z"/>
			</g>
			<g opacity="0.61" enable-background="new    ">
				<path fill="#FFFFFF" d="M25.893,40.782c0.106-2.447,2.502-4.115,4.853-3.879c-2.093,0.201-4.279,1.72-4.677,3.879
					C26.07,40.782,25.893,40.782,25.893,40.782z"/>
				<path fill="#646464" d="M30.3,36.881c-2.199,0-4.308,1.609-4.407,3.901h0.176c0.398-2.159,2.584-3.678,4.677-3.879
					C30.598,36.889,30.449,36.881,30.3,36.881L30.3,36.881z"/>
			</g>
			<g opacity="0.61" enable-background="new    ">
				<path fill="#FFFFFF" d="M38.685,33.563c1.907-0.207,3.792,1.046,3.998,2.974c-1.246-0.993-1.898-2.293-3.471-2.626
					L38.685,33.563z"/>
				<path fill="#646464" d="M39.098,33.541c-0.137,0-0.275,0.007-0.413,0.022l0.527,0.349c1.572,0.332,2.224,1.632,3.471,2.626
					C42.492,34.749,40.856,33.541,39.098,33.541L39.098,33.541z"/>
			</g>
			<g opacity="0.61" enable-background="new    ">
				<path fill="#FFFFFF" d="M37.634,46.056c2.831-3.287,13.81-6.397,16.227-1.247c-3.955-3.53-12.068-1.697-16.052,1.425
					L37.634,46.056z"/>
				<path fill="#646464" d="M48.239,42.072c-4.022,0-8.86,1.958-10.605,3.983l0.174,0.177c2.448-1.918,6.454-3.349,10.098-3.349
					c2.286,0,4.43,0.563,5.955,1.925C52.933,42.832,50.745,42.072,48.239,42.072L48.239,42.072z"/>
			</g>
			<g opacity="0.61" enable-background="new    ">
				<path fill="#FFFFFF" d="M65.148,43.419c2.27-2.614,7.713-4.174,10.316-1.436c-3.069-1.247-6.952-1.069-9.616,0.911
					L65.148,43.419z"/>
				<path fill="#646464" d="M71.711,40.545c-2.445,0-5.133,1.229-6.563,2.875l0.7-0.526c1.559-1.159,3.535-1.7,5.521-1.7
					c1.408,0,2.821,0.272,4.094,0.789C74.5,40.969,73.148,40.545,71.711,40.545L71.711,40.545z"/>
			</g>
		</g>
		<g>
			<g>
				
					<linearGradient id="SVGID_2_" gradientUnits="userSpaceOnUse" x1="776.9127" y1="1112.9121" x2="792.5424" y2="1147.9843" gradientTransform="matrix(1 0 0 1 -712.9805 -1080.8799)">
					<stop  offset="0" style="stop-color:#FFFFFF"/>
					<stop  offset="0.6044" style="stop-color:#629293"/>
					<stop  offset="1" style="stop-color:#5E7B7D"/>
				</linearGradient>
				<path fill="url(#SVGID_2_)" d="M117,53.683c0-5.492-4.929-9.946-11.002-9.946c-1.272,0-2.472,0.201-3.609,0.555
					c-0.741-3.606-4.491-6.355-9.024-6.355c-0.694,0-1.379,0.071-2.032,0.196c0.518-0.911,0.806-1.88,0.806-2.891
					c0-5.144-7.299-9.324-16.298-9.324c-9.001,0-16.303,4.18-16.303,9.324c0,0.632,0.112,1.242,0.32,1.832
					c-1.922,0.982-3.16,2.312-3.341,3.808c-5.534,0.326-9.817,2.548-9.817,5.237c0,0.355,0.077,0.699,0.218,1.034
					c-3.458,0.775-6.211,1.981-7.767,3.441c-0.266-0.018-0.533-0.024-0.804-0.024c-4.503,0-8.153,2.04-8.153,4.559
					c0,2.447,3.47,4.452,7.814,4.547c-0.044,0.165-0.07,0.343-0.07,0.531c0,2.454,4.333,4.447,9.677,4.447
					c1.11,0,2.173-0.089,3.166-0.248c2.157,3.127,9.728,5.429,18.74,5.429c6.769,0,12.723-1.304,16.182-3.265
					c2.355,1.62,5.822,2.642,9.696,2.642c5.975,0,10.986-2.427,12.411-5.734C113.025,62.694,117,58.614,117,53.683z"/>
				<path fill="#646464" d="M75.84,26.926c8.292,0,15.298,3.808,15.298,8.316c0,0.8-0.227,1.605-0.673,2.39l-1.081,1.899
					l2.134-0.407c0.618-0.118,1.239-0.177,1.846-0.177c4.001,0,7.384,2.334,8.045,5.552l0.223,1.087l1.052-0.328
					c1.086-0.339,2.201-0.51,3.314-0.51c5.515,0,10.002,4.01,10.002,8.938c0,4.372-3.507,8.072-8.338,8.798l-0.549,0.083
					l-0.221,0.513c-1.281,2.971-6.115,5.128-11.494,5.128c-3.525,0-6.853-0.899-9.132-2.466l-0.513-0.353l-0.541,0.306
					c-3.463,1.964-9.329,3.136-15.692,3.136c-9.5,0-16.205-2.514-17.919-4.996l-0.358-0.519l-0.62,0.1
					c-0.975,0.156-1.987,0.236-3.009,0.236c-4.966,0-8.677-1.815-8.677-3.439c0-0.09,0.012-0.178,0.037-0.272l0.328-1.24
					l-1.273-0.03c-4.089-0.089-6.836-1.902-6.836-3.539c0-1.679,2.938-3.551,7.153-3.551c0.248,0,0.493,0.005,0.736,0.021
					l0.432,0.03l0.317-0.297c1.407-1.319,4.001-2.454,7.303-3.195l1.17-0.262l-0.466-1.114c-0.094-0.224-0.139-0.434-0.139-0.643
					c0-1.784,3.393-3.909,8.875-4.231l0.834-0.049l0.101-0.836c0.133-1.101,1.127-2.176,2.8-3.031l0.785-0.401L60.8,36.736
					c-0.177-0.502-0.263-0.991-0.263-1.496C60.537,30.734,67.545,26.926,75.84,26.926 M75.84,25.918
					c-9.001,0-16.303,4.18-16.303,9.324c0,0.632,0.112,1.242,0.32,1.832c-1.922,0.982-3.16,2.312-3.341,3.808
					c-5.534,0.326-9.817,2.548-9.817,5.237c0,0.355,0.077,0.699,0.218,1.034c-3.458,0.775-6.211,1.981-7.767,3.441
					c-0.266-0.018-0.533-0.024-0.804-0.024c-4.503,0-8.153,2.04-8.153,4.559c0,2.447,3.47,4.452,7.814,4.547
					c-0.044,0.165-0.07,0.343-0.07,0.531c0,2.454,4.333,4.447,9.677,4.447c1.11,0,2.173-0.089,3.166-0.248
					c2.157,3.127,9.728,5.429,18.74,5.429c6.769,0,12.723-1.304,16.182-3.265c2.355,1.62,5.822,2.642,9.696,2.642
					c5.975,0,10.986-2.427,12.411-5.734c5.215-0.784,9.19-4.863,9.19-9.795c0-5.492-4.929-9.946-11.002-9.946
					c-1.272,0-2.472,0.201-3.609,0.555c-0.741-3.606-4.491-6.355-9.024-6.355c-0.694,0-1.379,0.071-2.032,0.196
					c0.518-0.911,0.806-1.88,0.806-2.891C92.138,30.098,84.839,25.918,75.84,25.918L75.84,25.918z"/>
			</g>
			<g opacity="0.61" enable-background="new    ">
				<path fill="#FFFFFF" d="M91.123,38.961c-2.185,0.13-5.858,1.863-5.882,4.388c1.081-1.892,3.653-3.21,5.611-3.985L91.123,38.961z
					"/>
				<path fill="#646464" d="M91.123,38.961c-2.185,0.13-5.858,1.863-5.882,4.388c1.081-1.892,3.653-3.21,5.611-3.985L91.123,38.961
					L91.123,38.961z"/>
			</g>
			<g opacity="0.61" enable-background="new    ">
				<path fill="#FFFFFF" d="M102.673,46.44c2.101-1.194,4.608-1.052,6.34,0.686c-1.883-0.763-4.097-1.638-5.934-0.419L102.673,46.44
					z"/>
				<path fill="#646464" d="M105.507,45.662c-0.957,0-1.933,0.266-2.834,0.778l0.406,0.267c0.659-0.437,1.367-0.605,2.091-0.605
					c1.293,0,2.636,0.535,3.843,1.024C108.023,46.134,106.782,45.662,105.507,45.662L105.507,45.662z"/>
			</g>
			<g opacity="0.61" enable-background="new    ">
				<path fill="#FFFFFF" d="M61.777,36.549c0.49-2.365,2.732-5.155,5.392-4.807c-2.362,0.402-4.12,2.572-5.253,4.405L61.777,36.549z
					"/>
				<path fill="#646464" d="M66.716,31.712c-2.458,0-4.477,2.608-4.939,4.836l0.139-0.402c1.133-1.832,2.891-4.003,5.253-4.405
					C67.017,31.722,66.866,31.712,66.716,31.712L66.716,31.712z"/>
			</g>
			<g opacity="0.61" enable-background="new    ">
				<path fill="#FFFFFF" d="M81.068,29.998c1.972,0.053,5.257,1.691,5.545,3.73c-1.631-0.922-2.807-2.88-4.32-3.458L81.068,29.998z"
					/>
				<path fill="#646464" d="M81.068,29.998l1.225,0.272c1.513,0.579,2.689,2.536,4.32,3.458
					C86.325,31.689,83.04,30.052,81.068,29.998L81.068,29.998z"/>
			</g>
			<g opacity="0.61" enable-background="new    ">
				<path fill="#FFFFFF" d="M63.819,44.707c0.279-1.939,2.116-3.795,4.199-3.577c-1.919,0.438-3.444,1.578-4.334,3.441
					L63.819,44.707z"/>
				<path fill="#646464" d="M67.683,41.113c-1.69,0-3.166,1.334-3.694,2.889c0.914-1.527,2.314-2.48,4.029-2.871
					C67.905,41.119,67.794,41.113,67.683,41.113L67.683,41.113z M63.989,44.001c-0.109,0.181-0.211,0.372-0.305,0.569l0.135,0.136
					C63.853,44.469,63.91,44.233,63.989,44.001L63.989,44.001z"/>
			</g>
			<g opacity="0.61" enable-background="new    ">
				<path fill="#FFFFFF" d="M47.38,47.783c0.082-1.857,1.942-3.129,3.764-2.944c-1.622,0.154-3.317,1.301-3.626,2.944H47.38z"/>
				<path fill="#646464" d="M50.791,44.821c-1.702,0-3.335,1.225-3.411,2.961h0.138c0.309-1.643,2.004-2.79,3.626-2.944
					C51.026,44.827,50.909,44.821,50.791,44.821L50.791,44.821z"/>
			</g>
			<g opacity="0.61" enable-background="new    ">
				<path fill="#FFFFFF" d="M57.295,42.301c1.48-0.159,2.943,0.792,3.099,2.253c-0.966-0.745-1.469-1.739-2.687-1.987L57.295,42.301
					z"/>
				<path fill="#646464" d="M57.619,42.284c-0.108,0-0.216,0.006-0.324,0.017l0.411,0.266c1.218,0.248,1.722,1.242,2.687,1.987
					C60.249,43.2,58.982,42.284,57.619,42.284L57.619,42.284z"/>
			</g>
			<g opacity="0.61" enable-background="new    ">
				<path fill="#FFFFFF" d="M56.486,51.791c2.193-2.507,10.702-4.865,12.58-0.953c-3.069-2.685-9.361-1.295-12.448,1.083
					L56.486,51.791z"/>
				<path fill="#646464" d="M64.703,48.758c-3.118,0-6.866,1.488-8.217,3.033l0.132,0.13c1.896-1.46,5-2.547,7.825-2.547
					c1.774,0,3.439,0.429,4.623,1.466C68.345,49.336,66.646,48.758,64.703,48.758L64.703,48.758z"/>
			</g>
			<g opacity="0.61" enable-background="new    ">
				<path fill="#FFFFFF" d="M77.813,49.793c1.756-1.987,5.981-3.18,7.994-1.1c-2.377-0.945-5.387-0.816-7.453,0.698L77.813,49.793z"
					/>
				<path fill="#646464" d="M82.906,47.603c-1.897,0-3.986,0.937-5.093,2.19l0.541-0.402c1.208-0.885,2.74-1.297,4.278-1.297
					c1.092,0,2.188,0.208,3.174,0.6C85.063,47.925,84.017,47.603,82.906,47.603L82.906,47.603z"/>
			</g>
		</g>
		<g>
			<g>
				
					<linearGradient id="SVGID_3_" gradientUnits="userSpaceOnUse" x1="762.5671" y1="1107.3291" x2="760.5477" y2="1152.2361" gradientTransform="matrix(1 0 0 1 -712.9805 -1080.8799)">
					<stop  offset="0" style="stop-color:#FFFFFF"/>
					<stop  offset="0.7111" style="stop-color:#629293"/>
					<stop  offset="1" style="stop-color:#5E7B7D"/>
				</linearGradient>
				<path fill="url(#SVGID_3_)" d="M77.895,47.877c-3.008,0-5.808,0.627-8.181,1.691c0.096-0.503,0.16-1.029,0.16-1.561
					c0-5.706-5.685-10.329-12.699-10.329c-0.024,0-0.042,0.005-0.064,0.005c-1.104-6.072-7.052-10.714-14.249-10.714
					c-7.982,0-14.454,5.699-14.454,12.742c0,1.058,0.166,2.086,0.435,3.062c-7.499,0-13.578,4.122-13.578,9.183
					c0,0.591,0.091,1.158,0.254,1.72c-0.785-0.125-1.599-0.183-2.444-0.183C7.505,53.494,3,56.185,3,59.489
					c0,3.3,4.505,6.001,10.075,6.001c0.97,0,1.904-0.1,2.791-0.231c1.16,2.459,5.539,4.304,10.79,4.304
					c3.058,0,5.837-0.63,7.835-1.65c3.927,2.854,10.325,4.713,17.572,4.713c7.287,0,13.722-1.892,17.639-4.761
					c2.377,1.071,5.182,1.698,8.194,1.698c8.479,0,15.336-4.859,15.336-10.843C93.23,52.738,86.373,47.877,77.895,47.877z"/>
				<path fill="#646464" d="M42.861,27.978c6.645,0,12.224,4.158,13.265,9.887l0.15,0.827h0.833c0.039,0,0.075-0.002,0.111-0.005
					c6.43,0.02,11.652,4.193,11.652,9.321c0,0.424-0.046,0.873-0.142,1.371l-0.363,1.897l1.751-0.786
					c2.339-1.049,5.028-1.605,7.775-1.605c7.903,0,14.335,4.413,14.337,9.837c0,5.423-6.431,9.835-14.336,9.835
					c-2.756,0-5.448-0.556-7.786-1.61l-0.528-0.238l-0.468,0.343c-3.907,2.861-10.281,4.568-17.052,4.568
					c-6.739,0-13.09-1.691-16.987-4.523l-0.494-0.359l-0.543,0.277c-1.918,0.98-4.609,1.541-7.383,1.541
					c-5.28,0-9.035-1.921-9.887-3.728l-0.317-0.672l-0.729,0.108c-1.016,0.15-1.857,0.221-2.645,0.221
					C8.156,64.482,4,62.195,4,59.489c0-2.702,4.156-4.986,9.075-4.987c0.803,0,1.573,0.057,2.288,0.171l1.557,0.247l-0.441-1.525
					c-0.144-0.497-0.214-0.968-0.214-1.437c0-4.508,5.642-8.175,12.578-8.175h1.317l-0.353-1.278
					c-0.264-0.958-0.399-1.896-0.399-2.792C29.407,33.242,35.443,27.978,42.861,27.978 M42.861,26.97
					c-7.982,0-14.454,5.699-14.454,12.742c0,1.058,0.166,2.086,0.435,3.062c-7.499,0-13.578,4.122-13.578,9.183
					c0,0.591,0.091,1.158,0.254,1.72c-0.785-0.125-1.599-0.183-2.444-0.183C7.505,53.494,3,56.185,3,59.489
					c0,3.3,4.505,6.001,10.075,6.001c0.97,0,1.904-0.1,2.791-0.231c1.16,2.459,5.539,4.304,10.79,4.304
					c3.058,0,5.837-0.63,7.835-1.65c3.927,2.854,10.325,4.713,17.572,4.713c7.287,0,13.722-1.892,17.639-4.761
					c2.377,1.071,5.182,1.698,8.194,1.698c8.479,0,15.336-4.859,15.336-10.843c-0.003-5.984-6.86-10.845-15.337-10.845
					c-3.008,0-5.808,0.627-8.181,1.691c0.096-0.503,0.16-1.029,0.16-1.561c0-5.706-5.685-10.329-12.699-10.329
					c-0.024,0-0.042,0.005-0.064,0.005C56.006,31.612,50.058,26.97,42.861,26.97L42.861,26.97z"/>
			</g>
			<g opacity="0.61" enable-background="new    ">
				<path fill="#FFFFFF" d="M50.473,40.712c3.223-0.945,8.05,0.461,9.271,3.016c-2.961-1.372-5.727-3.039-9.245-2.673L50.473,40.712
					z"/>
				<path fill="#646464" d="M52.695,40.415c-0.78,0-1.538,0.095-2.223,0.295l0.026,0.343c0.335-0.035,0.664-0.051,0.986-0.051
					c3.061,0,5.58,1.484,8.259,2.725C58.782,41.716,55.585,40.415,52.695,40.415L52.695,40.415z"/>
			</g>
			<g opacity="0.61" enable-background="new    ">
				<path fill="#FFFFFF" d="M79.297,52.713c-2.122-1.668-5.109-1.461-7.78-0.355c2.718,0.142,5.115-0.243,7.662,0.573L79.297,52.713
					z"/>
				<path fill="#646464" d="M75.504,51.495c-1.313,0-2.688,0.326-3.987,0.864c0.546,0.028,1.08,0.036,1.604,0.036
					c0.543,0,1.075-0.008,1.603-0.008c1.498,0,2.95,0.062,4.455,0.544l0.118-0.218C78.207,51.858,76.89,51.495,75.504,51.495
					L75.504,51.495z"/>
			</g>
			<g opacity="0.61" enable-background="new    ">
				<path fill="#FFFFFF" d="M22.517,56.84c2.637-2.554,8.732-2.034,10.767,0.875c-2.532-1.999-7.858-2.779-10.482-0.627
					L22.517,56.84z"/>
				<path fill="#646464" d="M27.324,55.196c-1.844,0-3.655,0.529-4.807,1.644l0.285,0.248c1.097-0.9,2.666-1.287,4.306-1.287
					c2.283,0,4.703,0.751,6.176,1.914C32.137,56.077,29.703,55.196,27.324,55.196L27.324,55.196z"/>
			</g>
			<g opacity="0.61" enable-background="new    ">
				<path fill="#FFFFFF" d="M32.986,36.774c2.45-2.334,7.476-4.233,10.436-1.727c-3.87,0.142-7.443-0.201-10.722,1.478
					L32.986,36.774z"/>
				<path fill="#646464" d="M39.925,33.862c-2.103,0-4.361,0.93-6,2.131c2.939-1.068,6.104-0.82,9.498-0.945
					C42.43,34.206,41.206,33.862,39.925,33.862L39.925,33.862z M33.925,35.992c-0.413,0.15-0.82,0.326-1.224,0.532l0.285,0.248
					C33.267,36.505,33.583,36.242,33.925,35.992L33.925,35.992z"/>
			</g>
			<g opacity="0.61" enable-background="new    ">
				<path fill="#FFFFFF" d="M25.856,49.899c2.342-3.476,8.562-5.417,13.019-3.937c-3.768,0.821-8.43,0.58-11.515,3.228
					L25.856,49.899z"/>
				<path fill="#646464" d="M35.573,45.461c-3.822,0-7.916,1.765-9.718,4.438l1.504-0.71c3.085-2.649,7.747-2.406,11.515-3.228
					C37.845,45.62,36.722,45.461,35.573,45.461L35.573,45.461z"/>
			</g>
			<g opacity="0.61" enable-background="new    ">
				<path fill="#FFFFFF" d="M47.691,50.869c1.142-1.786,4.701-3.288,7.387-2.141c0.224,0,0.224-0.012,0-0.012
					c-2.384,0.425-4.945,1.029-7.099,2.152L47.691,50.869C47.691,50.868,47.691,50.869,47.691,50.869z"/>
				<path fill="#646464" d="M53.014,48.328c-2.208,0-4.458,1.189-5.323,2.541h0.288c2.148-1.12,4.7-1.724,7.079-2.149
					C54.411,48.447,53.715,48.328,53.014,48.328L53.014,48.328z M55.078,48.717c-0.007,0.001-0.013,0.002-0.02,0.004
					c0.007,0.003,0.013,0.006,0.02,0.008C55.302,48.728,55.302,48.717,55.078,48.717L55.078,48.717z"/>
			</g>
		</g>
	</g>
	<g>
		
			<radialGradient id="SVGID_4_" cx="167.5493" cy="225.4907" r="1.0626" gradientTransform="matrix(6.0278 0 0 6.0543 -986.6245 -1291.1202)" gradientUnits="userSpaceOnUse">
			<stop  offset="0" style="stop-color:#FFFFFF"/>
			<stop  offset="0.3827" style="stop-color:#FCFCFC"/>
			<stop  offset="0.7034" style="stop-color:#F4F4F4"/>
			<stop  offset="1" style="stop-color:#E5E5E5"/>
		</radialGradient>
		<ellipse fill="url(#SVGID_4_)" cx="23.329" cy="74.068" rx="6.405" ry="6.433"/>
		<path fill="#646464" d="M23.329,68.643c2.98,0,5.405,2.433,5.405,5.425s-2.425,5.425-5.405,5.425s-5.405-2.433-5.405-5.425
			S20.348,68.643,23.329,68.643 M23.329,67.635c-3.537,0-6.405,2.88-6.405,6.433s2.868,6.433,6.405,6.433s6.405-2.88,6.405-6.433
			C29.733,70.516,26.866,67.635,23.329,67.635L23.329,67.635z"/>
	</g>
	<g>
		
			<radialGradient id="SVGID_5_" cx="173.4412" cy="229.0554" r="1.0626" gradientTransform="matrix(6.0278 0 0 6.0543 -986.6245 -1291.1202)" gradientUnits="userSpaceOnUse">
			<stop  offset="0" style="stop-color:#FFFFFF"/>
			<stop  offset="0.3827" style="stop-color:#FCFCFC"/>
			<stop  offset="0.7034" style="stop-color:#F4F4F4"/>
			<stop  offset="1" style="stop-color:#E5E5E5"/>
		</radialGradient>
		<ellipse fill="url(#SVGID_5_)" cx="58.844" cy="95.649" rx="6.405" ry="6.433"/>
		<path fill="#646464" d="M58.844,90.225c2.98,0,5.405,2.433,5.405,5.425c0,2.992-2.425,5.425-5.405,5.425s-5.405-2.433-5.405-5.425
			C53.439,92.658,55.864,90.225,58.844,90.225 M58.844,89.216c-3.537,0-6.405,2.88-6.405,6.433s2.868,6.433,6.405,6.433
			s6.405-2.88,6.405-6.433C65.249,92.095,62.382,89.216,58.844,89.216L58.844,89.216z"/>
	</g>
	<g>
		
			<radialGradient id="SVGID_6_" cx="176.9864" cy="225.3035" r="1.5624" gradientTransform="matrix(6.0278 0 0 6.0543 -986.6245 -1291.1202)" gradientUnits="userSpaceOnUse">
			<stop  offset="0" style="stop-color:#FFFFFF"/>
			<stop  offset="0.3827" style="stop-color:#FCFCFC"/>
			<stop  offset="0.7034" style="stop-color:#F4F4F4"/>
			<stop  offset="1" style="stop-color:#E5E5E5"/>
		</radialGradient>
		<path fill="url(#SVGID_6_)" d="M89.632,72.934c0-5.226-4.216-9.459-9.418-9.459c-5.196,0-9.418,4.233-9.418,9.459
			s4.222,9.46,9.418,9.46C85.418,82.394,89.632,78.16,89.632,72.934z"/>
		<path fill="#646464" d="M80.214,64.482c4.642,0,8.418,3.791,8.418,8.451c0,4.661-3.776,8.452-8.418,8.452
			s-8.418-3.792-8.418-8.452C71.795,68.273,75.572,64.482,80.214,64.482 M80.214,63.474c-5.196,0-9.418,4.233-9.418,9.459
			s4.222,9.46,9.418,9.46c5.204,0,9.418-4.233,9.418-9.46C89.632,67.708,85.416,63.474,80.214,63.474L80.214,63.474z"/>
	</g>
	<g>
		
			<radialGradient id="SVGID_7_" cx="172.1637" cy="225.4907" r="1.0624" gradientTransform="matrix(6.0278 0 0 6.0543 -986.6245 -1291.1202)" gradientUnits="userSpaceOnUse">
			<stop  offset="0" style="stop-color:#FFFFFF"/>
			<stop  offset="0.3827" style="stop-color:#FCFCFC"/>
			<stop  offset="0.7034" style="stop-color:#F4F4F4"/>
			<stop  offset="1" style="stop-color:#E5E5E5"/>
		</radialGradient>
		<ellipse fill="url(#SVGID_7_)" cx="51.144" cy="74.068" rx="6.403" ry="6.433"/>
		<path fill="#646464" d="M51.144,68.643c2.979,0,5.403,2.433,5.403,5.425s-2.424,5.425-5.403,5.425s-5.403-2.433-5.403-5.425
			S48.164,68.643,51.144,68.643 M51.144,67.635c-3.536,0-6.403,2.88-6.403,6.433s2.867,6.433,6.403,6.433s6.403-2.88,6.403-6.433
			C57.546,70.516,54.68,67.635,51.144,67.635L51.144,67.635z"/>
	</g>
	<g>
		
			<radialGradient id="SVGID_8_" cx="176.5881" cy="228.7223" r="0.7188" gradientTransform="matrix(6.0278 0 0 6.0543 -986.6245 -1291.1202)" gradientUnits="userSpaceOnUse">
			<stop  offset="0" style="stop-color:#FFFFFF"/>
			<stop  offset="0.3827" style="stop-color:#FCFCFC"/>
			<stop  offset="0.7034" style="stop-color:#F4F4F4"/>
			<stop  offset="1" style="stop-color:#E5E5E5"/>
		</radialGradient>
		<path fill="url(#SVGID_8_)" d="M82.147,93.633c0-2.406-1.937-4.351-4.333-4.351c-2.392,0-4.335,1.945-4.335,4.351
			s1.943,4.351,4.335,4.351C80.209,97.984,82.147,96.039,82.147,93.633z"/>
		<path fill="#646464" d="M77.814,90.289c1.838,0,3.333,1.5,3.333,3.343s-1.495,3.343-3.333,3.343c-1.839,0-3.335-1.5-3.335-3.343
			S75.975,90.289,77.814,90.289 M77.814,89.281c-2.392,0-4.335,1.945-4.335,4.351s1.943,4.351,4.335,4.351
			c2.396,0,4.333-1.945,4.333-4.351S80.209,89.281,77.814,89.281L77.814,89.281z"/>
	</g>
	<g>
		
			<radialGradient id="SVGID_9_" cx="169.3071" cy="228.1702" r="0.7187" gradientTransform="matrix(6.0278 0 0 6.0543 -986.6245 -1291.1202)" gradientUnits="userSpaceOnUse">
			<stop  offset="0" style="stop-color:#FFFFFF"/>
			<stop  offset="0.3827" style="stop-color:#FCFCFC"/>
			<stop  offset="0.7034" style="stop-color:#F4F4F4"/>
			<stop  offset="1" style="stop-color:#E5E5E5"/>
		</radialGradient>
		<path fill="url(#SVGID_9_)" d="M38.258,90.292c0-2.407-1.94-4.352-4.333-4.352s-4.333,1.945-4.333,4.352
			c0,2.405,1.94,4.35,4.333,4.35C36.318,94.644,38.258,92.697,38.258,90.292z"/>
		<path fill="#646464" d="M33.925,86.947c1.838,0,3.333,1.501,3.333,3.344s-1.494,3.342-3.333,3.342c-1.838,0-3.333-1.5-3.333-3.342
			C30.592,88.448,32.087,86.947,33.925,86.947 M33.925,85.939c-2.393,0-4.333,1.945-4.333,4.352c0,2.405,1.94,4.35,4.333,4.35
			c0,0,0.001,0,0.002,0c2.392,0,4.331-1.945,4.331-4.35C38.258,87.884,36.318,85.939,33.925,85.939L33.925,85.939z"/>
	</g>
	<g>
		
			<radialGradient id="SVGID_10_" cx="179.3399" cy="227.2618" r="0.875" gradientTransform="matrix(6.0278 0 0 6.0543 -986.6245 -1291.1202)" gradientUnits="userSpaceOnUse">
			<stop  offset="0" style="stop-color:#FFFFFF"/>
			<stop  offset="0.3827" style="stop-color:#FCFCFC"/>
			<stop  offset="0.7034" style="stop-color:#F4F4F4"/>
			<stop  offset="1" style="stop-color:#E5E5E5"/>
		</radialGradient>
		<path fill="url(#SVGID_10_)" d="M99.675,84.791c0-2.926-2.354-5.297-5.275-5.297c-2.909,0-5.275,2.372-5.275,5.297
			s2.366,5.297,5.275,5.297C97.321,90.088,99.675,87.717,99.675,84.791z"/>
		<path fill="#646464" d="M94.402,80.501c2.357,0,4.275,1.924,4.275,4.289s-1.918,4.289-4.275,4.289s-4.275-1.924-4.275-4.289
			S92.045,80.501,94.402,80.501 M94.402,79.493c-2.909,0-5.275,2.372-5.275,5.297c0,2.926,2.366,5.297,5.275,5.297
			c2.919,0,5.275-2.372,5.275-5.297C99.675,81.865,97.322,79.493,94.402,79.493L94.402,79.493z"/>
	</g>
</g>
</svg>
