<?xml version="1.0" encoding="utf-8"?>
<!-- Generator: Adobe Illustrator 19.2.1, SVG Export Plug-In . SVG Version: 6.00 Build 0)  -->
<svg version="1.1" id="Слой_1" xmlns="http://www.w3.org/2000/svg" xmlns:xlink="http://www.w3.org/1999/xlink" x="0px" y="0px"
	 viewBox="0 0 120 120" enable-background="new 0 0 120 120" xml:space="preserve">
<g>
	<g>
		
			<linearGradient id="SVGID_1_" gradientUnits="userSpaceOnUse" x1="7.9849" y1="81.5842" x2="115.3333" y2="81.5842" gradientTransform="matrix(1 0 0 -1 0 120)">
			<stop  offset="0" style="stop-color:#DFE7E5"/>
			<stop  offset="0.3564" style="stop-color:#BED2DE"/>
			<stop  offset="1" style="stop-color:#59A3C6"/>
		</linearGradient>
		<path fill="url(#SVGID_1_)" d="M115.28,41.355c-0.276-1.315-1.538-2.155-2.82-1.881l-3.083,0.658
			c-1.587-3.77-4.073-8.86-6.826-11.251c-12.875-11.195-27.026-15.66-42.925-12.267c-10.302,2.198-16.795,4.659-19.845,7.52
			c-0.412,0.387-1.626,1.524-3.762,10.044c-5.465,1.258-19.757,5.37-25.032,14.863c-2.538,4.566-3.078,8.984-2.994,12.287
			c3.271-3.266,7.486-5.401,12.161-6.598c0.729-0.494,1.557-0.863,2.466-1.057c1.085-0.232,2.164-0.189,3.177,0.068
			c9.937-1.011,20.898,1.393,28.857,5.518l25.498-5.441c2.676,3.808,7.387,5.876,12.148,4.86s8.237-4.831,9.153-9.406l7.842-1.673
			c0.017-0.004,0.032-0.007,0.044-0.009c1.285-0.274,2.106-1.561,1.83-2.874l2.287-0.488
			C114.739,43.953,115.555,42.665,115.28,41.355z M60.154,32.921l-18.075,3.857c-0.398,0.085-0.814-0.049-1.1-0.35
			c-0.289-0.303-0.4-0.733-0.3-1.137c0.476-1.974,1.37-5.408,1.974-6.211c2.126-2.124,6.903-3.935,14.301-5.514
			c0.403-0.086,0.807-0.167,1.216-0.246c0.632-0.119,1.247,0.303,1.382,0.948l1.517,7.215C61.207,32.141,60.8,32.783,60.154,32.921z
			 M81.734,27.661c-0.118,0.429-0.465,0.755-0.895,0.847l-16.029,3.42c-0.636,0.136-1.271-0.285-1.409-0.942l-1.444-6.879
			c-0.071-0.339,0.006-0.694,0.204-0.972c0.201-0.279,0.506-0.462,0.847-0.488c8.398-0.764,15.278,0.66,18.416,3.806
			C81.739,26.768,81.854,27.232,81.734,27.661z M91.302,53.924c-3.847,0.821-7.654-1.708-8.48-5.643s1.635-7.804,5.485-8.625
			c3.85-0.822,7.654,1.71,8.48,5.645S95.15,53.103,91.302,53.924z"/>
		<path fill="#646464" d="M7.527,62.491l-0.03-1.152c-0.114-4.468,0.914-8.686,3.056-12.539c5.242-9.435,19.041-13.62,25.058-15.035
			c2.125-8.389,3.36-9.55,3.828-9.99c3.12-2.927,9.688-5.427,20.083-7.644c15.734-3.359,29.915,0.692,43.353,12.378
			c2.707,2.35,5.164,7.23,6.798,11.055l2.683-0.572c0.74-0.16,1.499-0.017,2.137,0.398c0.657,0.427,1.109,1.089,1.272,1.865l0,0
			c0.331,1.576-0.658,3.127-2.205,3.457l-1.844,0.394c0.057,1.395-0.885,2.671-2.273,2.968l-7.571,1.616
			c-1.082,4.769-4.767,8.47-9.469,9.472c-4.7,1.004-9.559-0.874-12.464-4.793l-25.356,5.41l-0.158-0.082
			c-8.331-4.317-19.281-6.41-28.578-5.465l-0.088,0.009l-0.085-0.022c-0.985-0.251-1.978-0.271-2.951-0.064
			c-0.816,0.174-1.586,0.505-2.29,0.983l-0.155,0.07c-4.867,1.246-8.882,3.422-11.934,6.469L7.527,62.491z M69.932,15.984
			c-3.33,0-6.728,0.372-10.202,1.113c-10.212,2.179-16.626,4.598-19.609,7.397c-1.009,0.948-2.228,4.247-3.621,9.803l-0.074,0.294
			l-0.296,0.068c-5.718,1.316-19.573,5.375-24.709,14.62c-1.873,3.369-2.858,7.03-2.936,10.898c3.041-2.74,6.892-4.724,11.463-5.907
			c0.79-0.523,1.654-0.887,2.568-1.082c1.095-0.235,2.21-0.217,3.316,0.051c9.402-0.937,20.444,1.166,28.891,5.498l25.646-5.472
			l0.188,0.268c2.652,3.774,7.22,5.606,11.638,4.661c4.419-0.943,7.863-4.483,8.772-9.02l0.064-0.319l8.161-1.741
			c1.061-0.227,1.712-1.254,1.493-2.299l-0.101-0.481l2.769-0.591c1.015-0.217,1.661-1.243,1.442-2.288l0,0
			c-0.108-0.517-0.408-0.957-0.842-1.239c-0.417-0.27-0.909-0.363-1.39-0.26l-3.485,0.744l-0.159-0.378
			c-1.59-3.778-4.042-8.765-6.694-11.069C92.011,20.372,81.37,15.984,69.932,15.984z M89.835,54.573
			c-1.441,0-2.86-0.419-4.107-1.228c-1.753-1.138-2.956-2.9-3.389-4.963c-0.883-4.2,1.748-8.331,5.866-9.21
			c1.963-0.418,3.979-0.041,5.679,1.062c1.753,1.138,2.957,2.901,3.39,4.965c0.881,4.199-1.75,8.33-5.866,9.207
			C90.884,54.518,90.358,54.573,89.835,54.573z M89.772,39.995c-0.453,0-0.909,0.048-1.361,0.144
			c-3.584,0.765-5.873,4.372-5.103,8.04c0.379,1.804,1.43,3.344,2.96,4.337c1.478,0.961,3.229,1.287,4.93,0.924l0,0
			c3.584-0.765,5.873-4.37,5.104-8.038c-0.379-1.805-1.431-3.346-2.961-4.34C92.257,40.359,91.024,39.995,89.772,39.995z
			 M41.836,37.298c-0.453,0-0.89-0.186-1.217-0.53c-0.407-0.425-0.564-1.022-0.422-1.596c0.591-2.452,1.429-5.553,2.059-6.39
			c2.225-2.229,6.983-4.076,14.594-5.7c0.406-0.087,0.813-0.169,1.225-0.249c0.894-0.17,1.773,0.429,1.962,1.332l1.517,7.215
			c0.194,0.921-0.387,1.829-1.296,2.023L42.183,37.26C42.067,37.286,41.951,37.298,41.836,37.298z M58.381,23.795
			c-0.04,0-0.08,0.004-0.12,0.011c-0.404,0.079-0.804,0.159-1.204,0.244c-7.315,1.561-12.043,3.371-14.054,5.38
			c-0.354,0.478-1.06,2.733-1.843,5.978c-0.061,0.247,0.005,0.5,0.177,0.679c0.17,0.179,0.406,0.258,0.638,0.208l18.075-3.857
			c0.376-0.081,0.616-0.464,0.533-0.854l-1.517-7.215C58.996,24.032,58.702,23.795,58.381,23.795z M64.566,32.448
			c-0.318,0-0.631-0.092-0.907-0.271c-0.385-0.25-0.65-0.637-0.743-1.09l-1.444-6.879c-0.1-0.47,0.005-0.966,0.286-1.36
			c0.291-0.405,0.733-0.658,1.214-0.694c8.53-0.777,15.562,0.701,18.804,3.95c0.438,0.437,0.605,1.084,0.438,1.687l0,0
			c-0.167,0.608-0.654,1.068-1.269,1.199l-16.03,3.42C64.798,32.436,64.682,32.448,64.566,32.448z M67.357,22.938
			c-1.378,0-2.816,0.066-4.304,0.202c-0.196,0.014-0.371,0.117-0.49,0.283c-0.12,0.168-0.165,0.38-0.122,0.581l1.444,6.881
			c0.041,0.194,0.152,0.358,0.315,0.464c0.153,0.099,0.334,0.132,0.505,0.097l16.029-3.42c0.252-0.054,0.452-0.244,0.521-0.494
			l0.001-0.002c0.073-0.261,0.002-0.539-0.184-0.726C78.584,24.307,73.611,22.938,67.357,22.938z"/>
	</g>
	<g>
		
			<linearGradient id="SVGID_2_" gradientUnits="userSpaceOnUse" x1="4.6657" y1="56.395" x2="7.431" y2="56.395" gradientTransform="matrix(1 0 0 -1 0 120)">
			<stop  offset="0" style="stop-color:#DFE7E5"/>
			<stop  offset="0.3564" style="stop-color:#BED2DE"/>
			<stop  offset="1" style="stop-color:#59A3C6"/>
		</linearGradient>
		<path fill="url(#SVGID_2_)" d="M4.841,65.328c0.767-1.255,1.627-2.411,2.59-3.446l-0.886,0.189
			c-1.285,0.274-2.101,1.56-1.826,2.873C4.748,65.078,4.793,65.204,4.841,65.328z"/>
		<path fill="#646464" d="M4.74,66.445l-0.361-0.94c-0.058-0.149-0.11-0.299-0.143-0.46c-0.331-1.576,0.659-3.128,2.207-3.458
			l2.422-0.517l-1.069,1.147c-0.913,0.981-1.764,2.114-2.531,3.368L4.74,66.445z M5.931,62.881c-0.294,0.22-0.518,0.523-0.646,0.87
			C5.495,63.453,5.711,63.162,5.931,62.881z"/>
	</g>
</g>
<g>
	<g>
		<g id="group-20svg_1_">
			<g>
				
					<linearGradient id="path-1_1_" gradientUnits="userSpaceOnUse" x1="3.4957" y1="41.5526" x2="116.5028" y2="41.5526" gradientTransform="matrix(1 0 0 -1 0 120)">
					<stop  offset="0" style="stop-color:#DFE7E5"/>
					<stop  offset="0.3564" style="stop-color:#BED2DE"/>
					<stop  offset="1" style="stop-color:#59A3C6"/>
				</linearGradient>
				<path id="path-1_2_" fill="url(#path-1_1_)" d="M81.393,89.248c-7.193,0.002-15.213-2.113-23.78-7.812
					C28.501,62.079,8.942,80.352,8.124,81.14c-1.031,0.994-2.734,1.021-3.805,0.063s-1.1-2.539-0.07-3.532
					c0.233-0.223,23.642-22.139,56.495-0.296c28.83,19.169,49.995-7.542,50.884-8.688c0.872-1.122,2.553-1.374,3.754-0.571
					c1.207,0.804,1.482,2.365,0.615,3.485C115.814,71.839,102.021,89.246,81.393,89.248z"/>
				<path fill="#646464" d="M81.384,89.743c-8.079,0-16.169-2.656-24.046-7.895C28.556,62.71,9.275,80.72,8.468,81.496
					c-1.21,1.165-3.219,1.202-4.479,0.075c-0.622-0.555-0.973-1.307-0.988-2.113c-0.015-0.805,0.306-1.566,0.904-2.143
					c0.239-0.228,24.027-22.35,57.115-0.352c28.404,18.885,49.34-7.449,50.217-8.579c1.024-1.32,3.008-1.625,4.422-0.679
					c0.708,0.471,1.171,1.175,1.303,1.982c0.13,0.785-0.074,1.572-0.571,2.215c-0.138,0.179-14.07,17.837-34.998,17.839l0,0
					C81.39,89.743,81.386,89.743,81.384,89.743z M31.36,72.08c7.46,0,16.428,2.229,26.528,8.945
					c7.711,5.129,15.616,7.729,23.496,7.729c0.003,0,0.006,0,0.01,0l0,0c20.447-0.002,34.078-17.28,34.213-17.455
					c0.327-0.424,0.462-0.939,0.378-1.451c-0.088-0.533-0.399-1.002-0.876-1.32c-0.991-0.662-2.376-0.453-3.087,0.463
					c-0.901,1.159-22.388,28.189-51.551,8.796c-32.428-21.56-55.647,0.021-55.877,0.242c-0.396,0.381-0.61,0.884-0.6,1.412
					c0.01,0.529,0.243,1.025,0.658,1.395c0.879,0.787,2.284,0.765,3.129-0.051C8.325,80.259,17.075,72.08,31.36,72.08z"/>
			</g>
			<g>
				
					<linearGradient id="path-2_1_" gradientUnits="userSpaceOnUse" x1="3.4957" y1="26.3029" x2="116.5028" y2="26.3029" gradientTransform="matrix(1 0 0 -1 0 120)">
					<stop  offset="0" style="stop-color:#DFE7E5"/>
					<stop  offset="0.3564" style="stop-color:#BED2DE"/>
					<stop  offset="1" style="stop-color:#59A3C6"/>
				</linearGradient>
				<path id="path-2_2_" fill="url(#path-2_1_)" d="M81.393,104.497c-7.193,0.002-15.213-2.113-23.78-7.812
					C28.501,77.328,8.942,95.603,8.124,96.389c-1.031,0.994-2.734,1.022-3.805,0.065c-1.071-0.958-1.1-2.539-0.07-3.532
					c0.233-0.225,23.642-22.141,56.495-0.296c28.823,19.162,49.995-7.542,50.884-8.689c0.872-1.121,2.553-1.374,3.754-0.571
					c1.207,0.806,1.482,2.366,0.615,3.487C115.814,87.09,102.021,104.495,81.393,104.497z"/>
				<path fill="#646464" d="M81.384,104.991c-8.08,0-16.171-2.656-24.046-7.895c-28.771-19.131-48.063-1.127-48.87-0.351
					c-1.21,1.167-3.22,1.204-4.479,0.077c-0.622-0.556-0.973-1.307-0.988-2.113c-0.015-0.805,0.306-1.566,0.904-2.143
					c0.235-0.227,23.908-22.433,57.115-0.352c28.418,18.895,49.34-7.45,50.217-8.58c1.026-1.319,3.008-1.625,4.422-0.68
					c0.709,0.473,1.171,1.178,1.304,1.985c0.128,0.785-0.075,1.571-0.572,2.214c-0.138,0.179-14.068,17.835-34.998,17.837l0,0
					C81.39,104.991,81.386,104.991,81.384,104.991z M31.366,87.332c7.46,0,16.427,2.229,26.522,8.941
					c7.71,5.129,15.615,7.729,23.496,7.729c0.003,0,0.006,0,0.01,0l0,0c20.448-0.002,34.078-17.278,34.213-17.453
					c0.327-0.423,0.462-0.939,0.378-1.45c-0.087-0.534-0.399-1.004-0.877-1.324c-0.988-0.661-2.374-0.454-3.087,0.464
					c-0.899,1.16-22.375,28.195-51.55,8.797c-32.49-21.603-55.646,0.02-55.876,0.24c-0.397,0.383-0.611,0.885-0.601,1.414
					s0.243,1.025,0.658,1.395c0.878,0.785,2.282,0.762,3.129-0.053C8.326,95.507,17.082,87.332,31.366,87.332z"/>
			</g>
			<g>
				
					<linearGradient id="path-3_1_" gradientUnits="userSpaceOnUse" x1="3.4964" y1="57.279" x2="116.5028" y2="57.279" gradientTransform="matrix(1 0 0 -1 0 120)">
					<stop  offset="0" style="stop-color:#DFE7E5"/>
					<stop  offset="0.3564" style="stop-color:#BED2DE"/>
					<stop  offset="1" style="stop-color:#59A3C6"/>
				</linearGradient>
				<path id="path-3_2_" fill="url(#path-3_1_)" d="M81.393,73.521c-7.193,0-15.213-2.115-23.78-7.813
					C28.62,46.435,8.94,64.632,8.118,65.417c-1.039,0.987-2.739,1.009-3.803,0.052c-1.066-0.958-1.094-2.533-0.066-3.524
					c0.233-0.225,23.642-22.139,56.495-0.296c28.83,19.167,49.995-7.544,50.884-8.689c0.872-1.121,2.553-1.372,3.754-0.571
					c1.207,0.804,1.482,2.366,0.615,3.487C115.814,56.113,102.021,73.518,81.393,73.521z"/>
				<path fill="#646464" d="M81.393,74.016L81.393,74.016c-8.085,0-16.178-2.656-24.055-7.897
					c-28.71-19.085-48.067-1.12-48.877-0.345c-1.219,1.16-3.228,1.186-4.478,0.061c-0.619-0.556-0.968-1.306-0.982-2.111
					c-0.014-0.801,0.307-1.56,0.903-2.135c0.235-0.227,23.907-22.431,57.115-0.352c28.396,18.879,49.341-7.451,50.217-8.581
					c1.026-1.318,3.008-1.622,4.422-0.679c0.708,0.472,1.17,1.176,1.303,1.983c0.13,0.786-0.074,1.574-0.571,2.217
					C116.252,56.356,102.323,74.012,81.393,74.016z M31.396,56.377c7.46,0,16.419,2.223,26.492,8.919
					c7.712,5.129,15.62,7.731,23.506,7.731c20.448-0.004,34.078-17.281,34.213-17.455c0.327-0.424,0.462-0.94,0.378-1.453
					c-0.088-0.534-0.399-1.003-0.876-1.321c-0.991-0.66-2.375-0.452-3.088,0.463c-0.663,0.855-12.53,15.775-30.406,15.777
					c-6.365,0.001-13.488-1.89-21.144-6.98C27.98,40.459,4.824,62.079,4.593,62.3c-0.396,0.382-0.609,0.883-0.6,1.408
					c0.009,0.527,0.242,1.022,0.654,1.393c0.873,0.785,2.277,0.766,3.129-0.042C8.323,64.536,17.108,56.377,31.396,56.377z"/>
			</g>
		</g>
	</g>
</g>
</svg>
