<?xml version="1.0" encoding="utf-8"?>
<!-- Generator: Adobe Illustrator 19.2.1, SVG Export Plug-In . SVG Version: 6.00 Build 0)  -->
<svg version="1.1" id="Слой_1" xmlns="http://www.w3.org/2000/svg" xmlns:xlink="http://www.w3.org/1999/xlink" x="0px" y="0px"
	 viewBox="0 0 120 120" enable-background="new 0 0 120 120" xml:space="preserve">
<g>
	<g>
		<g>
			
				<linearGradient id="SVGID_1_" gradientUnits="userSpaceOnUse" x1="-154.9293" y1="-1314.4843" x2="-156.8923" y2="-1362.1371" gradientTransform="matrix(1 0 0 -1 215.6797 -1289.9199)">
				<stop  offset="0" style="stop-color:#FFFFFF"/>
				<stop  offset="0.6044" style="stop-color:#629293"/>
				<stop  offset="1" style="stop-color:#5E7B7D"/>
			</linearGradient>
			<path fill="url(#SVGID_1_)" d="M115.697,57.578c0-7.039-6.393-12.747-14.285-12.747c-1.642,0-3.216,0.259-4.686,0.719
				c-0.961-4.628-5.837-8.149-11.719-8.149c-0.9,0-1.79,0.093-2.632,0.247c0.67-1.167,1.045-2.411,1.045-3.7
				c0-6.596-9.474-11.948-21.163-11.948s-21.163,5.353-21.163,11.948c0,0.806,0.148,1.589,0.416,2.347
				c-2.494,1.254-4.106,2.969-4.337,4.881c-7.18,0.414-12.743,3.257-12.743,6.71c0,0.454,0.101,0.896,0.285,1.329
				c-4.493,0.996-8.063,2.537-10.083,4.403c-0.35-0.012-0.694-0.023-1.049-0.023C7.735,53.596,3,56.21,3,59.433
				c0,3.142,4.504,5.7,10.149,5.827c-0.059,0.229-0.095,0.449-0.095,0.679c0,3.155,5.622,5.708,12.567,5.708
				c1.44,0,2.82-0.116,4.106-0.323c2.808,4.005,12.632,6.964,24.333,6.964c8.785,0,16.517-1.681,21.007-4.2
				c3.058,2.083,7.56,3.405,12.59,3.405c7.756,0,14.261-3.13,16.116-7.365C110.531,69.126,115.697,63.898,115.697,57.578z"/>
			<path fill="#646464" d="M62.258,23.001c11.118,0,20.163,4.911,20.163,10.948c0,1.07-0.307,2.148-0.912,3.202l-1.074,1.871
				l2.122-0.389c0.834-0.153,1.659-0.231,2.452-0.231c5.339,0,9.856,3.092,10.74,7.352l0.224,1.081l1.053-0.33
				c1.428-0.447,2.904-0.673,4.387-0.673c7.325,0,13.285,5.27,13.285,11.747c0,5.748-4.656,10.609-11.072,11.559l-0.547,0.081
				l-0.222,0.507c-1.717,3.921-8.109,6.766-15.2,6.766c-4.629,0-9.012-1.178-12.027-3.231l-0.512-0.349l-0.54,0.303
				c-4.544,2.55-12.214,4.073-20.518,4.073c-10.969,0-20.858-2.75-23.514-6.538l-0.36-0.513l-0.618,0.1
				c-1.277,0.206-2.604,0.31-3.947,0.31c-6.817,0-11.567-2.481-11.567-4.708c0-0.126,0.02-0.262,0.063-0.428l0.317-1.223
				l-1.263-0.028C8.2,64.148,4,61.938,4,59.433c0-2.622,4.389-4.837,9.584-4.837c0.343,0,0.676,0.011,1.015,0.022l0.411,0.014
				l0.302-0.279c1.863-1.721,5.28-3.199,9.621-4.161l1.173-0.26l-0.468-1.106c-0.138-0.326-0.205-0.634-0.205-0.94
				c0-2.774,5.294-5.336,11.801-5.712l0.835-0.048l0.1-0.83c0.182-1.511,1.53-2.969,3.793-4.107l0.788-0.396l-0.295-0.831
				c-0.238-0.672-0.359-1.349-0.359-2.013C42.095,27.912,51.14,23.001,62.258,23.001 M62.258,22.001
				c-11.689,0-21.163,5.353-21.163,11.948c0,0.806,0.148,1.589,0.416,2.347c-2.494,1.254-4.106,2.969-4.337,4.881
				c-7.18,0.414-12.743,3.257-12.743,6.71c0,0.454,0.101,0.896,0.285,1.329c-4.493,0.996-8.063,2.537-10.083,4.403
				c-0.35-0.012-0.694-0.023-1.049-0.023C7.735,53.596,3,56.21,3,59.433c0,3.142,4.504,5.7,10.149,5.827
				c-0.059,0.229-0.095,0.449-0.095,0.679c0,3.155,5.622,5.708,12.567,5.708c1.44,0,2.82-0.116,4.106-0.323
				c2.808,4.005,12.632,6.964,24.333,6.964c8.785,0,16.517-1.681,21.007-4.201c3.058,2.083,7.56,3.405,12.59,3.405
				c7.756,0,14.261-3.13,16.116-7.365c6.759-1.001,11.925-6.229,11.925-12.549c0-7.039-6.393-12.747-14.285-12.747
				c-1.642,0-3.216,0.259-4.686,0.719c-0.961-4.628-5.837-8.149-11.719-8.149c-0.9,0-1.79,0.093-2.632,0.247
				c0.67-1.167,1.045-2.411,1.045-3.7C83.42,27.353,73.946,22.001,62.258,22.001L62.258,22.001z"/>
		</g>
		<g opacity="0.61" enable-background="new    ">
			<path fill="#FFFFFF" d="M82.099,38.708c-2.827,0.166-7.6,2.389-7.63,5.629c1.399-2.429,4.733-4.115,7.281-5.117L82.099,38.708z"
				/>
			<path fill="#646464" d="M82.099,38.708c-2.827,0.166-7.6,2.389-7.63,5.629c1.399-2.429,4.733-4.115,7.281-5.117L82.099,38.708
				L82.099,38.708z"/>
		</g>
		<g opacity="0.61" enable-background="new    ">
			<path fill="#FFFFFF" d="M97.093,48.301c2.731-1.532,5.985-1.347,8.229,0.874c-2.447-0.978-5.32-2.094-7.702-0.529L97.093,48.301z
				"/>
			<path fill="#646464" d="M100.776,47.303c-1.243,0-2.511,0.341-3.683,0.998l0.527,0.346c0.857-0.564,1.778-0.78,2.72-0.78
				c1.675,0,3.415,0.683,4.981,1.308C104.041,47.907,102.431,47.303,100.776,47.303L100.776,47.303z"/>
		</g>
		<g opacity="0.61" enable-background="new    ">
			<path fill="#FFFFFF" d="M44.004,35.624c0.633-3.033,3.543-6.613,7.004-6.163c-3.076,0.518-5.356,3.298-6.826,5.651L44.004,35.624
				z"/>
			<path fill="#646464" d="M50.414,29.422c-3.195,0-5.813,3.344-6.41,6.202l0.177-0.512c1.47-2.353,3.75-5.134,6.826-5.651
				C50.807,29.435,50.61,29.422,50.414,29.422L50.414,29.422z"/>
		</g>
		<g opacity="0.61" enable-background="new    ">
			<path fill="#FFFFFF" d="M69.045,27.226c2.559,0.063,6.826,2.169,7.197,4.782c-2.114-1.191-3.642-3.7-5.609-4.437L69.045,27.226z"
				/>
			<path fill="#646464" d="M69.045,27.226l1.588,0.346c1.967,0.737,3.494,3.245,5.609,4.437
				C75.871,29.395,71.604,27.289,69.045,27.226L69.045,27.226z"/>
		</g>
		<g opacity="0.61" enable-background="new    ">
			<path fill="#FFFFFF" d="M46.652,46.074c0.361-2.481,2.743-4.864,5.45-4.586c-2.488,0.564-4.474,2.031-5.63,4.414L46.652,46.074z"
				/>
			<path fill="#646464" d="M51.67,41.466c-2.194,0-4.106,1.707-4.794,3.695c1.188-1.949,3.007-3.17,5.226-3.673
				C51.957,41.474,51.814,41.466,51.67,41.466L51.67,41.466z M46.877,45.161c-0.144,0.236-0.279,0.483-0.404,0.741l0.179,0.172
				C46.697,45.767,46.773,45.461,46.877,45.161L46.877,45.161z"/>
		</g>
		<g opacity="0.61" enable-background="new    ">
			<path fill="#FFFFFF" d="M25.31,50.016c0.105-2.383,2.517-4.005,4.882-3.775c-2.104,0.195-4.307,1.675-4.705,3.775H25.31z"/>
			<path fill="#646464" d="M29.744,46.219c-2.212,0-4.335,1.565-4.433,3.797h0.177c0.398-2.1,2.601-3.58,4.705-3.775
				C30.043,46.226,29.893,46.219,29.744,46.219L29.744,46.219z"/>
		</g>
		<g opacity="0.61" enable-background="new    ">
			<path fill="#FFFFFF" d="M38.186,42.989c1.92-0.201,3.816,1.018,4.024,2.895c-1.256-0.967-1.915-2.234-3.497-2.555L38.186,42.989z
				"/>
			<path fill="#646464" d="M38.601,42.968c-0.138,0-0.276,0.007-0.415,0.022l0.526,0.34c1.582,0.322,2.241,1.588,3.497,2.555
				C42.016,44.143,40.371,42.968,38.601,42.968L38.601,42.968z"/>
		</g>
		<g opacity="0.61" enable-background="new    ">
			<path fill="#FFFFFF" d="M37.124,55.151c2.85-3.2,13.898-6.227,16.335-1.214c-3.982-3.436-12.147-1.653-16.157,1.386
				L37.124,55.151z"/>
			<path fill="#646464" d="M47.798,51.273c-4.049,0-8.918,1.906-10.674,3.878l0.177,0.172c2.464-1.867,6.496-3.26,10.162-3.26
				c2.301,0,4.46,0.549,5.995,1.874C52.524,52.012,50.32,51.273,47.798,51.273L47.798,51.273z"/>
		</g>
		<g opacity="0.61" enable-background="new    ">
			<path fill="#FFFFFF" d="M64.816,52.583c2.278-2.543,7.761-4.063,10.38-1.398c-3.081-1.214-6.991-1.041-9.675,0.886L64.816,52.583
				z"/>
			<path fill="#646464" d="M71.418,49.786c-2.461,0-5.167,1.196-6.602,2.798l0.705-0.512c1.571-1.128,3.561-1.655,5.56-1.655
				c1.417,0,2.837,0.265,4.115,0.768C74.227,50.199,72.865,49.786,71.418,49.786L71.418,49.786z"/>
		</g>
	</g>
	<g>
		<g>
			
				<linearGradient id="SVGID_2_" gradientUnits="userSpaceOnUse" x1="-151.8047" y1="-1331.3545" x2="-136.4385" y2="-1365.8354" gradientTransform="matrix(1 0 0 -1 215.6797 -1289.9199)">
				<stop  offset="0" style="stop-color:#FFFFFF"/>
				<stop  offset="0.6044" style="stop-color:#629293"/>
				<stop  offset="1" style="stop-color:#5E7B7D"/>
			</linearGradient>
			<path fill="url(#SVGID_2_)" d="M117,62.575c0-5.348-4.954-9.681-11.072-9.681c-1.275,0-2.49,0.195-3.633,0.541
				c-0.745-3.51-4.52-6.186-9.076-6.186c-0.703,0-1.386,0.069-2.048,0.19c0.521-0.887,0.816-1.83,0.816-2.815
				c0-5.006-7.346-9.075-16.41-9.075c-9.059,0-16.406,4.069-16.406,9.075c0,0.616,0.113,1.209,0.326,1.785
				c-1.937,0.955-3.181,2.251-3.366,3.706c-5.568,0.317-9.875,2.481-9.875,5.1c0,0.346,0.076,0.68,0.217,1.008
				c-3.484,0.754-6.25,1.93-7.82,3.348c-0.266-0.017-0.534-0.021-0.806-0.021c-4.532,0-8.205,1.986-8.205,4.435
				c0,2.381,3.489,4.337,7.861,4.431c-0.042,0.161-0.071,0.334-0.071,0.519c0,2.382,4.361,4.328,9.74,4.328
				c1.12,0,2.186-0.093,3.186-0.244c2.175,3.041,9.794,5.285,18.864,5.285c6.807,0,12.797-1.267,16.281-3.178
				c2.369,1.577,5.86,2.566,9.763,2.566c6.006,0,11.049-2.358,12.49-5.581C113.001,71.346,117,67.377,117,62.575z"/>
			<path fill="#646464" d="M75.576,36.548c8.353,0,15.41,3.698,15.41,8.075c0,0.766-0.228,1.543-0.678,2.309l-1.108,1.885
				l2.15-0.395c0.628-0.115,1.257-0.174,1.868-0.174c4.029,0,7.435,2.268,8.098,5.394l0.226,1.064l1.042-0.315
				c1.093-0.33,2.218-0.498,3.344-0.498c5.554,0,10.072,3.894,10.072,8.681c0,4.244-3.528,7.838-8.39,8.545l-0.545,0.079
				l-0.225,0.502c-1.292,2.891-6.161,4.989-11.577,4.989c-3.563,0-6.92-0.874-9.209-2.399l-0.504-0.336l-0.531,0.291
				c-3.487,1.913-9.394,3.055-15.8,3.055c-9.565,0-16.321-2.448-18.05-4.867l-0.357-0.499l-0.606,0.092
				c-1.02,0.154-2.042,0.233-3.036,0.233c-5.415,0-8.74-1.938-8.74-3.328c0-0.079,0.013-0.164,0.04-0.269l0.316-1.223l-1.262-0.027
				c-4.056-0.087-6.883-1.878-6.883-3.431c0-1.624,2.959-3.435,7.205-3.435c0.25,0,0.498,0.003,0.742,0.019l0.421,0.027l0.313-0.283
				c1.427-1.289,4.042-2.395,7.362-3.113l1.187-0.257l-0.479-1.115c-0.091-0.213-0.136-0.413-0.136-0.613
				c0-1.728,3.415-3.788,8.932-4.101l0.831-0.047l0.105-0.825c0.135-1.063,1.135-2.106,2.816-2.934l0.809-0.399l-0.313-0.845
				c-0.178-0.48-0.264-0.95-0.264-1.437C60.17,40.246,67.225,36.548,75.576,36.548 M75.576,35.548
				c-9.059,0-16.406,4.069-16.406,9.075c0,0.616,0.113,1.209,0.326,1.785c-1.937,0.955-3.181,2.251-3.366,3.706
				c-5.568,0.317-9.875,2.481-9.875,5.1c0,0.346,0.076,0.68,0.217,1.008c-3.484,0.754-6.25,1.93-7.82,3.348
				c-0.266-0.017-0.534-0.021-0.806-0.021c-4.532,0-8.205,1.986-8.205,4.435c0,2.381,3.489,4.337,7.861,4.431
				c-0.042,0.161-0.071,0.334-0.071,0.519c0,2.382,4.361,4.328,9.74,4.328c1.12,0,2.186-0.093,3.186-0.244
				c2.175,3.041,9.794,5.285,18.864,5.285c6.807,0,12.797-1.267,16.281-3.178c2.369,1.577,5.86,2.566,9.763,2.566
				c6.006,0,11.049-2.358,12.49-5.581c5.247-0.763,9.246-4.732,9.246-9.534c0-5.348-4.954-9.681-11.072-9.681
				c-1.275,0-2.49,0.195-3.633,0.541c-0.745-3.51-4.52-6.186-9.076-6.186c-0.703,0-1.386,0.069-2.048,0.19
				c0.521-0.887,0.816-1.83,0.816-2.815C91.986,39.617,84.641,35.548,75.576,35.548L75.576,35.548z"/>
		</g>
		<g opacity="0.61" enable-background="new    ">
			<path fill="#FFFFFF" d="M90.956,48.243c-2.193,0.125-5.888,1.812-5.913,4.27c1.079-1.842,3.667-3.125,5.64-3.879L90.956,48.243z"
				/>
			<path fill="#646464" d="M90.956,48.243c-2.193,0.125-5.888,1.812-5.913,4.27c1.079-1.842,3.667-3.125,5.64-3.879L90.956,48.243
				L90.956,48.243z"/>
		</g>
		<g opacity="0.61" enable-background="new    ">
			<path fill="#FFFFFF" d="M102.579,55.523c2.119-1.162,4.645-1.024,6.381,0.668c-1.895-0.743-4.125-1.593-5.972-0.408
				L102.579,55.523z"/>
			<path fill="#646464" d="M105.436,54.765c-0.964,0-1.948,0.259-2.857,0.758l0.409,0.26c0.663-0.425,1.375-0.588,2.103-0.588
				c1.301,0,2.653,0.521,3.868,0.997C107.969,55.225,106.72,54.765,105.436,54.765L105.436,54.765z"/>
		</g>
		<g opacity="0.61" enable-background="new    ">
			<path fill="#FFFFFF" d="M61.427,45.896c0.487-2.302,2.748-5.019,5.427-4.679c-2.382,0.391-4.149,2.504-5.291,4.288L61.427,45.896
				z"/>
			<path fill="#646464" d="M66.397,41.188c-2.476,0-4.511,2.538-4.97,4.708l0.137-0.391c1.142-1.785,2.909-3.897,5.291-4.288
				C66.701,41.197,66.548,41.188,66.397,41.188L66.397,41.188z"/>
		</g>
		<g opacity="0.61" enable-background="new    ">
			<path fill="#FFFFFF" d="M80.837,39.519c1.992,0.052,5.291,1.646,5.582,3.631c-1.636-0.898-2.821-2.802-4.348-3.367L80.837,39.519
				z"/>
			<path fill="#646464" d="M80.837,39.519l1.234,0.264c1.527,0.565,2.712,2.469,4.348,3.367
				C86.128,41.165,82.828,39.57,80.837,39.519L80.837,39.519z"/>
		</g>
		<g opacity="0.61" enable-background="new    ">
			<path fill="#FFFFFF" d="M63.478,53.838c0.284-1.888,2.125-3.695,4.23-3.481c-1.931,0.425-3.472,1.536-4.368,3.349L63.478,53.838z
				"/>
			<path fill="#646464" d="M67.368,50.339c-1.702,0-3.18,1.292-3.715,2.802c0.921-1.482,2.332-2.406,4.055-2.785
				C67.594,50.345,67.481,50.339,67.368,50.339L67.368,50.339z M63.653,53.142c-0.112,0.18-0.216,0.368-0.313,0.564l0.138,0.132
				C63.513,53.603,63.573,53.37,63.653,53.142L63.653,53.142z"/>
		</g>
		<g opacity="0.61" enable-background="new    ">
			<path fill="#FFFFFF" d="M46.936,56.83c0.082-1.807,1.956-3.044,3.786-2.866c-1.63,0.15-3.336,1.267-3.651,2.866H46.936z"/>
			<path fill="#646464" d="M50.369,53.946c-1.711,0-3.356,1.192-3.433,2.883h0.135c0.315-1.599,2.021-2.716,3.651-2.866
				C50.604,53.952,50.487,53.946,50.369,53.946L50.369,53.946z"/>
		</g>
		<g opacity="0.61" enable-background="new    ">
			<path fill="#FFFFFF" d="M56.913,51.496c1.492-0.155,2.962,0.771,3.123,2.193c-0.971-0.725-1.482-1.692-2.708-1.933L56.913,51.496
				z"/>
			<path fill="#646464" d="M57.24,51.479c-0.109,0-0.218,0.006-0.327,0.017l0.414,0.26c1.226,0.241,1.737,1.208,2.708,1.933
				C59.886,52.371,58.613,51.479,57.24,51.479L57.24,51.479z"/>
		</g>
		<g opacity="0.61" enable-background="new    ">
			<path fill="#FFFFFF" d="M56.101,60.732c2.203-2.44,10.765-4.736,12.654-0.928c-3.088-2.612-9.415-1.26-12.524,1.054
				L56.101,60.732z"/>
			<path fill="#646464" d="M64.367,57.78c-3.137,0-6.909,1.449-8.266,2.952l0.13,0.125c1.91-1.421,5.033-2.479,7.874-2.479
				c1.785,0,3.458,0.418,4.65,1.425C68.03,58.342,66.321,57.78,64.367,57.78L64.367,57.78z"/>
		</g>
		<g opacity="0.61" enable-background="new    ">
			<path fill="#FFFFFF" d="M77.56,58.787c1.77-1.933,6.019-3.095,8.052-1.071c-2.395-0.921-5.428-0.795-7.506,0.678L77.56,58.787z"
				/>
			<path fill="#646464" d="M82.689,56.656c-1.91,0-4.013,0.912-5.129,2.131l0.546-0.392c1.215-0.862,2.758-1.262,4.308-1.262
				c1.1,0,2.204,0.202,3.198,0.584C84.861,56.969,83.808,56.656,82.689,56.656L82.689,56.656z"/>
		</g>
	</g>
	<g>
		
			<radialGradient id="SVGID_3_" cx="31.1343" cy="-173.2863" r="1.3658" gradientTransform="matrix(6.0667 0 0 -5.8931 -104.2221 -931.9776)" gradientUnits="userSpaceOnUse">
			<stop  offset="0" style="stop-color:#FFFFFF"/>
			<stop  offset="1" style="stop-color:#629293"/>
		</radialGradient>
		<path fill="url(#SVGID_3_)" d="M90.67,79.554c-2.653,3.292-5.913,6.02-9.279,8.575c-0.45,0.265-1.764,1.494-1.539,1.162
			l0.082,0.047c-0.9,1.013-1.457,2.313-1.457,3.753c0,3.201,2.678,5.8,5.971,5.8c3.295,0,5.741-2.347,5.973-5.8
			C90.447,92.757,91.169,83.571,90.67,79.554z"/>
		<path fill="#646464" d="M89.83,82.05c0.104,4.18-0.343,10.154-0.407,10.975c-0.196,2.911-2.195,4.867-4.975,4.867
			c-2.741,0-4.971-2.153-4.971-4.8c0-1.134,0.417-2.202,1.205-3.089l0.076-0.092c0.088-0.073,0.192-0.16,0.318-0.265
			c0.239-0.2,0.683-0.573,0.823-0.655l0.051-0.03l0.047-0.036C84.505,87.02,87.319,84.759,89.83,82.05 M90.67,79.554
			c-2.653,3.292-5.913,6.02-9.279,8.575c-0.354,0.209-1.244,1.014-1.496,1.186l0.04,0.023c-0.9,1.013-1.457,2.313-1.457,3.753
			c0,3.201,2.678,5.8,5.971,5.8c3.295,0,5.741-2.347,5.973-5.8C90.447,92.757,91.169,83.571,90.67,79.554L90.67,79.554z
			 M79.853,89.291c-0.026,0.039-0.032,0.056-0.02,0.056c0.01,0,0.031-0.012,0.062-0.032L79.853,89.291L79.853,89.291z"/>
	</g>
	<g>
		
			<radialGradient id="SVGID_4_" cx="26.6956" cy="-176.1047" r="1.3655" gradientTransform="matrix(6.0667 0 0 -5.8931 -104.2221 -931.9776)" gradientUnits="userSpaceOnUse">
			<stop  offset="0" style="stop-color:#FFFFFF"/>
			<stop  offset="1" style="stop-color:#629293"/>
		</radialGradient>
		<path fill="url(#SVGID_4_)" d="M63.738,96.163c-2.654,3.292-5.901,6.02-9.272,8.574c-0.45,0.264-1.765,1.495-1.534,1.163
			l0.077,0.047c-0.894,1.014-1.456,2.313-1.456,3.752c0,3.201,2.677,5.801,5.971,5.801c3.302,0,5.742-2.347,5.966-5.801
			C63.513,109.366,64.235,100.18,63.738,96.163z"/>
		<path fill="#646464" d="M62.898,98.661c0.094,3.783-0.263,9.056-0.397,10.858l-0.008,0.116c-0.189,2.91-2.185,4.866-4.968,4.866
			c-2.741,0-4.971-2.154-4.971-4.801c0-1.424,0.656-2.467,1.206-3.091l0.072-0.088c0.085-0.07,0.185-0.154,0.305-0.255
			c0.242-0.204,0.694-0.583,0.835-0.666l0.051-0.03l0.047-0.036C57.568,103.641,60.374,101.388,62.898,98.661 M63.738,96.163
			c-2.654,3.292-5.901,6.02-9.272,8.574c-0.354,0.208-1.244,1.015-1.494,1.187l0.038,0.023c-0.894,1.014-1.456,2.313-1.456,3.752
			c0,3.201,2.677,5.801,5.971,5.801c3.302,0,5.742-2.347,5.966-5.801C63.513,109.366,64.235,100.18,63.738,96.163L63.738,96.163z
			 M52.932,105.9c-0.027,0.039-0.033,0.056-0.021,0.056c0.009,0,0.03-0.012,0.061-0.032L52.932,105.9L52.932,105.9z"/>
	</g>
	<g>
		
			<radialGradient id="SVGID_5_" cx="23.532" cy="-173.2863" r="1.3657" gradientTransform="matrix(6.0667 0 0 -5.8931 -104.2221 -931.9776)" gradientUnits="userSpaceOnUse">
			<stop  offset="0" style="stop-color:#FFFFFF"/>
			<stop  offset="1" style="stop-color:#629293"/>
		</radialGradient>
		<path fill="url(#SVGID_5_)" d="M44.548,79.554c-2.654,3.292-5.906,6.02-9.279,8.575c-0.45,0.265-1.764,1.494-1.534,1.162
			l0.078,0.047c-0.894,1.013-1.456,2.313-1.456,3.753c0,3.201,2.678,5.8,5.971,5.8c3.301,0,5.742-2.347,5.972-5.8
			C44.324,92.757,45.046,83.571,44.548,79.554z"/>
		<path fill="#646464" d="M43.706,82.054c0.074,3.06-0.132,7.357-0.397,10.885l-0.006,0.087c-0.194,2.911-2.193,4.866-4.974,4.866
			c-2.741,0-4.971-2.153-4.971-4.8c0-1.426,0.656-2.468,1.206-3.092l0.072-0.088c0.086-0.071,0.187-0.156,0.309-0.258
			c0.241-0.203,0.69-0.58,0.832-0.663l0.05-0.03l0.046-0.035C38.376,87.03,41.185,84.775,43.706,82.054 M44.548,79.554
			c-2.654,3.292-5.906,6.02-9.279,8.575c-0.354,0.208-1.243,1.014-1.494,1.186l0.038,0.023c-0.894,1.013-1.456,2.313-1.456,3.753
			c0,3.201,2.678,5.8,5.971,5.8c3.301,0,5.742-2.347,5.972-5.8C44.324,92.757,45.046,83.571,44.548,79.554L44.548,79.554z
			 M33.736,89.291c-0.027,0.039-0.033,0.056-0.021,0.056c0.01,0,0.031-0.012,0.061-0.032L33.736,89.291L33.736,89.291z"/>
	</g>
	<g>
		<g>
			
				<linearGradient id="SVGID_6_" gradientUnits="userSpaceOnUse" x1="20.1378" y1="44.5384" x2="65.5509" y2="44.5384" gradientTransform="matrix(0.9347 -0.3555 0.3555 0.9347 -10.5728 17.7244)">
				<stop  offset="0" style="stop-color:#8AB3E1"/>
				<stop  offset="0" style="stop-color:#BED3EF"/>
				<stop  offset="0.3564" style="stop-color:#DEE8F7"/>
			</linearGradient>
			<path fill="url(#SVGID_6_)" d="M41.513,45.597C35.784,30.466,41.572,13.723,54.529,4.5c-3.055,0.336-6.121,1.027-9.139,2.18
				c-18.595,7.104-28.127,27.505-21.289,45.569S51.557,79.193,70.15,72.089c3.017-1.153,5.767-2.684,8.274-4.467
				C62.64,69.379,47.241,60.729,41.513,45.597z"/>
			<path fill="#646464" d="M50.906,6.094c-11.371,9.991-15.629,25.855-10.329,39.857c5.265,13.909,18.532,22.896,33.799,22.896
				c0.094,0,0.188,0,0.282-0.001c-1.586,0.905-3.213,1.678-4.865,2.309c-4.138,1.581-8.45,2.382-12.816,2.382
				c-14.426,0-26.963-8.495-31.94-21.643c-6.632-17.52,2.658-37.384,20.71-44.281C47.4,6.982,49.126,6.474,50.906,6.094 M54.529,4.5
				c-3.055,0.336-6.121,1.027-9.139,2.18c-18.595,7.104-28.127,27.505-21.289,45.569c5.239,13.839,18.568,22.289,32.876,22.289
				c4.368,0,8.825-0.787,13.173-2.448c3.017-1.153,5.767-2.684,8.274-4.467c-1.354,0.151-2.706,0.225-4.048,0.225
				c-14.308,0-27.626-8.415-32.864-22.25C35.784,30.466,41.572,13.723,54.529,4.5L54.529,4.5z"/>
		</g>
	</g>
	<g>
		<g>
			
				<linearGradient id="SVGID_7_" gradientUnits="userSpaceOnUse" x1="-166.9527" y1="-1337.9105" x2="-168.3967" y2="-1370.0243" gradientTransform="matrix(1 0 0 -1 215.6797 -1289.9199)">
				<stop  offset="0" style="stop-color:#FFFFFF"/>
				<stop  offset="0.6044" style="stop-color:#629293"/>
				<stop  offset="1" style="stop-color:#5E7B7D"/>
			</linearGradient>
			<path fill="url(#SVGID_7_)" d="M69.698,63.311c-2.228,0-4.3,0.449-6.055,1.212c0.071-0.357,0.119-0.74,0.119-1.119
				c0-4.08-4.2-7.389-9.384-7.389c-0.019,0-0.036,0.012-0.054,0.012c-0.811-4.346-5.213-7.666-10.535-7.666
				c-5.9,0-10.687,4.074-10.687,9.116c0,0.76,0.119,1.491,0.321,2.187c-5.546,0-10.042,2.948-10.042,6.565
				c0,0.426,0.071,0.829,0.189,1.231c-0.58-0.081-1.185-0.126-1.807-0.126c-4.117,0-7.453,1.923-7.453,4.279
				c0,2.362,3.335,4.294,7.453,4.294c0.718,0,1.41-0.068,2.062-0.161c0.859,1.764,4.099,3.076,7.98,3.076
				c2.263,0,4.319-0.437,5.794-1.175c2.904,2.038,7.637,3.373,12.992,3.373c5.392,0,10.15-1.359,13.042-3.407
				c1.764,0.771,3.832,1.209,6.066,1.209c6.268,0,11.341-3.477,11.341-7.745C81.039,66.79,75.966,63.311,69.698,63.311z"/>
			<path fill="#646464" d="M43.79,49.36c4.717,0,8.823,2.945,9.552,6.849l0.152,0.817h0.831c0.056,0,0.108-0.005,0.154-0.012
				c4.577,0.041,8.283,2.891,8.283,6.389c0,0.283-0.033,0.593-0.1,0.923l-0.376,1.876l1.755-0.763
				c1.699-0.739,3.655-1.129,5.656-1.129c5.702,0,10.342,3.035,10.343,6.765c0,3.719-4.639,6.745-10.341,6.745
				c-2.022,0-3.981-0.389-5.665-1.125l-0.517-0.226l-0.461,0.326c-2.85,2.018-7.51,3.223-12.464,3.223
				c-4.928,0-9.57-1.193-12.418-3.192l-0.488-0.343l-0.534,0.267c-1.359,0.68-3.307,1.069-5.347,1.069
				c-3.804,0-6.487-1.295-7.081-2.514l-0.319-0.655l-0.722,0.104c-0.709,0.102-1.337,0.151-1.92,0.151
				c-3.803,0-6.453-1.736-6.453-3.294c0-1.551,2.65-3.279,6.453-3.279c0.55,0,1.112,0.039,1.669,0.117l1.533,0.213l-0.435-1.485
				c-0.102-0.347-0.149-0.648-0.149-0.95c0-3.016,4.141-5.565,9.042-5.565h1.332l-0.372-1.279c-0.187-0.643-0.281-1.285-0.281-1.908
				C34.102,53.001,38.448,49.36,43.79,49.36 M43.79,48.36c-5.9,0-10.687,4.074-10.687,9.116c0,0.76,0.119,1.491,0.321,2.187
				c-5.546,0-10.042,2.948-10.042,6.565c0,0.426,0.071,0.829,0.189,1.231c-0.58-0.081-1.185-0.126-1.807-0.126
				c-4.117,0-7.453,1.923-7.453,4.279c0,2.362,3.335,4.294,7.453,4.294c0.718,0,1.41-0.068,2.062-0.161
				c0.859,1.764,4.099,3.076,7.98,3.076c2.263,0,4.319-0.437,5.794-1.175c2.904,2.038,7.637,3.373,12.992,3.373
				c5.392,0,10.15-1.359,13.042-3.407c1.764,0.771,3.832,1.209,6.066,1.209c6.268,0,11.341-3.477,11.341-7.745
				c-0.001-4.285-5.075-7.765-11.343-7.765c-2.228,0-4.3,0.449-6.055,1.212c0.071-0.357,0.119-0.74,0.119-1.119
				c0-4.08-4.2-7.389-9.384-7.389c-0.019,0-0.036,0.012-0.054,0.012C53.513,51.68,49.111,48.36,43.79,48.36L43.79,48.36z"/>
		</g>
		<g opacity="0.61" enable-background="new    ">
			<path fill="#FFFFFF" d="M49.418,58.182c2.382-0.674,5.955,0.329,6.855,2.159c-2.187-0.978-4.236-2.176-6.837-1.91L49.418,58.182z
				"/>
			<path fill="#646464" d="M51.061,57.971c-0.576,0-1.136,0.068-1.642,0.211l0.018,0.249c0.25-0.026,0.495-0.038,0.735-0.038
				c2.261,0,4.125,1.064,6.102,1.948C55.564,58.899,53.198,57.971,51.061,57.971L51.061,57.971z"/>
		</g>
		<g opacity="0.61" enable-background="new    ">
			<path fill="#FFFFFF" d="M70.728,66.766c-1.563-1.185-3.78-1.035-5.754-0.254c2.015,0.104,3.785-0.172,5.671,0.416L70.728,66.766z
				"/>
			<path fill="#646464" d="M67.926,65.901c-0.973,0-1.991,0.231-2.951,0.611c0.415,0.021,0.82,0.027,1.218,0.027
				c0.382,0,0.757-0.005,1.128-0.005c1.118,0,2.201,0.044,3.325,0.395l0.082-0.162C69.926,66.158,68.952,65.901,67.926,65.901
				L67.926,65.901z"/>
		</g>
		<g opacity="0.61" enable-background="new    ">
			<path fill="#FFFFFF" d="M28.747,69.724c1.951-1.83,6.459-1.461,7.956,0.621c-1.866-1.427-5.804-1.98-7.748-0.436L28.747,69.724z"
				/>
			<path fill="#646464" d="M32.307,68.544c-1.365,0-2.707,0.38-3.56,1.18l0.208,0.185c0.815-0.648,1.982-0.926,3.199-0.926
				c1.684,0,3.466,0.534,4.549,1.362C35.861,69.173,34.065,68.544,32.307,68.544L32.307,68.544z"/>
		</g>
		<g opacity="0.61" enable-background="new    ">
			<path fill="#FFFFFF" d="M36.485,55.37c1.813-1.669,5.535-3.028,7.72-1.232c-2.862,0.104-5.505-0.144-7.928,1.059L36.485,55.37z"
				/>
			<path fill="#646464" d="M41.618,53.288c-1.56,0-3.237,0.67-4.451,1.532c2.176-0.772,4.522-0.591,7.038-0.682
				C43.472,53.535,42.566,53.288,41.618,53.288L41.618,53.288z M37.167,54.82c-0.3,0.106-0.596,0.231-0.89,0.376l0.207,0.173
				C36.689,55.181,36.918,54.997,37.167,54.82L37.167,54.82z"/>
		</g>
		<g opacity="0.61" enable-background="new    ">
			<path fill="#FFFFFF" d="M31.213,64.763c1.735-2.489,6.333-3.876,9.627-2.823c-2.785,0.588-6.233,0.416-8.512,2.304L31.213,64.763
				z"/>
			<path fill="#646464" d="M38.408,61.585c-2.827,0-5.86,1.263-7.195,3.179l1.114-0.519c2.279-1.888,5.728-1.717,8.512-2.304
				C40.081,61.698,39.254,61.585,38.408,61.585L38.408,61.585z"/>
		</g>
		<g opacity="0.61" enable-background="new    ">
			<path fill="#FFFFFF" d="M47.362,65.454c0.842-1.277,3.478-2.35,5.462-1.531c0.167,0,0.167-0.015,0-0.015
				c-1.766,0.315-3.656,0.74-5.249,1.546H47.362z"/>
			<path fill="#646464" d="M51.299,63.637c-1.633,0-3.299,0.85-3.937,1.817h0.213c1.585-0.802,3.465-1.227,5.224-1.541
				C52.324,63.721,51.813,63.637,51.299,63.637L51.299,63.637z M52.824,63.908c-0.009,0.002-0.017,0.003-0.025,0.005
				c0.009,0.003,0.017,0.007,0.025,0.01C52.991,63.923,52.991,63.908,52.824,63.908L52.824,63.908z"/>
		</g>
	</g>
</g>
</svg>
