<?xml version="1.0" encoding="utf-8"?>
<!-- Generator: Adobe Illustrator 19.2.1, SVG Export Plug-In . SVG Version: 6.00 Build 0)  -->
<svg version="1.1" id="Слой_1" xmlns="http://www.w3.org/2000/svg" xmlns:xlink="http://www.w3.org/1999/xlink" x="0px" y="0px"
	 viewBox="0 0 120 120" enable-background="new 0 0 120 120" xml:space="preserve">
<g>
	<g>
		<g>
			<g>
				
					<radialGradient id="SVGID_1_" cx="-25.8184" cy="599.7756" r="1.2493" gradientTransform="matrix(6.0807 0 0 6.9208 248.9661 -4051.2649)" gradientUnits="userSpaceOnUse">
					<stop  offset="0" style="stop-color:#FFFFFF"/>
					<stop  offset="1" style="stop-color:#70C1CA"/>
				</radialGradient>
				<path fill="url(#SVGID_1_)" d="M91.75,109.988c-3.032,0-5.5-2.817-5.5-6.28c0-1.456,0.484-2.869,1.399-4.086l0.129-0.171
					c0.065-0.065,0.138-0.137,0.213-0.213c0.313-0.312,0.787-0.783,0.959-0.912c3.701-3.255,6.399-6.093,8.606-9.065
					c0.153,2.853,0.063,7.432-0.268,13.652c-0.024,0.453-0.039,0.735-0.039,0.795C96.968,107.449,94.757,109.988,91.75,109.988z"/>
				<path fill="#646464" d="M97.11,90.665c0.068,2.845-0.039,6.937-0.32,12.221c-0.02,0.383-0.034,0.648-0.038,0.766
					c-0.269,3.491-2.277,5.836-5.001,5.836c-2.757,0-5-2.593-5-5.779c0-1.347,0.449-2.656,1.299-3.786l0.108-0.144
					c0.058-0.058,0.121-0.12,0.186-0.185c0.266-0.266,0.762-0.76,0.905-0.867l0.032-0.024l0.03-0.026
					C92.556,95.822,95.044,93.272,97.11,90.665 M97.95,87.857c-2.7,3.888-5.9,7.079-9.3,10.069c-0.303,0.227-1.18,1.14-1.457,1.396
					h0.057c-0.9,1.196-1.5,2.692-1.5,4.387c0,3.788,2.7,6.779,6,6.779s5.7-2.792,6-6.779C97.75,103.31,98.45,92.542,97.95,87.857
					L97.95,87.857z M87.193,99.322H87.15c-0.035,0.046-0.047,0.067-0.04,0.067S87.147,99.364,87.193,99.322L87.193,99.322z"/>
			</g>
		</g>
		<g>
			<g>
				
					<radialGradient id="SVGID_2_" cx="-31.6704" cy="599.7758" r="1.2494" gradientTransform="matrix(6.0807 0 0 6.9208 248.9661 -4051.2649)" gradientUnits="userSpaceOnUse">
					<stop  offset="0" style="stop-color:#FFFFFF"/>
					<stop  offset="1" style="stop-color:#70C1CA"/>
				</radialGradient>
				<path fill="url(#SVGID_2_)" d="M56.25,109.988c-3.033,0-5.5-2.817-5.5-6.28c0-1.455,0.484-2.868,1.4-4.086l0.229-0.305
					c0.313-0.325,0.814-0.835,1.028-0.963c3.738-3.278,6.439-6.118,8.647-9.091c0.177,3.493-0.075,8.838-0.219,11.884
					c-0.087,1.841-0.106,2.36-0.088,2.578C61.547,107.415,59.291,109.988,56.25,109.988z"/>
				<path fill="#646464" d="M61.602,90.674c0.067,3.38-0.141,7.789-0.266,10.444c-0.084,1.789-0.108,2.35-0.09,2.62
					c-0.2,3.389-2.246,5.75-4.997,5.75c-2.757,0-5-2.593-5-5.779c0-1.347,0.449-2.656,1.299-3.786l0.213-0.284
					c0.28-0.29,0.732-0.749,0.901-0.855l0.078-0.047l0.069-0.06C57.052,95.826,59.538,93.278,61.602,90.674 M62.45,87.857
					c-2.7,3.888-5.9,7.079-9.3,10.069c-0.379,0.227-1.216,1.14-1.47,1.396h0.07c-0.9,1.196-1.5,2.692-1.5,4.387
					c0,3.788,2.7,6.779,6,6.779s5.8-2.792,6-6.779C62.15,103.31,62.95,92.542,62.45,87.857L62.45,87.857z M51.68,99.322h-0.03
					c-0.035,0.046-0.048,0.067-0.044,0.067C51.611,99.389,51.638,99.364,51.68,99.322L51.68,99.322z"/>
			</g>
		</g>
		<g>
			<g>
				
					<radialGradient id="SVGID_3_" cx="-36.9853" cy="599.7756" r="1.2494" gradientTransform="matrix(6.0807 0 0 6.9208 248.9661 -4051.2649)" gradientUnits="userSpaceOnUse">
					<stop  offset="0" style="stop-color:#FFFFFF"/>
					<stop  offset="1" style="stop-color:#70C1CA"/>
				</radialGradient>
				<path fill="url(#SVGID_3_)" d="M23.85,109.988c-3.033,0-5.5-2.817-5.5-6.28c0-1.455,0.484-2.868,1.4-4.086l0.127-0.171
					c0.067-0.065,0.141-0.139,0.218-0.216c0.312-0.312,0.784-0.781,0.955-0.909c3.702-3.254,6.399-6.092,8.607-9.065
					c0.153,2.853,0.063,7.433-0.268,13.652c-0.024,0.453-0.039,0.735-0.039,0.795C29.165,107.396,26.902,109.988,23.85,109.988z"/>
				<path fill="#646464" d="M29.21,90.665c0.068,2.845-0.039,6.937-0.32,12.221c-0.021,0.395-0.035,0.664-0.038,0.776
					c-0.173,3.43-2.23,5.825-5.001,5.825c-2.757,0-5-2.593-5-5.779c0-1.347,0.449-2.656,1.299-3.786l0.108-0.144
					c0.058-0.058,0.121-0.12,0.186-0.185c0.266-0.266,0.762-0.76,0.905-0.867l0.032-0.024l0.03-0.026
					C24.656,95.822,27.144,93.272,29.21,90.665 M30.05,87.857c-2.7,3.888-5.9,7.079-9.3,10.069c-0.303,0.227-1.18,1.14-1.457,1.396
					h0.057c-0.9,1.196-1.5,2.692-1.5,4.387c0,3.788,2.7,6.779,6,6.779s5.8-2.792,6-6.779C29.85,103.31,30.55,92.542,30.05,87.857
					L30.05,87.857z M19.293,99.322H19.25c-0.035,0.046-0.047,0.067-0.04,0.067S19.247,99.364,19.293,99.322L19.293,99.322z"/>
			</g>
		</g>
		<g>
			
				<radialGradient id="SVGID_4_" cx="-85.6645" cy="591.4424" r="2.4137" gradientTransform="matrix(23.0536 -12.5066 9.3052 0.3385 -3470.3186 -1182.8577)" gradientUnits="userSpaceOnUse">
				<stop  offset="0" style="stop-color:#F4EA66"/>
				<stop  offset="1" style="stop-color:#F9AF15"/>
			</radialGradient>
			<polygon fill="url(#SVGID_4_)" points="62.172,86.713 40.028,98.3 66.083,68.145 60.078,84.111 80.692,74.698 50.509,109.245 			
				"/>
			<path fill="#646464" d="M62.835,73.283l-3.786,10.068l-0.813,2.159l5.101-2.33l14.564-6.65l-22.537,25.799l7.473-14.438
				l1.515-2.928l-6.113,3.199L43.165,96.05L62.835,73.283 M69.332,63.007L36.895,100.55l23.097-12.086l-14.336,27.697l37.821-43.292
				l-21.553,9.842L69.332,63.007L69.332,63.007z"/>
		</g>
		<g>
			<g>
				
					<linearGradient id="SVGID_5_" gradientUnits="userSpaceOnUse" x1="774.3246" y1="1778.6143" x2="772.2412" y2="1829.1857" gradientTransform="matrix(1 0 0 1 -712.9805 -1752.8799)">
					<stop  offset="0" style="stop-color:#FFFFFF"/>
					<stop  offset="0.6044" style="stop-color:#629293"/>
					<stop  offset="1" style="stop-color:#5E7B7D"/>
				</linearGradient>
				<path fill="url(#SVGID_5_)" d="M54.701,82.778c-11.042,0-21.028-3.065-23.747-7.288l-0.187-0.29l-0.337,0.071
					c-1.122,0.239-2.416,0.355-3.957,0.355c-6.605,0-11.979-2.531-11.979-5.642c0-0.255,0-0.372,0.069-0.564l0.232-0.646
					l-0.687-0.022c-5.394-0.175-9.619-2.734-9.619-5.826c0-3.212,4.485-5.825,9.999-5.825h1.299l0.147-0.15
					c1.857-1.891,5.326-3.536,9.766-4.632l0.574-0.142l-0.235-0.542c-0.16-0.37-0.256-0.844-0.256-1.268
					c0-3.396,5.249-6.296,12.209-6.743l0.424-0.027l0.042-0.423c0.175-1.783,1.597-3.5,4.004-4.837l0.372-0.207l-0.145-0.4
					c-0.24-0.666-0.367-1.495-0.367-2.397c0-6.852,9.195-12.426,20.498-12.426c11.302,0,20.497,5.574,20.497,12.426
					c0,1.29-0.327,2.496-1.029,3.796l-0.526,0.974l1.078-0.249c0.743-0.171,1.595-0.262,2.463-0.262
					c5.369,0,10.14,3.611,11.098,8.399l0.108,0.543l0.529-0.163c1.529-0.472,3.046-0.711,4.508-0.711
					c7.534,0,13.664,5.945,13.664,13.251c0,6.365-4.804,11.986-11.173,13.075l-0.273,0.047l-0.105,0.257
					c-1.853,4.513-8.261,7.665-15.582,7.665c-4.577,0-9.02-1.303-12.188-3.573l-0.266-0.19l-0.281,0.167
					C70.771,81.084,62.861,82.778,54.701,82.778z"/>
				<path fill="#646464" d="M62.823,23.405c11.027,0,19.997,5.35,19.997,11.926c0,1.203-0.308,2.334-0.969,3.558l-1.053,1.949
					l2.158-0.499c0.705-0.163,1.517-0.249,2.35-0.249c5.135,0,9.695,3.438,10.608,7.997l0.217,1.086l1.058-0.326
					c1.482-0.457,2.949-0.689,4.36-0.689c7.258,0,13.163,5.72,13.163,12.751c0,6.125-4.624,11.534-10.757,12.582l-0.546,0.093
					l-0.21,0.513c-1.778,4.331-7.996,7.356-15.12,7.356c-4.475,0-8.811-1.268-11.897-3.48l-0.532-0.381l-0.562,0.336
					c-4.499,2.684-12.311,4.351-20.386,4.351c-10.883,0-20.693-2.969-23.326-7.059l-0.374-0.581l-0.676,0.144
					c-1.086,0.232-2.346,0.345-3.852,0.345c-6.867,0-11.48-2.659-11.48-5.142c0-0.252,0.002-0.29,0.04-0.395l0.466-1.294
					l-1.374-0.045c-5.037-0.164-9.135-2.553-9.135-5.326c0-2.887,4.35-5.326,9.499-5.326h1.089h0.42l0.294-0.299
					c1.793-1.826,5.177-3.423,9.53-4.497l1.147-0.283l-0.47-1.084c-0.133-0.307-0.215-0.717-0.215-1.07
					c0-3.078,5.158-5.821,11.742-6.244l0.848-0.055l0.083-0.846c0.159-1.614,1.49-3.194,3.749-4.449l0.743-0.413l-0.288-0.8
					c-0.22-0.612-0.337-1.383-0.337-2.228C42.825,28.755,51.796,23.405,62.823,23.405 M62.823,22.405
					c-11.588,0-20.997,5.776-20.997,12.926c0,0.825,0.099,1.742,0.396,2.567c-2.476,1.375-4.061,3.209-4.259,5.226
					c-7.131,0.458-12.678,3.484-12.678,7.242c0,0.458,0.099,1.008,0.297,1.467c-4.457,1.1-8.023,2.75-10.003,4.767
					c-0.297,0-0.693,0-1.089,0c-5.844,0-10.499,2.842-10.499,6.326c0,3.392,4.457,6.142,10.103,6.326
					c-0.099,0.275-0.099,0.458-0.099,0.733c0,3.392,5.546,6.142,12.48,6.142c1.387,0,2.773-0.092,4.061-0.367
					c2.773,4.309,12.579,7.517,24.167,7.517c8.716,0,16.441-1.834,20.898-4.492c3.07,2.2,7.527,3.667,12.48,3.667
					c7.725,0,14.163-3.392,16.045-7.976c6.438-1.1,11.588-6.692,11.588-13.568c0-7.609-6.339-13.751-14.163-13.751
					c-1.585,0-3.169,0.275-4.655,0.733c-0.99-4.95-5.844-8.801-11.588-8.801c-0.891,0-1.783,0.092-2.575,0.275
					c0.693-1.283,1.09-2.567,1.09-4.034C83.82,28.181,74.411,22.405,62.823,22.405L62.823,22.405z"/>
			</g>
			<g opacity="0.61" enable-background="new    ">
				<path fill="#FFFFFF" d="M77.1,43.317c0.547-0.467,1.177-0.873,1.827-1.207C78.304,42.472,77.684,42.874,77.1,43.317z"/>
				<path fill="#646464" d="M82.334,40.557c-2.773,0.183-7.527,2.567-7.527,6.051c1.387-2.659,4.754-4.4,7.23-5.501L82.334,40.557
					L82.334,40.557z"/>
			</g>
			<g opacity="0.61" enable-background="new    ">
				<path fill="#FFFFFF" d="M97.191,50.916c2.674-1.65,5.943-1.467,8.122,0.917c-2.377-1.008-5.249-2.292-7.626-0.55L97.191,50.916z
					"/>
				<path fill="#646464" d="M100.849,49.834c-1.239,0-2.504,0.371-3.657,1.083l0.495,0.367c0.85-0.623,1.764-0.859,2.695-0.859
					c1.673,0,3.404,0.761,4.931,1.409C104.074,50.478,102.483,49.834,100.849,49.834L100.849,49.834z"/>
			</g>
			<g opacity="0.61" enable-background="new    ">
				<path fill="#FFFFFF" d="M44.5,37.165c0.594-3.3,3.566-7.151,6.933-6.692c-3.07,0.55-5.348,3.575-6.735,6.142L44.5,37.165z"/>
				<path fill="#646464" d="M50.882,30.435c-3.136,0-5.821,3.611-6.382,6.73l0.198-0.55c1.387-2.567,3.665-5.592,6.735-6.142
					C51.248,30.448,51.064,30.435,50.882,30.435L50.882,30.435z"/>
			</g>
			<g opacity="0.61" enable-background="new    ">
				<path fill="#FFFFFF" d="M69.36,28.181c2.575,0.092,6.735,2.384,7.131,5.134c-2.08-1.283-3.566-4.034-5.546-4.767L69.36,28.181z"
					/>
				<path fill="#646464" d="M69.36,28.181l1.585,0.367c1.981,0.733,3.467,3.484,5.546,4.767
					C76.095,30.564,71.935,28.273,69.36,28.181L69.36,28.181z"/>
			</g>
			<g opacity="0.61" enable-background="new    ">
				<path fill="#FFFFFF" d="M47.174,48.533c0.396-2.659,2.773-5.226,5.447-4.95c-2.476,0.642-4.457,2.2-5.546,4.767L47.174,48.533z"
					/>
				<path fill="#646464" d="M52.226,43.562c-2.259,0-4.24,1.981-4.887,4.22c1.13-2.231,2.995-3.606,5.283-4.199
					C52.488,43.569,52.357,43.562,52.226,43.562L52.226,43.562z M47.338,47.782c-0.093,0.183-0.181,0.373-0.264,0.568l0.099,0.183
					C47.211,48.281,47.267,48.03,47.338,47.782L47.338,47.782z"/>
			</g>
			<g opacity="0.61" enable-background="new    ">
				<path fill="#FFFFFF" d="M25.978,52.75c0.099-2.567,2.476-4.309,4.853-4.034c-2.08,0.183-4.259,1.834-4.655,4.034H25.978z"/>
				<path fill="#646464" d="M30.336,48.688c-2.201,0-4.265,1.674-4.358,4.062h0.198c0.396-2.2,2.575-3.85,4.655-4.034
					C30.666,48.697,30.501,48.688,30.336,48.688L30.336,48.688z"/>
			</g>
			<g opacity="0.61" enable-background="new    ">
				<path fill="#FFFFFF" d="M38.755,45.141c1.882-0.183,3.764,1.1,3.962,3.117c-1.288-1.008-1.882-2.384-3.467-2.75L38.755,45.141z"
					/>
				<path fill="#646464" d="M39.113,45.124c-0.119,0-0.239,0.006-0.358,0.017l0.495,0.367c1.585,0.367,2.179,1.742,3.467,2.75
					C42.531,46.369,40.869,45.123,39.113,45.124L39.113,45.124z"/>
			</g>
			<g opacity="0.61" enable-background="new    ">
				<path fill="#FFFFFF" d="M37.666,58.251c2.872-3.484,13.767-6.692,16.243-1.283c-3.962-3.759-12.083-1.834-16.045,1.467
					L37.666,58.251z"/>
				<path fill="#646464" d="M48.225,54.076c-4.007,0-8.796,2.036-10.56,4.175l0.198,0.183c2.426-2.021,6.413-3.527,10.048-3.527
					c2.301,0,4.461,0.603,5.997,2.06C52.953,54.88,50.744,54.076,48.225,54.076L48.225,54.076z"/>
			</g>
			<g opacity="0.61" enable-background="new    ">
				<path fill="#FFFFFF" d="M65.2,55.5c2.278-2.75,7.725-4.4,10.301-1.467c-3.07-1.283-6.933-1.1-9.607,0.917L65.2,55.5z"/>
				<path fill="#646464" d="M71.736,52.483c-2.431,0-5.107,1.292-6.536,3.017l0.693-0.55c1.562-1.178,3.529-1.731,5.508-1.731
					c1.408,0,2.823,0.28,4.099,0.814C74.54,52.94,73.181,52.483,71.736,52.483L71.736,52.483z"/>
			</g>
		</g>
		<g>
			<g>
				<g>
					<g>
						
							<linearGradient id="SVGID_6_" gradientUnits="userSpaceOnUse" x1="91.194" y1="76.514" x2="20.2295" y2="76.514" gradientTransform="matrix(1 0 0 -1 0 120)">
							<stop  offset="0.7872" style="stop-color:#DEE8F7"/>
							<stop  offset="1" style="stop-color:#BED3EF"/>
							<stop  offset="1" style="stop-color:#8AB3E1"/>
						</linearGradient>
						<path fill="url(#SVGID_6_)" d="M58.967,82.869c-14.958,0-27.8-7.007-34.353-18.743c-4.604-8.247-5.622-18.12-2.865-27.799
							c3.326-11.676,11.802-22.018,23.257-28.375c2.766-1.535,5.739-2.825,8.864-3.849c-14.09,13.85-18.019,33.736-9.472,49.045
							c6.718,12.032,19.871,19.215,35.184,19.215c3.873,0,7.77-0.468,11.612-1.394c-2.525,2.108-5.191,3.946-7.948,5.476
							C75.676,80.648,67.279,82.869,58.967,82.869z"/>
						<path fill="#646464" d="M52.025,5.279c-13.024,13.916-16.41,33.163-8.063,48.114c6.807,12.192,20.123,19.471,35.62,19.471
							c3.211,0,6.437-0.318,9.636-0.949c-2.001,1.54-4.08,2.91-6.213,4.093c-7.498,4.161-15.81,6.36-24.039,6.36
							c-14.774,0-27.453-6.911-33.915-18.487c-4.539-8.13-5.541-17.868-2.821-27.418c3.29-11.548,11.68-21.78,23.019-28.073
							C47.39,7.202,49.658,6.161,52.025,5.279 M55.77,3c-3.728,1.061-7.427,2.53-11.006,4.516
							C22.699,19.76,13.483,45.214,24.178,64.37c6.861,12.289,20.248,18.999,34.789,18.999c8.127,0,16.614-2.096,24.524-6.486
							c3.578-1.986,6.781-4.348,9.654-6.942c-4.526,1.293-9.099,1.923-13.562,1.923c-14.527,0-27.893-6.682-34.747-18.959
							C35.877,36.86,40.929,16.421,55.77,3L55.77,3z"/>
					</g>
				</g>
			</g>
		</g>
		<g>
			<g>
				
					<linearGradient id="SVGID_7_" gradientUnits="userSpaceOnUse" x1="776.7271" y1="1796.9182" x2="792.6116" y2="1832.5623" gradientTransform="matrix(1 0 0 1 -712.9805 -1752.8799)">
					<stop  offset="0" style="stop-color:#FFFFFF"/>
					<stop  offset="0.6044" style="stop-color:#629293"/>
					<stop  offset="1" style="stop-color:#5E7B7D"/>
				</linearGradient>
				<path fill="url(#SVGID_7_)" d="M69.657,82.687c-8.654,0-16.181-2.245-18.302-5.46l-0.183-0.276l-0.326,0.061
					c-0.942,0.174-2.007,0.267-3.078,0.267c-4.99,0-9.207-1.912-9.207-4.176c0-0.024,0.019-0.094,0.032-0.144
					c0.03-0.11,0.067-0.248,0.067-0.406v-0.489l-0.489-0.011c-4.044-0.085-7.335-1.999-7.335-4.267c0-2.354,3.419-4.268,7.622-4.268
					h0.997l0.146-0.145c1.41-1.391,4.14-2.646,7.49-3.444l0.501-0.119l-0.134-0.498c-0.093-0.343-0.181-0.667-0.181-0.97
					c0-2.5,4.015-4.649,9.338-5.001l0.411-0.027l0.052-0.409c0.173-1.357,1.305-2.69,3.107-3.656l0.363-0.195l-0.121-0.394
					c-0.183-0.591-0.275-1.189-0.275-1.778c0-5.133,7.063-9.31,15.743-9.31s15.743,4.176,15.743,9.31
					c0,0.91-0.267,1.926-0.732,2.788l-0.465,0.862l0.971-0.128c0.696-0.092,1.354-0.179,2.015-0.179c4.197,0,7.86,2.701,8.521,6.283
					l0.105,0.567l0.546-0.184c1.034-0.348,2.18-0.524,3.406-0.524c5.786,0,10.494,4.464,10.494,9.952
					c0,4.85-3.729,8.972-8.674,9.588l-0.294,0.036l-0.109,0.275c-1.323,3.323-6.334,5.735-11.915,5.735
					c-3.733,0-7.076-0.942-9.411-2.654l-0.271-0.197l-0.285,0.174C82.031,81.411,76.093,82.687,69.657,82.687z"/>
				<path fill="#646464" d="M75.897,38.073c8.263,0,15.243,4.034,15.243,8.809c0,0.83-0.245,1.759-0.672,2.55l-0.931,1.723
					l1.942-0.257c0.679-0.09,1.321-0.175,1.949-0.175c3.96,0,7.412,2.525,8.03,5.874l0.209,1.134l1.093-0.368
					c0.981-0.33,2.074-0.498,3.247-0.498c5.511,0,9.994,4.24,9.994,9.451c0,4.598-3.541,8.507-8.236,9.092l-0.587,0.073
					l-0.219,0.549c-1.25,3.141-6.066,5.42-11.451,5.42c-3.575,0-6.898-0.932-9.115-2.557l-0.539-0.395l-0.571,0.348
					c-3.436,2.09-9.277,3.338-15.625,3.338c-9.472,0-16.167-2.633-17.885-5.235l-0.365-0.553l-0.651,0.121
					c-0.913,0.169-1.946,0.258-2.987,0.258c-4.946,0-8.651-1.912-8.706-3.637c0.004-0.018,0.01-0.035,0.014-0.053
					c0.033-0.124,0.084-0.311,0.084-0.536V71.57l-0.979-0.021c-3.711-0.078-6.846-1.803-6.846-3.767
					c0-2.042,3.261-3.767,7.122-3.767h0.792h0.41l0.292-0.288c1.346-1.329,3.991-2.537,7.254-3.314l1.003-0.239l-0.269-0.995
					c-0.084-0.311-0.163-0.605-0.163-0.839c0-2.196,3.897-4.174,8.871-4.503l0.822-0.054l0.104-0.817
					c0.15-1.177,1.214-2.403,2.848-3.278l0.726-0.389l-0.243-0.787c-0.168-0.543-0.253-1.092-0.253-1.63
					C60.653,42.025,67.491,38.073,75.897,38.073 M75.897,37.073c-9.013,0-16.243,4.4-16.243,9.809c0,0.642,0.099,1.283,0.297,1.925
					c-1.882,1.008-3.169,2.475-3.368,4.034c-5.546,0.367-9.805,2.659-9.805,5.501c0,0.367,0.099,0.733,0.198,1.1
					c-3.467,0.825-6.24,2.109-7.725,3.575c-0.297,0-0.495,0-0.792,0c-4.457,0-8.122,2.109-8.122,4.767
					c0,2.567,3.467,4.675,7.824,4.767c0,0.183-0.099,0.367-0.099,0.55c0,2.567,4.358,4.675,9.706,4.675
					c1.089,0,2.179-0.092,3.169-0.275c2.179,3.3,9.706,5.684,18.719,5.684c6.735,0,12.678-1.375,16.144-3.484
					c2.377,1.742,5.844,2.75,9.706,2.75c5.943,0,10.994-2.567,12.381-6.051c5.15-0.642,9.112-4.95,9.112-10.084
					c0-5.776-4.952-10.451-10.994-10.451c-1.288,0-2.476,0.183-3.566,0.55c-0.693-3.759-4.457-6.692-9.013-6.692
					c-0.693,0-1.387,0.092-2.08,0.183c0.495-0.917,0.792-2.017,0.792-3.025C92.14,41.474,84.811,37.073,75.897,37.073L75.897,37.073
					z"/>
			</g>
			<g opacity="0.61" enable-background="new    ">
				<path fill="#FFFFFF" d="M91.149,50.825c-2.179,0.183-5.844,1.925-5.844,4.584c1.089-2.017,3.665-3.392,5.646-4.217
					L91.149,50.825z"/>
				<path fill="#646464" d="M91.149,50.825c-2.179,0.183-5.844,1.925-5.844,4.584c1.089-2.017,3.665-3.392,5.646-4.217
					L91.149,50.825L91.149,50.825z"/>
			</g>
			<g opacity="0.61" enable-background="new    ">
				<path fill="#FFFFFF" d="M102.639,58.709c2.08-1.283,4.655-1.1,6.339,0.733c-1.882-0.825-4.061-1.742-5.943-0.458L102.639,58.709
					z"/>
				<path fill="#646464" d="M105.46,57.881c-0.959,0-1.935,0.281-2.822,0.828l0.396,0.275c0.675-0.46,1.388-0.638,2.112-0.638
					c1.294,0,2.624,0.567,3.831,1.096C108.011,58.39,106.751,57.881,105.46,57.881L105.46,57.881z"/>
			</g>
			<g opacity="0.61" enable-background="new    ">
				<path fill="#FFFFFF" d="M61.832,48.258c0.495-2.475,2.773-5.409,5.348-5.042c-2.377,0.458-4.16,2.659-5.249,4.675L61.832,48.258
					z"/>
				<path fill="#646464" d="M66.74,43.184c-2.39,0-4.441,2.74-4.908,5.073l0.099-0.367c1.089-2.017,2.872-4.217,5.249-4.675
					C67.033,43.195,66.886,43.184,66.74,43.184L66.74,43.184z"/>
			</g>
			<g opacity="0.61" enable-background="new    ">
				<path fill="#FFFFFF" d="M81.146,41.382c1.981,0.092,5.249,1.742,5.546,3.942c-1.585-1.008-2.773-3.025-4.358-3.667
					L81.146,41.382z"/>
				<path fill="#646464" d="M81.146,41.382l1.189,0.275c1.585,0.642,2.773,2.659,4.358,3.667
					C86.395,43.124,83.127,41.474,81.146,41.382L81.146,41.382z"/>
			</g>
			<g opacity="0.61" enable-background="new    ">
				<path fill="#FFFFFF" d="M63.912,56.875c0.297-2.017,2.08-4.034,4.16-3.759c-1.882,0.458-3.467,1.65-4.358,3.575L63.912,56.875z"
					/>
				<path fill="#646464" d="M67.689,53.091c-1.545,0-2.877,1.235-3.479,2.707c0.926-1.405,2.29-2.299,3.861-2.681
					C67.943,53.1,67.816,53.091,67.689,53.091L67.689,53.091z M64.211,55.798c-0.183,0.278-0.349,0.576-0.497,0.894l0.198,0.183
					C63.966,56.512,64.068,56.148,64.211,55.798L64.211,55.798z"/>
			</g>
			<g opacity="0.61" enable-background="new    ">
				<path fill="#FFFFFF" d="M47.471,60.084c0.099-1.925,1.981-3.3,3.764-3.117c-1.585,0.183-3.268,1.375-3.665,3.117H47.471z"/>
				<path fill="#646464" d="M50.913,56.951c-1.681,0-3.349,1.324-3.442,3.133h0.099c0.396-1.742,2.08-2.934,3.665-3.117
					C51.128,56.956,51.02,56.951,50.913,56.951L50.913,56.951z"/>
			</g>
			<g opacity="0.61" enable-background="new    ">
				<path fill="#FFFFFF" d="M57.375,54.308c1.486-0.183,2.971,0.825,3.07,2.384c-0.99-0.825-1.486-1.834-2.674-2.109L57.375,54.308z
					"/>
				<path fill="#646464" d="M57.725,54.287c-0.116,0-0.233,0.007-0.35,0.021l0.396,0.275c1.189,0.275,1.684,1.283,2.674,2.109
					C60.354,55.256,59.086,54.287,57.725,54.287L57.725,54.287z"/>
			</g>
			<g opacity="0.61" enable-background="new    ">
				<path fill="#FFFFFF" d="M56.583,64.301c2.179-2.659,10.697-5.134,12.579-1.008c-3.07-2.842-9.31-1.375-12.381,1.1L56.583,64.301
					z"/>
				<path fill="#646464" d="M64.788,61.097c-3.119,0-6.864,1.568-8.206,3.204l0.198,0.092c1.882-1.517,4.953-2.655,7.756-2.655
					c1.771,0,3.436,0.455,4.624,1.555C68.438,61.707,66.736,61.097,64.788,61.097L64.788,61.097z"/>
			</g>
			<g opacity="0.61" enable-background="new    ">
				<path fill="#FFFFFF" d="M77.877,62.193c1.783-2.109,5.943-3.3,8.023-1.192c-2.377-1.008-5.348-0.825-7.428,0.733L77.877,62.193z
					"/>
				<path fill="#646464" d="M82.977,59.895c-1.899,0-3.973,0.966-5.099,2.298l0.594-0.458c1.227-0.919,2.764-1.36,4.306-1.36
					c1.072,0,2.147,0.213,3.122,0.627C85.134,60.224,84.085,59.895,82.977,59.895L82.977,59.895z"/>
			</g>
			<g>
				<g>
					
						<linearGradient id="SVGID_8_" gradientUnits="userSpaceOnUse" x1="762.6166" y1="1791.0667" x2="760.538" y2="1837.2878" gradientTransform="matrix(1 0 0 1 -712.9805 -1752.8799)">
						<stop  offset="0" style="stop-color:#FFFFFF"/>
						<stop  offset="0.7388" style="stop-color:#629293"/>
						<stop  offset="1" style="stop-color:#5E7B7D"/>
					</linearGradient>
					<path fill="url(#SVGID_8_)" d="M52.027,85.712c-6.913,0-13.192-1.768-17.228-4.849l-0.26-0.198l-0.286,0.158
						c-1.949,1.083-4.642,1.68-7.582,1.68c-4.865,0-9.214-1.768-10.342-4.202l-0.167-0.359l-0.388,0.08
						c-0.878,0.181-1.728,0.265-2.672,0.265c-5.295,0-9.603-2.613-9.603-5.826c0-3.157,4.397-5.825,9.603-5.825
						c0.862,0,1.617,0.088,2.417,0.18l0.761,0.089l-0.225-0.732c-0.192-0.625-0.275-1.13-0.275-1.687
						c0-5.032,5.863-9.126,13.069-9.126h0.608l-0.117-0.597c-0.196-0.995-0.387-2.055-0.387-3.112
						c0-7.104,6.263-12.885,13.96-12.885c6.904,0,12.695,4.529,13.77,10.77l0.071,0.415h0.421c6.814,0,12.277,4.628,12.277,10.318
						c0,0.499-0.091,1.007-0.188,1.544l-0.169,0.945l0.868-0.385c2.362-1.094,5.207-1.696,8.011-1.696
						c8.135,0,14.753,4.875,14.753,10.868c0,5.992-6.662,10.867-14.852,10.867c-2.885,0-5.58-0.57-8.011-1.696l-0.273-0.126
						l-0.24,0.183C65.242,83.911,58.927,85.712,52.027,85.712z"/>
					<path fill="#646464" d="M42.915,39.265c6.66,0,12.244,4.355,13.277,10.354l0.143,0.83h0.842h0.099
						c6.439,0,11.678,4.404,11.678,9.818c0,0.461-0.089,0.952-0.182,1.473l-0.341,1.892l1.745-0.808
						c2.298-1.064,5.069-1.649,7.801-1.649c7.859,0,14.253,4.651,14.253,10.368c0,5.62-6.572,10.368-14.352,10.368
						c-2.811,0-5.436-0.555-7.801-1.649l-0.547-0.253l-0.479,0.366c-4.025,3.074-10.23,4.837-17.023,4.837
						c-6.806,0-12.975-1.73-16.924-4.745l-0.52-0.397l-0.572,0.318c-1.876,1.042-4.483,1.616-7.339,1.616
						c-5.303,0-8.988-1.968-9.888-3.912l-0.333-0.719l-0.776,0.16c-0.844,0.174-1.661,0.255-2.572,0.255
						C8.083,77.786,4,75.397,4,72.46c0-2.887,4.168-5.326,9.103-5.326c0.834,0,1.576,0.086,2.361,0.177l1.523,0.176l-0.452-1.464
						c-0.179-0.581-0.253-1.027-0.253-1.539c0-4.756,5.638-8.626,12.569-8.626h1.216l-0.234-1.193
						c-0.191-0.972-0.377-2.006-0.377-3.016C29.454,44.821,35.493,39.265,42.915,39.265 M42.915,38.265
						c-8.023,0-14.46,5.959-14.46,13.385c0,1.1,0.198,2.2,0.396,3.209c-7.527,0-13.569,4.309-13.569,9.626
						c0,0.642,0.099,1.192,0.297,1.834c-0.792-0.092-1.585-0.183-2.476-0.183C7.556,66.135,3,68.977,3,72.46
						c0,3.484,4.457,6.326,10.103,6.326c0.99,0,1.882-0.092,2.773-0.275c1.189,2.567,5.546,4.492,10.796,4.492
						c3.07,0,5.844-0.642,7.825-1.742c3.962,3.025,10.301,4.95,17.531,4.95c7.329,0,13.668-2.017,17.63-5.042
						c2.377,1.1,5.15,1.742,8.221,1.742c8.419,0,15.352-5.134,15.352-11.368s-6.834-11.368-15.253-11.368
						c-2.971,0-5.844,0.642-8.221,1.742c0.099-0.55,0.198-1.1,0.198-1.65c0-5.959-5.646-10.818-12.678-10.818c0,0,0,0-0.099,0
						C56.088,43.124,50.145,38.265,42.915,38.265L42.915,38.265z"/>
				</g>
				<g opacity="0.61" enable-background="new    ">
					<path fill="#FFFFFF" d="M57.547,54.146c-0.733-0.356-1.479-0.692-2.249-0.968C56.125,53.405,56.893,53.737,57.547,54.146z"/>
					<path fill="#646464" d="M52.804,52.339c-0.79,0-1.561,0.102-2.263,0.319l0.099,0.367c0.318-0.034,0.63-0.05,0.937-0.05
						c3.04,0,5.575,1.559,8.274,2.891C58.84,53.707,55.692,52.339,52.804,52.339L52.804,52.339z"/>
				</g>
				<g opacity="0.61" enable-background="new    ">
					<path fill="#FFFFFF" d="M79.363,65.31c-2.08-1.742-5.15-1.558-7.725-0.367c2.674,0.183,5.15-0.275,7.626,0.642L79.363,65.31z"
						/>
					<path fill="#646464" d="M75.559,64.025c-1.311,0-2.674,0.341-3.921,0.918c0.579,0.04,1.149,0.049,1.711,0.049
						c0.528,0,1.05-0.008,1.567-0.008c1.475,0,2.912,0.069,4.348,0.601l0.099-0.275C78.291,64.411,76.954,64.025,75.559,64.025
						L75.559,64.025z"/>
				</g>
				<g opacity="0.61" enable-background="new    ">
					<path fill="#FFFFFF" d="M22.611,69.618c2.674-2.659,8.716-2.109,10.796,0.917c-2.575-2.109-7.824-2.934-10.499-0.642
						L22.611,69.618z"/>
					<path fill="#646464" d="M27.422,67.91c-1.839,0-3.645,0.549-4.811,1.708l0.297,0.275c1.122-0.961,2.696-1.374,4.336-1.374
						c2.271,0,4.668,0.792,6.163,2.016C32.233,68.829,29.8,67.91,27.422,67.91L27.422,67.91z"/>
				</g>
				<g opacity="0.61" enable-background="new    ">
					<path fill="#FFFFFF" d="M37.255,46.447c0.912-0.327,1.826-0.504,2.671-0.504c0.655,0,1.258,0.104,1.803,0.31
						c-0.223,0.004-0.444,0.009-0.665,0.013C39.759,46.29,38.492,46.313,37.255,46.447z"/>
					<path fill="#646464" d="M39.926,45.443c-2.082,0-4.312,0.981-5.953,2.248c2.919-1.091,6.065-0.832,9.438-0.992
						C42.415,45.809,41.198,45.443,39.926,45.443L39.926,45.443z M33.972,47.691c-0.425,0.159-0.844,0.346-1.259,0.567l0.297,0.275
						C33.3,48.244,33.623,47.961,33.972,47.691L33.972,47.691z"/>
				</g>
				<g opacity="0.61" enable-background="new    ">
					<path fill="#FFFFFF" d="M30.37,59.397c1.602-0.745,3.442-1.178,5.27-1.178c0.145,0,0.289,0.002,0.431,0.008
						c-0.104,0.014-0.207,0.029-0.312,0.043C33.936,58.525,32.077,58.785,30.37,59.397z"/>
					<path fill="#646464" d="M35.64,57.719c-3.795,0-7.837,1.843-9.661,4.657l1.486-0.733c3.07-2.75,7.725-2.567,11.489-3.392
						C37.917,57.888,36.79,57.719,35.64,57.719L35.64,57.719z"/>
				</g>
				<g opacity="0.61" enable-background="new    ">
					<path fill="#FFFFFF" d="M50.035,62.04c0.75-0.416,1.638-0.719,2.575-0.793C51.761,61.463,50.891,61.721,50.035,62.04z"/>
					<path fill="#646464" d="M53.055,60.729c-2.208,0-4.393,1.276-5.287,2.656v0.092h0.297c2.179-1.192,4.754-1.834,7.131-2.292
						C54.51,60.866,53.782,60.729,53.055,60.729L53.055,60.729z M55.345,61.184c0,0-0.05,0-0.149,0
						C55.295,61.184,55.345,61.184,55.345,61.184L55.345,61.184z"/>
				</g>
			</g>
		</g>
	</g>
</g>
</svg>
