<?xml version="1.0" encoding="utf-8"?>
<!-- Generator: Adobe Illustrator 19.2.1, SVG Export Plug-In . SVG Version: 6.00 Build 0)  -->
<svg version="1.1" id="Слой_1" xmlns="http://www.w3.org/2000/svg" xmlns:xlink="http://www.w3.org/1999/xlink" x="0px" y="0px"
	 viewBox="0 0 120 120" enable-background="new 0 0 120 120" xml:space="preserve">
<g>
	<g>
		<g>
			
				<linearGradient id="SVGID_1_" gradientUnits="userSpaceOnUse" x1="977.4099" y1="-1826.2037" x2="984.5142" y2="-1826.2037" gradientTransform="matrix(-0.963 1.4058 -0.825 -0.5651 -534.9615 -2373.873)">
				<stop  offset="0" style="stop-color:#FFD405"/>
				<stop  offset="1" style="stop-color:#F9AF15"/>
			</linearGradient>
			<polygon fill="url(#SVGID_1_)" points="41.855,47.364 38.34,52.249 25.23,39.66 12.025,27.071 28.65,34.681 45.275,42.385 			"/>
			<path fill="#646464" d="M17.032,30.463l11.198,5.126l15.551,7.206l-2.737,3.986l-2.842,3.95L25.92,38.937L17.032,30.463
				 M12.025,27.071L25.23,39.66l13.11,12.589l3.515-4.885l3.42-4.979L28.65,34.681L12.025,27.071L12.025,27.071z"/>
		</g>
		<g>
			
				<linearGradient id="SVGID_2_" gradientUnits="userSpaceOnUse" x1="1296.2894" y1="-1125.2383" x2="1303.3856" y2="-1125.2383" gradientTransform="matrix(-0.4241 1.6504 -0.9685 -0.2489 -516.2462 -2379.0911)">
				<stop  offset="0" style="stop-color:#FFD405"/>
				<stop  offset="1" style="stop-color:#F9AF15"/>
			</linearGradient>
			<polygon fill="url(#SVGID_2_)" points="39.765,50.746 38.15,56.571 21.43,49.243 4.805,41.727 23.045,43.324 41.19,44.827 			"/>
			<path fill="#646464" d="M10.57,43.236l12.393,1.085l16.982,1.407l-1.143,4.751l-1.307,4.713l-15.653-6.86L10.57,43.236
				 M4.805,41.727l16.625,7.516l16.72,7.328l1.615-5.825l1.425-5.919l-18.145-1.503L4.805,41.727L4.805,41.727z"/>
		</g>
		<g>
			
				<linearGradient id="SVGID_3_" gradientUnits="userSpaceOnUse" x1="1454.5409" y1="-281.3319" x2="1461.625" y2="-281.3319" gradientTransform="matrix(0.1659 1.696 -0.9952 0.0974 -500.9274 -2389.1274)">
				<stop  offset="0" style="stop-color:#FFD405"/>
				<stop  offset="1" style="stop-color:#F9AF15"/>
			</linearGradient>
			<polygon fill="url(#SVGID_3_)" points="38.91,54.692 39.48,60.611 21.24,59.389 3,58.168 20.67,53.377 38.245,48.585 			"/>
			<path fill="#646464" d="M37.378,49.858l0.537,4.93l0.457,4.746l-17.065-1.143L9.029,57.569l11.904-3.228L37.378,49.858
				 M38.245,48.585L20.67,53.377L3,58.168l18.24,1.221l18.24,1.221l-0.57-5.919L38.245,48.585L38.245,48.585z"/>
		</g>
		<g>
			
				<linearGradient id="SVGID_4_" gradientUnits="userSpaceOnUse" x1="1434.7671" y1="605.0072" x2="1441.8621" y2="605.0072" gradientTransform="matrix(0.736 1.5369 -0.9019 0.4319 -489.6931 -2405.4751)">
				<stop  offset="0" style="stop-color:#FFD405"/>
				<stop  offset="1" style="stop-color:#F9AF15"/>
			</linearGradient>
			<polygon fill="url(#SVGID_4_)" points="39.48,58.638 42.14,63.993 24.565,69.066 6.895,74.045 21.81,63.617 36.82,53.189 			"/>
			<path fill="#646464" d="M36.433,54.675l2.151,4.407l2.127,4.282l-16.417,4.739l-11.986,3.378l10.073-7.043L36.433,54.675
				 M36.82,53.189L21.81,63.617L6.895,74.045l17.67-4.979l17.575-5.073l-2.66-5.355L36.82,53.189L36.82,53.189z"/>
		</g>
		<g>
			
				<linearGradient id="SVGID_5_" gradientUnits="userSpaceOnUse" x1="1237.9382" y1="1425.9406" x2="1245.053" y2="1425.9406" gradientTransform="matrix(1.2173 1.1925 -0.6998 0.7143 -484.5857 -2424.0745)">
				<stop  offset="0" style="stop-color:#FFD405"/>
				<stop  offset="1" style="stop-color:#F9AF15"/>
			</linearGradient>
			<polygon fill="url(#SVGID_5_)" points="41.38,62.114 45.655,66.435 30.93,77.051 16.205,87.762 26.56,72.824 37.01,57.98 			"/>
			<path fill="#646464" d="M37.162,59.501l3.507,3.316l3.453,3.491l-13.78,9.935l-9.954,7.24l6.99-10.083L37.162,59.501
				 M37.01,57.98L26.56,72.824L16.205,87.762l14.725-10.71l14.725-10.616l-4.275-4.322L37.01,57.98L37.01,57.98z"/>
		</g>
		<g>
			
				<linearGradient id="SVGID_6_" gradientUnits="userSpaceOnUse" x1="888.4039" y1="2081.4714" x2="895.5359" y2="2081.4714" gradientTransform="matrix(1.5517 0.7043 -0.4133 0.9106 -486.8034 -2442.5042)">
				<stop  offset="0" style="stop-color:#FFD405"/>
				<stop  offset="1" style="stop-color:#F9AF15"/>
			</linearGradient>
			<polygon fill="url(#SVGID_6_)" points="44.325,64.838 49.93,67.281 39.765,82.407 29.41,97.344 34.16,79.776 38.91,62.302 			"/>
			<path fill="#646464" d="M39.563,63.712l4.363,2.043l4.506,1.964l-9.488,14.118l-7.057,10.18l3.239-11.978L39.563,63.712
				 M38.91,62.302l-4.75,17.474l-4.75,17.568l10.355-14.938L49.93,67.281l-5.605-2.443L38.91,62.302L38.91,62.302z"/>
		</g>
		<g>
			
				<linearGradient id="SVGID_7_" gradientUnits="userSpaceOnUse" x1="427.9678" y1="2495.2417" x2="435.1083" y2="2495.2417" gradientTransform="matrix(1.699 0.1311 -0.0769 0.997 -494.5353 -2460.2319)">
				<stop  offset="0" style="stop-color:#FFD405"/>
				<stop  offset="1" style="stop-color:#F9AF15"/>
			</linearGradient>
			<polygon fill="url(#SVGID_7_)" points="48.125,66.341 54.205,66.811 49.835,84.379 45.37,101.948 43.66,83.91 42.045,65.778 			
				"/>
			<path fill="#646464" d="M43.148,66.884l4.9,0.454l4.901,0.379l-4.083,16.416l-3.045,11.979l-1.165-12.291L43.148,66.884
				 M42.045,65.778L43.66,83.91l1.71,18.038l4.465-17.568l4.37-17.568l-6.08-0.47L42.045,65.778L42.045,65.778z"/>
		</g>
		<g>
			
				<linearGradient id="SVGID_8_" gradientUnits="userSpaceOnUse" x1="-87.3773" y1="2615.1001" x2="-80.2411" y2="2615.1001" gradientTransform="matrix(1.6414 -0.4579 0.2687 0.9632 -508.141 -2473.616)">
				<stop  offset="0" style="stop-color:#FFD405"/>
				<stop  offset="1" style="stop-color:#F9AF15"/>
			</linearGradient>
			<polygon fill="url(#SVGID_8_)" points="52.115,66.435 58.005,64.838 59.905,82.876 61.805,100.82 54.015,84.473 46.225,68.126 
							"/>
			<path fill="#646464" d="M57.133,66.111l1.777,16.871l1.285,12.137l-5.278-11.076l-7.282-15.281l4.741-1.361L57.133,66.111
				 M58.005,64.838l-5.89,1.597l-5.89,1.691l7.79,16.347l7.79,16.347l-1.9-17.944L58.005,64.838L58.005,64.838z"/>
		</g>
		<g>
			
				<linearGradient id="SVGID_9_" gradientUnits="userSpaceOnUse" x1="-595.798" y1="2428.0161" x2="-588.6768" y2="2428.0161" gradientTransform="matrix(1.3858 -0.9917 0.5819 0.8132 -525.6754 -2482.0073)">
				<stop  offset="0" style="stop-color:#FFD405"/>
				<stop  offset="1" style="stop-color:#F9AF15"/>
			</linearGradient>
			<polygon fill="url(#SVGID_9_)" points="56.01,65.214 60.95,61.644 68.93,77.897 77.005,94.338 64.085,81.467 51.07,68.69 			"/>
			<path fill="#646464" d="M60.575,63.149l7.458,15.189l5.434,11.063l-8.681-8.647L52.627,68.817l3.969-2.793L60.575,63.149
				 M60.95,61.644l-4.94,3.57l-4.94,3.476l13.015,12.777l12.92,12.871L68.93,77.897L60.95,61.644L60.95,61.644z"/>
		</g>
		<g>
			
				<linearGradient id="SVGID_10_" gradientUnits="userSpaceOnUse" x1="-1036.0093" y1="1955.0498" x2="-1028.9058" y2="1955.0498" gradientTransform="matrix(0.963 -1.4058 0.825 0.5651 -544.6405 -2483.3906)">
				<stop  offset="0" style="stop-color:#FFD405"/>
				<stop  offset="1" style="stop-color:#F9AF15"/>
			</linearGradient>
			<polygon fill="url(#SVGID_10_)" points="59.145,62.678 62.66,57.792 75.77,70.287 88.975,82.876 72.35,75.266 55.82,67.657 			
				"/>
			<path fill="#646464" d="M62.801,59.308L75.08,71.011l8.888,8.474l-11.2-5.127l-15.466-7.12l2.655-3.977L62.801,59.308
				 M62.66,57.792l-3.515,4.885l-3.325,4.979l16.53,7.61l16.625,7.61L75.77,70.287L62.66,57.792L62.66,57.792z"/>
		</g>
		<g>
			
				<linearGradient id="SVGID_11_" gradientUnits="userSpaceOnUse" x1="-1354.5276" y1="1254.5764" x2="-1347.4314" y2="1254.5764" gradientTransform="matrix(0.4241 -1.6504 0.9685 0.2489 -563.3534 -2478.1746)">
				<stop  offset="0" style="stop-color:#FFD405"/>
				<stop  offset="1" style="stop-color:#F9AF15"/>
			</linearGradient>
			<polygon fill="url(#SVGID_11_)" points="61.235,59.201 62.85,53.377 79.57,60.799 96.29,68.22 77.955,66.717 59.81,65.12 			"/>
			<path fill="#646464" d="M63.504,54.761l15.66,6.952l11.33,5.029l-12.452-1.021l-16.989-1.495l1.145-4.757L63.504,54.761
				 M62.85,53.377l-1.615,5.825L59.81,65.12l18.145,1.597L96.29,68.22l-16.72-7.422L62.85,53.377L62.85,53.377z"/>
		</g>
		<g>
			
				<linearGradient id="SVGID_12_" gradientUnits="userSpaceOnUse" x1="-1513.9712" y1="410.1049" x2="-1506.8871" y2="410.1049" gradientTransform="matrix(-0.1659 -1.696 0.9952 -0.0974 -578.6722 -2468.1382)">
				<stop  offset="0" style="stop-color:#FFD405"/>
				<stop  offset="1" style="stop-color:#F9AF15"/>
			</linearGradient>
			<polygon fill="url(#SVGID_12_)" points="62.09,55.35 61.52,49.337 79.76,50.558 98,51.874 80.425,56.571 62.755,61.362 			"/>
			<path fill="#646464" d="M62.627,50.413l17.062,1.142l12.308,0.888l-11.833,3.163l-16.543,4.486l-0.535-4.836L62.627,50.413
				 M61.52,49.337l0.57,6.013l0.665,6.013l17.67-4.791L98,51.874l-18.24-1.315L61.52,49.337L61.52,49.337z"/>
		</g>
		<g>
			
				<linearGradient id="SVGID_13_" gradientUnits="userSpaceOnUse" x1="-1493.5526" y1="-475.6032" x2="-1486.4602" y2="-475.6032" gradientTransform="matrix(-0.736 -1.5369 0.9019 -0.4319 -589.9056 -2451.7925)">
				<stop  offset="0" style="stop-color:#FFD405"/>
				<stop  offset="1" style="stop-color:#F9AF15"/>
			</linearGradient>
			<polygon fill="url(#SVGID_13_)" points="61.52,51.404 58.955,45.955 76.435,40.976 94.105,35.902 79.19,46.331 64.18,56.853 			
				"/>
			<path fill="#646464" d="M88.619,38.518l-10.003,6.994l-14.051,9.85l-2.14-4.384l-2.064-4.384l16.35-4.657L88.619,38.518
				 M94.105,35.902l-17.67,5.073l-17.48,4.979l2.565,5.449l2.66,5.449l15.01-10.522L94.105,35.902L94.105,35.902z"/>
		</g>
		<g>
			
				<linearGradient id="SVGID_14_" gradientUnits="userSpaceOnUse" x1="-1296.8729" y1="-1296.3054" x2="-1289.7598" y2="-1296.3054" gradientTransform="matrix(-1.2173 -1.1925 0.6998 -0.7143 -595.0139 -2433.1951)">
				<stop  offset="0" style="stop-color:#FFD405"/>
				<stop  offset="1" style="stop-color:#F9AF15"/>
			</linearGradient>
			<polygon fill="url(#SVGID_14_)" points="59.62,47.834 55.345,43.606 70.07,32.896 84.795,22.28 74.44,37.218 63.99,52.061 			"/>
			<path fill="#646464" d="M80.654,26.498l-7.032,10.144L63.845,50.53l-3.522-3.407l-3.438-3.4l13.77-10.015L80.654,26.498
				 M84.795,22.28L70.07,32.896l-14.725,10.71l4.275,4.228l4.37,4.228l10.45-14.844L84.795,22.28L84.795,22.28z"/>
		</g>
		<g>
			
				<linearGradient id="SVGID_15_" gradientUnits="userSpaceOnUse" x1="-947.2305" y1="-1953.661" x2="-940.0981" y2="-1953.661" gradientTransform="matrix(-1.5517 -0.7043 0.4133 -0.9106 -592.8002 -2414.7634)">
				<stop  offset="0" style="stop-color:#FFD405"/>
				<stop  offset="1" style="stop-color:#F9AF15"/>
			</linearGradient>
			<polygon fill="url(#SVGID_15_)" points="56.675,45.109 51.07,42.667 61.235,27.635 71.59,12.603 66.84,30.172 62.09,47.646 			
				"/>
			<path fill="#646464" d="M69.1,17.98l-3.225,11.929l-4.438,16.326l-4.363-2.043l-4.502-1.962l9.486-14.028L69.1,17.98
				 M71.59,12.603L61.235,27.635L51.07,42.667l5.605,2.443l5.415,2.537l4.75-17.474L71.59,12.603L71.59,12.603z"/>
		</g>
		<g>
			
				<linearGradient id="SVGID_16_" gradientUnits="userSpaceOnUse" x1="-486.9868" y1="-2366.6118" x2="-479.8484" y2="-2366.6118" gradientTransform="matrix(-1.699 -0.1311 0.0769 -0.997 -585.0663 -2397.0366)">
				<stop  offset="0" style="stop-color:#FFD405"/>
				<stop  offset="1" style="stop-color:#F9AF15"/>
			</linearGradient>
			<polygon fill="url(#SVGID_16_)" points="52.875,43.606 46.89,43.23 51.165,25.568 55.63,8 57.34,26.038 58.955,44.17 			"/>
			<path fill="#646464" d="M55.179,13.835l1.165,12.291l1.509,16.937l-4.915-0.455l-4.795-0.301l3.992-16.493L55.179,13.835
				 M55.63,8l-4.465,17.568L46.89,43.23l5.985,0.376l6.08,0.564L57.34,26.038L55.63,8L55.63,8z"/>
		</g>
		<g>
			
				<linearGradient id="SVGID_17_" gradientUnits="userSpaceOnUse" x1="28.5423" y1="-2486.853" x2="35.6743" y2="-2486.853" gradientTransform="matrix(-1.6414 0.4579 -0.2687 -0.9632 -571.4635 -2383.6526)">
				<stop  offset="0" style="stop-color:#FFD405"/>
				<stop  offset="1" style="stop-color:#F9AF15"/>
			</linearGradient>
			<polygon fill="url(#SVGID_17_)" points="48.885,43.512 42.995,45.109 41.095,27.165 39.195,9.127 46.985,25.474 54.775,42.009 
							"/>
			<path fill="#646464" d="M40.8,14.82l5.28,11.08l7.274,15.439l-4.731,1.207l-4.757,1.29L42.09,27.061L40.8,14.82 M39.195,9.127
				l1.9,18.038l1.9,17.944l5.89-1.597l5.89-1.503l-7.79-16.535L39.195,9.127L39.195,9.127z"/>
		</g>
		<g>
			
				<linearGradient id="SVGID_18_" gradientUnits="userSpaceOnUse" x1="537.0454" y1="-2298.7974" x2="544.1666" y2="-2298.7974" gradientTransform="matrix(-1.3858 0.9917 -0.5819 -0.8132 -553.9266 -2375.2583)">
				<stop  offset="0" style="stop-color:#FFD405"/>
				<stop  offset="1" style="stop-color:#F9AF15"/>
			</linearGradient>
			<polygon fill="url(#SVGID_18_)" points="44.99,44.827 40.05,48.304 32.07,32.051 24.09,15.704 37.01,28.575 49.93,41.257 			"/>
			<path fill="#646464" d="M27.598,20.61l8.712,8.679l12.074,11.853l-3.969,2.869l-3.983,2.802l-7.463-15.2L27.598,20.61
				 M24.09,15.704l7.98,16.347l7.98,16.253l4.94-3.476l4.94-3.57L37.01,28.575L24.09,15.704L24.09,15.704z"/>
		</g>
		<g>
			
				<linearGradient id="SVGID_19_" gradientUnits="userSpaceOnUse" x1="560.9845" y1="2568.1819" x2="536.7379" y2="2524.1421" gradientTransform="matrix(1 0 0 1 -497.3008 -2490.7998)">
				<stop  offset="0" style="stop-color:#FFD405"/>
				<stop  offset="1" style="stop-color:#F9AF15"/>
			</linearGradient>
			<ellipse fill="url(#SVGID_19_)" cx="51.45" cy="55.162" rx="25.84" ry="25.742"/>
		</g>
		<g opacity="0.44" enable-background="new    ">
			
				<linearGradient id="SVGID_20_" gradientUnits="userSpaceOnUse" x1="542.3075" y1="2531.2036" x2="568.7687" y2="2531.2036" gradientTransform="matrix(1 0 0 1 -497.3008 -2490.7998)">
				<stop  offset="0" style="stop-color:#F4EA66"/>
				<stop  offset="1" style="stop-color:#FDF8CC"/>
			</linearGradient>
			<path fill="url(#SVGID_20_)" d="M45.37,35.245c-1.995,4.134,4.56,6.201,11.495,9.489c7.125,3.382,12.065,6.764,14.06,2.537
				c1.995-4.228-2.09-10.334-9.12-13.622C54.87,30.36,47.46,31.017,45.37,35.245z"/>
		</g>
	</g>
	<g>
		<g opacity="0.9" enable-background="new    ">
			
				<linearGradient id="SVGID_21_" gradientUnits="userSpaceOnUse" x1="321.4931" y1="-2122.8398" x2="321.4931" y2="-2067.4409" gradientTransform="matrix(1 0 0 -1 -259.6406 -2010.8398)">
				<stop  offset="0" style="stop-color:#066CAA"/>
				<stop  offset="0.1286" style="stop-color:#037BB6"/>
				<stop  offset="0.263" style="stop-color:#008FC7"/>
				<stop  offset="0.4083" style="stop-color:#39A6D1"/>
				<stop  offset="0.5506" style="stop-color:#6AB9D9"/>
				<stop  offset="0.6844" style="stop-color:#90C8E0"/>
				<stop  offset="0.8077" style="stop-color:#ABD2E4"/>
				<stop  offset="0.9167" style="stop-color:#BBD9E7"/>
				<stop  offset="1" style="stop-color:#C1DBE8"/>
			</linearGradient>
			<path fill="url(#SVGID_21_)" d="M117,91.613c0-6.858-6.175-12.495-13.965-12.495c-1.615,0-3.135,0.282-4.56,0.658
				c-0.95-4.509-5.7-7.986-11.495-7.986c-0.855,0-1.71,0.094-2.66,0.282c0.665-1.221,1.045-2.349,1.045-3.664
				c0.095-6.482-9.215-11.743-20.615-11.743s-20.71,5.261-20.71,11.743c0,0.752,0.095,1.597,0.38,2.255
				c-2.47,1.315-3.99,2.912-4.275,4.791C33.115,75.83,27.7,78.743,27.7,82.031c0,0.47,0.095,0.846,0.285,1.315
				c-4.37,0.939-7.885,2.443-9.88,4.322c-0.285,0-0.665,0-1.045,0c-5.7,0-10.355,2.537-10.355,5.731c0,3.1,4.37,5.637,9.88,5.731
				c-0.095,0.188-0.095,0.376-0.095,0.658c0,3.1,5.51,5.637,12.35,5.637c1.425,0,2.755-0.094,3.99-0.282
				C35.585,109.088,45.18,112,56.58,112c8.55,0,16.245-1.691,20.615-4.134c3.04,2.067,7.41,3.382,12.35,3.382
				c7.6,0,13.965-3.1,15.77-7.234C111.965,102.981,117,97.814,117,91.613z"/>
			<path fill="#646464" d="M64.75,57.665c7.216,0,13.851,2.184,17.316,5.701c1.551,1.574,2.325,3.266,2.299,5.043
				c0,1.045-0.276,1.997-0.923,3.186l-1.02,1.873l2.092-0.414c0.907-0.179,1.69-0.263,2.466-0.263c5.216,0,9.639,3.025,10.516,7.192
				l0.217,1.029l1.017-0.268c1.616-0.426,2.984-0.625,4.305-0.625c7.149,0,12.965,5.157,12.965,11.495
				c0,5.637-4.558,10.437-10.839,11.413l-0.543,0.084l-0.22,0.504c-1.679,3.844-7.925,6.634-14.854,6.634
				c-4.492,0-8.788-1.17-11.788-3.209l-0.511-0.347l-0.539,0.301C72.286,109.465,64.573,111,56.58,111
				c-10.685,0-20.328-2.704-22.93-6.431l-0.356-0.51l-0.614,0.093c-1.18,0.179-2.471,0.27-3.84,0.27
				c-6.689,0-11.35-2.444-11.35-4.637c0-0.085,0-0.188,0.004-0.24l0.703-1.391l-1.595-0.027c-4.823-0.082-8.897-2.249-8.897-4.731
				c0-2.564,4.284-4.731,9.355-4.731h1.045h0.397l0.289-0.272c1.819-1.713,5.159-3.159,9.405-4.072l1.163-0.25l-0.446-1.103
				c-0.157-0.387-0.212-0.633-0.212-0.94c0-2.397,4.62-5.21,11.498-5.578l0.813-0.043l0.122-0.805
				c0.225-1.486,1.489-2.851,3.756-4.059l0.814-0.434l-0.367-0.847c-0.192-0.443-0.298-1.102-0.298-1.857
				C45.04,62.585,54.066,57.665,64.75,57.665 M64.75,56.665c-11.4,0-20.71,5.261-20.71,11.743c0,0.752,0.095,1.597,0.38,2.255
				c-2.47,1.315-3.99,2.912-4.275,4.791C33.115,75.83,27.7,78.743,27.7,82.031c0,0.47,0.095,0.846,0.285,1.315
				c-4.37,0.939-7.885,2.443-9.88,4.322c-0.285,0-0.665,0-1.045,0c-5.7,0-10.355,2.537-10.355,5.731c0,3.1,4.37,5.637,9.88,5.731
				c-0.095,0.188-0.095,0.376-0.095,0.658c0,3.1,5.51,5.637,12.35,5.637c1.425,0,2.755-0.094,3.99-0.282
				C35.585,109.088,45.18,112,56.58,112c8.55,0,16.245-1.691,20.615-4.134c3.04,2.067,7.41,3.382,12.35,3.382
				c7.6,0,13.965-3.1,15.77-7.234c6.65-1.033,11.685-6.201,11.685-12.401c0-6.858-6.175-12.495-13.965-12.495
				c-1.615,0-3.135,0.282-4.56,0.658c-0.95-4.509-5.7-7.986-11.495-7.986c-0.855,0-1.71,0.094-2.66,0.282
				c0.665-1.221,1.045-2.349,1.045-3.664C85.46,61.926,76.15,56.665,64.75,56.665L64.75,56.665z"/>
		</g>
		<g opacity="0.61" enable-background="new    ">
			<path fill="#FFFFFF" d="M84.13,73.012c-2.85,0.188-7.505,2.349-7.505,5.543c1.33-2.349,4.655-4.04,7.125-5.073L84.13,73.012z"/>
			<path fill="#646464" d="M84.13,73.012c-2.85,0.188-7.505,2.349-7.505,5.543c1.33-2.349,4.655-4.04,7.125-5.073L84.13,73.012
				L84.13,73.012z"/>
		</g>
		<g opacity="0.61" enable-background="new    ">
			<path fill="#FFFFFF" d="M98.76,82.5c2.755-1.503,5.795-1.315,8.075,0.846c-2.47-0.939-5.225-2.067-7.6-0.47L98.76,82.5z"/>
			<path fill="#646464" d="M102.381,81.522c-1.204,0-2.439,0.334-3.621,0.979l0.475,0.376c0.864-0.581,1.779-0.802,2.711-0.802
				c1.631,0,3.317,0.674,4.889,1.271C105.533,82.112,103.984,81.522,102.381,81.522L102.381,81.522z"/>
		</g>
		<g opacity="0.61" enable-background="new    ">
			<path fill="#FFFFFF" d="M46.795,70.005c0.57-2.912,3.515-6.482,6.935-6.107c-3.04,0.47-5.225,3.288-6.745,5.543L46.795,70.005z"
				/>
			<path fill="#646464" d="M53.231,63.871c-3.203,0-5.894,3.364-6.436,6.134l0.19-0.564c1.52-2.255,3.705-5.073,6.745-5.543
				C53.562,63.88,53.396,63.871,53.231,63.871L53.231,63.871z"/>
		</g>
		<g opacity="0.61" enable-background="new    ">
			<path fill="#FFFFFF" d="M71.4,61.738c2.565,0.094,6.745,2.161,7.125,4.697c-1.995-1.221-3.61-3.664-5.51-4.322L71.4,61.738z"/>
			<path fill="#646464" d="M71.4,61.738l1.615,0.376c1.9,0.658,3.515,3.1,5.51,4.322C78.145,63.899,73.965,61.832,71.4,61.738
				L71.4,61.738z"/>
		</g>
		<g opacity="0.61" enable-background="new    ">
			<path fill="#FFFFFF" d="M49.455,80.34c0.38-2.443,2.755-4.791,5.32-4.509c-2.47,0.564-4.37,1.973-5.51,4.322L49.455,80.34z"/>
			<path fill="#646464" d="M54.354,75.807c-2.034,0-3.883,1.599-4.617,3.493c1.161-1.842,2.882-2.978,5.038-3.47
				C54.634,75.815,54.493,75.807,54.354,75.807L54.354,75.807z M49.737,79.3c-0.169,0.269-0.327,0.553-0.472,0.852l0.19,0.188
				C49.51,79.989,49.605,79.64,49.737,79.3L49.737,79.3z"/>
		</g>
		<g opacity="0.61" enable-background="new    ">
			<path fill="#FFFFFF" d="M28.555,84.192c0.095-2.349,2.47-3.946,4.75-3.758c-1.995,0.188-4.18,1.691-4.56,3.758H28.555z"/>
			<path fill="#646464" d="M32.939,80.419c-2.161,0-4.294,1.55-4.384,3.773h0.19c0.38-2.067,2.565-3.57,4.56-3.758
				C33.183,80.424,33.061,80.419,32.939,80.419L32.939,80.419z"/>
		</g>
		<g opacity="0.61" enable-background="new    ">
			<path fill="#FFFFFF" d="M41.095,77.333c1.805-0.188,3.8,0.939,3.99,2.818c-1.235-0.939-1.805-2.161-3.42-2.443L41.095,77.333z"/>
			<path fill="#646464" d="M41.49,77.313c-0.132,0-0.264,0.007-0.395,0.02l0.57,0.376c1.615,0.282,2.185,1.503,3.42,2.443
				C44.909,78.409,43.18,77.313,41.49,77.313L41.49,77.313z"/>
		</g>
		<g opacity="0.61" enable-background="new    ">
			<path fill="#FFFFFF" d="M40.145,89.265c2.85-3.194,13.585-6.107,16.055-1.221c-3.895-3.382-11.875-1.691-15.865,1.409
				L40.145,89.265z"/>
			<path fill="#646464" d="M50.603,85.439c-3.963,0-8.704,1.859-10.458,3.825l0.19,0.188c2.444-1.899,6.384-3.269,9.965-3.269
				c2.267,0,4.39,0.549,5.9,1.86C55.25,86.165,53.079,85.439,50.603,85.439L50.603,85.439z"/>
		</g>
		<g opacity="0.61" enable-background="new    ">
			<path fill="#FFFFFF" d="M67.22,86.634c2.28-2.443,7.6-4.04,10.165-1.409c-3.04-1.221-6.84-0.939-9.5,0.846L67.22,86.634z"/>
			<path fill="#646464" d="M73.767,83.87c-2.418,0-5.097,1.211-6.547,2.764l0.665-0.564c1.579-1.06,3.561-1.59,5.546-1.59
				c1.358,0,2.719,0.248,3.954,0.744C76.451,84.267,75.152,83.87,73.767,83.87L73.767,83.87z"/>
		</g>
	</g>
</g>
</svg>
