<?xml version="1.0" encoding="utf-8"?>
<!-- Generator: Adobe Illustrator 19.2.1, SVG Export Plug-In . SVG Version: 6.00 Build 0)  -->
<svg version="1.1" id="Слой_1" xmlns="http://www.w3.org/2000/svg" xmlns:xlink="http://www.w3.org/1999/xlink" x="0px" y="0px"
	 viewBox="0 0 120 120" enable-background="new 0 0 120 120" xml:space="preserve">
<g>
	<g>
		<g>
			
				<linearGradient id="SVGID_1_" gradientUnits="userSpaceOnUse" x1="814.6715" y1="2002.192" x2="821.877" y2="2002.192" gradientTransform="matrix(-0.963 1.4058 0.825 0.5651 -836.8715 -2241.8254)">
				<stop  offset="0" style="stop-color:#FFD405"/>
				<stop  offset="1" style="stop-color:#F9AF15"/>
			</linearGradient>
			<polygon fill="url(#SVGID_1_)" points="41.855,50.211 38.435,55.298 25.23,42.438 12.025,29.578 28.65,37.351 45.18,45.125 			
				"/>
			<path fill="#646464" d="M16.962,32.99l11.262,5.266l15.489,7.284l-2.689,4.113l-2.751,4.092L25.928,41.721L16.962,32.99
				 M12.025,29.578l13.205,12.86l13.205,12.86l3.42-5.086l3.325-5.086l-16.53-7.774L12.025,29.578L12.025,29.578z"/>
		</g>
		<g>
			
				<linearGradient id="SVGID_2_" gradientUnits="userSpaceOnUse" x1="1207.5021" y1="1229.6282" x2="1214.7361" y2="1229.6282" gradientTransform="matrix(-0.4241 1.6504 0.9685 0.2489 -654.9862 -2255.7317)">
				<stop  offset="0" style="stop-color:#FFD405"/>
				<stop  offset="1" style="stop-color:#F9AF15"/>
			</linearGradient>
			<polygon fill="url(#SVGID_2_)" points="39.765,53.666 38.15,59.712 21.525,52.131 4.805,44.549 22.95,46.084 41.19,47.716 			"/>
			<path fill="#646464" d="M10.503,46.035l12.358,1.046l17.087,1.528l-1.149,4.799l-1.31,4.904L21.938,51.22L10.503,46.035
				 M4.805,44.549l16.72,7.582l16.625,7.582l1.615-6.046l1.425-5.95l-18.24-1.631L4.805,44.549L4.805,44.549z"/>
		</g>
		<g>
			
				<linearGradient id="SVGID_3_" gradientUnits="userSpaceOnUse" x1="1420.8917" y1="275.236" x2="1428.1311" y2="275.236" gradientTransform="matrix(0.1659 1.696 0.9952 -0.0974 -489.3235 -2329.7432)">
				<stop  offset="0" style="stop-color:#FFD405"/>
				<stop  offset="1" style="stop-color:#F9AF15"/>
			</linearGradient>
			<polygon fill="url(#SVGID_3_)" points="38.815,57.601 39.385,63.839 21.24,62.495 3,61.248 20.67,56.449 38.245,51.555 			"/>
			<path fill="#646464" d="M37.362,52.839l0.458,4.853l0.463,5.063l-16.974-1.257L8.996,60.655l11.942-3.243L37.362,52.839
				 M38.245,51.555L20.67,56.449L3,61.248l18.24,1.248l18.145,1.344l-0.57-6.238L38.245,51.555L38.245,51.555z"/>
		</g>
		<g>
			
				<linearGradient id="SVGID_4_" gradientUnits="userSpaceOnUse" x1="1430.7562" y1="-747.1525" x2="1437.9742" y2="-747.1525" gradientTransform="matrix(0.736 1.5369 0.9019 -0.4319 -358.6608 -2457.6572)">
				<stop  offset="0" style="stop-color:#FFD405"/>
				<stop  offset="1" style="stop-color:#F9AF15"/>
			</linearGradient>
			<polygon fill="url(#SVGID_4_)" points="39.385,61.727 42.045,67.198 24.565,72.476 6.99,77.562 21.905,66.814 36.82,56.161 			
				"/>
			<path fill="#646464" d="M36.418,57.677l2.068,4.487l2.147,4.415l-16.345,4.936l-12.025,3.48l10.224-7.368L36.418,57.677
				 M36.82,56.161L21.905,66.814L6.99,77.562l17.575-5.086l17.48-5.278l-2.66-5.47L36.82,56.161L36.82,56.161z"/>
		</g>
		<g>
			
				<linearGradient id="SVGID_5_" gradientUnits="userSpaceOnUse" x1="1234.5651" y1="-1728.9517" x2="1241.7662" y2="-1728.9517" gradientTransform="matrix(1.2173 1.1925 0.6998 -0.7143 -279.4906 -2621.915)">
				<stop  offset="0" style="stop-color:#FFD405"/>
				<stop  offset="1" style="stop-color:#F9AF15"/>
			</linearGradient>
			<path fill="url(#SVGID_5_)" d="M18.96,87.351l-2.755,4.031l3.42-2.591C19.435,88.407,19.15,87.831,18.96,87.351z"/>
			<path fill="#646464" d="M18.96,87.351l-2.755,4.031l3.42-2.591C19.435,88.407,19.15,87.831,18.96,87.351L18.96,87.351z"/>
		</g>
		<g>
			
				<linearGradient id="SVGID_6_" gradientUnits="userSpaceOnUse" x1="1234.4861" y1="-1706.34" x2="1241.6755" y2="-1706.34" gradientTransform="matrix(1.2173 1.1925 0.6998 -0.7143 -279.4906 -2621.915)">
				<stop  offset="0" style="stop-color:#FFD405"/>
				<stop  offset="1" style="stop-color:#F9AF15"/>
			</linearGradient>
			<path fill="url(#SVGID_6_)" d="M41.38,65.278l-4.275-4.223l-10.45,15.259l-1.9,2.591c1.425,0.768,2.375,2.303,2.565,3.935
				c0,0.096,0.095,0.192,0.095,0.288l3.515-2.591l14.725-10.94L41.38,65.278z"/>
			<path fill="#646464" d="M37.254,62.608l3.416,3.374l3.464,3.5L30.337,79.732l-2.312,1.704c-0.365-1.087-1.013-2.055-1.856-2.768
				l1.311-1.788L37.254,62.608 M37.105,61.056l-10.45,15.259l-1.9,2.591c1.425,0.768,2.375,2.303,2.565,3.935
				c0,0.096,0.095,0.192,0.095,0.288l3.515-2.591l14.725-10.941l-4.275-4.319L37.105,61.056L37.105,61.056z"/>
		</g>
		<g>
			
				<linearGradient id="SVGID_7_" gradientUnits="userSpaceOnUse" x1="856.3563" y1="-2505.5818" x2="863.5139" y2="-2505.5818" gradientTransform="matrix(1.5517 0.7043 0.4133 -0.9106 -261.9508 -2802.551)">
				<stop  offset="0" style="stop-color:#FFD405"/>
				<stop  offset="1" style="stop-color:#F9AF15"/>
			</linearGradient>
			<polygon fill="url(#SVGID_7_)" points="44.325,68.061 49.93,70.653 39.765,86.008 29.505,101.363 34.16,83.417 38.815,65.566 			
				"/>
			<path fill="#646464" d="M39.483,66.967l4.422,2.003l4.548,2.103l-9.52,14.38l-6.977,10.441l3.171-12.225L39.483,66.967
				 M38.815,65.566l-4.655,17.85l-4.655,17.946l10.26-15.355L49.93,70.653l-5.605-2.591L38.815,65.566L38.815,65.566z"/>
		</g>
		<g>
			
				<linearGradient id="SVGID_8_" gradientUnits="userSpaceOnUse" x1="341.5882" y1="-3031.0854" x2="348.7285" y2="-3031.0854" gradientTransform="matrix(1.699 0.1311 0.0769 -0.997 -306.593 -2979.4617)">
				<stop  offset="0" style="stop-color:#FFD405"/>
				<stop  offset="1" style="stop-color:#F9AF15"/>
			</linearGradient>
			<polygon fill="url(#SVGID_8_)" points="48.125,69.597 54.205,70.077 49.835,88.023 45.275,105.969 43.66,87.543 42.045,69.117 
							"/>
			<path fill="#646464" d="M43.144,70.207l4.902,0.387l4.909,0.387l-4.09,16.795l-3.109,12.236l-1.101-12.557L43.144,70.207
				 M42.045,69.117l1.615,18.426l1.615,18.426l4.56-17.946l4.37-17.946l-6.08-0.48L42.045,69.117L42.045,69.117z"/>
		</g>
		<g>
			
				<linearGradient id="SVGID_9_" gradientUnits="userSpaceOnUse" x1="-247.2247" y1="-3224.175" x2="-240.0837" y2="-3224.175" gradientTransform="matrix(1.6414 -0.4579 -0.2687 -0.9632 -409.3059 -3129.8159)">
				<stop  offset="0" style="stop-color:#FFD405"/>
				<stop  offset="1" style="stop-color:#F9AF15"/>
			</linearGradient>
			<polygon fill="url(#SVGID_9_)" points="52.115,69.693 58.1,68.061 60,86.392 61.9,104.914 54.11,88.119 46.32,71.42 			"/>
			<path fill="#646464" d="M57.227,69.336l1.778,17.158l1.291,12.586l-5.28-11.383l-7.3-15.649l4.662-1.39L57.227,69.336
				 M58.1,68.061l-5.985,1.631L46.32,71.42l7.79,16.699l7.79,16.795L60,86.392L58.1,68.061L58.1,68.061z"/>
		</g>
		<g>
			
				<linearGradient id="SVGID_10_" gradientUnits="userSpaceOnUse" x1="-839.3948" y1="-3059.5461" x2="-832.2182" y2="-3059.5461" gradientTransform="matrix(1.3858 -0.9917 -0.5819 -0.8132 -557.4267 -3236.4382)">
				<stop  offset="0" style="stop-color:#FFD405"/>
				<stop  offset="1" style="stop-color:#F9AF15"/>
			</linearGradient>
			<path fill="url(#SVGID_10_)" d="M74.06,91.958l-5.035-10.461L61.14,64.894l-5.035,3.455l-4.94,3.647l12.92,13.052l7.885,7.965
				C72.54,92.534,73.3,92.15,74.06,91.958z"/>
			<path fill="#646464" d="M60.739,66.382l7.384,15.549l4.556,9.465c-0.204,0.095-0.402,0.2-0.593,0.314l-7.291-7.365l-12.107-12.23
				l3.982-2.94L60.739,66.382 M61.14,64.894l-5.035,3.455l-4.94,3.647l12.92,13.052l7.885,7.965c0.57-0.48,1.33-0.864,2.09-1.056
				l-5.035-10.461L61.14,64.894L61.14,64.894z"/>
		</g>
		<g>
			
				<linearGradient id="SVGID_11_" gradientUnits="userSpaceOnUse" x1="-1363.5378" y1="-2565.4868" x2="-1356.3324" y2="-2565.4868" gradientTransform="matrix(0.963 -1.4058 -0.825 -0.5651 -732.7305 -3285.4382)">
				<stop  offset="0" style="stop-color:#FFD405"/>
				<stop  offset="1" style="stop-color:#F9AF15"/>
			</linearGradient>
			<polygon fill="url(#SVGID_11_)" points="59.24,65.854 62.755,60.768 75.77,73.724 88.975,86.583 72.445,78.714 55.82,70.94 			
				"/>
			<path fill="#646464" d="M62.897,62.321L75.072,74.44l8.874,8.642l-11.077-5.274l-15.567-7.279l2.761-4.107L62.897,62.321
				 M62.755,60.768l-3.515,5.086l-3.42,5.086l16.625,7.774l16.53,7.869L75.77,73.724L62.755,60.768L62.755,60.768z"/>
		</g>
		<g>
			
				<linearGradient id="SVGID_12_" gradientUnits="userSpaceOnUse" x1="-1755.9824" y1="-1793.0554" x2="-1748.7478" y2="-1793.0554" gradientTransform="matrix(0.4241 -1.6504 -0.9685 -0.2489 -914.6132 -3271.5339)">
				<stop  offset="0" style="stop-color:#FFD405"/>
				<stop  offset="1" style="stop-color:#F9AF15"/>
			</linearGradient>
			<polygon fill="url(#SVGID_12_)" points="61.425,62.399 62.85,56.449 79.57,63.935 96.195,71.516 78.05,69.981 59.81,68.349 			
				"/>
			<path fill="#646464" d="M63.542,57.854l15.613,6.99l11.379,5.189l-12.395-1.049L61.088,67.46l1.31-4.827L63.542,57.854
				 M62.85,56.449l-1.425,5.95l-1.615,5.95l18.24,1.631l18.145,1.536L79.57,63.935L62.85,56.449L62.85,56.449z"/>
		</g>
		<g>
			
				<linearGradient id="SVGID_13_" gradientUnits="userSpaceOnUse" x1="-1970.4617" y1="-838.0894" x2="-1963.2261" y2="-838.0894" gradientTransform="matrix(-0.1659 -1.696 -0.9952 0.0974 -1080.2761 -3197.5225)">
				<stop  offset="0" style="stop-color:#FFD405"/>
				<stop  offset="1" style="stop-color:#F9AF15"/>
			</linearGradient>
			<polygon fill="url(#SVGID_13_)" points="62.185,58.464 61.615,52.226 79.855,53.57 98,54.818 80.33,59.712 62.85,64.511 			"/>
			<path fill="#646464" d="M62.718,53.31l17.068,1.257L92.1,55.414l-12.034,3.333l-16.349,4.488l-0.535-4.862L62.718,53.31
				 M61.615,52.226l0.57,6.238l0.665,6.046l17.48-4.798L98,54.818L79.855,53.57L61.615,52.226L61.615,52.226z"/>
		</g>
		<g>
			
				<linearGradient id="SVGID_14_" gradientUnits="userSpaceOnUse" x1="-1979.5846" y1="183.4995" x2="-1972.3656" y2="183.4995" gradientTransform="matrix(-0.736 -1.5369 -0.9019 0.4319 -1210.9379 -3069.6104)">
				<stop  offset="0" style="stop-color:#FFD405"/>
				<stop  offset="1" style="stop-color:#F9AF15"/>
			</linearGradient>
			<polygon fill="url(#SVGID_14_)" points="61.615,54.338 59.05,48.868 76.53,43.685 94.105,38.599 79.095,49.251 64.275,59.904 			
				"/>
			<path fill="#646464" d="M88.71,41.201l-10.199,7.238l-13.849,9.955l-2.141-4.481l-2.071-4.417l16.359-4.85L88.71,41.201
				 M94.105,38.599L76.53,43.685l-17.48,5.182l2.565,5.47l2.66,5.566l14.82-10.653L94.105,38.599L94.105,38.599z"/>
		</g>
		<g>
			
				<linearGradient id="SVGID_15_" gradientUnits="userSpaceOnUse" x1="-1783.3783" y1="1148.9773" x2="-1776.1914" y2="1148.9773" gradientTransform="matrix(-1.2173 -1.1925 -0.6998 0.7143 -1290.1091 -2905.3545)">
				<stop  offset="0" style="stop-color:#FFD405"/>
				<stop  offset="1" style="stop-color:#F9AF15"/>
			</linearGradient>
			<polygon fill="url(#SVGID_15_)" points="59.715,50.787 55.345,46.468 70.07,35.528 84.985,24.683 74.44,39.846 64.085,55.01 			
				"/>
			<path fill="#646464" d="M80.782,28.976l-7.168,10.307l-9.687,14.184l-3.51-3.391l-3.541-3.5l13.781-10.239L80.782,28.976
				 M84.985,24.683L70.07,35.528l-14.725,10.94l4.37,4.319l4.37,4.223L74.44,39.846L84.985,24.683L84.985,24.683z"/>
		</g>
		<g>
			
				<linearGradient id="SVGID_16_" gradientUnits="userSpaceOnUse" x1="-1405.1049" y1="1942.675" x2="-1397.9475" y2="1942.675" gradientTransform="matrix(-1.5517 -0.7043 -0.4133 0.9106 -1307.6528 -2724.7166)">
				<stop  offset="0" style="stop-color:#FFD405"/>
				<stop  offset="1" style="stop-color:#F9AF15"/>
			</linearGradient>
			<polygon fill="url(#SVGID_16_)" points="56.675,48.004 50.975,45.413 61.425,30.058 71.59,14.702 66.84,32.649 62.28,50.499 			
				"/>
			<path fill="#646464" d="M69.068,20.324l-3.196,12.077l-4.267,16.702l-4.516-2.01l-4.619-2.1l9.789-14.384L69.068,20.324
				 M71.59,14.702L61.425,30.058l-10.45,15.355l5.7,2.591l5.605,2.495l4.56-17.85L71.59,14.702L71.59,14.702z"/>
		</g>
		<g>
			
				<linearGradient id="SVGID_17_" gradientUnits="userSpaceOnUse" x1="-890.5844" y1="2467.1592" x2="-883.4445" y2="2467.1592" gradientTransform="matrix(-1.699 -0.1311 -0.0769 0.997 -1263.0085 -2547.8069)">
				<stop  offset="0" style="stop-color:#FFD405"/>
				<stop  offset="1" style="stop-color:#F9AF15"/>
			</linearGradient>
			<polygon fill="url(#SVGID_17_)" points="52.78,46.468 46.795,45.988 51.26,28.042 55.725,10 57.34,28.522 59.05,46.948 			"/>
			<path fill="#646464" d="M55.251,16.078l1.093,12.537l1.601,17.246l-5.085-0.389l-4.81-0.386l4.181-16.803L55.251,16.078
				 M55.725,10L51.26,28.042l-4.465,17.946l5.985,0.48l6.27,0.48l-1.71-18.426L55.725,10L55.725,10z"/>
		</g>
		<g>
			
				<linearGradient id="SVGID_18_" gradientUnits="userSpaceOnUse" x1="-301.6975" y1="2660.6543" x2="-294.5564" y2="2660.6543" gradientTransform="matrix(-1.6414 0.4579 0.2687 0.9632 -1160.2986 -2397.4526)">
				<stop  offset="0" style="stop-color:#FFD405"/>
				<stop  offset="1" style="stop-color:#F9AF15"/>
			</linearGradient>
			<polygon fill="url(#SVGID_18_)" points="48.79,46.372 42.995,48.004 41.095,29.674 39.195,11.152 46.89,27.946 54.775,44.645 			
				"/>
			<path fill="#646464" d="M40.808,17.072l5.178,11.302l7.383,15.637l-4.85,1.4l-4.652,1.31L42.09,29.572L40.808,17.072
				 M39.195,11.152l1.9,18.522l1.9,18.33l5.795-1.631l5.985-1.727L46.89,27.946L39.195,11.152L39.195,11.152z"/>
		</g>
		<g>
			
				<linearGradient id="SVGID_19_" gradientUnits="userSpaceOnUse" x1="290.4447" y1="2498.8535" x2="297.6176" y2="2498.8535" gradientTransform="matrix(-1.3858 0.9917 0.5819 0.8132 -1012.1753 -2290.8274)">
				<stop  offset="0" style="stop-color:#FFD405"/>
				<stop  offset="1" style="stop-color:#F9AF15"/>
			</linearGradient>
			<polygon fill="url(#SVGID_19_)" points="44.99,47.716 40.05,51.171 32.07,34.568 23.995,17.869 36.915,31.017 49.93,44.069 			
				"/>
			<path fill="#646464" d="M27.54,22.904l8.667,8.819l12.196,12.23l-3.986,2.943l-3.975,2.78L32.97,34.133L27.54,22.904
				 M23.995,17.869l8.075,16.699l7.98,16.603l4.94-3.455l4.94-3.647L36.915,31.017L23.995,17.869L23.995,17.869z"/>
		</g>
		<g>
			
				<linearGradient id="SVGID_20_" gradientUnits="userSpaceOnUse" x1="561.1907" y1="-3123.5713" x2="536.5502" y2="-3078.8164" gradientTransform="matrix(1 0 0 -1 -497.3008 -3042.7998)">
				<stop  offset="0" style="stop-color:#FFD405"/>
				<stop  offset="1" style="stop-color:#F9AF15"/>
			</linearGradient>
			<ellipse fill="url(#SVGID_20_)" cx="51.45" cy="58.177" rx="25.84" ry="26.2"/>
		</g>
		<g opacity="0.44" enable-background="new    ">
			
				<linearGradient id="SVGID_21_" gradientUnits="userSpaceOnUse" x1="542.3658" y1="-3085.9863" x2="568.8203" y2="-3085.9863" gradientTransform="matrix(1 0 0 -1 -497.3008 -3042.7998)">
				<stop  offset="0" style="stop-color:#F4EA66"/>
				<stop  offset="1" style="stop-color:#FDF8CC"/>
			</linearGradient>
			<path fill="url(#SVGID_21_)" d="M45.465,37.927c-1.995,4.319,4.465,6.334,11.495,9.693s12.065,6.91,14.06,2.591
				S68.93,39.75,61.9,36.296C54.775,32.937,47.46,33.608,45.465,37.927z"/>
		</g>
	</g>
	<g>
		<g opacity="0.9" enable-background="new    ">
			
				<linearGradient id="SVGID_22_" gradientUnits="userSpaceOnUse" x1="325.3406" y1="2226.8843" x2="325.3406" y2="2175.8481" gradientTransform="matrix(1 0 0 1 -259.6406 -2128.8398)">
				<stop  offset="0" style="stop-color:#066CAA"/>
				<stop  offset="0.1286" style="stop-color:#037BB6"/>
				<stop  offset="0.263" style="stop-color:#008FC7"/>
				<stop  offset="0.4083" style="stop-color:#39A6D1"/>
				<stop  offset="0.5506" style="stop-color:#6AB9D9"/>
				<stop  offset="0.6844" style="stop-color:#90C8E0"/>
				<stop  offset="0.8077" style="stop-color:#ABD2E4"/>
				<stop  offset="0.9167" style="stop-color:#BBD9E7"/>
				<stop  offset="1" style="stop-color:#C1DBE8"/>
			</linearGradient>
			<path fill="url(#SVGID_22_)" d="M117,79.386c0-6.43-5.89-11.516-13.015-11.516c-1.52,0-2.945,0.192-4.18,0.672
				c-0.855-4.127-5.32-7.39-10.64-7.39c-0.855,0-1.615,0.096-2.375,0.192c0.665-1.056,0.95-2.111,0.95-3.263
				c0-5.95-8.645-10.845-19.285-10.845S49.17,52.035,49.17,58.081c0,0.768,0.095,1.536,0.285,2.111
				c-2.28,1.152-3.705,2.687-3.895,4.415c-6.46,0.384-11.59,2.975-11.59,6.046c0,0.384,0.095,0.864,0.19,1.152
				c-4.085,0.96-7.41,2.303-9.215,3.935c-0.285,0-0.665,0-0.95,0c-5.225,0-9.595,2.399-9.595,5.374c0,2.879,4.085,5.182,9.215,5.182
				c0,0.192-0.095,0.384-0.095,0.672c0,2.879,5.13,5.086,11.495,5.086c1.33,0,2.565-0.096,3.8-0.288
				C41.285,95.413,50.31,98.1,60.95,98.1c7.98,0,15.01-1.536,19.095-3.839c2.85,1.919,6.84,3.071,11.495,3.071
				c7.03,0,13.015-2.879,14.63-6.622C112.345,89.846,117,85.144,117,79.386z"/>
			<path fill="#646464" d="M68.455,48.236c9.911,0,18.285,4.508,18.285,9.845c0,1-0.253,1.868-0.796,2.73l-1.128,1.79l2.099-0.265
				c0.75-0.095,1.458-0.184,2.25-0.184c4.729,0,8.882,2.834,9.661,6.593l0.24,1.157l1.102-0.428
				c1.031-0.401,2.316-0.604,3.818-0.604c6.625,0,12.015,4.718,12.015,10.516c0,5.18-4.192,9.526-9.969,10.334l-0.557,0.078
				l-0.223,0.516c-1.505,3.487-7.271,6.018-13.712,6.018c-4.275,0-8.159-1.03-10.936-2.9l-0.512-0.345l-0.538,0.303
				c-4.12,2.323-11.075,3.71-18.604,3.71c-11.367,0-19.323-2.965-21.307-5.895l-0.355-0.525l-0.626,0.097
				c-1.195,0.186-2.388,0.276-3.646,0.276c-6.185,0-10.495-2.154-10.495-4.086c0-0.046,0.011-0.099,0.031-0.187
				c0.027-0.122,0.064-0.289,0.064-0.485v-1h-1c-4.453,0-8.215-1.915-8.215-4.182c0-2.33,4.016-4.374,8.595-4.374h0.95h0.385
				l0.286-0.258c1.583-1.431,4.699-2.746,8.773-3.703l1.063-0.25l-0.342-1.037c-0.069-0.208-0.14-0.578-0.14-0.838
				c0-2.132,4.279-4.669,10.649-5.048l0.842-0.05l0.092-0.839c0.146-1.323,1.336-2.613,3.352-3.631l0.769-0.388l-0.27-0.818
				c-0.149-0.452-0.235-1.107-0.235-1.798C50.17,52.652,58.373,48.236,68.455,48.236 M68.455,47.236
				c-10.64,0-19.285,4.798-19.285,10.845c0,0.768,0.095,1.536,0.285,2.111c-2.28,1.152-3.705,2.687-3.895,4.415
				c-6.46,0.384-11.59,2.975-11.59,6.046c0,0.384,0.095,0.864,0.19,1.152c-4.085,0.96-7.41,2.303-9.215,3.935
				c-0.285,0-0.665,0-0.95,0c-5.225,0-9.595,2.399-9.595,5.374c0,2.879,4.085,5.182,9.215,5.182c0,0.192-0.095,0.384-0.095,0.672
				c0,2.879,5.13,5.086,11.495,5.086c1.33,0,2.565-0.096,3.8-0.288C41.285,95.413,50.31,98.1,60.95,98.1
				c7.98,0,15.01-1.536,19.095-3.839c2.85,1.919,6.84,3.071,11.495,3.071c7.03,0,13.015-2.879,14.63-6.622
				c6.175-0.864,10.83-5.566,10.83-11.324c0-6.43-5.89-11.516-13.015-11.516c-1.52,0-2.945,0.192-4.18,0.672
				c-0.855-4.127-5.32-7.39-10.64-7.39c-0.855,0-1.615,0.096-2.375,0.192c0.665-1.056,0.95-2.111,0.95-3.263
				C87.74,52.131,79.095,47.236,68.455,47.236L68.455,47.236z"/>
		</g>
		<g opacity="0.61" enable-background="new    ">
			<path fill="#FFFFFF" d="M86.505,62.207c-2.565,0.096-6.935,2.111-6.935,5.086c1.33-2.207,4.37-3.743,6.65-4.702L86.505,62.207z"
				/>
			<path fill="#646464" d="M86.505,62.207c-2.565,0.096-6.935,2.111-6.935,5.086c1.33-2.207,4.37-3.743,6.65-4.702L86.505,62.207
				L86.505,62.207z"/>
		</g>
		<g opacity="0.61" enable-background="new    ">
			<path fill="#FFFFFF" d="M100.09,70.94c2.47-1.344,5.415-1.152,7.505,0.864c-2.28-0.864-4.845-1.919-7.03-0.576L100.09,70.94z"/>
			<path fill="#646464" d="M103.362,70.082c-1.109,0-2.233,0.294-3.272,0.859l0.475,0.288c0.751-0.462,1.547-0.64,2.362-0.64
				c1.554,0,3.172,0.649,4.668,1.216C106.385,70.637,104.888,70.081,103.362,70.082L103.362,70.082z"/>
		</g>
		<g opacity="0.61" enable-background="new    ">
			<path fill="#FFFFFF" d="M51.925,59.424c0.57-2.783,3.23-5.95,6.365-5.566c-2.85,0.384-4.845,2.975-6.175,5.086L51.925,59.424z"/>
			<path fill="#646464" d="M57.77,53.826c-2.905,0-5.307,2.97-5.845,5.598l0.19-0.48c1.33-2.111,3.325-4.702,6.175-5.086
				C58.115,53.837,57.942,53.826,57.77,53.826L57.77,53.826z"/>
		</g>
		<g opacity="0.61" enable-background="new    ">
			<path fill="#FFFFFF" d="M74.535,51.843c2.28,0.096,6.175,1.919,6.46,4.415c-1.995-1.056-3.325-3.263-5.13-4.031L74.535,51.843z"
				/>
			<path fill="#646464" d="M74.535,51.843l1.33,0.384c1.805,0.768,3.135,2.975,5.13,4.031C80.71,53.762,76.815,51.939,74.535,51.843
				L74.535,51.843z"/>
		</g>
		<g opacity="0.61" enable-background="new    ">
			<path fill="#FFFFFF" d="M54.3,68.925c0.285-2.207,2.47-4.415,4.94-4.127c-2.28,0.576-4.085,1.823-5.13,3.935L54.3,68.925z"/>
			<path fill="#646464" d="M58.803,64.773c-1.939,0-3.635,1.493-4.269,3.213c1.077-1.664,2.709-2.684,4.706-3.188
				C59.093,64.781,58.947,64.773,58.803,64.773L58.803,64.773z M54.534,67.986c-0.153,0.236-0.294,0.485-0.424,0.747l0.19,0.192
				C54.341,68.61,54.42,68.294,54.534,67.986L54.534,67.986z"/>
		</g>
		<g opacity="0.61" enable-background="new    ">
			<path fill="#FFFFFF" d="M34.92,72.572c0.095-2.111,2.28-3.647,4.465-3.455C37.39,69.309,35.49,70.653,34.92,72.572L34.92,72.572z
				"/>
			<path fill="#646464" d="M39.014,69.101c-2.055,0-4.005,1.479-4.094,3.471c0.57-1.919,2.47-3.263,4.465-3.455
				C39.261,69.106,39.138,69.101,39.014,69.101L39.014,69.101z"/>
		</g>
		<g opacity="0.61" enable-background="new    ">
			<path fill="#FFFFFF" d="M46.605,66.142c1.71-0.192,3.42,0.96,3.705,2.687c-1.235-0.864-1.71-2.015-3.135-2.303L46.605,66.142z"/>
			<path fill="#646464" d="M46.979,66.121c-0.124,0-0.249,0.007-0.374,0.021l0.57,0.384c1.425,0.288,1.9,1.44,3.135,2.303
				C50.046,67.228,48.557,66.121,46.979,66.121L46.979,66.121z"/>
		</g>
		<g opacity="0.61" enable-background="new    ">
			<path fill="#FFFFFF" d="M45.655,77.179c2.565-2.879,12.635-5.662,14.82-1.056c-3.61-3.071-11.02-1.536-14.725,1.248
				L45.655,77.179z"/>
			<path fill="#646464" d="M55.328,73.672c-3.676,0-8.095,1.735-9.673,3.506l0.095,0.192c2.267-1.703,5.919-2.938,9.24-2.938
				c2.108,0,4.083,0.498,5.485,1.69C59.634,74.35,57.627,73.672,55.328,73.672L55.328,73.672z"/>
		</g>
		<g opacity="0.61" enable-background="new    ">
			<path fill="#FFFFFF" d="M70.735,74.779c2.09-2.303,7.03-3.647,9.405-1.248c-2.85-1.056-6.365-0.96-8.74,0.864L70.735,74.779z"/>
			<path fill="#646464" d="M76.704,72.265c-2.219,0-4.656,1.068-5.969,2.515l0.665-0.384c1.389-1.066,3.167-1.542,4.975-1.542
				c1.283,0,2.582,0.24,3.765,0.678C79.256,72.639,78.019,72.265,76.704,72.265L76.704,72.265z"/>
		</g>
	</g>
	<g>
		<g opacity="0.9" enable-background="new    ">
			
				<linearGradient id="SVGID_23_" gradientUnits="userSpaceOnUse" x1="298.4081" y1="2238.9197" x2="298.4081" y2="2202.7988" gradientTransform="matrix(1 0 0 1 -259.6406 -2128.8398)">
				<stop  offset="0" style="stop-color:#066CAA"/>
				<stop  offset="0.1101" style="stop-color:#037BB6"/>
				<stop  offset="0.2253" style="stop-color:#008FC7"/>
				<stop  offset="0.3252" style="stop-color:#249DCD"/>
				<stop  offset="0.4966" style="stop-color:#5BB3D7"/>
				<stop  offset="0.6559" style="stop-color:#87C4DE"/>
				<stop  offset="0.7979" style="stop-color:#A7D1E4"/>
				<stop  offset="0.9174" style="stop-color:#BAD8E7"/>
				<stop  offset="1" style="stop-color:#C1DBE8"/>
			</linearGradient>
			<path fill="url(#SVGID_23_)" d="M62.185,90.518c-2.375,0-4.56,0.48-6.46,1.344c0.095-0.384,0.095-0.864,0.095-1.248
				c0-4.511-4.465-8.157-9.975-8.157c0,0,0,0-0.095,0c-0.855-4.798-5.51-8.445-11.21-8.445c-6.27,0-11.305,4.511-11.305,10.077
				c0,0.864,0.095,1.631,0.38,2.399c-5.89,0-10.64,3.263-10.64,7.294c0,0.48,0.095,0.96,0.19,1.344
				c-0.57-0.096-1.235-0.192-1.9-0.192c-4.37,0-7.885,2.111-7.885,4.702s3.515,4.798,7.885,4.798c0.76,0,1.52-0.096,2.185-0.192
				c0.95,1.919,4.37,3.359,8.455,3.359c2.375,0,4.56-0.48,6.175-1.344c3.04,2.207,8.075,3.743,13.775,3.743
				s10.735-1.536,13.775-3.743c1.9,0.864,4.085,1.344,6.46,1.344c6.65,0,12.065-3.839,12.065-8.541
				C74.155,94.357,68.835,90.518,62.185,90.518z"/>
			<path fill="#646464" d="M34.54,75.012c5.138,0,9.439,3.205,10.226,7.621l0.147,0.825h0.838h0.095
				c4.949,0,8.975,3.211,8.975,7.157c0,0.33,0,0.742-0.066,1.007l-0.496,2.006l1.881-0.855c1.83-0.832,3.865-1.254,6.046-1.254
				c6.049,0,10.97,3.383,10.97,7.541c0,4.158-4.964,7.541-11.065,7.541c-2.182,0-4.216-0.422-6.046-1.254l-0.53-0.241l-0.471,0.342
				C51.979,107.672,47.049,109,41.855,109s-10.124-1.328-13.187-3.552l-0.507-0.368l-0.552,0.295
				c-1.478,0.79-3.503,1.225-5.703,1.225c-4.009,0-6.886-1.444-7.559-2.803l-0.322-0.65l-0.717,0.104
				c-0.654,0.094-1.354,0.182-2.042,0.182c-4.057,0-6.885-2.002-6.885-3.798c0-1.788,2.767-3.702,6.885-3.702
				c0.596,0,1.211,0.09,1.734,0.178l1.503,0.253l-0.366-1.479c-0.108-0.437-0.161-0.798-0.161-1.103c0-3.47,4.324-6.294,9.64-6.294
				h1.438l-0.5-1.348c-0.22-0.591-0.317-1.224-0.317-2.051C24.235,79.083,28.858,75.012,34.54,75.012 M34.54,74.012
				c-6.27,0-11.305,4.511-11.305,10.077c0,0.864,0.095,1.631,0.38,2.399c-5.89,0-10.64,3.263-10.64,7.294
				c0,0.48,0.095,0.96,0.19,1.344c-0.57-0.096-1.235-0.192-1.9-0.192c-4.37,0-7.885,2.111-7.885,4.702
				c0,2.591,3.515,4.798,7.885,4.798c0.76,0,1.52-0.096,2.185-0.192c0.95,1.919,4.37,3.359,8.455,3.359
				c2.375,0,4.56-0.48,6.175-1.344c3.04,2.207,8.075,3.743,13.775,3.743s10.735-1.536,13.775-3.743
				c1.9,0.864,4.085,1.344,6.46,1.344c6.65,0,12.065-3.839,12.065-8.541s-5.32-8.541-11.97-8.541c-2.375,0-4.56,0.48-6.46,1.344
				c0.095-0.384,0.095-0.864,0.095-1.248c0-4.511-4.465-8.157-9.975-8.157c0,0,0,0-0.095,0C44.895,77.658,40.24,74.012,34.54,74.012
				L34.54,74.012z"/>
		</g>
		<g opacity="0.61" enable-background="new    ">
			<path fill="#FFFFFF" d="M40.81,84.76c2.565-0.768,6.27,0.384,7.22,2.399c-2.28-1.056-4.465-2.399-7.22-2.111V84.76z"/>
			<path fill="#646464" d="M42.561,84.521c-0.61,0-1.207,0.076-1.751,0.24v0.288c0.257-0.027,0.509-0.04,0.757-0.04
				c2.406,0,4.396,1.194,6.463,2.151C47.282,85.572,44.825,84.521,42.561,84.521L42.561,84.521z"/>
		</g>
		<g opacity="0.61" enable-background="new    ">
			<path fill="#FFFFFF" d="M63.23,94.261c-1.71-1.344-3.99-1.152-6.08-0.288c2.09,0.096,3.99-0.192,5.985,0.48L63.23,94.261z"/>
			<path fill="#646464" d="M60.264,93.289c-1.024,0-2.092,0.262-3.114,0.684c0.386,0.018,0.766,0.022,1.14,0.022
				c0.41,0,0.814-0.006,1.216-0.006c1.218,0,2.405,0.051,3.629,0.463l0.095-0.192C62.356,93.575,61.334,93.289,60.264,93.289
				L60.264,93.289z"/>
		</g>
		<g opacity="0.61" enable-background="new    ">
			<path fill="#FFFFFF" d="M18.865,97.524c2.09-2.015,6.84-1.631,8.455,0.672c-1.995-1.536-6.175-2.207-8.17-0.48L18.865,97.524z"/>
			<path fill="#646464" d="M22.668,96.216c-1.453,0-2.885,0.422-3.803,1.308l0.285,0.192c0.828-0.717,2.033-1.021,3.302-1.021
				c1.787,0,3.701,0.603,4.868,1.501C26.414,96.904,24.523,96.216,22.668,96.216L22.668,96.216z"/>
		</g>
		<g opacity="0.61" enable-background="new    ">
			<path fill="#FFFFFF" d="M27.035,81.689c1.9-1.823,5.89-3.359,8.17-1.344c-3.04,0.096-5.795-0.192-8.36,1.152L27.035,81.689z"/>
			<path fill="#646464" d="M32.476,79.393c-1.657,0-3.447,0.75-4.729,1.699c2.307-0.877,4.771-0.661,7.458-0.746
				C34.44,79.669,33.483,79.393,32.476,79.393L32.476,79.393z M27.747,81.092c-0.303,0.115-0.604,0.249-0.902,0.405l0.19,0.192
				C27.248,81.485,27.487,81.284,27.747,81.092L27.747,81.092z"/>
		</g>
		<g opacity="0.61" enable-background="new    ">
			<path fill="#FFFFFF" d="M21.525,92.054c1.805-2.783,6.745-4.319,10.165-3.071c-2.945,0.672-6.65,0.48-9.025,2.495L21.525,92.054z
				"/>
			<path fill="#646464" d="M29.029,88.544c-2.95,0-6.132,1.395-7.504,3.51l1.14-0.576c2.375-2.015,6.08-1.823,9.025-2.495
				C30.869,88.683,29.961,88.544,29.029,88.544L29.029,88.544z"/>
		</g>
		<g opacity="0.61" enable-background="new    ">
			<path fill="#FFFFFF" d="M38.625,92.821c0.855-1.44,3.705-2.591,5.795-1.727c0.19,0,0.19,0,0,0
				c-1.9,0.384-3.895,0.864-5.605,1.727H38.625L38.625,92.821z"/>
			<path fill="#646464" d="M42.831,90.797c-1.748,0-3.555,0.929-4.206,2.025h0.19c1.71-0.864,3.705-1.344,5.605-1.727
				c0.095,0,0.142,0,0.142,0s-0.048,0-0.142,0C43.921,90.888,43.379,90.797,42.831,90.797L42.831,90.797z"/>
		</g>
	</g>
</g>
</svg>
