<?xml version="1.0" encoding="utf-8"?>
<!-- Generator: Adobe Illustrator 19.2.1, SVG Export Plug-In . SVG Version: 6.00 Build 0)  -->
<svg version="1.1" id="Слой_1" xmlns="http://www.w3.org/2000/svg" xmlns:xlink="http://www.w3.org/1999/xlink" x="0px" y="0px"
	 viewBox="0 0 120 120" enable-background="new 0 0 120 120" xml:space="preserve">
<g>
	<g>
		<g>
			
				<linearGradient id="SVGID_1_" gradientUnits="userSpaceOnUse" x1="154.2041" y1="2455.4504" x2="161.5246" y2="2455.4504" gradientTransform="matrix(-0.963 1.4058 0.825 0.5651 -1846.8298 -1572.259)">
				<stop  offset="0" style="stop-color:#FFD405"/>
				<stop  offset="1" style="stop-color:#F9AF15"/>
			</linearGradient>
			<polygon fill="url(#SVGID_1_)" points="42.158,47.747 38.56,52.706 25.142,39.772 11.626,26.741 28.642,34.618 45.658,42.495 			
				"/>
			<path fill="#646464" d="M16.596,30.144l11.626,5.382l15.956,7.387l-2.83,4.247l-2.922,4.029l-12.59-12.136L16.596,30.144
				 M11.626,26.741l13.516,13.031L38.56,52.706l3.598-4.96l3.5-5.251l-17.016-7.877L11.626,26.741L11.626,26.741z"/>
		</g>
		<g>
			
				<linearGradient id="SVGID_2_" gradientUnits="userSpaceOnUse" x1="542.7489" y1="2080.7217" x2="550.0804" y2="2080.7217" gradientTransform="matrix(-0.4241 1.6504 0.9685 0.2489 -1761.3228 -1373.0802)">
				<stop  offset="0" style="stop-color:#FFD405"/>
				<stop  offset="1" style="stop-color:#F9AF15"/>
			</linearGradient>
			<polygon fill="url(#SVGID_2_)" points="39.921,51.15 38.365,57.18 21.252,49.594 4.236,42.009 22.808,43.565 41.574,45.121 			
				"/>
			<path fill="#646464" d="M10.033,43.498l12.692,1.063l17.566,1.456l-1.338,4.882l-1.261,4.887l-16.032-7.106L10.033,43.498
				 M4.236,42.009l17.016,7.585l17.113,7.585l1.556-6.029l1.653-6.029l-18.766-1.556L4.236,42.009L4.236,42.009z"/>
		</g>
		<g>
			
				<linearGradient id="SVGID_3_" gradientUnits="userSpaceOnUse" x1="831.9737" y1="1502.7035" x2="839.3102" y2="1502.7035" gradientTransform="matrix(0.1659 1.696 0.9952 -0.0974 -1613.3479 -1213.8367)">
				<stop  offset="0" style="stop-color:#FFD405"/>
				<stop  offset="1" style="stop-color:#F9AF15"/>
			</linearGradient>
			<polygon fill="url(#SVGID_3_)" points="39.143,55.332 39.727,61.459 21.058,60.194 2.389,58.93 20.377,53.873 38.56,49.011 			
				"/>
			<path fill="#646464" d="M37.673,50.283l0.475,5.144l0.472,4.955l-17.494-1.185L8.24,58.324l12.396-3.485L37.673,50.283
				 M38.56,49.011l-18.183,4.862L2.389,58.93l18.669,1.264l18.669,1.264l-0.583-6.127L38.56,49.011L38.56,49.011z"/>
		</g>
		<g>
			
				<linearGradient id="SVGID_4_" gradientUnits="userSpaceOnUse" x1="988.587" y1="789.8362" x2="995.9131" y2="789.8362" gradientTransform="matrix(0.736 1.5369 0.9019 -0.4319 -1419.5624 -1116.5435)">
				<stop  offset="0" style="stop-color:#FFD405"/>
				<stop  offset="1" style="stop-color:#F9AF15"/>
			</linearGradient>
			<polygon fill="url(#SVGID_4_)" points="39.727,59.319 42.352,65.057 24.364,70.211 6.473,75.365 21.641,64.473 37.004,53.776 			
				"/>
			<path fill="#646464" d="M36.62,55.262l2.197,4.473l2.142,4.68L24.087,69.25l-12.331,3.552l10.456-7.508L36.62,55.262
				 M37.004,53.776L21.641,64.473L6.473,75.365l17.891-5.154l17.988-5.154l-2.625-5.738L37.004,53.776L37.004,53.776z"/>
		</g>
		<g>
			
				<linearGradient id="SVGID_5_" gradientUnits="userSpaceOnUse" x1="992.3411" y1="36.6481" x2="999.6588" y2="36.6481" gradientTransform="matrix(1.2173 1.1925 0.6998 -0.7143 -1204.0371 -1090.7781)">
				<stop  offset="0" style="stop-color:#FFD405"/>
				<stop  offset="1" style="stop-color:#F9AF15"/>
			</linearGradient>
			<path fill="url(#SVGID_5_)" d="M28.934,79.839l2.042-1.556l15.168-10.989l-4.473-4.279l-4.473-4.473L26.503,74.004l-1.945,2.82
				C26.308,77.505,27.767,78.477,28.934,79.839z"/>
			<path fill="#646464" d="M37.339,60.096l3.641,3.641l3.606,3.45l-14.217,10.3l-1.323,1.008c-0.854-0.84-1.839-1.534-2.979-2.099
				l1.258-1.824L37.339,60.096 M37.199,58.541L26.503,74.004l-1.945,2.82c1.75,0.681,3.209,1.653,4.376,3.015l2.042-1.556
				l15.168-10.989l-4.473-4.279L37.199,58.541L37.199,58.541z"/>
		</g>
		<g>
			
				<linearGradient id="SVGID_6_" gradientUnits="userSpaceOnUse" x1="843.3866" y1="-686.8851" x2="850.6945" y2="-686.8851" gradientTransform="matrix(1.5517 0.7043 0.4133 -0.9106 -993.3736 -1139.45)">
				<stop  offset="0" style="stop-color:#FFD405"/>
				<stop  offset="1" style="stop-color:#F9AF15"/>
			</linearGradient>
			<polygon fill="url(#SVGID_6_)" points="44.686,65.738 50.422,68.363 39.921,83.923 29.517,99.483 34.282,81.394 39.143,63.209 
							"/>
			<path fill="#646464" d="M39.804,64.61l4.465,2.037l4.664,2.135L39.09,83.367l-7.085,10.595l3.242-12.31L39.804,64.61
				 M39.143,63.209l-4.862,18.185l-4.764,18.088l10.404-15.56l10.501-15.56l-5.737-2.626L39.143,63.209L39.143,63.209z"/>
		</g>
		<g>
			
				<linearGradient id="SVGID_7_" gradientUnits="userSpaceOnUse" x1="559.3284" y1="-1274.2445" x2="566.6305" y2="-1274.2445" gradientTransform="matrix(1.699 0.1311 0.0769 -0.997 -811.3759 -1258.4562)">
				<stop  offset="0" style="stop-color:#FFD405"/>
				<stop  offset="1" style="stop-color:#F9AF15"/>
			</linearGradient>
			<polygon fill="url(#SVGID_7_)" points="48.575,67.294 54.701,67.78 50.228,86.062 45.658,104.248 44.102,85.479 42.352,66.905 
							"/>
			<path fill="#646464" d="M43.457,67.976l5.038,0.315l4.954,0.393l-4.192,17.135L46.157,98.16l-1.059-12.775L43.457,67.976
				 M42.352,66.905l1.75,18.574l1.556,18.769l4.57-18.185l4.473-18.283l-6.126-0.486L42.352,66.905L42.352,66.905z"/>
		</g>
		<g>
			
				<linearGradient id="SVGID_8_" gradientUnits="userSpaceOnUse" x1="174.8527" y1="-1659.916" x2="182.1606" y2="-1659.916" gradientTransform="matrix(1.6414 -0.4579 -0.2687 -0.9632 -681.3565 -1431.8706)">
				<stop  offset="0" style="stop-color:#FFD405"/>
				<stop  offset="1" style="stop-color:#F9AF15"/>
			</linearGradient>
			<polygon fill="url(#SVGID_8_)" points="52.659,67.488 58.687,65.738 60.729,84.506 62.577,103.081 54.701,86.062 46.728,69.044 
							"/>
			<path fill="#646464" d="M57.822,67.03l1.912,17.575l1.261,12.677l-5.389-11.644l-7.464-15.931l4.795-1.258L57.822,67.03
				 M58.687,65.738l-6.028,1.75l-5.931,1.556l7.973,17.018l7.876,17.018l-1.847-18.574L58.687,65.738L58.687,65.738z"/>
		</g>
		<g>
			
				<linearGradient id="SVGID_9_" gradientUnits="userSpaceOnUse" x1="-263.9494" y1="-1798.782" x2="-256.6328" y2="-1798.782" gradientTransform="matrix(1.3858 -0.9917 -0.5819 -0.8132 -618.6629 -1639.7844)">
				<stop  offset="0" style="stop-color:#FFD405"/>
				<stop  offset="1" style="stop-color:#F9AF15"/>
			</linearGradient>
			<polygon fill="url(#SVGID_9_)" points="56.548,66.224 61.702,62.431 69.869,79.352 78.037,96.176 64.813,83.048 51.589,69.725 
							"/>
			<path fill="#646464" d="M61.324,63.95l7.645,15.839l5.601,11.537l-9.048-8.982L53.132,69.86l4.009-2.83L61.324,63.95
				 M61.702,62.431l-5.153,3.793l-4.959,3.501l13.224,13.323l13.224,13.128l-8.168-16.824L61.702,62.431L61.702,62.431z"/>
		</g>
		<g>
			
				<linearGradient id="SVGID_10_" gradientUnits="userSpaceOnUse" x1="-704.1508" y1="-1672.8798" x2="-696.8301" y2="-1672.8798" gradientTransform="matrix(0.963 -1.4058 -0.825 -0.5651 -630.4513 -1856.0867)">
				<stop  offset="0" style="stop-color:#FFD405"/>
				<stop  offset="1" style="stop-color:#F9AF15"/>
			</linearGradient>
			<polygon fill="url(#SVGID_10_)" points="59.854,63.598 63.452,58.444 76.87,71.475 90.288,84.506 73.272,76.629 56.451,68.752 
							"/>
			<path fill="#646464" d="M63.599,59.981l12.575,12.212l9.204,8.938l-11.681-5.407l-15.773-7.386l2.751-4.167L63.599,59.981
				 M63.452,58.444l-3.598,5.154l-3.403,5.154l16.821,7.877l17.016,7.877L76.87,71.475L63.452,58.444L63.452,58.444z"/>
		</g>
		<g>
			
				<linearGradient id="SVGID_11_" gradientUnits="userSpaceOnUse" x1="-1092.3247" y1="-1298.437" x2="-1084.9928" y2="-1298.437" gradientTransform="matrix(0.4241 -1.6504 -0.9685 -0.2489 -715.9565 -2055.2656)">
				<stop  offset="0" style="stop-color:#FFD405"/>
				<stop  offset="1" style="stop-color:#F9AF15"/>
			</linearGradient>
			<polygon fill="url(#SVGID_11_)" points="61.993,60 63.549,54.068 80.759,61.653 97.775,69.239 79.106,67.585 60.535,66.029 			
				"/>
			<path fill="#646464" d="M64.219,55.456l16.133,7.111L91.9,67.714l-12.71-1.126L61.781,65.13l1.18-4.877L64.219,55.456
				 M63.549,54.068L61.993,60l-1.459,6.029l18.572,1.556l18.669,1.653l-17.016-7.585L63.549,54.068L63.549,54.068z"/>
		</g>
		<g>
			
				<linearGradient id="SVGID_12_" gradientUnits="userSpaceOnUse" x1="-1382.6853" y1="-719.8483" x2="-1375.3534" y2="-719.8483" gradientTransform="matrix(-0.1659 -1.696 -0.9952 0.0974 -863.9318 -2214.509)">
				<stop  offset="0" style="stop-color:#FFD405"/>
				<stop  offset="1" style="stop-color:#F9AF15"/>
			</linearGradient>
			<polygon fill="url(#SVGID_12_)" points="62.868,56.013 62.285,49.789 80.857,51.053 99.623,52.317 81.537,57.277 63.452,62.139 
							"/>
			<path fill="#646464" d="M63.39,50.867l17.399,1.184l12.864,0.867l-12.376,3.394l-16.943,4.555l-0.471-4.947L63.39,50.867
				 M62.285,49.789l0.583,6.224l0.583,6.127l18.085-4.862l18.086-4.96l-18.766-1.264L62.285,49.789L62.285,49.789z"/>
		</g>
		<g>
			
				<linearGradient id="SVGID_13_" gradientUnits="userSpaceOnUse" x1="-1538.5966" y1="-7.7114" x2="-1531.2716" y2="-7.7114" gradientTransform="matrix(-0.736 -1.5369 -0.9019 0.4319 -1057.7166 -2311.8042)">
				<stop  offset="0" style="stop-color:#FFD405"/>
				<stop  offset="1" style="stop-color:#F9AF15"/>
			</linearGradient>
			<polygon fill="url(#SVGID_13_)" points="62.285,51.928 59.562,46.288 77.551,41.037 95.636,35.883 80.273,46.774 65.008,57.472 
							"/>
			<path fill="#646464" d="M90.292,38.445l-10.593,7.51L65.39,55.982l-2.205-4.489l-2.209-4.577l16.848-4.919L90.292,38.445
				 M95.636,35.883l-18.085,5.154l-17.988,5.251l2.723,5.64l2.723,5.543l15.266-10.697L95.636,35.883L95.636,35.883z"/>
		</g>
		<g>
			
				<linearGradient id="SVGID_14_" gradientUnits="userSpaceOnUse" x1="-1542.4564" y1="752.5833" x2="-1535.1409" y2="752.5833" gradientTransform="matrix(-1.2173 -1.1925 -0.6998 0.7143 -1273.2423 -2337.5715)">
				<stop  offset="0" style="stop-color:#FFD405"/>
				<stop  offset="1" style="stop-color:#F9AF15"/>
			</linearGradient>
			<polygon fill="url(#SVGID_14_)" points="60.243,48.136 55.868,43.857 71.036,32.868 86.107,21.684 75.412,37.147 64.813,52.609 
							"/>
			<path fill="#646464" d="M81.839,26.097l-7.253,10.485l-9.925,14.48l-3.719-3.641l-3.528-3.45l14.217-10.3L81.839,26.097
				 M86.107,21.684L71.036,32.868L55.868,43.857l4.376,4.279l4.57,4.473l10.598-15.462L86.107,21.684L86.107,21.684z"/>
		</g>
		<g>
			
				<linearGradient id="SVGID_15_" gradientUnits="userSpaceOnUse" x1="-1393.3729" y1="1470.1635" x2="-1386.0651" y2="1470.1635" gradientTransform="matrix(-1.5517 -0.7043 -0.4133 0.9106 -1483.9097 -2288.8977)">
				<stop  offset="0" style="stop-color:#FFD405"/>
				<stop  offset="1" style="stop-color:#F9AF15"/>
			</linearGradient>
			<polygon fill="url(#SVGID_15_)" points="57.229,45.413 51.589,42.884 61.993,27.325 72.397,11.668 67.73,29.853 62.868,48.039 
							"/>
			<path fill="#646464" d="M69.96,17.143l-3.196,12.452L62.21,46.629L57.638,44.5l-4.559-2.044l9.748-14.578L69.96,17.143
				 M72.397,11.668L61.993,27.325l-10.404,15.56l5.64,2.528l5.64,2.626l4.862-18.185L72.397,11.668L72.397,11.668z"/>
		</g>
		<g>
			
				<linearGradient id="SVGID_16_" gradientUnits="userSpaceOnUse" x1="-1109.5308" y1="2056.5632" x2="-1102.2289" y2="2056.5632" gradientTransform="matrix(-1.699 -0.1311 -0.0769 0.997 -1665.9054 -2169.8914)">
				<stop  offset="0" style="stop-color:#FFD405"/>
				<stop  offset="1" style="stop-color:#F9AF15"/>
			</linearGradient>
			<polygon fill="url(#SVGID_16_)" points="53.437,43.857 47.214,43.468 51.687,25.283 56.256,7 58.007,25.672 59.562,44.44 			"/>
			<path fill="#646464" d="M55.807,12.921l1.203,12.833l1.457,17.577l-4.968-0.473l-5.028-0.314l4.186-17.019L55.807,12.921
				 M56.257,7l-4.57,18.283l-4.473,18.185l6.223,0.389l6.126,0.583l-1.556-18.769L56.257,7L56.257,7z"/>
		</g>
		<g>
			
				<linearGradient id="SVGID_17_" gradientUnits="userSpaceOnUse" x1="-724.9232" y1="2442.6753" x2="-717.6152" y2="2442.6753" gradientTransform="matrix(-1.6414 0.4579 0.2687 0.9632 -1795.9286 -1996.4795)">
				<stop  offset="0" style="stop-color:#FFD405"/>
				<stop  offset="1" style="stop-color:#F9AF15"/>
			</linearGradient>
			<polygon fill="url(#SVGID_17_)" points="49.256,43.857 43.227,45.413 41.282,26.839 39.435,8.167 47.214,25.185 55.284,42.204 
							"/>
			<path fill="#646464" d="M41.021,14.043l5.289,11.571l7.559,15.941l-4.864,1.334l-4.905,1.266L42.278,26.74L41.021,14.043
				 M39.435,8.167l1.847,18.672l1.945,18.574l6.028-1.556l6.028-1.653l-8.07-17.018L39.435,8.167L39.435,8.167z"/>
		</g>
		<g>
			
				<linearGradient id="SVGID_18_" gradientUnits="userSpaceOnUse" x1="-286.1109" y1="2580.8677" x2="-278.7988" y2="2580.8677" gradientTransform="matrix(-1.3858 0.9917 0.5819 0.8132 -1858.6183 -1788.5632)">
				<stop  offset="0" style="stop-color:#FFD405"/>
				<stop  offset="1" style="stop-color:#F9AF15"/>
			</linearGradient>
			<polygon fill="url(#SVGID_18_)" points="45.366,45.121 40.213,48.719 32.142,31.895 23.975,14.974 37.101,28.297 50.422,41.426 
							"/>
			<path fill="#646464" d="M27.5,19.977l8.899,9.033l12.483,12.303l-4.089,2.989l-4.188,2.924l-7.562-15.765L27.5,19.977
				 M23.975,14.974l8.168,16.921l8.07,16.824l5.153-3.598l5.056-3.695L37.101,28.297L23.975,14.974L23.975,14.974z"/>
		</g>
		<g>
			
				<linearGradient id="SVGID_19_" gradientUnits="userSpaceOnUse" x1="1015.2631" y1="-1398.527" x2="990.2508" y2="-1353.0964" gradientTransform="matrix(1 0 0 -1 -950.6406 -1319.8398)">
				<stop  offset="0" style="stop-color:#FFD405"/>
				<stop  offset="1" style="stop-color:#F9AF15"/>
			</linearGradient>
			<ellipse fill="url(#SVGID_19_)" cx="51.978" cy="55.721" rx="26.448" ry="26.646"/>
		</g>
		<g opacity="0.44" enable-background="new    ">
			
				<linearGradient id="SVGID_20_" gradientUnits="userSpaceOnUse" x1="996.0411" y1="-1360.3859" x2="1023.1299" y2="-1360.3859" gradientTransform="matrix(1 0 0 -1 -950.6406 -1319.8398)">
				<stop  offset="0" style="stop-color:#F4EA66"/>
				<stop  offset="1" style="stop-color:#FDF8CC"/>
			</linearGradient>
			<path fill="url(#SVGID_20_)" d="M45.852,35.202c-2.042,4.279,4.57,6.418,11.863,9.822c7.293,3.404,12.251,7.002,14.293,2.723
				s-2.139-10.6-9.432-14.198C55.381,30.145,47.797,30.826,45.852,35.202z"/>
		</g>
	</g>
	<g>
		<g>
			
				<linearGradient id="SVGID_21_" gradientUnits="userSpaceOnUse" x1="770.4038" y1="1843.3749" x2="770.4038" y2="1791.1844" gradientTransform="matrix(1 0 0 1 -712.9805 -1752.8799)">
				<stop  offset="0" style="stop-color:#066CAA"/>
				<stop  offset="0.1286" style="stop-color:#037BB6"/>
				<stop  offset="0.263" style="stop-color:#008FC7"/>
				<stop  offset="0.3075" style="stop-color:#1095CA"/>
				<stop  offset="0.4908" style="stop-color:#4FAED4"/>
				<stop  offset="0.6582" style="stop-color:#80C1DD"/>
				<stop  offset="0.8041" style="stop-color:#A3CFE3"/>
				<stop  offset="0.923" style="stop-color:#B9D8E7"/>
				<stop  offset="1" style="stop-color:#C1DBE8"/>
			</linearGradient>
			<path fill="url(#SVGID_21_)" d="M112.847,71.281c0-6.613-6.223-11.864-14.002-11.864c-1.556,0-3.111,0.194-4.57,0.681
				c-0.972-4.279-5.737-7.585-11.474-7.585c-0.875,0-1.75,0.097-2.625,0.194c0.583-1.07,1.07-2.237,1.07-3.404
				c0-6.127-9.334-11.086-20.711-11.086c-11.668,0-21.003,4.96-21.003,11.086c0,0.778,0.097,1.459,0.389,2.237
				c-2.431,1.167-4.084,2.723-4.278,4.473c-7.098,0.486-12.446,3.112-12.446,6.224c0,0.486,0.097,0.875,0.194,1.167
				c-4.473,0.875-7.876,2.431-9.918,4.084c-0.389,0-0.681,0-1.07,0C6.667,67.488,2,69.919,2,72.837c0,2.917,4.473,5.251,9.918,5.349
				c0,0.194-0.097,0.486-0.097,0.681c0,2.917,5.542,5.251,12.349,5.251c1.459,0,2.723-0.097,4.084-0.292
				c2.723,3.695,12.446,6.418,23.822,6.418c8.654,0,16.141-1.556,20.614-3.987c3.014,1.945,7.39,3.209,12.349,3.209
				c7.681,0,14.002-2.82,15.849-6.807C107.693,81.978,112.847,77.213,112.847,71.281z"/>
			<path fill="#646464" d="M60.535,39.217c10.684,0,19.711,4.619,19.711,10.086c0,0.81-0.301,1.74-0.948,2.925l-0.919,1.685
				l1.907-0.212c0.872-0.097,1.695-0.188,2.515-0.188c5.103,0,9.617,2.926,10.498,6.807l0.245,1.076l1.047-0.349
				c1.253-0.418,2.684-0.629,4.254-0.629c7.291,0,13.002,4.772,13.002,10.864c0,5.375-4.651,9.742-11.059,10.383l-0.568,0.057
				l-0.24,0.518c-1.699,3.667-7.843,6.228-14.942,6.228c-4.5,0-8.803-1.111-11.807-3.049l-0.499-0.322l-0.521,0.283
				c-4.453,2.421-11.981,3.866-20.136,3.866c-12.203,0-20.816-3.024-23.017-6.012l-0.355-0.481l-0.592,0.085
				c-1.363,0.195-2.579,0.282-3.942,0.282c-6.495,0-11.349-2.245-11.349-4.23c0.005-0.051,0.018-0.108,0.03-0.166
				c0.032-0.159,0.068-0.34,0.068-0.536v-0.982l-0.982-0.018C6.591,77.09,3,74.86,3,72.837c0-2.057,3.862-4.349,9.404-4.349h1.07
				h0.354l0.275-0.223c2.096-1.697,5.552-3.111,9.481-3.88l1.116-0.218l-0.36-1.079c-0.061-0.184-0.143-0.473-0.143-0.851
				c0-2.134,4.402-4.739,11.514-5.226l0.833-0.057l0.092-0.83c0.142-1.274,1.496-2.616,3.717-3.682l0.825-0.396l-0.321-0.857
				c-0.231-0.616-0.325-1.162-0.325-1.886C40.532,43.741,49.505,39.217,60.535,39.217 M60.535,38.217
				c-11.668,0-21.003,4.96-21.003,11.086c0,0.778,0.097,1.459,0.389,2.237c-2.431,1.167-4.084,2.723-4.278,4.473
				c-7.098,0.486-12.446,3.112-12.446,6.224c0,0.486,0.097,0.875,0.194,1.167c-4.473,0.875-7.876,2.431-9.918,4.084
				c-0.389,0-0.681,0-1.07,0C6.667,67.488,2,69.919,2,72.837c0,2.917,4.473,5.251,9.918,5.349c0,0.194-0.097,0.486-0.097,0.681
				c0,2.917,5.542,5.251,12.349,5.251c1.458,0,2.723-0.097,4.084-0.292c2.723,3.695,12.446,6.418,23.822,6.418
				c8.654,0,16.141-1.556,20.614-3.987c3.014,1.945,7.39,3.209,12.349,3.209c7.681,0,14.002-2.82,15.849-6.807
				c6.806-0.681,11.96-5.446,11.96-11.378c0-6.613-6.223-11.864-14.002-11.864c-1.556,0-3.111,0.194-4.57,0.681
				c-0.972-4.279-5.737-7.585-11.474-7.585c-0.875,0-1.75,0.097-2.625,0.194c0.583-1.07,1.07-2.237,1.07-3.404
				C81.246,43.176,71.911,38.217,60.535,38.217L60.535,38.217z"/>
		</g>
		<g opacity="0.61" enable-background="new    ">
			<path fill="#FFFFFF" d="M79.787,53.776c-2.723,0.097-7.39,2.237-7.584,5.251c1.361-2.334,4.667-3.793,7.195-4.668L79.787,53.776z
				"/>
			<path fill="#646464" d="M79.787,53.776c-2.723,0.097-7.39,2.237-7.584,5.251c1.361-2.334,4.667-3.793,7.195-4.668L79.787,53.776
				L79.787,53.776z"/>
		</g>
		<g opacity="0.61" enable-background="new    ">
			<path fill="#FFFFFF" d="M94.469,62.723c2.625-1.459,5.834-1.167,8.07,0.778c-2.431-0.875-5.251-1.945-7.584-0.486L94.469,62.723z
				"/>
			<path fill="#646464" d="M97.984,61.804c-1.198,0-2.408,0.304-3.515,0.919l0.486,0.292c0.834-0.521,1.729-0.719,2.646-0.719
				c1.652,0,3.375,0.643,4.938,1.206C101.246,62.376,99.628,61.804,97.984,61.804L97.984,61.804z"/>
		</g>
		<g opacity="0.61" enable-background="new    ">
			<path fill="#FFFFFF" d="M42.352,50.859c0.583-2.82,3.5-6.127,6.806-5.738c-3.014,0.486-5.251,3.112-6.709,5.251L42.352,50.859z"
				/>
			<path fill="#646464" d="M48.624,45.09c-2.871,0-5.357,2.693-6.13,5.218c1.459-2.127,3.681-4.705,6.665-5.186
				C48.979,45.1,48.801,45.09,48.624,45.09L48.624,45.09z M42.494,50.308c-0.015,0.022-0.03,0.043-0.044,0.065l-0.097,0.486
				C42.39,50.677,42.437,50.493,42.494,50.308L42.494,50.308z"/>
		</g>
		<g opacity="0.61" enable-background="new    ">
			<path fill="#FFFFFF" d="M66.952,43.079c2.528,0.097,6.709,1.945,7.098,4.473c-2.042-1.07-3.598-3.404-5.542-4.182L66.952,43.079z
				"/>
			<path fill="#646464" d="M66.952,43.079l1.556,0.292c1.945,0.778,3.5,3.112,5.542,4.182C73.661,45.024,69.48,43.176,66.952,43.079
				L66.952,43.079z"/>
		</g>
		<g opacity="0.61" enable-background="new    ">
			<path fill="#FFFFFF" d="M44.977,60.681c0.389-2.334,2.625-4.473,5.348-4.279c-2.431,0.583-4.473,1.848-5.542,4.084L44.977,60.681
				z"/>
			<path fill="#646464" d="M49.981,56.39c-2.137,0-3.927,1.427-4.681,3.196c1.145-1.683,2.942-2.683,5.025-3.183
				C50.209,56.394,50.095,56.39,49.981,56.39L49.981,56.39z M45.3,59.585c-0.191,0.281-0.364,0.581-0.517,0.901l0.194,0.194
				C45.04,60.308,45.149,59.939,45.3,59.585L45.3,59.585z"/>
		</g>
		<g opacity="0.61" enable-background="new    ">
			<path fill="#FFFFFF" d="M24.072,64.279c0.097-2.237,2.528-3.695,4.764-3.501c-2.042,0.194-4.181,1.556-4.667,3.501H24.072z"/>
			<path fill="#646464" d="M28.434,60.761c-2.116,0-4.27,1.415-4.362,3.518h0.097c0.486-1.945,2.625-3.306,4.667-3.501
				C28.703,60.766,28.569,60.761,28.434,60.761L28.434,60.761z"/>
		</g>
		<g opacity="0.61" enable-background="new    ">
			<path fill="#FFFFFF" d="M36.615,57.763c1.945-0.194,3.695,0.972,3.987,2.723c-1.167-0.875-1.945-2.042-3.5-2.431L36.615,57.763z"
				/>
			<path fill="#646464" d="M37.037,57.742c-0.139,0-0.28,0.007-0.422,0.021l0.486,0.292c1.556,0.389,2.334,1.556,3.5,2.431
				C40.331,58.863,38.808,57.742,37.037,57.742L37.037,57.742z"/>
		</g>
		<g opacity="0.61" enable-background="new    ">
			<path fill="#FFFFFF" d="M35.643,69.044c2.723-2.917,13.71-5.835,16.044-1.07c-3.987-3.209-11.96-1.556-15.849,1.361
				L35.643,69.044z"/>
			<path fill="#646464" d="M46.133,65.448c-3.996,0-8.812,1.798-10.49,3.596l0.194,0.292c2.393-1.795,6.331-3.111,9.936-3.111
				c2.255,0,4.379,0.515,5.913,1.75C50.791,66.146,48.621,65.448,46.133,65.448L46.133,65.448z"/>
		</g>
		<g opacity="0.61" enable-background="new    ">
			<path fill="#FFFFFF" d="M62.868,66.71c2.236-2.431,7.681-3.695,10.21-1.361c-3.014-1.07-6.806-0.972-9.432,0.875L62.868,66.71z"
				/>
			<path fill="#646464" d="M69.375,64.113c-2.422,0-5.1,1.068-6.507,2.598l0.778-0.486c1.535-1.08,3.469-1.562,5.414-1.562
				c1.381,0,2.766,0.243,4.018,0.687C72.141,64.483,70.802,64.113,69.375,64.113L69.375,64.113z"/>
		</g>
	</g>
	<g>
		<g opacity="0.9" enable-background="new    ">
			
				<linearGradient id="SVGID_22_" gradientUnits="userSpaceOnUse" x1="784.9403" y1="1857.7111" x2="784.9403" y2="1811.2267" gradientTransform="matrix(1 0 0 1 -712.9805 -1752.8799)">
				<stop  offset="0" style="stop-color:#066CAA"/>
				<stop  offset="0.1286" style="stop-color:#037BB6"/>
				<stop  offset="0.263" style="stop-color:#008FC7"/>
				<stop  offset="0.4083" style="stop-color:#39A6D1"/>
				<stop  offset="0.5506" style="stop-color:#6AB9D9"/>
				<stop  offset="0.6844" style="stop-color:#90C8E0"/>
				<stop  offset="0.8077" style="stop-color:#ABD2E4"/>
				<stop  offset="0.9167" style="stop-color:#BBD9E7"/>
				<stop  offset="1" style="stop-color:#C1DBE8"/>
			</linearGradient>
			<path fill="url(#SVGID_22_)" d="M118,87.716c0-5.835-5.251-10.503-11.668-10.503c-1.361,0-2.625,0.194-3.792,0.583
				c-0.778-3.793-4.764-6.71-9.529-6.71c-0.778,0-1.459,0.097-2.139,0.194c0.583-0.972,0.875-1.945,0.875-3.015
				c0-5.446-7.779-9.919-17.308-9.919s-17.308,4.376-17.308,9.919c0,0.681,0.097,1.361,0.292,1.945
				c-2.042,1.07-3.306,2.431-3.5,3.987c-5.834,0.389-10.404,2.723-10.404,5.543c0,0.389,0.097,0.778,0.194,1.07
				c-3.695,0.875-6.612,2.139-8.265,3.598c-0.292,0-0.583,0-0.875,0c-4.764,0-8.654,2.139-8.654,4.862
				c0,2.626,3.695,4.765,8.265,4.862c0,0.194-0.097,0.389-0.097,0.583c0,2.626,4.57,4.668,10.307,4.668
				c1.167,0,2.334-0.097,3.403-0.292c2.236,3.306,10.307,5.738,19.836,5.738c7.195,0,13.516-1.361,17.113-3.501
				c2.528,1.75,6.126,2.82,10.307,2.82c6.32,0,11.668-2.626,13.127-6.029C113.819,97.246,118,92.967,118,87.716z"/>
			<path fill="#646464" d="M74.439,59.347c8.84,0,16.308,4.085,16.308,8.919c0,0.873-0.233,1.667-0.733,2.5l-1.081,1.802l2.08-0.297
				c0.664-0.095,1.291-0.184,1.998-0.184c4.183,0,7.858,2.541,8.549,5.911l0.226,1.104l1.069-0.356
				c1.059-0.353,2.229-0.532,3.476-0.532c5.882,0,10.668,4.263,10.668,9.503c0,4.65-3.774,8.61-8.974,9.417l-0.548,0.085
				l-0.218,0.509c-1.347,3.142-6.481,5.423-12.207,5.423c-3.818,0-7.277-0.938-9.738-2.642l-0.528-0.366l-0.552,0.328
				c-3.538,2.104-9.745,3.36-16.602,3.36c-10.126,0-17.227-2.665-19.007-5.298l-0.365-0.54l-0.642,0.117
				c-0.991,0.18-2.106,0.276-3.224,0.276c-5.485,0-9.307-1.933-9.309-3.627c0.005-0.03,0.014-0.06,0.021-0.091
				c0.033-0.132,0.078-0.314,0.078-0.534v-0.979l-0.979-0.021c-3.95-0.084-7.286-1.853-7.286-3.863c0-2.094,3.505-3.862,7.654-3.862
				h0.875h0.378l0.284-0.25c1.517-1.339,4.3-2.538,7.834-3.375l1.064-0.252l-0.346-1.037c-0.094-0.281-0.143-0.542-0.143-0.754
				c0-1.882,3.621-4.155,9.471-4.545l0.823-0.055l0.102-0.819c0.184-1.475,1.718-2.568,2.972-3.225l0.754-0.395l-0.269-0.807
				c-0.155-0.465-0.24-1.044-0.24-1.629C58.132,63.348,65.447,59.347,74.439,59.347 M74.439,58.347
				c-9.529,0-17.308,4.376-17.308,9.919c0,0.681,0.097,1.361,0.292,1.945c-2.042,1.07-3.306,2.431-3.5,3.987
				c-5.834,0.389-10.404,2.723-10.404,5.543c0,0.389,0.097,0.778,0.194,1.07c-3.695,0.875-6.612,2.139-8.265,3.598
				c-0.292,0-0.583,0-0.875,0c-4.764,0-8.654,2.139-8.654,4.862c0,2.626,3.695,4.765,8.265,4.862c0,0.194-0.097,0.389-0.097,0.583
				c0,2.626,4.57,4.668,10.307,4.668c1.167,0,2.334-0.097,3.403-0.292c2.236,3.306,10.307,5.738,19.836,5.738
				c7.195,0,13.516-1.361,17.113-3.501c2.528,1.75,6.126,2.82,10.307,2.82c6.32,0,11.668-2.626,13.127-6.029
				c5.64-0.875,9.821-5.154,9.821-10.405c0-5.835-5.251-10.503-11.668-10.503c-1.361,0-2.625,0.195-3.792,0.583
				c-0.778-3.793-4.764-6.71-9.529-6.71c-0.778,0-1.459,0.097-2.139,0.194c0.583-0.972,0.875-1.945,0.875-3.015
				C91.747,62.82,83.968,58.347,74.439,58.347L74.439,58.347z"/>
		</g>
		<g opacity="0.61" enable-background="new    ">
			<path fill="#FFFFFF" d="M90.58,72.156c-2.334,0.097-6.223,1.945-6.223,4.668c1.167-2.042,3.889-3.404,5.931-4.279L90.58,72.156z"
				/>
			<path fill="#646464" d="M90.58,72.156c-2.334,0.097-6.223,1.945-6.223,4.668c1.167-2.042,3.889-3.404,5.931-4.279L90.58,72.156
				L90.58,72.156z"/>
		</g>
		<g opacity="0.61" enable-background="new    ">
			<path fill="#FFFFFF" d="M102.832,80.033c2.236-1.264,4.862-1.07,6.709,0.778c-2.042-0.778-4.376-1.75-6.32-0.486L102.832,80.033z
				"/>
			<path fill="#646464" d="M105.779,79.226c-0.993,0-2.005,0.274-2.948,0.807l0.389,0.292c0.678-0.441,1.403-0.61,2.147-0.61
				c1.389,0,2.843,0.589,4.173,1.096C108.472,79.742,107.143,79.226,105.779,79.226L105.779,79.226z"/>
		</g>
		<g opacity="0.61" enable-background="new    ">
			<path fill="#FFFFFF" d="M59.465,69.628c0.486-2.528,2.917-5.446,5.737-5.057c-2.528,0.389-4.376,2.723-5.542,4.668L59.465,69.628
				z"/>
			<path fill="#646464" d="M64.692,64.536c-2.598,0-4.77,2.718-5.226,5.092l0.194-0.389c1.167-1.945,3.014-4.279,5.542-4.668
				C65.03,64.547,64.86,64.536,64.692,64.536L64.692,64.536z"/>
		</g>
		<g opacity="0.61" enable-background="new    ">
			<path fill="#FFFFFF" d="M79.884,62.626c2.042,0.097,5.542,1.75,5.834,3.987c-1.75-0.972-3.014-3.015-4.57-3.695L79.884,62.626z"
				/>
			<path fill="#646464" d="M79.884,62.626l1.264,0.292c1.556,0.681,2.82,2.723,4.57,3.695
				C85.427,64.376,81.926,62.723,79.884,62.626L79.884,62.626z"/>
		</g>
		<g opacity="0.61" enable-background="new    ">
			<path fill="#FFFFFF" d="M61.604,78.283c0.292-2.042,2.236-3.987,4.473-3.793c-2.042,0.486-3.695,1.653-4.57,3.598L61.604,78.283z
				"/>
			<path fill="#646464" d="M65.767,74.476c-1.837,0-3.427,1.417-3.987,3.073c0.923-1.624,2.451-2.62,4.297-3.059
				C65.973,74.481,65.87,74.476,65.767,74.476L65.767,74.476z M61.78,77.549c-0.098,0.173-0.189,0.352-0.273,0.539l0.097,0.194
				C61.64,78.035,61.699,77.79,61.78,77.549L61.78,77.549z"/>
		</g>
		<g opacity="0.61" enable-background="new    ">
			<path fill="#FFFFFF" d="M44.199,81.492c0.097-1.945,2.042-3.306,3.987-3.112C46.436,78.574,44.686,79.741,44.199,81.492
				L44.199,81.492z"/>
			<path fill="#646464" d="M47.815,78.361c-1.814,0-3.524,1.31-3.615,3.13c0.486-1.75,2.236-2.917,3.987-3.112
				C48.062,78.367,47.938,78.361,47.815,78.361L47.815,78.361z"/>
		</g>
		<g opacity="0.61" enable-background="new    ">
			<path fill="#FFFFFF" d="M54.701,75.657c1.556-0.194,3.111,0.875,3.306,2.431c-1.07-0.778-1.556-1.848-2.82-2.139L54.701,75.657z"
				/>
			<path fill="#646464" d="M55.068,75.634c-0.122,0-0.245,0.007-0.367,0.023l0.486,0.292c1.264,0.292,1.75,1.361,2.82,2.139
				C57.828,76.655,56.493,75.634,55.068,75.634L55.068,75.634z"/>
		</g>
		<g opacity="0.61" enable-background="new    ">
			<path fill="#FFFFFF" d="M53.826,85.771c2.334-2.626,11.376-5.154,13.321-0.972c-3.209-2.917-9.918-1.459-13.127,1.07
				L53.826,85.771z"/>
			<path fill="#646464" d="M62.542,82.575c-3.3,0-7.28,1.58-8.716,3.196l0.194,0.097c1.954-1.54,5.205-2.682,8.174-2.682
				c1.907,0,3.698,0.472,4.953,1.613C66.399,83.19,64.603,82.575,62.542,82.575L62.542,82.575z"/>
		</g>
		<g opacity="0.61" enable-background="new    ">
			<path fill="#FFFFFF" d="M76.481,83.631c1.847-2.139,6.32-3.306,8.459-1.167c-2.528-0.972-5.737-0.875-7.876,0.778L76.481,83.631z
				"/>
			<path fill="#646464" d="M81.835,81.329c-2.001,0-4.195,0.96-5.354,2.302l0.583-0.389c1.251-0.967,2.867-1.401,4.499-1.401
				c1.159,0,2.327,0.219,3.377,0.623C84.144,81.667,83.023,81.329,81.835,81.329L81.835,81.329z"/>
		</g>
	</g>
	<g>
		<g opacity="0.9" enable-background="new    ">
			
				<linearGradient id="SVGID_23_" gradientUnits="userSpaceOnUse" x1="751.4918" y1="1866.0275" x2="751.4918" y2="1829.4253" gradientTransform="matrix(1 0 0 1 -712.9805 -1752.8799)">
				<stop  offset="0" style="stop-color:#066CAA"/>
				<stop  offset="0.1101" style="stop-color:#037BB6"/>
				<stop  offset="0.2253" style="stop-color:#008FC7"/>
				<stop  offset="0.3252" style="stop-color:#249DCD"/>
				<stop  offset="0.4966" style="stop-color:#5BB3D7"/>
				<stop  offset="0.6559" style="stop-color:#87C4DE"/>
				<stop  offset="0.7979" style="stop-color:#A7D1E4"/>
				<stop  offset="0.9174" style="stop-color:#BAD8E7"/>
				<stop  offset="1" style="stop-color:#C1DBE8"/>
			</linearGradient>
			<path fill="url(#SVGID_23_)" d="M62.479,93.259c-2.431,0-4.667,0.486-6.612,1.361c0.097-0.389,0.097-0.875,0.097-1.264
				c0-4.571-4.57-8.266-10.21-8.266c0,0,0,0-0.097,0c-0.875-4.862-5.64-8.558-11.474-8.558c-6.417,0-11.571,4.571-11.571,10.211
				c0,0.875,0.097,1.653,0.389,2.431c-6.028,0-10.89,3.306-10.89,7.391c0,0.486,0.097,0.972,0.194,1.361
				c-0.583-0.097-1.264-0.194-1.945-0.194c-4.473,0-8.07,2.139-8.07,4.765c0,2.626,3.598,4.862,8.07,4.862
				c0.778,0,1.556-0.097,2.236-0.194c0.972,1.945,4.473,3.404,8.654,3.404c2.431,0,4.667-0.486,6.32-1.361
				c3.111,2.237,8.265,3.793,14.099,3.793s10.987-1.556,14.099-3.793c1.945,0.875,4.181,1.361,6.612,1.361
				c6.806,0,12.349-3.89,12.349-8.655C74.731,97.149,69.286,93.259,62.479,93.259z"/>
			<path fill="#646464" d="M34.184,77.532c5.271,0,9.683,3.253,10.489,7.735l0.148,0.823h0.836h0.097c5.078,0,9.21,3.26,9.21,7.266
				c0,0.335,0,0.752-0.067,1.022l-0.5,2.001l1.881-0.846c1.877-0.845,3.964-1.273,6.201-1.273c6.204,0,11.251,3.434,11.251,7.655
				s-5.091,7.655-11.349,7.655c-2.238,0-4.324-0.428-6.201-1.273l-0.526-0.237l-0.468,0.337c-3.14,2.257-8.192,3.605-13.515,3.605
				s-10.375-1.348-13.515-3.605l-0.504-0.362l-0.548,0.29c-1.517,0.803-3.595,1.245-5.852,1.245c-4.114,0-7.068-1.469-7.759-2.851
				l-0.322-0.645l-0.714,0.102c-0.67,0.096-1.388,0.184-2.095,0.184c-4.167,0-7.07-2.036-7.07-3.862c0-1.818,2.841-3.765,7.07-3.765
				c0.613,0,1.244,0.091,1.78,0.181l1.504,0.251l-0.37-1.48c-0.111-0.443-0.165-0.809-0.165-1.119c0-3.524,4.437-6.391,9.89-6.391
				h1.443l-0.507-1.351c-0.225-0.6-0.325-1.242-0.325-2.08C23.614,81.664,28.356,77.532,34.184,77.532 M34.184,76.532
				c-6.417,0-11.571,4.571-11.571,10.211c0,0.875,0.097,1.653,0.389,2.431c-6.029,0-10.89,3.306-10.89,7.391
				c0,0.486,0.097,0.972,0.194,1.361c-0.583-0.097-1.264-0.194-1.945-0.194c-4.473,0-8.07,2.139-8.07,4.765
				c0,2.626,3.598,4.862,8.07,4.862c0.778,0,1.556-0.097,2.236-0.194c0.972,1.945,4.473,3.404,8.654,3.404
				c2.431,0,4.667-0.486,6.32-1.361c3.111,2.237,8.265,3.793,14.099,3.793s10.987-1.556,14.099-3.793
				c1.945,0.875,4.181,1.361,6.612,1.361c6.806,0,12.349-3.89,12.349-8.655c0-4.765-5.445-8.655-12.251-8.655
				c-2.431,0-4.667,0.486-6.612,1.361c0.097-0.389,0.097-0.875,0.097-1.264c0-4.571-4.57-8.266-10.21-8.266c0,0,0,0-0.097,0
				C44.783,80.228,40.018,76.532,34.184,76.532L34.184,76.532z"/>
		</g>
		<g opacity="0.61" enable-background="new    ">
			<path fill="#FFFFFF" d="M40.505,87.521c2.625-0.778,6.417,0.389,7.39,2.431c-2.334-1.07-4.57-2.431-7.39-2.139V87.521z"/>
			<path fill="#646464" d="M42.297,87.278c-0.625,0-1.235,0.077-1.793,0.243v0.292c0.263-0.027,0.521-0.04,0.775-0.04
				c2.463,0,4.499,1.21,6.615,2.18C47.129,88.344,44.614,87.278,42.297,87.278L42.297,87.278z"/>
		</g>
		<g opacity="0.61" enable-background="new    ">
			<path fill="#FFFFFF" d="M63.549,97.149c-1.75-1.361-4.084-1.167-6.223-0.292c2.139,0.097,4.084-0.194,6.126,0.486L63.549,97.149z
				"/>
			<path fill="#646464" d="M60.513,96.164c-1.048,0-2.141,0.265-3.187,0.693c0.395,0.018,0.784,0.023,1.167,0.023
				c0.42,0,0.834-0.006,1.244-0.006c1.246,0,2.462,0.052,3.714,0.469l0.097-0.194C62.655,96.453,61.608,96.164,60.513,96.164
				L60.513,96.164z"/>
		</g>
		<g opacity="0.61" enable-background="new    ">
			<path fill="#FFFFFF" d="M18.044,100.455c2.139-2.042,7.001-1.653,8.654,0.681c-2.042-1.556-6.32-2.237-8.362-0.486
				L18.044,100.455z"/>
			<path fill="#646464" d="M21.936,99.13c-1.488,0-2.953,0.428-3.893,1.325l0.292,0.195c0.848-0.727,2.081-1.034,3.379-1.034
				c1.829,0,3.789,0.611,4.983,1.521C25.771,99.827,23.835,99.13,21.936,99.13L21.936,99.13z"/>
		</g>
		<g opacity="0.61" enable-background="new    ">
			<path fill="#FFFFFF" d="M26.406,84.409c1.945-1.848,6.029-3.404,8.362-1.361c-3.111,0.097-5.931-0.194-8.557,1.167L26.406,84.409
				z"/>
			<path fill="#646464" d="M31.975,82.082c-1.696,0-3.528,0.76-4.841,1.722c2.361-0.888,4.883-0.67,7.634-0.756
				C33.985,82.363,33.005,82.082,31.975,82.082L31.975,82.082z M27.134,83.804c-0.31,0.117-0.618,0.253-0.923,0.411l0.194,0.194
				C26.624,84.202,26.868,83.999,27.134,83.804L27.134,83.804z"/>
		</g>
		<g opacity="0.61" enable-background="new    ">
			<path fill="#FFFFFF" d="M20.766,94.912c1.847-2.82,6.904-4.376,10.404-3.112c-3.014,0.681-6.806,0.486-9.237,2.528L20.766,94.912
				z"/>
			<path fill="#646464" d="M28.447,91.356c-3.019,0-6.276,1.413-7.68,3.556l1.167-0.583c2.431-2.042,6.223-1.848,9.237-2.528
				C30.33,91.497,29.4,91.356,28.447,91.356L28.447,91.356z"/>
		</g>
		<g opacity="0.61" enable-background="new    ">
			<path fill="#FFFFFF" d="M38.268,95.69c0.875-1.459,3.792-2.626,5.931-1.75c0.194,0,0.194,0,0,0
				c-1.945,0.389-3.987,0.875-5.737,1.75H38.268L38.268,95.69z"/>
			<path fill="#646464" d="M42.573,93.638c-1.789,0-3.639,0.941-4.305,2.052h0.194c1.75-0.875,3.792-1.361,5.737-1.75
				c0.097,0,0.146,0,0.146,0s-0.049,0-0.146,0C43.689,93.731,43.134,93.638,42.573,93.638L42.573,93.638z"/>
		</g>
	</g>
</g>
</svg>
