<?xml version="1.0" encoding="utf-8"?>
<!-- Generator: Adobe Illustrator 19.2.1, SVG Export Plug-In . SVG Version: 6.00 Build 0)  -->
<svg version="1.1" id="Слой_1" xmlns="http://www.w3.org/2000/svg" xmlns:xlink="http://www.w3.org/1999/xlink" x="0px" y="0px"
	 viewBox="0 0 120 120" enable-background="new 0 0 120 120" xml:space="preserve">
<g>
	<g>
		<g>
			<g>
				
					<linearGradient id="SVGID_1_" gradientUnits="userSpaceOnUse" x1="509.1869" y1="-2413.3735" x2="517.3444" y2="-2413.3735" gradientTransform="matrix(-0.963 1.4058 -0.825 -0.5651 -1463.6211 -2045.8333)">
					<stop  offset="0" style="stop-color:#FFD405"/>
					<stop  offset="1" style="stop-color:#F9AF15"/>
				</linearGradient>
				<polygon fill="url(#SVGID_1_)" points="50.11,51.145 46.188,56.877 31.188,42.361 16.189,27.837 35.113,36.62 54.027,45.397 
									"/>
				<path fill="#646464" d="M46.263,57.609L13.84,26.223l40.895,18.979L46.263,57.609z M18.539,29.451l27.574,26.692l7.205-10.552
					L18.539,29.451z"/>
			</g>
			<g>
				
					<linearGradient id="SVGID_2_" gradientUnits="userSpaceOnUse" x1="974.963" y1="-1949.2971" x2="983.1309" y2="-1949.2971" gradientTransform="matrix(-0.4241 1.6504 -0.9685 -0.2489 -1444.9056 -2051.0508)">
					<stop  offset="0" style="stop-color:#FFD405"/>
					<stop  offset="1" style="stop-color:#F9AF15"/>
				</linearGradient>
				<polygon fill="url(#SVGID_2_)" points="47.687,55.073 45.956,61.806 26.91,53.31 7.867,44.806 28.64,46.569 49.413,48.324 				
					"/>
				<path fill="#646464" d="M46.276,62.47L5.111,44.095l44.902,3.803L46.276,62.47z M10.623,45.516l35.011,15.626l3.179-12.393
					L10.623,45.516z"/>
			</g>
			<g>
				
					<linearGradient id="SVGID_3_" gradientUnits="userSpaceOnUse" x1="1318.8461" y1="-1242.3644" x2="1327.01" y2="-1242.3644" gradientTransform="matrix(0.1659 1.696 -0.9952 0.0974 -1429.5873 -2061.0874)">
					<stop  offset="0" style="stop-color:#FFD405"/>
					<stop  offset="1" style="stop-color:#F9AF15"/>
				</linearGradient>
				<polygon fill="url(#SVGID_3_)" points="46.745,59.594 47.415,66.514 26.626,65.07 5.831,63.617 25.955,58.141 46.069,52.667 
									"/>
				<path fill="#646464" d="M47.942,67.026L3,63.896l43.487-11.835L47.942,67.026z M8.662,63.339l38.225,2.662L45.65,53.274
					L8.662,63.339z"/>
			</g>
			<g>
				
					<linearGradient id="SVGID_4_" gradientUnits="userSpaceOnUse" x1="1500.9435" y1="-376.448" x2="1509.1045" y2="-376.448" gradientTransform="matrix(0.736 1.5369 -0.9019 0.4319 -1418.3531 -2077.4353)">
					<stop  offset="0" style="stop-color:#FFD405"/>
					<stop  offset="1" style="stop-color:#F9AF15"/>
				</linearGradient>
				<polygon fill="url(#SVGID_4_)" points="47.406,64.167 50.401,70.444 30.366,76.212 10.332,81.977 27.371,69.933 44.411,57.893 
									"/>
				<path fill="#646464" d="M7.765,83.21l36.83-26.028l6.473,13.564L7.765,83.21z M44.224,58.606L12.899,80.744l36.829-10.601
					l-2.752-5.77v0.001L44.224,58.606z"/>
			</g>
			<g>
				
					<linearGradient id="SVGID_5_" gradientUnits="userSpaceOnUse" x1="1497.9252" y1="542.9547" x2="1506.0804" y2="542.9547" gradientTransform="matrix(1.2173 1.1925 -0.6998 0.7143 -1413.2457 -2096.0342)">
					<stop  offset="0" style="stop-color:#FFD405"/>
					<stop  offset="1" style="stop-color:#F9AF15"/>
				</linearGradient>
				<polygon fill="url(#SVGID_5_)" points="49.589,68.237 54.536,73.111 37.679,85.393 20.824,97.693 32.724,80.529 44.627,63.367 
									"/>
				<path fill="#646464" d="M18.828,99.736l25.73-37.103l10.71,10.532L18.828,99.736z M44.696,64.101L22.819,95.648l30.985-22.592
					L44.696,64.101z"/>
			</g>
			<g>
				
					<linearGradient id="SVGID_6_" gradientUnits="userSpaceOnUse" x1="1310.7734" y1="1404.0115" x2="1318.9205" y2="1404.0115" gradientTransform="matrix(1.5517 0.7043 -0.4133 0.9106 -1415.4633 -2114.4644)">
					<stop  offset="0" style="stop-color:#FFD405"/>
					<stop  offset="1" style="stop-color:#F9AF15"/>
				</linearGradient>
				<polygon fill="url(#SVGID_6_)" points="53.027,71.315 59.339,74.193 47.687,91.529 36.036,108.863 41.369,88.639 46.703,68.44 
									"/>
				<path fill="#646464" d="M34.859,111.468l11.529-43.693l13.657,6.219L34.859,111.468z M47.019,69.105l-9.804,37.153
					l21.417-31.865L47.019,69.105z"/>
			</g>
			<g>
				
					<linearGradient id="SVGID_7_" gradientUnits="userSpaceOnUse" x1="961.6862" y1="2105.4832" x2="969.8271" y2="2105.4832" gradientTransform="matrix(1.699 0.1311 -0.0769 0.997 -1423.1953 -2132.1921)">
					<stop  offset="0" style="stop-color:#FFD405"/>
					<stop  offset="1" style="stop-color:#F9AF15"/>
				</linearGradient>
				<polygon fill="url(#SVGID_7_)" points="57.307,73.03 64.214,73.566 59.179,93.844 54.144,114.143 52.258,93.312 50.383,72.495 
									"/>
				<path fill="#646464" d="M53.924,117l-4.063-45.022l14.951,1.158L53.924,117z M50.908,73.011l3.454,38.275l9.255-37.29
					L50.908,73.011z"/>
			</g>
			<g>
				
					<linearGradient id="SVGID_8_" gradientUnits="userSpaceOnUse" x1="493.2049" y1="2560.5273" x2="501.3454" y2="2560.5273" gradientTransform="matrix(1.6414 -0.4579 0.2687 0.9632 -1436.802 -2145.5776)">
					<stop  offset="0" style="stop-color:#FFD405"/>
					<stop  offset="1" style="stop-color:#F9AF15"/>
				</linearGradient>
				<polygon fill="url(#SVGID_8_)" points="61.905,73.16 68.583,71.306 70.771,92.09 72.954,112.885 64.085,93.95 55.222,75.04 				
					"/>
				<path fill="#646464" d="M73.721,115.643L54.556,74.735l14.442-4.037L73.721,115.643z M55.89,75.345l16.296,34.782l-4.018-38.215
					L55.89,75.345z"/>
			</g>
			<g>
				
					<linearGradient id="SVGID_9_" gradientUnits="userSpaceOnUse" x1="-38.446" y1="2715.6345" x2="-30.2954" y2="2715.6345" gradientTransform="matrix(1.3858 -0.9917 0.5819 0.8132 -1454.3345 -2153.9673)">
					<stop  offset="0" style="stop-color:#FFD405"/>
					<stop  offset="1" style="stop-color:#F9AF15"/>
				</linearGradient>
				<polygon fill="url(#SVGID_9_)" points="66.281,71.716 71.921,67.677 81.061,86.45 90.201,105.261 75.419,90.503 60.639,75.777 
									"/>
				<path fill="#646464" d="M91.861,107.59L59.906,75.719l12.196-8.756L91.861,107.59z M61.369,75.836l27.172,27.097L71.74,68.392
					L61.369,75.836z"/>
			</g>
			<g>
				
					<linearGradient id="SVGID_10_" gradientUnits="userSpaceOnUse" x1="-569.1781" y1="2550.7415" x2="-561.0195" y2="2550.7415" gradientTransform="matrix(0.963 -1.4058 0.825 0.5651 -1473.3005 -2155.3503)">
					<stop  offset="0" style="stop-color:#FFD405"/>
					<stop  offset="1" style="stop-color:#F9AF15"/>
				</linearGradient>
				<polygon fill="url(#SVGID_10_)" points="69.895,68.859 73.824,63.127 88.809,77.634 103.814,92.167 84.891,83.372 
					65.979,74.605 				"/>
				<path fill="#646464" d="M106.167,93.785L65.271,74.801l8.478-12.407L106.167,93.785z M66.688,74.409l34.774,16.14l-27.564-26.69
					L66.688,74.409z"/>
			</g>
			<g>
				
					<linearGradient id="SVGID_11_" gradientUnits="userSpaceOnUse" x1="-1034.5795" y1="2087.0176" x2="-1026.4099" y2="2087.0176" gradientTransform="matrix(0.4241 -1.6504 0.9685 0.2489 -1492.0134 -2150.1348)">
					<stop  offset="0" style="stop-color:#FFD405"/>
					<stop  offset="1" style="stop-color:#F9AF15"/>
				</linearGradient>
				<polygon fill="url(#SVGID_11_)" points="72.314,64.929 74.053,58.194 93.083,66.685 112.143,75.19 91.363,73.436 70.596,71.679 
									"/>
				<path fill="#646464" d="M114.898,75.9l-44.901-3.795l3.735-14.574L114.898,75.9z M71.195,71.254l38.192,3.227L74.372,58.856
					L71.195,71.254z"/>
			</g>
			<g>
				
					<linearGradient id="SVGID_12_" gradientUnits="userSpaceOnUse" x1="-1379.5961" y1="1379.4674" x2="-1371.4309" y2="1379.4674" gradientTransform="matrix(-0.1659 -1.696 0.9952 -0.0974 -1507.3323 -2140.0984)">
					<stop  offset="0" style="stop-color:#FFD405"/>
					<stop  offset="1" style="stop-color:#F9AF15"/>
				</linearGradient>
				<polygon fill="url(#SVGID_12_)" points="73.249,60.402 72.583,53.49 93.376,54.927 114.169,56.386 94.044,61.861 73.938,67.338 
									"/>
				<path fill="#646464" d="M73.52,67.944l-1.464-14.967l44.944,3.132L73.52,67.944z M73.721,60.354l0.634,6.379l36.985-10.069
					l-38.23-2.662L73.721,60.354z"/>
			</g>
			<g>
				
					<linearGradient id="SVGID_13_" gradientUnits="userSpaceOnUse" x1="-1560.9965" y1="514.2751" x2="-1552.8342" y2="514.2751" gradientTransform="matrix(-0.736 -1.5369 0.9019 -0.4319 -1518.5656 -2123.7524)">
					<stop  offset="0" style="stop-color:#FFD405"/>
					<stop  offset="1" style="stop-color:#F9AF15"/>
				</linearGradient>
				<polygon fill="url(#SVGID_13_)" points="72.59,55.835 69.611,49.559 89.628,43.789 109.68,38.018 92.624,50.074 75.604,62.11 
									"/>
				<path fill="#646464" d="M75.419,62.823l-6.478-13.565l43.306-12.474L75.419,62.823z M73.02,55.63l2.769,5.767l31.323-22.147
					L70.279,49.861L73.02,55.63z"/>
			</g>
			<g>
				
					<linearGradient id="SVGID_14_" gradientUnits="userSpaceOnUse" x1="-1558.0853" y1="-404.6816" x2="-1549.9333" y2="-404.6816" gradientTransform="matrix(-1.2173 -1.1925 0.6998 -0.7143 -1523.6738 -2105.1553)">
					<stop  offset="0" style="stop-color:#FFD405"/>
					<stop  offset="1" style="stop-color:#F9AF15"/>
				</linearGradient>
				<polygon fill="url(#SVGID_14_)" points="70.406,51.766 65.469,46.897 82.314,34.602 99.182,22.301 87.277,39.479 75.378,56.634 
									"/>
				<path fill="#646464" d="M75.447,57.368l-10.71-10.525l36.436-26.583L75.447,57.368z M70.74,51.428l4.568,4.473l21.881-31.559
					L66.201,46.951L70.74,51.428z"/>
			</g>
			<g>
				
					<linearGradient id="SVGID_15_" gradientUnits="userSpaceOnUse" x1="-1370.8058" y1="-1267.3621" x2="-1362.6582" y2="-1267.3621" gradientTransform="matrix(-1.5517 -0.7043 0.4133 -0.9106 -1521.4583 -2086.7234)">
					<stop  offset="0" style="stop-color:#FFD405"/>
					<stop  offset="1" style="stop-color:#F9AF15"/>
				</linearGradient>
				<polygon fill="url(#SVGID_15_)" points="66.969,48.691 60.667,45.809 72.309,28.474 83.962,11.131 78.637,31.356 73.303,51.562 
									"/>
				<path fill="#646464" d="M73.617,52.227L59.96,46.008l25.178-37.48L73.617,52.227z M67.165,48.259l5.822,2.638l9.799-37.163
					L61.373,45.61L67.165,48.259z"/>
			</g>
			<g>
				
					<linearGradient id="SVGID_16_" gradientUnits="userSpaceOnUse" x1="-1021.9319" y1="-1967.8735" x2="-1013.7921" y2="-1967.8735" gradientTransform="matrix(-1.699 -0.1311 0.0769 -0.997 -1513.7263 -2068.9956)">
					<stop  offset="0" style="stop-color:#FFD405"/>
					<stop  offset="1" style="stop-color:#F9AF15"/>
				</linearGradient>
				<polygon fill="url(#SVGID_16_)" points="62.696,46.979 55.792,46.438 60.814,26.152 65.859,5.851 67.745,26.689 69.622,47.501 
									"/>
				<path fill="#646464" d="M70.145,48.017l-14.95-1.149L66.077,3L70.145,48.017z M62.732,46.506l6.365,0.479L65.639,8.703
					l-9.253,37.305L62.732,46.506z"/>
			</g>
			<g>
				
					<linearGradient id="SVGID_17_" gradientUnits="userSpaceOnUse" x1="-553.3289" y1="-2423.2722" x2="-545.1887" y2="-2423.2722" gradientTransform="matrix(-1.6414 0.4579 -0.2687 -0.9632 -1500.1235 -2055.6128)">
					<stop  offset="0" style="stop-color:#FFD405"/>
					<stop  offset="1" style="stop-color:#F9AF15"/>
				</linearGradient>
				<polygon fill="url(#SVGID_17_)" points="58.095,46.84 51.422,48.697 49.227,27.915 47.048,7.11 55.918,26.045 64.779,44.954 
									"/>
				<path fill="#646464" d="M51.008,49.306L46.28,4.354l19.166,40.905L51.008,49.306z M47.813,9.867l4.022,38.223l12.276-3.441
					L47.813,9.867z"/>
			</g>
			<g>
				
					<linearGradient id="SVGID_18_" gradientUnits="userSpaceOnUse" x1="-21.6561" y1="-2577.6978" x2="-13.5079" y2="-2577.6978" gradientTransform="matrix(-1.3858 0.9917 -0.5819 -0.8132 -1482.5867 -2047.2184)">
					<stop  offset="0" style="stop-color:#FFD405"/>
					<stop  offset="1" style="stop-color:#F9AF15"/>
				</linearGradient>
				<polygon fill="url(#SVGID_18_)" points="53.718,48.285 48.084,52.325 38.938,33.545 29.795,14.743 44.59,29.492 59.362,44.225 
									"/>
				<path fill="#646464" d="M47.903,53.039l-19.767-40.62l31.957,31.863L47.903,53.039z M31.452,17.067l16.812,34.544l10.366-7.446
					L31.452,17.067z"/>
			</g>
			<g>
				
					<linearGradient id="SVGID_19_" gradientUnits="userSpaceOnUse" x1="1501.1554" y1="2248.4622" x2="1473.2843" y2="2197.8394" gradientTransform="matrix(1 0 0 1 -1425.9608 -2162.7598)">
					<stop  offset="0" style="stop-color:#FFD405"/>
					<stop  offset="1" style="stop-color:#F9AF15"/>
				</linearGradient>
				<ellipse fill="url(#SVGID_19_)" cx="61.132" cy="60.161" rx="29.504" ry="29.605"/>
			</g>
			<g opacity="0.44" enable-background="new    ">
				
					<linearGradient id="SVGID_20_" gradientUnits="userSpaceOnUse" x1="1479.7352" y1="2205.9919" x2="1509.9366" y2="2205.9919" gradientTransform="matrix(1 0 0 1 -1425.9608 -2162.7598)">
					<stop  offset="0" style="stop-color:#F4EA66"/>
					<stop  offset="1" style="stop-color:#FDF8CC"/>
				</linearGradient>
				<path fill="url(#SVGID_20_)" d="M54.196,37.249c-2.291,4.824,5.118,7.106,13.183,10.958c8.066,3.852,13.726,7.814,16.018,2.991
					c2.282-4.821-2.391-11.86-10.458-15.713C64.88,31.633,56.485,32.421,54.196,37.249z"/>
			</g>
		</g>
	</g>
</g>
<g>
	<g>
		<g id="Dibujo_1_">
			<g>
				<path fill="#646464" d="M11.904,78.076h42.752c1.967,0,3.562-1.589,3.562-3.547s-1.596-3.547-3.562-3.547H11.904
					c-1.968,0-3.562,1.589-3.562,3.547S9.936,78.076,11.904,78.076z"/>
				<path fill="#646464" d="M117,85.17c0-1.958-1.596-3.547-3.562-3.547H6.562C4.594,81.623,3,83.212,3,85.17
					s1.594,3.547,3.562,3.547h106.875C115.404,88.717,117,87.128,117,85.17z"/>
				<path fill="#646464" d="M113.438,92.264H11.906c-1.968,0-3.562,1.589-3.562,3.547s1.594,3.547,3.562,3.547h101.531
					c1.967,0,3.562-1.589,3.562-3.547S115.404,92.264,113.438,92.264z"/>
				<path fill="#646464" d="M43.969,102.906l-21.375-0.002c-1.968,0-3.562,1.589-3.562,3.547s1.594,3.547,3.562,3.547L43.969,110
					c1.967,0,3.562-1.589,3.562-3.547C47.531,104.494,45.935,102.906,43.969,102.906z"/>
				<path fill="#646464" d="M61.781,74.529c0,1.958,1.594,3.547,3.562,3.547h37.406c1.967,0,3.562-1.589,3.562-3.547
					s-1.596-3.547-3.562-3.547H65.344C63.375,70.981,61.781,72.57,61.781,74.529z"/>
				<path fill="#646464" d="M102.75,102.904l-48.094,0.002c-1.968,0-3.562,1.589-3.562,3.547S52.688,110,54.656,110l48.094-0.002
					c1.967,0,3.562-1.589,3.562-3.547S104.716,102.904,102.75,102.904z"/>
			</g>
		</g>
	</g>
</g>
</svg>
