<?xml version="1.0" encoding="UTF-8" ?>
<!DOCTYPE svg PUBLIC "-//W3C//DTD SVG 1.1//EN" "http://www.w3.org/Graphics/SVG/1.1/DTD/svg11.dtd">
<svg width="200pt" height="200pt" viewBox="0 0 200 200" version="1.1" xmlns="http://www.w3.org/2000/svg">
<g id="#000000ff">
<path fill="#00CED1" opacity="1.00" d=" M 0.00 10.73 C 0.97 5.63 5.69 1.58 10.97 2.00 C 69.68 2.00 128.39 2.00 187.10 2.00 C 193.08 1.51 198.59 6.98 197.99 13.00 C 198.00 71.01 198.01 129.03 197.99 187.05 C 198.59 193.05 193.06 198.56 187.07 198.00 C 130.37 198.01 73.66 197.99 16.96 198.00 C 13.95 197.98 10.91 198.17 7.91 197.75 C 3.86 196.89 0.94 193.34 0.00 189.42 L 0.00 10.73 M 5.73 10.52 C 5.79 70.17 5.81 129.82 5.73 189.47 C 6.66 190.41 7.59 191.34 8.52 192.27 C 68.84 192.19 129.15 192.20 189.46 192.27 C 190.40 191.34 191.33 190.41 192.27 189.48 C 192.20 129.82 192.19 70.16 192.27 10.51 C 191.32 9.58 190.37 8.65 189.42 7.72 C 129.13 7.81 68.83 7.80 8.54 7.73 C 7.60 8.66 6.67 9.59 5.73 10.52 Z" />
</g>
<g id="#ffffffff">
<path fill="#ffffff" opacity="1.00" d=" M 5.73 10.52 C 6.67 9.59 7.60 8.66 8.54 7.73 C 68.83 7.80 129.13 7.81 189.42 7.72 C 190.37 8.65 191.32 9.58 192.27 10.51 C 192.19 70.16 192.20 129.82 192.27 189.48 C 191.33 190.41 190.40 191.34 189.46 192.27 C 129.15 192.20 68.84 192.19 8.52 192.27 C 7.59 191.34 6.66 190.41 5.73 189.47 C 5.81 129.82 5.79 70.17 5.73 10.52 Z" />
</g>
</svg>
