<?xml version="1.0" encoding="utf-8"?>
<!-- Generator: Adobe Illustrator 15.0.0, SVG Export Plug-In . SVG Version: 6.00 Build 0)  -->
<!DOCTYPE svg PUBLIC "-//W3C//DTD SVG 1.1//EN" "http://www.w3.org/Graphics/SVG/1.1/DTD/svg11.dtd">
<svg version="1.1" id="Layer_1" xmlns="http://www.w3.org/2000/svg" xmlns:xlink="http://www.w3.org/1999/xlink" x="0px" y="0px"
	 width="225px" height="225px" viewBox="0 0 225 225" enable-background="new 0 0 225 225" xml:space="preserve">
<g id="_x23_000000ff">
	<g>
		<path fill="#9E6E59" d="M134.15,221.069c0.051-8.892,0.042-17.896,0.034-26.621c-0.004-4.402-0.008-8.805-0.005-13.207
			l0.001-1.004l-1.004,0.003c-8.904,0.026-17.811,0.033-26.715,0.033l-31.475-0.01c-7.807,0-15.611,0.005-23.417,0.023
			c0.003-4.036,0.008-8.072,0.014-12.108c0.018-13.371,0.036-27.186-0.048-40.79c1.864,0.029,3.727,0.042,5.591,0.042
			c2.028,0,4.058-0.015,6.088-0.038c-0.044,11.002-0.033,22.166-0.022,32.972l0.008,8.384l0.997,0.002
			c5.961,0.011,11.925,0.014,17.886,0.014l25.059-0.006c8.674,0,17.349,0.006,26.024,0.032l1.003,0.003v-1.003
			c0.019-38.978,0.031-80.901,0-123.417l0.071-0.12c4.966-2.481,9.938-4.955,14.912-7.428c13.001-6.466,26.444-13.153,39.573-19.895
			l3.662-1.881l-4.117-0.009c-16.696-0.036-33.401-0.046-50.099-0.046c-10.847,0-74.984,0.016-74.984,0.016l0,1.001
			c0.004,6.584,0.001,13.167-0.002,19.751c-0.005,11.433-0.01,22.866,0.02,34.299l-6.784,0.005c-1.626,0-3.252-0.002-4.88-0.011
			c0.076-22.098,0.076-44.53,0.001-66.714c20.784,0.037,41.578,0.047,62.363,0.047c12.709,0,63.542-0.015,76.249-0.015
			c8.264,0,16.521,0.001,24.783,0.006l-0.025,27.311c-0.049,49.092-0.099,99.852,0.085,149.781
			c-16.177,8.329-32.741,16.574-48.766,24.551C155.706,210.262,144.837,215.671,134.15,221.069z"/>
		<path d="M52.547,4.343c17.801,0.031,37.368,0.045,61.347,0.045c12.709,0,25.417-0.004,38.125-0.008
			c12.706-0.003,25.413-0.007,38.121-0.007c7.933,0,15.865,0.001,23.798,0.005l-0.024,26.311
			c-0.048,48.895-0.098,99.438,0.082,149.173c-15.998,8.231-32.366,16.379-48.208,24.265c-10.049,5.002-20.409,10.158-30.628,15.313
			c0.041-8.36,0.033-16.801,0.025-24.992c-0.004-4.402-0.008-8.804-0.005-13.206l0.001-2.007l-2.007,0.006
			c-7.716,0.022-16.204,0.033-26.713,0.033c-5.246,0-10.491-0.003-15.736-0.005c-5.246-0.003-10.491-0.005-15.737-0.005
			c-7.474,0-14.944,0.005-22.417,0.021c0.003-3.701,0.008-7.402,0.013-11.104c0.018-13.039,0.035-26.5-0.042-39.778
			c1.463,0.019,2.978,0.027,4.585,0.027c1.573,0,3.25-0.009,5.084-0.027c-0.04,10.679-0.029,21.492-0.019,31.97l0.007,7.379
			l0.001,1.994l1.995,0.004c5.965,0.011,11.931,0.014,17.896,0.014l12.525-0.003l12.523-0.003c10.53,0,18.557,0.01,26.023,0.032
			l2.005,0.006l0.001-2.005c0.019-38.799,0.031-80.521,0.001-122.885c4.804-2.399,9.614-4.792,14.426-7.185
			c13.005-6.468,26.452-13.157,39.587-19.901l7.324-3.761l-8.234-0.018c-14.616-0.032-30.537-0.046-50.101-0.046
			c-10.847,0-21.692,0.004-32.538,0.008c-10.845,0.004-21.69,0.009-32.536,0.009l-8.909-0.001l-2.001,0l0.001,2.001
			c0.004,6.586,0.001,13.172-0.002,19.758c-0.004,10.912-0.009,22.174,0.017,33.292l-1.893,0.002l-3.889,0.003
			c-1.292,0-2.583-0.001-3.876-0.006C52.617,47.617,52.618,25.868,52.547,4.343 M50.54,2.34c0.08,22.9,0.08,45.81-0.001,68.71
			c1.962,0.013,3.923,0.017,5.883,0.017c2.595,0,5.189-0.006,7.787-0.006c-0.05-18.35-0.01-36.7-0.02-55.05
			c2.971,0.001,5.938,0.001,8.91,0.001c21.692,0,43.382-0.017,65.074-0.017c16.696,0,33.4,0.01,50.097,0.046
			c-18.149,9.32-36.49,18.33-54.74,27.45l-0.359,0.61c0.03,41.23,0.02,82.46,0,123.69c-8.678-0.026-17.352-0.032-26.029-0.032
			c-8.349,0-16.699,0.006-25.048,0.006c-5.963,0-11.929-0.003-17.892-0.014c-0.01-13.79-0.04-27.58,0.02-41.37
			c-2.367,0.031-4.73,0.051-7.093,0.051c-2.2,0-4.399-0.018-6.598-0.061c0.12,18.3,0.05,36.61,0.04,54.92
			c8.14-0.021,16.277-0.026,24.418-0.026c10.49,0,20.981,0.01,31.473,0.01c8.905,0,17.813-0.008,26.719-0.033
			c-0.01,13.82,0.051,27.64-0.039,41.46c27.58-13.95,55.399-27.47,82.859-41.62c-0.221-59.561-0.109-119.13-0.061-178.7
			c-8.601-0.005-17.199-0.006-25.8-0.006c-25.416,0-50.829,0.015-76.246,0.015C92.777,2.389,71.654,2.378,50.54,2.34L50.54,2.34z"/>
	</g>
	<g>
		<path fill="#FFB500" d="M76.98,140.044c0.028-5.127,0.024-10.256,0.021-15.386c-0.002-3.768-0.004-7.537,0.005-11.308
			l-45.017,0.004L7.955,113.35l0.026-1.025c0.211-8.368,0.218-17.3,0.02-27.305L7.98,84h69.021c0.003-4.246,0.001-8.49-0.001-12.734
			c-0.002-4.578-0.005-9.156,0-13.736l0.002-2.363l1.694,1.647c6.83,6.638,13.658,13.501,20.262,20.139
			c6.872,6.907,13.977,14.049,21.087,20.94l0.725,0.703l-0.709,0.718c-8.72,8.835-17.655,17.751-26.296,26.373
			c-5.03,5.02-10.061,10.039-15.077,15.07l-1.721,1.727L76.98,140.044z"/>
		<path d="M78,57.53c13.93,13.54,27.4,27.56,41.35,41.08c-13.708,13.89-27.59,27.621-41.37,41.44c0.05-9.229,0-18.46,0.03-27.7
			c-15.339,0-30.681,0.004-46.02,0.004c-7.671,0-15.339-0.001-23.01-0.004C9.21,103.24,9.18,94.11,9,85c23,0,46,0,69,0
			C78.01,75.84,77.99,66.69,78,57.53 M76.005,52.802L76,57.528c-0.005,4.581-0.002,9.159,0,13.738
			c0.002,3.911,0.004,7.821,0.001,11.734H9H6.96L7,85.04c0.197,9.99,0.191,18.907-0.02,27.26l-0.052,2.05h2.05
			c7.671,0.004,15.34,0.005,23.011,0.005L55,114.353l21.004-0.002c-0.007,3.437-0.005,6.873-0.003,10.308
			c0.003,5.043,0.006,10.257-0.021,15.381l-0.026,4.875l3.442-3.452c5.017-5.03,10.046-10.05,15.077-15.069
			c8.642-8.623,17.578-17.54,26.301-26.378l1.417-1.437l-1.449-1.404c-7.104-6.885-14.206-14.023-21.074-20.927
			c-6.606-6.64-13.438-13.507-20.273-20.15L76.005,52.802L76.005,52.802z"/>
	</g>
</g>
</svg>
