<svg id="svg" xmlns="http://www.w3.org/2000/svg" xmlns:xlink="http://www.w3.org/1999/xlink" width="400" height="407.5621890547264" viewBox="0, 0, 400,407.5621890547264">
<g id="svgg">
<path id="path0" d="M187.065 74.082 C 184.985 74.271,182.899 74.514,182.430 74.623 C 181.693 74.793,180.936 76.778,176.923 89.052 C 174.365 96.879,170.864 107.582,169.145 112.836 C 167.426 118.090,163.277 130.851,159.925 141.194 L 153.831 160.000 112.396 160.000 L 70.960 160.000 69.316 165.075 C 65.691 176.258,63.644 187.506,63.543 196.787 L 63.483 202.330 66.942 204.946 C 68.845 206.385,71.532 208.386,72.912 209.393 C 74.293 210.399,80.796 215.153,87.363 219.956 C 93.930 224.758,104.856 232.692,111.642 237.585 C 118.428 242.479,124.291 246.773,124.671 247.127 C 125.323 247.736,125.232 248.168,123.012 254.931 C 121.720 258.868,118.755 268.000,116.424 275.224 C 114.093 282.448,111.595 290.149,110.874 292.338 C 108.770 298.720,108.429 300.340,109.034 301.070 C 111.681 304.259,127.307 314.587,136.339 319.118 C 146.055 323.992,162.352 329.780,163.080 328.616 C 163.247 328.349,164.368 327.465,165.572 326.651 C 166.776 325.838,168.746 324.458,169.950 323.585 C 171.154 322.713,172.856 321.489,173.731 320.867 C 176.203 319.110,192.820 307.048,196.519 304.327 L 199.830 301.891 199.808 281.618 C 199.797 270.468,199.737 261.296,199.676 261.235 C 199.616 261.174,197.515 260.931,195.009 260.695 C 143.930 255.878,121.602 198.005,157.522 163.528 C 168.232 153.248,180.089 148.193,197.114 146.648 L 199.801 146.404 199.801 110.018 L 199.801 73.632 195.323 73.686 C 192.861 73.716,189.144 73.894,187.065 74.082 " stroke="none" fill="#fb9e04" fill-rule="evenodd"></path>
<path id="path1" d="M200.232 160.597 L 200.204 301.493 258.610 343.963 C 290.733 367.321,317.761 386.982,318.673 387.654 C 320.071 388.684,320.897 388.500,319.981 387.363 C 319.937 387.308,319.856 387.085,319.801 386.866 C 319.746 386.647,319.657 386.378,319.602 386.269 C 319.547 386.159,319.458 385.891,319.403 385.672 C 319.348 385.453,319.259 385.184,319.204 385.075 C 319.149 384.965,319.060 384.697,319.005 384.478 C 318.950 384.259,318.870 384.035,318.826 383.980 C 318.783 383.925,318.673 383.488,318.584 383.009 C 318.367 381.851,315.998 374.437,315.682 373.930 C 315.546 373.711,315.410 373.398,315.379 373.234 C 315.349 373.070,315.279 372.846,315.224 372.736 C 315.169 372.627,315.080 372.358,315.025 372.139 C 314.970 371.920,314.889 371.697,314.845 371.642 C 314.801 371.587,314.711 371.274,314.645 370.945 C 314.430 369.872,311.959 362.000,311.709 361.592 C 311.575 361.373,311.421 360.905,311.366 360.552 C 311.310 360.199,311.052 359.393,310.790 358.761 C 310.529 358.129,310.278 357.478,310.232 357.313 C 310.187 357.149,310.114 356.970,310.070 356.915 C 310.026 356.861,309.921 356.458,309.836 356.020 C 309.706 355.355,279.416 261.824,275.850 251.076 L 274.704 247.625 277.651 245.518 C 279.271 244.359,280.597 243.270,280.597 243.099 C 280.597 242.927,280.771 242.786,280.983 242.786 C 281.527 242.786,284.975 240.313,284.975 239.923 C 284.975 239.747,285.249 239.602,285.585 239.602 C 285.920 239.602,286.297 239.333,286.423 239.005 C 286.549 238.677,286.876 238.408,287.149 238.408 C 287.422 238.408,288.128 237.960,288.719 237.413 C 289.309 236.866,289.968 236.418,290.182 236.418 C 290.397 236.418,290.675 236.149,290.801 235.821 C 290.927 235.493,291.280 235.224,291.585 235.224 C 291.890 235.224,292.139 235.045,292.139 234.826 C 292.139 234.607,292.368 234.428,292.648 234.428 C 292.927 234.428,293.744 233.891,294.463 233.234 C 295.182 232.577,295.919 232.040,296.101 232.040 C 296.283 232.040,296.540 231.760,296.671 231.418 C 296.802 231.075,297.091 230.908,297.313 231.045 C 297.535 231.182,297.825 231.014,297.956 230.672 C 298.087 230.330,298.450 230.050,298.762 230.050 C 299.073 230.050,299.432 229.781,299.558 229.453 C 299.684 229.124,300.017 228.856,300.299 228.856 C 300.580 228.856,300.913 228.587,301.039 228.259 C 301.165 227.930,301.543 227.662,301.878 227.662 C 302.213 227.662,302.488 227.483,302.488 227.264 C 302.488 227.045,302.762 226.866,303.097 226.866 C 303.432 226.866,303.810 226.597,303.936 226.269 C 304.062 225.940,304.395 225.672,304.677 225.672 C 304.958 225.672,305.292 225.403,305.418 225.075 C 305.544 224.746,305.921 224.478,306.256 224.478 C 306.591 224.478,306.866 224.299,306.866 224.080 C 306.866 223.861,307.140 223.682,307.475 223.682 C 307.810 223.682,308.188 223.413,308.314 223.085 C 308.440 222.756,308.773 222.488,309.055 222.488 C 309.336 222.488,309.670 222.219,309.796 221.891 C 309.922 221.562,310.280 221.294,310.592 221.294 C 310.904 221.294,311.266 221.014,311.397 220.671 C 311.529 220.329,311.798 220.149,311.995 220.271 C 312.193 220.393,312.457 220.225,312.583 219.898 C 312.708 219.571,313.066 219.303,313.378 219.303 C 313.690 219.303,314.048 219.035,314.174 218.706 C 314.300 218.378,314.658 218.109,314.970 218.109 C 315.282 218.109,315.644 217.829,315.776 217.487 C 315.907 217.145,316.195 216.976,316.415 217.113 C 316.636 217.249,316.816 217.201,316.816 217.006 C 316.816 216.570,320.483 213.896,320.896 214.031 C 321.060 214.085,321.194 213.981,321.194 213.799 C 321.194 213.379,324.874 210.716,325.274 210.847 C 325.438 210.901,325.572 210.775,325.572 210.566 C 325.572 210.119,329.217 207.529,329.652 207.667 C 329.816 207.719,329.950 207.591,329.950 207.382 C 329.950 206.935,333.595 204.345,334.030 204.483 C 334.194 204.535,334.328 204.407,334.328 204.198 C 334.328 203.751,337.973 201.161,338.408 201.299 C 338.572 201.351,338.706 201.223,338.706 201.014 C 338.706 200.567,342.351 197.977,342.786 198.115 C 342.950 198.166,343.085 198.051,343.085 197.859 C 343.085 197.667,354.614 189.114,368.706 178.854 L 394.328 160.199 320.049 160.000 C 249.622 159.811,245.774 159.765,245.826 159.104 C 245.857 158.721,245.703 158.408,245.485 158.408 C 245.267 158.408,245.185 158.157,245.303 157.850 C 245.421 157.543,245.395 157.170,245.246 157.021 C 245.097 156.872,244.953 156.585,244.925 156.385 C 244.898 156.184,244.831 155.930,244.776 155.821 C 244.721 155.711,244.632 155.443,244.577 155.224 C 244.522 155.005,244.433 154.736,244.378 154.627 C 244.323 154.517,244.234 154.249,244.179 154.030 C 244.124 153.811,244.035 153.542,243.980 153.433 C 243.925 153.323,243.836 153.055,243.781 152.836 C 243.726 152.617,243.637 152.348,243.582 152.239 C 243.527 152.129,243.438 151.861,243.383 151.642 C 243.328 151.423,243.239 151.154,243.184 151.045 C 243.129 150.935,243.047 150.711,243.000 150.547 C 242.954 150.383,242.784 149.949,242.622 149.583 C 242.459 149.217,242.278 148.680,242.219 148.389 C 242.159 148.099,241.997 147.592,241.858 147.264 C 241.046 145.344,240.433 143.150,240.623 142.843 C 240.744 142.648,240.634 142.488,240.379 142.488 C 240.124 142.488,240.011 142.236,240.129 141.929 C 240.247 141.623,240.221 141.249,240.072 141.100 C 239.923 140.951,239.779 140.665,239.751 140.464 C 239.724 140.264,239.657 140.010,239.602 139.900 C 239.547 139.791,239.458 139.522,239.403 139.303 C 239.348 139.085,239.259 138.816,239.204 138.706 C 239.149 138.597,239.060 138.328,239.005 138.109 C 238.950 137.891,238.861 137.622,238.806 137.512 C 238.751 137.403,238.662 137.134,238.607 136.915 C 238.552 136.697,238.463 136.428,238.408 136.318 C 238.353 136.209,238.264 135.940,238.209 135.721 C 238.154 135.502,238.065 135.234,238.010 135.124 C 237.955 135.015,237.866 134.746,237.811 134.527 C 237.756 134.308,237.667 134.040,237.612 133.930 C 237.557 133.821,237.475 133.597,237.428 133.433 C 237.382 133.269,237.228 132.866,237.087 132.537 C 236.293 130.697,235.656 128.426,235.847 128.117 C 235.968 127.921,235.858 127.761,235.603 127.761 C 235.348 127.761,235.242 127.493,235.368 127.164 C 235.494 126.836,235.404 126.567,235.169 126.567 C 234.933 126.567,234.837 126.316,234.955 126.009 C 235.073 125.702,235.047 125.329,234.898 125.180 C 234.749 125.031,234.604 124.745,234.577 124.544 C 234.550 124.343,234.483 124.090,234.428 123.980 C 234.373 123.871,234.284 123.602,234.229 123.383 C 234.174 123.164,234.085 122.896,234.030 122.786 C 233.975 122.677,233.886 122.408,233.831 122.189 C 233.776 121.970,233.687 121.701,233.632 121.592 C 233.577 121.483,233.488 121.214,233.433 120.995 C 233.378 120.776,233.289 120.507,233.234 120.398 C 233.179 120.289,233.096 120.065,233.050 119.900 C 233.004 119.736,232.849 119.333,232.705 119.005 C 231.860 117.074,230.495 112.485,230.677 112.190 C 230.796 111.998,230.684 111.841,230.429 111.841 C 230.173 111.841,230.061 111.590,230.179 111.283 C 230.297 110.976,230.271 110.603,230.122 110.454 C 229.973 110.304,229.828 110.018,229.801 109.818 C 229.774 109.617,229.706 109.363,229.652 109.254 C 229.597 109.144,229.507 108.876,229.453 108.657 C 229.398 108.438,229.308 108.169,229.254 108.060 C 229.199 107.950,229.109 107.682,229.055 107.463 C 229.000 107.244,228.910 106.975,228.856 106.866 C 228.801 106.756,228.711 106.488,228.657 106.269 C 228.602 106.050,228.512 105.781,228.458 105.672 C 228.403 105.562,228.313 105.294,228.259 105.075 C 228.204 104.856,228.114 104.587,228.060 104.478 C 228.005 104.368,227.922 104.144,227.876 103.980 C 227.830 103.816,227.674 103.413,227.531 103.085 C 226.686 101.154,225.321 96.564,225.503 96.269 C 225.622 96.077,225.510 95.920,225.255 95.920 C 224.999 95.920,224.887 95.669,225.005 95.362 C 225.122 95.055,225.097 94.682,224.948 94.533 C 224.799 94.384,224.654 94.098,224.627 93.897 C 224.600 93.697,224.532 93.443,224.478 93.333 C 224.423 93.224,224.333 92.955,224.279 92.736 C 224.224 92.517,224.134 92.249,224.080 92.139 C 224.025 92.030,223.935 91.761,223.881 91.542 C 223.826 91.323,223.736 91.055,223.682 90.945 C 223.627 90.836,223.537 90.567,223.483 90.348 C 223.428 90.129,223.338 89.861,223.284 89.751 C 223.229 89.642,223.139 89.373,223.085 89.154 C 223.030 88.935,222.940 88.667,222.886 88.557 C 222.831 88.448,222.748 88.224,222.702 88.060 C 222.656 87.896,222.501 87.493,222.358 87.164 C 221.536 85.276,220.540 81.846,220.725 81.545 C 220.845 81.352,220.734 81.194,220.478 81.194 C 220.223 81.194,220.117 80.925,220.243 80.597 C 220.369 80.269,220.280 80.000,220.044 80.000 C 219.809 80.000,219.713 79.749,219.830 79.442 C 219.948 79.135,219.923 78.762,219.774 78.613 C 219.624 78.464,219.480 78.177,219.453 77.977 C 219.425 77.776,219.358 77.522,219.303 77.413 C 219.249 77.303,219.159 77.035,219.104 76.816 C 219.050 76.597,218.960 76.328,218.905 76.219 C 218.851 76.109,218.768 75.886,218.722 75.721 C 218.676 75.557,218.505 75.123,218.343 74.757 C 218.181 74.391,217.999 73.854,217.940 73.563 C 217.880 73.273,217.716 72.766,217.576 72.438 C 216.707 70.413,215.372 65.915,215.553 65.622 C 215.671 65.431,215.560 65.274,215.304 65.274 C 215.049 65.274,214.943 65.005,215.069 64.677 C 215.195 64.348,215.106 64.080,214.870 64.080 C 214.635 64.080,214.539 63.828,214.656 63.521 C 214.774 63.215,214.749 62.841,214.599 62.692 C 214.450 62.543,214.306 62.257,214.279 62.056 C 214.251 61.856,214.184 61.602,214.129 61.493 C 214.075 61.383,213.985 61.114,213.930 60.896 C 213.876 60.677,213.786 60.408,213.731 60.299 C 213.677 60.189,213.587 59.920,213.532 59.701 C 213.478 59.483,213.388 59.214,213.333 59.104 C 213.279 58.995,213.189 58.726,213.134 58.507 C 213.080 58.289,212.990 58.020,212.935 57.910 C 212.881 57.801,212.798 57.577,212.752 57.413 C 212.705 57.249,212.550 56.846,212.406 56.517 C 211.562 54.587,210.196 49.997,210.379 49.702 C 210.497 49.510,210.385 49.353,210.130 49.353 C 209.875 49.353,209.762 49.102,209.880 48.795 C 209.998 48.488,209.972 48.115,209.823 47.966 C 209.674 47.817,209.530 47.531,209.502 47.330 C 209.475 47.129,209.408 46.876,209.353 46.766 C 209.299 46.657,209.209 46.388,209.154 46.169 C 209.100 45.950,209.010 45.682,208.955 45.572 C 208.900 45.463,208.811 45.194,208.756 44.975 C 208.701 44.756,208.612 44.488,208.557 44.378 C 208.502 44.269,208.413 44.000,208.358 43.781 C 208.303 43.562,208.214 43.294,208.159 43.184 C 208.104 43.075,208.022 42.851,207.976 42.687 C 207.929 42.522,207.774 42.119,207.630 41.791 C 206.786 39.860,205.420 35.271,205.603 34.976 C 205.721 34.784,205.609 34.627,205.354 34.627 C 205.099 34.627,204.993 34.358,205.119 34.030 C 205.245 33.701,205.156 33.433,204.920 33.433 C 204.685 33.433,204.588 33.182,204.706 32.875 C 204.824 32.568,204.798 32.195,204.649 32.046 C 204.500 31.896,204.356 31.610,204.328 31.410 C 204.301 31.209,204.234 30.955,204.179 30.846 C 204.124 30.736,204.042 30.512,203.995 30.348 C 203.949 30.184,203.793 29.781,203.647 29.453 C 203.502 29.124,202.680 26.796,201.821 24.279 L 200.260 19.701 200.232 160.597 " stroke="none" fill="#848383" fill-rule="evenodd"></path>
<path id="path2" d="M194.285 146.897 C 152.326 150.945,127.641 193.332,146.312 229.269 C 156.069 248.048,177.834 261.070,199.502 261.094 C 199.667 261.094,199.801 235.303,199.801 203.781 L 199.801 146.468 198.706 146.522 C 198.104 146.552,196.115 146.721,194.285 146.897 " stroke="none" fill="#fcbf04" fill-rule="evenodd"></path>
<path id="path3" d="M192.891 39.701 C 189.224 51.030,185.166 63.514,183.872 67.443 C 182.579 71.373,181.559 74.617,181.606 74.651 C 181.653 74.686,182.766 74.573,184.080 74.400 C 185.393 74.228,189.468 73.956,193.134 73.797 L 199.801 73.507 199.801 46.306 C 199.801 31.345,199.746 19.104,199.680 19.104 C 199.613 19.104,196.558 28.373,192.891 39.701 M5.393 160.346 C 5.871 160.784,6.404 161.172,38.209 184.264 C 52.766 194.833,64.336 203.101,63.919 202.636 C 61.733 200.200,64.942 178.088,69.426 164.683 C 70.207 162.350,70.846 160.342,70.846 160.220 C 70.846 160.099,56.034 160.000,37.930 160.000 C 19.244 160.000,5.178 160.150,5.393 160.346 M108.234 300.199 C 108.121 301.250,108.069 301.457,107.808 301.891 C 107.314 302.709,79.563 388.539,79.679 388.885 C 79.746 389.084,97.264 376.522,118.607 360.969 C 139.950 345.415,157.995 332.325,158.706 331.878 C 159.417 331.432,159.882 330.877,159.739 330.646 C 159.592 330.409,159.667 330.342,159.911 330.492 C 160.149 330.639,160.829 330.309,161.424 329.758 C 162.264 328.979,162.355 328.756,161.832 328.756 C 159.718 328.756,145.935 323.672,138.584 320.181 C 127.677 315.001,109.780 303.153,108.659 300.369 C 108.372 299.657,108.296 299.627,108.234 300.199 " stroke="none" fill="#fb7604" fill-rule="evenodd"></path>
<path id="path4" d="M199.911 159.801 L 199.998 301.493 200.198 160.398 C 200.308 82.796,200.269 19.035,200.112 18.706 C 199.954 18.378,199.864 81.871,199.911 159.801 M390.722 162.812 C 388.601 164.359,386.866 165.724,386.866 165.846 C 386.866 165.968,387.090 165.892,387.363 165.677 C 387.637 165.462,389.294 164.249,391.045 162.982 C 394.463 160.509,395.100 160.000,394.781 160.000 C 394.669 160.000,392.843 161.266,390.722 162.812 M384.677 167.196 C 382.315 168.981,381.998 169.485,384.212 167.933 C 385.884 166.760,386.795 165.945,386.392 165.981 C 386.324 165.987,385.552 166.534,384.677 167.196 M380.299 170.380 C 377.937 172.165,377.619 172.669,379.834 171.117 C 381.506 169.944,382.417 169.129,382.014 169.165 C 381.946 169.171,381.174 169.718,380.299 170.380 M375.920 173.564 C 373.559 175.349,373.241 175.853,375.456 174.301 C 377.128 173.128,378.039 172.313,377.635 172.349 C 377.568 172.355,376.796 172.902,375.920 173.564 M371.542 176.748 C 369.181 178.533,368.863 179.037,371.078 177.485 C 372.750 176.312,373.661 175.497,373.257 175.533 C 373.190 175.540,372.418 176.086,371.542 176.748 M367.164 179.932 C 364.803 181.717,364.485 182.221,366.699 180.669 C 368.372 179.496,369.282 178.681,368.879 178.718 C 368.812 178.724,368.040 179.270,367.164 179.932 M362.786 183.116 C 360.425 184.902,360.107 185.405,362.321 183.853 C 363.994 182.680,364.904 181.865,364.501 181.902 C 364.433 181.908,363.662 182.454,362.786 183.116 M355.453 188.464 C 352.952 190.310,350.713 192.040,350.478 192.306 C 350.242 192.573,350.677 192.341,351.443 191.789 C 358.655 186.596,360.730 184.991,360.100 185.090 C 360.045 185.099,357.954 186.617,355.453 188.464 M348.060 193.863 C 345.698 195.648,345.381 196.151,347.595 194.599 C 349.267 193.427,350.178 192.612,349.775 192.648 C 349.707 192.654,348.935 193.201,348.060 193.863 M344.080 196.851 L 342.886 197.877 344.179 197.021 C 344.891 196.550,345.473 196.087,345.473 195.993 C 345.473 195.695,345.304 195.799,344.080 196.851 M339.701 200.035 L 338.507 201.061 339.801 200.205 C 340.512 199.734,341.095 199.271,341.095 199.177 C 341.095 198.879,340.926 198.983,339.701 200.035 M335.323 203.219 L 334.129 204.245 335.423 203.389 C 336.134 202.918,336.716 202.456,336.716 202.361 C 336.716 202.063,336.548 202.167,335.323 203.219 M330.945 206.403 L 329.751 207.429 331.045 206.573 C 331.756 206.102,332.338 205.640,332.338 205.545 C 332.338 205.247,332.170 205.351,330.945 206.403 M326.567 209.587 L 325.373 210.613 326.667 209.757 C 327.378 209.286,327.960 208.824,327.960 208.729 C 327.960 208.431,327.792 208.535,326.567 209.587 M227.264 321.339 C 227.264 321.448,227.801 321.920,228.458 322.388 C 229.114 322.856,229.652 323.149,229.652 323.039 C 229.652 322.930,229.114 322.458,228.458 321.990 C 227.801 321.522,227.264 321.229,227.264 321.339 M231.642 324.523 C 231.642 324.632,232.179 325.105,232.836 325.572 C 233.493 326.040,234.030 326.333,234.030 326.223 C 234.030 326.114,233.493 325.642,232.836 325.174 C 232.179 324.707,231.642 324.413,231.642 324.523 M236.020 327.707 C 236.020 327.816,236.557 328.289,237.214 328.756 C 237.871 329.224,238.408 329.517,238.408 329.407 C 238.408 329.298,237.871 328.826,237.214 328.358 C 236.557 327.891,236.020 327.598,236.020 327.707 M240.398 330.891 C 240.398 331.001,240.935 331.473,241.592 331.940 C 242.249 332.408,242.786 332.701,242.786 332.592 C 242.786 332.482,242.249 332.010,241.592 331.542 C 240.935 331.075,240.398 330.782,240.398 330.891 M244.776 334.075 C 244.776 334.185,245.313 334.657,245.970 335.124 C 246.627 335.592,247.164 335.885,247.164 335.776 C 247.164 335.666,246.627 335.194,245.970 334.726 C 245.313 334.259,244.776 333.966,244.776 334.075 M249.154 337.259 C 249.154 337.369,249.692 337.841,250.348 338.308 C 251.005 338.776,251.542 339.069,251.542 338.960 C 251.542 338.850,251.005 338.378,250.348 337.910 C 249.692 337.443,249.154 337.150,249.154 337.259 M253.532 340.443 C 253.532 340.553,254.070 341.025,254.726 341.493 C 255.383 341.960,255.920 342.253,255.920 342.144 C 255.920 342.034,255.383 341.562,254.726 341.095 C 254.070 340.627,253.532 340.334,253.532 340.443 M257.910 343.627 C 257.910 343.737,258.448 344.209,259.104 344.677 C 259.761 345.144,260.299 345.437,260.299 345.328 C 260.299 345.218,259.761 344.746,259.104 344.279 C 258.448 343.811,257.910 343.518,257.910 343.627 M262.289 346.811 C 262.289 346.921,262.826 347.393,263.483 347.861 C 264.139 348.328,264.677 348.621,264.677 348.512 C 264.677 348.402,264.139 347.930,263.483 347.463 C 262.826 346.995,262.289 346.702,262.289 346.811 M266.667 349.996 C 266.667 350.105,267.204 350.577,267.861 351.045 C 268.517 351.512,269.055 351.805,269.055 351.696 C 269.055 351.587,268.517 351.114,267.861 350.647 C 267.204 350.179,266.667 349.886,266.667 349.996 M271.045 353.180 C 271.045 353.289,271.582 353.761,272.239 354.229 C 272.896 354.696,273.433 354.990,273.433 354.880 C 273.433 354.771,272.896 354.298,272.239 353.831 C 271.582 353.363,271.045 353.070,271.045 353.180 M275.423 356.364 C 275.423 356.473,275.960 356.945,276.617 357.413 C 277.274 357.881,277.811 358.174,277.811 358.064 C 277.811 357.955,277.274 357.483,276.617 357.015 C 275.960 356.547,275.423 356.254,275.423 356.364 M279.898 359.635 C 280.027 359.845,280.986 360.629,282.027 361.377 C 283.068 362.125,283.814 362.565,283.685 362.355 C 283.555 362.145,282.596 361.361,281.555 360.613 C 280.514 359.865,279.768 359.425,279.898 359.635 M284.276 362.819 C 284.405 363.029,285.364 363.813,286.405 364.561 C 287.447 365.309,288.192 365.749,288.063 365.539 C 287.933 365.329,286.975 364.545,285.933 363.797 C 284.892 363.049,284.146 362.609,284.276 362.819 M288.654 366.003 C 288.784 366.213,289.742 366.997,290.783 367.745 C 291.825 368.493,292.571 368.933,292.441 368.723 C 292.311 368.513,291.353 367.729,290.311 366.981 C 289.270 366.233,288.524 365.793,288.654 366.003 M293.032 369.187 C 293.162 369.397,294.120 370.181,295.161 370.929 C 296.203 371.677,296.949 372.117,296.819 371.907 C 296.689 371.697,295.731 370.913,294.689 370.165 C 293.648 369.418,292.902 368.977,293.032 369.187 M297.410 372.372 C 297.540 372.582,298.498 373.365,299.539 374.113 C 300.581 374.861,301.327 375.301,301.197 375.091 C 301.067 374.881,300.109 374.097,299.068 373.350 C 298.026 372.602,297.280 372.162,297.410 372.372 M301.788 375.556 C 301.918 375.766,302.876 376.549,303.918 377.297 C 304.959 378.045,305.705 378.485,305.575 378.275 C 305.445 378.065,304.487 377.281,303.446 376.534 C 302.404 375.786,301.658 375.346,301.788 375.556 M306.166 378.740 C 306.296 378.950,307.254 379.733,308.296 380.481 C 309.337 381.229,310.083 381.669,309.953 381.459 C 309.823 381.249,308.865 380.466,307.824 379.718 C 306.782 378.970,306.036 378.530,306.166 378.740 M310.544 381.924 C 310.674 382.134,311.632 382.918,312.674 383.665 C 313.715 384.413,314.461 384.853,314.331 384.643 C 314.202 384.433,313.243 383.650,312.202 382.902 C 311.160 382.154,310.415 381.714,310.544 381.924 M314.922 385.108 C 315.052 385.318,316.010 386.102,317.052 386.849 C 318.093 387.597,318.839 388.037,318.709 387.827 C 318.580 387.617,317.621 386.834,316.580 386.086 C 315.539 385.338,314.793 384.898,314.922 385.108 " stroke="none" fill="#bc8244" fill-rule="evenodd"></path>
</g>
</svg>