<?xml version="1.0" encoding="utf-8"?>
<!-- Generator: Adobe Illustrator 16.0.0, SVG Export Plug-In . SVG Version: 6.00 Build 0)  -->
<!DOCTYPE svg PUBLIC "-//W3C//DTD SVG 1.1//EN" "http://www.w3.org/Graphics/SVG/1.1/DTD/svg11.dtd">
<svg version="1.1" id="Calque_1" xmlns="http://www.w3.org/2000/svg" xmlns:xlink="http://www.w3.org/1999/xlink" x="0px" y="0px"
	 width="114px" height="114px" viewBox="0 0 114 114" enable-background="new 0 0 114 114" xml:space="preserve">
<g id="Calque_1">
	<g>
		
			<rect x="5.104" y="12.774" transform="matrix(-1 0.003 -0.003 -1 110.4505 48.6156)" fill="#FFCC33" width="100.169" height="23.234"/>
		
			<linearGradient id="SVGID_1_" gradientUnits="userSpaceOnUse" x1="57.3066" y1="12.7686" x2="57.3066" y2="37.6367" gradientTransform="matrix(1 -0.003 0.003 1 -0.2052 0.172)">
			<stop  offset="0" style="stop-color:#990000"/>
			<stop  offset="0.5257" style="stop-color:#FF0000"/>
			<stop  offset="1" style="stop-color:#990000"/>
		</linearGradient>
		<path fill="url(#SVGID_1_)" d="M10.425,37.777l14.168-24.91l17.548-0.053L27.86,37.725L10.425,37.777z M41.32,37.684
			l14.168-24.911l17.548-0.053L58.752,37.631L41.32,37.684z M72.212,37.591l14.17-24.91l17.548-0.053L89.646,37.539L72.212,37.591z"
			/>
		
			<linearGradient id="SVGID_2_" gradientUnits="userSpaceOnUse" x1="55.1265" y1="87.3691" x2="55.1265" y2="10.5073" gradientTransform="matrix(1 -0.003 0.003 1 -0.2052 0.172)">
			<stop  offset="0" style="stop-color:#E1DEDB"/>
			<stop  offset="0" style="stop-color:#D8D4D1"/>
			<stop  offset="0.0309" style="stop-color:#C9C6C3"/>
			<stop  offset="0.0902" style="stop-color:#A2A29F"/>
			<stop  offset="0.1712" style="stop-color:#646764"/>
			<stop  offset="0.1771" style="stop-color:#5F6360"/>
			<stop  offset="0.3011" style="stop-color:#B1B3B2"/>
			<stop  offset="0.3636" style="stop-color:#D5D6D6"/>
			<stop  offset="0.3646" style="stop-color:#CECECE"/>
			<stop  offset="0.369" style="stop-color:#B1B1B1"/>
			<stop  offset="0.3715" style="stop-color:#A6A6A6"/>
			<stop  offset="0.516" style="stop-color:#AFAFB0"/>
			<stop  offset="0.7586" style="stop-color:#C8C8CA"/>
			<stop  offset="0.8696" style="stop-color:#D6D6D8"/>
			<stop  offset="0.8925" style="stop-color:#A7A8AB"/>
			<stop  offset="0.912" style="stop-color:#7C7E82"/>
			<stop  offset="0.9275" style="stop-color:#808286"/>
			<stop  offset="0.9431" style="stop-color:#8C8E92"/>
			<stop  offset="0.9586" style="stop-color:#A0A1A5"/>
			<stop  offset="0.9605" style="stop-color:#A3A4A8"/>
			<stop  offset="1" style="stop-color:#979695"/>
		</linearGradient>
		<path fill="url(#SVGID_2_)" d="M104.685,10.364L5.22,10.663c-1.248,0.004-2.257,1.019-2.252,2.267l0.074,24.867
			c0.004,1.249,1.019,2.257,2.266,2.253l13.562-0.041l0.116,38.431c0.003,1.25-9.034,2.288-9.034,2.288
			c-1.248,0.003-2.257,1.02-2.254,2.269l0.007,2.261c0.003,1.247,1.019,2.256,2.268,2.253l27.126-0.082
			c1.247-0.003,2.256-1.019,2.252-2.266l-0.007-2.261c-0.003-1.248-1.018-2.26-2.266-2.257c0,0-9.046-0.982-9.05-2.232
			l-0.116-38.431l54.255-0.163l0.115,38.431c0.005,1.249-9.033,2.287-9.033,2.287c-1.249,0.004-2.258,1.021-2.255,2.27l0.008,2.262
			c0.003,1.245,1.019,2.256,2.268,2.252l27.124-0.082c1.247-0.004,2.258-1.02,2.255-2.266l-0.008-2.262
			c-0.003-1.248-1.019-2.259-2.268-2.255c0,0-9.044-0.984-9.048-2.233L91.21,39.792l13.562-0.041
			c1.249-0.004,2.258-1.018,2.256-2.267l-0.075-24.867C106.949,11.369,105.938,10.36,104.685,10.364z M102.491,32.977
			c0.004,1.247-1.005,2.264-2.254,2.267L9.815,35.516c-1.248,0.004-2.264-1.006-2.267-2.253L7.5,17.438
			c-0.004-1.247,1.005-2.263,2.253-2.267l90.422-0.272c1.249-0.004,2.265,1.005,2.268,2.253L102.491,32.977L102.491,32.977z"/>
		
			<linearGradient id="path5170_1_" gradientUnits="userSpaceOnUse" x1="67.2813" y1="1559.5332" x2="67.2813" y2="1501.9785" gradientTransform="matrix(1 -0.003 0.003 1 12.055 -1455.6083)">
			<stop  offset="0" style="stop-color:#FFFFFF"/>
			<stop  offset="0.1517" style="stop-color:#939393"/>
			<stop  offset="0.4438" style="stop-color:#FFFFFF"/>
			<stop  offset="0.736" style="stop-color:#D6D6D6"/>
			<stop  offset="1" style="stop-color:#FFFFFF"/>
		</linearGradient>
		<path id="path5170_9_" fill="url(#path5170_1_)" stroke="#000000" stroke-width="0.54" stroke-miterlimit="10" d="M112.542,74.857
			c0.145,15.795-12.542,28.72-28.337,28.863c-15.797,0.146-28.719-12.542-28.862-28.339c0-0.114-0.001-0.234-0.001-0.348
			c-0.145-15.798,12.542-28.721,28.336-28.865c15.795-0.143,28.719,12.542,28.863,28.337
			C112.541,74.624,112.542,74.739,112.542,74.857z"/>
		<path id="path5172_9_" fill="#007F00" stroke="#FFFFFF" stroke-width="0.7798" d="M110.051,74.863
			c0.044,14.422-11.611,26.146-26.035,26.189c-14.423,0.045-26.149-11.61-26.192-26.032l0,0
			C57.78,60.598,69.438,48.869,83.861,48.825C98.282,48.784,110.008,60.44,110.051,74.863z"/>
		
			<linearGradient id="path5174_1_" gradientUnits="userSpaceOnUse" x1="-1197.2334" y1="407.6855" x2="-1196.8154" y2="407.0576" gradientTransform="matrix(43.0766 -0.1296 -0.1223 -40.647 51686.6211 16463.1777)">
			<stop  offset="0" style="stop-color:#FFFFFF"/>
			<stop  offset="1" style="stop-color:#FFFFFF;stop-opacity:0"/>
		</linearGradient>
		<path id="path5174_9_" fill="url(#path5174_1_)" d="M83.847,48.844c-14.416,0.044-26.075,11.771-26.032,26.189
			c0.021,6.925,2.867,13.107,7.285,17.768c2.231-18.904,18.141-33.646,37.654-33.704c0.525-0.002,1.013,0.104,1.535,0.121
			C99.496,53.019,92.279,48.819,83.847,48.844L83.847,48.844z"/>
		
			<text id="svg_1_9_" transform="matrix(1.08 -0.0032 0.0032 1.08 63.9854 100.3896)" fill="#FFFFFF" font-family="'roboto-Bold'" font-size="65">+</text>
	</g>
</g>
</svg>
