<?xml version="1.0" encoding="utf-8"?>
<!-- Generator: Adobe Illustrator 15.0.0, SVG Export Plug-In . SVG Version: 6.00 Build 0)  -->
<!DOCTYPE svg PUBLIC "-//W3C//DTD SVG 1.1//EN" "http://www.w3.org/Graphics/SVG/1.1/DTD/svg11.dtd">
<svg version="1.1" id="Layer_1" xmlns="http://www.w3.org/2000/svg" xmlns:xlink="http://www.w3.org/1999/xlink" x="0px" y="0px"
	 width="612px" height="792px" viewBox="0 0 612 792" enable-background="new 0 0 612 792" xml:space="preserve">
<g>
	<path fill="#8C0000" d="M444.125,300.375h-276.25c-5.865,0-10.625,4.76-10.625,10.625v241.298c0,2.074,0.604,4.105,1.751,5.84
		c7.166,10.896,16.473,20.213,27.37,27.378c1.734,1.14,3.766,1.743,5.839,1.743h227.587c2.074,0,4.105-0.604,5.84-1.743
		c10.896-7.165,20.213-16.473,27.378-27.378c1.14-1.726,1.743-3.757,1.743-5.84V311C454.75,305.135,449.99,300.375,444.125,300.375z
		 M253.938,534.125c0,5.865-4.76,10.625-10.625,10.625h-23.375c-5.865,0-10.625-4.76-10.625-10.625v-170
		c0-5.865,4.76-10.625,10.625-10.625h23.375c5.865,0,10.625,4.76,10.625,10.625V534.125z M328.313,534.125
		c0,5.865-4.76,10.625-10.625,10.625h-23.375c-5.865,0-10.625-4.76-10.625-10.625v-170c0-5.865,4.76-10.625,10.625-10.625h23.375
		c5.865,0,10.625,4.76,10.625,10.625V534.125z M402.688,534.125c0,5.865-4.76,10.625-10.625,10.625h-23.375
		c-5.865,0-10.625-4.76-10.625-10.625v-170c0-5.865,4.76-10.625,10.625-10.625h23.375c5.865,0,10.625,4.76,10.625,10.625V534.125z"
		/>
</g>
<g>
	<path fill="#8C0000" d="M465.375,252.563h-106.25c4.922-16.83,1.547-35.003-9.104-48.943c-2.006-2.635-5.134-4.174-8.44-4.174
		h-71.153c-3.315,0-6.435,1.547-8.449,4.174c-10.642,13.94-14.025,32.113-9.104,48.943h-106.25c-5.865,0-10.625,4.76-10.625,10.625
		v15.938h340v-15.938C476,257.322,471.24,252.563,465.375,252.563z M327.25,244.063c0,4.692-3.8,8.5-8.5,8.5h-25.5
		c-4.692,0-8.5-3.808-8.5-8.5v-4.25c0-4.692,3.808-8.5,8.5-8.5h25.5c4.7,0,8.5,3.808,8.5,8.5V244.063z"/>
</g>
</svg>
