<?xml version="1.0" encoding="utf-8"?>
<!-- Generator: Adobe Illustrator 16.0.0, SVG Export Plug-In . SVG Version: 6.00 Build 0)  -->
<!DOCTYPE svg PUBLIC "-//W3C//DTD SVG 1.1//EN" "http://www.w3.org/Graphics/SVG/1.1/DTD/svg11.dtd">
<svg version="1.1" id="Слой_1" xmlns="http://www.w3.org/2000/svg" xmlns:xlink="http://www.w3.org/1999/xlink" x="0px" y="0px"
	 width="120px" height="120px" viewBox="0 0 120 120" enable-background="new 0 0 120 120" xml:space="preserve">
<g id="normal">
	<g>
		<polygon fill="#CCFF66" points="64.389,36.294 64.389,57.927 91.88,65.23 89.787,72.973 58.5,64.662 55.624,64.662 55.624,63.898 
			55.624,61.73 55.624,36.294 		"/>
		<path fill="#66CC33" d="M75.25,101.482c-4.756,1.754-9.893,2.713-15.25,2.713c-24.369,0-44.196-19.825-44.196-44.195
			S35.631,15.804,60,15.804S104.195,35.631,104.195,60h9.305c0-29.5-24-53.5-53.5-53.5S6.5,30.5,6.5,60s24,53.5,53.5,53.5
			c10.467,0,20.234-3.033,28.49-8.25L75.25,101.482z"/>
		<polygon fill="#66CC33" points="67.293,92.345 97.5,89.75 87.238,118 		"/>
	</g>
</g>
<g id="active">
	<g>
		<polygon fill="#CCFF66" points="64.389,36.294 64.389,57.927 91.88,65.23 89.787,72.973 58.5,64.662 55.624,64.662 55.624,63.898 
			55.624,61.73 55.624,36.294 		"/>
		<path fill="#66CC33" d="M75.25,101.482c-4.756,1.754-9.893,2.713-15.25,2.713c-24.369,0-44.196-19.825-44.196-44.195
			S35.631,15.804,60,15.804S104.195,35.631,104.195,60h9.305c0-29.5-24-53.5-53.5-53.5S6.5,30.5,6.5,60s24,53.5,53.5,53.5
			c10.467,0,20.234-3.033,28.49-8.25L75.25,101.482z"/>
		<polygon fill="#66CC33" points="67.293,92.345 97.5,89.75 87.238,118 		"/>
	</g>
</g>
<g id="disabled" opacity="0.2">
	<g>
		
			<linearGradient id="SVGID_1_" gradientUnits="userSpaceOnUse" x1="81.2568" y1="41.1855" x2="56.8338" y2="83.4876" gradientTransform="matrix(1 0 0 -1 -0.02 119.0947)">
			<stop  offset="0" style="stop-color:#E1DEDB"/>
			<stop  offset="0" style="stop-color:#D8D4D1"/>
			<stop  offset="0.0553" style="stop-color:#C9C5C3"/>
			<stop  offset="0.161" style="stop-color:#A49E9F"/>
			<stop  offset="0.264" style="stop-color:#797377"/>
			<stop  offset="0.5225" style="stop-color:#F2F2F2"/>
			<stop  offset="0.5775" style="stop-color:#E4E3E3"/>
			<stop  offset="0.6832" style="stop-color:#BFBCBD"/>
			<stop  offset="0.8274" style="stop-color:#837E7F"/>
			<stop  offset="0.8764" style="stop-color:#6D6769"/>
			<stop  offset="1" style="stop-color:#C9C8C8"/>
			<stop  offset="1" style="stop-color:#979695"/>
		</linearGradient>
		<polygon fill="url(#SVGID_1_)" points="64.389,36.294 64.389,57.927 91.88,65.23 89.787,72.973 58.5,64.662 55.624,64.662 
			55.624,63.898 55.624,61.73 55.624,36.294 		"/>
		
			<linearGradient id="SVGID_2_" gradientUnits="userSpaceOnUse" x1="86.7588" y1="12.7837" x2="33.2761" y2="105.4184" gradientTransform="matrix(1 0 0 -1 -0.02 119.0947)">
			<stop  offset="0" style="stop-color:#E1DEDB"/>
			<stop  offset="0" style="stop-color:#D8D4D1"/>
			<stop  offset="0.0553" style="stop-color:#C9C5C3"/>
			<stop  offset="0.161" style="stop-color:#A49E9F"/>
			<stop  offset="0.264" style="stop-color:#797377"/>
			<stop  offset="0.5225" style="stop-color:#F2F2F2"/>
			<stop  offset="0.5775" style="stop-color:#E4E3E3"/>
			<stop  offset="0.6832" style="stop-color:#BFBCBD"/>
			<stop  offset="0.8274" style="stop-color:#837E7F"/>
			<stop  offset="0.8764" style="stop-color:#6D6769"/>
			<stop  offset="1" style="stop-color:#C9C8C8"/>
			<stop  offset="1" style="stop-color:#979695"/>
		</linearGradient>
		<path fill="url(#SVGID_2_)" d="M75.25,101.482c-4.756,1.754-9.893,2.713-15.25,2.713c-24.369,0-44.196-19.825-44.196-44.195
			S35.631,15.804,60,15.804S104.195,35.631,104.195,60h9.305c0-29.5-24-53.5-53.5-53.5S6.5,30.5,6.5,60s24,53.5,53.5,53.5
			c10.467,0,20.234-3.033,28.49-8.25L75.25,101.482z"/>
		
			<linearGradient id="SVGID_3_" gradientUnits="userSpaceOnUse" x1="95.2979" y1="5.7368" x2="79.2025" y2="33.6148" gradientTransform="matrix(1 0 0 -1 -0.02 119.0947)">
			<stop  offset="0" style="stop-color:#E1DEDB"/>
			<stop  offset="0" style="stop-color:#D8D4D1"/>
			<stop  offset="0.0553" style="stop-color:#C9C5C3"/>
			<stop  offset="0.161" style="stop-color:#A49E9F"/>
			<stop  offset="0.264" style="stop-color:#797377"/>
			<stop  offset="0.5225" style="stop-color:#F2F2F2"/>
			<stop  offset="0.5775" style="stop-color:#E4E3E3"/>
			<stop  offset="0.6832" style="stop-color:#BFBCBD"/>
			<stop  offset="0.8274" style="stop-color:#837E7F"/>
			<stop  offset="0.8764" style="stop-color:#6D6769"/>
			<stop  offset="1" style="stop-color:#C9C8C8"/>
			<stop  offset="1" style="stop-color:#979695"/>
		</linearGradient>
		<polygon fill="url(#SVGID_3_)" points="67.293,92.345 97.5,89.75 87.238,118 		"/>
	</g>
</g>
</svg>
