<?xml version="1.0" encoding="utf-8"?>
<!-- Generator: Adobe Illustrator 18.1.1, SVG Export Plug-In . SVG Version: 6.00 Build 0)  -->
<svg version="1.1" id="Ebene_1" xmlns="http://www.w3.org/2000/svg" xmlns:xlink="http://www.w3.org/1999/xlink" x="0px" y="0px"
	 width="84px" height="84px" viewBox="24 -24 84 84" enable-background="new 24 -24 84 84" xml:space="preserve">
<g id="FRAME_0_1_">
	
		<radialGradient id="SVGID_1_" cx="25.2173" cy="-391.9969" r="60.184" gradientTransform="matrix(1 0 0 1 -0.0552 379.8589)" gradientUnits="userSpaceOnUse">
		<stop  offset="0" style="stop-color:#FEF605"/>
		<stop  offset="1" style="stop-color:#FEF605"/>
	</radialGradient>
	<path fill="url(#SVGID_1_)" d="M24.143-11.963l6.36-5.761L49.145,1.318l0.121,0.041l1.96-2l13.561-14.001l0.279-0.24l0.201,0.041
		l5.32,5.88L55.185,7.48l8.921,9.161l0.8,0.84l0.16,0.16l0.439,0.439l1.482,1.521l0.48,0.48l0.8,0.84l0.359,0.32l3.56,3.721
		l-4.52,5.481c-0.294,0.399-0.493,0.586-0.601,0.56L49.624,13.483l-0.24,0.24l-4.721,5l-3.64,3.96l-0.201,0.201l-5.681,6.041
		l-0.599,0.64l-0.601,0.681l-0.08,0.079l-2.321,2.481h-0.119L24.7,26.484L43.302,7.402c0.08-0.24-0.266-0.666-1.04-1.28
		L24.143-11.963 M44.424,7.239L25.782,26.402l0.56,0.64l5.281,4.84L49.785,12.56l17.521,17.602l4.401-5.201L54.586,7.4L70.107-9.161
		l-4.64-5.08l-0.16,0.039l-1.68,1.68L49.426,2.12L30.744-17.002c-0.134-0.08-0.361,0.067-0.681,0.439l-4.881,4.44L44.424,7.239"/>
	
		<radialGradient id="SVGID_2_" cx="64.7405" cy="-394.4324" r="22.5306" gradientTransform="matrix(1 0 0 1 -0.0552 379.8589)" gradientUnits="userSpaceOnUse">
		<stop  offset="0" style="stop-color:#FEF605"/>
		<stop  offset="1" style="stop-color:#FEF605"/>
	</radialGradient>
	<path fill="url(#SVGID_2_)" d="M49.145,1.318l15.642-15.962L51.226-0.642l-1.96,2L49.145,1.318"/>
	
		<radialGradient id="SVGID_3_" cx="43.4911" cy="-372.58" r="27.2763" gradientTransform="matrix(1 0 0 1 -0.0552 379.8589)" gradientUnits="userSpaceOnUse">
		<stop  offset="0" style="stop-color:#FEF605"/>
		<stop  offset="1" style="stop-color:#FEF605"/>
	</radialGradient>
	<path fill="url(#SVGID_3_)" d="M24.143-11.963L42.264,6.119c0.774,0.614,1.12,1.04,1.04,1.28l-0.201,0.08L24.622-11.003
		C24.009-11.43,23.849-11.75,24.143-11.963"/>
	
		<radialGradient id="SVGID_4_" cx="43.1958" cy="-372.3971" r="26.5208" gradientTransform="matrix(1 0 0 1 -0.0552 379.8589)" gradientUnits="userSpaceOnUse">
		<stop  offset="0" style="stop-color:#FEF605"/>
		<stop  offset="1" style="stop-color:#FEF605"/>
	</radialGradient>
	<path fill="url(#SVGID_4_)" d="M43.304,7.399L24.703,26.481h-0.121L43.104,7.479L43.304,7.399"/>
	
		<radialGradient id="SVGID_5_" cx="80.629" cy="-330.091" r="53.4729" gradientTransform="matrix(1 0 0 1 -0.0552 379.8589)" gradientUnits="userSpaceOnUse">
		<stop  offset="0" style="stop-color:#FEF605"/>
		<stop  offset="1" style="stop-color:#FEF605"/>
	</radialGradient>
	<path fill="url(#SVGID_5_)" d="M68.947,16.36l0.08,0.039l0.08,0.041l0.08,0.041l0.079,0.041l0.08,0.039l0.119,0.041l0.08,0.041
		l0.08,0.041l0.079,0.041l0.121,0.039l0.079,0.041l0.08,0.041l0.16,0.08h0.039l4.801,2.2l-8.001,0.48l-1.482-1.521l3.8-0.201
		c-0.106-0.32-0.319-0.506-0.639-0.56l-3.761,0.16l-0.8-0.84L68.947,16.36 M53.066,17.44l0.96,0.96l-0.361,0.08l-0.121,0.24
		l0.84,0.279l0.201-0.041l1.32,1.32l0.32,0.32l0.16,0.16c-4.081,1.014-6.134,2-6.161,2.96c0,1.334,1.226,2.427,3.68,3.281h0.039
		l0.16,0.079l0.08,0.041l0.32,0.119l0.201,0.08l0.281,0.119l0.24,0.08l0.08,0.039l0.201,0.08l0.119,0.039l0.119,0.039l0.16,0.041
		l0.121,0.039l0.08,0.041l0.08,0.039l0.519,0.16l0.08,0.041l0.08,0.039l0.16,0.041l0.121,0.039l0.08,0.039l0.121,0.041l0.16,0.039
		l9.081,2.641l0.201,0.039l0.279,0.079l0.281,0.08l0.72,0.201l0.281,0.08l0.279,0.08l1.68,0.48l0.281,0.08l0.281,0.08l0.279,0.08
		l0.281,0.079l0.119,0.041l0.24,0.08l0.08,0.039l0.24,0.039l0.121,0.041l0.279,0.079l0.121,0.041l0.279,0.08l0.119,0.039l0.281,0.08
		l0.119,0.039l0.119,0.041l0.16,0.039l0.119,0.039l0.119,0.041l0.119,0.039l0.16,0.041l0.119,0.039l0.119,0.039l0.119,0.041
		l0.16,0.039l0.119,0.039l0.119,0.041l0.119,0.039l0.119,0.041l0.16,0.039l0.119,0.039l0.119,0.041l0.119,0.039l0.121,0.039
		l0.16,0.041l0.119,0.039l0.119,0.041l0.119,0.039l0.121,0.039l0.119,0.041l0.119,0.039l0.08,0.041l0.119,0.039l0.119,0.039
		l0.119,0.039l0.119,0.041l0.119,0.041l0.119,0.039l0.121,0.039l0.119,0.039l0.16,0.041l0.121,0.039l0.119,0.041l0.119,0.039
		l0.119,0.039l0.119,0.041l0.119,0.039l0.119,0.041l0.119,0.039l0.121,0.039l0.119,0.041l0.119,0.039l0.119,0.039l0.119,0.041
		l0.119,0.039l0.121,0.041l0.119,0.039l0.119,0.039l0.119,0.041l0.119,0.039l0.119,0.041l0.121,0.039l0.118,0.039l0.121,0.041
		l0.119,0.039l0.119,0.041l0.119,0.039l0.08,0.039l0.119,0.041l0.119,0.039l0.119,0.039l0.119,0.041l0.121,0.039l0.119,0.041
		l0.119,0.039l0.119,0.039l0.08,0.041l0.119,0.039l0.119,0.041l0.119,0.039l0.121,0.039l0.119,0.041l0.199,0.079l0.121,0.041
		l0.119,0.039l0.119,0.041l0.201,0.079l0.119,0.041l0.119,0.039l0.201,0.08l0.119,0.039l0.119,0.041l0.201,0.079l0.119,0.041
		l0.32,0.119l0.121,0.039l0.201,0.08l0.119,0.039l0.32,0.119l0.32,0.121l0.521,0.201l0.32,0.119h0.039l4.28,1.719l5,2.2l3.28,1.56
		l7.361,3.841l-25.242,3.56l-9.48-5.88l-5.921-2.92l-8.761-3.56l-14.922-5.481l-4.001-1.719l-1.52-0.759l-1.76-1.12l5.681-6.041
		l-0.121,0.32l0.201,0.039h1.6l0.84-0.799l1.36-0.72l-0.119-0.281l-0.48-0.079h-0.96l-0.08,0.039l-0.08,0.039l-0.08,0.041
		l-0.08,0.039h-0.041l-1.12,0.64l-0.64,0.521l3.64-3.96l2.321-0.48L53.066,17.44 M46.305,20.08c-0.506,0.107-0.707,0.266-0.599,0.48
		l1.4,0.16l1.2-0.441l2.72-0.679l-0.16-0.281L50.345,19.2c-0.294-0.186-0.694-0.173-1.2,0.041L46.305,20.08 M40.503,24.241
		l-0.4,0.119l-0.08,0.241l0.24,0.96l0.8,0.96h0.4l1.52-0.24l-0.96-1.12c-0.026-0.56-0.107-0.867-0.24-0.92l-0.361-0.039
		L40.503,24.241 M43.905,27.522c-0.72,0.079-0.867,0.294-0.439,0.64l4,1.759l1.76-0.399c0-0.346-0.279-0.547-0.839-0.601h-0.041
		l-0.201-0.08l-0.32-0.119l-0.201-0.08l-2.84-1.28L43.905,27.522 M53.066,30.521l-0.84,0.241c-0.587,0.025-0.867,0.201-0.84,0.519
		l6.001,1.882l1.6-0.522c-0.053-0.373-0.333-0.546-0.84-0.521l-0.279-0.119l-0.4-0.119l-0.4-0.119l-0.4-0.119l-0.121-0.039
		l-0.279-0.08l-0.119-0.041l-0.279-0.079l-0.121-0.041l-0.4-0.119l-0.119-0.039l-0.4-0.121l-0.119-0.039l-0.119-0.039l-0.24-0.039
		l-0.119-0.041l-0.121-0.039l-0.079-0.041l-0.081-0.039l-0.24-0.039l-0.119-0.041l-0.119-0.039l-0.121-0.041l-0.08-0.039
		l-0.08-0.039L53.066,30.521 M63.466,33.882l-0.119,0.041l-0.16,0.039l-0.119,0.041l-0.041,0.039h-0.08l-0.72,0.279l-0.16,0.321
		l0.16,0.079l6.441,2.241l1.8-0.56c-0.08-0.4-0.387-0.615-0.92-0.641h-0.041l-0.24-0.079l-0.24-0.08l-0.08-0.041l-0.16-0.039
		l-0.08-0.039l-0.24-0.08l-0.119-0.039l-0.121-0.041l-0.201-0.08l-0.16-0.039l-0.119-0.039l-0.119-0.041l-0.08-0.039l-0.241-0.08
		l-0.119-0.039l-0.24-0.08l-0.24-0.08l-0.119-0.039l-0.241-0.08l-0.119-0.039l-0.119-0.041l-0.119-0.039l-0.24-0.08l-0.119-0.039
		l-0.241-0.08l-0.16-0.041l-0.121-0.039l-0.119-0.039l-0.119-0.039l-0.121-0.041l-0.08-0.041l-0.16-0.039l-0.119-0.039l-0.08-0.039
		l-0.16-0.041l-0.08-0.039l-0.08-0.041H63.87l-0.281-0.039L63.466,33.882 M80.67,41.883l1.92-0.56l-0.241-0.48l-4.04-1.76
		l-2.84-1.079c-1.201,0.213-1.774,0.506-1.72,0.88L80.67,41.883 M89.11,46.443l2.36,1.56l0.88,0.72l2.72-0.439
		c-0.026-0.454-1.107-1.294-3.24-2.52l-4-2.2c-1.467,0.186-2.2,0.48-2.2,0.88L89.11,46.443"/>
	
		<radialGradient id="SVGID_6_" cx="67.1879" cy="-348.8614" r="24.9638" gradientTransform="matrix(1 0 0 1 -0.0552 379.8589)" gradientUnits="userSpaceOnUse">
		<stop  offset="0" style="stop-color:#FE050D"/>
		<stop  offset="1" style="stop-color:#FE050D"/>
	</radialGradient>
	<path fill="url(#SVGID_6_)" d="M53.066,17.44l-3.681-3.72l0.24-0.24l17.442,17.522h-0.279l-0.201-0.039l-8.761-8.722l-0.041-0.08
		l-0.16-0.16l-0.4-0.4l-0.359-0.361L56.626,21l-0.24-0.24l-0.16-0.16l-0.32-0.32l-1.32-1.32l-0.56-0.56L53.066,17.44"/>
	
		<radialGradient id="SVGID_7_" cx="68.76" cy="-362.5004" r="3.9273" gradientTransform="matrix(1 0 0 1 -0.0552 379.8589)" gradientUnits="userSpaceOnUse">
		<stop  offset="0" style="stop-color:#D0D0D0"/>
		<stop  offset="1" style="stop-color:#D0D0D0"/>
	</radialGradient>
	<path fill="url(#SVGID_7_)" d="M64.907,17.479l3.761-0.16l0.039,0.119l-0.16,0.041l-3.48,0.16L64.907,17.479"/>
	
		<radialGradient id="SVGID_8_" cx="68.7899" cy="-362.2415" r="3.6965" gradientTransform="matrix(1 0 0 1 -0.0552 379.8589)" gradientUnits="userSpaceOnUse">
		<stop  offset="0" style="stop-color:#FFFFFF"/>
		<stop  offset="1" style="stop-color:#EFEFEF"/>
	</radialGradient>
	<path fill="url(#SVGID_8_)" d="M65.066,17.639l3.48-0.16l0.16-0.041l-0.039-0.119c0.32,0.054,0.533,0.24,0.639,0.56l-3.8,0.201
		L65.066,17.639"/>
	
		<radialGradient id="SVGID_9_" cx="54.3991" cy="-360.8347" r="0.8524" gradientTransform="matrix(1 0 0 1 -0.0552 379.8589)" gradientUnits="userSpaceOnUse">
		<stop  offset="0" style="stop-color:#FFFFFF"/>
		<stop  offset="1" style="stop-color:#F4F4F4"/>
	</radialGradient>
	<path fill="url(#SVGID_9_)" d="M54.026,18.4l0.56,0.56L54.385,19l-0.84-0.279l0.121-0.24L54.026,18.4"/>
	
		<radialGradient id="SVGID_10_" cx="81.3256" cy="-328.9514" r="52.1932" gradientTransform="matrix(1 0 0 1 -0.0552 379.8589)" gradientUnits="userSpaceOnUse">
		<stop  offset="0" style="stop-color:#E3E3E3"/>
		<stop  offset="1" style="stop-color:#7F7F7F"/>
	</radialGradient>
	<path fill="url(#SVGID_10_)" d="M74.748,18.919c0.666,0.214,0.974,0.441,0.92,0.681l-8.201,0.48l-0.48-0.48l8.001-0.48l-4.801-2.2
		L74.748,18.919 M56.386,20.76l0.24,0.24l0.24,0.24l-2.44,0.641l-1.2,0.439l-1.64,0.88c-0.986,0.854-1.226,1.453-0.72,1.8
		c0.08,0.267,0.467,0.615,1.16,1.04l1.88,0.961c-2.454-0.854-3.68-1.947-3.68-3.281C50.252,22.76,52.305,21.774,56.386,20.76
		 M34.543,29.561l0.599-0.64l1.76,1.12l1.52,0.759l4.001,1.719l14.922,5.481l8.761,3.56l5.921,2.92l9.48,5.88l25.242-3.56
		l-7.361-3.841l-3.28-1.56l-5-2.2l-4.28-1.719L90.749,39l7.56,3.36l8.721,4.481c0.534,0.134,0.854,0.468,0.961,1l-26.843,3.8
		l-7.041-4.6l-2.72-1.64l-5.96-2.999l-4.961-2.12l-4.8-1.88L41.544,33.12l-3.68-1.64l-1.48-0.759L34.543,29.561"/>
	
		<radialGradient id="SVGID_11_" cx="48.2239" cy="-360.2365" r="2.269" gradientTransform="matrix(1 0 0 1 -0.0552 379.8589)" gradientUnits="userSpaceOnUse">
		<stop  offset="0" style="stop-color:#D1D1D1"/>
		<stop  offset="1" style="stop-color:#D0D0D0"/>
	</radialGradient>
	<path fill="url(#SVGID_11_)" d="M46.305,20.08l2.84-0.839c0.506-0.214,0.907-0.227,1.2-0.041l-3.32,0.96L46.305,20.08"/>
	
		<radialGradient id="SVGID_12_" cx="69.7959" cy="-359.9069" r="19.7678" gradientTransform="matrix(1 0 0 1 -0.0552 379.8589)" gradientUnits="userSpaceOnUse">
		<stop  offset="0" style="stop-color:#AEAEAE"/>
		<stop  offset="1" style="stop-color:#969696"/>
	</radialGradient>
	<path fill="url(#SVGID_12_)" d="M75.669,19.6l-0.041,0.88l-7.361,0.439l-0.8-0.84L75.669,19.6M57.226,21.601l0.4,0.4
		c-4.053,0.853-6.308,1.853-6.76,2.999c-0.506-0.346-0.267-0.946,0.72-1.8l1.64-0.88l1.2-0.439l2.44-0.641L57.226,21.601"/>
	
		<radialGradient id="SVGID_13_" cx="50.5503" cy="-360.4724" r="4.9864" gradientTransform="matrix(1 0 0 1 -0.0552 379.8589)" gradientUnits="userSpaceOnUse">
		<stop  offset="0" style="stop-color:#FFFFFF"/>
		<stop  offset="1" style="stop-color:#FDFDFD"/>
	</radialGradient>
	<path fill="url(#SVGID_13_)" d="M46.305,20.08l0.72,0.08l3.32-0.96l0.521,0.119l0.16,0.281l-2.72,0.679l-1.2,0.441l-1.4-0.16
		C45.598,20.346,45.797,20.187,46.305,20.08"/>
	
		<radialGradient id="SVGID_14_" cx="51.0908" cy="-355.0147" r="24.9981" gradientTransform="matrix(1 0 0 1 -0.0552 379.8589)" gradientUnits="userSpaceOnUse">
		<stop  offset="0" style="stop-color:#C0C0C0"/>
		<stop  offset="1" style="stop-color:#7A7A7A"/>
	</radialGradient>
	<path fill="url(#SVGID_14_)" d="M68.267,20.92l7.361-0.439c-0.106,0.241-0.32,0.361-0.64,0.361l-6.361,0.399L68.267,20.92
		 M57.626,22.001l0.16,0.16l0.041,0.08c-3.387,0.56-5.707,1.48-6.961,2.76C51.319,23.854,53.572,22.853,57.626,22.001"/>
	
		<radialGradient id="SVGID_15_" cx="43.0968" cy="-357.9543" r="1.9186" gradientTransform="matrix(1 0 0 1 -0.0552 379.8589)" gradientUnits="userSpaceOnUse">
		<stop  offset="0" style="stop-color:#D3D3D3"/>
		<stop  offset="1" style="stop-color:#D3D3D3"/>
	</radialGradient>
	<path fill="url(#SVGID_15_)" d="M43.144,21.361h0.96l-1.239,0.679l-0.72,0.64h-0.92l0.4-0.4l1.16-0.759h0.041l0.08-0.039
		l0.08-0.041l0.08-0.039L43.144,21.361"/>
	
		<radialGradient id="SVGID_16_" cx="40.9052" cy="-356.9908" r="4.0419" gradientTransform="matrix(1 0 0 1 -0.0552 379.8589)" gradientUnits="userSpaceOnUse">
		<stop  offset="0" style="stop-color:#FFFFFF"/>
		<stop  offset="1" style="stop-color:#D2D2D2"/>
	</radialGradient>
	<path fill="url(#SVGID_16_)" d="M42.865,22.04l1.239-0.679l0.48,0.079l0.119,0.281l-1.36,0.72l-0.84,0.799h-1.6L40.703,23.2
		l0.121-0.32l0.201-0.201l0.64-0.521l1.12-0.64l-1.16,0.759l-0.4,0.4h0.92L42.865,22.04"/>
	
		<radialGradient id="SVGID_17_" cx="41.3952" cy="-354.1158" r="1.727" gradientTransform="matrix(1 0 0 1 -0.0552 379.8589)" gradientUnits="userSpaceOnUse">
		<stop  offset="0" style="stop-color:#D7D7D7"/>
		<stop  offset="1" style="stop-color:#D5D5D5"/>
	</radialGradient>
	<path fill="url(#SVGID_17_)" d="M40.503,24.241l0.92-0.039c-0.054,0.4,0.253,0.934,0.92,1.6h-0.4l-0.439,0.08l-0.601-0.521
		L40.503,24.241"/>
	
		<radialGradient id="SVGID_18_" cx="42.2739" cy="-354.5059" r="2.3224" gradientTransform="matrix(1 0 0 1 -0.0552 379.8589)" gradientUnits="userSpaceOnUse">
		<stop  offset="0" style="stop-color:#FFFFFF"/>
		<stop  offset="1" style="stop-color:#C0C0C0"/>
	</radialGradient>
	<path fill="url(#SVGID_18_)" d="M40.503,24.241l0.4,1.12l0.601,0.521l0.439-0.08h0.4c-0.666-0.666-0.974-1.2-0.92-1.6l0.361,0.039
		c0.134,0.054,0.214,0.361,0.24,0.92l0.96,1.12l-1.52,0.24h-0.4l-0.8-0.96l-0.24-0.96l0.08-0.241L40.503,24.241"/>
	
		<radialGradient id="SVGID_19_" cx="31.3386" cy="-347.109" r="9.1878" gradientTransform="matrix(1 0 0 1 -0.0552 379.8589)" gradientUnits="userSpaceOnUse">
		<stop  offset="0" style="stop-color:#FE050D"/>
		<stop  offset="1" style="stop-color:#FE050D"/>
	</radialGradient>
	<path fill="url(#SVGID_19_)" d="M24.582,26.481h0.121l6.721,6.322l-0.199-0.039L24.582,26.481"/>
	
		<radialGradient id="SVGID_20_" cx="47.6866" cy="-350.7319" r="4.0622" gradientTransform="matrix(1 0 0 1 -0.0552 379.8589)" gradientUnits="userSpaceOnUse">
		<stop  offset="0" style="stop-color:#DBDBDB"/>
		<stop  offset="1" style="stop-color:#D9D9D9"/>
	</radialGradient>
	<path fill="url(#SVGID_20_)" d="M43.905,27.522l0.88-0.16l2.84,1.28l0.201,0.08l0.32,0.119l0.201,0.08h0.041l-0.8,0.24l-2.36-0.96
		L43.905,27.522"/>
	
		<radialGradient id="SVGID_21_" cx="47.2077" cy="-350.5421" r="4.2068" gradientTransform="matrix(1 0 0 1 -0.0552 379.8589)" gradientUnits="userSpaceOnUse">
		<stop  offset="0" style="stop-color:#FFFFFF"/>
		<stop  offset="1" style="stop-color:#D1D1D1"/>
	</radialGradient>
	<path fill="url(#SVGID_21_)" d="M48.386,28.921c0.56,0.054,0.839,0.253,0.839,0.601l-1.76,0.399l-4-1.759
		c-0.427-0.346-0.281-0.561,0.439-0.64l1.32,0.679l2.36,0.96L48.386,28.921"/>
	
		<radialGradient id="SVGID_22_" cx="33.9685" cy="-350.7919" r="53.0534" gradientTransform="matrix(1 0 0 1 -0.0552 379.8589)" gradientUnits="userSpaceOnUse">
		<stop  offset="0" style="stop-color:#8C8C8C"/>
		<stop  offset="1" style="stop-color:#717171"/>
	</radialGradient>
	<path fill="url(#SVGID_22_)" d="M34.543,29.561l1.84,1.16l1.48,0.759l3.68,1.64l14.122,5.281l4.8,1.88l4.961,2.12l5.96,2.999
		l2.72,1.64l7.041,4.6l-0.041,1.64l-7.24-4.84l-2.6-1.601l-5.639-2.92l-7.321-3.16l-14.681-5.6l-4.161-1.802l-3.24-1.639l-2.28-1.48
		L34.543,29.561"/>
	
		<radialGradient id="SVGID_23_" cx="34.0102" cy="-349.6966" r="52.7774" gradientTransform="matrix(1 0 0 1 -0.0552 379.8589)" gradientUnits="userSpaceOnUse">
		<stop  offset="0" style="stop-color:#8C8C8C"/>
		<stop  offset="1" style="stop-color:#4F4F4F"/>
	</radialGradient>
	<path fill="url(#SVGID_23_)" d="M33.944,30.242l2.28,1.48l3.24,1.639l4.161,1.802l14.681,5.6l7.321,3.16l5.639,2.92l2.6,1.601
		l7.24,4.84l0.041,0.4l-9.401-6.201l-5.201-2.76l-8.04-3.521l-17.042-6.641l-4.641-2.241l-1.68-0.999l-1.28-1L33.944,30.242"/>
	
		<radialGradient id="SVGID_24_" cx="57.8172" cy="-347.6575" r="5.7309" gradientTransform="matrix(1 0 0 1 -0.0552 379.8589)" gradientUnits="userSpaceOnUse">
		<stop  offset="0" style="stop-color:#DFDFDF"/>
		<stop  offset="1" style="stop-color:#DDDDDD"/>
	</radialGradient>
	<path fill="url(#SVGID_24_)" d="M53.066,30.521l0.119,0.041l0.08,0.039l0.08,0.039l0.121,0.041l0.119,0.039l0.119,0.041l0.24,0.039
		l0.081,0.039l0.079,0.041l0.121,0.039l0.119,0.041L54.585,31l0.119,0.039l0.119,0.039l0.4,0.121l0.119,0.039l0.4,0.119l0.121,0.041
		l0.279,0.079l0.119,0.041l0.279,0.08l0.121,0.039l0.4,0.119l0.4,0.119l0.4,0.119l0.279,0.119l-0.96,0.201l-4.961-1.559
		L53.066,30.521"/>
	
		<radialGradient id="SVGID_25_" cx="25.2173" cy="-391.9969" r="59.7308" gradientTransform="matrix(1 0 0 1 -0.0552 379.8589)" gradientUnits="userSpaceOnUse">
		<stop  offset="0" style="stop-color:#FE050D"/>
		<stop  offset="1" style="stop-color:#FE050D"/>
	</radialGradient>
	<path fill="url(#SVGID_25_)" d="M44.424,7.239L25.181-12.123l4.881-4.44c0.32-0.373,0.547-0.521,0.681-0.439L49.425,2.119
		l14.202-14.642l1.68-1.68l0.16-0.039l4.64,5.08L54.585,7.399l17.121,17.562l-4.401,5.201L49.784,12.559L31.622,31.881l-5.281-4.84
		l-0.56-0.64L44.424,7.239"/>
	
		<radialGradient id="SVGID_26_" cx="56.959" cy="-347.3086" r="5.671" gradientTransform="matrix(1 0 0 1 -0.0552 379.8589)" gradientUnits="userSpaceOnUse">
		<stop  offset="0" style="stop-color:#FFFFFF"/>
		<stop  offset="1" style="stop-color:#DADADA"/>
	</radialGradient>
	<path fill="url(#SVGID_26_)" d="M57.186,32.321l0.96-0.201c0.506-0.025,0.787,0.148,0.84,0.521l-1.6,0.522l-6.001-1.882
		c-0.026-0.319,0.253-0.493,0.84-0.519L57.186,32.321"/>
	
		<radialGradient id="SVGID_27_" cx="67.677" cy="-344.2288" r="4.9181" gradientTransform="matrix(1 0 0 1 -0.0552 379.8589)" gradientUnits="userSpaceOnUse">
		<stop  offset="0" style="stop-color:#E3E3E3"/>
		<stop  offset="1" style="stop-color:#E1E1E1"/>
	</radialGradient>
	<path fill="url(#SVGID_27_)" d="M63.466,33.882l0.119-0.039l0.281,0.039h0.119l0.08,0.041l0.08,0.039l0.16,0.041l0.08,0.039
		l0.119,0.039l0.16,0.039l0.08,0.041l0.121,0.041l0.119,0.039l0.119,0.039l0.121,0.039l0.16,0.041l0.241,0.08l0.119,0.039l0.24,0.08
		l0.119,0.039l0.119,0.041l0.119,0.039l0.241,0.08l0.119,0.039l0.24,0.08l0.24,0.08l0.119,0.039l0.241,0.08l0.08,0.039l0.119,0.041
		l0.119,0.039l0.16,0.039l0.201,0.08l0.121,0.041l0.119,0.039l0.24,0.08l0.08,0.039l0.16,0.039l0.08,0.041l0.24,0.08l0.24,0.079
		h0.041l-0.92,0.281l-5.681-2h0.08l0.041-0.039l0.119-0.041l0.16-0.039L63.466,33.882"/>
	
		<radialGradient id="SVGID_28_" cx="68.2624" cy="-343.5968" r="6.3751" gradientTransform="matrix(1 0 0 1 -0.0552 379.8589)" gradientUnits="userSpaceOnUse">
		<stop  offset="0" style="stop-color:#FFFFFF"/>
		<stop  offset="1" style="stop-color:#DEDEDE"/>
	</radialGradient>
	<path fill="url(#SVGID_28_)" d="M69.547,35.762c0.534,0.026,0.84,0.241,0.92,0.641l-1.8,0.56l-6.441-2.241l-0.16-0.079l0.16-0.321
		l0.72-0.279l5.681,2L69.547,35.762"/>
	
		<radialGradient id="SVGID_29_" cx="80.0939" cy="-338.7821" r="6.707" gradientTransform="matrix(1 0 0 1 -0.0552 379.8589)" gradientUnits="userSpaceOnUse">
		<stop  offset="0" style="stop-color:#FFFFFF"/>
		<stop  offset="1" style="stop-color:#DCDCDC"/>
	</radialGradient>
	<path fill="url(#SVGID_29_)" d="M80.749,40.843c0.48-0.054,0.72-0.16,0.72-0.32l-4.561-1.96l-1.399-0.521l-0.759,0.24l5.761,2.561
		H80.749 M80.67,41.883l-6.921-3c-0.054-0.374,0.521-0.666,1.72-0.88l2.84,1.079l4.04,1.76l0.241,0.48L80.67,41.883"/>
	
		<radialGradient id="SVGID_30_" cx="81.2646" cy="-339.1819" r="6.9232" gradientTransform="matrix(1 0 0 1 -0.0552 379.8589)" gradientUnits="userSpaceOnUse">
		<stop  offset="0" style="stop-color:#E8E8E8"/>
		<stop  offset="1" style="stop-color:#E6E6E6"/>
	</radialGradient>
	<path fill="url(#SVGID_30_)" d="M80.749,40.843h-0.24l-5.761-2.561l0.759-0.24l1.399,0.521l4.561,1.96
		C81.469,40.683,81.229,40.789,80.749,40.843"/>
	
		<radialGradient id="SVGID_31_" cx="91.1453" cy="-332.7717" r="6.057" gradientTransform="matrix(1 0 0 1 -0.0552 379.8589)" gradientUnits="userSpaceOnUse">
		<stop  offset="0" style="stop-color:#FFFFFF"/>
		<stop  offset="1" style="stop-color:#DEDEDE"/>
	</radialGradient>
	<path fill="url(#SVGID_31_)" d="M92.951,47.524l0.96-0.16l-0.201-0.201l-3.761-2.359l-2.12-1.12l-1.04,0.201l3.441,2l2.359,1.64
		h0.362 M89.11,46.443l-3.48-2c0-0.4,0.733-0.694,2.2-0.88l4,2.2c2.134,1.226,3.214,2.067,3.24,2.52l-2.72,0.439l-0.88-0.72
		L89.11,46.443"/>
	
		<radialGradient id="SVGID_32_" cx="92.3546" cy="-332.8954" r="6.3258" gradientTransform="matrix(1 0 0 1 -0.0552 379.8589)" gradientUnits="userSpaceOnUse">
		<stop  offset="0" style="stop-color:#EEEEEE"/>
		<stop  offset="1" style="stop-color:#EDEDED"/>
	</radialGradient>
	<path fill="url(#SVGID_32_)" d="M92.951,47.524H92.59l-2.359-1.64l-3.441-2l1.04-0.201l2.12,1.12l3.761,2.359l0.201,0.201
		L92.951,47.524"/>
	
		<radialGradient id="SVGID_33_" cx="81.2272" cy="-328.2305" r="27.0753" gradientTransform="matrix(1 0 0 1 -0.0552 379.8589)" gradientUnits="userSpaceOnUse">
		<stop  offset="0" style="stop-color:#888888"/>
		<stop  offset="1" style="stop-color:#868686"/>
	</radialGradient>
	<path fill="url(#SVGID_33_)" d="M107.872,49.364l-26.763,3.921l0.041-1.64l26.843-3.8L107.872,49.364"/>
	
		<radialGradient id="SVGID_34_" cx="81.179" cy="-326.5884" r="27.0335" gradientTransform="matrix(1 0 0 1 -0.0552 379.8589)" gradientUnits="userSpaceOnUse">
		<stop  offset="0" style="stop-color:#878787"/>
		<stop  offset="1" style="stop-color:#858585"/>
	</radialGradient>
	<path fill="url(#SVGID_34_)" d="M81.108,53.285l26.763-3.921l-0.48,0.521l-26.243,3.801L81.108,53.285"/>
	<path opacity="0.3961" enable-background="new    " d="M30.463-17.605h0.119l-1.6,1.36l-0.08,0.08l-0.041-0.08l0.24-0.16l0.08-0.08
		l0.361-0.32l0.361-0.32l0.08-0.08l0.32-0.279l0.08-0.041L30.463-17.605 M28.623-15.924l-0.08,0.041l-0.08,0.041l0.279-0.24
		l0.041-0.08l0.08,0.08L28.623-15.924 M28.463-15.844l-0.4,0.521l-3.601,3.16l0.16,0.041L43.905,7.2l-0.16,0.041l-1.44,1.32
		L24.863,26.482h-0.24L43.105,7.48L24.423-11.242c-0.427-0.24-0.494-0.506-0.201-0.8l0.32-0.281l0.08-0.08l0.279-0.24l0.121-0.08
		l0.24-0.24l0.32-0.32l0.119-0.08l0.201-0.199l0.16-0.121l0.16-0.16l0.24-0.199l0.08-0.041l0.24-0.24l0.16-0.16l0.281-0.24
		l0.361-0.32l0.08-0.08l0.32-0.281l0.08-0.039l0.32-0.32L28.463-15.844 M49.385,1.318l0.16-0.361L60.026-9.723l-0.041-0.08
		l1.76-1.68l-0.041-0.08l1.76-1.68l-0.041-0.08l1.2-1.2l0.32-0.279l0.24-0.041L49.385,1.318 M49.305,1.438l0.08,0.08l-0.08,0.119
		l-1.36-1.36L33.424-14.604l-2.641-2.72l-0.16-0.201l0.08-0.041L49.146,1.317L49.305,1.438 M49.865,13.199l-0.16-0.039
		c0.053,0.134-0.054,0.32-0.32,0.56l-7.041,7.442l0.041,0.079l-0.64,0.561l0.041,0.08l-0.64,0.56l-0.119,0.201l0.16-0.08l0.08,0.039
		l-0.16,0.08l-0.08,0.041l-0.08,0.119h-0.16l0.08,0.16l-0.08,0.041l-0.08,0.16l-0.119-0.039l-0.64,0.56l0.041,0.08l-5.121,5.441
		l1.8,1.16l1.16-0.119l13.201,1.04h0.48l-0.201-0.119c0.346,0.054,0.694-0.014,1.04-0.201l2.321,0.079l2.68,0.721l5.16,0.399
		l4.481-0.96h0.599l8.681,2.561l0.041,0.079l-1.96,0.4l-1.76,0.361l-1.079,0.079l-0.96-0.32c-0.16-0.106-0.227-0.707-0.201-1.8
		l-0.32-0.08l-6.281,1.281l0.121,0.16l-0.08,0.241l-1.24,0.16l-0.16,0.08l0.041,0.119l6.321,2.16c1.067-0.506,1.694-0.64,1.88-0.399
		l-1.92,0.64l-6.481-2.28l-1.92-0.119l1.92-0.441l0.681-0.039l0.681-0.24c0.614-1.387,0.253-1.934-1.08-1.64l-9.121,1.88l6.76,0.48
		l-7.88,1.64c-0.346,0.16-0.48,0.306-0.4,0.439l6.641,2.481l0.199-0.121l2.081,0.8l0.72,0.4l0.84,0.24l4.561,2l2.12,1.04l0.24,0.119
		l-0.039,0.08l0.521,0.16l3.761,2.12c1.12,0.906,1.8,1.334,2.039,1.28l0.16,0.281l0.201-0.041c0.553,0.414,1.14,0.788,1.76,1.12
		l0.24,0.16l0.039,0.201l0.201-0.041l1.96,1.24l0.08,0.16l0.599,0.281l0.121,0.119l-0.08,0.08l0.4,0.08v0.439l26.122-3.72
		l0.521-0.041L108,47.764l-0.16,1.64l-26.683,3.88l0.039,0.279l-0.201-0.039l-2.56-1.68l-6.722-4.481l-3.68-2l-3.48-1.68l-4.32-1.88
		l-8.041-3.121l-0.32-0.359l-0.08-0.72l0.08-0.96l-3.32-1.24c-0.186,0.107-0.16,0.733,0.08,1.88l-0.32-0.08l-6.641-2.64l-3.68-1.72
		l-2.84-1.6l-1.2-0.92h-0.119l-2.24,2.36v-0.16h-0.119l-6.481-6.041l0.279-0.039l6.321,5.88v-0.439l7.762-8.161l-0.041-0.08
		l0.64-0.56l-0.041-0.08l1.84-1.96l0.681-0.599l-0.041-0.08l0.64-0.56l-0.041-0.08l1.24-1.32l0.681-0.599l-0.041-0.08l0.64-0.56
		l-0.039-0.08l0.64-0.56l-0.041-0.08l1.24-1.32l0.681-0.599l-0.041-0.08l1.239-1.2l-0.039-0.08l0.56-0.561
		C49.812,12.599,49.865,12.799,49.865,13.199 M53.345,17.68l-2.52-2.961l-0.92-1.44l17.442,17.442v-0.56l4.36-5.24l0.281-0.041
		l-4.24-4.36L55.626,8.078c-0.374-0.48-0.707-0.72-1-0.72L66.667-5.523l0.679-0.599c-0.054-0.134,0.147-0.346,0.601-0.64
		l-0.041-0.08l0.64-0.56l-0.039-0.08l0.64-0.56c-0.054-0.134,0.147-0.387,0.601-0.761l0.359-0.359l0.16,0.039l-4.881-5.32
		l-0.039-0.24l5.24,5.72L55.225,7.44l-0.041,0.08l2.28,2.36L68.346,21l1.28,0.039l4.92-0.359h0.96l-0.24,0.08l-6.722,0.4l0.08,0.079
		l3.56,3.721l-4.84,5.761v0.041l-0.08,0.039c-0.107,0.266-0.387,0.266-0.84,0l-8.561-8.561l-0.24,0.039l-0.16,0.041l-0.24,0.039
		l-0.16,0.041l-0.24,0.039l-0.121,0.039l-0.24,0.041l-0.08,0.039l-0.281,0.039l-0.08,0.041l-0.24,0.039l-0.08,0.041
		c-2.667,0.694-4.268,1.48-4.801,2.359c-0.134,0-0.266-0.253-0.4-0.759l0.281-0.84l0.919-0.8l0.48-0.08l1.76-0.719l2.921-0.641
		L53.345,17.68 M69.267,17.721l0.16,0.08l-0.039,0.08L69.267,17.721 M54.346,19l-0.759-0.32C54.065,18.654,54.32,18.759,54.346,19
		 M45.665,20.52l-0.08-0.041l0.119-0.039L45.665,20.52 M47.065,20.6l1.521-0.4l-1.48,0.522L47.065,20.6 M57.626,22.001l-0.759-0.761
		l0.119,0.881L57.626,22.001 M42.464,23.281l-0.119-0.359l0.72-0.641l1.52-0.72l0.201,0.08l-1.48,0.881L42.464,23.281 M42.545,25.72
		l-0.361-0.359l-0.4-1l0.24,0.119C42.051,24.907,42.225,25.321,42.545,25.72 M43.025,26.321l-0.121-0.201l0.201,0.119L43.025,26.321
		 M40.184,24.28c0.24,1.015,0.573,1.627,1,1.841l-0.119,0.4C39.971,25.588,39.677,24.841,40.184,24.28 M47.465,29.881l-3.281-1.36
		l-1.08-0.56l0.201-0.241c0.106-0.106,0.4,0.041,0.88,0.441h0.24l0.119,0.201l0.119-0.08l0.24,0.119v0.119l0.041-0.08l0.439,0.16
		l0.281,0.119l0.119,0.201l0.041-0.08l0.32,0.08c-0.026,0.213,0.387,0.427,1.24,0.64l0.16,0.281c1.041-0.374,1.64-0.493,1.8-0.361
		L47.465,29.881 M57.506,33.162l1.6-0.601l-0.439-0.041l-1.28,0.441v0.16L57.506,33.162 M48.545,35.402
		c-0.053-0.16,0.134-0.32,0.56-0.48l4.081-0.84l-7.641-0.521l-1.28,0.08l-0.121,0.119l0.601,0.241L48.545,35.402 M73.708,38.882
		l0.279-0.201c1.681,0.881,2.668,1.227,2.961,1.04l0.399,0.16l0.041,0.24l0.119-0.16l0.08,0.241l0.119-0.16l0.08,0.241l0.119-0.16
		l0.08,0.16c0.533,0.053,0.787,0.186,0.759,0.399l0.32-0.039l0.039,0.201v-0.119h0.121l0.079,0.201l0.281-0.041l0.08,0.201v-0.119
		l0.72,0.279l0.16,0.081l0.039,0.279c1.255-0.533,1.987-0.653,2.202-0.361l-2.202,0.641L73.708,38.882 M85.63,44.484l0.24-0.361
		h0.24l0.96,0.521l-0.039,0.16l0.039-0.08l0.439,0.16l0.281,0.16v0.16l0.201-0.041c0.346,0.32,0.573,0.454,0.681,0.4l0.079,0.24
		v-0.119h0.121c0.453,0.454,0.906,0.734,1.36,0.84l0.039,0.201l0.201-0.039v0.199l0.119-0.079c0,0.16,0.374,0.4,1.12,0.72l0.16,0.16
		l-0.079,0.08l0.56,0.281l0.08,0.119l-0.08,0.32l2.6-0.32l-0.041-0.201l0.4,0.24l-0.16,0.119l-2.84,0.361l-3.841-2.6L85.63,44.484"
		/>
	<path opacity="0.7961" enable-background="new    " d="M49.385,1.318l-0.08,0.119l-0.16-0.119l0.4-0.361L49.385,1.318
		 M49.904,13.279l0.92,1.44l2.52,2.961l-3.96-3.96c0.267-0.24,0.374-0.426,0.32-0.56l0.16,0.039L49.904,13.279 M68.547,21.16
		l6.722-0.4l-6.642,0.48L68.547,21.16 M24.623,26.481h0.24h0.119l6.481,6.041h0.119v0.16l-0.041,0.119l-0.361-0.08l-5.48-5.2h-0.119
		L24.623,26.481 M57.506,33.162l-0.121-0.041v-0.16l1.28-0.441l0.439,0.041L57.506,33.162 M62.507,32.202
		c1.334-0.294,1.694,0.253,1.08,1.64l-0.681,0.24l-0.681,0.039l-1.92,0.441h-0.16l-6.76-0.48L62.507,32.202 M48.545,35.402
		l3.32,1.24l-0.08,0.96l0.08,0.72l0.32,0.359l8.041,3.121l4.32,1.88l3.48,1.68l3.68,2l6.722,4.481l2.56,1.68l0.201,0.039
		l-0.039-0.279l26.683-3.88c-0.213,0.4-0.439,0.572-0.681,0.521l-25.843,3.8l-0.839-0.439l-2.04-1.44l-6.722-4.401l-4.96-2.64
		l-2.84-1.32l-5.761-2.44l-14.562-5.601l-3.16-1.36l-3.921-1.92l-1.52-0.96l-1.04-0.881l1.2,0.92l2.84,1.6l3.68,1.72l6.641,2.64
		l0.32,0.08C48.386,36.135,48.358,35.509,48.545,35.402"/>
	<path display="none" opacity="0.3686" fill="#FE050D" enable-background="new    " d="M32.903-14.804l0.281,0.32l0.8,0.84
		l-0.279,2.961l-0.041,2.44l0.119,1.92l0.201,1.76l0.32,1.48l-0.08,0.041l-9.041-9.041l5.4-4.92h0.16L32.903-14.804 M39.705-7.802
		l-1.32-1.36L49.426,2.039l-0.041,0.039l-0.119-0.119l-1.201-1.24l-0.599-0.601l-1.36-1.4l-0.439-0.439l-1.6-1.64l-0.201-0.199
		L39.705-7.802 M54.626,7.399l6.841,7.001l-0.56-0.521L58.107,11l-0.08-0.08l-1.44-1.48l-0.281-0.281l-1.28-1.32L54.626,7.399
		 M41.864,9.199l0.08-0.08l0.201-0.08l-0.32,0.32l-0.041-0.08L41.864,9.199 M40.704,10.399l0.08-0.08l0.201-0.08
		c-0.4,0.454-0.653,0.667-0.759,0.64l0.08-0.08l0.08-0.08l0.08-0.08l0.08-0.08l0.08-0.08L40.704,10.399 M39.543,11.599l0.08-0.08
		l0.201-0.08l-1,0.96v-0.08l0.08-0.081l0.08-0.079l0.08-0.08l0.08-0.08l0.08-0.08l0.08-0.08l0.08-0.08l0.08-0.08L39.543,11.599
		 M38.624,12.559l-0.96,1.04v-0.08l0.08-0.08l0.08-0.08l0.08-0.08l0.08-0.08l0.08-0.08l0.08-0.08l0.08-0.08l0.08-0.08l0.08-0.08
		L38.624,12.559 M37.464,13.759l0.041,0.119l-0.24,0.24l-0.84,0.761v-0.081l0.08-0.08l0.08-0.08l0.08-0.08l0.08-0.08l0.08-0.08
		l0.08-0.08l0.08-0.08l0.08-0.08l0.041-0.041l0.08-0.08L37.464,13.759 M44.264,13.199l3,2l-6.12,6.561L38.384,20l-1.239-0.959
		l-2.2-2l6.322-6.521L44.264,13.199 M36.224,15.039l0.041,0.121l-1.16,1.079v-0.08c-0.013-0.067,0.014-0.093,0.08-0.08l0.08-0.08
		l0.08-0.08l0.08-0.08l0.08-0.08l0.041-0.041l0.08-0.08l0.08-0.08l0.08-0.08l0.08-0.08l0.08-0.08L36.224,15.039 M34.703,16.6
		l0.24-0.201l-1.079,1.12v-0.08l0.08-0.08l0.041-0.041l0.08-0.08l0.08-0.08l0.08-0.08l0.08-0.08l0.08-0.08l0.08-0.08l0.08-0.08
		l0.08-0.08L34.703,16.6 M33.663,17.68l0.041,0.119l-1.32,1.24l-2.92,3.041l0.4-0.522l0.08-0.079l0.08-0.08l0.08-0.08l0.08-0.08
		l0.08-0.079l0.08-0.08l0.08-0.08l0.08-0.08l0.08-0.079l0.08-0.08l0.08-0.08l0.48-0.48l0.039-0.079l0.08-0.08l0.08-0.08l0.08-0.079
		l0.08-0.081l0.08-0.08l0.08-0.08l0.08-0.08l0.08-0.08l0.08-0.08l0.08-0.08l0.32-0.279l0.16-0.201l0.041-0.08l0.08-0.08l0.08-0.08
		l0.08-0.08l0.08-0.08l0.08-0.08l0.08-0.08l0.08-0.08l0.08-0.08l0.08-0.08l0.08-0.08L33.663,17.68 M66.067,19.16l0.56,0.521
		l0.281,0.32l4.8,4.881l-0.039,0.201l-0.521,0.441l-1.16,0.279l-3.441,0.64l-2.679,0.281l-8.161-8.201l3.28,0.56l2.641,0.201
		L66.067,19.16 M29.303,22.201l-1.239,1.319l0.4-0.521l0.08-0.079l0.08-0.08l0.08-0.08l0.08-0.08l0.08-0.08l0.08-0.079l0.08-0.08
		l0.08-0.08l0.08-0.08L29.303,22.201 M27.742,23.801l-1.12,1.16l0.441-0.521l0.08-0.08l0.08-0.08l0.08-0.079l0.08-0.08l0.08-0.08
		l0.08-0.08l0.08-0.079L27.742,23.801 M26.183,25.4l-1,1.04l0.4-0.48l0.08-0.08l0.08-0.08l0.08-0.08l0.08-0.08l0.08-0.079l0.08-0.08
		L26.183,25.4"/>
	<path display="none" opacity="0.7882" fill="#FE050D" enable-background="new    " d="M65.227-14.164l0.079-0.08l0.241,0.119
		l0.08,0.08l0.279,0.279l0.08,0.119l0.08,0.08l0.279,0.279l0.08,0.119l0.119,0.121l0.241,0.24l0.079,0.119l0.121,0.121l0.279,0.279
		l0.039,0.08l0.121,0.121l0.279,0.279l0.041,0.08l0.16,0.16l0.241,0.24l0.119,0.16l0.08,0.08l0.279,0.279l0.08,0.121l0.08,0.08
		l0.279,0.279l0.08,0.121l0.119,0.119l0.24,0.24l0.08,0.119l0.119,0.119l0.281,0.281l0.041,0.08l0.079,0.119l-0.079,0.08l-0.08,0.08
		l-0.08,0.08l-0.08,0.08l-0.039,0.08l-0.08,0.08l-0.08,0.08l-0.08,0.08l-0.079,0.08l-0.08,0.08l-0.08,0.08l-0.039,0.041
		l-0.039,0.041l-0.041,0.08l-0.08,0.08l-0.079,0.08l-0.08,0.08l-0.08,0.08l-0.08,0.08l-0.079,0.08l-0.041,0.041L68.59-7.526
		l-0.041,0.08l-0.079,0.08l-0.08,0.08l-0.08,0.08l-0.08,0.08l-0.079,0.08l-0.08,0.08l-0.08,0.08l-0.039,0.08l-0.08,0.08l-0.08,0.08
		l-0.08,0.08l-0.079,0.08l-0.08,0.08l-0.08,0.08l-0.08,0.08l-0.039,0.08l-0.08,0.08l-0.08,0.08l-0.079,0.08l-0.08,0.08l-0.08,0.08
		l-0.08,0.08l-0.079,0.08l-0.08,0.08l-0.039,0.08l-0.08,0.08l-0.08,0.08l-0.08,0.08l-0.08,0.08l-0.079,0.08l-0.08,0.08l-0.08,0.08
		l-0.119,0.16l-0.08,0.08l-0.08,0.08l-0.079,0.08l-0.08,0.08l-0.08,0.08l-0.08,0.08L65.4-4.087l-0.08,0.08l-0.079,0.08l-0.08,0.08
		l-0.08,0.08l-0.08,0.08l-0.079,0.08l-0.121,0.16l-0.08,0.08l-0.08,0.08l-0.08,0.08l-0.08,0.08l-0.08,0.08l-0.08,0.08l-0.041,0.08
		l-0.16,0.16l-0.08,0.08l-0.08,0.08l-0.08,0.08l-0.08,0.08l-0.08,0.08l-0.039,0.08l-0.16,0.16l-0.08,0.08l-0.08,0.08l-0.08,0.08
		l-0.08,0.08l-0.08,0.08l-0.041,0.08l-0.16,0.16l-0.08,0.08l-0.08,0.08l-0.08,0.08l-0.08,0.081l-0.08,0.08l-0.039,0.08l-0.24,0.24
		l-0.08,0.08l-0.08,0.08l-0.08,0.08l-0.08,0.08l-0.08,0.08l-0.201,0.24l-0.08,0.08l-0.08,0.08l-0.08,0.08l-0.08,0.08l-0.08,0.08
		l-0.201,0.24l-0.08,0.08l-0.08,0.08l-0.08,0.08l-0.08,0.08l-0.08,0.08l-0.281,0.32l-0.08,0.08l-0.08,0.08l-0.08,0.08l-0.08,0.08
		l-0.281,0.32l-0.079,0.08l-0.081,0.08l-0.08,0.08l-0.08,0.08l-0.041,0.081l-0.32,0.32l-0.08,0.08l-0.08,0.08l-0.08,0.08
		l-0.041,0.08l-0.32,0.32l-0.08,0.08l-0.08,0.08l-0.08,0.08l-0.041,0.08l-0.4,0.4l-0.08,0.08l-0.08,0.08l-0.08,0.08l-0.359,0.4
		l-0.08,0.08l-0.08,0.08l-0.08,0.08l-0.361,0.4l-0.08,0.08l-0.08,0.08l-0.08,0.08l-0.439,0.48l-0.08,0.08l-0.08,0.08l-0.439,0.48
		l-0.08,0.08l-0.08,0.08l-0.041,0.081l-0.48,0.48v0.039l0.4,0.441l1.28,1.32l0.281,0.281l1.44,1.48l0.08,0.08l2.801,2.88
		c-5.627-0.8-10.242-2.894-13.841-6.28c-3.973-3.334-6.427-8.467-7.361-15.402l4.16,4.241l0.201,0.199l1.6,1.64l0.439,0.439
		l1.36,1.4l0.599,0.601l1.201,1.24l0.119,0.119l0.041-0.039h0.041l0.08-0.08l0.039-0.041l0.08-0.08l0.08-0.08l0.08-0.08l0.08-0.08
		l0.56-0.56l0.041-0.08l0.08-0.08l0.08-0.08l0.08-0.08l0.08-0.08l0.08-0.08l0.08-0.08l0.08-0.08l0.08-0.08l0.08-0.08l0.08-0.08
		l0.08-0.08l0.4-0.4l0.041-0.08l0.08-0.08l0.08-0.08l0.08-0.08l0.08-0.08l0.08-0.08l0.08-0.08l0.08-0.08l0.08-0.08l0.08-0.08
		l0.08-0.081l0.08-0.08l0.08-0.08l0.08-0.08l0.24-0.24l0.039-0.08l0.08-0.08l0.08-0.08l0.08-0.08l0.08-0.08l0.08-0.08l0.08-0.08
		l0.08-0.08l0.08-0.08l0.08-0.08l0.08-0.08l0.081-0.08l0.079-0.08l0.08-0.08l0.08-0.08l0.08-0.08l0.121-0.16l0.08-0.08l0.08-0.08
		l0.08-0.08l0.08-0.08l0.08-0.08l0.08-0.08l0.08-0.08l0.08-0.08l0.08-0.08l0.08-0.08l0.08-0.08l0.08-0.08l0.08-0.08l0.08-0.08
		l0.08-0.08l0.08-0.08l0.08-0.08l0.041-0.041v-0.039l0.08-0.08l0.08-0.08l0.08-0.08l0.08-0.08l0.08-0.08l0.08-0.08l0.08-0.08
		l0.08-0.08l0.08-0.08l0.08-0.08l0.08-0.08l0.08-0.08l0.08-0.08l0.08-0.08l0.08-0.08l0.08-0.08l0.08-0.08l0.041-0.08l0.08-0.039
		v-0.041l0.08-0.08l0.08-0.08l0.08-0.08l0.08-0.08l0.08-0.08l0.08-0.08l0.08-0.08l0.08-0.08l0.08-0.08l0.08-0.08l0.08-0.08
		l0.08-0.08l0.08-0.08l0.08-0.08l0.08-0.08l0.041-0.08l0.08-0.08l0.08-0.08l0.08-0.041v-0.041l0.08-0.08L59-7.765l0.08-0.08
		l0.08-0.08l0.08-0.08l0.08-0.08l0.08-0.08l0.08-0.08l0.08-0.08l0.08-0.08l0.08-0.08l0.08-0.08l0.08-0.08l0.08-0.08L60-8.805
		l0.08-0.08l0.08-0.08l0.16-0.119v-0.041l0.08-0.08l0.08-0.08l0.08-0.08l0.08-0.08l0.08-0.08l0.08-0.08l0.08-0.08l0.08-0.08
		l0.08-0.08l0.08-0.08l0.08-0.08l0.08-0.08l0.08-0.08l0.08-0.039v-0.041l0.041-0.08l0.08-0.08l0.24-0.201v-0.039l0.08-0.08
		l0.08-0.08l0.08-0.08l0.08-0.08l0.08-0.08l0.08-0.08l0.08-0.08l0.08-0.08l0.08-0.08l0.08-0.08l0.08-0.08l0.08-0.08l0.08-0.041
		v-0.039l0.041-0.08l0.08-0.08l0.32-0.281v-0.041l0.08-0.08l0.08-0.08l0.08-0.08l0.08-0.08l0.08-0.08l0.08-0.08l0.08-0.08l0.08-0.08
		l0.08-0.08l0.08-0.08l0.08-0.08l0.08-0.08l0.041-0.08l0.08-0.08l0.4-0.361v-0.041l0.08-0.08l0.08-0.08l0.079-0.08l0.08-0.08
		l0.08-0.08L65.227-14.164 M38.823,12.319v0.08l-0.08,0.039l-0.08,0.08l-0.041,0.041L38.823,12.319 M37.664,13.599l-0.08,0.041
		l-0.08,0.08l-0.041,0.041l-0.281,0.279l-0.08,0.08l-0.041,0.041l0.601-0.64v0.079 M36.424,14.799v0.081l-0.08,0.039L36.264,15
		l-0.041,0.041l-0.281,0.281l-0.08,0.08l-0.08,0.08l-0.08,0.08l-0.08,0.08l-0.08,0.08l-0.041,0.041L36.424,14.799 M35.103,16.16
		v0.08l-0.08,0.041l-0.08,0.08V16.4l-0.24,0.201l-0.08,0.08l-0.08,0.08l-0.08,0.08l-0.08,0.08l-0.08,0.08l-0.08,0.08l-0.08,0.08
		l-0.08,0.08l-0.08,0.08l-0.041,0.041L35.103,16.16 M33.864,17.44v0.08l-0.08,0.041l-0.08,0.08l-0.041,0.041l-0.279,0.279
		l-0.08,0.08l-0.08,0.08l-0.08,0.08l-0.08,0.08l-0.08,0.08l-0.08,0.08l-0.08,0.08l-0.08,0.08l-0.08,0.08l-0.08,0.08l-0.041,0.08
		l-0.16,0.201l-0.32,0.279l-0.08,0.08l-0.08,0.08l-0.08,0.08l-0.08,0.08l-0.08,0.08l-0.08,0.08l-0.08,0.081l-0.08,0.079l-0.08,0.08
		l-0.08,0.08l-0.039,0.079l-0.48,0.48l-0.08,0.08l-0.08,0.08l-0.08,0.079l-0.08,0.08l-0.08,0.08l-0.08,0.08l-0.08,0.079l-0.08,0.08
		l-0.08,0.08l-0.08,0.08l-0.08,0.079l-0.4,0.522l-0.16,0.119l-0.119,0.079l-0.08,0.08l-0.08,0.08l-0.08,0.08l-0.08,0.079l-0.08,0.08
		l-0.08,0.08l-0.08,0.08l-0.08,0.08l-0.08,0.079l-0.4,0.521l-0.32,0.281l-0.121,0.08l-0.08,0.079l-0.08,0.08l-0.08,0.08l-0.08,0.08
		l-0.08,0.079l-0.08,0.08l-0.08,0.08l-0.441,0.521l-0.439,0.439l-0.119,0.08l-0.08,0.08l-0.08,0.079l-0.08,0.08l-0.08,0.08
		l-0.08,0.08l-0.08,0.08l-0.4,0.48h-0.16L33.864,17.44"/>
	<path display="none" opacity="0.5765" fill="#FFB0B0" enable-background="new    " d="M34.784-12.843l0.919,0.919l0.88,0.919
		l1.52,1.521l0.279,0.32l1.32,1.36c0.934,6.934,3.387,12.068,7.361,15.402c3.601,3.387,8.214,5.48,13.841,6.28l0.56,0.521v0.041
		l1.399,1.4l0.32,0.359l1.08,1.08l0.64,0.681l0.679,0.681l0.48,0.521l-4.44,0.121l-2.641-0.201l-3.28-0.56l-5.921-5.921l-2.52,2.6
		l-3-2l-3-2.68l2.32-2.44l0.84-0.88L34.221-3.04l0.08-0.041l-0.32-1.48l-0.201-1.76l-0.119-1.92l0.041-2.44l0.279-2.961
		L34.784-12.843"/>
	<path opacity="0.3686" fill="#FFFFFF" enable-background="new    " d="M42.344,23l-0.4-0.039h-1.079L42.344,23 M47.625,29.442
		l1.4-0.281l-1.36,0.361h-0.16L47.625,29.442 M70.068,36.123l-0.08-0.08h0.201L70.068,36.123 M69.787,36.203l-0.08-0.08l0.241-0.041
		L69.787,36.203 M69.307,36.362l-0.079-0.08l0.201-0.039L69.307,36.362 M69.067,36.443l-0.119-0.08l0.241-0.039L69.067,36.443
		 M68.827,36.523l-0.119-0.041l0.201-0.079L68.827,36.523 M58.427,38.923l1.719,0.64l0.201,0.079l1.72,0.681l0.439,0.201l0.441,0.16
		l-0.441-0.119l-0.48-0.201l-0.48-0.201l-1.2-0.48l-0.201-0.08L58.427,38.923 M77.668,40.043l-0.48-0.16l0.16-0.041L77.668,40.043
		 M62.986,40.763l0.48,0.16l0.439,0.16l-0.439-0.119L62.986,40.763 M82.069,40.963l0.079,0.039l-0.199,0.041l0.039-0.041
		L82.069,40.963 M81.749,41.083l0.039-0.039l0.08,0.039H81.749l-0.08,0.041v-0.041H81.749 M80.788,41.324h0.121l-0.16,0.079
		L80.788,41.324 M80.629,41.283l-0.08,0.119l-0.201-0.16L80.629,41.283 M64.668,41.483l0.439,0.201l-0.359-0.16L64.668,41.483
		 M65.386,41.803l0.64,0.201l-0.039,0.08l-0.521-0.241L65.386,41.803 M67.627,42.842l1.319,0.56
		C68.814,43.456,68.374,43.27,67.627,42.842 M69.428,43.683l-0.4-0.16l0.119-0.041L69.428,43.683 M69.587,43.802l0.32,0.08
		l-0.039,0.08L69.587,43.802 M107.112,47.243l0.281-0.039h-0.16L107.112,47.243 M106.792,47.243h0.281h-0.121H106.792v0.039h-0.119
		l-0.119,0.041L106.792,47.243 M106.232,47.323h0.279h-0.119H106.232v0.039h-0.241L106.232,47.323 M105.671,47.404h0.281h-0.16
		H105.671v0.039h-0.16l-0.119,0.039L105.671,47.404 M105.072,47.483h0.279h-0.119H105.072v0.041h-0.121l-0.119,0.039L105.072,47.483
		 M104.512,47.563h0.281h-0.119H104.512v0.041h-0.119l-0.119,0.039L104.512,47.563 M103.952,47.643h0.281h-0.16H103.952v0.039
		h-0.241L103.952,47.643 M103.351,47.724h0.32h-0.16H103.351v0.039h-0.119l-0.119,0.039L103.351,47.724 M94.15,47.764h0.32h-0.201
		H94.15v0.039H94.03h-0.16v0.041h-0.241l0.241-0.041L94.15,47.764 M102.791,47.803h0.279h-0.119H102.791v0.041h-0.119l-0.121,0.039
		L102.791,47.803 M93.271,47.883h0.32h-0.16H93.271v0.041h-0.16h-0.119v0.039h-0.16h-0.121v0.039h-0.24l0.24-0.039l0.281-0.039
		L93.271,47.883 M102.23,47.883h0.281h-0.119H102.23v0.041h-0.24L102.23,47.883 M101.671,47.963h0.281h-0.16H101.671v0.039h-0.201
		h-0.119v0.041h-0.119h-0.16v0.039h-0.119l-0.119,0.039l0.24-0.079l0.281-0.041L101.671,47.963 M100.511,48.123h0.281h-0.121
		H100.511v0.041h-0.119l-0.119,0.039L100.511,48.123 M99.951,48.203h0.279h-0.119H99.951v0.041H99.71L99.951,48.203 M99.391,48.283
		h0.281h-0.16H99.391v0.039h-0.24L99.391,48.283 M99.111,48.364h-0.16h-0.16v0.039h-0.119l-0.119,0.041l0.24-0.08H99.111
		 M98.231,48.444h0.281h-0.119H98.231v0.039h-0.119l-0.119,0.039L98.231,48.444 M97.671,48.523h0.281h-0.121H97.671v0.041h-0.24
		L97.671,48.523 M97.111,48.603h0.281h-0.16H97.111v0.039h-0.24L97.111,48.603 M96.551,48.684h0.281H96.67H96.551v0.039H96.35
		h-0.119v0.041h-0.119h-0.16v0.039h-0.119l-0.119,0.039l0.24-0.079l0.281-0.041L96.551,48.684 M95.39,48.843h0.281h-0.119H95.39
		v0.041h-0.119l-0.119,0.039L95.39,48.843 M94.831,48.923h0.279h-0.119H94.831v0.041H94.59L94.831,48.923 M94.27,49.004h0.281h-0.16
		H94.27v0.039h-0.24L94.27,49.004 M93.71,49.084h0.281h-0.16H93.71v0.039h-0.24L93.71,49.084 M93.11,49.163h0.32h-0.16H93.11v0.041
		H92.99l-0.119,0.039L93.11,49.163 M92.55,49.243h0.281H92.71H92.55v0.041H92.43l-0.119,0.039L92.55,49.243 M91.99,49.324h0.281
		h-0.119H91.99v0.039H91.87l-0.119,0.041L91.99,49.324 M91.43,49.404h0.281h-0.119H91.43v0.039h-0.24L91.43,49.404 M90.87,49.483
		h0.279h-0.16H90.87v0.041h-0.24L90.87,49.483 M90.311,49.563h0.279h-0.16H90.311v0.041H90.07L90.311,49.563 M89.75,49.644h0.281
		h-0.16H89.75v0.039h-0.201H89.43v0.041H89.31h-0.16v0.039h-0.119l-0.119,0.041l0.24-0.08l0.281-0.041L89.75,49.644 M88.589,49.804
		h0.281H88.75H88.589v0.039H88.47l-0.119,0.039L88.589,49.804 M88.029,49.883h0.279h-0.119H88.029v0.041h-0.121l-0.119,0.039
		L88.029,49.883 M87.47,49.964h0.281h-0.119H87.47v0.041H87.35l-0.119,0.039L87.47,49.964 M86.91,50.044h0.281h-0.16H86.91v0.039
		h-0.24L86.91,50.044 M86.35,50.123h0.279h-0.16H86.35v0.041h-0.241L86.35,50.123 M85.79,50.204h0.281h-0.16H85.79v0.039h-0.24
		L85.79,50.204 M85.23,50.283h0.279h-0.16H85.23v0.039h-0.24L85.23,50.283 M84.629,50.364h0.32h-0.16H84.629v0.039h-0.16h-0.121
		v0.041h-0.119h-0.16v0.039h-0.16H83.79v0.039H83.67h-0.16v0.041h-0.119l-0.119,0.039l0.24-0.08l0.281-0.039l0.281-0.039
		l0.279-0.041L84.629,50.364 M82.949,50.603h0.281H83.11H82.949v0.041H82.83l-0.119,0.039L82.949,50.603 M80.829,50.684l-1-0.679
		l1.04,0.64l0.4,0.199h0.281h-0.119h-0.16v0.121l-0.359-0.241l-0.041-0.079L80.829,50.684 M82.389,50.684h0.281h-0.121H82.389v0.039
		H82.27l-0.121,0.041L82.389,50.684 M81.828,50.764h0.281h-0.119H81.828v0.039h-0.119l-0.119,0.039L81.828,50.764"/>
	<path opacity="0.7882" fill="#FFFFFF" enable-background="new    " d="M82.069,40.882l0.16-0.039l0.119,0.08l-0.119,0.039
		l-0.08,0.039l-0.079-0.039l-0.08,0.039l-0.039,0.041h-0.16l-0.119,0.039l-0.16,0.041l-0.079,0.039l-0.201,0.079h-0.08l-0.201,0.081
		h-0.16L80.591,41.4h-0.039l0.08-0.119h0.041h0.079l0.08-0.041l0.08-0.039l0.16-0.039h0.039h0.08l0.08-0.039l0.08-0.041h0.16
		l0.041-0.039h0.079l0.08-0.041l0.119-0.039h0.08l0.08-0.039L82.069,40.882 M107.392,47.204l0.119-0.041l0.119,0.08l-0.119,0.039
		l-0.16,0.041h-0.119l-0.16,0.039h-0.121l-0.16,0.041h-0.119l-0.16,0.039h-0.119l-0.16,0.039h-0.119l-0.16,0.041h-0.119l-0.16,0.039
		h-0.119l-0.16,0.041h-0.121l-0.16,0.039h-0.119l-0.16,0.039h-0.119l-0.16,0.041h-0.119l-0.16,0.039h-0.119l-0.16,0.039h-0.119
		l-0.16,0.041h-0.118l-0.16,0.039h-0.119l-0.16,0.041h-0.119l-0.16,0.039h-0.121l-0.16,0.039h-0.119l-0.16,0.041H102.2l-0.201,0.039
		h-0.119l-0.16,0.039H101.6l-0.16,0.041h-0.121l-0.16,0.039h-0.119l-0.16,0.041h-0.119l-0.16,0.039h-0.119l-0.16,0.039h-0.119
		l-0.16,0.041h-0.119l-0.16,0.039h-0.121l-0.16,0.041h-0.119l-0.16,0.039h-0.119l-0.16,0.039h-0.121l-0.16,0.041h-0.119l-0.16,0.039
		h-0.119l-0.16,0.039h-0.118l-0.16,0.041h-0.119l-0.16,0.039h-0.119l-0.16,0.041h-0.121l-0.16,0.039h-0.119l-0.16,0.039h-0.119
		l-0.16,0.041h-0.119l-0.16,0.039h-0.119l-0.16,0.041h-0.16l-0.119,0.039h-0.16l-0.16,0.039h-0.121l-0.16,0.041h-0.119l-0.16,0.039
		h-0.119l-0.16,0.039H94.29l-0.16,0.041h-0.119l-0.16,0.039h-0.119l-0.16,0.041h-0.119l-0.16,0.039h-0.121l-0.16,0.039h-0.119
		l-0.16,0.041h-0.119l-0.16,0.039h-0.119l-0.16,0.039h-0.119l-0.16,0.041h-0.16l-0.119,0.039h-0.16l-0.119,0.041h-0.16l-0.16,0.039
		h-0.119l-0.16,0.039h-0.119l-0.16,0.041h-0.119l-0.16,0.039h-0.119l-0.16,0.041h-0.119l-0.16,0.039h-0.121l-0.16,0.039h-0.119
		l-0.16,0.041h-0.119l-0.16,0.039h-0.119l-0.16,0.041h-0.16l-0.119,0.039h-0.16l-0.121,0.039h-0.16l-0.16,0.039h-0.121l-0.16,0.041
		h-0.119l-0.16,0.041h-0.119l-0.16,0.039H86.66l-0.16,0.039H86.38l-0.16,0.039h-0.119l-0.16,0.041h-0.119l-0.16,0.039h-0.16
		l-0.119,0.041h-0.16l-0.121,0.039h-0.16l-0.16,0.039h-0.119l-0.16,0.041h-0.121l-0.16,0.039h-0.119l-0.16,0.041h-0.119l-0.16,0.039
		h-0.121l-0.16,0.039h-0.119l-0.16,0.041h-0.16l-0.119,0.039h-0.16l-0.119,0.039h-0.16l-0.16,0.041h-0.119l-0.16,0.039h-0.119
		l-0.16,0.041h-0.119l-0.16,0.039l-0.08-0.039l0.16-0.121h0.119h0.039l0.119-0.039h0.119l0.16-0.039h0.119h0.039l0.121-0.041h0.119
		l0.16-0.039h0.121h0.039l0.119-0.039h0.119l0.16-0.041h0.119H83.3l0.119-0.039h0.119l0.16-0.041h0.119l0.119-0.039h0.16l0.16-0.039
		h0.119l0.121-0.041h0.16l0.16-0.039h0.16h0.041v-0.041h0.24l0.119-0.039h0.16h0.041v-0.039h0.24l0.119-0.039h0.16h0.039v-0.041
		h0.241l0.119-0.041h0.16h0.041v-0.039h0.24l0.119-0.039h0.16h0.039l0.119-0.039h0.119l0.16-0.041h0.119h0.039l0.119-0.039h0.121
		l0.16-0.041h0.119h0.041l0.119-0.039h0.119l0.16-0.039h0.121h0.039l0.119-0.041h0.119l0.16-0.039h0.119l0.119-0.041h0.201
		l0.119-0.039h0.16h0.039v-0.039h0.241l0.119-0.041h0.16h0.041v-0.039h0.24l0.119-0.041h0.16h0.041v-0.039h0.24l0.16-0.039h0.119
		h0.039l0.119-0.041h0.119l0.16-0.039h0.119h0.041l0.119-0.039h0.119l0.16-0.041h0.121h0.039l0.119-0.039h0.119l0.16-0.041h0.16
		h0.041v-0.039h0.24l0.119-0.039h0.16h0.039v-0.041h0.24l0.119-0.039h0.16h0.039v-0.039h0.241l0.16-0.041h0.119h0.041l0.119-0.039
		h0.119l0.16-0.041h0.119h0.039l0.119-0.039h0.119l0.16-0.039h0.119l0.119-0.041h0.201l0.119-0.039h0.16h0.039v-0.041h0.24
		l0.121-0.039h0.16h0.041v-0.039h0.24l0.16-0.041h0.121h0.039l0.119-0.039h0.119l0.16-0.039h0.119h0.039L98.68,48.4H98.8l0.16-0.039
		h0.16h0.041V48.32h0.24l0.119-0.039h0.16h0.039v-0.039h0.241l0.16-0.041h0.119h0.041l0.119-0.039h0.119l0.16-0.041h0.121h0.039
		l0.119-0.039h0.119l0.16-0.039h0.119l0.119-0.041h0.201l0.119-0.039h0.16h0.039v-0.039h0.24l0.16-0.041h0.119h0.039l0.121-0.039
		h0.119l0.16-0.041h0.119h0.041l0.119-0.039h0.119l0.16-0.039h0.16h0.039v-0.041h0.241l0.119-0.039h0.16h0.039l0.119-0.039h0.119
		l0.16-0.041h0.119h0.039l0.119-0.039h0.121l0.16-0.041h0.119h0.041l0.119-0.039h0.16l0.121-0.039h0.16h0.039v-0.041h0.241
		l0.16-0.039h0.119h0.041l0.119-0.041h0.119l0.16-0.039h0.121h0.039l0.119-0.039H107.392 M94.47,47.764l0.119-0.039l0.201,0.039
		l-0.039,0.08l-0.16,0.039h-0.119l-0.16,0.041H94.19l-0.16,0.039h-0.16l-0.16,0.039h-0.119l-0.16,0.041h-0.119l-0.16,0.039h-0.16
		l-0.16,0.039h-0.121l-0.16,0.041l-0.119-0.041l0.039-0.079v-0.041h0.24l0.121-0.039h0.16l0.119-0.039h0.16l0.16-0.041h0.16h0.039
		v-0.039h0.241l0.16-0.041h0.119l0.119-0.039L94.47,47.764 M80.829,50.684l0.039-0.039l0.041,0.079L80.829,50.684"/>
	<path opacity="0.5765" fill="#FFFFFF" enable-background="new    " d="M81.95,41.043l-0.08,0.039l-0.08-0.039l-0.039,0.039h-0.08
		v0.041h-0.16v0.039h-0.079l0.079-0.039l0.16-0.041l0.119-0.039H81.95 M80.788,41.324h0.16h-0.039H80.788l-0.039,0.079h-0.16
		L80.788,41.324 M106.792,47.243h0.16l-0.16,0.039V47.243 M106.232,47.323h0.16l-0.16,0.039V47.323 M105.792,47.404l-0.121,0.039
		v-0.039H105.792 M105.072,47.483h0.16l-0.16,0.041V47.483 M104.512,47.563h0.16l-0.16,0.041V47.563 M104.071,47.643l-0.119,0.039
		v-0.039H104.071 M103.351,47.724h0.16l-0.16,0.039V47.724 M94.15,47.764h0.119l-0.119,0.039V47.764 M93.871,47.803h0.16
		l-0.16,0.041V47.803 M102.791,47.803h0.16l-0.16,0.041V47.803 M93.271,47.883h0.16l-0.16,0.041V47.883 M102.23,47.883h0.16
		l-0.16,0.041V47.883 M92.99,47.924h0.119l-0.119,0.039V47.924 M92.83,47.963l-0.121,0.039v-0.039H92.83 M101.791,47.963
		l-0.119,0.039v-0.039H101.791 M101.352,48.003h0.119l-0.119,0.041V48.003 M101.071,48.044h0.16l-0.16,0.039V48.044 M100.511,48.123
		h0.16l-0.16,0.041V48.123 M100.111,48.203l-0.16,0.041v-0.041H100.111 M99.391,48.283h0.119l-0.119,0.039V48.283 M98.951,48.364
		l-0.16,0.039v-0.039H98.951 M98.231,48.444h0.16l-0.16,0.039V48.444 M97.671,48.523h0.16l-0.16,0.041V48.523 M97.231,48.603
		l-0.121,0.039v-0.039H97.231 M96.551,48.684h0.119l-0.119,0.039V48.684 M96.231,48.724h0.119l-0.119,0.041V48.724 M95.95,48.764
		h0.16l-0.16,0.039V48.764 M95.39,48.843h0.16l-0.16,0.041V48.843 M94.831,48.923h0.16l-0.16,0.041V48.923 M94.27,49.004h0.119
		l-0.119,0.039V49.004 M93.83,49.084l-0.119,0.039v-0.039H93.83 M93.11,49.163h0.16l-0.16,0.041V49.163 M92.55,49.243h0.16
		l-0.16,0.041V49.243 M92.15,49.324l-0.16,0.039v-0.039H92.15 M91.43,49.404h0.16l-0.16,0.039V49.404 M90.87,49.483h0.119
		l-0.119,0.041V49.483 M90.43,49.563l-0.119,0.041v-0.041H90.43 M89.75,49.644h0.119l-0.119,0.039V49.644 M89.549,49.684
		l-0.119,0.041v-0.041H89.549 M89.149,49.724h0.16l-0.16,0.039V49.724 M88.749,49.804l-0.16,0.039v-0.039H88.749 M88.029,49.883
		h0.16l-0.16,0.041V49.883 M87.47,49.964h0.16l-0.16,0.041V49.964 M87.029,50.044l-0.119,0.039v-0.039H87.029 M86.35,50.123h0.119
		l-0.119,0.041V50.123 M85.79,50.204h0.119l-0.119,0.039V50.204 M85.349,50.283l-0.119,0.039v-0.039H85.349 M84.629,50.364h0.16
		l-0.16,0.039V50.364 M84.349,50.404h0.121l-0.121,0.041V50.404 M84.069,50.444h0.16l-0.16,0.039V50.444 M83.789,50.484h0.119
		l-0.119,0.039V50.484 M83.509,50.523h0.16l-0.16,0.041V50.523 M82.949,50.603h0.16l-0.16,0.041V50.603 M82.389,50.684h0.16
		l-0.16,0.039V50.684 M81.828,50.764h0.16l-0.16,0.039V50.764 M81.269,50.843h0.16l-0.16,0.121l0.08,0.039h-0.08v-0.039V50.843"/>
</g>
</svg>
