<?xml version="1.0" encoding="utf-8"?>
<!-- Generator: Adobe Illustrator 15.0.0, SVG Export Plug-In . SVG Version: 6.00 Build 0)  -->
<!DOCTYPE svg PUBLIC "-//W3C//DTD SVG 1.1//EN" "http://www.w3.org/Graphics/SVG/1.1/DTD/svg11.dtd">
<svg version="1.1"
	 id="svg7952" xmlns:inkscape="http://www.inkscape.org/namespaces/inkscape" xmlns:dc="http://purl.org/dc/elements/1.1/" xmlns:svg="http://www.w3.org/2000/svg" xmlns:rdf="http://www.w3.org/1999/02/22-rdf-syntax-ns#" xmlns:sodipodi="http://sodipodi.sourceforge.net/DTD/sodipodi-0.dtd" xmlns:cc="http://creativecommons.org/ns#" inkscape:version="0.48.5 r10040" sodipodi:docname="ico_route_chargeroad.svg"
	 xmlns="http://www.w3.org/2000/svg" xmlns:xlink="http://www.w3.org/1999/xlink" x="0px" y="0px" width="120px" height="120px"
	 viewBox="0 0 120 120" enable-background="new 0 0 120 120" xml:space="preserve">
<sodipodi:namedview  id="namedview7968" borderopacity="1" bordercolor="#666666" pagecolor="#ffffff" inkscape:cy="60" inkscape:zoom="1.9666667" showgrid="false" gridtolerance="10" inkscape:cx="60" guidetolerance="10" objecttolerance="10" inkscape:current-layer="svg7952" inkscape:window-y="-8" inkscape:window-x="-8" inkscape:window-height="1137" inkscape:window-width="1600" inkscape:pageshadow="2" inkscape:pageopacity="0" inkscape:window-maximized="1">
	</sodipodi:namedview>
<g id="normal">
	<path id="path7960" fill="#00FF00" d="M100.62,32.5c-13.04,2.5-66.53,15.91-67.74,81h22.87C55.71,112.08,54.53,49.29,100.62,32.5z
		 M106.58,33.7c-49.41,13.27-47.9,79.08-47.88,79.75l-1.47,0.05h25.62C82.85,97.79,75.17,62.45,106.58,33.7z"/>
	<path fill="#FF0000" d="M34.78,63.37v5.32h-5.9v-5.16c0.29,0.01,0.58,0.02,0.88,0.029h2.91C33.39,63.53,34.09,63.47,34.78,63.37z"
		/>
	<path fill="#FF0000" d="M28.88,57.42v6.11C19.63,63.02,13.29,57.51,13.42,47.76h7.7C21.05,53.41,23.37,56.92,28.88,57.42z"/>
	<path fill="#FF0000" d="M34.78,42.36v14.82c-0.67,0.16-1.37,0.25-2.11,0.3h-2.91c-0.3-0.01-0.59-0.03-0.88-0.06V40.9
		c0.29,0.09,0.59,0.17,0.88,0.25l2.91,0.6C33.38,41.93,34.09,42.13,34.78,42.36z"/>
	<path fill="#FF0000" d="M34.78,57.18v6.19c-0.69,0.1-1.39,0.16-2.11,0.189h-2.91c-0.3-0.01-0.59-0.02-0.88-0.029v-6.11
		c0.29,0.03,0.58,0.05,0.88,0.06h2.91C33.41,57.43,34.11,57.34,34.78,57.18z"/>
	<path fill="#FF0000" d="M48.67,48.37c0,9.32-5.94,14.01-13.89,15v-6.19c3.72-0.8,6.19-3.15,6.19-7.73c0-4.21-2.84-5.99-6.19-7.09
		v-8.39C42.13,36.12,48.67,39.43,48.67,48.37z"/>
	<path fill="#FF0000" d="M34.78,33.97v8.39c-0.69-0.23-1.4-0.43-2.11-0.61l-2.91-0.6c-0.29-0.08-0.59-0.16-0.88-0.25v-8.5
		c0.29,0.09,0.59,0.17,0.88,0.24l2.91,0.74C33.38,33.57,34.08,33.76,34.78,33.97z"/>
	<path fill="#FF0000" d="M34.78,19.35v14.62c-0.7-0.21-1.4-0.4-2.11-0.59l-2.91-0.74c-0.29-0.07-0.59-0.15-0.88-0.24V19.16
		c0.29-0.01,0.58-0.02,0.88-0.02h2.91C33.44,19.14,34.14,19.21,34.78,19.35z"/>
	<path fill="#FF0000" d="M22.13,25.75c0,4.05,3.28,5.68,6.75,6.65v8.5c-7.1-2.03-14.44-5.14-14.44-14.61
		c0-8.26,6.77-12.88,14.44-13.21v6.08C24.57,19.38,22.13,21.32,22.13,25.75z"/>
	<path fill="#FF0000" d="M34.78,6.5v6.66c-0.69-0.07-1.4-0.1-2.11-0.1h-2.91c-0.29,0-0.59,0.01-0.88,0.02V6.5H34.78z"/>
	<path fill="#FF0000" d="M34.78,13.16v6.19c-0.64-0.14-1.34-0.21-2.11-0.21h-2.91c-0.3,0-0.59,0.01-0.88,0.02v-6.08
		c0.29-0.01,0.59-0.02,0.88-0.02h2.91C33.38,13.06,34.09,13.09,34.78,13.16z"/>
	<path fill="#FF0000" d="M47.45,26.22h-7.7c-0.17-3.79-1.66-6.2-4.97-6.87v-6.19C41.9,13.85,47.45,18.1,47.45,26.22z"/>
</g>
</svg>
