<?xml version="1.0" encoding="utf-8"?>
<!-- Generator: Adobe Illustrator 16.0.0, SVG Export Plug-In . SVG Version: 6.00 Build 0)  -->
<!DOCTYPE svg PUBLIC "-//W3C//DTD SVG 1.1//EN" "http://www.w3.org/Graphics/SVG/1.1/DTD/svg11.dtd">
<svg version="1.1" id="Слой_1" xmlns="http://www.w3.org/2000/svg" xmlns:xlink="http://www.w3.org/1999/xlink" x="0px" y="0px"
	 width="120px" height="120px" viewBox="0 0 120 120" enable-background="new 0 0 120 120" xml:space="preserve">
<g id="normal_1_">
	
		<linearGradient id="SVGID_1_" gradientUnits="userSpaceOnUse" x1="59.854" y1="114.3594" x2="59.854" y2="4.1636" gradientTransform="matrix(1 0 0 -1 -0.02 119.0947)">
		<stop  offset="0" style="stop-color:#E58D8D"/>
		<stop  offset="0.4545" style="stop-color:#DA0000"/>
		<stop  offset="1" style="stop-color:#950000"/>
	</linearGradient>
	<path fill="url(#SVGID_1_)" d="M100.645,114.932c-2.885,0-5.593-1.119-7.619-3.156l-33.192-33.39l-33.196,33.39
		c-2.023,2.037-4.73,3.156-7.62,3.156c-2.888,0-5.597-1.119-7.62-3.156l-3.203-3.224c-2.025-2.038-3.139-4.758-3.139-7.663
		c0-2.91,1.114-5.629,3.139-7.666l33.193-33.39L8.194,26.449c-4.201-4.229-4.201-11.105,0-15.333l3.203-3.222
		c2.023-2.036,4.732-3.158,7.62-3.158c2.891,0,5.597,1.122,7.62,3.158l33.196,33.388L93.025,7.894
		c2.025-2.036,4.733-3.158,7.619-3.158c2.893,0,5.597,1.122,7.621,3.158l3.211,3.226c4.196,4.224,4.196,11.1,0,15.329L78.277,59.833
		l33.199,33.39c4.196,4.229,4.196,11.101,0,15.329l-3.211,3.224C106.241,113.813,103.537,114.932,100.645,114.932L100.645,114.932z"
		/>
	
		<linearGradient id="SVGID_2_" gradientUnits="userSpaceOnUse" x1="59.856" y1="110.2412" x2="59.856" y2="3.4335" gradientTransform="matrix(1 0 0 -1 -0.02 119.0947)">
		<stop  offset="0" style="stop-color:#FFFFFF"/>
		<stop  offset="1" style="stop-color:#000000"/>
	</linearGradient>
	<path display="none" opacity="0.6" fill="url(#SVGID_2_)" enable-background="new    " d="M45.37,59.833L10.185,24.445
		c-1.501-1.51-2.326-3.521-2.326-5.662c0-2.144,0.825-4.154,2.326-5.665l3.204-3.222c1.493-1.501,3.492-2.328,5.628-2.328
		c2.141,0,4.14,0.827,5.632,2.328l35.184,35.391l35.183-35.39c1.496-1.501,3.5-2.328,5.629-2.328c2.141,0,4.139,0.827,5.633,2.328
		l3.205,3.226c1.502,1.507,2.33,3.518,2.33,5.661c0,2.14-0.828,4.152-2.33,5.662L74.298,59.833H45.37z"/>
	
		<linearGradient id="SVGID_3_" gradientUnits="userSpaceOnUse" x1="59.854" y1="115.5039" x2="59.854" y2="1.2137" gradientTransform="matrix(1 0 0 -1 -0.02 119.0947)">
		<stop  offset="0.0056" style="stop-color:#E6E6E6"/>
		<stop  offset="0.654" style="stop-color:#717171"/>
		<stop  offset="1" style="stop-color:#303030"/>
	</linearGradient>
	<path fill="url(#SVGID_3_)" d="M78.277,59.833l33.199-33.384c4.196-4.229,4.196-11.105,0-15.329l-3.211-3.226
		c-2.024-2.036-4.729-3.158-7.621-3.158c-2.886,0-5.594,1.122-7.619,3.158L59.833,41.281L26.637,7.894
		c-2.023-2.036-4.729-3.158-7.62-3.158c-2.888,0-5.597,1.122-7.62,3.158l-3.203,3.222c-4.201,4.228-4.201,11.104,0,15.333
		l33.193,33.384L8.194,93.223c-2.025,2.037-3.139,4.756-3.139,7.666c0,2.905,1.114,5.625,3.139,7.663l3.203,3.224
		c2.023,2.037,4.732,3.156,7.62,3.156c2.89,0,5.597-1.119,7.62-3.156l33.196-33.39l33.192,33.39
		c2.025,2.037,4.733,3.156,7.619,3.156c2.893,0,5.597-1.119,7.621-3.156l3.211-3.224c4.196-4.229,4.196-11.102,0-15.329
		L78.277,59.833z M109.482,106.55l-3.207,3.222c-1.493,1.5-3.487,2.326-5.631,2.326c-2.131,0-4.133-0.826-5.629-2.326L59.833,74.38
		l-35.187,35.392c-1.492,1.5-3.489,2.326-5.629,2.326s-4.135-0.826-5.625-2.326l-3.207-3.222c-1.493-1.507-2.314-3.512-2.314-5.661
		c0-2.15,0.821-4.16,2.314-5.666l35.185-35.39L10.185,24.445c-1.501-1.51-2.326-3.521-2.326-5.662c0-2.144,0.825-4.154,2.326-5.665
		l3.204-3.222c1.493-1.501,3.492-2.328,5.628-2.328c2.141,0,4.14,0.827,5.632,2.328l35.184,35.388L95.016,9.897
		c1.496-1.501,3.5-2.328,5.629-2.328c2.141,0,4.139,0.827,5.633,2.328l3.205,3.226c1.502,1.507,2.33,3.518,2.33,5.661
		c0,2.14-0.828,4.152-2.33,5.662L74.298,59.833l35.185,35.39c1.502,1.514,2.33,3.521,2.33,5.666
		C111.813,103.029,110.984,105.038,109.482,106.55z"/>
	
		<linearGradient id="SVGID_4_" gradientUnits="userSpaceOnUse" x1="59.8545" y1="10.293" x2="59.8545" y2="47.162" gradientTransform="matrix(1 0 0 -1 -0.02 119.0947)">
		<stop  offset="0" style="stop-color:#FFFFFF"/>
		<stop  offset="1" style="stop-color:#000000"/>
	</linearGradient>
	<path display="none" opacity="0.4" fill="url(#SVGID_4_)" enable-background="new    " d="M100.645,110.118
		c-1.688,0-3.258-0.648-4.431-1.828L59.833,71.7l-36.38,36.59c-1.17,1.18-2.747,1.828-4.436,1.828c-1.688,0-3.265-0.648-4.43-1.828
		l-3.208-3.224c-1.184-1.186-1.83-2.771-1.83-4.461c0-1.692,0.646-3.273,1.83-4.461l30.703-30.877h35.506l30.7,30.875
		c1.179,1.187,1.832,2.771,1.832,4.463c0,1.688-0.653,3.275-1.832,4.461l-3.208,3.221
		C103.906,109.47,102.336,110.118,100.645,110.118L100.645,110.118z"/>
</g>
<g id="active_1_">
	
		<linearGradient id="SVGID_5_" gradientUnits="userSpaceOnUse" x1="59.854" y1="114.3594" x2="59.854" y2="4.1636" gradientTransform="matrix(1 0 0 -1 -0.02 119.0947)">
		<stop  offset="0" style="stop-color:#E58D8D"/>
		<stop  offset="0.4545" style="stop-color:#DA0000"/>
		<stop  offset="1" style="stop-color:#950000"/>
	</linearGradient>
	<path fill="url(#SVGID_5_)" d="M100.645,114.932c-2.885,0-5.593-1.119-7.619-3.156l-33.192-33.39l-33.196,33.39
		c-2.023,2.037-4.73,3.156-7.62,3.156c-2.888,0-5.597-1.119-7.62-3.156l-3.203-3.224c-2.025-2.038-3.139-4.758-3.139-7.663
		c0-2.91,1.114-5.629,3.139-7.666l33.193-33.39L8.194,26.449c-4.201-4.229-4.201-11.105,0-15.333l3.203-3.222
		c2.023-2.036,4.732-3.158,7.62-3.158c2.891,0,5.597,1.122,7.62,3.158l33.196,33.388L93.025,7.894
		c2.025-2.036,4.733-3.158,7.619-3.158c2.893,0,5.597,1.122,7.621,3.158l3.211,3.226c4.196,4.224,4.196,11.1,0,15.329L78.277,59.833
		l33.199,33.39c4.196,4.229,4.196,11.101,0,15.329l-3.211,3.224C106.241,113.813,103.537,114.932,100.645,114.932L100.645,114.932z"
		/>
	
		<linearGradient id="SVGID_6_" gradientUnits="userSpaceOnUse" x1="59.856" y1="110.2412" x2="59.856" y2="3.4335" gradientTransform="matrix(1 0 0 -1 -0.02 119.0947)">
		<stop  offset="0" style="stop-color:#FFFFFF"/>
		<stop  offset="1" style="stop-color:#000000"/>
	</linearGradient>
	<path display="none" opacity="0.6" fill="url(#SVGID_6_)" enable-background="new    " d="M45.37,59.833L10.185,24.445
		c-1.501-1.51-2.326-3.521-2.326-5.662c0-2.144,0.825-4.154,2.326-5.665l3.204-3.222c1.493-1.501,3.492-2.328,5.628-2.328
		c2.141,0,4.14,0.827,5.632,2.328l35.184,35.391l35.183-35.39c1.496-1.501,3.5-2.328,5.629-2.328c2.141,0,4.139,0.827,5.633,2.328
		l3.205,3.226c1.502,1.507,2.33,3.518,2.33,5.661c0,2.14-0.828,4.152-2.33,5.662L74.298,59.833H45.37z"/>
	
		<linearGradient id="SVGID_7_" gradientUnits="userSpaceOnUse" x1="59.854" y1="115.5039" x2="59.854" y2="1.2137" gradientTransform="matrix(1 0 0 -1 -0.02 119.0947)">
		<stop  offset="0.0056" style="stop-color:#E6E6E6"/>
		<stop  offset="0.654" style="stop-color:#717171"/>
		<stop  offset="1" style="stop-color:#303030"/>
	</linearGradient>
	<path fill="url(#SVGID_7_)" d="M78.277,59.833l33.199-33.384c4.196-4.229,4.196-11.105,0-15.329l-3.211-3.226
		c-2.024-2.036-4.729-3.158-7.621-3.158c-2.886,0-5.594,1.122-7.619,3.158L59.833,41.281L26.637,7.894
		c-2.023-2.036-4.729-3.158-7.62-3.158c-2.888,0-5.597,1.122-7.62,3.158l-3.203,3.222c-4.201,4.228-4.201,11.104,0,15.333
		l33.193,33.384L8.194,93.223c-2.025,2.037-3.139,4.756-3.139,7.666c0,2.905,1.114,5.625,3.139,7.663l3.203,3.224
		c2.023,2.037,4.732,3.156,7.62,3.156c2.89,0,5.597-1.119,7.62-3.156l33.196-33.39l33.192,33.39
		c2.025,2.037,4.733,3.156,7.619,3.156c2.893,0,5.597-1.119,7.621-3.156l3.211-3.224c4.196-4.229,4.196-11.102,0-15.329
		L78.277,59.833z M109.482,106.55l-3.207,3.222c-1.493,1.5-3.487,2.326-5.631,2.326c-2.131,0-4.133-0.826-5.629-2.326L59.833,74.38
		l-35.187,35.392c-1.492,1.5-3.489,2.326-5.629,2.326s-4.135-0.826-5.625-2.326l-3.207-3.222c-1.493-1.507-2.314-3.512-2.314-5.661
		c0-2.15,0.821-4.16,2.314-5.666l35.185-35.39L10.185,24.445c-1.501-1.51-2.326-3.521-2.326-5.662c0-2.144,0.825-4.154,2.326-5.665
		l3.204-3.222c1.493-1.501,3.492-2.328,5.628-2.328c2.141,0,4.14,0.827,5.632,2.328l35.184,35.388L95.016,9.897
		c1.496-1.501,3.5-2.328,5.629-2.328c2.141,0,4.139,0.827,5.633,2.328l3.205,3.226c1.502,1.507,2.33,3.518,2.33,5.661
		c0,2.14-0.828,4.152-2.33,5.662L74.298,59.833l35.185,35.39c1.502,1.514,2.33,3.521,2.33,5.666
		C111.813,103.029,110.984,105.038,109.482,106.55z"/>
	
		<linearGradient id="SVGID_8_" gradientUnits="userSpaceOnUse" x1="59.8545" y1="10.293" x2="59.8545" y2="47.162" gradientTransform="matrix(1 0 0 -1 -0.02 119.0947)">
		<stop  offset="0" style="stop-color:#FFFFFF"/>
		<stop  offset="1" style="stop-color:#000000"/>
	</linearGradient>
	<path display="none" opacity="0.4" fill="url(#SVGID_8_)" enable-background="new    " d="M100.645,110.118
		c-1.688,0-3.258-0.648-4.431-1.828L59.833,71.7l-36.38,36.59c-1.17,1.18-2.747,1.828-4.436,1.828c-1.688,0-3.265-0.648-4.43-1.828
		l-3.208-3.224c-1.184-1.186-1.83-2.771-1.83-4.461c0-1.692,0.646-3.273,1.83-4.461l30.703-30.877h35.506l30.7,30.875
		c1.179,1.187,1.832,2.771,1.832,4.463c0,1.688-0.653,3.275-1.832,4.461l-3.208,3.221
		C103.906,109.47,102.336,110.118,100.645,110.118L100.645,110.118z"/>
</g>
<g id="disabled_1_" opacity="0.2">
	<path fill="#999999" d="M100.645,114.932c-2.885,0-5.593-1.119-7.619-3.156l-33.192-33.39l-33.196,33.39
		c-2.023,2.037-4.73,3.156-7.62,3.156c-2.888,0-5.597-1.119-7.62-3.156l-3.203-3.224c-2.025-2.038-3.139-4.758-3.139-7.663
		c0-2.91,1.114-5.629,3.139-7.666l33.193-33.39L8.194,26.449c-4.201-4.229-4.201-11.105,0-15.333l3.203-3.222
		c2.023-2.036,4.732-3.158,7.62-3.158c2.891,0,5.597,1.122,7.62,3.158l33.196,33.388L93.025,7.894
		c2.025-2.036,4.733-3.158,7.619-3.158c2.893,0,5.597,1.122,7.621,3.158l3.211,3.226c4.196,4.224,4.196,11.1,0,15.329L78.277,59.833
		l33.199,33.39c4.196,4.229,4.196,11.101,0,15.329l-3.211,3.224C106.241,113.813,103.537,114.932,100.645,114.932L100.645,114.932z"
		/>
	
		<linearGradient id="SVGID_9_" gradientUnits="userSpaceOnUse" x1="59.856" y1="110.2412" x2="59.856" y2="3.4335" gradientTransform="matrix(1 0 0 -1 -0.02 119.0947)">
		<stop  offset="0" style="stop-color:#FFFFFF"/>
		<stop  offset="1" style="stop-color:#000000"/>
	</linearGradient>
	<path display="none" opacity="0.6" fill="url(#SVGID_9_)" enable-background="new    " d="M45.37,59.833L10.185,24.445
		c-1.501-1.51-2.326-3.521-2.326-5.662c0-2.144,0.825-4.154,2.326-5.665l3.204-3.222c1.493-1.501,3.492-2.328,5.628-2.328
		c2.141,0,4.14,0.827,5.632,2.328l35.184,35.391l35.183-35.39c1.496-1.501,3.5-2.328,5.629-2.328c2.141,0,4.139,0.827,5.633,2.328
		l3.205,3.226c1.502,1.507,2.33,3.518,2.33,5.661c0,2.14-0.828,4.152-2.33,5.662L74.298,59.833H45.37z"/>
	
		<linearGradient id="SVGID_10_" gradientUnits="userSpaceOnUse" x1="59.854" y1="115.5039" x2="59.854" y2="1.2137" gradientTransform="matrix(1 0 0 -1 -0.02 119.0947)">
		<stop  offset="0.0056" style="stop-color:#E6E6E6"/>
		<stop  offset="0.654" style="stop-color:#717171"/>
		<stop  offset="1" style="stop-color:#303030"/>
	</linearGradient>
	<path fill="url(#SVGID_10_)" d="M78.277,59.833l33.199-33.384c4.196-4.229,4.196-11.105,0-15.329l-3.211-3.226
		c-2.024-2.036-4.729-3.158-7.621-3.158c-2.886,0-5.594,1.122-7.619,3.158L59.833,41.281L26.637,7.894
		c-2.023-2.036-4.729-3.158-7.62-3.158c-2.888,0-5.597,1.122-7.62,3.158l-3.203,3.222c-4.201,4.228-4.201,11.104,0,15.333
		l33.193,33.384L8.194,93.223c-2.025,2.037-3.139,4.756-3.139,7.666c0,2.905,1.114,5.625,3.139,7.663l3.203,3.224
		c2.023,2.037,4.732,3.156,7.62,3.156c2.89,0,5.597-1.119,7.62-3.156l33.196-33.39l33.192,33.39
		c2.025,2.037,4.733,3.156,7.619,3.156c2.893,0,5.597-1.119,7.621-3.156l3.211-3.224c4.196-4.229,4.196-11.102,0-15.329
		L78.277,59.833z M109.482,106.55l-3.207,3.222c-1.493,1.5-3.487,2.326-5.631,2.326c-2.131,0-4.133-0.826-5.629-2.326L59.833,74.38
		l-35.187,35.392c-1.492,1.5-3.489,2.326-5.629,2.326s-4.135-0.826-5.625-2.326l-3.207-3.222c-1.493-1.507-2.314-3.512-2.314-5.661
		c0-2.15,0.821-4.16,2.314-5.666l35.185-35.39L10.185,24.445c-1.501-1.51-2.326-3.521-2.326-5.662c0-2.144,0.825-4.154,2.326-5.665
		l3.204-3.222c1.493-1.501,3.492-2.328,5.628-2.328c2.141,0,4.14,0.827,5.632,2.328l35.184,35.388L95.016,9.897
		c1.496-1.501,3.5-2.328,5.629-2.328c2.141,0,4.139,0.827,5.633,2.328l3.205,3.226c1.502,1.507,2.33,3.518,2.33,5.661
		c0,2.14-0.828,4.152-2.33,5.662L74.298,59.833l35.185,35.39c1.502,1.514,2.33,3.521,2.33,5.666
		C111.813,103.029,110.984,105.038,109.482,106.55z"/>
	
		<linearGradient id="SVGID_11_" gradientUnits="userSpaceOnUse" x1="59.8545" y1="10.293" x2="59.8545" y2="47.162" gradientTransform="matrix(1 0 0 -1 -0.02 119.0947)">
		<stop  offset="0" style="stop-color:#FFFFFF"/>
		<stop  offset="1" style="stop-color:#000000"/>
	</linearGradient>
	<path display="none" opacity="0.4" fill="url(#SVGID_11_)" enable-background="new    " d="M100.645,110.118
		c-1.688,0-3.258-0.648-4.431-1.828L59.833,71.7l-36.38,36.59c-1.17,1.18-2.747,1.828-4.436,1.828c-1.688,0-3.265-0.648-4.43-1.828
		l-3.208-3.224c-1.184-1.186-1.83-2.771-1.83-4.461c0-1.692,0.646-3.273,1.83-4.461l30.703-30.877h35.506l30.7,30.875
		c1.179,1.187,1.832,2.771,1.832,4.463c0,1.688-0.653,3.275-1.832,4.461l-3.208,3.221
		C103.906,109.47,102.336,110.118,100.645,110.118L100.645,110.118z"/>
</g>
</svg>
