<?xml version="1.0" encoding="utf-8"?>
<!-- Generator: Adobe Illustrator 15.0.0, SVG Export Plug-In . SVG Version: 6.00 Build 0)  -->
<!DOCTYPE svg PUBLIC "-//W3C//DTD SVG 1.1//EN" "http://www.w3.org/Graphics/SVG/1.1/DTD/svg11.dtd">
<svg version="1.1" id="Capa_1" xmlns="http://www.w3.org/2000/svg" xmlns:xlink="http://www.w3.org/1999/xlink" x="0px" y="0px"
	 width="120px" height="120px" viewBox="0 0 120 120" enable-background="new 0 0 120 120" xml:space="preserve">
<g>
	<g>
		<radialGradient id="SVGID_1_" cx="60" cy="60" r="55.5024" gradientUnits="userSpaceOnUse">
			<stop  offset="0" style="stop-color:#ffffff"/>
			<stop  offset="0.1394" style="stop-color:#E9E9E9"/>
			<stop  offset="0.3636" style="stop-color:#C4C4C4"/>
			<stop  offset="0.4788" style="stop-color:#ffb2b2"/>
			<stop  offset="0.5939" style="stop-color:#ff9999"/>
			<stop  offset="0.7152" style="stop-color:#ff7f7f"/>
			<stop  offset="0.903" style="stop-color:#ff4c4c"/>
			<stop  offset="1" style="stop-color:#ff1919"/>
			<stop  offset="1" style="stop-color:#FF0000"/>
		</radialGradient>
		<path fill="url(#SVGID_1_)" d="M60.547,115.471c-0.351,0-0.703-0.003-1.053-0.011l-0.845-0.019l29.368-50.865l16.483,28.561
			l-0.194,0.264c-10.025,13.613-26.793,22.07-43.758,22.07C60.548,115.471,60.548,115.471,60.547,115.471z M53.228,115.073
			c-17.254-1.929-33.16-12.573-41.511-27.781l-0.407-0.74h58.736l-16.493,28.558L53.228,115.073z M77.971,38.024l32.978,0.004
			l0.131,0.3c6.96,15.905,5.694,35.003-3.302,49.84l-0.438,0.723L77.971,38.024z M9.052,81.973l-0.131-0.3
			c-6.96-15.906-5.694-35.004,3.302-49.841l0.438-0.723l29.368,50.868L9.052,81.973z M15.5,26.863l0.194-0.263
			C25.719,12.986,42.486,4.53,59.452,4.53c0.353,0,0.704,0.004,1.055,0.011l0.845,0.018L31.985,55.424L15.5,26.863z M49.954,33.449
			L66.447,4.891l0.325,0.036c17.255,1.928,33.16,12.574,41.51,27.782l0.406,0.741H49.954z"/>
		<path d="M59.452,5.03c0.349,0,0.697,0.004,1.044,0.011L31.985,54.424L16.096,26.896C26.593,12.643,43.711,5.03,59.452,5.03
			 M66.717,5.424c17.98,2.009,33.415,13.478,41.127,27.525H50.82L66.717,5.424 M12.651,32.091l28.512,49.386L9.379,81.473
			C2.126,64.896,4.342,45.794,12.651,32.091 M78.837,38.524l31.784,0.004c7.253,16.576,5.037,35.678-3.271,49.381L78.837,38.524
			 M88.018,65.576l15.887,27.527c-10.498,14.255-27.616,21.867-43.357,21.867c-0.347,0-0.696-0.003-1.042-0.011L88.018,65.576
			 M69.18,87.052l-15.896,27.524c-17.98-2.01-33.414-13.477-41.128-27.524H69.18 M59.452,4.03c-17.122,0-34.043,8.535-44.161,22.273
			l-0.388,0.526l0.327,0.566l15.889,27.528l0.866,1.5l0.866-1.5L61.362,5.541l0.845-1.463l-1.689-0.037
			C60.163,4.034,59.808,4.03,59.452,4.03L59.452,4.03z M66.178,4.357l-0.327,0.566L49.954,32.449l-0.867,1.5h1.732h57.024h1.689
			l-0.813-1.481C100.294,17.12,84.242,6.376,66.828,4.43L66.178,4.357L66.178,4.357z M12.672,30.127l-0.876,1.445
			C2.716,46.546,1.439,65.82,8.463,81.873l0.262,0.6h0.654l31.784,0.004h1.732l-0.866-1.5L13.517,31.591L12.672,30.127
			L12.672,30.127z M77.104,37.524l0.866,1.5l28.513,49.385l0.845,1.464l0.877-1.445c9.079-14.975,10.355-34.249,3.332-50.301
			l-0.262-0.599h-0.654l-31.784-0.004H77.104L77.104,37.524z M88.018,63.576l-0.866,1.5L58.639,114.46l-0.845,1.464l1.689,0.036
			c0.354,0.008,0.709,0.011,1.063,0.011c17.122,0,34.044-8.535,44.163-22.274l0.388-0.526l-0.327-0.566L88.884,65.076L88.018,63.576
			L88.018,63.576z M70.912,86.052H69.18H12.155h-1.69l0.813,1.481c8.428,15.348,24.48,26.091,41.894,28.037l0.65,0.072l0.327-0.566
			l15.897-27.524L70.912,86.052L70.912,86.052z"/>
	</g>
</g>
</svg>
