<?xml version="1.0" encoding="utf-8"?>
<!-- Generator: Adobe Illustrator 15.0.0, SVG Export Plug-In . SVG Version: 6.00 Build 0)  -->
<!DOCTYPE svg PUBLIC "-//W3C//DTD SVG 1.1//EN" "http://www.w3.org/Graphics/SVG/1.1/DTD/svg11.dtd">
<svg version="1.1" id="Layer_1" xmlns="http://www.w3.org/2000/svg" xmlns:xlink="http://www.w3.org/1999/xlink" x="0px" y="0px"
	 width="114px" height="114px" viewBox="0 0 114 114" enable-background="new 0 0 114 114" xml:space="preserve">
<g id="normal">
	<path fill="#2FC22F" d="M111.666,58.188l-33.88,17.808V64.111h-43.52V52.596h43.52V40.379L111.666,58.188L111.666,58.188z
		 M16.064,71.699c-7.567,0-13.701-6.127-13.701-13.688c0-7.558,6.134-13.685,13.701-13.685s13.703,6.127,13.703,13.685
		C29.766,65.57,23.631,71.699,16.064,71.699L16.064,71.699z"/>
</g>
<g id="active">
	<path fill="#2FC22F" d="M111.666,58.188l-33.88,17.808V64.111h-43.52V52.596h43.52V40.379L111.666,58.188L111.666,58.188z
		 M16.064,71.699c-7.567,0-13.701-6.127-13.701-13.688c0-7.558,6.134-13.685,13.701-13.685s13.703,6.127,13.703,13.685
		C29.766,65.57,23.631,71.699,16.064,71.699L16.064,71.699z"/>
</g>
<g id="disabled" opacity="0.3">
	<path fill="#2FC22F" d="M111.666,58.188l-33.88,17.808V64.111h-43.52V52.596h43.52V40.379L111.666,58.188L111.666,58.188z
		 M16.064,71.699c-7.567,0-13.701-6.127-13.701-13.688c0-7.558,6.134-13.685,13.701-13.685s13.703,6.127,13.703,13.685
		C29.766,65.57,23.631,71.699,16.064,71.699L16.064,71.699z"/>
</g>
</svg>
