<?xml version="1.0" encoding="utf-8"?>
<!-- Generator: Adobe Illustrator 19.2.1, SVG Export Plug-In . SVG Version: 6.00 Build 0)  -->
<svg version="1.1" id="Слой_1" xmlns="http://www.w3.org/2000/svg" xmlns:xlink="http://www.w3.org/1999/xlink" x="0px" y="0px"
	 viewBox="0 0 120 120" enable-background="new 0 0 120 120" xml:space="preserve">
<g id="normal">
	<g>
		
			<radialGradient id="SVGID_1_" cx="60" cy="60" r="59" gradientTransform="matrix(1 0 0 -1 0 120)" gradientUnits="userSpaceOnUse">
			<stop  offset="0" style="stop-color:#36363D"/>
			<stop  offset="0" style="stop-color:#39393F"/>
			<stop  offset="0" style="stop-color:#414146"/>
			<stop  offset="0" style="stop-color:#4F4F52"/>
			<stop  offset="0" style="stop-color:#636364"/>
			<stop  offset="0" style="stop-color:#828282"/>
			<stop  offset="0.1565" style="stop-color:#797979"/>
			<stop  offset="0.4117" style="stop-color:#616162"/>
			<stop  offset="0.7317" style="stop-color:#39393D"/>
			<stop  offset="1" style="stop-color:#131318"/>
		</radialGradient>
		<circle fill="url(#SVGID_1_)" cx="60" cy="60" r="59"/>
		<path fill="#8DC6FF" d="M60,5c30.327,0,55,24.673,55,55s-24.673,55-55,55S5,90.327,5,60S29.673,5,60,5 M60,1
			C27.415,1,1,27.415,1,60s26.415,59,59,59s59-26.415,59-59S92.585,1,60,1L60,1z"/>
	</g>
	<g>
		<path fill="#8DC6FF" d="M50.156,77.832h18.008c1.692,0,3.001-0.558,3.926-1.672c0.924-1.115,1.712-3.526,2.363-7.234h3.867
			l-1.172,18.789H41.68v-3.373c1.9-3.045,5.664-7.706,11.289-13.98c4.974-5.571,8.189-9.736,9.648-12.496
			c2.005-3.749,3.008-7.537,3.008-11.364c0-3.306-0.736-5.818-2.207-7.537c-1.472-1.718-3.483-2.578-6.035-2.578
			c-2.578,0-4.727,0.697-6.445,2.09c-1.719,1.394-2.578,2.832-2.578,4.316c0,0.6,0.195,1.068,0.586,1.406
			c0.391,0.365,1.314,0.729,2.773,1.094c3.15,0.834,4.727,2.578,4.727,5.234c0,1.797-0.605,3.275-1.816,4.434
			c-1.211,1.159-2.729,1.738-4.551,1.738c-1.901,0-3.477-0.801-4.727-2.402s-1.875-3.86-1.875-6.777
			c0-4.063,1.328-7.461,3.984-10.195c3.255-3.359,7.682-5.039,13.281-5.039c5,0,9.036,1.392,12.109,4.176
			c3.072,2.785,4.609,6.219,4.609,10.304c0,2.186-0.378,4.189-1.133,6.01c-1.016,2.472-2.37,4.671-4.063,6.596
			c-1.693,1.926-4.558,4.359-8.594,7.299c-4.375,3.148-7.377,5.412-9.004,6.791C53.04,74.84,51.536,76.297,50.156,77.832z"/>
	</g>
</g>
<g id="active">
	<g>
		
			<radialGradient id="SVGID_2_" cx="60" cy="60" r="59" gradientTransform="matrix(1 0 0 -1 0 120)" gradientUnits="userSpaceOnUse">
			<stop  offset="0" style="stop-color:#36363D"/>
			<stop  offset="0" style="stop-color:#39393F"/>
			<stop  offset="0" style="stop-color:#414146"/>
			<stop  offset="0" style="stop-color:#4F4F52"/>
			<stop  offset="0" style="stop-color:#636364"/>
			<stop  offset="0" style="stop-color:#828282"/>
			<stop  offset="0.1565" style="stop-color:#797979"/>
			<stop  offset="0.4117" style="stop-color:#616162"/>
			<stop  offset="0.7317" style="stop-color:#39393D"/>
			<stop  offset="1" style="stop-color:#131318"/>
		</radialGradient>
		<circle fill="url(#SVGID_2_)" cx="60" cy="60" r="59"/>
		<path fill="#8DC6FF" d="M60,5c30.327,0,55,24.673,55,55s-24.673,55-55,55S5,90.327,5,60S29.673,5,60,5 M60,1
			C27.415,1,1,27.415,1,60s26.415,59,59,59s59-26.415,59-59S92.585,1,60,1L60,1z"/>
	</g>
	<g>
		<path fill="#8DC6FF" d="M50.156,77.832h18.008c1.692,0,3.001-0.558,3.926-1.672c0.924-1.115,1.712-3.526,2.363-7.234h3.867
			l-1.172,18.789H41.68v-3.373c1.9-3.045,5.664-7.706,11.289-13.98c4.974-5.571,8.189-9.736,9.648-12.496
			c2.005-3.749,3.008-7.537,3.008-11.364c0-3.306-0.736-5.818-2.207-7.537c-1.472-1.718-3.483-2.578-6.035-2.578
			c-2.578,0-4.727,0.697-6.445,2.09c-1.719,1.394-2.578,2.832-2.578,4.316c0,0.6,0.195,1.068,0.586,1.406
			c0.391,0.365,1.314,0.729,2.773,1.094c3.15,0.834,4.727,2.578,4.727,5.234c0,1.797-0.605,3.275-1.816,4.434
			c-1.211,1.159-2.729,1.738-4.551,1.738c-1.901,0-3.477-0.801-4.727-2.402s-1.875-3.86-1.875-6.777
			c0-4.063,1.328-7.461,3.984-10.195c3.255-3.359,7.682-5.039,13.281-5.039c5,0,9.036,1.392,12.109,4.176
			c3.072,2.785,4.609,6.219,4.609,10.304c0,2.186-0.378,4.189-1.133,6.01c-1.016,2.472-2.37,4.671-4.063,6.596
			c-1.693,1.926-4.558,4.359-8.594,7.299c-4.375,3.148-7.377,5.412-9.004,6.791C53.04,74.84,51.536,76.297,50.156,77.832z"/>
	</g>
</g>
<g id="disabled" opacity="0.3">
	<g>
		
			<radialGradient id="SVGID_3_" cx="60" cy="60" r="59" gradientTransform="matrix(1 0 0 -1 0 120)" gradientUnits="userSpaceOnUse">
			<stop  offset="0" style="stop-color:#36363D"/>
			<stop  offset="0" style="stop-color:#39393F"/>
			<stop  offset="0" style="stop-color:#414146"/>
			<stop  offset="0" style="stop-color:#4F4F52"/>
			<stop  offset="0" style="stop-color:#636364"/>
			<stop  offset="0" style="stop-color:#828282"/>
			<stop  offset="0.1565" style="stop-color:#797979"/>
			<stop  offset="0.4117" style="stop-color:#616162"/>
			<stop  offset="0.7317" style="stop-color:#39393D"/>
			<stop  offset="1" style="stop-color:#131318"/>
		</radialGradient>
		<circle fill="url(#SVGID_3_)" cx="60" cy="60" r="59"/>
		<path fill="#8DC6FF" d="M60,5c30.327,0,55,24.673,55,55s-24.673,55-55,55S5,90.327,5,60S29.673,5,60,5 M60,1
			C27.415,1,1,27.415,1,60s26.415,59,59,59s59-26.415,59-59S92.585,1,60,1L60,1z"/>
	</g>
	<g>
		<path fill="#8DC6FF" d="M50.156,77.832h18.008c1.692,0,3.001-0.558,3.926-1.672c0.924-1.115,1.712-3.526,2.363-7.234h3.867
			l-1.172,18.789H41.68v-3.373c1.9-3.045,5.664-7.706,11.289-13.98c4.974-5.571,8.189-9.736,9.648-12.496
			c2.005-3.749,3.008-7.537,3.008-11.364c0-3.306-0.736-5.818-2.207-7.537c-1.472-1.718-3.483-2.578-6.035-2.578
			c-2.578,0-4.727,0.697-6.445,2.09c-1.719,1.394-2.578,2.832-2.578,4.316c0,0.6,0.195,1.068,0.586,1.406
			c0.391,0.365,1.314,0.729,2.773,1.094c3.15,0.834,4.727,2.578,4.727,5.234c0,1.797-0.605,3.275-1.816,4.434
			c-1.211,1.159-2.729,1.738-4.551,1.738c-1.901,0-3.477-0.801-4.727-2.402s-1.875-3.86-1.875-6.777
			c0-4.063,1.328-7.461,3.984-10.195c3.255-3.359,7.682-5.039,13.281-5.039c5,0,9.036,1.392,12.109,4.176
			c3.072,2.785,4.609,6.219,4.609,10.304c0,2.186-0.378,4.189-1.133,6.01c-1.016,2.472-2.37,4.671-4.063,6.596
			c-1.693,1.926-4.558,4.359-8.594,7.299c-4.375,3.148-7.377,5.412-9.004,6.791C53.04,74.84,51.536,76.297,50.156,77.832z"/>
	</g>
</g>
</svg>
