<?xml version="1.0" encoding="utf-8"?>
<!-- Generator: Adobe Illustrator 15.0.0, SVG Export Plug-In . SVG Version: 6.00 Build 0)  -->
<!DOCTYPE svg PUBLIC "-//W3C//DTD SVG 1.1//EN" "http://www.w3.org/Graphics/SVG/1.1/DTD/svg11.dtd">
<svg version="1.1" id="Layer_1" xmlns="http://www.w3.org/2000/svg" xmlns:xlink="http://www.w3.org/1999/xlink" x="0px" y="0px"
	 width="114px" height="114px" viewBox="0 0 114 114" enable-background="new 0 0 114 114" xml:space="preserve">
<g id="normal">
	<g>
		<path fill="#36FF00" d="M85.621,110.784c-8.093-0.758-14.309-9.741-19.346-17.021c-4.211-6.087-7.537-10.894-11.37-10.894h-0.918
			v-51.16h0.919c3.899,0,7.417-4.776,11.49-10.306C71.648,14.271,77.571,6.229,85.621,5.55V110.784z M27.391,82.869
			c-3.497,0-10.691-6.283-10.691-9.338V42.808c0-3.319,7.494-11.099,10.691-11.099h21.34v51.16H27.391z M92.953,39.77
			c2.678,3.101,7.348,9.741,7.348,18.326c0,8.608-4.671,15.238-7.348,18.331V39.77z"/>
		<path d="M84.521,6.81v102.696c-7.027-1.464-12.698-9.66-17.34-16.369c-4.334-6.264-7.77-11.229-12.093-11.365V32.806
			c4.37-0.126,7.83-4.824,12.195-10.751C72.119,15.487,77.542,8.124,84.521,6.81 M47.631,32.809v48.959h-20.24
			c-2.868,0-9.591-5.773-9.591-8.237V42.808c0-2.71,6.991-9.999,9.591-9.999H47.631 M94.054,42.964
			c2.419,3.434,5.146,8.726,5.146,15.131s-2.728,11.697-5.146,15.131V42.964 M86.721,4.403c-15.722,0-23.791,26.206-31.814,26.206
			c-0.43,0-1.132,0-2.02,0v53.36h2.019c7.861,0,16.093,27.966,31.815,27.967V4.403L86.721,4.403z M49.831,30.609
			c-8.169,0-22.44,0-22.44,0c-3.93,0-11.791,8.358-11.791,12.199v30.724c0,3.842,7.861,10.438,11.791,10.438h22.44V30.609
			L49.831,30.609z M91.854,37.026v42.138c0,0,9.547-8.428,9.547-21.068C101.4,45.455,91.854,37.026,91.854,37.026L91.854,37.026z"/>
	</g>
	<g opacity="0.8">
		<linearGradient id="SVGID_1_" gradientUnits="userSpaceOnUse" x1="16.7002" y1="58.167" x2="100.3008" y2="58.167">
			<stop  offset="0" style="stop-color:#000000;stop-opacity:0.82"/>
			<stop  offset="0.0388" style="stop-color:#0D0D0D;stop-opacity:0.8095"/>
			<stop  offset="0.2036" style="stop-color:#3D3D3D;stop-opacity:0.7647"/>
			<stop  offset="0.3672" style="stop-color:#666666;stop-opacity:0.7203"/>
			<stop  offset="0.5266" style="stop-color:#858585;stop-opacity:0.677"/>
			<stop  offset="0.6807" style="stop-color:#9C9C9C;stop-opacity:0.6352"/>
			<stop  offset="0.8271" style="stop-color:#A9A9A9;stop-opacity:0.5954"/>
			<stop  offset="0.9576" style="stop-color:#AEAEAE;stop-opacity:0.56"/>
			<stop  offset="0.9775" style="stop-color:#B0B0B0;stop-opacity:0.6819"/>
			<stop  offset="0.9846" style="stop-color:#B6B6B6;stop-opacity:0.7258"/>
			<stop  offset="0.9897" style="stop-color:#C2C2C2;stop-opacity:0.7571"/>
			<stop  offset="0.9939" style="stop-color:#D3D3D3;stop-opacity:0.7824"/>
			<stop  offset="0.9974" style="stop-color:#E9E9E9;stop-opacity:0.8039"/>
			<stop  offset="1" style="stop-color:#FFFFFF;stop-opacity:0.82"/>
		</linearGradient>
		<path fill="url(#SVGID_1_)" d="M85.621,110.784c-8.093-0.758-14.309-9.741-19.346-17.021c-4.211-6.087-7.537-10.894-11.37-10.894
			h-0.918v-51.16h0.919c3.899,0,7.417-4.776,11.49-10.306C71.648,14.271,77.571,6.229,85.621,5.55V110.784z M27.391,82.869
			c-3.497,0-10.691-6.283-10.691-9.338V42.808c0-3.319,7.494-11.099,10.691-11.099h21.34v51.16H27.391z M92.953,39.77
			c2.678,3.101,7.348,9.741,7.348,18.326c0,8.608-4.671,15.238-7.348,18.331V39.77z"/>
		<path d="M84.521,6.81v102.696c-7.027-1.464-12.698-9.66-17.34-16.369c-4.334-6.264-7.77-11.229-12.093-11.365V32.806
			c4.37-0.126,7.83-4.824,12.195-10.751C72.119,15.487,77.542,8.124,84.521,6.81 M47.631,32.809v48.959h-20.24
			c-2.868,0-9.591-5.773-9.591-8.237V42.808c0-2.71,6.991-9.999,9.591-9.999H47.631 M94.054,42.964
			c2.419,3.434,5.146,8.726,5.146,15.131s-2.728,11.697-5.146,15.131V42.964 M86.721,4.403c-15.722,0-23.791,26.206-31.814,26.206
			c-0.43,0-1.132,0-2.02,0v53.36h2.019c7.861,0,16.093,27.966,31.815,27.967V4.403L86.721,4.403z M49.831,30.609
			c-8.169,0-22.44,0-22.44,0c-3.93,0-11.791,8.358-11.791,12.199v30.724c0,3.842,7.861,10.438,11.791,10.438h22.44V30.609
			L49.831,30.609z M91.854,37.026v42.138c0,0,9.547-8.428,9.547-21.068C101.4,45.455,91.854,37.026,91.854,37.026L91.854,37.026z"/>
	</g>
</g>
<g id="active">
	<g>
		<path fill="#00FF00" d="M85.621,110.784c-8.093-0.758-14.309-9.741-19.346-17.021c-4.211-6.087-7.537-10.894-11.37-10.894h-0.918
			v-51.16h0.919c3.899,0,7.417-4.776,11.49-10.306C71.648,14.271,77.571,6.229,85.621,5.55V110.784z M27.391,82.869
			c-3.497,0-10.691-6.283-10.691-9.338V42.808c0-3.319,7.494-11.099,10.691-11.099h21.34v51.16H27.391z M92.953,39.77
			c2.678,3.101,7.348,9.741,7.348,18.326c0,8.608-4.671,15.238-7.348,18.331V39.77z"/>
		<path d="M84.521,6.81v102.696c-7.027-1.464-12.698-9.66-17.34-16.369c-4.334-6.264-7.77-11.229-12.093-11.365V32.806
			c4.37-0.126,7.83-4.824,12.195-10.751C72.119,15.487,77.542,8.124,84.521,6.81 M47.631,32.809v48.959h-20.24
			c-2.868,0-9.591-5.773-9.591-8.237V42.808c0-2.71,6.991-9.999,9.591-9.999H47.631 M94.054,42.964
			c2.419,3.434,5.146,8.726,5.146,15.131s-2.728,11.697-5.146,15.131V42.964 M86.721,4.403c-15.722,0-23.791,26.206-31.814,26.206
			c-0.43,0-1.132,0-2.02,0v53.36h2.019c7.861,0,16.093,27.966,31.815,27.967V4.403L86.721,4.403z M49.831,30.609
			c-8.169,0-22.44,0-22.44,0c-3.93,0-11.791,8.358-11.791,12.199v30.724c0,3.842,7.861,10.438,11.791,10.438h22.44V30.609
			L49.831,30.609z M91.854,37.026v42.138c0,0,9.547-8.428,9.547-21.068C101.4,45.455,91.854,37.026,91.854,37.026L91.854,37.026z"/>
	</g>
</g>
<g id="disabled" opacity="0.35">
	<g>
		<path fill="#00FF00" d="M85.621,110.784c-8.093-0.758-14.309-9.741-19.346-17.021c-4.211-6.087-7.537-10.894-11.37-10.894h-0.918
			v-51.16h0.919c3.899,0,7.417-4.776,11.49-10.306C71.648,14.271,77.571,6.229,85.621,5.55V110.784z M27.391,82.869
			c-3.497,0-10.691-6.283-10.691-9.338V42.808c0-3.319,7.494-11.099,10.691-11.099h21.34v51.16H27.391z M92.953,39.77
			c2.678,3.101,7.348,9.741,7.348,18.326c0,8.608-4.671,15.238-7.348,18.331V39.77z"/>
		<path d="M84.521,6.81v102.696c-7.027-1.464-12.698-9.66-17.34-16.369c-4.334-6.264-7.77-11.229-12.093-11.365V32.806
			c4.37-0.126,7.83-4.824,12.195-10.751C72.119,15.487,77.542,8.124,84.521,6.81 M47.631,32.809v48.959h-20.24
			c-2.868,0-9.591-5.773-9.591-8.237V42.808c0-2.71,6.991-9.999,9.591-9.999H47.631 M94.054,42.964
			c2.419,3.434,5.146,8.726,5.146,15.131s-2.728,11.697-5.146,15.131V42.964 M86.721,4.403c-15.722,0-23.791,26.206-31.814,26.206
			c-0.43,0-1.132,0-2.02,0v53.36h2.019c7.861,0,16.093,27.966,31.815,27.967V4.403L86.721,4.403z M49.831,30.609
			c-8.169,0-22.44,0-22.44,0c-3.93,0-11.791,8.358-11.791,12.199v30.724c0,3.842,7.861,10.438,11.791,10.438h22.44V30.609
			L49.831,30.609z M91.854,37.026v42.138c0,0,9.547-8.428,9.547-21.068C101.4,45.455,91.854,37.026,91.854,37.026L91.854,37.026z"/>
	</g>
</g>
</svg>
