<?xml version="1.0" encoding="utf-8"?>
<!-- Generator: Adobe Illustrator 16.0.0, SVG Export Plug-In . SVG Version: 6.00 Build 0)  -->
<!DOCTYPE svg PUBLIC "-//W3C//DTD SVG 1.1//EN" "http://www.w3.org/Graphics/SVG/1.1/DTD/svg11.dtd">
<svg version="1.1" id="Calque_1" xmlns="http://www.w3.org/2000/svg" xmlns:xlink="http://www.w3.org/1999/xlink" x="0px" y="0px"
	 width="114px" height="114px" viewBox="0 0 114 114" enable-background="new 0 0 114 114" xml:space="preserve">
<linearGradient id="star_1_" gradientUnits="userSpaceOnUse" x1="-917.437" y1="677.9238" x2="-918.8653" y2="670.782" gradientTransform="matrix(12.75 -2.55 -2.55 -12.75 13483.0254 6308.2441)">
	<stop  offset="0" style="stop-color:#FEDF34"/>
	<stop  offset="0.1758" style="stop-color:#FECD26"/>
	<stop  offset="0.4969" style="stop-color:#FFB211"/>
	<stop  offset="0.782" style="stop-color:#FFA204"/>
	<stop  offset="1" style="stop-color:#FF9C00"/>
</linearGradient>
<path id="star" fill="url(#star_1_)" d="M87.699,98.862L56.953,82.657L26.171,98.793l5.914-34.242L7.223,40.266l34.4-4.958
	L57.041,4.163l15.348,31.179l34.389,5.035L81.861,64.604L87.699,98.862L87.699,98.862z"/>
<path id="ol" opacity="0.69" fill="none" stroke="#FFFFFF" stroke-width="0.186" enable-background="new    " d="M84.604,94.522
	L56.947,79.944L29.291,94.438l5.279-30.765L12.378,41.971l30.742-4.425L57.027,9.453l13.851,28.112l30.741,4.51L79.371,63.737
	L84.604,94.522L84.604,94.522z"/>
<linearGradient id="hl_1_" gradientUnits="userSpaceOnUse" x1="-899.1226" y1="682.6084" x2="-897.3325" y2="677.2971" gradientTransform="matrix(12.75 0 0 -12.75 11510.625 8714.1797)">
	<stop  offset="0" style="stop-color:#FCF9FB"/>
	<stop  offset="1" style="stop-color:#FCF9FB;stop-opacity:0"/>
</linearGradient>
<path id="hl" opacity="0.8" fill="url(#hl_1_)" enable-background="new    " d="M42.37,36.436L57.03,6.803l14.6,29.643l32.576,4.776
	l-8.381,8.158c-38.058-8.954-21.892,17.531-63.827,22.443l1.315-7.725L9.792,41.117L42.37,36.436L42.37,36.436z"/>
<linearGradient id="SVGID_1_" gradientUnits="userSpaceOnUse" x1="39.1084" y1="38.9009" x2="106.5742" y2="38.9009" gradientTransform="matrix(1 0 0 -1 -0.02 113.0947)">
	<stop  offset="0" style="stop-color:#E1DEDB"/>
	<stop  offset="0.0044" style="stop-color:#F0ECE9"/>
	<stop  offset="0.0079" style="stop-color:#FFFBF7"/>
	<stop  offset="0.0578" style="stop-color:#F1ECE9"/>
	<stop  offset="0.1535" style="stop-color:#CBC5C6"/>
	<stop  offset="0.264" style="stop-color:#999196"/>
	<stop  offset="0.5225" style="stop-color:#F2F2F2"/>
	<stop  offset="0.5727" style="stop-color:#E5E3E4"/>
	<stop  offset="0.6685" style="stop-color:#C2BCBE"/>
	<stop  offset="0.7578" style="stop-color:#9C9396"/>
	<stop  offset="1" style="stop-color:#C9C8C8"/>
	<stop  offset="1" style="stop-color:#FFFCFC"/>
</linearGradient>
<path fill="url(#SVGID_1_)" stroke="#666666" stroke-width="0.5" d="M48.182,109.25c-2.3,0-4.458-0.926-6.078-2.605
	c-3.292-3.42-3.352-8.848-0.136-12.355L54.477,81.21l7.271-7.062c-9.84-8.967-17.835-16.26-17.835-16.26l-0.16-0.171l-3.827-4.774
	l-0.081-0.186c-1.456-3.376-0.775-7.243,1.734-9.851c1.621-1.684,3.78-2.611,6.079-2.611c2.229,0,4.342,0.877,5.953,2.47
	l12.56,12.972l6.782,7.54c14.938-14.486,22.863-22.145,23.561-22.765c1.012-0.899,2.213-1.375,3.475-1.375
	c1.324,0,2.592,0.537,3.57,1.511c1.944,1.936,2.193,5.135,0.568,7.285c-0.186,0.244-0.742,0.981-21.727,25.854
	c10.213,11.365,22.102,24.613,22.861,25.535c1.771,2.137,1.717,5.142-0.13,7.143c-1.013,1.096-2.452,1.725-3.95,1.725
	c-0.002,0-0.002,0-0.002,0c-1.188,0-2.299-0.393-3.207-1.135c-0.234-0.19-0.938-0.766-24.724-22.426
	c-9.037,10.705-16.545,19.587-16.545,19.587l-0.164,0.167l-4.61,3.988l-0.19,0.089C50.616,108.984,49.418,109.25,48.182,109.25z
	 M46.021,55.751c0.925,0.844,9.159,8.354,18.926,17.256l1.18,1.074l-9.521,9.242L44.158,96.339c-2.09,2.281-2.052,5.979,0.107,8.224
	c1.565,1.627,3.995,2.121,6.031,1.258l4.194-3.629c0.838-0.99,8.527-10.09,17.473-20.687l1.005-1.188l1.151,1.048
	c20.542,18.708,25.343,23.034,25.752,23.368c0.463,0.379,0.969,0.457,1.311,0.457l0,0c0.655,0,1.31-0.282,1.748-0.758
	c0.842-0.912,0.85-2.197,0.021-3.197c-0.586-0.709-8.985-10.088-23.652-26.411l-0.873-0.972l0.842-1
	c17.986-21.316,22.146-26.3,22.469-26.726c0.789-1.044,0.486-2.575-0.291-3.35c-0.825-0.821-2.014-0.839-2.934-0.022
	c-0.385,0.342-4.09,3.884-24.587,23.764l-1.118,1.084l-8.826-9.816l-12.5-12.909c-1.022-1.01-2.387-1.58-3.82-1.58
	c-1.476,0-2.867,0.601-3.917,1.691c-1.6,1.664-2.077,4.215-1.214,6.405L46.021,55.751z"/>
<radialGradient id="SVGID_2_" cx="72.8516" cy="38.9004" r="32.9007" gradientTransform="matrix(1 0 0 -1 -0.02 113.0947)" gradientUnits="userSpaceOnUse">
	<stop  offset="0" style="stop-color:#C40000"/>
	<stop  offset="0.6957" style="stop-color:#F90100"/>
	<stop  offset="0.7281" style="stop-color:#F90706"/>
	<stop  offset="0.7707" style="stop-color:#FA1716"/>
	<stop  offset="0.8182" style="stop-color:#FC3231"/>
	<stop  offset="1" style="stop-color:#FD4645"/>
</radialGradient>
<path fill="url(#SVGID_2_)" d="M104.105,100.277c-0.754-0.914-13.092-14.66-23.692-26.459C91.55,60.62,102.348,47.804,102.932,47.03
	c1.228-1.623,0.909-3.984-0.43-5.317c-1.371-1.364-3.426-1.472-4.988-0.08c-0.859,0.765-13.463,12.973-24.634,23.807
	c-4.575-5.09-7.786-8.657-7.786-8.657L52.558,43.833c-2.779-2.748-7.167-2.719-9.896,0.115c-2.139,2.223-2.606,5.507-1.438,8.216
	l3.7,4.616c0,0,8.642,7.884,19.014,17.335c-4.924,4.777-8.376,8.132-8.376,8.132L43.074,95.302
	c-2.65,2.892-2.623,7.462,0.111,10.302c2.146,2.228,5.312,2.713,7.925,1.498l4.451-3.853c0,0,8.07-9.549,17.548-20.776
	c12.707,11.572,25.068,22.813,25.813,23.422c1.562,1.272,3.828,0.94,5.109-0.444C105.343,104.027,105.445,101.896,104.105,100.277z"
	/>
</svg>
