<?xml version="1.0" encoding="utf-8"?>
<!-- Generator: Adobe Illustrator 16.0.2, SVG Export Plug-In . SVG Version: 6.00 Build 0)  -->
<!DOCTYPE svg PUBLIC "-//W3C//DTD SVG 1.1//EN" "http://www.w3.org/Graphics/SVG/1.1/DTD/svg11.dtd">
<svg version="1.1" id="Layer_1" xmlns="http://www.w3.org/2000/svg" xmlns:xlink="http://www.w3.org/1999/xlink" x="0px" y="0px"
	 width="200px" height="200px" viewBox="0 0 200 200" enable-background="new 0 0 200 200" xml:space="preserve">
<g id="limbo">
	
		<linearGradient id="SVGID_1_" gradientUnits="userSpaceOnUse" x1="3299.7393" y1="-5859.5664" x2="2751.2734" y2="-4706.7461" gradientTransform="matrix(0.19 0 0 -0.19 -484.0125 -923.095)">
		<stop  offset="0" style="stop-color:#000000"/>
		<stop  offset="1" style="stop-color:#EDEDE9"/>
	</linearGradient>
	<path fill="none" stroke="url(#SVGID_1_)" stroke-width="8.4494" d="M99.994,5.009c-24.352,0.005-48.687,9.264-67.21,27.787
		c-37.044,37.044-37.044,97.376,0,134.416c37.044,37.041,97.38,37.046,134.418,0c37.039-37.044,37.08-97.407,0.034-134.453
		C148.714,14.236,124.346,5,99.99,5.005L99.994,5.009z"/>
	
		<linearGradient id="SVGID_2_" gradientUnits="userSpaceOnUse" x1="2890.6748" y1="-4937.8315" x2="3260.3535" y2="-5839.9629" gradientTransform="matrix(0.19 0 0 -0.19 -484.0125 -923.095)">
		<stop  offset="0" style="stop-color:#333333"/>
		<stop  offset="1" style="stop-color:#CED1D0"/>
	</linearGradient>
	<path fill="none" stroke="url(#SVGID_2_)" stroke-width="13.887" d="M161.807,161.818c34.101-34.1,34.121-89.545,0.021-123.641
		C127.734,4.079,72.287,4.104,38.188,38.2c-34.096,34.096-34.096,89.515,0,123.61c34.098,34.096,89.518,34.096,123.613,0
		L161.807,161.818z"/>
	<path fill="#4D4D4D" d="M161.807,161.818c34.101-34.1,34.121-89.545,0.021-123.641C127.734,4.079,72.287,4.104,38.188,38.2
		c-34.096,34.096-34.096,89.515,0,123.61c34.098,34.096,89.518,34.096,123.613,0L161.807,161.818z"/>
	<path fill="#FFFFFF" d="M155.48,153.654l-1.83,1.83l-6.104-6.098l1.83-1.828L155.48,153.654z M174.867,118.732l-0.672,2.5
		l-8.327-2.231l0.672-2.5L174.867,118.732z M174.195,78.793l0.672,2.5l-8.327,2.231l-0.672-2.498L174.195,78.793z M153.65,44.541
		l1.83,1.83l-6.104,6.098l-1.83-1.83L153.65,44.541z M46.359,155.484l-1.83-1.83l6.098-6.096l1.83,1.828L46.359,155.484z
		 M25.808,121.232l-0.668-2.5l8.329-2.231l0.67,2.5L25.808,121.232z M25.14,81.292l0.668-2.498l8.331,2.231l-0.67,2.5L25.14,81.292z
		 M44.529,46.37l1.83-1.83l6.096,6.098l-1.828,1.83L44.529,46.37L44.529,46.37z M78.782,25.819l2.498-0.668l2.233,8.329l-2.5,0.67
		L78.782,25.819z M118.723,25.151l2.502,0.668l-2.232,8.331l-2.504-0.67L118.723,25.151z"/>
	<text transform="matrix(1 0 0 1 79.4229 180.8945)" fill="#FFFFFF" font-family="'Arial-BoldMT'" font-size="12">SPEED</text>
	<text transform="matrix(1 0 0 1 52.9287 145.8555)" fill="#FFFFFF" font-family="'Arial-BoldMT'" font-size="12">20</text>
	
		<linearGradient id="SVGID_3_" gradientUnits="userSpaceOnUse" x1="2821.3701" y1="-4485.3711" x2="3218.9644" y2="-5643.7944" gradientTransform="matrix(0.19 0 0 -0.19 -484.0115 -923.095)">
		<stop  offset="0" style="stop-color:#FFFFFF"/>
		<stop  offset="1" style="stop-color:#FFFFFF;stop-opacity:0"/>
	</linearGradient>
	<path opacity="0.4733" fill="url(#SVGID_3_)" enable-background="new    " d="M161.48,35.735
		C128.468,2.578,74.792,2.601,41.779,35.758c-53.652,55.33,7,65.146,60.403,68.926c58.772-5.214,106.155-17.333,59.295-68.948l0,0
		L161.48,35.735L161.48,35.735z"/>
	
		<linearGradient id="SVGID_4_" gradientUnits="userSpaceOnUse" x1="1267.5322" y1="3521.6836" x2="767.3076" y2="4126.0293" gradientTransform="matrix(-0.1924 0.1924 0.1924 0.1924 -450.9638 -843.1222)">
		<stop  offset="0" style="stop-color:#00FF00"/>
		<stop  offset="0.4867" style="stop-color:#FFFF00"/>
		<stop  offset="0.7434" style="stop-color:#FF7F00"/>
		<stop  offset="1" style="stop-color:#FF0000"/>
	</linearGradient>
	<path fill="url(#SVGID_4_)" d="M100.205,11.874c-22.446,0.006-44.894,8.564-61.988,25.659c-34.189,34.189-34.189,89.756,0,123.939
		l4.847-4.849c-31.512-31.515-31.512-82.733,0-114.251c31.512-31.516,82.734-31.512,114.254,0
		c31.516,31.512,31.509,82.734,0,114.251c-1.342,1.339-2.729,2.61-4.131,3.839l4.519,5.169c1.539-1.335,3.019-2.724,4.455-4.159
		c34.188-34.189,34.224-89.785,0.034-123.977C145.1,20.402,122.65,11.864,100.205,11.87V11.874L100.205,11.874z"/>
	<text transform="matrix(1 0 0 1 36.2622 119.3555)" fill="#FFFFFF" font-family="'Arial-BoldMT'" font-size="12">40</text>
	<text transform="matrix(1 0 0 1 36.2622 87.1875)" fill="#FFFFFF" font-family="'Arial-BoldMT'" font-size="12">60</text>
	<text transform="matrix(1 0 0 1 50.7617 62.5215)" fill="#FFFFFF" font-family="'Arial-BoldMT'" font-size="12">80</text>
	<text transform="matrix(1 0 0 1 73.2622 45.6875)" fill="#FFFFFF" font-family="'Arial-BoldMT'" font-size="12">100</text>
	<text transform="matrix(1 0 0 1 106.0957 45.6875)" fill="#FFFFFF" font-family="'Arial-BoldMT'" font-size="12">120</text>
	<text transform="matrix(1 0 0 1 130.4785 62.5215)" fill="#FFFFFF" font-family="'Arial-BoldMT'" font-size="12">140</text>
	<text transform="matrix(1 0 0 1 144.4297 87.1875)" fill="#FFFFFF" font-family="'Arial-BoldMT'" font-size="12">160</text>
	<text transform="matrix(1 0 0 1 144.4297 119.3555)" fill="#FFFFFF" font-family="'Arial-BoldMT'" font-size="12">180</text>
	<text transform="matrix(1 0 0 1 130.4785 145.8535)" fill="#FFFFFF" font-family="'Arial-BoldMT'" font-size="12">200</text>
</g>
<g id="arrow">
	<g transform="matrix(.95871 .52203 .52203 -.95871 86.015 292.71)">
		<path d="M-62.165,130.879l-5.659,35.638c0,0-4.831,1.962-6.209,1.585c-1.378-0.376-4.803-4.6-4.803-4.6l11.166-34.132
			l11.165-34.133L-62.165,130.879z"/>
	</g>
	<g transform="matrix(.95871 .52203 .52203 -.95871 86.015 289.84)">
		<g>
			<g>
				<g>
					<path fill="#FFFFFF" d="M-61.288,127.57l-5.657,35.639c0,0-4.834,1.96-6.21,1.585c-1.379-0.375-4.805-4.599-4.805-4.599
						l11.17-34.131l11.163-34.132L-61.288,127.57z"/>
				</g>
			</g>
		</g>
	</g>
	<path fill="#666666" d="M102.208,99.983c0.002,1.203-0.97,2.181-2.171,2.184c-1.202,0.002-2.181-0.97-2.183-2.171
		c0-0.003,0-0.007,0-0.013c-0.003-1.203,0.969-2.179,2.169-2.183c1.204-0.004,2.181,0.969,2.185,2.171
		C102.208,99.975,102.208,99.979,102.208,99.983z"/>
</g>
</svg>
