<?xml version="1.0" encoding="utf-8"?>
<!-- Generator: Adobe Illustrator 16.0.0, SVG Export Plug-In . SVG Version: 6.00 Build 0)  -->
<!DOCTYPE svg PUBLIC "-//W3C//DTD SVG 1.1//EN" "http://www.w3.org/Graphics/SVG/1.1/DTD/svg11.dtd">
<svg version="1.1" id="Calque_1" xmlns="http://www.w3.org/2000/svg" xmlns:xlink="http://www.w3.org/1999/xlink" x="0px" y="0px"
	 width="114px" height="114px" viewBox="0 0 114 114" enable-background="new 0 0 114 114" xml:space="preserve">
<g id="normal_2_">
	
		<linearGradient id="SVGID_1_" gradientUnits="userSpaceOnUse" x1="17.7192" y1="-1493.0225" x2="17.7192" y2="-1385.6362" gradientTransform="matrix(1 0 0 -1 33.3394 -1382.7451)">
		<stop  offset="0" style="stop-color:#FFFFFF"/>
		<stop  offset="0.1517" style="stop-color:#939393"/>
		<stop  offset="0.4438" style="stop-color:#FFFFFF"/>
		<stop  offset="0.736" style="stop-color:#D6D6D6"/>
		<stop  offset="1" style="stop-color:#FFFFFF"/>
	</linearGradient>
	<path fill="url(#SVGID_1_)" stroke="#000000" stroke-width="0.5" stroke-miterlimit="10" d="M43.107,110.277
		c-1.888,0-3.459-1.422-3.623-3.271c0,0-1.071-12.162-1.398-15.891c-8.703-2.604-16.573-7.988-22.379-15.361
		c-6.384-8.1-9.899-18.15-9.899-28.291c0-11.907,4.707-23.099,13.256-31.515C27.61,7.528,38.974,2.891,51.06,2.891
		c12.085,0,23.448,4.635,31.997,13.056c8.545,8.417,13.252,19.61,13.252,31.514c0,10.162-3.51,20.217-9.881,28.316
		c-5.801,7.369-13.68,12.756-22.395,15.342c-0.328,3.736-1.396,15.887-1.396,15.887c-0.164,1.854-1.734,3.271-3.623,3.271H43.107"/>
	
		<linearGradient id="SVGID_2_" gradientUnits="userSpaceOnUse" x1="0.9819" y1="-2258.2402" x2="0.9819" y2="-2158.0132" gradientTransform="matrix(1 0 0 -1 50.0791 -2151.5449)">
		<stop  offset="0" style="stop-color:#724300"/>
		<stop  offset="0.17" style="stop-color:#ECCD14;stop-opacity:0.8085"/>
		<stop  offset="1" style="stop-color:#F2FA0C"/>
	</linearGradient>
	<path fill="url(#SVGID_2_)" d="M51.061,6.468c22.986,0,41.613,18.353,41.613,40.989c0,19.418-13.641,36.619-32.043,40.855
		l-1.615,18.383H43.109l-1.618-18.383C23.125,84.051,9.448,66.85,9.448,47.457C9.444,24.821,28.078,6.468,51.061,6.468L51.061,6.468
		z"/>
	
		<radialGradient id="SVGID_3_" cx="-1202.9648" cy="-2162.9434" r="46.0601" gradientTransform="matrix(-4.371139e-008 -1 -0.7 3.059797e-008 -1462.9989 -1146.3835)" gradientUnits="userSpaceOnUse">
		<stop  offset="0.5688" style="stop-color:#F2FA0C"/>
		<stop  offset="0.62" style="stop-color:#EEF40C"/>
		<stop  offset="0.6855" style="stop-color:#E3E50B"/>
		<stop  offset="0.7587" style="stop-color:#D1CA09"/>
		<stop  offset="0.8376" style="stop-color:#B7A606"/>
		<stop  offset="0.9201" style="stop-color:#977703"/>
		<stop  offset="1" style="stop-color:#724300"/>
	</radialGradient>
	<path opacity="0.3" fill="url(#SVGID_3_)" enable-background="new    " d="M51.061,6.468c22.986,0,41.613,18.353,41.613,40.989
		c0,19.418-13.641,36.619-32.043,40.855l-1.615,18.383H43.109l-1.618-18.383C23.125,84.051,9.448,66.85,9.448,47.457
		C9.444,24.821,28.078,6.468,51.061,6.468L51.061,6.468z"/>
	
		<linearGradient id="SVGID_4_" gradientUnits="userSpaceOnUse" x1="0.9839" y1="-2236.6738" x2="0.9839" y2="-2200.3232" gradientTransform="matrix(1 0 0 -1 50.0791 -2151.5449)">
		<stop  offset="0" style="stop-color:#FAFBAE"/>
		<stop  offset="1" style="stop-color:#DDB100;stop-opacity:0"/>
	</linearGradient>
	<path fill="url(#SVGID_4_)" d="M51.061,85.129c22.723,0,37.854-13.971,37.854-36.351c-33.976,15.841-39.719,14.878-75.702,0
		C13.211,71.158,28.336,85.129,51.061,85.129L51.061,85.129z"/>
	<path d="M79.424,58.703V41.552h6.197v17.151H79.424L79.424,58.703z M60.822,58.703h9.301V35.836h6.199v28.589h-15.5V58.703
		L60.822,58.703z M60.822,30.117h6.195v25.734h-6.195V30.117L60.822,30.117z M51.522,73H29.819c-4.189,0-6.152-2.619-6.152-6.484
		V28.028c0-3.865,1.963-6.487,6.152-6.487h18.599c4.189,0,9.3,1.854,9.3,5.717v40.023C57.719,71.148,55.711,73,51.522,73L51.522,73z
		 M29.359,58.627c0,4.354,3.828,7.889,8.552,7.889c4.729,0,8.555-3.531,8.555-7.889c0-4.354-3.827-7.889-8.555-7.889
		C33.187,50.738,29.359,54.271,29.359,58.627L29.359,58.627z M48.326,28.028c-3.141,0-5.687,2.351-5.687,5.247
		c0,2.898,2.545,5.251,5.687,5.251c3.144,0,5.692-2.353,5.692-5.251C54.02,30.379,51.47,28.028,48.326,28.028L48.326,28.028z"/>
	
		<linearGradient id="SVGID_5_" gradientUnits="userSpaceOnUse" x1="-20.3091" y1="-2167.6401" x2="-20.3091" y2="-2192.0962" gradientTransform="matrix(1 0 0 -1 50.0791 -2151.5449)">
		<stop  offset="0" style="stop-color:#FFFFFF"/>
		<stop  offset="1" style="stop-color:#FFFFFF;stop-opacity:0"/>
	</linearGradient>
	<path fill="url(#SVGID_5_)" d="M42.185,16.095c-0.547,0.662-11.715-0.28-11.715,12.015C16.793,28.324,18,39.966,17.355,40.551
		C17.354,25.87,27.279,16.095,42.185,16.095L42.185,16.095z"/>
	<linearGradient id="SVGID_6_" gradientUnits="userSpaceOnUse" x1="35.5835" y1="76.7227" x2="103.0498" y2="76.7227">
		<stop  offset="0" style="stop-color:#E1DEDB"/>
		<stop  offset="0.0044" style="stop-color:#F0ECE9"/>
		<stop  offset="0.0079" style="stop-color:#FFFBF7"/>
		<stop  offset="0.0578" style="stop-color:#F1ECE9"/>
		<stop  offset="0.1535" style="stop-color:#CBC5C6"/>
		<stop  offset="0.264" style="stop-color:#999196"/>
		<stop  offset="0.5225" style="stop-color:#F2F2F2"/>
		<stop  offset="0.5727" style="stop-color:#E5E3E4"/>
		<stop  offset="0.6685" style="stop-color:#C2BCBE"/>
		<stop  offset="0.7578" style="stop-color:#9C9396"/>
		<stop  offset="1" style="stop-color:#C9C8C8"/>
		<stop  offset="1" style="stop-color:#FFFCFC"/>
	</linearGradient>
	<path fill="url(#SVGID_6_)" stroke="#666666" stroke-width="0.5" d="M44.676,111.778c-2.3,0-4.458-0.926-6.078-2.606
		c-3.292-3.42-3.352-8.847-0.136-12.355l12.509-13.078l7.271-7.061c-9.84-8.967-17.835-16.261-17.835-16.261l-0.16-0.17
		l-3.827-4.774l-0.081-0.186c-1.456-3.375-0.775-7.242,1.734-9.85c1.621-1.684,3.78-2.611,6.079-2.611
		c2.229,0,4.342,0.877,5.953,2.47l12.56,12.972l6.782,7.54c14.938-14.487,22.863-22.145,23.561-22.766
		c1.011-0.899,2.212-1.375,3.475-1.375c1.323,0,2.591,0.537,3.57,1.511c1.944,1.936,2.193,5.135,0.568,7.285
		c-0.185,0.244-0.742,0.981-21.727,25.854c10.214,11.366,22.102,24.614,22.861,25.535c1.771,2.137,1.717,5.142-0.129,7.143
		c-1.013,1.096-2.453,1.724-3.951,1.724c-0.001,0-0.001,0-0.001,0c-1.189,0-2.299-0.392-3.208-1.134
		c-0.234-0.191-0.938-0.766-24.723-22.426C60.708,97.863,53.2,106.745,53.2,106.745l-0.164,0.167l-4.61,3.988l-0.19,0.089
		C47.11,111.513,45.912,111.778,44.676,111.778z M42.515,58.279c0.925,0.844,9.159,8.354,18.927,17.256l1.179,1.074L53.1,85.852
		L40.652,98.867c-2.09,2.281-2.052,5.98,0.107,8.224c1.565,1.626,3.995,2.12,6.031,1.258l4.194-3.629
		c0.837-0.991,8.528-10.091,17.472-20.687l1.005-1.189l1.151,1.048c20.542,18.708,25.343,23.034,25.752,23.369
		c0.463,0.378,0.969,0.457,1.311,0.457l0,0c0.655,0,1.309-0.283,1.748-0.759c0.841-0.911,0.85-2.196,0.021-3.196
		c-0.586-0.71-8.985-10.089-23.652-26.412l-0.873-0.972l0.842-0.999c17.986-21.317,22.146-26.3,22.469-26.726
		c0.789-1.044,0.486-2.575-0.292-3.35c-0.825-0.821-2.014-0.839-2.934-0.022c-0.384,0.342-4.089,3.884-24.586,23.763L69.3,70.129
		l-8.827-9.816L47.974,47.405c-1.022-1.01-2.387-1.58-3.82-1.58c-1.476,0-2.867,0.601-3.917,1.691
		c-1.6,1.664-2.077,4.215-1.214,6.405L42.515,58.279z"/>
	<radialGradient id="SVGID_7_" cx="69.3262" cy="76.7227" r="32.9007" gradientUnits="userSpaceOnUse">
		<stop  offset="0" style="stop-color:#C40000"/>
		<stop  offset="0.6957" style="stop-color:#F90100"/>
		<stop  offset="0.7281" style="stop-color:#F90706"/>
		<stop  offset="0.7707" style="stop-color:#FA1716"/>
		<stop  offset="0.8182" style="stop-color:#FC3231"/>
		<stop  offset="1" style="stop-color:#FD4645"/>
	</radialGradient>
	<path fill="url(#SVGID_7_)" d="M100.6,102.806c-0.754-0.914-13.091-14.66-23.692-26.458c11.137-13.199,21.934-26.016,22.519-26.789
		c1.227-1.623,0.909-3.984-0.43-5.317c-1.371-1.364-3.426-1.472-4.989-0.08c-0.858,0.765-13.462,12.973-24.633,23.807
		c-4.576-5.09-7.786-8.658-7.786-8.658L49.052,46.361c-2.779-2.748-7.167-2.719-9.896,0.115c-2.139,2.223-2.606,5.507-1.438,8.216
		l3.7,4.616c0,0,8.642,7.884,19.014,17.335c-4.924,4.778-8.377,8.132-8.377,8.132L39.568,97.83
		c-2.65,2.892-2.623,7.462,0.111,10.301c2.146,2.228,5.312,2.713,7.925,1.498l4.451-3.852c0,0,8.07-9.549,17.549-20.776
		c12.707,11.572,25.068,22.813,25.813,23.421c1.561,1.273,3.828,0.941,5.109-0.444C101.837,106.556,101.94,104.424,100.6,102.806z"
		/>
</g>
</svg>
