<?xml version="1.0" encoding="UTF-8" standalone="no"?>
<!-- Generator: Adobe Illustrator 17.1.0, SVG Export Plug-In . SVG Version: 6.00 Build 0)  -->

<svg
   xmlns:dc="http://purl.org/dc/elements/1.1/"
   xmlns:cc="http://creativecommons.org/ns#"
   xmlns:rdf="http://www.w3.org/1999/02/22-rdf-syntax-ns#"
   xmlns:svg="http://www.w3.org/2000/svg"
   xmlns="http://www.w3.org/2000/svg"
   xmlns:sodipodi="http://sodipodi.sourceforge.net/DTD/sodipodi-0.dtd"
   xmlns:inkscape="http://www.inkscape.org/namespaces/inkscape"
   version="1.1"
   x="0px"
   y="0px"
   width="120px"
   height="120px"
   viewBox="0 0 120 120"
   enable-background="new 0 0 120 120"
   xml:space="preserve"
   id="svg6328"
   inkscape:version="0.48.5 r10040"
   sodipodi:docname="ico_route_unpavedroad.svg"><metadata
   id="metadata6348"><rdf:RDF><cc:Work
       rdf:about=""><dc:format>image/svg+xml</dc:format><dc:type
         rdf:resource="http://purl.org/dc/dcmitype/StillImage" /></cc:Work></rdf:RDF></metadata><defs
   id="defs6346" /><sodipodi:namedview
   pagecolor="#ffffff"
   bordercolor="#666666"
   borderopacity="1"
   objecttolerance="10"
   gridtolerance="10"
   guidetolerance="10"
   inkscape:pageopacity="0"
   inkscape:pageshadow="2"
   inkscape:window-width="1600"
   inkscape:window-height="1137"
   id="namedview6344"
   showgrid="false"
   inkscape:zoom="1.9666667"
   inkscape:cx="60"
   inkscape:cy="60"
   inkscape:window-x="-8"
   inkscape:window-y="-8"
   inkscape:window-maximized="1"
   inkscape:current-layer="svg6328" />
<g
   id="Layer_2"
   display="none">
	<circle
   display="inline"
   opacity="0.5"
   fill="#DF1F26"
   cx="60"
   cy="60"
   r="60"
   id="circle6331" />
	<rect
   x="6.5"
   y="6.5"
   display="inline"
   opacity="0.5"
   fill="#3B4FA1"
   width="107"
   height="107"
   id="rect6333" />
</g>
<g
   id="normal">
	<path
   fill-rule="evenodd"
   clip-rule="evenodd"
   fill="#FCBF06"
   d="M112.412,88.82c-2.482,2.482-4.887,0.054-4.887,0.054   s-3.807-2.12-6.24-3.474c-1.142-0.636-4.342-1.102-4.342-1.102s-12.216,3.836-18.058,5.373c-1.464,0.385-2.38,0.626-2.38,0.626   s-14.73-9.671-20.739-13.234c-1.336-0.793-7.087,0-7.087,0s-12.675,7.971-18.317,12.345c-1.037,0.804-8.737,1.279-8.737,1.279   L7.885,80.288c0,0-2.576-1.598-0.702-5.446c1.55-2.041,4.143-0.953,4.143-0.953l12.266,8.024c0,0,3.138,1.757,4.417,0.758   c5.986-4.672,20.616-13.212,20.616-13.212s5.636-0.339,7.143,0.516C62.4,73.736,77.962,82.39,77.962,82.39s0.89-0.234,2.313-0.608   c5.674-1.494,17.454-5.215,17.454-5.215s3.449,0.666,4.976,1.603c3.63,2.225,9.757,5.98,9.757,5.98S114.83,86.401,112.412,88.82   L112.412,88.82z M78.405,59.331c3.503,0.94,5.559,4.626,4.592,8.234c-0.967,3.608-4.591,5.773-8.094,4.835   c-3.505-0.94-5.561-4.626-4.594-8.234C71.276,60.558,74.9,58.393,78.405,59.331L78.405,59.331z M40.308,49.123   c3.504,0.94,5.561,4.626,4.594,8.234c-0.967,3.608-4.591,5.773-8.095,4.833c-3.504-0.938-5.561-4.624-4.594-8.232   C33.179,50.348,36.803,48.185,40.308,49.123L40.308,49.123z M87.354,67.579c0.933-5.591-2.391-11.044-7.821-12.498   c-5.411-1.45-10.998,1.587-13,6.861l-17.26-4.672c0.876-5.555-2.439-10.95-7.836-12.396c-5.379-1.442-10.926,1.55-12.962,6.767   l-6.749-1.827c0,0,0.534-2.323,1.942-7.178c1.059-3.654,10.808-7.821,13.11-7.469c6.435,0.98,13.072,2.079,13.072,2.079   s5.306-4.385,7.168-6.268c0.601-0.225,1.559-2.111,4.444-1.564c6.652,1.33,16.68,4.984,18.145,5.391   c1.467,0.406,2.052,1.056,2.466,3.106c0.429,2.12,1.458,9.554,1.458,9.554s6.66,2.415,10.501,3.944   c1.687,0.672,2.534,1.125,2.641,3.85c0.124,3.135-1.969,14.311-1.969,14.311L87.354,67.579L87.354,67.579z"
   id="path6336"
   style="fill:#a05a2c" />
</g>


</svg>