<?xml version="1.0" encoding="utf-8"?>
<!-- Generator: Adobe Illustrator 16.0.2, SVG Export Plug-In . SVG Version: 6.00 Build 0)  -->
<!DOCTYPE svg PUBLIC "-//W3C//DTD SVG 1.1//EN" "http://www.w3.org/Graphics/SVG/1.1/DTD/svg11.dtd">
<svg version="1.1"
	 id="Layer_1" sodipodi:docname="ico_da.svg" inkscape:version="0.48.5 r10040" xmlns:inkscape="http://www.inkscape.org/namespaces/inkscape" xmlns:rdf="http://www.w3.org/1999/02/22-rdf-syntax-ns#" xmlns:cc="http://creativecommons.org/ns#" xmlns:svg="http://www.w3.org/2000/svg" xmlns:sodipodi="http://sodipodi.sourceforge.net/DTD/sodipodi-0.dtd" xmlns:dc="http://purl.org/dc/elements/1.1/"
	 xmlns="http://www.w3.org/2000/svg" xmlns:xlink="http://www.w3.org/1999/xlink" x="0px" y="0px" width="132px" height="132px"
	 viewBox="0 0 132 132" enable-background="new 0 0 132 132" xml:space="preserve">
<g id="Path">
	<g id="g3038">
		<g id="g3040">
			
				<linearGradient id="SVGID_3_" gradientUnits="userSpaceOnUse" x1="-12.8428" y1="775.3008" x2="112.2441" y2="775.3008" gradientTransform="matrix(1 0 0 1 16.7998 -708.8008)">
				<stop  offset="0" style="stop-color:#000000;stop-opacity:0.6"/>
				<stop  offset="1" style="stop-color:#000000;stop-opacity:0.6"/>
			</linearGradient>
			<path id="SVGID_1_" inkscape:connector-curvature="0" fill="url(#SVGID_3_)" d="M70.84,127.243c-2.395,2.399-6.28,2.399-8.677,0
				L5.755,70.84c-2.397-2.396-2.397-6.285,0-8.682L62.163,5.753c2.397-2.395,6.28-2.395,8.677,0l56.407,56.405
				c2.396,2.397,2.396,6.285,0,8.682L70.84,127.243L70.84,127.243z"/>
		</g>
		<g id="g3048">
			<path id="SVGID_2_" inkscape:connector-curvature="0" fill="#FFFFFF" d="M69.84,126.243c-2.395,2.399-6.28,2.399-8.677,0
				L4.755,69.84c-2.397-2.396-2.397-6.285,0-8.682L61.163,4.753c2.397-2.395,6.28-2.395,8.677,0l56.407,56.405
				c2.396,2.397,2.396,6.285,0,8.682L69.84,126.243L69.84,126.243z"/>
		</g>
	</g>
	<g id="g3059">
		<g id="g3061">
			<path id="SVGID_6_" inkscape:connector-curvature="0" d="M125.162,68.756l-56.408,56.408c-1.798,1.796-4.71,1.796-6.507,0
				L5.841,68.756c-1.798-1.799-1.798-4.715,0-6.509L62.247,5.836c1.798-1.798,4.71-1.798,6.507,0l56.408,56.411
				C126.96,64.041,126.96,66.957,125.162,68.756L125.162,68.756z M123.534,63.873L67.128,7.463c-0.898-0.896-2.357-0.896-3.253,0
				L7.468,63.873c-0.901,0.898-0.901,2.355,0,3.255l56.408,56.408c0.896,0.897,2.355,0.897,3.253,0l56.406-56.408
				C124.436,66.228,124.436,64.771,123.534,63.873L123.534,63.873z"/>
		</g>
	</g>
	<g id="g3064">
		<g id="g3066">
			<polygon id="SVGID_8_" points="29.051,65.497 65.502,29.052 101.951,65.497 65.502,101.945 			"/>
		</g>
	</g>
	<g id="g3069">
		<g id="g3071">
			<polygon id="SVGID_10_" fill="#FFFF00" points="30.791,65.5 65.502,30.789 100.211,65.5 65.502,100.211 			"/>
		</g>
	</g>
</g>
</svg>
