<svg viewBox="0 0 120 120"><g id="normal"><path d="m9.28 5.14c0-2.29-1.85-4.14-4.14-4.14-2.29 0-4.14 1.85-4.14 4.14 0 2.29 1.85 4.14 4.14 4.14s4.14-1.86 4.14-4.14zm8.34 0.282-4.23-0.294c-0.379 4.15-3.52 7.49-7.57 8.17l0.296 4.24c6.16-0.843 11-5.86 11.5-12.1zm9.42 0.653-4.97-0.344c-0.619 8.53-7.22 15.4-15.6 16.4l0.345 4.97c10.9-1.16 19.5-10 20.3-21zm4.7 0.326c-0.429 13.6-11.2 24.6-24.6 25.3l0.367 5.27c16.1-0.961 28.9-14 29.5-30.2l-5.25-0.364z" fill="#00B400"/></g>
<g id="active"><use xlink:href="#normal"/></g>
<g id="disabled" opacity=".2"><use xlink:href="#normal"/></g>
</svg>
