<?xml version="1.0" encoding="utf-8"?>
<!-- Generator: Adobe Illustrator 15.0.0, SVG Export Plug-In . SVG Version: 6.00 Build 0)  -->
<!DOCTYPE svg PUBLIC "-//W3C//DTD SVG 1.1//EN" "http://www.w3.org/Graphics/SVG/1.1/DTD/svg11.dtd">
<svg version="1.1" id="Layer_1" xmlns="http://www.w3.org/2000/svg" xmlns:xlink="http://www.w3.org/1999/xlink" x="0px" y="0px"
	 width="120px" height="120px" viewBox="0 0 120 120" enable-background="new 0 0 120 120" xml:space="preserve">
<g id="normal">
	<g>
		<g>
			<g>
				<polygon fill="#0072DF" points="101.883,104 101.883,61.607 76.899,86.48 76.965,68.656 43.125,68.656 43.19,86.48 
					18.067,61.467 18.067,104 5.03,104 5.03,16 18.067,16 18.067,59.585 42.995,33.406 43.059,50.6 77.029,50.6 77.092,33.406 
					101.883,59.438 101.883,16 114.92,16 114.92,104 				"/>
				<path d="M113.42,17.5v85h-10.037v-85H113.42 M16.567,17.5v85H6.53v-85H16.567 M78.578,37.142l22.268,23.381L78.413,82.857
					l0.058-15.701H41.62l0.057,15.701L19.245,60.523l22.264-23.381L41.564,52.1h36.959L78.578,37.142 M116.42,14.5h-3h-10.037h-3v3
					v38.188L80.751,35.073l-5.146-5.402l-0.027,7.46L75.534,49.1H44.553l-0.044-11.969l-0.027-7.461l-5.146,5.403L19.567,55.835
					V17.5v-3h-3H6.53h-3v3v85v3h3h10.037h3v-3V65.077L39.56,84.983l5.143,5.12l-0.026-7.257l-0.046-12.69H75.46l-0.047,12.69
					l-0.026,7.258l5.143-5.121l19.854-19.766V102.5v3h3h10.037h3v-3v-85V14.5L116.42,14.5z"/>
			</g>
		</g>
	</g>
</g>
</svg>
