<?xml version="1.0" encoding="iso-8859-1"?>
<!-- Generator: Adobe Illustrator 17.1.0, SVG Export Plug-In . SVG Version: 6.00 Build 0)  -->
<!DOCTYPE svg PUBLIC "-//W3C//DTD SVG 1.1//EN" "http://www.w3.org/Graphics/SVG/1.1/DTD/svg11.dtd">
<svg version="1.1" xmlns="http://www.w3.org/2000/svg" xmlns:xlink="http://www.w3.org/1999/xlink" x="0px" y="0px" width="120px"
	 height="120px" viewBox="0 0 120 120" enable-background="new 0 0 120 120" xml:space="preserve">
<g id="Layer_2" display="none">
	<circle display="inline" opacity="0.5" fill="#DF1F26" cx="60" cy="60" r="60"/>
	<rect x="6.5" y="6.5" display="inline" opacity="0.5" fill="#3B4FA1" width="107" height="107"/>
</g>
<g id="normal">
	<path fill="#cc6600" d="M100.798,24.096l-0.346,82.607c-0.015,3.571-2.963,6.476-6.585,6.491L19.901,113.5l-8.772-9.751
		l74.195-0.308c2.879-0.011,5.223-2.323,5.235-5.16l0.275-65.677C90.846,29.767,100.813,20.526,100.798,24.096L100.798,24.096z
		 M82.865,32.3L95.976,6.5l12.895,25.693L82.865,32.3L82.865,32.3z"/>
</g>
<g id="active">
	<path fill="#cc6600" d="M100.798,24.096l-0.346,82.607c-0.015,3.571-2.963,6.476-6.585,6.491L19.901,113.5l-8.772-9.751
		l74.195-0.308c2.879-0.011,5.223-2.323,5.235-5.16l0.275-65.677C90.846,29.767,100.813,20.526,100.798,24.096L100.798,24.096z
		 M82.865,32.3L95.976,6.5l12.895,25.693L82.865,32.3L82.865,32.3z"/>
</g>
<g id="disabled" opacity="0.2">
	<path fill="#cc6600" d="M100.798,24.096l-0.346,82.607c-0.015,3.571-2.963,6.476-6.585,6.491L19.901,113.5l-8.772-9.751
		l74.195-0.308c2.879-0.011,5.223-2.323,5.235-5.16l0.275-65.677C90.846,29.767,100.813,20.526,100.798,24.096L100.798,24.096z
		 M82.865,32.3L95.976,6.5l12.895,25.693L82.865,32.3L82.865,32.3z"/>
</g>
</svg>
