<?xml version="1.0" encoding="utf-8"?>
<!-- Generator: Adobe Illustrator 16.0.0, SVG Export Plug-In . SVG Version: 6.00 Build 0)  -->
<!DOCTYPE svg PUBLIC "-//W3C//DTD SVG 1.1//EN" "http://www.w3.org/Graphics/SVG/1.1/DTD/svg11.dtd">
<svg version="1.1" id="Слой_1" xmlns="http://www.w3.org/2000/svg" xmlns:xlink="http://www.w3.org/1999/xlink" x="0px" y="0px"
	 width="120px" height="120px" viewBox="0 0 120 120" enable-background="new 0 0 120 120" xml:space="preserve">
<g id="normal">
	<radialGradient id="SVGID_1_" cx="60" cy="60.0005" r="46.9533" gradientUnits="userSpaceOnUse">
		<stop  offset="0.1798" style="stop-color:#F0E6D7"/>
		<stop  offset="0.5899" style="stop-color:#E2C986"/>
		<stop  offset="1" style="stop-color:#A87D47"/>
	</radialGradient>
	<path fill="url(#SVGID_1_)" d="M113.5,51.083c0-16.798-23.954-30.414-53.499-30.414C30.454,20.668,6.5,34.285,6.5,51.083
		c0,12.87,14.071,23.868,33.944,28.308c0.23,0.205,0.22,5.088-8.7,19.941c9.679,0.014,30.208-11.277,36.75-17.904
		C96.527,80.475,113.5,67.259,113.5,51.083L113.5,51.083z"/>
</g>
<g id="active">
	<radialGradient id="SVGID_2_" cx="60" cy="60.0005" r="46.9533" gradientUnits="userSpaceOnUse">
		<stop  offset="0.1798" style="stop-color:#F0E6D7"/>
		<stop  offset="0.5899" style="stop-color:#E2C986"/>
		<stop  offset="1" style="stop-color:#A87D47"/>
	</radialGradient>
	<path fill="url(#SVGID_2_)" d="M113.5,51.083c0-16.798-23.954-30.414-53.499-30.414C30.454,20.668,6.5,34.285,6.5,51.083
		c0,12.87,14.071,23.868,33.944,28.308c0.23,0.205,0.22,5.088-8.7,19.941c9.679,0.014,30.208-11.277,36.75-17.904
		C96.527,80.475,113.5,67.259,113.5,51.083L113.5,51.083z"/>
</g>
<g id="disabled" opacity="0.2">
	<radialGradient id="SVGID_3_" cx="60" cy="60.0005" r="46.9533" gradientUnits="userSpaceOnUse">
		<stop  offset="0.0056" style="stop-color:#BAB9B9"/>
		<stop  offset="0.2978" style="stop-color:#AFAFAF"/>
		<stop  offset="0.6573" style="stop-color:#979695"/>
		<stop  offset="0.9958" style="stop-color:#888786"/>
		<stop  offset="1" style="stop-color:#888786"/>
	</radialGradient>
	<path fill="url(#SVGID_3_)" d="M113.5,51.083c0-16.798-23.954-30.414-53.499-30.414C30.454,20.668,6.5,34.285,6.5,51.083
		c0,12.87,14.071,23.868,33.944,28.308c0.23,0.205,0.22,5.088-8.7,19.941c9.679,0.014,30.208-11.277,36.75-17.904
		C96.527,80.475,113.5,67.259,113.5,51.083L113.5,51.083z"/>
</g>
</svg>
