<?xml version="1.0" encoding="utf-8"?>
<!-- Generator: Adobe Illustrator 16.0.0, SVG Export Plug-In . SVG Version: 6.00 Build 0)  -->
<!DOCTYPE svg PUBLIC "-//W3C//DTD SVG 1.1//EN" "http://www.w3.org/Graphics/SVG/1.1/DTD/svg11.dtd">
<svg version="1.1" id="Слой_1" xmlns="http://www.w3.org/2000/svg" xmlns:xlink="http://www.w3.org/1999/xlink" x="0px" y="0px"
	 width="120px" height="120px" viewBox="0 0 120 120" enable-background="new 0 0 120 120" xml:space="preserve">
<g id="Layer_4" display="none">
	<linearGradient id="SVGID_1_" gradientUnits="userSpaceOnUse" x1="0" y1="60" x2="120" y2="60">
		<stop  offset="0" style="stop-color:#FFFFFF"/>
		<stop  offset="1" style="stop-color:#000000"/>
	</linearGradient>
	<circle display="inline" opacity="0.5" fill="url(#SVGID_1_)" enable-background="new    " cx="60" cy="60" r="60"/>
	<linearGradient id="SVGID_2_" gradientUnits="userSpaceOnUse" x1="6.5" y1="60" x2="113.5" y2="60">
		<stop  offset="0" style="stop-color:#FFFFFF"/>
		<stop  offset="1" style="stop-color:#000000"/>
	</linearGradient>
	
		<rect x="6.5" y="6.5" display="inline" opacity="0.5" fill="url(#SVGID_2_)" enable-background="new    " width="107" height="107"/>
</g>
<g id="normal_1_">
	
		<linearGradient id="SVGID_3_" gradientUnits="userSpaceOnUse" x1="103.5059" y1="112.0264" x2="103.5059" y2="2.0962" gradientTransform="matrix(1 0 0 -1 -0.02 119.0947)">
		<stop  offset="0" style="stop-color:#EC0000"/>
		<stop  offset="0.6353" style="stop-color:#950000"/>
		<stop  offset="1" style="stop-color:#610000"/>
	</linearGradient>
	<rect x="90.972" y="7.068" fill="url(#SVGID_3_)" width="25.028" height="109.931"/>
	
		<linearGradient id="SVGID_4_" gradientUnits="userSpaceOnUse" x1="45.144" y1="92.1904" x2="45.144" y2="2.0942" gradientTransform="matrix(1 0 0 -1 -0.02 119.0947)">
		<stop  offset="0" style="stop-color:#0071BC"/>
		<stop  offset="1" style="stop-color:#003D66"/>
	</linearGradient>
	<rect x="32.61" y="26.905" fill="url(#SVGID_4_)" width="25.027" height="90.096"/>
	
		<linearGradient id="SVGID_5_" gradientUnits="userSpaceOnUse" x1="74.043" y1="72.3584" x2="74.043" y2="2.0942" gradientTransform="matrix(1 0 0 -1 -0.02 119.0947)">
		<stop  offset="0" style="stop-color:#39B54A"/>
		<stop  offset="1" style="stop-color:#006837"/>
	</linearGradient>
	<rect x="61.509" y="46.737" fill="url(#SVGID_5_)" width="25.028" height="70.264"/>
	
		<linearGradient id="SVGID_6_" gradientUnits="userSpaceOnUse" x1="15.9966" y1="52.5215" x2="15.9966" y2="2.0957" gradientTransform="matrix(1 0 0 -1 -0.02 119.0947)">
		<stop  offset="0" style="stop-color:#C04CBD"/>
		<stop  offset="1" style="stop-color:#70246E"/>
	</linearGradient>
	<rect x="3.463" y="66.573" fill="url(#SVGID_6_)" width="25.026" height="50.426"/>
	
		<linearGradient id="SVGID_7_" gradientUnits="userSpaceOnUse" x1="103.5059" y1="110.9756" x2="103.5059" y2="3.146" gradientTransform="matrix(1 0 0 -1 -0.02 119.0947)">
		<stop  offset="0" style="stop-color:#FF5858"/>
		<stop  offset="0.5118" style="stop-color:#FF0000"/>
		<stop  offset="1" style="stop-color:#950000"/>
	</linearGradient>
	<rect x="92" y="8.119" fill="url(#SVGID_7_)" width="22.972" height="107.83"/>
	
		<linearGradient id="SVGID_8_" gradientUnits="userSpaceOnUse" x1="45.145" y1="91.1406" x2="45.145" y2="3.144" gradientTransform="matrix(1 0 0 -1 -0.02 119.0947)">
		<stop  offset="0" style="stop-color:#43B5E6"/>
		<stop  offset="0.5294" style="stop-color:#0071BC"/>
		<stop  offset="1" style="stop-color:#003D66"/>
	</linearGradient>
	<rect x="33.639" y="27.955" fill="url(#SVGID_8_)" width="22.972" height="87.997"/>
	
		<linearGradient id="SVGID_9_" gradientUnits="userSpaceOnUse" x1="74.0449" y1="71.3057" x2="74.0449" y2="3.144" gradientTransform="matrix(1 0 0 -1 -0.02 119.0947)">
		<stop  offset="0" style="stop-color:#8CC63F"/>
		<stop  offset="0.5412" style="stop-color:#39B54A"/>
		<stop  offset="1" style="stop-color:#006837"/>
	</linearGradient>
	<rect x="62.54" y="47.79" fill="url(#SVGID_9_)" width="22.97" height="68.162"/>
	
		<linearGradient id="SVGID_10_" gradientUnits="userSpaceOnUse" x1="15.9971" y1="51.4727" x2="15.9971" y2="3.1455" gradientTransform="matrix(1 0 0 -1 -0.02 119.0947)">
		<stop  offset="0" style="stop-color:#FF80FF"/>
		<stop  offset="0.5" style="stop-color:#C04CBD"/>
		<stop  offset="1" style="stop-color:#70246E"/>
	</linearGradient>
	<rect x="4.493" y="67.622" fill="url(#SVGID_10_)" width="22.968" height="48.327"/>
	
		<linearGradient id="SVGID_11_" gradientUnits="userSpaceOnUse" x1="103.5078" y1="109.2246" x2="103.5078" y2="5.8709" gradientTransform="matrix(1 0 0 -1 -0.02 119.0947)">
		<stop  offset="0" style="stop-color:#FFFFFF"/>
		<stop  offset="1" style="stop-color:#FFFFFF;stop-opacity:0"/>
	</linearGradient>
	<path fill="url(#SVGID_11_)" d="M93.444,9.589V114.48h20.087V9.589H93.444z M111.888,112.799H95.092V11.27h16.796V112.799z"/>
	
		<linearGradient id="SVGID_12_" gradientUnits="userSpaceOnUse" x1="45.144" y1="89.6699" x2="45.144" y2="4.6138" gradientTransform="matrix(1 0 0 -1 -0.02 119.0947)">
		<stop  offset="0" style="stop-color:#FFFFFF"/>
		<stop  offset="1" style="stop-color:#FFFFFF;stop-opacity:0"/>
	</linearGradient>
	<path fill="url(#SVGID_12_)" d="M35.077,29.425v85.057h20.094V29.425H35.077z M53.523,112.801H36.727V31.105h16.796V112.801z"/>
	
		<linearGradient id="SVGID_13_" gradientUnits="userSpaceOnUse" x1="15.9976" y1="49.999" x2="15.9976" y2="4.6172" gradientTransform="matrix(1 0 0 -1 -0.02 119.0947)">
		<stop  offset="0" style="stop-color:#FFFFFF"/>
		<stop  offset="1" style="stop-color:#FFFFFF;stop-opacity:0"/>
	</linearGradient>
	<path fill="url(#SVGID_13_)" d="M5.935,69.096v45.382H26.02V69.096H5.935z M24.373,112.799H7.58V70.772h16.793V112.799z"/>
	
		<linearGradient id="SVGID_14_" gradientUnits="userSpaceOnUse" x1="74.043" y1="69.8369" x2="74.043" y2="4.6147" gradientTransform="matrix(1 0 0 -1 -0.02 119.0947)">
		<stop  offset="0" style="stop-color:#FFFFFF"/>
		<stop  offset="1" style="stop-color:#FFFFFF;stop-opacity:0"/>
	</linearGradient>
	<path fill="url(#SVGID_14_)" d="M63.979,49.258v65.222h20.089V49.258H63.979z M82.423,112.801H65.625V50.938h16.798V112.801z"/>
</g>
<g id="active_1_">
	
		<linearGradient id="SVGID_15_" gradientUnits="userSpaceOnUse" x1="103.5059" y1="112.0264" x2="103.5059" y2="2.0962" gradientTransform="matrix(1 0 0 -1 -0.02 119.0947)">
		<stop  offset="0" style="stop-color:#EC0000"/>
		<stop  offset="0.6353" style="stop-color:#950000"/>
		<stop  offset="1" style="stop-color:#610000"/>
	</linearGradient>
	<rect x="90.972" y="7.068" fill="url(#SVGID_15_)" width="25.028" height="109.931"/>
	
		<linearGradient id="SVGID_16_" gradientUnits="userSpaceOnUse" x1="45.144" y1="92.1904" x2="45.144" y2="2.0942" gradientTransform="matrix(1 0 0 -1 -0.02 119.0947)">
		<stop  offset="0" style="stop-color:#0071BC"/>
		<stop  offset="1" style="stop-color:#003D66"/>
	</linearGradient>
	<rect x="32.61" y="26.905" fill="url(#SVGID_16_)" width="25.027" height="90.096"/>
	
		<linearGradient id="SVGID_17_" gradientUnits="userSpaceOnUse" x1="74.043" y1="72.3584" x2="74.043" y2="2.0942" gradientTransform="matrix(1 0 0 -1 -0.02 119.0947)">
		<stop  offset="0" style="stop-color:#39B54A"/>
		<stop  offset="1" style="stop-color:#006837"/>
	</linearGradient>
	<rect x="61.509" y="46.737" fill="url(#SVGID_17_)" width="25.028" height="70.264"/>
	
		<linearGradient id="SVGID_18_" gradientUnits="userSpaceOnUse" x1="15.9966" y1="52.5215" x2="15.9966" y2="2.0957" gradientTransform="matrix(1 0 0 -1 -0.02 119.0947)">
		<stop  offset="0" style="stop-color:#C04CBD"/>
		<stop  offset="1" style="stop-color:#70246E"/>
	</linearGradient>
	<rect x="3.463" y="66.573" fill="url(#SVGID_18_)" width="25.026" height="50.426"/>
	
		<linearGradient id="SVGID_19_" gradientUnits="userSpaceOnUse" x1="103.5059" y1="110.9756" x2="103.5059" y2="3.146" gradientTransform="matrix(1 0 0 -1 -0.02 119.0947)">
		<stop  offset="0" style="stop-color:#FF5858"/>
		<stop  offset="0.5118" style="stop-color:#FF0000"/>
		<stop  offset="1" style="stop-color:#950000"/>
	</linearGradient>
	<rect x="92" y="8.119" fill="url(#SVGID_19_)" width="22.972" height="107.83"/>
	
		<linearGradient id="SVGID_20_" gradientUnits="userSpaceOnUse" x1="45.145" y1="91.1406" x2="45.145" y2="3.144" gradientTransform="matrix(1 0 0 -1 -0.02 119.0947)">
		<stop  offset="0" style="stop-color:#43B5E6"/>
		<stop  offset="0.5294" style="stop-color:#0071BC"/>
		<stop  offset="1" style="stop-color:#003D66"/>
	</linearGradient>
	<rect x="33.639" y="27.955" fill="url(#SVGID_20_)" width="22.972" height="87.997"/>
	
		<linearGradient id="SVGID_21_" gradientUnits="userSpaceOnUse" x1="74.0449" y1="71.3057" x2="74.0449" y2="3.144" gradientTransform="matrix(1 0 0 -1 -0.02 119.0947)">
		<stop  offset="0" style="stop-color:#8CC63F"/>
		<stop  offset="0.5412" style="stop-color:#39B54A"/>
		<stop  offset="1" style="stop-color:#006837"/>
	</linearGradient>
	<rect x="62.54" y="47.79" fill="url(#SVGID_21_)" width="22.97" height="68.162"/>
	
		<linearGradient id="SVGID_22_" gradientUnits="userSpaceOnUse" x1="15.9971" y1="51.4727" x2="15.9971" y2="3.1455" gradientTransform="matrix(1 0 0 -1 -0.02 119.0947)">
		<stop  offset="0" style="stop-color:#FF80FF"/>
		<stop  offset="0.5" style="stop-color:#C04CBD"/>
		<stop  offset="1" style="stop-color:#70246E"/>
	</linearGradient>
	<rect x="4.493" y="67.622" fill="url(#SVGID_22_)" width="22.968" height="48.327"/>
	
		<linearGradient id="SVGID_23_" gradientUnits="userSpaceOnUse" x1="103.5078" y1="109.2246" x2="103.5078" y2="5.8709" gradientTransform="matrix(1 0 0 -1 -0.02 119.0947)">
		<stop  offset="0" style="stop-color:#FFFFFF"/>
		<stop  offset="1" style="stop-color:#FFFFFF;stop-opacity:0"/>
	</linearGradient>
	<path fill="url(#SVGID_23_)" d="M93.444,9.589V114.48h20.087V9.589H93.444z M111.888,112.799H95.092V11.27h16.796V112.799z"/>
	
		<linearGradient id="SVGID_24_" gradientUnits="userSpaceOnUse" x1="45.144" y1="89.6699" x2="45.144" y2="4.6138" gradientTransform="matrix(1 0 0 -1 -0.02 119.0947)">
		<stop  offset="0" style="stop-color:#FFFFFF"/>
		<stop  offset="1" style="stop-color:#FFFFFF;stop-opacity:0"/>
	</linearGradient>
	<path fill="url(#SVGID_24_)" d="M35.077,29.425v85.057h20.094V29.425H35.077z M53.523,112.801H36.727V31.105h16.796V112.801z"/>
	
		<linearGradient id="SVGID_25_" gradientUnits="userSpaceOnUse" x1="15.9976" y1="49.999" x2="15.9976" y2="4.6172" gradientTransform="matrix(1 0 0 -1 -0.02 119.0947)">
		<stop  offset="0" style="stop-color:#FFFFFF"/>
		<stop  offset="1" style="stop-color:#FFFFFF;stop-opacity:0"/>
	</linearGradient>
	<path fill="url(#SVGID_25_)" d="M5.935,69.096v45.382H26.02V69.096H5.935z M24.373,112.799H7.58V70.772h16.793V112.799z"/>
	
		<linearGradient id="SVGID_26_" gradientUnits="userSpaceOnUse" x1="74.043" y1="69.8369" x2="74.043" y2="4.6147" gradientTransform="matrix(1 0 0 -1 -0.02 119.0947)">
		<stop  offset="0" style="stop-color:#FFFFFF"/>
		<stop  offset="1" style="stop-color:#FFFFFF;stop-opacity:0"/>
	</linearGradient>
	<path fill="url(#SVGID_26_)" d="M63.979,49.258v65.222h20.089V49.258H63.979z M82.423,112.801H65.625V50.938h16.798V112.801z"/>
</g>
<g id="disabled_1_" opacity="0.2">
	
		<linearGradient id="SVGID_27_" gradientUnits="userSpaceOnUse" x1="103.5059" y1="112.0264" x2="103.5059" y2="2.0962" gradientTransform="matrix(1 0 0 -1 -0.02 119.0947)">
		<stop  offset="0" style="stop-color:#EC0000"/>
		<stop  offset="0.6353" style="stop-color:#950000"/>
		<stop  offset="1" style="stop-color:#610000"/>
	</linearGradient>
	<rect x="90.972" y="7.068" fill="url(#SVGID_27_)" width="25.028" height="109.931"/>
	
		<linearGradient id="SVGID_28_" gradientUnits="userSpaceOnUse" x1="45.144" y1="92.1904" x2="45.144" y2="2.0942" gradientTransform="matrix(1 0 0 -1 -0.02 119.0947)">
		<stop  offset="0" style="stop-color:#0071BC"/>
		<stop  offset="1" style="stop-color:#003D66"/>
	</linearGradient>
	<rect x="32.61" y="26.905" fill="url(#SVGID_28_)" width="25.027" height="90.096"/>
	
		<linearGradient id="SVGID_29_" gradientUnits="userSpaceOnUse" x1="74.043" y1="72.3584" x2="74.043" y2="2.0942" gradientTransform="matrix(1 0 0 -1 -0.02 119.0947)">
		<stop  offset="0" style="stop-color:#39B54A"/>
		<stop  offset="1" style="stop-color:#006837"/>
	</linearGradient>
	<rect x="61.509" y="46.737" fill="url(#SVGID_29_)" width="25.028" height="70.264"/>
	
		<linearGradient id="SVGID_30_" gradientUnits="userSpaceOnUse" x1="15.9966" y1="52.5215" x2="15.9966" y2="2.0957" gradientTransform="matrix(1 0 0 -1 -0.02 119.0947)">
		<stop  offset="0" style="stop-color:#C04CBD"/>
		<stop  offset="1" style="stop-color:#70246E"/>
	</linearGradient>
	<rect x="3.463" y="66.573" fill="url(#SVGID_30_)" width="25.026" height="50.426"/>
	
		<linearGradient id="SVGID_31_" gradientUnits="userSpaceOnUse" x1="103.5059" y1="110.9756" x2="103.5059" y2="3.146" gradientTransform="matrix(1 0 0 -1 -0.02 119.0947)">
		<stop  offset="0" style="stop-color:#FF5858"/>
		<stop  offset="0.5118" style="stop-color:#FF0000"/>
		<stop  offset="1" style="stop-color:#950000"/>
	</linearGradient>
	<rect x="92" y="8.119" fill="url(#SVGID_31_)" width="22.972" height="107.83"/>
	
		<linearGradient id="SVGID_32_" gradientUnits="userSpaceOnUse" x1="45.145" y1="91.1406" x2="45.145" y2="3.144" gradientTransform="matrix(1 0 0 -1 -0.02 119.0947)">
		<stop  offset="0" style="stop-color:#43B5E6"/>
		<stop  offset="0.5294" style="stop-color:#0071BC"/>
		<stop  offset="1" style="stop-color:#003D66"/>
	</linearGradient>
	<rect x="33.639" y="27.955" fill="url(#SVGID_32_)" width="22.972" height="87.997"/>
	
		<linearGradient id="SVGID_33_" gradientUnits="userSpaceOnUse" x1="74.0449" y1="71.3057" x2="74.0449" y2="3.144" gradientTransform="matrix(1 0 0 -1 -0.02 119.0947)">
		<stop  offset="0" style="stop-color:#8CC63F"/>
		<stop  offset="0.5412" style="stop-color:#39B54A"/>
		<stop  offset="1" style="stop-color:#006837"/>
	</linearGradient>
	<rect x="62.54" y="47.79" fill="url(#SVGID_33_)" width="22.97" height="68.162"/>
	
		<linearGradient id="SVGID_34_" gradientUnits="userSpaceOnUse" x1="15.9971" y1="51.4727" x2="15.9971" y2="3.1455" gradientTransform="matrix(1 0 0 -1 -0.02 119.0947)">
		<stop  offset="0" style="stop-color:#FF80FF"/>
		<stop  offset="0.5" style="stop-color:#C04CBD"/>
		<stop  offset="1" style="stop-color:#70246E"/>
	</linearGradient>
	<rect x="4.493" y="67.622" fill="url(#SVGID_34_)" width="22.968" height="48.327"/>
	
		<linearGradient id="SVGID_35_" gradientUnits="userSpaceOnUse" x1="103.5078" y1="109.2246" x2="103.5078" y2="5.8709" gradientTransform="matrix(1 0 0 -1 -0.02 119.0947)">
		<stop  offset="0" style="stop-color:#FFFFFF"/>
		<stop  offset="1" style="stop-color:#FFFFFF;stop-opacity:0"/>
	</linearGradient>
	<path fill="url(#SVGID_35_)" d="M93.444,9.589V114.48h20.087V9.589H93.444z M111.888,112.799H95.092V11.27h16.796V112.799z"/>
	
		<linearGradient id="SVGID_36_" gradientUnits="userSpaceOnUse" x1="45.144" y1="89.6699" x2="45.144" y2="4.6138" gradientTransform="matrix(1 0 0 -1 -0.02 119.0947)">
		<stop  offset="0" style="stop-color:#FFFFFF"/>
		<stop  offset="1" style="stop-color:#FFFFFF;stop-opacity:0"/>
	</linearGradient>
	<path fill="url(#SVGID_36_)" d="M35.077,29.425v85.057h20.094V29.425H35.077z M53.523,112.801H36.727V31.105h16.796V112.801z"/>
	
		<linearGradient id="SVGID_37_" gradientUnits="userSpaceOnUse" x1="15.9976" y1="49.999" x2="15.9976" y2="4.6172" gradientTransform="matrix(1 0 0 -1 -0.02 119.0947)">
		<stop  offset="0" style="stop-color:#FFFFFF"/>
		<stop  offset="1" style="stop-color:#FFFFFF;stop-opacity:0"/>
	</linearGradient>
	<path fill="url(#SVGID_37_)" d="M5.935,69.096v45.382H26.02V69.096H5.935z M24.373,112.799H7.58V70.772h16.793V112.799z"/>
	
		<linearGradient id="SVGID_38_" gradientUnits="userSpaceOnUse" x1="74.043" y1="69.8369" x2="74.043" y2="4.6147" gradientTransform="matrix(1 0 0 -1 -0.02 119.0947)">
		<stop  offset="0" style="stop-color:#FFFFFF"/>
		<stop  offset="1" style="stop-color:#FFFFFF;stop-opacity:0"/>
	</linearGradient>
	<path fill="url(#SVGID_38_)" d="M63.979,49.258v65.222h20.089V49.258H63.979z M82.423,112.801H65.625V50.938h16.798V112.801z"/>
</g>
</svg>
