<?xml version="1.0" encoding="utf-8"?>
<!-- Generator: Adobe Illustrator 16.0.0, SVG Export Plug-In . SVG Version: 6.00 Build 0)  -->
<!DOCTYPE svg PUBLIC "-//W3C//DTD SVG 1.1//EN" "http://www.w3.org/Graphics/SVG/1.1/DTD/svg11.dtd">
<svg version="1.1" id="Слой_1" xmlns="http://www.w3.org/2000/svg" xmlns:xlink="http://www.w3.org/1999/xlink" x="0px" y="0px"
	 width="120px" height="120px" viewBox="0 0 120 120" enable-background="new 0 0 120 120" xml:space="preserve">
<g id="Layer_4" display="none">
	<circle display="inline" opacity="0.5" fill="#DF1F26" enable-background="new    " cx="60" cy="60" r="60"/>
	<rect x="6.5" y="6.5" display="inline" opacity="0.5" fill="#3B4FA1" enable-background="new    " width="107" height="107"/>
</g>
<g id="normal_1_" transform="translate(-14.00000,-14.00000)">
	
		<linearGradient id="SVGID_1_" gradientUnits="userSpaceOnUse" x1="-190.6455" y1="467.6377" x2="-192.4076" y2="457.3616" gradientTransform="matrix(9.6149 -9.6149 -9.6149 -9.6149 6362.2783 2679.2034)">
		<stop  offset="0" style="stop-color:#BD4E02"/>
		<stop  offset="1" style="stop-color:#3B1800"/>
	</linearGradient>
	<path fill="url(#SVGID_1_)" d="M16.127,85.219c0.168,1.795,1.682,3.161,3.484,3.145H59.64v40.028
		c-0.004,0.925,0.361,1.814,1.016,2.469s1.543,1.02,2.469,1.016h21.757c0.924,0.004,1.813-0.361,2.469-1.016
		c0.654-0.654,1.02-1.544,1.016-2.469V88.363h40.027c0.926,0.005,1.814-0.361,2.469-1.016s1.02-1.543,1.016-2.469V63.123
		c0.004-0.925-0.361-1.814-1.016-2.469s-1.543-1.02-2.469-1.016H88.365V19.611c0.004-0.925-0.361-1.814-1.016-2.469
		c-0.656-0.654-1.545-1.02-2.469-1.016H63.124c-0.925-0.004-1.814,0.361-2.469,1.016c-0.654,0.654-1.02,1.543-1.016,2.469v40.028
		H19.612c-0.925-0.004-1.814,0.361-2.469,1.016c-0.654,0.654-1.02,1.543-1.016,2.469v21.756
		C16.122,84.992,16.122,85.105,16.127,85.219L16.127,85.219z"/>
	
		<linearGradient id="SVGID_2_" gradientUnits="userSpaceOnUse" x1="-190.644" y1="467.6504" x2="-192.4221" y2="457.3288" gradientTransform="matrix(9.6149 -9.6149 -9.6149 -9.6149 6362.3682 2679.1877)">
		<stop  offset="0" style="stop-color:#FF6C03"/>
		<stop  offset="1" style="stop-color:#753100"/>
	</linearGradient>
	<path fill="url(#SVGID_2_)" d="M19.2,63.663c-0.287,0.491-0.427,1.054-0.405,1.622v17.434c0.008,1.639,1.334,2.966,2.973,2.974
		h40.543v40.543c0.007,1.639,1.334,2.965,2.973,2.973h17.435c1.639-0.008,2.965-1.334,2.973-2.973V85.691h40.543
		c1.639-0.008,2.965-1.335,2.973-2.974V65.284c-0.008-1.639-1.334-2.965-2.973-2.973H85.691V21.768
		c-0.008-1.639-1.334-2.965-2.973-2.973H65.284c-1.639,0.008-2.965,1.334-2.973,2.973v40.543H21.768
		C20.736,62.288,19.766,62.799,19.2,63.663L19.2,63.663z"/>
	
		<linearGradient id="SVGID_3_" gradientUnits="userSpaceOnUse" x1="-191.0952" y1="464.9902" x2="-192.138" y2="458.9748" gradientTransform="matrix(9.6149 -9.6149 -9.6149 -9.6149 6362.2871 2679.1877)">
		<stop  offset="0" style="stop-color:#FF8F03"/>
		<stop  offset="1" style="stop-color:#B52E00"/>
	</linearGradient>
	<path fill="url(#SVGID_3_)" d="M21.023,64.946c-0.047,0.106-0.07,0.222-0.067,0.338v17.434c0.007,0.146,0.054,0.285,0.135,0.405
		c0.082,0.121,0.193,0.263,0.338,0.338c0.106,0.047,0.222,0.07,0.338,0.068h41.354c0.371-0.01,0.767,0.091,1.014,0.338
		c0.247,0.246,0.347,0.643,0.338,1.013v41.354c0.007,0.145,0.054,0.285,0.135,0.405c0.082,0.12,0.193,0.263,0.338,0.338
		c0.106,0.047,0.222,0.07,0.338,0.067h17.434c0.145-0.007,0.285-0.054,0.406-0.135c0.119-0.082,0.262-0.193,0.336-0.338
		c0.049-0.106,0.07-0.222,0.068-0.338V84.88c-0.008-0.37,0.092-0.767,0.338-1.013c0.246-0.247,0.643-0.348,1.014-0.338h41.354
		c0.145-0.008,0.285-0.055,0.406-0.136c0.119-0.081,0.262-0.193,0.338-0.338c0.047-0.106,0.07-0.222,0.066-0.338V65.284
		c-0.006-0.145-0.053-0.285-0.135-0.405c-0.08-0.121-0.193-0.263-0.338-0.338c-0.105-0.047-0.221-0.07-0.338-0.068H84.879
		c-0.371,0.009-0.768-0.091-1.014-0.338c-0.246-0.247-0.346-0.643-0.338-1.013V21.768c-0.008-0.145-0.053-0.285-0.135-0.406
		c-0.082-0.12-0.193-0.263-0.338-0.337c-0.107-0.047-0.223-0.07-0.338-0.068H65.283c-0.145,0.007-0.285,0.054-0.405,0.135
		s-0.263,0.193-0.338,0.338c-0.047,0.106-0.07,0.222-0.067,0.338v41.354c0.008,0.371-0.091,0.767-0.338,1.014
		c-0.247,0.247-0.643,0.346-1.014,0.337H21.767c-0.145,0.007-0.285,0.054-0.406,0.135C21.241,64.69,21.099,64.802,21.023,64.946
		L21.023,64.946z"/>
</g>
<g id="active_1_" transform="translate(-14.00000,-14.00000)">
	
		<linearGradient id="SVGID_4_" gradientUnits="userSpaceOnUse" x1="-190.6455" y1="467.6377" x2="-192.4076" y2="457.3616" gradientTransform="matrix(9.6149 -9.6149 -9.6149 -9.6149 6362.2783 2679.2034)">
		<stop  offset="0" style="stop-color:#BD4E02"/>
		<stop  offset="1" style="stop-color:#3B1800"/>
	</linearGradient>
	<path fill="url(#SVGID_4_)" d="M16.127,85.219c0.168,1.795,1.682,3.161,3.484,3.145H59.64v40.028
		c-0.004,0.925,0.361,1.814,1.016,2.469s1.543,1.02,2.469,1.016h21.757c0.924,0.004,1.813-0.361,2.469-1.016
		c0.654-0.654,1.02-1.544,1.016-2.469V88.363h40.027c0.926,0.005,1.814-0.361,2.469-1.016s1.02-1.543,1.016-2.469V63.123
		c0.004-0.925-0.361-1.814-1.016-2.469s-1.543-1.02-2.469-1.016H88.365V19.611c0.004-0.925-0.361-1.814-1.016-2.469
		c-0.656-0.654-1.545-1.02-2.469-1.016H63.124c-0.925-0.004-1.814,0.361-2.469,1.016c-0.654,0.654-1.02,1.543-1.016,2.469v40.028
		H19.612c-0.925-0.004-1.814,0.361-2.469,1.016c-0.654,0.654-1.02,1.543-1.016,2.469v21.756
		C16.122,84.992,16.122,85.105,16.127,85.219L16.127,85.219z"/>
	
		<linearGradient id="SVGID_5_" gradientUnits="userSpaceOnUse" x1="-190.644" y1="467.6504" x2="-192.4221" y2="457.3288" gradientTransform="matrix(9.6149 -9.6149 -9.6149 -9.6149 6362.3682 2679.1877)">
		<stop  offset="0" style="stop-color:#FF6C03"/>
		<stop  offset="1" style="stop-color:#753100"/>
	</linearGradient>
	<path fill="url(#SVGID_5_)" d="M19.2,63.663c-0.287,0.491-0.427,1.054-0.405,1.622v17.434c0.008,1.639,1.334,2.966,2.973,2.974
		h40.543v40.543c0.007,1.639,1.334,2.965,2.973,2.973h17.435c1.639-0.008,2.965-1.334,2.973-2.973V85.691h40.543
		c1.639-0.008,2.965-1.335,2.973-2.974V65.284c-0.008-1.639-1.334-2.965-2.973-2.973H85.691V21.768
		c-0.008-1.639-1.334-2.965-2.973-2.973H65.284c-1.639,0.008-2.965,1.334-2.973,2.973v40.543H21.768
		C20.736,62.288,19.766,62.799,19.2,63.663L19.2,63.663z"/>
	
		<linearGradient id="SVGID_6_" gradientUnits="userSpaceOnUse" x1="-191.0952" y1="464.9902" x2="-192.138" y2="458.9748" gradientTransform="matrix(9.6149 -9.6149 -9.6149 -9.6149 6362.2871 2679.1877)">
		<stop  offset="0" style="stop-color:#FF8F03"/>
		<stop  offset="1" style="stop-color:#B52E00"/>
	</linearGradient>
	<path fill="url(#SVGID_6_)" d="M21.023,64.946c-0.047,0.106-0.07,0.222-0.067,0.338v17.434c0.007,0.146,0.054,0.285,0.135,0.405
		c0.082,0.121,0.193,0.263,0.338,0.338c0.106,0.047,0.222,0.07,0.338,0.068h41.354c0.371-0.01,0.767,0.091,1.014,0.338
		c0.247,0.246,0.347,0.643,0.338,1.013v41.354c0.007,0.145,0.054,0.285,0.135,0.405c0.082,0.12,0.193,0.263,0.338,0.338
		c0.106,0.047,0.222,0.07,0.338,0.067h17.434c0.145-0.007,0.285-0.054,0.406-0.135c0.119-0.082,0.262-0.193,0.336-0.338
		c0.049-0.106,0.07-0.222,0.068-0.338V84.88c-0.008-0.37,0.092-0.767,0.338-1.013c0.246-0.247,0.643-0.348,1.014-0.338h41.354
		c0.145-0.008,0.285-0.055,0.406-0.136c0.119-0.081,0.262-0.193,0.338-0.338c0.047-0.106,0.07-0.222,0.066-0.338V65.284
		c-0.006-0.145-0.053-0.285-0.135-0.405c-0.08-0.121-0.193-0.263-0.338-0.338c-0.105-0.047-0.221-0.07-0.338-0.068H84.879
		c-0.371,0.009-0.768-0.091-1.014-0.338c-0.246-0.247-0.346-0.643-0.338-1.013V21.768c-0.008-0.145-0.053-0.285-0.135-0.406
		c-0.082-0.12-0.193-0.263-0.338-0.337c-0.107-0.047-0.223-0.07-0.338-0.068H65.283c-0.145,0.007-0.285,0.054-0.405,0.135
		s-0.263,0.193-0.338,0.338c-0.047,0.106-0.07,0.222-0.067,0.338v41.354c0.008,0.371-0.091,0.767-0.338,1.014
		c-0.247,0.247-0.643,0.346-1.014,0.337H21.767c-0.145,0.007-0.285,0.054-0.406,0.135C21.241,64.69,21.099,64.802,21.023,64.946
		L21.023,64.946z"/>
</g>
<g id="disabled_1_" transform="translate(-14.00000,-14.00000)">
	
		<linearGradient id="SVGID_7_" gradientUnits="userSpaceOnUse" x1="-190.6455" y1="467.6377" x2="-192.4076" y2="457.3616" gradientTransform="matrix(9.6149 -9.6149 -9.6149 -9.6149 6362.2783 2679.2034)">
		<stop  offset="0" style="stop-color:#BD4E02"/>
		<stop  offset="1" style="stop-color:#3B1800"/>
	</linearGradient>
	<path fill="url(#SVGID_7_)" d="M16.127,85.219c0.168,1.795,1.682,3.161,3.484,3.145H59.64v40.028
		c-0.004,0.925,0.361,1.814,1.016,2.469s1.543,1.02,2.469,1.016h21.757c0.924,0.004,1.813-0.361,2.469-1.016
		c0.654-0.654,1.02-1.544,1.016-2.469V88.363h40.027c0.926,0.005,1.814-0.361,2.469-1.016s1.02-1.543,1.016-2.469V63.123
		c0.004-0.925-0.361-1.814-1.016-2.469s-1.543-1.02-2.469-1.016H88.365V19.611c0.004-0.925-0.361-1.814-1.016-2.469
		c-0.656-0.654-1.545-1.02-2.469-1.016H63.124c-0.925-0.004-1.814,0.361-2.469,1.016c-0.654,0.654-1.02,1.543-1.016,2.469v40.028
		H19.612c-0.925-0.004-1.814,0.361-2.469,1.016c-0.654,0.654-1.02,1.543-1.016,2.469v21.756
		C16.122,84.992,16.122,85.105,16.127,85.219L16.127,85.219z"/>
	
		<linearGradient id="SVGID_8_" gradientUnits="userSpaceOnUse" x1="-190.644" y1="467.6504" x2="-192.4221" y2="457.3288" gradientTransform="matrix(9.6149 -9.6149 -9.6149 -9.6149 6362.3682 2679.1877)">
		<stop  offset="0" style="stop-color:#FF6C03"/>
		<stop  offset="1" style="stop-color:#753100"/>
	</linearGradient>
	<path fill="url(#SVGID_8_)" d="M19.2,63.663c-0.287,0.491-0.427,1.054-0.405,1.622v17.434c0.008,1.639,1.334,2.966,2.973,2.974
		h40.543v40.543c0.007,1.639,1.334,2.965,2.973,2.973h17.435c1.639-0.008,2.965-1.334,2.973-2.973V85.691h40.543
		c1.639-0.008,2.965-1.335,2.973-2.974V65.284c-0.008-1.639-1.334-2.965-2.973-2.973H85.691V21.768
		c-0.008-1.639-1.334-2.965-2.973-2.973H65.284c-1.639,0.008-2.965,1.334-2.973,2.973v40.543H21.768
		C20.736,62.288,19.766,62.799,19.2,63.663L19.2,63.663z"/>
	
		<linearGradient id="SVGID_9_" gradientUnits="userSpaceOnUse" x1="-191.0952" y1="464.9902" x2="-192.138" y2="458.9748" gradientTransform="matrix(9.6149 -9.6149 -9.6149 -9.6149 6362.2871 2679.1877)">
		<stop  offset="0" style="stop-color:#FF8F03"/>
		<stop  offset="1" style="stop-color:#B52E00"/>
	</linearGradient>
	<path fill="url(#SVGID_9_)" d="M21.023,64.946c-0.047,0.106-0.07,0.222-0.067,0.338v17.434c0.007,0.146,0.054,0.285,0.135,0.405
		c0.082,0.121,0.193,0.263,0.338,0.338c0.106,0.047,0.222,0.07,0.338,0.068h41.354c0.371-0.01,0.767,0.091,1.014,0.338
		c0.247,0.246,0.347,0.643,0.338,1.013v41.354c0.007,0.145,0.054,0.285,0.135,0.405c0.082,0.12,0.193,0.263,0.338,0.338
		c0.106,0.047,0.222,0.07,0.338,0.067h17.434c0.145-0.007,0.285-0.054,0.406-0.135c0.119-0.082,0.262-0.193,0.336-0.338
		c0.049-0.106,0.07-0.222,0.068-0.338V84.88c-0.008-0.37,0.092-0.767,0.338-1.013c0.246-0.247,0.643-0.348,1.014-0.338h41.354
		c0.145-0.008,0.285-0.055,0.406-0.136c0.119-0.081,0.262-0.193,0.338-0.338c0.047-0.106,0.07-0.222,0.066-0.338V65.284
		c-0.006-0.145-0.053-0.285-0.135-0.405c-0.08-0.121-0.193-0.263-0.338-0.338c-0.105-0.047-0.221-0.07-0.338-0.068H84.879
		c-0.371,0.009-0.768-0.091-1.014-0.338c-0.246-0.247-0.346-0.643-0.338-1.013V21.768c-0.008-0.145-0.053-0.285-0.135-0.406
		c-0.082-0.12-0.193-0.263-0.338-0.337c-0.107-0.047-0.223-0.07-0.338-0.068H65.283c-0.145,0.007-0.285,0.054-0.405,0.135
		s-0.263,0.193-0.338,0.338c-0.047,0.106-0.07,0.222-0.067,0.338v41.354c0.008,0.371-0.091,0.767-0.338,1.014
		c-0.247,0.247-0.643,0.346-1.014,0.337H21.767c-0.145,0.007-0.285,0.054-0.406,0.135C21.241,64.69,21.099,64.802,21.023,64.946
		L21.023,64.946z"/>
</g>
</svg>
