<?xml version="1.0" encoding="utf-8"?>
<!-- Generator: Adobe Illustrator 15.0.0, SVG Export Plug-In . SVG Version: 6.00 Build 0)  -->
<!DOCTYPE svg PUBLIC "-//W3C//DTD SVG 1.1//EN" "http://www.w3.org/Graphics/SVG/1.1/DTD/svg11.dtd">
<svg version="1.1"
	 id="Layer_1" sodipodi:docname="ico_mapchanger.svg" inkscape:version="0.48.5 r10040" xmlns:dc="http://purl.org/dc/elements/1.1/" xmlns:cc="http://creativecommons.org/ns#" xmlns:sodipodi="http://sodipodi.sourceforge.net/DTD/sodipodi-0.dtd" xmlns:inkscape="http://www.inkscape.org/namespaces/inkscape" xmlns:rdf="http://www.w3.org/1999/02/22-rdf-syntax-ns#" xmlns:svg="http://www.w3.org/2000/svg"
	 xmlns="http://www.w3.org/2000/svg" xmlns:xlink="http://www.w3.org/1999/xlink" x="0px" y="0px" width="311px" height="305px"
	 viewBox="0 0 311 305" enable-background="new 0 0 311 305" xml:space="preserve">
<path id="path84" fill="#A64700" d="M282.88,111.546l-44.03,0.756c0,0-22.619-85.283-104.765-92.293
	C253.914,2.49,282.771,106.985,282.88,111.546z"/>
<radialGradient id="path84_2_" cx="-4.3018" cy="539.5537" r="62.3472" gradientTransform="matrix(-0.9455 0.3256 1.6278 4.7276 -673.7996 -2484.2388)" gradientUnits="userSpaceOnUse">
	<stop  offset="0.21" style="stop-color:#000000;stop-opacity:0.77"/>
	<stop  offset="0.505" style="stop-color:#646464;stop-opacity:0.4825"/>
	<stop  offset="0.8474" style="stop-color:#D3D3D3;stop-opacity:0.1487"/>
	<stop  offset="1" style="stop-color:#FFFFFF;stop-opacity:0"/>
</radialGradient>
<path id="path84_1_" opacity="0.51" fill="url(#path84_2_)" enable-background="new    " d="M282.88,111.546l-44.03,0.756
	c0,0-22.619-85.283-104.765-92.293C253.914,2.49,282.771,106.985,282.88,111.546z"/>
<path id="path74" fill="#A64700" d="M30.6,199.98l44.198-0.715c0,0,22.712,80.529,105.159,87.149
	C59.672,302.958,30.707,204.288,30.6,199.98z"/>
<radialGradient id="path74_2_" cx="-107.4141" cy="360.9463" r="61.4474" gradientTransform="matrix(-0.9455 0.3256 1.6278 4.7276 -583.8405 -1427.6489)" gradientUnits="userSpaceOnUse">
	<stop  offset="0.2485" style="stop-color:#000000;stop-opacity:0.79"/>
	<stop  offset="0.3245" style="stop-color:#111111;stop-opacity:0.7101"/>
	<stop  offset="0.4762" style="stop-color:#3F3F3F;stop-opacity:0.5507"/>
	<stop  offset="0.6893" style="stop-color:#898989;stop-opacity:0.3266"/>
	<stop  offset="0.9536" style="stop-color:#EDEDED;stop-opacity:0.0488"/>
	<stop  offset="1" style="stop-color:#FFFFFF;stop-opacity:0"/>
</radialGradient>
<path id="path74_1_" opacity="0.51" fill="url(#path74_2_)" enable-background="new    " d="M30.6,199.98l44.198-0.715
	c0,0,22.712,80.529,105.159,87.149C59.672,302.958,30.707,204.288,30.6,199.98z"/>
<g id="layer2">
	<path id="path5993" fill="#054A88" d="M257.09,155.051c0,56.192-44.97,101.743-100.438,101.743
		c-55.476,0-100.441-45.551-100.441-101.743l0,0c0-56.191,44.967-101.745,100.441-101.745
		C212.12,53.304,257.09,98.857,257.09,155.051z"/>
	<path id="path2216" opacity="0.8" fill="#0D91DC" enable-background="new    " d="M255.08,155.051
		c0,55.069-44.07,99.711-98.432,99.711c-54.363,0-98.438-44.642-98.438-99.711l0,0c0-55.068,44.075-99.711,98.438-99.711
		C211.014,55.34,255.08,99.982,255.08,155.051z"/>
	
		<radialGradient id="path2206_1_" cx="489.7646" cy="-227.7915" r="103.9096" fx="487.5865" fy="-226.7025" gradientTransform="matrix(1.4413 0 0 -1.46 -553.8623 -234.6747)" gradientUnits="userSpaceOnUse">
		<stop  offset="0" style="stop-color:#1CD7FB"/>
		<stop  offset="1" style="stop-color:#043F74;stop-opacity:0"/>
	</radialGradient>
	<path id="path2206" fill="url(#path2206_1_)" d="M257.09,155.049c0,56.194-44.97,101.745-100.438,101.745
		c-55.476,0-100.441-45.551-100.441-101.745l0,0c0-56.189,44.967-101.743,100.441-101.743
		C212.12,53.304,257.09,98.857,257.09,155.049z"/>
	
		<radialGradient id="path2231_1_" cx="489.7646" cy="-227.7915" r="103.9096" fx="487.5865" fy="-226.7025" gradientTransform="matrix(1.4413 0 0 -1.46 -553.8623 -234.6747)" gradientUnits="userSpaceOnUse">
		<stop  offset="0" style="stop-color:#1CD7FB"/>
		<stop  offset="0.44" style="stop-color:#1EADEB"/>
		<stop  offset="0.58" style="stop-color:#0E8ADC"/>
		<stop  offset="0.77" style="stop-color:#065297"/>
		<stop  offset="0.895" style="stop-color:#044374;stop-opacity:0.9647"/>
		<stop  offset="1" style="stop-color:#043F74;stop-opacity:0"/>
	</radialGradient>
	<path id="path2231" fill="url(#path2231_1_)" d="M257.09,155.049c0,56.194-44.97,101.745-100.438,101.745
		c-55.476,0-100.441-45.551-100.441-101.745l0,0c0-56.189,44.967-101.743,100.441-101.743
		C212.12,53.304,257.09,98.857,257.09,155.049z"/>
</g>
<g id="layer3">
	
		<radialGradient id="path3298_1_" cx="110.4194" cy="213.5459" r="200.5075" gradientTransform="matrix(0.9872 0 0 -1 -1.907 306)" gradientUnits="userSpaceOnUse">
		<stop  offset="0" style="stop-color:#F7F7F7"/>
		<stop  offset="0.67" style="stop-color:#9ED4E2"/>
		<stop  offset="1" style="stop-color:#3AA5CA"/>
	</radialGradient>
	<path id="path3298" fill="url(#path3298_1_)" d="M149.223,252.07c-0.517-0.084-0.96-0.334-0.987-0.559
		c-0.03-0.225-0.07-0.568-0.09-0.765c-0.053-0.479-2.435-2.593-4.001-3.55c-0.785-0.48-1.417-1.217-1.678-1.954
		c-0.233-0.649-0.547-1.183-0.691-1.183c-0.152,0-0.271-0.224-0.271-0.494c0-0.272-0.324-0.725-0.717-1.004
		c-0.392-0.28-0.613-0.674-0.49-0.879c0.138-0.224,0.022-0.285-0.299-0.16c-0.388,0.151-0.528-0.016-0.528-0.627
		c0-0.525-0.582-1.451-1.565-2.491c-1.616-1.706-2.312-3.792-1.579-4.733c0.184-0.236,0.438-0.854,0.559-1.369
		c0.121-0.518,0.678-1.279,1.234-1.695c1.203-0.902,1.235-1.233,0.297-2.847c-0.391-0.676-0.622-1.463-0.511-1.755
		c0.108-0.29-0.431-1.842-1.202-3.441c-1.042-2.172-1.882-3.359-3.304-4.676c-1.717-1.585-3.431-3.977-3.431-4.783
		c0-0.168,0.231-0.309,0.509-0.309c0.346,0,0.513-0.355,0.518-1.117c0.008-0.613,0.237-1.418,0.511-1.781
		c0.886-1.187,0.364-3.629-0.577-2.681c-0.231,0.233-0.619,0.425-0.861,0.425c-0.626,0-0.552-1.01,0.093-1.26
		c0.988-0.383-0.235-0.791-2.401-0.802c-1.118-0.004-2.208-0.124-2.417-0.263c-0.207-0.141-0.78-1.055-1.268-2.039
		c-0.777-1.555-1.057-1.819-2.165-2.032c-1.708-0.324-3.803-0.321-6.873,0.017c-2.382,0.258-2.653,0.215-4.242-0.644
		c-1.311-0.711-2.352-0.968-4.581-1.118c-3.3-0.221-3.577-0.4-6.545-4.229c-0.95-1.226-2.426-2.883-3.278-3.68
		c-1.014-0.951-1.415-1.539-1.166-1.72c0.608-0.429,0.146-2.328-0.838-3.447c-0.496-0.565-1.092-1.319-1.327-1.674
		c-0.233-0.353-0.738-1.11-1.115-1.677c-0.512-0.766-0.625-1.292-0.443-2.061c0.139-0.567,0.256-1.803,0.267-2.748
		c0.014-1.097,0.214-1.902,0.559-2.231c0.712-0.687,1.417-2.404,0.984-2.404c-0.181,0-0.335-0.464-0.335-1.03
		s0.136-1.028,0.297-1.028c0.162,0,0.278,0.268,0.254,0.598c-0.087,1.353,0.584,0.83,0.713-0.549
		c0.089-0.991,0.015-1.415-0.224-1.265c-0.453,0.279-0.459,0.354,0.151-2.565c0.413-1.993,0.777-2.765,1.951-4.147
		c0.79-0.931,1.709-1.783,2.036-1.887c0.326-0.107,0.595-0.422,0.595-0.695c0-0.916,1.027-2.117,1.976-2.308
		c0.531-0.108,1.138-0.571,1.4-1.065c0.359-0.679,0.642-0.825,1.254-0.674c0.492,0.125,0.798,0.051,0.798-0.192
		c0-0.218,0.191-0.365,0.422-0.326c0.234,0.037,0.654-0.028,0.933-0.147c0.28-0.117,0.906-0.365,1.395-0.545
		c0.682-0.25,0.934-0.631,1.096-1.646c0.288-1.828,2.324-3.927,4.332-4.466c1.908-0.509,3.322-2.286,3.093-3.88
		c-0.103-0.717-0.34-1.033-0.77-1.033c-0.341,0-0.715-0.156-0.828-0.344c-0.118-0.187-0.506-0.342-0.871-0.342
		c-0.783,0-0.811-0.281-0.136-1.19c0.317-0.426,0.43-1.053,0.306-1.726c-0.157-0.84,0.017-1.33,0.839-2.376
		c1.078-1.375,1.719-3.144,1.724-4.746c0.002-0.8,0.2-0.986,1.393-1.311c1.155-0.314,1.493-0.288,1.979,0.159
		c0.322,0.296,0.813,0.538,1.088,0.538c0.274,0,0.649,0.154,0.833,0.336c0.181,0.187,1.092,0.575,2.019,0.859
		c1.616,0.5,1.709,0.49,2.269-0.191c0.319-0.387,0.682-1.238,0.8-1.886c0.257-1.379-0.083-3.582-0.551-3.582
		c-0.18,0-0.324-0.216-0.324-0.479c0-0.262-0.232-0.567-0.513-0.675c-0.293-0.115-0.505-0.634-0.505-1.239
		c0-0.982,0.072-1.04,1.327-1.04c0.732,0,1.417,0.191,1.522,0.429c0.108,0.239,0.103,0.059-0.01-0.392
		c-0.161-0.653-0.093-0.782,0.318-0.623c0.291,0.114,0.589,0.021,0.67-0.204c0.098-0.283,0.354-0.219,0.833,0.209
		c0.657,0.592,0.759,0.592,2.001,0.041l1.312-0.584l-1.192-0.298c-0.654-0.163-2.332-0.361-3.73-0.435
		c-1.402-0.07-2.812-0.147-3.139-0.164c-0.922-0.056-0.7-0.616,0.339-0.85c0.514-0.115,1.236-0.449,1.612-0.742
		c0.551-0.434,0.589-0.586,0.206-0.829c-0.627-0.389-0.221-1.395,0.562-1.395c0.453,0,0.613-0.258,0.604-0.943
		c-0.011-0.83,0.102-0.933,0.918-0.848c0.825,0.087,0.928-0.013,0.894-0.858c-0.025-0.581-0.101-0.722-0.194-0.356
		c-0.086,0.329-0.389,0.599-0.678,0.599c-0.319,0-0.447-0.198-0.326-0.511c0.161-0.425,0.085-0.44-0.474-0.088
		c-0.367,0.234-0.668,0.747-0.668,1.145c0,0.397-0.266,0.96-0.594,1.249c-0.685,0.607-3.511,1.099-4.5,0.78
		c-1.01-0.324-0.89-1.804,0.187-2.297c0.513-0.24,0.788-0.59,0.682-0.871c-0.268-0.703,0.834-2.226,1.438-1.99
		c0.277,0.107,0.785-0.057,1.126-0.369c0.358-0.33,0.958-0.501,1.43-0.408c0.543,0.104,0.941-0.054,1.203-0.475
		c0.242-0.391,0.262-0.629,0.048-0.629c-0.602,0-0.368-0.689,0.254-0.726c0.565-0.041,0.565-0.049,0-0.198
		c-0.794-0.21-0.751-0.589,0.207-1.637c0.823-0.899,1.913-1.177,1.913-0.489c0,0.271,0.148,0.263,0.494-0.028
		c0.271-0.23,0.664-0.311,0.871-0.182c0.207,0.13,0.678-0.041,1.04-0.375c0.531-0.482,0.752-0.523,1.083-0.181
		c0.33,0.339,0.187,0.638-0.694,1.435c-0.952,0.868-1.012,1.007-0.421,1.007c0.899,0,0.899,1.072,0,1.893
		c-0.789,0.722-0.698,1.89,0.377,4.905c0.738,2.077,0.851,4.41,0.223,4.634c-0.236,0.083-0.326,0.262-0.203,0.395
		c0.377,0.417,2.162-0.732,3.131-2.017c0.836-1.107,1.077-1.222,2.576-1.222c1.835,0,1.893-0.074,2.217-2.71
		c0.253-2.049,0.537-2.456,2.06-2.989c1.011-0.354,1.363-0.363,1.567-0.041c0.151,0.242,0.262-0.052,0.264-0.703
		c0.005-1.229-0.48-1.425-1.543-0.612c-0.362,0.278-1.115,0.51-1.679,0.516c-1.513,0.017-1.975-0.959-1.685-3.551
		c0.316-2.782,0.853-3.742,2.514-4.501c0.756-0.347,1.38-0.753,1.38-0.9c0-0.148,0.537-0.466,1.196-0.707
		c0.804-0.293,1.587-1.014,2.398-2.211c0.665-0.973,1.578-1.973,2.032-2.219c0.453-0.243,0.758-0.507,0.679-0.585
		c-0.074-0.076-0.473,0.041-0.876,0.261c-0.405,0.219-0.818,0.316-0.916,0.217c-0.271-0.275,1.935-2.239,3.354-2.986
		c0.687-0.361,1.344-0.814,1.462-1.008c0.118-0.189,0.663-0.35,1.208-0.35c0.551,0,0.997-0.125,0.997-0.273
		c0-0.405,2.024-1.025,3.44-1.049c0.867-0.019,1.508,0.229,2.141,0.822c0.496,0.469,1.123,0.846,1.396,0.846
		c0.271,0,0.49,0.157,0.49,0.344c0,0.189,0.302,0.345,0.671,0.345c1.204,0,5.02,1.79,5.415,2.541
		c0.224,0.412,0.755,0.748,1.244,0.775c0.791,0.047,0.813,0.004,0.328-0.542c-0.294-0.329-0.531-0.851-0.531-1.17
		c0-0.313-0.153-0.572-0.339-0.572c-0.188,0-0.342-0.251-0.342-0.554c0-0.429,0.254-0.518,1.103-0.395
		c0.606,0.087,1.369,0.273,1.691,0.416c0.436,0.191,0.909-0.104,1.833-1.146c0.804-0.904,1.646-1.479,2.382-1.619
		c2.172-0.414,0.896-1.859-1.409-1.6c-0.911,0.104-1.788-0.033-2.468-0.387c-0.892-0.469-1.084-0.801-1.255-2.186
		c-0.113-0.898-0.295-2.021-0.396-2.491c-0.414-1.888-0.229-2.85,0.682-3.521c0.492-0.365,0.896-0.894,0.896-1.171
		c0-0.303,0.24-0.464,0.592-0.393c0.463,0.094,0.563,0.385,0.463,1.316c-0.074,0.658-0.149,2.331-0.162,3.722
		c-0.025,2.225,0.063,2.6,0.74,3.15c1.008,0.828,3.959,1.389,5.666,1.078l1.354-0.25l-0.933-0.826
		c-0.512-0.457-0.932-1.132-0.932-1.512c0-0.372-0.214-0.925-0.475-1.225c-0.262-0.298-0.582-1.066-0.715-1.704
		c-0.234-1.116-0.211-1.155,0.615-0.945c0.754,0.192,0.879,0.1,0.975-0.721l0.106-0.94l0.763,0.834
		c0.617,0.674,0.767,0.724,0.767,0.254c0-0.319-0.168-0.581-0.378-0.581c-0.223,0-0.313-0.359-0.217-0.859
		c0.09-0.473,0.043-0.859-0.103-0.859s-0.36-0.658-0.478-1.459c-0.434-2.909-0.566-3.281-1.221-3.453
		c-0.93-0.247-0.846-1.268,0.106-1.28c0.743-0.011,0.745-0.023,0.081-0.401c-0.368-0.213-0.786-0.559-0.926-0.761
		c-0.17-0.26-0.252-0.26-0.254-0.004c-0.006,0.198-0.984,0.563-2.178,0.8c-2.285,0.461-3.017,0.297-3.962-0.867
		c-0.446-0.543-0.389-0.573,0.677-0.36c0.807,0.16,1.41,0.068,1.982-0.313c0.495-0.329,1.152-0.464,1.641-0.338
		c0.484,0.123,0.815,0.053,0.815-0.163c0-0.244,0.507-0.293,1.479-0.147c1.178,0.176,1.52,0.113,1.687-0.321
		c0.257-0.679,1.271-0.69,3.367-0.046c1.563,0.48,1.612,0.474,1.612-0.225c0-0.396,0.267-0.925,0.595-1.175
		c0.538-0.415,0.511-0.458-0.319-0.469c-1.087-0.013-1.328-0.315-1.066-1.327c0.158-0.606,0.453-0.752,1.597-0.773
		c0.771-0.017,1.211-0.106,0.979-0.201c-0.236-0.097-0.429-0.39-0.429-0.653c0-1.243-3.483-2.223-4.666-1.318
		c-1.2,0.923-3.479,0.344-3.479-0.887c0-0.36-0.152-0.753-0.34-0.867c-0.609-0.384-0.354-1.204,0.373-1.204
		c0.426,0,0.779,0.275,0.889,0.685c0.096,0.378,0.338,0.69,0.535,0.69c0.194,0,0.631,0.253,0.971,0.563
		c0.568,0.523,0.631,0.523,0.828,0c0.115-0.308,0.427-0.563,0.685-0.563c0.563,0,0.624-0.55,0.104-0.879
		c-0.204-0.125-0.295-0.515-0.207-0.866c0.119-0.451-0.166-0.833-0.986-1.324c-1.159-0.691-1.518-1.386-0.73-1.416
		c0.688-0.028-2.521-1.596-3.818-1.865c-0.651-0.138-2.868-1.068-4.917-2.073c-2.054-1.002-4.077-1.925-4.497-2.05
		c-0.857-0.258-1.037-0.87-0.257-0.87c0.28,0,0.509-0.155,0.509-0.344s0.229-0.345,0.514-0.345c0.278,0,0.508,0.156,0.508,0.345
		c0,0.187,0.42,0.344,0.93,0.346c0.516,0.002,1.394,0.247,1.951,0.546c1.367,0.729,4.58,1.076,4.58,0.492
		c0-0.266,0.224-0.34,0.594-0.193c0.328,0.126,2.352,0.609,4.496,1.071c2.148,0.464,4.207,0.987,4.578,1.166
		c1.67,0.793,3.363,1.384,3.959,1.384c0.36,0,1.104,0.236,1.654,0.524c0.896,0.472,8.67,4.196,5.586,3.109
		c-0.373-0.13-0.109,0.12,0.588,0.555c0.699,0.435,1.271,0.99,1.272,1.222c0.003,0.238,0.159,0.431,0.351,0.431
		c0.19,0,4.82,3.634,6.779,4.813c1.958,1.178,4.04,2.603,4.627,3.159c0.676,0.645,1.149,0.882,1.293,0.648
		c0.33-0.543-0.088-1.063-0.671-0.837c-0.474,0.178-0.553,0.054-0.635-0.997c-0.021-0.239-0.263-0.612-0.541-0.831
		c-1.019-0.802-0.022-0.824,2.251-0.052c2.373,0.808,3.077,1.291,2.453,1.685c-0.205,0.129-0.119,0.308,0.218,0.438
		c0.313,0.118,0.712,0.13,0.892,0.017c0.18-0.111,0.537-0.022,0.797,0.191c0.258,0.221,0.937,0.413,1.515,0.43
		c0.758,0.021,1.021,0.178,0.957,0.578c-0.056,0.361,0.166,0.554,0.649,0.562c0.879,0.013,3.719,4.058,2.969,3.221
		c-0.355-0.392-0.95-0.868-1.325-1.048c-0.806-0.388,1.174,1.461,4.142,3.875c1.215,0.989,2.543,2.468,3.137,3.496
		c1.061,1.836,5.147,6.279,7.181,7.794l1.147,0.859c0,0,3.349,4.197,3.063,3.958c-0.725-0.609,1.037,2.056,0.635,2.056
		c-0.113,0-0.994-0.852-1.955-1.89c-0.965-1.039-1.89-1.891-2.059-1.891s-0.605-0.268-0.977-0.6
		c-0.656-0.593-0.656-0.585-0.102,0.516c0.365,0.724,0.432,1.117,0.182,1.117c-0.212,0-0.295,0.241-0.186,0.533
		c0.135,0.346,0.064,0.449-0.184,0.291c-0.781-0.487,0.094,0.529,1.037,1.215l0.965,0.689l-0.117-1.018
		c-0.189-1.642,0.459-1.187,1.601,1.124c1.364,2.76,1.688,3.175,2.031,2.614c0.18-0.293,0.769,0.14,1.897,1.399
		c1.838,2.054,2.728,3.386,4.248,6.381c0.571,1.13,1.366,2.393,1.762,2.799c1.195,1.234,1.584,1.797,2.095,3.037
		c0.646,1.56,0.634,2.366-0.026,2.106c-0.4-0.155-0.447-0.069-0.203,0.393c0.446,0.853,1.734,7.223,1.734,8.583
		c0,0.632,0.334,1.875,0.734,2.762c0.828,1.813,1.271,5.223,0.683,5.223c-0.205,0-0.537-0.659-0.743-1.462
		c-0.609-2.392-0.727-2.718-0.893-2.553c-0.088,0.086,0.064,1.361,0.341,2.836c0.458,2.451,0.626,2.795,1.993,4.075
		c1.915,1.793,2.496,3.889,2.796,10.071c0.196,3.998,0.157,4.553-0.308,4.553c-0.291,0-0.533-0.233-0.533-0.514
		c0-0.284-0.229-0.518-0.506-0.518c-0.278,0-0.512-0.23-0.512-0.514c0-0.769-0.6-0.622-0.857,0.209
		c-0.279,0.891,0.125,4.428,0.506,4.428c0.15,0,0.373,0.66,0.49,1.47c0.156,1.03,0.433,1.565,0.943,1.803
		c1.506,0.696,2.283,7.026,1.499,12.176c-0.272,1.793-0.661,3.313-0.862,3.38c-0.199,0.065-0.363,0.342-0.363,0.605
		c0,0.268-0.151,0.486-0.342,0.486c-0.185,0-0.336-0.234-0.336-0.521c0-0.647-1.401-3.735-1.77-3.889
		c-0.445-0.187-0.307-0.812,0.275-1.242c0.481-0.358,0.447-0.472-0.342-0.991c-1.123-0.744-1.144-1.923-0.045-2.965
		c0.7-0.668,0.924-0.725,1.363-0.354c0.291,0.244,0.622,0.347,0.741,0.227c0.344-0.35-0.944-4.689-1.396-4.689
		c-0.232,0-0.658-1.143-0.994-2.664c-1.012-4.601-1.297-5.698-2.033-7.813l-0.713-2.063l-0.353,1.862
		c-0.332,1.767-1.039,2.675-1.321,1.688c-0.072-0.255-0.309-1.118-0.522-1.92c-0.216-0.804-0.521-1.461-0.675-1.461
		c-0.159,0-0.868-0.538-1.58-1.201c-0.713-0.664-1.383-1.202-1.486-1.199c-0.355,0.011-2.39,4.882-2.39,5.725
		c0,0.465-0.214,1.563-0.474,2.45c-0.566,1.929-1.291,6.103-1.254,7.224c0.016,0.441-0.344,1.58-0.789,2.524
		c-0.756,1.597-0.781,1.813-0.332,2.897c0.266,0.647,0.498,1.905,0.52,2.8c0.042,1.942,0.521,3.757,1.098,4.112
		c0.848,0.53,1.908,2.461,1.908,3.474c0,1.308-0.604,2.694-1.291,2.96c-0.689,0.268-1.025-0.337-1.296-2.333
		c-0.244-1.821-0.677-1.754-1.299,0.194c-0.273,0.851-0.552,1.115-1.179,1.115c-0.651,0-1.018-0.388-1.785-1.887
		c-0.53-1.039-1.113-1.943-1.303-2.006c-0.188-0.063-0.717-0.912-1.177-1.891c-0.459-0.975-1.204-2.17-1.649-2.655
		c-0.45-0.485-0.922-1.22-1.053-1.634c-0.13-0.41-0.392-0.748-0.587-0.748c-0.192,0-0.271-0.213-0.171-0.474
		c0.1-0.266-0.189-1.026-0.643-1.702c-0.456-0.676-0.822-1.379-0.822-1.563c0-0.197-0.551-0.276-1.279-0.188
		c-0.861,0.106-1.718-0.067-2.617-0.533c-0.734-0.377-1.535-0.69-1.773-0.69c-0.243,0-0.438-0.224-0.438-0.487
		c0-0.267-0.471-0.59-1.043-0.718c-0.574-0.13-1.125-0.454-1.225-0.726c-0.104-0.271-0.495-0.657-0.869-0.858
		c-0.531-0.288-0.871-0.229-1.57,0.283c-0.488,0.36-1.427,0.872-2.078,1.14c-0.655,0.266-1.489,0.762-1.853,1.102
		c-0.362,0.344-0.821,0.564-1.017,0.492c-0.197-0.068-1.043,0.08-1.883,0.334c-1.897,0.576-3.808,0.601-4.344,0.058
		c-0.597-0.603-0.539,0.534,0.09,1.76c0.573,1.12,1.272,1.479,2.357,1.207c0.475-0.119,1.253,0.099,2.041,0.569
		c1.191,0.711,1.261,0.844,1.064,1.996c-0.119,0.683-0.301,1.814-0.408,2.523c-0.116,0.779-0.377,1.29-0.664,1.29
		c-0.321,0-0.475,0.413-0.475,1.291c0,0.918-0.195,1.415-0.681,1.722c-0.37,0.233-0.679,0.752-0.679,1.145
		c0,0.436-0.273,0.79-0.696,0.898c-0.42,0.113-0.771,0.566-0.885,1.145c-0.118,0.596-0.464,1.027-0.915,1.145
		c-1.131,0.295-3.215,2.2-3.332,3.051c-0.068,0.479-0.753,1.193-1.805,1.891c-0.935,0.62-2.06,1.465-2.496,1.877
		c-1.018,0.952-4.162,3.012-4.602,3.012c-0.18,0-0.744,0.397-1.248,0.891c-0.562,0.546-1.349,0.91-2.029,0.945
		c-0.998,0.049-1.192-0.104-1.879-1.49c-0.961-1.937-1.205-2.662-1.324-3.92c-0.063-0.695-0.614-1.48-1.805-2.578
		c-0.938-0.866-1.798-1.897-1.902-2.287c-0.109-0.393-0.69-0.934-1.297-1.203c-0.854-0.382-1.202-0.834-1.563-2.039
		c-0.782-2.593-1.471-3.781-2.321-3.995c-0.439-0.114-1.027-0.651-1.309-1.196c-0.279-0.546-0.639-0.99-0.798-0.99
		c-0.16,0-0.388-0.348-0.505-0.776c-0.361-1.317-2.358-3.412-3.016-3.153c-0.318,0.122-0.578,0.461-0.578,0.75
		c0,0.657,1.76,3.789,2.709,4.817c0.396,0.429,0.633,0.915,0.531,1.086c-0.253,0.41,0.141,1.401,0.553,1.401
		c0.955,0,2.18,2.096,2.502,4.297c0.181,1.222,0.44,1.678,1.215,2.143c0.543,0.323,1.316,1.286,1.722,2.143
		c0.405,0.853,0.894,1.666,1.097,1.808c0.246,0.168,0.229,0.252-0.053,0.257c-0.229,0.004-0.325,0.237-0.217,0.521
		c0.256,0.678,0.799,0.662,0.799-0.026c0-0.36,0.252-0.502,0.764-0.429c0.5,0.072,0.766,0.348,0.766,0.799
		c0,0.426,0.546,1.059,1.438,1.66c2.147,1.453,3.342,2.699,3.6,3.74c0.375,1.522,1.347,1.81,3.209,0.951
		c0.877-0.402,1.822-0.881,2.104-1.054c0.28-0.176,0.738-0.416,1.018-0.526c2.205-0.894,4.287-2,4.515-2.399
		c0.149-0.267,0.571-0.479,0.935-0.479c0.495,0,0.659,0.236,0.659,0.961c0,0.526,0.188,1.157,0.425,1.396
		c0.342,0.35,0.31,0.5-0.158,0.769c-0.318,0.182-0.498,0.543-0.397,0.801c0.099,0.262-0.153,1.134-0.562,1.944
		c-0.408,0.812-1.109,2.457-1.563,3.668c-1.278,3.439-2.918,5.714-7.364,10.2c-6.152,6.213-9.388,10.148-8.347,10.148
		c0.532,0,0.36,1.317-0.187,1.436c-0.442,0.094-0.449,0.229-0.026,1.041c0.543,1.055,0.521,1.691-0.089,2.436
		c-0.57,0.695-0.162,2.191,0.65,2.405c0.581,0.157,0.646,0.482,0.596,3.212l-0.053,3.04l-1.398,1.372
		c-0.789,0.78-2.158,1.646-3.152,2c-0.964,0.348-1.939,0.862-2.173,1.145c-0.231,0.281-1.009,0.813-1.729,1.188
		c-1.446,0.749-1.887,1.451-1.326,2.134c0.43,0.525,0.138,2.829-0.42,3.271c-0.209,0.167-1.16,0.565-2.115,0.878
		c-1.457,0.48-1.832,0.783-2.317,1.88c-0.585,1.312-0.698,1.394-5.39,3.905c-2.873,1.539-4.768,1.908-10.577,2.074
		C152.596,252.152,149.733,252.155,149.223,252.07z M175.836,228.637c-0.281-0.722-0.673,1.242-0.438,2.204
		c0.131,0.528,0.224,0.42,0.406-0.485C175.938,229.71,175.951,228.938,175.836,228.637z M168.646,223.838
		c0-0.165-0.316-0.385-0.701-0.486c-0.571-0.153-0.625-0.098-0.297,0.301C168.1,224.199,168.646,224.302,168.646,223.838z
		 M173.54,215.896c0.694,0,1.658-1.295,1.423-1.912c-0.158-0.424-0.451-0.506-1.146-0.332c-0.51,0.128-0.979,0.375-1.043,0.552
		c-0.059,0.176-0.311,0.319-0.555,0.319s-0.51,0.455-0.591,1.014c-0.118,0.82-0.015,1.033,0.562,1.117
		c0.383,0.055,0.748-0.092,0.811-0.329C173.057,216.09,173.3,215.896,173.54,215.896z M255.831,170.081
		c-0.322-0.299-0.367-0.248-0.199,0.243c0.119,0.344,0.242,0.888,0.265,1.201c0.026,0.313,0.115,0.207,0.201-0.239
		C256.18,170.836,256.061,170.295,255.831,170.081z M255.514,169.005c0-0.661-0.211-0.661-0.465,0
		c-0.107,0.28-0.05,0.515,0.137,0.515C255.365,169.52,255.514,169.288,255.514,169.005z M202.585,166.475
		c0.003-0.482,0.049-0.49,0.325-0.051c0.425,0.68,0.748,0.313,2.033-2.314c0.576-1.184,1.199-2.146,1.38-2.146
		c0.182,0,0.325-0.193,0.319-0.432c-0.008-0.233-0.397,0.017-0.871,0.563c-1.082,1.244-3.242,1.592-4.812,0.77
		c-0.576-0.303-1.289-0.461-1.573-0.35c-0.509,0.196-2.914-2-2.914-2.66c0-0.162-0.16-0.295-0.361-0.295
		c-0.198,0-0.264-0.156-0.149-0.345c0.113-0.188,0.05-0.344-0.151-0.344c-0.196,0-0.361,0.346-0.365,0.774
		c-0.006,0.621-0.067,0.672-0.336,0.256c-0.283-0.445-0.328-0.438-0.334,0.058c-0.002,0.313-0.198,0.658-0.43,0.76
		c-0.293,0.128-0.185,0.367,0.34,0.757c0.418,0.313,0.765,0.78,0.765,1.031c0,0.262,0.211,0.378,0.481,0.273
		c0.291-0.113,0.729,0.199,1.103,0.785c0.337,0.535,0.842,1.178,1.124,1.429c0.285,0.251,0.35,0.37,0.148,0.272
		c-0.201-0.101-0.365,0.017-0.365,0.26c0,0.244,0.215,0.443,0.479,0.443c0.321,0,0.432-0.266,0.328-0.812
		c-0.132-0.69-0.049-0.777,0.564-0.587c0.922,0.287,0.861,0.215,1.209,1.449c0.209,0.733,0.18,1.108-0.098,1.221
		c-0.275,0.117-0.253,0.265,0.088,0.505C201.124,168.176,202.577,167.281,202.585,166.475z M150.661,161.271
		c0.15-1.348,0.321-1.617,1.357-2.144c1.538-0.78,2.895-0.764,3.688,0.038c0.349,0.354,1.224,0.754,1.951,0.895
		c0.723,0.135,1.472,0.369,1.655,0.521c0.188,0.149,0.873,0.36,1.525,0.466c0.65,0.105,1.951,0.342,2.885,0.516
		c1.449,0.275,1.83,0.229,2.605-0.33c0.945-0.68,2.643-0.848,4.705-0.465c1.564,0.291,1.773,0.008,2.669-3.639
		c0.882-3.592,0.666-5.572-0.632-5.761c-0.465-0.067-0.926,0.105-1.094,0.403c-0.435,0.788-2.252,1.082-2.935,0.475
		c-0.897-0.798-2.099-1.071-2.099-0.477c0,0.989-1.784,1.224-2.647,0.352c-0.522-0.53-0.575-0.513-0.751,0.232
		c-0.188,0.814-1.012,1.39-1.012,0.709c0-0.208-0.318-0.692-0.705-1.086c-0.387-0.392-0.617-0.947-0.512-1.224
		c0.147-0.382,0.022-0.458-0.48-0.293c-0.486,0.156-0.68,0.059-0.68-0.345c0-0.305,0.154-0.464,0.341-0.344
		c0.188,0.114,0.341,0.048,0.341-0.156c0-0.199-0.236-0.365-0.523-0.365c-0.407,0-0.508-0.345-0.447-1.541
		c0.046-0.848-0.023-1.645-0.152-1.771c-0.129-0.127-0.234-0.054-0.234,0.163c0,0.217-0.229,0.4-0.51,0.4
		c-0.279,0-0.509-0.232-0.509-0.516c0-0.281,0.149-0.513,0.339-0.513c0.188,0,0.34-0.258,0.34-0.569c0-0.457-0.134-0.413-0.672,0.21
		c-0.367,0.432-1.142,0.883-1.727,1.003l-1.057,0.218l0.881,0.961c0.496,0.543,1.05,0.857,1.269,0.717
		c0.216-0.136,0.304-0.1,0.195,0.078c-0.111,0.178,0.415,1.003,1.166,1.824c1.177,1.285,1.292,1.542,0.817,1.812
		c-0.3,0.169-0.461,0.459-0.353,0.633c0.106,0.178,0.053,0.323-0.127,0.323c-0.179,0-0.41-0.229-0.519-0.508
		c-0.108-0.29-0.416-0.423-0.713-0.309c-0.367,0.145-0.522-0.01-0.522-0.534c0-0.882-0.966-1.348-1.384-0.675
		c-0.164,0.262-0.303,0.902-0.309,1.422c0,0.523-0.159,0.948-0.344,0.948c-0.187,0-0.34-0.122-0.34-0.27s-0.459-0.443-1.017-0.658
		c-0.682-0.259-1.017-0.622-1.017-1.106c0-0.392-0.219-0.717-0.486-0.717c-0.709,0-1.037-0.711-0.488-1.062
		c0.337-0.216,0.352-0.302,0.042-0.306c-0.231,0-0.424-0.303-0.424-0.67c0-0.368-0.156-0.766-0.344-0.885
		c-0.642-0.397-1.332-2.59-1.13-3.595c0.157-0.793,0.006-1.176-0.722-1.862c-0.506-0.475-1.439-1.035-2.073-1.244
		c-0.639-0.215-1.156-0.553-1.156-0.752c0-0.2-0.345-0.702-0.766-1.117c-1.262-1.244-1.948-2.222-1.948-2.764
		c0-0.782-0.665-0.607-0.995,0.263c-0.231,0.598-0.113,0.969,0.519,1.65c0.446,0.481,0.815,1.117,0.815,1.416
		c0,0.828,1.33,2.346,2.058,2.346c0.36,0,0.654,0.202,0.654,0.449c0,0.249,0.685,0.939,1.524,1.541
		c1.554,1.106,1.769,1.558,1.201,2.473c-0.269,0.435-0.429,0.393-1.032-0.264c-0.394-0.425-0.872-0.678-1.063-0.559
		c-0.236,0.15-0.231,0.342,0.021,0.591c0.202,0.205,0.367,0.638,0.367,0.956c0,0.811-1.721,2.713-2.451,2.713
		c-0.445,0-0.603,0.273-0.603,1.031c0,1.145-0.639,1.364-1.48,0.518c-0.278-0.283-0.609-0.518-0.733-0.518
		c-0.52,0-2.199-1.457-2.199-1.903c0-0.61,1.627-1.055,2.103-0.573c0.422,0.429,2.707,0.124,3.077-0.41
		c0.407-0.6-0.044-1.916-0.939-2.723c-1.836-1.662-2.609-2.288-2.826-2.299c-0.124-0.005-0.675-0.622-1.224-1.375
		c-0.548-0.752-1.199-1.364-1.44-1.364c-0.246,0-0.444-0.155-0.444-0.344c0-0.189,0.16-0.344,0.362-0.344
		c0.497,0,0.021-1.439-0.638-1.925c-0.386-0.286-0.777-0.252-1.56,0.143c-2.001,1.002-2.229,1.097-2.688,1.097
		c-0.251,0-0.95-0.247-1.544-0.55c-1.326-0.67-2.074-0.428-2.074,0.668c0,0.993-0.408,1.357-2.204,1.981
		c-1.788,0.625-3.631,2.294-3.386,3.072c0.203,0.643-1.722,2.865-2.215,2.557c-0.157-0.101-0.513,0.054-0.793,0.337
		c-0.585,0.595-1.508,0.664-2.708,0.2c-1.12-0.434-2.263-0.087-2.263,0.683c0,0.767,0.331,0.995,1.582,1.091
		c0.53,0.041,1.153,0.26,1.384,0.481c0.284,0.275,0.73,0.317,1.36,0.12c3.708-1.167,4.54-1.201,10.946-0.464
		c1.028,0.12,2.676,0.199,3.663,0.178c1.258-0.026,1.849,0.11,1.978,0.449c0.102,0.266,0.401,0.399,0.668,0.297
		c0.32-0.125,0.477,0.054,0.477,0.548c0,0.403-0.224,0.822-0.493,0.926c-0.387,0.151-0.413,0.349-0.116,0.933
		c0.997,1.968,1.015,2.036,0.557,2.329c-0.249,0.16-0.705,0.295-1.013,0.299c-0.308,0.002-0.647,0.244-0.759,0.537
		c-0.118,0.309-0.057,0.443,0.138,0.32c0.185-0.115,0.85,0.34,1.476,1.014c0.635,0.679,1.472,1.224,1.882,1.224
		c1.352,0,3.761,1.328,3.761,2.077c0,0.429,0.345,0.816,0.93,1.044c0.514,0.203,1.623,0.722,2.463,1.161
		C150.076,163.234,150.461,163.111,150.661,161.271z M157.343,154.843c-0.534-0.079-0.893-0.323-0.819-0.549
		c0.154-0.467,0.205-0.469,2.369-0.092C161.889,154.727,160.451,155.316,157.343,154.843z M169.323,154.727
		c0-0.496,0.891-1.367,1.138-1.117c0.111,0.108,0.584-0.055,1.061-0.369c0.885-0.585,1.174-0.324,0.451,0.408
		c-0.224,0.228-0.27,0.412-0.104,0.412c0.163,0,0.006,0.227-0.357,0.502C170.74,155.156,169.323,155.259,169.323,154.727z
		 M161.398,153.889c0.248-0.66,0.463-0.66,0.463,0c0,0.28-0.15,0.516-0.329,0.516C161.354,154.402,161.291,154.171,161.398,153.889z
		 M143.198,152.688c0-0.441,0.239-0.441,0.505,0c0.118,0.188,0.05,0.345-0.149,0.345
		C143.359,153.032,143.198,152.877,143.198,152.688z M136.029,146.269c-0.02-0.157-0.01-0.436,0.03-0.625
		c0.039-0.188,0.068-0.982,0.068-1.758c0-1.101,0.124-1.409,0.558-1.375c0.437,0.035,0.537-0.225,0.458-1.222
		c-0.079-0.988,0.053-1.346,0.601-1.645c0.617-0.334,0.701-0.286,0.68,0.405c-0.013,0.432-0.145,1.095-0.292,1.469
		c-0.149,0.377-0.143,1.03,0.01,1.449c0.215,0.578-0.114,2.57-0.505,3.062C137.438,146.277,136.059,146.482,136.029,146.269z
		 M128.449,144.114c-0.299-0.486,0.081-1.045,0.713-1.045c0.293,0,0.467,0.239,0.403,0.572
		C129.431,144.329,128.755,144.619,128.449,144.114z M130.301,143.433c0-0.202,0.155-0.364,0.341-0.364c0.436,0,0.436,0.242,0,0.512
		C130.456,143.702,130.301,143.632,130.301,143.433z M158.504,150.181c-0.273-0.277-0.378-0.24-0.378,0.145
		c0,0.685,0.458,1.145,0.624,0.635C158.823,150.745,158.71,150.393,158.504,150.181z M196.236,145.384
		c0.5-0.37,0.521-0.578,0.158-1.542c-0.229-0.614-0.535-1.119-0.682-1.119s-0.263-0.195-0.263-0.435c0-0.239-0.306-1.01-0.681-1.715
		c-0.373-0.708-0.68-1.494-0.68-1.758c0-0.259-0.23-0.667-0.51-0.901c-0.28-0.234-0.51-0.797-0.51-1.244
		c0-0.593-0.188-0.816-0.693-0.816c-0.382,0-1.074-0.386-1.541-0.857c-0.467-0.475-0.984-0.859-1.15-0.859
		c-0.162,0-0.574-0.357-0.914-0.793c-0.834-1.063-1.664-1.341-2.174-0.722c-0.305,0.373-0.316,0.705-0.051,1.268
		c0.199,0.417,0.451,1.147,0.559,1.619c0.104,0.474,0.31,1.017,0.453,1.21c0.53,0.73,3.926,3.257,4.373,3.257
		c0.254,0,0.463,0.232,0.463,0.516c0,0.28-0.237,0.515-0.525,0.515c-0.424,0-0.504,0.373-0.424,1.974
		c0.093,1.814,0.17,1.984,0.949,2.087c0.467,0.064,0.996,0.26,1.172,0.432C194.033,145.954,195.566,145.889,196.236,145.384z
		 M163.557,144.441c0-0.186-0.24-0.342-0.529-0.342c-0.287,0-0.436,0.156-0.318,0.342
		C162.979,144.886,163.557,144.886,163.557,144.441z M167.893,142.248c1.354-0.877,4.487-1.485,4.487-0.873
		c0,0.2,0.158,0.26,0.354,0.138c0.197-0.123,0.576-0.037,0.85,0.193c0.275,0.232,1.477,0.417,2.717,0.417
		c1.842,0,2.362-0.135,3.04-0.777c1.017-0.967,0.718-1.691-1.099-2.658c-0.703-0.375-2.122-1.137-3.149-1.691
		c-2.001-1.078-2.708-1.091-4.122-0.074c-1.104,0.793-1.982,0.836-1.982,0.099c0-0.298-0.32-0.633-0.705-0.733
		c-0.489-0.13-0.655-0.388-0.542-0.826c0.116-0.454-0.019-0.642-0.455-0.642c-0.339,0-0.695-0.191-0.79-0.43
		c-0.225-0.559-1.563,1.05-1.573,1.893c-0.002,0.334-0.312,0.871-0.687,1.193c-0.375,0.326-0.678,1.012-0.678,1.54
		s-0.138,0.956-0.301,0.956c-0.568,0-0.693,1.532-0.189,2.312C163.779,143.388,166.159,143.367,167.893,142.248z M173.844,134.348
		c0.1-0.26,0.021-0.632-0.176-0.832c-0.455-0.458-1.967,0.191-1.967,0.848C171.699,134.981,173.607,134.967,173.844,134.348z
		 M149.115,119.872c0.804-0.617,1.945-0.653,2.511-0.08c0.291,0.294,0.497,0.313,0.664,0.058c0.131-0.199,0.492-0.458,0.797-0.573
		c0.356-0.132,0.618-0.745,0.731-1.693c0.096-0.816,0.447-2.291,0.778-3.275c0.511-1.499,0.777-1.835,1.646-2.058
		c0.91-0.234,0.79-0.286-0.997-0.44c-1.186-0.105-2.095-0.037-2.178,0.161c-0.237,0.58-0.882,1.111-1.636,1.354
		c-0.768,0.245-1.299,1.327-0.944,1.908c0.231,0.375-0.398,1.757-0.977,2.153c-0.204,0.137-0.717,0.253-1.138,0.257
		c-0.788,0.005-1.021,0.49-0.423,0.865c0.512,0.321,0.406,0.859-0.168,0.859c-0.279,0-0.508-0.159-0.508-0.344
		c0-0.19-0.381-0.345-0.852-0.345c-0.466,0-0.845,0.156-0.845,0.345c0,0.185,0.229,0.344,0.504,0.344
		c0.28,0,0.511,0.232,0.511,0.516C146.592,120.552,148.231,120.546,149.115,119.872z M151.342,115.715
		c-0.002-0.401,0.231-0.926,0.514-1.168c0.806-0.673,0.882-0.24,0.15,0.882C151.421,116.329,151.344,116.363,151.342,115.715z
		 M145.209,116.638c0.398-0.254,0.413-0.461,0.075-1.112c-0.246-0.48-0.337-0.539-0.229-0.156c0.112,0.388-0.05,0.827-0.414,1.107
		C143.977,116.993,144.447,117.125,145.209,116.638z M157.328,115.409c0.29-0.769-0.531-1.648-1.098-1.17
		c-0.354,0.295-0.364,0.515-0.045,1.032C156.676,116.064,157.064,116.11,157.328,115.409z M170.684,112.859
		c0-0.468-0.601-0.772-0.816-0.419c-0.203,0.335,0.092,0.743,0.535,0.743C170.555,113.183,170.684,113.037,170.684,112.859z
		 M160.626,111.291c0.248-0.655,0.076-0.655-0.466,0c-0.243,0.296-0.273,0.516-0.075,0.516
		C160.273,111.808,160.518,111.576,160.626,111.291z M154.145,109.613c0.28-0.418,0.196-3.988-0.094-3.988
		c-0.102,0-0.65,0.432-1.222,0.961c-1.345,1.242-1.742,2.716-0.906,3.353C152.56,110.429,153.708,110.26,154.145,109.613z
		 M164.572,109.93c0-0.439-0.958-1.217-1.506-1.217c-0.346,0-0.197,0.888,0.218,1.307
		C163.846,110.59,164.572,110.537,164.572,109.93z M156.279,104.38c1.289-0.995,1.523-1.851,0.513-1.851
		c-0.664,0-1.722,0.841-1.722,1.371c0,0.161-0.09,0.533-0.207,0.832C154.576,105.507,154.943,105.415,156.279,104.38z
		 M166.777,103.562c-0.113-0.188-0.469-0.331-0.782-0.319c-0.472,0.017-0.451,0.077,0.104,0.319
		C167.01,103.956,167.021,103.956,166.777,103.562z M168.477,101.708c0-0.638-0.199-0.722-1.719-0.722
		c-1.533,0-1.701,0.073-1.589,0.688c0.106,0.565,0.415,0.693,1.72,0.721C168.288,102.427,168.477,102.347,168.477,101.708z
		 M234.959,95.355c0.102-0.167-0.029-0.483-0.291-0.707c-0.391-0.329-0.447-0.273-0.297,0.303
		C234.572,95.736,234.684,95.81,234.959,95.355z M180.566,85.262c-0.34-0.337-0.375-0.296-0.193,0.192
		c0.131,0.338,0.318,0.529,0.425,0.423C180.9,85.776,180.798,85.495,180.566,85.262z M220.225,75.606
		c0-0.07-0.266-0.343-0.594-0.599c-0.538-0.429-0.551-0.416-0.127,0.13C219.943,75.708,220.225,75.889,220.225,75.606z
		 M195.792,61.492c0-0.262-4.201-1.54-4.383-1.336c-0.205,0.229-0.093,0.282,2.349,1.158
		C195.113,61.798,195.792,61.859,195.792,61.492z M188.896,241.395c-0.073-0.138-0.158-0.879-0.179-1.646
		c-0.038-1.143,0.148-1.583,0.986-2.398c0.896-0.871,1.004-1.164,0.817-2.263c-0.239-1.437,0.555-3.386,1.381-3.386
		c0.943,0,3.572-1.457,4.496-2.496c3.74-4.199,3.768-4.221,4.264-3.686c0.66,0.709,0.943,3.309,0.408,3.76
		c-0.232,0.193-0.522,0.254-0.646,0.13c-0.12-0.124-0.224,0.184-0.224,0.69c0,0.502-0.155,0.916-0.342,0.916
		c-0.182,0-0.338,0.152-0.338,0.342c0,0.393-2.267,4.107-4.242,6.951c-1.032,1.485-1.717,2.09-2.862,2.534
		C190.698,241.506,189.098,241.757,188.896,241.395z M206.988,232.747c0-0.2,0.154-0.364,0.341-0.364c0.435,0,0.435,0.245,0,0.516
		C207.141,233.018,206.988,232.949,206.988,232.747z M126.571,211.449c0-0.198,0.154-0.361,0.34-0.361c0.435,0,0.435,0.242,0,0.512
		C126.723,211.717,126.571,211.65,126.571,211.449z M69.662,208.423c-3.773-5.965-8.458-16.735-10.73-24.661
		c-3.623-12.646-4.983-27.085-3.656-38.911c0.551-4.906,1.153-5.203,1.063-0.53c-0.167,8.645-0.103,11.786,0.249,12.217
		c0.206,0.251,0.554,1.537,0.768,2.854c0.216,1.317,0.533,2.668,0.701,2.996c0.169,0.327,0.31,1.328,0.315,2.23
		c0.002,0.902,0.214,2.564,0.473,3.695c0.256,1.135,0.562,2.834,0.683,3.778c0.381,3.029,3.165,9.882,4.969,12.229
		c0.521,0.682,1.651,2.729,2.51,4.553c0.859,1.823,1.694,3.316,1.855,3.316c0.356,0,0.621,0.645,1.243,3.022
		c0.689,2.627,0.604,3.386-0.551,4.843l-1.031,1.301l0.882,2.717c0.984,3.025,1.835,6.324,1.639,6.324
		C70.973,210.4,70.349,209.512,69.662,208.423z M206.65,186.695c0.668-0.438,1.455-0.438,1.188,0
		c-0.113,0.189-0.544,0.344-0.953,0.341C206.282,187.03,206.236,186.967,206.65,186.695z M186.971,184.438
		c0-0.608,0.729-0.5,0.94,0.133c0.073,0.226-0.108,0.408-0.403,0.408C187.214,184.979,186.971,184.732,186.971,184.438z
		 M83.974,171.902c-0.126-0.202-0.144-0.449-0.045-0.551c0.244-0.248,0.903,0.186,0.903,0.594
		C84.833,172.384,84.248,172.355,83.974,171.902z M85.172,170.553c0-0.443,0.24-0.443,0.507,0c0.116,0.188,0.049,0.344-0.151,0.344
		C85.33,170.896,85.172,170.741,85.172,170.553z M83.392,168.329c-0.682-0.946-0.737-1.214-0.256-1.214
		c0.187,0,0.339,0.181,0.339,0.402c0,0.219,0.255,0.683,0.562,1.03c0.309,0.345,0.423,0.621,0.256,0.614
		C84.121,169.161,83.716,168.783,83.392,168.329z M249.993,157.977c-0.14-0.14-0.238-0.649-0.226-1.138l0.02-0.89l0.331,0.831
		C250.468,157.673,250.393,158.385,249.993,157.977z M99.284,156.168c-0.148-0.238-0.173-0.527-0.063-0.643
		c0.303-0.307,0.636,0.146,0.473,0.643C99.575,156.521,99.496,156.518,99.284,156.168z M101.633,155.572
		c0.485-0.493,0.965-0.816,1.061-0.721c0.261,0.266-0.982,1.616-1.494,1.616C100.94,156.467,101.121,156.092,101.633,155.572z
		 M98.065,154.748c0-0.189,0.239-0.346,0.529-0.346c0.289,0,0.433,0.158,0.319,0.346C98.644,155.191,98.065,155.191,98.065,154.748z
		 M100.445,146.849c0-0.441,0.239-0.441,0.506,0c0.118,0.187,0.05,0.342-0.149,0.342
		C100.604,147.191,100.445,147.036,100.445,146.849z M95.353,133.791c0-0.438,0.239-0.438,0.509,0
		c0.115,0.189,0.049,0.347-0.153,0.347S95.353,133.98,95.353,133.791z M93.477,131.028c-0.315-0.51-0.065-0.692,0.479-0.35
		c0.292,0.183,0.326,0.361,0.097,0.5C93.859,131.301,93.598,131.232,93.477,131.028z M59.776,127.955
		c0-0.474,0.076-0.667,0.17-0.431c0.095,0.238,0.095,0.621,0,0.859C59.854,128.618,59.776,128.424,59.776,127.955z M59.989,124.821
		c-0.252-0.666,0.425-3.741,0.825-3.741c0.277,0,0.1,1.51-0.403,3.425C60.247,125.135,60.139,125.214,59.989,124.821z
		 M63.794,112.495c0-0.189,0.154-0.345,0.341-0.345c0.184,0,0.339,0.157,0.339,0.345s-0.155,0.345-0.339,0.345
		C63.948,112.839,63.794,112.684,63.794,112.495z M64.812,110.587c0-0.425,1.083-2.267,1.239-2.106
		c0.182,0.185-0.807,2.296-1.077,2.296C64.887,110.777,64.812,110.691,64.812,110.587z M135.065,108.304
		c-0.007-0.318,0.154-0.683,0.354-0.805c0.596-0.372,0.681,0.021,0.153,0.728C135.134,108.807,135.075,108.818,135.065,108.304z
		 M66.169,107.723c0-0.186,0.152-0.438,0.339-0.553c0.186-0.119,0.339-0.058,0.339,0.129c0,0.189-0.154,0.439-0.339,0.559
		C66.321,107.973,66.169,107.912,66.169,107.723z M132.146,104.25c0-0.375,0.201-0.688,0.448-0.688c0.346,0,0.365,0.16,0.083,0.688
		C132.225,105.109,132.146,105.109,132.146,104.25z M88.352,102.103c0.038-0.236,0.182-0.622,0.33-0.858
		c0.169-0.273,0.073-0.429-0.262-0.429c-0.293,0-0.53-0.23-0.53-0.505c0-0.327,0.195-0.429,0.56-0.286
		c0.566,0.218,0.551-0.217-0.097-2.411c-0.127-0.435,0.034-0.685,0.527-0.812c0.387-0.104,0.708-0.293,0.708-0.419
		c0-0.129,0.279-0.253,0.619-0.277c1.033-0.08,3.462-1.27,3.343-1.641c-0.064-0.192-0.465-0.368-0.891-0.389
		c-0.899-0.048-1.433-0.75-1.186-1.561c0.098-0.314,0.017-0.674-0.178-0.794c-0.196-0.124-0.354,0.062-0.354,0.419
		c0,0.354-0.222,0.94-0.497,1.311c-0.78,1.041-0.655-0.14,0.159-1.489c0.93-1.548,0.853-2.017-0.382-2.267
		c-1.669-0.341-1.754-0.269-0.757,0.595c0.915,0.799,0.919,0.834,0.35,1.72c-0.322,0.497-0.811,0.903-1.088,0.903
		c-0.278,0-0.5,0.14-0.5,0.303c0,0.169-0.31,0.389-0.688,0.488s-0.665,0.31-0.632,0.468c0.146,0.763-0.514,2.52-0.948,2.52
		c-0.266,0-0.405,0.136-0.304,0.299c0.098,0.16,0.605,0.23,1.121,0.15c0.861-0.138,0.891-0.107,0.35,0.339
		c-0.328,0.271-0.594,0.687-0.594,0.921c0,0.536-1.627,0.174-2.402-0.532c-0.292-0.268-0.796-0.488-1.112-0.488
		c-0.486,0-0.517-0.121-0.197-0.728c0.212-0.4,0.681-0.804,1.033-0.903c0.355-0.09,0.645-0.313,0.645-0.492
		c0-0.179-0.131-0.241-0.291-0.142c-0.159,0.099-0.462-0.202-0.672-0.668c-0.21-0.466-0.515-0.849-0.682-0.849
		c-0.516,0-2.08,1.394-1.999,1.783c0.044,0.198-0.138,0.442-0.399,0.542c-0.33,0.12-0.413,0-0.264-0.388
		c0.118-0.309,0.066-0.563-0.112-0.563c-0.182,0-0.331-0.256-0.331-0.569c0-0.526-0.045-0.526-0.622,0
		c-0.342,0.313-0.785,0.569-0.982,0.569c-0.197,0-1.109,0.683-2.022,1.515c-1.362,1.237-1.835,1.478-2.618,1.326
		c-0.759-0.146-1.128,0.02-1.792,0.804l-0.836,0.992l0.601-1.106c0.33-0.607,1.902-2.879,3.501-5.044
		c15.064-20.459,37.033-34.545,61.639-39.514c9.593-1.939,21.117-2.744,26.826-1.881c1.647,0.252,2.647,0.51,2.214,0.584
		c-0.431,0.07-0.867,0.347-0.97,0.615c-0.109,0.288-0.653,0.487-1.316,0.487c-1.241,0-1.871,0.543-0.918,0.796
		c0.494,0.133,0.477,0.162-0.102,0.195c-0.379,0.024-0.877,0.226-1.097,0.449c-0.276,0.277-2.552,0.436-7.28,0.5
		c-8.192,0.114-8.757,0.175-11.143,1.242c-1.012,0.454-2.632,0.92-3.6,1.035c-0.965,0.115-2.036,0.364-2.373,0.553
		c-0.343,0.186-1.072,0.438-1.625,0.559c-0.74,0.161-0.876,0.29-0.523,0.514c0.262,0.162,0.594,0.221,0.744,0.129
		c0.145-0.088,0.799-0.015,1.455,0.165c0.715,0.202,1.266,0.207,1.382,0.02c0.105-0.174,0-0.313-0.234-0.313
		c-0.269,0-0.31-0.121-0.106-0.318c0.577-0.566,2.686-0.537,3.506,0.045c0.74,0.525,0.751,0.572,0.159,0.884
		c-0.632,0.331-2.97,0.895-5.258,1.267c-0.925,0.151-1.291,0.401-1.436,0.998c-0.182,0.738-0.367,0.794-2.664,0.794
		c-2.647,0-5.769,0.73-5.584,1.307c0.155,0.474,1.868,0.652,2.372,0.248c1.384-1.106,4.841-1.33,4.443-0.279
		c-0.203,0.539,0.761,1.031,1.064,0.539c0.108-0.177,0.494-0.327,0.854-0.327c0.381,0,0.66-0.237,0.66-0.553
		c0-0.362,0.186-0.479,0.539-0.344c0.295,0.114,0.765,0.208,1.042,0.208c0.443,0,0.441,0.066-0.013,0.526
		c-0.829,0.836-0.353,1.416,1.033,1.249c0.851-0.1,1.153-0.024,0.988,0.245c-0.158,0.265,0.257,0.383,1.322,0.383
		c1.073,0,1.623,0.16,1.756,0.518c0.105,0.283,0.407,0.512,0.666,0.512c0.424,0,0.618,0.423,0.389,0.848
		c-0.049,0.083,0.214,0.374,0.579,0.646c0.574,0.424,0.606,0.618,0.267,1.379c-0.223,0.487-0.776,0.982-1.232,1.1l-0.83,0.21
		l0.735,0.741c0.403,0.408,1.065,0.773,1.47,0.807c0.405,0.034,1.211,0.311,1.792,0.616c0.829,0.433,1.03,0.739,0.939,1.422
		c-0.063,0.48-0.337,1.01-0.602,1.183c-0.367,0.237-0.378,0.313-0.047,0.319c0.243,0.002,0.35,0.161,0.232,0.35
		c-0.114,0.188,0.03,0.344,0.319,0.344c0.292,0,0.53,0.232,0.53,0.516s-0.21,0.514-0.468,0.514c-0.708,0-3.604,1.369-3.604,1.703
		c0,0.16-0.346,0.229-0.766,0.154c-0.419-0.078-0.573-0.055-0.342,0.058c0.313,0.154,0.328,0.38,0.056,0.893
		c-0.199,0.379-0.452,0.598-0.56,0.495c-0.106-0.11-0.365,0.041-0.576,0.331s-0.658,0.572-0.994,0.619
		c-0.723,0.107-1.239,0.836-1.015,1.431c0.136,0.361-0.564,0.707-1.747,0.861c-0.187,0.026-0.551,0.222-0.811,0.439
		c-0.257,0.217-0.68,0.397-0.932,0.397c-0.526,0.008-3.179,2.504-3.179,2.994c0,0.178-0.326,0.219-0.721,0.089
		c-0.463-0.148-0.641-0.099-0.503,0.13c0.183,0.292-2.477,0.997-3.187,0.847c-2.936-0.629-4.11-0.672-7.041-0.264
		c-1.202,0.167-1.936,0.119-2.259-0.156c-0.371-0.313-0.755-0.288-1.699,0.11c-0.67,0.283-1.216,0.652-1.216,0.823
		c0,0.168-0.474,0.322-1.057,0.34c-0.585,0.018-2.091,0.581-3.357,1.256c-2.722,1.445-3.224,1.527-2.887,0.45
		c0.136-0.423,0.278-1.265,0.322-1.862c0.1-1.398,1.232-2.888,4.357-5.718c2.927-2.652,7.034-4.824,7.034-3.715
		c0,0.16,0.383,0.221,0.857,0.133c0.796-0.154,0.814-0.2,0.255-0.642c-0.576-0.449-0.572-0.498,0.073-1.01
		c0.377-0.296,1.094-0.48,1.607-0.403c0.679,0.097,0.984-0.038,1.13-0.502c0.119-0.376,1.368-1.189,3.057-1.985
		c3.282-1.547,4.598-2.685,4.333-3.726c-0.147-0.553,0.104-0.849,1.202-1.416c0.76-0.392,1.5-0.688,1.645-0.658
		c0.144,0.036,0.522-0.059,0.848-0.199c0.374-0.168,1.021,0.015,1.814,0.507c0.992,0.62,1.29,0.682,1.517,0.308
		c0.623-1.026-2.062-1.721-7.73-2.001c-1.006-0.055-0.968-0.775,0.114-2.074c0.655-0.791,0.748-1.057,0.36-1.057
		c-0.284,0-0.619,0.163-0.742,0.363c-0.144,0.241-0.516,0.163-1.092-0.216c-0.768-0.51-1.146-0.53-3.128-0.171
		c-1.242,0.225-2.704,0.707-3.253,1.076c-0.547,0.365-1.272,0.666-1.611,0.668c-0.338,0-0.519,0.157-0.405,0.344
		c0.353,0.574,1.533,0.388,2.651-0.417c1.154-0.832,5.102-1.319,5.714-0.703c0.614,0.627-1.312,2.941-3.308,3.972
		c-1.022,0.527-1.946,1.183-2.049,1.458c-0.106,0.277-0.403,0.503-0.665,0.503c-0.262,0-0.477,0.192-0.481,0.43
		c-0.01,0.468-2.719,1.973-3.547,1.973c-0.283,0-0.93,0.495-1.448,1.099c-2.16,2.543-2.36,2.681-3.854,2.619l-1.423-0.054
		l1.07-0.969c0.586-0.531,1.07-1.051,1.07-1.156c0-0.361-1.467,0.61-2.532,1.678c-0.592,0.592-1.649,1.252-2.353,1.461
		c-0.877,0.268-1.162,0.273-0.909,0.021c0.627-0.638,0.394-1.057-0.257-0.459c-1.037,0.952-1.161,0.642-0.335-0.851
		c0.432-0.78,1.42-1.949,2.2-2.595c0.78-0.649,1.572-1.635,1.765-2.189c0.202-0.583,0.724-1.156,1.236-1.354
		c1.148-0.442,1.184-0.438,1.184,0.184c0,0.716,1.014,1.06,1.384,0.469c0.217-0.342,0.306-0.356,0.308-0.052
		c0.002,0.239,0.174,0.432,0.382,0.432c0.215,0,0.301-0.306,0.197-0.707c-0.13-0.512,0.026-0.789,0.569-0.997
		c0.414-0.16,0.955-0.535,1.204-0.839c0.249-0.299,0.813-0.551,1.259-0.551c0.446,0,0.808-0.14,0.808-0.307
		c0-0.181-0.528-0.181-1.274-0.004c-0.7,0.167-1.911,0.212-2.688,0.101c-1.216-0.174-1.636-0.05-2.99,0.897
		c-0.869,0.604-1.683,0.995-1.808,0.865c-0.128-0.125,0.046-0.437,0.384-0.689c0.412-0.306,0.488-0.527,0.231-0.69
		c-0.604-0.376,0.666-1.594,1.41-1.354c0.917,0.293,1.409-0.138,0.822-0.729c-0.264-0.266-0.629-0.491-0.806-0.491
		c-0.177,0-0.513-0.233-0.746-0.517c-0.533-0.649-2.283-0.655-3.396-0.015c-0.468,0.268-1.366,0.735-2,1.029
		c-0.635,0.298-1.801,1.12-2.586,1.826c-0.79,0.704-2.073,1.805-2.862,2.443c-0.782,0.638-1.585,1.515-1.782,1.953
		c-0.197,0.437-0.827,0.991-1.4,1.229c-0.571,0.24-1.505,0.846-2.074,1.347c-0.569,0.499-1.475,1.143-2.014,1.422
		c-0.782,0.411-0.869,0.552-0.425,0.726c0.303,0.118,0.553,0.064,0.553-0.119c0-0.182,0.159-0.334,0.357-0.334
		c0.198,0,0.922-0.386,1.613-0.861c0.688-0.475,1.305-0.705,1.368-0.514c0.306,0.922,3.599-0.167,4.893-1.621
		c0.328-0.367,0.935-0.635,1.357-0.599c0.42,0.039,1.068-0.1,1.44-0.304c0.788-0.433,2.934-1.237,3.315-1.244
		c0.144-0.005,0.03,0.354-0.257,0.793c-0.284,0.445-0.437,0.888-0.335,0.987c0.099,0.102-0.36,0.665-1.018,1.249
		c-0.658,0.587-1.199,1.225-1.199,1.416c0,0.193-0.572,0.592-1.27,0.887c-1.343,0.572-2.802,1.777-2.802,2.327
		c0,0.187,0.682,0.25,1.604,0.144c1.368-0.156,1.519-0.114,1.005,0.264c-0.587,0.435-3.278,2.881-5.689,5.178
		c-0.67,0.635-1.417,1.775-1.664,2.533c-0.249,0.754-0.563,1.305-0.698,1.218c-0.136-0.086-0.433,0.294-0.657,0.844
		c-0.602,1.474-2.54,3.163-3.044,2.655c-0.305-0.304-0.353-0.269-0.189,0.16c0.153,0.408-0.073,0.663-0.829,0.926
		c-0.57,0.203-1.037,0.607-1.037,0.902s-0.182,0.532-0.407,0.532c-0.301,0-0.308,0.101-0.026,0.383
		c0.485,0.491,0.184,1.283-0.871,2.272c-0.458,0.429-0.707,0.782-0.562,0.782c0.146,0-0.144,0.385-0.649,0.857
		C88.786,102.613,88.25,102.774,88.352,102.103z M84.642,87.587c0.159-0.69,0.127-0.916-0.1-0.69
		c-0.188,0.189-0.449,0.809-0.577,1.375c-0.159,0.69-0.126,0.916,0.1,0.69C84.253,88.773,84.515,88.155,84.642,87.587z
		 M83.738,86.882c0.042-0.507-0.07-0.791-0.264-0.668c-0.396,0.251-0.459,1.546-0.071,1.546
		C83.552,87.762,83.698,87.363,83.738,86.882z M87.379,83.638c0.718-0.806,0.128-0.94-0.656-0.147
		c-0.598,0.604-0.666,0.833-0.247,0.833C86.634,84.324,87.039,84.016,87.379,83.638z M89.417,80.545
		c0.263-0.433-0.187-0.433-0.851,0c-0.439,0.288-0.428,0.334,0.063,0.339C88.945,80.89,89.297,80.734,89.417,80.545z M92.716,78.409
		c0.581-0.549,0.889-1.104,0.742-1.338c-0.163-0.271-0.101-0.317,0.189-0.135c0.29,0.18,0.384,0.114,0.278-0.204
		c-0.205-0.614-0.685-0.519-1.118,0.221c-0.186,0.32-0.76,1.012-1.273,1.546c-0.512,0.529-0.934,1.149-0.934,1.377
		C90.602,80.321,90.937,80.092,92.716,78.409z M122.668,70.927c-0.112-0.188-0.362-0.345-0.549-0.345
		c-0.183,0-0.245,0.156-0.131,0.345c0.117,0.189,0.364,0.345,0.551,0.345C122.726,71.271,122.784,71.116,122.668,70.927z
		 M136.694,66.808c0.485,0.004,0.496,0.053,0.055,0.338c-0.444,0.289-0.438,0.335,0.043,0.341c0.304,0.004,0.733-0.215,0.951-0.48
		c0.317-0.384,0.268-0.529-0.25-0.692c-0.893-0.289-1.769,0.11-1.733,0.787c0.015,0.361,0.087,0.408,0.196,0.137
		C136.05,66.997,136.381,66.808,136.694,66.808z M126.657,63.713c0.284,0,0.606-0.232,0.715-0.516
		c0.261-0.691-0.073-0.648-1.412,0.178c-0.665,0.408-1.022,0.849-0.884,1.082c0.164,0.267,0.366,0.216,0.647-0.18
		C125.951,63.97,126.37,63.713,126.657,63.713z M130.47,60.622c0.117-0.188,0.056-0.344-0.129-0.344
		c-0.187,0-0.434,0.156-0.55,0.344c-0.115,0.188-0.055,0.342,0.132,0.342C130.108,60.963,130.358,60.811,130.47,60.622z
		 M133.356,57.873c0-0.188-0.227-0.345-0.506-0.345c-0.279,0-0.51,0.157-0.51,0.345s0.231,0.345,0.51,0.345
		C133.129,58.218,133.356,58.062,133.356,57.873z M125.215,98.224c0-0.288-0.231-0.612-0.511-0.721c-0.66-0.258-0.66-0.811,0-0.811
		c0.279,0,0.511-0.232,0.511-0.515c0-0.28-0.161-0.517-0.361-0.517c-0.198,0-0.269-0.146-0.158-0.329
		c0.11-0.178,0.451-0.23,0.756-0.11c0.436,0.166,0.505,0.073,0.318-0.417c-0.265-0.7,0.251-1.191,1.264-1.202
		c0.468-0.002,0.586,0.176,0.458,0.685c-0.138,0.53-0.01,0.688,0.557,0.69c0.399,0.002,1.312,0.166,2.02,0.367
		c1.188,0.335,1.288,0.454,1.192,1.448c-0.139,1.426-1.192,1.954-3.925,1.958C125.653,98.752,125.215,98.643,125.215,98.224z
		 M171.926,95.433c-0.469-0.475-0.203-1.146,0.453-1.146c0.453,0,0.68,0.228,0.68,0.688
		C173.057,95.636,172.395,95.904,171.926,95.433z M153.426,85.785c-0.214-0.398-0.388-0.971-0.388-1.266
		c0-0.297-0.153-0.54-0.341-0.54c-0.396,0-0.442-1.359-0.061-1.966c0.153-0.245,0.721-0.365,1.351-0.284
		c0.6,0.078,1.086,0.007,1.086-0.16c0-0.321,2.285-0.206,2.617,0.135c0.332,0.334-0.66,1.29-1.142,1.102
		c-0.624-0.245-0.577,0.474,0.087,1.215c0.631,0.708,0.389,1.313-0.501,1.244c-0.421-0.033-0.569-0.247-0.461-0.666
		c0.269-1.053-0.392-0.672-1.146,0.653C153.836,86.472,153.794,86.491,153.426,85.785z M107.817,81.193
		c0.229-0.238,0.502-0.344,0.606-0.238c0.106,0.108-0.085,0.297-0.42,0.428C107.522,81.57,107.486,81.529,107.817,81.193z
		 M178.143,80.709c-0.625-0.763-0.271-0.847,0.431-0.105c0.327,0.344,0.462,0.627,0.297,0.627
		C178.706,81.232,178.378,80.996,178.143,80.709z M162.98,80.671c-0.281-0.118-0.232-0.343,0.17-0.757
		c0.399-0.411,0.689-0.482,0.961-0.234c0.216,0.193,0.309,0.486,0.209,0.655c-0.102,0.167,0.029,0.228,0.287,0.137
		c0.303-0.104,0.436-0.553,0.367-1.244c-0.104-1.051-0.074-1.071,0.818-0.728c0.673,0.261,0.997,0.251,1.167-0.034
		c0.175-0.287,0.306-0.289,0.476-0.016c0.125,0.209,0.059,0.377-0.151,0.377c-0.207,0-0.284,0.159-0.167,0.345
		c0.117,0.188,0.01,0.349-0.235,0.349c-0.321,0.004-0.305,0.099,0.063,0.338c0.414,0.272,0.373,0.334-0.228,0.338
		c-0.403,0.006-0.811-0.187-0.903-0.423c-0.109-0.27-0.182-0.221-0.2,0.136C165.58,80.736,164.15,81.15,162.98,80.671z
		 M100.926,77.154c0.102-0.165,0.53-0.389,0.952-0.497c0.743-0.188,0.748-0.178,0.111,0.3
		C101.26,77.506,100.64,77.62,100.926,77.154z M109.602,73.676c0.665-0.436,1.115-0.436,0.851,0
		c-0.119,0.189-0.471,0.339-0.789,0.336C109.174,74.01,109.166,73.963,109.602,73.676z M111.297,71.959
		c0-0.187,0.233-0.344,0.512-0.344c0.28,0,0.506,0.157,0.506,0.344c0,0.189-0.226,0.345-0.506,0.345
		C111.531,72.304,111.297,72.148,111.297,71.959z M141.589,65.909c0.114-0.113,0.408-0.129,0.652-0.029
		c0.272,0.11,0.189,0.191-0.204,0.209C141.681,66.108,141.479,66.023,141.589,65.909z M139.317,65.439
		c-0.363-0.13-0.513-0.313-0.339-0.407c0.45-0.251,3.391-0.365,3.154-0.127C141.713,65.33,139.943,65.663,139.317,65.439z
		 M141.585,63.827c-0.724-0.294-0.47-0.855,0.34-0.739c0.418,0.058,0.725,0.264,0.679,0.454
		C142.502,63.96,142.15,64.057,141.585,63.827z M136.751,63.599c0-0.109,0.348-0.573,0.771-1.035
		c0.556-0.605,1.258-0.898,2.507-1.033c0.954-0.105,2.135-0.288,2.619-0.413c0.66-0.169,0.891-0.095,0.891,0.282
		c0,0.685-0.893,1.402-1.367,1.106c-0.208-0.13-1.094-0.125-1.967,0.01c-1.264,0.2-1.448,0.31-0.908,0.529
		c0.616,0.253,0.599,0.277-0.168,0.305c-0.468,0.019-1.193,0.123-1.61,0.238C137.092,63.701,136.751,63.705,136.751,63.599z
		 M169.23,57.302c0.232-0.092,0.688-0.101,1.021-0.013c0.328,0.086,0.141,0.162-0.42,0.17
		C169.271,57.47,169.003,57.399,169.23,57.302z"/>
	
		<radialGradient id="path2284_1_" cx="107.3657" cy="117.4121" r="173.018" gradientTransform="matrix(0.9872 0 0 -1 -1.907 306)" gradientUnits="userSpaceOnUse">
		<stop  offset="0" style="stop-color:#FFFFFF"/>
		<stop  offset="0.3853" style="stop-color:#9FEA85"/>
		<stop  offset="0.7551" style="stop-color:#2B8A0A"/>
		<stop  offset="1" style="stop-color:#7EFF55"/>
	</radialGradient>
	<path id="path2284" fill="url(#path2284_1_)" d="M151.597,52.875c-5.762,0.824-11.574,1.367-17.204,2.93
		c-6.644,1.439-13.206,3.47-19.386,6.366c-6.95,3.465-13.654,7.492-19.915,12.152c-2.038,0.932-0.308,1.351-0.541,2.856
		c-0.572,1.318-1.773,2.308-2.794,3.3c-1.133,0.099-2.094,0.782-2.89,1.338c-0.382,1.488-1.213,3.577-3.063,3.242
		c-0.997-0.777,0.403-2.163,1.218-2.602c1.491-0.423,0.795-1.666-0.063-0.937c-1.19,1.061-2.472,2.346-3.356,3.538
		c0.782,0.464,2.092,0.081,1.682,2.011c0.117,1.351-0.845,2.529-1.54,3.59c-0.98-0.688-0.331-2.225-1.239-3.008
		c0.083-1.992,0.108-1.673-1.229-0.251c-2.383,2.948-4.803,5.908-7.066,8.979c2.102-1.046,3.978-2.458,5.896-3.823
		c0.387,1.81,1.001,1.267,2.085,0.498c1.309-0.583,2.318,1.177,3.02,2.039c0.26,1.002-1.928,1.744-0.282,2.131
		c0.032-1.495,1.293-2.623,1.834-3.969c0.841-0.774,2.935-1.662,1.662-3.009c-1.369-1.295-1.495-1.948,0.537-1.491
		c1.288-0.091,2.75,0.509,3.219,1.756c-0.703,1.572,0.98,3.188,2.478,2.923c1.734-0.739,2.563-2.933,3.762-4.399
		c1.509-2.349,3.897-4.113,5.664-6.114c-1.243,0.402-1.916-1.309-0.836-1.98c1.774-1.53,3.844-2.73,5.156-4.755
		c-3.023,0.95-5.831,2.354-8.869,3.247c-1.59,0.16-2.978,0.945-4.39,1.652c-0.994-0.876-0.629-2.279,0.516-2.77
		c2.747-1.971,5.327-4.156,7.837-6.44c2.768-2.189,5.61-4.811,9.167-5.204c1.279,0.703,2.567,1.383,3.833,2.099
		c-0.952,1.867,1.315,0.808,2.346,1.044c1.481-0.097,2.958,0.159,4.431,0.296c0.652,1.446-0.725,2.127-1.922,1.755
		c-1.487,0.199-2.518,1.291-3.271,2.565c-1.268,1.222-2.483-0.476-3.866-0.265c-1.251,1.567-2.499,3.133-3.754,4.7
		c2.512-0.538,4.388-2.688,6.885-3.355c-0.276,0.626-2.013,2.7-1.287,2.229c2.842-1.951,5.503-4.172,8.48-5.904
		c1.354-1.14,2.707-2.277,4.061-3.416c-1.686-0.634-3.406,0.754-5.075,1.072c-0.82,0.292-2.3,0.129-2.602-0.576
		c0.363-2.138,2.849-2.331,4.49-2.911c1.203-0.374,2.832-0.452,0.675-0.651c-0.979,0.16-2.935-0.23-1.722-1.517
		c0.845-1.055,1.945-1.644,3.191-2.045c0.521,1.762,2.218,0.621,3.492,0.716c1.44,0.011,2.796-0.429,3.917-1.315
		c2.404-0.586,0.077-0.434-0.814-1.246c-0.984-1.26,1.027-1.91,2.021-2.114c4.018-1.33,8.171-2.392,12.372-2.849
		c4.188-0.37,8.392-0.559,12.586-0.837c2.007-1.096,0.87-1.31-0.815-1.234C157.406,52.648,154.509,52.787,151.597,52.875z
		 M180.398,59.617c1.09,1.652,2.871,3.209,2.793,5.368c-0.978,1.104,1.781,0.48,2.455,1.197c0.66,0.786,1.799,1.604,1.748,2.684
		c-0.562,1.051-2.678,0.696-1.043,1.898c0.469,1.124-0.602,2.167-1.213,2.918c-1.642,0.59-3.303-0.716-4.93,0.149
		c-1.816,0.417-0.846,0.253-0.146,1.349c0.203,1.01-0.369,2.213,0.53,3.258c0.515,2.081,1.064,4.156,1.554,6.242
		c-1.373,0.277,0.141,2.767-1.75,2.045c-1.318-1.916-1.5-0.296-0.502,0.977c0.654,1.526,1.813,2.719,2.731,4.07
		c-1.828,0.086-3.661,0.459-5.474,0.03c1.652,0.365,0.746,2.082-0.236,2.705c-1.364,1.05-2.865,2.301-4.532,2.711
		c-1.905-0.543-1.405,0.49-0.651,1.66c0.623,1.492-1.375,1.288-2.254,0.949c-3.725-1.454-7.067-4.134-10.967-4.966
		c-2.521,0.592-5.385,1.056-7.155,3.168c-0.938,2.213-2.857,3.847-4.534,5.459c-1.915,1.611-4.446,2.783-5.586,5.124
		c-0.127,1.191-0.552,2.851,0.393,3.736c1.16-0.074,2.626-0.993,3.612-0.352c0.37,1.216,0.055,2.565,1.015,3.56
		c0.331,1.547-1.43,2.889-2.763,2.073c-0.811-0.616,1.092-2.002,0.634-2.53c-1.164,0.399-2.274,1.125-2.248,2.551
		c-0.206,1.513-0.876,3.206-2.585,3.273c-2.322,0.218-3.547,2.489-5.731,3.095c0.403,1.076-1.488,1.275-2.146,1.783
		c-1.164,0.218-2.33,0.344-3.501,0.084c-0.277,1.493-2.969-0.123-2.358,1.568c0.901,1.927,1.981,4.158,0.889,6.259
		c-0.47,1.181-1.234,2.261-2.619,1.898c-2.108-0.278-4.111-1.357-6.18-1.934c-1.818,0.906-1.289,3.516-2.502,4.98
		c-0.936,1.3-0.997,2.958-1.503,4.439c0.857,1.036,2.953,1.412,2.556,3.181c-0.24,1.377-0.847,2.782-2.206,3.331
		c-1.654,1.16-3.451,2.372-4.651,3.998c-0.656,1.604-1.654,3.256-3.404,3.617c-1.834,0.59-3.623,1.275-4.972,2.76
		c-2.114,2.021-4.028,4.367-5.492,6.92c-0.589,1.724-0.604,3.523-0.568,5.316c-1.137,3.178-2.964,6.486-2.274,9.939
		c1.412,2.382,3.515,4.588,3.544,7.537c2.472,2.742,4.946,5.484,7.419,8.229c3.599,0.537,7.031,2.021,10.636,2.398
		c2.536,0.159,5.158-0.216,7.646,0.182c2.4,0.343,2.877,3.674,5.326,3.935c1.552,0.465,3.142,0.778,4.716,1.158
		c-1.042,1.133,1.303,1.104,0.845,2.394c-0.334,1.925-1.228,3.926-1.287,5.797c1.752,3.258,4.95,5.485,6.134,9.096
		c0.84,2.201,1.6,4.526,2.375,6.786c-1.245,1.854-3.56,3.839-2.523,6.322c2.223,3.09,4.05,6.523,6.536,9.39
		c1.739,1.687,3.295,3.697,5.122,5.207c3.917,1.242,8.01-0.065,11.987-0.276c2.369-0.063,4.539-1.289,6.584-2.406
		c1.779-1.031,3.4-2.301,4.742-3.875c1.269-0.688,3.252-1.141,3.004-3.035c-0.043-1.256,0.019-2.52,1.143-3.27
		c2.958-1.908,5.866-3.867,8.689-5.981c0.035-2.154-0.043-4.289-0.94-6.275c-0.765-1.353,0.515-2.803-0.218-4.202
		c0-1.255,0.431-2.574,0.509-3.817c4.366-5.089,8.846-10.095,13.146-15.233c1.975-3.648,3.903-7.396,4.91-11.468
		c-0.83-1.181-2.373,0.594-3.428,0.838c-2.468,1.226-4.877,2.563-7.604,3.015c-2.047-2.646-4.41-4.985-6.799-7.295
		c-0.844,1.016-2.664,0.059-2.257-1.255c-0.879-2.596-3.459-4.108-4.034-6.854c-0.351-1.913-2.143-2.793-2.806-4.52
		c-1.229-2.125-2.276-4.507-3.035-6.771c0.201-1.612,1.813-1.335,2.787-0.634c2.011,2.098,3.983,4.526,5.808,6.821
		c1.535,4.058,5.168,6.601,7.408,10.134c0.862,1.851,1.475,3.834,2.646,5.506c2.962-0.58,5.186-2.985,7.604-4.567
		c2.805-1.919,4.82-4.745,7.489-6.843c1.42-1.426,2.778-2.897,3.41-4.883c1.021-1.777,1.194-3.86,1.698-5.824
		c-1.19-0.854-2.58-1.133-3.951-1.432c-1.108-0.262-1.088-3.398-2.01-1.394c-0.904,1.181-1.414,2.874-3.047,3.136
		c-0.778,0.477-2.742,1.328-2.824-0.162c0.035-2.019-0.444-1.391-1.68-1.109c-0.939-0.607-1.281-2.108-2.338-2.766
		c-0.953-1.103-2.98-2.49-1.93-4.127c0.857-0.479,1.463-2.467,1.945-2.248c1.469,1.916,3.016,4.014,5.548,4.33
		c1.888,0.744,3.694-0.252,5.298-1.222c0.904-0.354,3.199-2.146,1.836-0.185c-1.354,1.476,0.852,1.685,1.861,1.258
		c3.3-0.326,6.193-2.438,9.183-3.539c2.761,1.753,5.513,3.757,8.804,4.176c2.397,0.542,2.735,3.525,4.09,5.277
		c1.723,3.046,3.623,5.971,5.559,8.871c1.337,0.28,0.986-1.92,2.313-2.041c0.787,0.187,1.215,1.925,1.58,2.803
		c1.041-1.762-0.949-3.399-1.467-5.042c-1.201-2.433-1.193-5.3-1.693-7.942c1.651-5.193,2.221-10.681,3.785-15.885
		c0.42-1.415,1.155-2.754,1.941-3.959c1.648-0.794,2.919,1.124,3.969,2.144c0.982,0.71,1.313,3.14,1.674,0.717
		c0.371-0.609,0.738-3.952,1.129-2.279c0.963,3.056,1.816,6.158,2.85,9.189c-0.531-1.734-0.496-3.591-0.227-5.34
		c0.395-1.865,2.609,0.813,2.293-0.757c-0.148-3.109-0.506-6.263-1.322-9.235c-1.563-2.214-3.406-4.49-3.35-7.396
		c-0.117-1.627-0.26-3.247-0.359-4.874c1.205,2.327,0.597,0.195,0.272-1.166c-0.729-3.21-1.471-6.42-2.19-9.631
		c1.44-0.602-0.082-1.871-0.477-2.713c-2.205-3.413-4.285-6.998-6.883-10.075c-1.302-1.014-2.868-1.739-3.396-3.465
		c-0.619-1.169-2.377-0.602-2.957-1.938c-0.774-0.997-2.256-2.101-1.646-3.526c0.409-1.116-1.427-3.645,0.565-2.055
		c1.373,0.746,2.574,1.648,3.76,2.678c-0.385-1.66-2.373-2.307-3.525-3.417c-4.516-3.575-7.66-8.611-12.044-12.375
		c-1.173-1.254-2.53-2.358-3.829-3.391c-0.33-1.4-1.228-1.81-2.66-2.235c-1.117-0.467-2.353-0.724-3.018-1.777
		c-1.759-0.965-1.305-0.447-0.609,0.958c-0.324,1.676-2.021,0.365-3.029,0.09c-4.639-3.074-8.949-6.817-13.568-9.9
		c-1.734-0.14-3.313-1.053-4.855-1.769c0.102-1.5-0.771-1.461-2.346-1.849c-4.25-1.089-8.482-2.396-12.75-3.335
		c-2.119,0.315-4.215-0.265-6.234-0.89C173.215,56.407,176.811,58.014,180.398,59.617z M133.341,56.729
		c1.289,0.335,0.879,2.151-0.279,2.185c-1.145,0.334-2.021-1.117-0.982-1.85C132.349,56.579,132.898,56.787,133.341,56.729z
		 M131.027,59.556c0.657,0.977-0.267,2.383-1.324,2.073c-1.22-0.584-0.732-2.381,0.618-2.045
		C130.56,59.578,130.791,59.552,131.027,59.556z M130.744,65.131c-2.34,0.413-0.645,0.433,0.764,0.583
		c1.506-0.005,1.666,1.594,0.818,2.484c0.365,1.244,2.308,0.516,3.315,0.948c1.515,0.109,3.225,0.536,4.244,1.678
		c0.345,1.436-1.139,1.953-2.212,1.425c-1.406-0.514-2.944-0.471-4.13,0.573c-1.208,0.471-0.969,2.217-2.194,2.754
		c-1.957,1.51-4.108,2.939-6.226,4.121c-1.51,0.198-1.95,0.89-2.518,2.08c-1.68,0.535-3.724,0.114-5.087,1.583
		c-2.576,1.743-4.512,4.243-6.69,6.459c-0.939,1.841-0.051,2.263,1.459,1.229c2.169-0.811,4.297-1.928,6.494-2.565
		c4.227,0.068,8.586,0.801,12.715-0.284c2.414-1.53,4.559-3.487,7.262-4.452c0.779-1.021,1.614-2.002,2.71-2.602
		c0.776-1.132,1.661-2.164,3.073-2.32c1.234-0.183,2.163-1.098,1.328-2.284c1.002-1.405-0.295-2.101-1.456-2.655
		c-0.791-0.866-3.338-1.044-2.527-2.529c0.687-0.852,2.501-1.59,0.992-2.806c-1.151-0.988-2.723-1.229-4.119-1.728
		c-0.793,0.979-2.252,2.162-3.388,1.051c-0.998-1.072,0.5-2.069,0.902-2.715c-1.018,0.765-2.423,1.375-3.444,0.234
		C132.23,64.881,131.458,64.796,130.744,65.131z M90.685,78c-1.069,0.657-2.374,2.344-0.479,0.993
		c0.587-0.691,2.212-2.589,0.585-1.081L90.685,78z M153.824,82.873c-0.929,1.541,1.069,1.75,1.523,0.212
		C156.744,81.722,154.325,82.91,153.824,82.873z M171.907,84.827c-0.562,1.765,0.216,3.578,0.565,5.309
		c1.659,1.411,0.84,0.388,0.104-0.893c-0.47-1.62,0.086-3.392-0.19-5.06C172.227,84.398,172.068,84.613,171.907,84.827z
		 M126.597,94.78c-0.555,1.002-1.592,3.227,0.451,2.9c0.951,0.073,3.022,0.034,2.965-1.121c-1.022-0.783-2.787-0.297-3.245-1.808
		L126.597,94.78z M89.891,97.345c-0.768,0.784-0.077,2.107-0.507,3.151c0.997-0.882,1.599-2.324,1.836-3.705
		C90.777,96.976,90.334,97.158,89.891,97.345z M166.829,100.059c1.049,0.204,2.909,0.646,2.297,2.146
		c-0.163,1.334-1.94,0.662-1.687,1.873c-0.613,1.382-2.119,0.01-3.035-0.284c1.002-1.12-0.264-2.075,0.195-3.148
		C165.205,100.013,166.057,100.203,166.829,100.059z M157.1,101.664c1.31,0.337,1.15,1.896,0.284,2.653
		c-0.452,1.328-2.89,1.088-2.428,2.743c0.187,1.46,0.102,3.745-1.713,3.934c-1.528,0.454-3.15-1.423-2.208-2.879
		c0.625-1.433,1.671-2.497,2.872-3.416c0.426-1.359,1.149-2.413,2.499-2.887C156.596,101.631,156.859,101.683,157.1,101.664z
		 M162.992,107.792c0.898,0.215,1.988,1.056,2.285,1.982c0.046,1.355-1.699,1.833-2.512,0.846c-0.882-0.822-0.681-1.908,0.055-2.741
		l0.057-0.087H162.992L162.992,107.792z M161.779,109.396c-0.117,1.395-0.613,2.701-1.805,3.471c-1.508-0.412-0.576-2.046,0.227-2.7
		C160.46,109.798,161.789,108.516,161.779,109.396z M131,110.683c-2.036-0.2-1.264,1.092-1.856,2.204
		c-0.908,1.71-2.838,2.101-4.433,2.791c-1.027,0.612-1.566,1.88-2.109,2.875c0.866,0.714,2.535-0.056,3.242-0.839
		c0.612-1.119,1.891-2.77,3.195-1.594c1.574,0.314,1.047,2.179-0.045,2.79c-1.284,0.622-1.75,1.984-2.177,3.261
		c-1.177,1.201,1.701,0.575,2.437,0.989c1.157,0.049,3.12,0.924,3.242-0.953c-0.143-2.65-0.778-5.289-0.954-7.901
		c0.845-1.214-0.207-2.567,0.292-3.76C132.211,110.13,131.05,110.736,131,110.683z M155.292,110.886
		c0.787,0.15,2.894,0.156,2.444,1.275c-1.381,1.289-0.819,0.984,0.123,2.176c0.774,1.117-0.643,3.092-1.776,2.004
		c-0.876-2.084-1.047,0.136-1.419,1.276c-0.6,1.156-0.964,3.115-2.586,2.939c-1.667-0.36-3.214,0.558-4.879,0.481
		c-0.956-0.566-3.06-1.455-1.834-2.83c1.365,0.15,1.977-0.985,2.964-1.627c1.74-0.6,1.001-3.224,2.595-4.064
		c1.206-0.952,2.499-1.594,4.042-1.59C155.072,110.947,155.181,110.88,155.292,110.886z M170.469,111.469
		c1.133,0.31,1.174,1.99,0.17,2.391c-1.123,0.249-2.168-1.098-1.199-1.979C169.611,111.454,170.111,111.548,170.469,111.469z
		 M187.877,131.484c1.961,1.379,4.004,2.745,5.867,4.232c1.176,2.809,2.585,5.57,3.624,8.403c0.421,1.771-1.636,2.341-2.945,2.375
		c-1.246-0.16-2.606-0.815-3.614-1.439c-0.09-1.457-0.673-3.167,0.368-4.407c-1.685-1.363-3.524-2.675-4.784-4.453
		c-0.526-1.407-1.252-3.355,0.07-4.507C186.938,131.627,187.404,131.524,187.877,131.484z M173.857,132.565
		c1.039,0.731,0.892,2.524-0.282,2.948c2.616,0.931,5.088,2.428,7.278,4.229c-0.024,1.491-1.103,2.503-2.445,2.789
		c-2.646,0.707-5.477-0.174-8.192-0.046c-1.997,0.48-4.05,1.37-6.093,1.313c0.747,1.251-0.932,2.188-1.893,1.401
		c-1.035-1.014,1.619-1.929,0.059-2.712c-0.821-1.694,0.643-3.251,1.061-4.848c0.928-1.54,1.334-4.22,3.565-4.052
		c0.969,0.793,1.896,1.604,2.708,2.567c0.898-0.477,3.449-0.176,1.704-1.234C170.214,133.271,172.572,132.326,173.857,132.565z
		 M143.5,134.607c2.01,2.149,3.704,4.846,6.328,6.271c2.12,1.326,1.367,4.342,2.656,6.27c0.659,1.524,1.178,3.232,2.583,4.208
		c0.751-0.717,1.059-1.967,2.308-1.878c0.005-1.031-1.83-1.341-2.253-2.411c-0.442-1.379,1.022-1.957,2.006-2.355
		c0.834-0.37,2.205-1.732,2.703-0.319c0.832,2.127,1.36,4.364,2.508,6.385c0.328,1.848,1.681-0.596,2.827,0.638
		c1.264,0.277,2.279-1.1,3.575-0.378c1.54,0.7,3.21-0.479,4.69-0.438c1.569,0.657,1.721,2.509,1.391,4.019
		c-0.209,2.314-0.823,4.718-1.897,6.689c-2.024,0.797-4.248-0.045-6.262,0.825c-2.979,0.835-6.017-0.364-8.856-1.176
		c-1.697-0.583-3.534-1.897-5.275-0.802c-1.484,0.466-0.542,3.117-2.347,3.106c-1.741,0.281-3.289-0.817-4.734-1.649
		c-2.553-2.385-6.123-3.191-8.667-5.527c-0.619-1.211,0.654-1.848,1.115-2.625c-0.429-0.991-0.274-2.266-0.53-3.072
		c-2.482-0.647-5.226-0.542-7.81-0.897c-3.003-0.115-5.998,0.002-8.969,0.497c-1.49-0.083-3.086-0.542-4.144-1.548
		c-0.592-1.629,1.159-2.923,2.595-2.48c2.236,0.454,4.47-0.851,5.409-2.958c1.239-2.604,4.668-2.732,5.843-5.385
		c1.402-1.604,3.578,0.327,5.271-0.643c1.292-0.201,3.199-1.198,3.978,0.381c0.669,1.506,1.154,3.11,2.557,4.097
		c1.656,1.687,4.061,3.03,4.45,5.617c0.165,0.837,0.344-2.046,0.121-2.775c1.811,0.554,1.29,0.045-0.089-1.047
		c-1.926-1.382-3.124-3.546-4.375-5.516c-0.397-1.233,0.138-2.524,1.124-3.267L143.5,134.607z M137.066,143.946
		C136.812,145.979,137.731,142.409,137.066,143.946z M143.018,149.168c-1.831-0.532,0.992,1.841,1.385,0.538
		C146.146,148.181,143.873,149.26,143.018,149.168z M256.408,161.189c0.427,1.311,0.479,2.658,0.391,4.028
		c-1.004-0.013-3.086-0.114-2.145,1.431c0.311,1.011,1.867,0.945,1.777,2.342c0.422,1.775,0.373-1.65,0.495-2.332
		c0.124-2.407,0.03-4.939-0.663-7.242c-0.678-1.297-1.67-3.036-0.683-0.596C255.857,159.611,256.13,160.4,256.408,161.189z
		 M56.317,163.438c0.819,7.233,1.998,14.449,4.2,21.383c1.989,6.598,4.622,13,7.818,19.063c-0.159-1.334-1.316-2.827-0.063-3.927
		c1.211-1.378,1.539-3.34,0.646-5.001c-1.626-4.492-4.357-8.458-6.353-12.785c-2.049-3.8-3.442-7.972-4.141-12.28
		c-0.811-4.123-1.706-8.232-2.444-12.375C56.097,159.491,56.207,161.462,56.317,163.438z M175.15,212.84
		c0.787,1.266,0.463,2.32-0.564,3.27c-0.997,0.852-2.54,2.046-3.668,0.699c-0.412-1.353,0.346-2.973,1.753-3.324
		C173.341,213.079,174.531,212.486,175.15,212.84z M167.109,222.32c1.004,0.222,2.74,0.703,2.127,2.115
		c-0.648,1.002-2.279-0.168-2.775-1.121C166.499,222.898,166.652,222.336,167.109,222.32z M199.247,227.486
		c-1.843,2.168-4.038,4.031-6.744,4.931c-1.56,1.646-0.674,4.295-2.255,5.925c-1.02,1.491-0.18,2.665,1.372,1.559
		c2.401-0.892,3.534-3.564,5.04-5.52c1.136-2.255,2.814-4.286,3.619-6.67C200.204,226.768,199.702,226.546,199.247,227.486z
		 M176.223,227.867c0.992,1.385,0.282,3.104,0,4.609c-1.16-0.707-1.957-1.582-1.662-3.063
		C174.458,228.234,175.329,227.475,176.223,227.867z"/>
</g>
<g id="g70">
	<g id="g72">
		<path id="path76" fill="#FFAA00" d="M309.188,188.092l-25.612,0.782l-2.831-0.013c-29.43,110.029-150.094,112.58-200.482,77.605
			c87.646,45.375,146.703-22.498,155.882-77.664l-30.567,0.655l-2.001-3.172l62.346-45.761l40.741,44.854l-10.521-0.505l10.995,1.01
			L309.188,188.092z"/>
		<path id="path78" fill="#FFAA00" d="M81.739,267.425c50.874,35.313,173.9,34.649,201.834-78.561l25.614-0.772l-40.746-44.863
			l-62.871,46.216c0,0,12.018-0.58,33.06-0.707C231.266,244.52,171.098,313.688,81.739,267.425z"/>
		<path id="path80" fill="#BF0000" d="M80.251,266.458c0,0,31.06,19.39,68.631,15.431c30.229-2.484,77.229-26.688,89.749-93.146
			l-33.059,0.702l62.867-46.216l2.221,2.443l-58.525,42.004h28.953c0,0-13.426,85.85-90.457,94.821
			C150.631,282.497,114.373,288.12,80.251,266.458z"/>
	</g>
	<g id="g82">
		<path id="path86" fill="#FFAA00" d="M1.039,118.223l26.192-0.778l2.902,0.007C60.238,7.426,183.645,4.877,235.191,39.856
			C145.543-5.521,85.143,62.36,75.746,117.521l31.265-0.655l2.054,3.175l-63.768,45.761l-41.674-44.86l10.766,0.501l-11.248-1.01
			L1.039,118.223z"/>
		<path id="path88" fill="#FFAA00" d="M233.68,38.887C181.637,3.577,55.805,4.24,27.231,117.447L1.04,118.225l41.67,44.86
			l64.302-46.22c0,0-12.281,0.584-33.807,0.704C80.734,61.795,142.277-7.376,233.68,38.887z"/>
		<path id="path90" fill="#C40000" d="M235.193,39.856c0,0-31.771-19.39-70.193-15.425c-30.932,2.479-78.995,26.682-91.794,93.144
			l33.808-0.705l-64.307,46.216l-2.264-2.447l59.863-42.002H70.689c0,0,13.732-85.846,92.513-94.823
			C163.208,23.813,200.292,18.194,235.193,39.856z"/>
	</g>
</g>
</svg>
