<?xml version="1.0" encoding="utf-8"?>
<!-- Generator: Adobe Illustrator 16.0.0, SVG Export Plug-In . SVG Version: 6.00 Build 0)  -->
<!DOCTYPE svg PUBLIC "-//W3C//DTD SVG 1.1//EN" "http://www.w3.org/Graphics/SVG/1.1/DTD/svg11.dtd">
<svg version="1.1" id="Слой_1" xmlns="http://www.w3.org/2000/svg" xmlns:xlink="http://www.w3.org/1999/xlink" x="0px" y="0px"
	 width="120px" height="120px" viewBox="0 0 120 120" enable-background="new 0 0 120 120" xml:space="preserve">
<g id="normal">
	
		<linearGradient id="SVGID_1_" gradientUnits="userSpaceOnUse" x1="108.793" y1="831.5635" x2="11.2896" y2="734.0601" gradientTransform="matrix(1 0 0 1 -0.04 -722.8105)">
		<stop  offset="0" style="stop-color:#BD4E02"/>
		<stop  offset="0" style="stop-color:#BD4E02"/>
		<stop  offset="0.0553" style="stop-color:#BD4E02"/>
		<stop  offset="0.161" style="stop-color:#BD4E02"/>
		<stop  offset="0.264" style="stop-color:#BD4E02"/>
		<stop  offset="0.5225" style="stop-color:#BD4E02"/>
		<stop  offset="0.5775" style="stop-color:#BD4E02"/>
		<stop  offset="0.6832" style="stop-color:#BD4E02"/>
		<stop  offset="0.8274" style="stop-color:#BD4E02"/>
		<stop  offset="0.8764" style="stop-color:#BD4E02"/>
		<stop  offset="1" style="stop-color:#BD4E02"/>
		<stop  offset="1" style="stop-color:#BD4E02"/>
	</linearGradient>
	<path fill="url(#SVGID_1_)" d="M103.251,42.168v-8.462c0-16.432-1.126-17.432-17.433-17.432H74.592V6.5h22.697
		c8.953,0,16.211,7.259,16.211,16.212v19.456h-11.249H103.251z M16.752,33.706v8.462H6.5V22.713c0-8.953,7.259-16.212,16.212-16.212
		H45.41v9.773H34.186C17.875,16.274,16.752,17.625,16.752,33.706L16.752,33.706z M16.752,74.592v11.701
		c0,16.432,0.748,17.432,17.432,17.432H45.41v9.773H22.712c-8.953,0-16.212-7.256-16.212-16.212V74.592h11.252H16.752z
		 M103.251,86.295V74.592H113.5v22.696c0,8.956-7.256,16.212-16.211,16.212H74.592v-8.773h11.225
		C102.25,104.727,103.251,103.75,103.251,86.295L103.251,86.295z"/>
	<linearGradient id="SVGID_2_" gradientUnits="userSpaceOnUse" x1="60.3325" y1="7.167" x2="60.3325" y2="114.1675">
		<stop  offset="0" style="stop-color:#BD4E02"/>
		<stop  offset="0.3391" style="stop-color:#943D01"/>
		<stop  offset="0.996" style="stop-color:#3B1800"/>
	</linearGradient>
	<path fill="url(#SVGID_2_)" d="M102.104,58.641c-1.049-21.329-18.319-38.383-39.733-39.104V7.167h-4.115v12.434
		c-20.81,1.351-37.409,18.143-38.437,39.04H6.833v4.115h12.984c1.029,20.896,17.628,37.688,38.437,39.038v12.373h4.115v-12.31
		c21.413-0.722,38.686-17.773,39.732-39.103h11.73V58.64L102.104,58.641L102.104,58.641z M62.369,92.676v-13.24
		c-0.471,0.033-0.938,0.069-1.415,0.069c-0.919,0-1.816-0.088-2.7-0.216v13.3c-15.735-1.315-28.23-14.011-29.234-29.833h13.248
		c-0.073-0.676-0.117-1.359-0.117-2.055c0-0.697,0.044-1.383,0.118-2.06h-13.25c1.005-15.822,13.499-28.516,29.234-29.833v13.305
		c0.884-0.128,1.781-0.216,2.7-0.216c0.479,0,0.945,0.036,1.415,0.071V28.723c16.339,0.71,29.493,13.666,30.524,29.919H79.641
		c0.073,0.677,0.117,1.363,0.117,2.06c0,0.694-0.044,1.38-0.115,2.055h13.254C91.861,79.01,78.708,91.966,62.369,92.676z"/>
	<linearGradient id="SVGID_3_" gradientUnits="userSpaceOnUse" x1="60.3325" y1="8.167" x2="60.3325" y2="113.1675">
		<stop  offset="0" style="stop-color:#FF6C03"/>
		<stop  offset="1" style="stop-color:#753100"/>
	</linearGradient>
	<path fill="url(#SVGID_3_)" d="M59.254,113.167v-12.311l-0.935-0.061C37.943,99.474,21.82,83.099,20.816,62.707l-0.047-0.951H7.833
		v-2.115H20.77l0.047-0.951C21.82,38.297,37.943,21.922,58.32,20.599l0.935-0.061V8.167h2.115v12.337l0.967,0.033
		c20.721,0.697,37.75,17.457,38.768,38.154l0.047,0.951l11.681-0.001v2.115h-11.683l-0.047,0.951
		c-1.016,20.695-18.044,37.453-38.768,38.152l-0.966,0.032v12.276H59.254z M61.369,93.72l1.043-0.045
		c16.874-0.733,30.409-13.998,31.482-30.854l0.067-1.063H80.728c0.021-0.36,0.03-0.711,0.03-1.055c0-0.348-0.01-0.699-0.03-1.06
		h13.23l-0.067-1.063c-1.069-16.856-14.603-30.121-31.479-30.854l-1.043-0.045v13.226c-0.139-0.005-0.276-0.008-0.415-0.008
		c-0.544,0-1.101,0.028-1.7,0.086V27.721l-1.083,0.091c-16.159,1.353-29.12,14.579-30.148,30.766l-0.067,1.063h13.228
		c-0.021,0.359-0.031,0.711-0.031,1.06c0,0.346,0.01,0.695,0.03,1.055H27.955l0.067,1.063C29.049,79.008,42.01,92.234,58.17,93.585
		l1.083,0.091V80.419c0.6,0.058,1.156,0.086,1.7,0.086c0.139,0,0.277-0.003,0.415-0.008V93.72z"/>
	<linearGradient id="SVGID_4_" gradientUnits="userSpaceOnUse" x1="60.96" y1="21.4727" x2="60.96" y2="99.9253">
		<stop  offset="0" style="stop-color:#FF8F03"/>
		<stop  offset="1" style="stop-color:#B52E00"/>
	</linearGradient>
	<path fill="url(#SVGID_4_)" d="M58.383,99.798c-19.868-1.289-35.589-17.256-36.569-37.141l-0.094-1.9l0.095-2.017
		c0.979-19.885,16.7-35.853,36.569-37.143l1.904-0.124l2.015,0.063c20.205,0.68,36.81,17.021,37.802,37.203l0.094,1.889
		l-0.096,2.029c-0.99,20.179-17.595,36.521-37.802,37.201l-1.964,0.066L58.383,99.798z M27.024,62.882
		c1.059,16.681,14.413,30.309,31.063,31.7l2.213,0.185l2.155-0.093c17.386-0.755,31.331-14.422,32.438-31.79l0.137-2.156
		l-0.141-2.212C93.786,41.147,79.843,27.48,62.455,26.725l-2.168-0.094l-2.201,0.184c-16.649,1.394-30.003,15.021-31.063,31.699
		l-0.138,2.177L27.024,62.882z"/>
</g>
<g id="active_1_">
	
		<linearGradient id="SVGID_5_" gradientUnits="userSpaceOnUse" x1="108.793" y1="831.5635" x2="11.2896" y2="734.0601" gradientTransform="matrix(1 0 0 1 -0.04 -722.8105)">
		<stop  offset="0" style="stop-color:#BD4E02"/>
		<stop  offset="0" style="stop-color:#BD4E02"/>
		<stop  offset="0.0553" style="stop-color:#BD4E02"/>
		<stop  offset="0.161" style="stop-color:#BD4E02"/>
		<stop  offset="0.264" style="stop-color:#BD4E02"/>
		<stop  offset="0.5225" style="stop-color:#BD4E02"/>
		<stop  offset="0.5775" style="stop-color:#BD4E02"/>
		<stop  offset="0.6832" style="stop-color:#BD4E02/>
		<stop  offset="0.8274" style="stop-color:#BD4E02"/>
		<stop  offset="0.8764" style="stop-color:#BD4E02"/>
		<stop  offset="1" style="stop-color:#BD4E02"/>
		<stop  offset="1" style="stop-color:#BD4E02"/>
	</linearGradient>
	<path fill="url(#SVGID_5_)" d="M103.251,42.168v-8.462c0-16.432-1.126-17.432-17.433-17.432H74.592V6.5h22.697
		c8.953,0,16.211,7.259,16.211,16.212v19.456h-11.249H103.251z M16.752,33.706v8.462H6.5V22.713c0-8.953,7.259-16.212,16.212-16.212
		H45.41v9.773H34.186C17.875,16.274,16.752,17.625,16.752,33.706L16.752,33.706z M16.752,74.592v11.701
		c0,16.432,0.748,17.432,17.432,17.432H45.41v9.773H22.712c-8.953,0-16.212-7.256-16.212-16.212V74.592h11.252H16.752z
		 M103.251,86.295V74.592H113.5v22.696c0,8.956-7.256,16.212-16.211,16.212H74.592v-8.773h11.225
		C102.25,104.727,103.251,103.75,103.251,86.295L103.251,86.295z"/>
	<linearGradient id="SVGID_6_" gradientUnits="userSpaceOnUse" x1="60.3325" y1="7.167" x2="60.3325" y2="114.1675">
		<stop  offset="0" style="stop-color:#BD4E02"/>
		<stop  offset="0.3391" style="stop-color:#943D01"/>
		<stop  offset="0.996" style="stop-color:#3B1800"/>
	</linearGradient>
	<path fill="url(#SVGID_6_)" d="M102.104,58.641c-1.049-21.329-18.319-38.383-39.733-39.104V7.167h-4.115v12.434
		c-20.81,1.351-37.409,18.143-38.437,39.04H6.833v4.115h12.984c1.029,20.896,17.628,37.688,38.437,39.038v12.373h4.115v-12.31
		c21.413-0.722,38.686-17.773,39.732-39.103h11.73V58.64L102.104,58.641L102.104,58.641z M62.369,92.676v-13.24
		c-0.471,0.033-0.938,0.069-1.415,0.069c-0.919,0-1.816-0.088-2.7-0.216v13.3c-15.735-1.315-28.23-14.011-29.234-29.833h13.248
		c-0.073-0.676-0.117-1.359-0.117-2.055c0-0.697,0.044-1.383,0.118-2.06h-13.25c1.005-15.822,13.499-28.516,29.234-29.833v13.305
		c0.884-0.128,1.781-0.216,2.7-0.216c0.479,0,0.945,0.036,1.415,0.071V28.723c16.339,0.71,29.493,13.666,30.524,29.919H79.641
		c0.073,0.677,0.117,1.363,0.117,2.06c0,0.694-0.044,1.38-0.115,2.055h13.254C91.861,79.01,78.708,91.966,62.369,92.676z"/>
	<linearGradient id="SVGID_7_" gradientUnits="userSpaceOnUse" x1="60.3325" y1="8.167" x2="60.3325" y2="113.1675">
		<stop  offset="0" style="stop-color:#FF6C03"/>
		<stop  offset="1" style="stop-color:#753100"/>
	</linearGradient>
	<path fill="url(#SVGID_7_)" d="M59.254,113.167v-12.311l-0.935-0.061C37.943,99.474,21.82,83.099,20.816,62.707l-0.047-0.951H7.833
		v-2.115H20.77l0.047-0.951C21.82,38.297,37.943,21.922,58.32,20.599l0.935-0.061V8.167h2.115v12.337l0.967,0.033
		c20.721,0.697,37.75,17.457,38.768,38.154l0.047,0.951l11.681-0.001v2.115h-11.683l-0.047,0.951
		c-1.016,20.695-18.044,37.453-38.768,38.152l-0.966,0.032v12.276H59.254z M61.369,93.72l1.043-0.045
		c16.874-0.733,30.409-13.998,31.482-30.854l0.067-1.063H80.728c0.021-0.36,0.03-0.711,0.03-1.055c0-0.348-0.01-0.699-0.03-1.06
		h13.23l-0.067-1.063c-1.069-16.856-14.603-30.121-31.479-30.854l-1.043-0.045v13.226c-0.139-0.005-0.276-0.008-0.415-0.008
		c-0.544,0-1.101,0.028-1.7,0.086V27.721l-1.083,0.091c-16.159,1.353-29.12,14.579-30.148,30.766l-0.067,1.063h13.228
		c-0.021,0.359-0.031,0.711-0.031,1.06c0,0.346,0.01,0.695,0.03,1.055H27.955l0.067,1.063C29.049,79.008,42.01,92.234,58.17,93.585
		l1.083,0.091V80.419c0.6,0.058,1.156,0.086,1.7,0.086c0.139,0,0.277-0.003,0.415-0.008V93.72z"/>
	<linearGradient id="SVGID_8_" gradientUnits="userSpaceOnUse" x1="60.96" y1="21.4727" x2="60.96" y2="99.9253">
		<stop  offset="0" style="stop-color:#FF8F03"/>
		<stop  offset="1" style="stop-color:#B52E00"/>
	</linearGradient>
	<path fill="url(#SVGID_8_)" d="M58.383,99.798c-19.868-1.289-35.589-17.256-36.569-37.141l-0.094-1.9l0.095-2.017
		c0.979-19.885,16.7-35.853,36.569-37.143l1.904-0.124l2.015,0.063c20.205,0.68,36.81,17.021,37.802,37.203l0.094,1.889
		l-0.096,2.029c-0.99,20.179-17.595,36.521-37.802,37.201l-1.964,0.066L58.383,99.798z M27.024,62.882
		c1.059,16.681,14.413,30.309,31.063,31.7l2.213,0.185l2.155-0.093c17.386-0.755,31.331-14.422,32.438-31.79l0.137-2.156
		l-0.141-2.212C93.786,41.147,79.843,27.48,62.455,26.725l-2.168-0.094l-2.201,0.184c-16.649,1.394-30.003,15.021-31.063,31.699
		l-0.138,2.177L27.024,62.882z"/>
</g>
<g id="disabled_1_" opacity="0.2">
	<path fill="#999999" d="M103.251,42.168v-8.462c0-16.432-1.126-17.432-17.433-17.432H74.592V6.5h22.697
		c8.953,0,16.211,7.259,16.211,16.212v19.456h-11.249H103.251z M16.752,33.706v8.462H6.5V22.713c0-8.953,7.259-16.212,16.212-16.212
		H45.41v9.773H34.186C17.875,16.274,16.752,17.625,16.752,33.706L16.752,33.706z M16.752,74.592v11.701
		c0,16.432,0.748,17.432,17.432,17.432H45.41v9.773H22.712c-8.953,0-16.212-7.256-16.212-16.212V74.592h11.252H16.752z
		 M103.251,86.295V74.592H113.5v22.696c0,8.956-7.256,16.212-16.211,16.212H74.592v-8.773h11.225
		C102.25,104.727,103.251,103.75,103.251,86.295L103.251,86.295z"/>
	<path fill="#999999" d="M102.104,58.641c-1.049-21.329-18.319-38.383-39.733-39.104V7.167h-4.115v12.434
		c-20.81,1.351-37.409,18.143-38.437,39.04H6.833v4.115h12.984c1.029,20.896,17.628,37.688,38.437,39.038v12.373h4.115v-12.31
		c21.413-0.722,38.686-17.773,39.732-39.103h11.73V58.64L102.104,58.641L102.104,58.641z M62.369,92.676v-13.24
		c-0.471,0.033-0.938,0.069-1.415,0.069c-0.919,0-1.816-0.088-2.7-0.216v13.3c-15.735-1.315-28.23-14.011-29.234-29.833h13.248
		c-0.073-0.676-0.117-1.359-0.117-2.055c0-0.697,0.044-1.383,0.118-2.06h-13.25c1.005-15.822,13.499-28.516,29.234-29.833v13.305
		c0.884-0.128,1.781-0.216,2.7-0.216c0.479,0,0.945,0.036,1.415,0.071V28.723c16.339,0.71,29.493,13.666,30.524,29.919H79.641
		c0.073,0.677,0.117,1.363,0.117,2.06c0,0.694-0.044,1.38-0.115,2.055h13.254C91.861,79.01,78.708,91.966,62.369,92.676z"/>
	<path fill="#999999" d="M59.254,113.167v-12.311l-0.935-0.061C37.943,99.474,21.82,83.099,20.816,62.707l-0.047-0.951H7.833v-2.115
		H20.77l0.047-0.951C21.82,38.297,37.943,21.922,58.32,20.599l0.935-0.061V8.167h2.115v12.337l0.967,0.033
		c20.721,0.697,37.75,17.457,38.768,38.154l0.047,0.951l11.681-0.001v2.115h-11.683l-0.047,0.951
		c-1.016,20.695-18.044,37.453-38.768,38.152l-0.966,0.032v12.276H59.254z M61.369,93.72l1.043-0.045
		c16.874-0.733,30.409-13.998,31.482-30.854l0.067-1.063H80.728c0.021-0.36,0.03-0.711,0.03-1.055c0-0.348-0.01-0.699-0.03-1.06
		h13.23l-0.067-1.063c-1.069-16.856-14.603-30.121-31.479-30.854l-1.043-0.045v13.226c-0.139-0.005-0.276-0.008-0.415-0.008
		c-0.544,0-1.101,0.028-1.7,0.086V27.721l-1.083,0.091c-16.159,1.353-29.12,14.579-30.148,30.766l-0.067,1.063h13.228
		c-0.021,0.359-0.031,0.711-0.031,1.06c0,0.346,0.01,0.695,0.03,1.055H27.955l0.067,1.063C29.049,79.008,42.01,92.234,58.17,93.585
		l1.083,0.091V80.419c0.6,0.058,1.156,0.086,1.7,0.086c0.139,0,0.277-0.003,0.415-0.008V93.72z"/>
	<path fill="#999999" d="M58.383,99.798c-19.868-1.289-35.589-17.256-36.569-37.141l-0.094-1.9l0.095-2.017
		c0.979-19.885,16.7-35.853,36.569-37.143l1.904-0.124l2.015,0.063c20.205,0.68,36.81,17.021,37.802,37.203l0.094,1.889
		l-0.096,2.029c-0.99,20.179-17.595,36.521-37.802,37.201l-1.964,0.066L58.383,99.798z M27.024,62.882
		c1.059,16.681,14.413,30.309,31.063,31.7l2.213,0.185l2.155-0.093c17.386-0.755,31.331-14.422,32.438-31.79l0.137-2.156
		l-0.141-2.212C93.786,41.147,79.843,27.48,62.455,26.725l-2.168-0.094l-2.201,0.184c-16.649,1.394-30.003,15.021-31.063,31.699
		l-0.138,2.177L27.024,62.882z"/>
</g>
</svg>
