<?xml version="1.0" encoding="utf-8"?>
<!-- Generator: Adobe Illustrator 15.0.0, SVG Export Plug-In . SVG Version: 6.00 Build 0)  -->
<!DOCTYPE svg PUBLIC "-//W3C//DTD SVG 1.1//EN" "http://www.w3.org/Graphics/SVG/1.1/DTD/svg11.dtd">
<svg version="1.1"
	 id="svg3060" xmlns:svg="http://www.w3.org/2000/svg" xmlns:sodipodi="http://sodipodi.sourceforge.net/DTD/sodipodi-0.dtd" xmlns:dc="http://purl.org/dc/elements/1.1/" xmlns:cc="http://creativecommons.org/ns#" xmlns:inkscape="http://www.inkscape.org/namespaces/inkscape" xmlns:rdf="http://www.w3.org/1999/02/22-rdf-syntax-ns#" inkscape:version="0.48.5 r10040" sodipodi:docname="ico_vehicle_bicycle.svg"
	 xmlns="http://www.w3.org/2000/svg" xmlns:xlink="http://www.w3.org/1999/xlink" x="0px" y="0px" width="612px" height="606px"
	 viewBox="0 86.5 612 606" enable-background="new 0 86.5 612 606" xml:space="preserve">
<g id="normal">
	<path id="path" fill="#009600" d="M441.97,360.63l-86.41-96.9c-0.119-0.09-0.25-0.13-0.369-0.21c-2.7-4.28-6.301-8.12-10.83-11.18
		c-17.53-11.89-41.62-7.85-53.811,9l-88.31,122.05c-12.2,16.84-7.87,40.14,9.66,52.02c4.55,3.09,9.56,5.05,14.68,6.04
		c1.75,2.59,4,4.92,6.78,6.8l56.8,38.5l-29.98,80.12c-4.82,12.899,2.12,27.2,15.5,31.939c13.39,4.74,28.17-1.869,32.99-14.77
		l30.6-81.76c0.841-2.271,1.211-4.57,1.36-6.86c0.93-0.93,1.86-1.88,2.65-2.979c8.13-11.23,5.239-26.761-6.44-34.671L273.9,415.1
		l69.42-95.97l71.71,80.41c10.6,7.51,25.22,4.88,32.66-5.87C455.13,382.93,452.57,368.14,441.97,360.63z M388.2,150.94
		c-24.95-2.18-46.88,15.5-48.99,39.48c-2.1,23.99,16.44,45.21,41.39,47.39c24.96,2.19,46.891-15.49,48.99-39.48
		C431.69,174.34,413.16,153.12,388.2,150.94z"/>
	<path fill="#FF8F00" d="M478.92,440.97c-55.2,0-99.939,44.83-99.939,100.141c0,55.3,44.739,100.13,99.939,100.13
		c55.19,0,99.93-44.83,99.93-100.13C578.85,485.8,534.11,440.97,478.92,440.97z M478.92,612.69c-39.43,0-71.39-32.04-71.39-71.58
		c0-39.53,31.96-71.58,71.39-71.58c39.42,0,71.38,32.05,71.39,71.58C550.31,580.65,518.34,612.69,478.92,612.69z"/>
	<path fill="#FF9100" d="M133.09,440.97c-55.2,0-99.94,44.83-99.94,100.141c0,55.3,44.74,100.13,99.94,100.13
		c55.19,0,99.93-44.83,99.93-100.13C233.02,485.8,188.28,440.97,133.09,440.97z M133.09,612.69c-39.43,0-71.39-32.04-71.39-71.58
		c0-39.53,31.97-71.58,71.39-71.58s71.38,32.05,71.39,71.58C204.48,580.65,172.51,612.69,133.09,612.69z"/>
	
		<radialGradient id="path3068_2_" cx="60.4019" cy="732.5977" r="50.8655" gradientTransform="matrix(5.1 0 0 -40.8 -2.0523 30285.9883)" gradientUnits="userSpaceOnUse">
		<stop  offset="0" style="stop-color:#F2F2F2;stop-opacity:0"/>
		<stop  offset="0.2" style="stop-color:#EBEBEB;stop-opacity:0.25"/>
		<stop  offset="0.4424" style="stop-color:#B9B9B9;stop-opacity:0.5"/>
		<stop  offset="0.697" style="stop-color:#8F8F8F;stop-opacity:0.66"/>
		<stop  offset="0.897" style="stop-color:#878787;stop-opacity:0.85"/>
	</radialGradient>
	<path id="path3068_1_" fill="url(#path3068_2_)" d="M478.915,641.244c-55.197,0-99.939-44.835-99.939-100.134
		c0-55.31,44.742-100.144,99.939-100.144c55.198,0,99.935,44.834,99.935,100.144C578.85,596.409,534.107,641.244,478.915,641.244
		L478.915,641.244z M478.915,469.526c-39.423,0-71.39,32.049-71.39,71.584s31.962,71.584,71.39,71.584
		c39.429,0,71.391-32.049,71.391-71.584C550.3,501.575,518.339,469.526,478.915,469.526L478.915,469.526z M415.027,399.539
		l-71.705-80.406L273.896,415.1l62.949,42.666c11.679,7.916,14.565,23.44,6.437,34.676c-0.796,1.096-1.719,2.045-2.652,2.978
		c-0.153,2.296-0.515,4.596-1.361,6.865l-30.595,81.758c-4.825,12.898-19.6,19.513-32.992,14.77
		c-13.382-4.743-20.324-19.043-15.499-31.946l29.978-80.11l-56.804-38.5c-2.779-1.882-5.023-4.218-6.778-6.804
		c-5.115-0.994-10.124-2.953-14.683-6.043c-17.529-11.878-21.859-35.175-9.66-52.021l88.312-122.048
		c12.194-16.851,36.287-20.89,53.811-9.002c4.528,3.065,8.129,6.906,10.832,11.185c0.117,0.076,0.25,0.122,0.367,0.204l86.409,96.9
		c10.604,7.512,13.163,22.307,5.728,33.048C440.247,404.425,425.626,407.047,415.027,399.539L415.027,399.539z M380.603,237.808
		c-24.954-2.183-43.492-23.399-41.392-47.384c2.106-23.985,24.036-41.667,48.991-39.484c24.954,2.183,43.492,23.404,41.392,47.394
		C427.487,222.319,405.557,239.996,380.603,237.808L380.603,237.808z M233.024,541.11c0,55.299-44.742,100.134-99.934,100.134
		c-55.198,0-99.94-44.835-99.94-100.134c0-55.31,44.737-100.144,99.94-100.144C188.282,440.967,233.024,485.801,233.024,541.11
		L233.024,541.11z M133.09,469.526c-39.423,0-71.39,32.049-71.39,71.584s31.962,71.584,71.39,71.584
		c39.423,0,71.39-32.049,71.39-71.584C204.474,501.575,172.513,469.526,133.09,469.526L133.09,469.526z"/>
</g>
</svg>
