<?xml version="1.0" encoding="utf-8"?>
<!-- Generator: Adobe Illustrator 19.2.1, SVG Export Plug-In . SVG Version: 6.00 Build 0)  -->
<svg version="1.1" id="Слой_1" xmlns="http://www.w3.org/2000/svg" xmlns:xlink="http://www.w3.org/1999/xlink" x="0px" y="0px"
	 viewBox="0 0 120 120" enable-background="new 0 0 120 120" xml:space="preserve">
<g id="Layer_4" display="none">
	<circle display="inline" opacity="0.5" fill="#DF1F26" enable-background="new    " cx="60" cy="60" r="60"/>
	<rect x="6.5" y="6.5" display="inline" opacity="0.5" fill="#3B4FA1" enable-background="new    " width="107" height="107"/>
</g>
<g id="normal">
	
		<radialGradient id="SVGID_1_" cx="60.0005" cy="44.5007" r="43.0624" gradientTransform="matrix(1 0 0 -8 0 431.5048)" gradientUnits="userSpaceOnUse">
		<stop  offset="0" style="stop-color:#F2F2F2"/>
		<stop  offset="0.2338" style="stop-color:#EFEFEF"/>
		<stop  offset="0.4205" style="stop-color:#E5E5E5"/>
		<stop  offset="0.5911" style="stop-color:#D4D4D4"/>
		<stop  offset="0.7519" style="stop-color:#BDBDBD"/>
		<stop  offset="0.9045" style="stop-color:#9E9E9E"/>
		<stop  offset="1" style="stop-color:#878787"/>
	</radialGradient>
	<path fill="url(#SVGID_1_)" d="M102.797,101.434v6.397c0,5.688-3.192,5.708-7.131,5.708c-3.941,0-7.133,0.457-7.133-5.708v-6.181
		H31.468v6.181c0,5.688-3.192,5.708-7.133,5.708c-3.939,0-7.131,0.457-7.131-5.708v-6.397c-3.888-1.077-4.755-6.186-4.755-10.797
		v-7.758c0-3.934,0.632-8.234,3.229-10.082c-0.037-0.277-0.059-0.584-0.059-0.93l12.68-25.029c0-5.183,7.428-9.386,12.68-9.386
		h38.043c5.252,0,12.68,4.202,12.68,9.386l12.68,25.029c0,0.346-0.022,0.653-0.059,0.93c2.597,1.847,3.229,6.147,3.229,10.082v7.758
		C107.552,95.249,106.685,100.357,102.797,101.434L102.797,101.434z M21.957,86.195c0,4.597,3.726,8.323,8.323,8.323
		c4.595,0,8.321-3.726,8.321-8.323c0-4.595-3.726-8.321-8.321-8.321C25.683,77.874,21.957,81.6,21.957,86.195L21.957,86.195z
		 M79.021,43.711H40.979c-8.457,0-15.85,26.369-15.85,26.369h69.743C94.872,70.08,87.479,43.711,79.021,43.711L79.021,43.711z
		 M87.342,77.874c-4.595,0-8.321,3.726-8.321,8.321c0,4.597,3.726,8.323,8.321,8.323c4.597,0,8.323-3.726,8.323-8.323
		C95.665,81.6,91.939,77.874,87.342,77.874L87.342,77.874z"/>
</g>
<g id="active">
	
		<radialGradient id="SVGID_2_" cx="60.0005" cy="75.4993" r="43.0624" gradientTransform="matrix(1 0 0 6 0 -377.4966)" gradientUnits="userSpaceOnUse">
		<stop  offset="0" style="stop-color:#F0F0F0"/>
		<stop  offset="0.144" style="stop-color:#EBEBEB"/>
		<stop  offset="0.3079" style="stop-color:#DDDDDD"/>
		<stop  offset="0.4816" style="stop-color:#C6C6C6"/>
		<stop  offset="0.662" style="stop-color:#A7A7A7"/>
		<stop  offset="0.8458" style="stop-color:#7E7E7E"/>
		<stop  offset="1" style="stop-color:#565656"/>
	</radialGradient>
	<path fill="url(#SVGID_2_)" d="M102.797,101.434v6.397c0,5.688-3.192,5.708-7.131,5.708c-3.941,0-7.133,0.457-7.133-5.708v-6.181
		H31.468v6.181c0,5.688-3.192,5.708-7.133,5.708c-3.939,0-7.131,0.457-7.131-5.708v-6.397c-3.888-1.077-4.755-6.186-4.755-10.797
		v-7.758c0-3.934,0.632-8.234,3.229-10.082c-0.037-0.277-0.059-0.584-0.059-0.93l12.68-25.029c0-5.183,7.428-9.386,12.68-9.386
		h38.043c5.252,0,12.68,4.202,12.68,9.386l12.68,25.029c0,0.346-0.022,0.653-0.059,0.93c2.597,1.847,3.229,6.147,3.229,10.082v7.758
		C107.552,95.249,106.685,100.357,102.797,101.434L102.797,101.434z M21.957,86.195c0,4.597,3.726,8.323,8.323,8.323
		c4.595,0,8.321-3.726,8.321-8.323c0-4.595-3.726-8.321-8.321-8.321C25.683,77.874,21.957,81.6,21.957,86.195L21.957,86.195z
		 M79.021,43.711H40.979c-8.457,0-15.85,26.369-15.85,26.369h69.743C94.872,70.08,87.479,43.711,79.021,43.711L79.021,43.711z
		 M87.342,77.874c-4.595,0-8.321,3.726-8.321,8.321c0,4.597,3.726,8.323,8.321,8.323c4.597,0,8.323-3.726,8.323-8.323
		C95.665,81.6,91.939,77.874,87.342,77.874L87.342,77.874z"/>
</g>
<g id="disabled" opacity="0.2">
	<path fill="#03F1FD" d="M102.797,101.434v6.397c0,5.688-3.192,5.708-7.131,5.708c-3.941,0-7.133,0.457-7.133-5.708v-6.181H31.468
		v6.181c0,5.688-3.192,5.708-7.133,5.708c-3.939,0-7.131,0.457-7.131-5.708v-6.397c-3.888-1.077-4.755-6.186-4.755-10.797v-7.758
		c0-3.934,0.632-8.234,3.229-10.082c-0.037-0.277-0.059-0.584-0.059-0.93l12.68-25.029c0-5.183,7.428-9.386,12.68-9.386h38.043
		c5.252,0,12.68,4.202,12.68,9.386l12.68,25.029c0,0.346-0.022,0.653-0.059,0.93c2.597,1.847,3.229,6.147,3.229,10.082v7.758
		C107.552,95.249,106.685,100.357,102.797,101.434L102.797,101.434z M21.957,86.195c0,4.597,3.726,8.323,8.323,8.323
		c4.595,0,8.321-3.726,8.321-8.323c0-4.595-3.726-8.321-8.321-8.321C25.683,77.874,21.957,81.6,21.957,86.195L21.957,86.195z
		 M79.021,43.711H40.979c-8.457,0-15.85,26.369-15.85,26.369h69.743C94.872,70.08,87.479,43.711,79.021,43.711L79.021,43.711z
		 M87.342,77.874c-4.595,0-8.321,3.726-8.321,8.321c0,4.597,3.726,8.323,8.321,8.323c4.597,0,8.323-3.726,8.323-8.323
		C95.665,81.6,91.939,77.874,87.342,77.874L87.342,77.874z"/>
</g>
</svg>
