<?xml version="1.0" encoding="utf-8"?>
<!-- Generator: Adobe Illustrator 16.0.0, SVG Export Plug-In . SVG Version: 6.00 Build 0)  -->
<!DOCTYPE svg PUBLIC "-//W3C//DTD SVG 1.1//EN" "http://www.w3.org/Graphics/SVG/1.1/DTD/svg11.dtd">
<svg version="1.1" id="Calque_1" xmlns="http://www.w3.org/2000/svg" xmlns:xlink="http://www.w3.org/1999/xlink" x="0px" y="0px"
	 width="114px" height="114px" viewBox="0 0 114 114" enable-background="new 0 0 114 114" xml:space="preserve">
<linearGradient id="star_1_" gradientUnits="userSpaceOnUse" x1="-917.7866" y1="677.9512" x2="-919.2149" y2="670.8094" gradientTransform="matrix(12.75 -2.55 -2.55 -12.75 13483.0254 6308.2441)">
	<stop  offset="0" style="stop-color:#FEDF34"/>
	<stop  offset="0.1758" style="stop-color:#FECD26"/>
	<stop  offset="0.4969" style="stop-color:#FFB211"/>
	<stop  offset="0.782" style="stop-color:#FFA204"/>
	<stop  offset="1" style="stop-color:#FF9C00"/>
</linearGradient>
<path id="star" fill="url(#star_1_)" stroke="#C4A000" stroke-width="0.186" d="M83.173,99.413L52.427,83.208L21.645,99.344
	l5.914-34.242L2.697,40.816l34.4-4.958L52.515,4.713l15.348,31.179l34.389,5.035L77.335,65.155L83.173,99.413L83.173,99.413z"/>
<path id="ol" opacity="0.69" fill="none" stroke="#FFFFFF" stroke-width="0.186" enable-background="new    " d="M80.077,95.073
	L52.42,80.495L24.765,94.989l5.279-30.765L7.852,42.521l30.742-4.425L52.5,10.003l13.851,28.112l30.741,4.51L74.845,64.288
	L80.077,95.073L80.077,95.073z"/>
<linearGradient id="hl_1_" gradientUnits="userSpaceOnUse" x1="-899.4771" y1="682.5654" x2="-897.6868" y2="677.2535" gradientTransform="matrix(12.75 0 0 -12.75 11510.625 8714.1797)">
	<stop  offset="0" style="stop-color:#FCF9FB"/>
	<stop  offset="1" style="stop-color:#FCF9FB;stop-opacity:0"/>
</linearGradient>
<path id="hl" opacity="0.8" fill="url(#hl_1_)" enable-background="new    " d="M37.844,36.986l14.66-29.633l14.6,29.643
	l32.576,4.776l-8.381,8.158c-38.058-8.954-21.892,17.531-63.827,22.443l1.315-7.725L5.266,41.667L37.844,36.986L37.844,36.986z"/>
<linearGradient id="path5170_1_" gradientUnits="userSpaceOnUse" x1="68.2051" y1="-724.8228" x2="68.2051" y2="-671.5327" gradientTransform="matrix(1 0 0 -1 16.6597 -613.8252)">
	<stop  offset="0" style="stop-color:#FFFFFF"/>
	<stop  offset="0.1517" style="stop-color:#939393"/>
	<stop  offset="0.4438" style="stop-color:#FFFFFF"/>
	<stop  offset="0.736" style="stop-color:#D6D6D6"/>
	<stop  offset="1" style="stop-color:#FFFFFF"/>
</linearGradient>
<path id="path5170" fill="url(#path5170_1_)" stroke="#000000" stroke-width="0.25" stroke-miterlimit="10" d="M111.346,84.352
	c0.09,14.625-11.693,26.556-26.318,26.646c-14.627,0.09-26.557-11.692-26.646-26.319c0-0.107,0-0.217,0-0.324
	c-0.09-14.625,11.692-26.556,26.317-26.646s26.557,11.692,26.646,26.317C111.346,84.133,111.346,84.241,111.346,84.352z"/>
<path id="path5172" fill="#007F00" stroke="#FFFFFF" stroke-width="0.722" d="M109.04,84.35c0,13.354-10.826,24.178-24.181,24.178
	c-13.355,0-24.178-10.825-24.178-24.178l0,0c0-13.354,10.824-24.182,24.18-24.182C98.215,60.168,109.04,70.994,109.04,84.35z"/>
<linearGradient id="path5174_1_" gradientUnits="userSpaceOnUse" x1="-962.2598" y1="61.1309" x2="-961.8729" y2="61.7122" gradientTransform="matrix(43.0766 0 0 40.647 41517.4414 -2426.1707)">
	<stop  offset="0" style="stop-color:#FFFFFF"/>
	<stop  offset="1" style="stop-color:#FFFFFF;stop-opacity:0"/>
</linearGradient>
<path id="path5174" fill="url(#path5174_1_)" d="M84.848,60.186c-13.348,0-24.176,10.826-24.176,24.176
	c0,6.412,2.617,12.144,6.695,16.472c2.119-17.499,16.89-31.104,34.959-31.104c0.486,0,0.938,0.101,1.422,0.117
	C99.326,64.092,92.656,60.186,84.848,60.186L84.848,60.186z"/>
<text id="svg_1" transform="matrix(1 0 0 1 66.3145 107.8564)" fill="#FFFFFF" font-family="'roboto-Bold'" font-size="65">+</text>
</svg>
