<?xml version="1.0" encoding="utf-8"?>
<!-- Generator: Adobe Illustrator 16.0.0, SVG Export Plug-In . SVG Version: 6.00 Build 0)  -->
<!DOCTYPE svg PUBLIC "-//W3C//DTD SVG 1.1//EN" "http://www.w3.org/Graphics/SVG/1.1/DTD/svg11.dtd">
<svg version="1.1" id="Слой_1" xmlns="http://www.w3.org/2000/svg" xmlns:xlink="http://www.w3.org/1999/xlink" x="0px" y="0px"
	 width="120px" height="120px" viewBox="0 0 120 120" enable-background="new 0 0 120 120" xml:space="preserve">
<g id="normal_2_" transform="matrix(.61811,0,0,.61811,-25.99486,-320.22595)">
	<g>
		
			<linearGradient id="SVGID_1_" gradientUnits="userSpaceOnUse" x1="645.1398" y1="-293.4761" x2="526.5519" y2="-293.3914" gradientTransform="matrix(-4.416720e-004 0.6181 -0.6181 -4.416720e-004 -39.8427 312.172)">
			<stop  offset="0" style="stop-color:#BD4E02"/>
			<stop  offset="1" style="stop-color:#3B1800"/>
		</linearGradient>
		<path fill="url(#SVGID_1_)" d="M205.435,643.038c0-0.482-0.085-0.97-0.265-1.438c-0.544-1.406-1.825-2.324-3.248-2.326
			l-34.704-0.025l0.082-116.252c0.002-0.999-0.37-1.958-1.03-2.665c-0.66-0.705-1.555-1.104-2.487-1.104l-43.17-0.017
			c-1.943-0.002-3.518,1.681-3.52,3.76l-0.082,115.148l-36.379-0.025c-1.424,0-2.708,0.916-3.252,2.323
			c-0.18,0.464-0.269,0.956-0.269,1.438c-0.002,0.981,0.355,1.943,1.029,2.664l61.109,65.446c0.657,0.705,1.555,1.103,2.487,1.103
			c0.932,0.002,1.831-0.393,2.49-1.1l60.181-64.266C205.076,644.981,205.435,644.022,205.435,643.038z"/>
		
			<linearGradient id="SVGID_2_" gradientUnits="userSpaceOnUse" x1="639.0539" y1="-293.4722" x2="525.1173" y2="-293.3907" gradientTransform="matrix(-4.416720e-004 0.6181 -0.6181 -4.416720e-004 -39.8427 312.172)">
			<stop  offset="0" style="stop-color:#FF6C03"/>
			<stop  offset="1" style="stop-color:#753100"/>
		</linearGradient>
		<path fill="url(#SVGID_2_)" d="M120.611,522.977l-0.085,118.912l-39.898-0.028l61.107,65.446l60.181-64.269l-38.223-0.025
			l0.085-120.018L120.611,522.977z"/>
		
			<linearGradient id="SVGID_3_" gradientUnits="userSpaceOnUse" x1="631.2981" y1="-293.4651" x2="522.4186" y2="-293.3872" gradientTransform="matrix(-4.416720e-004 0.6181 -0.6181 -4.416720e-004 -39.8427 312.172)">
			<stop  offset="0" style="stop-color:#FF8F03"/>
			<stop  offset="1" style="stop-color:#B52E00"/>
		</linearGradient>
		<path fill="url(#SVGID_3_)" d="M163.69,646.4c-1.751,0-3.166-1.52-3.166-3.391l0.085-116.63l-36.833-0.014l-0.084,115.526
			c-0.002,1.871-1.419,3.387-3.169,3.387l-32.248-0.025l53.464,57.261l52.529-56.092L163.69,646.4z"/>
	</g>
</g>
<g id="active_2_" transform="matrix(.61811,0,0,.61811,-25.99486,-320.22595)">
	<g>
		
			<linearGradient id="SVGID_4_" gradientUnits="userSpaceOnUse" x1="645.1398" y1="-293.4761" x2="526.5519" y2="-293.3914" gradientTransform="matrix(-4.416720e-004 0.6181 -0.6181 -4.416720e-004 -39.8427 312.172)">
			<stop  offset="0" style="stop-color:#BD4E02"/>
			<stop  offset="1" style="stop-color:#3B1800"/>
		</linearGradient>
		<path fill="url(#SVGID_4_)" d="M205.435,643.038c0-0.482-0.085-0.97-0.265-1.438c-0.544-1.406-1.825-2.324-3.248-2.326
			l-34.704-0.025l0.082-116.252c0.002-0.999-0.37-1.958-1.03-2.665c-0.66-0.705-1.555-1.104-2.487-1.104l-43.17-0.017
			c-1.943-0.002-3.518,1.681-3.52,3.76l-0.082,115.148l-36.379-0.025c-1.424,0-2.708,0.916-3.252,2.323
			c-0.18,0.464-0.269,0.956-0.269,1.438c-0.002,0.981,0.355,1.943,1.029,2.664l61.109,65.446c0.657,0.705,1.555,1.103,2.487,1.103
			c0.932,0.002,1.831-0.393,2.49-1.1l60.181-64.266C205.076,644.981,205.435,644.022,205.435,643.038z"/>
		
			<linearGradient id="SVGID_5_" gradientUnits="userSpaceOnUse" x1="639.0539" y1="-293.4722" x2="525.1173" y2="-293.3907" gradientTransform="matrix(-4.416720e-004 0.6181 -0.6181 -4.416720e-004 -39.8427 312.172)">
			<stop  offset="0" style="stop-color:#FF6C03"/>
			<stop  offset="1" style="stop-color:#753100"/>
		</linearGradient>
		<path fill="url(#SVGID_5_)" d="M120.611,522.977l-0.085,118.912l-39.898-0.028l61.107,65.446l60.181-64.269l-38.223-0.025
			l0.085-120.018L120.611,522.977z"/>
		
			<linearGradient id="SVGID_6_" gradientUnits="userSpaceOnUse" x1="631.2981" y1="-293.4651" x2="522.4186" y2="-293.3872" gradientTransform="matrix(-4.416720e-004 0.6181 -0.6181 -4.416720e-004 -39.8427 312.172)">
			<stop  offset="0" style="stop-color:#FF8F03"/>
			<stop  offset="1" style="stop-color:#B52E00"/>
		</linearGradient>
		<path fill="url(#SVGID_6_)" d="M163.69,646.4c-1.751,0-3.166-1.52-3.166-3.391l0.085-116.63l-36.833-0.014l-0.084,115.526
			c-0.002,1.871-1.419,3.387-3.169,3.387l-32.248-0.025l53.464,57.261l52.529-56.092L163.69,646.4z"/>
	</g>
</g>
<g id="disabled_2_" transform="matrix(.61811,0,0,.61811,-25.99486,-320.22595)">
	<g opacity="0.2">
		
			<linearGradient id="SVGID_7_" gradientUnits="userSpaceOnUse" x1="645.1398" y1="-293.4761" x2="526.5519" y2="-293.3914" gradientTransform="matrix(-4.416720e-004 0.6181 -0.6181 -4.416720e-004 -39.8427 312.172)">
			<stop  offset="0" style="stop-color:#BD4E02"/>
			<stop  offset="1" style="stop-color:#3B1800"/>
		</linearGradient>
		<path fill="url(#SVGID_7_)" d="M205.435,643.038c0-0.482-0.085-0.97-0.265-1.438c-0.544-1.406-1.825-2.324-3.248-2.326
			l-34.704-0.025l0.082-116.252c0.002-0.999-0.37-1.958-1.03-2.665c-0.66-0.705-1.555-1.104-2.487-1.104l-43.17-0.017
			c-1.943-0.002-3.518,1.681-3.52,3.76l-0.082,115.148l-36.379-0.025c-1.424,0-2.708,0.916-3.252,2.323
			c-0.18,0.464-0.269,0.956-0.269,1.438c-0.002,0.981,0.355,1.943,1.029,2.664l61.109,65.446c0.657,0.705,1.555,1.103,2.487,1.103
			c0.932,0.002,1.831-0.393,2.49-1.1l60.181-64.266C205.076,644.981,205.435,644.022,205.435,643.038z"/>
		
			<linearGradient id="SVGID_8_" gradientUnits="userSpaceOnUse" x1="639.0539" y1="-293.4722" x2="525.1173" y2="-293.3907" gradientTransform="matrix(-4.416720e-004 0.6181 -0.6181 -4.416720e-004 -39.8427 312.172)">
			<stop  offset="0" style="stop-color:#FF6C03"/>
			<stop  offset="1" style="stop-color:#753100"/>
		</linearGradient>
		<path fill="url(#SVGID_8_)" d="M120.611,522.977l-0.085,118.912l-39.898-0.028l61.107,65.446l60.181-64.269l-38.223-0.025
			l0.085-120.018L120.611,522.977z"/>
		
			<linearGradient id="SVGID_9_" gradientUnits="userSpaceOnUse" x1="346.3206" y1="-293.2589" x2="455.2" y2="-293.3367" gradientTransform="matrix(-4.416720e-004 0.6181 -0.6181 -4.416720e-004 -39.8427 312.172)">
			<stop  offset="0" style="stop-color:#B52E00"/>
			<stop  offset="1" style="stop-color:#FF8F03"/>
		</linearGradient>
		<path fill="url(#SVGID_9_)" d="M163.69,646.4c-1.751,0-3.166-1.52-3.166-3.391l0.085-116.63l-36.833-0.014l-0.084,115.526
			c-0.002,1.871-1.419,3.387-3.169,3.387l-32.248-0.025l53.464,57.261l52.529-56.092L163.69,646.4z"/>
	</g>
</g>
</svg>
