<?xml version="1.0" encoding="utf-8"?>
<!-- Generator: Adobe Illustrator 18.1.1, SVG Export Plug-In . SVG Version: 6.00 Build 0)  -->
<svg version="1.1" id="Rounded_Rectangle_2_copy_1_"
	 xmlns="http://www.w3.org/2000/svg" xmlns:xlink="http://www.w3.org/1999/xlink" x="0px" y="0px" width="120px" height="120px"
	 viewBox="0 0 120 120" enable-background="new 0 0 120 120" xml:space="preserve">
<g id="Rounded_Rectangle_2_copy">
	<g>
		<path fill="#475FC4" d="M103,16H80v-1c0-1.105-0.895-2-2-2H42c-1.105,0-2,0.895-2,2v1H17c-2.209,0-4,1.791-4,4v73
			c0,2.209,1.791,4,4,4v4c0,2.209,1.791,4,4,4h7c2.209,0,4-1.791,4-4v-4h10v-8.467c0-1.556,1.582-2.817,2.769-2.817
			c1.511-0.629,4.36-1.281,7.88-1.706c0.297-2.048,2.043-3.627,4.174-3.627h6.353c2.106,0,3.84,1.542,4.167,3.556
			c2.751,0.336,5.444,0.902,7.888,1.777c0.989,0,2.769,1.261,2.769,2.817V97h10v4c0,2.209,1.791,4,4,4h7c2.209,0,4-1.791,4-4v-4
			c2.209,0,4-1.791,4-4V20C107,17.791,105.209,16,103,16z M94,56c0,1.657-0.857,2.429-3,3c1,0.286-30.571,7.286-62,0
			c-1.143,0-3-1.343-3-3V32c0-1.657,1.343-3,3-3h62c1.657,0,3,1.343,3,3V56z"/>
	</g>
</g>
<g id="Rounded_Rectangle_5_copy_2_xA0_Clipping_Path">
	<g>
		<path fill="#475FC4" d="M71,89c-2.444-0.86-5.231-1.302-8-1.467V86c0-0.552-0.448-1-1-1h-4c-0.552,0-1,0.448-1,1v1.575
			c-3.584,0.249-6.594,0.85-8,1.425c-0.857,0-2,0.895-2,2v8c0,1.105,0.895,2,2,2h22c1.105,0,2-0.895,2-2v-8
			C73,89.895,71.714,89,71,89z"/>
	</g>
</g>
</svg>
