<?xml version="1.0" encoding="iso-8859-1"?>
<!-- Generator: Adobe Illustrator 17.1.0, SVG Export Plug-In . SVG Version: 6.00 Build 0)  -->
<!DOCTYPE svg PUBLIC "-//W3C//DTD SVG 1.1//EN" "http://www.w3.org/Graphics/SVG/1.1/DTD/svg11.dtd">
<svg version="1.1" xmlns="http://www.w3.org/2000/svg" xmlns:xlink="http://www.w3.org/1999/xlink" x="0px" y="0px" width="120px"
	 height="120px" viewBox="0 0 120 120" enable-background="new 0 0 120 120" xml:space="preserve">
<g id="Layer_4" display="none">
	<circle display="inline" opacity="0.5" fill="#DF1F26" cx="60" cy="60" r="60"/>
	<rect x="6.5" y="6.5" display="inline" opacity="0.5" fill="#3B4FA1" width="107" height="107"/>
</g>
<g id="normal">
	<path fill-rule="evenodd" clip-rule="evenodd" fill="#881C1C" d="M106.596,102.196H13.402c-3.812,0-6.902-3.053-6.902-6.82V42.531
		c0-2.434,1.299-4.555,3.241-5.762l6.099,32.424c0,4.304,6.678,7.791,11.034,7.791h28.737v0.863c0,2.525,0.622,4.574,3.179,4.574
		h2.453c2.557,0,3.046-2.048,3.046-4.574v-0.863h28.836c4.357,0,11.034-3.487,11.034-7.791l6.099-32.424
		c1.942,1.207,3.241,3.328,3.241,5.762v52.845C113.5,99.142,110.411,102.196,106.596,102.196L106.596,102.196z M98.983,67.379
		c0,1.884-4.692,3.41-6.598,3.41H64.289v-1.036c0-2.525-0.489-4.574-3.046-4.574H58.79c-2.557,0-3.179,2.048-3.179,4.574v1.036
		H27.615c-1.906,0-6.598-1.525-6.598-3.41l-6.282-31.643l-0.005-0.024l-0.007-0.031h23.72v-9.025c0-4.889,4.012-8.851,8.96-8.851
		h25.197c4.947,0,8.96,3.962,8.96,8.851v9.025h23.72l-0.007,0.031l-0.005,0.024L98.983,67.379L98.983,67.379z M75.678,27.485
		c0-2.138-1.754-3.873-3.921-3.873H48.243c-2.166,0-3.921,1.735-3.921,3.873v8.196h31.356V27.485L75.678,27.485z"/>
</g>
<g id="active">
	<path fill-rule="evenodd" clip-rule="evenodd" fill="#881C1C" d="M106.596,102.196H13.402c-3.812,0-6.902-3.053-6.902-6.82V42.531
		c0-2.434,1.299-4.555,3.241-5.762l6.099,32.424c0,4.304,6.678,7.791,11.034,7.791h28.737v0.863c0,2.525,0.622,4.574,3.179,4.574
		h2.453c2.557,0,3.046-2.048,3.046-4.574v-0.863h28.836c4.357,0,11.034-3.487,11.034-7.791l6.099-32.424
		c1.942,1.207,3.241,3.328,3.241,5.762v52.845C113.5,99.142,110.411,102.196,106.596,102.196L106.596,102.196z M98.983,67.379
		c0,1.884-4.692,3.41-6.598,3.41H64.289v-1.036c0-2.525-0.489-4.574-3.046-4.574H58.79c-2.557,0-3.179,2.048-3.179,4.574v1.036
		H27.615c-1.906,0-6.598-1.525-6.598-3.41l-6.282-31.643l-0.005-0.024l-0.007-0.031h23.72v-9.025c0-4.889,4.012-8.851,8.96-8.851
		h25.197c4.947,0,8.96,3.962,8.96,8.851v9.025h23.72l-0.007,0.031l-0.005,0.024L98.983,67.379L98.983,67.379z M75.678,27.485
		c0-2.138-1.754-3.873-3.921-3.873H48.243c-2.166,0-3.921,1.735-3.921,3.873v8.196h31.356V27.485L75.678,27.485z"/>
</g>
<g id="disabled" opacity="0.2">
	<path fill-rule="evenodd" clip-rule="evenodd" fill="#881C1C" d="M106.596,102.196H13.402c-3.812,0-6.902-3.053-6.902-6.82V42.531
		c0-2.434,1.299-4.555,3.241-5.762l6.099,32.424c0,4.304,6.678,7.791,11.034,7.791h28.737v0.863c0,2.525,0.622,4.574,3.179,4.574
		h2.453c2.557,0,3.046-2.048,3.046-4.574v-0.863h28.836c4.357,0,11.034-3.487,11.034-7.791l6.099-32.424
		c1.942,1.207,3.241,3.328,3.241,5.762v52.845C113.5,99.142,110.411,102.196,106.596,102.196L106.596,102.196z M98.983,67.379
		c0,1.884-4.692,3.41-6.598,3.41H64.289v-1.036c0-2.525-0.489-4.574-3.046-4.574H58.79c-2.557,0-3.179,2.048-3.179,4.574v1.036
		H27.615c-1.906,0-6.598-1.525-6.598-3.41l-6.282-31.643l-0.005-0.024l-0.007-0.031h23.72v-9.025c0-4.889,4.012-8.851,8.96-8.851
		h25.197c4.947,0,8.96,3.962,8.96,8.851v9.025h23.72l-0.007,0.031l-0.005,0.024L98.983,67.379L98.983,67.379z M75.678,27.485
		c0-2.138-1.754-3.873-3.921-3.873H48.243c-2.166,0-3.921,1.735-3.921,3.873v8.196h31.356V27.485L75.678,27.485z"/>
</g>
</svg>
