<?xml version="1.0" encoding="utf-8"?>
<!-- Generator: Adobe Illustrator 15.0.0, SVG Export Plug-In . SVG Version: 6.00 Build 0)  -->
<!DOCTYPE svg PUBLIC "-//W3C//DTD SVG 1.1//EN" "http://www.w3.org/Graphics/SVG/1.1/DTD/svg11.dtd">
<svg version="1.1" id="Layer_1" xmlns="http://www.w3.org/2000/svg" xmlns:xlink="http://www.w3.org/1999/xlink" x="0px" y="0px"
	 width="487px" height="466px" viewBox="0 0 487 466" enable-background="new 0 0 487 466" xml:space="preserve">
<g>
	<title>Layer 1</title>
	<circle id="svg_1_3_" fill="#FFFFFF" stroke="#F9F4F4" stroke-width="2.5" cx="49.326" cy="138.893" r="28.715"/>
</g>
<g>
	<title>Layer 1</title>
	<circle id="svg_1_2_" fill="#FFFFFF" stroke="#F9F4F4" stroke-width="5" cx="97.051" cy="199.86" r="57.43"/>
</g>
<g display="none">
	<title>Layer 1</title>
	<circle id="svg_1_1_" display="inline" fill="#FFFFFF" stroke="#F9F4F4" stroke-width="6" cx="97.051" cy="176.536" r="68.916"/>
</g>
<g>
	<title>Layer 1</title>
	<circle id="svg_1" fill="#FFFFFF" stroke="#F9F4F4" stroke-width="6.655" cx="154.48" cy="146.133" r="76.439"/>
</g>
<g>
	<g>
		<path fill="#746E72" d="M81.958,456.187C33.862,441.4,9.604,420.423,9.229,401.515c-1.417-70.893,373.074-88.391,274.138-127.699
			c-52.064-20.688-79.259-40.979-77.438-56.604c2.108-18.135,26.706-40.826,114.404-57.772h21.677
			c-10.707,4.53-36.839,16.124-52.947,27.887c-18.543,13.542-13.01,21.825,1.063,27.396c41.763,16.534,92.705,20.801,135.181,35.854
			c26.99,9.566,79.494,32.748,49.559,68.882c-32.934,39.742-137.696,70.521,0.488,136.727L81.958,456.187L81.958,456.187z"/>
		<path fill="#FFFFFF" d="M295.45,341.457c-27.316,10.58-66.533,20.694-88.25,41.437h-17.965
			c18.068-21.322,52.872-32.195,77.965-41.435L295.45,341.457L295.45,341.457z"/>
		<path fill="#FFFFFF" d="M383.741,300.94c-12.266,9.845-36.049,20.058-63.969,31.06h-26.01
			c31.672-11.039,61.658-21.123,77.32-31.058L383.741,300.94L383.741,300.94z"/>
		<path fill="#FFFFFF" d="M361.772,264.957c9.25,3.181,39.072,13.2,28.646,29.031h-10.859
			c12.953-15.527-22.416-25.412-33.379-29.031H361.772L361.772,264.957z"/>
		<path fill="#FFFFFF" d="M311.433,248.146c12.658,4.566,24.918,8.562,34.668,11.705l-15.471-0.002
			c-10.562-3.467-22.361-7.406-33.951-11.701L311.433,248.146L311.433,248.146z"/>
		<path fill="#FFFFFF" d="M272.55,232.051c8.77,4.332,18.717,8.498,28.789,12.351l-14.479-0.002
			c-9.924-3.92-19.357-8.059-27.342-12.345L272.55,232.051L272.55,232.051z"/>
		<path fill="#FFFFFF" d="M248.606,216.604c4.078,4.013,10.053,8.026,17.172,11.935l-12.396-0.002
			c-6.378-3.908-11.375-7.906-14.269-11.933H248.606L248.606,216.604z"/>
		<path fill="#FFFFFF" d="M244.739,199.859c-3.086,4.367-2.42,8.889,0.974,13.443h-8.521c-1.865-4.137-2.253-8.536,1.405-13.443
			H244.739L244.739,199.859z"/>
		<path fill="#FFFFFF" d="M257.687,189.563c-3.904,2.414-7.266,4.799-9.988,7.123l-6.302,0.083c2.795-2.711,6.13-5.051,9.358-7.205
			L257.687,189.563L257.687,189.563z"/>
		<path fill="#FFFFFF" d="M277.39,179.26c-5.4,2.438-10.354,4.927-14.771,7.398h-7.26c4.359-2.609,9.092-5.078,14.121-7.396
			L277.39,179.26L277.39,179.26z"/>
		<path fill="#FFFFFF" d="M295.077,172.019c-3.963,1.471-7.781,2.985-11.424,4.516h-8c3.715-1.563,7.563-3.079,11.496-4.515
			L295.077,172.019L295.077,172.019z"/>
		<path fill="#FFFFFF" d="M313.065,166.018l-10.799,3.441h-7.793c4.047-1.233,8.094-2.469,12.141-3.703L313.065,166.018
			L313.065,166.018z"/>
		<path fill="#FFFFFF" d="M324.854,162.529c-4.465,0.988-6.303,1.272-7.84,1.764l-6.121-0.002c2.049-0.531,3.797-1.117,6.693-1.76
			L324.854,162.529L324.854,162.529z"/>
		<path fill="#FFFFFF" d="M233.214,456.189h39.443c-18.426-6.232-35.315-13.32-48.31-21.507
			c-20.852-13.155-29.43-26.416-25.688-38.91l-16.48-0.002c-4.336,16.421,8.154,33.095,30.32,48.341
			C218.628,448.318,225.552,452.391,233.214,456.189L233.214,456.189z"/>
		<path fill="#FFFFFF" d="M336.13,159.471c-4.345,0.835-5.814,1.242-7.354,1.732l-5.846-0.002c2.049-0.531,3.797-1.117,6.692-1.76
			L336.13,159.471L336.13,159.471z"/>
	</g>
</g>
<linearGradient id="re_1_" gradientUnits="userSpaceOnUse" x1="158.7637" y1="170.1123" x2="166.8315" y2="170.1123" gradientTransform="matrix(0.893 -0.45 -0.3218 -0.9468 195.96 405.6069)">
	<stop  offset="0" style="stop-color:#783000"/>
	<stop  offset="0.75" style="stop-color:#000000"/>
	<stop  offset="1" style="stop-color:#642800"/>
</linearGradient>
<path id="re" fill="url(#re_1_)" d="M243.016,43.083L243.016,43.083c1.99-1.003,4.184-0.105,4.9,2.003l84.557,248.756
	c0.717,2.109-0.314,4.632-2.304,5.635l0,0c-1.989,1.003-4.184,0.105-4.901-2.004L240.712,48.717
	C239.995,46.608,241.026,44.085,243.016,43.083z"/>
<linearGradient id="path3159_1_" gradientUnits="userSpaceOnUse" x1="356.6299" y1="331.459" x2="461.7475" y2="335.4485" gradientTransform="matrix(1 0 0 -1 0 467)">
	<stop  offset="0" style="stop-color:#F4F602"/>
	<stop  offset="0.52" style="stop-color:#C4BF34"/>
	<stop  offset="0.67" style="stop-color:#C4BF34"/>
	<stop  offset="1" style="stop-color:#F4F602"/>
</linearGradient>
<radialGradient id="path3159_2_" cx="113.4214" cy="531.1895" r="72.1081" gradientUnits="userSpaceOnUse">
	<stop  offset="0" style="stop-color:#F4F602"/>
	<stop  offset="1" style="stop-color:#C4BF34"/>
</radialGradient>
<path id="path3159" fill="url(#path3159_1_)" stroke="url(#path3159_2_)" stroke-linejoin="bevel" d="M345.348,60.577
	c-2.304-26.704-3.527,1.367,7.197,3.743c23.986,6.096,48.803,7.313,73.418,5.47c7.514-0.563,39.783-13.088,40.309-9.789
	c-4.387,8.202-7.201,48.577-4.895,69.1c-0.26,19.919,22.828,71.494,25.623,88.39c-33.732-20.193-58.738-25.221-91.268-15.548
	c-7.953,2.365-26.766,3.528-29.367-6.622c-1.799-5.183-0.896-9.139-1.545-15.26c-1.859-17.539,1.078,7.518-3.062-8.925
	C354.365,141.771,347.65,87.281,345.348,60.577z"/>
<linearGradient id="path2186_1_" gradientUnits="userSpaceOnUse" x1="288.9678" y1="344.0674" x2="357.8485" y2="353.8599" gradientTransform="matrix(1 0 0 -1 0 467)">
	<stop  offset="0" style="stop-color:#F4F602"/>
	<stop  offset="1" style="stop-color:#C4BF34"/>
</linearGradient>
<radialGradient id="path2186_2_" cx="5.0815" cy="545.1699" r="58.4201" gradientUnits="userSpaceOnUse">
	<stop  offset="0" style="stop-color:#F4F602"/>
	<stop  offset="1" style="stop-color:#C4BF34"/>
</radialGradient>
<path id="path2186" fill="url(#path2186_1_)" stroke="url(#path2186_2_)" stroke-linejoin="bevel" d="M249.133,47.297
	c17.284,3.218,46.177,5.842,55.172,2.646c8.994-3.196,18.291-9.425,28.908-12.623c10.924-3.29,15.539,0.96,17.102,11.604
	c3.857,36.485,13.84,101.474,14.658,132.331c-6.92-14.651-27.679-12.155-63.314,21.173c-0.027-12.457,1.408-52.568-12.826-79.806
	c-14.234-27.237-17.112-42.203-24.227-51.914C257.49,60.998,249.768,52.906,249.133,47.297z"/>
<path d="M206.381,44.418l-8.394,1.9l0.949,4.197l7.885,34.856c-3.849-0.589-7.938-1.242-12.546-1.976
	c-2.053-0.328-3.893-0.614-5.752-0.904L192.032,98c3.849,0.588,7.94,1.242,12.547,1.976c2.053,0.327,3.894,0.613,5.752,0.904
	l4.089,18.07l11.104,49.084l4.089,18.069c-3.85-0.59-7.939-1.243-12.547-1.978c-2.054-0.325-3.894-0.613-5.754-0.903l3.509,15.508
	c3.85,0.589,7.941,1.241,12.548,1.976c2.053,0.327,3.894,0.614,5.752,0.905l20.889,92.334l0.951,4.197l8.394-1.9l-0.949-4.195
	L207.33,48.616L206.381,44.418L206.381,44.418z M214.82,198.729c-6.935-1.061-12.872-1.86-18.14-2.177l4.005,17.708
	c0.079,0.009,0.149,0.014,0.229,0.022h0.002c0.872,0.094,1.775,0.197,2.713,0.312c0.937,0.114,1.907,0.239,2.912,0.374h0.002
	c1.006,0.134,2.048,0.279,3.129,0.435h0.001c2.163,0.309,4.478,0.654,6.97,1.039h0.001c0.703,0.106,1.532,0.242,2.264,0.356
	L214.82,198.729L214.82,198.729z M196.681,196.552l-3.591-15.868c-7.719-0.816-12.997-0.798-17.594,0.242l3.799,16.787
	C184.847,196.458,190.348,196.172,196.681,196.552L196.681,196.552z M179.295,197.713c-5.551,1.256-10.638,3.366-16.191,6.436
	l3.981,17.598c6.564-3.961,11.344-6.189,15.919-7.225l0.046-0.011l0.044-0.01L179.295,197.713L179.295,197.713z M163.104,204.149
	l-3.59-15.869c-4.201,2.577-9.233,5.944-15.355,10.134l3.51,15.507C153.47,209.978,158.484,206.703,163.104,204.149z
	 M147.668,213.92c-3.222,2.188-6.632,4.54-10.476,7.185c-1.71,1.18-3.248,2.23-4.801,3.294l4.042,17.865
	c3.008-2.072,6.215-4.314,9.769-6.791c1.959-1.334,3.741-2.539,5.499-3.727L147.668,213.92L147.668,213.92z M132.391,224.399
	l-3.509-15.507c-5.801,3.94-10.817,7.217-15.436,9.771l3.59,15.868c4.201-2.576,9.232-5.945,15.355-10.134L132.391,224.399z
	 M117.036,234.533c-6.616,4.059-11.388,6.314-15.984,7.354l3.798,16.787c5.557-1.268,10.636-3.408,16.173-6.516L117.036,234.533
	L117.036,234.533z M101.052,241.887l-3.799-16.789c-5.551,1.256-11.051,1.54-17.385,1.161l3.591,15.87
	C91.178,242.943,96.456,242.928,101.052,241.887L101.052,241.887z M83.459,242.127c-4.9-0.518-10.893-1.391-18.223-2.537
	l4.088,18.068c0,0,8.63,1.572,18.14,2.176l-4.006-17.705L83.459,242.127z M65.237,239.59l-3.508-15.507
	c-3.849-0.589-7.94-1.242-12.547-1.976c-2.052-0.327-3.893-0.615-5.751-0.903l3.508,15.507c3.849,0.588,7.939,1.24,12.547,1.975
	C61.538,239.014,63.378,239.301,65.237,239.59z M61.729,224.083c6.934,1.062,12.872,1.86,18.14,2.177l-4.006-17.709
	c-4.901-0.517-10.894-1.39-18.223-2.536L61.729,224.083L61.729,224.083z M57.641,206.014l-3.509-15.508
	c-3.849-0.589-7.939-1.242-12.546-1.976c-2.052-0.327-3.893-0.613-5.751-0.904l3.508,15.508c3.849,0.588,7.941,1.241,12.548,1.976
	C53.942,205.437,55.782,205.722,57.641,206.014L57.641,206.014z M54.132,190.506c6.934,1.061,12.872,1.86,18.141,2.177
	l-4.007-17.708c-4.9-0.519-10.892-1.393-18.22-2.538L54.132,190.506L54.132,190.506z M50.044,172.438l-3.508-15.508
	c-3.849-0.588-7.939-1.242-12.547-1.977c-2.052-0.326-3.892-0.612-5.751-0.902l3.507,15.507c3.85,0.589,7.941,1.24,12.549,1.974
	C46.345,171.86,48.186,172.147,50.044,172.438L50.044,172.438z M46.536,156.93c6.934,1.061,12.872,1.86,18.141,2.176l-4.006-17.707
	c-4.9-0.518-10.893-1.393-18.222-2.538L46.536,156.93L46.536,156.93z M42.448,138.861l-3.507-15.509
	c-3.85-0.588-7.941-1.242-12.548-1.976c-2.052-0.327-3.893-0.614-5.752-0.905l3.509,15.507c3.85,0.589,7.939,1.243,12.547,1.977
	C38.748,138.283,40.589,138.57,42.448,138.861L42.448,138.861z M38.94,123.353c6.933,1.061,12.871,1.86,18.139,2.176l-4.006-17.707
	c-0.079-0.009-0.149-0.013-0.229-0.022h-0.001c-0.435-0.047-0.904-0.105-1.355-0.157c-0.452-0.051-0.888-0.097-1.355-0.155
	c-0.937-0.114-1.907-0.239-2.913-0.374h-0.001c-1.006-0.135-2.048-0.279-3.129-0.433h-0.001c-2.774-0.395-5.913-0.876-9.237-1.396
	l4.088,18.067H38.94z M57.079,125.528l3.59,15.87c7.719,0.816,12.997,0.798,17.593-0.242l-3.797-16.788
	C68.914,125.625,63.412,125.909,57.079,125.528L57.079,125.528z M74.464,124.369c5.551-1.256,10.639-3.366,16.192-6.436
	l-4.007-17.708c-6.617,4.06-11.387,6.315-15.983,7.354L74.464,124.369L74.464,124.369z M70.667,107.58v-0.002l-0.04,0.011
	L70.667,107.58L70.667,107.58z M90.656,117.933l3.59,15.869c4.201-2.576,9.232-5.945,15.354-10.134l-3.509-15.508
	C100.291,112.103,95.275,115.38,90.656,117.933z M106.092,108.16c3.221-2.188,6.632-4.539,10.476-7.184
	c1.71-1.178,3.249-2.23,4.802-3.292l-4.088-18.069c-3.22,2.188-6.632,4.54-10.475,7.185c-1.712,1.179-3.25,2.231-4.802,3.293
	L106.092,108.16L106.092,108.16z M121.369,97.683l3.509,15.508c5.802-3.943,10.817-7.219,15.436-9.771l-3.589-15.869
	C132.523,90.127,127.492,93.494,121.369,97.683L121.369,97.683z M136.725,87.551c6.616-4.06,11.387-6.315,15.981-7.355
	l-3.797-16.786l-0.044,0.009c-5.533,1.257-10.609,3.365-16.147,6.426L136.725,87.551L136.725,87.551z M152.706,80.195l3.8,16.788
	c5.552-1.256,11.051-1.541,17.385-1.16l-3.59-15.869c-7.72-0.816-12.996-0.798-17.593,0.242L152.706,80.195z M170.301,79.954
	c4.9,0.519,10.893,1.393,18.221,2.538l-4.087-18.069c0,0-8.632-1.566-18.138-2.168L170.301,79.954L170.301,79.954z M173.892,95.823
	l4.005,17.707c4.9,0.518,10.893,1.393,18.221,2.538l-4.087-18.069C185.097,96.938,179.158,96.139,173.892,95.823L173.892,95.823z
	 M196.117,116.068l3.51,15.507c3.849,0.588,7.939,1.242,12.546,1.976c2.052,0.327,3.893,0.615,5.752,0.906l-3.507-15.508
	c-3.85-0.588-7.941-1.241-12.549-1.976C199.817,116.646,197.977,116.359,196.117,116.068L196.117,116.068z M199.627,131.575
	c-6.934-1.061-12.872-1.861-18.141-2.176l4.007,17.708c4.9,0.519,10.892,1.393,18.222,2.538L199.627,131.575L199.627,131.575z
	 M203.715,149.644l3.509,15.508c3.85,0.589,7.938,1.242,12.547,1.976c2.052,0.328,3.892,0.615,5.752,0.906l-3.509-15.508
	c-3.85-0.589-7.94-1.242-12.548-1.977C207.415,150.221,205.573,149.934,203.715,149.644L203.715,149.644z M207.224,165.152
	c-6.934-1.06-12.872-1.859-18.141-2.176l4.006,17.707c4.9,0.518,10.894,1.394,18.223,2.537L207.224,165.152L207.224,165.152z
	 M189.083,162.976l-3.59-15.868c-7.719-0.817-12.995-0.8-17.592,0.24l3.797,16.789C177.249,162.881,182.749,162.596,189.083,162.976
	L189.083,162.976z M171.698,164.137c-5.552,1.256-10.637,3.365-16.189,6.435l4.004,17.708c6.616-4.06,11.387-6.316,15.983-7.354
	L171.698,164.137L171.698,164.137z M155.509,170.572l-3.593-15.869c-4.2,2.577-9.232,5.946-15.355,10.134l3.509,15.509
	C145.872,176.402,150.889,173.125,155.509,170.572z M140.07,180.345c-3.221,2.188-6.632,4.538-10.476,7.184
	c-1.711,1.178-3.249,2.229-4.801,3.292l4.088,18.069c3.22-2.188,6.632-4.541,10.475-7.187c1.711-1.178,3.249-2.229,4.802-3.291
	l-4.088-18.069V180.345z M124.793,190.822l-3.508-15.508c-5.802,3.942-10.818,7.219-15.438,9.771l3.59,15.87
	C113.639,198.378,118.671,195.009,124.793,190.822L124.793,190.822z M109.438,200.956c-6.616,4.059-11.387,6.314-15.983,7.354
	l3.798,16.788c5.551-1.255,10.639-3.365,16.192-6.435L109.438,200.956z M93.455,208.309l-3.797-16.788
	c-5.551,1.256-11.052,1.541-17.384,1.161l3.589,15.868C83.582,209.367,88.858,209.349,93.455,208.309L93.455,208.309z
	 M89.658,191.521c5.551-1.256,10.637-3.366,16.191-6.436l-4.005-17.708c-6.616,4.06-11.388,6.315-15.984,7.355L89.658,191.521
	L89.658,191.521z M85.859,174.733l-3.798-16.787c-5.551,1.256-11.051,1.54-17.385,1.16l3.589,15.869
	C75.984,175.791,81.262,175.773,85.859,174.733L85.859,174.733z M82.061,157.946c5.551-1.257,10.637-3.367,16.19-6.438
	l-4.005-17.707c-6.616,4.06-11.387,6.315-15.983,7.355l3.797,16.787L82.061,157.946z M98.251,151.508l3.592,15.869
	c4.201-2.576,9.231-5.945,15.354-10.133l-3.507-15.508C107.888,145.68,102.871,148.957,98.251,151.508z M113.689,141.737
	c3.221-2.188,6.632-4.538,10.475-7.184c1.711-1.178,3.249-2.229,4.802-3.292l-4.088-18.07c-3.22,2.188-6.631,4.54-10.475,7.185
	c-1.71,1.178-3.249,2.229-4.802,3.292L113.689,141.737L113.689,141.737z M128.966,131.261l3.508,15.507
	c5.802-3.943,10.819-7.219,15.437-9.772l-3.59-15.869C140.121,123.703,135.089,127.072,128.966,131.261L128.966,131.261z
	 M144.321,121.127c6.616-4.06,11.388-6.315,15.983-7.355l-3.798-16.787c-5.551,1.255-10.639,3.366-16.192,6.435L144.321,121.127
	L144.321,121.127z M160.305,113.771l3.798,16.788c5.551-1.255,11.051-1.541,17.385-1.16l-3.59-15.869
	C170.179,112.714,164.9,112.731,160.305,113.771z M164.103,130.559c-5.552,1.257-10.638,3.367-16.191,6.437l4.006,17.707
	c6.616-4.06,11.389-6.314,15.984-7.354L164.103,130.559L164.103,130.559z M132.474,146.768c-3.221,2.188-6.632,4.537-10.474,7.184
	c-1.711,1.178-3.25,2.23-4.803,3.292l4.089,18.07c3.221-2.188,6.632-4.54,10.474-7.185c1.711-1.178,3.249-2.23,4.801-3.293
	L132.474,146.768L132.474,146.768z"/>
</svg>
