<?xml version="1.0" encoding="utf-8"?>
<!-- Generator: Adobe Illustrator 15.0.0, SVG Export Plug-In . SVG Version: 6.00 Build 0)  -->
<!DOCTYPE svg PUBLIC "-//W3C//DTD SVG 1.1//EN" "http://www.w3.org/Graphics/SVG/1.1/DTD/svg11.dtd">
<svg version="1.1" id="Layer_1" xmlns="http://www.w3.org/2000/svg" xmlns:xlink="http://www.w3.org/1999/xlink" x="0px" y="0px"
	 width="120px" height="120px" viewBox="0 0 120 120" enable-background="new 0 0 120 120" xml:space="preserve">
<g id="normal">
	<g>
		<g>
			<g>
				<path fill="#0072DF" d="M100.111,111.842V8.158H115v103.684H100.111z M58.098,70.23H5V49.398h53.205l0.101-19.6l40.983,30.716
					l-41.29,29.339L58.098,70.23z"/>
				<path d="M113.5,9.658v100.684h-11.889V9.658H113.5 M59.79,32.785l36.954,27.696L59.513,86.936l0.093-18.205H6.5V50.898h53.197
					L59.79,32.785 M116.5,6.658h-3h-11.889h-3v3v48.473l-0.068-0.051L61.589,30.385l-4.768-3.574L56.79,32.77l-0.078,15.128H6.5h-3
					v3V68.73v3h3h50.091L56.513,86.92l-0.03,5.849l4.768-3.388l37.23-26.454l0.13-0.093v47.508v3h3H113.5h3v-3V9.658V6.658
					L116.5,6.658z"/>
			</g>
		</g>
	</g>
</g>
</svg>
