<?xml version="1.0" encoding="UTF-8" standalone="no"?>
<!-- Generator: Adobe Illustrator 16.0.2, SVG Export Plug-In . SVG Version: 6.00 Build 0)  -->

<svg
   xmlns:dc="http://purl.org/dc/elements/1.1/"
   xmlns:cc="http://creativecommons.org/ns#"
   xmlns:rdf="http://www.w3.org/1999/02/22-rdf-syntax-ns#"
   xmlns:svg="http://www.w3.org/2000/svg"
   xmlns="http://www.w3.org/2000/svg"
   xmlns:sodipodi="http://sodipodi.sourceforge.net/DTD/sodipodi-0.dtd"
   xmlns:inkscape="http://www.inkscape.org/namespaces/inkscape"
   version="1.1"
   id="Layer_1"
   x="0px"
   y="0px"
   width="132px"
   height="132px"
   viewBox="0 0 132 132"
   enable-background="new 0 0 132 132"
   xml:space="preserve"
   inkscape:version="0.48.5 r10040"
   sodipodi:docname="ico_umwelt_zone_hide.svg"><metadata
   id="metadata3201"><rdf:RDF><cc:Work
       rdf:about=""><dc:format>image/svg+xml</dc:format><dc:type
         rdf:resource="http://purl.org/dc/dcmitype/StillImage" /></cc:Work></rdf:RDF></metadata><defs
   id="defs3199" /><sodipodi:namedview
   pagecolor="#ffffff"
   bordercolor="#666666"
   borderopacity="1"
   objecttolerance="10"
   gridtolerance="10"
   guidetolerance="10"
   inkscape:pageopacity="0"
   inkscape:pageshadow="2"
   inkscape:window-width="1600"
   inkscape:window-height="1137"
   id="namedview3197"
   showgrid="false"
   inkscape:zoom="1.7878788"
   inkscape:cx="66"
   inkscape:cy="43.627119"
   inkscape:window-x="-8"
   inkscape:window-y="-8"
   inkscape:window-maximized="1"
   inkscape:current-layer="Layer_1" />
<g
   id="path"
   transform="translate(0.55932203,-0.55932203)">
	<g
   id="g3096">
		<path
   d="M 66,1 C 30.1,1 1,30.1 1,66 c 0,35.9 29.1,65 65,65 35.9,0 65,-29.1 65,-65 C 131,30.1 101.9,1 66,1 z m 0,114.2 c -27.2,0 -49.2,-22 -49.2,-49.2 0,-27.2 22,-49.2 49.2,-49.2 27.2,0 49.2,22 49.2,49.2 0,27.2 -22,49.2 -49.2,49.2 z"
   id="path3098"
   style="fill:#ff0000"
   inkscape:connector-curvature="0" />
	</g>
	<circle
   cx="66"
   cy="66"
   r="49.200001"
   id="circle3100"
   d="M 115.2,66 C 115.2,93.17241 93.17241,115.2 66,115.2 38.82759,115.2 16.799999,93.17241 16.799999,66 16.799999,38.82759 38.82759,16.799999 66,16.799999 c 27.17241,0 49.2,22.027591 49.2,49.200001 z"
   sodipodi:cx="66"
   sodipodi:cy="66"
   sodipodi:rx="49.200001"
   sodipodi:ry="49.200001"
   style="fill:#ffffff" />
	<g
   id="LWPOLYLINE_6_">
		<path
   d="m 48,40 0.4,-0.1 0.4,-0.2 0.3,-0.3 0.3,-0.3 0.2,-0.8 0.1,-0.9 V 34 h 1.6 v 7.2 h -1.5 v -1.6 c -0.3,1 -1.2,1.8 -2.3,1.7 -0.1,0 -0.2,0 -0.3,0 C 46,41.2 45.2,40.2 45.3,39 V 33.9 H 47 v 4.6 c -0.1,0.6 0.3,1.1 0.9,1.2 0,0.3 0.1,0.3 0.1,0.3 z"
   id="path3103"
   style="fill:#000000"
   inkscape:connector-curvature="0" />
	</g>
	<g
   id="LWPOLYLINE_7_">
		<path
   d="M 70.1,108.3 H 68.9 V 105 c 0.1,-0.5 -0.301,-1 -0.801,-1.1 H 68 c -0.8,0.1 -1.3,0.8 -1.2,1.6 l 0,0 v 2.8 h -1.2 v -5.4 h 1.1 v 1.3 c 0.2,-0.8 0.899,-1.3 1.7,-1.4 0.1,0 0.199,0 0.3,0 1,0.2 1.6,1.101 1.5,2 v 3.5 h -0.1 z"
   id="path3106"
   style="fill:#000000"
   inkscape:connector-curvature="0" />
	</g>
	<g
   id="LWPOLYLINE_8_">
		<path
   d="m 57.1,34 v 1.6 L 56.4,35.7 55.8,36 55.3,36.5 55,37.2 54.9,38 v 3.4 h -1.6 v -7.2 h 1.5 V 36 c 0.2,-1 1.1,-1.8 2.1,-2 h 0.1 0.1 z"
   id="path3109"
   style="fill:#000000"
   inkscape:connector-curvature="0" />
	</g>
	<g
   id="LWPOLYLINE_9_">
		<path
   d="m 99.1,97.9 h -1.2 v -3.3 c 0.1,-0.5 -0.301,-1 -0.801,-1.1 H 97 c -0.8,0.1 -1.3,0.8 -1.2,1.6 l 0,0 v 2.8 h -1.2 v -5.4 h 1.1 v 1.3 c 0.2,-0.8 0.899,-1.3 1.7,-1.399 0.1,0 0.199,0 0.3,0 1,0.199 1.6,1.1 1.5,2 v 3.5 h -0.1 z"
   id="path3112"
   style="fill:#000000"
   inkscape:connector-curvature="0" />
	</g>
	<g
   id="g3114">
		<path
   d="M 72.3,36.6 72,35.5 71.5,34.7 70.7,34.1 69.8,34 c -1,0 -1.899,0.6 -2.2,1.5 V 34.1 H 66 v 9.7 h 1.6 v -3.5 c 0.4,0.8 1.2,1.2 2,1.2 l 0.7,-0.1 0.601,-0.2 0.5,-0.4 0.399,-0.5 0.5,-1.2 0.101,-1.3 -0.101,-1.2 z m -1.6,1.9 -0.2,0.7 -0.2,0.3 -0.3,0.3 -0.4,0.2 h -0.4 c -0.9,0 -1.601,-0.7 -1.601,-1.6 v -0.9 c 0,0 0,0 0,-0.1 -0.1,-1 0.7,-1.8 1.601,-1.9 h 0.4 l 0.4,0.2 0.3,0.3 0.2,0.3 0.2,0.7 0.1,0.8 -0.1,0.7 z"
   id="path3116"
   style="fill:#000000"
   inkscape:connector-curvature="0" />
	</g>
	<g
   id="LWPOLYLINE_11_">
		<path
   d="m 71.9,94.1 v 3.8 h -1.2 v -3.4 c 0.1,-0.5 -0.3,-1 -0.8,-1 -0.101,0 -0.101,0 -0.2,0 -0.7,0 -1.3,0.7 -1.3,1.4 v 0.1 2.8 h -1.2 v -3.4 c 0.1,-0.5 -0.2,-1 -0.7,-1 -0.1,0 -0.1,0 -0.2,0 -0.8,0 -1.4,0.699 -1.3,1.5 0,0 0,0 0,0.1 v 2.8 H 63.8 V 92.4 H 65 v 1.2 c 0.3,-0.8 1,-1.3 1.8,-1.3 0.8,0 1.4,0.5 1.601,1.3 0.3,-0.699 1,-1.199 1.8,-1.3 h 0.1 c 0.799,0.1 1.599,0.9 1.599,1.8 z"
   id="path3119"
   style="fill:#000000"
   inkscape:connector-curvature="0" />
	</g>
	<g
   id="LWPOLYLINE_12_">
		<polygon
   points="39.3,35.6 42.9,35.6 42.9,37.1 39.3,37.1 39.3,39.9 43.8,39.9 43.8,41.4 37.5,41.4 37.5,31.5 43.8,31.5 43.8,33 39.3,33 "
   id="polygon3122"
   style="fill:#000000" />
	</g>
	<g
   id="LWPOLYLINE_13_">
		<path
   d="m 94,41.4 v -4.5 c 0.1,-0.7 -0.3,-1.3 -1,-1.4 h -0.1 c -1,0.2 -1.801,1.1 -1.601,2.2 l 0,0 v 3.7 h -1.6 v -7.2 h 1.5 v 1.7 c 0.3,-1 1.2,-1.7 2.2,-1.8 0.1,0 0.199,0 0.399,0 1.3,0.2 2.2,1.4 2,2.7 v 4.7 H 94 v -0.1 z"
   id="path3125"
   style="fill:#000000"
   inkscape:connector-curvature="0" />
	</g>
	<g
   id="LWPOLYLINE_14_">
		<polygon
   points="40.5,96.8 40.5,97.9 36,97.9 36,90.5 37.3,90.5 37.3,96.8 "
   id="polygon3128"
   style="fill:#000000" />
	</g>
	<g
   id="LWPOLYLINE_15_">
		<polygon
   points="54.1,92.5 52.5,97.9 51.4,97.9 50.5,94.1 49.5,97.9 48.3,97.9 46.6,92.5 47.9,92.5 49,96.2 50,92.5 51.1,92.5 52,96.1 53.1,92.5 "
   id="polygon3131"
   style="fill:#000000" />
	</g>
	<g
   id="LWPOLYLINE_16_">
		<polygon
   points="61.8,93.6 61.8,94.7 59.1,94.7 59.1,96.8 62.5,96.8 62.5,97.9 57.8,97.9 57.8,90.5 62.5,90.5 62.5,91.7 59.1,91.7 59.1,93.6 "
   id="polygon3134"
   style="fill:#000000" />
	</g>
	<g
   id="LWPOLYLINE_17_">
		<polygon
   points="81.8,85.7 108.3,85.7 108.3,76.8 93.1,76.8 107.4,52.2 107.4,46.3 82.7,46.3 82.7,55.2 96,55.2 81.8,79.8 "
   id="polygon3137"
   style="fill:#000000" />
	</g>
	<g
   id="LWPOLYLINE_18_">
		<polygon
   points="58.8,107.2 58.8,108.3 53.3,108.3 53.3,107.3 57.2,102.1 53.6,102.1 53.6,101 58.7,101 58.7,102.1 54.9,107.2 "
   id="polygon3140"
   style="fill:#000000" />
	</g>
	<g
   id="LWPOLYLINE_19_">
		<rect
   x="73.300003"
   y="90.5"
   width="1.2"
   height="1.3"
   id="rect3143"
   style="fill:#aaaaaa" />
	</g>
	<g
   id="LWPOLYLINE_20_">
		<rect
   x="73.300003"
   y="92.5"
   width="1.2"
   height="5.4000001"
   id="rect3146"
   style="fill:#000000" />
	</g>
	<g
   id="LWPOLYLINE_21_">
		<rect
   x="86"
   y="90.5"
   width="1.2"
   height="1.3"
   id="rect3149"
   style="fill:#000000" />
	</g>
	<g
   id="LWPOLYLINE_22_">
		<rect
   x="86"
   y="92.5"
   width="1.2"
   height="5.4000001"
   id="rect3152"
   style="fill:#000000" />
	</g>
	<g
   id="LWPOLYLINE_23_">
		<polygon
   points="75.8,46.3 53.2,46.3 53.2,85.7 75.8,85.7 75.8,76.8 62.1,76.8 62.1,70.2 73.9,70.2 73.9,61.8 62.1,61.8 62.1,55.2 75.8,55.2 "
   id="polygon3155"
   style="fill:#000000" />
	</g>
	<g
   id="LWPOLYLINE_24_">
		<polygon
   points="47.3,76.8 34.5,76.8 34.5,46.3 25.6,46.3 25.6,85.7 47.3,85.7 "
   id="polygon3158"
   style="fill:#000000" />
	</g>
	<g
   id="g3160">
		<path
   d="M 87.8,40.7 87.7,39.9 V 36.6 35.9 L 87.6,35.2 87.2,34.6 86.5,34.1 85.7,34 h -0.9 c -1.5,-0.2 -2.899,0.6 -3.3,2.1 l 1.4,0.3 c 0.199,-0.7 1,-1.1 1.699,-1 h 0.5 l 0.5,0.1 0.2,0.1 0.2,0.2 0.1,0.5 v 0.5 H 85.9 85.6 l -1.4,0.1 -1.4,0.3 -0.6,0.3 -0.5,0.5 -0.3,0.6 -0.1,0.7 c 0,1.2 1,2.2 2.2,2.2 0.1,0 0.1,0 0.2,0 1.1,0.1 2.1,-0.6 2.399,-1.6 l 0.101,0.7 0.2,0.8 H 88 l -0.2,-0.7 z m -1.7,-2.3 c 0,0.1 0,0.1 0,0.2 -0.1,0.9 -0.9,1.7 -1.9,1.6 0,0 0,0 -0.101,0 -0.6,0.1 -1.199,-0.4 -1.199,-1 L 83,38.7 83.3,38.3 83.7,38.1 84.1,38 85,37.9 h 0.9 v 0.5 h 0.2 z"
   id="path3162"
   style="fill:#000000"
   inkscape:connector-curvature="0" />
	</g>
	<g
   id="g3164">
		<path
   d="m 64.5,105.6 c 0.1,-1.399 -0.9,-2.699 -2.3,-2.8 -0.1,0 -0.1,0 -0.2,0 -1.4,0 -2.6,1.2 -2.6,2.601 0,0.1 0,0.1 0,0.199 -0.1,1.4 0.9,2.7 2.3,2.801 h 0.1 c 1.4,0 2.6,-1.2 2.6,-2.7 0.1,-10e-4 0.1,-10e-4 0.1,-0.101 z m -1.3,0.6 -0.2,0.6 -0.2,0.3 -0.3,0.2 -0.6,0.101 -0.6,-0.2 -0.4,-0.4 -0.2,-0.6 -0.1,-0.601 0.1,-0.6 0.2,-0.6 0.2,-0.301 0.2,-0.199 0.6,-0.101 0.6,0.101 0.2,0.199 0.2,0.301 0.2,0.6 0.1,0.6 v 0.6 z"
   id="path3166"
   style="fill:#000000"
   inkscape:connector-curvature="0" />
	</g>
	<g
   id="g3168">
		<path
   d="m 74.1,102.8 c -0.1,0 -0.199,0 -0.199,0 -1.4,0 -2.601,1.2 -2.601,2.601 0,0.1 0,0.199 0,0.199 -0.1,1.4 0.9,2.601 2.3,2.801 0.101,0 0.2,0 0.301,0 1.1,0 2.1,-0.7 2.399,-1.7 L 75.1,106.6 c -0.199,0.5 -0.699,0.9 -1.199,0.801 -0.101,0 -0.2,0 -0.301,0 -0.699,-0.2 -1.199,-0.9 -1,-1.601 h 3.8 v -0.1 c 0,-1.4 -0.9,-2.7 -2.3,-2.9 z m -1.6,2.2 c 0,-0.7 0.6,-1.3 1.3,-1.3 0,0 0,0 0.101,0 0.699,0 1.199,0.6 1.199,1.3 h -2.6 z"
   id="path3170"
   style="fill:#000000"
   inkscape:connector-curvature="0" />
	</g>
	<g
   id="LWPOLYLINE_30_">
		<path
   d="m 80.1,105.1 -1.1,-0.2 -0.5,-0.101 -0.2,-0.1 -0.1,-0.101 v -0.1 -0.1 l 0.1,-0.101 0.101,-0.1 0.1,-0.101 0.6,-0.1 0.5,0.1 0.2,0.2 0.101,0.3 L 81,104.4 c -0.2,-0.9 -1.1,-1.5 -2.1,-1.4 -1,-0.1 -1.9,0.6 -2,1.6 0,0.101 0,0.101 0,0.2 0,0.9 0.699,1.601 1.6,1.601 l 1,0.199 c 0.3,0 0.5,0.2 0.6,0.5 v 0.2 l -0.1,0.2 -0.1,0.1 -0.2,0.101 -0.7,0.1 c -0.5,0.101 -0.9,-0.2 -1.1,-0.6 l -1.2,0.2 c 0.3,1 1.3,1.6 2.3,1.399 l 0.7,-0.1 0.7,-0.2 0.5,-0.3 0.3,-0.5 0.1,-0.601 C 81.4,105.9 80.9,105.2 80.1,105.1 z"
   id="path3173"
   style="fill:#000000"
   inkscape:connector-curvature="0" />
	</g>
	<g
   id="g3175">
		<path
   d="m 46.1,95.2 c 0.1,-1.4 -0.9,-2.7 -2.3,-2.8 -0.1,0 -0.1,0 -0.2,0 -1.4,0 -2.6,1.2 -2.6,2.6 0,0.1 0,0.1 0,0.2 0,1.399 1,2.7 2.4,2.8 h 0.1 c 1.4,0 2.6,-1.2 2.6,-2.7 v -0.1 z m -1.3,0.6 -0.2,0.6 -0.2,0.3 -0.3,0.2 -0.5,0.1 -0.6,-0.2 -0.4,-0.4 -0.2,-0.6 -0.1,-0.6 0.1,-0.601 0.2,-0.6 0.2,-0.3 0.2,-0.2 0.6,-0.1 0.6,0.1 0.2,0.2 0.2,0.3 0.2,0.6 0.1,0.601 -0.1,0.6 z"
   id="path3177"
   style="fill:#000000"
   inkscape:connector-curvature="0" />
	</g>
	<g
   id="g3179">
		<path
   d="m 77.3,34 c -0.1,0 -0.2,0 -0.3,0 -1.9,0 -3.5,1.6 -3.5,3.5 0,0.1 0,0.2 0,0.3 -0.2,1.9 1.2,3.5 3,3.7 0.1,0 0.2,0 0.3,0 1.5,0.1 2.8,-0.9 3.2,-2.3 l -1.6,-0.1 c -0.2,0.7 -0.9,1.1 -1.601,1.1 -0.1,0 -0.2,0 -0.3,0 -1,-0.2 -1.6,-1.2 -1.4,-2.2 H 80.2 V 37.8 C 80.4,35.9 79.1,34.2 77.3,34 z m -2.1,2.9 c 0,-1 0.8,-1.8 1.7,-1.8 H 77 c 0.9,0 1.6,0.8 1.6,1.8 h -3.4 z"
   id="path3181"
   style="fill:#000000"
   inkscape:connector-curvature="0" />
	</g>
	<g
   id="LWPOLYLINE_34_">
		<path
   d="M 78.7,94.7 77.6,94.5 77.1,94.4 76.9,94.3 76.8,94.2 V 94.1 94 l 0.101,-0.1 0.099,-0.1 0.1,-0.1 0.6,-0.1 0.5,0.101 0.2,0.2 0.1,0.3 1.1,-0.2 c -0.199,-0.9 -1.1,-1.5 -2.1,-1.4 -1,-0.1 -1.9,0.601 -2,1.601 0,0.1 0,0.1 0,0.2 0,0.899 0.7,1.6 1.6,1.6 l 1,0.2 c 0.301,0 0.5,0.2 0.601,0.5 v 0.2 L 78.6,97.1 78.5,97.2 78.3,97.3 77.7,97 c -0.5,0.1 -0.9,-0.2 -1.101,-0.6 L 75.4,96.6 c 0.3,1 1.3,1.601 2.3,1.4 l 0.7,-0.1 0.699,-0.2 0.5,-0.3 0.301,-0.5 0.1,-0.6 c 0,-0.8 -0.6,-1.5 -1.3,-1.6 z"
   id="path3184"
   style="fill:#000000"
   inkscape:connector-curvature="0" />
	</g>
	<g
   id="LWPOLYLINE_35_">
		<path
   d="M 83.7,94.7 82.6,94.5 82.1,94.4 81.9,94.3 81.8,94.2 V 94.1 94 l 0.101,-0.1 0.099,-0.1 0.1,-0.1 0.6,-0.1 0.5,0.101 0.2,0.2 0.1,0.3 1.1,-0.2 c -0.199,-0.9 -1.1,-1.5 -2.1,-1.4 -1,-0.1 -1.9,0.601 -2,1.601 0,0.1 0,0.1 0,0.2 0,0.899 0.7,1.6 1.6,1.6 l 1,0.2 c 0.301,0 0.5,0.2 0.601,0.5 v 0.2 L 83.6,97.1 83.5,97.2 83.3,97.3 82.7,97 c -0.5,0.1 -0.9,-0.2 -1.101,-0.6 L 80.4,96.6 c 0.3,1 1.3,1.601 2.3,1.4 l 0.7,-0.1 0.699,-0.2 0.5,-0.3 0.301,-0.5 0.1,-0.6 c 0,-0.8 -0.5,-1.5 -1.3,-1.6 z"
   id="path3187"
   style="fill:#000000"
   inkscape:connector-curvature="0" />
	</g>
	<g
   id="g3189">
		<path
   d="m 93.4,95.2 c 0.1,-1.4 -0.9,-2.7 -2.301,-2.8 -0.1,0 -0.1,0 -0.199,0 -1.4,0 -2.6,1.2 -2.6,2.6 0,0.1 0,0.1 0,0.2 -0.1,1.399 0.9,2.7 2.3,2.8 h 0.1 c 1.399,0 2.6,-1.2 2.6,-2.7 0.1,0 0.1,-0.1 0.1,-0.1 z m -1.3,0.6 -0.2,0.6 -0.2,0.3 -0.3,0.2 -0.5,0.1 -0.6,-0.2 -0.4,-0.4 -0.2,-0.6 -0.1,-0.6 0.1,-0.6 0.2,-0.6 0.199,-0.3 0.2,-0.2 0.601,-0.1 0.6,0.1 0.2,0.2 0.2,0.3 0.199,0.6 0.101,0.6 -0.1,0.6 z"
   id="path3191"
   style="fill:#000000"
   inkscape:connector-curvature="0" />
	</g>
	<g
   id="g3193">
		<path
   d="m 64.5,37.7 c 0.2,-1.9 -1.2,-3.5 -3.1,-3.7 -0.1,0 -0.1,0 -0.2,0 -1.9,0 -3.4,1.6 -3.4,3.5 0,0.1 0,0.2 0,0.2 -0.2,1.9 1.2,3.6 3.1,3.8 0.1,0 0.1,0 0.2,0 1.9,0 3.5,-1.6 3.4,-3.5 0,-0.1 0,-0.2 0,-0.3 z m -1.7,0.9 -0.3,0.8 -0.2,0.3 -0.4,0.3 -0.4,0.1 H 61.1 60.7 L 60.3,39.9 60,39.7 59.8,39.4 59.5,38.6 59.4,37.8 59.5,37 l 0.3,-0.8 0.2,-0.3 0.3,-0.3 0.4,-0.1 h 0.4 0.4 l 0.4,0.1 0.3,0.3 0.2,0.3 0.3,0.8 0.1,0.8 v 0.8 z"
   id="path3195"
   style="fill:#000000"
   inkscape:connector-curvature="0" />
	</g>
</g>
</svg>