<?xml version="1.0" encoding="utf-8"?>
<!-- Generator: Adobe Illustrator 16.0.2, SVG Export Plug-In . SVG Version: 6.00 Build 0)  -->
<!DOCTYPE svg PUBLIC "-//W3C//DTD SVG 1.1//EN" "http://www.w3.org/Graphics/SVG/1.1/DTD/svg11.dtd">
<svg version="1.1" id="Capa_1" xmlns="http://www.w3.org/2000/svg" xmlns:xlink="http://www.w3.org/1999/xlink" x="0px" y="0px"
	 width="120px" height="120px" viewBox="0 0 120 120" enable-background="new 0 0 120 120" xml:space="preserve">
<path fill="#C1001F" d="M98.281,46.763l-5.859,10.604v31.93l5.859,5.859h2.93c4.846,0,8.789-3.943,8.789-8.789V37.272L98.281,46.763
	z"/>
<path fill="#E50027" d="M21.719,46.764L10,37.272v49.095c0,4.846,3.942,8.789,8.789,8.789h2.93l5.859-5.859V57.369L21.719,46.764z"
	/>
<g>
	<polygon fill="#CAE8F9" points="97.578,24.844 60,70.488 22.422,24.844 	"/>
	<path fill="#CAE8F9" d="M98.281,46.758v48.398H21.719V46.758l32.07,25.84c1.641,1.641,3.926,2.461,6.211,2.461
		s4.57-0.82,6.211-2.461L98.281,46.758z"/>
</g>
<g>
	<path fill="#B7E0F6" d="M98.281,46.758v48.398H60V75.059c2.285,0,4.57-0.82,6.211-2.461L98.281,46.758z"/>
	<polygon fill="#B7E0F6" points="97.578,24.844 60,70.488 60,24.844 	"/>
</g>
<path fill="#FD003A" d="M110,33.633v3.633L70.566,76.699c-2.754,2.813-6.641,4.277-10.566,4.277c-3.925,0-7.617-1.465-10.372-4.277
	L10,37.266v-3.633c0-4.746,3.925-8.789,8.789-8.789h3.633L60,62.227l37.578-37.383h3.633C106.074,24.844,110,28.887,110,33.633z"/>
<path fill="#E50027" d="M110,33.633v3.633L70.566,76.699c-2.754,2.813-6.641,4.277-10.566,4.277v-18.75l37.578-37.383h3.633
	C106.074,24.844,110,28.887,110,33.633z"/>
</svg>
