<?xml version="1.0" encoding="utf-8"?>
<!-- Generator: Adobe Illustrator 17.0.1, SVG Export Plug-In . SVG Version: 6.00 Build 0)  -->
<!DOCTYPE svg PUBLIC "-//W3C//DTD SVG 1.1//EN" "http://www.w3.org/Graphics/SVG/1.1/DTD/svg11.dtd">
<svg version="1.1" xmlns="http://www.w3.org/2000/svg" xmlns:xlink="http://www.w3.org/1999/xlink" x="0px" y="0px" width="114px"
	 height="114px" viewBox="0 0 114 114" enable-background="new 0 0 114 114" xml:space="preserve">
<g id="normal">
	<path fill-rule="evenodd" clip-rule="evenodd" fill="#cc6600" d="M101.979,31.251l-6.01,22.058l-8.88-2.341l5.928-21.756
		c0.024-0.088,0.09-0.19,0.138-0.286l-7.187-1.894L103.858,7.12l5.37,26.041L101.979,31.251L101.979,31.251z M69.916,46.074
		l2.962-10.869l11.606,3.058l-2.962,10.869L69.916,46.074L69.916,46.074z M51.853,41.313l2.962-10.868l11.606,3.058l-2.96,10.869
		L51.853,41.313L51.853,41.313z M33.79,36.553c0,0,0.6-4.092,5.11-6.729c4.689-2.74,9.459-1.082,9.459-1.082l-2.962,10.869
		L33.79,36.553L33.79,36.553z M40.558,57.377l-11.607-3.058l2.962-10.869l11.606,3.058L40.558,57.377L40.558,57.377z M35.718,75.141
		l-11.607-3.058l2.962-10.869l11.606,3.06L35.718,75.141L35.718,75.141z M31.427,90.079l-21.152-5.574L4.773,73.692l29.033,7.652
		L31.427,90.079L31.427,90.079z M74.01,91.515l-0.886-0.235c0.363-0.056,0.711-0.162,1.048-0.296L74.01,91.515L74.01,91.515z"/>
	<path fill-rule="evenodd" clip-rule="evenodd" fill="#14bd29" d="M86.811,80.198v2.911h-2.58v-2.911H53.907v2.911h-2.58v-2.911
		h-3.821v-2.514h42.741v2.514H86.811L86.811,80.198z M70.725,64.132h6.624l1.754,10.237h-8.378V64.132L70.725,64.132z
		 M60.422,64.132h6.622v10.237h-8.376L60.422,64.132L60.422,64.132z M67.045,82.608v24.277H53.096l4.166-24.311L67.045,82.608
		L67.045,82.608z M84.676,106.886H70.725V82.621l9.798,0.034L84.676,106.886L84.676,106.886z"/>
</g>
<g id="active">
	<path fill-rule="evenodd" clip-rule="evenodd" fill="#cc6600" d="M101.979,31.251l-6.01,22.058l-8.88-2.341l5.928-21.756
		c0.024-0.088,0.09-0.19,0.138-0.286l-7.187-1.894L103.858,7.12l5.37,26.041L101.979,31.251L101.979,31.251z M69.916,46.074
		l2.962-10.869l11.606,3.058l-2.962,10.869L69.916,46.074L69.916,46.074z M51.853,41.313l2.962-10.868l11.606,3.058l-2.96,10.869
		L51.853,41.313L51.853,41.313z M33.79,36.553c0,0,0.6-4.092,5.11-6.729c4.689-2.74,9.459-1.082,9.459-1.082l-2.962,10.869
		L33.79,36.553L33.79,36.553z M40.558,57.377l-11.607-3.058l2.962-10.869l11.606,3.058L40.558,57.377L40.558,57.377z M35.718,75.141
		l-11.607-3.058l2.962-10.869l11.606,3.06L35.718,75.141L35.718,75.141z M31.427,90.079l-21.152-5.574L4.773,73.692l29.033,7.652
		L31.427,90.079L31.427,90.079z M74.01,91.515l-0.886-0.235c0.363-0.056,0.711-0.162,1.048-0.296L74.01,91.515L74.01,91.515z"/>
	<path fill-rule="evenodd" clip-rule="evenodd" fill="#14bd29" d="M86.811,80.198v2.911h-2.58v-2.911H53.907v2.911h-2.58v-2.911
		h-3.821v-2.514h42.741v2.514H86.811L86.811,80.198z M70.725,64.132h6.624l1.754,10.237h-8.378V64.132L70.725,64.132z
		 M60.422,64.132h6.622v10.237h-8.376L60.422,64.132L60.422,64.132z M67.045,82.608v24.277H53.096l4.166-24.311L67.045,82.608
		L67.045,82.608z M84.676,106.886H70.725V82.621l9.798,0.034L84.676,106.886L84.676,106.886z"/>
</g>
<g id="disabled" opacity="0.6">
	<path fill-rule="evenodd" clip-rule="evenodd" fill="#cc6600" d="M101.979,31.251l-6.01,22.058l-8.88-2.341l5.928-21.756
		c0.024-0.088,0.09-0.19,0.138-0.286l-7.187-1.894L103.858,7.12l5.37,26.041L101.979,31.251L101.979,31.251z M69.916,46.074
		l2.962-10.869l11.606,3.058l-2.962,10.869L69.916,46.074L69.916,46.074z M51.853,41.313l2.962-10.868l11.606,3.058l-2.96,10.869
		L51.853,41.313L51.853,41.313z M33.79,36.553c0,0,0.6-4.092,5.11-6.729c4.689-2.74,9.459-1.082,9.459-1.082l-2.962,10.869
		L33.79,36.553L33.79,36.553z M40.558,57.377l-11.607-3.058l2.962-10.869l11.606,3.058L40.558,57.377L40.558,57.377z M35.718,75.141
		l-11.607-3.058l2.962-10.869l11.606,3.06L35.718,75.141L35.718,75.141z M31.427,90.079l-21.152-5.574L4.773,73.692l29.033,7.652
		L31.427,90.079L31.427,90.079z M74.01,91.515l-0.886-0.235c0.363-0.056,0.711-0.162,1.048-0.296L74.01,91.515L74.01,91.515z"/>
	<path fill-rule="evenodd" clip-rule="evenodd" fill="#14bd29" d="M86.811,80.198v2.911h-2.58v-2.911H53.907v2.911h-2.58v-2.911
		h-3.821v-2.514h42.741v2.514H86.811L86.811,80.198z M70.725,64.132h6.624l1.754,10.237h-8.378V64.132L70.725,64.132z
		 M60.422,64.132h6.622v10.237h-8.376L60.422,64.132L60.422,64.132z M67.045,82.608v24.277H53.096l4.166-24.311L67.045,82.608
		L67.045,82.608z M84.676,106.886H70.725V82.621l9.798,0.034L84.676,106.886L84.676,106.886z"/>
</g>
</svg>
