<?xml version="1.0" encoding="UTF-8" standalone="no"?>
<!-- Generator: Adobe Illustrator 17.1.0, SVG Export Plug-In . SVG Version: 6.00 Build 0)  -->

<svg
   xmlns:dc="http://purl.org/dc/elements/1.1/"
   xmlns:cc="http://creativecommons.org/ns#"
   xmlns:rdf="http://www.w3.org/1999/02/22-rdf-syntax-ns#"
   xmlns:svg="http://www.w3.org/2000/svg"
   xmlns="http://www.w3.org/2000/svg"
   xmlns:sodipodi="http://sodipodi.sourceforge.net/DTD/sodipodi-0.dtd"
   xmlns:inkscape="http://www.inkscape.org/namespaces/inkscape"
   version="1.1"
   x="0px"
   y="0px"
   width="120px"
   height="120px"
   viewBox="0 0 120 120"
   enable-background="new 0 0 120 120"
   xml:space="preserve"
   id="svg3896"
   inkscape:version="0.48.5 r10040"
   sodipodi:docname="ico_route_railwayferry.svg"><metadata
   id="metadata3916"><rdf:RDF><cc:Work
       rdf:about=""><dc:format>image/svg+xml</dc:format><dc:type
         rdf:resource="http://purl.org/dc/dcmitype/StillImage" /></cc:Work></rdf:RDF></metadata><defs
   id="defs3914" /><sodipodi:namedview
   pagecolor="#ffffff"
   bordercolor="#666666"
   borderopacity="1"
   objecttolerance="10"
   gridtolerance="10"
   guidetolerance="10"
   inkscape:pageopacity="0"
   inkscape:pageshadow="2"
   inkscape:window-width="1600"
   inkscape:window-height="1137"
   id="namedview3912"
   showgrid="false"
   inkscape:zoom="1.9666667"
   inkscape:cx="60"
   inkscape:cy="60"
   inkscape:window-x="-8"
   inkscape:window-y="-8"
   inkscape:window-maximized="1"
   inkscape:current-layer="svg3896" />
<g
   id="Layer_2"
   display="none">
	<circle
   display="inline"
   opacity="0.5"
   fill="#06FCF4"
   cx="60"
   cy="60"
   r="60"
   id="circle3899" />
	<rect
   x="6.5"
   y="6.5"
   display="inline"
   opacity="0.5"
   fill="#06FCF4"
   width="107"
   height="107"
   id="rect3901" />
</g>
<g
   id="normal">
	<path
   fill="#06FCF4"
   d="M6.5,75.239V60.835h107v14.404H6.5z M99.098,84.716c0,3.978-3.224,7.202-7.202,7.202   c-3.978,0-7.202-3.224-7.202-7.202c0-3.978,3.224-7.202,7.202-7.202C95.873,77.514,99.098,80.738,99.098,84.716L99.098,84.716z    M106.3,77.514c3.976,0,7.2,3.224,7.2,7.202c0,3.978-3.224,7.202-7.2,7.202c-3.978,0-7.202-3.224-7.202-7.202   C99.098,80.738,102.322,77.514,106.3,77.514L106.3,77.514z M20.962,84.716c0,3.978-3.224,7.202-7.202,7.202   c-3.976,0-7.2-3.224-7.2-7.202c0-3.978,3.224-7.202,7.2-7.202C17.737,77.514,20.962,80.738,20.962,84.716L20.962,84.716z    M28.164,77.514c3.978,0,7.202,3.224,7.202,7.202c0,3.978-3.224,7.202-7.202,7.202s-7.202-3.224-7.202-7.202   C20.962,80.738,24.186,77.514,28.164,77.514L28.164,77.514z M76.779,43.836c-4.491,0-8.141,3.417-8.603,7.783l-14.422-0.036   c-0.481-4.351-4.122-7.746-8.601-7.746c-4.462,0-8.1,3.376-8.596,7.703l-5.646-0.014c0,0-0.067-1.855,0.014-5.792   c0.063-2.96,6.748-8.059,8.603-8.259c5.191-0.558,10.557-1.069,10.557-1.069s3.201-4.37,4.252-6.158   c0.416-0.291,0.77-1.904,3.116-2.074c5.429-0.339,13.953,0.387,15.173,0.397c1.22,0.012,1.81,0.383,2.553,1.841   c0.772,1.509,3.114,6.89,3.114,6.89s5.658,0.476,8.95,0.852c1.446,0.166,2.197,0.334,2.844,2.363   c0.748,2.332,1.446,11.161,1.446,11.161l-6.149-0.014C84.945,47.277,81.282,43.836,76.779,43.836L76.779,43.836z M39.895,52.526   c0-2.907,2.358-5.265,5.265-5.265c2.909,0,5.268,2.358,5.268,5.265c0,2.909-2.358,5.268-5.268,5.268   C42.253,57.794,39.895,55.435,39.895,52.526L39.895,52.526z M71.519,52.526c0-2.907,2.358-5.265,5.268-5.265   c2.909,0,5.265,2.358,5.265,5.265c0,2.909-2.356,5.268-5.265,5.268C73.877,57.794,71.519,55.435,71.519,52.526L71.519,52.526z"
   id="path3904"
   style="fill:#4400aa" />
</g>


</svg>