<?xml version="1.0" encoding="iso-8859-1"?>
<!-- Generator: Adobe Illustrator 17.1.0, SVG Export Plug-In . SVG Version: 6.00 Build 0)  -->
<!DOCTYPE svg PUBLIC "-//W3C//DTD SVG 1.1//EN" "http://www.w3.org/Graphics/SVG/1.1/DTD/svg11.dtd">
<svg version="1.1" xmlns="http://www.w3.org/2000/svg" xmlns:xlink="http://www.w3.org/1999/xlink" x="0px" y="0px" width="120px"
	 height="120px" viewBox="0 0 120 120" enable-background="new 0 0 120 120" xml:space="preserve">
<g id="Layer_4" display="none">
	<circle display="inline" opacity="0.5" fill="#DF1F26" cx="60" cy="60" r="60"/>
	<rect x="6.5" y="6.5" display="inline" opacity="0.5" fill="#3B4FA1" width="107" height="107"/>
</g>
<g id="normal">
	<g>
		<path fill-rule="evenodd" clip-rule="evenodd" fill="#14bd29" d="M93.245,100.705c-0.013,3.244-2.693,5.886-5.985,5.9
			l-39.954,0.165l0.895-8.901l31.294-0.129c2.616-0.011,4.747-2.111,4.758-4.691l0.141-33.791l9.022,0.535L93.245,100.705
			L93.245,100.705z"/>
		<path fill-rule="evenodd" clip-rule="evenodd" fill="#cc6600" d="M94.334,30.382l-0.094,22.463l-9.025,0.038l0.092-22.158
			c0-0.09,0.037-0.202,0.058-0.306l-7.302,0.03L89.982,7l11.72,23.351L94.334,30.382L94.334,30.382z M67.67,52.605l0.048-11.07
			l11.794-0.049l-0.048,11.07L67.67,52.605L67.67,52.605z M49.315,52.68l0.048-11.07l11.794-0.048L61.11,52.632L49.315,52.68
			L49.315,52.68z M30.961,52.757c0,0-0.471-4.036,3.139-7.686c3.753-3.794,8.703-3.432,8.703-3.432l-0.046,11.069L30.961,52.757
			L30.961,52.757z M42.68,70.8l-11.794,0.049l0.046-11.069l11.794-0.049L42.68,70.8L42.68,70.8z M42.605,88.892L30.81,88.941
			l0.046-11.069l11.794-0.049L42.605,88.892L42.605,88.892z M41.769,99.654c0.834,3.112-1.013,6.312-4.126,7.146
			c-3.112,0.834-6.311-1.014-7.145-4.126c-0.834-3.112,1.013-6.312,4.124-7.146C37.737,94.694,40.936,96.542,41.769,99.654
			L41.769,99.654z"/>
	</g>
</g>
<g id="active">
	<g>
		<path fill-rule="evenodd" clip-rule="evenodd" fill="#14bd29" d="M93.245,100.705c-0.013,3.244-2.693,5.886-5.985,5.9
			l-39.954,0.165l0.895-8.901l31.294-0.129c2.616-0.011,4.747-2.111,4.758-4.691l0.141-33.791l9.022,0.535L93.245,100.705
			L93.245,100.705z"/>
		<path fill-rule="evenodd" clip-rule="evenodd" fill="#cc6600" d="M94.334,30.382l-0.094,22.463l-9.025,0.038l0.092-22.158
			c0-0.09,0.037-0.202,0.058-0.306l-7.302,0.03L89.982,7l11.72,23.351L94.334,30.382L94.334,30.382z M67.67,52.605l0.048-11.07
			l11.794-0.049l-0.048,11.07L67.67,52.605L67.67,52.605z M49.315,52.68l0.048-11.07l11.794-0.048L61.11,52.632L49.315,52.68
			L49.315,52.68z M30.961,52.757c0,0-0.471-4.036,3.139-7.686c3.753-3.794,8.703-3.432,8.703-3.432l-0.046,11.069L30.961,52.757
			L30.961,52.757z M42.68,70.8l-11.794,0.049l0.046-11.069l11.794-0.049L42.68,70.8L42.68,70.8z M42.605,88.892L30.81,88.941
			l0.046-11.069l11.794-0.049L42.605,88.892L42.605,88.892z M41.769,99.654c0.834,3.112-1.013,6.312-4.126,7.146
			c-3.112,0.834-6.311-1.014-7.145-4.126c-0.834-3.112,1.013-6.312,4.124-7.146C37.737,94.694,40.936,96.542,41.769,99.654
			L41.769,99.654z"/>
	</g>
</g>
<g id="disabled" opacity="0.2">
	<g>
		<path fill-rule="evenodd" clip-rule="evenodd" fill="#14bd29" d="M93.245,100.705c-0.013,3.244-2.693,5.886-5.985,5.9
			l-39.954,0.165l0.895-8.901l31.294-0.129c2.616-0.011,4.747-2.111,4.758-4.691l0.141-33.791l9.022,0.535L93.245,100.705
			L93.245,100.705z"/>
		<path fill-rule="evenodd" clip-rule="evenodd" fill="#cc6600" d="M94.334,30.382l-0.094,22.463l-9.025,0.038l0.092-22.158
			c0-0.09,0.037-0.202,0.058-0.306l-7.302,0.03L89.982,7l11.72,23.351L94.334,30.382L94.334,30.382z M67.67,52.605l0.048-11.07
			l11.794-0.049l-0.048,11.07L67.67,52.605L67.67,52.605z M49.315,52.68l0.048-11.07l11.794-0.048L61.11,52.632L49.315,52.68
			L49.315,52.68z M30.961,52.757c0,0-0.471-4.036,3.139-7.686c3.753-3.794,8.703-3.432,8.703-3.432l-0.046,11.069L30.961,52.757
			L30.961,52.757z M42.68,70.8l-11.794,0.049l0.046-11.069l11.794-0.049L42.68,70.8L42.68,70.8z M42.605,88.892L30.81,88.941
			l0.046-11.069l11.794-0.049L42.605,88.892L42.605,88.892z M41.769,99.654c0.834,3.112-1.013,6.312-4.126,7.146
			c-3.112,0.834-6.311-1.014-7.145-4.126c-0.834-3.112,1.013-6.312,4.124-7.146C37.737,94.694,40.936,96.542,41.769,99.654
			L41.769,99.654z"/>
	</g>
</g>
</svg>
