<?xml version="1.0" encoding="utf-8"?>
<!-- Generator: Adobe Illustrator 16.0.2, SVG Export Plug-In . SVG Version: 6.00 Build 0)  -->
<!DOCTYPE svg PUBLIC "-//W3C//DTD SVG 1.1//EN" "http://www.w3.org/Graphics/SVG/1.1/DTD/svg11.dtd">
<svg version="1.1" id="Layer_1" xmlns="http://www.w3.org/2000/svg" xmlns:xlink="http://www.w3.org/1999/xlink" x="0px" y="0px"
	 width="120px" height="120px" viewBox="0 0 120 120" enable-background="new 0 0 120 120" xml:space="preserve">
<g>
	<path fill="#483D8B" d="M106.882,12.005c1.15,0.36,2.562,1.891,2.882,3.08c0.219,0.791,0.27,9.132,0.219,37.096l-0.068,36.084
		l-0.631,1.061c-0.381,0.67-0.989,1.279-1.641,1.66l-1.011,0.609H89.88c-13.021-0.021-16.722,0.039-16.722,0.27
		c0,0.131,0.97,3.24,2.141,6.881c1.17,3.621,2.141,6.771,2.141,7.012c0,0.879-0.649,1.689-1.73,2.109
		c-1.01,0.381-2.068,0.41-16.592,0.41c-14.521,0-15.582-0.021-16.592-0.41c-1.1-0.43-1.73-1.24-1.73-2.16
		c0-0.27,0.971-3.461,2.16-7.131c1.621-4.951,2.091-6.701,1.891-6.83c-0.16-0.09-7.281-0.18-15.822-0.18
		c-15.382,0-15.582,0-16.502-0.471c-1.01-0.521-1.87-1.531-2.27-2.701C10.07,87.836,10,77.943,10,51.521
		c0-34.444,0.021-36.154,0.431-37.005c0.52-1.15,1.78-2.271,2.88-2.561C14.531,11.605,105.803,11.675,106.882,12.005z
		 M17.632,17.747c-0.431,0.2-1.011,0.72-1.28,1.149l-0.521,0.761V48.5v28.863h44.176h44.175V48.701
		c0-30.594,0.041-29.544-1.08-30.534c-0.25-0.22-0.74-0.49-1.08-0.61c-0.359-0.09-19.313-0.199-42.134-0.199
		C20.822,17.336,18.372,17.357,17.632,17.747z M57.856,82.244c-2.181,1.281-1.28,4.561,1.26,4.561c1.19,0,2.04-0.629,2.381-1.779
		C62.127,82.914,59.786,81.115,57.856,82.244z"/>
	<path fill="#483D8B" d="M73.857,25.727c0.34,0.9,0.4,0.94,1.531,1.12l1.189,0.2l-0.921,0.671c-0.521,0.359-0.921,0.699-0.921,0.739
		c0,0.021,0.16,0.49,0.341,1.011c0.181,0.539,0.312,1.01,0.271,1.029c-0.039,0.041-0.449-0.18-0.899-0.47
		c-0.99-0.7-0.99-0.7-2.021,0c-0.921,0.63-1.011,0.49-0.561-0.79c0.25-0.721,0.22-0.79-0.61-1.461
		c-0.829-0.699-0.829-0.719-0.31-0.85c0.289-0.09,0.81-0.16,1.148-0.16c0.49,0,0.65-0.16,0.852-0.85
		C73.338,24.687,73.479,24.667,73.857,25.727z"/>
	<path fill="#483D8B" d="M50.905,29.257c0,0.131-0.2,0.65-0.47,1.171c-0.63,1.239-1.46,4.61-1.641,6.7
		c-0.29,3.08,0.58,7.551,2.07,10.451c2.091,4.141,5.931,7.821,10.072,9.672c4.291,1.91,9.58,2.16,14.321,0.699
		c1.08-0.34,1.78-0.449,1.87-0.31c0.27,0.4-2.79,4.59-4.682,6.379c-4.09,3.912-8.301,5.461-14.231,5.191
		c-6.11-0.27-10.411-2.141-14.611-6.34c-4.141-4.141-5.961-8.502-5.98-14.273c0-3.96,0.63-6.681,2.41-10.121
		c1.21-2.341,2.86-4.411,4.921-6.141C47.625,30.087,50.905,28.377,50.905,29.257z"/>
	<path fill="#483D8B" d="M68.418,36.668l0.939,2.471h2.199c2.541,0,3.621,0.16,3.621,0.54c0,0.16-0.99,0.971-2.23,1.82l-2.199,1.55
		l0.54,1.8c0.31,0.99,0.649,2.021,0.76,2.32c0.61,1.602,0.091,1.551-2.67-0.25l-2.229-1.439l-2.23,1.439
		c-2.05,1.301-3.01,1.711-3.01,1.261c0-0.09,0.359-1.24,0.789-2.521c0.431-1.3,0.761-2.43,0.74-2.52
		c-0.039-0.091-1.01-0.851-2.181-1.691c-1.17-0.85-2.16-1.64-2.2-1.779c-0.11-0.36,1.03-0.541,3.621-0.541h2.27l0.9-2.43
		c0.561-1.51,1.03-2.43,1.26-2.471C67.389,34.199,67.697,34.808,68.418,36.668z"/>
</g>
</svg>
