<?xml version="1.0"?>
<svg xmlns="http://www.w3.org/2000/svg" viewBox="0 0 64 64" width="512" height="512"><path d="m3 26h14v35h-14z" fill="#eeeeed"/><path d="m17 3h30v58h-30z" fill="#d3ac5c"/><path d="m47 26h14.001v35h-14.001z" fill="#eeeeed"/><g fill="#5eb8ab"><path d="m29 52h6v9h-6z"/><path d="m51 48h6v4h-6z"/><path d="m51 39h6v4h-6z"/><path d="m51 30h6v4h-6z"/></g><path d="m40 7h2v50h-2z"/><path d="m34 7h2v42h-2z"/><path d="m12 46h2v6h-2z"/><path d="m6 46h2v6h-2z"/><path d="m11.99902 38h2v6h-2z"/><path d="m6 38h2v6h-2z"/><path d="m12 30h2v6h-2z"/><path d="m6.00098 30h2v6h-2z"/><path d="m28 7h2v42h-2z"/><path d="m22 7h2v50h-2z"/><path d="m51 53h6a.99943.99943 0 0 0 1-1v-4a.99943.99943 0 0 0 -1-1h-6a.99943.99943 0 0 0 -1 1v4a.99943.99943 0 0 0 1 1zm1-4h4v2h-4z"/><path d="m51 44h6a.99943.99943 0 0 0 1-1v-4a.99943.99943 0 0 0 -1-1h-6a.99943.99943 0 0 0 -1 1v4a.99943.99943 0 0 0 1 1zm1-4h4v2h-4z"/><path d="m51 35h6a.99943.99943 0 0 0 1-1v-4a.99943.99943 0 0 0 -1-1h-6a.99943.99943 0 0 0 -1 1v4a.99943.99943 0 0 0 1 1zm1-4h4v2h-4z"/><path d="m61.001 25h-13.001v-22a.99943.99943 0 0 0 -1-1h-30a.99943.99943 0 0 0 -1 1v22h-13a.99943.99943 0 0 0 -1 1v35a.99943.99943 0 0 0 1 1h44l.00049-.00012.00051.00012h14a.99943.99943 0 0 0 1-1v-35a.99943.99943 0 0 0 -1-1zm-57.001 2h12v33h-12zm26 33v-7h4v7zm16 0h-10v-7h2v-2h-12v2h2v7h-10v-56h28zm14.001 0h-12v-33h12z"/></svg>
