<?xml version="1.0" encoding="utf-8"?>
<!-- Generator: Adobe Illustrator 15.0.0, SVG Export Plug-In . SVG Version: 6.00 Build 0)  -->
<!DOCTYPE svg PUBLIC "-//W3C//DTD SVG 1.1//EN" "http://www.w3.org/Graphics/SVG/1.1/DTD/svg11.dtd">
<svg version="1.1" id="Слой_1" xmlns="http://www.w3.org/2000/svg" xmlns:xlink="http://www.w3.org/1999/xlink" x="0px" y="0px"
	 width="612px" height="614px" viewBox="0 93.5 612 614" enable-background="new 0 93.5 612 614" xml:space="preserve">
<g id="normal">
	<g id="d_1">
		<path fill="#1F0073" d="M534.429,609.075v35.317c0,30.36-17.039,30.457-38.066,30.457h-12.688
			c-21.027,0-38.071,0.755-38.071-30.457V611.4H166.397v32.992c0,30.36-17.049,30.457-38.071,30.457h-12.689
			c-21.027,0-38.066,0.755-38.066-30.457v-35.317c-14.754-5.237-25.382-19.187-25.382-35.746V167.222
			c0-21.033,17.039-38.072,38.066-38.072H521.75c21.027,0,38.066,17.039,38.066,38.072v406.107
			C559.812,589.889,549.184,603.838,534.429,609.075L534.429,609.075z M464.636,573.329c24.536,0,44.421-19.89,44.421-44.421
			c0-24.525-19.891-44.416-44.421-44.416c-24.526,0-44.416,19.891-44.416,44.416C420.22,553.439,440.109,573.329,464.636,573.329
			L464.636,573.329z M147.364,573.329c24.526,0,44.416-19.89,44.416-44.421c0-24.525-19.89-44.416-44.416-44.416
			c-24.536,0-44.421,19.891-44.421,44.416C102.943,553.439,122.833,573.329,147.364,573.329L147.364,573.329z M293.311,154.533
			H115.632c-21.027,0-38.066,17.039-38.066,38.066v253.822h215.74V154.533H293.311z M534.429,192.599
			c0-21.027-17.039-38.066-38.066-38.066H318.688v291.888h215.74V192.599L534.429,192.599z"/>
	</g>
	<g id="p_1" opacity="0.6">
		
			<radialGradient id="SVGID_1_" cx="60.4023" cy="732.3652" r="51.6675" gradientTransform="matrix(5.1 0 0 -40.8 -2.0523 30282.4805)" gradientUnits="userSpaceOnUse">
			<stop  offset="0.0061" style="stop-color:#F2F2F2;stop-opacity:0.52"/>
			<stop  offset="0.2424" style="stop-color:#EDEDED;stop-opacity:0.51"/>
			<stop  offset="0.4727" style="stop-color:#C3C3C3;stop-opacity:0.5"/>
			<stop  offset="0.7152" style="stop-color:#717171;stop-opacity:0.75"/>
			<stop  offset="0.903" style="stop-color:#5A5A5A;stop-opacity:0.8792"/>
			<stop  offset="0.9333" style="stop-color:#565656;stop-opacity:0.9"/>
		</radialGradient>
		<path fill="url(#SVGID_1_)" d="M534.429,609.075v35.317c0,30.36-17.039,30.457-38.066,30.457h-12.688
			c-21.027,0-38.071,0.755-38.071-30.457V611.4H166.397v32.992c0,30.36-17.049,30.457-38.071,30.457h-12.689
			c-21.027,0-38.066,0.755-38.066-30.457v-35.317c-14.754-5.237-25.382-19.187-25.382-35.746V167.222
			c0-21.033,17.039-38.072,38.066-38.072H521.75c21.027,0,38.066,17.039,38.066,38.072v406.107
			C559.812,589.889,549.184,603.838,534.429,609.075L534.429,609.075z M464.636,573.329c24.536,0,44.421-19.89,44.421-44.421
			c0-24.525-19.891-44.416-44.421-44.416c-24.526,0-44.416,19.891-44.416,44.416C420.22,553.439,440.109,573.329,464.636,573.329
			L464.636,573.329z M147.364,573.329c24.526,0,44.416-19.89,44.416-44.421c0-24.525-19.89-44.416-44.416-44.416
			c-24.536,0-44.421,19.891-44.421,44.416C102.943,553.439,122.833,573.329,147.364,573.329L147.364,573.329z M293.311,154.533
			H115.632c-21.027,0-38.066,17.039-38.066,38.066v253.822h215.74V154.533H293.311z M534.429,192.599
			c0-21.027-17.039-38.066-38.066-38.066H318.688v291.888h215.74V192.599L534.429,192.599z"/>
	</g>
</g>
</svg>
