<svg viewBox="0 0 120 120">
<g id="normal">
	<g>
		<g>
			<linearGradient id="SVGID_1_" gradientUnits="userSpaceOnUse" x1="9.995" y1="25.5198" x2="109.995" y2="25.5198">
				<stop  offset="0" style="stop-color:#FFFFFF"/>
				<stop  offset="1" style="stop-color:#8AB6BD"/>
			</linearGradient>
			<path fill="url(#SVGID_1_)" d="M97.932,13.451H22.068c-6.663,0-12.073,5.4-12.073,12.063c0,6.673,5.409,12.073,12.073,12.073
				h75.863c6.663,0,12.063-5.4,12.063-12.073C109.995,18.851,104.595,13.451,97.932,13.451z M22.068,31.697
				c-3.418,0-6.182-2.763-6.182-6.182c0-3.409,2.763-6.173,6.182-6.173s6.182,2.763,6.182,6.173
				C28.25,28.933,25.486,31.697,22.068,31.697z"/>
			<path fill="#007DA8" d="M28.25,25.515c0,3.418-2.763,6.182-6.182,6.182s-6.182-2.763-6.182-6.182
				c0-3.409,2.763-6.173,6.182-6.173S28.25,22.105,28.25,25.515z"/>
			<linearGradient id="SVGID_2_" gradientUnits="userSpaceOnUse" x1="9.995" y1="60.0015" x2="109.995" y2="60.0015">
				<stop  offset="0" style="stop-color:#FFFFFF"/>
				<stop  offset="1" style="stop-color:#8AB6BD"/>
			</linearGradient>
			<path fill="url(#SVGID_2_)" d="M97.932,47.933H22.068c-6.663,0-12.073,5.4-12.073,12.063c0,6.673,5.409,12.073,12.073,12.073
				h75.863c6.663,0,12.063-5.4,12.063-12.073C109.995,53.333,104.595,47.933,97.932,47.933z M22.068,66.178
				c-3.418,0-6.182-2.763-6.182-6.182c0-3.409,2.763-6.173,6.182-6.173s6.182,2.763,6.182,6.173
				C28.25,63.415,25.486,66.178,22.068,66.178z"/>
			<path fill="#007DA8" d="M28.25,59.997c0,3.418-2.763,6.182-6.182,6.182s-6.182-2.763-6.182-6.182
				c0-3.409,2.763-6.173,6.182-6.173S28.25,56.587,28.25,59.997z"/>
			<linearGradient id="SVGID_3_" gradientUnits="userSpaceOnUse" x1="9.995" y1="94.4832" x2="109.995" y2="94.4832">
				<stop  offset="0" style="stop-color:#FFFFFF"/>
				<stop  offset="1" style="stop-color:#8AB6BD"/>
			</linearGradient>
			<path fill="url(#SVGID_3_)" d="M97.932,82.415H22.068c-6.663,0-12.073,5.4-12.073,12.073c0,6.663,5.409,12.063,12.073,12.063
				h75.863c6.663,0,12.063-5.4,12.063-12.063C109.995,87.815,104.595,82.415,97.932,82.415z M22.068,100.66
				c-3.418,0-6.182-2.763-6.182-6.173c0-3.418,2.763-6.182,6.182-6.182s6.182,2.763,6.182,6.182
				C28.25,97.897,25.486,100.66,22.068,100.66z"/>
			<path fill="#007DA8" d="M28.25,94.487c0,3.409-2.763,6.173-6.182,6.173s-6.182-2.763-6.182-6.173
				c0-3.418,2.763-6.182,6.182-6.182S28.25,91.069,28.25,94.487z"/>
		</g>
	</g>
</g>
<g id="active"><use xlink:href="#normal"/>
</g>
<g id="disabled" opacity=".2"><use xlink:href="#normal"/>
</g>
</svg>
