<?xml version="1.0" encoding="utf-8"?>
<!-- Generator: Adobe Illustrator 15.0.0, SVG Export Plug-In . SVG Version: 6.00 Build 0)  -->
<!DOCTYPE svg PUBLIC "-//W3C//DTD SVG 1.1//EN" "http://www.w3.org/Graphics/SVG/1.1/DTD/svg11.dtd">
<svg version="1.1" id="Layer_1" xmlns="http://www.w3.org/2000/svg" xmlns:xlink="http://www.w3.org/1999/xlink" x="0px" y="0px"
	 width="120px" height="120px" viewBox="0 0 120 120" enable-background="new 0 0 120 120" xml:space="preserve">
<g id="Layer_4" display="none">
	<circle display="inline" opacity="0.5" fill="#DF1F26" enable-background="new    " cx="60" cy="60" r="60"/>
	<rect x="6.5" y="6.5" display="inline" opacity="0.5" fill="#3B4FA1" enable-background="new    " width="107" height="107"/>
</g>
<g id="normal">
	<path fill="#0003FF" d="M101.873,48.721c0,5.551-2.232,11.979-5.645,18.583l-9.461-9.46c0.73-2.257,1.135-4.66,1.135-7.16
		c0.002-12.844-10.412-23.258-23.258-23.257c-2.955,0-5.772,0.573-8.375,1.579L71.121,43.86c0.611,0.612,0.611,1.605,0,2.216
		L60.037,57.16c-0.611,0.613-1.605,0.612-2.216,0L42.968,42.309c-1.007,2.602-1.581,5.419-1.58,8.376
		c0,12.844,10.412,23.258,23.258,23.256c2.498,0,4.902-0.404,7.16-1.135l12.709,12.711C73.003,100.871,60.001,113.5,60.001,113.5
		S18.127,72.782,18.127,48.721C18.127,25.403,36.875,6.5,60.001,6.5C83.125,6.499,101.874,25.403,101.873,48.721L101.873,48.721z"/>
</g>
<g id="active">
	<path fill="#0003FF" d="M101.873,48.721c0,5.551-2.232,11.979-5.645,18.583l-9.461-9.46c0.73-2.257,1.135-4.66,1.135-7.16
		c0.002-12.844-10.412-23.258-23.258-23.257c-2.955,0-5.772,0.573-8.375,1.579L71.121,43.86c0.611,0.612,0.611,1.605,0,2.216
		L60.037,57.16c-0.611,0.613-1.605,0.612-2.216,0L42.968,42.309c-1.007,2.602-1.581,5.419-1.58,8.376
		c0,12.844,10.412,23.258,23.258,23.256c2.498,0,4.902-0.404,7.16-1.135l12.709,12.711C73.003,100.871,60.001,113.5,60.001,113.5
		S18.127,72.782,18.127,48.721C18.127,25.403,36.875,6.5,60.001,6.5C83.125,6.499,101.874,25.403,101.873,48.721L101.873,48.721z"/>
</g>
<g id="disabled" opacity="0.2">
	<path fill="#FFFFFF" d="M101.873,48.721c0,5.551-2.232,11.979-5.645,18.583l-9.461-9.46c0.73-2.257,1.135-4.66,1.135-7.16
		c0.002-12.844-10.412-23.258-23.258-23.257c-2.955,0-5.772,0.573-8.375,1.579L71.121,43.86c0.611,0.612,0.611,1.605,0,2.216
		L60.037,57.16c-0.611,0.613-1.605,0.612-2.216,0L42.968,42.309c-1.007,2.602-1.581,5.419-1.58,8.376
		c0,12.844,10.412,23.258,23.258,23.256c2.498,0,4.902-0.404,7.16-1.135l12.709,12.711C73.003,100.871,60.001,113.5,60.001,113.5
		S18.127,72.782,18.127,48.721C18.127,25.403,36.875,6.5,60.001,6.5C83.125,6.499,101.874,25.403,101.873,48.721L101.873,48.721z"/>
</g>
</svg>
