<?xml version="1.0" encoding="utf-8"?>
<!-- Generator: Adobe Illustrator 19.2.1, SVG Export Plug-In . SVG Version: 6.00 Build 0)  -->
<svg version="1.1" id="Layer_1" xmlns="http://www.w3.org/2000/svg" xmlns:xlink="http://www.w3.org/1999/xlink" x="0px" y="0px"
	 viewBox="0 0 249 841.89" enable-background="new 0 0 249 841.89" xml:space="preserve">
<g>
	
		<linearGradient id="SVGID_1_" gradientUnits="userSpaceOnUse" x1="88.7185" y1="-60.1217" x2="160.3211" y2="63.8976" gradientTransform="matrix(1 0 0 1 -0.02 720.9844)">
		<stop  offset="0" style="stop-color:#F5F5F5"/>
		<stop  offset="1" style="stop-color:#ADADAD"/>
	</linearGradient>
	<path fill="url(#SVGID_1_)" d="M175.067,672.304c-13.649-13.65-31.608-21.17-50.567-21.17c-18.957,0-36.917,7.52-50.568,21.17
		c-13.651,13.652-21.169,31.611-21.169,50.568c0,18.959,7.518,36.918,21.169,50.568c13.652,13.65,31.611,21.17,50.568,21.17
		c18.959,0,36.918-7.52,50.567-21.17c13.652-13.65,21.171-31.609,21.171-50.568C196.238,703.916,188.72,685.957,175.067,672.304z
		 M124.499,784.613c-33.676,0-61.738-28.064-61.738-61.74c0-33.674,28.063-61.738,61.738-61.738s61.738,28.064,61.738,61.738
		C186.238,756.548,158.175,784.613,124.499,784.613z"/>
	
		<radialGradient id="SVGID_2_" cx="124.519" cy="1.6396" r="61.7385" gradientTransform="matrix(1 0 0 1 -0.02 720.9844)" gradientUnits="userSpaceOnUse">
		<stop  offset="0" style="stop-color:#FFA730"/>
		<stop  offset="1" style="stop-color:#BA0000"/>
	</radialGradient>
	<path fill="url(#SVGID_2_)" d="M62.761,722.623c0-33.674,28.063-61.738,61.738-61.738s61.738,28.064,61.738,61.738
		c0,33.676-28.063,61.74-61.738,61.74S62.761,756.298,62.761,722.623L62.761,722.623z"/>
</g>
<g>
	
		<linearGradient id="SVGID_3_" gradientUnits="userSpaceOnUse" x1="87.7178" y1="-362.0505" x2="159.3216" y2="-238.0292" gradientTransform="matrix(1 0 0 1 -0.02 720.9844)">
		<stop  offset="0" style="stop-color:#F5F5F5"/>
		<stop  offset="1" style="stop-color:#ADADAD"/>
	</linearGradient>
	<path fill="url(#SVGID_3_)" d="M174.067,370.376c-13.65-13.652-31.609-21.17-50.567-21.17s-36.917,7.518-50.569,21.17
		c-13.651,13.651-21.169,31.61-21.169,50.568s7.518,36.917,21.169,50.569c13.652,13.652,31.611,21.17,50.569,21.17
		s36.917-7.518,50.567-21.17c13.651-13.65,21.171-31.611,21.171-50.569S187.719,384.027,174.067,370.376z M123.499,482.683
		c-33.677,0-61.738-28.063-61.738-61.739c0-33.675,28.063-61.738,61.738-61.738s61.738,28.063,61.738,61.738
		C185.238,454.621,157.175,482.683,123.499,482.683z"/>
</g>
<g>
	
		<linearGradient id="SVGID_4_" gradientUnits="userSpaceOnUse" x1="88.7176" y1="-663.4774" x2="160.3215" y2="-539.4562" gradientTransform="matrix(1 0 0 1 -0.02 720.9844)">
		<stop  offset="0" style="stop-color:#F5F5F5"/>
		<stop  offset="1" style="stop-color:#ADADAD"/>
	</linearGradient>
	<path fill="url(#SVGID_4_)" d="M175.067,68.949c-13.65-13.652-31.609-21.17-50.567-21.17s-36.917,7.518-50.569,21.17
		C60.28,82.6,52.762,100.559,52.762,119.517s7.518,36.917,21.169,50.569c13.652,13.652,31.611,21.17,50.569,21.17
		s36.917-7.518,50.567-21.17c13.651-13.651,21.171-31.611,21.171-50.569C196.238,100.56,188.719,82.601,175.067,68.949z
		 M124.499,181.256c-33.677,0-61.738-28.063-61.738-61.739c0-33.675,28.063-61.738,61.738-61.738s61.738,28.063,61.738,61.738
		C186.238,153.194,158.175,181.256,124.499,181.256z"/>
</g>
</svg>
