<?xml version="1.0" encoding="utf-8"?>
<!-- Generator: Adobe Illustrator 16.0.0, SVG Export Plug-In . SVG Version: 6.00 Build 0)  -->
<!DOCTYPE svg PUBLIC "-//W3C//DTD SVG 1.1//EN" "http://www.w3.org/Graphics/SVG/1.1/DTD/svg11.dtd">
<svg version="1.1" id="Слой_1" xmlns="http://www.w3.org/2000/svg" xmlns:xlink="http://www.w3.org/1999/xlink" x="0px" y="0px"
	 width="120px" height="120px" viewBox="0 0 120 120" enable-background="new 0 0 120 120" xml:space="preserve">
<g id="normal_1_">
	
		<linearGradient id="SVGID_1_" gradientUnits="userSpaceOnUse" x1="-240.0791" y1="312.6543" x2="-236.2158" y2="312.6543" gradientTransform="matrix(1.816 -1.816 -1.816 -1.816 1066.3672 202.48)">
		<stop  offset="0" style="stop-color:#2C0000"/>
		<stop  offset="1" style="stop-color:#B7B7B7"/>
	</linearGradient>
	
		<linearGradient id="SVGID_2_" gradientUnits="userSpaceOnUse" x1="-240.0781" y1="312.6543" x2="-230.0466" y2="312.6543" gradientTransform="matrix(1.816 -1.816 -1.816 -1.816 1066.3672 202.48)">
		<stop  offset="0" style="stop-color:#2C0000"/>
		<stop  offset="1" style="stop-color:#B7B7B7"/>
	</linearGradient>
	
		<path fill="url(#SVGID_1_)" stroke="url(#SVGID_2_)" stroke-width="0.1868" stroke-linecap="round" stroke-linejoin="round" stroke-miterlimit="5.8" d="
		M57.953,66.03l7.002-6.917l9.317,9.206l-7.002,6.917L57.953,66.03z"/>
	
		<linearGradient id="SVGID_3_" gradientUnits="userSpaceOnUse" x1="-113.3188" y1="350.0928" x2="-108.221" y2="355.1906" gradientTransform="matrix(2.5682 0 0 -2.5682 372.4267 995.212)">
		<stop  offset="0" style="stop-color:#2A0000"/>
		<stop  offset="0.5" style="stop-color:#6B1D07"/>
		<stop  offset="1" style="stop-color:#C04A20"/>
	</linearGradient>
	
		<linearGradient id="SVGID_4_" gradientUnits="userSpaceOnUse" x1="-112.7803" y1="350.6318" x2="-108.1207" y2="355.2914" gradientTransform="matrix(2.5682 0 0 -2.5682 372.4267 995.212)">
		<stop  offset="0" style="stop-color:#000000"/>
		<stop  offset="1" style="stop-color:#721700"/>
	</linearGradient>
	<path fill="url(#SVGID_3_)" stroke="url(#SVGID_4_)" stroke-width="0.1868" d="M112.296,99.917c2.16,2.133,2.16,5.594,0,7.727
		l-5.069,5.006c-2.158,2.136-5.659,2.135-7.818,0L64.565,78.229c-2.158-2.133-2.158-5.591,0-7.724l5.071-5.01
		c2.158-2.134,5.66-2.134,7.819,0L112.296,99.917L112.296,99.917z"/>
	<path fill="#FF8035" fill-opacity="0.2" stroke="#480000" stroke-width="0.1868" stroke-opacity="0.2533" d="M76.73,64.78
		l2.154,8.509l-9.101-2.25l2.274,8.992l-7.574-1.872l3.314,3.274l4.26,0.845l2.733,0.438l-0.458-2.685l-1.145-5.629l5.695,1.134
		l2.718,0.453l-0.442-2.7l-1.055-5.177L76.73,64.78L76.73,64.78z"/>
	
		<linearGradient id="SVGID_5_" gradientUnits="userSpaceOnUse" x1="-128.8813" y1="358.248" x2="-128.8813" y2="383.7627" gradientTransform="matrix(2.5682 0 0 -2.5682 372.4267 995.212)">
		<stop  offset="0" style="stop-color:#FFFFFF"/>
		<stop  offset="1" style="stop-color:#B8D2DD"/>
	</linearGradient>
	<path fill="url(#SVGID_5_)" d="M74.6,42.393c0,18.095-14.848,32.764-33.163,32.764c-18.315,0-33.164-14.669-33.164-32.764
		S23.122,9.63,41.437,9.63C59.752,9.63,74.6,24.298,74.6,42.393L74.6,42.393z"/>
	
		<radialGradient id="SVGID_6_" cx="-116.2881" cy="356.0742" r="72.3435" gradientTransform="matrix(0.4584 0 0 -0.4529 94.7446 203.6554)" gradientUnits="userSpaceOnUse">
		<stop  offset="0" style="stop-color:#FFFFFF;stop-opacity:0"/>
		<stop  offset="0.3617" style="stop-color:#FFFFFF;stop-opacity:0"/>
		<stop  offset="1" style="stop-color:#294A56"/>
	</radialGradient>
	<path fill="url(#SVGID_6_)" d="M74.6,42.393c0,18.095-14.848,32.764-33.163,32.764c-18.315,0-33.164-14.669-33.164-32.764
		S23.122,9.63,41.437,9.63C59.752,9.63,74.6,24.298,74.6,42.393L74.6,42.393z"/>
	<g opacity="0.7" enable-background="new    ">
		
			<linearGradient id="SVGID_7_" gradientUnits="userSpaceOnUse" x1="-129.0991" y1="370.7148" x2="-129.0991" y2="383.6553" gradientTransform="matrix(2.451 0 0 -2.451 358.0864 952.4214)">
			<stop  offset="0" style="stop-color:#FFFFFF"/>
			<stop  offset="0.2414" style="stop-color:#FCFDFE"/>
			<stop  offset="0.4222" style="stop-color:#F2F7F9"/>
			<stop  offset="0.5833" style="stop-color:#E2EDF1"/>
			<stop  offset="0.7329" style="stop-color:#CCDEE6"/>
			<stop  offset="0.8733" style="stop-color:#AECCD8"/>
			<stop  offset="1" style="stop-color:#8DB7C8"/>
		</linearGradient>
		<path fill="url(#SVGID_7_)" d="M42.451,39.462c15.792-9.437,28.763-0.513,28.763-0.513C70.628,24.02,57.628,12.086,41.676,12.086
			c-16.324,0-29.559,12.498-29.559,27.917C12.118,40.004,26.659,48.899,42.451,39.462L42.451,39.462z"/>
	</g>
	
		<linearGradient id="SVGID_8_" gradientUnits="userSpaceOnUse" x1="-129.1914" y1="357.084" x2="-129.1914" y2="385.4932" gradientTransform="matrix(2.451 0 0 -2.451 358.0864 952.4214)">
		<stop  offset="0" style="stop-color:#2C0000"/>
		<stop  offset="1" style="stop-color:#B7B7B7"/>
	</linearGradient>
	<path fill="url(#SVGID_8_)" d="M41.433,7.582C22.013,7.582,6.2,23.204,6.2,42.389c0,19.186,15.813,34.823,35.233,34.823
		S76.68,61.574,76.68,42.389C76.68,23.203,60.853,7.582,41.433,7.582z M41.433,11.678c17.153,0,31.101,13.766,31.101,30.71
		c0,16.946-13.948,30.727-31.101,30.727S10.347,59.336,10.347,42.389C10.347,25.443,24.279,11.678,41.433,11.678z"/>
	<path opacity="0.1509" fill="#F3D2AF" enable-background="new    " d="M41.433,8.449c-18.95,0-34.354,15.219-34.354,33.939
		c0,18.722,15.404,33.955,34.354,33.955c18.951,0,34.369-15.233,34.369-33.955C75.802,23.668,60.383,8.449,41.433,8.449z
		 M41.433,10.811c17.623,0,31.979,14.17,31.979,31.578c0,17.41-14.356,31.594-31.979,31.594c-17.622,0-31.964-14.184-31.964-31.594
		C9.468,24.98,23.811,10.811,41.433,10.811z"/>
	<g opacity="0.5" enable-background="new    ">
		<path d="M63.03,73.457c-0.288,1.685,0.225,3.479,1.54,4.777l34.844,34.411c2.159,2.134,5.659,2.134,7.818,0l5.067-5.007
			c1.315-1.298,1.813-3.084,1.527-4.766c-0.185,1.079-0.683,2.112-1.527,2.945l-5.067,5.007c-2.159,2.133-5.659,2.132-7.818,0
			L64.57,76.414C63.728,75.581,63.215,74.536,63.03,73.457z"/>
	</g>
	<g opacity="0.5" enable-background="new    ">
		<path fill="#FFFFFF" d="M73.54,63.896c-1.414,0-2.822,0.528-3.901,1.592l-5.068,5.01c-1.315,1.299-1.828,3.093-1.54,4.779
			c0.185-1.08,0.697-2.126,1.54-2.959l5.068-5.006c2.159-2.135,5.66-2.135,7.818,0l34.843,34.422
			c0.847,0.836,1.344,1.876,1.527,2.959c0.288-1.685-0.21-3.479-1.527-4.779L77.457,65.488
			C76.377,64.424,74.956,63.896,73.54,63.896z"/>
	</g>
	<g opacity="0.4" enable-background="new    ">
		<path fill="#FFFFFF" d="M41.433,8.449c-14.896,0-27.599,9.401-32.353,22.519c0.676,0.48,1.358,0.945,2.059,1.394
			c4.257-12.504,16.223-21.551,30.294-21.551c12.427,0,23.219,7.051,28.509,17.312c0.623-0.539,1.232-1.095,1.828-1.665
			C65.983,15.748,54.56,8.449,41.433,8.449z"/>
	</g>
	<path fill="#FF8035" fill-opacity="0.2" stroke="#480000" stroke-width="0.1868" stroke-opacity="0.2533" d="M83.571,71.537
		l2.153,8.51l-9.101-2.249l2.275,8.992l-7.574-1.873l3.313,3.273l4.261,0.847l2.733,0.438l-0.458-2.686l-1.146-5.628l5.695,1.132
		l2.717,0.45L88,80.047l-1.053-5.176L83.571,71.537z"/>
	<path fill="#FF8035" fill-opacity="0.2" stroke="#480000" stroke-width="0.1868" stroke-opacity="0.2533" d="M90.413,78.296
		l2.152,8.509l-9.101-2.249l2.275,8.991l-7.573-1.871l3.313,3.273l4.26,0.845l2.732,0.437l-0.457-2.684L86.87,87.92l5.695,1.132
		l2.718,0.452l-0.443-2.699l-1.053-5.176L90.413,78.296z"/>
	<path fill="#FF8035" fill-opacity="0.2" stroke="#480000" stroke-width="0.1868" stroke-opacity="0.2533" d="M97.253,85.054
		l2.153,8.507l-9.101-2.247l2.275,8.991l-7.573-1.87l3.313,3.272l4.261,0.846l2.733,0.437l-0.459-2.685l-1.145-5.626l5.695,1.131
		l2.718,0.452l-0.442-2.701l-1.055-5.173L97.253,85.054L97.253,85.054z"/>
	<path fill="#FF8035" fill-opacity="0.2" stroke="#480000" stroke-width="0.1868" stroke-opacity="0.2533" d="M104.093,91.813
		l2.153,8.507l-9.101-2.246l2.275,8.989l-7.574-1.869l3.314,3.272l4.26,0.846l2.734,0.436l-0.459-2.685l-1.146-5.627l5.695,1.133
		l2.719,0.453l-0.442-2.702l-1.054-5.173L104.093,91.813z"/>
</g>
<g id="active_1_">
	
		<linearGradient id="SVGID_9_" gradientUnits="userSpaceOnUse" x1="-240.0791" y1="312.6543" x2="-236.2158" y2="312.6543" gradientTransform="matrix(1.816 -1.816 -1.816 -1.816 1066.3672 202.48)">
		<stop  offset="0" style="stop-color:#2C0000"/>
		<stop  offset="1" style="stop-color:#B7B7B7"/>
	</linearGradient>
	
		<linearGradient id="SVGID_10_" gradientUnits="userSpaceOnUse" x1="-240.0781" y1="312.6543" x2="-230.0466" y2="312.6543" gradientTransform="matrix(1.816 -1.816 -1.816 -1.816 1066.3672 202.48)">
		<stop  offset="0" style="stop-color:#2C0000"/>
		<stop  offset="1" style="stop-color:#B7B7B7"/>
	</linearGradient>
	
		<path fill="url(#SVGID_9_)" stroke="url(#SVGID_10_)" stroke-width="0.1868" stroke-linecap="round" stroke-linejoin="round" stroke-miterlimit="5.8" d="
		M57.953,66.03l7.002-6.917l9.317,9.206l-7.002,6.917L57.953,66.03z"/>
	
		<linearGradient id="SVGID_11_" gradientUnits="userSpaceOnUse" x1="-113.3188" y1="350.0928" x2="-108.221" y2="355.1906" gradientTransform="matrix(2.5682 0 0 -2.5682 372.4267 995.212)">
		<stop  offset="0" style="stop-color:#2A0000"/>
		<stop  offset="0.5" style="stop-color:#6B1D07"/>
		<stop  offset="1" style="stop-color:#C04A20"/>
	</linearGradient>
	
		<linearGradient id="SVGID_12_" gradientUnits="userSpaceOnUse" x1="-112.7803" y1="350.6318" x2="-108.1207" y2="355.2914" gradientTransform="matrix(2.5682 0 0 -2.5682 372.4267 995.212)">
		<stop  offset="0" style="stop-color:#000000"/>
		<stop  offset="1" style="stop-color:#721700"/>
	</linearGradient>
	<path fill="url(#SVGID_11_)" stroke="url(#SVGID_12_)" stroke-width="0.1868" d="M112.296,99.917c2.16,2.133,2.16,5.594,0,7.727
		l-5.069,5.006c-2.158,2.136-5.659,2.135-7.818,0L64.565,78.229c-2.158-2.133-2.158-5.591,0-7.724l5.071-5.01
		c2.158-2.134,5.66-2.134,7.819,0L112.296,99.917L112.296,99.917z"/>
	<path fill="#FF8035" fill-opacity="0.2" stroke="#480000" stroke-width="0.1868" stroke-opacity="0.2533" d="M76.73,64.78
		l2.154,8.509l-9.101-2.25l2.274,8.992l-7.574-1.872l3.314,3.274l4.26,0.845l2.733,0.438l-0.458-2.685l-1.145-5.629l5.695,1.134
		l2.718,0.453l-0.442-2.7l-1.055-5.177L76.73,64.78L76.73,64.78z"/>
	
		<linearGradient id="SVGID_13_" gradientUnits="userSpaceOnUse" x1="-128.8813" y1="358.248" x2="-128.8813" y2="383.7627" gradientTransform="matrix(2.5682 0 0 -2.5682 372.4267 995.212)">
		<stop  offset="0" style="stop-color:#FFFFFF"/>
		<stop  offset="1" style="stop-color:#B8D2DD"/>
	</linearGradient>
	<path fill="url(#SVGID_13_)" d="M74.6,42.393c0,18.095-14.848,32.764-33.163,32.764c-18.315,0-33.164-14.669-33.164-32.764
		S23.122,9.63,41.437,9.63C59.752,9.63,74.6,24.298,74.6,42.393L74.6,42.393z"/>
	
		<radialGradient id="SVGID_14_" cx="-116.2881" cy="356.0742" r="72.3435" gradientTransform="matrix(0.4584 0 0 -0.4529 94.7446 203.6554)" gradientUnits="userSpaceOnUse">
		<stop  offset="0" style="stop-color:#FFFFFF;stop-opacity:0"/>
		<stop  offset="0.3617" style="stop-color:#FFFFFF;stop-opacity:0"/>
		<stop  offset="1" style="stop-color:#294A56"/>
	</radialGradient>
	<path fill="url(#SVGID_14_)" d="M74.6,42.393c0,18.095-14.848,32.764-33.163,32.764c-18.315,0-33.164-14.669-33.164-32.764
		S23.122,9.63,41.437,9.63C59.752,9.63,74.6,24.298,74.6,42.393L74.6,42.393z"/>
	<g opacity="0.7" enable-background="new    ">
		
			<linearGradient id="SVGID_15_" gradientUnits="userSpaceOnUse" x1="-129.0991" y1="370.7148" x2="-129.0991" y2="383.6553" gradientTransform="matrix(2.451 0 0 -2.451 358.0864 952.4214)">
			<stop  offset="0" style="stop-color:#FFFFFF"/>
			<stop  offset="0.2414" style="stop-color:#FCFDFE"/>
			<stop  offset="0.4222" style="stop-color:#F2F7F9"/>
			<stop  offset="0.5833" style="stop-color:#E2EDF1"/>
			<stop  offset="0.7329" style="stop-color:#CCDEE6"/>
			<stop  offset="0.8733" style="stop-color:#AECCD8"/>
			<stop  offset="1" style="stop-color:#8DB7C8"/>
		</linearGradient>
		<path fill="url(#SVGID_15_)" d="M42.451,39.462c15.792-9.437,28.763-0.513,28.763-0.513C70.628,24.02,57.628,12.086,41.676,12.086
			c-16.324,0-29.559,12.498-29.559,27.917C12.118,40.004,26.659,48.899,42.451,39.462L42.451,39.462z"/>
	</g>
	
		<linearGradient id="SVGID_16_" gradientUnits="userSpaceOnUse" x1="-129.1914" y1="357.084" x2="-129.1914" y2="385.4932" gradientTransform="matrix(2.451 0 0 -2.451 358.0864 952.4214)">
		<stop  offset="0" style="stop-color:#2C0000"/>
		<stop  offset="1" style="stop-color:#B7B7B7"/>
	</linearGradient>
	<path fill="url(#SVGID_16_)" d="M41.433,7.582C22.013,7.582,6.2,23.204,6.2,42.389c0,19.186,15.813,34.823,35.233,34.823
		S76.68,61.574,76.68,42.389C76.68,23.203,60.853,7.582,41.433,7.582z M41.433,11.678c17.153,0,31.101,13.766,31.101,30.71
		c0,16.946-13.948,30.727-31.101,30.727S10.347,59.336,10.347,42.389C10.347,25.443,24.279,11.678,41.433,11.678z"/>
	<path opacity="0.1509" fill="#F3D2AF" enable-background="new    " d="M41.433,8.449c-18.95,0-34.354,15.219-34.354,33.939
		c0,18.722,15.404,33.955,34.354,33.955c18.951,0,34.369-15.233,34.369-33.955C75.802,23.668,60.383,8.449,41.433,8.449z
		 M41.433,10.811c17.623,0,31.979,14.17,31.979,31.578c0,17.41-14.356,31.594-31.979,31.594c-17.622,0-31.964-14.184-31.964-31.594
		C9.468,24.98,23.811,10.811,41.433,10.811z"/>
	<g opacity="0.5" enable-background="new    ">
		<path d="M63.03,73.457c-0.288,1.685,0.225,3.479,1.54,4.777l34.844,34.411c2.159,2.134,5.659,2.134,7.818,0l5.067-5.007
			c1.315-1.298,1.813-3.084,1.527-4.766c-0.185,1.079-0.683,2.112-1.527,2.945l-5.067,5.007c-2.159,2.133-5.659,2.132-7.818,0
			L64.57,76.414C63.728,75.581,63.215,74.536,63.03,73.457z"/>
	</g>
	<g opacity="0.5" enable-background="new    ">
		<path fill="#FFFFFF" d="M73.54,63.896c-1.414,0-2.822,0.528-3.901,1.592l-5.068,5.01c-1.315,1.299-1.828,3.093-1.54,4.779
			c0.185-1.08,0.697-2.126,1.54-2.959l5.068-5.006c2.159-2.135,5.66-2.135,7.818,0l34.843,34.422
			c0.847,0.836,1.344,1.876,1.527,2.959c0.288-1.685-0.21-3.479-1.527-4.779L77.457,65.488
			C76.377,64.424,74.956,63.896,73.54,63.896z"/>
	</g>
	<g opacity="0.4" enable-background="new    ">
		<path fill="#FFFFFF" d="M41.433,8.449c-14.896,0-27.599,9.401-32.353,22.519c0.676,0.48,1.358,0.945,2.059,1.394
			c4.257-12.504,16.223-21.551,30.294-21.551c12.427,0,23.219,7.051,28.509,17.312c0.623-0.539,1.232-1.095,1.828-1.665
			C65.983,15.748,54.56,8.449,41.433,8.449z"/>
	</g>
	<path fill="#FF8035" fill-opacity="0.2" stroke="#480000" stroke-width="0.1868" stroke-opacity="0.2533" d="M83.571,71.537
		l2.153,8.51l-9.101-2.249l2.275,8.992l-7.574-1.873l3.313,3.273l4.261,0.847l2.733,0.438l-0.458-2.686l-1.146-5.628l5.695,1.132
		l2.717,0.45L88,80.047l-1.053-5.176L83.571,71.537z"/>
	<path fill="#FF8035" fill-opacity="0.2" stroke="#480000" stroke-width="0.1868" stroke-opacity="0.2533" d="M90.413,78.296
		l2.152,8.509l-9.101-2.249l2.275,8.991l-7.573-1.871l3.313,3.273l4.26,0.845l2.732,0.437l-0.457-2.684L86.87,87.92l5.695,1.132
		l2.718,0.452l-0.443-2.699l-1.053-5.176L90.413,78.296z"/>
	<path fill="#FF8035" fill-opacity="0.2" stroke="#480000" stroke-width="0.1868" stroke-opacity="0.2533" d="M97.253,85.054
		l2.153,8.507l-9.101-2.247l2.275,8.991l-7.573-1.87l3.313,3.272l4.261,0.846l2.733,0.437l-0.459-2.685l-1.145-5.626l5.695,1.131
		l2.718,0.452l-0.442-2.701l-1.055-5.173L97.253,85.054L97.253,85.054z"/>
	<path fill="#FF8035" fill-opacity="0.2" stroke="#480000" stroke-width="0.1868" stroke-opacity="0.2533" d="M104.093,91.813
		l2.153,8.507l-9.101-2.246l2.275,8.989l-7.574-1.869l3.314,3.272l4.26,0.846l2.734,0.436l-0.459-2.685l-1.146-5.627l5.695,1.133
		l2.719,0.453l-0.442-2.702l-1.054-5.173L104.093,91.813z"/>
</g>
<g id="disabled_1_" opacity="0.2">
	
		<linearGradient id="SVGID_17_" gradientUnits="userSpaceOnUse" x1="-240.0791" y1="312.6543" x2="-236.2158" y2="312.6543" gradientTransform="matrix(1.816 -1.816 -1.816 -1.816 1066.3672 202.48)">
		<stop  offset="0" style="stop-color:#2C0000"/>
		<stop  offset="1" style="stop-color:#B7B7B7"/>
	</linearGradient>
	
		<linearGradient id="SVGID_18_" gradientUnits="userSpaceOnUse" x1="-240.0781" y1="312.6543" x2="-230.0466" y2="312.6543" gradientTransform="matrix(1.816 -1.816 -1.816 -1.816 1066.3672 202.48)">
		<stop  offset="0" style="stop-color:#2C0000"/>
		<stop  offset="1" style="stop-color:#B7B7B7"/>
	</linearGradient>
	
		<path fill="url(#SVGID_17_)" stroke="url(#SVGID_18_)" stroke-width="0.1868" stroke-linecap="round" stroke-linejoin="round" stroke-miterlimit="5.8" d="
		M57.953,66.03l7.002-6.917l9.317,9.206l-7.002,6.917L57.953,66.03z"/>
	
		<linearGradient id="SVGID_19_" gradientUnits="userSpaceOnUse" x1="-113.3188" y1="350.0928" x2="-108.221" y2="355.1906" gradientTransform="matrix(2.5682 0 0 -2.5682 372.4267 995.212)">
		<stop  offset="0" style="stop-color:#2A0000"/>
		<stop  offset="0.5" style="stop-color:#6B1D07"/>
		<stop  offset="1" style="stop-color:#C04A20"/>
	</linearGradient>
	
		<linearGradient id="SVGID_20_" gradientUnits="userSpaceOnUse" x1="-112.7803" y1="350.6318" x2="-108.1207" y2="355.2914" gradientTransform="matrix(2.5682 0 0 -2.5682 372.4267 995.212)">
		<stop  offset="0" style="stop-color:#000000"/>
		<stop  offset="1" style="stop-color:#721700"/>
	</linearGradient>
	<path fill="url(#SVGID_19_)" stroke="url(#SVGID_20_)" stroke-width="0.1868" d="M112.296,99.917c2.16,2.133,2.16,5.594,0,7.727
		l-5.069,5.006c-2.158,2.136-5.659,2.135-7.818,0L64.565,78.229c-2.158-2.133-2.158-5.591,0-7.724l5.071-5.01
		c2.158-2.134,5.66-2.134,7.819,0L112.296,99.917L112.296,99.917z"/>
	<path fill="#FF8035" fill-opacity="0.2" stroke="#480000" stroke-width="0.1868" stroke-opacity="0.2533" d="M76.73,64.78
		l2.154,8.509l-9.101-2.25l2.274,8.992l-7.574-1.872l3.314,3.274l4.26,0.845l2.733,0.438l-0.458-2.685l-1.145-5.629l5.695,1.134
		l2.718,0.453l-0.442-2.7l-1.055-5.177L76.73,64.78L76.73,64.78z"/>
	
		<linearGradient id="SVGID_21_" gradientUnits="userSpaceOnUse" x1="-128.8813" y1="358.248" x2="-128.8813" y2="383.7627" gradientTransform="matrix(2.5682 0 0 -2.5682 372.4267 995.212)">
		<stop  offset="0" style="stop-color:#FFFFFF"/>
		<stop  offset="1" style="stop-color:#B8D2DD"/>
	</linearGradient>
	<path fill="url(#SVGID_21_)" d="M74.6,42.393c0,18.095-14.848,32.764-33.163,32.764c-18.315,0-33.164-14.669-33.164-32.764
		S23.122,9.63,41.437,9.63C59.752,9.63,74.6,24.298,74.6,42.393L74.6,42.393z"/>
	
		<radialGradient id="SVGID_22_" cx="-116.2881" cy="356.0742" r="72.3435" gradientTransform="matrix(0.4584 0 0 -0.4529 94.7446 203.6554)" gradientUnits="userSpaceOnUse">
		<stop  offset="0" style="stop-color:#FFFFFF;stop-opacity:0"/>
		<stop  offset="0.3617" style="stop-color:#FFFFFF;stop-opacity:0"/>
		<stop  offset="1" style="stop-color:#294A56"/>
	</radialGradient>
	<path fill="url(#SVGID_22_)" d="M74.6,42.393c0,18.095-14.848,32.764-33.163,32.764c-18.315,0-33.164-14.669-33.164-32.764
		S23.122,9.63,41.437,9.63C59.752,9.63,74.6,24.298,74.6,42.393L74.6,42.393z"/>
	<g opacity="0.7" enable-background="new    ">
		
			<linearGradient id="SVGID_23_" gradientUnits="userSpaceOnUse" x1="-129.0991" y1="370.7148" x2="-129.0991" y2="383.6553" gradientTransform="matrix(2.451 0 0 -2.451 358.0864 952.4214)">
			<stop  offset="0" style="stop-color:#FFFFFF"/>
			<stop  offset="0.2414" style="stop-color:#FCFDFE"/>
			<stop  offset="0.4222" style="stop-color:#F2F7F9"/>
			<stop  offset="0.5833" style="stop-color:#E2EDF1"/>
			<stop  offset="0.7329" style="stop-color:#CCDEE6"/>
			<stop  offset="0.8733" style="stop-color:#AECCD8"/>
			<stop  offset="1" style="stop-color:#8DB7C8"/>
		</linearGradient>
		<path fill="url(#SVGID_23_)" d="M42.451,39.462c15.792-9.437,28.763-0.513,28.763-0.513C70.628,24.02,57.628,12.086,41.676,12.086
			c-16.324,0-29.559,12.498-29.559,27.917C12.118,40.004,26.659,48.899,42.451,39.462L42.451,39.462z"/>
	</g>
	
		<linearGradient id="SVGID_24_" gradientUnits="userSpaceOnUse" x1="-129.1914" y1="357.084" x2="-129.1914" y2="385.4932" gradientTransform="matrix(2.451 0 0 -2.451 358.0864 952.4214)">
		<stop  offset="0" style="stop-color:#2C0000"/>
		<stop  offset="1" style="stop-color:#B7B7B7"/>
	</linearGradient>
	<path fill="url(#SVGID_24_)" d="M41.433,7.582C22.013,7.582,6.2,23.204,6.2,42.389c0,19.186,15.813,34.823,35.233,34.823
		S76.68,61.574,76.68,42.389C76.68,23.203,60.853,7.582,41.433,7.582z M41.433,11.678c17.153,0,31.101,13.766,31.101,30.71
		c0,16.946-13.948,30.727-31.101,30.727S10.347,59.336,10.347,42.389C10.347,25.443,24.279,11.678,41.433,11.678z"/>
	<path opacity="0.1509" fill="#F3D2AF" enable-background="new    " d="M41.433,8.449c-18.95,0-34.354,15.219-34.354,33.939
		c0,18.722,15.404,33.955,34.354,33.955c18.951,0,34.369-15.233,34.369-33.955C75.802,23.668,60.383,8.449,41.433,8.449z
		 M41.433,10.811c17.623,0,31.979,14.17,31.979,31.578c0,17.41-14.356,31.594-31.979,31.594c-17.622,0-31.964-14.184-31.964-31.594
		C9.468,24.98,23.811,10.811,41.433,10.811z"/>
	<g opacity="0.5" enable-background="new    ">
		<path d="M63.03,73.457c-0.288,1.685,0.225,3.479,1.54,4.777l34.844,34.411c2.159,2.134,5.659,2.134,7.818,0l5.067-5.007
			c1.315-1.298,1.813-3.084,1.527-4.766c-0.185,1.079-0.683,2.112-1.527,2.945l-5.067,5.007c-2.159,2.133-5.659,2.132-7.818,0
			L64.57,76.414C63.728,75.581,63.215,74.536,63.03,73.457z"/>
	</g>
	<g opacity="0.5" enable-background="new    ">
		<path fill="#FFFFFF" d="M73.54,63.896c-1.414,0-2.822,0.528-3.901,1.592l-5.068,5.01c-1.315,1.299-1.828,3.093-1.54,4.779
			c0.185-1.08,0.697-2.126,1.54-2.959l5.068-5.006c2.159-2.135,5.66-2.135,7.818,0l34.843,34.422
			c0.847,0.836,1.344,1.876,1.527,2.959c0.288-1.685-0.21-3.479-1.527-4.779L77.457,65.488
			C76.377,64.424,74.956,63.896,73.54,63.896z"/>
	</g>
	<g opacity="0.4" enable-background="new    ">
		<path fill="#FFFFFF" d="M41.433,8.449c-14.896,0-27.599,9.401-32.353,22.519c0.676,0.48,1.358,0.945,2.059,1.394
			c4.257-12.504,16.223-21.551,30.294-21.551c12.427,0,23.219,7.051,28.509,17.312c0.623-0.539,1.232-1.095,1.828-1.665
			C65.983,15.748,54.56,8.449,41.433,8.449z"/>
	</g>
	<path fill="#FF8035" fill-opacity="0.2" stroke="#480000" stroke-width="0.1868" stroke-opacity="0.2533" d="M83.571,71.537
		l2.153,8.51l-9.101-2.249l2.275,8.992l-7.574-1.873l3.313,3.273l4.261,0.847l2.733,0.438l-0.458-2.686l-1.146-5.628l5.695,1.132
		l2.717,0.45L88,80.047l-1.053-5.176L83.571,71.537z"/>
	<path fill="#FF8035" fill-opacity="0.2" stroke="#480000" stroke-width="0.1868" stroke-opacity="0.2533" d="M90.413,78.296
		l2.152,8.509l-9.101-2.249l2.275,8.991l-7.573-1.871l3.313,3.273l4.26,0.845l2.732,0.437l-0.457-2.684L86.87,87.92l5.695,1.132
		l2.718,0.452l-0.443-2.699l-1.053-5.176L90.413,78.296z"/>
	<path fill="#FF8035" fill-opacity="0.2" stroke="#480000" stroke-width="0.1868" stroke-opacity="0.2533" d="M97.253,85.054
		l2.153,8.507l-9.101-2.247l2.275,8.991l-7.573-1.87l3.313,3.272l4.261,0.846l2.733,0.437l-0.459-2.685l-1.145-5.626l5.695,1.131
		l2.718,0.452l-0.442-2.701l-1.055-5.173L97.253,85.054L97.253,85.054z"/>
	<path fill="#FF8035" fill-opacity="0.2" stroke="#480000" stroke-width="0.1868" stroke-opacity="0.2533" d="M104.093,91.813
		l2.153,8.507l-9.101-2.246l2.275,8.989l-7.574-1.869l3.314,3.272l4.26,0.846l2.734,0.436l-0.459-2.685l-1.146-5.627l5.695,1.133
		l2.719,0.453l-0.442-2.702l-1.054-5.173L104.093,91.813z"/>
</g>
</svg>
