<?xml version="1.0" encoding="utf-8"?>
<!-- Generator: Adobe Illustrator 15.0.0, SVG Export Plug-In . SVG Version: 6.00 Build 0)  -->
<!DOCTYPE svg PUBLIC "-//W3C//DTD SVG 1.1//EN" "http://www.w3.org/Graphics/SVG/1.1/DTD/svg11.dtd">
<svg version="1.1" id="Layer_1" xmlns="http://www.w3.org/2000/svg" xmlns:xlink="http://www.w3.org/1999/xlink" x="0px" y="0px"
	 width="120px" height="120px" viewBox="0 0 120 120" enable-background="new 0 0 120 120" xml:space="preserve">
<g>
	<g>
		<g>
			<path fill="#FF00FF" d="M68.301,104.125c-3.12,0-7.205-0.312-9.712-0.74c-1.787-0.31-3.284-0.625-4.576-0.963
				c-2.741-0.702-7.165-3.06-9.139-5.32c-2.369-2.71-3.809-6.062-4.281-9.962c-0.059-0.467-0.112-0.979-0.168-1.522
				c-0.35-3.364-0.785-7.553-3.07-9.584c-1.921-1.703-4.4-2.566-7.368-2.566c-0.544,0-1.112,0.029-1.688,0.088
				c-0.868,0.105-1.653,0.155-2.418,0.155c-5.73,0-11.813-3.319-15.873-8.662c-3.509-4.617-4.793-9.884-3.524-14.45
				c5.666-20.448,25.752-34.729,48.849-34.729c14.42,0,28.708,5.526,41.319,15.981c3.879,3.218,16.591,14.933,17.315,30.539
				c0.441,9.531-3.671,18.701-12.224,27.254c-9.146,9.138-19.926,14.002-32.041,14.458c-0.433,0.017-0.902,0.024-1.399,0.024
				C68.302,104.125,68.301,104.125,68.301,104.125z M59.89,74.54c-5.613,0-10.18,4.571-10.18,10.19c0,5.613,4.567,10.18,10.18,10.18
				c5.608,0,10.179-4.565,10.19-10.178C70.08,79.111,65.509,74.54,59.89,74.54z M24,46.8c-4.808,0-8.72,3.912-8.72,8.72
				s3.912,8.72,8.72,8.72c4.803,0,8.719-3.911,8.73-8.718C32.73,50.712,28.814,46.8,24,46.8z M89.52,40.12
				c-4.813,0-8.729,3.912-8.729,8.72s3.916,8.72,8.729,8.72c4.809,0,8.721-3.912,8.721-8.72S94.328,40.12,89.52,40.12z M66.78,29.05
				c-4.809,0-8.72,3.912-8.72,8.72c0,4.814,3.912,8.73,8.72,8.73c4.803,0,8.719-3.915,8.729-8.728
				C75.51,32.962,71.594,29.05,66.78,29.05z M44.03,29.05c-4.808,0-8.72,3.912-8.72,8.72c0,4.814,3.912,8.73,8.72,8.73
				s8.72-3.916,8.72-8.73C52.75,32.962,48.838,29.05,44.03,29.05z"/>
			<path d="M55.332,16.869c14.184,0,28.252,5.447,40.681,15.75c3.799,3.152,16.25,14.62,16.955,29.815
				c0.429,9.239-3.586,18.155-11.931,26.5c-8.962,8.954-19.518,13.721-31.374,14.167c-0.42,0.016-0.878,0.023-1.362,0.023
				c-3.07,0-7.084-0.306-9.54-0.726c-1.761-0.305-3.231-0.614-4.505-0.947c-2.589-0.663-6.83-2.946-8.63-5.009
				c-2.234-2.556-3.594-5.727-4.042-9.434c-0.058-0.456-0.11-0.96-0.166-1.496c-0.368-3.536-0.826-7.938-3.402-10.229
				c-2.108-1.87-4.81-2.817-8.03-2.817c-0.578,0-1.18,0.031-1.827,0.098c-0.809,0.098-1.554,0.146-2.279,0.146
				c-5.425,0-11.202-3.168-15.076-8.267c-3.318-4.367-4.542-9.315-3.356-13.579C12.993,30.849,32.684,16.869,55.332,16.869
				 M66.78,47.5c5.353,0,9.717-4.363,9.729-9.73c0-5.36-4.364-9.72-9.729-9.72c-5.359,0-9.72,4.36-9.72,9.72
				C57.06,43.135,61.421,47.5,66.78,47.5 M44.03,47.5c5.36,0,9.72-4.365,9.72-9.73c0-5.36-4.36-9.72-9.72-9.72
				c-5.359,0-9.72,4.36-9.72,9.72C34.31,43.135,38.67,47.5,44.03,47.5 M89.52,58.56c5.36,0,9.721-4.36,9.721-9.72
				c0-5.359-4.36-9.72-9.721-9.72c-5.365,0-9.729,4.36-9.729,9.72C79.79,54.2,84.154,58.56,89.52,58.56 M24,65.24
				c5.353,0,9.718-4.358,9.73-9.72c0-5.36-4.365-9.72-9.73-9.72c-5.36,0-9.72,4.36-9.72,9.72S18.64,65.24,24,65.24 M59.89,95.91
				c6.159,0,11.178-5.014,11.19-11.18c0-6.17-5.02-11.19-11.19-11.19c-6.165,0-11.18,5.021-11.18,11.19
				C48.71,90.895,53.726,95.91,59.89,95.91 M55.332,14.869c-23.772,0-44.106,14.868-49.812,35.461
				c-3.15,11.33,8.61,24.38,20.36,24.38c0.85,0,1.69-0.06,2.52-0.16c0.556-0.057,1.084-0.083,1.586-0.083
				c3.135,0,5.265,1.037,6.704,2.313c2.35,2.09,2.52,7.38,2.91,10.479c0.59,4.88,2.58,8.28,4.52,10.5c2.07,2.37,6.6,4.851,9.64,5.63
				c1.53,0.4,3.16,0.721,4.66,0.98c2.66,0.455,6.786,0.755,9.881,0.755c0.512,0,0.995-0.009,1.439-0.025
				c9.81-0.369,21.7-3.75,32.71-14.75c24.41-24.409,7.939-48.399-5.16-59.27C83.571,19.708,68.892,14.869,55.332,14.869
				L55.332,14.869z M66.78,45.5c-4.261,0-7.72-3.46-7.72-7.73c0-4.26,3.459-7.72,7.72-7.72c4.27,0,7.729,3.46,7.729,7.72
				C74.5,42.05,71.04,45.5,66.78,45.5L66.78,45.5z M44.03,45.5c-4.27,0-7.72-3.46-7.72-7.73c0-4.26,3.46-7.72,7.72-7.72
				c4.26,0,7.72,3.46,7.72,7.72C51.75,42.05,48.3,45.5,44.03,45.5L44.03,45.5z M89.52,56.56c-4.27,0-7.729-3.46-7.729-7.72
				c0-4.26,3.46-7.72,7.729-7.72c4.261,0,7.721,3.45,7.721,7.72C97.24,53.1,93.78,56.56,89.52,56.56L89.52,56.56z M24,63.24
				c-4.26,0-7.72-3.46-7.72-7.72c0-4.27,3.46-7.72,7.72-7.72c4.27,0,7.73,3.45,7.73,7.72C31.72,59.79,28.27,63.24,24,63.24L24,63.24
				z M59.89,93.91c-5.07,0-9.18-4.11-9.18-9.18c0-5.08,4.11-9.19,9.18-9.19c5.08,0,9.19,4.11,9.19,9.19
				C69.07,89.8,64.97,93.91,59.89,93.91L59.89,93.91z"/>
		</g>
		<g>
			<path fill="#7D7D82" d="M69.08,84.73c-0.01,5.069-4.11,9.18-9.19,9.18c-5.07,0-9.18-4.11-9.18-9.18c0-5.08,4.11-9.19,9.18-9.19
				C64.97,75.54,69.08,79.65,69.08,84.73z"/>
		</g>
		<g>
			<path fill="#00FF00" d="M97.24,48.84c0,4.26-3.46,7.72-7.721,7.72c-4.27,0-7.729-3.46-7.729-7.72c0-4.26,3.46-7.72,7.729-7.72
				C93.78,41.12,97.24,44.57,97.24,48.84z"/>
		</g>
		<g>
			<path fill="#FF0000" d="M74.51,37.77c-0.01,4.28-3.47,7.73-7.729,7.73c-4.261,0-7.72-3.46-7.72-7.73c0-4.26,3.459-7.72,7.72-7.72
				C71.05,30.05,74.51,33.51,74.51,37.77z"/>
		</g>
		<g>
			<path fill="#FFFF00" d="M51.75,37.77c0,4.28-3.45,7.73-7.72,7.73s-7.72-3.46-7.72-7.73c0-4.26,3.46-7.72,7.72-7.72
				C48.29,30.05,51.75,33.51,51.75,37.77z"/>
		</g>
		<g>
			<path fill="#0000FF" d="M31.73,55.52c-0.01,4.27-3.46,7.72-7.73,7.72c-4.26,0-7.72-3.46-7.72-7.72c0-4.27,3.46-7.72,7.72-7.72
				C28.27,47.8,31.73,51.25,31.73,55.52z"/>
		</g>
	</g>
</g>
</svg>
