<?xml version="1.0" encoding="utf-8"?>
<!-- Generator: Adobe Illustrator 15.0.0, SVG Export Plug-In . SVG Version: 6.00 Build 0)  -->
<!DOCTYPE svg PUBLIC "-//W3C//DTD SVG 1.1//EN" "http://www.w3.org/Graphics/SVG/1.1/DTD/svg11.dtd">
<svg version="1.1" id="Layer_1" xmlns="http://www.w3.org/2000/svg" xmlns:xlink="http://www.w3.org/1999/xlink" x="0px" y="0px"
	 width="612px" height="792px" viewBox="0 0 612 792" enable-background="new 0 0 612 792" xml:space="preserve">
<g id="normal_1_">
	<path fill="#007A00" d="M135.736,413.672c-0.956-0.715-2.027-1.671-3.06-2.703c-13.706-13.706-13.706-36.032,0-49.751
		c6.643-6.643,15.479-10.302,24.875-10.302c8.632,0,16.817,3.098,23.23,8.772l0.051-0.064l1.824,0.944l77.443,77.417
		c18.462-17.25,187.833-175.529,194.845-181.547c3.762-3.226,8.198-4.947,12.84-4.947c4.832,0,9.485,1.913,13.106,5.381
		c7.37,7.076,8.326,18.729,2.193,26.558c-5.737,7.242-212.785,243.028-221.583,253.062l-1.377,1.556L135.736,413.672z"/>
	<path fill="#50B000" d="M181.037,409.579c-12.967,12.979-34.017,12.979-46.997,0c-12.966-12.967-12.966-34.018,0-46.997
		c12.979-12.967,34.03-12.967,46.997,0C194.017,375.575,194.017,396.612,181.037,409.579L181.037,409.579z M481.529,282.219
		c-5.737,7.293-221.493,252.998-221.493,252.998L134.015,409.209l47.251-47.264l78.77,78.756c0,0,188.841-176.523,196.159-182.784
		c7.293-6.26,16.919-5.776,23.319,0.357C485.775,264.292,487.254,274.913,481.529,282.219L481.529,282.219z"/>
</g>
</svg>
