<?xml version="1.0" encoding="utf-8"?>
<!-- Generator: Adobe Illustrator 16.0.0, SVG Export Plug-In . SVG Version: 6.00 Build 0)  -->
<!DOCTYPE svg PUBLIC "-//W3C//DTD SVG 1.1//EN" "http://www.w3.org/Graphics/SVG/1.1/DTD/svg11.dtd">
<svg version="1.1" id="Слой_1" xmlns="http://www.w3.org/2000/svg" xmlns:xlink="http://www.w3.org/1999/xlink" x="0px" y="0px"
	 width="120px" height="120px" viewBox="0 0 120 120" enable-background="new 0 0 120 120" xml:space="preserve">
<g id="normal_1_">
	
		<linearGradient id="SVGID_1_" gradientUnits="userSpaceOnUse" x1="-239.8247" y1="312.7197" x2="-235.7573" y2="312.7197" gradientTransform="matrix(1.816 -1.816 -1.816 -1.816 1066.3672 202.48)">
		<stop  offset="0" style="stop-color:#2C0000"/>
		<stop  offset="1" style="stop-color:#B7B7B7"/>
	</linearGradient>
	
		<linearGradient id="SVGID_2_" gradientUnits="userSpaceOnUse" x1="-239.8242" y1="312.7197" x2="-229.2606" y2="312.7197" gradientTransform="matrix(1.816 -1.816 -1.816 -1.816 1066.3672 202.48)">
		<stop  offset="0" style="stop-color:#2C0000"/>
		<stop  offset="1" style="stop-color:#B7B7B7"/>
	</linearGradient>
	
		<path fill="url(#SVGID_1_)" stroke="url(#SVGID_2_)" stroke-width="0.1975" stroke-linecap="round" stroke-linejoin="round" stroke-miterlimit="5.8" d="
		M58.092,65.188l7.335-7.378l9.761,9.819l-7.336,7.377L58.092,65.188z"/>
	
		<linearGradient id="SVGID_3_" gradientUnits="userSpaceOnUse" x1="-112.833" y1="349.6924" x2="-107.4894" y2="355.036" gradientTransform="matrix(2.5682 0 0 -2.5682 372.4267 995.212)">
		<stop  offset="0" style="stop-color:#2A0000"/>
		<stop  offset="0.5" style="stop-color:#6B1D07"/>
		<stop  offset="1" style="stop-color:#C04A20"/>
	</linearGradient>
	
		<linearGradient id="SVGID_4_" gradientUnits="userSpaceOnUse" x1="-112.2676" y1="350.2578" x2="-107.3829" y2="355.1425" gradientTransform="matrix(2.5682 0 0 -2.5682 372.4267 995.212)">
		<stop  offset="0" style="stop-color:#000000"/>
		<stop  offset="1" style="stop-color:#721700"/>
	</linearGradient>
	<path fill="url(#SVGID_3_)" stroke="url(#SVGID_4_)" stroke-width="0.1975" d="M115.02,101.328c2.263,2.274,2.263,5.965,0,8.24
		l-5.311,5.339c-2.262,2.278-5.93,2.277-8.19,0L65.02,78.196c-2.261-2.274-2.261-5.963,0-8.237l5.313-5.343
		c2.261-2.275,5.929-2.275,8.191,0L115.02,101.328L115.02,101.328z"/>
	<path fill="#FF8035" fill-opacity="0.2" stroke="#480000" stroke-width="0.1975" stroke-opacity="0.2533" d="M77.763,63.854
		l2.257,9.074l-9.533-2.399l2.383,9.59l-7.936-1.996l3.473,3.491l4.463,0.902l2.862,0.466l-0.479-2.863l-1.198-6.003l5.966,1.209
		l2.848,0.483l-0.464-2.88l-1.104-5.521L77.763,63.854L77.763,63.854z"/>
	
		<linearGradient id="SVGID_5_" gradientUnits="userSpaceOnUse" x1="-129.1328" y1="358.3398" x2="-129.1328" y2="385.5518" gradientTransform="matrix(2.5682 0 0 -2.5682 372.4267 995.212)">
		<stop  offset="0" style="stop-color:#FFFFFF"/>
		<stop  offset="1" style="stop-color:#B8D2DD"/>
	</linearGradient>
	<path fill="url(#SVGID_5_)" d="M75.53,39.978c0,19.298-15.554,34.943-34.738,34.943c-19.187,0-34.741-15.645-34.741-34.943
		S21.605,5.035,40.792,5.035C59.977,5.035,75.53,20.679,75.53,39.978L75.53,39.978z"/>
	
		<radialGradient id="SVGID_6_" cx="-126.1426" cy="356.374" r="72.343" gradientTransform="matrix(0.4802 0 0 -0.483 101.3654 212.1112)" gradientUnits="userSpaceOnUse">
		<stop  offset="0" style="stop-color:#FFFFFF;stop-opacity:0"/>
		<stop  offset="0.3617" style="stop-color:#FFFFFF;stop-opacity:0"/>
		<stop  offset="1" style="stop-color:#294A56"/>
	</radialGradient>
	<path fill="url(#SVGID_6_)" d="M75.53,39.978c0,19.298-15.554,34.943-34.738,34.943c-19.187,0-34.741-15.645-34.741-34.943
		S21.605,5.035,40.792,5.035C59.977,5.035,75.53,20.679,75.53,39.978L75.53,39.978z"/>
	<g opacity="0.7" enable-background="new    ">
		
			<linearGradient id="SVGID_7_" gradientUnits="userSpaceOnUse" x1="-129.3584" y1="371.6631" x2="-129.3584" y2="385.4629" gradientTransform="matrix(2.451 0 0 -2.451 358.0864 952.4214)">
			<stop  offset="0" style="stop-color:#FFFFFF"/>
			<stop  offset="0.2414" style="stop-color:#FCFDFE"/>
			<stop  offset="0.4222" style="stop-color:#F2F7F9"/>
			<stop  offset="0.5833" style="stop-color:#E2EDF1"/>
			<stop  offset="0.7329" style="stop-color:#CCDEE6"/>
			<stop  offset="0.8733" style="stop-color:#AECCD8"/>
			<stop  offset="1" style="stop-color:#8DB7C8"/>
		</linearGradient>
		<path fill="url(#SVGID_7_)" d="M41.853,36.852c16.543-10.064,30.131-0.547,30.131-0.547C71.37,20.382,57.752,7.655,41.042,7.655
			c-17.1,0-30.964,13.329-30.964,29.775C10.078,37.43,25.311,46.917,41.853,36.852L41.853,36.852z"/>
	</g>
	
		<linearGradient id="SVGID_8_" gradientUnits="userSpaceOnUse" x1="-129.4546" y1="357.125" x2="-129.4546" y2="387.4238" gradientTransform="matrix(2.451 0 0 -2.451 358.0864 952.4214)">
		<stop  offset="0" style="stop-color:#2C0000"/>
		<stop  offset="1" style="stop-color:#B7B7B7"/>
	</linearGradient>
	<path fill="url(#SVGID_8_)" d="M40.787,2.851c-20.344,0-36.909,16.661-36.909,37.123c0,20.462,16.565,37.139,36.909,37.139
		S77.71,60.435,77.71,39.973C77.71,19.511,61.131,2.851,40.787,2.851z M40.787,7.22c17.969,0,32.579,14.681,32.579,32.753
		c0,18.073-14.61,32.77-32.579,32.77c-17.969,0-32.564-14.696-32.564-32.77C8.223,21.9,22.817,7.22,40.787,7.22z"/>
	<path opacity="0.1509" fill="#F3D2AF" enable-background="new    " d="M40.787,3.776c-19.852,0-35.988,16.23-35.988,36.197
		c0,19.967,16.136,36.213,35.988,36.213S76.79,59.94,76.79,39.973C76.79,20.007,60.639,3.776,40.787,3.776z M40.787,6.294
		c18.459,0,33.499,15.112,33.499,33.679c0,18.568-15.04,33.696-33.499,33.696c-18.46,0-33.485-15.128-33.485-33.696
		C7.302,21.407,22.327,6.294,40.787,6.294z"/>
	<g opacity="0.5" enable-background="new    ">
		<path d="M63.412,73.107c-0.303,1.797,0.235,3.711,1.612,5.096l36.5,36.699c2.262,2.276,5.928,2.276,8.19,0l5.309-5.34
			c1.378-1.384,1.899-3.289,1.6-5.082c-0.192,1.151-0.715,2.253-1.6,3.142l-5.309,5.34c-2.263,2.274-5.929,2.273-8.19,0l-36.5-36.7
			C64.142,75.373,63.604,74.259,63.412,73.107z"/>
	</g>
	<g opacity="0.5" enable-background="new    ">
		<path fill="#FFFFFF" d="M74.421,62.911c-1.481,0-2.957,0.563-4.087,1.698l-5.31,5.343c-1.377,1.385-1.915,3.298-1.612,5.098
			c0.191-1.152,0.729-2.268,1.612-3.156l5.31-5.34c2.262-2.276,5.929-2.276,8.19,0l36.499,36.713c0.887,0.892,1.408,2.001,1.6,3.155
			c0.303-1.797-0.22-3.711-1.6-5.097L78.524,64.609C77.393,63.474,75.903,62.911,74.421,62.911z"/>
	</g>
	<g opacity="0.4" enable-background="new    ">
		<path fill="#FFFFFF" d="M40.787,3.776c-15.604,0-28.912,10.026-33.892,24.016c0.709,0.513,1.423,1.009,2.157,1.486
			C13.512,15.942,26.046,6.294,40.787,6.294c13.017,0,24.322,7.52,29.863,18.463c0.653-0.575,1.291-1.168,1.916-1.775
			C66.505,11.56,54.538,3.776,40.787,3.776z"/>
	</g>
	<path fill="#FF8035" fill-opacity="0.2" stroke="#480000" stroke-width="0.1975" stroke-opacity="0.2533" d="M84.929,71.061
		l2.256,9.075l-9.534-2.398l2.384,9.591l-7.933-1.998l3.47,3.491l4.463,0.903l2.863,0.467l-0.479-2.863l-1.199-6.003l5.966,1.207
		l2.846,0.48l-0.462-2.877l-1.103-5.52L84.929,71.061z"/>
	<path fill="#FF8035" fill-opacity="0.2" stroke="#480000" stroke-width="0.1975" stroke-opacity="0.2533" d="M92.096,78.269
		l2.254,9.074l-9.531-2.398l2.383,9.59l-7.934-1.996l3.472,3.492l4.462,0.9l2.862,0.465l-0.479-2.861l-1.201-6.002l5.966,1.207
		l2.849,0.482l-0.466-2.879l-1.102-5.52L92.096,78.269z"/>
	<path fill="#FF8035" fill-opacity="0.2" stroke="#480000" stroke-width="0.1975" stroke-opacity="0.2533" d="M99.261,85.476
		l2.256,9.072l-9.532-2.396l2.383,9.589l-7.934-1.995l3.47,3.491l4.464,0.901l2.862,0.466l-0.479-2.863l-1.199-6l5.966,1.205
		l2.847,0.482l-0.463-2.881l-1.104-5.517L99.261,85.476L99.261,85.476z"/>
	<path fill="#FF8035" fill-opacity="0.2" stroke="#480000" stroke-width="0.1975" stroke-opacity="0.2533" d="M106.426,92.684
		l2.256,9.073l-9.534-2.396l2.384,9.587l-7.934-1.993l3.473,3.49l4.461,0.901l2.865,0.465l-0.481-2.863l-1.199-6.001l5.966,1.209
		l2.848,0.483l-0.462-2.883l-1.104-5.518L106.426,92.684z"/>
</g>
<g id="active_1_">
	
		<linearGradient id="SVGID_9_" gradientUnits="userSpaceOnUse" x1="-239.8247" y1="312.7197" x2="-235.7573" y2="312.7197" gradientTransform="matrix(1.816 -1.816 -1.816 -1.816 1066.3672 202.48)">
		<stop  offset="0" style="stop-color:#2C0000"/>
		<stop  offset="1" style="stop-color:#B7B7B7"/>
	</linearGradient>
	
		<linearGradient id="SVGID_10_" gradientUnits="userSpaceOnUse" x1="-239.8242" y1="312.7197" x2="-229.2606" y2="312.7197" gradientTransform="matrix(1.816 -1.816 -1.816 -1.816 1066.3672 202.48)">
		<stop  offset="0" style="stop-color:#2C0000"/>
		<stop  offset="1" style="stop-color:#B7B7B7"/>
	</linearGradient>
	
		<path fill="url(#SVGID_9_)" stroke="url(#SVGID_10_)" stroke-width="0.1975" stroke-linecap="round" stroke-linejoin="round" stroke-miterlimit="5.8" d="
		M58.092,65.188l7.335-7.378l9.761,9.819l-7.336,7.377L58.092,65.188z"/>
	
		<linearGradient id="SVGID_11_" gradientUnits="userSpaceOnUse" x1="-112.833" y1="349.6924" x2="-107.4894" y2="355.036" gradientTransform="matrix(2.5682 0 0 -2.5682 372.4267 995.212)">
		<stop  offset="0" style="stop-color:#2A0000"/>
		<stop  offset="0.5" style="stop-color:#6B1D07"/>
		<stop  offset="1" style="stop-color:#C04A20"/>
	</linearGradient>
	
		<linearGradient id="SVGID_12_" gradientUnits="userSpaceOnUse" x1="-112.2676" y1="350.2578" x2="-107.3829" y2="355.1425" gradientTransform="matrix(2.5682 0 0 -2.5682 372.4267 995.212)">
		<stop  offset="0" style="stop-color:#000000"/>
		<stop  offset="1" style="stop-color:#721700"/>
	</linearGradient>
	<path fill="url(#SVGID_11_)" stroke="url(#SVGID_12_)" stroke-width="0.1975" d="M115.02,101.328c2.263,2.274,2.263,5.965,0,8.24
		l-5.311,5.339c-2.262,2.278-5.93,2.277-8.19,0L65.02,78.196c-2.261-2.274-2.261-5.963,0-8.237l5.313-5.343
		c2.261-2.275,5.929-2.275,8.191,0L115.02,101.328L115.02,101.328z"/>
	<path fill="#FF8035" fill-opacity="0.2" stroke="#480000" stroke-width="0.1975" stroke-opacity="0.2533" d="M77.763,63.854
		l2.257,9.074l-9.533-2.399l2.383,9.59l-7.936-1.996l3.473,3.491l4.463,0.902l2.862,0.466l-0.479-2.863l-1.198-6.003l5.966,1.209
		l2.848,0.483l-0.464-2.88l-1.104-5.521L77.763,63.854L77.763,63.854z"/>
	
		<linearGradient id="SVGID_13_" gradientUnits="userSpaceOnUse" x1="-129.1328" y1="358.3398" x2="-129.1328" y2="385.5518" gradientTransform="matrix(2.5682 0 0 -2.5682 372.4267 995.212)">
		<stop  offset="0" style="stop-color:#FFFFFF"/>
		<stop  offset="1" style="stop-color:#B8D2DD"/>
	</linearGradient>
	<path fill="url(#SVGID_13_)" d="M75.53,39.978c0,19.298-15.554,34.943-34.738,34.943c-19.187,0-34.741-15.645-34.741-34.943
		S21.605,5.035,40.792,5.035C59.977,5.035,75.53,20.679,75.53,39.978L75.53,39.978z"/>
	
		<radialGradient id="SVGID_14_" cx="-126.1426" cy="356.374" r="72.343" gradientTransform="matrix(0.4802 0 0 -0.483 101.3654 212.1112)" gradientUnits="userSpaceOnUse">
		<stop  offset="0" style="stop-color:#FFFFFF;stop-opacity:0"/>
		<stop  offset="0.3617" style="stop-color:#FFFFFF;stop-opacity:0"/>
		<stop  offset="1" style="stop-color:#294A56"/>
	</radialGradient>
	<path fill="url(#SVGID_14_)" d="M75.53,39.978c0,19.298-15.554,34.943-34.738,34.943c-19.187,0-34.741-15.645-34.741-34.943
		S21.605,5.035,40.792,5.035C59.977,5.035,75.53,20.679,75.53,39.978L75.53,39.978z"/>
	<g opacity="0.7" enable-background="new    ">
		
			<linearGradient id="SVGID_15_" gradientUnits="userSpaceOnUse" x1="-129.3584" y1="371.6631" x2="-129.3584" y2="385.4629" gradientTransform="matrix(2.451 0 0 -2.451 358.0864 952.4214)">
			<stop  offset="0" style="stop-color:#FFFFFF"/>
			<stop  offset="0.2414" style="stop-color:#FCFDFE"/>
			<stop  offset="0.4222" style="stop-color:#F2F7F9"/>
			<stop  offset="0.5833" style="stop-color:#E2EDF1"/>
			<stop  offset="0.7329" style="stop-color:#CCDEE6"/>
			<stop  offset="0.8733" style="stop-color:#AECCD8"/>
			<stop  offset="1" style="stop-color:#8DB7C8"/>
		</linearGradient>
		<path fill="url(#SVGID_15_)" d="M41.853,36.852c16.543-10.064,30.131-0.547,30.131-0.547C71.37,20.382,57.752,7.655,41.042,7.655
			c-17.1,0-30.964,13.329-30.964,29.775C10.078,37.43,25.311,46.917,41.853,36.852L41.853,36.852z"/>
	</g>
	
		<linearGradient id="SVGID_16_" gradientUnits="userSpaceOnUse" x1="-129.4546" y1="357.125" x2="-129.4546" y2="387.4238" gradientTransform="matrix(2.451 0 0 -2.451 358.0864 952.4214)">
		<stop  offset="0" style="stop-color:#2C0000"/>
		<stop  offset="1" style="stop-color:#B7B7B7"/>
	</linearGradient>
	<path fill="url(#SVGID_16_)" d="M40.787,2.851c-20.344,0-36.909,16.661-36.909,37.123c0,20.462,16.565,37.139,36.909,37.139
		S77.71,60.435,77.71,39.973C77.71,19.511,61.131,2.851,40.787,2.851z M40.787,7.22c17.969,0,32.579,14.681,32.579,32.753
		c0,18.073-14.61,32.77-32.579,32.77c-17.969,0-32.564-14.696-32.564-32.77C8.223,21.9,22.817,7.22,40.787,7.22z"/>
	<path opacity="0.1509" fill="#F3D2AF" enable-background="new    " d="M40.787,3.776c-19.852,0-35.988,16.23-35.988,36.197
		c0,19.967,16.136,36.213,35.988,36.213S76.79,59.94,76.79,39.973C76.79,20.007,60.639,3.776,40.787,3.776z M40.787,6.294
		c18.459,0,33.499,15.112,33.499,33.679c0,18.568-15.04,33.696-33.499,33.696c-18.46,0-33.485-15.128-33.485-33.696
		C7.302,21.407,22.327,6.294,40.787,6.294z"/>
	<g opacity="0.5" enable-background="new    ">
		<path d="M63.412,73.107c-0.303,1.797,0.235,3.711,1.612,5.096l36.5,36.699c2.262,2.276,5.928,2.276,8.19,0l5.309-5.34
			c1.378-1.384,1.899-3.289,1.6-5.082c-0.192,1.151-0.715,2.253-1.6,3.142l-5.309,5.34c-2.263,2.274-5.929,2.273-8.19,0l-36.5-36.7
			C64.142,75.373,63.604,74.259,63.412,73.107z"/>
	</g>
	<g opacity="0.5" enable-background="new    ">
		<path fill="#FFFFFF" d="M74.421,62.911c-1.481,0-2.957,0.563-4.087,1.698l-5.31,5.343c-1.377,1.385-1.915,3.298-1.612,5.098
			c0.191-1.152,0.729-2.268,1.612-3.156l5.31-5.34c2.262-2.276,5.929-2.276,8.19,0l36.499,36.713c0.887,0.892,1.408,2.001,1.6,3.155
			c0.303-1.797-0.22-3.711-1.6-5.097L78.524,64.609C77.393,63.474,75.903,62.911,74.421,62.911z"/>
	</g>
	<g opacity="0.4" enable-background="new    ">
		<path fill="#FFFFFF" d="M40.787,3.776c-15.604,0-28.912,10.026-33.892,24.016c0.709,0.513,1.423,1.009,2.157,1.486
			C13.512,15.942,26.046,6.294,40.787,6.294c13.017,0,24.322,7.52,29.863,18.463c0.653-0.575,1.291-1.168,1.916-1.775
			C66.505,11.56,54.538,3.776,40.787,3.776z"/>
	</g>
	<path fill="#FF8035" fill-opacity="0.2" stroke="#480000" stroke-width="0.1975" stroke-opacity="0.2533" d="M84.929,71.061
		l2.256,9.075l-9.534-2.398l2.384,9.591l-7.933-1.998l3.47,3.491l4.463,0.903l2.863,0.467l-0.479-2.863l-1.199-6.003l5.966,1.207
		l2.846,0.48l-0.462-2.877l-1.103-5.52L84.929,71.061z"/>
	<path fill="#FF8035" fill-opacity="0.2" stroke="#480000" stroke-width="0.1975" stroke-opacity="0.2533" d="M92.096,78.269
		l2.254,9.074l-9.531-2.398l2.383,9.59l-7.934-1.996l3.472,3.492l4.462,0.9l2.862,0.465l-0.479-2.861l-1.201-6.002l5.966,1.207
		l2.849,0.482l-0.466-2.879l-1.102-5.52L92.096,78.269z"/>
	<path fill="#FF8035" fill-opacity="0.2" stroke="#480000" stroke-width="0.1975" stroke-opacity="0.2533" d="M99.261,85.476
		l2.256,9.072l-9.532-2.396l2.383,9.589l-7.934-1.995l3.47,3.491l4.464,0.901l2.862,0.466l-0.479-2.863l-1.199-6l5.966,1.205
		l2.847,0.482l-0.463-2.881l-1.104-5.517L99.261,85.476L99.261,85.476z"/>
	<path fill="#FF8035" fill-opacity="0.2" stroke="#480000" stroke-width="0.1975" stroke-opacity="0.2533" d="M106.426,92.684
		l2.256,9.073l-9.534-2.396l2.384,9.587l-7.934-1.993l3.473,3.49l4.461,0.901l2.865,0.465l-0.481-2.863l-1.199-6.001l5.966,1.209
		l2.848,0.483l-0.462-2.883l-1.104-5.518L106.426,92.684z"/>
</g>
<g id="disabled_1_" opacity="0.2">
	
		<linearGradient id="SVGID_17_" gradientUnits="userSpaceOnUse" x1="-239.8247" y1="312.7197" x2="-235.7573" y2="312.7197" gradientTransform="matrix(1.816 -1.816 -1.816 -1.816 1066.3672 202.48)">
		<stop  offset="0" style="stop-color:#2C0000"/>
		<stop  offset="1" style="stop-color:#B7B7B7"/>
	</linearGradient>
	
		<linearGradient id="SVGID_18_" gradientUnits="userSpaceOnUse" x1="-239.8242" y1="312.7197" x2="-229.2606" y2="312.7197" gradientTransform="matrix(1.816 -1.816 -1.816 -1.816 1066.3672 202.48)">
		<stop  offset="0" style="stop-color:#2C0000"/>
		<stop  offset="1" style="stop-color:#B7B7B7"/>
	</linearGradient>
	
		<path fill="url(#SVGID_17_)" stroke="url(#SVGID_18_)" stroke-width="0.1975" stroke-linecap="round" stroke-linejoin="round" stroke-miterlimit="5.8" d="
		M58.092,65.188l7.335-7.378l9.761,9.819l-7.336,7.377L58.092,65.188z"/>
	
		<linearGradient id="SVGID_19_" gradientUnits="userSpaceOnUse" x1="-112.833" y1="349.6924" x2="-107.4894" y2="355.036" gradientTransform="matrix(2.5682 0 0 -2.5682 372.4267 995.212)">
		<stop  offset="0" style="stop-color:#2A0000"/>
		<stop  offset="0.5" style="stop-color:#6B1D07"/>
		<stop  offset="1" style="stop-color:#C04A20"/>
	</linearGradient>
	
		<linearGradient id="SVGID_20_" gradientUnits="userSpaceOnUse" x1="-112.2676" y1="350.2578" x2="-107.3829" y2="355.1425" gradientTransform="matrix(2.5682 0 0 -2.5682 372.4267 995.212)">
		<stop  offset="0" style="stop-color:#000000"/>
		<stop  offset="1" style="stop-color:#721700"/>
	</linearGradient>
	<path fill="url(#SVGID_19_)" stroke="url(#SVGID_20_)" stroke-width="0.1975" d="M115.02,101.328c2.263,2.274,2.263,5.965,0,8.24
		l-5.311,5.339c-2.262,2.278-5.93,2.277-8.19,0L65.02,78.196c-2.261-2.274-2.261-5.963,0-8.237l5.313-5.343
		c2.261-2.275,5.929-2.275,8.191,0L115.02,101.328L115.02,101.328z"/>
	<path fill="#FF8035" fill-opacity="0.2" stroke="#480000" stroke-width="0.1975" stroke-opacity="0.2533" d="M77.763,63.854
		l2.257,9.074l-9.533-2.399l2.383,9.59l-7.936-1.996l3.473,3.491l4.463,0.902l2.862,0.466l-0.479-2.863l-1.198-6.003l5.966,1.209
		l2.848,0.483l-0.464-2.88l-1.104-5.521L77.763,63.854L77.763,63.854z"/>
	
		<linearGradient id="SVGID_21_" gradientUnits="userSpaceOnUse" x1="-129.1328" y1="358.3398" x2="-129.1328" y2="385.5518" gradientTransform="matrix(2.5682 0 0 -2.5682 372.4267 995.212)">
		<stop  offset="0" style="stop-color:#FFFFFF"/>
		<stop  offset="1" style="stop-color:#B8D2DD"/>
	</linearGradient>
	<path fill="url(#SVGID_21_)" d="M75.53,39.978c0,19.298-15.554,34.943-34.738,34.943c-19.187,0-34.741-15.645-34.741-34.943
		S21.605,5.035,40.792,5.035C59.977,5.035,75.53,20.679,75.53,39.978L75.53,39.978z"/>
	
		<radialGradient id="SVGID_22_" cx="-126.1426" cy="356.374" r="72.343" gradientTransform="matrix(0.4802 0 0 -0.483 101.3654 212.1112)" gradientUnits="userSpaceOnUse">
		<stop  offset="0" style="stop-color:#FFFFFF;stop-opacity:0"/>
		<stop  offset="0.3617" style="stop-color:#FFFFFF;stop-opacity:0"/>
		<stop  offset="1" style="stop-color:#294A56"/>
	</radialGradient>
	<path fill="url(#SVGID_22_)" d="M75.53,39.978c0,19.298-15.554,34.943-34.738,34.943c-19.187,0-34.741-15.645-34.741-34.943
		S21.605,5.035,40.792,5.035C59.977,5.035,75.53,20.679,75.53,39.978L75.53,39.978z"/>
	<g opacity="0.7" enable-background="new    ">
		
			<linearGradient id="SVGID_23_" gradientUnits="userSpaceOnUse" x1="-129.3584" y1="371.6631" x2="-129.3584" y2="385.4629" gradientTransform="matrix(2.451 0 0 -2.451 358.0864 952.4214)">
			<stop  offset="0" style="stop-color:#FFFFFF"/>
			<stop  offset="0.2414" style="stop-color:#FCFDFE"/>
			<stop  offset="0.4222" style="stop-color:#F2F7F9"/>
			<stop  offset="0.5833" style="stop-color:#E2EDF1"/>
			<stop  offset="0.7329" style="stop-color:#CCDEE6"/>
			<stop  offset="0.8733" style="stop-color:#AECCD8"/>
			<stop  offset="1" style="stop-color:#8DB7C8"/>
		</linearGradient>
		<path fill="url(#SVGID_23_)" d="M41.853,36.852c16.543-10.064,30.131-0.547,30.131-0.547C71.37,20.382,57.752,7.655,41.042,7.655
			c-17.1,0-30.964,13.329-30.964,29.775C10.078,37.43,25.311,46.917,41.853,36.852L41.853,36.852z"/>
	</g>
	
		<linearGradient id="SVGID_24_" gradientUnits="userSpaceOnUse" x1="-129.4546" y1="357.125" x2="-129.4546" y2="387.4238" gradientTransform="matrix(2.451 0 0 -2.451 358.0864 952.4214)">
		<stop  offset="0" style="stop-color:#2C0000"/>
		<stop  offset="1" style="stop-color:#B7B7B7"/>
	</linearGradient>
	<path fill="url(#SVGID_24_)" d="M40.787,2.851c-20.344,0-36.909,16.661-36.909,37.123c0,20.462,16.565,37.139,36.909,37.139
		S77.71,60.435,77.71,39.973C77.71,19.511,61.131,2.851,40.787,2.851z M40.787,7.22c17.969,0,32.579,14.681,32.579,32.753
		c0,18.073-14.61,32.77-32.579,32.77c-17.969,0-32.564-14.696-32.564-32.77C8.223,21.9,22.817,7.22,40.787,7.22z"/>
	<path opacity="0.1509" fill="#F3D2AF" enable-background="new    " d="M40.787,3.776c-19.852,0-35.988,16.23-35.988,36.197
		c0,19.967,16.136,36.213,35.988,36.213S76.79,59.94,76.79,39.973C76.79,20.007,60.639,3.776,40.787,3.776z M40.787,6.294
		c18.459,0,33.499,15.112,33.499,33.679c0,18.568-15.04,33.696-33.499,33.696c-18.46,0-33.485-15.128-33.485-33.696
		C7.302,21.407,22.327,6.294,40.787,6.294z"/>
	<g opacity="0.5" enable-background="new    ">
		<path d="M63.412,73.107c-0.303,1.797,0.235,3.711,1.612,5.096l36.5,36.699c2.262,2.276,5.928,2.276,8.19,0l5.309-5.34
			c1.378-1.384,1.899-3.289,1.6-5.082c-0.192,1.151-0.715,2.253-1.6,3.142l-5.309,5.34c-2.263,2.274-5.929,2.273-8.19,0l-36.5-36.7
			C64.142,75.373,63.604,74.259,63.412,73.107z"/>
	</g>
	<g opacity="0.5" enable-background="new    ">
		<path fill="#FFFFFF" d="M74.421,62.911c-1.481,0-2.957,0.563-4.087,1.698l-5.31,5.343c-1.377,1.385-1.915,3.298-1.612,5.098
			c0.191-1.152,0.729-2.268,1.612-3.156l5.31-5.34c2.262-2.276,5.929-2.276,8.19,0l36.499,36.713c0.887,0.892,1.408,2.001,1.6,3.155
			c0.303-1.797-0.22-3.711-1.6-5.097L78.524,64.609C77.393,63.474,75.903,62.911,74.421,62.911z"/>
	</g>
	<g opacity="0.4" enable-background="new    ">
		<path fill="#FFFFFF" d="M40.787,3.776c-15.604,0-28.912,10.026-33.892,24.016c0.709,0.513,1.423,1.009,2.157,1.486
			C13.512,15.942,26.046,6.294,40.787,6.294c13.017,0,24.322,7.52,29.863,18.463c0.653-0.575,1.291-1.168,1.916-1.775
			C66.505,11.56,54.538,3.776,40.787,3.776z"/>
	</g>
	<path fill="#FF8035" fill-opacity="0.2" stroke="#480000" stroke-width="0.1975" stroke-opacity="0.2533" d="M84.929,71.061
		l2.256,9.075l-9.534-2.398l2.384,9.591l-7.933-1.998l3.47,3.491l4.463,0.903l2.863,0.467l-0.479-2.863l-1.199-6.003l5.966,1.207
		l2.846,0.48l-0.462-2.877l-1.103-5.52L84.929,71.061z"/>
	<path fill="#FF8035" fill-opacity="0.2" stroke="#480000" stroke-width="0.1975" stroke-opacity="0.2533" d="M92.096,78.269
		l2.254,9.074l-9.531-2.398l2.383,9.59l-7.934-1.996l3.472,3.492l4.462,0.9l2.862,0.465l-0.479-2.861l-1.201-6.002l5.966,1.207
		l2.849,0.482l-0.466-2.879l-1.102-5.52L92.096,78.269z"/>
	<path fill="#FF8035" fill-opacity="0.2" stroke="#480000" stroke-width="0.1975" stroke-opacity="0.2533" d="M99.261,85.476
		l2.256,9.072l-9.532-2.396l2.383,9.589l-7.934-1.995l3.47,3.491l4.464,0.901l2.862,0.466l-0.479-2.863l-1.199-6l5.966,1.205
		l2.847,0.482l-0.463-2.881l-1.104-5.517L99.261,85.476L99.261,85.476z"/>
	<path fill="#FF8035" fill-opacity="0.2" stroke="#480000" stroke-width="0.1975" stroke-opacity="0.2533" d="M106.426,92.684
		l2.256,9.073l-9.534-2.396l2.384,9.587l-7.934-1.993l3.473,3.49l4.461,0.901l2.865,0.465l-0.481-2.863l-1.199-6.001l5.966,1.209
		l2.848,0.483l-0.462-2.883l-1.104-5.518L106.426,92.684z"/>
</g>
</svg>
