<?xml version="1.0" encoding="utf-8"?>
<!-- Generator: Adobe Illustrator 15.0.0, SVG Export Plug-In . SVG Version: 6.00 Build 0)  -->
<!DOCTYPE svg PUBLIC "-//W3C//DTD SVG 1.1//EN" "http://www.w3.org/Graphics/SVG/1.1/DTD/svg11.dtd">
<svg version="1.1" id="Layer_x5F_1" xmlns="http://www.w3.org/2000/svg" xmlns:xlink="http://www.w3.org/1999/xlink" x="0px"
	 y="0px" width="132px" height="132px" viewBox="0 0 132 132" enable-background="new 0 0 132 132" xml:space="preserve">
<g>
	<path fill="#00A3FF" d="M109.5,34.76c0-0.55-0.17-1.1-0.55-1.53L85.81,6.81C85.8,6.8,85.8,6.8,85.79,6.79
		c-0.14-0.16-0.3-0.28-0.47-0.39c-0.051-0.04-0.101-0.07-0.15-0.1c-0.15-0.08-0.31-0.14-0.47-0.19c-0.04-0.02-0.08-0.03-0.12-0.05
		C84.4,6.02,84.22,6,84.04,6H27.18c-2.6,0-4.71,2.11-4.71,4.71v110.58c0,2.6,2.11,4.71,4.71,4.71h77.64c2.6,0,4.71-2.11,4.71-4.71
		V35.02C109.53,34.93,109.52,34.84,109.5,34.76z M56.46,104.63c0,3.61-2.92,6.54-6.53,6.54h-3.16v6.53h-5.53V93.34h8.69
		c1.81,0,3.44,0.73,4.62,1.92c1.19,1.181,1.92,2.811,1.92,4.61L56.46,104.63z M77.72,111.17c0,3.61-2.93,6.53-6.529,6.53h-2.15
		c-3.61,0-6.54-2.92-6.54-6.53v-11.3c0-3.601,2.93-6.53,6.54-6.53h2.15c1.81,0,3.439,0.73,4.619,1.92
		c1.181,1.181,1.91,2.82,1.91,4.62V111.17z M90.03,117.7H84.5V93.34h5.53V117.7z M27.18,85.91v-75.2h54.51v24.08
		c0,1.29,1.05,2.35,2.35,2.35h20.78l0.01,48.77H27.18z"/>
	<path fill="#FFFFFF" d="M104.82,37.14H84.04c-1.3,0-2.35-1.06-2.35-2.35V10.71H27.18v75.2h77.65L104.82,37.14z M66.09,16.17
		c8.13,0.33,15.021,8.02,13.28,19.24C77.59,47.08,71.6,52.98,66.12,53.3c-5.52,0.54-12.2-6.71-13.6-18.3
		C51.08,23.98,57.96,16.58,66.09,16.17z M39.26,79.81c0,0,0.83-8.56,0.86-10.609c0.53-6.66,4.05-10.6,11.77-12.47
		c-0.03,0-0.08-0.01-0.11-0.02c3.95-1.37,5.61-2.26,6.3-3.27c2.62,2.51,5.5,3.79,8.17,3.53c2.36-0.14,4.81-1.16,7.06-3.05
		c0.94,0.71,2.99,1.33,7.37,2.79c-0.22,0.04-0.47,0.06-0.699,0.09c8.17,1.82,12,5.54,12.199,12.431c0,0.319-0.01,0.64-0.04,0.96
		c-0.02,0.31-0.06,0.63-0.1,0.939c-0.021,0.16,0.59,8.68,0.59,8.68H39.26z"/>
	<path fill="#269F00" d="M79.37,35.41C77.59,47.08,71.6,52.98,66.12,53.3c-5.52,0.54-12.2-6.71-13.6-18.3
		c-1.44-11.02,5.44-18.42,13.57-18.83C74.22,16.5,81.11,24.19,79.37,35.41z"/>
	<path fill="#269F00" d="M92.63,79.81H39.26c0,0,0.83-8.56,0.86-10.609c0.53-6.66,4.05-10.6,11.77-12.47
		c-0.03,0-0.08-0.01-0.11-0.02c3.95-1.37,5.61-2.26,6.3-3.27c2.62,2.51,5.5,3.79,8.17,3.53c2.36-0.14,4.81-1.16,7.06-3.05
		c0.94,0.71,2.99,1.33,7.37,2.79c-0.22,0.04-0.47,0.06-0.699,0.09c8.17,1.82,12,5.54,12.199,12.431c0,0.319-0.01,0.64-0.04,0.96
		c-0.02,0.31-0.06,0.63-0.1,0.939C92.02,71.29,92.63,79.81,92.63,79.81z"/>
	<path fill="#FFFFFF" d="M54.55,95.26c-1.18-1.189-2.81-1.92-4.62-1.92h-8.69v24.36h5.53v-6.53h3.16c3.61,0,6.53-2.93,6.53-6.54
		l0.01-4.76C56.47,98.07,55.74,96.44,54.55,95.26z M50.93,105.45c0,0.6-0.48,1.09-1.08,1.09h-1.99c-0.6,0-1.09-0.49-1.09-1.09v-6.4
		c0-0.6,0.49-1.09,1.09-1.09h1.99c0.6,0,1.09,0.49,1.08,1.09V105.45z"/>
	<path fill="#FFFFFF" d="M75.81,95.26c-1.18-1.189-2.81-1.92-4.619-1.92h-2.15c-3.61,0-6.54,2.93-6.54,6.53v11.3
		c0,3.61,2.93,6.53,6.54,6.53h2.15c3.6,0,6.529-2.92,6.529-6.53V99.88C77.72,98.08,76.99,96.44,75.81,95.26z M72.19,111.99
		c0,0.6-0.49,1.09-1.091,1.09H69.12c-0.601,0-1.09-0.49-1.09-1.09V99.05c0-0.6,0.489-1.09,1.09-1.09H71.1
		c0.601,0,1.091,0.49,1.091,1.09V111.99z"/>
	<rect x="84.5" y="93.34" fill="#FFFFFF" width="5.53" height="24.36"/>
	<path fill="#00A3FF" d="M72.19,99.05v12.94c0,0.6-0.49,1.09-1.091,1.09H69.12c-0.601,0-1.09-0.49-1.09-1.09V99.05
		c0-0.6,0.489-1.09,1.09-1.09H71.1C71.7,97.96,72.19,98.45,72.19,99.05z"/>
	<path fill="#00A3FF" d="M50.93,99.05v6.4c0,0.6-0.48,1.09-1.08,1.09h-1.99c-0.6,0-1.09-0.49-1.09-1.09v-6.4
		c0-0.6,0.49-1.09,1.09-1.09h1.99C50.45,97.96,50.94,98.45,50.93,99.05z"/>
</g>
</svg>
