<?xml version="1.0" encoding="utf-8"?>
<!-- Generator: Adobe Illustrator 15.0.0, SVG Export Plug-In . SVG Version: 6.00 Build 0)  -->
<!DOCTYPE svg PUBLIC "-//W3C//DTD SVG 1.1//EN" "http://www.w3.org/Graphics/SVG/1.1/DTD/svg11.dtd">
<svg version="1.1" id="Layer_1" xmlns="http://www.w3.org/2000/svg" xmlns:xlink="http://www.w3.org/1999/xlink" x="0px" y="0px"
	 width="132px" height="132px" viewBox="0 0 132 132" enable-background="new 0 0 132 132" xml:space="preserve">
<g>
	<path fill="#3FA9FF" d="M109.5,34.76c0-0.55-0.17-1.1-0.55-1.53L85.81,6.81C85.8,6.8,85.8,6.8,85.79,6.79
		c-0.14-0.16-0.3-0.28-0.47-0.39c-0.051-0.04-0.101-0.07-0.15-0.1c-0.15-0.08-0.3-0.14-0.46-0.19c-0.05-0.02-0.09-0.03-0.13-0.04
		C84.4,6.02,84.22,6,84.04,6H27.18c-2.6,0-4.71,2.11-4.71,4.71v110.58c0,2.6,2.11,4.71,4.71,4.71h77.64c2.6,0,4.71-2.11,4.71-4.71
		V35.02C109.53,34.93,109.52,34.84,109.5,34.76z M49.82,117.7l-1.82-5h-7.76l-1.82,5h-5.89l8.87-24.36h5.44l8.87,24.36H49.82z
		 M77.72,117.7H62.5V93.34h5.53v19.74h9.689V117.7z M99.72,117.7H84.5V93.34h5.53v19.74h9.689V117.7z M27.18,85.91v-75.2h54.51
		v14.47c4.31,2.98,7.79,7.11,9.96,11.96h13.17l0.01,48.77H27.18z"/>
	<polygon fill="#FFFFFF" points="99.72,113.08 99.72,117.7 84.5,117.7 84.5,93.34 90.03,93.34 90.03,113.08 	"/>
	<polygon fill="#FFFFFF" points="77.72,113.08 77.72,117.7 62.5,117.7 62.5,93.34 68.03,93.34 68.03,113.08 	"/>
	<path fill="#FFFFFF" d="M46.84,93.34H41.4l-8.87,24.36h5.89l1.82-5H48l1.82,5h5.89L46.84,93.34z M42.22,107.25l1.9-5.22l1.9,5.22
		H42.22z"/>
	<polygon fill="#3FA9FF" points="46.02,107.25 42.22,107.25 44.12,102.03 	"/>
</g>
<g id="Layer_x5F_1">
	<g>
		<path fill="#FFFFFF" d="M65.016,78.37C48.904,78.248,35.838,64.996,35.89,48.829C35.941,32.684,49.088,19.55,65.197,19.55h0.168
			c5.954,0,11.697,1.805,16.61,5.22l0.215,0.149v4.029l-0.803-0.61c-4.869-3.699-10.269-5.575-16.048-5.575
			c-1.227,0-2.49,0.085-3.754,0.252c-0.789,0.103-1.591,0.292-2.376,0.488l0.672,0.031c0.943,0.042,1.884,0.085,2.821,0.146
			c5.506,0.334,10.023,2.373,13.425,6.06c1.66,1.801,3.176,3.773,4.642,5.68c0.927,1.206,1.885,2.453,2.866,3.64
			c1.148,1.396,2.369,2.646,3.63,3.718c0.373,0.318,0.799,0.486,1.229,0.486c0.419,0,0.845-0.161,1.198-0.451
			c0.683-0.55,0.894-0.996,0.444-2.335c-0.354-1.051-0.786-2.1-1.286-3.119l-0.353-0.72h3.475l0.133,0.293
			c1.725,3.797,2.595,7.861,2.585,12.077c-0.031,16.189-13.235,29.36-29.434,29.36C65.256,78.371,65.016,78.37,65.016,78.37z
			 M43.979,58.083c-0.816,0-1.507,0.378-1.896,1.039c-0.429,0.727-0.416,1.649,0.035,2.467c2.548,4.638,6.22,8.25,10.916,10.74
			c0.163,0.083,0.35,0.15,0.573,0.223c-0.033-0.171-0.063-0.318-0.101-0.467c-0.331-1.323-0.239-2.326,0.274-2.984
			c0.427-0.546,1.107-0.822,2.022-0.822c0.378,0,0.805,0.048,1.268,0.143l0.281,0.062c0.277,0.06,0.555,0.119,0.833,0.197
			c4.697,1.206,8.936,1.793,12.947,1.793c1.958,0,3.9-0.144,5.774-0.426c3.486-0.524,6.531-1.193,8.489-4.077
			c0.364-0.539,0.75-1.063,1.139-1.586c-0.121,0.03-0.242,0.061-0.362,0.097c-3.05,0.832-6.593,1.717-10.176,1.717
			c-0.359,0-0.72-0.009-1.081-0.027c-3.04-0.15-6.334-0.56-9.789-1.218c-4.896-0.928-9.529-2.852-14.009-4.713l-1.947-0.806
			c-1.98-0.81-3.574-1.237-5.017-1.344C44.098,58.085,44.038,58.083,43.979,58.083z M49.166,36.104c1.544,0,3.129,0.404,4.709,1.199
			c1.341,0.671,2.767,1.414,4.102,2.3c2.07,1.371,4.124,2.769,6.178,4.167c3.53,2.402,7.18,4.886,10.851,7.186
			c4.642,2.919,9.604,4.905,14.75,5.903c0.131,0.025,0.248,0.04,0.352,0.04c0.194,0,0.322,0,0.412-0.439
			c0.085-0.389,0.154-0.774,0.223-1.158c0.111-0.626,0.228-1.275,0.406-1.908c0.06-0.216,0.035-0.289,0.034-0.291l0,0
			c-0.001,0-0.05-0.052-0.278-0.106c-2.915-0.685-5.584-1.961-7.932-3.792c-4.251-3.329-8.376-6.796-12.236-10.063
			c-1.421-1.207-2.828-2.473-4.189-3.698c-1.309-1.177-2.662-2.395-4.021-3.554c-2.487-2.124-5.333-3.156-8.703-3.156
			c-1.185,0-2.452,0.133-3.765,0.396c-1.155,0.229-2.399,0.475-3.103,1.111c-2.9,2.651-4.989,5.684-6.206,9.011
			c-0.153,0.409-0.274,0.824-0.394,1.238c0.041-0.028,0.082-0.058,0.12-0.089c0.294-0.238,0.578-0.492,0.862-0.747
			c0.264-0.237,0.529-0.474,0.803-0.7C44.421,37.063,46.785,36.104,49.166,36.104z"/>
		<path d="M65.365,20.05c6.024,0,11.659,1.887,16.325,5.13v2.76c-4.92-3.737-10.379-5.677-16.351-5.677
			c-1.25,0-2.524,0.085-3.82,0.257c-1.31,0.17-2.6,0.56-3.9,0.86c0.02,0.15,0.03,0.3,0.05,0.45c0.27,0.05,0.54,0.12,0.81,0.14
			c1.4,0.07,2.8,0.12,4.19,0.21c5.11,0.31,9.62,2.14,13.09,5.9c2.69,2.92,4.95,6.23,7.49,9.3c1.11,1.35,2.35,2.64,3.69,3.78
			c0.492,0.419,1.031,0.605,1.554,0.605c0.55,0,1.08-0.207,1.516-0.565c0.931-0.75,1.07-1.48,0.601-2.88
			c-0.37-1.1-0.811-2.16-1.311-3.18h2.351c1.64,3.61,2.55,7.63,2.54,11.87c-0.03,15.635-12.854,28.861-28.935,28.861
			c-0.078,0-0.157,0-0.235-0.001c-15.86-0.12-28.68-13.42-28.63-29.04c0.05-15.766,13.03-28.781,28.807-28.78
			c0.024,0,0.049,0,0.073,0C65.302,20.05,65.333,20.05,65.365,20.05 M39.94,41.32c0.28-0.17,0.59-0.32,0.85-0.53
			c0.57-0.46,1.1-0.98,1.67-1.45c2.112-1.752,4.34-2.736,6.706-2.736c1.442,0,2.935,0.366,4.484,1.146
			c1.38,0.69,2.77,1.42,4.05,2.27c5.69,3.77,11.26,7.74,17.04,11.36c4.58,2.88,9.56,4.93,14.92,5.97
			c0.167,0.033,0.315,0.049,0.447,0.049c0.518,0,0.783-0.258,0.902-0.839c0.221-1.01,0.34-2.04,0.62-3.03
			c0.18-0.65-0.06-0.89-0.61-1.02c-2.85-0.67-5.47-1.93-7.739-3.7c-4.15-3.25-8.19-6.64-12.221-10.05
			c-2.779-2.36-5.43-4.88-8.209-7.25c-2.717-2.321-5.772-3.275-9.027-3.275c-1.261,0-2.551,0.144-3.863,0.406
			c-1.16,0.23-2.52,0.49-3.34,1.23c-2.8,2.56-5.02,5.6-6.34,9.21c-0.25,0.67-0.42,1.36-0.63,2.04
			C39.75,41.19,39.84,41.25,39.94,41.32 M54.26,73.29c-0.13-0.63-0.18-0.98-0.27-1.33c-0.524-2.097,0.101-3.183,1.813-3.183
			c0.345,0,0.734,0.044,1.167,0.133c0.36,0.08,0.72,0.149,1.08,0.25c4.327,1.111,8.677,1.812,13.082,1.812
			c1.938,0,3.887-0.136,5.849-0.432c3.39-0.51,6.71-1.17,8.829-4.29c0.5-0.74,1.04-1.45,1.57-2.17c-0.11-0.11-0.22-0.23-0.33-0.34
			c-0.34,0.09-0.68,0.16-1.02,0.26c-3.291,0.897-6.631,1.696-10.034,1.696c-0.352,0-0.703-0.009-1.056-0.026
			c-3.25-0.16-6.521-0.6-9.72-1.21c-5.54-1.05-10.67-3.36-15.86-5.49c-1.64-0.67-3.42-1.25-5.17-1.38
			c-0.071-0.004-0.141-0.007-0.21-0.007c-2.206,0-3.385,2.278-2.299,4.247c2.61,4.75,6.33,8.4,11.12,10.939
			C53.19,72.97,53.63,73.07,54.26,73.29 M65.365,19.05h-0.099h-0.069c-16.384,0-29.755,13.358-29.807,29.777
			c-0.025,7.852,3.041,15.322,8.634,21.035c5.628,5.749,13.082,8.948,20.988,9.008l0.243,0.001
			c16.474,0,29.904-13.395,29.935-29.859c0.01-4.289-0.875-8.422-2.63-12.285l-0.266-0.586H91.65H89.3h-1.604l0.706,1.44
			c0.489,0.999,0.913,2.028,1.26,3.059c0.395,1.176,0.199,1.396-0.28,1.783c-0.271,0.224-0.584,0.344-0.888,0.344
			c-0.315,0-0.62-0.124-0.905-0.367c-1.239-1.053-2.438-2.283-3.566-3.654c-0.979-1.182-1.934-2.425-2.857-3.628
			c-1.473-1.916-2.995-3.897-4.67-5.714c-3.219-3.488-7.403-5.539-12.454-6.107c0.437-0.021,0.87-0.031,1.299-0.031
			c5.668,0,10.965,1.841,15.746,5.473l1.604,1.219V27.94v-2.76v-0.523l-0.43-0.298C77.264,20.886,71.422,19.05,65.365,19.05
			L65.365,19.05z M41.411,38.921c1.213-3.057,3.19-5.85,5.884-8.313c0.597-0.539,1.769-0.771,2.802-0.976l0.057-0.011
			c1.283-0.257,2.517-0.387,3.669-0.387c3.245,0,5.985,0.993,8.377,3.036c1.355,1.156,2.706,2.371,4.012,3.545
			c1.364,1.227,2.774,2.496,4.2,3.707c3.865,3.271,7.994,6.742,12.252,10.075c2.359,1.84,5.034,3.133,7.953,3.845
			c-0.157,0.593-0.264,1.191-0.367,1.772c-0.067,0.378-0.135,0.757-0.217,1.133c-0.004,0.017-0.008,0.033-0.011,0.047
			c-0.049-0.004-0.104-0.012-0.171-0.025c-5.086-0.987-9.99-2.95-14.579-5.835c-3.664-2.295-7.311-4.776-10.836-7.176
			c-2.021-1.375-4.11-2.797-6.184-4.171c-1.356-0.901-2.799-1.653-4.155-2.331c-1.648-0.83-3.308-1.251-4.931-1.251
			c-2.5,0-4.971,0.998-7.344,2.966C41.683,38.685,41.546,38.802,41.411,38.921L41.411,38.921z M52.91,71.693
			c-4.431-2.43-7.917-5.91-10.353-10.345c-0.366-0.663-0.382-1.4-0.043-1.973c0.302-0.511,0.823-0.792,1.466-0.792
			c0.048,0,0.097,0.001,0.146,0.005c1.378,0.103,2.925,0.519,4.855,1.308c0.648,0.266,1.296,0.535,1.944,0.804
			c4.504,1.871,9.161,3.805,14.109,4.742c3.477,0.663,6.793,1.075,9.857,1.227c0.367,0.019,0.736,0.027,1.104,0.027
			c3.258,0,6.464-0.714,9.301-1.463c-0.106,0.151-0.212,0.304-0.316,0.458c-1.843,2.714-4.781,3.354-8.148,3.86
			c-1.85,0.279-3.768,0.421-5.7,0.421c-3.97,0-8.167-0.582-12.833-1.78c-0.267-0.074-0.554-0.137-0.842-0.199l-0.269-0.059
			c-0.512-0.104-0.973-0.156-1.385-0.156c-1.342,0-2.055,0.552-2.417,1.015C52.846,69.484,52.687,70.459,52.91,71.693L52.91,71.693z
			"/>
	</g>
	<path fill="#3FA9FF" d="M91.65,37.14H89.3c-1.729-3.57-4.22-6.61-7.439-9.08c-0.061-0.04-0.11-0.09-0.17-0.12v-2.76
		C86,28.16,89.48,32.29,91.65,37.14z"/>
	<path fill="#3FA9FF" d="M89.3,37.14h-5.26c-1.3,0-2.35-1.06-2.35-2.35v-6.85c0.06,0.03,0.109,0.08,0.17,0.12
		C85.08,30.53,87.57,33.57,89.3,37.14z"/>
	<path fill="#0002B3" d="M90.01,43.2c-0.85,0.7-2.06,0.82-3.069-0.04c-1.341-1.14-2.58-2.43-3.69-3.78c-2.54-3.07-4.8-6.38-7.49-9.3
		c-3.47-3.76-7.979-5.59-13.09-5.9c-1.39-0.09-2.79-0.14-4.19-0.21c-0.27-0.02-0.54-0.09-0.81-0.14c-0.02-0.15-0.03-0.3-0.05-0.45
		c1.3-0.3,2.59-0.69,3.9-0.86c7.48-0.99,14.22,0.9,20.17,5.42v6.85c0,1.29,1.05,2.35,2.35,2.35h5.26c0.5,1.02,0.94,2.08,1.311,3.18
		C91.08,41.72,90.94,42.45,90.01,43.2z"/>
	<path fill="#0002B3" d="M87.38,64.08c-0.53,0.72-1.07,1.43-1.57,2.17c-2.119,3.12-5.439,3.78-8.829,4.29
		c-6.421,0.97-12.701,0.22-18.931-1.38c-0.36-0.101-0.72-0.17-1.08-0.25c-2.58-0.53-3.61,0.53-2.98,3.05
		c0.09,0.35,0.14,0.7,0.27,1.33c-0.63-0.22-1.07-0.32-1.46-0.521c-4.79-2.539-8.51-6.189-11.12-10.939
		c-1.12-2.03,0.17-4.39,2.51-4.24c1.75,0.13,3.53,0.71,5.17,1.38c5.19,2.13,10.32,4.44,15.86,5.49c3.2,0.61,6.47,1.05,9.72,1.21
		c3.77,0.19,7.46-0.68,11.09-1.67c0.34-0.1,0.68-0.17,1.02-0.26C87.16,63.85,87.27,63.97,87.38,64.08z"/>
	<path fill="#0002B3" d="M91.63,53.53c-0.28,0.99-0.399,2.02-0.62,3.03c-0.149,0.73-0.529,0.95-1.35,0.79
		c-5.36-1.04-10.34-3.09-14.92-5.97c-5.78-3.62-11.35-7.59-17.04-11.36c-1.28-0.85-2.67-1.58-4.05-2.27
		c-4.09-2.06-7.79-1.23-11.19,1.59c-0.57,0.47-1.1,0.99-1.67,1.45c-0.26,0.21-0.57,0.36-0.85,0.53c-0.1-0.07-0.19-0.13-0.29-0.2
		c0.21-0.68,0.38-1.37,0.63-2.04c1.32-3.61,3.54-6.65,6.34-9.21c0.82-0.74,2.18-1,3.34-1.23c4.7-0.94,9.12-0.35,12.89,2.87
		c2.78,2.37,5.43,4.89,8.209,7.25c4.03,3.41,8.07,6.8,12.221,10.05c2.27,1.77,4.89,3.03,7.739,3.7
		C91.57,52.64,91.81,52.88,91.63,53.53z"/>
</g>
</svg>
