<?xml version="1.0" encoding="UTF-8" ?>
<!DOCTYPE svg PUBLIC "-//W3C//DTD SVG 1.1//EN" "http://www.w3.org/Graphics/SVG/1.1/DTD/svg11.dtd">
<svg width="150pt" height="168pt" viewBox="0 0 150 168" version="1.1" xmlns="http://www.w3.org/2000/svg">
<g id="#ffffffff">
<path fill="#ffffff" opacity="1.00" d=" M 11.83 22.98 C 12.02 10.93 23.16 0.77 34.98 0.58 C 54.32 0.58 73.67 0.58 93.02 0.65 C 94.54 0.77 96.21 0.38 97.63 1.09 C 101.34 2.98 105.66 1.80 109.65 2.27 C 108.34 3.42 107.02 4.56 105.74 5.73 C 81.81 6.41 57.87 6.19 33.94 6.35 C 26.46 6.55 20.52 12.16 17.69 18.74 C 16.58 20.99 16.72 23.54 16.67 25.98 C 16.58 36.30 16.90 46.63 16.64 56.95 C 16.72 60.45 14.91 63.51 11.97 65.35 C 11.62 51.26 11.96 37.10 11.83 22.98 Z" />
</g>
<g id="#d5d6d7ff">
<path fill="#d5d6d7" opacity="1.00" d=" M 30.74 0.00 L 130.63 0.00 C 135.51 1.79 140.43 4.04 143.87 8.09 C 146.94 11.31 148.41 15.57 150.00 19.62 L 150.00 118.67 C 148.39 124.96 145.16 131.11 139.61 134.76 C 135.32 137.68 130.17 139.37 124.96 139.30 C 108.65 139.28 92.35 139.29 76.04 139.29 C 72.21 139.37 68.10 138.64 64.58 140.56 C 44.29 149.79 23.83 158.63 3.62 168.00 L 0.71 168.00 C 6.21 156.05 13.07 144.76 18.94 132.98 C 14.28 128.54 10.86 122.57 10.77 116.00 C 10.61 99.65 10.79 83.30 10.81 66.95 C 11.57 52.00 11.03 37.02 11.22 22.05 C 11.18 17.27 13.52 12.86 16.20 9.04 C 19.65 4.21 25.41 2.04 30.74 0.00 M 11.83 22.98 C 11.96 37.10 11.62 51.26 11.97 65.35 C 11.27 66.77 11.78 68.47 11.65 70.00 C 11.95 81.78 11.72 93.58 12.33 105.35 C 11.29 112.20 11.66 119.75 15.14 126.01 C 15.82 128.93 19.91 130.09 20.68 132.95 C 17.83 138.34 15.04 143.85 12.26 149.30 C 10.51 152.82 7.78 156.02 7.17 159.98 C 9.78 158.38 11.31 155.50 14.06 154.07 C 13.64 155.05 13.31 156.07 13.06 157.11 C 15.48 157.17 17.56 155.52 19.78 154.73 C 35.12 147.41 50.57 140.34 65.84 132.87 C 85.19 133.02 104.58 132.46 123.95 132.63 C 132.08 133.31 140.15 127.67 142.50 119.91 C 142.75 113.27 142.45 106.61 142.63 99.96 C 142.36 98.63 143.26 96.61 141.72 95.86 C 141.64 81.25 141.71 66.64 141.68 52.03 C 141.68 49.75 141.53 47.45 142.11 45.21 C 141.37 45.98 140.93 46.88 140.80 47.92 L 140.72 47.29 C 138.71 47.85 136.68 48.37 134.58 48.40 L 134.38 48.10 C 136.54 47.87 139.22 47.53 140.81 45.83 L 139.28 45.21 C 139.91 45.13 141.18 44.98 141.81 44.90 C 141.46 40.44 141.85 35.97 141.54 31.52 C 141.99 29.02 141.54 26.43 141.75 23.90 C 141.68 21.39 141.10 18.94 139.96 16.70 C 137.68 12.78 133.77 9.28 129.18 8.70 C 127.94 7.84 126.36 8.16 124.96 8.05 C 94.97 8.04 64.98 8.16 34.98 8.17 C 26.70 7.90 19.84 14.99 18.68 22.90 C 18.28 21.53 17.92 20.15 17.69 18.74 C 20.52 12.16 26.46 6.55 33.94 6.35 C 57.87 6.19 81.81 6.41 105.74 5.73 C 114.38 7.14 123.36 4.81 131.96 6.98 C 136.20 9.61 140.64 12.65 142.41 17.56 C 145.25 23.35 143.29 29.88 144.27 35.99 C 145.49 35.17 145.33 33.35 146.33 32.29 C 146.71 32.70 147.47 33.52 147.85 33.93 C 148.70 25.54 149.25 15.64 142.82 9.14 C 141.31 7.91 140.14 5.58 138.20 5.26 C 134.95 2.85 131.02 1.65 127.12 0.77 C 119.06 0.55 111.00 0.68 102.94 0.57 C 101.17 0.68 99.25 0.14 97.63 1.09 C 96.21 0.38 94.54 0.77 93.02 0.65 C 73.67 0.58 54.32 0.58 34.98 0.58 C 23.16 0.77 12.02 10.93 11.83 22.98 Z" />
</g>
<g id="#f1f1f2ff">
<path fill="#f1f1f2" opacity="1.00" d=" M 97.63 1.09 C 99.25 0.14 101.17 0.68 102.94 0.57 C 111.00 0.68 119.06 0.55 127.12 0.77 C 131.02 1.65 134.95 2.85 138.20 5.26 C 136.78 7.52 134.33 7.74 131.96 6.98 C 123.36 4.81 114.38 7.14 105.74 5.73 C 107.02 4.56 108.34 3.42 109.65 2.27 C 105.66 1.80 101.34 2.98 97.63 1.09 Z" />
<path fill="#f1f1f2" opacity="1.00" d=" M 141.72 95.86 C 143.26 96.61 142.36 98.63 142.63 99.96 C 142.45 106.61 142.75 113.27 142.50 119.91 C 140.15 127.67 132.08 133.31 123.95 132.63 C 104.58 132.46 85.19 133.02 65.84 132.87 C 65.88 132.39 65.98 131.44 66.03 130.96 C 83.66 130.65 101.32 130.92 118.97 130.83 C 123.46 130.69 128.24 131.47 132.43 129.41 C 137.83 126.84 141.83 121.14 141.69 115.05 C 141.75 108.65 141.71 102.26 141.72 95.86 Z" />
</g>
<g id="#e6e7e7ff">
<path fill="#e6e7e7" opacity="1.00" d=" M 138.20 5.26 C 140.14 5.58 141.31 7.91 142.82 9.14 C 149.25 15.64 148.70 25.54 147.85 33.93 C 147.47 33.52 146.71 32.70 146.33 32.29 C 145.33 33.35 145.49 35.17 144.27 35.99 C 143.29 29.88 145.25 23.35 142.41 17.56 C 140.64 12.65 136.20 9.61 131.96 6.98 C 134.33 7.74 136.78 7.52 138.20 5.26 Z" />
</g>
<g id="#faef61ff">
<path fill="#faef61" opacity="1.00" d=" M 18.68 22.90 C 19.84 14.99 26.70 7.90 34.98 8.17 C 64.98 8.16 94.97 8.04 124.96 8.05 C 126.36 8.16 127.94 7.84 129.18 8.70 C 121.13 9.52 113.03 8.88 104.97 9.29 C 107.83 10.46 111.14 9.53 114.15 10.22 C 111.64 11.54 108.75 11.57 106.02 12.07 C 95.34 14.23 84.49 15.45 73.84 17.86 C 56.22 20.89 38.58 23.81 21.02 27.21 C 20.30 25.74 19.51 24.31 18.68 22.90 Z" />
</g>
<g id="#fdef4bff">
<path fill="#fdef4b" opacity="1.00" d=" M 104.97 9.29 C 113.03 8.88 121.13 9.52 129.18 8.70 C 133.77 9.28 137.68 12.78 139.96 16.70 C 139.19 17.62 138.68 18.82 137.65 19.49 C 134.33 20.10 130.97 20.52 127.74 21.53 C 127.02 21.04 126.31 20.55 125.60 20.06 C 125.61 19.29 125.61 17.75 125.62 16.98 C 123.52 17.29 121.44 17.70 119.37 18.17 C 119.32 18.54 119.22 19.28 119.17 19.65 C 118.61 20.97 118.03 22.29 117.46 23.61 C 108.87 25.83 100.01 26.81 91.29 28.38 C 88.33 29.71 89.56 33.44 89.07 35.98 C 87.69 36.30 86.31 36.61 84.93 36.96 C 86.19 36.39 87.44 35.82 88.71 35.28 C 88.77 33.28 88.80 31.28 88.78 29.28 C 87.47 29.83 86.17 30.39 84.87 30.96 C 85.12 30.52 85.62 29.65 85.87 29.21 C 66.34 33.35 46.53 36.08 26.94 39.90 C 24.80 40.35 22.65 41.05 20.44 40.77 C 20.10 39.00 19.56 37.27 18.79 35.63 C 18.57 31.39 18.79 27.15 18.68 22.90 C 19.51 24.31 20.30 25.74 21.02 27.21 C 38.58 23.81 56.22 20.89 73.84 17.86 C 84.49 15.45 95.34 14.23 106.02 12.07 C 108.75 11.57 111.64 11.54 114.15 10.22 C 111.14 9.53 107.83 10.46 104.97 9.29 Z" />
</g>
<g id="#000000ff">
<path fill="#000000" opacity="1.00" d=" M 119.37 18.17 C 121.44 17.70 123.52 17.29 125.62 16.98 C 125.61 17.75 125.61 19.29 125.60 20.06 C 125.60 24.55 125.59 29.04 125.59 33.53 C 128.24 30.77 130.20 27.45 132.84 24.70 C 135.33 23.98 138.00 24.42 140.56 24.23 C 137.82 27.34 134.85 30.25 132.42 33.62 C 134.28 36.30 135.92 39.14 137.58 41.95 C 138.16 43.03 138.73 44.11 139.28 45.21 L 140.81 45.83 C 139.22 47.53 136.54 47.87 134.38 48.10 C 132.18 44.98 130.48 41.54 128.25 38.44 C 124.72 41.16 125.65 45.51 125.60 49.40 C 123.47 49.84 121.34 50.34 119.23 50.88 C 119.22 47.15 119.28 43.43 119.18 39.70 C 119.29 36.71 119.24 33.72 119.18 30.73 C 119.31 27.03 119.24 23.34 119.17 19.65 C 119.22 19.28 119.32 18.54 119.37 18.17 Z" />
<path fill="#000000" opacity="1.00" d=" M 84.87 30.96 C 86.17 30.39 87.47 29.83 88.78 29.28 C 88.80 31.28 88.77 33.28 88.71 35.28 C 87.44 35.82 86.19 36.39 84.93 36.96 C 84.09 37.28 83.25 37.60 82.41 37.91 C 82.40 36.00 82.38 34.08 82.37 32.16 C 83.21 31.76 84.04 31.36 84.87 30.96 Z" />
<path fill="#000000" opacity="1.00" d=" M 94.36 41.00 C 96.98 34.88 103.23 29.85 110.11 30.29 C 112.39 30.39 113.74 32.47 114.97 34.12 C 114.88 34.47 114.70 35.16 114.62 35.51 C 112.78 36.44 110.91 37.28 109.06 38.17 C 108.41 37.31 107.77 36.44 107.13 35.57 C 99.87 35.80 97.74 44.92 100.57 50.42 C 101.18 50.67 102.42 51.16 103.03 51.41 C 106.45 50.62 108.82 47.88 109.50 44.50 C 111.57 44.32 113.63 44.09 115.70 43.83 C 115.25 45.30 114.75 46.76 114.20 48.19 C 111.35 53.35 105.78 56.66 99.96 57.13 C 96.85 57.19 94.16 54.98 93.49 51.97 C 92.97 48.33 92.96 44.47 94.36 41.00 Z" />
<path fill="#000000" opacity="1.00" d=" M 82.37 40.89 C 84.48 39.96 86.60 39.06 88.69 38.10 C 88.73 38.74 88.80 40.02 88.84 40.66 C 88.67 47.71 88.81 54.77 88.75 61.82 C 86.66 62.80 84.55 63.76 82.44 64.70 C 82.32 56.76 82.47 48.82 82.37 40.89 Z" />
<path fill="#000000" opacity="1.00" d=" M 70.51 46.12 C 72.39 45.28 74.29 44.46 76.17 43.61 L 76.79 43.77 C 76.60 51.62 76.95 59.48 76.62 67.33 C 74.72 68.09 72.83 68.88 70.94 69.67 C 70.90 68.92 70.82 67.44 70.78 66.69 C 68.19 70.71 64.05 74.66 58.93 74.31 C 56.46 74.06 55.27 71.37 55.32 69.16 C 55.19 63.53 55.30 57.91 55.27 52.28 C 57.41 51.51 59.50 50.59 61.72 50.08 C 61.70 55.71 61.42 61.36 61.89 66.98 C 62.39 67.34 63.39 68.08 63.89 68.45 C 66.75 67.32 69.49 65.22 70.18 62.06 C 70.78 56.77 70.31 51.43 70.51 46.12 Z" />
<path fill="#000000" opacity="1.00" d=" M 22.10 57.29 C 26.30 50.83 34.50 48.01 41.93 48.57 C 46.45 48.91 49.77 52.91 50.52 57.18 C 51.46 63.37 50.10 69.66 46.97 75.04 C 48.57 75.23 50.18 75.40 51.79 75.56 C 51.74 75.89 51.64 76.55 51.58 76.88 C 50.89 78.51 50.08 80.09 49.29 81.67 C 47.06 81.31 44.94 80.54 42.82 79.78 C 39.63 81.08 36.58 83.03 33.01 83.16 C 27.90 83.97 22.71 80.75 20.91 75.97 C 18.59 69.99 18.97 62.91 22.10 57.29 M 31.40 56.30 C 27.10 58.83 25.89 64.29 26.34 68.94 C 26.31 72.48 28.17 76.37 31.85 77.28 C 33.40 76.96 36.82 78.22 36.80 75.69 C 35.97 75.56 34.32 75.29 33.49 75.16 C 34.18 73.62 34.67 71.94 35.85 70.67 C 37.89 71.08 39.78 72.21 41.87 72.36 C 44.17 67.57 45.16 61.55 42.34 56.77 C 39.69 53.44 34.60 54.26 31.40 56.30 Z" />
<path fill="#000000" opacity="1.00" d=" M 93.41 67.32 C 101.31 64.33 109.11 60.31 117.66 59.70 C 123.64 60.93 126.05 67.59 124.96 73.05 C 124.35 79.50 119.37 84.69 113.63 87.20 C 109.22 88.95 104.73 90.51 100.28 92.17 C 100.15 97.52 100.31 102.87 100.22 108.22 C 97.86 110.50 94.14 110.92 91.24 112.45 C 91.24 97.72 91.22 83.00 91.25 68.28 C 91.79 68.04 92.87 67.56 93.41 67.32 M 100.26 72.21 C 100.18 76.29 100.33 80.37 100.12 84.44 C 103.49 83.57 106.74 82.15 109.97 80.83 C 113.43 79.46 116.38 75.92 115.78 72.03 C 115.64 69.75 113.23 68.11 111.04 68.69 C 107.29 69.28 103.81 70.94 100.26 72.21 Z" />
<path fill="#000000" opacity="1.00" d=" M 73.81 75.92 C 76.83 74.69 79.67 73.04 82.81 72.13 C 82.53 86.86 83.00 101.61 82.57 116.33 C 79.63 117.45 76.85 118.98 73.83 119.90 C 73.86 105.24 73.78 90.58 73.81 75.92 Z" />
<path fill="#000000" opacity="1.00" d=" M 33.71 89.79 C 45.88 87.74 57.38 82.88 68.69 78.10 C 68.74 80.65 68.73 83.20 68.70 85.75 C 65.77 87.04 62.79 88.22 59.84 89.45 C 58.48 89.98 57.12 90.51 55.75 91.03 C 55.70 103.23 55.77 115.43 55.72 127.63 C 52.75 128.74 49.76 129.80 46.72 130.72 C 46.77 118.55 46.61 106.38 46.75 94.21 C 42.44 95.53 38.10 96.75 33.68 97.62 C 33.68 95.01 33.69 92.40 33.71 89.79 Z" />
</g>
<g id="#ffeb38ff">
<path fill="#ffeb38" opacity="1.00" d=" M 137.65 19.49 C 138.68 18.82 139.19 17.62 139.96 16.70 C 141.10 18.94 141.68 21.39 141.75 23.90 L 140.56 24.23 C 138.00 24.42 135.33 23.98 132.84 24.70 C 130.20 27.45 128.24 30.77 125.59 33.53 C 125.59 29.04 125.60 24.55 125.60 20.06 C 126.31 20.55 127.02 21.04 127.74 21.53 C 130.97 20.52 134.33 20.10 137.65 19.49 Z" />
</g>
<g id="#f3f4f7ff">
<path fill="#f3f4f7" opacity="1.00" d=" M 16.67 25.98 C 16.72 23.54 16.58 20.99 17.69 18.74 C 17.92 20.15 18.28 21.53 18.68 22.90 C 18.79 27.15 18.57 31.39 18.79 35.63 C 18.75 39.65 18.65 43.66 18.82 47.67 C 18.70 63.46 18.79 79.24 18.77 95.03 C 18.82 101.70 18.74 108.37 18.82 115.04 C 19.00 121.85 23.75 127.91 30.08 130.22 C 25.92 138.31 20.90 145.94 16.54 153.93 C 33.17 146.59 49.39 138.29 66.03 130.96 C 65.98 131.44 65.88 132.39 65.84 132.87 C 50.57 140.34 35.12 147.41 19.78 154.73 C 17.56 155.52 15.48 157.17 13.06 157.11 C 13.31 156.07 13.64 155.05 14.06 154.07 C 16.82 151.25 17.94 147.35 20.06 144.10 C 22.36 139.83 25.19 135.81 26.94 131.27 C 23.61 129.12 20.55 126.48 18.72 122.89 C 15.51 116.55 17.84 109.37 16.27 102.77 C 14.94 103.60 13.61 104.44 12.33 105.35 C 11.72 93.58 11.95 81.78 11.65 70.00 C 11.78 68.47 11.27 66.77 11.97 65.35 C 14.91 63.51 16.72 60.45 16.64 56.95 C 16.90 46.63 16.58 36.30 16.67 25.98 Z" />
</g>
<g id="#fee82eff">
<path fill="#fee82e" opacity="1.00" d=" M 117.46 23.61 C 118.03 22.29 118.61 20.97 119.17 19.65 C 119.24 23.34 119.31 27.03 119.18 30.73 C 118.51 32.01 117.99 33.37 117.60 34.76 C 116.80 34.25 115.99 33.73 115.19 33.22 L 114.97 34.12 C 113.74 32.47 112.39 30.39 110.11 30.29 C 103.23 29.85 96.98 34.88 94.36 41.00 C 90.88 42.15 91.77 46.11 91.58 48.95 C 91.30 48.85 90.75 48.65 90.48 48.55 C 90.12 45.87 90.48 42.99 88.84 40.66 C 88.80 40.02 88.73 38.74 88.69 38.10 C 86.60 39.06 84.48 39.96 82.37 40.89 C 81.13 41.89 80.68 43.49 79.92 44.83 C 78.88 44.47 77.84 44.11 76.79 43.77 L 76.17 43.61 C 74.29 44.46 72.39 45.28 70.51 46.12 C 70.07 46.35 69.20 46.81 68.77 47.03 C 68.59 49.81 68.61 52.60 68.59 55.38 C 66.87 55.84 65.15 56.28 63.43 56.69 C 63.43 54.47 63.42 52.24 63.05 50.04 L 61.72 50.08 C 59.50 50.59 57.41 51.51 55.27 52.28 C 54.88 52.44 54.08 52.77 53.69 52.93 C 53.60 55.21 53.64 57.48 53.60 59.76 C 51.67 59.72 52.60 57.10 52.09 55.87 C 51.70 56.20 50.91 56.86 50.52 57.18 C 49.77 52.91 46.45 48.91 41.93 48.57 C 34.50 48.01 26.30 50.83 22.10 57.29 C 18.83 55.03 20.32 50.83 18.82 47.67 C 18.65 43.66 18.75 39.65 18.79 35.63 C 19.56 37.27 20.10 39.00 20.44 40.77 C 22.65 41.05 24.80 40.35 26.94 39.90 C 46.53 36.08 66.34 33.35 85.87 29.21 C 85.62 29.65 85.12 30.52 84.87 30.96 C 84.04 31.36 83.21 31.76 82.37 32.16 C 82.38 34.08 82.40 36.00 82.41 37.91 C 83.25 37.60 84.09 37.28 84.93 36.96 C 86.31 36.61 87.69 36.30 89.07 35.98 C 89.56 33.44 88.33 29.71 91.29 28.38 C 100.01 26.81 108.87 25.83 117.46 23.61 Z" />
</g>
<g id="#ffe624ff">
<path fill="#ffe624" opacity="1.00" d=" M 140.56 24.23 L 141.75 23.90 C 141.54 26.43 141.99 29.02 141.54 31.52 C 138.92 34.10 139.99 38.06 139.74 41.34 C 138.93 41.28 138.21 41.49 137.58 41.95 C 135.92 39.14 134.28 36.30 132.42 33.62 C 134.85 30.25 137.82 27.34 140.56 24.23 Z" />
</g>
<g id="#ffe41bff">
<path fill="#ffe41b" opacity="1.00" d=" M 117.60 34.76 C 117.99 33.37 118.51 32.01 119.18 30.73 C 119.24 33.72 119.29 36.71 119.18 39.70 C 117.41 42.02 117.96 45.04 117.77 47.76 C 117.06 47.35 116.39 46.88 115.68 46.47 C 115.31 46.90 114.57 47.76 114.20 48.19 C 114.75 46.76 115.25 45.30 115.70 43.83 C 113.63 44.09 111.57 44.32 109.50 44.50 C 108.82 47.88 106.45 50.62 103.03 51.41 C 102.42 51.16 101.18 50.67 100.57 50.42 C 97.74 44.92 99.87 35.80 107.13 35.57 C 107.77 36.44 108.41 37.31 109.06 38.17 C 110.91 37.28 112.78 36.44 114.62 35.51 C 114.70 35.16 114.88 34.47 114.97 34.12 L 115.19 33.22 C 115.99 33.73 116.80 34.25 117.60 34.76 Z" />
</g>
<g id="#fde206ff">
<path fill="#fde206" opacity="1.00" d=" M 139.74 41.34 C 139.99 38.06 138.92 34.10 141.54 31.52 C 141.85 35.97 141.46 40.44 141.81 44.90 C 141.18 44.98 139.91 45.13 139.28 45.21 C 138.73 44.11 138.16 43.03 137.58 41.95 C 138.21 41.49 138.93 41.28 139.74 41.34 Z" />
</g>
<g id="#feda08ff">
<path fill="#feda08" opacity="1.00" d=" M 128.25 38.44 C 130.48 41.54 132.18 44.98 134.38 48.10 L 134.58 48.40 C 136.68 48.37 138.71 47.85 140.72 47.29 L 140.80 47.92 C 140.98 51.92 140.82 55.92 140.96 59.91 C 135.04 56.99 128.31 58.11 121.96 57.98 C 120.28 57.77 118.91 58.73 117.66 59.70 C 109.11 60.31 101.31 64.33 93.41 67.32 C 92.76 66.99 91.48 66.33 90.83 66.00 C 78.09 69.61 66.00 75.41 52.85 77.47 C 52.54 77.32 51.90 77.03 51.58 76.88 C 51.64 76.55 51.74 75.89 51.79 75.56 C 50.18 75.40 48.57 75.23 46.97 75.04 C 50.10 69.66 51.46 63.37 50.52 57.18 C 50.91 56.86 51.70 56.20 52.09 55.87 C 52.60 57.10 51.67 59.72 53.60 59.76 C 53.64 57.48 53.60 55.21 53.69 52.93 C 54.08 52.77 54.88 52.44 55.27 52.28 C 55.30 57.91 55.19 63.53 55.32 69.16 C 55.27 71.37 56.46 74.06 58.93 74.31 C 64.05 74.66 68.19 70.71 70.78 66.69 C 70.82 67.44 70.90 68.92 70.94 69.67 C 72.83 68.88 74.72 68.09 76.62 67.33 C 76.95 59.48 76.60 51.62 76.79 43.77 C 77.84 44.11 78.88 44.47 79.92 44.83 C 80.68 43.49 81.13 41.89 82.37 40.89 C 82.47 48.82 82.32 56.76 82.44 64.70 C 84.55 63.76 86.66 62.80 88.75 61.82 C 88.81 54.77 88.67 47.71 88.84 40.66 C 90.48 42.99 90.12 45.87 90.48 48.55 C 90.75 48.65 91.30 48.85 91.58 48.95 C 91.77 46.11 90.88 42.15 94.36 41.00 C 92.96 44.47 92.97 48.33 93.49 51.97 C 94.16 54.98 96.85 57.19 99.96 57.13 C 105.78 56.66 111.35 53.35 114.20 48.19 C 114.57 47.76 115.31 46.90 115.68 46.47 C 116.39 46.88 117.06 47.35 117.77 47.76 C 117.96 45.04 117.41 42.02 119.18 39.70 C 119.28 43.43 119.22 47.15 119.23 50.88 C 121.34 50.34 123.47 49.84 125.60 49.40 C 125.65 45.51 124.72 41.16 128.25 38.44 Z" />
</g>
<g id="#fedc0bff">
<path fill="#fedc0b" opacity="1.00" d=" M 68.77 47.03 C 69.20 46.81 70.07 46.35 70.51 46.12 C 70.31 51.43 70.78 56.77 70.18 62.06 C 69.49 65.22 66.75 67.32 63.89 68.45 C 63.39 68.08 62.39 67.34 61.89 66.98 C 61.42 61.36 61.70 55.71 61.72 50.08 L 63.05 50.04 C 63.42 52.24 63.43 54.47 63.43 56.69 C 65.15 56.28 66.87 55.84 68.59 55.38 C 68.61 52.60 68.59 49.81 68.77 47.03 Z" />
</g>
<g id="#fde200ff">
<path fill="#fde200" opacity="1.00" d=" M 140.80 47.92 C 140.93 46.88 141.37 45.98 142.11 45.21 C 141.53 47.45 141.68 49.75 141.68 52.03 C 141.71 66.64 141.64 81.25 141.72 95.86 C 141.71 102.26 141.75 108.65 141.69 115.05 C 141.83 121.14 137.83 126.84 132.43 129.41 C 128.24 131.47 123.46 130.69 118.97 130.83 C 101.32 130.92 83.66 130.65 66.03 130.96 C 49.39 138.29 33.17 146.59 16.54 153.93 C 20.90 145.94 25.92 138.31 30.08 130.22 C 23.75 127.91 19.00 121.85 18.82 115.04 C 18.74 108.37 18.82 101.70 18.77 95.03 C 22.33 90.91 28.44 92.82 32.58 89.80 C 32.86 89.80 33.43 89.80 33.71 89.79 C 33.69 92.40 33.68 95.01 33.68 97.62 C 38.10 96.75 42.44 95.53 46.75 94.21 C 46.61 106.38 46.77 118.55 46.72 130.72 C 49.76 129.80 52.75 128.74 55.72 127.63 C 55.77 115.43 55.70 103.23 55.75 91.03 C 57.12 90.51 58.48 89.98 59.84 89.45 L 60.45 90.14 C 60.07 90.79 59.69 91.44 59.30 92.08 C 63.51 91.82 67.91 91.50 71.83 89.82 C 72.35 85.22 71.89 80.57 72.49 75.98 C 72.93 90.66 72.45 105.38 73.00 120.06 L 73.83 119.90 C 76.85 118.98 79.63 117.45 82.57 116.33 C 83.00 101.61 82.53 86.86 82.81 72.13 L 83.72 72.26 C 84.08 77.48 83.72 82.73 84.26 87.94 C 86.18 88.20 87.93 87.29 89.70 86.68 C 90.59 80.71 89.71 74.64 90.46 68.66 L 91.25 68.28 C 91.22 83.00 91.24 97.72 91.24 112.45 C 94.14 110.92 97.86 110.50 100.22 108.22 C 100.31 102.87 100.15 97.52 100.28 92.17 C 104.73 90.51 109.22 88.95 113.63 87.20 C 114.25 88.44 115.48 89.54 116.99 89.00 C 124.47 87.21 132.15 86.33 139.65 84.62 C 140.95 83.07 140.78 80.92 140.91 79.04 C 140.95 72.66 141.06 66.29 140.96 59.91 C 140.82 55.92 140.98 51.92 140.80 47.92 Z" />
</g>
<g id="#f7d10cff">
<path fill="#f7d10c" opacity="1.00" d=" M 18.82 47.67 C 20.32 50.83 18.83 55.03 22.10 57.29 C 18.97 62.91 18.59 69.99 20.91 75.97 C 22.71 80.75 27.90 83.97 33.01 83.16 C 36.58 83.03 39.63 81.08 42.82 79.78 C 44.94 80.54 47.06 81.31 49.29 81.67 C 50.08 80.09 50.89 78.51 51.58 76.88 C 51.90 77.03 52.54 77.32 52.85 77.47 C 66.00 75.41 78.09 69.61 90.83 66.00 C 91.48 66.33 92.76 66.99 93.41 67.32 C 92.87 67.56 91.79 68.04 91.25 68.28 L 90.46 68.66 C 89.71 74.64 90.59 80.71 89.70 86.68 C 87.93 87.29 86.18 88.20 84.26 87.94 C 83.72 82.73 84.08 77.48 83.72 72.26 L 82.81 72.13 C 79.67 73.04 76.83 74.69 73.81 75.92 C 73.78 90.58 73.86 105.24 73.83 119.90 L 73.00 120.06 C 72.45 105.38 72.93 90.66 72.49 75.98 C 71.89 80.57 72.35 85.22 71.83 89.82 C 67.91 91.50 63.51 91.82 59.30 92.08 C 59.69 91.44 60.07 90.79 60.45 90.14 L 59.84 89.45 C 62.79 88.22 65.77 87.04 68.70 85.75 C 68.73 83.20 68.74 80.65 68.69 78.10 C 57.38 82.88 45.88 87.74 33.71 89.79 C 33.43 89.80 32.86 89.80 32.58 89.80 C 28.44 92.82 22.33 90.91 18.77 95.03 C 18.79 79.24 18.70 63.46 18.82 47.67 Z" />
</g>
<g id="#fede0dff">
<path fill="#fede0d" opacity="1.00" d=" M 31.40 56.30 C 34.60 54.26 39.69 53.44 42.34 56.77 C 45.16 61.55 44.17 67.57 41.87 72.36 C 39.78 72.21 37.89 71.08 35.85 70.67 C 34.67 71.94 34.18 73.62 33.49 75.16 C 34.32 75.29 35.97 75.56 36.80 75.69 C 36.82 78.22 33.40 76.96 31.85 77.28 C 28.17 76.37 26.31 72.48 26.34 68.94 C 25.89 64.29 27.10 58.83 31.40 56.30 Z" />
</g>
<g id="#f8d509ff">
<path fill="#f8d509" opacity="1.00" d=" M 117.66 59.70 C 118.91 58.73 120.28 57.77 121.96 57.98 C 128.31 58.11 135.04 56.99 140.96 59.91 C 141.06 66.29 140.95 72.66 140.91 79.04 C 140.78 80.92 140.95 83.07 139.65 84.62 C 132.15 86.33 124.47 87.21 116.99 89.00 C 115.48 89.54 114.25 88.44 113.63 87.20 C 119.37 84.69 124.35 79.50 124.96 73.05 C 126.05 67.59 123.64 60.93 117.66 59.70 Z" />
</g>
<g id="#f7d30bff">
<path fill="#f7d30b" opacity="1.00" d=" M 100.26 72.21 C 103.81 70.94 107.29 69.28 111.04 68.69 C 113.23 68.11 115.64 69.75 115.78 72.03 C 116.38 75.92 113.43 79.46 109.97 80.83 C 106.74 82.15 103.49 83.57 100.12 84.44 C 100.33 80.37 100.18 76.29 100.26 72.21 Z" />
</g>
<g id="#ebebebff">
<path fill="#ebebeb" opacity="1.00" d=" M 12.33 105.35 C 13.61 104.44 14.94 103.60 16.27 102.77 C 17.84 109.37 15.51 116.55 18.72 122.89 C 17.47 123.87 16.25 124.88 15.14 126.01 C 11.66 119.75 11.29 112.20 12.33 105.35 Z" />
</g>
<g id="#e1e2e3ff">
<path fill="#e1e2e3" opacity="1.00" d=" M 15.14 126.01 C 16.25 124.88 17.47 123.87 18.72 122.89 C 20.55 126.48 23.61 129.12 26.94 131.27 C 25.19 135.81 22.36 139.83 20.06 144.10 C 17.94 147.35 16.82 151.25 14.06 154.07 C 11.31 155.50 9.78 158.38 7.17 159.98 C 7.78 156.02 10.51 152.82 12.26 149.30 C 15.04 143.85 17.83 138.34 20.68 132.95 C 19.91 130.09 15.82 128.93 15.14 126.01 Z" />
</g>
</svg>
