<?xml version="1.0" encoding="UTF-8" ?>
<!DOCTYPE svg PUBLIC "-//W3C//DTD SVG 1.1//EN" "http://www.w3.org/Graphics/SVG/1.1/DTD/svg11.dtd">
<svg width="194pt" height="194pt" viewBox="0 0 194 194" version="1.1" xmlns="http://www.w3.org/2000/svg">
<g id="#4b4b4dff">
<path fill="#D2691E" opacity="1.00" d=" M 84.48 1.61 C 105.03 -1.07 126.40 3.15 144.36 13.51 C 164.57 25.00 180.38 44.00 187.93 66.00 C 195.46 87.60 194.86 111.91 186.24 133.11 C 177.62 154.66 160.94 172.84 140.23 183.31 C 119.69 193.89 95.26 196.54 72.91 190.76 C 49.50 184.84 28.66 169.67 15.63 149.37 C 4.31 131.95 -1.08 110.79 0.54 90.08 C 2.10 68.33 11.46 47.30 26.40 31.45 C 41.54 15.19 62.42 4.38 84.48 1.61 M 83.53 10.69 C 56.51 14.65 32.07 32.22 19.36 56.34 C 9.80 74.11 6.79 95.26 10.94 115.00 C 14.90 134.42 25.81 152.26 41.10 164.84 C 55.85 177.11 74.73 184.31 93.90 184.85 C 111.01 185.46 128.25 180.81 142.76 171.74 C 159.38 161.42 172.45 145.44 179.10 127.02 C 186.14 107.81 186.06 86.10 178.87 66.95 C 171.34 46.57 155.94 29.29 136.62 19.37 C 120.43 10.96 101.55 7.89 83.53 10.69 Z" />
<path fill="#0000FF" opacity="1.00" d=" M 43.67 52.64 C 47.08 45.70 55.78 42.07 63.11 44.58 C 70.32 46.75 75.25 54.39 74.34 61.86 C 73.43 71.31 65.88 78.06 62.53 86.58 C 60.58 90.45 60.40 94.87 58.83 98.84 C 58.66 98.82 58.31 98.78 58.14 98.75 C 55.95 87.74 49.09 78.62 44.20 68.75 C 41.62 63.82 40.94 57.66 43.67 52.64 Z" />
<path fill="#00FF00" opacity="1.00" d=" M 114.03 64.03 C 122.50 61.16 132.49 64.05 138.10 71.02 C 143.39 77.21 144.40 86.18 141.87 93.76 C 139.07 102.27 133.04 109.14 129.04 117.05 C 124.25 125.99 121.93 136.23 122.61 146.36 C 122.44 145.09 122.28 143.82 122.12 142.56 C 111.87 142.43 101.61 142.67 91.35 142.69 C 91.34 136.30 91.34 129.91 91.35 123.53 C 86.66 123.50 81.98 123.51 77.30 123.52 C 77.27 116.57 77.29 109.63 77.28 102.68 C 71.09 102.66 64.90 102.62 58.71 102.61 C 58.82 102.01 59.02 100.80 59.13 100.20 C 65.96 100.26 72.81 100.34 79.65 100.34 C 79.65 107.27 79.64 114.21 79.65 121.14 C 84.34 121.14 89.02 121.14 93.71 121.15 C 93.70 127.53 93.70 133.92 93.71 140.30 C 102.95 140.25 112.20 140.18 121.45 140.12 C 119.11 127.61 112.73 116.44 106.36 105.60 C 102.81 99.21 98.74 92.54 98.70 84.99 C 98.63 75.66 105.15 66.82 114.03 64.03 Z" />
</g>
</svg>
