<?xml version="1.0" encoding="utf-8"?>
<!-- Generator: Adobe Illustrator 17.0.1, SVG Export Plug-In . SVG Version: 6.00 Build 0)  -->
<!DOCTYPE svg PUBLIC "-//W3C//DTD SVG 1.1//EN" "http://www.w3.org/Graphics/SVG/1.1/DTD/svg11.dtd">
<svg version="1.1" xmlns="http://www.w3.org/2000/svg" xmlns:xlink="http://www.w3.org/1999/xlink" x="0px" y="0px" width="42px"
	 height="42px" viewBox="0 0 42 42" enable-background="new 0 0 42 42" xml:space="preserve">
	<polygon fill-rule="evenodd" clip-rule="evenodd" fill="#cc6600" points="10.076,27.518 10.076,14.575 6.625,14.575 0.154,21.046 
		6.625,27.518 10.076,27.518 	"/>
	<path fill-rule="evenodd" clip-rule="evenodd" fill="#cc6600" d="M41.272,20.123H17.141c-0.317,0-0.574-0.257-0.574-0.574
		l5.171-7.47c0-0.317,0.257-0.574,0.574-0.574h14.363c0.317,0,0.574,0.257,0.574,0.574l4.597,7.47
		C41.846,19.866,41.589,20.123,41.272,20.123L41.272,20.123z M18.865,21.273h20.683c0.317,0,0.574,0.257,0.574,0.574v8.044
		c0,0.317-0.257,0.574-0.574,0.574h-4.021V23.57h-5.745v6.895H18.865c-0.317,0-0.574-0.257-0.574-0.574v-8.044
		C18.291,21.53,18.548,21.273,18.865,21.273L18.865,21.273z"/>
</svg>
