<?xml version="1.0" encoding="utf-8"?>
<!-- Generator: Adobe Illustrator 18.0.0, SVG Export Plug-In . SVG Version: 6.00 Build 0)  -->
<!DOCTYPE svg PUBLIC "-//W3C//DTD SVG 1.1//EN" "http://www.w3.org/Graphics/SVG/1.1/DTD/svg11.dtd">
<svg version="1.1" xmlns="http://www.w3.org/2000/svg" xmlns:xlink="http://www.w3.org/1999/xlink" x="0px" y="0px" width="120px"
	 height="120px" viewBox="0 0 120 120" enable-background="new 0 0 120 120" xml:space="preserve">
<g id="phase0">
	<polygon fill-rule="evenodd" clip-rule="evenodd" fill="#14bd29" points="99.783,41.377 107.583,41.377 107.583,78.624 
		99.783,78.624 99.783,41.377 	"/>
	<path fill-rule="evenodd" clip-rule="evenodd" fill="#14bd29" d="M16.554,91.031V28.969H120v62.063H16.554L16.554,91.031z
		 M111.723,37.239H24.83v45.522h86.893V37.239L111.723,37.239z M0,49.654h12.415v20.692H0V49.654L0,49.654z"/>
</g>
<g id="phase1">
	<polygon fill-rule="evenodd" clip-rule="evenodd" fill="#14bd29" points="91.983,41.377 107.583,41.377 107.583,78.624 
		91.983,78.624 91.983,41.377 	"/>
	<path fill-rule="evenodd" clip-rule="evenodd" fill="#14bd29" d="M16.554,91.031V28.969H120v62.063H16.554L16.554,91.031z
		 M111.723,37.239H24.83v45.522h86.893V37.239L111.723,37.239z M0,49.654h12.415v20.692H0V49.654L0,49.654z"/>
</g>
<g id="phase2">
	<polygon fill-rule="evenodd" clip-rule="evenodd" fill="#14bd29" points="84.183,41.377 107.583,41.377 107.583,78.624 
		84.183,78.624 84.183,41.377 	"/>
	<path fill-rule="evenodd" clip-rule="evenodd" fill="#14bd29" d="M16.554,91.031V28.969H120v62.063H16.554L16.554,91.031z
		 M111.723,37.239H24.83v45.522h86.893V37.239L111.723,37.239z M0,49.654h12.415v20.692H0V49.654L0,49.654z"/>
</g>
<g id="phase3">
	<polygon fill-rule="evenodd" clip-rule="evenodd" fill="#14bd29" points="76.383,41.377 107.583,41.377 107.583,78.624 
		76.383,78.624 76.383,41.377 	"/>
	<path fill-rule="evenodd" clip-rule="evenodd" fill="#14bd29" d="M16.554,91.031V28.969H120v62.063H16.554L16.554,91.031z
		 M111.723,37.239H24.83v45.522h86.893V37.239L111.723,37.239z M0,49.654h12.415v20.692H0V49.654L0,49.654z"/>
</g>
<g id="phase4">
	<polygon fill-rule="evenodd" clip-rule="evenodd" fill="#14bd29" points="68.583,41.377 107.583,41.377 107.583,78.624 
		68.583,78.624 68.583,41.377 	"/>
	<path fill-rule="evenodd" clip-rule="evenodd" fill="#14bd29" d="M16.554,91.031V28.969H120v62.063H16.554L16.554,91.031z
		 M111.723,37.239H24.83v45.522h86.893V37.239L111.723,37.239z M0,49.654h12.415v20.692H0V49.654L0,49.654z"/>
</g>
<g id="phase5">
	<polygon fill-rule="evenodd" clip-rule="evenodd" fill="#14bd29" points="60.783,41.377 107.583,41.377 107.583,78.624 
		60.783,78.624 60.783,41.377 	"/>
	<path fill-rule="evenodd" clip-rule="evenodd" fill="#14bd29" d="M16.554,91.031V28.969H120v62.063H16.554L16.554,91.031z
		 M111.723,37.239H24.83v45.522h86.893V37.239L111.723,37.239z M0,49.654h12.415v20.692H0V49.654L0,49.654z"/>
</g>
<g id="phase6">
	<polygon fill-rule="evenodd" clip-rule="evenodd" fill="#14bd29" points="52.983,41.377 107.583,41.377 107.583,78.624 
		52.983,78.624 52.983,41.377 	"/>
	<path fill-rule="evenodd" clip-rule="evenodd" fill="#14bd29" d="M16.554,91.031V28.969H120v62.063H16.554L16.554,91.031z
		 M111.723,37.239H24.83v45.522h86.893V37.239L111.723,37.239z M0,49.654h12.415v20.692H0V49.654L0,49.654z"/>
</g>
<g id="phase7">
	<polygon fill-rule="evenodd" clip-rule="evenodd" fill="#14bd29" points="45.183,41.377 107.583,41.377 107.583,78.624 
		45.183,78.624 45.183,41.377 	"/>
	<path fill-rule="evenodd" clip-rule="evenodd" fill="#14bd29" d="M16.554,91.031V28.969H120v62.063H16.554L16.554,91.031z
		 M111.723,37.239H24.83v45.522h86.893V37.239L111.723,37.239z M0,49.654h12.415v20.692H0V49.654L0,49.654z"/>
</g>
<g id="phase8">
	<polygon fill-rule="evenodd" clip-rule="evenodd" fill="#14bd29" points="37.383,41.377 107.583,41.377 107.583,78.624 
		37.383,78.624 37.383,41.377 	"/>
	<path fill-rule="evenodd" clip-rule="evenodd" fill="#14bd29" d="M16.554,91.031V28.969H120v62.063H16.554L16.554,91.031z
		 M111.723,37.239H24.83v45.522h86.893V37.239L111.723,37.239z M0,49.654h12.415v20.692H0V49.654L0,49.654z"/>
</g>
<g id="phase9">
	<polygon fill-rule="evenodd" clip-rule="evenodd" fill="#14bd29" points="28.875,41.377 107.583,41.377 107.583,78.624 
		28.875,78.624 28.875,41.377 	"/>
	<path fill-rule="evenodd" clip-rule="evenodd" fill="#14bd29" d="M16.554,91.031V28.969H120v62.063H16.554L16.554,91.031z
		 M111.723,37.239H24.83v45.522h86.893V37.239L111.723,37.239z M0,49.654h12.415v20.692H0V49.654L0,49.654z"/>
</g>
<g id="phase10">
	<rect x="0" y="49.654" fill-rule="evenodd" clip-rule="evenodd" fill="#bd1429" width="12.415" height="20.692"/>
	<path fill-rule="evenodd" clip-rule="evenodd" fill="#bd1429" d="M16.554,28.969v62.063H120V28.969H16.554z M66.208,82.758
		l4.134-20.69l-16.55-4.134l20.691-20.69l-4.141,16.55l16.556,4.141L66.208,82.758z"/>
</g>
</svg>
