<?xml version="1.0" encoding="utf-8"?>
<!-- Generator: Adobe Illustrator 15.0.0, SVG Export Plug-In . SVG Version: 6.00 Build 0)  -->
<!DOCTYPE svg PUBLIC "-//W3C//DTD SVG 1.1//EN" "http://www.w3.org/Graphics/SVG/1.1/DTD/svg11.dtd">
<svg version="1.1" id="Layer_1" xmlns="http://www.w3.org/2000/svg" xmlns:xlink="http://www.w3.org/1999/xlink" x="0px" y="0px"
	 width="612px" height="626.969px" viewBox="0 0 612 626.969" enable-background="new 0 0 612 626.969" xml:space="preserve">
<g id="normal">
	<g>
		<path fill="#A12000" d="M498.015,560.817c-15.147,0-29.297-5.806-39.838-16.347L345.429,431.723h-0.323
			c-0.044-0.063-0.099-0.149-0.143-0.222c-0.167-0.271-0.396-0.642-0.77-1.017l-0.362-0.361l-52.526,8.497
			c-2.618,0.437-5.39,0.657-8.245,0.657c-21.146,0-45.265-11.695-57.35-27.811l-36.72-48.96
			c-13.458-17.944-17.257-50.771-8.296-71.681l13.848-32.067l70.111,94.235c2.432,3.65,7.904,6.23,13.276,6.229
			c1.379,0,2.68-0.172,3.866-0.51l39.022-11.479c5.718-1.633,13.484-7.185,16.613-11.879l22.944-33.65
			c3.462-6.051,3.09-14.104-0.822-18.799l-70.065-94.175l34.212-3.64c2.176-0.281,4.435-0.421,6.734-0.421
			c21.582,0,47.238,12.509,59.681,29.097l36.72,48.96c13.505,18.006,16.612,50.465,6.783,70.876l-8.713,19.012l112.948,112.183
			c10.539,10.538,16.345,24.686,16.345,39.835s-5.806,29.297-16.347,39.838S513.164,560.817,498.015,560.817z"/>
		<path d="M330.436,185.671c21.299,0.001,46.61,12.338,58.881,28.697l36.72,48.96c13.308,17.742,16.368,49.727,6.666,69.877
			l-7.216,15.746l-0.425-0.424l-1.145,2.766c-0.153,0.371-0.41,1.336,0.527,2.271l0.252,0.251l112.448,111.687
			c10.354,10.352,16.055,24.249,16.055,39.131s-5.701,28.779-16.055,39.131c-10.352,10.352-24.248,16.054-39.131,16.054
			c-14.882,0-28.777-5.702-39.131-16.054L346.429,431.309l-0.586-0.586h-0.188c-0.175-0.27-0.414-0.604-0.754-0.942l-0.725-0.726
			l-1.011,0.163l-52.03,8.417c-2.559,0.427-5.276,0.643-8.076,0.643c-10.028,0-21.274-2.781-31.668-7.834
			c-10.352-5.031-19.188-11.982-24.882-19.575l-36.72-48.96c-6.453-8.604-10.866-20.756-12.427-34.221
			c-1.562-13.475-0.053-26.426,4.248-36.461l13.162-30.48l69.048,92.806c2.691,3.993,8.352,6.674,14.108,6.674
			c1.472,0,2.865-0.186,4.155-0.554l39-11.472c5.914-1.688,13.942-7.432,17.168-12.271l22.95-33.659l0.045-0.066l0.039-0.069
			c3.604-6.308,3.204-14.817-0.927-19.821l-69.022-92.771l32.514-3.46C325.963,185.809,328.179,185.671,330.436,185.671
			L330.436,185.671 M330.436,183.671c-2.322,0-4.606,0.139-6.841,0.427l-35.955,3.825l71.145,95.625
			c3.825,4.59,3.825,12.239,0.765,17.595l-22.95,33.66c-3.06,4.59-10.71,9.945-16.063,11.475l-39.016,11.476
			c-1.118,0.319-2.336,0.472-3.591,0.472c-4.758,0-10.053-2.193-12.474-5.827l-71.145-95.624l-14.535,33.659
			c-9.18,21.421-5.355,54.315,8.415,72.675l36.72,48.96c12.139,16.187,36.765,28.21,58.15,28.21c2.874,0,5.686-0.217,8.405-0.67
			l52.021-8.414c0.765,0.766,0.765,1.529,1.528,1.529L457.47,545.178c11.093,11.093,25.819,16.639,40.545,16.639
			c14.728,0,29.452-5.546,40.545-16.639c22.187-22.185,22.187-58.905,0-81.09l-112.453-111.69c0,0-0.001-0.001-0.005-0.004l0,0
			c-0.001-0.001-0.001-0.001-0.002-0.002c0,0,0,0,0-0.001c-0.001,0-0.001,0-0.001,0c-0.25-0.25-0.333-0.333-0.333-0.333
			s0.285,0.285,0.333,0.333c0,0,0,0,0.001,0c0,0.001,0,0.001,0,0.001c0.001,0.001,0.001,0.001,0.002,0.002l0,0
			c0.002,0.002,0.004,0.003,0.005,0.004l8.413-18.358c9.945-20.655,6.887-53.551-6.885-71.91l-36.72-48.96
			C378.441,196.537,352.783,183.672,330.436,183.671L330.436,183.671z"/>
	</g>
	<g>
		<path fill="#BF9E00" d="M197.823,592.66l10.68-41.193l-0.81-0.33c-21.447-8.738-40.136-19.452-57.136-32.756l-0.697-0.546
			l-29.754,29.754l-47.547-47.546l29.741-29.741l-0.521-0.693C88.52,451.929,77.8,433.23,69.005,412.443l-0.335-0.791L26.722,422.33
			L9.639,357.704l41.203-10.685l-0.126-0.885c-3.05-21.352-3.05-43.393,0.001-65.511l0.122-0.882l-41.2-10.68l17.083-64.623
			l41.194,10.68l0.33-0.81c8.738-21.447,19.452-40.136,32.756-57.136l0.545-0.697l-29.753-29.754l47.546-47.546l29.741,29.741
			l0.694-0.521c17.679-13.259,36.377-23.979,57.165-32.774l0.809-0.342L196.31,34.1l64.605-17.079l10.682,41.203l0.885-0.126
			c10.613-1.516,21.537-2.285,32.467-2.285c10.932,0,22.05,0.769,33.045,2.286l0.882,0.122l10.681-41.199l64.621,17.083
			l-10.68,41.194l0.811,0.33c21.447,8.737,40.138,19.452,57.137,32.756l0.696,0.545l29.755-29.754l47.547,47.546l-29.742,29.741
			l0.521,0.694c13.259,17.678,23.979,36.377,32.774,57.165l0.336,0.795l41.182-10.677l17.09,64.638l-41.205,11.445l0.124,0.87
			c2.986,20.906,3.05,42.476,0.187,64.128l-1.31-0.654l-0.364,1.094c-2.405,7.213-6.246,12.861-11.108,16.333
			c-5.655,3.959-11.972,6.055-18.258,6.055c-2.324,0-4.655-0.288-6.929-0.854c-14.136-3.722-23.685-17.732-22.197-32.592
			c6.437-59.523-14.023-117.817-56.133-159.927c-36.814-37.187-85.97-57.668-138.407-57.668
			c-52.437,0-101.593,20.481-138.411,57.671c-37.183,36.811-57.665,85.967-57.665,138.404s20.481,101.593,57.671,138.411
			c36.966,37.625,87.835,58.351,143.227,58.351c5.78,0,11.646-0.231,17.439-0.688c1.14-0.108,2.271-0.163,3.38-0.163
			c14.361,0,25.837,8.775,29.231,22.357c2.151,7.892,0.155,17.537-5.204,25.194c-4.619,5.381-9.826,8.932-16.327,11.1l-0.684,0.229
			v0.617c-10.344,1.437-20.973,2.164-31.608,2.164c-10.931,0-22.049-0.771-33.045-2.285l-0.881-0.122l-10.681,41.198L197.823,592.66
			z"/>
		<path d="M260.198,18.245l10.206,39.365l0.449,1.731l1.77-0.253c10.567-1.51,21.442-2.275,32.326-2.275
			c10.886,0,21.958,0.766,32.908,2.276l1.763,0.243l0.447-1.722l10.204-39.365l62.688,16.572L402.75,74.2l-0.439,1.694l1.62,0.66
			c21.36,8.703,39.973,19.372,56.897,32.618l1.395,1.091l1.252-1.252l28.421-28.42l46.134,46.131l-28.422,28.421l-1.228,1.227
			l1.041,1.388c13.209,17.612,23.891,36.242,32.653,56.954l0.673,1.59l1.671-0.433l39.383-10.21l16.582,62.721l-39.407,10.946
			l-1.692,0.471l0.249,1.74c2.91,20.367,3.03,41.365,0.364,62.462l-1.082-0.542l-0.729,2.188
			c-2.338,7.013-6.052,12.487-10.726,15.824c-5.494,3.847-11.611,5.88-17.691,5.88c-2.243,0-4.492-0.276-6.662-0.819
			c-13.677-3.6-22.906-17.152-21.471-31.512c6.469-59.834-14.095-118.425-56.412-160.742
			c-37.007-37.381-86.415-57.968-139.121-57.968c-52.707,0-102.114,20.587-139.107,57.954
			c-37.381,37.007-57.968,86.416-57.968,139.122s20.587,102.114,57.948,139.102c37.165,37.827,88.287,58.66,143.95,58.66
			c5.805,0,11.699-0.232,17.551-0.694c1.093-0.104,2.192-0.157,3.27-0.157c13.889,0.001,24.98,8.479,28.271,21.643
			c2.063,7.563,0.145,16.851-5.008,24.257c-4.539,5.272-9.587,8.706-15.88,10.805l-1.367,0.456v0.466
			c-10.025,1.352-20.313,2.036-30.608,2.036c-10.886,0-21.958-0.767-32.908-2.276l-1.763-0.243l-0.447,1.724l-10.206,39.363
			l-62.688-16.571l10.21-39.384l0.439-1.694l-1.621-0.66c-21.36-8.702-39.971-19.371-56.897-32.617l-1.395-1.091l-1.252,1.252
			l-28.421,28.421l-46.131-46.136l28.42-28.421l1.227-1.228l-1.041-1.388c-13.209-17.612-23.891-36.243-32.653-56.954l-0.669-1.583
			l-1.666,0.424l-40.155,10.223L10.862,358.42l39.365-10.207l1.731-0.448l-0.253-1.771c-3.037-21.261-3.037-43.207,0.001-65.233
			l0.243-1.763l-1.722-0.447l-39.365-10.206l16.572-62.688l39.383,10.21l1.694,0.439l0.66-1.621
			c8.703-21.36,19.372-39.971,32.618-56.896l1.091-1.396l-1.252-1.252l-28.42-28.421l46.131-46.131l28.421,28.42l1.227,1.227
			l1.388-1.041c17.613-13.209,36.243-23.891,56.954-32.653l1.618-0.685l-0.47-1.692l-10.933-39.359L260.198,18.245 M348.84,15.798
			l-10.71,41.31c-11.093-1.53-22.185-2.295-33.182-2.295s-21.898,0.765-32.608,2.295l-10.71-41.31l-66.555,17.595l11.475,41.31
			c-19.89,8.415-39.015,19.125-57.375,32.895L119.34,77.763l-48.96,48.96l29.835,29.835c-13.77,17.595-24.48,36.72-32.895,57.375
			l-41.31-10.71L8.415,269.777l41.31,10.711c-3.06,22.185-3.06,44.369,0,65.789l-41.31,10.712l17.595,66.554l42.075-10.71
			c8.415,19.89,19.125,39.015,32.895,57.375l-29.835,29.835l48.96,48.96l29.835-29.835c17.595,13.77,36.72,24.479,57.375,32.895
			l-10.71,41.312l66.555,17.595l10.71-41.31c11.093,1.528,22.185,2.295,33.182,2.295c10.997,0,21.898-0.767,32.608-2.295v-0.767
			c6.885-2.295,12.24-6.12,16.83-11.475c5.354-7.65,7.648-17.595,5.354-26.01c-3.548-14.189-15.648-23.114-30.202-23.116
			c-1.14,0-2.291,0.055-3.458,0.166c-5.783,0.457-11.577,0.687-17.36,0.687c-52.342,0-103.945-18.795-142.523-58.062
			c-76.5-75.735-76.5-199.665,0-275.4c37.868-38.25,87.784-57.375,137.7-57.375s99.832,19.125,137.7,57.375
			c43.604,43.605,61.965,102.511,55.845,159.12c-1.53,15.3,8.415,29.835,22.95,33.66c2.398,0.6,4.799,0.886,7.171,0.886
			c6.704,0,13.188-2.285,18.839-6.241c5.355-3.823,9.18-9.943,11.477-16.83l1.528,0.767c3.062-22.187,3.062-44.37,0-65.79
			l41.312-11.475l-17.597-66.556l-41.31,10.71c-8.415-19.89-19.125-39.015-32.896-57.375l29.837-29.835l-48.962-48.96
			l-29.835,29.835c-17.595-13.77-36.72-24.48-57.375-32.895l10.71-41.31L348.84,15.798L348.84,15.798z"/>
	</g>
</g>
<g id="active">
	<g>
		<path fill="#A12000" d="M498.015,560.817c-15.147,0-29.297-5.806-39.838-16.347L345.429,431.723h-0.323
			c-0.044-0.063-0.099-0.149-0.143-0.222c-0.167-0.271-0.396-0.642-0.77-1.017l-0.362-0.361l-52.526,8.497
			c-2.618,0.437-5.39,0.657-8.245,0.657c-21.146,0-45.265-11.695-57.35-27.811l-36.72-48.96
			c-13.458-17.944-17.257-50.771-8.296-71.681l13.848-32.067l70.111,94.235c2.432,3.65,7.904,6.23,13.276,6.229
			c1.379,0,2.68-0.172,3.866-0.51l39.022-11.479c5.718-1.633,13.484-7.185,16.613-11.879l22.944-33.65
			c3.462-6.051,3.09-14.104-0.822-18.799l-70.065-94.175l34.212-3.64c2.176-0.281,4.435-0.421,6.734-0.421
			c21.582,0,47.238,12.509,59.681,29.097l36.72,48.96c13.505,18.006,16.612,50.465,6.783,70.876l-8.713,19.012l112.948,112.183
			c10.539,10.538,16.345,24.686,16.345,39.835s-5.806,29.297-16.347,39.838S513.164,560.817,498.015,560.817z"/>
		<path d="M330.436,185.671c21.299,0.001,46.61,12.338,58.881,28.697l36.72,48.96c13.308,17.742,16.368,49.727,6.666,69.877
			l-7.216,15.746l-0.425-0.424l-1.145,2.766c-0.153,0.371-0.41,1.336,0.527,2.271l0.252,0.251l112.448,111.687
			c10.354,10.352,16.055,24.249,16.055,39.131s-5.701,28.779-16.055,39.131c-10.352,10.352-24.248,16.054-39.131,16.054
			c-14.882,0-28.777-5.702-39.131-16.054L346.429,431.309l-0.586-0.586h-0.188c-0.175-0.27-0.414-0.604-0.754-0.942l-0.725-0.726
			l-1.011,0.163l-52.03,8.417c-2.559,0.427-5.276,0.643-8.076,0.643c-10.028,0-21.274-2.781-31.668-7.834
			c-10.352-5.031-19.188-11.982-24.882-19.575l-36.72-48.96c-6.453-8.604-10.866-20.756-12.427-34.221
			c-1.562-13.475-0.053-26.426,4.248-36.461l13.162-30.48l69.048,92.806c2.691,3.993,8.352,6.674,14.108,6.674
			c1.472,0,2.865-0.186,4.155-0.554l39-11.472c5.914-1.688,13.942-7.432,17.168-12.271l22.95-33.659l0.045-0.066l0.039-0.069
			c3.604-6.308,3.204-14.817-0.927-19.821l-69.022-92.771l32.514-3.46C325.963,185.809,328.179,185.671,330.436,185.671
			L330.436,185.671 M330.436,183.671c-2.322,0-4.606,0.139-6.841,0.427l-35.955,3.825l71.145,95.625
			c3.825,4.59,3.825,12.239,0.765,17.595l-22.95,33.66c-3.06,4.59-10.71,9.945-16.063,11.475l-39.016,11.476
			c-1.118,0.319-2.336,0.472-3.591,0.472c-4.758,0-10.053-2.193-12.474-5.827l-71.145-95.624l-14.535,33.659
			c-9.18,21.421-5.355,54.315,8.415,72.675l36.72,48.96c12.139,16.187,36.765,28.21,58.15,28.21c2.874,0,5.686-0.217,8.405-0.67
			l52.021-8.414c0.765,0.766,0.765,1.529,1.528,1.529L457.47,545.178c11.093,11.093,25.819,16.639,40.545,16.639
			c14.728,0,29.452-5.546,40.545-16.639c22.187-22.185,22.187-58.905,0-81.09l-112.453-111.69c0,0-0.001-0.001-0.005-0.004l0,0
			c-0.001-0.001-0.001-0.001-0.002-0.002c0,0,0,0,0-0.001c-0.001,0-0.001,0-0.001,0c-0.25-0.25-0.333-0.333-0.333-0.333
			s0.285,0.285,0.333,0.333c0,0,0,0,0.001,0c0,0.001,0,0.001,0,0.001c0.001,0.001,0.001,0.001,0.002,0.002l0,0
			c0.002,0.002,0.004,0.003,0.005,0.004l8.413-18.358c9.945-20.655,6.887-53.551-6.885-71.91l-36.72-48.96
			C378.441,196.537,352.783,183.672,330.436,183.671L330.436,183.671z"/>
	</g>
	<g>
		<path fill="#BF9E00" d="M197.823,592.66l10.68-41.193l-0.81-0.33c-21.447-8.738-40.136-19.452-57.136-32.756l-0.697-0.546
			l-29.754,29.754l-47.547-47.546l29.741-29.741l-0.521-0.693C88.52,451.929,77.8,433.23,69.005,412.443l-0.335-0.791L26.722,422.33
			L9.639,357.704l41.203-10.685l-0.126-0.885c-3.05-21.352-3.05-43.393,0.001-65.511l0.122-0.882l-41.2-10.68l17.083-64.623
			l41.194,10.68l0.33-0.81c8.738-21.447,19.452-40.136,32.756-57.136l0.545-0.697l-29.753-29.754l47.546-47.546l29.741,29.741
			l0.694-0.521c17.679-13.259,36.377-23.979,57.165-32.774l0.809-0.342L196.31,34.1l64.605-17.079l10.682,41.203l0.885-0.126
			c10.613-1.516,21.537-2.285,32.467-2.285c10.932,0,22.05,0.769,33.045,2.286l0.882,0.122l10.681-41.199l64.621,17.083
			l-10.68,41.194l0.811,0.33c21.447,8.737,40.138,19.452,57.137,32.756l0.696,0.545l29.755-29.754l47.547,47.546l-29.742,29.741
			l0.521,0.694c13.259,17.678,23.979,36.377,32.774,57.165l0.336,0.795l41.182-10.677l17.09,64.638l-41.205,11.445l0.124,0.87
			c2.986,20.906,3.05,42.476,0.187,64.128l-1.31-0.654l-0.364,1.094c-2.405,7.213-6.246,12.861-11.108,16.333
			c-5.655,3.959-11.972,6.055-18.258,6.055c-2.324,0-4.655-0.288-6.929-0.854c-14.136-3.722-23.685-17.732-22.197-32.592
			c6.437-59.523-14.023-117.817-56.133-159.927c-36.814-37.187-85.97-57.668-138.407-57.668
			c-52.437,0-101.593,20.481-138.411,57.671c-37.183,36.811-57.665,85.967-57.665,138.404s20.481,101.593,57.671,138.411
			c36.966,37.625,87.835,58.351,143.227,58.351c5.78,0,11.646-0.231,17.439-0.688c1.14-0.108,2.271-0.163,3.38-0.163
			c14.361,0,25.837,8.775,29.231,22.357c2.151,7.892,0.155,17.537-5.204,25.194c-4.619,5.381-9.826,8.932-16.327,11.1l-0.684,0.229
			v0.617c-10.344,1.437-20.973,2.164-31.608,2.164c-10.931,0-22.049-0.771-33.045-2.285l-0.881-0.122l-10.681,41.198L197.823,592.66
			z"/>
		<path d="M260.198,18.245l10.206,39.365l0.449,1.731l1.77-0.253c10.567-1.51,21.442-2.275,32.326-2.275
			c10.886,0,21.958,0.766,32.908,2.276l1.763,0.243l0.447-1.722l10.204-39.365l62.688,16.572L402.75,74.2l-0.439,1.694l1.62,0.66
			c21.36,8.703,39.973,19.372,56.897,32.618l1.395,1.091l1.252-1.252l28.421-28.42l46.134,46.131l-28.422,28.421l-1.228,1.227
			l1.041,1.388c13.209,17.612,23.891,36.242,32.653,56.954l0.673,1.59l1.671-0.433l39.383-10.21l16.582,62.721l-39.407,10.946
			l-1.692,0.471l0.249,1.74c2.91,20.367,3.03,41.365,0.364,62.462l-1.082-0.542l-0.729,2.188
			c-2.338,7.013-6.052,12.487-10.726,15.824c-5.494,3.847-11.611,5.88-17.691,5.88c-2.243,0-4.492-0.276-6.662-0.819
			c-13.677-3.6-22.906-17.152-21.471-31.512c6.469-59.834-14.095-118.425-56.412-160.742
			c-37.007-37.381-86.415-57.968-139.121-57.968c-52.707,0-102.114,20.587-139.107,57.954
			c-37.381,37.007-57.968,86.416-57.968,139.122s20.587,102.114,57.948,139.102c37.165,37.827,88.287,58.66,143.95,58.66
			c5.805,0,11.699-0.232,17.551-0.694c1.093-0.104,2.192-0.157,3.27-0.157c13.889,0.001,24.98,8.479,28.271,21.643
			c2.063,7.563,0.145,16.851-5.008,24.257c-4.539,5.272-9.587,8.706-15.88,10.805l-1.367,0.456v0.466
			c-10.025,1.352-20.313,2.036-30.608,2.036c-10.886,0-21.958-0.767-32.908-2.276l-1.763-0.243l-0.447,1.724l-10.206,39.363
			l-62.688-16.571l10.21-39.384l0.439-1.694l-1.621-0.66c-21.36-8.702-39.971-19.371-56.897-32.617l-1.395-1.091l-1.252,1.252
			l-28.421,28.421l-46.131-46.136l28.42-28.421l1.227-1.228l-1.041-1.388c-13.209-17.612-23.891-36.243-32.653-56.954l-0.669-1.583
			l-1.666,0.424l-40.155,10.223L10.862,358.42l39.365-10.207l1.731-0.448l-0.253-1.771c-3.037-21.261-3.037-43.207,0.001-65.233
			l0.243-1.763l-1.722-0.447l-39.365-10.206l16.572-62.688l39.383,10.21l1.694,0.439l0.66-1.621
			c8.703-21.36,19.372-39.971,32.618-56.896l1.091-1.396l-1.252-1.252l-28.42-28.421l46.131-46.131l28.421,28.42l1.227,1.227
			l1.388-1.041c17.613-13.209,36.243-23.891,56.954-32.653l1.618-0.685l-0.47-1.692l-10.933-39.359L260.198,18.245 M348.84,15.798
			l-10.71,41.31c-11.093-1.53-22.185-2.295-33.182-2.295s-21.898,0.765-32.608,2.295l-10.71-41.31l-66.555,17.595l11.475,41.31
			c-19.89,8.415-39.015,19.125-57.375,32.895L119.34,77.763l-48.96,48.96l29.835,29.835c-13.77,17.595-24.48,36.72-32.895,57.375
			l-41.31-10.71L8.415,269.777l41.31,10.711c-3.06,22.185-3.06,44.369,0,65.789l-41.31,10.712l17.595,66.554l42.075-10.71
			c8.415,19.89,19.125,39.015,32.895,57.375l-29.835,29.835l48.96,48.96l29.835-29.835c17.595,13.77,36.72,24.479,57.375,32.895
			l-10.71,41.312l66.555,17.595l10.71-41.31c11.093,1.528,22.185,2.295,33.182,2.295c10.997,0,21.898-0.767,32.608-2.295v-0.767
			c6.885-2.295,12.24-6.12,16.83-11.475c5.354-7.65,7.648-17.595,5.354-26.01c-3.548-14.189-15.648-23.114-30.202-23.116
			c-1.14,0-2.291,0.055-3.458,0.166c-5.783,0.457-11.577,0.687-17.36,0.687c-52.342,0-103.945-18.795-142.523-58.062
			c-76.5-75.735-76.5-199.665,0-275.4c37.868-38.25,87.784-57.375,137.7-57.375s99.832,19.125,137.7,57.375
			c43.604,43.605,61.965,102.511,55.845,159.12c-1.53,15.3,8.415,29.835,22.95,33.66c2.398,0.6,4.799,0.886,7.171,0.886
			c6.704,0,13.188-2.285,18.839-6.241c5.355-3.823,9.18-9.943,11.477-16.83l1.528,0.767c3.062-22.187,3.062-44.37,0-65.79
			l41.312-11.475l-17.597-66.556l-41.31,10.71c-8.415-19.89-19.125-39.015-32.896-57.375l29.837-29.835l-48.962-48.96
			l-29.835,29.835c-17.595-13.77-36.72-24.48-57.375-32.895l10.71-41.31L348.84,15.798L348.84,15.798z"/>
	</g>
</g>
<g id="disable_1_" opacity="0.9">
	<g>
		<path fill="#A12000" d="M498.015,560.817c-15.147,0-29.297-5.806-39.838-16.347L345.429,431.723h-0.323
			c-0.044-0.063-0.099-0.149-0.143-0.222c-0.167-0.271-0.396-0.642-0.77-1.017l-0.362-0.361l-52.526,8.497
			c-2.618,0.437-5.39,0.657-8.245,0.657c-21.146,0-45.265-11.695-57.35-27.811l-36.72-48.96
			c-13.458-17.944-17.257-50.771-8.296-71.681l13.848-32.067l70.111,94.235c2.432,3.65,7.904,6.23,13.276,6.229
			c1.379,0,2.68-0.172,3.866-0.51l39.022-11.479c5.718-1.633,13.484-7.185,16.613-11.879l22.944-33.65
			c3.462-6.051,3.09-14.104-0.822-18.799l-70.065-94.175l34.212-3.64c2.176-0.281,4.435-0.421,6.734-0.421
			c21.582,0,47.238,12.509,59.681,29.097l36.72,48.96c13.505,18.006,16.612,50.465,6.783,70.876l-8.713,19.012l112.948,112.183
			c10.539,10.538,16.345,24.686,16.345,39.835s-5.806,29.297-16.347,39.838S513.164,560.817,498.015,560.817z"/>
		<path d="M330.436,185.671c21.299,0.001,46.61,12.338,58.881,28.697l36.72,48.96c13.308,17.742,16.368,49.727,6.666,69.877
			l-7.216,15.746l-0.425-0.424l-1.145,2.766c-0.153,0.371-0.41,1.336,0.527,2.271l0.252,0.251l112.448,111.687
			c10.354,10.352,16.055,24.249,16.055,39.131s-5.701,28.779-16.055,39.131c-10.352,10.352-24.248,16.054-39.131,16.054
			c-14.882,0-28.777-5.702-39.131-16.054L346.429,431.309l-0.586-0.586h-0.188c-0.175-0.27-0.414-0.604-0.754-0.942l-0.725-0.726
			l-1.011,0.163l-52.03,8.417c-2.559,0.427-5.276,0.643-8.076,0.643c-10.028,0-21.274-2.781-31.668-7.834
			c-10.352-5.031-19.188-11.982-24.882-19.575l-36.72-48.96c-6.453-8.604-10.866-20.756-12.427-34.221
			c-1.562-13.475-0.053-26.426,4.248-36.461l13.162-30.48l69.048,92.806c2.691,3.993,8.352,6.674,14.108,6.674
			c1.472,0,2.865-0.186,4.155-0.554l39-11.472c5.914-1.688,13.942-7.432,17.168-12.271l22.95-33.659l0.045-0.066l0.039-0.069
			c3.604-6.308,3.204-14.817-0.927-19.821l-69.022-92.771l32.514-3.46C325.963,185.809,328.179,185.671,330.436,185.671
			L330.436,185.671 M330.436,183.671c-2.322,0-4.606,0.139-6.841,0.427l-35.955,3.825l71.145,95.625
			c3.825,4.59,3.825,12.239,0.765,17.595l-22.95,33.66c-3.06,4.59-10.71,9.945-16.063,11.475l-39.016,11.476
			c-1.118,0.319-2.336,0.472-3.591,0.472c-4.758,0-10.053-2.193-12.474-5.827l-71.145-95.624l-14.535,33.659
			c-9.18,21.421-5.355,54.315,8.415,72.675l36.72,48.96c12.139,16.187,36.765,28.21,58.15,28.21c2.874,0,5.686-0.217,8.405-0.67
			l52.021-8.414c0.765,0.766,0.765,1.529,1.528,1.529L457.47,545.178c11.093,11.093,25.819,16.639,40.545,16.639
			c14.728,0,29.452-5.546,40.545-16.639c22.187-22.185,22.187-58.905,0-81.09l-112.453-111.69c0,0-0.001-0.001-0.005-0.004l0,0
			c-0.001-0.001-0.001-0.001-0.002-0.002c0,0,0,0,0-0.001c-0.001,0-0.001,0-0.001,0c-0.25-0.25-0.333-0.333-0.333-0.333
			s0.285,0.285,0.333,0.333c0,0,0,0,0.001,0c0,0.001,0,0.001,0,0.001c0.001,0.001,0.001,0.001,0.002,0.002l0,0
			c0.002,0.002,0.004,0.003,0.005,0.004l8.413-18.358c9.945-20.655,6.887-53.551-6.885-71.91l-36.72-48.96
			C378.441,196.537,352.783,183.672,330.436,183.671L330.436,183.671z"/>
	</g>
	<g>
		<path fill="#BF9E00" d="M197.823,592.66l10.68-41.193l-0.81-0.33c-21.447-8.738-40.136-19.452-57.136-32.756l-0.697-0.546
			l-29.754,29.754l-47.547-47.546l29.741-29.741l-0.521-0.693C88.52,451.929,77.8,433.23,69.005,412.443l-0.335-0.791L26.722,422.33
			L9.639,357.704l41.203-10.685l-0.126-0.885c-3.05-21.352-3.05-43.393,0.001-65.511l0.122-0.882l-41.2-10.68l17.083-64.623
			l41.194,10.68l0.33-0.81c8.738-21.447,19.452-40.136,32.756-57.136l0.545-0.697l-29.753-29.754l47.546-47.546l29.741,29.741
			l0.694-0.521c17.679-13.259,36.377-23.979,57.165-32.774l0.809-0.342L196.31,34.1l64.605-17.079l10.682,41.203l0.885-0.126
			c10.613-1.516,21.537-2.285,32.467-2.285c10.932,0,22.05,0.769,33.045,2.286l0.882,0.122l10.681-41.199l64.621,17.083
			l-10.68,41.194l0.811,0.33c21.447,8.737,40.138,19.452,57.137,32.756l0.696,0.545l29.755-29.754l47.547,47.546l-29.742,29.741
			l0.521,0.694c13.259,17.678,23.979,36.377,32.774,57.165l0.336,0.795l41.182-10.677l17.09,64.638l-41.205,11.445l0.124,0.87
			c2.986,20.906,3.05,42.476,0.187,64.128l-1.31-0.654l-0.364,1.094c-2.405,7.213-6.246,12.861-11.108,16.333
			c-5.655,3.959-11.972,6.055-18.258,6.055c-2.324,0-4.655-0.288-6.929-0.854c-14.136-3.722-23.685-17.732-22.197-32.592
			c6.437-59.523-14.023-117.817-56.133-159.927c-36.814-37.187-85.97-57.668-138.407-57.668
			c-52.437,0-101.593,20.481-138.411,57.671c-37.183,36.811-57.665,85.967-57.665,138.404s20.481,101.593,57.671,138.411
			c36.966,37.625,87.835,58.351,143.227,58.351c5.78,0,11.646-0.231,17.439-0.688c1.14-0.108,2.271-0.163,3.38-0.163
			c14.361,0,25.837,8.775,29.231,22.357c2.151,7.892,0.155,17.537-5.204,25.194c-4.619,5.381-9.826,8.932-16.327,11.1l-0.684,0.229
			v0.617c-10.344,1.437-20.973,2.164-31.608,2.164c-10.931,0-22.049-0.771-33.045-2.285l-0.881-0.122l-10.681,41.198L197.823,592.66
			z"/>
		<path d="M260.198,18.245l10.206,39.365l0.449,1.731l1.77-0.253c10.567-1.51,21.442-2.275,32.326-2.275
			c10.886,0,21.958,0.766,32.908,2.276l1.763,0.243l0.447-1.722l10.204-39.365l62.688,16.572L402.75,74.2l-0.439,1.694l1.62,0.66
			c21.36,8.703,39.973,19.372,56.897,32.618l1.395,1.091l1.252-1.252l28.421-28.42l46.134,46.131l-28.422,28.421l-1.228,1.227
			l1.041,1.388c13.209,17.612,23.891,36.242,32.653,56.954l0.673,1.59l1.671-0.433l39.383-10.21l16.582,62.721l-39.407,10.946
			l-1.692,0.471l0.249,1.74c2.91,20.367,3.03,41.365,0.364,62.462l-1.082-0.542l-0.729,2.188
			c-2.338,7.013-6.052,12.487-10.726,15.824c-5.494,3.847-11.611,5.88-17.691,5.88c-2.243,0-4.492-0.276-6.662-0.819
			c-13.677-3.6-22.906-17.152-21.471-31.512c6.469-59.834-14.095-118.425-56.412-160.742
			c-37.007-37.381-86.415-57.968-139.121-57.968c-52.707,0-102.114,20.587-139.107,57.954
			c-37.381,37.007-57.968,86.416-57.968,139.122s20.587,102.114,57.948,139.102c37.165,37.827,88.287,58.66,143.95,58.66
			c5.805,0,11.699-0.232,17.551-0.694c1.093-0.104,2.192-0.157,3.27-0.157c13.889,0.001,24.98,8.479,28.271,21.643
			c2.063,7.563,0.145,16.851-5.008,24.257c-4.539,5.272-9.587,8.706-15.88,10.805l-1.367,0.456v0.466
			c-10.025,1.352-20.313,2.036-30.608,2.036c-10.886,0-21.958-0.767-32.908-2.276l-1.763-0.243l-0.447,1.724l-10.206,39.363
			l-62.688-16.571l10.21-39.384l0.439-1.694l-1.621-0.66c-21.36-8.702-39.971-19.371-56.897-32.617l-1.395-1.091l-1.252,1.252
			l-28.421,28.421l-46.131-46.136l28.42-28.421l1.227-1.228l-1.041-1.388c-13.209-17.612-23.891-36.243-32.653-56.954l-0.669-1.583
			l-1.666,0.424l-40.155,10.223L10.862,358.42l39.365-10.207l1.731-0.448l-0.253-1.771c-3.037-21.261-3.037-43.207,0.001-65.233
			l0.243-1.763l-1.722-0.447l-39.365-10.206l16.572-62.688l39.383,10.21l1.694,0.439l0.66-1.621
			c8.703-21.36,19.372-39.971,32.618-56.896l1.091-1.396l-1.252-1.252l-28.42-28.421l46.131-46.131l28.421,28.42l1.227,1.227
			l1.388-1.041c17.613-13.209,36.243-23.891,56.954-32.653l1.618-0.685l-0.47-1.692l-10.933-39.359L260.198,18.245 M348.84,15.798
			l-10.71,41.31c-11.093-1.53-22.185-2.295-33.182-2.295s-21.898,0.765-32.608,2.295l-10.71-41.31l-66.555,17.595l11.475,41.31
			c-19.89,8.415-39.015,19.125-57.375,32.895L119.34,77.763l-48.96,48.96l29.835,29.835c-13.77,17.595-24.48,36.72-32.895,57.375
			l-41.31-10.71L8.415,269.777l41.31,10.711c-3.06,22.185-3.06,44.369,0,65.789l-41.31,10.712l17.595,66.554l42.075-10.71
			c8.415,19.89,19.125,39.015,32.895,57.375l-29.835,29.835l48.96,48.96l29.835-29.835c17.595,13.77,36.72,24.479,57.375,32.895
			l-10.71,41.312l66.555,17.595l10.71-41.31c11.093,1.528,22.185,2.295,33.182,2.295c10.997,0,21.898-0.767,32.608-2.295v-0.767
			c6.885-2.295,12.24-6.12,16.83-11.475c5.354-7.65,7.648-17.595,5.354-26.01c-3.548-14.189-15.648-23.114-30.202-23.116
			c-1.14,0-2.291,0.055-3.458,0.166c-5.783,0.457-11.577,0.687-17.36,0.687c-52.342,0-103.945-18.795-142.523-58.062
			c-76.5-75.735-76.5-199.665,0-275.4c37.868-38.25,87.784-57.375,137.7-57.375s99.832,19.125,137.7,57.375
			c43.604,43.605,61.965,102.511,55.845,159.12c-1.53,15.3,8.415,29.835,22.95,33.66c2.398,0.6,4.799,0.886,7.171,0.886
			c6.704,0,13.188-2.285,18.839-6.241c5.355-3.823,9.18-9.943,11.477-16.83l1.528,0.767c3.062-22.187,3.062-44.37,0-65.79
			l41.312-11.475l-17.597-66.556l-41.31,10.71c-8.415-19.89-19.125-39.015-32.896-57.375l29.837-29.835l-48.962-48.96
			l-29.835,29.835c-17.595-13.77-36.72-24.48-57.375-32.895l10.71-41.31L348.84,15.798L348.84,15.798z"/>
	</g>
	<g id="_x3C_Group_x3E_1" opacity="0.52">
		<path d="M197.823,592.66l10.68-41.193l-0.81-0.33c-21.447-8.738-40.136-19.452-57.136-32.756l-0.697-0.546l-29.754,29.754
			l-47.547-47.546l29.741-29.741l-0.521-0.693C88.52,451.929,77.8,433.23,69.005,412.443l-0.335-0.791L26.722,422.33L9.639,357.704
			l41.203-10.685l-0.126-0.885c-3.05-21.352-3.05-43.393,0.001-65.511l0.122-0.882l-41.2-10.68l17.083-64.623l41.194,10.68
			l0.33-0.81c8.738-21.447,19.452-40.136,32.756-57.136l0.545-0.697l-29.753-29.754l47.546-47.546l29.741,29.741l0.694-0.521
			c17.679-13.259,36.377-23.979,57.165-32.774l0.809-0.342L196.31,34.1l64.605-17.079l10.682,41.203l0.885-0.126
			c10.613-1.516,21.537-2.285,32.467-2.285c10.932,0,22.05,0.769,33.045,2.286l0.882,0.122l10.681-41.199l64.621,17.083
			l-10.68,41.194l0.811,0.33c21.447,8.737,40.138,19.452,57.137,32.756l0.696,0.545l29.755-29.754l47.547,47.546l-29.742,29.741
			l0.521,0.694c13.259,17.678,23.979,36.377,32.774,57.165l0.336,0.795l41.182-10.677l17.09,64.638l-41.205,11.445l0.124,0.87
			c2.986,20.906,3.05,42.476,0.187,64.128l-1.31-0.654l-0.364,1.094c-2.405,7.213-6.246,12.861-11.108,16.333
			c-5.655,3.959-11.972,6.055-18.258,6.055c-2.324,0-4.655-0.288-6.929-0.854c-14.136-3.722-23.685-17.732-22.197-32.592
			c6.437-59.523-14.023-117.817-56.133-159.927c-36.814-37.187-85.97-57.668-138.407-57.668
			c-52.437,0-101.593,20.481-138.411,57.671c-37.183,36.811-57.665,85.967-57.665,138.404s20.481,101.593,57.671,138.411
			c36.966,37.625,87.835,58.351,143.227,58.351c5.78,0,11.646-0.231,17.439-0.688c1.14-0.108,2.271-0.163,3.38-0.163
			c14.361,0,25.837,8.775,29.231,22.357c2.151,7.892,0.155,17.537-5.204,25.194c-4.619,5.381-9.826,8.932-16.327,11.1l-0.684,0.229
			v0.617c-10.344,1.437-20.973,2.164-31.608,2.164c-10.931,0-22.049-0.771-33.045-2.285l-0.881-0.122l-10.681,41.198L197.823,592.66
			z"/>
		<path d="M260.198,18.245l10.206,39.365l0.449,1.731l1.77-0.253c10.567-1.51,21.442-2.275,32.326-2.275
			c10.886,0,21.958,0.766,32.908,2.276l1.763,0.243l0.447-1.722l10.204-39.365l62.688,16.572L402.75,74.2l-0.439,1.694l1.62,0.66
			c21.36,8.703,39.973,19.372,56.897,32.618l1.395,1.091l1.252-1.252l28.421-28.42l46.134,46.131l-28.422,28.421l-1.228,1.227
			l1.041,1.388c13.209,17.612,23.891,36.242,32.653,56.954l0.673,1.59l1.671-0.433l39.383-10.21l16.582,62.721l-39.407,10.946
			l-1.692,0.471l0.249,1.74c2.91,20.367,3.03,41.365,0.364,62.462l-1.082-0.542l-0.729,2.188
			c-2.338,7.013-6.052,12.487-10.726,15.824c-5.494,3.847-11.611,5.88-17.691,5.88c-2.243,0-4.492-0.276-6.662-0.819
			c-13.677-3.6-22.906-17.152-21.471-31.512c6.469-59.834-14.095-118.425-56.412-160.742
			c-37.007-37.381-86.415-57.968-139.121-57.968c-52.707,0-102.114,20.587-139.107,57.954
			c-37.381,37.007-57.968,86.416-57.968,139.122s20.587,102.114,57.948,139.102c37.165,37.827,88.287,58.66,143.95,58.66
			c5.805,0,11.699-0.232,17.551-0.694c1.093-0.104,2.192-0.157,3.27-0.157c13.889,0.001,24.98,8.479,28.271,21.643
			c2.063,7.563,0.145,16.851-5.008,24.257c-4.539,5.272-9.587,8.706-15.88,10.805l-1.367,0.456v0.466
			c-10.025,1.352-20.313,2.036-30.608,2.036c-10.886,0-21.958-0.767-32.908-2.276l-1.763-0.243l-0.447,1.724l-10.206,39.363
			l-62.688-16.571l10.21-39.384l0.439-1.694l-1.621-0.66c-21.36-8.702-39.971-19.371-56.897-32.617l-1.395-1.091l-1.252,1.252
			l-28.421,28.421l-46.131-46.136l28.42-28.421l1.227-1.228l-1.041-1.388c-13.209-17.612-23.891-36.243-32.653-56.954l-0.669-1.583
			l-1.666,0.424l-40.155,10.223L10.862,358.42l39.365-10.207l1.731-0.448l-0.253-1.771c-3.037-21.261-3.037-43.207,0.001-65.233
			l0.243-1.763l-1.722-0.447l-39.365-10.206l16.572-62.688l39.383,10.21l1.694,0.439l0.66-1.621
			c8.703-21.36,19.372-39.971,32.618-56.896l1.091-1.396l-1.252-1.252l-28.42-28.421l46.131-46.131l28.421,28.42l1.227,1.227
			l1.388-1.041c17.613-13.209,36.243-23.891,56.954-32.653l1.618-0.685l-0.47-1.692l-10.933-39.359L260.198,18.245 M348.84,15.798
			l-10.71,41.31c-11.093-1.53-22.185-2.295-33.182-2.295s-21.898,0.765-32.608,2.295l-10.71-41.31l-66.555,17.595l11.475,41.31
			c-19.89,8.415-39.015,19.125-57.375,32.895L119.34,77.763l-48.96,48.96l29.835,29.835c-13.77,17.595-24.48,36.72-32.895,57.375
			l-41.31-10.71L8.415,269.777l41.31,10.711c-3.06,22.185-3.06,44.369,0,65.789l-41.31,10.712l17.595,66.554l42.075-10.71
			c8.415,19.89,19.125,39.015,32.895,57.375l-29.835,29.835l48.96,48.96l29.835-29.835c17.595,13.77,36.72,24.479,57.375,32.895
			l-10.71,41.312l66.555,17.595l10.71-41.31c11.093,1.528,22.185,2.295,33.182,2.295c10.997,0,21.898-0.767,32.608-2.295v-0.767
			c6.885-2.295,12.24-6.12,16.83-11.475c5.354-7.65,7.648-17.595,5.354-26.01c-3.548-14.189-15.648-23.114-30.202-23.116
			c-1.14,0-2.291,0.055-3.458,0.166c-5.783,0.457-11.577,0.687-17.36,0.687c-52.342,0-103.945-18.795-142.523-58.062
			c-76.5-75.735-76.5-199.665,0-275.4c37.868-38.25,87.784-57.375,137.7-57.375s99.832,19.125,137.7,57.375
			c43.604,43.605,61.965,102.511,55.845,159.12c-1.53,15.3,8.415,29.835,22.95,33.66c2.398,0.6,4.799,0.886,7.171,0.886
			c6.704,0,13.188-2.285,18.839-6.241c5.355-3.823,9.18-9.943,11.477-16.83l1.528,0.767c3.062-22.187,3.062-44.37,0-65.79
			l41.312-11.475l-17.597-66.556l-41.31,10.71c-8.415-19.89-19.125-39.015-32.896-57.375l29.837-29.835l-48.962-48.96
			l-29.835,29.835c-17.595-13.77-36.72-24.48-57.375-32.895l10.71-41.31L348.84,15.798L348.84,15.798z"/>
		<g id="_x3C_Group_x3E_1_1_">
			<path d="M498.015,560.817c-15.147,0-29.297-5.806-39.838-16.347L345.429,431.723h-0.323c-0.044-0.063-0.099-0.149-0.143-0.222
				c-0.167-0.271-0.396-0.642-0.77-1.017l-0.362-0.361l-52.526,8.497c-2.618,0.437-5.39,0.657-8.245,0.657
				c-21.146,0-45.265-11.695-57.35-27.811l-36.72-48.96c-13.458-17.944-17.257-50.771-8.296-71.681l13.848-32.067l70.111,94.235
				c2.432,3.65,7.904,6.23,13.276,6.229c1.379,0,2.68-0.172,3.866-0.51l39.022-11.479c5.718-1.633,13.484-7.185,16.613-11.879
				l22.944-33.65c3.462-6.051,3.09-14.104-0.822-18.799l-70.065-94.175l34.212-3.64c2.176-0.281,4.435-0.421,6.734-0.421
				c21.582,0,47.238,12.509,59.681,29.097l36.72,48.96c13.505,18.006,16.612,50.465,6.783,70.876l-8.713,19.012l112.948,112.183
				c10.539,10.538,16.345,24.686,16.345,39.835s-5.806,29.297-16.347,39.838S513.164,560.817,498.015,560.817z"/>
			<path d="M330.436,185.671c21.299,0.001,46.61,12.338,58.881,28.697l36.72,48.96c13.308,17.742,16.368,49.727,6.666,69.877
				l-7.216,15.746l-0.425-0.424l-1.145,2.766c-0.153,0.371-0.41,1.336,0.527,2.271l0.252,0.251l112.448,111.687
				c10.354,10.352,16.055,24.249,16.055,39.131s-5.701,28.779-16.055,39.131c-10.352,10.352-24.248,16.054-39.131,16.054
				c-14.882,0-28.777-5.702-39.131-16.054L346.429,431.309l-0.586-0.586h-0.188c-0.175-0.27-0.414-0.604-0.754-0.942l-0.725-0.726
				l-1.011,0.163l-52.03,8.417c-2.559,0.427-5.276,0.643-8.076,0.643c-10.028,0-21.274-2.781-31.668-7.834
				c-10.352-5.031-19.188-11.982-24.882-19.575l-36.72-48.96c-6.453-8.604-10.866-20.756-12.427-34.221
				c-1.562-13.475-0.053-26.426,4.248-36.461l13.162-30.48l69.048,92.806c2.691,3.993,8.352,6.674,14.108,6.674
				c1.472,0,2.865-0.186,4.155-0.554l39-11.472c5.914-1.688,13.942-7.432,17.168-12.271l22.95-33.659l0.045-0.066l0.039-0.069
				c3.604-6.308,3.204-14.817-0.927-19.821l-69.022-92.771l32.514-3.46C325.963,185.809,328.179,185.671,330.436,185.671
				L330.436,185.671 M330.436,183.671c-2.322,0-4.606,0.139-6.841,0.427l-35.955,3.825l71.145,95.625
				c3.825,4.59,3.825,12.239,0.765,17.595l-22.95,33.66c-3.06,4.59-10.71,9.945-16.063,11.475l-39.016,11.476
				c-1.118,0.319-2.336,0.472-3.591,0.472c-4.758,0-10.053-2.193-12.474-5.827l-71.145-95.624l-14.535,33.659
				c-9.18,21.421-5.355,54.315,8.415,72.675l36.72,48.96c12.139,16.187,36.765,28.21,58.15,28.21c2.874,0,5.686-0.217,8.405-0.67
				l52.021-8.414c0.765,0.766,0.765,1.529,1.528,1.529L457.47,545.178c11.093,11.093,25.819,16.639,40.545,16.639
				c14.728,0,29.452-5.546,40.545-16.639c22.187-22.185,22.187-58.905,0-81.09l-112.453-111.69c0,0-0.001-0.001-0.005-0.004l0,0
				c-0.001-0.001-0.001-0.001-0.002-0.002c0,0,0,0,0-0.001c-0.001,0-0.001,0-0.001,0c-0.25-0.25-0.333-0.333-0.333-0.333
				s0.285,0.285,0.333,0.333c0,0,0,0,0.001,0c0,0.001,0,0.001,0,0.001c0.001,0.001,0.001,0.001,0.002,0.002l0,0
				c0.002,0.002,0.004,0.003,0.005,0.004l8.413-18.358c9.945-20.655,6.887-53.551-6.885-71.91l-36.72-48.96
				C378.441,196.537,352.783,183.672,330.436,183.671L330.436,183.671z"/>
		</g>
	</g>
</g>
</svg>
