<?xml version="1.0" encoding="utf-8"?>
<!-- Generator: Adobe Illustrator 16.0.2, SVG Export Plug-In . SVG Version: 6.00 Build 0)  -->
<!DOCTYPE svg PUBLIC "-//W3C//DTD SVG 1.1//EN" "http://www.w3.org/Graphics/SVG/1.1/DTD/svg11.dtd">
<svg version="1.1" id="Layer_1" xmlns="http://www.w3.org/2000/svg" xmlns:xlink="http://www.w3.org/1999/xlink" x="0px" y="0px"
	 width="62.406px" height="62.406px" viewBox="0 0 62.406 62.406" enable-background="new 0 0 62.406 62.406" xml:space="preserve">
<path fill="#BF00FF" d="M23.015,33.195c-0.443,0-0.443,0-0.887,0c-1.771,0.442-3.541,2.213-3.541,3.983
	c0,2.213,1.771,3.981,3.541,3.981c0.442,0.443,10.622,0,11.95,0v7.524h-4.426v-3.099h-7.082c-3.54,0-7.967-2.655-7.967-8.408
	c0-5.313,4.427-8.41,7.967-8.41H39.39c0,0,0.441,0,0.885,0c1.771,0,3.099-1.771,3.099-3.983c0-1.77-1.328-3.54-3.099-3.982
	c-0.442,0-11.064,0-12.394,0V13.72h4.427v2.654h7.523c3.541,0,7.967,3.1,7.967,8.409c0,5.313-4.426,8.41-7.967,8.41L23.015,33.195
	L23.015,33.195z"/>
<g>
	<path fill="#BF00FF" d="M46.915,10.179l3.541,11.508l2.213-2.655c5.313,9.736,3.983,21.688-3.982,29.653
		c-8.409,8.409-21.688,9.295-31.424,2.654l0.885,3.541l-4.868-1.326c11.507,8.852,27.883,7.966,38.063-2.215
		c9.296-9.294,11.065-23.898,4.428-34.965l2.654-2.654L46.915,10.179z"/>
	<path fill="#BF00FF" d="M13.72,13.72c-7.968,7.967-9.296,19.917-4.427,29.211l2.655-2.213l3.541,11.508L3.983,48.685l2.656-2.655
		C0,34.965,1.328,20.359,11.065,11.065C21.245,0.442,37.621,0,49.128,8.852L44.26,7.524l0.886,3.098
		C35.408,3.983,22.13,5.311,13.72,13.72z"/>
</g>
</svg>
