<?xml version="1.0" encoding="utf-8"?>
<!-- Generator: Adobe Illustrator 18.0.0, SVG Export Plug-In . SVG Version: 6.00 Build 0)  -->
<!DOCTYPE svg PUBLIC "-//W3C//DTD SVG 1.1//EN" "http://www.w3.org/Graphics/SVG/1.1/DTD/svg11.dtd">
<svg version="1.1" id="Layer_1" xmlns="http://www.w3.org/2000/svg" xmlns:xlink="http://www.w3.org/1999/xlink" x="0px" y="0px"
	 viewBox="0 0 132 132" enable-background="new 0 0 132 132" xml:space="preserve">
<g id="disabled">
	<g>
		<path fill="#575757" d="M66,1C30.1,1,1,30.1,1,66s29.1,65,65,65s65-29.1,65-65S101.9,1,66,1z M66,114c-26.5,0-48-21.5-48-48
			s21.5-48,48-48s48,21.5,48,48S92.5,114,66,114z"/>
	</g>
	<circle fill="#FFFFFF" cx="66" cy="66" r="48"/>
	<g id="LWPOLYLINE_2_">
		<path d="M99.2,59.1l0.8-0.1l0.7-0.3l0.6-0.5l0.5-0.6l0.3-1l0.1-1l0-1v-6.1h3v13.3h-2.8v-2.9c-0.5,1.9-2.3,3.2-4.2,3.2
			c-0.1,0-0.3,0-0.4,0c-2.1-0.2-3.7-2.1-3.5-4.2v-9.3h3v8.5c-0.2,1.1,0.6,2.1,1.7,2.3C99,59,99.1,59.1,99.2,59.1z"/>
	</g>
	<g id="LWPOLYLINE_3_">
		<path d="M78.2,79.8v8.5h-3v-8.2c0.2-1.2-0.7-2.4-1.9-2.6c-0.1,0-0.1,0-0.2,0c-1.9,0.3-3.2,2.1-2.9,4c0,0,0,0,0,0.1v6.7h-3V75.1
			h2.7v3.1c0.5-1.8,2.1-3.2,4-3.3l1,0.1l1,0.3l0.9,0.6l0.7,0.8l0.4,1l0.2,1.1L78.2,79.8z"/>
	</g>
	<g id="LWPOLYLINE_4_">
		<rect x="54.4" y="48.3" width="3" height="13.3"/>
	</g>
	<g id="LWPOLYLINE_5_">
		<rect x="62.5" y="43.6" width="3" height="18"/>
	</g>
	<g id="LWPOLYLINE_6_">
		<rect x="70.5" y="43.6" width="3" height="3"/>
	</g>
	<g id="LWPOLYLINE_7_">
		<polygon points="49.2,43.6 49.2,61.6 45.9,61.6 45.8,45.8 41.1,61.6 39.4,61.6 34.5,45.8 34.4,61.6 31.7,61.6 31.7,43.6 
			36.9,43.6 40.5,55.2 44.1,43.6 		"/>
	</g>
	<g id="LWPOLYLINE_8_">
		<rect x="54.4" y="43.6" width="3" height="3"/>
	</g>
	<g id="LWPOLYLINE_9_">
		<rect x="70.5" y="48.3" width="3" height="13.3"/>
	</g>
	<g id="LWPOLYLINE_10_">
		<polygon points="42.4,85.8 49.2,85.8 49.2,88.3 39.2,88.3 39.2,85.8 45.8,77.6 39.8,77.6 39.8,75.1 49.2,75.1 49.2,77.3 		"/>
	</g>
	<g>
		<path d="M90,55.3l0-0.3l-0.1-1.5L89.6,52l-0.6-1.4L88,49.5l-1.2-0.8l-1.4-0.5l-1.4-0.1c-3.5,0-6.3,2.8-6.3,6.3c0,0.2,0,0.4,0,0.6
			c-0.3,3.4,2.2,6.5,5.6,6.8c0.2,0,0.4,0,0.5,0c2.7,0.1,5.1-1.6,5.9-4.3l-3-0.3c-0.4,1.2-1.6,2.1-2.9,2c-0.2,0-0.3,0-0.5-0.1
			c-1.8-0.4-3-2.1-2.6-3.9H90z M83.9,50.1c0,0,0.1,0,0.1,0c1.7,0.1,3,1.5,2.9,3.2h-6.3C80.8,51.5,82.2,50.1,83.9,50.1z"/>
	</g>
	<g>
		<path d="M93.9,82.1l0-0.3l-0.1-1.5l-0.3-1.5l-0.6-1.4L92,76.3l-1.2-0.8L89.4,75L88,74.8c-3.5,0-6.3,2.8-6.3,6.3c0,0.2,0,0.4,0,0.6
			c-0.3,3.4,2.2,6.5,5.6,6.8c0.2,0,0.4,0,0.5,0c2.7,0.1,5.1-1.6,5.9-4.3l-3-0.3c-0.4,1.2-1.6,2.1-2.9,2c-0.2,0-0.3,0-0.5-0.1
			c-1.8-0.4-3-2.1-2.6-3.9H93.9z M87.9,76.8c0,0,0.1,0,0.1,0c1.7,0.1,3,1.5,2.9,3.2h-6.3C84.7,78.3,86.1,76.9,87.9,76.8z"/>
	</g>
	<g>
		<path d="M63.7,81.7c0.3-3.5-2.3-6.5-5.7-6.8c-0.1,0-0.2,0-0.3,0c-3.5,0-6.2,2.9-6.2,6.3c0,0.2,0,0.3,0,0.5l0.1,1.5l0.4,1.5
			l0.7,1.3l0.9,1.1l1.2,0.9l1.4,0.5l1.4,0.1c3.5,0,6.3-2.9,6.3-6.4C63.7,82,63.7,81.8,63.7,81.7z M60.6,82.7l-0.2,1l-0.4,1l-0.5,0.6
			L59,85.8L58.3,86l-0.8,0.1L56.8,86l-0.7-0.3l-0.6-0.5L55,84.6l-0.4-0.9l-0.2-1l-0.1-1l0.1-1l0.2-1l0.4-0.9l0.4-0.6l0.6-0.5
			l0.7-0.3l0.8-0.1l0.7,0.1l0.7,0.3l0.6,0.5l0.4,0.6l0.4,0.9l0.2,1l0.1,1L60.6,82.7z"/>
	</g>
</g>
<g id="normal">
	<g>
		<path fill="#D9241B" d="M66,1C30.1,1,1,30.1,1,66s29.1,65,65,65s65-29.1,65-65S101.9,1,66,1z M66,114c-26.5,0-48-21.5-48-48
			s21.5-48,48-48s48,21.5,48,48S92.5,114,66,114z"/>
	</g>
	<circle fill="#FFFFFF" cx="66" cy="66" r="48"/>
	<g id="LWPOLYLINE_18_">
		<path d="M99.2,59.1l0.8-0.1l0.7-0.3l0.6-0.5l0.5-0.6l0.3-1l0.1-1l0-1v-6.1h3v13.3h-2.8v-2.9c-0.5,1.9-2.3,3.2-4.2,3.2
			c-0.1,0-0.3,0-0.4,0c-2.1-0.2-3.7-2.1-3.5-4.2v-9.3h3v8.5c-0.2,1.1,0.6,2.1,1.7,2.3C99,59,99.1,59.1,99.2,59.1z"/>
	</g>
	<g id="LWPOLYLINE_17_">
		<path d="M78.2,79.8v8.5h-3v-8.2c0.2-1.2-0.7-2.4-1.9-2.6c-0.1,0-0.1,0-0.2,0c-1.9,0.3-3.2,2.1-2.9,4c0,0,0,0,0,0.1v6.7h-3V75.1
			h2.7v3.1c0.5-1.8,2.1-3.2,4-3.3l1,0.1l1,0.3l0.9,0.6l0.7,0.8l0.4,1l0.2,1.1L78.2,79.8z"/>
	</g>
	<g id="LWPOLYLINE_16_">
		<rect x="54.4" y="48.3" width="3" height="13.3"/>
	</g>
	<g id="LWPOLYLINE_15_">
		<rect x="62.5" y="43.6" width="3" height="18"/>
	</g>
	<g id="LWPOLYLINE_14_">
		<rect x="70.5" y="43.6" width="3" height="3"/>
	</g>
	<g id="LWPOLYLINE_13_">
		<polygon points="49.2,43.6 49.2,61.6 45.9,61.6 45.8,45.8 41.1,61.6 39.4,61.6 34.5,45.8 34.4,61.6 31.7,61.6 31.7,43.6 
			36.9,43.6 40.5,55.2 44.1,43.6 		"/>
	</g>
	<g id="LWPOLYLINE_12_">
		<rect x="54.4" y="43.6" width="3" height="3"/>
	</g>
	<g id="LWPOLYLINE_11_">
		<rect x="70.5" y="48.3" width="3" height="13.3"/>
	</g>
	<g id="LWPOLYLINE_1_">
		<polygon points="42.4,85.8 49.2,85.8 49.2,88.3 39.2,88.3 39.2,85.8 45.8,77.6 39.8,77.6 39.8,75.1 49.2,75.1 49.2,77.3 		"/>
	</g>
	<g>
		<path d="M90,55.3l0-0.3l-0.1-1.5L89.6,52l-0.6-1.4L88,49.5l-1.2-0.8l-1.4-0.5l-1.4-0.1c-3.5,0-6.3,2.8-6.3,6.3c0,0.2,0,0.4,0,0.6
			c-0.3,3.4,2.2,6.5,5.6,6.8c0.2,0,0.4,0,0.5,0c2.7,0.1,5.1-1.6,5.9-4.3l-3-0.3c-0.4,1.2-1.6,2.1-2.9,2c-0.2,0-0.3,0-0.5-0.1
			c-1.8-0.4-3-2.1-2.6-3.9H90z M83.9,50.1c0,0,0.1,0,0.1,0c1.7,0.1,3,1.5,2.9,3.2h-6.3C80.8,51.5,82.2,50.1,83.9,50.1z"/>
	</g>
	<g>
		<path d="M93.9,82.1l0-0.3l-0.1-1.5l-0.3-1.5l-0.6-1.4L92,76.3l-1.2-0.8L89.4,75L88,74.8c-3.5,0-6.3,2.8-6.3,6.3c0,0.2,0,0.4,0,0.6
			c-0.3,3.4,2.2,6.5,5.6,6.8c0.2,0,0.4,0,0.5,0c2.7,0.1,5.1-1.6,5.9-4.3l-3-0.3c-0.4,1.2-1.6,2.1-2.9,2c-0.2,0-0.3,0-0.5-0.1
			c-1.8-0.4-3-2.1-2.6-3.9H93.9z M87.9,76.8c0,0,0.1,0,0.1,0c1.7,0.1,3,1.5,2.9,3.2h-6.3C84.7,78.3,86.1,76.9,87.9,76.8z"/>
	</g>
	<g>
		<path d="M63.7,81.7c0.3-3.5-2.3-6.5-5.7-6.8c-0.1,0-0.2,0-0.3,0c-3.5,0-6.2,2.9-6.2,6.3c0,0.2,0,0.3,0,0.5l0.1,1.5l0.4,1.5
			l0.7,1.3l0.9,1.1l1.2,0.9l1.4,0.5l1.4,0.1c3.5,0,6.3-2.9,6.3-6.4C63.7,82,63.7,81.8,63.7,81.7z M60.6,82.7l-0.2,1l-0.4,1l-0.5,0.6
			L59,85.8L58.3,86l-0.8,0.1L56.8,86l-0.7-0.3l-0.6-0.5L55,84.6l-0.4-0.9l-0.2-1l-0.1-1l0.1-1l0.2-1l0.4-0.9l0.4-0.6l0.6-0.5
			l0.7-0.3l0.8-0.1l0.7,0.1l0.7,0.3l0.6,0.5l0.4,0.6l0.4,0.9l0.2,1l0.1,1L60.6,82.7z"/>
	</g>
</g>
</svg>
