<?xml version="1.0" encoding="utf-8"?>
<!-- Generator: Adobe Illustrator 18.0.0, SVG Export Plug-In . SVG Version: 6.00 Build 0)  -->
<!DOCTYPE svg PUBLIC "-//W3C//DTD SVG 1.1//EN" "http://www.w3.org/Graphics/SVG/1.1/DTD/svg11.dtd">
<svg version="1.1" id="Layer_1" xmlns="http://www.w3.org/2000/svg" xmlns:xlink="http://www.w3.org/1999/xlink" x="0px" y="0px"
	 viewBox="0 0 132 132" enable-background="new 0 0 132 132" xml:space="preserve">
<g id="disabled">
	<g id="LWPOLYLINE_14_">
		<path fill="#FFFFFF" d="M132,122V10c0-5.5-4.5-10-10-10H10C4.5,0,0,4.5,0,10v112c0,5.5,4.5,10,10,10h112
			C127.5,132,132,127.5,132,122z"/>
	</g>
	<g>
		<path d="M122,3H10c-3.9,0-7,3.1-7,7v112c0,3.9,3.1,7,7,7h112c3.9,0,7-3.1,7-7V10C129,6.1,125.9,3,122,3z M126,122c0,2.2-1.8,4-4,4
			H10c-2.2,0-4-1.8-4-4V10c0-2.2,1.8-4,4-4h112c2.2,0,4,1.8,4,4V122z"/>
	</g>
	<g>
		<path fill="#575757" d="M66,11.5c-23.2,0-42,18.8-42,42s18.8,42,42,42s42-18.8,42-42S89.2,11.5,66,11.5z M66,84.5
			c-17.1,0-31-13.9-31-31s13.9-31,31-31s31,13.9,31,31S83.1,84.5,66,84.5z"/>
	</g>
	<g>
		<path d="M64.9,109.4l-0.5-1.9l-0.8-1.8l-0.9-1.2l-1.1-1l-1.3-0.7l-1.4-0.4l-1.5-0.1l-1.5,0.1l-1.4,0.4l-1.3,0.7l-1.1,1l-1.1,1.5
			l-0.8,1.7l-0.4,1.8l-0.1,1.9l0.1,2l0.5,1.9l0.8,1.8l0.9,1.2l1.1,1l1.3,0.8l1.5,0.4l1.5,0.1l1.5-0.1l1.4-0.4l1.3-0.7l1.1-1l1.1-1.5
			l0.8-1.7l0.4-1.9l0.1-1.9L64.9,109.4z M61.5,112.9l-0.2,1.5l-0.5,1.4l-0.6,0.9l-0.8,0.7l-1,0.4l-1.1,0.1l-1.1-0.1l-1-0.4l-0.8-0.7
			l-0.6-0.9l-0.5-1.4l-0.2-1.4l-0.1-1.4l0.1-1.5l0.2-1.5l0.5-1.4l0.6-0.9l0.8-0.7l1-0.4l1.1-0.1l1.1,0.1l1,0.4l0.8,0.7l0.6,0.9
			l0.5,1.4l0.2,1.4l0.1,1.4L61.5,112.9z"/>
	</g>
	<g id="LWPOLYLINE_2_">
		<path d="M39.9,47.4v7.7l0,0.7l0.2,0.7l0.4,0.6l0.7,0.4l0.8,0.1l0.7-0.1l0.7-0.3l0.5-0.5l0.2-0.8l0.1-0.9v-7.7h1.8v7.7
			c0,0.3,0.1,0.6,0,0.9c-0.2,2.2-2,3.8-4.2,3.6c-0.3,0-0.5,0-0.8,0c-2.1-0.3-3.6-2.2-3.4-4.3v-7.9H39.9z"/>
	</g>
	<g id="LWPOLYLINE_3_">
		<polygon points="81.6,102.4 81.6,120.4 78.2,120.4 71.7,108.9 71.4,108.4 71.2,108.1 71,107.7 70.8,107.4 70.8,120.4 68.1,120.4 
			68.1,102.4 71.8,102.4 77.9,113.1 78.4,114 78.8,114.7 78.8,102.4 		"/>
	</g>
	<g id="LWPOLYLINE_4_">
		<polygon points="38.6,117.7 48.1,117.7 48.1,120.4 34.6,120.4 34.6,117.9 44,105.2 35.2,105.2 35.2,102.4 47.8,102.4 47.8,105.2 
					"/>
	</g>
	<g id="LWPOLYLINE_6_">
		<polygon points="68.6,50.6 70.4,50.6 71.8,56.5 73.6,50.6 75.2,50.6 72.6,59.4 70.8,59.4 69.3,53.3 67.7,59.4 65.8,59.4 
			63.1,50.6 65.1,50.6 67,56.6 		"/>
	</g>
	<g id="LWPOLYLINE_7_">
		<rect x="86.1" y="47.4" width="2" height="12"/>
	</g>
	<g id="LWPOLYLINE_8_">
		<path d="M91,48.3l1.7-0.2v2.5h1.7v1.7h-1.7v4.3l0,0.4l0.1,0.4l0.3,0.3l0.5,0.2l0.5,0l0.3,0l0.2,0v1.5l-0.8,0.1l-0.6,0
			c-0.2,0-0.3,0-0.5,0c-1.3-0.2-2.2-1.5-2-2.8v-4.5h-1.2v-1.7h1.3L91,48.3z"/>
	</g>
	<g id="LWPOLYLINE_9_">
		<polygon points="88.8,112.7 88.8,117.7 97.1,117.7 97.1,120.4 85.6,120.4 85.6,102.4 97.1,102.4 97.1,105.2 88.8,105.2 
			88.8,109.9 95.3,109.9 95.3,112.7 		"/>
	</g>
	<g id="LWPOLYLINE_10_">
		<path d="M61.7,59.4v-6.2c0-1.5-1.2-2.8-2.7-2.8c-0.1,0-0.1,0-0.2,0c-1.3,0-2.5,0.8-3,2.1c-0.2-1.2-1.3-2.1-2.6-2.1
			c-1.3,0-2.5,0.8-3,2.1v-1.9h-1.9v8.8h2v-4.6c0,0,0-0.1,0-0.1c-0.1-1.3,0.9-2.4,2.2-2.4c0.1,0,0.2,0,0.3,0c0.8,0.1,1.4,0.9,1.2,1.7
			v5.4h2v-4.6c0-0.1,0-0.2,0-0.2c-0.1-1.2,0.9-2.2,2.1-2.3c0.1,0,0.2,0,0.3,0c0.8,0.1,1.4,0.9,1.3,1.7v5.4H61.7z"/>
	</g>
	<g>
		<path d="M80.6,50.5c-0.1,0-0.2,0-0.3,0c-2.3,0-4.2,1.9-4.2,4.2c0,0.1,0,0.2,0,0.4c-0.2,2.3,1.4,4.3,3.7,4.5c0.1,0,0.2,0,0.4,0
			c1.8,0.1,3.4-1.1,3.9-2.8l-2-0.2c-0.3,0.8-1.1,1.4-1.9,1.3c-0.1,0-0.2,0-0.3,0c-1.2-0.2-2-1.4-1.7-2.6h6.2l0-0.2
			C84.5,52.8,82.8,50.7,80.6,50.5z M78.1,53.9c0-1.2,0.9-2.1,2.1-2.2c0,0,0.1,0,0.1,0c1.1,0.1,2,1,1.9,2.2H78.1z"/>
	</g>
</g>
<g id="normal">
	<g id="LWPOLYLINE_18_">
		<path fill="#FFFFFF" d="M132,122V10c0-5.5-4.5-10-10-10H10C4.5,0,0,4.5,0,10v112c0,5.5,4.5,10,10,10h112
			C127.5,132,132,127.5,132,122z"/>
	</g>
	<g>
		<path d="M122,3H10c-3.9,0-7,3.1-7,7v112c0,3.9,3.1,7,7,7h112c3.9,0,7-3.1,7-7V10C129,6.1,125.9,3,122,3z M126,122c0,2.2-1.8,4-4,4
			H10c-2.2,0-4-1.8-4-4V10c0-2.2,1.8-4,4-4h112c2.2,0,4,1.8,4,4V122z"/>
	</g>
	<g>
		<path fill="#D9241B" d="M66,11.5c-23.2,0-42,18.8-42,42s18.8,42,42,42s42-18.8,42-42S89.2,11.5,66,11.5z M66,84.5
			c-17.1,0-31-13.9-31-31s13.9-31,31-31s31,13.9,31,31S83.1,84.5,66,84.5z"/>
	</g>
	<g>
		<path d="M64.9,109.4l-0.5-1.9l-0.8-1.8l-0.9-1.2l-1.1-1l-1.3-0.7l-1.4-0.4l-1.5-0.1l-1.5,0.1l-1.4,0.4l-1.3,0.7l-1.1,1l-1.1,1.5
			l-0.8,1.7l-0.4,1.8l-0.1,1.9l0.1,2l0.5,1.9l0.8,1.8l0.9,1.2l1.1,1l1.3,0.8l1.5,0.4l1.5,0.1l1.5-0.1l1.4-0.4l1.3-0.7l1.1-1l1.1-1.5
			l0.8-1.7l0.4-1.9l0.1-1.9L64.9,109.4z M61.5,112.9l-0.2,1.5l-0.5,1.4l-0.6,0.9l-0.8,0.7l-1,0.4l-1.1,0.1l-1.1-0.1l-1-0.4l-0.8-0.7
			l-0.6-0.9l-0.5-1.4l-0.2-1.4l-0.1-1.4l0.1-1.5l0.2-1.5l0.5-1.4l0.6-0.9l0.8-0.7l1-0.4l1.1-0.1l1.1,0.1l1,0.4l0.8,0.7l0.6,0.9
			l0.5,1.4l0.2,1.4l0.1,1.4L61.5,112.9z"/>
	</g>
	<g id="LWPOLYLINE_17_">
		<path d="M39.9,47.4v7.7l0,0.7l0.2,0.7l0.4,0.6l0.7,0.4l0.8,0.1l0.7-0.1l0.7-0.3l0.5-0.5l0.2-0.8l0.1-0.9v-7.7h1.8v7.7
			c0,0.3,0.1,0.6,0,0.9c-0.2,2.2-2,3.8-4.2,3.6c-0.3,0-0.5,0-0.8,0c-2.1-0.3-3.6-2.2-3.4-4.3v-7.9H39.9z"/>
	</g>
	<g id="LWPOLYLINE_16_">
		<polygon points="81.6,102.4 81.6,120.4 78.2,120.4 71.7,108.9 71.4,108.4 71.2,108.1 71,107.7 70.8,107.4 70.8,120.4 68.1,120.4 
			68.1,102.4 71.8,102.4 77.9,113.1 78.4,114 78.8,114.7 78.8,102.4 		"/>
	</g>
	<g id="LWPOLYLINE_15_">
		<polygon points="38.6,117.7 48.1,117.7 48.1,120.4 34.6,120.4 34.6,117.9 44,105.2 35.2,105.2 35.2,102.4 47.8,102.4 47.8,105.2 
					"/>
	</g>
	<g id="LWPOLYLINE_13_">
		<polygon points="68.6,50.6 70.4,50.6 71.8,56.5 73.6,50.6 75.2,50.6 72.6,59.4 70.8,59.4 69.3,53.3 67.7,59.4 65.8,59.4 
			63.1,50.6 65.1,50.6 67,56.6 		"/>
	</g>
	<g id="LWPOLYLINE_12_">
		<rect x="86.1" y="47.4" width="2" height="12"/>
	</g>
	<g id="LWPOLYLINE_11_">
		<path d="M91,48.3l1.7-0.2v2.5h1.7v1.7h-1.7v4.3l0,0.4l0.1,0.4l0.3,0.3l0.5,0.2l0.5,0l0.3,0l0.2,0v1.5l-0.8,0.1l-0.6,0
			c-0.2,0-0.3,0-0.5,0c-1.3-0.2-2.2-1.5-2-2.8v-4.5h-1.2v-1.7h1.3L91,48.3z"/>
	</g>
	<g id="LWPOLYLINE_5_">
		<polygon points="88.8,112.7 88.8,117.7 97.1,117.7 97.1,120.4 85.6,120.4 85.6,102.4 97.1,102.4 97.1,105.2 88.8,105.2 
			88.8,109.9 95.3,109.9 95.3,112.7 		"/>
	</g>
	<g id="LWPOLYLINE_1_">
		<path d="M61.7,59.4v-6.2c0-1.5-1.2-2.8-2.7-2.8c-0.1,0-0.1,0-0.2,0c-1.3,0-2.5,0.8-3,2.1c-0.2-1.2-1.3-2.1-2.6-2.1
			c-1.3,0-2.5,0.8-3,2.1v-1.9h-1.9v8.8h2v-4.6c0,0,0-0.1,0-0.1c-0.1-1.3,0.9-2.4,2.2-2.4c0.1,0,0.2,0,0.3,0c0.8,0.1,1.4,0.9,1.2,1.7
			v5.4h2v-4.6c0-0.1,0-0.2,0-0.2c-0.1-1.2,0.9-2.2,2.1-2.3c0.1,0,0.2,0,0.3,0c0.8,0.1,1.4,0.9,1.3,1.7v5.4H61.7z"/>
	</g>
	<g>
		<path d="M80.6,50.5c-0.1,0-0.2,0-0.3,0c-2.3,0-4.2,1.9-4.2,4.2c0,0.1,0,0.2,0,0.4c-0.2,2.3,1.4,4.3,3.7,4.5c0.1,0,0.2,0,0.4,0
			c1.8,0.1,3.4-1.1,3.9-2.8l-2-0.2c-0.3,0.8-1.1,1.4-1.9,1.3c-0.1,0-0.2,0-0.3,0c-1.2-0.2-2-1.4-1.7-2.6h6.2l0-0.2
			C84.5,52.8,82.8,50.7,80.6,50.5z M78.1,53.9c0-1.2,0.9-2.1,2.1-2.2c0,0,0.1,0,0.1,0c1.1,0.1,2,1,1.9,2.2H78.1z"/>
	</g>
</g>
</svg>
