<?xml version="1.0" encoding="utf-8"?>
<!-- Generator: Adobe Illustrator 15.0.0, SVG Export Plug-In . SVG Version: 6.00 Build 0)  -->
<!DOCTYPE svg PUBLIC "-//W3C//DTD SVG 1.1//EN" "http://www.w3.org/Graphics/SVG/1.1/DTD/svg11.dtd">
<svg version="1.1" id="Layer_1" xmlns="http://www.w3.org/2000/svg" xmlns:xlink="http://www.w3.org/1999/xlink" x="0px" y="0px"
	 width="114px" height="114px" viewBox="0 0 114 114" enable-background="new 0 0 114 114" xml:space="preserve">
<path fill="#00A3FF" d="M59.635,72.98l-1.266,6.054c0-11.621-9.439-21.063-21.056-21.063c-8.152,0-15.203,4.631-18.707,11.393
	c-0.555,1.062-1.005,2.171-1.373,3.324l-0.98,6.348c0-2.215,0.347-4.346,0.98-6.348l0.933-6.097
	C-6.068,67.55,4.129,86.689,4.129,86.689c8.945,17.227,24.893,9.252,24.893,9.252c7.969,13.401,22.333,7.975,22.333,7.975
	c1.898,0,15.624-4.148,15.624-4.148c10.846,2.234,11.801-5.427,11.801-5.427C78.464,70.428,59.637,72.98,59.635,72.98L59.635,72.98z
	 M64.188,96.93c-1.855-0.184-3.235-1.027-4.068-1.714c-6.793,4.419-12.647,5.735-17.43,3.876c-5.039-1.963-7.355-6.865-8.245-9.328
	C11.665,96.783,6.52,84.24,6.319,83.703l2.664-1.026c0.036,0.111,4.53,11.084,25.972,3.94l1.484-0.49l0.354,1.53
	c0.019,0.058,1.592,6.688,6.919,8.771c4.094,1.592,9.389,0.161,15.769-4.212l1.549-1.075l0.525,1.521
	c0.332,0.365,1.348,1.275,2.967,1.431c1.91,0.175,4.02-0.747,6.308-2.739l1.884,2.16C69.766,96.063,66.908,97.207,64.188,96.93
	L64.188,96.93z"/>
<path fill="#00BFFF" d="M17.234,72.688c-0.636,2.006-0.98,4.133-0.98,6.347L17.234,72.688z"/>
<path fill="#00BFFF" d="M61.645,92.936l-0.094-0.271c-0.074-0.075-0.136-0.146-0.143-0.146L61.645,92.936L61.645,92.936z"/>
<path fill="#00BFFF" d="M34.002,88.275c0.024,0.097,0.153,0.658,0.44,1.488c0.468-0.146,0.94-0.287,1.413-0.44L34.002,88.275
	L34.002,88.275z"/>
<path fill="#00BFFF" d="M59.146,94.262c0.031,0.036,0.365,0.469,0.969,0.958c0.316-0.211,0.644-0.418,0.966-0.636L59.146,94.262
	L59.146,94.262L59.146,94.262z"/>
<path fill="#008FFF" d="M108.047,64.023c0,0-18.186-8.617-21.066-12.918H69.757c0,0-5.745,9.575-16.758,6.221
	c0,0,5.746,6.697,5.746,10.058c0,0,14.017-1.598,21.539,8.757c4.137,1.313,15.323,3.974,22.586-2.592l2.692,2.981
	c-7.094,6.418-16.729,5.76-22.772,4.446c0.642,1.914,1.478,5.078,0.844,6.982c0,0,19.158-2.878,21.063-2.878
	C104.704,85.082,118.592,73.122,108.047,64.023L108.047,64.023z"/>
<g>
	<path fill="#FFB300" d="M34.475,53.524v-0.496c0-11.042,8.985-20.025,20.029-20.025c8.702,0,16.356,5.563,19.047,13.844l0.201,0.62
		l-0.65,0.034c-5.537,0.29-7.824,3.401-8.768,5.959l-0.121,0.33L34.475,53.524z"/>
	<path d="M54.504,33.504c8.682,0,16.025,5.663,18.571,13.498c-5.574,0.292-8.151,3.415-9.21,6.286l-28.89-0.259
		C34.975,42.246,43.706,33.504,54.504,33.504 M54.504,32.504c-11.32,0-20.529,9.208-20.529,20.525v0.991l0.991,0.009l28.89,0.259
		l0.703,0.006l0.244-0.661c0.892-2.417,3.059-5.357,8.324-5.633l1.301-0.068l-0.402-1.24C71.269,38.206,63.423,32.504,54.504,32.504
		L54.504,32.504z"/>
</g>
<path fill="#FFD700" d="M5.556,51.209c0,0,24.47,1.559,18.224-13.276l-4.687-2.346c0,0,0-2.864,6.761-2.599l6.253,0.775
	c0,0,2.6-9.628-2.61-16.911c0,0-2.861-3.912-2.078-4.953c0,0,2.606-0.522,6.511,4.427c0,0,6.503,10.662,13.8,4.419
	c0,0,2.585-4.945,3.107-8.849c0,0,3.139,3.379,3.139,5.459c0,0,2.867,8.595,8.066,4.176c0,0,9.114-5.474,9.894-12.5
	c0,0,3.387-0.79,2.078,5.209c0,0-7.291,14.059,1.563,14.832c0,0,6.241,1.83,9.378-1.298c0,0,0.783,3.379-0.779,4.419
	c0,0-7.544,7.548,0,10.162c0,0,13.54,5.979,17.694,3.386c0,0,0.255,5.188-14.31,2.85l-11.987-1.033c0,0-0.25-16.654-20.816-18.484
	c0,0-16.916-0.519-21.088,15.621c0,0-1.037,6.776-0.776,7.548c0.254,0.783-16.923,8.331-27.338,1.041
	C5.556,53.289,2.946,51.723,5.556,51.209L5.556,51.209z"/>
</svg>
