<?xml version="1.0" encoding="utf-8"?>
<!-- Generator: Adobe Illustrator 17.0.1, SVG Export Plug-In . SVG Version: 6.00 Build 0)  -->
<!DOCTYPE svg PUBLIC "-//W3C//DTD SVG 1.1//EN" "http://www.w3.org/Graphics/SVG/1.1/DTD/svg11.dtd">
<svg version="1.1" xmlns="http://www.w3.org/2000/svg" xmlns:xlink="http://www.w3.org/1999/xlink" x="0px" y="0px" width="60px"
	 height="60px" viewBox="0 0 60 60" enable-background="new 0 0 60 60" xml:space="preserve">
<g id="hwy_disabled">
	<g id="hd">
		<path fill="#313131" d="M42.499,52.811c-3.494,0-6.337-2.865-6.337-6.387s2.843-6.386,6.337-6.386
			c3.493,0,6.335,2.864,6.335,6.386S45.992,52.811,42.499,52.811z M21.067,52.811c-3.495,0-6.337-2.865-6.337-6.387
			s2.843-6.386,6.337-6.386c3.493,0,6.335,2.864,6.335,6.386S24.56,52.811,21.067,52.811z M15.9,39.273
			c-0.251,0-0.463-0.187-0.496-0.437L12.916,19.47c-0.02-0.151,0.032-0.305,0.139-0.414c0.095-0.096,0.224-0.149,0.357-0.149
			c0.018,0,38.9,4.25,38.9,4.25c0.134,0.015,0.257,0.083,0.34,0.189s0.119,0.242,0.101,0.376l-2.104,15.154
			c-0.034,0.248-0.246,0.432-0.495,0.432L15.9,39.273z M10.42,18.307c-0.208,0-0.398-0.13-0.471-0.332l-2.679-7.525
			C7.18,10.191,7.312,9.908,7.567,9.813l6.937-2.592c0.057-0.021,0.117-0.031,0.175-0.031c0.194,0,0.379,0.114,0.459,0.303
			l3.637,8.49c0.059,0.139,0.053,0.296-0.016,0.429c-0.07,0.133-0.195,0.228-0.342,0.258l-7.895,1.627
			C10.488,18.304,10.454,18.307,10.42,18.307z"/>
		<path d="M14.679,7.689l3.636,8.491l-7.894,1.627l-2.679-7.526L14.679,7.689 M13.412,19.406l38.846,4.247l-2.104,15.155
			L15.9,38.773L13.412,19.406 M42.499,40.538c3.222,0,5.835,2.637,5.835,5.886c0,3.251-2.613,5.886-5.835,5.886
			c-3.224,0-5.837-2.635-5.837-5.886C36.661,43.175,39.275,40.538,42.499,40.538 M21.067,40.538c3.222,0,5.835,2.637,5.835,5.886
			c0,3.251-2.613,5.886-5.835,5.886c-3.224,0-5.837-2.635-5.837-5.886C15.23,43.175,17.843,40.538,21.067,40.538 M14.679,6.689
			c-0.116,0-0.235,0.02-0.35,0.063L7.392,9.344C6.881,9.535,6.617,10.102,6.8,10.616l2.679,7.526
			c0.144,0.405,0.526,0.665,0.942,0.665c0.067,0,0.135-0.007,0.202-0.021l7.895-1.627c0.294-0.061,0.545-0.25,0.685-0.516
			c0.139-0.266,0.151-0.581,0.033-0.857l-3.636-8.491C15.436,6.918,15.068,6.689,14.679,6.689L14.679,6.689z M13.412,18.406
			c-0.267,0-0.525,0.107-0.714,0.3c-0.215,0.219-0.317,0.524-0.278,0.828l2.488,19.367c0.064,0.499,0.488,0.872,0.991,0.873
			l3.38,0.003c-2.906,0.794-5.049,3.473-5.049,6.648c0,3.797,3.067,6.886,6.837,6.886c3.769,0,6.835-3.089,6.835-6.886
			c0-3.17-2.137-5.846-5.035-6.644l17.767,0.018c-2.867,0.819-4.973,3.48-4.973,6.626c0,3.797,3.067,6.886,6.837,6.886
			c3.769,0,6.835-3.089,6.835-6.886c0-3.142-2.099-5.798-4.958-6.622l5.776,0.006c0,0,0.001,0,0.001,0
			c0.499,0,0.922-0.368,0.99-0.862l2.104-15.155c0.037-0.268-0.036-0.539-0.202-0.752c-0.166-0.213-0.411-0.35-0.68-0.379
			l-38.846-4.247C13.485,18.408,13.448,18.406,13.412,18.406L13.412,18.406z"/>
	</g>
</g>
<g id="hwy">
	<g id="h">
		<path fill="#FFFFFF" d="M42.499,52.811c-3.494,0-6.337-2.865-6.337-6.387s2.843-6.386,6.337-6.386
			c3.493,0,6.335,2.864,6.335,6.386S45.992,52.811,42.499,52.811z M21.067,52.811c-3.495,0-6.337-2.865-6.337-6.387
			s2.843-6.386,6.337-6.386c3.493,0,6.335,2.864,6.335,6.386S24.56,52.811,21.067,52.811z M15.46,39.273L12.835,18.84l39.988,4.372
			l-2.235,16.096L15.46,39.273z M7.106,9.985l7.845-2.932l4.065,9.492l-8.92,1.838L7.106,9.985z"/>
		<path d="M14.679,7.689l3.636,8.491l-7.894,1.627l-2.679-7.526L14.679,7.689 M13.412,19.406l38.846,4.247l-2.104,15.155
			L15.9,38.773L13.412,19.406 M42.499,40.538c3.222,0,5.835,2.637,5.835,5.886c0,3.251-2.613,5.886-5.835,5.886
			c-3.224,0-5.837-2.635-5.837-5.886C36.661,43.175,39.275,40.538,42.499,40.538 M21.067,40.538c3.222,0,5.835,2.637,5.835,5.886
			c0,3.251-2.613,5.886-5.835,5.886c-3.224,0-5.837-2.635-5.837-5.886C15.23,43.175,17.843,40.538,21.067,40.538 M15.223,6.419
			l-0.894,0.334L7.392,9.344L6.47,9.689l0.33,0.928l2.679,7.526l0.292,0.82l0.852-0.176l1.658-0.342l0.14,1.089l2.488,19.367
			l0.112,0.872l0.879,0.001l3.38,0.003c-2.906,0.794-5.049,3.473-5.049,6.648c0,3.797,3.067,6.886,6.837,6.886
			c3.769,0,6.835-3.089,6.835-6.886c0-3.17-2.137-5.846-5.035-6.644l17.767,0.018c-2.867,0.819-4.973,3.48-4.973,6.626
			c0,3.797,3.067,6.886,6.837,6.886c3.769,0,6.835-3.089,6.835-6.886c0-3.142-2.099-5.798-4.958-6.622l5.776,0.006l0.872,0.001
			l0.12-0.863l2.104-15.155l0.142-1.02l-1.023-0.112l-38.846-4.247l-0.707-0.077l5.703-1.175l1.2-0.247l-0.482-1.126l-3.636-8.491
			L15.223,6.419L15.223,6.419z"/>
	</g>
</g>
<g id="group">
	<path id="g" fill-rule="evenodd" clip-rule="evenodd" fill="#FFFFFF" d="M7.742,10.281l6.937-2.592l3.636,8.491l-7.895,1.627
		L7.742,10.281L7.742,10.281z M50.153,38.808L15.9,38.773l-2.488-19.367l38.846,4.247L50.153,38.808L50.153,38.808z M21.067,40.538
		c3.222,0,5.835,2.637,5.835,5.886c0,3.251-2.613,5.886-5.835,5.886c-3.224,0-5.837-2.635-5.837-5.886
		C15.23,43.175,17.843,40.538,21.067,40.538L21.067,40.538z M42.499,40.538c3.222,0,5.835,2.637,5.835,5.886
		c0,3.251-2.613,5.886-5.835,5.886c-3.224,0-5.837-2.635-5.837-5.886C36.661,43.175,39.275,40.538,42.499,40.538L42.499,40.538z"/>
</g>
<g id="disabled">
	<path id="d" fill="#FFFFFF" d="M7.742,10.281l6.937-2.592l3.636,8.491l-7.895,1.627L7.742,10.281L7.742,10.281z M50.153,38.808
		L15.9,38.773l-2.488-19.367l38.846,4.247L50.153,38.808L50.153,38.808z M21.067,40.538c3.222,0,5.835,2.637,5.835,5.886
		c0,3.251-2.613,5.886-5.835,5.886c-3.224,0-5.837-2.635-5.837-5.886C15.23,43.175,17.843,40.538,21.067,40.538L21.067,40.538z
		 M42.499,40.538c3.222,0,5.835,2.637,5.835,5.886c0,3.251-2.613,5.886-5.835,5.886c-3.224,0-5.837-2.635-5.837-5.886
		C36.661,43.175,39.275,40.538,42.499,40.538L42.499,40.538z"/>
</g>
<g id="normal">
	<path id="n" fill="#FFFFFF" d="M7.742,10.281l6.937-2.592l3.636,8.491l-7.895,1.627L7.742,10.281L7.742,10.281z M50.153,38.808
		L15.9,38.773l-2.488-19.367l38.846,4.247L50.153,38.808L50.153,38.808z M21.067,40.538c3.222,0,5.835,2.637,5.835,5.886
		c0,3.251-2.613,5.886-5.835,5.886c-3.224,0-5.837-2.635-5.837-5.886C15.23,43.175,17.843,40.538,21.067,40.538L21.067,40.538z
		 M42.499,40.538c3.222,0,5.835,2.637,5.835,5.886c0,3.251-2.613,5.886-5.835,5.886c-3.224,0-5.837-2.635-5.837-5.886
		C36.661,43.175,39.275,40.538,42.499,40.538L42.499,40.538z"/>
</g>
</svg>
