<?xml version="1.0" encoding="utf-8"?>
<!-- Generator: Adobe Illustrator 17.0.1, SVG Export Plug-In . SVG Version: 6.00 Build 0)  -->
<!DOCTYPE svg PUBLIC "-//W3C//DTD SVG 1.1//EN" "http://www.w3.org/Graphics/SVG/1.1/DTD/svg11.dtd">
<svg version="1.1" xmlns="http://www.w3.org/2000/svg" xmlns:xlink="http://www.w3.org/1999/xlink" x="0px" y="0px" width="60px"
	 height="60px" viewBox="0 0 60 60" enable-background="new 0 0 60 60" xml:space="preserve">
<g id="hwy_disabled">
	<g id="hd">
		<path fill="#313131" d="M28.494,57.421c-0.276,0-0.5-0.224-0.5-0.5v-5.223c-2.448-0.229-6.367-0.691-8.272-1.415
			c-1.871-0.711-3.509-1.711-4.87-2.972c-1.356-1.253-2.419-2.63-3.16-4.092c-0.733-1.45-1.29-3.22-1.654-5.261
			c-0.024-0.136,0.009-0.275,0.091-0.386c0.082-0.111,0.207-0.183,0.343-0.199l12.036-1.41c0.02-0.002,0.039-0.003,0.059-0.003
			c0.239,0,0.448,0.171,0.492,0.411c0.344,1.905,0.803,3.285,1.364,4.102c0.349,0.508,1.747,1.089,2.871,1.557
			c0.241,0.1,0.477,0.198,0.702,0.295v-9.461c-1.093-0.303-2.204-0.594-3.272-0.874c-2.821-0.74-5.257-1.379-6.473-1.975
			c-1.75-0.857-3.284-2.244-4.558-4.123c-1.283-1.887-1.934-4.212-1.934-6.91c0-3.693,1.299-6.823,3.861-9.303
			c2.669-2.588,8.051-3.802,12.375-4.096V3.079c0-0.276,0.224-0.5,0.5-0.5h2.86c0.276,0,0.5,0.224,0.5,0.5v2.51
			c4.307,0.33,7.673,1.426,10.012,3.258c2.437,1.906,4.046,4.549,4.782,7.856c0.03,0.134,0.003,0.275-0.074,0.39
			c-0.077,0.113-0.199,0.19-0.334,0.213l-11.083,1.771c-0.027,0.004-0.053,0.006-0.08,0.006c-0.203,0-0.389-0.124-0.465-0.318
			c-0.533-1.362-1.013-2.313-1.427-2.826c-0.292-0.36-0.738-0.731-1.331-1.109v7.437c5.962,1.629,9.866,3.315,11.928,5.152
			c2.781,2.514,4.189,5.744,4.189,9.603c0,2.256-0.505,4.357-1.502,6.247c-0.991,1.876-2.277,3.466-3.821,4.725
			c-1.543,1.257-3.206,2.182-4.941,2.75c-1.616,0.524-3.583,0.853-5.853,0.977v5.202c0,0.276-0.224,0.5-0.5,0.5H28.494z
			 M31.854,42.759c1.27-0.361,2.222-0.89,2.837-1.575c0.706-0.786,1.048-1.639,1.048-2.605c0-0.831-0.288-1.579-0.878-2.288
			c-0.526-0.628-1.537-1.237-3.007-1.813V42.759z M27.502,14.629c-0.93,0.269-2.487,0.719-2.758,1.059
			c-0.428,0.539-0.636,1.159-0.636,1.894c0,0.779,0.213,1.435,0.651,2.002c0.279,0.364,1.827,0.834,2.752,1.114
			c0.166,0.051,0.327,0.1,0.482,0.147v-6.359C27.835,14.532,27.67,14.58,27.502,14.629z"/>
		<path d="M31.354,3.079v2.975c4.448,0.281,7.85,1.342,10.203,3.186c2.355,1.842,3.889,4.366,4.603,7.571l-11.082,1.772
			c-0.556-1.421-1.058-2.407-1.504-2.959c-0.448-0.55-1.187-1.106-2.22-1.667v8.692c6.037,1.624,10.07,3.339,12.095,5.143
			c2.682,2.425,4.022,5.502,4.022,9.23c0,2.186-0.482,4.189-1.444,6.013c-0.964,1.826-2.195,3.348-3.695,4.571
			c-1.5,1.221-3.094,2.11-4.781,2.662c-1.689,0.549-3.754,0.874-6.197,0.975v5.679h-2.86v-5.679
			c-2.919-0.261-6.778-0.736-8.595-1.426c-1.817-0.691-3.387-1.648-4.707-2.871c-1.32-1.22-2.338-2.538-3.054-3.95
			c-0.714-1.412-1.25-3.119-1.608-5.123l12.036-1.41c0.358,1.982,0.838,3.414,1.444,4.296c0.606,0.881,3.094,1.664,4.484,2.344
			V32.484c-4.011-1.124-8.346-2.096-10.025-2.918c-1.678-0.822-3.134-2.141-4.364-3.954c-1.232-1.813-1.847-4.024-1.847-6.63
			c0-3.567,1.236-6.549,3.709-8.944c2.472-2.396,7.641-3.724,12.527-3.984V3.079H31.354 M28.494,21.533v-7.726
			c-1.272,0.423-3.644,0.946-4.141,1.569c-0.496,0.626-0.745,1.36-0.745,2.205c0,0.885,0.252,1.655,0.755,2.308
			C24.867,20.546,27.236,21.092,28.494,21.533 M31.354,43.401c1.687-0.381,2.925-1.009,3.709-1.883
			c0.784-0.874,1.176-1.855,1.176-2.939c0-0.944-0.331-1.813-0.995-2.608c-0.664-0.793-1.961-1.531-3.891-2.212V43.401
			 M31.354,2.079h-2.86c-0.552,0-1,0.448-1,1v2.039c-5.397,0.425-9.921,1.971-12.223,4.202c-2.663,2.577-4.013,5.828-4.013,9.662
			c0,2.8,0.68,5.22,2.02,7.192c1.323,1.95,2.922,3.394,4.751,4.29c1.26,0.617,3.716,1.261,6.56,2.007
			c0.948,0.249,1.93,0.506,2.904,0.773v8.327c-0.004-0.002-0.007-0.003-0.011-0.005c-0.833-0.347-2.384-0.992-2.65-1.378
			c-0.521-0.757-0.953-2.072-1.284-3.907c-0.087-0.481-0.506-0.822-0.983-0.822c-0.039,0-0.078,0.002-0.117,0.007l-12.036,1.41
			c-0.274,0.032-0.522,0.176-0.686,0.397s-0.23,0.501-0.182,0.772c0.373,2.089,0.945,3.906,1.7,5.398
			c0.769,1.516,1.868,2.94,3.268,4.233c1.407,1.303,3.1,2.337,5.031,3.071c1.841,0.7,5.465,1.157,7.95,1.402v4.768
			c0,0.552,0.448,1,1,1h2.86c0.552,0,1-0.448,1-1v-4.732c2.116-0.144,3.964-0.47,5.506-0.971c1.796-0.588,3.513-1.542,5.104-2.838
			c1.598-1.303,2.926-2.944,3.948-4.879c1.035-1.962,1.56-4.142,1.56-6.48c0-4.006-1.464-7.361-4.351-9.971
			c-2.081-1.854-5.933-3.545-11.766-5.164V15.81c0.178,0.151,0.326,0.3,0.444,0.445c0.26,0.322,0.707,1.052,1.348,2.692
			c0.152,0.388,0.525,0.636,0.931,0.636c0.052,0,0.105-0.004,0.158-0.013l11.082-1.772c0.272-0.044,0.515-0.198,0.669-0.426
			c0.155-0.228,0.209-0.51,0.149-0.779c-0.762-3.422-2.432-6.161-4.963-8.141c-2.331-1.827-5.631-2.943-9.819-3.324V3.079
			C32.354,2.527,31.906,2.079,31.354,2.079L31.354,2.079z M27.494,20.169c-0.801-0.244-2.083-0.645-2.354-0.91
			c-0.352-0.459-0.531-1.014-0.531-1.679c0-0.618,0.173-1.136,0.528-1.584c0.256-0.229,1.554-0.613,2.357-0.846V20.169
			L27.494,20.169z M32.354,42.072v-6.844c1.241,0.555,1.838,1.042,2.124,1.384c0.512,0.614,0.762,1.257,0.762,1.967
			c0,0.838-0.301,1.581-0.921,2.271C33.872,41.348,33.213,41.757,32.354,42.072L32.354,42.072z"/>
	</g>
</g>
<g id="hwy">
	<g id="h_1_">
		<path fill="#FFFFFF" d="M28.494,57.421c-0.276,0-0.5-0.224-0.5-0.5v-5.223c-2.448-0.229-6.367-0.691-8.272-1.415
			c-1.871-0.711-3.509-1.711-4.87-2.972c-1.356-1.253-2.419-2.63-3.16-4.092c-0.733-1.45-1.29-3.22-1.654-5.261
			c-0.024-0.136,0.009-0.275,0.091-0.386c0.082-0.111,0.207-0.183,0.343-0.199l12.036-1.41c0.02-0.002,0.039-0.003,0.059-0.003
			c0.239,0,0.448,0.171,0.492,0.411c0.344,1.905,0.803,3.285,1.364,4.102c0.349,0.508,1.747,1.089,2.871,1.557
			c0.241,0.1,0.477,0.198,0.702,0.295v-9.461c-1.093-0.303-2.204-0.594-3.272-0.874c-2.821-0.74-5.257-1.379-6.473-1.975
			c-1.75-0.857-3.284-2.244-4.558-4.123c-1.283-1.887-1.934-4.212-1.934-6.91c0-3.693,1.299-6.823,3.861-9.303
			c2.669-2.588,8.051-3.802,12.375-4.096V3.079c0-0.276,0.224-0.5,0.5-0.5h2.86c0.276,0,0.5,0.224,0.5,0.5v2.51
			c4.307,0.33,7.673,1.426,10.012,3.258c2.437,1.906,4.046,4.549,4.782,7.856c0.03,0.134,0.003,0.275-0.074,0.39
			c-0.077,0.113-0.199,0.19-0.334,0.213l-11.083,1.771c-0.027,0.004-0.053,0.006-0.08,0.006c-0.203,0-0.389-0.124-0.465-0.318
			c-0.533-1.362-1.013-2.313-1.427-2.826c-0.292-0.36-0.738-0.731-1.331-1.109v7.437c5.962,1.629,9.866,3.315,11.928,5.152
			c2.781,2.514,4.189,5.744,4.189,9.603c0,2.256-0.505,4.357-1.502,6.247c-0.991,1.876-2.277,3.466-3.821,4.725
			c-1.543,1.257-3.206,2.182-4.941,2.75c-1.616,0.524-3.583,0.853-5.853,0.977v5.202c0,0.276-0.224,0.5-0.5,0.5H28.494z
			 M31.854,42.759c1.27-0.361,2.222-0.89,2.837-1.575c0.706-0.786,1.048-1.639,1.048-2.605c0-0.831-0.288-1.579-0.878-2.288
			c-0.526-0.628-1.537-1.237-3.007-1.813V42.759z M27.502,14.629c-0.93,0.269-2.487,0.719-2.758,1.059
			c-0.428,0.539-0.636,1.159-0.636,1.894c0,0.779,0.213,1.435,0.651,2.002c0.279,0.364,1.827,0.834,2.752,1.114
			c0.166,0.051,0.327,0.1,0.482,0.147v-6.359C27.835,14.532,27.67,14.58,27.502,14.629z"/>
		<path d="M31.354,3.079v2.975c4.448,0.281,7.85,1.342,10.203,3.186c2.355,1.842,3.889,4.366,4.603,7.571l-11.082,1.772
			c-0.556-1.421-1.058-2.407-1.504-2.959c-0.448-0.55-1.187-1.106-2.22-1.667v8.692c6.037,1.624,10.07,3.339,12.095,5.143
			c2.682,2.425,4.022,5.502,4.022,9.23c0,2.186-0.482,4.189-1.444,6.013c-0.964,1.826-2.195,3.348-3.695,4.571
			c-1.5,1.221-3.094,2.11-4.781,2.662c-1.689,0.549-3.754,0.874-6.197,0.975v5.679h-2.86v-5.679
			c-2.919-0.261-6.778-0.736-8.595-1.426c-1.817-0.691-3.387-1.648-4.707-2.871c-1.32-1.22-2.338-2.538-3.054-3.95
			c-0.714-1.412-1.25-3.119-1.608-5.123l12.036-1.41c0.358,1.982,0.838,3.414,1.444,4.296c0.606,0.881,3.094,1.664,4.484,2.344
			V32.484c-4.011-1.124-8.346-2.096-10.025-2.918c-1.678-0.822-3.134-2.141-4.364-3.954c-1.232-1.813-1.847-4.024-1.847-6.63
			c0-3.567,1.236-6.549,3.709-8.944c2.472-2.396,7.641-3.724,12.527-3.984V3.079H31.354 M28.494,21.533v-7.726
			c-1.272,0.423-3.644,0.946-4.141,1.569c-0.496,0.626-0.745,1.36-0.745,2.205c0,0.885,0.252,1.655,0.755,2.308
			C24.867,20.546,27.236,21.092,28.494,21.533 M31.354,43.401c1.687-0.381,2.925-1.009,3.709-1.883
			c0.784-0.874,1.176-1.855,1.176-2.939c0-0.944-0.331-1.813-0.995-2.608c-0.664-0.793-1.961-1.531-3.891-2.212V43.401
			 M31.354,2.079h-2.86c-0.552,0-1,0.448-1,1v2.039c-5.397,0.425-9.921,1.971-12.223,4.202c-2.663,2.577-4.013,5.828-4.013,9.662
			c0,2.8,0.68,5.22,2.02,7.192c1.323,1.95,2.922,3.394,4.751,4.29c1.26,0.617,3.716,1.261,6.56,2.007
			c0.948,0.249,1.93,0.506,2.904,0.773v8.327c-0.004-0.002-0.007-0.003-0.011-0.005c-0.833-0.347-2.384-0.992-2.65-1.378
			c-0.521-0.757-0.953-2.072-1.284-3.907c-0.087-0.481-0.506-0.822-0.983-0.822c-0.039,0-0.078,0.002-0.117,0.007l-12.036,1.41
			c-0.274,0.032-0.522,0.176-0.686,0.397s-0.23,0.501-0.182,0.772c0.373,2.089,0.945,3.906,1.7,5.398
			c0.769,1.516,1.868,2.94,3.268,4.233c1.407,1.303,3.1,2.337,5.031,3.071c1.841,0.7,5.465,1.157,7.95,1.402v4.768
			c0,0.552,0.448,1,1,1h2.86c0.552,0,1-0.448,1-1v-4.732c2.116-0.144,3.964-0.47,5.506-0.971c1.796-0.588,3.513-1.542,5.104-2.838
			c1.598-1.303,2.926-2.944,3.948-4.879c1.035-1.962,1.56-4.142,1.56-6.48c0-4.006-1.464-7.361-4.351-9.971
			c-2.081-1.854-5.933-3.545-11.766-5.164V15.81c0.178,0.151,0.326,0.3,0.444,0.445c0.26,0.322,0.707,1.052,1.348,2.692
			c0.152,0.388,0.525,0.636,0.931,0.636c0.052,0,0.105-0.004,0.158-0.013l11.082-1.772c0.272-0.044,0.515-0.198,0.669-0.426
			c0.155-0.228,0.209-0.51,0.149-0.779c-0.762-3.422-2.432-6.161-4.963-8.141c-2.331-1.827-5.631-2.943-9.819-3.324V3.079
			C32.354,2.527,31.906,2.079,31.354,2.079L31.354,2.079z M27.494,20.169c-0.801-0.244-2.083-0.645-2.354-0.91
			c-0.352-0.459-0.531-1.014-0.531-1.679c0-0.618,0.173-1.136,0.528-1.584c0.256-0.229,1.554-0.613,2.357-0.846V20.169
			L27.494,20.169z M32.354,42.072v-6.844c1.241,0.555,1.838,1.042,2.124,1.384c0.512,0.614,0.762,1.257,0.762,1.967
			c0,0.838-0.301,1.581-0.921,2.271C33.872,41.348,33.213,41.757,32.354,42.072L32.354,42.072z"/>
	</g>
</g>
<g id="group">
	<path id="g" fill="#FFFFFF" d="M41.556,9.24c-2.353-1.844-5.754-2.905-10.203-3.186V3.079h-2.86v2.975
		c-4.886,0.261-10.055,1.588-12.527,3.984c-2.473,2.394-3.709,5.377-3.709,8.944c0,2.606,0.615,4.817,1.847,6.63
		c1.23,1.813,2.686,3.132,4.364,3.954c1.678,0.822,6.013,1.793,10.025,2.918v10.616c-1.39-0.68-3.878-1.462-4.484-2.344
		c-0.606-0.881-1.086-2.313-1.444-4.296l-12.036,1.41c0.358,2.004,0.894,3.711,1.608,5.123c0.716,1.412,1.734,2.731,3.054,3.95
		c1.32,1.223,2.891,2.18,4.707,2.871c1.817,0.691,5.675,1.166,8.595,1.426v5.679h2.86v-5.679c2.443-0.101,4.508-0.426,6.197-0.975
		c1.687-0.552,3.281-1.441,4.781-2.662c1.5-1.223,2.731-2.745,3.695-4.571c0.962-1.824,1.444-3.828,1.444-6.013
		c0-3.727-1.34-6.805-4.022-9.23c-2.025-1.804-6.058-3.518-12.095-5.143v-8.692c1.032,0.561,1.772,1.117,2.22,1.667
		c0.446,0.552,0.948,1.538,1.504,2.959l11.082-1.772C45.445,13.606,43.911,11.082,41.556,9.24L41.556,9.24z M28.494,21.533
		c-1.257-0.441-3.626-0.988-4.13-1.644c-0.504-0.653-0.755-1.423-0.755-2.308c0-0.845,0.248-1.579,0.745-2.205
		c0.496-0.622,2.869-1.146,4.141-1.569V21.533L28.494,21.533z M31.354,33.758c1.93,0.682,3.227,1.419,3.891,2.212
		c0.664,0.795,0.995,1.664,0.995,2.608c0,1.085-0.392,2.065-1.176,2.939c-0.784,0.874-2.022,1.502-3.709,1.883V33.758L31.354,33.758
		z"/>
</g>
<g id="disabled">
	<path id="d_1_" fill="#FFFFFF" d="M41.556,9.24c-2.353-1.844-5.754-2.905-10.203-3.186V3.079h-2.86v2.975
		c-4.886,0.261-10.055,1.588-12.527,3.984c-2.473,2.394-3.709,5.377-3.709,8.944c0,2.606,0.615,4.817,1.847,6.63
		c1.23,1.813,2.686,3.132,4.364,3.954c1.678,0.822,6.013,1.793,10.025,2.918v10.616c-1.39-0.68-3.878-1.462-4.484-2.344
		c-0.606-0.881-1.086-2.313-1.444-4.296l-12.036,1.41c0.358,2.004,0.894,3.711,1.608,5.123c0.716,1.412,1.734,2.731,3.054,3.95
		c1.32,1.223,2.891,2.18,4.707,2.871c1.817,0.691,5.675,1.166,8.595,1.426v5.679h2.86v-5.679c2.443-0.101,4.508-0.426,6.197-0.975
		c1.687-0.552,3.281-1.441,4.781-2.662c1.5-1.223,2.731-2.745,3.695-4.571c0.962-1.824,1.444-3.828,1.444-6.013
		c0-3.727-1.34-6.805-4.022-9.23c-2.025-1.804-6.058-3.518-12.095-5.143v-8.692c1.032,0.561,1.772,1.117,2.22,1.667
		c0.446,0.552,0.948,1.538,1.504,2.959l11.082-1.772C45.445,13.606,43.911,11.082,41.556,9.24L41.556,9.24z M28.494,21.533
		c-1.257-0.441-3.626-0.988-4.13-1.644c-0.504-0.653-0.755-1.423-0.755-2.308c0-0.845,0.248-1.579,0.745-2.205
		c0.496-0.622,2.869-1.146,4.141-1.569V21.533L28.494,21.533z M31.354,33.758c1.93,0.682,3.227,1.419,3.891,2.212
		c0.664,0.795,0.995,1.664,0.995,2.608c0,1.085-0.392,2.065-1.176,2.939c-0.784,0.874-2.022,1.502-3.709,1.883V33.758L31.354,33.758
		z"/>
</g>
<g id="normal">
	<path id="n" fill="#FFFFFF" d="M41.556,9.24c-2.353-1.844-5.754-2.905-10.203-3.186V3.079h-2.86v2.975
		c-4.886,0.261-10.055,1.588-12.527,3.984c-2.473,2.394-3.709,5.377-3.709,8.944c0,2.606,0.615,4.817,1.847,6.63
		c1.23,1.813,2.686,3.132,4.364,3.954c1.678,0.822,6.013,1.793,10.025,2.918v10.616c-1.39-0.68-3.878-1.462-4.484-2.344
		c-0.606-0.881-1.086-2.313-1.444-4.296l-12.036,1.41c0.358,2.004,0.894,3.711,1.608,5.123c0.716,1.412,1.734,2.731,3.054,3.95
		c1.32,1.223,2.891,2.18,4.707,2.871c1.817,0.691,5.675,1.166,8.595,1.426v5.679h2.86v-5.679c2.443-0.101,4.508-0.426,6.197-0.975
		c1.687-0.552,3.281-1.441,4.781-2.662c1.5-1.223,2.731-2.745,3.695-4.571c0.962-1.824,1.444-3.828,1.444-6.013
		c0-3.727-1.34-6.805-4.022-9.23c-2.025-1.804-6.058-3.518-12.095-5.143v-8.692c1.032,0.561,1.772,1.117,2.22,1.667
		c0.446,0.552,0.948,1.538,1.504,2.959l11.082-1.772C45.445,13.606,43.911,11.082,41.556,9.24L41.556,9.24z M28.494,21.533
		c-1.257-0.441-3.626-0.988-4.13-1.644c-0.504-0.653-0.755-1.423-0.755-2.308c0-0.845,0.248-1.579,0.745-2.205
		c0.496-0.622,2.869-1.146,4.141-1.569V21.533L28.494,21.533z M31.354,33.758c1.93,0.682,3.227,1.419,3.891,2.212
		c0.664,0.795,0.995,1.664,0.995,2.608c0,1.085-0.392,2.065-1.176,2.939c-0.784,0.874-2.022,1.502-3.709,1.883V33.758L31.354,33.758
		z"/>
</g>
</svg>
