<?xml version="1.0" encoding="utf-8"?>
<!-- Generator: Adobe Illustrator 17.0.1, SVG Export Plug-In . SVG Version: 6.00 Build 0)  -->
<!DOCTYPE svg PUBLIC "-//W3C//DTD SVG 1.1//EN" "http://www.w3.org/Graphics/SVG/1.1/DTD/svg11.dtd">
<svg version="1.1" xmlns="http://www.w3.org/2000/svg" xmlns:xlink="http://www.w3.org/1999/xlink" x="0px" y="0px" width="60px"
	 height="60px" viewBox="0 0 60 60" enable-background="new 0 0 60 60" xml:space="preserve">
<g id="hwy_disabled">
	<g id="hd">
		<path fill="#313131" d="M17.781,56.984c-0.078,0-0.155-0.018-0.225-0.054l-5.126-2.587c-0.245-0.123-0.344-0.42-0.224-0.666
			l4.955-10.117c0.059-0.12,0.163-0.212,0.29-0.254c0.052-0.018,0.105-0.026,0.159-0.026c0.078,0,0.155,0.018,0.225,0.054
			l5.128,2.586c0.245,0.123,0.344,0.42,0.224,0.666L18.23,56.704c-0.059,0.12-0.164,0.212-0.29,0.254
			C17.888,56.976,17.834,56.984,17.781,56.984z M42.217,56.984c-0.053,0-0.106-0.009-0.157-0.025c-0.126-0.042-0.23-0.132-0.29-0.25
			l-5.077-10.118c-0.124-0.247-0.024-0.547,0.222-0.671l5.126-2.586c0.07-0.036,0.147-0.054,0.225-0.054
			c0.053,0,0.106,0.009,0.157,0.025c0.126,0.042,0.23,0.132,0.29,0.25l5.079,10.117c0.124,0.247,0.024,0.547-0.222,0.671
			l-5.128,2.587C42.372,56.967,42.295,56.984,42.217,56.984z M30.091,46.897c-5.768,0-9.245-2.91-10.004-3.616
			c-3.342-0.11-6.027-2.885-6.027-6.279V13.139c0-3.464,2.796-6.282,6.233-6.282h5.3c0.101-2.445,1.64-3.841,4.258-3.841
			c2.532,0,3.856,1.292,3.939,3.841h6.283c3.437,0,6.232,2.818,6.232,6.282v23.863c0,3.334-2.845,6.161-6.262,6.278
			C39.313,44.024,36.1,46.897,30.091,46.897z M38.389,31.238c-2.096,0-3.738,1.686-3.738,3.837s1.642,3.837,3.738,3.837
			c2.096,0,3.801-1.722,3.801-3.837S40.485,31.238,38.389,31.238z M21.248,31.238c-2.096,0-3.8,1.722-3.8,3.837
			s1.705,3.837,3.8,3.837c2.129,0,3.861-1.722,3.861-3.837S23.377,31.238,21.248,31.238z M39.419,22.478v-8.764H20.96v8.764H39.419z
			"/>
		<path d="M29.851,3.516c2.376,0,3.443,1.205,3.443,3.601c0,0.082-0.011,0.159-0.015,0.24h6.793c3.165,0,5.733,2.59,5.733,5.782
			v23.863c0,3.194-2.817,5.782-5.982,5.782c0,0-3.128,3.614-9.733,3.614c-6.288,0-9.799-3.614-9.799-3.614
			c-3.165,0-5.733-2.588-5.733-5.782V13.139c0-3.192,2.568-5.782,5.733-5.782h5.812c-0.002-0.081-0.017-0.157-0.017-0.24
			C26.087,4.721,27.477,3.516,29.851,3.516 M20.46,22.978h19.458v-9.764H20.46V22.978 M38.389,39.412c2.376,0,4.3-1.941,4.3-4.337
			c0-2.396-1.925-4.337-4.3-4.337c-2.374,0-4.238,1.941-4.238,4.337C34.151,37.471,36.016,39.412,38.389,39.412 M21.248,39.412
			c2.375,0,4.361-1.941,4.361-4.337c0-2.396-1.985-4.337-4.361-4.337c-2.376,0-4.3,1.941-4.3,4.337
			C16.948,37.471,18.872,39.412,21.248,39.412 M42.267,43.78l5.079,10.117l-5.128,2.586L37.14,46.367L42.267,43.78 M17.609,43.78
			l5.128,2.586l-4.956,10.117l-5.126-2.586L17.609,43.78 M29.851,2.516c-2.71,0-4.428,1.42-4.72,3.841h-4.839
			c-3.712,0-6.733,3.042-6.733,6.782v23.863c0,2.559,1.414,4.791,3.496,5.946c-0.146,0.097-0.266,0.232-0.344,0.393l-4.954,10.117
			c-0.241,0.492-0.041,1.086,0.448,1.333l5.126,2.586c0.141,0.071,0.295,0.107,0.45,0.107c0.107,0,0.215-0.017,0.318-0.052
			c0.253-0.085,0.462-0.268,0.58-0.508l4.956-10.117c0.108-0.22,0.127-0.461,0.072-0.681c1.662,0.704,3.802,1.273,6.383,1.273
			c2.46,0,4.471-0.472,6.051-1.089c-0.01,0.17,0.023,0.344,0.105,0.507l5.077,10.117c0.119,0.237,0.328,0.418,0.58,0.501
			c0.102,0.034,0.208,0.051,0.314,0.051c0.155,0,0.309-0.036,0.45-0.107l5.128-2.586c0.492-0.248,0.691-0.849,0.443-1.342
			L43.16,43.332c-0.055-0.11-0.129-0.207-0.218-0.288c2.269-1.135,3.863-3.446,3.863-6.041V13.139c0-3.74-3.02-6.782-6.733-6.782
			h-5.814C33.955,3.206,31.735,2.516,29.851,2.516L29.851,2.516z M21.46,14.214h17.458v7.764H21.46V14.214L21.46,14.214z
			 M38.389,38.412c-1.816,0-3.238-1.466-3.238-3.337s1.422-3.337,3.238-3.337c1.82,0,3.3,1.497,3.3,3.337
			S40.209,38.412,38.389,38.412L38.389,38.412z M21.248,38.412c-1.82,0-3.3-1.497-3.3-3.337s1.481-3.337,3.3-3.337
			c1.853,0,3.361,1.497,3.361,3.337S23.101,38.412,21.248,38.412L21.248,38.412z"/>
	</g>
</g>
<g id="hwy">
	<g id="h">
		<path fill="#FFFFFF" d="M17.781,56.984c-0.078,0-0.155-0.018-0.225-0.054l-5.126-2.587c-0.245-0.123-0.344-0.42-0.224-0.666
			l4.955-10.117c0.059-0.12,0.163-0.212,0.29-0.254c0.052-0.018,0.105-0.026,0.159-0.026c0.078,0,0.155,0.018,0.225,0.054
			l5.128,2.586c0.245,0.123,0.344,0.42,0.224,0.666L18.23,56.704c-0.059,0.12-0.164,0.212-0.29,0.254
			C17.888,56.976,17.834,56.984,17.781,56.984z M42.217,56.984c-0.053,0-0.106-0.009-0.157-0.025c-0.126-0.042-0.23-0.132-0.29-0.25
			l-5.077-10.118c-0.124-0.247-0.024-0.547,0.222-0.671l5.126-2.586c0.07-0.036,0.147-0.054,0.225-0.054
			c0.053,0,0.106,0.009,0.157,0.025c0.126,0.042,0.23,0.132,0.29,0.25l5.079,10.117c0.124,0.247,0.024,0.547-0.222,0.671
			l-5.128,2.587C42.372,56.967,42.295,56.984,42.217,56.984z M30.091,46.897c-5.768,0-9.245-2.91-10.004-3.616
			c-3.342-0.11-6.027-2.885-6.027-6.279V13.139c0-3.464,2.796-6.282,6.233-6.282h5.3c0.101-2.445,1.64-3.841,4.258-3.841
			c2.532,0,3.856,1.292,3.939,3.841h6.283c3.437,0,6.232,2.818,6.232,6.282v23.863c0,3.334-2.845,6.161-6.262,6.278
			C39.313,44.024,36.1,46.897,30.091,46.897z M38.389,31.238c-2.096,0-3.738,1.686-3.738,3.837s1.642,3.837,3.738,3.837
			c2.096,0,3.801-1.722,3.801-3.837S40.485,31.238,38.389,31.238z M21.248,31.238c-2.096,0-3.8,1.722-3.8,3.837
			s1.705,3.837,3.8,3.837c2.129,0,3.861-1.722,3.861-3.837S23.377,31.238,21.248,31.238z M39.419,22.478v-8.764H20.96v8.764H39.419z
			"/>
		<path d="M29.851,3.516c2.376,0,3.443,1.205,3.443,3.601c0,0.082-0.011,0.159-0.015,0.24h6.793c3.165,0,5.733,2.59,5.733,5.782
			v23.863c0,3.194-2.817,5.782-5.982,5.782c0,0-3.128,3.614-9.733,3.614c-6.288,0-9.799-3.614-9.799-3.614
			c-3.165,0-5.733-2.588-5.733-5.782V13.139c0-3.192,2.568-5.782,5.733-5.782h5.812c-0.002-0.081-0.017-0.157-0.017-0.24
			C26.087,4.721,27.477,3.516,29.851,3.516 M20.46,22.978h19.458v-9.764H20.46V22.978 M38.389,39.412c2.376,0,4.3-1.941,4.3-4.337
			c0-2.396-1.925-4.337-4.3-4.337c-2.374,0-4.238,1.941-4.238,4.337C34.151,37.471,36.016,39.412,38.389,39.412 M21.248,39.412
			c2.375,0,4.361-1.941,4.361-4.337c0-2.396-1.985-4.337-4.361-4.337c-2.376,0-4.3,1.941-4.3,4.337
			C16.948,37.471,18.872,39.412,21.248,39.412 M42.267,43.78l5.079,10.117l-5.128,2.586L37.14,46.367L42.267,43.78 M17.609,43.78
			l5.128,2.586l-4.956,10.117l-5.126-2.586L17.609,43.78 M29.851,2.516c-2.71,0-4.428,1.42-4.72,3.841h-4.839
			c-3.712,0-6.733,3.042-6.733,6.782v23.863c0,2.559,1.414,4.791,3.496,5.946c-0.146,0.097-0.266,0.232-0.344,0.393l-4.954,10.117
			c-0.241,0.492-0.041,1.086,0.448,1.333l5.126,2.586c0.141,0.071,0.295,0.107,0.45,0.107c0.107,0,0.215-0.017,0.318-0.052
			c0.253-0.085,0.462-0.268,0.58-0.508l4.956-10.117c0.108-0.22,0.127-0.461,0.072-0.681c1.662,0.704,3.802,1.273,6.383,1.273
			c2.46,0,4.471-0.472,6.051-1.089c-0.01,0.17,0.023,0.344,0.105,0.507l5.077,10.117c0.119,0.237,0.328,0.418,0.58,0.501
			c0.102,0.034,0.208,0.051,0.314,0.051c0.155,0,0.309-0.036,0.45-0.107l5.128-2.586c0.492-0.248,0.691-0.849,0.443-1.342
			L43.16,43.332c-0.055-0.11-0.129-0.207-0.218-0.288c2.269-1.135,3.863-3.446,3.863-6.041V13.139c0-3.74-3.02-6.782-6.733-6.782
			h-5.814C33.955,3.206,31.735,2.516,29.851,2.516L29.851,2.516z M21.46,14.214h17.458v7.764H21.46V14.214L21.46,14.214z
			 M38.389,38.412c-1.816,0-3.238-1.466-3.238-3.337s1.422-3.337,3.238-3.337c1.82,0,3.3,1.497,3.3,3.337
			S40.209,38.412,38.389,38.412L38.389,38.412z M21.248,38.412c-1.82,0-3.3-1.497-3.3-3.337s1.481-3.337,3.3-3.337
			c1.853,0,3.361,1.497,3.361,3.337S23.101,38.412,21.248,38.412L21.248,38.412z"/>
	</g>
</g>
<g id="group">
	<path id="g" fill="#FFFFFF" d="M39.823,42.784c0,0-3.128,3.614-9.733,3.614c-6.288,0-9.799-3.614-9.799-3.614
		c-3.165,0-5.733-2.588-5.733-5.782V13.139c0-3.192,2.568-5.782,5.733-5.782h5.811c-0.002-0.081-0.016-0.157-0.016-0.24
		c0-2.396,1.39-3.601,3.764-3.601c2.376,0,3.443,1.205,3.443,3.601c0,0.082-0.011,0.159-0.015,0.24h6.793
		c3.165,0,5.733,2.59,5.733,5.782v23.863C45.805,40.196,42.988,42.784,39.823,42.784L39.823,42.784z M16.948,35.075
		c0,2.396,1.925,4.337,4.3,4.337c2.375,0,4.361-1.941,4.361-4.337c0-2.396-1.985-4.337-4.361-4.337
		C18.872,30.738,16.948,32.68,16.948,35.075L16.948,35.075z M39.919,13.214H20.46v9.764h19.458V13.214L39.919,13.214z
		 M38.389,30.738c-2.374,0-4.238,1.941-4.238,4.337c0,2.396,1.864,4.337,4.238,4.337c2.376,0,4.3-1.941,4.3-4.337
		C42.69,32.68,40.765,30.738,38.389,30.738L38.389,30.738z M22.737,46.367l-4.956,10.117l-5.126-2.586l4.954-10.117L22.737,46.367
		L22.737,46.367z M47.346,53.898l-5.128,2.586L37.14,46.367l5.127-2.586L47.346,53.898L47.346,53.898z"/>
</g>
<g id="disabled">
	<path id="d" fill="#FFFFFF" d="M39.823,42.784c0,0-3.128,3.614-9.733,3.614c-6.288,0-9.799-3.614-9.799-3.614
		c-3.165,0-5.733-2.588-5.733-5.782V13.139c0-3.192,2.568-5.782,5.733-5.782h5.811c-0.002-0.081-0.016-0.157-0.016-0.24
		c0-2.396,1.39-3.601,3.764-3.601c2.376,0,3.443,1.205,3.443,3.601c0,0.082-0.011,0.159-0.015,0.24h6.793
		c3.165,0,5.733,2.59,5.733,5.782v23.863C45.805,40.196,42.988,42.784,39.823,42.784L39.823,42.784z M16.948,35.075
		c0,2.396,1.925,4.337,4.3,4.337c2.375,0,4.361-1.941,4.361-4.337c0-2.396-1.985-4.337-4.361-4.337
		C18.872,30.738,16.948,32.68,16.948,35.075L16.948,35.075z M39.919,13.214H20.46v9.764h19.458V13.214L39.919,13.214z
		 M38.389,30.738c-2.374,0-4.238,1.941-4.238,4.337c0,2.396,1.864,4.337,4.238,4.337c2.376,0,4.3-1.941,4.3-4.337
		C42.69,32.68,40.765,30.738,38.389,30.738L38.389,30.738z M22.737,46.367l-4.956,10.117l-5.126-2.586l4.954-10.117L22.737,46.367
		L22.737,46.367z M47.346,53.898l-5.128,2.586L37.14,46.367l5.127-2.586L47.346,53.898L47.346,53.898z"/>
</g>
<g id="normal">
	<path id="n" fill="#FFFFFF" d="M39.823,42.784c0,0-3.128,3.614-9.733,3.614c-6.288,0-9.799-3.614-9.799-3.614
		c-3.165,0-5.733-2.588-5.733-5.782V13.139c0-3.192,2.568-5.782,5.733-5.782h5.811c-0.002-0.081-0.016-0.157-0.016-0.24
		c0-2.396,1.39-3.601,3.764-3.601c2.376,0,3.443,1.205,3.443,3.601c0,0.082-0.011,0.159-0.015,0.24h6.793
		c3.165,0,5.733,2.59,5.733,5.782v23.863C45.805,40.196,42.988,42.784,39.823,42.784L39.823,42.784z M16.948,35.075
		c0,2.396,1.925,4.337,4.3,4.337c2.375,0,4.361-1.941,4.361-4.337c0-2.396-1.985-4.337-4.361-4.337
		C18.872,30.738,16.948,32.68,16.948,35.075L16.948,35.075z M39.919,13.214H20.46v9.764h19.458V13.214L39.919,13.214z
		 M38.389,30.738c-2.374,0-4.238,1.941-4.238,4.337c0,2.396,1.864,4.337,4.238,4.337c2.376,0,4.3-1.941,4.3-4.337
		C42.69,32.68,40.765,30.738,38.389,30.738L38.389,30.738z M22.737,46.367l-4.956,10.117l-5.126-2.586l4.954-10.117L22.737,46.367
		L22.737,46.367z M47.346,53.898l-5.128,2.586L37.14,46.367l5.127-2.586L47.346,53.898L47.346,53.898z"/>
</g>
</svg>
