<?xml version="1.0" encoding="utf-8"?>
<!-- Generator: Adobe Illustrator 17.0.1, SVG Export Plug-In . SVG Version: 6.00 Build 0)  -->
<!DOCTYPE svg PUBLIC "-//W3C//DTD SVG 1.1//EN" "http://www.w3.org/Graphics/SVG/1.1/DTD/svg11.dtd">
<svg version="1.1" xmlns="http://www.w3.org/2000/svg" xmlns:xlink="http://www.w3.org/1999/xlink" x="0px" y="0px" width="60px"
	 height="60px" viewBox="0 0 60 60" enable-background="new 0 0 60 60" xml:space="preserve">
<g id="hwy_disabled">
	<g id="hwy-disabled">
		<path fill="#313131" d="M34.806,55.964c-0.276,0-0.5-0.224-0.5-0.5v-3.215h-2.646v3.215c0,0.276-0.224,0.5-0.5,0.5h-3.647
			c-0.276,0-0.5-0.224-0.5-0.5v-3.215h-2.647v3.215c0,0.276-0.224,0.5-0.5,0.5h-3.646c-0.276,0-0.5-0.224-0.5-0.5v-3.215h-2.647
			v3.215c0,0.276-0.224,0.5-0.5,0.5h-1.825c-0.276,0-0.5-0.224-0.5-0.5v-35c0-0.276,0.224-0.5,0.5-0.5h22.001
			c0.276,0,0.5,0.224,0.5,0.5v35c0,0.276-0.224,0.5-0.5,0.5H34.806z M34.306,47.536V44.82h-2.646v2.716H34.306z M27.012,47.536
			V44.82h-2.647v2.716H27.012z M19.719,47.536V44.82h-2.647v2.716H19.719z M34.306,40.106v-2.714h-2.646v2.714H34.306z
			 M27.012,40.106v-2.714h-2.647v2.714H27.012z M19.719,40.106v-2.714h-2.647v2.714H19.719z M34.306,32.678v-2.714h-2.646v2.714
			H34.306z M27.012,32.678v-2.714h-2.647v2.714H27.012z M19.719,32.678v-2.714h-2.647v2.714H19.719z M34.306,25.25v-2.714h-2.646
			v2.714H34.306z M27.012,25.25v-2.714h-2.647v2.714H27.012z M19.719,25.25v-2.714h-2.647v2.714H19.719z M37.958,54.601
			c-0.276,0-0.5-0.224-0.5-0.5v-1.938c0-0.276,0.224-0.5,0.5-0.5h4.995v-0.856h-4.995c-0.276,0-0.5-0.224-0.5-0.5V46.59
			c0-0.276,0.224-0.5,0.5-0.5h4.995v-0.856h-4.995c-0.276,0-0.5-0.224-0.5-0.5V41.02c0-0.276,0.224-0.5,0.5-0.5h4.995v-0.858h-4.995
			c-0.276,0-0.5-0.224-0.5-0.5v-3.714c0-0.276,0.224-0.5,0.5-0.5h4.995v-0.856h-4.995c-0.276,0-0.5-0.224-0.5-0.5v-3.715
			c0-0.276,0.224-0.5,0.5-0.5h4.995V28.52h-4.995c-0.276,0-0.5-0.224-0.5-0.5v-3.714c0-0.276,0.224-0.5,0.5-0.5h4.995v-0.858h-4.995
			c-0.276,0-0.5-0.224-0.5-0.5v-2.554h-10.44c-0.276,0-0.5-0.224-0.5-0.5V4.536c0-0.276,0.224-0.5,0.5-0.5h18.236
			c0.276,0,0.5,0.224,0.5,0.5v49.564c0,0.276-0.224,0.5-0.5,0.5H37.958z M42.928,18.233v-0.856H29.341v0.856H42.928z M42.928,12.661
			v-0.856H29.341v0.856H42.928z M42.928,7.091V6.233H29.341v0.857H42.928z"/>
		<path d="M45.253,4.536v49.565h-7.295v-1.939h5.495v-1.856h-5.495V46.59h5.495v-1.856h-5.495v-3.714h5.495v-1.858h-5.495v-3.714
			h5.495v-1.856h-5.495v-3.716h5.495v-1.856h-5.495v-3.714h5.495v-1.858h-5.495v-3.054h-10.94V4.536H45.253 M28.841,7.591h14.587
			V5.733H28.841V7.591 M28.841,13.161h14.587v-1.856H28.841V13.161 M28.841,18.733h14.587v-1.856H28.841V18.733 M36.748,20.464v35
			h-1.942v-3.716h-3.647v3.716h-3.647v-3.716h-3.647v3.716h-3.647v-3.716h-3.647v3.716h-1.825v-35H36.748 M31.159,25.75h3.647
			v-3.714h-3.647V25.75 M23.865,25.75h3.647v-3.714h-3.647V25.75 M16.572,25.75h3.647v-3.714h-3.647V25.75 M31.159,33.178h3.647
			v-3.714h-3.647V33.178 M23.865,33.178h3.647v-3.714h-3.647V33.178 M16.572,33.178h3.647v-3.714h-3.647V33.178 M31.159,40.606
			h3.647v-3.714h-3.647V40.606 M23.865,40.606h3.647v-3.714h-3.647V40.606 M16.572,40.606h3.647v-3.714h-3.647V40.606
			 M31.159,48.036h3.647V44.32h-3.647V48.036 M23.865,48.036h3.647V44.32h-3.647V48.036 M16.572,48.036h3.647V44.32h-3.647V48.036
			 M45.253,3.536H27.018c-0.552,0-1,0.448-1,1v14.858c0,0.024,0.001,0.047,0.002,0.071H14.747c-0.552,0-1,0.448-1,1v35
			c0,0.552,0.448,1,1,1h1.825c0.552,0,1-0.448,1-1v-2.716h1.647v2.716c0,0.552,0.448,1,1,1h3.647c0.552,0,1-0.448,1-1v-2.716h1.647
			v2.716c0,0.552,0.448,1,1,1h3.647c0.552,0,1-0.448,1-1v-2.716h1.647v2.716c0,0.552,0.448,1,1,1h1.942c0.552,0,1-0.448,1-1v-0.385
			c0.068,0.014,0.138,0.022,0.21,0.022h7.295c0.552,0,1-0.448,1-1V4.536C46.253,3.983,45.805,3.536,45.253,3.536L45.253,3.536z
			 M32.159,23.036h1.647v1.714h-1.647V23.036L32.159,23.036z M24.865,23.036h1.647v1.714h-1.647V23.036L24.865,23.036z
			 M17.572,23.036h1.647v1.714h-1.647V23.036L17.572,23.036z M32.159,30.464h1.647v1.714h-1.647V30.464L32.159,30.464z
			 M24.865,30.464h1.647v1.714h-1.647V30.464L24.865,30.464z M17.572,30.464h1.647v1.714h-1.647V30.464L17.572,30.464z
			 M32.159,37.892h1.647v1.714h-1.647V37.892L32.159,37.892z M24.865,37.892h1.647v1.714h-1.647V37.892L24.865,37.892z
			 M17.572,37.892h1.647v1.714h-1.647V37.892L17.572,37.892z M32.159,45.32h1.647v1.716h-1.647V45.32L32.159,45.32z M24.865,45.32
			h1.647v1.716h-1.647V45.32L24.865,45.32z M17.572,45.32h1.647v1.716h-1.647V45.32L17.572,45.32z"/>
	</g>
</g>
<g id="hwy">
	<g id="hwy_1_">
		<path fill="#FFFFFF" d="M34.806,55.964c-0.276,0-0.5-0.224-0.5-0.5v-3.215h-2.646v3.215c0,0.276-0.224,0.5-0.5,0.5h-3.647
			c-0.276,0-0.5-0.224-0.5-0.5v-3.215h-2.647v3.215c0,0.276-0.224,0.5-0.5,0.5h-3.646c-0.276,0-0.5-0.224-0.5-0.5v-3.215h-2.647
			v3.215c0,0.276-0.224,0.5-0.5,0.5h-1.825c-0.276,0-0.5-0.224-0.5-0.5v-35c0-0.276,0.224-0.5,0.5-0.5h22.001
			c0.276,0,0.5,0.224,0.5,0.5v35c0,0.276-0.224,0.5-0.5,0.5H34.806z M34.306,47.536V44.82h-2.646v2.716H34.306z M27.012,47.536
			V44.82h-2.647v2.716H27.012z M19.719,47.536V44.82h-2.647v2.716H19.719z M34.306,40.106v-2.714h-2.646v2.714H34.306z
			 M27.012,40.106v-2.714h-2.647v2.714H27.012z M19.719,40.106v-2.714h-2.647v2.714H19.719z M34.306,32.678v-2.714h-2.646v2.714
			H34.306z M27.012,32.678v-2.714h-2.647v2.714H27.012z M19.719,32.678v-2.714h-2.647v2.714H19.719z M34.306,25.25v-2.714h-2.646
			v2.714H34.306z M27.012,25.25v-2.714h-2.647v2.714H27.012z M19.719,25.25v-2.714h-2.647v2.714H19.719z M37.958,54.601
			c-0.276,0-0.5-0.224-0.5-0.5v-1.938c0-0.276,0.224-0.5,0.5-0.5h4.995v-0.856h-4.995c-0.276,0-0.5-0.224-0.5-0.5V46.59
			c0-0.276,0.224-0.5,0.5-0.5h4.995v-0.856h-4.995c-0.276,0-0.5-0.224-0.5-0.5V41.02c0-0.276,0.224-0.5,0.5-0.5h4.995v-0.858h-4.995
			c-0.276,0-0.5-0.224-0.5-0.5v-3.714c0-0.276,0.224-0.5,0.5-0.5h4.995v-0.856h-4.995c-0.276,0-0.5-0.224-0.5-0.5v-3.715
			c0-0.276,0.224-0.5,0.5-0.5h4.995V28.52h-4.995c-0.276,0-0.5-0.224-0.5-0.5v-3.714c0-0.276,0.224-0.5,0.5-0.5h4.995v-0.858h-4.995
			c-0.276,0-0.5-0.224-0.5-0.5v-2.554h-10.44c-0.276,0-0.5-0.224-0.5-0.5V4.536c0-0.276,0.224-0.5,0.5-0.5h18.236
			c0.276,0,0.5,0.224,0.5,0.5v49.564c0,0.276-0.224,0.5-0.5,0.5H37.958z M42.928,18.233v-0.856H29.341v0.856H42.928z M42.928,12.661
			v-0.856H29.341v0.856H42.928z M42.928,7.091V6.233H29.341v0.857H42.928z"/>
		<path d="M45.253,4.536v49.565h-7.295v-1.939h5.495v-1.856h-5.495V46.59h5.495v-1.856h-5.495v-3.714h5.495v-1.858h-5.495v-3.714
			h5.495v-1.856h-5.495v-3.716h5.495v-1.856h-5.495v-3.714h5.495v-1.858h-5.495v-3.054h-10.94V4.536H45.253 M28.841,7.591h14.587
			V5.733H28.841V7.591 M28.841,13.161h14.587v-1.856H28.841V13.161 M28.841,18.733h14.587v-1.856H28.841V18.733 M36.748,20.464v35
			h-1.942v-3.716h-3.647v3.716h-3.647v-3.716h-3.647v3.716h-3.647v-3.716h-3.647v3.716h-1.825v-35H36.748 M31.159,25.75h3.647
			v-3.714h-3.647V25.75 M23.865,25.75h3.647v-3.714h-3.647V25.75 M16.572,25.75h3.647v-3.714h-3.647V25.75 M31.159,33.178h3.647
			v-3.714h-3.647V33.178 M23.865,33.178h3.647v-3.714h-3.647V33.178 M16.572,33.178h3.647v-3.714h-3.647V33.178 M31.159,40.606
			h3.647v-3.714h-3.647V40.606 M23.865,40.606h3.647v-3.714h-3.647V40.606 M16.572,40.606h3.647v-3.714h-3.647V40.606
			 M31.159,48.036h3.647V44.32h-3.647V48.036 M23.865,48.036h3.647V44.32h-3.647V48.036 M16.572,48.036h3.647V44.32h-3.647V48.036
			 M45.253,3.536H27.018c-0.552,0-1,0.448-1,1v14.858c0,0.024,0.001,0.047,0.002,0.071H14.747c-0.552,0-1,0.448-1,1v35
			c0,0.552,0.448,1,1,1h1.825c0.552,0,1-0.448,1-1v-2.716h1.647v2.716c0,0.552,0.448,1,1,1h3.647c0.552,0,1-0.448,1-1v-2.716h1.647
			v2.716c0,0.552,0.448,1,1,1h3.647c0.552,0,1-0.448,1-1v-2.716h1.647v2.716c0,0.552,0.448,1,1,1h1.942c0.552,0,1-0.448,1-1v-0.385
			c0.068,0.014,0.138,0.022,0.21,0.022h7.295c0.552,0,1-0.448,1-1V4.536C46.253,3.983,45.805,3.536,45.253,3.536L45.253,3.536z
			 M32.159,23.036h1.647v1.714h-1.647V23.036L32.159,23.036z M24.865,23.036h1.647v1.714h-1.647V23.036L24.865,23.036z
			 M17.572,23.036h1.647v1.714h-1.647V23.036L17.572,23.036z M32.159,30.464h1.647v1.714h-1.647V30.464L32.159,30.464z
			 M24.865,30.464h1.647v1.714h-1.647V30.464L24.865,30.464z M17.572,30.464h1.647v1.714h-1.647V30.464L17.572,30.464z
			 M32.159,37.892h1.647v1.714h-1.647V37.892L32.159,37.892z M24.865,37.892h1.647v1.714h-1.647V37.892L24.865,37.892z
			 M17.572,37.892h1.647v1.714h-1.647V37.892L17.572,37.892z M32.159,45.32h1.647v1.716h-1.647V45.32L32.159,45.32z M24.865,45.32
			h1.647v1.716h-1.647V45.32L24.865,45.32z M17.572,45.32h1.647v1.716h-1.647V45.32L17.572,45.32z"/>
	</g>
</g>
<g id="group">
	<path id="path" fill="#FFFFFF" d="M37.958,54.101v-1.939h5.495v-1.856h-5.495V46.59h5.495v-1.856h-5.495v-3.714h5.495v-1.858
		h-5.495v-3.714h5.495v-1.856h-5.495v-3.716h5.495v-1.856h-5.495v-3.714h5.495v-1.858h-5.495v-3.054h-10.94V4.536h18.236v49.565
		H37.958L37.958,54.101z M43.428,5.733H28.841v1.858h14.587V5.733L43.428,5.733z M43.428,11.305H28.841v1.856h14.587V11.305
		L43.428,11.305z M43.428,16.877H28.841v1.856h14.587V16.877L43.428,16.877z M36.748,55.464h-1.942v-3.716h-3.647v3.716h-3.647
		v-3.716h-3.647v3.716h-3.647v-3.716h-3.647v3.716h-1.825v-35h22.001V55.464L36.748,55.464z M20.219,22.036h-3.647v3.714h3.647
		V22.036L20.219,22.036z M20.219,29.464h-3.647v3.714h3.647V29.464L20.219,29.464z M20.219,36.892h-3.647v3.714h3.647V36.892
		L20.219,36.892z M20.219,44.32h-3.647v3.716h3.647V44.32L20.219,44.32z M27.512,22.036h-3.647v3.714h3.647V22.036L27.512,22.036z
		 M27.512,29.464h-3.647v3.714h3.647V29.464L27.512,29.464z M27.512,36.892h-3.647v3.714h3.647V36.892L27.512,36.892z M27.512,44.32
		h-3.647v3.716h3.647V44.32L27.512,44.32z M34.806,22.036h-3.647v3.714h3.647V22.036L34.806,22.036z M34.806,29.464h-3.647v3.714
		h3.647V29.464L34.806,29.464z M34.806,36.892h-3.647v3.714h3.647V36.892L34.806,36.892z M34.806,44.32h-3.647v3.716h3.647V44.32
		L34.806,44.32z"/>
</g>
<g id="disabled">
	<path id="dis" fill="#FFFFFF" d="M37.958,54.101v-1.939h5.495v-1.856h-5.495V46.59h5.495v-1.856h-5.495v-3.714h5.495v-1.858
		h-5.495v-3.714h5.495v-1.856h-5.495v-3.716h5.495v-1.856h-5.495v-3.714h5.495v-1.858h-5.495v-3.054h-10.94V4.536h18.236v49.565
		H37.958L37.958,54.101z M43.428,5.733H28.841v1.858h14.587V5.733L43.428,5.733z M43.428,11.305H28.841v1.856h14.587V11.305
		L43.428,11.305z M43.428,16.877H28.841v1.856h14.587V16.877L43.428,16.877z M36.748,55.464h-1.942v-3.716h-3.647v3.716h-3.647
		v-3.716h-3.647v3.716h-3.647v-3.716h-3.647v3.716h-1.825v-35h22.001V55.464L36.748,55.464z M20.219,22.036h-3.647v3.714h3.647
		V22.036L20.219,22.036z M20.219,29.464h-3.647v3.714h3.647V29.464L20.219,29.464z M20.219,36.892h-3.647v3.714h3.647V36.892
		L20.219,36.892z M20.219,44.32h-3.647v3.716h3.647V44.32L20.219,44.32z M27.512,22.036h-3.647v3.714h3.647V22.036L27.512,22.036z
		 M27.512,29.464h-3.647v3.714h3.647V29.464L27.512,29.464z M27.512,36.892h-3.647v3.714h3.647V36.892L27.512,36.892z M27.512,44.32
		h-3.647v3.716h3.647V44.32L27.512,44.32z M34.806,22.036h-3.647v3.714h3.647V22.036L34.806,22.036z M34.806,29.464h-3.647v3.714
		h3.647V29.464L34.806,29.464z M34.806,36.892h-3.647v3.714h3.647V36.892L34.806,36.892z M34.806,44.32h-3.647v3.716h3.647V44.32
		L34.806,44.32z"/>
</g>
<g id="normal">
	<path id="norm" fill="#FFFFFF" d="M37.958,54.101v-1.939h5.495v-1.856h-5.495V46.59h5.495v-1.856h-5.495v-3.714h5.495v-1.858
		h-5.495v-3.714h5.495v-1.856h-5.495v-3.716h5.495v-1.856h-5.495v-3.714h5.495v-1.858h-5.495v-3.054h-10.94V4.536h18.236v49.565
		H37.958L37.958,54.101z M43.428,5.733H28.841v1.858h14.587V5.733L43.428,5.733z M43.428,11.305H28.841v1.856h14.587V11.305
		L43.428,11.305z M43.428,16.877H28.841v1.856h14.587V16.877L43.428,16.877z M36.748,55.464h-1.942v-3.716h-3.647v3.716h-3.647
		v-3.716h-3.647v3.716h-3.647v-3.716h-3.647v3.716h-1.825v-35h22.001V55.464L36.748,55.464z M20.219,22.036h-3.647v3.714h3.647
		V22.036L20.219,22.036z M20.219,29.464h-3.647v3.714h3.647V29.464L20.219,29.464z M20.219,36.892h-3.647v3.714h3.647V36.892
		L20.219,36.892z M20.219,44.32h-3.647v3.716h3.647V44.32L20.219,44.32z M27.512,22.036h-3.647v3.714h3.647V22.036L27.512,22.036z
		 M27.512,29.464h-3.647v3.714h3.647V29.464L27.512,29.464z M27.512,36.892h-3.647v3.714h3.647V36.892L27.512,36.892z M27.512,44.32
		h-3.647v3.716h3.647V44.32L27.512,44.32z M34.806,22.036h-3.647v3.714h3.647V22.036L34.806,22.036z M34.806,29.464h-3.647v3.714
		h3.647V29.464L34.806,29.464z M34.806,36.892h-3.647v3.714h3.647V36.892L34.806,36.892z M34.806,44.32h-3.647v3.716h3.647V44.32
		L34.806,44.32z"/>
</g>
</svg>
