<?xml version="1.0" encoding="utf-8"?>
<!-- Generator: Adobe Illustrator 17.0.1, SVG Export Plug-In . SVG Version: 6.00 Build 0)  -->
<!DOCTYPE svg PUBLIC "-//W3C//DTD SVG 1.1//EN" "http://www.w3.org/Graphics/SVG/1.1/DTD/svg11.dtd">
<svg version="1.1" xmlns="http://www.w3.org/2000/svg" xmlns:xlink="http://www.w3.org/1999/xlink" x="0px" y="0px" width="60px"
	 height="60px" viewBox="0 0 60 60" enable-background="new 0 0 60 60" xml:space="preserve">
<g id="hwy_disabled">
	<g id="hd">
		<path fill="#313131" d="M45.853,54.512c-2.193,0-4.427-0.784-6.83-2.398c-1.427-0.959-2.733-1.425-3.994-1.425
			c-1.261,0-2.567,0.466-3.992,1.425c-2.416,1.621-4.539,2.377-6.685,2.377s-4.269-0.756-6.684-2.377
			c-1.483-0.997-2.646-1.441-3.771-1.441c-1.126,0-2.29,0.444-3.773,1.441c-0.083,0.056-0.181,0.085-0.279,0.085
			c-0.056,0-0.111-0.009-0.166-0.028c-0.148-0.052-0.264-0.171-0.312-0.321l-1.249-3.966c-0.066-0.212,0.014-0.441,0.198-0.565
			c2.007-1.349,3.779-1.978,5.575-1.978c1.778,0,3.605,0.647,5.585,1.978c1.897,1.274,3.393,1.843,4.852,1.843
			c1.472,0,3.029-0.586,4.899-1.843c1.974-1.326,3.872-1.972,5.802-1.972c1.928,0,3.826,0.646,5.801,1.972
			c1.873,1.259,3.466,1.846,5.016,1.846c1.558,0,3.156-0.587,5.029-1.846c0.083-0.056,0.181-0.085,0.279-0.085
			c0.059,0,0.118,0.011,0.174,0.031c0.151,0.056,0.266,0.182,0.308,0.336c0.234,0.854,0.451,1.331,0.641,1.753
			c0.27,0.595,0.502,1.109,0.624,2.295c0.019,0.184-0.065,0.363-0.219,0.466C50.28,53.728,48.046,54.512,45.853,54.512z
			 M45.853,47.095c-2.193,0-4.427-0.785-6.83-2.4c-1.426-0.958-2.733-1.424-3.994-1.424c-1.261,0-2.567,0.466-3.993,1.424
			c-2.415,1.621-4.539,2.377-6.684,2.377s-4.269-0.756-6.684-2.377c-1.483-0.997-2.646-1.441-3.771-1.441
			c-1.126,0-2.29,0.444-3.773,1.441c-0.083,0.056-0.181,0.085-0.279,0.085c-0.056,0-0.111-0.009-0.166-0.028
			c-0.148-0.052-0.264-0.171-0.312-0.321l-1.249-3.965c-0.066-0.212,0.014-0.441,0.198-0.565c2.007-1.35,3.779-1.979,5.575-1.979
			c1.778,0,3.605,0.647,5.585,1.979c1.896,1.274,3.392,1.843,4.851,1.843c1.472,0,3.029-0.586,4.9-1.843
			c1.973-1.326,3.871-1.972,5.802-1.972c1.928,0,3.826,0.645,5.802,1.972c1.873,1.259,3.466,1.845,5.016,1.845
			c1.558,0,3.156-0.586,5.029-1.845c0.083-0.056,0.181-0.085,0.279-0.085c0.059,0,0.118,0.011,0.174,0.031
			c0.151,0.056,0.266,0.182,0.308,0.336c0.234,0.854,0.451,1.331,0.641,1.752c0.269,0.596,0.502,1.11,0.624,2.295
			c0.019,0.184-0.065,0.362-0.219,0.466C50.28,46.31,48.046,47.095,45.853,47.095z M33.452,35.655c-0.158,0-0.313-0.074-0.41-0.213
			l-6.185-8.809c-0.743-0.23-1.438-0.348-2.069-0.348c-2.216,0-3.642,1.402-4.238,4.169c-0.032,0.148-0.13,0.275-0.267,0.343
			c-0.07,0.034-0.146,0.052-0.222,0.052c-0.073,0-0.146-0.016-0.213-0.048c-0.78-0.366-1.509-0.553-2.167-0.553
			c-1.813,0-3.176,1.437-4.05,4.27c-0.059,0.191-0.227,0.329-0.426,0.35c-0.017,0.002-0.035,0.003-0.052,0.003
			c-0.18,0-0.348-0.098-0.437-0.257c-0.086-0.155-8.474-15.638,5.475-25.149l2.193-1.555c3.069-1.618,6.06-2.422,8.944-2.422
			c10.196,0,15.95,10.052,16.007,10.153c0.097,0.172,0.083,0.386-0.036,0.544c-0.096,0.128-0.245,0.2-0.4,0.2
			c-0.037,0-0.075-0.004-0.112-0.013c-0.829-0.19-1.586-0.286-2.25-0.286c-2.481,0-3.865,1.288-4.488,4.178
			c-0.028,0.13-0.107,0.244-0.219,0.315c-0.081,0.052-0.175,0.079-0.27,0.079c-0.037,0-0.073-0.004-0.109-0.012
			c-0.929-0.208-1.707-0.31-2.377-0.31c-2.187,0-3.315,1.058-4.106,3.882l6.099,8.672c0.079,0.113,0.108,0.254,0.081,0.389
			s-0.11,0.253-0.228,0.325l-3.207,1.976C33.632,35.631,33.541,35.655,33.452,35.655z"/>
		<path d="M29.329,5.988c10.021,0,15.571,9.898,15.571,9.898c-0.867-0.199-1.653-0.299-2.362-0.299c-2.723,0-4.31,1.482-4.977,4.572
			c-0.941-0.211-1.764-0.321-2.486-0.321c-2.522,0-3.82,1.346-4.651,4.478l6.235,8.864l-3.207,1.976l-6.281-8.946
			c-0.86-0.283-1.656-0.423-2.382-0.423c-2.429,0-4.08,1.564-4.727,4.563c-0.829-0.39-1.628-0.6-2.379-0.6
			c-1.916,0-3.524,1.368-4.528,4.622c0,0-8.413-15.129,5.319-24.493l2.2-1.56C23.845,6.651,26.737,5.988,29.329,5.988
			 M13.892,38.421c1.696,0,3.411,0.619,5.306,1.893c1.854,1.246,3.459,1.928,5.129,1.928c1.58,0,3.217-0.609,5.179-1.928
			c1.892-1.272,3.718-1.887,5.523-1.887c1.847,0,3.672,0.644,5.523,1.887c1.895,1.274,3.585,1.93,5.295,1.93
			c1.678,0,3.376-0.631,5.308-1.93c0.574,2.091,1.052,2.041,1.249,3.964c-2.296,1.543-4.424,2.315-6.551,2.315
			c-2.128,0-4.255-0.772-6.551-2.315c-1.498-1.006-2.885-1.509-4.273-1.509s-2.775,0.503-4.271,1.509
			c-2.276,1.528-4.341,2.292-6.406,2.292s-4.13-0.764-6.404-2.292c-1.514-1.018-2.782-1.526-4.051-1.526s-2.537,0.509-4.052,1.526
			l-1.249-3.964C10.454,39.065,12.163,38.421,13.892,38.421 M13.892,45.84c1.696,0,3.411,0.619,5.306,1.892
			c1.854,1.246,3.46,1.928,5.13,1.928c1.579,0,3.217-0.609,5.178-1.928c1.892-1.271,3.719-1.886,5.524-1.886
			c1.847,0,3.672,0.643,5.522,1.886c1.895,1.275,3.585,1.931,5.295,1.931c1.678,0,3.376-0.632,5.308-1.931
			c0.574,2.093,1.052,2.041,1.249,3.966c-2.296,1.542-4.424,2.314-6.551,2.314c-2.128,0-4.255-0.771-6.551-2.314
			c-1.498-1.007-2.885-1.51-4.273-1.51s-2.775,0.503-4.271,1.51c-2.276,1.528-4.341,2.292-6.406,2.292s-4.13-0.764-6.404-2.292
			c-1.514-1.018-2.782-1.526-4.051-1.526s-2.537,0.509-4.052,1.526l-1.249-3.966C10.454,46.483,12.163,45.84,13.892,45.84
			 M29.329,4.988c-2.966,0-6.035,0.823-9.121,2.445c-0.039,0.021-0.077,0.044-0.113,0.069l-2.2,1.56
			c-14.306,9.755-5.704,25.636-5.615,25.795c0.178,0.319,0.514,0.514,0.874,0.514c0.035,0,0.069-0.002,0.104-0.005
			c0.398-0.042,0.734-0.317,0.852-0.7c0.802-2.599,2.004-3.917,3.573-3.917c0.584,0,1.241,0.17,1.954,0.505
			c0.135,0.063,0.28,0.095,0.426,0.095c0.152,0,0.304-0.035,0.443-0.104c0.273-0.135,0.47-0.388,0.534-0.686
			c0.54-2.504,1.801-3.774,3.749-3.774c0.536,0,1.126,0.093,1.76,0.277l6.085,8.667c0.194,0.276,0.504,0.425,0.819,0.425
			c0.179,0,0.361-0.048,0.524-0.149l3.207-1.976c0.235-0.145,0.399-0.38,0.455-0.65c0.056-0.27-0.003-0.551-0.162-0.777
			l-5.961-8.475c0.819-2.739,1.938-3.291,3.56-3.291c0.633,0,1.375,0.097,2.268,0.297c0.072,0.016,0.146,0.024,0.218,0.024
			c0.189,0,0.377-0.054,0.539-0.158c0.225-0.144,0.382-0.371,0.439-0.632c0.572-2.652,1.768-3.783,3.999-3.783
			c0.626,0,1.345,0.092,2.138,0.274c0.074,0.017,0.149,0.025,0.224,0.025c0.311,0,0.609-0.145,0.801-0.401
			c0.237-0.317,0.265-0.743,0.072-1.088C45.533,14.972,39.814,4.988,29.329,4.988L29.329,4.988z M13.892,37.421
			c-1.874,0-3.789,0.675-5.854,2.063c-0.368,0.247-0.529,0.708-0.396,1.13l1.249,3.964c0.095,0.301,0.326,0.539,0.623,0.643
			c0.108,0.038,0.219,0.056,0.331,0.056c0.196,0,0.391-0.058,0.558-0.17c1.396-0.938,2.474-1.356,3.494-1.356
			c1.02,0,2.097,0.418,3.493,1.356c2.466,1.657,4.744,2.462,6.962,2.462c2.219,0,4.496-0.805,6.963-2.462
			c1.341-0.901,2.556-1.339,3.714-1.339c1.159,0,2.374,0.438,3.715,1.339c2.488,1.672,4.813,2.485,7.109,2.485
			c2.296,0,4.621-0.813,7.109-2.485c0.307-0.206,0.475-0.564,0.437-0.932c-0.13-1.266-0.39-1.84-0.665-2.449
			c-0.192-0.424-0.39-0.863-0.614-1.678c-0.085-0.31-0.315-0.561-0.616-0.673c-0.113-0.042-0.231-0.063-0.348-0.063
			c-0.196,0-0.391,0.058-0.558,0.17c-1.786,1.201-3.296,1.76-4.75,1.76c-1.446,0-2.951-0.559-4.737-1.76
			c-2.061-1.384-4.05-2.057-6.081-2.057c-2.033,0-4.022,0.673-6.081,2.057c-1.785,1.199-3.253,1.757-4.621,1.757
			c-1.353,0-2.763-0.542-4.571-1.758C17.691,38.096,15.773,37.421,13.892,37.421L13.892,37.421z M13.892,44.84L13.892,44.84
			c-1.874,0-3.789,0.674-5.854,2.062c-0.368,0.247-0.529,0.707-0.396,1.13l1.249,3.966c0.095,0.301,0.326,0.539,0.623,0.643
			c0.108,0.038,0.219,0.056,0.331,0.056c0.196,0,0.391-0.058,0.558-0.17c1.396-0.938,2.474-1.356,3.494-1.356
			c1.02,0,2.097,0.418,3.493,1.356c2.466,1.657,4.744,2.462,6.962,2.462c2.218,0,4.496-0.805,6.963-2.462
			c1.341-0.902,2.556-1.34,3.714-1.34c1.158,0,2.374,0.438,3.715,1.34c2.488,1.671,4.814,2.484,7.109,2.484
			c2.296,0,4.621-0.812,7.109-2.484c0.307-0.206,0.475-0.564,0.437-0.932c-0.13-1.266-0.39-1.841-0.665-2.45
			c-0.192-0.424-0.39-0.863-0.614-1.679c-0.085-0.31-0.315-0.561-0.616-0.673c-0.113-0.042-0.231-0.063-0.348-0.063
			c-0.196,0-0.391,0.058-0.558,0.17c-1.786,1.201-3.296,1.761-4.75,1.761c-1.446,0-2.951-0.559-4.737-1.761
			c-2.061-1.384-4.05-2.056-6.08-2.056c-2.033,0-4.022,0.672-6.081,2.056c-1.784,1.2-3.253,1.758-4.621,1.758
			c-1.353,0-2.763-0.542-4.572-1.758C17.691,45.514,15.773,44.84,13.892,44.84L13.892,44.84z"/>
	</g>
</g>
<g id="hwy">
	<g id="h_2_">
		<path fill="#FFFFFF" d="M45.853,54.512c-2.193,0-4.427-0.784-6.83-2.398c-1.427-0.959-2.733-1.425-3.994-1.425
			c-1.261,0-2.567,0.466-3.992,1.425c-2.416,1.621-4.539,2.377-6.685,2.377s-4.269-0.756-6.684-2.377
			c-1.483-0.997-2.646-1.441-3.771-1.441c-1.126,0-2.29,0.444-3.773,1.441c-0.083,0.056-0.181,0.085-0.279,0.085
			c-0.056,0-0.111-0.009-0.166-0.028c-0.148-0.052-0.264-0.171-0.312-0.321l-1.249-3.966c-0.066-0.212,0.014-0.441,0.198-0.565
			c2.007-1.349,3.779-1.978,5.575-1.978c1.778,0,3.605,0.647,5.585,1.978c1.897,1.274,3.393,1.843,4.852,1.843
			c1.472,0,3.029-0.586,4.899-1.843c1.974-1.326,3.872-1.972,5.802-1.972c1.928,0,3.826,0.646,5.801,1.972
			c1.873,1.259,3.466,1.846,5.016,1.846c1.558,0,3.156-0.587,5.029-1.846c0.083-0.056,0.181-0.085,0.279-0.085
			c0.059,0,0.118,0.011,0.174,0.031c0.151,0.056,0.266,0.182,0.308,0.336c0.234,0.854,0.451,1.331,0.641,1.753
			c0.27,0.595,0.502,1.109,0.624,2.295c0.019,0.184-0.065,0.363-0.219,0.466C50.28,53.728,48.046,54.512,45.853,54.512z
			 M45.853,47.095c-2.193,0-4.427-0.785-6.83-2.4c-1.426-0.958-2.733-1.424-3.994-1.424c-1.261,0-2.567,0.466-3.993,1.424
			c-2.415,1.621-4.539,2.377-6.684,2.377s-4.269-0.756-6.684-2.377c-1.483-0.997-2.646-1.441-3.771-1.441
			c-1.126,0-2.29,0.444-3.773,1.441c-0.083,0.056-0.181,0.085-0.279,0.085c-0.056,0-0.111-0.009-0.166-0.028
			c-0.148-0.052-0.264-0.171-0.312-0.321l-1.249-3.965c-0.066-0.212,0.014-0.441,0.198-0.565c2.007-1.35,3.779-1.979,5.575-1.979
			c1.778,0,3.605,0.647,5.585,1.979c1.896,1.274,3.392,1.843,4.851,1.843c1.472,0,3.029-0.586,4.9-1.843
			c1.973-1.326,3.871-1.972,5.802-1.972c1.928,0,3.826,0.645,5.802,1.972c1.873,1.259,3.466,1.845,5.016,1.845
			c1.558,0,3.156-0.586,5.029-1.845c0.083-0.056,0.181-0.085,0.279-0.085c0.059,0,0.118,0.011,0.174,0.031
			c0.151,0.056,0.266,0.182,0.308,0.336c0.234,0.854,0.451,1.331,0.641,1.752c0.269,0.596,0.502,1.11,0.624,2.295
			c0.019,0.184-0.065,0.362-0.219,0.466C50.28,46.31,48.046,47.095,45.853,47.095z M33.452,35.655c-0.158,0-0.313-0.074-0.41-0.213
			l-6.185-8.809c-0.743-0.23-1.438-0.348-2.069-0.348c-2.216,0-3.642,1.402-4.238,4.169c-0.032,0.148-0.13,0.275-0.267,0.343
			c-0.07,0.034-0.146,0.052-0.222,0.052c-0.073,0-0.146-0.016-0.213-0.048c-0.78-0.366-1.509-0.553-2.167-0.553
			c-1.813,0-3.176,1.437-4.05,4.27c-0.059,0.191-0.227,0.329-0.426,0.35c-0.017,0.002-0.035,0.003-0.052,0.003
			c-0.18,0-0.348-0.098-0.437-0.257c-0.086-0.155-8.474-15.638,5.475-25.149l2.193-1.555c3.069-1.618,6.06-2.422,8.944-2.422
			c10.196,0,15.95,10.052,16.007,10.153c0.097,0.172,0.083,0.386-0.036,0.544c-0.096,0.128-0.245,0.2-0.4,0.2
			c-0.037,0-0.075-0.004-0.112-0.013c-0.829-0.19-1.586-0.286-2.25-0.286c-2.481,0-3.865,1.288-4.488,4.178
			c-0.028,0.13-0.107,0.244-0.219,0.315c-0.081,0.052-0.175,0.079-0.27,0.079c-0.037,0-0.073-0.004-0.109-0.012
			c-0.929-0.208-1.707-0.31-2.377-0.31c-2.187,0-3.315,1.058-4.106,3.882l6.099,8.672c0.079,0.113,0.108,0.254,0.081,0.389
			s-0.11,0.253-0.228,0.325l-3.207,1.976C33.632,35.631,33.541,35.655,33.452,35.655z"/>
		<path d="M29.329,5.988c10.021,0,15.571,9.898,15.571,9.898c-0.867-0.199-1.653-0.299-2.362-0.299c-2.723,0-4.31,1.482-4.977,4.572
			c-0.941-0.211-1.764-0.321-2.486-0.321c-2.522,0-3.82,1.346-4.651,4.478l6.235,8.864l-3.207,1.976l-6.281-8.946
			c-0.86-0.283-1.656-0.423-2.382-0.423c-2.429,0-4.08,1.564-4.727,4.563c-0.829-0.39-1.628-0.6-2.379-0.6
			c-1.916,0-3.524,1.368-4.528,4.622c0,0-8.413-15.129,5.319-24.493l2.2-1.56C23.845,6.651,26.737,5.988,29.329,5.988
			 M13.892,38.421c1.696,0,3.411,0.619,5.306,1.893c1.854,1.246,3.459,1.928,5.129,1.928c1.58,0,3.217-0.609,5.179-1.928
			c1.892-1.272,3.718-1.887,5.523-1.887c1.847,0,3.672,0.644,5.523,1.887c1.895,1.274,3.585,1.93,5.295,1.93
			c1.678,0,3.376-0.631,5.308-1.93c0.574,2.091,1.052,2.041,1.249,3.964c-2.296,1.543-4.424,2.315-6.551,2.315
			c-2.128,0-4.255-0.772-6.551-2.315c-1.498-1.006-2.885-1.509-4.273-1.509s-2.775,0.503-4.271,1.509
			c-2.276,1.528-4.341,2.292-6.406,2.292s-4.13-0.764-6.404-2.292c-1.514-1.018-2.782-1.526-4.051-1.526s-2.537,0.509-4.052,1.526
			l-1.249-3.964C10.454,39.065,12.163,38.421,13.892,38.421 M13.892,45.84c1.696,0,3.411,0.619,5.306,1.892
			c1.854,1.246,3.46,1.928,5.13,1.928c1.579,0,3.217-0.609,5.178-1.928c1.892-1.271,3.719-1.886,5.524-1.886
			c1.847,0,3.672,0.643,5.522,1.886c1.895,1.275,3.585,1.931,5.295,1.931c1.678,0,3.376-0.632,5.308-1.931
			c0.574,2.093,1.052,2.041,1.249,3.966c-2.296,1.542-4.424,2.314-6.551,2.314c-2.128,0-4.255-0.771-6.551-2.314
			c-1.498-1.007-2.885-1.51-4.273-1.51s-2.775,0.503-4.271,1.51c-2.276,1.528-4.341,2.292-6.406,2.292s-4.13-0.764-6.404-2.292
			c-1.514-1.018-2.782-1.526-4.051-1.526s-2.537,0.509-4.052,1.526l-1.249-3.966C10.454,46.483,12.163,45.84,13.892,45.84
			 M29.329,4.988c-2.966,0-6.035,0.823-9.121,2.445c-0.039,0.021-0.077,0.044-0.113,0.069l-2.2,1.56
			c-14.306,9.755-5.704,25.636-5.615,25.795c0.178,0.319,0.514,0.514,0.874,0.514c0.035,0,0.069-0.002,0.104-0.005
			c0.398-0.042,0.734-0.317,0.852-0.7c0.802-2.599,2.004-3.917,3.573-3.917c0.584,0,1.241,0.17,1.954,0.505
			c0.135,0.063,0.28,0.095,0.426,0.095c0.152,0,0.304-0.035,0.443-0.104c0.273-0.135,0.47-0.388,0.534-0.686
			c0.54-2.504,1.801-3.774,3.749-3.774c0.536,0,1.126,0.093,1.76,0.277l6.085,8.667c0.194,0.276,0.504,0.425,0.819,0.425
			c0.179,0,0.361-0.048,0.524-0.149l3.207-1.976c0.235-0.145,0.399-0.38,0.455-0.65c0.056-0.27-0.003-0.551-0.162-0.777
			l-5.961-8.475c0.819-2.739,1.938-3.291,3.56-3.291c0.633,0,1.375,0.097,2.268,0.297c0.072,0.016,0.146,0.024,0.218,0.024
			c0.189,0,0.377-0.054,0.539-0.158c0.225-0.144,0.382-0.371,0.439-0.632c0.572-2.652,1.768-3.783,3.999-3.783
			c0.626,0,1.345,0.092,2.138,0.274c0.074,0.017,0.149,0.025,0.224,0.025c0.311,0,0.609-0.145,0.801-0.401
			c0.237-0.317,0.265-0.743,0.072-1.088C45.533,14.972,39.814,4.988,29.329,4.988L29.329,4.988z M13.892,37.421
			c-1.874,0-3.789,0.675-5.854,2.063c-0.368,0.247-0.529,0.708-0.396,1.13l1.249,3.964c0.095,0.301,0.326,0.539,0.623,0.643
			c0.108,0.038,0.219,0.056,0.331,0.056c0.196,0,0.391-0.058,0.558-0.17c1.396-0.938,2.474-1.356,3.494-1.356
			c1.02,0,2.097,0.418,3.493,1.356c2.466,1.657,4.744,2.462,6.962,2.462c2.219,0,4.496-0.805,6.963-2.462
			c1.341-0.901,2.556-1.339,3.714-1.339c1.159,0,2.374,0.438,3.715,1.339c2.488,1.672,4.813,2.485,7.109,2.485
			c2.296,0,4.621-0.813,7.109-2.485c0.307-0.206,0.475-0.564,0.437-0.932c-0.13-1.266-0.39-1.84-0.665-2.449
			c-0.192-0.424-0.39-0.863-0.614-1.678c-0.085-0.31-0.315-0.561-0.616-0.673c-0.113-0.042-0.231-0.063-0.348-0.063
			c-0.196,0-0.391,0.058-0.558,0.17c-1.786,1.201-3.296,1.76-4.75,1.76c-1.446,0-2.951-0.559-4.737-1.76
			c-2.061-1.384-4.05-2.057-6.081-2.057c-2.033,0-4.022,0.673-6.081,2.057c-1.785,1.199-3.253,1.757-4.621,1.757
			c-1.353,0-2.763-0.542-4.571-1.758C17.691,38.096,15.773,37.421,13.892,37.421L13.892,37.421z M13.892,44.84L13.892,44.84
			c-1.874,0-3.789,0.674-5.854,2.062c-0.368,0.247-0.529,0.707-0.396,1.13l1.249,3.966c0.095,0.301,0.326,0.539,0.623,0.643
			c0.108,0.038,0.219,0.056,0.331,0.056c0.196,0,0.391-0.058,0.558-0.17c1.396-0.938,2.474-1.356,3.494-1.356
			c1.02,0,2.097,0.418,3.493,1.356c2.466,1.657,4.744,2.462,6.962,2.462c2.218,0,4.496-0.805,6.963-2.462
			c1.341-0.902,2.556-1.34,3.714-1.34c1.158,0,2.374,0.438,3.715,1.34c2.488,1.671,4.814,2.484,7.109,2.484
			c2.296,0,4.621-0.812,7.109-2.484c0.307-0.206,0.475-0.564,0.437-0.932c-0.13-1.266-0.39-1.841-0.665-2.45
			c-0.192-0.424-0.39-0.863-0.614-1.679c-0.085-0.31-0.315-0.561-0.616-0.673c-0.113-0.042-0.231-0.063-0.348-0.063
			c-0.196,0-0.391,0.058-0.558,0.17c-1.786,1.201-3.296,1.761-4.75,1.761c-1.446,0-2.951-0.559-4.737-1.761
			c-2.061-1.384-4.05-2.056-6.08-2.056c-2.033,0-4.022,0.672-6.081,2.056c-1.784,1.2-3.253,1.758-4.621,1.758
			c-1.353,0-2.763-0.542-4.572-1.758C17.691,45.514,15.773,44.84,13.892,44.84L13.892,44.84z"/>
	</g>
</g>
<g id="group">
	<path id="g" fill="#FFFFFF" d="M39.302,44.279c-2.995-2.012-5.551-2.012-8.544,0c-4.551,3.056-8.261,3.056-12.81,0
		c-3.028-2.035-5.073-2.035-8.103,0l-1.249-3.964c3.681-2.475,6.775-2.573,10.603,0c3.607,2.425,6.272,2.712,10.308,0
		c3.828-2.573,7.387-2.457,11.046,0c3.754,2.523,6.701,2.622,10.603,0c0.574,2.091,1.052,2.041,1.249,3.964
		C47.812,47.366,43.894,47.366,39.302,44.279L39.302,44.279z M37.561,20.159c-4.225-0.946-6.068,0.127-7.137,4.156l6.235,8.864
		l-3.207,1.976l-6.281-8.946c-3.735-1.229-6.269,0.244-7.109,4.14c-2.941-1.384-5.51-0.508-6.908,4.022
		c0,0-8.413-15.129,5.319-24.493l2.2-1.56c15.432-8.114,24.226,7.568,24.226,7.568C40.703,14.924,38.401,16.265,37.561,20.159
		L37.561,20.159z M19.198,47.732c3.607,2.425,6.272,2.714,10.308,0c3.828-2.572,7.387-2.457,11.046,0
		c3.754,2.525,6.701,2.624,10.603,0c0.574,2.093,1.052,2.041,1.249,3.966c-4.592,3.085-8.51,3.085-13.103,0
		c-2.995-2.014-5.551-2.014-8.544,0c-4.551,3.056-8.261,3.056-12.81,0c-3.028-2.035-5.073-2.035-8.103,0l-1.249-3.966
		C12.276,45.259,15.37,45.16,19.198,47.732L19.198,47.732z"/>
</g>
<g id="disabled">
	<path id="d_2_" fill="#FFFFFF" d="M39.302,44.279c-2.995-2.012-5.551-2.012-8.544,0c-4.551,3.056-8.261,3.056-12.81,0
		c-3.028-2.035-5.073-2.035-8.103,0l-1.249-3.964c3.681-2.475,6.775-2.573,10.603,0c3.607,2.425,6.272,2.712,10.308,0
		c3.828-2.573,7.387-2.457,11.046,0c3.754,2.523,6.701,2.622,10.603,0c0.574,2.091,1.052,2.041,1.249,3.964
		C47.812,47.366,43.894,47.366,39.302,44.279L39.302,44.279z M37.561,20.159c-4.225-0.946-6.068,0.127-7.137,4.156l6.235,8.864
		l-3.207,1.976l-6.281-8.946c-3.735-1.229-6.269,0.244-7.109,4.14c-2.941-1.384-5.51-0.508-6.908,4.022
		c0,0-8.413-15.129,5.319-24.493l2.2-1.56c15.432-8.114,24.226,7.568,24.226,7.568C40.703,14.924,38.401,16.265,37.561,20.159
		L37.561,20.159z M19.198,47.732c3.607,2.425,6.272,2.714,10.308,0c3.828-2.572,7.387-2.457,11.046,0
		c3.754,2.525,6.701,2.624,10.603,0c0.574,2.093,1.052,2.041,1.249,3.966c-4.592,3.085-8.51,3.085-13.103,0
		c-2.995-2.014-5.551-2.014-8.544,0c-4.551,3.056-8.261,3.056-12.81,0c-3.028-2.035-5.073-2.035-8.103,0l-1.249-3.966
		C12.276,45.259,15.37,45.16,19.198,47.732L19.198,47.732z"/>
</g>
<g id="normal">
	<path id="n" fill="#FFFFFF" d="M39.302,44.279c-2.995-2.012-5.551-2.012-8.544,0c-4.551,3.056-8.261,3.056-12.81,0
		c-3.028-2.035-5.073-2.035-8.103,0l-1.249-3.964c3.681-2.475,6.775-2.573,10.603,0c3.607,2.425,6.272,2.712,10.308,0
		c3.828-2.573,7.387-2.457,11.046,0c3.754,2.523,6.701,2.622,10.603,0c0.574,2.091,1.052,2.041,1.249,3.964
		C47.812,47.366,43.894,47.366,39.302,44.279L39.302,44.279z M37.561,20.159c-4.225-0.946-6.068,0.127-7.137,4.156l6.235,8.864
		l-3.207,1.976l-6.281-8.946c-3.735-1.229-6.269,0.244-7.109,4.14c-2.941-1.384-5.51-0.508-6.908,4.022
		c0,0-8.413-15.129,5.319-24.493l2.2-1.56c15.432-8.114,24.226,7.568,24.226,7.568C40.703,14.924,38.401,16.265,37.561,20.159
		L37.561,20.159z M19.198,47.732c3.607,2.425,6.272,2.714,10.308,0c3.828-2.572,7.387-2.457,11.046,0
		c3.754,2.525,6.701,2.624,10.603,0c0.574,2.093,1.052,2.041,1.249,3.966c-4.592,3.085-8.51,3.085-13.103,0
		c-2.995-2.014-5.551-2.014-8.544,0c-4.551,3.056-8.261,3.056-12.81,0c-3.028-2.035-5.073-2.035-8.103,0l-1.249-3.966
		C12.276,45.259,15.37,45.16,19.198,47.732L19.198,47.732z"/>
</g>
</svg>
