<?xml version="1.0" encoding="utf-8"?>
<!-- Generator: Adobe Illustrator 17.1.0, SVG Export Plug-In . SVG Version: 6.00 Build 0)  -->
<!DOCTYPE svg PUBLIC "-//W3C//DTD SVG 1.1//EN" "http://www.w3.org/Graphics/SVG/1.1/DTD/svg11.dtd">
<svg version="1.1" id="normal" xmlns="http://www.w3.org/2000/svg" xmlns:xlink="http://www.w3.org/1999/xlink" x="0px" y="0px"
	 viewBox="0 0 120 120" enable-background="new 0 0 120 120" xml:space="preserve">
<linearGradient id="SVGID_1_" gradientUnits="userSpaceOnUse" x1="60.0137" y1="104.596" x2="60.0137" y2="16.3333">
	<stop  offset="0" style="stop-color:#1A639B"/>
	<stop  offset="1" style="stop-color:#31C1ED"/>
</linearGradient>
<path display="none" fill="url(#SVGID_1_)" d="M100.348,52.734c0-20.104-18.058-36.401-40.334-36.401S19.68,32.63,19.68,52.734
	c0,15.989,11.428,29.56,27.311,34.45l13.011,17.412L73.015,87.19C88.909,82.306,100.348,68.73,100.348,52.734z"/>
<path display="none" fill="#E0FFFF" d="M91.575,53c0.036,15.805-14.031,28.617-31.42,28.617S28.642,68.805,28.606,53
	s14.031-28.617,31.42-28.617S91.539,37.195,91.575,53z"/>
<path display="none" fill="#15233D" d="M87.908,53c0.032,13.964-12.397,25.284-27.76,25.284S32.305,66.964,32.273,53
	c-0.032-13.964,12.397-25.284,27.76-25.284S87.876,39.036,87.908,53z"/>
<linearGradient id="SVGID_2_" gradientUnits="userSpaceOnUse" x1="60.0906" y1="104.8411" x2="60.0906" y2="9.4118">
	<stop  offset="0" style="stop-color:#1A639B"/>
	<stop  offset="1" style="stop-color:#31C1ED"/>
</linearGradient>
<path fill="url(#SVGID_2_)" d="M100.425,48.768c0-21.736-18.058-39.356-40.334-39.356s-40.334,17.62-40.334,39.356
	c0,17.287,11.428,31.961,27.311,37.247l13.011,18.826l13.014-18.819C88.986,80.742,100.425,66.063,100.425,48.768z"/>
<path fill="#E0FFFF" d="M91.652,49.056c0.036,17.088-14.031,30.941-31.42,30.941s-31.514-13.853-31.55-30.941
	s14.031-30.941,31.42-30.941S91.616,31.967,91.652,49.056z"/>
<path fill="#15233D" d="M89.667,49.056c0.034,16.016-13.147,29-29.439,29s-29.527-12.984-29.561-29
	c-0.034-16.016,13.147-29,29.439-29S89.634,33.039,89.667,49.056z"/>
<g>
	<path fill="#FFFFFF" d="M45.811,65.866V35.381c0-1.039,0.842-1.881,1.881-1.881h3.385c0.787,0,1.49,0.489,1.764,1.227l7.367,19.861
		h0.055l7.231-19.85c0.271-0.743,0.977-1.237,1.767-1.237h3.654c1.039,0,1.881,0.842,1.881,1.881v30.485
		c0,1.039-0.842,1.881-1.881,1.881h-0.702c-1.039,0-1.881-0.842-1.881-1.881V38.358h-0.056l-7.567,20.914
		c-0.269,0.745-0.977,1.241-1.769,1.241h-1.976c-0.787,0-1.49-0.489-1.764-1.227l-7.533-20.314h-0.056v26.894
		c0,1.039-0.842,1.881-1.881,1.881h-0.038C46.654,67.747,45.811,66.905,45.811,65.866z"/>
</g>
<g display="none">
	<g display="inline">
		<circle fill="#FFFFFF" cx="81.227" cy="23.479" r="18.097"/>
		<path fill="#1290D9" d="M81.227,9.412c-7.757,0-14.068,6.31-14.068,14.067s6.311,14.068,14.068,14.068s14.068-6.311,14.068-14.068
			S88.983,9.412,81.227,9.412z"/>
	</g>
	<g display="inline">
		<path fill="#FFFFFF" d="M83.246,29.481c0,1.1-0.9,2-2,2h-0.038c-1.1,0-2-0.9-2-2v-12c0-1.1,0.9-2,2-2h0.038c1.1,0,2,0.9,2,2
			V29.481z"/>
	</g>
	<g display="inline">
		<path fill="#FFFFFF" d="M75.227,25.5c-1.1,0-2-0.9-2-2v-0.038c0-1.1,0.9-2,2-2h12c1.1,0,2,0.9,2,2V23.5c0,1.1-0.9,2-2,2H75.227z"
			/>
	</g>
</g>
</svg>
