<?xml version="1.0" encoding="utf-8"?>
<!-- Generator: Adobe Illustrator 17.0.1, SVG Export Plug-In . SVG Version: 6.00 Build 0)  -->
<!DOCTYPE svg PUBLIC "-//W3C//DTD SVG 1.1//EN" "http://www.w3.org/Graphics/SVG/1.1/DTD/svg11.dtd">
<svg version="1.1" xmlns="http://www.w3.org/2000/svg" xmlns:xlink="http://www.w3.org/1999/xlink" x="0px" y="0px" width="60px"
	 height="60px" viewBox="0 0 60 60" enable-background="new 0 0 60 60" xml:space="preserve">
<g id="hwy_disabled">
	<g id="hd">
		<path fill="#313131" d="M47.077,48.859c-0.276,0-0.5-0.224-0.5-0.5v-5.842c0-0.276,0.224-0.5,0.5-0.5h6.758
			c0.276,0,0.5,0.224,0.5,0.5v5.842c0,0.276-0.224,0.5-0.5,0.5H47.077z M6.165,48.859c-0.276,0-0.5-0.224-0.5-0.5v-5.842
			c0-0.276,0.224-0.5,0.5-0.5h5.989c0.276,0,0.5,0.224,0.5,0.5v5.842c0,0.276-0.224,0.5-0.5,0.5H6.165z M6.165,40.845
			c-0.276,0-0.5-0.224-0.5-0.5V30.45c0-0.276,0.224-0.5,0.5-0.5H49.4v-5.638c0-0.276,0.224-0.5,0.5-0.5h3.928
			c0.276,0,0.5,0.224,0.5,0.5v16.032c0,0.276-0.224,0.5-0.5,0.5H6.165z M37.135,28.84c-0.756,0-1.308-0.117-1.638-0.347
			c-0.798-0.554-1.134-1.964-1.264-2.755C33.784,23,34.22,18.509,36.927,14.863c3.117-4.198,8.044-5.723,10.596-5.723
			c0.88,0,1.541,0.163,1.966,0.484c1.781,1.343,2.242,8.649-1.446,13.618C44.994,27.349,39.849,28.84,37.135,28.84z"/>
		<path d="M47.523,9.641c0.749,0,1.333,0.132,1.664,0.382c1.374,1.036,2.156,7.934-1.546,12.922
			c-2.952,3.976-7.992,5.394-10.506,5.394c-0.639,0-1.115-0.092-1.352-0.256c-1.523-1.059-2.156-7.936,1.546-12.922
			C40.211,11.278,44.887,9.641,47.523,9.641 M53.828,24.312v6.138v5.741v4.154H6.165V30.45H49.9v-6.138H53.828 M53.835,42.518v5.841
			h-6.758v-5.841H53.835 M12.154,42.518v5.841H6.165v-5.841H12.154 M47.523,8.641C47.523,8.641,47.523,8.641,47.523,8.641
			c-2.653,0-7.771,1.578-10.998,5.924c-2.8,3.771-3.251,8.42-2.786,11.255c0.174,1.061,0.571,2.458,1.472,3.085
			c0.421,0.293,1.05,0.435,1.923,0.435c2.816,0,8.151-1.544,11.309-5.798c3.918-5.28,3.304-12.839,1.345-14.317
			C49.276,8.838,48.514,8.641,47.523,8.641L47.523,8.641z M53.828,23.312H49.9c-0.552,0-1,0.448-1,1v5.138H6.165
			c-0.552,0-1,0.448-1,1v9.894c0,0.552,0.448,1,1,1h47.663c0.552,0,1-0.448,1-1v-4.154V30.45v-6.138
			C54.828,23.76,54.38,23.312,53.828,23.312L53.828,23.312z M53.835,41.518h-6.758c-0.552,0-1,0.448-1,1v5.841c0,0.552,0.448,1,1,1
			h6.758c0.552,0,1-0.448,1-1v-5.841C54.835,41.965,54.387,41.518,53.835,41.518L53.835,41.518z M12.154,41.518H6.165
			c-0.552,0-1,0.448-1,1v5.841c0,0.552,0.448,1,1,1h5.989c0.552,0,1-0.448,1-1v-5.841C13.154,41.965,12.706,41.518,12.154,41.518
			L12.154,41.518z"/>
	</g>
</g>
<g id="hwy">
	<g id="h_1_">
		<path fill="#FFFFFF" d="M47.077,48.859c-0.276,0-0.5-0.224-0.5-0.5v-5.842c0-0.276,0.224-0.5,0.5-0.5h6.758
			c0.276,0,0.5,0.224,0.5,0.5v5.842c0,0.276-0.224,0.5-0.5,0.5H47.077z M6.165,48.859c-0.276,0-0.5-0.224-0.5-0.5v-5.842
			c0-0.276,0.224-0.5,0.5-0.5h5.989c0.276,0,0.5,0.224,0.5,0.5v5.842c0,0.276-0.224,0.5-0.5,0.5H6.165z M6.165,40.845
			c-0.276,0-0.5-0.224-0.5-0.5V30.45c0-0.276,0.224-0.5,0.5-0.5H49.4v-5.638c0-0.276,0.224-0.5,0.5-0.5h3.928
			c0.276,0,0.5,0.224,0.5,0.5v16.032c0,0.276-0.224,0.5-0.5,0.5H6.165z M37.135,28.84c-0.756,0-1.308-0.117-1.638-0.347
			c-0.798-0.554-1.134-1.964-1.264-2.755C33.784,23,34.22,18.509,36.927,14.863c3.117-4.198,8.044-5.723,10.596-5.723
			c0.88,0,1.541,0.163,1.966,0.484c1.781,1.343,2.242,8.649-1.446,13.618C44.994,27.349,39.849,28.84,37.135,28.84z"/>
		<path d="M47.523,9.641c0.749,0,1.333,0.132,1.664,0.382c1.374,1.036,2.156,7.934-1.546,12.922
			c-2.952,3.976-7.992,5.394-10.506,5.394c-0.639,0-1.115-0.092-1.352-0.256c-1.523-1.059-2.156-7.936,1.546-12.922
			C40.211,11.278,44.887,9.641,47.523,9.641 M53.828,24.312v6.138v5.741v4.154H6.165V30.45H49.9v-6.138H53.828 M53.835,42.518v5.841
			h-6.758v-5.841H53.835 M12.154,42.518v5.841H6.165v-5.841H12.154 M47.523,8.641C47.523,8.641,47.523,8.641,47.523,8.641
			c-2.653,0-7.771,1.578-10.998,5.924c-2.8,3.771-3.251,8.42-2.786,11.255c0.174,1.061,0.571,2.458,1.472,3.085
			c0.421,0.293,1.05,0.435,1.923,0.435c2.816,0,8.151-1.544,11.309-5.798c3.918-5.28,3.304-12.839,1.345-14.317
			C49.276,8.838,48.514,8.641,47.523,8.641L47.523,8.641z M53.828,23.312H49.9c-0.552,0-1,0.448-1,1v5.138H6.165
			c-0.552,0-1,0.448-1,1v9.894c0,0.552,0.448,1,1,1h47.663c0.552,0,1-0.448,1-1v-4.154V30.45v-6.138
			C54.828,23.76,54.38,23.312,53.828,23.312L53.828,23.312z M53.835,41.518h-6.758c-0.552,0-1,0.448-1,1v5.841c0,0.552,0.448,1,1,1
			h6.758c0.552,0,1-0.448,1-1v-5.841C54.835,41.965,54.387,41.518,53.835,41.518L53.835,41.518z M12.154,41.518H6.165
			c-0.552,0-1,0.448-1,1v5.841c0,0.552,0.448,1,1,1h5.989c0.552,0,1-0.448,1-1v-5.841C13.154,41.965,12.706,41.518,12.154,41.518
			L12.154,41.518z"/>
	</g>
</g>
<g id="group">
	<path id="g" fill="#FFFFFF" d="M47.077,48.359v-5.841h6.758v5.841H47.077L47.077,48.359z M6.165,30.45H49.9v-6.138h3.928v6.138
		v5.741v4.154H6.165V30.45L6.165,30.45z M35.783,28.083c-1.523-1.059-2.156-7.936,1.546-12.922s10.361-6.269,11.858-5.138
		c1.374,1.036,2.156,7.934-1.546,12.922C43.939,27.932,36.951,28.895,35.783,28.083L35.783,28.083z M12.154,48.359H6.165v-5.841
		h5.989V48.359L12.154,48.359z"/>
</g>
<g id="disabled">
	<path id="d_1_" fill="#FFFFFF" d="M47.077,48.359v-5.841h6.758v5.841H47.077L47.077,48.359z M6.165,30.45H49.9v-6.138h3.928
		v6.138v5.741v4.154H6.165V30.45L6.165,30.45z M35.783,28.083c-1.523-1.059-2.156-7.936,1.546-12.922s10.361-6.269,11.858-5.138
		c1.374,1.036,2.156,7.934-1.546,12.922C43.939,27.932,36.951,28.895,35.783,28.083L35.783,28.083z M12.154,48.359H6.165v-5.841
		h5.989V48.359L12.154,48.359z"/>
</g>
<g id="normal">
	<path id="n" fill="#FFFFFF" d="M47.077,48.359v-5.841h6.758v5.841H47.077L47.077,48.359z M6.165,30.45H49.9v-6.138h3.928v6.138
		v5.741v4.154H6.165V30.45L6.165,30.45z M35.783,28.083c-1.523-1.059-2.156-7.936,1.546-12.922s10.361-6.269,11.858-5.138
		c1.374,1.036,2.156,7.934-1.546,12.922C43.939,27.932,36.951,28.895,35.783,28.083L35.783,28.083z M12.154,48.359H6.165v-5.841
		h5.989V48.359L12.154,48.359z"/>
</g>
</svg>
