<?xml version="1.0" encoding="utf-8"?>
<!-- Generator: Adobe Illustrator 17.0.1, SVG Export Plug-In . SVG Version: 6.00 Build 0)  -->
<!DOCTYPE svg PUBLIC "-//W3C//DTD SVG 1.1//EN" "http://www.w3.org/Graphics/SVG/1.1/DTD/svg11.dtd">
<svg version="1.1" xmlns="http://www.w3.org/2000/svg" xmlns:xlink="http://www.w3.org/1999/xlink" x="0px" y="0px" width="60px"
	 height="60px" viewBox="0 0 60 60" enable-background="new 0 0 60 60" xml:space="preserve">
<g id="hwy_disabled">
	<g id="hd">
		<path fill="#313131" d="M41.429,52.954c-5.921,0-11.073-3.843-12.817-9.563c-0.06-0.194,0.005-0.406,0.164-0.534
			c2.966-2.4,4.667-5.968,4.667-9.787l-0.11-3.608c-0.004-0.151,0.059-0.296,0.173-0.394c0.092-0.079,0.208-0.122,0.327-0.122
			c0.029,0,0.058,0.003,0.087,0.008c0.397,0.051,0.778,0.073,1.162,0.073c2.533,0,4.425-0.973,4.425-1.842s-1.892-1.841-4.425-1.841
			c-0.435,0-0.868,0.028-1.289,0.084c-0.016,0.001-0.033,0.002-0.05,0.002c-0.125,0-0.262-0.041-0.353-0.121
			c-0.104-0.092-0.19-0.217-0.194-0.354l-0.255-8.405c-0.005-0.186,0.092-0.358,0.252-0.45c0.077-0.044,0.162-0.065,0.248-0.065
			c0.093,0,0.186,0.026,0.268,0.077c1.878,1.189,4.893,2.461,7.72,2.461c2.812,0,5.402-1.188,7.483-2.142
			c1.522-0.698,2.724-1.25,3.721-1.25c1.865,0,2.167,1.897,2.233,3.324l0,20.902C54.867,46.877,48.839,52.954,41.429,52.954z
			 M41.488,39.572c-3.158,0-7.164,2.229-7.164,4.735c0,0.563,0.143,0.563,0.324,0.563c0.46,0,1.259-0.324,2.105-0.668
			c1.295-0.525,2.907-1.179,4.471-1.179c1.511,0,3.044,0.563,4.397,1.06c0.89,0.327,1.731,0.636,2.24,0.636
			c0.234,0,0.419,0,0.419-0.602C48.28,41.558,44.629,39.572,41.488,39.572z M46.974,25.344c-2.531,0-4.423,0.972-4.423,1.841
			s1.892,1.842,4.423,1.842s4.423-0.973,4.423-1.842S49.505,25.344,46.974,25.344z M19.371,45.929
			c-7.41,0-13.438-6.077-13.438-13.548V11.502c0-1.862,0.725-2.806,2.155-2.806c0.979,0,2.256,0.44,3.736,0.95
			c2.112,0.729,4.742,1.635,7.547,1.635c2.881,0,5.604-0.936,7.792-1.687c1.543-0.53,2.762-0.949,3.707-0.949
			c0.869,0,1.904,0.387,1.904,2.231l0.035,18.618c0.002,0.02,0.004,0.041,0.004,0.062l0.005,2.627
			c0.03,3.89-1.246,7.142-3.792,9.661c-0.044,0.044-0.095,0.078-0.149,0.102c-0.51,0.514-1.085,1.002-1.713,1.456
			c-0.21,0.148-0.417,0.285-0.627,0.417l-0.173,0.107c-0.224,0.139-0.457,0.276-0.689,0.405
			C23.705,45.393,21.586,45.929,19.371,45.929z M12.695,31.315c0.003,0.003-0.058,0.097-0.058,0.419
			c0,2.563,3.618,5.483,6.792,5.483c3.38,0,7.535-2.92,7.535-5.296c0-0.453-0.103-0.453-0.245-0.453c-0.489,0-1.398,0.423-2.36,0.87
			c-1.446,0.673-3.246,1.51-4.88,1.51c-1.721,0-3.443-0.939-4.827-1.694c-0.76-0.415-1.546-0.844-1.908-0.844
			C12.714,31.31,12.7,31.313,12.695,31.315z M14.275,19.346c-2.533,0-4.425,0.973-4.425,1.843c0,0.869,1.892,1.841,4.425,1.841
			c2.531,0,4.423-0.972,4.423-1.841C18.698,20.319,16.807,19.346,14.275,19.346z M25.165,19.01c-2.531,0-4.423,0.973-4.423,1.843
			c0,0.869,1.892,1.842,4.423,1.842c2.533,0,4.425-0.973,4.425-1.842C29.59,19.983,27.698,19.01,25.165,19.01z"/>
		<path d="M30.869,9.146c0.895,0,1.404,0.452,1.404,1.731l0.035,17.134v1.545c0.002,0.002,0.002,0.002,0.004,0.002l0.005,2.627
			c0.033,4.284-1.565,7.248-3.644,9.304c-0.002-0.015-0.005-0.029-0.009-0.042c-0.547,0.571-1.152,1.086-1.794,1.55
			c-0.198,0.139-0.398,0.272-0.6,0.398c-0.053,0.033-0.106,0.068-0.161,0.101c-0.226,0.139-0.451,0.273-0.677,0.398
			c-1.809,0.974-3.868,1.534-6.06,1.534c-7.145,0-12.937-5.842-12.937-13.048V11.503c0-1.722,0.601-2.306,1.655-2.306
			c2.217,0,6.439,2.585,11.283,2.585C24.298,11.781,28.709,9.146,30.869,9.146 M25.165,23.194c2.719,0,4.925-1.048,4.925-2.341
			c0-1.294-2.205-2.343-4.925-2.343s-4.923,1.05-4.923,2.343C20.242,22.146,22.446,23.194,25.165,23.194 M14.275,23.53
			c2.719,0,4.923-1.048,4.923-2.341c0-1.294-2.204-2.343-4.923-2.343c-2.719,0-4.925,1.05-4.925,2.343
			C9.351,22.482,11.556,23.53,14.275,23.53 M19.429,37.717c3.514,0,8.035-3.009,8.035-5.796c0-0.693-0.276-0.953-0.745-0.953
			c-1.418,0-4.6,2.38-7.24,2.38c-2.669,0-5.519-2.539-6.735-2.539c-0.385,0-0.606,0.254-0.606,0.924
			C12.138,34.521,15.916,37.717,19.429,37.717 M52.634,15.68c1.021,0,1.636,0.725,1.733,2.846v20.88
			c0,7.205-5.793,13.048-12.937,13.048c-5.818,0-10.714-3.881-12.339-9.209c2.956-2.393,4.853-6.059,4.853-10.176l-0.11-3.624
			c0.022,0.004,0.035,0.009,0.057,0.011c0.382,0.046,0.782,0.07,1.193,0.07c2.719,0,4.925-1.05,4.925-2.341
			c0-1.294-2.205-2.341-4.925-2.341c-0.47,0-0.925,0.031-1.354,0.088c-0.013,0.002-0.02,0.005-0.031,0.007l-0.255-8.405
			c2.127,1.347,5.207,2.538,7.987,2.538C46.315,19.071,50.425,15.68,52.634,15.68 M46.974,29.526c2.719,0,4.923-1.05,4.923-2.341
			c0-1.294-2.204-2.341-4.923-2.341c-2.719,0-4.923,1.048-4.923,2.341C42.051,28.477,44.255,29.526,46.974,29.526 M34.648,45.371
			c1.327,0,4.047-1.846,6.576-1.846c2.488,0,5.242,1.696,6.637,1.696c0.575,0,0.919-0.288,0.919-1.101
			c0-2.787-3.778-5.046-7.292-5.046c-3.516,0-7.664,2.448-7.664,5.235C33.824,45.089,34.13,45.371,34.648,45.371 M30.869,8.146
			c-1.028,0-2.282,0.431-3.869,0.976c-2.153,0.74-4.832,1.66-7.63,1.66c-2.721,0-5.307-0.891-7.384-1.607
			C10.402,8.628,9.15,8.196,8.088,8.196c-1.211,0-2.655,0.574-2.655,3.306v20.879c0,7.746,6.252,14.048,13.937,14.048
			c2.299,0,4.497-0.556,6.535-1.654c0.249-0.138,0.489-0.28,0.729-0.428l0.11-0.068l0.053-0.033c0.221-0.139,0.436-0.281,0.648-0.43
			c0.223-0.161,0.439-0.326,0.647-0.494c0.006,0.072,0.019,0.145,0.041,0.216c1.81,5.932,7.153,9.917,13.296,9.917
			c7.685,0,13.937-6.302,13.937-14.048v-20.88c-0.116-2.568-1.035-3.846-2.733-3.846c0,0,0,0,0,0c-1.106,0-2.352,0.571-3.93,1.295
			c-2.037,0.934-4.572,2.097-7.275,2.097c-2.721,0-5.633-1.231-7.452-2.382c-0.163-0.103-0.349-0.155-0.535-0.155
			c-0.053,0-0.106,0.004-0.159,0.013l-0.01-4.672C33.273,8.412,31.592,8.146,30.869,8.146L30.869,8.146z M25.165,22.194
			c-2.548,0-3.923-0.952-3.923-1.341c0-0.39,1.375-1.343,3.923-1.343c2.549,0,3.925,0.953,3.925,1.343
			C29.09,21.242,27.715,22.194,25.165,22.194L25.165,22.194z M14.275,22.53c-2.549,0-3.925-0.952-3.925-1.341
			c0-0.39,1.375-1.343,3.925-1.343c2.548,0,3.923,0.953,3.923,1.343C18.198,21.578,16.824,22.53,14.275,22.53L14.275,22.53z
			 M46.974,28.526c-2.548,0-3.923-0.952-3.923-1.341c0-0.389,1.375-1.341,3.923-1.341c2.548,0,3.923,0.952,3.923,1.341
			C50.897,27.574,49.522,28.526,46.974,28.526L46.974,28.526z M33.905,25.917c0.378-0.048,0.777-0.074,1.178-0.074
			c2.549,0,3.925,0.952,3.925,1.341c0,0.389-1.375,1.341-3.925,1.341c-0.354,0-0.704-0.02-1.039-0.059
			c-0.014-0.003-0.03-0.006-0.046-0.009c-0.055-0.009-0.11-0.014-0.165-0.014c-0.185,0-0.367,0.052-0.525,0.149v-0.584l-0.004-2.152
			c0.124,0.053,0.258,0.081,0.393,0.081c0.054,0,0.109-0.004,0.163-0.013C33.874,25.923,33.889,25.921,33.905,25.917L33.905,25.917z
			 M19.429,36.717c-3.019,0-6.084-2.712-6.282-4.776c0.363,0.159,0.864,0.432,1.265,0.651c1.434,0.782,3.218,1.756,5.066,1.756
			c1.745,0,3.6-0.863,5.091-1.557c0.68-0.316,1.433-0.667,1.892-0.784C26.356,34.101,22.477,36.717,19.429,36.717L19.429,36.717z
			 M34.824,44.352c0-0.014-0.001-0.029-0.001-0.045c0-2.018,3.488-4.235,6.664-4.235c3.175,0,6.292,2.004,6.292,4.046
			c0,0.037-0.001,0.07-0.003,0.098c-0.441-0.035-1.224-0.323-1.983-0.602c-1.323-0.486-2.969-1.091-4.57-1.091
			c-1.662,0-3.324,0.674-4.659,1.216C35.937,43.995,35.238,44.278,34.824,44.352L34.824,44.352z"/>
	</g>
</g>
<g id="hwy">
	<g id="h_2_">
		<path fill="#FFFFFF" d="M41.429,52.954c-5.921,0-11.073-3.843-12.817-9.563c-0.06-0.194,0.005-0.406,0.164-0.534
			c2.966-2.4,4.667-5.968,4.667-9.787l-0.11-3.608c-0.004-0.151,0.059-0.296,0.173-0.394c0.092-0.079,0.208-0.122,0.327-0.122
			c0.029,0,0.058,0.003,0.087,0.008c0.397,0.051,0.778,0.073,1.162,0.073c2.533,0,4.425-0.973,4.425-1.842s-1.892-1.841-4.425-1.841
			c-0.435,0-0.868,0.028-1.289,0.084c-0.016,0.001-0.033,0.002-0.05,0.002c-0.125,0-0.262-0.041-0.353-0.121
			c-0.104-0.092-0.19-0.217-0.194-0.354l-0.255-8.405c-0.005-0.186,0.092-0.358,0.252-0.45c0.077-0.044,0.162-0.065,0.248-0.065
			c0.093,0,0.186,0.026,0.268,0.077c1.878,1.189,4.893,2.461,7.72,2.461c2.812,0,5.402-1.188,7.483-2.142
			c1.522-0.698,2.724-1.25,3.721-1.25c1.865,0,2.167,1.897,2.233,3.324l0,20.902C54.867,46.877,48.839,52.954,41.429,52.954z
			 M41.488,39.572c-3.158,0-7.164,2.229-7.164,4.735c0,0.563,0.143,0.563,0.324,0.563c0.46,0,1.259-0.324,2.105-0.668
			c1.295-0.525,2.907-1.179,4.471-1.179c1.511,0,3.044,0.563,4.397,1.06c0.89,0.327,1.731,0.636,2.24,0.636
			c0.234,0,0.419,0,0.419-0.602C48.28,41.558,44.629,39.572,41.488,39.572z M46.974,25.344c-2.531,0-4.423,0.972-4.423,1.841
			s1.892,1.842,4.423,1.842s4.423-0.973,4.423-1.842S49.505,25.344,46.974,25.344z M19.371,45.929
			c-7.41,0-13.438-6.077-13.438-13.548V11.502c0-1.862,0.725-2.806,2.155-2.806c0.979,0,2.256,0.44,3.736,0.95
			c2.112,0.729,4.742,1.635,7.547,1.635c2.881,0,5.604-0.936,7.792-1.687c1.543-0.53,2.762-0.949,3.707-0.949
			c0.869,0,1.904,0.387,1.904,2.231l0.035,18.618c0.002,0.02,0.004,0.041,0.004,0.062l0.005,2.627
			c0.03,3.89-1.246,7.142-3.792,9.661c-0.044,0.044-0.095,0.078-0.149,0.102c-0.51,0.514-1.085,1.002-1.713,1.456
			c-0.21,0.148-0.417,0.285-0.627,0.417l-0.173,0.107c-0.224,0.139-0.457,0.276-0.689,0.405
			C23.705,45.393,21.586,45.929,19.371,45.929z M12.695,31.315c0.003,0.003-0.058,0.097-0.058,0.419
			c0,2.563,3.618,5.483,6.792,5.483c3.38,0,7.535-2.92,7.535-5.296c0-0.453-0.103-0.453-0.245-0.453c-0.489,0-1.398,0.423-2.36,0.87
			c-1.446,0.673-3.246,1.51-4.88,1.51c-1.721,0-3.443-0.939-4.827-1.694c-0.76-0.415-1.546-0.844-1.908-0.844
			C12.714,31.31,12.7,31.313,12.695,31.315z M14.275,19.346c-2.533,0-4.425,0.973-4.425,1.843c0,0.869,1.892,1.841,4.425,1.841
			c2.531,0,4.423-0.972,4.423-1.841C18.698,20.319,16.807,19.346,14.275,19.346z M25.165,19.01c-2.531,0-4.423,0.973-4.423,1.843
			c0,0.869,1.892,1.842,4.423,1.842c2.533,0,4.425-0.973,4.425-1.842C29.59,19.983,27.698,19.01,25.165,19.01z"/>
		<path d="M30.869,9.146c0.895,0,1.404,0.452,1.404,1.731l0.035,17.134v1.545c0.002,0.002,0.002,0.002,0.004,0.002l0.005,2.627
			c0.033,4.284-1.565,7.248-3.644,9.304c-0.002-0.015-0.005-0.029-0.009-0.042c-0.547,0.571-1.152,1.086-1.794,1.55
			c-0.198,0.139-0.398,0.272-0.6,0.398c-0.053,0.033-0.106,0.068-0.161,0.101c-0.226,0.139-0.451,0.273-0.677,0.398
			c-1.809,0.974-3.868,1.534-6.06,1.534c-7.145,0-12.937-5.842-12.937-13.048V11.503c0-1.722,0.601-2.306,1.655-2.306
			c2.217,0,6.439,2.585,11.283,2.585C24.298,11.781,28.709,9.146,30.869,9.146 M25.165,23.194c2.719,0,4.925-1.048,4.925-2.341
			c0-1.294-2.205-2.343-4.925-2.343s-4.923,1.05-4.923,2.343C20.242,22.146,22.446,23.194,25.165,23.194 M14.275,23.53
			c2.719,0,4.923-1.048,4.923-2.341c0-1.294-2.204-2.343-4.923-2.343c-2.719,0-4.925,1.05-4.925,2.343
			C9.351,22.482,11.556,23.53,14.275,23.53 M19.429,37.717c3.514,0,8.035-3.009,8.035-5.796c0-0.693-0.276-0.953-0.745-0.953
			c-1.418,0-4.6,2.38-7.24,2.38c-2.669,0-5.519-2.539-6.735-2.539c-0.385,0-0.606,0.254-0.606,0.924
			C12.138,34.521,15.916,37.717,19.429,37.717 M52.634,15.68c1.021,0,1.636,0.725,1.733,2.846v20.88
			c0,7.205-5.793,13.048-12.937,13.048c-5.818,0-10.714-3.881-12.339-9.209c2.956-2.393,4.853-6.059,4.853-10.176l-0.11-3.624
			c0.022,0.004,0.035,0.009,0.057,0.011c0.382,0.046,0.782,0.07,1.193,0.07c2.719,0,4.925-1.05,4.925-2.341
			c0-1.294-2.205-2.341-4.925-2.341c-0.47,0-0.925,0.031-1.354,0.088c-0.013,0.002-0.02,0.005-0.031,0.007l-0.255-8.405
			c2.127,1.347,5.207,2.538,7.987,2.538C46.315,19.071,50.425,15.68,52.634,15.68 M46.974,29.526c2.719,0,4.923-1.05,4.923-2.341
			c0-1.294-2.204-2.341-4.923-2.341c-2.719,0-4.923,1.048-4.923,2.341C42.051,28.477,44.255,29.526,46.974,29.526 M34.648,45.371
			c1.327,0,4.047-1.846,6.576-1.846c2.488,0,5.242,1.696,6.637,1.696c0.575,0,0.919-0.288,0.919-1.101
			c0-2.787-3.778-5.046-7.292-5.046c-3.516,0-7.664,2.448-7.664,5.235C33.824,45.089,34.13,45.371,34.648,45.371 M30.869,8.146
			c-1.028,0-2.282,0.431-3.869,0.976c-2.153,0.74-4.832,1.66-7.63,1.66c-2.721,0-5.307-0.891-7.384-1.607
			C10.402,8.628,9.15,8.196,8.088,8.196c-1.211,0-2.655,0.574-2.655,3.306v20.879c0,7.746,6.252,14.048,13.937,14.048
			c2.299,0,4.497-0.556,6.535-1.654c0.249-0.138,0.489-0.28,0.729-0.428l0.11-0.068l0.053-0.033c0.221-0.139,0.436-0.281,0.648-0.43
			c0.223-0.161,0.439-0.326,0.647-0.494c0.006,0.072,0.019,0.145,0.041,0.216c1.81,5.932,7.153,9.917,13.296,9.917
			c7.685,0,13.937-6.302,13.937-14.048v-20.88c-0.116-2.568-1.035-3.846-2.733-3.846c0,0,0,0,0,0c-1.106,0-2.352,0.571-3.93,1.295
			c-2.037,0.934-4.572,2.097-7.275,2.097c-2.721,0-5.633-1.231-7.452-2.382c-0.163-0.103-0.349-0.155-0.535-0.155
			c-0.053,0-0.106,0.004-0.159,0.013l-0.01-4.672C33.273,8.412,31.592,8.146,30.869,8.146L30.869,8.146z M25.165,22.194
			c-2.548,0-3.923-0.952-3.923-1.341c0-0.39,1.375-1.343,3.923-1.343c2.549,0,3.925,0.953,3.925,1.343
			C29.09,21.242,27.715,22.194,25.165,22.194L25.165,22.194z M14.275,22.53c-2.549,0-3.925-0.952-3.925-1.341
			c0-0.39,1.375-1.343,3.925-1.343c2.548,0,3.923,0.953,3.923,1.343C18.198,21.578,16.824,22.53,14.275,22.53L14.275,22.53z
			 M46.974,28.526c-2.548,0-3.923-0.952-3.923-1.341c0-0.389,1.375-1.341,3.923-1.341c2.548,0,3.923,0.952,3.923,1.341
			C50.897,27.574,49.522,28.526,46.974,28.526L46.974,28.526z M33.905,25.917c0.378-0.048,0.777-0.074,1.178-0.074
			c2.549,0,3.925,0.952,3.925,1.341c0,0.389-1.375,1.341-3.925,1.341c-0.354,0-0.704-0.02-1.039-0.059
			c-0.014-0.003-0.03-0.006-0.046-0.009c-0.055-0.009-0.11-0.014-0.165-0.014c-0.185,0-0.367,0.052-0.525,0.149v-0.584l-0.004-2.152
			c0.124,0.053,0.258,0.081,0.393,0.081c0.054,0,0.109-0.004,0.163-0.013C33.874,25.923,33.889,25.921,33.905,25.917L33.905,25.917z
			 M19.429,36.717c-3.019,0-6.084-2.712-6.282-4.776c0.363,0.159,0.864,0.432,1.265,0.651c1.434,0.782,3.218,1.756,5.066,1.756
			c1.745,0,3.6-0.863,5.091-1.557c0.68-0.316,1.433-0.667,1.892-0.784C26.356,34.101,22.477,36.717,19.429,36.717L19.429,36.717z
			 M34.824,44.352c0-0.014-0.001-0.029-0.001-0.045c0-2.018,3.488-4.235,6.664-4.235c3.175,0,6.292,2.004,6.292,4.046
			c0,0.037-0.001,0.07-0.003,0.098c-0.441-0.035-1.224-0.323-1.983-0.602c-1.323-0.486-2.969-1.091-4.57-1.091
			c-1.662,0-3.324,0.674-4.659,1.216C35.937,43.995,35.238,44.278,34.824,44.352L34.824,44.352z"/>
	</g>
</g>
<g id="group">
	<path id="g" fill="#FFFFFF" d="M41.429,52.454c-5.818,0-10.714-3.881-12.339-9.209c2.956-2.393,4.853-6.059,4.853-10.176
		l-0.11-3.624c0.022,0.004,0.035,0.009,0.057,0.011c0.382,0.046,0.782,0.07,1.193,0.07c2.719,0,4.925-1.05,4.925-2.341
		c0-1.294-2.205-2.341-4.925-2.341c-0.47,0-0.925,0.031-1.354,0.088c-0.013,0.002-0.02,0.005-0.031,0.007l-0.255-8.405
		c2.127,1.347,5.207,2.538,7.987,2.538c7.145,0,12.631-7.253,12.937-0.545v20.88C54.367,46.612,48.574,52.454,41.429,52.454
		L41.429,52.454z M33.824,44.308c0,2.785,3.884-0.783,7.4-0.783c3.514,0,7.556,3.382,7.556,0.594c0-2.787-3.778-5.046-7.292-5.046
		C37.972,39.073,33.824,41.521,33.824,44.308L33.824,44.308z M46.974,24.844c-2.719,0-4.923,1.048-4.923,2.341
		c0,1.292,2.204,2.341,4.923,2.341c2.719,0,4.923-1.05,4.923-2.341C51.897,25.891,49.693,24.844,46.974,24.844L46.974,24.844z
		 M28.664,41.447c-0.547,0.571-1.152,1.086-1.794,1.55c-0.198,0.139-0.398,0.272-0.6,0.398c-0.053,0.033-0.106,0.068-0.161,0.101
		c-0.226,0.139-0.451,0.273-0.677,0.398c-1.809,0.974-3.868,1.534-6.06,1.534c-7.145,0-12.937-5.842-12.937-13.048V11.503
		c0-5.347,5.793,0.279,12.937,0.279c6.969,0,12.903-5.271,12.903-0.905l0.035,17.134v1.545c0.002,0.002,0.002,0.002,0.004,0.002
		l0.005,2.627c0.033,4.284-1.565,7.248-3.644,9.304C28.672,41.475,28.668,41.46,28.664,41.447L28.664,41.447z M14.275,18.846
		c-2.719,0-4.925,1.05-4.925,2.343c0,1.294,2.205,2.341,4.925,2.341c2.719,0,4.923-1.048,4.923-2.341
		C19.198,19.895,16.995,18.846,14.275,18.846L14.275,18.846z M12.138,31.733c0,2.787,3.778,5.983,7.292,5.983
		c3.514,0,8.035-3.009,8.035-5.796s-4.472,1.428-7.985,1.428C15.965,33.348,12.138,28.948,12.138,31.733L12.138,31.733z
		 M30.09,20.853c0-1.294-2.205-2.343-4.925-2.343s-4.923,1.05-4.923,2.343c0,1.294,2.204,2.341,4.923,2.341
		S30.09,22.146,30.09,20.853L30.09,20.853z"/>
</g>
<g id="disabled">
	<path id="d_2_" fill="#FFFFFF" d="M41.429,52.454c-5.818,0-10.714-3.881-12.339-9.209c2.956-2.393,4.853-6.059,4.853-10.176
		l-0.11-3.624c0.022,0.004,0.035,0.009,0.057,0.011c0.382,0.046,0.782,0.07,1.193,0.07c2.719,0,4.925-1.05,4.925-2.341
		c0-1.294-2.205-2.341-4.925-2.341c-0.47,0-0.925,0.031-1.354,0.088c-0.013,0.002-0.02,0.005-0.031,0.007l-0.255-8.405
		c2.127,1.347,5.207,2.538,7.987,2.538c7.145,0,12.631-7.253,12.937-0.545v20.88C54.367,46.612,48.574,52.454,41.429,52.454
		L41.429,52.454z M33.824,44.308c0,2.785,3.884-0.783,7.4-0.783c3.514,0,7.556,3.382,7.556,0.594c0-2.787-3.778-5.046-7.292-5.046
		C37.972,39.073,33.824,41.521,33.824,44.308L33.824,44.308z M46.974,24.844c-2.719,0-4.923,1.048-4.923,2.341
		c0,1.292,2.204,2.341,4.923,2.341c2.719,0,4.923-1.05,4.923-2.341C51.897,25.891,49.693,24.844,46.974,24.844L46.974,24.844z
		 M28.664,41.447c-0.547,0.571-1.152,1.086-1.794,1.55c-0.198,0.139-0.398,0.272-0.6,0.398c-0.053,0.033-0.106,0.068-0.161,0.101
		c-0.226,0.139-0.451,0.273-0.677,0.398c-1.809,0.974-3.868,1.534-6.06,1.534c-7.145,0-12.937-5.842-12.937-13.048V11.503
		c0-5.347,5.793,0.279,12.937,0.279c6.969,0,12.903-5.271,12.903-0.905l0.035,17.134v1.545c0.002,0.002,0.002,0.002,0.004,0.002
		l0.005,2.627c0.033,4.284-1.565,7.248-3.644,9.304C28.672,41.475,28.668,41.46,28.664,41.447L28.664,41.447z M14.275,18.846
		c-2.719,0-4.925,1.05-4.925,2.343c0,1.294,2.205,2.341,4.925,2.341c2.719,0,4.923-1.048,4.923-2.341
		C19.198,19.895,16.995,18.846,14.275,18.846L14.275,18.846z M12.138,31.733c0,2.787,3.778,5.983,7.292,5.983
		c3.514,0,8.035-3.009,8.035-5.796s-4.472,1.428-7.985,1.428C15.965,33.348,12.138,28.948,12.138,31.733L12.138,31.733z
		 M30.09,20.853c0-1.294-2.205-2.343-4.925-2.343s-4.923,1.05-4.923,2.343c0,1.294,2.204,2.341,4.923,2.341
		S30.09,22.146,30.09,20.853L30.09,20.853z"/>
</g>
<g id="normal">
	<path id="n" fill="#FFFFFF" d="M41.429,52.454c-5.818,0-10.714-3.881-12.339-9.209c2.956-2.393,4.853-6.059,4.853-10.176
		l-0.11-3.624c0.022,0.004,0.035,0.009,0.057,0.011c0.382,0.046,0.782,0.07,1.193,0.07c2.719,0,4.925-1.05,4.925-2.341
		c0-1.294-2.205-2.341-4.925-2.341c-0.47,0-0.925,0.031-1.354,0.088c-0.013,0.002-0.02,0.005-0.031,0.007l-0.255-8.405
		c2.127,1.347,5.207,2.538,7.987,2.538c7.145,0,12.631-7.253,12.937-0.545v20.88C54.367,46.612,48.574,52.454,41.429,52.454
		L41.429,52.454z M33.824,44.308c0,2.785,3.884-0.783,7.4-0.783c3.514,0,7.556,3.382,7.556,0.594c0-2.787-3.778-5.046-7.292-5.046
		C37.972,39.073,33.824,41.521,33.824,44.308L33.824,44.308z M46.974,24.844c-2.719,0-4.923,1.048-4.923,2.341
		c0,1.292,2.204,2.341,4.923,2.341c2.719,0,4.923-1.05,4.923-2.341C51.897,25.891,49.693,24.844,46.974,24.844L46.974,24.844z
		 M28.664,41.447c-0.547,0.571-1.152,1.086-1.794,1.55c-0.198,0.139-0.398,0.272-0.6,0.398c-0.053,0.033-0.106,0.068-0.161,0.101
		c-0.226,0.139-0.451,0.273-0.677,0.398c-1.809,0.974-3.868,1.534-6.06,1.534c-7.145,0-12.937-5.842-12.937-13.048V11.503
		c0-5.347,5.793,0.279,12.937,0.279c6.969,0,12.903-5.271,12.903-0.905l0.035,17.134v1.545c0.002,0.002,0.002,0.002,0.004,0.002
		l0.005,2.627c0.033,4.284-1.565,7.248-3.644,9.304C28.672,41.475,28.668,41.46,28.664,41.447L28.664,41.447z M14.275,18.846
		c-2.719,0-4.925,1.05-4.925,2.343c0,1.294,2.205,2.341,4.925,2.341c2.719,0,4.923-1.048,4.923-2.341
		C19.198,19.895,16.995,18.846,14.275,18.846L14.275,18.846z M12.138,31.733c0,2.787,3.778,5.983,7.292,5.983
		c3.514,0,8.035-3.009,8.035-5.796s-4.472,1.428-7.985,1.428C15.965,33.348,12.138,28.948,12.138,31.733L12.138,31.733z
		 M30.09,20.853c0-1.294-2.205-2.343-4.925-2.343s-4.923,1.05-4.923,2.343c0,1.294,2.204,2.341,4.923,2.341
		S30.09,22.146,30.09,20.853L30.09,20.853z"/>
</g>
</svg>
