<?xml version="1.0" encoding="utf-8"?>
<!-- Generator: Adobe Illustrator 17.0.1, SVG Export Plug-In . SVG Version: 6.00 Build 0)  -->
<!DOCTYPE svg PUBLIC "-//W3C//DTD SVG 1.1//EN" "http://www.w3.org/Graphics/SVG/1.1/DTD/svg11.dtd">
<svg version="1.1" xmlns="http://www.w3.org/2000/svg" xmlns:xlink="http://www.w3.org/1999/xlink" x="0px" y="0px" width="60px"
	 height="60px" viewBox="0 0 60 60" enable-background="new 0 0 60 60" xml:space="preserve">
<g id="hwy_disabled">
	<g id="hd">
		<path fill="#313131" d="M19.392,57.272c-0.106,0-0.211-0.034-0.299-0.1c-0.143-0.106-0.218-0.282-0.197-0.459l0.933-7.865
			c0.018-0.154,0.107-0.291,0.24-0.37l5.168-3.094l-0.15-10.532L6.228,43.23c-0.065,0.028-0.134,0.043-0.203,0.043
			c-0.095,0-0.188-0.026-0.271-0.079c-0.142-0.092-0.228-0.248-0.229-0.416L5.44,33.517c-0.001-0.167,0.08-0.323,0.218-0.418
			l19.294-13.181c0.047-1.922,0.345-13.334,0.815-15.146c0.508-1.965,2.492-2.844,4.232-2.844c1.74,0,3.724,0.879,4.232,2.844
			c0.472,1.813,0.771,13.225,0.817,15.146l19.294,13.181c0.138,0.095,0.219,0.251,0.218,0.418l-0.087,9.262
			c-0.001,0.168-0.088,0.324-0.229,0.416c-0.082,0.053-0.176,0.079-0.271,0.079c-0.069,0-0.138-0.015-0.203-0.043l-18.857-8.378
			l-0.148,10.532l5.166,3.094c0.133,0.079,0.221,0.216,0.24,0.37l0.935,7.865c0.021,0.177-0.054,0.353-0.197,0.459
			c-0.088,0.065-0.193,0.1-0.299,0.1c-0.067,0-0.134-0.014-0.197-0.041l-7.542-3.242h-5.737l-7.542,3.242
			C19.526,57.259,19.459,57.272,19.392,57.272z"/>
		<path d="M29.999,2.428c1.661,0,3.322,0.823,3.748,2.469c0.496,1.905,0.807,15.29,0.807,15.29L54.06,33.511l-0.087,9.262
			l-19.55-8.686L34.26,45.666l5.413,3.241l0.935,7.865l-7.636-3.283h-5.943l-7.636,3.283l0.933-7.865l5.415-3.241l-0.165-11.579
			l-19.55,8.686L5.94,33.511l19.505-13.325c0,0,0.312-13.384,0.805-15.29C26.677,3.251,28.338,2.428,29.999,2.428 M29.999,1.428
			c-2.323,0-4.218,1.293-4.716,3.218c-0.468,1.807-0.757,12.291-0.825,15.004L5.376,32.686C5.1,32.874,4.937,33.187,4.94,33.52
			l0.085,9.262c0.003,0.337,0.176,0.649,0.459,0.832c0.164,0.105,0.352,0.159,0.541,0.159c0.138,0,0.276-0.028,0.406-0.086
			l18.166-8.071l0.135,9.488l-4.921,2.945c-0.266,0.159-0.443,0.433-0.48,0.74l-0.933,7.865c-0.042,0.355,0.108,0.705,0.395,0.919
			c0.176,0.131,0.386,0.199,0.598,0.199c0.134,0,0.268-0.027,0.395-0.081l7.447-3.202h5.531l7.447,3.202
			c0.127,0.055,0.261,0.081,0.395,0.081c0.212,0,0.423-0.068,0.599-0.199c0.286-0.214,0.437-0.564,0.395-0.919l-0.935-7.865
			c-0.037-0.308-0.214-0.581-0.479-0.74l-4.919-2.945l0.134-9.488l18.165,8.07c0.13,0.058,0.268,0.086,0.406,0.086
			c0.189,0,0.377-0.054,0.541-0.159c0.283-0.182,0.456-0.495,0.459-0.832l0.087-9.262c0.003-0.334-0.16-0.647-0.436-0.835
			L35.542,19.65c-0.068-2.713-0.357-13.197-0.827-15.005C34.217,2.721,32.322,1.428,29.999,1.428L29.999,1.428z"/>
	</g>
</g>
<g id="hwy">
	<g id="h_1_">
		<path fill="#FFFFFF" d="M19.392,57.272c-0.106,0-0.211-0.034-0.299-0.1c-0.143-0.106-0.218-0.282-0.197-0.459l0.933-7.865
			c0.018-0.154,0.107-0.291,0.24-0.37l5.168-3.094l-0.15-10.532L6.228,43.23c-0.065,0.028-0.134,0.043-0.203,0.043
			c-0.095,0-0.188-0.026-0.271-0.079c-0.142-0.092-0.228-0.248-0.229-0.416L5.44,33.517c-0.001-0.167,0.08-0.323,0.218-0.418
			l19.294-13.181c0.047-1.922,0.345-13.334,0.815-15.146c0.508-1.965,2.492-2.844,4.232-2.844c1.74,0,3.724,0.879,4.232,2.844
			c0.472,1.813,0.771,13.225,0.817,15.146l19.294,13.181c0.138,0.095,0.219,0.251,0.218,0.418l-0.087,9.262
			c-0.001,0.168-0.088,0.324-0.229,0.416c-0.082,0.053-0.176,0.079-0.271,0.079c-0.069,0-0.138-0.015-0.203-0.043l-18.857-8.378
			l-0.148,10.532l5.166,3.094c0.133,0.079,0.221,0.216,0.24,0.37l0.935,7.865c0.021,0.177-0.054,0.353-0.197,0.459
			c-0.088,0.065-0.193,0.1-0.299,0.1c-0.067,0-0.134-0.014-0.197-0.041l-7.542-3.242h-5.737l-7.542,3.242
			C19.526,57.259,19.459,57.272,19.392,57.272z"/>
		<path d="M29.999,2.428c1.661,0,3.322,0.823,3.748,2.469c0.496,1.905,0.807,15.29,0.807,15.29L54.06,33.511l-0.087,9.262
			l-19.55-8.686L34.26,45.666l5.413,3.241l0.935,7.865l-7.636-3.283h-5.943l-7.636,3.283l0.933-7.865l5.415-3.241l-0.165-11.579
			l-19.55,8.686L5.94,33.511l19.505-13.325c0,0,0.312-13.384,0.805-15.29C26.677,3.251,28.338,2.428,29.999,2.428 M29.999,1.428
			c-2.323,0-4.218,1.293-4.716,3.218c-0.468,1.807-0.757,12.291-0.825,15.004L5.376,32.686C5.1,32.874,4.937,33.187,4.94,33.52
			l0.085,9.262c0.003,0.337,0.176,0.649,0.459,0.832c0.164,0.105,0.352,0.159,0.541,0.159c0.138,0,0.276-0.028,0.406-0.086
			l18.166-8.071l0.135,9.488l-4.921,2.945c-0.266,0.159-0.443,0.433-0.48,0.74l-0.933,7.865c-0.042,0.355,0.108,0.705,0.395,0.919
			c0.176,0.131,0.386,0.199,0.598,0.199c0.134,0,0.268-0.027,0.395-0.081l7.447-3.202h5.531l7.447,3.202
			c0.127,0.055,0.261,0.081,0.395,0.081c0.212,0,0.423-0.068,0.599-0.199c0.286-0.214,0.437-0.564,0.395-0.919l-0.935-7.865
			c-0.037-0.308-0.214-0.581-0.479-0.74l-4.919-2.945l0.134-9.488l18.165,8.07c0.13,0.058,0.268,0.086,0.406,0.086
			c0.189,0,0.377-0.054,0.541-0.159c0.283-0.182,0.456-0.495,0.459-0.832l0.087-9.262c0.003-0.334-0.16-0.647-0.436-0.835
			L35.542,19.65c-0.068-2.713-0.357-13.197-0.827-15.005C34.217,2.721,32.322,1.428,29.999,1.428L29.999,1.428z"/>
	</g>
</g>
<g id="group">
	<path id="g" fill="#FFFFFF" d="M27.028,53.489l-7.636,3.283l0.933-7.865l5.415-3.241l-0.165-11.579l-19.55,8.686L5.94,33.511
		l19.505-13.325c0,0,0.312-13.384,0.805-15.29c0.852-3.292,6.644-3.292,7.497,0c0.496,1.905,0.807,15.29,0.807,15.29L54.06,33.511
		l-0.087,9.262l-19.55-8.686L34.26,45.666l5.413,3.241l0.935,7.865l-7.636-3.283H27.028L27.028,53.489z"/>
</g>
<g id="disabled">
	<path id="d_1_" fill="#FFFFFF" d="M27.028,53.489l-7.636,3.283l0.933-7.865l5.415-3.241l-0.165-11.579l-19.55,8.686L5.94,33.511
		l19.505-13.325c0,0,0.312-13.384,0.805-15.29c0.852-3.292,6.644-3.292,7.497,0c0.496,1.905,0.807,15.29,0.807,15.29L54.06,33.511
		l-0.087,9.262l-19.55-8.686L34.26,45.666l5.413,3.241l0.935,7.865l-7.636-3.283H27.028L27.028,53.489z"/>
</g>
<g id="normal">
	<path id="n" fill="#FFFFFF" d="M27.028,53.489l-7.636,3.283l0.933-7.865l5.415-3.241l-0.165-11.579l-19.55,8.686L5.94,33.511
		l19.505-13.325c0,0,0.312-13.384,0.805-15.29c0.852-3.292,6.644-3.292,7.497,0c0.496,1.905,0.807,15.29,0.807,15.29L54.06,33.511
		l-0.087,9.262l-19.55-8.686L34.26,45.666l5.413,3.241l0.935,7.865l-7.636-3.283H27.028L27.028,53.489z"/>
</g>
</svg>
