<?xml version="1.0" encoding="utf-8"?>
<!-- Generator: Adobe Illustrator 17.0.1, SVG Export Plug-In . SVG Version: 6.00 Build 0)  -->
<!DOCTYPE svg PUBLIC "-//W3C//DTD SVG 1.1//EN" "http://www.w3.org/Graphics/SVG/1.1/DTD/svg11.dtd">
<svg version="1.1" xmlns="http://www.w3.org/2000/svg" xmlns:xlink="http://www.w3.org/1999/xlink" x="0px" y="0px" width="60px"
	 height="60px" viewBox="0 0 60 60" enable-background="new 0 0 60 60" xml:space="preserve">
<g id="hwy_disabled">
	<g id="hd">
		<path fill="#313131" d="M30.965,51.214c-0.276,0-0.5-0.224-0.5-0.5V23.107c0-7.373,9.384-8.921,17.257-8.921
			c3.968,0,7.13,0.413,7.162,0.417c0.249,0.033,0.434,0.245,0.434,0.496v25.679c0,0.14-0.058,0.272-0.161,0.367
			c-0.093,0.086-0.214,0.133-0.339,0.133c-0.013,0-0.026-0.001-0.039-0.002c-0.014-0.001-1.384-0.105-3.426-0.105
			c-5.979,0-19.888,0.93-19.888,9.543C31.465,50.99,31.241,51.214,30.965,51.214z M29.035,51.214c-0.276,0-0.5-0.224-0.5-0.5
			c0-8.613-13.908-9.543-19.888-9.543c-2.043,0-3.413,0.104-3.426,0.105c-0.013,0.001-0.026,0.002-0.039,0.002
			c-0.125,0-0.247-0.047-0.339-0.133c-0.103-0.095-0.161-0.228-0.161-0.367V15.099c0-0.251,0.186-0.463,0.434-0.496
			c0.032-0.004,3.195-0.417,7.162-0.417c7.873,0,17.257,1.548,17.257,8.921v27.606C29.535,50.99,29.312,51.214,29.035,51.214z"/>
		<path d="M47.721,14.687c3.981,0,7.097,0.413,7.097,0.413v25.678c0,0-1.375-0.107-3.465-0.107c-6.614,0-20.388,1.076-20.388,10.043
			c0-16.648,0-16.437,0-27.606C30.965,15.976,40.691,14.687,47.721,14.687 M12.279,14.687c7.031,0,16.757,1.289,16.757,8.421
			c0,11.169,0,10.958,0,27.606c0-8.966-13.773-10.043-20.388-10.043c-2.091,0-3.465,0.107-3.465,0.107V15.1
			C5.182,15.1,8.299,14.687,12.279,14.687 M47.721,13.687c-11.108,0-17.209,2.979-17.721,8.629
			c-0.513-5.65-6.613-8.629-17.721-8.629c-4,0-7.098,0.404-7.228,0.422c-0.497,0.066-0.869,0.49-0.869,0.991v25.678
			c0,0.279,0.116,0.545,0.321,0.734c0.185,0.172,0.428,0.266,0.679,0.266c0.026,0,0.052-0.001,0.078-0.003
			c0.013-0.001,1.366-0.104,3.388-0.104c5.829,0,19.388,0.881,19.388,9.043c0,0.552,0.448,1,1,1c0.461,0,0.849-0.312,0.965-0.736
			c0.116,0.424,0.504,0.736,0.965,0.736c0.552,0,1-0.448,1-1c0-8.162,13.558-9.043,19.388-9.043c2.02,0,3.374,0.103,3.388,0.104
			c0.026,0.002,0.052,0.003,0.078,0.003c0.251,0,0.494-0.094,0.679-0.266c0.205-0.189,0.321-0.455,0.321-0.734V15.1
			c0-0.501-0.371-0.925-0.869-0.991C54.819,14.091,51.722,13.687,47.721,13.687L47.721,13.687z"/>
	</g>
</g>
<g id="hwy">
	<g id="h_1_">
		<path fill="#FFFFFF" d="M30.965,51.214c-0.276,0-0.5-0.224-0.5-0.5V23.107c0-7.373,9.384-8.921,17.257-8.921
			c3.968,0,7.13,0.413,7.162,0.417c0.249,0.033,0.434,0.245,0.434,0.496v25.679c0,0.14-0.058,0.272-0.161,0.367
			c-0.093,0.086-0.214,0.133-0.339,0.133c-0.013,0-0.026-0.001-0.039-0.002c-0.014-0.001-1.384-0.105-3.426-0.105
			c-5.979,0-19.888,0.93-19.888,9.543C31.465,50.99,31.241,51.214,30.965,51.214z M29.035,51.214c-0.276,0-0.5-0.224-0.5-0.5
			c0-8.613-13.908-9.543-19.888-9.543c-2.043,0-3.413,0.104-3.426,0.105c-0.013,0.001-0.026,0.002-0.039,0.002
			c-0.125,0-0.247-0.047-0.339-0.133c-0.103-0.095-0.161-0.228-0.161-0.367V15.099c0-0.251,0.186-0.463,0.434-0.496
			c0.032-0.004,3.195-0.417,7.162-0.417c7.873,0,17.257,1.548,17.257,8.921v27.606C29.535,50.99,29.312,51.214,29.035,51.214z"/>
		<path d="M47.721,14.687c3.981,0,7.097,0.413,7.097,0.413v25.678c0,0-1.375-0.107-3.465-0.107c-6.614,0-20.388,1.076-20.388,10.043
			c0-16.648,0-16.437,0-27.606C30.965,15.976,40.691,14.687,47.721,14.687 M12.279,14.687c7.031,0,16.757,1.289,16.757,8.421
			c0,11.169,0,10.958,0,27.606c0-8.966-13.773-10.043-20.388-10.043c-2.091,0-3.465,0.107-3.465,0.107V15.1
			C5.182,15.1,8.299,14.687,12.279,14.687 M47.721,13.687c-11.108,0-17.209,2.979-17.721,8.629
			c-0.513-5.65-6.613-8.629-17.721-8.629c-4,0-7.098,0.404-7.228,0.422c-0.497,0.066-0.869,0.49-0.869,0.991v25.678
			c0,0.279,0.116,0.545,0.321,0.734c0.185,0.172,0.428,0.266,0.679,0.266c0.026,0,0.052-0.001,0.078-0.003
			c0.013-0.001,1.366-0.104,3.388-0.104c5.829,0,19.388,0.881,19.388,9.043c0,0.552,0.448,1,1,1c0.461,0,0.849-0.312,0.965-0.736
			c0.116,0.424,0.504,0.736,0.965,0.736c0.552,0,1-0.448,1-1c0-8.162,13.558-9.043,19.388-9.043c2.02,0,3.374,0.103,3.388,0.104
			c0.026,0.002,0.052,0.003,0.078,0.003c0.251,0,0.494-0.094,0.679-0.266c0.205-0.189,0.321-0.455,0.321-0.734V15.1
			c0-0.501-0.371-0.925-0.869-0.991C54.819,14.091,51.722,13.687,47.721,13.687L47.721,13.687z"/>
	</g>
</g>
<g id="group">
	<path id="g" fill="#FFFFFF" d="M30.965,50.713c0-16.648,0-16.437,0-27.606S54.818,15.1,54.818,15.1v25.678
		C54.818,40.778,30.965,38.914,30.965,50.713L30.965,50.713z M5.182,40.778V15.1c0,0,23.853-3.161,23.853,8.008s0,10.958,0,27.606
		C29.035,38.914,5.182,40.778,5.182,40.778L5.182,40.778z"/>
</g>
<g id="disabled">
	<path id="d_1_" fill="#FFFFFF" d="M30.965,50.713c0-16.648,0-16.437,0-27.606S54.818,15.1,54.818,15.1v25.678
		C54.818,40.778,30.965,38.914,30.965,50.713L30.965,50.713z M5.182,40.778V15.1c0,0,23.853-3.161,23.853,8.008s0,10.958,0,27.606
		C29.035,38.914,5.182,40.778,5.182,40.778L5.182,40.778z"/>
</g>
<g id="normal">
	<path id="n" fill="#FFFFFF" d="M30.965,50.713c0-16.648,0-16.437,0-27.606S54.818,15.1,54.818,15.1v25.678
		C54.818,40.778,30.965,38.914,30.965,50.713L30.965,50.713z M5.182,40.778V15.1c0,0,23.853-3.161,23.853,8.008s0,10.958,0,27.606
		C29.035,38.914,5.182,40.778,5.182,40.778L5.182,40.778z"/>
</g>
</svg>
