<?xml version="1.0" encoding="utf-8"?>
<!-- Generator: Adobe Illustrator 17.0.1, SVG Export Plug-In . SVG Version: 6.00 Build 0)  -->
<!DOCTYPE svg PUBLIC "-//W3C//DTD SVG 1.1//EN" "http://www.w3.org/Graphics/SVG/1.1/DTD/svg11.dtd">
<svg version="1.1" xmlns="http://www.w3.org/2000/svg" xmlns:xlink="http://www.w3.org/1999/xlink" x="0px" y="0px" width="60px"
	 height="60px" viewBox="0 0 60 60" enable-background="new 0 0 60 60" xml:space="preserve">
<g id="hwy_disabled">
	<g id="hd">
		<path fill="#313131" d="M13.196,55.41c-0.147-0.002-0.286-0.067-0.379-0.181s-0.133-0.262-0.107-0.407l3.663-20.615
			c0.029-0.163,0.137-0.301,0.288-0.368c0.065-0.029,0.135-0.044,0.204-0.044c0.091,0,0.183,0.025,0.263,0.074l11.958,7.39
			c0.124,0.077,0.208,0.204,0.231,0.348l2.121,13.421c0.023,0.146-0.019,0.294-0.115,0.405c-0.095,0.109-0.233,0.173-0.378,0.173
			C30.94,55.605,13.196,55.41,13.196,55.41z M37.299,41.172c-5.902,0-11.836-2.571-16.282-7.056
			c-8.572-8.643-9.363-21.91-1.763-29.574c0.094-0.094,0.222-0.147,0.355-0.147s0.261,0.054,0.355,0.147l30.39,30.647
			c0.193,0.195,0.193,0.51,0,0.705C46.979,39.298,42.343,41.172,37.299,41.172z M40.969,22.348c-0.127,0-0.251-0.049-0.346-0.139
			l-7.52-7.196c-0.124-0.119-0.178-0.293-0.145-0.461c0.034-0.168,0.152-0.307,0.313-0.368l11.763-4.473
			c0.058-0.021,0.118-0.032,0.178-0.032c0.129,0,0.256,0.05,0.351,0.144c0.139,0.138,0.186,0.344,0.119,0.527l-4.243,11.669
			c-0.058,0.159-0.191,0.277-0.356,0.316C41.045,22.344,41.007,22.348,40.969,22.348z"/>
		<path d="M19.609,4.895c6.818,6.875,23.298,23.497,30.39,30.647c-3.41,3.439-7.962,5.129-12.699,5.129
			c-5.568,0-11.393-2.334-15.927-6.907C12.98,25.302,12.191,12.376,19.609,4.895 M45.212,10.179l-4.243,11.669l-7.52-7.197
			L45.212,10.179 M16.864,34.295l11.957,7.39l2.12,13.42l-17.74-0.195L16.864,34.295 M19.609,3.895
			C19.609,3.895,19.609,3.895,19.609,3.895c-0.267,0-0.522,0.107-0.71,0.296c-7.791,7.858-7,21.44,1.763,30.278
			c4.539,4.577,10.603,7.203,16.637,7.203c5.178,0,9.94-1.927,13.409-5.425c0.387-0.39,0.387-1.018,0-1.408L34.403,18.395
			L20.319,4.191C20.131,4.002,19.876,3.895,19.609,3.895L19.609,3.895z M45.212,9.179c-0.119,0-0.24,0.021-0.355,0.065
			l-11.763,4.472c-0.321,0.122-0.556,0.4-0.625,0.736c-0.068,0.336,0.041,0.684,0.289,0.921l7.52,7.197
			c0.188,0.18,0.437,0.278,0.691,0.278c0.076,0,0.152-0.009,0.227-0.026c0.329-0.077,0.597-0.315,0.713-0.632l4.243-11.669
			c0.134-0.368,0.041-0.779-0.238-1.054C45.724,9.279,45.47,9.179,45.212,9.179L45.212,9.179z M16.864,33.295
			c-0.139,0-0.278,0.029-0.408,0.087c-0.302,0.135-0.518,0.412-0.576,0.738l-3.663,20.616c-0.051,0.289,0.027,0.587,0.215,0.813
			c0.188,0.226,0.465,0.359,0.759,0.362l17.74,0.195c0.004,0,0.007,0,0.011,0c0.29,0,0.567-0.126,0.757-0.346
			c0.192-0.223,0.277-0.519,0.231-0.81l-2.12-13.42c-0.045-0.288-0.214-0.541-0.462-0.695l-11.957-7.39
			C17.229,33.345,17.047,33.295,16.864,33.295L16.864,33.295z"/>
	</g>
</g>
<g id="hwy">
	<g id="h_1_">
		<path fill="#FFFFFF" d="M13.196,55.41c-0.147-0.002-0.286-0.067-0.379-0.181s-0.133-0.262-0.107-0.407l3.663-20.615
			c0.029-0.163,0.137-0.301,0.288-0.368c0.065-0.029,0.135-0.044,0.204-0.044c0.091,0,0.183,0.025,0.263,0.074l11.958,7.39
			c0.124,0.077,0.208,0.204,0.231,0.348l2.121,13.421c0.023,0.146-0.019,0.294-0.115,0.405c-0.095,0.109-0.233,0.173-0.378,0.173
			C30.94,55.605,13.196,55.41,13.196,55.41z M37.299,41.172c-5.902,0-11.836-2.571-16.282-7.056
			c-8.572-8.643-9.363-21.91-1.763-29.574c0.094-0.094,0.222-0.147,0.355-0.147s0.261,0.054,0.355,0.147l30.39,30.647
			c0.193,0.195,0.193,0.51,0,0.705C46.979,39.298,42.343,41.172,37.299,41.172z M40.969,22.348c-0.127,0-0.251-0.049-0.346-0.139
			l-7.52-7.196c-0.124-0.119-0.178-0.293-0.145-0.461c0.034-0.168,0.152-0.307,0.313-0.368l11.763-4.473
			c0.058-0.021,0.118-0.032,0.178-0.032c0.129,0,0.256,0.05,0.351,0.144c0.139,0.138,0.186,0.344,0.119,0.527l-4.243,11.669
			c-0.058,0.159-0.191,0.277-0.356,0.316C41.045,22.344,41.007,22.348,40.969,22.348z"/>
		<path d="M19.609,4.895c6.818,6.875,23.298,23.497,30.39,30.647c-3.41,3.439-7.962,5.129-12.699,5.129
			c-5.568,0-11.393-2.334-15.927-6.907C12.98,25.302,12.191,12.376,19.609,4.895 M45.212,10.179l-4.243,11.669l-7.52-7.197
			L45.212,10.179 M16.864,34.295l11.957,7.39l2.12,13.42l-17.74-0.195L16.864,34.295 M19.609,3.895
			C19.609,3.895,19.609,3.895,19.609,3.895c-0.267,0-0.522,0.107-0.71,0.296c-7.791,7.858-7,21.44,1.763,30.278
			c4.539,4.577,10.603,7.203,16.637,7.203c5.178,0,9.94-1.927,13.409-5.425c0.387-0.39,0.387-1.018,0-1.408L34.403,18.395
			L20.319,4.191C20.131,4.002,19.876,3.895,19.609,3.895L19.609,3.895z M45.212,9.179c-0.119,0-0.24,0.021-0.355,0.065
			l-11.763,4.472c-0.321,0.122-0.556,0.4-0.625,0.736c-0.068,0.336,0.041,0.684,0.289,0.921l7.52,7.197
			c0.188,0.18,0.437,0.278,0.691,0.278c0.076,0,0.152-0.009,0.227-0.026c0.329-0.077,0.597-0.315,0.713-0.632l4.243-11.669
			c0.134-0.368,0.041-0.779-0.238-1.054C45.724,9.279,45.47,9.179,45.212,9.179L45.212,9.179z M16.864,33.295
			c-0.139,0-0.278,0.029-0.408,0.087c-0.302,0.135-0.518,0.412-0.576,0.738l-3.663,20.616c-0.051,0.289,0.027,0.587,0.215,0.813
			c0.188,0.226,0.465,0.359,0.759,0.362l17.74,0.195c0.004,0,0.007,0,0.011,0c0.29,0,0.567-0.126,0.757-0.346
			c0.192-0.223,0.277-0.519,0.231-0.81l-2.12-13.42c-0.045-0.288-0.214-0.541-0.462-0.695l-11.957-7.39
			C17.229,33.345,17.047,33.295,16.864,33.295L16.864,33.295z"/>
	</g>
</g>
<g id="group">
	<path id="g" fill="#FFFFFF" d="M33.45,14.651l11.763-4.472l-4.243,11.669L33.45,14.651L33.45,14.651z M21.372,33.765
		c-8.392-8.463-9.182-21.389-1.763-28.87c6.818,6.875,23.298,23.497,30.39,30.647C42.58,43.024,29.765,42.228,21.372,33.765
		L21.372,33.765z M28.821,41.685l2.12,13.42l-17.74-0.195l3.663-20.616L28.821,41.685L28.821,41.685z"/>
</g>
<g id="disabled">
	<path id="d_1_" fill="#FFFFFF" d="M33.45,14.651l11.763-4.472l-4.243,11.669L33.45,14.651L33.45,14.651z M21.372,33.765
		c-8.392-8.463-9.182-21.389-1.763-28.87c6.818,6.875,23.298,23.497,30.39,30.647C42.58,43.024,29.765,42.228,21.372,33.765
		L21.372,33.765z M28.821,41.685l2.12,13.42l-17.74-0.195l3.663-20.616L28.821,41.685L28.821,41.685z"/>
</g>
<g id="normal">
	<path id="n" fill="#FFFFFF" d="M33.45,14.651l11.763-4.472l-4.243,11.669L33.45,14.651L33.45,14.651z M21.372,33.765
		c-8.392-8.463-9.182-21.389-1.763-28.87c6.818,6.875,23.298,23.497,30.39,30.647C42.58,43.024,29.765,42.228,21.372,33.765
		L21.372,33.765z M28.821,41.685l2.12,13.42l-17.74-0.195l3.663-20.616L28.821,41.685L28.821,41.685z"/>
</g>
</svg>
