<?xml version="1.0" encoding="utf-8"?>
<!-- Generator: Adobe Illustrator 17.0.1, SVG Export Plug-In . SVG Version: 6.00 Build 0)  -->
<!DOCTYPE svg PUBLIC "-//W3C//DTD SVG 1.1//EN" "http://www.w3.org/Graphics/SVG/1.1/DTD/svg11.dtd">
<svg version="1.1" xmlns="http://www.w3.org/2000/svg" xmlns:xlink="http://www.w3.org/1999/xlink" x="0px" y="0px" width="60px"
	 height="60px" viewBox="0 0 60 60" enable-background="new 0 0 60 60" xml:space="preserve">
<g id="hwy_disabled">
	<g id="hd">
		<path fill="#313131" d="M3.147,49.941c-0.276,0-0.5-0.224-0.5-0.5V10.559c0-0.276,0.224-0.5,0.5-0.5h53.705
			c0.276,0,0.5,0.224,0.5,0.5v38.883c0,0.276-0.224,0.5-0.5,0.5H3.147z M54.072,46.797v-3.361H43.938c-0.276,0-0.5-0.224-0.5-0.5
			v-25.96c0-0.276,0.224-0.5,0.5-0.5h10.134v-3.225H31.67v8.114c3.979,0.775,6.927,4.321,6.927,8.423
			c0,4.104-2.949,7.648-6.927,8.421v8.588H54.072z M28.377,46.797V38.2c-3.944-0.795-6.867-4.337-6.867-8.412
			c0-4.143,2.863-7.615,6.867-8.414v-8.123H5.852v3.225h10.288c0.276,0,0.5,0.224,0.5,0.5v25.96c0,0.276-0.224,0.5-0.5,0.5H5.852
			v3.361H28.377z M54.072,40.146V19.683h-7.45v20.464H54.072z M13.306,40.146V19.683H5.852v20.464H13.306z M31.67,33.651
			c1.528-0.647,2.549-2.154,2.549-3.863c0-1.71-1.021-3.218-2.549-3.865V33.651z M28.377,25.952
			c-1.494,0.662-2.491,2.157-2.491,3.836c0,1.678,0.997,3.173,2.491,3.835V25.952z"/>
		<path d="M56.853,10.559v38.882H3.147V10.559H56.853 M31.17,47.297h23.402v-4.362H43.938V16.976h10.634v-4.225H31.17v9.037
			c3.908,0.555,6.927,3.906,6.927,8s-3.019,7.446-6.927,7.998V47.297 M5.352,16.976h10.787v25.959H5.352v4.362h23.525V37.78
			c-3.88-0.577-6.867-3.918-6.867-7.992s2.987-7.415,6.867-7.994v-9.043H5.352V16.976 M46.122,40.646h8.45V19.182h-8.45V40.646
			 M5.352,40.646h8.454V19.182H5.352V40.646 M31.17,34.344c2.035-0.508,3.549-2.347,3.549-4.556c0-2.21-1.515-4.05-3.549-4.558
			V34.344 M28.877,34.326v-9.077c-2.005,0.528-3.491,2.352-3.491,4.54C25.386,31.974,26.872,33.798,28.877,34.326 M56.853,9.559
			H3.147c-0.552,0-1,0.448-1,1v38.882c0,0.552,0.448,1,1,1h53.705c0.552,0,1-0.448,1-1V10.559
			C57.853,10.007,57.405,9.559,56.853,9.559L56.853,9.559z M32.17,13.751h21.402v2.225h-9.634c-0.552,0-1,0.448-1,1v25.959
			c0,0.552,0.448,1,1,1h9.634v2.362H32.17v-7.686c4.005-0.973,6.927-4.622,6.927-8.824c0-4.2-2.923-7.85-6.927-8.825V13.751
			L32.17,13.751z M6.352,13.751h21.525v7.222c-4.027,0.991-6.867,4.571-6.867,8.815c0,4.172,2.897,7.817,6.867,8.812v7.698H6.352
			v-2.362h9.787c0.552,0,1-0.448,1-1V16.976c0-0.552-0.448-1-1-1H6.352V13.751L6.352,13.751z M47.122,20.182h6.45v19.464h-6.45
			V20.182L47.122,20.182z M6.352,20.182h6.454v19.464H6.352V20.182L6.352,20.182z M32.17,32.802v-6.03
			c0.951,0.677,1.549,1.787,1.549,3.016C33.719,31.016,33.121,32.126,32.17,32.802L32.17,32.802z M27.877,32.755
			c-0.916-0.681-1.491-1.771-1.491-2.967c0-1.197,0.575-2.287,1.491-2.969V32.755L27.877,32.755z"/>
	</g>
</g>
<g id="hwy">
	<g id="h">
		<path fill="#FFFFFF" d="M3.147,49.941c-0.276,0-0.5-0.224-0.5-0.5V10.559c0-0.276,0.224-0.5,0.5-0.5h53.705
			c0.276,0,0.5,0.224,0.5,0.5v38.883c0,0.276-0.224,0.5-0.5,0.5H3.147z M54.072,46.797v-3.361H43.938c-0.276,0-0.5-0.224-0.5-0.5
			v-25.96c0-0.276,0.224-0.5,0.5-0.5h10.134v-3.225H31.67v8.114c3.979,0.775,6.927,4.321,6.927,8.423
			c0,4.104-2.949,7.648-6.927,8.421v8.588H54.072z M28.377,46.797V38.2c-3.944-0.795-6.867-4.337-6.867-8.412
			c0-4.143,2.863-7.615,6.867-8.414v-8.123H5.852v3.225h10.288c0.276,0,0.5,0.224,0.5,0.5v25.96c0,0.276-0.224,0.5-0.5,0.5H5.852
			v3.361H28.377z M54.072,40.146V19.683h-7.45v20.464H54.072z M13.306,40.146V19.683H5.852v20.464H13.306z M31.67,33.651
			c1.528-0.647,2.549-2.154,2.549-3.863c0-1.71-1.021-3.218-2.549-3.865V33.651z M28.377,25.952
			c-1.494,0.662-2.491,2.157-2.491,3.836c0,1.678,0.997,3.173,2.491,3.835V25.952z"/>
		<path d="M56.853,10.559v38.882H3.147V10.559H56.853 M31.17,47.297h23.402v-4.362H43.938V16.976h10.634v-4.225H31.17v9.037
			c3.908,0.555,6.927,3.906,6.927,8s-3.019,7.446-6.927,7.998V47.297 M5.352,16.976h10.787v25.959H5.352v4.362h23.525V37.78
			c-3.88-0.577-6.867-3.918-6.867-7.992s2.987-7.415,6.867-7.994v-9.043H5.352V16.976 M46.122,40.646h8.45V19.182h-8.45V40.646
			 M5.352,40.646h8.454V19.182H5.352V40.646 M31.17,34.344c2.035-0.508,3.549-2.347,3.549-4.556c0-2.21-1.515-4.05-3.549-4.558
			V34.344 M28.877,34.326v-9.077c-2.005,0.528-3.491,2.352-3.491,4.54C25.386,31.974,26.872,33.798,28.877,34.326 M56.853,9.559
			H3.147c-0.552,0-1,0.448-1,1v38.882c0,0.552,0.448,1,1,1h53.705c0.552,0,1-0.448,1-1V10.559
			C57.853,10.007,57.405,9.559,56.853,9.559L56.853,9.559z M32.17,13.751h21.402v2.225h-9.634c-0.552,0-1,0.448-1,1v25.959
			c0,0.552,0.448,1,1,1h9.634v2.362H32.17v-7.686c4.005-0.973,6.927-4.622,6.927-8.824c0-4.2-2.923-7.85-6.927-8.825V13.751
			L32.17,13.751z M6.352,13.751h21.525v7.222c-4.027,0.991-6.867,4.571-6.867,8.815c0,4.172,2.897,7.817,6.867,8.812v7.698H6.352
			v-2.362h9.787c0.552,0,1-0.448,1-1V16.976c0-0.552-0.448-1-1-1H6.352V13.751L6.352,13.751z M47.122,20.182h6.45v19.464h-6.45
			V20.182L47.122,20.182z M6.352,20.182h6.454v19.464H6.352V20.182L6.352,20.182z M32.17,32.802v-6.03
			c0.951,0.677,1.549,1.787,1.549,3.016C33.719,31.016,33.121,32.126,32.17,32.802L32.17,32.802z M27.877,32.755
			c-0.916-0.681-1.491-1.771-1.491-2.967c0-1.197,0.575-2.287,1.491-2.969V32.755L27.877,32.755z"/>
	</g>
</g>
<g id="group">
	<path id="g" fill="#FFFFFF" d="M3.147,49.441V10.559h53.705v38.882H3.147L3.147,49.441z M28.877,25.249
		c-2.005,0.528-3.491,2.352-3.491,4.54c0,2.186,1.486,4.009,3.491,4.538V25.249L28.877,25.249z M31.17,34.344
		c2.035-0.508,3.549-2.347,3.549-4.556c0-2.21-1.515-4.05-3.549-4.558V34.344L31.17,34.344z M5.352,40.646h8.454V19.182H5.352
		V40.646L5.352,40.646z M5.352,16.976h10.787v25.959H5.352v4.362h23.525V37.78c-3.88-0.577-6.867-3.918-6.867-7.992
		s2.987-7.415,6.867-7.994v-9.043H5.352V16.976L5.352,16.976z M54.572,19.182h-8.45v21.464h8.45V19.182L54.572,19.182z
		 M54.572,42.935H43.938V16.976h10.634v-4.225H31.17v9.037c3.908,0.555,6.927,3.906,6.927,8s-3.019,7.446-6.927,7.998v9.511h23.402
		V42.935L54.572,42.935z"/>
</g>
<g id="disabled">
	<path id="d" fill="#FFFFFF" d="M3.147,49.441V10.559h53.705v38.882H3.147L3.147,49.441z M28.877,25.249
		c-2.005,0.528-3.491,2.352-3.491,4.54c0,2.186,1.486,4.009,3.491,4.538V25.249L28.877,25.249z M31.17,34.344
		c2.035-0.508,3.549-2.347,3.549-4.556c0-2.21-1.515-4.05-3.549-4.558V34.344L31.17,34.344z M5.352,40.646h8.454V19.182H5.352
		V40.646L5.352,40.646z M5.352,16.976h10.787v25.959H5.352v4.362h23.525V37.78c-3.88-0.577-6.867-3.918-6.867-7.992
		s2.987-7.415,6.867-7.994v-9.043H5.352V16.976L5.352,16.976z M54.572,19.182h-8.45v21.464h8.45V19.182L54.572,19.182z
		 M54.572,42.935H43.938V16.976h10.634v-4.225H31.17v9.037c3.908,0.555,6.927,3.906,6.927,8s-3.019,7.446-6.927,7.998v9.511h23.402
		V42.935L54.572,42.935z"/>
</g>
<g id="normal">
	<path id="n" fill="#FFFFFF" d="M3.147,49.441V10.559h53.705v38.882H3.147L3.147,49.441z M28.877,25.249
		c-2.005,0.528-3.491,2.352-3.491,4.54c0,2.186,1.486,4.009,3.491,4.538V25.249L28.877,25.249z M31.17,34.344
		c2.035-0.508,3.549-2.347,3.549-4.556c0-2.21-1.515-4.05-3.549-4.558V34.344L31.17,34.344z M5.352,40.646h8.454V19.182H5.352
		V40.646L5.352,40.646z M5.352,16.976h10.787v25.959H5.352v4.362h23.525V37.78c-3.88-0.577-6.867-3.918-6.867-7.992
		s2.987-7.415,6.867-7.994v-9.043H5.352V16.976L5.352,16.976z M54.572,19.182h-8.45v21.464h8.45V19.182L54.572,19.182z
		 M54.572,42.935H43.938V16.976h10.634v-4.225H31.17v9.037c3.908,0.555,6.927,3.906,6.927,8s-3.019,7.446-6.927,7.998v9.511h23.402
		V42.935L54.572,42.935z"/>
</g>
</svg>
