<?xml version="1.0" encoding="utf-8"?>
<!-- Generator: Adobe Illustrator 17.0.1, SVG Export Plug-In . SVG Version: 6.00 Build 0)  -->
<!DOCTYPE svg PUBLIC "-//W3C//DTD SVG 1.1//EN" "http://www.w3.org/Graphics/SVG/1.1/DTD/svg11.dtd">
<svg version="1.1" xmlns="http://www.w3.org/2000/svg" xmlns:xlink="http://www.w3.org/1999/xlink" x="0px" y="0px" width="60px"
	 height="60px" viewBox="0 0 60 60" enable-background="new 0 0 60 60" xml:space="preserve">
<g id="hwy_disabled">
	<g id="hd">
		<path fill="#313131" d="M11.481,50.182c-2.694,0-5.827-3.006-5.827-6.881V23.55c0-3.794,3.063-6.881,6.827-6.881h6.027
			c-0.133-0.498-0.2-1.027-0.2-1.581v-3.191c0-3.793,3.062-6.878,6.825-6.878h9.49c3.764,0,6.827,3.085,6.827,6.878v3.191
			c0,0.509-0.055,1.039-0.164,1.581h6.234c3.764,0,6.827,3.087,6.827,6.881v19.751c0,3.794-3.063,6.881-6.827,6.881H11.481z
			 M30.95,47.456v-2.23c0-0.248,0.182-0.458,0.427-0.495c1.761-0.26,2.475-0.948,3.44-2.052c0.978-1.121,1.453-2.465,1.453-4.108
			c0-1.441-0.383-2.633-1.138-3.541c-0.705-0.849-1.527-1.661-3.814-2.286c-0.217-0.06-0.368-0.257-0.368-0.482v-5.686
			c0-0.169,0.085-0.326,0.227-0.419c0.083-0.054,0.178-0.081,0.273-0.081c0.068,0,0.137,0.014,0.201,0.042
			c1.019,0.447,1.145,1.27,1.279,2.139c0.004,0.029,0.009,0.059,0.013,0.088l2.651-0.352c-0.295-1.458-0.824-3.166-1.487-3.804
			c-0.856-0.822-1.327-1.275-2.716-1.442c-0.251-0.03-0.44-0.243-0.44-0.496v-0.939h-1.741v0.939c0,0.257-0.195,0.472-0.45,0.497
			c-1.54,0.154-2.733,0.714-3.648,1.71c-0.85,0.926-1.357,3.156-1.357,4.777c0,1.468,0.395,2.676,1.208,3.694
			c0.808,1.014,2.116,1.785,3.887,2.295c0.214,0.062,0.362,0.258,0.362,0.48v6.093c0,0.172-0.089,0.332-0.235,0.424
			c-0.081,0.051-0.173,0.076-0.265,0.076c-0.075,0-0.149-0.017-0.218-0.05c-0.587-0.285-1.124-0.745-1.597-1.366
			c-0.386-0.509-0.673-1.099-0.856-1.758l-2.789,0.299c0.306,1.547,0.898,2.77,1.764,3.641c0.952,0.959,2.216,1.541,3.757,1.73
			c0.25,0.03,0.439,0.243,0.439,0.496v2.167H30.95z M36.524,16.669c0.022-0.159,0.034-0.312,0.034-0.459v-0.96
			c0-2.006-1.616-3.638-3.602-3.638H26.8c-1.987,0-3.604,1.632-3.604,3.638v0.96c0,0.138,0.009,0.291,0.026,0.459H36.524z
			 M31.45,42.509c-0.115,0-0.228-0.04-0.317-0.114c-0.116-0.095-0.183-0.236-0.183-0.386v-5.678c0-0.157,0.074-0.306,0.2-0.399
			c0.087-0.066,0.193-0.101,0.3-0.101c0.047,0,0.094,0.007,0.139,0.02c0.825,0.239,1.063,0.62,1.272,0.955
			c0.057,0.092,0.117,0.189,0.201,0.293c0.451,0.561,0.68,1.23,0.68,1.994c0,0.846-0.267,1.592-0.794,2.219
			c-0.117,0.139-0.194,0.264-0.262,0.372c-0.208,0.332-0.423,0.675-1.14,0.815C31.515,42.506,31.482,42.509,31.45,42.509z
			 M28.709,32.063c-0.068,0-0.136-0.014-0.2-0.042c-0.709-0.309-1.249-0.728-1.604-1.244c-0.36-0.523-0.543-1.101-0.543-1.715
			c0-0.663,0.199-1.279,0.591-1.83c0.393-0.552,0.93-0.945,1.595-1.171c0.052-0.018,0.106-0.026,0.16-0.026
			c0.103,0,0.206,0.032,0.292,0.094c0.131,0.094,0.208,0.245,0.208,0.406v5.028c0,0.169-0.085,0.326-0.226,0.418
			C28.9,32.035,28.805,32.063,28.709,32.063z"/>
		<path d="M34.622,5.518c3.494,0,6.327,2.856,6.327,6.379v3.191c0,0.673-0.104,1.378-0.296,2.081h6.866
			c3.494,0,6.327,2.856,6.327,6.381v19.752c0,3.524-2.832,6.381-6.327,6.381h-1H11.481c-2.494,0-5.327-2.856-5.327-6.381V23.55
			c0-3.524,2.832-6.381,6.327-6.381h6.725c-0.255-0.606-0.398-1.298-0.398-2.081v-3.191c0-3.522,2.832-6.379,6.325-6.379H34.622
			 M22.785,17.169h14.152c0.073-0.309,0.121-0.627,0.121-0.96v-0.96c0-2.285-1.837-4.138-4.102-4.138H26.8
			c-2.267,0-4.104,1.852-4.104,4.138v0.96C22.696,16.498,22.73,16.823,22.785,17.169 M28.709,41.797
			c-0.517-0.251-0.989-0.656-1.417-1.218c-0.426-0.562-0.716-1.227-0.87-1.999l-3.757,0.402c0.288,1.91,0.952,3.386,1.994,4.433
			c1.04,1.047,2.39,1.67,4.05,1.875v2.667h2.741v-2.73c1.873-0.277,2.693-1.017,3.744-2.219c1.051-1.203,1.577-2.682,1.577-4.437
			c0-1.57-0.418-2.856-1.253-3.861c-0.833-1.002-1.761-1.819-4.067-2.449v-5.685c0.932,0.409,0.865,1.185,1.08,2.328l3.652-0.485
			c-0.251-1.454-0.828-3.723-1.729-4.59c-0.904-0.868-1.477-1.395-3.003-1.579V20.81h-2.741v1.439
			c-1.651,0.166-2.974,0.789-3.967,1.869c-0.993,1.082-1.49,3.526-1.49,5.116c0,1.57,0.439,2.905,1.317,4.006
			c0.878,1.101,2.259,1.923,4.14,2.464V41.797 M28.709,26.534v5.029c-0.623-0.271-1.088-0.629-1.391-1.069
			c-0.303-0.441-0.456-0.919-0.456-1.432c0-0.562,0.167-1.075,0.498-1.54C27.694,27.055,28.144,26.726,28.709,26.534 M31.45,36.331
			c0.865,0.251,0.844,0.612,1.224,1.082c0.379,0.47,0.569,1.03,0.569,1.679c0,0.727-0.225,1.359-0.677,1.897
			c-0.452,0.537-0.396,0.878-1.116,1.019V36.331 M34.622,4.518h-9.49c-4.039,0-7.325,3.31-7.325,7.379v3.191
			c0,0.371,0.028,0.732,0.084,1.081h-5.41c-4.04,0-7.327,3.311-7.327,7.381v19.752c0,4.157,3.401,7.381,6.327,7.381h35.038h1
			c4.04,0,7.327-3.311,7.327-7.381V23.55c0-4.07-3.287-7.381-7.327-7.381h-5.644c0.049-0.367,0.073-0.728,0.073-1.081v-3.191
			C41.949,7.828,38.662,4.518,34.622,4.518L34.622,4.518z M23.696,16.169V15.25c0-1.73,1.393-3.138,3.104-3.138h6.156
			c1.711,0,3.102,1.408,3.102,3.138v0.919H23.696L23.696,16.169z M29.709,21.81h0.741v0.439c0,0.506,0.378,0.932,0.88,0.993
			c1.223,0.148,1.602,0.511,2.43,1.307c0.433,0.416,0.896,1.572,1.231,3.018l-1.632,0.217c-0.143-0.786-0.423-1.649-1.507-2.125
			c-0.129-0.056-0.266-0.084-0.402-0.084c-0.191,0-0.382,0.055-0.547,0.163c-0.283,0.185-0.453,0.5-0.453,0.837v5.685
			c0,0.451,0.302,0.846,0.736,0.965c2.15,0.588,2.885,1.31,3.562,2.124c0.688,0.828,1.022,1.881,1.022,3.221
			c0,1.518-0.435,2.754-1.33,3.779c-0.972,1.111-1.598,1.659-3.137,1.887c-0.49,0.073-0.854,0.493-0.854,0.989v1.73h-0.741v-1.667
			c0-0.505-0.377-0.931-0.878-0.993c-1.447-0.178-2.58-0.697-3.463-1.587c-0.695-0.699-1.2-1.655-1.508-2.851l1.823-0.195
			c0.197,0.559,0.469,1.067,0.811,1.519c0.522,0.685,1.12,1.194,1.777,1.513c0.138,0.067,0.288,0.1,0.437,0.1
			c0.185,0,0.369-0.051,0.531-0.152c0.292-0.183,0.469-0.503,0.469-0.848v-6.092c0-0.446-0.295-0.838-0.723-0.961
			c-1.67-0.481-2.892-1.196-3.634-2.126c-0.739-0.927-1.099-2.034-1.099-3.382c0-1.499,0.493-3.64,1.226-4.44
			c0.828-0.901,1.918-1.409,3.33-1.55c0.511-0.051,0.9-0.481,0.9-0.995V21.81L29.709,21.81z M28.709,25.534
			c-0.108,0-0.216,0.017-0.321,0.053c-0.766,0.26-1.386,0.715-1.842,1.354c-0.454,0.638-0.684,1.351-0.684,2.12
			c0,0.717,0.213,1.389,0.632,1.999c0.41,0.595,1.02,1.073,1.816,1.419c0.128,0.056,0.264,0.083,0.399,0.083
			c0.192,0,0.383-0.055,0.548-0.164c0.282-0.185,0.452-0.499,0.452-0.836v-5.029c0-0.322-0.155-0.625-0.417-0.813
			C29.12,25.598,28.915,25.534,28.709,25.534L28.709,25.534z M31.45,35.331c-0.214,0-0.425,0.069-0.601,0.2
			c-0.252,0.189-0.399,0.485-0.399,0.8v5.678c0,0.299,0.134,0.582,0.365,0.772c0.181,0.149,0.406,0.228,0.635,0.228
			c0.064,0,0.129-0.006,0.193-0.019c0.858-0.169,1.183-0.588,1.467-1.04c0.071-0.112,0.131-0.21,0.222-0.317
			c0.605-0.719,0.912-1.574,0.912-2.54c0-0.88-0.266-1.656-0.791-2.307c-0.07-0.086-0.119-0.168-0.166-0.244
			c-0.289-0.463-0.626-0.9-1.557-1.171C31.637,35.344,31.543,35.331,31.45,35.331L31.45,35.331z"/>
	</g>
</g>
<g id="hwy">
	<g id="h_1_">
		<path fill="#FFFFFF" d="M11.481,50.182c-2.694,0-5.827-3.006-5.827-6.881V23.55c0-3.794,3.063-6.881,6.827-6.881h6.027
			c-0.133-0.498-0.2-1.027-0.2-1.581v-3.191c0-3.793,3.062-6.878,6.825-6.878h9.49c3.764,0,6.827,3.085,6.827,6.878v3.191
			c0,0.509-0.055,1.039-0.164,1.581h6.234c3.764,0,6.827,3.087,6.827,6.881v19.751c0,3.794-3.063,6.881-6.827,6.881H11.481z
			 M30.95,47.456v-2.23c0-0.248,0.182-0.458,0.427-0.495c1.761-0.26,2.475-0.948,3.44-2.052c0.978-1.121,1.453-2.465,1.453-4.108
			c0-1.441-0.383-2.633-1.138-3.541c-0.705-0.849-1.527-1.661-3.814-2.286c-0.217-0.06-0.368-0.257-0.368-0.482v-5.686
			c0-0.169,0.085-0.326,0.227-0.419c0.083-0.054,0.178-0.081,0.273-0.081c0.068,0,0.137,0.014,0.201,0.042
			c1.019,0.447,1.145,1.27,1.279,2.139c0.004,0.029,0.009,0.059,0.013,0.088l2.651-0.352c-0.295-1.458-0.824-3.166-1.487-3.804
			c-0.856-0.822-1.327-1.275-2.716-1.442c-0.251-0.03-0.44-0.243-0.44-0.496v-0.939h-1.741v0.939c0,0.257-0.195,0.472-0.45,0.497
			c-1.54,0.154-2.733,0.714-3.648,1.71c-0.85,0.926-1.357,3.156-1.357,4.777c0,1.468,0.395,2.676,1.208,3.694
			c0.808,1.014,2.116,1.785,3.887,2.295c0.214,0.062,0.362,0.258,0.362,0.48v6.093c0,0.172-0.089,0.332-0.235,0.424
			c-0.081,0.051-0.173,0.076-0.265,0.076c-0.075,0-0.149-0.017-0.218-0.05c-0.587-0.285-1.124-0.745-1.597-1.366
			c-0.386-0.509-0.673-1.099-0.856-1.758l-2.789,0.299c0.306,1.547,0.898,2.77,1.764,3.641c0.952,0.959,2.216,1.541,3.757,1.73
			c0.25,0.03,0.439,0.243,0.439,0.496v2.167H30.95z M36.524,16.669c0.022-0.159,0.034-0.312,0.034-0.459v-0.96
			c0-2.006-1.616-3.638-3.602-3.638H26.8c-1.987,0-3.604,1.632-3.604,3.638v0.96c0,0.138,0.009,0.291,0.026,0.459H36.524z
			 M31.45,42.509c-0.115,0-0.228-0.04-0.317-0.114c-0.116-0.095-0.183-0.236-0.183-0.386v-5.678c0-0.157,0.074-0.306,0.2-0.399
			c0.087-0.066,0.193-0.101,0.3-0.101c0.047,0,0.094,0.007,0.139,0.02c0.825,0.239,1.063,0.62,1.272,0.955
			c0.057,0.092,0.117,0.189,0.201,0.293c0.451,0.561,0.68,1.23,0.68,1.994c0,0.846-0.267,1.592-0.794,2.219
			c-0.117,0.139-0.194,0.264-0.262,0.372c-0.208,0.332-0.423,0.675-1.14,0.815C31.515,42.506,31.482,42.509,31.45,42.509z
			 M28.709,32.063c-0.068,0-0.136-0.014-0.2-0.042c-0.709-0.309-1.249-0.728-1.604-1.244c-0.36-0.523-0.543-1.101-0.543-1.715
			c0-0.663,0.199-1.279,0.591-1.83c0.393-0.552,0.93-0.945,1.595-1.171c0.052-0.018,0.106-0.026,0.16-0.026
			c0.103,0,0.206,0.032,0.292,0.094c0.131,0.094,0.208,0.245,0.208,0.406v5.028c0,0.169-0.085,0.326-0.226,0.418
			C28.9,32.035,28.805,32.063,28.709,32.063z"/>
		<path d="M34.622,5.518c3.494,0,6.327,2.856,6.327,6.379v3.191c0,0.673-0.104,1.378-0.296,2.081h6.866
			c3.494,0,6.327,2.856,6.327,6.381v19.752c0,3.524-2.832,6.381-6.327,6.381h-1H11.481c-2.494,0-5.327-2.856-5.327-6.381V23.55
			c0-3.524,2.832-6.381,6.327-6.381h6.725c-0.255-0.606-0.398-1.298-0.398-2.081v-3.191c0-3.522,2.832-6.379,6.325-6.379H34.622
			 M22.785,17.169h14.152c0.073-0.309,0.121-0.627,0.121-0.96v-0.96c0-2.285-1.837-4.138-4.102-4.138H26.8
			c-2.267,0-4.104,1.852-4.104,4.138v0.96C22.696,16.498,22.73,16.823,22.785,17.169 M28.709,41.797
			c-0.517-0.251-0.989-0.656-1.417-1.218c-0.426-0.562-0.716-1.227-0.87-1.999l-3.757,0.402c0.288,1.91,0.952,3.386,1.994,4.433
			c1.04,1.047,2.39,1.67,4.05,1.875v2.667h2.741v-2.73c1.873-0.277,2.693-1.017,3.744-2.219c1.051-1.203,1.577-2.682,1.577-4.437
			c0-1.57-0.418-2.856-1.253-3.861c-0.833-1.002-1.761-1.819-4.067-2.449v-5.685c0.932,0.409,0.865,1.185,1.08,2.328l3.652-0.485
			c-0.251-1.454-0.828-3.723-1.729-4.59c-0.904-0.868-1.477-1.395-3.003-1.579V20.81h-2.741v1.439
			c-1.651,0.166-2.974,0.789-3.967,1.869c-0.993,1.082-1.49,3.526-1.49,5.116c0,1.57,0.439,2.905,1.317,4.006
			c0.878,1.101,2.259,1.923,4.14,2.464V41.797 M28.709,26.534v5.029c-0.623-0.271-1.088-0.629-1.391-1.069
			c-0.303-0.441-0.456-0.919-0.456-1.432c0-0.562,0.167-1.075,0.498-1.54C27.694,27.055,28.144,26.726,28.709,26.534 M31.45,36.331
			c0.865,0.251,0.844,0.612,1.224,1.082c0.379,0.47,0.569,1.03,0.569,1.679c0,0.727-0.225,1.359-0.677,1.897
			c-0.452,0.537-0.396,0.878-1.116,1.019V36.331 M34.622,4.518h-9.49c-4.039,0-7.325,3.31-7.325,7.379v3.191
			c0,0.371,0.028,0.732,0.084,1.081h-5.41c-4.04,0-7.327,3.311-7.327,7.381v19.752c0,4.157,3.401,7.381,6.327,7.381h35.038h1
			c4.04,0,7.327-3.311,7.327-7.381V23.55c0-4.07-3.287-7.381-7.327-7.381h-5.644c0.049-0.367,0.073-0.728,0.073-1.081v-3.191
			C41.949,7.828,38.662,4.518,34.622,4.518L34.622,4.518z M23.696,16.169V15.25c0-1.73,1.393-3.138,3.104-3.138h6.156
			c1.711,0,3.102,1.408,3.102,3.138v0.919H23.696L23.696,16.169z M29.709,21.81h0.741v0.439c0,0.506,0.378,0.932,0.88,0.993
			c1.223,0.148,1.602,0.511,2.43,1.307c0.433,0.416,0.896,1.572,1.231,3.018l-1.632,0.217c-0.143-0.786-0.423-1.649-1.507-2.125
			c-0.129-0.056-0.266-0.084-0.402-0.084c-0.191,0-0.382,0.055-0.547,0.163c-0.283,0.185-0.453,0.5-0.453,0.837v5.685
			c0,0.451,0.302,0.846,0.736,0.965c2.15,0.588,2.885,1.31,3.562,2.124c0.688,0.828,1.022,1.881,1.022,3.221
			c0,1.518-0.435,2.754-1.33,3.779c-0.972,1.111-1.598,1.659-3.137,1.887c-0.49,0.073-0.854,0.493-0.854,0.989v1.73h-0.741v-1.667
			c0-0.505-0.377-0.931-0.878-0.993c-1.447-0.178-2.58-0.697-3.463-1.587c-0.695-0.699-1.2-1.655-1.508-2.851l1.823-0.195
			c0.197,0.559,0.469,1.067,0.811,1.519c0.522,0.685,1.12,1.194,1.777,1.513c0.138,0.067,0.288,0.1,0.437,0.1
			c0.185,0,0.369-0.051,0.531-0.152c0.292-0.183,0.469-0.503,0.469-0.848v-6.092c0-0.446-0.295-0.838-0.723-0.961
			c-1.67-0.481-2.892-1.196-3.634-2.126c-0.739-0.927-1.099-2.034-1.099-3.382c0-1.499,0.493-3.64,1.226-4.44
			c0.828-0.901,1.918-1.409,3.33-1.55c0.511-0.051,0.9-0.481,0.9-0.995V21.81L29.709,21.81z M28.709,25.534
			c-0.108,0-0.216,0.017-0.321,0.053c-0.766,0.26-1.386,0.715-1.842,1.354c-0.454,0.638-0.684,1.351-0.684,2.12
			c0,0.717,0.213,1.389,0.632,1.999c0.41,0.595,1.02,1.073,1.816,1.419c0.128,0.056,0.264,0.083,0.399,0.083
			c0.192,0,0.383-0.055,0.548-0.164c0.282-0.185,0.452-0.499,0.452-0.836v-5.029c0-0.322-0.155-0.625-0.417-0.813
			C29.12,25.598,28.915,25.534,28.709,25.534L28.709,25.534z M31.45,35.331c-0.214,0-0.425,0.069-0.601,0.2
			c-0.252,0.189-0.399,0.485-0.399,0.8v5.678c0,0.299,0.134,0.582,0.365,0.772c0.181,0.149,0.406,0.228,0.635,0.228
			c0.064,0,0.129-0.006,0.193-0.019c0.858-0.169,1.183-0.588,1.467-1.04c0.071-0.112,0.131-0.21,0.222-0.317
			c0.605-0.719,0.912-1.574,0.912-2.54c0-0.88-0.266-1.656-0.791-2.307c-0.07-0.086-0.119-0.168-0.166-0.244
			c-0.289-0.463-0.626-0.9-1.557-1.171C31.637,35.344,31.543,35.331,31.45,35.331L31.45,35.331z"/>
	</g>
</g>
<g id="group">
	<path id="g" fill="#FFFFFF" d="M46.519,49.682H11.481c-2.494,0-5.327-2.856-5.327-6.381V23.55c0-3.524,2.832-6.381,6.327-6.381
		h6.725c-0.255-0.606-0.398-1.298-0.398-2.081v-3.191c0-3.522,2.832-6.379,6.325-6.379h9.49c3.494,0,6.327,2.856,6.327,6.379v3.191
		c0,0.673-0.104,1.378-0.296,2.081h6.866c3.494,0,6.327,2.856,6.327,6.381v19.752c0,3.524-2.832,6.381-6.327,6.381H46.519z
		 M37.058,15.25c0-2.285-1.837-4.138-4.102-4.138H26.8c-2.267,0-4.104,1.852-4.104,4.138v0.96c0,0.288,0.034,0.614,0.089,0.96
		h14.152c0.073-0.309,0.121-0.627,0.121-0.96V15.25L37.058,15.25z M32.531,28.904l3.652-0.485c-0.251-1.454-0.828-3.723-1.729-4.59
		c-0.904-0.868-1.477-1.395-3.003-1.579V20.81h-2.741v1.439c-1.651,0.166-2.974,0.789-3.967,1.869
		c-0.993,1.082-1.49,3.526-1.49,5.116c0,1.57,0.439,2.905,1.317,4.006c0.878,1.101,2.259,1.923,4.14,2.464v6.092
		c-0.517-0.251-0.989-0.656-1.417-1.218c-0.426-0.562-0.716-1.227-0.87-1.999l-3.757,0.402c0.288,1.91,0.952,3.386,1.994,4.433
		c1.04,1.047,2.39,1.67,4.05,1.875v2.667h2.741v-2.73c1.873-0.277,2.693-1.017,3.743-2.219c1.051-1.203,1.577-2.682,1.577-4.437
		c0-1.57-0.418-2.856-1.253-3.861c-0.833-1.002-1.761-1.819-4.067-2.449v-5.685C32.382,26.984,32.315,27.76,32.531,28.904
		L32.531,28.904z M27.318,30.494c-0.303-0.441-0.456-0.919-0.456-1.432c0-0.562,0.167-1.075,0.498-1.54
		c0.333-0.467,0.783-0.796,1.348-0.988v5.029C28.086,31.291,27.621,30.934,27.318,30.494L27.318,30.494z M32.674,37.413
		c0.379,0.47,0.569,1.03,0.569,1.679c0,0.727-0.225,1.359-0.677,1.897c-0.452,0.537-0.396,0.878-1.116,1.019v-5.678
		C32.315,36.582,32.294,36.943,32.674,37.413L32.674,37.413z"/>
</g>
<g id="disabled">
	<path id="d_1_" fill="#FFFFFF" d="M46.519,49.682H11.481c-2.494,0-5.327-2.856-5.327-6.381V23.55
		c0-3.524,2.832-6.381,6.327-6.381h6.725c-0.255-0.606-0.398-1.298-0.398-2.081v-3.191c0-3.522,2.832-6.379,6.325-6.379h9.49
		c3.494,0,6.327,2.856,6.327,6.379v3.191c0,0.673-0.104,1.378-0.296,2.081h6.866c3.494,0,6.327,2.856,6.327,6.381v19.752
		c0,3.524-2.832,6.381-6.327,6.381H46.519z M37.058,15.25c0-2.285-1.837-4.138-4.102-4.138H26.8c-2.267,0-4.104,1.852-4.104,4.138
		v0.96c0,0.288,0.034,0.614,0.089,0.96h14.152c0.073-0.309,0.121-0.627,0.121-0.96V15.25L37.058,15.25z M32.531,28.904l3.652-0.485
		c-0.251-1.454-0.828-3.723-1.729-4.59c-0.904-0.868-1.477-1.395-3.003-1.579V20.81h-2.741v1.439
		c-1.651,0.166-2.974,0.789-3.967,1.869c-0.993,1.082-1.49,3.526-1.49,5.116c0,1.57,0.439,2.905,1.317,4.006
		c0.878,1.101,2.259,1.923,4.14,2.464v6.092c-0.517-0.251-0.989-0.656-1.417-1.218c-0.426-0.562-0.716-1.227-0.87-1.999
		l-3.757,0.402c0.288,1.91,0.952,3.386,1.994,4.433c1.04,1.047,2.39,1.67,4.05,1.875v2.667h2.741v-2.73
		c1.873-0.277,2.693-1.017,3.743-2.219c1.051-1.203,1.577-2.682,1.577-4.437c0-1.57-0.418-2.856-1.253-3.861
		c-0.833-1.002-1.761-1.819-4.067-2.449v-5.685C32.382,26.984,32.315,27.76,32.531,28.904L32.531,28.904z M27.318,30.494
		c-0.303-0.441-0.456-0.919-0.456-1.432c0-0.562,0.167-1.075,0.498-1.54c0.333-0.467,0.783-0.796,1.348-0.988v5.029
		C28.086,31.291,27.621,30.934,27.318,30.494L27.318,30.494z M32.674,37.413c0.379,0.47,0.569,1.03,0.569,1.679
		c0,0.727-0.225,1.359-0.677,1.897c-0.452,0.537-0.396,0.878-1.116,1.019v-5.678C32.315,36.582,32.294,36.943,32.674,37.413
		L32.674,37.413z"/>
</g>
<g id="normal">
	<path id="n" fill="#FFFFFF" d="M46.519,49.682H11.481c-2.494,0-5.327-2.856-5.327-6.381V23.55c0-3.524,2.832-6.381,6.327-6.381
		h6.725c-0.255-0.606-0.398-1.298-0.398-2.081v-3.191c0-3.522,2.832-6.379,6.325-6.379h9.49c3.494,0,6.327,2.856,6.327,6.379v3.191
		c0,0.673-0.104,1.378-0.296,2.081h6.866c3.494,0,6.327,2.856,6.327,6.381v19.752c0,3.524-2.832,6.381-6.327,6.381H46.519z
		 M37.058,15.25c0-2.285-1.837-4.138-4.102-4.138H26.8c-2.267,0-4.104,1.852-4.104,4.138v0.96c0,0.288,0.034,0.614,0.089,0.96
		h14.152c0.073-0.309,0.121-0.627,0.121-0.96V15.25L37.058,15.25z M32.531,28.904l3.652-0.485c-0.251-1.454-0.828-3.723-1.729-4.59
		c-0.904-0.868-1.477-1.395-3.003-1.579V20.81h-2.741v1.439c-1.651,0.166-2.974,0.789-3.967,1.869
		c-0.993,1.082-1.49,3.526-1.49,5.116c0,1.57,0.439,2.905,1.317,4.006c0.878,1.101,2.259,1.923,4.14,2.464v6.092
		c-0.517-0.251-0.989-0.656-1.417-1.218c-0.426-0.562-0.716-1.227-0.87-1.999l-3.757,0.402c0.288,1.91,0.952,3.386,1.994,4.433
		c1.04,1.047,2.39,1.67,4.05,1.875v2.667h2.741v-2.73c1.873-0.277,2.693-1.017,3.743-2.219c1.051-1.203,1.577-2.682,1.577-4.437
		c0-1.57-0.418-2.856-1.253-3.861c-0.833-1.002-1.761-1.819-4.067-2.449v-5.685C32.382,26.984,32.315,27.76,32.531,28.904
		L32.531,28.904z M27.318,30.494c-0.303-0.441-0.456-0.919-0.456-1.432c0-0.562,0.167-1.075,0.498-1.54
		c0.333-0.467,0.783-0.796,1.348-0.988v5.029C28.086,31.291,27.621,30.934,27.318,30.494L27.318,30.494z M32.674,37.413
		c0.379,0.47,0.569,1.03,0.569,1.679c0,0.727-0.225,1.359-0.677,1.897c-0.452,0.537-0.396,0.878-1.116,1.019v-5.678
		C32.315,36.582,32.294,36.943,32.674,37.413L32.674,37.413z"/>
</g>
</svg>
