<?xml version="1.0" encoding="utf-8"?>
<!-- Generator: Adobe Illustrator 17.0.1, SVG Export Plug-In . SVG Version: 6.00 Build 0)  -->
<!DOCTYPE svg PUBLIC "-//W3C//DTD SVG 1.1//EN" "http://www.w3.org/Graphics/SVG/1.1/DTD/svg11.dtd">
<svg version="1.1" xmlns="http://www.w3.org/2000/svg" xmlns:xlink="http://www.w3.org/1999/xlink" x="0px" y="0px" width="60px"
	 height="60px" viewBox="0 0 60 60" enable-background="new 0 0 60 60" xml:space="preserve">
<g id="hwy_disabled">
	<g id="hd">
		<path fill="#313131" d="M30.001,58.382c-15.52,0-28.146-12.732-28.146-28.383c0-15.649,12.626-28.381,28.146-28.381
			c15.519,0,28.144,12.731,28.144,28.381C58.145,45.649,45.52,58.382,30.001,58.382z M17.301,46.051
			c-0.014,0.142-0.213,2.459,0.844,3.677c0.429,0.493,1.003,0.733,1.755,0.733c0.936,0,1.662-0.276,2.158-0.821
			c0.958-1.053,0.901-2.863,0.833-3.593c-0.013-0.141,0.028-0.341,0.123-0.445c0.094-0.103,0.227-0.162,0.366-0.163
			c1.969-0.024,8.489-0.102,13.106-0.102c0.142,0,0.278,0.061,0.373,0.166c0.095,0.106,0.135,0.306,0.119,0.446
			c-0.079,0.721-0.158,2.512,0.811,3.593c0.537,0.599,1.342,0.902,2.396,0.902c0.726,0,1.28-0.213,1.696-0.651
			c0.676-0.712,0.97-1.982,0.875-3.775c-0.012-0.224-0.021-0.385,0.133-0.547c0.095-0.1,0.227-0.156,0.364-0.156
			c1.103,0,1.769-0.006,2.154-0.012c0.053-17.032,0.481-29.568,0.521-30.717c-0.159-0.486-1.194-3.211-4.364-3.211H18.156
			c-0.958,0-3.395,0.898-3.737,3.121c0.002,0.128-0.321,19.285,0.359,30.978c0.71-0.005,2.029-0.015,2.031-0.015
			c0.204,0,0.388,0.124,0.464,0.314C17.31,45.863,17.318,45.96,17.301,46.051z M39.46,41.903c-1.858,0-3.37-1.524-3.37-3.398
			c0-1.876,1.512-3.401,3.37-3.401c1.86,0,3.373,1.525,3.373,3.401C42.833,40.379,41.32,41.903,39.46,41.903z M20.503,41.903
			c-1.858,0-3.37-1.524-3.37-3.398c0-1.876,1.512-3.401,3.37-3.401c1.561,0,2.876,1.074,3.26,2.527
			c0.087,0.09,0.142,0.213,0.142,0.349c0,0.073-0.016,0.143-0.043,0.205c0.01,0.105,0.015,0.212,0.015,0.32
			C23.876,40.379,22.363,41.903,20.503,41.903z M17.667,31.379c-0.276,0-0.5-0.224-0.5-0.5V17.676c0-0.276,0.224-0.5,0.5-0.5h24.667
			c0.276,0,0.5,0.224,0.5,0.5v13.203c0,0.276-0.224,0.5-0.5,0.5H17.667z"/>
		<path d="M30.001,2.119c15.267,0,27.644,12.483,27.644,27.88c0,15.4-12.377,27.882-27.644,27.882
			c-15.267,0-27.646-12.483-27.646-27.882C2.355,14.601,14.734,2.119,30.001,2.119 M14.308,45.977c0,0,2.432-0.017,2.502-0.018
			c-0.018,0.016-0.536,5.001,3.091,5.001c4.231,0,3.463-5.022,3.484-5.022c0.02,0,7.819-0.102,13.102-0.102
			c0.02,0-0.846,5.108,3.698,5.108c3.751,0,3.009-5.13,3.068-5.13c2.153,0,2.653-0.022,2.653-0.022
			c0.049-18.24,0.526-31.272,0.526-31.272s-1.023-3.645-4.867-3.645H18.156c-1.275,0-3.852,1.086-4.231,3.545
			C13.925,14.42,13.58,34.182,14.308,45.977 M42.335,17.675v13.204H17.667V17.675H42.335 M39.46,35.604
			c1.583,0,2.873,1.302,2.873,2.901c0,1.597-1.29,2.899-2.873,2.899c-1.583,0-2.871-1.302-2.871-2.899
			C36.59,36.905,37.877,35.604,39.46,35.604 M20.503,35.604c1.583,0,2.873,1.302,2.873,2.901c0,1.597-1.29,2.899-2.873,2.899
			c-1.583,0-2.871-1.302-2.871-2.899C17.633,36.905,18.92,35.604,20.503,35.604 M16.81,45.959
			C16.812,45.959,16.811,45.959,16.81,45.959C16.809,45.959,16.81,45.959,16.81,45.959 M30.001,1.119
			c-15.795,0-28.646,12.956-28.646,28.88c0,15.926,12.851,28.882,28.646,28.882c15.794,0,28.644-12.957,28.644-28.882
			C58.645,14.074,45.795,1.119,30.001,1.119L30.001,1.119z M14.923,14.51c0.332-1.876,2.41-2.635,3.233-2.635h23.406
			c2.678,0,3.653,2.21,3.861,2.787c-0.056,1.603-0.459,13.737-0.517,30.146c-0.39,0.003-0.926,0.006-1.656,0.006
			c-0.274,0-0.538,0.113-0.726,0.312c-0.301,0.317-0.283,0.664-0.269,0.918c0.108,2.056-0.342,2.986-0.739,3.405
			c-0.316,0.333-0.752,0.495-1.333,0.495c-0.918,0-1.579-0.241-2.023-0.736c-0.834-0.931-0.757-2.551-0.685-3.204
			c0.014-0.124,0.055-0.501-0.244-0.834c-0.19-0.212-0.461-0.333-0.745-0.333c-4.621,0-11.144,0.077-13.033,0.101l-0.078,0.001
			c-0.278,0.003-0.543,0.121-0.73,0.327c-0.299,0.328-0.263,0.704-0.251,0.828c0.063,0.663,0.12,2.304-0.704,3.209
			c-0.403,0.443-0.988,0.658-1.788,0.658c-0.602,0-1.036-0.175-1.368-0.551c-0.803-0.91-0.79-2.766-0.739-3.262
			c0.045-0.232,0.006-0.477-0.115-0.688c-0.178-0.31-0.51-0.502-0.868-0.502c-0.007,0-0.014,0-0.021,0
			c-0.094,0.001-0.876,0.007-1.538,0.011C14.627,33.632,14.902,15.8,14.923,14.51L14.923,14.51z M42.335,16.675H17.667
			c-0.552,0-1,0.448-1,1v13.204c0,0.552,0.448,1,1,1h24.668c0.552,0,1-0.448,1-1V17.675C43.335,17.123,42.887,16.675,42.335,16.675
			L42.335,16.675z M39.46,34.604c-2.134,0-3.871,1.75-3.871,3.901c0,2.15,1.736,3.899,3.871,3.899c2.135,0,3.873-1.749,3.873-3.899
			C43.333,36.354,41.596,34.604,39.46,34.604L39.46,34.604z M20.503,34.604c-2.134,0-3.871,1.75-3.871,3.901
			c0,2.15,1.736,3.899,3.871,3.899c2.135,0,3.873-1.749,3.873-3.899C24.376,36.354,22.639,34.604,20.503,34.604L20.503,34.604z"/>
	</g>
</g>
<g id="hwy">
	<g id="h_1_">
		<path fill="#FFFFFF" d="M30.001,58.382c-15.52,0-28.146-12.732-28.146-28.383c0-15.649,12.626-28.381,28.146-28.381
			c15.519,0,28.144,12.731,28.144,28.381C58.145,45.649,45.52,58.382,30.001,58.382z M17.301,46.051
			c-0.014,0.142-0.213,2.459,0.844,3.677c0.429,0.493,1.003,0.733,1.755,0.733c0.936,0,1.662-0.276,2.158-0.821
			c0.958-1.053,0.901-2.863,0.833-3.593c-0.013-0.141,0.028-0.341,0.123-0.445c0.094-0.103,0.227-0.162,0.366-0.163
			c1.969-0.024,8.489-0.102,13.106-0.102c0.142,0,0.278,0.061,0.373,0.166c0.095,0.106,0.135,0.306,0.119,0.446
			c-0.079,0.721-0.158,2.512,0.811,3.593c0.537,0.599,1.342,0.902,2.396,0.902c0.726,0,1.28-0.213,1.696-0.651
			c0.676-0.712,0.97-1.982,0.875-3.775c-0.012-0.224-0.021-0.385,0.133-0.547c0.095-0.1,0.227-0.156,0.364-0.156
			c1.103,0,1.769-0.006,2.154-0.012c0.053-17.032,0.481-29.568,0.521-30.717c-0.159-0.486-1.194-3.211-4.364-3.211H18.156
			c-0.958,0-3.395,0.898-3.737,3.121c0.002,0.128-0.321,19.285,0.359,30.978c0.71-0.005,2.029-0.015,2.031-0.015
			c0.204,0,0.388,0.124,0.464,0.314C17.31,45.863,17.318,45.96,17.301,46.051z M39.46,41.903c-1.858,0-3.37-1.524-3.37-3.398
			c0-1.876,1.512-3.401,3.37-3.401c1.86,0,3.373,1.525,3.373,3.401C42.833,40.379,41.32,41.903,39.46,41.903z M20.503,41.903
			c-1.858,0-3.37-1.524-3.37-3.398c0-1.876,1.512-3.401,3.37-3.401c1.561,0,2.876,1.074,3.26,2.527
			c0.087,0.09,0.142,0.213,0.142,0.349c0,0.073-0.016,0.143-0.043,0.205c0.01,0.105,0.015,0.212,0.015,0.32
			C23.876,40.379,22.363,41.903,20.503,41.903z M17.667,31.379c-0.276,0-0.5-0.224-0.5-0.5V17.676c0-0.276,0.224-0.5,0.5-0.5h24.667
			c0.276,0,0.5,0.224,0.5,0.5v13.203c0,0.276-0.224,0.5-0.5,0.5H17.667z"/>
		<path d="M30.001,2.119c15.267,0,27.644,12.483,27.644,27.88c0,15.4-12.377,27.882-27.644,27.882
			c-15.267,0-27.646-12.483-27.646-27.882C2.355,14.601,14.734,2.119,30.001,2.119 M14.308,45.977c0,0,2.432-0.017,2.502-0.018
			c-0.018,0.016-0.536,5.001,3.091,5.001c4.231,0,3.463-5.022,3.484-5.022c0.02,0,7.819-0.102,13.102-0.102
			c0.02,0-0.846,5.108,3.698,5.108c3.751,0,3.009-5.13,3.068-5.13c2.153,0,2.653-0.022,2.653-0.022
			c0.049-18.24,0.526-31.272,0.526-31.272s-1.023-3.645-4.867-3.645H18.156c-1.275,0-3.852,1.086-4.231,3.545
			C13.925,14.42,13.58,34.182,14.308,45.977 M42.335,17.675v13.204H17.667V17.675H42.335 M39.46,35.604
			c1.583,0,2.873,1.302,2.873,2.901c0,1.597-1.29,2.899-2.873,2.899c-1.583,0-2.871-1.302-2.871-2.899
			C36.59,36.905,37.877,35.604,39.46,35.604 M20.503,35.604c1.583,0,2.873,1.302,2.873,2.901c0,1.597-1.29,2.899-2.873,2.899
			c-1.583,0-2.871-1.302-2.871-2.899C17.633,36.905,18.92,35.604,20.503,35.604 M16.81,45.959
			C16.812,45.959,16.811,45.959,16.81,45.959C16.809,45.959,16.81,45.959,16.81,45.959 M30.001,1.119
			c-15.795,0-28.646,12.956-28.646,28.88c0,15.926,12.851,28.882,28.646,28.882c15.794,0,28.644-12.957,28.644-28.882
			C58.645,14.074,45.795,1.119,30.001,1.119L30.001,1.119z M14.923,14.51c0.332-1.876,2.41-2.635,3.233-2.635h23.406
			c2.678,0,3.653,2.21,3.861,2.787c-0.056,1.603-0.459,13.737-0.517,30.146c-0.39,0.003-0.926,0.006-1.656,0.006
			c-0.274,0-0.538,0.113-0.726,0.312c-0.301,0.317-0.283,0.664-0.269,0.918c0.108,2.056-0.342,2.986-0.739,3.405
			c-0.316,0.333-0.752,0.495-1.333,0.495c-0.918,0-1.579-0.241-2.023-0.736c-0.834-0.931-0.757-2.551-0.685-3.204
			c0.014-0.124,0.055-0.501-0.244-0.834c-0.19-0.212-0.461-0.333-0.745-0.333c-4.621,0-11.144,0.077-13.033,0.101l-0.078,0.001
			c-0.278,0.003-0.543,0.121-0.73,0.327c-0.299,0.328-0.263,0.704-0.251,0.828c0.063,0.663,0.12,2.304-0.704,3.209
			c-0.403,0.443-0.988,0.658-1.788,0.658c-0.602,0-1.036-0.175-1.368-0.551c-0.803-0.91-0.79-2.766-0.739-3.262
			c0.045-0.232,0.006-0.477-0.115-0.688c-0.178-0.31-0.51-0.502-0.868-0.502c-0.007,0-0.014,0-0.021,0
			c-0.094,0.001-0.876,0.007-1.538,0.011C14.627,33.632,14.902,15.8,14.923,14.51L14.923,14.51z M42.335,16.675H17.667
			c-0.552,0-1,0.448-1,1v13.204c0,0.552,0.448,1,1,1h24.668c0.552,0,1-0.448,1-1V17.675C43.335,17.123,42.887,16.675,42.335,16.675
			L42.335,16.675z M39.46,34.604c-2.134,0-3.871,1.75-3.871,3.901c0,2.15,1.736,3.899,3.871,3.899c2.135,0,3.873-1.749,3.873-3.899
			C43.333,36.354,41.596,34.604,39.46,34.604L39.46,34.604z M20.503,34.604c-2.134,0-3.871,1.75-3.871,3.901
			c0,2.15,1.736,3.899,3.871,3.899c2.135,0,3.873-1.749,3.873-3.899C24.376,36.354,22.639,34.604,20.503,34.604L20.503,34.604z"/>
	</g>
</g>
<g id="group">
	<path id="g" fill="#FFFFFF" d="M30.001,57.881c-15.267,0-27.646-12.483-27.646-27.882c0-15.398,12.379-27.88,27.646-27.88
		c15.267,0,27.644,12.483,27.644,27.88C57.645,45.399,45.268,57.881,30.001,57.881L30.001,57.881z M41.563,10.875H18.156
		c-1.275,0-3.853,1.086-4.231,3.545c0,0-0.344,19.762,0.383,31.558c0,0,2.573-0.018,2.502-0.018c-0.016,0-0.542,5.002,3.091,5.002
		c4.231,0,3.463-5.022,3.484-5.022c0.02,0,7.819-0.102,13.102-0.102c0.02,0-0.846,5.108,3.698,5.108c3.751,0,3.009-5.13,3.068-5.13
		c2.153,0,2.653-0.022,2.653-0.022c0.049-18.24,0.526-31.272,0.526-31.272S45.407,10.875,41.563,10.875L41.563,10.875z
		 M17.667,17.675h24.668v13.204H17.667V17.675L17.667,17.675z M20.503,35.604c1.583,0,2.873,1.302,2.873,2.901
		c0,1.597-1.29,2.899-2.873,2.899c-1.583,0-2.871-1.302-2.871-2.899C17.633,36.905,18.92,35.604,20.503,35.604L20.503,35.604z
		 M39.46,35.604c1.583,0,2.873,1.302,2.873,2.901c0,1.597-1.29,2.899-2.873,2.899c-1.583,0-2.871-1.302-2.871-2.899
		C36.59,36.905,37.877,35.604,39.46,35.604L39.46,35.604z"/>
</g>
<g id="disabled">
	<path id="d_1_" fill="#FFFFFF" d="M30.001,57.881c-15.267,0-27.646-12.483-27.646-27.882c0-15.398,12.379-27.88,27.646-27.88
		c15.267,0,27.644,12.483,27.644,27.88C57.645,45.399,45.268,57.881,30.001,57.881L30.001,57.881z M41.563,10.875H18.156
		c-1.275,0-3.853,1.086-4.231,3.545c0,0-0.344,19.762,0.383,31.558c0,0,2.573-0.018,2.502-0.018c-0.016,0-0.542,5.002,3.091,5.002
		c4.231,0,3.463-5.022,3.484-5.022c0.02,0,7.819-0.102,13.102-0.102c0.02,0-0.846,5.108,3.698,5.108c3.751,0,3.009-5.13,3.068-5.13
		c2.153,0,2.653-0.022,2.653-0.022c0.049-18.24,0.526-31.272,0.526-31.272S45.407,10.875,41.563,10.875L41.563,10.875z
		 M17.667,17.675h24.668v13.204H17.667V17.675L17.667,17.675z M20.503,35.604c1.583,0,2.873,1.302,2.873,2.901
		c0,1.597-1.29,2.899-2.873,2.899c-1.583,0-2.871-1.302-2.871-2.899C17.633,36.905,18.92,35.604,20.503,35.604L20.503,35.604z
		 M39.46,35.604c1.583,0,2.873,1.302,2.873,2.901c0,1.597-1.29,2.899-2.873,2.899c-1.583,0-2.871-1.302-2.871-2.899
		C36.59,36.905,37.877,35.604,39.46,35.604L39.46,35.604z"/>
</g>
<g id="normal">
	<path id="n" fill="#FFFFFF" d="M30.001,57.881c-15.267,0-27.646-12.483-27.646-27.882c0-15.398,12.379-27.88,27.646-27.88
		c15.267,0,27.644,12.483,27.644,27.88C57.645,45.399,45.268,57.881,30.001,57.881L30.001,57.881z M41.563,10.875H18.156
		c-1.275,0-3.853,1.086-4.231,3.545c0,0-0.344,19.762,0.383,31.558c0,0,2.573-0.018,2.502-0.018c-0.016,0-0.542,5.002,3.091,5.002
		c4.231,0,3.463-5.022,3.484-5.022c0.02,0,7.819-0.102,13.102-0.102c0.02,0-0.846,5.108,3.698,5.108c3.751,0,3.009-5.13,3.068-5.13
		c2.153,0,2.653-0.022,2.653-0.022c0.049-18.24,0.526-31.272,0.526-31.272S45.407,10.875,41.563,10.875L41.563,10.875z
		 M17.667,17.675h24.668v13.204H17.667V17.675L17.667,17.675z M20.503,35.604c1.583,0,2.873,1.302,2.873,2.901
		c0,1.597-1.29,2.899-2.873,2.899c-1.583,0-2.871-1.302-2.871-2.899C17.633,36.905,18.92,35.604,20.503,35.604L20.503,35.604z
		 M39.46,35.604c1.583,0,2.873,1.302,2.873,2.901c0,1.597-1.29,2.899-2.873,2.899c-1.583,0-2.871-1.302-2.871-2.899
		C36.59,36.905,37.877,35.604,39.46,35.604L39.46,35.604z"/>
</g>
</svg>
