<?xml version="1.0" encoding="utf-8"?>
<!-- Generator: Adobe Illustrator 17.0.1, SVG Export Plug-In . SVG Version: 6.00 Build 0)  -->
<!DOCTYPE svg PUBLIC "-//W3C//DTD SVG 1.1//EN" "http://www.w3.org/Graphics/SVG/1.1/DTD/svg11.dtd">
<svg version="1.1" xmlns="http://www.w3.org/2000/svg" xmlns:xlink="http://www.w3.org/1999/xlink" x="0px" y="0px" width="60px"
	 height="60px" viewBox="0 0 60 60" enable-background="new 0 0 60 60" xml:space="preserve">
<g id="hwy_disabled">
	<g id="hd">
		<path fill="#313131" d="M26.037,56.493c0.708-5.793,1.435-15.009,0.539-16.657c-0.264-0.485-0.928-0.692-2.221-0.692
			c-0.448,0-0.924,0.023-1.408,0.048c-0.516,0.025-1.041,0.051-1.55,0.051c-1.281,0-2.865-0.148-3.743-1.305
			c-0.737-0.971-0.851-2.479-0.342-4.596c-5.431-0.447-6.922-3.473-7.325-5.28c-0.757-3.392,1.167-7.628,4.244-9.513
			c-0.814-1.889-0.632-4.251,0.505-6.155c0.814-1.363,2.833-3.65,7.207-3.65c0.469,0,0.955,0.027,1.453,0.082
			c-0.146-1.135,0.135-2.198,0.828-3.111c1.295-1.707,3.934-2.768,6.888-2.768c2.67,0,5,0.883,6.39,2.422
			c0.988,1.094,1.484,2.507,1.452,4.115c0.248-0.024,0.494-0.036,0.735-0.036c2.985,0,5.498,1.897,6.4,4.833
			c0.775,2.523,0.12,5.033-1.667,6.582c2.76,2.353,3.759,7.362,2.772,10.606c-0.676,2.225-2.182,3.45-4.24,3.45
			c-0.477,0-0.983-0.067-1.514-0.2c0.373,2.055,0.274,3.315-0.305,4.034c-0.371,0.46-0.922,0.684-1.687,0.684
			c-0.47,0-0.969-0.078-1.498-0.161c-0.53-0.083-1.079-0.17-1.59-0.17c-0.811,0-1.358,0.215-1.773,0.694
			c-1.238,1.432,1.57,10.382,3.631,15.688l0.243,0.626l-12.497,0.987L26.037,56.493z"/>
		<path d="M31.11,3.446c3.879,0,7.774,2.007,7.306,6.614c0.44-0.077,0.864-0.113,1.271-0.113c5.995-0.001,8.361,7.897,3.91,10.918
			c4.366,2.926,5.09,13.554-0.645,13.554c-0.641,0-1.362-0.133-2.169-0.424c0.903,4.134,0.067,4.941-1.336,4.941
			c-0.899,0-2.03-0.331-3.088-0.331c-0.805,0-1.568,0.192-2.152,0.867c-1.897,2.193,3.543,16.195,3.543,16.195l-11.217,0.886
			c0,0,1.78-14.569,0.482-16.957c-0.426-0.783-1.443-0.953-2.66-0.953c-0.927,0-1.97,0.098-2.958,0.098
			c-2.643,0-4.888-0.701-3.45-5.861c-10.814-0.478-8.504-11.274-3.064-14.129c-1.866-3.464,0.185-9.508,7.059-9.508
			c0.651,0,1.344,0.054,2.082,0.17C22.974,5.665,27.033,3.446,31.11,3.446 M31.11,2.446c-3.107,0-5.899,1.136-7.286,2.965
			c-0.649,0.856-0.975,1.828-0.968,2.864c-0.31-0.021-0.615-0.032-0.914-0.032c-4.621,0-6.768,2.44-7.637,3.894
			c-1.14,1.909-1.382,4.252-0.69,6.211c-3.084,2.099-4.902,6.305-4.117,9.821c0.696,3.117,3.295,5.121,7.206,5.609
			c-0.395,1.989-0.212,3.455,0.552,4.46c1.011,1.332,2.745,1.502,4.142,1.502c0.526,0,1.059-0.026,1.575-0.051
			c0.489-0.024,0.952-0.047,1.383-0.047c1.027,0,1.626,0.145,1.782,0.431c0.717,1.318,0.26,9.352-0.596,16.358l-0.148,1.215
			l1.22-0.096l11.217-0.886l1.34-0.106l-0.487-1.253c-2.76-7.105-4.497-14.199-3.718-15.179c0.315-0.365,0.733-0.52,1.395-0.52
			c0.472,0,1.001,0.083,1.513,0.163c0.524,0.082,1.066,0.167,1.575,0.167c0.913,0,1.611-0.293,2.076-0.87
			c0.607-0.754,0.778-1.903,0.524-3.716c0.31,0.046,0.612,0.069,0.904,0.069c2.263,0,3.983-1.387,4.718-3.805
			c0.983-3.232,0.073-8.146-2.521-10.755c1.632-1.691,2.19-4.204,1.415-6.726c-0.968-3.15-3.667-5.186-6.877-5.186
			c-0.081,0-0.162,0.001-0.244,0.004c-0.076-1.514-0.611-2.853-1.573-3.918C36.386,3.389,33.921,2.446,31.11,2.446L31.11,2.446z"/>
	</g>
</g>
<g id="hwy">
	<g id="h_2_">
		<path fill="#FFFFFF" d="M26.037,56.493c0.708-5.793,1.435-15.009,0.539-16.657c-0.264-0.485-0.928-0.692-2.221-0.692
			c-0.448,0-0.924,0.023-1.408,0.048c-0.516,0.025-1.041,0.051-1.55,0.051c-1.281,0-2.865-0.148-3.743-1.305
			c-0.737-0.971-0.851-2.479-0.342-4.596c-5.431-0.447-6.922-3.473-7.325-5.28c-0.757-3.392,1.167-7.628,4.244-9.513
			c-0.814-1.889-0.632-4.251,0.505-6.155c0.814-1.363,2.833-3.65,7.207-3.65c0.469,0,0.955,0.027,1.453,0.082
			c-0.146-1.135,0.135-2.198,0.828-3.111c1.295-1.707,3.934-2.768,6.888-2.768c2.67,0,5,0.883,6.39,2.422
			c0.988,1.094,1.484,2.507,1.452,4.115c0.248-0.024,0.494-0.036,0.735-0.036c2.985,0,5.498,1.897,6.4,4.833
			c0.775,2.523,0.12,5.033-1.667,6.582c2.76,2.353,3.759,7.362,2.772,10.606c-0.676,2.225-2.182,3.45-4.24,3.45
			c-0.477,0-0.983-0.067-1.514-0.2c0.373,2.055,0.274,3.315-0.305,4.034c-0.371,0.46-0.922,0.684-1.687,0.684
			c-0.47,0-0.969-0.078-1.498-0.161c-0.53-0.083-1.079-0.17-1.59-0.17c-0.811,0-1.358,0.215-1.773,0.694
			c-1.238,1.432,1.57,10.382,3.631,15.688l0.243,0.626l-12.497,0.987L26.037,56.493z"/>
		<path d="M31.11,3.446c3.879,0,7.774,2.007,7.306,6.614c0.44-0.077,0.864-0.113,1.271-0.113c5.995-0.001,8.361,7.897,3.91,10.918
			c4.366,2.926,5.09,13.554-0.645,13.554c-0.641,0-1.362-0.133-2.169-0.424c0.903,4.134,0.067,4.941-1.336,4.941
			c-0.899,0-2.03-0.331-3.088-0.331c-0.805,0-1.568,0.192-2.152,0.867c-1.897,2.193,3.543,16.195,3.543,16.195l-11.217,0.886
			c0,0,1.78-14.569,0.482-16.957c-0.426-0.783-1.443-0.953-2.66-0.953c-0.927,0-1.97,0.098-2.958,0.098
			c-2.643,0-4.888-0.701-3.45-5.861c-10.814-0.478-8.504-11.274-3.064-14.129c-1.866-3.464,0.185-9.508,7.059-9.508
			c0.651,0,1.344,0.054,2.082,0.17C22.974,5.665,27.033,3.446,31.11,3.446 M31.11,2.446c-3.107,0-5.899,1.136-7.286,2.965
			c-0.649,0.856-0.975,1.828-0.968,2.864c-0.31-0.021-0.615-0.032-0.914-0.032c-4.621,0-6.768,2.44-7.637,3.894
			c-1.14,1.909-1.382,4.252-0.69,6.211c-3.084,2.099-4.902,6.305-4.117,9.821c0.696,3.117,3.295,5.121,7.206,5.609
			c-0.395,1.989-0.212,3.455,0.552,4.46c1.011,1.332,2.745,1.502,4.142,1.502c0.526,0,1.059-0.026,1.575-0.051
			c0.489-0.024,0.952-0.047,1.383-0.047c1.027,0,1.626,0.145,1.782,0.431c0.717,1.318,0.26,9.352-0.596,16.358l-0.148,1.215
			l1.22-0.096l11.217-0.886l1.34-0.106l-0.487-1.253c-2.76-7.105-4.497-14.199-3.718-15.179c0.315-0.365,0.733-0.52,1.395-0.52
			c0.472,0,1.001,0.083,1.513,0.163c0.524,0.082,1.066,0.167,1.575,0.167c0.913,0,1.611-0.293,2.076-0.87
			c0.607-0.754,0.778-1.903,0.524-3.716c0.31,0.046,0.612,0.069,0.904,0.069c2.263,0,3.983-1.387,4.718-3.805
			c0.983-3.232,0.073-8.146-2.521-10.755c1.632-1.691,2.19-4.204,1.415-6.726c-0.968-3.15-3.667-5.186-6.877-5.186
			c-0.081,0-0.162,0.001-0.244,0.004c-0.076-1.514-0.611-2.853-1.573-3.918C36.386,3.389,33.921,2.446,31.11,2.446L31.11,2.446z"/>
	</g>
</g>
<g id="group">
	<path id="g" fill="#FFFFFF" d="M43.597,20.865c4.854,3.254,5.207,16.026-2.813,13.131c1.92,8.797-4.026,2.53-6.576,5.478
		c-1.897,2.193,3.543,16.195,3.543,16.195l-11.217,0.886c0,0,1.78-14.569,0.482-16.957c-1.619-2.975-11.75,2.906-9.068-6.716
		c-10.814-0.478-8.504-11.274-3.064-14.129c-2.042-3.792,0.607-10.675,9.14-9.339c-2.048-7.315,15.353-8.802,14.393,0.647
		C45.329,8.851,48.351,17.639,43.597,20.865L43.597,20.865z"/>
</g>
<g id="disabled">
	<path id="d_2_" fill="#FFFFFF" d="M43.597,20.865c4.854,3.254,5.207,16.026-2.813,13.131c1.92,8.797-4.026,2.53-6.576,5.478
		c-1.897,2.193,3.543,16.195,3.543,16.195l-11.217,0.886c0,0,1.78-14.569,0.482-16.957c-1.619-2.975-11.75,2.906-9.068-6.716
		c-10.814-0.478-8.504-11.274-3.064-14.129c-2.042-3.792,0.607-10.675,9.14-9.339c-2.048-7.315,15.353-8.802,14.393,0.647
		C45.329,8.851,48.351,17.639,43.597,20.865L43.597,20.865z"/>
</g>
<g id="normal">
	<path id="n" fill="#FFFFFF" d="M43.597,20.865c4.854,3.254,5.207,16.026-2.813,13.131c1.92,8.797-4.026,2.53-6.576,5.478
		c-1.897,2.193,3.543,16.195,3.543,16.195l-11.217,0.886c0,0,1.78-14.569,0.482-16.957c-1.619-2.975-11.75,2.906-9.068-6.716
		c-10.814-0.478-8.504-11.274-3.064-14.129c-2.042-3.792,0.607-10.675,9.14-9.339c-2.048-7.315,15.353-8.802,14.393,0.647
		C45.329,8.851,48.351,17.639,43.597,20.865L43.597,20.865z"/>
</g>
</svg>
