<?xml version="1.0" encoding="utf-8"?>
<!-- Generator: Adobe Illustrator 17.0.1, SVG Export Plug-In . SVG Version: 6.00 Build 0)  -->
<!DOCTYPE svg PUBLIC "-//W3C//DTD SVG 1.1//EN" "http://www.w3.org/Graphics/SVG/1.1/DTD/svg11.dtd">
<svg version="1.1" xmlns="http://www.w3.org/2000/svg" xmlns:xlink="http://www.w3.org/1999/xlink" x="0px" y="0px" width="60px"
	 height="60px" viewBox="0 0 60 60" enable-background="new 0 0 60 60" xml:space="preserve">
<g id="hwy_disabled">
	<g id="hd">
		<path fill="#313131" d="M30.465,57.304c-0.833,0-1.595-0.063-2.265-0.184c-1.701-0.312-14.338-4.36-15.764-4.841
			c-0.853-0.287-1.517-1.23-1.776-2.523c-0.171-0.853-0.167-1.981,0.254-2.883H6.936c-0.276,0-0.5-0.224-0.5-0.5V31.699
			c0-0.276,0.224-0.5,0.5-0.5h8.331c0.276,0,0.5,0.224,0.5,0.5v14.335l10.251,0.887c3.178-1.023,8.258-3.268,8.653-5.053
			c0.052-0.233,0.062-0.599-0.448-1.067c-0.546-0.501-0.533-0.933-0.427-1.207c0.235-0.603,1.113-0.896,2.686-0.896
			c3.609,0,9.744,1.566,12.085,5.051c1.117,1.664,1.257,3.552,0.417,5.611C47.314,53.451,37.136,57.304,30.465,57.304z
			 M36.314,37.04c-6.929,0-12.565-5.684-12.565-12.669c0-2.088,0.512-4.101,1.523-5.983c0.088-0.165,0.259-0.264,0.44-0.264
			c0.036,0,0.073,0.004,0.11,0.012c1.701,0.383,5.103,1.025,8.77,1.025c0.273,0,0.544-0.004,0.816-0.012
			c4.583-0.128,8.659-0.776,11.271-1.298c0.033-0.007,0.065-0.01,0.098-0.01c0.177,0,0.344,0.095,0.435,0.252
			c1.092,1.917,1.669,4.087,1.669,6.277C48.881,31.356,43.244,37.04,36.314,37.04z M27.203,17.794c-1.05,0-1.992-0.012-2.776-0.037
			c-2.563-0.182-4.061-0.456-4.956-0.619c-0.47-0.086-0.809-0.148-1.032-0.148c-1.665,0-2.411-2.346-2.49-2.613
			c-0.044-0.146-0.018-0.305,0.07-0.431c0.088-0.125,0.229-0.202,0.381-0.211c2.212-0.124,8.221-0.562,9.436-1.088
			c0.094-0.04,0.119-0.07,0.119-0.07c0.003-0.244-0.792-1.063-1.318-1.604c-0.695-0.717-1.484-1.528-1.943-2.364
			c-0.611-1.109-0.715-2.216-0.276-2.958c0.256-0.435,0.818-0.952,2.037-0.952c1.067,0,2.494,0.398,4.244,1.184
			c5.882,2.639,23.116,3.78,23.289,3.791c0.043,0.003,0.086,0.012,0.127,0.025c2.054,0.691,1.42,4.404,1.108,5.781
			c0.217,0.135,0.271,0.319,0.267,0.479c-0.014,0.56-0.021,0.814-7.622,1.338C42.179,17.445,33.003,17.794,27.203,17.794z"/>
		<path d="M24.456,5.197c0.913,0,2.223,0.325,4.039,1.14c6.033,2.707,23.462,3.835,23.462,3.835
			c2.011,0.677,0.671,5.641,0.671,5.641s2.736,0.328-6.792,0.983c-3.875,0.158-12.879,0.497-18.63,0.497
			c-1.044,0-1.981-0.011-2.761-0.037c-3.922-0.278-5.256-0.767-6.004-0.767c-1.34,0-2.011-2.256-2.011-2.256
			s8.044-0.451,9.607-1.128c1.566-0.677-1.787-2.709-2.904-4.739C22.351,6.947,22.334,5.197,24.456,5.197 M46.778,18.342
			c1.014,1.78,1.604,3.831,1.604,6.029c0,6.721-5.402,12.169-12.067,12.169c-6.663,0-12.065-5.448-12.065-12.169
			c0-2.086,0.544-4.033,1.463-5.747c2.436,0.548,5.685,1.037,8.876,1.037c0.278,0,0.556-0.004,0.833-0.011
			C40.031,19.52,44.121,18.872,46.778,18.342 M15.266,31.699v14.674h-1.378l12.187,1.055c0,0,11.959-3.802,8.487-6.995
			c-0.873-0.802,0.118-1.235,1.921-1.235c4.697,0,14.909,2.941,12.038,9.973c-1.597,3.913-11.651,7.633-18.056,7.633
			c-0.788,0-1.52-0.056-2.175-0.175c-1.635-0.299-14.034-4.263-15.694-4.822c-1.6-0.54-2.152-4.165-0.71-5.433H6.936V31.699H15.266
			 M24.456,4.197c-1.455,0-2.145,0.652-2.468,1.198c-0.529,0.896-0.429,2.187,0.269,3.454c0.492,0.895,1.305,1.732,2.023,2.471
			c0.288,0.296,0.672,0.692,0.925,1c-1.643,0.397-6.106,0.763-8.831,0.915c-0.305,0.017-0.586,0.173-0.762,0.423
			c-0.176,0.25-0.228,0.567-0.14,0.86c0.09,0.304,0.942,2.971,2.969,2.971c0.177,0,0.514,0.062,0.941,0.14
			c0.905,0.166,2.42,0.443,4.992,0.625c0.128,0.004,0.261,0.008,0.397,0.012c-1.009,1.923-1.521,3.977-1.521,6.105
			c0,7.262,5.861,13.169,13.065,13.169c7.205,0,13.067-5.908,13.067-13.169c0-2.276-0.6-4.532-1.735-6.524
			c-0.035-0.062-0.077-0.119-0.123-0.171c1.903-0.145,3.337-0.283,4.29-0.414c1.107-0.152,2.152-0.296,2.177-1.292
			c0.003-0.125-0.016-0.406-0.216-0.661c0.363-1.725,0.811-5.307-1.5-6.085c-0.082-0.028-0.168-0.045-0.254-0.05
			c-0.173-0.011-17.318-1.147-23.117-3.749C27.09,4.61,25.593,4.197,24.456,4.197L24.456,4.197z M29.415,18.279
			c4.648-0.054,10.457-0.252,14.211-0.396c-2.32,0.359-5.161,0.68-8.232,0.766c-0.268,0.007-0.536,0.011-0.805,0.011
			C32.733,18.661,30.944,18.493,29.415,18.279L29.415,18.279z M15.266,30.699H6.936c-0.552,0-1,0.448-1,1v14.674
			c0,0.552,0.448,1,1,1h3.278c-0.215,0.845-0.189,1.755-0.043,2.48c0.295,1.471,1.083,2.555,2.107,2.901
			c1.48,0.498,14.081,4.538,15.834,4.858c0.699,0.127,1.491,0.192,2.355,0.192c6.141,0,17.059-3.545,18.981-8.255
			c0.895-2.192,0.734-4.294-0.465-6.078c-2.443-3.636-8.78-5.272-12.499-5.272c-1.827,0-2.829,0.386-3.152,1.215
			c-0.134,0.343-0.239,1.028,0.555,1.757c0.356,0.327,0.317,0.505,0.298,0.591c-0.295,1.333-4.459,3.432-8.223,4.654l-9.694-0.839
			V31.699C16.266,31.147,15.819,30.699,15.266,30.699L15.266,30.699z"/>
	</g>
</g>
<g id="hwy">
	<g id="h_1_">
		<path fill="#FFFFFF" d="M30.465,57.304c-0.833,0-1.595-0.063-2.265-0.184c-1.701-0.312-14.338-4.36-15.764-4.841
			c-0.853-0.287-1.517-1.23-1.776-2.523c-0.171-0.853-0.167-1.981,0.254-2.883H6.936c-0.276,0-0.5-0.224-0.5-0.5V31.699
			c0-0.276,0.224-0.5,0.5-0.5h8.331c0.276,0,0.5,0.224,0.5,0.5v14.335l10.251,0.887c3.178-1.023,8.258-3.268,8.653-5.053
			c0.052-0.233,0.062-0.599-0.448-1.067c-0.546-0.501-0.533-0.933-0.427-1.207c0.235-0.603,1.113-0.896,2.686-0.896
			c3.609,0,9.744,1.566,12.085,5.051c1.117,1.664,1.257,3.552,0.417,5.611C47.314,53.451,37.136,57.304,30.465,57.304z
			 M36.314,37.04c-6.929,0-12.565-5.684-12.565-12.669c0-2.088,0.512-4.101,1.523-5.983c0.088-0.165,0.259-0.264,0.44-0.264
			c0.036,0,0.073,0.004,0.11,0.012c1.701,0.383,5.103,1.025,8.77,1.025c0.273,0,0.544-0.004,0.816-0.012
			c4.583-0.128,8.659-0.776,11.271-1.298c0.033-0.007,0.065-0.01,0.098-0.01c0.177,0,0.344,0.095,0.435,0.252
			c1.092,1.917,1.669,4.087,1.669,6.277C48.881,31.356,43.244,37.04,36.314,37.04z M27.203,17.794c-1.05,0-1.992-0.012-2.776-0.037
			c-2.563-0.182-4.061-0.456-4.956-0.619c-0.47-0.086-0.809-0.148-1.032-0.148c-1.665,0-2.411-2.346-2.49-2.613
			c-0.044-0.146-0.018-0.305,0.07-0.431c0.088-0.125,0.229-0.202,0.381-0.211c2.212-0.124,8.221-0.562,9.436-1.088
			c0.094-0.04,0.119-0.07,0.119-0.07c0.003-0.244-0.792-1.063-1.318-1.604c-0.695-0.717-1.484-1.528-1.943-2.364
			c-0.611-1.109-0.715-2.216-0.276-2.958c0.256-0.435,0.818-0.952,2.037-0.952c1.067,0,2.494,0.398,4.244,1.184
			c5.882,2.639,23.116,3.78,23.289,3.791c0.043,0.003,0.086,0.012,0.127,0.025c2.054,0.691,1.42,4.404,1.108,5.781
			c0.217,0.135,0.271,0.319,0.267,0.479c-0.014,0.56-0.021,0.814-7.622,1.338C42.179,17.445,33.003,17.794,27.203,17.794z"/>
		<path d="M24.456,5.197c0.913,0,2.223,0.325,4.039,1.14c6.033,2.707,23.462,3.835,23.462,3.835
			c2.011,0.677,0.671,5.641,0.671,5.641s2.736,0.328-6.792,0.983c-3.875,0.158-12.879,0.497-18.63,0.497
			c-1.044,0-1.981-0.011-2.761-0.037c-3.922-0.278-5.256-0.767-6.004-0.767c-1.34,0-2.011-2.256-2.011-2.256
			s8.044-0.451,9.607-1.128c1.566-0.677-1.787-2.709-2.904-4.739C22.351,6.947,22.334,5.197,24.456,5.197 M46.778,18.342
			c1.014,1.78,1.604,3.831,1.604,6.029c0,6.721-5.402,12.169-12.067,12.169c-6.663,0-12.065-5.448-12.065-12.169
			c0-2.086,0.544-4.033,1.463-5.747c2.436,0.548,5.685,1.037,8.876,1.037c0.278,0,0.556-0.004,0.833-0.011
			C40.031,19.52,44.121,18.872,46.778,18.342 M15.266,31.699v14.674h-1.378l12.187,1.055c0,0,11.959-3.802,8.487-6.995
			c-0.873-0.802,0.118-1.235,1.921-1.235c4.697,0,14.909,2.941,12.038,9.973c-1.597,3.913-11.651,7.633-18.056,7.633
			c-0.788,0-1.52-0.056-2.175-0.175c-1.635-0.299-14.034-4.263-15.694-4.822c-1.6-0.54-2.152-4.165-0.71-5.433H6.936V31.699H15.266
			 M24.456,4.197c-1.455,0-2.145,0.652-2.468,1.198c-0.529,0.896-0.429,2.187,0.269,3.454c0.492,0.895,1.305,1.732,2.023,2.471
			c0.288,0.296,0.672,0.692,0.925,1c-1.643,0.397-6.106,0.763-8.831,0.915c-0.305,0.017-0.586,0.173-0.762,0.423
			c-0.176,0.25-0.228,0.567-0.14,0.86c0.09,0.304,0.942,2.971,2.969,2.971c0.177,0,0.514,0.062,0.941,0.14
			c0.905,0.166,2.42,0.443,4.992,0.625c0.128,0.004,0.261,0.008,0.397,0.012c-1.009,1.923-1.521,3.977-1.521,6.105
			c0,7.262,5.861,13.169,13.065,13.169c7.205,0,13.067-5.908,13.067-13.169c0-2.276-0.6-4.532-1.735-6.524
			c-0.035-0.062-0.077-0.119-0.123-0.171c1.903-0.145,3.337-0.283,4.29-0.414c1.107-0.152,2.152-0.296,2.177-1.292
			c0.003-0.125-0.016-0.406-0.216-0.661c0.363-1.725,0.811-5.307-1.5-6.085c-0.082-0.028-0.168-0.045-0.254-0.05
			c-0.173-0.011-17.318-1.147-23.117-3.749C27.09,4.61,25.593,4.197,24.456,4.197L24.456,4.197z M29.415,18.279
			c4.648-0.054,10.457-0.252,14.211-0.396c-2.32,0.359-5.161,0.68-8.232,0.766c-0.268,0.007-0.536,0.011-0.805,0.011
			C32.733,18.661,30.944,18.493,29.415,18.279L29.415,18.279z M15.266,30.699H6.936c-0.552,0-1,0.448-1,1v14.674
			c0,0.552,0.448,1,1,1h3.278c-0.215,0.845-0.189,1.755-0.043,2.48c0.295,1.471,1.083,2.555,2.107,2.901
			c1.48,0.498,14.081,4.538,15.834,4.858c0.699,0.127,1.491,0.192,2.355,0.192c6.141,0,17.059-3.545,18.981-8.255
			c0.895-2.192,0.734-4.294-0.465-6.078c-2.443-3.636-8.78-5.272-12.499-5.272c-1.827,0-2.829,0.386-3.152,1.215
			c-0.134,0.343-0.239,1.028,0.555,1.757c0.356,0.327,0.317,0.505,0.298,0.591c-0.295,1.333-4.459,3.432-8.223,4.654l-9.694-0.839
			V31.699C16.266,31.147,15.819,30.699,15.266,30.699L15.266,30.699z"/>
	</g>
</g>
<g id="group">
	<path id="g" fill="#FFFFFF" d="M52.627,15.813c0,0,2.736,0.328-6.792,0.983c-4.579,0.187-16.318,0.627-21.391,0.461
		c-3.922-0.278-5.256-0.767-6.004-0.767c-1.34,0-2.011-2.256-2.011-2.256s8.044-0.451,9.607-1.128
		c1.566-0.677-1.787-2.709-2.904-4.739c-1.118-2.03-0.671-4.739,5.362-2.03c6.033,2.707,23.462,3.835,23.462,3.835
		C53.967,10.848,52.627,15.813,52.627,15.813L52.627,15.813z M26.075,47.428c0,0,11.959-3.802,8.487-6.995
		c-3.148-2.89,17.932-0.993,13.959,8.738c-1.793,4.394-14.252,8.545-20.23,7.457c-1.635-0.299-14.034-4.263-15.694-4.822
		c-1.6-0.54-2.152-4.165-0.71-5.433H6.936V31.699h8.331v14.674h-1.379L26.075,47.428L26.075,47.428z M36.314,36.54
		c-6.663,0-12.065-5.448-12.065-12.169c0-2.086,0.544-4.033,1.463-5.747c2.649,0.596,6.258,1.122,9.709,1.026
		c4.61-0.129,8.699-0.777,11.356-1.307c1.014,1.78,1.604,3.831,1.604,6.029C48.382,31.092,42.979,36.54,36.314,36.54L36.314,36.54z"
		/>
</g>
<g id="disabled">
	<path id="d_1_" fill="#FFFFFF" d="M52.627,15.813c0,0,2.736,0.328-6.792,0.983c-4.579,0.187-16.318,0.627-21.391,0.461
		c-3.922-0.278-5.256-0.767-6.004-0.767c-1.34,0-2.011-2.256-2.011-2.256s8.044-0.451,9.607-1.128
		c1.566-0.677-1.787-2.709-2.904-4.739c-1.118-2.03-0.671-4.739,5.362-2.03c6.033,2.707,23.462,3.835,23.462,3.835
		C53.967,10.848,52.627,15.813,52.627,15.813L52.627,15.813z M26.075,47.428c0,0,11.959-3.802,8.487-6.995
		c-3.148-2.89,17.932-0.993,13.959,8.738c-1.793,4.394-14.252,8.545-20.23,7.457c-1.635-0.299-14.034-4.263-15.694-4.822
		c-1.6-0.54-2.152-4.165-0.71-5.433H6.936V31.699h8.331v14.674h-1.379L26.075,47.428L26.075,47.428z M36.314,36.54
		c-6.663,0-12.065-5.448-12.065-12.169c0-2.086,0.544-4.033,1.463-5.747c2.649,0.596,6.258,1.122,9.709,1.026
		c4.61-0.129,8.699-0.777,11.356-1.307c1.014,1.78,1.604,3.831,1.604,6.029C48.382,31.092,42.979,36.54,36.314,36.54L36.314,36.54z"
		/>
</g>
<g id="normal">
	<path id="n" fill="#FFFFFF" d="M52.627,15.813c0,0,2.736,0.328-6.792,0.983c-4.579,0.187-16.318,0.627-21.391,0.461
		c-3.922-0.278-5.256-0.767-6.004-0.767c-1.34,0-2.011-2.256-2.011-2.256s8.044-0.451,9.607-1.128
		c1.566-0.677-1.787-2.709-2.904-4.739c-1.118-2.03-0.671-4.739,5.362-2.03c6.033,2.707,23.462,3.835,23.462,3.835
		C53.967,10.848,52.627,15.813,52.627,15.813L52.627,15.813z M26.075,47.428c0,0,11.959-3.802,8.487-6.995
		c-3.148-2.89,17.932-0.993,13.959,8.738c-1.793,4.394-14.252,8.545-20.23,7.457c-1.635-0.299-14.034-4.263-15.694-4.822
		c-1.6-0.54-2.152-4.165-0.71-5.433H6.936V31.699h8.331v14.674h-1.379L26.075,47.428L26.075,47.428z M36.314,36.54
		c-6.663,0-12.065-5.448-12.065-12.169c0-2.086,0.544-4.033,1.463-5.747c2.649,0.596,6.258,1.122,9.709,1.026
		c4.61-0.129,8.699-0.777,11.356-1.307c1.014,1.78,1.604,3.831,1.604,6.029C48.382,31.092,42.979,36.54,36.314,36.54L36.314,36.54z"
		/>
</g>
</svg>
