<?xml version="1.0" encoding="utf-8"?>
<!-- Generator: Adobe Illustrator 17.1.0, SVG Export Plug-In . SVG Version: 6.00 Build 0)  -->
<!DOCTYPE svg PUBLIC "-//W3C//DTD SVG 1.1//EN" "http://www.w3.org/Graphics/SVG/1.1/DTD/svg11.dtd">
<svg version="1.1" xmlns="http://www.w3.org/2000/svg" xmlns:xlink="http://www.w3.org/1999/xlink" x="0px" y="0px"
	 viewBox="0 0 84 120" enable-background="new 0 0 84 120" xml:space="preserve">
<g id="normal">
	<linearGradient id="SVGID_1_" gradientUnits="userSpaceOnUse" x1="42.0137" y1="104.596" x2="42.0137" y2="9.1667">
		<stop  offset="0" style="stop-color:#1A639B"/>
		<stop  offset="1" style="stop-color:#31C1ED"/>
	</linearGradient>
	<path fill="url(#SVGID_1_)" d="M82.348,48.523c0-21.736-18.058-39.356-40.334-39.356S1.68,26.787,1.68,48.523
		c0,17.287,11.428,31.961,27.311,37.247l13.011,18.826l13.014-18.819C70.909,80.497,82.348,65.818,82.348,48.523z"/>
	<path fill="#E0FFFF" d="M73.575,48.811c0.036,17.088-14.031,30.941-31.42,30.941s-31.514-13.853-31.55-30.941
		S24.637,17.87,42.025,17.87S73.539,31.722,73.575,48.811z"/>
	<path fill="#15233D" d="M71.59,48.811c0.034,16.016-13.147,29-29.439,29s-29.527-12.984-29.561-29
		c-0.034-16.016,13.147-29,29.439-29S71.557,32.794,71.59,48.811z"/>
</g>
<g id="favorites">
	<linearGradient id="SVGID_2_" gradientUnits="userSpaceOnUse" x1="42.0137" y1="104.596" x2="42.0137" y2="9.1667">
		<stop  offset="0" style="stop-color:#D4880E"/>
		<stop  offset="1" style="stop-color:#E1BF00"/>
	</linearGradient>
	<path fill="url(#SVGID_2_)" d="M82.348,48.523c0-21.736-18.058-39.356-40.334-39.356S1.68,26.787,1.68,48.523
		c0,17.287,11.428,31.961,27.311,37.247l13.011,18.826l13.014-18.819C70.909,80.497,82.348,65.818,82.348,48.523z"/>
	<path fill="#FFFAE3" d="M73.575,48.811c0.036,17.088-14.031,30.941-31.42,30.941s-31.514-13.853-31.55-30.941
		S24.637,17.87,42.025,17.87S73.539,31.722,73.575,48.811z"/>
	<path fill="#3A1E14" d="M71.59,48.811c0.034,16.016-13.147,29-29.439,29s-29.527-12.984-29.561-29
		c-0.034-16.016,13.147-29,29.439-29S71.557,32.794,71.59,48.811z"/>
</g>
<g id="disabled">
	<linearGradient id="SVGID_3_" gradientUnits="userSpaceOnUse" x1="42.0137" y1="104.596" x2="42.0137" y2="9.1667">
		<stop  offset="0" style="stop-color:#535353"/>
		<stop  offset="1" style="stop-color:#9B9B9B"/>
	</linearGradient>
	<path fill="url(#SVGID_3_)" d="M82.348,48.523c0-21.736-18.058-39.356-40.334-39.356S1.68,26.787,1.68,48.523
		c0,17.287,11.428,31.961,27.311,37.247l13.011,18.826l13.014-18.819C70.909,80.497,82.348,65.818,82.348,48.523z"/>
	<path fill="#EFEFEF" d="M73.575,48.811c0.036,17.088-14.031,30.941-31.42,30.941s-31.514-13.853-31.55-30.941
		S24.637,17.87,42.025,17.87S73.539,31.722,73.575,48.811z"/>
	<path fill="#2D2D2D" d="M71.59,48.811c0.034,16.018-13.147,29.004-29.439,29.004S12.624,64.829,12.591,48.811
		C12.557,32.792,25.737,19.807,42.03,19.807S71.557,32.792,71.59,48.811z"/>
</g>
</svg>
