<?xml version="1.0" encoding="utf-8"?>
<!-- Generator: Adobe Illustrator 17.0.1, SVG Export Plug-In . SVG Version: 6.00 Build 0)  -->
<!DOCTYPE svg PUBLIC "-//W3C//DTD SVG 1.1//EN" "http://www.w3.org/Graphics/SVG/1.1/DTD/svg11.dtd">
<svg version="1.1" xmlns="http://www.w3.org/2000/svg" xmlns:xlink="http://www.w3.org/1999/xlink" x="0px" y="0px" width="60px"
	 height="60px" viewBox="0 0 60 60" enable-background="new 0 0 60 60" xml:space="preserve">
<g id="hwy_disabled">
	<g id="hd">
		<path fill="#313131" d="M47.848,49.712c-2.244,0-4.479-0.858-7.476-2.87c-1.735-1.167-3.327-1.733-4.867-1.733
			s-3.132,0.566-4.867,1.733c-2.891,1.94-5.43,2.845-7.993,2.845c-2.563,0-5.102-0.904-7.992-2.845
			c-1.804-1.214-3.223-1.755-4.6-1.755s-2.796,0.541-4.601,1.755c-0.083,0.056-0.181,0.085-0.279,0.085
			c-0.056,0-0.111-0.009-0.165-0.028c-0.149-0.052-0.265-0.171-0.312-0.321L3.19,41.8c-0.066-0.212,0.014-0.441,0.198-0.565
			c2.401-1.612,4.518-2.363,6.66-2.363c2.121,0,4.302,0.772,6.669,2.363c2.303,1.547,4.122,2.236,5.899,2.236
			c1.793,0,3.688-0.71,5.959-2.236c2.36-1.586,4.626-2.356,6.93-2.356c2.301,0,4.567,0.771,6.928,2.356
			c2.398,1.611,3.911,2.239,5.396,2.239c1.491,0,3.064-0.648,5.431-2.239c0.083-0.056,0.181-0.085,0.279-0.085
			c0.059,0,0.118,0.011,0.174,0.031c0.151,0.056,0.266,0.181,0.308,0.336c0.285,1.036,0.546,1.614,0.777,2.125
			c0.321,0.709,0.598,1.321,0.743,2.734c0.019,0.184-0.065,0.363-0.219,0.466C52.327,48.854,50.092,49.712,47.848,49.712z
			 M15.976,38.171c-0.17,0-0.329-0.087-0.421-0.229l-9.842-15.32c-0.099-0.154-0.105-0.35-0.018-0.51
			c0.088-0.161,0.256-0.261,0.439-0.261h50.199c0.164,0,0.317,0.08,0.41,0.214c0.094,0.135,0.116,0.306,0.059,0.459l-5.659,15.32
			c-0.073,0.196-0.26,0.327-0.469,0.327H15.976z M26.804,19.001c-0.183,0-0.351-0.1-0.438-0.26s-0.081-0.355,0.017-0.509
			l4.921-7.713c0.092-0.145,0.25-0.231,0.421-0.231h13.164c0.215,0,0.406,0.138,0.474,0.341l2.584,7.713
			c0.051,0.153,0.026,0.32-0.068,0.451c-0.094,0.131-0.245,0.208-0.406,0.208H26.804z"/>
		<path d="M44.889,10.788l2.584,7.714H26.804l4.921-7.714H44.889 M56.332,22.351l-5.659,15.321H15.976L6.134,22.351H56.332
			 M10.049,39.371c2.042,0,4.108,0.745,6.39,2.279c2.234,1.501,4.167,2.322,6.178,2.322c1.902,0,3.874-0.734,6.238-2.322
			c2.278-1.531,4.478-2.272,6.652-2.272c2.224,0,4.421,0.775,6.649,2.272c2.283,1.534,3.965,2.324,5.675,2.324
			c1.678,0,3.382-0.76,5.709-2.324c0.692,2.519,1.267,2.457,1.504,4.777c-2.765,1.857-4.981,2.786-7.197,2.786
			c-2.216,0-4.432-0.929-7.197-2.786c-1.803-1.212-3.474-1.818-5.146-1.818s-3.343,0.606-5.146,1.818
			c-2.74,1.84-5.227,2.76-7.714,2.76c-2.487,0-4.973-0.92-7.713-2.76c-1.823-1.226-3.351-1.84-4.879-1.84s-3.056,0.613-4.88,1.84
			l-1.506-4.777C5.907,40.146,7.966,39.371,10.049,39.371 M44.889,9.788H31.725c-0.341,0-0.659,0.174-0.843,0.462l-4.921,7.714
			c-0.196,0.308-0.209,0.698-0.034,1.019c0.176,0.32,0.512,0.519,0.877,0.519h20.669c0.322,0,0.624-0.155,0.812-0.416
			c0.188-0.261,0.239-0.597,0.137-0.902l-2.584-7.714C45.701,10.063,45.319,9.788,44.889,9.788L44.889,9.788z M56.332,21.351H6.134
			c-0.366,0-0.702,0.2-0.878,0.521c-0.175,0.321-0.161,0.712,0.036,1.02l9.842,15.321c0.184,0.286,0.501,0.46,0.841,0.46H33
			c-1.555,0.367-3.111,1.078-4.703,2.148c-2.186,1.468-3.991,2.152-5.68,2.152c-1.672,0-3.405-0.664-5.62-2.152
			c-2.452-1.648-4.725-2.449-6.947-2.449c0,0,0,0,0,0c-2.246,0-4.451,0.778-6.939,2.449c-0.368,0.247-0.53,0.708-0.396,1.131
			l1.506,4.777c0.095,0.301,0.326,0.539,0.623,0.643c0.108,0.038,0.219,0.056,0.33,0.056c0.196,0,0.391-0.058,0.558-0.17
			c1.717-1.155,3.05-1.67,4.322-1.67c1.272,0,2.604,0.515,4.32,1.669c2.976,1.999,5.604,2.931,8.271,2.931
			c2.666,0,5.295-0.931,8.272-2.93c1.65-1.109,3.151-1.649,4.588-1.649c1.437,0,2.938,0.539,4.588,1.648
			c3.085,2.072,5.404,2.956,7.754,2.956c2.351,0,4.67-0.884,7.754-2.956c0.307-0.206,0.475-0.564,0.437-0.932
			c-0.153-1.494-0.445-2.141-0.784-2.89c-0.223-0.494-0.477-1.053-0.751-2.051c-0.085-0.31-0.315-0.561-0.616-0.673
			c-0.113-0.042-0.231-0.062-0.348-0.062c-0.196,0-0.391,0.058-0.558,0.17c-2.276,1.53-3.769,2.154-5.151,2.154
			c-1.375,0-2.81-0.604-5.117-2.154c-1.592-1.07-3.147-1.782-4.702-2.148h12.662c0.419,0,0.793-0.261,0.938-0.654l5.659-15.321
			c0.113-0.307,0.069-0.65-0.118-0.918C56.966,21.511,56.659,21.351,56.332,21.351L56.332,21.351z"/>
	</g>
</g>
<g id="hwy">
	<g id="h">
		<path fill="#FFFFFF" d="M47.848,49.712c-2.244,0-4.479-0.858-7.476-2.87c-1.735-1.167-3.327-1.733-4.867-1.733
			s-3.132,0.566-4.867,1.733c-2.891,1.94-5.43,2.845-7.993,2.845c-2.563,0-5.102-0.904-7.992-2.845
			c-1.804-1.214-3.223-1.755-4.6-1.755s-2.796,0.541-4.601,1.755c-0.083,0.056-0.181,0.085-0.279,0.085
			c-0.056,0-0.111-0.009-0.165-0.028c-0.149-0.052-0.265-0.171-0.312-0.321L3.19,41.8c-0.066-0.212,0.014-0.441,0.198-0.565
			c2.401-1.612,4.518-2.363,6.66-2.363c2.121,0,4.302,0.772,6.669,2.363c2.303,1.547,4.122,2.236,5.899,2.236
			c1.793,0,3.688-0.71,5.959-2.236c2.36-1.586,4.626-2.356,6.93-2.356c2.301,0,4.567,0.771,6.928,2.356
			c2.398,1.611,3.911,2.239,5.396,2.239c1.491,0,3.064-0.648,5.431-2.239c0.083-0.056,0.181-0.085,0.279-0.085
			c0.059,0,0.118,0.011,0.174,0.031c0.151,0.056,0.266,0.181,0.308,0.336c0.285,1.036,0.546,1.614,0.777,2.125
			c0.321,0.709,0.598,1.321,0.743,2.734c0.019,0.184-0.065,0.363-0.219,0.466C52.327,48.854,50.092,49.712,47.848,49.712z
			 M15.976,38.171c-0.17,0-0.329-0.087-0.421-0.229l-9.842-15.32c-0.099-0.154-0.105-0.35-0.018-0.51
			c0.088-0.161,0.256-0.261,0.439-0.261h50.199c0.164,0,0.317,0.08,0.41,0.214c0.094,0.135,0.116,0.306,0.059,0.459l-5.659,15.32
			c-0.073,0.196-0.26,0.327-0.469,0.327H15.976z M26.804,19.001c-0.183,0-0.351-0.1-0.438-0.26s-0.081-0.355,0.017-0.509
			l4.921-7.713c0.092-0.145,0.25-0.231,0.421-0.231h13.164c0.215,0,0.406,0.138,0.474,0.341l2.584,7.713
			c0.051,0.153,0.026,0.32-0.068,0.451c-0.094,0.131-0.245,0.208-0.406,0.208H26.804z"/>
		<path d="M44.889,10.788l2.584,7.714H26.804l4.921-7.714H44.889 M56.332,22.351l-5.659,15.321H15.976L6.134,22.351H56.332
			 M10.049,39.371c2.042,0,4.108,0.745,6.39,2.279c2.234,1.501,4.167,2.322,6.178,2.322c1.902,0,3.874-0.734,6.238-2.322
			c2.278-1.531,4.478-2.272,6.652-2.272c2.224,0,4.421,0.775,6.649,2.272c2.283,1.534,3.965,2.324,5.675,2.324
			c1.678,0,3.382-0.76,5.709-2.324c0.692,2.519,1.267,2.457,1.504,4.777c-2.765,1.857-4.981,2.786-7.197,2.786
			c-2.216,0-4.432-0.929-7.197-2.786c-1.803-1.212-3.474-1.818-5.146-1.818s-3.343,0.606-5.146,1.818
			c-2.74,1.84-5.227,2.76-7.714,2.76c-2.487,0-4.973-0.92-7.713-2.76c-1.823-1.226-3.351-1.84-4.879-1.84s-3.056,0.613-4.88,1.84
			l-1.506-4.777C5.907,40.146,7.966,39.371,10.049,39.371 M44.889,9.788H31.725c-0.341,0-0.659,0.174-0.843,0.462l-4.921,7.714
			c-0.196,0.308-0.209,0.698-0.034,1.019c0.176,0.32,0.512,0.519,0.877,0.519h20.669c0.322,0,0.624-0.155,0.812-0.416
			c0.188-0.261,0.239-0.597,0.137-0.902l-2.584-7.714C45.701,10.063,45.319,9.788,44.889,9.788L44.889,9.788z M56.332,21.351H6.134
			c-0.366,0-0.702,0.2-0.878,0.521c-0.175,0.321-0.161,0.712,0.036,1.02l9.842,15.321c0.184,0.286,0.501,0.46,0.841,0.46H33
			c-1.555,0.367-3.111,1.078-4.703,2.148c-2.186,1.468-3.991,2.152-5.68,2.152c-1.672,0-3.405-0.664-5.62-2.152
			c-2.452-1.648-4.725-2.449-6.947-2.449c0,0,0,0,0,0c-2.246,0-4.451,0.778-6.939,2.449c-0.368,0.247-0.53,0.708-0.396,1.131
			l1.506,4.777c0.095,0.301,0.326,0.539,0.623,0.643c0.108,0.038,0.219,0.056,0.33,0.056c0.196,0,0.391-0.058,0.558-0.17
			c1.717-1.155,3.05-1.67,4.322-1.67c1.272,0,2.604,0.515,4.32,1.669c2.976,1.999,5.604,2.931,8.271,2.931
			c2.666,0,5.295-0.931,8.272-2.93c1.65-1.109,3.151-1.649,4.588-1.649c1.437,0,2.938,0.539,4.588,1.648
			c3.085,2.072,5.404,2.956,7.754,2.956c2.351,0,4.67-0.884,7.754-2.956c0.307-0.206,0.475-0.564,0.437-0.932
			c-0.153-1.494-0.445-2.141-0.784-2.89c-0.223-0.494-0.477-1.053-0.751-2.051c-0.085-0.31-0.315-0.561-0.616-0.673
			c-0.113-0.042-0.231-0.062-0.348-0.062c-0.196,0-0.391,0.058-0.558,0.17c-2.276,1.53-3.769,2.154-5.151,2.154
			c-1.375,0-2.81-0.604-5.117-2.154c-1.592-1.07-3.147-1.782-4.702-2.148h12.662c0.419,0,0.793-0.261,0.938-0.654l5.659-15.321
			c0.113-0.307,0.069-0.65-0.118-0.918C56.966,21.511,56.659,21.351,56.332,21.351L56.332,21.351z"/>
	</g>
</g>
<g id="group">
	<path id="g" fill="#FFFFFF" d="M31.725,10.788h13.164l2.584,7.714H26.804L31.725,10.788L31.725,10.788z M50.673,37.671H15.976
		L6.134,22.351h50.199L50.673,37.671L50.673,37.671z M16.439,41.649c4.346,2.92,7.552,3.267,12.416,0c4.61-3.098,8.895-2.959,13.3,0
		c4.523,3.039,6.685,3.159,11.384,0c0.692,2.519,1.267,2.457,1.504,4.777c-5.53,3.714-8.863,3.714-14.393,0
		c-3.606-2.424-6.685-2.424-10.292,0c-5.481,3.68-9.948,3.68-15.427,0c-3.646-2.453-6.11-2.453-9.759,0l-1.506-4.777
		C8.103,38.671,11.829,38.552,16.439,41.649L16.439,41.649z"/>
</g>
<g id="disabled">
	<path id="d" fill="#FFFFFF" d="M31.725,10.788h13.164l2.584,7.714H26.804L31.725,10.788L31.725,10.788z M50.673,37.671H15.976
		L6.134,22.351h50.199L50.673,37.671L50.673,37.671z M16.439,41.649c4.346,2.92,7.552,3.267,12.416,0c4.61-3.098,8.895-2.959,13.3,0
		c4.523,3.039,6.685,3.159,11.384,0c0.692,2.519,1.267,2.457,1.504,4.777c-5.53,3.714-8.863,3.714-14.393,0
		c-3.606-2.424-6.685-2.424-10.292,0c-5.481,3.68-9.948,3.68-15.427,0c-3.646-2.453-6.11-2.453-9.759,0l-1.506-4.777
		C8.103,38.671,11.829,38.552,16.439,41.649L16.439,41.649z"/>
</g>
<g id="normal">
	<path id="n" fill="#FFFFFF" d="M31.725,10.788h13.164l2.584,7.714H26.804L31.725,10.788L31.725,10.788z M50.673,37.671H15.976
		L6.134,22.351h50.199L50.673,37.671L50.673,37.671z M16.439,41.649c4.346,2.92,7.552,3.267,12.416,0c4.61-3.098,8.895-2.959,13.3,0
		c4.523,3.039,6.685,3.159,11.384,0c0.692,2.519,1.267,2.457,1.504,4.777c-5.53,3.714-8.863,3.714-14.393,0
		c-3.606-2.424-6.685-2.424-10.292,0c-5.481,3.68-9.948,3.68-15.427,0c-3.646-2.453-6.11-2.453-9.759,0l-1.506-4.777
		C8.103,38.671,11.829,38.552,16.439,41.649L16.439,41.649z"/>
</g>
</svg>
