<?xml version="1.0" encoding="utf-8"?>
<!-- Generator: Adobe Illustrator 17.0.1, SVG Export Plug-In . SVG Version: 6.00 Build 0)  -->
<!DOCTYPE svg PUBLIC "-//W3C//DTD SVG 1.1//EN" "http://www.w3.org/Graphics/SVG/1.1/DTD/svg11.dtd">
<svg version="1.1" xmlns="http://www.w3.org/2000/svg" xmlns:xlink="http://www.w3.org/1999/xlink" x="0px" y="0px" width="60px"
	 height="60px" viewBox="0 0 60 60" enable-background="new 0 0 60 60" xml:space="preserve">
<g id="hwy_disabled">
	<path id="hd" fill="#313131" stroke="#000000" stroke-linecap="round" stroke-linejoin="round" stroke-miterlimit="10" d="
		M38.448,42.851h1.224h3.107l2.743-3.372c0.046-17.297-2.297-24.446-2.297-24.446s-1.28-3.458-4.925-3.458H21.637
		c-1.388-0.209-4.228,1.192-4.925,3.458c0,0-2.461,13.258-1.772,24.446l2.568,3.372h3.677l-9.171,9.048h-1.722
		c0,0-0.04-10.971-0.04-27.858c0-13.686,5.96-19.139,19.531-19.139c13.571,0,20.765,5.453,20.765,19.139c0,13.598,0,27.858,0,27.858
		h-2.976L38.448,42.851L38.448,42.851z M35.862,38.823c-1.879,0-3.408-1.545-3.408-3.44c0-1.895,1.529-3.438,3.408-3.438
		c1.879,0,3.408,1.543,3.408,3.438C39.271,37.279,37.742,38.823,35.862,38.823L35.862,38.823z M27.247,35.383
		c0,1.895-1.531,3.44-3.41,3.44c-1.879,0-3.408-1.545-3.408-3.44c0-1.895,1.529-3.438,3.408-3.438
		C25.716,31.945,27.247,33.488,27.247,35.383L27.247,35.383z M20.403,17.77h19.097v10.78H20.403V17.77L20.403,17.77z M34.459,42.851
		l9.123,9.048H16.013l9.169-9.048H34.459L34.459,42.851z"/>
</g>
<g id="hwy">
	<path id="h_1_" fill="#FFFFFF" stroke="#000000" stroke-linecap="round" stroke-linejoin="round" stroke-miterlimit="10" d="
		M38.448,42.851h1.224h3.107l2.743-3.372c0.046-17.297-2.297-24.446-2.297-24.446s-1.28-3.458-4.925-3.458H21.637
		c-1.388-0.209-4.228,1.192-4.925,3.458c0,0-2.461,13.258-1.772,24.446l2.568,3.372h3.677l-9.171,9.048h-1.722
		c0,0-0.04-10.971-0.04-27.858c0-13.686,5.96-19.139,19.531-19.139c13.571,0,20.765,5.453,20.765,19.139c0,13.598,0,27.858,0,27.858
		h-2.976L38.448,42.851L38.448,42.851z M35.862,38.823c-1.879,0-3.408-1.545-3.408-3.44c0-1.895,1.529-3.438,3.408-3.438
		c1.879,0,3.408,1.543,3.408,3.438C39.271,37.279,37.742,38.823,35.862,38.823L35.862,38.823z M27.247,35.383
		c0,1.895-1.531,3.44-3.41,3.44c-1.879,0-3.408-1.545-3.408-3.44c0-1.895,1.529-3.438,3.408-3.438
		C25.716,31.945,27.247,33.488,27.247,35.383L27.247,35.383z M20.403,17.77h19.097v10.78H20.403V17.77L20.403,17.77z M34.459,42.851
		l9.123,9.048H16.013l9.169-9.048H34.459L34.459,42.851z"/>
</g>
<g id="group">
	<path id="g" fill="#FFFFFF" d="M38.448,42.851h1.224h3.107l2.743-3.372c0.046-17.297-2.297-24.446-2.297-24.446
		s-1.28-3.458-4.925-3.458H21.637c-1.388-0.209-4.228,1.192-4.925,3.458c0,0-2.461,13.258-1.772,24.446l2.568,3.372h3.677
		l-9.171,9.048h-1.722c0,0-0.04-10.971-0.04-27.858c0-13.686,5.96-19.139,19.531-19.139c13.571,0,20.765,5.453,20.765,19.139
		c0,13.598,0,27.858,0,27.858h-2.976L38.448,42.851L38.448,42.851z M35.862,38.823c-1.879,0-3.408-1.545-3.408-3.44
		c0-1.895,1.529-3.438,3.408-3.438c1.879,0,3.408,1.543,3.408,3.438C39.271,37.279,37.742,38.823,35.862,38.823L35.862,38.823z
		 M27.247,35.383c0,1.895-1.531,3.44-3.41,3.44c-1.879,0-3.408-1.545-3.408-3.44c0-1.895,1.529-3.438,3.408-3.438
		C25.716,31.945,27.247,33.488,27.247,35.383L27.247,35.383z M20.403,17.77h19.097v10.78H20.403V17.77L20.403,17.77z M34.459,42.851
		l9.123,9.048H16.013l9.169-9.048H34.459L34.459,42.851z"/>
</g>
<g id="disabled">
	<path id="d_1_" fill="#FFFFFF" d="M38.448,42.851h1.224h3.107l2.743-3.372c0.046-17.297-2.297-24.446-2.297-24.446
		s-1.28-3.458-4.925-3.458H21.637c-1.388-0.209-4.228,1.192-4.925,3.458c0,0-2.461,13.258-1.772,24.446l2.568,3.372h3.677
		l-9.171,9.048h-1.722c0,0-0.04-10.971-0.04-27.858c0-13.686,5.96-19.139,19.531-19.139c13.571,0,20.765,5.453,20.765,19.139
		c0,13.598,0,27.858,0,27.858h-2.976L38.448,42.851L38.448,42.851z M35.862,38.823c-1.879,0-3.408-1.545-3.408-3.44
		c0-1.895,1.529-3.438,3.408-3.438c1.879,0,3.408,1.543,3.408,3.438C39.271,37.279,37.742,38.823,35.862,38.823L35.862,38.823z
		 M27.247,35.383c0,1.895-1.531,3.44-3.41,3.44c-1.879,0-3.408-1.545-3.408-3.44c0-1.895,1.529-3.438,3.408-3.438
		C25.716,31.945,27.247,33.488,27.247,35.383L27.247,35.383z M20.403,17.77h19.097v10.78H20.403V17.77L20.403,17.77z M34.459,42.851
		l9.123,9.048H16.013l9.169-9.048H34.459L34.459,42.851z"/>
</g>
<g id="normal">
	<path id="n" fill="#FFFFFF" d="M38.448,42.851h1.224h3.107l2.743-3.372c0.046-17.297-2.297-24.446-2.297-24.446
		s-1.28-3.458-4.925-3.458H21.637c-1.388-0.209-4.228,1.192-4.925,3.458c0,0-2.461,13.258-1.772,24.446l2.568,3.372h3.677
		l-9.171,9.048h-1.722c0,0-0.04-10.971-0.04-27.858c0-13.686,5.96-19.139,19.531-19.139c13.571,0,20.765,5.453,20.765,19.139
		c0,13.598,0,27.858,0,27.858h-2.976L38.448,42.851L38.448,42.851z M35.862,38.823c-1.879,0-3.408-1.545-3.408-3.44
		c0-1.895,1.529-3.438,3.408-3.438c1.879,0,3.408,1.543,3.408,3.438C39.271,37.279,37.742,38.823,35.862,38.823L35.862,38.823z
		 M27.247,35.383c0,1.895-1.531,3.44-3.41,3.44c-1.879,0-3.408-1.545-3.408-3.44c0-1.895,1.529-3.438,3.408-3.438
		C25.716,31.945,27.247,33.488,27.247,35.383L27.247,35.383z M20.403,17.77h19.097v10.78H20.403V17.77L20.403,17.77z M34.459,42.851
		l9.123,9.048H16.013l9.169-9.048H34.459L34.459,42.851z"/>
</g>
</svg>
