<?xml version="1.0" encoding="utf-8"?>
<!-- Generator: Adobe Illustrator 17.0.1, SVG Export Plug-In . SVG Version: 6.00 Build 0)  -->
<!DOCTYPE svg PUBLIC "-//W3C//DTD SVG 1.1//EN" "http://www.w3.org/Graphics/SVG/1.1/DTD/svg11.dtd">
<svg version="1.1" xmlns="http://www.w3.org/2000/svg" xmlns:xlink="http://www.w3.org/1999/xlink" x="0px" y="0px" width="60px"
	 height="60px" viewBox="0 0 60 60" enable-background="new 0 0 60 60" xml:space="preserve">
<g id="hwy_disabled">
	<g id="hd">
		<path fill="#313131" d="M25.567,57.992c-1.319,0-2.469-0.229-3.417-0.683c-3.504-1.673-3.754-4.184-4.02-6.842
			c-0.132-1.323-0.268-2.69-0.823-4.041c-0.801-1.952-1.585-2.058-2.671-2.202c-0.996-0.133-2.236-0.299-3.481-1.967
			c-0.866-1.159-1.082-2.213-0.641-3.13c0.951-1.978,4.756-2.539,6.574-2.695l-7.61-10.563l-6.186-2.271
			c-0.034-0.013-0.066-0.029-0.097-0.049c-0.166-0.105-0.379-0.312-0.46-0.694c-0.299-1.41,1.647-4.452,2.041-5.047
			c0.305-0.371,0.693-0.543,1.155-0.543c0.87,0,1.855,0.607,2.418,0.966c0.823,0.24,5.453,1.697,5.294,4.088
			c-0.074,1.128,4.105,5.715,8.404,9.742c0.331-1.55,1.29-4.516,3.858-5.225c0.2-0.055,0.402-0.083,0.6-0.083
			c0.584,0,1.129,0.243,1.577,0.705c0.755,0.778,1.18,2.129,1.136,3.613c-0.07,2.385,0.561,3.272,1.704,4.885
			c0.202,0.284,0.417,0.588,0.645,0.923c0.56,0.82,1.739,1.028,3.104,1.269c1.929,0.34,4.114,0.725,5.241,3.025
			c1.75,3.575-0.163,10.135-2.922,12.609C35.02,55.548,29.954,57.992,25.567,57.992z M25.113,40.432c-0.639,0-1.185,0.146-1.5,0.4
			c-1,0.808-0.692,3.496,0.271,4.709c1.168,1.473,3.556,2.574,4.909,2.574h0c0.33,0,0.581-0.063,0.727-0.18
			c0.81-0.656,0.696-3.92-0.836-5.852C27.718,40.866,26.206,40.432,25.113,40.432z M40.199,35.045c-1.118,0-2.193-0.365-2.949-1.001
			c-0.817-0.649-1.272-1.611-1.272-2.7c0-1.567,1.135-2.859,2.233-4.109l0.297-0.339c0.943-1.12,2.277-1.691,3.958-1.691
			c0.602,0,1.15,0.07,1.583,0.135l-0.463-14.701c-0.005-0.151,0.06-0.298,0.175-0.396c0.091-0.077,0.207-0.119,0.324-0.119
			c0.032,0,0.063,0.003,0.095,0.009l3.194,0.617c0.611-0.226,1.195-0.34,1.74-0.34c2.535,0,3.729,2.472,4.056,3.953l3.903,2.58
			c0.18,0.119,0.263,0.34,0.207,0.548c-0.365,1.346-1.1,2.027-2.187,2.027c-1.046,0-2.242-0.666-3.399-1.31
			c-0.988-0.55-2.01-1.119-2.704-1.119c-0.245,0-0.42,0.069-0.566,0.226c-0.32,0.341-0.667,1.272-0.506,3.777l0.001,7.42
			c0,1.706-0.924,3.362-2.602,4.663C43.85,34.344,41.934,35.045,40.199,35.045z M33.588,20.773c-0.858,0-1.687-0.281-2.272-0.772
			c-0.635-0.506-0.991-1.256-0.991-2.104c0-1.215,0.862-2.195,1.697-3.143l0.215-0.245c0.725-0.861,1.748-1.301,3.037-1.301
			c0.388,0,0.745,0.038,1.043,0.08L35.977,2.523c-0.005-0.151,0.06-0.298,0.175-0.396c0.091-0.077,0.207-0.119,0.324-0.119
			c0.032,0,0.063,0.003,0.095,0.009l2.337,0.451c0.456-0.165,0.894-0.248,1.303-0.248c1.935,0,2.858,1.843,3.125,2.984l2.856,1.89
			c0.18,0.119,0.263,0.34,0.207,0.548c-0.359,1.322-1.149,1.601-1.749,1.601c-0.81,0-1.714-0.503-2.587-0.989
			c-0.72-0.401-1.464-0.815-1.945-0.815c-0.183,0-0.268,0.064-0.327,0.127c-0.18,0.192-0.464,0.8-0.341,2.71l0.001,5.519
			c0,1.307-0.704,2.572-1.982,3.564C36.357,20.242,34.904,20.773,33.588,20.773z"/>
		<path d="M36.476,2.508l2.476,0.477c0.472-0.186,0.89-0.265,1.259-0.266c2.187,0,2.678,2.789,2.678,2.789l3.028,2.003
			c-0.247,0.911-0.702,1.231-1.266,1.231c-1.338,0-3.288-1.804-4.533-1.804c-0.819,0-1.333,0.78-1.166,3.369v5.487
			c0,1.23-0.732,2.349-1.789,3.168c-1.03,0.82-2.385,1.312-3.575,1.312c-0.759,0-1.463-0.246-1.951-0.655
			c-0.515-0.411-0.812-1.011-0.812-1.722c0-1.119,0.922-2.065,1.789-3.059c0.769-0.913,1.785-1.129,2.66-1.129
			c0.783,0,1.453,0.173,1.727,0.173c0.208,0,0.189-0.1-0.179-0.45L36.476,2.508 M44.087,10.622l3.333,0.644
			c0.635-0.25,1.198-0.357,1.696-0.357c2.947,0,3.606,3.755,3.606,3.755l4.077,2.695c-0.333,1.227-0.945,1.658-1.704,1.658
			c-1.8,0-4.427-2.428-6.104-2.429c-1.103,0-1.795,1.05-1.571,4.535v7.387c0,1.656-0.984,3.165-2.408,4.268
			c-1.386,1.103-3.21,1.766-4.813,1.766c-1.022,0-1.97-0.331-2.627-0.884c-0.693-0.551-1.094-1.361-1.094-2.317
			c0-1.509,1.242-2.78,2.408-4.121c1.035-1.229,2.404-1.519,3.581-1.519c1.055,0,1.955,0.233,2.325,0.233
			c0.281,0,0.256-0.135-0.242-0.608L44.087,10.622 M5.931,17.765c0.748,0,1.7,0.601,2.211,0.926c0,0,5.144,1.454,5.003,3.594
			c-0.14,2.137,9.242,10.773,9.242,10.773s0.498-4.87,3.651-5.741c0.16-0.044,0.316-0.065,0.467-0.066
			c1.359,0,2.275,1.733,2.214,3.804c-0.087,2.987,0.882,3.823,2.436,6.104c1.556,2.281,6.509,0.558,8.309,4.232
			c1.686,3.445-0.263,9.736-2.807,12.017c-1.979,1.773-6.99,4.082-11.089,4.082c-1.173,0-2.271-0.189-3.202-0.634
			c-4.948-2.362-2.898-6.488-4.596-10.622c-1.696-4.136-3.799-1.041-6.214-4.278c-3.553-4.755,6.468-5.084,6.468-5.084l-8.23-11.423
			l-6.329-2.324c-1.128-0.721,1.728-5.044,1.728-5.044C5.384,17.854,5.643,17.765,5.931,17.765 M28.793,48.615
			c0.432,0,0.794-0.091,1.042-0.291c1.151-0.931,0.812-4.571-0.759-6.551c-1.007-1.27-2.627-1.841-3.963-1.841
			c-0.745,0-1.401,0.177-1.814,0.51c-1.289,1.041-0.863,4.079,0.193,5.409C24.725,47.405,27.22,48.615,28.793,48.615 M36.476,1.508
			c-0.236,0-0.466,0.083-0.649,0.239c-0.231,0.197-0.36,0.489-0.351,0.792l0.321,10.189c-0.166-0.013-0.342-0.02-0.525-0.02
			c-1.443,0-2.595,0.5-3.425,1.485l-0.201,0.228c-0.854,0.97-1.823,2.07-1.823,3.474c0,1.003,0.422,1.893,1.188,2.504
			c0.656,0.549,1.601,0.873,2.575,0.873c1.426,0,2.995-0.572,4.198-1.529c1.393-1.081,2.166-2.487,2.166-3.951v-5.487
			c0-0.021-0.001-0.043-0.002-0.064c-0.107-1.668,0.108-2.178,0.183-2.302c0.384,0.024,1.105,0.425,1.687,0.749
			c0.684,0.381,1.385,0.771,2.082,0.95c-0.169,0.032-0.329,0.107-0.463,0.222c-0.231,0.197-0.36,0.489-0.351,0.793l0.445,14.113
			c-0.323-0.036-0.682-0.063-1.066-0.063c-1.836,0-3.298,0.631-4.346,1.875l-0.286,0.327c-1.158,1.318-2.356,2.682-2.356,4.438
			c0,1.244,0.523,2.345,1.472,3.099c0.823,0.693,2.016,1.101,3.25,1.101c1.844,0,3.877-0.742,5.436-1.984
			c1.792-1.389,2.785-3.186,2.785-5.05v-7.387c0-0.021-0.001-0.043-0.002-0.064c-0.168-2.611,0.242-3.265,0.372-3.404
			c0.031-0.033,0.063-0.068,0.201-0.068c0.564,0,1.572,0.561,2.461,1.056c1.213,0.675,2.467,1.373,3.643,1.373
			c0.921,0,2.132-0.416,2.669-2.396c0.113-0.416-0.054-0.858-0.414-1.096l-3.739-2.472c-0.422-1.641-1.758-4.144-4.495-4.144
			c-0.564,0-1.162,0.108-1.78,0.322l-2.554-0.493c0.648-0.036,1.665-0.365,2.1-1.965c0.113-0.416-0.054-0.858-0.413-1.096
			l-2.696-1.783c-0.362-1.294-1.427-3.174-3.561-3.174c-0.427,0-0.877,0.078-1.341,0.232l-2.205-0.425
			C36.603,1.514,36.539,1.508,36.476,1.508L36.476,1.508z M5.931,16.765c-0.615,0-1.136,0.234-1.506,0.678
			c-0.024,0.029-0.046,0.058-0.067,0.089c-0.743,1.124-2.436,3.904-2.113,5.426c0.117,0.552,0.435,0.855,0.681,1.012
			c0.061,0.039,0.126,0.071,0.194,0.096l6.042,2.219l7.015,9.737c-2.09,0.261-5.19,0.969-6.113,2.889
			c-0.363,0.755-0.538,2.001,0.691,3.646c1.37,1.837,2.784,2.025,3.815,2.163c1.021,0.136,1.584,0.211,2.274,1.896
			c0.527,1.284,0.66,2.614,0.788,3.901c0.267,2.679,0.543,5.45,4.302,7.244c1.016,0.485,2.238,0.731,3.633,0.731
			c4.512,0,9.726-2.519,11.756-4.337c2.911-2.61,4.924-9.348,3.038-13.202c-1.239-2.529-3.659-2.955-5.604-3.298
			c-1.254-0.221-2.337-0.412-2.777-1.058c-0.23-0.337-0.447-0.643-0.65-0.93c-1.151-1.623-1.677-2.364-1.612-4.581
			c0.048-1.616-0.43-3.103-1.277-3.976c-0.544-0.56-1.213-0.857-1.936-0.857c-0.242,0-0.489,0.034-0.733,0.102
			c-2.388,0.659-3.499,3.043-3.998,4.759c-3.817-3.642-7.536-7.741-7.631-8.789c0.178-2.664-4.338-4.186-5.585-4.554
			C7.941,17.381,6.91,16.765,5.931,16.765L5.931,16.765z M28.793,47.615c-1.214,0-3.452-1.042-4.517-2.385
			c-0.854-1.075-1.058-3.436-0.348-4.01c0.172-0.139,0.575-0.288,1.185-0.288c0.932,0,2.323,0.383,3.18,1.462
			c1.431,1.803,1.425,4.738,0.913,5.152c0,0,0,0,0,0C29.205,47.547,29.104,47.615,28.793,47.615L28.793,47.615z"/>
	</g>
</g>
<g id="hwy">
	<g id="h">
		<path fill="#FFFFFF" d="M25.567,57.992c-1.319,0-2.469-0.229-3.417-0.683c-3.504-1.673-3.754-4.184-4.02-6.842
			c-0.132-1.323-0.268-2.69-0.823-4.041c-0.801-1.952-1.585-2.058-2.671-2.202c-0.996-0.133-2.236-0.299-3.481-1.967
			c-0.866-1.159-1.082-2.213-0.641-3.13c0.951-1.978,4.756-2.539,6.574-2.695l-7.61-10.563l-6.186-2.271
			c-0.034-0.013-0.066-0.029-0.097-0.049c-0.166-0.105-0.379-0.312-0.46-0.694c-0.299-1.41,1.647-4.452,2.041-5.047
			c0.305-0.371,0.693-0.543,1.155-0.543c0.87,0,1.855,0.607,2.418,0.966c0.823,0.24,5.453,1.697,5.294,4.088
			c-0.074,1.128,4.105,5.715,8.404,9.742c0.331-1.55,1.29-4.516,3.858-5.225c0.2-0.055,0.402-0.083,0.6-0.083
			c0.584,0,1.129,0.243,1.577,0.705c0.755,0.778,1.18,2.129,1.136,3.613c-0.07,2.385,0.561,3.272,1.704,4.885
			c0.202,0.284,0.417,0.588,0.645,0.923c0.56,0.82,1.739,1.028,3.104,1.269c1.929,0.34,4.114,0.725,5.241,3.025
			c1.75,3.575-0.163,10.135-2.922,12.609C35.02,55.548,29.954,57.992,25.567,57.992z M25.113,40.432c-0.639,0-1.185,0.146-1.5,0.4
			c-1,0.808-0.692,3.496,0.271,4.709c1.168,1.473,3.556,2.574,4.909,2.574h0c0.33,0,0.581-0.063,0.727-0.18
			c0.81-0.656,0.696-3.92-0.836-5.852C27.718,40.866,26.206,40.432,25.113,40.432z M40.199,35.045c-1.118,0-2.193-0.365-2.949-1.001
			c-0.817-0.649-1.272-1.611-1.272-2.7c0-1.567,1.135-2.859,2.233-4.109l0.297-0.339c0.943-1.12,2.277-1.691,3.958-1.691
			c0.602,0,1.15,0.07,1.583,0.135l-0.463-14.701c-0.005-0.151,0.06-0.298,0.175-0.396c0.091-0.077,0.207-0.119,0.324-0.119
			c0.032,0,0.063,0.003,0.095,0.009l3.194,0.617c0.611-0.226,1.195-0.34,1.74-0.34c2.535,0,3.729,2.472,4.056,3.953l3.903,2.58
			c0.18,0.119,0.263,0.34,0.207,0.548c-0.365,1.346-1.1,2.027-2.187,2.027c-1.046,0-2.242-0.666-3.399-1.31
			c-0.988-0.55-2.01-1.119-2.704-1.119c-0.245,0-0.42,0.069-0.566,0.226c-0.32,0.341-0.667,1.272-0.506,3.777l0.001,7.42
			c0,1.706-0.924,3.362-2.602,4.663C43.85,34.344,41.934,35.045,40.199,35.045z M33.588,20.773c-0.858,0-1.687-0.281-2.272-0.772
			c-0.635-0.506-0.991-1.256-0.991-2.104c0-1.215,0.862-2.195,1.697-3.143l0.215-0.245c0.725-0.861,1.748-1.301,3.037-1.301
			c0.388,0,0.745,0.038,1.043,0.08L35.977,2.523c-0.005-0.151,0.06-0.298,0.175-0.396c0.091-0.077,0.207-0.119,0.324-0.119
			c0.032,0,0.063,0.003,0.095,0.009l2.337,0.451c0.456-0.165,0.894-0.248,1.303-0.248c1.935,0,2.858,1.843,3.125,2.984l2.856,1.89
			c0.18,0.119,0.263,0.34,0.207,0.548c-0.359,1.322-1.149,1.601-1.749,1.601c-0.81,0-1.714-0.503-2.587-0.989
			c-0.72-0.401-1.464-0.815-1.945-0.815c-0.183,0-0.268,0.064-0.327,0.127c-0.18,0.192-0.464,0.8-0.341,2.71l0.001,5.519
			c0,1.307-0.704,2.572-1.982,3.564C36.357,20.242,34.904,20.773,33.588,20.773z"/>
		<path d="M36.476,2.508l2.476,0.477c0.472-0.186,0.89-0.265,1.259-0.266c2.187,0,2.678,2.789,2.678,2.789l3.028,2.003
			c-0.247,0.911-0.702,1.231-1.266,1.231c-1.338,0-3.288-1.804-4.533-1.804c-0.819,0-1.333,0.78-1.166,3.369v5.487
			c0,1.23-0.732,2.349-1.789,3.168c-1.03,0.82-2.385,1.312-3.575,1.312c-0.759,0-1.463-0.246-1.951-0.655
			c-0.515-0.411-0.812-1.011-0.812-1.722c0-1.119,0.922-2.065,1.789-3.059c0.769-0.913,1.785-1.129,2.66-1.129
			c0.783,0,1.453,0.173,1.727,0.173c0.208,0,0.189-0.1-0.179-0.45L36.476,2.508 M44.087,10.622l3.333,0.644
			c0.635-0.25,1.198-0.357,1.696-0.357c2.947,0,3.606,3.755,3.606,3.755l4.077,2.695c-0.333,1.227-0.945,1.658-1.704,1.658
			c-1.8,0-4.427-2.428-6.104-2.429c-1.103,0-1.795,1.05-1.571,4.535v7.387c0,1.656-0.984,3.165-2.408,4.268
			c-1.386,1.103-3.21,1.766-4.813,1.766c-1.022,0-1.97-0.331-2.627-0.884c-0.693-0.551-1.094-1.361-1.094-2.317
			c0-1.509,1.242-2.78,2.408-4.121c1.035-1.229,2.404-1.519,3.581-1.519c1.055,0,1.955,0.233,2.325,0.233
			c0.281,0,0.256-0.135-0.242-0.608L44.087,10.622 M5.931,17.765c0.748,0,1.7,0.601,2.211,0.926c0,0,5.144,1.454,5.003,3.594
			c-0.14,2.137,9.242,10.773,9.242,10.773s0.498-4.87,3.651-5.741c0.16-0.044,0.316-0.065,0.467-0.066
			c1.359,0,2.275,1.733,2.214,3.804c-0.087,2.987,0.882,3.823,2.436,6.104c1.556,2.281,6.509,0.558,8.309,4.232
			c1.686,3.445-0.263,9.736-2.807,12.017c-1.979,1.773-6.99,4.082-11.089,4.082c-1.173,0-2.271-0.189-3.202-0.634
			c-4.948-2.362-2.898-6.488-4.596-10.622c-1.696-4.136-3.799-1.041-6.214-4.278c-3.553-4.755,6.468-5.084,6.468-5.084l-8.23-11.423
			l-6.329-2.324c-1.128-0.721,1.728-5.044,1.728-5.044C5.384,17.854,5.643,17.765,5.931,17.765 M28.793,48.615
			c0.432,0,0.794-0.091,1.042-0.291c1.151-0.931,0.812-4.571-0.759-6.551c-1.007-1.27-2.627-1.841-3.963-1.841
			c-0.745,0-1.401,0.177-1.814,0.51c-1.289,1.041-0.863,4.079,0.193,5.409C24.725,47.405,27.22,48.615,28.793,48.615 M36.476,1.508
			c-0.236,0-0.466,0.083-0.649,0.239c-0.231,0.197-0.36,0.489-0.351,0.792l0.321,10.189c-0.166-0.013-0.342-0.02-0.525-0.02
			c-1.443,0-2.595,0.5-3.425,1.485l-0.201,0.228c-0.854,0.97-1.823,2.07-1.823,3.474c0,1.003,0.422,1.893,1.188,2.504
			c0.656,0.549,1.601,0.873,2.575,0.873c1.426,0,2.995-0.572,4.198-1.529c1.393-1.081,2.166-2.487,2.166-3.951v-5.487
			c0-0.021-0.001-0.043-0.002-0.064c-0.107-1.668,0.108-2.178,0.183-2.302c0.384,0.024,1.105,0.425,1.687,0.749
			c0.684,0.381,1.385,0.771,2.082,0.95c-0.169,0.032-0.329,0.107-0.463,0.222c-0.231,0.197-0.36,0.489-0.351,0.793l0.445,14.113
			c-0.323-0.036-0.682-0.063-1.066-0.063c-1.836,0-3.298,0.631-4.346,1.875l-0.286,0.327c-1.158,1.318-2.356,2.682-2.356,4.438
			c0,1.244,0.523,2.345,1.472,3.099c0.823,0.693,2.016,1.101,3.25,1.101c1.844,0,3.877-0.742,5.436-1.984
			c1.792-1.389,2.785-3.186,2.785-5.05v-7.387c0-0.021-0.001-0.043-0.002-0.064c-0.168-2.611,0.242-3.265,0.372-3.404
			c0.031-0.033,0.063-0.068,0.201-0.068c0.564,0,1.572,0.561,2.461,1.056c1.213,0.675,2.467,1.373,3.643,1.373
			c0.921,0,2.132-0.416,2.669-2.396c0.113-0.416-0.054-0.858-0.414-1.096l-3.739-2.472c-0.422-1.641-1.758-4.144-4.495-4.144
			c-0.564,0-1.162,0.108-1.78,0.322l-2.554-0.493c0.648-0.036,1.665-0.365,2.1-1.965c0.113-0.416-0.054-0.858-0.413-1.096
			l-2.696-1.783c-0.362-1.294-1.427-3.174-3.561-3.174c-0.427,0-0.877,0.078-1.341,0.232l-2.205-0.425
			C36.603,1.514,36.539,1.508,36.476,1.508L36.476,1.508z M5.931,16.765c-0.615,0-1.136,0.234-1.506,0.678
			c-0.024,0.029-0.046,0.058-0.067,0.089c-0.743,1.124-2.436,3.904-2.113,5.426c0.117,0.552,0.435,0.855,0.681,1.012
			c0.061,0.039,0.126,0.071,0.194,0.096l6.042,2.219l7.015,9.737c-2.09,0.261-5.19,0.969-6.113,2.889
			c-0.363,0.755-0.538,2.001,0.691,3.646c1.37,1.837,2.784,2.025,3.815,2.163c1.021,0.136,1.584,0.211,2.274,1.896
			c0.527,1.284,0.66,2.614,0.788,3.901c0.267,2.679,0.543,5.45,4.302,7.244c1.016,0.485,2.238,0.731,3.633,0.731
			c4.512,0,9.726-2.519,11.756-4.337c2.911-2.61,4.924-9.348,3.038-13.202c-1.239-2.529-3.659-2.955-5.604-3.298
			c-1.254-0.221-2.337-0.412-2.777-1.058c-0.23-0.337-0.447-0.643-0.65-0.93c-1.151-1.623-1.677-2.364-1.612-4.581
			c0.048-1.616-0.43-3.103-1.277-3.976c-0.544-0.56-1.213-0.857-1.936-0.857c-0.242,0-0.489,0.034-0.733,0.102
			c-2.388,0.659-3.499,3.043-3.998,4.759c-3.817-3.642-7.536-7.741-7.631-8.789c0.178-2.664-4.338-4.186-5.585-4.554
			C7.941,17.381,6.91,16.765,5.931,16.765L5.931,16.765z M28.793,47.615c-1.214,0-3.452-1.042-4.517-2.385
			c-0.854-1.075-1.058-3.436-0.348-4.01c0.172-0.139,0.575-0.288,1.185-0.288c0.932,0,2.323,0.383,3.18,1.462
			c1.431,1.803,1.425,4.738,0.913,5.152c0,0,0,0,0,0C29.205,47.547,29.104,47.615,28.793,47.615L28.793,47.615z"/>
	</g>
</g>
<g id="group">
	<path id="g" fill="#FFFFFF" d="M47.42,21.123v7.387c0,1.656-0.984,3.165-2.408,4.268c-1.385,1.103-3.21,1.766-4.813,1.766
		c-1.022,0-1.97-0.331-2.627-0.884c-0.693-0.551-1.094-1.361-1.094-2.317c0-1.508,1.242-2.78,2.408-4.12
		c2.667-3.167,7.548-0.102,5.665-1.895l-0.464-14.707l3.333,0.644c4.401-1.732,5.302,3.397,5.302,3.397l4.077,2.695
		C55.158,23.41,46.712,10.109,47.42,21.123L47.42,21.123z M38.952,10.306v5.487c0,1.23-0.732,2.349-1.789,3.168
		c-1.03,0.82-2.385,1.312-3.575,1.312c-0.759,0-1.463-0.246-1.951-0.655c-0.515-0.411-0.812-1.011-0.812-1.722
		c0-1.119,0.922-2.065,1.789-3.059c1.98-2.353,5.604-0.078,4.208-1.406L36.476,2.508l2.476,0.477
		c3.267-1.287,3.937,2.523,3.937,2.523l3.028,2.003C44.697,12.004,38.426,2.126,38.952,10.306L38.952,10.306z M39.463,41.393
		c1.686,3.445-0.263,9.736-2.807,12.017c-2.546,2.281-10.105,5.447-14.29,3.449c-4.948-2.362-2.898-6.488-4.596-10.622
		c-1.696-4.136-3.799-1.041-6.214-4.278c-3.553-4.755,6.468-5.084,6.468-5.084l-8.23-11.423l-6.329-2.324
		c-1.128-0.721,1.728-5.044,1.728-5.044c0.687-0.823,2.241,0.157,2.949,0.608c0,0,5.144,1.454,5.003,3.594
		c-0.14,2.137,9.242,10.773,9.242,10.773s0.498-4.87,3.651-5.741c1.611-0.445,2.748,1.438,2.68,3.738
		c-0.087,2.987,0.882,3.823,2.436,6.104C32.71,39.441,37.663,37.719,39.463,41.393L39.463,41.393z M29.076,41.773
		c-1.569-1.978-4.624-2.26-5.777-1.331c-1.289,1.041-0.863,4.079,0.193,5.409c1.571,1.98,5.192,3.401,6.343,2.472
		C30.985,47.393,30.647,43.753,29.076,41.773L29.076,41.773z"/>
</g>
<g id="disabled">
	<path id="d" fill="#FFFFFF" d="M47.42,21.123v7.387c0,1.656-0.984,3.165-2.408,4.268c-1.385,1.103-3.21,1.766-4.813,1.766
		c-1.022,0-1.97-0.331-2.627-0.884c-0.693-0.551-1.094-1.361-1.094-2.317c0-1.508,1.242-2.78,2.408-4.12
		c2.667-3.167,7.548-0.102,5.665-1.895l-0.464-14.707l3.333,0.644c4.401-1.732,5.302,3.397,5.302,3.397l4.077,2.695
		C55.158,23.41,46.712,10.109,47.42,21.123L47.42,21.123z M38.952,10.306v5.487c0,1.23-0.732,2.349-1.789,3.168
		c-1.03,0.82-2.385,1.312-3.575,1.312c-0.759,0-1.463-0.246-1.951-0.655c-0.515-0.411-0.812-1.011-0.812-1.722
		c0-1.119,0.922-2.065,1.789-3.059c1.98-2.353,5.604-0.078,4.208-1.406L36.476,2.508l2.476,0.477
		c3.267-1.287,3.937,2.523,3.937,2.523l3.028,2.003C44.697,12.004,38.426,2.126,38.952,10.306L38.952,10.306z M39.463,41.393
		c1.686,3.445-0.263,9.736-2.807,12.017c-2.546,2.281-10.105,5.447-14.29,3.449c-4.948-2.362-2.898-6.488-4.596-10.622
		c-1.696-4.136-3.799-1.041-6.214-4.278c-3.553-4.755,6.468-5.084,6.468-5.084l-8.23-11.423l-6.329-2.324
		c-1.128-0.721,1.728-5.044,1.728-5.044c0.687-0.823,2.241,0.157,2.949,0.608c0,0,5.144,1.454,5.003,3.594
		c-0.14,2.137,9.242,10.773,9.242,10.773s0.498-4.87,3.651-5.741c1.611-0.445,2.748,1.438,2.68,3.738
		c-0.087,2.987,0.882,3.823,2.436,6.104C32.71,39.441,37.663,37.719,39.463,41.393L39.463,41.393z M29.076,41.773
		c-1.569-1.978-4.624-2.26-5.777-1.331c-1.289,1.041-0.863,4.079,0.193,5.409c1.571,1.98,5.192,3.401,6.343,2.472
		C30.985,47.393,30.647,43.753,29.076,41.773L29.076,41.773z"/>
</g>
<g id="normal">
	<path id="n" fill="#FFFFFF" d="M47.42,21.123v7.387c0,1.656-0.984,3.165-2.408,4.268c-1.385,1.103-3.21,1.766-4.813,1.766
		c-1.022,0-1.97-0.331-2.627-0.884c-0.693-0.551-1.094-1.361-1.094-2.317c0-1.508,1.242-2.78,2.408-4.12
		c2.667-3.167,7.548-0.102,5.665-1.895l-0.464-14.707l3.333,0.644c4.401-1.732,5.302,3.397,5.302,3.397l4.077,2.695
		C55.158,23.41,46.712,10.109,47.42,21.123L47.42,21.123z M38.952,10.306v5.487c0,1.23-0.732,2.349-1.789,3.168
		c-1.03,0.82-2.385,1.312-3.575,1.312c-0.759,0-1.463-0.246-1.951-0.655c-0.515-0.411-0.812-1.011-0.812-1.722
		c0-1.119,0.922-2.065,1.789-3.059c1.98-2.353,5.604-0.078,4.208-1.406L36.476,2.508l2.476,0.477
		c3.267-1.287,3.937,2.523,3.937,2.523l3.028,2.003C44.697,12.004,38.426,2.126,38.952,10.306L38.952,10.306z M39.463,41.393
		c1.686,3.445-0.263,9.736-2.807,12.017c-2.546,2.281-10.105,5.447-14.29,3.449c-4.948-2.362-2.898-6.488-4.596-10.622
		c-1.696-4.136-3.799-1.041-6.214-4.278c-3.553-4.755,6.468-5.084,6.468-5.084l-8.23-11.423l-6.329-2.324
		c-1.128-0.721,1.728-5.044,1.728-5.044c0.687-0.823,2.241,0.157,2.949,0.608c0,0,5.144,1.454,5.003,3.594
		c-0.14,2.137,9.242,10.773,9.242,10.773s0.498-4.87,3.651-5.741c1.611-0.445,2.748,1.438,2.68,3.738
		c-0.087,2.987,0.882,3.823,2.436,6.104C32.71,39.441,37.663,37.719,39.463,41.393L39.463,41.393z M29.076,41.773
		c-1.569-1.978-4.624-2.26-5.777-1.331c-1.289,1.041-0.863,4.079,0.193,5.409c1.571,1.98,5.192,3.401,6.343,2.472
		C30.985,47.393,30.647,43.753,29.076,41.773L29.076,41.773z"/>
</g>
</svg>
