<?xml version="1.0" encoding="utf-8"?>
<!-- Generator: Adobe Illustrator 17.0.1, SVG Export Plug-In . SVG Version: 6.00 Build 0)  -->
<!DOCTYPE svg PUBLIC "-//W3C//DTD SVG 1.1//EN" "http://www.w3.org/Graphics/SVG/1.1/DTD/svg11.dtd">
<svg version="1.1" xmlns="http://www.w3.org/2000/svg" xmlns:xlink="http://www.w3.org/1999/xlink" x="0px" y="0px" width="60px"
	 height="60px" viewBox="0 0 60 60" enable-background="new 0 0 60 60" xml:space="preserve">
<g id="hwy_disabled">
	<g id="hd">
		<path fill="#313131" d="M19.377,57.215c-2.044,0-3.169-1.309-3.169-3.684V43.395l-4.549,1.552
			c-0.053,0.018-0.107,0.026-0.162,0.026c-0.118,0-0.235-0.042-0.327-0.122c-0.134-0.116-0.197-0.295-0.165-0.47
			c0.019-0.102,1.93-10.298,5.204-21.743c1.355-4.739,10.414-6.408,12.253-6.408c1.228,0,8.744-2.067,11.537-2.863
			c0.045-0.014,0.092-0.02,0.137-0.02c0.179,0,0.349,0.097,0.438,0.26l2.604,4.748c0.069,0.126,0.081,0.275,0.032,0.411
			c-0.049,0.135-0.154,0.242-0.288,0.295l-13.617,5.326l5.9,18.154c0.049,0.152,0.023,0.318-0.071,0.448
			c-0.094,0.13-0.244,0.206-0.404,0.206h-2.947v8.202c0,1.405-0.867,3.635-3.194,3.635c-2.603,0-3.29-2.378-3.29-3.635
			c0-6.802-1.867-7.948-2.476-8.141c-0.16,0.671-0.151,2.938-0.138,6.216c0.004,1.169,0.01,2.516,0.01,4.059
			C22.693,55.312,21.822,57.215,19.377,57.215z M46.511,37.815c-3.581,0-6.494-2.936-6.494-6.544s2.913-6.544,6.494-6.544
			c3.58,0,6.492,2.936,6.492,6.544S50.091,37.815,46.511,37.815z M23.165,16.312c-3.453,0-6.597-3.133-6.597-6.572
			c0-3.444,3.407-6.954,6.75-6.954c3.367,0,6.672,3.406,6.672,6.876C29.99,13.018,26.609,16.312,23.165,16.312z"/>
		<path d="M23.318,3.285c3.135,0,6.172,3.218,6.172,6.376c0,3.161-3.19,6.15-6.325,6.15c-3.133,0-6.097-2.911-6.097-6.072
			C17.068,6.579,20.185,3.285,23.318,3.285 M40.135,13.847l2.604,4.747l-14.056,5.499l6.046,18.602h-3.447c0,0,0,2.38,0,8.703
			c0,1.051-0.613,3.135-2.694,3.135c-2.302,0-2.79-2.154-2.79-3.135c0-8.159-2.707-8.68-3.165-8.68
			c-0.586,0-0.439,2.653-0.439,10.813c0,1.581-0.737,3.184-2.817,3.184c-2.129,0-2.669-1.604-2.669-3.184c0-1.845,0-10.836,0-10.836
			l-5.211,1.778c0,0,1.888-10.143,5.193-21.698c1.217-4.255,9.676-6.046,11.772-6.046C30.028,16.729,40.135,13.847,40.135,13.847
			 M46.511,25.228c3.311,0,5.992,2.705,5.992,6.044c0,3.339-2.682,6.044-5.992,6.044c-3.311,0-5.994-2.705-5.994-6.044
			C40.517,27.933,43.201,25.228,46.511,25.228 M23.318,2.285c-3.659,0-7.25,3.692-7.25,7.454c0,3.649,3.287,6.976,6.939,7.07
			c-3.117,1.018-6.459,2.823-7.279,5.691c-3.28,11.468-5.196,21.688-5.215,21.79c-0.065,0.349,0.06,0.707,0.329,0.939
			c0.184,0.16,0.417,0.244,0.654,0.244c0.108,0,0.217-0.018,0.323-0.054l3.888-1.326v9.438c0,2.62,1.372,4.184,3.669,4.184
			c2.319,0,3.817-1.642,3.817-4.184c0-1.547-0.005-2.896-0.01-4.067c-0.009-2.378-0.017-4.282,0.043-5.335
			c0.641,0.687,1.571,2.504,1.571,7.269c0,1.991,1.186,4.135,3.79,4.135c2.691,0,3.694-2.536,3.694-4.135v-7.703h2.447
			c0.32,0,0.621-0.153,0.809-0.412c0.188-0.259,0.241-0.592,0.142-0.897l-5.754-17.705l13.177-5.155
			c0.268-0.105,0.478-0.32,0.576-0.59c0.098-0.27,0.075-0.57-0.063-0.822l-2.604-4.747c-0.179-0.326-0.519-0.519-0.877-0.519
			c-0.091,0-0.183,0.012-0.274,0.038c-3.856,1.1-10.361,2.844-11.4,2.844c-0.441,0-1.162,0.071-2.042,0.226
			c2.332-1.255,4.071-3.726,4.071-6.294C30.49,5.938,26.937,2.285,23.318,2.285L23.318,2.285z M46.511,24.228
			c-3.857,0-6.994,3.16-6.994,7.044c0,3.884,3.138,7.044,6.994,7.044c3.856,0,6.992-3.16,6.992-7.044
			C53.504,27.388,50.367,24.228,46.511,24.228L46.511,24.228z"/>
	</g>
</g>
<g id="hwy">
	<g id="h_2_">
		<path fill="#FFFFFF" d="M19.377,57.215c-2.044,0-3.169-1.309-3.169-3.684V43.395l-4.549,1.552
			c-0.053,0.018-0.107,0.026-0.162,0.026c-0.118,0-0.235-0.042-0.327-0.122c-0.134-0.116-0.197-0.295-0.165-0.47
			c0.019-0.102,1.93-10.298,5.204-21.743c1.355-4.739,10.414-6.408,12.253-6.408c1.228,0,8.744-2.067,11.537-2.863
			c0.045-0.014,0.092-0.02,0.137-0.02c0.179,0,0.349,0.097,0.438,0.26l2.604,4.748c0.069,0.126,0.081,0.275,0.032,0.411
			c-0.049,0.135-0.154,0.242-0.288,0.295l-13.617,5.326l5.9,18.154c0.049,0.152,0.023,0.318-0.071,0.448
			c-0.094,0.13-0.244,0.206-0.404,0.206h-2.947v8.202c0,1.405-0.867,3.635-3.194,3.635c-2.603,0-3.29-2.378-3.29-3.635
			c0-6.802-1.867-7.948-2.476-8.141c-0.16,0.671-0.151,2.938-0.138,6.216c0.004,1.169,0.01,2.516,0.01,4.059
			C22.693,55.312,21.822,57.215,19.377,57.215z M46.511,37.815c-3.581,0-6.494-2.936-6.494-6.544s2.913-6.544,6.494-6.544
			c3.58,0,6.492,2.936,6.492,6.544S50.091,37.815,46.511,37.815z M23.165,16.312c-3.453,0-6.597-3.133-6.597-6.572
			c0-3.444,3.407-6.954,6.75-6.954c3.367,0,6.672,3.406,6.672,6.876C29.99,13.018,26.609,16.312,23.165,16.312z"/>
		<path d="M23.318,3.285c3.135,0,6.172,3.218,6.172,6.376c0,3.161-3.19,6.15-6.325,6.15c-3.133,0-6.097-2.911-6.097-6.072
			C17.068,6.579,20.185,3.285,23.318,3.285 M40.135,13.847l2.604,4.747l-14.056,5.499l6.046,18.602h-3.447c0,0,0,2.38,0,8.703
			c0,1.051-0.613,3.135-2.694,3.135c-2.302,0-2.79-2.154-2.79-3.135c0-8.159-2.707-8.68-3.165-8.68
			c-0.586,0-0.439,2.653-0.439,10.813c0,1.581-0.737,3.184-2.817,3.184c-2.129,0-2.669-1.604-2.669-3.184c0-1.845,0-10.836,0-10.836
			l-5.211,1.778c0,0,1.888-10.143,5.193-21.698c1.217-4.255,9.676-6.046,11.772-6.046C30.028,16.729,40.135,13.847,40.135,13.847
			 M46.511,25.228c3.311,0,5.992,2.705,5.992,6.044c0,3.339-2.682,6.044-5.992,6.044c-3.311,0-5.994-2.705-5.994-6.044
			C40.517,27.933,43.201,25.228,46.511,25.228 M23.318,2.285c-3.659,0-7.25,3.692-7.25,7.454c0,3.649,3.287,6.976,6.939,7.07
			c-3.117,1.018-6.459,2.823-7.279,5.691c-3.28,11.468-5.196,21.688-5.215,21.79c-0.065,0.349,0.06,0.707,0.329,0.939
			c0.184,0.16,0.417,0.244,0.654,0.244c0.108,0,0.217-0.018,0.323-0.054l3.888-1.326v9.438c0,2.62,1.372,4.184,3.669,4.184
			c2.319,0,3.817-1.642,3.817-4.184c0-1.547-0.005-2.896-0.01-4.067c-0.009-2.378-0.017-4.282,0.043-5.335
			c0.641,0.687,1.571,2.504,1.571,7.269c0,1.991,1.186,4.135,3.79,4.135c2.691,0,3.694-2.536,3.694-4.135v-7.703h2.447
			c0.32,0,0.621-0.153,0.809-0.412c0.188-0.259,0.241-0.592,0.142-0.897l-5.754-17.705l13.177-5.155
			c0.268-0.105,0.478-0.32,0.576-0.59c0.098-0.27,0.075-0.57-0.063-0.822l-2.604-4.747c-0.179-0.326-0.519-0.519-0.877-0.519
			c-0.091,0-0.183,0.012-0.274,0.038c-3.856,1.1-10.361,2.844-11.4,2.844c-0.441,0-1.162,0.071-2.042,0.226
			c2.332-1.255,4.071-3.726,4.071-6.294C30.49,5.938,26.937,2.285,23.318,2.285L23.318,2.285z M46.511,24.228
			c-3.857,0-6.994,3.16-6.994,7.044c0,3.884,3.138,7.044,6.994,7.044c3.856,0,6.992-3.16,6.992-7.044
			C53.504,27.388,50.367,24.228,46.511,24.228L46.511,24.228z"/>
	</g>
</g>
<g id="group">
	<path id="g" fill="#FFFFFF" d="M46.511,37.316c-3.311,0-5.994-2.705-5.994-6.044c0-3.339,2.684-6.044,5.994-6.044
		c3.311,0,5.992,2.705,5.992,6.044C52.504,34.611,49.822,37.316,46.511,37.316L46.511,37.316z M34.729,42.695h-3.447
		c0,0,0,2.38,0,8.703c0,1.051-0.613,3.135-2.694,3.135c-2.302,0-2.79-2.154-2.79-3.135c0-8.159-2.707-8.68-3.165-8.68
		c-0.586,0-0.439,2.653-0.439,10.813c0,1.581-0.737,3.184-2.817,3.184c-2.129,0-2.669-1.604-2.669-3.184c0-1.845,0-10.836,0-10.836
		l-5.211,1.778c0,0,1.888-10.143,5.193-21.698c1.217-4.255,9.676-6.046,11.772-6.046c1.566,0,11.674-2.882,11.674-2.882l2.604,4.747
		l-14.056,5.499L34.729,42.695L34.729,42.695z M23.165,15.811c-3.133,0-6.097-2.911-6.097-6.072c0-3.16,3.117-6.454,6.25-6.454
		c3.135,0,6.172,3.218,6.172,6.376C29.49,12.822,26.3,15.811,23.165,15.811L23.165,15.811z"/>
</g>
<g id="disabled">
	<path id="d_2_" fill="#FFFFFF" d="M46.511,37.316c-3.311,0-5.994-2.705-5.994-6.044c0-3.339,2.684-6.044,5.994-6.044
		c3.311,0,5.992,2.705,5.992,6.044C52.504,34.611,49.822,37.316,46.511,37.316L46.511,37.316z M34.729,42.695h-3.447
		c0,0,0,2.38,0,8.703c0,1.051-0.613,3.135-2.694,3.135c-2.302,0-2.79-2.154-2.79-3.135c0-8.159-2.707-8.68-3.165-8.68
		c-0.586,0-0.439,2.653-0.439,10.813c0,1.581-0.737,3.184-2.817,3.184c-2.129,0-2.669-1.604-2.669-3.184c0-1.845,0-10.836,0-10.836
		l-5.211,1.778c0,0,1.888-10.143,5.193-21.698c1.217-4.255,9.676-6.046,11.772-6.046c1.566,0,11.674-2.882,11.674-2.882l2.604,4.747
		l-14.056,5.499L34.729,42.695L34.729,42.695z M23.165,15.811c-3.133,0-6.097-2.911-6.097-6.072c0-3.16,3.117-6.454,6.25-6.454
		c3.135,0,6.172,3.218,6.172,6.376C29.49,12.822,26.3,15.811,23.165,15.811L23.165,15.811z"/>
</g>
<g id="normal">
	<path id="n" fill="#FFFFFF" d="M46.511,37.316c-3.311,0-5.994-2.705-5.994-6.044c0-3.339,2.684-6.044,5.994-6.044
		c3.311,0,5.992,2.705,5.992,6.044C52.504,34.611,49.822,37.316,46.511,37.316L46.511,37.316z M34.729,42.695h-3.447
		c0,0,0,2.38,0,8.703c0,1.051-0.613,3.135-2.694,3.135c-2.302,0-2.79-2.154-2.79-3.135c0-8.159-2.707-8.68-3.165-8.68
		c-0.586,0-0.439,2.653-0.439,10.813c0,1.581-0.737,3.184-2.817,3.184c-2.129,0-2.669-1.604-2.669-3.184c0-1.845,0-10.836,0-10.836
		l-5.211,1.778c0,0,1.888-10.143,5.193-21.698c1.217-4.255,9.676-6.046,11.772-6.046c1.566,0,11.674-2.882,11.674-2.882l2.604,4.747
		l-14.056,5.499L34.729,42.695L34.729,42.695z M23.165,15.811c-3.133,0-6.097-2.911-6.097-6.072c0-3.16,3.117-6.454,6.25-6.454
		c3.135,0,6.172,3.218,6.172,6.376C29.49,12.822,26.3,15.811,23.165,15.811L23.165,15.811z"/>
</g>
</svg>
