<?xml version="1.0" encoding="utf-8"?>
<!-- Generator: Adobe Illustrator 17.0.1, SVG Export Plug-In . SVG Version: 6.00 Build 0)  -->
<!DOCTYPE svg PUBLIC "-//W3C//DTD SVG 1.1//EN" "http://www.w3.org/Graphics/SVG/1.1/DTD/svg11.dtd">
<svg version="1.1" xmlns="http://www.w3.org/2000/svg" xmlns:xlink="http://www.w3.org/1999/xlink" x="0px" y="0px" width="60px"
	 height="60px" viewBox="0 0 60 60" enable-background="new 0 0 60 60" xml:space="preserve">
<g id="hwy_disabled">
	<g id="hd">
		<path fill="#313131" d="M16.781,52.521c-5.545,0-9.271-3.615-9.271-8.997c0-0.023,0.006-0.093,0.009-0.115
			c0-0.27,0.212-0.478,0.481-0.487c0.006-0.001,0.012-0.001,0.018-0.001c0.261,0,0.479,0.213,0.499,0.476
			c0.063,0.835,0.688,1.391,3.542,1.391c0.639,0,1.326-0.023,2.038-0.048l0.258-0.009v-5.504c-1.361-0.071-2.674-0.559-3.817-1.419
			l-0.523-0.459c-1.613-1.472-2.535-3.524-2.535-5.637c0-1.196,0.301-2.312,0.896-3.318c-0.587-1.083-0.896-2.274-0.896-3.464V14.76
			c0-4.015,3.24-7.28,7.223-7.28s7.224,3.266,7.224,7.28v10.277h19.668c4.186,0,7.224,2.807,7.224,6.674
			c0,0.857-0.165,1.738-0.49,2.619c-1.241,2.463-3.937,4.904-6.733,4.904h-2.409v5.815l4.608,0.076c5.732,0,8.644-2.18,8.644-6.478
			c0-0.829-0.134-1.484-0.409-2.004c-0.113-0.215-0.057-0.479,0.134-0.628c0.091-0.071,0.2-0.106,0.308-0.106
			c0.12,0,0.239,0.043,0.333,0.127c2.105,1.885,3.312,4.583,3.312,7.405c0,5.26-4.153,9.078-9.874,9.078H16.781z M34.828,44.977
			v-5.742H18.717v5.474L34.828,44.977z"/>
		<path d="M14.705,7.98c3.714,0,6.724,3.037,6.724,6.78v10.777h20.168c3.714,0,6.724,2.429,6.724,6.174
			c0,0.853-0.174,1.674-0.459,2.445c-1.126,2.229-3.678,4.578-6.264,4.578h-2.909v6.807l5.1,0.084c5.178,0,9.152-1.757,9.152-6.977
			c0-0.862-0.136-1.613-0.468-2.238c1.926,1.724,3.146,4.228,3.146,7.033c0,5.222-4.196,8.577-9.374,8.577H16.781
			c-5.178,0-8.77-3.275-8.77-8.497c0-0.031,0.008-0.059,0.008-0.09c0.117,1.562,1.787,1.853,4.039,1.853
			c0.865,0,1.816-0.043,2.798-0.073v-6.478h-0.151c-1.441,0-2.77-0.503-3.865-1.327l-0.493-0.434
			c-1.434-1.309-2.366-3.204-2.366-5.262c0-1.275,0.371-2.38,0.977-3.307c-0.606-1.019-0.977-2.2-0.977-3.475V14.76
			C7.982,11.016,10.993,7.98,14.705,7.98 M35.328,45.485v-6.751H18.218V45.2L35.328,45.485 M14.705,6.98
			c-4.259,0-7.723,3.49-7.723,7.78v10.169c0,1.182,0.285,2.365,0.827,3.454c-0.549,1.02-0.827,2.136-0.827,3.329
			c0,2.253,0.981,4.44,2.692,6.001l0.506,0.446c0.019,0.017,0.039,0.033,0.059,0.048c1.091,0.821,2.327,1.325,3.618,1.478v4.561
			c-0.634,0.022-1.236,0.04-1.798,0.04c-2.972,0-3.017-0.603-3.041-0.927c-0.039-0.524-0.476-0.925-0.997-0.926
			c-0.013,0-0.025,0-0.038,0.001c-0.514,0.019-0.925,0.423-0.96,0.928c-0.007,0.054-0.011,0.106-0.011,0.161
			c0,5.68,3.926,9.497,9.77,9.497h29.463c6.011,0,10.374-4.028,10.374-9.577c0-2.964-1.268-5.799-3.479-7.778
			c-0.189-0.169-0.428-0.255-0.667-0.255c-0.217,0-0.435,0.07-0.616,0.213c-0.382,0.299-0.494,0.828-0.267,1.256
			c0.236,0.445,0.351,1.024,0.351,1.77c0,1.478,0,5.977-8.152,5.977l-4.1-0.068v-4.824h1.909c2.998,0,5.87-2.579,7.157-5.127
			c0.017-0.034,0.032-0.069,0.045-0.104c0.346-0.936,0.521-1.875,0.521-2.792c0-4.157-3.248-7.174-7.724-7.174H22.428V14.76
			C22.428,10.47,18.964,6.98,14.705,6.98L14.705,6.98z M19.218,39.735h15.111v4.734l-15.111-0.252V39.735L19.218,39.735z"/>
	</g>
</g>
<g id="hwy">
	<g id="h_1_">
		<path fill="#FFFFFF" d="M16.781,52.521c-5.545,0-9.271-3.615-9.271-8.997c0-0.023,0.006-0.093,0.009-0.115
			c0-0.27,0.212-0.478,0.481-0.487c0.006-0.001,0.012-0.001,0.018-0.001c0.261,0,0.479,0.213,0.499,0.476
			c0.063,0.835,0.688,1.391,3.542,1.391c0.639,0,1.326-0.023,2.038-0.048l0.258-0.009v-5.504c-1.361-0.071-2.674-0.559-3.817-1.419
			l-0.523-0.459c-1.613-1.472-2.535-3.524-2.535-5.637c0-1.196,0.301-2.312,0.896-3.318c-0.587-1.083-0.896-2.274-0.896-3.464V14.76
			c0-4.015,3.24-7.28,7.223-7.28s7.224,3.266,7.224,7.28v10.277h19.668c4.186,0,7.224,2.807,7.224,6.674
			c0,0.857-0.165,1.738-0.49,2.619c-1.241,2.463-3.937,4.904-6.733,4.904h-2.409v5.815l4.608,0.076c5.732,0,8.644-2.18,8.644-6.478
			c0-0.829-0.134-1.484-0.409-2.004c-0.113-0.215-0.057-0.479,0.134-0.628c0.091-0.071,0.2-0.106,0.308-0.106
			c0.12,0,0.239,0.043,0.333,0.127c2.105,1.885,3.312,4.583,3.312,7.405c0,5.26-4.153,9.078-9.874,9.078H16.781z M34.828,44.977
			v-5.742H18.717v5.474L34.828,44.977z"/>
		<path d="M14.705,7.98c3.714,0,6.724,3.037,6.724,6.78v10.777h20.168c3.714,0,6.724,2.429,6.724,6.174
			c0,0.853-0.174,1.674-0.459,2.445c-1.126,2.229-3.678,4.578-6.264,4.578h-2.909v6.807l5.1,0.084c5.178,0,9.152-1.757,9.152-6.977
			c0-0.862-0.136-1.613-0.468-2.238c1.926,1.724,3.146,4.228,3.146,7.033c0,5.222-4.196,8.577-9.374,8.577H16.781
			c-5.178,0-8.77-3.275-8.77-8.497c0-0.031,0.008-0.059,0.008-0.09c0.117,1.562,1.787,1.853,4.039,1.853
			c0.865,0,1.816-0.043,2.798-0.073v-6.478h-0.151c-1.441,0-2.77-0.503-3.865-1.327l-0.493-0.434
			c-1.434-1.309-2.366-3.204-2.366-5.262c0-1.275,0.371-2.38,0.977-3.307c-0.606-1.019-0.977-2.2-0.977-3.475V14.76
			C7.982,11.016,10.993,7.98,14.705,7.98 M35.328,45.485v-6.751H18.218V45.2L35.328,45.485 M14.705,6.98
			c-4.259,0-7.723,3.49-7.723,7.78v10.169c0,1.182,0.285,2.365,0.827,3.454c-0.549,1.02-0.827,2.136-0.827,3.329
			c0,2.253,0.981,4.44,2.692,6.001l0.506,0.446c0.019,0.017,0.039,0.033,0.059,0.048c1.091,0.821,2.327,1.325,3.618,1.478v4.561
			c-0.634,0.022-1.236,0.04-1.798,0.04c-2.972,0-3.017-0.603-3.041-0.927c-0.039-0.524-0.476-0.925-0.997-0.926
			c-0.013,0-0.025,0-0.038,0.001c-0.514,0.019-0.925,0.423-0.96,0.928c-0.007,0.054-0.011,0.106-0.011,0.161
			c0,5.68,3.926,9.497,9.77,9.497h29.463c6.011,0,10.374-4.028,10.374-9.577c0-2.964-1.268-5.799-3.479-7.778
			c-0.189-0.169-0.428-0.255-0.667-0.255c-0.217,0-0.435,0.07-0.616,0.213c-0.382,0.299-0.494,0.828-0.267,1.256
			c0.236,0.445,0.351,1.024,0.351,1.77c0,1.478,0,5.977-8.152,5.977l-4.1-0.068v-4.824h1.909c2.998,0,5.87-2.579,7.157-5.127
			c0.017-0.034,0.032-0.069,0.045-0.104c0.346-0.936,0.521-1.875,0.521-2.792c0-4.157-3.248-7.174-7.724-7.174H22.428V14.76
			C22.428,10.47,18.964,6.98,14.705,6.98L14.705,6.98z M19.218,39.735h15.111v4.734l-15.111-0.252V39.735L19.218,39.735z"/>
	</g>
</g>
<g id="group">
	<g id="g">
		<path fill="#FFFFFF" d="M52.473,36.41c0.332,0.626,0.468,1.377,0.468,2.238c0,5.22-3.974,6.977-9.152,6.977l-5.1-0.084v-6.807
			h2.909c2.586,0,5.138-2.349,6.264-4.578c0.285-0.772,0.459-1.592,0.459-2.445c0-3.746-3.009-6.174-6.724-6.174H21.428V14.76
			c0-3.743-3.009-6.78-6.724-6.78c-3.712,0-6.723,3.037-6.723,6.78v10.169c0,1.275,0.371,2.456,0.977,3.475
			c-0.606,0.927-0.977,2.032-0.977,3.307c0,2.057,0.931,3.953,2.366,5.262l0.493,0.434c1.095,0.824,2.424,1.327,3.865,1.327h0.151
			v6.478c-3.538,0.109-6.675,0.382-6.837-1.78c0,0.031-0.008,0.059-0.008,0.09c0,5.222,3.592,8.497,8.77,8.497h29.463
			c5.178,0,9.374-3.355,9.374-8.577C55.618,40.638,54.399,38.134,52.473,36.41z M35.328,45.485L18.218,45.2v-6.466h17.111V45.485z"
			/>
	</g>
</g>
<g id="disabled">
	<path id="d_1_" fill="#FFFFFF" d="M52.473,36.41c0.332,0.626,0.468,1.377,0.468,2.238c0,5.22-3.974,6.977-9.152,6.977
		l-5.1-0.084v-6.807h2.909c2.586,0,5.138-2.349,6.264-4.578c0.285-0.772,0.459-1.592,0.459-2.445c0-3.746-3.009-6.174-6.724-6.174
		H21.428V14.76c0-3.743-3.009-6.78-6.724-6.78c-3.712,0-6.723,3.037-6.723,6.78v10.169c0,1.275,0.371,2.456,0.977,3.475
		c-0.606,0.927-0.977,2.032-0.977,3.307c0,2.057,0.931,3.953,2.366,5.262l0.493,0.434c1.095,0.824,2.424,1.327,3.865,1.327h0.151
		v6.478c-3.538,0.109-6.675,0.382-6.837-1.78c0,0.031-0.008,0.059-0.008,0.09c0,5.222,3.592,8.497,8.77,8.497h29.463
		c5.178,0,9.374-3.355,9.374-8.577C55.618,40.638,54.399,38.134,52.473,36.41z M35.328,45.485L18.218,45.2v-6.466h17.111V45.485z"/>
</g>
<g id="normal">
	<path id="n" fill="#FFFFFF" d="M52.473,36.41c0.332,0.626,0.468,1.377,0.468,2.238c0,5.22-3.974,6.977-9.152,6.977l-5.1-0.084
		v-6.807h2.909c2.586,0,5.138-2.349,6.264-4.578c0.285-0.772,0.459-1.592,0.459-2.445c0-3.746-3.009-6.174-6.724-6.174H21.428V14.76
		c0-3.743-3.009-6.78-6.724-6.78c-3.712,0-6.723,3.037-6.723,6.78v10.169c0,1.275,0.371,2.456,0.977,3.475
		c-0.606,0.927-0.977,2.032-0.977,3.307c0,2.057,0.931,3.953,2.366,5.262l0.493,0.434c1.095,0.824,2.424,1.327,3.865,1.327h0.151
		v6.478c-3.538,0.109-6.675,0.382-6.837-1.78c0,0.031-0.008,0.059-0.008,0.09c0,5.222,3.592,8.497,8.77,8.497h29.463
		c5.178,0,9.374-3.355,9.374-8.577C55.618,40.638,54.399,38.134,52.473,36.41z M35.328,45.485L18.218,45.2v-6.466h17.111V45.485z"/>
</g>
</svg>
