<?xml version="1.0" encoding="UTF-8" ?>
<!DOCTYPE svg PUBLIC "-//W3C//DTD SVG 1.1//EN" "http://www.w3.org/Graphics/SVG/1.1/DTD/svg11.dtd">
<svg width="141pt" height="142pt" viewBox="0 0 141 142" version="1.1" xmlns="http://www.w3.org/2000/svg">
<g id="#ffffffff">
</g>
<g id="#101430ff">
<path fill="blue" opacity="1.00" d=" M 24.42 17.40 C 36.72 6.79 52.82 0.72 69.07 0.64 C 84.45 0.45 99.83 5.58 112.01 14.99 C 125.43 25.20 134.94 40.43 138.09 57.01 C 140.98 71.81 138.92 87.54 132.20 101.05 C 125.42 114.85 113.92 126.28 100.07 132.97 C 85.83 139.96 69.16 141.75 53.74 138.10 C 37.75 134.38 23.26 124.73 13.57 111.48 C 5.21 100.26 0.61 86.47 0.00 72.53 L 0.00 69.27 C 0.30 49.54 9.35 30.17 24.42 17.40 M 27.82 55.78 C 23.93 66.57 24.93 78.63 29.35 89.10 C 24.86 93.06 21.50 98.05 17.27 102.26 C 15.60 103.57 15.81 105.88 16.15 107.73 C 17.66 109.73 21.15 109.52 22.78 107.74 C 25.75 104.93 28.51 101.89 31.41 99.00 C 32.04 100.03 32.65 101.06 33.24 102.10 C 30.75 105.01 27.73 107.41 25.33 110.39 C 24.50 112.33 24.59 115.26 26.92 116.08 C 28.61 117.44 30.38 115.56 32.02 115.05 C 32.90 115.45 33.77 115.85 34.64 116.25 C 34.58 119.02 36.10 121.08 38.66 122.02 C 43.22 118.77 46.90 114.52 50.90 110.65 C 63.78 116.27 79.15 115.98 91.45 108.97 C 92.88 110.39 94.15 112.08 96.01 112.97 C 97.69 113.09 99.34 112.68 100.99 112.43 C 104.80 112.63 109.68 114.48 112.83 111.72 C 114.70 106.90 109.12 104.81 107.56 101.00 C 109.09 101.81 110.58 102.68 112.09 103.53 C 114.45 103.23 116.81 103.02 119.19 102.86 C 119.67 101.12 120.78 99.07 119.55 97.39 C 116.88 93.82 114.01 90.38 110.81 87.25 C 117.09 71.72 114.04 52.82 102.52 40.51 C 92.78 29.59 77.39 24.11 62.93 26.48 C 47.00 28.78 32.97 40.55 27.82 55.78 Z" />
<path fill="blue" opacity="1.00" d=" M 58.91 57.97 C 63.45 54.56 69.53 53.39 74.95 55.19 C 74.05 58.95 73.77 62.82 74.03 66.68 C 77.33 69.72 80.52 72.90 83.42 76.33 C 79.20 74.71 75.10 72.35 73.17 68.04 C 69.72 66.19 67.28 62.97 63.82 61.13 C 62.12 60.18 60.49 59.11 58.91 57.97 Z" />
</g>
<g id="#000000ff">
<path fill="blue" opacity="1.00" d=" M 74.95 55.19 C 76.52 55.61 78.11 55.93 79.70 56.20 C 90.08 66.54 100.38 76.97 110.81 87.25 C 114.01 90.38 116.88 93.82 119.55 97.39 C 120.78 99.07 119.67 101.12 119.19 102.86 C 116.81 103.02 114.45 103.23 112.09 103.53 C 110.58 102.68 109.09 101.81 107.56 101.00 C 109.12 104.81 114.70 106.90 112.83 111.72 C 109.68 114.48 104.80 112.63 100.99 112.43 C 99.34 112.68 97.69 113.09 96.01 112.97 C 94.15 112.08 92.88 110.39 91.45 108.97 C 89.90 107.35 88.31 105.71 86.32 104.62 C 81.21 99.90 76.37 94.89 71.52 89.91 C 64.72 96.89 57.72 103.68 50.90 110.65 C 46.90 114.52 43.22 118.77 38.66 122.02 C 36.10 121.08 34.58 119.02 34.64 116.25 C 33.77 115.85 32.90 115.45 32.02 115.05 C 30.38 115.56 28.61 117.44 26.92 116.08 C 24.59 115.26 24.50 112.33 25.33 110.39 C 27.73 107.41 30.75 105.01 33.24 102.10 C 32.65 101.06 32.04 100.03 31.41 99.00 C 28.51 101.89 25.75 104.93 22.78 107.74 C 21.15 109.52 17.66 109.73 16.15 107.73 C 15.81 105.88 15.60 103.57 17.27 102.26 C 21.50 98.05 24.86 93.06 29.35 89.10 C 31.82 86.63 34.60 84.38 36.38 81.33 C 40.26 76.92 44.74 73.08 48.62 68.67 C 51.34 64.51 55.20 61.22 58.91 57.97 C 60.49 59.11 62.12 60.18 63.82 61.13 C 67.28 62.97 69.72 66.19 73.17 68.04 C 75.10 72.35 79.20 74.71 83.42 76.33 C 80.52 72.90 77.33 69.72 74.03 66.68 C 73.77 62.82 74.05 58.95 74.95 55.19 Z" />
</g>
</svg>
