<?xml version="1.0" encoding="utf-8"?>
<!-- Svg Vector Icons : http://www.onlinewebfonts.com/icon -->
<!DOCTYPE svg PUBLIC "-//W3C//DTD SVG 1.1//EN" "http://www.w3.org/Graphics/SVG/1.1/DTD/svg11.dtd">
<svg version="1.1" xmlns="http://www.w3.org/2000/svg" xmlns:xlink="http://www.w3.org/1999/xlink" x="0px" y="0px" viewBox="0 0 1000 1000" enable-background="new 0 0 1000 1000" xml:space="preserve" fill="red">
<g>
<path d="M83.9,10v881.6h234.7c0-25.3,0-46.9,0-69.5H153.4V79.5h556.2v417.1c22.1,0,47.4,0,69.5,0V10H83.9z"/>
<path d="M222.9,149.6h417.1v69.5H222.9V149.6z"/>
<path d="M222.9,288.6h417.1v69.5H222.9V288.6z"/>
<path d="M222.9,427.7h417.1v69.5H222.9V427.7L222.9,427.7z"/>
<path d="M510.2,897c-20.1,0-38.1-3.3-53.8-10s-29-15.8-39.9-27.5c-10.9-11.7-19.2-25.6-24.8-41.9c-5.7-16.2-8.5-34.1-8.5-53.5c0-19.2,2.9-36.8,8.5-53c5.7-16.2,13.9-30.1,24.8-41.9c10.8-11.7,24.2-20.9,39.9-27.5c15.7-6.6,33.6-9.9,53.8-9.9c20.1,0,38,3.3,53.8,9.9c15.7,6.6,29,15.8,39.9,27.5c10.8,11.7,19.2,25.7,24.8,41.9c5.7,16.2,8.5,33.9,8.5,53c0,19.5-2.8,37.3-8.5,53.5c-5.7,16.2-13.9,30.2-24.8,41.9c-10.9,11.7-24.2,20.9-39.9,27.5C548.3,893.7,530.4,897,510.2,897z M510.2,853.2c12.3,0,23-2.6,32.1-7.8c9.1-5.2,16.6-12,22.4-20.4c5.8-8.4,10.1-17.9,12.9-28.5c2.7-10.5,4.1-21.3,4.1-32.4c0-10.7-1.4-21.4-4.1-32.1c-2.8-10.7-7.1-20.2-12.9-28.5c-5.8-8.3-13.3-15-22.4-20.2c-9.1-5.2-19.8-7.8-32.1-7.8c-12.3,0-23,2.6-32.1,7.8c-9.1,5.2-16.5,11.9-22.4,20.2c-5.8,8.3-10.2,17.8-12.9,28.5c-2.8,10.7-4.1,21.4-4.1,32.1c0,11,1.4,21.8,4.1,32.4c2.7,10.6,7.1,20.1,12.9,28.5c5.8,8.4,13.3,15.2,22.4,20.4C487.2,850.6,497.9,853.2,510.2,853.2z"/>
<path d="M916.1,877.1c0,38-10.6,66.3-31.9,84.9c-21.2,18.6-51.8,28-91.7,28c-12.7,0-25.4-1.3-38.2-3.9c-12.8-2.6-24.5-7-35-13.1c-10.6-6.2-19.4-14.3-26.5-24.3c-7.2-10-11.4-22.4-12.7-37h55.5c1.6,7.8,4.4,14.1,8.3,19c3.9,4.9,8.5,8.7,13.9,11.4c5.3,2.7,11.3,4.6,17.8,5.3c6.5,0.8,13.3,1.2,20.4,1.2c22.4,0,38.8-5.5,49.2-16.5c10.4-11,15.5-26.9,15.5-47.7v-38.4h-0.9c-7.8,13.9-18.4,24.9-31.9,32.6c-13.5,7.8-28,11.7-43.6,11.7c-20.1,0-37.2-3.5-51.3-10.5c-14.1-7-25.8-16.6-35.1-28.7c-9.2-12.2-16-26.2-20.2-42.1c-4.2-15.9-6.3-32.9-6.3-51.1c0-16.9,2.6-32.9,7.8-48.2c5.2-15.2,12.7-28.6,22.4-40.1c9.7-11.5,21.7-20.7,35.8-27.5c14.1-6.8,30.1-10.2,47.9-10.2c15.9,0,30.5,3.3,43.8,9.9c13.3,6.6,23.5,17.1,30.7,31.4h0.9v-34.6h55.5L916.1,877.1L916.1,877.1z M793,846.4c12.3,0,22.8-2.5,31.4-7.5c8.6-5.1,15.6-11.7,21-20c5.4-8.3,9.2-17.7,11.7-28.2c2.4-10.5,3.6-21.1,3.6-31.9c0-10.7-1.3-21.1-3.9-31.1c-2.6-10-6.6-19-11.9-26.8c-5.4-7.8-12.3-13.9-21-18.5c-8.6-4.6-18.9-6.8-30.9-6.8c-12.3,0-22.7,2.6-31.1,7.8c-8.4,5.2-15.3,11.9-20.5,20.2s-8.9,17.7-11.2,28.2c-2.3,10.5-3.4,21-3.4,31.4c0,10.4,1.3,20.5,3.9,30.4c2.6,9.9,6.6,18.7,11.9,26.6c5.4,7.8,12.2,14.1,20.4,19C771.3,844,781.3,846.4,793,846.4z"/>
</g>
</svg>