<?xml version="1.0" encoding="UTF-8" ?>
<!DOCTYPE svg PUBLIC "-//W3C//DTD SVG 1.1//EN" "http://www.w3.org/Graphics/SVG/1.1/DTD/svg11.dtd">
<svg width="132pt" height="142pt" viewBox="0 0 132 142" version="1.1" xmlns="http://www.w3.org/2000/svg">
<g id="#ffffffff">
</g>
<g id="#101430ff">
<path fill="green" opacity="1.00" d=" M 2.33 0.00 L 27.68 0.00 C 27.69 17.20 27.68 34.40 27.68 51.60 C 61.38 51.66 95.07 51.59 128.76 51.64 C 128.78 80.91 128.77 110.19 128.77 139.47 C 120.34 139.51 111.91 139.49 103.48 139.48 C 103.43 118.65 103.49 97.81 103.45 76.98 C 78.20 76.96 52.95 76.96 27.69 76.98 C 27.64 97.82 27.75 118.67 27.64 139.51 C 19.21 139.47 10.78 139.50 2.35 139.49 C 2.31 93.00 2.34 46.50 2.33 0.00 Z" />
</g>
</svg>
