<?xml version="1.0" encoding="UTF-8" ?>
<!DOCTYPE svg PUBLIC "-//W3C//DTD SVG 1.1//EN" "http://www.w3.org/Graphics/SVG/1.1/DTD/svg11.dtd">
<svg width="141pt" height="144pt" viewBox="0 0 141 144" version="1.1" xmlns="http://www.w3.org/2000/svg">
<g id="#ffffffff">
</g>
<g id="#101430ff">
<path fill="gold" opacity="1.00" d=" M 0.00 49.02 C 15.58 33.24 31.34 17.63 47.00 1.93 C 52.38 7.29 57.75 12.65 63.10 18.03 C 56.19 24.99 49.23 31.90 42.31 38.85 C 51.44 47.99 60.56 57.14 69.72 66.25 C 78.85 57.19 87.87 48.01 97.05 39.00 C 90.38 31.79 83.18 25.07 76.32 18.03 C 81.67 12.66 87.05 7.31 92.40 1.93 C 107.87 17.39 123.31 32.88 138.73 48.39 C 139.31 59.15 138.94 70.04 139.15 80.85 C 130.51 72.24 121.88 63.62 113.28 54.98 C 104.07 64.04 95.00 73.25 85.84 82.36 C 100.30 96.91 114.85 111.37 129.33 125.90 C 123.98 131.28 118.61 136.63 113.24 142.00 C 98.72 127.51 84.23 112.99 69.72 98.49 C 55.20 112.98 40.71 127.51 26.19 142.00 C 20.82 136.64 15.45 131.27 10.09 125.90 C 24.58 111.38 39.11 96.89 53.59 82.36 C 44.49 73.23 35.33 64.16 26.27 54.99 C 17.35 63.43 9.09 72.56 0.00 80.82 L 0.00 49.02 Z" />
</g>
</svg>
