<?xml version="1.0" encoding="iso-8859-1"?>
<!-- Generator: Adobe Illustrator 19.0.0, SVG Export Plug-In . SVG Version: 6.00 Build 0)  -->
<svg version="1.1" id="Layer_1" xmlns="http://www.w3.org/2000/svg" xmlns:xlink="http://www.w3.org/1999/xlink" x="0px" y="0px"
	 viewBox="0 0 120 120" xml:space="preserve">
<g>
	<linearGradient id="SVGID_1_" gradientUnits="userSpaceOnUse" x1="60" y1="120" x2="60" y2="-1.796252e-009">
		<stop  offset="0" style="stop-color:#B3BEAD"/>
		<stop  offset="0" style="stop-color:#CAD2C3"/>
		<stop  offset="0" style="stop-color:#B6C4B7"/>
		<stop  offset="1" style="stop-color:#FFFFFF"/>
		<stop  offset="1" style="stop-color:#F0F4E8"/>
		<stop  offset="1" style="stop-color:#F9FCF1"/>
	</linearGradient>
	<path fill="url(#SVGID_1_)" d="M0,100c0,11.046,8.954,20,20,20h80c11.046,0,20-8.954,20-20V20c0-11.046-8.954-20-20-20H20
		C8.954,0,0,8.954,0,20V100z"/>
</g>
<g>
	<g>
		<path fill="#545454" d="M60.416,55.559c13.857,7.056,27.605,14.057,41.466,21.115c-2.213,1.259-4.326,2.466-6.445,3.664
			C85.01,86.234,74.582,92.127,64.154,98.02c-0.945,0.534-0.957,0.533-1.028-0.571c-0.309-4.78-0.624-9.559-0.9-14.341
			c-0.033-0.58-0.239-0.696-0.75-0.688c-1.529,0.022-3.06,0.022-4.589-0.001c-0.449-0.007-0.616,0.107-0.645,0.589
			c-0.214,3.555-0.458,7.108-0.699,10.662c-0.109,1.602-0.232,3.202-0.357,4.911c-12.93-7.315-25.767-14.578-38.74-21.917
			c13.891-7.074,27.695-14.103,41.576-21.172c-0.153,2.235-0.273,4.377-0.462,6.513c-0.059,0.671,0.006,1.017,0.796,0.928
			c0.592-0.067,1.202-0.053,1.797-0.002c0.638,0.054,0.778-0.147,0.72-0.79C60.681,59.997,60.569,57.847,60.416,55.559z
			 M59.195,77.692c0.539,0,1.086-0.06,1.614,0.013c0.892,0.124,1.108-0.209,1.039-1.073c-0.275-3.424-0.495-6.852-0.709-10.28
			c-0.026-0.422-0.134-0.575-0.565-0.562c-0.867,0.027-1.737,0.039-2.603-0.004c-0.537-0.027-0.629,0.196-0.649,0.672
			c-0.049,1.163-0.174,2.322-0.25,3.484c-0.154,2.355-0.282,4.711-0.454,7.064c-0.042,0.572,0.145,0.733,0.692,0.695
			C57.935,77.659,58.566,77.693,59.195,77.692z"/>
		<path fill="#01ADEE" d="M102.114,27.436c-2.655,1.582-5.311,3.161-7.964,4.745c-3.945,2.355-7.892,4.706-11.825,7.081
			c-0.464,0.28-0.714,0.343-1.05-0.186c-2.287-3.604-4.61-7.184-6.914-10.777c-0.417-0.651-0.248-1.025,0.469-1.026
			c9.076-0.007,18.152-0.005,27.227-0.005C102.076,27.324,102.095,27.38,102.114,27.436z"/>
		<path fill="#01ADEE" d="M16.538,27.268c9.062,0,17.867,0.001,26.673-0.002c0.717,0,0.858,0.242,0.463,0.861
			c-2.298,3.597-4.585,7.201-6.864,10.81c-0.202,0.319-0.335,0.5-0.749,0.246C29.632,35.248,23.194,31.327,16.538,27.268z"/>
		<path fill="#02ADEE" d="M56.622,51.589c-2.557-1.529-5.119-3.048-7.669-4.59c-3.702-2.239-7.386-4.51-11.102-6.725
			c-0.575-0.343-0.545-0.58-0.23-1.071c2.223-3.465,4.417-6.948,6.637-10.415c0.159-0.248,0.22-0.634,0.672-0.628
			c0.509,0.007,0.524,0.436,0.668,0.729c3.623,7.348,7.236,14.7,10.849,22.053c0.091,0.186,0.157,0.385,0.235,0.578
			C56.663,51.543,56.643,51.566,56.622,51.589z"/>
		<path fill="#02ADEE" d="M61.49,51.5c1.129-2.322,2.257-4.645,3.388-6.966c2.535-5.201,5.07-10.403,7.613-15.6
			c0.123-0.252,0.15-0.62,0.524-0.666c0.438-0.054,0.516,0.357,0.68,0.609c2.295,3.532,4.574,7.075,6.869,10.607
			c0.252,0.388,0.405,0.608-0.151,0.937c-6.271,3.707-12.521,7.448-18.777,11.18C61.587,51.567,61.539,51.534,61.49,51.5z"/>
		<path fill="#01ADEE" d="M102.939,26.387c-0.26,0-0.521,0-0.781,0c-8.993,0-17.986,0-26.979,0c-0.21,0-0.427,0.034-0.628-0.01
			c-0.417-0.092-0.703-0.271-0.448-0.786c1.609-3.261,3.22-6.521,4.799-9.796c0.268-0.556,0.551-0.367,0.923-0.196
			c5.033,2.317,10.069,4.629,15.106,6.941c2.677,1.229,5.355,2.455,8.032,3.682C102.954,26.276,102.947,26.331,102.939,26.387z"/>
		<path fill="#01ADEE" d="M103.498,73.534c-1.822-2.832-3.642-5.666-5.466-8.497c-2.54-3.941-5.082-7.881-7.624-11.821
			c-0.67-1.037-0.499-1.448,0.768-1.517c3.526-0.193,7.054-0.348,10.582-0.485c1.945-0.076,1.946-0.046,1.946,1.95
			c0,6.445,0,12.891,0,19.336c0,0.322,0,0.645,0,0.967C103.636,73.489,103.567,73.511,103.498,73.534z"/>
		<path fill="#01ADEE" d="M14.842,27.42c4.396,7.549,8.794,15.096,13.185,22.648c0.394,0.678,0.207,1.007-0.572,0.975
			c-4.065-0.163-8.128-0.353-12.193-0.515c-0.399-0.016-0.578-0.08-0.577-0.538c0.013-7.515,0.009-15.03,0.009-22.546
			C14.744,27.437,14.793,27.429,14.842,27.42z"/>
		<path fill="#01ADEE" d="M15.513,26.288c2.068-0.96,4.052-1.88,6.036-2.8c5.622-2.607,11.248-5.204,16.859-7.833
			c0.548-0.257,0.78-0.25,1.058,0.349c1.43,3.082,2.915,6.138,4.375,9.206c0.373,0.784,0.173,1.173-0.628,1.173
			c-9.143,0.006-18.286,0.003-27.429,0.001C15.734,26.383,15.685,26.349,15.513,26.288z"/>
		<path fill="#02ADEE" d="M58.151,52.347c-0.489-0.962-0.909-1.77-1.313-2.586c-3.501-7.078-6.998-14.157-10.497-21.235
			c-0.527-1.065-0.416-1.256,0.75-1.257c3.446-0.002,6.891,0.003,10.336-0.004c0.48-0.001,0.826-0.033,0.824,0.674
			c-0.027,7.999-0.017,15.999-0.019,23.999C58.232,52.012,58.204,52.087,58.151,52.347z"/>
		<path fill="#01ADEE" d="M103.559,27.979c0.225,0.327,0.141,0.605,0.141,0.863c0.005,6.808-0.01,13.616,0.023,20.424
			c0.004,0.822-0.22,1.044-1.047,1.072c-3.92,0.132-7.837,0.346-11.756,0.523c-0.255,0.011-0.596,0.152-0.749-0.099
			c-0.159-0.261,0.142-0.479,0.273-0.701c4.302-7.275,8.605-14.549,12.91-21.823C103.397,28.166,103.46,28.104,103.559,27.979z"/>
		<path fill="#02ADEE" d="M15.329,74.396c4.549-7.184,8.954-14.144,13.365-21.1c0.431-0.68,0.837-0.673,1.243,0.027
			c1.965,3.379,3.915,6.767,5.886,10.142c0.22,0.376,0.265,0.553-0.2,0.785C28.938,67.576,22.263,70.925,15.329,74.396z"/>
		<path fill="#02ADEE" d="M57.272,53.403c-3.967,1.98-7.936,3.957-11.902,5.941c-2.636,1.318-5.274,2.634-7.896,3.98
			c-0.454,0.233-0.665,0.227-0.94-0.253c-1.96-3.414-3.955-6.809-5.932-10.213c-0.125-0.215-0.372-0.419-0.145-0.723
			c0.154-0.207,0.354-0.176,0.565-0.165c5.256,0.257,10.513,0.512,15.77,0.767c3.482,0.169,6.964,0.339,10.445,0.508
			C57.249,53.298,57.261,53.35,57.272,53.403z"/>
		<path fill="#02ADEE" d="M61.268,53.222c5.075-0.252,10.151-0.502,15.226-0.758c3.555-0.179,7.111-0.363,10.666-0.549
			c0.71-0.037,0.988,0.332,0.63,0.937c-2.021,3.417-4.072,6.816-6.088,10.236c-0.334,0.567-0.628,0.219-0.946,0.06
			c-5.159-2.576-10.316-5.156-15.474-7.734c-1.355-0.677-2.711-1.352-4.066-2.028C61.233,53.331,61.25,53.277,61.268,53.222z"/>
		<path fill="#01ADEE" d="M14.694,73.845c0-3.098,0-5.938,0-8.778c0-4.286,0.02-8.572-0.019-12.857
			c-0.007-0.714,0.221-0.831,0.858-0.803c3.313,0.145,6.628,0.25,9.943,0.37c0.626,0.023,1.254,0.027,1.877,0.083
			c0.942,0.085,1.039,0.297,0.535,1.098c-2.177,3.462-4.353,6.924-6.537,10.382C19.184,66.769,17.009,70.193,14.694,73.845z"/>
		<path fill="#02ADEE" d="M102.706,74.072c-0.22-0.082-0.449-0.144-0.657-0.248c-6.34-3.17-12.672-6.356-19.024-9.503
			c-0.688-0.341-0.735-0.601-0.352-1.234c1.962-3.24,3.882-6.506,5.803-9.771c0.347-0.59,0.59-0.639,0.986-0.022
			c4.371,6.805,8.759,13.599,13.144,20.394c0.082,0.127,0.177,0.243,0.086,0.403L102.706,74.072z"/>
		<path fill="#01ADEE" d="M60.227,52.19c0-0.252,0-0.503,0-0.755c0-7.728,0.016-15.457-0.022-23.185
			c-0.004-0.859,0.263-1.009,1.043-0.999c3.205,0.042,6.41,0.015,9.615,0.019c1.014,0.001,1.317,0.453,0.895,1.329
			c-3.707,7.703-7.416,15.405-11.125,23.107c-0.084,0.174-0.173,0.345-0.26,0.517C60.325,52.212,60.276,52.201,60.227,52.19z"/>
		<path fill="#02ADEE" d="M102.301,28.445c-2.049,3.454-4.096,6.91-6.147,10.363c-2.119,3.567-4.242,7.131-6.364,10.697
			c-0.557,0.936-1.135,0.968-1.706,0.087c-1.866-2.884-3.723-5.773-5.596-8.652c-0.257-0.395-0.407-0.633,0.149-0.962
			c6.525-3.854,13.032-7.737,19.544-11.613C102.221,28.392,102.261,28.418,102.301,28.445z"/>
		<path fill="#02ADEE" d="M16.404,28.195c2.57,1.557,5.143,3.109,7.71,4.671c3.699,2.249,7.38,4.527,11.103,6.736
			c0.744,0.441,0.715,0.743,0.288,1.398c-1.858,2.851-3.658,5.741-5.483,8.614c-0.449,0.706-0.871,0.758-1.238,0.13
			c-4.17-7.136-8.331-14.277-12.494-21.416C16.327,28.283,16.365,28.239,16.404,28.195z"/>
		<path fill="#02ADEE" d="M56.343,52.505c-4.554-0.231-8.825-0.448-13.095-0.664c-3.405-0.172-6.81-0.343-10.215-0.516
			c-0.567-0.029-1.134-0.062-1.7-0.104c-0.306-0.023-0.639,0.109-0.842-0.318c-0.179-0.376,0.072-0.574,0.214-0.8
			c1.706-2.7,3.425-5.392,5.144-8.084c0.918-1.436,0.924-1.438,2.414-0.533c5.815,3.53,11.628,7.063,17.442,10.596
			C55.848,52.169,55.984,52.266,56.343,52.505z"/>
		<path fill="#02ADEE" d="M62.305,52.097c1.709-1.019,3.541-2.111,5.372-3.202c4.329-2.581,8.662-5.153,12.98-7.752
			c0.527-0.317,0.793-0.336,1.159,0.248c1.853,2.959,3.762,5.883,5.642,8.824c0.135,0.211,0.455,0.406,0.274,0.697
			c-0.162,0.261-0.493,0.128-0.747,0.141c-6.656,0.353-13.312,0.713-19.97,1.032C65.422,52.162,63.821,52.097,62.305,52.097z"/>
		<path fill="#02ADEE" d="M58.234,7.541c0,0.435,0,0.781,0,1.127c0,5.578-0.013,11.155,0.016,16.732
			c0.004,0.74-0.104,1.026-0.953,1.011c-3.417-0.059-6.837-0.021-10.255-0.031c-0.276-0.001-0.613,0.144-0.818-0.19
			c-0.206-0.337,0.06-0.575,0.212-0.809c3.833-5.881,7.674-11.756,11.517-17.631C57.993,7.688,58.078,7.655,58.234,7.541z"/>
		<path fill="#02ADEE" d="M61.409,7.146c2.088,0.951,4.193,1.902,6.291,2.868c3.356,1.545,6.703,3.112,10.067,4.639
			c0.478,0.217,0.576,0.357,0.326,0.861c-1.571,3.179-3.097,6.379-4.644,9.57c-0.353,0.728-0.695,0.766-1.099,0.111
			c-3.64-5.891-7.273-11.786-10.908-17.68C61.385,7.422,61.272,7.339,61.409,7.146z"/>
		<path fill="#02ADEE" d="M57.212,7.17c-1.804,2.81-3.599,5.626-5.415,8.428c-2.029,3.132-4.075,6.254-6.122,9.375
			c-0.134,0.204-0.175,0.528-0.546,0.506c-0.356-0.021-0.412-0.318-0.52-0.546c-1.483-3.121-2.954-6.248-4.438-9.369
			c-0.168-0.352-0.301-0.591,0.202-0.821c5.578-2.553,11.145-5.128,16.716-7.697C57.129,7.088,57.17,7.13,57.212,7.17z"/>
		<path fill="#01ADEE" d="M60.383,7.746c3.568,5.689,7.14,11.375,10.696,17.072c0.273,0.437,0.906,0.894,0.652,1.366
			c-0.263,0.488-0.991,0.187-1.508,0.191c-3.088,0.028-6.176,0.02-9.264,0.028c-0.392,0.001-0.746,0.078-0.744-0.554
			c0.021-6.02,0.012-12.04,0.012-18.059C60.279,7.775,60.331,7.76,60.383,7.746z"/>
		<path fill="#3F3F3F" d="M61.357,106.74c1.66,1.206,1.639,4.732-0.014,5.869c-0.351,0.242-0.738,0.364-1.179,0.361
			c-2.008-0.012-4.016,0.008-6.024-0.007c-1.094-0.008-1.629-0.496-1.639-1.582c-0.028-3.027-0.028-6.054-0.001-9.081
			c0.01-1.135,0.604-1.68,1.751-1.691c1.798-0.017,3.597-0.029,5.395,0.003c1.539,0.028,2.284,0.666,2.65,2.161
			C62.682,104.347,62.4,105.588,61.357,106.74z M57.176,107.388c-0.869,0-1.738,0.026-2.605-0.01
			c-0.5-0.021-0.686,0.121-0.666,0.645c0.039,0.987,0.036,1.977,0.001,2.964c-0.019,0.538,0.146,0.738,0.704,0.726
			c1.437-0.031,2.875-0.007,4.313-0.01c1.79-0.003,2.333-0.597,2.182-2.395c-0.02-0.237-0.11-0.469-0.125-0.706
			c-0.055-0.872-0.616-1.179-1.379-1.208C58.794,107.364,57.985,107.388,57.176,107.388z M57.079,106.111
			c0.747,0,1.494,0.004,2.241-0.001c1.111-0.007,1.515-0.36,1.612-1.458c0.039-0.445,0.043-0.899-0.001-1.343
			c-0.102-1.006-0.516-1.42-1.478-1.435c-1.613-0.025-3.227,0.002-4.841-0.013c-0.473-0.004-0.718,0.126-0.703,0.657
			c0.028,1.015,0.026,2.032-0.001,3.047c-0.012,0.442,0.156,0.563,0.572,0.551C55.346,106.094,56.213,106.11,57.079,106.111z"/>
		<path fill="#3F3F3F" d="M29.995,108.762c0,0.96,0.013,1.92-0.004,2.879c-0.016,0.938-0.382,1.312-1.305,1.322
			c-1.379,0.015-2.759,0.017-4.138-0.002c-1.107-0.015-1.822-0.564-2.091-1.608c-0.142-0.549-0.23-1.113-0.19-1.69
			c0.119-1.69,0.948-2.48,2.636-2.487c1.05-0.004,2.1-0.015,3.149,0.007c0.423,0.009,0.561-0.129,0.583-0.562
			c0.076-1.484-0.224-1.836-1.679-1.838c-1.14-0.001-2.28-0.025-3.418,0.012c-0.526,0.017-0.582-0.232-0.572-0.652
			c0.009-0.392-0.001-0.687,0.551-0.673c1.379,0.035,2.761-0.032,4.138,0.025c1.553,0.064,2.321,0.915,2.34,2.478
			C30.004,106.903,29.995,107.833,29.995,108.762z M26.394,111.705c0-0.02,0-0.04,0-0.059c0.715,0,1.662,0.279,2.086-0.072
			c0.509-0.422,0.115-1.406,0.178-2.143c0.01-0.119-0.013-0.241,0.004-0.359c0.079-0.534-0.18-0.658-0.669-0.642
			c-0.957,0.031-1.915,0.007-2.873,0.01c-1.134,0.003-1.413,0.305-1.424,1.534c-0.013,1.355,0.293,1.723,1.441,1.731
			C25.556,111.707,25.975,111.705,26.394,111.705z"/>
		<path fill="#3F3F3F" d="M73.728,108.79c0,0.93,0.01,1.86-0.003,2.789c-0.013,0.995-0.374,1.375-1.34,1.385
			c-1.379,0.014-2.759,0.015-4.139-0.004c-1.027-0.014-1.746-0.527-2.028-1.46c-0.199-0.66-0.287-1.348-0.207-2.042
			c0.178-1.558,0.979-2.272,2.555-2.281c1.02-0.006,2.04-0.022,3.059,0.009c0.51,0.016,0.747-0.082,0.747-0.676
			c0-1.442-0.244-1.725-1.706-1.726c-1.11-0.001-2.22-0.028-3.329,0.013c-0.539,0.02-0.64-0.189-0.648-0.675
			c-0.009-0.522,0.171-0.662,0.672-0.65c1.259,0.031,2.519-0.004,3.779,0.014c1.757,0.025,2.576,0.858,2.587,2.605
			C73.733,106.99,73.728,107.89,73.728,108.79z M70.146,108.409c0,0.01-0.001,0.02-0.001,0.031c-0.509,0-1.021,0.028-1.527-0.007
			c-0.718-0.05-1.071,0.329-1.152,0.971c-0.056,0.44-0.051,0.904,0.021,1.341c0.103,0.62,0.438,1.004,1.162,0.971
			c0.927-0.042,1.862-0.072,2.784,0.008c0.821,0.071,1.07-0.222,0.968-0.998c-0.096-0.734,0.318-1.715-0.173-2.15
			C71.812,108.206,70.86,108.441,70.146,108.409z"/>
		<path fill="#3F3F3F" d="M104.706,108.799c-0.749,0-1.502,0.039-2.247-0.013c-0.59-0.041-0.691,0.191-0.667,0.722
			c0.065,1.444,0.794,2.191,2.235,2.196c1.259,0.004,2.519,0.021,3.777-0.01c0.491-0.012,0.616,0.176,0.608,0.629
			c-0.008,0.42-0.058,0.668-0.581,0.657c-1.528-0.032-3.059,0.022-4.586-0.03c-1.481-0.05-2.598-1.19-2.819-2.983
			c-0.153-1.241-0.19-2.512,0.117-3.754c0.381-1.54,1.441-2.439,3.018-2.634c0.689-0.085,1.361-0.081,2.051-0.002
			c2.351,0.27,3.088,2.163,3.004,3.77c-0.052,0.999-0.55,1.426-1.572,1.449C106.265,108.813,105.485,108.799,104.706,108.799z
			 M104.457,107.536c0.719,0,1.439-0.005,2.158,0.002c0.331,0.003,0.567-0.031,0.592-0.466c0.058-1.002-0.715-2.046-1.709-2.218
			c-0.591-0.102-1.179-0.14-1.785-0.035c-1.193,0.207-1.91,1.02-1.915,2.206c-0.002,0.379,0.097,0.534,0.501,0.518
			C103.017,107.516,103.737,107.537,104.457,107.536z"/>
		<path fill="#3F3F3F" d="M46.517,108.8c-0.779,0-1.56,0.025-2.337-0.009c-0.501-0.022-0.598,0.195-0.58,0.639
			c0.067,1.624,0.715,2.272,2.326,2.275c1.139,0.002,2.278,0.008,3.417-0.004c0.467-0.005,0.852-0.07,0.836,0.656
			c-0.014,0.666-0.356,0.618-0.794,0.615c-1.289-0.009-2.578,0.002-3.866-0.004c-1.691-0.009-2.886-0.887-3.204-2.539
			c-0.288-1.5-0.302-3.037,0.114-4.529c0.213-0.764,0.671-1.385,1.384-1.807c1.679-0.994,4.484-0.741,5.69,0.51
			c0.742,0.769,0.953,1.709,0.886,2.715c-0.071,1.065-0.549,1.466-1.625,1.48C48.016,108.808,47.266,108.8,46.517,108.8z
			 M46.308,107.536c0.508,0,1.016,0,1.524,0c1.261,0,1.446-0.281,0.94-1.466c-0.286-0.669-0.763-1.115-1.514-1.228
			c-0.593-0.089-1.177-0.131-1.778-0.022c-1.06,0.192-1.658,0.829-1.83,1.883c-0.111,0.682,0.083,0.912,0.776,0.845
			C45.049,107.489,45.681,107.536,46.308,107.536z"/>
		<path fill="#3F3F3F" d="M91.899,106.717c0-1.799,0.015-3.599-0.01-5.397c-0.007-0.51,0.072-0.764,0.674-0.742
			c0.533,0.019,0.8,0.154,0.718,0.718c-0.004,0.029-0.001,0.06-0.001,0.09c0.036,2.091,0.036,2.091,2.106,2.091
			c3.386,0,4.08,0.702,4.08,4.122c0,1.589-0.024,3.179,0.012,4.768c0.013,0.566-0.241,0.62-0.698,0.617
			c-0.455-0.003-0.718-0.053-0.707-0.621c0.033-1.769,0.014-3.538,0.012-5.307c-0.003-1.926-0.339-2.266-2.226-2.266
			c-0.63,0-1.262,0.032-1.888-0.01c-0.57-0.039-0.707,0.197-0.702,0.728c0.024,2.219,0.003,4.438,0.016,6.657
			c0.003,0.491,0.014,0.841-0.683,0.833c-0.64-0.007-0.721-0.258-0.713-0.793C91.914,110.376,91.899,108.546,91.899,106.717z"/>
		<path fill="#3F3F3F" d="M18.276,112.911c-0.988,0-1.999,0.135-2.96-0.028c-2.095-0.356-3.455-1.782-3.78-3.994
			c-0.207-1.414-0.237-2.869,0.064-4.29c0.537-2.534,2.108-3.892,4.667-3.985c1.497-0.055,2.998,0.007,4.497-0.021
			c0.487-0.009,0.611,0.166,0.604,0.623c-0.006,0.452-0.046,0.718-0.618,0.701c-1.348-0.04-2.699-0.045-4.047-0.005
			c-2.221,0.066-3.338,0.95-3.71,3.108c-0.227,1.319-0.257,2.684,0.063,4.014c0.398,1.654,1.555,2.608,3.259,2.649
			c1.528,0.036,3.058,0.035,4.587,0.01c0.503-0.008,0.662,0.136,0.668,0.65c0.005,0.541-0.203,0.651-0.685,0.633
			c-0.868-0.032-1.739-0.009-2.608-0.009C18.276,112.949,18.276,112.93,18.276,112.911z"/>
		<path fill="#3F3F3F" d="M74.982,108.53c0-1.229,0.015-2.458-0.005-3.686c-0.014-0.849,0.404-1.335,1.215-1.345
			c1.404-0.017,2.816-0.141,4.215,0.082c1.31,0.209,2.101,1.034,2.13,2.371c0.047,2.157-0.006,4.315,0.026,6.473
			c0.008,0.555-0.273,0.552-0.666,0.553c-0.416,0-0.75,0.028-0.739-0.582c0.033-1.917,0.02-3.836,0.011-5.754
			c-0.007-1.514-0.346-1.843-1.861-1.852c-0.749-0.004-1.5,0.03-2.247-0.011c-0.563-0.031-0.713,0.185-0.707,0.724
			c0.025,2.217,0.005,4.435,0.015,6.653c0.002,0.48,0.034,0.836-0.671,0.845c-0.735,0.009-0.732-0.345-0.722-0.874
			C74.998,110.927,74.982,109.728,74.982,108.53z"/>
		<path fill="#3F3F3F" d="M88.47,112.924c-0.748,0-1.513,0.101-2.241-0.021c-1.48-0.247-2.448-1.397-2.711-3.165
			c-0.177-1.189-0.144-2.396,0.141-3.57c0.396-1.625,1.62-2.544,3.594-2.671c1.015-0.065,2.038,0.011,3.055-0.025
			c0.578-0.021,0.513,0.331,0.521,0.697c0.007,0.36,0.001,0.642-0.502,0.624c-0.898-0.031-1.798-0.016-2.696-0.008
			c-1.736,0.016-2.474,0.62-2.689,2.326c-0.116,0.916-0.133,1.849,0.073,2.77c0.258,1.151,0.924,1.767,2.098,1.805
			c1.108,0.036,2.218,0.042,3.325,0.006c0.515-0.016,0.584,0.206,0.578,0.635c-0.005,0.413-0.04,0.684-0.569,0.65
			c-0.657-0.042-1.318-0.01-1.977-0.01C88.47,112.953,88.47,112.938,88.47,112.924z"/>
		<path fill="#3F3F3F" d="M37.536,108.136c0-0.899-0.026-1.799,0.01-2.696c0.02-0.507-0.141-0.736-0.656-0.656
			c-0.56,0.087-0.624-0.223-0.627-0.685c-0.003-0.455,0.119-0.693,0.604-0.616c0.591,0.094,0.716-0.208,0.677-0.725
			c-0.036-0.477,0.022-0.961-0.016-1.437c-0.042-0.524,0.094-0.743,0.68-0.74c0.57,0.003,0.623,0.255,0.614,0.709
			c-0.013,0.685-0.217,1.547,0.114,2.009c0.364,0.508,1.277,0.148,1.947,0.17c0.543,0.018,0.44,0.362,0.449,0.676
			c0.01,0.334,0.054,0.699-0.473,0.639c-0.03-0.003-0.06-0.002-0.09,0c-0.621,0.044-1.453-0.277-1.811,0.126
			c-0.421,0.474-0.122,1.317-0.139,1.999c-0.023,0.958-0.01,1.917-0.005,2.876c0.009,1.741,0.156,1.892,1.877,1.916
			c0.394,0.005,0.773-0.075,0.769,0.554c-0.003,0.527-0.112,0.789-0.695,0.72c-0.384-0.045-0.778-0.003-1.167-0.019
			c-1.242-0.052-1.977-0.779-2.046-2.034c-0.026-0.478-0.013-0.958-0.016-1.438C37.534,109.035,37.536,108.586,37.536,108.136z"/>
		<path fill="#3F3F3F" d="M65.102,106.791c0,1.828-0.022,3.657,0.013,5.485c0.011,0.556-0.149,0.71-0.702,0.71
			c-0.572,0.001-0.608-0.26-0.606-0.711c0.013-3.657,0.018-7.314-0.004-10.97c-0.003-0.545,0.143-0.717,0.701-0.719
			c0.579-0.002,0.609,0.275,0.606,0.719C65.093,103.134,65.102,104.963,65.102,106.791z"/>
		<path fill="#3F3F3F" d="M31.609,109.278c0-0.958-0.018-1.917,0.004-2.875c0.045-1.97,1.737-3.293,3.674-2.929
			c0.453,0.085,0.393,0.369,0.393,0.659c0,0.29,0.058,0.571-0.394,0.658c-2.302,0.442-2.397,0.576-2.397,2.945
			c0,1.527-0.018,3.055,0.011,4.582c0.01,0.503-0.131,0.674-0.65,0.668c-0.495-0.006-0.683-0.132-0.664-0.653
			c0.037-1.017,0.011-2.036,0.011-3.054C31.601,109.278,31.605,109.278,31.609,109.278z"/>
		<path fill="#02ADEE" d="M57.089,7.045C57.156,7.03,57.223,7.015,57.29,7c-0.026,0.057-0.052,0.114-0.078,0.17
			C57.17,7.13,57.129,7.088,57.089,7.045z"/>
		<path fill="#02ADEE" d="M56.683,51.52c0.023,0.058,0.046,0.117,0.069,0.175c-0.106,0.041-0.112-0.039-0.129-0.106
			C56.643,51.566,56.663,51.543,56.683,51.52z"/>
		<path fill="#02ADEE" d="M102.691,74.092c0.058-0.066,0.108-0.06,0.135,0.021c0.008,0.023-0.013,0.056-0.021,0.084
			c-0.033-0.042-0.067-0.083-0.1-0.125C102.706,74.072,102.691,74.092,102.691,74.092z"/>
	</g>
</g>
</svg>
