<?xml version="1.0" encoding="iso-8859-1"?>
<!-- Generator: Adobe Illustrator 19.0.0, SVG Export Plug-In . SVG Version: 6.00 Build 0)  -->
<svg version="1.1" id="Layer_1" xmlns="http://www.w3.org/2000/svg" xmlns:xlink="http://www.w3.org/1999/xlink" x="0px" y="0px"
	 viewBox="0 0 120 120" xml:space="preserve">
<g>
	<g>
		<path fill="#124191" d="M0,105c0,8.284,6.716,15,15,15h90c8.284,0,15-6.716,15-15V15c0-8.284-6.716-15-15-15H15
			C6.716,0,0,6.716,0,15V105z"/>
	</g>
	<path fill="#FFFFFF" d="M81.496,68.957l7.896-7.831l-8.533-8.459c-6.941-6.883-4.906-10.544-3.313-12.123
		c1.021-1.011,2.036-1.768,2.742-2.147c0.953,1.832,2.226,3.598,3.815,5.113c8.28,8.272,17.324,7.134,24.271,0.194
		c4.141-4.108,6.113-7.896,6.623-9.792l-6.813-3.727c-0.83,1.77-2.74,4.802-4.904,6.948c-3.76,3.788-7.325,3.788-9.745,1.833
		l14.202-14.02l-1.782-1.768c-8.347-8.337-16.116-8.777-23.12-1.83c-4.65,4.608-5.288,10.291-3.252,15.468l-5.223-6.123
		c-0.508,0.188-1.463,0.945-2.418,1.892c-2.738,2.78-3.377,7.072-2.676,9.914l-3.504-2.967l-6.944,6.884l9.554,9.471
		c-7.579-6.189-14.396-5.874-20.698,0.376c-6.372,6.317-5.988,14.02-0.702,20.459l-0.894-0.887
		c-5.667-5.621-11.146-6.814-16.56-1.388c-3.185,3.097-3.693,6.125-3.374,8.839L12.77,70.093L5,77.798L30.858,103.5h15.797
		L35.764,92.701c-3.821-3.727-4.967-6.315-2.611-8.653c1.721-1.769,3.693-1.704,6.114,0.695l13.12,13.069l7.9-7.83l-9.809-9.726
		c7.771,6.382,16.243,4.8,22.674-1.641c3.375-3.284,5.224-6.315,6.117-8.4l-6.944-3.849c-1.019,1.768-2.55,3.979-4.205,5.683
		c-3.822,3.787-7.39,3.787-9.808,1.83l14.079-13.953L81.496,68.957z M53.345,69.59c-2.167-2.464-2.23-5.363,0-7.578
		c2.166-2.146,4.967-2.208,7.706,0L53.345,69.59z M88.566,34.67c-2.168-2.46-2.229-5.304,0-7.577c2.166-2.148,4.97-2.209,7.645,0
		L88.566,34.67z"/>
</g>
</svg>
