<?xml version="1.0" encoding="iso-8859-1"?>
<!-- Generator: Adobe Illustrator 19.0.0, SVG Export Plug-In . SVG Version: 6.00 Build 0)  -->
<svg version="1.1" id="Layer_1" xmlns="http://www.w3.org/2000/svg" xmlns:xlink="http://www.w3.org/1999/xlink" x="0px" y="0px"
	 viewBox="0 0 120 120" xml:space="preserve">
<g>
	<linearGradient id="SVGID_1_" gradientUnits="userSpaceOnUse" x1="60" y1="119" x2="60" y2="1">
		<stop  offset="0" style="stop-color:#B1BCAC"/>
		<stop  offset="0" style="stop-color:#C8D0C1"/>
		<stop  offset="0" style="stop-color:#A8B9AC"/>
		<stop  offset="0.1804" style="stop-color:#B7C5BA"/>
		<stop  offset="0.6" style="stop-color:#DBE1DC"/>
		<stop  offset="1" style="stop-color:#F8FAF0"/>
		<stop  offset="1" style="stop-color:#F3F5F4"/>
		<stop  offset="1" style="stop-color:#FFFFFF"/>
		<stop  offset="1" style="stop-color:#EFF2E7"/>
	</linearGradient>
	<path fill="url(#SVGID_1_)" d="M1,93c0,14.359,11.641,26,26,26h66c14.359,0,26-11.641,26-26V27c0-14.359-11.641-26-26-26H27
		C12.641,1,1,12.641,1,27V93z"/>
</g>
<g>
	<g>
		<path fill="#0A0A0A" d="M53.056,56.6c6.55-6.165,11.434-13.311,15.037-21.398c0.083,5.877-1.76,11.327-3.666,17.381
			c5.104-2.396,7.809-5.987,8.786-10.812c1.593-7.866-3.573-15.42-11.606-17.246c-7.572-1.721-15.508,3.366-17.352,11.121
			c-0.643,2.703-0.502,2.845,2.29,2.483c5.216-0.675,10.249-1.883,14.664-4.934c0.455-0.314,0.941-0.312,1.739-0.04
			c-5.747,5.874-11.7,11.127-19.561,13.774c-1.304,0.439-1.598-0.166-1.997-1.112C36.849,35.06,44.324,22.209,56,20.728
			c9.951-1.262,19.034,5.086,20.86,14.58c1.915,9.959-3.987,19.226-13.931,21.758C59.705,57.888,56.466,57.842,53.056,56.6z"/>
		<path fill="#0A0A0A" d="M22.843,65.067c3.773,8.919,7.387,17.462,11.236,26.563c3.88-9.153,7.511-17.719,11.354-26.786
			c0.849,4.249,1.617,8.033,2.361,11.823c1.262,6.43,2.549,12.856,3.701,19.306c0.118,0.661,1.277,2.102-0.638,2.289
			c-1.281,0.125-2.478,0.307-2.805-1.714c-1.011-6.239-2.275-12.437-3.443-18.651c-0.067-0.356,0.015-0.794-0.797-1.044
			c-3.189,7.405-6.391,14.842-9.723,22.579c-3.331-7.701-6.555-15.154-9.779-22.606c-0.19,0.017-0.379,0.035-0.569,0.052
			c-0.917,4.865-1.838,9.728-2.751,14.594c-0.327,1.745-0.742,3.483-0.917,5.245c-0.118,1.194-0.583,1.529-1.729,1.602
			c-1.758,0.112-2.194-0.228-1.791-2.172c2.064-9.967,3.922-19.976,5.858-29.97C22.454,65.965,22.569,65.767,22.843,65.067z"/>
		<path fill="#0A0A0A" d="M54.047,98.033c4.798-11.015,9.581-21.997,14.531-33.36c4.95,11.31,9.768,22.319,14.613,33.39
			c-3.808,0.501-3.788,0.493-5.131-2.693c-0.986-2.34-1.45-5.407-3.213-6.771c-1.793-1.388-4.952-0.05-7.441-0.458
			c-4.02-0.658-6.408,0.699-7.234,4.758c-0.18,0.884-0.868,1.659-1.076,2.543C58.466,98.113,56.843,98.852,54.047,98.033z
			 M68.588,72.69c-1.771,4.099-3.33,7.662-4.845,11.244c-0.343,0.811-0.088,1.288,0.924,1.273c2.692-0.04,5.386-0.011,8.078-0.022
			c0.727-0.003,1.222-0.16,0.812-1.09C71.958,80.474,70.391,76.838,68.588,72.69z"/>
		<path fill="#0A0A0A" d="M82.626,38.94c0-5.237,0.07-10.476-0.042-15.71c-0.034-1.591,0.407-2.065,1.965-1.969
			c3.531,0.217,7.109-0.377,10.603,0.37c5.284,1.129,7.621,4.614,7.216,10.453c-0.35,5.054-3.43,8.108-8.647,8.468
			c-1.767,0.122-3.551,0.147-5.318,0.045c-1.466-0.084-1.879,0.452-1.85,1.875c0.082,4.053-0.05,8.111,0.066,12.162
			c0.048,1.676-0.459,2.16-2.13,2.159c-1.692,0-1.923-0.717-1.906-2.142c0.062-5.236,0.025-10.474,0.025-15.711
			C82.613,38.94,82.619,38.94,82.626,38.94z M86.588,30.871c0,7.12,0.079,7.182,7.273,5.691c0.082-0.017,0.168-0.012,0.251-0.027
			c2.498-0.471,3.742-2.07,4.012-4.51c0.483-4.369-1.5-6.42-6.798-7.063c-4.74-0.575-4.74-0.575-4.738,4.142
			C86.589,29.693,86.588,30.282,86.588,30.871z"/>
		<path fill="#0A0A0A" d="M86.841,81.968c0-4.875-0.013-9.75,0.018-14.625c0.004-0.58-0.429-1.568,0.782-1.523
			c3.929,0.143,7.911-0.518,11.776,0.553c3.655,1.013,5.7,4.383,5.578,8.871c-0.11,4.019-2.483,6.971-6.206,7.896
			c-2.146,0.533-4.311,0.408-6.463,0.348c-1.396-0.039-1.886,0.297-1.844,1.778c0.106,3.711-0.064,7.431,0.072,11.14
			c0.062,1.691-0.686,1.839-2.052,1.918c-1.63,0.094-1.692-0.723-1.68-1.963C86.869,91.564,86.841,86.766,86.841,81.968z
			 M90.457,75.062c0.679,1.424-1.314,4.028,0.859,5.004c1.657,0.744,3.955,0.313,5.93-0.213c0.224-0.06,0.455-0.097,0.676-0.163
			c1.732-0.52,2.684-1.671,2.965-3.47c0.729-4.665-1.335-6.871-6.7-7.095c-3.73-0.155-3.73-0.155-3.73,3.496
			C90.457,73.317,90.457,74.013,90.457,75.062z"/>
		<path fill="#0A0A0A" d="M25.142,40.977c0-4.384-0.151-8.775,0.061-13.149c0.114-2.353-0.702-2.912-2.851-2.708
			c-1.922,0.182-3.88-0.048-5.812,0.068c-1.837,0.11-1.434-1.107-1.519-2.154c-0.097-1.196,0.109-1.799,1.575-1.782
			c6.997,0.079,13.995,0.072,20.992,0.002c1.408-0.014,1.741,0.5,1.633,1.761c-0.092,1.07,0.257,2.252-1.551,2.166
			c-2.187-0.104-4.39,0.087-6.573-0.053c-1.627-0.105-1.936,0.506-1.925,2.011c0.069,9.02,0.026,18.042,0.042,27.063
			c0.003,1.396,0.197,2.572-1.961,2.608c-2.254,0.037-2.145-1.145-2.128-2.681C25.172,49.746,25.142,45.361,25.142,40.977z"/>
		<path fill="#14469A" d="M66.619,32.555c-1.867,6.122-5.411,11.068-9.671,15.564c-3.028,3.196-6.39,5.991-9.966,8.554
			c-0.934,0.669-1.545,0.686-2.402-0.065c-1.649-1.446-3.229-2.929-4.497-5.099C51.334,48.421,59.029,40.587,66.619,32.555z"/>
	</g>
</g>
</svg>
