<?xml version="1.0" encoding="iso-8859-1"?>
<!-- Generator: Adobe Illustrator 17.1.0, SVG Export Plug-In . SVG Version: 6.00 Build 0)  -->
<!DOCTYPE svg PUBLIC "-//W3C//DTD SVG 1.1//EN" "http://www.w3.org/Graphics/SVG/1.1/DTD/svg11.dtd">
<svg version="1.1" xmlns="http://www.w3.org/2000/svg" xmlns:xlink="http://www.w3.org/1999/xlink" x="0px" y="0px" width="120px"
	 height="120px" viewBox="0 0 120 120" xml:space="preserve">
<g id="Layer_2" display="none">
	<circle display="inline" opacity="0.5" fill="#DF1F26" cx="60" cy="60" r="60"/>
	<rect x="6.5" y="6.5" display="inline" opacity="0.5" fill="#3B4FA1" width="107" height="107"/>
</g>
<g id="normal">
	<path fill-rule="evenodd" clip-rule="evenodd" fill="#3A3A3A" d="M110.507,35.284L49.484,96.911
		c-0.461,0.849-1.002,1.667-1.716,2.387c-2.121,2.143-4.937,3.145-7.715,3.032c-2.672,0.045-5.359-0.955-7.399-3.015
		c-0.64-0.648-1.141-1.376-1.575-2.132L9.522,75.422c-4.03-4.069-4.03-10.665,0-14.734c4.03-4.069,10.564-4.069,14.595,0
		L40.285,77.01l55.773-56.327c3.991-4.031,10.459-4.031,14.449,0C114.498,24.715,114.498,31.252,110.507,35.284L110.507,35.284z"/>
</g>
<g id="active">
	<path fill-rule="evenodd" clip-rule="evenodd" fill="#3A3A3A" d="M110.507,35.284L49.484,96.911
		c-0.461,0.849-1.002,1.667-1.716,2.387c-2.121,2.143-4.937,3.145-7.715,3.032c-2.672,0.045-5.359-0.955-7.399-3.015
		c-0.64-0.648-1.141-1.376-1.575-2.132L9.522,75.422c-4.03-4.069-4.03-10.665,0-14.734c4.03-4.069,10.564-4.069,14.595,0
		L40.285,77.01l55.773-56.327c3.991-4.031,10.459-4.031,14.449,0C114.498,24.715,114.498,31.252,110.507,35.284L110.507,35.284z"/>
</g>
<g id="disabled" opacity="0.2">
	<path fill-rule="evenodd" clip-rule="evenodd" fill="#3A3A3A" d="M110.507,35.284L49.484,96.911
		c-0.461,0.849-1.002,1.667-1.716,2.387c-2.121,2.143-4.937,3.145-7.715,3.032c-2.672,0.045-5.359-0.955-7.399-3.015
		c-0.64-0.648-1.141-1.376-1.575-2.132L9.522,75.422c-4.03-4.069-4.03-10.665,0-14.734c4.03-4.069,10.564-4.069,14.595,0
		L40.285,77.01l55.773-56.327c3.991-4.031,10.459-4.031,14.449,0C114.498,24.715,114.498,31.252,110.507,35.284L110.507,35.284z"/>
</g>
</svg>
