<?xml version="1.0" encoding="utf-8"?>
<!-- Generator: Adobe Illustrator 16.0.0, SVG Export Plug-In . SVG Version: 6.00 Build 0)  -->
<!DOCTYPE svg PUBLIC "-//W3C//DTD SVG 1.1//EN" "http://www.w3.org/Graphics/SVG/1.1/DTD/svg11.dtd">
<svg version="1.1" id="Calque_1" xmlns="http://www.w3.org/2000/svg" xmlns:xlink="http://www.w3.org/1999/xlink" x="0px" y="0px"
	 width="114px" height="114px" viewBox="0 0 114 114" xml:space="preserve">
<g id="normal">
	<path fill="#2D2D2D" d="M71.838,91.57c-3.307,0-5.996-2.689-5.996-5.995v-1.744c0-3.201,2.521-5.825,5.684-5.988
		c1.035-0.12,2.125-0.282,3.037-0.448V54.941H41.203v22.452c0.92,0.166,2.017,0.332,3.036,0.449
		c3.162,0.163,5.685,2.786,5.685,5.988v1.744c0,3.306-2.69,5.994-5.996,5.994H22.996C19.69,91.57,17,88.881,17,85.575v-1.744
		c0-3.201,2.522-5.825,5.684-5.988c1.034-0.12,2.125-0.282,3.037-0.448V54.941h-6.213c-3.306,0-5.995-2.69-5.995-5.996V29.757
		c0-3.306,2.689-5.996,5.995-5.996h76.748c3.307,0,5.996,2.689,5.996,5.996v19.188c0,3.306-2.689,5.996-5.996,5.996h-6.213v22.452
		c0.92,0.166,2.018,0.332,3.036,0.449c3.162,0.163,5.685,2.786,5.685,5.988v1.744c0,3.306-2.688,5.994-5.996,5.994h-20.93V91.57z"/>
	<path fill="#FFFFFF" d="M96.361,50.689H85.896v29.654c0,0.964,6.977,1.744,6.977,1.744c0.963,0,1.744,0.781,1.744,1.744v1.744
		c0,0.963-0.781,1.743-1.744,1.743h-20.93c-0.963,0-1.744-0.78-1.744-1.743v-1.744c0-0.963,0.781-1.744,1.744-1.744
		c0,0,6.977-0.78,6.977-1.744V50.689H37.056v29.654c0,0.964,6.977,1.744,6.977,1.744c0.963,0,1.744,0.781,1.744,1.744v1.744
		c0,0.963-0.781,1.743-1.744,1.743H23.102c-0.963,0-1.744-0.78-1.744-1.743v-1.744c0-0.963,0.781-1.744,1.744-1.744
		c0,0,6.976-0.78,6.976-1.744V50.689H19.614c-0.963,0-1.744-0.781-1.744-1.744V29.757c0-0.963,0.781-1.744,1.744-1.744h76.748
		c0.967,0,1.744,0.781,1.744,1.744v19.188C98.105,49.908,97.325,50.689,96.361,50.689L96.361,50.689z M94.618,33.246
		c0-0.963-0.781-1.744-1.744-1.744H23.102c-0.963,0-1.744,0.781-1.744,1.744v12.21c0,0.963,0.781,1.744,1.744,1.744h69.771
		c0.963,0,1.744-0.781,1.744-1.744L94.618,33.246L94.618,33.246z"/>
	<path fill="#FFFFFF" d="M22.379,48.946l10.99-19.188h13.54L35.831,48.946H22.379z M46.217,48.946l10.99-19.188h13.54L59.668,48.946
		H46.217z M70.055,48.946l10.989-19.188h13.54L83.506,48.946H70.055z"/>
	<circle fill="#2D2D2D" cx="87.167" cy="89.168" r="22.75"/>
		<polygon fill="#FFFFFF" points="85.266,99.057 85.266,79.082 89.26,79.082 89.26,99.057 		"/>
		<polygon fill="#FFFFFF" points="77.273,91.068 77.273,87.072 97.25,87.072 97.25,91.068 		"/>
</g>
</svg>
