<?xml version="1.0" encoding="UTF-8" ?>
<!DOCTYPE svg PUBLIC "-//W3C//DTD SVG 1.1//EN" "http://www.w3.org/Graphics/SVG/1.1/DTD/svg11.dtd">
<svg width="128pt" height="128pt" viewBox="0 0 128 128" version="1.1" xmlns="http://www.w3.org/2000/svg">
<g id="#000000ff">
<path fill="#000000" opacity="1.00" d=" M 56.00 11.90 C 55.44 8.25 59.52 5.02 62.87 6.86 C 65.58 8.14 65.39 11.39 65.61 13.90 C 69.82 11.99 74.36 10.66 79.03 10.91 C 87.15 10.91 93.89 16.84 102.07 16.55 C 109.38 16.90 115.66 12.80 122.13 10.10 C 124.67 9.02 126.99 11.05 128.00 13.23 L 128.00 43.33 C 127.53 46.45 124.42 47.64 121.94 48.86 C 116.17 51.55 110.44 54.94 103.92 55.27 C 98.19 55.85 92.81 53.59 87.62 51.50 C 80.51 48.54 72.34 49.41 65.49 52.70 C 65.45 66.45 65.47 80.21 65.49 93.96 C 65.50 96.20 65.39 98.97 63.15 100.19 C 60.16 102.11 55.77 99.61 56.04 96.02 C 55.89 67.99 55.98 39.94 56.00 11.90 Z" />
<path fill="#000000" opacity="1.00" d=" M 13.04 77.96 C 23.64 72.30 35.67 70.12 47.49 68.75 C 47.53 71.90 47.54 75.04 47.53 78.18 C 36.92 79.45 26.06 81.33 16.65 86.66 C 13.58 88.58 9.90 90.97 9.51 94.92 C 9.91 98.39 12.91 100.68 15.61 102.49 C 22.69 106.89 30.92 108.98 39.04 110.48 C 52.60 112.66 66.50 112.72 80.10 110.76 C 88.66 109.38 97.32 107.27 104.85 102.82 C 107.72 100.95 110.99 98.62 111.45 94.94 C 111.13 91.26 107.83 88.91 104.98 87.07 C 95.59 81.49 84.61 79.54 73.92 78.25 C 73.90 75.11 73.90 71.97 73.92 68.83 C 86.54 70.25 99.51 72.71 110.47 79.48 C 116.13 83.01 121.57 88.93 120.87 96.08 C 120.44 102.13 115.90 106.82 111.04 109.93 C 102.78 115.33 93.05 117.87 83.46 119.68 C 67.11 122.43 50.22 122.31 33.95 118.98 C 24.23 116.88 14.28 113.85 6.51 107.36 C 2.86 104.53 0.42 100.24 0.00 95.62 L 0.00 93.26 C 1.34 86.25 7.01 81.17 13.04 77.96 Z" />
</g>
</svg>
