<?xml version="1.0" encoding="UTF-8"?>
<svg xmlns="http://www.w3.org/2000/svg" xmlns:xlink="http://www.w3.org/1999/xlink" width="90pt" height="90pt" viewBox="0 0 90 90" version="1.1">
<g id="surface1">
<path fill="#F2F2F2" d="M 85.25 21.585938 L 79.503906 79.28125 L 10.496094 79.28125 L 5.867188 22.703125 L 45 44.613281 Z M 85.25 21.585938 "/>
<path fill="#F2F2F2" d="M 83.300781 10.71875 L 45 46.699219 L 6.699219 10.71875 Z M 83.300781 10.71875 "/>
<path fill="#F14336" d="M 10.496094 27.332031 L 10.496094 79.28125 L 4.242188 79.28125 C 1.902344 79.28125 0 77.378906 0 75.039062 L 0 19.683594 L 6.855469 19.867188 Z M 10.496094 27.332031 "/>
<path fill="#D32E2A" d="M 90 19.683594 L 90 75.039062 C 90 77.378906 88.097656 79.28125 85.753906 79.28125 L 79.503906 79.28125 L 79.503906 27.332031 L 82.964844 19.15625 Z M 90 19.683594 "/>
<path fill="#F14336" d="M 90 14.960938 L 90 19.683594 L 79.503906 27.332031 L 45 52.480469 L 10.496094 27.332031 L 0 19.683594 L 0 14.960938 C 0 12.621094 1.902344 10.71875 4.242188 10.71875 L 6.699219 10.71875 L 45 38.636719 L 83.300781 10.71875 L 85.753906 10.71875 C 88.097656 10.71875 90 12.621094 90 14.960938 Z M 90 14.960938 "/>
<path fill="#D32E2A" d="M 10.496094 27.332031 L 0 25.707031 L 0 19.683594 Z M 10.496094 27.332031 "/>
</g>
</svg>
