<svg id="svg" version="1.1" xmlns="http://www.w3.org/2000/svg" xmlns:xlink="http://www.w3.org/1999/xlink" width="400" height="400" viewBox="0, 0, 400,400">
	<g id="svgg">
		<path id="path0" d="M191.000 72.240 C 190.560 72.345,188.940 72.715,187.400 73.062 C 172.673 76.382,165.679 80.891,147.973 98.483 C 141.480 104.933,137.706 108.402,137.271 108.318 C 136.663 108.201,136.590 107.042,136.494 96.028 C 136.423 87.870,136.242 83.692,135.945 83.334 C 135.329 82.592,87.621 82.539,86.880 83.280 C 86.513 83.647,86.400 92.639,86.400 121.315 L 86.400 158.869 83.900 161.512 C 82.525 162.966,75.799 169.835,68.954 176.778 C 37.849 208.323,39.271 206.810,38.607 209.062 C 36.506 216.193,43.182 222.680,49.987 220.117 C 52.332 219.233,51.067 220.436,88.612 183.400 C 100.209 171.960,112.167 160.170,115.184 157.200 C 118.202 154.230,131.520 141.090,144.780 128.000 C 170.162 102.944,173.431 100.042,180.235 96.527 C 196.706 88.018,212.324 89.777,227.176 101.814 C 230.425 104.447,236.569 110.439,290.382 163.454 C 296.442 169.424,302.840 175.706,304.600 177.414 C 306.360 179.123,316.134 188.727,326.321 198.757 C 346.267 218.397,345.305 217.557,349.341 218.856 C 355.177 220.733,360.811 216.272,360.795 209.787 C 360.786 206.153,359.183 203.784,352.006 196.800 C 348.502 193.390,340.003 185.088,333.118 178.352 C 326.233 171.615,319.250 164.807,317.600 163.222 C 315.950 161.637,311.449 157.249,307.597 153.470 C 303.746 149.692,294.042 140.210,286.033 132.400 C 278.024 124.590,270.001 116.760,268.205 115.000 C 259.765 106.731,240.830 88.350,239.400 87.038 C 234.496 82.538,223.874 76.721,216.600 74.552 C 209.496 72.433,208.805 72.334,200.200 72.190 C 195.580 72.112,191.440 72.135,191.000 72.240 M190.527 107.804 C 186.015 108.974,179.995 111.758,177.138 113.996 C 174.579 115.999,84.659 205.568,84.034 206.736 C 83.431 207.863,83.425 307.884,84.028 312.218 C 84.993 319.155,89.574 324.366,96.868 326.823 C 99.060 327.561,100.495 327.600,125.741 327.600 L 152.307 327.600 152.548 326.700 C 152.681 326.205,152.792 314.766,152.795 301.279 L 152.800 276.759 150.425 274.279 C 145.644 269.290,138.400 259.846,138.400 258.604 C 138.400 258.416,138.150 257.979,137.845 257.631 C 136.971 256.636,134.886 252.542,133.144 248.400 C 132.265 246.310,131.288 244.033,130.973 243.340 C 130.658 242.646,130.400 241.752,130.400 241.353 C 130.400 240.954,130.145 239.901,129.833 239.013 C 127.801 233.227,127.136 218.335,128.565 210.600 C 129.437 205.877,130.855 199.904,131.224 199.400 C 131.385 199.180,131.700 198.370,131.924 197.600 C 136.847 180.654,154.603 162.411,172.200 156.219 C 173.300 155.832,174.560 155.359,175.000 155.167 C 187.406 149.761,212.928 149.923,223.600 155.475 C 224.150 155.761,224.731 155.996,224.891 155.998 C 226.428 156.011,235.568 161.277,240.350 164.905 C 252.181 173.882,262.537 188.799,266.171 202.100 C 266.517 203.365,267.064 205.345,267.387 206.500 C 269.215 213.048,269.206 225.601,267.367 233.800 C 265.726 241.111,264.563 245.321,263.610 247.400 C 263.408 247.840,262.854 249.190,262.378 250.400 C 259.416 257.932,254.157 266.557,248.599 273.000 C 245.775 276.274,245.950 274.088,246.255 302.258 L 246.530 327.600 274.241 327.600 C 289.922 327.600,302.048 327.446,302.172 327.245 C 302.293 327.050,303.029 326.771,303.810 326.625 C 309.015 325.648,315.041 318.960,315.982 313.117 C 316.430 310.336,317.064 209.930,316.644 208.182 C 316.446 207.355,313.691 204.376,307.480 198.272 C 302.596 193.472,293.284 184.292,286.787 177.872 C 241.858 133.477,224.206 116.108,223.303 115.406 C 222.732 114.963,221.710 114.126,221.032 113.547 C 219.337 112.097,211.670 108.471,209.323 108.009 C 208.266 107.801,206.771 107.444,206.003 107.215 C 203.320 106.418,194.588 106.750,190.527 107.804 M194.031 175.814 C 175.648 178.024,159.338 191.404,154.308 208.400 C 152.693 213.858,152.427 215.289,152.189 219.800 C 151.143 239.617,162.213 258.444,179.200 265.739 C 180.630 266.354,182.160 267.019,182.600 267.219 C 191.810 271.396,208.884 271.252,217.200 266.925 C 217.750 266.639,218.417 266.404,218.682 266.402 C 218.948 266.401,220.081 265.860,221.200 265.200 C 222.319 264.540,223.394 264.000,223.589 264.000 C 223.784 264.000,224.181 263.775,224.471 263.499 C 224.762 263.224,225.782 262.490,226.738 261.868 C 233.558 257.434,244.000 243.981,244.000 239.630 C 244.000 239.387,244.175 238.877,244.389 238.495 C 246.422 234.861,247.534 224.460,246.665 217.200 C 245.343 206.150,240.996 197.396,232.739 189.156 C 228.634 185.059,227.073 183.912,221.275 180.733 C 216.116 177.905,203.547 174.844,198.800 175.260 C 198.470 175.289,196.324 175.538,194.031 175.814 M207.803 198.019 C 209.341 198.532,210.690 199.053,210.800 199.176 C 210.910 199.299,211.892 199.850,212.983 200.400 C 220.395 204.138,225.737 213.592,225.754 223.000 C 225.791 243.810,202.122 256.731,185.288 245.091 C 181.581 242.528,180.776 241.819,178.990 239.546 C 162.960 219.142,183.290 189.841,207.803 198.019 " stroke="none" fill="#fafbfb" fill-rule="evenodd">
		</path>
		<path id="path1" d="M76.400 0.400 C 76.400 0.620,76.850 0.800,77.400 0.800 C 77.950 0.800,78.400 0.620,78.400 0.400 C 78.400 0.180,77.950 0.000,77.400 0.000 C 76.850 0.000,76.400 0.180,76.400 0.400 M322.000 0.400 C 322.000 0.620,322.450 0.800,323.000 0.800 C 323.550 0.800,324.000 0.620,324.000 0.400 C 324.000 0.180,323.550 0.000,323.000 0.000 C 322.450 0.000,322.000 0.180,322.000 0.400 M348.040 6.700 C 348.344 7.195,348.849 7.600,349.163 7.600 C 349.477 7.600,349.658 7.553,349.567 7.496 C 349.475 7.438,348.970 7.033,348.443 6.596 L 347.487 5.800 348.040 6.700 M355.956 10.700 C 356.216 11.195,356.722 11.600,357.081 11.600 C 357.440 11.600,357.658 11.553,357.567 11.496 C 357.475 11.438,356.969 11.033,356.442 10.596 L 355.484 9.800 355.956 10.700 M35.293 16.000 C 35.018 16.440,34.885 16.800,34.997 16.800 C 35.108 16.800,35.560 16.440,36.000 16.000 C 36.486 15.514,36.603 15.200,36.296 15.200 C 36.019 15.200,35.568 15.560,35.293 16.000 M366.761 18.012 C 367.509 18.672,368.228 19.106,368.358 18.976 C 368.487 18.846,368.289 18.570,367.916 18.361 C 367.544 18.153,366.973 17.716,366.648 17.391 C 366.323 17.066,365.909 16.803,365.729 16.806 C 365.548 16.810,366.012 17.353,366.761 18.012 M372.290 22.824 C 372.398 23.236,372.841 23.686,373.273 23.823 C 373.706 23.961,373.976 24.158,373.873 24.261 C 373.626 24.507,375.524 26.400,376.018 26.400 C 376.228 26.400,376.400 26.670,376.400 27.000 C 376.400 27.330,376.586 27.600,376.814 27.600 C 377.529 27.600,376.590 26.317,374.281 24.138 C 372.927 22.861,372.169 22.360,372.290 22.824 M26.500 23.470 C 25.551 24.132,25.311 24.800,26.024 24.800 C 26.257 24.800,26.344 24.633,26.218 24.429 C 26.092 24.225,26.351 23.943,26.794 23.802 C 27.237 23.661,27.600 23.378,27.600 23.173 C 27.600 22.707,27.590 22.709,26.500 23.470 M23.437 26.600 C 23.076 27.150,22.966 27.600,23.191 27.600 C 23.416 27.600,23.600 27.433,23.600 27.229 C 23.600 27.024,23.883 26.574,24.229 26.229 C 24.574 25.883,24.685 25.600,24.475 25.600 C 24.264 25.600,23.797 26.050,23.437 26.600 M383.806 35.712 C 384.192 36.324,384.609 36.724,384.732 36.601 C 384.855 36.478,384.539 35.978,384.030 35.489 L 383.104 34.600 383.806 35.712 M385.118 37.415 C 384.980 37.554,385.227 38.027,385.667 38.467 C 386.700 39.500,386.946 39.254,386.057 38.076 C 385.679 37.574,385.256 37.277,385.118 37.415 M12.000 41.200 C 11.683 41.396,11.556 41.689,11.718 41.852 C 11.881 42.014,12.223 41.937,12.480 41.680 C 13.084 41.076,12.747 40.738,12.000 41.200 M387.592 41.064 C 387.819 41.176,387.903 41.433,387.779 41.634 C 387.655 41.835,387.721 42.000,387.926 42.000 C 388.132 42.000,388.414 42.569,388.553 43.264 C 388.692 43.959,388.898 44.435,389.011 44.322 C 389.366 43.967,388.226 41.066,387.690 40.961 C 387.410 40.905,387.366 40.952,387.592 41.064 M10.267 43.867 C 9.836 44.297,9.959 44.667,10.533 44.667 C 10.827 44.667,11.067 44.427,11.067 44.133 C 11.067 43.559,10.697 43.436,10.267 43.867 M9.500 46.157 C 9.115 46.449,8.800 46.834,8.800 47.013 C 8.800 47.191,8.518 47.648,8.174 48.029 C 7.830 48.409,7.712 48.822,7.914 48.947 C 8.115 49.071,8.524 48.684,8.822 48.086 C 9.121 47.489,9.626 46.685,9.945 46.300 C 10.629 45.473,10.469 45.421,9.500 46.157 M391.200 48.161 C 391.200 48.840,391.853 49.364,392.130 48.907 C 392.232 48.738,392.065 48.368,391.758 48.084 C 391.300 47.661,391.200 47.674,391.200 48.161 M392.326 49.803 C 392.175 49.956,392.232 50.559,392.454 51.141 C 392.675 51.724,392.844 52.245,392.828 52.300 C 392.691 52.789,392.897 53.067,393.400 53.067 C 393.730 53.067,394.000 52.917,394.000 52.733 C 394.000 52.550,393.685 52.397,393.300 52.394 C 392.702 52.389,392.687 52.331,393.200 52.000 C 393.555 51.770,393.607 51.610,393.327 51.606 C 393.066 51.603,392.796 51.133,392.727 50.562 C 392.657 49.991,392.476 49.649,392.326 49.803 M7.200 50.927 C 7.200 51.243,6.930 51.726,6.600 52.000 C 6.270 52.274,6.025 52.971,6.054 53.549 C 6.103 54.491,6.127 54.507,6.282 53.700 C 6.378 53.205,6.634 52.800,6.851 52.800 C 7.069 52.800,7.119 53.008,6.962 53.262 C 6.781 53.555,6.853 53.615,7.158 53.426 C 7.526 53.198,7.529 52.997,7.170 52.564 C 6.887 52.223,6.863 52.000,7.108 52.000 C 7.672 52.000,8.050 50.878,7.583 50.589 C 7.372 50.459,7.200 50.611,7.200 50.927 M5.365 55.354 C 5.125 55.615,5.051 56.175,5.200 56.599 C 5.435 57.270,5.508 57.222,5.755 56.238 C 6.083 54.929,5.977 54.688,5.365 55.354 M394.854 55.924 C 394.825 56.212,394.632 56.344,394.428 56.217 C 394.223 56.091,393.942 56.170,393.804 56.393 C 393.666 56.617,393.828 56.800,394.164 56.800 C 394.573 56.800,394.693 57.031,394.529 57.500 C 394.339 58.039,394.396 58.096,394.775 57.746 C 395.046 57.497,395.187 56.867,395.088 56.346 C 394.990 55.826,394.884 55.636,394.854 55.924 M4.051 58.509 C 3.546 59.014,3.435 60.403,3.900 60.394 C 4.396 60.384,5.432 59.615,5.000 59.578 C 4.780 59.559,4.914 59.419,5.299 59.267 C 5.953 59.008,5.950 58.961,5.250 58.524 C 4.695 58.177,4.386 58.174,4.051 58.509 M395.056 58.317 C 394.241 59.673,393.750 61.467,394.193 61.467 C 394.466 61.467,394.669 61.201,394.644 60.876 C 394.620 60.552,394.825 60.207,395.100 60.110 C 395.375 60.013,395.600 60.139,395.600 60.390 C 395.600 60.642,395.422 60.737,395.205 60.603 C 394.978 60.463,394.911 60.623,395.046 60.977 C 395.177 61.317,395.433 61.504,395.614 61.391 C 395.796 61.279,396.065 61.382,396.213 61.620 C 396.363 61.863,396.111 62.150,395.640 62.274 C 395.178 62.394,394.800 62.742,394.800 63.047 C 394.800 63.798,395.457 63.748,395.754 62.975 C 395.886 62.631,396.176 62.461,396.397 62.598 C 396.975 62.955,396.895 64.019,396.300 63.900 C 396.010 63.842,395.820 64.173,395.847 64.691 C 395.873 65.181,395.753 65.495,395.581 65.388 C 395.409 65.282,395.177 65.421,395.066 65.698 C 394.909 66.087,394.856 66.082,394.832 65.676 C 394.814 65.388,394.620 65.264,394.400 65.400 C 394.180 65.536,394.000 65.457,394.000 65.224 C 394.000 64.926,336.274 64.800,200.000 64.800 C 93.300 64.800,6.000 64.950,6.000 65.132 C 6.000 65.315,5.565 65.698,5.033 65.983 C 4.463 66.287,4.119 66.782,4.197 67.183 C 4.366 68.060,3.170 68.097,2.525 67.235 C 1.977 66.502,1.971 67.398,2.518 68.272 C 2.680 68.532,2.602 68.875,2.345 69.034 C 2.028 69.230,1.981 69.142,2.200 68.762 C 2.377 68.453,2.161 68.560,1.718 69.000 C 0.868 69.845,0.804 70.249,1.373 71.162 C 1.613 71.547,1.578 71.634,1.262 71.438 C 0.988 71.269,0.800 71.407,0.800 71.776 C 0.800 72.119,1.025 72.403,1.300 72.406 C 1.617 72.410,1.651 72.520,1.391 72.706 C 1.167 72.868,0.925 73.630,0.854 74.400 C 0.784 75.170,0.563 75.860,0.363 75.933 C -0.157 76.124,-0.120 206.800,0.400 206.800 C 0.620 206.800,0.803 207.205,0.806 207.700 C 0.817 209.342,1.580 209.976,1.648 208.400 C 1.689 207.455,1.765 207.293,1.882 207.900 L 2.056 208.800 18.828 208.800 C 31.967 208.800,35.605 208.908,35.623 209.300 C 35.707 211.129,36.020 212.890,36.380 213.562 C 36.611 213.994,36.800 214.790,36.800 215.331 C 36.800 215.872,37.070 216.418,37.400 216.545 C 37.730 216.671,38.000 217.024,38.000 217.329 C 38.000 220.592,47.886 223.558,51.600 221.410 C 52.150 221.092,52.848 220.706,53.152 220.553 C 53.456 220.400,54.568 219.448,55.625 218.437 C 59.678 214.560,62.310 212.156,63.768 211.000 C 64.600 210.340,65.520 209.575,65.812 209.300 C 66.196 208.938,68.329 208.800,73.525 208.800 L 80.707 208.800 80.970 211.500 C 81.115 212.985,81.417 215.460,81.641 217.000 C 81.884 218.678,82.158 238.568,82.324 266.639 C 82.520 299.954,82.728 313.640,83.044 314.039 C 83.288 314.347,83.600 315.196,83.739 315.925 C 84.363 319.217,88.947 324.382,93.259 326.652 L 96.200 328.200 124.570 328.310 C 140.173 328.371,153.069 328.281,153.227 328.110 C 153.385 327.940,153.579 316.181,153.658 301.981 L 153.800 276.162 150.077 271.981 C 148.030 269.681,145.915 267.316,145.377 266.726 C 144.840 266.135,144.400 265.542,144.400 265.409 C 144.400 265.177,142.820 262.810,142.391 262.400 C 142.172 262.191,140.959 260.373,140.122 259.000 C 139.854 258.560,139.435 257.754,139.192 257.208 C 138.949 256.663,138.624 256.123,138.471 256.008 C 138.317 255.894,137.675 254.761,137.044 253.491 C 136.413 252.222,135.739 251.086,135.548 250.968 C 135.357 250.850,135.194 250.448,135.186 250.076 C 135.179 249.704,134.825 248.680,134.400 247.800 C 133.975 246.920,133.615 245.930,133.601 245.600 C 133.586 245.270,133.310 244.651,132.987 244.224 C 132.664 243.796,132.400 243.133,132.400 242.750 C 132.400 242.366,132.188 241.545,131.928 240.926 C 129.765 235.760,128.773 212.370,130.638 210.505 C 130.947 210.196,131.200 209.686,131.200 209.371 C 131.200 208.891,132.827 208.800,141.400 208.800 L 151.600 208.800 151.600 211.557 C 151.600 213.639,151.453 214.371,151.000 214.545 C 150.123 214.881,150.111 229.065,150.987 230.224 C 151.315 230.657,151.581 231.883,151.590 233.000 C 151.598 234.100,151.874 235.516,152.202 236.146 C 152.531 236.776,152.800 237.632,152.800 238.047 C 152.800 238.463,153.160 239.475,153.600 240.296 C 154.040 241.116,154.400 241.994,154.400 242.245 C 154.400 242.496,154.670 242.926,155.000 243.200 C 155.330 243.474,155.600 244.023,155.600 244.420 C 155.600 244.818,155.825 245.383,156.100 245.678 C 156.375 245.972,156.960 246.921,157.400 247.787 C 158.570 250.090,162.192 254.674,164.836 257.200 C 169.127 261.298,169.962 261.966,174.220 264.701 C 174.953 265.172,177.757 266.524,180.700 267.825 C 181.415 268.141,182.585 268.658,183.300 268.974 C 184.549 269.526,186.288 269.975,190.600 270.860 C 193.182 271.389,206.000 271.392,208.600 270.863 C 213.386 269.890,214.810 269.445,219.000 267.613 C 227.980 263.686,234.744 258.063,240.545 249.704 C 241.345 248.551,242.000 247.504,242.000 247.376 C 242.000 247.248,242.270 246.873,242.600 246.543 C 242.930 246.213,243.200 245.618,243.200 245.220 C 243.200 244.823,243.470 244.274,243.800 244.000 C 244.130 243.726,244.400 243.253,244.400 242.950 C 244.400 242.646,244.760 241.725,245.200 240.904 C 245.640 240.084,246.000 239.205,246.000 238.952 C 246.000 238.699,246.269 237.976,246.598 237.346 C 246.926 236.716,247.199 235.750,247.204 235.200 C 247.208 234.650,247.471 233.480,247.788 232.600 C 248.650 230.209,248.660 212.313,247.800 211.600 C 247.470 211.326,247.200 210.584,247.200 209.951 L 247.200 208.800 256.534 208.800 L 265.868 208.800 266.426 213.900 C 267.238 221.327,266.784 230.846,265.401 235.364 C 265.070 236.444,264.794 237.884,264.786 238.564 C 264.778 239.244,264.514 240.250,264.200 240.800 C 263.886 241.350,263.622 242.261,263.614 242.824 C 263.606 243.386,263.336 244.196,263.013 244.624 C 262.690 245.051,262.420 245.667,262.413 245.992 C 262.396 246.753,260.216 252.404,259.168 254.400 C 258.995 254.730,258.076 256.530,257.127 258.400 C 256.177 260.270,255.175 261.944,254.900 262.120 C 254.625 262.296,254.400 262.613,254.400 262.824 C 254.400 263.618,249.263 270.486,246.244 273.728 L 244.687 275.400 244.907 301.544 C 245.033 316.516,245.284 327.844,245.494 328.054 C 245.711 328.271,257.657 328.376,274.830 328.310 L 303.800 328.200 306.592 326.800 C 310.031 325.075,313.838 321.375,315.264 318.369 C 317.705 313.224,317.553 316.275,317.821 267.200 C 318.006 233.295,318.206 220.671,318.632 216.000 C 318.943 212.590,319.198 209.575,319.199 209.300 C 319.200 208.919,320.857 208.800,326.146 208.800 L 333.092 208.800 334.446 209.994 C 335.191 210.650,336.025 211.190,336.300 211.194 C 336.575 211.197,336.800 211.470,336.800 211.800 C 336.800 212.130,337.058 212.400,337.373 212.400 C 337.688 212.400,338.060 212.760,338.200 213.200 C 338.340 213.640,338.712 214.000,339.027 214.000 C 339.342 214.000,339.600 214.270,339.600 214.600 C 339.600 214.930,339.779 215.200,339.998 215.200 C 340.217 215.200,341.315 216.100,342.439 217.200 C 343.562 218.300,344.801 219.200,345.192 219.200 C 345.582 219.200,346.113 219.455,346.372 219.766 C 348.360 222.162,360.303 219.796,360.388 216.989 C 360.394 216.763,360.760 216.270,361.200 215.893 C 361.708 215.458,362.000 214.713,362.000 213.853 C 362.000 213.108,362.270 212.274,362.600 212.000 C 362.930 211.726,363.200 210.894,363.200 210.151 L 363.200 208.800 380.572 208.800 L 397.944 208.800 398.118 207.900 C 398.235 207.293,398.311 207.455,398.352 208.400 C 398.420 209.976,399.183 209.342,399.194 207.700 C 399.197 207.205,399.380 206.800,399.600 206.800 C 399.865 206.800,400.000 184.800,400.000 141.600 C 400.000 89.710,399.898 76.399,399.500 76.394 C 399.167 76.390,399.200 76.258,399.600 76.000 C 400.000 75.742,400.033 75.610,399.700 75.606 C 399.402 75.602,399.200 75.066,399.200 74.280 C 399.200 73.554,399.004 72.764,398.765 72.525 C 398.452 72.212,398.452 72.015,398.765 71.822 C 399.399 71.430,399.297 70.317,398.527 69.218 C 398.079 68.577,397.888 67.626,397.955 66.363 C 398.015 65.237,397.801 63.975,397.428 63.254 C 397.083 62.586,396.800 61.671,396.800 61.220 C 396.800 60.769,396.645 60.400,396.455 60.400 C 396.266 60.400,396.192 59.975,396.291 59.457 C 396.463 58.559,395.464 57.638,395.056 58.317 M3.600 61.800 C 2.757 62.670,2.462 63.202,2.822 63.206 C 3.191 63.210,3.245 63.318,2.971 63.506 C 2.217 64.022,1.968 65.200,2.613 65.200 C 2.936 65.200,3.200 65.374,3.200 65.587 C 3.200 65.801,2.930 65.871,2.600 65.745 C 2.270 65.618,2.000 65.714,2.000 65.957 C 2.000 66.201,2.270 66.400,2.600 66.400 C 2.930 66.400,3.200 66.580,3.200 66.800 C 3.200 67.020,3.402 67.200,3.649 67.200 C 3.959 67.200,3.944 67.015,3.600 66.600 C 3.188 66.103,3.231 65.999,3.851 65.994 C 4.433 65.989,4.477 65.910,4.049 65.639 C 3.746 65.447,3.621 65.089,3.772 64.845 C 3.924 64.600,3.861 64.400,3.634 64.400 C 3.370 64.400,3.344 64.074,3.562 63.500 C 3.904 62.599,4.000 62.218,4.000 61.751 C 4.000 61.614,4.225 61.689,4.500 61.917 C 4.877 62.229,5.000 62.093,5.000 61.366 C 5.000 60.835,4.990 60.400,4.978 60.400 C 4.967 60.400,4.346 61.030,3.600 61.800 M207.383 70.373 C 208.474 70.552,209.434 70.901,209.516 71.149 C 209.603 71.408,210.569 71.600,211.784 71.600 C 213.179 71.600,214.072 71.805,214.400 72.200 C 214.674 72.530,215.461 72.806,216.149 72.813 C 216.837 72.820,217.732 73.077,218.137 73.384 C 218.542 73.691,219.590 74.063,220.465 74.211 C 221.340 74.359,222.152 74.732,222.271 75.040 C 222.389 75.348,222.984 75.600,223.594 75.600 C 224.203 75.600,224.926 75.870,225.200 76.200 C 225.474 76.530,225.963 76.800,226.286 76.800 C 226.609 76.800,227.331 77.160,227.891 77.600 C 228.450 78.040,229.134 78.400,229.411 78.400 C 229.688 78.400,230.018 78.670,230.145 79.000 C 230.271 79.330,230.719 79.600,231.138 79.600 C 231.558 79.600,232.126 79.870,232.400 80.200 C 232.674 80.530,233.101 80.801,233.349 80.802 C 233.597 80.803,234.485 81.433,235.322 82.202 C 236.160 82.971,236.984 83.600,237.154 83.600 C 237.709 83.600,242.358 88.000,253.745 99.300 C 259.896 105.405,264.947 110.400,264.968 110.400 C 264.989 110.400,270.841 116.155,277.971 123.190 C 285.101 130.224,297.053 141.969,304.531 149.290 C 312.008 156.610,321.203 165.622,324.963 169.317 C 328.723 173.011,336.994 181.111,343.343 187.317 C 359.192 202.809,359.045 202.652,360.452 205.600 C 363.585 212.162,358.996 220.000,352.020 220.000 C 347.779 220.000,345.740 218.710,337.941 211.094 C 329.752 203.096,304.439 178.323,292.220 166.348 C 277.670 152.087,254.547 129.481,245.040 120.220 C 228.658 104.264,223.669 99.873,219.784 97.992 C 218.805 97.519,217.903 96.966,217.779 96.765 C 217.654 96.564,217.239 96.400,216.856 96.400 C 216.473 96.400,215.950 96.190,215.693 95.933 C 215.143 95.383,212.994 94.547,210.200 93.798 C 209.100 93.502,207.571 93.067,206.803 92.830 C 204.635 92.163,196.354 92.297,193.266 93.050 C 188.705 94.162,185.027 95.331,184.369 95.877 C 184.021 96.164,183.571 96.399,183.369 96.397 C 182.709 96.391,176.400 99.706,176.400 100.058 C 176.400 100.246,176.139 100.400,175.820 100.400 C 175.501 100.400,175.096 100.635,174.920 100.922 C 174.744 101.209,173.880 101.879,173.000 102.412 C 172.120 102.944,169.356 105.364,166.857 107.790 C 161.788 112.711,144.037 130.054,133.007 140.862 C 129.043 144.746,123.529 150.146,120.753 152.862 C 108.560 164.792,79.985 192.848,68.224 204.436 C 52.482 219.947,52.585 219.855,49.753 220.850 C 42.841 223.280,35.860 216.510,37.819 209.276 L 38.536 206.628 48.407 196.614 C 53.837 191.106,62.159 182.640,66.902 177.800 C 71.645 172.960,77.747 166.750,80.461 164.000 L 85.397 159.000 85.529 155.800 C 85.602 154.040,85.474 136.940,85.245 117.800 L 84.829 83.000 85.837 82.100 L 86.845 81.200 111.440 81.200 L 136.036 81.200 136.982 82.145 L 137.927 83.091 137.704 94.300 C 137.581 100.466,137.598 105.819,137.743 106.196 C 137.948 106.731,140.409 104.463,148.978 95.841 C 155.012 89.768,160.122 84.800,160.332 84.800 C 160.542 84.800,160.818 84.530,160.945 84.200 C 161.071 83.870,161.451 83.600,161.787 83.600 C 162.124 83.600,162.400 83.452,162.400 83.271 C 162.400 82.912,165.472 80.800,165.993 80.800 C 166.170 80.800,166.418 80.530,166.545 80.200 C 166.671 79.870,167.146 79.600,167.600 79.600 C 168.054 79.600,168.529 79.330,168.655 79.000 C 168.782 78.670,169.112 78.400,169.389 78.400 C 169.666 78.400,170.350 78.040,170.909 77.600 C 171.469 77.160,172.191 76.800,172.514 76.800 C 172.837 76.800,173.326 76.530,173.600 76.200 C 173.874 75.870,174.449 75.600,174.878 75.600 C 175.306 75.600,175.920 75.337,176.241 75.016 C 176.563 74.694,177.490 74.307,178.303 74.154 C 179.115 74.002,180.022 73.635,180.319 73.339 C 180.615 73.042,181.429 72.794,182.129 72.787 C 182.828 72.780,183.749 72.510,184.176 72.187 C 184.604 71.864,185.799 71.600,186.834 71.600 C 188.099 71.600,188.787 71.412,188.935 71.025 C 189.287 70.108,202.845 69.628,207.383 70.373 M205.359 106.182 C 207.756 106.499,209.907 106.947,210.139 107.179 C 210.370 107.410,210.902 107.600,211.320 107.600 C 212.053 107.600,214.367 108.482,215.600 109.231 C 215.930 109.432,216.875 109.887,217.700 110.241 C 218.525 110.596,219.200 111.003,219.200 111.146 C 219.200 111.288,219.695 111.628,220.300 111.901 C 220.905 112.175,222.173 113.119,223.117 113.999 C 224.062 114.880,224.888 115.600,224.953 115.600 C 225.019 115.600,233.336 123.801,243.436 133.825 C 264.879 155.107,312.772 202.504,313.144 202.812 C 313.285 202.928,314.292 203.962,315.382 205.108 L 317.364 207.194 317.255 258.497 C 317.137 314.055,317.171 313.170,314.975 317.814 C 313.457 321.025,309.921 324.419,306.199 326.238 L 303.000 327.800 274.400 327.800 L 245.800 327.800 245.697 301.679 L 245.594 275.558 248.429 272.283 C 253.542 266.376,257.848 259.441,261.366 251.450 C 261.935 250.158,262.401 248.898,262.402 248.650 C 262.404 248.403,262.668 247.696,262.989 247.080 C 263.985 245.171,265.773 238.767,266.642 234.000 C 266.983 232.130,267.429 229.700,267.633 228.600 C 268.131 225.926,268.107 213.960,267.599 211.200 C 266.284 204.058,264.892 199.422,262.573 194.464 C 261.818 192.850,261.200 191.444,261.200 191.339 C 261.200 190.654,255.400 181.571,253.083 178.630 C 245.644 169.184,236.786 162.240,225.600 157.084 C 223.803 156.255,216.275 153.891,212.400 152.938 C 208.049 151.868,190.836 151.874,186.400 152.947 C 178.615 154.831,176.527 155.398,175.600 155.878 C 175.050 156.162,174.300 156.396,173.932 156.398 C 173.565 156.399,172.755 156.649,172.132 156.952 C 171.510 157.256,169.560 158.201,167.800 159.052 C 157.991 163.796,147.929 171.738,143.175 178.490 C 142.289 179.749,141.326 181.017,141.037 181.306 C 138.195 184.148,132.524 196.657,130.641 204.237 C 124.583 228.618,131.036 252.457,148.954 271.891 C 149.812 272.821,151.118 274.261,151.858 275.091 L 153.203 276.600 153.102 302.200 L 153.000 327.800 125.000 327.800 L 97.000 327.800 93.872 326.272 C 88.294 323.546,84.852 319.062,83.547 312.819 C 82.882 309.641,82.830 305.786,82.816 258.027 L 82.800 206.654 104.500 184.910 C 116.435 172.952,127.884 161.510,129.942 159.484 C 132.000 157.458,134.700 154.748,135.942 153.462 C 141.672 147.527,174.739 114.400,174.932 114.400 C 175.052 114.400,175.743 113.859,176.467 113.198 C 177.191 112.537,178.147 111.883,178.591 111.744 C 179.036 111.606,179.490 111.369,179.600 111.218 C 180.006 110.661,186.688 107.600,187.498 107.600 C 187.958 107.600,188.845 107.339,189.468 107.020 C 191.910 105.768,199.280 105.380,205.359 106.182 M208.721 175.552 C 212.279 176.177,217.287 177.911,221.535 179.988 C 223.728 181.061,226.145 182.537,226.800 183.204 C 226.910 183.316,227.760 183.900,228.689 184.502 C 231.190 186.123,236.737 191.897,239.122 195.362 C 258.550 223.589,243.684 261.870,210.200 269.838 C 203.736 271.377,190.498 270.793,185.000 268.727 C 173.290 264.327,165.330 258.341,159.560 249.595 C 157.399 246.320,154.400 240.525,154.400 239.626 C 154.400 239.386,154.226 238.877,154.013 238.495 C 151.464 233.923,150.836 217.536,152.935 210.400 C 156.045 199.830,161.919 191.025,169.957 184.882 C 171.743 183.517,173.284 182.400,173.382 182.400 C 173.480 182.400,174.360 181.860,175.338 181.200 C 176.316 180.540,177.250 180.000,177.414 180.000 C 177.578 180.000,178.452 179.651,179.356 179.225 C 182.835 177.585,186.704 176.279,189.200 175.902 C 190.630 175.686,192.160 175.356,192.600 175.168 C 193.670 174.711,205.547 174.994,208.721 175.552 M192.513 198.396 C 186.876 200.060,180.790 204.495,178.234 208.800 C 177.647 209.790,177.000 210.870,176.797 211.200 C 173.229 216.998,172.989 226.884,176.248 233.800 C 186.498 255.551,218.439 252.663,224.465 229.440 C 229.359 210.576,211.157 192.891,192.513 198.396 M219.600 209.351 C 219.600 209.654,219.870 210.126,220.200 210.400 C 220.530 210.674,220.800 211.217,220.800 211.606 C 220.800 211.996,221.047 212.409,221.349 212.525 C 221.650 212.641,222.024 213.245,222.180 213.868 C 222.335 214.490,222.753 215.323,223.108 215.717 C 223.646 216.314,223.758 217.549,223.777 223.117 L 223.799 229.800 222.077 233.200 C 221.130 235.070,220.140 236.950,219.877 237.377 C 218.996 238.813,214.078 243.600,213.485 243.600 C 213.162 243.600,212.674 243.870,212.400 244.200 C 212.126 244.530,211.676 244.800,211.400 244.800 C 211.124 244.800,210.690 245.050,210.437 245.356 C 210.183 245.661,209.182 246.111,208.212 246.355 C 207.241 246.600,206.336 246.980,206.200 247.200 C 205.778 247.883,193.554 247.691,192.624 246.987 C 192.196 246.664,191.456 246.400,190.977 246.400 C 190.499 246.400,189.679 246.071,189.154 245.669 C 188.629 245.267,187.390 244.547,186.400 244.070 C 185.410 243.592,183.821 242.391,182.868 241.400 C 181.915 240.410,180.970 239.600,180.768 239.600 C 180.566 239.600,180.400 239.324,180.400 238.987 C 180.400 238.651,180.130 238.271,179.800 238.145 C 179.470 238.018,179.200 237.732,179.200 237.510 C 179.200 237.287,178.570 236.068,177.800 234.800 C 177.030 233.532,176.400 232.148,176.400 231.724 C 176.400 231.300,176.136 230.604,175.813 230.176 C 174.964 229.055,174.926 216.880,175.770 216.556 C 176.084 216.436,176.458 215.642,176.601 214.792 C 176.745 213.942,177.118 213.034,177.431 212.774 C 177.744 212.514,178.000 212.073,178.000 211.794 C 178.000 211.514,178.270 211.182,178.600 211.055 C 178.930 210.929,179.200 210.558,179.200 210.232 C 179.200 208.917,180.565 208.824,200.100 208.812 C 216.402 208.802,219.600 208.890,219.600 209.351 " stroke="none" fill="#68bdf3" fill-rule="evenodd">
		</path>
		<path id="path2" d="M79.747 0.493 C 79.914 1.014,79.653 1.271,78.685 1.532 C 77.234 1.925,76.733 1.751,77.612 1.162 C 78.085 0.844,78.044 0.789,77.400 0.883 C 76.960 0.947,76.367 1.360,76.083 1.800 C 75.596 2.554,75.580 2.542,75.804 1.600 C 76.033 0.638,76.018 0.629,75.421 1.376 C 75.079 1.804,74.800 1.939,74.800 1.676 C 74.800 0.942,74.091 1.109,73.131 2.069 C 72.472 2.728,72.325 2.773,72.524 2.254 C 72.694 1.810,72.552 1.480,72.117 1.313 C 71.746 1.170,71.378 1.267,71.290 1.531 C 71.203 1.791,70.967 1.903,70.766 1.779 C 70.565 1.655,70.400 1.754,70.400 2.000 C 70.400 2.246,70.220 2.336,70.000 2.200 C 69.780 2.064,69.600 2.143,69.600 2.376 C 69.600 2.980,68.003 2.904,67.988 2.300 C 67.981 2.023,67.794 2.112,67.568 2.500 C 67.344 2.885,66.893 3.200,66.566 3.200 C 66.097 3.200,66.061 3.367,66.398 3.996 C 66.632 4.434,67.021 4.749,67.262 4.696 C 67.503 4.643,67.781 4.870,67.880 5.200 C 67.987 5.556,67.926 5.637,67.730 5.400 C 67.163 4.713,66.402 4.768,66.347 5.500 C 66.318 5.885,66.174 5.570,66.026 4.800 C 65.873 4.001,65.939 3.157,66.179 2.835 C 66.531 2.361,66.460 2.344,65.740 2.727 C 65.044 3.098,64.835 3.068,64.643 2.567 C 64.512 2.227,64.232 2.056,64.020 2.187 C 63.808 2.318,63.748 2.719,63.885 3.078 C 64.066 3.550,63.989 3.640,63.606 3.404 C 63.251 3.184,63.172 3.231,63.366 3.545 C 63.525 3.802,63.807 3.920,63.992 3.805 C 64.639 3.405,65.600 4.094,65.600 4.958 C 65.600 5.554,65.337 5.850,64.770 5.892 C 64.139 5.940,64.041 5.832,64.363 5.445 C 64.686 5.055,64.576 4.953,63.893 5.013 C 63.402 5.056,62.791 4.927,62.536 4.726 C 62.249 4.501,61.971 4.524,61.808 4.787 C 61.663 5.021,61.407 5.128,61.239 5.024 C 61.071 4.920,60.933 5.081,60.933 5.382 C 60.933 5.772,61.342 5.882,62.367 5.766 L 63.800 5.603 62.503 6.012 C 61.789 6.237,61.089 6.401,60.947 6.377 C 60.806 6.352,60.556 6.548,60.392 6.812 C 60.162 7.185,59.927 7.186,59.348 6.816 C 58.668 6.383,58.665 6.360,59.321 6.565 C 59.741 6.697,59.940 6.626,59.797 6.395 C 59.663 6.178,59.304 6.000,59.000 6.000 C 58.696 6.000,58.358 5.855,58.249 5.679 C 58.140 5.502,58.549 5.392,59.158 5.434 C 59.874 5.484,60.267 5.314,60.267 4.956 C 60.267 4.650,60.117 4.400,59.933 4.400 C 59.750 4.400,59.600 4.557,59.600 4.748 C 59.600 4.939,59.195 5.074,58.700 5.048 C 57.792 5.000,57.717 5.224,58.213 6.500 C 58.377 6.922,58.300 7.200,58.019 7.200 C 57.763 7.200,57.648 7.047,57.764 6.859 C 57.880 6.671,57.709 6.176,57.384 5.759 C 56.727 4.915,56.667 6.437,57.317 7.472 C 57.480 7.732,57.430 8.058,57.207 8.196 C 56.983 8.334,56.800 8.797,56.800 9.224 C 56.800 9.991,58.520 10.000,200.200 10.000 C 327.400 10.000,343.600 9.932,343.600 9.400 C 343.600 8.644,344.159 8.628,344.773 9.367 C 345.040 9.690,345.880 9.913,346.722 9.885 C 347.657 9.855,348.165 10.008,348.105 10.304 C 348.040 10.622,348.288 10.668,348.884 10.447 C 349.832 10.097,350.353 9.200,349.610 9.200 C 349.358 9.200,349.254 9.363,349.377 9.563 C 349.500 9.762,349.241 9.831,348.801 9.716 C 348.360 9.601,348.000 9.223,348.000 8.877 C 348.000 8.372,347.887 8.402,347.433 9.023 C 347.121 9.450,346.731 9.664,346.566 9.499 C 346.401 9.335,346.477 9.200,346.733 9.200 C 346.990 9.200,347.200 8.992,347.200 8.738 C 347.200 8.462,346.906 8.542,346.469 8.938 C 345.538 9.780,345.319 9.769,344.831 8.859 C 344.490 8.220,344.564 8.142,345.371 8.296 C 346.594 8.530,346.917 7.945,346.160 6.864 C 345.671 6.167,345.401 6.078,344.776 6.413 C 344.242 6.699,344.000 6.699,344.000 6.414 C 344.000 6.186,343.809 6.000,343.576 6.000 C 343.343 6.000,343.284 6.225,343.445 6.500 C 343.606 6.775,343.377 6.685,342.936 6.299 C 342.496 5.914,342.005 5.728,341.846 5.887 C 341.688 6.046,341.671 5.880,341.810 5.519 C 341.995 5.035,341.869 4.898,341.331 5.000 C 340.929 5.076,340.330 5.171,340.000 5.209 C 339.670 5.248,339.850 5.424,340.400 5.600 C 341.371 5.911,341.374 5.921,340.490 5.960 C 339.638 5.997,338.531 4.418,338.745 3.470 C 338.786 3.289,338.620 3.264,338.375 3.415 C 338.064 3.608,338.057 3.817,338.351 4.111 C 338.646 4.406,338.576 4.676,338.118 5.011 C 337.450 5.499,335.864 5.343,336.187 4.821 C 336.285 4.663,336.103 4.533,335.782 4.533 C 335.462 4.533,335.200 4.843,335.200 5.222 C 335.200 5.967,334.109 6.073,333.350 5.402 C 332.817 4.931,333.108 3.896,333.675 4.246 C 333.890 4.379,333.770 3.916,333.408 3.216 C 332.890 2.213,332.635 2.039,332.206 2.395 C 331.774 2.754,330.018 2.766,328.057 2.425 C 327.979 2.411,328.004 2.167,328.113 1.882 C 328.234 1.567,327.978 1.338,327.461 1.300 C 326.784 1.248,326.731 1.312,327.205 1.612 C 327.680 1.912,327.618 1.989,326.900 1.994 C 326.405 1.997,326.000 2.174,326.000 2.387 C 326.000 2.601,325.741 2.676,325.425 2.554 C 325.109 2.433,324.948 2.079,325.068 1.767 C 325.188 1.455,325.131 1.187,324.943 1.170 C 324.754 1.154,324.195 1.065,323.700 0.973 C 323.205 0.881,322.800 0.968,322.800 1.168 C 322.800 1.766,320.240 1.197,319.684 0.475 C 319.233 -0.112,319.121 -0.121,318.790 0.402 C 318.455 0.932,318.411 0.932,318.400 0.400 C 318.389 -0.133,318.345 -0.133,318.000 0.400 C 317.742 0.800,317.610 0.833,317.606 0.500 C 317.598 -0.150,316.527 -0.150,316.265 0.500 C 316.104 0.900,316.057 0.900,316.032 0.500 C 315.990 -0.166,312.934 -0.166,312.665 0.500 C 312.504 0.900,312.457 0.900,312.432 0.500 C 312.390 -0.150,310.927 -0.150,310.665 0.500 C 310.504 0.900,310.457 0.900,310.432 0.500 C 310.408 0.127,309.083 0.000,305.233 0.000 C 301.474 0.000,300.012 0.136,299.865 0.500 C 299.704 0.900,299.657 0.900,299.632 0.500 C 299.610 0.155,298.803 0.000,297.033 0.000 C 295.354 0.000,294.397 0.173,294.265 0.500 C 294.104 0.900,294.057 0.900,294.032 0.500 C 294.006 0.102,274.996 0.000,200.400 0.000 C 125.790 0.000,106.799 0.101,106.794 0.500 C 106.789 0.866,106.695 0.854,106.442 0.455 C 106.151 -0.006,106.063 -0.006,105.880 0.455 C 105.726 0.842,105.654 0.855,105.632 0.500 C 105.608 0.122,104.043 0.000,99.233 0.000 C 94.514 0.000,92.814 0.129,92.665 0.500 C 92.504 0.900,92.457 0.900,92.432 0.500 C 92.408 0.130,91.156 0.000,87.600 0.000 C 84.030 0.000,82.798 0.128,82.794 0.500 C 82.790 0.833,82.658 0.800,82.400 0.400 C 82.085 -0.088,82.011 -0.036,82.006 0.676 C 82.003 1.158,81.792 1.681,81.538 1.838 C 81.266 2.006,81.184 1.949,81.339 1.698 C 81.760 1.017,81.173 -0.198,80.744 0.466 C 80.462 0.904,80.321 0.892,79.962 0.400 C 79.590 -0.110,79.558 -0.096,79.747 0.493 M74.800 4.400 C 74.800 4.620,74.305 4.782,73.700 4.760 L 72.600 4.720 73.600 4.400 C 74.150 4.224,74.645 4.062,74.700 4.040 C 74.755 4.018,74.800 4.180,74.800 4.400 M69.000 5.200 C 68.864 5.420,68.928 5.600,69.143 5.600 C 69.358 5.600,69.624 5.375,69.735 5.100 C 69.856 4.801,69.950 4.882,69.968 5.300 C 69.986 5.685,69.741 6.000,69.424 6.000 C 68.755 6.000,68.304 5.429,68.678 5.056 C 69.072 4.662,69.276 4.753,69.000 5.200 M331.200 5.708 C 331.601 5.861,331.501 5.947,330.900 5.968 C 330.295 5.990,330.002 5.770,330.006 5.300 C 330.010 4.868,330.125 4.769,330.306 5.040 C 330.468 5.282,330.870 5.583,331.200 5.708 M338.621 5.566 C 338.497 5.767,338.621 6.012,338.898 6.111 C 339.174 6.210,339.255 6.445,339.078 6.634 C 338.710 7.026,337.950 6.004,338.250 5.519 C 338.358 5.344,338.537 5.200,338.647 5.200 C 338.757 5.200,338.745 5.365,338.621 5.566 M55.358 6.731 C 55.497 6.957,55.249 7.257,54.806 7.398 C 54.363 7.539,54.000 7.811,54.000 8.004 C 54.000 8.197,53.640 8.285,53.200 8.200 C 52.213 8.010,52.155 8.603,53.100 9.210 C 53.747 9.626,53.743 9.642,53.049 9.423 C 52.636 9.293,52.006 9.414,51.649 9.693 C 51.072 10.144,51.061 10.123,51.549 9.500 C 51.851 9.115,51.939 8.800,51.745 8.800 C 51.551 8.800,51.156 9.179,50.867 9.642 C 50.578 10.105,50.519 10.374,50.736 10.239 C 50.954 10.105,51.237 10.221,51.366 10.498 C 51.553 10.899,51.647 10.899,51.833 10.500 C 51.962 10.225,52.598 10.000,53.247 10.000 C 54.820 10.000,56.426 8.933,56.106 8.100 C 55.922 7.619,56.032 7.527,56.551 7.726 C 57.476 8.081,56.992 7.331,55.929 6.762 C 55.412 6.486,55.199 6.474,55.358 6.731 M59.200 8.000 C 59.200 8.555,58.933 8.800,58.330 8.800 C 57.471 8.800,57.470 8.790,58.230 8.024 C 59.203 7.043,59.200 7.043,59.200 8.000 M341.810 8.000 C 342.108 8.000,342.464 8.180,342.600 8.400 C 342.740 8.627,342.404 8.800,341.824 8.800 C 341.019 8.800,340.807 8.607,340.832 7.900 C 340.849 7.405,340.954 7.225,341.065 7.500 C 341.176 7.775,341.511 8.000,341.810 8.000 M356.800 12.862 C 356.800 13.471,357.529 13.567,357.985 13.018 C 358.373 12.551,358.308 12.457,357.630 12.508 C 357.174 12.542,356.800 12.701,356.800 12.862 M368.104 19.914 C 368.133 20.310,368.472 20.629,368.863 20.629 C 369.515 20.629,369.520 20.574,368.922 19.914 C 368.567 19.521,368.225 19.200,368.163 19.200 C 368.101 19.200,368.074 19.521,368.104 19.914 M191.600 70.872 C 190.830 71.086,189.061 71.406,187.668 71.582 C 186.276 71.759,184.935 72.105,184.688 72.352 C 184.442 72.598,183.686 72.800,183.009 72.800 C 182.332 72.800,181.414 73.055,180.969 73.367 C 180.523 73.679,179.500 74.058,178.694 74.209 C 177.888 74.360,177.020 74.735,176.765 75.042 C 176.510 75.349,175.896 75.600,175.400 75.600 C 174.904 75.600,174.274 75.870,174.000 76.200 C 173.726 76.530,173.175 76.800,172.775 76.800 C 172.375 76.800,171.925 76.998,171.775 77.241 C 171.625 77.483,170.894 77.936,170.151 78.246 C 169.408 78.557,168.800 78.988,168.800 79.205 C 168.800 79.422,168.468 79.600,168.061 79.600 C 167.655 79.600,166.952 79.915,166.499 80.300 C 166.045 80.685,165.280 81.270,164.798 81.600 C 162.263 83.334,159.833 85.256,158.778 86.360 C 158.126 87.042,157.504 87.600,157.396 87.600 C 157.288 87.600,152.904 91.914,147.654 97.187 C 142.404 102.460,137.994 106.660,137.854 106.521 C 137.714 106.381,137.600 100.927,137.600 94.401 L 137.600 82.535 136.540 81.968 C 135.020 81.154,88.460 81.122,86.538 81.933 C 84.807 82.664,84.897 80.076,85.290 118.000 C 85.485 136.810,85.589 153.730,85.522 155.600 L 85.400 159.000 80.463 164.000 C 77.747 166.750,71.645 172.960,66.902 177.800 C 62.159 182.640,53.837 191.106,48.407 196.614 L 38.536 206.628 37.819 209.276 C 35.860 216.510,42.841 223.280,49.753 220.850 C 52.585 219.855,52.482 219.947,68.224 204.436 C 79.985 192.848,108.560 164.792,120.753 152.862 C 123.529 150.146,129.043 144.746,133.007 140.862 C 144.037 130.054,161.788 112.711,166.857 107.790 C 169.356 105.364,172.120 102.944,173.000 102.412 C 173.880 101.879,174.744 101.209,174.920 100.922 C 175.096 100.635,175.501 100.400,175.820 100.400 C 176.139 100.400,176.400 100.246,176.400 100.058 C 176.400 99.706,182.709 96.391,183.369 96.397 C 183.571 96.399,184.021 96.164,184.369 95.877 C 184.937 95.405,187.125 94.674,192.400 93.194 C 194.898 92.493,204.717 92.221,206.661 92.798 C 207.507 93.050,209.100 93.498,210.200 93.795 C 213.004 94.551,215.144 95.384,215.693 95.933 C 215.950 96.190,216.473 96.400,216.856 96.400 C 217.239 96.400,217.654 96.564,217.779 96.765 C 217.903 96.966,218.805 97.519,219.784 97.992 C 223.669 99.873,228.658 104.264,245.040 120.220 C 254.547 129.481,277.670 152.087,292.220 166.348 C 304.439 178.323,329.752 203.096,337.941 211.094 C 345.740 218.710,347.779 220.000,352.020 220.000 C 358.996 220.000,363.585 212.162,360.452 205.600 C 359.045 202.652,359.192 202.809,343.343 187.317 C 336.994 181.111,328.723 173.011,324.963 169.317 C 321.203 165.622,312.008 156.610,304.531 149.290 C 297.053 141.969,285.101 130.224,277.971 123.190 C 270.841 116.155,264.998 110.400,264.987 110.400 C 264.976 110.400,259.754 105.250,253.383 98.955 C 247.013 92.660,240.990 86.855,240.000 86.055 C 239.010 85.255,238.056 84.375,237.880 84.100 C 237.704 83.825,237.318 83.600,237.023 83.600 C 236.727 83.600,236.382 83.330,236.255 83.000 C 236.129 82.670,235.777 82.400,235.475 82.400 C 235.172 82.400,234.598 82.040,234.200 81.600 C 233.802 81.160,233.311 80.800,233.109 80.800 C 232.908 80.800,232.473 80.530,232.143 80.200 C 231.813 79.870,231.196 79.600,230.771 79.600 C 230.347 79.600,230.000 79.445,230.000 79.257 C 230.000 78.794,223.726 75.600,222.818 75.600 C 222.422 75.600,221.874 75.330,221.600 75.000 C 221.326 74.670,220.719 74.394,220.251 74.386 C 219.783 74.379,218.680 74.025,217.800 73.600 C 216.920 73.175,215.651 72.821,214.980 72.814 C 214.309 72.806,213.558 72.598,213.312 72.352 C 213.065 72.105,211.724 71.758,210.332 71.579 C 208.939 71.401,206.990 71.071,206.000 70.845 C 203.742 70.331,193.476 70.349,191.600 70.872 M211.600 73.143 C 219.078 75.168,220.800 75.796,226.113 78.435 C 230.599 80.664,236.898 84.742,239.400 87.038 C 240.830 88.350,259.765 106.731,268.205 115.000 C 270.001 116.760,278.024 124.590,286.033 132.400 C 294.042 140.210,303.746 149.692,307.597 153.470 C 311.449 157.249,315.950 161.637,317.600 163.222 C 319.250 164.807,326.233 171.615,333.118 178.352 C 340.003 185.088,348.502 193.390,352.006 196.800 C 359.183 203.784,360.786 206.153,360.795 209.787 C 360.811 216.272,355.177 220.733,349.341 218.856 C 345.305 217.557,346.267 218.397,326.321 198.757 C 316.134 188.727,306.360 179.123,304.600 177.414 C 302.840 175.706,296.442 169.424,290.382 163.454 C 236.569 110.439,230.425 104.447,227.176 101.814 C 212.324 89.777,196.706 88.018,180.235 96.527 C 173.431 100.042,170.162 102.944,144.780 128.000 C 131.520 141.090,118.202 154.230,115.184 157.200 C 112.167 160.170,100.209 171.960,88.612 183.400 C 51.067 220.436,52.332 219.233,49.987 220.117 C 43.182 222.680,36.506 216.193,38.607 209.062 C 39.271 206.810,37.849 208.323,68.954 176.778 C 75.799 169.835,82.525 162.966,83.900 161.512 L 86.400 158.869 86.400 121.315 C 86.400 92.639,86.513 83.647,86.880 83.280 C 87.621 82.539,135.329 82.592,135.945 83.334 C 136.242 83.692,136.423 87.870,136.494 96.028 C 136.590 107.042,136.663 108.201,137.271 108.318 C 137.706 108.402,141.480 104.933,147.973 98.483 C 165.679 80.891,172.673 76.382,187.400 73.062 C 188.940 72.715,190.560 72.345,191.000 72.240 C 193.345 71.681,208.683 72.353,211.600 73.143 M193.800 106.082 C 192.040 106.278,190.090 106.700,189.468 107.020 C 188.845 107.339,187.958 107.600,187.498 107.600 C 186.688 107.600,180.006 110.661,179.600 111.218 C 179.490 111.369,179.036 111.606,178.591 111.744 C 178.147 111.883,177.191 112.537,176.467 113.198 C 175.743 113.859,175.052 114.400,174.932 114.400 C 174.739 114.400,141.672 147.527,135.942 153.462 C 134.700 154.748,132.000 157.458,129.942 159.484 C 127.884 161.510,116.435 172.952,104.500 184.910 L 82.800 206.654 82.816 258.027 C 82.830 305.786,82.882 309.641,83.547 312.819 C 84.852 319.062,88.294 323.546,93.872 326.272 L 97.000 327.800 125.000 327.800 L 153.000 327.800 153.102 302.200 L 153.203 276.600 151.858 275.091 C 151.118 274.261,149.812 272.821,148.954 271.891 C 143.795 266.295,139.165 259.495,135.275 251.800 C 125.154 231.779,126.237 206.394,138.079 186.016 C 139.416 183.715,140.747 181.595,141.037 181.306 C 141.326 181.017,142.289 179.749,143.175 178.490 C 147.929 171.738,157.991 163.796,167.800 159.052 C 169.560 158.201,171.510 157.256,172.132 156.952 C 172.755 156.649,173.565 156.399,173.932 156.398 C 174.300 156.396,175.050 156.162,175.600 155.878 C 176.527 155.398,178.615 154.831,186.400 152.947 C 190.836 151.874,208.049 151.868,212.400 152.938 C 216.275 153.891,223.803 156.255,225.600 157.084 C 236.786 162.240,245.644 169.184,253.083 178.630 C 255.400 181.571,261.200 190.654,261.200 191.339 C 261.200 191.444,261.818 192.850,262.573 194.464 C 264.892 199.422,266.284 204.058,267.599 211.200 C 268.107 213.960,268.131 225.926,267.633 228.600 C 267.429 229.700,266.983 232.130,266.642 234.000 C 265.773 238.767,263.985 245.171,262.989 247.080 C 262.668 247.696,262.404 248.403,262.402 248.650 C 262.401 248.898,261.935 250.158,261.366 251.450 C 257.848 259.441,253.542 266.376,248.429 272.283 L 245.594 275.558 245.697 301.679 L 245.800 327.800 274.400 327.800 L 303.000 327.800 306.199 326.238 C 309.921 324.419,313.457 321.025,314.975 317.814 C 317.171 313.170,317.137 314.055,317.255 258.497 L 317.364 207.194 315.382 205.108 C 314.292 203.962,313.285 202.928,313.144 202.812 C 312.772 202.504,264.879 155.107,243.436 133.825 C 233.336 123.801,225.019 115.600,224.953 115.600 C 224.888 115.600,224.062 114.880,223.117 113.999 C 222.173 113.119,220.905 112.175,220.300 111.901 C 219.695 111.628,219.200 111.288,219.200 111.146 C 219.200 111.003,218.525 110.596,217.700 110.241 C 216.875 109.887,215.930 109.432,215.600 109.231 C 214.367 108.482,212.053 107.600,211.320 107.600 C 210.902 107.600,210.370 107.410,210.139 107.179 C 209.013 106.053,199.667 105.426,193.800 106.082 M206.003 107.215 C 206.771 107.444,208.266 107.801,209.323 108.009 C 211.670 108.471,219.337 112.097,221.032 113.547 C 221.710 114.126,222.732 114.963,223.303 115.406 C 224.206 116.108,241.858 133.477,286.787 177.872 C 293.284 184.292,302.596 193.472,307.480 198.272 C 313.691 204.376,316.446 207.355,316.644 208.182 C 317.064 209.930,316.430 310.336,315.982 313.117 C 315.041 318.960,309.015 325.648,303.810 326.625 C 303.029 326.771,302.293 327.050,302.172 327.245 C 302.048 327.446,289.922 327.600,274.241 327.600 L 246.530 327.600 246.255 302.258 C 245.950 274.088,245.775 276.274,248.599 273.000 C 254.157 266.557,259.416 257.932,262.378 250.400 C 262.854 249.190,263.408 247.840,263.610 247.400 C 264.563 245.321,265.726 241.111,267.367 233.800 C 269.206 225.601,269.215 213.048,267.387 206.500 C 267.064 205.345,266.517 203.365,266.171 202.100 C 262.537 188.799,252.181 173.882,240.350 164.905 C 235.568 161.277,226.428 156.011,224.891 155.998 C 224.731 155.996,224.150 155.761,223.600 155.475 C 212.928 149.923,187.406 149.761,175.000 155.167 C 174.560 155.359,173.300 155.832,172.200 156.219 C 154.603 162.411,136.847 180.654,131.924 197.600 C 131.700 198.370,131.385 199.180,131.224 199.400 C 130.855 199.904,129.437 205.877,128.565 210.600 C 127.136 218.335,127.801 233.227,129.833 239.013 C 130.145 239.901,130.400 240.954,130.400 241.353 C 130.400 241.752,130.658 242.646,130.973 243.340 C 131.288 244.033,132.265 246.310,133.144 248.400 C 134.886 252.542,136.971 256.636,137.845 257.631 C 138.150 257.979,138.400 258.416,138.400 258.604 C 138.400 259.846,145.644 269.290,150.425 274.279 L 152.800 276.759 152.795 301.279 C 152.792 314.766,152.681 326.205,152.548 326.700 L 152.307 327.600 125.741 327.600 C 100.495 327.600,99.060 327.561,96.868 326.823 C 89.574 324.366,84.993 319.155,84.028 312.218 C 83.425 307.884,83.431 207.863,84.034 206.736 C 84.659 205.568,174.579 115.999,177.138 113.996 C 184.066 108.570,198.866 105.094,206.003 107.215 M192.600 175.168 C 192.160 175.356,190.630 175.686,189.200 175.902 C 186.704 176.279,182.835 177.585,179.356 179.225 C 178.452 179.651,177.578 180.000,177.414 180.000 C 177.250 180.000,176.316 180.540,175.338 181.200 C 174.360 181.860,173.480 182.400,173.382 182.400 C 173.284 182.400,171.743 183.517,169.957 184.882 C 161.919 191.025,156.045 199.830,152.935 210.400 C 150.836 217.536,151.464 233.923,154.013 238.495 C 154.226 238.877,154.400 239.386,154.400 239.626 C 154.400 240.525,157.399 246.320,159.560 249.595 C 165.330 258.341,173.290 264.327,185.000 268.727 C 190.498 270.793,203.736 271.377,210.200 269.838 C 243.684 261.870,258.550 223.589,239.122 195.362 C 236.737 191.897,231.190 186.123,228.689 184.502 C 227.760 183.900,226.910 183.316,226.800 183.204 C 224.429 180.788,214.426 176.554,208.721 175.552 C 205.547 174.994,193.670 174.711,192.600 175.168 M204.600 175.814 C 212.649 176.754,218.094 178.703,226.214 183.552 C 233.537 187.924,241.495 198.568,244.792 208.400 C 247.801 217.372,247.594 232.765,244.389 238.495 C 244.175 238.877,244.000 239.387,244.000 239.630 C 244.000 243.981,233.558 257.434,226.738 261.868 C 225.782 262.490,224.762 263.224,224.471 263.499 C 224.181 263.775,223.784 264.000,223.589 264.000 C 223.394 264.000,222.319 264.540,221.200 265.200 C 220.081 265.860,218.948 266.401,218.682 266.402 C 218.417 266.404,217.750 266.639,217.200 266.925 C 208.884 271.252,191.810 271.396,182.600 267.219 C 182.160 267.019,180.630 266.354,179.200 265.739 C 160.210 257.584,147.685 232.228,153.049 212.800 C 154.462 207.684,155.041 206.024,156.530 202.818 C 164.081 186.557,178.713 177.018,198.800 175.260 C 199.130 175.231,201.740 175.480,204.600 175.814 M194.600 197.160 C 175.259 200.921,166.765 223.986,178.990 239.546 C 180.776 241.819,181.581 242.528,185.288 245.091 C 202.122 256.731,225.791 243.810,225.754 223.000 C 225.737 213.592,220.395 204.138,212.983 200.400 C 211.892 199.850,210.910 199.299,210.800 199.176 C 209.423 197.635,198.895 196.324,194.600 197.160 M206.560 198.389 C 223.783 203.314,230.811 223.935,220.198 238.400 C 210.344 251.829,189.831 252.079,179.387 238.897 C 173.256 231.159,172.103 218.827,176.797 211.200 C 177.000 210.870,177.647 209.790,178.234 208.800 C 183.335 200.208,196.282 195.449,206.560 198.389 " stroke="none" fill="#7eccfa" fill-rule="evenodd">
		</path>
		<path id="path3" d="M341.881 4.267 C 341.993 4.560,342.331 4.800,342.630 4.800 C 342.930 4.800,343.083 4.560,342.970 4.267 C 342.858 3.973,342.520 3.733,342.221 3.733 C 341.921 3.733,341.768 3.973,341.881 4.267 M348.400 6.600 C 348.978 7.297,349.600 7.388,349.600 6.776 C 349.600 6.543,349.420 6.464,349.200 6.600 C 348.980 6.736,348.800 6.657,348.800 6.424 C 348.800 6.191,348.598 6.000,348.351 6.000 C 348.041 6.000,348.056 6.185,348.400 6.600 M361.200 13.081 C 361.200 13.543,362.335 14.609,362.558 14.357 C 362.634 14.271,362.360 13.854,361.948 13.430 C 361.537 13.007,361.200 12.849,361.200 13.081 M16.188 34.322 C 15.975 34.475,15.743 34.870,15.673 35.200 C 15.572 35.681,15.686 35.663,16.250 35.110 C 16.958 34.414,16.910 33.805,16.188 34.322 M6.565 50.700 C 6.720 50.975,6.657 51.200,6.424 51.200 C 6.191 51.200,6.000 51.509,6.000 51.886 C 6.000 52.532,6.039 52.532,6.683 51.889 C 7.255 51.317,7.278 51.124,6.824 50.703 C 6.396 50.305,6.342 50.305,6.565 50.700 M393.004 50.793 C 392.830 51.075,392.931 51.434,393.237 51.623 C 393.966 52.073,394.155 51.806,393.692 50.979 C 393.407 50.469,393.234 50.422,393.004 50.793 M4.432 57.124 C 4.414 57.412,4.257 57.559,4.083 57.451 C 3.909 57.344,3.738 57.633,3.703 58.094 C 3.646 58.854,3.698 58.874,4.266 58.305 C 4.611 57.961,4.796 57.436,4.678 57.139 C 4.507 56.711,4.457 56.708,4.432 57.124 M395.271 57.468 C 395.342 57.834,395.595 58.199,395.833 58.278 C 396.482 58.494,396.356 57.269,395.704 57.019 C 395.337 56.878,395.187 57.033,395.271 57.468 M0.000 266.800 C 0.000 306.533,0.135 326.800,0.400 326.800 C 0.629 326.800,0.800 328.000,0.800 329.600 C 0.800 331.822,0.924 332.400,1.400 332.400 C 1.878 332.400,2.000 332.985,2.000 335.269 C 2.000 337.304,2.181 338.337,2.623 338.825 C 2.965 339.204,3.315 340.272,3.400 341.200 C 3.485 342.128,3.835 343.196,4.177 343.575 C 4.520 343.953,4.800 344.641,4.800 345.103 C 4.800 345.565,5.070 346.213,5.400 346.543 C 5.730 346.873,6.000 347.637,6.000 348.240 C 6.000 348.843,6.284 349.651,6.632 350.035 C 6.979 350.419,7.318 351.230,7.384 351.837 C 7.451 352.445,7.797 353.155,8.153 353.415 C 8.509 353.675,8.800 354.183,8.800 354.544 C 8.800 354.905,9.070 355.200,9.400 355.200 C 9.798 355.200,10.000 355.598,10.000 356.380 C 10.000 357.029,10.273 357.713,10.608 357.900 C 10.942 358.087,11.298 358.672,11.400 359.200 C 11.502 359.728,11.858 360.313,12.192 360.500 C 12.527 360.687,12.800 361.082,12.800 361.377 C 12.800 361.673,13.070 362.018,13.400 362.145 C 13.730 362.271,14.000 362.732,14.000 363.168 C 14.000 363.604,14.239 364.104,14.530 364.280 C 14.822 364.456,15.176 364.915,15.318 365.300 C 15.459 365.685,15.851 366.000,16.187 366.000 C 16.531 366.000,16.800 366.348,16.800 366.793 C 16.800 367.229,17.430 368.234,18.200 369.027 C 18.970 369.820,19.600 370.633,19.600 370.834 C 19.600 371.035,19.870 371.200,20.200 371.200 C 20.530 371.200,20.800 371.451,20.800 371.757 C 20.800 372.064,21.070 372.418,21.400 372.545 C 21.730 372.671,22.000 373.051,22.000 373.387 C 22.000 373.739,22.351 374.000,22.824 374.000 C 23.305 374.000,23.538 374.177,23.383 374.427 C 23.238 374.662,23.497 374.953,23.960 375.074 C 24.422 375.194,24.800 375.548,24.800 375.859 C 24.800 376.170,25.070 376.529,25.400 376.655 C 25.730 376.782,26.000 377.046,26.000 377.243 C 26.000 377.822,27.549 379.200,28.200 379.200 C 28.530 379.200,28.800 379.470,28.800 379.800 C 28.800 380.130,28.944 380.400,29.119 380.400 C 29.295 380.400,30.060 381.024,30.819 381.787 C 31.579 382.550,32.335 383.180,32.500 383.187 C 32.665 383.194,33.160 383.515,33.600 383.900 C 35.743 385.775,36.902 386.587,38.300 387.191 C 38.795 387.405,39.200 387.761,39.200 387.982 C 39.200 388.204,39.643 388.496,40.184 388.632 C 40.725 388.767,41.377 389.131,41.633 389.439 C 41.889 389.748,42.417 390.000,42.806 390.000 C 43.196 390.000,43.618 390.270,43.745 390.600 C 43.871 390.930,44.431 391.200,44.987 391.200 C 45.607 391.200,46.000 391.426,46.000 391.782 C 46.000 392.128,46.556 392.468,47.372 392.621 C 48.127 392.763,48.841 393.131,48.960 393.439 C 49.086 393.769,49.738 394.000,50.538 394.000 C 51.288 394.000,52.126 394.270,52.400 394.600 C 52.674 394.930,53.267 395.200,53.717 395.200 C 54.168 395.200,54.859 395.491,55.252 395.847 C 55.646 396.203,56.785 396.587,57.784 396.699 C 58.955 396.831,59.600 397.099,59.600 397.452 C 59.600 397.859,60.259 398.000,62.157 398.000 C 64.061 398.000,64.773 398.153,64.945 398.600 C 65.107 399.023,65.768 399.200,67.187 399.200 C 68.294 399.200,69.200 399.380,69.200 399.600 C 69.200 399.866,113.067 400.000,200.000 400.000 C 286.933 400.000,330.800 399.866,330.800 399.600 C 330.800 399.380,331.790 399.200,333.000 399.200 C 334.689 399.200,335.200 399.061,335.200 398.600 C 335.200 398.129,335.750 398.000,337.751 398.000 C 339.442 398.000,340.458 397.812,340.764 397.443 C 341.018 397.137,342.014 396.769,342.977 396.624 C 343.941 396.480,344.829 396.100,344.952 395.781 C 345.075 395.461,345.596 395.200,346.111 395.200 C 346.626 395.200,347.396 394.936,347.824 394.613 C 348.251 394.290,349.101 394.020,349.713 394.013 C 350.324 394.006,350.922 393.748,351.040 393.439 C 351.159 393.131,351.873 392.763,352.628 392.621 C 353.444 392.468,354.000 392.128,354.000 391.782 C 354.000 391.426,354.393 391.200,355.013 391.200 C 355.569 391.200,356.129 390.930,356.255 390.600 C 356.382 390.270,356.804 390.000,357.194 390.000 C 357.583 390.000,358.111 389.748,358.367 389.439 C 358.623 389.131,359.275 388.767,359.816 388.632 C 360.357 388.496,360.800 388.204,360.800 387.982 C 360.800 387.761,361.205 387.405,361.700 387.191 C 363.098 386.587,364.257 385.775,366.400 383.900 C 366.840 383.515,367.335 383.194,367.500 383.187 C 367.665 383.180,368.421 382.550,369.181 381.787 C 369.940 381.024,370.705 380.400,370.881 380.400 C 371.056 380.400,371.200 380.130,371.200 379.800 C 371.200 379.470,371.470 379.200,371.800 379.200 C 372.451 379.200,374.000 377.822,374.000 377.243 C 374.000 377.046,374.270 376.782,374.600 376.655 C 374.930 376.529,375.200 376.149,375.200 375.813 C 375.200 375.476,375.476 375.200,375.813 375.200 C 376.149 375.200,376.529 374.930,376.655 374.600 C 376.782 374.270,377.136 374.000,377.443 374.000 C 377.749 374.000,378.000 373.749,378.000 373.443 C 378.000 373.136,378.270 372.782,378.600 372.655 C 378.930 372.529,379.200 372.149,379.200 371.813 C 379.200 371.476,379.470 371.200,379.800 371.200 C 380.130 371.200,380.400 371.035,380.400 370.834 C 380.400 370.633,381.030 369.820,381.800 369.027 C 382.570 368.234,383.200 367.229,383.200 366.793 C 383.200 366.334,383.469 366.000,383.837 366.000 C 384.188 366.000,384.566 365.652,384.677 365.228 C 384.788 364.803,385.131 364.359,385.439 364.240 C 385.748 364.122,386.000 363.654,386.000 363.200 C 386.000 362.746,386.270 362.271,386.600 362.145 C 386.930 362.018,387.200 361.574,387.200 361.157 C 387.200 360.741,387.456 360.400,387.768 360.400 C 388.081 360.400,388.452 359.875,388.593 359.233 C 388.734 358.592,389.108 357.967,389.424 357.846 C 389.750 357.721,390.000 357.098,390.000 356.413 C 390.000 355.601,390.199 355.200,390.600 355.200 C 390.930 355.200,391.200 354.859,391.200 354.443 C 391.200 354.026,391.460 353.586,391.778 353.464 C 392.096 353.342,392.475 352.609,392.620 351.835 C 392.765 351.062,393.135 350.220,393.442 349.965 C 393.749 349.710,394.000 348.971,394.000 348.322 C 394.000 347.674,394.270 346.873,394.600 346.543 C 394.930 346.213,395.200 345.565,395.200 345.103 C 395.200 344.641,395.491 343.941,395.847 343.548 C 396.203 343.154,396.586 342.018,396.699 341.023 C 396.811 340.027,397.150 339.008,397.451 338.757 C 397.824 338.448,398.000 337.370,398.000 335.394 C 398.000 333.178,398.143 332.431,398.600 332.255 C 399.049 332.083,399.200 331.366,399.200 329.413 C 399.200 327.938,399.374 326.800,399.600 326.800 C 399.865 326.800,400.000 306.533,400.000 266.800 C 400.000 227.067,399.865 206.800,399.600 206.800 C 399.380 206.800,399.197 207.205,399.194 207.700 C 399.183 209.342,398.420 209.976,398.352 208.400 C 398.311 207.455,398.235 207.293,398.118 207.900 L 397.944 208.800 380.572 208.800 L 363.200 208.800 363.200 210.151 C 363.200 210.894,362.930 211.726,362.600 212.000 C 362.270 212.274,362.000 213.108,362.000 213.853 C 362.000 214.713,361.708 215.458,361.200 215.893 C 360.760 216.270,360.394 216.763,360.388 216.989 C 360.303 219.796,348.360 222.162,346.372 219.766 C 346.113 219.455,345.582 219.200,345.192 219.200 C 344.801 219.200,343.562 218.300,342.439 217.200 C 341.315 216.100,340.217 215.200,339.998 215.200 C 339.779 215.200,339.600 214.930,339.600 214.600 C 339.600 214.270,339.342 214.000,339.027 214.000 C 338.712 214.000,338.340 213.640,338.200 213.200 C 338.060 212.760,337.688 212.400,337.373 212.400 C 337.058 212.400,336.800 212.130,336.800 211.800 C 336.800 211.470,336.575 211.197,336.300 211.194 C 336.025 211.190,335.191 210.650,334.446 209.994 L 333.092 208.800 326.146 208.800 C 320.857 208.800,319.200 208.919,319.199 209.300 C 319.198 209.575,318.943 212.590,318.632 216.000 C 318.206 220.671,318.006 233.295,317.821 267.200 C 317.553 316.275,317.705 313.224,315.264 318.369 C 313.838 321.375,310.031 325.075,306.592 326.800 L 303.800 328.200 274.830 328.310 C 257.657 328.376,245.711 328.271,245.494 328.054 C 245.284 327.844,245.033 316.516,244.907 301.544 L 244.687 275.400 246.244 273.728 C 249.263 270.486,254.400 263.618,254.400 262.824 C 254.400 262.613,254.625 262.296,254.900 262.120 C 255.175 261.944,256.177 260.270,257.127 258.400 C 258.076 256.530,258.995 254.730,259.168 254.400 C 260.216 252.404,262.396 246.753,262.413 245.992 C 262.420 245.667,262.690 245.051,263.013 244.624 C 263.336 244.196,263.606 243.386,263.614 242.824 C 263.622 242.261,263.886 241.350,264.200 240.800 C 264.514 240.250,264.778 239.244,264.786 238.564 C 264.794 237.884,265.070 236.444,265.401 235.364 C 266.784 230.846,267.238 221.327,266.426 213.900 L 265.868 208.800 256.534 208.800 L 247.200 208.800 247.200 209.951 C 247.200 210.584,247.470 211.326,247.800 211.600 C 248.660 212.313,248.650 230.209,247.788 232.600 C 247.471 233.480,247.208 234.650,247.204 235.200 C 247.199 235.750,246.926 236.716,246.598 237.346 C 246.269 237.976,246.000 238.699,246.000 238.952 C 246.000 239.205,245.640 240.084,245.200 240.904 C 244.760 241.725,244.400 242.646,244.400 242.950 C 244.400 243.253,244.130 243.726,243.800 244.000 C 243.470 244.274,243.200 244.823,243.200 245.220 C 243.200 245.618,242.930 246.213,242.600 246.543 C 242.270 246.873,242.000 247.248,242.000 247.376 C 242.000 247.697,239.384 251.437,237.701 253.522 C 233.804 258.348,227.061 263.843,222.200 266.153 C 216.213 268.998,213.992 269.767,208.600 270.863 C 206.000 271.392,193.182 271.389,190.600 270.860 C 186.288 269.975,184.549 269.526,183.300 268.974 C 182.585 268.658,181.415 268.141,180.700 267.825 C 177.757 266.524,174.953 265.172,174.220 264.701 C 169.962 261.966,169.127 261.298,164.836 257.200 C 162.192 254.674,158.570 250.090,157.400 247.787 C 156.960 246.921,156.375 245.972,156.100 245.678 C 155.825 245.383,155.600 244.818,155.600 244.420 C 155.600 244.023,155.330 243.474,155.000 243.200 C 154.670 242.926,154.400 242.496,154.400 242.245 C 154.400 241.994,154.040 241.116,153.600 240.296 C 153.160 239.475,152.800 238.463,152.800 238.047 C 152.800 237.632,152.531 236.776,152.202 236.146 C 151.874 235.516,151.598 234.100,151.590 233.000 C 151.581 231.883,151.315 230.657,150.987 230.224 C 150.111 229.065,150.123 214.881,151.000 214.545 C 151.453 214.371,151.600 213.639,151.600 211.557 L 151.600 208.800 141.400 208.800 C 132.827 208.800,131.200 208.891,131.200 209.371 C 131.200 209.686,130.947 210.196,130.638 210.505 C 128.773 212.370,129.765 235.760,131.928 240.926 C 132.188 241.545,132.400 242.366,132.400 242.750 C 132.400 243.133,132.664 243.796,132.987 244.224 C 133.310 244.651,133.586 245.270,133.601 245.600 C 133.615 245.930,133.975 246.920,134.400 247.800 C 134.825 248.680,135.179 249.704,135.186 250.076 C 135.194 250.448,135.357 250.850,135.548 250.968 C 135.739 251.086,136.413 252.222,137.044 253.491 C 137.675 254.761,138.317 255.894,138.471 256.008 C 138.624 256.123,138.949 256.663,139.192 257.208 C 139.435 257.754,139.854 258.560,140.122 259.000 C 140.959 260.373,142.172 262.191,142.391 262.400 C 142.820 262.810,144.400 265.177,144.400 265.409 C 144.400 265.542,144.840 266.135,145.377 266.726 C 145.915 267.316,148.030 269.681,150.077 271.981 L 153.800 276.162 153.658 301.981 C 153.579 316.181,153.385 327.940,153.227 328.110 C 153.069 328.281,140.173 328.371,124.570 328.310 L 96.200 328.200 93.259 326.652 C 88.947 324.382,84.363 319.217,83.739 315.925 C 83.600 315.196,83.288 314.347,83.044 314.039 C 82.728 313.640,82.520 299.954,82.324 266.639 C 82.158 238.568,81.884 218.678,81.641 217.000 C 81.417 215.460,81.115 212.985,80.970 211.500 L 80.707 208.800 73.525 208.800 C 68.329 208.800,66.196 208.938,65.812 209.300 C 65.520 209.575,64.600 210.340,63.768 211.000 C 62.310 212.156,59.678 214.560,55.625 218.437 C 54.568 219.448,53.456 220.400,53.152 220.553 C 52.848 220.706,52.150 221.092,51.600 221.410 C 47.886 223.558,38.000 220.592,38.000 217.329 C 38.000 217.024,37.730 216.671,37.400 216.545 C 37.070 216.418,36.800 215.872,36.800 215.331 C 36.800 214.790,36.611 213.994,36.380 213.562 C 36.020 212.890,35.707 211.129,35.623 209.300 C 35.605 208.908,31.967 208.800,18.828 208.800 L 2.056 208.800 1.882 207.900 C 1.765 207.293,1.689 207.455,1.648 208.400 C 1.580 209.976,0.817 209.342,0.806 207.700 C 0.803 207.205,0.620 206.800,0.400 206.800 C 0.135 206.800,0.000 227.067,0.000 266.800 M179.900 209.232 C 179.515 209.456,179.200 209.906,179.200 210.232 C 179.200 210.558,178.930 210.929,178.600 211.055 C 178.270 211.182,178.000 211.514,178.000 211.794 C 178.000 212.073,177.744 212.514,177.431 212.774 C 177.118 213.034,176.745 213.942,176.601 214.792 C 176.458 215.642,176.084 216.436,175.770 216.556 C 174.926 216.880,174.964 229.055,175.813 230.176 C 176.136 230.604,176.400 231.300,176.400 231.724 C 176.400 232.148,177.030 233.532,177.800 234.800 C 178.570 236.068,179.200 237.287,179.200 237.510 C 179.200 237.732,179.470 238.018,179.800 238.145 C 180.130 238.271,180.400 238.651,180.400 238.987 C 180.400 239.324,180.566 239.600,180.768 239.600 C 180.970 239.600,181.915 240.410,182.868 241.400 C 183.821 242.391,185.410 243.592,186.400 244.070 C 187.390 244.547,188.629 245.267,189.154 245.669 C 189.679 246.071,190.499 246.400,190.977 246.400 C 191.456 246.400,192.196 246.664,192.624 246.987 C 193.554 247.691,205.778 247.883,206.200 247.200 C 206.336 246.980,207.241 246.600,208.212 246.355 C 209.182 246.111,210.183 245.661,210.437 245.356 C 210.690 245.050,211.124 244.800,211.400 244.800 C 211.676 244.800,212.126 244.530,212.400 244.200 C 212.674 243.870,213.162 243.600,213.485 243.600 C 214.078 243.600,218.996 238.813,219.877 237.377 C 220.140 236.950,221.130 235.070,222.077 233.200 L 223.799 229.800 223.777 223.117 C 223.758 217.549,223.646 216.314,223.108 215.717 C 222.753 215.323,222.335 214.490,222.180 213.868 C 222.024 213.245,221.650 212.641,221.349 212.525 C 221.047 212.409,220.800 211.996,220.800 211.606 C 220.800 211.217,220.530 210.674,220.200 210.400 C 219.870 210.126,219.600 209.654,219.600 209.351 C 219.600 208.659,181.082 208.543,179.900 209.232 " stroke="none" fill="#1b7ac7" fill-rule="evenodd">
		</path>
		<path id="path4" d="M73.130 0.409 C 73.056 0.633,72.313 0.843,71.480 0.874 C 69.784 0.938,69.485 1.172,70.020 2.019 C 70.295 2.453,70.389 2.468,70.394 2.076 C 70.397 1.788,70.565 1.655,70.766 1.779 C 70.967 1.903,71.203 1.791,71.290 1.531 C 71.378 1.267,71.746 1.170,72.117 1.313 C 72.552 1.480,72.694 1.810,72.524 2.254 C 72.325 2.773,72.472 2.728,73.131 2.069 C 74.102 1.098,74.797 0.945,74.806 1.700 C 74.814 2.362,75.585 1.187,75.594 0.500 C 75.601 -0.100,73.328 -0.185,73.130 0.409 M76.046 0.467 C 76.021 0.834,75.896 1.464,75.770 1.867 C 75.552 2.562,75.563 2.563,75.997 1.887 C 76.248 1.496,76.373 0.866,76.273 0.487 C 76.111 -0.132,76.088 -0.134,76.046 0.467 M78.239 0.642 C 78.104 0.996,77.735 1.184,77.417 1.062 C 77.042 0.918,76.915 1.034,77.053 1.395 C 77.170 1.700,77.566 1.854,77.933 1.737 C 79.845 1.129,80.800 0.667,80.800 0.351 C 80.800 -0.181,80.094 -0.069,79.865 0.500 C 79.704 0.900,79.657 0.900,79.632 0.500 C 79.586 -0.223,78.530 -0.115,78.239 0.642 M81.342 0.962 C 81.374 1.491,81.535 1.840,81.700 1.738 C 82.124 1.477,82.075 -0.000,81.642 0.000 C 81.446 0.000,81.311 0.433,81.342 0.962 M319.600 0.413 C 319.600 0.873,320.079 1.089,321.700 1.362 C 322.940 1.571,323.055 1.398,322.229 0.571 C 321.572 -0.085,319.600 -0.204,319.600 0.413 M323.857 0.595 C 323.732 0.923,323.757 1.171,323.914 1.148 C 324.792 1.017,325.260 1.268,325.068 1.767 C 324.948 2.079,325.109 2.433,325.425 2.554 C 325.741 2.676,326.000 2.601,326.000 2.387 C 326.000 2.174,326.405 1.997,326.900 1.994 C 327.618 1.989,327.680 1.912,327.205 1.612 C 326.731 1.312,326.784 1.248,327.461 1.300 C 327.978 1.338,328.234 1.567,328.113 1.882 C 328.004 2.167,328.069 2.420,328.257 2.445 C 332.111 2.947,332.852 2.762,331.769 1.566 C 331.068 0.791,331.014 0.786,330.743 1.474 C 330.522 2.033,330.450 2.057,330.428 1.578 C 330.408 1.125,329.943 0.947,328.714 0.920 C 327.786 0.899,326.961 0.684,326.880 0.441 C 326.656 -0.231,324.125 -0.102,323.857 0.595 M68.478 1.282 C 67.744 2.016,67.910 2.800,68.800 2.800 C 69.626 2.800,69.824 2.172,69.272 1.302 C 69.027 0.916,68.848 0.912,68.478 1.282 M61.555 3.295 C 61.093 4.013,60.801 4.330,60.907 4.000 C 61.039 3.586,60.815 3.400,60.187 3.400 C 59.686 3.400,59.360 3.535,59.462 3.700 C 59.564 3.865,59.282 4.000,58.836 4.000 C 58.325 4.000,58.101 4.197,58.230 4.533 C 58.452 5.111,59.600 5.279,59.600 4.733 C 59.600 4.550,59.750 4.400,59.933 4.400 C 60.117 4.400,60.267 4.640,60.267 4.933 C 60.267 5.269,59.781 5.467,58.956 5.467 C 58.233 5.467,57.679 5.272,57.722 5.033 C 57.765 4.795,57.440 4.657,57.000 4.726 C 56.560 4.796,55.759 4.840,55.221 4.824 C 54.319 4.798,54.298 4.837,54.955 5.318 C 55.619 5.803,55.604 5.844,54.735 5.892 C 51.432 6.075,51.195 6.135,51.296 6.750 C 51.371 7.201,51.064 7.380,50.200 7.389 C 49.441 7.396,48.895 7.657,48.713 8.100 C 48.462 8.711,47.679 9.002,46.700 8.847 C 46.535 8.821,46.400 9.040,46.400 9.333 C 46.400 9.858,46.191 9.925,44.207 10.042 C 43.662 10.074,42.987 10.393,42.707 10.750 C 42.256 11.328,42.277 11.339,42.900 10.851 C 43.509 10.374,43.600 10.393,43.600 10.996 C 43.600 11.537,43.340 11.653,42.425 11.518 C 41.432 11.373,41.305 11.448,41.603 12.006 C 41.856 12.479,41.792 12.667,41.378 12.667 C 41.060 12.667,40.800 12.489,40.800 12.271 C 40.800 12.054,40.485 12.150,40.100 12.486 C 39.715 12.821,39.130 13.020,38.800 12.927 C 38.470 12.834,38.650 13.031,39.200 13.365 C 40.152 13.942,39.869 14.209,38.495 14.029 C 38.217 13.992,37.887 14.230,37.762 14.556 C 37.626 14.908,37.262 15.052,36.867 14.911 C 36.500 14.780,36.320 14.806,36.467 14.970 C 36.766 15.303,35.413 16.800,34.813 16.800 C 34.599 16.800,34.522 16.485,34.640 16.100 C 34.758 15.715,34.589 15.848,34.263 16.395 C 33.937 16.942,33.772 17.555,33.897 17.757 C 34.022 17.959,33.916 17.995,33.662 17.838 C 33.408 17.681,33.200 17.773,33.200 18.043 C 33.200 18.313,33.083 18.417,32.941 18.274 C 32.798 18.131,32.366 18.377,31.982 18.821 C 31.597 19.265,31.039 19.576,30.741 19.514 C 30.444 19.451,30.249 19.638,30.310 19.930 C 30.371 20.225,30.227 20.340,29.983 20.189 C 29.735 20.036,29.449 20.292,29.321 20.782 C 29.196 21.258,28.870 21.559,28.593 21.453 C 28.318 21.347,27.576 21.829,26.946 22.524 C 26.267 23.272,26.167 23.479,26.700 23.032 C 27.471 22.384,27.600 22.367,27.600 22.911 C 27.600 23.260,27.244 23.659,26.808 23.797 C 26.373 23.936,26.034 24.173,26.055 24.324 C 26.221 25.489,25.908 26.000,25.027 26.000 C 24.405 26.000,23.962 26.289,23.800 26.800 C 23.660 27.240,23.260 27.600,22.911 27.600 C 22.367 27.600,22.384 27.471,23.032 26.700 C 23.462 26.188,23.236 26.300,22.508 26.961 C 21.804 27.600,21.305 28.246,21.399 28.398 C 21.492 28.549,21.014 29.083,20.337 29.583 C 19.404 30.273,19.235 30.575,19.641 30.826 C 20.067 31.089,20.037 31.211,19.491 31.420 C 19.114 31.565,18.904 31.845,19.026 32.042 C 19.148 32.239,18.937 32.400,18.557 32.400 C 18.177 32.400,17.972 32.505,18.100 32.633 C 18.228 32.762,17.988 33.212,17.567 33.633 C 17.145 34.055,16.800 34.670,16.800 35.000 C 16.800 35.330,16.530 35.600,16.200 35.600 C 15.864 35.600,15.600 35.957,15.600 36.410 C 15.600 36.911,15.209 37.368,14.576 37.609 C 14.013 37.823,13.651 38.158,13.772 38.354 C 13.892 38.549,13.725 38.930,13.400 39.200 C 13.075 39.470,12.925 39.878,13.066 40.107 C 13.208 40.336,13.136 40.408,12.907 40.266 C 12.678 40.125,12.245 40.311,11.945 40.679 C 11.467 41.268,11.489 41.316,12.133 41.075 C 12.631 40.888,12.810 40.960,12.690 41.300 C 12.593 41.575,12.212 41.774,11.843 41.742 C 11.280 41.694,11.255 41.786,11.686 42.317 C 12.121 42.853,12.098 42.911,11.529 42.699 C 10.835 42.439,9.684 43.417,10.143 43.876 C 10.284 44.018,10.400 43.893,10.400 43.600 C 10.400 42.930,10.927 43.423,11.041 44.199 C 11.088 44.516,10.917 44.736,10.663 44.688 C 10.408 44.639,10.197 44.891,10.194 45.246 C 10.191 45.601,10.003 46.141,9.777 46.446 C 9.552 46.751,9.127 47.481,8.833 48.068 C 8.481 48.772,8.089 49.056,7.684 48.900 C 7.266 48.740,7.166 48.822,7.374 49.157 C 7.548 49.439,7.362 50.022,6.939 50.518 C 6.382 51.172,6.364 51.260,6.864 50.874 C 7.725 50.210,8.211 50.932,7.429 51.713 C 7.035 52.107,6.982 52.422,7.261 52.701 C 7.539 52.979,7.512 53.207,7.173 53.417 C 6.853 53.615,6.778 53.559,6.962 53.262 C 7.119 53.008,7.057 52.800,6.824 52.800 C 6.591 52.800,6.400 53.171,6.400 53.624 C 6.400 54.077,6.265 54.365,6.100 54.266 C 5.935 54.166,5.577 54.326,5.304 54.621 C 4.992 54.959,4.955 55.248,5.204 55.402 C 5.422 55.537,5.600 55.427,5.600 55.157 C 5.600 54.887,5.699 54.765,5.819 54.886 C 5.940 55.007,5.911 55.615,5.755 56.238 C 5.500 57.252,5.438 57.288,5.163 56.585 C 4.918 55.957,4.851 56.056,4.828 57.080 C 4.810 57.899,5.052 58.507,5.500 58.768 C 6.161 59.153,6.159 59.176,5.476 59.188 C 5.078 59.195,4.856 59.367,4.982 59.571 C 5.108 59.775,4.849 60.057,4.406 60.198 C 3.963 60.339,3.600 60.668,3.600 60.931 C 3.600 61.193,3.251 61.626,2.824 61.892 C 1.939 62.445,1.844 64.035,2.715 63.700 C 3.060 63.568,3.112 63.393,2.855 63.234 C 2.617 63.087,2.584 62.750,2.776 62.438 C 3.347 61.515,4.014 62.311,3.595 63.414 C 3.346 64.068,3.359 64.400,3.634 64.400 C 3.861 64.400,3.924 64.600,3.772 64.845 C 3.621 65.089,3.746 65.447,4.049 65.639 C 4.477 65.910,4.433 65.989,3.851 65.994 C 3.231 65.999,3.188 66.103,3.600 66.600 C 3.944 67.015,3.959 67.200,3.649 67.200 C 3.402 67.200,3.200 67.020,3.200 66.800 C 3.200 66.580,2.960 66.400,2.667 66.400 C 2.373 66.400,2.133 66.662,2.133 66.982 C 2.133 67.303,2.283 67.472,2.467 67.359 C 2.650 67.245,2.800 67.332,2.800 67.552 C 2.800 67.771,3.143 67.924,3.561 67.893 C 4.042 67.857,4.275 67.589,4.194 67.168 C 4.120 66.784,4.476 66.281,5.033 65.983 C 5.565 65.698,6.000 65.315,6.000 65.132 C 6.000 64.950,93.300 64.800,200.000 64.800 C 336.274 64.800,394.000 64.926,394.000 65.224 C 394.000 65.457,394.165 65.545,394.366 65.421 C 394.567 65.297,394.823 65.421,394.934 65.698 C 395.091 66.087,395.144 66.082,395.168 65.676 C 395.186 65.388,395.356 65.249,395.547 65.367 C 395.738 65.485,395.873 65.181,395.847 64.691 C 395.820 64.173,396.010 63.842,396.300 63.900 C 396.895 64.019,396.975 62.955,396.397 62.598 C 396.176 62.461,395.886 62.631,395.754 62.975 C 395.457 63.748,394.800 63.798,394.800 63.047 C 394.800 62.742,395.178 62.394,395.640 62.274 C 396.111 62.150,396.363 61.863,396.213 61.620 C 396.065 61.382,395.796 61.279,395.614 61.391 C 395.433 61.504,395.177 61.317,395.046 60.977 C 394.911 60.623,394.978 60.463,395.205 60.603 C 395.422 60.737,395.600 60.642,395.600 60.390 C 395.600 60.139,395.375 60.013,395.100 60.110 C 394.825 60.207,394.620 60.552,394.644 60.876 C 394.669 61.201,394.463 61.467,394.187 61.467 C 393.824 61.467,393.894 60.981,394.443 59.700 C 395.329 57.633,395.357 57.456,394.732 57.842 C 394.417 58.036,394.348 57.913,394.519 57.466 C 394.689 57.024,394.569 56.800,394.164 56.800 C 393.828 56.800,393.666 56.617,393.804 56.393 C 393.942 56.170,394.223 56.091,394.428 56.217 C 394.632 56.344,394.814 56.302,394.831 56.124 C 394.847 55.946,394.920 55.497,394.991 55.128 C 395.136 54.378,394.181 53.845,393.464 54.275 C 393.209 54.428,393.247 54.249,393.549 53.877 C 394.049 53.261,393.903 53.026,393.100 53.153 C 392.935 53.179,392.800 53.020,392.800 52.800 C 392.800 52.179,392.729 51.866,392.381 50.951 C 392.183 50.431,392.233 49.927,392.509 49.651 C 392.950 49.210,392.894 49.152,391.925 49.050 C 391.664 49.023,391.299 48.415,391.114 47.700 C 390.929 46.985,390.592 46.400,390.365 46.400 C 390.138 46.400,390.064 46.220,390.200 46.000 C 390.336 45.780,390.270 45.600,390.053 45.600 C 389.836 45.600,389.725 45.074,389.806 44.430 C 389.899 43.694,389.716 43.064,389.311 42.730 C 388.737 42.258,388.698 42.330,388.946 43.400 C 389.148 44.273,389.114 44.436,388.818 44.000 C 388.595 43.670,388.409 43.085,388.406 42.700 C 388.403 42.315,388.209 42.000,387.976 42.000 C 387.743 42.000,387.655 41.835,387.779 41.634 C 387.903 41.433,387.779 41.177,387.502 41.066 C 387.128 40.915,387.140 40.855,387.549 40.832 C 387.990 40.806,388.000 40.682,387.604 40.204 C 387.332 39.877,386.905 39.731,386.655 39.881 C 386.405 40.031,386.451 39.845,386.757 39.467 C 387.063 39.090,387.198 38.665,387.057 38.524 C 386.916 38.382,386.800 38.457,386.800 38.691 C 386.800 38.924,386.539 39.214,386.220 39.337 C 385.834 39.485,385.715 39.367,385.862 38.983 C 385.988 38.655,385.783 38.292,385.385 38.139 C 384.729 37.887,384.731 37.840,385.420 37.336 C 386.119 36.825,386.114 36.800,385.322 36.800 C 384.575 36.800,383.191 35.305,383.206 34.514 C 383.209 34.341,383.380 34.465,383.584 34.788 C 383.789 35.112,384.101 35.222,384.278 35.034 C 384.455 34.845,384.348 34.601,384.041 34.492 C 383.289 34.226,381.200 32.206,381.200 31.746 C 381.200 31.544,380.705 30.822,380.100 30.143 C 379.495 29.463,378.798 28.568,378.552 28.153 C 378.285 27.704,377.760 27.450,377.252 27.525 C 376.693 27.607,376.400 27.436,376.400 27.025 C 376.400 26.681,376.196 26.400,375.946 26.400 C 375.408 26.400,373.599 24.534,373.872 24.261 C 373.976 24.158,373.706 23.961,373.273 23.823 C 372.841 23.686,372.391 23.209,372.275 22.764 C 372.090 22.059,372.150 22.021,372.731 22.470 C 373.194 22.827,373.161 22.707,372.625 22.079 C 372.199 21.580,371.614 21.262,371.325 21.373 C 371.036 21.484,370.800 21.338,370.800 21.049 C 370.800 20.379,369.421 19.113,369.071 19.462 C 368.926 19.608,368.975 19.929,369.181 20.177 C 369.436 20.485,369.317 20.629,368.806 20.629 C 368.394 20.629,368.066 20.532,368.076 20.414 C 368.181 19.215,367.958 18.646,367.600 19.200 C 367.318 19.636,367.211 19.657,367.206 19.276 C 367.202 18.965,366.998 18.874,366.700 19.053 C 366.409 19.228,366.450 19.039,366.800 18.600 C 367.130 18.186,367.194 17.970,366.942 18.121 C 366.512 18.379,366.018 17.681,365.770 16.463 C 365.709 16.168,365.528 15.808,365.366 15.663 C 365.205 15.519,365.181 15.703,365.314 16.073 C 365.486 16.556,365.347 16.731,364.821 16.692 C 364.398 16.660,364.172 16.418,364.287 16.118 C 364.399 15.826,364.205 15.600,363.843 15.600 C 363.489 15.600,363.200 15.442,363.200 15.249 C 363.200 15.055,362.651 14.669,361.979 14.391 C 361.198 14.068,360.836 13.683,360.975 13.322 C 361.094 13.012,361.039 12.852,360.854 12.967 C 360.668 13.082,360.099 12.731,359.588 12.188 C 358.720 11.263,357.704 10.797,358.158 11.532 C 358.395 11.916,357.320 11.847,356.302 11.414 C 355.919 11.250,355.705 10.954,355.828 10.755 C 355.950 10.557,355.724 10.278,355.325 10.136 C 354.926 9.994,354.266 9.591,353.858 9.239 C 353.450 8.888,353.045 8.645,352.958 8.700 C 352.293 9.121,351.237 8.674,351.128 7.925 C 351.006 7.091,350.968 7.083,350.300 7.754 C 349.915 8.141,349.600 8.264,349.600 8.029 C 349.600 7.793,349.404 7.600,349.164 7.600 C 348.924 7.600,348.390 7.195,347.977 6.700 C 347.490 6.115,347.222 5.996,347.213 6.358 C 347.205 6.704,346.819 6.506,346.200 5.838 C 345.650 5.244,345.200 4.954,345.200 5.193 C 345.200 5.499,344.971 5.505,344.426 5.214 C 343.267 4.593,342.119 4.714,341.822 5.488 C 341.676 5.866,341.688 6.046,341.846 5.887 C 342.005 5.728,342.496 5.914,342.936 6.299 C 343.377 6.685,343.606 6.775,343.445 6.500 C 343.284 6.225,343.343 6.000,343.576 6.000 C 343.809 6.000,344.000 6.186,344.000 6.414 C 344.000 6.699,344.242 6.699,344.776 6.413 C 345.401 6.078,345.671 6.167,346.160 6.864 C 346.917 7.945,346.594 8.530,345.371 8.296 C 344.564 8.142,344.490 8.220,344.831 8.859 C 345.319 9.769,345.538 9.780,346.469 8.938 C 346.906 8.542,347.200 8.462,347.200 8.738 C 347.200 8.992,346.990 9.200,346.733 9.200 C 346.477 9.200,346.401 9.335,346.566 9.499 C 346.731 9.664,347.121 9.450,347.433 9.023 C 347.887 8.402,348.000 8.372,348.000 8.877 C 348.000 9.223,348.360 9.601,348.801 9.716 C 349.241 9.831,349.500 9.762,349.377 9.563 C 349.254 9.363,349.358 9.200,349.610 9.200 C 350.353 9.200,349.832 10.097,348.884 10.447 C 348.288 10.668,348.040 10.622,348.105 10.304 C 348.165 10.008,347.657 9.855,346.722 9.885 C 345.880 9.913,345.040 9.690,344.773 9.367 C 344.159 8.628,343.600 8.644,343.600 9.400 C 343.600 9.932,327.400 10.000,200.200 10.000 C 58.520 10.000,56.800 9.991,56.800 9.224 C 56.800 8.797,56.983 8.334,57.207 8.196 C 57.430 8.058,57.480 7.732,57.317 7.472 C 56.667 6.437,56.727 4.915,57.384 5.759 C 57.709 6.176,57.880 6.671,57.764 6.859 C 57.648 7.047,57.756 7.200,58.003 7.200 C 58.265 7.200,58.352 6.879,58.211 6.433 C 57.958 5.637,59.334 5.646,59.827 6.444 C 59.945 6.635,59.717 6.689,59.321 6.565 C 58.665 6.360,58.668 6.383,59.348 6.816 C 59.927 7.186,60.162 7.185,60.392 6.812 C 60.556 6.548,60.759 6.364,60.845 6.403 C 60.930 6.443,61.630 6.279,62.400 6.039 L 63.800 5.603 62.367 5.766 C 61.342 5.882,60.933 5.772,60.933 5.382 C 60.933 5.081,61.071 4.920,61.239 5.024 C 61.407 5.128,61.663 5.021,61.808 4.787 C 61.971 4.524,62.249 4.501,62.536 4.726 C 62.791 4.927,63.402 5.056,63.893 5.013 C 64.576 4.953,64.686 5.055,64.363 5.445 C 64.041 5.832,64.139 5.940,64.770 5.892 C 65.337 5.850,65.600 5.554,65.600 4.958 C 65.600 4.094,64.639 3.405,63.992 3.805 C 63.807 3.920,63.525 3.802,63.366 3.545 C 63.185 3.252,63.250 3.184,63.538 3.362 C 63.792 3.519,64.000 3.500,64.000 3.320 C 64.000 2.067,62.355 2.050,61.555 3.295 M65.067 2.267 C 64.454 2.879,64.866 3.193,65.700 2.749 C 66.458 2.344,66.534 2.358,66.179 2.835 C 65.939 3.157,65.873 4.001,66.026 4.800 C 66.174 5.570,66.318 5.885,66.347 5.500 C 66.402 4.768,67.163 4.713,67.730 5.400 C 67.926 5.637,67.987 5.556,67.880 5.200 C 67.781 4.870,67.503 4.643,67.262 4.696 C 66.386 4.888,65.943 3.308,66.810 3.082 C 68.002 2.770,67.758 2.000,66.467 2.000 C 65.843 2.000,65.213 2.120,65.067 2.267 M333.441 3.279 C 333.785 3.944,333.890 4.379,333.675 4.246 C 333.108 3.896,332.817 4.931,333.350 5.402 C 334.109 6.073,335.200 5.967,335.200 5.222 C 335.200 4.843,335.462 4.533,335.782 4.533 C 336.103 4.533,336.285 4.663,336.187 4.821 C 336.089 4.980,336.336 5.195,336.736 5.299 C 337.590 5.523,339.051 4.603,338.441 4.226 C 338.218 4.087,338.125 3.739,338.236 3.451 C 338.496 2.773,337.375 1.793,337.012 2.381 C 336.869 2.611,336.573 2.800,336.353 2.800 C 336.133 2.800,336.035 2.665,336.136 2.500 C 336.237 2.335,335.531 2.171,334.567 2.135 L 332.816 2.071 333.441 3.279 M340.534 3.493 C 340.675 3.722,340.489 4.155,340.121 4.455 C 339.535 4.931,339.483 4.911,339.713 4.300 C 339.905 3.788,339.772 3.600,339.218 3.600 C 338.511 3.600,338.501 3.679,339.060 4.800 C 339.465 5.613,339.940 5.987,340.529 5.960 C 341.334 5.923,341.324 5.896,340.400 5.600 C 339.482 5.306,340.079 4.985,341.259 5.139 C 341.654 5.190,341.160 3.623,340.690 3.332 C 340.462 3.191,340.392 3.264,340.534 3.493 M73.600 4.400 L 72.600 4.720 73.700 4.760 C 74.305 4.782,74.800 4.620,74.800 4.400 C 74.800 4.180,74.755 4.018,74.700 4.040 C 74.645 4.062,74.150 4.224,73.600 4.400 M68.678 5.056 C 68.304 5.429,68.755 6.000,69.424 6.000 C 69.741 6.000,69.986 5.685,69.968 5.300 C 69.950 4.882,69.856 4.801,69.735 5.100 C 69.624 5.375,69.358 5.600,69.143 5.600 C 68.928 5.600,68.864 5.420,69.000 5.200 C 69.276 4.753,69.072 4.662,68.678 5.056 M330.006 5.300 C 330.002 5.770,330.295 5.990,330.900 5.968 C 331.501 5.947,331.601 5.861,331.200 5.708 C 330.870 5.583,330.468 5.282,330.306 5.040 C 330.125 4.769,330.010 4.868,330.006 5.300 M338.250 5.519 C 337.950 6.004,338.710 7.026,339.078 6.634 C 339.255 6.445,339.174 6.210,338.898 6.111 C 338.621 6.012,338.497 5.767,338.621 5.566 C 338.745 5.365,338.757 5.200,338.647 5.200 C 338.537 5.200,338.358 5.344,338.250 5.519 M56.998 7.598 C 57.142 7.830,56.960 7.883,56.551 7.726 C 56.032 7.527,55.922 7.619,56.106 8.100 C 56.426 8.933,54.820 10.000,53.247 10.000 C 52.598 10.000,51.962 10.225,51.833 10.500 C 51.647 10.899,51.553 10.899,51.366 10.498 C 51.237 10.221,50.954 10.105,50.736 10.239 C 50.519 10.374,50.578 10.105,50.867 9.642 C 51.156 9.179,51.551 8.800,51.745 8.800 C 51.939 8.800,51.851 9.115,51.549 9.500 C 51.061 10.123,51.072 10.144,51.649 9.693 C 52.006 9.414,52.636 9.293,53.049 9.423 C 53.743 9.642,53.747 9.626,53.100 9.210 C 52.155 8.603,52.213 8.010,53.200 8.200 C 53.640 8.285,54.000 8.197,54.000 8.004 C 54.000 7.811,54.363 7.539,54.806 7.398 C 55.249 7.257,55.497 6.957,55.358 6.731 C 55.199 6.474,55.412 6.486,55.929 6.762 C 56.384 7.005,56.865 7.381,56.998 7.598 M58.230 8.024 C 57.470 8.790,57.471 8.800,58.330 8.800 C 58.933 8.800,59.200 8.555,59.200 8.000 C 59.200 7.043,59.203 7.043,58.230 8.024 M340.832 7.900 C 340.807 8.607,341.019 8.800,341.824 8.800 C 342.404 8.800,342.740 8.627,342.600 8.400 C 342.464 8.180,342.108 8.000,341.810 8.000 C 341.511 8.000,341.176 7.775,341.065 7.500 C 340.954 7.225,340.849 7.405,340.832 7.900 M357.985 13.018 C 357.723 13.333,357.350 13.493,357.155 13.372 C 356.539 12.991,356.769 12.573,357.630 12.508 C 358.308 12.457,358.373 12.551,357.985 13.018 M24.667 24.667 C 24.206 25.127,24.375 25.600,25.000 25.600 C 25.330 25.600,25.600 25.330,25.600 25.000 C 25.600 24.375,25.127 24.206,24.667 24.667 M5.000 61.366 C 5.000 62.019,4.858 62.214,4.563 61.969 C 4.323 61.770,3.965 61.740,3.767 61.903 C 3.570 62.067,3.750 61.795,4.166 61.300 C 4.583 60.805,4.941 60.400,4.962 60.400 C 4.983 60.400,5.000 60.835,5.000 61.366 M396.806 61.871 C 396.818 62.484,397.555 63.378,397.826 63.107 C 397.974 62.959,397.804 62.547,397.448 62.190 C 397.091 61.834,396.803 61.691,396.806 61.871 M190.631 70.357 C 189.768 70.491,188.979 70.852,188.878 71.161 C 188.738 71.585,188.925 71.651,189.646 71.433 C 192.806 70.480,194.342 70.346,200.200 70.516 C 204.199 70.632,207.082 70.900,207.885 71.233 C 209.077 71.725,210.073 71.540,209.471 70.937 C 208.660 70.127,194.858 69.701,190.631 70.357 M184.176 72.187 C 183.166 72.951,183.604 72.959,185.054 72.202 C 185.684 71.874,185.919 71.604,185.576 71.602 C 185.234 71.601,184.604 71.864,184.176 72.187 M212.946 72.202 C 214.418 72.970,215.038 72.969,214.400 72.200 C 214.126 71.870,213.429 71.601,212.851 71.602 L 211.800 71.605 212.946 72.202 M217.346 73.402 C 218.805 74.163,219.175 74.168,218.176 73.413 C 217.749 73.090,217.130 72.821,216.800 72.815 C 216.470 72.810,216.716 73.074,217.346 73.402 M0.000 74.600 C 0.000 75.370,0.160 76.000,0.356 76.000 C 0.552 76.000,0.786 75.370,0.876 74.600 C 0.989 73.635,0.878 73.200,0.520 73.200 C 0.192 73.200,0.000 73.718,0.000 74.600 M399.200 74.400 C 399.200 75.060,399.380 75.600,399.600 75.600 C 399.820 75.600,400.000 75.060,400.000 74.400 C 400.000 73.740,399.820 73.200,399.600 73.200 C 399.380 73.200,399.200 73.740,399.200 74.400 M86.176 81.830 C 85.749 82.176,85.654 82.327,85.965 82.166 C 86.276 82.004,87.086 81.739,87.765 81.577 C 88.900 81.306,88.918 81.279,87.976 81.241 C 87.414 81.218,86.604 81.483,86.176 81.830 M137.734 86.000 C 137.734 87.650,137.805 88.325,137.891 87.500 C 137.978 86.675,137.978 85.325,137.891 84.500 C 137.805 83.675,137.734 84.350,137.734 86.000 M84.914 91.400 C 84.917 92.500,84.995 92.903,85.087 92.295 C 85.179 91.686,85.177 90.786,85.082 90.295 C 84.987 89.803,84.911 90.300,84.914 91.400 " stroke="none" fill="#74ccfc" fill-rule="evenodd">
		</path>
	</g>
</svg>