<?xml version="1.0" encoding="UTF-8" ?>
<!DOCTYPE svg PUBLIC "-//W3C//DTD SVG 1.1//EN" "http://www.w3.org/Graphics/SVG/1.1/DTD/svg11.dtd">
<svg width="230pt" height="169pt" viewBox="0 0 230 169" version="1.1" xmlns="http://www.w3.org/2000/svg">
<g id="#fefff9ff">
</g>
<g id="#f6b221ff">
<path fill="#f6b221" opacity="1.00" d=" M 150.83 27.02 C 154.93 20.29 164.15 17.44 171.32 20.74 C 179.48 24.07 183.87 34.63 179.59 42.55 C 174.83 51.17 169.56 59.49 164.83 68.12 C 160.02 59.88 155.14 51.67 150.36 43.42 C 147.48 38.41 147.66 31.85 150.83 27.02 Z" />
</g>
<g id="#00ab4dff">
<path fill="#00ab4d" opacity="1.00" d=" M 52.81 26.84 C 56.16 21.57 62.72 18.63 68.89 19.56 C 74.03 20.25 78.68 23.48 81.18 28.02 C 89.74 42.72 98.42 57.36 106.96 72.08 C 108.97 75.37 108.92 79.65 106.90 82.94 C 101.67 91.96 96.34 100.93 91.09 109.94 C 78.40 87.70 65.22 65.74 52.36 43.59 C 49.30 38.51 49.51 31.75 52.81 26.84 Z" />
<path fill="#00ab4d" opacity="1.00" d=" M 102.22 26.36 C 106.16 20.54 114.09 17.95 120.72 20.21 C 124.71 21.41 128.07 24.27 130.14 27.86 C 138.76 42.57 147.42 57.27 155.99 72.02 C 158.43 75.80 157.73 80.66 155.25 84.23 C 150.18 92.77 145.23 101.37 140.15 109.90 C 127.44 87.68 114.28 65.72 101.43 43.58 C 98.28 38.33 98.63 31.30 102.22 26.36 Z" />
<path fill="#00ab4d" opacity="1.00" d=" M 42.66 121.36 C 41.16 118.68 44.52 115.48 47.17 116.69 C 48.76 117.12 49.39 118.77 49.86 120.18 C 52.80 128.85 55.73 137.53 58.70 146.20 C 61.66 137.27 64.60 128.33 67.66 119.43 C 68.17 117.22 70.44 115.81 72.64 116.46 C 74.81 116.86 75.38 119.26 76.02 121.03 C 78.72 129.42 81.73 137.71 84.27 146.16 C 87.51 137.56 90.22 128.77 93.25 120.09 C 93.75 118.80 94.27 117.17 95.75 116.71 C 98.33 115.48 101.76 118.54 100.28 121.20 C 96.45 131.74 92.61 142.27 88.83 152.83 C 88.22 154.62 87.14 156.92 84.91 156.92 C 82.73 157.39 80.87 155.72 80.31 153.73 C 77.36 145.41 74.53 137.04 71.63 128.70 C 67.89 137.07 65.66 146.06 62.26 154.58 C 60.99 157.95 55.54 157.66 54.60 154.17 C 50.51 143.28 46.64 132.29 42.66 121.36 Z" />
<path fill="#00ab4d" opacity="1.00" d=" M 118.46 116.71 C 124.44 115.40 131.07 116.24 136.15 119.81 C 147.28 127.00 147.56 145.12 136.78 152.75 C 128.51 159.03 115.51 158.36 108.31 150.70 C 103.08 145.39 101.42 137.09 103.78 130.08 C 105.91 123.46 111.71 118.27 118.46 116.71 M 118.40 123.53 C 112.81 125.84 109.47 132.13 110.26 138.08 C 110.71 145.68 118.34 151.86 125.91 150.41 C 134.57 149.45 139.72 139.17 136.40 131.38 C 134.02 124.26 125.24 120.46 118.40 123.53 Z" />
<path fill="#00ab4d" opacity="1.00" d=" M 154.43 123.44 C 161.52 114.67 175.87 113.71 184.55 120.53 C 187.46 122.78 184.02 127.90 180.89 126.08 C 176.05 122.78 169.45 120.96 164.07 124.12 C 155.71 128.69 154.77 141.94 162.17 147.80 C 167.38 151.98 175.12 151.28 180.49 147.75 C 180.46 145.25 180.45 142.75 180.43 140.26 C 176.79 139.83 171.61 141.98 169.34 138.12 C 168.84 136.02 170.87 133.95 172.96 134.27 C 176.93 134.27 180.92 134.08 184.88 134.40 C 188.46 135.69 187.02 140.16 187.32 143.05 C 187.01 146.15 188.34 150.27 185.31 152.38 C 176.54 158.66 162.92 158.92 155.14 150.88 C 148.20 143.57 147.87 131.09 154.43 123.44 Z" />
</g>
</svg>
