<?xml version="1.0" encoding="utf-8"?>
<!-- Generated by IcoMoon.io -->
<!DOCTYPE svg PUBLIC "-//W3C//DTD SVG 1.1//EN" "http://www.w3.org/Graphics/SVG/1.1/DTD/svg11.dtd">
<svg version="1.1" xmlns="http://www.w3.org/2000/svg" xmlns:xlink="http://www.w3.org/1999/xlink" width="512" height="512" viewBox="0 0 512 512">
<g>
</g>
	<path d="M100.598 169.206h17.213v166.666h-22.814l122.174 113.603v-393.902l-116.572 113.633zM177.387 311.89c-17.705 0-32.072-26.583-32.072-59.402 0-32.717 14.367-59.321 32.072-59.321 17.705 0 32.072 26.603 32.072 59.321 0 32.819-14.357 59.402-32.072 59.402z" fill="#000000" />
	<path d="M22.774 168.888h100.905v167.823h-100.905v-167.823z" fill="#000000" />
	<path d="M286.638 199.792c31.447 0 57.037 25.559 57.037 56.996s-25.59 57.017-57.037 57.017v20.48c42.752 0 77.517-34.775 77.517-77.497s-34.775-77.476-77.517-77.476v20.48z" fill="#000000" />
	<path d="M291.481 135.966c66.846 0 121.241 54.385 121.241 121.241s-54.395 121.262-121.241 121.262v20.48c78.142 0 141.721-63.58 141.721-141.742 0-78.142-63.58-141.721-141.721-141.721v20.48z" fill="#000000" />
	<path d="M287.611 75.868c99.881 0 181.135 81.244 181.135 181.125 0 48.404-18.841 93.901-53.053 128.123s-79.688 53.063-128.092 53.063v20.48c53.873 0 104.499-20.982 142.582-59.065 38.072-38.082 59.044-88.719 59.044-142.602 0-111.155-90.44-201.605-201.615-201.605v20.48z" fill="#000000" />
	<path d="M454.932 481.079l-419.125-428.717 21.975-21.483 419.125 428.717-21.975 21.483z" fill="#000000" />
</svg>
