<?xml version="1.0" encoding="utf-8"?>
<!-- Generator: Adobe Illustrator 17.1.0, SVG Export Plug-In . SVG Version: 6.00 Build 0)  -->
<!DOCTYPE svg PUBLIC "-//W3C//DTD SVG 1.1//EN" "http://www.w3.org/Graphics/SVG/1.1/DTD/svg11.dtd">
<svg version="1.1" id="normal" xmlns="http://www.w3.org/2000/svg" xmlns:xlink="http://www.w3.org/1999/xlink" x="0px" y="0px"
	 width="114px" height="114px" viewBox="0 0 114 114" enable-background="new 0 0 114 114" xml:space="preserve">
<g>
	<g>
		<path fill-rule="evenodd" clip-rule="evenodd" fill="#A6A6A6" d="M56.999,42.593c-13.168,0-23.845,10.592-23.845,23.656
			c0,1.104,0.082,2.188,0.23,3.251h47.231c0.147-1.063,0.23-2.148,0.23-3.251C80.844,53.184,70.17,42.593,56.999,42.593z
			 M71.21,40.909c4.752,2.628,8.684,6.529,11.332,11.242l6.504-17.695L71.21,40.909z M85.098,58.294
			c0.727,2.531,1.14,5.193,1.14,7.955c0,1.102-0.083,2.183-0.208,3.251h9.253l7.037-3.251L85.098,58.294z M65.018,38.373
			l-8.019-17.086L48.98,38.373c2.552-0.72,5.235-1.13,8.019-1.13C59.783,37.243,62.466,37.653,65.018,38.373z M11.68,66.249
			l7.037,3.251h9.252c-0.125-1.068-0.208-2.149-0.208-3.251c0-2.761,0.415-5.424,1.142-7.955L11.68,66.249z M42.788,40.909
			l-17.836-6.453l6.503,17.695C34.106,47.437,38.037,43.536,42.788,40.909z"/>
	</g>
</g>
<rect x="9" y="74.75" fill-rule="evenodd" clip-rule="evenodd" fill="#A6A6A6" width="96" height="5.5"/>
</svg>
