<?xml version="1.0" encoding="utf-8"?>
<!-- Generator: Adobe Illustrator 17.1.0, SVG Export Plug-In . SVG Version: 6.00 Build 0)  -->
<!DOCTYPE svg PUBLIC "-//W3C//DTD SVG 1.1//EN" "http://www.w3.org/Graphics/SVG/1.1/DTD/svg11.dtd">
<svg version="1.1" id="normal" xmlns="http://www.w3.org/2000/svg" xmlns:xlink="http://www.w3.org/1999/xlink" x="0px" y="0px"
	 width="114px" height="114px" viewBox="0 0 114 114" enable-background="new 0 0 114 114" xml:space="preserve">
<path fill-rule="evenodd" clip-rule="evenodd" fill="#A6A6A6" d="M86.238,56.999c0-2.762-0.413-5.424-1.14-7.955l17.222,7.955
	l-17.222,7.957C85.825,62.425,86.238,59.763,86.238,56.999L86.238,56.999z M71.21,31.658l17.836-6.453l-6.504,17.695
	C79.894,38.187,75.963,34.286,71.21,31.658L71.21,31.658z M56.999,80.657c-13.168,0-23.845-10.592-23.845-23.659
	c0-13.065,10.677-23.656,23.845-23.656c13.171,0,23.845,10.592,23.845,23.656C80.844,70.066,70.17,80.657,56.999,80.657
	L56.999,80.657z M48.98,29.123l8.019-17.086l8.019,17.086c-2.552-0.72-5.235-1.13-8.019-1.13
	C54.214,27.993,51.531,28.403,48.98,29.123L48.98,29.123z M31.455,42.901l-6.504-17.695l17.836,6.453
	C38.037,34.286,34.106,38.187,31.455,42.901L31.455,42.901z M27.76,56.999c0,2.764,0.415,5.426,1.142,7.957L11.68,56.999
	l17.222-7.955C28.175,51.575,27.76,54.237,27.76,56.999L27.76,56.999z M42.788,82.342l-17.836,6.453l6.504-17.695
	C34.106,75.813,38.037,79.714,42.788,82.342L42.788,82.342z M65.018,84.877l-8.019,17.086L48.98,84.877
	c2.552,0.72,5.235,1.13,8.019,1.13C59.783,86.007,62.466,85.597,65.018,84.877L65.018,84.877z M82.542,71.099l6.504,17.695
	L71.21,82.342C75.963,79.714,79.894,75.813,82.542,71.099L82.542,71.099z"/>
</svg>
