<?xml version="1.0" encoding="iso-8859-1"?>
<!-- Generator: Adobe Illustrator 17.1.0, SVG Export Plug-In . SVG Version: 6.00 Build 0)  -->
<!DOCTYPE svg PUBLIC "-//W3C//DTD SVG 1.1//EN" "http://www.w3.org/Graphics/SVG/1.1/DTD/svg11.dtd">
<svg version="1.1" xmlns="http://www.w3.org/2000/svg" xmlns:xlink="http://www.w3.org/1999/xlink" x="0px" y="0px" width="114px"
	 height="114px" viewBox="0 0 114 114" xml:space="preserve">
<g id="off">
	<path opacity="0.2" d="M78.214,21.078H19.269c-4.058,0-7.362,3.304-7.362,7.362v58.944c0,4.058,3.304,7.362,7.362,7.362h58.944
		c4.058,0,7.362-3.304,7.362-7.362V28.44C85.576,24.382,82.272,21.078,78.214,21.078z M85.085,87.384
		c0,3.791-3.081,6.872-6.872,6.872H19.269c-3.789,0-6.871-3.081-6.871-6.872V28.44c0-3.791,3.081-6.872,6.871-6.872h58.944
		c3.791,0,6.872,3.081,6.872,6.872V87.384z"/>
	<path opacity="0.12" d="M77.802,18.006H21.311c-6.776,0-12.269,5.493-12.269,12.269v56.491c0,6.776,5.493,12.269,12.269,12.269
		h56.491c6.776,0,12.269-5.493,12.269-12.269V30.276C90.071,23.499,84.578,18.006,77.802,18.006z M87.618,89.22
		c0,4.058-3.304,7.362-7.362,7.362H21.311c-4.058,0-7.362-3.304-7.362-7.362V30.276c0-4.058,3.304-7.362,7.362-7.362h58.944
		c4.058,0,7.362,3.304,7.362,7.362V89.22z"/>
	<path opacity="0.12" d="M77.27,17.396H20.779c-6.776,0-12.269,5.493-12.269,12.269v56.491c0,6.776,5.493,12.269,12.269,12.269
		H77.27c6.776,0,12.269-5.493,12.269-12.269V29.665C89.539,22.889,84.046,17.396,77.27,17.396z M87.086,88.61
		c0,4.058-3.304,7.362-7.362,7.362H20.779c-4.058,0-7.362-3.304-7.362-7.362V29.665c0-4.058,3.304-7.362,7.362-7.362h58.944
		c4.058,0,7.362,3.304,7.362,7.362V88.61z"/>
	<path opacity="0.12" d="M76.735,16.874H20.245c-6.776,0-12.269,5.493-12.269,12.269v56.491c0,6.776,5.493,12.269,12.269,12.269
		h56.491c6.776,0,12.269-5.493,12.269-12.269V29.143C89.005,22.367,83.512,16.874,76.735,16.874z M86.551,88.088
		c0,4.058-3.304,7.362-7.362,7.362H20.245c-4.058,0-7.362-3.304-7.362-7.362V29.143c0-4.058,3.304-7.362,7.362-7.362h58.944
		c4.058,0,7.362,3.304,7.362,7.362V88.088z"/>
	<path fill="#A5A5A5" d="M78.214,16.171H19.269C12.493,16.171,7,21.664,7,28.44v58.944c0,6.776,5.493,12.269,12.269,12.269h58.944
		c6.776,0,12.269-5.493,12.269-12.269V28.44C90.483,21.664,84.99,16.171,78.214,16.171z M85.576,87.384
		c0,4.058-3.304,7.362-7.362,7.362H19.269c-4.058,0-7.362-3.304-7.362-7.362V28.44c0-4.058,3.304-7.362,7.362-7.362h58.944
		c4.058,0,7.362,3.304,7.362,7.362V87.384z"/>
</g>
</svg>
