<?xml version="1.0" encoding="utf-8"?>
<!-- Generator: Adobe Illustrator 16.0.2, SVG Export Plug-In . SVG Version: 6.00 Build 0)  -->
<!DOCTYPE svg PUBLIC "-//W3C//DTD SVG 1.1//EN" "http://www.w3.org/Graphics/SVG/1.1/DTD/svg11.dtd">
<svg version="1.1" id="Layer_1" xmlns="http://www.w3.org/2000/svg" xmlns:xlink="http://www.w3.org/1999/xlink" x="0px" y="0px"
	 width="114px" height="114px" viewBox="0 0 114 114" xml:space="preserve">
<path fill="#FFFFFF" d="M59.635,72.98l-1.266,6.054c0-11.621-9.439-21.063-21.056-21.063c-8.152,0-15.203,4.631-18.707,11.392
	c-0.555,1.062-1.005,2.171-1.373,3.325l-0.98,6.347c0-2.214,0.347-4.345,0.98-6.347l0.933-6.097
	C-6.068,67.55,4.129,86.689,4.129,86.689c8.945,17.227,24.893,9.253,24.893,9.253c7.969,13.401,22.333,7.974,22.333,7.974
	c1.898,0,15.624-4.148,15.624-4.148c10.845,2.234,11.8-5.427,11.8-5.427C78.464,70.428,59.636,72.98,59.635,72.98L59.635,72.98z
	 M64.187,96.929c-1.855-0.183-3.235-1.026-4.068-1.713c-6.793,4.419-12.647,5.735-17.43,3.876c-5.039-1.963-7.355-6.865-8.245-9.328
	c-22.779,7.019-27.924-5.524-28.125-6.061l2.664-1.026c0.036,0.111,4.53,11.084,25.972,3.94l1.484-0.49l0.354,1.53
	c0.019,0.058,1.592,6.689,6.919,8.771c4.094,1.592,9.389,0.161,15.768-4.212l1.549-1.076l0.525,1.522
	c0.332,0.365,1.348,1.276,2.968,1.431c1.909,0.175,4.019-0.748,6.307-2.739l1.884,2.16C69.766,96.063,66.908,97.207,64.187,96.929
	L64.187,96.929z"/>
<path fill="#FFFFFF" d="M17.234,72.687c-0.636,2.006-0.98,4.134-0.98,6.347L17.234,72.687z"/>
<path fill="#FFFFFF" d="M61.645,92.935l-0.094-0.271c-0.075-0.075-0.136-0.146-0.143-0.146L61.645,92.935L61.645,92.935z"/>
<path fill="#FFFFFF" d="M34.002,88.276c0.024,0.096,0.153,0.657,0.44,1.487c0.468-0.146,0.94-0.286,1.413-0.44L34.002,88.276
	L34.002,88.276z"/>
<path fill="#FFFFFF" d="M59.146,94.262c0.032,0.036,0.365,0.469,0.969,0.958c0.317-0.211,0.644-0.418,0.966-0.636L59.146,94.262
	L59.146,94.262L59.146,94.262z"/>
<path fill="#FFFFFF" d="M108.047,64.023c0,0-18.185-8.617-21.066-12.918H69.757c0,0-5.745,9.575-16.758,6.221
	c0,0,5.746,6.697,5.746,10.058c0,0,14.016-1.598,21.539,8.757c4.137,1.312,15.324,3.973,22.586-2.592l2.692,2.981
	c-7.093,6.418-16.729,5.76-22.772,4.447c0.641,1.913,1.477,5.077,0.844,6.982c0,0,19.158-2.878,21.063-2.878
	C104.704,85.082,118.592,73.122,108.047,64.023L108.047,64.023z"/>
<path fill="#FFFFFF" d="M34.975,53.029c0-10.783,8.731-19.525,19.529-19.525c8.681,0,16.025,5.663,18.571,13.498
	c-5.574,0.292-8.151,3.415-9.21,6.286L34.975,53.029z"/>
<path fill="#FFFFFF" d="M5.556,51.209c0,0,24.47,1.559,18.224-13.276l-4.687-2.346c0,0,0-2.864,6.761-2.599l6.253,0.775
	c0,0,2.6-9.628-2.61-16.911c0,0-2.861-3.912-2.078-4.953c0,0,2.606-0.522,6.511,4.427c0,0,6.503,10.662,13.8,4.419
	c0,0,2.585-4.945,3.107-8.849c0,0,3.139,3.379,3.139,5.459c0,0,2.867,8.595,8.066,4.176c0,0,9.114-5.474,9.894-12.5
	c0,0,3.386-0.79,2.078,5.209c0,0-7.291,14.059,1.563,14.832c0,0,6.242,1.83,9.378-1.298c0,0,0.783,3.379-0.779,4.419
	c0,0-7.544,7.548,0,10.162c0,0,13.54,5.979,17.694,3.386c0,0,0.255,5.188-14.309,2.85l-11.988-1.033c0,0-0.25-16.654-20.816-18.484
	c0,0-16.916-0.519-21.088,15.621c0,0-1.037,6.776-0.776,7.548c0.254,0.783-16.923,8.331-27.338,1.041
	C5.556,53.289,2.946,51.723,5.556,51.209L5.556,51.209z"/>
</svg>
