<?xml version="1.0" encoding="UTF-8" ?>
<!DOCTYPE svg PUBLIC "-//W3C//DTD SVG 1.1//EN" "http://www.w3.org/Graphics/SVG/1.1/DTD/svg11.dtd">
<svg width="300pt" height="300pt" viewBox="0 0 300 300" version="1.1" xmlns="http://www.w3.org/2000/svg" fill="#ffffff">
<g id="#ffffffff">
<path opacity="1.00" d=" M 241.16 180.54 C 245.95 180.00 250.77 180.02 255.57 179.65 C 256.42 182.77 257.49 185.82 258.75 188.79 C 252.88 186.12 247.19 182.93 241.16 180.54 Z" />
</g>
<g id="#ddddddff">
</g>
<g id="#2c4484ff">
<path opacity="1.00" d=" M 203.67 0.00 L 205.56 0.00 C 212.88 0.57 215.23 8.53 216.96 14.42 C 218.82 19.76 220.63 25.11 222.42 30.47 C 226.04 40.37 229.11 50.45 232.56 60.41 C 234.22 65.26 235.81 70.13 237.47 74.97 L 237.71 75.50 C 238.81 75.88 239.92 76.21 241.02 76.60 C 245.92 78.84 250.39 81.93 254.13 85.81 C 255.57 87.38 256.86 89.09 258.06 90.87 C 260.70 95.14 262.52 99.89 263.44 104.83 C 264.24 109.95 264.07 115.23 262.78 120.25 C 261.71 124.21 259.90 127.91 257.87 131.45 L 257.21 132.78 C 258.83 138.59 260.97 144.23 262.82 149.98 C 264.73 155.44 266.53 160.94 268.40 166.42 C 272.37 177.10 275.41 188.11 279.52 198.74 C 281.02 202.76 281.64 208.05 278.21 211.28 C 275.77 214.20 271.72 214.84 268.14 214.29 C 265.27 213.25 262.44 212.03 259.98 210.21 C 258.13 208.87 256.36 207.44 254.49 206.14 C 249.93 203.05 245.08 200.37 240.06 198.10 C 231.39 194.35 222.37 191.28 213.07 189.55 C 207.33 188.42 201.49 187.80 195.64 187.49 C 190.32 187.29 185.00 187.30 179.68 187.55 C 174.92 187.83 170.22 188.63 165.49 189.19 C 160.09 189.96 154.80 191.29 149.48 192.44 C 146.87 193.09 144.33 193.98 141.76 194.74 C 139.37 195.37 137.01 196.14 134.63 196.82 C 130.10 198.09 125.24 197.60 120.98 195.64 C 120.16 195.08 119.37 194.49 118.59 193.88 C 114.59 190.23 113.32 184.81 111.68 179.87 C 105.79 162.35 99.59 144.94 93.89 127.35 C 92.28 121.65 88.76 116.10 90.37 109.95 C 91.86 102.73 99.42 99.31 105.84 97.46 C 116.13 93.92 125.98 89.24 135.35 83.71 C 146.12 77.32 156.02 69.52 164.94 60.73 C 165.20 60.45 165.45 60.17 165.70 59.88 C 170.10 55.15 174.11 50.09 177.81 44.79 C 178.70 43.50 179.55 42.18 180.38 40.84 C 182.81 36.86 184.87 32.66 186.75 28.39 C 187.56 26.53 188.34 24.65 188.92 22.70 C 190.70 17.06 192.34 11.34 195.05 6.05 C 197.28 3.26 199.94 0.50 203.67 0.00 M 204.17 28.44 C 202.99 33.08 200.90 37.40 198.85 41.70 C 197.35 44.88 195.67 48.19 193.47 50.89 L 193.63 51.24 C 191.69 53.87 189.65 56.46 188.21 59.40 C 187.17 59.92 186.67 61.10 185.91 61.92 C 179.60 70.35 171.89 77.61 163.81 84.29 C 161.89 85.69 160.04 87.18 158.28 88.77 C 155.21 90.65 152.29 92.76 149.32 94.79 C 140.41 100.25 131.14 105.10 121.57 109.26 C 116.67 110.99 111.87 113.00 106.89 114.51 C 107.53 116.47 108.16 118.43 108.93 120.35 C 110.33 124.43 111.44 128.62 113.14 132.59 C 116.67 143.71 120.51 154.74 124.35 165.75 C 125.80 171.00 127.97 176.04 129.30 181.33 C 131.19 180.93 133.01 180.30 134.79 179.58 C 139.88 177.92 145.08 176.60 150.28 175.33 C 154.98 174.31 159.71 173.47 164.44 172.64 C 169.69 171.90 174.98 171.44 180.27 171.04 C 185.08 170.86 189.89 170.85 194.69 171.03 C 199.28 171.10 203.84 171.67 208.39 172.19 C 213.91 172.84 219.36 174.01 224.76 175.32 C 229.52 176.36 234.04 178.24 238.75 179.38 L 238.17 179.77 C 239.16 180.02 240.13 180.42 241.16 180.54 C 247.19 182.93 252.88 186.12 258.75 188.79 C 257.49 185.82 256.42 182.77 255.57 179.65 C 253.93 175.01 252.56 170.28 250.75 165.71 C 248.85 159.16 246.32 152.82 244.26 146.33 C 243.07 142.82 241.96 139.28 240.62 135.82 L 240.57 136.46 C 240.38 134.03 239.15 131.87 238.47 129.57 C 235.58 121.34 233.19 112.94 230.18 104.75 C 228.72 100.46 227.59 96.03 225.64 91.93 C 225.54 91.41 225.35 90.37 225.25 89.85 C 223.53 85.61 222.47 81.11 220.69 76.91 C 218.73 70.45 216.47 64.09 214.24 57.73 C 213.35 55.26 212.87 52.62 211.47 50.36 C 211.16 47.64 209.84 45.17 209.13 42.55 C 207.55 37.83 206.16 33.02 204.17 28.44 Z" />
<path opacity="1.00" d=" M 195.66 66.67 C 199.43 64.58 204.78 65.60 206.20 70.03 C 206.75 77.13 203.65 84.08 200.12 90.10 C 198.49 92.63 196.62 94.99 194.68 97.30 C 192.09 100.00 189.39 102.62 186.36 104.83 C 184.34 106.30 182.36 107.84 180.25 109.20 C 175.25 112.08 170.22 114.96 164.84 117.07 C 163.18 117.79 161.52 118.53 159.83 119.18 C 156.81 120.07 153.64 121.66 150.47 120.49 C 149.84 120.20 149.23 119.88 148.64 119.55 C 146.44 117.48 145.78 113.97 147.28 111.33 C 148.63 109.13 151.10 107.97 153.47 107.24 C 157.54 105.92 161.61 104.53 165.38 102.50 C 176.99 96.84 188.78 88.37 192.55 75.39 C 193.16 72.34 193.91 69.29 195.66 66.67 Z" />
<path opacity="1.00" d=" M 69.11 120.64 C 71.02 120.23 72.94 119.89 74.89 119.78 C 77.96 120.29 80.39 122.65 81.18 125.63 C 85.44 139.06 89.86 152.43 94.34 165.79 C 95.91 170.76 97.61 175.67 99.22 180.63 C 101.72 188.06 104.20 195.51 106.64 202.97 C 109.02 210.01 106.95 217.52 105.20 224.47 L 105.11 224.81 C 104.62 230.96 106.94 236.89 109.89 242.15 C 112.15 246.44 114.87 250.45 117.21 254.69 C 119.80 259.35 120.42 264.96 118.43 269.97 C 122.67 274.47 127.00 279.64 127.58 286.05 C 127.93 289.72 125.59 292.84 122.95 295.09 C 121.76 295.67 120.59 296.27 119.41 296.87 C 116.42 298.29 113.20 299.22 109.93 299.75 C 106.78 300.35 103.19 298.91 101.92 295.85 C 99.89 291.29 98.71 286.41 97.12 281.69 C 91.23 264.62 85.40 247.52 79.74 230.37 C 78.48 226.18 76.02 222.18 72.32 219.75 C 68.68 217.73 64.60 219.50 60.85 220.11 C 55.75 220.76 50.46 219.97 45.99 217.35 C 42.81 215.11 40.01 212.35 37.72 209.22 C 34.94 205.15 32.85 200.66 31.32 195.99 C 31.19 195.56 30.92 194.69 30.78 194.25 C 29.25 189.32 27.42 184.49 25.84 179.58 C 24.21 174.44 22.24 169.41 20.67 164.24 C 19.32 159.71 18.92 154.86 19.98 150.22 C 22.98 138.61 34.24 131.54 45.23 128.75 C 48.85 127.48 52.51 126.35 56.11 125.04 C 60.41 123.48 64.80 122.16 69.11 120.64 Z" />
</g>
</svg>
