<?xml version="1.0" encoding="UTF-8" ?>
<!DOCTYPE svg PUBLIC "-//W3C//DTD SVG 1.1//EN" "http://www.w3.org/Graphics/SVG/1.1/DTD/svg11.dtd">
<svg width="256pt" height="256pt" viewBox="0 0 256 256" version="1.1" xmlns="http://www.w3.org/2000/svg">
<g id="#00000026">
<path fill="#000000" opacity="0.15" d=" M 76.58 18.66 C 91.59 11.13 108.41 7.94 125.05 6.91 C 142.20 7.00 159.53 9.91 175.36 16.69 C 185.99 21.51 196.31 27.24 205.22 34.83 C 228.48 53.27 244.22 80.79 248.93 110.06 C 250.38 116.64 250.18 123.39 250.88 130.05 C 250.10 136.68 250.39 143.41 248.93 149.96 C 248.18 153.29 248.22 157.05 245.81 159.73 C 244.84 158.41 244.03 156.78 242.39 156.16 C 246.27 156.32 245.33 151.58 246.06 149.02 C 252.30 113.00 240.46 74.33 214.95 48.11 C 194.83 26.14 166.14 12.34 136.41 10.35 C 128.02 9.15 119.62 10.38 111.28 11.24 C 91.39 14.06 72.17 21.97 56.29 34.31 C 49.32 39.20 43.61 45.58 37.68 51.63 C 21.34 70.30 10.93 94.25 8.82 119.00 C 7.56 131.78 8.79 144.67 11.34 157.22 C 11.06 157.54 10.50 158.18 10.22 158.50 C 7.48 155.75 7.51 151.60 6.75 148.03 C 5.69 142.76 6.01 137.34 5.23 132.03 C 5.11 103.53 14.59 74.80 32.85 52.74 C 44.39 38.08 59.70 26.52 76.58 18.66 Z" />
</g>
<g id="#00000042">
<path fill="#000000" opacity="0.26" d=" M 111.28 11.24 C 119.62 10.38 128.02 9.15 136.41 10.35 C 166.14 12.34 194.83 26.14 214.95 48.11 C 240.46 74.33 252.30 113.00 246.06 149.02 C 245.33 151.58 246.27 156.32 242.39 156.16 C 242.55 154.80 242.73 153.45 242.94 152.11 C 244.27 145.79 244.76 139.33 245.09 132.89 C 245.10 132.19 245.13 130.79 245.14 130.09 C 245.10 106.27 237.84 82.48 224.15 62.94 C 216.14 51.37 205.99 41.31 194.41 33.31 C 171.73 17.57 143.34 10.38 115.91 13.31 C 96.49 15.27 77.62 22.23 61.57 33.33 C 49.00 42.01 38.12 53.14 29.82 65.97 C 17.41 84.90 10.93 107.48 10.86 130.08 C 10.87 130.78 10.90 132.19 10.91 132.89 C 11.01 135.07 11.21 137.25 11.40 139.43 C 11.57 141.84 11.81 144.25 12.19 146.64 C 12.50 148.69 12.83 150.74 13.22 152.78 C 13.36 153.46 13.63 154.82 13.77 155.51 C 12.95 156.06 12.14 156.63 11.34 157.22 C 8.79 144.67 7.56 131.78 8.82 119.00 C 10.93 94.25 21.34 70.30 37.68 51.63 C 43.61 45.58 49.32 39.20 56.29 34.31 C 72.17 21.97 91.39 14.06 111.28 11.24 Z" />
</g>
<g id="#edeeefff">
<path fill="#edeeef" opacity="1.00" d=" M 61.57 33.33 C 77.62 22.23 96.49 15.27 115.91 13.31 C 143.34 10.38 171.73 17.57 194.41 33.31 C 193.66 34.21 193.20 35.51 192.03 35.94 C 188.32 34.19 184.72 30.60 180.27 32.32 C 178.12 32.86 180.97 34.64 181.67 35.36 C 181.50 35.82 181.15 36.75 180.98 37.22 C 148.87 18.56 107.00 18.65 74.93 37.36 C 73.77 35.56 75.44 34.37 76.51 33.16 C 76.54 32.43 76.57 31.69 76.60 30.96 C 72.77 30.82 69.52 33.16 65.78 33.51 C 65.46 34.27 65.14 35.03 64.78 35.76 C 63.33 35.56 62.44 34.39 61.57 33.33 Z" />
</g>
<g id="#242424ff">
<path fill="#242424" opacity="1.00" d=" M 74.93 37.36 C 107.00 18.65 148.87 18.56 180.98 37.22 C 184.71 39.38 188.34 41.74 191.80 44.32 C 191.27 45.28 189.85 46.14 190.60 47.38 C 192.62 52.39 196.34 56.48 198.65 61.36 C 202.42 69.48 204.27 78.30 206.16 87.00 C 206.92 94.87 209.66 102.30 211.08 110.03 C 213.08 115.44 213.87 121.15 214.37 126.86 C 217.41 139.80 216.19 153.33 213.87 166.29 C 209.94 166.30 206.01 166.31 202.08 166.31 C 202.93 164.42 203.61 162.42 203.69 160.33 C 204.34 153.56 205.76 146.49 203.73 139.83 C 203.94 139.31 204.15 138.79 204.37 138.27 C 202.29 132.10 201.23 125.66 200.45 119.22 C 199.42 116.85 198.68 114.38 198.04 111.89 C 196.33 105.61 193.21 99.60 192.97 92.99 C 193.12 81.94 191.13 70.42 185.10 60.98 C 178.90 49.64 167.61 42.09 156.01 37.06 C 148.61 34.49 140.99 31.78 133.04 32.04 C 127.75 32.18 122.44 31.78 117.17 32.31 C 101.36 34.88 86.07 42.25 75.33 54.31 C 69.30 62.02 65.07 71.21 63.84 80.98 C 62.39 87.48 63.98 94.34 61.61 100.69 C 59.42 106.83 57.85 113.18 55.50 119.27 C 54.87 125.68 53.59 132.07 51.72 138.20 C 52.80 140.67 51.10 143.21 51.30 145.77 C 51.47 152.64 51.38 159.84 53.98 166.31 C 48.31 166.31 42.65 166.36 36.99 166.31 C 36.71 161.85 35.94 157.44 35.38 153.02 C 34.70 142.99 35.41 132.91 36.92 122.99 C 39.15 110.34 43.20 98.04 44.50 85.23 C 46.01 78.31 47.28 71.32 49.55 64.60 C 49.93 63.63 49.71 62.81 48.88 62.14 C 47.06 63.16 45.73 64.81 44.63 66.54 C 40.40 73.12 35.76 79.50 32.66 86.73 C 32.21 86.52 31.30 86.09 30.85 85.88 C 33.70 79.47 37.28 73.41 41.32 67.68 C 50.25 55.38 61.74 44.93 74.93 37.36 Z" />
</g>
<g id="#f4f5f5ff">
<path fill="#f4f5f5" opacity="1.00" d=" M 65.78 33.51 C 69.52 33.16 72.77 30.82 76.60 30.96 C 76.57 31.69 76.54 32.43 76.51 33.16 C 75.44 34.37 73.77 35.56 74.93 37.36 C 61.74 44.93 50.25 55.38 41.32 67.68 C 40.80 66.08 40.47 64.42 40.36 62.74 C 41.38 62.60 42.39 62.45 43.40 62.30 C 42.00 60.96 40.05 60.43 38.16 61.20 C 35.92 62.95 33.88 64.94 31.55 66.56 C 31.11 66.41 30.25 66.12 29.82 65.97 C 38.12 53.14 49.00 42.01 61.57 33.33 C 62.44 34.39 63.33 35.56 64.78 35.76 C 65.14 35.03 65.46 34.27 65.78 33.51 Z" />
</g>
<g id="#323232ff">
<path fill="#323232" opacity="1.00" d=" M 75.33 54.31 C 86.07 42.25 101.36 34.88 117.17 32.31 C 122.44 31.78 127.75 32.18 133.04 32.04 C 140.99 31.78 148.61 34.49 156.01 37.06 C 167.61 42.09 178.90 49.64 185.10 60.98 C 191.13 70.42 193.12 81.94 192.97 92.99 C 193.21 99.60 196.33 105.61 198.04 111.89 C 198.68 114.38 199.42 116.85 200.45 119.22 C 201.23 125.66 202.29 132.10 204.37 138.27 C 204.15 138.79 203.94 139.31 203.73 139.83 C 205.76 146.49 204.34 153.56 203.69 160.33 C 203.61 162.42 202.93 164.42 202.08 166.31 C 199.10 166.30 196.13 166.28 193.16 166.28 C 193.56 162.91 193.58 159.50 194.11 156.15 C 194.76 152.34 193.58 148.56 193.09 144.81 C 192.92 142.80 191.80 141.12 190.70 139.50 C 190.97 139.03 191.24 138.55 191.51 138.08 C 189.23 135.28 188.26 131.75 186.76 128.53 C 184.06 130.65 181.08 132.53 177.57 132.89 C 180.36 130.67 183.32 128.32 184.63 124.88 C 186.43 120.15 186.18 114.55 183.46 110.21 C 183.18 112.82 182.95 115.45 182.34 118.02 C 182.81 113.21 182.53 107.70 178.69 104.24 C 176.80 101.81 173.84 100.93 171.00 100.18 C 167.99 99.62 166.21 96.27 163.01 96.40 C 157.85 96.26 152.68 96.33 147.52 96.49 C 146.73 90.66 143.62 84.99 144.97 78.99 C 146.39 72.79 151.58 68.19 152.69 61.85 C 153.30 57.81 153.76 53.19 151.39 49.61 C 150.97 52.74 150.83 55.89 150.37 59.02 C 150.83 54.49 151.41 49.48 148.63 45.53 C 148.60 45.50 148.56 45.42 148.54 45.38 C 147.68 42.41 144.56 39.22 141.50 41.58 C 139.72 44.79 140.51 48.52 140.20 52.01 C 140.05 55.28 138.78 58.32 137.81 61.41 C 137.08 56.41 137.67 50.87 134.43 46.61 C 132.90 44.41 131.74 41.55 129.04 40.56 C 127.55 40.29 126.53 41.48 125.68 42.47 C 124.78 46.98 125.52 51.70 124.19 56.14 C 123.57 58.31 122.28 60.18 121.21 62.14 C 121.67 58.20 121.99 53.95 119.71 50.46 C 118.29 47.08 117.13 43.19 113.95 41.01 C 112.49 39.95 110.26 40.98 109.90 42.67 C 109.29 44.40 109.07 46.23 109.09 48.06 C 108.38 47.40 107.68 46.74 106.98 46.08 C 102.12 49.17 96.40 51.10 92.45 55.47 C 88.34 60.09 84.13 65.26 83.45 71.65 C 82.81 76.12 84.18 80.71 86.36 84.58 C 89.84 88.03 94.57 90.50 99.55 90.59 C 100.31 89.37 101.07 88.16 101.83 86.94 C 101.12 84.58 100.44 82.19 100.06 79.75 L 101.11 80.72 C 102.80 86.78 105.76 92.89 111.06 96.59 C 109.92 96.87 108.79 97.17 107.66 97.49 C 101.75 97.69 95.72 96.89 89.88 98.06 C 86.09 98.54 86.14 103.13 86.54 106.02 C 88.72 120.65 96.24 134.49 107.39 144.22 C 105.84 144.37 104.14 145.17 102.65 144.37 C 98.89 142.23 96.54 138.31 92.83 136.12 C 88.68 135.52 84.46 135.88 80.29 136.12 C 78.61 137.13 76.84 137.99 75.00 138.69 C 76.60 138.89 78.20 139.14 79.79 139.39 C 77.56 140.24 75.36 141.20 73.27 142.35 C 73.41 143.29 73.56 144.23 73.70 145.17 C 72.54 146.40 71.37 147.63 70.21 148.86 C 70.39 149.79 70.57 150.72 70.75 151.66 C 69.97 152.22 69.20 152.78 68.43 153.34 C 68.92 156.33 69.84 159.47 68.58 162.40 C 69.07 163.70 69.59 164.98 70.10 166.27 C 64.73 166.30 59.35 166.33 53.98 166.31 C 51.38 159.84 51.47 152.64 51.30 145.77 C 51.10 143.21 52.80 140.67 51.72 138.20 C 53.59 132.07 54.87 125.68 55.50 119.27 C 57.85 113.18 59.42 106.83 61.61 100.69 C 63.98 94.34 62.39 87.48 63.84 80.98 C 65.07 71.21 69.30 62.02 75.33 54.31 M 156.15 49.95 C 153.62 53.89 155.95 58.92 154.10 63.14 C 152.56 69.19 147.17 73.56 146.59 79.91 C 145.97 83.64 147.22 87.54 149.42 90.54 C 153.37 92.32 157.70 89.91 161.81 89.92 C 165.22 87.72 168.84 85.83 171.91 83.12 C 171.74 82.59 171.40 81.52 171.24 80.99 C 174.08 75.32 172.94 68.55 169.61 63.35 C 166.10 58.04 161.99 52.84 156.15 49.95 Z" />
</g>
<g id="#f3f4f5ff">
<path fill="#f3f4f5" opacity="1.00" d=" M 180.27 32.32 C 184.72 30.60 188.32 34.19 192.03 35.94 C 193.20 35.51 193.66 34.21 194.41 33.31 C 205.99 41.31 216.14 51.37 224.15 62.94 C 223.66 63.16 222.69 63.62 222.20 63.84 C 220.06 60.70 218.10 57.09 214.38 55.59 C 212.11 53.95 209.40 53.63 206.91 54.97 C 208.14 56.39 209.40 57.80 210.67 59.20 C 210.45 59.73 210.02 60.79 209.80 61.31 C 204.45 55.01 198.41 49.29 191.80 44.32 C 188.34 41.74 184.71 39.38 180.98 37.22 C 181.15 36.75 181.50 35.82 181.67 35.36 C 180.97 34.64 178.12 32.86 180.27 32.32 Z" />
</g>
<g id="#e98432ff">
<path fill="#e98432" opacity="1.00" d=" M 109.90 42.67 C 110.26 40.98 112.49 39.95 113.95 41.01 C 117.13 43.19 118.29 47.08 119.71 50.46 C 119.54 54.10 119.67 57.89 118.21 61.31 C 116.66 65.50 113.19 68.63 111.71 72.85 C 109.35 79.28 110.89 86.52 113.96 92.44 C 114.36 93.93 113.60 95.28 113.19 96.67 C 112.66 96.65 111.59 96.61 111.06 96.59 C 105.76 92.89 102.80 86.78 101.11 80.72 C 101.18 77.16 100.78 73.45 102.01 70.04 C 103.97 64.98 108.46 61.30 110.02 56.04 C 111.32 51.68 110.58 47.07 109.90 42.67 M 111.73 42.75 C 112.44 47.45 113.47 52.35 111.86 57.00 C 110.39 62.31 105.78 65.90 103.85 70.97 C 102.18 76.80 104.01 83.03 107.27 87.96 C 107.89 90.40 109.61 92.63 111.74 93.97 C 109.37 88.01 107.73 81.49 108.91 75.06 C 109.47 71.07 111.99 67.82 114.06 64.50 C 118.82 57.82 118.18 48.37 112.76 42.27 C 112.51 42.39 111.99 42.63 111.73 42.75 Z" />
</g>
<g id="#db8640ff">
<path fill="#db8640" opacity="1.00" d=" M 125.68 42.47 C 126.53 41.48 127.55 40.29 129.04 40.56 C 131.74 41.55 132.90 44.41 134.43 46.61 C 135.23 50.70 136.05 54.99 134.83 59.08 C 133.47 64.95 128.25 69.03 127.02 74.94 C 125.69 80.88 127.14 87.18 129.99 92.45 C 130.05 93.75 130.06 95.04 130.02 96.34 C 127.21 96.59 124.89 95.08 123.13 93.04 C 118.46 87.29 115.67 80.01 116.45 72.53 C 117.48 70.35 118.47 68.15 119.60 66.02 C 122.66 62.75 125.34 58.95 126.39 54.53 C 127.08 50.53 126.75 46.38 125.68 42.47 M 128.09 41.93 C 128.43 47.32 129.49 52.78 127.79 58.07 C 125.36 62.57 121.91 66.43 119.58 70.98 C 117.97 77.63 120.42 84.39 124.05 89.92 C 125.11 91.41 126.02 93.24 127.84 93.93 C 123.33 84.67 122.80 72.63 129.98 64.53 C 132.99 59.99 134.48 54.23 132.41 48.99 C 131.39 46.41 130.21 43.80 128.09 41.93 Z" />
</g>
<g id="#f48e3cff">
<path fill="#f48e3c" opacity="1.00" d=" M 141.50 41.58 C 144.56 39.22 147.68 42.41 148.54 45.38 C 148.56 45.42 148.60 45.50 148.63 45.53 C 151.41 49.48 150.83 54.49 150.37 59.02 C 149.01 64.75 144.12 68.78 142.62 74.43 C 141.80 79.21 142.03 84.30 143.97 88.80 C 145.00 91.26 145.94 93.89 145.09 96.57 C 140.66 96.35 138.28 92.27 136.23 88.90 C 133.16 83.72 132.05 77.60 132.61 71.64 C 134.08 68.44 135.71 65.29 137.91 62.51 C 143.20 56.86 142.62 48.65 141.50 41.58 M 143.36 42.26 C 143.80 46.75 145.21 51.34 143.84 55.82 C 142.70 61.39 138.35 65.36 135.64 70.15 C 132.81 75.47 134.94 81.56 137.40 86.57 C 138.98 89.40 140.28 92.72 143.25 94.40 C 142.03 88.62 139.04 83.08 140.07 76.97 C 140.26 70.33 145.60 65.78 147.91 59.97 C 149.28 55.94 149.15 51.54 147.26 47.70 C 146.20 45.76 145.66 43.13 143.36 42.26 Z" />
</g>
<g id="#feefd5ff">
<path fill="#feefd5" opacity="1.00" d=" M 111.73 42.75 C 111.99 42.63 112.51 42.39 112.76 42.27 C 118.18 48.37 118.82 57.82 114.06 64.50 C 113.67 63.98 112.90 62.94 112.51 62.42 C 110.63 65.57 108.23 68.45 106.91 71.90 C 105.52 77.18 106.48 82.66 107.27 87.96 C 104.01 83.03 102.18 76.80 103.85 70.97 C 105.78 65.90 110.39 62.31 111.86 57.00 C 113.47 52.35 112.44 47.45 111.73 42.75 Z" />
</g>
<g id="#fff6ecff">
<path fill="#fff6ec" opacity="1.00" d=" M 128.09 41.93 C 130.21 43.80 131.39 46.41 132.41 48.99 C 131.00 52.78 130.52 56.97 128.15 60.34 C 128.06 59.78 127.88 58.64 127.79 58.07 C 129.49 52.78 128.43 47.32 128.09 41.93 Z" />
</g>
<g id="#775a45ff">
<path fill="#775a45" opacity="1.00" d=" M 140.20 52.01 C 140.51 48.52 139.72 44.79 141.50 41.58 C 142.62 48.65 143.20 56.86 137.91 62.51 L 137.81 61.41 C 138.78 58.32 140.05 55.28 140.20 52.01 Z" />
</g>
<g id="#7b5d48ff">
<path fill="#7b5d48" opacity="1.00" d=" M 109.09 48.06 C 109.07 46.23 109.29 44.40 109.90 42.67 C 110.58 47.07 111.32 51.68 110.02 56.04 C 108.46 61.30 103.97 64.98 102.01 70.04 C 100.78 73.45 101.18 77.16 101.11 80.72 L 100.06 79.75 C 98.86 74.19 100.33 68.27 103.83 63.81 C 107.30 59.34 110.10 53.90 109.09 48.06 Z" />
</g>
<g id="#835f45ff">
<path fill="#835f45" opacity="1.00" d=" M 124.19 56.14 C 125.52 51.70 124.78 46.98 125.68 42.47 C 126.75 46.38 127.08 50.53 126.39 54.53 C 125.34 58.95 122.66 62.75 119.60 66.02 C 120.15 64.73 120.68 63.44 121.21 62.14 C 122.28 60.18 123.57 58.31 124.19 56.14 Z" />
</g>
<g id="#faf7f7ff">
<path fill="#faf7f7" opacity="1.00" d=" M 143.36 42.26 C 145.66 43.13 146.20 45.76 147.26 47.70 C 146.33 49.98 146.00 52.43 146.02 54.89 C 145.52 59.83 142.13 63.68 139.94 67.95 C 138.83 70.16 137.60 72.31 136.06 74.26 C 135.89 72.89 135.75 71.52 135.64 70.15 C 138.35 65.36 142.70 61.39 143.84 55.82 C 145.21 51.34 143.80 46.75 143.36 42.26 Z" />
<path fill="#faf7f7" opacity="1.00" d=" M 73.64 174.71 C 75.81 172.10 81.46 172.25 82.22 176.09 C 81.94 177.21 81.25 178.01 80.14 178.49 C 79.04 177.64 77.65 175.23 76.14 177.01 C 74.57 179.83 74.65 183.18 74.38 186.30 C 75.25 186.45 76.99 186.76 77.86 186.92 C 77.79 187.58 77.65 188.92 77.57 189.59 C 76.77 189.65 75.17 189.78 74.37 189.84 C 74.17 193.67 74.24 197.52 74.70 201.34 C 73.59 201.52 72.47 201.69 71.36 201.87 C 69.92 198.20 70.42 194.25 70.60 190.43 C 69.93 190.36 68.60 190.23 67.93 190.17 C 67.75 189.73 67.40 188.86 67.23 188.42 C 68.06 187.27 69.23 186.63 70.75 186.52 C 70.75 182.47 70.84 177.94 73.64 174.71 Z" />
</g>
<g id="#bc773fff">
<path fill="#bc773f" opacity="1.00" d=" M 148.54 45.38 C 148.56 45.42 148.60 45.50 148.63 45.53 C 148.60 45.50 148.56 45.42 148.54 45.38 Z" />
</g>
<g id="#181818ff">
<path fill="#181818" opacity="1.00" d=" M 190.60 47.38 C 189.85 46.14 191.27 45.28 191.80 44.32 C 198.41 49.29 204.45 55.01 209.80 61.31 C 223.05 76.96 231.41 96.52 234.06 116.82 C 234.02 117.25 233.94 118.10 233.90 118.52 C 233.28 120.65 232.78 122.83 232.91 125.07 C 233.11 129.90 232.47 134.83 233.85 139.54 C 233.91 139.82 234.02 140.36 234.08 140.64 C 233.48 145.25 232.68 149.83 231.74 154.39 C 231.15 156.94 230.44 159.46 229.71 161.98 C 229.38 163.13 229.04 164.28 228.69 165.43 C 224.04 167.37 218.78 165.87 213.87 166.29 C 216.19 153.33 217.41 139.80 214.37 126.86 C 213.87 121.15 213.08 115.44 211.08 110.03 C 209.66 102.30 206.92 94.87 206.16 87.00 C 204.27 78.30 202.42 69.48 198.65 61.36 C 196.34 56.48 192.62 52.39 190.60 47.38 Z" />
</g>
<g id="#3c3c3cff">
<path fill="#3c3c3c" opacity="1.00" d=" M 92.45 55.47 C 96.40 51.10 102.12 49.17 106.98 46.08 C 107.68 46.74 108.38 47.40 109.09 48.06 C 110.10 53.90 107.30 59.34 103.83 63.81 C 100.33 68.27 98.86 74.19 100.06 79.75 C 100.44 82.19 101.12 84.58 101.83 86.94 C 101.07 88.16 100.31 89.37 99.55 90.59 C 94.57 90.50 89.84 88.03 86.36 84.58 C 84.18 80.71 82.81 76.12 83.45 71.65 C 84.13 65.26 88.34 60.09 92.45 55.47 Z" />
<path fill="#3c3c3c" opacity="1.00" d=" M 156.15 49.95 C 161.99 52.84 166.10 58.04 169.61 63.35 C 172.94 68.55 174.08 75.32 171.24 80.99 C 171.40 81.52 171.74 82.59 171.91 83.12 C 168.84 85.83 165.22 87.72 161.81 89.92 C 157.70 89.91 153.37 92.32 149.42 90.54 C 147.22 87.54 145.97 83.64 146.59 79.91 C 147.17 73.56 152.56 69.19 154.10 63.14 C 155.95 58.92 153.62 53.89 156.15 49.95 Z" />
</g>
<g id="#612e10ff">
<path fill="#612e10" opacity="1.00" d=" M 134.43 46.61 C 137.67 50.87 137.08 56.41 137.81 61.41 L 137.91 62.51 C 135.71 65.29 134.08 68.44 132.61 71.64 C 132.25 72.06 131.54 72.89 131.18 73.31 C 131.26 71.88 131.37 70.45 131.46 69.03 C 128.04 73.98 127.62 80.32 128.97 86.05 C 129.49 88.15 129.94 90.28 129.99 92.45 C 127.14 87.18 125.69 80.88 127.02 74.94 C 128.25 69.03 133.47 64.95 134.83 59.08 C 136.05 54.99 135.23 50.70 134.43 46.61 Z" />
</g>
<g id="#f7d4abff">
<path fill="#f7d4ab" opacity="1.00" d=" M 147.26 47.70 C 149.15 51.54 149.28 55.94 147.91 59.97 C 147.03 58.38 146.36 56.67 146.02 54.89 C 146.00 52.43 146.33 49.98 147.26 47.70 Z" />
</g>
<g id="#ffe1b5ff">
<path fill="#ffe1b5" opacity="1.00" d=" M 132.41 48.99 C 134.48 54.23 132.99 59.99 129.98 64.53 C 129.42 63.79 128.87 63.05 128.32 62.31 C 125.52 66.68 123.10 71.26 120.68 75.84 C 119.95 74.32 119.57 72.67 119.58 70.98 C 121.91 66.43 125.36 62.57 127.79 58.07 C 127.88 58.64 128.06 59.78 128.15 60.34 C 130.52 56.97 131.00 52.78 132.41 48.99 Z" />
</g>
<g id="#4d210aff">
<path fill="#4d210a" opacity="1.00" d=" M 151.39 49.61 C 153.76 53.19 153.30 57.81 152.69 61.85 C 151.58 68.19 146.39 72.79 144.97 78.99 C 143.62 84.99 146.73 90.66 147.52 96.49 C 146.71 96.53 145.90 96.56 145.09 96.57 C 145.94 93.89 145.00 91.26 143.97 88.80 C 142.03 84.30 141.80 79.21 142.62 74.43 C 144.12 68.78 149.01 64.75 150.37 59.02 C 150.83 55.89 150.97 52.74 151.39 49.61 Z" />
</g>
<g id="#50200aff">
<path fill="#50200a" opacity="1.00" d=" M 119.71 50.46 C 121.99 53.95 121.67 58.20 121.21 62.14 C 120.68 63.44 120.15 64.73 119.60 66.02 C 118.47 68.15 117.48 70.35 116.45 72.53 C 110.91 77.61 113.57 85.90 113.96 92.44 C 110.89 86.52 109.35 79.28 111.71 72.85 C 113.19 68.63 116.66 65.50 118.21 61.31 C 119.67 57.89 119.54 54.10 119.71 50.46 Z" />
</g>
<g id="#fefefeff">
<path fill="#fefefe" opacity="1.00" d=" M 206.91 54.97 C 209.40 53.63 212.11 53.95 214.38 55.59 C 218.10 57.09 220.06 60.70 222.20 63.84 C 222.69 63.62 223.66 63.16 224.15 62.94 C 237.84 82.48 245.10 106.27 245.14 130.09 C 241.78 130.13 238.43 130.08 235.07 130.11 C 234.95 125.67 234.81 121.21 234.06 116.82 C 231.41 96.52 223.05 76.96 209.80 61.31 C 210.02 60.79 210.45 59.73 210.67 59.20 C 209.40 57.80 208.14 56.39 206.91 54.97 Z" />
</g>
<g id="#ffc16bff">
<path fill="#ffc16b" opacity="1.00" d=" M 146.02 54.89 C 146.36 56.67 147.03 58.38 147.91 59.97 C 145.60 65.78 140.26 70.33 140.07 76.97 C 139.04 83.08 142.03 88.62 143.25 94.40 C 140.28 92.72 138.98 89.40 137.40 86.57 C 134.94 81.56 132.81 75.47 135.64 70.15 C 135.75 71.52 135.89 72.89 136.06 74.26 C 137.60 72.31 138.83 70.16 139.94 67.95 C 142.13 63.68 145.52 59.83 146.02 54.89 Z" />
</g>
<g id="#fefeffff">
<path fill="#fefeff" opacity="1.00" d=" M 31.55 66.56 C 33.88 64.94 35.92 62.95 38.16 61.20 C 40.05 60.43 42.00 60.96 43.40 62.30 C 42.39 62.45 41.38 62.60 40.36 62.74 C 40.47 64.42 40.80 66.08 41.32 67.68 C 37.28 73.41 33.70 79.47 30.85 85.88 C 24.01 101.26 20.41 118.30 21.73 135.14 C 21.54 134.58 21.16 133.46 20.97 132.90 C 20.64 132.02 20.31 131.14 19.97 130.26 C 16.94 129.95 13.89 129.98 10.86 130.08 C 10.93 107.48 17.41 84.90 29.82 65.97 C 30.25 66.12 31.11 66.41 31.55 66.56 Z" />
</g>
<g id="#151515ff">
<path fill="#151515" opacity="1.00" d=" M 44.63 66.54 C 45.73 64.81 47.06 63.16 48.88 62.14 C 49.71 62.81 49.93 63.63 49.55 64.60 C 47.28 71.32 46.01 78.31 44.50 85.23 C 43.20 98.04 39.15 110.34 36.92 122.99 C 35.41 132.91 34.70 142.99 35.38 153.02 C 35.94 157.44 36.71 161.85 36.99 166.31 C 33.95 166.30 30.90 166.31 27.85 166.32 C 26.92 163.58 26.00 160.83 25.29 158.03 C 24.81 156.22 24.39 154.39 24.00 152.57 C 23.06 147.95 22.38 143.27 21.97 138.57 C 21.92 137.42 21.84 136.28 21.73 135.14 C 20.41 118.30 24.01 101.26 30.85 85.88 C 31.30 86.09 32.21 86.52 32.66 86.73 C 35.76 79.50 40.40 73.12 44.63 66.54 Z" />
</g>
<g id="#f6c997ff">
<path fill="#f6c997" opacity="1.00" d=" M 106.91 71.90 C 108.23 68.45 110.63 65.57 112.51 62.42 C 112.90 62.94 113.67 63.98 114.06 64.50 C 111.99 67.82 109.47 71.07 108.91 75.06 C 107.73 81.49 109.37 88.01 111.74 93.97 C 109.61 92.63 107.89 90.40 107.27 87.96 C 106.48 82.66 105.52 77.18 106.91 71.90 Z" />
</g>
<g id="#ffcf8bff">
<path fill="#ffcf8b" opacity="1.00" d=" M 128.32 62.31 C 128.87 63.05 129.42 63.79 129.98 64.53 C 122.80 72.63 123.33 84.67 127.84 93.93 C 126.02 93.24 125.11 91.41 124.05 89.92 C 120.42 84.39 117.97 77.63 119.58 70.98 C 119.57 72.67 119.95 74.32 120.68 75.84 C 123.10 71.26 125.52 66.68 128.32 62.31 M 123.92 87.33 C 123.63 84.75 123.10 82.21 122.48 79.69 C 120.51 82.07 122.11 85.37 123.92 87.33 Z" />
</g>
<g id="#3a322cff">
<path fill="#3a322c" opacity="1.00" d=" M 131.46 69.03 C 131.37 70.45 131.26 71.88 131.18 73.31 C 131.02 77.66 130.86 82.30 132.97 86.27 C 134.79 89.70 137.25 92.73 139.16 96.11 C 136.12 96.36 133.07 96.50 130.02 96.34 C 130.06 95.04 130.05 93.75 129.99 92.45 C 129.94 90.28 129.49 88.15 128.97 86.05 C 127.62 80.32 128.04 73.98 131.46 69.03 Z" />
</g>
<g id="#775135ff">
<path fill="#775135" opacity="1.00" d=" M 131.18 73.31 C 131.54 72.89 132.25 72.06 132.61 71.64 C 132.05 77.60 133.16 83.72 136.23 88.90 C 138.28 92.27 140.66 96.35 145.09 96.57 C 145.90 96.56 146.71 96.53 147.52 96.49 C 152.68 96.33 157.85 96.26 163.01 96.40 C 166.21 96.27 167.99 99.62 171.00 100.18 C 173.84 100.93 176.80 101.81 178.69 104.24 C 182.53 107.70 182.81 113.21 182.34 118.02 C 182.13 118.57 181.70 119.68 181.49 120.24 C 181.61 115.52 182.31 110.04 178.82 106.26 C 175.46 101.59 169.00 102.04 164.94 98.31 C 158.68 97.20 152.27 97.97 145.95 97.84 C 133.19 97.67 120.41 98.13 107.66 97.49 C 108.79 97.17 109.92 96.87 111.06 96.59 C 111.59 96.61 112.66 96.65 113.19 96.67 C 116.69 96.84 120.19 96.76 123.69 96.52 C 123.52 95.35 123.35 94.19 123.13 93.04 C 124.89 95.08 127.21 96.59 130.02 96.34 C 133.07 96.50 136.12 96.36 139.16 96.11 C 137.25 92.73 134.79 89.70 132.97 86.27 C 130.86 82.30 131.02 77.66 131.18 73.31 Z" />
</g>
<g id="#3b3532ff">
<path fill="#3b3532" opacity="1.00" d=" M 113.96 92.44 C 113.57 85.90 110.91 77.61 116.45 72.53 C 115.67 80.01 118.46 87.29 123.13 93.04 C 123.35 94.19 123.52 95.35 123.69 96.52 C 120.19 96.76 116.69 96.84 113.19 96.67 C 113.60 95.28 114.36 93.93 113.96 92.44 Z" />
</g>
<g id="#ffae44ff">
<path fill="#ffae44" opacity="1.00" d=" M 123.92 87.33 C 122.11 85.37 120.51 82.07 122.48 79.69 C 123.10 82.21 123.63 84.75 123.92 87.33 Z" />
</g>
<g id="#dd863dff">
<path fill="#dd863d" opacity="1.00" d=" M 89.88 98.06 C 95.72 96.89 101.75 97.69 107.66 97.49 C 120.41 98.13 133.19 97.67 145.95 97.84 C 152.27 97.97 158.68 97.20 164.94 98.31 C 169.00 102.04 175.46 101.59 178.82 106.26 C 182.31 110.04 181.61 115.52 181.49 120.24 C 179.88 124.65 176.01 128.02 171.52 129.26 C 167.51 130.18 163.38 129.31 159.79 127.42 C 155.61 134.84 150.21 141.64 143.21 146.58 C 153.17 146.74 163.12 146.30 173.08 146.65 C 176.20 146.95 176.31 150.78 174.50 152.63 C 167.35 157.69 158.48 159.15 149.99 160.32 C 140.42 161.87 130.70 161.02 121.05 161.24 C 108.78 161.57 96.43 159.98 84.79 155.98 C 82.31 154.16 78.18 152.82 78.25 149.14 C 78.22 146.98 80.83 146.80 82.43 146.60 C 89.96 146.34 97.50 146.63 105.04 146.54 C 106.41 146.56 107.71 146.12 109.00 145.70 C 108.60 145.33 107.79 144.59 107.39 144.22 C 96.24 134.49 88.72 120.65 86.54 106.02 C 86.14 103.13 86.09 98.54 89.88 98.06 M 89.10 100.42 C 88.05 107.67 91.12 114.86 93.74 121.51 C 94.82 124.10 96.16 126.57 97.65 128.95 C 100.73 134.13 104.53 139.02 109.42 142.61 L 109.42 142.85 C 111.57 144.23 113.51 146.19 116.05 146.78 C 122.72 146.95 129.40 146.60 136.06 147.03 C 138.19 147.18 139.94 145.77 141.59 144.64 C 148.95 139.30 154.68 131.97 158.89 123.96 C 161.30 125.10 163.32 127.22 166.12 127.37 C 173.60 128.68 181.06 121.39 180.08 113.90 C 179.97 111.52 178.36 109.63 177.16 107.70 C 174.35 104.07 169.79 102.91 165.39 103.57 C 165.28 102.99 165.05 101.82 164.93 101.24 L 164.87 100.24 C 155.24 99.80 145.61 100.40 135.98 99.92 C 128.65 100.58 121.31 99.44 113.98 100.14 C 105.68 99.83 97.37 99.57 89.10 100.42 M 79.81 149.30 C 80.92 150.28 81.90 152.10 83.52 152.03 C 86.76 154.76 91.04 155.59 95.03 156.58 C 102.56 158.20 110.25 159.41 117.97 159.12 C 131.98 158.92 146.23 160.15 159.93 156.46 C 164.60 155.06 170.10 154.21 173.32 150.17 C 171.65 149.97 169.99 149.71 168.31 149.71 C 157.57 148.76 146.77 149.76 136.01 149.45 C 129.02 149.14 122.02 149.40 115.04 148.95 C 105.72 149.40 96.37 149.45 87.05 148.94 C 84.63 148.80 82.21 148.99 79.81 149.30 Z" />
</g>
<g id="#fffaefff">
<path fill="#fffaef" opacity="1.00" d=" M 89.10 100.42 C 97.37 99.57 105.68 99.83 113.98 100.14 C 121.31 99.44 128.65 100.58 135.98 99.92 C 145.61 100.40 155.24 99.80 164.87 100.24 L 164.93 101.24 C 163.40 101.25 161.87 101.26 160.34 101.28 C 160.81 101.79 161.27 102.30 161.74 102.81 C 160.44 104.12 159.14 105.42 157.94 106.82 C 151.42 106.89 144.79 107.07 138.41 108.55 C 129.74 112.45 121.00 116.23 112.34 120.17 C 109.26 121.44 106.30 123.18 103.00 123.80 C 99.87 123.19 96.94 121.80 93.74 121.51 C 91.12 114.86 88.05 107.67 89.10 100.42 Z" />
</g>
<g id="#ffe4b6ff">
<path fill="#ffe4b6" opacity="1.00" d=" M 160.34 101.28 C 161.87 101.26 163.40 101.25 164.93 101.24 C 165.05 101.82 165.28 102.99 165.39 103.57 C 169.79 102.91 174.35 104.07 177.16 107.70 C 174.28 110.69 176.92 115.13 175.53 118.61 C 173.57 122.21 168.28 125.55 164.79 121.90 C 167.30 121.80 170.27 122.21 172.24 120.28 C 175.45 117.80 175.50 112.21 172.10 109.89 C 169.72 108.39 166.21 108.09 163.98 109.97 C 162.75 113.36 161.30 117.20 162.89 120.72 C 162.56 121.13 161.91 121.96 161.59 122.37 C 160.43 122.07 159.17 121.02 158.00 121.82 C 155.90 123.48 154.96 126.15 153.12 128.06 C 151.79 128.96 150.18 129.33 148.71 129.95 C 151.23 125.85 154.19 122.09 157.44 118.56 C 157.37 116.70 156.84 114.90 156.49 113.09 C 156.49 117.35 153.55 120.50 150.44 123.01 C 147.69 124.68 145.68 127.33 142.84 128.85 C 135.98 132.13 128.92 134.96 121.99 138.07 C 115.94 140.78 110.67 135.50 105.17 133.84 C 104.89 137.04 107.58 138.99 109.41 141.19 C 109.41 141.54 109.42 142.26 109.42 142.61 C 104.53 139.02 100.73 134.13 97.65 128.95 C 103.03 127.31 107.37 133.87 112.88 131.74 C 119.23 129.30 125.34 126.30 131.58 123.61 C 138.63 120.21 146.12 117.75 152.98 113.95 C 155.75 112.55 156.44 109.27 157.94 106.82 C 159.14 105.42 160.44 104.12 161.74 102.81 C 161.27 102.30 160.81 101.79 160.34 101.28 Z" />
</g>
<g id="#ffeecfff">
<path fill="#ffeecf" opacity="1.00" d=" M 138.41 108.55 C 144.79 107.07 151.42 106.89 157.94 106.82 C 156.44 109.27 155.75 112.55 152.98 113.95 C 146.12 117.75 138.63 120.21 131.58 123.61 C 125.34 126.30 119.23 129.30 112.88 131.74 C 107.37 133.87 103.03 127.31 97.65 128.95 C 96.16 126.57 94.82 124.10 93.74 121.51 C 96.94 121.80 99.87 123.19 103.00 123.80 C 106.30 123.18 109.26 121.44 112.34 120.17 C 121.00 116.23 129.74 112.45 138.41 108.55 Z" />
</g>
<g id="#ffd996ff">
<path fill="#ffd996" opacity="1.00" d=" M 177.16 107.70 C 178.36 109.63 179.97 111.52 180.08 113.90 C 181.06 121.39 173.60 128.68 166.12 127.37 C 163.32 127.22 161.30 125.10 158.89 123.96 C 154.68 131.97 148.95 139.30 141.59 144.64 C 139.94 145.77 138.19 147.18 136.06 147.03 C 129.40 146.60 122.72 146.95 116.05 146.78 C 113.51 146.19 111.57 144.23 109.42 142.85 L 109.42 142.61 C 109.42 142.26 109.41 141.54 109.41 141.19 C 107.58 138.99 104.89 137.04 105.17 133.84 C 110.67 135.50 115.94 140.78 121.99 138.07 C 128.92 134.96 135.98 132.13 142.84 128.85 C 145.68 127.33 147.69 124.68 150.44 123.01 C 148.52 128.68 144.02 132.86 139.49 136.53 C 137.34 138.27 134.71 139.47 131.91 139.59 C 126.33 139.87 120.74 139.80 115.16 140.15 C 115.63 140.63 116.10 141.11 116.58 141.60 C 115.25 142.26 113.92 142.92 112.60 143.58 L 113.58 144.14 C 114.99 144.92 116.36 146.01 118.05 146.05 C 123.20 146.39 128.39 146.25 133.52 145.73 C 133.80 145.77 134.37 145.83 134.65 145.86 C 134.50 144.43 134.36 143.01 134.22 141.58 C 140.48 139.74 144.54 134.59 148.71 129.95 C 150.18 129.33 151.79 128.96 153.12 128.06 C 154.96 126.15 155.90 123.48 158.00 121.82 C 159.17 121.02 160.43 122.07 161.59 122.37 C 161.91 121.96 162.56 121.13 162.89 120.72 C 163.36 121.01 164.31 121.61 164.79 121.90 C 168.28 125.55 173.57 122.21 175.53 118.61 C 176.92 115.13 174.28 110.69 177.16 107.70 Z" />
</g>
<g id="#ee8738ff">
<path fill="#ee8738" opacity="1.00" d=" M 163.98 109.97 C 166.21 108.09 169.72 108.39 172.10 109.89 C 175.50 112.21 175.45 117.80 172.24 120.28 C 170.27 122.21 167.30 121.80 164.79 121.90 C 164.31 121.61 163.36 121.01 162.89 120.72 C 161.30 117.20 162.75 113.36 163.98 109.97 M 166.33 111.45 C 165.10 113.15 164.89 115.36 164.18 117.30 C 165.56 118.42 167.05 120.47 169.02 119.10 C 172.26 118.58 171.97 114.93 171.42 112.50 C 170.31 110.84 168.01 111.37 166.33 111.45 Z" />
</g>
<g id="#351907ff">
<path fill="#351907" opacity="1.00" d=" M 183.46 110.21 C 186.18 114.55 186.43 120.15 184.63 124.88 C 183.32 128.32 180.36 130.67 177.57 132.89 C 173.77 133.94 169.85 135.14 165.94 133.90 C 161.83 132.45 159.72 137.01 157.57 139.57 C 155.73 142.18 153.39 144.36 150.83 146.23 C 158.25 146.40 165.67 146.31 173.08 146.65 C 163.12 146.30 153.17 146.74 143.21 146.58 C 150.21 141.64 155.61 134.84 159.79 127.42 C 163.38 129.31 167.51 130.18 171.52 129.26 C 176.01 128.02 179.88 124.65 181.49 120.24 C 181.70 119.68 182.13 118.57 182.34 118.02 C 182.95 115.45 183.18 112.82 183.46 110.21 Z" />
</g>
<g id="#3d190bff">
<path fill="#3d190b" opacity="1.00" d=" M 166.33 111.45 C 168.01 111.37 170.31 110.84 171.42 112.50 C 171.97 114.93 172.26 118.58 169.02 119.10 C 167.05 120.47 165.56 118.42 164.18 117.30 C 164.89 115.36 165.10 113.15 166.33 111.45 Z" />
</g>
<g id="#ffce78ff">
<path fill="#ffce78" opacity="1.00" d=" M 156.49 113.09 C 156.84 114.90 157.37 116.70 157.44 118.56 C 154.19 122.09 151.23 125.85 148.71 129.95 C 144.54 134.59 140.48 139.74 134.22 141.58 C 134.36 143.01 134.50 144.43 134.65 145.86 C 134.37 145.83 133.80 145.77 133.52 145.73 C 127.08 143.75 120.18 145.40 113.58 144.14 L 112.60 143.58 C 113.92 142.92 115.25 142.26 116.58 141.60 C 116.10 141.11 115.63 140.63 115.16 140.15 C 120.74 139.80 126.33 139.87 131.91 139.59 C 134.71 139.47 137.34 138.27 139.49 136.53 C 144.02 132.86 148.52 128.68 150.44 123.01 C 153.55 120.50 156.49 117.35 156.49 113.09 Z" />
</g>
<g id="#959797ff">
<path fill="#959797" opacity="1.00" d=" M 234.06 116.82 C 234.81 121.21 234.95 125.67 235.07 130.11 C 235.06 130.79 235.03 132.15 235.02 132.84 C 238.38 132.82 241.73 132.84 245.09 132.89 C 244.76 139.33 244.27 145.79 242.94 152.11 C 243.42 148.10 243.66 144.06 243.64 140.02 C 243.30 141.73 242.98 143.45 242.67 145.18 C 242.28 144.23 241.90 143.29 241.51 142.35 C 241.29 142.66 240.86 143.30 240.64 143.61 C 239.13 143.51 237.65 143.22 236.24 142.72 C 236.03 143.79 235.83 144.88 235.63 145.96 C 235.10 144.19 234.56 142.42 234.08 140.64 C 234.02 140.36 233.91 139.82 233.85 139.54 C 234.56 132.56 234.57 125.51 233.90 118.52 C 233.94 118.10 234.02 117.25 234.06 116.82 Z" />
</g>
<g id="#020201ff">
<path fill="#020201" opacity="1.00" d=" M 232.91 125.07 C 232.78 122.83 233.28 120.65 233.90 118.52 C 234.57 125.51 234.56 132.56 233.85 139.54 C 232.47 134.83 233.11 129.90 232.91 125.07 Z" />
</g>
<g id="#3a3a3aff">
<path fill="#3a3a3a" opacity="1.00" d=" M 177.57 132.89 C 181.08 132.53 184.06 130.65 186.76 128.53 C 188.26 131.75 189.23 135.28 191.51 138.08 C 191.24 138.55 190.97 139.03 190.70 139.50 C 191.80 141.12 192.92 142.80 193.09 144.81 C 193.58 148.56 194.76 152.34 194.11 156.15 C 193.58 159.50 193.56 162.91 193.16 166.28 C 152.14 166.25 111.12 166.24 70.10 166.27 C 69.59 164.98 69.07 163.70 68.58 162.40 C 69.84 159.47 68.92 156.33 68.43 153.34 C 69.20 152.78 69.97 152.22 70.75 151.66 C 70.57 150.72 70.39 149.79 70.21 148.86 C 71.37 147.63 72.54 146.40 73.70 145.17 C 73.56 144.23 73.41 143.29 73.27 142.35 C 75.36 141.20 77.56 140.24 79.79 139.39 C 78.20 139.14 76.60 138.89 75.00 138.69 C 76.84 137.99 78.61 137.13 80.29 136.12 C 84.46 135.88 88.68 135.52 92.83 136.12 C 96.54 138.31 98.89 142.23 102.65 144.37 C 104.14 145.17 105.84 144.37 107.39 144.22 C 107.79 144.59 108.60 145.33 109.00 145.70 C 107.71 146.12 106.41 146.56 105.04 146.54 C 97.50 146.63 89.96 146.34 82.43 146.60 C 80.83 146.80 78.22 146.98 78.25 149.14 C 78.18 152.82 82.31 154.16 84.79 155.98 C 85.44 157.32 85.96 159.02 87.59 159.46 C 98.79 164.00 111.10 164.75 123.06 164.39 C 134.92 164.05 146.96 165.44 158.66 162.79 C 164.46 161.55 170.85 160.46 175.37 156.31 C 176.87 154.96 176.47 153.12 174.50 152.63 C 176.31 150.78 176.20 146.95 173.08 146.65 C 165.67 146.31 158.25 146.40 150.83 146.23 C 153.39 144.36 155.73 142.18 157.57 139.57 C 159.72 137.01 161.83 132.45 165.94 133.90 C 169.85 135.14 173.77 133.94 177.57 132.89 Z" />
</g>
<g id="#cfd0cffe">
<path fill="#cfd0cf" opacity="1.00" d=" M 10.86 130.08 C 13.89 129.98 16.94 129.95 19.97 130.26 C 20.31 131.14 20.64 132.02 20.97 132.90 C 17.62 132.83 14.26 132.83 10.91 132.89 C 10.90 132.19 10.87 130.78 10.86 130.08 Z" />
<path fill="#cfd0cf" opacity="1.00" d=" M 235.07 130.11 C 238.43 130.08 241.78 130.13 245.14 130.09 C 245.13 130.79 245.10 132.19 245.09 132.89 C 241.73 132.84 238.38 132.82 235.02 132.84 C 235.03 132.15 235.06 130.79 235.07 130.11 Z" />
</g>
<g id="#949696ff">
<path fill="#949696" opacity="1.00" d=" M 10.91 132.89 C 14.26 132.83 17.62 132.83 20.97 132.90 C 21.16 133.46 21.54 134.58 21.73 135.14 C 21.84 136.28 21.92 137.42 21.97 138.57 C 21.37 141.14 20.80 143.72 20.67 146.36 C 20.43 145.10 20.13 143.86 19.85 142.62 C 18.09 143.58 16.14 143.67 14.36 142.72 C 14.05 143.43 13.75 144.15 13.46 144.87 C 13.06 142.96 12.73 140.95 11.40 139.43 C 11.21 137.25 11.01 135.07 10.91 132.89 Z" />
</g>
<g id="#b6b7b8ff">
<path fill="#b6b7b8" opacity="1.00" d=" M 20.67 146.36 C 20.80 143.72 21.37 141.14 21.97 138.57 C 22.38 143.27 23.06 147.95 24.00 152.57 C 23.55 153.50 23.10 154.43 22.64 155.37 C 20.48 153.63 17.62 154.10 15.36 155.34 C 14.64 154.49 13.93 153.63 13.22 152.78 C 12.83 150.74 12.50 148.69 12.19 146.64 C 13.34 147.82 14.00 149.32 14.61 150.82 C 14.87 150.11 15.13 149.41 15.39 148.71 C 17.14 148.71 18.90 148.74 20.66 148.80 C 20.66 148.19 20.67 146.97 20.67 146.36 Z" />
</g>
<g id="#a6a8a8ff">
<path fill="#a6a8a8" opacity="1.00" d=" M 11.40 139.43 C 12.73 140.95 13.06 142.96 13.46 144.87 C 13.75 144.15 14.05 143.43 14.36 142.72 C 16.14 143.67 18.09 143.58 19.85 142.62 C 20.13 143.86 20.43 145.10 20.67 146.36 C 20.67 146.97 20.66 148.19 20.66 148.80 C 18.90 148.74 17.14 148.71 15.39 148.71 C 15.13 149.41 14.87 150.11 14.61 150.82 C 14.00 149.32 13.34 147.82 12.19 146.64 C 11.81 144.25 11.57 141.84 11.40 139.43 Z" />
</g>
<g id="#acaeaeff">
<path fill="#acaeae" opacity="1.00" d=" M 243.64 140.02 C 243.66 144.06 243.42 148.10 242.94 152.11 C 242.73 153.45 242.55 154.80 242.39 156.16 L 242.13 156.02 C 241.89 154.61 241.67 153.20 241.49 151.79 C 241.12 153.15 240.76 154.52 240.40 155.89 C 240.24 155.29 239.93 154.08 239.77 153.48 C 238.29 153.35 236.81 153.23 235.34 153.15 C 234.23 153.84 233.04 154.27 231.74 154.39 C 232.68 149.83 233.48 145.25 234.08 140.64 C 234.56 142.42 235.10 144.19 235.63 145.96 C 235.83 144.88 236.03 143.79 236.24 142.72 C 237.65 143.22 239.13 143.51 240.64 143.61 C 240.86 143.30 241.29 142.66 241.51 142.35 C 241.90 143.29 242.28 144.23 242.67 145.18 C 242.98 143.45 243.30 141.73 243.64 140.02 Z" />
</g>
<g id="#ffb859ff">
<path fill="#ffb859" opacity="1.00" d=" M 113.58 144.14 C 120.18 145.40 127.08 143.75 133.52 145.73 C 128.39 146.25 123.20 146.39 118.05 146.05 C 116.36 146.01 114.99 144.92 113.58 144.14 Z" />
</g>
<g id="#feebcfff">
<path fill="#feebcf" opacity="1.00" d=" M 79.81 149.30 C 82.21 148.99 84.63 148.80 87.05 148.94 C 96.37 149.45 105.72 149.40 115.04 148.95 C 122.02 149.40 129.02 149.14 136.01 149.45 C 146.77 149.76 157.57 148.76 168.31 149.71 C 166.97 149.84 165.63 150.00 164.30 150.18 C 151.54 149.84 138.77 150.04 126.00 150.03 C 123.58 149.84 121.34 150.70 119.52 152.26 C 118.73 152.55 117.95 152.82 117.15 153.06 C 109.42 153.70 101.66 153.25 93.95 152.66 C 90.46 152.42 87.01 151.11 83.52 152.03 C 81.90 152.10 80.92 150.28 79.81 149.30 Z" />
</g>
<g id="#fee4baff">
<path fill="#fee4ba" opacity="1.00" d=" M 119.52 152.26 C 121.34 150.70 123.58 149.84 126.00 150.03 C 138.77 150.04 151.54 149.84 164.30 150.18 C 155.65 153.57 145.99 153.57 136.84 152.91 C 131.11 151.99 125.28 152.68 119.52 152.26 Z" />
</g>
<g id="#ffd18fff">
<path fill="#ffd18f" opacity="1.00" d=" M 164.30 150.18 C 165.63 150.00 166.97 149.84 168.31 149.71 C 169.99 149.71 171.65 149.97 173.32 150.17 C 170.10 154.21 164.60 155.06 159.93 156.46 C 146.23 160.15 131.98 158.92 117.97 159.12 C 110.25 159.41 102.56 158.20 95.03 156.58 C 91.04 155.59 86.76 154.76 83.52 152.03 C 87.01 151.11 90.46 152.42 93.95 152.66 C 101.66 153.25 109.42 153.70 117.15 153.06 C 112.57 154.52 107.70 154.13 102.97 154.50 C 116.98 155.52 131.00 154.81 145.01 154.55 C 142.22 154.37 139.40 154.10 136.84 152.91 C 145.99 153.57 155.65 153.57 164.30 150.18 Z" />
</g>
<g id="#ffc65cff">
<path fill="#ffc65c" opacity="1.00" d=" M 117.15 153.06 C 117.95 152.82 118.73 152.55 119.52 152.26 C 125.28 152.68 131.11 151.99 136.84 152.91 C 139.40 154.10 142.22 154.37 145.01 154.55 C 131.00 154.81 116.98 155.52 102.97 154.50 C 107.70 154.13 112.57 154.52 117.15 153.06 Z" />
</g>
<g id="#c8c9caff">
<path fill="#c8c9ca" opacity="1.00" d=" M 241.49 151.79 C 241.67 153.20 241.89 154.61 242.13 156.02 C 241.75 157.62 241.35 159.20 240.94 160.79 C 240.62 160.78 239.98 160.76 239.67 160.75 C 236.35 161.52 232.80 159.85 229.71 161.98 C 230.44 159.46 231.15 156.94 231.74 154.39 C 233.04 154.27 234.23 153.84 235.34 153.15 C 236.81 153.23 238.29 153.35 239.77 153.48 C 239.93 154.08 240.24 155.29 240.40 155.89 C 240.76 154.52 241.12 153.15 241.49 151.79 Z" />
</g>
<g id="#c9cacbff">
<path fill="#c9cacb" opacity="1.00" d=" M 13.22 152.78 C 13.93 153.63 14.64 154.49 15.36 155.34 C 17.62 154.10 20.48 153.63 22.64 155.37 C 23.10 154.43 23.55 153.50 24.00 152.57 C 24.39 154.39 24.81 156.22 25.29 158.03 C 22.41 160.99 17.72 160.10 14.42 158.38 C 14.26 157.67 13.93 156.23 13.77 155.51 C 13.63 154.82 13.36 153.46 13.22 152.78 Z" />
</g>
<g id="#511f0cff">
<path fill="#511f0c" opacity="1.00" d=" M 149.99 160.32 C 158.48 159.15 167.35 157.69 174.50 152.63 C 176.47 153.12 176.87 154.96 175.37 156.31 C 170.85 160.46 164.46 161.55 158.66 162.79 C 146.96 165.44 134.92 164.05 123.06 164.39 C 111.10 164.75 98.79 164.00 87.59 159.46 C 85.96 159.02 85.44 157.32 84.79 155.98 C 96.43 159.98 108.78 161.57 121.05 161.24 C 130.70 161.02 140.42 161.87 149.99 160.32 Z" />
</g>
<g id="#464646ff">
<path fill="#464646" opacity="1.00" d=" M 11.34 157.22 C 12.14 156.63 12.95 156.06 13.77 155.51 C 13.93 156.23 14.26 157.67 14.42 158.38 C 15.11 161.02 15.88 163.64 16.61 166.27 C 15.72 166.27 13.93 166.26 13.03 166.25 C 12.39 163.64 11.63 161.04 10.31 158.69 L 10.22 158.50 C 10.50 158.18 11.06 157.54 11.34 157.22 Z" />
</g>
<g id="#494949ff">
<path fill="#494949" opacity="1.00" d=" M 242.13 156.02 L 242.39 156.16 C 244.03 156.78 244.84 158.41 245.81 159.73 C 247.23 161.92 248.68 164.09 250.17 166.24 C 246.60 166.39 242.98 166.58 239.50 165.66 C 240.04 164.05 240.51 162.43 240.94 160.79 C 241.35 159.20 241.75 157.62 242.13 156.02 Z" />
</g>
<g id="#dadcddff">
<path fill="#dadcdd" opacity="1.00" d=" M 14.42 158.38 C 17.72 160.10 22.41 160.99 25.29 158.03 C 26.00 160.83 26.92 163.58 27.85 166.32 C 24.10 166.34 20.36 166.33 16.61 166.27 C 15.88 163.64 15.11 161.02 14.42 158.38 Z" />
</g>
<g id="#545454ff">
<path fill="#545454" opacity="1.00" d=" M 10.31 158.69 C 11.63 161.04 12.39 163.64 13.03 166.25 C 9.93 166.27 6.83 166.28 3.74 166.19 C 5.74 163.53 7.94 161.03 10.31 158.69 Z" />
</g>
<g id="#dbdcddff">
<path fill="#dbdcdd" opacity="1.00" d=" M 229.71 161.98 C 232.80 159.85 236.35 161.52 239.67 160.75 C 239.98 160.76 240.62 160.78 240.94 160.79 C 240.51 162.43 240.04 164.05 239.50 165.66 C 239.40 165.81 239.20 166.12 239.10 166.27 C 235.54 166.40 231.98 166.32 228.42 166.32 L 228.69 165.43 C 229.04 164.28 229.38 163.13 229.71 161.98 Z" />
</g>
<g id="#a21402ff">
<path fill="#a21402" opacity="1.00" d=" M 213.87 166.29 C 218.78 165.87 224.04 167.37 228.69 165.43 L 228.42 166.32 C 231.98 166.32 235.54 166.40 239.10 166.27 C 239.20 166.12 239.40 165.81 239.50 165.66 C 242.98 166.58 246.60 166.39 250.17 166.24 C 241.28 180.82 232.92 195.71 224.20 210.39 C 220.48 210.23 216.75 210.27 213.03 210.39 C 207.68 210.38 202.33 210.24 196.98 210.55 C 187.88 210.43 178.77 210.46 169.67 210.57 C 141.86 210.41 114.04 210.50 86.23 210.53 C 77.20 210.48 68.17 210.44 59.15 210.54 C 53.79 210.24 48.43 210.34 43.07 210.40 C 39.04 210.44 35.02 210.32 30.99 210.28 C 21.78 195.56 12.60 180.82 3.27 166.18 L 3.74 166.19 C 6.83 166.28 9.93 166.27 13.03 166.25 C 13.93 166.26 15.72 166.27 16.61 166.27 C 20.36 166.33 24.10 166.34 27.85 166.32 C 30.90 166.31 33.95 166.30 36.99 166.31 C 42.65 166.36 48.31 166.31 53.98 166.31 C 59.35 166.33 64.73 166.30 70.10 166.27 C 111.12 166.24 152.14 166.25 193.16 166.28 C 196.13 166.28 199.10 166.30 202.08 166.31 C 206.01 166.31 209.94 166.30 213.87 166.29 M 34.38 173.38 C 30.80 175.30 28.82 179.15 27.71 182.90 C 26.49 188.20 26.31 194.49 30.01 198.88 C 34.94 204.58 47.44 201.37 46.74 193.14 C 44.76 190.90 43.39 194.04 42.38 195.50 C 40.45 199.67 33.42 199.44 31.75 195.18 C 30.48 192.37 31.03 189.26 30.99 186.30 C 31.84 182.61 33.05 178.57 36.43 176.41 C 37.49 175.61 39.18 176.12 39.70 177.33 C 41.41 180.71 41.33 185.11 38.79 188.08 C 39.82 188.39 41.53 189.68 42.31 188.31 C 44.76 184.33 45.17 178.69 42.26 174.84 C 40.51 172.39 36.91 171.89 34.38 173.38 M 73.64 174.71 C 70.84 177.94 70.75 182.47 70.75 186.52 C 69.23 186.63 68.06 187.27 67.23 188.42 L 66.97 187.79 C 66.64 189.96 67.48 191.83 69.27 193.05 C 69.42 195.80 69.01 198.63 69.69 201.32 C 70.50 203.91 74.60 204.56 75.53 201.68 C 75.85 198.81 75.41 195.91 75.79 193.05 C 77.08 191.20 79.15 189.34 77.86 186.92 C 76.99 186.76 75.25 186.45 74.38 186.30 C 74.65 183.18 74.57 179.83 76.14 177.01 C 77.65 175.23 79.04 177.64 80.14 178.49 C 81.25 178.01 81.94 177.21 82.22 176.09 C 81.46 172.25 75.81 172.10 73.64 174.71 M 87.61 174.59 C 84.70 177.79 84.67 182.39 84.63 186.46 C 82.58 186.86 80.71 187.54 81.33 190.06 C 81.31 191.43 82.44 192.24 83.30 193.14 C 83.54 196.28 82.59 199.83 84.42 202.65 C 85.95 204.38 88.54 203.37 89.61 201.67 C 89.98 198.35 87.83 194.31 90.58 191.62 C 91.01 190.97 91.44 190.31 91.87 189.66 L 90.74 189.67 L 92.04 189.12 C 91.87 187.07 90.22 186.19 88.31 186.29 C 88.53 183.13 88.45 179.74 90.09 176.92 C 92.00 174.94 93.19 179.44 95.09 177.84 C 96.91 176.77 95.64 173.81 93.86 173.30 C 91.75 172.79 89.14 172.79 87.61 174.59 M 141.98 175.71 C 141.91 173.25 138.89 172.90 137.85 174.94 C 137.37 179.48 137.96 184.07 137.57 188.62 L 136.87 189.02 C 137.64 191.08 137.80 193.26 137.97 195.43 C 137.53 195.81 136.64 196.56 136.20 196.94 C 137.17 198.39 138.08 199.88 139.01 201.36 C 144.37 199.97 151.30 202.13 155.43 197.02 C 157.86 194.00 156.61 189.75 153.07 188.37 C 156.42 184.42 157.18 177.59 152.80 174.09 C 149.40 171.58 144.80 173.02 141.98 175.71 M 208.39 173.87 C 208.13 174.05 207.62 174.42 207.36 174.61 C 208.69 181.33 208.66 188.23 207.95 195.03 C 207.87 196.87 207.37 198.98 208.72 200.51 L 209.09 200.64 C 209.16 201.18 209.32 202.24 209.39 202.77 C 212.22 204.06 214.14 201.75 214.50 199.15 C 217.34 201.25 219.59 205.58 223.70 204.71 C 225.19 204.11 225.25 202.32 225.51 200.98 L 225.02 201.36 C 221.37 198.77 218.24 195.49 215.48 191.99 C 215.37 190.83 216.75 190.08 217.26 189.13 C 219.33 187.96 221.24 186.52 223.04 184.98 C 224.38 183.58 222.26 182.15 221.21 181.51 C 218.27 183.84 215.59 186.47 212.73 188.88 C 212.98 183.84 212.35 178.72 213.47 173.76 C 211.81 172.23 210.08 172.62 208.39 173.87 M 50.65 190.80 C 47.65 195.71 50.82 203.75 57.03 203.98 C 63.58 204.45 67.90 196.26 65.13 190.71 L 64.91 189.36 L 64.24 190.02 L 64.88 189.17 C 63.39 185.78 60.14 182.03 55.99 183.24 C 52.93 184.52 51.64 187.89 50.65 190.80 M 96.48 189.11 C 95.76 192.83 94.78 197.83 98.34 200.44 C 101.99 202.42 107.50 201.46 109.69 197.73 C 109.41 197.27 108.85 196.35 108.57 195.89 C 108.59 195.53 108.62 194.80 108.64 194.44 C 109.49 192.96 110.19 191.27 109.16 189.68 C 108.63 186.25 105.26 183.78 102.00 183.26 C 98.73 182.96 97.67 186.83 96.48 189.11 M 112.46 190.30 C 112.12 193.13 111.99 196.04 112.79 198.81 C 112.83 199.32 112.90 200.34 112.94 200.86 C 116.02 204.70 122.34 203.77 125.61 200.65 C 127.26 198.79 126.04 196.36 124.59 194.85 C 124.78 193.86 124.88 192.86 124.90 191.86 C 126.77 187.47 121.94 183.59 117.97 183.24 C 114.44 183.42 113.66 187.69 112.46 190.30 M 164.64 183.81 C 163.20 183.82 161.76 183.80 160.32 183.74 C 158.95 185.90 159.39 188.53 159.36 190.95 C 159.48 194.20 159.21 197.47 159.51 200.71 C 160.48 203.07 164.01 203.52 165.35 201.25 C 166.25 197.62 164.78 193.62 166.20 190.09 C 167.71 190.26 169.21 190.50 170.73 190.56 C 172.01 189.72 171.43 188.19 171.47 186.95 C 170.22 184.41 167.54 182.07 164.64 183.81 M 174.89 188.87 C 174.00 191.92 173.60 195.32 174.70 198.36 C 176.60 202.27 181.98 201.93 185.33 200.27 C 186.98 199.66 188.57 197.38 186.83 195.95 C 186.62 195.31 186.19 194.04 185.97 193.41 L 184.83 193.89 C 185.18 193.55 185.89 192.87 186.25 192.54 C 189.28 187.91 183.53 182.91 179.01 183.29 C 176.68 184.13 175.65 186.71 174.89 188.87 M 192.34 186.47 L 191.20 186.13 C 190.11 188.86 191.17 191.38 193.19 193.30 C 191.55 194.46 189.57 196.75 191.20 198.71 C 193.23 201.51 197.19 201.70 200.27 200.87 C 201.50 201.70 203.30 203.76 204.77 202.06 C 205.59 198.79 205.14 195.37 205.35 192.04 C 204.90 189.66 204.57 186.99 202.64 185.28 C 199.75 182.46 194.48 182.97 192.34 186.47 Z" />
</g>
<g id="#faf9f9ff">
<path fill="#faf9f9" opacity="1.00" d=" M 34.38 173.38 C 36.91 171.89 40.51 172.39 42.26 174.84 C 45.17 178.69 44.76 184.33 42.31 188.31 C 41.53 189.68 39.82 188.39 38.79 188.08 C 41.33 185.11 41.41 180.71 39.70 177.33 C 39.18 176.12 37.49 175.61 36.43 176.41 C 33.05 178.57 31.84 182.61 30.99 186.30 C 30.47 185.21 29.91 184.16 29.35 183.10 C 29.07 184.43 28.79 185.77 28.51 187.11 C 28.23 185.71 27.95 184.30 27.71 182.90 C 28.82 179.15 30.80 175.30 34.38 173.38 Z" />
</g>
<g id="#f4f6f6ff">
<path fill="#f4f6f6" opacity="1.00" d=" M 87.61 174.59 C 89.14 172.79 91.75 172.79 93.86 173.30 C 95.64 173.81 96.91 176.77 95.09 177.84 C 93.19 179.44 92.00 174.94 90.09 176.92 C 88.45 179.74 88.53 183.13 88.31 186.29 C 90.22 186.19 91.87 187.07 92.04 189.12 L 90.74 189.67 C 90.14 189.69 88.93 189.74 88.32 189.77 C 88.13 193.62 88.17 197.48 88.54 201.33 C 87.83 201.52 86.42 201.90 85.71 202.09 C 83.42 198.63 84.55 194.33 84.42 190.45 C 83.39 190.32 82.36 190.19 81.33 190.06 C 80.71 187.54 82.58 186.86 84.63 186.46 C 84.67 182.39 84.70 177.79 87.61 174.59 Z" />
</g>
<g id="#fcfafbff">
<path fill="#fcfafb" opacity="1.00" d=" M 141.98 175.71 C 144.80 173.02 149.40 171.58 152.80 174.09 C 157.18 177.59 156.42 184.42 153.07 188.37 C 148.79 189.52 144.35 189.53 140.00 188.87 C 139.88 186.82 139.73 184.77 139.55 182.72 C 139.33 184.47 139.07 186.21 138.71 187.94 C 138.43 188.11 137.85 188.45 137.57 188.62 C 137.96 184.07 137.37 179.48 137.85 174.94 C 138.89 172.90 141.91 173.25 141.98 175.71 M 145.96 176.95 C 142.76 179.56 141.06 183.79 141.68 187.90 C 144.31 187.60 147.19 187.97 149.59 186.64 C 152.29 184.85 152.27 181.09 151.61 178.27 C 151.02 175.79 147.68 175.43 145.96 176.95 Z" />
</g>
<g id="#fbf9f9ff">
<path fill="#fbf9f9" opacity="1.00" d=" M 208.39 173.87 C 210.08 172.62 211.81 172.23 213.47 173.76 C 212.35 178.72 212.98 183.84 212.73 188.88 C 215.59 186.47 218.27 183.84 221.21 181.51 C 222.26 182.15 224.38 183.58 223.04 184.98 C 221.24 186.52 219.33 187.96 217.26 189.13 C 214.92 190.05 212.45 190.51 209.97 190.79 C 209.34 186.11 210.16 181.32 209.03 176.70 C 208.87 175.99 208.55 174.58 208.39 173.87 Z" />
</g>
<g id="#640800ff">
<path fill="#640800" opacity="1.00" d=" M 207.36 174.61 C 207.62 174.42 208.13 174.05 208.39 173.87 C 208.55 174.58 208.87 175.99 209.03 176.70 C 209.14 182.68 209.15 188.67 208.84 194.65 C 208.80 196.60 208.79 198.56 208.72 200.51 C 207.37 198.98 207.87 196.87 207.95 195.03 C 208.66 188.23 208.69 181.33 207.36 174.61 Z" />
<path fill="#640800" opacity="1.00" d=" M 159.36 190.95 C 159.39 188.53 158.95 185.90 160.32 183.74 C 160.34 188.91 160.46 194.09 160.70 199.27 L 161.94 201.29 C 162.61 196.90 162.38 192.45 162.48 188.02 C 163.03 192.32 161.32 197.40 164.27 201.04 C 164.46 195.97 163.66 190.59 166.28 185.97 C 166.99 186.98 167.68 187.99 168.37 189.02 C 169.68 188.78 170.85 188.22 171.47 186.95 C 171.43 188.19 172.01 189.72 170.73 190.56 C 169.21 190.50 167.71 190.26 166.20 190.09 C 164.78 193.62 166.25 197.62 165.35 201.25 C 164.01 203.52 160.48 203.07 159.51 200.71 C 159.21 197.47 159.48 194.20 159.36 190.95 Z" />
<path fill="#640800" opacity="1.00" d=" M 77.86 186.92 C 79.15 189.34 77.08 191.20 75.79 193.05 C 75.41 195.91 75.85 198.81 75.53 201.68 C 74.60 204.56 70.50 203.91 69.69 201.32 C 69.01 198.63 69.42 195.80 69.27 193.05 C 67.48 191.83 66.64 189.96 66.97 187.79 L 67.23 188.42 C 67.40 188.86 67.75 189.73 67.93 190.17 C 68.60 190.23 69.93 190.36 70.60 190.43 C 70.42 194.25 69.92 198.20 71.36 201.87 C 72.47 201.69 73.59 201.52 74.70 201.34 C 74.24 197.52 74.17 193.67 74.37 189.84 C 75.17 189.78 76.77 189.65 77.57 189.59 C 77.65 188.92 77.79 187.58 77.86 186.92 Z" />
<path fill="#640800" opacity="1.00" d=" M 88.32 189.77 C 88.93 189.74 90.14 189.69 90.74 189.67 L 91.87 189.66 C 91.44 190.31 91.01 190.97 90.58 191.62 C 87.83 194.31 89.98 198.35 89.61 201.67 C 88.54 203.37 85.95 204.38 84.42 202.65 C 82.59 199.83 83.54 196.28 83.30 193.14 C 82.44 192.24 81.31 191.43 81.33 190.06 C 82.36 190.19 83.39 190.32 84.42 190.45 C 84.55 194.33 83.42 198.63 85.71 202.09 C 86.42 201.90 87.83 201.52 88.54 201.33 C 88.17 197.48 88.13 193.62 88.32 189.77 Z" />
<path fill="#640800" opacity="1.00" d=" M 57.03 203.98 C 50.82 203.75 47.65 195.71 50.65 190.80 C 50.59 191.65 50.49 193.35 50.44 194.20 C 50.07 198.44 53.54 202.79 58.02 202.25 C 63.54 201.86 65.89 195.50 65.13 190.71 C 67.90 196.26 63.58 204.45 57.03 203.98 Z" />
<path fill="#640800" opacity="1.00" d=" M 141.58 190.78 C 145.40 191.20 150.84 189.63 153.20 193.55 C 152.85 193.98 152.15 194.84 151.81 195.27 C 150.37 191.93 145.91 192.42 143.01 193.09 C 142.77 194.45 142.64 195.82 142.61 197.21 L 141.69 196.94 C 141.59 194.89 141.59 192.83 141.58 190.78 Z" />
<path fill="#640800" opacity="1.00" d=" M 197.48 194.75 C 198.82 194.68 200.94 193.82 201.17 195.85 C 199.96 197.81 197.33 198.72 195.19 197.80 C 194.48 196.09 195.95 195.00 197.48 194.75 Z" />
<path fill="#640800" opacity="1.00" d=" M 212.60 194.56 C 215.89 197.47 218.51 201.07 222.00 203.77 C 222.99 202.95 224.00 202.15 225.02 201.36 L 225.51 200.98 C 225.25 202.32 225.19 204.11 223.70 204.71 C 219.59 205.58 217.34 201.25 214.50 199.15 C 214.14 201.75 212.22 204.06 209.39 202.77 C 209.32 202.24 209.16 201.18 209.09 200.64 C 209.81 200.86 211.24 201.28 211.95 201.49 C 214.27 200.06 212.32 196.75 212.60 194.56 Z" />
</g>
<g id="#a01402ff">
<path fill="#a01402" opacity="1.00" d=" M 145.96 176.95 C 147.68 175.43 151.02 175.79 151.61 178.27 C 152.27 181.09 152.29 184.85 149.59 186.64 C 147.19 187.97 144.31 187.60 141.68 187.90 C 141.06 183.79 142.76 179.56 145.96 176.95 Z" />
</g>
<g id="#e7e7e7ff">
<path fill="#e7e7e7" opacity="1.00" d=" M 209.03 176.70 C 210.16 181.32 209.34 186.11 209.97 190.79 C 212.45 190.51 214.92 190.05 217.26 189.13 C 216.75 190.08 215.37 190.83 215.48 191.99 C 218.24 195.49 221.37 198.77 225.02 201.36 C 224.00 202.15 222.99 202.95 222.00 203.77 C 218.51 201.07 215.89 197.47 212.60 194.56 C 211.35 194.55 210.09 194.61 208.84 194.65 C 209.15 188.67 209.14 182.68 209.03 176.70 Z" />
</g>
<g id="#e4e6e6ff">
<path fill="#e4e6e6" opacity="1.00" d=" M 30.01 198.88 C 26.31 194.49 26.49 188.20 27.71 182.90 C 27.95 184.30 28.23 185.71 28.51 187.11 C 28.79 185.77 29.07 184.43 29.35 183.10 C 29.91 184.16 30.47 185.21 30.99 186.30 C 31.03 189.26 30.48 192.37 31.75 195.18 C 33.42 199.44 40.45 199.67 42.38 195.50 C 43.39 194.04 44.76 190.90 46.74 193.14 C 47.44 201.37 34.94 204.58 30.01 198.88 Z" />
</g>
<g id="#fafdfdff">
<path fill="#fafdfd" opacity="1.00" d=" M 50.65 190.80 C 51.64 187.89 52.93 184.52 55.99 183.24 C 60.14 182.03 63.39 185.78 64.88 189.17 L 64.24 190.02 C 62.91 191.31 62.75 193.19 62.48 194.92 C 62.29 193.12 62.04 191.32 61.40 189.62 C 60.78 188.52 60.33 186.82 58.85 186.64 C 56.52 186.27 55.36 188.88 54.55 190.60 C 53.78 192.63 53.58 194.80 53.42 196.95 C 53.33 194.84 53.18 192.75 52.99 190.65 C 52.13 191.83 51.27 193.00 50.44 194.20 C 50.49 193.35 50.59 191.65 50.65 190.80 Z" />
</g>
<g id="#fcf9f9ff">
<path fill="#fcf9f9" opacity="1.00" d=" M 96.48 189.11 C 97.67 186.83 98.73 182.96 102.00 183.26 C 105.26 183.78 108.63 186.25 109.16 189.68 C 108.99 190.24 108.63 191.36 108.46 191.93 C 107.31 191.68 106.16 191.43 105.00 191.25 C 104.63 189.60 104.95 187.39 102.99 186.69 C 100.61 186.88 100.45 189.56 99.69 191.25 C 99.44 191.75 98.92 192.77 98.67 193.28 C 97.94 191.89 97.22 190.49 96.48 189.11 Z" />
<path fill="#fcf9f9" opacity="1.00" d=" M 112.46 190.30 C 113.66 187.69 114.44 183.42 117.97 183.24 C 121.94 183.59 126.77 187.47 124.90 191.86 L 124.21 192.73 C 123.15 191.22 122.11 189.69 121.01 188.19 C 118.90 184.71 116.07 188.70 116.16 191.26 C 116.05 191.70 115.84 192.56 115.73 193.00 C 114.65 192.08 113.56 191.18 112.46 190.30 Z" />
</g>
<g id="#e5e4e4ff">
<path fill="#e5e4e4" opacity="1.00" d=" M 138.71 187.94 C 139.07 186.21 139.33 184.47 139.55 182.72 C 139.73 184.77 139.88 186.82 140.00 188.87 C 144.35 189.53 148.79 189.52 153.07 188.37 C 156.61 189.75 157.86 194.00 155.43 197.02 C 154.68 195.86 153.95 194.70 153.20 193.55 C 150.84 189.63 145.40 191.20 141.58 190.78 C 141.59 192.83 141.59 194.89 141.69 196.94 L 142.61 197.21 C 144.46 197.43 146.32 197.49 148.18 197.41 C 145.94 197.86 143.64 197.85 141.36 197.82 C 141.19 195.94 141.02 194.06 140.89 192.19 C 139.97 193.31 139.04 194.44 137.97 195.43 C 137.80 193.26 137.64 191.08 136.87 189.02 L 137.57 188.62 C 137.85 188.45 138.43 188.11 138.71 187.94 Z" />
</g>
<g id="#fdfdfdff">
<path fill="#fdfdfd" opacity="1.00" d=" M 164.64 183.81 C 167.54 182.07 170.22 184.41 171.47 186.95 C 170.85 188.22 169.68 188.78 168.37 189.02 C 167.68 187.99 166.99 186.98 166.28 185.97 C 163.66 190.59 164.46 195.97 164.27 201.04 C 161.32 197.40 163.03 192.32 162.48 188.02 C 162.38 192.45 162.61 196.90 161.94 201.29 L 160.70 199.27 C 160.46 194.09 160.34 188.91 160.32 183.74 C 161.76 183.80 163.20 183.82 164.64 183.81 Z" />
<path fill="#fdfdfd" opacity="1.00" d=" M 208.84 194.65 C 210.09 194.61 211.35 194.55 212.60 194.56 C 212.32 196.75 214.27 200.06 211.95 201.49 C 211.24 201.28 209.81 200.86 209.09 200.64 L 208.72 200.51 C 208.79 198.56 208.80 196.60 208.84 194.65 Z" />
</g>
<g id="#fdfcfcff">
<path fill="#fdfcfc" opacity="1.00" d=" M 174.89 188.87 C 175.65 186.71 176.68 184.13 179.01 183.29 C 183.53 182.91 189.28 187.91 186.25 192.54 C 185.31 191.39 184.39 190.23 183.46 189.09 C 182.75 188.13 181.92 187.31 180.96 186.62 C 178.66 187.11 178.51 189.55 178.02 191.37 C 177.14 191.56 176.25 191.74 175.36 191.91 C 175.24 191.15 175.01 189.63 174.89 188.87 Z" />
</g>
<g id="#fcfafaff">
<path fill="#fcfafa" opacity="1.00" d=" M 192.34 186.47 C 194.48 182.97 199.75 182.46 202.64 185.28 C 204.57 186.99 204.90 189.66 205.35 192.04 C 204.00 192.10 202.66 192.17 201.32 192.14 C 200.83 190.12 201.16 186.20 198.00 186.77 C 195.80 186.83 195.66 189.37 195.05 190.93 C 192.55 190.69 191.58 188.79 192.34 186.47 Z" />
</g>
<g id="#a11403ff">
<path fill="#a11403" opacity="1.00" d=" M 54.55 190.60 C 55.36 188.88 56.52 186.27 58.85 186.64 C 60.33 186.82 60.78 188.52 61.40 189.62 C 61.24 192.55 61.93 196.23 59.44 198.40 C 57.96 199.87 55.43 198.79 54.89 196.93 C 54.36 194.86 54.51 192.71 54.55 190.60 Z" />
</g>
<g id="#981202ff">
<path fill="#981202" opacity="1.00" d=" M 191.20 186.13 L 192.34 186.47 C 191.58 188.79 192.55 190.69 195.05 190.93 C 195.66 189.37 195.80 186.83 198.00 186.77 C 201.16 186.20 200.83 190.12 201.32 192.14 C 198.54 191.65 195.61 191.68 193.19 193.30 C 191.17 191.38 190.11 188.86 191.20 186.13 Z" />
</g>
<g id="#83160aff">
<path fill="#83160a" opacity="1.00" d=" M 99.69 191.25 C 100.45 189.56 100.61 186.88 102.99 186.69 C 104.95 187.39 104.63 189.60 105.00 191.25 C 103.24 191.71 101.43 191.99 99.69 191.25 Z" />
</g>
<g id="#8f140aff">
<path fill="#8f140a" opacity="1.00" d=" M 116.16 191.26 C 116.07 188.70 118.90 184.71 121.01 188.19 C 121.21 189.41 121.37 191.26 119.88 191.72 C 118.65 192.26 117.39 191.42 116.16 191.26 Z" />
</g>
<g id="#89130aff">
<path fill="#89130a" opacity="1.00" d=" M 178.02 191.37 C 178.51 189.55 178.66 187.11 180.96 186.62 C 181.92 187.31 182.75 188.13 183.46 189.09 C 182.90 191.95 180.37 192.28 178.02 191.37 Z" />
</g>
<g id="#e9ebebff">
<path fill="#e9ebeb" opacity="1.00" d=" M 121.01 188.19 C 122.11 189.69 123.15 191.22 124.21 192.73 C 121.94 194.98 118.72 195.27 115.70 195.36 C 116.43 196.32 116.63 197.91 117.98 198.25 C 120.65 198.26 122.85 195.73 125.53 196.40 C 126.51 198.21 124.64 199.74 123.21 200.41 C 119.82 202.05 115.29 201.96 112.79 198.81 C 111.99 196.04 112.12 193.13 112.46 190.30 C 113.56 191.18 114.65 192.08 115.73 193.00 C 115.84 192.56 116.05 191.70 116.16 191.26 C 117.39 191.42 118.65 192.26 119.88 191.72 C 121.37 191.26 121.21 189.41 121.01 188.19 Z" />
</g>
<g id="#ebeaeaff">
<path fill="#ebeaea" opacity="1.00" d=" M 98.34 200.44 C 94.78 197.83 95.76 192.83 96.48 189.11 C 97.22 190.49 97.94 191.89 98.67 193.28 C 98.92 192.77 99.44 191.75 99.69 191.25 C 101.43 191.99 103.24 191.71 105.00 191.25 C 106.16 191.43 107.31 191.68 108.46 191.93 C 106.35 194.84 102.71 195.40 99.36 195.29 C 100.16 196.29 100.41 198.19 101.98 198.30 C 104.26 197.74 106.40 196.75 108.57 195.89 C 108.85 196.35 109.41 197.27 109.69 197.73 C 107.50 201.46 101.99 202.42 98.34 200.44 Z" />
</g>
<g id="#e8e9e9ff">
<path fill="#e8e9e9" opacity="1.00" d=" M 174.70 198.36 C 173.60 195.32 174.00 191.92 174.89 188.87 C 175.01 189.63 175.24 191.15 175.36 191.91 C 176.25 191.74 177.14 191.56 178.02 191.37 C 180.37 192.28 182.90 191.95 183.46 189.09 C 184.39 190.23 185.31 191.39 186.25 192.54 C 185.89 192.87 185.18 193.55 184.83 193.89 C 182.55 194.98 180.02 195.24 177.53 195.34 C 178.36 196.24 178.46 198.22 179.99 198.21 C 182.38 197.88 184.53 196.64 186.83 195.95 C 188.57 197.38 186.98 199.66 185.33 200.27 C 181.98 201.93 176.60 202.27 174.70 198.36 Z" />
</g>
<g id="#e1dfdeff">
<path fill="#e1dfde" opacity="1.00" d=" M 61.40 189.62 C 62.04 191.32 62.29 193.12 62.48 194.92 C 62.75 193.19 62.91 191.31 64.24 190.02 L 64.91 189.36 L 65.13 190.71 C 65.89 195.50 63.54 201.86 58.02 202.25 C 53.54 202.79 50.07 198.44 50.44 194.20 C 51.27 193.00 52.13 191.83 52.99 190.65 C 53.18 192.75 53.33 194.84 53.42 196.95 C 53.58 194.80 53.78 192.63 54.55 190.60 C 54.51 192.71 54.36 194.86 54.89 196.93 C 55.43 198.79 57.96 199.87 59.44 198.40 C 61.93 196.23 61.24 192.55 61.40 189.62 Z" />
</g>
<g id="#750b00ff">
<path fill="#750b00" opacity="1.00" d=" M 109.16 189.68 C 110.19 191.27 109.49 192.96 108.64 194.44 C 108.62 194.80 108.59 195.53 108.57 195.89 C 106.40 196.75 104.26 197.74 101.98 198.30 C 100.41 198.19 100.16 196.29 99.36 195.29 C 102.71 195.40 106.35 194.84 108.46 191.93 C 108.63 191.36 108.99 190.24 109.16 189.68 Z" />
</g>
<g id="#720a00ff">
<path fill="#720a00" opacity="1.00" d=" M 124.21 192.73 L 124.90 191.86 C 124.88 192.86 124.78 193.86 124.59 194.85 C 126.04 196.36 127.26 198.79 125.61 200.65 C 122.34 203.77 116.02 204.70 112.94 200.86 C 112.90 200.34 112.83 199.32 112.79 198.81 C 115.29 201.96 119.82 202.05 123.21 200.41 C 124.64 199.74 126.51 198.21 125.53 196.40 C 122.85 195.73 120.65 198.26 117.98 198.25 C 116.63 197.91 116.43 196.32 115.70 195.36 C 118.72 195.27 121.94 194.98 124.21 192.73 Z" />
</g>
<g id="#f1f1f1ff">
<path fill="#f1f1f1" opacity="1.00" d=" M 137.97 195.43 C 139.04 194.44 139.97 193.31 140.89 192.19 C 141.02 194.06 141.19 195.94 141.36 197.82 C 143.64 197.85 145.94 197.86 148.18 197.41 C 149.47 196.83 150.66 196.08 151.81 195.27 C 152.15 194.84 152.85 193.98 153.20 193.55 C 153.95 194.70 154.68 195.86 155.43 197.02 C 151.30 202.13 144.37 199.97 139.01 201.36 C 138.08 199.88 137.17 198.39 136.20 196.94 C 136.64 196.56 137.53 195.81 137.97 195.43 Z" />
</g>
<g id="#e9eaeaff">
<path fill="#e9eaea" opacity="1.00" d=" M 193.19 193.30 C 195.61 191.68 198.54 191.65 201.32 192.14 C 202.66 192.17 204.00 192.10 205.35 192.04 C 205.14 195.37 205.59 198.79 204.77 202.06 C 203.30 203.76 201.50 201.70 200.27 200.87 C 197.19 201.70 193.23 201.51 191.20 198.71 C 189.57 196.75 191.55 194.46 193.19 193.30 M 197.48 194.75 C 195.95 195.00 194.48 196.09 195.19 197.80 C 197.33 198.72 199.96 197.81 201.17 195.85 C 200.94 193.82 198.82 194.68 197.48 194.75 Z" />
</g>
<g id="#a21403ff">
<path fill="#a21403" opacity="1.00" d=" M 143.01 193.09 C 145.91 192.42 150.37 191.93 151.81 195.27 C 150.66 196.08 149.47 196.83 148.18 197.41 C 146.32 197.49 144.46 197.43 142.61 197.21 C 142.64 195.82 142.77 194.45 143.01 193.09 Z" />
</g>
<g id="#730a00ff">
<path fill="#730a00" opacity="1.00" d=" M 177.53 195.34 C 180.02 195.24 182.55 194.98 184.83 193.89 L 185.97 193.41 C 186.19 194.04 186.62 195.31 186.83 195.95 C 184.53 196.64 182.38 197.88 179.99 198.21 C 178.46 198.22 178.36 196.24 177.53 195.34 Z" />
</g>
<g id="#888a8bff">
<path fill="#888a8b" opacity="1.00" d=" M 43.07 210.40 C 48.43 210.34 53.79 210.24 59.15 210.54 C 61.75 213.41 64.94 215.63 68.09 217.85 C 67.56 218.11 66.49 218.65 65.96 218.91 C 65.20 218.50 64.45 218.09 63.70 217.68 C 60.44 218.11 56.61 217.89 54.48 220.91 C 50.51 217.69 46.79 214.18 43.21 210.54 L 43.07 210.40 Z" />
</g>
<g id="#8a8c8dff">
<path fill="#8a8c8d" opacity="1.00" d=" M 196.98 210.55 C 202.33 210.24 207.68 210.38 213.03 210.39 L 212.94 210.46 C 208.68 214.52 204.54 218.73 199.81 222.25 C 194.69 219.42 188.87 221.31 183.42 220.95 C 188.07 217.67 193.10 214.78 196.98 210.55 Z" />
</g>
<g id="#00000027">
<path fill="#000000" opacity="0.15" d=" M 213.03 210.39 C 216.75 210.27 220.48 210.23 224.20 210.39 C 221.55 210.70 218.91 211.05 216.26 211.33 C 219.54 212.66 215.63 215.13 214.31 216.37 C 194.56 236.70 167.18 249.08 139.08 251.95 C 132.39 252.30 125.68 252.23 118.98 252.05 C 99.27 250.62 80.11 244.06 63.30 233.74 C 54.26 228.38 46.51 221.24 39.05 213.92 C 38.77 213.47 38.23 212.56 37.96 212.11 C 39.66 211.42 41.42 210.90 43.21 210.54 C 42.94 211.12 42.39 212.28 42.12 212.86 C 51.41 221.85 61.64 230.10 73.29 235.83 C 88.55 244.01 105.76 248.42 123.01 249.30 C 152.60 250.56 182.48 240.22 204.96 220.95 C 208.09 218.20 211.64 215.77 214.01 212.28 C 213.74 211.82 213.21 210.92 212.94 210.46 L 213.03 210.39 Z" />
</g>
<g id="#00000044">
<path fill="#000000" opacity="0.27" d=" M 43.21 210.54 C 46.79 214.18 50.51 217.69 54.48 220.91 C 58.08 223.78 61.79 226.50 65.68 228.95 C 68.05 230.40 70.45 231.80 72.92 233.09 C 76.99 235.21 81.12 237.22 85.42 238.83 C 112.46 249.48 143.51 249.48 170.56 238.84 C 174.89 237.23 179.04 235.19 183.14 233.06 C 185.54 231.80 187.87 230.45 190.17 229.02 C 193.50 226.94 196.70 224.64 199.81 222.25 C 204.54 218.73 208.68 214.52 212.94 210.46 C 213.21 210.92 213.74 211.82 214.01 212.28 C 211.64 215.77 208.09 218.20 204.96 220.95 C 182.48 240.22 152.60 250.56 123.01 249.30 C 105.76 248.42 88.55 244.01 73.29 235.83 C 61.64 230.10 51.41 221.85 42.12 212.86 C 42.39 212.28 42.94 211.12 43.21 210.54 Z" />
</g>
<g id="#1d1d1eff">
<path fill="#1d1d1e" opacity="1.00" d=" M 59.15 210.54 C 68.17 210.44 77.20 210.48 86.23 210.53 C 85.28 211.19 84.33 211.87 83.38 212.54 C 94.78 219.67 108.09 223.33 121.39 224.61 C 129.00 225.94 136.63 224.28 144.18 223.31 C 154.18 221.28 164.09 218.03 172.71 212.44 C 171.70 211.80 170.69 211.17 169.67 210.57 C 178.77 210.46 187.88 210.43 196.98 210.55 C 193.10 214.78 188.07 217.67 183.42 220.95 C 181.11 222.31 178.77 223.63 176.42 224.92 C 173.13 226.51 169.79 228.00 166.47 229.51 C 159.58 231.98 152.52 233.94 145.32 235.26 C 136.14 236.72 126.79 236.84 117.53 236.14 C 107.31 234.86 97.19 232.58 87.66 228.64 C 84.92 227.41 82.21 226.14 79.52 224.80 C 75.61 222.65 71.75 220.41 68.09 217.85 C 64.94 215.63 61.75 213.41 59.15 210.54 Z" />
</g>
<g id="#29292bff">
<path fill="#29292b" opacity="1.00" d=" M 86.23 210.53 C 114.04 210.50 141.86 210.41 169.67 210.57 C 170.69 211.17 171.70 211.80 172.71 212.44 C 164.09 218.03 154.18 221.28 144.18 223.31 C 136.63 224.28 129.00 225.94 121.39 224.61 C 108.09 223.33 94.78 219.67 83.38 212.54 C 84.33 211.87 85.28 211.19 86.23 210.53 Z" />
</g>
<g id="#9d9d9dff">
<path fill="#9d9d9d" opacity="1.00" d=" M 54.48 220.91 C 56.61 217.89 60.44 218.11 63.70 217.68 C 64.45 218.09 65.20 218.50 65.96 218.91 C 66.49 218.65 67.56 218.11 68.09 217.85 C 71.75 220.41 75.61 222.65 79.52 224.80 C 75.75 226.19 71.82 224.03 68.00 224.97 C 66.11 225.30 66.27 227.56 65.68 228.95 C 61.79 226.50 58.08 223.78 54.48 220.91 Z" />
</g>
<g id="#a3a3a4ff">
<path fill="#a3a3a4" opacity="1.00" d=" M 183.42 220.95 C 188.87 221.31 194.69 219.42 199.81 222.25 C 196.70 224.64 193.50 226.94 190.17 229.02 C 189.89 227.80 189.61 226.58 189.33 225.36 C 185.04 224.59 180.69 225.74 176.42 224.92 C 178.77 223.63 181.11 222.31 183.42 220.95 Z" />
</g>
<g id="#b2b2b3ff">
<path fill="#b2b2b3" opacity="1.00" d=" M 65.68 228.95 C 66.27 227.56 66.11 225.30 68.00 224.97 C 71.82 224.03 75.75 226.19 79.52 224.80 C 82.21 226.14 84.92 227.41 87.66 228.64 C 83.19 230.39 78.30 229.91 73.61 230.16 C 73.38 231.14 73.15 232.11 72.92 233.09 C 70.45 231.80 68.05 230.40 65.68 228.95 Z" />
<path fill="#b2b2b3" opacity="1.00" d=" M 166.47 229.51 C 169.79 228.00 173.13 226.51 176.42 224.92 C 180.69 225.74 185.04 224.59 189.33 225.36 C 189.61 226.58 189.89 227.80 190.17 229.02 C 187.87 230.45 185.54 231.80 183.14 233.06 C 182.88 232.10 182.62 231.15 182.36 230.19 C 177.06 229.92 171.77 229.69 166.47 229.51 Z" />
</g>
<g id="#c6c6c6ff">
<path fill="#c6c6c6" opacity="1.00" d=" M 73.61 230.16 C 78.30 229.91 83.19 230.39 87.66 228.64 C 97.19 232.58 107.31 234.86 117.53 236.14 C 114.09 238.78 109.85 237.13 105.96 236.94 C 100.61 236.46 95.28 237.56 89.94 237.20 C 88.20 236.85 86.81 238.00 85.42 238.83 C 81.12 237.22 76.99 235.21 72.92 233.09 C 73.15 232.11 73.38 231.14 73.61 230.16 Z" />
<path fill="#c6c6c6" opacity="1.00" d=" M 166.47 229.51 C 171.77 229.69 177.06 229.92 182.36 230.19 C 182.62 231.15 182.88 232.10 183.14 233.06 C 179.04 235.19 174.89 237.23 170.56 238.84 C 169.34 238.30 168.26 237.16 166.86 237.20 C 161.24 237.16 155.62 236.71 149.99 236.90 C 148.24 237.06 146.60 236.43 145.32 235.26 C 152.52 233.94 159.58 231.98 166.47 229.51 Z" />
</g>
<g id="#d9d9d9ff">
<path fill="#d9d9d9" opacity="1.00" d=" M 117.53 236.14 C 126.79 236.84 136.14 236.72 145.32 235.26 C 146.60 236.43 148.24 237.06 149.99 236.90 C 155.62 236.71 161.24 237.16 166.86 237.20 C 168.26 237.16 169.34 238.30 170.56 238.84 C 143.51 249.48 112.46 249.48 85.42 238.83 C 86.81 238.00 88.20 236.85 89.94 237.20 C 95.28 237.56 100.61 236.46 105.96 236.94 C 109.85 237.13 114.09 238.78 117.53 236.14 Z" />
</g>
</svg>
