<?xml version="1.0" encoding="utf-8"?>
<!-- Generator: Adobe Illustrator 17.0.1, SVG Export Plug-In . SVG Version: 6.00 Build 0)  -->
<!DOCTYPE svg PUBLIC "-//W3C//DTD SVG 1.1//EN" "http://www.w3.org/Graphics/SVG/1.1/DTD/svg11.dtd">
<svg version="1.1" xmlns="http://www.w3.org/2000/svg" xmlns:xlink="http://www.w3.org/1999/xlink" x="0px" y="0px" width="114px"
	 height="114px" viewBox="0 0 114 114" enable-background="new 0 0 114 114" xml:space="preserve">
<g id="normal">
	<path fill-rule="evenodd" clip-rule="evenodd" fill="#A6A6A6" d="M73.332,88.918V61.411h7.309h3.655h5.482v27.511L73.332,88.918
		L73.332,88.918z M73.332,57.741V43.068v-3.667H62.367v-7.337h18.275v25.677H73.332L73.332,57.741z M69.678,43.068v14.673v3.669
		v27.508l-14.503-0.003l1.648-0.006l0.062-34.835v-3.669h-9.137v-7.337h3.655h1.827h3.655h5.482H69.678L69.678,43.068z
		 M44.092,41.235v1.834v7.337H33.128V22.894h18.275v16.507h-7.311V41.235L44.092,41.235z M44.092,54.074h3.656h5.482v34.839
		l-27.41-0.005l-0.002-34.835H31.3h1.827H44.092L44.092,54.074z"/>
</g>
<g id="active">
	<path fill-rule="evenodd" clip-rule="evenodd" fill="#A6A6A6" d="M73.332,88.918V61.411h7.309h3.655h5.482v27.511L73.332,88.918
		L73.332,88.918z M73.332,57.741V43.068v-3.667H62.367v-7.337h18.275v25.677H73.332L73.332,57.741z M69.678,43.068v14.673v3.669
		v27.508l-14.503-0.003l1.648-0.006l0.062-34.835v-3.669h-9.137v-7.337h3.655h1.827h3.655h5.482H69.678L69.678,43.068z
		 M44.092,41.235v1.834v7.337H33.128V22.894h18.275v16.507h-7.311V41.235L44.092,41.235z M44.092,54.074h3.656h5.482v34.839
		l-27.41-0.005l-0.002-34.835H31.3h1.827H44.092L44.092,54.074z"/>
</g>
<g id="disabled" opacity="0.6">
	<path fill-rule="evenodd" clip-rule="evenodd" fill="#A6A6A6" d="M73.332,88.918V61.411h7.309h3.655h5.482v27.511L73.332,88.918
		L73.332,88.918z M73.332,57.741V43.068v-3.667H62.367v-7.337h18.275v25.677H73.332L73.332,57.741z M69.678,43.068v14.673v3.669
		v27.508l-14.503-0.003l1.648-0.006l0.062-34.835v-3.669h-9.137v-7.337h3.655h1.827h3.655h5.482H69.678L69.678,43.068z
		 M44.092,41.235v1.834v7.337H33.128V22.894h18.275v16.507h-7.311V41.235L44.092,41.235z M44.092,54.074h3.656h5.482v34.839
		l-27.41-0.005l-0.002-34.835H31.3h1.827H44.092L44.092,54.074z"/>
</g>
</svg>
