<?xml version="1.0" encoding="utf-8"?>
<!-- Generator: Adobe Illustrator 17.0.1, SVG Export Plug-In . SVG Version: 6.00 Build 0)  -->
<!DOCTYPE svg PUBLIC "-//W3C//DTD SVG 1.1//EN" "http://www.w3.org/Graphics/SVG/1.1/DTD/svg11.dtd">
<svg version="1.1" xmlns="http://www.w3.org/2000/svg" xmlns:xlink="http://www.w3.org/1999/xlink" x="0px" y="0px" width="114px"
	 height="114px" viewBox="0 0 114 114" enable-background="new 0 0 114 114" xml:space="preserve">
<g id="normal">
	<polygon fill-rule="evenodd" clip-rule="evenodd" fill="#A6A6A6" points="57,23.083 68.331,45.365 93.551,48.994 75.334,66.393 
		79.591,90.917 57,79.389 34.409,90.917 38.666,66.393 20.449,48.994 45.669,45.365 57,23.083 	"/>
</g>
<g id="active">
	<polygon fill-rule="evenodd" clip-rule="evenodd" fill="#A6A6A6" points="57,23.083 68.331,45.365 93.551,48.994 75.334,66.393 
		79.591,90.917 57,79.389 34.409,90.917 38.666,66.393 20.449,48.994 45.669,45.365 57,23.083 	"/>
</g>
<g id="disabled">
	<polygon opacity="0.6" fill-rule="evenodd" clip-rule="evenodd" fill="#A6A6A6" points="57,23.083 68.331,45.365 93.551,48.994 
		75.334,66.393 79.591,90.917 57,79.389 34.409,90.917 38.666,66.393 20.449,48.994 45.669,45.365 57,23.083 	"/>
</g>
</svg>
