<?xml version="1.0" encoding="utf-8"?>
<!-- Generator: Adobe Illustrator 18.1.0, SVG Export Plug-In . SVG Version: 6.00 Build 0)  -->
<!DOCTYPE svg PUBLIC "-//W3C//DTD SVG 1.1//EN" "http://www.w3.org/Graphics/SVG/1.1/DTD/svg11.dtd">
<svg version="1.1" xmlns="http://www.w3.org/2000/svg" xmlns:xlink="http://www.w3.org/1999/xlink" x="0px" y="0px" width="120px"
	 height="120px" viewBox="0 0 120 120" enable-background="new 0 0 120 120" xml:space="preserve">
<g id="normal">
	<path fill-rule="evenodd" clip-rule="evenodd" fill="#A6A6A6" d="M60,12.539c-26.212,0-47.461,21.249-47.461,47.461
		c0,26.212,21.249,47.461,47.461,47.461c26.212,0,47.461-21.249,47.461-47.461C107.461,33.788,86.212,12.539,60,12.539z
		 M65.697,98.02V82.96c-1.844,0.483-3.768,0.766-5.763,0.766c-1.961,0-3.854-0.275-5.669-0.741v15.024
		C37.684,95.515,24.6,82.471,22.044,65.911h15.703c-0.351-1.587-0.55-3.231-0.55-4.923c0-2.264,0.342-4.446,0.957-6.51H21.987
		c2.416-16.736,15.573-29.956,32.278-32.468v16.981c1.815-0.467,3.708-0.741,5.669-0.741c1.995,0,3.919,0.283,5.763,0.766V21.999
		c16.741,2.483,29.935,15.718,32.355,32.479H81.714c0.616,2.064,0.957,4.246,0.957,6.51c0,1.692-0.199,3.336-0.55,4.923h15.874
		C95.436,82.497,82.315,95.556,65.697,98.02z"/>
</g>
<g id="active">
	<path fill-rule="evenodd" clip-rule="evenodd" fill="#A6A6A6" d="M60,12.539c-26.212,0-47.461,21.249-47.461,47.461
		c0,26.212,21.249,47.461,47.461,47.461c26.212,0,47.461-21.249,47.461-47.461C107.461,33.788,86.212,12.539,60,12.539z
		 M65.697,98.02V82.96c-1.844,0.483-3.768,0.766-5.763,0.766c-1.961,0-3.854-0.275-5.669-0.741v15.024
		C37.684,95.515,24.6,82.471,22.044,65.911h15.703c-0.351-1.587-0.55-3.231-0.55-4.923c0-2.264,0.342-4.446,0.957-6.51H21.987
		c2.416-16.736,15.573-29.956,32.278-32.468v16.981c1.815-0.467,3.708-0.741,5.669-0.741c1.995,0,3.919,0.283,5.763,0.766V21.999
		c16.741,2.483,29.935,15.718,32.355,32.479H81.714c0.616,2.064,0.957,4.246,0.957,6.51c0,1.692-0.199,3.336-0.55,4.923h15.874
		C95.436,82.497,82.315,95.556,65.697,98.02z"/>
</g>
<g id="disabled" opacity="0.2">
	<path fill-rule="evenodd" clip-rule="evenodd" fill="#A6A6A6" d="M60,12.539c-26.212,0-47.461,21.249-47.461,47.461
		c0,26.212,21.249,47.461,47.461,47.461c26.212,0,47.461-21.249,47.461-47.461C107.461,33.788,86.212,12.539,60,12.539z
		 M65.697,98.02V82.96c-1.844,0.483-3.768,0.766-5.763,0.766c-1.961,0-3.854-0.275-5.669-0.741v15.024
		C37.684,95.515,24.6,82.471,22.044,65.911h15.703c-0.351-1.587-0.55-3.231-0.55-4.923c0-2.264,0.342-4.446,0.957-6.51H21.987
		c2.416-16.736,15.573-29.956,32.278-32.468v16.981c1.815-0.467,3.708-0.741,5.669-0.741c1.995,0,3.919,0.283,5.763,0.766V21.999
		c16.741,2.483,29.935,15.718,32.355,32.479H81.714c0.616,2.064,0.957,4.246,0.957,6.51c0,1.692-0.199,3.336-0.55,4.923h15.874
		C95.436,82.497,82.315,95.556,65.697,98.02z"/>
</g>
</svg>
