<?xml version="1.0" encoding="utf-8"?>
<!-- Generator: Adobe Illustrator 16.0.1, SVG Export Plug-In . SVG Version: 6.00 Build 0)  -->
<!DOCTYPE svg PUBLIC "-//W3C//DTD SVG 1.1//EN" "http://www.w3.org/Graphics/SVG/1.1/DTD/svg11.dtd">
<svg version="1.1" id="Слой_1" xmlns="http://www.w3.org/2000/svg" xmlns:xlink="http://www.w3.org/1999/xlink" x="0px" y="0px"
	 width="120px" height="120px" viewBox="0 0 120 120" xml:space="preserve">
<g id="Layer_2" display="none">
	
		<ellipse display="inline" opacity="0.5" fill="#DF1F26" enable-background="new    " cx="58.775" cy="57.832" rx="58.775" ry="57.832"/>
	
		<rect x="6.367" y="6.265" display="inline" opacity="0.5" fill="#3B4FA1" enable-background="new    " width="104.816" height="103.131"/>
</g>
<g id="normal">
	<g>
		<path fill="none" stroke="#000000" stroke-width="8" stroke-miterlimit="10" d="M4.787,103.532c0,6.627,5.373,12,12,12h86.426
			c6.627,0,12-5.373,12-12V16.468c0-6.627-5.373-12-12-12H16.787c-6.627,0-12,5.373-12,12V103.532z"/>
	</g>
	<g>
		<g id="pay_zone_2_">
			<g>
				<path d="M68.713,51.745c-0.25,0-0.504,0.038-0.758,0.114l-2.895,0.883l-2.998-8.093c-0.852-2.294-3.365-4.157-5.603-4.157
					H28.374c-2.236,0-4.75,1.863-5.601,4.157l-3,8.078l-2.852-0.869c-0.253-0.078-0.511-0.114-0.759-0.114
					c-1.364,0-2.355,1.152-2.355,2.741v1.889c0,1.855,1.366,3.365,3.045,3.365h0.325l-0.486,1.312
					c-0.789,2.125-1.43,5.729-1.43,8.039v16.073c0,1.857,1.361,3.367,3.041,3.367h3.977c1.677,0,3.045-1.51,3.045-3.367v-4.018
					h34.19v4.018c0,1.857,1.364,3.367,3.042,3.367h3.98c1.676,0,3.041-1.51,3.041-3.367V69.089c0-2.303-0.646-5.909-1.432-8.039
					l-0.482-1.31h0.361c1.684,0,3.043-1.51,3.043-3.365v-1.889C71.064,52.899,70.078,51.745,68.713,51.745z M21.958,57.915
					l4.544-12.242c0.509-1.368,2.021-2.495,3.358-2.495h25.117c1.339,0,2.85,1.126,3.359,2.495l4.54,12.242
					c0.508,1.373-0.174,2.491-1.506,2.491H23.473C22.13,60.406,21.453,59.288,21.958,57.915z M32.095,73.397
					c0,0.74-0.552,1.35-1.221,1.35h-8.621c-0.667,0-1.217-0.608-1.217-1.35v-4.582c0-0.74,0.551-1.347,1.217-1.347h8.621
					c0.669,0,1.221,0.604,1.221,1.347V73.397z M63.715,73.397c0,0.74-0.545,1.35-1.215,1.35h-8.625c-0.667,0-1.219-0.608-1.219-1.35
					v-4.582c0-0.74,0.548-1.347,1.219-1.347H62.5c0.668,0,1.215,0.604,1.215,1.347V73.397z"/>
				<path d="M105.801,61.661V31.67c0-2.831-2.078-5.138-4.639-5.138H81.938c-0.73,0-1.328,0.657-1.328,1.465
					c0,0.812,0.598,1.469,1.328,1.469h19.227c1.092,0,1.986,0.988,1.986,2.201v28.649h-6.363V50.205
					c0-4.938-6.152-4.177-7.947-3.199c-2.158,1.18-8.438,5.183-8.438,5.183c-1.098,0.676-1.506,2.217-0.891,3.439
					c0.416,0.836,1.195,1.306,2,1.306c0.383,0,0.758-0.103,1.109-0.318l5.164-3.174v6.872H77.619c-0.701,0-1.27,0.628-1.27,1.403
					v24.666c0,0.776,0.566,1.405,1.27,1.405h26.918c0.701,0,1.27-0.629,1.27-1.405V61.721
					C105.811,61.706,105.807,61.681,105.801,61.661z"/>
				<path d="M92.291,44.832c2.619,0,4.754-2.362,4.754-5.266c0-2.901-2.137-5.265-4.754-5.265c-2.625,0-4.758,2.362-4.758,5.265
					C87.535,42.472,89.666,44.832,92.291,44.832z"/>
			</g>
		</g>
	</g>
</g>
<g id="active">
	<g>
		<path fill="none" stroke="#000000" stroke-width="8" stroke-miterlimit="10" d="M4.787,103.532c0,6.627,5.373,12,12,12h86.426
			c6.627,0,12-5.373,12-12V16.468c0-6.627-5.373-12-12-12H16.787c-6.627,0-12,5.373-12,12V103.532z"/>
	</g>
	<g>
		<g id="pay_zone_1_">
			<g>
				<path d="M68.713,51.745c-0.25,0-0.504,0.038-0.758,0.114l-2.895,0.883l-2.998-8.093c-0.852-2.294-3.365-4.157-5.603-4.157
					H28.374c-2.236,0-4.75,1.863-5.601,4.157l-3,8.078l-2.852-0.869c-0.253-0.078-0.511-0.114-0.759-0.114
					c-1.364,0-2.355,1.152-2.355,2.741v1.889c0,1.855,1.366,3.365,3.045,3.365h0.325l-0.486,1.312
					c-0.789,2.125-1.43,5.729-1.43,8.039v16.073c0,1.857,1.361,3.367,3.041,3.367h3.977c1.677,0,3.045-1.51,3.045-3.367v-4.018
					h34.19v4.018c0,1.857,1.364,3.367,3.042,3.367h3.98c1.676,0,3.041-1.51,3.041-3.367V69.089c0-2.303-0.646-5.909-1.432-8.039
					l-0.482-1.31h0.361c1.684,0,3.043-1.51,3.043-3.365v-1.889C71.064,52.899,70.078,51.745,68.713,51.745z M21.958,57.915
					l4.544-12.242c0.509-1.368,2.021-2.495,3.358-2.495h25.117c1.339,0,2.85,1.126,3.359,2.495l4.54,12.242
					c0.508,1.373-0.174,2.491-1.506,2.491H23.473C22.13,60.406,21.453,59.288,21.958,57.915z M32.095,73.397
					c0,0.74-0.552,1.35-1.221,1.35h-8.621c-0.667,0-1.217-0.608-1.217-1.35v-4.582c0-0.74,0.551-1.347,1.217-1.347h8.621
					c0.669,0,1.221,0.604,1.221,1.347V73.397z M63.715,73.397c0,0.74-0.545,1.35-1.215,1.35h-8.625c-0.667,0-1.219-0.608-1.219-1.35
					v-4.582c0-0.74,0.548-1.347,1.219-1.347H62.5c0.668,0,1.215,0.604,1.215,1.347V73.397z"/>
				<path d="M105.801,61.661V31.67c0-2.831-2.078-5.138-4.639-5.138H81.938c-0.73,0-1.328,0.657-1.328,1.465
					c0,0.812,0.598,1.469,1.328,1.469h19.227c1.092,0,1.986,0.988,1.986,2.201v28.649h-6.363V50.205
					c0-4.938-6.152-4.177-7.947-3.199c-2.158,1.18-8.438,5.183-8.438,5.183c-1.098,0.676-1.506,2.217-0.891,3.439
					c0.416,0.836,1.195,1.306,2,1.306c0.383,0,0.758-0.103,1.109-0.318l5.164-3.174v6.872H77.619c-0.701,0-1.27,0.628-1.27,1.403
					v24.666c0,0.776,0.566,1.405,1.27,1.405h26.918c0.701,0,1.27-0.629,1.27-1.405V61.721
					C105.811,61.706,105.807,61.681,105.801,61.661z"/>
				<path d="M92.291,44.832c2.619,0,4.754-2.362,4.754-5.266c0-2.901-2.137-5.265-4.754-5.265c-2.625,0-4.758,2.362-4.758,5.265
					C87.535,42.472,89.666,44.832,92.291,44.832z"/>
			</g>
		</g>
	</g>
</g>
<g id="disabled" opacity="0.4">
	<g>
		<path fill="none" stroke="#000000" stroke-width="8" stroke-miterlimit="10" d="M4.787,103.532c0,6.627,5.373,12,12,12h86.426
			c6.627,0,12-5.373,12-12V16.468c0-6.627-5.373-12-12-12H16.787c-6.627,0-12,5.373-12,12V103.532z"/>
	</g>
	<g>
		<g id="pay_zone">
			<g>
				<path d="M68.713,51.745c-0.25,0-0.504,0.038-0.758,0.114l-2.895,0.883l-2.998-8.093c-0.852-2.294-3.365-4.157-5.603-4.157
					H28.374c-2.236,0-4.75,1.863-5.601,4.157l-3,8.078l-2.852-0.869c-0.253-0.078-0.511-0.114-0.759-0.114
					c-1.364,0-2.355,1.152-2.355,2.741v1.889c0,1.855,1.366,3.365,3.045,3.365h0.325l-0.486,1.312
					c-0.789,2.125-1.43,5.729-1.43,8.039v16.073c0,1.857,1.361,3.367,3.041,3.367h3.977c1.677,0,3.045-1.51,3.045-3.367v-4.018
					h34.19v4.018c0,1.857,1.364,3.367,3.042,3.367h3.98c1.676,0,3.041-1.51,3.041-3.367V69.089c0-2.303-0.646-5.909-1.432-8.039
					l-0.482-1.31h0.361c1.684,0,3.043-1.51,3.043-3.365v-1.889C71.064,52.899,70.078,51.745,68.713,51.745z M21.958,57.915
					l4.544-12.242c0.509-1.368,2.021-2.495,3.358-2.495h25.117c1.339,0,2.85,1.126,3.359,2.495l4.54,12.242
					c0.508,1.373-0.174,2.491-1.506,2.491H23.473C22.13,60.406,21.453,59.288,21.958,57.915z M32.095,73.397
					c0,0.74-0.552,1.35-1.221,1.35h-8.621c-0.667,0-1.217-0.608-1.217-1.35v-4.582c0-0.74,0.551-1.347,1.217-1.347h8.621
					c0.669,0,1.221,0.604,1.221,1.347V73.397z M63.715,73.397c0,0.74-0.545,1.35-1.215,1.35h-8.625c-0.667,0-1.219-0.608-1.219-1.35
					v-4.582c0-0.74,0.548-1.347,1.219-1.347H62.5c0.668,0,1.215,0.604,1.215,1.347V73.397z"/>
				<path d="M105.801,61.661V31.67c0-2.831-2.078-5.138-4.639-5.138H81.938c-0.73,0-1.328,0.657-1.328,1.465
					c0,0.812,0.598,1.469,1.328,1.469h19.227c1.092,0,1.986,0.988,1.986,2.201v28.649h-6.363V50.205
					c0-4.938-6.152-4.177-7.947-3.199c-2.158,1.18-8.438,5.183-8.438,5.183c-1.098,0.676-1.506,2.217-0.891,3.439
					c0.416,0.836,1.195,1.306,2,1.306c0.383,0,0.758-0.103,1.109-0.318l5.164-3.174v6.872H77.619c-0.701,0-1.27,0.628-1.27,1.403
					v24.666c0,0.776,0.566,1.405,1.27,1.405h26.918c0.701,0,1.27-0.629,1.27-1.405V61.721
					C105.811,61.706,105.807,61.681,105.801,61.661z"/>
				<path d="M92.291,44.832c2.619,0,4.754-2.362,4.754-5.266c0-2.901-2.137-5.265-4.754-5.265c-2.625,0-4.758,2.362-4.758,5.265
					C87.535,42.472,89.666,44.832,92.291,44.832z"/>
			</g>
		</g>
	</g>
</g>
</svg>
