<svg viewBox="0 0 120 120">
<g id="normal">
</g>
<g id="active" opacity=".4">
	<path fill-rule="evenodd" clip-rule="evenodd" fill="#FFFFFF" d="M48.646,14.469l3.611,6.064
	c-15.996,3.121-28.598,15.716-31.724,31.71l-6.064-3.607C18.646,31.85,31.859,18.644,48.646,14.469L48.646,14.469z M52.283,99.474
	l-3.612,6.064c-16.158-4.006-29.002-16.382-33.681-32.262l5.982-3.559C24.712,84.78,36.935,96.491,52.283,99.474L52.283,99.474z
	M99.016,69.728l5.962,3.552c-4.489,15.216-16.455,27.226-31.673,31.719l-3.558-5.974C84.133,95.442,95.439,84.114,99.016,69.728
	L99.016,69.728z M69.72,20.972l3.562-5.982c15.86,4.676,28.227,17.5,32.245,33.632l-6.062,3.612
	C96.468,36.911,84.767,24.709,69.72,20.972L69.72,20.972z"/>
	<polygon fill="#FFFFFF" points="61.027,23.435 51.24,6.492 70.815,6.493 61.027,23.435"/>
	<polygon fill="#FFFFFF" points="96.549,60.989 113.5,51.206 113.5,70.77 96.549,60.989"/>
	<polygon fill="#FFFFFF" points="23.451,61.553 6.501,71.334 6.5,51.772 23.451,61.553"/>
	<polygon fill="#FFFFFF" points="61.515,96.565 71.302,113.508 51.729,113.506 61.515,96.565"/>
	<path display="none" fill-rule="evenodd" clip-rule="evenodd" fill="#FFFFFF" d="M59.596,78.496c2.788-0.006,5.043,2.352,5.036,5.267
	c-0.007,2.917-2.274,5.286-5.062,5.292c-2.788,0.006-5.043-2.352-5.036-5.267C54.542,80.872,56.809,78.503,59.596,78.496
	L59.596,78.496z"/>
	<path display="none" fill="#FFFFFF" d="M63.439,70.004c0.567-1.086,4.899-6.072,9.642-13.324c1.711-2.616,2.569-5.507,2.578-8.672
	c0.012-4.733-1.336-8.39-4.045-10.972c-2.708-2.582-6.579-3.866-11.608-3.854c-4.654,0.011-8.406,1.233-11.255,3.669
	c-2.851,2.435-4.306,5.921-4.363,10.46c0,0,2.374,2.348,4.627,2.343c2.019-0.005,3.941-2.364,3.941-2.364
	c0.006-2.232,0.68-3.896,2.023-4.991c1.342-1.094,3.012-1.644,5.01-1.649c2.328-0.005,4.095,0.635,5.302,1.92
	c1.207,1.285,1.808,3.141,1.802,5.57c-0.006,2.11-0.539,3.993-1.6,5.651c-1.063,1.659-2.536,3.446-4.422,5.364
	c-2.638,2.337-4.324,4.23-5.056,5.678c-0.732,1.45-1.109,1.61-1.141,5.19c0,0,2.401,2.349,4.663,2.343
	C61.541,72.362,63.439,70.004,63.439,70.004L63.439,70.004z"/>
</g>
<g id="disabled">
</g>
</svg>
