<?xml version="1.0" encoding="utf-8"?>
<!-- Generator: Adobe Illustrator 17.0.1, SVG Export Plug-In . SVG Version: 6.00 Build 0)  -->
<!DOCTYPE svg PUBLIC "-//W3C//DTD SVG 1.1//EN" "http://www.w3.org/Graphics/SVG/1.1/DTD/svg11.dtd">
<svg version="1.1" xmlns="http://www.w3.org/2000/svg" xmlns:xlink="http://www.w3.org/1999/xlink" x="0px" y="0px" width="132px"
	 height="132px" viewBox="0 0 132 132" enable-background="new 0 0 132 132" xml:space="preserve">
<g id="disabled">
	<g>
		<defs>
			<path id="SVGID_1_" d="M72.496,5.558l54.946,54.946c3.339,3.339,3.339,8.756,0,12.095L72.599,127.44
				c-3.339,3.341-8.755,3.341-12.095,0L5.56,72.496c-3.341-3.339-3.341-8.756,0-12.095L60.4,5.558
				C63.741,2.219,69.157,2.219,72.496,5.558L72.496,5.558z"/>
		</defs>
		<defs>
			<path id="SVGID_2_" d="M71.496,4.558l54.946,54.946c3.339,3.339,3.339,8.756,0,12.095L71.599,126.44
				c-3.339,3.341-8.755,3.341-12.095,0L4.56,71.496c-3.341-3.339-3.341-8.756,0-12.095L59.4,4.558
				C62.741,1.219,68.157,1.219,71.496,4.558L71.496,4.558z"/>
		</defs>
		<linearGradient id="SVGID_3_" gradientUnits="userSpaceOnUse" x1="3.054" y1="66.5" x2="129.946" y2="66.5">
			<stop  offset="0" style="stop-color:#000000;stop-opacity:0.6"/>
			<stop  offset="1" style="stop-color:#000000;stop-opacity:0.6"/>
		</linearGradient>
		<use xlink:href="#SVGID_1_"  overflow="visible" fill-rule="evenodd" clip-rule="evenodd" fill="url(#SVGID_3_)"/>
		<use xlink:href="#SVGID_2_"  overflow="visible" fill="#BEBEBE"/>
		<clipPath id="SVGID_4_">
			<use xlink:href="#SVGID_1_"  overflow="visible"/>
		</clipPath>
		<clipPath id="SVGID_5_" clip-path="url(#SVGID_4_)">
			<use xlink:href="#SVGID_2_"  overflow="visible"/>
		</clipPath>
	</g>
	<g>
		<defs>
			<path id="SVGID_6_" d="M88.139,53.785l-0.465,0.743c0,0-0.832,0.464-2.037,0.464c-1.203,0-2.964-0.094-3.335,0
				c-0.37,0.092-2.038-0.187-3.334-0.187c-1.297,0-1.483,0.556-2.5,1.299c-1.021,0.74-2.132,2.408-2.41,3.611
				c-0.278,1.205-0.833,4.262-1.853,6.021c-1.019,1.76-1.945,2.594-2.686,3.057c0,1.295,0.278,2.686,0,3.705
				c-0.278,1.018-0.598,4.321,0,6.112c0.464,1.391,1.019,1.853,0.833,2.688c-0.184,0.832,0.464,0.832,0.464,0.832
				s0.833,0.556,0.833,1.762c-0.184,0.74-1.205,0.74-1.205,0.74c-1.203,0.371-2.222-0.556-2.222-0.556
				c-0.186-1.111,0.278-1.297,0.278-1.297l-0.278-0.556c-1.018-0.741-0.833-2.594-1.111-3.889c-0.278-1.299-0.464-2.872-0.464-2.872
				l-0.184-0.557c-0.741,2.408-0.927,4.447-0.741,5.28c0.186,0.833,0.462,1.483,0.462,1.483c0.649,0.556,1.021,1.111,1.021,1.111
				c0.184,1.019-0.186,1.573-0.186,1.573c-2.316-0.09-3.057-0.09-3.057-0.09l-0.278-0.925l0.371-0.927
				c-0.465-0.649-0.927-1.207-0.927-1.207S62.943,80.646,63.314,80c0.37-0.649,0.276-1.297,0.276-1.297
				c-0.276-4.908-0.556-8.058-0.462-8.43c0.092-0.37-0.094-1.297-0.094-1.297c-0.925-1.019-3.981-0.37-5.002,0
				c-1.018,0.371-1.759,1.019-6.575,1.111c-0.556,0-1.297,0.278-1.297,0.278c-1.76-0.184-3.613-1.297-3.613-1.297
				c-2.13-0.556-2.408,0.649-3.242,1.019c-0.833,0.371-0.925,0.649-1.205,1.483c-0.276,0.833-0.37,1.668-0.37,1.668l-0.556,0.09
				l-0.741-0.925c-0.278-0.648-1.018,0.094-1.018,0.094s0.37,0.648,0.09,0.832c-0.276,0.186-0.926,0-0.926,0l-0.648-0.09
				c0.37,3.148,0.925,5.185,1.111,5.556c0.186,0.37,0.371,1.481,0.371,1.481l0.184,0.37c-0.184,1.113,0.092,1.483,0.092,1.483
				c1.019,0.835,1.111,1.853,1.111,2.316c-2.408,0.092-3.15,0-3.15,0c-0.276-0.648,0.279-1.205,0.279-1.205v-0.646
				c-1.297-0.556-1.483-1.113-1.667-2.502c-0.186-1.389-1.76-5.372-1.76-5.372l-0.278-1.391l-0.464-0.832
				c-0.556,2.13-1.019,3.334-1.203,4.075c-0.186,0.74-0.279,1.479,0,2.962c0.276,1.483,0.276,2.78,0.276,2.78
				c0.741,0.741,1.021,2.037,1.021,2.037c-1.576,0.186-3.521,0.186-3.521,0.186l-0.464-0.556l0.279-0.925
				c0,0-0.649-0.833-0.649-1.389c0-0.556,0-0.926,0.184-1.761c0.186-0.833,0.186-5.278,0-6.205
				c-0.184-0.926-0.276-1.667,1.113-4.447c1.389-2.78,0-5.928,0-7.596c0-1.667-0.092-1.667,0.278-4.816
				c0.37-3.15-0.37-2.594-0.37-2.594l-0.741-1.851c-0.649,2.037-0.741,5.65-0.741,7.039c0,1.391,0.648,4.724,0.092,6.669
				c-0.556,1.946-1.018,3.521-1.018,4.91c0,1.389,0.556,5.464-0.835,7.037c-0.833-1.018-1.483-1.851-1.483-1.851
				c0.279-3.426-0.184-4.167,1.021-7.78c1.203-3.613,1.387-6.855,1.387-7.594c0-0.741-0.648-5.096-0.184-7.318
				c0-3.057,0.556-5.188,2.594-6.207c2.037-1.018,3.705-0.648,3.705-0.648c1.667-1.297,9.355,0.648,9.355,0.648
				c3.242-0.462,6.485,0.743,9.449,0.649c2.964-0.094,7.225-0.278,7.225-0.278c1.761-0.927,4.169-0.741,5.374-0.649l3.611,0.278
				c1.205-0.184,2.316-0.37,2.316-0.37c0.462-0.741,4.075-0.833,4.075-0.833l2.224-1.297c0.37-1.575,1.851-2.222,1.851-2.222
				s2.222-0.464,2.502,0.184c0.131,0.307,0.094,0.833-0.279,0.833c-0.368,0-1.203,0.371-1.111,0.649
				c0.094,0.278,0.464,0.833,1.111,1.018c0.649,0.187,1.67,0.557,1.67,0.927c0,0.37,0.74,1.761,1.018,1.946
				c0.278,0.184,1.297,0.556,1.575,1.203c0.278,0.648,0.648,1.575,1.113,1.76c0.462,0.186,1.295,0.74,1.295,0.74
				C88.879,52.953,88.139,53.785,88.139,53.785L88.139,53.785z M108.469,70.088l-0.231,0.094v0.184c-1.203,0.186-2.038,0-2.038,0
				c-0.276,0.74-0.74,0.74-1.018,1.205c-0.464,1.483-1.483,1.759-1.483,1.759c-0.464,2.686-1.111,2.686-1.111,2.686
				c-0.371,2.13-1.761,2.872-2.222,2.872c-0.464,0-1.667,1.019-1.667,1.019c-0.373,2.038-0.186,3.983-0.186,3.983l0.648,1.761
				c0,0,0.741,0.37,0.556,0.648c-0.186,0.279-1.483,0.184-1.483,0.184l-0.648-0.09c0-0.402,0.006-0.53,0.011-0.56l-0.058-0.249
				c-0.231-0.302-0.556-0.42-0.556-0.604c0-0.186-0.186-1.366-0.186-1.366c-0.139-0.349-0.16-0.556-0.16-0.556
				c0-0.279-0.279-0.139-0.279,0.023c0,0.163-0.047,0.67,0.023,0.766c0.071,0.092,0.163,0.601,0.094,0.811
				c-0.069,0.205,0.047,0.462,0.047,0.462c0.439,0.556,0.462,0.925,0.346,1.252c-0.578,0.16-1.156,0.276-1.387,0.254
				c-0.233-0.024-0.695-0.231-0.627-0.535c0.071-0.299,0.116-0.485,0.116-0.485l-0.184-0.417c-0.233-0.141,0.068-1.459,0.068-1.459
				l-0.045-1.507c0-0.716-0.488-0.948-0.488-0.948c0,0-0.276-0.486-0.162-0.625c-0.186-0.323-0.486-0.418-0.67-0.51
				c-0.186-0.094-0.186-0.533-0.186-0.533s-0.071-0.646-0.627-0.3c-0.556,0.349-1.111,0.602-1.689,0.74
				c-0.578,0.141-4.332,0.302-5.21-0.231c-0.88-0.53-1.436-0.601-1.551-0.462c-0.116,0.139,0.069,0.418,0,0.719
				c-0.071,0.299-0.257,0.462-0.279,0.578c-0.023,0.116,0,0.578-0.069,0.648c-0.068,0.071-1.019,1.089-1.019,1.089
				c-0.045,0.347-0.184,0.764-0.439,1.019c-0.255,0.257-0.441,0.882-0.347,1.135c0.417,0.462,0.533,0.927,0.51,1.273
				c-0.024,0.347-0.094,0.486-0.094,0.486c-1.458,0.024-1.691-0.115-1.691-0.115c-0.207-0.3-0.023-0.717-0.023-0.717
				c-0.184-0.186-0.533-0.741-0.533-0.741c0.163-0.58-0.208-0.88-0.208-0.88s-0.023,0.069,0-0.069
				c0.023-0.141,0.231-0.766,0.231-0.766c0.047-0.741-0.439-1.828-0.74-1.854c-0.208,0.071-0.231,0.396-0.371,0.672
				c-0.139,0.279-0.139,1.066-0.531,1.507c-0.394,0.441-0.486,0.556-0.486,0.556c-0.094,0.58,0.068,0.95,0.186,1.297
				c0.115,0.347,0.231,1.135,0.231,1.135c-0.371,0.021-1.667-0.094-1.667-0.094c-0.024-0.346-0.396-0.858-0.396-0.858
				c0.116-0.785,0.094-1.25,0.094-1.25c-0.486-0.184-0.486-1.271-0.556-2.059c-0.069-0.788-0.556-1.853-0.116-2.618
				c0.439-0.764,0.163-1.226,0.163-1.226s0.166-0.569,0.276-0.787c0.139-0.279-0.486-1.76-0.37-2.109c0.116-0.346,0-1.92,0-1.92
				s-0.323-0.186-0.417-0.371c-0.092-0.184,0.069-0.531,0.069-0.531c0.37-0.927,0.741-1.946,1.205-2.688
				c0.462-0.741,2.315-3.056,4.075-3.15c1.761-0.092,5.002-0.186,6.205,0c1.203,0.186,3.15,0.094,4.261-0.092
				c1.113-0.186,5.836-0.648,6.391-0.556c0.556,0.092,2.132-1.667,2.78-1.853c0.649-0.184,1.945-1.297,2.872-1.205
				c0.925,0.094,2.13,0.278,2.408,0.741c0.278,0.464,0.927,0.927,0.927,0.927s0.462,0.278,0.462,0.648
				c0,0.371-0.115,1.019-0.115,1.019C109.421,68.513,109.073,69.117,108.469,70.088L108.469,70.088z"/>
		</defs>
		<use xlink:href="#SVGID_6_"  overflow="visible" fill-rule="evenodd" clip-rule="evenodd"/>
		<clipPath id="SVGID_7_">
			<use xlink:href="#SVGID_6_"  overflow="visible"/>
		</clipPath>
	</g>
	<path fill-rule="evenodd" clip-rule="evenodd" d="M123.833,59.761L71.24,7.169c-3.198-3.198-8.381-3.198-11.579,0L7.169,59.661
		c-3.198,3.198-3.198,8.383,0,11.579l52.593,52.593c3.196,3.196,8.381,3.196,11.577,0l52.494-52.494
		C127.029,68.142,127.029,62.958,123.833,59.761z M121.712,69.218l-52.494,52.494c-0.979,0.979-2.282,1.519-3.667,1.519
		c-1.386,0-2.688-0.539-3.668-1.519L9.29,69.119c-0.98-0.979-1.52-2.282-1.52-3.667c0-1.386,0.54-2.689,1.52-3.669L61.782,9.29
		c0.98-0.98,2.283-1.52,3.668-1.52c1.385,0,2.688,0.54,3.668,1.52l52.593,52.592C123.733,63.905,123.733,67.195,121.712,69.218z"/>
	<linearGradient id="SVGID_8_" gradientUnits="userSpaceOnUse" x1="96.2149" y1="109.365" x2="34.7851" y2="21.6343">
		<stop  offset="0" style="stop-color:#000000;stop-opacity:0"/>
		<stop  offset="1" style="stop-color:#FFFFFF;stop-opacity:0.25"/>
	</linearGradient>
	<path fill-rule="evenodd" clip-rule="evenodd" fill="url(#SVGID_8_)" d="M71.496,4.558l54.946,54.946
		c3.339,3.339,3.339,8.756,0,12.095L71.599,126.44c-3.339,3.341-8.755,3.341-12.095,0L4.56,71.496
		c-3.341-3.339-3.341-8.756,0-12.095L59.4,4.558C62.741,1.219,68.157,1.219,71.496,4.558L71.496,4.558z"/>
</g>
<g id="normal">
	<g>
		<defs>
			<path id="SVGID_9_" d="M72.496,5.558l54.946,54.946c3.339,3.339,3.339,8.756,0,12.095L72.599,127.44
				c-3.339,3.341-8.755,3.341-12.095,0L5.56,72.496c-3.341-3.339-3.341-8.756,0-12.095L60.4,5.558
				C63.741,2.219,69.157,2.219,72.496,5.558L72.496,5.558z"/>
		</defs>
		<defs>
			<path id="SVGID_10_" d="M71.496,4.558l54.946,54.946c3.339,3.339,3.339,8.756,0,12.095L71.599,126.44
				c-3.339,3.341-8.755,3.341-12.095,0L4.56,71.496c-3.341-3.339-3.341-8.756,0-12.095L59.4,4.558
				C62.741,1.219,68.157,1.219,71.496,4.558L71.496,4.558z"/>
		</defs>
		<linearGradient id="SVGID_11_" gradientUnits="userSpaceOnUse" x1="3.054" y1="66.5" x2="129.946" y2="66.5">
			<stop  offset="0" style="stop-color:#000000;stop-opacity:0.6"/>
			<stop  offset="1" style="stop-color:#000000;stop-opacity:0.6"/>
		</linearGradient>
		<use xlink:href="#SVGID_9_"  overflow="visible" fill-rule="evenodd" clip-rule="evenodd" fill="url(#SVGID_11_)"/>
		<use xlink:href="#SVGID_10_"  overflow="visible" fill="#FFC000"/>
		<clipPath id="SVGID_12_">
			<use xlink:href="#SVGID_9_"  overflow="visible"/>
		</clipPath>
		<clipPath id="SVGID_13_" clip-path="url(#SVGID_12_)">
			<use xlink:href="#SVGID_10_"  overflow="visible"/>
		</clipPath>
	</g>
	<g>
		<defs>
			<path id="SVGID_14_" d="M88.139,53.785l-0.465,0.743c0,0-0.832,0.464-2.037,0.464c-1.203,0-2.964-0.094-3.335,0
				c-0.37,0.092-2.038-0.187-3.334-0.187c-1.297,0-1.483,0.556-2.5,1.299c-1.021,0.74-2.132,2.408-2.41,3.611
				c-0.278,1.205-0.833,4.262-1.853,6.021c-1.019,1.76-1.945,2.594-2.686,3.057c0,1.295,0.278,2.686,0,3.705
				c-0.278,1.018-0.598,4.321,0,6.112c0.464,1.391,1.019,1.853,0.833,2.688c-0.184,0.832,0.464,0.832,0.464,0.832
				s0.833,0.556,0.833,1.762c-0.184,0.74-1.205,0.74-1.205,0.74c-1.203,0.371-2.222-0.556-2.222-0.556
				c-0.186-1.111,0.278-1.297,0.278-1.297l-0.278-0.556c-1.018-0.741-0.833-2.594-1.111-3.889c-0.278-1.299-0.464-2.872-0.464-2.872
				l-0.184-0.557c-0.741,2.408-0.927,4.447-0.741,5.28c0.186,0.833,0.462,1.483,0.462,1.483c0.649,0.556,1.021,1.111,1.021,1.111
				c0.184,1.019-0.186,1.573-0.186,1.573c-2.316-0.09-3.057-0.09-3.057-0.09l-0.278-0.925l0.371-0.927
				c-0.465-0.649-0.927-1.207-0.927-1.207S62.943,80.646,63.314,80c0.37-0.649,0.276-1.297,0.276-1.297
				c-0.276-4.908-0.556-8.058-0.462-8.43c0.092-0.37-0.094-1.297-0.094-1.297c-0.925-1.019-3.981-0.37-5.002,0
				c-1.018,0.371-1.759,1.019-6.575,1.111c-0.556,0-1.297,0.278-1.297,0.278c-1.76-0.184-3.613-1.297-3.613-1.297
				c-2.13-0.556-2.408,0.649-3.242,1.019c-0.833,0.371-0.925,0.649-1.205,1.483c-0.276,0.833-0.37,1.668-0.37,1.668l-0.556,0.09
				l-0.741-0.925c-0.278-0.648-1.018,0.094-1.018,0.094s0.37,0.648,0.09,0.832c-0.276,0.186-0.926,0-0.926,0l-0.648-0.09
				c0.37,3.148,0.925,5.185,1.111,5.556c0.186,0.37,0.371,1.481,0.371,1.481l0.184,0.37c-0.184,1.113,0.092,1.483,0.092,1.483
				c1.019,0.835,1.111,1.853,1.111,2.316c-2.408,0.092-3.15,0-3.15,0c-0.276-0.648,0.279-1.205,0.279-1.205v-0.646
				c-1.297-0.556-1.483-1.113-1.667-2.502c-0.186-1.389-1.76-5.372-1.76-5.372l-0.278-1.391l-0.464-0.832
				c-0.556,2.13-1.019,3.334-1.203,4.075c-0.186,0.74-0.279,1.479,0,2.962c0.276,1.483,0.276,2.78,0.276,2.78
				c0.741,0.741,1.021,2.037,1.021,2.037c-1.576,0.186-3.521,0.186-3.521,0.186l-0.464-0.556l0.279-0.925
				c0,0-0.649-0.833-0.649-1.389c0-0.556,0-0.926,0.184-1.761c0.186-0.833,0.186-5.278,0-6.205
				c-0.184-0.926-0.276-1.667,1.113-4.447c1.389-2.78,0-5.928,0-7.596c0-1.667-0.092-1.667,0.278-4.816
				c0.37-3.15-0.37-2.594-0.37-2.594l-0.741-1.851c-0.649,2.037-0.741,5.65-0.741,7.039c0,1.391,0.648,4.724,0.092,6.669
				c-0.556,1.946-1.018,3.521-1.018,4.91c0,1.389,0.556,5.464-0.835,7.037c-0.833-1.018-1.483-1.851-1.483-1.851
				c0.279-3.426-0.184-4.167,1.021-7.78c1.203-3.613,1.387-6.855,1.387-7.594c0-0.741-0.648-5.096-0.184-7.318
				c0-3.057,0.556-5.188,2.594-6.207c2.037-1.018,3.705-0.648,3.705-0.648c1.667-1.297,9.355,0.648,9.355,0.648
				c3.242-0.462,6.485,0.743,9.449,0.649c2.964-0.094,7.225-0.278,7.225-0.278c1.761-0.927,4.169-0.741,5.374-0.649l3.611,0.278
				c1.205-0.184,2.316-0.37,2.316-0.37c0.462-0.741,4.075-0.833,4.075-0.833l2.224-1.297c0.37-1.575,1.851-2.222,1.851-2.222
				s2.222-0.464,2.502,0.184c0.131,0.307,0.094,0.833-0.279,0.833c-0.368,0-1.203,0.371-1.111,0.649
				c0.094,0.278,0.464,0.833,1.111,1.018c0.649,0.187,1.67,0.557,1.67,0.927c0,0.37,0.74,1.761,1.018,1.946
				c0.278,0.184,1.297,0.556,1.575,1.203c0.278,0.648,0.648,1.575,1.113,1.76c0.462,0.186,1.295,0.74,1.295,0.74
				C88.879,52.953,88.139,53.785,88.139,53.785L88.139,53.785z M108.469,70.088l-0.231,0.094v0.184c-1.203,0.186-2.038,0-2.038,0
				c-0.276,0.74-0.74,0.74-1.018,1.205c-0.464,1.483-1.483,1.759-1.483,1.759c-0.464,2.686-1.111,2.686-1.111,2.686
				c-0.371,2.13-1.761,2.872-2.222,2.872c-0.464,0-1.667,1.019-1.667,1.019c-0.373,2.038-0.186,3.983-0.186,3.983l0.648,1.761
				c0,0,0.741,0.37,0.556,0.648c-0.186,0.279-1.483,0.184-1.483,0.184l-0.648-0.09c0-0.402,0.006-0.53,0.011-0.56l-0.058-0.249
				c-0.231-0.302-0.556-0.42-0.556-0.604c0-0.186-0.186-1.366-0.186-1.366c-0.139-0.349-0.16-0.556-0.16-0.556
				c0-0.279-0.279-0.139-0.279,0.023c0,0.163-0.047,0.67,0.023,0.766c0.071,0.092,0.163,0.601,0.094,0.811
				c-0.069,0.205,0.047,0.462,0.047,0.462c0.439,0.556,0.462,0.925,0.346,1.252c-0.578,0.16-1.156,0.276-1.387,0.254
				c-0.233-0.024-0.695-0.231-0.627-0.535c0.071-0.299,0.116-0.485,0.116-0.485l-0.184-0.417c-0.233-0.141,0.068-1.459,0.068-1.459
				l-0.045-1.507c0-0.716-0.488-0.948-0.488-0.948c0,0-0.276-0.486-0.162-0.625c-0.186-0.323-0.486-0.418-0.67-0.51
				c-0.186-0.094-0.186-0.533-0.186-0.533s-0.071-0.646-0.627-0.3c-0.556,0.349-1.111,0.602-1.689,0.74
				c-0.578,0.141-4.332,0.302-5.21-0.231c-0.88-0.53-1.436-0.601-1.551-0.462c-0.116,0.139,0.069,0.418,0,0.719
				c-0.071,0.299-0.257,0.462-0.279,0.578c-0.023,0.116,0,0.578-0.069,0.648c-0.068,0.071-1.019,1.089-1.019,1.089
				c-0.045,0.347-0.184,0.764-0.439,1.019c-0.255,0.257-0.441,0.882-0.347,1.135c0.417,0.462,0.533,0.927,0.51,1.273
				c-0.024,0.347-0.094,0.486-0.094,0.486c-1.458,0.024-1.691-0.115-1.691-0.115c-0.207-0.3-0.023-0.717-0.023-0.717
				c-0.184-0.186-0.533-0.741-0.533-0.741c0.163-0.58-0.208-0.88-0.208-0.88s-0.023,0.069,0-0.069
				c0.023-0.141,0.231-0.766,0.231-0.766c0.047-0.741-0.439-1.828-0.74-1.854c-0.208,0.071-0.231,0.396-0.371,0.672
				c-0.139,0.279-0.139,1.066-0.531,1.507c-0.394,0.441-0.486,0.556-0.486,0.556c-0.094,0.58,0.068,0.95,0.186,1.297
				c0.115,0.347,0.231,1.135,0.231,1.135c-0.371,0.021-1.667-0.094-1.667-0.094c-0.024-0.346-0.396-0.858-0.396-0.858
				c0.116-0.785,0.094-1.25,0.094-1.25c-0.486-0.184-0.486-1.271-0.556-2.059c-0.069-0.788-0.556-1.853-0.116-2.618
				c0.439-0.764,0.163-1.226,0.163-1.226s0.166-0.569,0.276-0.787c0.139-0.279-0.486-1.76-0.37-2.109c0.116-0.346,0-1.92,0-1.92
				s-0.323-0.186-0.417-0.371c-0.092-0.184,0.069-0.531,0.069-0.531c0.37-0.927,0.741-1.946,1.205-2.688
				c0.462-0.741,2.315-3.056,4.075-3.15c1.761-0.092,5.002-0.186,6.205,0c1.203,0.186,3.15,0.094,4.261-0.092
				c1.113-0.186,5.836-0.648,6.391-0.556c0.556,0.092,2.132-1.667,2.78-1.853c0.649-0.184,1.945-1.297,2.872-1.205
				c0.925,0.094,2.13,0.278,2.408,0.741c0.278,0.464,0.927,0.927,0.927,0.927s0.462,0.278,0.462,0.648
				c0,0.371-0.115,1.019-0.115,1.019C109.421,68.513,109.073,69.117,108.469,70.088L108.469,70.088z"/>
		</defs>
		<use xlink:href="#SVGID_14_"  overflow="visible" fill-rule="evenodd" clip-rule="evenodd"/>
		<clipPath id="SVGID_15_">
			<use xlink:href="#SVGID_14_"  overflow="visible"/>
		</clipPath>
	</g>
	<path fill-rule="evenodd" clip-rule="evenodd" d="M123.833,59.761L71.24,7.169c-3.198-3.198-8.381-3.198-11.579,0L7.169,59.661
		c-3.198,3.198-3.198,8.383,0,11.579l52.593,52.593c3.196,3.196,8.381,3.196,11.577,0l52.494-52.494
		C127.029,68.142,127.029,62.958,123.833,59.761z M121.712,69.218l-52.494,52.494c-0.979,0.979-2.282,1.519-3.667,1.519
		c-1.386,0-2.688-0.539-3.668-1.519L9.29,69.119c-0.98-0.979-1.52-2.282-1.52-3.667c0-1.386,0.54-2.689,1.52-3.669L61.782,9.29
		c0.98-0.98,2.283-1.52,3.668-1.52c1.385,0,2.688,0.54,3.668,1.52l52.593,52.592C123.733,63.905,123.733,67.195,121.712,69.218z"/>
	<linearGradient id="SVGID_16_" gradientUnits="userSpaceOnUse" x1="96.2149" y1="109.365" x2="34.7851" y2="21.6343">
		<stop  offset="0" style="stop-color:#000000;stop-opacity:0"/>
		<stop  offset="1" style="stop-color:#FFFFFF;stop-opacity:0.25"/>
	</linearGradient>
	<path fill-rule="evenodd" clip-rule="evenodd" fill="url(#SVGID_16_)" d="M71.496,4.558l54.946,54.946
		c3.339,3.339,3.339,8.756,0,12.095L71.599,126.44c-3.339,3.341-8.755,3.341-12.095,0L4.56,71.496
		c-3.341-3.339-3.341-8.756,0-12.095L59.4,4.558C62.741,1.219,68.157,1.219,71.496,4.558L71.496,4.558z"/>
</g>
</svg>
