<?xml version="1.0" encoding="utf-8"?>
<!-- Generator: Adobe Illustrator 17.0.1, SVG Export Plug-In . SVG Version: 6.00 Build 0)  -->
<!DOCTYPE svg PUBLIC "-//W3C//DTD SVG 1.1//EN" "http://www.w3.org/Graphics/SVG/1.1/DTD/svg11.dtd">
<svg version="1.1" xmlns="http://www.w3.org/2000/svg" xmlns:xlink="http://www.w3.org/1999/xlink" x="0px" y="0px" width="132px"
	 height="132px" viewBox="0 0 132 132" enable-background="new 0 0 132 132" xml:space="preserve">
<g id="disabled">
	<g>
		<defs>
			<path id="SVGID_1_" d="M12.499,30.5h108c3.046,0,6,3.104,6,7v58c0,3.897-2.954,7-6,7h-108c-3.045,0-5.999-3.103-5.999-7v-58
				C6.5,33.604,9.454,30.5,12.499,30.5L12.499,30.5z"/>
		</defs>
		<defs>
			<path id="SVGID_2_" d="M11.499,29.5h108c3.046,0,6,3.104,6,7v58c0,3.897-2.954,7-6,7h-108c-3.045,0-5.999-3.103-5.999-7v-58
				C5.5,32.604,8.454,29.5,11.499,29.5L11.499,29.5z"/>
		</defs>
		<linearGradient id="SVGID_3_" gradientUnits="userSpaceOnUse" x1="6.5003" y1="66.5" x2="126.4997" y2="66.5">
			<stop  offset="0" style="stop-color:#000000;stop-opacity:0.6"/>
			<stop  offset="1" style="stop-color:#000000;stop-opacity:0.6"/>
		</linearGradient>
		<use xlink:href="#SVGID_1_"  overflow="visible" fill-rule="evenodd" clip-rule="evenodd" fill="url(#SVGID_3_)"/>
		<use xlink:href="#SVGID_2_"  overflow="visible" fill="#BEBEBE"/>
		<clipPath id="SVGID_4_">
			<use xlink:href="#SVGID_1_"  overflow="visible"/>
		</clipPath>
		<clipPath id="SVGID_5_" clip-path="url(#SVGID_4_)">
			<use xlink:href="#SVGID_2_"  overflow="visible"/>
		</clipPath>
	</g>
	<g>
		<defs>
			<path id="SVGID_6_" d="M13.5,31.499H118.5c2.965,0,5.001,2.208,5.001,6V92.5c0,3.794-2.035,7-5.001,7H13.5c-2.965,0-6-2.205-6-6
				V37.5C7.5,33.707,10.535,31.499,13.5,31.499L13.5,31.499z"/>
		</defs>
		<use xlink:href="#SVGID_6_"  overflow="visible" fill-rule="evenodd" clip-rule="evenodd"/>
		<clipPath id="SVGID_7_">
			<use xlink:href="#SVGID_6_"  overflow="visible"/>
		</clipPath>
	</g>
	<g>
		<defs>
			<path id="SVGID_8_" d="M13.5,97.501c-1.94,0-4.001-1.402-4.001-4.001V37.5c0-2.599,2.061-4.001,4.001-4.001H118.5
				c2.61,0,3.001,2.507,3.001,4.001V92.5c0,1.454-0.378,2.833-1.035,3.788c-0.381,0.554-1.032,1.213-1.966,1.213H13.5"/>
		</defs>
		<use xlink:href="#SVGID_8_"  overflow="visible" fill="#BEBEBE"/>
		<clipPath id="SVGID_9_">
			<use xlink:href="#SVGID_8_"  overflow="visible"/>
		</clipPath>
	</g>
	<g>
		<defs>
			<path id="SVGID_10_" d="M120.499,74.501v9H92.5v7c0,0.221-0.78,1-1.001,1H85.5c-0.221,0-1.001-0.779-1.001-1V78.5
				c-0.157-0.286-0.354-0.523-0.468-0.845c-0.632-1.74-0.948-3.372-0.948-5.004c0-2.056,0.504-4.107,1.523-6.357l0.425-0.927
				c0.767-1.664,1.638-3.55,2.642-6.724c0.019-0.071,1.958-7.46,1.958-7.46l0.045-0.139c1.471-4.519,1.964-6.53,5.824-6.543h24.999
				v2h-8.741l-2.462,4.132l11.057,0.065v1.027l-9.969,2.566l7.997,9.034l-12.285-6.85l-1.152,5.97l-2.431-5.521l-3.327,4.942
				l0.384-5.007l-9.57,3.145c-0.163,1.132-0.483,3.435-0.502,3.497h31v4.001h-23v7H120.499L120.499,74.501z M109.193,46.501h-3.639
				v3.649L109.193,46.501L109.193,46.501z M101.938,50.056l1.539-3.555h-5.133L101.938,50.056L101.938,50.056z M96.317,46.501H95.5
				c-1.964,0-1.912,0.706-3.418,5.332c0,0-0.002,0.008-0.003,0.011l5.957-0.506L96.317,46.501L96.317,46.501z M91.758,53.055
				c-0.372,1.415-0.995,3.794-1.362,5.189l7.128-3.376L91.758,53.055L91.758,53.055z M91.677,68.112h-2.461
				c-1.552,0-2.812,1.263-2.812,2.822c0,1.56,1.26,2.823,2.812,2.823h2.461c1.554,0,2.814-1.263,2.814-2.823
				C94.49,69.375,93.231,68.112,91.677,68.112L91.677,68.112z M77.181,91.168c-1.56-0.074-3.167,0.357-4.742,0.068
				c-0.53-0.097-0.811-0.447-1.279-0.644c-0.611-0.257-0.934-0.053-1.378-0.738c-0.344-0.53-0.299-1.2-0.212-1.832
				c0.09-0.661,0.202-1.363,0.305-2.035c0.052-0.331,0.262-0.636,0.326-0.969c0.076-0.404,0.018-0.85,0.142-1.253
				c0.149-0.484,0.389-1.021,0.869-1.174c0.543-0.171,1.14-0.018,1.704-0.212c0.643-0.22,1.291-0.548,1.953-0.672
				c1.376-0.26,3.405-0.518,4.771-0.171c1.113,1.36,0.09,3.528,0.16,5.206c0.027,0.675,0.171,1.366,0.388,2.011
				c0.221,0.657,0.672,1.239,0.507,1.977C80.334,92.342,78.214,91.216,77.181,91.168L77.181,91.168z M75.157,54.512
				c-0.069,1.013-0.181,1.799-0.652,2.707c-0.423,0.816-0.906,1.027-1.757,1.349c-0.338,0.128-0.347,0.045-0.48,0.383
				c-0.187,0.48,0.078,0.717-0.472,1.005c-0.333,0.174-0.577,0.212-0.845,0.399c-0.247,0.171-0.575,0.428-0.795,0.63
				c-0.215,0.199-0.368,0.727-0.661,0.809c-0.162,0.045-0.806-0.204-0.921-0.234c-0.693-0.178-1.601-0.368-2.247-0.673
				c-0.417-0.197-0.359-0.023-0.228-0.381c0.249-0.688,1.657-0.812,1.819-1.555c-0.661-0.218-1.951-0.46-2.095-1.231
				c-0.048-0.258,0.063-0.491,0.053-0.743c-0.037-1.064-1.352-0.791-1.643-1.793c-0.129-0.444-0.1-0.964-0.184-1.426
				c-0.039-0.218-0.192-0.52-0.057-0.748c0.162-0.271,0.565-0.288,0.806-0.489c0.355-0.304,0.409-0.803,0.649-1.103
				c0.246-0.31,0.42-0.149,0.748-0.279c0.25-0.1,0.275-0.215,0.465-0.431c0.378-0.428,0.67-0.37,1.242-0.37
				c0.971,0,0.585-0.221,0.906-1.008c0.27-0.657,0.893-1.129,1.281-1.722l0.213,0.053c0.808-0.173,0.78-0.712,1.589,0.057
				c0.46,0.434,1.121,1.147,1.72,1.444c0.722,0.357,1.924,0.26,2.298,1.19c0.275,0.675,0.118,2.059-0.168,2.712
				C75.509,53.601,75.201,53.869,75.157,54.512L75.157,54.512z M51.151,84.893l8.993-6.483l1.15,1.604L51.09,87.371l16.676-1.473
				l0.173,1.969l-20.252,1.788l-1.04-1.231L54.561,57.6l1.908,0.491l-6.356,24.76l13.638-21.598l1.664,1.058L51.151,84.893
				L51.151,84.893z M59.425,53.22c-0.129,0.352-0.144,0.594-0.216,0.955c-0.11,0.552,0.055,0.271-0.43,0.344
				c-0.493,0.074-0.841,0.255-1.318,0.367c-0.48,0.111-0.929,0.321-1.395,0.372c-0.738,0.081-1.504-0.099-2.25-0.107
				c-0.782-0.006-1.384-0.207-2.08-0.533c-1.205-0.564-2.071-1.5-1.862-2.948c0.036-0.239,0.142-0.365,0.212-0.585
				c0.065-0.197,0.058-0.42,0.121-0.632c0.142-0.483,0.606-0.738,0.856-1.135c0.344-0.551,0.15-0.707,0.84-0.895
				c0.583-0.16,0.819-0.257,1.027-0.806c0.176-0.462,0.162-0.874,0.667-1.071c0.312-0.121,0.701-0.089,1.035-0.223
				c0.344-0.137,0.627-0.347,1.003-0.378l0.853-0.375c0.535-0.326,1.395-0.029,1.843,0.325c0.56,0.444,0.565,1.118,0.812,1.765
				c0.236,0.62,0.683,1.27,0.796,1.959c0.09,0.548,0.09,1.294,0.058,1.846C59.963,52.047,59.627,52.676,59.425,53.22L59.425,53.22z
				 M46.499,78.5v12.001c0,0.221-0.78,1-1,1h-6c-0.22,0-1-0.779-1-1V81.5h-28V60.501h30c-0.026-0.082,0.273,0.008,0.246-0.076
				l-0.01-0.029c0,0-1.937-8.423-1.954-8.494c-0.01-0.031-0.023-0.069-0.023-0.069c-1.505-4.626-1.295-5.332-3.258-5.332H10.499v-2
				H35.5c3.859,0.013,4.193,2.024,5.664,6.543l0.045,0.139c0,0,1.938,7.389,1.956,7.46c1.005,3.174,1.877,5.06,2.644,6.724
				l0.425,0.927c1.019,2.25,1.523,4.301,1.523,6.357c0,1.631-0.318,3.264-0.948,5.004C46.693,77.977,46.658,78.214,46.499,78.5
				L46.499,78.5z M64.331,79.623c-0.365-0.252-0.662-0.673-0.895-1.029c-0.305-0.462-0.69-0.864-1.011-1.342
				c-0.709-1.051-1.124-2.366-0.483-3.544c0.772-1.421,1.572-2.578,1.974-4.162c0.153-0.606,0.36-0.677,0.995-0.695
				c0.531-0.016,1.442-0.12,1.82,0.266l-0.267-0.107c0.436,0.299,1.156,0.56,1.652,0.738c0.577,0.21,1.093,0.56,1.71,0.599
				c1.106,0.069,2.571-0.446,2.345,1.286c-0.048,0.376-0.163,0.809-0.263,1.176c-0.163,0.606-0.578,0.946-0.643,1.554
				c-0.063,0.58,0.052,0.961-0.226,1.492c-0.22,0.42-0.677,0.612-0.885,0.982c-0.141,0.252-0.126,0.672-0.208,0.964
				c-0.234,0.832-0.102,2.886-1.084,3.148c-0.573,0.152-1.473-0.126-2.051-0.267C65.825,80.443,65.104,80.151,64.331,79.623
				L64.331,79.623z"/>
		</defs>
		<use xlink:href="#SVGID_10_"  overflow="visible" fill-rule="evenodd" clip-rule="evenodd"/>
		<clipPath id="SVGID_11_">
			<use xlink:href="#SVGID_10_"  overflow="visible"/>
		</clipPath>
	</g>
	<linearGradient id="SVGID_12_" gradientUnits="userSpaceOnUse" x1="100.6914" y1="115.7589" x2="30.3083" y2="15.2414">
		<stop  offset="0" style="stop-color:#000000;stop-opacity:0"/>
		<stop  offset="1" style="stop-color:#FFFFFF;stop-opacity:0.25"/>
	</linearGradient>
	<path fill-rule="evenodd" clip-rule="evenodd" fill="url(#SVGID_12_)" d="M11.499,29.5h108c3.046,0,6,3.104,6,7v58
		c0,3.897-2.954,7-6,7h-108c-3.045,0-5.999-3.103-5.999-7v-58C5.5,32.604,8.454,29.5,11.499,29.5L11.499,29.5z"/>
</g>
<g id="normal">
	<g>
		<defs>
			<path id="SVGID_13_" d="M12.499,30.5h108c3.046,0,6,3.104,6,7v58c0,3.897-2.954,7-6,7h-108c-3.045,0-5.999-3.103-5.999-7v-58
				C6.5,33.604,9.454,30.5,12.499,30.5L12.499,30.5z"/>
		</defs>
		<defs>
			<path id="SVGID_14_" d="M11.499,29.5h108c3.046,0,6,3.104,6,7v58c0,3.897-2.954,7-6,7h-108c-3.045,0-5.999-3.103-5.999-7v-58
				C5.5,32.604,8.454,29.5,11.499,29.5L11.499,29.5z"/>
		</defs>
		<linearGradient id="SVGID_15_" gradientUnits="userSpaceOnUse" x1="6.5003" y1="66.5" x2="126.4997" y2="66.5">
			<stop  offset="0" style="stop-color:#000000;stop-opacity:0.6"/>
			<stop  offset="1" style="stop-color:#000000;stop-opacity:0.6"/>
		</linearGradient>
		<use xlink:href="#SVGID_13_"  overflow="visible" fill-rule="evenodd" clip-rule="evenodd" fill="url(#SVGID_15_)"/>
		<use xlink:href="#SVGID_14_"  overflow="visible" fill="#FFC000"/>
		<clipPath id="SVGID_16_">
			<use xlink:href="#SVGID_13_"  overflow="visible"/>
		</clipPath>
		<clipPath id="SVGID_17_" clip-path="url(#SVGID_16_)">
			<use xlink:href="#SVGID_14_"  overflow="visible"/>
		</clipPath>
	</g>
	<g>
		<defs>
			<path id="SVGID_18_" d="M13.5,31.499H118.5c2.965,0,5.001,2.208,5.001,6V92.5c0,3.794-2.035,7-5.001,7H13.5c-2.965,0-6-2.205-6-6
				V37.5C7.5,33.707,10.535,31.499,13.5,31.499L13.5,31.499z"/>
		</defs>
		<use xlink:href="#SVGID_18_"  overflow="visible" fill-rule="evenodd" clip-rule="evenodd"/>
		<clipPath id="SVGID_19_">
			<use xlink:href="#SVGID_18_"  overflow="visible"/>
		</clipPath>
	</g>
	<g>
		<defs>
			<path id="SVGID_20_" d="M13.5,97.501c-1.94,0-4.001-1.402-4.001-4.001V37.5c0-2.599,2.061-4.001,4.001-4.001H118.5
				c2.61,0,3.001,2.507,3.001,4.001V92.5c0,1.454-0.378,2.833-1.035,3.788c-0.381,0.554-1.032,1.213-1.966,1.213H13.5"/>
		</defs>
		<use xlink:href="#SVGID_20_"  overflow="visible" fill="#FFC000"/>
		<clipPath id="SVGID_21_">
			<use xlink:href="#SVGID_20_"  overflow="visible"/>
		</clipPath>
	</g>
	<g>
		<defs>
			<path id="SVGID_22_" d="M120.499,74.501v9H92.5v7c0,0.221-0.78,1-1.001,1H85.5c-0.221,0-1.001-0.779-1.001-1V78.5
				c-0.157-0.286-0.354-0.523-0.468-0.845c-0.632-1.74-0.948-3.372-0.948-5.004c0-2.056,0.504-4.107,1.523-6.357l0.425-0.927
				c0.767-1.664,1.638-3.55,2.642-6.724c0.019-0.071,1.958-7.46,1.958-7.46l0.045-0.139c1.471-4.519,1.964-6.53,5.824-6.543h24.999
				v2h-8.741l-2.462,4.132l11.057,0.065v1.027l-9.969,2.566l7.997,9.034l-12.285-6.85l-1.152,5.97l-2.431-5.521l-3.327,4.942
				l0.384-5.007l-9.57,3.145c-0.163,1.132-0.483,3.435-0.502,3.497h31v4.001h-23v7H120.499L120.499,74.501z M109.193,46.501h-3.639
				v3.649L109.193,46.501L109.193,46.501z M101.938,50.056l1.539-3.555h-5.133L101.938,50.056L101.938,50.056z M96.317,46.501H95.5
				c-1.964,0-1.912,0.706-3.418,5.332c0,0-0.002,0.008-0.003,0.011l5.957-0.506L96.317,46.501L96.317,46.501z M91.758,53.055
				c-0.372,1.415-0.995,3.794-1.362,5.189l7.128-3.376L91.758,53.055L91.758,53.055z M91.677,68.112h-2.461
				c-1.552,0-2.812,1.263-2.812,2.822c0,1.56,1.26,2.823,2.812,2.823h2.461c1.554,0,2.814-1.263,2.814-2.823
				C94.49,69.375,93.231,68.112,91.677,68.112L91.677,68.112z M77.181,91.168c-1.56-0.074-3.167,0.357-4.742,0.068
				c-0.53-0.097-0.811-0.447-1.279-0.644c-0.611-0.257-0.934-0.053-1.378-0.738c-0.344-0.53-0.299-1.2-0.212-1.832
				c0.09-0.661,0.202-1.363,0.305-2.035c0.052-0.331,0.262-0.636,0.326-0.969c0.076-0.404,0.018-0.85,0.142-1.253
				c0.149-0.484,0.389-1.021,0.869-1.174c0.543-0.171,1.14-0.018,1.704-0.212c0.643-0.22,1.291-0.548,1.953-0.672
				c1.376-0.26,3.405-0.518,4.771-0.171c1.113,1.36,0.09,3.528,0.16,5.206c0.027,0.675,0.171,1.366,0.388,2.011
				c0.221,0.657,0.672,1.239,0.507,1.977C80.334,92.342,78.214,91.216,77.181,91.168L77.181,91.168z M75.157,54.512
				c-0.069,1.013-0.181,1.799-0.652,2.707c-0.423,0.816-0.906,1.027-1.757,1.349c-0.338,0.128-0.347,0.045-0.48,0.383
				c-0.187,0.48,0.078,0.717-0.472,1.005c-0.333,0.174-0.577,0.212-0.845,0.399c-0.247,0.171-0.575,0.428-0.795,0.63
				c-0.215,0.199-0.368,0.727-0.661,0.809c-0.162,0.045-0.806-0.204-0.921-0.234c-0.693-0.178-1.601-0.368-2.247-0.673
				c-0.417-0.197-0.359-0.023-0.228-0.381c0.249-0.688,1.657-0.812,1.819-1.555c-0.661-0.218-1.951-0.46-2.095-1.231
				c-0.048-0.258,0.063-0.491,0.053-0.743c-0.037-1.064-1.352-0.791-1.643-1.793c-0.129-0.444-0.1-0.964-0.184-1.426
				c-0.039-0.218-0.192-0.52-0.057-0.748c0.162-0.271,0.565-0.288,0.806-0.489c0.355-0.304,0.409-0.803,0.649-1.103
				c0.246-0.31,0.42-0.149,0.748-0.279c0.25-0.1,0.275-0.215,0.465-0.431c0.378-0.428,0.67-0.37,1.242-0.37
				c0.971,0,0.585-0.221,0.906-1.008c0.27-0.657,0.893-1.129,1.281-1.722l0.213,0.053c0.808-0.173,0.78-0.712,1.589,0.057
				c0.46,0.434,1.121,1.147,1.72,1.444c0.722,0.357,1.924,0.26,2.298,1.19c0.275,0.675,0.118,2.059-0.168,2.712
				C75.509,53.601,75.201,53.869,75.157,54.512L75.157,54.512z M51.151,84.893l8.993-6.483l1.15,1.604L51.09,87.371l16.676-1.473
				l0.173,1.969l-20.252,1.788l-1.04-1.231L54.561,57.6l1.908,0.491l-6.356,24.76l13.638-21.598l1.664,1.058L51.151,84.893
				L51.151,84.893z M59.425,53.22c-0.129,0.352-0.144,0.594-0.216,0.955c-0.11,0.552,0.055,0.271-0.43,0.344
				c-0.493,0.074-0.841,0.255-1.318,0.367c-0.48,0.111-0.929,0.321-1.395,0.372c-0.738,0.081-1.504-0.099-2.25-0.107
				c-0.782-0.006-1.384-0.207-2.08-0.533c-1.205-0.564-2.071-1.5-1.862-2.948c0.036-0.239,0.142-0.365,0.212-0.585
				c0.065-0.197,0.058-0.42,0.121-0.632c0.142-0.483,0.606-0.738,0.856-1.135c0.344-0.551,0.15-0.707,0.84-0.895
				c0.583-0.16,0.819-0.257,1.027-0.806c0.176-0.462,0.162-0.874,0.667-1.071c0.312-0.121,0.701-0.089,1.035-0.223
				c0.344-0.137,0.627-0.347,1.003-0.378l0.853-0.375c0.535-0.326,1.395-0.029,1.843,0.325c0.56,0.444,0.565,1.118,0.812,1.765
				c0.236,0.62,0.683,1.27,0.796,1.959c0.09,0.548,0.09,1.294,0.058,1.846C59.963,52.047,59.627,52.676,59.425,53.22L59.425,53.22z
				 M46.499,78.5v12.001c0,0.221-0.78,1-1,1h-6c-0.22,0-1-0.779-1-1V81.5h-28V60.501h30c-0.026-0.082,0.273,0.008,0.246-0.076
				l-0.01-0.029c0,0-1.937-8.423-1.954-8.494c-0.01-0.031-0.023-0.069-0.023-0.069c-1.505-4.626-1.295-5.332-3.258-5.332H10.499v-2
				H35.5c3.859,0.013,4.193,2.024,5.664,6.543l0.045,0.139c0,0,1.938,7.389,1.956,7.46c1.005,3.174,1.877,5.06,2.644,6.724
				l0.425,0.927c1.019,2.25,1.523,4.301,1.523,6.357c0,1.631-0.318,3.264-0.948,5.004C46.693,77.977,46.658,78.214,46.499,78.5
				L46.499,78.5z M64.331,79.623c-0.365-0.252-0.662-0.673-0.895-1.029c-0.305-0.462-0.69-0.864-1.011-1.342
				c-0.709-1.051-1.124-2.366-0.483-3.544c0.772-1.421,1.572-2.578,1.974-4.162c0.153-0.606,0.36-0.677,0.995-0.695
				c0.531-0.016,1.442-0.12,1.82,0.266l-0.267-0.107c0.436,0.299,1.156,0.56,1.652,0.738c0.577,0.21,1.093,0.56,1.71,0.599
				c1.106,0.069,2.571-0.446,2.345,1.286c-0.048,0.376-0.163,0.809-0.263,1.176c-0.163,0.606-0.578,0.946-0.643,1.554
				c-0.063,0.58,0.052,0.961-0.226,1.492c-0.22,0.42-0.677,0.612-0.885,0.982c-0.141,0.252-0.126,0.672-0.208,0.964
				c-0.234,0.832-0.102,2.886-1.084,3.148c-0.573,0.152-1.473-0.126-2.051-0.267C65.825,80.443,65.104,80.151,64.331,79.623
				L64.331,79.623z"/>
		</defs>
		<use xlink:href="#SVGID_22_"  overflow="visible" fill-rule="evenodd" clip-rule="evenodd"/>
		<clipPath id="SVGID_23_">
			<use xlink:href="#SVGID_22_"  overflow="visible"/>
		</clipPath>
	</g>
	<linearGradient id="SVGID_24_" gradientUnits="userSpaceOnUse" x1="100.6914" y1="115.7589" x2="30.3083" y2="15.2414">
		<stop  offset="0" style="stop-color:#000000;stop-opacity:0"/>
		<stop  offset="1" style="stop-color:#FFFFFF;stop-opacity:0.25"/>
	</linearGradient>
	<path fill-rule="evenodd" clip-rule="evenodd" fill="url(#SVGID_24_)" d="M11.499,29.5h108c3.046,0,6,3.104,6,7v58
		c0,3.897-2.954,7-6,7h-108c-3.045,0-5.999-3.103-5.999-7v-58C5.5,32.604,8.454,29.5,11.499,29.5L11.499,29.5z"/>
</g>
</svg>
