<?xml version="1.0" encoding="utf-8"?>
<!-- Generator: Adobe Illustrator 17.0.1, SVG Export Plug-In . SVG Version: 6.00 Build 0)  -->
<!DOCTYPE svg PUBLIC "-//W3C//DTD SVG 1.1//EN" "http://www.w3.org/Graphics/SVG/1.1/DTD/svg11.dtd">
<svg version="1.1" xmlns="http://www.w3.org/2000/svg" xmlns:xlink="http://www.w3.org/1999/xlink" x="0px" y="0px" width="132px"
	 height="132px" viewBox="0 0 132 132" enable-background="new 0 0 132 132" xml:space="preserve">
<g id="disabled">
	<g>
		<defs>
			<path id="SVGID_1_" d="M72.496,5.559l54.946,54.946c3.339,3.339,3.339,8.756,0,12.095l-54.842,54.842
				c-3.339,3.339-8.755,3.339-12.095,0L5.56,72.497c-3.341-3.339-3.341-8.755,0-12.095L60.4,5.559
				C63.741,2.218,69.157,2.218,72.496,5.559L72.496,5.559z"/>
		</defs>
		<defs>
			<path id="SVGID_2_" d="M71.496,4.559l54.946,54.946c3.339,3.339,3.339,8.756,0,12.095l-54.842,54.842
				c-3.339,3.339-8.755,3.339-12.095,0L4.56,71.497c-3.341-3.339-3.341-8.755,0-12.095L59.4,4.559
				C62.741,1.218,68.157,1.218,71.496,4.559L71.496,4.559z"/>
		</defs>
		<linearGradient id="SVGID_3_" gradientUnits="userSpaceOnUse" x1="3.054" y1="66.5" x2="129.946" y2="66.5">
			<stop  offset="0" style="stop-color:#000000;stop-opacity:0.6"/>
			<stop  offset="1" style="stop-color:#000000;stop-opacity:0.6"/>
		</linearGradient>
		<use xlink:href="#SVGID_1_"  overflow="visible" fill-rule="evenodd" clip-rule="evenodd" fill="url(#SVGID_3_)"/>
		<use xlink:href="#SVGID_2_"  overflow="visible" fill="#BEBEBE"/>
		<clipPath id="SVGID_4_">
			<use xlink:href="#SVGID_1_"  overflow="visible"/>
		</clipPath>
		<clipPath id="SVGID_5_" clip-path="url(#SVGID_4_)">
			<use xlink:href="#SVGID_2_"  overflow="visible"/>
		</clipPath>
	</g>
	<g>
		<defs>
			<path id="SVGID_6_" d="M34.146,59.842c-0.82-0.614-1.853-0.919-3.096-0.919c-1.429,0-2.625,0.339-3.584,1.019
				c-0.961,0.68-1.636,1.593-2.025,2.738c-0.389,1.147-0.583,2.327-0.583,3.545c0,1.568,0.231,2.94,0.691,4.109
				c0.462,1.171,1.177,2.046,2.151,2.626c0.972,0.578,2.025,0.869,3.159,0.869c1.379,0,2.547-0.396,3.503-1.184
				c0.956-0.79,1.604-1.959,1.941-3.513l2.463,0.617c-0.517,2.006-1.446,3.536-2.786,4.589c-1.341,1.053-2.98,1.58-4.918,1.58
				c-2.004,0-3.636-0.404-4.892-1.215c-1.257-0.809-2.213-1.982-2.868-3.518c-0.656-1.536-0.984-3.185-0.984-4.949
				c0-1.922,0.371-3.599,1.111-5.03c0.74-1.431,1.793-2.518,3.159-3.259c1.366-0.743,2.87-1.114,4.513-1.114
				c1.861,0,3.426,0.47,4.695,1.41c1.27,0.94,2.153,2.261,2.652,3.965l-2.424,0.567C35.594,61.432,34.967,60.455,34.146,59.842
				L34.146,59.842z M51.471,67.207c0.651,0.31,1.145,0.615,1.484,0.919c0.719,0.654,1.4,1.473,2.043,2.453l3.237,5.025h-3.098
				l-2.461-3.841c-0.719-1.108-1.312-1.956-1.777-2.542c-0.465-0.588-0.882-1-1.25-1.234c-0.368-0.236-0.741-0.399-1.123-0.491
				c-0.279-0.058-0.737-0.089-1.371-0.089h-2.856v8.197h-2.461V57.148h8.249c1.659,0,2.919,0.165,3.783,0.496
				c0.863,0.333,1.552,0.917,2.067,1.757c0.517,0.84,0.775,1.767,0.775,2.781c0,1.31-0.428,2.413-1.282,3.311
				C54.575,66.393,53.255,66.964,51.471,67.207L51.471,67.207z M53.215,60.031c-0.64-0.562-1.647-0.845-3.027-0.845h-5.889v6.107
				h5.293c1.124,0,2.004-0.116,2.639-0.347c0.635-0.229,1.118-0.599,1.447-1.108c0.329-0.507,0.494-1.06,0.494-1.656
				C54.173,61.311,53.854,60.593,53.215,60.031L53.215,60.031z M74.504,73.426v2.179H60.62V57.148h13.453v2.177H63.082v5.653h10.292
				v2.166H63.082v6.281H74.504L74.504,73.426z M87.671,59.88c-0.732-0.596-1.814-0.893-3.243-0.893c-1.489,0-2.575,0.27-3.255,0.811
				c-0.682,0.543-1.022,1.195-1.022,1.958c0,0.664,0.242,1.21,0.724,1.638c0.473,0.428,1.71,0.866,3.712,1.315
				c2.001,0.449,3.374,0.841,4.119,1.177c1.084,0.496,1.883,1.123,2.398,1.882c0.517,0.761,0.774,1.635,0.774,2.626
				c0,0.982-0.283,1.906-0.85,2.775c-0.567,0.869-1.381,1.544-2.444,2.027c-1.061,0.483-2.256,0.724-3.584,0.724
				c-1.685,0-3.095-0.242-4.233-0.73c-1.137-0.486-2.03-1.218-2.678-2.197c-0.646-0.977-0.987-2.084-1.021-3.318l2.323-0.2
				c0.11,0.922,0.365,1.68,0.767,2.271c0.402,0.593,1.026,1.071,1.872,1.436c0.846,0.365,1.798,0.548,2.856,0.548
				c0.938,0,1.769-0.139,2.487-0.415c0.719-0.278,1.255-0.657,1.605-1.139c0.35-0.483,0.527-1.009,0.527-1.581
				c0-0.578-0.17-1.084-0.507-1.517c-0.339-0.433-0.898-0.795-1.675-1.089c-0.501-0.194-1.604-0.493-3.313-0.901
				c-1.709-0.407-2.906-0.79-3.592-1.152c-0.888-0.46-1.551-1.034-1.985-1.719c-0.436-0.683-0.654-1.449-0.654-2.297
				c0-0.932,0.266-1.803,0.8-2.613c0.533-0.809,1.312-1.425,2.335-1.845c1.022-0.418,2.161-0.628,3.413-0.628
				c1.379,0,2.596,0.22,3.649,0.661c1.053,0.441,1.864,1.089,2.431,1.945c0.567,0.856,0.871,1.825,0.914,2.909l-2.361,0.176
				C88.832,61.357,88.403,60.476,87.671,59.88L87.671,59.88z M102.437,59.326v16.279h-2.463V59.326h-6.129v-2.177h14.746v2.177
				H102.437L102.437,59.326z"/>
		</defs>
		<use xlink:href="#SVGID_6_"  overflow="visible" fill-rule="evenodd" clip-rule="evenodd"/>
		<clipPath id="SVGID_7_">
			<use xlink:href="#SVGID_6_"  overflow="visible"/>
		</clipPath>
		
			<use xlink:href="#SVGID_6_"  overflow="visible" fill-rule="evenodd" clip-rule="evenodd" fill="none" stroke="#000000" stroke-width="0.5" stroke-miterlimit="10"/>
	</g>
	<path fill-rule="evenodd" clip-rule="evenodd" d="M123.833,59.761L71.24,7.169c-3.198-3.198-8.381-3.198-11.579,0L7.169,59.661
		c-3.198,3.198-3.198,8.383,0,11.579l52.593,52.593c3.196,3.196,8.381,3.196,11.577,0l52.494-52.494
		C127.029,68.142,127.029,62.958,123.833,59.761z M121.712,69.218l-52.494,52.494c-0.979,0.979-2.282,1.519-3.667,1.519
		c-1.386,0-2.688-0.539-3.668-1.519L9.29,69.119c-0.98-0.979-1.52-2.282-1.52-3.667c0-1.386,0.54-2.689,1.52-3.669L61.782,9.29
		c0.98-0.98,2.283-1.52,3.668-1.52c1.385,0,2.688,0.54,3.668,1.52l52.593,52.592C123.733,63.905,123.733,67.195,121.712,69.218z"/>
	<linearGradient id="SVGID_8_" gradientUnits="userSpaceOnUse" x1="96.2154" y1="109.3663" x2="34.7849" y2="21.6343">
		<stop  offset="0" style="stop-color:#000000;stop-opacity:0"/>
		<stop  offset="1" style="stop-color:#FFFFFF;stop-opacity:0.25"/>
	</linearGradient>
	<path fill-rule="evenodd" clip-rule="evenodd" fill="url(#SVGID_8_)" d="M71.496,4.559l54.946,54.946
		c3.339,3.339,3.339,8.756,0,12.095l-54.842,54.842c-3.339,3.339-8.755,3.339-12.095,0L4.56,71.497
		c-3.341-3.339-3.341-8.755,0-12.095L59.4,4.559C62.741,1.218,68.157,1.218,71.496,4.559L71.496,4.559z"/>
</g>
<g id="normal">
	<g>
		<defs>
			<path id="SVGID_9_" d="M72.496,5.559l54.946,54.946c3.339,3.339,3.339,8.756,0,12.095l-54.842,54.842
				c-3.339,3.339-8.755,3.339-12.095,0L5.56,72.497c-3.341-3.339-3.341-8.755,0-12.095L60.4,5.559
				C63.741,2.218,69.157,2.218,72.496,5.559L72.496,5.559z"/>
		</defs>
		<defs>
			<path id="SVGID_10_" d="M71.496,4.559l54.946,54.946c3.339,3.339,3.339,8.756,0,12.095l-54.842,54.842
				c-3.339,3.339-8.755,3.339-12.095,0L4.56,71.497c-3.341-3.339-3.341-8.755,0-12.095L59.4,4.559
				C62.741,1.218,68.157,1.218,71.496,4.559L71.496,4.559z"/>
		</defs>
		<linearGradient id="SVGID_11_" gradientUnits="userSpaceOnUse" x1="3.054" y1="66.5" x2="129.946" y2="66.5">
			<stop  offset="0" style="stop-color:#000000;stop-opacity:0.6"/>
			<stop  offset="1" style="stop-color:#000000;stop-opacity:0.6"/>
		</linearGradient>
		<use xlink:href="#SVGID_9_"  overflow="visible" fill-rule="evenodd" clip-rule="evenodd" fill="url(#SVGID_11_)"/>
		<use xlink:href="#SVGID_10_"  overflow="visible" fill="#FFC000"/>
		<clipPath id="SVGID_12_">
			<use xlink:href="#SVGID_9_"  overflow="visible"/>
		</clipPath>
		<clipPath id="SVGID_13_" clip-path="url(#SVGID_12_)">
			<use xlink:href="#SVGID_10_"  overflow="visible"/>
		</clipPath>
	</g>
	<g>
		<defs>
			<path id="SVGID_14_" d="M34.146,59.842c-0.82-0.614-1.853-0.919-3.096-0.919c-1.429,0-2.625,0.339-3.584,1.019
				c-0.961,0.68-1.636,1.593-2.025,2.738c-0.389,1.147-0.583,2.327-0.583,3.545c0,1.568,0.231,2.94,0.691,4.109
				c0.462,1.171,1.177,2.046,2.151,2.626c0.972,0.578,2.025,0.869,3.159,0.869c1.379,0,2.547-0.396,3.503-1.184
				c0.956-0.79,1.604-1.959,1.941-3.513l2.463,0.617c-0.517,2.006-1.446,3.536-2.786,4.589c-1.341,1.053-2.98,1.58-4.918,1.58
				c-2.004,0-3.636-0.404-4.892-1.215c-1.257-0.809-2.213-1.982-2.868-3.518c-0.656-1.536-0.984-3.185-0.984-4.949
				c0-1.922,0.371-3.599,1.111-5.03c0.74-1.431,1.793-2.518,3.159-3.259c1.366-0.743,2.87-1.114,4.513-1.114
				c1.861,0,3.426,0.47,4.695,1.41c1.27,0.94,2.153,2.261,2.652,3.965l-2.424,0.567C35.594,61.432,34.967,60.455,34.146,59.842
				L34.146,59.842z M51.471,67.207c0.651,0.31,1.145,0.615,1.484,0.919c0.719,0.654,1.4,1.473,2.043,2.453l3.237,5.025h-3.098
				l-2.461-3.841c-0.719-1.108-1.312-1.956-1.777-2.542c-0.465-0.588-0.882-1-1.25-1.234c-0.368-0.236-0.741-0.399-1.123-0.491
				c-0.279-0.058-0.737-0.089-1.371-0.089h-2.856v8.197h-2.461V57.148h8.249c1.659,0,2.919,0.165,3.783,0.496
				c0.863,0.333,1.552,0.917,2.067,1.757c0.517,0.84,0.775,1.767,0.775,2.781c0,1.31-0.428,2.413-1.282,3.311
				C54.575,66.393,53.255,66.964,51.471,67.207L51.471,67.207z M53.215,60.031c-0.64-0.562-1.647-0.845-3.027-0.845h-5.889v6.107
				h5.293c1.124,0,2.004-0.116,2.639-0.347c0.635-0.229,1.118-0.599,1.447-1.108c0.329-0.507,0.494-1.06,0.494-1.656
				C54.173,61.311,53.854,60.593,53.215,60.031L53.215,60.031z M74.504,73.426v2.179H60.62V57.148h13.453v2.177H63.082v5.653h10.292
				v2.166H63.082v6.281H74.504L74.504,73.426z M87.671,59.88c-0.732-0.596-1.814-0.893-3.243-0.893c-1.489,0-2.575,0.27-3.255,0.811
				c-0.682,0.543-1.022,1.195-1.022,1.958c0,0.664,0.242,1.21,0.724,1.638c0.473,0.428,1.71,0.866,3.712,1.315
				c2.001,0.449,3.374,0.841,4.119,1.177c1.084,0.496,1.883,1.123,2.398,1.882c0.517,0.761,0.774,1.635,0.774,2.626
				c0,0.982-0.283,1.906-0.85,2.775c-0.567,0.869-1.381,1.544-2.444,2.027c-1.061,0.483-2.256,0.724-3.584,0.724
				c-1.685,0-3.095-0.242-4.233-0.73c-1.137-0.486-2.03-1.218-2.678-2.197c-0.646-0.977-0.987-2.084-1.021-3.318l2.323-0.2
				c0.11,0.922,0.365,1.68,0.767,2.271c0.402,0.593,1.026,1.071,1.872,1.436c0.846,0.365,1.798,0.548,2.856,0.548
				c0.938,0,1.769-0.139,2.487-0.415c0.719-0.278,1.255-0.657,1.605-1.139c0.35-0.483,0.527-1.009,0.527-1.581
				c0-0.578-0.17-1.084-0.507-1.517c-0.339-0.433-0.898-0.795-1.675-1.089c-0.501-0.194-1.604-0.493-3.313-0.901
				c-1.709-0.407-2.906-0.79-3.592-1.152c-0.888-0.46-1.551-1.034-1.985-1.719c-0.436-0.683-0.654-1.449-0.654-2.297
				c0-0.932,0.266-1.803,0.8-2.613c0.533-0.809,1.312-1.425,2.335-1.845c1.022-0.418,2.161-0.628,3.413-0.628
				c1.379,0,2.596,0.22,3.649,0.661c1.053,0.441,1.864,1.089,2.431,1.945c0.567,0.856,0.871,1.825,0.914,2.909l-2.361,0.176
				C88.832,61.357,88.403,60.476,87.671,59.88L87.671,59.88z M102.437,59.326v16.279h-2.463V59.326h-6.129v-2.177h14.746v2.177
				H102.437L102.437,59.326z"/>
		</defs>
		<use xlink:href="#SVGID_14_"  overflow="visible" fill-rule="evenodd" clip-rule="evenodd"/>
		<clipPath id="SVGID_15_">
			<use xlink:href="#SVGID_14_"  overflow="visible"/>
		</clipPath>
		
			<use xlink:href="#SVGID_14_"  overflow="visible" fill-rule="evenodd" clip-rule="evenodd" fill="none" stroke="#000000" stroke-width="0.5" stroke-miterlimit="10"/>
	</g>
	<path fill-rule="evenodd" clip-rule="evenodd" d="M123.833,59.761L71.24,7.169c-3.198-3.198-8.381-3.198-11.579,0L7.169,59.661
		c-3.198,3.198-3.198,8.383,0,11.579l52.593,52.593c3.196,3.196,8.381,3.196,11.577,0l52.494-52.494
		C127.029,68.142,127.029,62.958,123.833,59.761z M121.712,69.218l-52.494,52.494c-0.979,0.979-2.282,1.519-3.667,1.519
		c-1.386,0-2.688-0.539-3.668-1.519L9.29,69.119c-0.98-0.979-1.52-2.282-1.52-3.667c0-1.386,0.54-2.689,1.52-3.669L61.782,9.29
		c0.98-0.98,2.283-1.52,3.668-1.52c1.385,0,2.688,0.54,3.668,1.52l52.593,52.592C123.733,63.905,123.733,67.195,121.712,69.218z"/>
	<linearGradient id="SVGID_16_" gradientUnits="userSpaceOnUse" x1="96.2154" y1="109.3663" x2="34.7849" y2="21.6343">
		<stop  offset="0" style="stop-color:#000000;stop-opacity:0"/>
		<stop  offset="1" style="stop-color:#FFFFFF;stop-opacity:0.25"/>
	</linearGradient>
	<path fill-rule="evenodd" clip-rule="evenodd" fill="url(#SVGID_16_)" d="M71.496,4.559l54.946,54.946
		c3.339,3.339,3.339,8.756,0,12.095l-54.842,54.842c-3.339,3.339-8.755,3.339-12.095,0L4.56,71.497
		c-3.341-3.339-3.341-8.755,0-12.095L59.4,4.559C62.741,1.218,68.157,1.218,71.496,4.559L71.496,4.559z"/>
</g>
</svg>
