<?xml version="1.0" encoding="utf-8"?>
<!-- Generator: Adobe Illustrator 17.0.1, SVG Export Plug-In . SVG Version: 6.00 Build 0)  -->
<!DOCTYPE svg PUBLIC "-//W3C//DTD SVG 1.1//EN" "http://www.w3.org/Graphics/SVG/1.1/DTD/svg11.dtd">
<svg version="1.1" xmlns="http://www.w3.org/2000/svg" xmlns:xlink="http://www.w3.org/1999/xlink" x="0px" y="0px" width="132px"
	 height="132px" viewBox="0 0 132 132" enable-background="new 0 0 132 132" xml:space="preserve">
<g id="disabled">
	<g>
		<defs>
			<path id="SVGID_1_" d="M10.999,27.999h110.002c3.581,0,6.998,3.419,6.998,7v54.999c0,3.581-3.418,7-6.998,7H10.999
				c-3.581,0-6.998-3.419-6.998-7V34.999C4.001,31.418,7.418,27.999,10.999,27.999L10.999,27.999z"/>
		</defs>
		<use xlink:href="#SVGID_1_"  overflow="visible" fill="#565656"/>
		<clipPath id="SVGID_2_">
			<use xlink:href="#SVGID_1_"  overflow="visible"/>
		</clipPath>
	</g>
	<g>
		<defs>
			<path id="SVGID_3_" d="M10.999,29.998h110.002c2.507,0,4.999,2.494,4.999,5v54.999c0,2.507-2.492,5-4.999,5H10.999
				c-2.507,0-4.999-2.494-4.999-5V34.999C6,32.492,8.493,29.998,10.999,29.998L10.999,29.998z"/>
		</defs>
		<use xlink:href="#SVGID_3_"  overflow="visible" fill="#C6C6C6"/>
		<clipPath id="SVGID_4_">
			<use xlink:href="#SVGID_3_"  overflow="visible"/>
		</clipPath>
	</g>
	<g>
		<defs>
			<path id="SVGID_5_" d="M10.999,92.999C9.597,92.999,8,91.4,8,89.998V34.999c0-1.402,1.597-3.001,2.999-3.001h110.002
				c1.402,0,2.999,1.599,2.999,3.001v54.999c0,1.402-1.597,3.001-2.999,3.001H10.999"/>
		</defs>
		<use xlink:href="#SVGID_5_"  overflow="visible" fill="#565656"/>
		<clipPath id="SVGID_6_">
			<use xlink:href="#SVGID_5_"  overflow="visible"/>
		</clipPath>
	</g>
	<g>
		<g>
			<path fill="#C6C6C6" d="M32.306,55.127c1.055,0.667,2.282,1.001,3.684,1.001c1.665,0,3.02-0.454,4.067-1.36
				s1.57-2.148,1.57-3.726c0-0.98-0.249-1.877-0.746-2.689c-0.497-0.812-1.475-1.426-2.931-1.843l-2.405-0.682
				c-1.312-0.37-1.969-1.013-1.969-1.93c0-0.581,0.21-1.06,0.627-1.438c0.418-0.376,1.024-0.564,1.819-0.564
				c1.368,0,2.239,0.607,2.612,1.823l2.424-0.682c-0.262-1.106-0.872-1.962-1.828-2.566c-0.956-0.604-2.043-0.906-3.259-0.906
				c-1.465,0-2.667,0.433-3.605,1.3c-0.94,0.867-1.41,2.019-1.41,3.455c0,0.722,0.132,1.4,0.399,2.037
				c0.267,0.635,0.62,1.127,1.063,1.476c0.441,0.35,1.126,0.662,2.051,0.937l2.705,0.799c0.725,0.213,1.198,0.506,1.418,0.877
				c0.221,0.373,0.333,0.78,0.333,1.219c0,0.604-0.244,1.11-0.732,1.518c-0.486,0.407-1.182,0.612-2.087,0.612
				c-1.983,0-3.124-0.796-3.419-2.39l-2.478,0.601C30.554,53.42,31.253,54.46,32.306,55.127L32.306,55.127z"/>
			<polygon fill="#C6C6C6" points="51.732,56.259 51.732,41.821 56.503,41.821 56.503,39.89 45.079,39.89 45.079,41.821 
				49.826,41.821 49.826,56.259 51.732,56.259 			"/>
			<path fill="#C6C6C6" d="M60.313,56.259l1.567-4.957h6.062l1.677,4.957H71.8l-5.902-16.37H63.86l-5.558,16.37H60.313
				L60.313,56.259z M64.039,44.735c0.341-1.034,0.604-2.077,0.79-3.125c0.216,0.871,0.556,2.003,1.019,3.393l1.497,4.534h-4.908
				L64.039,44.735L64.039,44.735z"/>
			<path fill="#C6C6C6" d="M77.854,56.259v-7.268h2.205c0.638,0,1.135,0.079,1.491,0.241c0.355,0.16,0.722,0.472,1.102,0.934
				c0.378,0.462,0.94,1.358,1.685,2.691l1.922,3.403h2.398l-2.518-4.455c-0.431-0.767-0.93-1.463-1.499-2.088
				c-0.279-0.307-0.686-0.611-1.223-0.909c1.32-0.208,2.324-0.696,3.015-1.463c0.691-0.766,1.037-1.767,1.037-3.001
				c0-0.938-0.204-1.762-0.612-2.473c-0.407-0.711-0.929-1.218-1.563-1.523c-0.636-0.305-1.62-0.457-2.956-0.457h-6.39v16.37H77.854
				L77.854,56.259z M77.854,41.699h4.556c1.022,0,1.794,0.236,2.313,0.709c0.52,0.473,0.78,1.122,0.78,1.948
				c0,0.573-0.137,1.076-0.409,1.509c-0.271,0.431-0.64,0.748-1.103,0.948c-0.464,0.202-1.142,0.302-2.037,0.302h-4.101V41.699
				L77.854,41.699z"/>
			<polygon fill="#C6C6C6" points="97.76,56.259 97.76,41.821 102.531,41.821 102.531,39.89 91.108,39.89 91.108,41.821 
				95.854,41.821 95.854,56.259 97.76,56.259 			"/>
			<polygon fill="#C6C6C6" points="21.257,82.89 21.257,68.895 26.028,68.895 26.028,67.023 14.604,67.023 14.604,68.895 
				19.351,68.895 19.351,82.89 21.257,82.89 			"/>
			<path fill="#C6C6C6" d="M28.952,80.648c1.139,1.675,2.641,2.512,4.51,2.512c1.854,0,3.355-0.816,4.5-2.445
				c1.04-1.479,1.559-3.395,1.559-5.748c0-1.709-0.268-3.183-0.806-4.421c-0.536-1.237-1.266-2.18-2.185-2.83
				c-0.921-0.649-1.94-0.974-3.056-0.974c-1.728,0-3.172,0.727-4.332,2.18c-1.158,1.454-1.738,3.534-1.738,6.239
				C27.403,77.305,27.92,79.133,28.952,80.648L28.952,80.648L28.952,80.648z M30.358,70.162c0.819-1.084,1.859-1.625,3.124-1.625
				c0.787,0,1.512,0.247,2.176,0.741c0.664,0.496,1.161,1.155,1.492,1.977c0.428,1.077,0.643,2.297,0.643,3.662
				c0,2.116-0.417,3.72-1.25,4.81c-0.832,1.09-1.862,1.636-3.091,1.636c-1.202,0-2.222-0.541-3.061-1.62
				c-0.84-1.079-1.26-2.597-1.26-4.555C29.131,72.921,29.54,71.246,30.358,70.162L30.358,70.162z"/>
			<polygon fill="#C6C6C6" points="54.235,82.89 54.235,81.016 46.728,81.016 46.728,67.023 44.712,67.023 44.712,82.89 
				54.235,82.89 			"/>
			<polygon fill="#C6C6C6" points="68.5,82.89 68.5,81.016 60.993,81.016 60.993,67.023 58.977,67.023 58.977,82.89 68.5,82.89 			
				"/>
			<path fill="#C6C6C6" d="M76.074,82.89l2.463-12.091c0.115-0.548,0.228-1.168,0.338-1.861l0.367,1.861l2.453,12.091h1.476
				l3.192-15.867h-1.546L82.99,77.217c-0.233,1.27-0.423,2.421-0.57,3.453c-0.2-1.79-0.501-3.662-0.906-5.617l-1.656-8.031h-1.865
				l-2.21,10.715l-0.522,2.933c-0.142-1.097-0.305-2.179-0.493-3.248l-1.77-10.4h-1.572L74.52,82.89H76.074L76.074,82.89z"/>
			<path fill="#C6C6C6" d="M90.499,82.89l1.491-4.807h5.769l1.596,4.807h2.075l-5.616-15.867h-1.94l-5.29,15.867H90.499
				L90.499,82.89z M94.045,71.719c0.323-1.003,0.575-2.013,0.751-3.03c0.205,0.843,0.528,1.94,0.969,3.29l1.426,4.393h-4.673
				L94.045,71.719L94.045,71.719z"/>
			<path fill="#C6C6C6" d="M110.948,82.89v-6.722l6.21-9.145h-2.377l-3.022,4.669c-0.674,1.04-1.239,1.975-1.698,2.806
				c-0.457-0.845-0.988-1.74-1.591-2.686l-3.056-4.789h-2.513l5.991,9.145v6.722H110.948L110.948,82.89z"/>
		</g>
		<g>
			<polygon fill="#C6C6C6" stroke="#C6C6C6" stroke-width="0.5" stroke-miterlimit="10" points="51.732,56.259 51.732,41.821 
				56.503,41.821 56.503,39.89 45.079,39.89 45.079,41.821 49.826,41.821 49.826,56.259 51.732,56.259 			"/>
			<path fill="#C6C6C6" stroke="#C6C6C6" stroke-width="0.5" stroke-miterlimit="10" d="M60.313,56.259l1.567-4.957h6.062
				l1.677,4.957H71.8l-5.902-16.37H63.86l-5.558,16.37H60.313L60.313,56.259z M64.039,44.735c0.341-1.034,0.604-2.077,0.79-3.125
				c0.216,0.871,0.556,2.003,1.019,3.393l1.497,4.534h-4.908L64.039,44.735L64.039,44.735z"/>
			<path fill="#C6C6C6" stroke="#C6C6C6" stroke-width="0.5" stroke-miterlimit="10" d="M77.854,56.259v-7.268h2.205
				c0.638,0,1.135,0.079,1.491,0.241c0.355,0.16,0.722,0.472,1.102,0.934c0.378,0.462,0.94,1.358,1.685,2.691l1.922,3.403h2.398
				l-2.518-4.455c-0.431-0.767-0.93-1.463-1.499-2.088c-0.279-0.307-0.686-0.611-1.223-0.909c1.32-0.208,2.324-0.696,3.015-1.463
				c0.691-0.766,1.037-1.767,1.037-3.001c0-0.938-0.204-1.762-0.612-2.473c-0.407-0.711-0.929-1.218-1.563-1.523
				c-0.636-0.305-1.62-0.457-2.956-0.457h-6.39v16.37H77.854L77.854,56.259z M77.854,41.699h4.556c1.022,0,1.794,0.236,2.313,0.709
				c0.52,0.473,0.78,1.122,0.78,1.948c0,0.573-0.137,1.076-0.409,1.509c-0.271,0.431-0.64,0.748-1.103,0.948
				c-0.464,0.202-1.142,0.302-2.037,0.302h-4.101V41.699L77.854,41.699z"/>
			<polygon fill="#C6C6C6" stroke="#C6C6C6" stroke-width="0.5" stroke-miterlimit="10" points="97.76,56.259 97.76,41.821 
				102.531,41.821 102.531,39.89 91.108,39.89 91.108,41.821 95.854,41.821 95.854,56.259 97.76,56.259 			"/>
			<polygon fill="#C6C6C6" stroke="#C6C6C6" stroke-width="0.5" stroke-miterlimit="10" points="21.257,82.89 21.257,68.895 
				26.028,68.895 26.028,67.023 14.604,67.023 14.604,68.895 19.351,68.895 19.351,82.89 21.257,82.89 			"/>
			<path fill="#C6C6C6" stroke="#C6C6C6" stroke-width="0.5" stroke-miterlimit="10" d="M28.952,80.648
				c1.139,1.675,2.641,2.512,4.51,2.512c1.854,0,3.355-0.816,4.5-2.445c1.04-1.479,1.559-3.395,1.559-5.748
				c0-1.709-0.268-3.183-0.806-4.421c-0.536-1.237-1.266-2.18-2.185-2.83c-0.921-0.649-1.94-0.974-3.056-0.974
				c-1.728,0-3.172,0.727-4.332,2.18c-1.158,1.454-1.738,3.534-1.738,6.239C27.403,77.305,27.92,79.133,28.952,80.648L28.952,80.648
				L28.952,80.648z M30.358,70.162c0.819-1.084,1.859-1.625,3.124-1.625c0.787,0,1.512,0.247,2.176,0.741
				c0.664,0.496,1.161,1.155,1.492,1.977c0.428,1.077,0.643,2.297,0.643,3.662c0,2.116-0.417,3.72-1.25,4.81
				c-0.832,1.09-1.862,1.636-3.091,1.636c-1.202,0-2.222-0.541-3.061-1.62c-0.84-1.079-1.26-2.597-1.26-4.555
				C29.131,72.921,29.54,71.246,30.358,70.162L30.358,70.162z"/>
			<polygon fill="#C6C6C6" stroke="#C6C6C6" stroke-width="0.5" stroke-miterlimit="10" points="54.235,82.89 54.235,81.016 
				46.728,81.016 46.728,67.023 44.712,67.023 44.712,82.89 54.235,82.89 			"/>
			<polygon fill="#C6C6C6" stroke="#C6C6C6" stroke-width="0.5" stroke-miterlimit="10" points="68.5,82.89 68.5,81.016 
				60.993,81.016 60.993,67.023 58.977,67.023 58.977,82.89 68.5,82.89 			"/>
			<path fill="#C6C6C6" stroke="#C6C6C6" stroke-width="0.5" stroke-miterlimit="10" d="M76.074,82.89l2.463-12.091
				c0.115-0.548,0.228-1.168,0.338-1.861l0.367,1.861l2.453,12.091h1.476l3.192-15.867h-1.546L82.99,77.217
				c-0.233,1.27-0.423,2.421-0.57,3.453c-0.2-1.79-0.501-3.662-0.906-5.617l-1.656-8.031h-1.865l-2.21,10.715l-0.522,2.933
				c-0.142-1.097-0.305-2.179-0.493-3.248l-1.77-10.4h-1.572L74.52,82.89H76.074L76.074,82.89z"/>
			<path fill="#C6C6C6" stroke="#C6C6C6" stroke-width="0.5" stroke-miterlimit="10" d="M90.499,82.89l1.491-4.807h5.769
				l1.596,4.807h2.075l-5.616-15.867h-1.94l-5.29,15.867H90.499L90.499,82.89z M94.045,71.719c0.323-1.003,0.575-2.013,0.751-3.03
				c0.205,0.843,0.528,1.94,0.969,3.29l1.426,4.393h-4.673L94.045,71.719L94.045,71.719z"/>
			<path fill="#C6C6C6" stroke="#C6C6C6" stroke-width="0.5" stroke-miterlimit="10" d="M110.948,82.89v-6.722l6.21-9.145h-2.377
				l-3.022,4.669c-0.674,1.04-1.239,1.975-1.698,2.806c-0.457-0.845-0.988-1.74-1.591-2.686l-3.056-4.789h-2.513l5.991,9.145v6.722
				H110.948L110.948,82.89z"/>
		</g>
	</g>
</g>
<g id="normal">
	<g>
		<defs>
			<path id="SVGID_7_" d="M10.999,27.999h110.002c3.581,0,6.998,3.419,6.998,7v54.999c0,3.581-3.418,7-6.998,7H10.999
				c-3.581,0-6.998-3.419-6.998-7V34.999C4.001,31.418,7.418,27.999,10.999,27.999L10.999,27.999z"/>
		</defs>
		<use xlink:href="#SVGID_7_"  overflow="visible" fill="#2F5BAA"/>
		<clipPath id="SVGID_8_">
			<use xlink:href="#SVGID_7_"  overflow="visible"/>
		</clipPath>
	</g>
	<g>
		<defs>
			<path id="SVGID_9_" d="M10.999,29.998h110.002c2.507,0,4.999,2.494,4.999,5v54.999c0,2.507-2.492,5-4.999,5H10.999
				c-2.507,0-4.999-2.494-4.999-5V34.999C6,32.492,8.493,29.998,10.999,29.998L10.999,29.998z"/>
		</defs>
		<use xlink:href="#SVGID_9_"  overflow="visible" fill="#F4C452"/>
		<clipPath id="SVGID_10_">
			<use xlink:href="#SVGID_9_"  overflow="visible"/>
		</clipPath>
	</g>
	<g>
		<defs>
			<path id="SVGID_11_" d="M10.999,92.999C9.597,92.999,8,91.4,8,89.998V34.999c0-1.402,1.597-3.001,2.999-3.001h110.002
				c1.402,0,2.999,1.599,2.999,3.001v54.999c0,1.402-1.597,3.001-2.999,3.001H10.999"/>
		</defs>
		<use xlink:href="#SVGID_11_"  overflow="visible" fill="#2F5BAA"/>
		<clipPath id="SVGID_12_">
			<use xlink:href="#SVGID_11_"  overflow="visible"/>
		</clipPath>
	</g>
	<g>
		<g>
			<path fill="#F4C452" d="M32.306,55.127c1.055,0.667,2.282,1.001,3.684,1.001c1.665,0,3.02-0.454,4.067-1.36
				s1.57-2.148,1.57-3.726c0-0.98-0.249-1.877-0.746-2.689c-0.497-0.812-1.475-1.426-2.931-1.843l-2.405-0.682
				c-1.312-0.37-1.969-1.013-1.969-1.93c0-0.581,0.21-1.06,0.627-1.438c0.418-0.376,1.024-0.564,1.819-0.564
				c1.368,0,2.239,0.607,2.612,1.823l2.424-0.682c-0.262-1.106-0.872-1.962-1.828-2.566c-0.956-0.604-2.043-0.906-3.259-0.906
				c-1.465,0-2.667,0.433-3.605,1.3c-0.94,0.867-1.41,2.019-1.41,3.455c0,0.722,0.132,1.4,0.399,2.037
				c0.267,0.635,0.62,1.127,1.063,1.476c0.441,0.35,1.126,0.662,2.051,0.937l2.705,0.799c0.725,0.213,1.198,0.506,1.418,0.877
				c0.221,0.373,0.333,0.78,0.333,1.219c0,0.604-0.244,1.11-0.732,1.518c-0.486,0.407-1.182,0.612-2.087,0.612
				c-1.983,0-3.124-0.796-3.419-2.39l-2.478,0.601C30.554,53.42,31.253,54.46,32.306,55.127L32.306,55.127z"/>
			<polygon fill="#F4C452" points="51.732,56.259 51.732,41.821 56.503,41.821 56.503,39.89 45.079,39.89 45.079,41.821 
				49.826,41.821 49.826,56.259 51.732,56.259 			"/>
			<path fill="#F4C452" d="M60.313,56.259l1.567-4.957h6.062l1.677,4.957H71.8l-5.902-16.37H63.86l-5.558,16.37H60.313
				L60.313,56.259z M64.039,44.735c0.341-1.034,0.604-2.077,0.79-3.125c0.216,0.871,0.556,2.003,1.019,3.393l1.497,4.534h-4.908
				L64.039,44.735L64.039,44.735z"/>
			<path fill="#F4C452" d="M77.854,56.259v-7.268h2.205c0.638,0,1.135,0.079,1.491,0.241c0.355,0.16,0.722,0.472,1.102,0.934
				c0.378,0.462,0.94,1.358,1.685,2.691l1.922,3.403h2.398l-2.518-4.455c-0.431-0.767-0.93-1.463-1.499-2.088
				c-0.279-0.307-0.686-0.611-1.223-0.909c1.32-0.208,2.324-0.696,3.015-1.463c0.691-0.766,1.037-1.767,1.037-3.001
				c0-0.938-0.204-1.762-0.612-2.473c-0.407-0.711-0.929-1.218-1.563-1.523c-0.636-0.305-1.62-0.457-2.956-0.457h-6.39v16.37H77.854
				L77.854,56.259z M77.854,41.699h4.556c1.022,0,1.794,0.236,2.313,0.709c0.52,0.473,0.78,1.122,0.78,1.948
				c0,0.573-0.137,1.076-0.409,1.509c-0.271,0.431-0.64,0.748-1.103,0.948c-0.464,0.202-1.142,0.302-2.037,0.302h-4.101V41.699
				L77.854,41.699z"/>
			<polygon fill="#F4C452" points="97.76,56.259 97.76,41.821 102.531,41.821 102.531,39.89 91.108,39.89 91.108,41.821 
				95.854,41.821 95.854,56.259 97.76,56.259 			"/>
			<polygon fill="#F4C452" points="21.257,82.89 21.257,68.895 26.028,68.895 26.028,67.023 14.604,67.023 14.604,68.895 
				19.351,68.895 19.351,82.89 21.257,82.89 			"/>
			<path fill="#F4C452" d="M28.952,80.648c1.139,1.675,2.641,2.512,4.51,2.512c1.854,0,3.355-0.816,4.5-2.445
				c1.04-1.479,1.559-3.395,1.559-5.748c0-1.709-0.268-3.183-0.806-4.421c-0.536-1.237-1.266-2.18-2.185-2.83
				c-0.921-0.649-1.94-0.974-3.056-0.974c-1.728,0-3.172,0.727-4.332,2.18c-1.158,1.454-1.738,3.534-1.738,6.239
				C27.403,77.305,27.92,79.133,28.952,80.648L28.952,80.648L28.952,80.648z M30.358,70.162c0.819-1.084,1.859-1.625,3.124-1.625
				c0.787,0,1.512,0.247,2.176,0.741c0.664,0.496,1.161,1.155,1.492,1.977c0.428,1.077,0.643,2.297,0.643,3.662
				c0,2.116-0.417,3.72-1.25,4.81c-0.832,1.09-1.862,1.636-3.091,1.636c-1.202,0-2.222-0.541-3.061-1.62
				c-0.84-1.079-1.26-2.597-1.26-4.555C29.131,72.921,29.54,71.246,30.358,70.162L30.358,70.162z"/>
			<polygon fill="#F4C452" points="54.235,82.89 54.235,81.016 46.728,81.016 46.728,67.023 44.712,67.023 44.712,82.89 
				54.235,82.89 			"/>
			<polygon fill="#F4C452" points="68.5,82.89 68.5,81.016 60.993,81.016 60.993,67.023 58.977,67.023 58.977,82.89 68.5,82.89 			
				"/>
			<path fill="#F4C452" d="M76.074,82.89l2.463-12.091c0.115-0.548,0.228-1.168,0.338-1.861l0.367,1.861l2.453,12.091h1.476
				l3.192-15.867h-1.546L82.99,77.217c-0.233,1.27-0.423,2.421-0.57,3.453c-0.2-1.79-0.501-3.662-0.906-5.617l-1.656-8.031h-1.865
				l-2.21,10.715l-0.522,2.933c-0.142-1.097-0.305-2.179-0.493-3.248l-1.77-10.4h-1.572L74.52,82.89H76.074L76.074,82.89z"/>
			<path fill="#F4C452" d="M90.499,82.89l1.491-4.807h5.769l1.596,4.807h2.075l-5.616-15.867h-1.94l-5.29,15.867H90.499
				L90.499,82.89z M94.045,71.719c0.323-1.003,0.575-2.013,0.751-3.03c0.205,0.843,0.528,1.94,0.969,3.29l1.426,4.393h-4.673
				L94.045,71.719L94.045,71.719z"/>
			<path fill="#F4C452" d="M110.948,82.89v-6.722l6.21-9.145h-2.377l-3.022,4.669c-0.674,1.04-1.239,1.975-1.698,2.806
				c-0.457-0.845-0.988-1.74-1.591-2.686l-3.056-4.789h-2.513l5.991,9.145v6.722H110.948L110.948,82.89z"/>
		</g>
		<g>
			<polygon fill="#F4C452" stroke="#F4C452" stroke-width="0.5" stroke-miterlimit="10" points="51.732,56.259 51.732,41.821 
				56.503,41.821 56.503,39.89 45.079,39.89 45.079,41.821 49.826,41.821 49.826,56.259 51.732,56.259 			"/>
			<path fill="#F4C452" stroke="#F4C452" stroke-width="0.5" stroke-miterlimit="10" d="M60.313,56.259l1.567-4.957h6.062
				l1.677,4.957H71.8l-5.902-16.37H63.86l-5.558,16.37H60.313L60.313,56.259z M64.039,44.735c0.341-1.034,0.604-2.077,0.79-3.125
				c0.216,0.871,0.556,2.003,1.019,3.393l1.497,4.534h-4.908L64.039,44.735L64.039,44.735z"/>
			<path fill="#F4C452" stroke="#F4C452" stroke-width="0.5" stroke-miterlimit="10" d="M77.854,56.259v-7.268h2.205
				c0.638,0,1.135,0.079,1.491,0.241c0.355,0.16,0.722,0.472,1.102,0.934c0.378,0.462,0.94,1.358,1.685,2.691l1.922,3.403h2.398
				l-2.518-4.455c-0.431-0.767-0.93-1.463-1.499-2.088c-0.279-0.307-0.686-0.611-1.223-0.909c1.32-0.208,2.324-0.696,3.015-1.463
				c0.691-0.766,1.037-1.767,1.037-3.001c0-0.938-0.204-1.762-0.612-2.473c-0.407-0.711-0.929-1.218-1.563-1.523
				c-0.636-0.305-1.62-0.457-2.956-0.457h-6.39v16.37H77.854L77.854,56.259z M77.854,41.699h4.556c1.022,0,1.794,0.236,2.313,0.709
				c0.52,0.473,0.78,1.122,0.78,1.948c0,0.573-0.137,1.076-0.409,1.509c-0.271,0.431-0.64,0.748-1.103,0.948
				c-0.464,0.202-1.142,0.302-2.037,0.302h-4.101V41.699L77.854,41.699z"/>
			<polygon fill="#F4C452" stroke="#F4C452" stroke-width="0.5" stroke-miterlimit="10" points="97.76,56.259 97.76,41.821 
				102.531,41.821 102.531,39.89 91.108,39.89 91.108,41.821 95.854,41.821 95.854,56.259 97.76,56.259 			"/>
			<polygon fill="#F4C452" stroke="#F4C452" stroke-width="0.5" stroke-miterlimit="10" points="21.257,82.89 21.257,68.895 
				26.028,68.895 26.028,67.023 14.604,67.023 14.604,68.895 19.351,68.895 19.351,82.89 21.257,82.89 			"/>
			<path fill="#F4C452" stroke="#F4C452" stroke-width="0.5" stroke-miterlimit="10" d="M28.952,80.648
				c1.139,1.675,2.641,2.512,4.51,2.512c1.854,0,3.355-0.816,4.5-2.445c1.04-1.479,1.559-3.395,1.559-5.748
				c0-1.709-0.268-3.183-0.806-4.421c-0.536-1.237-1.266-2.18-2.185-2.83c-0.921-0.649-1.94-0.974-3.056-0.974
				c-1.728,0-3.172,0.727-4.332,2.18c-1.158,1.454-1.738,3.534-1.738,6.239C27.403,77.305,27.92,79.133,28.952,80.648L28.952,80.648
				L28.952,80.648z M30.358,70.162c0.819-1.084,1.859-1.625,3.124-1.625c0.787,0,1.512,0.247,2.176,0.741
				c0.664,0.496,1.161,1.155,1.492,1.977c0.428,1.077,0.643,2.297,0.643,3.662c0,2.116-0.417,3.72-1.25,4.81
				c-0.832,1.09-1.862,1.636-3.091,1.636c-1.202,0-2.222-0.541-3.061-1.62c-0.84-1.079-1.26-2.597-1.26-4.555
				C29.131,72.921,29.54,71.246,30.358,70.162L30.358,70.162z"/>
			<polygon fill="#F4C452" stroke="#F4C452" stroke-width="0.5" stroke-miterlimit="10" points="54.235,82.89 54.235,81.016 
				46.728,81.016 46.728,67.023 44.712,67.023 44.712,82.89 54.235,82.89 			"/>
			<polygon fill="#F4C452" stroke="#F4C452" stroke-width="0.5" stroke-miterlimit="10" points="68.5,82.89 68.5,81.016 
				60.993,81.016 60.993,67.023 58.977,67.023 58.977,82.89 68.5,82.89 			"/>
			<path fill="#F4C452" stroke="#F4C452" stroke-width="0.5" stroke-miterlimit="10" d="M76.074,82.89l2.463-12.091
				c0.115-0.548,0.228-1.168,0.338-1.861l0.367,1.861l2.453,12.091h1.476l3.192-15.867h-1.546L82.99,77.217
				c-0.233,1.27-0.423,2.421-0.57,3.453c-0.2-1.79-0.501-3.662-0.906-5.617l-1.656-8.031h-1.865l-2.21,10.715l-0.522,2.933
				c-0.142-1.097-0.305-2.179-0.493-3.248l-1.77-10.4h-1.572L74.52,82.89H76.074L76.074,82.89z"/>
			<path fill="#F4C452" stroke="#F4C452" stroke-width="0.5" stroke-miterlimit="10" d="M90.499,82.89l1.491-4.807h5.769
				l1.596,4.807h2.075l-5.616-15.867h-1.94l-5.29,15.867H90.499L90.499,82.89z M94.045,71.719c0.323-1.003,0.575-2.013,0.751-3.03
				c0.205,0.843,0.528,1.94,0.969,3.29l1.426,4.393h-4.673L94.045,71.719L94.045,71.719z"/>
			<path fill="#F4C452" stroke="#F4C452" stroke-width="0.5" stroke-miterlimit="10" d="M110.948,82.89v-6.722l6.21-9.145h-2.377
				l-3.022,4.669c-0.674,1.04-1.239,1.975-1.698,2.806c-0.457-0.845-0.988-1.74-1.591-2.686l-3.056-4.789h-2.513l5.991,9.145v6.722
				H110.948L110.948,82.89z"/>
		</g>
	</g>
</g>
</svg>
