<?xml version="1.0" encoding="utf-8"?>
<!-- Generator: Adobe Illustrator 17.0.1, SVG Export Plug-In . SVG Version: 6.00 Build 0)  -->
<!DOCTYPE svg PUBLIC "-//W3C//DTD SVG 1.1//EN" "http://www.w3.org/Graphics/SVG/1.1/DTD/svg11.dtd">
<svg version="1.1" xmlns="http://www.w3.org/2000/svg" xmlns:xlink="http://www.w3.org/1999/xlink" x="0px" y="0px" width="132px"
	 height="132px" viewBox="0 0 132 132" enable-background="new 0 0 132 132" xml:space="preserve">
<g id="disabled">
	<g>
		<defs>
			<path id="SVGID_1_" d="M126.757,24.998H127l-54.521,92.293c-0.867,2.5-3.219,4.306-6.015,4.306c-2.822,0-5.188-1.84-6.037-4.374
				L6.036,24.418l0.226,0.002c-0.656-1.005-1.043-2.198-1.043-3.486c0-3.532,2.25-6.935,5.781-6.935h112.001
				c3.531,0,4.999,3.468,4.999,6.998C127.999,22.532,127.542,23.91,126.757,24.998L126.757,24.998z"/>
		</defs>
		<defs>
			<path id="SVGID_2_" d="M125.757,23.998H126l-54.521,92.293c-0.867,2.5-3.219,4.306-6.015,4.306c-2.822,0-5.188-1.84-6.037-4.374
				L5.036,23.418l0.226,0.002c-0.656-1.005-1.043-2.198-1.043-3.486c0-3.532,2.25-6.935,5.781-6.935h112.001
				c3.531,0,4.999,3.468,4.999,6.998C126.999,21.532,126.542,22.91,125.757,23.998L125.757,23.998z"/>
		</defs>
		<linearGradient id="SVGID_3_" gradientUnits="userSpaceOnUse" x1="5.2188" y1="67.7981" x2="127.9994" y2="67.7981">
			<stop  offset="0" style="stop-color:#000000;stop-opacity:0.6"/>
			<stop  offset="1" style="stop-color:#000000;stop-opacity:0.6"/>
		</linearGradient>
		<use xlink:href="#SVGID_1_"  overflow="visible" fill-rule="evenodd" clip-rule="evenodd" fill="url(#SVGID_3_)"/>
		<use xlink:href="#SVGID_2_"  overflow="visible" fill-rule="evenodd" clip-rule="evenodd" fill="#FFFFFF"/>
		<clipPath id="SVGID_4_">
			<use xlink:href="#SVGID_1_"  overflow="visible"/>
		</clipPath>
		<clipPath id="SVGID_5_" clip-path="url(#SVGID_4_)">
			<use xlink:href="#SVGID_2_"  overflow="visible"/>
		</clipPath>
	</g>
	<g>
		<defs>
			<path id="SVGID_6_" d="M61.323,115.587c-0.044-0.131-0.102-0.255-0.171-0.375c0,0-52.929-90.311-53.898-91.964
				c-0.027-0.323-0.132-0.641-0.317-0.922c-0.47-0.719-0.719-1.547-0.719-2.392c0-2.426,1.415-4.936,3.781-4.936h112.001
				c0.93,0,1.605,0.391,2.122,1.228c0.557,0.901,0.877,2.276,0.877,3.771c0,1.068-0.299,2.046-0.864,2.831
				c-0.221,0.307-0.346,0.661-0.371,1.022c-1.009,1.709-54.007,91.422-54.007,91.422c-0.068,0.115-0.124,0.236-0.168,0.362
				c-0.614,1.772-2.273,2.962-4.125,2.962C63.59,118.598,61.927,117.388,61.323,115.587"/>
		</defs>
		<use xlink:href="#SVGID_6_"  overflow="visible" fill="#5C5C5C"/>
		<clipPath id="SVGID_7_">
			<use xlink:href="#SVGID_6_"  overflow="visible"/>
		</clipPath>
	</g>
	<g>
		<defs>
			<path id="SVGID_8_" d="M17.762,24.998c3.337,0,91.195,0,94.496,0c-1.667,2.851-45.145,77.177-46.763,79.942
				C63.85,102.186,19.471,27.86,17.762,24.998"/>
		</defs>
		<use xlink:href="#SVGID_8_"  overflow="visible" fill-rule="evenodd" clip-rule="evenodd" fill="#FFFFFF"/>
		<clipPath id="SVGID_9_">
			<use xlink:href="#SVGID_8_"  overflow="visible"/>
		</clipPath>
	</g>
	<g>
		<defs>
			<path id="SVGID_10_" d="M48.319,39.315v-1.996l6.803-0.011v6.31c-1.045,0.882-2.122,1.546-3.232,1.99
				c-1.11,0.446-2.25,0.667-3.418,0.667c-1.578,0-3.011-0.357-4.3-1.072c-1.289-0.716-2.261-1.749-2.919-3.104
				c-0.657-1.352-0.987-2.865-0.987-4.535c0-1.656,0.328-3.2,0.98-4.635c0.654-1.434,1.594-2.499,2.822-3.195
				c1.226-0.696,2.639-1.045,4.238-1.045c1.161,0,2.211,0.199,3.15,0.598c0.938,0.399,1.675,0.953,2.208,1.665
				c0.533,0.711,0.938,1.639,1.216,2.785l-1.917,0.556c-0.241-0.866-0.541-1.546-0.898-2.042c-0.359-0.494-0.869-0.892-1.534-1.189
				c-0.664-0.297-1.402-0.447-2.213-0.447c-0.971,0-1.811,0.157-2.52,0.47c-0.707,0.313-1.279,0.725-1.714,1.236
				c-0.434,0.51-0.772,1.072-1.014,1.683c-0.409,1.051-0.612,2.192-0.612,3.422c0,1.515,0.246,2.785,0.738,3.805
				c0.494,1.021,1.211,1.778,2.153,2.274c0.942,0.494,1.943,0.741,3.001,0.741c0.921,0,1.819-0.187,2.696-0.562
				c0.875-0.375,1.541-0.775,1.993-1.2v-3.167H48.319L48.319,39.315z M58.616,45.985V28.978h2.126v17.008H58.616L58.616,45.985z
				 M71.257,45.985h-2.18l-6.222-17.008h2.3l4.174,12.354c0.336,0.99,0.617,1.919,0.845,2.785c0.247-0.927,0.536-1.856,0.864-2.785
				l4.338-12.354h2.169L71.257,45.985L71.257,45.985z M91.479,43.978v2.008H79.495V28.978h11.611v2.006H81.62v5.209h8.883v1.996
				H81.62v5.789H91.479L91.479,43.978z"/>
		</defs>
		<use xlink:href="#SVGID_10_"  overflow="visible" fill-rule="evenodd" clip-rule="evenodd"/>
		<clipPath id="SVGID_11_">
			<use xlink:href="#SVGID_10_"  overflow="visible"/>
		</clipPath>
		
			<use xlink:href="#SVGID_10_"  overflow="visible" fill-rule="evenodd" clip-rule="evenodd" fill="none" stroke="#000000" stroke-width="0.5" stroke-miterlimit="10"/>
	</g>
	<g>
		<defs>
			<path id="SVGID_12_" d="M59.1,68.954h-1.615l-2.671-12.744c-0.225-1.064-0.357-1.719-0.397-1.962
				c-0.132,0.769-0.257,1.423-0.371,1.962l-2.688,12.744h-1.71l-3.361-16.725h1.719l1.927,10.964
				c0.208,1.148,0.386,2.29,0.536,3.422c0.323-1.786,0.514-2.818,0.57-3.091l2.411-11.295h2.022l1.814,8.465
				c0.455,2.1,0.783,4.073,0.985,5.921c0.162-1.056,0.371-2.269,0.632-3.639l1.987-10.747h1.686L59.1,68.954L59.1,68.954z
				 M72.921,68.954l-1.478-5.065h-5.296l-1.392,5.065h-1.78l4.865-16.725h1.806l5.185,16.725H72.921L72.921,68.954z M69.603,57.454
				c-0.404-1.407-0.704-2.563-0.9-3.468c-0.161,1.072-0.389,2.137-0.682,3.193l-1.392,4.907h4.295L69.603,57.454L69.603,57.454z
				 M80.987,61.87v7.084H79.31V61.87l-4.883-9.641h2.04l2.497,5.042c0.46,0.943,0.89,1.887,1.287,2.83
				c0.381-0.875,0.841-1.861,1.383-2.956l2.455-4.917h1.953L80.987,61.87L80.987,61.87z"/>
		</defs>
		<use xlink:href="#SVGID_12_"  overflow="visible" fill-rule="evenodd" clip-rule="evenodd"/>
		<clipPath id="SVGID_13_">
			<use xlink:href="#SVGID_12_"  overflow="visible"/>
		</clipPath>
		
			<use xlink:href="#SVGID_12_"  overflow="visible" fill-rule="evenodd" clip-rule="evenodd" fill="none" stroke="#000000" stroke-width="0.5" stroke-miterlimit="10"/>
	</g>
	<linearGradient id="SVGID_14_" gradientUnits="userSpaceOnUse" x1="110.0354" y1="90.7861" x2="40.0422" y2="-9.1747">
		<stop  offset="0" style="stop-color:#000000;stop-opacity:0"/>
		<stop  offset="1" style="stop-color:#FFFFFF;stop-opacity:0.25"/>
	</linearGradient>
	<path fill-rule="evenodd" clip-rule="evenodd" fill="url(#SVGID_14_)" d="M125.757,23.998H126l-54.521,92.293
		c-0.867,2.5-3.219,4.306-6.015,4.306c-2.822,0-5.188-1.84-6.037-4.374L5.036,23.418l0.226,0.002
		c-0.656-1.005-1.043-2.198-1.043-3.486c0-3.532,2.25-6.935,5.781-6.935h112.001c3.531,0,4.999,3.468,4.999,6.998
		C126.999,21.532,126.542,22.91,125.757,23.998L125.757,23.998z"/>
</g>
<g id="normal">
	<g>
		<defs>
			<path id="SVGID_15_" d="M126.757,24.998H127l-54.521,92.293c-0.867,2.5-3.219,4.306-6.015,4.306c-2.822,0-5.188-1.84-6.037-4.374
				L6.036,24.418l0.226,0.002c-0.656-1.005-1.043-2.198-1.043-3.486c0-3.532,2.25-6.935,5.781-6.935h112.001
				c3.531,0,4.999,3.468,4.999,6.998C127.999,22.532,127.542,23.91,126.757,24.998L126.757,24.998z"/>
		</defs>
		<defs>
			<path id="SVGID_16_" d="M125.757,23.998H126l-54.521,92.293c-0.867,2.5-3.219,4.306-6.015,4.306c-2.822,0-5.188-1.84-6.037-4.374
				L5.036,23.418l0.226,0.002c-0.656-1.005-1.043-2.198-1.043-3.486c0-3.532,2.25-6.935,5.781-6.935h112.001
				c3.531,0,4.999,3.468,4.999,6.998C126.999,21.532,126.542,22.91,125.757,23.998L125.757,23.998z"/>
		</defs>
		<linearGradient id="SVGID_17_" gradientUnits="userSpaceOnUse" x1="5.2188" y1="67.7981" x2="127.9994" y2="67.7981">
			<stop  offset="0" style="stop-color:#000000;stop-opacity:0.6"/>
			<stop  offset="1" style="stop-color:#000000;stop-opacity:0.6"/>
		</linearGradient>
		<use xlink:href="#SVGID_15_"  overflow="visible" fill-rule="evenodd" clip-rule="evenodd" fill="url(#SVGID_17_)"/>
		<use xlink:href="#SVGID_16_"  overflow="visible" fill-rule="evenodd" clip-rule="evenodd" fill="#FFFFFF"/>
		<clipPath id="SVGID_18_">
			<use xlink:href="#SVGID_15_"  overflow="visible"/>
		</clipPath>
		<clipPath id="SVGID_19_" clip-path="url(#SVGID_18_)">
			<use xlink:href="#SVGID_16_"  overflow="visible"/>
		</clipPath>
	</g>
	<g>
		<defs>
			<path id="SVGID_20_" d="M61.323,115.587c-0.044-0.131-0.102-0.255-0.171-0.375c0,0-52.929-90.311-53.898-91.964
				c-0.027-0.323-0.132-0.641-0.317-0.922c-0.47-0.719-0.719-1.547-0.719-2.392c0-2.426,1.415-4.936,3.781-4.936h112.001
				c0.93,0,1.605,0.391,2.122,1.228c0.557,0.901,0.877,2.276,0.877,3.771c0,1.068-0.299,2.046-0.864,2.831
				c-0.221,0.307-0.346,0.661-0.371,1.022c-1.009,1.709-54.007,91.422-54.007,91.422c-0.068,0.115-0.124,0.236-0.168,0.362
				c-0.614,1.772-2.273,2.962-4.125,2.962C63.59,118.598,61.927,117.388,61.323,115.587"/>
		</defs>
		<use xlink:href="#SVGID_20_"  overflow="visible" fill="#ED1C24"/>
		<clipPath id="SVGID_21_">
			<use xlink:href="#SVGID_20_"  overflow="visible"/>
		</clipPath>
	</g>
	<g>
		<defs>
			<path id="SVGID_22_" d="M17.762,24.998c3.337,0,91.195,0,94.496,0c-1.667,2.851-45.145,77.177-46.763,79.942
				C63.85,102.186,19.471,27.86,17.762,24.998"/>
		</defs>
		<use xlink:href="#SVGID_22_"  overflow="visible" fill-rule="evenodd" clip-rule="evenodd" fill="#FFFFFF"/>
		<clipPath id="SVGID_23_">
			<use xlink:href="#SVGID_22_"  overflow="visible"/>
		</clipPath>
	</g>
	<g>
		<defs>
			<path id="SVGID_24_" d="M48.319,39.315v-1.996l6.803-0.011v6.31c-1.045,0.882-2.122,1.546-3.232,1.99
				c-1.11,0.446-2.25,0.667-3.418,0.667c-1.578,0-3.011-0.357-4.3-1.072c-1.289-0.716-2.261-1.749-2.919-3.104
				c-0.657-1.352-0.987-2.865-0.987-4.535c0-1.656,0.328-3.2,0.98-4.635c0.654-1.434,1.594-2.499,2.822-3.195
				c1.226-0.696,2.639-1.045,4.238-1.045c1.161,0,2.211,0.199,3.15,0.598c0.938,0.399,1.675,0.953,2.208,1.665
				c0.533,0.711,0.938,1.639,1.216,2.785l-1.917,0.556c-0.241-0.866-0.541-1.546-0.898-2.042c-0.359-0.494-0.869-0.892-1.534-1.189
				c-0.664-0.297-1.402-0.447-2.213-0.447c-0.971,0-1.811,0.157-2.52,0.47c-0.707,0.313-1.279,0.725-1.714,1.236
				c-0.434,0.51-0.772,1.072-1.014,1.683c-0.409,1.051-0.612,2.192-0.612,3.422c0,1.515,0.246,2.785,0.738,3.805
				c0.494,1.021,1.211,1.778,2.153,2.274c0.942,0.494,1.943,0.741,3.001,0.741c0.921,0,1.819-0.187,2.696-0.562
				c0.875-0.375,1.541-0.775,1.993-1.2v-3.167H48.319L48.319,39.315z M58.616,45.985V28.978h2.126v17.008H58.616L58.616,45.985z
				 M71.257,45.985h-2.18l-6.222-17.008h2.3l4.174,12.354c0.336,0.99,0.617,1.919,0.845,2.785c0.247-0.927,0.536-1.856,0.864-2.785
				l4.338-12.354h2.169L71.257,45.985L71.257,45.985z M91.479,43.978v2.008H79.495V28.978h11.611v2.006H81.62v5.209h8.883v1.996
				H81.62v5.789H91.479L91.479,43.978z"/>
		</defs>
		<use xlink:href="#SVGID_24_"  overflow="visible" fill-rule="evenodd" clip-rule="evenodd"/>
		<clipPath id="SVGID_25_">
			<use xlink:href="#SVGID_24_"  overflow="visible"/>
		</clipPath>
		
			<use xlink:href="#SVGID_24_"  overflow="visible" fill-rule="evenodd" clip-rule="evenodd" fill="none" stroke="#000000" stroke-width="0.5" stroke-miterlimit="10"/>
	</g>
	<g>
		<defs>
			<path id="SVGID_26_" d="M59.1,68.954h-1.615l-2.671-12.744c-0.225-1.064-0.357-1.719-0.397-1.962
				c-0.132,0.769-0.257,1.423-0.371,1.962l-2.688,12.744h-1.71l-3.361-16.725h1.719l1.927,10.964
				c0.208,1.148,0.386,2.29,0.536,3.422c0.323-1.786,0.514-2.818,0.57-3.091l2.411-11.295h2.022l1.814,8.465
				c0.455,2.1,0.783,4.073,0.985,5.921c0.162-1.056,0.371-2.269,0.632-3.639l1.987-10.747h1.686L59.1,68.954L59.1,68.954z
				 M72.921,68.954l-1.478-5.065h-5.296l-1.392,5.065h-1.78l4.865-16.725h1.806l5.185,16.725H72.921L72.921,68.954z M69.603,57.454
				c-0.404-1.407-0.704-2.563-0.9-3.468c-0.161,1.072-0.389,2.137-0.682,3.193l-1.392,4.907h4.295L69.603,57.454L69.603,57.454z
				 M80.987,61.87v7.084H79.31V61.87l-4.883-9.641h2.04l2.497,5.042c0.46,0.943,0.89,1.887,1.287,2.83
				c0.381-0.875,0.841-1.861,1.383-2.956l2.455-4.917h1.953L80.987,61.87L80.987,61.87z"/>
		</defs>
		<use xlink:href="#SVGID_26_"  overflow="visible" fill-rule="evenodd" clip-rule="evenodd"/>
		<clipPath id="SVGID_27_">
			<use xlink:href="#SVGID_26_"  overflow="visible"/>
		</clipPath>
		
			<use xlink:href="#SVGID_26_"  overflow="visible" fill-rule="evenodd" clip-rule="evenodd" fill="none" stroke="#000000" stroke-width="0.5" stroke-miterlimit="10"/>
	</g>
	<linearGradient id="SVGID_28_" gradientUnits="userSpaceOnUse" x1="110.0354" y1="90.7861" x2="40.0422" y2="-9.1747">
		<stop  offset="0" style="stop-color:#000000;stop-opacity:0"/>
		<stop  offset="1" style="stop-color:#FFFFFF;stop-opacity:0.25"/>
	</linearGradient>
	<path fill-rule="evenodd" clip-rule="evenodd" fill="url(#SVGID_28_)" d="M125.757,23.998H126l-54.521,92.293
		c-0.867,2.5-3.219,4.306-6.015,4.306c-2.822,0-5.188-1.84-6.037-4.374L5.036,23.418l0.226,0.002
		c-0.656-1.005-1.043-2.198-1.043-3.486c0-3.532,2.25-6.935,5.781-6.935h112.001c3.531,0,4.999,3.468,4.999,6.998
		C126.999,21.532,126.542,22.91,125.757,23.998L125.757,23.998z"/>
</g>
</svg>
