<?xml version="1.0" encoding="utf-8"?>
<!-- Generator: Adobe Illustrator 17.0.1, SVG Export Plug-In . SVG Version: 6.00 Build 0)  -->
<!DOCTYPE svg PUBLIC "-//W3C//DTD SVG 1.1//EN" "http://www.w3.org/Graphics/SVG/1.1/DTD/svg11.dtd">
<svg version="1.1" xmlns="http://www.w3.org/2000/svg" xmlns:xlink="http://www.w3.org/1999/xlink" x="0px" y="0px" width="132px"
	 height="132px" viewBox="0 0 132 132" enable-background="new 0 0 132 132" xml:space="preserve">
<g id="disabled">
	<g>
		<defs>
			<path id="SVGID_1_" d="M13.001,29.999H120c3.035,0,6,3.117,6,7v63.001c0,3.881-2.965,7-6,7H13.001c-3.035,0-6-3.119-6-7V36.999
				C7,33.116,9.966,29.999,13.001,29.999L13.001,29.999z"/>
		</defs>
		<defs>
			<path id="SVGID_2_" d="M12.001,28.999H119c3.035,0,6,3.117,6,7v63.001c0,3.881-2.965,7-6,7H12.001c-3.035,0-6-3.119-6-7V35.999
				C6,32.116,8.966,28.999,12.001,28.999L12.001,28.999z"/>
		</defs>
		<linearGradient id="SVGID_3_" gradientUnits="userSpaceOnUse" x1="7.0003" y1="68.4991" x2="125.9999" y2="68.4991">
			<stop  offset="0" style="stop-color:#000000;stop-opacity:0.6"/>
			<stop  offset="1" style="stop-color:#000000;stop-opacity:0.6"/>
		</linearGradient>
		<use xlink:href="#SVGID_1_"  overflow="visible" fill-rule="evenodd" clip-rule="evenodd" fill="url(#SVGID_3_)"/>
		<use xlink:href="#SVGID_2_"  overflow="visible" fill="#BEBEBE"/>
		<clipPath id="SVGID_4_">
			<use xlink:href="#SVGID_1_"  overflow="visible"/>
		</clipPath>
		<clipPath id="SVGID_5_" clip-path="url(#SVGID_4_)">
			<use xlink:href="#SVGID_2_"  overflow="visible"/>
		</clipPath>
	</g>
	<g>
		<defs>
			<path id="SVGID_6_" d="M13,30.998H118c2.954,0,5.001,3.221,5.001,7v59c0,3.779-3.046,7.002-6,7.002H14c-2.954,0-6-2.221-6-6.002
				v-60C8,34.219,10.046,30.998,13,30.998L13,30.998z"/>
		</defs>
		<use xlink:href="#SVGID_6_"  overflow="visible" fill-rule="evenodd" clip-rule="evenodd"/>
		<clipPath id="SVGID_7_">
			<use xlink:href="#SVGID_6_"  overflow="visible"/>
		</clipPath>
	</g>
	<g>
		<defs>
			<path id="SVGID_8_" d="M14,101.001c-1.16,0-3.001-0.816-3.001-3.003v-60c0-2.289,1.056-4.001,2.001-4.001H118
				c0.945,0,2.001,1.712,2.001,4.001v59c0,2.21-1.815,4.002-3.001,4.002H14"/>
		</defs>
		<use xlink:href="#SVGID_8_"  overflow="visible" fill="#BEBEBE"/>
		<clipPath id="SVGID_9_">
			<use xlink:href="#SVGID_8_"  overflow="visible"/>
		</clipPath>
	</g>
	<g>
		<defs>
			<path id="SVGID_10_" d="M35.808,40.56v12.43h-2.344V40.56h-3.445v-2.531h9.227v2.531H35.808L35.808,40.56z M48.009,46.387
				c0.507,0.381,0.925,0.8,1.255,1.255c0.329,0.455,0.775,1.265,1.334,2.429l1.418,2.919h-2.804l-1.694-3.256
				c-0.602-1.163-1.014-1.896-1.236-2.2c-0.223-0.302-0.457-0.509-0.706-0.622c-0.247-0.111-0.641-0.168-1.179-0.168h-0.475v6.246
				h-2.345V38.029h4.934c1.24,0,2.142,0.134,2.704,0.402c0.564,0.27,1.013,0.748,1.352,1.434c0.338,0.688,0.506,1.473,0.506,2.358
				c0,1.123-0.255,2.05-0.767,2.78C49.794,45.735,49.028,46.197,48.009,46.387L48.009,46.387z M48.345,41.198
				c-0.208-0.31-0.502-0.506-0.883-0.588c-0.189-0.034-0.759-0.05-1.71-0.05h-1.828v3.796h1.733c1.126,0,1.827-0.061,2.108-0.182
				c0.279-0.123,0.499-0.334,0.657-0.633c0.158-0.299,0.237-0.674,0.237-1.123C48.658,41.913,48.553,41.506,48.345,41.198
				L48.345,41.198z M62.014,52.99l-1.014-3.398h-4.64l-0.958,3.398h-2.487l4.522-14.961h2.479l4.648,14.961H62.014L62.014,52.99z
				 M58.648,41.519l-1.568,5.551h3.167L58.648,41.519L58.648,41.519z M68.978,40.56v3.54h4.847v2.531h-4.847v6.359h-2.344V38.029
				h7.959v2.531H68.978L68.978,40.56z M79.696,40.56v3.54h4.847v2.531h-4.847v6.359h-2.344V38.029h7.959v2.531H79.696L79.696,40.56z
				 M87.984,52.99V38.029h2.345V52.99H87.984L87.984,52.99z M99.863,41.028c-0.436-0.449-0.966-0.674-1.588-0.674
				c-0.861,0-1.559,0.399-2.095,1.195c-0.536,0.796-0.804,2.085-0.804,3.867c0,1.891,0.265,3.238,0.791,4.041
				c0.528,0.804,1.215,1.205,2.059,1.205c0.623,0,1.16-0.255,1.609-0.766c0.449-0.51,0.77-1.313,0.966-2.408l2.273,0.929
				c-0.349,1.633-0.927,2.846-1.738,3.637c-0.811,0.793-1.84,1.19-3.085,1.19c-1.542,0-2.809-0.68-3.802-2.037
				c-0.992-1.357-1.488-3.213-1.488-5.567c0-2.489,0.497-4.424,1.496-5.802c0.998-1.378,2.31-2.066,3.936-2.066
				c1.421,0,2.575,0.541,3.461,1.623c0.528,0.64,0.924,1.557,1.189,2.755l-2.321,0.714C100.585,42.091,100.299,41.479,99.863,41.028
				L99.863,41.028z M38.649,75.79v-6.541h-4.594v6.541h-2.344V60.828h2.344v5.889h4.594v-5.889h2.345V75.79H38.649L38.649,75.79z
				 M52.148,75.79l-1.014-3.398h-4.64l-0.959,3.398h-2.486l4.522-14.961h2.478l4.65,14.961H52.148L52.148,75.79z M48.782,64.319
				l-1.568,5.551h3.167L48.782,64.319L48.782,64.319z M65.18,75.79h-9.432v-2.725l6.097-9.705h-5.409v-2.531h8.499v2.347
				l-6.36,10.093h6.606V75.79L65.18,75.79z M75.39,75.79l-1.013-3.398h-4.642l-0.958,3.398h-2.487l4.522-14.961h2.479l4.648,14.961
				H75.39L75.39,75.79z M72.025,64.319l-1.568,5.551h3.169L72.025,64.319L72.025,64.319z M86.435,69.187
				c0.506,0.381,0.924,0.799,1.255,1.255c0.329,0.455,0.775,1.266,1.334,2.429l1.418,2.919h-2.804l-1.694-3.256
				c-0.602-1.163-1.014-1.896-1.236-2.198c-0.223-0.304-0.457-0.51-0.706-0.623c-0.247-0.111-0.641-0.168-1.179-0.168h-0.476v6.246
				h-2.344V60.828h4.934c1.24,0,2.142,0.134,2.704,0.404c0.564,0.268,1.013,0.746,1.35,1.434c0.339,0.686,0.507,1.473,0.507,2.357
				c0,1.123-0.255,2.05-0.767,2.781C88.22,68.536,87.452,68.996,86.435,69.187L86.435,69.187z M86.771,63.997
				c-0.208-0.31-0.502-0.506-0.883-0.586c-0.189-0.034-0.759-0.052-1.71-0.052h-1.83v3.797h1.735c1.126,0,1.827-0.061,2.108-0.184
				c0.279-0.123,0.499-0.333,0.657-0.633c0.158-0.299,0.237-0.674,0.237-1.123C87.084,64.713,86.979,64.308,86.771,63.997
				L86.771,63.997z M101.889,71.635c-0.291,1.089-0.704,1.971-1.244,2.644c-0.405,0.51-0.955,0.908-1.647,1.194
				c-0.517,0.212-1.208,0.317-2.074,0.317h-4.411V60.828h4.283c0.966,0,1.704,0.095,2.21,0.286c0.682,0.258,1.265,0.719,1.751,1.378
				c0.486,0.661,0.856,1.468,1.108,2.424c0.254,0.956,0.381,2.134,0.381,3.536C102.246,69.683,102.126,70.746,101.889,71.635
				L101.889,71.635z M99.584,65.656c-0.158-0.619-0.38-1.103-0.665-1.449c-0.284-0.347-0.646-0.583-1.084-0.704
				c-0.328-0.095-0.969-0.144-1.925-0.144h-1.053v9.909h1.751c0.654,0,1.126-0.047,1.417-0.142c0.381-0.123,0.696-0.329,0.946-0.623
				c0.25-0.292,0.455-0.774,0.614-1.444c0.158-0.669,0.237-1.583,0.237-2.739C99.821,67.163,99.742,66.275,99.584,65.656
				L99.584,65.656z M45.431,98.589l-1.014-3.398h-4.64l-0.959,3.398h-2.486l4.521-14.96h2.479l4.65,14.96H45.431L45.431,98.589z
				 M42.065,87.118l-1.568,5.553h3.167L42.065,87.118L42.065,87.118z M56.981,98.589v-6.541h-4.593v6.541h-2.345V83.63h2.345v5.887
				h4.593V83.63h2.344v14.96H56.981L56.981,98.589z M71.39,96.069v2.52h-8.83V83.63h8.609v2.531h-6.265v3.316h5.829v2.521h-5.829
				v4.072H71.39L71.39,96.069z M82.108,98.589l-1.013-3.398h-4.642l-0.958,3.398h-2.487l4.522-14.96h2.479l4.648,14.96H82.108
				L82.108,98.589z M78.742,87.118l-1.567,5.553h3.167L78.742,87.118L78.742,87.118z M96.082,94.437
				c-0.291,1.089-0.704,1.969-1.244,2.642c-0.407,0.51-0.956,0.908-1.647,1.194c-0.517,0.212-1.208,0.317-2.074,0.317h-4.413V83.63
				h4.285c0.966,0,1.702,0.095,2.21,0.284c0.682,0.26,1.265,0.719,1.751,1.378c0.486,0.661,0.854,1.468,1.108,2.424
				c0.254,0.956,0.381,2.135,0.381,3.536C96.439,92.484,96.32,93.545,96.082,94.437L96.082,94.437z M93.777,88.456
				c-0.158-0.619-0.38-1.102-0.665-1.449c-0.284-0.347-0.646-0.581-1.085-0.704c-0.326-0.095-0.967-0.142-1.924-0.142H89.05v9.909
				h1.749c0.656,0,1.127-0.048,1.418-0.144c0.38-0.123,0.696-0.329,0.946-0.622c0.25-0.292,0.455-0.774,0.614-1.444
				c0.158-0.67,0.237-1.584,0.237-2.741C94.015,89.963,93.936,89.074,93.777,88.456L93.777,88.456z"/>
		</defs>
		<use xlink:href="#SVGID_10_"  overflow="visible" fill-rule="evenodd" clip-rule="evenodd"/>
		<clipPath id="SVGID_11_">
			<use xlink:href="#SVGID_10_"  overflow="visible"/>
		</clipPath>
		
			<use xlink:href="#SVGID_10_"  overflow="visible" fill-rule="evenodd" clip-rule="evenodd" fill="none" stroke="#000000" stroke-width="0.5" stroke-miterlimit="10"/>
	</g>
	<linearGradient id="SVGID_12_" gradientUnits="userSpaceOnUse" x1="101.6987" y1="119.1956" x2="29.3017" y2="15.802">
		<stop  offset="0" style="stop-color:#000000;stop-opacity:0"/>
		<stop  offset="1" style="stop-color:#FFFFFF;stop-opacity:0.25"/>
	</linearGradient>
	<path fill-rule="evenodd" clip-rule="evenodd" fill="url(#SVGID_12_)" d="M12.001,28.999H119c3.035,0,6,3.117,6,7v63.001
		c0,3.881-2.965,7-6,7H12.001c-3.035,0-6-3.119-6-7V35.999C6,32.116,8.966,28.999,12.001,28.999L12.001,28.999z"/>
</g>
<g id="normal">
	<g>
		<defs>
			<path id="SVGID_13_" d="M13.001,29.999H120c3.035,0,6,3.117,6,7v63.001c0,3.881-2.965,7-6,7H13.001c-3.035,0-6-3.119-6-7V36.999
				C7,33.116,9.966,29.999,13.001,29.999L13.001,29.999z"/>
		</defs>
		<defs>
			<path id="SVGID_14_" d="M12.001,28.999H119c3.035,0,6,3.117,6,7v63.001c0,3.881-2.965,7-6,7H12.001c-3.035,0-6-3.119-6-7V35.999
				C6,32.116,8.966,28.999,12.001,28.999L12.001,28.999z"/>
		</defs>
		<linearGradient id="SVGID_15_" gradientUnits="userSpaceOnUse" x1="7.0003" y1="68.4991" x2="125.9999" y2="68.4991">
			<stop  offset="0" style="stop-color:#000000;stop-opacity:0.6"/>
			<stop  offset="1" style="stop-color:#000000;stop-opacity:0.6"/>
		</linearGradient>
		<use xlink:href="#SVGID_13_"  overflow="visible" fill-rule="evenodd" clip-rule="evenodd" fill="url(#SVGID_15_)"/>
		<use xlink:href="#SVGID_14_"  overflow="visible" fill="#FFC000"/>
		<clipPath id="SVGID_16_">
			<use xlink:href="#SVGID_13_"  overflow="visible"/>
		</clipPath>
		<clipPath id="SVGID_17_" clip-path="url(#SVGID_16_)">
			<use xlink:href="#SVGID_14_"  overflow="visible"/>
		</clipPath>
	</g>
	<g>
		<defs>
			<path id="SVGID_18_" d="M13,30.998H118c2.954,0,5.001,3.221,5.001,7v59c0,3.779-3.046,7.002-6,7.002H14c-2.954,0-6-2.221-6-6.002
				v-60C8,34.219,10.046,30.998,13,30.998L13,30.998z"/>
		</defs>
		<use xlink:href="#SVGID_18_"  overflow="visible" fill-rule="evenodd" clip-rule="evenodd"/>
		<clipPath id="SVGID_19_">
			<use xlink:href="#SVGID_18_"  overflow="visible"/>
		</clipPath>
	</g>
	<g>
		<defs>
			<path id="SVGID_20_" d="M14,101.001c-1.16,0-3.001-0.816-3.001-3.003v-60c0-2.289,1.056-4.001,2.001-4.001H118
				c0.945,0,2.001,1.712,2.001,4.001v59c0,2.21-1.815,4.002-3.001,4.002H14"/>
		</defs>
		<use xlink:href="#SVGID_20_"  overflow="visible" fill="#FFC000"/>
		<clipPath id="SVGID_21_">
			<use xlink:href="#SVGID_20_"  overflow="visible"/>
		</clipPath>
	</g>
	<g>
		<defs>
			<path id="SVGID_22_" d="M35.808,40.56v12.43h-2.344V40.56h-3.445v-2.531h9.227v2.531H35.808L35.808,40.56z M48.009,46.387
				c0.507,0.381,0.925,0.8,1.255,1.255c0.329,0.455,0.775,1.265,1.334,2.429l1.418,2.919h-2.804l-1.694-3.256
				c-0.602-1.163-1.014-1.896-1.236-2.2c-0.223-0.302-0.457-0.509-0.706-0.622c-0.247-0.111-0.641-0.168-1.179-0.168h-0.475v6.246
				h-2.345V38.029h4.934c1.24,0,2.142,0.134,2.704,0.402c0.564,0.27,1.013,0.748,1.352,1.434c0.338,0.688,0.506,1.473,0.506,2.358
				c0,1.123-0.255,2.05-0.767,2.78C49.794,45.735,49.028,46.197,48.009,46.387L48.009,46.387z M48.345,41.198
				c-0.208-0.31-0.502-0.506-0.883-0.588c-0.189-0.034-0.759-0.05-1.71-0.05h-1.828v3.796h1.733c1.126,0,1.827-0.061,2.108-0.182
				c0.279-0.123,0.499-0.334,0.657-0.633c0.158-0.299,0.237-0.674,0.237-1.123C48.658,41.913,48.553,41.506,48.345,41.198
				L48.345,41.198z M62.014,52.99l-1.014-3.398h-4.64l-0.958,3.398h-2.487l4.522-14.961h2.479l4.648,14.961H62.014L62.014,52.99z
				 M58.648,41.519l-1.568,5.551h3.167L58.648,41.519L58.648,41.519z M68.978,40.56v3.54h4.847v2.531h-4.847v6.359h-2.344V38.029
				h7.959v2.531H68.978L68.978,40.56z M79.696,40.56v3.54h4.847v2.531h-4.847v6.359h-2.344V38.029h7.959v2.531H79.696L79.696,40.56z
				 M87.984,52.99V38.029h2.345V52.99H87.984L87.984,52.99z M99.863,41.028c-0.436-0.449-0.966-0.674-1.588-0.674
				c-0.861,0-1.559,0.399-2.095,1.195c-0.536,0.796-0.804,2.085-0.804,3.867c0,1.891,0.265,3.238,0.791,4.041
				c0.528,0.804,1.215,1.205,2.059,1.205c0.623,0,1.16-0.255,1.609-0.766c0.449-0.51,0.77-1.313,0.966-2.408l2.273,0.929
				c-0.349,1.633-0.927,2.846-1.738,3.637c-0.811,0.793-1.84,1.19-3.085,1.19c-1.542,0-2.809-0.68-3.802-2.037
				c-0.992-1.357-1.488-3.213-1.488-5.567c0-2.489,0.497-4.424,1.496-5.802c0.998-1.378,2.31-2.066,3.936-2.066
				c1.421,0,2.575,0.541,3.461,1.623c0.528,0.64,0.924,1.557,1.189,2.755l-2.321,0.714C100.585,42.091,100.299,41.479,99.863,41.028
				L99.863,41.028z M38.649,75.79v-6.541h-4.594v6.541h-2.344V60.828h2.344v5.889h4.594v-5.889h2.345V75.79H38.649L38.649,75.79z
				 M52.148,75.79l-1.014-3.398h-4.64l-0.959,3.398h-2.486l4.522-14.961h2.478l4.65,14.961H52.148L52.148,75.79z M48.782,64.319
				l-1.568,5.551h3.167L48.782,64.319L48.782,64.319z M65.18,75.79h-9.432v-2.725l6.097-9.705h-5.409v-2.531h8.499v2.347
				l-6.36,10.093h6.606V75.79L65.18,75.79z M75.39,75.79l-1.013-3.398h-4.642l-0.958,3.398h-2.487l4.522-14.961h2.479l4.648,14.961
				H75.39L75.39,75.79z M72.025,64.319l-1.568,5.551h3.169L72.025,64.319L72.025,64.319z M86.435,69.187
				c0.506,0.381,0.924,0.799,1.255,1.255c0.329,0.455,0.775,1.266,1.334,2.429l1.418,2.919h-2.804l-1.694-3.256
				c-0.602-1.163-1.014-1.896-1.236-2.198c-0.223-0.304-0.457-0.51-0.706-0.623c-0.247-0.111-0.641-0.168-1.179-0.168h-0.476v6.246
				h-2.344V60.828h4.934c1.24,0,2.142,0.134,2.704,0.404c0.564,0.268,1.013,0.746,1.35,1.434c0.339,0.686,0.507,1.473,0.507,2.357
				c0,1.123-0.255,2.05-0.767,2.781C88.22,68.536,87.452,68.996,86.435,69.187L86.435,69.187z M86.771,63.997
				c-0.208-0.31-0.502-0.506-0.883-0.586c-0.189-0.034-0.759-0.052-1.71-0.052h-1.83v3.797h1.735c1.126,0,1.827-0.061,2.108-0.184
				c0.279-0.123,0.499-0.333,0.657-0.633c0.158-0.299,0.237-0.674,0.237-1.123C87.084,64.713,86.979,64.308,86.771,63.997
				L86.771,63.997z M101.889,71.635c-0.291,1.089-0.704,1.971-1.244,2.644c-0.405,0.51-0.955,0.908-1.647,1.194
				c-0.517,0.212-1.208,0.317-2.074,0.317h-4.411V60.828h4.283c0.966,0,1.704,0.095,2.21,0.286c0.682,0.258,1.265,0.719,1.751,1.378
				c0.486,0.661,0.856,1.468,1.108,2.424c0.254,0.956,0.381,2.134,0.381,3.536C102.246,69.683,102.126,70.746,101.889,71.635
				L101.889,71.635z M99.584,65.656c-0.158-0.619-0.38-1.103-0.665-1.449c-0.284-0.347-0.646-0.583-1.084-0.704
				c-0.328-0.095-0.969-0.144-1.925-0.144h-1.053v9.909h1.751c0.654,0,1.126-0.047,1.417-0.142c0.381-0.123,0.696-0.329,0.946-0.623
				c0.25-0.292,0.455-0.774,0.614-1.444c0.158-0.669,0.237-1.583,0.237-2.739C99.821,67.163,99.742,66.275,99.584,65.656
				L99.584,65.656z M45.431,98.589l-1.014-3.398h-4.64l-0.959,3.398h-2.486l4.521-14.96h2.479l4.65,14.96H45.431L45.431,98.589z
				 M42.065,87.118l-1.568,5.553h3.167L42.065,87.118L42.065,87.118z M56.981,98.589v-6.541h-4.593v6.541h-2.345V83.63h2.345v5.887
				h4.593V83.63h2.344v14.96H56.981L56.981,98.589z M71.39,96.069v2.52h-8.83V83.63h8.609v2.531h-6.265v3.316h5.829v2.521h-5.829
				v4.072H71.39L71.39,96.069z M82.108,98.589l-1.013-3.398h-4.642l-0.958,3.398h-2.487l4.522-14.96h2.479l4.648,14.96H82.108
				L82.108,98.589z M78.742,87.118l-1.567,5.553h3.167L78.742,87.118L78.742,87.118z M96.082,94.437
				c-0.291,1.089-0.704,1.969-1.244,2.642c-0.407,0.51-0.956,0.908-1.647,1.194c-0.517,0.212-1.208,0.317-2.074,0.317h-4.413V83.63
				h4.285c0.966,0,1.702,0.095,2.21,0.284c0.682,0.26,1.265,0.719,1.751,1.378c0.486,0.661,0.854,1.468,1.108,2.424
				c0.254,0.956,0.381,2.135,0.381,3.536C96.439,92.484,96.32,93.545,96.082,94.437L96.082,94.437z M93.777,88.456
				c-0.158-0.619-0.38-1.102-0.665-1.449c-0.284-0.347-0.646-0.581-1.085-0.704c-0.326-0.095-0.967-0.142-1.924-0.142H89.05v9.909
				h1.749c0.656,0,1.127-0.048,1.418-0.144c0.38-0.123,0.696-0.329,0.946-0.622c0.25-0.292,0.455-0.774,0.614-1.444
				c0.158-0.67,0.237-1.584,0.237-2.741C94.015,89.963,93.936,89.074,93.777,88.456L93.777,88.456z"/>
		</defs>
		<use xlink:href="#SVGID_22_"  overflow="visible" fill-rule="evenodd" clip-rule="evenodd"/>
		<clipPath id="SVGID_23_">
			<use xlink:href="#SVGID_22_"  overflow="visible"/>
		</clipPath>
		
			<use xlink:href="#SVGID_22_"  overflow="visible" fill-rule="evenodd" clip-rule="evenodd" fill="none" stroke="#000000" stroke-width="0.5" stroke-miterlimit="10"/>
	</g>
	<linearGradient id="SVGID_24_" gradientUnits="userSpaceOnUse" x1="101.6987" y1="119.1956" x2="29.3017" y2="15.802">
		<stop  offset="0" style="stop-color:#000000;stop-opacity:0"/>
		<stop  offset="1" style="stop-color:#FFFFFF;stop-opacity:0.25"/>
	</linearGradient>
	<path fill-rule="evenodd" clip-rule="evenodd" fill="url(#SVGID_24_)" d="M12.001,28.999H119c3.035,0,6,3.117,6,7v63.001
		c0,3.881-2.965,7-6,7H12.001c-3.035,0-6-3.119-6-7V35.999C6,32.116,8.966,28.999,12.001,28.999L12.001,28.999z"/>
</g>
</svg>
