<?xml version="1.0" encoding="utf-8"?>
<!-- Generator: Adobe Illustrator 17.0.1, SVG Export Plug-In . SVG Version: 6.00 Build 0)  -->
<!DOCTYPE svg PUBLIC "-//W3C//DTD SVG 1.1//EN" "http://www.w3.org/Graphics/SVG/1.1/DTD/svg11.dtd">
<svg version="1.1" xmlns="http://www.w3.org/2000/svg" xmlns:xlink="http://www.w3.org/1999/xlink" x="0px" y="0px" width="132px"
	 height="132px" viewBox="0 0 132 132" enable-background="new 0 0 132 132" xml:space="preserve">
<g id="disabled">
	<g>
		<defs>
			<path id="SVGID_1_" d="M72.496,5.558l54.946,54.944c3.339,3.341,3.339,8.756,0,12.097L72.599,127.44
				c-3.339,3.341-8.755,3.341-12.095,0L5.56,72.496c-3.341-3.341-3.341-8.756,0-12.097L60.4,5.558
				C63.741,2.219,69.157,2.219,72.496,5.558L72.496,5.558z"/>
		</defs>
		<defs>
			<path id="SVGID_2_" d="M71.496,4.558l54.946,54.944c3.339,3.341,3.339,8.756,0,12.097L71.599,126.44
				c-3.339,3.341-8.755,3.341-12.095,0L4.56,71.496c-3.341-3.341-3.341-8.756,0-12.097L59.4,4.558
				C62.741,1.219,68.157,1.219,71.496,4.558L71.496,4.558z"/>
		</defs>
		<linearGradient id="SVGID_3_" gradientUnits="userSpaceOnUse" x1="3.054" y1="66.5" x2="129.946" y2="66.5">
			<stop  offset="0" style="stop-color:#000000;stop-opacity:0.6"/>
			<stop  offset="1" style="stop-color:#000000;stop-opacity:0.6"/>
		</linearGradient>
		<use xlink:href="#SVGID_1_"  overflow="visible" fill-rule="evenodd" clip-rule="evenodd" fill="url(#SVGID_3_)"/>
		<use xlink:href="#SVGID_2_"  overflow="visible" fill="#BEBEBE"/>
		<clipPath id="SVGID_4_">
			<use xlink:href="#SVGID_1_"  overflow="visible"/>
		</clipPath>
		<clipPath id="SVGID_5_" clip-path="url(#SVGID_4_)">
			<use xlink:href="#SVGID_2_"  overflow="visible"/>
		</clipPath>
	</g>
	<g>
		<defs>
			<path id="SVGID_6_" d="M26.009,57.797v5.294h9.339v3.784h-9.339v9.507h-4.516v-22.37h15.334v3.784H26.009L26.009,57.797z
				 M59.638,73.704c-1.962,2.04-4.587,3.059-7.872,3.059c-3.327,0-5.973-1.014-7.935-3.045c-1.964-2.029-2.944-4.823-2.944-8.384
				c0-2.279,0.341-4.191,1.022-5.737c0.509-1.139,1.202-2.161,2.082-3.067c0.88-0.905,1.845-1.576,2.891-2.014
				c1.394-0.59,3.001-0.885,4.823-0.885c3.295,0,5.932,1.022,7.911,3.067c1.979,2.045,2.969,4.887,2.969,8.53
				C62.584,68.839,61.602,71.664,59.638,73.704L59.638,73.704z M56.229,59.384c-1.124-1.261-2.617-1.893-4.479-1.893
				c-1.861,0-3.361,0.64-4.501,1.916c-1.139,1.276-1.709,3.201-1.709,5.776c0,2.533,0.585,4.453,1.756,5.76
				c1.169,1.307,2.654,1.961,4.455,1.961c1.801,0,3.279-0.648,4.434-1.946c1.153-1.297,1.731-3.242,1.731-5.836
				C57.915,62.558,57.353,60.646,56.229,59.384L56.229,59.384z M79.765,66.51c0.976,0.569,1.782,1.195,2.418,1.877
				s1.492,1.891,2.571,3.631l2.731,4.364h-5.401l-3.266-4.868c-1.16-1.74-1.953-2.835-2.381-3.288
				c-0.426-0.452-0.88-0.762-1.358-0.93c-0.478-0.168-1.236-0.252-2.273-0.252h-0.916v9.339h-4.518v-22.37h9.507
				c2.39,0,4.128,0.202,5.211,0.602c1.084,0.402,1.951,1.118,2.602,2.145c0.651,1.027,0.977,2.201,0.977,3.524
				c0,1.678-0.494,3.066-1.481,4.157C83.202,65.536,81.727,66.224,79.765,66.51L79.765,66.51z M80.412,58.751
				c-0.402-0.464-0.969-0.756-1.701-0.879c-0.367-0.05-1.465-0.076-3.297-0.076h-3.524v5.677h3.342c2.166,0,3.519-0.092,4.059-0.275
				c0.539-0.184,0.961-0.499,1.266-0.947c0.305-0.447,0.457-1.008,0.457-1.678C81.015,59.822,80.815,59.213,80.412,58.751
				L80.412,58.751z M109.228,70.172c-0.56,1.628-1.358,2.944-2.397,3.952c-0.783,0.762-1.841,1.358-3.174,1.785
				c-0.997,0.315-2.329,0.473-3.997,0.473h-8.499v-22.37h8.255c1.862,0,3.28,0.144,4.258,0.428c1.311,0.386,2.436,1.072,3.372,2.059
				c0.935,0.987,1.647,2.195,2.135,3.624c0.489,1.429,0.733,3.192,0.733,5.286C109.915,67.252,109.685,68.839,109.228,70.172
				L109.228,70.172z M104.787,61.23c-0.305-0.925-0.732-1.647-1.281-2.168c-0.549-0.518-1.247-0.869-2.09-1.053
				c-0.632-0.142-1.867-0.213-3.708-0.213h-2.03v14.817h3.372c1.261,0,2.172-0.071,2.731-0.215c0.733-0.183,1.341-0.493,1.824-0.93
				c0.483-0.438,0.877-1.156,1.182-2.159c0.305-1.001,0.459-2.368,0.459-4.096C105.245,63.484,105.092,62.156,104.787,61.23
				L104.787,61.23z"/>
		</defs>
		<use xlink:href="#SVGID_6_"  overflow="visible" fill-rule="evenodd" clip-rule="evenodd"/>
		<clipPath id="SVGID_7_">
			<use xlink:href="#SVGID_6_"  overflow="visible"/>
		</clipPath>
	</g>
	<path fill-rule="evenodd" clip-rule="evenodd" d="M123.833,59.761L71.24,7.169c-3.198-3.198-8.381-3.198-11.579,0L7.169,59.661
		c-3.198,3.198-3.198,8.383,0,11.579l52.593,52.593c3.196,3.196,8.381,3.196,11.577,0l52.494-52.494
		C127.029,68.142,127.029,62.958,123.833,59.761z M121.712,69.218l-52.494,52.494c-0.979,0.979-2.282,1.519-3.667,1.519
		c-1.386,0-2.688-0.539-3.668-1.519L9.29,69.119c-0.98-0.979-1.52-2.282-1.52-3.667c0-1.386,0.54-2.689,1.52-3.669L61.782,9.29
		c0.98-0.98,2.283-1.52,3.668-1.52c1.385,0,2.688,0.54,3.668,1.52l52.593,52.592C123.733,63.905,123.733,67.195,121.712,69.218z"/>
	<linearGradient id="SVGID_8_" gradientUnits="userSpaceOnUse" x1="96.2153" y1="109.3648" x2="34.7855" y2="21.634">
		<stop  offset="0" style="stop-color:#000000;stop-opacity:0"/>
		<stop  offset="1" style="stop-color:#FFFFFF;stop-opacity:0.25"/>
	</linearGradient>
	<path fill-rule="evenodd" clip-rule="evenodd" fill="url(#SVGID_8_)" d="M71.496,4.558l54.946,54.944
		c3.339,3.341,3.339,8.756,0,12.097L71.599,126.44c-3.339,3.341-8.755,3.341-12.095,0L4.56,71.496
		c-3.341-3.341-3.341-8.756,0-12.097L59.4,4.558C62.741,1.219,68.157,1.219,71.496,4.558L71.496,4.558z"/>
</g>
<g id="normal">
	<g>
		<defs>
			<path id="SVGID_9_" d="M72.496,5.558l54.946,54.944c3.339,3.341,3.339,8.756,0,12.097L72.599,127.44
				c-3.339,3.341-8.755,3.341-12.095,0L5.56,72.496c-3.341-3.341-3.341-8.756,0-12.097L60.4,5.558
				C63.741,2.219,69.157,2.219,72.496,5.558L72.496,5.558z"/>
		</defs>
		<defs>
			<path id="SVGID_10_" d="M71.496,4.558l54.946,54.944c3.339,3.341,3.339,8.756,0,12.097L71.599,126.44
				c-3.339,3.341-8.755,3.341-12.095,0L4.56,71.496c-3.341-3.341-3.341-8.756,0-12.097L59.4,4.558
				C62.741,1.219,68.157,1.219,71.496,4.558L71.496,4.558z"/>
		</defs>
		<linearGradient id="SVGID_11_" gradientUnits="userSpaceOnUse" x1="3.054" y1="66.5" x2="129.946" y2="66.5">
			<stop  offset="0" style="stop-color:#000000;stop-opacity:0.6"/>
			<stop  offset="1" style="stop-color:#000000;stop-opacity:0.6"/>
		</linearGradient>
		<use xlink:href="#SVGID_9_"  overflow="visible" fill-rule="evenodd" clip-rule="evenodd" fill="url(#SVGID_11_)"/>
		<use xlink:href="#SVGID_10_"  overflow="visible" fill="#FFC000"/>
		<clipPath id="SVGID_12_">
			<use xlink:href="#SVGID_9_"  overflow="visible"/>
		</clipPath>
		<clipPath id="SVGID_13_" clip-path="url(#SVGID_12_)">
			<use xlink:href="#SVGID_10_"  overflow="visible"/>
		</clipPath>
	</g>
	<g>
		<defs>
			<path id="SVGID_14_" d="M26.009,57.797v5.294h9.339v3.784h-9.339v9.507h-4.516v-22.37h15.334v3.784H26.009L26.009,57.797z
				 M59.638,73.704c-1.962,2.04-4.587,3.059-7.872,3.059c-3.327,0-5.973-1.014-7.935-3.045c-1.964-2.029-2.944-4.823-2.944-8.384
				c0-2.279,0.341-4.191,1.022-5.737c0.509-1.139,1.202-2.161,2.082-3.067c0.88-0.905,1.845-1.576,2.891-2.014
				c1.394-0.59,3.001-0.885,4.823-0.885c3.295,0,5.932,1.022,7.911,3.067c1.979,2.045,2.969,4.887,2.969,8.53
				C62.584,68.839,61.602,71.664,59.638,73.704L59.638,73.704z M56.229,59.384c-1.124-1.261-2.617-1.893-4.479-1.893
				c-1.861,0-3.361,0.64-4.501,1.916c-1.139,1.276-1.709,3.201-1.709,5.776c0,2.533,0.585,4.453,1.756,5.76
				c1.169,1.307,2.654,1.961,4.455,1.961c1.801,0,3.279-0.648,4.434-1.946c1.153-1.297,1.731-3.242,1.731-5.836
				C57.915,62.558,57.353,60.646,56.229,59.384L56.229,59.384z M79.765,66.51c0.976,0.569,1.782,1.195,2.418,1.877
				s1.492,1.891,2.571,3.631l2.731,4.364h-5.401l-3.266-4.868c-1.16-1.74-1.953-2.835-2.381-3.288
				c-0.426-0.452-0.88-0.762-1.358-0.93c-0.478-0.168-1.236-0.252-2.273-0.252h-0.916v9.339h-4.518v-22.37h9.507
				c2.39,0,4.128,0.202,5.211,0.602c1.084,0.402,1.951,1.118,2.602,2.145c0.651,1.027,0.977,2.201,0.977,3.524
				c0,1.678-0.494,3.066-1.481,4.157C83.202,65.536,81.727,66.224,79.765,66.51L79.765,66.51z M80.412,58.751
				c-0.402-0.464-0.969-0.756-1.701-0.879c-0.367-0.05-1.465-0.076-3.297-0.076h-3.524v5.677h3.342c2.166,0,3.519-0.092,4.059-0.275
				c0.539-0.184,0.961-0.499,1.266-0.947c0.305-0.447,0.457-1.008,0.457-1.678C81.015,59.822,80.815,59.213,80.412,58.751
				L80.412,58.751z M109.228,70.172c-0.56,1.628-1.358,2.944-2.397,3.952c-0.783,0.762-1.841,1.358-3.174,1.785
				c-0.997,0.315-2.329,0.473-3.997,0.473h-8.499v-22.37h8.255c1.862,0,3.28,0.144,4.258,0.428c1.311,0.386,2.436,1.072,3.372,2.059
				c0.935,0.987,1.647,2.195,2.135,3.624c0.489,1.429,0.733,3.192,0.733,5.286C109.915,67.252,109.685,68.839,109.228,70.172
				L109.228,70.172z M104.787,61.23c-0.305-0.925-0.732-1.647-1.281-2.168c-0.549-0.518-1.247-0.869-2.09-1.053
				c-0.632-0.142-1.867-0.213-3.708-0.213h-2.03v14.817h3.372c1.261,0,2.172-0.071,2.731-0.215c0.733-0.183,1.341-0.493,1.824-0.93
				c0.483-0.438,0.877-1.156,1.182-2.159c0.305-1.001,0.459-2.368,0.459-4.096C105.245,63.484,105.092,62.156,104.787,61.23
				L104.787,61.23z"/>
		</defs>
		<use xlink:href="#SVGID_14_"  overflow="visible" fill-rule="evenodd" clip-rule="evenodd"/>
		<clipPath id="SVGID_15_">
			<use xlink:href="#SVGID_14_"  overflow="visible"/>
		</clipPath>
	</g>
	<path fill-rule="evenodd" clip-rule="evenodd" d="M123.833,59.761L71.24,7.169c-3.198-3.198-8.381-3.198-11.579,0L7.169,59.661
		c-3.198,3.198-3.198,8.383,0,11.579l52.593,52.593c3.196,3.196,8.381,3.196,11.577,0l52.494-52.494
		C127.029,68.142,127.029,62.958,123.833,59.761z M121.712,69.218l-52.494,52.494c-0.979,0.979-2.282,1.519-3.667,1.519
		c-1.386,0-2.688-0.539-3.668-1.519L9.29,69.119c-0.98-0.979-1.52-2.282-1.52-3.667c0-1.386,0.54-2.689,1.52-3.669L61.782,9.29
		c0.98-0.98,2.283-1.52,3.668-1.52c1.385,0,2.688,0.54,3.668,1.52l52.593,52.592C123.733,63.905,123.733,67.195,121.712,69.218z"/>
	<linearGradient id="SVGID_16_" gradientUnits="userSpaceOnUse" x1="96.2153" y1="109.3648" x2="34.7855" y2="21.634">
		<stop  offset="0" style="stop-color:#000000;stop-opacity:0"/>
		<stop  offset="1" style="stop-color:#FFFFFF;stop-opacity:0.25"/>
	</linearGradient>
	<path fill-rule="evenodd" clip-rule="evenodd" fill="url(#SVGID_16_)" d="M71.496,4.558l54.946,54.944
		c3.339,3.341,3.339,8.756,0,12.097L71.599,126.44c-3.339,3.341-8.755,3.341-12.095,0L4.56,71.496
		c-3.341-3.341-3.341-8.756,0-12.097L59.4,4.558C62.741,1.219,68.157,1.219,71.496,4.558L71.496,4.558z"/>
</g>
</svg>
