<?xml version="1.0" encoding="utf-8"?>
<!-- Generator: Adobe Illustrator 17.0.1, SVG Export Plug-In . SVG Version: 6.00 Build 0)  -->
<!DOCTYPE svg PUBLIC "-//W3C//DTD SVG 1.1//EN" "http://www.w3.org/Graphics/SVG/1.1/DTD/svg11.dtd">
<svg version="1.1" xmlns="http://www.w3.org/2000/svg" xmlns:xlink="http://www.w3.org/1999/xlink" x="0px" y="0px" width="132px"
	 height="132px" viewBox="0 0 132 132" enable-background="new 0 0 132 132" xml:space="preserve">
<g id="disabled">
	<g>
		<defs>
			<path id="SVGID_1_" d="M16.058,23.001h100.999c5.767-0.071,9.916,3.501,11.341,6.53l0,0c1.488,3.019,1.648,6.292,1.659,6.469l0,0
				V97c0.071,5.764-3.339,9.593-6.367,11.018l0,0c-3.018,1.49-6.459,1.973-6.633,1.982l0,0H15.058c-0.065,0.002,0.063,0,0,0l0,0
				c-5.653,0-9.591-4.006-11-7l0,0c-1.493-3.019-1.053-5.478-1.065-5.651l0,0l0.065-61.35c-0.074-5.767,2.971-9.575,6-10.998
				l0.12-0.176C12.195,23.335,15.884,23.014,16.058,23.001L16.058,23.001"/>
		</defs>
		<defs>
			<path id="SVGID_2_" d="M15.058,22.001h100.999c5.767-0.071,9.916,3.501,11.341,6.53l0,0c1.488,3.019,1.648,6.292,1.659,6.469l0,0
				V96c0.071,5.764-3.339,9.593-6.367,11.018l0,0c-3.018,1.49-6.459,1.973-6.633,1.982l0,0H14.058c-0.065,0.002,0.063,0,0,0l0,0
				c-5.653,0-9.591-4.006-11-7l0,0c-1.493-3.019-1.053-5.478-1.065-5.651l0,0l0.065-61.35c-0.074-5.767,2.971-9.575,6-10.998
				l0.12-0.176C11.195,22.335,14.884,22.014,15.058,22.001L15.058,22.001"/>
		</defs>
		<linearGradient id="SVGID_3_" gradientUnits="userSpaceOnUse" x1="2.9414" y1="66.5004" x2="130.0586" y2="66.5004">
			<stop  offset="0" style="stop-color:#000000;stop-opacity:0.6"/>
			<stop  offset="1" style="stop-color:#000000;stop-opacity:0.6"/>
		</linearGradient>
		<use xlink:href="#SVGID_1_"  overflow="visible" fill-rule="evenodd" clip-rule="evenodd" fill="url(#SVGID_3_)"/>
		<use xlink:href="#SVGID_2_"  overflow="visible" fill-rule="evenodd" clip-rule="evenodd" fill="#FFFFFF"/>
		<clipPath id="SVGID_4_">
			<use xlink:href="#SVGID_1_"  overflow="visible"/>
		</clipPath>
		<clipPath id="SVGID_5_" clip-path="url(#SVGID_4_)">
			<use xlink:href="#SVGID_2_"  overflow="visible"/>
		</clipPath>
	</g>
	<g>
		<defs>
			<path id="SVGID_6_" d="M123.058,107.001c-3.019,1.489-5.826,1.99-6,2H14.058c-5.653,0-9.179-3.696-10.588-6.69
				c-1.492-3.019-1.465-5.787-1.476-5.962L2.057,34c-0.073-5.768,3.09-8.75,6.12-10.174c3.019-1.489,5.707-1.812,5.881-1.825
				h101.999c5.768-0.071,9.916,3.502,11.34,6.532c1.489,3.019,1.649,6.291,1.66,6.467v61
				C129.129,101.764,126.085,105.576,123.058,107.001L123.058,107.001z M127.199,34.495c-0.01-0.003-0.026-10.441-10.47-10.475
				H14.141c-0.005,0.011-10.439,0.027-10.471,10.475v61.851c0.011,0.003,0.024,10.441,10.471,10.471h102.589
				c0.003-0.01,10.438-0.026,10.47-10.471V34.495L127.199,34.495z"/>
		</defs>
		<use xlink:href="#SVGID_6_"  overflow="visible" fill-rule="evenodd" clip-rule="evenodd"/>
		<clipPath id="SVGID_7_">
			<use xlink:href="#SVGID_6_"  overflow="visible"/>
		</clipPath>
	</g>
	<g>
		<defs>
			<path id="SVGID_8_" d="M116.058,105.999h-101C5.176,105.999,5.058,96,5.058,96V34.999c0-9.825,9.999-9.999,9.999-9.999h101
				c9.88,0,9.999,9.999,9.999,9.999V95C126.058,104.825,116.058,105.999,116.058,105.999L116.058,105.999z M118.058,44l-9-14
				L65.724,56.5L23.058,30l-9,15l35,21l-35,21l9,14l43-25.001l43,26.001l9.999-15l-36-21L118.058,44L118.058,44z"/>
		</defs>
		<use xlink:href="#SVGID_8_"  overflow="visible" fill="#5C5C5C"/>
		<clipPath id="SVGID_9_">
			<use xlink:href="#SVGID_8_"  overflow="visible"/>
		</clipPath>
	</g>
	<g>
		<defs>
			<path id="SVGID_10_" d="M108.585,102.034c0,0-42.168-25.492-42.669-25.796c-0.507,0.297-42.595,24.87-42.595,24.87
				c-0.079,0.047-0.166,0.069-0.252,0.069c-0.168,0-0.331-0.086-0.425-0.237L14.04,86.997c-0.05-0.081-0.076-0.171-0.076-0.263
				c0-0.04,0.006-0.081,0.016-0.121c0.032-0.131,0.116-0.244,0.234-0.312c0,0,33.397-19.391,34.826-20.222
				c-1.428-0.83-35.548-20.69-35.548-20.69c-0.116-0.069-0.2-0.181-0.233-0.312c-0.01-0.04-0.016-0.081-0.016-0.121
				c0-0.092,0.026-0.184,0.076-0.263l9.017-14.523c0.095-0.153,0.258-0.237,0.425-0.237c0.089,0,0.179,0.024,0.26,0.074
				c0,0,42.122,25.645,42.637,25.959c0.512-0.312,43.041-26.157,43.041-26.157c0.081-0.048,0.17-0.073,0.258-0.073
				c0.163,0,0.321,0.079,0.418,0.225l9.142,13.824c0.055,0.082,0.082,0.178,0.082,0.275c0,0.037-0.003,0.074-0.011,0.11
				c-0.029,0.132-0.111,0.247-0.226,0.318c0,0-33.211,20.365-34.569,21.197c1.37,0.812,34.942,20.701,34.942,20.701
				c0.116,0.069,0.2,0.182,0.231,0.317c0.01,0.037,0.013,0.076,0.013,0.115c0,0.095-0.027,0.189-0.081,0.271l-9.638,14.792
				c-0.095,0.147-0.255,0.228-0.418,0.228C108.754,102.107,108.666,102.083,108.585,102.034"/>
		</defs>
		<use xlink:href="#SVGID_10_"  overflow="visible" fill-rule="evenodd" clip-rule="evenodd"/>
		<clipPath id="SVGID_11_">
			<use xlink:href="#SVGID_10_"  overflow="visible"/>
		</clipPath>
	</g>
	<g>
		<defs>
			<path id="SVGID_12_" d="M66.179,75.229c-0.079-0.048-0.17-0.073-0.258-0.073c-0.087,0-0.174,0.023-0.252,0.069
				c0,0-41.605,24.292-42.43,24.775c-0.465-0.754-7.588-12.296-8.079-13.092c0.867-0.504,35.126-20.396,35.126-20.396
				c0.155-0.09,0.25-0.255,0.25-0.433c0-0.178-0.095-0.342-0.249-0.433c0,0-34.979-20.359-35.847-20.865
				c0.496-0.798,8.006-12.895,8.484-13.664c0.83,0.506,42.475,25.859,42.475,25.859c0.081,0.05,0.171,0.074,0.262,0.074
				c0.09,0,0.179-0.024,0.258-0.073c0,0,42.081-25.573,42.887-26.064c0.485,0.733,8.071,12.202,8.591,12.989
				c-0.859,0.527-34.836,21.36-34.836,21.36c-0.149,0.092-0.239,0.255-0.239,0.43c0.002,0.176,0.095,0.338,0.246,0.426
				c0,0,34.335,20.343,35.209,20.86c-0.522,0.799-8.606,13.205-9.09,13.948C107.877,100.438,66.179,75.229,66.179,75.229"/>
		</defs>
		<use xlink:href="#SVGID_12_"  overflow="visible" fill-rule="evenodd" clip-rule="evenodd" fill="#FFFFFF"/>
		<clipPath id="SVGID_13_">
			<use xlink:href="#SVGID_12_"  overflow="visible"/>
		</clipPath>
	</g>
	<g>
		<defs>
			<path id="SVGID_14_" d="M36.728,88.192c-0.313,0.78-0.909,1.436-1.793,1.966c-1.092,0.656-2.213,0.822-3.364,0.497
				c-1.153-0.323-2.116-1.132-2.893-2.424c-0.824-1.368-1.11-2.646-0.858-3.826c0.252-1.182,0.956-2.121,2.106-2.812
				c1.006-0.606,2.001-0.798,2.986-0.581c0.586,0.126,1.169,0.464,1.752,1.008l-1.408,1.383c-0.354-0.368-0.757-0.583-1.215-0.646
				c-0.457-0.06-0.906,0.042-1.347,0.307c-0.611,0.365-0.974,0.882-1.089,1.547c-0.118,0.665,0.12,1.489,0.709,2.47
				c0.623,1.039,1.255,1.667,1.895,1.883c0.638,0.216,1.257,0.145,1.856-0.213c0.441-0.266,0.735-0.635,0.885-1.106
				s0.111-1.05-0.111-1.736l1.917-0.455C37.05,86.498,37.04,87.411,36.728,88.192L36.728,88.192z M47.393,82.481l-2.277-1.068
				c-0.809-0.381-1.342-0.611-1.601-0.683c-0.257-0.071-0.493-0.086-0.704-0.042c-0.213,0.044-0.512,0.181-0.892,0.41l-0.336,0.202
				l2.063,3.432l-1.662,0.998l-4.941-8.223l3.495-2.101c0.879-0.527,1.56-0.838,2.048-0.929c0.488-0.09,0.964-0.021,1.431,0.213
				c0.467,0.234,0.843,0.594,1.137,1.081c0.371,0.617,0.496,1.236,0.376,1.854c-0.123,0.622-0.512,1.202-1.173,1.738
				c0.486-0.005,0.919,0.047,1.305,0.158c0.384,0.108,0.967,0.365,1.748,0.766l1.967,1.001L47.393,82.481L47.393,82.481z
				 M43.509,76.906c-0.168-0.276-0.376-0.454-0.625-0.536c-0.25-0.081-0.523-0.065-0.819,0.053
				c-0.147,0.061-0.557,0.294-1.229,0.699l-1.295,0.779l1.255,2.087l1.228-0.737c0.795-0.48,1.273-0.812,1.431-1
				c0.157-0.184,0.244-0.396,0.258-0.627C43.724,77.392,43.656,77.153,43.509,76.906L43.509,76.906z M58.53,74.451
				c-0.273,1.184-1.013,2.138-2.219,2.864c-1.224,0.735-2.42,0.946-3.59,0.633c-1.169-0.312-2.147-1.121-2.935-2.429
				c-0.502-0.84-0.801-1.617-0.892-2.337c-0.065-0.531-0.034-1.061,0.089-1.586c0.123-0.528,0.329-0.988,0.619-1.381
				c0.381-0.525,0.908-0.988,1.576-1.389c1.211-0.728,2.408-0.937,3.587-0.62c1.177,0.313,2.171,1.14,2.975,2.479
				C58.536,72.01,58.799,73.267,58.53,74.451L58.53,74.451z M56,71.676c-0.567-0.943-1.197-1.521-1.89-1.736
				c-0.691-0.215-1.378-0.118-2.064,0.292c-0.685,0.412-1.093,0.979-1.231,1.699c-0.137,0.722,0.078,1.554,0.646,2.502
				c0.56,0.93,1.2,1.507,1.919,1.73c0.719,0.223,1.408,0.132,2.071-0.263c0.661-0.399,1.063-0.963,1.2-1.696
				C56.789,73.474,56.574,72.629,56,71.676L56,71.676z M68.466,69.61c-0.359,0.488-0.895,0.945-1.609,1.376
				c-1.04,0.625-1.983,0.864-2.828,0.719c-0.848-0.147-1.601-0.646-2.261-1.502l1.52-1.127c0.425,0.483,0.859,0.764,1.311,0.84
				c0.449,0.074,0.927-0.04,1.433-0.342c0.535-0.321,0.869-0.677,1.005-1.066s0.111-0.737-0.069-1.039
				c-0.118-0.194-0.275-0.325-0.472-0.394c-0.195-0.068-0.465-0.066-0.811,0.005c-0.234,0.047-0.749,0.195-1.544,0.439
				c-1.024,0.315-1.812,0.417-2.363,0.312c-0.777-0.149-1.362-0.549-1.752-1.2c-0.25-0.418-0.368-0.882-0.35-1.389
				c0.019-0.507,0.194-0.992,0.527-1.45c0.333-0.459,0.816-0.877,1.447-1.258c1.034-0.62,1.945-0.861,2.739-0.722
				c0.791,0.139,1.429,0.578,1.909,1.318l-1.617,1.071c-0.325-0.381-0.659-0.593-1.005-0.636c-0.344-0.045-0.751,0.073-1.219,0.354
				c-0.481,0.289-0.799,0.617-0.953,0.979c-0.1,0.233-0.086,0.455,0.042,0.667c0.116,0.195,0.3,0.312,0.548,0.352
				c0.315,0.05,0.935-0.071,1.856-0.367c0.922-0.294,1.638-0.457,2.148-0.484c0.51-0.029,0.98,0.068,1.412,0.289
				c0.43,0.223,0.801,0.593,1.114,1.113c0.283,0.472,0.418,0.992,0.402,1.56C69.01,68.594,68.825,69.122,68.466,69.61L68.466,69.61z
				 M78.427,63.624c-0.359,0.488-0.893,0.946-1.609,1.376c-1.039,0.625-1.983,0.864-2.828,0.719
				c-0.846-0.147-1.601-0.646-2.261-1.502l1.521-1.127c0.423,0.483,0.859,0.764,1.31,0.84c0.449,0.074,0.927-0.039,1.433-0.341
				c0.535-0.325,0.869-0.678,1.006-1.069c0.134-0.388,0.111-0.733-0.071-1.037c-0.116-0.194-0.275-0.326-0.47-0.392
				c-0.195-0.069-0.465-0.068-0.811,0.002c-0.236,0.05-0.751,0.197-1.546,0.439c-1.024,0.315-1.811,0.418-2.363,0.313
				c-0.777-0.149-1.362-0.548-1.752-1.198c-0.25-0.42-0.367-0.883-0.35-1.391c0.021-0.507,0.195-0.99,0.528-1.449
				c0.333-0.46,0.814-0.879,1.446-1.26c1.034-0.62,1.945-0.861,2.739-0.72c0.793,0.137,1.431,0.577,1.911,1.316l-1.618,1.072
				c-0.323-0.381-0.659-0.594-1.003-0.638c-0.344-0.045-0.751,0.074-1.219,0.354c-0.481,0.291-0.799,0.617-0.953,0.979
				c-0.102,0.233-0.087,0.455,0.04,0.669c0.118,0.194,0.3,0.312,0.548,0.35c0.317,0.05,0.935-0.071,1.857-0.367
				c0.922-0.296,1.638-0.457,2.148-0.486c0.509-0.027,0.98,0.068,1.412,0.291c0.428,0.221,0.801,0.593,1.114,1.114
				c0.283,0.47,0.417,0.988,0.402,1.559C78.973,62.608,78.787,63.137,78.427,63.624L78.427,63.624z M83.668,60.685l-4.941-8.223
				l1.659-0.998l4.942,8.224L83.668,60.685L83.668,60.685z M94.084,54.428l-6.54-3.372l3.224,5.364l-1.542,0.927l-4.941-8.224
				l1.615-0.971l6.666,3.471l-3.301-5.493l1.542-0.927l4.942,8.224L94.084,54.428L94.084,54.428z M101.8,45.675l-0.832-1.386
				l3.579-2.15l1.967,3.276c-0.144,0.546-0.47,1.145-0.977,1.798c-0.506,0.652-1.098,1.181-1.775,1.589
				c-0.861,0.517-1.715,0.787-2.573,0.811c-0.856,0.023-1.647-0.203-2.371-0.683c-0.727-0.478-1.326-1.111-1.801-1.899
				c-0.514-0.858-0.793-1.727-0.832-2.607c-0.042-0.882,0.176-1.709,0.654-2.481c0.365-0.588,0.94-1.119,1.725-1.591
				c1.021-0.614,1.946-0.879,2.776-0.796c0.833,0.084,1.557,0.452,2.176,1.111l-1.463,1.299c-0.357-0.336-0.769-0.522-1.228-0.564
				c-0.46-0.04-0.932,0.082-1.41,0.368c-0.725,0.436-1.165,1.013-1.316,1.73c-0.15,0.719,0.045,1.53,0.59,2.434
				c0.585,0.976,1.242,1.578,1.97,1.804c0.725,0.229,1.441,0.131,2.145-0.292c0.347-0.208,0.656-0.486,0.924-0.833
				c0.266-0.346,0.468-0.691,0.601-1.035l-0.625-1.045L101.8,45.675L101.8,45.675z M92.987,75.667l-6.939,7.024l-1.762-1.06
				l2.058-7.133l-5.327,5.168l-1.803-1.082l2.978-9.403l1.699,1.019l-2.155,6.396l4.9-4.745l1.974,1.187l-2.009,6.611l4.713-4.988
				L92.987,75.667L92.987,75.667z M97.975,89.858l-1.806-1.085l0.404-2.302l-3.287-1.974l-1.801,1.46l-1.761-1.06l8.142-6.297
				l1.757,1.055L97.975,89.858L97.975,89.858z M94.628,83.418l2.247,1.349l0.698-3.733L94.628,83.418L94.628,83.418z
				 M111.864,87.012l-5.892,2.956l-2.072,3.45l-1.654-0.995l2.079-3.461l-0.15-6.574l1.946,1.169l-0.019,4.417l3.851-2.114
				L111.864,87.012L111.864,87.012z"/>
		</defs>
		<use xlink:href="#SVGID_14_"  overflow="visible" fill-rule="evenodd" clip-rule="evenodd"/>
		<clipPath id="SVGID_15_">
			<use xlink:href="#SVGID_14_"  overflow="visible"/>
		</clipPath>
	</g>
	<g>
		<defs>
			<path id="SVGID_16_" d="M29.682,40.293l-2.4-1.441l-4.049,6.735l-1.636-0.982l4.049-6.737l-2.408-1.447l0.825-1.37l6.443,3.87
				L29.682,40.293L29.682,40.293z M37.796,46.399c-0.367,0.609-0.846,1.001-1.442,1.184c-0.594,0.183-1.281,0.11-2.053-0.215
				c0.229,0.42,0.384,0.822,0.467,1.208c0.082,0.384,0.129,1.009,0.141,1.875l0.04,2.177l-1.958-1.176l-0.124-2.476
				c-0.042-0.882-0.09-1.454-0.145-1.71c-0.058-0.258-0.153-0.468-0.291-0.633c-0.137-0.165-0.394-0.36-0.769-0.588l-0.331-0.199
				l-2.035,3.387l-1.638-0.985l4.871-8.106l3.447,2.069c0.866,0.522,1.454,0.972,1.757,1.354c0.305,0.38,0.464,0.83,0.478,1.344
				C38.222,45.422,38.084,45.917,37.796,46.399L37.796,46.399z M35.8,44.008c-0.123-0.097-0.515-0.346-1.179-0.745l-1.276-0.769
				l-1.237,2.058l1.21,0.728c0.787,0.472,1.297,0.733,1.531,0.783c0.236,0.052,0.459,0.029,0.665-0.065
				c0.208-0.097,0.386-0.266,0.533-0.51c0.163-0.273,0.221-0.538,0.178-0.791C36.179,44.441,36.039,44.212,35.8,44.008L35.8,44.008z
				 M44.108,58.131l-1.78-1.069l0.397-2.266l-3.242-1.948l-1.775,1.439l-1.738-1.043l8.031-6.21l1.731,1.039L44.108,58.131
				L44.108,58.131z M40.808,51.784l2.213,1.329l0.691-3.679L40.808,51.784L40.808,51.784z M58.622,55.817l-4.873,8.108l-1.523-0.914
				l3.836-6.382l-5.445,5.414l-1.576-0.946l2.231-7.346l-3.834,6.381l-1.52-0.913l4.871-8.108l2.45,1.471l-1.853,6.414l4.779-4.655
				L58.622,55.817L58.622,55.817z"/>
		</defs>
		<use xlink:href="#SVGID_16_"  overflow="visible" fill-rule="evenodd" clip-rule="evenodd"/>
		<clipPath id="SVGID_17_">
			<use xlink:href="#SVGID_16_"  overflow="visible"/>
		</clipPath>
	</g>
	<linearGradient id="SVGID_18_" gradientUnits="userSpaceOnUse" x1="103.8156" y1="120.3955" x2="26.9519" y2="10.6227">
		<stop  offset="0" style="stop-color:#000000;stop-opacity:0"/>
		<stop  offset="1" style="stop-color:#FFFFFF;stop-opacity:0.25"/>
	</linearGradient>
	<path fill-rule="evenodd" clip-rule="evenodd" fill="url(#SVGID_18_)" d="M15.058,22.001h100.999
		c5.767-0.071,9.916,3.501,11.341,6.53l0,0c1.488,3.019,1.648,6.292,1.659,6.469l0,0V96c0.071,5.764-3.339,9.593-6.367,11.018l0,0
		c-3.018,1.49-6.459,1.973-6.633,1.982l0,0H14.058c-0.065,0.002,0.063,0,0,0l0,0c-5.653,0-9.591-4.006-11-7l0,0
		c-1.493-3.019-1.053-5.478-1.065-5.651l0,0l0.065-61.35c-0.074-5.767,2.971-9.575,6-10.998l0.12-0.176
		C11.195,22.335,14.884,22.014,15.058,22.001L15.058,22.001"/>
</g>
<g id="normal">
	<g>
		<defs>
			<path id="SVGID_19_" d="M16.058,23.001h100.999c5.767-0.071,9.916,3.501,11.341,6.53l0,0c1.488,3.019,1.648,6.292,1.659,6.469
				l0,0V97c0.071,5.764-3.339,9.593-6.367,11.018l0,0c-3.018,1.49-6.459,1.973-6.633,1.982l0,0H15.058c-0.065,0.002,0.063,0,0,0l0,0
				c-5.653,0-9.591-4.006-11-7l0,0c-1.493-3.019-1.053-5.478-1.065-5.651l0,0l0.065-61.35c-0.074-5.767,2.971-9.575,6-10.998
				l0.12-0.176C12.195,23.335,15.884,23.014,16.058,23.001L16.058,23.001"/>
		</defs>
		<defs>
			<path id="SVGID_20_" d="M15.058,22.001h100.999c5.767-0.071,9.916,3.501,11.341,6.53l0,0c1.488,3.019,1.648,6.292,1.659,6.469
				l0,0V96c0.071,5.764-3.339,9.593-6.367,11.018l0,0c-3.018,1.49-6.459,1.973-6.633,1.982l0,0H14.058c-0.065,0.002,0.063,0,0,0l0,0
				c-5.653,0-9.591-4.006-11-7l0,0c-1.493-3.019-1.053-5.478-1.065-5.651l0,0l0.065-61.35c-0.074-5.767,2.971-9.575,6-10.998
				l0.12-0.176C11.195,22.335,14.884,22.014,15.058,22.001L15.058,22.001"/>
		</defs>
		<linearGradient id="SVGID_21_" gradientUnits="userSpaceOnUse" x1="2.9414" y1="66.5004" x2="130.0586" y2="66.5004">
			<stop  offset="0" style="stop-color:#000000;stop-opacity:0.6"/>
			<stop  offset="1" style="stop-color:#000000;stop-opacity:0.6"/>
		</linearGradient>
		<use xlink:href="#SVGID_19_"  overflow="visible" fill-rule="evenodd" clip-rule="evenodd" fill="url(#SVGID_21_)"/>
		<use xlink:href="#SVGID_20_"  overflow="visible" fill-rule="evenodd" clip-rule="evenodd" fill="#FFFFFF"/>
		<clipPath id="SVGID_22_">
			<use xlink:href="#SVGID_19_"  overflow="visible"/>
		</clipPath>
		<clipPath id="SVGID_23_" clip-path="url(#SVGID_22_)">
			<use xlink:href="#SVGID_20_"  overflow="visible"/>
		</clipPath>
	</g>
	<g>
		<defs>
			<path id="SVGID_24_" d="M123.058,107.001c-3.019,1.489-5.826,1.99-6,2H14.058c-5.653,0-9.179-3.696-10.588-6.69
				c-1.492-3.019-1.465-5.787-1.476-5.962L2.057,34c-0.073-5.768,3.09-8.75,6.12-10.174c3.019-1.489,5.707-1.812,5.881-1.825
				h101.999c5.768-0.071,9.916,3.502,11.34,6.532c1.489,3.019,1.649,6.291,1.66,6.467v61
				C129.129,101.764,126.085,105.576,123.058,107.001L123.058,107.001z M127.199,34.495c-0.01-0.003-0.026-10.441-10.47-10.475
				H14.141c-0.005,0.011-10.439,0.027-10.471,10.475v61.851c0.011,0.003,0.024,10.441,10.471,10.471h102.589
				c0.003-0.01,10.438-0.026,10.47-10.471V34.495L127.199,34.495z"/>
		</defs>
		<use xlink:href="#SVGID_24_"  overflow="visible" fill-rule="evenodd" clip-rule="evenodd"/>
		<clipPath id="SVGID_25_">
			<use xlink:href="#SVGID_24_"  overflow="visible"/>
		</clipPath>
	</g>
	<g>
		<defs>
			<path id="SVGID_26_" d="M116.058,105.999h-101C5.176,105.999,5.058,96,5.058,96V34.999c0-9.825,9.999-9.999,9.999-9.999h101
				c9.88,0,9.999,9.999,9.999,9.999V95C126.058,104.825,116.058,105.999,116.058,105.999L116.058,105.999z M118.058,44l-9-14
				L65.724,56.5L23.058,30l-9,15l35,21l-35,21l9,14l43-25.001l43,26.001l9.999-15l-36-21L118.058,44L118.058,44z"/>
		</defs>
		<use xlink:href="#SVGID_26_"  overflow="visible" fill="#ED1C24"/>
		<clipPath id="SVGID_27_">
			<use xlink:href="#SVGID_26_"  overflow="visible"/>
		</clipPath>
	</g>
	<g>
		<defs>
			<path id="SVGID_28_" d="M108.585,102.034c0,0-42.168-25.492-42.669-25.796c-0.507,0.297-42.595,24.87-42.595,24.87
				c-0.079,0.047-0.166,0.069-0.252,0.069c-0.168,0-0.331-0.086-0.425-0.237L14.04,86.997c-0.05-0.081-0.076-0.171-0.076-0.263
				c0-0.04,0.006-0.081,0.016-0.121c0.032-0.131,0.116-0.244,0.234-0.312c0,0,33.397-19.391,34.826-20.222
				c-1.428-0.83-35.548-20.69-35.548-20.69c-0.116-0.069-0.2-0.181-0.233-0.312c-0.01-0.04-0.016-0.081-0.016-0.121
				c0-0.092,0.026-0.184,0.076-0.263l9.017-14.523c0.095-0.153,0.258-0.237,0.425-0.237c0.089,0,0.179,0.024,0.26,0.074
				c0,0,42.122,25.645,42.637,25.959c0.512-0.312,43.041-26.157,43.041-26.157c0.081-0.048,0.17-0.073,0.258-0.073
				c0.163,0,0.321,0.079,0.418,0.225l9.142,13.824c0.055,0.082,0.082,0.178,0.082,0.275c0,0.037-0.003,0.074-0.011,0.11
				c-0.029,0.132-0.111,0.247-0.226,0.318c0,0-33.211,20.365-34.569,21.197c1.37,0.812,34.942,20.701,34.942,20.701
				c0.116,0.069,0.2,0.182,0.231,0.317c0.01,0.037,0.013,0.076,0.013,0.115c0,0.095-0.027,0.189-0.081,0.271l-9.638,14.792
				c-0.095,0.147-0.255,0.228-0.418,0.228C108.754,102.107,108.666,102.083,108.585,102.034"/>
		</defs>
		<use xlink:href="#SVGID_28_"  overflow="visible" fill-rule="evenodd" clip-rule="evenodd"/>
		<clipPath id="SVGID_29_">
			<use xlink:href="#SVGID_28_"  overflow="visible"/>
		</clipPath>
	</g>
	<g>
		<defs>
			<path id="SVGID_30_" d="M66.179,75.229c-0.079-0.048-0.17-0.073-0.258-0.073c-0.087,0-0.174,0.023-0.252,0.069
				c0,0-41.605,24.292-42.43,24.775c-0.465-0.754-7.588-12.296-8.079-13.092c0.867-0.504,35.126-20.396,35.126-20.396
				c0.155-0.09,0.25-0.255,0.25-0.433c0-0.178-0.095-0.342-0.249-0.433c0,0-34.979-20.359-35.847-20.865
				c0.496-0.798,8.006-12.895,8.484-13.664c0.83,0.506,42.475,25.859,42.475,25.859c0.081,0.05,0.171,0.074,0.262,0.074
				c0.09,0,0.179-0.024,0.258-0.073c0,0,42.081-25.573,42.887-26.064c0.485,0.733,8.071,12.202,8.591,12.989
				c-0.859,0.527-34.836,21.36-34.836,21.36c-0.149,0.092-0.239,0.255-0.239,0.43c0.002,0.176,0.095,0.338,0.246,0.426
				c0,0,34.335,20.343,35.209,20.86c-0.522,0.799-8.606,13.205-9.09,13.948C107.877,100.438,66.179,75.229,66.179,75.229"/>
		</defs>
		<use xlink:href="#SVGID_30_"  overflow="visible" fill-rule="evenodd" clip-rule="evenodd" fill="#FFFFFF"/>
		<clipPath id="SVGID_31_">
			<use xlink:href="#SVGID_30_"  overflow="visible"/>
		</clipPath>
	</g>
	<g>
		<defs>
			<path id="SVGID_32_" d="M36.728,88.192c-0.313,0.78-0.909,1.436-1.793,1.966c-1.092,0.656-2.213,0.822-3.364,0.497
				c-1.153-0.323-2.116-1.132-2.893-2.424c-0.824-1.368-1.11-2.646-0.858-3.826c0.252-1.182,0.956-2.121,2.106-2.812
				c1.006-0.606,2.001-0.798,2.986-0.581c0.586,0.126,1.169,0.464,1.752,1.008l-1.408,1.383c-0.354-0.368-0.757-0.583-1.215-0.646
				c-0.457-0.06-0.906,0.042-1.347,0.307c-0.611,0.365-0.974,0.882-1.089,1.547c-0.118,0.665,0.12,1.489,0.709,2.47
				c0.623,1.039,1.255,1.667,1.895,1.883c0.638,0.216,1.257,0.145,1.856-0.213c0.441-0.266,0.735-0.635,0.885-1.106
				s0.111-1.05-0.111-1.736l1.917-0.455C37.05,86.498,37.04,87.411,36.728,88.192L36.728,88.192z M47.393,82.481l-2.277-1.068
				c-0.809-0.381-1.342-0.611-1.601-0.683c-0.257-0.071-0.493-0.086-0.704-0.042c-0.213,0.044-0.512,0.181-0.892,0.41l-0.336,0.202
				l2.063,3.432l-1.662,0.998l-4.941-8.223l3.495-2.101c0.879-0.527,1.56-0.838,2.048-0.929c0.488-0.09,0.964-0.021,1.431,0.213
				c0.467,0.234,0.843,0.594,1.137,1.081c0.371,0.617,0.496,1.236,0.376,1.854c-0.123,0.622-0.512,1.202-1.173,1.738
				c0.486-0.005,0.919,0.047,1.305,0.158c0.384,0.108,0.967,0.365,1.748,0.766l1.967,1.001L47.393,82.481L47.393,82.481z
				 M43.509,76.906c-0.168-0.276-0.376-0.454-0.625-0.536c-0.25-0.081-0.523-0.065-0.819,0.053
				c-0.147,0.061-0.557,0.294-1.229,0.699l-1.295,0.779l1.255,2.087l1.228-0.737c0.795-0.48,1.273-0.812,1.431-1
				c0.157-0.184,0.244-0.396,0.258-0.627C43.724,77.392,43.656,77.153,43.509,76.906L43.509,76.906z M58.53,74.451
				c-0.273,1.184-1.013,2.138-2.219,2.864c-1.224,0.735-2.42,0.946-3.59,0.633c-1.169-0.312-2.147-1.121-2.935-2.429
				c-0.502-0.84-0.801-1.617-0.892-2.337c-0.065-0.531-0.034-1.061,0.089-1.586c0.123-0.528,0.329-0.988,0.619-1.381
				c0.381-0.525,0.908-0.988,1.576-1.389c1.211-0.728,2.408-0.937,3.587-0.62c1.177,0.313,2.171,1.14,2.975,2.479
				C58.536,72.01,58.799,73.267,58.53,74.451L58.53,74.451z M56,71.676c-0.567-0.943-1.197-1.521-1.89-1.736
				c-0.691-0.215-1.378-0.118-2.064,0.292c-0.685,0.412-1.093,0.979-1.231,1.699c-0.137,0.722,0.078,1.554,0.646,2.502
				c0.56,0.93,1.2,1.507,1.919,1.73c0.719,0.223,1.408,0.132,2.071-0.263c0.661-0.399,1.063-0.963,1.2-1.696
				C56.789,73.474,56.574,72.629,56,71.676L56,71.676z M68.466,69.61c-0.359,0.488-0.895,0.945-1.609,1.376
				c-1.04,0.625-1.983,0.864-2.828,0.719c-0.848-0.147-1.601-0.646-2.261-1.502l1.52-1.127c0.425,0.483,0.859,0.764,1.311,0.84
				c0.449,0.074,0.927-0.04,1.433-0.342c0.535-0.321,0.869-0.677,1.005-1.066s0.111-0.737-0.069-1.039
				c-0.118-0.194-0.275-0.325-0.472-0.394c-0.195-0.068-0.465-0.066-0.811,0.005c-0.234,0.047-0.749,0.195-1.544,0.439
				c-1.024,0.315-1.812,0.417-2.363,0.312c-0.777-0.149-1.362-0.549-1.752-1.2c-0.25-0.418-0.368-0.882-0.35-1.389
				c0.019-0.507,0.194-0.992,0.527-1.45c0.333-0.459,0.816-0.877,1.447-1.258c1.034-0.62,1.945-0.861,2.739-0.722
				c0.791,0.139,1.429,0.578,1.909,1.318l-1.617,1.071c-0.325-0.381-0.659-0.593-1.005-0.636c-0.344-0.045-0.751,0.073-1.219,0.354
				c-0.481,0.289-0.799,0.617-0.953,0.979c-0.1,0.233-0.086,0.455,0.042,0.667c0.116,0.195,0.3,0.312,0.548,0.352
				c0.315,0.05,0.935-0.071,1.856-0.367c0.922-0.294,1.638-0.457,2.148-0.484c0.51-0.029,0.98,0.068,1.412,0.289
				c0.43,0.223,0.801,0.593,1.114,1.113c0.283,0.472,0.418,0.992,0.402,1.56C69.01,68.594,68.825,69.122,68.466,69.61L68.466,69.61z
				 M78.427,63.624c-0.359,0.488-0.893,0.946-1.609,1.376c-1.039,0.625-1.983,0.864-2.828,0.719
				c-0.846-0.147-1.601-0.646-2.261-1.502l1.521-1.127c0.423,0.483,0.859,0.764,1.31,0.84c0.449,0.074,0.927-0.039,1.433-0.341
				c0.535-0.325,0.869-0.678,1.006-1.069c0.134-0.388,0.111-0.733-0.071-1.037c-0.116-0.194-0.275-0.326-0.47-0.392
				c-0.195-0.069-0.465-0.068-0.811,0.002c-0.236,0.05-0.751,0.197-1.546,0.439c-1.024,0.315-1.811,0.418-2.363,0.313
				c-0.777-0.149-1.362-0.548-1.752-1.198c-0.25-0.42-0.367-0.883-0.35-1.391c0.021-0.507,0.195-0.99,0.528-1.449
				c0.333-0.46,0.814-0.879,1.446-1.26c1.034-0.62,1.945-0.861,2.739-0.72c0.793,0.137,1.431,0.577,1.911,1.316l-1.618,1.072
				c-0.323-0.381-0.659-0.594-1.003-0.638c-0.344-0.045-0.751,0.074-1.219,0.354c-0.481,0.291-0.799,0.617-0.953,0.979
				c-0.102,0.233-0.087,0.455,0.04,0.669c0.118,0.194,0.3,0.312,0.548,0.35c0.317,0.05,0.935-0.071,1.857-0.367
				c0.922-0.296,1.638-0.457,2.148-0.486c0.509-0.027,0.98,0.068,1.412,0.291c0.428,0.221,0.801,0.593,1.114,1.114
				c0.283,0.47,0.417,0.988,0.402,1.559C78.973,62.608,78.787,63.137,78.427,63.624L78.427,63.624z M83.668,60.685l-4.941-8.223
				l1.659-0.998l4.942,8.224L83.668,60.685L83.668,60.685z M94.084,54.428l-6.54-3.372l3.224,5.364l-1.542,0.927l-4.941-8.224
				l1.615-0.971l6.666,3.471l-3.301-5.493l1.542-0.927l4.942,8.224L94.084,54.428L94.084,54.428z M101.8,45.675l-0.832-1.386
				l3.579-2.15l1.967,3.276c-0.144,0.546-0.47,1.145-0.977,1.798c-0.506,0.652-1.098,1.181-1.775,1.589
				c-0.861,0.517-1.715,0.787-2.573,0.811c-0.856,0.023-1.647-0.203-2.371-0.683c-0.727-0.478-1.326-1.111-1.801-1.899
				c-0.514-0.858-0.793-1.727-0.832-2.607c-0.042-0.882,0.176-1.709,0.654-2.481c0.365-0.588,0.94-1.119,1.725-1.591
				c1.021-0.614,1.946-0.879,2.776-0.796c0.833,0.084,1.557,0.452,2.176,1.111l-1.463,1.299c-0.357-0.336-0.769-0.522-1.228-0.564
				c-0.46-0.04-0.932,0.082-1.41,0.368c-0.725,0.436-1.165,1.013-1.316,1.73c-0.15,0.719,0.045,1.53,0.59,2.434
				c0.585,0.976,1.242,1.578,1.97,1.804c0.725,0.229,1.441,0.131,2.145-0.292c0.347-0.208,0.656-0.486,0.924-0.833
				c0.266-0.346,0.468-0.691,0.601-1.035l-0.625-1.045L101.8,45.675L101.8,45.675z M92.987,75.667l-6.939,7.024l-1.762-1.06
				l2.058-7.133l-5.327,5.168l-1.803-1.082l2.978-9.403l1.699,1.019l-2.155,6.396l4.9-4.745l1.974,1.187l-2.009,6.611l4.713-4.988
				L92.987,75.667L92.987,75.667z M97.975,89.858l-1.806-1.085l0.404-2.302l-3.287-1.974l-1.801,1.46l-1.761-1.06l8.142-6.297
				l1.757,1.055L97.975,89.858L97.975,89.858z M94.628,83.418l2.247,1.349l0.698-3.733L94.628,83.418L94.628,83.418z
				 M111.864,87.012l-5.892,2.956l-2.072,3.45l-1.654-0.995l2.079-3.461l-0.15-6.574l1.946,1.169l-0.019,4.417l3.851-2.114
				L111.864,87.012L111.864,87.012z"/>
		</defs>
		<use xlink:href="#SVGID_32_"  overflow="visible" fill-rule="evenodd" clip-rule="evenodd"/>
		<clipPath id="SVGID_33_">
			<use xlink:href="#SVGID_32_"  overflow="visible"/>
		</clipPath>
	</g>
	<g>
		<defs>
			<path id="SVGID_34_" d="M29.682,40.293l-2.4-1.441l-4.049,6.735l-1.636-0.982l4.049-6.737l-2.408-1.447l0.825-1.37l6.443,3.87
				L29.682,40.293L29.682,40.293z M37.796,46.399c-0.367,0.609-0.846,1.001-1.442,1.184c-0.594,0.183-1.281,0.11-2.053-0.215
				c0.229,0.42,0.384,0.822,0.467,1.208c0.082,0.384,0.129,1.009,0.141,1.875l0.04,2.177l-1.958-1.176l-0.124-2.476
				c-0.042-0.882-0.09-1.454-0.145-1.71c-0.058-0.258-0.153-0.468-0.291-0.633c-0.137-0.165-0.394-0.36-0.769-0.588l-0.331-0.199
				l-2.035,3.387l-1.638-0.985l4.871-8.106l3.447,2.069c0.866,0.522,1.454,0.972,1.757,1.354c0.305,0.38,0.464,0.83,0.478,1.344
				C38.222,45.422,38.084,45.917,37.796,46.399L37.796,46.399z M35.8,44.008c-0.123-0.097-0.515-0.346-1.179-0.745l-1.276-0.769
				l-1.237,2.058l1.21,0.728c0.787,0.472,1.297,0.733,1.531,0.783c0.236,0.052,0.459,0.029,0.665-0.065
				c0.208-0.097,0.386-0.266,0.533-0.51c0.163-0.273,0.221-0.538,0.178-0.791C36.179,44.441,36.039,44.212,35.8,44.008L35.8,44.008z
				 M44.108,58.131l-1.78-1.069l0.397-2.266l-3.242-1.948l-1.775,1.439l-1.738-1.043l8.031-6.21l1.731,1.039L44.108,58.131
				L44.108,58.131z M40.808,51.784l2.213,1.329l0.691-3.679L40.808,51.784L40.808,51.784z M58.622,55.817l-4.873,8.108l-1.523-0.914
				l3.836-6.382l-5.445,5.414l-1.576-0.946l2.231-7.346l-3.834,6.381l-1.52-0.913l4.871-8.108l2.45,1.471l-1.853,6.414l4.779-4.655
				L58.622,55.817L58.622,55.817z"/>
		</defs>
		<use xlink:href="#SVGID_34_"  overflow="visible" fill-rule="evenodd" clip-rule="evenodd"/>
		<clipPath id="SVGID_35_">
			<use xlink:href="#SVGID_34_"  overflow="visible"/>
		</clipPath>
	</g>
	<linearGradient id="SVGID_36_" gradientUnits="userSpaceOnUse" x1="103.8156" y1="120.3955" x2="26.9519" y2="10.6227">
		<stop  offset="0" style="stop-color:#000000;stop-opacity:0"/>
		<stop  offset="1" style="stop-color:#FFFFFF;stop-opacity:0.25"/>
	</linearGradient>
	<path fill-rule="evenodd" clip-rule="evenodd" fill="url(#SVGID_36_)" d="M15.058,22.001h100.999
		c5.767-0.071,9.916,3.501,11.341,6.53l0,0c1.488,3.019,1.648,6.292,1.659,6.469l0,0V96c0.071,5.764-3.339,9.593-6.367,11.018l0,0
		c-3.018,1.49-6.459,1.973-6.633,1.982l0,0H14.058c-0.065,0.002,0.063,0,0,0l0,0c-5.653,0-9.591-4.006-11-7l0,0
		c-1.493-3.019-1.053-5.478-1.065-5.651l0,0l0.065-61.35c-0.074-5.767,2.971-9.575,6-10.998l0.12-0.176
		C11.195,22.335,14.884,22.014,15.058,22.001L15.058,22.001"/>
</g>
</svg>
