<?xml version="1.0" encoding="utf-8"?>
<!-- Generator: Adobe Illustrator 17.0.1, SVG Export Plug-In . SVG Version: 6.00 Build 0)  -->
<!DOCTYPE svg PUBLIC "-//W3C//DTD SVG 1.1//EN" "http://www.w3.org/Graphics/SVG/1.1/DTD/svg11.dtd">
<svg version="1.1" xmlns="http://www.w3.org/2000/svg" xmlns:xlink="http://www.w3.org/1999/xlink" x="0px" y="0px" width="132px"
	 height="132px" viewBox="0 0 132 132" enable-background="new 0 0 132 132" xml:space="preserve">
<g id="dsiabled">
	<linearGradient id="SVGID_1_" gradientUnits="userSpaceOnUse" x1="3.054" y1="66.5" x2="129.946" y2="66.5">
		<stop  offset="0" style="stop-color:#000000;stop-opacity:0.6"/>
		<stop  offset="1" style="stop-color:#000000;stop-opacity:0.6"/>
	</linearGradient>
	<path fill-rule="evenodd" clip-rule="evenodd" fill="url(#SVGID_1_)" d="M72.496,5.558l54.946,54.946
		c3.339,3.339,3.339,8.755,0,12.095L72.599,127.44c-3.339,3.341-8.755,3.341-12.095,0L5.56,72.496
		c-3.341-3.341-3.341-8.756,0-12.095L60.4,5.558C63.741,2.219,69.157,2.219,72.496,5.558L72.496,5.558z"/>
	<path fill="#BEBEBE" d="M71.496,4.558l54.946,54.946c3.339,3.339,3.339,8.755,0,12.095L71.599,126.44
		c-3.339,3.341-8.755,3.341-12.095,0L4.56,71.496c-3.341-3.341-3.341-8.756,0-12.095L59.4,4.558
		C62.741,1.219,68.157,1.219,71.496,4.558L71.496,4.558z"/>
	<path fill-rule="evenodd" clip-rule="evenodd" d="M123.833,59.761L71.24,7.169c-3.198-3.198-8.381-3.198-11.579,0L7.169,59.661
		c-3.198,3.198-3.198,8.383,0,11.579l52.593,52.593c3.196,3.196,8.381,3.196,11.577,0l52.494-52.494
		C127.029,68.142,127.029,62.958,123.833,59.761z M121.712,69.218l-52.494,52.494c-0.979,0.979-2.282,1.519-3.667,1.519
		c-1.386,0-2.688-0.539-3.668-1.519L9.29,69.119c-0.98-0.979-1.52-2.282-1.52-3.667c0-1.386,0.54-2.689,1.52-3.669L61.782,9.29
		c0.98-0.98,2.283-1.52,3.668-1.52c1.385,0,2.688,0.54,3.668,1.52l52.593,52.592C123.733,63.905,123.733,67.195,121.712,69.218z"/>
	<path fill-rule="evenodd" clip-rule="evenodd" d="M43.288,61.166l1.042,27.538h-6.989l1.048-27.538c0,0-8.819,6.583-8.819,1.168
		c1.88-3.834,11.266-19.482,11.266-19.482s8.287,14.315,11.266,19.482C52.181,67.916,43.288,61.166,43.288,61.166L43.288,61.166z
		 M68.287,61.166l1.042,27.538h-6.987l1.048-27.538c0,0-8.82,6.583-8.82,1.168c1.882-3.834,11.266-19.482,11.266-19.482
		s8.289,14.315,11.267,19.482C77.181,67.916,68.287,61.166,68.287,61.166L68.287,61.166z M90.837,88.579
		c0,0-9.386-15.648-11.266-19.48c0-5.417,8.819,1.166,8.819,1.166l-1.048-27.54h6.989l-1.042,27.54c0,0,8.893-6.75,8.814-1.166
		C99.124,74.265,90.837,88.579,90.837,88.579L90.837,88.579z"/>
	<linearGradient id="SVGID_2_" gradientUnits="userSpaceOnUse" x1="96.215" y1="109.365" x2="34.7852" y2="21.6342">
		<stop  offset="0" style="stop-color:#000000;stop-opacity:0"/>
		<stop  offset="1" style="stop-color:#FFFFFF;stop-opacity:0.25"/>
	</linearGradient>
	<path fill-rule="evenodd" clip-rule="evenodd" fill="url(#SVGID_2_)" d="M71.496,4.558l54.946,54.946
		c3.339,3.339,3.339,8.755,0,12.095L71.599,126.44c-3.339,3.341-8.755,3.341-12.095,0L4.56,71.496
		c-3.341-3.341-3.341-8.756,0-12.095L59.4,4.558C62.741,1.219,68.157,1.219,71.496,4.558L71.496,4.558z"/>
</g>
<g id="normal">
	<linearGradient id="SVGID_3_" gradientUnits="userSpaceOnUse" x1="3.054" y1="66.5" x2="129.946" y2="66.5">
		<stop  offset="0" style="stop-color:#000000;stop-opacity:0.6"/>
		<stop  offset="1" style="stop-color:#000000;stop-opacity:0.6"/>
	</linearGradient>
	<path fill-rule="evenodd" clip-rule="evenodd" fill="url(#SVGID_3_)" d="M72.496,5.558l54.946,54.946
		c3.339,3.339,3.339,8.755,0,12.095L72.599,127.44c-3.339,3.341-8.755,3.341-12.095,0L5.56,72.496
		c-3.341-3.341-3.341-8.756,0-12.095L60.4,5.558C63.741,2.219,69.157,2.219,72.496,5.558L72.496,5.558z"/>
	<path fill="#FFC000" d="M71.496,4.558l54.946,54.946c3.339,3.339,3.339,8.755,0,12.095L71.599,126.44
		c-3.339,3.341-8.755,3.341-12.095,0L4.56,71.496c-3.341-3.341-3.341-8.756,0-12.095L59.4,4.558
		C62.741,1.219,68.157,1.219,71.496,4.558L71.496,4.558z"/>
	<path fill-rule="evenodd" clip-rule="evenodd" d="M123.833,59.761L71.24,7.169c-3.198-3.198-8.381-3.198-11.579,0L7.169,59.661
		c-3.198,3.198-3.198,8.383,0,11.579l52.593,52.593c3.196,3.196,8.381,3.196,11.577,0l52.494-52.494
		C127.029,68.142,127.029,62.958,123.833,59.761z M121.712,69.218l-52.494,52.494c-0.979,0.979-2.282,1.519-3.667,1.519
		c-1.386,0-2.688-0.539-3.668-1.519L9.29,69.119c-0.98-0.979-1.52-2.282-1.52-3.667c0-1.386,0.54-2.689,1.52-3.669L61.782,9.29
		c0.98-0.98,2.283-1.52,3.668-1.52c1.385,0,2.688,0.54,3.668,1.52l52.593,52.592C123.733,63.905,123.733,67.195,121.712,69.218z"/>
	<path fill-rule="evenodd" clip-rule="evenodd" d="M43.288,61.166l1.042,27.538h-6.989l1.048-27.538c0,0-8.819,6.583-8.819,1.168
		c1.88-3.834,11.266-19.482,11.266-19.482s8.287,14.315,11.266,19.482C52.181,67.916,43.288,61.166,43.288,61.166L43.288,61.166z
		 M68.287,61.166l1.042,27.538h-6.987l1.048-27.538c0,0-8.82,6.583-8.82,1.168c1.882-3.834,11.266-19.482,11.266-19.482
		s8.289,14.315,11.267,19.482C77.181,67.916,68.287,61.166,68.287,61.166L68.287,61.166z M90.837,88.579
		c0,0-9.386-15.648-11.266-19.48c0-5.417,8.819,1.166,8.819,1.166l-1.048-27.54h6.989l-1.042,27.54c0,0,8.893-6.75,8.814-1.166
		C99.124,74.265,90.837,88.579,90.837,88.579L90.837,88.579z"/>
	<linearGradient id="SVGID_4_" gradientUnits="userSpaceOnUse" x1="96.215" y1="109.365" x2="34.7852" y2="21.6342">
		<stop  offset="0" style="stop-color:#000000;stop-opacity:0"/>
		<stop  offset="1" style="stop-color:#FFFFFF;stop-opacity:0.25"/>
	</linearGradient>
	<path fill-rule="evenodd" clip-rule="evenodd" fill="url(#SVGID_4_)" d="M71.496,4.558l54.946,54.946
		c3.339,3.339,3.339,8.755,0,12.095L71.599,126.44c-3.339,3.341-8.755,3.341-12.095,0L4.56,71.496
		c-3.341-3.341-3.341-8.756,0-12.095L59.4,4.558C62.741,1.219,68.157,1.219,71.496,4.558L71.496,4.558z"/>
</g>
</svg>
