<?xml version="1.0" encoding="utf-8"?>
<!-- Generator: Adobe Illustrator 17.0.1, SVG Export Plug-In . SVG Version: 6.00 Build 0)  -->
<!DOCTYPE svg PUBLIC "-//W3C//DTD SVG 1.1//EN" "http://www.w3.org/Graphics/SVG/1.1/DTD/svg11.dtd">
<svg version="1.1" xmlns="http://www.w3.org/2000/svg" xmlns:xlink="http://www.w3.org/1999/xlink" x="0px" y="0px" width="132px"
	 height="132px" viewBox="0 0 132 132" enable-background="new 0 0 132 132" xml:space="preserve">
<g id="disabled">
	<g>
		<defs>
			<path id="SVGID_1_" d="M72.496,5.559l54.946,54.946c3.339,3.339,3.339,8.755,0,12.095l-54.842,54.841
				c-3.339,3.339-8.755,3.339-12.095,0L5.56,72.497c-3.341-3.339-3.341-8.756,0-12.095L60.4,5.559
				C63.741,2.22,69.157,2.22,72.496,5.559L72.496,5.559z"/>
		</defs>
		<defs>
			<path id="SVGID_2_" d="M71.496,4.559l54.946,54.946c3.339,3.339,3.339,8.755,0,12.095l-54.842,54.841
				c-3.339,3.339-8.755,3.339-12.095,0L4.56,71.497c-3.341-3.339-3.341-8.756,0-12.095L59.4,4.559
				C62.741,1.22,68.157,1.22,71.496,4.559L71.496,4.559z"/>
		</defs>
		<linearGradient id="SVGID_3_" gradientUnits="userSpaceOnUse" x1="3.054" y1="66.5" x2="129.946" y2="66.5">
			<stop  offset="0" style="stop-color:#000000;stop-opacity:0.6"/>
			<stop  offset="1" style="stop-color:#000000;stop-opacity:0.6"/>
		</linearGradient>
		<use xlink:href="#SVGID_1_"  overflow="visible" fill-rule="evenodd" clip-rule="evenodd" fill="url(#SVGID_3_)"/>
		<use xlink:href="#SVGID_2_"  overflow="visible" fill="#BEBEBE"/>
		<clipPath id="SVGID_4_">
			<use xlink:href="#SVGID_1_"  overflow="visible"/>
		</clipPath>
		<clipPath id="SVGID_5_" clip-path="url(#SVGID_4_)">
			<use xlink:href="#SVGID_2_"  overflow="visible"/>
		</clipPath>
	</g>
	<path fill-rule="evenodd" clip-rule="evenodd" d="M123.833,59.761L71.24,7.169c-3.198-3.198-8.381-3.198-11.579,0L7.169,59.661
		c-3.198,3.198-3.198,8.383,0,11.579l52.593,52.593c3.196,3.196,8.381,3.196,11.577,0l52.494-52.494
		C127.029,68.142,127.029,62.958,123.833,59.761z M121.712,69.217l-52.494,52.494c-0.979,0.979-2.282,1.519-3.667,1.519
		c-1.386,0-2.688-0.539-3.668-1.519L9.29,69.12c-0.98-0.98-1.52-2.282-1.52-3.668s0.54-2.689,1.52-3.669L61.782,9.29
		c0.98-0.98,2.283-1.52,3.668-1.52c1.385,0,2.688,0.54,3.668,1.52l52.593,52.592C123.733,63.905,123.733,67.195,121.712,69.217z"/>
	<g>
		<defs>
			<path id="SVGID_6_" d="M95.047,43.891l1.494,1.492l-2.166,2.169l-1.496-1.496l-5.621,5.622l1.494,1.494l-2.166,2.166
				l-1.494-1.494L79.036,59.9l1.496,1.496l-2.168,2.166l-1.494-1.494l-5.535,5.535l1.494,1.494l-2.166,2.166l-1.494-1.494
				l-5.45,5.45l1.494,1.494l-2.166,2.166l-1.494-1.494l-5.535,5.535l1.494,1.494l-2.166,2.168l-1.494-1.494l-5.362,5.361
				l1.494,1.494l-2.168,2.168l-1.492-1.494l-3.19,3.188l-1.523-1.523l3.19-3.188l-4.224-4.224l-3.188,3.19l-1.523-1.523l3.19-3.188
				l-1.551-1.551l2.166-2.166l1.551,1.551l5.362-5.362l-1.551-1.551l2.168-2.166l1.549,1.549l5.535-5.535l-1.549-1.551l2.166-2.166
				l1.551,1.551l5.448-5.45l-1.549-1.549l2.166-2.166l1.549,1.549l5.535-5.535l-1.549-1.551l2.166-2.166l1.551,1.551l6.055-6.055
				l-1.551-1.551l2.168-2.166l1.549,1.549l5.622-5.622l-1.549-1.549l2.166-2.166l1.549,1.549l1.749-1.749l1.521,1.523l-1.748,1.749
				l4.224,4.222l1.748-1.748l1.523,1.521L95.047,43.891L95.047,43.891z M42.744,84.703l4.224,4.224l5.362-5.362l-4.224-4.224
				L42.744,84.703L42.744,84.703z M50.274,77.174l4.222,4.224l5.537-5.537l-4.224-4.222L50.274,77.174L50.274,77.174z
				 M57.975,69.472l4.224,4.224l5.448-5.448l-4.222-4.224L57.975,69.472L57.975,69.472z M65.59,61.858l4.222,4.222l5.537-5.535
				l-4.224-4.224L65.59,61.858L65.59,61.858z M73.291,54.155l4.224,4.224l6.055-6.055L79.346,48.1L73.291,54.155L73.291,54.155z
				 M87.135,40.312l-5.621,5.622l4.222,4.222l5.622-5.621L87.135,40.312L87.135,40.312z"/>
		</defs>
		<use xlink:href="#SVGID_6_"  overflow="visible" fill-rule="evenodd" clip-rule="evenodd"/>
		<clipPath id="SVGID_7_">
			<use xlink:href="#SVGID_6_"  overflow="visible"/>
		</clipPath>
	</g>
	<g>
		<defs>
			<path id="SVGID_8_" d="M56.331,61.482V21.715H74.33v21.767L56.331,61.482L56.331,61.482z M74.33,71.73v38.985H56.331V89.731
				L74.33,71.73L74.33,71.73z"/>
		</defs>
		<use xlink:href="#SVGID_8_"  overflow="visible" fill-rule="evenodd" clip-rule="evenodd"/>
		<clipPath id="SVGID_9_">
			<use xlink:href="#SVGID_8_"  overflow="visible"/>
		</clipPath>
	</g>
	<linearGradient id="SVGID_10_" gradientUnits="userSpaceOnUse" x1="96.2147" y1="109.3653" x2="34.7851" y2="21.6349">
		<stop  offset="0" style="stop-color:#000000;stop-opacity:0"/>
		<stop  offset="1" style="stop-color:#FFFFFF;stop-opacity:0.25"/>
	</linearGradient>
	<path fill-rule="evenodd" clip-rule="evenodd" fill="url(#SVGID_10_)" d="M71.496,4.559l54.946,54.946
		c3.339,3.339,3.339,8.755,0,12.095l-54.842,54.841c-3.339,3.339-8.755,3.339-12.095,0L4.56,71.497
		c-3.341-3.339-3.341-8.756,0-12.095L59.4,4.559C62.741,1.22,68.157,1.22,71.496,4.559L71.496,4.559z"/>
</g>
<g id="normal">
	<g>
		<defs>
			<path id="SVGID_11_" d="M72.496,5.559l54.946,54.946c3.339,3.339,3.339,8.755,0,12.095l-54.842,54.841
				c-3.339,3.339-8.755,3.339-12.095,0L5.56,72.497c-3.341-3.339-3.341-8.756,0-12.095L60.4,5.559
				C63.741,2.22,69.157,2.22,72.496,5.559L72.496,5.559z"/>
		</defs>
		<defs>
			<path id="SVGID_12_" d="M71.496,4.559l54.946,54.946c3.339,3.339,3.339,8.755,0,12.095l-54.842,54.841
				c-3.339,3.339-8.755,3.339-12.095,0L4.56,71.497c-3.341-3.339-3.341-8.756,0-12.095L59.4,4.559
				C62.741,1.22,68.157,1.22,71.496,4.559L71.496,4.559z"/>
		</defs>
		<linearGradient id="SVGID_13_" gradientUnits="userSpaceOnUse" x1="3.054" y1="66.5" x2="129.946" y2="66.5">
			<stop  offset="0" style="stop-color:#000000;stop-opacity:0.6"/>
			<stop  offset="1" style="stop-color:#000000;stop-opacity:0.6"/>
		</linearGradient>
		<use xlink:href="#SVGID_11_"  overflow="visible" fill-rule="evenodd" clip-rule="evenodd" fill="url(#SVGID_13_)"/>
		<use xlink:href="#SVGID_12_"  overflow="visible" fill="#FFC000"/>
		<clipPath id="SVGID_14_">
			<use xlink:href="#SVGID_11_"  overflow="visible"/>
		</clipPath>
		<clipPath id="SVGID_15_" clip-path="url(#SVGID_14_)">
			<use xlink:href="#SVGID_12_"  overflow="visible"/>
		</clipPath>
	</g>
	<path fill-rule="evenodd" clip-rule="evenodd" d="M123.833,59.761L71.24,7.169c-3.198-3.198-8.381-3.198-11.579,0L7.169,59.661
		c-3.198,3.198-3.198,8.383,0,11.579l52.593,52.593c3.196,3.196,8.381,3.196,11.577,0l52.494-52.494
		C127.029,68.142,127.029,62.958,123.833,59.761z M121.712,69.217l-52.494,52.494c-0.979,0.979-2.282,1.519-3.667,1.519
		c-1.386,0-2.688-0.539-3.668-1.519L9.29,69.12c-0.98-0.98-1.52-2.282-1.52-3.668s0.54-2.689,1.52-3.669L61.782,9.29
		c0.98-0.98,2.283-1.52,3.668-1.52c1.385,0,2.688,0.54,3.668,1.52l52.593,52.592C123.733,63.905,123.733,67.195,121.712,69.217z"/>
	<g>
		<defs>
			<path id="SVGID_16_" d="M95.047,43.891l1.494,1.492l-2.166,2.169l-1.496-1.496l-5.621,5.622l1.494,1.494l-2.166,2.166
				l-1.494-1.494L79.036,59.9l1.496,1.496l-2.168,2.166l-1.494-1.494l-5.535,5.535l1.494,1.494l-2.166,2.166l-1.494-1.494
				l-5.45,5.45l1.494,1.494l-2.166,2.166l-1.494-1.494l-5.535,5.535l1.494,1.494l-2.166,2.168l-1.494-1.494l-5.362,5.361
				l1.494,1.494l-2.168,2.168l-1.492-1.494l-3.19,3.188l-1.523-1.523l3.19-3.188l-4.224-4.224l-3.188,3.19l-1.523-1.523l3.19-3.188
				l-1.551-1.551l2.166-2.166l1.551,1.551l5.362-5.362l-1.551-1.551l2.168-2.166l1.549,1.549l5.535-5.535l-1.549-1.551l2.166-2.166
				l1.551,1.551l5.448-5.45l-1.549-1.549l2.166-2.166l1.549,1.549l5.535-5.535l-1.549-1.551l2.166-2.166l1.551,1.551l6.055-6.055
				l-1.551-1.551l2.168-2.166l1.549,1.549l5.622-5.622l-1.549-1.549l2.166-2.166l1.549,1.549l1.749-1.749l1.521,1.523l-1.748,1.749
				l4.224,4.222l1.748-1.748l1.523,1.521L95.047,43.891L95.047,43.891z M42.744,84.703l4.224,4.224l5.362-5.362l-4.224-4.224
				L42.744,84.703L42.744,84.703z M50.274,77.174l4.222,4.224l5.537-5.537l-4.224-4.222L50.274,77.174L50.274,77.174z
				 M57.975,69.472l4.224,4.224l5.448-5.448l-4.222-4.224L57.975,69.472L57.975,69.472z M65.59,61.858l4.222,4.222l5.537-5.535
				l-4.224-4.224L65.59,61.858L65.59,61.858z M73.291,54.155l4.224,4.224l6.055-6.055L79.346,48.1L73.291,54.155L73.291,54.155z
				 M87.135,40.312l-5.621,5.622l4.222,4.222l5.622-5.621L87.135,40.312L87.135,40.312z"/>
		</defs>
		<use xlink:href="#SVGID_16_"  overflow="visible" fill-rule="evenodd" clip-rule="evenodd"/>
		<clipPath id="SVGID_17_">
			<use xlink:href="#SVGID_16_"  overflow="visible"/>
		</clipPath>
	</g>
	<g>
		<defs>
			<path id="SVGID_18_" d="M56.331,61.482V21.715H74.33v21.767L56.331,61.482L56.331,61.482z M74.33,71.73v38.985H56.331V89.731
				L74.33,71.73L74.33,71.73z"/>
		</defs>
		<use xlink:href="#SVGID_18_"  overflow="visible" fill-rule="evenodd" clip-rule="evenodd"/>
		<clipPath id="SVGID_19_">
			<use xlink:href="#SVGID_18_"  overflow="visible"/>
		</clipPath>
	</g>
	<linearGradient id="SVGID_20_" gradientUnits="userSpaceOnUse" x1="96.2147" y1="109.3653" x2="34.7851" y2="21.6349">
		<stop  offset="0" style="stop-color:#000000;stop-opacity:0"/>
		<stop  offset="1" style="stop-color:#FFFFFF;stop-opacity:0.25"/>
	</linearGradient>
	<path fill-rule="evenodd" clip-rule="evenodd" fill="url(#SVGID_20_)" d="M71.496,4.559l54.946,54.946
		c3.339,3.339,3.339,8.755,0,12.095l-54.842,54.841c-3.339,3.339-8.755,3.339-12.095,0L4.56,71.497
		c-3.341-3.339-3.341-8.756,0-12.095L59.4,4.559C62.741,1.22,68.157,1.22,71.496,4.559L71.496,4.559z"/>
</g>
</svg>
