<?xml version="1.0" encoding="utf-8"?>
<!-- Generator: Adobe Illustrator 17.0.1, SVG Export Plug-In . SVG Version: 6.00 Build 0)  -->
<!DOCTYPE svg PUBLIC "-//W3C//DTD SVG 1.1//EN" "http://www.w3.org/Graphics/SVG/1.1/DTD/svg11.dtd">
<svg version="1.1" xmlns="http://www.w3.org/2000/svg" xmlns:xlink="http://www.w3.org/1999/xlink" x="0px" y="0px" width="132px"
	 height="132px" viewBox="0 0 132 132" enable-background="new 0 0 132 132" xml:space="preserve">
<g id="disabled">
	<g>
		<defs>
			<path id="SVGID_1_" d="M72.496,5.559l54.946,54.946c3.339,3.339,3.339,8.755,0,12.095l-54.842,54.842
				c-3.339,3.338-8.755,3.338-12.095,0L5.56,72.497c-3.341-3.339-3.341-8.756,0-12.095L60.4,5.559
				C63.741,2.22,69.157,2.22,72.496,5.559L72.496,5.559z"/>
		</defs>
		<defs>
			<path id="SVGID_2_" d="M71.496,4.559l54.946,54.946c3.339,3.339,3.339,8.755,0,12.095l-54.842,54.842
				c-3.339,3.338-8.755,3.338-12.095,0L4.56,71.497c-3.341-3.339-3.341-8.756,0-12.095L59.4,4.559
				C62.741,1.22,68.157,1.22,71.496,4.559L71.496,4.559z"/>
		</defs>
		<linearGradient id="SVGID_3_" gradientUnits="userSpaceOnUse" x1="3.054" y1="66.5" x2="129.946" y2="66.5">
			<stop  offset="0" style="stop-color:#000000;stop-opacity:0.6"/>
			<stop  offset="1" style="stop-color:#000000;stop-opacity:0.6"/>
		</linearGradient>
		<use xlink:href="#SVGID_1_"  overflow="visible" fill-rule="evenodd" clip-rule="evenodd" fill="url(#SVGID_3_)"/>
		<use xlink:href="#SVGID_2_"  overflow="visible" fill="#BEBEBE"/>
		<clipPath id="SVGID_4_">
			<use xlink:href="#SVGID_1_"  overflow="visible"/>
		</clipPath>
		<clipPath id="SVGID_5_" clip-path="url(#SVGID_4_)">
			<use xlink:href="#SVGID_2_"  overflow="visible"/>
		</clipPath>
	</g>
	<g>
		<defs>
			<path id="SVGID_6_" d="M81.947,52.927c1.048,5.664,2.327,11.073,3.904,16.237l-2.148,1.072c0.846,1.599,1.578,3.311,2.24,5.183
				l-2.534,11.145v2.625l0.569-0.183l1.667,1.462c1.804-0.115,1.486,1.165,2.239,1.759h-3.403l-1.371-0.867l-1.368-0.205
				l-0.092,1.165l-2.235-0.184l-0.208-3.515l1.074-1.576l0.207-7.514l1.072-3.335l-2.831-4.109l-1.667,0.389l0.388,3.424
				c-2.077,3.473-4.842,6.716-8.291,9.773l0.596,2.056l0.182,1.573l1.849,1.373c-0.137,0.753-0.276,1.118-0.686,1.368
				c-1.484,0.276-3.012-1.552-4.568-3.629l-0.501,0.388l-1.552-1.667l0.775-2.327l2.444-0.984c1.323-3.608,2.99-6.441,4.978-8.404
				l-0.502-2.833l-4.681-2.555c3.516-4.5,5.091-10.161,4.681-16.898c-3.928,4.589-6.28,9.361-7.604,14.27l-1.165,1.371l-2.534,0.092
				l-4.111,3.127h-1.163l-4.592-2.83l-0.57,4.795l2.83,4.201l-0.111,0.958l1.667,2.444l-1.371,7.149l3.608,2.054v1.257l-6.325-0.184
				c0.205-1.026-0.182-2.03,0.57-3.036c-0.412-2.373-0.412-4.726-0.09-7.034l-1.462-0.98l-2.442-1.552l-1.166,2.533h-1.166
				c-1.552,2.4-3.492,3.973-5.866,4.797l0.09,1.165l0.98,2.442l-0.182,1.072c-1.667,0.094-2.807-0.979-3.515-3.217l-0.892-0.297
				l-0.068-2.444l2.604-0.777l3.426-3.219l1.163-1.668l-1.074-0.888c1.555-3.061,2.308-6.189,2.445-9.478
				c-1.736,3.723-3.7,6.805-5.96,9.294c-0.664,0.617-1.76-0.045-1.349-1.667l1.462-1.665c2.308-7.425,4.91-10.232,7.512-12.311
				V61.72c-4.041-1.371-2.352-7.924,2.148-7.901c1.983,0.342,3.288,1.208,3.904,2.626v0.98l-0.41,0.982l0.685,0.869l-0.867,0.685
				v0.89l-0.389,1.37l-1.462,0.777c2.009,2.353,4.225,4.568,6.919,6.464c2.306-1.142,4.34-2.673,6.052-4.5
				c1.618-6.645,4.543-12.924,8.767-18.976c1.211-0.252,2.376-1.14,3.519-2.739c-5.824-2.216-2.101-11.899,2.646-10.847
				c4.753,1.051,4.981,2.649,5.07,3.426c0.094,0.775,0.181,1.165,0.181,1.165l-0.476,0.502l-0.09,1.667l0.866,0.959l-0.591,1.872
				l-0.664,1.166l-1.576,0.388l-0.296,1.46h0.685l7.33,9.294l7.216,0.594l0.57,0.297l0.799-0.594l1.757,0.391
				c1.395,0.706,1.029,1.413,0.092,2.143l-2.833,0.116l-6.826,1.643L81.947,52.927L81.947,52.927z"/>
		</defs>
		<use xlink:href="#SVGID_6_"  overflow="visible" fill-rule="evenodd" clip-rule="evenodd"/>
		<clipPath id="SVGID_7_">
			<use xlink:href="#SVGID_6_"  overflow="visible"/>
		</clipPath>
	</g>
	<path fill-rule="evenodd" clip-rule="evenodd" d="M123.833,59.761L71.24,7.169c-3.198-3.198-8.381-3.198-11.579,0L7.169,59.661
		c-3.198,3.198-3.198,8.383,0,11.579l52.593,52.593c3.196,3.196,8.381,3.196,11.577,0l52.494-52.494
		C127.029,68.142,127.029,62.958,123.833,59.761z M121.712,69.218l-52.494,52.494c-0.979,0.979-2.282,1.519-3.667,1.519
		c-1.386,0-2.688-0.539-3.668-1.519L9.29,69.119c-0.98-0.979-1.52-2.282-1.52-3.667c0-1.386,0.54-2.689,1.52-3.669L61.782,9.29
		c0.98-0.98,2.283-1.52,3.668-1.52c1.385,0,2.688,0.54,3.668,1.52l52.593,52.592C123.733,63.905,123.733,67.195,121.712,69.218z"/>
	<linearGradient id="SVGID_8_" gradientUnits="userSpaceOnUse" x1="96.2152" y1="109.3659" x2="34.7851" y2="21.6346">
		<stop  offset="0" style="stop-color:#000000;stop-opacity:0"/>
		<stop  offset="1" style="stop-color:#FFFFFF;stop-opacity:0.25"/>
	</linearGradient>
	<path fill-rule="evenodd" clip-rule="evenodd" fill="url(#SVGID_8_)" d="M71.496,4.559l54.946,54.946
		c3.339,3.339,3.339,8.755,0,12.095l-54.842,54.842c-3.339,3.338-8.755,3.338-12.095,0L4.56,71.497
		c-3.341-3.339-3.341-8.756,0-12.095L59.4,4.559C62.741,1.22,68.157,1.22,71.496,4.559L71.496,4.559z"/>
</g>
<g id="normal">
	<g>
		<defs>
			<path id="SVGID_9_" d="M72.496,5.559l54.946,54.946c3.339,3.339,3.339,8.755,0,12.095l-54.842,54.842
				c-3.339,3.338-8.755,3.338-12.095,0L5.56,72.497c-3.341-3.339-3.341-8.756,0-12.095L60.4,5.559
				C63.741,2.22,69.157,2.22,72.496,5.559L72.496,5.559z"/>
		</defs>
		<defs>
			<path id="SVGID_10_" d="M71.496,4.559l54.946,54.946c3.339,3.339,3.339,8.755,0,12.095l-54.842,54.842
				c-3.339,3.338-8.755,3.338-12.095,0L4.56,71.497c-3.341-3.339-3.341-8.756,0-12.095L59.4,4.559
				C62.741,1.22,68.157,1.22,71.496,4.559L71.496,4.559z"/>
		</defs>
		<linearGradient id="SVGID_11_" gradientUnits="userSpaceOnUse" x1="3.054" y1="66.5" x2="129.946" y2="66.5">
			<stop  offset="0" style="stop-color:#000000;stop-opacity:0.6"/>
			<stop  offset="1" style="stop-color:#000000;stop-opacity:0.6"/>
		</linearGradient>
		<use xlink:href="#SVGID_9_"  overflow="visible" fill-rule="evenodd" clip-rule="evenodd" fill="url(#SVGID_11_)"/>
		<use xlink:href="#SVGID_10_"  overflow="visible" fill="#FFC000"/>
		<clipPath id="SVGID_12_">
			<use xlink:href="#SVGID_9_"  overflow="visible"/>
		</clipPath>
		<clipPath id="SVGID_13_" clip-path="url(#SVGID_12_)">
			<use xlink:href="#SVGID_10_"  overflow="visible"/>
		</clipPath>
	</g>
	<g>
		<defs>
			<path id="SVGID_14_" d="M81.947,52.927c1.048,5.664,2.327,11.073,3.904,16.237l-2.148,1.072c0.846,1.599,1.578,3.311,2.24,5.183
				l-2.534,11.145v2.625l0.569-0.183l1.667,1.462c1.804-0.115,1.486,1.165,2.239,1.759h-3.403l-1.371-0.867l-1.368-0.205
				l-0.092,1.165l-2.235-0.184l-0.208-3.515l1.074-1.576l0.207-7.514l1.072-3.335l-2.831-4.109l-1.667,0.389l0.388,3.424
				c-2.077,3.473-4.842,6.716-8.291,9.773l0.596,2.056l0.182,1.573l1.849,1.373c-0.137,0.753-0.276,1.118-0.686,1.368
				c-1.484,0.276-3.012-1.552-4.568-3.629l-0.501,0.388l-1.552-1.667l0.775-2.327l2.444-0.984c1.323-3.608,2.99-6.441,4.978-8.404
				l-0.502-2.833l-4.681-2.555c3.516-4.5,5.091-10.161,4.681-16.898c-3.928,4.589-6.28,9.361-7.604,14.27l-1.165,1.371l-2.534,0.092
				l-4.111,3.127h-1.163l-4.592-2.83l-0.57,4.795l2.83,4.201l-0.111,0.958l1.667,2.444l-1.371,7.149l3.608,2.054v1.257l-6.325-0.184
				c0.205-1.026-0.182-2.03,0.57-3.036c-0.412-2.373-0.412-4.726-0.09-7.034l-1.462-0.98l-2.442-1.552l-1.166,2.533h-1.166
				c-1.552,2.4-3.492,3.973-5.866,4.797l0.09,1.165l0.98,2.442l-0.182,1.072c-1.667,0.094-2.807-0.979-3.515-3.217l-0.892-0.297
				l-0.068-2.444l2.604-0.777l3.426-3.219l1.163-1.668l-1.074-0.888c1.555-3.061,2.308-6.189,2.445-9.478
				c-1.736,3.723-3.7,6.805-5.96,9.294c-0.664,0.617-1.76-0.045-1.349-1.667l1.462-1.665c2.308-7.425,4.91-10.232,7.512-12.311
				V61.72c-4.041-1.371-2.352-7.924,2.148-7.901c1.983,0.342,3.288,1.208,3.904,2.626v0.98l-0.41,0.982l0.685,0.869l-0.867,0.685
				v0.89l-0.389,1.37l-1.462,0.777c2.009,2.353,4.225,4.568,6.919,6.464c2.306-1.142,4.34-2.673,6.052-4.5
				c1.618-6.645,4.543-12.924,8.767-18.976c1.211-0.252,2.376-1.14,3.519-2.739c-5.824-2.216-2.101-11.899,2.646-10.847
				c4.753,1.051,4.981,2.649,5.07,3.426c0.094,0.775,0.181,1.165,0.181,1.165l-0.476,0.502l-0.09,1.667l0.866,0.959l-0.591,1.872
				l-0.664,1.166l-1.576,0.388l-0.296,1.46h0.685l7.33,9.294l7.216,0.594l0.57,0.297l0.799-0.594l1.757,0.391
				c1.395,0.706,1.029,1.413,0.092,2.143l-2.833,0.116l-6.826,1.643L81.947,52.927L81.947,52.927z"/>
		</defs>
		<use xlink:href="#SVGID_14_"  overflow="visible" fill-rule="evenodd" clip-rule="evenodd"/>
		<clipPath id="SVGID_15_">
			<use xlink:href="#SVGID_14_"  overflow="visible"/>
		</clipPath>
	</g>
	<path fill-rule="evenodd" clip-rule="evenodd" d="M123.833,59.761L71.24,7.169c-3.198-3.198-8.381-3.198-11.579,0L7.169,59.661
		c-3.198,3.198-3.198,8.383,0,11.579l52.593,52.593c3.196,3.196,8.381,3.196,11.577,0l52.494-52.494
		C127.029,68.142,127.029,62.958,123.833,59.761z M121.712,69.218l-52.494,52.494c-0.979,0.979-2.282,1.519-3.667,1.519
		c-1.386,0-2.688-0.539-3.668-1.519L9.29,69.119c-0.98-0.979-1.52-2.282-1.52-3.667c0-1.386,0.54-2.689,1.52-3.669L61.782,9.29
		c0.98-0.98,2.283-1.52,3.668-1.52c1.385,0,2.688,0.54,3.668,1.52l52.593,52.592C123.733,63.905,123.733,67.195,121.712,69.218z"/>
	<linearGradient id="SVGID_16_" gradientUnits="userSpaceOnUse" x1="96.2152" y1="109.3659" x2="34.7851" y2="21.6346">
		<stop  offset="0" style="stop-color:#000000;stop-opacity:0"/>
		<stop  offset="1" style="stop-color:#FFFFFF;stop-opacity:0.25"/>
	</linearGradient>
	<path fill-rule="evenodd" clip-rule="evenodd" fill="url(#SVGID_16_)" d="M71.496,4.559l54.946,54.946
		c3.339,3.339,3.339,8.755,0,12.095l-54.842,54.842c-3.339,3.338-8.755,3.338-12.095,0L4.56,71.497
		c-3.341-3.339-3.341-8.756,0-12.095L59.4,4.559C62.741,1.22,68.157,1.22,71.496,4.559L71.496,4.559z"/>
</g>
</svg>
