<?xml version="1.0" encoding="utf-8"?>
<!-- Generator: Adobe Illustrator 17.0.1, SVG Export Plug-In . SVG Version: 6.00 Build 0)  -->
<!DOCTYPE svg PUBLIC "-//W3C//DTD SVG 1.1//EN" "http://www.w3.org/Graphics/SVG/1.1/DTD/svg11.dtd">
<svg version="1.1" xmlns="http://www.w3.org/2000/svg" xmlns:xlink="http://www.w3.org/1999/xlink" x="0px" y="0px" width="132px"
	 height="132px" viewBox="0 0 132 132" enable-background="new 0 0 132 132" xml:space="preserve">
<g id="disabled">
	<g>
		<defs>
			<path id="SVGID_1_" d="M72.436,6.177l54.387,54.389c3.306,3.306,3.306,8.665,0,11.972l-54.285,54.287
				c-3.306,3.305-8.667,3.305-11.973,0L6.177,72.436c-3.306-3.306-3.306-8.665,0-11.973L60.463,6.177
				C63.769,2.871,69.129,2.871,72.436,6.177L72.436,6.177z"/>
		</defs>
		<defs>
			<path id="SVGID_2_" d="M71.436,5.177l54.387,54.389c3.306,3.306,3.306,8.665,0,11.972l-54.285,54.287
				c-3.306,3.305-8.667,3.305-11.973,0L5.177,71.436c-3.306-3.306-3.306-8.665,0-11.973L59.463,5.177
				C62.769,1.871,68.129,1.871,71.436,5.177L71.436,5.177z"/>
		</defs>
		<linearGradient id="SVGID_3_" gradientUnits="userSpaceOnUse" x1="3.6977" y1="66.5" x2="129.3023" y2="66.5">
			<stop  offset="0" style="stop-color:#000000;stop-opacity:0.6"/>
			<stop  offset="1" style="stop-color:#000000;stop-opacity:0.6"/>
		</linearGradient>
		<use xlink:href="#SVGID_1_"  overflow="visible" fill-rule="evenodd" clip-rule="evenodd" fill="url(#SVGID_3_)"/>
		<use xlink:href="#SVGID_2_"  overflow="visible" fill-rule="evenodd" clip-rule="evenodd" fill="#C6C6C6"/>
		<clipPath id="SVGID_4_">
			<use xlink:href="#SVGID_1_"  overflow="visible"/>
		</clipPath>
		<clipPath id="SVGID_5_" clip-path="url(#SVGID_4_)">
			<use xlink:href="#SVGID_2_"  overflow="visible"/>
		</clipPath>
	</g>
	<g>
		<defs>
			<path id="SVGID_6_" d="M123.705,71.326l-52.379,52.381c-3.19,3.19-8.363,3.19-11.553,0L7.295,71.227
				c-3.19-3.19-3.19-8.362,0-11.552L59.674,7.295c3.19-3.19,8.362-3.19,11.553,0l52.478,52.478
				C126.895,62.964,126.895,68.136,123.705,71.326L123.705,71.326z M120.714,62.933L68.12,10.339c-1.417-1.417-3.713-1.417-5.131,0
				L10.394,62.933c-1.417,1.418-1.417,3.715,0,5.131l52.594,52.594c1.418,1.416,3.715,1.416,5.131,0l52.594-52.594
				C122.132,66.648,122.132,64.351,120.714,62.933L120.714,62.933z"/>
		</defs>
		<use xlink:href="#SVGID_6_"  overflow="visible" fill-rule="evenodd" clip-rule="evenodd"/>
		<clipPath id="SVGID_7_">
			<use xlink:href="#SVGID_6_"  overflow="visible"/>
		</clipPath>
	</g>
	<g>
		<defs>
			<path id="SVGID_8_" d="M72.141,61.365c-9.486-3.274-13.165-11.235-12.212-19.43c0.236-1.523,0.47-3.045,0.709-4.569
				c0.751-1.426,1.872-2.05,3.201-2.222c0.646,0.016,1.021-0.743,0-0.701c-0.552,0.155-1.106,0.31-1.659,0.467
				c-0.339,0.092-0.417-0.181-0.239-0.819c0.081-0.352,0.158-0.701,0.239-1.053c0.236-0.703,0.475-1.404,0.709-2.108
				c0.317-0.78,0.633-1.562,0.95-2.34c0.312-0.864-0.231-0.473-0.409-0.199c-0.468,0.404-0.767,1.071-1.014,1.838
				c-0.04,0.349-0.078,0.701-0.12,1.053c-0.192,0.438-0.413,0.732-0.83,0c-0.195-0.389-0.394-0.015-0.591-0.405
				c0.052-0.467,0.008-1.702-0.237-2.172c-0.368-0.877-0.271-1.848-0.239-2.809c0.178-1.614-0.058-1.352-0.355-0.817
				c-0.273,0.699-0.552,1.404-0.829,2.106c-1.513,0.057-2.077-2.793-2.042-5.724c-0.168-0.793-0.795-0.564-0.799,0.086
				c-0.195,1.252,0.039,3.224,0.234,4.936c-1.081,0.916-1.725-1.647-2.019-2.342c-0.195-0.436-0.391-0.664-0.593,0.586
				c-0.023,0.418-0.082,0.993,0.355,1.638c0.237,0.588,0.832,1.169,1.068,1.756c1.423,1.328,2.848,2.655,4.27,3.981
				c0.598,1.095,1.131,2.571-0.496,3.663c-1.045,0.297-1.597,0.38-2.531,1.019c-2.016,0.312-4.679,0.391-6.698,0.703
				c-2.093-0.12-2.45,0.627-1.066,1.756c0.118,0.195,0.236,0.391,0.355,0.585c-0.433,0.976-0.079,1.328,1.068,1.053
				c1.147,0.43,2.29,0.859,3.435,1.289c-0.036,3.164-0.074,6.325-0.115,9.484c-1.73,1.308-3.298,2.702-3.758,4.637
				c-0.483,1.497-1.127,2.218-1.935,2.15c-1.187-0.388-2.373-0.78-3.56-1.166c-2.012-0.665-3.082-0.081-3.201,1.751
				c0.598,1.835,1.071,3.668,0.714,5.503c0.354,0.937,0.711,1.875,1.064,2.812c0.871,1.09,1.743,1.87,2.61,2.34
				c0.397-0.157,0.791-0.312,1.186-0.467c-0.199-0.47-0.394-0.938-0.59-1.407c-1.604-2.03-2.515-4.059-1.898-6.087
				c0.236-0.31,0.472-0.622,0.709-0.935c1.384,0.699,2.77,1.404,4.149,2.108c2.749,2.26,6.15,2.807,9.843,2.573
				c4.85,1.925,13.737,4.434,16.132,9.717c0.037,0.935,0.155,1.87,0.829,2.81c2.014,2.226,4.031,4.45,6.047,6.671
				c0.594,1.368,1.184,2.733,1.778,4.099c-0.355,1.562-0.393,3.124-0.12,4.682c0.793,1.481,2.216,2.65,4.269,3.513
				c0.357-1.053,0.394-2.109,0.121-3.162c-0.475-0.194-0.951-0.389-1.423-0.585c-0.121-1.231-0.674-2.243-1.423-3.161
				c0-0.703,0-1.404,0-2.105c0.315-0.743,0.632-1.484,0.948-2.227c0.136-0.623-0.153-1.249-0.355-1.874
				c-1.741-1.872-2.928-3.747-4.033-5.618c-0.475-1.875-0.833-3.746-0.355-5.619c1.106-2.148,1.423-4.138,0.948-5.971
				c1.152-0.195,4.414-1.899,3.558-3.629c-0.552-0.782-0.512,0.591-0.832,0.824c-0.917,1.218-1.885,1.878-3.177,1.987
				C79.397,62.016,75.596,61.695,72.141,61.365L72.141,61.365z"/>
		</defs>
		<use xlink:href="#SVGID_8_"  overflow="visible" fill-rule="evenodd" clip-rule="evenodd"/>
		<clipPath id="SVGID_9_">
			<use xlink:href="#SVGID_8_"  overflow="visible"/>
		</clipPath>
	</g>
	<linearGradient id="SVGID_10_" gradientUnits="userSpaceOnUse" x1="95.9034" y1="108.9212" x2="35.0964" y2="22.0798">
		<stop  offset="0" style="stop-color:#000000;stop-opacity:0"/>
		<stop  offset="1" style="stop-color:#FFFFFF"/>
	</linearGradient>
	<path opacity="0.2" fill-rule="evenodd" clip-rule="evenodd" fill="url(#SVGID_10_)" d="M71.436,5.177l54.387,54.389
		c3.306,3.306,3.306,8.665,0,11.972l-54.285,54.287c-3.306,3.305-8.667,3.305-11.973,0L5.177,71.436
		c-3.306-3.306-3.306-8.665,0-11.973L59.463,5.177C62.769,1.871,68.129,1.871,71.436,5.177L71.436,5.177z"/>
</g>
<g id="normal">
	<g>
		<defs>
			<path id="SVGID_11_" d="M72.436,6.177l54.387,54.389c3.306,3.306,3.306,8.665,0,11.972l-54.285,54.287
				c-3.306,3.305-8.667,3.305-11.973,0L6.177,72.436c-3.306-3.306-3.306-8.665,0-11.973L60.463,6.177
				C63.769,2.871,69.129,2.871,72.436,6.177L72.436,6.177z"/>
		</defs>
		<defs>
			<path id="SVGID_12_" d="M71.436,5.177l54.387,54.389c3.306,3.306,3.306,8.665,0,11.972l-54.285,54.287
				c-3.306,3.305-8.667,3.305-11.973,0L5.177,71.436c-3.306-3.306-3.306-8.665,0-11.973L59.463,5.177
				C62.769,1.871,68.129,1.871,71.436,5.177L71.436,5.177z"/>
		</defs>
		<linearGradient id="SVGID_13_" gradientUnits="userSpaceOnUse" x1="3.6977" y1="66.5" x2="129.3023" y2="66.5">
			<stop  offset="0" style="stop-color:#000000;stop-opacity:0.6"/>
			<stop  offset="1" style="stop-color:#000000;stop-opacity:0.6"/>
		</linearGradient>
		<use xlink:href="#SVGID_11_"  overflow="visible" fill-rule="evenodd" clip-rule="evenodd" fill="url(#SVGID_13_)"/>
		<use xlink:href="#SVGID_12_"  overflow="visible" fill-rule="evenodd" clip-rule="evenodd" fill="#FECB11"/>
		<clipPath id="SVGID_14_">
			<use xlink:href="#SVGID_11_"  overflow="visible"/>
		</clipPath>
		<clipPath id="SVGID_15_" clip-path="url(#SVGID_14_)">
			<use xlink:href="#SVGID_12_"  overflow="visible"/>
		</clipPath>
	</g>
	<g>
		<defs>
			<path id="SVGID_16_" d="M123.705,71.326l-52.379,52.381c-3.19,3.19-8.363,3.19-11.553,0L7.295,71.227
				c-3.19-3.19-3.19-8.362,0-11.552L59.674,7.295c3.19-3.19,8.362-3.19,11.553,0l52.478,52.478
				C126.895,62.964,126.895,68.136,123.705,71.326L123.705,71.326z M120.714,62.933L68.12,10.339c-1.417-1.417-3.713-1.417-5.131,0
				L10.394,62.933c-1.417,1.418-1.417,3.715,0,5.131l52.594,52.594c1.418,1.416,3.715,1.416,5.131,0l52.594-52.594
				C122.132,66.648,122.132,64.351,120.714,62.933L120.714,62.933z"/>
		</defs>
		<use xlink:href="#SVGID_16_"  overflow="visible" fill-rule="evenodd" clip-rule="evenodd"/>
		<clipPath id="SVGID_17_">
			<use xlink:href="#SVGID_16_"  overflow="visible"/>
		</clipPath>
	</g>
	<g>
		<defs>
			<path id="SVGID_18_" d="M72.141,61.365c-9.486-3.274-13.165-11.235-12.212-19.43c0.236-1.523,0.47-3.045,0.709-4.569
				c0.751-1.426,1.872-2.05,3.201-2.222c0.646,0.016,1.021-0.743,0-0.701c-0.552,0.155-1.106,0.31-1.659,0.467
				c-0.339,0.092-0.417-0.181-0.239-0.819c0.081-0.352,0.158-0.701,0.239-1.053c0.236-0.703,0.475-1.404,0.709-2.108
				c0.317-0.78,0.633-1.562,0.95-2.34c0.312-0.864-0.231-0.473-0.409-0.199c-0.468,0.404-0.767,1.071-1.014,1.838
				c-0.04,0.349-0.078,0.701-0.12,1.053c-0.192,0.438-0.413,0.732-0.83,0c-0.195-0.389-0.394-0.015-0.591-0.405
				c0.052-0.467,0.008-1.702-0.237-2.172c-0.368-0.877-0.271-1.848-0.239-2.809c0.178-1.614-0.058-1.352-0.355-0.817
				c-0.273,0.699-0.552,1.404-0.829,2.106c-1.513,0.057-2.077-2.793-2.042-5.724c-0.168-0.793-0.795-0.564-0.799,0.086
				c-0.195,1.252,0.039,3.224,0.234,4.936c-1.081,0.916-1.725-1.647-2.019-2.342c-0.195-0.436-0.391-0.664-0.593,0.586
				c-0.023,0.418-0.082,0.993,0.355,1.638c0.237,0.588,0.832,1.169,1.068,1.756c1.423,1.328,2.848,2.655,4.27,3.981
				c0.598,1.095,1.131,2.571-0.496,3.663c-1.045,0.297-1.597,0.38-2.531,1.019c-2.016,0.312-4.679,0.391-6.698,0.703
				c-2.093-0.12-2.45,0.627-1.066,1.756c0.118,0.195,0.236,0.391,0.355,0.585c-0.433,0.976-0.079,1.328,1.068,1.053
				c1.147,0.43,2.29,0.859,3.435,1.289c-0.036,3.164-0.074,6.325-0.115,9.484c-1.73,1.308-3.298,2.702-3.758,4.637
				c-0.483,1.497-1.127,2.218-1.935,2.15c-1.187-0.388-2.373-0.78-3.56-1.166c-2.012-0.665-3.082-0.081-3.201,1.751
				c0.598,1.835,1.071,3.668,0.714,5.503c0.354,0.937,0.711,1.875,1.064,2.812c0.871,1.09,1.743,1.87,2.61,2.34
				c0.397-0.157,0.791-0.312,1.186-0.467c-0.199-0.47-0.394-0.938-0.59-1.407c-1.604-2.03-2.515-4.059-1.898-6.087
				c0.236-0.31,0.472-0.622,0.709-0.935c1.384,0.699,2.77,1.404,4.149,2.108c2.749,2.26,6.15,2.807,9.843,2.573
				c4.85,1.925,13.737,4.434,16.132,9.717c0.037,0.935,0.155,1.87,0.829,2.81c2.014,2.226,4.031,4.45,6.047,6.671
				c0.594,1.368,1.184,2.733,1.778,4.099c-0.355,1.562-0.393,3.124-0.12,4.682c0.793,1.481,2.216,2.65,4.269,3.513
				c0.357-1.053,0.394-2.109,0.121-3.162c-0.475-0.194-0.951-0.389-1.423-0.585c-0.121-1.231-0.674-2.243-1.423-3.161
				c0-0.703,0-1.404,0-2.105c0.315-0.743,0.632-1.484,0.948-2.227c0.136-0.623-0.153-1.249-0.355-1.874
				c-1.741-1.872-2.928-3.747-4.033-5.618c-0.475-1.875-0.833-3.746-0.355-5.619c1.106-2.148,1.423-4.138,0.948-5.971
				c1.152-0.195,4.414-1.899,3.558-3.629c-0.552-0.782-0.512,0.591-0.832,0.824c-0.917,1.218-1.885,1.878-3.177,1.987
				C79.397,62.016,75.596,61.695,72.141,61.365L72.141,61.365z"/>
		</defs>
		<use xlink:href="#SVGID_18_"  overflow="visible" fill-rule="evenodd" clip-rule="evenodd"/>
		<clipPath id="SVGID_19_">
			<use xlink:href="#SVGID_18_"  overflow="visible"/>
		</clipPath>
	</g>
	<linearGradient id="SVGID_20_" gradientUnits="userSpaceOnUse" x1="95.9034" y1="108.9212" x2="35.0964" y2="22.0798">
		<stop  offset="0" style="stop-color:#000000;stop-opacity:0"/>
		<stop  offset="1" style="stop-color:#FFFFFF"/>
	</linearGradient>
	<path opacity="0.2" fill-rule="evenodd" clip-rule="evenodd" fill="url(#SVGID_20_)" d="M71.436,5.177l54.387,54.389
		c3.306,3.306,3.306,8.665,0,11.972l-54.285,54.287c-3.306,3.305-8.667,3.305-11.973,0L5.177,71.436
		c-3.306-3.306-3.306-8.665,0-11.973L59.463,5.177C62.769,1.871,68.129,1.871,71.436,5.177L71.436,5.177z"/>
</g>
</svg>
