<?xml version="1.0" encoding="utf-8"?>
<!-- Generator: Adobe Illustrator 17.0.1, SVG Export Plug-In . SVG Version: 6.00 Build 0)  -->
<!DOCTYPE svg PUBLIC "-//W3C//DTD SVG 1.1//EN" "http://www.w3.org/Graphics/SVG/1.1/DTD/svg11.dtd">
<svg version="1.1" xmlns="http://www.w3.org/2000/svg" xmlns:xlink="http://www.w3.org/1999/xlink" x="0px" y="0px" width="132px"
	 height="132px" viewBox="0 0 132 132" enable-background="new 0 0 132 132" xml:space="preserve">
<g id="disabled">
	<g>
		<defs>
			<path id="SVGID_1_" d="M72.436,6.177l54.387,54.389c3.306,3.306,3.306,8.667,0,11.973l-54.285,54.284
				c-3.306,3.308-8.667,3.308-11.973,0L6.177,72.435c-3.306-3.306-3.306-8.667,0-11.973L60.463,6.177
				C63.769,2.87,69.129,2.87,72.436,6.177L72.436,6.177z"/>
		</defs>
		<defs>
			<path id="SVGID_2_" d="M71.436,5.177l54.387,54.389c3.306,3.306,3.306,8.667,0,11.973l-54.285,54.284
				c-3.306,3.308-8.667,3.308-11.973,0L5.177,71.435c-3.306-3.306-3.306-8.667,0-11.973L59.463,5.177
				C62.769,1.87,68.129,1.87,71.436,5.177L71.436,5.177z"/>
		</defs>
		<linearGradient id="SVGID_3_" gradientUnits="userSpaceOnUse" x1="3.6977" y1="66.5" x2="129.3023" y2="66.5">
			<stop  offset="0" style="stop-color:#000000;stop-opacity:0.6"/>
			<stop  offset="1" style="stop-color:#000000;stop-opacity:0.6"/>
		</linearGradient>
		<use xlink:href="#SVGID_1_"  overflow="visible" fill-rule="evenodd" clip-rule="evenodd" fill="url(#SVGID_3_)"/>
		<use xlink:href="#SVGID_2_"  overflow="visible" fill-rule="evenodd" clip-rule="evenodd" fill="#C6C6C6"/>
		<clipPath id="SVGID_4_">
			<use xlink:href="#SVGID_1_"  overflow="visible"/>
		</clipPath>
		<clipPath id="SVGID_5_" clip-path="url(#SVGID_4_)">
			<use xlink:href="#SVGID_2_"  overflow="visible"/>
		</clipPath>
	</g>
	<g>
		<defs>
			<path id="SVGID_6_" d="M123.705,71.325l-52.379,52.379c-3.19,3.192-8.363,3.192-11.553,0L7.295,71.227
				c-3.19-3.19-3.19-8.362,0-11.552L59.674,7.296c3.19-3.192,8.362-3.192,11.553,0l52.478,52.478
				C126.895,62.964,126.895,68.135,123.705,71.325L123.705,71.325z M120.714,62.935L68.12,10.339c-1.417-1.417-3.713-1.417-5.131,0
				L10.394,62.935c-1.417,1.415-1.417,3.713,0,5.131l52.594,52.594c1.418,1.416,3.715,1.416,5.131,0l52.594-52.594
				C122.132,66.648,122.132,64.349,120.714,62.935L120.714,62.935z"/>
		</defs>
		<use xlink:href="#SVGID_6_"  overflow="visible" fill-rule="evenodd" clip-rule="evenodd"/>
		<clipPath id="SVGID_7_">
			<use xlink:href="#SVGID_6_"  overflow="visible"/>
		</clipPath>
	</g>
	<g>
		<defs>
			<path id="SVGID_8_" d="M97.275,77.857v8h-2.999v4.001h-8v-4.001h-9v4.001h-8v-4.001h-9.001v4.001h-8v-4.001h-9v4.001h-8v-4.001
				h-3.001v-8h3.001v-20h-3.001v-8h3.001v-4.001l3.886-4.755l4.114,4.755v4.001h9v-4.001l4.01-4.755l3.989,4.755v4.001h9.001v-4.001
				l4.135-4.755l3.865,4.755v4.001h9v-4.001l3.999-4.999l4.001,4.999v4.001h2.999v8h-2.999v20H97.275L97.275,77.857z M43.275,57.857
				v20h9v-20H43.275L43.275,57.857z M60.275,57.857v20h9.001v-20H60.275L60.275,57.857z M86.276,57.857h-9v20h9V57.857
				L86.276,57.857z"/>
		</defs>
		<use xlink:href="#SVGID_8_"  overflow="visible" fill-rule="evenodd" clip-rule="evenodd"/>
		<clipPath id="SVGID_9_">
			<use xlink:href="#SVGID_8_"  overflow="visible"/>
		</clipPath>
	</g>
	<linearGradient id="SVGID_10_" gradientUnits="userSpaceOnUse" x1="95.9031" y1="108.9203" x2="35.0964" y2="22.0794">
		<stop  offset="0" style="stop-color:#000000;stop-opacity:0"/>
		<stop  offset="1" style="stop-color:#FFFFFF;stop-opacity:0.25"/>
	</linearGradient>
	<path fill-rule="evenodd" clip-rule="evenodd" fill="url(#SVGID_10_)" d="M71.436,5.177l54.387,54.389
		c3.306,3.306,3.306,8.667,0,11.973l-54.285,54.284c-3.306,3.308-8.667,3.308-11.973,0L5.177,71.435
		c-3.306-3.306-3.306-8.667,0-11.973L59.463,5.177C62.769,1.87,68.129,1.87,71.436,5.177L71.436,5.177z"/>
</g>
<g id="normal">
	<g>
		<defs>
			<path id="SVGID_11_" d="M72.436,6.177l54.387,54.389c3.306,3.306,3.306,8.667,0,11.973l-54.285,54.284
				c-3.306,3.308-8.667,3.308-11.973,0L6.177,72.435c-3.306-3.306-3.306-8.667,0-11.973L60.463,6.177
				C63.769,2.87,69.129,2.87,72.436,6.177L72.436,6.177z"/>
		</defs>
		<defs>
			<path id="SVGID_12_" d="M71.436,5.177l54.387,54.389c3.306,3.306,3.306,8.667,0,11.973l-54.285,54.284
				c-3.306,3.308-8.667,3.308-11.973,0L5.177,71.435c-3.306-3.306-3.306-8.667,0-11.973L59.463,5.177
				C62.769,1.87,68.129,1.87,71.436,5.177L71.436,5.177z"/>
		</defs>
		<linearGradient id="SVGID_13_" gradientUnits="userSpaceOnUse" x1="3.6977" y1="66.5" x2="129.3023" y2="66.5">
			<stop  offset="0" style="stop-color:#000000;stop-opacity:0.6"/>
			<stop  offset="1" style="stop-color:#000000;stop-opacity:0.6"/>
		</linearGradient>
		<use xlink:href="#SVGID_11_"  overflow="visible" fill-rule="evenodd" clip-rule="evenodd" fill="url(#SVGID_13_)"/>
		<use xlink:href="#SVGID_12_"  overflow="visible" fill-rule="evenodd" clip-rule="evenodd" fill="#FECB11"/>
		<clipPath id="SVGID_14_">
			<use xlink:href="#SVGID_11_"  overflow="visible"/>
		</clipPath>
		<clipPath id="SVGID_15_" clip-path="url(#SVGID_14_)">
			<use xlink:href="#SVGID_12_"  overflow="visible"/>
		</clipPath>
	</g>
	<g>
		<defs>
			<path id="SVGID_16_" d="M123.705,71.325l-52.379,52.379c-3.19,3.192-8.363,3.192-11.553,0L7.295,71.227
				c-3.19-3.19-3.19-8.362,0-11.552L59.674,7.296c3.19-3.192,8.362-3.192,11.553,0l52.478,52.478
				C126.895,62.964,126.895,68.135,123.705,71.325L123.705,71.325z M120.714,62.935L68.12,10.339c-1.417-1.417-3.713-1.417-5.131,0
				L10.394,62.935c-1.417,1.415-1.417,3.713,0,5.131l52.594,52.594c1.418,1.416,3.715,1.416,5.131,0l52.594-52.594
				C122.132,66.648,122.132,64.349,120.714,62.935L120.714,62.935z"/>
		</defs>
		<use xlink:href="#SVGID_16_"  overflow="visible" fill-rule="evenodd" clip-rule="evenodd"/>
		<clipPath id="SVGID_17_">
			<use xlink:href="#SVGID_16_"  overflow="visible"/>
		</clipPath>
	</g>
	<g>
		<defs>
			<path id="SVGID_18_" d="M97.275,77.857v8h-2.999v4.001h-8v-4.001h-9v4.001h-8v-4.001h-9.001v4.001h-8v-4.001h-9v4.001h-8v-4.001
				h-3.001v-8h3.001v-20h-3.001v-8h3.001v-4.001l3.886-4.755l4.114,4.755v4.001h9v-4.001l4.01-4.755l3.989,4.755v4.001h9.001v-4.001
				l4.135-4.755l3.865,4.755v4.001h9v-4.001l3.999-4.999l4.001,4.999v4.001h2.999v8h-2.999v20H97.275L97.275,77.857z M43.275,57.857
				v20h9v-20H43.275L43.275,57.857z M60.275,57.857v20h9.001v-20H60.275L60.275,57.857z M86.276,57.857h-9v20h9V57.857
				L86.276,57.857z"/>
		</defs>
		<use xlink:href="#SVGID_18_"  overflow="visible" fill-rule="evenodd" clip-rule="evenodd"/>
		<clipPath id="SVGID_19_">
			<use xlink:href="#SVGID_18_"  overflow="visible"/>
		</clipPath>
	</g>
	<linearGradient id="SVGID_20_" gradientUnits="userSpaceOnUse" x1="95.9031" y1="108.9203" x2="35.0964" y2="22.0794">
		<stop  offset="0" style="stop-color:#000000;stop-opacity:0"/>
		<stop  offset="1" style="stop-color:#FFFFFF;stop-opacity:0.25"/>
	</linearGradient>
	<path fill-rule="evenodd" clip-rule="evenodd" fill="url(#SVGID_20_)" d="M71.436,5.177l54.387,54.389
		c3.306,3.306,3.306,8.667,0,11.973l-54.285,54.284c-3.306,3.308-8.667,3.308-11.973,0L5.177,71.435
		c-3.306-3.306-3.306-8.667,0-11.973L59.463,5.177C62.769,1.87,68.129,1.87,71.436,5.177L71.436,5.177z"/>
</g>
</svg>
