<?xml version="1.0" encoding="utf-8"?>
<!-- Generator: Adobe Illustrator 17.0.1, SVG Export Plug-In . SVG Version: 6.00 Build 0)  -->
<!DOCTYPE svg PUBLIC "-//W3C//DTD SVG 1.1//EN" "http://www.w3.org/Graphics/SVG/1.1/DTD/svg11.dtd">
<svg version="1.1" xmlns="http://www.w3.org/2000/svg" xmlns:xlink="http://www.w3.org/1999/xlink" x="0px" y="0px" width="132px"
	 height="132px" viewBox="0 0 132 132" enable-background="new 0 0 132 132" xml:space="preserve">
<g id="disabled">
	<g>
		<defs>
			<path id="SVGID_1_" d="M72.436,6.177l54.387,54.389c3.306,3.306,3.306,8.665,0,11.971l-54.285,54.287
				c-3.306,3.306-8.667,3.306-11.973,0L6.177,72.435c-3.306-3.306-3.306-8.667,0-11.973L60.463,6.177
				C63.769,2.87,69.129,2.87,72.436,6.177L72.436,6.177z"/>
		</defs>
		<defs>
			<path id="SVGID_2_" d="M71.436,5.177l54.387,54.389c3.306,3.306,3.306,8.665,0,11.971l-54.285,54.287
				c-3.306,3.306-8.667,3.306-11.973,0L5.177,71.435c-3.306-3.306-3.306-8.667,0-11.973L59.463,5.177
				C62.769,1.87,68.129,1.87,71.436,5.177L71.436,5.177z"/>
		</defs>
		<linearGradient id="SVGID_3_" gradientUnits="userSpaceOnUse" x1="3.6977" y1="66.5" x2="129.3023" y2="66.5">
			<stop  offset="0" style="stop-color:#000000;stop-opacity:0.6"/>
			<stop  offset="1" style="stop-color:#000000;stop-opacity:0.6"/>
		</linearGradient>
		<use xlink:href="#SVGID_1_"  overflow="visible" fill-rule="evenodd" clip-rule="evenodd" fill="url(#SVGID_3_)"/>
		<use xlink:href="#SVGID_2_"  overflow="visible" fill-rule="evenodd" clip-rule="evenodd" fill="#C6C6C6"/>
		<clipPath id="SVGID_4_">
			<use xlink:href="#SVGID_1_"  overflow="visible"/>
		</clipPath>
		<clipPath id="SVGID_5_" clip-path="url(#SVGID_4_)">
			<use xlink:href="#SVGID_2_"  overflow="visible"/>
		</clipPath>
	</g>
	<g>
		<defs>
			<path id="SVGID_6_" d="M123.705,71.325l-52.379,52.379c-3.19,3.192-8.363,3.192-11.553,0L7.295,71.227
				c-3.19-3.19-3.19-8.362,0-11.553L59.674,7.294c3.19-3.19,8.362-3.19,11.553,0l52.478,52.478
				C126.895,62.963,126.895,68.135,123.705,71.325L123.705,71.325z M120.714,62.933L68.12,10.339c-1.417-1.417-3.713-1.417-5.131,0
				L10.394,62.933c-1.417,1.417-1.417,3.715,0,5.131l52.594,52.594c1.418,1.416,3.715,1.416,5.131,0l52.594-52.594
				C122.132,66.648,122.132,64.349,120.714,62.933L120.714,62.933z"/>
		</defs>
		<use xlink:href="#SVGID_6_"  overflow="visible" fill-rule="evenodd" clip-rule="evenodd"/>
		<clipPath id="SVGID_7_">
			<use xlink:href="#SVGID_6_"  overflow="visible"/>
		</clipPath>
	</g>
	<g>
		<defs>
			<path id="SVGID_8_" d="M63.276,57.856c-10.444-0.023-20.559,0.026-31.001,0c-1.14-0.202-0.667-0.959-0.599-1.355
				c1.082-2.809,2.163-5.619,3.245-8.428c0.494-0.791,1.11-1.169,2.355-1.216c7.152-0.026,14.851,0.024,22,0
				c0.872,0.047,1.26,0.357,1.754,1.145c1.2,2.901,2.398,5.806,3.6,8.709C64.98,57.291,64.24,57.832,63.276,57.856L63.276,57.856z
				 M62.276,54.857c-1.05-2.352-1.901-3.49-2.949-5.842c-0.43-0.64-1.292-1.118-2.051-1.158c-6.241,0.019-12.758-0.019-19.001,0
				c-1.087,0.037-1.305,0.577-1.736,1.215c-0.945,2.276-1.318,3.513-2.263,5.785c-0.058,0.321,0.005,0.838,1,1
				c10.809,0.024,18.293-0.015,25.999,0C62.116,55.837,62.581,55.325,62.276,54.857L62.276,54.857z M66.275,71.856h-38
				c-0.506,0-0.976,0.084-0.976-0.291v-0.523c0-0.373,0.47-1.186,0.976-1.186h38c0.506,0,1.318,0.812,1.318,1.186v0.523
				C67.593,71.94,66.781,71.856,66.275,71.856L66.275,71.856z M34.276,78.857h-4.001c-0.394,0-1-0.562-1-1v-3.999
				c0-0.438,1.605-1.001,2-1.001h2.001c0.394,0,2,0.564,2,1.001v3.999C35.276,78.294,34.67,78.857,34.276,78.857L34.276,78.857z
				 M63.276,78.857l-2.13,0.006c-0.396,0-1.87-0.569-1.87-1.006v-3.999c0-0.438,1.605-1.001,2-1.001h2.001c0.396,0,2,0.564,2,1.001
				v3.999C65.275,78.294,63.672,78.857,63.276,78.857L63.276,78.857z M28.276,68.857v-8c0.246-0.908,1.811-2.024,2.999-2.001h33.001
				c0.94,0.047,2.809,1.026,2.999,2.001v8H28.276L28.276,68.857z M32.911,61.933c-1.502,0-2.718,1.202-2.718,2.681
				c0,1.478,1.216,2.678,2.718,2.678c1.499,0,2.717-1.2,2.717-2.678C35.628,63.135,34.41,61.933,32.911,61.933L32.911,61.933z
				 M62.935,61.933c-1.5,0-2.717,1.202-2.717,2.681c0,1.478,1.216,2.678,2.717,2.678s2.717-1.2,2.717-2.678
				C65.652,63.135,64.436,61.933,62.935,61.933L62.935,61.933z M89.189,59.094c-6.881,5.438-13.761,10.875-20.64,16.311
				c-0.459,0.249-0.602-0.234-0.247-0.507c6.764-5.587,13.525-11.177,20.29-16.765C89.369,57.383,90.272,57.811,89.189,59.094
				L89.189,59.094z M95.744,69.04c-8.975,2.715-17.949,5.472-26.923,8.609c-0.669,0.074-0.94-0.659-0.598-1.066
				c7.05-3.72,14.255-7.299,21.454-10.591c0.667-0.481,1.135,0.197,0.268,0.909c-6.755,3.003-13.506,6.249-20.259,9.681
				c8.649-2.946,17.297-5.737,25.947-8.396C96.32,68.043,96.574,68.755,95.744,69.04L95.744,69.04z M94.007,74.815
				c-8.504,1.205-17.227,2.578-25.728,4.064c-0.378-0.073-0.165-0.415,0.053-0.426c8.51-1.725,17.075-3.229,25.731-4.385
				C94.592,73.946,94.917,74.613,94.007,74.815L94.007,74.815z M96.773,55.887c-0.11,0,0,0.053-0.11,0.053l-0.052,0.052
				l-0.057,0.055c0,0.052,0,0.161,0,0.213v0.536c0,0.052,0,0.16-0.053,0.16v0.105l-0.055,0.055l-0.055,0.053l-0.053,0.053
				l-0.053,0.053h-0.273v0.053c-0.052,0-0.162,0-0.215,0h-0.594c-0.057,0-0.163,0-0.22,0H94.82l-0.052-0.053h-1.03l-0.053-0.053
				c-0.057,0-0.108,0-0.108-0.053c-0.055,0-0.163,0-0.216,0h-0.163c0-0.108-0.057,0-0.057-0.108h-0.107l-0.055-0.053l-0.055-0.052
				c0-0.055,0-0.16-0.052-0.16c0-0.057,0-0.162,0-0.216v-0.588c0-0.052,0-0.162,0-0.215v-0.531h0.052c0-0.055,0-0.161,0-0.216h0.11
				l0.055-0.053l0.052-0.055c0-0.052,0.057-0.16,0.11-0.16c0-0.052,0-0.16,0-0.213v-0.373c0-0.055,0-0.108,0.055-0.108v-0.107
				c0.055-0.053,0.108-0.107,0.108-0.16l0.053-0.053c0.055,0,0.162-0.052,0.162-0.108c0.057,0,0.165,0,0.216,0h0.598
				c0.053,0,0.163,0,0.216,0h0.11l0.215,0.057l0.11,0.265c0.053,0,0.163,0,0.216,0h0.434c0.053,0,0.16,0,0.16,0.055
				c0.057,0,0.165,0,0.165,0.052h0.107c0,0.108,0.053,0,0.053,0.108l0.057,0.053h0.107l0.055,0.052l0.055,0.055l0.053,0.053
				l0.057,0.053l0.052,0.055c0,0.052,0,0.105,0.053,0.105c0,0.055,0,0.108,0.057,0.108c0,0.052,0,0.107,0.053,0.107
				c0,0.053,0,0.105,0.053,0.105c0,0.055,0,0.163,0,0.216v0.588C96.826,55.726,96.773,55.831,96.773,55.887L96.773,55.887z
				 M97.042,62.624v0.107c-0.11,0,0,0.053-0.11,0.053l-0.053,0.053c0,0.055,0,0.16,0,0.215v0.373l-0.053,0.053v0.108
				c-0.053,0-0.163,0-0.215,0l-0.057,0.055c-0.053,0-0.163,0-0.216,0h-0.163l-0.053,0.052v0.108l-0.053,0.052v0.108l-0.057,0.053
				c-0.052,0-0.162,0-0.215,0h-0.488l-0.053-0.053h-0.11c0-0.108-0.053,0-0.053-0.108c-0.053,0-0.11,0-0.11-0.052
				c-0.053,0-0.163,0-0.215,0h-0.596c-0.057,0-0.165,0-0.218,0h-0.27l-0.057-0.055h-0.107l-0.055-0.053H93.36l-0.055-0.052
				l-0.055-0.055l-0.053-0.053l-0.057-0.055c0-0.053,0-0.105-0.052-0.105c0-0.053,0-0.161,0-0.216v-0.585c0-0.057,0-0.162,0-0.216
				v-1.069l0.052-0.053c0-0.052,0-0.108,0.057-0.108V61.02l0.053-0.055v-0.16l0.055-0.053l0.055-0.053
				c0.107,0,0.162-0.053,0.216-0.053h0.162l0.107-0.053c0.057,0,0.163,0,0.22,0h0.325c0.163,0,0.326,0,0.486,0h0.596l0.053,0.053
				h0.163l0.057,0.053h0.107c0,0.107,0.053,0,0.053,0.107c0.057,0,0.108,0,0.108,0.055h0.11c0,0.105,0.053,0,0.053,0.105
				c0.053,0,0.326,0.268,0.326,0.268v-0.108l0.053,0.057l0.057,0.052v0.108c0.052,0,0.105,0.103,0.105,0.158l0.057,0.055
				l0.053,0.052l0.053,0.055h0.11l0.053,0.052l0.053,0.055c0,0.055,0,0.108,0.055,0.108c0,0.05,0,0.158,0,0.212v0.485
				C97.042,62.573,97.15,62.624,97.042,62.624L97.042,62.624z M105.33,66.047c0,0.053,0,0.16,0,0.213l-0.053,0.055l-0.053,0.052
				l-0.055,0.053h-0.11c0,0.108-0.053,0-0.053,0.108h-0.11l-0.053,0.052l-0.053,0.055l-0.053,0.053c0,0.053,0,0.16,0,0.213v0.268
				h-0.163c0,0.108-0.055,0-0.055,0.108c-0.053,0-0.163,0-0.216,0h-0.541c-0.053,0-0.163,0-0.163-0.057c-0.053,0-0.216,0-0.273,0
				h-0.594c-0.053,0-0.162,0-0.215,0h-0.598l-0.107-0.052c-0.057,0-0.163,0-0.216,0h-0.108l-0.057-0.053l-0.053-0.053
				c0-0.053,0-0.162,0-0.215v-0.107h-0.055c0-0.053,0-0.161,0-0.213v-0.59c0-0.053,0-0.16,0-0.213v-0.803l0.055-0.053
				c0-0.053,0-0.107,0.053-0.107v-0.108c0.108,0,0-0.05,0.108-0.05c0-0.057,0-0.108,0.057-0.108c0-0.053,0-0.16,0-0.213v-0.43
				l0.053-0.052l0.053-0.055c0.053,0,0.11-0.053,0.163-0.053c0.539-0.486,0.006-0.157,0.541-0.641c0.053,0,0.11,0,0.11-0.055h0.162
				v-0.105c0.053,0,0.163,0,0.216,0h0.596c0.055,0,0.162,0,0.218,0h0.594v0.052h0.163c0,0.053,0.216,0.108,0.271,0.108l0.107-0.055
				c0,0.055,0.11,0.055,0.11,0.16c0.107,0,0,0.055,0.107,0.055v0.108c0.11,0,0,0.053,0.11,0.053l0.055,0.052v0.108
				c0.107,0,0,0.053,0.107,0.053c0,0.055,0,0.107,0.053,0.107c0,0.053,0,0.16,0,0.213v0.59c0,0.052,0,0.158,0,0.212v1.284
				L105.33,66.047L105.33,66.047z M102.241,73.32h-0.053c0,0.053,0,0.16,0,0.213v0.107h-0.053c0,0.053,0,0.161,0,0.213v0.59
				c0,0.052,0,0.16,0,0.213v0.107h-0.055v0.213h-0.055c0,0.053,0,0.161,0,0.213c-0.053,0-0.108,0.108-0.108,0.108v0.32
				c-0.053,0-0.163,0-0.163,0.057c-0.053,0-0.16,0-0.216,0h-0.596c-0.053,0-0.16,0-0.215,0h-0.543l-0.107-0.108
				c-0.057,0-0.163,0-0.163-0.053c-0.057,0-0.163,0-0.216,0h-0.165c-0.053,0-0.107-0.055-0.163-0.055h-0.268
				c-0.055,0-0.11-0.052-0.216-0.052c0,0-0.163-0.161-0.163-0.216l-0.057-0.052v-0.053h-0.053v-0.16l-0.108-0.055
				c0-0.107-0.053,0-0.053-0.107c-0.108-0.107-0.216-0.213-0.326-0.32c-0.053,0-0.162-0.108-0.215-0.108
				c0-0.052,0-0.108-0.055-0.108c0-0.052,0-0.158,0-0.213v-0.428c0-0.052-0.055-0.105-0.055-0.16c0-0.052,0-0.16,0-0.212v-0.43
				c0.11,0,0-0.053,0.11-0.053v-0.107c0.108,0,0-0.053,0.108-0.053l0.053-0.055c0-0.052,0-0.105,0.053-0.105v-0.108l0.057-0.052
				l0.053-0.055l0.053-0.053l0.055-0.053c0.055,0,0.108,0,0.108-0.055c0.053,0,0.162,0,0.215,0h0.22l0.053-0.052
				c0.053,0,0.163,0,0.215,0h0.11v-0.053h0.107l0.057-0.055c0-0.053,0.053-0.108,0.107-0.108c0-0.105,0.057,0,0.057-0.105
				l0.053-0.052l0.055-0.057c0.053,0,0.108,0,0.108-0.053c0.052,0,0.162,0,0.215,0h0.488c0,0.053,0.108,0.11,0.163,0.11
				c0.055,0.052,0.162,0.157,0.216,0.157c0,0,0.11,0,0.162,0h0.163l0.108-0.052h0.326c0.053,0,0.163,0,0.216,0
				c0,0.107,0.053,0,0.053,0.107h0.108l0.163,0.161l0.053,0.052c0,0.055,0,0.108,0.057,0.108c0,0.053,0,0.16,0.053,0.16
				c0,0.053,0,0.161,0,0.213v0.43c0,0.052,0,0.158,0,0.215C102.298,73.16,102.241,73.32,102.241,73.32L102.241,73.32z"/>
		</defs>
		<use xlink:href="#SVGID_8_"  overflow="visible" fill-rule="evenodd" clip-rule="evenodd"/>
		<clipPath id="SVGID_9_">
			<use xlink:href="#SVGID_8_"  overflow="visible"/>
		</clipPath>
	</g>
	<linearGradient id="SVGID_10_" gradientUnits="userSpaceOnUse" x1="95.9036" y1="108.9208" x2="35.0964" y2="22.0791">
		<stop  offset="0" style="stop-color:#000000;stop-opacity:0"/>
		<stop  offset="1" style="stop-color:#FFFFFF"/>
	</linearGradient>
	<path opacity="0.2" fill-rule="evenodd" clip-rule="evenodd" fill="url(#SVGID_10_)" d="M71.436,5.177l54.387,54.389
		c3.306,3.306,3.306,8.665,0,11.971l-54.285,54.287c-3.306,3.306-8.667,3.306-11.973,0L5.177,71.435
		c-3.306-3.306-3.306-8.667,0-11.973L59.463,5.177C62.769,1.87,68.129,1.87,71.436,5.177L71.436,5.177z"/>
</g>
<g id="normal">
	<g>
		<defs>
			<path id="SVGID_11_" d="M72.436,6.177l54.387,54.389c3.306,3.306,3.306,8.665,0,11.971l-54.285,54.287
				c-3.306,3.306-8.667,3.306-11.973,0L6.177,72.435c-3.306-3.306-3.306-8.667,0-11.973L60.463,6.177
				C63.769,2.87,69.129,2.87,72.436,6.177L72.436,6.177z"/>
		</defs>
		<defs>
			<path id="SVGID_12_" d="M71.436,5.177l54.387,54.389c3.306,3.306,3.306,8.665,0,11.971l-54.285,54.287
				c-3.306,3.306-8.667,3.306-11.973,0L5.177,71.435c-3.306-3.306-3.306-8.667,0-11.973L59.463,5.177
				C62.769,1.87,68.129,1.87,71.436,5.177L71.436,5.177z"/>
		</defs>
		<linearGradient id="SVGID_13_" gradientUnits="userSpaceOnUse" x1="3.6977" y1="66.5" x2="129.3023" y2="66.5">
			<stop  offset="0" style="stop-color:#000000;stop-opacity:0.6"/>
			<stop  offset="1" style="stop-color:#000000;stop-opacity:0.6"/>
		</linearGradient>
		<use xlink:href="#SVGID_11_"  overflow="visible" fill-rule="evenodd" clip-rule="evenodd" fill="url(#SVGID_13_)"/>
		<use xlink:href="#SVGID_12_"  overflow="visible" fill-rule="evenodd" clip-rule="evenodd" fill="#FECB11"/>
		<clipPath id="SVGID_14_">
			<use xlink:href="#SVGID_11_"  overflow="visible"/>
		</clipPath>
		<clipPath id="SVGID_15_" clip-path="url(#SVGID_14_)">
			<use xlink:href="#SVGID_12_"  overflow="visible"/>
		</clipPath>
	</g>
	<g>
		<defs>
			<path id="SVGID_16_" d="M123.705,71.325l-52.379,52.379c-3.19,3.192-8.363,3.192-11.553,0L7.295,71.227
				c-3.19-3.19-3.19-8.362,0-11.553L59.674,7.294c3.19-3.19,8.362-3.19,11.553,0l52.478,52.478
				C126.895,62.963,126.895,68.135,123.705,71.325L123.705,71.325z M120.714,62.933L68.12,10.339c-1.417-1.417-3.713-1.417-5.131,0
				L10.394,62.933c-1.417,1.417-1.417,3.715,0,5.131l52.594,52.594c1.418,1.416,3.715,1.416,5.131,0l52.594-52.594
				C122.132,66.648,122.132,64.349,120.714,62.933L120.714,62.933z"/>
		</defs>
		<use xlink:href="#SVGID_16_"  overflow="visible" fill-rule="evenodd" clip-rule="evenodd"/>
		<clipPath id="SVGID_17_">
			<use xlink:href="#SVGID_16_"  overflow="visible"/>
		</clipPath>
	</g>
	<g>
		<defs>
			<path id="SVGID_18_" d="M63.276,57.856c-10.444-0.023-20.559,0.026-31.001,0c-1.14-0.202-0.667-0.959-0.599-1.355
				c1.082-2.809,2.163-5.619,3.245-8.428c0.494-0.791,1.11-1.169,2.355-1.216c7.152-0.026,14.851,0.024,22,0
				c0.872,0.047,1.26,0.357,1.754,1.145c1.2,2.901,2.398,5.806,3.6,8.709C64.98,57.291,64.24,57.832,63.276,57.856L63.276,57.856z
				 M62.276,54.857c-1.05-2.352-1.901-3.49-2.949-5.842c-0.43-0.64-1.292-1.118-2.051-1.158c-6.241,0.019-12.758-0.019-19.001,0
				c-1.087,0.037-1.305,0.577-1.736,1.215c-0.945,2.276-1.318,3.513-2.263,5.785c-0.058,0.321,0.005,0.838,1,1
				c10.809,0.024,18.293-0.015,25.999,0C62.116,55.837,62.581,55.325,62.276,54.857L62.276,54.857z M66.275,71.856h-38
				c-0.506,0-0.976,0.084-0.976-0.291v-0.523c0-0.373,0.47-1.186,0.976-1.186h38c0.506,0,1.318,0.812,1.318,1.186v0.523
				C67.593,71.94,66.781,71.856,66.275,71.856L66.275,71.856z M34.276,78.857h-4.001c-0.394,0-1-0.562-1-1v-3.999
				c0-0.438,1.605-1.001,2-1.001h2.001c0.394,0,2,0.564,2,1.001v3.999C35.276,78.294,34.67,78.857,34.276,78.857L34.276,78.857z
				 M63.276,78.857l-2.13,0.006c-0.396,0-1.87-0.569-1.87-1.006v-3.999c0-0.438,1.605-1.001,2-1.001h2.001c0.396,0,2,0.564,2,1.001
				v3.999C65.275,78.294,63.672,78.857,63.276,78.857L63.276,78.857z M28.276,68.857v-8c0.246-0.908,1.811-2.024,2.999-2.001h33.001
				c0.94,0.047,2.809,1.026,2.999,2.001v8H28.276L28.276,68.857z M32.911,61.933c-1.502,0-2.718,1.202-2.718,2.681
				c0,1.478,1.216,2.678,2.718,2.678c1.499,0,2.717-1.2,2.717-2.678C35.628,63.135,34.41,61.933,32.911,61.933L32.911,61.933z
				 M62.935,61.933c-1.5,0-2.717,1.202-2.717,2.681c0,1.478,1.216,2.678,2.717,2.678s2.717-1.2,2.717-2.678
				C65.652,63.135,64.436,61.933,62.935,61.933L62.935,61.933z M89.189,59.094c-6.881,5.438-13.761,10.875-20.64,16.311
				c-0.459,0.249-0.602-0.234-0.247-0.507c6.764-5.587,13.525-11.177,20.29-16.765C89.369,57.383,90.272,57.811,89.189,59.094
				L89.189,59.094z M95.744,69.04c-8.975,2.715-17.949,5.472-26.923,8.609c-0.669,0.074-0.94-0.659-0.598-1.066
				c7.05-3.72,14.255-7.299,21.454-10.591c0.667-0.481,1.135,0.197,0.268,0.909c-6.755,3.003-13.506,6.249-20.259,9.681
				c8.649-2.946,17.297-5.737,25.947-8.396C96.32,68.043,96.574,68.755,95.744,69.04L95.744,69.04z M94.007,74.815
				c-8.504,1.205-17.227,2.578-25.728,4.064c-0.378-0.073-0.165-0.415,0.053-0.426c8.51-1.725,17.075-3.229,25.731-4.385
				C94.592,73.946,94.917,74.613,94.007,74.815L94.007,74.815z M96.773,55.887c-0.11,0,0,0.053-0.11,0.053l-0.052,0.052
				l-0.057,0.055c0,0.052,0,0.161,0,0.213v0.536c0,0.052,0,0.16-0.053,0.16v0.105l-0.055,0.055l-0.055,0.053l-0.053,0.053
				l-0.053,0.053h-0.273v0.053c-0.052,0-0.162,0-0.215,0h-0.594c-0.057,0-0.163,0-0.22,0H94.82l-0.052-0.053h-1.03l-0.053-0.053
				c-0.057,0-0.108,0-0.108-0.053c-0.055,0-0.163,0-0.216,0h-0.163c0-0.108-0.057,0-0.057-0.108h-0.107l-0.055-0.053l-0.055-0.052
				c0-0.055,0-0.16-0.052-0.16c0-0.057,0-0.162,0-0.216v-0.588c0-0.052,0-0.162,0-0.215v-0.531h0.052c0-0.055,0-0.161,0-0.216h0.11
				l0.055-0.053l0.052-0.055c0-0.052,0.057-0.16,0.11-0.16c0-0.052,0-0.16,0-0.213v-0.373c0-0.055,0-0.108,0.055-0.108v-0.107
				c0.055-0.053,0.108-0.107,0.108-0.16l0.053-0.053c0.055,0,0.162-0.052,0.162-0.108c0.057,0,0.165,0,0.216,0h0.598
				c0.053,0,0.163,0,0.216,0h0.11l0.215,0.057l0.11,0.265c0.053,0,0.163,0,0.216,0h0.434c0.053,0,0.16,0,0.16,0.055
				c0.057,0,0.165,0,0.165,0.052h0.107c0,0.108,0.053,0,0.053,0.108l0.057,0.053h0.107l0.055,0.052l0.055,0.055l0.053,0.053
				l0.057,0.053l0.052,0.055c0,0.052,0,0.105,0.053,0.105c0,0.055,0,0.108,0.057,0.108c0,0.052,0,0.107,0.053,0.107
				c0,0.053,0,0.105,0.053,0.105c0,0.055,0,0.163,0,0.216v0.588C96.826,55.726,96.773,55.831,96.773,55.887L96.773,55.887z
				 M97.042,62.624v0.107c-0.11,0,0,0.053-0.11,0.053l-0.053,0.053c0,0.055,0,0.16,0,0.215v0.373l-0.053,0.053v0.108
				c-0.053,0-0.163,0-0.215,0l-0.057,0.055c-0.053,0-0.163,0-0.216,0h-0.163l-0.053,0.052v0.108l-0.053,0.052v0.108l-0.057,0.053
				c-0.052,0-0.162,0-0.215,0h-0.488l-0.053-0.053h-0.11c0-0.108-0.053,0-0.053-0.108c-0.053,0-0.11,0-0.11-0.052
				c-0.053,0-0.163,0-0.215,0h-0.596c-0.057,0-0.165,0-0.218,0h-0.27l-0.057-0.055h-0.107l-0.055-0.053H93.36l-0.055-0.052
				l-0.055-0.055l-0.053-0.053l-0.057-0.055c0-0.053,0-0.105-0.052-0.105c0-0.053,0-0.161,0-0.216v-0.585c0-0.057,0-0.162,0-0.216
				v-1.069l0.052-0.053c0-0.052,0-0.108,0.057-0.108V61.02l0.053-0.055v-0.16l0.055-0.053l0.055-0.053
				c0.107,0,0.162-0.053,0.216-0.053h0.162l0.107-0.053c0.057,0,0.163,0,0.22,0h0.325c0.163,0,0.326,0,0.486,0h0.596l0.053,0.053
				h0.163l0.057,0.053h0.107c0,0.107,0.053,0,0.053,0.107c0.057,0,0.108,0,0.108,0.055h0.11c0,0.105,0.053,0,0.053,0.105
				c0.053,0,0.326,0.268,0.326,0.268v-0.108l0.053,0.057l0.057,0.052v0.108c0.052,0,0.105,0.103,0.105,0.158l0.057,0.055
				l0.053,0.052l0.053,0.055h0.11l0.053,0.052l0.053,0.055c0,0.055,0,0.108,0.055,0.108c0,0.05,0,0.158,0,0.212v0.485
				C97.042,62.573,97.15,62.624,97.042,62.624L97.042,62.624z M105.33,66.047c0,0.053,0,0.16,0,0.213l-0.053,0.055l-0.053,0.052
				l-0.055,0.053h-0.11c0,0.108-0.053,0-0.053,0.108h-0.11l-0.053,0.052l-0.053,0.055l-0.053,0.053c0,0.053,0,0.16,0,0.213v0.268
				h-0.163c0,0.108-0.055,0-0.055,0.108c-0.053,0-0.163,0-0.216,0h-0.541c-0.053,0-0.163,0-0.163-0.057c-0.053,0-0.216,0-0.273,0
				h-0.594c-0.053,0-0.162,0-0.215,0h-0.598l-0.107-0.052c-0.057,0-0.163,0-0.216,0h-0.108l-0.057-0.053l-0.053-0.053
				c0-0.053,0-0.162,0-0.215v-0.107h-0.055c0-0.053,0-0.161,0-0.213v-0.59c0-0.053,0-0.16,0-0.213v-0.803l0.055-0.053
				c0-0.053,0-0.107,0.053-0.107v-0.108c0.108,0,0-0.05,0.108-0.05c0-0.057,0-0.108,0.057-0.108c0-0.053,0-0.16,0-0.213v-0.43
				l0.053-0.052l0.053-0.055c0.053,0,0.11-0.053,0.163-0.053c0.539-0.486,0.006-0.157,0.541-0.641c0.053,0,0.11,0,0.11-0.055h0.162
				v-0.105c0.053,0,0.163,0,0.216,0h0.596c0.055,0,0.162,0,0.218,0h0.594v0.052h0.163c0,0.053,0.216,0.108,0.271,0.108l0.107-0.055
				c0,0.055,0.11,0.055,0.11,0.16c0.107,0,0,0.055,0.107,0.055v0.108c0.11,0,0,0.053,0.11,0.053l0.055,0.052v0.108
				c0.107,0,0,0.053,0.107,0.053c0,0.055,0,0.107,0.053,0.107c0,0.053,0,0.16,0,0.213v0.59c0,0.052,0,0.158,0,0.212v1.284
				L105.33,66.047L105.33,66.047z M102.241,73.32h-0.053c0,0.053,0,0.16,0,0.213v0.107h-0.053c0,0.053,0,0.161,0,0.213v0.59
				c0,0.052,0,0.16,0,0.213v0.107h-0.055v0.213h-0.055c0,0.053,0,0.161,0,0.213c-0.053,0-0.108,0.108-0.108,0.108v0.32
				c-0.053,0-0.163,0-0.163,0.057c-0.053,0-0.16,0-0.216,0h-0.596c-0.053,0-0.16,0-0.215,0h-0.543l-0.107-0.108
				c-0.057,0-0.163,0-0.163-0.053c-0.057,0-0.163,0-0.216,0h-0.165c-0.053,0-0.107-0.055-0.163-0.055h-0.268
				c-0.055,0-0.11-0.052-0.216-0.052c0,0-0.163-0.161-0.163-0.216l-0.057-0.052v-0.053h-0.053v-0.16l-0.108-0.055
				c0-0.107-0.053,0-0.053-0.107c-0.108-0.107-0.216-0.213-0.326-0.32c-0.053,0-0.162-0.108-0.215-0.108
				c0-0.052,0-0.108-0.055-0.108c0-0.052,0-0.158,0-0.213v-0.428c0-0.052-0.055-0.105-0.055-0.16c0-0.052,0-0.16,0-0.212v-0.43
				c0.11,0,0-0.053,0.11-0.053v-0.107c0.108,0,0-0.053,0.108-0.053l0.053-0.055c0-0.052,0-0.105,0.053-0.105v-0.108l0.057-0.052
				l0.053-0.055l0.053-0.053l0.055-0.053c0.055,0,0.108,0,0.108-0.055c0.053,0,0.162,0,0.215,0h0.22l0.053-0.052
				c0.053,0,0.163,0,0.215,0h0.11v-0.053h0.107l0.057-0.055c0-0.053,0.053-0.108,0.107-0.108c0-0.105,0.057,0,0.057-0.105
				l0.053-0.052l0.055-0.057c0.053,0,0.108,0,0.108-0.053c0.052,0,0.162,0,0.215,0h0.488c0,0.053,0.108,0.11,0.163,0.11
				c0.055,0.052,0.162,0.157,0.216,0.157c0,0,0.11,0,0.162,0h0.163l0.108-0.052h0.326c0.053,0,0.163,0,0.216,0
				c0,0.107,0.053,0,0.053,0.107h0.108l0.163,0.161l0.053,0.052c0,0.055,0,0.108,0.057,0.108c0,0.053,0,0.16,0.053,0.16
				c0,0.053,0,0.161,0,0.213v0.43c0,0.052,0,0.158,0,0.215C102.298,73.16,102.241,73.32,102.241,73.32L102.241,73.32z"/>
		</defs>
		<use xlink:href="#SVGID_18_"  overflow="visible" fill-rule="evenodd" clip-rule="evenodd"/>
		<clipPath id="SVGID_19_">
			<use xlink:href="#SVGID_18_"  overflow="visible"/>
		</clipPath>
	</g>
	<linearGradient id="SVGID_20_" gradientUnits="userSpaceOnUse" x1="95.9036" y1="108.9208" x2="35.0964" y2="22.0791">
		<stop  offset="0" style="stop-color:#000000;stop-opacity:0"/>
		<stop  offset="1" style="stop-color:#FFFFFF"/>
	</linearGradient>
	<path opacity="0.2" fill-rule="evenodd" clip-rule="evenodd" fill="url(#SVGID_20_)" d="M71.436,5.177l54.387,54.389
		c3.306,3.306,3.306,8.665,0,11.971l-54.285,54.287c-3.306,3.306-8.667,3.306-11.973,0L5.177,71.435
		c-3.306-3.306-3.306-8.667,0-11.973L59.463,5.177C62.769,1.87,68.129,1.87,71.436,5.177L71.436,5.177z"/>
</g>
</svg>
