<?xml version="1.0" encoding="utf-8"?>
<!-- Generator: Adobe Illustrator 17.0.1, SVG Export Plug-In . SVG Version: 6.00 Build 0)  -->
<!DOCTYPE svg PUBLIC "-//W3C//DTD SVG 1.1//EN" "http://www.w3.org/Graphics/SVG/1.1/DTD/svg11.dtd">
<svg version="1.1" xmlns="http://www.w3.org/2000/svg" xmlns:xlink="http://www.w3.org/1999/xlink" x="0px" y="0px" width="132px"
	 height="132px" viewBox="0 0 132 132" enable-background="new 0 0 132 132" xml:space="preserve">
<g id="disabled">
	<g>
		<defs>
			<path id="SVGID_1_" d="M72.436,6.177l54.387,54.389c3.306,3.305,3.306,8.665,0,11.972l-54.285,54.287
				c-3.306,3.305-8.667,3.305-11.973,0L6.177,72.436c-3.306-3.306-3.306-8.667,0-11.973L60.463,6.177
				C63.769,2.871,69.129,2.871,72.436,6.177L72.436,6.177z"/>
		</defs>
		<defs>
			<path id="SVGID_2_" d="M71.436,5.177l54.387,54.389c3.306,3.305,3.306,8.665,0,11.972l-54.285,54.287
				c-3.306,3.305-8.667,3.305-11.973,0L5.177,71.436c-3.306-3.306-3.306-8.667,0-11.973L59.463,5.177
				C62.769,1.871,68.129,1.871,71.436,5.177L71.436,5.177z"/>
		</defs>
		<linearGradient id="SVGID_3_" gradientUnits="userSpaceOnUse" x1="3.6977" y1="66.5" x2="129.3023" y2="66.5">
			<stop  offset="0" style="stop-color:#000000;stop-opacity:0.6"/>
			<stop  offset="1" style="stop-color:#000000;stop-opacity:0.6"/>
		</linearGradient>
		<use xlink:href="#SVGID_1_"  overflow="visible" fill-rule="evenodd" clip-rule="evenodd" fill="url(#SVGID_3_)"/>
		<use xlink:href="#SVGID_2_"  overflow="visible" fill-rule="evenodd" clip-rule="evenodd" fill="#C6C6C6"/>
		<clipPath id="SVGID_4_">
			<use xlink:href="#SVGID_1_"  overflow="visible"/>
		</clipPath>
		<clipPath id="SVGID_5_" clip-path="url(#SVGID_4_)">
			<use xlink:href="#SVGID_2_"  overflow="visible"/>
		</clipPath>
	</g>
	<g>
		<defs>
			<path id="SVGID_6_" d="M123.705,71.326l-52.379,52.379c-3.19,3.192-8.363,3.192-11.553,0L7.295,71.227
				c-3.19-3.19-3.19-8.363,0-11.552L59.674,7.295c3.19-3.19,8.362-3.19,11.553,0l52.478,52.478
				C126.895,62.964,126.895,68.136,123.705,71.326L123.705,71.326z M120.714,62.933L68.12,10.339c-1.417-1.418-3.713-1.418-5.131,0
				L10.394,62.933c-1.417,1.417-1.417,3.715,0,5.131l52.594,52.596c1.418,1.415,3.715,1.415,5.131,0l52.594-52.596
				C122.132,66.648,122.132,64.35,120.714,62.933L120.714,62.933z"/>
		</defs>
		<use xlink:href="#SVGID_6_"  overflow="visible" fill-rule="evenodd" clip-rule="evenodd"/>
		<clipPath id="SVGID_7_">
			<use xlink:href="#SVGID_6_"  overflow="visible"/>
		</clipPath>
	</g>
	<g>
		<defs>
			<path id="SVGID_8_" d="M88.723,85.394c-5.923,0-10.804-4.417-11.555-10.133l-1.861,0.013c-0.948-0.187-0.93-1.652,0-1.639h1.754
				c0.026-3.195,1.333-6.084,3.437-8.176l-0.851-1.169c-0.491-0.632-0.002-1.544,1.187-0.678l0.712,0.934
				c1.98-1.549,4.468-2.481,7.176-2.481c6.443,0,11.668,5.223,11.668,11.666C100.39,80.17,95.165,85.394,88.723,85.394
				L88.723,85.394z M78.696,73.634h6.601l0.489-0.903l-4.309-5.926C79.776,68.585,78.722,70.983,78.696,73.634L78.696,73.634z
				 M88.723,63.697c-2.336,0-4.48,0.806-6.184,2.145l5.21,6.821c0.157-0.045,0.313-0.097,0.485-0.097
				c0.985,0,1.785,0.803,1.785,1.79c0,0.985-0.799,1.786-1.785,1.786c-0.677,0-1.245-0.391-1.551-0.945l-7.864,0.052
				c0.735,4.816,4.884,8.51,9.904,8.51c5.54,0,10.033-4.49,10.033-10.03C98.756,68.187,94.263,63.697,88.723,63.697L88.723,63.697z
				 M69.848,81.798c-1.937,4.5-6.16,2.216-4.881-1.87c0.31-0.864,0.622-1.73,0.934-2.594c-1.329,0.034-2.476-0.691-3.529-1.767
				c-1.66-3.424-3.322-6.85-4.984-10.279c-0.586-1.245-0.31-2.491,1.869-3.737c3.185-1.626,6.372-3.251,9.554-4.878
				c-1.247-2.599-2.492-5.194-3.737-7.79c-0.312-0.415-0.759-0.415-1.35,0c-1.974,2.355-3.946,4.71-5.918,7.061
				c-4.049,2.873-5.676-0.207-3.014-3.014c3.949-4.737,7.893-9.479,11.839-14.221c1.315-1.66,2.629-1.66,3.944,0
				c2.597,5.191,5.194,10.384,7.788,15.575c0.696,1.672,0.837,3.161,0.415,4.464C75.801,66.43,72.825,74.113,69.848,81.798
				L69.848,81.798z M69.95,63.109c-2.111,0.759-4.22,1.521-6.333,2.284c1.249,2.457,2.494,4.915,3.737,7.373
				c1.11-3.117,2.216-6.231,3.324-9.345C70.633,63.088,70.405,62.901,69.95,63.109L69.95,63.109z M61.853,38.398
				c-2.865,0-5.193-2.324-5.193-5.191c0-2.868,2.327-5.191,5.193-5.191c2.867,0,5.191,2.323,5.191,5.191
				C67.044,36.073,64.72,38.398,61.853,38.398L61.853,38.398z M51.804,60.834c2.016-0.076,4.036-0.153,6.05-0.228
				c-0.879,0.383-1.683,0.785-1.925,1.324c-1.539,0.078-3.077,0.153-4.619,0.228c2.235,2.211,4.466,4.419,6.698,6.63l0.696,1.636
				c0.218,0.434-0.315,0.502-0.885,0.144c-2.512-2.374-5.02-4.749-7.53-7.121c-0.392,0.551-0.785,1.102-1.177,1.652
				c2.35,2.134,3.836,5.206,3.836,8.63c0,6.441-5.223,11.665-11.666,11.665c-6.444,0-11.665-5.223-11.665-11.665
				c0-6.443,5.22-11.666,11.665-11.666c2.423,0,4.673,0.74,6.538,2.004c1.353-1.911,2.705-3.821,4.06-5.732
				c1.108-1.701,2.064-1.09,1.056,0.641C52.561,59.596,52.18,60.217,51.804,60.834L51.804,60.834z M43.519,72.954
				c-0.037,0-0.073,0-0.108,0c0.132,0.25,0.228,0.522,0.228,0.825c0,0.987-0.798,1.788-1.785,1.788s-1.788-0.801-1.788-1.788
				c0-0.985,0.801-1.785,1.788-1.785c0.118,0,0.22,0.047,0.331,0.068c0.003-0.019,0.007-0.037,0.01-0.057
				c1.56-2.201,3.12-4.403,4.679-6.604c-1.597-1.076-3.523-1.704-5.593-1.704c-5.54,0-10.03,4.49-10.03,10.032
				c0,5.54,4.49,10.03,10.03,10.03c5.54,0,10.032-4.49,10.032-10.03c0-2.877-1.216-5.462-3.154-7.291
				C46.612,68.611,45.067,70.781,43.519,72.954L43.519,72.954z"/>
		</defs>
		<use xlink:href="#SVGID_8_"  overflow="visible" fill-rule="evenodd" clip-rule="evenodd"/>
		<clipPath id="SVGID_9_">
			<use xlink:href="#SVGID_8_"  overflow="visible"/>
		</clipPath>
	</g>
	<linearGradient id="SVGID_10_" gradientUnits="userSpaceOnUse" x1="95.9035" y1="108.9211" x2="35.0965" y2="22.0797">
		<stop  offset="0" style="stop-color:#000000;stop-opacity:0"/>
		<stop  offset="1" style="stop-color:#FFFFFF"/>
	</linearGradient>
	<path opacity="0.2" fill-rule="evenodd" clip-rule="evenodd" fill="url(#SVGID_10_)" d="M71.436,5.177l54.387,54.389
		c3.306,3.305,3.306,8.665,0,11.972l-54.285,54.287c-3.306,3.305-8.667,3.305-11.973,0L5.177,71.436
		c-3.306-3.306-3.306-8.667,0-11.973L59.463,5.177C62.769,1.871,68.129,1.871,71.436,5.177L71.436,5.177z"/>
</g>
<g id="normal">
	<g>
		<defs>
			<path id="SVGID_11_" d="M72.436,6.177l54.387,54.389c3.306,3.305,3.306,8.665,0,11.972l-54.285,54.287
				c-3.306,3.305-8.667,3.305-11.973,0L6.177,72.436c-3.306-3.306-3.306-8.667,0-11.973L60.463,6.177
				C63.769,2.871,69.129,2.871,72.436,6.177L72.436,6.177z"/>
		</defs>
		<defs>
			<path id="SVGID_12_" d="M71.436,5.177l54.387,54.389c3.306,3.305,3.306,8.665,0,11.972l-54.285,54.287
				c-3.306,3.305-8.667,3.305-11.973,0L5.177,71.436c-3.306-3.306-3.306-8.667,0-11.973L59.463,5.177
				C62.769,1.871,68.129,1.871,71.436,5.177L71.436,5.177z"/>
		</defs>
		<linearGradient id="SVGID_13_" gradientUnits="userSpaceOnUse" x1="3.6977" y1="66.5" x2="129.3023" y2="66.5">
			<stop  offset="0" style="stop-color:#000000;stop-opacity:0.6"/>
			<stop  offset="1" style="stop-color:#000000;stop-opacity:0.6"/>
		</linearGradient>
		<use xlink:href="#SVGID_11_"  overflow="visible" fill-rule="evenodd" clip-rule="evenodd" fill="url(#SVGID_13_)"/>
		<use xlink:href="#SVGID_12_"  overflow="visible" fill-rule="evenodd" clip-rule="evenodd" fill="#FECB11"/>
		<clipPath id="SVGID_14_">
			<use xlink:href="#SVGID_11_"  overflow="visible"/>
		</clipPath>
		<clipPath id="SVGID_15_" clip-path="url(#SVGID_14_)">
			<use xlink:href="#SVGID_12_"  overflow="visible"/>
		</clipPath>
	</g>
	<g>
		<defs>
			<path id="SVGID_16_" d="M123.705,71.326l-52.379,52.379c-3.19,3.192-8.363,3.192-11.553,0L7.295,71.227
				c-3.19-3.19-3.19-8.363,0-11.552L59.674,7.295c3.19-3.19,8.362-3.19,11.553,0l52.478,52.478
				C126.895,62.964,126.895,68.136,123.705,71.326L123.705,71.326z M120.714,62.933L68.12,10.339c-1.417-1.418-3.713-1.418-5.131,0
				L10.394,62.933c-1.417,1.417-1.417,3.715,0,5.131l52.594,52.596c1.418,1.415,3.715,1.415,5.131,0l52.594-52.596
				C122.132,66.648,122.132,64.35,120.714,62.933L120.714,62.933z"/>
		</defs>
		<use xlink:href="#SVGID_16_"  overflow="visible" fill-rule="evenodd" clip-rule="evenodd"/>
		<clipPath id="SVGID_17_">
			<use xlink:href="#SVGID_16_"  overflow="visible"/>
		</clipPath>
	</g>
	<g>
		<defs>
			<path id="SVGID_18_" d="M88.723,85.394c-5.923,0-10.804-4.417-11.555-10.133l-1.861,0.013c-0.948-0.187-0.93-1.652,0-1.639h1.754
				c0.026-3.195,1.333-6.084,3.437-8.176l-0.851-1.169c-0.491-0.632-0.002-1.544,1.187-0.678l0.712,0.934
				c1.98-1.549,4.468-2.481,7.176-2.481c6.443,0,11.668,5.223,11.668,11.666C100.39,80.17,95.165,85.394,88.723,85.394
				L88.723,85.394z M78.696,73.634h6.601l0.489-0.903l-4.309-5.926C79.776,68.585,78.722,70.983,78.696,73.634L78.696,73.634z
				 M88.723,63.697c-2.336,0-4.48,0.806-6.184,2.145l5.21,6.821c0.157-0.045,0.313-0.097,0.485-0.097
				c0.985,0,1.785,0.803,1.785,1.79c0,0.985-0.799,1.786-1.785,1.786c-0.677,0-1.245-0.391-1.551-0.945l-7.864,0.052
				c0.735,4.816,4.884,8.51,9.904,8.51c5.54,0,10.033-4.49,10.033-10.03C98.756,68.187,94.263,63.697,88.723,63.697L88.723,63.697z
				 M69.848,81.798c-1.937,4.5-6.16,2.216-4.881-1.87c0.31-0.864,0.622-1.73,0.934-2.594c-1.329,0.034-2.476-0.691-3.529-1.767
				c-1.66-3.424-3.322-6.85-4.984-10.279c-0.586-1.245-0.31-2.491,1.869-3.737c3.185-1.626,6.372-3.251,9.554-4.878
				c-1.247-2.599-2.492-5.194-3.737-7.79c-0.312-0.415-0.759-0.415-1.35,0c-1.974,2.355-3.946,4.71-5.918,7.061
				c-4.049,2.873-5.676-0.207-3.014-3.014c3.949-4.737,7.893-9.479,11.839-14.221c1.315-1.66,2.629-1.66,3.944,0
				c2.597,5.191,5.194,10.384,7.788,15.575c0.696,1.672,0.837,3.161,0.415,4.464C75.801,66.43,72.825,74.113,69.848,81.798
				L69.848,81.798z M69.95,63.109c-2.111,0.759-4.22,1.521-6.333,2.284c1.249,2.457,2.494,4.915,3.737,7.373
				c1.11-3.117,2.216-6.231,3.324-9.345C70.633,63.088,70.405,62.901,69.95,63.109L69.95,63.109z M61.853,38.398
				c-2.865,0-5.193-2.324-5.193-5.191c0-2.868,2.327-5.191,5.193-5.191c2.867,0,5.191,2.323,5.191,5.191
				C67.044,36.073,64.72,38.398,61.853,38.398L61.853,38.398z M51.804,60.834c2.016-0.076,4.036-0.153,6.05-0.228
				c-0.879,0.383-1.683,0.785-1.925,1.324c-1.539,0.078-3.077,0.153-4.619,0.228c2.235,2.211,4.466,4.419,6.698,6.63l0.696,1.636
				c0.218,0.434-0.315,0.502-0.885,0.144c-2.512-2.374-5.02-4.749-7.53-7.121c-0.392,0.551-0.785,1.102-1.177,1.652
				c2.35,2.134,3.836,5.206,3.836,8.63c0,6.441-5.223,11.665-11.666,11.665c-6.444,0-11.665-5.223-11.665-11.665
				c0-6.443,5.22-11.666,11.665-11.666c2.423,0,4.673,0.74,6.538,2.004c1.353-1.911,2.705-3.821,4.06-5.732
				c1.108-1.701,2.064-1.09,1.056,0.641C52.561,59.596,52.18,60.217,51.804,60.834L51.804,60.834z M43.519,72.954
				c-0.037,0-0.073,0-0.108,0c0.132,0.25,0.228,0.522,0.228,0.825c0,0.987-0.798,1.788-1.785,1.788s-1.788-0.801-1.788-1.788
				c0-0.985,0.801-1.785,1.788-1.785c0.118,0,0.22,0.047,0.331,0.068c0.003-0.019,0.007-0.037,0.01-0.057
				c1.56-2.201,3.12-4.403,4.679-6.604c-1.597-1.076-3.523-1.704-5.593-1.704c-5.54,0-10.03,4.49-10.03,10.032
				c0,5.54,4.49,10.03,10.03,10.03c5.54,0,10.032-4.49,10.032-10.03c0-2.877-1.216-5.462-3.154-7.291
				C46.612,68.611,45.067,70.781,43.519,72.954L43.519,72.954z"/>
		</defs>
		<use xlink:href="#SVGID_18_"  overflow="visible" fill-rule="evenodd" clip-rule="evenodd"/>
		<clipPath id="SVGID_19_">
			<use xlink:href="#SVGID_18_"  overflow="visible"/>
		</clipPath>
	</g>
	<linearGradient id="SVGID_20_" gradientUnits="userSpaceOnUse" x1="95.9035" y1="108.9211" x2="35.0965" y2="22.0797">
		<stop  offset="0" style="stop-color:#000000;stop-opacity:0"/>
		<stop  offset="1" style="stop-color:#FFFFFF"/>
	</linearGradient>
	<path opacity="0.2" fill-rule="evenodd" clip-rule="evenodd" fill="url(#SVGID_20_)" d="M71.436,5.177l54.387,54.389
		c3.306,3.305,3.306,8.665,0,11.972l-54.285,54.287c-3.306,3.305-8.667,3.305-11.973,0L5.177,71.436
		c-3.306-3.306-3.306-8.667,0-11.973L59.463,5.177C62.769,1.871,68.129,1.871,71.436,5.177L71.436,5.177z"/>
</g>
</svg>
