<?xml version="1.0" encoding="utf-8"?>
<!-- Generator: Adobe Illustrator 17.0.1, SVG Export Plug-In . SVG Version: 6.00 Build 0)  -->
<!DOCTYPE svg PUBLIC "-//W3C//DTD SVG 1.1//EN" "http://www.w3.org/Graphics/SVG/1.1/DTD/svg11.dtd">
<svg version="1.1" xmlns="http://www.w3.org/2000/svg" xmlns:xlink="http://www.w3.org/1999/xlink" x="0px" y="0px" width="132px"
	 height="132px" viewBox="0 0 132 132" enable-background="new 0 0 132 132" xml:space="preserve">
<g id="disabled">
	<g>
		<defs>
			<path id="SVGID_1_" d="M72.436,6.177l54.387,54.389c3.306,3.306,3.306,8.665,0,11.971l-54.285,54.287
				c-3.306,3.306-8.667,3.306-11.973,0L6.177,72.435c-3.306-3.306-3.306-8.667,0-11.973L60.463,6.177
				C63.769,2.87,69.129,2.87,72.436,6.177L72.436,6.177z"/>
		</defs>
		<defs>
			<path id="SVGID_2_" d="M71.436,5.177l54.387,54.389c3.306,3.306,3.306,8.665,0,11.971l-54.285,54.287
				c-3.306,3.306-8.667,3.306-11.973,0L5.177,71.435c-3.306-3.306-3.306-8.667,0-11.973L59.463,5.177
				C62.769,1.87,68.129,1.87,71.436,5.177L71.436,5.177z"/>
		</defs>
		<linearGradient id="SVGID_3_" gradientUnits="userSpaceOnUse" x1="3.6977" y1="66.5" x2="129.3023" y2="66.5">
			<stop  offset="0" style="stop-color:#000000;stop-opacity:0.6"/>
			<stop  offset="1" style="stop-color:#000000;stop-opacity:0.6"/>
		</linearGradient>
		<use xlink:href="#SVGID_1_"  overflow="visible" fill-rule="evenodd" clip-rule="evenodd" fill="url(#SVGID_3_)"/>
		<use xlink:href="#SVGID_2_"  overflow="visible" fill-rule="evenodd" clip-rule="evenodd" fill="#C6C6C6"/>
		<clipPath id="SVGID_4_">
			<use xlink:href="#SVGID_1_"  overflow="visible"/>
		</clipPath>
		<clipPath id="SVGID_5_" clip-path="url(#SVGID_4_)">
			<use xlink:href="#SVGID_2_"  overflow="visible"/>
		</clipPath>
	</g>
	<g>
		<defs>
			<path id="SVGID_6_" d="M123.705,71.325l-52.379,52.379c-3.19,3.192-8.363,3.192-11.553,0L7.295,71.227
				c-3.19-3.19-3.19-8.362,0-11.552L59.674,7.294c3.19-3.19,8.362-3.19,11.553,0l52.478,52.478
				C126.895,62.963,126.895,68.135,123.705,71.325L123.705,71.325z M120.714,62.933L68.12,10.339c-1.417-1.417-3.713-1.417-5.131,0
				L10.394,62.933c-1.417,1.418-1.417,3.715,0,5.131l52.594,52.594c1.418,1.416,3.715,1.416,5.131,0l52.594-52.594
				C122.132,66.648,122.132,64.351,120.714,62.933L120.714,62.933z"/>
		</defs>
		<use xlink:href="#SVGID_6_"  overflow="visible" fill-rule="evenodd" clip-rule="evenodd"/>
		<clipPath id="SVGID_7_">
			<use xlink:href="#SVGID_6_"  overflow="visible"/>
		</clipPath>
	</g>
	<g>
		<defs>
			<path id="SVGID_8_" d="M95.833,53.455l-6.423,5.122c-0.12,0.116-0.284,0.06-0.346-0.09c-3.736-8.173-9.906-14.063-20.902-15.454
				c0.003,0.018,0.005,0.034,0.005,0.05c1.749,1.959,3.497,3.918,5.248,5.876c0.615,0.793-0.157,2.436-1.636,2.172
				c-7.89-1.88-15.785-3.758-23.675-5.639c-0.552-0.158-0.548-0.431-0.288-0.754c5.844-5.658,11.686-11.317,17.529-16.975
				c1.165-1.053,2.683-0.383,2.566,1.022c-0.522,2.591-1.043,5.183-1.565,7.772c0.013,0.016,0.026,0.031,0.04,0.048
				c14.128-0.903,24.659,7.147,29.465,16.623C95.891,53.3,95.892,53.381,95.833,53.455L95.833,53.455z M55.405,92.771
				c-7.824-2.227-15.646-4.451-23.468-6.675c-1.496-0.481-1.673-2.134-0.401-2.734c2.502-0.846,5.009-1.689,7.51-2.536
				c0.005-0.021,0.015-0.037,0.021-0.06c-7.851-11.776-6.155-24.923-0.362-33.826c0.045-0.071,0.111-0.115,0.207-0.098l7.651,2.996
				c0.16,0.045,0.192,0.216,0.095,0.346c-5.207,7.323-7.216,15.614-2.917,25.829c0.016-0.011,0.029-0.021,0.042-0.031
				c0.822-2.495,1.641-4.988,2.462-7.485c0.375-0.929,2.185-1.084,2.697,0.329c2.324,7.774,4.65,15.546,6.971,23.318
				C56.056,92.703,55.816,92.832,55.405,92.771L55.405,92.771z M96.926,87.414c-1.982-1.751-3.964-3.498-5.944-5.248
				c-0.021,0.003-0.039,0.008-0.06,0.011c-6.294,12.679-18.537,17.762-29.145,17.179c-0.081-0.002-0.152-0.042-0.189-0.128
				l-1.213-8.127c-0.042-0.163,0.09-0.276,0.25-0.255c8.943,0.862,17.135-1.53,23.841-10.353c-0.015-0.005-0.029-0.013-0.045-0.016
				c-2.57,0.531-5.143,1.063-7.712,1.596c-0.993,0.139-2.03-1.353-1.06-2.503c5.577-5.889,11.156-11.779,16.735-17.668
				c0.413-0.399,0.646-0.257,0.796,0.129c1.974,7.892,3.943,15.783,5.915,23.673C99.425,87.238,98.082,88.216,96.926,87.414
				L96.926,87.414z"/>
		</defs>
		<use xlink:href="#SVGID_8_"  overflow="visible" fill-rule="evenodd" clip-rule="evenodd"/>
		<clipPath id="SVGID_9_">
			<use xlink:href="#SVGID_8_"  overflow="visible"/>
		</clipPath>
	</g>
	<linearGradient id="SVGID_10_" gradientUnits="userSpaceOnUse" x1="95.9036" y1="108.9208" x2="35.0964" y2="22.0791">
		<stop  offset="0" style="stop-color:#000000;stop-opacity:0"/>
		<stop  offset="1" style="stop-color:#FFFFFF"/>
	</linearGradient>
	<path opacity="0.2" fill-rule="evenodd" clip-rule="evenodd" fill="url(#SVGID_10_)" d="M71.436,5.177l54.387,54.389
		c3.306,3.306,3.306,8.665,0,11.971l-54.285,54.287c-3.306,3.306-8.667,3.306-11.973,0L5.177,71.435
		c-3.306-3.306-3.306-8.667,0-11.973L59.463,5.177C62.769,1.87,68.129,1.87,71.436,5.177L71.436,5.177z"/>
</g>
<g id="normal">
	<g>
		<defs>
			<path id="SVGID_11_" d="M72.436,6.177l54.387,54.389c3.306,3.306,3.306,8.665,0,11.971l-54.285,54.287
				c-3.306,3.306-8.667,3.306-11.973,0L6.177,72.435c-3.306-3.306-3.306-8.667,0-11.973L60.463,6.177
				C63.769,2.87,69.129,2.87,72.436,6.177L72.436,6.177z"/>
		</defs>
		<defs>
			<path id="SVGID_12_" d="M71.436,5.177l54.387,54.389c3.306,3.306,3.306,8.665,0,11.971l-54.285,54.287
				c-3.306,3.306-8.667,3.306-11.973,0L5.177,71.435c-3.306-3.306-3.306-8.667,0-11.973L59.463,5.177
				C62.769,1.87,68.129,1.87,71.436,5.177L71.436,5.177z"/>
		</defs>
		<linearGradient id="SVGID_13_" gradientUnits="userSpaceOnUse" x1="3.6977" y1="66.5" x2="129.3023" y2="66.5">
			<stop  offset="0" style="stop-color:#000000;stop-opacity:0.6"/>
			<stop  offset="1" style="stop-color:#000000;stop-opacity:0.6"/>
		</linearGradient>
		<use xlink:href="#SVGID_11_"  overflow="visible" fill-rule="evenodd" clip-rule="evenodd" fill="url(#SVGID_13_)"/>
		<use xlink:href="#SVGID_12_"  overflow="visible" fill-rule="evenodd" clip-rule="evenodd" fill="#FECB11"/>
		<clipPath id="SVGID_14_">
			<use xlink:href="#SVGID_11_"  overflow="visible"/>
		</clipPath>
		<clipPath id="SVGID_15_" clip-path="url(#SVGID_14_)">
			<use xlink:href="#SVGID_12_"  overflow="visible"/>
		</clipPath>
	</g>
	<g>
		<defs>
			<path id="SVGID_16_" d="M123.705,71.325l-52.379,52.379c-3.19,3.192-8.363,3.192-11.553,0L7.295,71.227
				c-3.19-3.19-3.19-8.362,0-11.552L59.674,7.294c3.19-3.19,8.362-3.19,11.553,0l52.478,52.478
				C126.895,62.963,126.895,68.135,123.705,71.325L123.705,71.325z M120.714,62.933L68.12,10.339c-1.417-1.417-3.713-1.417-5.131,0
				L10.394,62.933c-1.417,1.418-1.417,3.715,0,5.131l52.594,52.594c1.418,1.416,3.715,1.416,5.131,0l52.594-52.594
				C122.132,66.648,122.132,64.351,120.714,62.933L120.714,62.933z"/>
		</defs>
		<use xlink:href="#SVGID_16_"  overflow="visible" fill-rule="evenodd" clip-rule="evenodd"/>
		<clipPath id="SVGID_17_">
			<use xlink:href="#SVGID_16_"  overflow="visible"/>
		</clipPath>
	</g>
	<g>
		<defs>
			<path id="SVGID_18_" d="M95.833,53.455l-6.423,5.122c-0.12,0.116-0.284,0.06-0.346-0.09c-3.736-8.173-9.906-14.063-20.902-15.454
				c0.003,0.018,0.005,0.034,0.005,0.05c1.749,1.959,3.497,3.918,5.248,5.876c0.615,0.793-0.157,2.436-1.636,2.172
				c-7.89-1.88-15.785-3.758-23.675-5.639c-0.552-0.158-0.548-0.431-0.288-0.754c5.844-5.658,11.686-11.317,17.529-16.975
				c1.165-1.053,2.683-0.383,2.566,1.022c-0.522,2.591-1.043,5.183-1.565,7.772c0.013,0.016,0.026,0.031,0.04,0.048
				c14.128-0.903,24.659,7.147,29.465,16.623C95.891,53.3,95.892,53.381,95.833,53.455L95.833,53.455z M55.405,92.771
				c-7.824-2.227-15.646-4.451-23.468-6.675c-1.496-0.481-1.673-2.134-0.401-2.734c2.502-0.846,5.009-1.689,7.51-2.536
				c0.005-0.021,0.015-0.037,0.021-0.06c-7.851-11.776-6.155-24.923-0.362-33.826c0.045-0.071,0.111-0.115,0.207-0.098l7.651,2.996
				c0.16,0.045,0.192,0.216,0.095,0.346c-5.207,7.323-7.216,15.614-2.917,25.829c0.016-0.011,0.029-0.021,0.042-0.031
				c0.822-2.495,1.641-4.988,2.462-7.485c0.375-0.929,2.185-1.084,2.697,0.329c2.324,7.774,4.65,15.546,6.971,23.318
				C56.056,92.703,55.816,92.832,55.405,92.771L55.405,92.771z M96.926,87.414c-1.982-1.751-3.964-3.498-5.944-5.248
				c-0.021,0.003-0.039,0.008-0.06,0.011c-6.294,12.679-18.537,17.762-29.145,17.179c-0.081-0.002-0.152-0.042-0.189-0.128
				l-1.213-8.127c-0.042-0.163,0.09-0.276,0.25-0.255c8.943,0.862,17.135-1.53,23.841-10.353c-0.015-0.005-0.029-0.013-0.045-0.016
				c-2.57,0.531-5.143,1.063-7.712,1.596c-0.993,0.139-2.03-1.353-1.06-2.503c5.577-5.889,11.156-11.779,16.735-17.668
				c0.413-0.399,0.646-0.257,0.796,0.129c1.974,7.892,3.943,15.783,5.915,23.673C99.425,87.238,98.082,88.216,96.926,87.414
				L96.926,87.414z"/>
		</defs>
		<use xlink:href="#SVGID_18_"  overflow="visible" fill-rule="evenodd" clip-rule="evenodd"/>
		<clipPath id="SVGID_19_">
			<use xlink:href="#SVGID_18_"  overflow="visible"/>
		</clipPath>
	</g>
	<linearGradient id="SVGID_20_" gradientUnits="userSpaceOnUse" x1="95.9036" y1="108.9208" x2="35.0964" y2="22.0791">
		<stop  offset="0" style="stop-color:#000000;stop-opacity:0"/>
		<stop  offset="1" style="stop-color:#FFFFFF"/>
	</linearGradient>
	<path opacity="0.2" fill-rule="evenodd" clip-rule="evenodd" fill="url(#SVGID_20_)" d="M71.436,5.177l54.387,54.389
		c3.306,3.306,3.306,8.665,0,11.971l-54.285,54.287c-3.306,3.306-8.667,3.306-11.973,0L5.177,71.435
		c-3.306-3.306-3.306-8.667,0-11.973L59.463,5.177C62.769,1.87,68.129,1.87,71.436,5.177L71.436,5.177z"/>
</g>
</svg>
