<?xml version="1.0" encoding="utf-8"?>
<!-- Generator: Adobe Illustrator 17.0.1, SVG Export Plug-In . SVG Version: 6.00 Build 0)  -->
<!DOCTYPE svg PUBLIC "-//W3C//DTD SVG 1.1//EN" "http://www.w3.org/Graphics/SVG/1.1/DTD/svg11.dtd">
<svg version="1.1" xmlns="http://www.w3.org/2000/svg" xmlns:xlink="http://www.w3.org/1999/xlink" x="0px" y="0px" width="132px"
	 height="132px" viewBox="0 0 132 132" enable-background="new 0 0 132 132" xml:space="preserve">
<g id="disabled">
	<g>
		<defs>
			<path id="SVGID_1_" d="M72.436,6.177l54.387,54.389c3.306,3.305,3.306,8.665,0,11.973l-54.285,54.284
				c-3.306,3.308-8.667,3.308-11.973,0L6.177,72.435c-3.306-3.306-3.306-8.667,0-11.973L60.463,6.177
				C63.769,2.87,69.129,2.87,72.436,6.177L72.436,6.177z"/>
		</defs>
		<defs>
			<path id="SVGID_2_" d="M71.436,5.177l54.387,54.389c3.306,3.305,3.306,8.665,0,11.973l-54.285,54.284
				c-3.306,3.308-8.667,3.308-11.973,0L5.177,71.435c-3.306-3.306-3.306-8.667,0-11.973L59.463,5.177
				C62.769,1.87,68.129,1.87,71.436,5.177L71.436,5.177z"/>
		</defs>
		<linearGradient id="SVGID_3_" gradientUnits="userSpaceOnUse" x1="3.6977" y1="66.5" x2="129.3023" y2="66.5">
			<stop  offset="0" style="stop-color:#000000;stop-opacity:0.6"/>
			<stop  offset="1" style="stop-color:#000000;stop-opacity:0.6"/>
		</linearGradient>
		<use xlink:href="#SVGID_1_"  overflow="visible" fill-rule="evenodd" clip-rule="evenodd" fill="url(#SVGID_3_)"/>
		<use xlink:href="#SVGID_2_"  overflow="visible" fill-rule="evenodd" clip-rule="evenodd" fill="#C6C6C6"/>
		<clipPath id="SVGID_4_">
			<use xlink:href="#SVGID_1_"  overflow="visible"/>
		</clipPath>
		<clipPath id="SVGID_5_" clip-path="url(#SVGID_4_)">
			<use xlink:href="#SVGID_2_"  overflow="visible"/>
		</clipPath>
	</g>
	<g>
		<defs>
			<path id="SVGID_6_" d="M123.705,71.325l-52.379,52.381c-3.19,3.188-8.363,3.188-11.553,0L7.295,71.227
				c-3.19-3.19-3.19-8.362,0-11.552L59.674,7.294c3.19-3.19,8.362-3.19,11.553,0l52.478,52.478
				C126.895,62.964,126.895,68.135,123.705,71.325L123.705,71.325z M120.714,62.933L68.12,10.339c-1.417-1.417-3.713-1.417-5.131,0
				L10.394,62.933c-1.417,1.418-1.417,3.715,0,5.131l52.594,52.594c1.418,1.416,3.715,1.416,5.131,0l52.594-52.594
				C122.132,66.648,122.132,64.351,120.714,62.933L120.714,62.933z"/>
		</defs>
		<use xlink:href="#SVGID_6_"  overflow="visible" fill-rule="evenodd" clip-rule="evenodd"/>
		<clipPath id="SVGID_7_">
			<use xlink:href="#SVGID_6_"  overflow="visible"/>
		</clipPath>
	</g>
	<g>
		<defs>
			<path id="SVGID_8_" d="M92.394,77.624c-1.644-0.664-3.292-1.328-4.936-1.99c-0.334-0.309-0.401-0.693-0.191-1.16
				c1.294-5.908-6.133-7.935-8.591-3.944c-0.247,0.055-0.491,0.113-0.741,0.17c-6.412-3.621-12.828-7.242-19.24-10.863
				c-1.045-0.585-1.686-1.402-1.463-2.566c0.88-5.06-4.616-8.357-8.95-4.789c-1.166,0.254-1.967,0.078-1.956-1.048
				c0.116-1.074,0.233-2.148,0.35-3.222c-0.964-0.877,0.517-3.246,2.269-3.332c5.154,1.772,10.306,3.544,15.46,5.314
				c1.916-0.528,3.834-1.056,5.755-1.584c1.263-0.302,2.455-0.081,3.608,0.381l12.039,6.474c0.283,0.152,0.527,0.381,0.725,0.691
				l8.084,15.19c0.134,0.506,0.27,1.011,0.404,1.517c-0.627,1.124-1.257,2.248-1.883,3.376
				C92.891,76.699,92.639,77.161,92.394,77.624L92.394,77.624z M73.432,50.026c-0.9-0.413-1.941-0.594-3.201-0.438
				c-1.735,0.342-3.455,0.862-5.173,1.394c0.502,0.675,1.005,1.352,1.509,2.029c2.647,1.415,5.294,2.83,7.945,4.246
				c0.898-1.681,1.798-3.364,2.699-5.049C75.95,51.48,74.692,50.753,73.432,50.026L73.432,50.026z M88.277,63.652
				c-0.922-2.022-1.841-4.044-2.764-6.066c-0.308-0.627-0.83-1.173-1.492-1.667c-1.945-1.037-3.893-2.071-5.836-3.108
				c-0.88,1.696-1.761,3.39-2.641,5.084c3.821,2.203,7.64,4.411,11.461,6.617C88.385,65.307,88.811,65.018,88.277,63.652
				L88.277,63.652z M50.673,59.132c-1.736-0.929-2.392-3.09-1.462-4.824c0.929-1.736,3.09-2.392,4.824-1.463
				c1.74,0.93,2.392,3.091,1.462,4.826C54.57,59.409,52.411,60.063,50.673,59.132L50.673,59.132z M53.286,54.255
				c-0.959-0.512-2.153-0.152-2.665,0.806c-0.51,0.956-0.15,2.147,0.809,2.66c0.953,0.514,2.147,0.152,2.659-0.804
				C54.603,55.959,54.239,54.765,53.286,54.255L53.286,54.255z M81.049,76.552c-1.736-0.929-2.392-3.091-1.462-4.826
				c0.929-1.735,3.09-2.392,4.823-1.463c1.74,0.93,2.394,3.091,1.463,4.828C84.946,76.826,82.785,77.481,81.049,76.552
				L81.049,76.552z M83.661,71.673c-0.958-0.512-2.151-0.152-2.663,0.806c-0.512,0.958-0.15,2.148,0.808,2.66
				c0.955,0.514,2.148,0.152,2.66-0.804C84.979,73.377,84.615,72.185,83.661,71.673L83.661,71.673z M36.275,86.857v-35l60,35H36.275
				L36.275,86.857z"/>
		</defs>
		<use xlink:href="#SVGID_8_"  overflow="visible" fill-rule="evenodd" clip-rule="evenodd"/>
		<clipPath id="SVGID_9_">
			<use xlink:href="#SVGID_8_"  overflow="visible"/>
		</clipPath>
	</g>
	<linearGradient id="SVGID_10_" gradientUnits="userSpaceOnUse" x1="95.9032" y1="108.9202" x2="35.0965" y2="22.0793">
		<stop  offset="0" style="stop-color:#000000;stop-opacity:0"/>
		<stop  offset="1" style="stop-color:#FFFFFF"/>
	</linearGradient>
	<path opacity="0.2" fill-rule="evenodd" clip-rule="evenodd" fill="url(#SVGID_10_)" d="M71.436,5.177l54.387,54.389
		c3.306,3.305,3.306,8.665,0,11.973l-54.285,54.284c-3.306,3.308-8.667,3.308-11.973,0L5.177,71.435
		c-3.306-3.306-3.306-8.667,0-11.973L59.463,5.177C62.769,1.87,68.129,1.87,71.436,5.177L71.436,5.177z"/>
</g>
<g id="normal">
	<g>
		<defs>
			<path id="SVGID_11_" d="M72.436,6.177l54.387,54.389c3.306,3.305,3.306,8.665,0,11.973l-54.285,54.284
				c-3.306,3.308-8.667,3.308-11.973,0L6.177,72.435c-3.306-3.306-3.306-8.667,0-11.973L60.463,6.177
				C63.769,2.87,69.129,2.87,72.436,6.177L72.436,6.177z"/>
		</defs>
		<defs>
			<path id="SVGID_12_" d="M71.436,5.177l54.387,54.389c3.306,3.305,3.306,8.665,0,11.973l-54.285,54.284
				c-3.306,3.308-8.667,3.308-11.973,0L5.177,71.435c-3.306-3.306-3.306-8.667,0-11.973L59.463,5.177
				C62.769,1.87,68.129,1.87,71.436,5.177L71.436,5.177z"/>
		</defs>
		<linearGradient id="SVGID_13_" gradientUnits="userSpaceOnUse" x1="3.6977" y1="66.5" x2="129.3023" y2="66.5">
			<stop  offset="0" style="stop-color:#000000;stop-opacity:0.6"/>
			<stop  offset="1" style="stop-color:#000000;stop-opacity:0.6"/>
		</linearGradient>
		<use xlink:href="#SVGID_11_"  overflow="visible" fill-rule="evenodd" clip-rule="evenodd" fill="url(#SVGID_13_)"/>
		<use xlink:href="#SVGID_12_"  overflow="visible" fill-rule="evenodd" clip-rule="evenodd" fill="#FECB11"/>
		<clipPath id="SVGID_14_">
			<use xlink:href="#SVGID_11_"  overflow="visible"/>
		</clipPath>
		<clipPath id="SVGID_15_" clip-path="url(#SVGID_14_)">
			<use xlink:href="#SVGID_12_"  overflow="visible"/>
		</clipPath>
	</g>
	<g>
		<defs>
			<path id="SVGID_16_" d="M123.705,71.325l-52.379,52.381c-3.19,3.188-8.363,3.188-11.553,0L7.295,71.227
				c-3.19-3.19-3.19-8.362,0-11.552L59.674,7.294c3.19-3.19,8.362-3.19,11.553,0l52.478,52.478
				C126.895,62.964,126.895,68.135,123.705,71.325L123.705,71.325z M120.714,62.933L68.12,10.339c-1.417-1.417-3.713-1.417-5.131,0
				L10.394,62.933c-1.417,1.418-1.417,3.715,0,5.131l52.594,52.594c1.418,1.416,3.715,1.416,5.131,0l52.594-52.594
				C122.132,66.648,122.132,64.351,120.714,62.933L120.714,62.933z"/>
		</defs>
		<use xlink:href="#SVGID_16_"  overflow="visible" fill-rule="evenodd" clip-rule="evenodd"/>
		<clipPath id="SVGID_17_">
			<use xlink:href="#SVGID_16_"  overflow="visible"/>
		</clipPath>
	</g>
	<g>
		<defs>
			<path id="SVGID_18_" d="M92.394,77.624c-1.644-0.664-3.292-1.328-4.936-1.99c-0.334-0.309-0.401-0.693-0.191-1.16
				c1.294-5.908-6.133-7.935-8.591-3.944c-0.247,0.055-0.491,0.113-0.741,0.17c-6.412-3.621-12.828-7.242-19.24-10.863
				c-1.045-0.585-1.686-1.402-1.463-2.566c0.88-5.06-4.616-8.357-8.95-4.789c-1.166,0.254-1.967,0.078-1.956-1.048
				c0.116-1.074,0.233-2.148,0.35-3.222c-0.964-0.877,0.517-3.246,2.269-3.332c5.154,1.772,10.306,3.544,15.46,5.314
				c1.916-0.528,3.834-1.056,5.755-1.584c1.263-0.302,2.455-0.081,3.608,0.381l12.039,6.474c0.283,0.152,0.527,0.381,0.725,0.691
				l8.084,15.19c0.134,0.506,0.27,1.011,0.404,1.517c-0.627,1.124-1.257,2.248-1.883,3.376
				C92.891,76.699,92.639,77.161,92.394,77.624L92.394,77.624z M73.432,50.026c-0.9-0.413-1.941-0.594-3.201-0.438
				c-1.735,0.342-3.455,0.862-5.173,1.394c0.502,0.675,1.005,1.352,1.509,2.029c2.647,1.415,5.294,2.83,7.945,4.246
				c0.898-1.681,1.798-3.364,2.699-5.049C75.95,51.48,74.692,50.753,73.432,50.026L73.432,50.026z M88.277,63.652
				c-0.922-2.022-1.841-4.044-2.764-6.066c-0.308-0.627-0.83-1.173-1.492-1.667c-1.945-1.037-3.893-2.071-5.836-3.108
				c-0.88,1.696-1.761,3.39-2.641,5.084c3.821,2.203,7.64,4.411,11.461,6.617C88.385,65.307,88.811,65.018,88.277,63.652
				L88.277,63.652z M50.673,59.132c-1.736-0.929-2.392-3.09-1.462-4.824c0.929-1.736,3.09-2.392,4.824-1.463
				c1.74,0.93,2.392,3.091,1.462,4.826C54.57,59.409,52.411,60.063,50.673,59.132L50.673,59.132z M53.286,54.255
				c-0.959-0.512-2.153-0.152-2.665,0.806c-0.51,0.956-0.15,2.147,0.809,2.66c0.953,0.514,2.147,0.152,2.659-0.804
				C54.603,55.959,54.239,54.765,53.286,54.255L53.286,54.255z M81.049,76.552c-1.736-0.929-2.392-3.091-1.462-4.826
				c0.929-1.735,3.09-2.392,4.823-1.463c1.74,0.93,2.394,3.091,1.463,4.828C84.946,76.826,82.785,77.481,81.049,76.552
				L81.049,76.552z M83.661,71.673c-0.958-0.512-2.151-0.152-2.663,0.806c-0.512,0.958-0.15,2.148,0.808,2.66
				c0.955,0.514,2.148,0.152,2.66-0.804C84.979,73.377,84.615,72.185,83.661,71.673L83.661,71.673z M36.275,86.857v-35l60,35H36.275
				L36.275,86.857z"/>
		</defs>
		<use xlink:href="#SVGID_18_"  overflow="visible" fill-rule="evenodd" clip-rule="evenodd"/>
		<clipPath id="SVGID_19_">
			<use xlink:href="#SVGID_18_"  overflow="visible"/>
		</clipPath>
	</g>
	<linearGradient id="SVGID_20_" gradientUnits="userSpaceOnUse" x1="95.9032" y1="108.9202" x2="35.0965" y2="22.0793">
		<stop  offset="0" style="stop-color:#000000;stop-opacity:0"/>
		<stop  offset="1" style="stop-color:#FFFFFF"/>
	</linearGradient>
	<path opacity="0.2" fill-rule="evenodd" clip-rule="evenodd" fill="url(#SVGID_20_)" d="M71.436,5.177l54.387,54.389
		c3.306,3.305,3.306,8.665,0,11.973l-54.285,54.284c-3.306,3.308-8.667,3.308-11.973,0L5.177,71.435
		c-3.306-3.306-3.306-8.667,0-11.973L59.463,5.177C62.769,1.87,68.129,1.87,71.436,5.177L71.436,5.177z"/>
</g>
</svg>
