<?xml version="1.0" encoding="utf-8"?>
<!-- Generator: Adobe Illustrator 17.0.1, SVG Export Plug-In . SVG Version: 6.00 Build 0)  -->
<!DOCTYPE svg PUBLIC "-//W3C//DTD SVG 1.1//EN" "http://www.w3.org/Graphics/SVG/1.1/DTD/svg11.dtd">
<svg version="1.1" xmlns="http://www.w3.org/2000/svg" xmlns:xlink="http://www.w3.org/1999/xlink" x="0px" y="0px" width="132px"
	 height="132px" viewBox="0 0 132 132" enable-background="new 0 0 132 132" xml:space="preserve">
<g id="disabled">
	<g>
		<defs>
			<path id="SVGID_1_" d="M72.428,6.264l54.309,54.309c3.301,3.301,3.301,8.654,0,11.955l-54.208,54.209
				c-3.301,3.301-8.654,3.301-11.955,0L6.263,72.427c-3.301-3.301-3.301-8.654,0-11.955L60.471,6.264
				C63.772,2.961,69.126,2.961,72.428,6.264L72.428,6.264z"/>
		</defs>
		<defs>
			<path id="SVGID_2_" d="M71.428,5.264l54.309,54.309c3.301,3.301,3.301,8.654,0,11.955l-54.208,54.209
				c-3.301,3.301-8.654,3.301-11.955,0L5.263,71.427c-3.301-3.301-3.301-8.654,0-11.955L59.471,5.264
				C62.772,1.961,68.126,1.961,71.428,5.264L71.428,5.264z"/>
		</defs>
		<linearGradient id="SVGID_3_" gradientUnits="userSpaceOnUse" x1="3.7869" y1="66.5" x2="129.2131" y2="66.5">
			<stop  offset="0" style="stop-color:#000000;stop-opacity:0.6"/>
			<stop  offset="1" style="stop-color:#000000;stop-opacity:0.6"/>
		</linearGradient>
		<use xlink:href="#SVGID_1_"  overflow="visible" fill-rule="evenodd" clip-rule="evenodd" fill="url(#SVGID_3_)"/>
		<use xlink:href="#SVGID_2_"  overflow="visible" fill-rule="evenodd" clip-rule="evenodd" fill="#D1D1D1"/>
		<clipPath id="SVGID_4_">
			<use xlink:href="#SVGID_1_"  overflow="visible"/>
		</clipPath>
		<clipPath id="SVGID_5_" clip-path="url(#SVGID_4_)">
			<use xlink:href="#SVGID_2_"  overflow="visible"/>
		</clipPath>
	</g>
	<g>
		<defs>
			<path id="SVGID_6_" d="M123.159,71.27l-51.888,51.888c-3.161,3.161-8.284,3.161-11.443,0L7.842,71.173
				c-3.161-3.159-3.161-8.284,0-11.445L59.729,7.841c3.161-3.159,8.284-3.159,11.445,0l51.985,51.985
				C126.319,62.987,126.319,68.111,123.159,71.27L123.159,71.27z M122.533,62.849L68.205,8.52c-1.463-1.463-3.838-1.463-5.301,0
				L8.576,62.849c-1.463,1.463-1.463,3.836,0,5.301l54.329,54.327c1.463,1.465,3.838,1.465,5.301,0l54.327-54.327
				C123.998,66.685,123.998,64.312,122.533,62.849L122.533,62.849z"/>
		</defs>
		<use xlink:href="#SVGID_6_"  overflow="visible" fill-rule="evenodd" clip-rule="evenodd"/>
		<clipPath id="SVGID_7_">
			<use xlink:href="#SVGID_6_"  overflow="visible"/>
		</clipPath>
	</g>
	<g>
		<defs>
			<path id="SVGID_8_" d="M49.082,41.241V28.244h2.159v10.789h5.37v2.208H49.082L49.082,41.241z M66.682,39.673
				c-0.94,1.195-2.195,1.791-3.765,1.791c-1.591,0-2.856-0.594-3.796-1.783c-0.938-1.189-1.408-2.825-1.408-4.912
				c0-1.334,0.163-2.455,0.489-3.361c0.244-0.667,0.575-1.266,0.997-1.796c0.42-0.53,0.882-0.924,1.383-1.181
				c0.667-0.346,1.434-0.518,2.306-0.518c1.575,0,2.836,0.599,3.783,1.798c0.946,1.197,1.42,2.864,1.42,4.996
				C68.091,36.822,67.621,38.478,66.682,39.673L66.682,39.673z M65.051,31.284c-0.538-0.74-1.252-1.108-2.142-1.108
				s-1.607,0.373-2.153,1.121c-0.544,0.748-0.817,1.875-0.817,3.384c0,1.484,0.281,2.608,0.84,3.374
				c0.559,0.766,1.27,1.148,2.13,1.148s1.568-0.38,2.119-1.139c0.552-0.761,0.829-1.899,0.829-3.419
				C65.857,33.143,65.589,32.022,65.051,31.284L65.051,31.284z M80.18,41.241h-2.29l-2.13-9.798l-2.124,9.798h-2.342L68.74,28.137
				h2.211l1.612,9.001l1.956-9.001h2.568l1.875,9.153l1.643-9.153h2.174L80.18,41.241L80.18,41.241z M41.917,51.072v3.101h4.464
				v2.218h-4.464v5.569h-2.161V48.855h7.334v2.218H41.917L41.917,51.072z M48.929,61.96V48.963h2.159v10.789h5.37v2.208H48.929
				L48.929,61.96z M61.588,56.462v5.498h-2.151v-5.516l-3.918-7.59h2.531l2.518,5.185l2.466-5.185h2.487L61.588,56.462
				L61.588,56.462z M66.529,61.96V48.855h2.159V61.96H66.529L66.529,61.96z M77.087,61.96l-4.312-8.546v8.546h-2.006V48.855h2.101
				l4.377,8.751v-8.751h2.008V61.96H77.087L77.087,61.96z M86.515,57.142v-2.208h4.655v5.22c-0.452,0.536-1.108,1.008-1.966,1.417
				c-0.859,0.409-1.728,0.612-2.608,0.612c-1.119,0-2.095-0.288-2.927-0.863c-0.832-0.575-1.457-1.397-1.875-2.468
				c-0.418-1.069-0.628-2.232-0.628-3.49c0-1.365,0.234-2.576,0.701-3.637c0.467-1.061,1.15-1.874,2.051-2.44
				c0.685-0.434,1.539-0.653,2.56-0.653c1.328,0,2.366,0.341,3.112,1.024c0.746,0.682,1.228,1.625,1.441,2.828l-2.145,0.493
				c-0.15-0.644-0.434-1.152-0.85-1.525c-0.417-0.373-0.935-0.559-1.559-0.559c-0.943,0-1.694,0.367-2.25,1.1
				c-0.557,0.733-0.837,1.82-0.837,3.263c0,1.555,0.283,2.722,0.846,3.5c0.565,0.777,1.303,1.166,2.219,1.166
				c0.452,0,0.906-0.108,1.36-0.326c0.455-0.218,0.846-0.481,1.171-0.791v-1.662H86.515L86.515,57.142z M35.565,82.678l-0.934-2.977
				h-4.277l-0.882,2.977h-2.292l4.167-13.104h2.284l4.283,13.104H35.565L35.565,82.678z M32.464,72.631l-1.446,4.862h2.919
				L32.464,72.631L32.464,72.631z M38.994,82.678V69.574h2.161v13.104H38.994L38.994,82.678z M49.143,76.894
				c0.468,0.334,0.853,0.701,1.156,1.1c0.305,0.399,0.714,1.108,1.231,2.127l1.305,2.557h-2.583l-1.562-2.851
				c-0.554-1.019-0.934-1.662-1.137-1.927c-0.205-0.265-0.422-0.447-0.651-0.546c-0.228-0.097-0.59-0.147-1.087-0.147h-0.438v5.471
				h-2.159V69.574h4.547c1.142,0,1.974,0.118,2.491,0.352c0.518,0.236,0.934,0.654,1.245,1.257c0.31,0.602,0.467,1.29,0.467,2.064
				c0,0.984-0.236,1.796-0.707,2.437C50.788,76.324,50.083,76.728,49.143,76.894L49.143,76.894z M49.453,72.349
				c-0.192-0.271-0.462-0.443-0.812-0.514c-0.176-0.029-0.701-0.045-1.576-0.045h-1.686v3.326h1.599c1.035,0,1.683-0.053,1.94-0.162
				c0.258-0.107,0.46-0.291,0.606-0.554c0.147-0.262,0.22-0.59,0.22-0.982C49.743,72.977,49.646,72.62,49.453,72.349L49.453,72.349z
				 M59.983,72.202c-0.401-0.394-0.888-0.59-1.462-0.59c-0.793,0-1.437,0.347-1.93,1.045c-0.494,0.698-0.741,1.827-0.741,3.389
				c0,1.656,0.244,2.836,0.73,3.539c0.486,0.704,1.119,1.055,1.898,1.055c0.573,0,1.068-0.223,1.481-0.67
				c0.413-0.446,0.709-1.15,0.89-2.109l2.093,0.814c-0.32,1.429-0.854,2.492-1.601,3.187c-0.748,0.694-1.694,1.04-2.843,1.04
				c-1.42,0-2.588-0.594-3.502-1.783c-0.916-1.189-1.373-2.814-1.373-4.876c0-2.18,0.46-3.875,1.379-5.081
				c0.919-1.206,2.129-1.811,3.626-1.811c1.31,0,2.373,0.475,3.19,1.421c0.486,0.56,0.851,1.365,1.093,2.415l-2.137,0.625
				C60.648,73.131,60.385,72.594,59.983,72.202L59.983,72.202z M70.728,76.894c0.467,0.334,0.853,0.701,1.156,1.1
				c0.304,0.399,0.714,1.108,1.229,2.127l1.307,2.557h-2.584l-1.56-2.851c-0.556-1.019-0.935-1.662-1.139-1.927
				c-0.205-0.265-0.422-0.447-0.649-0.546c-0.229-0.097-0.591-0.147-1.087-0.147h-0.438v5.471h-2.161V69.574h4.547
				c1.144,0,1.974,0.118,2.492,0.352c0.517,0.236,0.932,0.654,1.244,1.257c0.312,0.602,0.467,1.29,0.467,2.064
				c0,0.984-0.236,1.796-0.707,2.437C72.372,76.324,71.667,76.728,70.728,76.894L70.728,76.894z M71.038,72.349
				c-0.192-0.271-0.464-0.443-0.814-0.514c-0.174-0.029-0.701-0.045-1.576-0.045h-1.685v3.326h1.597
				c1.037,0,1.683-0.053,1.941-0.162c0.257-0.107,0.459-0.291,0.606-0.554c0.145-0.262,0.218-0.59,0.218-0.982
				C71.326,72.977,71.231,72.62,71.038,72.349L71.038,72.349z M82.884,82.678l-0.934-2.977h-4.275l-0.883,2.977H74.5l4.167-13.104
				h2.284l4.283,13.104H82.884L82.884,82.678z M79.783,72.631l-1.444,4.862h2.919L79.783,72.631L79.783,72.631z M88.555,71.79v3.103
				h4.464v2.216h-4.464v5.569h-2.161V69.574h7.334v2.216H88.555L88.555,71.79z M100.076,71.79v10.888h-2.159V71.79h-3.174v-2.216
				h8.501v2.216H100.076L100.076,71.79z"/>
		</defs>
		<use xlink:href="#SVGID_8_"  overflow="visible" fill-rule="evenodd" clip-rule="evenodd"/>
		<clipPath id="SVGID_9_">
			<use xlink:href="#SVGID_8_"  overflow="visible"/>
		</clipPath>
	</g>
	<linearGradient id="SVGID_10_" gradientUnits="userSpaceOnUse" x1="95.8606" y1="108.8593" x2="35.1399" y2="22.1411">
		<stop  offset="0" style="stop-color:#000000;stop-opacity:0"/>
		<stop  offset="1" style="stop-color:#FFFFFF;stop-opacity:0.25"/>
	</linearGradient>
	<path fill-rule="evenodd" clip-rule="evenodd" fill="url(#SVGID_10_)" d="M71.428,5.264l54.309,54.309
		c3.301,3.301,3.301,8.654,0,11.955l-54.208,54.209c-3.301,3.301-8.654,3.301-11.955,0L5.263,71.427
		c-3.301-3.301-3.301-8.654,0-11.955L59.471,5.264C62.772,1.961,68.126,1.961,71.428,5.264L71.428,5.264z"/>
</g>
<g id="normal">
	<g>
		<defs>
			<path id="SVGID_11_" d="M72.428,6.264l54.309,54.309c3.301,3.301,3.301,8.654,0,11.955l-54.208,54.209
				c-3.301,3.301-8.654,3.301-11.955,0L6.263,72.427c-3.301-3.301-3.301-8.654,0-11.955L60.471,6.264
				C63.772,2.961,69.126,2.961,72.428,6.264L72.428,6.264z"/>
		</defs>
		<defs>
			<path id="SVGID_12_" d="M71.428,5.264l54.309,54.309c3.301,3.301,3.301,8.654,0,11.955l-54.208,54.209
				c-3.301,3.301-8.654,3.301-11.955,0L5.263,71.427c-3.301-3.301-3.301-8.654,0-11.955L59.471,5.264
				C62.772,1.961,68.126,1.961,71.428,5.264L71.428,5.264z"/>
		</defs>
		<linearGradient id="SVGID_13_" gradientUnits="userSpaceOnUse" x1="3.7869" y1="66.5" x2="129.2131" y2="66.5">
			<stop  offset="0" style="stop-color:#000000;stop-opacity:0.6"/>
			<stop  offset="1" style="stop-color:#000000;stop-opacity:0.6"/>
		</linearGradient>
		<use xlink:href="#SVGID_11_"  overflow="visible" fill-rule="evenodd" clip-rule="evenodd" fill="url(#SVGID_13_)"/>
		<use xlink:href="#SVGID_12_"  overflow="visible" fill-rule="evenodd" clip-rule="evenodd" fill="#FFDF0A"/>
		<clipPath id="SVGID_14_">
			<use xlink:href="#SVGID_11_"  overflow="visible"/>
		</clipPath>
		<clipPath id="SVGID_15_" clip-path="url(#SVGID_14_)">
			<use xlink:href="#SVGID_12_"  overflow="visible"/>
		</clipPath>
	</g>
	<g>
		<defs>
			<path id="SVGID_16_" d="M123.159,71.27l-51.888,51.888c-3.161,3.161-8.284,3.161-11.443,0L7.842,71.173
				c-3.161-3.159-3.161-8.284,0-11.445L59.729,7.841c3.161-3.159,8.284-3.159,11.445,0l51.985,51.985
				C126.319,62.987,126.319,68.111,123.159,71.27L123.159,71.27z M122.533,62.849L68.205,8.52c-1.463-1.463-3.838-1.463-5.301,0
				L8.576,62.849c-1.463,1.463-1.463,3.836,0,5.301l54.329,54.327c1.463,1.465,3.838,1.465,5.301,0l54.327-54.327
				C123.998,66.685,123.998,64.312,122.533,62.849L122.533,62.849z"/>
		</defs>
		<use xlink:href="#SVGID_16_"  overflow="visible" fill-rule="evenodd" clip-rule="evenodd"/>
		<clipPath id="SVGID_17_">
			<use xlink:href="#SVGID_16_"  overflow="visible"/>
		</clipPath>
	</g>
	<g>
		<defs>
			<path id="SVGID_18_" d="M49.082,41.241V28.244h2.159v10.789h5.37v2.208H49.082L49.082,41.241z M66.682,39.673
				c-0.94,1.195-2.195,1.791-3.765,1.791c-1.591,0-2.856-0.594-3.796-1.783c-0.938-1.189-1.408-2.825-1.408-4.912
				c0-1.334,0.163-2.455,0.489-3.361c0.244-0.667,0.575-1.266,0.997-1.796c0.42-0.53,0.882-0.924,1.383-1.181
				c0.667-0.346,1.434-0.518,2.306-0.518c1.575,0,2.836,0.599,3.783,1.798c0.946,1.197,1.42,2.864,1.42,4.996
				C68.091,36.822,67.621,38.478,66.682,39.673L66.682,39.673z M65.051,31.284c-0.538-0.74-1.252-1.108-2.142-1.108
				s-1.607,0.373-2.153,1.121c-0.544,0.748-0.817,1.875-0.817,3.384c0,1.484,0.281,2.608,0.84,3.374
				c0.559,0.766,1.27,1.148,2.13,1.148s1.568-0.38,2.119-1.139c0.552-0.761,0.829-1.899,0.829-3.419
				C65.857,33.143,65.589,32.022,65.051,31.284L65.051,31.284z M80.18,41.241h-2.29l-2.13-9.798l-2.124,9.798h-2.342L68.74,28.137
				h2.211l1.612,9.001l1.956-9.001h2.568l1.875,9.153l1.643-9.153h2.174L80.18,41.241L80.18,41.241z M41.917,51.072v3.101h4.464
				v2.218h-4.464v5.569h-2.161V48.855h7.334v2.218H41.917L41.917,51.072z M48.929,61.96V48.963h2.159v10.789h5.37v2.208H48.929
				L48.929,61.96z M61.588,56.462v5.498h-2.151v-5.516l-3.918-7.59h2.531l2.518,5.185l2.466-5.185h2.487L61.588,56.462
				L61.588,56.462z M66.529,61.96V48.855h2.159V61.96H66.529L66.529,61.96z M77.087,61.96l-4.312-8.546v8.546h-2.006V48.855h2.101
				l4.377,8.751v-8.751h2.008V61.96H77.087L77.087,61.96z M86.515,57.142v-2.208h4.655v5.22c-0.452,0.536-1.108,1.008-1.966,1.417
				c-0.859,0.409-1.728,0.612-2.608,0.612c-1.119,0-2.095-0.288-2.927-0.863c-0.832-0.575-1.457-1.397-1.875-2.468
				c-0.418-1.069-0.628-2.232-0.628-3.49c0-1.365,0.234-2.576,0.701-3.637c0.467-1.061,1.15-1.874,2.051-2.44
				c0.685-0.434,1.539-0.653,2.56-0.653c1.328,0,2.366,0.341,3.112,1.024c0.746,0.682,1.228,1.625,1.441,2.828l-2.145,0.493
				c-0.15-0.644-0.434-1.152-0.85-1.525c-0.417-0.373-0.935-0.559-1.559-0.559c-0.943,0-1.694,0.367-2.25,1.1
				c-0.557,0.733-0.837,1.82-0.837,3.263c0,1.555,0.283,2.722,0.846,3.5c0.565,0.777,1.303,1.166,2.219,1.166
				c0.452,0,0.906-0.108,1.36-0.326c0.455-0.218,0.846-0.481,1.171-0.791v-1.662H86.515L86.515,57.142z M35.565,82.678l-0.934-2.977
				h-4.277l-0.882,2.977h-2.292l4.167-13.104h2.284l4.283,13.104H35.565L35.565,82.678z M32.464,72.631l-1.446,4.862h2.919
				L32.464,72.631L32.464,72.631z M38.994,82.678V69.574h2.161v13.104H38.994L38.994,82.678z M49.143,76.894
				c0.468,0.334,0.853,0.701,1.156,1.1c0.305,0.399,0.714,1.108,1.231,2.127l1.305,2.557h-2.583l-1.562-2.851
				c-0.554-1.019-0.934-1.662-1.137-1.927c-0.205-0.265-0.422-0.447-0.651-0.546c-0.228-0.097-0.59-0.147-1.087-0.147h-0.438v5.471
				h-2.159V69.574h4.547c1.142,0,1.974,0.118,2.491,0.352c0.518,0.236,0.934,0.654,1.245,1.257c0.31,0.602,0.467,1.29,0.467,2.064
				c0,0.984-0.236,1.796-0.707,2.437C50.788,76.324,50.083,76.728,49.143,76.894L49.143,76.894z M49.453,72.349
				c-0.192-0.271-0.462-0.443-0.812-0.514c-0.176-0.029-0.701-0.045-1.576-0.045h-1.686v3.326h1.599c1.035,0,1.683-0.053,1.94-0.162
				c0.258-0.107,0.46-0.291,0.606-0.554c0.147-0.262,0.22-0.59,0.22-0.982C49.743,72.977,49.646,72.62,49.453,72.349L49.453,72.349z
				 M59.983,72.202c-0.401-0.394-0.888-0.59-1.462-0.59c-0.793,0-1.437,0.347-1.93,1.045c-0.494,0.698-0.741,1.827-0.741,3.389
				c0,1.656,0.244,2.836,0.73,3.539c0.486,0.704,1.119,1.055,1.898,1.055c0.573,0,1.068-0.223,1.481-0.67
				c0.413-0.446,0.709-1.15,0.89-2.109l2.093,0.814c-0.32,1.429-0.854,2.492-1.601,3.187c-0.748,0.694-1.694,1.04-2.843,1.04
				c-1.42,0-2.588-0.594-3.502-1.783c-0.916-1.189-1.373-2.814-1.373-4.876c0-2.18,0.46-3.875,1.379-5.081
				c0.919-1.206,2.129-1.811,3.626-1.811c1.31,0,2.373,0.475,3.19,1.421c0.486,0.56,0.851,1.365,1.093,2.415l-2.137,0.625
				C60.648,73.131,60.385,72.594,59.983,72.202L59.983,72.202z M70.728,76.894c0.467,0.334,0.853,0.701,1.156,1.1
				c0.304,0.399,0.714,1.108,1.229,2.127l1.307,2.557h-2.584l-1.56-2.851c-0.556-1.019-0.935-1.662-1.139-1.927
				c-0.205-0.265-0.422-0.447-0.649-0.546c-0.229-0.097-0.591-0.147-1.087-0.147h-0.438v5.471h-2.161V69.574h4.547
				c1.144,0,1.974,0.118,2.492,0.352c0.517,0.236,0.932,0.654,1.244,1.257c0.312,0.602,0.467,1.29,0.467,2.064
				c0,0.984-0.236,1.796-0.707,2.437C72.372,76.324,71.667,76.728,70.728,76.894L70.728,76.894z M71.038,72.349
				c-0.192-0.271-0.464-0.443-0.814-0.514c-0.174-0.029-0.701-0.045-1.576-0.045h-1.685v3.326h1.597
				c1.037,0,1.683-0.053,1.941-0.162c0.257-0.107,0.459-0.291,0.606-0.554c0.145-0.262,0.218-0.59,0.218-0.982
				C71.326,72.977,71.231,72.62,71.038,72.349L71.038,72.349z M82.884,82.678l-0.934-2.977h-4.275l-0.883,2.977H74.5l4.167-13.104
				h2.284l4.283,13.104H82.884L82.884,82.678z M79.783,72.631l-1.444,4.862h2.919L79.783,72.631L79.783,72.631z M88.555,71.79v3.103
				h4.464v2.216h-4.464v5.569h-2.161V69.574h7.334v2.216H88.555L88.555,71.79z M100.076,71.79v10.888h-2.159V71.79h-3.174v-2.216
				h8.501v2.216H100.076L100.076,71.79z"/>
		</defs>
		<use xlink:href="#SVGID_18_"  overflow="visible" fill-rule="evenodd" clip-rule="evenodd"/>
		<clipPath id="SVGID_19_">
			<use xlink:href="#SVGID_18_"  overflow="visible"/>
		</clipPath>
	</g>
	<linearGradient id="SVGID_20_" gradientUnits="userSpaceOnUse" x1="95.8606" y1="108.8593" x2="35.1399" y2="22.1411">
		<stop  offset="0" style="stop-color:#000000;stop-opacity:0"/>
		<stop  offset="1" style="stop-color:#FFFFFF;stop-opacity:0.25"/>
	</linearGradient>
	<path fill-rule="evenodd" clip-rule="evenodd" fill="url(#SVGID_20_)" d="M71.428,5.264l54.309,54.309
		c3.301,3.301,3.301,8.654,0,11.955l-54.208,54.209c-3.301,3.301-8.654,3.301-11.955,0L5.263,71.427
		c-3.301-3.301-3.301-8.654,0-11.955L59.471,5.264C62.772,1.961,68.126,1.961,71.428,5.264L71.428,5.264z"/>
</g>
</svg>
