<?xml version="1.0" encoding="utf-8"?>
<!-- Generator: Adobe Illustrator 17.0.1, SVG Export Plug-In . SVG Version: 6.00 Build 0)  -->
<!DOCTYPE svg PUBLIC "-//W3C//DTD SVG 1.1//EN" "http://www.w3.org/Graphics/SVG/1.1/DTD/svg11.dtd">
<svg version="1.1" xmlns="http://www.w3.org/2000/svg" xmlns:xlink="http://www.w3.org/1999/xlink" x="0px" y="0px" width="132px"
	 height="132px" viewBox="0 0 132 132" enable-background="new 0 0 132 132" xml:space="preserve">
<g id="disabled">
	<g>
		<defs>
			<path id="SVGID_1_" d="M7.859,3h117.28c2.675,0,5.001,2.324,5.001,4.999V124c0,2.675-2.326,5.999-5.001,5.999H7.859
				C5.184,130,2.86,127.675,2.86,125V8C2.86,5.325,5.184,3,7.859,3L7.859,3z"/>
		</defs>
		<defs>
			<path id="SVGID_2_" d="M6.859,2h117.28c2.675,0,5.001,2.324,5.001,4.999V123c0,2.675-2.326,5.999-5.001,5.999H6.859
				C4.184,129,1.86,126.675,1.86,124V7C1.86,4.325,4.184,2,6.859,2L6.859,2z"/>
		</defs>
		<linearGradient id="SVGID_3_" gradientUnits="userSpaceOnUse" x1="2.8599" y1="66.5" x2="130.1401" y2="66.5">
			<stop  offset="0" style="stop-color:#000000;stop-opacity:0.6"/>
			<stop  offset="1" style="stop-color:#000000;stop-opacity:0.6"/>
		</linearGradient>
		<use xlink:href="#SVGID_1_"  overflow="visible" fill-rule="evenodd" clip-rule="evenodd" fill="url(#SVGID_3_)"/>
		<use xlink:href="#SVGID_2_"  overflow="visible" fill-rule="evenodd" clip-rule="evenodd" fill="#FFFFFF"/>
		<clipPath id="SVGID_4_">
			<use xlink:href="#SVGID_1_"  overflow="visible"/>
		</clipPath>
		<clipPath id="SVGID_5_" clip-path="url(#SVGID_4_)">
			<use xlink:href="#SVGID_2_"  overflow="visible"/>
		</clipPath>
	</g>
	<g>
		<defs>
			<path id="SVGID_6_" d="M9.886,5.269H121.33c2.542,0,4.752,2.21,4.752,4.752v110.228c0,2.541-2.21,5.702-4.752,5.702H9.886
				c-2.541,0-4.75-2.21-4.75-4.752V10.021C5.136,7.479,7.346,5.269,9.886,5.269L9.886,5.269z"/>
		</defs>
		<use xlink:href="#SVGID_6_"  overflow="visible" fill-rule="evenodd" clip-rule="evenodd"/>
		<clipPath id="SVGID_7_">
			<use xlink:href="#SVGID_6_"  overflow="visible"/>
		</clipPath>
	</g>
	<g>
		<defs>
			<path id="SVGID_8_" d="M9.886,122.951c-0.883,0-1.751-0.869-1.751-1.752V10.021c0-0.883,0.867-1.752,1.751-1.752H121.33
				c0.883,0,1.752,0.869,1.752,1.752v110.228c0,1.231-1.258,2.702-1.752,2.702H9.886"/>
		</defs>
		<use xlink:href="#SVGID_8_"  overflow="visible" fill-rule="evenodd" clip-rule="evenodd" fill="#FFFFFF"/>
		<clipPath id="SVGID_9_">
			<use xlink:href="#SVGID_8_"  overflow="visible"/>
		</clipPath>
	</g>
	<g>
		<defs>
			<path id="SVGID_10_" d="M65.835,12.063c29.674,0,53.728,24.054,53.728,53.726c0,29.672-24.054,53.726-53.728,53.726
				c-29.672,0-53.726-24.054-53.726-53.726C12.109,36.117,36.163,12.063,65.835,12.063L65.835,12.063z"/>
		</defs>
		<use xlink:href="#SVGID_10_"  overflow="visible" fill-rule="evenodd" clip-rule="evenodd" fill="#575757"/>
		<clipPath id="SVGID_11_">
			<use xlink:href="#SVGID_10_"  overflow="visible"/>
		</clipPath>
	</g>
	<g>
		<defs>
			<path id="SVGID_12_" d="M65.838,24.525c22.793,0,41.269,18.477,41.269,41.269c0,22.791-18.476,41.267-41.269,41.267
				c-22.791,0-41.267-18.476-41.267-41.267C24.571,43.002,43.047,24.525,65.838,24.525L65.838,24.525z"/>
		</defs>
		<use xlink:href="#SVGID_12_"  overflow="visible" fill-rule="evenodd" clip-rule="evenodd" fill="#FFFFFF"/>
		<clipPath id="SVGID_13_">
			<use xlink:href="#SVGID_12_"  overflow="visible"/>
		</clipPath>
	</g>
	<g>
		<defs>
			<path id="SVGID_14_" d="M44.047,95.001h11.999V63.001c0,0,0.732-2,2.001-2c1.27,0,20,0,20,0s-5.125,7.158-5.125,8.287
				c0,1.127,1.41,2.397,2.961,2.397c1.552,0,26.371-16.541,26.371-16.541S79.236,40.249,76.902,38.976
				c-1.552-0.846-2.68-0.141-2.82,0.846c-0.142,0.987,3.965,9.179,3.965,9.179s-23.63,0-28,0c-4.372,0-5.719,3.167-6,5.001
				C43.764,55.835,44.047,95.001,44.047,95.001L44.047,95.001z"/>
		</defs>
		<use xlink:href="#SVGID_14_"  overflow="visible" fill-rule="evenodd" clip-rule="evenodd"/>
		<clipPath id="SVGID_15_">
			<use xlink:href="#SVGID_14_"  overflow="visible"/>
		</clipPath>
	</g>
	<g>
		<defs>
			<polygon id="SVGID_16_" points="37.009,33.478 43.233,28.513 97.55,96.52 91.327,101.485 37.009,33.478 			"/>
		</defs>
		<use xlink:href="#SVGID_16_"  overflow="visible" fill-rule="evenodd" clip-rule="evenodd" fill="#575757"/>
		<clipPath id="SVGID_17_">
			<use xlink:href="#SVGID_16_"  overflow="visible"/>
		</clipPath>
	</g>
	<linearGradient id="SVGID_18_" gradientUnits="userSpaceOnUse" x1="114.9989" y1="136.1921" x2="15.8771" y2="-5.3685">
		<stop  offset="0" style="stop-color:#000000;stop-opacity:0"/>
		<stop  offset="1" style="stop-color:#FFFFFF;stop-opacity:0.25"/>
	</linearGradient>
	<path fill-rule="evenodd" clip-rule="evenodd" fill="url(#SVGID_18_)" d="M6.859,2h117.28c2.675,0,5.001,2.324,5.001,4.999V123
		c0,2.675-2.326,5.999-5.001,5.999H6.859C4.184,129,1.86,126.675,1.86,124V7C1.86,4.325,4.184,2,6.859,2L6.859,2z"/>
</g>
<g id="normal">
	<g>
		<defs>
			<path id="SVGID_19_" d="M7.859,3h117.28c2.675,0,5.001,2.324,5.001,4.999V124c0,2.675-2.326,5.999-5.001,5.999H7.859
				C5.184,130,2.86,127.675,2.86,125V8C2.86,5.325,5.184,3,7.859,3L7.859,3z"/>
		</defs>
		<defs>
			<path id="SVGID_20_" d="M6.859,2h117.28c2.675,0,5.001,2.324,5.001,4.999V123c0,2.675-2.326,5.999-5.001,5.999H6.859
				C4.184,129,1.86,126.675,1.86,124V7C1.86,4.325,4.184,2,6.859,2L6.859,2z"/>
		</defs>
		<linearGradient id="SVGID_21_" gradientUnits="userSpaceOnUse" x1="2.8599" y1="66.5" x2="130.1401" y2="66.5">
			<stop  offset="0" style="stop-color:#000000;stop-opacity:0.6"/>
			<stop  offset="1" style="stop-color:#000000;stop-opacity:0.6"/>
		</linearGradient>
		<use xlink:href="#SVGID_19_"  overflow="visible" fill-rule="evenodd" clip-rule="evenodd" fill="url(#SVGID_21_)"/>
		<use xlink:href="#SVGID_20_"  overflow="visible" fill-rule="evenodd" clip-rule="evenodd" fill="#FFFFFF"/>
		<clipPath id="SVGID_22_">
			<use xlink:href="#SVGID_19_"  overflow="visible"/>
		</clipPath>
		<clipPath id="SVGID_23_" clip-path="url(#SVGID_22_)">
			<use xlink:href="#SVGID_20_"  overflow="visible"/>
		</clipPath>
	</g>
	<g>
		<defs>
			<path id="SVGID_24_" d="M9.886,5.269H121.33c2.542,0,4.752,2.21,4.752,4.752v110.228c0,2.541-2.21,5.702-4.752,5.702H9.886
				c-2.541,0-4.75-2.21-4.75-4.752V10.021C5.136,7.479,7.346,5.269,9.886,5.269L9.886,5.269z"/>
		</defs>
		<use xlink:href="#SVGID_24_"  overflow="visible" fill-rule="evenodd" clip-rule="evenodd"/>
		<clipPath id="SVGID_25_">
			<use xlink:href="#SVGID_24_"  overflow="visible"/>
		</clipPath>
	</g>
	<g>
		<defs>
			<path id="SVGID_26_" d="M9.886,122.951c-0.883,0-1.751-0.869-1.751-1.752V10.021c0-0.883,0.867-1.752,1.751-1.752H121.33
				c0.883,0,1.752,0.869,1.752,1.752v110.228c0,1.231-1.258,2.702-1.752,2.702H9.886"/>
		</defs>
		<use xlink:href="#SVGID_26_"  overflow="visible" fill-rule="evenodd" clip-rule="evenodd" fill="#FFFFFF"/>
		<clipPath id="SVGID_27_">
			<use xlink:href="#SVGID_26_"  overflow="visible"/>
		</clipPath>
	</g>
	<g>
		<defs>
			<path id="SVGID_28_" d="M65.835,12.063c29.674,0,53.728,24.054,53.728,53.726c0,29.672-24.054,53.726-53.728,53.726
				c-29.672,0-53.726-24.054-53.726-53.726C12.109,36.117,36.163,12.063,65.835,12.063L65.835,12.063z"/>
		</defs>
		<use xlink:href="#SVGID_28_"  overflow="visible" fill-rule="evenodd" clip-rule="evenodd" fill="#DA1E22"/>
		<clipPath id="SVGID_29_">
			<use xlink:href="#SVGID_28_"  overflow="visible"/>
		</clipPath>
	</g>
	<g>
		<defs>
			<path id="SVGID_30_" d="M65.838,24.525c22.793,0,41.269,18.477,41.269,41.269c0,22.791-18.476,41.267-41.269,41.267
				c-22.791,0-41.267-18.476-41.267-41.267C24.571,43.002,43.047,24.525,65.838,24.525L65.838,24.525z"/>
		</defs>
		<use xlink:href="#SVGID_30_"  overflow="visible" fill-rule="evenodd" clip-rule="evenodd" fill="#FFFFFF"/>
		<clipPath id="SVGID_31_">
			<use xlink:href="#SVGID_30_"  overflow="visible"/>
		</clipPath>
	</g>
	<g>
		<defs>
			<path id="SVGID_32_" d="M44.047,95.001h11.999V63.001c0,0,0.732-2,2.001-2c1.27,0,20,0,20,0s-5.125,7.158-5.125,8.287
				c0,1.127,1.41,2.397,2.961,2.397c1.552,0,26.371-16.541,26.371-16.541S79.236,40.249,76.902,38.976
				c-1.552-0.846-2.68-0.141-2.82,0.846c-0.142,0.987,3.965,9.179,3.965,9.179s-23.63,0-28,0c-4.372,0-5.719,3.167-6,5.001
				C43.764,55.835,44.047,95.001,44.047,95.001L44.047,95.001z"/>
		</defs>
		<use xlink:href="#SVGID_32_"  overflow="visible" fill-rule="evenodd" clip-rule="evenodd"/>
		<clipPath id="SVGID_33_">
			<use xlink:href="#SVGID_32_"  overflow="visible"/>
		</clipPath>
	</g>
	<g>
		<defs>
			<polygon id="SVGID_34_" points="37.009,33.478 43.233,28.513 97.55,96.52 91.327,101.485 37.009,33.478 			"/>
		</defs>
		<use xlink:href="#SVGID_34_"  overflow="visible" fill-rule="evenodd" clip-rule="evenodd" fill="#DA1E22"/>
		<clipPath id="SVGID_35_">
			<use xlink:href="#SVGID_34_"  overflow="visible"/>
		</clipPath>
	</g>
	<linearGradient id="SVGID_36_" gradientUnits="userSpaceOnUse" x1="114.9989" y1="136.1921" x2="15.8771" y2="-5.3685">
		<stop  offset="0" style="stop-color:#000000;stop-opacity:0"/>
		<stop  offset="1" style="stop-color:#FFFFFF;stop-opacity:0.25"/>
	</linearGradient>
	<path fill-rule="evenodd" clip-rule="evenodd" fill="url(#SVGID_36_)" d="M6.859,2h117.28c2.675,0,5.001,2.324,5.001,4.999V123
		c0,2.675-2.326,5.999-5.001,5.999H6.859C4.184,129,1.86,126.675,1.86,124V7C1.86,4.325,4.184,2,6.859,2L6.859,2z"/>
</g>
</svg>
