<?xml version="1.0" encoding="utf-8"?>
<!-- Generator: Adobe Illustrator 17.0.1, SVG Export Plug-In . SVG Version: 6.00 Build 0)  -->
<!DOCTYPE svg PUBLIC "-//W3C//DTD SVG 1.1//EN" "http://www.w3.org/Graphics/SVG/1.1/DTD/svg11.dtd">
<svg version="1.1" xmlns="http://www.w3.org/2000/svg" xmlns:xlink="http://www.w3.org/1999/xlink" x="0px" y="0px" width="132px"
	 height="132px" viewBox="0 0 132 132" enable-background="new 0 0 132 132" xml:space="preserve">
<g id="disabled">
	<g>
		<defs>
			<path id="SVGID_1_" d="M71.471,7.243l54.309,54.311c3.301,3.301,3.301,8.656,0,11.955l-54.208,54.209
				c-3.301,3.301-8.654,3.301-11.955,0L5.306,73.407c-3.301-3.301-3.301-8.654,0-11.955L59.514,7.243
				C62.815,3.941,68.169,3.941,71.471,7.243L71.471,7.243z"/>
		</defs>
		<defs>
			<path id="SVGID_2_" d="M70.471,6.243l54.309,54.311c3.301,3.301,3.301,8.656,0,11.955l-54.208,54.209
				c-3.301,3.301-8.654,3.301-11.955,0L4.306,72.407c-3.301-3.301-3.301-8.654,0-11.955L58.514,6.243
				C61.815,2.941,67.169,2.941,70.471,6.243L70.471,6.243z"/>
		</defs>
		<linearGradient id="SVGID_3_" gradientUnits="userSpaceOnUse" x1="2.83" y1="67.4807" x2="128.2562" y2="67.4807">
			<stop  offset="0" style="stop-color:#000000;stop-opacity:0.6"/>
			<stop  offset="1" style="stop-color:#000000;stop-opacity:0.6"/>
		</linearGradient>
		<use xlink:href="#SVGID_1_"  overflow="visible" fill-rule="evenodd" clip-rule="evenodd" fill="url(#SVGID_3_)"/>
		<use xlink:href="#SVGID_2_"  overflow="visible" fill-rule="evenodd" clip-rule="evenodd" fill="#A2A2A2"/>
		<clipPath id="SVGID_4_">
			<use xlink:href="#SVGID_1_"  overflow="visible"/>
		</clipPath>
		<clipPath id="SVGID_5_" clip-path="url(#SVGID_4_)">
			<use xlink:href="#SVGID_2_"  overflow="visible"/>
		</clipPath>
	</g>
	<g>
		<defs>
			<path id="SVGID_6_" d="M122.202,72.252l-51.888,51.887c-3.161,3.161-8.284,3.161-11.443,0L6.885,72.154
				c-3.161-3.159-3.161-8.284,0-11.443L58.772,8.822c3.161-3.161,8.284-3.161,11.445,0l51.985,51.985
				C125.362,63.968,125.362,69.092,122.202,72.252L122.202,72.252z M121.576,63.829L67.249,9.502c-1.463-1.465-3.838-1.465-5.301,0
				L7.619,63.829c-1.463,1.463-1.463,3.838,0,5.301l54.329,54.327c1.463,1.465,3.838,1.465,5.301,0l54.327-54.327
				C123.041,67.667,123.041,65.293,121.576,63.829L121.576,63.829z"/>
		</defs>
		<use xlink:href="#SVGID_6_"  overflow="visible" fill-rule="evenodd" clip-rule="evenodd"/>
		<clipPath id="SVGID_7_">
			<use xlink:href="#SVGID_6_"  overflow="visible"/>
		</clipPath>
	</g>
	<g>
		<defs>
			<path id="SVGID_8_" d="M45.412,39.919c-0.347-0.302-0.867-0.454-1.562-0.454c-0.715,0-1.276,0.163-1.681,0.486
				c-0.262,0.208-0.392,0.486-0.392,0.833c0,0.318,0.123,0.59,0.367,0.816c0.312,0.287,1.066,0.586,2.266,0.898
				c1.198,0.312,2.085,0.633,2.66,0.966c0.575,0.333,1.024,0.788,1.349,1.365c0.325,0.578,0.488,1.29,0.488,2.14
				c0,0.769-0.194,1.489-0.583,2.161s-0.938,1.171-1.649,1.497c-0.711,0.328-1.596,0.491-2.657,0.491
				c-1.542,0-2.728-0.392-3.555-1.177c-0.829-0.785-1.321-1.928-1.483-3.431l2.398-0.257c0.144,0.885,0.438,1.536,0.879,1.951
				c0.441,0.415,1.037,0.623,1.786,0.623c0.793,0,1.392-0.184,1.794-0.554c0.402-0.37,0.604-0.803,0.604-1.297
				c0-0.317-0.086-0.588-0.255-0.811c-0.168-0.223-0.464-0.417-0.887-0.582c-0.287-0.11-0.946-0.305-1.974-0.586
				c-1.321-0.36-2.248-0.803-2.781-1.328c-0.749-0.74-1.124-1.641-1.124-2.702c0-0.685,0.176-1.324,0.53-1.92
				c0.352-0.594,0.859-1.048,1.523-1.36c0.664-0.312,1.465-0.467,2.403-0.467c1.531,0,2.684,0.37,3.46,1.108
				c0.775,0.74,1.181,1.725,1.219,2.959l-2.465,0.12C45.985,40.718,45.759,40.221,45.412,39.919L45.412,39.919z M51.898,50.879
				V37.561h2.465v11.056h6.13v2.263H51.898L51.898,50.879z M72.839,49.272c-1.072,1.224-2.505,1.836-4.298,1.836
				c-1.815,0-3.259-0.609-4.33-1.827c-1.072-1.219-1.607-2.898-1.607-5.034c0-1.368,0.186-2.516,0.557-3.445
				c0.278-0.683,0.657-1.297,1.137-1.841c0.48-0.543,1.006-0.946,1.578-1.208c0.761-0.354,1.638-0.531,2.631-0.531
				c1.799,0,3.238,0.614,4.319,1.841c1.079,1.228,1.62,2.935,1.62,5.12C74.446,46.352,73.909,48.048,72.839,49.272L72.839,49.272z
				 M70.976,40.675c-0.614-0.757-1.428-1.135-2.444-1.135c-1.016,0-1.835,0.383-2.457,1.15c-0.622,0.766-0.934,1.922-0.934,3.466
				c0,1.521,0.32,2.675,0.958,3.458c0.638,0.785,1.449,1.177,2.432,1.177c0.982,0,1.788-0.389,2.419-1.168
				c0.63-0.779,0.945-1.946,0.945-3.503C71.897,42.58,71.59,41.432,70.976,40.675L70.976,40.675z M89.097,50.879h-2.615
				l-2.431-10.04l-2.424,10.04h-2.673L76.04,37.451h2.523l1.84,9.224l2.232-9.224h2.932l2.14,9.379l1.874-9.379h2.483L89.097,50.879
				L89.097,50.879z M32.644,60.189v11.157h-2.465V60.189h-3.623v-2.272h9.702v2.272H32.644L32.644,60.189z M45.473,65.419
				c0.533,0.342,0.972,0.719,1.32,1.127s0.814,1.135,1.404,2.18l1.491,2.62h-2.949l-1.782-2.922
				c-0.633-1.045-1.066-1.702-1.299-1.975c-0.234-0.271-0.481-0.457-0.741-0.559c-0.262-0.1-0.675-0.15-1.242-0.15h-0.499v5.606
				H38.71v-13.43h5.188c1.305,0,2.253,0.121,2.844,0.362c0.591,0.242,1.064,0.67,1.42,1.287s0.533,1.323,0.533,2.116
				c0,1.008-0.27,1.84-0.808,2.497C47.348,64.834,46.544,65.249,45.473,65.419L45.473,65.419z M45.827,60.761
				c-0.22-0.278-0.53-0.452-0.929-0.527c-0.2-0.031-0.8-0.045-1.799-0.045h-1.924v3.408h1.823c1.182,0,1.922-0.055,2.216-0.165
				c0.294-0.11,0.525-0.3,0.691-0.569c0.166-0.268,0.249-0.604,0.249-1.008C46.155,61.403,46.045,61.038,45.827,60.761
				L45.827,60.761z M60.2,71.346l-1.066-3.051h-4.881l-1.008,3.051H50.63l4.755-13.43h2.607l4.889,13.43H60.2L60.2,71.346z
				 M56.66,61.05l-1.649,4.983h3.332L56.66,61.05L56.66,61.05z M67.523,60.189v3.179h5.096v2.273h-5.096v5.706h-2.465v-13.43h8.37
				v2.272H67.523L67.523,60.189z M78.794,60.189v3.179h5.097v2.273h-5.097v5.706h-2.465v-13.43h8.37v2.272H78.794L78.794,60.189z
				 M87.509,71.346v-13.43h2.465v13.43H87.509L87.509,71.346z M99.999,60.61c-0.457-0.404-1.014-0.606-1.67-0.606
				c-0.904,0-1.639,0.359-2.201,1.072c-0.564,0.714-0.846,1.872-0.846,3.473c0,1.698,0.278,2.906,0.833,3.628
				c0.556,0.72,1.276,1.081,2.164,1.081c0.656,0,1.219-0.229,1.691-0.688c0.472-0.457,0.811-1.177,1.016-2.161l2.39,0.833
				c-0.367,1.467-0.976,2.555-1.828,3.266c-0.853,0.712-1.933,1.068-3.243,1.068c-1.622,0-2.954-0.609-3.998-1.828
				c-1.043-1.218-1.565-2.883-1.565-4.997c0-2.235,0.523-3.97,1.573-5.207c1.05-1.237,2.429-1.856,4.14-1.856
				c1.492,0,2.705,0.486,3.639,1.457c0.556,0.575,0.971,1.399,1.249,2.474l-2.439,0.641C100.758,61.563,100.458,61.013,99.999,60.61
				L99.999,60.61z M42.761,91.814l-1.066-3.051h-4.879l-1.008,3.051h-2.615l4.755-13.43h2.607l4.889,13.43H42.761L42.761,91.814z
				 M39.222,81.517L37.573,86.5h3.33L39.222,81.517L39.222,81.517z M54.907,91.814v-5.873h-4.831v5.873h-2.465v-13.43h2.465v5.285
				h4.831v-5.285h2.465v13.43H54.907L54.907,91.814z M70.059,89.551v2.263h-9.286v-13.43h9.053v2.271h-6.588v2.978h6.13v2.263h-6.13
				v3.655H70.059L70.059,89.551z M81.329,91.814l-1.066-3.051h-4.879l-1.008,3.051h-2.615l4.755-13.43h2.607l4.887,13.43H81.329
				L81.329,91.814z M77.791,81.517L76.142,86.5h3.33L77.791,81.517L77.791,81.517z M96.024,88.084
				c-0.305,0.977-0.741,1.769-1.308,2.373c-0.428,0.459-1.005,0.816-1.731,1.072c-0.544,0.189-1.273,0.284-2.182,0.284h-4.639
				v-13.43h4.505c1.016,0,1.791,0.086,2.324,0.257c0.716,0.231,1.329,0.644,1.84,1.236c0.512,0.593,0.9,1.318,1.166,2.176
				c0.266,0.859,0.401,1.917,0.401,3.175C96.399,86.332,96.273,87.285,96.024,88.084L96.024,88.084z M93.6,82.717
				c-0.166-0.556-0.399-0.99-0.699-1.302c-0.3-0.312-0.68-0.522-1.14-0.632c-0.344-0.086-1.019-0.129-2.024-0.129h-1.108v8.896
				h1.841c0.688,0,1.184-0.044,1.489-0.129c0.401-0.11,0.732-0.296,0.997-0.559c0.263-0.262,0.478-0.695,0.644-1.295
				c0.166-0.602,0.25-1.421,0.25-2.46S93.766,83.273,93.6,82.717L93.6,82.717z"/>
		</defs>
		<use xlink:href="#SVGID_8_"  overflow="visible" fill-rule="evenodd" clip-rule="evenodd"/>
		<clipPath id="SVGID_9_">
			<use xlink:href="#SVGID_8_"  overflow="visible"/>
		</clipPath>
		
			<use xlink:href="#SVGID_8_"  overflow="visible" fill-rule="evenodd" clip-rule="evenodd" fill="none" stroke="#000000" stroke-width="0.5" stroke-miterlimit="10"/>
	</g>
	<linearGradient id="SVGID_10_" gradientUnits="userSpaceOnUse" x1="94.9037" y1="109.8402" x2="34.1825" y2="23.1213">
		<stop  offset="0" style="stop-color:#000000;stop-opacity:0"/>
		<stop  offset="1" style="stop-color:#FFFFFF;stop-opacity:0.25"/>
	</linearGradient>
	<path fill-rule="evenodd" clip-rule="evenodd" fill="url(#SVGID_10_)" d="M70.471,6.243l54.309,54.311
		c3.301,3.301,3.301,8.656,0,11.955l-54.208,54.209c-3.301,3.301-8.654,3.301-11.955,0L4.306,72.407
		c-3.301-3.301-3.301-8.654,0-11.955L58.514,6.243C61.815,2.941,67.169,2.941,70.471,6.243L70.471,6.243z"/>
</g>
<g id="normal">
	<g>
		<defs>
			<path id="SVGID_11_" d="M71.471,7.243l54.309,54.311c3.301,3.301,3.301,8.656,0,11.955l-54.208,54.209
				c-3.301,3.301-8.654,3.301-11.955,0L5.306,73.407c-3.301-3.301-3.301-8.654,0-11.955L59.514,7.243
				C62.815,3.941,68.169,3.941,71.471,7.243L71.471,7.243z"/>
		</defs>
		<defs>
			<path id="SVGID_12_" d="M70.471,6.243l54.309,54.311c3.301,3.301,3.301,8.656,0,11.955l-54.208,54.209
				c-3.301,3.301-8.654,3.301-11.955,0L4.306,72.407c-3.301-3.301-3.301-8.654,0-11.955L58.514,6.243
				C61.815,2.941,67.169,2.941,70.471,6.243L70.471,6.243z"/>
		</defs>
		<linearGradient id="SVGID_13_" gradientUnits="userSpaceOnUse" x1="2.83" y1="67.4807" x2="128.2562" y2="67.4807">
			<stop  offset="0" style="stop-color:#000000;stop-opacity:0.6"/>
			<stop  offset="1" style="stop-color:#000000;stop-opacity:0.6"/>
		</linearGradient>
		<use xlink:href="#SVGID_11_"  overflow="visible" fill-rule="evenodd" clip-rule="evenodd" fill="url(#SVGID_13_)"/>
		<use xlink:href="#SVGID_12_"  overflow="visible" fill-rule="evenodd" clip-rule="evenodd" fill="#F78F1E"/>
		<clipPath id="SVGID_14_">
			<use xlink:href="#SVGID_11_"  overflow="visible"/>
		</clipPath>
		<clipPath id="SVGID_15_" clip-path="url(#SVGID_14_)">
			<use xlink:href="#SVGID_12_"  overflow="visible"/>
		</clipPath>
	</g>
	<g>
		<defs>
			<path id="SVGID_16_" d="M122.202,72.252l-51.888,51.887c-3.161,3.161-8.284,3.161-11.443,0L6.885,72.154
				c-3.161-3.159-3.161-8.284,0-11.443L58.772,8.822c3.161-3.161,8.284-3.161,11.445,0l51.985,51.985
				C125.362,63.968,125.362,69.092,122.202,72.252L122.202,72.252z M121.576,63.829L67.249,9.502c-1.463-1.465-3.838-1.465-5.301,0
				L7.619,63.829c-1.463,1.463-1.463,3.838,0,5.301l54.329,54.327c1.463,1.465,3.838,1.465,5.301,0l54.327-54.327
				C123.041,67.667,123.041,65.293,121.576,63.829L121.576,63.829z"/>
		</defs>
		<use xlink:href="#SVGID_16_"  overflow="visible" fill-rule="evenodd" clip-rule="evenodd"/>
		<clipPath id="SVGID_17_">
			<use xlink:href="#SVGID_16_"  overflow="visible"/>
		</clipPath>
	</g>
	<g>
		<defs>
			<path id="SVGID_18_" d="M45.412,39.919c-0.347-0.302-0.867-0.454-1.562-0.454c-0.715,0-1.276,0.163-1.681,0.486
				c-0.262,0.208-0.392,0.486-0.392,0.833c0,0.318,0.123,0.59,0.367,0.816c0.312,0.287,1.066,0.586,2.266,0.898
				c1.198,0.312,2.085,0.633,2.66,0.966c0.575,0.333,1.024,0.788,1.349,1.365c0.325,0.578,0.488,1.29,0.488,2.14
				c0,0.769-0.194,1.489-0.583,2.161s-0.938,1.171-1.649,1.497c-0.711,0.328-1.596,0.491-2.657,0.491
				c-1.542,0-2.728-0.392-3.555-1.177c-0.829-0.785-1.321-1.928-1.483-3.431l2.398-0.257c0.144,0.885,0.438,1.536,0.879,1.951
				c0.441,0.415,1.037,0.623,1.786,0.623c0.793,0,1.392-0.184,1.794-0.554c0.402-0.37,0.604-0.803,0.604-1.297
				c0-0.317-0.086-0.588-0.255-0.811c-0.168-0.223-0.464-0.417-0.887-0.582c-0.287-0.11-0.946-0.305-1.974-0.586
				c-1.321-0.36-2.248-0.803-2.781-1.328c-0.749-0.74-1.124-1.641-1.124-2.702c0-0.685,0.176-1.324,0.53-1.92
				c0.352-0.594,0.859-1.048,1.523-1.36c0.664-0.312,1.465-0.467,2.403-0.467c1.531,0,2.684,0.37,3.46,1.108
				c0.775,0.74,1.181,1.725,1.219,2.959l-2.465,0.12C45.985,40.718,45.759,40.221,45.412,39.919L45.412,39.919z M51.898,50.879
				V37.561h2.465v11.056h6.13v2.263H51.898L51.898,50.879z M72.839,49.272c-1.072,1.224-2.505,1.836-4.298,1.836
				c-1.815,0-3.259-0.609-4.33-1.827c-1.072-1.219-1.607-2.898-1.607-5.034c0-1.368,0.186-2.516,0.557-3.445
				c0.278-0.683,0.657-1.297,1.137-1.841c0.48-0.543,1.006-0.946,1.578-1.208c0.761-0.354,1.638-0.531,2.631-0.531
				c1.799,0,3.238,0.614,4.319,1.841c1.079,1.228,1.62,2.935,1.62,5.12C74.446,46.352,73.909,48.048,72.839,49.272L72.839,49.272z
				 M70.976,40.675c-0.614-0.757-1.428-1.135-2.444-1.135c-1.016,0-1.835,0.383-2.457,1.15c-0.622,0.766-0.934,1.922-0.934,3.466
				c0,1.521,0.32,2.675,0.958,3.458c0.638,0.785,1.449,1.177,2.432,1.177c0.982,0,1.788-0.389,2.419-1.168
				c0.63-0.779,0.945-1.946,0.945-3.503C71.897,42.58,71.59,41.432,70.976,40.675L70.976,40.675z M89.097,50.879h-2.615
				l-2.431-10.04l-2.424,10.04h-2.673L76.04,37.451h2.523l1.84,9.224l2.232-9.224h2.932l2.14,9.379l1.874-9.379h2.483L89.097,50.879
				L89.097,50.879z M32.644,60.189v11.157h-2.465V60.189h-3.623v-2.272h9.702v2.272H32.644L32.644,60.189z M45.473,65.419
				c0.533,0.342,0.972,0.719,1.32,1.127s0.814,1.135,1.404,2.18l1.491,2.62h-2.949l-1.782-2.922
				c-0.633-1.045-1.066-1.702-1.299-1.975c-0.234-0.271-0.481-0.457-0.741-0.559c-0.262-0.1-0.675-0.15-1.242-0.15h-0.499v5.606
				H38.71v-13.43h5.188c1.305,0,2.253,0.121,2.844,0.362c0.591,0.242,1.064,0.67,1.42,1.287s0.533,1.323,0.533,2.116
				c0,1.008-0.27,1.84-0.808,2.497C47.348,64.834,46.544,65.249,45.473,65.419L45.473,65.419z M45.827,60.761
				c-0.22-0.278-0.53-0.452-0.929-0.527c-0.2-0.031-0.8-0.045-1.799-0.045h-1.924v3.408h1.823c1.182,0,1.922-0.055,2.216-0.165
				c0.294-0.11,0.525-0.3,0.691-0.569c0.166-0.268,0.249-0.604,0.249-1.008C46.155,61.403,46.045,61.038,45.827,60.761
				L45.827,60.761z M60.2,71.346l-1.066-3.051h-4.881l-1.008,3.051H50.63l4.755-13.43h2.607l4.889,13.43H60.2L60.2,71.346z
				 M56.66,61.05l-1.649,4.983h3.332L56.66,61.05L56.66,61.05z M67.523,60.189v3.179h5.096v2.273h-5.096v5.706h-2.465v-13.43h8.37
				v2.272H67.523L67.523,60.189z M78.794,60.189v3.179h5.097v2.273h-5.097v5.706h-2.465v-13.43h8.37v2.272H78.794L78.794,60.189z
				 M87.509,71.346v-13.43h2.465v13.43H87.509L87.509,71.346z M99.999,60.61c-0.457-0.404-1.014-0.606-1.67-0.606
				c-0.904,0-1.639,0.359-2.201,1.072c-0.564,0.714-0.846,1.872-0.846,3.473c0,1.698,0.278,2.906,0.833,3.628
				c0.556,0.72,1.276,1.081,2.164,1.081c0.656,0,1.219-0.229,1.691-0.688c0.472-0.457,0.811-1.177,1.016-2.161l2.39,0.833
				c-0.367,1.467-0.976,2.555-1.828,3.266c-0.853,0.712-1.933,1.068-3.243,1.068c-1.622,0-2.954-0.609-3.998-1.828
				c-1.043-1.218-1.565-2.883-1.565-4.997c0-2.235,0.523-3.97,1.573-5.207c1.05-1.237,2.429-1.856,4.14-1.856
				c1.492,0,2.705,0.486,3.639,1.457c0.556,0.575,0.971,1.399,1.249,2.474l-2.439,0.641C100.758,61.563,100.458,61.013,99.999,60.61
				L99.999,60.61z M42.761,91.814l-1.066-3.051h-4.879l-1.008,3.051h-2.615l4.755-13.43h2.607l4.889,13.43H42.761L42.761,91.814z
				 M39.222,81.517L37.573,86.5h3.33L39.222,81.517L39.222,81.517z M54.907,91.814v-5.873h-4.831v5.873h-2.465v-13.43h2.465v5.285
				h4.831v-5.285h2.465v13.43H54.907L54.907,91.814z M70.059,89.551v2.263h-9.286v-13.43h9.053v2.271h-6.588v2.978h6.13v2.263h-6.13
				v3.655H70.059L70.059,89.551z M81.329,91.814l-1.066-3.051h-4.879l-1.008,3.051h-2.615l4.755-13.43h2.607l4.887,13.43H81.329
				L81.329,91.814z M77.791,81.517L76.142,86.5h3.33L77.791,81.517L77.791,81.517z M96.024,88.084
				c-0.305,0.977-0.741,1.769-1.308,2.373c-0.428,0.459-1.005,0.816-1.731,1.072c-0.544,0.189-1.273,0.284-2.182,0.284h-4.639
				v-13.43h4.505c1.016,0,1.791,0.086,2.324,0.257c0.716,0.231,1.329,0.644,1.84,1.236c0.512,0.593,0.9,1.318,1.166,2.176
				c0.266,0.859,0.401,1.917,0.401,3.175C96.399,86.332,96.273,87.285,96.024,88.084L96.024,88.084z M93.6,82.717
				c-0.166-0.556-0.399-0.99-0.699-1.302c-0.3-0.312-0.68-0.522-1.14-0.632c-0.344-0.086-1.019-0.129-2.024-0.129h-1.108v8.896
				h1.841c0.688,0,1.184-0.044,1.489-0.129c0.401-0.11,0.732-0.296,0.997-0.559c0.263-0.262,0.478-0.695,0.644-1.295
				c0.166-0.602,0.25-1.421,0.25-2.46S93.766,83.273,93.6,82.717L93.6,82.717z"/>
		</defs>
		<use xlink:href="#SVGID_18_"  overflow="visible" fill-rule="evenodd" clip-rule="evenodd"/>
		<clipPath id="SVGID_19_">
			<use xlink:href="#SVGID_18_"  overflow="visible"/>
		</clipPath>
		
			<use xlink:href="#SVGID_18_"  overflow="visible" fill-rule="evenodd" clip-rule="evenodd" fill="none" stroke="#000000" stroke-width="0.5" stroke-miterlimit="10"/>
	</g>
	<linearGradient id="SVGID_20_" gradientUnits="userSpaceOnUse" x1="94.9037" y1="109.8402" x2="34.1825" y2="23.1213">
		<stop  offset="0" style="stop-color:#000000;stop-opacity:0"/>
		<stop  offset="1" style="stop-color:#FFFFFF;stop-opacity:0.25"/>
	</linearGradient>
	<path fill-rule="evenodd" clip-rule="evenodd" fill="url(#SVGID_20_)" d="M70.471,6.243l54.309,54.311
		c3.301,3.301,3.301,8.656,0,11.955l-54.208,54.209c-3.301,3.301-8.654,3.301-11.955,0L4.306,72.407
		c-3.301-3.301-3.301-8.654,0-11.955L58.514,6.243C61.815,2.941,67.169,2.941,70.471,6.243L70.471,6.243z"/>
</g>
</svg>
