<?xml version="1.0" encoding="utf-8"?>
<!-- Generator: Adobe Illustrator 17.0.1, SVG Export Plug-In . SVG Version: 6.00 Build 0)  -->
<!DOCTYPE svg PUBLIC "-//W3C//DTD SVG 1.1//EN" "http://www.w3.org/Graphics/SVG/1.1/DTD/svg11.dtd">
<svg version="1.1" xmlns="http://www.w3.org/2000/svg" xmlns:xlink="http://www.w3.org/1999/xlink" x="0px" y="0px" width="132px"
	 height="132px" viewBox="0 0 132 132" enable-background="new 0 0 132 132" xml:space="preserve">
<g id="disabled">
	<g>
		<defs>
			<path id="SVGID_1_" d="M69.079,11.93c8.814,15.267,50.344,86.96,60.048,103.765c1.33,2.304-0.734,6.699-3.317,6.699
				c-18.949,0-99.899,0-118.152,0c-4.317,0-5.267-2.881-3.036-6.747C14.33,98.834,55.426,27.689,64.51,11.956
				C65.49,10.257,68.001,10.066,69.079,11.93L69.079,11.93z"/>
		</defs>
		<defs>
			<path id="SVGID_2_" d="M68.079,10.93c8.814,15.267,50.344,86.96,60.048,103.765c1.33,2.304-0.734,6.699-3.317,6.699
				c-18.949,0-99.899,0-118.152,0c-4.317,0-5.267-2.881-3.036-6.747C13.33,97.834,54.426,26.689,63.51,10.956
				C64.49,9.257,67.001,9.066,68.079,10.93L68.079,10.93z"/>
		</defs>
		<linearGradient id="SVGID_3_" gradientUnits="userSpaceOnUse" x1="3.4569" y1="66.5" x2="129.5431" y2="66.5">
			<stop  offset="0" style="stop-color:#000000;stop-opacity:0.6"/>
			<stop  offset="1" style="stop-color:#000000;stop-opacity:0.6"/>
		</linearGradient>
		<use xlink:href="#SVGID_1_"  overflow="visible" fill-rule="evenodd" clip-rule="evenodd" fill="url(#SVGID_3_)"/>
		<use xlink:href="#SVGID_2_"  overflow="visible" fill="#AFAFAF"/>
		<clipPath id="SVGID_4_">
			<use xlink:href="#SVGID_1_"  overflow="visible"/>
		</clipPath>
		<clipPath id="SVGID_5_" clip-path="url(#SVGID_4_)">
			<use xlink:href="#SVGID_2_"  overflow="visible"/>
		</clipPath>
	</g>
	<g>
		<defs>
			<path id="SVGID_6_" d="M67.311,16.122c8.417,14.578,48.069,83.027,57.333,99.072c0.934,1.618-0.111,3.345-1.751,3.345
				c-18.091,0-97.413,0-114.842,0c-1.738,0-2.384-1.746-1.434-3.392c9.268-16.053,48.505-83.978,57.178-99.001
				C64.729,14.526,66.283,14.342,67.311,16.122L67.311,16.122z"/>
		</defs>
		<use xlink:href="#SVGID_6_"  overflow="visible" fill-rule="evenodd" clip-rule="evenodd"/>
		<clipPath id="SVGID_7_">
			<use xlink:href="#SVGID_6_"  overflow="visible"/>
		</clipPath>
	</g>
	<g>
		<defs>
			<path id="SVGID_8_" d="M66.807,37.074c5.941,10.29,33.928,57.874,40.466,69.2c0.659,1.142-0.079,2.36-1.236,2.36
				c-12.769,0-68.754,0-81.055,0c-1.228,0-1.683-1.232-1.013-2.394c6.541-11.33,34.235-58.546,40.356-69.148
				C64.986,35.946,66.081,35.817,66.807,37.074L66.807,37.074z"/>
		</defs>
		<use xlink:href="#SVGID_8_"  overflow="visible" fill="#AFAFAF"/>
		<clipPath id="SVGID_9_">
			<use xlink:href="#SVGID_8_"  overflow="visible"/>
		</clipPath>
	</g>
	<g>
		<defs>
			<path id="SVGID_10_" d="M85.095,99.583h1.938v2.972h-1.938v2.084h-3.773v-2.084h-5.041v2.084h-3.799v-2.084h-5.038v2.084h-3.771
				v-2.084h-5.036v2.084h-3.805v-2.084h-4.791v2.084h-3.77v-2.084h-2.063v-2.972h2.063V82.639h-2.063v-2.97h2.063v-2.537
				l1.896-4.377l1.874,4.377v2.537h4.791v-2.537l1.903-4.377l1.903,4.377v2.537h5.036v-2.537l1.899-4.377l1.872,4.377v2.537h5.038
				v-2.537l1.907-4.377l1.891,4.377v2.537h5.041v-2.537l1.901-4.377l1.872,4.377v2.537h1.938v2.97h-1.938V99.583V82.639V99.583
				L85.095,99.583z M54.832,82.639h-4.791v16.945h4.791V82.639L54.832,82.639z M63.673,82.639h-5.038v16.945h5.038V82.639
				L63.673,82.639z M72.482,82.639h-5.038v16.945h5.038V82.639L72.482,82.639z M81.322,82.639h-5.041v16.945h5.041V82.639
				L81.322,82.639z"/>
		</defs>
		<use xlink:href="#SVGID_10_"  overflow="visible" fill-rule="evenodd" clip-rule="evenodd"/>
		<clipPath id="SVGID_11_">
			<use xlink:href="#SVGID_10_"  overflow="visible"/>
		</clipPath>
	</g>
	<linearGradient id="SVGID_12_" gradientUnits="userSpaceOnUse" x1="91.4436" y1="145.3095" x2="18.9822" y2="41.8239">
		<stop  offset="0" style="stop-color:#000000;stop-opacity:0"/>
		<stop  offset="1" style="stop-color:#FFFFFF;stop-opacity:0.25"/>
	</linearGradient>
	<path fill-rule="evenodd" clip-rule="evenodd" fill="url(#SVGID_12_)" d="M68.079,10.93c8.814,15.267,50.344,86.96,60.048,103.765
		c1.33,2.304-0.734,6.699-3.317,6.699c-18.949,0-99.899,0-118.152,0c-4.317,0-5.267-2.881-3.036-6.747
		C13.33,97.834,54.426,26.689,63.51,10.956C64.49,9.257,67.001,9.066,68.079,10.93L68.079,10.93z"/>
</g>
<g id="normal">
	<g>
		<defs>
			<path id="SVGID_13_" d="M69.079,11.93c8.814,15.267,50.344,86.96,60.048,103.765c1.33,2.304-0.734,6.699-3.317,6.699
				c-18.949,0-99.899,0-118.152,0c-4.317,0-5.267-2.881-3.036-6.747C14.33,98.834,55.426,27.689,64.51,11.956
				C65.49,10.257,68.001,10.066,69.079,11.93L69.079,11.93z"/>
		</defs>
		<defs>
			<path id="SVGID_14_" d="M68.079,10.93c8.814,15.267,50.344,86.96,60.048,103.765c1.33,2.304-0.734,6.699-3.317,6.699
				c-18.949,0-99.899,0-118.152,0c-4.317,0-5.267-2.881-3.036-6.747C13.33,97.834,54.426,26.689,63.51,10.956
				C64.49,9.257,67.001,9.066,68.079,10.93L68.079,10.93z"/>
		</defs>
		<linearGradient id="SVGID_15_" gradientUnits="userSpaceOnUse" x1="3.4569" y1="66.5" x2="129.5431" y2="66.5">
			<stop  offset="0" style="stop-color:#000000;stop-opacity:0.6"/>
			<stop  offset="1" style="stop-color:#000000;stop-opacity:0.6"/>
		</linearGradient>
		<use xlink:href="#SVGID_13_"  overflow="visible" fill-rule="evenodd" clip-rule="evenodd" fill="url(#SVGID_15_)"/>
		<use xlink:href="#SVGID_14_"  overflow="visible" fill="#FA9F37"/>
		<clipPath id="SVGID_16_">
			<use xlink:href="#SVGID_13_"  overflow="visible"/>
		</clipPath>
		<clipPath id="SVGID_17_" clip-path="url(#SVGID_16_)">
			<use xlink:href="#SVGID_14_"  overflow="visible"/>
		</clipPath>
	</g>
	<g>
		<defs>
			<path id="SVGID_18_" d="M67.311,16.122c8.417,14.578,48.069,83.027,57.333,99.072c0.934,1.618-0.111,3.345-1.751,3.345
				c-18.091,0-97.413,0-114.842,0c-1.738,0-2.384-1.746-1.434-3.392c9.268-16.053,48.505-83.978,57.178-99.001
				C64.729,14.526,66.283,14.342,67.311,16.122L67.311,16.122z"/>
		</defs>
		<use xlink:href="#SVGID_18_"  overflow="visible" fill-rule="evenodd" clip-rule="evenodd"/>
		<clipPath id="SVGID_19_">
			<use xlink:href="#SVGID_18_"  overflow="visible"/>
		</clipPath>
	</g>
	<g>
		<defs>
			<path id="SVGID_20_" d="M66.807,37.074c5.941,10.29,33.928,57.874,40.466,69.2c0.659,1.142-0.079,2.36-1.236,2.36
				c-12.769,0-68.754,0-81.055,0c-1.228,0-1.683-1.232-1.013-2.394c6.541-11.33,34.235-58.546,40.356-69.148
				C64.986,35.946,66.081,35.817,66.807,37.074L66.807,37.074z"/>
		</defs>
		<use xlink:href="#SVGID_20_"  overflow="visible" fill="#FA9F37"/>
		<clipPath id="SVGID_21_">
			<use xlink:href="#SVGID_20_"  overflow="visible"/>
		</clipPath>
	</g>
	<g>
		<defs>
			<path id="SVGID_22_" d="M85.095,99.583h1.938v2.972h-1.938v2.084h-3.773v-2.084h-5.041v2.084h-3.799v-2.084h-5.038v2.084h-3.771
				v-2.084h-5.036v2.084h-3.805v-2.084h-4.791v2.084h-3.77v-2.084h-2.063v-2.972h2.063V82.639h-2.063v-2.97h2.063v-2.537
				l1.896-4.377l1.874,4.377v2.537h4.791v-2.537l1.903-4.377l1.903,4.377v2.537h5.036v-2.537l1.899-4.377l1.872,4.377v2.537h5.038
				v-2.537l1.907-4.377l1.891,4.377v2.537h5.041v-2.537l1.901-4.377l1.872,4.377v2.537h1.938v2.97h-1.938V99.583V82.639V99.583
				L85.095,99.583z M54.832,82.639h-4.791v16.945h4.791V82.639L54.832,82.639z M63.673,82.639h-5.038v16.945h5.038V82.639
				L63.673,82.639z M72.482,82.639h-5.038v16.945h5.038V82.639L72.482,82.639z M81.322,82.639h-5.041v16.945h5.041V82.639
				L81.322,82.639z"/>
		</defs>
		<use xlink:href="#SVGID_22_"  overflow="visible" fill-rule="evenodd" clip-rule="evenodd"/>
		<clipPath id="SVGID_23_">
			<use xlink:href="#SVGID_22_"  overflow="visible"/>
		</clipPath>
	</g>
	<linearGradient id="SVGID_24_" gradientUnits="userSpaceOnUse" x1="91.4436" y1="145.3095" x2="18.9822" y2="41.8239">
		<stop  offset="0" style="stop-color:#000000;stop-opacity:0"/>
		<stop  offset="1" style="stop-color:#FFFFFF;stop-opacity:0.25"/>
	</linearGradient>
	<path fill-rule="evenodd" clip-rule="evenodd" fill="url(#SVGID_24_)" d="M68.079,10.93c8.814,15.267,50.344,86.96,60.048,103.765
		c1.33,2.304-0.734,6.699-3.317,6.699c-18.949,0-99.899,0-118.152,0c-4.317,0-5.267-2.881-3.036-6.747
		C13.33,97.834,54.426,26.689,63.51,10.956C64.49,9.257,67.001,9.066,68.079,10.93L68.079,10.93z"/>
</g>
</svg>
