<?xml version="1.0" encoding="utf-8"?>
<!-- Generator: Adobe Illustrator 17.0.1, SVG Export Plug-In . SVG Version: 6.00 Build 0)  -->
<!DOCTYPE svg PUBLIC "-//W3C//DTD SVG 1.1//EN" "http://www.w3.org/Graphics/SVG/1.1/DTD/svg11.dtd">
<svg version="1.1" xmlns="http://www.w3.org/2000/svg" xmlns:xlink="http://www.w3.org/1999/xlink" x="0px" y="0px" width="132px"
	 height="132px" viewBox="0 0 132 132" enable-background="new 0 0 132 132" xml:space="preserve">
<g id="disabled">
	<g>
		<defs>
			<path id="SVGID_1_" d="M72.428,6.264l54.309,54.309c3.301,3.301,3.301,8.654,0,11.957l-54.208,54.208
				c-3.301,3.301-8.654,3.301-11.955,0L6.263,72.427c-3.301-3.301-3.301-8.654,0-11.955L60.471,6.264
				C63.772,2.961,69.126,2.961,72.428,6.264L72.428,6.264z"/>
		</defs>
		<defs>
			<path id="SVGID_2_" d="M71.428,5.264l54.309,54.309c3.301,3.301,3.301,8.654,0,11.957l-54.208,54.208
				c-3.301,3.301-8.654,3.301-11.955,0L5.263,71.427c-3.301-3.301-3.301-8.654,0-11.955L59.471,5.264
				C62.772,1.961,68.126,1.961,71.428,5.264L71.428,5.264z"/>
		</defs>
		<linearGradient id="SVGID_3_" gradientUnits="userSpaceOnUse" x1="3.7869" y1="66.5" x2="129.2131" y2="66.5">
			<stop  offset="0" style="stop-color:#000000;stop-opacity:0.6"/>
			<stop  offset="1" style="stop-color:#000000;stop-opacity:0.6"/>
		</linearGradient>
		<use xlink:href="#SVGID_1_"  overflow="visible" fill-rule="evenodd" clip-rule="evenodd" fill="url(#SVGID_3_)"/>
		<use xlink:href="#SVGID_2_"  overflow="visible" fill-rule="evenodd" clip-rule="evenodd" fill="#D1D1D1"/>
		<clipPath id="SVGID_4_">
			<use xlink:href="#SVGID_1_"  overflow="visible"/>
		</clipPath>
		<clipPath id="SVGID_5_" clip-path="url(#SVGID_4_)">
			<use xlink:href="#SVGID_2_"  overflow="visible"/>
		</clipPath>
	</g>
	<g>
		<defs>
			<path id="SVGID_6_" d="M123.159,71.27l-51.888,51.888c-3.161,3.161-8.284,3.161-11.443,0L7.842,71.173
				c-3.161-3.159-3.161-8.284,0-11.445L59.729,7.841c3.161-3.159,8.284-3.159,11.445,0l51.985,51.985
				C126.319,62.987,126.319,68.111,123.159,71.27L123.159,71.27z M122.533,62.849L68.205,8.52c-1.463-1.463-3.838-1.463-5.301,0
				L8.576,62.849c-1.463,1.463-1.463,3.836,0,5.301l54.329,54.327c1.463,1.463,3.838,1.463,5.301,0l54.327-54.327
				C123.998,66.685,123.998,64.312,122.533,62.849L122.533,62.849z"/>
		</defs>
		<use xlink:href="#SVGID_6_"  overflow="visible" fill-rule="evenodd" clip-rule="evenodd"/>
		<clipPath id="SVGID_7_">
			<use xlink:href="#SVGID_6_"  overflow="visible"/>
		</clipPath>
	</g>
	<g>
		<defs>
			<path id="SVGID_8_" d="M92.312,87.693c-0.384,1.001-3.019,4.585-5.254,6.743c-2.235,2.156-5.364,4.508-5.364,4.508l-6.86-5.626
				c0,0,3.545-2.466,5.395-3.778c1.851-1.308,3.623-2.156,3.623-3.775c0-1.618-0.108-0.546-1.232-1.079
				c-1.651-0.783-0.977-0.078-3.213-0.848c-2.235-0.77-3.364-1.328-4.245-2.625c-0.701-1.034-1.113-1.888-0.872-3.473
				c0.247-1.63,1.557-5.702,1.557-5.702l3.847,0.032c0,0-0.955,3.809-0.63,5.178c0.333,1.397,0.686,1.803,2.197,2.568
				c1.126,0.572,0.987,0.476,3.993,0.63c3.096,0.158,4.14,0.008,5.71,0.557c1.542,0.539,1.946,0.984,2.486,2.755
				C93.988,85.535,92.698,86.69,92.312,87.693L92.312,87.693z M84.841,63.879l0.006,0.069c0,0-1.468,0.126-3.865,0.284l0.139,3.823
				c0,0,0.551,1.56-1.102,2.386c-1.651,0.825-0.323,0.413-1.79,0.505c-1.468,0.092-1.308-0.031-1.878-0.323
				c-1.392-0.709-1.284-2.476-1.284-2.476v-3.581c-3.542,0.166-7.706,0.302-11.915,0.302c-4.375,0-8.828-0.136-12.616-0.297v3.576
				c0,0,0.107,1.767-1.284,2.476c-0.57,0.292-0.41,0.415-1.878,0.323c-1.468-0.092-0.141,0.32-1.791-0.505
				c-1.651-0.825-1.1-2.386-1.1-2.386l0.137-3.781c-2.46-0.142-3.993-0.255-3.993-0.255l0.024-0.107
				c-1.077-0.031-1.941-0.908-1.941-1.991c0-1.103,0.895-1.998,1.998-1.998c0.2,0,0.389,0.037,0.57,0.092l-0.682-9.749l2.219-1.886
				l1.775-10.321c0,0,3.329-2.219,17.975-2.219c14.648,0,18.086,2.331,18.086,2.331l1.775,10.1l2.219,1.775l-0.749,9.94h0.155
				c0.128-0.029,0.255-0.061,0.392-0.061c1.103,0,1.996,0.895,1.996,1.998C86.442,62.889,85.754,63.695,84.841,63.879L84.841,63.879
				z M78.657,40.5c0,0-3.662-2.218-15.757-1.996c-12.094,0.221-16.2,1.775-16.2,1.775l-1.885,9.213l1.827-0.006
				c0.363-0.365,0.759-0.693,1.168-0.882c1.444-0.665,2.331-1.444,3.552-1.554c0.507-0.047,0.785-0.092,1.071-0.121
				c-1.614-0.333-2.828-1.761-2.828-3.473c0-1.958,1.588-3.545,3.545-3.545c1.958,0,3.545,1.588,3.545,3.545
				c0,1.698-1.194,3.112-2.788,3.46c0.141,0.006,0.279,0.013,0.451,0.023c1.886,0.111,2.108,0,3.994,1
				c0.683,0.362,1.396,0.929,2.027,1.504l19.831-0.061L78.657,40.5L78.657,40.5z M45.372,72.113l3.623,0.078
				c0,0-0.787,1.756-0.695,3.159c0.108,1.622,0.371,2.101,1.88,2.867c1.127,0.572,2.56,0.431,5.566,0.586
				c3.096,0.158,3.318-0.226,4.887,0.323c1.541,0.539,2.235,0.693,2.775,2.466c0.539,1.772-0.462,2.928-0.848,3.93
				c-0.386,1.001-2.775,4.316-5.01,6.474c-2.235,2.156-5.319,4.778-5.319,4.778l-6.86-5.626c0,0,3.545-2.466,5.395-3.776
				c1.851-1.31,3.623-2.158,3.623-3.776c0-1.618,0.386-0.231-1.232-1.079c-1.62-0.848-1.773-0.076-4.009-0.848
				c-2.235-0.77-3.364-1.326-4.245-2.625c-0.701-1.034-0.678-1.888-0.438-3.473C44.713,73.943,45.372,72.113,45.372,72.113
				L45.372,72.113z"/>
		</defs>
		<use xlink:href="#SVGID_8_"  overflow="visible" fill-rule="evenodd" clip-rule="evenodd"/>
		<clipPath id="SVGID_9_">
			<use xlink:href="#SVGID_8_"  overflow="visible"/>
		</clipPath>
	</g>
	<linearGradient id="SVGID_10_" gradientUnits="userSpaceOnUse" x1="95.8606" y1="108.8593" x2="35.1399" y2="22.1411">
		<stop  offset="0" style="stop-color:#000000;stop-opacity:0"/>
		<stop  offset="1" style="stop-color:#FFFFFF;stop-opacity:0.25"/>
	</linearGradient>
	<path fill-rule="evenodd" clip-rule="evenodd" fill="url(#SVGID_10_)" d="M71.428,5.264l54.309,54.309
		c3.301,3.301,3.301,8.654,0,11.957l-54.208,54.208c-3.301,3.301-8.654,3.301-11.955,0L5.263,71.427
		c-3.301-3.301-3.301-8.654,0-11.955L59.471,5.264C62.772,1.961,68.126,1.961,71.428,5.264L71.428,5.264z"/>
</g>
<g id="normal">
	<g>
		<defs>
			<path id="SVGID_11_" d="M72.428,6.264l54.309,54.309c3.301,3.301,3.301,8.654,0,11.957l-54.208,54.208
				c-3.301,3.301-8.654,3.301-11.955,0L6.263,72.427c-3.301-3.301-3.301-8.654,0-11.955L60.471,6.264
				C63.772,2.961,69.126,2.961,72.428,6.264L72.428,6.264z"/>
		</defs>
		<defs>
			<path id="SVGID_12_" d="M71.428,5.264l54.309,54.309c3.301,3.301,3.301,8.654,0,11.957l-54.208,54.208
				c-3.301,3.301-8.654,3.301-11.955,0L5.263,71.427c-3.301-3.301-3.301-8.654,0-11.955L59.471,5.264
				C62.772,1.961,68.126,1.961,71.428,5.264L71.428,5.264z"/>
		</defs>
		<linearGradient id="SVGID_13_" gradientUnits="userSpaceOnUse" x1="3.7869" y1="66.5" x2="129.2131" y2="66.5">
			<stop  offset="0" style="stop-color:#000000;stop-opacity:0.6"/>
			<stop  offset="1" style="stop-color:#000000;stop-opacity:0.6"/>
		</linearGradient>
		<use xlink:href="#SVGID_11_"  overflow="visible" fill-rule="evenodd" clip-rule="evenodd" fill="url(#SVGID_13_)"/>
		<use xlink:href="#SVGID_12_"  overflow="visible" fill-rule="evenodd" clip-rule="evenodd" fill="#FFDF0A"/>
		<clipPath id="SVGID_14_">
			<use xlink:href="#SVGID_11_"  overflow="visible"/>
		</clipPath>
		<clipPath id="SVGID_15_" clip-path="url(#SVGID_14_)">
			<use xlink:href="#SVGID_12_"  overflow="visible"/>
		</clipPath>
	</g>
	<g>
		<defs>
			<path id="SVGID_16_" d="M123.159,71.27l-51.888,51.888c-3.161,3.161-8.284,3.161-11.443,0L7.842,71.173
				c-3.161-3.159-3.161-8.284,0-11.445L59.729,7.841c3.161-3.159,8.284-3.159,11.445,0l51.985,51.985
				C126.319,62.987,126.319,68.111,123.159,71.27L123.159,71.27z M122.533,62.849L68.205,8.52c-1.463-1.463-3.838-1.463-5.301,0
				L8.576,62.849c-1.463,1.463-1.463,3.836,0,5.301l54.329,54.327c1.463,1.463,3.838,1.463,5.301,0l54.327-54.327
				C123.998,66.685,123.998,64.312,122.533,62.849L122.533,62.849z"/>
		</defs>
		<use xlink:href="#SVGID_16_"  overflow="visible" fill-rule="evenodd" clip-rule="evenodd"/>
		<clipPath id="SVGID_17_">
			<use xlink:href="#SVGID_16_"  overflow="visible"/>
		</clipPath>
	</g>
	<g>
		<defs>
			<path id="SVGID_18_" d="M92.312,87.693c-0.384,1.001-3.019,4.585-5.254,6.743c-2.235,2.156-5.364,4.508-5.364,4.508l-6.86-5.626
				c0,0,3.545-2.466,5.395-3.778c1.851-1.308,3.623-2.156,3.623-3.775c0-1.618-0.108-0.546-1.232-1.079
				c-1.651-0.783-0.977-0.078-3.213-0.848c-2.235-0.77-3.364-1.328-4.245-2.625c-0.701-1.034-1.113-1.888-0.872-3.473
				c0.247-1.63,1.557-5.702,1.557-5.702l3.847,0.032c0,0-0.955,3.809-0.63,5.178c0.333,1.397,0.686,1.803,2.197,2.568
				c1.126,0.572,0.987,0.476,3.993,0.63c3.096,0.158,4.14,0.008,5.71,0.557c1.542,0.539,1.946,0.984,2.486,2.755
				C93.988,85.535,92.698,86.69,92.312,87.693L92.312,87.693z M84.841,63.879l0.006,0.069c0,0-1.468,0.126-3.865,0.284l0.139,3.823
				c0,0,0.551,1.56-1.102,2.386c-1.651,0.825-0.323,0.413-1.79,0.505c-1.468,0.092-1.308-0.031-1.878-0.323
				c-1.392-0.709-1.284-2.476-1.284-2.476v-3.581c-3.542,0.166-7.706,0.302-11.915,0.302c-4.375,0-8.828-0.136-12.616-0.297v3.576
				c0,0,0.107,1.767-1.284,2.476c-0.57,0.292-0.41,0.415-1.878,0.323c-1.468-0.092-0.141,0.32-1.791-0.505
				c-1.651-0.825-1.1-2.386-1.1-2.386l0.137-3.781c-2.46-0.142-3.993-0.255-3.993-0.255l0.024-0.107
				c-1.077-0.031-1.941-0.908-1.941-1.991c0-1.103,0.895-1.998,1.998-1.998c0.2,0,0.389,0.037,0.57,0.092l-0.682-9.749l2.219-1.886
				l1.775-10.321c0,0,3.329-2.219,17.975-2.219c14.648,0,18.086,2.331,18.086,2.331l1.775,10.1l2.219,1.775l-0.749,9.94h0.155
				c0.128-0.029,0.255-0.061,0.392-0.061c1.103,0,1.996,0.895,1.996,1.998C86.442,62.889,85.754,63.695,84.841,63.879L84.841,63.879
				z M78.657,40.5c0,0-3.662-2.218-15.757-1.996c-12.094,0.221-16.2,1.775-16.2,1.775l-1.885,9.213l1.827-0.006
				c0.363-0.365,0.759-0.693,1.168-0.882c1.444-0.665,2.331-1.444,3.552-1.554c0.507-0.047,0.785-0.092,1.071-0.121
				c-1.614-0.333-2.828-1.761-2.828-3.473c0-1.958,1.588-3.545,3.545-3.545c1.958,0,3.545,1.588,3.545,3.545
				c0,1.698-1.194,3.112-2.788,3.46c0.141,0.006,0.279,0.013,0.451,0.023c1.886,0.111,2.108,0,3.994,1
				c0.683,0.362,1.396,0.929,2.027,1.504l19.831-0.061L78.657,40.5L78.657,40.5z M45.372,72.113l3.623,0.078
				c0,0-0.787,1.756-0.695,3.159c0.108,1.622,0.371,2.101,1.88,2.867c1.127,0.572,2.56,0.431,5.566,0.586
				c3.096,0.158,3.318-0.226,4.887,0.323c1.541,0.539,2.235,0.693,2.775,2.466c0.539,1.772-0.462,2.928-0.848,3.93
				c-0.386,1.001-2.775,4.316-5.01,6.474c-2.235,2.156-5.319,4.778-5.319,4.778l-6.86-5.626c0,0,3.545-2.466,5.395-3.776
				c1.851-1.31,3.623-2.158,3.623-3.776c0-1.618,0.386-0.231-1.232-1.079c-1.62-0.848-1.773-0.076-4.009-0.848
				c-2.235-0.77-3.364-1.326-4.245-2.625c-0.701-1.034-0.678-1.888-0.438-3.473C44.713,73.943,45.372,72.113,45.372,72.113
				L45.372,72.113z"/>
		</defs>
		<use xlink:href="#SVGID_18_"  overflow="visible" fill-rule="evenodd" clip-rule="evenodd"/>
		<clipPath id="SVGID_19_">
			<use xlink:href="#SVGID_18_"  overflow="visible"/>
		</clipPath>
	</g>
	<linearGradient id="SVGID_20_" gradientUnits="userSpaceOnUse" x1="95.8606" y1="108.8593" x2="35.1399" y2="22.1411">
		<stop  offset="0" style="stop-color:#000000;stop-opacity:0"/>
		<stop  offset="1" style="stop-color:#FFFFFF;stop-opacity:0.25"/>
	</linearGradient>
	<path fill-rule="evenodd" clip-rule="evenodd" fill="url(#SVGID_20_)" d="M71.428,5.264l54.309,54.309
		c3.301,3.301,3.301,8.654,0,11.957l-54.208,54.208c-3.301,3.301-8.654,3.301-11.955,0L5.263,71.427
		c-3.301-3.301-3.301-8.654,0-11.955L59.471,5.264C62.772,1.961,68.126,1.961,71.428,5.264L71.428,5.264z"/>
</g>
</svg>
