<?xml version="1.0" encoding="utf-8"?>
<!-- Generator: Adobe Illustrator 17.0.1, SVG Export Plug-In . SVG Version: 6.00 Build 0)  -->
<!DOCTYPE svg PUBLIC "-//W3C//DTD SVG 1.1//EN" "http://www.w3.org/Graphics/SVG/1.1/DTD/svg11.dtd">
<svg version="1.1" xmlns="http://www.w3.org/2000/svg" xmlns:xlink="http://www.w3.org/1999/xlink" x="0px" y="0px" width="132px"
	 height="132px" viewBox="0 0 132 132" enable-background="new 0 0 132 132" xml:space="preserve">
<g id="disabled">
	<g>
		<defs>
			<path id="SVGID_1_" d="M72.428,6.262l54.309,54.311c3.301,3.301,3.301,8.654,0,11.957l-54.208,54.206
				c-3.301,3.303-8.654,3.303-11.955,0L6.263,72.427c-3.301-3.301-3.301-8.654,0-11.955L60.471,6.262
				C63.772,2.961,69.126,2.961,72.428,6.262L72.428,6.262z"/>
		</defs>
		<defs>
			<path id="SVGID_2_" d="M71.428,5.262l54.309,54.311c3.301,3.301,3.301,8.654,0,11.957l-54.208,54.206
				c-3.301,3.303-8.654,3.303-11.955,0L5.263,71.427c-3.301-3.301-3.301-8.654,0-11.955L59.471,5.262
				C62.772,1.961,68.126,1.961,71.428,5.262L71.428,5.262z"/>
		</defs>
		<linearGradient id="SVGID_3_" gradientUnits="userSpaceOnUse" x1="3.7869" y1="66.5" x2="129.2131" y2="66.5">
			<stop  offset="0" style="stop-color:#000000;stop-opacity:0.6"/>
			<stop  offset="1" style="stop-color:#000000;stop-opacity:0.6"/>
		</linearGradient>
		<use xlink:href="#SVGID_1_"  overflow="visible" fill-rule="evenodd" clip-rule="evenodd" fill="url(#SVGID_3_)"/>
		<use xlink:href="#SVGID_2_"  overflow="visible" fill-rule="evenodd" clip-rule="evenodd" fill="#D1D1D1"/>
		<clipPath id="SVGID_4_">
			<use xlink:href="#SVGID_1_"  overflow="visible"/>
		</clipPath>
		<clipPath id="SVGID_5_" clip-path="url(#SVGID_4_)">
			<use xlink:href="#SVGID_2_"  overflow="visible"/>
		</clipPath>
	</g>
	<g>
		<defs>
			<path id="SVGID_6_" d="M123.159,71.27l-51.888,51.888c-3.161,3.161-8.284,3.161-11.443,0L7.842,71.173
				c-3.161-3.159-3.161-8.284,0-11.445L59.729,7.842c3.161-3.159,8.284-3.159,11.445,0l51.985,51.985
				C126.319,62.988,126.319,68.111,123.159,71.27L123.159,71.27z M122.533,62.849L68.205,8.52c-1.463-1.463-3.838-1.463-5.301,0
				L8.576,62.849c-1.463,1.463-1.463,3.836,0,5.301l54.329,54.327c1.463,1.465,3.838,1.465,5.301,0l54.327-54.327
				C123.998,66.685,123.998,64.312,122.533,62.849L122.533,62.849z"/>
		</defs>
		<use xlink:href="#SVGID_6_"  overflow="visible" fill-rule="evenodd" clip-rule="evenodd"/>
		<clipPath id="SVGID_7_">
			<use xlink:href="#SVGID_6_"  overflow="visible"/>
		</clipPath>
	</g>
	<g>
		<defs>
			<path id="SVGID_8_" d="M65.615,20.127l15.438,19.858c0,0,1.384,1.827,1.026,3.351c-0.271,1.161-1.772,0.985-3.314,0.764
				c-1.544-0.22-7.023-3.267-7.685-2.386c-0.661,0.883-0.391,1.904-0.171,3.006c0.221,1.103,2.647,3.539,3.749,5.414
				c1.103,1.875,4.715,6.709,4.597,10.46c-0.118,3.752-0.958,6.53-3.715,9.399c-2.755,2.868-4.74,5.075-4.74,5.075l-4.962,4.081
				c0,0-1.727,1.741-1.806,3.408c-0.084,1.731,0.375,2.678,1.584,4.204c2.494,3.148,5.183,6.73,6.065,8.386
				c0.882,1.654,1.144,1.985,1.255,4.522c0.11,2.537,0.034,9.378,0.034,9.378l-11.957,0.036c0,0,0.082-7.207-0.027-8.53
				c-0.11-1.324-1.213-2.316-2.316-3.531c-1.102-1.213-6.246-5.359-6.285-14.011c-0.037-8.347,3.639-10.591,4.301-11.253
				c0.661-0.662,5.072-5.185,6.616-6.289c1.542-1.103,3.749-1.874,3.749-4.632c0-2.759-1.103-3.311-2.647-5.406
				c-1.542-2.096-3.087-2.537-4.08-5.408c-0.992-2.867-0.329-5.735-0.329-6.839s0-1.765-0.552-2.096
				c-0.551-0.331-1.189-0.194-1.93,0.536c-0.896,0.883-4.27,2.552-5.372,2.663c-1.103,0.11-2.36,0.178-2.731-0.552
				c-0.586-1.15-0.22-2.799,0.772-4.014C51.172,38.509,65.615,20.127,65.615,20.127L65.615,20.127z"/>
		</defs>
		<use xlink:href="#SVGID_8_"  overflow="visible" fill-rule="evenodd" clip-rule="evenodd"/>
		<clipPath id="SVGID_9_">
			<use xlink:href="#SVGID_8_"  overflow="visible"/>
		</clipPath>
	</g>
	<linearGradient id="SVGID_10_" gradientUnits="userSpaceOnUse" x1="95.8601" y1="108.8589" x2="35.1394" y2="22.1408">
		<stop  offset="0" style="stop-color:#000000;stop-opacity:0"/>
		<stop  offset="1" style="stop-color:#FFFFFF;stop-opacity:0.25"/>
	</linearGradient>
	<path fill-rule="evenodd" clip-rule="evenodd" fill="url(#SVGID_10_)" d="M71.428,5.262l54.309,54.311
		c3.301,3.301,3.301,8.654,0,11.957l-54.208,54.206c-3.301,3.303-8.654,3.303-11.955,0L5.263,71.427
		c-3.301-3.301-3.301-8.654,0-11.955L59.471,5.262C62.772,1.961,68.126,1.961,71.428,5.262L71.428,5.262z"/>
</g>
<g id="normal">
	<g>
		<defs>
			<path id="SVGID_11_" d="M72.428,6.262l54.309,54.311c3.301,3.301,3.301,8.654,0,11.957l-54.208,54.206
				c-3.301,3.303-8.654,3.303-11.955,0L6.263,72.427c-3.301-3.301-3.301-8.654,0-11.955L60.471,6.262
				C63.772,2.961,69.126,2.961,72.428,6.262L72.428,6.262z"/>
		</defs>
		<defs>
			<path id="SVGID_12_" d="M71.428,5.262l54.309,54.311c3.301,3.301,3.301,8.654,0,11.957l-54.208,54.206
				c-3.301,3.303-8.654,3.303-11.955,0L5.263,71.427c-3.301-3.301-3.301-8.654,0-11.955L59.471,5.262
				C62.772,1.961,68.126,1.961,71.428,5.262L71.428,5.262z"/>
		</defs>
		<linearGradient id="SVGID_13_" gradientUnits="userSpaceOnUse" x1="3.7869" y1="66.5" x2="129.2131" y2="66.5">
			<stop  offset="0" style="stop-color:#000000;stop-opacity:0.6"/>
			<stop  offset="1" style="stop-color:#000000;stop-opacity:0.6"/>
		</linearGradient>
		<use xlink:href="#SVGID_11_"  overflow="visible" fill-rule="evenodd" clip-rule="evenodd" fill="url(#SVGID_13_)"/>
		<use xlink:href="#SVGID_12_"  overflow="visible" fill-rule="evenodd" clip-rule="evenodd" fill="#FFDF0A"/>
		<clipPath id="SVGID_14_">
			<use xlink:href="#SVGID_11_"  overflow="visible"/>
		</clipPath>
		<clipPath id="SVGID_15_" clip-path="url(#SVGID_14_)">
			<use xlink:href="#SVGID_12_"  overflow="visible"/>
		</clipPath>
	</g>
	<g>
		<defs>
			<path id="SVGID_16_" d="M123.159,71.27l-51.888,51.888c-3.161,3.161-8.284,3.161-11.443,0L7.842,71.173
				c-3.161-3.159-3.161-8.284,0-11.445L59.729,7.842c3.161-3.159,8.284-3.159,11.445,0l51.985,51.985
				C126.319,62.988,126.319,68.111,123.159,71.27L123.159,71.27z M122.533,62.849L68.205,8.52c-1.463-1.463-3.838-1.463-5.301,0
				L8.576,62.849c-1.463,1.463-1.463,3.836,0,5.301l54.329,54.327c1.463,1.465,3.838,1.465,5.301,0l54.327-54.327
				C123.998,66.685,123.998,64.312,122.533,62.849L122.533,62.849z"/>
		</defs>
		<use xlink:href="#SVGID_16_"  overflow="visible" fill-rule="evenodd" clip-rule="evenodd"/>
		<clipPath id="SVGID_17_">
			<use xlink:href="#SVGID_16_"  overflow="visible"/>
		</clipPath>
	</g>
	<g>
		<defs>
			<path id="SVGID_18_" d="M65.615,20.127l15.438,19.858c0,0,1.384,1.827,1.026,3.351c-0.271,1.161-1.772,0.985-3.314,0.764
				c-1.544-0.22-7.023-3.267-7.685-2.386c-0.661,0.883-0.391,1.904-0.171,3.006c0.221,1.103,2.647,3.539,3.749,5.414
				c1.103,1.875,4.715,6.709,4.597,10.46c-0.118,3.752-0.958,6.53-3.715,9.399c-2.755,2.868-4.74,5.075-4.74,5.075l-4.962,4.081
				c0,0-1.727,1.741-1.806,3.408c-0.084,1.731,0.375,2.678,1.584,4.204c2.494,3.148,5.183,6.73,6.065,8.386
				c0.882,1.654,1.144,1.985,1.255,4.522c0.11,2.537,0.034,9.378,0.034,9.378l-11.957,0.036c0,0,0.082-7.207-0.027-8.53
				c-0.11-1.324-1.213-2.316-2.316-3.531c-1.102-1.213-6.246-5.359-6.285-14.011c-0.037-8.347,3.639-10.591,4.301-11.253
				c0.661-0.662,5.072-5.185,6.616-6.289c1.542-1.103,3.749-1.874,3.749-4.632c0-2.759-1.103-3.311-2.647-5.406
				c-1.542-2.096-3.087-2.537-4.08-5.408c-0.992-2.867-0.329-5.735-0.329-6.839s0-1.765-0.552-2.096
				c-0.551-0.331-1.189-0.194-1.93,0.536c-0.896,0.883-4.27,2.552-5.372,2.663c-1.103,0.11-2.36,0.178-2.731-0.552
				c-0.586-1.15-0.22-2.799,0.772-4.014C51.172,38.509,65.615,20.127,65.615,20.127L65.615,20.127z"/>
		</defs>
		<use xlink:href="#SVGID_18_"  overflow="visible" fill-rule="evenodd" clip-rule="evenodd"/>
		<clipPath id="SVGID_19_">
			<use xlink:href="#SVGID_18_"  overflow="visible"/>
		</clipPath>
	</g>
	<linearGradient id="SVGID_20_" gradientUnits="userSpaceOnUse" x1="95.8601" y1="108.8589" x2="35.1394" y2="22.1408">
		<stop  offset="0" style="stop-color:#000000;stop-opacity:0"/>
		<stop  offset="1" style="stop-color:#FFFFFF;stop-opacity:0.25"/>
	</linearGradient>
	<path fill-rule="evenodd" clip-rule="evenodd" fill="url(#SVGID_20_)" d="M71.428,5.262l54.309,54.311
		c3.301,3.301,3.301,8.654,0,11.957l-54.208,54.206c-3.301,3.303-8.654,3.303-11.955,0L5.263,71.427
		c-3.301-3.301-3.301-8.654,0-11.955L59.471,5.262C62.772,1.961,68.126,1.961,71.428,5.262L71.428,5.262z"/>
</g>
</svg>
