<?xml version="1.0" encoding="utf-8"?>
<!-- Generator: Adobe Illustrator 17.0.1, SVG Export Plug-In . SVG Version: 6.00 Build 0)  -->
<!DOCTYPE svg PUBLIC "-//W3C//DTD SVG 1.1//EN" "http://www.w3.org/Graphics/SVG/1.1/DTD/svg11.dtd">
<svg version="1.1" xmlns="http://www.w3.org/2000/svg" xmlns:xlink="http://www.w3.org/1999/xlink" x="0px" y="0px" width="132px"
	 height="132px" viewBox="0 0 132 132" enable-background="new 0 0 132 132" xml:space="preserve">
<g id="disabled">
	<g>
		<defs>
			<path id="SVGID_1_" d="M72.428,6.262l54.309,54.311c3.301,3.301,3.301,8.656,0,11.955l-54.208,54.209
				c-3.301,3.3-8.654,3.3-11.955,0L6.263,72.427c-3.301-3.301-3.301-8.654,0-11.955L60.471,6.262
				C63.772,2.962,69.126,2.962,72.428,6.262L72.428,6.262z"/>
		</defs>
		<defs>
			<path id="SVGID_2_" d="M71.428,5.262l54.309,54.311c3.301,3.301,3.301,8.656,0,11.955l-54.208,54.209
				c-3.301,3.3-8.654,3.3-11.955,0L5.263,71.427c-3.301-3.301-3.301-8.654,0-11.955L59.471,5.262
				C62.772,1.962,68.126,1.962,71.428,5.262L71.428,5.262z"/>
		</defs>
		<linearGradient id="SVGID_3_" gradientUnits="userSpaceOnUse" x1="3.7869" y1="66.5" x2="129.2131" y2="66.5">
			<stop  offset="0" style="stop-color:#000000;stop-opacity:0.6"/>
			<stop  offset="1" style="stop-color:#000000;stop-opacity:0.6"/>
		</linearGradient>
		<use xlink:href="#SVGID_1_"  overflow="visible" fill-rule="evenodd" clip-rule="evenodd" fill="url(#SVGID_3_)"/>
		<use xlink:href="#SVGID_2_"  overflow="visible" fill-rule="evenodd" clip-rule="evenodd" fill="#D1D1D1"/>
		<clipPath id="SVGID_4_">
			<use xlink:href="#SVGID_1_"  overflow="visible"/>
		</clipPath>
		<clipPath id="SVGID_5_" clip-path="url(#SVGID_4_)">
			<use xlink:href="#SVGID_2_"  overflow="visible"/>
		</clipPath>
	</g>
	<g>
		<defs>
			<path id="SVGID_6_" d="M123.159,71.27l-51.888,51.888c-3.161,3.161-8.284,3.161-11.443,0L7.842,71.173
				c-3.161-3.159-3.161-8.284,0-11.443L59.729,7.842c3.161-3.161,8.284-3.161,11.445,0l51.985,51.985
				C126.319,62.988,126.319,68.111,123.159,71.27L123.159,71.27z M122.533,62.849L68.205,8.522c-1.463-1.465-3.838-1.465-5.301,0
				L8.576,62.849c-1.463,1.463-1.463,3.838,0,5.301l54.329,54.327c1.463,1.465,3.838,1.465,5.301,0l54.327-54.327
				C123.998,66.686,123.998,64.312,122.533,62.849L122.533,62.849z"/>
		</defs>
		<use xlink:href="#SVGID_6_"  overflow="visible" fill-rule="evenodd" clip-rule="evenodd"/>
		<clipPath id="SVGID_7_">
			<use xlink:href="#SVGID_6_"  overflow="visible"/>
		</clipPath>
	</g>
	<g>
		<defs>
			<path id="SVGID_8_" d="M31.32,57.832v22.071h-2.999V57.832h-4.409v-4.493H35.72v4.493H31.32L31.32,57.832z M49.24,74.05
				c-0.163,1.316-0.462,2.428-0.898,3.334c-0.436,0.906-1.018,1.628-1.748,2.166c-0.73,0.538-1.683,0.806-2.859,0.806
				c-1.418,0-2.495-0.292-3.227-0.879c-0.733-0.586-1.313-1.347-1.74-2.282c-0.425-0.937-0.706-1.919-0.84-2.946
				c-0.197-1.521-0.294-3.768-0.294-6.74v-14.17h2.999v14.388c0,2.282,0.037,3.763,0.111,4.438c0.128,1.087,0.434,1.961,0.917,2.618
				c0.483,0.659,1.144,0.988,1.982,0.988c0.851,0,1.492-0.312,1.925-0.934c0.433-0.622,0.693-1.386,0.78-2.292
				c0.087-0.906,0.132-2.41,0.132-4.513V53.339h2.999V67.29C49.483,70.48,49.402,72.733,49.24,74.05L49.24,74.05z M61.452,79.903
				l-5.991-17.324v17.324h-2.786V53.339h2.919l6.081,17.739V53.339h2.788v26.564H61.452L61.452,79.903z M76.443,79.903
				l-5.991-17.324v17.324h-2.786V53.339h2.919l6.081,17.739V53.339h2.788v26.564H76.443L76.443,79.903z M93.927,75.428v4.476H82.625
				V53.339h11.017v4.493h-8.018v5.889h7.46v4.476h-7.46v7.231H93.927L93.927,75.428z M96.551,79.903V53.555h2.999v21.872h7.46v4.476
				H96.551L96.551,79.903z"/>
		</defs>
		<use xlink:href="#SVGID_8_"  overflow="visible" fill-rule="evenodd" clip-rule="evenodd"/>
		<clipPath id="SVGID_9_">
			<use xlink:href="#SVGID_8_"  overflow="visible"/>
		</clipPath>
	</g>
	<linearGradient id="SVGID_10_" gradientUnits="userSpaceOnUse" x1="95.8604" y1="108.8592" x2="35.1396" y2="22.1409">
		<stop  offset="0" style="stop-color:#000000;stop-opacity:0"/>
		<stop  offset="1" style="stop-color:#FFFFFF;stop-opacity:0.25"/>
	</linearGradient>
	<path fill-rule="evenodd" clip-rule="evenodd" fill="url(#SVGID_10_)" d="M71.428,5.262l54.309,54.311
		c3.301,3.301,3.301,8.656,0,11.955l-54.208,54.209c-3.301,3.3-8.654,3.3-11.955,0L5.263,71.427c-3.301-3.301-3.301-8.654,0-11.955
		L59.471,5.262C62.772,1.962,68.126,1.962,71.428,5.262L71.428,5.262z"/>
</g>
<g id="normal">
	<g>
		<defs>
			<path id="SVGID_11_" d="M72.428,6.262l54.309,54.311c3.301,3.301,3.301,8.656,0,11.955l-54.208,54.209
				c-3.301,3.3-8.654,3.3-11.955,0L6.263,72.427c-3.301-3.301-3.301-8.654,0-11.955L60.471,6.262
				C63.772,2.962,69.126,2.962,72.428,6.262L72.428,6.262z"/>
		</defs>
		<defs>
			<path id="SVGID_12_" d="M71.428,5.262l54.309,54.311c3.301,3.301,3.301,8.656,0,11.955l-54.208,54.209
				c-3.301,3.3-8.654,3.3-11.955,0L5.263,71.427c-3.301-3.301-3.301-8.654,0-11.955L59.471,5.262
				C62.772,1.962,68.126,1.962,71.428,5.262L71.428,5.262z"/>
		</defs>
		<linearGradient id="SVGID_13_" gradientUnits="userSpaceOnUse" x1="3.7869" y1="66.5" x2="129.2131" y2="66.5">
			<stop  offset="0" style="stop-color:#000000;stop-opacity:0.6"/>
			<stop  offset="1" style="stop-color:#000000;stop-opacity:0.6"/>
		</linearGradient>
		<use xlink:href="#SVGID_11_"  overflow="visible" fill-rule="evenodd" clip-rule="evenodd" fill="url(#SVGID_13_)"/>
		<use xlink:href="#SVGID_12_"  overflow="visible" fill-rule="evenodd" clip-rule="evenodd" fill="#FFDF0A"/>
		<clipPath id="SVGID_14_">
			<use xlink:href="#SVGID_11_"  overflow="visible"/>
		</clipPath>
		<clipPath id="SVGID_15_" clip-path="url(#SVGID_14_)">
			<use xlink:href="#SVGID_12_"  overflow="visible"/>
		</clipPath>
	</g>
	<g>
		<defs>
			<path id="SVGID_16_" d="M123.159,71.27l-51.888,51.888c-3.161,3.161-8.284,3.161-11.443,0L7.842,71.173
				c-3.161-3.159-3.161-8.284,0-11.443L59.729,7.842c3.161-3.161,8.284-3.161,11.445,0l51.985,51.985
				C126.319,62.988,126.319,68.111,123.159,71.27L123.159,71.27z M122.533,62.849L68.205,8.522c-1.463-1.465-3.838-1.465-5.301,0
				L8.576,62.849c-1.463,1.463-1.463,3.838,0,5.301l54.329,54.327c1.463,1.465,3.838,1.465,5.301,0l54.327-54.327
				C123.998,66.686,123.998,64.312,122.533,62.849L122.533,62.849z"/>
		</defs>
		<use xlink:href="#SVGID_16_"  overflow="visible" fill-rule="evenodd" clip-rule="evenodd"/>
		<clipPath id="SVGID_17_">
			<use xlink:href="#SVGID_16_"  overflow="visible"/>
		</clipPath>
	</g>
	<g>
		<defs>
			<path id="SVGID_18_" d="M31.32,57.832v22.071h-2.999V57.832h-4.409v-4.493H35.72v4.493H31.32L31.32,57.832z M49.24,74.05
				c-0.163,1.316-0.462,2.428-0.898,3.334c-0.436,0.906-1.018,1.628-1.748,2.166c-0.73,0.538-1.683,0.806-2.859,0.806
				c-1.418,0-2.495-0.292-3.227-0.879c-0.733-0.586-1.313-1.347-1.74-2.282c-0.425-0.937-0.706-1.919-0.84-2.946
				c-0.197-1.521-0.294-3.768-0.294-6.74v-14.17h2.999v14.388c0,2.282,0.037,3.763,0.111,4.438c0.128,1.087,0.434,1.961,0.917,2.618
				c0.483,0.659,1.144,0.988,1.982,0.988c0.851,0,1.492-0.312,1.925-0.934c0.433-0.622,0.693-1.386,0.78-2.292
				c0.087-0.906,0.132-2.41,0.132-4.513V53.339h2.999V67.29C49.483,70.48,49.402,72.733,49.24,74.05L49.24,74.05z M61.452,79.903
				l-5.991-17.324v17.324h-2.786V53.339h2.919l6.081,17.739V53.339h2.788v26.564H61.452L61.452,79.903z M76.443,79.903
				l-5.991-17.324v17.324h-2.786V53.339h2.919l6.081,17.739V53.339h2.788v26.564H76.443L76.443,79.903z M93.927,75.428v4.476H82.625
				V53.339h11.017v4.493h-8.018v5.889h7.46v4.476h-7.46v7.231H93.927L93.927,75.428z M96.551,79.903V53.555h2.999v21.872h7.46v4.476
				H96.551L96.551,79.903z"/>
		</defs>
		<use xlink:href="#SVGID_18_"  overflow="visible" fill-rule="evenodd" clip-rule="evenodd"/>
		<clipPath id="SVGID_19_">
			<use xlink:href="#SVGID_18_"  overflow="visible"/>
		</clipPath>
	</g>
	<linearGradient id="SVGID_20_" gradientUnits="userSpaceOnUse" x1="95.8604" y1="108.8592" x2="35.1396" y2="22.1409">
		<stop  offset="0" style="stop-color:#000000;stop-opacity:0"/>
		<stop  offset="1" style="stop-color:#FFFFFF;stop-opacity:0.25"/>
	</linearGradient>
	<path fill-rule="evenodd" clip-rule="evenodd" fill="url(#SVGID_20_)" d="M71.428,5.262l54.309,54.311
		c3.301,3.301,3.301,8.656,0,11.955l-54.208,54.209c-3.301,3.3-8.654,3.3-11.955,0L5.263,71.427c-3.301-3.301-3.301-8.654,0-11.955
		L59.471,5.262C62.772,1.962,68.126,1.962,71.428,5.262L71.428,5.262z"/>
</g>
</svg>
