<?xml version="1.0" encoding="utf-8"?>
<!-- Generator: Adobe Illustrator 17.0.1, SVG Export Plug-In . SVG Version: 6.00 Build 0)  -->
<!DOCTYPE svg PUBLIC "-//W3C//DTD SVG 1.1//EN" "http://www.w3.org/Graphics/SVG/1.1/DTD/svg11.dtd">
<svg version="1.1" xmlns="http://www.w3.org/2000/svg" xmlns:xlink="http://www.w3.org/1999/xlink" x="0px" y="0px" width="132px"
	 height="132px" viewBox="0 0 132 132" enable-background="new 0 0 132 132" xml:space="preserve">
<g id="disabled">
	<g>
		<defs>
			<path id="SVGID_1_" d="M72.428,6.263l54.309,54.311c3.301,3.301,3.301,8.654,0,11.955l-54.208,54.209
				c-3.301,3.3-8.654,3.3-11.955,0L6.263,72.427c-3.301-3.301-3.301-8.654,0-11.955L60.471,6.263
				C63.772,2.961,69.126,2.961,72.428,6.263L72.428,6.263z"/>
		</defs>
		<defs>
			<path id="SVGID_2_" d="M71.428,5.263l54.309,54.311c3.301,3.301,3.301,8.654,0,11.955l-54.208,54.209
				c-3.301,3.3-8.654,3.3-11.955,0L5.263,71.427c-3.301-3.301-3.301-8.654,0-11.955L59.471,5.263
				C62.772,1.961,68.126,1.961,71.428,5.263L71.428,5.263z"/>
		</defs>
		<linearGradient id="SVGID_3_" gradientUnits="userSpaceOnUse" x1="3.7869" y1="66.5" x2="129.2131" y2="66.5">
			<stop  offset="0" style="stop-color:#000000;stop-opacity:0.6"/>
			<stop  offset="1" style="stop-color:#000000;stop-opacity:0.6"/>
		</linearGradient>
		<use xlink:href="#SVGID_1_"  overflow="visible" fill-rule="evenodd" clip-rule="evenodd" fill="url(#SVGID_3_)"/>
		<use xlink:href="#SVGID_2_"  overflow="visible" fill-rule="evenodd" clip-rule="evenodd" fill="#D1D1D1"/>
		<clipPath id="SVGID_4_">
			<use xlink:href="#SVGID_1_"  overflow="visible"/>
		</clipPath>
		<clipPath id="SVGID_5_" clip-path="url(#SVGID_4_)">
			<use xlink:href="#SVGID_2_"  overflow="visible"/>
		</clipPath>
	</g>
	<g>
		<defs>
			<path id="SVGID_6_" d="M123.159,71.271l-51.888,51.888c-3.161,3.161-8.284,3.161-11.443,0L7.842,71.174
				c-3.161-3.161-3.161-8.284,0-11.445L59.729,7.842c3.161-3.161,8.284-3.161,11.445,0l51.985,51.985
				C126.319,62.988,126.319,68.112,123.159,71.271L123.159,71.271z M122.533,62.849L68.205,8.52c-1.463-1.463-3.838-1.463-5.301,0
				L8.576,62.849c-1.463,1.463-1.463,3.836,0,5.299l54.329,54.329c1.463,1.465,3.838,1.465,5.301,0l54.327-54.329
				C123.998,66.685,123.998,64.313,122.533,62.849L122.533,62.849z"/>
		</defs>
		<use xlink:href="#SVGID_6_"  overflow="visible" fill-rule="evenodd" clip-rule="evenodd"/>
		<clipPath id="SVGID_7_">
			<use xlink:href="#SVGID_6_"  overflow="visible"/>
		</clipPath>
	</g>
	<g>
		<defs>
			<path id="SVGID_8_" d="M94.854,66.118v4.807l2.507,5.441l-2.87,2.704c0,0-1.253-2.416-3.075-3.082
				c-0.338-0.123-6.325-0.099-6.325-0.099l-0.016-13.688h0.008v-0.226h29.854v4.143H94.854L94.854,66.118z M89.03,77.376
				c2.899,0,3.928,5.706,5.517,5.613c1.589-0.092,3.18-5.706,5.892-5.894c2.148-0.149,4.77,4.396,4.77,4.396l-2.524,2.153
				c0,0,0.279-1.03-1.591-1.03c-1.964,0-3.366,5.802-6.079,5.802c-2.712,0-4.114-5.427-6.078-5.519
				c-1.964-0.095-3.555,5.892-5.892,5.798c-2.339-0.092-4.022-5.987-5.892-5.894c-1.87,0.095-3.461,5.987-5.706,5.987
				c-2.243,0-3.834-5.987-5.984-5.987c-2.151,0-3.555,6.175-5.986,6.175c-2.432,0-3.555-5.894-5.986-5.987
				c-2.432-0.092-2.993,5.8-5.706,5.706c-2.712-0.092-3.366-5.894-5.984-5.798c-2.62,0.092-3.087,5.798-5.8,5.798
				c-2.712,0-4.301-6.173-5.798-6.173c-1.496,0-1.589,0.935-1.589,0.935l-2.618-2.901c0,0,2.15-3.274,3.834-3.18
				c1.683,0.094,2.524,1.029,3.272,1.964c0.749,0.937,0.935,3.742,2.714,3.649c1.777-0.092,3.741-5.8,5.892-5.613
				c2.15,0.187,4.114,5.425,5.892,5.521c1.777,0.092,3.46-5.802,5.892-5.708c2.431,0.094,4.115,5.8,5.986,5.8
				c1.87,0,3.741-5.987,5.892-5.894c2.15,0.094,3.647,5.894,5.892,5.894c2.243,0,3.272-5.987,5.611-5.894
				c2.339,0.094,4.115,5.894,6.079,5.894C84.914,82.989,86.962,77.376,89.03,77.376L89.03,77.376z M47.504,62.781l-0.567,0.174
				L46.671,75.89c0,0-5.829-0.024-6.168,0.099c-1.82,0.665-3.075,3.082-3.075,3.082l-2.869-2.704l2.507-5.441v-4.807H17.192v-4.143
				h28.47l0.906-1.814l-5.425-14.874l26.468-16.185l13.375,13.285L47.971,61.005L47.504,62.781L47.504,62.781z M69.947,45.173
				l6.223-3.744l-6.314-6.621L69.947,45.173L69.947,45.173z M66.937,33.003l-8.284,5.081l8.303,5.713L66.937,33.003L66.937,33.003z
				 M66.679,47.097l-9.565-6.511l-0.142,12.169L66.679,47.097L66.679,47.097z M54.173,40.542l-7.746,4.726l7.627,5.987
				L54.173,40.542L54.173,40.542z M53.302,54.362L45,48.003l3.393,9.407L53.302,54.362L53.302,54.362z"/>
		</defs>
		<use xlink:href="#SVGID_8_"  overflow="visible" fill-rule="evenodd" clip-rule="evenodd"/>
		<clipPath id="SVGID_9_">
			<use xlink:href="#SVGID_8_"  overflow="visible"/>
		</clipPath>
	</g>
	<linearGradient id="SVGID_10_" gradientUnits="userSpaceOnUse" x1="95.8604" y1="108.8597" x2="35.1394" y2="22.1412">
		<stop  offset="0" style="stop-color:#000000;stop-opacity:0"/>
		<stop  offset="1" style="stop-color:#FFFFFF;stop-opacity:0.25"/>
	</linearGradient>
	<path fill-rule="evenodd" clip-rule="evenodd" fill="url(#SVGID_10_)" d="M71.428,5.263l54.309,54.311
		c3.301,3.301,3.301,8.654,0,11.955l-54.208,54.209c-3.301,3.3-8.654,3.3-11.955,0L5.263,71.427c-3.301-3.301-3.301-8.654,0-11.955
		L59.471,5.263C62.772,1.961,68.126,1.961,71.428,5.263L71.428,5.263z"/>
</g>
<g id="normal">
	<g>
		<defs>
			<path id="SVGID_11_" d="M72.428,6.263l54.309,54.311c3.301,3.301,3.301,8.654,0,11.955l-54.208,54.209
				c-3.301,3.3-8.654,3.3-11.955,0L6.263,72.427c-3.301-3.301-3.301-8.654,0-11.955L60.471,6.263
				C63.772,2.961,69.126,2.961,72.428,6.263L72.428,6.263z"/>
		</defs>
		<defs>
			<path id="SVGID_12_" d="M71.428,5.263l54.309,54.311c3.301,3.301,3.301,8.654,0,11.955l-54.208,54.209
				c-3.301,3.3-8.654,3.3-11.955,0L5.263,71.427c-3.301-3.301-3.301-8.654,0-11.955L59.471,5.263
				C62.772,1.961,68.126,1.961,71.428,5.263L71.428,5.263z"/>
		</defs>
		<linearGradient id="SVGID_13_" gradientUnits="userSpaceOnUse" x1="3.7869" y1="66.5" x2="129.2131" y2="66.5">
			<stop  offset="0" style="stop-color:#000000;stop-opacity:0.6"/>
			<stop  offset="1" style="stop-color:#000000;stop-opacity:0.6"/>
		</linearGradient>
		<use xlink:href="#SVGID_11_"  overflow="visible" fill-rule="evenodd" clip-rule="evenodd" fill="url(#SVGID_13_)"/>
		<use xlink:href="#SVGID_12_"  overflow="visible" fill-rule="evenodd" clip-rule="evenodd" fill="#FFDF0A"/>
		<clipPath id="SVGID_14_">
			<use xlink:href="#SVGID_11_"  overflow="visible"/>
		</clipPath>
		<clipPath id="SVGID_15_" clip-path="url(#SVGID_14_)">
			<use xlink:href="#SVGID_12_"  overflow="visible"/>
		</clipPath>
	</g>
	<g>
		<defs>
			<path id="SVGID_16_" d="M123.159,71.271l-51.888,51.888c-3.161,3.161-8.284,3.161-11.443,0L7.842,71.174
				c-3.161-3.161-3.161-8.284,0-11.445L59.729,7.842c3.161-3.161,8.284-3.161,11.445,0l51.985,51.985
				C126.319,62.988,126.319,68.112,123.159,71.271L123.159,71.271z M122.533,62.849L68.205,8.52c-1.463-1.463-3.838-1.463-5.301,0
				L8.576,62.849c-1.463,1.463-1.463,3.836,0,5.299l54.329,54.329c1.463,1.465,3.838,1.465,5.301,0l54.327-54.329
				C123.998,66.685,123.998,64.313,122.533,62.849L122.533,62.849z"/>
		</defs>
		<use xlink:href="#SVGID_16_"  overflow="visible" fill-rule="evenodd" clip-rule="evenodd"/>
		<clipPath id="SVGID_17_">
			<use xlink:href="#SVGID_16_"  overflow="visible"/>
		</clipPath>
	</g>
	<g>
		<defs>
			<path id="SVGID_18_" d="M94.854,66.118v4.807l2.507,5.441l-2.87,2.704c0,0-1.253-2.416-3.075-3.082
				c-0.338-0.123-6.325-0.099-6.325-0.099l-0.016-13.688h0.008v-0.226h29.854v4.143H94.854L94.854,66.118z M89.03,77.376
				c2.899,0,3.928,5.706,5.517,5.613c1.589-0.092,3.18-5.706,5.892-5.894c2.148-0.149,4.77,4.396,4.77,4.396l-2.524,2.153
				c0,0,0.279-1.03-1.591-1.03c-1.964,0-3.366,5.802-6.079,5.802c-2.712,0-4.114-5.427-6.078-5.519
				c-1.964-0.095-3.555,5.892-5.892,5.798c-2.339-0.092-4.022-5.987-5.892-5.894c-1.87,0.095-3.461,5.987-5.706,5.987
				c-2.243,0-3.834-5.987-5.984-5.987c-2.151,0-3.555,6.175-5.986,6.175c-2.432,0-3.555-5.894-5.986-5.987
				c-2.432-0.092-2.993,5.8-5.706,5.706c-2.712-0.092-3.366-5.894-5.984-5.798c-2.62,0.092-3.087,5.798-5.8,5.798
				c-2.712,0-4.301-6.173-5.798-6.173c-1.496,0-1.589,0.935-1.589,0.935l-2.618-2.901c0,0,2.15-3.274,3.834-3.18
				c1.683,0.094,2.524,1.029,3.272,1.964c0.749,0.937,0.935,3.742,2.714,3.649c1.777-0.092,3.741-5.8,5.892-5.613
				c2.15,0.187,4.114,5.425,5.892,5.521c1.777,0.092,3.46-5.802,5.892-5.708c2.431,0.094,4.115,5.8,5.986,5.8
				c1.87,0,3.741-5.987,5.892-5.894c2.15,0.094,3.647,5.894,5.892,5.894c2.243,0,3.272-5.987,5.611-5.894
				c2.339,0.094,4.115,5.894,6.079,5.894C84.914,82.989,86.962,77.376,89.03,77.376L89.03,77.376z M47.504,62.781l-0.567,0.174
				L46.671,75.89c0,0-5.829-0.024-6.168,0.099c-1.82,0.665-3.075,3.082-3.075,3.082l-2.869-2.704l2.507-5.441v-4.807H17.192v-4.143
				h28.47l0.906-1.814l-5.425-14.874l26.468-16.185l13.375,13.285L47.971,61.005L47.504,62.781L47.504,62.781z M69.947,45.173
				l6.223-3.744l-6.314-6.621L69.947,45.173L69.947,45.173z M66.937,33.003l-8.284,5.081l8.303,5.713L66.937,33.003L66.937,33.003z
				 M66.679,47.097l-9.565-6.511l-0.142,12.169L66.679,47.097L66.679,47.097z M54.173,40.542l-7.746,4.726l7.627,5.987
				L54.173,40.542L54.173,40.542z M53.302,54.362L45,48.003l3.393,9.407L53.302,54.362L53.302,54.362z"/>
		</defs>
		<use xlink:href="#SVGID_18_"  overflow="visible" fill-rule="evenodd" clip-rule="evenodd"/>
		<clipPath id="SVGID_19_">
			<use xlink:href="#SVGID_18_"  overflow="visible"/>
		</clipPath>
	</g>
	<linearGradient id="SVGID_20_" gradientUnits="userSpaceOnUse" x1="95.8604" y1="108.8597" x2="35.1394" y2="22.1412">
		<stop  offset="0" style="stop-color:#000000;stop-opacity:0"/>
		<stop  offset="1" style="stop-color:#FFFFFF;stop-opacity:0.25"/>
	</linearGradient>
	<path fill-rule="evenodd" clip-rule="evenodd" fill="url(#SVGID_20_)" d="M71.428,5.263l54.309,54.311
		c3.301,3.301,3.301,8.654,0,11.955l-54.208,54.209c-3.301,3.3-8.654,3.3-11.955,0L5.263,71.427c-3.301-3.301-3.301-8.654,0-11.955
		L59.471,5.263C62.772,1.961,68.126,1.961,71.428,5.263L71.428,5.263z"/>
</g>
</svg>
