<?xml version="1.0" encoding="utf-8"?>
<!-- Generator: Adobe Illustrator 17.0.1, SVG Export Plug-In . SVG Version: 6.00 Build 0)  -->
<!DOCTYPE svg PUBLIC "-//W3C//DTD SVG 1.1//EN" "http://www.w3.org/Graphics/SVG/1.1/DTD/svg11.dtd">
<svg version="1.1" xmlns="http://www.w3.org/2000/svg" xmlns:xlink="http://www.w3.org/1999/xlink" x="0px" y="0px" width="132px"
	 height="132px" viewBox="0 0 132 132" enable-background="new 0 0 132 132" xml:space="preserve">
<g id="disabled">
	<g>
		<defs>
			<path id="SVGID_1_" d="M72.428,6.262l54.309,54.311c3.301,3.301,3.301,8.656,0,11.955l-54.208,54.209
				c-3.301,3.301-8.654,3.301-11.955,0L6.263,72.426c-3.301-3.301-3.301-8.654,0-11.955L60.471,6.262
				C63.772,2.962,69.126,2.962,72.428,6.262L72.428,6.262z"/>
		</defs>
		<defs>
			<path id="SVGID_2_" d="M71.428,5.262l54.309,54.311c3.301,3.301,3.301,8.656,0,11.955l-54.208,54.209
				c-3.301,3.301-8.654,3.301-11.955,0L5.263,71.426c-3.301-3.301-3.301-8.654,0-11.955L59.471,5.262
				C62.772,1.962,68.126,1.962,71.428,5.262L71.428,5.262z"/>
		</defs>
		<linearGradient id="SVGID_3_" gradientUnits="userSpaceOnUse" x1="3.7869" y1="66.5" x2="129.2131" y2="66.5">
			<stop  offset="0" style="stop-color:#000000;stop-opacity:0.6"/>
			<stop  offset="1" style="stop-color:#000000;stop-opacity:0.6"/>
		</linearGradient>
		<use xlink:href="#SVGID_1_"  overflow="visible" fill-rule="evenodd" clip-rule="evenodd" fill="url(#SVGID_3_)"/>
		<use xlink:href="#SVGID_2_"  overflow="visible" fill-rule="evenodd" clip-rule="evenodd" fill="#D1D1D1"/>
		<clipPath id="SVGID_4_">
			<use xlink:href="#SVGID_1_"  overflow="visible"/>
		</clipPath>
		<clipPath id="SVGID_5_" clip-path="url(#SVGID_4_)">
			<use xlink:href="#SVGID_2_"  overflow="visible"/>
		</clipPath>
	</g>
	<g>
		<defs>
			<path id="SVGID_6_" d="M123.159,71.27l-51.888,51.888c-3.161,3.161-8.284,3.161-11.443,0L7.842,71.173
				c-3.161-3.159-3.161-8.284,0-11.443L59.729,7.841c3.161-3.161,8.284-3.161,11.445,0l51.985,51.987
				C126.319,62.987,126.319,68.11,123.159,71.27L123.159,71.27z M122.533,62.848L68.205,8.521c-1.463-1.465-3.838-1.465-5.301,0
				L8.576,62.848c-1.463,1.463-1.463,3.838,0,5.301l54.329,54.327c1.463,1.463,3.838,1.463,5.301,0l54.327-54.327
				C123.998,66.686,123.998,64.311,122.533,62.848L122.533,62.848z"/>
		</defs>
		<use xlink:href="#SVGID_6_"  overflow="visible" fill-rule="evenodd" clip-rule="evenodd"/>
		<clipPath id="SVGID_7_">
			<use xlink:href="#SVGID_6_"  overflow="visible"/>
		</clipPath>
	</g>
	<g>
		<defs>
			<polygon id="SVGID_8_" points="41.672,91.052 87.684,91.052 85.644,94.061 44.101,94.061 41.672,91.052 			"/>
		</defs>
		<use xlink:href="#SVGID_8_"  overflow="visible" fill-rule="evenodd" clip-rule="evenodd"/>
		<clipPath id="SVGID_9_">
			<use xlink:href="#SVGID_8_"  overflow="visible"/>
		</clipPath>
	</g>
	<g>
		<defs>
			<path id="SVGID_10_" d="M74.588,47.307h-2.612c0,0,3.54,8.09,3.54,9.019c0,0.925-0.254,2.105-0.254,2.105l-1.097,1.686
				l8.599,25.369l-3.71,3.369l-10.452-20.73l-4.214,4.718l-3.794,15.003l-5.648-0.086l3.54-18.288l6.154-11.124l-3.456-6.743
				l-2.444,3.54l-9.862,3.708l-2.276-2.783l9.187-6.404c0,0,2.613-7.838,3.456-9.353c0.843-1.518,1.349-2.193,2.276-2.529
				c0.927-0.338,2.108-0.254,3.794,0.252c1.685,0.506,14.498,5.9,14.498,5.9l0.17,14.834L76.612,57L74.588,47.307L74.588,47.307z
				 M59.585,38.204c-2.513,0-4.551-2.037-4.551-4.55c0-2.513,2.038-4.551,4.551-4.551s4.55,2.038,4.55,4.551
				C64.135,36.167,62.099,38.204,59.585,38.204L59.585,38.204z"/>
		</defs>
		<use xlink:href="#SVGID_10_"  overflow="visible" fill-rule="evenodd" clip-rule="evenodd"/>
		<clipPath id="SVGID_11_">
			<use xlink:href="#SVGID_10_"  overflow="visible"/>
		</clipPath>
	</g>
	<linearGradient id="SVGID_12_" gradientUnits="userSpaceOnUse" x1="95.8606" y1="108.8589" x2="35.1396" y2="22.1403">
		<stop  offset="0" style="stop-color:#000000;stop-opacity:0"/>
		<stop  offset="1" style="stop-color:#FFFFFF;stop-opacity:0.25"/>
	</linearGradient>
	<path fill-rule="evenodd" clip-rule="evenodd" fill="url(#SVGID_12_)" d="M71.428,5.262l54.309,54.311
		c3.301,3.301,3.301,8.656,0,11.955l-54.208,54.209c-3.301,3.301-8.654,3.301-11.955,0L5.263,71.426
		c-3.301-3.301-3.301-8.654,0-11.955L59.471,5.262C62.772,1.962,68.126,1.962,71.428,5.262L71.428,5.262z"/>
</g>
<g id="normal">
	<g>
		<defs>
			<path id="SVGID_13_" d="M72.428,6.262l54.309,54.311c3.301,3.301,3.301,8.656,0,11.955l-54.208,54.209
				c-3.301,3.301-8.654,3.301-11.955,0L6.263,72.426c-3.301-3.301-3.301-8.654,0-11.955L60.471,6.262
				C63.772,2.962,69.126,2.962,72.428,6.262L72.428,6.262z"/>
		</defs>
		<defs>
			<path id="SVGID_14_" d="M71.428,5.262l54.309,54.311c3.301,3.301,3.301,8.656,0,11.955l-54.208,54.209
				c-3.301,3.301-8.654,3.301-11.955,0L5.263,71.426c-3.301-3.301-3.301-8.654,0-11.955L59.471,5.262
				C62.772,1.962,68.126,1.962,71.428,5.262L71.428,5.262z"/>
		</defs>
		<linearGradient id="SVGID_15_" gradientUnits="userSpaceOnUse" x1="3.7869" y1="66.5" x2="129.2131" y2="66.5">
			<stop  offset="0" style="stop-color:#000000;stop-opacity:0.6"/>
			<stop  offset="1" style="stop-color:#000000;stop-opacity:0.6"/>
		</linearGradient>
		<use xlink:href="#SVGID_13_"  overflow="visible" fill-rule="evenodd" clip-rule="evenodd" fill="url(#SVGID_15_)"/>
		<use xlink:href="#SVGID_14_"  overflow="visible" fill-rule="evenodd" clip-rule="evenodd" fill="#FFDF0A"/>
		<clipPath id="SVGID_16_">
			<use xlink:href="#SVGID_13_"  overflow="visible"/>
		</clipPath>
		<clipPath id="SVGID_17_" clip-path="url(#SVGID_16_)">
			<use xlink:href="#SVGID_14_"  overflow="visible"/>
		</clipPath>
	</g>
	<g>
		<defs>
			<path id="SVGID_18_" d="M123.159,71.27l-51.888,51.888c-3.161,3.161-8.284,3.161-11.443,0L7.842,71.173
				c-3.161-3.159-3.161-8.284,0-11.443L59.729,7.841c3.161-3.161,8.284-3.161,11.445,0l51.985,51.987
				C126.319,62.987,126.319,68.11,123.159,71.27L123.159,71.27z M122.533,62.848L68.205,8.521c-1.463-1.465-3.838-1.465-5.301,0
				L8.576,62.848c-1.463,1.463-1.463,3.838,0,5.301l54.329,54.327c1.463,1.463,3.838,1.463,5.301,0l54.327-54.327
				C123.998,66.686,123.998,64.311,122.533,62.848L122.533,62.848z"/>
		</defs>
		<use xlink:href="#SVGID_18_"  overflow="visible" fill-rule="evenodd" clip-rule="evenodd"/>
		<clipPath id="SVGID_19_">
			<use xlink:href="#SVGID_18_"  overflow="visible"/>
		</clipPath>
	</g>
	<g>
		<defs>
			<polygon id="SVGID_20_" points="41.672,91.052 87.684,91.052 85.644,94.061 44.101,94.061 41.672,91.052 			"/>
		</defs>
		<use xlink:href="#SVGID_20_"  overflow="visible" fill-rule="evenodd" clip-rule="evenodd"/>
		<clipPath id="SVGID_21_">
			<use xlink:href="#SVGID_20_"  overflow="visible"/>
		</clipPath>
	</g>
	<g>
		<defs>
			<path id="SVGID_22_" d="M74.588,47.307h-2.612c0,0,3.54,8.09,3.54,9.019c0,0.925-0.254,2.105-0.254,2.105l-1.097,1.686
				l8.599,25.369l-3.71,3.369l-10.452-20.73l-4.214,4.718l-3.794,15.003l-5.648-0.086l3.54-18.288l6.154-11.124l-3.456-6.743
				l-2.444,3.54l-9.862,3.708l-2.276-2.783l9.187-6.404c0,0,2.613-7.838,3.456-9.353c0.843-1.518,1.349-2.193,2.276-2.529
				c0.927-0.338,2.108-0.254,3.794,0.252c1.685,0.506,14.498,5.9,14.498,5.9l0.17,14.834L76.612,57L74.588,47.307L74.588,47.307z
				 M59.585,38.204c-2.513,0-4.551-2.037-4.551-4.55c0-2.513,2.038-4.551,4.551-4.551s4.55,2.038,4.55,4.551
				C64.135,36.167,62.099,38.204,59.585,38.204L59.585,38.204z"/>
		</defs>
		<use xlink:href="#SVGID_22_"  overflow="visible" fill-rule="evenodd" clip-rule="evenodd"/>
		<clipPath id="SVGID_23_">
			<use xlink:href="#SVGID_22_"  overflow="visible"/>
		</clipPath>
	</g>
	<linearGradient id="SVGID_24_" gradientUnits="userSpaceOnUse" x1="95.8606" y1="108.8589" x2="35.1396" y2="22.1403">
		<stop  offset="0" style="stop-color:#000000;stop-opacity:0"/>
		<stop  offset="1" style="stop-color:#FFFFFF;stop-opacity:0.25"/>
	</linearGradient>
	<path fill-rule="evenodd" clip-rule="evenodd" fill="url(#SVGID_24_)" d="M71.428,5.262l54.309,54.311
		c3.301,3.301,3.301,8.656,0,11.955l-54.208,54.209c-3.301,3.301-8.654,3.301-11.955,0L5.263,71.426
		c-3.301-3.301-3.301-8.654,0-11.955L59.471,5.262C62.772,1.962,68.126,1.962,71.428,5.262L71.428,5.262z"/>
</g>
</svg>
