<?xml version="1.0" encoding="utf-8"?>
<!-- Generator: Adobe Illustrator 17.0.1, SVG Export Plug-In . SVG Version: 6.00 Build 0)  -->
<!DOCTYPE svg PUBLIC "-//W3C//DTD SVG 1.1//EN" "http://www.w3.org/Graphics/SVG/1.1/DTD/svg11.dtd">
<svg version="1.1" xmlns="http://www.w3.org/2000/svg" xmlns:xlink="http://www.w3.org/1999/xlink" x="0px" y="0px" width="132px"
	 height="132px" viewBox="0 0 132 132" enable-background="new 0 0 132 132" xml:space="preserve">
<g id="disabled">
	<g>
		<defs>
			<path id="SVGID_1_" d="M69.079,11.929c8.814,15.267,50.344,86.96,60.048,103.765c1.33,2.304-0.734,6.7-3.317,6.7
				c-18.949,0-99.899,0-118.152,0c-4.317,0-5.267-2.882-3.036-6.749C14.33,98.833,55.426,27.689,64.51,11.955
				C65.49,10.257,68.001,10.065,69.079,11.929L69.079,11.929z"/>
		</defs>
		<defs>
			<path id="SVGID_2_" d="M68.079,10.929c8.814,15.267,50.344,86.96,60.048,103.765c1.33,2.304-0.734,6.7-3.317,6.7
				c-18.949,0-99.899,0-118.152,0c-4.317,0-5.267-2.882-3.036-6.749C13.33,97.833,54.426,26.689,63.51,10.955
				C64.49,9.257,67.001,9.065,68.079,10.929L68.079,10.929z"/>
		</defs>
		<linearGradient id="SVGID_3_" gradientUnits="userSpaceOnUse" x1="3.4569" y1="66.5" x2="129.5431" y2="66.5">
			<stop  offset="0" style="stop-color:#000000;stop-opacity:0.6"/>
			<stop  offset="1" style="stop-color:#000000;stop-opacity:0.6"/>
		</linearGradient>
		<use xlink:href="#SVGID_1_"  overflow="visible" fill-rule="evenodd" clip-rule="evenodd" fill="url(#SVGID_3_)"/>
		<use xlink:href="#SVGID_2_"  overflow="visible" fill="#AFAFAF"/>
		<clipPath id="SVGID_4_">
			<use xlink:href="#SVGID_1_"  overflow="visible"/>
		</clipPath>
		<clipPath id="SVGID_5_" clip-path="url(#SVGID_4_)">
			<use xlink:href="#SVGID_2_"  overflow="visible"/>
		</clipPath>
	</g>
	<g>
		<defs>
			<path id="SVGID_6_" d="M67.311,16.121c8.417,14.578,48.069,83.029,57.333,99.072c0.934,1.618-0.111,3.345-1.751,3.345
				c-18.091,0-97.413,0-114.842,0c-1.738,0-2.384-1.746-1.434-3.392c9.268-16.051,48.505-83.978,57.178-99.001
				C64.729,14.525,66.283,14.341,67.311,16.121L67.311,16.121z"/>
		</defs>
		<use xlink:href="#SVGID_6_"  overflow="visible" fill-rule="evenodd" clip-rule="evenodd"/>
		<clipPath id="SVGID_7_">
			<use xlink:href="#SVGID_6_"  overflow="visible"/>
		</clipPath>
	</g>
	<g>
		<defs>
			<path id="SVGID_8_" d="M66.807,37.074c5.941,10.287,33.928,57.848,40.466,69.174c0.659,1.142-0.079,2.361-1.236,2.361
				c-12.769,0-68.754,0-81.055,0c-1.228,0-1.683-1.234-1.013-2.395c6.541-11.329,34.235-58.522,40.356-69.124
				C64.986,35.945,66.081,35.816,66.807,37.074L66.807,37.074z"/>
		</defs>
		<use xlink:href="#SVGID_8_"  overflow="visible" fill="#AFAFAF"/>
		<clipPath id="SVGID_9_">
			<use xlink:href="#SVGID_8_"  overflow="visible"/>
		</clipPath>
	</g>
	<g>
		<defs>
			<path id="SVGID_10_" d="M78.15,93.025c0,0-4.634,0.493-5.424,0.788c-0.703,0.265,1.479,2.859,1.479,2.859l12.328,9.831
				l-9.172,0.197l-9.072-10.718c0,0-1.777-0.591-1.578-2.268c0.197-1.675,1.677-1.872,3.154-2.071
				c1.479-0.197,6.214-0.591,6.214-0.591s1.381,0.199,1.479-0.493c0.099-0.69-1.085-1.578-1.085-1.578l-3.452-3.45l2.368-0.099
				l5.128,4.535c0,0,1.479,1.381,1.184,1.972C81.404,92.532,78.15,93.025,78.15,93.025L78.15,93.025z M65.067,89.497l-9.006,2.387
				c0,0-4.963,1.286-4.963,2.205c0,0.917,1.287,1.468,1.287,1.468l12.866,11.036l-9.008-0.184l-9.374-9.198
				c0,0-2.757-2.755-2.573-4.225c0.184-1.468,4.779-2.203,4.779-2.203s12.866-3.306,14.154-3.489
				c1.287-0.184,0.184-0.735-0.368-1.47c-0.551-0.735-4.595-6.244-4.595-6.244l2.613,0.166l5.475,5.159c0,0,1.103,2.021,0.919,3.306
				C67.089,89.497,65.067,89.497,65.067,89.497L65.067,89.497z"/>
		</defs>
		<use xlink:href="#SVGID_10_"  overflow="visible" fill-rule="evenodd" clip-rule="evenodd"/>
		<clipPath id="SVGID_11_">
			<use xlink:href="#SVGID_10_"  overflow="visible"/>
		</clipPath>
	</g>
	<g>
		<defs>
			<path id="SVGID_12_" d="M77.402,82.754l-1.478,3.86c0,0-0.341,0.693-1.832,0.123c-1.557-0.596-1.281-1.315-1.281-1.315
				l0.539-2.684l-12.773-5.17l-1.228,2.621c0,0-0.339,0.693-1.832,0.123c-1.555-0.598-1.281-1.315-1.281-1.315l1.181-3.925
				l-0.908-1.344l0.255-4.466l7.662-5.913l15.664,6.058l0.428,10.426l-2.096,3.311L77.402,82.754L77.402,82.754z M76.323,71.492
				l-10.784-4.597l-3.127,3.292l13.244,5.821L76.323,71.492L76.323,71.492z"/>
		</defs>
		<use xlink:href="#SVGID_12_"  overflow="visible" fill-rule="evenodd" clip-rule="evenodd"/>
		<clipPath id="SVGID_13_">
			<use xlink:href="#SVGID_12_"  overflow="visible"/>
		</clipPath>
	</g>
	<linearGradient id="SVGID_14_" gradientUnits="userSpaceOnUse" x1="91.444" y1="145.3096" x2="18.9822" y2="41.8234">
		<stop  offset="0" style="stop-color:#000000;stop-opacity:0"/>
		<stop  offset="1" style="stop-color:#FFFFFF;stop-opacity:0.25"/>
	</linearGradient>
	<path fill-rule="evenodd" clip-rule="evenodd" fill="url(#SVGID_14_)" d="M68.079,10.929c8.814,15.267,50.344,86.96,60.048,103.765
		c1.33,2.304-0.734,6.7-3.317,6.7c-18.949,0-99.899,0-118.152,0c-4.317,0-5.267-2.882-3.036-6.749
		C13.33,97.833,54.426,26.689,63.51,10.955C64.49,9.257,67.001,9.065,68.079,10.929L68.079,10.929z"/>
</g>
<g id="normal">
	<g>
		<defs>
			<path id="SVGID_15_" d="M69.079,11.929c8.814,15.267,50.344,86.96,60.048,103.765c1.33,2.304-0.734,6.7-3.317,6.7
				c-18.949,0-99.899,0-118.152,0c-4.317,0-5.267-2.882-3.036-6.749C14.33,98.833,55.426,27.689,64.51,11.955
				C65.49,10.257,68.001,10.065,69.079,11.929L69.079,11.929z"/>
		</defs>
		<defs>
			<path id="SVGID_16_" d="M68.079,10.929c8.814,15.267,50.344,86.96,60.048,103.765c1.33,2.304-0.734,6.7-3.317,6.7
				c-18.949,0-99.899,0-118.152,0c-4.317,0-5.267-2.882-3.036-6.749C13.33,97.833,54.426,26.689,63.51,10.955
				C64.49,9.257,67.001,9.065,68.079,10.929L68.079,10.929z"/>
		</defs>
		<linearGradient id="SVGID_17_" gradientUnits="userSpaceOnUse" x1="3.4569" y1="66.5" x2="129.5431" y2="66.5">
			<stop  offset="0" style="stop-color:#000000;stop-opacity:0.6"/>
			<stop  offset="1" style="stop-color:#000000;stop-opacity:0.6"/>
		</linearGradient>
		<use xlink:href="#SVGID_15_"  overflow="visible" fill-rule="evenodd" clip-rule="evenodd" fill="url(#SVGID_17_)"/>
		<use xlink:href="#SVGID_16_"  overflow="visible" fill="#FA9F37"/>
		<clipPath id="SVGID_18_">
			<use xlink:href="#SVGID_15_"  overflow="visible"/>
		</clipPath>
		<clipPath id="SVGID_19_" clip-path="url(#SVGID_18_)">
			<use xlink:href="#SVGID_16_"  overflow="visible"/>
		</clipPath>
	</g>
	<g>
		<defs>
			<path id="SVGID_20_" d="M67.311,16.121c8.417,14.578,48.069,83.029,57.333,99.072c0.934,1.618-0.111,3.345-1.751,3.345
				c-18.091,0-97.413,0-114.842,0c-1.738,0-2.384-1.746-1.434-3.392c9.268-16.051,48.505-83.978,57.178-99.001
				C64.729,14.525,66.283,14.341,67.311,16.121L67.311,16.121z"/>
		</defs>
		<use xlink:href="#SVGID_20_"  overflow="visible" fill-rule="evenodd" clip-rule="evenodd"/>
		<clipPath id="SVGID_21_">
			<use xlink:href="#SVGID_20_"  overflow="visible"/>
		</clipPath>
	</g>
	<g>
		<defs>
			<path id="SVGID_22_" d="M66.807,37.074c5.941,10.287,33.928,57.848,40.466,69.174c0.659,1.142-0.079,2.361-1.236,2.361
				c-12.769,0-68.754,0-81.055,0c-1.228,0-1.683-1.234-1.013-2.395c6.541-11.329,34.235-58.522,40.356-69.124
				C64.986,35.945,66.081,35.816,66.807,37.074L66.807,37.074z"/>
		</defs>
		<use xlink:href="#SVGID_22_"  overflow="visible" fill="#FA9F37"/>
		<clipPath id="SVGID_23_">
			<use xlink:href="#SVGID_22_"  overflow="visible"/>
		</clipPath>
	</g>
	<g>
		<defs>
			<path id="SVGID_24_" d="M78.15,93.025c0,0-4.634,0.493-5.424,0.788c-0.703,0.265,1.479,2.859,1.479,2.859l12.328,9.831
				l-9.172,0.197l-9.072-10.718c0,0-1.777-0.591-1.578-2.268c0.197-1.675,1.677-1.872,3.154-2.071
				c1.479-0.197,6.214-0.591,6.214-0.591s1.381,0.199,1.479-0.493c0.099-0.69-1.085-1.578-1.085-1.578l-3.452-3.45l2.368-0.099
				l5.128,4.535c0,0,1.479,1.381,1.184,1.972C81.404,92.532,78.15,93.025,78.15,93.025L78.15,93.025z M65.067,89.497l-9.006,2.387
				c0,0-4.963,1.286-4.963,2.205c0,0.917,1.287,1.468,1.287,1.468l12.866,11.036l-9.008-0.184l-9.374-9.198
				c0,0-2.757-2.755-2.573-4.225c0.184-1.468,4.779-2.203,4.779-2.203s12.866-3.306,14.154-3.489
				c1.287-0.184,0.184-0.735-0.368-1.47c-0.551-0.735-4.595-6.244-4.595-6.244l2.613,0.166l5.475,5.159c0,0,1.103,2.021,0.919,3.306
				C67.089,89.497,65.067,89.497,65.067,89.497L65.067,89.497z"/>
		</defs>
		<use xlink:href="#SVGID_24_"  overflow="visible" fill-rule="evenodd" clip-rule="evenodd"/>
		<clipPath id="SVGID_25_">
			<use xlink:href="#SVGID_24_"  overflow="visible"/>
		</clipPath>
	</g>
	<g>
		<defs>
			<path id="SVGID_26_" d="M77.402,82.754l-1.478,3.86c0,0-0.341,0.693-1.832,0.123c-1.557-0.596-1.281-1.315-1.281-1.315
				l0.539-2.684l-12.773-5.17l-1.228,2.621c0,0-0.339,0.693-1.832,0.123c-1.555-0.598-1.281-1.315-1.281-1.315l1.181-3.925
				l-0.908-1.344l0.255-4.466l7.662-5.913l15.664,6.058l0.428,10.426l-2.096,3.311L77.402,82.754L77.402,82.754z M76.323,71.492
				l-10.784-4.597l-3.127,3.292l13.244,5.821L76.323,71.492L76.323,71.492z"/>
		</defs>
		<use xlink:href="#SVGID_26_"  overflow="visible" fill-rule="evenodd" clip-rule="evenodd"/>
		<clipPath id="SVGID_27_">
			<use xlink:href="#SVGID_26_"  overflow="visible"/>
		</clipPath>
	</g>
	<linearGradient id="SVGID_28_" gradientUnits="userSpaceOnUse" x1="91.444" y1="145.3096" x2="18.9822" y2="41.8234">
		<stop  offset="0" style="stop-color:#000000;stop-opacity:0"/>
		<stop  offset="1" style="stop-color:#FFFFFF;stop-opacity:0.25"/>
	</linearGradient>
	<path fill-rule="evenodd" clip-rule="evenodd" fill="url(#SVGID_28_)" d="M68.079,10.929c8.814,15.267,50.344,86.96,60.048,103.765
		c1.33,2.304-0.734,6.7-3.317,6.7c-18.949,0-99.899,0-118.152,0c-4.317,0-5.267-2.882-3.036-6.749
		C13.33,97.833,54.426,26.689,63.51,10.955C64.49,9.257,67.001,9.065,68.079,10.929L68.079,10.929z"/>
</g>
</svg>
