<?xml version="1.0" encoding="utf-8"?>
<!-- Generator: Adobe Illustrator 17.0.1, SVG Export Plug-In . SVG Version: 6.00 Build 0)  -->
<!DOCTYPE svg PUBLIC "-//W3C//DTD SVG 1.1//EN" "http://www.w3.org/Graphics/SVG/1.1/DTD/svg11.dtd">
<svg version="1.1" xmlns="http://www.w3.org/2000/svg" xmlns:xlink="http://www.w3.org/1999/xlink" x="0px" y="0px" width="132px"
	 height="132px" viewBox="0 0 132 132" enable-background="new 0 0 132 132" xml:space="preserve">
<g id="disabled">
	<g>
		<defs>
			<path id="SVGID_1_" d="M72.428,6.263l54.309,54.311c3.301,3.301,3.301,8.654,0,11.955l-54.208,54.208
				c-3.301,3.301-8.654,3.301-11.955,0L6.263,72.428c-3.301-3.301-3.301-8.654,0-11.955L60.471,6.263
				C63.772,2.962,69.126,2.962,72.428,6.263L72.428,6.263z"/>
		</defs>
		<defs>
			<path id="SVGID_2_" d="M71.428,5.263l54.309,54.311c3.301,3.301,3.301,8.654,0,11.955l-54.208,54.208
				c-3.301,3.301-8.654,3.301-11.955,0L5.263,71.428c-3.301-3.301-3.301-8.654,0-11.955L59.471,5.263
				C62.772,1.962,68.126,1.962,71.428,5.263L71.428,5.263z"/>
		</defs>
		<linearGradient id="SVGID_3_" gradientUnits="userSpaceOnUse" x1="3.7869" y1="66.5" x2="129.2131" y2="66.5">
			<stop  offset="0" style="stop-color:#000000;stop-opacity:0.6"/>
			<stop  offset="1" style="stop-color:#000000;stop-opacity:0.6"/>
		</linearGradient>
		<use xlink:href="#SVGID_1_"  overflow="visible" fill-rule="evenodd" clip-rule="evenodd" fill="url(#SVGID_3_)"/>
		<use xlink:href="#SVGID_2_"  overflow="visible" fill-rule="evenodd" clip-rule="evenodd" fill="#D1D1D1"/>
		<clipPath id="SVGID_4_">
			<use xlink:href="#SVGID_1_"  overflow="visible"/>
		</clipPath>
		<clipPath id="SVGID_5_" clip-path="url(#SVGID_4_)">
			<use xlink:href="#SVGID_2_"  overflow="visible"/>
		</clipPath>
	</g>
	<g>
		<defs>
			<path id="SVGID_6_" d="M123.159,71.271l-51.888,51.888c-3.161,3.159-8.284,3.159-11.443,0L7.842,71.174
				c-3.161-3.161-3.161-8.284,0-11.445L59.729,7.842c3.161-3.161,8.284-3.161,11.445,0l51.985,51.985
				C126.319,62.988,126.319,68.112,123.159,71.271L123.159,71.271z M122.533,62.85L68.205,8.521c-1.463-1.463-3.838-1.463-5.301,0
				L8.576,62.85c-1.463,1.463-1.463,3.836,0,5.301l54.329,54.329c1.463,1.463,3.838,1.463,5.301,0l54.327-54.329
				C123.998,66.686,123.998,64.313,122.533,62.85L122.533,62.85z"/>
		</defs>
		<use xlink:href="#SVGID_6_"  overflow="visible" fill-rule="evenodd" clip-rule="evenodd"/>
		<clipPath id="SVGID_7_">
			<use xlink:href="#SVGID_6_"  overflow="visible"/>
		</clipPath>
	</g>
	<g>
		<defs>
			<path id="SVGID_8_" d="M100.935,66.975v4.022h-4.028v3.985h-7.963v-3.985h-3.001v3.985H77.98v-3.985h-8.085v28.042h-8.908V70.996
				h-8.073v3.985h-7.963v-3.985h-3.001v3.985h-7.963v-3.985h-4.012v-4.022h6.348v-4.004h-6.348V59.03h4.012v-3.975h7.963v3.975
				h3.001v-3.975h7.963v3.975h8.073V30.945h8.908V59.03h8.085v-3.975h7.963v3.975h3.001v-3.975h7.963v3.975h4.028v3.941h-6.453
				v4.004H100.935L100.935,66.975z M47.288,62.971h-7.762v4.004h7.762V62.971L47.288,62.971z M60.987,62.971H50.49v4.004h10.497
				V62.971L60.987,62.971z M80.316,62.971H69.895v4.004h10.421V62.971L80.316,62.971z M91.279,62.971h-7.762v4.004h7.762V62.971
				L91.279,62.971z"/>
		</defs>
		<use xlink:href="#SVGID_8_"  overflow="visible" fill-rule="evenodd" clip-rule="evenodd"/>
		<clipPath id="SVGID_9_">
			<use xlink:href="#SVGID_8_"  overflow="visible"/>
		</clipPath>
	</g>
</g>
<g id="normal">
	<g>
		<defs>
			<path id="SVGID_10_" d="M72.428,6.263l54.309,54.311c3.301,3.301,3.301,8.654,0,11.955l-54.208,54.208
				c-3.301,3.301-8.654,3.301-11.955,0L6.263,72.428c-3.301-3.301-3.301-8.654,0-11.955L60.471,6.263
				C63.772,2.962,69.126,2.962,72.428,6.263L72.428,6.263z"/>
		</defs>
		<defs>
			<path id="SVGID_11_" d="M71.428,5.263l54.309,54.311c3.301,3.301,3.301,8.654,0,11.955l-54.208,54.208
				c-3.301,3.301-8.654,3.301-11.955,0L5.263,71.428c-3.301-3.301-3.301-8.654,0-11.955L59.471,5.263
				C62.772,1.962,68.126,1.962,71.428,5.263L71.428,5.263z"/>
		</defs>
		<linearGradient id="SVGID_12_" gradientUnits="userSpaceOnUse" x1="3.7869" y1="66.5" x2="129.2131" y2="66.5">
			<stop  offset="0" style="stop-color:#000000;stop-opacity:0.6"/>
			<stop  offset="1" style="stop-color:#000000;stop-opacity:0.6"/>
		</linearGradient>
		<use xlink:href="#SVGID_10_"  overflow="visible" fill-rule="evenodd" clip-rule="evenodd" fill="url(#SVGID_12_)"/>
		<use xlink:href="#SVGID_11_"  overflow="visible" fill-rule="evenodd" clip-rule="evenodd" fill="#FFDF0A"/>
		<clipPath id="SVGID_13_">
			<use xlink:href="#SVGID_10_"  overflow="visible"/>
		</clipPath>
		<clipPath id="SVGID_14_" clip-path="url(#SVGID_13_)">
			<use xlink:href="#SVGID_11_"  overflow="visible"/>
		</clipPath>
	</g>
	<g>
		<defs>
			<path id="SVGID_15_" d="M123.159,71.271l-51.888,51.888c-3.161,3.159-8.284,3.159-11.443,0L7.842,71.174
				c-3.161-3.161-3.161-8.284,0-11.445L59.729,7.842c3.161-3.161,8.284-3.161,11.445,0l51.985,51.985
				C126.319,62.988,126.319,68.112,123.159,71.271L123.159,71.271z M122.533,62.85L68.205,8.521c-1.463-1.463-3.838-1.463-5.301,0
				L8.576,62.85c-1.463,1.463-1.463,3.836,0,5.301l54.329,54.329c1.463,1.463,3.838,1.463,5.301,0l54.327-54.329
				C123.998,66.686,123.998,64.313,122.533,62.85L122.533,62.85z"/>
		</defs>
		<use xlink:href="#SVGID_15_"  overflow="visible" fill-rule="evenodd" clip-rule="evenodd"/>
		<clipPath id="SVGID_16_">
			<use xlink:href="#SVGID_15_"  overflow="visible"/>
		</clipPath>
	</g>
	<g>
		<defs>
			<path id="SVGID_17_" d="M100.935,66.975v4.022h-4.028v3.985h-7.963v-3.985h-3.001v3.985H77.98v-3.985h-8.085v28.042h-8.908
				V70.996h-8.073v3.985h-7.963v-3.985h-3.001v3.985h-7.963v-3.985h-4.012v-4.022h6.348v-4.004h-6.348V59.03h4.012v-3.975h7.963
				v3.975h3.001v-3.975h7.963v3.975h8.073V30.945h8.908V59.03h8.085v-3.975h7.963v3.975h3.001v-3.975h7.963v3.975h4.028v3.941
				h-6.453v4.004H100.935L100.935,66.975z M47.288,62.971h-7.762v4.004h7.762V62.971L47.288,62.971z M60.987,62.971H50.49v4.004
				h10.497V62.971L60.987,62.971z M80.316,62.971H69.895v4.004h10.421V62.971L80.316,62.971z M91.279,62.971h-7.762v4.004h7.762
				V62.971L91.279,62.971z"/>
		</defs>
		<use xlink:href="#SVGID_17_"  overflow="visible" fill-rule="evenodd" clip-rule="evenodd"/>
		<clipPath id="SVGID_18_">
			<use xlink:href="#SVGID_17_"  overflow="visible"/>
		</clipPath>
	</g>
</g>
</svg>
