<?xml version="1.0" encoding="utf-8"?>
<!-- Generator: Adobe Illustrator 17.0.1, SVG Export Plug-In . SVG Version: 6.00 Build 0)  -->
<!DOCTYPE svg PUBLIC "-//W3C//DTD SVG 1.1//EN" "http://www.w3.org/Graphics/SVG/1.1/DTD/svg11.dtd">
<svg version="1.1" xmlns="http://www.w3.org/2000/svg" xmlns:xlink="http://www.w3.org/1999/xlink" x="0px" y="0px" width="132px"
	 height="132px" viewBox="0 0 132 132" enable-background="new 0 0 132 132" xml:space="preserve">
<g id="disabled">
	<g>
		<defs>
			<path id="SVGID_1_" d="M72.428,6.262l54.309,54.311c3.301,3.301,3.301,8.654,0,11.957l-54.208,54.208
				c-3.301,3.301-8.654,3.301-11.955,0L6.263,72.427c-3.301-3.301-3.301-8.654,0-11.955L60.471,6.262
				C63.772,2.961,69.126,2.961,72.428,6.262L72.428,6.262z"/>
		</defs>
		<defs>
			<path id="SVGID_2_" d="M71.428,5.262l54.309,54.311c3.301,3.301,3.301,8.654,0,11.957l-54.208,54.208
				c-3.301,3.301-8.654,3.301-11.955,0L5.263,71.427c-3.301-3.301-3.301-8.654,0-11.955L59.471,5.262
				C62.772,1.961,68.126,1.961,71.428,5.262L71.428,5.262z"/>
		</defs>
		<linearGradient id="SVGID_3_" gradientUnits="userSpaceOnUse" x1="3.7869" y1="66.5" x2="129.2131" y2="66.5">
			<stop  offset="0" style="stop-color:#000000;stop-opacity:0.6"/>
			<stop  offset="1" style="stop-color:#000000;stop-opacity:0.6"/>
		</linearGradient>
		<use xlink:href="#SVGID_1_"  overflow="visible" fill-rule="evenodd" clip-rule="evenodd" fill="url(#SVGID_3_)"/>
		<use xlink:href="#SVGID_2_"  overflow="visible" fill-rule="evenodd" clip-rule="evenodd" fill="#D1D1D1"/>
		<clipPath id="SVGID_4_">
			<use xlink:href="#SVGID_1_"  overflow="visible"/>
		</clipPath>
		<clipPath id="SVGID_5_" clip-path="url(#SVGID_4_)">
			<use xlink:href="#SVGID_2_"  overflow="visible"/>
		</clipPath>
	</g>
	<g>
		<defs>
			<path id="SVGID_6_" d="M123.159,71.272l-51.888,51.887c-3.161,3.161-8.284,3.161-11.443,0L7.842,71.173
				c-3.161-3.159-3.161-8.284,0-11.445L59.729,7.841c3.161-3.159,8.284-3.159,11.445,0l51.985,51.985
				C126.319,62.988,126.319,68.111,123.159,71.272L123.159,71.272z M122.533,62.849L68.205,8.522c-1.463-1.465-3.838-1.465-5.301,0
				L8.576,62.849c-1.463,1.463-1.463,3.836,0,5.301l54.329,54.327c1.463,1.465,3.838,1.465,5.301,0l54.327-54.327
				C123.998,66.685,123.998,64.312,122.533,62.849L122.533,62.849z"/>
		</defs>
		<use xlink:href="#SVGID_6_"  overflow="visible" fill-rule="evenodd" clip-rule="evenodd"/>
		<clipPath id="SVGID_7_">
			<use xlink:href="#SVGID_6_"  overflow="visible"/>
		</clipPath>
	</g>
	<g>
		<defs>
			<path id="SVGID_8_" d="M88.904,96.982l0.103-2.718c0,0-1.581-0.357-2.105-1.924c-0.522-1.568,0.016-5.18-0.297-6.643
				c-0.313-1.462-0.851-1.98-2.342-3.431c-1.413-1.374-2.776-2.003-3.193-3.988c-0.418-1.985,0.195-2.809,0.522-4.702
				c0.236-1.371,0.339-2.355,0.06-4.01c0,0.002-0.168-0.903-0.53-1.709c-0.063-0.142,2.436-0.746,3.949-2.096
				c0.662-0.593,1.299-2.544,1.111-3.177c-0.113-0.38-1.09-1.798-1.491-1.686c-0.808,0.229-0.216,2.503-0.567,3.184
				c-0.514,0.998-1.374,1.596-1.995,1.872c-0.885,0.394-2.025,0.83-2.077,0.78c-0.632-0.599-0.94-1.155-2.221-1.725
				c-2.822-1.253-8.987-2.221-12.327-4.283c-2.683-1.656-5.359-3.127-6.299-5.842c-0.94-2.717-1.328-7.323-1.223-9.935
				c0.105-2.612,0.313-3.553,0.313-3.553s0.549,0.132,1.462-0.835c0.761-0.806,1.118-0.985,0.491-1.615
				c-0.496-0.496-1.744-0.265-1.744-0.265l-0.179-1.47c0,0-0.06-0.118,0.594-1.131c0.654-1.009,1.428-1.783,1.605-2.675
				c0.179-0.892,0.357-2.497,0.179-2.854c-0.179-0.357-0.179-0.536-0.714-0.476c-0.535,0.06-0.476,0-0.594,0.833
				c-0.12,0.832-0.297,1.665-0.714,2.2c-0.417,0.535-0.417,0.535-0.417,0.535s-1.129-1.249-1.426-2.497
				c-0.299-1.249-0.476-1.843-0.179-2.676c0.297-0.832,0.297-1.069-0.297-1.308c-0.594-0.237-0.535-0.355-0.892,0.297
				c-0.357,0.656-0.357,1.19-0.357,1.725s-0.12,1.071-0.12,1.071s-0.237-0.06-0.654-0.714c-0.415-0.654-0.654-1.071-0.654-1.843
				c0-0.774,0.417-1.189,0.179-1.605c-0.239-0.417-0.654-0.476-0.654-0.476s-0.297-0.297-0.594,0.237
				c-0.299,0.536-0.357,1.962-0.239,2.676c0.12,0.714,0.714,1.605,0.714,1.605s-0.654,0.237-1.189-0.535
				c-0.536-0.772-0.774-2.082-1.131-2.319c-0.357-0.237-0.714-0.297-0.892,0.119c-0.178,0.415-0.297,0.654,0.06,1.665
				c0.357,1.009,1.011,1.843,1.783,2.437c0.774,0.594,1.785,0.774,2.439,1.249c0.654,0.475,1.903,1.665,2.2,2.08
				c0.297,0.417,0.892,0.536,0.774,1.308c-0.12,0.774,0.297,0.953-0.297,1.605c-0.596,0.654-1.19,1.725-1.19,1.725
				s-2.557-0.179-3.271-0.06c-0.714,0.118-2.557,1.071-2.854,1.189c-0.297,0.12-3.508,0.179-3.508,0.179s-0.536,0.237-0.594,0.594
				c-0.06,0.357,0.178,0.357,0.357,0.774c0.178,0.415,0.178,1.069,0.355,1.426c0.179,0.357,0.716,0.846,1.072,0.904
				c0.357,0.06,2.378,0.404,2.912,0.761c0.536,0.355,0.417-0.12,0.892,0.714c0.476,0.832,0.179,2.2,0.12,3.448
				s0.179,4.519,0.179,4.519s-0.299-0.12-0.833,1.011c-0.535,1.129-1.189,3.626-1.486,4.815c-0.297,1.19-0.536,1.605-0.536,1.605
				s0.893,0.476-0.832-0.058s-3.39-1.129-4.162-1.25c-0.774-0.118-2.796-0.535-3.271-0.415c-0.476,0.118-0.654,0.415-0.893,0.892
				c-0.237,0.475-0.653,0.714-0.118,1.605c0.535,0.892,1.546,2.379,1.783,3.448c0.239,1.071,0.654,2.379,0.417,3.093
				c-0.237,0.712-0.237,0.772,0.06,1.426s0.594,1.011,0.951,1.189c0.357,0.179,2.437,2.557,2.437,2.557s0.596-0.118,0.833-0.832
				c0.237-0.714,0.073-1.102-0.284-1.576c-0.357-0.476-1.618-1.812-1.618-1.812s0-0.594-0.119-1.844
				c-0.118-1.249-0.475-2.557-0.654-2.914c-0.178-0.355-0.594-0.892,0-0.892c0.594,0,1.843,0.284,2.557,0.701
				c0.714,0.417,0.774,0.25,1.665,1.142c0.892,0.893,1.19,1.25,2.319,1.488c1.131,0.237,4.921,1.413,5.576,1.77
				c0.654,0.357,1.383,0.31,2.749,0.609c1.368,0.297,5.188,1.384,7.389,1.979c2.2,0.596,3.508,0.864,4.222,1.339
				c0.714,0.477,1.798,1.544,2.035,2.436c0.239,0.893-0.207,0.489,1.221,1.857c1.426,1.366,2.319,2.2,4.102,3.091
				c1.785,0.892,3.271,1.723,4.044,2.555c0.772,0.833,2.378,2.796,2.854,4.401c0.475,1.605,0.774,2.914,0.774,4.162
				c0,1.249-0.12,1.011,0.475,1.785c0.594,0.772,1.308,1.069,1.843,1.783C87.345,95.778,88.904,96.982,88.904,96.982L88.904,96.982z
				"/>
		</defs>
		<use xlink:href="#SVGID_8_"  overflow="visible" fill-rule="evenodd" clip-rule="evenodd"/>
		<clipPath id="SVGID_9_">
			<use xlink:href="#SVGID_8_"  overflow="visible"/>
		</clipPath>
	</g>
	<linearGradient id="SVGID_10_" gradientUnits="userSpaceOnUse" x1="95.8606" y1="108.8595" x2="35.1394" y2="22.1406">
		<stop  offset="0" style="stop-color:#000000;stop-opacity:0"/>
		<stop  offset="1" style="stop-color:#FFFFFF;stop-opacity:0.25"/>
	</linearGradient>
	<path fill-rule="evenodd" clip-rule="evenodd" fill="url(#SVGID_10_)" d="M71.428,5.262l54.309,54.311
		c3.301,3.301,3.301,8.654,0,11.957l-54.208,54.208c-3.301,3.301-8.654,3.301-11.955,0L5.263,71.427
		c-3.301-3.301-3.301-8.654,0-11.955L59.471,5.262C62.772,1.961,68.126,1.961,71.428,5.262L71.428,5.262z"/>
</g>
<g id="normal">
	<g>
		<defs>
			<path id="SVGID_11_" d="M72.428,6.262l54.309,54.311c3.301,3.301,3.301,8.654,0,11.957l-54.208,54.208
				c-3.301,3.301-8.654,3.301-11.955,0L6.263,72.427c-3.301-3.301-3.301-8.654,0-11.955L60.471,6.262
				C63.772,2.961,69.126,2.961,72.428,6.262L72.428,6.262z"/>
		</defs>
		<defs>
			<path id="SVGID_12_" d="M71.428,5.262l54.309,54.311c3.301,3.301,3.301,8.654,0,11.957l-54.208,54.208
				c-3.301,3.301-8.654,3.301-11.955,0L5.263,71.427c-3.301-3.301-3.301-8.654,0-11.955L59.471,5.262
				C62.772,1.961,68.126,1.961,71.428,5.262L71.428,5.262z"/>
		</defs>
		<linearGradient id="SVGID_13_" gradientUnits="userSpaceOnUse" x1="3.7869" y1="66.5" x2="129.2131" y2="66.5">
			<stop  offset="0" style="stop-color:#000000;stop-opacity:0.6"/>
			<stop  offset="1" style="stop-color:#000000;stop-opacity:0.6"/>
		</linearGradient>
		<use xlink:href="#SVGID_11_"  overflow="visible" fill-rule="evenodd" clip-rule="evenodd" fill="url(#SVGID_13_)"/>
		<use xlink:href="#SVGID_12_"  overflow="visible" fill-rule="evenodd" clip-rule="evenodd" fill="#FFDF0A"/>
		<clipPath id="SVGID_14_">
			<use xlink:href="#SVGID_11_"  overflow="visible"/>
		</clipPath>
		<clipPath id="SVGID_15_" clip-path="url(#SVGID_14_)">
			<use xlink:href="#SVGID_12_"  overflow="visible"/>
		</clipPath>
	</g>
	<g>
		<defs>
			<path id="SVGID_16_" d="M123.159,71.272l-51.888,51.887c-3.161,3.161-8.284,3.161-11.443,0L7.842,71.173
				c-3.161-3.159-3.161-8.284,0-11.445L59.729,7.841c3.161-3.159,8.284-3.159,11.445,0l51.985,51.985
				C126.319,62.988,126.319,68.111,123.159,71.272L123.159,71.272z M122.533,62.849L68.205,8.522c-1.463-1.465-3.838-1.465-5.301,0
				L8.576,62.849c-1.463,1.463-1.463,3.836,0,5.301l54.329,54.327c1.463,1.465,3.838,1.465,5.301,0l54.327-54.327
				C123.998,66.685,123.998,64.312,122.533,62.849L122.533,62.849z"/>
		</defs>
		<use xlink:href="#SVGID_16_"  overflow="visible" fill-rule="evenodd" clip-rule="evenodd"/>
		<clipPath id="SVGID_17_">
			<use xlink:href="#SVGID_16_"  overflow="visible"/>
		</clipPath>
	</g>
	<g>
		<defs>
			<path id="SVGID_18_" d="M88.904,96.982l0.103-2.718c0,0-1.581-0.357-2.105-1.924c-0.522-1.568,0.016-5.18-0.297-6.643
				c-0.313-1.462-0.851-1.98-2.342-3.431c-1.413-1.374-2.776-2.003-3.193-3.988c-0.418-1.985,0.195-2.809,0.522-4.702
				c0.236-1.371,0.339-2.355,0.06-4.01c0,0.002-0.168-0.903-0.53-1.709c-0.063-0.142,2.436-0.746,3.949-2.096
				c0.662-0.593,1.299-2.544,1.111-3.177c-0.113-0.38-1.09-1.798-1.491-1.686c-0.808,0.229-0.216,2.503-0.567,3.184
				c-0.514,0.998-1.374,1.596-1.995,1.872c-0.885,0.394-2.025,0.83-2.077,0.78c-0.632-0.599-0.94-1.155-2.221-1.725
				c-2.822-1.253-8.987-2.221-12.327-4.283c-2.683-1.656-5.359-3.127-6.299-5.842c-0.94-2.717-1.328-7.323-1.223-9.935
				c0.105-2.612,0.313-3.553,0.313-3.553s0.549,0.132,1.462-0.835c0.761-0.806,1.118-0.985,0.491-1.615
				c-0.496-0.496-1.744-0.265-1.744-0.265l-0.179-1.47c0,0-0.06-0.118,0.594-1.131c0.654-1.009,1.428-1.783,1.605-2.675
				c0.179-0.892,0.357-2.497,0.179-2.854c-0.179-0.357-0.179-0.536-0.714-0.476c-0.535,0.06-0.476,0-0.594,0.833
				c-0.12,0.832-0.297,1.665-0.714,2.2c-0.417,0.535-0.417,0.535-0.417,0.535s-1.129-1.249-1.426-2.497
				c-0.299-1.249-0.476-1.843-0.179-2.676c0.297-0.832,0.297-1.069-0.297-1.308c-0.594-0.237-0.535-0.355-0.892,0.297
				c-0.357,0.656-0.357,1.19-0.357,1.725s-0.12,1.071-0.12,1.071s-0.237-0.06-0.654-0.714c-0.415-0.654-0.654-1.071-0.654-1.843
				c0-0.774,0.417-1.189,0.179-1.605c-0.239-0.417-0.654-0.476-0.654-0.476s-0.297-0.297-0.594,0.237
				c-0.299,0.536-0.357,1.962-0.239,2.676c0.12,0.714,0.714,1.605,0.714,1.605s-0.654,0.237-1.189-0.535
				c-0.536-0.772-0.774-2.082-1.131-2.319c-0.357-0.237-0.714-0.297-0.892,0.119c-0.178,0.415-0.297,0.654,0.06,1.665
				c0.357,1.009,1.011,1.843,1.783,2.437c0.774,0.594,1.785,0.774,2.439,1.249c0.654,0.475,1.903,1.665,2.2,2.08
				c0.297,0.417,0.892,0.536,0.774,1.308c-0.12,0.774,0.297,0.953-0.297,1.605c-0.596,0.654-1.19,1.725-1.19,1.725
				s-2.557-0.179-3.271-0.06c-0.714,0.118-2.557,1.071-2.854,1.189c-0.297,0.12-3.508,0.179-3.508,0.179s-0.536,0.237-0.594,0.594
				c-0.06,0.357,0.178,0.357,0.357,0.774c0.178,0.415,0.178,1.069,0.355,1.426c0.179,0.357,0.716,0.846,1.072,0.904
				c0.357,0.06,2.378,0.404,2.912,0.761c0.536,0.355,0.417-0.12,0.892,0.714c0.476,0.832,0.179,2.2,0.12,3.448
				s0.179,4.519,0.179,4.519s-0.299-0.12-0.833,1.011c-0.535,1.129-1.189,3.626-1.486,4.815c-0.297,1.19-0.536,1.605-0.536,1.605
				s0.893,0.476-0.832-0.058s-3.39-1.129-4.162-1.25c-0.774-0.118-2.796-0.535-3.271-0.415c-0.476,0.118-0.654,0.415-0.893,0.892
				c-0.237,0.475-0.653,0.714-0.118,1.605c0.535,0.892,1.546,2.379,1.783,3.448c0.239,1.071,0.654,2.379,0.417,3.093
				c-0.237,0.712-0.237,0.772,0.06,1.426s0.594,1.011,0.951,1.189c0.357,0.179,2.437,2.557,2.437,2.557s0.596-0.118,0.833-0.832
				c0.237-0.714,0.073-1.102-0.284-1.576c-0.357-0.476-1.618-1.812-1.618-1.812s0-0.594-0.119-1.844
				c-0.118-1.249-0.475-2.557-0.654-2.914c-0.178-0.355-0.594-0.892,0-0.892c0.594,0,1.843,0.284,2.557,0.701
				c0.714,0.417,0.774,0.25,1.665,1.142c0.892,0.893,1.19,1.25,2.319,1.488c1.131,0.237,4.921,1.413,5.576,1.77
				c0.654,0.357,1.383,0.31,2.749,0.609c1.368,0.297,5.188,1.384,7.389,1.979c2.2,0.596,3.508,0.864,4.222,1.339
				c0.714,0.477,1.798,1.544,2.035,2.436c0.239,0.893-0.207,0.489,1.221,1.857c1.426,1.366,2.319,2.2,4.102,3.091
				c1.785,0.892,3.271,1.723,4.044,2.555c0.772,0.833,2.378,2.796,2.854,4.401c0.475,1.605,0.774,2.914,0.774,4.162
				c0,1.249-0.12,1.011,0.475,1.785c0.594,0.772,1.308,1.069,1.843,1.783C87.345,95.778,88.904,96.982,88.904,96.982L88.904,96.982z
				"/>
		</defs>
		<use xlink:href="#SVGID_18_"  overflow="visible" fill-rule="evenodd" clip-rule="evenodd"/>
		<clipPath id="SVGID_19_">
			<use xlink:href="#SVGID_18_"  overflow="visible"/>
		</clipPath>
	</g>
	<linearGradient id="SVGID_20_" gradientUnits="userSpaceOnUse" x1="95.8606" y1="108.8595" x2="35.1394" y2="22.1406">
		<stop  offset="0" style="stop-color:#000000;stop-opacity:0"/>
		<stop  offset="1" style="stop-color:#FFFFFF;stop-opacity:0.25"/>
	</linearGradient>
	<path fill-rule="evenodd" clip-rule="evenodd" fill="url(#SVGID_20_)" d="M71.428,5.262l54.309,54.311
		c3.301,3.301,3.301,8.654,0,11.957l-54.208,54.208c-3.301,3.301-8.654,3.301-11.955,0L5.263,71.427
		c-3.301-3.301-3.301-8.654,0-11.955L59.471,5.262C62.772,1.961,68.126,1.961,71.428,5.262L71.428,5.262z"/>
</g>
</svg>
