<?xml version="1.0" encoding="utf-8"?>
<!-- Generator: Adobe Illustrator 17.0.1, SVG Export Plug-In . SVG Version: 6.00 Build 0)  -->
<!DOCTYPE svg PUBLIC "-//W3C//DTD SVG 1.1//EN" "http://www.w3.org/Graphics/SVG/1.1/DTD/svg11.dtd">
<svg version="1.1" xmlns="http://www.w3.org/2000/svg" xmlns:xlink="http://www.w3.org/1999/xlink" x="0px" y="0px" width="132px"
	 height="132px" viewBox="0 0 132 132" enable-background="new 0 0 132 132" xml:space="preserve">
<g id="disabled">
	<g>
		<defs>
			<path id="SVGID_1_" d="M72.428,6.263l54.309,54.311c3.301,3.301,3.301,8.654,0,11.955l-54.208,54.208
				c-3.301,3.301-8.654,3.301-11.955,0L6.263,72.428c-3.301-3.301-3.301-8.654,0-11.955L60.471,6.263
				C63.772,2.962,69.126,2.962,72.428,6.263L72.428,6.263z"/>
		</defs>
		<defs>
			<path id="SVGID_2_" d="M71.428,5.263l54.309,54.311c3.301,3.301,3.301,8.654,0,11.955l-54.208,54.208
				c-3.301,3.301-8.654,3.301-11.955,0L5.263,71.428c-3.301-3.301-3.301-8.654,0-11.955L59.471,5.263
				C62.772,1.962,68.126,1.962,71.428,5.263L71.428,5.263z"/>
		</defs>
		<linearGradient id="SVGID_3_" gradientUnits="userSpaceOnUse" x1="3.7869" y1="66.5" x2="129.2131" y2="66.5">
			<stop  offset="0" style="stop-color:#000000;stop-opacity:0.6"/>
			<stop  offset="1" style="stop-color:#000000;stop-opacity:0.6"/>
		</linearGradient>
		<use xlink:href="#SVGID_1_"  overflow="visible" fill-rule="evenodd" clip-rule="evenodd" fill="url(#SVGID_3_)"/>
		<use xlink:href="#SVGID_2_"  overflow="visible" fill-rule="evenodd" clip-rule="evenodd" fill="#D1D1D1"/>
		<clipPath id="SVGID_4_">
			<use xlink:href="#SVGID_1_"  overflow="visible"/>
		</clipPath>
		<clipPath id="SVGID_5_" clip-path="url(#SVGID_4_)">
			<use xlink:href="#SVGID_2_"  overflow="visible"/>
		</clipPath>
	</g>
	<g>
		<defs>
			<path id="SVGID_6_" d="M123.159,71.273l-51.888,51.887c-3.161,3.159-8.284,3.159-11.443,0L7.842,71.174
				c-3.161-3.159-3.161-8.284,0-11.443L59.729,7.842c3.161-3.161,8.284-3.161,11.445,0l51.985,51.985
				C126.319,62.988,126.319,68.112,123.159,71.273L123.159,71.273z M122.533,62.85L68.205,8.522c-1.463-1.465-3.838-1.465-5.301,0
				L8.576,62.85c-1.463,1.463-1.463,3.838,0,5.301l54.329,54.327c1.463,1.465,3.838,1.465,5.301,0l54.327-54.327
				C123.998,66.687,123.998,64.313,122.533,62.85L122.533,62.85z"/>
		</defs>
		<use xlink:href="#SVGID_6_"  overflow="visible" fill-rule="evenodd" clip-rule="evenodd"/>
		<clipPath id="SVGID_7_">
			<use xlink:href="#SVGID_6_"  overflow="visible"/>
		</clipPath>
	</g>
	<g>
		<defs>
			<path id="SVGID_8_" d="M102.062,71.875c-0.644,0.504-1.358,0.653-2.25,0.312l-3.708-1.662c-0.355,2.151-0.914,4.296-1.752,6.404
				c-4.48,11.269-14.856,18.463-26.182,19.472l-0.216-9.079c7.801-0.901,14.88-5.945,17.98-13.74
				c0.585-1.471,0.976-2.969,1.223-4.469l-1.121-0.124l-5.676,1.231c-0.945,0.12-1.604-0.195-2.109-0.835
				c-0.59-0.885-0.195-2.232,0.59-2.951l13.341-13.079l10.007,15.515C102.781,69.753,102.846,71.156,102.062,71.875L102.062,71.875z
				 M73.602,44.975c-6.01-2.389-12.445-1.917-17.835,0.733l4.275,3.242c0.704,0.64,0.898,1.344,0.737,2.143
				c-0.288,1.026-1.565,1.602-2.623,1.476l-18.611-1.62l5.264-17.694c0.286-1.024,1.308-1.988,2.368-1.861
				c0.799,0.16,1.376,0.607,1.694,1.504l1.544,5.217l0.073,0.107c7.855-4.314,17.502-5.227,26.461-1.665
				c6.501,2.584,11.647,7.133,15.034,12.692l-9.348,2.429C80.325,48.79,77.276,46.435,73.602,44.975L73.602,44.975z M50.237,81.309
				l0.079-4.753c0.102-0.948,0.556-1.518,1.294-1.862c0.998-0.375,2.221,0.318,2.741,1.245l9.684,15.975l-17.387,6.202
				c-0.995,0.375-2.376,0.116-2.898-0.811c-0.344-0.74-0.325-1.47,0.21-2.258l3.3-4.324l0.032-0.092
				c-11.135-8.039-15.958-22.814-10.897-36.186l8.431,3.353C41.704,66.225,44.102,75.402,50.237,81.309L50.237,81.309z"/>
		</defs>
		<use xlink:href="#SVGID_8_"  overflow="visible" fill-rule="evenodd" clip-rule="evenodd"/>
		<clipPath id="SVGID_9_">
			<use xlink:href="#SVGID_8_"  overflow="visible"/>
		</clipPath>
	</g>
	<linearGradient id="SVGID_10_" gradientUnits="userSpaceOnUse" x1="95.8599" y1="108.8592" x2="35.1394" y2="22.1414">
		<stop  offset="0" style="stop-color:#000000;stop-opacity:0"/>
		<stop  offset="1" style="stop-color:#FFFFFF;stop-opacity:0.25"/>
	</linearGradient>
	<path fill-rule="evenodd" clip-rule="evenodd" fill="url(#SVGID_10_)" d="M71.428,5.263l54.309,54.311
		c3.301,3.301,3.301,8.654,0,11.955l-54.208,54.208c-3.301,3.301-8.654,3.301-11.955,0L5.263,71.428
		c-3.301-3.301-3.301-8.654,0-11.955L59.471,5.263C62.772,1.962,68.126,1.962,71.428,5.263L71.428,5.263z"/>
</g>
<g id="normal">
	<g>
		<defs>
			<path id="SVGID_11_" d="M72.428,6.263l54.309,54.311c3.301,3.301,3.301,8.654,0,11.955l-54.208,54.208
				c-3.301,3.301-8.654,3.301-11.955,0L6.263,72.428c-3.301-3.301-3.301-8.654,0-11.955L60.471,6.263
				C63.772,2.962,69.126,2.962,72.428,6.263L72.428,6.263z"/>
		</defs>
		<defs>
			<path id="SVGID_12_" d="M71.428,5.263l54.309,54.311c3.301,3.301,3.301,8.654,0,11.955l-54.208,54.208
				c-3.301,3.301-8.654,3.301-11.955,0L5.263,71.428c-3.301-3.301-3.301-8.654,0-11.955L59.471,5.263
				C62.772,1.962,68.126,1.962,71.428,5.263L71.428,5.263z"/>
		</defs>
		<linearGradient id="SVGID_13_" gradientUnits="userSpaceOnUse" x1="3.7869" y1="66.5" x2="129.2131" y2="66.5">
			<stop  offset="0" style="stop-color:#000000;stop-opacity:0.6"/>
			<stop  offset="1" style="stop-color:#000000;stop-opacity:0.6"/>
		</linearGradient>
		<use xlink:href="#SVGID_11_"  overflow="visible" fill-rule="evenodd" clip-rule="evenodd" fill="url(#SVGID_13_)"/>
		<use xlink:href="#SVGID_12_"  overflow="visible" fill-rule="evenodd" clip-rule="evenodd" fill="#FFDF0A"/>
		<clipPath id="SVGID_14_">
			<use xlink:href="#SVGID_11_"  overflow="visible"/>
		</clipPath>
		<clipPath id="SVGID_15_" clip-path="url(#SVGID_14_)">
			<use xlink:href="#SVGID_12_"  overflow="visible"/>
		</clipPath>
	</g>
	<g>
		<defs>
			<path id="SVGID_16_" d="M123.159,71.273l-51.888,51.887c-3.161,3.159-8.284,3.159-11.443,0L7.842,71.174
				c-3.161-3.159-3.161-8.284,0-11.443L59.729,7.842c3.161-3.161,8.284-3.161,11.445,0l51.985,51.985
				C126.319,62.988,126.319,68.112,123.159,71.273L123.159,71.273z M122.533,62.85L68.205,8.522c-1.463-1.465-3.838-1.465-5.301,0
				L8.576,62.85c-1.463,1.463-1.463,3.838,0,5.301l54.329,54.327c1.463,1.465,3.838,1.465,5.301,0l54.327-54.327
				C123.998,66.687,123.998,64.313,122.533,62.85L122.533,62.85z"/>
		</defs>
		<use xlink:href="#SVGID_16_"  overflow="visible" fill-rule="evenodd" clip-rule="evenodd"/>
		<clipPath id="SVGID_17_">
			<use xlink:href="#SVGID_16_"  overflow="visible"/>
		</clipPath>
	</g>
	<g>
		<defs>
			<path id="SVGID_18_" d="M102.062,71.875c-0.644,0.504-1.358,0.653-2.25,0.312l-3.708-1.662c-0.355,2.151-0.914,4.296-1.752,6.404
				c-4.48,11.269-14.856,18.463-26.182,19.472l-0.216-9.079c7.801-0.901,14.88-5.945,17.98-13.74
				c0.585-1.471,0.976-2.969,1.223-4.469l-1.121-0.124l-5.676,1.231c-0.945,0.12-1.604-0.195-2.109-0.835
				c-0.59-0.885-0.195-2.232,0.59-2.951l13.341-13.079l10.007,15.515C102.781,69.753,102.846,71.156,102.062,71.875L102.062,71.875z
				 M73.602,44.975c-6.01-2.389-12.445-1.917-17.835,0.733l4.275,3.242c0.704,0.64,0.898,1.344,0.737,2.143
				c-0.288,1.026-1.565,1.602-2.623,1.476l-18.611-1.62l5.264-17.694c0.286-1.024,1.308-1.988,2.368-1.861
				c0.799,0.16,1.376,0.607,1.694,1.504l1.544,5.217l0.073,0.107c7.855-4.314,17.502-5.227,26.461-1.665
				c6.501,2.584,11.647,7.133,15.034,12.692l-9.348,2.429C80.325,48.79,77.276,46.435,73.602,44.975L73.602,44.975z M50.237,81.309
				l0.079-4.753c0.102-0.948,0.556-1.518,1.294-1.862c0.998-0.375,2.221,0.318,2.741,1.245l9.684,15.975l-17.387,6.202
				c-0.995,0.375-2.376,0.116-2.898-0.811c-0.344-0.74-0.325-1.47,0.21-2.258l3.3-4.324l0.032-0.092
				c-11.135-8.039-15.958-22.814-10.897-36.186l8.431,3.353C41.704,66.225,44.102,75.402,50.237,81.309L50.237,81.309z"/>
		</defs>
		<use xlink:href="#SVGID_18_"  overflow="visible" fill-rule="evenodd" clip-rule="evenodd"/>
		<clipPath id="SVGID_19_">
			<use xlink:href="#SVGID_18_"  overflow="visible"/>
		</clipPath>
	</g>
	<linearGradient id="SVGID_20_" gradientUnits="userSpaceOnUse" x1="95.8599" y1="108.8592" x2="35.1394" y2="22.1414">
		<stop  offset="0" style="stop-color:#000000;stop-opacity:0"/>
		<stop  offset="1" style="stop-color:#FFFFFF;stop-opacity:0.25"/>
	</linearGradient>
	<path fill-rule="evenodd" clip-rule="evenodd" fill="url(#SVGID_20_)" d="M71.428,5.263l54.309,54.311
		c3.301,3.301,3.301,8.654,0,11.955l-54.208,54.208c-3.301,3.301-8.654,3.301-11.955,0L5.263,71.428
		c-3.301-3.301-3.301-8.654,0-11.955L59.471,5.263C62.772,1.962,68.126,1.962,71.428,5.263L71.428,5.263z"/>
</g>
</svg>
