<?xml version="1.0" encoding="utf-8"?>
<!-- Generator: Adobe Illustrator 17.0.1, SVG Export Plug-In . SVG Version: 6.00 Build 0)  -->
<!DOCTYPE svg PUBLIC "-//W3C//DTD SVG 1.1//EN" "http://www.w3.org/Graphics/SVG/1.1/DTD/svg11.dtd">
<svg version="1.1" xmlns="http://www.w3.org/2000/svg" xmlns:xlink="http://www.w3.org/1999/xlink" x="0px" y="0px" width="132px"
	 height="132px" viewBox="0 0 132 132" enable-background="new 0 0 132 132" xml:space="preserve">
<g id="disabled">
	<g>
		<defs>
			<path id="SVGID_1_" d="M72.428,6.262l54.309,54.311c3.301,3.301,3.301,8.654,0,11.955l-54.208,54.208
				c-3.301,3.303-8.654,3.303-11.955,0L6.263,72.427c-3.301-3.301-3.301-8.654,0-11.955L60.471,6.262
				C63.772,2.961,69.126,2.961,72.428,6.262L72.428,6.262z"/>
		</defs>
		<defs>
			<path id="SVGID_2_" d="M71.428,5.262l54.309,54.311c3.301,3.301,3.301,8.654,0,11.955l-54.208,54.208
				c-3.301,3.303-8.654,3.303-11.955,0L5.263,71.427c-3.301-3.301-3.301-8.654,0-11.955L59.471,5.262
				C62.772,1.961,68.126,1.961,71.428,5.262L71.428,5.262z"/>
		</defs>
		<linearGradient id="SVGID_3_" gradientUnits="userSpaceOnUse" x1="3.7869" y1="66.5" x2="129.2131" y2="66.5">
			<stop  offset="0" style="stop-color:#000000;stop-opacity:0.6"/>
			<stop  offset="1" style="stop-color:#000000;stop-opacity:0.6"/>
		</linearGradient>
		<use xlink:href="#SVGID_1_"  overflow="visible" fill-rule="evenodd" clip-rule="evenodd" fill="url(#SVGID_3_)"/>
		<use xlink:href="#SVGID_2_"  overflow="visible" fill-rule="evenodd" clip-rule="evenodd" fill="#FFDF0A"/>
		<clipPath id="SVGID_4_">
			<use xlink:href="#SVGID_1_"  overflow="visible"/>
		</clipPath>
		<clipPath id="SVGID_5_" clip-path="url(#SVGID_4_)">
			<use xlink:href="#SVGID_2_"  overflow="visible"/>
		</clipPath>
	</g>
	<g>
		<defs>
			<path id="SVGID_6_" d="M123.159,71.27l-51.888,51.888c-3.161,3.159-8.284,3.159-11.443,0L7.842,71.173
				c-3.161-3.161-3.161-8.284,0-11.445L59.729,7.842c3.161-3.159,8.284-3.159,11.445,0l51.985,51.985
				C126.319,62.988,126.319,68.111,123.159,71.27L123.159,71.27z M122.533,62.849L68.205,8.522c-1.463-1.465-3.838-1.465-5.301,0
				L8.576,62.849c-1.463,1.463-1.463,3.838,0,5.301l54.329,54.327c1.463,1.465,3.838,1.465,5.301,0l54.327-54.327
				C123.998,66.687,123.998,64.312,122.533,62.849L122.533,62.849z"/>
		</defs>
		<use xlink:href="#SVGID_6_"  overflow="visible" fill-rule="evenodd" clip-rule="evenodd"/>
		<clipPath id="SVGID_7_">
			<use xlink:href="#SVGID_6_"  overflow="visible"/>
		</clipPath>
	</g>
	<g>
		<defs>
			<path id="SVGID_8_" d="M44.477,56.492V42.881h2.772v11.298h6.889v2.313H44.477L44.477,56.492z M67.054,54.849
				c-1.203,1.25-2.814,1.877-4.829,1.877c-2.04,0-3.663-0.623-4.866-1.869c-1.205-1.244-1.807-2.959-1.807-5.143
				c0-1.397,0.208-2.571,0.627-3.519c0.312-0.699,0.738-1.326,1.278-1.882c0.539-0.556,1.132-0.967,1.775-1.236
				c0.854-0.362,1.84-0.543,2.957-0.543c2.022,0,3.639,0.627,4.854,1.882c1.213,1.253,1.82,2.998,1.82,5.231
				C68.861,51.864,68.259,53.597,67.054,54.849L67.054,54.849z M64.962,46.064c-0.69-0.774-1.605-1.161-2.747-1.161
				c-1.142,0-2.063,0.392-2.76,1.176c-0.699,0.782-1.048,1.964-1.048,3.542c0,1.554,0.359,2.731,1.076,3.534
				c0.717,0.801,1.628,1.202,2.733,1.202c1.105,0,2.011-0.397,2.72-1.194c0.707-0.795,1.061-1.988,1.061-3.579
				C65.996,48.011,65.652,46.838,64.962,46.064L64.962,46.064z M84.37,56.492h-2.938l-2.734-10.259l-2.723,10.259H72.97
				l-3.276-13.722h2.835l2.069,9.426l2.508-9.426h3.295l2.407,9.584l2.105-9.584h2.789L84.37,56.492L84.37,56.492z M40.664,71.693
				v11.4h-2.772v-11.4h-4.07v-2.321h10.904v2.321H40.664L40.664,71.693z M54.123,77.038c0.599,0.349,1.093,0.733,1.484,1.152
				c0.389,0.417,0.916,1.16,1.576,2.227l1.677,2.676h-3.314l-2.003-2.985c-0.711-1.068-1.198-1.74-1.46-2.017
				c-0.262-0.278-0.539-0.468-0.833-0.572c-0.292-0.103-0.757-0.153-1.394-0.153h-0.562v5.727h-2.77V69.373h5.831
				c1.467,0,2.533,0.123,3.196,0.368c0.665,0.247,1.197,0.685,1.596,1.316c0.399,0.63,0.599,1.35,0.599,2.161
				c0,1.03-0.302,1.88-0.908,2.55C56.232,76.44,55.328,76.864,54.123,77.038L54.123,77.038z M54.522,72.278
				c-0.247-0.284-0.594-0.464-1.045-0.538c-0.225-0.032-0.898-0.047-2.021-0.047h-2.163v3.482h2.05c1.329,0,2.159-0.057,2.491-0.17
				c0.329-0.111,0.59-0.305,0.777-0.58c0.187-0.275,0.279-0.619,0.279-1.03C54.89,72.936,54.767,72.562,54.522,72.278L54.522,72.278
				z M70.793,80.782v2.311H60.357V69.373h10.174v2.321h-7.404v3.041h6.889v2.313h-6.889v3.734H70.793L70.793,80.782z M83.58,80.782
				v2.311H73.143V69.373h10.174v2.321h-7.404v3.041h6.89v2.313h-6.89v3.734H83.58L83.58,80.782z M92.457,71.894
				c-0.389-0.309-0.974-0.464-1.754-0.464c-0.806,0-1.436,0.166-1.891,0.497c-0.292,0.212-0.439,0.496-0.439,0.851
				c0,0.325,0.137,0.602,0.412,0.833c0.349,0.292,1.198,0.599,2.545,0.917c1.349,0.318,2.345,0.648,2.991,0.987
				c0.644,0.341,1.15,0.804,1.515,1.395c0.365,0.59,0.548,1.318,0.548,2.185c0,0.785-0.218,1.521-0.654,2.208
				c-0.438,0.686-1.055,1.197-1.854,1.531c-0.798,0.333-1.793,0.501-2.985,0.501c-1.735,0-3.067-0.401-3.998-1.203
				c-0.93-0.801-1.484-1.97-1.665-3.505l2.696-0.262c0.161,0.904,0.491,1.568,0.987,1.993c0.496,0.425,1.166,0.636,2.008,0.636
				c0.893,0,1.565-0.189,2.017-0.567c0.452-0.376,0.678-0.819,0.678-1.324c0-0.323-0.095-0.599-0.286-0.827
				c-0.191-0.228-0.522-0.426-0.997-0.594c-0.325-0.113-1.064-0.313-2.218-0.599c-1.486-0.368-2.528-0.82-3.127-1.358
				c-0.842-0.754-1.263-1.675-1.263-2.76c0-0.699,0.197-1.353,0.594-1.961c0.396-0.609,0.967-1.072,1.712-1.391
				c0.746-0.318,1.646-0.476,2.701-0.476c1.722,0,3.019,0.376,3.889,1.132c0.871,0.754,1.328,1.762,1.371,3.024l-2.77,0.121
				C93.101,72.709,92.848,72.204,92.457,71.894L92.457,71.894z"/>
		</defs>
		<use xlink:href="#SVGID_8_"  overflow="visible" fill-rule="evenodd" clip-rule="evenodd"/>
		<clipPath id="SVGID_9_">
			<use xlink:href="#SVGID_8_"  overflow="visible"/>
		</clipPath>
		
			<use xlink:href="#SVGID_8_"  overflow="visible" fill-rule="evenodd" clip-rule="evenodd" fill="none" stroke="#000000" stroke-width="0.5" stroke-miterlimit="10"/>
	</g>
	<linearGradient id="SVGID_10_" gradientUnits="userSpaceOnUse" x1="95.8601" y1="108.8589" x2="35.1394" y2="22.1408">
		<stop  offset="0" style="stop-color:#000000;stop-opacity:0"/>
		<stop  offset="1" style="stop-color:#FFFFFF;stop-opacity:0.25"/>
	</linearGradient>
	<path fill-rule="evenodd" clip-rule="evenodd" fill="url(#SVGID_10_)" d="M71.428,5.262l54.309,54.311
		c3.301,3.301,3.301,8.654,0,11.955l-54.208,54.208c-3.301,3.303-8.654,3.303-11.955,0L5.263,71.427
		c-3.301-3.301-3.301-8.654,0-11.955L59.471,5.262C62.772,1.961,68.126,1.961,71.428,5.262L71.428,5.262z"/>
</g>
<g id="normal">
	<g>
		<defs>
			<path id="SVGID_11_" d="M72.428,6.262l54.309,54.311c3.301,3.301,3.301,8.654,0,11.955l-54.208,54.208
				c-3.301,3.303-8.654,3.303-11.955,0L6.263,72.427c-3.301-3.301-3.301-8.654,0-11.955L60.471,6.262
				C63.772,2.961,69.126,2.961,72.428,6.262L72.428,6.262z"/>
		</defs>
		<defs>
			<path id="SVGID_12_" d="M71.428,5.262l54.309,54.311c3.301,3.301,3.301,8.654,0,11.955l-54.208,54.208
				c-3.301,3.303-8.654,3.303-11.955,0L5.263,71.427c-3.301-3.301-3.301-8.654,0-11.955L59.471,5.262
				C62.772,1.961,68.126,1.961,71.428,5.262L71.428,5.262z"/>
		</defs>
		<linearGradient id="SVGID_13_" gradientUnits="userSpaceOnUse" x1="3.7869" y1="66.5" x2="129.2131" y2="66.5">
			<stop  offset="0" style="stop-color:#000000;stop-opacity:0.6"/>
			<stop  offset="1" style="stop-color:#000000;stop-opacity:0.6"/>
		</linearGradient>
		<use xlink:href="#SVGID_11_"  overflow="visible" fill-rule="evenodd" clip-rule="evenodd" fill="url(#SVGID_13_)"/>
		<use xlink:href="#SVGID_12_"  overflow="visible" fill-rule="evenodd" clip-rule="evenodd" fill="#FFDF0A"/>
		<clipPath id="SVGID_14_">
			<use xlink:href="#SVGID_11_"  overflow="visible"/>
		</clipPath>
		<clipPath id="SVGID_15_" clip-path="url(#SVGID_14_)">
			<use xlink:href="#SVGID_12_"  overflow="visible"/>
		</clipPath>
	</g>
	<g>
		<defs>
			<path id="SVGID_16_" d="M123.159,71.27l-51.888,51.888c-3.161,3.159-8.284,3.159-11.443,0L7.842,71.173
				c-3.161-3.161-3.161-8.284,0-11.445L59.729,7.842c3.161-3.159,8.284-3.159,11.445,0l51.985,51.985
				C126.319,62.988,126.319,68.111,123.159,71.27L123.159,71.27z M122.533,62.849L68.205,8.522c-1.463-1.465-3.838-1.465-5.301,0
				L8.576,62.849c-1.463,1.463-1.463,3.838,0,5.301l54.329,54.327c1.463,1.465,3.838,1.465,5.301,0l54.327-54.327
				C123.998,66.687,123.998,64.312,122.533,62.849L122.533,62.849z"/>
		</defs>
		<use xlink:href="#SVGID_16_"  overflow="visible" fill-rule="evenodd" clip-rule="evenodd"/>
		<clipPath id="SVGID_17_">
			<use xlink:href="#SVGID_16_"  overflow="visible"/>
		</clipPath>
	</g>
	<g>
		<defs>
			<path id="SVGID_18_" d="M44.477,56.492V42.881h2.772v11.298h6.889v2.313H44.477L44.477,56.492z M67.054,54.849
				c-1.203,1.25-2.814,1.877-4.829,1.877c-2.04,0-3.663-0.623-4.866-1.869c-1.205-1.244-1.807-2.959-1.807-5.143
				c0-1.397,0.208-2.571,0.627-3.519c0.312-0.699,0.738-1.326,1.278-1.882c0.539-0.556,1.132-0.967,1.775-1.236
				c0.854-0.362,1.84-0.543,2.957-0.543c2.022,0,3.639,0.627,4.854,1.882c1.213,1.253,1.82,2.998,1.82,5.231
				C68.861,51.864,68.259,53.597,67.054,54.849L67.054,54.849z M64.962,46.064c-0.69-0.774-1.605-1.161-2.747-1.161
				c-1.142,0-2.063,0.392-2.76,1.176c-0.699,0.782-1.048,1.964-1.048,3.542c0,1.554,0.359,2.731,1.076,3.534
				c0.717,0.801,1.628,1.202,2.733,1.202c1.105,0,2.011-0.397,2.72-1.194c0.707-0.795,1.061-1.988,1.061-3.579
				C65.996,48.011,65.652,46.838,64.962,46.064L64.962,46.064z M84.37,56.492h-2.938l-2.734-10.259l-2.723,10.259H72.97
				l-3.276-13.722h2.835l2.069,9.426l2.508-9.426h3.295l2.407,9.584l2.105-9.584h2.789L84.37,56.492L84.37,56.492z M40.664,71.693
				v11.4h-2.772v-11.4h-4.07v-2.321h10.904v2.321H40.664L40.664,71.693z M54.123,77.038c0.599,0.349,1.093,0.733,1.484,1.152
				c0.389,0.417,0.916,1.16,1.576,2.227l1.677,2.676h-3.314l-2.003-2.985c-0.711-1.068-1.198-1.74-1.46-2.017
				c-0.262-0.278-0.539-0.468-0.833-0.572c-0.292-0.103-0.757-0.153-1.394-0.153h-0.562v5.727h-2.77V69.373h5.831
				c1.467,0,2.533,0.123,3.196,0.368c0.665,0.247,1.197,0.685,1.596,1.316c0.399,0.63,0.599,1.35,0.599,2.161
				c0,1.03-0.302,1.88-0.908,2.55C56.232,76.44,55.328,76.864,54.123,77.038L54.123,77.038z M54.522,72.278
				c-0.247-0.284-0.594-0.464-1.045-0.538c-0.225-0.032-0.898-0.047-2.021-0.047h-2.163v3.482h2.05c1.329,0,2.159-0.057,2.491-0.17
				c0.329-0.111,0.59-0.305,0.777-0.58c0.187-0.275,0.279-0.619,0.279-1.03C54.89,72.936,54.767,72.562,54.522,72.278L54.522,72.278
				z M70.793,80.782v2.311H60.357V69.373h10.174v2.321h-7.404v3.041h6.889v2.313h-6.889v3.734H70.793L70.793,80.782z M83.58,80.782
				v2.311H73.143V69.373h10.174v2.321h-7.404v3.041h6.89v2.313h-6.89v3.734H83.58L83.58,80.782z M92.457,71.894
				c-0.389-0.309-0.974-0.464-1.754-0.464c-0.806,0-1.436,0.166-1.891,0.497c-0.292,0.212-0.439,0.496-0.439,0.851
				c0,0.325,0.137,0.602,0.412,0.833c0.349,0.292,1.198,0.599,2.545,0.917c1.349,0.318,2.345,0.648,2.991,0.987
				c0.644,0.341,1.15,0.804,1.515,1.395c0.365,0.59,0.548,1.318,0.548,2.185c0,0.785-0.218,1.521-0.654,2.208
				c-0.438,0.686-1.055,1.197-1.854,1.531c-0.798,0.333-1.793,0.501-2.985,0.501c-1.735,0-3.067-0.401-3.998-1.203
				c-0.93-0.801-1.484-1.97-1.665-3.505l2.696-0.262c0.161,0.904,0.491,1.568,0.987,1.993c0.496,0.425,1.166,0.636,2.008,0.636
				c0.893,0,1.565-0.189,2.017-0.567c0.452-0.376,0.678-0.819,0.678-1.324c0-0.323-0.095-0.599-0.286-0.827
				c-0.191-0.228-0.522-0.426-0.997-0.594c-0.325-0.113-1.064-0.313-2.218-0.599c-1.486-0.368-2.528-0.82-3.127-1.358
				c-0.842-0.754-1.263-1.675-1.263-2.76c0-0.699,0.197-1.353,0.594-1.961c0.396-0.609,0.967-1.072,1.712-1.391
				c0.746-0.318,1.646-0.476,2.701-0.476c1.722,0,3.019,0.376,3.889,1.132c0.871,0.754,1.328,1.762,1.371,3.024l-2.77,0.121
				C93.101,72.709,92.848,72.204,92.457,71.894L92.457,71.894z"/>
		</defs>
		<use xlink:href="#SVGID_18_"  overflow="visible" fill-rule="evenodd" clip-rule="evenodd"/>
		<clipPath id="SVGID_19_">
			<use xlink:href="#SVGID_18_"  overflow="visible"/>
		</clipPath>
		
			<use xlink:href="#SVGID_18_"  overflow="visible" fill-rule="evenodd" clip-rule="evenodd" fill="none" stroke="#000000" stroke-width="0.5" stroke-miterlimit="10"/>
	</g>
	<linearGradient id="SVGID_20_" gradientUnits="userSpaceOnUse" x1="95.8601" y1="108.8589" x2="35.1394" y2="22.1408">
		<stop  offset="0" style="stop-color:#000000;stop-opacity:0"/>
		<stop  offset="1" style="stop-color:#FFFFFF;stop-opacity:0.25"/>
	</linearGradient>
	<path fill-rule="evenodd" clip-rule="evenodd" fill="url(#SVGID_20_)" d="M71.428,5.262l54.309,54.311
		c3.301,3.301,3.301,8.654,0,11.955l-54.208,54.208c-3.301,3.303-8.654,3.303-11.955,0L5.263,71.427
		c-3.301-3.301-3.301-8.654,0-11.955L59.471,5.262C62.772,1.961,68.126,1.961,71.428,5.262L71.428,5.262z"/>
</g>
</svg>
