<?xml version="1.0" encoding="utf-8"?>
<!-- Generator: Adobe Illustrator 17.0.1, SVG Export Plug-In . SVG Version: 6.00 Build 0)  -->
<!DOCTYPE svg PUBLIC "-//W3C//DTD SVG 1.1//EN" "http://www.w3.org/Graphics/SVG/1.1/DTD/svg11.dtd">
<svg version="1.1" xmlns="http://www.w3.org/2000/svg" xmlns:xlink="http://www.w3.org/1999/xlink" x="0px" y="0px" width="132px"
	 height="132px" viewBox="0 0 132 132" enable-background="new 0 0 132 132" xml:space="preserve">
<g id="disabled">
	<g>
		<defs>
			<path id="SVGID_1_" d="M6.277,2.998h120.445c1.835,0,3.323,1.488,3.323,3.321v120.362c0,1.835-1.488,3.321-3.323,3.321H6.277
				c-1.833,0-3.321-1.486-3.321-3.321V6.319C2.956,4.485,4.443,2.998,6.277,2.998L6.277,2.998z"/>
		</defs>
		<defs>
			<path id="SVGID_2_" d="M5.277,1.998h120.445c1.835,0,3.323,1.488,3.323,3.321v120.362c0,1.835-1.488,3.321-3.323,3.321H5.277
				c-1.833,0-3.321-1.486-3.321-3.321V5.319C1.956,3.485,3.443,1.998,5.277,1.998L5.277,1.998z"/>
		</defs>
		<linearGradient id="SVGID_3_" gradientUnits="userSpaceOnUse" x1="2.9558" y1="66.5" x2="130.0442" y2="66.5">
			<stop  offset="0" style="stop-color:#000000;stop-opacity:0.6"/>
			<stop  offset="1" style="stop-color:#000000;stop-opacity:0.6"/>
		</linearGradient>
		<use xlink:href="#SVGID_1_"  overflow="visible" fill-rule="evenodd" clip-rule="evenodd" fill="url(#SVGID_3_)"/>
		<use xlink:href="#SVGID_2_"  overflow="visible" fill="#4A4A4A"/>
		<clipPath id="SVGID_4_">
			<use xlink:href="#SVGID_1_"  overflow="visible"/>
		</clipPath>
		<clipPath id="SVGID_5_" clip-path="url(#SVGID_4_)">
			<use xlink:href="#SVGID_2_"  overflow="visible"/>
		</clipPath>
	</g>
	<g>
		<defs>
			<path id="SVGID_6_" d="M7.264,3.979h116.62c1.79,0,3.24,1.449,3.24,3.238v116.544c0,1.79-1.45,3.24-3.24,3.24H7.264
				c-1.79,0-3.24-1.45-3.24-3.24V7.217C4.024,5.427,5.474,3.979,7.264,3.979L7.264,3.979z"/>
		</defs>
		<use xlink:href="#SVGID_6_"  overflow="visible" fill-rule="evenodd" clip-rule="evenodd" fill="#FFFFFF"/>
		<clipPath id="SVGID_7_">
			<use xlink:href="#SVGID_6_"  overflow="visible"/>
		</clipPath>
	</g>
	<g>
		<defs>
			<polygon id="SVGID_8_" points="9.11,8.968 122.088,8.968 122.088,122.032 9.11,122.032 9.11,8.968 			"/>
		</defs>
		<use xlink:href="#SVGID_8_"  overflow="visible" fill="#4A4A4A"/>
		<clipPath id="SVGID_9_">
			<use xlink:href="#SVGID_8_"  overflow="visible"/>
		</clipPath>
	</g>
	<g>
		<defs>
			<path id="SVGID_10_" d="M71.891,71.182c5.928,0,10.282-0.352,13.063-1.055c2.781-0.703,5.655-2.126,8.618-4.272
				c2.964-2.147,5.257-5.094,6.882-8.84c1.623-3.747,2.436-7.591,2.436-11.532c0-5.621-1.521-10.361-4.568-14.226
				c-3.045-3.863-6.507-6.057-10.384-7.561c-3.878-1.502-9.471-2.253-16.78-2.253H33.038v87.199h18.739v-37.46H71.891L71.891,71.182
				z M51.593,35.472h22.381c4.424,0,7.724,0.956,9.896,2.869c2.172,1.912,3.259,4.488,3.259,7.727c0,2.772-0.976,5.556-2.923,7.701
				c-1.95,2.147-5.34,3.545-10.172,3.545H51.593V35.472L51.593,35.472z"/>
		</defs>
		<use xlink:href="#SVGID_10_"  overflow="visible" fill-rule="evenodd" clip-rule="evenodd" fill="#FFFFFF"/>
		<clipPath id="SVGID_11_">
			<use xlink:href="#SVGID_10_"  overflow="visible"/>
		</clipPath>
	</g>
	<linearGradient id="SVGID_12_" gradientUnits="userSpaceOnUse" x1="115.4934" y1="136.8984" x2="15.5063" y2="-5.898">
		<stop  offset="0" style="stop-color:#000000;stop-opacity:0"/>
		<stop  offset="1" style="stop-color:#FFFFFF;stop-opacity:0.25"/>
	</linearGradient>
	<path fill-rule="evenodd" clip-rule="evenodd" fill="url(#SVGID_12_)" d="M5.277,1.998h120.445c1.835,0,3.323,1.488,3.323,3.321
		v120.362c0,1.835-1.488,3.321-3.323,3.321H5.277c-1.833,0-3.321-1.486-3.321-3.321V5.319C1.956,3.485,3.443,1.998,5.277,1.998
		L5.277,1.998z"/>
</g>
<g id="normal">
	<g>
		<defs>
			<path id="SVGID_13_" d="M6.277,2.998h120.445c1.835,0,3.323,1.488,3.323,3.321v120.362c0,1.835-1.488,3.321-3.323,3.321H6.277
				c-1.833,0-3.321-1.486-3.321-3.321V6.319C2.956,4.485,4.443,2.998,6.277,2.998L6.277,2.998z"/>
		</defs>
		<defs>
			<path id="SVGID_14_" d="M5.277,1.998h120.445c1.835,0,3.323,1.488,3.323,3.321v120.362c0,1.835-1.488,3.321-3.323,3.321H5.277
				c-1.833,0-3.321-1.486-3.321-3.321V5.319C1.956,3.485,3.443,1.998,5.277,1.998L5.277,1.998z"/>
		</defs>
		<linearGradient id="SVGID_15_" gradientUnits="userSpaceOnUse" x1="2.9558" y1="66.5" x2="130.0442" y2="66.5">
			<stop  offset="0" style="stop-color:#000000;stop-opacity:0.6"/>
			<stop  offset="1" style="stop-color:#000000;stop-opacity:0.6"/>
		</linearGradient>
		<use xlink:href="#SVGID_13_"  overflow="visible" fill-rule="evenodd" clip-rule="evenodd" fill="url(#SVGID_15_)"/>
		<use xlink:href="#SVGID_14_"  overflow="visible" fill="#2E45B1"/>
		<clipPath id="SVGID_16_">
			<use xlink:href="#SVGID_13_"  overflow="visible"/>
		</clipPath>
		<clipPath id="SVGID_17_" clip-path="url(#SVGID_16_)">
			<use xlink:href="#SVGID_14_"  overflow="visible"/>
		</clipPath>
	</g>
	<g>
		<defs>
			<path id="SVGID_18_" d="M7.264,3.979h116.62c1.79,0,3.24,1.449,3.24,3.238v116.544c0,1.79-1.45,3.24-3.24,3.24H7.264
				c-1.79,0-3.24-1.45-3.24-3.24V7.217C4.024,5.427,5.474,3.979,7.264,3.979L7.264,3.979z"/>
		</defs>
		<use xlink:href="#SVGID_18_"  overflow="visible" fill-rule="evenodd" clip-rule="evenodd" fill="#FFFFFF"/>
		<clipPath id="SVGID_19_">
			<use xlink:href="#SVGID_18_"  overflow="visible"/>
		</clipPath>
	</g>
	<g>
		<defs>
			<polygon id="SVGID_20_" points="9.11,8.968 122.088,8.968 122.088,122.032 9.11,122.032 9.11,8.968 			"/>
		</defs>
		<use xlink:href="#SVGID_20_"  overflow="visible" fill="#2E45B1"/>
		<clipPath id="SVGID_21_">
			<use xlink:href="#SVGID_20_"  overflow="visible"/>
		</clipPath>
	</g>
	<g>
		<defs>
			<path id="SVGID_22_" d="M71.891,71.182c5.928,0,10.282-0.352,13.063-1.055c2.781-0.703,5.655-2.126,8.618-4.272
				c2.964-2.147,5.257-5.094,6.882-8.84c1.623-3.747,2.436-7.591,2.436-11.532c0-5.621-1.521-10.361-4.568-14.226
				c-3.045-3.863-6.507-6.057-10.384-7.561c-3.878-1.502-9.471-2.253-16.78-2.253H33.038v87.199h18.739v-37.46H71.891L71.891,71.182
				z M51.593,35.472h22.381c4.424,0,7.724,0.956,9.896,2.869c2.172,1.912,3.259,4.488,3.259,7.727c0,2.772-0.976,5.556-2.923,7.701
				c-1.95,2.147-5.34,3.545-10.172,3.545H51.593V35.472L51.593,35.472z"/>
		</defs>
		<use xlink:href="#SVGID_22_"  overflow="visible" fill-rule="evenodd" clip-rule="evenodd" fill="#FFFFFF"/>
		<clipPath id="SVGID_23_">
			<use xlink:href="#SVGID_22_"  overflow="visible"/>
		</clipPath>
	</g>
	<linearGradient id="SVGID_24_" gradientUnits="userSpaceOnUse" x1="115.4934" y1="136.8984" x2="15.5063" y2="-5.898">
		<stop  offset="0" style="stop-color:#000000;stop-opacity:0"/>
		<stop  offset="1" style="stop-color:#FFFFFF;stop-opacity:0.25"/>
	</linearGradient>
	<path fill-rule="evenodd" clip-rule="evenodd" fill="url(#SVGID_24_)" d="M5.277,1.998h120.445c1.835,0,3.323,1.488,3.323,3.321
		v120.362c0,1.835-1.488,3.321-3.323,3.321H5.277c-1.833,0-3.321-1.486-3.321-3.321V5.319C1.956,3.485,3.443,1.998,5.277,1.998
		L5.277,1.998z"/>
</g>
</svg>
