<?xml version="1.0" encoding="utf-8"?>
<!-- Generator: Adobe Illustrator 17.0.1, SVG Export Plug-In . SVG Version: 6.00 Build 0)  -->
<!DOCTYPE svg PUBLIC "-//W3C//DTD SVG 1.1//EN" "http://www.w3.org/Graphics/SVG/1.1/DTD/svg11.dtd">
<svg version="1.1" xmlns="http://www.w3.org/2000/svg" xmlns:xlink="http://www.w3.org/1999/xlink" x="0px" y="0px" width="132px"
	 height="132px" viewBox="0 0 132 132" enable-background="new 0 0 132 132" xml:space="preserve">
<g id="disabled">
	<g>
		<defs>
			<path id="SVGID_1_" d="M72.428,6.262l54.309,54.311c3.301,3.303,3.301,8.656,0,11.957l-54.208,54.206
				c-3.301,3.303-8.654,3.303-11.955,0L6.263,72.427c-3.301-3.301-3.301-8.654,0-11.955L60.471,6.262
				C63.772,2.961,69.126,2.961,72.428,6.262L72.428,6.262z"/>
		</defs>
		<defs>
			<path id="SVGID_2_" d="M71.428,5.262l54.309,54.311c3.301,3.303,3.301,8.656,0,11.957l-54.208,54.206
				c-3.301,3.303-8.654,3.303-11.955,0L5.263,71.427c-3.301-3.301-3.301-8.654,0-11.955L59.471,5.262
				C62.772,1.961,68.126,1.961,71.428,5.262L71.428,5.262z"/>
		</defs>
		<linearGradient id="SVGID_3_" gradientUnits="userSpaceOnUse" x1="3.7869" y1="66.5" x2="129.2131" y2="66.5">
			<stop  offset="0" style="stop-color:#000000;stop-opacity:0.6"/>
			<stop  offset="1" style="stop-color:#000000;stop-opacity:0.6"/>
		</linearGradient>
		<use xlink:href="#SVGID_1_"  overflow="visible" fill-rule="evenodd" clip-rule="evenodd" fill="url(#SVGID_3_)"/>
		<use xlink:href="#SVGID_2_"  overflow="visible" fill-rule="evenodd" clip-rule="evenodd" fill="#D1D1D1"/>
		<clipPath id="SVGID_4_">
			<use xlink:href="#SVGID_1_"  overflow="visible"/>
		</clipPath>
		<clipPath id="SVGID_5_" clip-path="url(#SVGID_4_)">
			<use xlink:href="#SVGID_2_"  overflow="visible"/>
		</clipPath>
	</g>
	<g>
		<defs>
			<path id="SVGID_6_" d="M123.159,71.272l-51.888,51.887c-3.161,3.161-8.284,3.161-11.443,0L7.842,71.173
				c-3.161-3.159-3.161-8.284,0-11.443L59.729,7.842c3.161-3.159,8.284-3.159,11.445,0l51.985,51.985
				C126.319,62.988,126.319,68.111,123.159,71.272L123.159,71.272z M122.533,62.849L68.205,8.52c-1.463-1.463-3.838-1.463-5.301,0
				L8.576,62.849c-1.463,1.465-1.463,3.838,0,5.301l54.329,54.327c1.463,1.465,3.838,1.465,5.301,0l54.327-54.327
				C123.998,66.687,123.998,64.314,122.533,62.849L122.533,62.849z"/>
		</defs>
		<use xlink:href="#SVGID_6_"  overflow="visible" fill-rule="evenodd" clip-rule="evenodd"/>
		<clipPath id="SVGID_7_">
			<use xlink:href="#SVGID_6_"  overflow="visible"/>
		</clipPath>
	</g>
	<g>
		<defs>
			<path id="SVGID_8_" d="M98.084,54.082c-5.017-2.491-10.713-2.063-15.215,0.564l-5.307-6.924l0.756-2.021
				c2.36-0.452,5.504-2.36,5.698-3.053c0.145-0.517-0.005-1.303-0.745-1.326l-12.18,0.856c-0.567,0.027-0.961,0.103-1.105,0.622
				c-0.147,0.517,0.275,1.009,0.791,1.153c0.249,0.443,2.734,0.955,4.805,1.539l-0.291,1.034l-22.819,0.286l2.313-6.239
				l-1.559-1.743l0.706-0.522l6.007-0.173l0.023-2.064l-6.966,0.275l-3.192,2.079l2.053,2.628l-4.883,13.341
				c-0.173-0.094-0.354-0.173-0.531-0.258c-7.929-3.936-17.547-0.699-21.483,7.231c-3.935,7.93-0.696,17.549,7.233,21.483
				c7.929,3.935,17.549,0.698,21.483-7.231c3.443-6.94,1.394-15.173-4.482-19.757l0.867-2.468c0,0,15.636,17.668,16.58,18.941
				l0.011,0.024c-0.179,0.32-0.283,0.686-0.283,1.077c0,1.074,0.764,1.969,1.777,2.172l0.615,3.905l-0.917,0.107l0.081,1.698
				l3.618-0.286l-0.079-1.696l-1.176,0.095l-0.632-4.057c0.649-0.359,1.095-1.035,1.139-1.82l0.1-0.15l4.635-0.775
				c1.16,4.267,4.028,8.045,8.302,10.167c7.93,3.936,17.547,0.696,21.483-7.233C109.251,67.635,106.013,58.018,98.084,54.082
				 M103.676,72.01c-1.969,7.01-9.248,11.09-16.255,9.121c-4.547-1.279-7.864-4.794-9.093-9.017l11.936-2.461
				c0.296,0.27,0.593,0.539,0.938,0.636c1.034,0.292,2.14-0.328,2.431-1.363c0.291-1.035-0.329-2.14-1.363-2.431l-7.762-9.529
				c2.949-1.665,6.535-2.2,10.049-1.21C101.565,57.726,105.648,65.005,103.676,72.01L103.676,72.01z M78.3,64.874
				c0.72-2.565,2.153-4.737,4.023-6.365l7.267,8.906l-11.723,2.316C77.711,68.143,77.843,66.501,78.3,64.874L78.3,64.874z
				 M75.071,70.216l-4.971,0.73l6.464-20.338l4.03,5.655c-1.61,1.368-2.993,3.038-3.991,5.051
				C75.181,64.175,74.739,67.26,75.071,70.216L75.071,70.216z M51.526,49.522l22.817-0.284l-5.727,19.664l-0.378-2.557l0.935-0.129
				l-0.082-1.699l-3.616,0.286l0.081,1.698l1.131-0.053l0.405,2.534l-16.079-18.3L51.526,49.522L51.526,49.522z M51.934,71.979
				c-1.933,6.874-9.071,10.876-15.945,8.946c-6.871-1.933-10.876-9.074-8.945-15.946c1.935-6.871,9.072-10.876,15.945-8.943
				c1.021,0.286,1.975,0.688,2.859,1.184l-0.977,2.72c-1.016,2.969-3.863,5.593-5.172,6.785c-0.853-0.102-1.678,0.422-1.917,1.274
				c-0.265,0.942,0.283,1.924,1.226,2.187c0.943,0.266,1.924-0.281,2.19-1.226c0.06-0.218,0.074-0.434,0.053-0.646
				c1.893-1.408,4.852-4.115,5.937-7.351l0.819-2.211C51.636,61.935,53.328,67.027,51.934,71.979L51.934,71.979z"/>
		</defs>
		<use xlink:href="#SVGID_8_"  overflow="visible" fill-rule="evenodd" clip-rule="evenodd"/>
		<clipPath id="SVGID_9_">
			<use xlink:href="#SVGID_8_"  overflow="visible"/>
		</clipPath>
	</g>
	<linearGradient id="SVGID_10_" gradientUnits="userSpaceOnUse" x1="95.86" y1="108.859" x2="35.1393" y2="22.1408">
		<stop  offset="0" style="stop-color:#000000;stop-opacity:0"/>
		<stop  offset="1" style="stop-color:#FFFFFF;stop-opacity:0.25"/>
	</linearGradient>
	<path fill-rule="evenodd" clip-rule="evenodd" fill="url(#SVGID_10_)" d="M71.428,5.262l54.309,54.311
		c3.301,3.303,3.301,8.656,0,11.957l-54.208,54.206c-3.301,3.303-8.654,3.303-11.955,0L5.263,71.427
		c-3.301-3.301-3.301-8.654,0-11.955L59.471,5.262C62.772,1.961,68.126,1.961,71.428,5.262L71.428,5.262z"/>
</g>
<g id="normal">
	<g>
		<defs>
			<path id="SVGID_11_" d="M72.428,6.262l54.309,54.311c3.301,3.303,3.301,8.656,0,11.957l-54.208,54.206
				c-3.301,3.303-8.654,3.303-11.955,0L6.263,72.427c-3.301-3.301-3.301-8.654,0-11.955L60.471,6.262
				C63.772,2.961,69.126,2.961,72.428,6.262L72.428,6.262z"/>
		</defs>
		<defs>
			<path id="SVGID_12_" d="M71.428,5.262l54.309,54.311c3.301,3.303,3.301,8.656,0,11.957l-54.208,54.206
				c-3.301,3.303-8.654,3.303-11.955,0L5.263,71.427c-3.301-3.301-3.301-8.654,0-11.955L59.471,5.262
				C62.772,1.961,68.126,1.961,71.428,5.262L71.428,5.262z"/>
		</defs>
		<linearGradient id="SVGID_13_" gradientUnits="userSpaceOnUse" x1="3.7869" y1="66.5" x2="129.2131" y2="66.5">
			<stop  offset="0" style="stop-color:#000000;stop-opacity:0.6"/>
			<stop  offset="1" style="stop-color:#000000;stop-opacity:0.6"/>
		</linearGradient>
		<use xlink:href="#SVGID_11_"  overflow="visible" fill-rule="evenodd" clip-rule="evenodd" fill="url(#SVGID_13_)"/>
		<use xlink:href="#SVGID_12_"  overflow="visible" fill-rule="evenodd" clip-rule="evenodd" fill="#FFDF0A"/>
		<clipPath id="SVGID_14_">
			<use xlink:href="#SVGID_11_"  overflow="visible"/>
		</clipPath>
		<clipPath id="SVGID_15_" clip-path="url(#SVGID_14_)">
			<use xlink:href="#SVGID_12_"  overflow="visible"/>
		</clipPath>
	</g>
	<g>
		<defs>
			<path id="SVGID_16_" d="M123.159,71.272l-51.888,51.887c-3.161,3.161-8.284,3.161-11.443,0L7.842,71.173
				c-3.161-3.159-3.161-8.284,0-11.443L59.729,7.842c3.161-3.159,8.284-3.159,11.445,0l51.985,51.985
				C126.319,62.988,126.319,68.111,123.159,71.272L123.159,71.272z M122.533,62.849L68.205,8.52c-1.463-1.463-3.838-1.463-5.301,0
				L8.576,62.849c-1.463,1.465-1.463,3.838,0,5.301l54.329,54.327c1.463,1.465,3.838,1.465,5.301,0l54.327-54.327
				C123.998,66.687,123.998,64.314,122.533,62.849L122.533,62.849z"/>
		</defs>
		<use xlink:href="#SVGID_16_"  overflow="visible" fill-rule="evenodd" clip-rule="evenodd"/>
		<clipPath id="SVGID_17_">
			<use xlink:href="#SVGID_16_"  overflow="visible"/>
		</clipPath>
	</g>
	<g>
		<defs>
			<path id="SVGID_18_" d="M98.084,54.082c-5.017-2.491-10.713-2.063-15.215,0.564l-5.307-6.924l0.756-2.021
				c2.36-0.452,5.504-2.36,5.698-3.053c0.145-0.517-0.005-1.303-0.745-1.326l-12.18,0.856c-0.567,0.027-0.961,0.103-1.105,0.622
				c-0.147,0.517,0.275,1.009,0.791,1.153c0.249,0.443,2.734,0.955,4.805,1.539l-0.291,1.034l-22.819,0.286l2.313-6.239
				l-1.559-1.743l0.706-0.522l6.007-0.173l0.023-2.064l-6.966,0.275l-3.192,2.079l2.053,2.628l-4.883,13.341
				c-0.173-0.094-0.354-0.173-0.531-0.258c-7.929-3.936-17.547-0.699-21.483,7.231c-3.935,7.93-0.696,17.549,7.233,21.483
				c7.929,3.935,17.549,0.698,21.483-7.231c3.443-6.94,1.394-15.173-4.482-19.757l0.867-2.468c0,0,15.636,17.668,16.58,18.941
				l0.011,0.024c-0.179,0.32-0.283,0.686-0.283,1.077c0,1.074,0.764,1.969,1.777,2.172l0.615,3.905l-0.917,0.107l0.081,1.698
				l3.618-0.286l-0.079-1.696l-1.176,0.095l-0.632-4.057c0.649-0.359,1.095-1.035,1.139-1.82l0.1-0.15l4.635-0.775
				c1.16,4.267,4.028,8.045,8.302,10.167c7.93,3.936,17.547,0.696,21.483-7.233C109.251,67.635,106.013,58.018,98.084,54.082
				 M103.676,72.01c-1.969,7.01-9.248,11.09-16.255,9.121c-4.547-1.279-7.864-4.794-9.093-9.017l11.936-2.461
				c0.296,0.27,0.593,0.539,0.938,0.636c1.034,0.292,2.14-0.328,2.431-1.363c0.291-1.035-0.329-2.14-1.363-2.431l-7.762-9.529
				c2.949-1.665,6.535-2.2,10.049-1.21C101.565,57.726,105.648,65.005,103.676,72.01L103.676,72.01z M78.3,64.874
				c0.72-2.565,2.153-4.737,4.023-6.365l7.267,8.906l-11.723,2.316C77.711,68.143,77.843,66.501,78.3,64.874L78.3,64.874z
				 M75.071,70.216l-4.971,0.73l6.464-20.338l4.03,5.655c-1.61,1.368-2.993,3.038-3.991,5.051
				C75.181,64.175,74.739,67.26,75.071,70.216L75.071,70.216z M51.526,49.522l22.817-0.284l-5.727,19.664l-0.378-2.557l0.935-0.129
				l-0.082-1.699l-3.616,0.286l0.081,1.698l1.131-0.053l0.405,2.534l-16.079-18.3L51.526,49.522L51.526,49.522z M51.934,71.979
				c-1.933,6.874-9.071,10.876-15.945,8.946c-6.871-1.933-10.876-9.074-8.945-15.946c1.935-6.871,9.072-10.876,15.945-8.943
				c1.021,0.286,1.975,0.688,2.859,1.184l-0.977,2.72c-1.016,2.969-3.863,5.593-5.172,6.785c-0.853-0.102-1.678,0.422-1.917,1.274
				c-0.265,0.942,0.283,1.924,1.226,2.187c0.943,0.266,1.924-0.281,2.19-1.226c0.06-0.218,0.074-0.434,0.053-0.646
				c1.893-1.408,4.852-4.115,5.937-7.351l0.819-2.211C51.636,61.935,53.328,67.027,51.934,71.979L51.934,71.979z"/>
		</defs>
		<use xlink:href="#SVGID_18_"  overflow="visible" fill-rule="evenodd" clip-rule="evenodd"/>
		<clipPath id="SVGID_19_">
			<use xlink:href="#SVGID_18_"  overflow="visible"/>
		</clipPath>
	</g>
	<linearGradient id="SVGID_20_" gradientUnits="userSpaceOnUse" x1="95.86" y1="108.859" x2="35.1393" y2="22.1408">
		<stop  offset="0" style="stop-color:#000000;stop-opacity:0"/>
		<stop  offset="1" style="stop-color:#FFFFFF;stop-opacity:0.25"/>
	</linearGradient>
	<path fill-rule="evenodd" clip-rule="evenodd" fill="url(#SVGID_20_)" d="M71.428,5.262l54.309,54.311
		c3.301,3.303,3.301,8.656,0,11.957l-54.208,54.206c-3.301,3.303-8.654,3.303-11.955,0L5.263,71.427
		c-3.301-3.301-3.301-8.654,0-11.955L59.471,5.262C62.772,1.961,68.126,1.961,71.428,5.262L71.428,5.262z"/>
</g>
</svg>
