<?xml version="1.0" encoding="utf-8"?>
<!-- Generator: Adobe Illustrator 17.0.1, SVG Export Plug-In . SVG Version: 6.00 Build 0)  -->
<!DOCTYPE svg PUBLIC "-//W3C//DTD SVG 1.1//EN" "http://www.w3.org/Graphics/SVG/1.1/DTD/svg11.dtd">
<svg version="1.1" xmlns="http://www.w3.org/2000/svg" xmlns:xlink="http://www.w3.org/1999/xlink" x="0px" y="0px" width="132px"
	 height="132px" viewBox="0 0 132 132" enable-background="new 0 0 132 132" xml:space="preserve">
<g id="disabled">
	<g>
		<defs>
			<path id="SVGID_1_" d="M69.079,11.929c8.814,15.267,50.344,86.96,60.048,103.765c1.33,2.304-0.734,6.7-3.317,6.7
				c-18.949,0-99.899,0-118.152,0c-4.317,0-5.267-2.882-3.036-6.747C14.33,98.833,55.426,27.689,64.51,11.955
				C65.49,10.257,68.001,10.065,69.079,11.929L69.079,11.929z"/>
		</defs>
		<defs>
			<path id="SVGID_2_" d="M68.079,10.929c8.814,15.267,50.344,86.96,60.048,103.765c1.33,2.304-0.734,6.7-3.317,6.7
				c-18.949,0-99.899,0-118.152,0c-4.317,0-5.267-2.882-3.036-6.747C13.33,97.833,54.426,26.689,63.51,10.955
				C64.49,9.257,67.001,9.065,68.079,10.929L68.079,10.929z"/>
		</defs>
		<linearGradient id="SVGID_3_" gradientUnits="userSpaceOnUse" x1="3.4569" y1="66.5" x2="129.5431" y2="66.5">
			<stop  offset="0" style="stop-color:#000000;stop-opacity:0.6"/>
			<stop  offset="1" style="stop-color:#000000;stop-opacity:0.6"/>
		</linearGradient>
		<use xlink:href="#SVGID_1_"  overflow="visible" fill-rule="evenodd" clip-rule="evenodd" fill="url(#SVGID_3_)"/>
		<use xlink:href="#SVGID_2_"  overflow="visible" fill="#AFAFAF"/>
		<clipPath id="SVGID_4_">
			<use xlink:href="#SVGID_1_"  overflow="visible"/>
		</clipPath>
		<clipPath id="SVGID_5_" clip-path="url(#SVGID_4_)">
			<use xlink:href="#SVGID_2_"  overflow="visible"/>
		</clipPath>
	</g>
	<g>
		<defs>
			<path id="SVGID_6_" d="M67.311,16.121c8.417,14.578,48.069,83.027,57.333,99.072c0.934,1.618-0.111,3.347-1.751,3.347
				c-18.091,0-97.413,0-114.842,0c-1.738,0-2.384-1.748-1.434-3.392c9.268-16.055,48.505-83.98,57.178-99.002
				C64.729,14.525,66.283,14.341,67.311,16.121L67.311,16.121z"/>
		</defs>
		<use xlink:href="#SVGID_6_"  overflow="visible" fill-rule="evenodd" clip-rule="evenodd"/>
		<clipPath id="SVGID_7_">
			<use xlink:href="#SVGID_6_"  overflow="visible"/>
		</clipPath>
	</g>
	<g>
		<defs>
			<path id="SVGID_8_" d="M66.807,37.074c5.941,10.289,33.928,57.822,40.466,69.146c0.659,1.142-0.079,2.361-1.236,2.361
				c-12.769,0-68.754,0-81.055,0c-1.228,0-1.683-1.232-1.013-2.394c6.541-11.33,34.235-58.496,40.356-69.098
				C64.986,35.947,66.081,35.818,66.807,37.074L66.807,37.074z"/>
		</defs>
		<use xlink:href="#SVGID_8_"  overflow="visible" fill="#AFAFAF"/>
		<clipPath id="SVGID_9_">
			<use xlink:href="#SVGID_8_"  overflow="visible"/>
		</clipPath>
	</g>
	<g>
		<defs>
			<polygon id="SVGID_10_" points="88.133,87.548 83.489,87.548 85.473,90.344 81.511,93.157 77.528,87.548 70.788,87.548 
				74.835,93.894 81.702,94.223 81.469,99.077 78.035,98.914 80.374,102.582 76.447,105.085 74.198,101.558 73.012,104.496 
				68.504,102.677 70.988,96.523 66.787,89.938 62.531,96.859 65.203,103.016 60.745,104.949 59.425,101.91 57.085,105.718 
				53.117,103.278 55.434,99.51 52.149,99.752 51.792,94.905 58.573,94.406 62.79,87.548 55.032,87.548 51.049,93.157 
				47.086,90.344 49.071,87.548 44.529,87.548 44.529,82.89 48.927,82.89 47.086,80.299 51.049,77.484 54.888,82.89 62.294,82.89 
				58.758,77.345 52.073,77.027 52.306,72.171 55.557,72.327 53.002,68.319 56.928,65.814 59.509,69.86 60.763,66.753 
				65.271,68.571 62.719,74.893 66.716,81.163 70.345,75.261 67.559,68.839 72.019,66.906 73.451,70.209 75.956,66.134 
				79.925,68.573 77.617,72.325 80.613,72.105 80.97,76.952 74.479,77.429 71.121,82.89 77.672,82.89 81.511,77.484 85.473,80.299 
				83.633,82.89 88.133,82.89 88.133,87.548 			"/>
		</defs>
		<use xlink:href="#SVGID_10_"  overflow="visible" fill-rule="evenodd" clip-rule="evenodd"/>
		<clipPath id="SVGID_11_">
			<use xlink:href="#SVGID_10_"  overflow="visible"/>
		</clipPath>
	</g>
	<linearGradient id="SVGID_12_" gradientUnits="userSpaceOnUse" x1="91.444" y1="145.3096" x2="18.9822" y2="41.8234">
		<stop  offset="0" style="stop-color:#000000;stop-opacity:0"/>
		<stop  offset="1" style="stop-color:#FFFFFF;stop-opacity:0.25"/>
	</linearGradient>
	<path fill-rule="evenodd" clip-rule="evenodd" fill="url(#SVGID_12_)" d="M68.079,10.929c8.814,15.267,50.344,86.96,60.048,103.765
		c1.33,2.304-0.734,6.7-3.317,6.7c-18.949,0-99.899,0-118.152,0c-4.317,0-5.267-2.882-3.036-6.747
		C13.33,97.833,54.426,26.689,63.51,10.955C64.49,9.257,67.001,9.065,68.079,10.929L68.079,10.929z"/>
</g>
<g id="normal">
	<g>
		<defs>
			<path id="SVGID_13_" d="M69.079,11.929c8.814,15.267,50.344,86.96,60.048,103.765c1.33,2.304-0.734,6.7-3.317,6.7
				c-18.949,0-99.899,0-118.152,0c-4.317,0-5.267-2.882-3.036-6.747C14.33,98.833,55.426,27.689,64.51,11.955
				C65.49,10.257,68.001,10.065,69.079,11.929L69.079,11.929z"/>
		</defs>
		<defs>
			<path id="SVGID_14_" d="M68.079,10.929c8.814,15.267,50.344,86.96,60.048,103.765c1.33,2.304-0.734,6.7-3.317,6.7
				c-18.949,0-99.899,0-118.152,0c-4.317,0-5.267-2.882-3.036-6.747C13.33,97.833,54.426,26.689,63.51,10.955
				C64.49,9.257,67.001,9.065,68.079,10.929L68.079,10.929z"/>
		</defs>
		<linearGradient id="SVGID_15_" gradientUnits="userSpaceOnUse" x1="3.4569" y1="66.5" x2="129.5431" y2="66.5">
			<stop  offset="0" style="stop-color:#000000;stop-opacity:0.6"/>
			<stop  offset="1" style="stop-color:#000000;stop-opacity:0.6"/>
		</linearGradient>
		<use xlink:href="#SVGID_13_"  overflow="visible" fill-rule="evenodd" clip-rule="evenodd" fill="url(#SVGID_15_)"/>
		<use xlink:href="#SVGID_14_"  overflow="visible" fill="#FA9F37"/>
		<clipPath id="SVGID_16_">
			<use xlink:href="#SVGID_13_"  overflow="visible"/>
		</clipPath>
		<clipPath id="SVGID_17_" clip-path="url(#SVGID_16_)">
			<use xlink:href="#SVGID_14_"  overflow="visible"/>
		</clipPath>
	</g>
	<g>
		<defs>
			<path id="SVGID_18_" d="M67.311,16.121c8.417,14.578,48.069,83.027,57.333,99.072c0.934,1.618-0.111,3.347-1.751,3.347
				c-18.091,0-97.413,0-114.842,0c-1.738,0-2.384-1.748-1.434-3.392c9.268-16.055,48.505-83.98,57.178-99.002
				C64.729,14.525,66.283,14.341,67.311,16.121L67.311,16.121z"/>
		</defs>
		<use xlink:href="#SVGID_18_"  overflow="visible" fill-rule="evenodd" clip-rule="evenodd"/>
		<clipPath id="SVGID_19_">
			<use xlink:href="#SVGID_18_"  overflow="visible"/>
		</clipPath>
	</g>
	<g>
		<defs>
			<path id="SVGID_20_" d="M66.807,37.074c5.941,10.289,33.928,57.822,40.466,69.146c0.659,1.142-0.079,2.361-1.236,2.361
				c-12.769,0-68.754,0-81.055,0c-1.228,0-1.683-1.232-1.013-2.394c6.541-11.33,34.235-58.496,40.356-69.098
				C64.986,35.947,66.081,35.818,66.807,37.074L66.807,37.074z"/>
		</defs>
		<use xlink:href="#SVGID_20_"  overflow="visible" fill="#FA9F37"/>
		<clipPath id="SVGID_21_">
			<use xlink:href="#SVGID_20_"  overflow="visible"/>
		</clipPath>
	</g>
	<g>
		<defs>
			<polygon id="SVGID_22_" points="88.133,87.548 83.489,87.548 85.473,90.344 81.511,93.157 77.528,87.548 70.788,87.548 
				74.835,93.894 81.702,94.223 81.469,99.077 78.035,98.914 80.374,102.582 76.447,105.085 74.198,101.558 73.012,104.496 
				68.504,102.677 70.988,96.523 66.787,89.938 62.531,96.859 65.203,103.016 60.745,104.949 59.425,101.91 57.085,105.718 
				53.117,103.278 55.434,99.51 52.149,99.752 51.792,94.905 58.573,94.406 62.79,87.548 55.032,87.548 51.049,93.157 
				47.086,90.344 49.071,87.548 44.529,87.548 44.529,82.89 48.927,82.89 47.086,80.299 51.049,77.484 54.888,82.89 62.294,82.89 
				58.758,77.345 52.073,77.027 52.306,72.171 55.557,72.327 53.002,68.319 56.928,65.814 59.509,69.86 60.763,66.753 
				65.271,68.571 62.719,74.893 66.716,81.163 70.345,75.261 67.559,68.839 72.019,66.906 73.451,70.209 75.956,66.134 
				79.925,68.573 77.617,72.325 80.613,72.105 80.97,76.952 74.479,77.429 71.121,82.89 77.672,82.89 81.511,77.484 85.473,80.299 
				83.633,82.89 88.133,82.89 88.133,87.548 			"/>
		</defs>
		<use xlink:href="#SVGID_22_"  overflow="visible" fill-rule="evenodd" clip-rule="evenodd"/>
		<clipPath id="SVGID_23_">
			<use xlink:href="#SVGID_22_"  overflow="visible"/>
		</clipPath>
	</g>
	<linearGradient id="SVGID_24_" gradientUnits="userSpaceOnUse" x1="91.444" y1="145.3096" x2="18.9822" y2="41.8234">
		<stop  offset="0" style="stop-color:#000000;stop-opacity:0"/>
		<stop  offset="1" style="stop-color:#FFFFFF;stop-opacity:0.25"/>
	</linearGradient>
	<path fill-rule="evenodd" clip-rule="evenodd" fill="url(#SVGID_24_)" d="M68.079,10.929c8.814,15.267,50.344,86.96,60.048,103.765
		c1.33,2.304-0.734,6.7-3.317,6.7c-18.949,0-99.899,0-118.152,0c-4.317,0-5.267-2.882-3.036-6.747
		C13.33,97.833,54.426,26.689,63.51,10.955C64.49,9.257,67.001,9.065,68.079,10.929L68.079,10.929z"/>
</g>
</svg>
