<?xml version="1.0" encoding="utf-8"?>
<!-- Generator: Adobe Illustrator 17.0.1, SVG Export Plug-In . SVG Version: 6.00 Build 0)  -->
<!DOCTYPE svg PUBLIC "-//W3C//DTD SVG 1.1//EN" "http://www.w3.org/Graphics/SVG/1.1/DTD/svg11.dtd">
<svg version="1.1" xmlns="http://www.w3.org/2000/svg" xmlns:xlink="http://www.w3.org/1999/xlink" x="0px" y="0px" width="132px"
	 height="132px" viewBox="0 0 132 132" enable-background="new 0 0 132 132" xml:space="preserve">
<g id="disabled">
	<g>
		<defs>
			<path id="SVGID_1_" d="M6.8,20.97h119.402c1.833,0,3.321,1.488,3.321,3.322v84.416c0,1.835-1.488,3.321-3.321,3.321H6.8
				c-1.835,0-3.322-1.486-3.322-3.321V24.293C3.478,22.458,4.965,20.97,6.8,20.97L6.8,20.97z"/>
		</defs>
		<defs>
			<path id="SVGID_2_" d="M5.8,19.97h119.402c1.833,0,3.321,1.488,3.321,3.322v84.416c0,1.835-1.488,3.321-3.321,3.321H5.8
				c-1.835,0-3.322-1.486-3.322-3.321V23.293C2.478,21.458,3.965,19.97,5.8,19.97L5.8,19.97z"/>
		</defs>
		<linearGradient id="SVGID_3_" gradientUnits="userSpaceOnUse" x1="3.4775" y1="66.5" x2="129.5225" y2="66.5">
			<stop  offset="0" style="stop-color:#000000;stop-opacity:0.6"/>
			<stop  offset="1" style="stop-color:#000000;stop-opacity:0.6"/>
		</linearGradient>
		<use xlink:href="#SVGID_1_"  overflow="visible" fill-rule="evenodd" clip-rule="evenodd" fill="url(#SVGID_3_)"/>
		<use xlink:href="#SVGID_2_"  overflow="visible" fill-rule="evenodd" clip-rule="evenodd" fill="#FFFFFF"/>
		<clipPath id="SVGID_4_">
			<use xlink:href="#SVGID_1_"  overflow="visible"/>
		</clipPath>
		<clipPath id="SVGID_5_" clip-path="url(#SVGID_4_)">
			<use xlink:href="#SVGID_2_"  overflow="visible"/>
		</clipPath>
	</g>
	<g>
		<defs>
			<path id="SVGID_6_" d="M5.8,110.03c-1.281,0-2.323-1.042-2.323-2.321V23.293c0-1.281,1.042-2.323,2.323-2.323h119.402
				c1.279,0,2.321,1.042,2.321,2.323v84.416c0,1.279-1.042,2.321-2.321,2.321H5.8"/>
		</defs>
		<use xlink:href="#SVGID_6_"  overflow="visible" fill="#6B6B6B"/>
		<clipPath id="SVGID_7_">
			<use xlink:href="#SVGID_6_"  overflow="visible"/>
		</clipPath>
	</g>
	<g>
		<defs>
			<path id="SVGID_8_" d="M14.305,105.918c-3.767,0-6.83-3.064-6.83-6.83V31.813c0-3.768,3.064-6.832,6.83-6.832h102.309
				c3.767,0,6.83,3.064,6.83,6.832v67.274c0,3.767-3.064,6.83-6.83,6.83H14.305"/>
		</defs>
		<use xlink:href="#SVGID_8_"  overflow="visible" fill-rule="evenodd" clip-rule="evenodd" fill="#FFFFFF"/>
		<clipPath id="SVGID_9_">
			<use xlink:href="#SVGID_8_"  overflow="visible"/>
		</clipPath>
	</g>
	<g>
		<defs>
			<path id="SVGID_10_" d="M14.305,26.98h102.309c2.668,0,4.831,2.164,4.831,4.833v67.274c0,2.67-2.163,4.831-4.831,4.831H14.305
				c-2.668,0-4.831-2.161-4.831-4.831V31.813C9.474,29.145,11.637,26.98,14.305,26.98L14.305,26.98z"/>
		</defs>
		<use xlink:href="#SVGID_10_"  overflow="visible" fill="#6B6B6B"/>
		<clipPath id="SVGID_11_">
			<use xlink:href="#SVGID_10_"  overflow="visible"/>
		</clipPath>
	</g>
	<g>
		<defs>
			<path id="SVGID_12_" d="M30.5,78.964v11.3h-1.643v-11.3h-3.345v-1.639h8.318v1.639H30.5L30.5,78.964z M39.225,90.651
				c-2.814,0-3.876-3.192-3.876-6.646c0-1.974,0.281-3.771,0.937-4.954c0.955-1.727,2.096-1.92,2.94-1.92
				c1.94,0,2.956,1.586,3.424,3.138c0.344,1.145,0.439,2.662,0.439,3.56C43.089,86.914,42.322,90.651,39.225,90.651L39.225,90.651z
				 M39.258,78.681c-0.985,0-1.596,0.775-1.924,1.993c-0.218,0.775-0.344,1.92-0.344,3.279c0,1.638,0.204,5.094,2.205,5.094
				c1.626,0,2.252-1.886,2.252-5.165C41.446,82.172,41.306,78.681,39.258,78.681L39.258,78.681z M45.873,90.263V77.324h1.578v11.3
				h5.301v1.639H45.873L45.873,90.263z M55.427,90.263V77.324h1.58v11.3h5.301v1.639H55.427L55.427,90.263z M72.504,84.305h3.736
				v6.222h-0.562l-0.36-0.811c-0.141-0.334-0.25-0.457-0.344-0.457c-0.061,0-0.141,0.034-0.204,0.087
				c-0.061,0.071-0.171,0.194-0.249,0.265c-0.313,0.299-1.079,1.058-2.3,1.058c-0.468,0-1.517,0-2.486-1.358
				c-1.079-1.479-1.329-3.93-1.329-5.375c0-1.499,0.204-3.421,0.924-4.76c0.922-1.746,2.345-2.098,3.017-2.098
				c1.954,0,3.143,1.499,3.455,3.12l-1.484,0.352c-0.173-0.581-0.578-1.938-1.877-1.938c-0.407,0-1.58,0.176-2.127,2.29
				c-0.296,1.129-0.296,2.873-0.296,2.927c0,1.392,0.141,2.715,0.609,3.807c0.578,1.341,1.517,1.412,1.844,1.412
				c0.861,0,1.408-0.548,1.58-0.759c0.611-0.793,0.641-1.479,0.672-2.344h-2.219V84.305L72.504,84.305z M86.076,90.263l-0.782-2.697
				h-4.534l-0.719,2.697h-1.673l3.705-12.939h1.799l3.876,12.939H86.076L86.076,90.263z M83.028,79.474
				c-0.016-0.034-0.032-0.069-0.079-0.069s-0.061,0.052-0.078,0.087l-1.704,6.575h3.674L83.028,79.474L83.028,79.474z
				 M92.942,78.964v11.3h-1.641v-11.3h-3.347v-1.639h8.318v1.639H92.942L92.942,78.964z M106.188,88.624v1.639H98.76V77.324h7.131
				v1.586h-5.488v3.755h4.049v1.639h-4.018v4.319H106.188L106.188,88.624z"/>
		</defs>
		<use xlink:href="#SVGID_12_"  overflow="visible" fill-rule="evenodd" clip-rule="evenodd" fill="#FFFFFF"/>
		<clipPath id="SVGID_13_">
			<use xlink:href="#SVGID_12_"  overflow="visible"/>
		</clipPath>
		
			<use xlink:href="#SVGID_12_"  overflow="visible" fill-rule="evenodd" clip-rule="evenodd" fill="none" stroke="#FFFFFF" stroke-width="0.5" stroke-miterlimit="10"/>
	</g>
	<g>
		<defs>
			<path id="SVGID_14_" d="M42.99,60.089c1.806,1.841,3.917,3.267,6.331,4.279l-1.488,2.371c-2.482-1.111-4.682-2.597-6.596-4.458
				c-1.982,1.98-4.033,3.456-6.154,4.427l-1.531-2.34c2.67-1.261,4.647-2.657,5.934-4.188c-1.326-2.012-2.277-4.233-2.857-6.666
				l2.371-1.171c0.51,2.273,1.236,4.149,2.179,5.629c1.551-2.571,2.492-6.344,2.827-11.317H39.03
				c-0.942,3.003-2.116,5.629-3.519,7.88l-1.869-2.221c1.924-3.303,3.351-7.565,4.283-12.79l2.71,0.346
				c-0.149,1.111-0.452,2.483-0.914,4.114h9.203v2.671h-2.195C46.259,52.789,45.012,57.268,42.99,60.089L42.99,60.089z
				 M30.329,58.993c-2.071,1.271-4.285,2.347-6.64,3.229l-0.78-2.463c0.342-0.339,0.515-0.709,0.515-1.11V41.777h2.591v16.496
				c1.56-0.69,2.998-1.455,4.314-2.297V39.75h2.68v26.824h-2.68V58.993L30.329,58.993z M80.128,47.945
				c-0.05,2.113-0.376,3.5-0.98,4.165c-0.602,0.665-1.656,0.998-3.158,0.998c-0.402,0-0.859-0.019-1.368-0.06l-0.766-2.027
				c0.333,0.031,0.759,0.045,1.281,0.045c1.079,0,1.735-0.092,1.964-0.278c0.231-0.184,0.317-0.476,0.258-0.877h-5.345v3.167h-2.533
				v-3.167h-5.094c-0.893,1.691-2.62,3.017-5.181,3.978h17.755v8.014h-2.591v-5.808H60.62v5.808h-2.592v-7.716
				c-0.99,0.291-1.874,0.476-2.649,0.556l-1.119-2.252c3.582-0.51,5.958-1.371,7.126-2.581h-6.066l1.384-5.285h6.067v-1.29h-7.215
				v-1.996h7.215v-1.636h2.444v1.636h4.269v-1.636h2.533v1.636h6.493v5.283h-6.493v1.321H80.128L80.128,47.945z M58.942,46.624
				l-0.397,1.321h3.886c0.118-0.52,0.2-0.961,0.25-1.321H58.942L58.942,46.624z M69.482,43.337h-4.269v1.29h4.269V43.337
				L69.482,43.337z M69.482,46.624h-4.298c-0.04,0.551-0.113,0.992-0.221,1.321h4.519V46.624L69.482,46.624z M76.064,44.598v-1.261
				h-4.049v1.261H76.064L76.064,44.598z M65.058,60.929c0.623-0.89,1.013-2.08,1.171-3.573l2.723,0.121
				c-0.363,3.301-1.769,5.624-4.217,6.965c-2.45,1.341-5.55,2.096-9.298,2.266l-1.177-2.491c2.865-0.04,5.227-0.376,7.081-1.006
				C63.196,62.581,64.435,61.821,65.058,60.929L65.058,60.929z M80.73,64.802l-1.295,2.116c-3.72-1.57-7.376-2.781-10.968-3.633
				l1.09-2.176C73.404,61.96,77.128,63.192,80.73,64.802L80.73,64.802z M104.558,47.36v5.974h6.33v13.209h-2.68v-1.772h-7.625v1.772
				h-2.725V53.335h4.049V39.84h2.65v4.938h7.538v2.583H104.558L104.558,47.36z M100.583,55.856v6.425h7.625v-6.425H100.583
				L100.583,55.856z M96.71,47.645c-0.186,3.193-0.638,7.405-1.353,12.64c0.47-0.11,0.913-0.255,1.324-0.436l0.162,2.671
				c-4.083,1.471-7.504,2.528-10.261,3.167l-0.809-2.461c0.636-0.129,1.392-0.315,2.266-0.556c0.079-4.243-0.265-9.231-1.03-14.964
				l1.87-1.352h-2.812v-2.552h4.652c-0.087-0.48-0.491-1.615-1.207-3.408l2.473-0.959c0.472,1.021,0.992,2.476,1.56,4.367h4.167
				v2.552h-2.797L96.71,47.645L96.71,47.645z M89.452,46.354c0.717,5.173,1.1,10.348,1.148,15.522l2.077-0.675
				c0.903-5.325,1.437-10.272,1.604-14.846H89.452L89.452,46.354z"/>
		</defs>
		<use xlink:href="#SVGID_14_"  overflow="visible" fill-rule="evenodd" clip-rule="evenodd" fill="#FFFFFF"/>
		<clipPath id="SVGID_15_">
			<use xlink:href="#SVGID_14_"  overflow="visible"/>
		</clipPath>
	</g>
	<linearGradient id="SVGID_16_" gradientUnits="userSpaceOnUse" x1="106.8776" y1="124.5938" x2="24.1224" y2="6.4071">
		<stop  offset="0" style="stop-color:#000000;stop-opacity:0"/>
		<stop  offset="1" style="stop-color:#FFFFFF;stop-opacity:0.25"/>
	</linearGradient>
	<path fill-rule="evenodd" clip-rule="evenodd" fill="url(#SVGID_16_)" d="M5.8,19.97h119.402c1.833,0,3.321,1.488,3.321,3.322
		v84.416c0,1.835-1.488,3.321-3.321,3.321H5.8c-1.835,0-3.322-1.486-3.322-3.321V23.293C2.478,21.458,3.965,19.97,5.8,19.97
		L5.8,19.97z"/>
</g>
<g id="normal">
	<g>
		<defs>
			<path id="SVGID_17_" d="M6.8,20.97h119.402c1.833,0,3.321,1.488,3.321,3.322v84.416c0,1.835-1.488,3.321-3.321,3.321H6.8
				c-1.835,0-3.322-1.486-3.322-3.321V24.293C3.478,22.458,4.965,20.97,6.8,20.97L6.8,20.97z"/>
		</defs>
		<defs>
			<path id="SVGID_18_" d="M5.8,19.97h119.402c1.833,0,3.321,1.488,3.321,3.322v84.416c0,1.835-1.488,3.321-3.321,3.321H5.8
				c-1.835,0-3.322-1.486-3.322-3.321V23.293C2.478,21.458,3.965,19.97,5.8,19.97L5.8,19.97z"/>
		</defs>
		<linearGradient id="SVGID_19_" gradientUnits="userSpaceOnUse" x1="3.4775" y1="66.5" x2="129.5225" y2="66.5">
			<stop  offset="0" style="stop-color:#000000;stop-opacity:0.6"/>
			<stop  offset="1" style="stop-color:#000000;stop-opacity:0.6"/>
		</linearGradient>
		<use xlink:href="#SVGID_17_"  overflow="visible" fill-rule="evenodd" clip-rule="evenodd" fill="url(#SVGID_19_)"/>
		<use xlink:href="#SVGID_18_"  overflow="visible" fill-rule="evenodd" clip-rule="evenodd" fill="#FFFFFF"/>
		<clipPath id="SVGID_20_">
			<use xlink:href="#SVGID_17_"  overflow="visible"/>
		</clipPath>
		<clipPath id="SVGID_21_" clip-path="url(#SVGID_20_)">
			<use xlink:href="#SVGID_18_"  overflow="visible"/>
		</clipPath>
	</g>
	<g>
		<defs>
			<path id="SVGID_22_" d="M5.8,110.03c-1.281,0-2.323-1.042-2.323-2.321V23.293c0-1.281,1.042-2.323,2.323-2.323h119.402
				c1.279,0,2.321,1.042,2.321,2.323v84.416c0,1.279-1.042,2.321-2.321,2.321H5.8"/>
		</defs>
		<use xlink:href="#SVGID_22_"  overflow="visible" fill="#299251"/>
		<clipPath id="SVGID_23_">
			<use xlink:href="#SVGID_22_"  overflow="visible"/>
		</clipPath>
	</g>
	<g>
		<defs>
			<path id="SVGID_24_" d="M14.305,105.918c-3.767,0-6.83-3.064-6.83-6.83V31.813c0-3.768,3.064-6.832,6.83-6.832h102.309
				c3.767,0,6.83,3.064,6.83,6.832v67.274c0,3.767-3.064,6.83-6.83,6.83H14.305"/>
		</defs>
		<use xlink:href="#SVGID_24_"  overflow="visible" fill-rule="evenodd" clip-rule="evenodd" fill="#FFFFFF"/>
		<clipPath id="SVGID_25_">
			<use xlink:href="#SVGID_24_"  overflow="visible"/>
		</clipPath>
	</g>
	<g>
		<defs>
			<path id="SVGID_26_" d="M14.305,26.98h102.309c2.668,0,4.831,2.164,4.831,4.833v67.274c0,2.67-2.163,4.831-4.831,4.831H14.305
				c-2.668,0-4.831-2.161-4.831-4.831V31.813C9.474,29.145,11.637,26.98,14.305,26.98L14.305,26.98z"/>
		</defs>
		<use xlink:href="#SVGID_26_"  overflow="visible" fill="#299251"/>
		<clipPath id="SVGID_27_">
			<use xlink:href="#SVGID_26_"  overflow="visible"/>
		</clipPath>
	</g>
	<g>
		<defs>
			<path id="SVGID_28_" d="M30.5,78.964v11.3h-1.643v-11.3h-3.345v-1.639h8.318v1.639H30.5L30.5,78.964z M39.225,90.651
				c-2.814,0-3.876-3.192-3.876-6.646c0-1.974,0.281-3.771,0.937-4.954c0.955-1.727,2.096-1.92,2.94-1.92
				c1.94,0,2.956,1.586,3.424,3.138c0.344,1.145,0.439,2.662,0.439,3.56C43.089,86.914,42.322,90.651,39.225,90.651L39.225,90.651z
				 M39.258,78.681c-0.985,0-1.596,0.775-1.924,1.993c-0.218,0.775-0.344,1.92-0.344,3.279c0,1.638,0.204,5.094,2.205,5.094
				c1.626,0,2.252-1.886,2.252-5.165C41.446,82.172,41.306,78.681,39.258,78.681L39.258,78.681z M45.873,90.263V77.324h1.578v11.3
				h5.301v1.639H45.873L45.873,90.263z M55.427,90.263V77.324h1.58v11.3h5.301v1.639H55.427L55.427,90.263z M72.504,84.305h3.736
				v6.222h-0.562l-0.36-0.811c-0.141-0.334-0.25-0.457-0.344-0.457c-0.061,0-0.141,0.034-0.204,0.087
				c-0.061,0.071-0.171,0.194-0.249,0.265c-0.313,0.299-1.079,1.058-2.3,1.058c-0.468,0-1.517,0-2.486-1.358
				c-1.079-1.479-1.329-3.93-1.329-5.375c0-1.499,0.204-3.421,0.924-4.76c0.922-1.746,2.345-2.098,3.017-2.098
				c1.954,0,3.143,1.499,3.455,3.12l-1.484,0.352c-0.173-0.581-0.578-1.938-1.877-1.938c-0.407,0-1.58,0.176-2.127,2.29
				c-0.296,1.129-0.296,2.873-0.296,2.927c0,1.392,0.141,2.715,0.609,3.807c0.578,1.341,1.517,1.412,1.844,1.412
				c0.861,0,1.408-0.548,1.58-0.759c0.611-0.793,0.641-1.479,0.672-2.344h-2.219V84.305L72.504,84.305z M86.076,90.263l-0.782-2.697
				h-4.534l-0.719,2.697h-1.673l3.705-12.939h1.799l3.876,12.939H86.076L86.076,90.263z M83.028,79.474
				c-0.016-0.034-0.032-0.069-0.079-0.069s-0.061,0.052-0.078,0.087l-1.704,6.575h3.674L83.028,79.474L83.028,79.474z
				 M92.942,78.964v11.3h-1.641v-11.3h-3.347v-1.639h8.318v1.639H92.942L92.942,78.964z M106.188,88.624v1.639H98.76V77.324h7.131
				v1.586h-5.488v3.755h4.049v1.639h-4.018v4.319H106.188L106.188,88.624z"/>
		</defs>
		<use xlink:href="#SVGID_28_"  overflow="visible" fill-rule="evenodd" clip-rule="evenodd" fill="#FFFFFF"/>
		<clipPath id="SVGID_29_">
			<use xlink:href="#SVGID_28_"  overflow="visible"/>
		</clipPath>
		
			<use xlink:href="#SVGID_28_"  overflow="visible" fill-rule="evenodd" clip-rule="evenodd" fill="none" stroke="#FFFFFF" stroke-width="0.5" stroke-miterlimit="10"/>
	</g>
	<g>
		<defs>
			<path id="SVGID_30_" d="M42.99,60.089c1.806,1.841,3.917,3.267,6.331,4.279l-1.488,2.371c-2.482-1.111-4.682-2.597-6.596-4.458
				c-1.982,1.98-4.033,3.456-6.154,4.427l-1.531-2.34c2.67-1.261,4.647-2.657,5.934-4.188c-1.326-2.012-2.277-4.233-2.857-6.666
				l2.371-1.171c0.51,2.273,1.236,4.149,2.179,5.629c1.551-2.571,2.492-6.344,2.827-11.317H39.03
				c-0.942,3.003-2.116,5.629-3.519,7.88l-1.869-2.221c1.924-3.303,3.351-7.565,4.283-12.79l2.71,0.346
				c-0.149,1.111-0.452,2.483-0.914,4.114h9.203v2.671h-2.195C46.259,52.789,45.012,57.268,42.99,60.089L42.99,60.089z
				 M30.329,58.993c-2.071,1.271-4.285,2.347-6.64,3.229l-0.78-2.463c0.342-0.339,0.515-0.709,0.515-1.11V41.777h2.591v16.496
				c1.56-0.69,2.998-1.455,4.314-2.297V39.75h2.68v26.824h-2.68V58.993L30.329,58.993z M80.128,47.945
				c-0.05,2.113-0.376,3.5-0.98,4.165c-0.602,0.665-1.656,0.998-3.158,0.998c-0.402,0-0.859-0.019-1.368-0.06l-0.766-2.027
				c0.333,0.031,0.759,0.045,1.281,0.045c1.079,0,1.735-0.092,1.964-0.278c0.231-0.184,0.317-0.476,0.258-0.877h-5.345v3.167h-2.533
				v-3.167h-5.094c-0.893,1.691-2.62,3.017-5.181,3.978h17.755v8.014h-2.591v-5.808H60.62v5.808h-2.592v-7.716
				c-0.99,0.291-1.874,0.476-2.649,0.556l-1.119-2.252c3.582-0.51,5.958-1.371,7.126-2.581h-6.066l1.384-5.285h6.067v-1.29h-7.215
				v-1.996h7.215v-1.636h2.444v1.636h4.269v-1.636h2.533v1.636h6.493v5.283h-6.493v1.321H80.128L80.128,47.945z M58.942,46.624
				l-0.397,1.321h3.886c0.118-0.52,0.2-0.961,0.25-1.321H58.942L58.942,46.624z M69.482,43.337h-4.269v1.29h4.269V43.337
				L69.482,43.337z M69.482,46.624h-4.298c-0.04,0.551-0.113,0.992-0.221,1.321h4.519V46.624L69.482,46.624z M76.064,44.598v-1.261
				h-4.049v1.261H76.064L76.064,44.598z M65.058,60.929c0.623-0.89,1.013-2.08,1.171-3.573l2.723,0.121
				c-0.363,3.301-1.769,5.624-4.217,6.965c-2.45,1.341-5.55,2.096-9.298,2.266l-1.177-2.491c2.865-0.04,5.227-0.376,7.081-1.006
				C63.196,62.581,64.435,61.821,65.058,60.929L65.058,60.929z M80.73,64.802l-1.295,2.116c-3.72-1.57-7.376-2.781-10.968-3.633
				l1.09-2.176C73.404,61.96,77.128,63.192,80.73,64.802L80.73,64.802z M104.558,47.36v5.974h6.33v13.209h-2.68v-1.772h-7.625v1.772
				h-2.725V53.335h4.049V39.84h2.65v4.938h7.538v2.583H104.558L104.558,47.36z M100.583,55.856v6.425h7.625v-6.425H100.583
				L100.583,55.856z M96.71,47.645c-0.186,3.193-0.638,7.405-1.353,12.64c0.47-0.11,0.913-0.255,1.324-0.436l0.162,2.671
				c-4.083,1.471-7.504,2.528-10.261,3.167l-0.809-2.461c0.636-0.129,1.392-0.315,2.266-0.556c0.079-4.243-0.265-9.231-1.03-14.964
				l1.87-1.352h-2.812v-2.552h4.652c-0.087-0.48-0.491-1.615-1.207-3.408l2.473-0.959c0.472,1.021,0.992,2.476,1.56,4.367h4.167
				v2.552h-2.797L96.71,47.645L96.71,47.645z M89.452,46.354c0.717,5.173,1.1,10.348,1.148,15.522l2.077-0.675
				c0.903-5.325,1.437-10.272,1.604-14.846H89.452L89.452,46.354z"/>
		</defs>
		<use xlink:href="#SVGID_30_"  overflow="visible" fill-rule="evenodd" clip-rule="evenodd" fill="#FFFFFF"/>
		<clipPath id="SVGID_31_">
			<use xlink:href="#SVGID_30_"  overflow="visible"/>
		</clipPath>
	</g>
	<linearGradient id="SVGID_32_" gradientUnits="userSpaceOnUse" x1="106.8776" y1="124.5938" x2="24.1224" y2="6.4071">
		<stop  offset="0" style="stop-color:#000000;stop-opacity:0"/>
		<stop  offset="1" style="stop-color:#FFFFFF;stop-opacity:0.25"/>
	</linearGradient>
	<path fill-rule="evenodd" clip-rule="evenodd" fill="url(#SVGID_32_)" d="M5.8,19.97h119.402c1.833,0,3.321,1.488,3.321,3.322
		v84.416c0,1.835-1.488,3.321-3.321,3.321H5.8c-1.835,0-3.322-1.486-3.322-3.321V23.293C2.478,21.458,3.965,19.97,5.8,19.97
		L5.8,19.97z"/>
</g>
</svg>
