<?xml version="1.0" encoding="utf-8"?>
<!-- Generator: Adobe Illustrator 16.0.0, SVG Export Plug-In . SVG Version: 6.00 Build 0)  -->
<!DOCTYPE svg PUBLIC "-//W3C//DTD SVG 1.1//EN" "http://www.w3.org/Graphics/SVG/1.1/DTD/svg11.dtd">
<svg version="1.1" id="Layer_1" xmlns="http://www.w3.org/2000/svg" xmlns:xlink="http://www.w3.org/1999/xlink" x="0px" y="0px"
	 width="132px" height="132px" viewBox="0 0 132 132" enable-background="new 0 0 132 132" xml:space="preserve">
<g id="disabled">
	<g>
		<g>
			
				<linearGradient id="SVGID_3_" gradientUnits="userSpaceOnUse" x1="249.5928" y1="727.1699" x2="376.0664" y2="727.1699" gradientTransform="matrix(1 0 0 1 -246.3301 -660.6699)">
				<stop  offset="0" style="stop-color:#000000;stop-opacity:0.6"/>
				<stop  offset="1" style="stop-color:#000000;stop-opacity:0.6"/>
			</linearGradient>
			<path id="SVGID_1_" fill="url(#SVGID_3_)" d="M69.087,11.762c8.843,15.314,50.501,87.228,60.233,104.085
				c1.332,2.31-0.735,6.719-3.327,6.719c-19.009,0-100.207,0-118.516,0c-4.331,0-5.284-2.892-3.044-6.77
				C14.17,98.934,55.393,27.57,64.505,11.786C65.487,10.083,68.006,9.891,69.087,11.762L69.087,11.762z"/>
		</g>
		<g>
			<path id="SVGID_2_" fill="#FFFFFF" d="M68.087,10.762c8.843,15.314,50.501,87.228,60.233,104.085
				c1.332,2.31-0.735,6.719-3.327,6.719c-19.009,0-100.207,0-118.516,0c-4.331,0-5.284-2.892-3.044-6.77
				C13.17,97.934,54.393,26.57,63.505,10.786C64.487,9.083,67.006,8.891,68.087,10.762L68.087,10.762z"/>
		</g>
	</g>
	<g>
		<g>
			<path id="SVGID_6_" fill="#575757" d="M67.316,15.97c8.441,14.622,48.218,83.284,57.51,99.38
				c0.938,1.621-0.111,3.354-1.756,3.354c-18.148,0-97.715,0-115.196,0c-1.744,0-2.394-1.752-1.441-3.403
				c9.297-16.103,48.655-84.237,57.356-99.306C64.728,14.367,66.285,14.183,67.316,15.97L67.316,15.97z"/>
		</g>
	</g>
	<g>
		<g>
			<path id="SVGID_8_" fill="#FFFFFF" d="M66.813,36.986c5.957,10.321,34.03,58.782,40.59,70.141
				c0.66,1.145-0.079,2.368-1.238,2.368c-12.811,0-68.967,0-81.305,0c-1.232,0-1.689-1.237-1.016-2.402
				c6.561-11.366,34.34-59.454,40.479-70.09C64.985,35.855,66.085,35.726,66.813,36.986L66.813,36.986z"/>
		</g>
	</g>
	<g>
		<g>
			<polygon id="SVGID_10_" points="74.146,63.594 65.391,54.927 57.147,63.594 57.147,77.594 46.146,77.594 46.146,87.596 
				57.147,87.596 57.147,105.594 65.636,99.174 74.146,105.594 74.146,87.596 85.146,87.596 85.146,77.594 74.146,77.594 			"/>
		</g>
	</g>
	
		<linearGradient id="SVGID_4_" gradientUnits="userSpaceOnUse" x1="337.8535" y1="806.2256" x2="265.1689" y2="702.4213" gradientTransform="matrix(1 0 0 1 -246.3301 -660.6699)">
		<stop  offset="0" style="stop-color:#000000;stop-opacity:0"/>
		<stop  offset="1" style="stop-color:#FFFFFF;stop-opacity:0.25"/>
	</linearGradient>
	<path fill="url(#SVGID_4_)" d="M68.087,10.762c8.843,15.314,50.501,87.228,60.233,104.085c1.332,2.31-0.735,6.719-3.327,6.719
		c-19.009,0-100.207,0-118.516,0c-4.331,0-5.284-2.892-3.044-6.77C13.17,97.934,54.393,26.57,63.505,10.786
		C64.487,9.083,67.006,8.891,68.087,10.762L68.087,10.762z"/>
</g>
<g id="normal">
	<g>
		<g>
			
				<linearGradient id="SVGID_5_" gradientUnits="userSpaceOnUse" x1="249.5928" y1="727.1699" x2="376.0664" y2="727.1699" gradientTransform="matrix(1 0 0 1 -246.3301 -660.6699)">
				<stop  offset="0" style="stop-color:#000000;stop-opacity:0.6"/>
				<stop  offset="1" style="stop-color:#000000;stop-opacity:0.6"/>
			</linearGradient>
			<path id="SVGID_13_" fill="url(#SVGID_5_)" d="M69.087,11.762c8.843,15.314,50.501,87.228,60.233,104.085
				c1.332,2.31-0.735,6.719-3.327,6.719c-19.009,0-100.207,0-118.516,0c-4.331,0-5.284-2.892-3.044-6.77
				C14.17,98.934,55.393,27.57,64.505,11.786C65.487,10.083,68.006,9.891,69.087,11.762L69.087,11.762z"/>
		</g>
		<g>
			<path id="SVGID_14_" fill="#FFFFFF" d="M68.087,10.762c8.843,15.314,50.501,87.228,60.233,104.085
				c1.332,2.31-0.735,6.719-3.327,6.719c-19.009,0-100.207,0-118.516,0c-4.331,0-5.284-2.892-3.044-6.77
				C13.17,97.934,54.393,26.57,63.505,10.786C64.487,9.083,67.006,8.891,68.087,10.762L68.087,10.762z"/>
		</g>
	</g>
	<g>
		<g>
			<path id="SVGID_18_" fill="#DA1E22" d="M67.316,15.97c8.441,14.622,48.218,83.284,57.51,99.38
				c0.938,1.621-0.111,3.354-1.756,3.354c-18.148,0-97.715,0-115.196,0c-1.744,0-2.394-1.752-1.441-3.403
				c9.297-16.103,48.655-84.237,57.356-99.306C64.728,14.367,66.285,14.183,67.316,15.97L67.316,15.97z"/>
		</g>
	</g>
	<g>
		<g>
			<path id="SVGID_20_" fill="#FFFFFF" d="M66.813,36.986c5.957,10.321,34.03,58.782,40.59,70.141
				c0.66,1.145-0.079,2.368-1.238,2.368c-12.811,0-68.967,0-81.305,0c-1.232,0-1.689-1.237-1.016-2.402
				c6.561-11.366,34.34-59.454,40.479-70.09C64.985,35.855,66.085,35.726,66.813,36.986L66.813,36.986z"/>
		</g>
	</g>
	<g>
		<g>
			<polygon id="SVGID_22_" points="74.146,63.594 65.391,54.927 57.147,63.594 57.147,77.594 46.146,77.594 46.146,87.596 
				57.147,87.596 57.147,105.594 65.636,99.174 74.146,105.594 74.146,87.596 85.146,87.596 85.146,77.594 74.146,77.594 			"/>
		</g>
	</g>
	
		<linearGradient id="SVGID_7_" gradientUnits="userSpaceOnUse" x1="337.8535" y1="806.2256" x2="265.1689" y2="702.4213" gradientTransform="matrix(1 0 0 1 -246.3301 -660.6699)">
		<stop  offset="0" style="stop-color:#000000;stop-opacity:0"/>
		<stop  offset="1" style="stop-color:#FFFFFF;stop-opacity:0.25"/>
	</linearGradient>
	<path fill="url(#SVGID_7_)" d="M68.087,10.762c8.843,15.314,50.501,87.228,60.233,104.085c1.332,2.31-0.735,6.719-3.327,6.719
		c-19.009,0-100.207,0-118.516,0c-4.331,0-5.284-2.892-3.044-6.77C13.17,97.934,54.393,26.57,63.505,10.786
		C64.487,9.083,67.006,8.891,68.087,10.762L68.087,10.762z"/>
</g>
</svg>
