<?xml version="1.0" encoding="utf-8"?>
<!-- Generator: Adobe Illustrator 16.0.0, SVG Export Plug-In . SVG Version: 6.00 Build 0)  -->
<!DOCTYPE svg PUBLIC "-//W3C//DTD SVG 1.1//EN" "http://www.w3.org/Graphics/SVG/1.1/DTD/svg11.dtd">
<svg version="1.1" id="Layer_1" xmlns="http://www.w3.org/2000/svg" xmlns:xlink="http://www.w3.org/1999/xlink" x="0px" y="0px"
	 width="132px" height="132px" viewBox="0 0 132 132" enable-background="new 0 0 132 132" xml:space="preserve">
<g id="disabled">
	<g>
		<g>
			
				<linearGradient id="SVGID_3_" gradientUnits="userSpaceOnUse" x1="249.5928" y1="727.1699" x2="376.0664" y2="727.1699" gradientTransform="matrix(1 0 0 1 -246.3301 -660.6699)">
				<stop  offset="0" style="stop-color:#000000;stop-opacity:0.6"/>
				<stop  offset="1" style="stop-color:#000000;stop-opacity:0.6"/>
			</linearGradient>
			<path id="SVGID_1_" fill="url(#SVGID_3_)" d="M69.087,11.762c8.843,15.314,50.501,87.228,60.233,104.085
				c1.332,2.31-0.735,6.719-3.327,6.719c-19.009,0-100.207,0-118.516,0c-4.331,0-5.284-2.892-3.044-6.77
				c9.737-16.865,50.96-88.228,60.072-104.01C65.487,10.083,68.006,9.891,69.087,11.762L69.087,11.762z"/>
		</g>
		<g>
			<path id="SVGID_2_" fill="#FFFFFF" d="M68.087,10.762c8.843,15.314,50.501,87.228,60.233,104.085
				c1.332,2.31-0.735,6.719-3.327,6.719c-19.009,0-100.207,0-118.516,0c-4.331,0-5.284-2.892-3.044-6.77
				c9.737-16.865,50.96-88.228,60.072-104.01C64.487,9.083,67.006,8.891,68.087,10.762L68.087,10.762z"/>
		</g>
	</g>
	<g>
		<g>
			<path id="SVGID_6_" fill="#575757" d="M67.316,15.97c8.441,14.622,48.218,83.284,57.51,99.38
				c0.938,1.621-0.111,3.354-1.756,3.354c-18.148,0-97.715,0-115.196,0c-1.744,0-2.394-1.752-1.441-3.403
				C15.73,99.2,55.088,31.064,63.789,15.995C64.728,14.367,66.285,14.185,67.316,15.97L67.316,15.97z"/>
		</g>
	</g>
	<g>
		<g>
			<path id="SVGID_8_" fill="#FFFFFF" d="M66.813,36.986c5.957,10.321,34.03,58.782,40.59,70.141
				c0.66,1.145-0.079,2.368-1.238,2.368c-12.811,0-68.967,0-81.305,0c-1.232,0-1.689-1.237-1.016-2.402
				c6.561-11.366,34.34-59.454,40.479-70.09C64.985,35.855,66.085,35.726,66.813,36.986L66.813,36.986z"/>
		</g>
	</g>
	<g>
		<g>
			<polygon id="SVGID_10_" points="33.146,101.594 73.146,101.594 74.381,102.311 76.859,103.241 79.337,102.773 81.973,101.379 
				83.831,101.379 84.915,102.621 87.549,102.466 88.943,102.93 91.111,104.48 92.041,105.723 91.732,106.961 89.408,106.807 
				88.167,105.257 85.225,105.102 83.057,103.706 81.352,103.861 79.648,104.947 77.788,105.723 75.309,104.635 73.146,103.593 
				33.146,103.593 			"/>
		</g>
	</g>
	<g>
		<g>
			<path id="SVGID_12_" d="M90.438,95.604c-0.602,3.586-1.679,3.896-3.191,3.672l-0.814,4.82c0,0,0.287,0.883-2.638,0.373
				c-2.927-0.509-1.94-1.563-1.94-1.563l0.791-4.514c-3.117-0.615-7.133-1.414-8.129-1.613c-1.048-0.188-5.063-0.896-8.167-1.45
				l-0.819,4.839c0,0,0.289,0.882-2.636,0.372c-2.927-0.509-1.941-1.565-1.941-1.565l0.788-4.494
				c-1.47-0.347-2.344-1.043-1.607-4.572c0.916-4.391,0.38-2.715,2.621-5.406c1.488-1.788,3.636-4.784,4.572-5.884
				c0.938-1.103-0.502-1.441,9.115,0.512c0.172,0.036,0.326,0.065,0.485,0.101c0.229,0.039,0.376,0.063,0.376,0.063L77.3,79.307
				c0.168,0.032,0.321,0.064,0.479,0.096c0.168,0.029,0.33,0.059,0.512,0.09l0.002-0.012c0,0,0.141,0.028,0.363,0.074
				c0.164,0.028,0.32,0.057,0.496,0.086c9.67,1.676,8.209,1.471,8.682,2.836c0.473,1.364,1.387,4.938,2.122,7.144
				C91.066,92.938,91.176,91.182,90.438,95.604L90.438,95.604z M87.428,88.607c-0.113-0.398-0.714-3.407-0.89-4.271
				c-0.147-0.711-0.062-0.875-0.788-1.013c-0.727-0.139-8.425-1.622-8.425-1.622l-0.002,0.002c-0.916-0.168-7.651-1.404-8.329-1.531
				c-0.727-0.136-0.707,0.05-1.102,0.659c-0.479,0.736-2.13,3.324-2.381,3.652c-0.249,0.328-0.716,0.809-0.141,0.953
				c0.564,0.143,10.573,1.987,10.94,2.057c0.767,0.146,10.338,1.979,10.901,2.05C87.802,89.617,87.541,89.005,87.428,88.607
				L87.428,88.607z"/>
		</g>
	</g>
	
		<linearGradient id="SVGID_4_" gradientUnits="userSpaceOnUse" x1="337.8545" y1="806.2256" x2="265.1692" y2="702.4206" gradientTransform="matrix(1 0 0 1 -246.3301 -660.6699)">
		<stop  offset="0" style="stop-color:#000000;stop-opacity:0"/>
		<stop  offset="1" style="stop-color:#FFFFFF;stop-opacity:0.25"/>
	</linearGradient>
	<path fill="url(#SVGID_4_)" d="M68.087,10.762c8.843,15.314,50.501,87.228,60.233,104.085c1.332,2.31-0.735,6.719-3.327,6.719
		c-19.009,0-100.207,0-118.516,0c-4.331,0-5.284-2.892-3.044-6.77c9.737-16.865,50.96-88.228,60.072-104.01
		C64.487,9.083,67.006,8.891,68.087,10.762L68.087,10.762z"/>
</g>
<g id="normal">
	<g>
		<g>
			
				<linearGradient id="SVGID_5_" gradientUnits="userSpaceOnUse" x1="249.5928" y1="727.1699" x2="376.0664" y2="727.1699" gradientTransform="matrix(1 0 0 1 -246.3301 -660.6699)">
				<stop  offset="0" style="stop-color:#000000;stop-opacity:0.6"/>
				<stop  offset="1" style="stop-color:#000000;stop-opacity:0.6"/>
			</linearGradient>
			<path id="SVGID_15_" fill="url(#SVGID_5_)" d="M69.087,11.762c8.843,15.314,50.501,87.228,60.233,104.085
				c1.332,2.31-0.735,6.719-3.327,6.719c-19.009,0-100.207,0-118.516,0c-4.331,0-5.284-2.892-3.044-6.77
				c9.737-16.865,50.96-88.228,60.072-104.01C65.487,10.083,68.006,9.891,69.087,11.762L69.087,11.762z"/>
		</g>
		<g>
			<path id="SVGID_16_" fill="#FFFFFF" d="M68.087,10.762c8.843,15.314,50.501,87.228,60.233,104.085
				c1.332,2.31-0.735,6.719-3.327,6.719c-19.009,0-100.207,0-118.516,0c-4.331,0-5.284-2.892-3.044-6.77
				c9.737-16.865,50.96-88.228,60.072-104.01C64.487,9.083,67.006,8.891,68.087,10.762L68.087,10.762z"/>
		</g>
	</g>
	<g>
		<g>
			<path id="SVGID_20_" fill="#DA1E22" d="M67.316,15.97c8.441,14.622,48.218,83.284,57.51,99.38
				c0.938,1.621-0.111,3.354-1.756,3.354c-18.148,0-97.715,0-115.196,0c-1.744,0-2.394-1.752-1.441-3.403
				C15.73,99.2,55.088,31.064,63.789,15.995C64.728,14.367,66.285,14.185,67.316,15.97L67.316,15.97z"/>
		</g>
	</g>
	<g>
		<g>
			<path id="SVGID_22_" fill="#FFFFFF" d="M66.813,36.986c5.957,10.321,34.03,58.782,40.59,70.141
				c0.66,1.145-0.079,2.368-1.238,2.368c-12.811,0-68.967,0-81.305,0c-1.232,0-1.689-1.237-1.016-2.402
				c6.561-11.366,34.34-59.454,40.479-70.09C64.985,35.855,66.085,35.726,66.813,36.986L66.813,36.986z"/>
		</g>
	</g>
	<g>
		<g>
			<polygon id="SVGID_24_" points="33.146,101.594 73.146,101.594 74.381,102.311 76.859,103.241 79.337,102.773 81.973,101.379 
				83.831,101.379 84.915,102.621 87.549,102.466 88.943,102.93 91.111,104.48 92.041,105.723 91.732,106.961 89.408,106.807 
				88.167,105.257 85.225,105.102 83.057,103.706 81.352,103.861 79.648,104.947 77.788,105.723 75.309,104.635 73.146,103.593 
				33.146,103.593 			"/>
		</g>
	</g>
	<g>
		<g>
			<path id="SVGID_26_" d="M90.438,95.604c-0.602,3.586-1.679,3.896-3.191,3.672l-0.814,4.82c0,0,0.287,0.883-2.638,0.373
				c-2.927-0.509-1.94-1.563-1.94-1.563l0.791-4.514c-3.117-0.615-7.133-1.414-8.129-1.613c-1.048-0.188-5.063-0.896-8.167-1.45
				l-0.819,4.839c0,0,0.289,0.882-2.636,0.372c-2.927-0.509-1.941-1.565-1.941-1.565l0.788-4.494
				c-1.47-0.347-2.344-1.043-1.607-4.572c0.916-4.391,0.38-2.715,2.621-5.406c1.488-1.788,3.636-4.784,4.572-5.884
				c0.938-1.103-0.502-1.441,9.115,0.512c0.172,0.036,0.326,0.065,0.485,0.101c0.229,0.039,0.376,0.063,0.376,0.063L77.3,79.307
				c0.168,0.032,0.321,0.064,0.479,0.096c0.168,0.029,0.33,0.059,0.512,0.09l0.002-0.012c0,0,0.141,0.028,0.363,0.074
				c0.164,0.028,0.32,0.057,0.496,0.086c9.67,1.676,8.209,1.471,8.682,2.836c0.473,1.364,1.387,4.938,2.122,7.144
				C91.066,92.938,91.176,91.182,90.438,95.604L90.438,95.604z M87.428,88.607c-0.113-0.398-0.714-3.407-0.89-4.271
				c-0.147-0.711-0.062-0.875-0.788-1.013c-0.727-0.139-8.425-1.622-8.425-1.622l-0.002,0.002c-0.916-0.168-7.651-1.404-8.329-1.531
				c-0.727-0.136-0.707,0.05-1.102,0.659c-0.479,0.736-2.13,3.324-2.381,3.652c-0.249,0.328-0.716,0.809-0.141,0.953
				c0.564,0.143,10.573,1.987,10.94,2.057c0.767,0.146,10.338,1.979,10.901,2.05C87.802,89.617,87.541,89.005,87.428,88.607
				L87.428,88.607z"/>
		</g>
	</g>
	
		<linearGradient id="SVGID_7_" gradientUnits="userSpaceOnUse" x1="337.8545" y1="806.2256" x2="265.1692" y2="702.4206" gradientTransform="matrix(1 0 0 1 -246.3301 -660.6699)">
		<stop  offset="0" style="stop-color:#000000;stop-opacity:0"/>
		<stop  offset="1" style="stop-color:#FFFFFF;stop-opacity:0.25"/>
	</linearGradient>
	<path fill="url(#SVGID_7_)" d="M68.087,10.762c8.843,15.314,50.501,87.228,60.233,104.085c1.332,2.31-0.735,6.719-3.327,6.719
		c-19.009,0-100.207,0-118.516,0c-4.331,0-5.284-2.892-3.044-6.77c9.737-16.865,50.96-88.228,60.072-104.01
		C64.487,9.083,67.006,8.891,68.087,10.762L68.087,10.762z"/>
</g>
</svg>
