<?xml version="1.0" encoding="utf-8"?>
<!-- Generator: Adobe Illustrator 16.0.0, SVG Export Plug-In . SVG Version: 6.00 Build 0)  -->
<!DOCTYPE svg PUBLIC "-//W3C//DTD SVG 1.1//EN" "http://www.w3.org/Graphics/SVG/1.1/DTD/svg11.dtd">
<svg version="1.1" id="Layer_1" xmlns="http://www.w3.org/2000/svg" xmlns:xlink="http://www.w3.org/1999/xlink" x="0px" y="0px"
	 width="132px" height="132px" viewBox="0 0 132 132" enable-background="new 0 0 132 132" xml:space="preserve">
<g id="disabled">
	<g>
		<g>
			
				<linearGradient id="SVGID_3_" gradientUnits="userSpaceOnUse" x1="249.3301" y1="727.1699" x2="376.3311" y2="727.1699" gradientTransform="matrix(1 0 0 1 -246.3301 -660.6699)">
				<stop  offset="0" style="stop-color:#000000;stop-opacity:0.6"/>
				<stop  offset="1" style="stop-color:#000000;stop-opacity:0.6"/>
			</linearGradient>
			<path id="SVGID_1_" fill="url(#SVGID_3_)" d="M7,23.001h119c1.84,0,4.001,2.159,4.001,3.999v79c0,1.84-2.161,3.999-4.001,3.999H7
				c-1.841,0-4-2.159-4-3.999V27C3,25.16,5.159,23.001,7,23.001L7,23.001z"/>
		</g>
		<g>
			<path id="SVGID_2_" d="M6,22.001h119c1.84,0,4.001,2.159,4.001,3.999v79c0,1.84-2.161,3.999-4.001,3.999H6
				c-1.841,0-4-2.159-4-3.999V26C2,24.16,4.159,22.001,6,22.001L6,22.001z"/>
		</g>
	</g>
	<g>
		<g>
			<path id="SVGID_6_" fill="#FFFFFF" d="M7,24h117c1.794,0,2.999,1.205,2.999,3.001v75.998c0,1.796-1.205,4.001-2.999,4.001H7
				c-1.794,0-2.999-2.205-2.999-4.001V27.001C4.001,25.205,5.206,24,7,24L7,24z"/>
		</g>
	</g>
	<g>
		<g>
			<polygon id="SVGID_8_" fill="#5B5B5B" points="7,27.001 124,27.001 124,104 7,104 			"/>
		</g>
	</g>
	<g>
		<g>
			<path id="SVGID_10_" fill="#FFFFFF" d="M29.791,51.968c-2.437,0-4.413-1.975-4.413-4.411c0-2.437,1.975-4.413,4.413-4.413
				c2.437,0,4.413,1.975,4.413,4.413C34.204,49.993,32.229,51.968,29.791,51.968L29.791,51.968z M38.567,67.955
				c-0.299,0.813-1.353,1.061-2.174,0.963c-1.134-0.134-5.115-2.463-5.115-2.463l0.019,4.876l-9.032,0.052l-0.016-7.737
				l-2.016,3.846c0,0-2.484,3.809-2.951,4.275c-0.467,0.467-1.647,0.439-1.906-0.078c-0.26-0.521-0.27-1.455-0.216-2.391
				c0.052-0.935,0.927-2.541,1.568-3.621c0.644-1.084,1.838-3.009,2.922-4.581c1.006-1.457,3.712-5.913,4.492-6.64
				c0.779-0.727,1.809-0.934,2.484-0.934s2.428-0.171,3.311,0.919c0.882,1.09,1.31,1.418,1.328,3.754
				c0.018,2.373-0.019,4.361-0.019,4.361s4.516,2.699,5.398,3.217C37.526,66.295,38.946,66.923,38.567,67.955L38.567,67.955z
				 M30.593,97.473c-1.489,0.068-2.087,0.114-2.657-0.923c-0.572-1.039-0.623-2.213-0.688-3.833
				c-0.052-1.297,0.078-13.203,0.078-13.203s0.142-0.914-0.544-0.918c-0.785-0.006-0.497,0.457-0.783,1.053
				c-0.271,0.563-4.771,7.724-5.238,8.502c-0.467,0.776-3.594,5.893-4.165,6.203c-0.57,0.312-1.129,0.391-1.752-0.287
				c-0.622-0.674-0.686-1.248-0.686-2.233c0-0.983,0.228-2.34,0.901-3.119c0.675-0.778,6.839-10.187,7.097-10.497
				c0.26-0.313,0.176-5.755,0.176-5.755l8.967,0.015v22.319C31.297,94.794,31.531,97.43,30.593,97.473L30.593,97.473z"/>
		</g>
	</g>
	<g>
		<g>
			<path id="SVGID_12_" fill="#FFFFFF" d="M70.311,49.374l0.076,4.143c0,0,0.381,0.688-2.138,0.724c-2.516,0.034-1.862-1-1.862-1
				l-0.047-3.883c-2.681-0.024-6.133-0.061-7.015-0.071c-0.885,0.01-4.358,0.048-7.042,0.071l0.076,4.159
				c0,0,0.38,0.688-2.138,0.724c-2.516,0.034-1.862-1-1.862-1l-0.047-3.87c-1.279-0.057-2.116-0.501-2.054-3.558
				c0.076-3.799-0.108-2.318,1.336-4.912c0.959-1.722,2.281-4.555,2.888-5.619c0.607-1.064-0.643-1.121,7.675-1
				c0.141,0.002,0.267,0.003,0.401,0.005c0.208-0.003,0.342-0.005,0.342-0.005v0.01c0.15,0.002,0.287,0.005,0.426,0.006
				c0.139-0.002,0.276-0.005,0.426-0.006v-0.01c0,0,0.134,0.002,0.342,0.005c0.134-0.002,0.26-0.003,0.401-0.005
				c8.317-0.121,7.067-0.065,7.675,1c0.609,1.064,1.928,3.897,2.889,5.619c1.445,2.594,1.26,1.113,1.336,4.912
				C72.456,48.895,71.605,49.323,70.311,49.374L70.311,49.374z M47.946,44.752c0,1.16,0.94,2.1,2.1,2.1c1.16,0,2.101-0.94,2.101-2.1
				c0-1.161-0.942-2.101-2.101-2.101C48.886,42.65,47.946,43.59,47.946,44.752L47.946,44.752z M68.792,40.457
				c-0.157-0.315-1.129-2.728-1.412-3.418c-0.233-0.57-0.187-0.722-0.813-0.722c-0.584,0-6.391-0.027-7.178-0.031l0,0
				c0,0-0.016,0-0.019,0c-0.036,0-0.045,0-0.055,0c-0.003,0-0.019,0-0.019,0l0,0c-0.79,0.003-6.595,0.031-7.179,0.031
				c-0.627,0-0.581,0.152-0.814,0.722c-0.283,0.69-1.255,3.103-1.412,3.418c-0.157,0.313-0.47,0.783,0.032,0.814
				c0.472,0.031,8.441,0.003,9.373,0c0,0,0.036,0,0.094,0c0.932,0.003,8.901,0.031,9.375,0C69.262,41.24,68.949,40.77,68.792,40.457
				L68.792,40.457z M68.667,42.65c-1.16,0-2.101,0.94-2.101,2.101c0,1.16,0.939,2.1,2.101,2.1s2.101-0.94,2.101-2.1
				C70.766,43.59,69.826,42.65,68.667,42.65L68.667,42.65z"/>
		</g>
	</g>
	<g>
		<g>
			<path id="SVGID_14_" fill="#FFFFFF" d="M72.855,76.154c-1.682,0-3.043-1.361-3.043-3.04c0-1.681,1.361-3.044,3.043-3.044
				c1.681,0,3.043,1.363,3.043,3.044C75.898,74.794,74.536,76.154,72.855,76.154L72.855,76.154z M83.838,89.5
				c-0.874,0.04-4.184,0.076-5.057,0.037c-0.959-0.04-1.483,0.092-2.092-0.866c-0.279-0.438-0.84-0.846-1.444-0.796
				c-1.043,0.086-1.14,0.357-1.222,1.67c-0.092,1.428,0,5.514,0,6.385c0,0.869-0.142,1.373-1.185,1.373s-1.383-0.203-1.426-1.51
				c-0.045-1.386,0.136-13.289,0.05-14.07c-0.087-0.783-0.677-0.928-1.111-0.494c-0.436,0.436-2.021,1.971-2.715,2.492
				c-0.697,0.522-2.024,2.057-2.777,1.051c-0.674-0.897-0.355-1.051,0.339-1.746c0.696-0.695,4.459-4.793,5.469-5.379
				c0.753-0.438,4.18-0.147,4.18-0.147s4.289-0.412,5.004,0.249c1.047,0.971,2.485,3.161,2.859,3.771
				c0.316,0.518,0.488,1.463-0.204,1.932c-0.549,0.371-1.032,0.146-1.707-0.749c-0.327-0.438-1.823-3.019-2.521-3.019
				c-0.254,0-1.35,0.16-1.176,1.184c0.282,1.66,0.852,4.214,1.149,5.22c0.281,0.951,0.079,1.374,1.646,1.374c1.563,0,3.045,0,3.74,0
				c0.694,0,1.092,0.254,1.217,0.869C85.014,89.094,84.665,89.462,83.838,89.5L83.838,89.5z"/>
		</g>
	</g>
	<g>
		<g>
			<path id="SVGID_16_" fill="#FFFFFF" d="M53.159,90.742c1.861,0,3.369,1.51,3.369,3.371s-1.509,3.367-3.369,3.367
				c-1.861,0-3.369-1.506-3.369-3.367S51.299,90.742,53.159,90.742L53.159,90.742z"/>
		</g>
	</g>
	<g>
		<g>
			<path id="SVGID_18_" fill="#FFFFFF" d="M112.999,42.999V66H92.001V42.999l-5.834-0.011l10.636-7.257L96,35.999V33h3.001v1.232
				l3.461-2.361l16.55,11.117L112.999,42.999L112.999,42.999z M111,41l-8.538-6.433L94,41v23h6V54h4.999v10h6L111,41L111,41z
				 M104,42.999h5v7h-5V42.999L104,42.999z M96,42.999h5v7h-5V42.999L96,42.999z M95.654,76.107
				C99.932,78.959,114.001,89,114.001,89v3c0,0-16.074-10.587-20.509-13.756c-4.436-3.167-8.854-7.034-11.112-11.217
				C80.555,63.649,79,54,79,54h3c0,0,1.102,7.525,3.161,11.327C87.221,69.129,91.377,73.256,95.654,76.107L95.654,76.107z"/>
		</g>
	</g>
	
		<linearGradient id="SVGID_4_" gradientUnits="userSpaceOnUse" x1="352.1602" y1="783.7666" x2="271.5015" y2="668.5742" gradientTransform="matrix(1 0 0 1 -246.3301 -660.6699)">
		<stop  offset="0" style="stop-color:#000000;stop-opacity:0"/>
		<stop  offset="1" style="stop-color:#FFFFFF;stop-opacity:0.25"/>
	</linearGradient>
	<path fill="url(#SVGID_4_)" d="M6,22.001h119c1.84,0,4.001,2.159,4.001,3.999v79c0,1.84-2.161,3.999-4.001,3.999H6
		c-1.841,0-4-2.159-4-3.999V26C2,24.16,4.159,22.001,6,22.001L6,22.001z"/>
</g>
<g id="normal">
	<g>
		<g>
			
				<linearGradient id="SVGID_5_" gradientUnits="userSpaceOnUse" x1="249.3301" y1="727.1699" x2="376.3311" y2="727.1699" gradientTransform="matrix(1 0 0 1 -246.3301 -660.6699)">
				<stop  offset="0" style="stop-color:#000000;stop-opacity:0.6"/>
				<stop  offset="1" style="stop-color:#000000;stop-opacity:0.6"/>
			</linearGradient>
			<path id="SVGID_21_" fill="url(#SVGID_5_)" d="M7,23.001h119c1.84,0,4.001,2.159,4.001,3.999v79c0,1.84-2.161,3.999-4.001,3.999
				H7c-1.841,0-4-2.159-4-3.999V27C3,25.16,5.159,23.001,7,23.001L7,23.001z"/>
		</g>
		<g>
			<path id="SVGID_22_" d="M6,22.001h119c1.84,0,4.001,2.159,4.001,3.999v79c0,1.84-2.161,3.999-4.001,3.999H6
				c-1.841,0-4-2.159-4-3.999V26C2,24.16,4.159,22.001,6,22.001L6,22.001z"/>
		</g>
	</g>
	<g>
		<g>
			<path id="SVGID_26_" fill="#FFFFFF" d="M7,24h117c1.794,0,2.999,1.205,2.999,3.001v75.998c0,1.796-1.205,4.001-2.999,4.001H7
				c-1.794,0-2.999-2.205-2.999-4.001V27.001C4.001,25.205,5.206,24,7,24L7,24z"/>
		</g>
	</g>
	<g>
		<g>
			<polygon id="SVGID_28_" fill="#0078BB" points="7,27.001 124,27.001 124,104 7,104 			"/>
		</g>
	</g>
	<g>
		<g>
			<path id="SVGID_30_" fill="#FFFFFF" d="M29.791,51.968c-2.437,0-4.413-1.975-4.413-4.411c0-2.437,1.975-4.413,4.413-4.413
				c2.437,0,4.413,1.975,4.413,4.413C34.204,49.993,32.229,51.968,29.791,51.968L29.791,51.968z M38.567,67.955
				c-0.299,0.813-1.353,1.061-2.174,0.963c-1.134-0.134-5.115-2.463-5.115-2.463l0.019,4.876l-9.032,0.052l-0.016-7.737
				l-2.016,3.846c0,0-2.484,3.809-2.951,4.275c-0.467,0.467-1.647,0.439-1.906-0.078c-0.26-0.521-0.27-1.455-0.216-2.391
				c0.052-0.935,0.927-2.541,1.568-3.621c0.644-1.084,1.838-3.009,2.922-4.581c1.006-1.457,3.712-5.913,4.492-6.64
				c0.779-0.727,1.809-0.934,2.484-0.934s2.428-0.171,3.311,0.919c0.882,1.09,1.31,1.418,1.328,3.754
				c0.018,2.373-0.019,4.361-0.019,4.361s4.516,2.699,5.398,3.217C37.526,66.295,38.946,66.923,38.567,67.955L38.567,67.955z
				 M30.593,97.473c-1.489,0.068-2.087,0.114-2.657-0.923c-0.572-1.039-0.623-2.213-0.688-3.833
				c-0.052-1.297,0.078-13.203,0.078-13.203s0.142-0.914-0.544-0.918c-0.785-0.006-0.497,0.457-0.783,1.053
				c-0.271,0.563-4.771,7.724-5.238,8.502c-0.467,0.776-3.594,5.893-4.165,6.203c-0.57,0.312-1.129,0.391-1.752-0.287
				c-0.622-0.674-0.686-1.248-0.686-2.233c0-0.983,0.228-2.34,0.901-3.119c0.675-0.778,6.839-10.187,7.097-10.497
				c0.26-0.313,0.176-5.755,0.176-5.755l8.967,0.015v22.319C31.297,94.794,31.531,97.43,30.593,97.473L30.593,97.473z"/>
		</g>
	</g>
	<g>
		<g>
			<path id="SVGID_32_" fill="#FFFFFF" d="M70.311,49.374l0.076,4.143c0,0,0.381,0.688-2.138,0.724c-2.516,0.034-1.862-1-1.862-1
				l-0.047-3.883c-2.681-0.024-6.133-0.061-7.015-0.071c-0.885,0.01-4.358,0.048-7.042,0.071l0.076,4.159
				c0,0,0.38,0.688-2.138,0.724c-2.516,0.034-1.862-1-1.862-1l-0.047-3.87c-1.279-0.057-2.116-0.501-2.054-3.558
				c0.076-3.799-0.108-2.318,1.336-4.912c0.959-1.722,2.281-4.555,2.888-5.619c0.607-1.064-0.643-1.121,7.675-1
				c0.141,0.002,0.267,0.003,0.401,0.005c0.208-0.003,0.342-0.005,0.342-0.005v0.01c0.15,0.002,0.287,0.005,0.426,0.006
				c0.139-0.002,0.276-0.005,0.426-0.006v-0.01c0,0,0.134,0.002,0.342,0.005c0.134-0.002,0.26-0.003,0.401-0.005
				c8.317-0.121,7.067-0.065,7.675,1c0.609,1.064,1.928,3.897,2.889,5.619c1.445,2.594,1.26,1.113,1.336,4.912
				C72.456,48.895,71.605,49.323,70.311,49.374L70.311,49.374z M47.946,44.752c0,1.16,0.94,2.1,2.1,2.1c1.16,0,2.101-0.94,2.101-2.1
				c0-1.161-0.942-2.101-2.101-2.101C48.886,42.65,47.946,43.59,47.946,44.752L47.946,44.752z M68.792,40.457
				c-0.157-0.315-1.129-2.728-1.412-3.418c-0.233-0.57-0.187-0.722-0.813-0.722c-0.584,0-6.391-0.027-7.178-0.031l0,0
				c0,0-0.016,0-0.019,0c-0.036,0-0.045,0-0.055,0c-0.003,0-0.019,0-0.019,0l0,0c-0.79,0.003-6.595,0.031-7.179,0.031
				c-0.627,0-0.581,0.152-0.814,0.722c-0.283,0.69-1.255,3.103-1.412,3.418c-0.157,0.313-0.47,0.783,0.032,0.814
				c0.472,0.031,8.441,0.003,9.373,0c0,0,0.036,0,0.094,0c0.932,0.003,8.901,0.031,9.375,0C69.262,41.24,68.949,40.77,68.792,40.457
				L68.792,40.457z M68.667,42.65c-1.16,0-2.101,0.94-2.101,2.101c0,1.16,0.939,2.1,2.101,2.1s2.101-0.94,2.101-2.1
				C70.766,43.59,69.826,42.65,68.667,42.65L68.667,42.65z"/>
		</g>
	</g>
	<g>
		<g>
			<path id="SVGID_34_" fill="#FFFFFF" d="M72.855,76.154c-1.682,0-3.043-1.361-3.043-3.04c0-1.681,1.361-3.044,3.043-3.044
				c1.681,0,3.043,1.363,3.043,3.044C75.898,74.794,74.536,76.154,72.855,76.154L72.855,76.154z M83.838,89.5
				c-0.874,0.04-4.184,0.076-5.057,0.037c-0.959-0.04-1.483,0.092-2.092-0.866c-0.279-0.438-0.84-0.846-1.444-0.796
				c-1.043,0.086-1.14,0.357-1.222,1.67c-0.092,1.428,0,5.514,0,6.385c0,0.869-0.142,1.373-1.185,1.373s-1.383-0.203-1.426-1.51
				c-0.045-1.386,0.136-13.289,0.05-14.07c-0.087-0.783-0.677-0.928-1.111-0.494c-0.436,0.436-2.021,1.971-2.715,2.492
				c-0.697,0.522-2.024,2.057-2.777,1.051c-0.674-0.897-0.355-1.051,0.339-1.746c0.696-0.695,4.459-4.793,5.469-5.379
				c0.753-0.438,4.18-0.147,4.18-0.147s4.289-0.412,5.004,0.249c1.047,0.971,2.485,3.161,2.859,3.771
				c0.316,0.518,0.488,1.463-0.204,1.932c-0.549,0.371-1.032,0.146-1.707-0.749c-0.327-0.438-1.823-3.019-2.521-3.019
				c-0.254,0-1.35,0.16-1.176,1.184c0.282,1.66,0.852,4.214,1.149,5.22c0.281,0.951,0.079,1.374,1.646,1.374c1.563,0,3.045,0,3.74,0
				c0.694,0,1.092,0.254,1.217,0.869C85.014,89.094,84.665,89.462,83.838,89.5L83.838,89.5z"/>
		</g>
	</g>
	<g>
		<g>
			<path id="SVGID_36_" fill="#FFFFFF" d="M53.159,90.742c1.861,0,3.369,1.51,3.369,3.371s-1.509,3.367-3.369,3.367
				c-1.861,0-3.369-1.506-3.369-3.367S51.299,90.742,53.159,90.742L53.159,90.742z"/>
		</g>
	</g>
	<g>
		<g>
			<path id="SVGID_38_" fill="#FFFFFF" d="M112.999,42.999V66H92.001V42.999l-5.834-0.011l10.636-7.257L96,35.999V33h3.001v1.232
				l3.461-2.361l16.55,11.117L112.999,42.999L112.999,42.999z M111,41l-8.538-6.433L94,41v23h6V54h4.999v10h6L111,41L111,41z
				 M104,42.999h5v7h-5V42.999L104,42.999z M96,42.999h5v7h-5V42.999L96,42.999z M95.654,76.107
				C99.932,78.959,114.001,89,114.001,89v3c0,0-16.074-10.587-20.509-13.756c-4.436-3.167-8.854-7.034-11.112-11.217
				C80.555,63.649,79,54,79,54h3c0,0,1.102,7.525,3.161,11.327C87.221,69.129,91.377,73.256,95.654,76.107L95.654,76.107z"/>
		</g>
	</g>
	
		<linearGradient id="SVGID_7_" gradientUnits="userSpaceOnUse" x1="352.1602" y1="783.7666" x2="271.5015" y2="668.5742" gradientTransform="matrix(1 0 0 1 -246.3301 -660.6699)">
		<stop  offset="0" style="stop-color:#000000;stop-opacity:0"/>
		<stop  offset="1" style="stop-color:#FFFFFF;stop-opacity:0.25"/>
	</linearGradient>
	<path fill="url(#SVGID_7_)" d="M6,22.001h119c1.84,0,4.001,2.159,4.001,3.999v79c0,1.84-2.161,3.999-4.001,3.999H6
		c-1.841,0-4-2.159-4-3.999V26C2,24.16,4.159,22.001,6,22.001L6,22.001z"/>
</g>
</svg>
