<?xml version="1.0" encoding="utf-8"?>
<!-- Generator: Adobe Illustrator 16.0.0, SVG Export Plug-In . SVG Version: 6.00 Build 0)  -->
<!DOCTYPE svg PUBLIC "-//W3C//DTD SVG 1.1//EN" "http://www.w3.org/Graphics/SVG/1.1/DTD/svg11.dtd">
<svg version="1.1" id="Layer_1" xmlns="http://www.w3.org/2000/svg" xmlns:xlink="http://www.w3.org/1999/xlink" x="0px" y="0px"
	 width="132px" height="132px" viewBox="0 0 132 132" enable-background="new 0 0 132 132" xml:space="preserve">
<g id="disabled">
	<g>
		<g>
			
				<linearGradient id="SVGID_3_" gradientUnits="userSpaceOnUse" x1="249.5928" y1="727.1689" x2="376.0664" y2="727.1689" gradientTransform="matrix(1 0 0 1 -246.3301 -660.6699)">
				<stop  offset="0" style="stop-color:#000000;stop-opacity:0.6"/>
				<stop  offset="1" style="stop-color:#000000;stop-opacity:0.6"/>
			</linearGradient>
			<path id="SVGID_1_" fill="url(#SVGID_3_)" d="M69.087,11.761c8.843,15.314,50.501,87.229,60.233,104.087
				c1.332,2.31-0.735,6.719-3.327,6.719c-19.009,0-100.207,0-118.516,0c-4.331,0-5.284-2.892-3.044-6.771
				c9.737-16.862,50.96-88.227,60.072-104.009C65.487,10.082,68.006,9.89,69.087,11.761L69.087,11.761z"/>
		</g>
		<g>
			<path id="SVGID_2_" fill="#FFFFFF" d="M68.087,10.761c8.843,15.314,50.501,87.229,60.233,104.087
				c1.332,2.31-0.735,6.719-3.327,6.719c-19.009,0-100.207,0-118.516,0c-4.331,0-5.284-2.892-3.044-6.771
				c9.737-16.862,50.96-88.227,60.072-104.009C64.487,9.082,67.006,8.89,68.087,10.761L68.087,10.761z"/>
		</g>
	</g>
	<g>
		<g>
			<path id="SVGID_6_" fill="#575757" d="M67.316,15.969c8.441,14.622,48.218,83.284,57.51,99.379
				c0.938,1.623-0.111,3.355-1.756,3.355c-18.148,0-97.715,0-115.196,0c-1.744,0-2.394-1.752-1.441-3.403
				c9.297-16.103,48.655-84.238,57.356-99.306C64.728,14.368,66.285,14.182,67.316,15.969L67.316,15.969z"/>
		</g>
	</g>
	<g>
		<g>
			<path id="SVGID_8_" fill="#FFFFFF" d="M66.813,36.985c5.957,10.321,34.03,58.783,40.59,70.141
				c0.66,1.146-0.079,2.368-1.238,2.368c-12.811,0-68.967,0-81.305,0c-1.232,0-1.689-1.236-1.016-2.402
				c6.561-11.365,34.34-59.455,40.479-70.09C64.985,35.854,66.085,35.725,66.813,36.985L66.813,36.985z"/>
		</g>
	</g>
	<g>
		<g>
			<polygon id="SVGID_10_" points="52.146,106.593 49.147,106.593 49.147,68.594 52.146,68.594 			"/>
		</g>
	</g>
	<g>
		<g>
			<path id="SVGID_12_" d="M90.568,92.771c-2.536,4.744-10.98,0.863-11.801,0.39l-25.394-12.63l-0.877-10.993l9.31-3.607
				l24.064,15.711C86.691,82.117,93.73,86.855,90.568,92.771L90.568,92.771z M61.551,67.418l-7.554,3.116l0.536,9.206l1.407,0.724
				c0,0-0.701-3.586,1.131-6.847c1.83-3.26,5.844-5.319,5.844-5.319L61.551,67.418L61.551,67.418z M69.6,72.484
				c0,0-3.65,2.379-5.261,5.242c-1.586,2.821-1.127,6.437-1.127,6.437l6.322,3.246c0,0-0.435-3.351,1.163-6.196
				c1.597-2.843,4.92-4.771,4.92-4.771L69.6,72.484L69.6,72.484z M82.248,80.665c0,0-3.167,2.063-4.561,4.545
				c-1.375,2.447-0.979,5.58-0.979,5.58l5.479,2.815c0,0-0.375-2.906,1.01-5.371c1.386-2.465,4.267-4.137,4.267-4.137L82.248,80.665
				L82.248,80.665z M90.249,89.438c-0.403-0.236-1.347,0.621-2.108,1.916c-0.761,1.295-1.051,2.537-0.646,2.773
				c0.402,0.239,1.347-0.62,2.107-1.916C90.363,90.917,90.652,89.675,90.249,89.438L90.249,89.438z"/>
		</g>
	</g>
	
		<linearGradient id="SVGID_4_" gradientUnits="userSpaceOnUse" x1="337.8545" y1="806.2246" x2="265.17" y2="702.4202" gradientTransform="matrix(1 0 0 1 -246.3301 -660.6699)">
		<stop  offset="0" style="stop-color:#000000;stop-opacity:0"/>
		<stop  offset="1" style="stop-color:#FFFFFF;stop-opacity:0.25"/>
	</linearGradient>
	<path fill="url(#SVGID_4_)" d="M68.087,10.761c8.843,15.314,50.501,87.229,60.233,104.087c1.332,2.31-0.735,6.719-3.327,6.719
		c-19.009,0-100.207,0-118.516,0c-4.331,0-5.284-2.892-3.044-6.771c9.737-16.862,50.96-88.227,60.072-104.009
		C64.487,9.082,67.006,8.89,68.087,10.761L68.087,10.761z"/>
</g>
<g id="normal">
	<g>
		<g>
			
				<linearGradient id="SVGID_5_" gradientUnits="userSpaceOnUse" x1="249.5928" y1="727.1689" x2="376.0664" y2="727.1689" gradientTransform="matrix(1 0 0 1 -246.3301 -660.6699)">
				<stop  offset="0" style="stop-color:#000000;stop-opacity:0.6"/>
				<stop  offset="1" style="stop-color:#000000;stop-opacity:0.6"/>
			</linearGradient>
			<path id="SVGID_15_" fill="url(#SVGID_5_)" d="M69.087,11.761c8.843,15.314,50.501,87.229,60.233,104.087
				c1.332,2.31-0.735,6.719-3.327,6.719c-19.009,0-100.207,0-118.516,0c-4.331,0-5.284-2.892-3.044-6.771
				c9.737-16.862,50.96-88.227,60.072-104.009C65.487,10.082,68.006,9.89,69.087,11.761L69.087,11.761z"/>
		</g>
		<g>
			<path id="SVGID_16_" fill="#FFFFFF" d="M68.087,10.761c8.843,15.314,50.501,87.229,60.233,104.087
				c1.332,2.31-0.735,6.719-3.327,6.719c-19.009,0-100.207,0-118.516,0c-4.331,0-5.284-2.892-3.044-6.771
				c9.737-16.862,50.96-88.227,60.072-104.009C64.487,9.082,67.006,8.89,68.087,10.761L68.087,10.761z"/>
		</g>
	</g>
	<g>
		<g>
			<path id="SVGID_20_" fill="#DA1E22" d="M67.316,15.969c8.441,14.622,48.218,83.284,57.51,99.379
				c0.938,1.623-0.111,3.355-1.756,3.355c-18.148,0-97.715,0-115.196,0c-1.744,0-2.394-1.752-1.441-3.403
				c9.297-16.103,48.655-84.238,57.356-99.306C64.728,14.368,66.285,14.182,67.316,15.969L67.316,15.969z"/>
		</g>
	</g>
	<g>
		<g>
			<path id="SVGID_22_" fill="#FFFFFF" d="M66.813,36.985c5.957,10.321,34.03,58.783,40.59,70.141
				c0.66,1.146-0.079,2.368-1.238,2.368c-12.811,0-68.967,0-81.305,0c-1.232,0-1.689-1.236-1.016-2.402
				c6.561-11.365,34.34-59.455,40.479-70.09C64.985,35.854,66.085,35.725,66.813,36.985L66.813,36.985z"/>
		</g>
	</g>
	<g>
		<g>
			<polygon id="SVGID_24_" points="52.146,106.593 49.147,106.593 49.147,68.594 52.146,68.594 			"/>
		</g>
	</g>
	<g>
		<g>
			<path id="SVGID_26_" d="M90.568,92.771c-2.536,4.744-10.98,0.863-11.801,0.39l-25.394-12.63l-0.877-10.993l9.31-3.607
				l24.064,15.711C86.691,82.117,93.73,86.855,90.568,92.771L90.568,92.771z M61.551,67.418l-7.554,3.116l0.536,9.206l1.407,0.724
				c0,0-0.701-3.586,1.131-6.847c1.83-3.26,5.844-5.319,5.844-5.319L61.551,67.418L61.551,67.418z M69.6,72.484
				c0,0-3.65,2.379-5.261,5.242c-1.586,2.821-1.127,6.437-1.127,6.437l6.322,3.246c0,0-0.435-3.351,1.163-6.196
				c1.597-2.843,4.92-4.771,4.92-4.771L69.6,72.484L69.6,72.484z M82.248,80.665c0,0-3.167,2.063-4.561,4.545
				c-1.375,2.447-0.979,5.58-0.979,5.58l5.479,2.815c0,0-0.375-2.906,1.01-5.371c1.386-2.465,4.267-4.137,4.267-4.137L82.248,80.665
				L82.248,80.665z M90.249,89.438c-0.403-0.236-1.347,0.621-2.108,1.916c-0.761,1.295-1.051,2.537-0.646,2.773
				c0.402,0.239,1.347-0.62,2.107-1.916C90.363,90.917,90.652,89.675,90.249,89.438L90.249,89.438z"/>
		</g>
	</g>
	
		<linearGradient id="SVGID_7_" gradientUnits="userSpaceOnUse" x1="337.8545" y1="806.2246" x2="265.17" y2="702.4202" gradientTransform="matrix(1 0 0 1 -246.3301 -660.6699)">
		<stop  offset="0" style="stop-color:#000000;stop-opacity:0"/>
		<stop  offset="1" style="stop-color:#FFFFFF;stop-opacity:0.25"/>
	</linearGradient>
	<path fill="url(#SVGID_7_)" d="M68.087,10.761c8.843,15.314,50.501,87.229,60.233,104.087c1.332,2.31-0.735,6.719-3.327,6.719
		c-19.009,0-100.207,0-118.516,0c-4.331,0-5.284-2.892-3.044-6.771c9.737-16.862,50.96-88.227,60.072-104.009
		C64.487,9.082,67.006,8.89,68.087,10.761L68.087,10.761z"/>
</g>
</svg>
