<?xml version="1.0" encoding="utf-8"?>
<!-- Generator: Adobe Illustrator 16.0.0, SVG Export Plug-In . SVG Version: 6.00 Build 0)  -->
<!DOCTYPE svg PUBLIC "-//W3C//DTD SVG 1.1//EN" "http://www.w3.org/Graphics/SVG/1.1/DTD/svg11.dtd">
<svg version="1.1" id="Layer_1" xmlns="http://www.w3.org/2000/svg" xmlns:xlink="http://www.w3.org/1999/xlink" x="0px" y="0px"
	 width="132px" height="132px" viewBox="0 0 132 132" enable-background="new 0 0 132 132" xml:space="preserve">
<g id="disabled">
	<g>
		<g>
			
				<linearGradient id="SVGID_3_" gradientUnits="userSpaceOnUse" x1="372.5293" y1="-809.0044" x2="499.4609" y2="-809.0044" gradientTransform="matrix(1 0 0 -1 -369.4951 -742.5049)">
				<stop  offset="0" style="stop-color:#000000;stop-opacity:0.6"/>
				<stop  offset="1" style="stop-color:#000000;stop-opacity:0.6"/>
			</linearGradient>
			<path id="SVGID_1_" fill="url(#SVGID_3_)" d="M6.366,3.068L125.967,3c1.84,0,3.999,2.159,3.999,3.999V126
				c0,1.84-2.159,3.999-3.999,3.999h-119c-1.841,0-3.933-1.81-3.933-3.649V6.399C3.034,4.559,4.527,3.068,6.366,3.068L6.366,3.068z"
				/>
		</g>
		<g>
			<path id="SVGID_2_" fill="#5B5B5B" d="M5.366,2.068L124.967,2c1.84,0,3.999,2.159,3.999,3.999V125
				c0,1.84-2.159,3.999-3.999,3.999h-119c-1.841,0-3.933-1.81-3.933-3.649V5.399C2.034,3.559,3.527,2.068,5.366,2.068L5.366,2.068z"
				/>
		</g>
	</g>
	<g>
		<g>
			<path id="SVGID_6_" fill="#FFFFFF" d="M6.967,4h117c1.795,0,2.999,1.205,2.999,2.999v117c0,1.794-1.204,3.001-2.999,3.001h-117
				c-1.796,0-3.001-1.207-3.001-3.001V7C3.966,5.205,5.171,4,6.967,4L6.967,4z"/>
		</g>
	</g>
	<g>
		<g>
			<polygon id="SVGID_8_" fill="#5B5B5B" points="6.967,7 123.967,7 123.967,124 6.967,124 			"/>
		</g>
	</g>
	<g>
		<g>
			<polygon id="SVGID_10_" fill="#FFFFFF" points="92.967,90.999 92.982,119.066 85.967,118.999 85.967,93.775 67.025,70.572 
				47.966,93.783 47.966,118.999 40.966,118.999 40.966,90.999 62.966,65.203 62.966,37.999 54.966,37.999 66.592,14.898 
				78.967,37.999 69.966,37.999 69.966,63.876 			"/>
		</g>
	</g>
	
		<linearGradient id="SVGID_4_" gradientUnits="userSpaceOnUse" x1="484.6445" y1="-879.0518" x2="384.9967" y2="-736.7401" gradientTransform="matrix(1 0 0 -1 -369.4951 -742.5049)">
		<stop  offset="0" style="stop-color:#000000;stop-opacity:0"/>
		<stop  offset="1" style="stop-color:#FFFFFF;stop-opacity:0.25"/>
	</linearGradient>
	<path fill="url(#SVGID_4_)" d="M5.366,2.068L124.967,2c1.84,0,3.999,2.159,3.999,3.999V125c0,1.84-2.159,3.999-3.999,3.999h-119
		c-1.841,0-3.933-1.81-3.933-3.649V5.399C2.034,3.559,3.527,2.068,5.366,2.068L5.366,2.068z"/>
</g>
<g id="normal">
	<g>
		<g>
			
				<linearGradient id="SVGID_5_" gradientUnits="userSpaceOnUse" x1="372.5293" y1="-809.0044" x2="499.4609" y2="-809.0044" gradientTransform="matrix(1 0 0 -1 -369.4951 -742.5049)">
				<stop  offset="0" style="stop-color:#000000;stop-opacity:0.6"/>
				<stop  offset="1" style="stop-color:#000000;stop-opacity:0.6"/>
			</linearGradient>
			<path id="SVGID_13_" fill="url(#SVGID_5_)" d="M6.366,3.068L125.967,3c1.84,0,3.999,2.159,3.999,3.999V126
				c0,1.84-2.159,3.999-3.999,3.999h-119c-1.841,0-3.933-1.81-3.933-3.649V6.399C3.034,4.559,4.527,3.068,6.366,3.068L6.366,3.068z"
				/>
		</g>
		<g>
			<path id="SVGID_14_" fill="#0078BB" d="M5.366,2.068L124.967,2c1.84,0,3.999,2.159,3.999,3.999V125
				c0,1.84-2.159,3.999-3.999,3.999h-119c-1.841,0-3.933-1.81-3.933-3.649V5.399C2.034,3.559,3.527,2.068,5.366,2.068L5.366,2.068z"
				/>
		</g>
	</g>
	<g>
		<g>
			<path id="SVGID_18_" fill="#FFFFFF" d="M6.967,4h117c1.795,0,2.999,1.205,2.999,2.999v117c0,1.794-1.204,3.001-2.999,3.001h-117
				c-1.796,0-3.001-1.207-3.001-3.001V7C3.966,5.205,5.171,4,6.967,4L6.967,4z"/>
		</g>
	</g>
	<g>
		<g>
			<polygon id="SVGID_20_" fill="#0078BB" points="6.967,7 123.967,7 123.967,124 6.967,124 			"/>
		</g>
	</g>
	<g>
		<g>
			<polygon id="SVGID_22_" fill="#FFFFFF" points="92.967,90.999 92.982,119.066 85.967,118.999 85.967,93.775 67.025,70.572 
				47.966,93.783 47.966,118.999 40.966,118.999 40.966,90.999 62.966,65.203 62.966,37.999 54.966,37.999 66.592,14.898 
				78.967,37.999 69.966,37.999 69.966,63.876 			"/>
		</g>
	</g>
	
		<linearGradient id="SVGID_7_" gradientUnits="userSpaceOnUse" x1="484.6445" y1="-879.0518" x2="384.9967" y2="-736.7401" gradientTransform="matrix(1 0 0 -1 -369.4951 -742.5049)">
		<stop  offset="0" style="stop-color:#000000;stop-opacity:0"/>
		<stop  offset="1" style="stop-color:#FFFFFF;stop-opacity:0.25"/>
	</linearGradient>
	<path fill="url(#SVGID_7_)" d="M5.366,2.068L124.967,2c1.84,0,3.999,2.159,3.999,3.999V125c0,1.84-2.159,3.999-3.999,3.999h-119
		c-1.841,0-3.933-1.81-3.933-3.649V5.399C2.034,3.559,3.527,2.068,5.366,2.068L5.366,2.068z"/>
</g>
</svg>
