<?xml version="1.0" encoding="utf-8"?>
<!-- Generator: Adobe Illustrator 16.0.0, SVG Export Plug-In . SVG Version: 6.00 Build 0)  -->
<!DOCTYPE svg PUBLIC "-//W3C//DTD SVG 1.1//EN" "http://www.w3.org/Graphics/SVG/1.1/DTD/svg11.dtd">
<svg version="1.1" id="Layer_1" xmlns="http://www.w3.org/2000/svg" xmlns:xlink="http://www.w3.org/1999/xlink" x="0px" y="0px"
	 width="132px" height="132px" viewBox="0 0 132 132" enable-background="new 0 0 132 132" xml:space="preserve">
<g id="disabled">
	<g>
		<g>
			
				<linearGradient id="SVGID_3_" gradientUnits="userSpaceOnUse" x1="249.5928" y1="727.1699" x2="376.0664" y2="727.1699" gradientTransform="matrix(1 0 0 1 -246.3301 -660.6699)">
				<stop  offset="0" style="stop-color:#000000;stop-opacity:0.6"/>
				<stop  offset="1" style="stop-color:#000000;stop-opacity:0.6"/>
			</linearGradient>
			<path id="SVGID_1_" fill="url(#SVGID_3_)" d="M69.087,11.761c8.843,15.315,50.501,87.229,60.233,104.087
				c1.332,2.31-0.735,6.719-3.327,6.719c-19.009,0-100.207,0-118.516,0c-4.331,0-5.284-2.892-3.044-6.769
				c9.737-16.866,50.96-88.23,60.072-104.012C65.487,10.083,68.006,9.891,69.087,11.761L69.087,11.761z"/>
		</g>
		<g>
			<path id="SVGID_2_" fill="#FFFFFF" d="M68.087,10.761c8.843,15.315,50.501,87.229,60.233,104.087
				c1.332,2.31-0.735,6.719-3.327,6.719c-19.009,0-100.207,0-118.516,0c-4.331,0-5.284-2.892-3.044-6.769
				c9.737-16.866,50.96-88.23,60.072-104.012C64.487,9.083,67.006,8.891,68.087,10.761L68.087,10.761z"/>
		</g>
	</g>
	<g>
		<g>
			<path id="SVGID_6_" fill="#575757" d="M67.316,15.968c8.441,14.624,48.218,83.284,57.51,99.38
				c0.938,1.623-0.111,3.354-1.756,3.354c-18.148,0-97.715,0-115.196,0c-1.744,0-2.394-1.752-1.441-3.403
				c9.297-16.101,48.655-84.237,57.356-99.306C64.728,14.366,66.285,14.183,67.316,15.968L67.316,15.968z"/>
		</g>
	</g>
	<g>
		<g>
			<path id="SVGID_8_" fill="#FFFFFF" d="M66.813,36.986c5.957,10.319,34.03,58.78,40.59,70.14c0.66,1.146-0.079,2.368-1.238,2.368
				c-12.811,0-68.967,0-81.305,0c-1.232,0-1.689-1.236-1.016-2.4c6.561-11.365,34.34-59.455,40.479-70.091
				C64.985,35.854,66.085,35.725,66.813,36.986L66.813,36.986z"/>
		</g>
	</g>
	<g>
		<g>
			<path id="SVGID_10_" d="M88.146,95.593v-1.001h5v1.001H88.146L88.146,95.593z M75.146,95.593v-1.001h12v1.001H75.146
				L75.146,95.593z M69.146,94.592h5v1.001h-5V94.592L69.146,94.592z M63.146,94.592h5v1.001h-5V94.592L63.146,94.592z
				 M56.145,94.592h6v1.001h-6V94.592L56.145,94.592z M50.147,94.592h4.999v1.001h-4.999V94.592L50.147,94.592z M44.147,94.592
				h5.001v1.001h-5.001V94.592L44.147,94.592z M38.146,94.592h5.001v1.001h-5.001V94.592L38.146,94.592z"/>
		</g>
	</g>
	<g>
		<g>
			<path id="SVGID_12_" d="M93.146,107.592v-2h5v2H93.146L93.146,107.592z M87.146,107.592v-2h5v2H87.146L87.146,107.592z
				 M81.146,105.593h5v2h-5V105.593L81.146,105.593z M75.146,105.593h5v2h-5V105.593L75.146,105.593z M69.146,105.593h5v2h-5
				V105.593L69.146,105.593z M63.146,105.593h5v2h-5V105.593L63.146,105.593z M57.147,105.593h4.999v2h-4.999V105.593
				L57.147,105.593z M51.147,105.593h4.999v2h-4.999V105.593L51.147,105.593z M45.146,105.593h5.001v2h-5.001V105.593
				L45.146,105.593z M39.146,105.593h5.001v2h-5.001V105.593L39.146,105.593z M33.146,105.593h5v2h-5V105.593L33.146,105.593z"/>
		</g>
	</g>
	<g>
		<g>
			<path id="SVGID_14_" d="M78.926,100.893c0,0.203,2.215,0.152,2.215,0.152l4.254-5.251l-0.361-1.313c0,0-5.975-6.02-7.107-7.83
				c-1.131-1.811-4.072-8.055-4.57-9.775c-0.496-1.721-0.679-8.827-0.679-8.872s2.31,1.539,2.761,2.22
				c0.453,0.68,1.269,1.944,1.357,3.076c0.089,1.133-0.09,5.613-0.09,5.613s-0.137,0.497,0.678,0.452
				c0.816-0.046,1.313,0.271,1.901-0.405c0.588-0.682,1.087-0.951,1.087-1.631s-0.727-2.398-0.951-3.486
				c-0.227-1.085-1.313-5.929-2.396-7.422c-1.088-1.494-2.672-3.306-4.028-5.115c-1.358-1.811-3.802-1.584-4.663-1.63
				c-0.859-0.047-1.63-0.047-1.63-0.047s-0.543-0.588-0.317-1.176c0.227-0.588,0.77-1.177,0.906-2.218
				c0.136-1.042-0.045-2.127-0.409-2.988c-0.362-0.859-1.673-1.266-2.263-1.449c-0.588-0.181-1.765-0.317-2.353-0.181
				c-0.588,0.136-1.811,1.223-2.037,1.72s-0.497,1.494-0.543,2.264c-0.045,0.769,0.543,2.082,1.04,2.67s1.223,0.497,1.358,0.769
				c0.136,0.273,0.497,0.816,0.407,1.358c-0.09,0.542-0.497,0.77-1.04,1.358c-0.544,0.588-2.037,2.172-2.491,3.484
				c-0.452,1.313-1.447,5.159-3.167,6.383c-1.72,1.224-4.346,3.124-5.16,3.124c-0.816,0-1.584-0.09-1.811,0.045
				c-0.226,0.136-0.407,0.633-0.362,1.085c0.045,0.454,0.045,1.132,0.769,1.539c0.724,0.409,1.268,0.544,2.671,0.36
				c1.402-0.178,2.986-0.857,4.435-1.854c1.449-0.997,3.395-3.395,4.073-3.893c0.678-0.499,2.308-2.898,2.308-2.898
				s0.59,6.609,0.544,7.514c-0.045,0.904-0.273,2.398-1.087,3.938s-1.72,2.985-2.67,4.526c-0.951,1.539-1.811,4.299-2.038,6.111
				c-0.226,1.812-0.814,6.245-0.814,6.607c0,0.361,0.226,0.904-0.271,1.225c-0.497,0.315-4.48-0.092-5.07,0
				c-0.588,0.09-0.543,0.768-0.543,0.768s6.336,3.033,6.926,3.172c0.588,0.134,0.724-0.499,0.95-0.816
				c0.226-0.316,1.313-5.16,1.901-6.564c0.588-1.4,2.489-6.2,3.531-7.559c1.042-1.357,3.153-5.529,3.696-6.025
				c0.545-0.5,1.236-0.49,1.463-0.311c0.227,0.182,1.404,2.127,1.9,3.213c0.497,1.088,2.309,3.668,3.077,4.618
				s2.808,2.988,3.804,3.892c0.996,0.906,2.26,1.775,2.666,2.184c0.408,0.404,0.371,1.715,0.25,2.061
				C80.596,98.611,78.926,101.037,78.926,100.893L78.926,100.893z"/>
		</g>
	</g>
	
		<linearGradient id="SVGID_4_" gradientUnits="userSpaceOnUse" x1="337.8535" y1="806.2246" x2="265.1684" y2="702.4194" gradientTransform="matrix(1 0 0 1 -246.3301 -660.6699)">
		<stop  offset="0" style="stop-color:#000000;stop-opacity:0"/>
		<stop  offset="1" style="stop-color:#FFFFFF;stop-opacity:0.25"/>
	</linearGradient>
	<path fill="url(#SVGID_4_)" d="M68.087,10.761c8.843,15.315,50.501,87.229,60.233,104.087c1.332,2.31-0.735,6.719-3.327,6.719
		c-19.009,0-100.207,0-118.516,0c-4.331,0-5.284-2.892-3.044-6.769c9.737-16.866,50.96-88.23,60.072-104.012
		C64.487,9.083,67.006,8.891,68.087,10.761L68.087,10.761z"/>
</g>
<g id="normal">
	<g>
		<g>
			
				<linearGradient id="SVGID_5_" gradientUnits="userSpaceOnUse" x1="249.5928" y1="727.1699" x2="376.0664" y2="727.1699" gradientTransform="matrix(1 0 0 1 -246.3301 -660.6699)">
				<stop  offset="0" style="stop-color:#000000;stop-opacity:0.6"/>
				<stop  offset="1" style="stop-color:#000000;stop-opacity:0.6"/>
			</linearGradient>
			<path id="SVGID_17_" fill="url(#SVGID_5_)" d="M69.087,11.761c8.843,15.315,50.501,87.229,60.233,104.087
				c1.332,2.31-0.735,6.719-3.327,6.719c-19.009,0-100.207,0-118.516,0c-4.331,0-5.284-2.892-3.044-6.769
				c9.737-16.866,50.96-88.23,60.072-104.012C65.487,10.083,68.006,9.891,69.087,11.761L69.087,11.761z"/>
		</g>
		<g>
			<path id="SVGID_18_" fill="#FFFFFF" d="M68.087,10.761c8.843,15.315,50.501,87.229,60.233,104.087
				c1.332,2.31-0.735,6.719-3.327,6.719c-19.009,0-100.207,0-118.516,0c-4.331,0-5.284-2.892-3.044-6.769
				c9.737-16.866,50.96-88.23,60.072-104.012C64.487,9.083,67.006,8.891,68.087,10.761L68.087,10.761z"/>
		</g>
	</g>
	<g>
		<g>
			<path id="SVGID_22_" fill="#DA1E22" d="M67.316,15.968c8.441,14.624,48.218,83.284,57.51,99.38
				c0.938,1.623-0.111,3.354-1.756,3.354c-18.148,0-97.715,0-115.196,0c-1.744,0-2.394-1.752-1.441-3.403
				c9.297-16.101,48.655-84.237,57.356-99.306C64.728,14.366,66.285,14.183,67.316,15.968L67.316,15.968z"/>
		</g>
	</g>
	<g>
		<g>
			<path id="SVGID_24_" fill="#FFFFFF" d="M66.813,36.986c5.957,10.319,34.03,58.78,40.59,70.14c0.66,1.146-0.079,2.368-1.238,2.368
				c-12.811,0-68.967,0-81.305,0c-1.232,0-1.689-1.236-1.016-2.4c6.561-11.365,34.34-59.455,40.479-70.091
				C64.985,35.854,66.085,35.725,66.813,36.986L66.813,36.986z"/>
		</g>
	</g>
	<g>
		<g>
			<path id="SVGID_26_" d="M88.146,95.593v-1.001h5v1.001H88.146L88.146,95.593z M75.146,95.593v-1.001h12v1.001H75.146
				L75.146,95.593z M69.146,94.592h5v1.001h-5V94.592L69.146,94.592z M63.146,94.592h5v1.001h-5V94.592L63.146,94.592z
				 M56.145,94.592h6v1.001h-6V94.592L56.145,94.592z M50.147,94.592h4.999v1.001h-4.999V94.592L50.147,94.592z M44.147,94.592
				h5.001v1.001h-5.001V94.592L44.147,94.592z M38.146,94.592h5.001v1.001h-5.001V94.592L38.146,94.592z"/>
		</g>
	</g>
	<g>
		<g>
			<path id="SVGID_28_" d="M93.146,107.592v-2h5v2H93.146L93.146,107.592z M87.146,107.592v-2h5v2H87.146L87.146,107.592z
				 M81.146,105.593h5v2h-5V105.593L81.146,105.593z M75.146,105.593h5v2h-5V105.593L75.146,105.593z M69.146,105.593h5v2h-5
				V105.593L69.146,105.593z M63.146,105.593h5v2h-5V105.593L63.146,105.593z M57.147,105.593h4.999v2h-4.999V105.593
				L57.147,105.593z M51.147,105.593h4.999v2h-4.999V105.593L51.147,105.593z M45.146,105.593h5.001v2h-5.001V105.593
				L45.146,105.593z M39.146,105.593h5.001v2h-5.001V105.593L39.146,105.593z M33.146,105.593h5v2h-5V105.593L33.146,105.593z"/>
		</g>
	</g>
	<g>
		<g>
			<path id="SVGID_30_" d="M78.926,100.893c0,0.203,2.215,0.152,2.215,0.152l4.254-5.251l-0.361-1.313c0,0-5.975-6.02-7.107-7.83
				c-1.131-1.811-4.072-8.055-4.57-9.775c-0.496-1.721-0.679-8.827-0.679-8.872s2.31,1.539,2.761,2.22
				c0.453,0.68,1.269,1.944,1.357,3.076c0.089,1.133-0.09,5.613-0.09,5.613s-0.137,0.497,0.678,0.452
				c0.816-0.046,1.313,0.271,1.901-0.405c0.588-0.682,1.087-0.951,1.087-1.631s-0.727-2.398-0.951-3.486
				c-0.227-1.085-1.313-5.929-2.396-7.422c-1.088-1.494-2.672-3.306-4.028-5.115c-1.358-1.811-3.802-1.584-4.663-1.63
				c-0.859-0.047-1.63-0.047-1.63-0.047s-0.543-0.588-0.317-1.176c0.227-0.588,0.77-1.177,0.906-2.218
				c0.136-1.042-0.045-2.127-0.409-2.988c-0.362-0.859-1.673-1.266-2.263-1.449c-0.588-0.181-1.765-0.317-2.353-0.181
				c-0.588,0.136-1.811,1.223-2.037,1.72s-0.497,1.494-0.543,2.264c-0.045,0.769,0.543,2.082,1.04,2.67s1.223,0.497,1.358,0.769
				c0.136,0.273,0.497,0.816,0.407,1.358c-0.09,0.542-0.497,0.77-1.04,1.358c-0.544,0.588-2.037,2.172-2.491,3.484
				c-0.452,1.313-1.447,5.159-3.167,6.383c-1.72,1.224-4.346,3.124-5.16,3.124c-0.816,0-1.584-0.09-1.811,0.045
				c-0.226,0.136-0.407,0.633-0.362,1.085c0.045,0.454,0.045,1.132,0.769,1.539c0.724,0.409,1.268,0.544,2.671,0.36
				c1.402-0.178,2.986-0.857,4.435-1.854c1.449-0.997,3.395-3.395,4.073-3.893c0.678-0.499,2.308-2.898,2.308-2.898
				s0.59,6.609,0.544,7.514c-0.045,0.904-0.273,2.398-1.087,3.938s-1.72,2.985-2.67,4.526c-0.951,1.539-1.811,4.299-2.038,6.111
				c-0.226,1.812-0.814,6.245-0.814,6.607c0,0.361,0.226,0.904-0.271,1.225c-0.497,0.315-4.48-0.092-5.07,0
				c-0.588,0.09-0.543,0.768-0.543,0.768s6.336,3.033,6.926,3.172c0.588,0.134,0.724-0.499,0.95-0.816
				c0.226-0.316,1.313-5.16,1.901-6.564c0.588-1.4,2.489-6.2,3.531-7.559c1.042-1.357,3.153-5.529,3.696-6.025
				c0.545-0.5,1.236-0.49,1.463-0.311c0.227,0.182,1.404,2.127,1.9,3.213c0.497,1.088,2.309,3.668,3.077,4.618
				s2.808,2.988,3.804,3.892c0.996,0.906,2.26,1.775,2.666,2.184c0.408,0.404,0.371,1.715,0.25,2.061
				C80.596,98.611,78.926,101.037,78.926,100.893L78.926,100.893z"/>
		</g>
	</g>
	
		<linearGradient id="SVGID_7_" gradientUnits="userSpaceOnUse" x1="337.8535" y1="806.2246" x2="265.1684" y2="702.4194" gradientTransform="matrix(1 0 0 1 -246.3301 -660.6699)">
		<stop  offset="0" style="stop-color:#000000;stop-opacity:0"/>
		<stop  offset="1" style="stop-color:#FFFFFF;stop-opacity:0.25"/>
	</linearGradient>
	<path fill="url(#SVGID_7_)" d="M68.087,10.761c8.843,15.315,50.501,87.229,60.233,104.087c1.332,2.31-0.735,6.719-3.327,6.719
		c-19.009,0-100.207,0-118.516,0c-4.331,0-5.284-2.892-3.044-6.769c9.737-16.866,50.96-88.23,60.072-104.012
		C64.487,9.083,67.006,8.891,68.087,10.761L68.087,10.761z"/>
</g>
</svg>
