<?xml version="1.0" encoding="utf-8"?>
<!-- Generator: Adobe Illustrator 16.0.0, SVG Export Plug-In . SVG Version: 6.00 Build 0)  -->
<!DOCTYPE svg PUBLIC "-//W3C//DTD SVG 1.1//EN" "http://www.w3.org/Graphics/SVG/1.1/DTD/svg11.dtd">
<svg version="1.1" id="Layer_1" xmlns="http://www.w3.org/2000/svg" xmlns:xlink="http://www.w3.org/1999/xlink" x="0px" y="0px"
	 width="132px" height="132px" viewBox="0 0 132 132" enable-background="new 0 0 132 132" xml:space="preserve">
<g id="disabled">
	<g>
		<g>
			
				<linearGradient id="SVGID_3_" gradientUnits="userSpaceOnUse" x1="249.5928" y1="727.1699" x2="376.0664" y2="727.1699" gradientTransform="matrix(1 0 0 1 -246.3301 -660.6699)">
				<stop  offset="0" style="stop-color:#000000;stop-opacity:0.6"/>
				<stop  offset="1" style="stop-color:#000000;stop-opacity:0.6"/>
			</linearGradient>
			<path id="SVGID_1_" fill="url(#SVGID_3_)" d="M69.087,11.761c8.843,15.315,50.501,87.23,60.233,104.085
				c1.332,2.313-0.735,6.723-3.327,6.723c-19.009,0-100.207,0-118.516,0c-4.331,0-5.284-2.892-3.044-6.771
				C14.17,98.934,55.393,27.57,64.505,11.787C65.487,10.083,68.006,9.891,69.087,11.761L69.087,11.761z"/>
		</g>
		<g>
			<path id="SVGID_2_" fill="#FFFFFF" d="M68.087,10.761c8.843,15.315,50.501,87.23,60.233,104.085
				c1.332,2.313-0.735,6.723-3.327,6.723c-19.009,0-100.207,0-118.516,0c-4.331,0-5.284-2.892-3.044-6.771
				C13.17,97.934,54.393,26.57,63.505,10.787C64.487,9.083,67.006,8.891,68.087,10.761L68.087,10.761z"/>
		</g>
	</g>
	<g>
		<g>
			<path id="SVGID_6_" fill="#575757" d="M67.316,15.968c8.441,14.622,48.218,83.284,57.51,99.38
				c0.938,1.621-0.111,3.355-1.756,3.355c-18.148,0-97.715,0-115.196,0c-1.744,0-2.394-1.752-1.441-3.403
				c9.297-16.103,48.655-84.238,57.356-99.306C64.728,14.366,66.285,14.183,67.316,15.968L67.316,15.968z"/>
		</g>
	</g>
	<g>
		<g>
			<path id="SVGID_8_" fill="#FFFFFF" d="M66.813,36.986c5.957,10.319,34.03,58.78,40.59,70.14c0.66,1.146-0.079,2.368-1.238,2.368
				c-12.811,0-68.967,0-81.305,0c-1.232,0-1.689-1.237-1.016-2.402c6.561-11.363,34.34-59.454,40.479-70.09
				C64.985,35.854,66.085,35.725,66.813,36.986L66.813,36.986z"/>
		</g>
	</g>
	<g>
		<g>
			<path id="SVGID_10_" d="M69.146,99.092v0.475h27.047v1.423H69.146v0.136h24.135v1.421H80.959v0.608h-4.605v1.017H47.511v-1.421
				h1.636v-4.156h0.124v-0.72h-0.204c-1.794,0-2.922-1.483-2.922-3.28c0,0,0-8.324,0-15c0-4.434,1.135-8.126,1.135-8.126
				c0-1.794,2.387-2.872,3.865-2.872h7v-3.002h-6v-2h15v2h-6v3.002h6c0.847,0,1.83,0.362,2.526,1.002
				c0.759,0.01,1.218,0.022,1.231,0.043C83.76,89.134,97.006,91.373,97.006,91.373v7.719H69.146L69.146,99.092z M64.577,90.662
				c0,0.953,2.226,1.727,3.179,1.727c0.955,0,1.727-0.772,1.727-1.727v-2.337c0-0.953-0.771-1.726-1.727-1.726
				c-0.953,0-3.179,0.771-3.179,1.726V90.662L64.577,90.662z M55.146,101.732h8v-2.642h-8V101.732L55.146,101.732z M48.255,90.662
				c0,0.953,0.774,1.727,1.727,1.727s3.179-0.772,3.179-1.727v-2.337c0-0.953-2.226-1.726-3.179-1.726s-1.727,0.771-1.727,1.726
				V90.662L48.255,90.662z M70.146,76.593c0-2.411-2-6-2-6h-18c0,0-2.001,3.589-2.001,6c0,1.744,0,2.999,0,2.999h22
				C70.146,79.592,70.146,78.337,70.146,76.593L70.146,76.593z M76.146,81.593l-2-2.001v9.001l2,1.998V81.593L76.146,81.593z
				 M81.009,86.499l-2.233-1.625v5.687l2.233,1.625V86.499L81.009,86.499z M85.275,89.038l-1.729-0.761v4.468l1.729,0.762V89.038
				L85.275,89.038z M90.049,91.475l-2.641-0.711v3.353l2.641,0.711V91.475L90.049,91.475z M95.889,92.693l-3.453-0.406v2.641
				l3.453,0.405V92.693L95.889,92.693z M74.146,105.593h-29v-1h29V105.593L74.146,105.593z"/>
		</g>
	</g>
	
		<linearGradient id="SVGID_4_" gradientUnits="userSpaceOnUse" x1="337.8545" y1="806.2275" x2="265.1682" y2="702.4208" gradientTransform="matrix(1 0 0 1 -246.3301 -660.6699)">
		<stop  offset="0" style="stop-color:#000000;stop-opacity:0"/>
		<stop  offset="1" style="stop-color:#FFFFFF;stop-opacity:0.25"/>
	</linearGradient>
	<path fill="url(#SVGID_4_)" d="M68.087,10.761c8.843,15.315,50.501,87.23,60.233,104.085c1.332,2.313-0.735,6.723-3.327,6.723
		c-19.009,0-100.207,0-118.516,0c-4.331,0-5.284-2.892-3.044-6.771C13.17,97.934,54.393,26.57,63.505,10.787
		C64.487,9.083,67.006,8.891,68.087,10.761L68.087,10.761z"/>
</g>
<g id="normal">
	<g>
		<g>
			
				<linearGradient id="SVGID_5_" gradientUnits="userSpaceOnUse" x1="249.5928" y1="727.1699" x2="376.0664" y2="727.1699" gradientTransform="matrix(1 0 0 1 -246.3301 -660.6699)">
				<stop  offset="0" style="stop-color:#000000;stop-opacity:0.6"/>
				<stop  offset="1" style="stop-color:#000000;stop-opacity:0.6"/>
			</linearGradient>
			<path id="SVGID_13_" fill="url(#SVGID_5_)" d="M69.087,11.761c8.843,15.315,50.501,87.23,60.233,104.085
				c1.332,2.313-0.735,6.723-3.327,6.723c-19.009,0-100.207,0-118.516,0c-4.331,0-5.284-2.892-3.044-6.771
				C14.17,98.934,55.393,27.57,64.505,11.787C65.487,10.083,68.006,9.891,69.087,11.761L69.087,11.761z"/>
		</g>
		<g>
			<path id="SVGID_14_" fill="#FFFFFF" d="M68.087,10.761c8.843,15.315,50.501,87.23,60.233,104.085
				c1.332,2.313-0.735,6.723-3.327,6.723c-19.009,0-100.207,0-118.516,0c-4.331,0-5.284-2.892-3.044-6.771
				C13.17,97.934,54.393,26.57,63.505,10.787C64.487,9.083,67.006,8.891,68.087,10.761L68.087,10.761z"/>
		</g>
	</g>
	<g>
		<g>
			<path id="SVGID_18_" fill="#DA1E22" d="M67.316,15.968c8.441,14.622,48.218,83.284,57.51,99.38
				c0.938,1.621-0.111,3.355-1.756,3.355c-18.148,0-97.715,0-115.196,0c-1.744,0-2.394-1.752-1.441-3.403
				c9.297-16.103,48.655-84.238,57.356-99.306C64.728,14.366,66.285,14.183,67.316,15.968L67.316,15.968z"/>
		</g>
	</g>
	<g>
		<g>
			<path id="SVGID_20_" fill="#FFFFFF" d="M66.813,36.986c5.957,10.319,34.03,58.78,40.59,70.14c0.66,1.146-0.079,2.368-1.238,2.368
				c-12.811,0-68.967,0-81.305,0c-1.232,0-1.689-1.237-1.016-2.402c6.561-11.363,34.34-59.454,40.479-70.09
				C64.985,35.854,66.085,35.725,66.813,36.986L66.813,36.986z"/>
		</g>
	</g>
	<g>
		<g>
			<path id="SVGID_22_" d="M69.146,99.092v0.475h27.047v1.423H69.146v0.136h24.135v1.421H80.959v0.608h-4.605v1.017H47.511v-1.421
				h1.636v-4.156h0.124v-0.72h-0.204c-1.794,0-2.922-1.483-2.922-3.28c0,0,0-8.324,0-15c0-4.434,1.135-8.126,1.135-8.126
				c0-1.794,2.387-2.872,3.865-2.872h7v-3.002h-6v-2h15v2h-6v3.002h6c0.847,0,1.83,0.362,2.526,1.002
				c0.759,0.01,1.218,0.022,1.231,0.043C83.76,89.134,97.006,91.373,97.006,91.373v7.719H69.146L69.146,99.092z M64.577,90.662
				c0,0.953,2.226,1.727,3.179,1.727c0.955,0,1.727-0.772,1.727-1.727v-2.337c0-0.953-0.771-1.726-1.727-1.726
				c-0.953,0-3.179,0.771-3.179,1.726V90.662L64.577,90.662z M55.146,101.732h8v-2.642h-8V101.732L55.146,101.732z M48.255,90.662
				c0,0.953,0.774,1.727,1.727,1.727s3.179-0.772,3.179-1.727v-2.337c0-0.953-2.226-1.726-3.179-1.726s-1.727,0.771-1.727,1.726
				V90.662L48.255,90.662z M70.146,76.593c0-2.411-2-6-2-6h-18c0,0-2.001,3.589-2.001,6c0,1.744,0,2.999,0,2.999h22
				C70.146,79.592,70.146,78.337,70.146,76.593L70.146,76.593z M76.146,81.593l-2-2.001v9.001l2,1.998V81.593L76.146,81.593z
				 M81.009,86.499l-2.233-1.625v5.687l2.233,1.625V86.499L81.009,86.499z M85.275,89.038l-1.729-0.761v4.468l1.729,0.762V89.038
				L85.275,89.038z M90.049,91.475l-2.641-0.711v3.353l2.641,0.711V91.475L90.049,91.475z M95.889,92.693l-3.453-0.406v2.641
				l3.453,0.405V92.693L95.889,92.693z M74.146,105.593h-29v-1h29V105.593L74.146,105.593z"/>
		</g>
	</g>
	
		<linearGradient id="SVGID_7_" gradientUnits="userSpaceOnUse" x1="337.8545" y1="806.2275" x2="265.1682" y2="702.4208" gradientTransform="matrix(1 0 0 1 -246.3301 -660.6699)">
		<stop  offset="0" style="stop-color:#000000;stop-opacity:0"/>
		<stop  offset="1" style="stop-color:#FFFFFF;stop-opacity:0.25"/>
	</linearGradient>
	<path fill="url(#SVGID_7_)" d="M68.087,10.761c8.843,15.315,50.501,87.23,60.233,104.085c1.332,2.313-0.735,6.723-3.327,6.723
		c-19.009,0-100.207,0-118.516,0c-4.331,0-5.284-2.892-3.044-6.771C13.17,97.934,54.393,26.57,63.505,10.787
		C64.487,9.083,67.006,8.891,68.087,10.761L68.087,10.761z"/>
</g>
</svg>
