<?xml version="1.0" encoding="utf-8"?>
<!-- Generator: Adobe Illustrator 16.0.0, SVG Export Plug-In . SVG Version: 6.00 Build 0)  -->
<!DOCTYPE svg PUBLIC "-//W3C//DTD SVG 1.1//EN" "http://www.w3.org/Graphics/SVG/1.1/DTD/svg11.dtd">
<svg version="1.1" id="Layer_1" xmlns="http://www.w3.org/2000/svg" xmlns:xlink="http://www.w3.org/1999/xlink" x="0px" y="0px"
	 width="132px" height="132px" viewBox="0 0 132 132" enable-background="new 0 0 132 132" xml:space="preserve">
<g id="disabled">
	<g>
		<g>
			
				<linearGradient id="SVGID_3_" gradientUnits="userSpaceOnUse" x1="249.6631" y1="727.1699" x2="375.9971" y2="727.1699" gradientTransform="matrix(1 0 0 1 -246.3301 -660.6699)">
				<stop  offset="0" style="stop-color:#000000;stop-opacity:0.6"/>
				<stop  offset="1" style="stop-color:#000000;stop-opacity:0.6"/>
			</linearGradient>
			<path id="SVGID_1_" fill="url(#SVGID_3_)" d="M69.084,11.822c8.832,15.297,50.443,87.133,60.167,103.972
				c1.331,2.308-0.735,6.712-3.321,6.712c-18.988,0-100.098,0-118.388,0c-4.326,0-5.277-2.889-3.041-6.762
				c9.726-16.846,50.903-88.131,60.005-103.896C65.489,10.146,68.005,9.952,69.084,11.822L69.084,11.822z"/>
		</g>
		<g>
			<path id="SVGID_2_" fill="#FFFFFF" d="M68.084,10.822c8.832,15.297,50.443,87.133,60.167,103.972
				c1.331,2.308-0.735,6.712-3.321,6.712c-18.988,0-100.098,0-118.388,0c-4.326,0-5.277-2.889-3.041-6.762
				c9.726-16.846,50.903-88.131,60.005-103.896C64.489,9.146,67.005,8.952,68.084,10.822L68.084,10.822z"/>
		</g>
	</g>
	<g>
		<g>
			<path id="SVGID_6_" fill="#575757" d="M67.314,16.023c8.434,14.606,48.164,83.193,57.444,99.27
				c0.938,1.62,0.099,3.227-1.544,3.227c-18.128,0-97.537,0-115,0c-1.743,0-2.668-1.625-1.717-3.274
				C15.786,99.161,55.1,31.099,63.791,16.047C64.728,14.424,66.285,14.24,67.314,16.023L67.314,16.023z"/>
		</g>
	</g>
	<g>
		<g>
			<path id="SVGID_8_" fill="#FFFFFF" d="M66.811,37.016c5.951,10.31,33.994,58.716,40.545,70.064
				c0.66,1.145-0.078,2.365-1.236,2.365c-12.795,0-68.891,0-81.216,0c-1.229,0-1.686-1.234-1.014-2.397
				c6.554-11.353,34.303-59.391,40.435-70.014C64.985,35.887,66.083,35.758,66.811,37.016L66.811,37.016z"/>
		</g>
	</g>
	<g>
		<g>
			<path id="SVGID_10_" d="M62.045,80.238l1.072-3.996l-4.719-1.266c-0.178-0.047-0.365-0.021-0.525,0.068l-3.376,1.949
				c-0.328,0.189-0.443,0.609-0.252,0.941c0.09,0.158,0.241,0.275,0.418,0.321L62.045,80.238L62.045,80.238z M63.044,80.506
				l9.185,2.46c0.185,0.05,0.371-0.06,0.422-0.245c0.024-0.088,0.013-0.184-0.032-0.261l-2.368-4.099
				c-0.09-0.156-0.241-0.272-0.417-0.319l-5.718-1.533L63.044,80.506L63.044,80.506z M79.928,90.741
				c0.493-1.841-0.599-3.733-2.437-4.224c-1.841-0.494-3.729,0.598-4.224,2.436L56.29,84.404c0.491-1.84-0.601-3.729-2.436-4.223
				c-1.84-0.49-3.731,0.601-4.222,2.439l-1.334-0.357c-0.368-0.101-0.586-0.477-0.486-0.848l1.163-4.34
				c0.053-0.202,0.197-0.367,0.388-0.452l7.564-3.313c0.144-0.063,0.302-0.074,0.452-0.035l12.809,3.434
				c0.179,0.047,0.326,0.161,0.422,0.32l3.27,5.662l9.01,4.101c0.305,0.14,0.469,0.479,0.381,0.81l-0.83,3.096
				c-0.1,0.367-0.479,0.586-0.847,0.486L79.928,90.741L79.928,90.741z M50.297,82.798c0.394-1.471,1.908-2.344,3.379-1.948
				c1.471,0.396,2.342,1.908,1.95,3.377c-0.394,1.472-1.908,2.344-3.379,1.95C50.776,85.781,49.903,84.27,50.297,82.798
				 M73.936,89.134c0.396-1.471,1.907-2.345,3.377-1.952c1.471,0.396,2.345,1.907,1.951,3.379c-0.395,1.469-1.908,2.344-3.38,1.948
				C74.413,92.117,73.542,90.602,73.936,89.134 M52.96,101.193v-2.172l0.667-0.277c1.428-0.594,3.03-0.594,4.456,0l1.334,0.557
				c1.428,0.594,3.032,0.594,4.456,0l1.336-0.557c1.426-0.594,3.029-0.594,4.455,0L71,99.302c1.428,0.595,3.032,0.595,4.455,0
				l1.336-0.557c1.428-0.593,3.032-0.593,4.455,0l1.336,0.557c1.428,0.595,3.029,0.595,4.456,0l1.336-0.557
				c1.425-0.593,3.026-0.593,4.455,0l1.336,0.557c1.425,0.595,3.028,0.595,4.456,0l0.72-0.299l1.019,1.763
				c-0.137,0.047-0.271,0.096-0.401,0.151l-1.336,0.558c-1.429,0.594-3.032,0.594-4.456,0l-1.336-0.558
				c-1.43-0.593-3.03-0.593-4.455,0l-1.336,0.558c-1.428,0.594-3.027,0.594-4.456,0l-1.336-0.558c-1.423-0.593-3.026-0.593-4.455,0
				l-1.336,0.558c-1.423,0.594-3.026,0.594-4.455,0l-1.336-0.558c-1.427-0.593-3.026-0.593-4.455,0l-1.336,0.558
				c-1.425,0.594-3.028,0.594-4.456,0l-1.334-0.558c-1.426-0.593-3.028-0.593-4.456,0L52.96,101.193L52.96,101.193z M52.96,105.538
				v-2.171l0.667-0.281c1.428-0.593,3.03-0.593,4.456,0l1.334,0.561c1.428,0.595,3.032,0.595,4.456,0l1.336-0.561
				c1.426-0.593,3.029-0.593,4.455,0L71,103.646c1.428,0.594,3.032,0.594,4.455,0l1.336-0.562c1.428-0.593,3.032-0.593,4.455,0
				l1.336,0.562c1.428,0.594,3.029,0.594,4.456,0l1.336-0.562c1.425-0.593,3.026-0.593,4.455,0l1.336,0.562
				c1.425,0.594,3.028,0.594,4.456,0l1.336-0.562c0.48-0.198,0.993-0.334,1.512-0.397l1.242,2.149
				c-0.939-0.086-1.883,0.058-2.754,0.42l-1.336,0.562c-1.428,0.591-3.032,0.591-4.456,0l-1.336-0.562
				c-1.429-0.593-3.03-0.593-4.455,0l-1.336,0.562c-1.427,0.591-3.028,0.591-4.456,0l-1.336-0.562c-1.423-0.593-3.027-0.593-4.455,0
				l-1.336,0.562c-1.423,0.591-3.027,0.591-4.455,0l-1.336-0.562c-1.426-0.593-3.027-0.593-4.455,0l-1.336,0.562
				c-1.425,0.591-3.028,0.591-4.456,0l-1.334-0.562c-1.426-0.593-3.028-0.593-4.456,0L52.96,105.538L52.96,105.538z M27.216,106.521
				l10.736-17.955l14.263-0.045v18H27.216L27.216,106.521z"/>
		</g>
	</g>
	
		<linearGradient id="SVGID_4_" gradientUnits="userSpaceOnUse" x1="337.8252" y1="806.1387" x2="265.2202" y2="702.4479" gradientTransform="matrix(1 0 0 1 -246.3301 -660.6699)">
		<stop  offset="0" style="stop-color:#000000;stop-opacity:0"/>
		<stop  offset="1" style="stop-color:#FFFFFF;stop-opacity:0.25"/>
	</linearGradient>
	<path fill="url(#SVGID_4_)" d="M68.084,10.822c8.832,15.297,50.443,87.133,60.167,103.972c1.331,2.308-0.735,6.712-3.321,6.712
		c-18.988,0-100.098,0-118.388,0c-4.326,0-5.277-2.889-3.041-6.762c9.726-16.846,50.903-88.131,60.005-103.896
		C64.489,9.146,67.005,8.952,68.084,10.822L68.084,10.822z"/>
</g>
<g id="normal">
	<g>
		<g>
			
				<linearGradient id="SVGID_5_" gradientUnits="userSpaceOnUse" x1="249.6631" y1="727.1699" x2="375.9971" y2="727.1699" gradientTransform="matrix(1 0 0 1 -246.3301 -660.6699)">
				<stop  offset="0" style="stop-color:#000000;stop-opacity:0.6"/>
				<stop  offset="1" style="stop-color:#000000;stop-opacity:0.6"/>
			</linearGradient>
			<path id="SVGID_13_" fill="url(#SVGID_5_)" d="M69.084,11.822c8.832,15.297,50.443,87.133,60.167,103.972
				c1.331,2.308-0.735,6.712-3.321,6.712c-18.988,0-100.098,0-118.388,0c-4.326,0-5.277-2.889-3.041-6.762
				c9.726-16.846,50.903-88.131,60.005-103.896C65.489,10.146,68.005,9.952,69.084,11.822L69.084,11.822z"/>
		</g>
		<g>
			<path id="SVGID_14_" fill="#FFFFFF" d="M68.084,10.822c8.832,15.297,50.443,87.133,60.167,103.972
				c1.331,2.308-0.735,6.712-3.321,6.712c-18.988,0-100.098,0-118.388,0c-4.326,0-5.277-2.889-3.041-6.762
				c9.726-16.846,50.903-88.131,60.005-103.896C64.489,9.146,67.005,8.952,68.084,10.822L68.084,10.822z"/>
		</g>
	</g>
	<g>
		<g>
			<path id="SVGID_18_" fill="#DA1E22" d="M67.314,16.023c8.434,14.606,48.164,83.193,57.444,99.27
				c0.938,1.62,0.099,3.227-1.544,3.227c-18.128,0-97.537,0-115,0c-1.743,0-2.668-1.625-1.717-3.274
				C15.786,99.161,55.1,31.099,63.791,16.047C64.728,14.424,66.285,14.24,67.314,16.023L67.314,16.023z"/>
		</g>
	</g>
	<g>
		<g>
			<path id="SVGID_20_" fill="#FFFFFF" d="M66.811,37.016c5.951,10.31,33.994,58.716,40.545,70.064
				c0.66,1.145-0.078,2.365-1.236,2.365c-12.795,0-68.891,0-81.216,0c-1.229,0-1.686-1.234-1.014-2.397
				c6.554-11.353,34.303-59.391,40.435-70.014C64.985,35.887,66.083,35.758,66.811,37.016L66.811,37.016z"/>
		</g>
	</g>
	<g>
		<g>
			<path id="SVGID_22_" d="M62.045,80.238l1.072-3.996l-4.719-1.266c-0.178-0.047-0.365-0.021-0.525,0.068l-3.376,1.949
				c-0.328,0.189-0.443,0.609-0.252,0.941c0.09,0.158,0.241,0.275,0.418,0.321L62.045,80.238L62.045,80.238z M63.044,80.506
				l9.185,2.46c0.185,0.05,0.371-0.06,0.422-0.245c0.024-0.088,0.013-0.184-0.032-0.261l-2.368-4.099
				c-0.09-0.156-0.241-0.272-0.417-0.319l-5.718-1.533L63.044,80.506L63.044,80.506z M79.928,90.741
				c0.493-1.841-0.599-3.733-2.437-4.224c-1.841-0.494-3.729,0.598-4.224,2.436L56.29,84.404c0.491-1.84-0.601-3.729-2.436-4.223
				c-1.84-0.49-3.731,0.601-4.222,2.439l-1.334-0.357c-0.368-0.101-0.586-0.477-0.486-0.848l1.163-4.34
				c0.053-0.202,0.197-0.367,0.388-0.452l7.564-3.313c0.144-0.063,0.302-0.074,0.452-0.035l12.809,3.434
				c0.179,0.047,0.326,0.161,0.422,0.32l3.27,5.662l9.01,4.101c0.305,0.14,0.469,0.479,0.381,0.81l-0.83,3.096
				c-0.1,0.367-0.479,0.586-0.847,0.486L79.928,90.741L79.928,90.741z M50.297,82.798c0.394-1.471,1.908-2.344,3.379-1.948
				c1.471,0.396,2.342,1.908,1.95,3.377c-0.394,1.472-1.908,2.344-3.379,1.95C50.776,85.781,49.903,84.27,50.297,82.798
				 M73.936,89.134c0.396-1.471,1.907-2.345,3.377-1.952c1.471,0.396,2.345,1.907,1.951,3.379c-0.395,1.469-1.908,2.344-3.38,1.948
				C74.413,92.117,73.542,90.602,73.936,89.134 M52.96,101.193v-2.172l0.667-0.277c1.428-0.594,3.03-0.594,4.456,0l1.334,0.557
				c1.428,0.594,3.032,0.594,4.456,0l1.336-0.557c1.426-0.594,3.029-0.594,4.455,0L71,99.302c1.428,0.595,3.032,0.595,4.455,0
				l1.336-0.557c1.428-0.593,3.032-0.593,4.455,0l1.336,0.557c1.428,0.595,3.029,0.595,4.456,0l1.336-0.557
				c1.425-0.593,3.026-0.593,4.455,0l1.336,0.557c1.425,0.595,3.028,0.595,4.456,0l0.72-0.299l1.019,1.763
				c-0.137,0.047-0.271,0.096-0.401,0.151l-1.336,0.558c-1.429,0.594-3.032,0.594-4.456,0l-1.336-0.558
				c-1.43-0.593-3.03-0.593-4.455,0l-1.336,0.558c-1.428,0.594-3.027,0.594-4.456,0l-1.336-0.558c-1.423-0.593-3.026-0.593-4.455,0
				l-1.336,0.558c-1.423,0.594-3.026,0.594-4.455,0l-1.336-0.558c-1.427-0.593-3.026-0.593-4.455,0l-1.336,0.558
				c-1.425,0.594-3.028,0.594-4.456,0l-1.334-0.558c-1.426-0.593-3.028-0.593-4.456,0L52.96,101.193L52.96,101.193z M52.96,105.538
				v-2.171l0.667-0.281c1.428-0.593,3.03-0.593,4.456,0l1.334,0.561c1.428,0.595,3.032,0.595,4.456,0l1.336-0.561
				c1.426-0.593,3.029-0.593,4.455,0L71,103.646c1.428,0.594,3.032,0.594,4.455,0l1.336-0.562c1.428-0.593,3.032-0.593,4.455,0
				l1.336,0.562c1.428,0.594,3.029,0.594,4.456,0l1.336-0.562c1.425-0.593,3.026-0.593,4.455,0l1.336,0.562
				c1.425,0.594,3.028,0.594,4.456,0l1.336-0.562c0.48-0.198,0.993-0.334,1.512-0.397l1.242,2.149
				c-0.939-0.086-1.883,0.058-2.754,0.42l-1.336,0.562c-1.428,0.591-3.032,0.591-4.456,0l-1.336-0.562
				c-1.429-0.593-3.03-0.593-4.455,0l-1.336,0.562c-1.427,0.591-3.028,0.591-4.456,0l-1.336-0.562c-1.423-0.593-3.027-0.593-4.455,0
				l-1.336,0.562c-1.423,0.591-3.027,0.591-4.455,0l-1.336-0.562c-1.426-0.593-3.027-0.593-4.455,0l-1.336,0.562
				c-1.425,0.591-3.028,0.591-4.456,0l-1.334-0.562c-1.426-0.593-3.028-0.593-4.456,0L52.96,105.538L52.96,105.538z M27.216,106.521
				l10.736-17.955l14.263-0.045v18H27.216L27.216,106.521z"/>
		</g>
	</g>
	
		<linearGradient id="SVGID_7_" gradientUnits="userSpaceOnUse" x1="337.8252" y1="806.1387" x2="265.2202" y2="702.4479" gradientTransform="matrix(1 0 0 1 -246.3301 -660.6699)">
		<stop  offset="0" style="stop-color:#000000;stop-opacity:0"/>
		<stop  offset="1" style="stop-color:#FFFFFF;stop-opacity:0.25"/>
	</linearGradient>
	<path fill="url(#SVGID_7_)" d="M68.084,10.822c8.832,15.297,50.443,87.133,60.167,103.972c1.331,2.308-0.735,6.712-3.321,6.712
		c-18.988,0-100.098,0-118.388,0c-4.326,0-5.277-2.889-3.041-6.762c9.726-16.846,50.903-88.131,60.005-103.896
		C64.489,9.146,67.005,8.952,68.084,10.822L68.084,10.822z"/>
</g>
</svg>
