<?xml version="1.0" encoding="utf-8"?>
<!-- Generator: Adobe Illustrator 16.0.0, SVG Export Plug-In . SVG Version: 6.00 Build 0)  -->
<!DOCTYPE svg PUBLIC "-//W3C//DTD SVG 1.1//EN" "http://www.w3.org/Graphics/SVG/1.1/DTD/svg11.dtd">
<svg version="1.1" id="Layer_1" xmlns="http://www.w3.org/2000/svg" xmlns:xlink="http://www.w3.org/1999/xlink" x="0px" y="0px"
	 width="132px" height="132px" viewBox="0 0 132 132" enable-background="new 0 0 132 132" xml:space="preserve">
<g id="disabled">
	<g>
		<g>
			
				<linearGradient id="SVGID_3_" gradientUnits="userSpaceOnUse" x1="249.3301" y1="727.1699" x2="376.3301" y2="727.1699" gradientTransform="matrix(1 0 0 1 -246.3301 -660.6699)">
				<stop  offset="0" style="stop-color:#000000;stop-opacity:0.6"/>
				<stop  offset="1" style="stop-color:#000000;stop-opacity:0.6"/>
			</linearGradient>
			<path id="SVGID_1_" fill="url(#SVGID_3_)" d="M7.001,3h119C127.84,3,130,5.16,130,6.999v119c0,1.841-2.159,4.001-3.999,4.001
				h-119C5.16,130,3,127.84,3,125.999v-119C3,5.16,5.16,3,7.001,3L7.001,3z"/>
		</g>
		<g>
			<path id="SVGID_2_" fill="#5B5B5B" d="M6.001,2h119C126.84,2,129,4.16,129,5.999v119c0,1.841-2.159,4.001-3.999,4.001h-119
				C4.16,129,2,126.84,2,124.999v-119C2,4.16,4.16,2,6.001,2L6.001,2z"/>
		</g>
	</g>
	<g>
		<g>
			<path id="SVGID_6_" fill="#FFFFFF" d="M7.001,4h117C125.795,4,127,5.204,127,7v117c0,1.796-1.205,3.001-2.999,3.001h-117
				C5.205,127.001,4,125.796,4,124V7C4,5.204,5.205,4,7.001,4L7.001,4z"/>
		</g>
	</g>
	<g>
		<g>
			<polygon id="SVGID_8_" fill="#5B5B5B" points="7.001,7 124.001,7 124.001,124 7.001,124 			"/>
		</g>
	</g>
	<g>
		<g>
			<polygon id="SVGID_10_" fill="#FFFFFF" points="38,95.999 47,95.999 34.602,119.102 22.001,95.999 31,95.999 31,14.999 
				38,14.999 			"/>
		</g>
	</g>
	<g>
		<g>
			<polygon id="SVGID_12_" fill="#FFFFFF" points="71.001,37.999 80.001,37.999 67.102,14.898 55,37.999 64.001,37.999 
				64.001,118.999 71.001,118.999 			"/>
		</g>
	</g>
	<g>
		<g>
			<polygon id="SVGID_14_" fill="#FFFFFF" points="103.001,37.999 112,37.999 99.602,14.898 87.001,37.999 96.001,37.999 
				96.001,118.999 103.001,118.999 			"/>
		</g>
	</g>
	
		<linearGradient id="SVGID_4_" gradientUnits="userSpaceOnUse" x1="361.5566" y1="797.1875" x2="262.1039" y2="655.1542" gradientTransform="matrix(1 0 0 1 -246.3301 -660.6699)">
		<stop  offset="0" style="stop-color:#000000;stop-opacity:0"/>
		<stop  offset="1" style="stop-color:#FFFFFF;stop-opacity:0.25"/>
	</linearGradient>
	<path fill="url(#SVGID_4_)" d="M6.001,2h119C126.84,2,129,4.16,129,5.999v119c0,1.841-2.159,4.001-3.999,4.001h-119
		C4.16,129,2,126.84,2,124.999v-119C2,4.16,4.16,2,6.001,2L6.001,2z"/>
</g>
<g id="normal">
	<g>
		<g>
			
				<linearGradient id="SVGID_5_" gradientUnits="userSpaceOnUse" x1="249.3301" y1="727.1699" x2="376.3301" y2="727.1699" gradientTransform="matrix(1 0 0 1 -246.3301 -660.6699)">
				<stop  offset="0" style="stop-color:#000000;stop-opacity:0.6"/>
				<stop  offset="1" style="stop-color:#000000;stop-opacity:0.6"/>
			</linearGradient>
			<path id="SVGID_17_" fill="url(#SVGID_5_)" d="M7.001,3h119C127.84,3,130,5.16,130,6.999v119c0,1.841-2.159,4.001-3.999,4.001
				h-119C5.16,130,3,127.84,3,125.999v-119C3,5.16,5.16,3,7.001,3L7.001,3z"/>
		</g>
		<g>
			<path id="SVGID_18_" fill="#0078BB" d="M6.001,2h119C126.84,2,129,4.16,129,5.999v119c0,1.841-2.159,4.001-3.999,4.001h-119
				C4.16,129,2,126.84,2,124.999v-119C2,4.16,4.16,2,6.001,2L6.001,2z"/>
		</g>
	</g>
	<g>
		<g>
			<path id="SVGID_22_" fill="#FFFFFF" d="M7.001,4h117C125.795,4,127,5.204,127,7v117c0,1.796-1.205,3.001-2.999,3.001h-117
				C5.205,127.001,4,125.796,4,124V7C4,5.204,5.205,4,7.001,4L7.001,4z"/>
		</g>
	</g>
	<g>
		<g>
			<polygon id="SVGID_24_" fill="#0078BB" points="7.001,7 124.001,7 124.001,124 7.001,124 			"/>
		</g>
	</g>
	<g>
		<g>
			<polygon id="SVGID_26_" fill="#FFFFFF" points="38,95.999 47,95.999 34.602,119.102 22.001,95.999 31,95.999 31,14.999 
				38,14.999 			"/>
		</g>
	</g>
	<g>
		<g>
			<polygon id="SVGID_28_" fill="#FFFFFF" points="71.001,37.999 80.001,37.999 67.102,14.898 55,37.999 64.001,37.999 
				64.001,118.999 71.001,118.999 			"/>
		</g>
	</g>
	<g>
		<g>
			<polygon id="SVGID_30_" fill="#FFFFFF" points="103.001,37.999 112,37.999 99.602,14.898 87.001,37.999 96.001,37.999 
				96.001,118.999 103.001,118.999 			"/>
		</g>
	</g>
	
		<linearGradient id="SVGID_7_" gradientUnits="userSpaceOnUse" x1="361.5566" y1="797.1875" x2="262.1039" y2="655.1542" gradientTransform="matrix(1 0 0 1 -246.3301 -660.6699)">
		<stop  offset="0" style="stop-color:#000000;stop-opacity:0"/>
		<stop  offset="1" style="stop-color:#FFFFFF;stop-opacity:0.25"/>
	</linearGradient>
	<path fill="url(#SVGID_7_)" d="M6.001,2h119C126.84,2,129,4.16,129,5.999v119c0,1.841-2.159,4.001-3.999,4.001h-119
		C4.16,129,2,126.84,2,124.999v-119C2,4.16,4.16,2,6.001,2L6.001,2z"/>
</g>
</svg>
