<?xml version="1.0" encoding="utf-8"?>
<!-- Generator: Adobe Illustrator 16.0.0, SVG Export Plug-In . SVG Version: 6.00 Build 0)  -->
<!DOCTYPE svg PUBLIC "-//W3C//DTD SVG 1.1//EN" "http://www.w3.org/Graphics/SVG/1.1/DTD/svg11.dtd">
<svg version="1.1" id="Layer_1" xmlns="http://www.w3.org/2000/svg" xmlns:xlink="http://www.w3.org/1999/xlink" x="0px" y="0px"
	 width="132px" height="132px" viewBox="0 0 132 132" enable-background="new 0 0 132 132" xml:space="preserve">
<g id="disabled">
	<g>
		<g>
			
				<linearGradient id="SVGID_3_" gradientUnits="userSpaceOnUse" x1="249.1201" y1="727.1699" x2="376.54" y2="727.1699" gradientTransform="matrix(1 0 0 1 -246.3301 -660.6699)">
				<stop  offset="0" style="stop-color:#000000;stop-opacity:0.6"/>
				<stop  offset="1" style="stop-color:#000000;stop-opacity:0.6"/>
			</linearGradient>
			<path id="SVGID_1_" fill="url(#SVGID_3_)" d="M66.5,2.79c35.186,0,63.71,28.524,63.71,63.708
				c0,35.186-28.524,63.711-63.71,63.711c-35.186,0-63.71-28.525-63.71-63.711C2.79,31.314,31.314,2.79,66.5,2.79L66.5,2.79z"/>
		</g>
		<g>
			<path id="SVGID_2_" fill="#FFFFFF" d="M65.5,1.79c35.186,0,63.71,28.524,63.71,63.708c0,35.186-28.524,63.711-63.71,63.711
				c-35.186,0-63.71-28.525-63.71-63.711C1.79,30.314,30.314,1.79,65.5,1.79L65.5,1.79z"/>
		</g>
	</g>
	<g>
		<g>
			<path id="SVGID_6_" fill="#969696" d="M65.345,6.349c32.581,0,58.993,26.413,58.993,58.995c0,32.581-26.413,58.993-58.993,58.993
				c-32.582,0-58.995-26.413-58.995-58.993C6.35,32.762,32.762,6.349,65.345,6.349L65.345,6.349z"/>
		</g>
	</g>
	<g>
		<g>
			<path id="SVGID_8_" fill="#FFFFFF" d="M65.345,9.644c30.764,0,55.702,24.938,55.702,55.7c0,30.764-24.938,55.703-55.702,55.703
				c-30.762,0-55.7-24.939-55.7-55.703C9.645,34.582,34.583,9.644,65.345,9.644L65.345,9.644z"/>
		</g>
	</g>
	<g>
		<g>
			<polygon id="SVGID_10_" fill="#969696" points="15.944,95.846 95.214,15.179 97.566,17.647 18.296,98.313 			"/>
		</g>
	</g>
	<g>
		<g>
			<polygon id="SVGID_12_" fill="#969696" points="20.348,99.984 99.618,19.319 101.968,21.788 22.698,102.452 			"/>
		</g>
	</g>
	<g>
		<g>
			<polygon id="SVGID_14_" fill="#969696" points="24.572,104.105 103.842,23.442 106.193,25.912 26.924,106.576 			"/>
		</g>
	</g>
	<g>
		<g>
			<polygon id="SVGID_16_" fill="#969696" points="28.473,108.109 107.743,27.445 110.094,29.913 30.824,110.578 			"/>
		</g>
	</g>
	<g>
		<g>
			<polygon id="SVGID_18_" fill="#969696" points="32.698,112.232 111.968,31.568 114.318,34.035 35.048,114.7 			"/>
		</g>
	</g>
	
		<linearGradient id="SVGID_4_" gradientUnits="userSpaceOnUse" x1="348.376" y1="778.3613" x2="275.2853" y2="673.9771" gradientTransform="matrix(1 0 0 1 -246.3301 -660.6699)">
		<stop  offset="0" style="stop-color:#000000;stop-opacity:0"/>
		<stop  offset="1" style="stop-color:#FFFFFF;stop-opacity:0.25"/>
	</linearGradient>
	<path fill="url(#SVGID_4_)" d="M65.5,1.79c35.186,0,63.71,28.524,63.71,63.708c0,35.186-28.524,63.711-63.71,63.711
		c-35.186,0-63.71-28.525-63.71-63.711C1.79,30.314,30.314,1.79,65.5,1.79L65.5,1.79z"/>
</g>
<g id="normal">
	<g>
		<g>
			
				<linearGradient id="SVGID_5_" gradientUnits="userSpaceOnUse" x1="249.1201" y1="727.1699" x2="376.54" y2="727.1699" gradientTransform="matrix(1 0 0 1 -246.3301 -660.6699)">
				<stop  offset="0" style="stop-color:#000000;stop-opacity:0.6"/>
				<stop  offset="1" style="stop-color:#000000;stop-opacity:0.6"/>
			</linearGradient>
			<path id="SVGID_21_" fill="url(#SVGID_5_)" d="M66.5,2.79c35.186,0,63.71,28.524,63.71,63.708
				c0,35.186-28.524,63.711-63.71,63.711c-35.186,0-63.71-28.525-63.71-63.711C2.79,31.314,31.314,2.79,66.5,2.79L66.5,2.79z"/>
		</g>
		<g>
			<path id="SVGID_22_" fill="#FFFFFF" d="M65.5,1.79c35.186,0,63.71,28.524,63.71,63.708c0,35.186-28.524,63.711-63.71,63.711
				c-35.186,0-63.71-28.525-63.71-63.711C1.79,30.314,30.314,1.79,65.5,1.79L65.5,1.79z"/>
		</g>
	</g>
	<g>
		<g>
			<path id="SVGID_26_" d="M65.345,6.349c32.581,0,58.993,26.413,58.993,58.995c0,32.581-26.413,58.993-58.993,58.993
				c-32.582,0-58.995-26.413-58.995-58.993C6.35,32.762,32.762,6.349,65.345,6.349L65.345,6.349z"/>
		</g>
	</g>
	<g>
		<g>
			<path id="SVGID_28_" fill="#FFFFFF" d="M65.345,9.644c30.764,0,55.702,24.938,55.702,55.7c0,30.764-24.938,55.703-55.702,55.703
				c-30.762,0-55.7-24.939-55.7-55.703C9.645,34.582,34.583,9.644,65.345,9.644L65.345,9.644z"/>
		</g>
	</g>
	<g>
		<g>
			<polygon id="SVGID_30_" points="15.944,95.846 95.214,15.179 97.566,17.647 18.296,98.313 			"/>
		</g>
	</g>
	<g>
		<g>
			<polygon id="SVGID_32_" points="20.348,99.984 99.618,19.319 101.968,21.788 22.698,102.452 			"/>
		</g>
	</g>
	<g>
		<g>
			<polygon id="SVGID_34_" points="24.572,104.105 103.842,23.442 106.193,25.912 26.924,106.576 			"/>
		</g>
	</g>
	<g>
		<g>
			<polygon id="SVGID_36_" points="28.473,108.109 107.743,27.445 110.094,29.913 30.824,110.578 			"/>
		</g>
	</g>
	<g>
		<g>
			<polygon id="SVGID_38_" points="32.698,112.232 111.968,31.568 114.318,34.035 35.048,114.7 			"/>
		</g>
	</g>
	
		<linearGradient id="SVGID_7_" gradientUnits="userSpaceOnUse" x1="348.376" y1="778.3613" x2="275.2853" y2="673.9771" gradientTransform="matrix(1 0 0 1 -246.3301 -660.6699)">
		<stop  offset="0" style="stop-color:#000000;stop-opacity:0"/>
		<stop  offset="1" style="stop-color:#FFFFFF;stop-opacity:0.25"/>
	</linearGradient>
	<path fill="url(#SVGID_7_)" d="M65.5,1.79c35.186,0,63.71,28.524,63.71,63.708c0,35.186-28.524,63.711-63.71,63.711
		c-35.186,0-63.71-28.525-63.71-63.711C1.79,30.314,30.314,1.79,65.5,1.79L65.5,1.79z"/>
</g>
</svg>
