<?xml version="1.0" encoding="utf-8"?>
<!-- Generator: Adobe Illustrator 16.0.0, SVG Export Plug-In . SVG Version: 6.00 Build 0)  -->
<!DOCTYPE svg PUBLIC "-//W3C//DTD SVG 1.1//EN" "http://www.w3.org/Graphics/SVG/1.1/DTD/svg11.dtd">
<svg version="1.1" id="Layer_1" xmlns="http://www.w3.org/2000/svg" xmlns:xlink="http://www.w3.org/1999/xlink" x="0px" y="0px"
	 width="132px" height="132px" viewBox="0 0 132 132" enable-background="new 0 0 132 132" xml:space="preserve">
<g id="disabled">
	<g>
		<g>
			
				<linearGradient id="SVGID_3_" gradientUnits="userSpaceOnUse" x1="249.5928" y1="727.1699" x2="376.0664" y2="727.1699" gradientTransform="matrix(1 0 0 1 -246.3301 -660.6699)">
				<stop  offset="0" style="stop-color:#000000;stop-opacity:0.6"/>
				<stop  offset="1" style="stop-color:#000000;stop-opacity:0.6"/>
			</linearGradient>
			<path id="SVGID_1_" fill="url(#SVGID_3_)" d="M69.087,11.761c8.843,15.315,50.501,87.229,60.233,104.085
				c1.332,2.313-0.735,6.723-3.327,6.723c-19.009,0-100.207,0-118.516,0c-4.331,0-5.284-2.893-3.044-6.771
				C14.17,98.934,55.393,27.57,64.505,11.787C65.487,10.083,68.006,9.891,69.087,11.761L69.087,11.761z"/>
		</g>
		<g>
			<path id="SVGID_2_" fill="#FFFFFF" d="M68.087,10.761c8.843,15.315,50.501,87.229,60.233,104.085
				c1.332,2.313-0.735,6.723-3.327,6.723c-19.009,0-100.207,0-118.516,0c-4.331,0-5.284-2.893-3.044-6.771
				C13.17,97.934,54.393,26.57,63.505,10.787C64.487,9.083,67.006,8.891,68.087,10.761L68.087,10.761z"/>
		</g>
	</g>
	<g>
		<g>
			<path id="SVGID_6_" fill="#575757" d="M67.316,15.968c8.441,14.622,48.218,83.284,57.51,99.38
				c0.938,1.621-0.111,3.355-1.756,3.355c-18.148,0-97.715,0-115.196,0c-1.744,0-2.394-1.752-1.441-3.403
				c9.297-16.103,48.655-84.238,57.356-99.308C64.728,14.366,66.285,14.182,67.316,15.968L67.316,15.968z"/>
		</g>
	</g>
	<g>
		<g>
			<path id="SVGID_8_" fill="#FFFFFF" d="M66.813,36.984c5.957,10.321,34.03,58.782,40.59,70.141
				c0.66,1.145-0.079,2.368-1.238,2.368c-12.811,0-68.967,0-81.305,0c-1.232,0-1.689-1.236-1.016-2.402
				c6.561-11.364,34.34-59.454,40.479-70.09C64.985,35.854,66.085,35.725,66.813,36.984L66.813,36.984z"/>
		</g>
	</g>
	<g>
		<g>
			<path id="SVGID_10_" d="M64.021,81.902v3.688c0,0-0.061,0.688-1.486,0.688c-1.488,0-1.488-0.688-1.488-0.688l0.099-3.997h-13
				v3.999c0,0-0.044,0.615-1.468,0.615c-1.486,0-1.486-0.686-1.486-0.686l-0.045-3.931h-1l0.048-5.086l3.951-6.914h13l3.852,6.914
				V81.9h-0.977V81.902z"/>
		</g>
	</g>
	<g>
		<g>
			<polygon id="SVGID_12_" fill="#FFFFFF" points="60.146,71.592 49.147,71.592 47.146,75.593 62.146,75.593 			"/>
		</g>
	</g>
	<g>
		<g>
			<path id="SVGID_14_" d="M79.908,92.861v4.615c0,0-0.078,0.854-1.861,0.854c-1.859,0-1.859-0.854-1.859-0.854l-0.041-4.885h-16
				l-0.073,4.797c0,0-0.078,0.856-1.859,0.856c-1.861,0-2.069-0.652-2.069-0.652v-5.001h-1v-7l4.001-8h18l3.984,8.522v6.745h-1.223
				V92.861z"/>
		</g>
	</g>
	<g>
		<g>
			<polygon id="SVGID_16_" fill="#FFFFFF" points="75.146,79.592 61.146,79.592 59.146,84.593 77.146,84.593 			"/>
		</g>
	</g>
	<g>
		<g>
			<path id="SVGID_18_" d="M95.146,102.592v5.002c0,0-0.045,0.998-2,0.998c-2.041,0-2-0.998-2-0.998v-5.002h-17v5.002
				c0,0-0.045,0.998-2,0.998c-2.043,0-2.002-0.998-2.002-0.998v-5.002h-2l-0.037-6.924l4.039-9.076h19.998l5.002,9.001v6.998
				L95.146,102.592L95.146,102.592z"/>
		</g>
	</g>
	<g>
		<g>
			<polygon id="SVGID_20_" fill="#FFFFFF" points="90.146,88.592 74.146,88.592 73.146,94.592 92.146,94.592 			"/>
		</g>
	</g>
	
		<linearGradient id="SVGID_4_" gradientUnits="userSpaceOnUse" x1="337.8545" y1="806.2266" x2="265.1689" y2="702.4206" gradientTransform="matrix(1 0 0 1 -246.3301 -660.6699)">
		<stop  offset="0" style="stop-color:#000000;stop-opacity:0"/>
		<stop  offset="1" style="stop-color:#FFFFFF;stop-opacity:0.25"/>
	</linearGradient>
	<path fill="url(#SVGID_4_)" d="M68.087,10.761c8.843,15.315,50.501,87.229,60.233,104.085c1.332,2.313-0.735,6.723-3.327,6.723
		c-19.009,0-100.207,0-118.516,0c-4.331,0-5.284-2.893-3.044-6.771C13.17,97.934,54.393,26.57,63.505,10.787
		C64.487,9.083,67.006,8.891,68.087,10.761L68.087,10.761z"/>
</g>
<g id="normal">
	<g>
		<g>
			
				<linearGradient id="SVGID_5_" gradientUnits="userSpaceOnUse" x1="249.5928" y1="727.1699" x2="376.0664" y2="727.1699" gradientTransform="matrix(1 0 0 1 -246.3301 -660.6699)">
				<stop  offset="0" style="stop-color:#000000;stop-opacity:0.6"/>
				<stop  offset="1" style="stop-color:#000000;stop-opacity:0.6"/>
			</linearGradient>
			<path id="SVGID_23_" fill="url(#SVGID_5_)" d="M69.087,11.761c8.843,15.315,50.501,87.229,60.233,104.085
				c1.332,2.313-0.735,6.723-3.327,6.723c-19.009,0-100.207,0-118.516,0c-4.331,0-5.284-2.893-3.044-6.771
				C14.17,98.934,55.393,27.57,64.505,11.787C65.487,10.083,68.006,9.891,69.087,11.761L69.087,11.761z"/>
		</g>
		<g>
			<path id="SVGID_24_" fill="#FFFFFF" d="M68.087,10.761c8.843,15.315,50.501,87.229,60.233,104.085
				c1.332,2.313-0.735,6.723-3.327,6.723c-19.009,0-100.207,0-118.516,0c-4.331,0-5.284-2.893-3.044-6.771
				C13.17,97.934,54.393,26.57,63.505,10.787C64.487,9.083,67.006,8.891,68.087,10.761L68.087,10.761z"/>
		</g>
	</g>
	<g>
		<g>
			<path id="SVGID_28_" fill="#DA1E22" d="M67.316,15.968c8.441,14.622,48.218,83.284,57.51,99.38
				c0.938,1.621-0.111,3.355-1.756,3.355c-18.148,0-97.715,0-115.196,0c-1.744,0-2.394-1.752-1.441-3.403
				c9.297-16.103,48.655-84.238,57.356-99.308C64.728,14.366,66.285,14.182,67.316,15.968L67.316,15.968z"/>
		</g>
	</g>
	<g>
		<g>
			<path id="SVGID_30_" fill="#FFFFFF" d="M66.813,36.984c5.957,10.321,34.03,58.782,40.59,70.141
				c0.66,1.145-0.079,2.368-1.238,2.368c-12.811,0-68.967,0-81.305,0c-1.232,0-1.689-1.236-1.016-2.402
				c6.561-11.364,34.34-59.454,40.479-70.09C64.985,35.854,66.085,35.725,66.813,36.984L66.813,36.984z"/>
		</g>
	</g>
	<g>
		<g>
			<path id="SVGID_32_" d="M64.021,81.902v3.688c0,0-0.061,0.688-1.486,0.688c-1.488,0-1.488-0.688-1.488-0.688l0.099-3.997h-13
				v3.999c0,0-0.044,0.615-1.468,0.615c-1.486,0-1.486-0.686-1.486-0.686l-0.045-3.931h-1l0.048-5.086l3.951-6.914h13l3.852,6.914
				V81.9h-0.977V81.902z"/>
		</g>
	</g>
	<g>
		<g>
			<polygon id="SVGID_34_" fill="#FFFFFF" points="60.146,71.592 49.147,71.592 47.146,75.593 62.146,75.593 			"/>
		</g>
	</g>
	<g>
		<g>
			<path id="SVGID_36_" d="M79.908,92.861v4.615c0,0-0.078,0.854-1.861,0.854c-1.859,0-1.859-0.854-1.859-0.854l-0.041-4.885h-16
				l-0.073,4.797c0,0-0.078,0.856-1.859,0.856c-1.861,0-2.069-0.652-2.069-0.652v-5.001h-1v-7l4.001-8h18l3.984,8.522v6.745h-1.223
				V92.861z"/>
		</g>
	</g>
	<g>
		<g>
			<polygon id="SVGID_38_" fill="#FFFFFF" points="75.146,79.592 61.146,79.592 59.146,84.593 77.146,84.593 			"/>
		</g>
	</g>
	<g>
		<g>
			<path id="SVGID_40_" d="M95.146,102.592v5.002c0,0-0.045,0.998-2,0.998c-2.041,0-2-0.998-2-0.998v-5.002h-17v5.002
				c0,0-0.045,0.998-2,0.998c-2.043,0-2.002-0.998-2.002-0.998v-5.002h-2l-0.037-6.924l4.039-9.076h19.998l5.002,9.001v6.998
				L95.146,102.592L95.146,102.592z"/>
		</g>
	</g>
	<g>
		<g>
			<polygon id="SVGID_42_" fill="#FFFFFF" points="90.146,88.592 74.146,88.592 73.146,94.592 92.146,94.592 			"/>
		</g>
	</g>
	
		<linearGradient id="SVGID_7_" gradientUnits="userSpaceOnUse" x1="337.8545" y1="806.2266" x2="265.1689" y2="702.4206" gradientTransform="matrix(1 0 0 1 -246.3301 -660.6699)">
		<stop  offset="0" style="stop-color:#000000;stop-opacity:0"/>
		<stop  offset="1" style="stop-color:#FFFFFF;stop-opacity:0.25"/>
	</linearGradient>
	<path fill="url(#SVGID_7_)" d="M68.087,10.761c8.843,15.315,50.501,87.229,60.233,104.085c1.332,2.313-0.735,6.723-3.327,6.723
		c-19.009,0-100.207,0-118.516,0c-4.331,0-5.284-2.893-3.044-6.771C13.17,97.934,54.393,26.57,63.505,10.787
		C64.487,9.083,67.006,8.891,68.087,10.761L68.087,10.761z"/>
</g>
</svg>
