<?xml version="1.0" encoding="UTF-8" ?>
<!DOCTYPE svg PUBLIC "-//W3C//DTD SVG 1.1//EN" "http://www.w3.org/Graphics/SVG/1.1/DTD/svg11.dtd">
<svg width="136pt" height="136pt" viewBox="0 0 136 136" version="1.1" xmlns="http://www.w3.org/2000/svg">
<g id="disabled">
<path fill="#ffffff" opacity="1.00" d=" M 16.54 0.00 L 116.73 0.00 C 117.97 1.40 119.37 2.88 119.02 4.93 C 118.96 46.82 119.04 88.71 118.98 130.60 C 118.19 131.39 117.41 132.18 116.63 132.97 C 83.21 133.02 49.79 133.01 16.38 132.98 C 15.60 132.18 14.82 131.39 14.04 130.60 C 13.98 87.85 13.97 45.10 14.05 2.35 C 14.87 1.56 15.71 0.78 16.54 0.00 M 17.44 2.12 C 15.69 2.58 16.05 4.65 15.99 5.98 C 16.04 46.98 15.93 87.99 16.05 128.99 C 15.95 130.57 17.71 131.18 19.01 131.00 C 50.68 131.00 82.36 131.00 114.04 131.00 C 115.35 131.17 117.08 130.54 116.96 128.94 C 117.07 88.29 116.96 47.64 117.01 7.00 C 116.85 5.54 117.40 3.84 116.40 2.60 C 115.17 1.60 113.48 2.15 112.05 1.99 C 80.51 2.10 48.96 1.83 17.44 2.12 Z" />
<path fill="#ffffff" opacity="1.00" d=" M 19.42 4.11 C 50.27 3.84 81.14 4.09 111.99 3.99 C 113.31 3.79 115.09 4.42 114.97 6.04 C 115.05 46.03 114.96 86.02 115.01 126.02 C 115.21 127.31 114.58 129.05 113.01 128.97 C 82.01 129.02 51.00 129.02 20.00 128.97 C 18.43 129.06 17.80 127.34 17.99 126.05 C 18.00 86.69 18.03 47.33 17.97 7.98 C 18.04 6.65 17.67 4.55 19.42 4.11 M 20.44 5.12 C 18.67 5.58 19.06 7.69 18.99 9.04 C 19.02 47.68 18.99 86.32 19.00 124.96 C 18.80 126.28 19.43 128.07 21.04 127.96 C 51.02 128.06 80.99 127.97 110.97 128.00 C 112.29 128.20 114.09 127.55 113.96 125.93 C 114.06 86.63 113.97 47.33 114.00 8.02 C 114.41 6.19 112.85 4.60 111.01 5.00 C 80.82 5.08 50.62 4.84 20.44 5.12 Z" />
<path fill="#ffffff" opacity="1.00" d=" M 32.21 28.00 C 36.02 24.25 39.65 20.31 43.03 16.16 C 46.51 20.22 50.00 24.29 53.84 28.01 C 51.50 28.00 49.16 28.00 46.82 28.00 C 47.34 32.68 47.06 37.39 47.12 42.08 C 47.21 67.06 47.05 92.03 47.26 117.00 C 44.43 117.00 41.60 117.00 38.77 117.00 C 39.10 87.34 38.56 57.66 39.21 28.00 C 36.88 28.00 34.54 28.00 32.21 28.00 Z" />
<path fill="#ffffff" opacity="1.00" d=" M 66.28 56.26 C 73.18 57.39 80.06 58.71 87.02 59.42 C 86.10 61.27 83.95 61.65 82.26 62.48 C 87.39 66.85 93.50 70.04 99.00 73.98 C 98.93 88.32 98.92 102.66 99.02 117.00 C 96.26 117.00 93.49 117.00 90.73 117.00 C 90.91 103.35 90.80 89.70 90.80 76.05 C 86.53 72.50 81.38 69.89 77.03 66.33 C 75.16 66.82 73.25 69.43 71.45 68.74 C 69.69 64.60 67.84 60.48 66.28 56.26 Z" />
<path fill="#ffffff" opacity="1.00" d=" M 67.00 85.00 C 68.33 85.00 69.67 85.00 71.00 85.00 C 71.00 89.00 71.00 93.00 71.00 97.00 C 69.67 97.00 68.33 97.00 67.00 97.00 C 67.00 93.00 67.00 89.00 67.00 85.00 Z" />
<path fill="#ffffff" opacity="1.00" d=" M 67.00 105.00 C 68.33 105.00 69.67 105.00 71.00 105.00 C 71.00 109.00 71.00 113.00 71.00 117.00 C 69.67 117.00 68.33 117.00 67.00 117.00 C 67.00 113.00 67.00 109.00 67.00 105.00 Z" />
<path fill="#606060" opacity="1.00" d=" M 17.44 2.12 C 48.96 1.83 80.51 2.10 112.05 1.99 C 113.48 2.15 115.17 1.60 116.40 2.60 C 117.40 3.84 116.85 5.54 117.01 7.00 C 116.96 47.64 117.07 88.29 116.96 128.94 C 117.08 130.54 115.35 131.17 114.04 131.00 C 82.36 131.00 50.68 131.00 19.01 131.00 C 17.71 131.18 15.95 130.57 16.05 128.99 C 15.93 87.99 16.04 46.98 15.99 5.98 C 16.05 4.65 15.69 2.58 17.44 2.12 M 19.42 4.11 C 17.67 4.55 18.04 6.65 17.97 7.98 C 18.03 47.33 18.00 86.69 17.99 126.05 C 17.80 127.34 18.43 129.06 20.00 128.97 C 51.00 129.02 82.01 129.02 113.01 128.97 C 114.58 129.05 115.21 127.31 115.01 126.02 C 114.96 86.02 115.05 46.03 114.97 6.04 C 115.09 4.42 113.31 3.79 111.99 3.99 C 81.14 4.09 50.27 3.84 19.42 4.11 Z" />
<path fill="#606060" opacity="1.00" d=" M 20.44 5.12 C 50.62 4.84 80.82 5.08 111.01 5.00 C 112.85 4.60 114.41 6.19 114.00 8.02 C 113.97 47.33 114.06 86.63 113.96 125.93 C 114.09 127.55 112.29 128.20 110.97 128.00 C 80.99 127.97 51.02 128.06 21.04 127.96 C 19.43 128.07 18.80 126.28 19.00 124.96 C 18.99 86.32 19.02 47.68 18.99 9.04 C 19.06 7.69 18.67 5.58 20.44 5.12 M 32.21 28.00 C 34.54 28.00 36.88 28.00 39.21 28.00 C 38.56 57.66 39.10 87.34 38.77 117.00 C 41.60 117.00 44.43 117.00 47.26 117.00 C 47.05 92.03 47.21 67.06 47.12 42.08 C 47.06 37.39 47.34 32.68 46.82 28.00 C 49.16 28.00 51.50 28.00 53.84 28.01 C 50.00 24.29 46.51 20.22 43.03 16.16 C 39.65 20.31 36.02 24.25 32.21 28.00 M 66.28 56.26 C 67.84 60.48 69.69 64.60 71.45 68.74 C 73.25 69.43 75.16 66.82 77.03 66.33 C 81.38 69.89 86.53 72.50 90.80 76.05 C 90.80 89.70 90.91 103.35 90.73 117.00 C 93.49 117.00 96.26 117.00 99.02 117.00 C 98.92 102.66 98.93 88.32 99.00 73.98 C 93.50 70.04 87.39 66.85 82.26 62.48 C 83.95 61.65 86.10 61.27 87.02 59.42 C 80.06 58.71 73.18 57.39 66.28 56.26 M 67.00 85.00 C 67.00 89.00 67.00 93.00 67.00 97.00 C 68.33 97.00 69.67 97.00 71.00 97.00 C 71.00 93.00 71.00 89.00 71.00 85.00 C 69.67 85.00 68.33 85.00 67.00 85.00 M 67.00 105.00 C 67.00 109.00 67.00 113.00 67.00 117.00 C 68.33 117.00 69.67 117.00 71.00 117.00 C 71.00 113.00 71.00 109.00 71.00 105.00 C 69.67 105.00 68.33 105.00 67.00 105.00 Z" />
</g>
<g id="normal">
<path fill="#000000" opacity="1.00" d=" M 16.54 0.00 L 116.73 0.00 C 117.97 1.40 119.37 2.88 119.02 4.93 C 118.96 46.82 119.04 88.71 118.98 130.60 C 118.19 131.39 117.41 132.18 116.63 132.97 C 83.21 133.02 49.79 133.01 16.38 132.98 C 15.60 132.18 14.82 131.39 14.04 130.60 C 13.98 87.85 13.97 45.10 14.05 2.35 C 14.87 1.56 15.71 0.78 16.54 0.00 M 17.44 2.12 C 15.69 2.58 16.05 4.65 15.99 5.98 C 16.04 46.98 15.93 87.99 16.05 128.99 C 15.95 130.57 17.71 131.18 19.01 131.00 C 50.68 131.00 82.36 131.00 114.04 131.00 C 115.35 131.17 117.08 130.54 116.96 128.94 C 117.07 88.29 116.96 47.64 117.01 7.00 C 116.85 5.54 117.40 3.84 116.40 2.60 C 115.17 1.60 113.48 2.15 112.05 1.99 C 80.51 2.10 48.96 1.83 17.44 2.12 Z" />
<path fill="#000000" opacity="1.00" d=" M 19.42 4.11 C 50.27 3.84 81.14 4.09 111.99 3.99 C 113.31 3.79 115.09 4.42 114.97 6.04 C 115.05 46.03 114.96 86.02 115.01 126.02 C 115.21 127.31 114.58 129.05 113.01 128.97 C 82.01 129.02 51.00 129.02 20.00 128.97 C 18.43 129.06 17.80 127.34 17.99 126.05 C 18.00 86.69 18.03 47.33 17.97 7.98 C 18.04 6.65 17.67 4.55 19.42 4.11 M 20.44 5.12 C 18.67 5.58 19.06 7.69 18.99 9.04 C 19.02 47.68 18.99 86.32 19.00 124.96 C 18.80 126.28 19.43 128.07 21.04 127.96 C 51.02 128.06 80.99 127.97 110.97 128.00 C 112.29 128.20 114.09 127.55 113.96 125.93 C 114.06 86.63 113.97 47.33 114.00 8.02 C 114.41 6.19 112.85 4.60 111.01 5.00 C 80.82 5.08 50.62 4.84 20.44 5.12 Z" />
<path fill="#000000" opacity="1.00" d=" M 32.21 28.00 C 36.02 24.25 39.65 20.31 43.03 16.16 C 46.51 20.22 50.00 24.29 53.84 28.01 C 51.50 28.00 49.16 28.00 46.82 28.00 C 47.34 32.68 47.06 37.39 47.12 42.08 C 47.21 67.06 47.05 92.03 47.26 117.00 C 44.43 117.00 41.60 117.00 38.77 117.00 C 39.10 87.34 38.56 57.66 39.21 28.00 C 36.88 28.00 34.54 28.00 32.21 28.00 Z" />
<path fill="#000000" opacity="1.00" d=" M 66.28 56.26 C 73.18 57.39 80.06 58.71 87.02 59.42 C 86.10 61.27 83.95 61.65 82.26 62.48 C 87.39 66.85 93.50 70.04 99.00 73.98 C 98.93 88.32 98.92 102.66 99.02 117.00 C 96.26 117.00 93.49 117.00 90.73 117.00 C 90.91 103.35 90.80 89.70 90.80 76.05 C 86.53 72.50 81.38 69.89 77.03 66.33 C 75.16 66.82 73.25 69.43 71.45 68.74 C 69.69 64.60 67.84 60.48 66.28 56.26 Z" />
<path fill="#000000" opacity="1.00" d=" M 67.00 85.00 C 68.33 85.00 69.67 85.00 71.00 85.00 C 71.00 89.00 71.00 93.00 71.00 97.00 C 69.67 97.00 68.33 97.00 67.00 97.00 C 67.00 93.00 67.00 89.00 67.00 85.00 Z" />
<path fill="#000000" opacity="1.00" d=" M 67.00 105.00 C 68.33 105.00 69.67 105.00 71.00 105.00 C 71.00 109.00 71.00 113.00 71.00 117.00 C 69.67 117.00 68.33 117.00 67.00 117.00 C 67.00 113.00 67.00 109.00 67.00 105.00 Z" />
<path fill="#ffffff" opacity="1.00" d=" M 17.44 2.12 C 48.96 1.83 80.51 2.10 112.05 1.99 C 113.48 2.15 115.17 1.60 116.40 2.60 C 117.40 3.84 116.85 5.54 117.01 7.00 C 116.96 47.64 117.07 88.29 116.96 128.94 C 117.08 130.54 115.35 131.17 114.04 131.00 C 82.36 131.00 50.68 131.00 19.01 131.00 C 17.71 131.18 15.95 130.57 16.05 128.99 C 15.93 87.99 16.04 46.98 15.99 5.98 C 16.05 4.65 15.69 2.58 17.44 2.12 M 19.42 4.11 C 17.67 4.55 18.04 6.65 17.97 7.98 C 18.03 47.33 18.00 86.69 17.99 126.05 C 17.80 127.34 18.43 129.06 20.00 128.97 C 51.00 129.02 82.01 129.02 113.01 128.97 C 114.58 129.05 115.21 127.31 115.01 126.02 C 114.96 86.02 115.05 46.03 114.97 6.04 C 115.09 4.42 113.31 3.79 111.99 3.99 C 81.14 4.09 50.27 3.84 19.42 4.11 Z" />
<path fill="#ffffff" opacity="1.00" d=" M 20.44 5.12 C 50.62 4.84 80.82 5.08 111.01 5.00 C 112.85 4.60 114.41 6.19 114.00 8.02 C 113.97 47.33 114.06 86.63 113.96 125.93 C 114.09 127.55 112.29 128.20 110.97 128.00 C 80.99 127.97 51.02 128.06 21.04 127.96 C 19.43 128.07 18.80 126.28 19.00 124.96 C 18.99 86.32 19.02 47.68 18.99 9.04 C 19.06 7.69 18.67 5.58 20.44 5.12 M 32.21 28.00 C 34.54 28.00 36.88 28.00 39.21 28.00 C 38.56 57.66 39.10 87.34 38.77 117.00 C 41.60 117.00 44.43 117.00 47.26 117.00 C 47.05 92.03 47.21 67.06 47.12 42.08 C 47.06 37.39 47.34 32.68 46.82 28.00 C 49.16 28.00 51.50 28.00 53.84 28.01 C 50.00 24.29 46.51 20.22 43.03 16.16 C 39.65 20.31 36.02 24.25 32.21 28.00 M 66.28 56.26 C 67.84 60.48 69.69 64.60 71.45 68.74 C 73.25 69.43 75.16 66.82 77.03 66.33 C 81.38 69.89 86.53 72.50 90.80 76.05 C 90.80 89.70 90.91 103.35 90.73 117.00 C 93.49 117.00 96.26 117.00 99.02 117.00 C 98.92 102.66 98.93 88.32 99.00 73.98 C 93.50 70.04 87.39 66.85 82.26 62.48 C 83.95 61.65 86.10 61.27 87.02 59.42 C 80.06 58.71 73.18 57.39 66.28 56.26 M 67.00 85.00 C 67.00 89.00 67.00 93.00 67.00 97.00 C 68.33 97.00 69.67 97.00 71.00 97.00 C 71.00 93.00 71.00 89.00 71.00 85.00 C 69.67 85.00 68.33 85.00 67.00 85.00 M 67.00 105.00 C 67.00 109.00 67.00 113.00 67.00 117.00 C 68.33 117.00 69.67 117.00 71.00 117.00 C 71.00 113.00 71.00 109.00 71.00 105.00 C 69.67 105.00 68.33 105.00 67.00 105.00 Z" />
</g>
</svg>
