<?xml version="1.0" encoding="UTF-8" ?>
<!DOCTYPE svg PUBLIC "-//W3C//DTD SVG 1.1//EN" "http://www.w3.org/Graphics/SVG/1.1/DTD/svg11.dtd">
<svg width="130pt" height="130pt" viewBox="0 0 130 130" version="1.1" xmlns="http://www.w3.org/2000/svg">
<g id="disabled">
<path fill="#ffffff" opacity="1.00" d=" M 62.34 0.00 L 65.50 0.00 C 89.56 0.48 112.34 15.74 122.15 37.67 C 127.46 50.60 129.26 65.14 125.73 78.77 C 121.43 97.19 108.36 113.23 91.27 121.29 C 74.60 129.44 54.56 129.38 37.60 122.09 C 22.54 115.14 10.22 102.36 4.33 86.81 C 1.83 80.68 0.64 74.12 0.00 67.56 L 0.00 61.20 C 0.70 45.15 7.61 29.41 19.19 18.24 C 30.56 6.94 46.35 0.41 62.34 0.00 M 52.50 3.68 C 29.85 7.71 10.57 25.62 4.70 47.84 C 0.31 63.82 2.78 81.56 11.52 95.65 C 18.63 107.40 29.84 116.61 42.76 121.29 C 55.62 126.08 70.13 126.28 83.13 121.89 C 100.47 116.20 114.99 102.34 121.18 85.14 C 126.40 71.40 126.33 55.72 121.01 42.01 C 115.49 27.27 103.95 14.97 89.69 8.36 C 78.18 2.98 64.98 1.33 52.50 3.68 Z" />
<path fill="#ffffff" opacity="1.00" d=" M 39.78 23.18 C 51.52 16.45 66.10 14.76 78.93 19.25 C 92.68 23.84 103.89 35.18 108.43 48.93 C 113.93 65.04 109.74 83.85 97.94 96.11 C 95.52 93.34 93.20 90.48 91.02 87.52 C 90.94 76.34 91.07 65.16 90.97 53.98 C 90.82 44.83 84.66 36.34 76.27 32.88 C 71.75 30.91 66.72 31.11 61.91 31.24 C 57.40 31.31 53.14 33.10 49.33 35.39 C 46.09 31.37 42.60 27.51 39.78 23.18 Z" />
<path fill="#ffffff" opacity="1.00" d=" M 20.29 81.72 C 12.64 63.90 17.54 41.23 32.60 28.81 C 35.89 33.32 39.62 37.49 42.89 42.00 C 40.72 45.59 39.14 49.64 39.12 53.89 C 39.04 64.60 39.08 75.32 39.04 86.03 C 38.75 88.22 40.12 90.01 41.13 91.80 C 43.05 95.02 44.84 98.33 46.81 101.52 C 48.91 97.65 50.97 93.75 53.06 89.87 C 54.41 87.81 53.90 85.27 53.97 82.96 C 53.95 73.93 53.89 64.91 54.00 55.88 C 61.35 65.12 68.89 74.25 76.00 83.66 C 76.06 89.48 75.99 95.30 76.02 101.12 C 78.64 99.34 81.22 97.50 83.89 95.80 C 85.31 96.89 86.74 97.96 88.13 99.09 C 89.18 100.03 90.08 101.11 91.03 102.15 C 80.68 109.44 67.37 112.44 54.93 109.95 C 39.60 107.17 26.17 96.13 20.29 81.72 Z" />
<path fill="#ffffff" opacity="1.00" d=" M 59.28 47.59 C 63.56 45.03 69.33 45.51 72.72 49.32 C 77.85 54.48 75.52 62.30 76.06 68.77 C 70.39 61.77 64.57 54.87 59.28 47.59 Z" />
<path fill="#606060" opacity="1.00" d=" M 52.50 3.68 C 64.98 1.33 78.18 2.98 89.69 8.36 C 103.95 14.97 115.49 27.27 121.01 42.01 C 126.33 55.72 126.40 71.40 121.18 85.14 C 114.99 102.34 100.47 116.20 83.13 121.89 C 70.13 126.28 55.62 126.08 42.76 121.29 C 29.84 116.61 18.63 107.40 11.52 95.65 C 2.78 81.56 0.31 63.82 4.70 47.84 C 10.57 25.62 29.85 7.71 52.50 3.68 M 39.78 23.18 C 42.60 27.51 46.09 31.37 49.33 35.39 C 52.62 39.45 55.91 43.50 59.04 47.69 L 59.28 47.59 C 64.57 54.87 70.39 61.77 76.06 68.77 C 80.87 75.14 85.89 81.40 91.02 87.52 C 93.20 90.48 95.52 93.34 97.94 96.11 C 109.74 83.85 113.93 65.04 108.43 48.93 C 103.89 35.18 92.68 23.84 78.93 19.25 C 66.10 14.76 51.52 16.45 39.78 23.18 M 20.29 81.72 C 26.17 96.13 39.60 107.17 54.93 109.95 C 67.37 112.44 80.68 109.44 91.03 102.15 C 90.08 101.11 89.18 100.03 88.13 99.09 C 84.60 93.59 80.26 88.60 76.00 83.66 C 68.89 74.25 61.35 65.12 54.00 55.88 C 50.31 51.25 46.58 46.64 42.89 42.00 C 39.62 37.49 35.89 33.32 32.60 28.81 C 17.54 41.23 12.64 63.90 20.29 81.72 Z" />
<path fill="#000000" opacity="1.00" d=" M 49.33 35.39 C 53.14 33.10 57.40 31.31 61.91 31.24 C 66.72 31.11 71.75 30.91 76.27 32.88 C 84.66 36.34 90.82 44.83 90.97 53.98 C 91.07 65.16 90.94 76.34 91.02 87.52 C 85.89 81.40 80.87 75.14 76.06 68.77 C 75.52 62.30 77.85 54.48 72.72 49.32 C 69.33 45.51 63.56 45.03 59.28 47.59 L 59.04 47.69 C 55.91 43.50 52.62 39.45 49.33 35.39 Z" />
<path fill="#000000" opacity="1.00" d=" M 39.12 53.89 C 39.14 49.64 40.72 45.59 42.89 42.00 C 46.58 46.64 50.31 51.25 54.00 55.88 C 53.89 64.91 53.95 73.93 53.97 82.96 C 53.90 85.27 54.41 87.81 53.06 89.87 C 50.97 93.75 48.91 97.65 46.81 101.52 C 44.84 98.33 43.05 95.02 41.13 91.80 C 40.12 90.01 38.75 88.22 39.04 86.03 C 39.08 75.32 39.04 64.60 39.12 53.89 Z" />
<path fill="#000000" opacity="1.00" d=" M 76.00 83.66 C 80.26 88.60 84.60 93.59 88.13 99.09 C 86.74 97.96 85.31 96.89 83.89 95.80 C 81.22 97.50 78.64 99.34 76.02 101.12 C 75.99 95.30 76.06 89.48 76.00 83.66 Z" />
</g>
<g id="normal">
<path fill="#ffffff" opacity="1.00" d=" M 62.34 0.00 L 65.50 0.00 C 89.56 0.48 112.34 15.74 122.15 37.67 C 127.46 50.60 129.26 65.14 125.73 78.77 C 121.43 97.19 108.36 113.23 91.27 121.29 C 74.60 129.44 54.56 129.38 37.60 122.09 C 22.54 115.14 10.22 102.36 4.33 86.81 C 1.83 80.68 0.64 74.12 0.00 67.56 L 0.00 61.20 C 0.70 45.15 7.61 29.41 19.19 18.24 C 30.56 6.94 46.35 0.41 62.34 0.00 M 52.50 3.68 C 29.85 7.71 10.57 25.62 4.70 47.84 C 0.31 63.82 2.78 81.56 11.52 95.65 C 18.63 107.40 29.84 116.61 42.76 121.29 C 55.62 126.08 70.13 126.28 83.13 121.89 C 100.47 116.20 114.99 102.34 121.18 85.14 C 126.40 71.40 126.33 55.72 121.01 42.01 C 115.49 27.27 103.95 14.97 89.69 8.36 C 78.18 2.98 64.98 1.33 52.50 3.68 Z" />
<path fill="#ffffff" opacity="1.00" d=" M 39.78 23.18 C 51.52 16.45 66.10 14.76 78.93 19.25 C 92.68 23.84 103.89 35.18 108.43 48.93 C 113.93 65.04 109.74 83.85 97.94 96.11 C 95.52 93.34 93.20 90.48 91.02 87.52 C 90.94 76.34 91.07 65.16 90.97 53.98 C 90.82 44.83 84.66 36.34 76.27 32.88 C 71.75 30.91 66.72 31.11 61.91 31.24 C 57.40 31.31 53.14 33.10 49.33 35.39 C 46.09 31.37 42.60 27.51 39.78 23.18 Z" />
<path fill="#ffffff" opacity="1.00" d=" M 20.29 81.72 C 12.64 63.90 17.54 41.23 32.60 28.81 C 35.89 33.32 39.62 37.49 42.89 42.00 C 40.72 45.59 39.14 49.64 39.12 53.89 C 39.04 64.60 39.08 75.32 39.04 86.03 C 38.75 88.22 40.12 90.01 41.13 91.80 C 43.05 95.02 44.84 98.33 46.81 101.52 C 48.91 97.65 50.97 93.75 53.06 89.87 C 54.41 87.81 53.90 85.27 53.97 82.96 C 53.95 73.93 53.89 64.91 54.00 55.88 C 61.35 65.12 68.89 74.25 76.00 83.66 C 76.06 89.48 75.99 95.30 76.02 101.12 C 78.64 99.34 81.22 97.50 83.89 95.80 C 85.31 96.89 86.74 97.96 88.13 99.09 C 89.18 100.03 90.08 101.11 91.03 102.15 C 80.68 109.44 67.37 112.44 54.93 109.95 C 39.60 107.17 26.17 96.13 20.29 81.72 Z" />
<path fill="#ffffff" opacity="1.00" d=" M 59.28 47.59 C 63.56 45.03 69.33 45.51 72.72 49.32 C 77.85 54.48 75.52 62.30 76.06 68.77 C 70.39 61.77 64.57 54.87 59.28 47.59 Z" />
<path fill="#de2e2e" opacity="1.00" d=" M 52.50 3.68 C 64.98 1.33 78.18 2.98 89.69 8.36 C 103.95 14.97 115.49 27.27 121.01 42.01 C 126.33 55.72 126.40 71.40 121.18 85.14 C 114.99 102.34 100.47 116.20 83.13 121.89 C 70.13 126.28 55.62 126.08 42.76 121.29 C 29.84 116.61 18.63 107.40 11.52 95.65 C 2.78 81.56 0.31 63.82 4.70 47.84 C 10.57 25.62 29.85 7.71 52.50 3.68 M 39.78 23.18 C 42.60 27.51 46.09 31.37 49.33 35.39 C 52.62 39.45 55.91 43.50 59.04 47.69 L 59.28 47.59 C 64.57 54.87 70.39 61.77 76.06 68.77 C 80.87 75.14 85.89 81.40 91.02 87.52 C 93.20 90.48 95.52 93.34 97.94 96.11 C 109.74 83.85 113.93 65.04 108.43 48.93 C 103.89 35.18 92.68 23.84 78.93 19.25 C 66.10 14.76 51.52 16.45 39.78 23.18 M 20.29 81.72 C 26.17 96.13 39.60 107.17 54.93 109.95 C 67.37 112.44 80.68 109.44 91.03 102.15 C 90.08 101.11 89.18 100.03 88.13 99.09 C 84.60 93.59 80.26 88.60 76.00 83.66 C 68.89 74.25 61.35 65.12 54.00 55.88 C 50.31 51.25 46.58 46.64 42.89 42.00 C 39.62 37.49 35.89 33.32 32.60 28.81 C 17.54 41.23 12.64 63.90 20.29 81.72 Z" />
<path fill="#000000" opacity="1.00" d=" M 49.33 35.39 C 53.14 33.10 57.40 31.31 61.91 31.24 C 66.72 31.11 71.75 30.91 76.27 32.88 C 84.66 36.34 90.82 44.83 90.97 53.98 C 91.07 65.16 90.94 76.34 91.02 87.52 C 85.89 81.40 80.87 75.14 76.06 68.77 C 75.52 62.30 77.85 54.48 72.72 49.32 C 69.33 45.51 63.56 45.03 59.28 47.59 L 59.04 47.69 C 55.91 43.50 52.62 39.45 49.33 35.39 Z" />
<path fill="#000000" opacity="1.00" d=" M 39.12 53.89 C 39.14 49.64 40.72 45.59 42.89 42.00 C 46.58 46.64 50.31 51.25 54.00 55.88 C 53.89 64.91 53.95 73.93 53.97 82.96 C 53.90 85.27 54.41 87.81 53.06 89.87 C 50.97 93.75 48.91 97.65 46.81 101.52 C 44.84 98.33 43.05 95.02 41.13 91.80 C 40.12 90.01 38.75 88.22 39.04 86.03 C 39.08 75.32 39.04 64.60 39.12 53.89 Z" />
<path fill="#000000" opacity="1.00" d=" M 76.00 83.66 C 80.26 88.60 84.60 93.59 88.13 99.09 C 86.74 97.96 85.31 96.89 83.89 95.80 C 81.22 97.50 78.64 99.34 76.02 101.12 C 75.99 95.30 76.06 89.48 76.00 83.66 Z" />
</g>
</svg>
