<?xml version="1.0" encoding="UTF-8" ?>
<!DOCTYPE svg PUBLIC "-//W3C//DTD SVG 1.1//EN" "http://www.w3.org/Graphics/SVG/1.1/DTD/svg11.dtd">
<svg width="130pt" height="130pt" viewBox="0 0 130 130" version="1.1" xmlns="http://www.w3.org/2000/svg">
<g id="disabled">
<path fill="#ffffff" opacity="1.00" d=" M 60.55 11.52 C 61.37 9.92 62.87 8.19 64.87 9.11 C 67.89 12.32 69.50 16.57 71.89 20.24 C 86.26 45.39 100.73 70.49 115.42 95.45 C 115.73 95.98 116.04 96.52 116.34 97.06 C 119.35 102.87 122.97 108.35 126.03 114.13 C 127.60 116.84 125.42 121.23 122.09 120.95 C 84.72 121.06 47.35 120.96 9.98 121.00 C 7.39 121.01 4.79 121.03 2.22 120.72 C -0.70 119.82 -0.05 116.20 1.30 114.24 C 21.00 79.97 40.83 45.78 60.55 11.52 M 60.84 16.91 C 43.19 47.53 25.44 78.10 7.77 108.71 C 6.41 111.12 4.78 113.42 3.84 116.05 C 3.65 118.03 5.44 118.03 6.90 118.00 C 45.33 118.05 83.75 117.90 122.18 118.08 C 124.12 115.50 121.50 112.97 120.37 110.68 C 102.72 80.25 85.08 49.82 67.44 19.40 C 66.29 17.61 65.50 15.45 63.75 14.16 C 62.14 14.15 61.60 15.81 60.84 16.91 Z" />
<path fill="#ffffff" opacity="1.00" d=" M 23.41 103.43 C 36.76 80.69 49.62 57.67 63.11 35.02 C 65.70 37.23 66.94 40.47 68.68 43.30 C 79.92 62.74 91.11 82.21 102.41 101.61 C 103.55 103.70 105.07 105.67 105.54 108.05 C 104.52 108.82 103.37 109.13 102.09 109.00 C 76.71 109.02 51.34 108.97 25.96 109.02 C 24.49 108.71 22.20 109.59 21.35 107.97 C 21.66 106.31 22.62 104.88 23.41 103.43 M 55.03 61.03 C 54.94 65.70 55.18 70.38 54.92 75.04 C 53.16 77.76 50.24 79.63 48.01 82.01 C 48.03 89.00 47.99 96.00 48.00 103.00 C 50.33 103.00 52.67 103.00 55.00 103.00 C 55.00 96.67 55.01 90.35 54.98 84.02 C 57.31 81.68 59.64 79.35 61.98 77.02 C 61.99 71.68 61.97 66.34 61.99 61.01 C 59.67 61.02 57.35 61.03 55.03 61.03 M 65.01 61.01 C 65.02 66.34 65.01 71.68 65.01 77.01 C 67.34 79.33 69.67 81.66 72.00 83.98 C 72.00 90.32 72.00 96.66 72.00 103.00 C 74.33 103.00 76.67 103.00 79.00 103.00 C 79.00 96.00 79.00 89.00 79.00 82.00 C 76.64 79.75 74.28 77.49 71.96 75.20 C 72.01 70.47 71.98 65.74 71.99 61.01 C 69.66 61.02 67.34 61.02 65.01 61.01 Z" />
<path fill="#606060" opacity="1.00" d=" M 60.84 16.91 C 61.60 15.81 62.14 14.15 63.75 14.16 C 65.50 15.45 66.29 17.61 67.44 19.40 C 85.08 49.82 102.72 80.25 120.37 110.68 C 121.50 112.97 124.12 115.50 122.18 118.08 C 83.75 117.90 45.33 118.05 6.90 118.00 C 5.44 118.03 3.65 118.03 3.84 116.05 C 4.78 113.42 6.41 111.12 7.77 108.71 C 25.44 78.10 43.19 47.53 60.84 16.91 M 23.41 103.43 C 22.62 104.88 21.66 106.31 21.35 107.97 C 22.20 109.59 24.49 108.71 25.96 109.02 C 51.34 108.97 76.71 109.02 102.09 109.00 C 103.37 109.13 104.52 108.82 105.54 108.05 C 105.07 105.67 103.55 103.70 102.41 101.61 C 91.11 82.21 79.92 62.74 68.68 43.30 C 66.94 40.47 65.70 37.23 63.11 35.02 C 49.62 57.67 36.76 80.69 23.41 103.43 Z" />
<path fill="#000000" opacity="1.00" d=" M 55.03 61.03 C 57.35 61.03 59.67 61.02 61.99 61.01 C 61.97 66.34 61.99 71.68 61.98 77.02 C 59.64 79.35 57.31 81.68 54.98 84.02 C 55.01 90.35 55.00 96.67 55.00 103.00 C 52.67 103.00 50.33 103.00 48.00 103.00 C 47.99 96.00 48.03 89.00 48.01 82.01 C 50.24 79.63 53.16 77.76 54.92 75.04 C 55.18 70.38 54.94 65.70 55.03 61.03 Z" />
<path fill="#000000" opacity="1.00" d=" M 65.01 61.01 C 67.34 61.02 69.66 61.02 71.99 61.01 C 71.98 65.74 72.01 70.47 71.96 75.20 C 74.28 77.49 76.64 79.75 79.00 82.00 C 79.00 89.00 79.00 96.00 79.00 103.00 C 76.67 103.00 74.33 103.00 72.00 103.00 C 72.00 96.66 72.00 90.32 72.00 83.98 C 69.67 81.66 67.34 79.33 65.01 77.01 C 65.01 71.68 65.02 66.34 65.01 61.01 Z" />
</g>
<g id="normal">
<path fill="#ffffff" opacity="1.00" d=" M 60.55 11.52 C 61.37 9.92 62.87 8.19 64.87 9.11 C 67.89 12.32 69.50 16.57 71.89 20.24 C 86.26 45.39 100.73 70.49 115.42 95.45 C 115.73 95.98 116.04 96.52 116.34 97.06 C 119.35 102.87 122.97 108.35 126.03 114.13 C 127.60 116.84 125.42 121.23 122.09 120.95 C 84.72 121.06 47.35 120.96 9.98 121.00 C 7.39 121.01 4.79 121.03 2.22 120.72 C -0.70 119.82 -0.05 116.20 1.30 114.24 C 21.00 79.97 40.83 45.78 60.55 11.52 M 60.84 16.91 C 43.19 47.53 25.44 78.10 7.77 108.71 C 6.41 111.12 4.78 113.42 3.84 116.05 C 3.65 118.03 5.44 118.03 6.90 118.00 C 45.33 118.05 83.75 117.90 122.18 118.08 C 124.12 115.50 121.50 112.97 120.37 110.68 C 102.72 80.25 85.08 49.82 67.44 19.40 C 66.29 17.61 65.50 15.45 63.75 14.16 C 62.14 14.15 61.60 15.81 60.84 16.91 Z" />
<path fill="#ffffff" opacity="1.00" d=" M 23.41 103.43 C 36.76 80.69 49.62 57.67 63.11 35.02 C 65.70 37.23 66.94 40.47 68.68 43.30 C 79.92 62.74 91.11 82.21 102.41 101.61 C 103.55 103.70 105.07 105.67 105.54 108.05 C 104.52 108.82 103.37 109.13 102.09 109.00 C 76.71 109.02 51.34 108.97 25.96 109.02 C 24.49 108.71 22.20 109.59 21.35 107.97 C 21.66 106.31 22.62 104.88 23.41 103.43 M 55.03 61.03 C 54.94 65.70 55.18 70.38 54.92 75.04 C 53.16 77.76 50.24 79.63 48.01 82.01 C 48.03 89.00 47.99 96.00 48.00 103.00 C 50.33 103.00 52.67 103.00 55.00 103.00 C 55.00 96.67 55.01 90.35 54.98 84.02 C 57.31 81.68 59.64 79.35 61.98 77.02 C 61.99 71.68 61.97 66.34 61.99 61.01 C 59.67 61.02 57.35 61.03 55.03 61.03 M 65.01 61.01 C 65.02 66.34 65.01 71.68 65.01 77.01 C 67.34 79.33 69.67 81.66 72.00 83.98 C 72.00 90.32 72.00 96.66 72.00 103.00 C 74.33 103.00 76.67 103.00 79.00 103.00 C 79.00 96.00 79.00 89.00 79.00 82.00 C 76.64 79.75 74.28 77.49 71.96 75.20 C 72.01 70.47 71.98 65.74 71.99 61.01 C 69.66 61.02 67.34 61.02 65.01 61.01 Z" />
<path fill="#de2e2e" opacity="1.00" d=" M 60.84 16.91 C 61.60 15.81 62.14 14.15 63.75 14.16 C 65.50 15.45 66.29 17.61 67.44 19.40 C 85.08 49.82 102.72 80.25 120.37 110.68 C 121.50 112.97 124.12 115.50 122.18 118.08 C 83.75 117.90 45.33 118.05 6.90 118.00 C 5.44 118.03 3.65 118.03 3.84 116.05 C 4.78 113.42 6.41 111.12 7.77 108.71 C 25.44 78.10 43.19 47.53 60.84 16.91 M 23.41 103.43 C 22.62 104.88 21.66 106.31 21.35 107.97 C 22.20 109.59 24.49 108.71 25.96 109.02 C 51.34 108.97 76.71 109.02 102.09 109.00 C 103.37 109.13 104.52 108.82 105.54 108.05 C 105.07 105.67 103.55 103.70 102.41 101.61 C 91.11 82.21 79.92 62.74 68.68 43.30 C 66.94 40.47 65.70 37.23 63.11 35.02 C 49.62 57.67 36.76 80.69 23.41 103.43 Z" />
<path fill="#000000" opacity="1.00" d=" M 55.03 61.03 C 57.35 61.03 59.67 61.02 61.99 61.01 C 61.97 66.34 61.99 71.68 61.98 77.02 C 59.64 79.35 57.31 81.68 54.98 84.02 C 55.01 90.35 55.00 96.67 55.00 103.00 C 52.67 103.00 50.33 103.00 48.00 103.00 C 47.99 96.00 48.03 89.00 48.01 82.01 C 50.24 79.63 53.16 77.76 54.92 75.04 C 55.18 70.38 54.94 65.70 55.03 61.03 Z" />
<path fill="#000000" opacity="1.00" d=" M 65.01 61.01 C 67.34 61.02 69.66 61.02 71.99 61.01 C 71.98 65.74 72.01 70.47 71.96 75.20 C 74.28 77.49 76.64 79.75 79.00 82.00 C 79.00 89.00 79.00 96.00 79.00 103.00 C 76.67 103.00 74.33 103.00 72.00 103.00 C 72.00 96.66 72.00 90.32 72.00 83.98 C 69.67 81.66 67.34 79.33 65.01 77.01 C 65.01 71.68 65.02 66.34 65.01 61.01 Z" />
</g>
</svg>
