<?xml version="1.0" encoding="UTF-8" ?>
<!DOCTYPE svg PUBLIC "-//W3C//DTD SVG 1.1//EN" "http://www.w3.org/Graphics/SVG/1.1/DTD/svg11.dtd">
<svg width="130pt" height="130pt" viewBox="0 0 130 130" version="1.1" xmlns="http://www.w3.org/2000/svg">
<g id="disabled">
<path fill="#ffffff" opacity="1.00" d=" M 64.04 10.26 C 65.21 7.97 68.38 8.86 69.13 11.01 C 88.17 43.94 107.15 76.89 126.18 109.82 C 127.39 111.91 128.70 113.95 129.59 116.21 C 130.34 117.90 129.69 120.21 127.77 120.73 C 126.18 120.90 124.58 120.98 122.99 121.00 C 84.99 121.00 46.99 121.00 8.99 121.00 C 7.10 121.15 4.96 120.65 4.17 118.72 C 2.07 115.43 5.18 112.27 6.56 109.42 C 20.34 85.58 34.06 61.70 47.96 37.94 C 49.15 36.34 50.14 34.61 50.96 32.79 C 55.20 25.22 59.48 17.64 64.04 10.26 M 64.36 16.34 C 45.49 48.80 26.66 81.29 7.85 113.79 C 6.79 115.13 6.97 116.66 7.79 118.07 C 43.50 117.90 79.22 118.05 114.93 118.00 C 118.50 117.91 122.11 118.28 125.66 117.75 C 126.56 116.38 125.86 114.99 125.14 113.74 C 107.22 82.71 89.25 51.70 71.31 20.67 C 70.06 18.59 69.05 16.34 67.47 14.49 C 65.98 13.52 65.01 15.28 64.36 16.34 Z" />
<path fill="#ffffff" opacity="1.00" d=" M 61.69 42.67 C 63.29 40.04 64.43 37.00 66.93 35.05 C 80.37 57.72 93.27 80.71 106.60 103.45 C 107.40 104.91 108.34 106.36 108.67 108.02 C 107.66 109.52 105.50 108.75 103.99 109.02 C 78.64 108.97 53.29 109.02 27.93 109.00 C 26.65 109.12 25.49 108.82 24.46 108.07 C 24.92 105.68 26.45 103.70 27.60 101.60 C 39.01 81.98 50.33 62.31 61.69 42.67 M 49.66 70.92 C 53.39 75.53 58.88 78.54 61.94 83.72 C 58.81 85.58 55.41 87.09 52.89 89.81 C 51.49 88.74 50.09 87.65 48.69 86.57 C 47.73 87.28 46.78 87.99 45.82 88.71 C 47.69 90.36 49.65 91.92 51.64 93.43 C 51.82 95.84 51.97 98.25 52.10 100.67 C 53.32 100.10 54.53 99.54 55.74 98.97 C 55.58 97.32 55.41 95.67 55.25 94.02 C 58.81 93.03 61.91 90.97 65.08 89.16 C 68.28 94.64 67.52 101.51 70.71 106.95 C 72.23 105.88 74.69 105.23 74.91 103.04 C 75.14 96.71 74.95 90.37 74.97 84.04 C 78.92 80.58 86.35 79.04 86.34 72.73 C 80.57 71.30 76.17 76.10 71.31 78.27 C 65.26 74.82 59.40 70.93 53.12 67.94 C 51.84 68.59 49.54 69.12 49.66 70.92 Z" />
<path fill="#606060" opacity="1.00" d=" M 64.36 16.34 C 65.01 15.28 65.98 13.52 67.47 14.49 C 69.05 16.34 70.06 18.59 71.31 20.67 C 89.25 51.70 107.22 82.71 125.14 113.74 C 125.86 114.99 126.56 116.38 125.66 117.75 C 122.11 118.28 118.50 117.91 114.93 118.00 C 79.22 118.05 43.50 117.90 7.79 118.07 C 6.97 116.66 6.79 115.13 7.85 113.79 C 26.66 81.29 45.49 48.80 64.36 16.34 M 61.69 42.67 C 50.33 62.31 39.01 81.98 27.60 101.60 C 26.45 103.70 24.92 105.68 24.46 108.07 C 25.49 108.82 26.65 109.12 27.93 109.00 C 53.29 109.02 78.64 108.97 103.99 109.02 C 105.50 108.75 107.66 109.52 108.67 108.02 C 108.34 106.36 107.40 104.91 106.60 103.45 C 93.27 80.71 80.37 57.72 66.93 35.05 C 64.43 37.00 63.29 40.04 61.69 42.67 Z" />
<path fill="#000000" opacity="1.00" d=" M 49.66 70.92 C 49.54 69.12 51.84 68.59 53.12 67.94 C 59.40 70.93 65.26 74.82 71.31 78.27 C 76.17 76.10 80.57 71.30 86.34 72.73 C 86.35 79.04 78.92 80.58 74.97 84.04 C 74.95 90.37 75.14 96.71 74.91 103.04 C 74.69 105.23 72.23 105.88 70.71 106.95 C 67.52 101.51 68.28 94.64 65.08 89.16 C 61.91 90.97 58.81 93.03 55.25 94.02 C 55.41 95.67 55.58 97.32 55.74 98.97 C 54.53 99.54 53.32 100.10 52.10 100.67 C 51.97 98.25 51.82 95.84 51.64 93.43 C 49.65 91.92 47.69 90.36 45.82 88.71 C 46.78 87.99 47.73 87.28 48.69 86.57 C 50.09 87.65 51.49 88.74 52.89 89.81 C 55.41 87.09 58.81 85.58 61.94 83.72 C 58.88 78.54 53.39 75.53 49.66 70.92 Z" />
</g>
<g id="normal">
<path fill="#ffffff" opacity="1.00" d=" M 64.04 10.26 C 65.21 7.97 68.38 8.86 69.13 11.01 C 88.17 43.94 107.15 76.89 126.18 109.82 C 127.39 111.91 128.70 113.95 129.59 116.21 C 130.34 117.90 129.69 120.21 127.77 120.73 C 126.18 120.90 124.58 120.98 122.99 121.00 C 84.99 121.00 46.99 121.00 8.99 121.00 C 7.10 121.15 4.96 120.65 4.17 118.72 C 2.07 115.43 5.18 112.27 6.56 109.42 C 20.34 85.58 34.06 61.70 47.96 37.94 C 49.15 36.34 50.14 34.61 50.96 32.79 C 55.20 25.22 59.48 17.64 64.04 10.26 M 64.36 16.34 C 45.49 48.80 26.66 81.29 7.85 113.79 C 6.79 115.13 6.97 116.66 7.79 118.07 C 43.50 117.90 79.22 118.05 114.93 118.00 C 118.50 117.91 122.11 118.28 125.66 117.75 C 126.56 116.38 125.86 114.99 125.14 113.74 C 107.22 82.71 89.25 51.70 71.31 20.67 C 70.06 18.59 69.05 16.34 67.47 14.49 C 65.98 13.52 65.01 15.28 64.36 16.34 Z" />
<path fill="#ffffff" opacity="1.00" d=" M 61.69 42.67 C 63.29 40.04 64.43 37.00 66.93 35.05 C 80.37 57.72 93.27 80.71 106.60 103.45 C 107.40 104.91 108.34 106.36 108.67 108.02 C 107.66 109.52 105.50 108.75 103.99 109.02 C 78.64 108.97 53.29 109.02 27.93 109.00 C 26.65 109.12 25.49 108.82 24.46 108.07 C 24.92 105.68 26.45 103.70 27.60 101.60 C 39.01 81.98 50.33 62.31 61.69 42.67 M 49.66 70.92 C 53.39 75.53 58.88 78.54 61.94 83.72 C 58.81 85.58 55.41 87.09 52.89 89.81 C 51.49 88.74 50.09 87.65 48.69 86.57 C 47.73 87.28 46.78 87.99 45.82 88.71 C 47.69 90.36 49.65 91.92 51.64 93.43 C 51.82 95.84 51.97 98.25 52.10 100.67 C 53.32 100.10 54.53 99.54 55.74 98.97 C 55.58 97.32 55.41 95.67 55.25 94.02 C 58.81 93.03 61.91 90.97 65.08 89.16 C 68.28 94.64 67.52 101.51 70.71 106.95 C 72.23 105.88 74.69 105.23 74.91 103.04 C 75.14 96.71 74.95 90.37 74.97 84.04 C 78.92 80.58 86.35 79.04 86.34 72.73 C 80.57 71.30 76.17 76.10 71.31 78.27 C 65.26 74.82 59.40 70.93 53.12 67.94 C 51.84 68.59 49.54 69.12 49.66 70.92 Z" />
<path fill="#de2e2e" opacity="1.00" d=" M 64.36 16.34 C 65.01 15.28 65.98 13.52 67.47 14.49 C 69.05 16.34 70.06 18.59 71.31 20.67 C 89.25 51.70 107.22 82.71 125.14 113.74 C 125.86 114.99 126.56 116.38 125.66 117.75 C 122.11 118.28 118.50 117.91 114.93 118.00 C 79.22 118.05 43.50 117.90 7.79 118.07 C 6.97 116.66 6.79 115.13 7.85 113.79 C 26.66 81.29 45.49 48.80 64.36 16.34 M 61.69 42.67 C 50.33 62.31 39.01 81.98 27.60 101.60 C 26.45 103.70 24.92 105.68 24.46 108.07 C 25.49 108.82 26.65 109.12 27.93 109.00 C 53.29 109.02 78.64 108.97 103.99 109.02 C 105.50 108.75 107.66 109.52 108.67 108.02 C 108.34 106.36 107.40 104.91 106.60 103.45 C 93.27 80.71 80.37 57.72 66.93 35.05 C 64.43 37.00 63.29 40.04 61.69 42.67 Z" />
<path fill="#000000" opacity="1.00" d=" M 49.66 70.92 C 49.54 69.12 51.84 68.59 53.12 67.94 C 59.40 70.93 65.26 74.82 71.31 78.27 C 76.17 76.10 80.57 71.30 86.34 72.73 C 86.35 79.04 78.92 80.58 74.97 84.04 C 74.95 90.37 75.14 96.71 74.91 103.04 C 74.69 105.23 72.23 105.88 70.71 106.95 C 67.52 101.51 68.28 94.64 65.08 89.16 C 61.91 90.97 58.81 93.03 55.25 94.02 C 55.41 95.67 55.58 97.32 55.74 98.97 C 54.53 99.54 53.32 100.10 52.10 100.67 C 51.97 98.25 51.82 95.84 51.64 93.43 C 49.65 91.92 47.69 90.36 45.82 88.71 C 46.78 87.99 47.73 87.28 48.69 86.57 C 50.09 87.65 51.49 88.74 52.89 89.81 C 55.41 87.09 58.81 85.58 61.94 83.72 C 58.88 78.54 53.39 75.53 49.66 70.92 Z" />
</g>
</svg>
