<?xml version="1.0" encoding="UTF-8" ?>
<!DOCTYPE svg PUBLIC "-//W3C//DTD SVG 1.1//EN" "http://www.w3.org/Graphics/SVG/1.1/DTD/svg11.dtd">
<svg width="149pt" height="149pt" viewBox="0 0 149 149" version="1.1" xmlns="http://www.w3.org/2000/svg">
<g id="disabled">
<path fill="#909090" opacity="1.00" d=" M 12.03 2.00 C 53.69 2.00 95.34 2.00 137.00 2.00 C 137.00 50.32 137.00 98.64 137.00 146.96 C 95.34 146.96 53.69 146.96 12.03 146.96 C 12.03 98.64 12.03 50.32 12.03 2.00 M 75.48 10.96 C 71.58 18.72 67.68 26.47 63.79 34.23 C 66.58 33.81 69.37 33.40 72.16 33.02 C 72.16 39.33 72.17 45.63 72.16 51.93 C 61.82 61.36 51.40 70.70 41.06 80.12 C 38.23 82.57 36.63 86.28 36.80 90.02 C 36.81 104.77 36.80 119.52 36.81 134.26 C 39.02 134.27 41.23 134.27 43.44 134.27 C 43.47 119.23 43.40 104.20 43.47 89.17 C 43.41 87.43 44.44 85.92 45.72 84.84 C 54.54 76.87 63.33 68.88 72.15 60.92 C 72.17 85.37 72.15 109.82 72.16 134.26 C 74.37 134.27 76.59 134.27 78.80 134.26 C 78.80 100.53 78.82 66.81 78.79 33.08 C 81.57 33.48 84.35 33.86 87.14 34.21 C 83.29 26.45 79.36 18.72 75.48 10.96 M 99.56 34.24 C 102.38 33.79 105.20 33.39 108.03 32.98 C 108.04 66.74 108.02 100.50 108.03 134.26 C 110.23 134.27 112.42 134.27 114.62 134.29 C 114.73 100.55 114.65 66.81 114.66 33.07 C 117.41 33.50 120.17 33.86 122.93 34.23 C 119.06 26.47 115.14 18.73 111.26 10.98 C 107.35 18.73 103.45 26.48 99.56 34.24 Z" />
<path fill="#000000" opacity="1.00" d=" M 75.48 10.96 C 79.36 18.72 83.29 26.45 87.14 34.21 C 84.35 33.86 81.57 33.48 78.79 33.08 C 78.82 66.81 78.80 100.53 78.80 134.26 C 76.59 134.27 74.37 134.27 72.16 134.26 C 72.15 109.82 72.17 85.37 72.15 60.92 C 63.33 68.88 54.54 76.87 45.72 84.84 C 44.44 85.92 43.41 87.43 43.47 89.17 C 43.40 104.20 43.47 119.23 43.44 134.27 C 41.23 134.27 39.02 134.27 36.81 134.26 C 36.80 119.52 36.81 104.77 36.80 90.02 C 36.63 86.28 38.23 82.57 41.06 80.12 C 51.40 70.70 61.82 61.36 72.16 51.93 C 72.17 45.63 72.16 39.33 72.16 33.02 C 69.37 33.40 66.58 33.81 63.79 34.23 C 67.68 26.47 71.58 18.72 75.48 10.96 Z" />
<path fill="#000000" opacity="1.00" d=" M 99.56 34.24 C 103.45 26.48 107.35 18.73 111.26 10.98 C 115.14 18.73 119.06 26.47 122.93 34.23 C 120.17 33.86 117.41 33.50 114.66 33.07 C 114.65 66.81 114.73 100.55 114.62 134.29 C 112.42 134.27 110.23 134.27 108.03 134.26 C 108.02 100.50 108.04 66.74 108.03 32.98 C 105.20 33.39 102.38 33.79 99.56 34.24 Z" />
</g>
<g id="normal">
<path fill="#0071bc" opacity="1.00" d=" M 12.03 2.00 C 53.69 2.00 95.34 2.00 137.00 2.00 C 137.00 50.32 137.00 98.64 137.00 146.96 C 95.34 146.96 53.69 146.96 12.03 146.96 C 12.03 98.64 12.03 50.32 12.03 2.00 M 75.48 10.96 C 71.58 18.72 67.68 26.47 63.79 34.23 C 66.58 33.81 69.37 33.40 72.16 33.02 C 72.16 39.33 72.17 45.63 72.16 51.93 C 61.82 61.36 51.40 70.70 41.06 80.12 C 38.23 82.57 36.63 86.28 36.80 90.02 C 36.81 104.77 36.80 119.52 36.81 134.26 C 39.02 134.27 41.23 134.27 43.44 134.27 C 43.47 119.23 43.40 104.20 43.47 89.17 C 43.41 87.43 44.44 85.92 45.72 84.84 C 54.54 76.87 63.33 68.88 72.15 60.92 C 72.17 85.37 72.15 109.82 72.16 134.26 C 74.37 134.27 76.59 134.27 78.80 134.26 C 78.80 100.53 78.82 66.81 78.79 33.08 C 81.57 33.48 84.35 33.86 87.14 34.21 C 83.29 26.45 79.36 18.72 75.48 10.96 M 99.56 34.24 C 102.38 33.79 105.20 33.39 108.03 32.98 C 108.04 66.74 108.02 100.50 108.03 134.26 C 110.23 134.27 112.42 134.27 114.62 134.29 C 114.73 100.55 114.65 66.81 114.66 33.07 C 117.41 33.50 120.17 33.86 122.93 34.23 C 119.06 26.47 115.14 18.73 111.26 10.98 C 107.35 18.73 103.45 26.48 99.56 34.24 Z" />
<path fill="#ffffff" opacity="1.00" d=" M 75.48 10.96 C 79.36 18.72 83.29 26.45 87.14 34.21 C 84.35 33.86 81.57 33.48 78.79 33.08 C 78.82 66.81 78.80 100.53 78.80 134.26 C 76.59 134.27 74.37 134.27 72.16 134.26 C 72.15 109.82 72.17 85.37 72.15 60.92 C 63.33 68.88 54.54 76.87 45.72 84.84 C 44.44 85.92 43.41 87.43 43.47 89.17 C 43.40 104.20 43.47 119.23 43.44 134.27 C 41.23 134.27 39.02 134.27 36.81 134.26 C 36.80 119.52 36.81 104.77 36.80 90.02 C 36.63 86.28 38.23 82.57 41.06 80.12 C 51.40 70.70 61.82 61.36 72.16 51.93 C 72.17 45.63 72.16 39.33 72.16 33.02 C 69.37 33.40 66.58 33.81 63.79 34.23 C 67.68 26.47 71.58 18.72 75.48 10.96 Z" />
<path fill="#ffffff" opacity="1.00" d=" M 99.56 34.24 C 103.45 26.48 107.35 18.73 111.26 10.98 C 115.14 18.73 119.06 26.47 122.93 34.23 C 120.17 33.86 117.41 33.50 114.66 33.07 C 114.65 66.81 114.73 100.55 114.62 134.29 C 112.42 134.27 110.23 134.27 108.03 134.26 C 108.02 100.50 108.04 66.74 108.03 32.98 C 105.20 33.39 102.38 33.79 99.56 34.24 Z" />
</g>
</svg>
