<?xml version="1.0" encoding="UTF-8" ?>
<!DOCTYPE svg PUBLIC "-//W3C//DTD SVG 1.1//EN" "http://www.w3.org/Graphics/SVG/1.1/DTD/svg11.dtd">
<svg width="170pt" height="170pt" viewBox="0 0 170 170" version="1.1" xmlns="http://www.w3.org/2000/svg">
<g id="disabled">
<path fill="#606060" opacity="1.00" d=" M 83.34 12.36 C 85.88 11.37 88.66 12.95 89.76 15.29 C 115.53 59.82 141.32 104.34 167.04 148.90 C 169.65 152.34 166.27 157.41 162.14 156.81 C 110.74 156.82 59.35 156.82 7.95 156.82 C 4.71 157.24 1.51 154.30 2.05 150.99 C 2.83 148.62 4.29 146.56 5.50 144.41 C 30.27 101.58 55.06 58.75 79.82 15.91 C 80.67 14.47 81.65 12.90 83.34 12.36 M 84.56 38.19 C 64.66 72.64 44.69 107.05 24.84 141.52 C 64.93 141.54 105.03 141.54 145.13 141.52 C 125.28 107.06 105.32 72.67 85.43 38.24 C 85.21 38.23 84.78 38.20 84.56 38.19 Z" />
<path fill="#909090" opacity="1.00" d=" M 84.56 38.19 C 84.78 38.20 85.21 38.23 85.43 38.24 C 105.32 72.67 125.28 107.06 145.13 141.52 C 105.03 141.54 64.93 141.54 24.84 141.52 C 44.69 107.05 64.66 72.64 84.56 38.19 M 84.33 63.83 C 80.79 66.93 77.06 69.81 73.52 72.92 C 73.52 94.26 73.53 115.60 73.51 136.94 C 77.21 133.92 80.77 130.74 84.60 127.88 C 88.12 130.98 91.82 133.89 95.39 136.94 C 95.41 127.20 95.36 117.46 95.42 107.73 C 101.97 107.73 108.52 107.74 115.08 107.73 C 115.08 104.55 115.08 101.38 115.06 98.20 C 108.55 98.22 102.04 98.13 95.53 98.26 C 95.21 89.82 95.48 81.37 95.40 72.93 C 91.77 69.83 88.15 66.70 84.33 63.83 Z" />
<path fill="#000000" opacity="1.00" d=" M 84.33 63.83 C 88.15 66.70 91.77 69.83 95.40 72.93 C 95.48 81.37 95.21 89.82 95.53 98.26 C 102.04 98.13 108.55 98.22 115.06 98.20 C 115.08 101.38 115.08 104.55 115.08 107.73 C 108.52 107.74 101.97 107.73 95.42 107.73 C 95.36 117.46 95.41 127.20 95.39 136.94 C 91.82 133.89 88.12 130.98 84.60 127.88 C 80.77 130.74 77.21 133.92 73.51 136.94 C 73.53 115.60 73.52 94.26 73.52 72.92 C 77.06 69.81 80.79 66.93 84.33 63.83 Z" />
</g>
<g id="normal">
<path fill="#cc0000" opacity="1.00" d=" M 83.34 12.36 C 85.88 11.37 88.66 12.95 89.76 15.29 C 115.53 59.82 141.32 104.34 167.04 148.90 C 169.65 152.34 166.27 157.41 162.14 156.81 C 110.74 156.82 59.35 156.82 7.95 156.82 C 4.71 157.24 1.51 154.30 2.05 150.99 C 2.83 148.62 4.29 146.56 5.50 144.41 C 30.27 101.58 55.06 58.75 79.82 15.91 C 80.67 14.47 81.65 12.90 83.34 12.36 M 84.56 38.19 C 64.66 72.64 44.69 107.05 24.84 141.52 C 64.93 141.54 105.03 141.54 145.13 141.52 C 125.28 107.06 105.32 72.67 85.43 38.24 C 85.21 38.23 84.78 38.20 84.56 38.19 Z" />
<path fill="#ffc500" opacity="1.00" d=" M 84.56 38.19 C 84.78 38.20 85.21 38.23 85.43 38.24 C 105.32 72.67 125.28 107.06 145.13 141.52 C 105.03 141.54 64.93 141.54 24.84 141.52 C 44.69 107.05 64.66 72.64 84.56 38.19 M 84.33 63.83 C 80.79 66.93 77.06 69.81 73.52 72.92 C 73.52 94.26 73.53 115.60 73.51 136.94 C 77.21 133.92 80.77 130.74 84.60 127.88 C 88.12 130.98 91.82 133.89 95.39 136.94 C 95.41 127.20 95.36 117.46 95.42 107.73 C 101.97 107.73 108.52 107.74 115.08 107.73 C 115.08 104.55 115.08 101.38 115.06 98.20 C 108.55 98.22 102.04 98.13 95.53 98.26 C 95.21 89.82 95.48 81.37 95.40 72.93 C 91.77 69.83 88.15 66.70 84.33 63.83 Z" />
<path fill="#000000" opacity="1.00" d=" M 84.33 63.83 C 88.15 66.70 91.77 69.83 95.40 72.93 C 95.48 81.37 95.21 89.82 95.53 98.26 C 102.04 98.13 108.55 98.22 115.06 98.20 C 115.08 101.38 115.08 104.55 115.08 107.73 C 108.52 107.74 101.97 107.73 95.42 107.73 C 95.36 117.46 95.41 127.20 95.39 136.94 C 91.82 133.89 88.12 130.98 84.60 127.88 C 80.77 130.74 77.21 133.92 73.51 136.94 C 73.53 115.60 73.52 94.26 73.52 72.92 C 77.06 69.81 80.79 66.93 84.33 63.83 Z" />
</g>
</svg>
