<?xml version="1.0" encoding="UTF-8" ?>
<!DOCTYPE svg PUBLIC "-//W3C//DTD SVG 1.1//EN" "http://www.w3.org/Graphics/SVG/1.1/DTD/svg11.dtd">
<svg width="170pt" height="170pt" viewBox="0 0 170 170" version="1.1" xmlns="http://www.w3.org/2000/svg">
<g id="disabled">
<path fill="#606060" opacity="1.00" d=" M 83.32 12.37 C 85.86 11.35 88.64 12.95 89.76 15.29 C 115.53 59.80 141.30 104.32 167.02 148.86 C 169.67 152.32 166.26 157.44 162.10 156.81 C 110.70 156.82 59.29 156.82 7.89 156.81 C 4.68 157.21 1.55 154.31 2.05 151.04 C 2.90 148.43 4.52 146.18 5.85 143.80 C 30.50 101.17 55.18 58.55 79.83 15.91 C 80.68 14.48 81.64 12.91 83.32 12.37 M 24.83 141.52 C 64.93 141.54 105.03 141.54 145.13 141.52 C 125.12 106.83 105.07 72.16 84.98 37.51 C 64.89 72.16 44.85 106.83 24.83 141.52 Z" />
<path fill="#909090" opacity="1.00" d=" M 24.83 141.52 C 44.85 106.83 64.89 72.16 84.98 37.51 C 105.07 72.16 125.12 106.83 145.13 141.52 C 105.03 141.54 64.93 141.54 24.83 141.52 M 70.94 70.07 C 70.93 77.68 70.93 85.29 70.94 92.90 C 67.89 95.85 64.76 98.69 61.74 101.67 C 61.76 113.67 61.68 125.66 61.67 137.65 C 64.86 137.67 68.05 137.67 71.25 137.65 C 71.40 126.98 70.94 116.26 71.46 105.62 C 74.32 102.54 77.51 99.77 80.46 96.78 C 80.45 87.87 80.46 78.97 80.45 70.07 C 77.28 70.06 74.11 70.06 70.94 70.07 M 89.36 70.07 C 89.38 92.63 89.38 115.18 89.38 137.73 C 92.57 137.73 95.76 137.74 98.95 137.74 C 98.95 115.18 98.90 92.63 98.89 70.07 C 95.71 70.06 92.54 70.06 89.36 70.07 Z" />
<path fill="#000000" opacity="1.00" d=" M 70.94 70.07 C 74.11 70.06 77.28 70.06 80.45 70.07 C 80.46 78.97 80.45 87.87 80.46 96.78 C 77.51 99.77 74.32 102.54 71.46 105.62 C 70.94 116.26 71.40 126.98 71.25 137.65 C 68.05 137.67 64.86 137.67 61.67 137.65 C 61.68 125.66 61.76 113.67 61.74 101.67 C 64.76 98.69 67.89 95.85 70.94 92.90 C 70.93 85.29 70.93 77.68 70.94 70.07 Z" />
<path fill="#000000" opacity="1.00" d=" M 89.36 70.07 C 92.54 70.06 95.71 70.06 98.89 70.07 C 98.90 92.63 98.95 115.18 98.95 137.74 C 95.76 137.74 92.57 137.73 89.38 137.73 C 89.38 115.18 89.38 92.63 89.36 70.07 Z" />
</g>
<g id="normal">
<path fill="#cc0000" opacity="1.00" d=" M 83.32 12.37 C 85.86 11.35 88.64 12.95 89.76 15.29 C 115.53 59.80 141.30 104.32 167.02 148.86 C 169.67 152.32 166.26 157.44 162.10 156.81 C 110.70 156.82 59.29 156.82 7.89 156.81 C 4.68 157.21 1.55 154.31 2.05 151.04 C 2.90 148.43 4.52 146.18 5.85 143.80 C 30.50 101.17 55.18 58.55 79.83 15.91 C 80.68 14.48 81.64 12.91 83.32 12.37 M 24.83 141.52 C 64.93 141.54 105.03 141.54 145.13 141.52 C 125.12 106.83 105.07 72.16 84.98 37.51 C 64.89 72.16 44.85 106.83 24.83 141.52 Z" />
<path fill="#ffc500" opacity="1.00" d=" M 24.83 141.52 C 44.85 106.83 64.89 72.16 84.98 37.51 C 105.07 72.16 125.12 106.83 145.13 141.52 C 105.03 141.54 64.93 141.54 24.83 141.52 M 70.94 70.07 C 70.93 77.68 70.93 85.29 70.94 92.90 C 67.89 95.85 64.76 98.69 61.74 101.67 C 61.76 113.67 61.68 125.66 61.67 137.65 C 64.86 137.67 68.05 137.67 71.25 137.65 C 71.40 126.98 70.94 116.26 71.46 105.62 C 74.32 102.54 77.51 99.77 80.46 96.78 C 80.45 87.87 80.46 78.97 80.45 70.07 C 77.28 70.06 74.11 70.06 70.94 70.07 M 89.36 70.07 C 89.38 92.63 89.38 115.18 89.38 137.73 C 92.57 137.73 95.76 137.74 98.95 137.74 C 98.95 115.18 98.90 92.63 98.89 70.07 C 95.71 70.06 92.54 70.06 89.36 70.07 Z" />
<path fill="#000000" opacity="1.00" d=" M 70.94 70.07 C 74.11 70.06 77.28 70.06 80.45 70.07 C 80.46 78.97 80.45 87.87 80.46 96.78 C 77.51 99.77 74.32 102.54 71.46 105.62 C 70.94 116.26 71.40 126.98 71.25 137.65 C 68.05 137.67 64.86 137.67 61.67 137.65 C 61.68 125.66 61.76 113.67 61.74 101.67 C 64.76 98.69 67.89 95.85 70.94 92.90 C 70.93 85.29 70.93 77.68 70.94 70.07 Z" />
<path fill="#000000" opacity="1.00" d=" M 89.36 70.07 C 92.54 70.06 95.71 70.06 98.89 70.07 C 98.90 92.63 98.95 115.18 98.95 137.74 C 95.76 137.74 92.57 137.73 89.38 137.73 C 89.38 115.18 89.38 92.63 89.36 70.07 Z" />
</g>
</svg>
