<?xml version="1.0" encoding="UTF-8" ?>
<!DOCTYPE svg PUBLIC "-//W3C//DTD SVG 1.1//EN" "http://www.w3.org/Graphics/SVG/1.1/DTD/svg11.dtd">
<svg width="170pt" height="170pt" viewBox="0 0 170 170" version="1.1" xmlns="http://www.w3.org/2000/svg">
<g id="disabled">
<path fill="#606060" opacity="1.00" d=" M 83.34 12.38 C 85.86 11.35 88.65 12.92 89.77 15.25 C 115.54 59.77 141.32 104.30 167.04 148.85 C 169.01 151.45 167.64 155.50 164.58 156.49 C 162.12 157.08 159.55 156.76 157.04 156.82 C 109.36 156.81 61.68 156.82 14.00 156.82 C 11.37 156.80 8.73 156.97 6.12 156.67 C 2.68 156.10 0.85 151.66 2.98 148.86 C 28.56 104.54 54.24 60.27 79.83 15.96 C 80.71 14.53 81.63 12.91 83.34 12.38 M 84.65 38.19 C 64.66 72.59 44.76 107.06 24.87 141.52 C 64.97 141.54 105.07 141.54 145.17 141.52 C 125.27 107.05 105.36 72.58 85.38 38.16 C 85.20 38.17 84.83 38.18 84.65 38.19 Z" />
<path fill="#909090" opacity="1.00" d=" M 84.65 38.19 C 84.83 38.18 85.20 38.17 85.38 38.16 C 105.36 72.58 125.27 107.05 145.17 141.52 C 105.07 141.54 64.97 141.54 24.87 141.52 C 44.76 107.06 64.66 72.59 84.65 38.19 M 74.60 72.92 C 74.60 81.35 74.63 89.78 74.59 98.20 C 68.04 98.20 61.49 98.20 54.93 98.20 C 54.92 101.38 54.92 104.55 54.93 107.73 C 61.49 107.74 68.04 107.73 74.59 107.73 C 74.63 117.47 74.60 127.21 74.61 136.95 C 78.21 133.88 81.89 130.90 85.52 127.86 C 89.19 130.86 92.85 133.89 96.48 136.95 C 96.48 115.61 96.48 94.26 96.48 72.91 C 92.89 69.81 89.20 66.84 85.56 63.80 C 81.88 66.81 78.20 69.81 74.60 72.92 Z" />
<path fill="#000000" opacity="1.00" d=" M 74.60 72.92 C 78.20 69.81 81.88 66.81 85.56 63.80 C 89.20 66.84 92.89 69.81 96.48 72.91 C 96.48 94.26 96.48 115.61 96.48 136.95 C 92.85 133.89 89.19 130.86 85.52 127.86 C 81.89 130.90 78.21 133.88 74.61 136.95 C 74.60 127.21 74.63 117.47 74.59 107.73 C 68.04 107.73 61.49 107.74 54.93 107.73 C 54.92 104.55 54.92 101.38 54.93 98.20 C 61.49 98.20 68.04 98.20 74.59 98.20 C 74.63 89.78 74.60 81.35 74.60 72.92 Z" />
</g>
<g id="normal">
<path fill="#cc0000" opacity="1.00" d=" M 83.34 12.38 C 85.86 11.35 88.65 12.92 89.77 15.25 C 115.54 59.77 141.32 104.30 167.04 148.85 C 169.01 151.45 167.64 155.50 164.58 156.49 C 162.12 157.08 159.55 156.76 157.04 156.82 C 109.36 156.81 61.68 156.82 14.00 156.82 C 11.37 156.80 8.73 156.97 6.12 156.67 C 2.68 156.10 0.85 151.66 2.98 148.86 C 28.56 104.54 54.24 60.27 79.83 15.96 C 80.71 14.53 81.63 12.91 83.34 12.38 M 84.65 38.19 C 64.66 72.59 44.76 107.06 24.87 141.52 C 64.97 141.54 105.07 141.54 145.17 141.52 C 125.27 107.05 105.36 72.58 85.38 38.16 C 85.20 38.17 84.83 38.18 84.65 38.19 Z" />
<path fill="#ffc500" opacity="1.00" d=" M 84.65 38.19 C 84.83 38.18 85.20 38.17 85.38 38.16 C 105.36 72.58 125.27 107.05 145.17 141.52 C 105.07 141.54 64.97 141.54 24.87 141.52 C 44.76 107.06 64.66 72.59 84.65 38.19 M 74.60 72.92 C 74.60 81.35 74.63 89.78 74.59 98.20 C 68.04 98.20 61.49 98.20 54.93 98.20 C 54.92 101.38 54.92 104.55 54.93 107.73 C 61.49 107.74 68.04 107.73 74.59 107.73 C 74.63 117.47 74.60 127.21 74.61 136.95 C 78.21 133.88 81.89 130.90 85.52 127.86 C 89.19 130.86 92.85 133.89 96.48 136.95 C 96.48 115.61 96.48 94.26 96.48 72.91 C 92.89 69.81 89.20 66.84 85.56 63.80 C 81.88 66.81 78.20 69.81 74.60 72.92 Z" />
<path fill="#000000" opacity="1.00" d=" M 74.60 72.92 C 78.20 69.81 81.88 66.81 85.56 63.80 C 89.20 66.84 92.89 69.81 96.48 72.91 C 96.48 94.26 96.48 115.61 96.48 136.95 C 92.85 133.89 89.19 130.86 85.52 127.86 C 81.89 130.90 78.21 133.88 74.61 136.95 C 74.60 127.21 74.63 117.47 74.59 107.73 C 68.04 107.73 61.49 107.74 54.93 107.73 C 54.92 104.55 54.92 101.38 54.93 98.20 C 61.49 98.20 68.04 98.20 74.59 98.20 C 74.63 89.78 74.60 81.35 74.60 72.92 Z" />
</g>
</svg>
