<?xml version="1.0" encoding="UTF-8" ?>
<!DOCTYPE svg PUBLIC "-//W3C//DTD SVG 1.1//EN" "http://www.w3.org/Graphics/SVG/1.1/DTD/svg11.dtd">
<svg width="149pt" height="149pt" viewBox="0 0 149 149" version="1.1" xmlns="http://www.w3.org/2000/svg">
<g id="disabled">
<path fill="#606060" opacity="1.00" d=" M 64.50 2.78 C 78.73 0.70 93.53 3.21 106.36 9.65 C 121.64 17.32 134.16 30.43 140.93 46.14 C 147.21 60.40 148.57 76.76 144.66 91.85 C 140.03 110.28 127.75 126.55 111.51 136.37 C 97.74 144.85 81.00 148.48 64.96 146.21 C 33.49 142.25 6.65 115.44 2.73 83.95 C 0.27 67.00 4.57 49.30 14.00 35.05 C 25.30 17.84 44.05 5.59 64.50 2.78 M 64.48 20.71 C 47.03 24.01 31.65 36.33 24.51 52.58 C 19.48 63.63 18.36 76.43 21.60 88.15 C 25.36 102.09 34.76 114.45 47.30 121.64 C 58.94 128.48 73.26 131.11 86.43 127.72 C 100.83 124.43 113.67 115.01 121.24 102.33 C 127.80 91.61 130.59 78.55 128.50 66.12 C 125.76 48.86 114.26 33.26 98.57 25.56 C 88.15 20.24 75.97 18.43 64.48 20.71 Z" />
<path fill="#606060" opacity="1.00" d=" M 80.67 51.91 C 86.00 46.55 91.36 41.20 96.71 35.86 C 102.05 41.22 107.46 46.52 112.78 51.91 C 110.54 51.93 108.31 51.93 106.07 51.94 C 106.06 72.34 106.07 92.73 106.06 113.13 C 99.84 113.13 93.61 113.14 87.39 113.13 C 87.39 92.73 87.39 72.34 87.39 51.94 C 85.14 51.93 82.91 51.93 80.67 51.91 Z" />
<path fill="#909090" opacity="1.00" d=" M 64.48 20.71 C 75.97 18.43 88.15 20.24 98.57 25.56 C 114.26 33.26 125.76 48.86 128.50 66.12 C 130.59 78.55 127.80 91.61 121.24 102.33 C 113.67 115.01 100.83 124.43 86.43 127.72 C 73.26 131.11 58.94 128.48 47.30 121.64 C 34.76 114.45 25.36 102.09 21.60 88.15 C 18.36 76.43 19.48 63.63 24.51 52.58 C 31.65 36.33 47.03 24.01 64.48 20.71 M 42.89 35.74 C 42.88 56.13 42.88 76.53 42.88 96.93 C 40.63 96.93 38.38 96.93 36.13 96.94 C 41.48 102.33 46.86 107.68 52.23 113.05 C 57.59 107.68 62.98 102.35 68.29 96.93 C 66.04 96.93 63.80 96.93 61.56 96.93 C 61.55 76.53 61.57 56.13 61.55 35.73 C 55.33 35.74 49.11 35.73 42.89 35.74 M 80.67 51.91 C 82.91 51.93 85.14 51.93 87.39 51.94 C 87.39 72.34 87.39 92.73 87.39 113.13 C 93.61 113.14 99.84 113.13 106.06 113.13 C 106.07 92.73 106.06 72.34 106.07 51.94 C 108.31 51.93 110.54 51.93 112.78 51.91 C 107.46 46.52 102.05 41.22 96.71 35.86 C 91.36 41.20 86.00 46.55 80.67 51.91 Z" />
<path fill="#000000" opacity="1.00" d=" M 42.89 35.74 C 49.11 35.73 55.33 35.74 61.55 35.73 C 61.57 56.13 61.55 76.53 61.56 96.93 C 63.80 96.93 66.04 96.93 68.29 96.93 C 62.98 102.35 57.59 107.68 52.23 113.05 C 46.86 107.68 41.48 102.33 36.13 96.94 C 38.38 96.93 40.63 96.93 42.88 96.93 C 42.88 76.53 42.88 56.13 42.89 35.74 Z" />
</g>
<g id="normal">
<path fill="#cc0000" opacity="1.00" d=" M 64.50 2.78 C 78.73 0.70 93.53 3.21 106.36 9.65 C 121.64 17.32 134.16 30.43 140.93 46.14 C 147.21 60.40 148.57 76.76 144.66 91.85 C 140.03 110.28 127.75 126.55 111.51 136.37 C 97.74 144.85 81.00 148.48 64.96 146.21 C 33.49 142.25 6.65 115.44 2.73 83.95 C 0.27 67.00 4.57 49.30 14.00 35.05 C 25.30 17.84 44.05 5.59 64.50 2.78 M 64.48 20.71 C 47.03 24.01 31.65 36.33 24.51 52.58 C 19.48 63.63 18.36 76.43 21.60 88.15 C 25.36 102.09 34.76 114.45 47.30 121.64 C 58.94 128.48 73.26 131.11 86.43 127.72 C 100.83 124.43 113.67 115.01 121.24 102.33 C 127.80 91.61 130.59 78.55 128.50 66.12 C 125.76 48.86 114.26 33.26 98.57 25.56 C 88.15 20.24 75.97 18.43 64.48 20.71 Z" />
<path fill="#cc0000" opacity="1.00" d=" M 80.67 51.91 C 86.00 46.55 91.36 41.20 96.71 35.86 C 102.05 41.22 107.46 46.52 112.78 51.91 C 110.54 51.93 108.31 51.93 106.07 51.94 C 106.06 72.34 106.07 92.73 106.06 113.13 C 99.84 113.13 93.61 113.14 87.39 113.13 C 87.39 92.73 87.39 72.34 87.39 51.94 C 85.14 51.93 82.91 51.93 80.67 51.91 Z" />
<path fill="#ffffff" opacity="1.00" d=" M 64.48 20.71 C 75.97 18.43 88.15 20.24 98.57 25.56 C 114.26 33.26 125.76 48.86 128.50 66.12 C 130.59 78.55 127.80 91.61 121.24 102.33 C 113.67 115.01 100.83 124.43 86.43 127.72 C 73.26 131.11 58.94 128.48 47.30 121.64 C 34.76 114.45 25.36 102.09 21.60 88.15 C 18.36 76.43 19.48 63.63 24.51 52.58 C 31.65 36.33 47.03 24.01 64.48 20.71 M 42.89 35.74 C 42.88 56.13 42.88 76.53 42.88 96.93 C 40.63 96.93 38.38 96.93 36.13 96.94 C 41.48 102.33 46.86 107.68 52.23 113.05 C 57.59 107.68 62.98 102.35 68.29 96.93 C 66.04 96.93 63.80 96.93 61.56 96.93 C 61.55 76.53 61.57 56.13 61.55 35.73 C 55.33 35.74 49.11 35.73 42.89 35.74 M 80.67 51.91 C 82.91 51.93 85.14 51.93 87.39 51.94 C 87.39 72.34 87.39 92.73 87.39 113.13 C 93.61 113.14 99.84 113.13 106.06 113.13 C 106.07 92.73 106.06 72.34 106.07 51.94 C 108.31 51.93 110.54 51.93 112.78 51.91 C 107.46 46.52 102.05 41.22 96.71 35.86 C 91.36 41.20 86.00 46.55 80.67 51.91 Z" />
<path fill="#000000" opacity="1.00" d=" M 42.89 35.74 C 49.11 35.73 55.33 35.74 61.55 35.73 C 61.57 56.13 61.55 76.53 61.56 96.93 C 63.80 96.93 66.04 96.93 68.29 96.93 C 62.98 102.35 57.59 107.68 52.23 113.05 C 46.86 107.68 41.48 102.33 36.13 96.94 C 38.38 96.93 40.63 96.93 42.88 96.93 C 42.88 76.53 42.88 56.13 42.89 35.74 Z" />
</g>
</svg>
