<?xml version="1.0" encoding="UTF-8" ?>
<!DOCTYPE svg PUBLIC "-//W3C//DTD SVG 1.1//EN" "http://www.w3.org/Graphics/SVG/1.1/DTD/svg11.dtd">
<svg width="130pt" height="130pt" viewBox="0 0 130 130" version="1.1" xmlns="http://www.w3.org/2000/svg">
<g id="disabled">
<path fill="#ffffff" opacity="1.00" d=" M 63.97 10.32 C 65.08 8.04 68.34 8.76 69.10 10.94 C 88.73 44.94 108.34 78.95 127.99 112.93 C 129.49 115.13 131.36 119.44 127.79 120.68 C 125.23 121.13 122.62 120.99 120.04 121.00 C 82.66 121.00 45.28 121.00 7.90 121.00 C 4.88 121.24 2.94 117.65 3.54 115.00 C 4.38 113.01 5.65 111.25 6.64 109.33 C 20.22 85.70 33.89 62.11 47.58 38.55 C 49.03 36.71 50.12 34.61 51.11 32.50 C 55.30 25.05 59.54 17.62 63.97 10.32 M 64.35 16.34 C 45.39 49.03 26.40 81.71 7.49 114.43 C 6.54 115.58 6.95 117.14 8.04 118.01 C 46.72 117.98 85.40 118.01 124.08 118.00 C 126.22 118.48 126.67 115.60 125.49 114.37 C 106.35 81.21 87.17 48.07 67.98 14.94 C 66.65 13.28 64.91 14.86 64.35 16.34 Z" />
<path fill="#ffffff" opacity="1.00" d=" M 64.17 38.32 C 65.03 37.27 65.31 35.25 67.05 35.40 C 68.19 36.81 69.03 38.43 69.93 40.01 C 81.91 60.74 93.86 81.48 105.84 102.21 C 106.89 104.10 108.25 105.89 108.73 108.04 C 107.58 109.46 105.60 108.87 104.04 109.01 C 78.36 108.99 52.69 109.00 27.01 109.00 C 25.51 109.39 23.54 107.66 24.95 106.25 C 38.01 83.59 51.16 60.99 64.17 38.32 M 65.00 63.03 C 65.00 63.52 65.00 64.48 65.00 64.97 C 67.01 64.97 69.01 64.97 71.02 64.98 C 71.02 65.74 71.02 67.26 71.03 68.02 C 67.67 67.91 64.32 67.87 61.19 69.13 C 54.85 78.58 46.33 87.47 35.16 90.84 C 35.30 94.07 34.56 97.48 36.24 100.43 C 45.24 100.50 54.27 100.19 63.26 100.57 C 55.14 100.65 47.03 100.55 38.92 100.62 L 38.88 102.00 C 42.82 102.09 46.79 101.84 50.71 102.11 C 52.12 102.99 53.81 102.50 55.35 102.57 C 55.54 102.82 55.90 103.33 56.08 103.58 L 57.80 103.60 L 58.11 104.98 C 67.34 105.07 76.56 104.90 85.78 105.07 L 87.82 104.31 L 81.82 103.20 L 85.53 102.23 C 84.90 102.16 83.63 102.02 83.00 101.94 C 82.99 100.41 83.00 98.89 83.01 97.36 C 85.19 97.17 86.30 95.06 85.98 93.05 C 85.69 85.40 86.83 77.55 84.65 70.10 C 82.22 66.82 77.47 68.41 73.98 68.02 C 73.98 67.26 73.98 65.74 73.98 64.99 C 75.98 64.96 77.99 64.94 80.00 64.94 C 80.00 64.47 80.00 63.53 80.00 63.06 C 75.00 63.04 70.00 63.01 65.00 63.03 Z" />
<path fill="#ffffff" opacity="1.00" d=" M 63.98 69.99 C 70.00 69.97 76.02 69.96 82.05 69.99 C 83.57 72.75 84.37 75.86 84.02 79.02 C 76.68 79.01 69.34 79.05 62.00 78.99 C 61.61 75.83 62.49 72.75 63.98 69.99 Z" />
<path fill="#ffffff" opacity="1.00" d=" M 55.99 81.03 C 56.48 80.52 57.47 79.51 57.96 79.01 C 58.03 82.00 57.99 84.99 58.00 87.97 C 57.36 88.65 56.71 89.33 56.06 90.00 C 55.95 87.01 56.03 84.01 55.99 81.03 Z" />
<path fill="#ffffff" opacity="1.00" d=" M 51.10 85.94 C 51.84 85.40 52.58 84.86 53.34 84.34 C 53.33 86.25 53.45 88.17 53.26 90.09 C 52.54 90.57 51.83 91.08 51.13 91.59 C 51.09 89.71 51.10 87.83 51.10 85.94 Z" />
<path fill="#ffffff" opacity="1.00" d=" M 62.66 90.09 C 62.37 88.46 62.60 85.31 65.07 86.08 C 67.67 86.16 68.34 89.12 67.08 91.03 C 65.71 91.61 62.75 92.54 62.66 90.09 Z" />
<path fill="#ffffff" opacity="1.00" d=" M 79.12 87.14 C 80.24 86.57 81.57 85.54 82.88 86.15 C 84.62 87.03 83.76 89.32 83.77 90.87 C 81.46 93.32 77.48 90.14 79.12 87.14 Z" />
<path fill="#ffffff" opacity="1.00" d=" M 46.89 88.43 C 47.31 88.25 48.14 87.90 48.55 87.73 C 48.30 89.37 49.62 92.85 46.87 92.72 C 46.88 91.29 46.88 89.85 46.89 88.43 Z" />
<path fill="#ffffff" opacity="1.00" d=" M 42.10 90.89 C 42.99 90.64 43.88 90.39 44.77 90.14 C 44.76 91.29 44.75 92.44 44.73 93.59 C 44.08 93.73 42.77 94.02 42.11 94.16 C 42.11 93.34 42.10 91.70 42.10 90.89 Z" />
<path fill="#ffffff" opacity="1.00" d=" M 36.13 92.17 C 37.28 92.00 38.43 91.84 39.58 91.68 C 39.68 92.56 39.73 93.45 39.72 94.34 C 38.58 94.48 37.43 94.62 36.29 94.77 C 36.25 94.12 36.17 92.82 36.13 92.17 Z" />
<path fill="#ffffff" opacity="1.00" d=" M 69.00 98.59 C 71.67 98.58 74.33 98.58 77.00 98.60 C 77.00 99.24 77.00 100.54 77.00 101.18 C 74.33 101.19 71.67 101.19 69.00 101.18 C 69.00 100.54 69.00 99.24 69.00 98.59 Z" />
<path fill="#606060" opacity="1.00" d=" M 64.35 16.34 C 64.91 14.86 66.65 13.28 67.98 14.94 C 87.17 48.07 106.35 81.21 125.49 114.37 C 126.67 115.60 126.22 118.48 124.08 118.00 C 85.40 118.01 46.72 117.98 8.04 118.01 C 6.95 117.14 6.54 115.58 7.49 114.43 C 26.40 81.71 45.39 49.03 64.35 16.34 M 64.17 38.32 C 51.16 60.99 38.01 83.59 24.95 106.25 C 23.54 107.66 25.51 109.39 27.01 109.00 C 52.69 109.00 78.36 108.99 104.04 109.01 C 105.60 108.87 107.58 109.46 108.73 108.04 C 108.25 105.89 106.89 104.10 105.84 102.21 C 93.86 81.48 81.91 60.74 69.93 40.01 C 69.03 38.43 68.19 36.81 67.05 35.40 C 65.31 35.25 65.03 37.27 64.17 38.32 Z" />
<path fill="#000000" opacity="1.00" d=" M 65.00 63.03 C 70.00 63.01 75.00 63.04 80.00 63.06 C 80.00 63.53 80.00 64.47 80.00 64.94 C 77.99 64.94 75.98 64.96 73.98 64.99 C 73.98 65.74 73.98 67.26 73.98 68.02 C 77.47 68.41 82.22 66.82 84.65 70.10 C 86.83 77.55 85.69 85.40 85.98 93.05 C 86.30 95.06 85.19 97.17 83.01 97.36 C 83.00 98.89 82.99 100.41 83.00 101.94 C 83.63 102.02 84.90 102.16 85.53 102.23 L 81.82 103.20 L 87.82 104.31 L 85.78 105.07 C 76.56 104.90 67.34 105.07 58.11 104.98 L 57.80 103.60 L 56.08 103.58 C 55.90 103.33 55.54 102.82 55.35 102.57 C 53.81 102.50 52.12 102.99 50.71 102.11 C 46.79 101.84 42.82 102.09 38.88 102.00 L 38.92 100.62 C 47.03 100.55 55.14 100.65 63.26 100.57 C 54.27 100.19 45.24 100.50 36.24 100.43 C 34.56 97.48 35.30 94.07 35.16 90.84 C 46.33 87.47 54.85 78.58 61.19 69.13 C 64.32 67.87 67.67 67.91 71.03 68.02 C 71.02 67.26 71.02 65.74 71.02 64.98 C 69.01 64.97 67.01 64.97 65.00 64.97 C 65.00 64.48 65.00 63.52 65.00 63.03 M 63.98 69.99 C 62.49 72.75 61.61 75.83 62.00 78.99 C 69.34 79.05 76.68 79.01 84.02 79.02 C 84.37 75.86 83.57 72.75 82.05 69.99 C 76.02 69.96 70.00 69.97 63.98 69.99 M 55.99 81.03 C 56.03 84.01 55.95 87.01 56.06 90.00 C 56.71 89.33 57.36 88.65 58.00 87.97 C 57.99 84.99 58.03 82.00 57.96 79.01 C 57.47 79.51 56.48 80.52 55.99 81.03 M 51.10 85.94 C 51.10 87.83 51.09 89.71 51.13 91.59 C 51.83 91.08 52.54 90.57 53.26 90.09 C 53.45 88.17 53.33 86.25 53.34 84.34 C 52.58 84.86 51.84 85.40 51.10 85.94 M 62.66 90.09 C 62.75 92.54 65.71 91.61 67.08 91.03 C 68.34 89.12 67.67 86.16 65.07 86.08 C 62.60 85.31 62.37 88.46 62.66 90.09 M 79.12 87.14 C 77.48 90.14 81.46 93.32 83.77 90.87 C 83.76 89.32 84.62 87.03 82.88 86.15 C 81.57 85.54 80.24 86.57 79.12 87.14 M 46.89 88.43 C 46.88 89.85 46.88 91.29 46.87 92.72 C 49.62 92.85 48.30 89.37 48.55 87.73 C 48.14 87.90 47.31 88.25 46.89 88.43 M 42.10 90.89 C 42.10 91.70 42.11 93.34 42.11 94.16 C 42.77 94.02 44.08 93.73 44.73 93.59 C 44.75 92.44 44.76 91.29 44.77 90.14 C 43.88 90.39 42.99 90.64 42.10 90.89 M 36.13 92.17 C 36.17 92.82 36.25 94.12 36.29 94.77 C 37.43 94.62 38.58 94.48 39.72 94.34 C 39.73 93.45 39.68 92.56 39.58 91.68 C 38.43 91.84 37.28 92.00 36.13 92.17 M 69.00 98.59 C 69.00 99.24 69.00 100.54 69.00 101.18 C 71.67 101.19 74.33 101.19 77.00 101.18 C 77.00 100.54 77.00 99.24 77.00 98.60 C 74.33 98.58 71.67 98.58 69.00 98.59 Z" />
</g>
<g id="normal">
<path fill="#ffffff" opacity="1.00" d=" M 63.97 10.32 C 65.08 8.04 68.34 8.76 69.10 10.94 C 88.73 44.94 108.34 78.95 127.99 112.93 C 129.49 115.13 131.36 119.44 127.79 120.68 C 125.23 121.13 122.62 120.99 120.04 121.00 C 82.66 121.00 45.28 121.00 7.90 121.00 C 4.88 121.24 2.94 117.65 3.54 115.00 C 4.38 113.01 5.65 111.25 6.64 109.33 C 20.22 85.70 33.89 62.11 47.58 38.55 C 49.03 36.71 50.12 34.61 51.11 32.50 C 55.30 25.05 59.54 17.62 63.97 10.32 M 64.35 16.34 C 45.39 49.03 26.40 81.71 7.49 114.43 C 6.54 115.58 6.95 117.14 8.04 118.01 C 46.72 117.98 85.40 118.01 124.08 118.00 C 126.22 118.48 126.67 115.60 125.49 114.37 C 106.35 81.21 87.17 48.07 67.98 14.94 C 66.65 13.28 64.91 14.86 64.35 16.34 Z" />
<path fill="#ffffff" opacity="1.00" d=" M 64.17 38.32 C 65.03 37.27 65.31 35.25 67.05 35.40 C 68.19 36.81 69.03 38.43 69.93 40.01 C 81.91 60.74 93.86 81.48 105.84 102.21 C 106.89 104.10 108.25 105.89 108.73 108.04 C 107.58 109.46 105.60 108.87 104.04 109.01 C 78.36 108.99 52.69 109.00 27.01 109.00 C 25.51 109.39 23.54 107.66 24.95 106.25 C 38.01 83.59 51.16 60.99 64.17 38.32 M 65.00 63.03 C 65.00 63.52 65.00 64.48 65.00 64.97 C 67.01 64.97 69.01 64.97 71.02 64.98 C 71.02 65.74 71.02 67.26 71.03 68.02 C 67.67 67.91 64.32 67.87 61.19 69.13 C 54.85 78.58 46.33 87.47 35.16 90.84 C 35.30 94.07 34.56 97.48 36.24 100.43 C 45.24 100.50 54.27 100.19 63.26 100.57 C 55.14 100.65 47.03 100.55 38.92 100.62 L 38.88 102.00 C 42.82 102.09 46.79 101.84 50.71 102.11 C 52.12 102.99 53.81 102.50 55.35 102.57 C 55.54 102.82 55.90 103.33 56.08 103.58 L 57.80 103.60 L 58.11 104.98 C 67.34 105.07 76.56 104.90 85.78 105.07 L 87.82 104.31 L 81.82 103.20 L 85.53 102.23 C 84.90 102.16 83.63 102.02 83.00 101.94 C 82.99 100.41 83.00 98.89 83.01 97.36 C 85.19 97.17 86.30 95.06 85.98 93.05 C 85.69 85.40 86.83 77.55 84.65 70.10 C 82.22 66.82 77.47 68.41 73.98 68.02 C 73.98 67.26 73.98 65.74 73.98 64.99 C 75.98 64.96 77.99 64.94 80.00 64.94 C 80.00 64.47 80.00 63.53 80.00 63.06 C 75.00 63.04 70.00 63.01 65.00 63.03 Z" />
<path fill="#ffffff" opacity="1.00" d=" M 63.98 69.99 C 70.00 69.97 76.02 69.96 82.05 69.99 C 83.57 72.75 84.37 75.86 84.02 79.02 C 76.68 79.01 69.34 79.05 62.00 78.99 C 61.61 75.83 62.49 72.75 63.98 69.99 Z" />
<path fill="#ffffff" opacity="1.00" d=" M 55.99 81.03 C 56.48 80.52 57.47 79.51 57.96 79.01 C 58.03 82.00 57.99 84.99 58.00 87.97 C 57.36 88.65 56.71 89.33 56.06 90.00 C 55.95 87.01 56.03 84.01 55.99 81.03 Z" />
<path fill="#ffffff" opacity="1.00" d=" M 51.10 85.94 C 51.84 85.40 52.58 84.86 53.34 84.34 C 53.33 86.25 53.45 88.17 53.26 90.09 C 52.54 90.57 51.83 91.08 51.13 91.59 C 51.09 89.71 51.10 87.83 51.10 85.94 Z" />
<path fill="#ffffff" opacity="1.00" d=" M 62.66 90.09 C 62.37 88.46 62.60 85.31 65.07 86.08 C 67.67 86.16 68.34 89.12 67.08 91.03 C 65.71 91.61 62.75 92.54 62.66 90.09 Z" />
<path fill="#ffffff" opacity="1.00" d=" M 79.12 87.14 C 80.24 86.57 81.57 85.54 82.88 86.15 C 84.62 87.03 83.76 89.32 83.77 90.87 C 81.46 93.32 77.48 90.14 79.12 87.14 Z" />
<path fill="#ffffff" opacity="1.00" d=" M 46.89 88.43 C 47.31 88.25 48.14 87.90 48.55 87.73 C 48.30 89.37 49.62 92.85 46.87 92.72 C 46.88 91.29 46.88 89.85 46.89 88.43 Z" />
<path fill="#ffffff" opacity="1.00" d=" M 42.10 90.89 C 42.99 90.64 43.88 90.39 44.77 90.14 C 44.76 91.29 44.75 92.44 44.73 93.59 C 44.08 93.73 42.77 94.02 42.11 94.16 C 42.11 93.34 42.10 91.70 42.10 90.89 Z" />
<path fill="#ffffff" opacity="1.00" d=" M 36.13 92.17 C 37.28 92.00 38.43 91.84 39.58 91.68 C 39.68 92.56 39.73 93.45 39.72 94.34 C 38.58 94.48 37.43 94.62 36.29 94.77 C 36.25 94.12 36.17 92.82 36.13 92.17 Z" />
<path fill="#ffffff" opacity="1.00" d=" M 69.00 98.59 C 71.67 98.58 74.33 98.58 77.00 98.60 C 77.00 99.24 77.00 100.54 77.00 101.18 C 74.33 101.19 71.67 101.19 69.00 101.18 C 69.00 100.54 69.00 99.24 69.00 98.59 Z" />
<path fill="#de2e2e" opacity="1.00" d=" M 64.35 16.34 C 64.91 14.86 66.65 13.28 67.98 14.94 C 87.17 48.07 106.35 81.21 125.49 114.37 C 126.67 115.60 126.22 118.48 124.08 118.00 C 85.40 118.01 46.72 117.98 8.04 118.01 C 6.95 117.14 6.54 115.58 7.49 114.43 C 26.40 81.71 45.39 49.03 64.35 16.34 M 64.17 38.32 C 51.16 60.99 38.01 83.59 24.95 106.25 C 23.54 107.66 25.51 109.39 27.01 109.00 C 52.69 109.00 78.36 108.99 104.04 109.01 C 105.60 108.87 107.58 109.46 108.73 108.04 C 108.25 105.89 106.89 104.10 105.84 102.21 C 93.86 81.48 81.91 60.74 69.93 40.01 C 69.03 38.43 68.19 36.81 67.05 35.40 C 65.31 35.25 65.03 37.27 64.17 38.32 Z" />
<path fill="#000000" opacity="1.00" d=" M 65.00 63.03 C 70.00 63.01 75.00 63.04 80.00 63.06 C 80.00 63.53 80.00 64.47 80.00 64.94 C 77.99 64.94 75.98 64.96 73.98 64.99 C 73.98 65.74 73.98 67.26 73.98 68.02 C 77.47 68.41 82.22 66.82 84.65 70.10 C 86.83 77.55 85.69 85.40 85.98 93.05 C 86.30 95.06 85.19 97.17 83.01 97.36 C 83.00 98.89 82.99 100.41 83.00 101.94 C 83.63 102.02 84.90 102.16 85.53 102.23 L 81.82 103.20 L 87.82 104.31 L 85.78 105.07 C 76.56 104.90 67.34 105.07 58.11 104.98 L 57.80 103.60 L 56.08 103.58 C 55.90 103.33 55.54 102.82 55.35 102.57 C 53.81 102.50 52.12 102.99 50.71 102.11 C 46.79 101.84 42.82 102.09 38.88 102.00 L 38.92 100.62 C 47.03 100.55 55.14 100.65 63.26 100.57 C 54.27 100.19 45.24 100.50 36.24 100.43 C 34.56 97.48 35.30 94.07 35.16 90.84 C 46.33 87.47 54.85 78.58 61.19 69.13 C 64.32 67.87 67.67 67.91 71.03 68.02 C 71.02 67.26 71.02 65.74 71.02 64.98 C 69.01 64.97 67.01 64.97 65.00 64.97 C 65.00 64.48 65.00 63.52 65.00 63.03 M 63.98 69.99 C 62.49 72.75 61.61 75.83 62.00 78.99 C 69.34 79.05 76.68 79.01 84.02 79.02 C 84.37 75.86 83.57 72.75 82.05 69.99 C 76.02 69.96 70.00 69.97 63.98 69.99 M 55.99 81.03 C 56.03 84.01 55.95 87.01 56.06 90.00 C 56.71 89.33 57.36 88.65 58.00 87.97 C 57.99 84.99 58.03 82.00 57.96 79.01 C 57.47 79.51 56.48 80.52 55.99 81.03 M 51.10 85.94 C 51.10 87.83 51.09 89.71 51.13 91.59 C 51.83 91.08 52.54 90.57 53.26 90.09 C 53.45 88.17 53.33 86.25 53.34 84.34 C 52.58 84.86 51.84 85.40 51.10 85.94 M 62.66 90.09 C 62.75 92.54 65.71 91.61 67.08 91.03 C 68.34 89.12 67.67 86.16 65.07 86.08 C 62.60 85.31 62.37 88.46 62.66 90.09 M 79.12 87.14 C 77.48 90.14 81.46 93.32 83.77 90.87 C 83.76 89.32 84.62 87.03 82.88 86.15 C 81.57 85.54 80.24 86.57 79.12 87.14 M 46.89 88.43 C 46.88 89.85 46.88 91.29 46.87 92.72 C 49.62 92.85 48.30 89.37 48.55 87.73 C 48.14 87.90 47.31 88.25 46.89 88.43 M 42.10 90.89 C 42.10 91.70 42.11 93.34 42.11 94.16 C 42.77 94.02 44.08 93.73 44.73 93.59 C 44.75 92.44 44.76 91.29 44.77 90.14 C 43.88 90.39 42.99 90.64 42.10 90.89 M 36.13 92.17 C 36.17 92.82 36.25 94.12 36.29 94.77 C 37.43 94.62 38.58 94.48 39.72 94.34 C 39.73 93.45 39.68 92.56 39.58 91.68 C 38.43 91.84 37.28 92.00 36.13 92.17 M 69.00 98.59 C 69.00 99.24 69.00 100.54 69.00 101.18 C 71.67 101.19 74.33 101.19 77.00 101.18 C 77.00 100.54 77.00 99.24 77.00 98.60 C 74.33 98.58 71.67 98.58 69.00 98.59 Z" />
</g>
</svg>
