<?xml version="1.0" encoding="UTF-8" ?>
<!DOCTYPE svg PUBLIC "-//W3C//DTD SVG 1.1//EN" "http://www.w3.org/Graphics/SVG/1.1/DTD/svg11.dtd">
<svg width="149pt" height="149pt" viewBox="0 0 149 149" version="1.1" xmlns="http://www.w3.org/2000/svg">
<g id="disabled">
<path fill="#909090" opacity="1.00" d=" M 12.00 2.00 C 53.66 2.00 95.31 2.00 136.97 2.00 C 136.97 50.32 136.97 98.64 136.97 146.96 C 95.31 146.96 53.66 146.96 12.00 146.96 C 12.00 98.64 12.00 50.32 12.00 2.00 M 73.51 10.96 C 69.65 18.73 65.71 26.44 61.86 34.21 C 64.65 33.86 67.43 33.48 70.21 33.08 C 70.19 66.81 70.20 100.53 70.20 134.26 C 72.41 134.27 74.62 134.27 76.84 134.26 C 76.86 109.82 76.80 85.39 76.86 60.95 C 85.67 68.86 94.41 76.84 103.20 84.77 C 104.49 85.85 105.57 87.34 105.53 89.10 C 105.59 104.15 105.52 119.21 105.56 134.26 C 107.77 134.27 109.98 134.27 112.19 134.26 C 112.20 119.52 112.19 104.79 112.20 90.05 C 112.38 86.30 110.78 82.58 107.94 80.12 C 97.60 70.71 87.20 61.37 76.86 51.96 C 76.82 45.65 76.84 39.34 76.84 33.02 C 79.63 33.40 82.42 33.81 85.20 34.22 C 81.31 26.46 77.42 18.71 73.51 10.96 M 37.57 11.11 C 33.91 18.89 29.86 26.49 26.08 34.21 C 28.84 33.87 31.59 33.52 34.33 33.06 C 34.34 66.80 34.30 100.54 34.35 134.28 C 36.56 134.28 38.76 134.26 40.97 134.26 C 40.98 100.50 40.96 66.75 40.98 32.99 C 43.79 33.39 46.61 33.78 49.43 34.23 C 45.44 26.54 41.90 18.60 37.57 11.11 Z" />
<path fill="#000000" opacity="1.00" d=" M 73.51 10.96 C 77.42 18.71 81.31 26.46 85.20 34.22 C 82.42 33.81 79.63 33.40 76.84 33.02 C 76.84 39.34 76.82 45.65 76.86 51.96 C 87.20 61.37 97.60 70.71 107.94 80.12 C 110.78 82.58 112.38 86.30 112.20 90.05 C 112.19 104.79 112.20 119.52 112.19 134.26 C 109.98 134.27 107.77 134.27 105.56 134.26 C 105.52 119.21 105.59 104.15 105.53 89.10 C 105.57 87.34 104.49 85.85 103.20 84.77 C 94.41 76.84 85.67 68.86 76.86 60.95 C 76.80 85.39 76.86 109.82 76.84 134.26 C 74.62 134.27 72.41 134.27 70.20 134.26 C 70.20 100.53 70.19 66.81 70.21 33.08 C 67.43 33.48 64.65 33.86 61.86 34.21 C 65.71 26.44 69.65 18.73 73.51 10.96 Z" />
<path fill="#000000" opacity="1.00" d=" M 37.57 11.11 C 41.90 18.60 45.44 26.54 49.43 34.23 C 46.61 33.78 43.79 33.39 40.98 32.99 C 40.96 66.75 40.98 100.50 40.97 134.26 C 38.76 134.26 36.56 134.28 34.35 134.28 C 34.30 100.54 34.34 66.80 34.33 33.06 C 31.59 33.52 28.84 33.87 26.08 34.21 C 29.86 26.49 33.91 18.89 37.57 11.11 Z" />
</g>
<g id="normal">
<path fill="#0071bc" opacity="1.00" d=" M 12.00 2.00 C 53.66 2.00 95.31 2.00 136.97 2.00 C 136.97 50.32 136.97 98.64 136.97 146.96 C 95.31 146.96 53.66 146.96 12.00 146.96 C 12.00 98.64 12.00 50.32 12.00 2.00 M 73.51 10.96 C 69.65 18.73 65.71 26.44 61.86 34.21 C 64.65 33.86 67.43 33.48 70.21 33.08 C 70.19 66.81 70.20 100.53 70.20 134.26 C 72.41 134.27 74.62 134.27 76.84 134.26 C 76.86 109.82 76.80 85.39 76.86 60.95 C 85.67 68.86 94.41 76.84 103.20 84.77 C 104.49 85.85 105.57 87.34 105.53 89.10 C 105.59 104.15 105.52 119.21 105.56 134.26 C 107.77 134.27 109.98 134.27 112.19 134.26 C 112.20 119.52 112.19 104.79 112.20 90.05 C 112.38 86.30 110.78 82.58 107.94 80.12 C 97.60 70.71 87.20 61.37 76.86 51.96 C 76.82 45.65 76.84 39.34 76.84 33.02 C 79.63 33.40 82.42 33.81 85.20 34.22 C 81.31 26.46 77.42 18.71 73.51 10.96 M 37.57 11.11 C 33.91 18.89 29.86 26.49 26.08 34.21 C 28.84 33.87 31.59 33.52 34.33 33.06 C 34.34 66.80 34.30 100.54 34.35 134.28 C 36.56 134.28 38.76 134.26 40.97 134.26 C 40.98 100.50 40.96 66.75 40.98 32.99 C 43.79 33.39 46.61 33.78 49.43 34.23 C 45.44 26.54 41.90 18.60 37.57 11.11 Z" />
<path fill="#ffffff" opacity="1.00" d=" M 73.51 10.96 C 77.42 18.71 81.31 26.46 85.20 34.22 C 82.42 33.81 79.63 33.40 76.84 33.02 C 76.84 39.34 76.82 45.65 76.86 51.96 C 87.20 61.37 97.60 70.71 107.94 80.12 C 110.78 82.58 112.38 86.30 112.20 90.05 C 112.19 104.79 112.20 119.52 112.19 134.26 C 109.98 134.27 107.77 134.27 105.56 134.26 C 105.52 119.21 105.59 104.15 105.53 89.10 C 105.57 87.34 104.49 85.85 103.20 84.77 C 94.41 76.84 85.67 68.86 76.86 60.95 C 76.80 85.39 76.86 109.82 76.84 134.26 C 74.62 134.27 72.41 134.27 70.20 134.26 C 70.20 100.53 70.19 66.81 70.21 33.08 C 67.43 33.48 64.65 33.86 61.86 34.21 C 65.71 26.44 69.65 18.73 73.51 10.96 Z" />
<path fill="#ffffff" opacity="1.00" d=" M 37.57 11.11 C 41.90 18.60 45.44 26.54 49.43 34.23 C 46.61 33.78 43.79 33.39 40.98 32.99 C 40.96 66.75 40.98 100.50 40.97 134.26 C 38.76 134.26 36.56 134.28 34.35 134.28 C 34.30 100.54 34.34 66.80 34.33 33.06 C 31.59 33.52 28.84 33.87 26.08 34.21 C 29.86 26.49 33.91 18.89 37.57 11.11 Z" />
</g>
</svg>
