<?xml version="1.0" encoding="UTF-8" ?>
<!DOCTYPE svg PUBLIC "-//W3C//DTD SVG 1.1//EN" "http://www.w3.org/Graphics/SVG/1.1/DTD/svg11.dtd">
<svg width="170pt" height="170pt" viewBox="0 0 170 170" version="1.1" xmlns="http://www.w3.org/2000/svg">
<g id="disabled">
<path fill="#606060" opacity="1.00" d=" M 83.34 12.37 C 85.85 11.31 88.63 12.93 89.75 15.23 C 115.53 59.78 141.34 104.32 167.06 148.91 C 169.71 152.41 166.24 157.49 162.05 156.81 C 111.04 156.85 60.04 156.79 9.03 156.84 C 6.71 156.94 3.90 156.58 2.74 154.23 C 1.49 152.36 2.18 150.09 3.28 148.34 C 28.80 104.20 54.36 60.09 79.86 15.93 C 80.73 14.52 81.64 12.89 83.34 12.37 M 83.71 39.72 C 64.17 73.70 44.45 107.57 24.88 141.53 C 64.97 141.54 105.06 141.53 145.16 141.53 C 125.43 107.30 105.59 73.13 85.84 38.92 C 85.33 37.16 84.02 38.95 83.71 39.72 Z" />
<path fill="#909090" opacity="1.00" d=" M 83.71 39.72 C 84.02 38.95 85.33 37.16 85.84 38.92 C 105.59 73.13 125.43 107.30 145.16 141.53 C 105.06 141.53 64.97 141.54 24.88 141.53 C 44.45 107.57 64.17 73.70 83.71 39.72 M 71.77 77.74 C 68.61 78.51 67.11 81.24 66.08 84.07 C 62.51 88.00 63.19 93.66 61.30 98.34 C 60.67 98.30 59.40 98.21 58.77 98.17 C 59.15 98.55 59.91 99.33 60.29 99.71 C 60.24 101.74 60.21 103.77 60.19 105.79 C 58.54 105.80 56.89 105.80 55.25 105.81 C 52.56 112.24 55.87 118.91 55.40 125.52 C 54.50 125.52 52.71 125.50 51.81 125.49 C 51.01 124.89 50.20 124.29 49.39 123.72 C 49.30 125.59 49.29 127.48 49.26 129.36 C 51.12 128.39 53.05 127.42 55.21 127.50 C 55.52 129.33 55.63 131.18 55.94 133.01 C 56.40 135.50 59.55 136.84 61.76 135.77 C 64.14 134.78 64.62 131.85 64.59 129.56 C 66.22 132.87 68.98 136.15 72.99 136.20 C 77.71 136.59 81.47 132.72 82.41 128.35 C 83.29 128.37 84.18 128.41 85.06 128.45 C 85.97 133.38 90.91 137.37 96.00 135.96 C 99.54 135.35 101.10 131.90 103.38 129.57 C 102.89 132.81 105.16 136.83 108.89 135.79 C 112.69 134.92 112.16 130.39 112.59 127.42 C 113.45 127.45 115.16 127.51 116.02 127.53 C 116.60 128.46 117.45 129.00 118.56 129.15 C 118.59 127.30 118.59 125.45 118.57 123.61 C 117.64 124.05 116.78 124.60 116.00 125.26 C 114.71 125.30 113.42 125.33 112.14 125.34 C 112.14 120.14 112.14 114.95 112.13 109.75 C 110.98 109.74 109.82 109.73 108.67 109.72 C 108.68 108.13 108.70 106.55 108.74 104.97 C 110.85 103.35 109.87 100.47 110.07 98.20 C 104.47 98.20 98.87 98.20 93.27 98.20 C 93.27 100.74 93.27 103.27 93.26 105.80 C 90.80 105.80 88.34 105.80 85.88 105.80 C 85.84 104.25 85.91 102.69 85.66 101.15 C 84.82 98.05 80.47 96.95 78.16 99.13 C 76.11 100.72 76.99 103.63 76.77 105.87 C 73.04 105.86 69.30 105.87 65.56 105.87 C 65.68 103.30 64.82 100.28 66.77 98.20 C 65.61 98.26 64.45 98.31 63.29 98.35 C 64.32 96.35 65.51 94.43 66.98 92.72 C 70.23 93.67 73.14 92.11 74.41 89.07 C 78.35 91.45 83.49 91.80 87.14 88.66 C 90.19 89.66 93.94 89.75 96.21 87.10 C 99.27 83.90 97.76 78.62 94.43 76.21 C 94.81 74.21 95.01 71.31 92.52 70.63 C 88.01 70.17 83.64 67.32 79.05 68.92 C 75.05 70.08 72.98 74.06 71.77 77.74 Z" />
<path fill="#909090" opacity="1.00" d=" M 95.83 104.54 C 98.94 104.53 102.06 104.53 105.17 104.54 C 105.18 106.13 105.18 107.73 105.17 109.33 C 102.06 109.34 98.94 109.34 95.82 109.33 C 95.82 107.73 95.82 106.13 95.83 104.54 Z" />
<path fill="#000000" opacity="1.00" d=" M 71.77 77.74 C 72.98 74.06 75.05 70.08 79.05 68.92 C 83.64 67.32 88.01 70.17 92.52 70.63 C 95.01 71.31 94.81 74.21 94.43 76.21 C 97.76 78.62 99.27 83.90 96.21 87.10 C 93.94 89.75 90.19 89.66 87.14 88.66 C 83.49 91.80 78.35 91.45 74.41 89.07 C 73.14 92.11 70.23 93.67 66.98 92.72 C 65.51 94.43 64.32 96.35 63.29 98.35 C 64.45 98.31 65.61 98.26 66.77 98.20 C 64.82 100.28 65.68 103.30 65.56 105.87 C 69.30 105.87 73.04 105.86 76.77 105.87 C 76.99 103.63 76.11 100.72 78.16 99.13 C 80.47 96.95 84.82 98.05 85.66 101.15 C 85.91 102.69 85.84 104.25 85.88 105.80 C 88.34 105.80 90.80 105.80 93.26 105.80 C 93.27 103.27 93.27 100.74 93.27 98.20 C 98.87 98.20 104.47 98.20 110.07 98.20 C 109.87 100.47 110.85 103.35 108.74 104.97 C 108.70 106.55 108.68 108.13 108.67 109.72 C 109.82 109.73 110.98 109.74 112.13 109.75 C 112.14 114.95 112.14 120.14 112.14 125.34 C 113.42 125.33 114.71 125.30 116.00 125.26 C 116.78 124.60 117.64 124.05 118.57 123.61 C 118.59 125.45 118.59 127.30 118.56 129.15 C 117.45 129.00 116.60 128.46 116.02 127.53 C 115.16 127.51 113.45 127.45 112.59 127.42 C 112.16 130.39 112.69 134.92 108.89 135.79 C 105.16 136.83 102.89 132.81 103.38 129.57 C 101.10 131.90 99.54 135.35 96.00 135.96 C 90.91 137.37 85.97 133.38 85.06 128.45 C 84.18 128.41 83.29 128.37 82.41 128.35 C 81.47 132.72 77.71 136.59 72.99 136.20 C 68.98 136.15 66.22 132.87 64.59 129.56 C 64.62 131.85 64.14 134.78 61.76 135.77 C 59.55 136.84 56.40 135.50 55.94 133.01 C 55.63 131.18 55.52 129.33 55.21 127.50 C 53.05 127.42 51.12 128.39 49.26 129.36 C 49.29 127.48 49.30 125.59 49.39 123.72 C 50.20 124.29 51.01 124.89 51.81 125.49 C 52.71 125.50 54.50 125.52 55.40 125.52 C 55.87 118.91 52.56 112.24 55.25 105.81 C 56.89 105.80 58.54 105.80 60.19 105.79 C 60.21 103.77 60.24 101.74 60.29 99.71 C 59.91 99.33 59.15 98.55 58.77 98.17 C 59.40 98.21 60.67 98.30 61.30 98.34 C 63.19 93.66 62.51 88.00 66.08 84.07 C 67.11 81.24 68.61 78.51 71.77 77.74 M 95.83 104.54 C 95.82 106.13 95.82 107.73 95.82 109.33 C 98.94 109.34 102.06 109.34 105.17 109.33 C 105.18 107.73 105.18 106.13 105.17 104.54 C 102.06 104.53 98.94 104.53 95.83 104.54 Z" />
</g>
<g id="normal">
<path fill="#cc0000" opacity="1.00" d=" M 83.34 12.37 C 85.85 11.31 88.63 12.93 89.75 15.23 C 115.53 59.78 141.34 104.32 167.06 148.91 C 169.71 152.41 166.24 157.49 162.05 156.81 C 111.04 156.85 60.04 156.79 9.03 156.84 C 6.71 156.94 3.90 156.58 2.74 154.23 C 1.49 152.36 2.18 150.09 3.28 148.34 C 28.80 104.20 54.36 60.09 79.86 15.93 C 80.73 14.52 81.64 12.89 83.34 12.37 M 83.71 39.72 C 64.17 73.70 44.45 107.57 24.88 141.53 C 64.97 141.54 105.06 141.53 145.16 141.53 C 125.43 107.30 105.59 73.13 85.84 38.92 C 85.33 37.16 84.02 38.95 83.71 39.72 Z" />
<path fill="#ffc500" opacity="1.00" d=" M 83.71 39.72 C 84.02 38.95 85.33 37.16 85.84 38.92 C 105.59 73.13 125.43 107.30 145.16 141.53 C 105.06 141.53 64.97 141.54 24.88 141.53 C 44.45 107.57 64.17 73.70 83.71 39.72 M 71.77 77.74 C 68.61 78.51 67.11 81.24 66.08 84.07 C 62.51 88.00 63.19 93.66 61.30 98.34 C 60.67 98.30 59.40 98.21 58.77 98.17 C 59.15 98.55 59.91 99.33 60.29 99.71 C 60.24 101.74 60.21 103.77 60.19 105.79 C 58.54 105.80 56.89 105.80 55.25 105.81 C 52.56 112.24 55.87 118.91 55.40 125.52 C 54.50 125.52 52.71 125.50 51.81 125.49 C 51.01 124.89 50.20 124.29 49.39 123.72 C 49.30 125.59 49.29 127.48 49.26 129.36 C 51.12 128.39 53.05 127.42 55.21 127.50 C 55.52 129.33 55.63 131.18 55.94 133.01 C 56.40 135.50 59.55 136.84 61.76 135.77 C 64.14 134.78 64.62 131.85 64.59 129.56 C 66.22 132.87 68.98 136.15 72.99 136.20 C 77.71 136.59 81.47 132.72 82.41 128.35 C 83.29 128.37 84.18 128.41 85.06 128.45 C 85.97 133.38 90.91 137.37 96.00 135.96 C 99.54 135.35 101.10 131.90 103.38 129.57 C 102.89 132.81 105.16 136.83 108.89 135.79 C 112.69 134.92 112.16 130.39 112.59 127.42 C 113.45 127.45 115.16 127.51 116.02 127.53 C 116.60 128.46 117.45 129.00 118.56 129.15 C 118.59 127.30 118.59 125.45 118.57 123.61 C 117.64 124.05 116.78 124.60 116.00 125.26 C 114.71 125.30 113.42 125.33 112.14 125.34 C 112.14 120.14 112.14 114.95 112.13 109.75 C 110.98 109.74 109.82 109.73 108.67 109.72 C 108.68 108.13 108.70 106.55 108.74 104.97 C 110.85 103.35 109.87 100.47 110.07 98.20 C 104.47 98.20 98.87 98.20 93.27 98.20 C 93.27 100.74 93.27 103.27 93.26 105.80 C 90.80 105.80 88.34 105.80 85.88 105.80 C 85.84 104.25 85.91 102.69 85.66 101.15 C 84.82 98.05 80.47 96.95 78.16 99.13 C 76.11 100.72 76.99 103.63 76.77 105.87 C 73.04 105.86 69.30 105.87 65.56 105.87 C 65.68 103.30 64.82 100.28 66.77 98.20 C 65.61 98.26 64.45 98.31 63.29 98.35 C 64.32 96.35 65.51 94.43 66.98 92.72 C 70.23 93.67 73.14 92.11 74.41 89.07 C 78.35 91.45 83.49 91.80 87.14 88.66 C 90.19 89.66 93.94 89.75 96.21 87.10 C 99.27 83.90 97.76 78.62 94.43 76.21 C 94.81 74.21 95.01 71.31 92.52 70.63 C 88.01 70.17 83.64 67.32 79.05 68.92 C 75.05 70.08 72.98 74.06 71.77 77.74 Z" />
<path fill="#ffc500" opacity="1.00" d=" M 95.83 104.54 C 98.94 104.53 102.06 104.53 105.17 104.54 C 105.18 106.13 105.18 107.73 105.17 109.33 C 102.06 109.34 98.94 109.34 95.82 109.33 C 95.82 107.73 95.82 106.13 95.83 104.54 Z" />
<path fill="#000000" opacity="1.00" d=" M 71.77 77.74 C 72.98 74.06 75.05 70.08 79.05 68.92 C 83.64 67.32 88.01 70.17 92.52 70.63 C 95.01 71.31 94.81 74.21 94.43 76.21 C 97.76 78.62 99.27 83.90 96.21 87.10 C 93.94 89.75 90.19 89.66 87.14 88.66 C 83.49 91.80 78.35 91.45 74.41 89.07 C 73.14 92.11 70.23 93.67 66.98 92.72 C 65.51 94.43 64.32 96.35 63.29 98.35 C 64.45 98.31 65.61 98.26 66.77 98.20 C 64.82 100.28 65.68 103.30 65.56 105.87 C 69.30 105.87 73.04 105.86 76.77 105.87 C 76.99 103.63 76.11 100.72 78.16 99.13 C 80.47 96.95 84.82 98.05 85.66 101.15 C 85.91 102.69 85.84 104.25 85.88 105.80 C 88.34 105.80 90.80 105.80 93.26 105.80 C 93.27 103.27 93.27 100.74 93.27 98.20 C 98.87 98.20 104.47 98.20 110.07 98.20 C 109.87 100.47 110.85 103.35 108.74 104.97 C 108.70 106.55 108.68 108.13 108.67 109.72 C 109.82 109.73 110.98 109.74 112.13 109.75 C 112.14 114.95 112.14 120.14 112.14 125.34 C 113.42 125.33 114.71 125.30 116.00 125.26 C 116.78 124.60 117.64 124.05 118.57 123.61 C 118.59 125.45 118.59 127.30 118.56 129.15 C 117.45 129.00 116.60 128.46 116.02 127.53 C 115.16 127.51 113.45 127.45 112.59 127.42 C 112.16 130.39 112.69 134.92 108.89 135.79 C 105.16 136.83 102.89 132.81 103.38 129.57 C 101.10 131.90 99.54 135.35 96.00 135.96 C 90.91 137.37 85.97 133.38 85.06 128.45 C 84.18 128.41 83.29 128.37 82.41 128.35 C 81.47 132.72 77.71 136.59 72.99 136.20 C 68.98 136.15 66.22 132.87 64.59 129.56 C 64.62 131.85 64.14 134.78 61.76 135.77 C 59.55 136.84 56.40 135.50 55.94 133.01 C 55.63 131.18 55.52 129.33 55.21 127.50 C 53.05 127.42 51.12 128.39 49.26 129.36 C 49.29 127.48 49.30 125.59 49.39 123.72 C 50.20 124.29 51.01 124.89 51.81 125.49 C 52.71 125.50 54.50 125.52 55.40 125.52 C 55.87 118.91 52.56 112.24 55.25 105.81 C 56.89 105.80 58.54 105.80 60.19 105.79 C 60.21 103.77 60.24 101.74 60.29 99.71 C 59.91 99.33 59.15 98.55 58.77 98.17 C 59.40 98.21 60.67 98.30 61.30 98.34 C 63.19 93.66 62.51 88.00 66.08 84.07 C 67.11 81.24 68.61 78.51 71.77 77.74 M 95.83 104.54 C 95.82 106.13 95.82 107.73 95.82 109.33 C 98.94 109.34 102.06 109.34 105.17 109.33 C 105.18 107.73 105.18 106.13 105.17 104.54 C 102.06 104.53 98.94 104.53 95.83 104.54 Z" />
</g>
</svg>
