<?xml version="1.0" encoding="UTF-8" ?>
<!DOCTYPE svg PUBLIC "-//W3C//DTD SVG 1.1//EN" "http://www.w3.org/Graphics/SVG/1.1/DTD/svg11.dtd">
<svg width="130pt" height="130pt" viewBox="0 0 130 130" version="1.1" xmlns="http://www.w3.org/2000/svg">
<g id="disabled">
<path fill="#ffffff" opacity="1.00" d=" M 62.65 12.37 C 63.68 10.78 64.69 8.42 67.00 8.92 C 68.42 9.48 69.06 10.99 69.85 12.18 C 89.42 46.26 109.17 80.23 128.73 114.31 C 130.09 116.27 130.65 119.86 127.75 120.73 C 125.86 120.94 123.96 121.00 122.06 121.01 C 84.34 120.99 46.63 121.01 8.92 121.00 C 7.05 121.14 4.94 120.63 4.17 118.72 C 2.02 115.30 5.38 112.04 6.73 109.05 C 20.53 85.36 34.13 61.55 47.98 37.90 C 49.12 36.29 50.11 34.59 50.95 32.81 C 54.70 25.91 58.80 19.21 62.65 12.37 M 66.24 14.11 C 64.07 16.14 62.92 18.95 61.39 21.43 C 43.53 52.23 25.63 83.02 7.83 113.85 C 6.84 115.14 7.10 116.66 7.64 118.06 C 46.12 117.91 84.60 118.06 123.08 117.99 C 123.75 117.92 125.10 117.78 125.77 117.71 C 126.58 116.10 125.57 114.56 124.83 113.16 C 106.26 81.10 87.70 49.03 69.18 16.94 C 68.39 15.84 67.83 14.18 66.24 14.11 Z" />
<path fill="#ffffff" opacity="1.00" d=" M 63.83 38.87 C 64.70 37.46 65.72 36.16 66.82 34.93 C 79.11 55.48 90.81 76.38 102.87 97.07 C 104.86 100.71 107.33 104.11 108.78 108.03 C 107.58 109.34 105.61 108.84 104.04 109.02 C 78.69 108.96 53.33 109.03 27.97 108.99 C 26.66 109.06 25.45 108.76 24.33 108.08 C 25.62 104.41 27.91 101.22 29.80 97.85 C 41.14 78.19 52.57 58.57 63.83 38.87 M 59.06 69.96 C 57.34 72.14 54.49 72.41 52.04 73.28 C 52.39 74.82 52.85 76.33 53.33 77.84 C 55.41 77.37 57.48 76.87 59.55 76.36 C 61.32 83.39 63.06 90.42 64.88 97.44 C 62.87 97.97 60.86 98.49 58.86 99.04 C 59.03 100.36 59.23 101.69 59.45 103.01 C 53.30 102.99 47.15 103.01 41.00 103.00 C 41.00 104.33 41.00 105.67 41.00 107.00 C 58.67 107.00 76.33 107.00 94.00 107.00 C 94.00 105.67 94.00 104.33 94.00 103.00 C 86.24 102.86 78.45 103.34 70.70 102.66 C 76.76 102.68 80.42 97.61 84.77 94.23 C 82.72 86.11 80.67 77.99 78.59 69.88 C 75.01 69.11 71.46 68.14 67.83 67.55 C 64.87 68.09 61.77 68.58 59.06 69.96 Z" />
<path fill="#ffffff" opacity="1.00" d=" M 63.26 71.36 C 67.12 68.90 68.13 74.28 67.93 77.04 C 66.61 77.85 63.84 78.97 63.21 76.81 C 62.90 75.17 61.23 72.39 63.26 71.36 Z" />
<path fill="#ffffff" opacity="1.00" d=" M 70.72 72.75 C 73.02 72.62 75.31 72.57 77.61 72.55 C 79.30 79.09 80.90 85.65 82.59 92.19 C 80.53 93.23 78.49 94.28 76.43 95.32 C 74.52 87.79 72.65 80.27 70.72 72.75 Z" />
<path fill="#ffffff" opacity="1.00" d=" M 68.15 94.20 C 69.24 93.60 70.45 93.24 71.69 93.23 C 73.43 94.68 73.25 97.23 73.92 99.23 C 72.58 99.88 71.19 100.40 69.74 100.80 C 68.86 98.74 67.62 96.52 68.15 94.20 Z" />
<path fill="#ffffff" opacity="1.00" d=" M 64.40 102.17 C 67.09 100.30 64.80 105.52 64.40 102.17 Z" />
<path fill="#606060" opacity="1.00" d=" M 66.24 14.11 C 67.83 14.18 68.39 15.84 69.18 16.94 C 87.70 49.03 106.26 81.10 124.83 113.16 C 125.57 114.56 126.58 116.10 125.77 117.71 C 125.10 117.78 123.75 117.92 123.08 117.99 C 84.60 118.06 46.12 117.91 7.64 118.06 C 7.10 116.66 6.84 115.14 7.83 113.85 C 25.63 83.02 43.53 52.23 61.39 21.43 C 62.92 18.95 64.07 16.14 66.24 14.11 M 63.83 38.87 C 52.57 58.57 41.14 78.19 29.80 97.85 C 27.91 101.22 25.62 104.41 24.33 108.08 C 25.45 108.76 26.66 109.06 27.97 108.99 C 53.33 109.03 78.69 108.96 104.04 109.02 C 105.61 108.84 107.58 109.34 108.78 108.03 C 107.33 104.11 104.86 100.71 102.87 97.07 C 90.81 76.38 79.11 55.48 66.82 34.93 C 65.72 36.16 64.70 37.46 63.83 38.87 Z" />
<path fill="#000000" opacity="1.00" d=" M 59.06 69.96 C 61.77 68.58 64.87 68.09 67.83 67.55 C 71.46 68.14 75.01 69.11 78.59 69.88 C 80.67 77.99 82.72 86.11 84.77 94.23 C 80.42 97.61 76.76 102.68 70.70 102.66 C 78.45 103.34 86.24 102.86 94.00 103.00 C 94.00 104.33 94.00 105.67 94.00 107.00 C 76.33 107.00 58.67 107.00 41.00 107.00 C 41.00 105.67 41.00 104.33 41.00 103.00 C 47.15 103.01 53.30 102.99 59.45 103.01 C 59.23 101.69 59.03 100.36 58.86 99.04 C 60.86 98.49 62.87 97.97 64.88 97.44 C 63.06 90.42 61.32 83.39 59.55 76.36 C 57.48 76.87 55.41 77.37 53.33 77.84 C 52.85 76.33 52.39 74.82 52.04 73.28 C 54.49 72.41 57.34 72.14 59.06 69.96 M 63.26 71.36 C 61.23 72.39 62.90 75.17 63.21 76.81 C 63.84 78.97 66.61 77.85 67.93 77.04 C 68.13 74.28 67.12 68.90 63.26 71.36 M 70.72 72.75 C 72.65 80.27 74.52 87.79 76.43 95.32 C 78.49 94.28 80.53 93.23 82.59 92.19 C 80.90 85.65 79.30 79.09 77.61 72.55 C 75.31 72.57 73.02 72.62 70.72 72.75 M 68.15 94.20 C 67.62 96.52 68.86 98.74 69.74 100.80 C 71.19 100.40 72.58 99.88 73.92 99.23 C 73.25 97.23 73.43 94.68 71.69 93.23 C 70.45 93.24 69.24 93.60 68.15 94.20 M 64.40 102.17 C 64.80 105.52 67.09 100.30 64.40 102.17 Z" />
</g>
<g id="normal">
<path fill="#ffffff" opacity="1.00" d=" M 62.65 12.37 C 63.68 10.78 64.69 8.42 67.00 8.92 C 68.42 9.48 69.06 10.99 69.85 12.18 C 89.42 46.26 109.17 80.23 128.73 114.31 C 130.09 116.27 130.65 119.86 127.75 120.73 C 125.86 120.94 123.96 121.00 122.06 121.01 C 84.34 120.99 46.63 121.01 8.92 121.00 C 7.05 121.14 4.94 120.63 4.17 118.72 C 2.02 115.30 5.38 112.04 6.73 109.05 C 20.53 85.36 34.13 61.55 47.98 37.90 C 49.12 36.29 50.11 34.59 50.95 32.81 C 54.70 25.91 58.80 19.21 62.65 12.37 M 66.24 14.11 C 64.07 16.14 62.92 18.95 61.39 21.43 C 43.53 52.23 25.63 83.02 7.83 113.85 C 6.84 115.14 7.10 116.66 7.64 118.06 C 46.12 117.91 84.60 118.06 123.08 117.99 C 123.75 117.92 125.10 117.78 125.77 117.71 C 126.58 116.10 125.57 114.56 124.83 113.16 C 106.26 81.10 87.70 49.03 69.18 16.94 C 68.39 15.84 67.83 14.18 66.24 14.11 Z" />
<path fill="#ffffff" opacity="1.00" d=" M 63.83 38.87 C 64.70 37.46 65.72 36.16 66.82 34.93 C 79.11 55.48 90.81 76.38 102.87 97.07 C 104.86 100.71 107.33 104.11 108.78 108.03 C 107.58 109.34 105.61 108.84 104.04 109.02 C 78.69 108.96 53.33 109.03 27.97 108.99 C 26.66 109.06 25.45 108.76 24.33 108.08 C 25.62 104.41 27.91 101.22 29.80 97.85 C 41.14 78.19 52.57 58.57 63.83 38.87 M 59.06 69.96 C 57.34 72.14 54.49 72.41 52.04 73.28 C 52.39 74.82 52.85 76.33 53.33 77.84 C 55.41 77.37 57.48 76.87 59.55 76.36 C 61.32 83.39 63.06 90.42 64.88 97.44 C 62.87 97.97 60.86 98.49 58.86 99.04 C 59.03 100.36 59.23 101.69 59.45 103.01 C 53.30 102.99 47.15 103.01 41.00 103.00 C 41.00 104.33 41.00 105.67 41.00 107.00 C 58.67 107.00 76.33 107.00 94.00 107.00 C 94.00 105.67 94.00 104.33 94.00 103.00 C 86.24 102.86 78.45 103.34 70.70 102.66 C 76.76 102.68 80.42 97.61 84.77 94.23 C 82.72 86.11 80.67 77.99 78.59 69.88 C 75.01 69.11 71.46 68.14 67.83 67.55 C 64.87 68.09 61.77 68.58 59.06 69.96 Z" />
<path fill="#ffffff" opacity="1.00" d=" M 63.26 71.36 C 67.12 68.90 68.13 74.28 67.93 77.04 C 66.61 77.85 63.84 78.97 63.21 76.81 C 62.90 75.17 61.23 72.39 63.26 71.36 Z" />
<path fill="#ffffff" opacity="1.00" d=" M 70.72 72.75 C 73.02 72.62 75.31 72.57 77.61 72.55 C 79.30 79.09 80.90 85.65 82.59 92.19 C 80.53 93.23 78.49 94.28 76.43 95.32 C 74.52 87.79 72.65 80.27 70.72 72.75 Z" />
<path fill="#ffffff" opacity="1.00" d=" M 68.15 94.20 C 69.24 93.60 70.45 93.24 71.69 93.23 C 73.43 94.68 73.25 97.23 73.92 99.23 C 72.58 99.88 71.19 100.40 69.74 100.80 C 68.86 98.74 67.62 96.52 68.15 94.20 Z" />
<path fill="#ffffff" opacity="1.00" d=" M 64.40 102.17 C 67.09 100.30 64.80 105.52 64.40 102.17 Z" />
<path fill="#de2e2e" opacity="1.00" d=" M 66.24 14.11 C 67.83 14.18 68.39 15.84 69.18 16.94 C 87.70 49.03 106.26 81.10 124.83 113.16 C 125.57 114.56 126.58 116.10 125.77 117.71 C 125.10 117.78 123.75 117.92 123.08 117.99 C 84.60 118.06 46.12 117.91 7.64 118.06 C 7.10 116.66 6.84 115.14 7.83 113.85 C 25.63 83.02 43.53 52.23 61.39 21.43 C 62.92 18.95 64.07 16.14 66.24 14.11 M 63.83 38.87 C 52.57 58.57 41.14 78.19 29.80 97.85 C 27.91 101.22 25.62 104.41 24.33 108.08 C 25.45 108.76 26.66 109.06 27.97 108.99 C 53.33 109.03 78.69 108.96 104.04 109.02 C 105.61 108.84 107.58 109.34 108.78 108.03 C 107.33 104.11 104.86 100.71 102.87 97.07 C 90.81 76.38 79.11 55.48 66.82 34.93 C 65.72 36.16 64.70 37.46 63.83 38.87 Z" />
<path fill="#000000" opacity="1.00" d=" M 59.06 69.96 C 61.77 68.58 64.87 68.09 67.83 67.55 C 71.46 68.14 75.01 69.11 78.59 69.88 C 80.67 77.99 82.72 86.11 84.77 94.23 C 80.42 97.61 76.76 102.68 70.70 102.66 C 78.45 103.34 86.24 102.86 94.00 103.00 C 94.00 104.33 94.00 105.67 94.00 107.00 C 76.33 107.00 58.67 107.00 41.00 107.00 C 41.00 105.67 41.00 104.33 41.00 103.00 C 47.15 103.01 53.30 102.99 59.45 103.01 C 59.23 101.69 59.03 100.36 58.86 99.04 C 60.86 98.49 62.87 97.97 64.88 97.44 C 63.06 90.42 61.32 83.39 59.55 76.36 C 57.48 76.87 55.41 77.37 53.33 77.84 C 52.85 76.33 52.39 74.82 52.04 73.28 C 54.49 72.41 57.34 72.14 59.06 69.96 M 63.26 71.36 C 61.23 72.39 62.90 75.17 63.21 76.81 C 63.84 78.97 66.61 77.85 67.93 77.04 C 68.13 74.28 67.12 68.90 63.26 71.36 M 70.72 72.75 C 72.65 80.27 74.52 87.79 76.43 95.32 C 78.49 94.28 80.53 93.23 82.59 92.19 C 80.90 85.65 79.30 79.09 77.61 72.55 C 75.31 72.57 73.02 72.62 70.72 72.75 M 68.15 94.20 C 67.62 96.52 68.86 98.74 69.74 100.80 C 71.19 100.40 72.58 99.88 73.92 99.23 C 73.25 97.23 73.43 94.68 71.69 93.23 C 70.45 93.24 69.24 93.60 68.15 94.20 M 64.40 102.17 C 64.80 105.52 67.09 100.30 64.40 102.17 Z" />
</g>
</svg>
