<?xml version="1.0" encoding="UTF-8" ?>
<!DOCTYPE svg PUBLIC "-//W3C//DTD SVG 1.1//EN" "http://www.w3.org/Graphics/SVG/1.1/DTD/svg11.dtd">
<svg width="130pt" height="130pt" viewBox="0 0 130 130" version="1.1" xmlns="http://www.w3.org/2000/svg">
<g id="disabled">
<path fill="#ffffff" opacity="1.00" d=" M 64.06 10.24 C 65.23 7.97 68.37 8.87 69.13 11.01 C 88.88 45.16 108.58 79.35 128.32 113.52 C 129.76 115.62 131.07 119.61 127.78 120.72 C 125.51 120.98 123.23 121.01 120.95 121.00 C 83.60 120.99 46.25 121.02 8.90 120.99 C 7.07 121.14 5.02 120.64 4.23 118.80 C 2.00 115.39 5.34 112.06 6.71 109.07 C 10.79 102.24 14.57 95.23 18.77 88.47 C 19.89 86.90 20.85 85.22 21.65 83.47 C 24.22 78.74 26.90 74.06 29.76 69.49 C 30.89 67.93 31.83 66.24 32.63 64.49 C 35.21 59.74 37.89 55.05 40.77 50.48 C 41.62 49.30 42.33 48.03 42.93 46.71 C 45.80 41.28 49.04 36.05 52.07 30.71 C 53.17 28.99 54.17 27.21 55.14 25.42 C 58.13 20.37 60.86 15.15 64.06 10.24 M 65.67 14.57 C 63.94 16.64 62.80 19.10 61.41 21.40 C 43.54 52.20 25.66 83.00 7.84 113.82 C 6.78 115.15 7.02 116.66 7.74 118.07 C 44.47 117.92 81.21 118.03 117.95 118.01 C 120.52 117.87 123.24 118.42 125.71 117.60 C 126.74 116.07 125.50 114.56 124.84 113.19 C 106.13 80.89 87.46 48.56 68.75 16.25 C 68.03 15.21 67.12 13.32 65.67 14.57 Z" />
<path fill="#ffffff" opacity="1.00" d=" M 61.72 42.61 C 63.29 39.98 64.47 37.00 66.93 35.03 C 80.22 57.49 93.01 80.24 106.20 102.77 C 107.18 104.44 108.15 106.14 108.74 108.00 C 107.64 109.45 105.53 108.79 103.97 109.02 C 80.67 108.97 57.37 109.02 34.07 109.00 C 30.75 108.92 27.33 109.38 24.14 108.22 C 24.87 106.64 25.62 105.07 26.47 103.56 C 38.26 83.27 49.98 62.93 61.72 42.61 M 67.44 51.27 C 63.76 51.94 64.88 56.34 65.93 58.80 C 63.80 59.29 61.13 58.75 59.49 60.48 C 57.66 62.43 55.92 64.52 54.60 66.86 C 53.23 70.20 52.67 73.80 51.59 77.24 C 52.68 78.14 53.89 78.88 55.30 79.15 C 55.38 76.89 55.25 74.62 55.46 72.37 C 55.72 70.05 57.85 68.68 59.43 67.25 C 60.07 75.85 56.36 84.30 50.44 90.43 C 48.90 92.03 47.47 94.14 45.00 94.21 L 45.00 94.71 C 47.81 95.36 49.00 98.32 50.82 100.27 C 51.35 100.35 52.42 100.53 52.95 100.62 C 52.18 98.83 51.36 97.06 50.84 95.18 C 52.89 95.04 54.94 95.00 57.00 94.98 L 57.00 94.00 C 55.62 94.00 54.23 94.00 52.85 94.00 C 57.33 90.34 60.47 85.50 63.36 80.57 C 66.69 84.39 68.98 88.98 71.07 93.56 C 70.73 93.84 70.04 94.39 69.70 94.67 C 73.28 95.24 72.43 99.99 73.83 102.56 C 76.44 101.37 79.45 100.69 81.47 98.52 C 79.46 98.48 77.45 98.56 75.44 98.57 C 75.43 97.19 75.48 95.81 75.68 94.44 C 74.54 91.94 74.66 89.09 73.59 86.57 C 72.41 83.50 70.09 80.98 69.14 77.82 C 68.62 74.77 69.26 71.68 69.35 68.63 C 72.55 72.20 75.80 76.79 80.99 77.25 C 82.74 77.45 83.41 76.02 84.01 74.70 C 79.78 73.79 75.16 71.47 73.97 66.95 C 73.18 64.21 71.38 62.01 69.67 59.80 C 70.09 57.94 72.61 57.07 72.41 54.97 C 72.58 52.37 69.94 50.13 67.44 51.27 M 39.06 94.71 C 40.39 95.15 43.32 95.73 43.94 94.30 C 42.62 93.84 39.66 93.27 39.06 94.71 M 58.07 94.29 C 58.51 95.59 62.47 95.58 62.93 94.29 C 61.45 93.67 59.55 93.68 58.07 94.29 M 64.07 94.72 C 65.39 95.14 68.36 95.74 68.92 94.29 C 67.62 93.85 64.60 93.25 64.07 94.72 M 77.07 94.29 C 77.67 95.73 80.62 95.16 81.93 94.71 C 81.33 93.27 78.38 93.84 77.07 94.29 M 83.07 94.70 C 84.53 95.34 86.43 95.31 87.92 94.72 C 87.50 93.40 83.57 93.42 83.07 94.70 M 89.08 94.29 C 89.62 95.74 92.60 95.15 93.90 94.72 C 93.38 93.25 90.37 93.84 89.08 94.29 M 34.00 105.00 C 34.00 105.50 34.00 106.50 34.00 107.00 C 35.67 107.00 37.33 107.00 39.00 107.00 C 39.00 106.50 39.00 105.50 39.00 105.00 C 37.33 105.00 35.67 105.00 34.00 105.00 M 40.00 105.00 C 40.00 105.50 40.00 106.50 40.00 107.00 C 41.67 107.00 43.33 107.00 45.00 107.00 C 45.00 106.50 45.00 105.50 45.00 105.00 C 43.33 105.00 41.67 105.00 40.00 105.00 M 46.00 105.00 C 46.00 105.50 46.00 106.50 46.00 107.00 C 47.67 107.00 49.33 107.00 51.00 107.00 C 51.00 106.50 51.00 105.50 51.00 105.00 C 49.33 105.00 47.67 105.00 46.00 105.00 M 52.00 105.00 C 52.00 105.50 52.00 106.50 52.00 107.00 C 53.67 107.00 55.33 107.00 57.00 107.00 C 57.00 106.50 57.00 105.50 57.00 105.00 C 55.33 105.00 53.66 105.00 52.00 105.00 M 58.00 105.00 C 58.00 105.50 58.00 106.50 58.00 107.00 C 59.67 107.00 61.33 107.00 63.00 107.00 C 63.00 106.50 63.00 105.50 63.00 105.00 C 61.33 105.00 59.67 105.00 58.00 105.00 M 64.00 105.00 C 64.00 105.50 64.00 106.50 64.00 107.00 C 65.67 107.00 67.33 107.00 69.00 107.00 C 69.00 106.50 69.00 105.50 69.00 105.00 C 67.33 105.00 65.67 105.00 64.00 105.00 M 70.00 105.00 C 70.00 105.50 70.00 106.50 70.00 107.00 C 71.67 107.00 73.33 107.00 75.00 107.00 C 75.00 106.50 75.00 105.50 75.00 105.00 C 73.33 105.00 71.67 105.00 70.00 105.00 M 76.00 105.00 C 76.00 105.50 76.00 106.50 76.00 107.00 C 77.67 107.00 79.33 107.00 81.00 107.00 C 81.00 106.50 81.00 105.50 81.00 105.00 C 79.33 105.00 77.67 105.00 76.00 105.00 M 82.00 105.00 C 82.00 105.50 82.00 106.50 82.00 107.00 C 83.67 107.00 85.33 107.00 87.00 107.00 C 87.00 106.50 87.00 105.50 87.00 105.00 C 85.33 105.00 83.67 105.00 82.00 105.00 M 88.00 105.00 C 88.00 105.50 88.00 106.50 88.00 107.00 C 89.67 107.00 91.33 107.00 93.00 107.00 C 93.00 106.50 93.00 105.50 93.00 105.00 C 91.33 105.00 89.66 105.00 88.00 105.00 M 94.00 105.00 C 94.00 105.50 94.00 106.50 94.00 107.00 C 95.67 107.00 97.33 107.00 99.00 107.00 C 99.00 106.50 99.00 105.50 99.00 105.00 C 97.33 105.00 95.67 105.00 94.00 105.00 Z" />
<path fill="#606060" opacity="1.00" d=" M 65.67 14.57 C 67.12 13.32 68.03 15.21 68.75 16.25 C 87.46 48.56 106.13 80.89 124.84 113.19 C 125.50 114.56 126.74 116.07 125.71 117.60 C 123.24 118.42 120.52 117.87 117.95 118.01 C 81.21 118.03 44.47 117.92 7.74 118.07 C 7.02 116.66 6.78 115.15 7.84 113.82 C 25.66 83.00 43.54 52.20 61.41 21.40 C 62.80 19.10 63.94 16.64 65.67 14.57 M 61.72 42.61 C 49.98 62.93 38.26 83.27 26.47 103.56 C 25.62 105.07 24.87 106.64 24.14 108.22 C 27.33 109.38 30.75 108.92 34.07 109.00 C 57.37 109.02 80.67 108.97 103.97 109.02 C 105.53 108.79 107.64 109.45 108.74 108.00 C 108.15 106.14 107.18 104.44 106.20 102.77 C 93.01 80.24 80.22 57.49 66.93 35.03 C 64.47 37.00 63.29 39.98 61.72 42.61 Z" />
<path fill="#000000" opacity="1.00" d=" M 67.44 51.27 C 69.94 50.13 72.58 52.37 72.41 54.97 C 72.61 57.07 70.09 57.94 69.67 59.80 C 71.38 62.01 73.18 64.21 73.97 66.95 C 75.16 71.47 79.78 73.79 84.01 74.70 C 83.41 76.02 82.74 77.45 80.99 77.25 C 75.80 76.79 72.55 72.20 69.35 68.63 C 69.26 71.68 68.62 74.77 69.14 77.82 C 70.09 80.98 72.41 83.50 73.59 86.57 C 74.66 89.09 74.54 91.94 75.68 94.44 C 75.48 95.81 75.43 97.19 75.44 98.57 C 77.45 98.56 79.46 98.48 81.47 98.52 C 79.45 100.69 76.44 101.37 73.83 102.56 C 72.43 99.99 73.28 95.24 69.70 94.67 C 70.04 94.39 70.73 93.84 71.07 93.56 C 68.98 88.98 66.69 84.39 63.36 80.57 C 60.47 85.50 57.33 90.34 52.85 94.00 C 54.23 94.00 55.62 94.00 57.00 94.00 L 57.00 94.98 C 54.94 95.00 52.89 95.04 50.84 95.18 C 51.36 97.06 52.18 98.83 52.95 100.62 C 52.42 100.53 51.35 100.35 50.82 100.27 C 49.00 98.32 47.81 95.36 45.00 94.71 L 45.00 94.21 C 47.47 94.14 48.90 92.03 50.44 90.43 C 56.36 84.30 60.07 75.85 59.43 67.25 C 57.85 68.68 55.72 70.05 55.46 72.37 C 55.25 74.62 55.38 76.89 55.30 79.15 C 53.89 78.88 52.68 78.14 51.59 77.24 C 52.67 73.80 53.23 70.20 54.60 66.86 C 55.92 64.52 57.66 62.43 59.49 60.48 C 61.13 58.75 63.80 59.29 65.93 58.80 C 64.88 56.34 63.76 51.94 67.44 51.27 Z" />
<path fill="#000000" opacity="1.00" d=" M 39.06 94.71 C 39.66 93.27 42.62 93.84 43.94 94.30 C 43.32 95.73 40.39 95.15 39.06 94.71 Z" />
<path fill="#000000" opacity="1.00" d=" M 58.07 94.29 C 59.55 93.68 61.45 93.67 62.93 94.29 C 62.47 95.58 58.51 95.59 58.07 94.29 Z" />
<path fill="#000000" opacity="1.00" d=" M 64.07 94.72 C 64.60 93.25 67.62 93.85 68.92 94.29 C 68.36 95.74 65.39 95.14 64.07 94.72 Z" />
<path fill="#000000" opacity="1.00" d=" M 77.07 94.29 C 78.38 93.84 81.33 93.27 81.93 94.71 C 80.62 95.16 77.67 95.73 77.07 94.29 Z" />
<path fill="#000000" opacity="1.00" d=" M 83.07 94.70 C 83.57 93.42 87.50 93.40 87.92 94.72 C 86.43 95.31 84.53 95.34 83.07 94.70 Z" />
<path fill="#000000" opacity="1.00" d=" M 89.08 94.29 C 90.37 93.84 93.38 93.25 93.90 94.72 C 92.60 95.15 89.62 95.74 89.08 94.29 Z" />
<path fill="#000000" opacity="1.00" d=" M 34.00 105.00 C 35.67 105.00 37.33 105.00 39.00 105.00 C 39.00 105.50 39.00 106.50 39.00 107.00 C 37.33 107.00 35.67 107.00 34.00 107.00 C 34.00 106.50 34.00 105.50 34.00 105.00 Z" />
<path fill="#000000" opacity="1.00" d=" M 40.00 105.00 C 41.67 105.00 43.33 105.00 45.00 105.00 C 45.00 105.50 45.00 106.50 45.00 107.00 C 43.33 107.00 41.67 107.00 40.00 107.00 C 40.00 106.50 40.00 105.50 40.00 105.00 Z" />
<path fill="#000000" opacity="1.00" d=" M 46.00 105.00 C 47.67 105.00 49.33 105.00 51.00 105.00 C 51.00 105.50 51.00 106.50 51.00 107.00 C 49.33 107.00 47.67 107.00 46.00 107.00 C 46.00 106.50 46.00 105.50 46.00 105.00 Z" />
<path fill="#000000" opacity="1.00" d=" M 52.00 105.00 C 53.66 105.00 55.33 105.00 57.00 105.00 C 57.00 105.50 57.00 106.50 57.00 107.00 C 55.33 107.00 53.67 107.00 52.00 107.00 C 52.00 106.50 52.00 105.50 52.00 105.00 Z" />
<path fill="#000000" opacity="1.00" d=" M 58.00 105.00 C 59.67 105.00 61.33 105.00 63.00 105.00 C 63.00 105.50 63.00 106.50 63.00 107.00 C 61.33 107.00 59.67 107.00 58.00 107.00 C 58.00 106.50 58.00 105.50 58.00 105.00 Z" />
<path fill="#000000" opacity="1.00" d=" M 64.00 105.00 C 65.67 105.00 67.33 105.00 69.00 105.00 C 69.00 105.50 69.00 106.50 69.00 107.00 C 67.33 107.00 65.67 107.00 64.00 107.00 C 64.00 106.50 64.00 105.50 64.00 105.00 Z" />
<path fill="#000000" opacity="1.00" d=" M 70.00 105.00 C 71.67 105.00 73.33 105.00 75.00 105.00 C 75.00 105.50 75.00 106.50 75.00 107.00 C 73.33 107.00 71.67 107.00 70.00 107.00 C 70.00 106.50 70.00 105.50 70.00 105.00 Z" />
<path fill="#000000" opacity="1.00" d=" M 76.00 105.00 C 77.67 105.00 79.33 105.00 81.00 105.00 C 81.00 105.50 81.00 106.50 81.00 107.00 C 79.33 107.00 77.67 107.00 76.00 107.00 C 76.00 106.50 76.00 105.50 76.00 105.00 Z" />
<path fill="#000000" opacity="1.00" d=" M 82.00 105.00 C 83.67 105.00 85.33 105.00 87.00 105.00 C 87.00 105.50 87.00 106.50 87.00 107.00 C 85.33 107.00 83.67 107.00 82.00 107.00 C 82.00 106.50 82.00 105.50 82.00 105.00 Z" />
<path fill="#000000" opacity="1.00" d=" M 88.00 105.00 C 89.66 105.00 91.33 105.00 93.00 105.00 C 93.00 105.50 93.00 106.50 93.00 107.00 C 91.33 107.00 89.67 107.00 88.00 107.00 C 88.00 106.50 88.00 105.50 88.00 105.00 Z" />
<path fill="#000000" opacity="1.00" d=" M 94.00 105.00 C 95.67 105.00 97.33 105.00 99.00 105.00 C 99.00 105.50 99.00 106.50 99.00 107.00 C 97.33 107.00 95.67 107.00 94.00 107.00 C 94.00 106.50 94.00 105.50 94.00 105.00 Z" />
</g>
<g id="normal">
<path fill="#ffffff" opacity="1.00" d=" M 64.06 10.24 C 65.23 7.97 68.37 8.87 69.13 11.01 C 88.88 45.16 108.58 79.35 128.32 113.52 C 129.76 115.62 131.07 119.61 127.78 120.72 C 125.51 120.98 123.23 121.01 120.95 121.00 C 83.60 120.99 46.25 121.02 8.90 120.99 C 7.07 121.14 5.02 120.64 4.23 118.80 C 2.00 115.39 5.34 112.06 6.71 109.07 C 10.79 102.24 14.57 95.23 18.77 88.47 C 19.89 86.90 20.85 85.22 21.65 83.47 C 24.22 78.74 26.90 74.06 29.76 69.49 C 30.89 67.93 31.83 66.24 32.63 64.49 C 35.21 59.74 37.89 55.05 40.77 50.48 C 41.62 49.30 42.33 48.03 42.93 46.71 C 45.80 41.28 49.04 36.05 52.07 30.71 C 53.17 28.99 54.17 27.21 55.14 25.42 C 58.13 20.37 60.86 15.15 64.06 10.24 M 65.67 14.57 C 63.94 16.64 62.80 19.10 61.41 21.40 C 43.54 52.20 25.66 83.00 7.84 113.82 C 6.78 115.15 7.02 116.66 7.74 118.07 C 44.47 117.92 81.21 118.03 117.95 118.01 C 120.52 117.87 123.24 118.42 125.71 117.60 C 126.74 116.07 125.50 114.56 124.84 113.19 C 106.13 80.89 87.46 48.56 68.75 16.25 C 68.03 15.21 67.12 13.32 65.67 14.57 Z" />
<path fill="#ffffff" opacity="1.00" d=" M 61.72 42.61 C 63.29 39.98 64.47 37.00 66.93 35.03 C 80.22 57.49 93.01 80.24 106.20 102.77 C 107.18 104.44 108.15 106.14 108.74 108.00 C 107.64 109.45 105.53 108.79 103.97 109.02 C 80.67 108.97 57.37 109.02 34.07 109.00 C 30.75 108.92 27.33 109.38 24.14 108.22 C 24.87 106.64 25.62 105.07 26.47 103.56 C 38.26 83.27 49.98 62.93 61.72 42.61 M 67.44 51.27 C 63.76 51.94 64.88 56.34 65.93 58.80 C 63.80 59.29 61.13 58.75 59.49 60.48 C 57.66 62.43 55.92 64.52 54.60 66.86 C 53.23 70.20 52.67 73.80 51.59 77.24 C 52.68 78.14 53.89 78.88 55.30 79.15 C 55.38 76.89 55.25 74.62 55.46 72.37 C 55.72 70.05 57.85 68.68 59.43 67.25 C 60.07 75.85 56.36 84.30 50.44 90.43 C 48.90 92.03 47.47 94.14 45.00 94.21 L 45.00 94.71 C 47.81 95.36 49.00 98.32 50.82 100.27 C 51.35 100.35 52.42 100.53 52.95 100.62 C 52.18 98.83 51.36 97.06 50.84 95.18 C 52.89 95.04 54.94 95.00 57.00 94.98 L 57.00 94.00 C 55.62 94.00 54.23 94.00 52.85 94.00 C 57.33 90.34 60.47 85.50 63.36 80.57 C 66.69 84.39 68.98 88.98 71.07 93.56 C 70.73 93.84 70.04 94.39 69.70 94.67 C 73.28 95.24 72.43 99.99 73.83 102.56 C 76.44 101.37 79.45 100.69 81.47 98.52 C 79.46 98.48 77.45 98.56 75.44 98.57 C 75.43 97.19 75.48 95.81 75.68 94.44 C 74.54 91.94 74.66 89.09 73.59 86.57 C 72.41 83.50 70.09 80.98 69.14 77.82 C 68.62 74.77 69.26 71.68 69.35 68.63 C 72.55 72.20 75.80 76.79 80.99 77.25 C 82.74 77.45 83.41 76.02 84.01 74.70 C 79.78 73.79 75.16 71.47 73.97 66.95 C 73.18 64.21 71.38 62.01 69.67 59.80 C 70.09 57.94 72.61 57.07 72.41 54.97 C 72.58 52.37 69.94 50.13 67.44 51.27 M 39.06 94.71 C 40.39 95.15 43.32 95.73 43.94 94.30 C 42.62 93.84 39.66 93.27 39.06 94.71 M 58.07 94.29 C 58.51 95.59 62.47 95.58 62.93 94.29 C 61.45 93.67 59.55 93.68 58.07 94.29 M 64.07 94.72 C 65.39 95.14 68.36 95.74 68.92 94.29 C 67.62 93.85 64.60 93.25 64.07 94.72 M 77.07 94.29 C 77.67 95.73 80.62 95.16 81.93 94.71 C 81.33 93.27 78.38 93.84 77.07 94.29 M 83.07 94.70 C 84.53 95.34 86.43 95.31 87.92 94.72 C 87.50 93.40 83.57 93.42 83.07 94.70 M 89.08 94.29 C 89.62 95.74 92.60 95.15 93.90 94.72 C 93.38 93.25 90.37 93.84 89.08 94.29 M 34.00 105.00 C 34.00 105.50 34.00 106.50 34.00 107.00 C 35.67 107.00 37.33 107.00 39.00 107.00 C 39.00 106.50 39.00 105.50 39.00 105.00 C 37.33 105.00 35.67 105.00 34.00 105.00 M 40.00 105.00 C 40.00 105.50 40.00 106.50 40.00 107.00 C 41.67 107.00 43.33 107.00 45.00 107.00 C 45.00 106.50 45.00 105.50 45.00 105.00 C 43.33 105.00 41.67 105.00 40.00 105.00 M 46.00 105.00 C 46.00 105.50 46.00 106.50 46.00 107.00 C 47.67 107.00 49.33 107.00 51.00 107.00 C 51.00 106.50 51.00 105.50 51.00 105.00 C 49.33 105.00 47.67 105.00 46.00 105.00 M 52.00 105.00 C 52.00 105.50 52.00 106.50 52.00 107.00 C 53.67 107.00 55.33 107.00 57.00 107.00 C 57.00 106.50 57.00 105.50 57.00 105.00 C 55.33 105.00 53.66 105.00 52.00 105.00 M 58.00 105.00 C 58.00 105.50 58.00 106.50 58.00 107.00 C 59.67 107.00 61.33 107.00 63.00 107.00 C 63.00 106.50 63.00 105.50 63.00 105.00 C 61.33 105.00 59.67 105.00 58.00 105.00 M 64.00 105.00 C 64.00 105.50 64.00 106.50 64.00 107.00 C 65.67 107.00 67.33 107.00 69.00 107.00 C 69.00 106.50 69.00 105.50 69.00 105.00 C 67.33 105.00 65.67 105.00 64.00 105.00 M 70.00 105.00 C 70.00 105.50 70.00 106.50 70.00 107.00 C 71.67 107.00 73.33 107.00 75.00 107.00 C 75.00 106.50 75.00 105.50 75.00 105.00 C 73.33 105.00 71.67 105.00 70.00 105.00 M 76.00 105.00 C 76.00 105.50 76.00 106.50 76.00 107.00 C 77.67 107.00 79.33 107.00 81.00 107.00 C 81.00 106.50 81.00 105.50 81.00 105.00 C 79.33 105.00 77.67 105.00 76.00 105.00 M 82.00 105.00 C 82.00 105.50 82.00 106.50 82.00 107.00 C 83.67 107.00 85.33 107.00 87.00 107.00 C 87.00 106.50 87.00 105.50 87.00 105.00 C 85.33 105.00 83.67 105.00 82.00 105.00 M 88.00 105.00 C 88.00 105.50 88.00 106.50 88.00 107.00 C 89.67 107.00 91.33 107.00 93.00 107.00 C 93.00 106.50 93.00 105.50 93.00 105.00 C 91.33 105.00 89.66 105.00 88.00 105.00 M 94.00 105.00 C 94.00 105.50 94.00 106.50 94.00 107.00 C 95.67 107.00 97.33 107.00 99.00 107.00 C 99.00 106.50 99.00 105.50 99.00 105.00 C 97.33 105.00 95.67 105.00 94.00 105.00 Z" />
<path fill="#de2e2e" opacity="1.00" d=" M 65.67 14.57 C 67.12 13.32 68.03 15.21 68.75 16.25 C 87.46 48.56 106.13 80.89 124.84 113.19 C 125.50 114.56 126.74 116.07 125.71 117.60 C 123.24 118.42 120.52 117.87 117.95 118.01 C 81.21 118.03 44.47 117.92 7.74 118.07 C 7.02 116.66 6.78 115.15 7.84 113.82 C 25.66 83.00 43.54 52.20 61.41 21.40 C 62.80 19.10 63.94 16.64 65.67 14.57 M 61.72 42.61 C 49.98 62.93 38.26 83.27 26.47 103.56 C 25.62 105.07 24.87 106.64 24.14 108.22 C 27.33 109.38 30.75 108.92 34.07 109.00 C 57.37 109.02 80.67 108.97 103.97 109.02 C 105.53 108.79 107.64 109.45 108.74 108.00 C 108.15 106.14 107.18 104.44 106.20 102.77 C 93.01 80.24 80.22 57.49 66.93 35.03 C 64.47 37.00 63.29 39.98 61.72 42.61 Z" />
<path fill="#000000" opacity="1.00" d=" M 67.44 51.27 C 69.94 50.13 72.58 52.37 72.41 54.97 C 72.61 57.07 70.09 57.94 69.67 59.80 C 71.38 62.01 73.18 64.21 73.97 66.95 C 75.16 71.47 79.78 73.79 84.01 74.70 C 83.41 76.02 82.74 77.45 80.99 77.25 C 75.80 76.79 72.55 72.20 69.35 68.63 C 69.26 71.68 68.62 74.77 69.14 77.82 C 70.09 80.98 72.41 83.50 73.59 86.57 C 74.66 89.09 74.54 91.94 75.68 94.44 C 75.48 95.81 75.43 97.19 75.44 98.57 C 77.45 98.56 79.46 98.48 81.47 98.52 C 79.45 100.69 76.44 101.37 73.83 102.56 C 72.43 99.99 73.28 95.24 69.70 94.67 C 70.04 94.39 70.73 93.84 71.07 93.56 C 68.98 88.98 66.69 84.39 63.36 80.57 C 60.47 85.50 57.33 90.34 52.85 94.00 C 54.23 94.00 55.62 94.00 57.00 94.00 L 57.00 94.98 C 54.94 95.00 52.89 95.04 50.84 95.18 C 51.36 97.06 52.18 98.83 52.95 100.62 C 52.42 100.53 51.35 100.35 50.82 100.27 C 49.00 98.32 47.81 95.36 45.00 94.71 L 45.00 94.21 C 47.47 94.14 48.90 92.03 50.44 90.43 C 56.36 84.30 60.07 75.85 59.43 67.25 C 57.85 68.68 55.72 70.05 55.46 72.37 C 55.25 74.62 55.38 76.89 55.30 79.15 C 53.89 78.88 52.68 78.14 51.59 77.24 C 52.67 73.80 53.23 70.20 54.60 66.86 C 55.92 64.52 57.66 62.43 59.49 60.48 C 61.13 58.75 63.80 59.29 65.93 58.80 C 64.88 56.34 63.76 51.94 67.44 51.27 Z" />
<path fill="#000000" opacity="1.00" d=" M 39.06 94.71 C 39.66 93.27 42.62 93.84 43.94 94.30 C 43.32 95.73 40.39 95.15 39.06 94.71 Z" />
<path fill="#000000" opacity="1.00" d=" M 58.07 94.29 C 59.55 93.68 61.45 93.67 62.93 94.29 C 62.47 95.58 58.51 95.59 58.07 94.29 Z" />
<path fill="#000000" opacity="1.00" d=" M 64.07 94.72 C 64.60 93.25 67.62 93.85 68.92 94.29 C 68.36 95.74 65.39 95.14 64.07 94.72 Z" />
<path fill="#000000" opacity="1.00" d=" M 77.07 94.29 C 78.38 93.84 81.33 93.27 81.93 94.71 C 80.62 95.16 77.67 95.73 77.07 94.29 Z" />
<path fill="#000000" opacity="1.00" d=" M 83.07 94.70 C 83.57 93.42 87.50 93.40 87.92 94.72 C 86.43 95.31 84.53 95.34 83.07 94.70 Z" />
<path fill="#000000" opacity="1.00" d=" M 89.08 94.29 C 90.37 93.84 93.38 93.25 93.90 94.72 C 92.60 95.15 89.62 95.74 89.08 94.29 Z" />
<path fill="#000000" opacity="1.00" d=" M 34.00 105.00 C 35.67 105.00 37.33 105.00 39.00 105.00 C 39.00 105.50 39.00 106.50 39.00 107.00 C 37.33 107.00 35.67 107.00 34.00 107.00 C 34.00 106.50 34.00 105.50 34.00 105.00 Z" />
<path fill="#000000" opacity="1.00" d=" M 40.00 105.00 C 41.67 105.00 43.33 105.00 45.00 105.00 C 45.00 105.50 45.00 106.50 45.00 107.00 C 43.33 107.00 41.67 107.00 40.00 107.00 C 40.00 106.50 40.00 105.50 40.00 105.00 Z" />
<path fill="#000000" opacity="1.00" d=" M 46.00 105.00 C 47.67 105.00 49.33 105.00 51.00 105.00 C 51.00 105.50 51.00 106.50 51.00 107.00 C 49.33 107.00 47.67 107.00 46.00 107.00 C 46.00 106.50 46.00 105.50 46.00 105.00 Z" />
<path fill="#000000" opacity="1.00" d=" M 52.00 105.00 C 53.66 105.00 55.33 105.00 57.00 105.00 C 57.00 105.50 57.00 106.50 57.00 107.00 C 55.33 107.00 53.67 107.00 52.00 107.00 C 52.00 106.50 52.00 105.50 52.00 105.00 Z" />
<path fill="#000000" opacity="1.00" d=" M 58.00 105.00 C 59.67 105.00 61.33 105.00 63.00 105.00 C 63.00 105.50 63.00 106.50 63.00 107.00 C 61.33 107.00 59.67 107.00 58.00 107.00 C 58.00 106.50 58.00 105.50 58.00 105.00 Z" />
<path fill="#000000" opacity="1.00" d=" M 64.00 105.00 C 65.67 105.00 67.33 105.00 69.00 105.00 C 69.00 105.50 69.00 106.50 69.00 107.00 C 67.33 107.00 65.67 107.00 64.00 107.00 C 64.00 106.50 64.00 105.50 64.00 105.00 Z" />
<path fill="#000000" opacity="1.00" d=" M 70.00 105.00 C 71.67 105.00 73.33 105.00 75.00 105.00 C 75.00 105.50 75.00 106.50 75.00 107.00 C 73.33 107.00 71.67 107.00 70.00 107.00 C 70.00 106.50 70.00 105.50 70.00 105.00 Z" />
<path fill="#000000" opacity="1.00" d=" M 76.00 105.00 C 77.67 105.00 79.33 105.00 81.00 105.00 C 81.00 105.50 81.00 106.50 81.00 107.00 C 79.33 107.00 77.67 107.00 76.00 107.00 C 76.00 106.50 76.00 105.50 76.00 105.00 Z" />
<path fill="#000000" opacity="1.00" d=" M 82.00 105.00 C 83.67 105.00 85.33 105.00 87.00 105.00 C 87.00 105.50 87.00 106.50 87.00 107.00 C 85.33 107.00 83.67 107.00 82.00 107.00 C 82.00 106.50 82.00 105.50 82.00 105.00 Z" />
<path fill="#000000" opacity="1.00" d=" M 88.00 105.00 C 89.66 105.00 91.33 105.00 93.00 105.00 C 93.00 105.50 93.00 106.50 93.00 107.00 C 91.33 107.00 89.67 107.00 88.00 107.00 C 88.00 106.50 88.00 105.50 88.00 105.00 Z" />
<path fill="#000000" opacity="1.00" d=" M 94.00 105.00 C 95.67 105.00 97.33 105.00 99.00 105.00 C 99.00 105.50 99.00 106.50 99.00 107.00 C 97.33 107.00 95.67 107.00 94.00 107.00 C 94.00 106.50 94.00 105.50 94.00 105.00 Z" />
</g>
</svg>
