<?xml version="1.0" encoding="UTF-8" ?>
<!DOCTYPE svg PUBLIC "-//W3C//DTD SVG 1.1//EN" "http://www.w3.org/Graphics/SVG/1.1/DTD/svg11.dtd">
<svg width="149pt" height="149pt" viewBox="0 0 149 149" version="1.1" xmlns="http://www.w3.org/2000/svg">
<g id="disabled">
<path fill="#000000" opacity="0.89" d=" M 58.13 3.84 C 76.88 -0.62 97.36 2.89 113.53 13.38 C 130.51 24.10 142.61 42.18 146.02 61.97 C 147.88 72.94 147.34 84.36 144.14 95.04 C 138.61 114.01 124.94 130.40 107.28 139.26 C 94.33 145.94 79.32 148.37 64.91 146.46 C 46.17 144.05 28.59 133.85 17.12 118.85 C 3.00 100.98 -1.49 76.40 4.63 54.55 C 4.89 54.94 5.41 55.71 5.67 56.10 C 0.98 75.11 3.77 96.13 14.59 112.66 C 15.56 114.18 16.58 115.67 17.70 117.09 C 18.37 117.99 19.06 118.88 19.75 119.77 C 20.97 121.20 22.23 122.61 23.55 123.96 C 24.30 124.74 25.07 125.49 25.86 126.23 C 27.13 127.46 28.45 128.64 29.85 129.71 C 30.65 130.35 31.44 131.00 32.22 131.65 C 33.95 132.85 35.70 134.04 37.49 135.15 C 52.66 144.55 71.47 147.86 88.92 144.12 C 110.05 139.90 128.71 125.35 138.21 106.05 C 149.08 84.65 147.87 57.74 135.10 37.42 C 134.02 35.67 132.85 33.97 131.69 32.27 C 131.02 31.46 130.35 30.64 129.69 29.81 C 128.60 28.43 127.43 27.11 126.21 25.84 C 125.48 25.06 124.73 24.30 123.96 23.56 C 122.64 22.24 121.24 21.00 119.82 19.80 C 118.93 19.08 118.03 18.39 117.11 17.71 C 115.68 16.60 114.19 15.56 112.65 14.59 C 97.28 4.65 77.93 1.13 60.03 4.95 C 37.91 9.40 18.54 25.21 9.51 45.86 C 8.16 48.26 7.90 51.22 6.33 53.38 L 5.71 54.03 C 4.45 51.68 6.53 50.03 7.03 47.97 C 15.48 26.08 35.23 8.99 58.13 3.84 Z" />
<path fill="#909090" opacity="1.00" d=" M 60.03 4.95 C 77.93 1.13 97.28 4.65 112.65 14.59 C 79.96 47.27 47.14 79.83 14.59 112.66 C 3.77 96.13 0.98 75.11 5.67 56.10 C 5.83 55.42 6.16 54.06 6.33 53.38 C 7.90 51.22 8.16 48.26 9.51 45.86 C 18.54 25.21 37.91 9.40 60.03 4.95 Z" />
<path fill="#909090" opacity="1.00" d=" M 17.70 117.09 C 50.92 84.05 84.03 50.89 117.11 17.71 C 118.03 18.39 118.93 19.08 119.82 19.80 C 86.49 53.15 53.14 86.48 19.75 119.77 C 19.06 118.88 18.37 117.99 17.70 117.09 Z" />
<path fill="#909090" opacity="1.00" d=" M 23.55 123.96 C 56.98 90.45 90.43 56.96 123.96 23.56 C 124.73 24.30 125.48 25.06 126.21 25.84 C 92.75 59.29 59.35 92.80 25.86 126.23 C 25.07 125.49 24.30 124.74 23.55 123.96 Z" />
<path fill="#909090" opacity="1.00" d=" M 129.69 29.81 C 130.35 30.64 131.02 31.46 131.69 32.27 C 130.58 34.52 128.50 36.01 126.82 37.78 C 95.77 68.84 64.76 99.92 33.69 130.95 C 33.33 131.12 32.59 131.48 32.22 131.65 C 31.44 131.00 30.65 130.35 29.85 129.71 C 34.05 126.32 37.59 122.21 41.48 118.47 C 70.00 89.98 98.47 61.42 126.98 32.92 C 127.94 31.94 128.84 30.89 129.69 29.81 Z" />
<path fill="#909090" opacity="1.00" d=" M 42.23 130.21 C 73.25 99.34 104.01 68.21 135.10 37.42 C 147.87 57.74 149.08 84.65 138.21 106.05 C 128.71 125.35 110.05 139.90 88.92 144.12 C 71.47 147.86 52.66 144.55 37.49 135.15 C 39.02 133.45 40.61 131.82 42.23 130.21 Z" />
<path fill="#c6c6c6" opacity="1.00" d=" M 112.65 14.59 C 114.19 15.56 115.68 16.60 117.11 17.71 C 84.03 50.89 50.92 84.05 17.70 117.09 C 16.58 115.67 15.56 114.18 14.59 112.66 C 47.14 79.83 79.96 47.27 112.65 14.59 Z" />
<path fill="#c6c6c6" opacity="1.00" d=" M 119.82 19.80 C 121.24 21.00 122.64 22.24 123.96 23.56 C 90.43 56.96 56.98 90.45 23.55 123.96 C 22.23 122.61 20.97 121.20 19.75 119.77 C 53.14 86.48 86.49 53.15 119.82 19.80 Z" />
<path fill="#c6c6c6" opacity="1.00" d=" M 126.21 25.84 C 127.43 27.11 128.60 28.43 129.69 29.81 C 128.84 30.89 127.94 31.94 126.98 32.92 C 98.47 61.42 70.00 89.98 41.48 118.47 C 37.59 122.21 34.05 126.32 29.85 129.71 C 28.45 128.64 27.13 127.46 25.86 126.23 C 59.35 92.80 92.75 59.29 126.21 25.84 Z" />
<path fill="#c6c6c6" opacity="1.00" d=" M 131.69 32.27 C 132.85 33.97 134.02 35.67 135.10 37.42 C 104.01 68.21 73.25 99.34 42.23 130.21 C 40.61 131.82 39.02 133.45 37.49 135.15 C 35.70 134.04 33.95 132.85 32.22 131.65 C 32.59 131.48 33.33 131.12 33.69 130.95 C 64.76 99.92 95.77 68.84 126.82 37.78 C 128.50 36.01 130.58 34.52 131.69 32.27 Z" />
</g>
<g id="normal">
<path fill="#000000" opacity="0.89" d=" M 58.13 3.84 C 76.88 -0.62 97.36 2.89 113.53 13.38 C 130.51 24.10 142.61 42.18 146.02 61.97 C 147.88 72.94 147.34 84.36 144.14 95.04 C 138.61 114.01 124.94 130.40 107.28 139.26 C 94.33 145.94 79.32 148.37 64.91 146.46 C 46.17 144.05 28.59 133.85 17.12 118.85 C 3.00 100.98 -1.49 76.40 4.63 54.55 C 4.89 54.94 5.41 55.71 5.67 56.10 C 0.98 75.11 3.77 96.13 14.59 112.66 C 15.56 114.18 16.58 115.67 17.70 117.09 C 18.37 117.99 19.06 118.88 19.75 119.77 C 20.97 121.20 22.23 122.61 23.55 123.96 C 24.30 124.74 25.07 125.49 25.86 126.23 C 27.13 127.46 28.45 128.64 29.85 129.71 C 30.65 130.35 31.44 131.00 32.22 131.65 C 33.95 132.85 35.70 134.04 37.49 135.15 C 52.66 144.55 71.47 147.86 88.92 144.12 C 110.05 139.90 128.71 125.35 138.21 106.05 C 149.08 84.65 147.87 57.74 135.10 37.42 C 134.02 35.67 132.85 33.97 131.69 32.27 C 131.02 31.46 130.35 30.64 129.69 29.81 C 128.60 28.43 127.43 27.11 126.21 25.84 C 125.48 25.06 124.73 24.30 123.96 23.56 C 122.64 22.24 121.24 21.00 119.82 19.80 C 118.93 19.08 118.03 18.39 117.11 17.71 C 115.68 16.60 114.19 15.56 112.65 14.59 C 97.28 4.65 77.93 1.13 60.03 4.95 C 37.91 9.40 18.54 25.21 9.51 45.86 C 8.16 48.26 7.90 51.22 6.33 53.38 L 5.71 54.03 C 4.45 51.68 6.53 50.03 7.03 47.97 C 15.48 26.08 35.23 8.99 58.13 3.84 Z" />
<path fill="#ffffff" opacity="1.00" d=" M 60.03 4.95 C 77.93 1.13 97.28 4.65 112.65 14.59 C 79.96 47.27 47.14 79.83 14.59 112.66 C 3.77 96.13 0.98 75.11 5.67 56.10 C 5.83 55.42 6.16 54.06 6.33 53.38 C 7.90 51.22 8.16 48.26 9.51 45.86 C 18.54 25.21 37.91 9.40 60.03 4.95 Z" />
<path fill="#ffffff" opacity="1.00" d=" M 17.70 117.09 C 50.92 84.05 84.03 50.89 117.11 17.71 C 118.03 18.39 118.93 19.08 119.82 19.80 C 86.49 53.15 53.14 86.48 19.75 119.77 C 19.06 118.88 18.37 117.99 17.70 117.09 Z" />
<path fill="#ffffff" opacity="1.00" d=" M 23.55 123.96 C 56.98 90.45 90.43 56.96 123.96 23.56 C 124.73 24.30 125.48 25.06 126.21 25.84 C 92.75 59.29 59.35 92.80 25.86 126.23 C 25.07 125.49 24.30 124.74 23.55 123.96 Z" />
<path fill="#ffffff" opacity="1.00" d=" M 129.69 29.81 C 130.35 30.64 131.02 31.46 131.69 32.27 C 130.58 34.52 128.50 36.01 126.82 37.78 C 95.77 68.84 64.76 99.92 33.69 130.95 C 33.33 131.12 32.59 131.48 32.22 131.65 C 31.44 131.00 30.65 130.35 29.85 129.71 C 34.05 126.32 37.59 122.21 41.48 118.47 C 70.00 89.98 98.47 61.42 126.98 32.92 C 127.94 31.94 128.84 30.89 129.69 29.81 Z" />
<path fill="#ffffff" opacity="1.00" d=" M 42.23 130.21 C 73.25 99.34 104.01 68.21 135.10 37.42 C 147.87 57.74 149.08 84.65 138.21 106.05 C 128.71 125.35 110.05 139.90 88.92 144.12 C 71.47 147.86 52.66 144.55 37.49 135.15 C 39.02 133.45 40.61 131.82 42.23 130.21 Z" />
<path fill="#c3c3c3" opacity="1.00" d=" M 112.65 14.59 C 114.19 15.56 115.68 16.60 117.11 17.71 C 84.03 50.89 50.92 84.05 17.70 117.09 C 16.58 115.67 15.56 114.18 14.59 112.66 C 47.14 79.83 79.96 47.27 112.65 14.59 Z" />
<path fill="#c3c3c3" opacity="1.00" d=" M 119.82 19.80 C 121.24 21.00 122.64 22.24 123.96 23.56 C 90.43 56.96 56.98 90.45 23.55 123.96 C 22.23 122.61 20.97 121.20 19.75 119.77 C 53.14 86.48 86.49 53.15 119.82 19.80 Z" />
<path fill="#c3c3c3" opacity="1.00" d=" M 126.21 25.84 C 127.43 27.11 128.60 28.43 129.69 29.81 C 128.84 30.89 127.94 31.94 126.98 32.92 C 98.47 61.42 70.00 89.98 41.48 118.47 C 37.59 122.21 34.05 126.32 29.85 129.71 C 28.45 128.64 27.13 127.46 25.86 126.23 C 59.35 92.80 92.75 59.29 126.21 25.84 Z" />
<path fill="#c3c3c3" opacity="1.00" d=" M 131.69 32.27 C 132.85 33.97 134.02 35.67 135.10 37.42 C 104.01 68.21 73.25 99.34 42.23 130.21 C 40.61 131.82 39.02 133.45 37.49 135.15 C 35.70 134.04 33.95 132.85 32.22 131.65 C 32.59 131.48 33.33 131.12 33.69 130.95 C 64.76 99.92 95.77 68.84 126.82 37.78 C 128.50 36.01 130.58 34.52 131.69 32.27 Z" />
</g>
</svg>
