<?xml version="1.0" encoding="UTF-8" ?>
<!DOCTYPE svg PUBLIC "-//W3C//DTD SVG 1.1//EN" "http://www.w3.org/Graphics/SVG/1.1/DTD/svg11.dtd">
<svg width="130pt" height="130pt" viewBox="0 0 130 130" version="1.1" xmlns="http://www.w3.org/2000/svg">
<g id="disabled">
<path fill="#ffffff" opacity="1.00" d=" M 60.87 11.01 C 61.58 9.25 63.96 8.01 65.44 9.62 C 67.97 12.89 69.67 16.69 71.86 20.18 C 86.23 45.33 100.71 70.43 115.39 95.40 C 115.72 95.94 116.03 96.49 116.33 97.05 C 119.36 102.85 122.95 108.34 126.03 114.11 C 127.62 116.85 125.41 121.28 122.04 120.96 C 84.37 121.06 46.69 120.95 9.02 121.02 C 6.74 121.02 4.46 120.99 2.21 120.70 C 0.64 120.27 -0.17 118.60 0.17 117.06 C 0.91 114.43 2.51 112.15 3.84 109.79 C 22.86 76.87 41.84 43.92 60.87 11.01 M 61.68 15.57 C 42.67 48.27 23.78 81.04 4.84 113.78 C 3.69 115.13 3.26 118.31 5.87 117.97 C 44.63 118.09 83.40 117.88 122.17 118.07 C 123.09 116.69 123.21 115.12 122.14 113.77 C 103.19 81.09 84.31 48.36 65.25 15.75 C 64.65 13.93 62.36 13.73 61.68 15.57 Z" />
<path fill="#ffffff" opacity="1.00" d=" M 61.50 37.51 C 62.09 36.50 62.91 35.72 63.96 35.17 C 71.47 48.03 78.81 60.99 86.37 73.83 L 85.88 73.12 C 67.76 83.23 49.70 93.46 31.61 103.62 C 28.54 105.31 25.57 107.21 22.33 108.58 L 21.14 108.77 C 21.52 107.36 22.04 106.00 22.71 104.70 C 35.67 82.32 48.57 59.91 61.50 37.51 Z" />
<path fill="#606060" opacity="1.00" d=" M 61.68 15.57 C 62.36 13.73 64.65 13.93 65.25 15.75 C 84.31 48.36 103.19 81.09 122.14 113.77 C 123.21 115.12 123.09 116.69 122.17 118.07 C 83.40 117.88 44.63 118.09 5.87 117.97 C 3.26 118.31 3.69 115.13 4.84 113.78 C 23.78 81.04 42.67 48.27 61.68 15.57 M 61.50 37.51 C 48.57 59.91 35.67 82.32 22.71 104.70 C 22.04 106.00 21.52 107.36 21.14 108.77 L 22.33 108.58 C 24.52 108.96 26.75 109.01 28.97 109.01 C 54.98 108.99 81.00 109.06 107.01 108.98 C 100.05 97.31 93.35 85.49 86.37 73.83 C 78.81 60.99 71.47 48.03 63.96 35.17 C 62.91 35.72 62.09 36.50 61.50 37.51 Z" />
<path fill="#000000" opacity="1.00" d=" M 31.61 103.62 C 49.70 93.46 67.76 83.23 85.88 73.12 L 86.37 73.83 C 93.35 85.49 100.05 97.31 107.01 108.98 C 81.00 109.06 54.98 108.99 28.97 109.01 C 26.75 109.01 24.52 108.96 22.33 108.58 C 25.57 107.21 28.54 105.31 31.61 103.62 Z" />
</g>
<g id="normal">
<path fill="#ffffff" opacity="1.00" d=" M 60.87 11.01 C 61.58 9.25 63.96 8.01 65.44 9.62 C 67.97 12.89 69.67 16.69 71.86 20.18 C 86.23 45.33 100.71 70.43 115.39 95.40 C 115.72 95.94 116.03 96.49 116.33 97.05 C 119.36 102.85 122.95 108.34 126.03 114.11 C 127.62 116.85 125.41 121.28 122.04 120.96 C 84.37 121.06 46.69 120.95 9.02 121.02 C 6.74 121.02 4.46 120.99 2.21 120.70 C 0.64 120.27 -0.17 118.60 0.17 117.06 C 0.91 114.43 2.51 112.15 3.84 109.79 C 22.86 76.87 41.84 43.92 60.87 11.01 M 61.68 15.57 C 42.67 48.27 23.78 81.04 4.84 113.78 C 3.69 115.13 3.26 118.31 5.87 117.97 C 44.63 118.09 83.40 117.88 122.17 118.07 C 123.09 116.69 123.21 115.12 122.14 113.77 C 103.19 81.09 84.31 48.36 65.25 15.75 C 64.65 13.93 62.36 13.73 61.68 15.57 Z" />
<path fill="#ffffff" opacity="1.00" d=" M 61.50 37.51 C 62.09 36.50 62.91 35.72 63.96 35.17 C 71.47 48.03 78.81 60.99 86.37 73.83 L 85.88 73.12 C 67.76 83.23 49.70 93.46 31.61 103.62 C 28.54 105.31 25.57 107.21 22.33 108.58 L 21.14 108.77 C 21.52 107.36 22.04 106.00 22.71 104.70 C 35.67 82.32 48.57 59.91 61.50 37.51 Z" />
<path fill="#de2e2e" opacity="1.00" d=" M 61.68 15.57 C 62.36 13.73 64.65 13.93 65.25 15.75 C 84.31 48.36 103.19 81.09 122.14 113.77 C 123.21 115.12 123.09 116.69 122.17 118.07 C 83.40 117.88 44.63 118.09 5.87 117.97 C 3.26 118.31 3.69 115.13 4.84 113.78 C 23.78 81.04 42.67 48.27 61.68 15.57 M 61.50 37.51 C 48.57 59.91 35.67 82.32 22.71 104.70 C 22.04 106.00 21.52 107.36 21.14 108.77 L 22.33 108.58 C 24.52 108.96 26.75 109.01 28.97 109.01 C 54.98 108.99 81.00 109.06 107.01 108.98 C 100.05 97.31 93.35 85.49 86.37 73.83 C 78.81 60.99 71.47 48.03 63.96 35.17 C 62.91 35.72 62.09 36.50 61.50 37.51 Z" />
<path fill="#000000" opacity="1.00" d=" M 31.61 103.62 C 49.70 93.46 67.76 83.23 85.88 73.12 L 86.37 73.83 C 93.35 85.49 100.05 97.31 107.01 108.98 C 81.00 109.06 54.98 108.99 28.97 109.01 C 26.75 109.01 24.52 108.96 22.33 108.58 C 25.57 107.21 28.54 105.31 31.61 103.62 Z" />
</g>
</svg>
