<?xml version="1.0" encoding="UTF-8" ?>
<!DOCTYPE svg PUBLIC "-//W3C//DTD SVG 1.1//EN" "http://www.w3.org/Graphics/SVG/1.1/DTD/svg11.dtd">
<svg width="130pt" height="130pt" viewBox="0 0 130 130" version="1.1" xmlns="http://www.w3.org/2000/svg">
<g id="disabled">
<path fill="#ffffff" opacity="1.00" d=" M 60.85 11.04 C 61.55 9.27 63.94 8.01 65.44 9.61 C 67.98 12.91 69.71 16.74 71.90 20.27 C 86.26 45.41 100.74 70.50 115.42 95.46 C 115.74 96.00 116.05 96.55 116.36 97.10 C 119.38 102.90 122.97 108.38 126.04 114.15 C 127.58 116.85 125.42 121.22 122.11 120.95 C 84.42 121.06 46.73 120.96 9.04 121.00 C 6.77 121.01 4.49 120.99 2.23 120.73 C 0.28 120.21 -0.33 117.86 0.43 116.18 C 1.31 113.93 2.62 111.89 3.83 109.81 C 22.85 76.89 41.83 43.95 60.85 11.04 M 59.77 18.76 C 42.47 48.77 25.08 78.73 7.76 108.73 C 6.40 111.15 4.78 113.45 3.82 116.08 C 3.86 117.44 4.54 118.07 5.85 117.96 C 44.62 118.10 83.40 117.88 122.17 118.07 C 124.01 115.76 121.87 113.41 120.75 111.33 C 102.38 79.70 84.07 48.02 65.67 16.40 C 65.02 15.40 64.42 14.12 63.03 14.14 C 61.49 15.30 60.77 17.17 59.77 18.76 Z" />
<path fill="#ffffff" opacity="1.00" d=" M 23.43 103.41 C 36.73 80.69 49.62 57.75 63.03 35.10 C 64.01 35.77 64.81 36.61 65.42 37.62 C 78.22 59.84 91.02 82.05 103.92 104.21 C 104.52 105.44 105.48 106.61 105.48 108.04 C 104.31 109.27 102.54 108.93 101.03 109.01 C 76.03 109.00 51.02 108.98 26.01 109.02 C 24.50 108.72 22.21 109.59 21.32 107.94 C 21.71 106.30 22.61 104.86 23.43 103.41 M 58.53 63.01 C 58.98 70.39 59.61 77.78 61.00 85.05 C 61.62 87.60 61.98 90.79 64.64 92.07 C 65.76 90.19 66.69 88.17 67.07 86.00 C 68.72 78.08 69.40 69.99 69.82 61.92 C 70.11 58.37 66.61 54.73 62.98 55.73 C 59.83 56.47 58.07 59.95 58.53 63.01 M 61.23 96.11 C 57.39 98.23 57.96 104.59 62.12 105.99 C 66.12 107.92 70.90 103.54 69.57 99.38 C 68.73 95.85 64.25 94.21 61.23 96.11 Z" />
<path fill="#606060" opacity="1.00" d=" M 59.77 18.76 C 60.77 17.17 61.49 15.30 63.03 14.14 C 64.42 14.12 65.02 15.40 65.67 16.40 C 84.07 48.02 102.38 79.70 120.75 111.33 C 121.87 113.41 124.01 115.76 122.17 118.07 C 83.40 117.88 44.62 118.10 5.85 117.96 C 4.54 118.07 3.86 117.44 3.82 116.08 C 4.78 113.45 6.40 111.15 7.76 108.73 C 25.08 78.73 42.47 48.77 59.77 18.76 M 23.43 103.41 C 22.61 104.86 21.71 106.30 21.32 107.94 C 22.21 109.59 24.50 108.72 26.01 109.02 C 51.02 108.98 76.03 109.00 101.03 109.01 C 102.54 108.93 104.31 109.27 105.48 108.04 C 105.48 106.61 104.52 105.44 103.92 104.21 C 91.02 82.05 78.22 59.84 65.42 37.62 C 64.81 36.61 64.01 35.77 63.03 35.10 C 49.62 57.75 36.73 80.69 23.43 103.41 Z" />
<path fill="#000000" opacity="1.00" d=" M 58.53 63.01 C 58.07 59.95 59.83 56.47 62.98 55.73 C 66.61 54.73 70.11 58.37 69.82 61.92 C 69.40 69.99 68.72 78.08 67.07 86.00 C 66.69 88.17 65.76 90.19 64.64 92.07 C 61.98 90.79 61.62 87.60 61.00 85.05 C 59.61 77.78 58.98 70.39 58.53 63.01 Z" />
<path fill="#000000" opacity="1.00" d=" M 61.23 96.11 C 64.25 94.21 68.73 95.85 69.57 99.38 C 70.90 103.54 66.12 107.92 62.12 105.99 C 57.96 104.59 57.39 98.23 61.23 96.11 Z" />
</g>
<g id="normal">
<path fill="#ffffff" opacity="1.00" d=" M 60.85 11.04 C 61.55 9.27 63.94 8.01 65.44 9.61 C 67.98 12.91 69.71 16.74 71.90 20.27 C 86.26 45.41 100.74 70.50 115.42 95.46 C 115.74 96.00 116.05 96.55 116.36 97.10 C 119.38 102.90 122.97 108.38 126.04 114.15 C 127.58 116.85 125.42 121.22 122.11 120.95 C 84.42 121.06 46.73 120.96 9.04 121.00 C 6.77 121.01 4.49 120.99 2.23 120.73 C 0.28 120.21 -0.33 117.86 0.43 116.18 C 1.31 113.93 2.62 111.89 3.83 109.81 C 22.85 76.89 41.83 43.95 60.85 11.04 M 59.77 18.76 C 42.47 48.77 25.08 78.73 7.76 108.73 C 6.40 111.15 4.78 113.45 3.82 116.08 C 3.86 117.44 4.54 118.07 5.85 117.96 C 44.62 118.10 83.40 117.88 122.17 118.07 C 124.01 115.76 121.87 113.41 120.75 111.33 C 102.38 79.70 84.07 48.02 65.67 16.40 C 65.02 15.40 64.42 14.12 63.03 14.14 C 61.49 15.30 60.77 17.17 59.77 18.76 Z" />
<path fill="#ffffff" opacity="1.00" d=" M 23.43 103.41 C 36.73 80.69 49.62 57.75 63.03 35.10 C 64.01 35.77 64.81 36.61 65.42 37.62 C 78.22 59.84 91.02 82.05 103.92 104.21 C 104.52 105.44 105.48 106.61 105.48 108.04 C 104.31 109.27 102.54 108.93 101.03 109.01 C 76.03 109.00 51.02 108.98 26.01 109.02 C 24.50 108.72 22.21 109.59 21.32 107.94 C 21.71 106.30 22.61 104.86 23.43 103.41 M 58.53 63.01 C 58.98 70.39 59.61 77.78 61.00 85.05 C 61.62 87.60 61.98 90.79 64.64 92.07 C 65.76 90.19 66.69 88.17 67.07 86.00 C 68.72 78.08 69.40 69.99 69.82 61.92 C 70.11 58.37 66.61 54.73 62.98 55.73 C 59.83 56.47 58.07 59.95 58.53 63.01 M 61.23 96.11 C 57.39 98.23 57.96 104.59 62.12 105.99 C 66.12 107.92 70.90 103.54 69.57 99.38 C 68.73 95.85 64.25 94.21 61.23 96.11 Z" />
<path fill="#de2e2e" opacity="1.00" d=" M 59.77 18.76 C 60.77 17.17 61.49 15.30 63.03 14.14 C 64.42 14.12 65.02 15.40 65.67 16.40 C 84.07 48.02 102.38 79.70 120.75 111.33 C 121.87 113.41 124.01 115.76 122.17 118.07 C 83.40 117.88 44.62 118.10 5.85 117.96 C 4.54 118.07 3.86 117.44 3.82 116.08 C 4.78 113.45 6.40 111.15 7.76 108.73 C 25.08 78.73 42.47 48.77 59.77 18.76 M 23.43 103.41 C 22.61 104.86 21.71 106.30 21.32 107.94 C 22.21 109.59 24.50 108.72 26.01 109.02 C 51.02 108.98 76.03 109.00 101.03 109.01 C 102.54 108.93 104.31 109.27 105.48 108.04 C 105.48 106.61 104.52 105.44 103.92 104.21 C 91.02 82.05 78.22 59.84 65.42 37.62 C 64.81 36.61 64.01 35.77 63.03 35.10 C 49.62 57.75 36.73 80.69 23.43 103.41 Z" />
<path fill="#000000" opacity="1.00" d=" M 58.53 63.01 C 58.07 59.95 59.83 56.47 62.98 55.73 C 66.61 54.73 70.11 58.37 69.82 61.92 C 69.40 69.99 68.72 78.08 67.07 86.00 C 66.69 88.17 65.76 90.19 64.64 92.07 C 61.98 90.79 61.62 87.60 61.00 85.05 C 59.61 77.78 58.98 70.39 58.53 63.01 Z" />
<path fill="#000000" opacity="1.00" d=" M 61.23 96.11 C 64.25 94.21 68.73 95.85 69.57 99.38 C 70.90 103.54 66.12 107.92 62.12 105.99 C 57.96 104.59 57.39 98.23 61.23 96.11 Z" />
</g>
</svg>
