<?xml version="1.0" encoding="UTF-8" ?>
<!DOCTYPE svg PUBLIC "-//W3C//DTD SVG 1.1//EN" "http://www.w3.org/Graphics/SVG/1.1/DTD/svg11.dtd">
<svg width="130pt" height="130pt" viewBox="0 0 130 130" version="1.1" xmlns="http://www.w3.org/2000/svg">
<g id="disabled">
<path fill="#ffffff" opacity="1.00" d=" M 60.89 10.98 C 61.60 9.26 63.94 8.03 65.41 9.60 C 67.98 12.83 69.63 16.67 71.84 20.14 C 86.24 45.37 100.77 70.52 115.48 95.57 C 115.77 96.05 116.05 96.55 116.33 97.05 C 119.36 102.83 122.92 108.32 126.01 114.06 C 127.63 116.81 125.43 121.26 122.04 120.97 C 85.03 121.05 48.02 120.96 11.01 121.01 C 8.08 121.00 5.13 121.09 2.22 120.69 C 0.26 120.22 -0.34 117.82 0.43 116.16 C 1.31 113.93 2.61 111.91 3.81 109.84 C 22.85 76.89 41.84 43.92 60.89 10.98 M 61.22 16.28 C 43.43 47.09 25.58 77.86 7.79 108.67 C 6.43 111.10 4.79 113.40 3.83 116.03 C 3.86 117.45 4.56 118.09 5.94 117.97 C 44.68 118.09 83.44 117.89 122.18 118.07 C 124.01 115.74 121.86 113.40 120.74 111.31 C 103.20 81.11 85.72 50.88 68.17 20.69 C 66.92 18.61 65.89 16.37 64.30 14.53 C 62.99 13.45 61.76 15.23 61.22 16.28 Z" />
<path fill="#ffffff" opacity="1.00" d=" M 23.42 103.43 C 36.71 80.71 49.63 57.78 63.01 35.11 C 65.32 36.53 66.22 39.20 67.59 41.39 C 79.67 62.33 91.73 83.28 103.90 104.17 C 104.53 105.41 105.44 106.61 105.50 108.07 C 104.26 109.22 102.54 108.96 101.00 109.01 C 75.99 109.00 50.98 108.98 25.98 109.02 C 24.47 108.75 22.24 109.55 21.31 107.96 C 21.71 106.32 22.60 104.87 23.42 103.43 M 43.29 90.28 C 41.27 92.84 38.20 94.05 35.00 94.19 C 35.03 97.12 35.03 100.06 35.02 102.99 C 53.68 103.01 72.34 102.99 91.00 103.00 C 91.00 100.05 91.00 97.11 91.00 94.17 C 88.06 94.04 85.18 93.05 83.38 90.62 C 80.20 86.35 73.27 85.62 69.56 89.57 C 67.77 91.53 66.06 94.41 62.95 94.03 C 59.89 94.20 58.47 91.19 56.60 89.35 C 52.95 85.83 46.41 86.22 43.29 90.28 Z" />
<path fill="#606060" opacity="1.00" d=" M 61.22 16.28 C 61.76 15.23 62.99 13.45 64.30 14.53 C 65.89 16.37 66.92 18.61 68.17 20.69 C 85.72 50.88 103.20 81.11 120.74 111.31 C 121.86 113.40 124.01 115.74 122.18 118.07 C 83.44 117.89 44.68 118.09 5.94 117.97 C 4.56 118.09 3.86 117.45 3.83 116.03 C 4.79 113.40 6.43 111.10 7.79 108.67 C 25.58 77.86 43.43 47.09 61.22 16.28 M 23.42 103.43 C 22.60 104.87 21.71 106.32 21.31 107.96 C 22.24 109.55 24.47 108.75 25.98 109.02 C 50.98 108.98 75.99 109.00 101.00 109.01 C 102.54 108.96 104.26 109.22 105.50 108.07 C 105.44 106.61 104.53 105.41 103.90 104.17 C 91.73 83.28 79.67 62.33 67.59 41.39 C 66.22 39.20 65.32 36.53 63.01 35.11 C 49.63 57.78 36.71 80.71 23.42 103.43 Z" />
<path fill="#000000" opacity="1.00" d=" M 43.29 90.28 C 46.41 86.22 52.95 85.83 56.60 89.35 C 58.47 91.19 59.89 94.20 62.95 94.03 C 66.06 94.41 67.77 91.53 69.56 89.57 C 73.27 85.62 80.20 86.35 83.38 90.62 C 85.18 93.05 88.06 94.04 91.00 94.17 C 91.00 97.11 91.00 100.05 91.00 103.00 C 72.34 102.99 53.68 103.01 35.02 102.99 C 35.03 100.06 35.03 97.12 35.00 94.19 C 38.20 94.05 41.27 92.84 43.29 90.28 Z" />
</g>
<g id="normal">
<path fill="#ffffff" opacity="1.00" d=" M 60.89 10.98 C 61.60 9.26 63.94 8.03 65.41 9.60 C 67.98 12.83 69.63 16.67 71.84 20.14 C 86.24 45.37 100.77 70.52 115.48 95.57 C 115.77 96.05 116.05 96.55 116.33 97.05 C 119.36 102.83 122.92 108.32 126.01 114.06 C 127.63 116.81 125.43 121.26 122.04 120.97 C 85.03 121.05 48.02 120.96 11.01 121.01 C 8.08 121.00 5.13 121.09 2.22 120.69 C 0.26 120.22 -0.34 117.82 0.43 116.16 C 1.31 113.93 2.61 111.91 3.81 109.84 C 22.85 76.89 41.84 43.92 60.89 10.98 M 61.22 16.28 C 43.43 47.09 25.58 77.86 7.79 108.67 C 6.43 111.10 4.79 113.40 3.83 116.03 C 3.86 117.45 4.56 118.09 5.94 117.97 C 44.68 118.09 83.44 117.89 122.18 118.07 C 124.01 115.74 121.86 113.40 120.74 111.31 C 103.20 81.11 85.72 50.88 68.17 20.69 C 66.92 18.61 65.89 16.37 64.30 14.53 C 62.99 13.45 61.76 15.23 61.22 16.28 Z" />
<path fill="#ffffff" opacity="1.00" d=" M 23.42 103.43 C 36.71 80.71 49.63 57.78 63.01 35.11 C 65.32 36.53 66.22 39.20 67.59 41.39 C 79.67 62.33 91.73 83.28 103.90 104.17 C 104.53 105.41 105.44 106.61 105.50 108.07 C 104.26 109.22 102.54 108.96 101.00 109.01 C 75.99 109.00 50.98 108.98 25.98 109.02 C 24.47 108.75 22.24 109.55 21.31 107.96 C 21.71 106.32 22.60 104.87 23.42 103.43 M 43.29 90.28 C 41.27 92.84 38.20 94.05 35.00 94.19 C 35.03 97.12 35.03 100.06 35.02 102.99 C 53.68 103.01 72.34 102.99 91.00 103.00 C 91.00 100.05 91.00 97.11 91.00 94.17 C 88.06 94.04 85.18 93.05 83.38 90.62 C 80.20 86.35 73.27 85.62 69.56 89.57 C 67.77 91.53 66.06 94.41 62.95 94.03 C 59.89 94.20 58.47 91.19 56.60 89.35 C 52.95 85.83 46.41 86.22 43.29 90.28 Z" />
<path fill="#de2e2e" opacity="1.00" d=" M 61.22 16.28 C 61.76 15.23 62.99 13.45 64.30 14.53 C 65.89 16.37 66.92 18.61 68.17 20.69 C 85.72 50.88 103.20 81.11 120.74 111.31 C 121.86 113.40 124.01 115.74 122.18 118.07 C 83.44 117.89 44.68 118.09 5.94 117.97 C 4.56 118.09 3.86 117.45 3.83 116.03 C 4.79 113.40 6.43 111.10 7.79 108.67 C 25.58 77.86 43.43 47.09 61.22 16.28 M 23.42 103.43 C 22.60 104.87 21.71 106.32 21.31 107.96 C 22.24 109.55 24.47 108.75 25.98 109.02 C 50.98 108.98 75.99 109.00 101.00 109.01 C 102.54 108.96 104.26 109.22 105.50 108.07 C 105.44 106.61 104.53 105.41 103.90 104.17 C 91.73 83.28 79.67 62.33 67.59 41.39 C 66.22 39.20 65.32 36.53 63.01 35.11 C 49.63 57.78 36.71 80.71 23.42 103.43 Z" />
<path fill="#000000" opacity="1.00" d=" M 43.29 90.28 C 46.41 86.22 52.95 85.83 56.60 89.35 C 58.47 91.19 59.89 94.20 62.95 94.03 C 66.06 94.41 67.77 91.53 69.56 89.57 C 73.27 85.62 80.20 86.35 83.38 90.62 C 85.18 93.05 88.06 94.04 91.00 94.17 C 91.00 97.11 91.00 100.05 91.00 103.00 C 72.34 102.99 53.68 103.01 35.02 102.99 C 35.03 100.06 35.03 97.12 35.00 94.19 C 38.20 94.05 41.27 92.84 43.29 90.28 Z" />
</g>
</svg>
