<?xml version="1.0" encoding="UTF-8" ?>
<!DOCTYPE svg PUBLIC "-//W3C//DTD SVG 1.1//EN" "http://www.w3.org/Graphics/SVG/1.1/DTD/svg11.dtd">
<svg width="130pt" height="130pt" viewBox="0 0 130 130" version="1.1" xmlns="http://www.w3.org/2000/svg">
<g id="disabled">
<path fill="#909090" opacity="1.00" d=" M 23.07 104.05 C 36.44 81.17 49.44 58.07 62.94 35.26 C 64.48 35.54 65.04 37.09 65.79 38.24 C 78.79 60.94 91.99 83.53 105.01 106.22 C 106.38 107.61 104.67 109.26 103.15 108.98 C 77.44 109.04 51.73 108.96 26.01 109.02 C 24.50 108.79 22.35 109.53 21.35 108.02 C 21.48 106.55 22.41 105.33 23.07 104.05 M 50.87 67.87 C 51.75 69.16 52.61 70.47 53.44 71.79 C 52.61 71.74 50.95 71.63 50.12 71.57 C 50.03 73.24 50.01 74.92 50.08 76.59 C 52.28 76.53 54.48 76.65 56.68 76.84 C 57.71 78.55 58.80 80.24 59.93 81.89 C 57.40 82.05 54.86 82.07 52.33 81.94 C 51.20 80.26 50.03 78.61 48.84 76.98 C 47.52 77.91 46.20 78.84 44.90 79.79 C 45.30 80.35 46.12 81.47 46.53 82.03 C 45.02 82.02 43.52 82.02 42.02 82.01 C 42.02 83.67 42.01 85.33 42.01 86.99 C 43.64 86.98 45.27 86.98 46.90 86.98 C 46.23 87.93 45.56 88.87 44.89 89.82 C 46.21 90.79 47.56 91.73 48.96 92.60 C 50.20 90.68 51.56 88.84 52.90 86.98 C 55.48 86.99 58.07 87.00 60.65 87.01 C 59.07 89.22 58.09 91.94 56.15 93.86 C 53.99 94.23 51.77 94.16 49.60 94.47 C 49.72 96.06 49.84 97.64 49.96 99.22 C 50.80 99.17 52.48 99.05 53.32 98.99 C 52.51 100.25 51.72 101.53 50.93 102.80 C 52.24 103.61 53.55 104.43 54.86 105.25 C 55.67 103.99 56.47 102.73 57.30 101.48 C 57.62 102.23 58.25 103.72 58.57 104.46 C 60.06 103.83 61.54 103.20 63.03 102.57 C 62.15 100.49 61.28 98.40 60.37 96.33 C 61.80 94.03 63.23 91.72 64.66 89.42 C 66.05 91.63 67.45 93.83 68.86 96.02 C 68.02 98.07 67.20 100.13 66.39 102.20 C 67.88 102.81 69.36 103.42 70.84 104.04 C 71.16 103.31 71.78 101.85 72.09 101.12 C 72.88 102.30 73.65 103.48 74.43 104.66 C 75.70 103.79 76.99 102.93 78.27 102.08 C 77.48 100.84 76.68 99.60 75.89 98.36 C 76.77 98.43 78.53 98.58 79.41 98.65 C 79.45 97.00 79.50 95.35 79.57 93.71 C 77.28 93.62 74.99 93.52 72.71 93.36 C 71.35 91.25 69.99 89.14 68.66 87.01 C 70.86 87.01 73.06 87.01 75.26 86.94 C 76.71 88.81 78.06 90.74 79.42 92.67 C 80.73 91.72 82.04 90.78 83.35 89.84 C 82.70 88.90 82.06 87.95 81.42 87.00 C 82.95 87.00 84.47 87.00 86.00 87.00 C 86.00 85.33 86.00 83.67 86.00 82.00 C 84.60 82.00 83.21 82.00 81.81 82.00 C 82.20 81.43 82.96 80.30 83.34 79.73 C 82.02 78.80 80.71 77.88 79.40 76.96 C 78.21 78.64 77.01 80.32 75.81 82.00 C 73.62 82.00 71.42 82.00 69.22 81.99 C 70.26 80.28 71.31 78.57 72.36 76.86 C 74.52 76.71 76.68 76.56 78.85 76.42 C 78.72 74.80 78.61 73.18 78.49 71.56 C 77.73 71.60 76.19 71.68 75.43 71.72 C 76.23 70.50 77.03 69.28 77.83 68.06 C 76.50 67.21 75.17 66.38 73.84 65.54 C 73.01 66.91 72.17 68.27 71.34 69.64 C 70.86 68.54 70.38 67.44 69.91 66.35 C 68.43 66.98 66.94 67.60 65.44 68.18 C 66.36 70.37 67.26 72.56 68.23 74.73 C 66.99 76.68 65.78 78.64 64.60 80.63 C 63.22 78.52 61.87 76.41 60.54 74.28 C 61.43 72.20 62.27 70.11 63.09 68.01 C 61.60 67.40 60.10 66.79 58.61 66.18 C 58.32 66.92 57.75 68.41 57.46 69.15 C 56.43 67.94 55.55 66.61 54.75 65.24 C 53.41 66.04 52.11 66.91 50.87 67.87 Z" />
<path fill="#000000" opacity="1.00" d=" M 50.87 67.87 C 52.11 66.91 53.41 66.04 54.75 65.24 C 55.55 66.61 56.43 67.94 57.46 69.15 C 57.75 68.41 58.32 66.92 58.61 66.18 C 60.10 66.79 61.60 67.40 63.09 68.01 C 62.27 70.11 61.43 72.20 60.54 74.28 C 61.87 76.41 63.22 78.52 64.60 80.63 C 65.78 78.64 66.99 76.68 68.23 74.73 C 67.26 72.56 66.36 70.37 65.44 68.18 C 66.94 67.60 68.43 66.98 69.91 66.35 C 70.38 67.44 70.86 68.54 71.34 69.64 C 72.17 68.27 73.01 66.91 73.84 65.54 C 75.17 66.38 76.50 67.21 77.83 68.06 C 77.03 69.28 76.23 70.50 75.43 71.72 C 76.19 71.68 77.73 71.60 78.49 71.56 C 78.61 73.18 78.72 74.80 78.85 76.42 C 76.68 76.56 74.52 76.71 72.36 76.86 C 71.31 78.57 70.26 80.28 69.22 81.99 C 71.42 82.00 73.62 82.00 75.81 82.00 C 77.01 80.32 78.21 78.64 79.40 76.96 C 80.71 77.88 82.02 78.80 83.34 79.73 C 82.96 80.30 82.20 81.43 81.81 82.00 C 83.21 82.00 84.60 82.00 86.00 82.00 C 86.00 83.67 86.00 85.33 86.00 87.00 C 84.47 87.00 82.95 87.00 81.42 87.00 C 82.06 87.95 82.70 88.90 83.35 89.84 C 82.04 90.78 80.73 91.72 79.42 92.67 C 78.06 90.74 76.71 88.81 75.26 86.94 C 73.06 87.01 70.86 87.01 68.66 87.01 C 69.99 89.14 71.35 91.25 72.71 93.36 C 74.99 93.52 77.28 93.62 79.57 93.71 C 79.50 95.35 79.45 97.00 79.41 98.65 C 78.53 98.58 76.77 98.43 75.89 98.36 C 76.68 99.60 77.48 100.84 78.27 102.08 C 76.99 102.93 75.70 103.79 74.43 104.66 C 73.65 103.48 72.88 102.30 72.09 101.12 C 71.78 101.85 71.16 103.31 70.84 104.04 C 69.36 103.42 67.88 102.81 66.39 102.20 C 67.20 100.13 68.02 98.07 68.86 96.02 C 67.45 93.83 66.05 91.63 64.66 89.42 C 63.23 91.72 61.80 94.03 60.37 96.33 C 61.28 98.40 62.15 100.49 63.03 102.57 C 61.54 103.20 60.06 103.83 58.57 104.46 C 58.25 103.72 57.62 102.23 57.30 101.48 C 56.47 102.73 55.67 103.99 54.86 105.25 C 53.55 104.43 52.24 103.61 50.93 102.80 C 51.72 101.53 52.51 100.25 53.32 98.99 C 52.48 99.05 50.80 99.17 49.96 99.22 C 49.84 97.64 49.72 96.06 49.60 94.47 C 51.77 94.16 53.99 94.23 56.15 93.86 C 58.09 91.94 59.07 89.22 60.65 87.01 C 58.07 87.00 55.48 86.99 52.90 86.98 C 51.56 88.84 50.20 90.68 48.96 92.60 C 47.56 91.73 46.21 90.79 44.89 89.82 C 45.56 88.87 46.23 87.93 46.90 86.98 C 45.27 86.98 43.64 86.98 42.01 86.99 C 42.01 85.33 42.02 83.67 42.02 82.01 C 43.52 82.02 45.02 82.02 46.53 82.03 C 46.12 81.47 45.30 80.35 44.90 79.79 C 46.20 78.84 47.52 77.91 48.84 76.98 C 50.03 78.61 51.20 80.26 52.33 81.94 C 54.86 82.07 57.40 82.05 59.93 81.89 C 58.80 80.24 57.71 78.55 56.68 76.84 C 54.48 76.65 52.28 76.53 50.08 76.59 C 50.01 74.92 50.03 73.24 50.12 71.57 C 50.95 71.63 52.61 71.74 53.44 71.79 C 52.61 70.47 51.75 69.16 50.87 67.87 Z" />
<path fill="#606060" opacity="1.00" d=" M 61.24 16.23 C 61.78 15.30 62.38 14.15 63.64 14.20 C 64.91 14.56 65.31 16.04 66.04 17.00 C 84.85 49.45 103.71 81.88 122.46 114.36 C 123.44 115.57 122.94 117.01 122.01 118.06 C 83.30 117.91 44.59 118.05 5.88 117.99 C 3.78 118.41 3.36 115.66 4.50 114.41 C 23.35 81.65 42.36 48.98 61.24 16.23 M 23.07 104.05 C 22.41 105.33 21.48 106.55 21.35 108.02 C 22.35 109.53 24.50 108.79 26.01 109.02 C 51.73 108.96 77.44 109.04 103.15 108.98 C 104.67 109.26 106.38 107.61 105.01 106.22 C 91.99 83.53 78.79 60.94 65.79 38.24 C 65.04 37.09 64.48 35.54 62.94 35.26 C 49.44 58.07 36.44 81.17 23.07 104.05 Z" />
</g>
<g id="normal">
<path fill="#ffc500" opacity="1.00" d=" M 23.07 104.05 C 36.44 81.17 49.44 58.07 62.94 35.26 C 64.48 35.54 65.04 37.09 65.79 38.24 C 78.79 60.94 91.99 83.53 105.01 106.22 C 106.38 107.61 104.67 109.26 103.15 108.98 C 77.44 109.04 51.73 108.96 26.01 109.02 C 24.50 108.79 22.35 109.53 21.35 108.02 C 21.48 106.55 22.41 105.33 23.07 104.05 M 50.87 67.87 C 51.75 69.16 52.61 70.47 53.44 71.79 C 52.61 71.74 50.95 71.63 50.12 71.57 C 50.03 73.24 50.01 74.92 50.08 76.59 C 52.28 76.53 54.48 76.65 56.68 76.84 C 57.71 78.55 58.80 80.24 59.93 81.89 C 57.40 82.05 54.86 82.07 52.33 81.94 C 51.20 80.26 50.03 78.61 48.84 76.98 C 47.52 77.91 46.20 78.84 44.90 79.79 C 45.30 80.35 46.12 81.47 46.53 82.03 C 45.02 82.02 43.52 82.02 42.02 82.01 C 42.02 83.67 42.01 85.33 42.01 86.99 C 43.64 86.98 45.27 86.98 46.90 86.98 C 46.23 87.93 45.56 88.87 44.89 89.82 C 46.21 90.79 47.56 91.73 48.96 92.60 C 50.20 90.68 51.56 88.84 52.90 86.98 C 55.48 86.99 58.07 87.00 60.65 87.01 C 59.07 89.22 58.09 91.94 56.15 93.86 C 53.99 94.23 51.77 94.16 49.60 94.47 C 49.72 96.06 49.84 97.64 49.96 99.22 C 50.80 99.17 52.48 99.05 53.32 98.99 C 52.51 100.25 51.72 101.53 50.93 102.80 C 52.24 103.61 53.55 104.43 54.86 105.25 C 55.67 103.99 56.47 102.73 57.30 101.48 C 57.62 102.23 58.25 103.72 58.57 104.46 C 60.06 103.83 61.54 103.20 63.03 102.57 C 62.15 100.49 61.28 98.40 60.37 96.33 C 61.80 94.03 63.23 91.72 64.66 89.42 C 66.05 91.63 67.45 93.83 68.86 96.02 C 68.02 98.07 67.20 100.13 66.39 102.20 C 67.88 102.81 69.36 103.42 70.84 104.04 C 71.16 103.31 71.78 101.85 72.09 101.12 C 72.88 102.30 73.65 103.48 74.43 104.66 C 75.70 103.79 76.99 102.93 78.27 102.08 C 77.48 100.84 76.68 99.60 75.89 98.36 C 76.77 98.43 78.53 98.58 79.41 98.65 C 79.45 97.00 79.50 95.35 79.57 93.71 C 77.28 93.62 74.99 93.52 72.71 93.36 C 71.35 91.25 69.99 89.14 68.66 87.01 C 70.86 87.01 73.06 87.01 75.26 86.94 C 76.71 88.81 78.06 90.74 79.42 92.67 C 80.73 91.72 82.04 90.78 83.35 89.84 C 82.70 88.90 82.06 87.95 81.42 87.00 C 82.95 87.00 84.47 87.00 86.00 87.00 C 86.00 85.33 86.00 83.67 86.00 82.00 C 84.60 82.00 83.21 82.00 81.81 82.00 C 82.20 81.43 82.96 80.30 83.34 79.73 C 82.02 78.80 80.71 77.88 79.40 76.96 C 78.21 78.64 77.01 80.32 75.81 82.00 C 73.62 82.00 71.42 82.00 69.22 81.99 C 70.26 80.28 71.31 78.57 72.36 76.86 C 74.52 76.71 76.68 76.56 78.85 76.42 C 78.72 74.80 78.61 73.18 78.49 71.56 C 77.73 71.60 76.19 71.68 75.43 71.72 C 76.23 70.50 77.03 69.28 77.83 68.06 C 76.50 67.21 75.17 66.38 73.84 65.54 C 73.01 66.91 72.17 68.27 71.34 69.64 C 70.86 68.54 70.38 67.44 69.91 66.35 C 68.43 66.98 66.94 67.60 65.44 68.18 C 66.36 70.37 67.26 72.56 68.23 74.73 C 66.99 76.68 65.78 78.64 64.60 80.63 C 63.22 78.52 61.87 76.41 60.54 74.28 C 61.43 72.20 62.27 70.11 63.09 68.01 C 61.60 67.40 60.10 66.79 58.61 66.18 C 58.32 66.92 57.75 68.41 57.46 69.15 C 56.43 67.94 55.55 66.61 54.75 65.24 C 53.41 66.04 52.11 66.91 50.87 67.87 Z" />
<path fill="#000000" opacity="1.00" d=" M 50.87 67.87 C 52.11 66.91 53.41 66.04 54.75 65.24 C 55.55 66.61 56.43 67.94 57.46 69.15 C 57.75 68.41 58.32 66.92 58.61 66.18 C 60.10 66.79 61.60 67.40 63.09 68.01 C 62.27 70.11 61.43 72.20 60.54 74.28 C 61.87 76.41 63.22 78.52 64.60 80.63 C 65.78 78.64 66.99 76.68 68.23 74.73 C 67.26 72.56 66.36 70.37 65.44 68.18 C 66.94 67.60 68.43 66.98 69.91 66.35 C 70.38 67.44 70.86 68.54 71.34 69.64 C 72.17 68.27 73.01 66.91 73.84 65.54 C 75.17 66.38 76.50 67.21 77.83 68.06 C 77.03 69.28 76.23 70.50 75.43 71.72 C 76.19 71.68 77.73 71.60 78.49 71.56 C 78.61 73.18 78.72 74.80 78.85 76.42 C 76.68 76.56 74.52 76.71 72.36 76.86 C 71.31 78.57 70.26 80.28 69.22 81.99 C 71.42 82.00 73.62 82.00 75.81 82.00 C 77.01 80.32 78.21 78.64 79.40 76.96 C 80.71 77.88 82.02 78.80 83.34 79.73 C 82.96 80.30 82.20 81.43 81.81 82.00 C 83.21 82.00 84.60 82.00 86.00 82.00 C 86.00 83.67 86.00 85.33 86.00 87.00 C 84.47 87.00 82.95 87.00 81.42 87.00 C 82.06 87.95 82.70 88.90 83.35 89.84 C 82.04 90.78 80.73 91.72 79.42 92.67 C 78.06 90.74 76.71 88.81 75.26 86.94 C 73.06 87.01 70.86 87.01 68.66 87.01 C 69.99 89.14 71.35 91.25 72.71 93.36 C 74.99 93.52 77.28 93.62 79.57 93.71 C 79.50 95.35 79.45 97.00 79.41 98.65 C 78.53 98.58 76.77 98.43 75.89 98.36 C 76.68 99.60 77.48 100.84 78.27 102.08 C 76.99 102.93 75.70 103.79 74.43 104.66 C 73.65 103.48 72.88 102.30 72.09 101.12 C 71.78 101.85 71.16 103.31 70.84 104.04 C 69.36 103.42 67.88 102.81 66.39 102.20 C 67.20 100.13 68.02 98.07 68.86 96.02 C 67.45 93.83 66.05 91.63 64.66 89.42 C 63.23 91.72 61.80 94.03 60.37 96.33 C 61.28 98.40 62.15 100.49 63.03 102.57 C 61.54 103.20 60.06 103.83 58.57 104.46 C 58.25 103.72 57.62 102.23 57.30 101.48 C 56.47 102.73 55.67 103.99 54.86 105.25 C 53.55 104.43 52.24 103.61 50.93 102.80 C 51.72 101.53 52.51 100.25 53.32 98.99 C 52.48 99.05 50.80 99.17 49.96 99.22 C 49.84 97.64 49.72 96.06 49.60 94.47 C 51.77 94.16 53.99 94.23 56.15 93.86 C 58.09 91.94 59.07 89.22 60.65 87.01 C 58.07 87.00 55.48 86.99 52.90 86.98 C 51.56 88.84 50.20 90.68 48.96 92.60 C 47.56 91.73 46.21 90.79 44.89 89.82 C 45.56 88.87 46.23 87.93 46.90 86.98 C 45.27 86.98 43.64 86.98 42.01 86.99 C 42.01 85.33 42.02 83.67 42.02 82.01 C 43.52 82.02 45.02 82.02 46.53 82.03 C 46.12 81.47 45.30 80.35 44.90 79.79 C 46.20 78.84 47.52 77.91 48.84 76.98 C 50.03 78.61 51.20 80.26 52.33 81.94 C 54.86 82.07 57.40 82.05 59.93 81.89 C 58.80 80.24 57.71 78.55 56.68 76.84 C 54.48 76.65 52.28 76.53 50.08 76.59 C 50.01 74.92 50.03 73.24 50.12 71.57 C 50.95 71.63 52.61 71.74 53.44 71.79 C 52.61 70.47 51.75 69.16 50.87 67.87 Z" />
<path fill="#cc0000" opacity="1.00" d=" M 61.24 16.23 C 61.78 15.30 62.38 14.15 63.64 14.20 C 64.91 14.56 65.31 16.04 66.04 17.00 C 84.85 49.45 103.71 81.88 122.46 114.36 C 123.44 115.57 122.94 117.01 122.01 118.06 C 83.30 117.91 44.59 118.05 5.88 117.99 C 3.78 118.41 3.36 115.66 4.50 114.41 C 23.35 81.65 42.36 48.98 61.24 16.23 M 23.07 104.05 C 22.41 105.33 21.48 106.55 21.35 108.02 C 22.35 109.53 24.50 108.79 26.01 109.02 C 51.73 108.96 77.44 109.04 103.15 108.98 C 104.67 109.26 106.38 107.61 105.01 106.22 C 91.99 83.53 78.79 60.94 65.79 38.24 C 65.04 37.09 64.48 35.54 62.94 35.26 C 49.44 58.07 36.44 81.17 23.07 104.05 Z" />
</g>
</svg>
