<?xml version="1.0" encoding="UTF-8" ?>
<!DOCTYPE svg PUBLIC "-//W3C//DTD SVG 1.1//EN" "http://www.w3.org/Graphics/SVG/1.1/DTD/svg11.dtd">
<svg width="173pt" height="173pt" viewBox="0 0 173 173" version="1.1" xmlns="http://www.w3.org/2000/svg">
<g id="disabled">
<path fill="#000000" opacity="1.00" d=" M 49.46 1.24 C 72.11 1.30 94.76 1.18 117.41 1.30 C 133.64 17.47 150.28 33.24 166.61 49.30 C 166.90 72.01 166.63 94.75 166.65 117.46 C 150.48 133.70 134.80 150.43 118.60 166.64 C 95.56 166.62 72.53 166.59 49.49 166.66 C 33.12 151.13 17.64 134.67 1.42 118.99 C 1.22 95.77 1.27 72.50 1.40 49.27 C 17.58 33.42 33.39 17.20 49.46 1.24 M 52.30 6.46 C 50.48 7.91 48.81 9.54 47.22 11.24 C 33.88 24.57 20.52 37.89 7.22 51.25 C 6.14 52.20 6.64 53.77 6.50 55.01 C 6.56 75.00 6.42 94.99 6.40 114.98 C 6.33 116.75 8.18 117.68 9.14 118.91 C 23.57 133.15 37.59 147.83 52.30 161.76 C 71.86 161.64 91.41 161.72 110.97 161.71 C 113.13 161.55 115.80 162.39 117.42 160.49 C 131.85 146.09 146.29 131.70 160.66 117.23 C 162.01 116.23 161.68 114.47 161.73 113.01 C 161.60 92.68 161.85 72.33 161.61 52.00 C 160.39 50.06 158.31 48.85 156.81 47.14 C 142.66 33.70 129.00 19.74 114.67 6.48 C 93.88 6.52 73.09 6.60 52.30 6.46 Z" />
<path fill="#000000" opacity="1.00" d=" M 18.80 61.83 C 20.67 58.58 24.30 57.13 27.74 56.24 C 30.81 56.89 34.27 56.99 36.68 59.26 C 40.52 63.11 41.97 68.62 42.29 73.91 C 40.17 74.02 38.05 74.26 35.96 74.66 C 34.84 71.36 34.01 66.72 29.83 66.13 C 24.78 64.84 20.11 71.32 23.51 75.55 C 28.16 80.23 36.02 80.40 39.92 86.01 C 43.77 91.11 43.56 97.95 43.05 104.00 C 41.89 109.30 38.92 115.29 33.00 116.31 C 27.51 118.37 21.13 115.60 18.27 110.63 C 16.15 106.44 14.57 101.86 14.72 97.11 C 16.77 96.90 18.81 96.61 20.84 96.26 C 21.95 99.78 22.51 104.03 25.76 106.31 C 29.52 108.51 34.89 106.27 35.85 101.96 C 36.27 99.18 36.47 95.91 34.14 93.88 C 30.55 91.19 26.01 90.21 22.32 87.72 C 14.84 81.56 14.12 69.88 18.80 61.83 Z" />
<path fill="#000000" opacity="1.00" d=" M 96.46 57.36 C 100.55 56.55 105.70 55.91 108.94 59.18 C 114.37 63.52 116.91 70.44 117.88 77.12 C 118.68 87.06 118.95 97.49 114.84 106.81 C 112.85 110.90 109.70 114.92 105.16 116.27 C 100.41 118.07 94.95 115.92 91.44 112.57 C 85.46 104.87 84.00 94.69 84.10 85.20 C 85.05 80.31 84.48 75.16 86.43 70.48 C 88.13 65.19 91.22 59.76 96.46 57.36 M 99.46 66.42 C 93.86 68.71 92.25 75.49 91.83 80.93 C 91.25 88.76 91.04 97.56 95.79 104.25 C 98.32 108.13 104.73 108.05 107.20 104.15 C 110.07 99.71 111.19 94.30 111.04 89.07 C 111.05 82.91 111.55 76.27 108.22 70.78 C 106.72 67.66 102.94 65.07 99.46 66.42 Z" />
<path fill="#000000" opacity="1.00" d=" M 50.73 57.66 C 60.16 57.66 69.59 57.67 79.02 57.68 C 79.03 60.81 79.02 63.95 79.02 67.08 C 75.43 67.09 71.84 67.04 68.26 67.17 C 67.94 83.44 68.10 99.72 68.05 115.99 C 65.70 116.00 63.35 116.00 61.00 116.00 C 60.95 99.71 61.09 83.42 60.93 67.14 C 57.48 67.07 54.04 67.08 50.59 67.07 C 50.63 63.93 50.68 60.80 50.73 57.66 Z" />
<path fill="#000000" opacity="1.00" d=" M 127.01 57.69 C 133.58 57.81 140.20 57.33 146.73 58.20 C 150.46 59.91 152.76 63.73 153.44 67.67 C 154.91 75.19 155.12 83.83 150.26 90.23 C 146.23 94.76 139.53 93.89 134.08 94.01 C 133.98 101.34 134.07 108.67 134.03 115.99 C 131.69 116.00 129.34 116.00 127.00 115.99 C 127.01 96.56 126.99 77.13 127.01 57.69 M 134.15 67.11 C 133.90 72.74 134.09 78.37 134.03 83.99 C 137.58 83.68 141.64 84.98 144.74 82.71 C 147.79 79.87 147.32 75.16 146.58 71.45 C 145.00 66.25 138.44 66.94 134.15 67.11 Z" />
<path fill="#606060" opacity="1.00" d=" M 52.30 6.46 C 73.09 6.60 93.88 6.52 114.67 6.48 C 129.00 19.74 142.66 33.70 156.81 47.14 C 158.31 48.85 160.39 50.06 161.61 52.00 C 161.85 72.33 161.60 92.68 161.73 113.01 C 161.68 114.47 162.01 116.23 160.66 117.23 C 146.29 131.70 131.85 146.09 117.42 160.49 C 115.80 162.39 113.13 161.55 110.97 161.71 C 91.41 161.72 71.86 161.64 52.30 161.76 C 37.59 147.83 23.57 133.15 9.14 118.91 C 8.18 117.68 6.33 116.75 6.40 114.98 C 6.42 94.99 6.56 75.00 6.50 55.01 C 6.64 53.77 6.14 52.20 7.22 51.25 C 20.52 37.89 33.88 24.57 47.22 11.24 C 48.81 9.54 50.48 7.91 52.30 6.46 M 18.80 61.83 C 14.12 69.88 14.84 81.56 22.32 87.72 C 26.01 90.21 30.55 91.19 34.14 93.88 C 36.47 95.91 36.27 99.18 35.85 101.96 C 34.89 106.27 29.52 108.51 25.76 106.31 C 22.51 104.03 21.95 99.78 20.84 96.26 C 18.81 96.61 16.77 96.90 14.72 97.11 C 14.57 101.86 16.15 106.44 18.27 110.63 C 21.13 115.60 27.51 118.37 33.00 116.31 C 38.92 115.29 41.89 109.30 43.05 104.00 C 43.56 97.95 43.77 91.11 39.92 86.01 C 36.02 80.40 28.16 80.23 23.51 75.55 C 20.11 71.32 24.78 64.84 29.83 66.13 C 34.01 66.72 34.84 71.36 35.96 74.66 C 38.05 74.26 40.17 74.02 42.29 73.91 C 41.97 68.62 40.52 63.11 36.68 59.26 C 34.27 56.99 30.81 56.89 27.74 56.24 C 24.30 57.13 20.67 58.58 18.80 61.83 M 96.46 57.36 C 91.22 59.76 88.13 65.19 86.43 70.48 C 84.48 75.16 85.05 80.31 84.10 85.20 C 84.00 94.69 85.46 104.87 91.44 112.57 C 94.95 115.92 100.41 118.07 105.16 116.27 C 109.70 114.92 112.85 110.90 114.84 106.81 C 118.95 97.49 118.68 87.06 117.88 77.12 C 116.91 70.44 114.37 63.52 108.94 59.18 C 105.70 55.91 100.55 56.55 96.46 57.36 M 50.73 57.66 C 50.68 60.80 50.63 63.93 50.59 67.07 C 54.04 67.08 57.48 67.07 60.93 67.14 C 61.09 83.42 60.95 99.71 61.00 116.00 C 63.35 116.00 65.70 116.00 68.05 115.99 C 68.10 99.72 67.94 83.44 68.26 67.17 C 71.84 67.04 75.43 67.09 79.02 67.08 C 79.02 63.95 79.03 60.81 79.02 57.68 C 69.59 57.67 60.16 57.66 50.73 57.66 M 127.01 57.69 C 126.99 77.13 127.01 96.56 127.00 115.99 C 129.34 116.00 131.69 116.00 134.03 115.99 C 134.07 108.67 133.98 101.34 134.08 94.01 C 139.53 93.89 146.23 94.76 150.26 90.23 C 155.12 83.83 154.91 75.19 153.44 67.67 C 152.76 63.73 150.46 59.91 146.73 58.20 C 140.20 57.33 133.58 57.81 127.01 57.69 Z" />
<path fill="#606060" opacity="1.00" d=" M 99.46 66.42 C 102.94 65.07 106.72 67.66 108.22 70.78 C 111.55 76.27 111.05 82.91 111.04 89.07 C 111.19 94.30 110.07 99.71 107.20 104.15 C 104.73 108.05 98.32 108.13 95.79 104.25 C 91.04 97.56 91.25 88.76 91.83 80.93 C 92.25 75.49 93.86 68.71 99.46 66.42 Z" />
<path fill="#606060" opacity="1.00" d=" M 134.15 67.11 C 138.44 66.94 145.00 66.25 146.58 71.45 C 147.32 75.16 147.79 79.87 144.74 82.71 C 141.64 84.98 137.58 83.68 134.03 83.99 C 134.09 78.37 133.90 72.74 134.15 67.11 Z" />
</g>
<g id="normal">
<path fill="#ffffff" opacity="1.00" d=" M 49.46 1.24 C 72.11 1.30 94.76 1.18 117.41 1.30 C 133.64 17.47 150.28 33.24 166.61 49.30 C 166.90 72.01 166.63 94.75 166.65 117.46 C 150.48 133.70 134.80 150.43 118.60 166.64 C 95.56 166.62 72.53 166.59 49.49 166.66 C 33.12 151.13 17.64 134.67 1.42 118.99 C 1.22 95.77 1.27 72.50 1.40 49.27 C 17.58 33.42 33.39 17.20 49.46 1.24 M 52.30 6.46 C 50.48 7.91 48.81 9.54 47.22 11.24 C 33.88 24.57 20.52 37.89 7.22 51.25 C 6.14 52.20 6.64 53.77 6.50 55.01 C 6.56 75.00 6.42 94.99 6.40 114.98 C 6.33 116.75 8.18 117.68 9.14 118.91 C 23.57 133.15 37.59 147.83 52.30 161.76 C 71.86 161.64 91.41 161.72 110.97 161.71 C 113.13 161.55 115.80 162.39 117.42 160.49 C 131.85 146.09 146.29 131.70 160.66 117.23 C 162.01 116.23 161.68 114.47 161.73 113.01 C 161.60 92.68 161.85 72.33 161.61 52.00 C 160.39 50.06 158.31 48.85 156.81 47.14 C 142.66 33.70 129.00 19.74 114.67 6.48 C 93.88 6.52 73.09 6.60 52.30 6.46 Z" />
<path fill="#ffffff" opacity="1.00" d=" M 18.80 61.83 C 20.67 58.58 24.30 57.13 27.74 56.24 C 30.81 56.89 34.27 56.99 36.68 59.26 C 40.52 63.11 41.97 68.62 42.29 73.91 C 40.17 74.02 38.05 74.26 35.96 74.66 C 34.84 71.36 34.01 66.72 29.83 66.13 C 24.78 64.84 20.11 71.32 23.51 75.55 C 28.16 80.23 36.02 80.40 39.92 86.01 C 43.77 91.11 43.56 97.95 43.05 104.00 C 41.89 109.30 38.92 115.29 33.00 116.31 C 27.51 118.37 21.13 115.60 18.27 110.63 C 16.15 106.44 14.57 101.86 14.72 97.11 C 16.77 96.90 18.81 96.61 20.84 96.26 C 21.95 99.78 22.51 104.03 25.76 106.31 C 29.52 108.51 34.89 106.27 35.85 101.96 C 36.27 99.18 36.47 95.91 34.14 93.88 C 30.55 91.19 26.01 90.21 22.32 87.72 C 14.84 81.56 14.12 69.88 18.80 61.83 Z" />
<path fill="#ffffff" opacity="1.00" d=" M 96.46 57.36 C 100.55 56.55 105.70 55.91 108.94 59.18 C 114.37 63.52 116.91 70.44 117.88 77.12 C 118.68 87.06 118.95 97.49 114.84 106.81 C 112.85 110.90 109.70 114.92 105.16 116.27 C 100.41 118.07 94.95 115.92 91.44 112.57 C 85.46 104.87 84.00 94.69 84.10 85.20 C 85.05 80.31 84.48 75.16 86.43 70.48 C 88.13 65.19 91.22 59.76 96.46 57.36 M 99.46 66.42 C 93.86 68.71 92.25 75.49 91.83 80.93 C 91.25 88.76 91.04 97.56 95.79 104.25 C 98.32 108.13 104.73 108.05 107.20 104.15 C 110.07 99.71 111.19 94.30 111.04 89.07 C 111.05 82.91 111.55 76.27 108.22 70.78 C 106.72 67.66 102.94 65.07 99.46 66.42 Z" />
<path fill="#ffffff" opacity="1.00" d=" M 50.73 57.66 C 60.16 57.66 69.59 57.67 79.02 57.68 C 79.03 60.81 79.02 63.95 79.02 67.08 C 75.43 67.09 71.84 67.04 68.26 67.17 C 67.94 83.44 68.10 99.72 68.05 115.99 C 65.70 116.00 63.35 116.00 61.00 116.00 C 60.95 99.71 61.09 83.42 60.93 67.14 C 57.48 67.07 54.04 67.08 50.59 67.07 C 50.63 63.93 50.68 60.80 50.73 57.66 Z" />
<path fill="#ffffff" opacity="1.00" d=" M 127.01 57.69 C 133.58 57.81 140.20 57.33 146.73 58.20 C 150.46 59.91 152.76 63.73 153.44 67.67 C 154.91 75.19 155.12 83.83 150.26 90.23 C 146.23 94.76 139.53 93.89 134.08 94.01 C 133.98 101.34 134.07 108.67 134.03 115.99 C 131.69 116.00 129.34 116.00 127.00 115.99 C 127.01 96.56 126.99 77.13 127.01 57.69 M 134.15 67.11 C 133.90 72.74 134.09 78.37 134.03 83.99 C 137.58 83.68 141.64 84.98 144.74 82.71 C 147.79 79.87 147.32 75.16 146.58 71.45 C 145.00 66.25 138.44 66.94 134.15 67.11 Z" />
<path fill="#de2e2e" opacity="1.00" d=" M 52.30 6.46 C 73.09 6.60 93.88 6.52 114.67 6.48 C 129.00 19.74 142.66 33.70 156.81 47.14 C 158.31 48.85 160.39 50.06 161.61 52.00 C 161.85 72.33 161.60 92.68 161.73 113.01 C 161.68 114.47 162.01 116.23 160.66 117.23 C 146.29 131.70 131.85 146.09 117.42 160.49 C 115.80 162.39 113.13 161.55 110.97 161.71 C 91.41 161.72 71.86 161.64 52.30 161.76 C 37.59 147.83 23.57 133.15 9.14 118.91 C 8.18 117.68 6.33 116.75 6.40 114.98 C 6.42 94.99 6.56 75.00 6.50 55.01 C 6.64 53.77 6.14 52.20 7.22 51.25 C 20.52 37.89 33.88 24.57 47.22 11.24 C 48.81 9.54 50.48 7.91 52.30 6.46 M 18.80 61.83 C 14.12 69.88 14.84 81.56 22.32 87.72 C 26.01 90.21 30.55 91.19 34.14 93.88 C 36.47 95.91 36.27 99.18 35.85 101.96 C 34.89 106.27 29.52 108.51 25.76 106.31 C 22.51 104.03 21.95 99.78 20.84 96.26 C 18.81 96.61 16.77 96.90 14.72 97.11 C 14.57 101.86 16.15 106.44 18.27 110.63 C 21.13 115.60 27.51 118.37 33.00 116.31 C 38.92 115.29 41.89 109.30 43.05 104.00 C 43.56 97.95 43.77 91.11 39.92 86.01 C 36.02 80.40 28.16 80.23 23.51 75.55 C 20.11 71.32 24.78 64.84 29.83 66.13 C 34.01 66.72 34.84 71.36 35.96 74.66 C 38.05 74.26 40.17 74.02 42.29 73.91 C 41.97 68.62 40.52 63.11 36.68 59.26 C 34.27 56.99 30.81 56.89 27.74 56.24 C 24.30 57.13 20.67 58.58 18.80 61.83 M 96.46 57.36 C 91.22 59.76 88.13 65.19 86.43 70.48 C 84.48 75.16 85.05 80.31 84.10 85.20 C 84.00 94.69 85.46 104.87 91.44 112.57 C 94.95 115.92 100.41 118.07 105.16 116.27 C 109.70 114.92 112.85 110.90 114.84 106.81 C 118.95 97.49 118.68 87.06 117.88 77.12 C 116.91 70.44 114.37 63.52 108.94 59.18 C 105.70 55.91 100.55 56.55 96.46 57.36 M 50.73 57.66 C 50.68 60.80 50.63 63.93 50.59 67.07 C 54.04 67.08 57.48 67.07 60.93 67.14 C 61.09 83.42 60.95 99.71 61.00 116.00 C 63.35 116.00 65.70 116.00 68.05 115.99 C 68.10 99.72 67.94 83.44 68.26 67.17 C 71.84 67.04 75.43 67.09 79.02 67.08 C 79.02 63.95 79.03 60.81 79.02 57.68 C 69.59 57.67 60.16 57.66 50.73 57.66 M 127.01 57.69 C 126.99 77.13 127.01 96.56 127.00 115.99 C 129.34 116.00 131.69 116.00 134.03 115.99 C 134.07 108.67 133.98 101.34 134.08 94.01 C 139.53 93.89 146.23 94.76 150.26 90.23 C 155.12 83.83 154.91 75.19 153.44 67.67 C 152.76 63.73 150.46 59.91 146.73 58.20 C 140.20 57.33 133.58 57.81 127.01 57.69 Z" />
<path fill="#de2e2e" opacity="1.00" d=" M 99.46 66.42 C 102.94 65.07 106.72 67.66 108.22 70.78 C 111.55 76.27 111.05 82.91 111.04 89.07 C 111.19 94.30 110.07 99.71 107.20 104.15 C 104.73 108.05 98.32 108.13 95.79 104.25 C 91.04 97.56 91.25 88.76 91.83 80.93 C 92.25 75.49 93.86 68.71 99.46 66.42 Z" />
<path fill="#de2e2e" opacity="1.00" d=" M 134.15 67.11 C 138.44 66.94 145.00 66.25 146.58 71.45 C 147.32 75.16 147.79 79.87 144.74 82.71 C 141.64 84.98 137.58 83.68 134.03 83.99 C 134.09 78.37 133.90 72.74 134.15 67.11 Z" />
</g>
</svg>
