<?xml version="1.0" encoding="UTF-8" ?>
<!DOCTYPE svg PUBLIC "-//W3C//DTD SVG 1.1//EN" "http://www.w3.org/Graphics/SVG/1.1/DTD/svg11.dtd">
<svg width="130pt" height="130pt" viewBox="0 0 130 130" version="1.1" xmlns="http://www.w3.org/2000/svg">
<g id="disabled">
<path fill="#ffffff" opacity="1.00" d=" M 64.07 10.22 C 65.24 7.97 68.35 8.86 69.11 10.98 C 88.87 45.14 108.57 79.34 128.31 113.51 C 129.76 115.61 131.08 119.65 127.75 120.72 C 125.50 120.98 123.23 121.02 120.97 121.01 C 83.29 120.95 45.60 121.07 7.92 120.96 C 5.03 121.24 3.07 117.96 3.51 115.39 C 4.25 113.11 5.64 111.11 6.74 109.00 C 10.83 102.17 14.62 95.15 18.82 88.39 C 19.90 86.82 20.84 85.17 21.66 83.46 C 24.22 78.74 26.90 74.07 29.74 69.52 C 30.84 67.92 31.80 66.22 32.64 64.47 C 35.22 59.75 37.88 55.06 40.75 50.51 C 41.60 49.30 42.33 48.02 42.95 46.68 C 45.79 41.32 48.97 36.15 51.98 30.89 C 53.10 29.10 54.12 27.26 55.14 25.42 C 58.13 20.36 60.86 15.14 64.07 10.22 M 63.96 17.00 C 45.26 49.25 26.52 81.49 7.87 113.77 C 6.84 115.10 7.00 116.65 7.72 118.07 C 46.18 117.91 84.65 118.05 123.11 118.00 C 123.76 117.92 125.07 117.77 125.73 117.70 C 126.66 116.12 125.57 114.59 124.85 113.20 C 107.12 82.59 89.41 51.96 71.71 21.34 C 70.19 18.89 69.07 16.11 66.97 14.08 C 65.38 14.25 64.75 15.85 63.96 17.00 Z" />
<path fill="#ffffff" opacity="1.00" d=" M 60.93 43.98 C 62.77 40.90 64.23 37.51 66.84 34.97 C 77.90 53.40 88.38 72.19 99.23 90.76 C 102.47 96.64 106.21 102.25 109.05 108.35 C 107.41 108.71 105.75 109.03 104.07 109.02 C 79.03 108.98 53.99 109.01 28.95 109.00 C 27.31 109.03 25.71 108.68 24.13 108.28 C 24.94 106.48 25.81 104.70 26.80 102.98 C 38.23 83.35 49.55 63.65 60.93 43.98 M 66.75 81.47 C 68.78 82.63 70.80 83.81 72.81 85.01 C 63.52 84.99 54.23 85.00 44.94 84.99 C 42.39 84.72 39.58 86.39 39.15 89.02 C 38.79 93.00 39.08 97.01 39.00 101.00 C 39.75 101.00 41.25 101.00 42.00 101.00 C 42.00 101.42 42.00 102.26 42.00 102.69 C 44.15 102.70 44.78 104.75 45.94 106.12 C 48.22 106.83 49.37 104.85 49.89 102.99 C 50.21 103.01 50.83 103.06 51.15 103.08 C 51.67 104.90 52.80 106.79 55.03 106.17 C 56.18 104.77 56.84 102.73 59.00 102.68 C 59.00 102.26 59.00 101.42 59.00 101.00 C 63.67 101.00 68.33 101.00 72.99 101.00 C 72.99 101.40 73.00 102.20 73.00 102.60 C 75.45 102.71 75.51 106.62 78.01 106.13 C 79.98 106.18 80.05 103.71 80.89 102.54 C 82.30 103.94 83.43 107.24 85.95 105.89 C 86.95 104.74 87.60 103.28 88.97 102.49 C 88.99 102.12 89.02 101.37 89.03 101.00 C 90.68 100.99 92.33 100.98 93.99 100.98 C 93.72 96.64 94.56 92.15 93.48 87.92 C 90.73 83.10 84.31 85.59 79.87 85.08 C 81.99 83.91 84.08 82.69 86.19 81.49 C 82.97 79.52 79.70 77.63 76.40 75.79 C 73.20 77.72 69.95 79.55 66.75 81.47 Z" />
<path fill="#ffffff" opacity="1.00" d=" M 69.69 81.53 C 71.90 80.15 74.15 78.84 76.38 77.49 C 78.72 78.76 81.02 80.09 83.32 81.42 C 81.07 82.76 78.81 84.07 76.59 85.43 C 74.29 84.13 72.01 82.80 69.69 81.53 Z" />
<path fill="#ffffff" opacity="1.00" d=" M 41.17 89.08 C 42.19 87.45 44.40 88.23 45.99 87.90 C 46.00 90.60 46.00 93.30 46.00 96.00 C 44.33 96.00 42.66 96.00 41.00 96.00 C 41.02 93.69 40.87 91.37 41.17 89.08 Z" />
<path fill="#ffffff" opacity="1.00" d=" M 49.00 88.00 C 50.33 88.00 51.67 88.00 53.00 88.00 C 53.00 90.67 53.00 93.33 53.00 96.00 C 51.67 96.00 50.33 96.00 49.00 96.00 C 49.00 93.33 49.00 90.67 49.00 88.00 Z" />
<path fill="#ffffff" opacity="1.00" d=" M 56.00 88.00 C 57.67 88.00 59.33 88.00 61.00 88.00 C 61.00 90.67 61.00 93.33 61.00 96.00 C 59.33 96.00 57.67 96.00 56.00 96.00 C 56.00 93.33 56.00 90.67 56.00 88.00 Z" />
<path fill="#ffffff" opacity="1.00" d=" M 64.00 88.00 C 65.67 88.00 67.33 88.00 69.00 88.00 C 69.00 90.67 69.00 93.33 69.00 96.00 C 67.33 96.00 65.67 96.00 64.00 96.00 C 64.00 93.33 64.00 90.67 64.00 88.00 Z" />
<path fill="#ffffff" opacity="1.00" d=" M 72.00 88.01 C 73.34 87.99 74.68 87.98 76.02 87.97 C 76.00 90.64 76.00 93.32 76.00 96.00 C 74.66 96.00 73.33 96.00 72.00 96.00 C 72.00 93.34 72.00 90.67 72.00 88.01 Z" />
<path fill="#ffffff" opacity="1.00" d=" M 78.97 87.97 C 80.65 87.97 82.34 87.97 84.03 87.97 C 84.02 90.65 84.02 93.32 84.02 96.00 C 82.35 96.00 80.68 96.00 79.00 96.00 C 79.00 93.32 78.99 90.65 78.97 87.97 Z" />
<path fill="#ffffff" opacity="1.00" d=" M 86.97 87.84 C 88.56 88.19 90.77 87.51 91.73 89.21 C 92.24 91.44 91.98 93.76 92.04 96.03 C 90.35 96.02 88.66 96.02 86.97 96.03 C 86.97 93.30 86.97 90.57 86.97 87.84 Z" />
<path fill="#606060" opacity="1.00" d=" M 63.96 17.00 C 64.75 15.85 65.38 14.25 66.97 14.08 C 69.07 16.11 70.19 18.89 71.71 21.34 C 89.41 51.96 107.12 82.59 124.85 113.20 C 125.57 114.59 126.66 116.12 125.73 117.70 C 125.07 117.77 123.76 117.92 123.11 118.00 C 84.65 118.05 46.18 117.91 7.72 118.07 C 7.00 116.65 6.84 115.10 7.87 113.77 C 26.52 81.49 45.26 49.25 63.96 17.00 M 60.93 43.98 C 49.55 63.65 38.23 83.35 26.80 102.98 C 25.81 104.70 24.94 106.48 24.13 108.28 C 25.71 108.68 27.31 109.03 28.95 109.00 C 53.99 109.01 79.03 108.98 104.07 109.02 C 105.75 109.03 107.41 108.71 109.05 108.35 C 106.21 102.25 102.47 96.64 99.23 90.76 C 88.38 72.19 77.90 53.40 66.84 34.97 C 64.23 37.51 62.77 40.90 60.93 43.98 Z" />
<path fill="#000000" opacity="1.00" d=" M 66.75 81.47 C 69.95 79.55 73.20 77.72 76.40 75.79 C 79.70 77.63 82.97 79.52 86.19 81.49 C 84.08 82.69 81.99 83.91 79.87 85.08 C 84.31 85.59 90.73 83.10 93.48 87.92 C 94.56 92.15 93.72 96.64 93.99 100.98 C 92.33 100.98 90.68 100.99 89.03 101.00 C 89.02 101.37 88.99 102.12 88.97 102.49 C 87.60 103.28 86.95 104.74 85.95 105.89 C 83.43 107.24 82.30 103.94 80.89 102.54 C 80.05 103.71 79.98 106.18 78.01 106.13 C 75.51 106.62 75.45 102.71 73.00 102.60 C 73.00 102.20 72.99 101.40 72.99 101.00 C 68.33 101.00 63.67 101.00 59.00 101.00 C 59.00 101.42 59.00 102.26 59.00 102.68 C 56.84 102.73 56.18 104.77 55.03 106.17 C 52.80 106.79 51.67 104.90 51.15 103.08 C 50.83 103.06 50.21 103.01 49.89 102.99 C 49.37 104.85 48.22 106.83 45.94 106.12 C 44.78 104.75 44.15 102.70 42.00 102.69 C 42.00 102.26 42.00 101.42 42.00 101.00 C 41.25 101.00 39.75 101.00 39.00 101.00 C 39.08 97.01 38.79 93.00 39.15 89.02 C 39.58 86.39 42.39 84.72 44.94 84.99 C 54.23 85.00 63.52 84.99 72.81 85.01 C 70.80 83.81 68.78 82.63 66.75 81.47 M 69.69 81.53 C 72.01 82.80 74.29 84.13 76.59 85.43 C 78.81 84.07 81.07 82.76 83.32 81.42 C 81.02 80.09 78.72 78.76 76.38 77.49 C 74.15 78.84 71.90 80.15 69.69 81.53 M 41.17 89.08 C 40.87 91.37 41.02 93.69 41.00 96.00 C 42.66 96.00 44.33 96.00 46.00 96.00 C 46.00 93.30 46.00 90.60 45.99 87.90 C 44.40 88.23 42.19 87.45 41.17 89.08 M 49.00 88.00 C 49.00 90.67 49.00 93.33 49.00 96.00 C 50.33 96.00 51.67 96.00 53.00 96.00 C 53.00 93.33 53.00 90.67 53.00 88.00 C 51.67 88.00 50.33 88.00 49.00 88.00 M 56.00 88.00 C 56.00 90.67 56.00 93.33 56.00 96.00 C 57.67 96.00 59.33 96.00 61.00 96.00 C 61.00 93.33 61.00 90.67 61.00 88.00 C 59.33 88.00 57.67 88.00 56.00 88.00 M 64.00 88.00 C 64.00 90.67 64.00 93.33 64.00 96.00 C 65.67 96.00 67.33 96.00 69.00 96.00 C 69.00 93.33 69.00 90.67 69.00 88.00 C 67.33 88.00 65.67 88.00 64.00 88.00 M 72.00 88.01 C 72.00 90.67 72.00 93.34 72.00 96.00 C 73.33 96.00 74.66 96.00 76.00 96.00 C 76.00 93.32 76.00 90.64 76.02 87.97 C 74.68 87.98 73.34 87.99 72.00 88.01 M 78.97 87.97 C 78.99 90.65 79.00 93.32 79.00 96.00 C 80.68 96.00 82.35 96.00 84.02 96.00 C 84.02 93.32 84.02 90.65 84.03 87.97 C 82.34 87.97 80.65 87.97 78.97 87.97 M 86.97 87.84 C 86.97 90.57 86.97 93.30 86.97 96.03 C 88.66 96.02 90.35 96.02 92.04 96.03 C 91.98 93.76 92.24 91.44 91.73 89.21 C 90.77 87.51 88.56 88.19 86.97 87.84 Z" />
</g>
<g id="normal">
<path fill="#ffffff" opacity="1.00" d=" M 64.07 10.22 C 65.24 7.97 68.35 8.86 69.11 10.98 C 88.87 45.14 108.57 79.34 128.31 113.51 C 129.76 115.61 131.08 119.65 127.75 120.72 C 125.50 120.98 123.23 121.02 120.97 121.01 C 83.29 120.95 45.60 121.07 7.92 120.96 C 5.03 121.24 3.07 117.96 3.51 115.39 C 4.25 113.11 5.64 111.11 6.74 109.00 C 10.83 102.17 14.62 95.15 18.82 88.39 C 19.90 86.82 20.84 85.17 21.66 83.46 C 24.22 78.74 26.90 74.07 29.74 69.52 C 30.84 67.92 31.80 66.22 32.64 64.47 C 35.22 59.75 37.88 55.06 40.75 50.51 C 41.60 49.30 42.33 48.02 42.95 46.68 C 45.79 41.32 48.97 36.15 51.98 30.89 C 53.10 29.10 54.12 27.26 55.14 25.42 C 58.13 20.36 60.86 15.14 64.07 10.22 M 63.96 17.00 C 45.26 49.25 26.52 81.49 7.87 113.77 C 6.84 115.10 7.00 116.65 7.72 118.07 C 46.18 117.91 84.65 118.05 123.11 118.00 C 123.76 117.92 125.07 117.77 125.73 117.70 C 126.66 116.12 125.57 114.59 124.85 113.20 C 107.12 82.59 89.41 51.96 71.71 21.34 C 70.19 18.89 69.07 16.11 66.97 14.08 C 65.38 14.25 64.75 15.85 63.96 17.00 Z" />
<path fill="#ffffff" opacity="1.00" d=" M 60.93 43.98 C 62.77 40.90 64.23 37.51 66.84 34.97 C 77.90 53.40 88.38 72.19 99.23 90.76 C 102.47 96.64 106.21 102.25 109.05 108.35 C 107.41 108.71 105.75 109.03 104.07 109.02 C 79.03 108.98 53.99 109.01 28.95 109.00 C 27.31 109.03 25.71 108.68 24.13 108.28 C 24.94 106.48 25.81 104.70 26.80 102.98 C 38.23 83.35 49.55 63.65 60.93 43.98 M 66.75 81.47 C 68.78 82.63 70.80 83.81 72.81 85.01 C 63.52 84.99 54.23 85.00 44.94 84.99 C 42.39 84.72 39.58 86.39 39.15 89.02 C 38.79 93.00 39.08 97.01 39.00 101.00 C 39.75 101.00 41.25 101.00 42.00 101.00 C 42.00 101.42 42.00 102.26 42.00 102.69 C 44.15 102.70 44.78 104.75 45.94 106.12 C 48.22 106.83 49.37 104.85 49.89 102.99 C 50.21 103.01 50.83 103.06 51.15 103.08 C 51.67 104.90 52.80 106.79 55.03 106.17 C 56.18 104.77 56.84 102.73 59.00 102.68 C 59.00 102.26 59.00 101.42 59.00 101.00 C 63.67 101.00 68.33 101.00 72.99 101.00 C 72.99 101.40 73.00 102.20 73.00 102.60 C 75.45 102.71 75.51 106.62 78.01 106.13 C 79.98 106.18 80.05 103.71 80.89 102.54 C 82.30 103.94 83.43 107.24 85.95 105.89 C 86.95 104.74 87.60 103.28 88.97 102.49 C 88.99 102.12 89.02 101.37 89.03 101.00 C 90.68 100.99 92.33 100.98 93.99 100.98 C 93.72 96.64 94.56 92.15 93.48 87.92 C 90.73 83.10 84.31 85.59 79.87 85.08 C 81.99 83.91 84.08 82.69 86.19 81.49 C 82.97 79.52 79.70 77.63 76.40 75.79 C 73.20 77.72 69.95 79.55 66.75 81.47 Z" />
<path fill="#ffffff" opacity="1.00" d=" M 69.69 81.53 C 71.90 80.15 74.15 78.84 76.38 77.49 C 78.72 78.76 81.02 80.09 83.32 81.42 C 81.07 82.76 78.81 84.07 76.59 85.43 C 74.29 84.13 72.01 82.80 69.69 81.53 Z" />
<path fill="#ffffff" opacity="1.00" d=" M 41.17 89.08 C 42.19 87.45 44.40 88.23 45.99 87.90 C 46.00 90.60 46.00 93.30 46.00 96.00 C 44.33 96.00 42.66 96.00 41.00 96.00 C 41.02 93.69 40.87 91.37 41.17 89.08 Z" />
<path fill="#ffffff" opacity="1.00" d=" M 49.00 88.00 C 50.33 88.00 51.67 88.00 53.00 88.00 C 53.00 90.67 53.00 93.33 53.00 96.00 C 51.67 96.00 50.33 96.00 49.00 96.00 C 49.00 93.33 49.00 90.67 49.00 88.00 Z" />
<path fill="#ffffff" opacity="1.00" d=" M 56.00 88.00 C 57.67 88.00 59.33 88.00 61.00 88.00 C 61.00 90.67 61.00 93.33 61.00 96.00 C 59.33 96.00 57.67 96.00 56.00 96.00 C 56.00 93.33 56.00 90.67 56.00 88.00 Z" />
<path fill="#ffffff" opacity="1.00" d=" M 64.00 88.00 C 65.67 88.00 67.33 88.00 69.00 88.00 C 69.00 90.67 69.00 93.33 69.00 96.00 C 67.33 96.00 65.67 96.00 64.00 96.00 C 64.00 93.33 64.00 90.67 64.00 88.00 Z" />
<path fill="#ffffff" opacity="1.00" d=" M 72.00 88.01 C 73.34 87.99 74.68 87.98 76.02 87.97 C 76.00 90.64 76.00 93.32 76.00 96.00 C 74.66 96.00 73.33 96.00 72.00 96.00 C 72.00 93.34 72.00 90.67 72.00 88.01 Z" />
<path fill="#ffffff" opacity="1.00" d=" M 78.97 87.97 C 80.65 87.97 82.34 87.97 84.03 87.97 C 84.02 90.65 84.02 93.32 84.02 96.00 C 82.35 96.00 80.68 96.00 79.00 96.00 C 79.00 93.32 78.99 90.65 78.97 87.97 Z" />
<path fill="#ffffff" opacity="1.00" d=" M 86.97 87.84 C 88.56 88.19 90.77 87.51 91.73 89.21 C 92.24 91.44 91.98 93.76 92.04 96.03 C 90.35 96.02 88.66 96.02 86.97 96.03 C 86.97 93.30 86.97 90.57 86.97 87.84 Z" />
<path fill="#de2e2e" opacity="1.00" d=" M 63.96 17.00 C 64.75 15.85 65.38 14.25 66.97 14.08 C 69.07 16.11 70.19 18.89 71.71 21.34 C 89.41 51.96 107.12 82.59 124.85 113.20 C 125.57 114.59 126.66 116.12 125.73 117.70 C 125.07 117.77 123.76 117.92 123.11 118.00 C 84.65 118.05 46.18 117.91 7.72 118.07 C 7.00 116.65 6.84 115.10 7.87 113.77 C 26.52 81.49 45.26 49.25 63.96 17.00 M 60.93 43.98 C 49.55 63.65 38.23 83.35 26.80 102.98 C 25.81 104.70 24.94 106.48 24.13 108.28 C 25.71 108.68 27.31 109.03 28.95 109.00 C 53.99 109.01 79.03 108.98 104.07 109.02 C 105.75 109.03 107.41 108.71 109.05 108.35 C 106.21 102.25 102.47 96.64 99.23 90.76 C 88.38 72.19 77.90 53.40 66.84 34.97 C 64.23 37.51 62.77 40.90 60.93 43.98 Z" />
<path fill="#000000" opacity="1.00" d=" M 66.75 81.47 C 69.95 79.55 73.20 77.72 76.40 75.79 C 79.70 77.63 82.97 79.52 86.19 81.49 C 84.08 82.69 81.99 83.91 79.87 85.08 C 84.31 85.59 90.73 83.10 93.48 87.92 C 94.56 92.15 93.72 96.64 93.99 100.98 C 92.33 100.98 90.68 100.99 89.03 101.00 C 89.02 101.37 88.99 102.12 88.97 102.49 C 87.60 103.28 86.95 104.74 85.95 105.89 C 83.43 107.24 82.30 103.94 80.89 102.54 C 80.05 103.71 79.98 106.18 78.01 106.13 C 75.51 106.62 75.45 102.71 73.00 102.60 C 73.00 102.20 72.99 101.40 72.99 101.00 C 68.33 101.00 63.67 101.00 59.00 101.00 C 59.00 101.42 59.00 102.26 59.00 102.68 C 56.84 102.73 56.18 104.77 55.03 106.17 C 52.80 106.79 51.67 104.90 51.15 103.08 C 50.83 103.06 50.21 103.01 49.89 102.99 C 49.37 104.85 48.22 106.83 45.94 106.12 C 44.78 104.75 44.15 102.70 42.00 102.69 C 42.00 102.26 42.00 101.42 42.00 101.00 C 41.25 101.00 39.75 101.00 39.00 101.00 C 39.08 97.01 38.79 93.00 39.15 89.02 C 39.58 86.39 42.39 84.72 44.94 84.99 C 54.23 85.00 63.52 84.99 72.81 85.01 C 70.80 83.81 68.78 82.63 66.75 81.47 M 69.69 81.53 C 72.01 82.80 74.29 84.13 76.59 85.43 C 78.81 84.07 81.07 82.76 83.32 81.42 C 81.02 80.09 78.72 78.76 76.38 77.49 C 74.15 78.84 71.90 80.15 69.69 81.53 M 41.17 89.08 C 40.87 91.37 41.02 93.69 41.00 96.00 C 42.66 96.00 44.33 96.00 46.00 96.00 C 46.00 93.30 46.00 90.60 45.99 87.90 C 44.40 88.23 42.19 87.45 41.17 89.08 M 49.00 88.00 C 49.00 90.67 49.00 93.33 49.00 96.00 C 50.33 96.00 51.67 96.00 53.00 96.00 C 53.00 93.33 53.00 90.67 53.00 88.00 C 51.67 88.00 50.33 88.00 49.00 88.00 M 56.00 88.00 C 56.00 90.67 56.00 93.33 56.00 96.00 C 57.67 96.00 59.33 96.00 61.00 96.00 C 61.00 93.33 61.00 90.67 61.00 88.00 C 59.33 88.00 57.67 88.00 56.00 88.00 M 64.00 88.00 C 64.00 90.67 64.00 93.33 64.00 96.00 C 65.67 96.00 67.33 96.00 69.00 96.00 C 69.00 93.33 69.00 90.67 69.00 88.00 C 67.33 88.00 65.67 88.00 64.00 88.00 M 72.00 88.01 C 72.00 90.67 72.00 93.34 72.00 96.00 C 73.33 96.00 74.66 96.00 76.00 96.00 C 76.00 93.32 76.00 90.64 76.02 87.97 C 74.68 87.98 73.34 87.99 72.00 88.01 M 78.97 87.97 C 78.99 90.65 79.00 93.32 79.00 96.00 C 80.68 96.00 82.35 96.00 84.02 96.00 C 84.02 93.32 84.02 90.65 84.03 87.97 C 82.34 87.97 80.65 87.97 78.97 87.97 M 86.97 87.84 C 86.97 90.57 86.97 93.30 86.97 96.03 C 88.66 96.02 90.35 96.02 92.04 96.03 C 91.98 93.76 92.24 91.44 91.73 89.21 C 90.77 87.51 88.56 88.19 86.97 87.84 Z" />
</g>
</svg>
