<?xml version="1.0" encoding="UTF-8" ?>
<!DOCTYPE svg PUBLIC "-//W3C//DTD SVG 1.1//EN" "http://www.w3.org/Graphics/SVG/1.1/DTD/svg11.dtd">
<svg width="130pt" height="130pt" viewBox="0 0 130 130" version="1.1" xmlns="http://www.w3.org/2000/svg">
<g id="disabled">
<path fill="#ffffff" opacity="1.00" d=" M 63.72 10.98 C 64.68 8.45 68.19 8.45 69.12 11.00 C 88.87 45.18 108.60 79.38 128.34 113.57 C 129.77 115.66 131.04 119.59 127.81 120.72 C 125.56 120.98 123.29 121.01 121.03 121.00 C 83.32 120.96 45.60 121.07 7.89 120.95 C 3.64 121.00 2.63 115.38 4.82 112.50 C 24.63 78.77 43.94 44.73 63.72 10.98 M 64.10 17.04 C 46.06 48.05 28.12 79.12 10.11 110.14 C 8.84 112.60 6.45 115.07 7.56 118.04 C 45.71 117.95 83.87 118.01 122.02 118.01 C 123.22 118.03 124.41 117.88 125.58 117.58 C 126.59 116.07 125.55 114.53 124.83 113.17 C 107.46 83.19 90.14 53.18 72.79 23.20 C 70.98 20.18 69.53 16.89 67.14 14.27 C 65.46 14.08 64.97 16.02 64.10 17.04 Z" />
<path fill="#ffffff" opacity="1.00" d=" M 59.92 45.96 C 62.11 42.24 63.96 38.28 66.82 35.01 C 77.77 52.92 87.88 71.35 98.50 89.46 C 101.74 95.39 105.53 101.02 108.46 107.10 C 109.65 109.18 106.17 108.94 105.02 109.01 C 79.69 109.00 54.36 109.00 29.03 109.00 C 27.46 109.00 25.81 109.03 24.45 108.13 C 25.54 104.90 27.51 102.08 29.18 99.14 C 39.46 81.43 49.67 63.68 59.92 45.96 M 62.11 76.30 C 60.38 77.84 59.61 80.25 58.36 82.18 C 55.16 83.63 51.97 85.11 48.76 86.55 C 49.15 88.28 49.72 90.00 51.05 91.26 C 52.19 89.23 52.83 85.32 56.04 86.12 C 57.55 85.96 58.33 87.63 59.45 88.32 C 64.88 86.84 70.32 85.42 75.72 83.89 C 76.24 82.49 76.13 80.49 77.81 79.87 C 80.39 78.63 82.26 81.59 84.40 82.49 C 84.00 80.42 84.14 78.00 82.83 76.24 C 80.36 74.82 77.65 73.88 75.05 72.72 C 70.75 73.97 66.34 74.84 62.11 76.30 M 77.23 81.10 C 74.90 83.56 78.65 87.30 80.93 85.02 C 84.13 82.97 79.66 78.23 77.23 81.10 M 52.32 89.96 C 53.48 90.61 54.35 92.37 55.91 92.00 C 58.40 92.16 59.49 87.77 56.92 87.01 C 54.54 85.68 53.09 88.07 52.32 89.96 M 80.01 88.00 C 80.00 94.00 79.98 100.00 79.99 106.00 C 88.33 106.01 96.67 106.00 105.00 105.99 C 101.38 100.01 97.81 94.00 94.22 88.01 C 89.48 88.01 84.75 88.01 80.01 88.00 M 32.13 98.76 C 31.93 102.24 36.77 101.52 38.92 100.60 C 41.65 99.27 44.41 100.78 47.10 101.37 C 49.13 101.26 51.00 100.32 52.99 99.98 C 55.05 100.16 56.95 101.07 58.98 101.42 C 61.04 101.09 62.97 100.13 65.07 99.99 C 67.64 100.41 70.22 102.11 72.83 100.86 C 75.06 99.98 77.43 100.03 79.77 100.28 C 78.94 96.83 75.11 97.81 72.71 98.72 C 70.14 99.85 67.56 98.15 65.01 97.81 C 62.95 97.99 61.06 98.90 59.03 99.21 C 56.96 98.92 55.03 98.00 52.95 97.78 C 50.19 98.33 47.36 99.96 44.58 98.51 C 40.48 96.60 36.38 100.29 32.13 98.76 M 36.88 103.36 C 34.42 104.24 31.95 101.40 29.57 102.91 C 31.26 105.97 36.04 105.98 39.04 104.94 C 42.68 103.26 46.30 106.77 49.95 105.12 C 53.96 103.09 58.00 106.89 62.02 105.00 C 65.66 103.22 69.27 106.70 72.92 105.16 C 74.95 104.43 77.21 104.84 79.20 104.03 C 78.77 101.04 74.93 102.44 72.99 103.00 C 69.49 104.81 66.02 101.00 62.49 102.69 C 60.18 103.69 57.78 103.70 55.48 102.69 C 51.98 100.98 48.53 104.78 45.06 103.01 C 42.39 101.73 39.54 102.44 36.88 103.36 Z" />
<path fill="#ffffff" opacity="1.00" d=" M 69.08 75.71 C 70.78 75.26 72.49 74.80 74.20 74.34 C 75.68 75.30 77.16 76.25 78.59 77.28 C 75.84 78.26 73.00 79.00 70.17 79.73 C 69.80 78.39 69.44 77.05 69.08 75.71 Z" />
<path fill="#ffffff" opacity="1.00" d=" M 62.08 77.63 C 64.08 77.08 66.09 76.53 68.10 75.98 C 68.46 77.31 68.82 78.63 69.19 79.96 C 65.91 80.87 62.64 81.77 59.33 82.53 C 60.21 80.88 61.14 79.25 62.08 77.63 Z" />
<path fill="#606060" opacity="1.00" d=" M 64.10 17.04 C 64.97 16.02 65.46 14.08 67.14 14.27 C 69.53 16.89 70.98 20.18 72.79 23.20 C 90.14 53.18 107.46 83.19 124.83 113.17 C 125.55 114.53 126.59 116.07 125.58 117.58 C 124.41 117.88 123.22 118.03 122.02 118.01 C 83.87 118.01 45.71 117.95 7.56 118.04 C 6.45 115.07 8.84 112.60 10.11 110.14 C 28.12 79.12 46.06 48.05 64.10 17.04 M 59.92 45.96 C 49.67 63.68 39.46 81.43 29.18 99.14 C 27.51 102.08 25.54 104.90 24.45 108.13 C 25.81 109.03 27.46 109.00 29.03 109.00 C 54.36 109.00 79.69 109.00 105.02 109.01 C 106.17 108.94 109.65 109.18 108.46 107.10 C 105.53 101.02 101.74 95.39 98.50 89.46 C 87.88 71.35 77.77 52.92 66.82 35.01 C 63.96 38.28 62.11 42.24 59.92 45.96 Z" />
<path fill="#000000" opacity="1.00" d=" M 62.11 76.30 C 66.34 74.84 70.75 73.97 75.05 72.72 C 77.65 73.88 80.36 74.82 82.83 76.24 C 84.14 78.00 84.00 80.42 84.40 82.49 C 82.26 81.59 80.39 78.63 77.81 79.87 C 76.13 80.49 76.24 82.49 75.72 83.89 C 70.32 85.42 64.88 86.84 59.45 88.32 C 58.33 87.63 57.55 85.96 56.04 86.12 C 52.83 85.32 52.19 89.23 51.05 91.26 C 49.72 90.00 49.15 88.28 48.76 86.55 C 51.97 85.11 55.16 83.63 58.36 82.18 C 59.61 80.25 60.38 77.84 62.11 76.30 M 69.08 75.71 C 69.44 77.05 69.80 78.39 70.17 79.73 C 73.00 79.00 75.84 78.26 78.59 77.28 C 77.16 76.25 75.68 75.30 74.20 74.34 C 72.49 74.80 70.78 75.26 69.08 75.71 M 62.08 77.63 C 61.14 79.25 60.21 80.88 59.33 82.53 C 62.64 81.77 65.91 80.87 69.19 79.96 C 68.82 78.63 68.46 77.31 68.10 75.98 C 66.09 76.53 64.08 77.08 62.08 77.63 Z" />
<path fill="#000000" opacity="1.00" d=" M 77.23 81.10 C 79.66 78.23 84.13 82.97 80.93 85.02 C 78.65 87.30 74.90 83.56 77.23 81.10 Z" />
<path fill="#000000" opacity="1.00" d=" M 52.32 89.96 C 53.09 88.07 54.54 85.68 56.92 87.01 C 59.49 87.77 58.40 92.16 55.91 92.00 C 54.35 92.37 53.48 90.61 52.32 89.96 Z" />
<path fill="#000000" opacity="1.00" d=" M 80.01 88.00 C 84.75 88.01 89.48 88.01 94.22 88.01 C 97.81 94.00 101.38 100.01 105.00 105.99 C 96.67 106.00 88.33 106.01 79.99 106.00 C 79.98 100.00 80.00 94.00 80.01 88.00 Z" />
<path fill="#000000" opacity="1.00" d=" M 32.13 98.76 C 36.38 100.29 40.48 96.60 44.58 98.51 C 47.36 99.96 50.19 98.33 52.95 97.78 C 55.03 98.00 56.96 98.92 59.03 99.21 C 61.06 98.90 62.95 97.99 65.01 97.81 C 67.56 98.15 70.14 99.85 72.71 98.72 C 75.11 97.81 78.94 96.83 79.77 100.28 C 77.43 100.03 75.06 99.98 72.83 100.86 C 70.22 102.11 67.64 100.41 65.07 99.99 C 62.97 100.13 61.04 101.09 58.98 101.42 C 56.95 101.07 55.05 100.16 52.99 99.98 C 51.00 100.32 49.13 101.26 47.10 101.37 C 44.41 100.78 41.65 99.27 38.92 100.60 C 36.77 101.52 31.93 102.24 32.13 98.76 Z" />
<path fill="#000000" opacity="1.00" d=" M 36.88 103.36 C 39.54 102.44 42.39 101.73 45.06 103.01 C 48.53 104.78 51.98 100.98 55.48 102.69 C 57.78 103.70 60.18 103.69 62.49 102.69 C 66.02 101.00 69.49 104.81 72.99 103.00 C 74.93 102.44 78.77 101.04 79.20 104.03 C 77.21 104.84 74.95 104.43 72.92 105.16 C 69.27 106.70 65.66 103.22 62.02 105.00 C 58.00 106.89 53.96 103.09 49.95 105.12 C 46.30 106.77 42.68 103.26 39.04 104.94 C 36.04 105.98 31.26 105.97 29.57 102.91 C 31.95 101.40 34.42 104.24 36.88 103.36 Z" />
</g>
<g id="normal">
<path fill="#ffffff" opacity="1.00" d=" M 63.72 10.98 C 64.68 8.45 68.19 8.45 69.12 11.00 C 88.87 45.18 108.60 79.38 128.34 113.57 C 129.77 115.66 131.04 119.59 127.81 120.72 C 125.56 120.98 123.29 121.01 121.03 121.00 C 83.32 120.96 45.60 121.07 7.89 120.95 C 3.64 121.00 2.63 115.38 4.82 112.50 C 24.63 78.77 43.94 44.73 63.72 10.98 M 64.10 17.04 C 46.06 48.05 28.12 79.12 10.11 110.14 C 8.84 112.60 6.45 115.07 7.56 118.04 C 45.71 117.95 83.87 118.01 122.02 118.01 C 123.22 118.03 124.41 117.88 125.58 117.58 C 126.59 116.07 125.55 114.53 124.83 113.17 C 107.46 83.19 90.14 53.18 72.79 23.20 C 70.98 20.18 69.53 16.89 67.14 14.27 C 65.46 14.08 64.97 16.02 64.10 17.04 Z" />
<path fill="#ffffff" opacity="1.00" d=" M 59.92 45.96 C 62.11 42.24 63.96 38.28 66.82 35.01 C 77.77 52.92 87.88 71.35 98.50 89.46 C 101.74 95.39 105.53 101.02 108.46 107.10 C 109.65 109.18 106.17 108.94 105.02 109.01 C 79.69 109.00 54.36 109.00 29.03 109.00 C 27.46 109.00 25.81 109.03 24.45 108.13 C 25.54 104.90 27.51 102.08 29.18 99.14 C 39.46 81.43 49.67 63.68 59.92 45.96 M 62.11 76.30 C 60.38 77.84 59.61 80.25 58.36 82.18 C 55.16 83.63 51.97 85.11 48.76 86.55 C 49.15 88.28 49.72 90.00 51.05 91.26 C 52.19 89.23 52.83 85.32 56.04 86.12 C 57.55 85.96 58.33 87.63 59.45 88.32 C 64.88 86.84 70.32 85.42 75.72 83.89 C 76.24 82.49 76.13 80.49 77.81 79.87 C 80.39 78.63 82.26 81.59 84.40 82.49 C 84.00 80.42 84.14 78.00 82.83 76.24 C 80.36 74.82 77.65 73.88 75.05 72.72 C 70.75 73.97 66.34 74.84 62.11 76.30 M 77.23 81.10 C 74.90 83.56 78.65 87.30 80.93 85.02 C 84.13 82.97 79.66 78.23 77.23 81.10 M 52.32 89.96 C 53.48 90.61 54.35 92.37 55.91 92.00 C 58.40 92.16 59.49 87.77 56.92 87.01 C 54.54 85.68 53.09 88.07 52.32 89.96 M 80.01 88.00 C 80.00 94.00 79.98 100.00 79.99 106.00 C 88.33 106.01 96.67 106.00 105.00 105.99 C 101.38 100.01 97.81 94.00 94.22 88.01 C 89.48 88.01 84.75 88.01 80.01 88.00 M 32.13 98.76 C 31.93 102.24 36.77 101.52 38.92 100.60 C 41.65 99.27 44.41 100.78 47.10 101.37 C 49.13 101.26 51.00 100.32 52.99 99.98 C 55.05 100.16 56.95 101.07 58.98 101.42 C 61.04 101.09 62.97 100.13 65.07 99.99 C 67.64 100.41 70.22 102.11 72.83 100.86 C 75.06 99.98 77.43 100.03 79.77 100.28 C 78.94 96.83 75.11 97.81 72.71 98.72 C 70.14 99.85 67.56 98.15 65.01 97.81 C 62.95 97.99 61.06 98.90 59.03 99.21 C 56.96 98.92 55.03 98.00 52.95 97.78 C 50.19 98.33 47.36 99.96 44.58 98.51 C 40.48 96.60 36.38 100.29 32.13 98.76 M 36.88 103.36 C 34.42 104.24 31.95 101.40 29.57 102.91 C 31.26 105.97 36.04 105.98 39.04 104.94 C 42.68 103.26 46.30 106.77 49.95 105.12 C 53.96 103.09 58.00 106.89 62.02 105.00 C 65.66 103.22 69.27 106.70 72.92 105.16 C 74.95 104.43 77.21 104.84 79.20 104.03 C 78.77 101.04 74.93 102.44 72.99 103.00 C 69.49 104.81 66.02 101.00 62.49 102.69 C 60.18 103.69 57.78 103.70 55.48 102.69 C 51.98 100.98 48.53 104.78 45.06 103.01 C 42.39 101.73 39.54 102.44 36.88 103.36 Z" />
<path fill="#ffffff" opacity="1.00" d=" M 69.08 75.71 C 70.78 75.26 72.49 74.80 74.20 74.34 C 75.68 75.30 77.16 76.25 78.59 77.28 C 75.84 78.26 73.00 79.00 70.17 79.73 C 69.80 78.39 69.44 77.05 69.08 75.71 Z" />
<path fill="#ffffff" opacity="1.00" d=" M 62.08 77.63 C 64.08 77.08 66.09 76.53 68.10 75.98 C 68.46 77.31 68.82 78.63 69.19 79.96 C 65.91 80.87 62.64 81.77 59.33 82.53 C 60.21 80.88 61.14 79.25 62.08 77.63 Z" />
<path fill="#de2e2e" opacity="1.00" d=" M 64.10 17.04 C 64.97 16.02 65.46 14.08 67.14 14.27 C 69.53 16.89 70.98 20.18 72.79 23.20 C 90.14 53.18 107.46 83.19 124.83 113.17 C 125.55 114.53 126.59 116.07 125.58 117.58 C 124.41 117.88 123.22 118.03 122.02 118.01 C 83.87 118.01 45.71 117.95 7.56 118.04 C 6.45 115.07 8.84 112.60 10.11 110.14 C 28.12 79.12 46.06 48.05 64.10 17.04 M 59.92 45.96 C 49.67 63.68 39.46 81.43 29.18 99.14 C 27.51 102.08 25.54 104.90 24.45 108.13 C 25.81 109.03 27.46 109.00 29.03 109.00 C 54.36 109.00 79.69 109.00 105.02 109.01 C 106.17 108.94 109.65 109.18 108.46 107.10 C 105.53 101.02 101.74 95.39 98.50 89.46 C 87.88 71.35 77.77 52.92 66.82 35.01 C 63.96 38.28 62.11 42.24 59.92 45.96 Z" />
<path fill="#000000" opacity="1.00" d=" M 62.11 76.30 C 66.34 74.84 70.75 73.97 75.05 72.72 C 77.65 73.88 80.36 74.82 82.83 76.24 C 84.14 78.00 84.00 80.42 84.40 82.49 C 82.26 81.59 80.39 78.63 77.81 79.87 C 76.13 80.49 76.24 82.49 75.72 83.89 C 70.32 85.42 64.88 86.84 59.45 88.32 C 58.33 87.63 57.55 85.96 56.04 86.12 C 52.83 85.32 52.19 89.23 51.05 91.26 C 49.72 90.00 49.15 88.28 48.76 86.55 C 51.97 85.11 55.16 83.63 58.36 82.18 C 59.61 80.25 60.38 77.84 62.11 76.30 M 69.08 75.71 C 69.44 77.05 69.80 78.39 70.17 79.73 C 73.00 79.00 75.84 78.26 78.59 77.28 C 77.16 76.25 75.68 75.30 74.20 74.34 C 72.49 74.80 70.78 75.26 69.08 75.71 M 62.08 77.63 C 61.14 79.25 60.21 80.88 59.33 82.53 C 62.64 81.77 65.91 80.87 69.19 79.96 C 68.82 78.63 68.46 77.31 68.10 75.98 C 66.09 76.53 64.08 77.08 62.08 77.63 Z" />
<path fill="#000000" opacity="1.00" d=" M 77.23 81.10 C 79.66 78.23 84.13 82.97 80.93 85.02 C 78.65 87.30 74.90 83.56 77.23 81.10 Z" />
<path fill="#000000" opacity="1.00" d=" M 52.32 89.96 C 53.09 88.07 54.54 85.68 56.92 87.01 C 59.49 87.77 58.40 92.16 55.91 92.00 C 54.35 92.37 53.48 90.61 52.32 89.96 Z" />
<path fill="#000000" opacity="1.00" d=" M 80.01 88.00 C 84.75 88.01 89.48 88.01 94.22 88.01 C 97.81 94.00 101.38 100.01 105.00 105.99 C 96.67 106.00 88.33 106.01 79.99 106.00 C 79.98 100.00 80.00 94.00 80.01 88.00 Z" />
<path fill="#000000" opacity="1.00" d=" M 32.13 98.76 C 36.38 100.29 40.48 96.60 44.58 98.51 C 47.36 99.96 50.19 98.33 52.95 97.78 C 55.03 98.00 56.96 98.92 59.03 99.21 C 61.06 98.90 62.95 97.99 65.01 97.81 C 67.56 98.15 70.14 99.85 72.71 98.72 C 75.11 97.81 78.94 96.83 79.77 100.28 C 77.43 100.03 75.06 99.98 72.83 100.86 C 70.22 102.11 67.64 100.41 65.07 99.99 C 62.97 100.13 61.04 101.09 58.98 101.42 C 56.95 101.07 55.05 100.16 52.99 99.98 C 51.00 100.32 49.13 101.26 47.10 101.37 C 44.41 100.78 41.65 99.27 38.92 100.60 C 36.77 101.52 31.93 102.24 32.13 98.76 Z" />
<path fill="#000000" opacity="1.00" d=" M 36.88 103.36 C 39.54 102.44 42.39 101.73 45.06 103.01 C 48.53 104.78 51.98 100.98 55.48 102.69 C 57.78 103.70 60.18 103.69 62.49 102.69 C 66.02 101.00 69.49 104.81 72.99 103.00 C 74.93 102.44 78.77 101.04 79.20 104.03 C 77.21 104.84 74.95 104.43 72.92 105.16 C 69.27 106.70 65.66 103.22 62.02 105.00 C 58.00 106.89 53.96 103.09 49.95 105.12 C 46.30 106.77 42.68 103.26 39.04 104.94 C 36.04 105.98 31.26 105.97 29.57 102.91 C 31.95 101.40 34.42 104.24 36.88 103.36 Z" />
</g>
</svg>
