<?xml version="1.0" encoding="UTF-8" ?>
<!DOCTYPE svg PUBLIC "-//W3C//DTD SVG 1.1//EN" "http://www.w3.org/Graphics/SVG/1.1/DTD/svg11.dtd">
<svg width="130pt" height="130pt" viewBox="0 0 130 130" version="1.1" xmlns="http://www.w3.org/2000/svg">
<g id="disabled">
<path fill="#ffffff" opacity="1.00" d=" M 60.94 10.89 C 61.67 9.21 63.92 8.09 65.39 9.56 C 67.95 12.83 69.65 16.68 71.86 20.19 C 86.24 45.39 100.76 70.53 115.47 95.55 C 115.76 96.04 116.05 96.55 116.33 97.06 C 119.35 102.86 122.95 108.35 126.02 114.12 C 127.62 116.85 125.39 121.26 122.05 120.96 C 84.37 121.06 46.68 120.96 8.99 121.01 C 6.72 121.01 4.45 120.98 2.19 120.68 C 0.24 120.21 -0.32 117.81 0.43 116.16 C 1.32 113.91 2.64 111.87 3.84 109.78 C 22.89 76.83 41.88 43.84 60.94 10.89 M 60.83 16.93 C 42.10 49.45 23.20 81.88 4.50 114.43 C 3.41 115.68 3.73 118.40 5.86 117.97 C 44.63 118.08 83.40 117.89 122.17 118.07 C 124.06 115.73 121.83 113.39 120.72 111.28 C 102.48 79.84 84.26 48.40 66.02 16.97 C 65.34 15.98 64.84 14.73 63.72 14.17 C 62.12 14.16 61.58 15.82 60.83 16.93 Z" />
<path fill="#ffffff" opacity="1.00" d=" M 23.43 103.41 C 36.73 80.70 49.61 57.75 63.03 35.12 C 64.02 35.75 64.81 36.57 65.40 37.58 C 78.19 59.79 90.99 81.98 103.87 104.13 C 104.48 105.39 105.52 106.59 105.46 108.07 C 104.28 109.26 102.54 108.95 101.04 109.01 C 76.03 109.00 51.02 108.98 26.01 109.02 C 24.51 108.76 22.33 109.53 21.36 108.03 C 21.58 106.32 22.65 104.89 23.43 103.41 M 64.98 66.96 C 65.01 71.65 65.02 76.33 65.00 81.02 C 60.50 78.19 56.11 74.92 50.91 73.50 C 46.51 72.03 43.85 77.22 44.03 80.90 C 43.97 89.27 44.02 97.63 44.00 106.00 C 45.67 104.00 47.33 102.01 49.00 100.02 C 50.66 102.00 52.32 103.99 54.00 105.97 C 54.00 98.97 54.00 91.98 54.00 84.98 C 58.26 88.18 62.62 92.00 68.07 92.79 C 72.24 93.21 74.95 88.78 74.99 85.08 C 74.95 78.07 75.15 71.04 74.88 64.03 C 73.49 61.24 71.61 58.74 70.00 56.08 C 68.23 59.64 64.50 62.65 64.98 66.96 Z" />
<path fill="#606060" opacity="1.00" d=" M 60.83 16.93 C 61.58 15.82 62.12 14.16 63.72 14.17 C 64.84 14.73 65.34 15.98 66.02 16.97 C 84.26 48.40 102.48 79.84 120.72 111.28 C 121.83 113.39 124.06 115.73 122.17 118.07 C 83.40 117.89 44.63 118.08 5.86 117.97 C 3.73 118.40 3.41 115.68 4.50 114.43 C 23.20 81.88 42.10 49.45 60.83 16.93 M 23.43 103.41 C 22.65 104.89 21.58 106.32 21.36 108.03 C 22.33 109.53 24.51 108.76 26.01 109.02 C 51.02 108.98 76.03 109.00 101.04 109.01 C 102.54 108.95 104.28 109.26 105.46 108.07 C 105.52 106.59 104.48 105.39 103.87 104.13 C 90.99 81.98 78.19 59.79 65.40 37.58 C 64.81 36.57 64.02 35.75 63.03 35.12 C 49.61 57.75 36.73 80.70 23.43 103.41 Z" />
<path fill="#000000" opacity="1.00" d=" M 64.98 66.96 C 64.50 62.65 68.23 59.64 70.00 56.08 C 71.61 58.74 73.49 61.24 74.88 64.03 C 75.15 71.04 74.95 78.07 74.99 85.08 C 74.95 88.78 72.24 93.21 68.07 92.79 C 62.62 92.00 58.26 88.18 54.00 84.98 C 54.00 91.98 54.00 98.97 54.00 105.97 C 52.32 103.99 50.66 102.00 49.00 100.02 C 47.33 102.01 45.67 104.00 44.00 106.00 C 44.02 97.63 43.97 89.27 44.03 80.90 C 43.85 77.22 46.51 72.03 50.91 73.50 C 56.11 74.92 60.50 78.19 65.00 81.02 C 65.02 76.33 65.01 71.65 64.98 66.96 Z" />
</g>
<g id="normal">
<path fill="#ffffff" opacity="1.00" d=" M 60.94 10.89 C 61.67 9.21 63.92 8.09 65.39 9.56 C 67.95 12.83 69.65 16.68 71.86 20.19 C 86.24 45.39 100.76 70.53 115.47 95.55 C 115.76 96.04 116.05 96.55 116.33 97.06 C 119.35 102.86 122.95 108.35 126.02 114.12 C 127.62 116.85 125.39 121.26 122.05 120.96 C 84.37 121.06 46.68 120.96 8.99 121.01 C 6.72 121.01 4.45 120.98 2.19 120.68 C 0.24 120.21 -0.32 117.81 0.43 116.16 C 1.32 113.91 2.64 111.87 3.84 109.78 C 22.89 76.83 41.88 43.84 60.94 10.89 M 60.83 16.93 C 42.10 49.45 23.20 81.88 4.50 114.43 C 3.41 115.68 3.73 118.40 5.86 117.97 C 44.63 118.08 83.40 117.89 122.17 118.07 C 124.06 115.73 121.83 113.39 120.72 111.28 C 102.48 79.84 84.26 48.40 66.02 16.97 C 65.34 15.98 64.84 14.73 63.72 14.17 C 62.12 14.16 61.58 15.82 60.83 16.93 Z" />
<path fill="#ffffff" opacity="1.00" d=" M 23.43 103.41 C 36.73 80.70 49.61 57.75 63.03 35.12 C 64.02 35.75 64.81 36.57 65.40 37.58 C 78.19 59.79 90.99 81.98 103.87 104.13 C 104.48 105.39 105.52 106.59 105.46 108.07 C 104.28 109.26 102.54 108.95 101.04 109.01 C 76.03 109.00 51.02 108.98 26.01 109.02 C 24.51 108.76 22.33 109.53 21.36 108.03 C 21.58 106.32 22.65 104.89 23.43 103.41 M 64.98 66.96 C 65.01 71.65 65.02 76.33 65.00 81.02 C 60.50 78.19 56.11 74.92 50.91 73.50 C 46.51 72.03 43.85 77.22 44.03 80.90 C 43.97 89.27 44.02 97.63 44.00 106.00 C 45.67 104.00 47.33 102.01 49.00 100.02 C 50.66 102.00 52.32 103.99 54.00 105.97 C 54.00 98.97 54.00 91.98 54.00 84.98 C 58.26 88.18 62.62 92.00 68.07 92.79 C 72.24 93.21 74.95 88.78 74.99 85.08 C 74.95 78.07 75.15 71.04 74.88 64.03 C 73.49 61.24 71.61 58.74 70.00 56.08 C 68.23 59.64 64.50 62.65 64.98 66.96 Z" />
<path fill="#de2e2e" opacity="1.00" d=" M 60.83 16.93 C 61.58 15.82 62.12 14.16 63.72 14.17 C 64.84 14.73 65.34 15.98 66.02 16.97 C 84.26 48.40 102.48 79.84 120.72 111.28 C 121.83 113.39 124.06 115.73 122.17 118.07 C 83.40 117.89 44.63 118.08 5.86 117.97 C 3.73 118.40 3.41 115.68 4.50 114.43 C 23.20 81.88 42.10 49.45 60.83 16.93 M 23.43 103.41 C 22.65 104.89 21.58 106.32 21.36 108.03 C 22.33 109.53 24.51 108.76 26.01 109.02 C 51.02 108.98 76.03 109.00 101.04 109.01 C 102.54 108.95 104.28 109.26 105.46 108.07 C 105.52 106.59 104.48 105.39 103.87 104.13 C 90.99 81.98 78.19 59.79 65.40 37.58 C 64.81 36.57 64.02 35.75 63.03 35.12 C 49.61 57.75 36.73 80.70 23.43 103.41 Z" />
<path fill="#000000" opacity="1.00" d=" M 64.98 66.96 C 64.50 62.65 68.23 59.64 70.00 56.08 C 71.61 58.74 73.49 61.24 74.88 64.03 C 75.15 71.04 74.95 78.07 74.99 85.08 C 74.95 88.78 72.24 93.21 68.07 92.79 C 62.62 92.00 58.26 88.18 54.00 84.98 C 54.00 91.98 54.00 98.97 54.00 105.97 C 52.32 103.99 50.66 102.00 49.00 100.02 C 47.33 102.01 45.67 104.00 44.00 106.00 C 44.02 97.63 43.97 89.27 44.03 80.90 C 43.85 77.22 46.51 72.03 50.91 73.50 C 56.11 74.92 60.50 78.19 65.00 81.02 C 65.02 76.33 65.01 71.65 64.98 66.96 Z" />
</g>
</svg>
