<?xml version="1.0" encoding="UTF-8" ?>
<!DOCTYPE svg PUBLIC "-//W3C//DTD SVG 1.1//EN" "http://www.w3.org/Graphics/SVG/1.1/DTD/svg11.dtd">
<svg width="170pt" height="170pt" viewBox="0 0 170 170" version="1.1" xmlns="http://www.w3.org/2000/svg">
<g id="disabled">
<path fill="#606060" opacity="1.00" d=" M 83.32 12.38 C 85.85 11.34 88.66 12.93 89.79 15.24 C 115.54 59.78 141.31 104.31 167.07 148.84 C 169.43 151.95 166.90 156.75 163.08 156.80 C 111.01 156.83 58.94 156.83 6.87 156.80 C 3.15 156.69 0.64 152.03 2.92 148.96 C 28.66 104.38 54.47 59.84 80.23 15.28 C 80.95 14.04 81.91 12.86 83.32 12.38 M 84.44 38.31 C 64.89 72.45 45.09 106.44 25.41 140.50 C 25.39 140.79 25.33 141.35 25.30 141.64 C 65.19 141.66 105.08 141.48 144.96 141.72 C 144.86 141.38 144.66 140.70 144.55 140.36 C 133.90 121.79 123.02 103.34 112.54 84.67 C 103.26 69.41 94.50 53.80 85.60 38.31 C 85.31 38.31 84.73 38.31 84.44 38.31 Z" />
<path fill="#909090" opacity="1.00" d=" M 84.44 38.31 C 84.73 38.31 85.31 38.31 85.60 38.31 C 94.50 53.80 103.26 69.41 112.54 84.67 L 111.82 84.29 C 88.00 99.91 64.29 115.71 40.50 131.39 C 35.48 134.87 30.18 137.96 25.30 141.64 C 25.33 141.35 25.39 140.79 25.41 140.50 C 45.09 106.44 64.89 72.45 84.44 38.31 M 93.30 67.17 C 91.56 76.09 90.39 85.13 88.94 94.11 L 89.15 95.19 C 89.59 95.31 90.46 95.57 90.90 95.70 L 91.73 95.08 C 93.33 86.10 94.64 77.06 96.01 68.05 L 95.73 67.10 C 95.31 66.99 94.48 66.77 94.06 66.66 L 93.30 67.17 M 82.38 74.44 C 79.87 75.67 79.47 79.72 81.90 81.25 C 83.98 82.84 87.34 81.52 87.89 78.99 C 89.10 75.90 85.19 72.63 82.38 74.44 M 99.25 79.24 C 97.08 80.72 97.01 84.39 99.31 85.79 C 101.86 87.80 105.85 85.06 105.37 82.01 C 105.32 79.09 101.48 77.34 99.25 79.24 M 70.36 82.38 C 68.80 83.72 66.22 84.65 66.14 87.04 C 65.67 90.50 68.48 93.11 70.31 95.70 C 72.26 98.07 73.80 101.32 77.03 102.10 C 79.63 103.19 81.55 100.73 83.46 99.43 C 85.91 97.82 85.37 94.24 83.86 92.14 C 81.96 89.40 79.92 86.77 77.86 84.15 C 76.18 82.01 72.73 80.26 70.36 82.38 M 59.09 90.83 L 58.61 92.05 C 61.80 97.39 66.12 102.11 69.74 107.22 C 70.85 109.45 74.45 107.10 72.71 105.20 C 68.83 100.24 65.27 94.93 61.03 90.30 C 60.55 90.43 59.58 90.70 59.09 90.83 Z" />
<path fill="#909090" opacity="1.00" d=" M 83.43 76.44 C 85.17 75.70 87.19 78.84 84.99 79.33 C 83.21 80.58 81.06 77.08 83.43 76.44 Z" />
<path fill="#909090" opacity="1.00" d=" M 100.09 81.27 C 101.54 79.92 104.42 82.17 102.83 83.67 C 101.40 84.99 98.68 82.81 100.09 81.27 Z" />
<path fill="#909090" opacity="1.00" d=" M 69.31 87.80 C 70.28 86.53 71.69 85.65 73.02 84.79 C 75.20 85.49 76.15 87.78 77.56 89.38 C 78.94 91.60 81.20 93.39 81.77 96.02 C 80.95 97.31 79.39 98.43 77.95 98.95 C 75.99 98.04 74.97 96.03 73.67 94.43 C 72.14 92.27 70.22 90.33 69.31 87.80 Z" />
<path fill="#000000" opacity="1.00" d=" M 93.30 67.17 L 94.06 66.66 C 94.48 66.77 95.31 66.99 95.73 67.10 L 96.01 68.05 C 94.64 77.06 93.33 86.10 91.73 95.08 L 90.90 95.70 C 90.46 95.57 89.59 95.31 89.15 95.19 L 88.94 94.11 C 90.39 85.13 91.56 76.09 93.30 67.17 Z" />
<path fill="#000000" opacity="1.00" d=" M 82.38 74.44 C 85.19 72.63 89.10 75.90 87.89 78.99 C 87.34 81.52 83.98 82.84 81.90 81.25 C 79.47 79.72 79.87 75.67 82.38 74.44 M 83.43 76.44 C 81.06 77.08 83.21 80.58 84.99 79.33 C 87.19 78.84 85.17 75.70 83.43 76.44 Z" />
<path fill="#000000" opacity="1.00" d=" M 99.25 79.24 C 101.48 77.34 105.32 79.09 105.37 82.01 C 105.85 85.06 101.86 87.80 99.31 85.79 C 97.01 84.39 97.08 80.72 99.25 79.24 M 100.09 81.27 C 98.68 82.81 101.40 84.99 102.83 83.67 C 104.42 82.17 101.54 79.92 100.09 81.27 Z" />
<path fill="#000000" opacity="1.00" d=" M 70.36 82.38 C 72.73 80.26 76.18 82.01 77.86 84.15 C 79.92 86.77 81.96 89.40 83.86 92.14 C 85.37 94.24 85.91 97.82 83.46 99.43 C 81.55 100.73 79.63 103.19 77.03 102.10 C 73.80 101.32 72.26 98.07 70.31 95.70 C 68.48 93.11 65.67 90.50 66.14 87.04 C 66.22 84.65 68.80 83.72 70.36 82.38 M 69.31 87.80 C 70.22 90.33 72.14 92.27 73.67 94.43 C 74.97 96.03 75.99 98.04 77.95 98.95 C 79.39 98.43 80.95 97.31 81.77 96.02 C 81.20 93.39 78.94 91.60 77.56 89.38 C 76.15 87.78 75.20 85.49 73.02 84.79 C 71.69 85.65 70.28 86.53 69.31 87.80 Z" />
<path fill="#000000" opacity="1.00" d=" M 40.50 131.39 C 64.29 115.71 88.00 99.91 111.82 84.29 L 112.54 84.67 C 123.02 103.34 133.90 121.79 144.55 140.36 C 144.66 140.70 144.86 141.38 144.96 141.72 C 105.08 141.48 65.19 141.66 25.30 141.64 C 30.18 137.96 35.48 134.87 40.50 131.39 Z" />
<path fill="#000000" opacity="1.00" d=" M 59.09 90.83 C 59.58 90.70 60.55 90.43 61.03 90.30 C 65.27 94.93 68.83 100.24 72.71 105.20 C 74.45 107.10 70.85 109.45 69.74 107.22 C 66.12 102.11 61.80 97.39 58.61 92.05 L 59.09 90.83 Z" />
</g>
<g id="normal">
<path fill="#cc0000" opacity="1.00" d=" M 83.32 12.38 C 85.85 11.34 88.66 12.93 89.79 15.24 C 115.54 59.78 141.31 104.31 167.07 148.84 C 169.43 151.95 166.90 156.75 163.08 156.80 C 111.01 156.83 58.94 156.83 6.87 156.80 C 3.15 156.69 0.64 152.03 2.92 148.96 C 28.66 104.38 54.47 59.84 80.23 15.28 C 80.95 14.04 81.91 12.86 83.32 12.38 M 84.44 38.31 C 64.89 72.45 45.09 106.44 25.41 140.50 C 25.39 140.79 25.33 141.35 25.30 141.64 C 65.19 141.66 105.08 141.48 144.96 141.72 C 144.86 141.38 144.66 140.70 144.55 140.36 C 133.90 121.79 123.02 103.34 112.54 84.67 C 103.26 69.41 94.50 53.80 85.60 38.31 C 85.31 38.31 84.73 38.31 84.44 38.31 Z" />
<path fill="#ffc500" opacity="1.00" d=" M 84.44 38.31 C 84.73 38.31 85.31 38.31 85.60 38.31 C 94.50 53.80 103.26 69.41 112.54 84.67 L 111.82 84.29 C 88.00 99.91 64.29 115.71 40.50 131.39 C 35.48 134.87 30.18 137.96 25.30 141.64 C 25.33 141.35 25.39 140.79 25.41 140.50 C 45.09 106.44 64.89 72.45 84.44 38.31 M 93.30 67.17 C 91.56 76.09 90.39 85.13 88.94 94.11 L 89.15 95.19 C 89.59 95.31 90.46 95.57 90.90 95.70 L 91.73 95.08 C 93.33 86.10 94.64 77.06 96.01 68.05 L 95.73 67.10 C 95.31 66.99 94.48 66.77 94.06 66.66 L 93.30 67.17 M 82.38 74.44 C 79.87 75.67 79.47 79.72 81.90 81.25 C 83.98 82.84 87.34 81.52 87.89 78.99 C 89.10 75.90 85.19 72.63 82.38 74.44 M 99.25 79.24 C 97.08 80.72 97.01 84.39 99.31 85.79 C 101.86 87.80 105.85 85.06 105.37 82.01 C 105.32 79.09 101.48 77.34 99.25 79.24 M 70.36 82.38 C 68.80 83.72 66.22 84.65 66.14 87.04 C 65.67 90.50 68.48 93.11 70.31 95.70 C 72.26 98.07 73.80 101.32 77.03 102.10 C 79.63 103.19 81.55 100.73 83.46 99.43 C 85.91 97.82 85.37 94.24 83.86 92.14 C 81.96 89.40 79.92 86.77 77.86 84.15 C 76.18 82.01 72.73 80.26 70.36 82.38 M 59.09 90.83 L 58.61 92.05 C 61.80 97.39 66.12 102.11 69.74 107.22 C 70.85 109.45 74.45 107.10 72.71 105.20 C 68.83 100.24 65.27 94.93 61.03 90.30 C 60.55 90.43 59.58 90.70 59.09 90.83 Z" />
<path fill="#ffc500" opacity="1.00" d=" M 83.43 76.44 C 85.17 75.70 87.19 78.84 84.99 79.33 C 83.21 80.58 81.06 77.08 83.43 76.44 Z" />
<path fill="#ffc500" opacity="1.00" d=" M 100.09 81.27 C 101.54 79.92 104.42 82.17 102.83 83.67 C 101.40 84.99 98.68 82.81 100.09 81.27 Z" />
<path fill="#ffc500" opacity="1.00" d=" M 69.31 87.80 C 70.28 86.53 71.69 85.65 73.02 84.79 C 75.20 85.49 76.15 87.78 77.56 89.38 C 78.94 91.60 81.20 93.39 81.77 96.02 C 80.95 97.31 79.39 98.43 77.95 98.95 C 75.99 98.04 74.97 96.03 73.67 94.43 C 72.14 92.27 70.22 90.33 69.31 87.80 Z" />
<path fill="#000000" opacity="1.00" d=" M 93.30 67.17 L 94.06 66.66 C 94.48 66.77 95.31 66.99 95.73 67.10 L 96.01 68.05 C 94.64 77.06 93.33 86.10 91.73 95.08 L 90.90 95.70 C 90.46 95.57 89.59 95.31 89.15 95.19 L 88.94 94.11 C 90.39 85.13 91.56 76.09 93.30 67.17 Z" />
<path fill="#000000" opacity="1.00" d=" M 82.38 74.44 C 85.19 72.63 89.10 75.90 87.89 78.99 C 87.34 81.52 83.98 82.84 81.90 81.25 C 79.47 79.72 79.87 75.67 82.38 74.44 M 83.43 76.44 C 81.06 77.08 83.21 80.58 84.99 79.33 C 87.19 78.84 85.17 75.70 83.43 76.44 Z" />
<path fill="#000000" opacity="1.00" d=" M 99.25 79.24 C 101.48 77.34 105.32 79.09 105.37 82.01 C 105.85 85.06 101.86 87.80 99.31 85.79 C 97.01 84.39 97.08 80.72 99.25 79.24 M 100.09 81.27 C 98.68 82.81 101.40 84.99 102.83 83.67 C 104.42 82.17 101.54 79.92 100.09 81.27 Z" />
<path fill="#000000" opacity="1.00" d=" M 70.36 82.38 C 72.73 80.26 76.18 82.01 77.86 84.15 C 79.92 86.77 81.96 89.40 83.86 92.14 C 85.37 94.24 85.91 97.82 83.46 99.43 C 81.55 100.73 79.63 103.19 77.03 102.10 C 73.80 101.32 72.26 98.07 70.31 95.70 C 68.48 93.11 65.67 90.50 66.14 87.04 C 66.22 84.65 68.80 83.72 70.36 82.38 M 69.31 87.80 C 70.22 90.33 72.14 92.27 73.67 94.43 C 74.97 96.03 75.99 98.04 77.95 98.95 C 79.39 98.43 80.95 97.31 81.77 96.02 C 81.20 93.39 78.94 91.60 77.56 89.38 C 76.15 87.78 75.20 85.49 73.02 84.79 C 71.69 85.65 70.28 86.53 69.31 87.80 Z" />
<path fill="#000000" opacity="1.00" d=" M 40.50 131.39 C 64.29 115.71 88.00 99.91 111.82 84.29 L 112.54 84.67 C 123.02 103.34 133.90 121.79 144.55 140.36 C 144.66 140.70 144.86 141.38 144.96 141.72 C 105.08 141.48 65.19 141.66 25.30 141.64 C 30.18 137.96 35.48 134.87 40.50 131.39 Z" />
<path fill="#000000" opacity="1.00" d=" M 59.09 90.83 C 59.58 90.70 60.55 90.43 61.03 90.30 C 65.27 94.93 68.83 100.24 72.71 105.20 C 74.45 107.10 70.85 109.45 69.74 107.22 C 66.12 102.11 61.80 97.39 58.61 92.05 L 59.09 90.83 Z" />
</g>
</svg>
