<?xml version="1.0" encoding="UTF-8" ?>
<!DOCTYPE svg PUBLIC "-//W3C//DTD SVG 1.1//EN" "http://www.w3.org/Graphics/SVG/1.1/DTD/svg11.dtd">
<svg width="173pt" height="173pt" viewBox="0 0 173 173" version="1.1" xmlns="http://www.w3.org/2000/svg">
<g id="disabled">
<path fill="#909090" opacity="1.00" d=" M 79.18 24.31 C 92.19 22.72 105.56 25.79 116.94 32.19 C 127.85 38.69 137.00 48.30 142.45 59.82 C 149.52 74.62 150.39 92.29 144.69 107.70 C 139.36 122.22 128.51 134.60 114.78 141.75 C 105.94 146.46 95.96 148.72 85.99 149.01 C 71.24 148.74 56.52 143.44 45.37 133.71 C 32.62 122.89 24.47 106.70 23.68 89.97 C 22.53 72.77 29.22 55.36 41.20 43.02 C 51.18 32.61 64.84 25.91 79.18 24.31 M 32.55 61.23 C 28.00 71.76 26.11 83.40 27.46 94.82 C 43.58 94.92 59.70 94.90 75.82 94.83 C 75.92 83.61 75.91 72.39 75.82 61.17 C 61.40 61.13 46.97 61.02 32.55 61.23 M 131.42 61.18 C 131.32 72.41 131.39 83.64 131.38 94.86 C 135.77 95.01 140.16 94.97 144.55 94.90 C 146.04 83.43 144.12 71.76 139.53 61.18 C 136.83 61.11 134.12 61.11 131.42 61.18 M 103.63 70.37 C 96.12 81.38 95.62 95.20 95.35 108.06 C 96.31 108.03 98.23 107.97 99.20 107.93 C 100.11 106.09 100.04 103.82 101.38 102.14 C 104.23 96.97 111.64 95.14 116.44 98.65 C 119.76 100.66 121.29 104.42 121.83 108.11 C 124.89 108.62 127.69 106.21 130.68 107.25 C 133.94 108.55 137.50 107.85 140.92 108.00 C 142.12 104.44 143.14 100.82 144.14 97.19 C 139.91 97.08 135.68 97.09 131.45 97.19 C 131.42 97.89 131.37 99.30 131.35 100.00 C 129.71 100.00 128.07 100.00 126.43 100.00 C 127.28 90.16 128.53 80.31 127.80 70.41 C 119.74 70.32 111.68 70.40 103.63 70.37 M 27.96 97.20 C 28.81 100.86 29.79 104.49 31.09 108.01 C 33.66 108.00 36.24 108.00 38.81 108.00 C 39.49 103.55 42.05 99.78 45.69 97.20 C 39.78 97.07 33.87 97.08 27.96 97.20 M 54.65 97.19 C 57.96 99.96 61.17 103.42 61.31 108.00 C 64.81 108.00 68.30 108.00 71.80 108.00 C 72.69 104.39 73.66 100.80 74.27 97.13 C 67.73 97.15 61.19 97.04 54.65 97.19 M 47.31 99.23 C 40.64 101.09 38.58 110.69 44.29 114.81 C 49.27 119.59 58.82 116.09 59.09 109.09 C 60.50 102.59 53.38 96.96 47.31 99.23 M 102.28 103.39 L 101.38 102.14 C 102.90 103.55 101.37 105.34 101.34 106.97 C 100.64 111.96 104.97 116.68 109.87 117.01 C 114.55 117.50 119.27 113.80 119.75 109.07 C 120.74 103.56 115.48 98.18 109.98 98.84 C 106.77 98.86 104.20 101.05 102.28 103.39 Z" />
<path fill="#909090" opacity="1.00" d=" M 105.18 73.61 C 109.91 73.64 114.64 73.62 119.37 73.63 C 119.38 77.46 119.38 81.29 119.37 85.12 C 113.37 85.13 107.36 85.11 101.36 85.14 C 102.57 81.27 103.89 77.45 105.18 73.61 Z" />
<path fill="#606060" opacity="1.00" d=" M 73.57 5.65 C 79.96 4.52 86.48 5.13 92.93 5.02 C 112.60 6.50 131.62 15.55 145.14 29.92 C 161.27 46.43 169.44 70.13 167.70 93.07 C 166.10 115.32 154.43 136.24 137.20 150.22 C 114.18 169.40 80.06 173.47 52.87 161.18 C 20.90 147.54 -0.07 111.60 4.82 77.04 C 7.35 54.81 19.35 33.71 37.58 20.64 C 48.07 12.70 60.63 7.75 73.57 5.65 M 79.18 24.31 C 64.84 25.91 51.18 32.61 41.20 43.02 C 29.22 55.36 22.53 72.77 23.68 89.97 C 24.47 106.70 32.62 122.89 45.37 133.71 C 56.52 143.44 71.24 148.74 85.99 149.01 C 95.96 148.72 105.94 146.46 114.78 141.75 C 128.51 134.60 139.36 122.22 144.69 107.70 C 150.39 92.29 149.52 74.62 142.45 59.82 C 137.00 48.30 127.85 38.69 116.94 32.19 C 105.56 25.79 92.19 22.72 79.18 24.31 Z" />
<path fill="#000000" opacity="1.00" d=" M 32.55 61.23 C 46.97 61.02 61.40 61.13 75.82 61.17 C 75.91 72.39 75.92 83.61 75.82 94.83 C 59.70 94.90 43.58 94.92 27.46 94.82 C 26.11 83.40 28.00 71.76 32.55 61.23 Z" />
<path fill="#000000" opacity="1.00" d=" M 131.42 61.18 C 134.12 61.11 136.83 61.11 139.53 61.18 C 144.12 71.76 146.04 83.43 144.55 94.90 C 140.16 94.97 135.77 95.01 131.38 94.86 C 131.39 83.64 131.32 72.41 131.42 61.18 Z" />
<path fill="#000000" opacity="1.00" d=" M 103.63 70.37 C 111.68 70.40 119.74 70.32 127.80 70.41 C 128.53 80.31 127.28 90.16 126.43 100.00 C 128.07 100.00 129.71 100.00 131.35 100.00 C 131.37 99.30 131.42 97.89 131.45 97.19 C 135.68 97.09 139.91 97.08 144.14 97.19 C 143.14 100.82 142.12 104.44 140.92 108.00 C 137.50 107.85 133.94 108.55 130.68 107.25 C 127.69 106.21 124.89 108.62 121.83 108.11 C 121.29 104.42 119.76 100.66 116.44 98.65 C 111.64 95.14 104.23 96.97 101.38 102.14 C 100.04 103.82 100.11 106.09 99.20 107.93 C 98.23 107.97 96.31 108.03 95.35 108.06 C 95.62 95.20 96.12 81.38 103.63 70.37 M 105.18 73.61 C 103.89 77.45 102.57 81.27 101.36 85.14 C 107.36 85.11 113.37 85.13 119.37 85.12 C 119.38 81.29 119.38 77.46 119.37 73.63 C 114.64 73.62 109.91 73.64 105.18 73.61 Z" />
<path fill="#000000" opacity="1.00" d=" M 27.96 97.20 C 33.87 97.08 39.78 97.07 45.69 97.20 C 42.05 99.78 39.49 103.55 38.81 108.00 C 36.24 108.00 33.66 108.00 31.09 108.01 C 29.79 104.49 28.81 100.86 27.96 97.20 Z" />
<path fill="#000000" opacity="1.00" d=" M 54.65 97.19 C 61.19 97.04 67.73 97.15 74.27 97.13 C 73.66 100.80 72.69 104.39 71.80 108.00 C 68.30 108.00 64.81 108.00 61.31 108.00 C 61.17 103.42 57.96 99.96 54.65 97.19 Z" />
<path fill="#000000" opacity="1.00" d=" M 47.31 99.23 C 53.38 96.96 60.50 102.59 59.09 109.09 C 58.82 116.09 49.27 119.59 44.29 114.81 C 38.58 110.69 40.64 101.09 47.31 99.23 Z" />
<path fill="#000000" opacity="1.00" d=" M 102.28 103.39 C 104.20 101.05 106.77 98.86 109.98 98.84 C 115.48 98.18 120.74 103.56 119.75 109.07 C 119.27 113.80 114.55 117.50 109.87 117.01 C 104.97 116.68 100.64 111.96 101.34 106.97 C 101.37 105.34 102.90 103.55 101.38 102.14 L 102.28 103.39 Z" />
</g>
<g id="normal">
<path fill="#ffc500" opacity="1.00" d=" M 79.18 24.31 C 92.19 22.72 105.56 25.79 116.94 32.19 C 127.85 38.69 137.00 48.30 142.45 59.82 C 149.52 74.62 150.39 92.29 144.69 107.70 C 139.36 122.22 128.51 134.60 114.78 141.75 C 105.94 146.46 95.96 148.72 85.99 149.01 C 71.24 148.74 56.52 143.44 45.37 133.71 C 32.62 122.89 24.47 106.70 23.68 89.97 C 22.53 72.77 29.22 55.36 41.20 43.02 C 51.18 32.61 64.84 25.91 79.18 24.31 M 32.55 61.23 C 28.00 71.76 26.11 83.40 27.46 94.82 C 43.58 94.92 59.70 94.90 75.82 94.83 C 75.92 83.61 75.91 72.39 75.82 61.17 C 61.40 61.13 46.97 61.02 32.55 61.23 M 131.42 61.18 C 131.32 72.41 131.39 83.64 131.38 94.86 C 135.77 95.01 140.16 94.97 144.55 94.90 C 146.04 83.43 144.12 71.76 139.53 61.18 C 136.83 61.11 134.12 61.11 131.42 61.18 M 103.63 70.37 C 96.12 81.38 95.62 95.20 95.35 108.06 C 96.31 108.03 98.23 107.97 99.20 107.93 C 100.11 106.09 100.04 103.82 101.38 102.14 C 104.23 96.97 111.64 95.14 116.44 98.65 C 119.76 100.66 121.29 104.42 121.83 108.11 C 124.89 108.62 127.69 106.21 130.68 107.25 C 133.94 108.55 137.50 107.85 140.92 108.00 C 142.12 104.44 143.14 100.82 144.14 97.19 C 139.91 97.08 135.68 97.09 131.45 97.19 C 131.42 97.89 131.37 99.30 131.35 100.00 C 129.71 100.00 128.07 100.00 126.43 100.00 C 127.28 90.16 128.53 80.31 127.80 70.41 C 119.74 70.32 111.68 70.40 103.63 70.37 M 27.96 97.20 C 28.81 100.86 29.79 104.49 31.09 108.01 C 33.66 108.00 36.24 108.00 38.81 108.00 C 39.49 103.55 42.05 99.78 45.69 97.20 C 39.78 97.07 33.87 97.08 27.96 97.20 M 54.65 97.19 C 57.96 99.96 61.17 103.42 61.31 108.00 C 64.81 108.00 68.30 108.00 71.80 108.00 C 72.69 104.39 73.66 100.80 74.27 97.13 C 67.73 97.15 61.19 97.04 54.65 97.19 M 47.31 99.23 C 40.64 101.09 38.58 110.69 44.29 114.81 C 49.27 119.59 58.82 116.09 59.09 109.09 C 60.50 102.59 53.38 96.96 47.31 99.23 M 102.28 103.39 L 101.38 102.14 C 102.90 103.55 101.37 105.34 101.34 106.97 C 100.64 111.96 104.97 116.68 109.87 117.01 C 114.55 117.50 119.27 113.80 119.75 109.07 C 120.74 103.56 115.48 98.18 109.98 98.84 C 106.77 98.86 104.20 101.05 102.28 103.39 Z" />
<path fill="#ffc500" opacity="1.00" d=" M 105.18 73.61 C 109.91 73.64 114.64 73.62 119.37 73.63 C 119.38 77.46 119.38 81.29 119.37 85.12 C 113.37 85.13 107.36 85.11 101.36 85.14 C 102.57 81.27 103.89 77.45 105.18 73.61 Z" />
<path fill="#cc0000" opacity="1.00" d=" M 73.57 5.65 C 79.96 4.52 86.48 5.13 92.93 5.02 C 112.60 6.50 131.62 15.55 145.14 29.92 C 161.27 46.43 169.44 70.13 167.70 93.07 C 166.10 115.32 154.43 136.24 137.20 150.22 C 114.18 169.40 80.06 173.47 52.87 161.18 C 20.90 147.54 -0.07 111.60 4.82 77.04 C 7.35 54.81 19.35 33.71 37.58 20.64 C 48.07 12.70 60.63 7.75 73.57 5.65 M 79.18 24.31 C 64.84 25.91 51.18 32.61 41.20 43.02 C 29.22 55.36 22.53 72.77 23.68 89.97 C 24.47 106.70 32.62 122.89 45.37 133.71 C 56.52 143.44 71.24 148.74 85.99 149.01 C 95.96 148.72 105.94 146.46 114.78 141.75 C 128.51 134.60 139.36 122.22 144.69 107.70 C 150.39 92.29 149.52 74.62 142.45 59.82 C 137.00 48.30 127.85 38.69 116.94 32.19 C 105.56 25.79 92.19 22.72 79.18 24.31 Z" />
<path fill="#000000" opacity="1.00" d=" M 32.55 61.23 C 46.97 61.02 61.40 61.13 75.82 61.17 C 75.91 72.39 75.92 83.61 75.82 94.83 C 59.70 94.90 43.58 94.92 27.46 94.82 C 26.11 83.40 28.00 71.76 32.55 61.23 Z" />
<path fill="#000000" opacity="1.00" d=" M 131.42 61.18 C 134.12 61.11 136.83 61.11 139.53 61.18 C 144.12 71.76 146.04 83.43 144.55 94.90 C 140.16 94.97 135.77 95.01 131.38 94.86 C 131.39 83.64 131.32 72.41 131.42 61.18 Z" />
<path fill="#000000" opacity="1.00" d=" M 103.63 70.37 C 111.68 70.40 119.74 70.32 127.80 70.41 C 128.53 80.31 127.28 90.16 126.43 100.00 C 128.07 100.00 129.71 100.00 131.35 100.00 C 131.37 99.30 131.42 97.89 131.45 97.19 C 135.68 97.09 139.91 97.08 144.14 97.19 C 143.14 100.82 142.12 104.44 140.92 108.00 C 137.50 107.85 133.94 108.55 130.68 107.25 C 127.69 106.21 124.89 108.62 121.83 108.11 C 121.29 104.42 119.76 100.66 116.44 98.65 C 111.64 95.14 104.23 96.97 101.38 102.14 C 100.04 103.82 100.11 106.09 99.20 107.93 C 98.23 107.97 96.31 108.03 95.35 108.06 C 95.62 95.20 96.12 81.38 103.63 70.37 M 105.18 73.61 C 103.89 77.45 102.57 81.27 101.36 85.14 C 107.36 85.11 113.37 85.13 119.37 85.12 C 119.38 81.29 119.38 77.46 119.37 73.63 C 114.64 73.62 109.91 73.64 105.18 73.61 Z" />
<path fill="#000000" opacity="1.00" d=" M 27.96 97.20 C 33.87 97.08 39.78 97.07 45.69 97.20 C 42.05 99.78 39.49 103.55 38.81 108.00 C 36.24 108.00 33.66 108.00 31.09 108.01 C 29.79 104.49 28.81 100.86 27.96 97.20 Z" />
<path fill="#000000" opacity="1.00" d=" M 54.65 97.19 C 61.19 97.04 67.73 97.15 74.27 97.13 C 73.66 100.80 72.69 104.39 71.80 108.00 C 68.30 108.00 64.81 108.00 61.31 108.00 C 61.17 103.42 57.96 99.96 54.65 97.19 Z" />
<path fill="#000000" opacity="1.00" d=" M 47.31 99.23 C 53.38 96.96 60.50 102.59 59.09 109.09 C 58.82 116.09 49.27 119.59 44.29 114.81 C 38.58 110.69 40.64 101.09 47.31 99.23 Z" />
<path fill="#000000" opacity="1.00" d=" M 102.28 103.39 C 104.20 101.05 106.77 98.86 109.98 98.84 C 115.48 98.18 120.74 103.56 119.75 109.07 C 119.27 113.80 114.55 117.50 109.87 117.01 C 104.97 116.68 100.64 111.96 101.34 106.97 C 101.37 105.34 102.90 103.55 101.38 102.14 L 102.28 103.39 Z" />
</g>
</svg>
