<?xml version="1.0" encoding="UTF-8" ?>
<!DOCTYPE svg PUBLIC "-//W3C//DTD SVG 1.1//EN" "http://www.w3.org/Graphics/SVG/1.1/DTD/svg11.dtd">
<svg width="170pt" height="170pt" viewBox="0 0 170 170" version="1.1" xmlns="http://www.w3.org/2000/svg">
<g id="disabled">
<path fill="#606060" opacity="1.00" d=" M 83.32 12.38 C 85.81 11.30 88.68 12.91 89.77 15.24 C 114.96 58.77 140.14 102.32 165.33 145.85 C 166.28 147.55 167.44 149.18 167.95 151.08 C 168.45 154.36 165.28 157.26 162.05 156.82 C 110.66 156.82 59.26 156.82 7.87 156.82 C 5.32 157.05 2.71 155.42 2.20 152.84 C 1.56 150.97 2.82 149.25 3.65 147.68 C 28.71 104.40 53.75 61.10 78.79 17.80 C 80.05 15.84 80.90 13.20 83.32 12.38 M 84.62 38.22 C 64.72 72.66 44.76 107.07 24.89 141.52 C 64.97 141.54 105.06 141.53 145.14 141.53 C 125.29 107.04 105.30 72.62 85.39 38.16 C 85.20 38.17 84.81 38.20 84.62 38.22 Z" />
<path fill="#909090" opacity="1.00" d=" M 84.62 38.22 C 84.81 38.20 85.20 38.17 85.39 38.16 C 105.30 72.62 125.29 107.04 145.14 141.53 C 105.06 141.53 64.97 141.54 24.89 141.52 C 44.76 107.07 64.72 72.66 84.62 38.22 M 68.72 96.94 C 68.73 99.05 68.71 101.16 68.69 103.28 C 66.93 103.27 65.17 103.27 63.42 103.27 C 63.40 101.15 63.37 99.04 63.39 96.93 C 62.26 95.59 61.12 94.27 59.97 92.96 C 58.84 94.22 57.63 95.41 56.57 96.74 C 56.09 98.86 56.47 101.09 56.36 103.25 C 55.61 103.26 54.11 103.28 53.35 103.29 C 53.35 105.12 53.35 106.95 53.35 108.78 C 54.10 108.79 55.60 108.81 56.35 108.82 C 56.36 113.58 56.35 118.35 56.33 123.11 C 55.58 123.12 54.09 123.15 53.35 123.16 C 53.35 124.97 53.35 126.78 53.36 128.58 C 54.10 128.59 55.58 128.61 56.32 128.62 C 56.32 131.03 56.33 133.44 56.32 135.86 C 58.72 135.87 61.11 135.87 63.50 135.87 C 63.49 133.44 63.49 131.02 63.50 128.60 C 65.22 128.60 66.94 128.60 68.67 128.59 C 68.68 131.02 68.69 133.44 68.68 135.86 C 71.07 135.87 73.46 135.87 75.86 135.86 C 75.84 133.44 75.85 131.02 75.84 128.61 C 77.66 128.60 79.48 128.60 81.30 128.60 C 81.30 131.02 81.31 133.44 81.30 135.86 C 83.69 135.87 86.09 135.87 88.48 135.87 C 88.47 133.44 88.47 131.02 88.47 128.60 C 90.29 128.59 92.11 128.60 93.93 128.60 C 93.92 131.02 93.93 133.44 93.93 135.86 C 96.32 135.87 98.71 135.87 101.10 135.86 C 101.09 133.44 101.09 131.02 101.08 128.60 C 102.72 128.60 104.36 128.60 106.00 128.60 C 106.00 131.02 106.01 133.44 106.01 135.86 C 108.40 135.87 110.79 135.87 113.18 135.86 C 113.18 133.44 113.18 131.03 113.17 128.62 C 114.24 128.60 115.31 128.59 116.38 128.58 C 116.37 126.76 116.37 124.95 116.36 123.14 C 115.56 123.14 113.96 123.13 113.15 123.12 C 113.12 118.35 113.11 113.58 113.11 108.81 C 113.92 108.81 115.55 108.80 116.36 108.79 C 116.37 106.96 116.37 105.13 116.38 103.30 C 115.28 103.28 114.19 103.26 113.09 103.25 C 113.08 101.15 113.06 99.05 113.07 96.95 C 111.95 95.60 110.82 94.27 109.66 92.95 C 108.44 94.27 107.24 95.60 106.05 96.93 C 106.06 99.04 106.04 101.15 106.04 103.26 C 104.36 103.27 102.68 103.27 101.01 103.27 C 101.00 101.15 100.98 99.04 100.98 96.93 C 99.86 95.59 98.73 94.27 97.59 92.95 C 96.37 94.27 95.16 95.59 93.96 96.93 C 93.97 99.04 93.96 101.15 93.95 103.26 C 92.10 103.27 90.25 103.27 88.40 103.27 C 88.37 101.16 88.35 99.04 88.37 96.93 C 87.25 95.59 86.11 94.27 84.96 92.96 C 83.82 94.20 82.61 95.39 81.57 96.72 C 81.03 98.83 81.47 101.09 81.34 103.26 C 79.48 103.27 77.62 103.27 75.76 103.26 C 75.74 101.22 75.82 99.19 75.69 97.15 C 74.89 95.60 73.52 94.41 72.50 93.00 C 71.11 94.18 69.92 95.57 68.72 96.94 Z" />
<path fill="#909090" opacity="1.00" d=" M 63.47 123.14 C 63.46 118.36 63.41 113.58 63.44 108.80 C 65.19 108.80 66.95 108.80 68.70 108.81 C 68.70 113.58 68.70 118.35 68.68 123.11 C 66.94 123.13 65.20 123.13 63.47 123.14 Z" />
<path fill="#909090" opacity="1.00" d=" M 75.78 108.81 C 77.63 108.80 79.47 108.80 81.32 108.81 C 81.33 113.58 81.33 118.35 81.31 123.13 C 79.48 123.13 77.65 123.13 75.83 123.13 C 75.80 118.35 75.78 113.58 75.78 108.81 Z" />
<path fill="#909090" opacity="1.00" d=" M 88.44 123.13 C 88.46 118.35 88.34 113.56 88.46 108.78 C 90.29 108.79 92.12 108.80 93.95 108.81 C 93.95 113.58 93.95 118.35 93.93 123.13 C 92.10 123.13 90.27 123.13 88.44 123.13 Z" />
<path fill="#909090" opacity="1.00" d=" M 101.02 108.80 C 102.69 108.80 104.36 108.80 106.03 108.81 C 106.04 113.58 106.03 118.35 106.01 123.13 C 104.36 123.13 102.72 123.13 101.07 123.13 C 101.04 118.35 101.03 113.58 101.02 108.80 Z" />
<path fill="#000000" opacity="1.00" d=" M 68.72 96.94 C 69.92 95.57 71.11 94.18 72.50 93.00 C 73.52 94.41 74.89 95.60 75.69 97.15 C 75.82 99.19 75.74 101.22 75.76 103.26 C 77.62 103.27 79.48 103.27 81.34 103.26 C 81.47 101.09 81.03 98.83 81.57 96.72 C 82.61 95.39 83.82 94.20 84.96 92.96 C 86.11 94.27 87.25 95.59 88.37 96.93 C 88.35 99.04 88.37 101.16 88.40 103.27 C 90.25 103.27 92.10 103.27 93.95 103.26 C 93.96 101.15 93.97 99.04 93.96 96.93 C 95.16 95.59 96.37 94.27 97.59 92.95 C 98.73 94.27 99.86 95.59 100.98 96.93 C 100.98 99.04 101.00 101.15 101.01 103.27 C 102.68 103.27 104.36 103.27 106.04 103.26 C 106.04 101.15 106.06 99.04 106.05 96.93 C 107.24 95.60 108.44 94.27 109.66 92.95 C 110.82 94.27 111.95 95.60 113.07 96.95 C 113.06 99.05 113.08 101.15 113.09 103.25 C 114.19 103.26 115.28 103.28 116.38 103.30 C 116.37 105.13 116.37 106.96 116.36 108.79 C 115.55 108.80 113.92 108.81 113.11 108.81 C 113.11 113.58 113.12 118.35 113.15 123.12 C 113.96 123.13 115.56 123.14 116.36 123.14 C 116.37 124.95 116.37 126.76 116.38 128.58 C 115.31 128.59 114.24 128.60 113.17 128.62 C 113.18 131.03 113.18 133.44 113.18 135.86 C 110.79 135.87 108.40 135.87 106.01 135.86 C 106.01 133.44 106.00 131.02 106.00 128.60 C 104.36 128.60 102.72 128.60 101.08 128.60 C 101.09 131.02 101.09 133.44 101.10 135.86 C 98.71 135.87 96.32 135.87 93.93 135.86 C 93.93 133.44 93.92 131.02 93.93 128.60 C 92.11 128.60 90.29 128.59 88.47 128.60 C 88.47 131.02 88.47 133.44 88.48 135.87 C 86.09 135.87 83.69 135.87 81.30 135.86 C 81.31 133.44 81.30 131.02 81.30 128.60 C 79.48 128.60 77.66 128.60 75.84 128.61 C 75.85 131.02 75.84 133.44 75.86 135.86 C 73.46 135.87 71.07 135.87 68.68 135.86 C 68.69 133.44 68.68 131.02 68.67 128.59 C 66.94 128.60 65.22 128.60 63.50 128.60 C 63.49 131.02 63.49 133.44 63.50 135.87 C 61.11 135.87 58.72 135.87 56.32 135.86 C 56.33 133.44 56.32 131.03 56.32 128.62 C 55.58 128.61 54.10 128.59 53.36 128.58 C 53.35 126.78 53.35 124.97 53.35 123.16 C 54.09 123.15 55.58 123.12 56.33 123.11 C 56.35 118.35 56.36 113.58 56.35 108.82 C 55.60 108.81 54.10 108.79 53.35 108.78 C 53.35 106.95 53.35 105.12 53.35 103.29 C 54.11 103.28 55.61 103.26 56.36 103.25 C 56.47 101.09 56.09 98.86 56.57 96.74 C 57.63 95.41 58.84 94.22 59.97 92.96 C 61.12 94.27 62.26 95.59 63.39 96.93 C 63.37 99.04 63.40 101.15 63.42 103.27 C 65.17 103.27 66.93 103.27 68.69 103.28 C 68.71 101.16 68.73 99.05 68.72 96.94 M 63.47 123.14 C 65.20 123.13 66.94 123.13 68.68 123.11 C 68.70 118.35 68.70 113.58 68.70 108.81 C 66.95 108.80 65.19 108.80 63.44 108.80 C 63.41 113.58 63.46 118.36 63.47 123.14 M 75.78 108.81 C 75.78 113.58 75.80 118.35 75.83 123.13 C 77.65 123.13 79.48 123.13 81.31 123.13 C 81.33 118.35 81.33 113.58 81.32 108.81 C 79.47 108.80 77.63 108.80 75.78 108.81 M 88.44 123.13 C 90.27 123.13 92.10 123.13 93.93 123.13 C 93.95 118.35 93.95 113.58 93.95 108.81 C 92.12 108.80 90.29 108.79 88.46 108.78 C 88.34 113.56 88.46 118.35 88.44 123.13 M 101.02 108.80 C 101.03 113.58 101.04 118.35 101.07 123.13 C 102.72 123.13 104.36 123.13 106.01 123.13 C 106.03 118.35 106.04 113.58 106.03 108.81 C 104.36 108.80 102.69 108.80 101.02 108.80 Z" />
</g>
<g id="normal">
<path fill="#cc0000" opacity="1.00" d=" M 83.32 12.38 C 85.81 11.30 88.68 12.91 89.77 15.24 C 114.96 58.77 140.14 102.32 165.33 145.85 C 166.28 147.55 167.44 149.18 167.95 151.08 C 168.45 154.36 165.28 157.26 162.05 156.82 C 110.66 156.82 59.26 156.82 7.87 156.82 C 5.32 157.05 2.71 155.42 2.20 152.84 C 1.56 150.97 2.82 149.25 3.65 147.68 C 28.71 104.40 53.75 61.10 78.79 17.80 C 80.05 15.84 80.90 13.20 83.32 12.38 M 84.62 38.22 C 64.72 72.66 44.76 107.07 24.89 141.52 C 64.97 141.54 105.06 141.53 145.14 141.53 C 125.29 107.04 105.30 72.62 85.39 38.16 C 85.20 38.17 84.81 38.20 84.62 38.22 Z" />
<path fill="#ffc500" opacity="1.00" d=" M 84.62 38.22 C 84.81 38.20 85.20 38.17 85.39 38.16 C 105.30 72.62 125.29 107.04 145.14 141.53 C 105.06 141.53 64.97 141.54 24.89 141.52 C 44.76 107.07 64.72 72.66 84.62 38.22 M 68.72 96.94 C 68.73 99.05 68.71 101.16 68.69 103.28 C 66.93 103.27 65.17 103.27 63.42 103.27 C 63.40 101.15 63.37 99.04 63.39 96.93 C 62.26 95.59 61.12 94.27 59.97 92.96 C 58.84 94.22 57.63 95.41 56.57 96.74 C 56.09 98.86 56.47 101.09 56.36 103.25 C 55.61 103.26 54.11 103.28 53.35 103.29 C 53.35 105.12 53.35 106.95 53.35 108.78 C 54.10 108.79 55.60 108.81 56.35 108.82 C 56.36 113.58 56.35 118.35 56.33 123.11 C 55.58 123.12 54.09 123.15 53.35 123.16 C 53.35 124.97 53.35 126.78 53.36 128.58 C 54.10 128.59 55.58 128.61 56.32 128.62 C 56.32 131.03 56.33 133.44 56.32 135.86 C 58.72 135.87 61.11 135.87 63.50 135.87 C 63.49 133.44 63.49 131.02 63.50 128.60 C 65.22 128.60 66.94 128.60 68.67 128.59 C 68.68 131.02 68.69 133.44 68.68 135.86 C 71.07 135.87 73.46 135.87 75.86 135.86 C 75.84 133.44 75.85 131.02 75.84 128.61 C 77.66 128.60 79.48 128.60 81.30 128.60 C 81.30 131.02 81.31 133.44 81.30 135.86 C 83.69 135.87 86.09 135.87 88.48 135.87 C 88.47 133.44 88.47 131.02 88.47 128.60 C 90.29 128.59 92.11 128.60 93.93 128.60 C 93.92 131.02 93.93 133.44 93.93 135.86 C 96.32 135.87 98.71 135.87 101.10 135.86 C 101.09 133.44 101.09 131.02 101.08 128.60 C 102.72 128.60 104.36 128.60 106.00 128.60 C 106.00 131.02 106.01 133.44 106.01 135.86 C 108.40 135.87 110.79 135.87 113.18 135.86 C 113.18 133.44 113.18 131.03 113.17 128.62 C 114.24 128.60 115.31 128.59 116.38 128.58 C 116.37 126.76 116.37 124.95 116.36 123.14 C 115.56 123.14 113.96 123.13 113.15 123.12 C 113.12 118.35 113.11 113.58 113.11 108.81 C 113.92 108.81 115.55 108.80 116.36 108.79 C 116.37 106.96 116.37 105.13 116.38 103.30 C 115.28 103.28 114.19 103.26 113.09 103.25 C 113.08 101.15 113.06 99.05 113.07 96.95 C 111.95 95.60 110.82 94.27 109.66 92.95 C 108.44 94.27 107.24 95.60 106.05 96.93 C 106.06 99.04 106.04 101.15 106.04 103.26 C 104.36 103.27 102.68 103.27 101.01 103.27 C 101.00 101.15 100.98 99.04 100.98 96.93 C 99.86 95.59 98.73 94.27 97.59 92.95 C 96.37 94.27 95.16 95.59 93.96 96.93 C 93.97 99.04 93.96 101.15 93.95 103.26 C 92.10 103.27 90.25 103.27 88.40 103.27 C 88.37 101.16 88.35 99.04 88.37 96.93 C 87.25 95.59 86.11 94.27 84.96 92.96 C 83.82 94.20 82.61 95.39 81.57 96.72 C 81.03 98.83 81.47 101.09 81.34 103.26 C 79.48 103.27 77.62 103.27 75.76 103.26 C 75.74 101.22 75.82 99.19 75.69 97.15 C 74.89 95.60 73.52 94.41 72.50 93.00 C 71.11 94.18 69.92 95.57 68.72 96.94 Z" />
<path fill="#ffc500" opacity="1.00" d=" M 63.47 123.14 C 63.46 118.36 63.41 113.58 63.44 108.80 C 65.19 108.80 66.95 108.80 68.70 108.81 C 68.70 113.58 68.70 118.35 68.68 123.11 C 66.94 123.13 65.20 123.13 63.47 123.14 Z" />
<path fill="#ffc500" opacity="1.00" d=" M 75.78 108.81 C 77.63 108.80 79.47 108.80 81.32 108.81 C 81.33 113.58 81.33 118.35 81.31 123.13 C 79.48 123.13 77.65 123.13 75.83 123.13 C 75.80 118.35 75.78 113.58 75.78 108.81 Z" />
<path fill="#ffc500" opacity="1.00" d=" M 88.44 123.13 C 88.46 118.35 88.34 113.56 88.46 108.78 C 90.29 108.79 92.12 108.80 93.95 108.81 C 93.95 113.58 93.95 118.35 93.93 123.13 C 92.10 123.13 90.27 123.13 88.44 123.13 Z" />
<path fill="#ffc500" opacity="1.00" d=" M 101.02 108.80 C 102.69 108.80 104.36 108.80 106.03 108.81 C 106.04 113.58 106.03 118.35 106.01 123.13 C 104.36 123.13 102.72 123.13 101.07 123.13 C 101.04 118.35 101.03 113.58 101.02 108.80 Z" />
<path fill="#000000" opacity="1.00" d=" M 68.72 96.94 C 69.92 95.57 71.11 94.18 72.50 93.00 C 73.52 94.41 74.89 95.60 75.69 97.15 C 75.82 99.19 75.74 101.22 75.76 103.26 C 77.62 103.27 79.48 103.27 81.34 103.26 C 81.47 101.09 81.03 98.83 81.57 96.72 C 82.61 95.39 83.82 94.20 84.96 92.96 C 86.11 94.27 87.25 95.59 88.37 96.93 C 88.35 99.04 88.37 101.16 88.40 103.27 C 90.25 103.27 92.10 103.27 93.95 103.26 C 93.96 101.15 93.97 99.04 93.96 96.93 C 95.16 95.59 96.37 94.27 97.59 92.95 C 98.73 94.27 99.86 95.59 100.98 96.93 C 100.98 99.04 101.00 101.15 101.01 103.27 C 102.68 103.27 104.36 103.27 106.04 103.26 C 106.04 101.15 106.06 99.04 106.05 96.93 C 107.24 95.60 108.44 94.27 109.66 92.95 C 110.82 94.27 111.95 95.60 113.07 96.95 C 113.06 99.05 113.08 101.15 113.09 103.25 C 114.19 103.26 115.28 103.28 116.38 103.30 C 116.37 105.13 116.37 106.96 116.36 108.79 C 115.55 108.80 113.92 108.81 113.11 108.81 C 113.11 113.58 113.12 118.35 113.15 123.12 C 113.96 123.13 115.56 123.14 116.36 123.14 C 116.37 124.95 116.37 126.76 116.38 128.58 C 115.31 128.59 114.24 128.60 113.17 128.62 C 113.18 131.03 113.18 133.44 113.18 135.86 C 110.79 135.87 108.40 135.87 106.01 135.86 C 106.01 133.44 106.00 131.02 106.00 128.60 C 104.36 128.60 102.72 128.60 101.08 128.60 C 101.09 131.02 101.09 133.44 101.10 135.86 C 98.71 135.87 96.32 135.87 93.93 135.86 C 93.93 133.44 93.92 131.02 93.93 128.60 C 92.11 128.60 90.29 128.59 88.47 128.60 C 88.47 131.02 88.47 133.44 88.48 135.87 C 86.09 135.87 83.69 135.87 81.30 135.86 C 81.31 133.44 81.30 131.02 81.30 128.60 C 79.48 128.60 77.66 128.60 75.84 128.61 C 75.85 131.02 75.84 133.44 75.86 135.86 C 73.46 135.87 71.07 135.87 68.68 135.86 C 68.69 133.44 68.68 131.02 68.67 128.59 C 66.94 128.60 65.22 128.60 63.50 128.60 C 63.49 131.02 63.49 133.44 63.50 135.87 C 61.11 135.87 58.72 135.87 56.32 135.86 C 56.33 133.44 56.32 131.03 56.32 128.62 C 55.58 128.61 54.10 128.59 53.36 128.58 C 53.35 126.78 53.35 124.97 53.35 123.16 C 54.09 123.15 55.58 123.12 56.33 123.11 C 56.35 118.35 56.36 113.58 56.35 108.82 C 55.60 108.81 54.10 108.79 53.35 108.78 C 53.35 106.95 53.35 105.12 53.35 103.29 C 54.11 103.28 55.61 103.26 56.36 103.25 C 56.47 101.09 56.09 98.86 56.57 96.74 C 57.63 95.41 58.84 94.22 59.97 92.96 C 61.12 94.27 62.26 95.59 63.39 96.93 C 63.37 99.04 63.40 101.15 63.42 103.27 C 65.17 103.27 66.93 103.27 68.69 103.28 C 68.71 101.16 68.73 99.05 68.72 96.94 M 63.47 123.14 C 65.20 123.13 66.94 123.13 68.68 123.11 C 68.70 118.35 68.70 113.58 68.70 108.81 C 66.95 108.80 65.19 108.80 63.44 108.80 C 63.41 113.58 63.46 118.36 63.47 123.14 M 75.78 108.81 C 75.78 113.58 75.80 118.35 75.83 123.13 C 77.65 123.13 79.48 123.13 81.31 123.13 C 81.33 118.35 81.33 113.58 81.32 108.81 C 79.47 108.80 77.63 108.80 75.78 108.81 M 88.44 123.13 C 90.27 123.13 92.10 123.13 93.93 123.13 C 93.95 118.35 93.95 113.58 93.95 108.81 C 92.12 108.80 90.29 108.79 88.46 108.78 C 88.34 113.56 88.46 118.35 88.44 123.13 M 101.02 108.80 C 101.03 113.58 101.04 118.35 101.07 123.13 C 102.72 123.13 104.36 123.13 106.01 123.13 C 106.03 118.35 106.04 113.58 106.03 108.81 C 104.36 108.80 102.69 108.80 101.02 108.80 Z" />
</g>
</svg>
