<?xml version="1.0" encoding="UTF-8" ?>
<!DOCTYPE svg PUBLIC "-//W3C//DTD SVG 1.1//EN" "http://www.w3.org/Graphics/SVG/1.1/DTD/svg11.dtd">
<svg width="170pt" height="170pt" viewBox="0 0 170 170" version="1.1" xmlns="http://www.w3.org/2000/svg">
<g id="disabled">
<path fill="#909090" opacity="1.00" d=" M 0.00 0.00 L 0.02 0.00 C 0.01 0.03 0.00 0.08 0.00 0.10 L 0.00 0.00 Z" />
<path fill="#909090" opacity="1.00" d=" M 25.26 141.33 C 45.00 106.73 65.10 72.33 85.00 37.82 C 104.93 72.32 124.94 106.78 144.79 141.33 C 117.19 141.22 89.60 141.32 62.00 141.28 C 60.14 141.26 58.25 141.15 56.44 141.63 C 55.56 128.01 55.71 114.32 55.25 100.66 C 58.60 104.83 61.86 109.08 65.22 113.24 C 84.44 116.72 103.63 120.36 122.86 123.75 C 125.66 121.02 127.47 117.07 126.68 113.12 C 126.26 111.23 125.73 108.77 123.54 108.27 C 106.14 101.35 88.88 94.05 71.44 87.27 C 65.48 90.69 59.54 94.14 53.55 97.50 C 52.33 98.23 50.66 99.03 50.81 100.73 C 50.23 114.37 50.43 128.06 49.53 141.68 C 41.53 140.78 33.33 141.49 25.26 141.33 Z" />
<path fill="#606060" opacity="1.00" d=" M 83.43 12.33 C 86.28 11.27 89.05 13.39 90.17 15.93 C 115.77 60.28 141.47 104.57 167.06 148.93 C 169.37 152.02 166.81 156.82 163.01 156.78 C 111.01 156.84 59.00 156.84 7.00 156.78 C 3.26 156.84 0.62 152.11 2.88 149.04 C 28.47 104.65 54.19 60.33 79.81 15.96 C 80.67 14.47 81.68 12.87 83.43 12.33 M 25.26 141.33 C 33.33 141.49 41.53 140.78 49.53 141.68 C 51.83 141.65 54.13 141.63 56.44 141.63 C 58.25 141.15 60.14 141.26 62.00 141.28 C 89.60 141.32 117.19 141.22 144.79 141.33 C 124.94 106.78 104.93 72.32 85.00 37.82 C 65.10 72.33 45.00 106.73 25.26 141.33 Z" />
<path fill="#000000" opacity="1.00" d=" M 71.44 87.27 C 88.88 94.05 106.14 101.35 123.54 108.27 C 125.73 108.77 126.26 111.23 126.68 113.12 C 127.47 117.07 125.66 121.02 122.86 123.75 C 103.63 120.36 84.44 116.72 65.22 113.24 C 61.86 109.08 58.60 104.83 55.25 100.66 C 55.71 114.32 55.56 128.01 56.44 141.63 C 54.13 141.63 51.83 141.65 49.53 141.68 C 50.43 128.06 50.23 114.37 50.81 100.73 C 50.66 99.03 52.33 98.23 53.55 97.50 C 59.54 94.14 65.48 90.69 71.44 87.27 M 69.21 111.97 C 71.30 112.98 73.81 112.79 76.07 113.30 C 71.98 106.50 74.59 97.63 80.28 92.60 C 78.26 91.86 76.26 91.07 74.29 90.22 C 68.01 95.26 65.74 104.68 69.21 111.97 M 57.39 98.64 C 59.97 102.02 62.61 105.35 65.27 108.66 C 64.01 102.75 65.70 96.55 69.35 91.80 C 65.36 94.08 61.34 96.30 57.39 98.64 M 88.24 95.99 C 82.59 100.23 80.38 108.61 83.97 114.85 C 86.38 115.25 88.78 115.77 91.21 116.11 C 87.82 110.34 89.35 102.44 94.83 98.54 C 92.63 97.71 90.48 96.74 88.24 95.99 M 102.26 102.09 C 97.63 105.70 96.56 112.69 99.44 117.71 C 102.03 118.10 104.59 118.69 107.18 119.03 C 104.46 114.31 105.69 108.15 109.68 104.55 C 107.17 103.93 104.83 102.01 102.26 102.09 M 115.27 120.70 C 117.33 120.92 119.36 121.32 121.37 121.82 C 120.06 117.90 120.59 113.28 123.66 110.31 C 121.77 109.47 119.89 108.56 117.91 107.96 C 113.11 109.94 111.83 116.89 115.27 120.70 Z" />
<path fill="#909090" opacity="1.00" d=" M 69.21 111.97 C 65.74 104.68 68.01 95.26 74.29 90.22 C 76.26 91.07 78.26 91.86 80.28 92.60 C 74.59 97.63 71.98 106.50 76.07 113.30 C 73.81 112.79 71.30 112.98 69.21 111.97 Z" />
<path fill="#909090" opacity="1.00" d=" M 57.39 98.64 C 61.34 96.30 65.36 94.08 69.35 91.80 C 65.70 96.55 64.01 102.75 65.27 108.66 C 62.61 105.35 59.97 102.02 57.39 98.64 Z" />
<path fill="#909090" opacity="1.00" d=" M 88.24 95.99 C 90.48 96.74 92.63 97.71 94.83 98.54 C 89.35 102.44 87.82 110.34 91.21 116.11 C 88.78 115.77 86.38 115.25 83.97 114.85 C 80.38 108.61 82.59 100.23 88.24 95.99 Z" />
<path fill="#909090" opacity="1.00" d=" M 102.26 102.09 C 104.83 102.01 107.17 103.93 109.68 104.55 C 105.69 108.15 104.46 114.31 107.18 119.03 C 104.59 118.69 102.03 118.10 99.44 117.71 C 96.56 112.69 97.63 105.70 102.26 102.09 Z" />
<path fill="#909090" opacity="1.00" d=" M 115.27 120.70 C 111.83 116.89 113.11 109.94 117.91 107.96 C 119.89 108.56 121.77 109.47 123.66 110.31 C 120.59 113.28 120.06 117.90 121.37 121.82 C 119.36 121.32 117.33 120.92 115.27 120.70 Z" />
</g>
<g id="normal">
<path fill="#ffc500" opacity="1.00" d=" M 0.00 0.00 L 0.02 0.00 C 0.01 0.03 0.00 0.08 0.00 0.10 L 0.00 0.00 Z" />
<path fill="#ffc500" opacity="1.00" d=" M 25.26 141.33 C 45.00 106.73 65.10 72.33 85.00 37.82 C 104.93 72.32 124.94 106.78 144.79 141.33 C 117.19 141.22 89.60 141.32 62.00 141.28 C 60.14 141.26 58.25 141.15 56.44 141.63 C 55.56 128.01 55.71 114.32 55.25 100.66 C 58.60 104.83 61.86 109.08 65.22 113.24 C 84.44 116.72 103.63 120.36 122.86 123.75 C 125.66 121.02 127.47 117.07 126.68 113.12 C 126.26 111.23 125.73 108.77 123.54 108.27 C 106.14 101.35 88.88 94.05 71.44 87.27 C 65.48 90.69 59.54 94.14 53.55 97.50 C 52.33 98.23 50.66 99.03 50.81 100.73 C 50.23 114.37 50.43 128.06 49.53 141.68 C 41.53 140.78 33.33 141.49 25.26 141.33 Z" />
<path fill="#cc0000" opacity="1.00" d=" M 83.43 12.33 C 86.28 11.27 89.05 13.39 90.17 15.93 C 115.77 60.28 141.47 104.57 167.06 148.93 C 169.37 152.02 166.81 156.82 163.01 156.78 C 111.01 156.84 59.00 156.84 7.00 156.78 C 3.26 156.84 0.62 152.11 2.88 149.04 C 28.47 104.65 54.19 60.33 79.81 15.96 C 80.67 14.47 81.68 12.87 83.43 12.33 M 25.26 141.33 C 33.33 141.49 41.53 140.78 49.53 141.68 C 51.83 141.65 54.13 141.63 56.44 141.63 C 58.25 141.15 60.14 141.26 62.00 141.28 C 89.60 141.32 117.19 141.22 144.79 141.33 C 124.94 106.78 104.93 72.32 85.00 37.82 C 65.10 72.33 45.00 106.73 25.26 141.33 Z" />
<path fill="#000000" opacity="1.00" d=" M 71.44 87.27 C 88.88 94.05 106.14 101.35 123.54 108.27 C 125.73 108.77 126.26 111.23 126.68 113.12 C 127.47 117.07 125.66 121.02 122.86 123.75 C 103.63 120.36 84.44 116.72 65.22 113.24 C 61.86 109.08 58.60 104.83 55.25 100.66 C 55.71 114.32 55.56 128.01 56.44 141.63 C 54.13 141.63 51.83 141.65 49.53 141.68 C 50.43 128.06 50.23 114.37 50.81 100.73 C 50.66 99.03 52.33 98.23 53.55 97.50 C 59.54 94.14 65.48 90.69 71.44 87.27 M 69.21 111.97 C 71.30 112.98 73.81 112.79 76.07 113.30 C 71.98 106.50 74.59 97.63 80.28 92.60 C 78.26 91.86 76.26 91.07 74.29 90.22 C 68.01 95.26 65.74 104.68 69.21 111.97 M 57.39 98.64 C 59.97 102.02 62.61 105.35 65.27 108.66 C 64.01 102.75 65.70 96.55 69.35 91.80 C 65.36 94.08 61.34 96.30 57.39 98.64 M 88.24 95.99 C 82.59 100.23 80.38 108.61 83.97 114.85 C 86.38 115.25 88.78 115.77 91.21 116.11 C 87.82 110.34 89.35 102.44 94.83 98.54 C 92.63 97.71 90.48 96.74 88.24 95.99 M 102.26 102.09 C 97.63 105.70 96.56 112.69 99.44 117.71 C 102.03 118.10 104.59 118.69 107.18 119.03 C 104.46 114.31 105.69 108.15 109.68 104.55 C 107.17 103.93 104.83 102.01 102.26 102.09 M 115.27 120.70 C 117.33 120.92 119.36 121.32 121.37 121.82 C 120.06 117.90 120.59 113.28 123.66 110.31 C 121.77 109.47 119.89 108.56 117.91 107.96 C 113.11 109.94 111.83 116.89 115.27 120.70 Z" />
<path fill="#ffffff" opacity="1.00" d=" M 69.21 111.97 C 65.74 104.68 68.01 95.26 74.29 90.22 C 76.26 91.07 78.26 91.86 80.28 92.60 C 74.59 97.63 71.98 106.50 76.07 113.30 C 73.81 112.79 71.30 112.98 69.21 111.97 Z" />
<path fill="#ffffff" opacity="1.00" d=" M 57.39 98.64 C 61.34 96.30 65.36 94.08 69.35 91.80 C 65.70 96.55 64.01 102.75 65.27 108.66 C 62.61 105.35 59.97 102.02 57.39 98.64 Z" />
<path fill="#ffffff" opacity="1.00" d=" M 88.24 95.99 C 90.48 96.74 92.63 97.71 94.83 98.54 C 89.35 102.44 87.82 110.34 91.21 116.11 C 88.78 115.77 86.38 115.25 83.97 114.85 C 80.38 108.61 82.59 100.23 88.24 95.99 Z" />
<path fill="#ffffff" opacity="1.00" d=" M 102.26 102.09 C 104.83 102.01 107.17 103.93 109.68 104.55 C 105.69 108.15 104.46 114.31 107.18 119.03 C 104.59 118.69 102.03 118.10 99.44 117.71 C 96.56 112.69 97.63 105.70 102.26 102.09 Z" />
<path fill="#ffffff" opacity="1.00" d=" M 115.27 120.70 C 111.83 116.89 113.11 109.94 117.91 107.96 C 119.89 108.56 121.77 109.47 123.66 110.31 C 120.59 113.28 120.06 117.90 121.37 121.82 C 119.36 121.32 117.33 120.92 115.27 120.70 Z" />
</g>
</svg>
