<?xml version="1.0" encoding="UTF-8" ?>
<!DOCTYPE svg PUBLIC "-//W3C//DTD SVG 1.1//EN" "http://www.w3.org/Graphics/SVG/1.1/DTD/svg11.dtd">
<svg width="248pt" height="248pt" viewBox="0 0 248 248" version="1.1" xmlns="http://www.w3.org/2000/svg">
<g id="disabled">
<path fill="#707070" opacity="1.00" d=" M 115.19 2.13 C 139.30 0.58 163.96 6.01 184.78 18.39 C 211.99 34.06 232.66 60.72 240.93 91.03 C 246.82 112.40 246.85 135.37 240.80 156.71 C 233.45 183.09 216.83 206.72 194.55 222.62 C 174.99 236.70 151.13 244.85 127.01 245.30 C 96.96 246.40 66.70 235.62 44.05 215.84 C 23.02 197.77 8.34 172.30 3.72 144.93 C -0.58 121.26 2.50 96.34 12.18 74.34 C 20.96 54.96 34.59 37.64 51.95 25.26 C 70.23 11.65 92.50 3.77 115.19 2.13 M 112.84 6.77 C 110.24 7.38 107.58 7.57 104.95 7.88 C 98.92 8.88 92.97 10.31 87.14 12.13 C 53.25 23.11 24.96 50.39 13.26 84.07 C 12.74 85.34 12.24 86.62 11.71 87.89 C 11.58 88.46 11.33 89.59 11.21 90.16 C 10.35 93.09 9.68 96.08 8.81 99.01 C 8.56 100.97 8.39 102.96 7.86 104.88 C 7.59 107.21 7.40 109.56 6.79 111.83 C 5.97 123.96 6.45 136.16 8.81 148.10 C 9.20 149.42 9.52 150.77 9.85 152.12 C 10.29 153.70 10.65 155.30 11.07 156.89 C 11.55 158.66 12.13 160.40 12.72 162.13 C 23.48 193.20 47.87 219.07 78.14 231.85 C 79.38 232.31 80.63 232.76 81.86 233.24 C 83.30 233.74 84.74 234.26 86.19 234.74 C 87.45 235.21 88.73 235.65 90.00 236.11 C 92.69 236.62 95.34 237.29 97.96 238.11 C 101.92 238.95 105.97 239.27 109.93 240.13 C 118.97 240.90 128.06 240.89 137.11 240.14 C 139.38 239.53 141.73 239.38 144.06 239.09 C 145.71 238.69 147.39 238.41 149.07 238.10 C 150.38 237.72 151.71 237.40 153.05 237.07 C 155.40 236.48 157.76 235.89 160.08 235.18 C 161.31 234.68 162.54 234.20 163.78 233.72 C 195.49 222.51 221.45 196.56 233.28 165.14 C 233.77 163.70 234.29 162.28 234.79 160.85 C 235.16 159.85 235.51 158.85 235.86 157.85 C 236.19 156.50 236.47 155.15 236.75 153.80 C 237.23 152.23 237.62 150.63 238.12 149.06 C 241.06 134.19 241.59 118.82 239.13 103.85 C 237.88 97.44 236.47 91.04 234.29 84.88 C 233.81 83.62 233.36 82.37 232.90 81.11 C 232.28 79.42 231.60 77.76 230.89 76.11 C 216.39 43.68 186.73 18.16 152.05 9.92 C 150.70 9.59 149.35 9.28 148.03 8.85 C 146.03 8.57 144.01 8.41 142.06 7.88 C 132.41 6.24 122.59 6.31 112.84 6.77 Z" />
<path fill="#707070" opacity="1.00" d=" M 109.12 15.09 C 114.01 14.04 119.06 14.37 124.04 14.26 C 128.66 14.38 133.36 14.06 137.91 15.09 C 152.95 16.75 167.52 22.18 180.39 30.07 L 180.46 30.93 C 161.40 50.37 142.27 69.75 123.15 89.13 C 105.98 107.28 88.06 124.68 70.75 142.70 C 58.31 155.66 45.48 168.25 33.01 181.18 C 32.54 181.56 31.61 182.33 31.15 182.72 C 24.11 171.02 18.67 158.34 15.96 144.92 C 14.95 138.62 14.12 132.30 14.18 125.90 C 13.80 124.59 13.72 123.27 13.94 121.94 C 14.67 117.68 13.97 113.28 15.06 109.07 C 18.42 81.20 33.70 55.20 55.57 37.77 C 71.04 25.74 89.58 17.35 109.12 15.09 Z" />
<path fill="#707070" opacity="1.00" d=" M 184.77 34.72 C 185.06 34.37 185.64 33.67 185.92 33.32 C 187.28 34.54 188.70 35.70 190.15 36.82 C 190.58 37.09 191.42 37.64 191.84 37.92 C 186.09 42.44 181.34 48.05 176.06 53.09 C 133.19 96.88 90.81 141.15 48.07 185.08 C 45.28 187.95 42.36 190.71 39.87 193.86 C 38.13 191.90 34.75 189.64 35.61 186.75 C 85.38 136.12 135.03 85.37 184.77 34.72 Z" />
<path fill="#707070" opacity="1.00" d=" M 195.45 42.40 C 197.54 41.66 198.88 44.54 200.47 45.55 C 170.00 76.42 140.02 107.76 109.53 138.59 C 93.87 154.89 78.03 171.01 62.22 187.16 C 57.42 192.07 52.81 197.21 47.74 201.84 C 45.81 201.86 44.83 199.38 43.38 198.30 C 86.68 153.61 129.84 108.79 173.27 64.23 C 180.46 56.76 187.56 49.15 195.45 42.40 Z" />
<path fill="#707070" opacity="1.00" d=" M 201.57 52.59 C 202.50 51.57 203.56 50.68 204.71 49.90 C 205.81 51.60 209.17 53.76 206.91 55.84 C 157.68 106.96 107.97 157.64 58.52 208.55 C 58.12 209.04 57.33 210.03 56.93 210.53 C 55.38 209.28 53.80 208.07 52.16 206.95 C 52.29 206.24 52.57 205.60 52.98 205.04 C 102.42 154.13 152.11 103.47 201.57 52.59 Z" />
<path fill="#707070" opacity="1.00" d=" M 211.10 59.45 C 211.68 59.54 212.27 59.63 212.85 59.72 C 214.03 61.85 215.33 63.90 216.60 65.97 C 199.74 83.05 182.82 100.08 166.07 117.27 C 155.25 129.04 143.64 140.05 132.73 151.73 C 126.29 158.63 119.56 165.25 112.98 172.02 C 99.44 185.78 86.22 199.85 72.57 213.51 C 71.27 214.81 70.03 216.17 68.91 217.65 C 66.54 217.58 64.71 215.90 62.66 214.93 C 62.50 214.47 62.20 213.55 62.05 213.09 C 87.05 187.75 111.79 162.15 136.57 136.60 C 157.22 115.58 177.71 94.42 198.22 73.26 C 202.47 68.62 207.05 64.27 211.10 59.45 Z" />
<path fill="#707070" opacity="1.00" d=" M 219.68 71.02 C 225.79 82.55 230.54 95.07 231.85 108.12 C 232.76 111.07 232.62 114.18 232.76 117.23 C 233.42 120.72 233.71 124.39 232.84 127.87 C 232.56 150.20 224.25 172.12 210.79 189.84 C 204.68 197.97 197.39 205.25 189.19 211.27 C 172.14 224.06 151.24 232.17 129.84 232.81 C 124.02 234.18 118.08 232.75 112.21 232.57 C 108.49 232.22 104.82 231.53 101.12 231.01 C 92.11 228.90 83.23 226.02 74.98 221.79 C 72.91 221.18 74.95 219.43 75.71 218.64 C 114.22 179.16 152.58 139.54 191.04 100.01 C 200.52 90.28 210.15 80.70 219.68 71.02 Z" />
<path fill="#000000" opacity="1.00" d=" M 112.84 6.77 C 122.59 6.31 132.41 6.24 142.06 7.88 C 144.01 8.41 146.03 8.57 148.03 8.85 C 149.35 9.28 150.70 9.59 152.05 9.92 C 186.73 18.16 216.39 43.68 230.89 76.11 C 231.60 77.76 232.28 79.42 232.90 81.11 C 233.36 82.37 233.81 83.62 234.29 84.88 C 236.47 91.04 237.88 97.44 239.13 103.85 C 241.59 118.82 241.06 134.19 238.12 149.06 C 237.62 150.63 237.23 152.23 236.75 153.80 C 236.47 155.15 236.19 156.50 235.86 157.85 C 235.51 158.85 235.16 159.85 234.79 160.85 C 234.29 162.28 233.77 163.70 233.28 165.14 C 221.45 196.56 195.49 222.51 163.78 233.72 C 162.54 234.20 161.31 234.68 160.08 235.18 C 157.76 235.89 155.40 236.48 153.05 237.07 C 151.71 237.40 150.38 237.72 149.07 238.10 C 147.39 238.41 145.71 238.69 144.06 239.09 C 141.73 239.38 139.38 239.53 137.11 240.14 C 128.06 240.89 118.97 240.90 109.93 240.13 C 105.97 239.27 101.92 238.95 97.96 238.11 C 95.34 237.29 92.69 236.62 90.00 236.11 C 88.73 235.65 87.45 235.21 86.19 234.74 C 84.74 234.26 83.30 233.74 81.86 233.24 C 80.63 232.76 79.38 232.31 78.14 231.85 C 47.87 219.07 23.48 193.20 12.72 162.13 C 12.13 160.40 11.55 158.66 11.07 156.89 C 10.65 155.30 10.29 153.70 9.85 152.12 C 9.52 150.77 9.20 149.42 8.81 148.10 C 6.45 136.16 5.97 123.96 6.79 111.83 C 7.40 109.56 7.59 107.21 7.86 104.88 C 8.39 102.96 8.56 100.97 8.81 99.01 C 9.68 96.08 10.35 93.09 11.21 90.16 C 11.33 89.59 11.58 88.46 11.71 87.89 C 12.24 86.62 12.74 85.34 13.26 84.07 C 24.96 50.39 53.25 23.11 87.14 12.13 C 92.97 10.31 98.92 8.88 104.95 7.88 C 107.58 7.57 110.24 7.38 112.84 6.77 M 109.12 15.09 C 89.58 17.35 71.04 25.74 55.57 37.77 C 33.70 55.20 18.42 81.20 15.06 109.07 C 13.97 113.28 14.67 117.68 13.94 121.94 C 13.72 123.27 13.80 124.59 14.18 125.90 C 14.12 132.30 14.95 138.62 15.96 144.92 C 18.67 158.34 24.11 171.02 31.15 182.72 C 31.61 182.33 32.54 181.56 33.01 181.18 C 45.48 168.25 58.31 155.66 70.75 142.70 C 88.06 124.68 105.98 107.28 123.15 89.13 C 142.27 69.75 161.40 50.37 180.46 30.93 L 180.39 30.07 C 167.52 22.18 152.95 16.75 137.91 15.09 C 133.36 14.06 128.66 14.38 124.04 14.26 C 119.06 14.37 114.01 14.04 109.12 15.09 M 184.77 34.72 C 135.03 85.37 85.38 136.12 35.61 186.75 C 34.75 189.64 38.13 191.90 39.87 193.86 C 42.36 190.71 45.28 187.95 48.07 185.08 C 90.81 141.15 133.19 96.88 176.06 53.09 C 181.34 48.05 186.09 42.44 191.84 37.92 C 191.42 37.64 190.58 37.09 190.15 36.82 C 188.70 35.70 187.28 34.54 185.92 33.32 C 185.64 33.67 185.06 34.37 184.77 34.72 M 195.45 42.40 C 187.56 49.15 180.46 56.76 173.27 64.23 C 129.84 108.79 86.68 153.61 43.38 198.30 C 44.83 199.38 45.81 201.86 47.74 201.84 C 52.81 197.21 57.42 192.07 62.22 187.16 C 78.03 171.01 93.87 154.89 109.53 138.59 C 140.02 107.76 170.00 76.42 200.47 45.55 C 198.88 44.54 197.54 41.66 195.45 42.40 M 201.57 52.59 C 152.11 103.47 102.42 154.13 52.98 205.04 C 52.57 205.60 52.29 206.24 52.16 206.95 C 53.80 208.07 55.38 209.28 56.93 210.53 C 57.33 210.03 58.12 209.04 58.52 208.55 C 107.97 157.64 157.68 106.96 206.91 55.84 C 209.17 53.76 205.81 51.60 204.71 49.90 C 203.56 50.68 202.50 51.57 201.57 52.59 M 211.10 59.45 C 207.05 64.27 202.47 68.62 198.22 73.26 C 177.71 94.42 157.22 115.58 136.57 136.60 C 111.79 162.15 87.05 187.75 62.05 213.09 C 62.20 213.55 62.50 214.47 62.66 214.93 C 64.71 215.90 66.54 217.58 68.91 217.65 C 70.03 216.17 71.27 214.81 72.57 213.51 C 86.22 199.85 99.44 185.78 112.98 172.02 C 119.56 165.25 126.29 158.63 132.73 151.73 C 143.64 140.05 155.25 129.04 166.07 117.27 C 182.82 100.08 199.74 83.05 216.60 65.97 C 215.33 63.90 214.03 61.85 212.85 59.72 C 212.27 59.63 211.68 59.54 211.10 59.45 M 219.68 71.02 C 210.15 80.70 200.52 90.28 191.04 100.01 C 152.58 139.54 114.22 179.16 75.71 218.64 C 74.95 219.43 72.91 221.18 74.98 221.79 C 83.23 226.02 92.11 228.90 101.12 231.01 C 104.82 231.53 108.49 232.22 112.21 232.57 C 118.08 232.75 124.02 234.18 129.84 232.81 C 151.24 232.17 172.14 224.06 189.19 211.27 C 197.39 205.25 204.68 197.97 210.79 189.84 C 224.25 172.12 232.56 150.20 232.84 127.87 C 233.71 124.39 233.42 120.72 232.76 117.23 C 232.62 114.18 232.76 111.07 231.85 108.12 C 230.54 95.07 225.79 82.55 219.68 71.02 Z" />
</g>
<g id="normal">
<path fill="#ffffff" opacity="1.00" d=" M 115.19 2.13 C 139.30 0.58 163.96 6.01 184.78 18.39 C 211.99 34.06 232.66 60.72 240.93 91.03 C 246.82 112.40 246.85 135.37 240.80 156.71 C 233.45 183.09 216.83 206.72 194.55 222.62 C 174.99 236.70 151.13 244.85 127.01 245.30 C 96.96 246.40 66.70 235.62 44.05 215.84 C 23.02 197.77 8.34 172.30 3.72 144.93 C -0.58 121.26 2.50 96.34 12.18 74.34 C 20.96 54.96 34.59 37.64 51.95 25.26 C 70.23 11.65 92.50 3.77 115.19 2.13 M 112.84 6.77 C 110.24 7.38 107.58 7.57 104.95 7.88 C 98.92 8.88 92.97 10.31 87.14 12.13 C 53.25 23.11 24.96 50.39 13.26 84.07 C 12.74 85.34 12.24 86.62 11.71 87.89 C 11.58 88.46 11.33 89.59 11.21 90.16 C 10.35 93.09 9.68 96.08 8.81 99.01 C 8.56 100.97 8.39 102.96 7.86 104.88 C 7.59 107.21 7.40 109.56 6.79 111.83 C 5.97 123.96 6.45 136.16 8.81 148.10 C 9.20 149.42 9.52 150.77 9.85 152.12 C 10.29 153.70 10.65 155.30 11.07 156.89 C 11.55 158.66 12.13 160.40 12.72 162.13 C 23.48 193.20 47.87 219.07 78.14 231.85 C 79.38 232.31 80.63 232.76 81.86 233.24 C 83.30 233.74 84.74 234.26 86.19 234.74 C 87.45 235.21 88.73 235.65 90.00 236.11 C 92.69 236.62 95.34 237.29 97.96 238.11 C 101.92 238.95 105.97 239.27 109.93 240.13 C 118.97 240.90 128.06 240.89 137.11 240.14 C 139.38 239.53 141.73 239.38 144.06 239.09 C 145.71 238.69 147.39 238.41 149.07 238.10 C 150.38 237.72 151.71 237.40 153.05 237.07 C 155.40 236.48 157.76 235.89 160.08 235.18 C 161.31 234.68 162.54 234.20 163.78 233.72 C 195.49 222.51 221.45 196.56 233.28 165.14 C 233.77 163.70 234.29 162.28 234.79 160.85 C 235.16 159.85 235.51 158.85 235.86 157.85 C 236.19 156.50 236.47 155.15 236.75 153.80 C 237.23 152.23 237.62 150.63 238.12 149.06 C 241.06 134.19 241.59 118.82 239.13 103.85 C 237.88 97.44 236.47 91.04 234.29 84.88 C 233.81 83.62 233.36 82.37 232.90 81.11 C 232.28 79.42 231.60 77.76 230.89 76.11 C 216.39 43.68 186.73 18.16 152.05 9.92 C 150.70 9.59 149.35 9.28 148.03 8.85 C 146.03 8.57 144.01 8.41 142.06 7.88 C 132.41 6.24 122.59 6.31 112.84 6.77 Z" />
<path fill="#ffffff" opacity="1.00" d=" M 109.12 15.09 C 114.01 14.04 119.06 14.37 124.04 14.26 C 128.66 14.38 133.36 14.06 137.91 15.09 C 152.95 16.75 167.52 22.18 180.39 30.07 L 180.46 30.93 C 161.40 50.37 142.27 69.75 123.15 89.13 C 105.98 107.28 88.06 124.68 70.75 142.70 C 58.31 155.66 45.48 168.25 33.01 181.18 C 32.54 181.56 31.61 182.33 31.15 182.72 C 24.11 171.02 18.67 158.34 15.96 144.92 C 14.95 138.62 14.12 132.30 14.18 125.90 C 13.80 124.59 13.72 123.27 13.94 121.94 C 14.67 117.68 13.97 113.28 15.06 109.07 C 18.42 81.20 33.70 55.20 55.57 37.77 C 71.04 25.74 89.58 17.35 109.12 15.09 Z" />
<path fill="#ffffff" opacity="1.00" d=" M 184.77 34.72 C 185.06 34.37 185.64 33.67 185.92 33.32 C 187.28 34.54 188.70 35.70 190.15 36.82 C 190.58 37.09 191.42 37.64 191.84 37.92 C 186.09 42.44 181.34 48.05 176.06 53.09 C 133.19 96.88 90.81 141.15 48.07 185.08 C 45.28 187.95 42.36 190.71 39.87 193.86 C 38.13 191.90 34.75 189.64 35.61 186.75 C 85.38 136.12 135.03 85.37 184.77 34.72 Z" />
<path fill="#ffffff" opacity="1.00" d=" M 195.45 42.40 C 197.54 41.66 198.88 44.54 200.47 45.55 C 170.00 76.42 140.02 107.76 109.53 138.59 C 93.87 154.89 78.03 171.01 62.22 187.16 C 57.42 192.07 52.81 197.21 47.74 201.84 C 45.81 201.86 44.83 199.38 43.38 198.30 C 86.68 153.61 129.84 108.79 173.27 64.23 C 180.46 56.76 187.56 49.15 195.45 42.40 Z" />
<path fill="#ffffff" opacity="1.00" d=" M 201.57 52.59 C 202.50 51.57 203.56 50.68 204.71 49.90 C 205.81 51.60 209.17 53.76 206.91 55.84 C 157.68 106.96 107.97 157.64 58.52 208.55 C 58.12 209.04 57.33 210.03 56.93 210.53 C 55.38 209.28 53.80 208.07 52.16 206.95 C 52.29 206.24 52.57 205.60 52.98 205.04 C 102.42 154.13 152.11 103.47 201.57 52.59 Z" />
<path fill="#ffffff" opacity="1.00" d=" M 211.10 59.45 C 211.68 59.54 212.27 59.63 212.85 59.72 C 214.03 61.85 215.33 63.90 216.60 65.97 C 199.74 83.05 182.82 100.08 166.07 117.27 C 155.25 129.04 143.64 140.05 132.73 151.73 C 126.29 158.63 119.56 165.25 112.98 172.02 C 99.44 185.78 86.22 199.85 72.57 213.51 C 71.27 214.81 70.03 216.17 68.91 217.65 C 66.54 217.58 64.71 215.90 62.66 214.93 C 62.50 214.47 62.20 213.55 62.05 213.09 C 87.05 187.75 111.79 162.15 136.57 136.60 C 157.22 115.58 177.71 94.42 198.22 73.26 C 202.47 68.62 207.05 64.27 211.10 59.45 Z" />
<path fill="#ffffff" opacity="1.00" d=" M 219.68 71.02 C 225.79 82.55 230.54 95.07 231.85 108.12 C 232.76 111.07 232.62 114.18 232.76 117.23 C 233.42 120.72 233.71 124.39 232.84 127.87 C 232.56 150.20 224.25 172.12 210.79 189.84 C 204.68 197.97 197.39 205.25 189.19 211.27 C 172.14 224.06 151.24 232.17 129.84 232.81 C 124.02 234.18 118.08 232.75 112.21 232.57 C 108.49 232.22 104.82 231.53 101.12 231.01 C 92.11 228.90 83.23 226.02 74.98 221.79 C 72.91 221.18 74.95 219.43 75.71 218.64 C 114.22 179.16 152.58 139.54 191.04 100.01 C 200.52 90.28 210.15 80.70 219.68 71.02 Z" />
<path fill="#000000" opacity="1.00" d=" M 112.84 6.77 C 122.59 6.31 132.41 6.24 142.06 7.88 C 144.01 8.41 146.03 8.57 148.03 8.85 C 149.35 9.28 150.70 9.59 152.05 9.92 C 186.73 18.16 216.39 43.68 230.89 76.11 C 231.60 77.76 232.28 79.42 232.90 81.11 C 233.36 82.37 233.81 83.62 234.29 84.88 C 236.47 91.04 237.88 97.44 239.13 103.85 C 241.59 118.82 241.06 134.19 238.12 149.06 C 237.62 150.63 237.23 152.23 236.75 153.80 C 236.47 155.15 236.19 156.50 235.86 157.85 C 235.51 158.85 235.16 159.85 234.79 160.85 C 234.29 162.28 233.77 163.70 233.28 165.14 C 221.45 196.56 195.49 222.51 163.78 233.72 C 162.54 234.20 161.31 234.68 160.08 235.18 C 157.76 235.89 155.40 236.48 153.05 237.07 C 151.71 237.40 150.38 237.72 149.07 238.10 C 147.39 238.41 145.71 238.69 144.06 239.09 C 141.73 239.38 139.38 239.53 137.11 240.14 C 128.06 240.89 118.97 240.90 109.93 240.13 C 105.97 239.27 101.92 238.95 97.96 238.11 C 95.34 237.29 92.69 236.62 90.00 236.11 C 88.73 235.65 87.45 235.21 86.19 234.74 C 84.74 234.26 83.30 233.74 81.86 233.24 C 80.63 232.76 79.38 232.31 78.14 231.85 C 47.87 219.07 23.48 193.20 12.72 162.13 C 12.13 160.40 11.55 158.66 11.07 156.89 C 10.65 155.30 10.29 153.70 9.85 152.12 C 9.52 150.77 9.20 149.42 8.81 148.10 C 6.45 136.16 5.97 123.96 6.79 111.83 C 7.40 109.56 7.59 107.21 7.86 104.88 C 8.39 102.96 8.56 100.97 8.81 99.01 C 9.68 96.08 10.35 93.09 11.21 90.16 C 11.33 89.59 11.58 88.46 11.71 87.89 C 12.24 86.62 12.74 85.34 13.26 84.07 C 24.96 50.39 53.25 23.11 87.14 12.13 C 92.97 10.31 98.92 8.88 104.95 7.88 C 107.58 7.57 110.24 7.38 112.84 6.77 M 109.12 15.09 C 89.58 17.35 71.04 25.74 55.57 37.77 C 33.70 55.20 18.42 81.20 15.06 109.07 C 13.97 113.28 14.67 117.68 13.94 121.94 C 13.72 123.27 13.80 124.59 14.18 125.90 C 14.12 132.30 14.95 138.62 15.96 144.92 C 18.67 158.34 24.11 171.02 31.15 182.72 C 31.61 182.33 32.54 181.56 33.01 181.18 C 45.48 168.25 58.31 155.66 70.75 142.70 C 88.06 124.68 105.98 107.28 123.15 89.13 C 142.27 69.75 161.40 50.37 180.46 30.93 L 180.39 30.07 C 167.52 22.18 152.95 16.75 137.91 15.09 C 133.36 14.06 128.66 14.38 124.04 14.26 C 119.06 14.37 114.01 14.04 109.12 15.09 M 184.77 34.72 C 135.03 85.37 85.38 136.12 35.61 186.75 C 34.75 189.64 38.13 191.90 39.87 193.86 C 42.36 190.71 45.28 187.95 48.07 185.08 C 90.81 141.15 133.19 96.88 176.06 53.09 C 181.34 48.05 186.09 42.44 191.84 37.92 C 191.42 37.64 190.58 37.09 190.15 36.82 C 188.70 35.70 187.28 34.54 185.92 33.32 C 185.64 33.67 185.06 34.37 184.77 34.72 M 195.45 42.40 C 187.56 49.15 180.46 56.76 173.27 64.23 C 129.84 108.79 86.68 153.61 43.38 198.30 C 44.83 199.38 45.81 201.86 47.74 201.84 C 52.81 197.21 57.42 192.07 62.22 187.16 C 78.03 171.01 93.87 154.89 109.53 138.59 C 140.02 107.76 170.00 76.42 200.47 45.55 C 198.88 44.54 197.54 41.66 195.45 42.40 M 201.57 52.59 C 152.11 103.47 102.42 154.13 52.98 205.04 C 52.57 205.60 52.29 206.24 52.16 206.95 C 53.80 208.07 55.38 209.28 56.93 210.53 C 57.33 210.03 58.12 209.04 58.52 208.55 C 107.97 157.64 157.68 106.96 206.91 55.84 C 209.17 53.76 205.81 51.60 204.71 49.90 C 203.56 50.68 202.50 51.57 201.57 52.59 M 211.10 59.45 C 207.05 64.27 202.47 68.62 198.22 73.26 C 177.71 94.42 157.22 115.58 136.57 136.60 C 111.79 162.15 87.05 187.75 62.05 213.09 C 62.20 213.55 62.50 214.47 62.66 214.93 C 64.71 215.90 66.54 217.58 68.91 217.65 C 70.03 216.17 71.27 214.81 72.57 213.51 C 86.22 199.85 99.44 185.78 112.98 172.02 C 119.56 165.25 126.29 158.63 132.73 151.73 C 143.64 140.05 155.25 129.04 166.07 117.27 C 182.82 100.08 199.74 83.05 216.60 65.97 C 215.33 63.90 214.03 61.85 212.85 59.72 C 212.27 59.63 211.68 59.54 211.10 59.45 M 219.68 71.02 C 210.15 80.70 200.52 90.28 191.04 100.01 C 152.58 139.54 114.22 179.16 75.71 218.64 C 74.95 219.43 72.91 221.18 74.98 221.79 C 83.23 226.02 92.11 228.90 101.12 231.01 C 104.82 231.53 108.49 232.22 112.21 232.57 C 118.08 232.75 124.02 234.18 129.84 232.81 C 151.24 232.17 172.14 224.06 189.19 211.27 C 197.39 205.25 204.68 197.97 210.79 189.84 C 224.25 172.12 232.56 150.20 232.84 127.87 C 233.71 124.39 233.42 120.72 232.76 117.23 C 232.62 114.18 232.76 111.07 231.85 108.12 C 230.54 95.07 225.79 82.55 219.68 71.02 Z" />
</g>
</svg>
