<?xml version="1.0" encoding="UTF-8" ?>
<!DOCTYPE svg PUBLIC "-//W3C//DTD SVG 1.1//EN" "http://www.w3.org/Graphics/SVG/1.1/DTD/svg11.dtd">
<svg width="130pt" height="130pt" viewBox="0 0 130 130" version="1.1" xmlns="http://www.w3.org/2000/svg">
<g id="disabled">
<path fill="#ffffff" opacity="1.00" d=" M 60.88 11.00 C 61.66 8.86 64.70 8.00 65.97 10.19 C 85.87 44.62 105.80 79.04 125.71 113.47 C 127.79 116.22 125.76 121.21 122.09 120.96 C 84.72 121.06 47.34 120.96 9.97 121.01 C 7.39 121.01 4.81 121.03 2.24 120.73 C -1.05 119.65 0.22 115.65 1.67 113.55 C 21.41 79.37 41.12 45.17 60.88 11.00 M 62.53 14.49 C 61.86 15.28 61.28 16.13 60.77 17.03 C 42.16 49.32 23.44 81.55 4.81 113.83 C 4.10 115.04 3.49 116.40 4.31 117.73 C 7.21 118.23 10.16 117.97 13.09 118.01 C 48.73 118.00 84.38 117.99 120.02 118.02 C 121.43 118.29 123.09 117.61 123.10 115.98 C 122.18 113.41 120.59 111.16 119.26 108.81 C 101.41 77.97 83.55 47.13 65.63 16.33 C 65.00 15.29 63.99 13.52 62.53 14.49 Z" />
<path fill="#ffffff" opacity="1.00" d=" M 61.09 38.18 C 61.72 36.90 62.82 35.98 63.90 35.10 C 76.68 57.05 89.30 79.10 102.08 101.06 C 103.35 103.34 104.96 105.50 105.57 108.08 C 104.50 108.81 103.31 109.12 102.01 108.99 C 76.67 109.02 51.33 108.97 25.99 109.02 C 24.45 108.77 22.30 109.49 21.27 107.97 C 22.26 104.98 24.09 102.38 25.63 99.66 C 37.45 79.17 49.31 58.70 61.09 38.18 M 59.02 69.96 C 55.90 70.49 52.74 70.40 49.59 70.35 C 47.48 74.21 45.08 77.92 43.23 81.91 C 42.96 89.80 42.88 97.73 43.33 105.62 C 56.78 105.25 70.24 105.31 83.69 105.60 C 83.91 97.80 83.98 89.97 83.77 82.17 C 81.87 78.11 79.41 74.33 77.31 70.38 C 71.17 71.01 65.12 68.78 59.02 69.96 Z" />
<path fill="#ffffff" opacity="1.00" d=" M 49.90 70.92 C 51.50 70.94 53.11 70.96 54.72 70.97 C 55.35 72.30 55.98 73.62 56.62 74.95 C 56.04 75.33 54.89 76.10 54.32 76.48 C 52.85 74.62 51.38 72.76 49.90 70.92 Z" />
<path fill="#ffffff" opacity="1.00" d=" M 55.41 70.95 C 56.91 70.81 58.41 70.68 59.92 70.56 C 59.99 71.42 60.13 73.13 60.20 73.99 C 59.44 74.13 57.91 74.40 57.14 74.54 C 56.57 73.34 55.99 72.14 55.41 70.95 Z" />
<path fill="#ffffff" opacity="1.00" d=" M 60.64 70.38 C 62.55 70.38 64.47 70.39 66.38 70.42 C 66.23 71.25 65.93 72.93 65.78 73.76 C 64.22 74.25 62.55 73.96 60.94 74.02 C 60.86 73.11 60.72 71.29 60.64 70.38 Z" />
<path fill="#ffffff" opacity="1.00" d=" M 67.03 70.52 C 68.49 70.68 69.95 70.84 71.42 71.02 C 70.85 72.18 70.29 73.35 69.72 74.51 C 68.94 74.40 67.37 74.17 66.59 74.06 C 66.70 73.18 66.92 71.41 67.03 70.52 Z" />
<path fill="#ffffff" opacity="1.00" d=" M 72.19 70.96 C 73.76 70.97 75.32 70.97 76.88 70.95 C 75.44 72.77 73.99 74.59 72.57 76.44 C 71.98 76.09 70.79 75.38 70.20 75.03 C 70.87 73.68 71.54 72.32 72.19 70.96 Z" />
<path fill="#ffffff" opacity="1.00" d=" M 46.56 77.09 C 47.57 75.28 48.59 73.47 49.62 71.66 C 50.99 73.42 52.40 75.16 53.78 76.91 C 52.87 77.88 52.00 78.88 51.15 79.90 C 49.62 78.96 48.09 78.03 46.56 77.09 Z" />
<path fill="#ffffff" opacity="1.00" d=" M 73.06 76.90 C 74.44 75.15 75.84 73.42 77.23 71.68 C 78.25 73.47 79.26 75.27 80.28 77.07 C 78.74 78.01 77.20 78.95 75.67 79.91 C 74.82 78.89 73.95 77.88 73.06 76.90 Z" />
<path fill="#ffffff" opacity="1.00" d=" M 56.80 75.70 C 59.32 74.19 62.35 74.90 65.12 74.75 C 70.97 74.31 75.81 79.60 76.95 84.98 C 77.77 91.48 76.92 98.04 77.32 104.56 C 76.80 104.69 75.75 104.96 75.23 105.09 C 74.90 99.04 75.30 92.98 75.01 86.93 C 74.68 80.51 68.19 75.33 61.84 76.37 C 56.53 77.03 52.10 81.69 51.80 87.06 C 51.56 93.01 51.79 98.98 51.70 104.94 C 51.18 104.87 50.13 104.74 49.61 104.67 C 49.48 99.14 49.55 93.61 49.56 88.09 C 49.32 83.01 52.39 78.10 56.80 75.70 Z" />
<path fill="#ffffff" opacity="1.00" d=" M 43.78 82.33 C 44.57 80.76 45.43 79.22 46.26 77.67 C 47.77 78.59 49.28 79.51 50.79 80.43 C 50.31 81.59 49.83 82.75 49.34 83.91 C 47.48 83.38 45.63 82.86 43.78 82.33 Z" />
<path fill="#ffffff" opacity="1.00" d=" M 75.98 80.50 C 77.53 79.56 79.07 78.63 80.62 77.71 C 81.46 79.22 82.30 80.74 83.13 82.26 C 81.27 82.81 79.42 83.36 77.57 83.94 C 77.17 83.08 76.38 81.36 75.98 80.50 Z" />
<path fill="#ffffff" opacity="1.00" d=" M 43.79 83.09 C 45.49 83.55 47.19 84.03 48.89 84.49 C 48.97 85.73 49.03 86.97 49.06 88.22 C 47.29 88.20 45.53 88.18 43.76 88.15 C 43.76 86.46 43.77 84.77 43.79 83.09 Z" />
<path fill="#ffffff" opacity="1.00" d=" M 77.67 84.63 C 79.52 84.09 81.37 83.55 83.22 83.01 C 83.21 84.74 83.19 86.47 83.16 88.20 C 81.47 88.21 79.78 88.21 78.10 88.22 C 77.99 87.32 77.78 85.53 77.67 84.63 Z" />
<path fill="#ffffff" opacity="1.00" d=" M 43.78 88.73 C 45.53 88.76 47.27 88.80 49.02 88.85 C 49.02 89.70 49.02 91.40 49.02 92.25 C 47.26 92.24 45.50 92.21 43.75 92.19 C 43.75 91.32 43.77 89.59 43.78 88.73 Z" />
<path fill="#ffffff" opacity="1.00" d=" M 78.05 88.81 C 79.75 88.80 81.44 88.79 83.14 88.79 C 83.14 89.63 83.13 91.31 83.13 92.15 C 81.42 92.18 79.71 92.22 78.00 92.24 C 78.01 91.38 78.04 89.67 78.05 88.81 Z" />
<path fill="#ffffff" opacity="1.00" d=" M 43.76 92.77 C 45.51 92.80 47.26 92.83 49.02 92.88 C 49.02 93.71 49.03 95.35 49.04 96.18 C 47.26 96.20 45.48 96.21 43.70 96.21 C 43.72 95.35 43.74 93.63 43.76 92.77 Z" />
<path fill="#ffffff" opacity="1.00" d=" M 77.99 92.85 C 79.70 92.81 81.41 92.78 83.12 92.75 C 83.13 93.61 83.13 95.33 83.14 96.18 C 81.42 96.18 79.69 96.17 77.97 96.16 C 77.98 95.33 77.99 93.68 77.99 92.85 Z" />
<path fill="#ffffff" opacity="1.00" d=" M 43.67 96.79 C 45.46 96.79 47.25 96.80 49.03 96.82 C 49.03 97.74 49.04 99.60 49.04 100.53 C 47.29 100.58 45.55 100.61 43.80 100.63 C 43.77 99.67 43.71 97.75 43.67 96.79 Z" />
<path fill="#ffffff" opacity="1.00" d=" M 77.97 96.78 C 79.69 96.78 81.42 96.79 83.14 96.80 C 83.14 97.75 83.15 99.66 83.15 100.61 C 81.40 100.60 79.65 100.60 77.90 100.58 C 77.91 99.63 77.95 97.73 77.97 96.78 Z" />
<path fill="#ffffff" opacity="1.00" d=" M 43.75 101.20 C 45.47 101.19 47.20 101.20 48.93 101.23 C 48.86 102.19 48.72 104.13 48.64 105.10 C 47.19 105.16 45.73 105.21 44.28 105.26 C 44.14 104.24 43.88 102.21 43.75 101.20 Z" />
<path fill="#ffffff" opacity="1.00" d=" M 77.85 101.23 C 79.64 101.21 81.43 101.20 83.22 101.19 C 83.10 102.21 82.85 104.24 82.73 105.26 C 81.25 105.22 79.77 105.17 78.29 105.11 C 78.18 104.14 77.96 102.20 77.85 101.23 Z" />
<path fill="#000000" opacity="1.00" d=" M 59.02 69.96 C 65.12 68.78 71.17 71.01 77.31 70.38 C 79.41 74.33 81.87 78.11 83.77 82.17 C 83.98 89.97 83.91 97.80 83.69 105.60 C 70.24 105.31 56.78 105.25 43.33 105.62 C 42.88 97.73 42.96 89.80 43.23 81.91 C 45.08 77.92 47.48 74.21 49.59 70.35 C 52.74 70.40 55.90 70.49 59.02 69.96 M 49.90 70.92 C 51.38 72.76 52.85 74.62 54.32 76.48 C 54.89 76.10 56.04 75.33 56.62 74.95 C 55.98 73.62 55.35 72.30 54.72 70.97 C 53.11 70.96 51.50 70.94 49.90 70.92 M 55.41 70.95 C 55.99 72.14 56.57 73.34 57.14 74.54 C 57.91 74.40 59.44 74.13 60.20 73.99 C 60.13 73.13 59.99 71.42 59.92 70.56 C 58.41 70.68 56.91 70.81 55.41 70.95 M 60.64 70.38 C 60.72 71.29 60.86 73.11 60.94 74.02 C 62.55 73.96 64.22 74.25 65.78 73.76 C 65.93 72.93 66.23 71.25 66.38 70.42 C 64.47 70.39 62.55 70.38 60.64 70.38 M 67.03 70.52 C 66.92 71.41 66.70 73.18 66.59 74.06 C 67.37 74.17 68.94 74.40 69.72 74.51 C 70.29 73.35 70.85 72.18 71.42 71.02 C 69.95 70.84 68.49 70.68 67.03 70.52 M 72.19 70.96 C 71.54 72.32 70.87 73.68 70.20 75.03 C 70.79 75.38 71.98 76.09 72.57 76.44 C 73.99 74.59 75.44 72.77 76.88 70.95 C 75.32 70.97 73.76 70.97 72.19 70.96 M 46.56 77.09 C 48.09 78.03 49.62 78.96 51.15 79.90 C 52.00 78.88 52.87 77.88 53.78 76.91 C 52.40 75.16 50.99 73.42 49.62 71.66 C 48.59 73.47 47.57 75.28 46.56 77.09 M 73.06 76.90 C 73.95 77.88 74.82 78.89 75.67 79.91 C 77.20 78.95 78.74 78.01 80.28 77.07 C 79.26 75.27 78.25 73.47 77.23 71.68 C 75.84 73.42 74.44 75.15 73.06 76.90 M 56.80 75.70 C 52.39 78.10 49.32 83.01 49.56 88.09 C 49.55 93.61 49.48 99.14 49.61 104.67 C 50.13 104.74 51.18 104.87 51.70 104.94 C 51.79 98.98 51.56 93.01 51.80 87.06 C 52.10 81.69 56.53 77.03 61.84 76.37 C 68.19 75.33 74.68 80.51 75.01 86.93 C 75.30 92.98 74.90 99.04 75.23 105.09 C 75.75 104.96 76.80 104.69 77.32 104.56 C 76.92 98.04 77.77 91.48 76.95 84.98 C 75.81 79.60 70.97 74.31 65.12 74.75 C 62.35 74.90 59.32 74.19 56.80 75.70 M 43.78 82.33 C 45.63 82.86 47.48 83.38 49.34 83.91 C 49.83 82.75 50.31 81.59 50.79 80.43 C 49.28 79.51 47.77 78.59 46.26 77.67 C 45.43 79.22 44.57 80.76 43.78 82.33 M 75.98 80.50 C 76.38 81.36 77.17 83.08 77.57 83.94 C 79.42 83.36 81.27 82.81 83.13 82.26 C 82.30 80.74 81.46 79.22 80.62 77.71 C 79.07 78.63 77.53 79.56 75.98 80.50 M 43.79 83.09 C 43.77 84.77 43.76 86.46 43.76 88.15 C 45.53 88.18 47.29 88.20 49.06 88.22 C 49.03 86.97 48.97 85.73 48.89 84.49 C 47.19 84.03 45.49 83.55 43.79 83.09 M 77.67 84.63 C 77.78 85.53 77.99 87.32 78.10 88.22 C 79.78 88.21 81.47 88.21 83.16 88.20 C 83.19 86.47 83.21 84.74 83.22 83.01 C 81.37 83.55 79.52 84.09 77.67 84.63 M 43.78 88.73 C 43.77 89.59 43.75 91.32 43.75 92.19 C 45.50 92.21 47.26 92.24 49.02 92.25 C 49.02 91.40 49.02 89.70 49.02 88.85 C 47.27 88.80 45.53 88.76 43.78 88.73 M 78.05 88.81 C 78.04 89.67 78.01 91.38 78.00 92.24 C 79.71 92.22 81.42 92.18 83.13 92.15 C 83.13 91.31 83.14 89.63 83.14 88.79 C 81.44 88.79 79.75 88.80 78.05 88.81 M 43.76 92.77 C 43.74 93.63 43.72 95.35 43.70 96.21 C 45.48 96.21 47.26 96.20 49.04 96.18 C 49.03 95.35 49.02 93.71 49.02 92.88 C 47.26 92.83 45.51 92.80 43.76 92.77 M 77.99 92.85 C 77.99 93.68 77.98 95.33 77.97 96.16 C 79.69 96.17 81.42 96.18 83.14 96.18 C 83.13 95.33 83.13 93.61 83.12 92.75 C 81.41 92.78 79.70 92.81 77.99 92.85 M 43.67 96.79 C 43.71 97.75 43.77 99.67 43.80 100.63 C 45.55 100.61 47.29 100.58 49.04 100.53 C 49.04 99.60 49.03 97.74 49.03 96.82 C 47.25 96.80 45.46 96.79 43.67 96.79 M 77.97 96.78 C 77.95 97.73 77.91 99.63 77.90 100.58 C 79.65 100.60 81.40 100.60 83.15 100.61 C 83.15 99.66 83.14 97.75 83.14 96.80 C 81.42 96.79 79.69 96.78 77.97 96.78 M 43.75 101.20 C 43.88 102.21 44.14 104.24 44.28 105.26 C 45.73 105.21 47.19 105.16 48.64 105.10 C 48.72 104.13 48.86 102.19 48.93 101.23 C 47.20 101.20 45.47 101.19 43.75 101.20 M 77.85 101.23 C 77.96 102.20 78.18 104.14 78.29 105.11 C 79.77 105.17 81.25 105.22 82.73 105.26 C 82.85 104.24 83.10 102.21 83.22 101.19 C 81.43 101.20 79.64 101.21 77.85 101.23 Z" />
<path fill="#606060" opacity="1.00" d=" M 62.53 14.49 C 63.99 13.52 65.00 15.29 65.63 16.33 C 83.55 47.13 101.41 77.97 119.26 108.81 C 120.59 111.16 122.18 113.41 123.10 115.98 C 123.09 117.61 121.43 118.29 120.02 118.02 C 84.38 117.99 48.73 118.00 13.09 118.01 C 10.16 117.97 7.21 118.23 4.31 117.73 C 3.49 116.40 4.10 115.04 4.81 113.83 C 23.44 81.55 42.16 49.32 60.77 17.03 C 61.28 16.13 61.86 15.28 62.53 14.49 M 61.09 38.18 C 49.31 58.70 37.45 79.17 25.63 99.66 C 24.09 102.38 22.26 104.98 21.27 107.97 C 22.30 109.49 24.45 108.77 25.99 109.02 C 51.33 108.97 76.67 109.02 102.01 108.99 C 103.31 109.12 104.50 108.81 105.57 108.08 C 104.96 105.50 103.35 103.34 102.08 101.06 C 89.30 79.10 76.68 57.05 63.90 35.10 C 62.82 35.98 61.72 36.90 61.09 38.18 Z" />
</g>
<g id="normal">
<path fill="#ffffff" opacity="1.00" d=" M 60.88 11.00 C 61.66 8.86 64.70 8.00 65.97 10.19 C 85.87 44.62 105.80 79.04 125.71 113.47 C 127.79 116.22 125.76 121.21 122.09 120.96 C 84.72 121.06 47.34 120.96 9.97 121.01 C 7.39 121.01 4.81 121.03 2.24 120.73 C -1.05 119.65 0.22 115.65 1.67 113.55 C 21.41 79.37 41.12 45.17 60.88 11.00 M 62.53 14.49 C 61.86 15.28 61.28 16.13 60.77 17.03 C 42.16 49.32 23.44 81.55 4.81 113.83 C 4.10 115.04 3.49 116.40 4.31 117.73 C 7.21 118.23 10.16 117.97 13.09 118.01 C 48.73 118.00 84.38 117.99 120.02 118.02 C 121.43 118.29 123.09 117.61 123.10 115.98 C 122.18 113.41 120.59 111.16 119.26 108.81 C 101.41 77.97 83.55 47.13 65.63 16.33 C 65.00 15.29 63.99 13.52 62.53 14.49 Z" />
<path fill="#ffffff" opacity="1.00" d=" M 61.09 38.18 C 61.72 36.90 62.82 35.98 63.90 35.10 C 76.68 57.05 89.30 79.10 102.08 101.06 C 103.35 103.34 104.96 105.50 105.57 108.08 C 104.50 108.81 103.31 109.12 102.01 108.99 C 76.67 109.02 51.33 108.97 25.99 109.02 C 24.45 108.77 22.30 109.49 21.27 107.97 C 22.26 104.98 24.09 102.38 25.63 99.66 C 37.45 79.17 49.31 58.70 61.09 38.18 M 59.02 69.96 C 55.90 70.49 52.74 70.40 49.59 70.35 C 47.48 74.21 45.08 77.92 43.23 81.91 C 42.96 89.80 42.88 97.73 43.33 105.62 C 56.78 105.25 70.24 105.31 83.69 105.60 C 83.91 97.80 83.98 89.97 83.77 82.17 C 81.87 78.11 79.41 74.33 77.31 70.38 C 71.17 71.01 65.12 68.78 59.02 69.96 Z" />
<path fill="#ffffff" opacity="1.00" d=" M 49.90 70.92 C 51.50 70.94 53.11 70.96 54.72 70.97 C 55.35 72.30 55.98 73.62 56.62 74.95 C 56.04 75.33 54.89 76.10 54.32 76.48 C 52.85 74.62 51.38 72.76 49.90 70.92 Z" />
<path fill="#ffffff" opacity="1.00" d=" M 55.41 70.95 C 56.91 70.81 58.41 70.68 59.92 70.56 C 59.99 71.42 60.13 73.13 60.20 73.99 C 59.44 74.13 57.91 74.40 57.14 74.54 C 56.57 73.34 55.99 72.14 55.41 70.95 Z" />
<path fill="#ffffff" opacity="1.00" d=" M 60.64 70.38 C 62.55 70.38 64.47 70.39 66.38 70.42 C 66.23 71.25 65.93 72.93 65.78 73.76 C 64.22 74.25 62.55 73.96 60.94 74.02 C 60.86 73.11 60.72 71.29 60.64 70.38 Z" />
<path fill="#ffffff" opacity="1.00" d=" M 67.03 70.52 C 68.49 70.68 69.95 70.84 71.42 71.02 C 70.85 72.18 70.29 73.35 69.72 74.51 C 68.94 74.40 67.37 74.17 66.59 74.06 C 66.70 73.18 66.92 71.41 67.03 70.52 Z" />
<path fill="#ffffff" opacity="1.00" d=" M 72.19 70.96 C 73.76 70.97 75.32 70.97 76.88 70.95 C 75.44 72.77 73.99 74.59 72.57 76.44 C 71.98 76.09 70.79 75.38 70.20 75.03 C 70.87 73.68 71.54 72.32 72.19 70.96 Z" />
<path fill="#ffffff" opacity="1.00" d=" M 46.56 77.09 C 47.57 75.28 48.59 73.47 49.62 71.66 C 50.99 73.42 52.40 75.16 53.78 76.91 C 52.87 77.88 52.00 78.88 51.15 79.90 C 49.62 78.96 48.09 78.03 46.56 77.09 Z" />
<path fill="#ffffff" opacity="1.00" d=" M 73.06 76.90 C 74.44 75.15 75.84 73.42 77.23 71.68 C 78.25 73.47 79.26 75.27 80.28 77.07 C 78.74 78.01 77.20 78.95 75.67 79.91 C 74.82 78.89 73.95 77.88 73.06 76.90 Z" />
<path fill="#ffffff" opacity="1.00" d=" M 56.80 75.70 C 59.32 74.19 62.35 74.90 65.12 74.75 C 70.97 74.31 75.81 79.60 76.95 84.98 C 77.77 91.48 76.92 98.04 77.32 104.56 C 76.80 104.69 75.75 104.96 75.23 105.09 C 74.90 99.04 75.30 92.98 75.01 86.93 C 74.68 80.51 68.19 75.33 61.84 76.37 C 56.53 77.03 52.10 81.69 51.80 87.06 C 51.56 93.01 51.79 98.98 51.70 104.94 C 51.18 104.87 50.13 104.74 49.61 104.67 C 49.48 99.14 49.55 93.61 49.56 88.09 C 49.32 83.01 52.39 78.10 56.80 75.70 Z" />
<path fill="#ffffff" opacity="1.00" d=" M 43.78 82.33 C 44.57 80.76 45.43 79.22 46.26 77.67 C 47.77 78.59 49.28 79.51 50.79 80.43 C 50.31 81.59 49.83 82.75 49.34 83.91 C 47.48 83.38 45.63 82.86 43.78 82.33 Z" />
<path fill="#ffffff" opacity="1.00" d=" M 75.98 80.50 C 77.53 79.56 79.07 78.63 80.62 77.71 C 81.46 79.22 82.30 80.74 83.13 82.26 C 81.27 82.81 79.42 83.36 77.57 83.94 C 77.17 83.08 76.38 81.36 75.98 80.50 Z" />
<path fill="#ffffff" opacity="1.00" d=" M 43.79 83.09 C 45.49 83.55 47.19 84.03 48.89 84.49 C 48.97 85.73 49.03 86.97 49.06 88.22 C 47.29 88.20 45.53 88.18 43.76 88.15 C 43.76 86.46 43.77 84.77 43.79 83.09 Z" />
<path fill="#ffffff" opacity="1.00" d=" M 77.67 84.63 C 79.52 84.09 81.37 83.55 83.22 83.01 C 83.21 84.74 83.19 86.47 83.16 88.20 C 81.47 88.21 79.78 88.21 78.10 88.22 C 77.99 87.32 77.78 85.53 77.67 84.63 Z" />
<path fill="#ffffff" opacity="1.00" d=" M 43.78 88.73 C 45.53 88.76 47.27 88.80 49.02 88.85 C 49.02 89.70 49.02 91.40 49.02 92.25 C 47.26 92.24 45.50 92.21 43.75 92.19 C 43.75 91.32 43.77 89.59 43.78 88.73 Z" />
<path fill="#ffffff" opacity="1.00" d=" M 78.05 88.81 C 79.75 88.80 81.44 88.79 83.14 88.79 C 83.14 89.63 83.13 91.31 83.13 92.15 C 81.42 92.18 79.71 92.22 78.00 92.24 C 78.01 91.38 78.04 89.67 78.05 88.81 Z" />
<path fill="#ffffff" opacity="1.00" d=" M 43.76 92.77 C 45.51 92.80 47.26 92.83 49.02 92.88 C 49.02 93.71 49.03 95.35 49.04 96.18 C 47.26 96.20 45.48 96.21 43.70 96.21 C 43.72 95.35 43.74 93.63 43.76 92.77 Z" />
<path fill="#ffffff" opacity="1.00" d=" M 77.99 92.85 C 79.70 92.81 81.41 92.78 83.12 92.75 C 83.13 93.61 83.13 95.33 83.14 96.18 C 81.42 96.18 79.69 96.17 77.97 96.16 C 77.98 95.33 77.99 93.68 77.99 92.85 Z" />
<path fill="#ffffff" opacity="1.00" d=" M 43.67 96.79 C 45.46 96.79 47.25 96.80 49.03 96.82 C 49.03 97.74 49.04 99.60 49.04 100.53 C 47.29 100.58 45.55 100.61 43.80 100.63 C 43.77 99.67 43.71 97.75 43.67 96.79 Z" />
<path fill="#ffffff" opacity="1.00" d=" M 77.97 96.78 C 79.69 96.78 81.42 96.79 83.14 96.80 C 83.14 97.75 83.15 99.66 83.15 100.61 C 81.40 100.60 79.65 100.60 77.90 100.58 C 77.91 99.63 77.95 97.73 77.97 96.78 Z" />
<path fill="#ffffff" opacity="1.00" d=" M 43.75 101.20 C 45.47 101.19 47.20 101.20 48.93 101.23 C 48.86 102.19 48.72 104.13 48.64 105.10 C 47.19 105.16 45.73 105.21 44.28 105.26 C 44.14 104.24 43.88 102.21 43.75 101.20 Z" />
<path fill="#ffffff" opacity="1.00" d=" M 77.85 101.23 C 79.64 101.21 81.43 101.20 83.22 101.19 C 83.10 102.21 82.85 104.24 82.73 105.26 C 81.25 105.22 79.77 105.17 78.29 105.11 C 78.18 104.14 77.96 102.20 77.85 101.23 Z" />
<path fill="#000000" opacity="1.00" d=" M 59.02 69.96 C 65.12 68.78 71.17 71.01 77.31 70.38 C 79.41 74.33 81.87 78.11 83.77 82.17 C 83.98 89.97 83.91 97.80 83.69 105.60 C 70.24 105.31 56.78 105.25 43.33 105.62 C 42.88 97.73 42.96 89.80 43.23 81.91 C 45.08 77.92 47.48 74.21 49.59 70.35 C 52.74 70.40 55.90 70.49 59.02 69.96 M 49.90 70.92 C 51.38 72.76 52.85 74.62 54.32 76.48 C 54.89 76.10 56.04 75.33 56.62 74.95 C 55.98 73.62 55.35 72.30 54.72 70.97 C 53.11 70.96 51.50 70.94 49.90 70.92 M 55.41 70.95 C 55.99 72.14 56.57 73.34 57.14 74.54 C 57.91 74.40 59.44 74.13 60.20 73.99 C 60.13 73.13 59.99 71.42 59.92 70.56 C 58.41 70.68 56.91 70.81 55.41 70.95 M 60.64 70.38 C 60.72 71.29 60.86 73.11 60.94 74.02 C 62.55 73.96 64.22 74.25 65.78 73.76 C 65.93 72.93 66.23 71.25 66.38 70.42 C 64.47 70.39 62.55 70.38 60.64 70.38 M 67.03 70.52 C 66.92 71.41 66.70 73.18 66.59 74.06 C 67.37 74.17 68.94 74.40 69.72 74.51 C 70.29 73.35 70.85 72.18 71.42 71.02 C 69.95 70.84 68.49 70.68 67.03 70.52 M 72.19 70.96 C 71.54 72.32 70.87 73.68 70.20 75.03 C 70.79 75.38 71.98 76.09 72.57 76.44 C 73.99 74.59 75.44 72.77 76.88 70.95 C 75.32 70.97 73.76 70.97 72.19 70.96 M 46.56 77.09 C 48.09 78.03 49.62 78.96 51.15 79.90 C 52.00 78.88 52.87 77.88 53.78 76.91 C 52.40 75.16 50.99 73.42 49.62 71.66 C 48.59 73.47 47.57 75.28 46.56 77.09 M 73.06 76.90 C 73.95 77.88 74.82 78.89 75.67 79.91 C 77.20 78.95 78.74 78.01 80.28 77.07 C 79.26 75.27 78.25 73.47 77.23 71.68 C 75.84 73.42 74.44 75.15 73.06 76.90 M 56.80 75.70 C 52.39 78.10 49.32 83.01 49.56 88.09 C 49.55 93.61 49.48 99.14 49.61 104.67 C 50.13 104.74 51.18 104.87 51.70 104.94 C 51.79 98.98 51.56 93.01 51.80 87.06 C 52.10 81.69 56.53 77.03 61.84 76.37 C 68.19 75.33 74.68 80.51 75.01 86.93 C 75.30 92.98 74.90 99.04 75.23 105.09 C 75.75 104.96 76.80 104.69 77.32 104.56 C 76.92 98.04 77.77 91.48 76.95 84.98 C 75.81 79.60 70.97 74.31 65.12 74.75 C 62.35 74.90 59.32 74.19 56.80 75.70 M 43.78 82.33 C 45.63 82.86 47.48 83.38 49.34 83.91 C 49.83 82.75 50.31 81.59 50.79 80.43 C 49.28 79.51 47.77 78.59 46.26 77.67 C 45.43 79.22 44.57 80.76 43.78 82.33 M 75.98 80.50 C 76.38 81.36 77.17 83.08 77.57 83.94 C 79.42 83.36 81.27 82.81 83.13 82.26 C 82.30 80.74 81.46 79.22 80.62 77.71 C 79.07 78.63 77.53 79.56 75.98 80.50 M 43.79 83.09 C 43.77 84.77 43.76 86.46 43.76 88.15 C 45.53 88.18 47.29 88.20 49.06 88.22 C 49.03 86.97 48.97 85.73 48.89 84.49 C 47.19 84.03 45.49 83.55 43.79 83.09 M 77.67 84.63 C 77.78 85.53 77.99 87.32 78.10 88.22 C 79.78 88.21 81.47 88.21 83.16 88.20 C 83.19 86.47 83.21 84.74 83.22 83.01 C 81.37 83.55 79.52 84.09 77.67 84.63 M 43.78 88.73 C 43.77 89.59 43.75 91.32 43.75 92.19 C 45.50 92.21 47.26 92.24 49.02 92.25 C 49.02 91.40 49.02 89.70 49.02 88.85 C 47.27 88.80 45.53 88.76 43.78 88.73 M 78.05 88.81 C 78.04 89.67 78.01 91.38 78.00 92.24 C 79.71 92.22 81.42 92.18 83.13 92.15 C 83.13 91.31 83.14 89.63 83.14 88.79 C 81.44 88.79 79.75 88.80 78.05 88.81 M 43.76 92.77 C 43.74 93.63 43.72 95.35 43.70 96.21 C 45.48 96.21 47.26 96.20 49.04 96.18 C 49.03 95.35 49.02 93.71 49.02 92.88 C 47.26 92.83 45.51 92.80 43.76 92.77 M 77.99 92.85 C 77.99 93.68 77.98 95.33 77.97 96.16 C 79.69 96.17 81.42 96.18 83.14 96.18 C 83.13 95.33 83.13 93.61 83.12 92.75 C 81.41 92.78 79.70 92.81 77.99 92.85 M 43.67 96.79 C 43.71 97.75 43.77 99.67 43.80 100.63 C 45.55 100.61 47.29 100.58 49.04 100.53 C 49.04 99.60 49.03 97.74 49.03 96.82 C 47.25 96.80 45.46 96.79 43.67 96.79 M 77.97 96.78 C 77.95 97.73 77.91 99.63 77.90 100.58 C 79.65 100.60 81.40 100.60 83.15 100.61 C 83.15 99.66 83.14 97.75 83.14 96.80 C 81.42 96.79 79.69 96.78 77.97 96.78 M 43.75 101.20 C 43.88 102.21 44.14 104.24 44.28 105.26 C 45.73 105.21 47.19 105.16 48.64 105.10 C 48.72 104.13 48.86 102.19 48.93 101.23 C 47.20 101.20 45.47 101.19 43.75 101.20 M 77.85 101.23 C 77.96 102.20 78.18 104.14 78.29 105.11 C 79.77 105.17 81.25 105.22 82.73 105.26 C 82.85 104.24 83.10 102.21 83.22 101.19 C 81.43 101.20 79.64 101.21 77.85 101.23 Z" />
<path fill="#de2e2e" opacity="1.00" d=" M 62.53 14.49 C 63.99 13.52 65.00 15.29 65.63 16.33 C 83.55 47.13 101.41 77.97 119.26 108.81 C 120.59 111.16 122.18 113.41 123.10 115.98 C 123.09 117.61 121.43 118.29 120.02 118.02 C 84.38 117.99 48.73 118.00 13.09 118.01 C 10.16 117.97 7.21 118.23 4.31 117.73 C 3.49 116.40 4.10 115.04 4.81 113.83 C 23.44 81.55 42.16 49.32 60.77 17.03 C 61.28 16.13 61.86 15.28 62.53 14.49 M 61.09 38.18 C 49.31 58.70 37.45 79.17 25.63 99.66 C 24.09 102.38 22.26 104.98 21.27 107.97 C 22.30 109.49 24.45 108.77 25.99 109.02 C 51.33 108.97 76.67 109.02 102.01 108.99 C 103.31 109.12 104.50 108.81 105.57 108.08 C 104.96 105.50 103.35 103.34 102.08 101.06 C 89.30 79.10 76.68 57.05 63.90 35.10 C 62.82 35.98 61.72 36.90 61.09 38.18 Z" />
</g>
</svg>
