<?xml version="1.0" encoding="UTF-8" ?>
<!DOCTYPE svg PUBLIC "-//W3C//DTD SVG 1.1//EN" "http://www.w3.org/Graphics/SVG/1.1/DTD/svg11.dtd">
<svg width="170pt" height="170pt" viewBox="0 0 170 170" version="1.1" xmlns="http://www.w3.org/2000/svg">
<g id="disabled">
<path fill="#606060" opacity="1.00" d=" M 84.21 12.12 C 86.88 11.57 89.06 13.69 90.15 15.90 C 115.75 60.28 141.49 104.59 167.07 148.98 C 169.60 152.46 166.23 157.43 162.11 156.81 C 110.71 156.83 59.31 156.83 7.92 156.81 C 3.77 157.46 0.34 152.42 2.96 148.94 C 28.54 104.57 54.26 60.27 79.85 15.90 C 80.80 14.19 82.12 12.40 84.21 12.12 M 25.20 141.31 C 65.07 141.26 104.94 141.27 144.80 141.31 C 124.89 106.85 105.01 72.37 85.00 37.97 C 65.00 72.38 45.12 106.86 25.20 141.31 Z" />
<path fill="#909090" opacity="1.00" d=" M 25.20 141.31 C 45.12 106.86 65.00 72.38 85.00 37.97 C 105.01 72.37 124.89 106.85 144.80 141.31 C 104.94 141.27 65.07 141.26 25.20 141.31 M 52.30 98.45 C 52.69 101.23 56.44 102.08 58.36 103.87 C 55.11 103.87 51.86 103.88 48.61 103.90 C 48.96 104.43 49.66 105.47 50.01 105.99 C 48.52 112.39 46.86 118.74 45.43 125.14 C 44.73 126.81 46.03 128.78 47.82 128.76 C 51.25 129.03 54.69 128.84 58.13 128.81 C 55.97 131.76 58.26 136.10 62.02 135.58 C 65.56 135.57 67.14 131.60 65.30 128.82 C 66.26 128.82 68.18 128.83 69.14 128.83 C 66.89 131.77 69.29 136.11 73.03 135.58 C 76.60 135.58 78.12 131.57 76.26 128.82 C 82.29 128.89 88.33 128.91 94.36 128.81 C 92.21 131.70 94.38 135.91 98.02 135.59 C 101.60 135.75 103.54 131.67 101.51 128.82 C 102.48 128.82 104.42 128.82 105.40 128.82 C 103.17 131.70 105.41 135.92 109.03 135.59 C 112.62 135.74 114.54 131.64 112.50 128.80 C 115.97 128.84 119.45 129.05 122.91 128.75 C 124.73 128.68 125.87 126.65 125.18 125.00 C 123.70 118.50 122.05 112.05 120.47 105.57 C 120.89 105.16 121.74 104.34 122.17 103.93 C 102.54 103.81 82.91 103.90 63.28 103.89 C 65.62 102.44 67.81 100.75 69.92 98.98 C 67.12 96.50 63.93 94.56 60.85 92.47 C 58.02 94.49 54.96 96.21 52.30 98.45 Z" />
<path fill="#909090" opacity="1.00" d=" M 54.29 98.49 C 56.47 96.97 58.67 95.47 60.88 93.98 C 63.03 95.48 65.20 96.95 67.37 98.43 C 65.20 99.98 63.03 101.52 60.85 103.06 C 58.67 101.52 56.49 99.99 54.29 98.49 Z" />
<path fill="#909090" opacity="1.00" d=" M 51.80 110.13 C 52.68 110.13 54.45 110.13 55.34 110.13 C 55.34 113.89 55.34 117.64 55.34 121.40 C 52.97 121.40 50.59 121.40 48.22 121.40 C 49.40 117.64 50.60 113.89 51.80 110.13 Z" />
<path fill="#909090" opacity="1.00" d=" M 58.13 110.13 C 59.93 110.13 61.73 110.14 63.52 110.14 C 63.51 114.92 63.52 119.70 63.51 124.47 C 61.71 124.46 59.92 124.46 58.13 124.46 C 58.13 119.68 58.13 114.90 58.13 110.13 Z" />
<path fill="#909090" opacity="1.00" d=" M 66.17 110.13 C 69.65 110.13 73.13 110.13 76.61 110.13 C 76.62 113.88 76.62 117.64 76.61 121.40 C 73.13 121.40 69.65 121.40 66.17 121.40 C 66.17 117.64 66.17 113.89 66.17 110.13 Z" />
<path fill="#909090" opacity="1.00" d=" M 79.54 110.13 C 83.02 110.13 86.50 110.13 89.98 110.13 C 89.99 113.89 89.99 117.64 89.99 121.40 C 86.50 121.40 83.02 121.40 79.54 121.40 C 79.53 117.64 79.53 113.88 79.54 110.13 Z" />
<path fill="#909090" opacity="1.00" d=" M 92.79 110.14 C 96.28 110.12 99.77 110.13 103.26 110.16 C 103.24 113.91 103.24 117.65 103.24 121.40 C 99.76 121.40 96.27 121.40 92.79 121.40 C 92.78 117.64 92.79 113.89 92.79 110.14 Z" />
<path fill="#909090" opacity="1.00" d=" M 106.53 110.13 C 108.33 110.13 110.12 110.13 111.92 110.13 C 111.92 114.91 111.92 119.69 111.92 124.46 C 110.13 124.46 108.33 124.46 106.53 124.47 C 106.52 119.69 106.52 114.91 106.53 110.13 Z" />
<path fill="#909090" opacity="1.00" d=" M 115.67 110.13 C 116.55 110.13 118.32 110.13 119.21 110.13 C 120.41 113.89 121.60 117.64 122.78 121.40 C 120.41 121.40 118.04 121.40 115.67 121.40 C 115.66 117.64 115.66 113.88 115.67 110.13 Z" />
<path fill="#000000" opacity="1.00" d=" M 52.30 98.45 C 54.96 96.21 58.02 94.49 60.85 92.47 C 63.93 94.56 67.12 96.50 69.92 98.98 C 67.81 100.75 65.62 102.44 63.28 103.89 C 82.91 103.90 102.54 103.81 122.17 103.93 C 121.74 104.34 120.89 105.16 120.47 105.57 C 122.05 112.05 123.70 118.50 125.18 125.00 C 125.87 126.65 124.73 128.68 122.91 128.75 C 119.45 129.05 115.97 128.84 112.50 128.80 C 114.54 131.64 112.62 135.74 109.03 135.59 C 105.41 135.92 103.17 131.70 105.40 128.82 C 104.42 128.82 102.48 128.82 101.51 128.82 C 103.54 131.67 101.60 135.75 98.02 135.59 C 94.38 135.91 92.21 131.70 94.36 128.81 C 88.33 128.91 82.29 128.89 76.26 128.82 C 78.12 131.57 76.60 135.58 73.03 135.58 C 69.29 136.11 66.89 131.77 69.14 128.83 C 68.18 128.83 66.26 128.82 65.30 128.82 C 67.14 131.60 65.56 135.57 62.02 135.58 C 58.26 136.10 55.97 131.76 58.13 128.81 C 54.69 128.84 51.25 129.03 47.82 128.76 C 46.03 128.78 44.73 126.81 45.43 125.14 C 46.86 118.74 48.52 112.39 50.01 105.99 C 49.66 105.47 48.96 104.43 48.61 103.90 C 51.86 103.88 55.11 103.87 58.36 103.87 C 56.44 102.08 52.69 101.23 52.30 98.45 M 54.29 98.49 C 56.49 99.99 58.67 101.52 60.85 103.06 C 63.03 101.52 65.20 99.98 67.37 98.43 C 65.20 96.95 63.03 95.48 60.88 93.98 C 58.67 95.47 56.47 96.97 54.29 98.49 M 51.80 110.13 C 50.60 113.89 49.40 117.64 48.22 121.40 C 50.59 121.40 52.97 121.40 55.34 121.40 C 55.34 117.64 55.34 113.89 55.34 110.13 C 54.45 110.13 52.68 110.13 51.80 110.13 M 58.13 110.13 C 58.13 114.90 58.13 119.68 58.13 124.46 C 59.92 124.46 61.71 124.46 63.51 124.47 C 63.52 119.70 63.51 114.92 63.52 110.14 C 61.73 110.14 59.93 110.13 58.13 110.13 M 66.17 110.13 C 66.17 113.89 66.17 117.64 66.17 121.40 C 69.65 121.40 73.13 121.40 76.61 121.40 C 76.62 117.64 76.62 113.88 76.61 110.13 C 73.13 110.13 69.65 110.13 66.17 110.13 M 79.54 110.13 C 79.53 113.88 79.53 117.64 79.54 121.40 C 83.02 121.40 86.50 121.40 89.99 121.40 C 89.99 117.64 89.99 113.89 89.98 110.13 C 86.50 110.13 83.02 110.13 79.54 110.13 M 92.79 110.14 C 92.79 113.89 92.78 117.64 92.79 121.40 C 96.27 121.40 99.76 121.40 103.24 121.40 C 103.24 117.65 103.24 113.91 103.26 110.16 C 99.77 110.13 96.28 110.12 92.79 110.14 M 106.53 110.13 C 106.52 114.91 106.52 119.69 106.53 124.47 C 108.33 124.46 110.13 124.46 111.92 124.46 C 111.92 119.69 111.92 114.91 111.92 110.13 C 110.12 110.13 108.33 110.13 106.53 110.13 M 115.67 110.13 C 115.66 113.88 115.66 117.64 115.67 121.40 C 118.04 121.40 120.41 121.40 122.78 121.40 C 121.60 117.64 120.41 113.89 119.21 110.13 C 118.32 110.13 116.55 110.13 115.67 110.13 Z" />
</g>
<g id="normal">
<path fill="#cc0000" opacity="1.00" d=" M 84.21 12.12 C 86.88 11.57 89.06 13.69 90.15 15.90 C 115.75 60.28 141.49 104.59 167.07 148.98 C 169.60 152.46 166.23 157.43 162.11 156.81 C 110.71 156.83 59.31 156.83 7.92 156.81 C 3.77 157.46 0.34 152.42 2.96 148.94 C 28.54 104.57 54.26 60.27 79.85 15.90 C 80.80 14.19 82.12 12.40 84.21 12.12 M 25.20 141.31 C 65.07 141.26 104.94 141.27 144.80 141.31 C 124.89 106.85 105.01 72.37 85.00 37.97 C 65.00 72.38 45.12 106.86 25.20 141.31 Z" />
<path fill="#ffc500" opacity="1.00" d=" M 25.20 141.31 C 45.12 106.86 65.00 72.38 85.00 37.97 C 105.01 72.37 124.89 106.85 144.80 141.31 C 104.94 141.27 65.07 141.26 25.20 141.31 M 52.30 98.45 C 52.69 101.23 56.44 102.08 58.36 103.87 C 55.11 103.87 51.86 103.88 48.61 103.90 C 48.96 104.43 49.66 105.47 50.01 105.99 C 48.52 112.39 46.86 118.74 45.43 125.14 C 44.73 126.81 46.03 128.78 47.82 128.76 C 51.25 129.03 54.69 128.84 58.13 128.81 C 55.97 131.76 58.26 136.10 62.02 135.58 C 65.56 135.57 67.14 131.60 65.30 128.82 C 66.26 128.82 68.18 128.83 69.14 128.83 C 66.89 131.77 69.29 136.11 73.03 135.58 C 76.60 135.58 78.12 131.57 76.26 128.82 C 82.29 128.89 88.33 128.91 94.36 128.81 C 92.21 131.70 94.38 135.91 98.02 135.59 C 101.60 135.75 103.54 131.67 101.51 128.82 C 102.48 128.82 104.42 128.82 105.40 128.82 C 103.17 131.70 105.41 135.92 109.03 135.59 C 112.62 135.74 114.54 131.64 112.50 128.80 C 115.97 128.84 119.45 129.05 122.91 128.75 C 124.73 128.68 125.87 126.65 125.18 125.00 C 123.70 118.50 122.05 112.05 120.47 105.57 C 120.89 105.16 121.74 104.34 122.17 103.93 C 102.54 103.81 82.91 103.90 63.28 103.89 C 65.62 102.44 67.81 100.75 69.92 98.98 C 67.12 96.50 63.93 94.56 60.85 92.47 C 58.02 94.49 54.96 96.21 52.30 98.45 Z" />
<path fill="#ffc500" opacity="1.00" d=" M 54.29 98.49 C 56.47 96.97 58.67 95.47 60.88 93.98 C 63.03 95.48 65.20 96.95 67.37 98.43 C 65.20 99.98 63.03 101.52 60.85 103.06 C 58.67 101.52 56.49 99.99 54.29 98.49 Z" />
<path fill="#ffc500" opacity="1.00" d=" M 51.80 110.13 C 52.68 110.13 54.45 110.13 55.34 110.13 C 55.34 113.89 55.34 117.64 55.34 121.40 C 52.97 121.40 50.59 121.40 48.22 121.40 C 49.40 117.64 50.60 113.89 51.80 110.13 Z" />
<path fill="#ffc500" opacity="1.00" d=" M 58.13 110.13 C 59.93 110.13 61.73 110.14 63.52 110.14 C 63.51 114.92 63.52 119.70 63.51 124.47 C 61.71 124.46 59.92 124.46 58.13 124.46 C 58.13 119.68 58.13 114.90 58.13 110.13 Z" />
<path fill="#ffc500" opacity="1.00" d=" M 66.17 110.13 C 69.65 110.13 73.13 110.13 76.61 110.13 C 76.62 113.88 76.62 117.64 76.61 121.40 C 73.13 121.40 69.65 121.40 66.17 121.40 C 66.17 117.64 66.17 113.89 66.17 110.13 Z" />
<path fill="#ffc500" opacity="1.00" d=" M 79.54 110.13 C 83.02 110.13 86.50 110.13 89.98 110.13 C 89.99 113.89 89.99 117.64 89.99 121.40 C 86.50 121.40 83.02 121.40 79.54 121.40 C 79.53 117.64 79.53 113.88 79.54 110.13 Z" />
<path fill="#ffc500" opacity="1.00" d=" M 92.79 110.14 C 96.28 110.12 99.77 110.13 103.26 110.16 C 103.24 113.91 103.24 117.65 103.24 121.40 C 99.76 121.40 96.27 121.40 92.79 121.40 C 92.78 117.64 92.79 113.89 92.79 110.14 Z" />
<path fill="#ffc500" opacity="1.00" d=" M 106.53 110.13 C 108.33 110.13 110.12 110.13 111.92 110.13 C 111.92 114.91 111.92 119.69 111.92 124.46 C 110.13 124.46 108.33 124.46 106.53 124.47 C 106.52 119.69 106.52 114.91 106.53 110.13 Z" />
<path fill="#ffc500" opacity="1.00" d=" M 115.67 110.13 C 116.55 110.13 118.32 110.13 119.21 110.13 C 120.41 113.89 121.60 117.64 122.78 121.40 C 120.41 121.40 118.04 121.40 115.67 121.40 C 115.66 117.64 115.66 113.88 115.67 110.13 Z" />
<path fill="#000000" opacity="1.00" d=" M 52.30 98.45 C 54.96 96.21 58.02 94.49 60.85 92.47 C 63.93 94.56 67.12 96.50 69.92 98.98 C 67.81 100.75 65.62 102.44 63.28 103.89 C 82.91 103.90 102.54 103.81 122.17 103.93 C 121.74 104.34 120.89 105.16 120.47 105.57 C 122.05 112.05 123.70 118.50 125.18 125.00 C 125.87 126.65 124.73 128.68 122.91 128.75 C 119.45 129.05 115.97 128.84 112.50 128.80 C 114.54 131.64 112.62 135.74 109.03 135.59 C 105.41 135.92 103.17 131.70 105.40 128.82 C 104.42 128.82 102.48 128.82 101.51 128.82 C 103.54 131.67 101.60 135.75 98.02 135.59 C 94.38 135.91 92.21 131.70 94.36 128.81 C 88.33 128.91 82.29 128.89 76.26 128.82 C 78.12 131.57 76.60 135.58 73.03 135.58 C 69.29 136.11 66.89 131.77 69.14 128.83 C 68.18 128.83 66.26 128.82 65.30 128.82 C 67.14 131.60 65.56 135.57 62.02 135.58 C 58.26 136.10 55.97 131.76 58.13 128.81 C 54.69 128.84 51.25 129.03 47.82 128.76 C 46.03 128.78 44.73 126.81 45.43 125.14 C 46.86 118.74 48.52 112.39 50.01 105.99 C 49.66 105.47 48.96 104.43 48.61 103.90 C 51.86 103.88 55.11 103.87 58.36 103.87 C 56.44 102.08 52.69 101.23 52.30 98.45 M 54.29 98.49 C 56.49 99.99 58.67 101.52 60.85 103.06 C 63.03 101.52 65.20 99.98 67.37 98.43 C 65.20 96.95 63.03 95.48 60.88 93.98 C 58.67 95.47 56.47 96.97 54.29 98.49 M 51.80 110.13 C 50.60 113.89 49.40 117.64 48.22 121.40 C 50.59 121.40 52.97 121.40 55.34 121.40 C 55.34 117.64 55.34 113.89 55.34 110.13 C 54.45 110.13 52.68 110.13 51.80 110.13 M 58.13 110.13 C 58.13 114.90 58.13 119.68 58.13 124.46 C 59.92 124.46 61.71 124.46 63.51 124.47 C 63.52 119.70 63.51 114.92 63.52 110.14 C 61.73 110.14 59.93 110.13 58.13 110.13 M 66.17 110.13 C 66.17 113.89 66.17 117.64 66.17 121.40 C 69.65 121.40 73.13 121.40 76.61 121.40 C 76.62 117.64 76.62 113.88 76.61 110.13 C 73.13 110.13 69.65 110.13 66.17 110.13 M 79.54 110.13 C 79.53 113.88 79.53 117.64 79.54 121.40 C 83.02 121.40 86.50 121.40 89.99 121.40 C 89.99 117.64 89.99 113.89 89.98 110.13 C 86.50 110.13 83.02 110.13 79.54 110.13 M 92.79 110.14 C 92.79 113.89 92.78 117.64 92.79 121.40 C 96.27 121.40 99.76 121.40 103.24 121.40 C 103.24 117.65 103.24 113.91 103.26 110.16 C 99.77 110.13 96.28 110.12 92.79 110.14 M 106.53 110.13 C 106.52 114.91 106.52 119.69 106.53 124.47 C 108.33 124.46 110.13 124.46 111.92 124.46 C 111.92 119.69 111.92 114.91 111.92 110.13 C 110.12 110.13 108.33 110.13 106.53 110.13 M 115.67 110.13 C 115.66 113.88 115.66 117.64 115.67 121.40 C 118.04 121.40 120.41 121.40 122.78 121.40 C 121.60 117.64 120.41 113.89 119.21 110.13 C 118.32 110.13 116.55 110.13 115.67 110.13 Z" />
</g>
</svg>
