<?xml version="1.0" encoding="UTF-8" ?>
<!DOCTYPE svg PUBLIC "-//W3C//DTD SVG 1.1//EN" "http://www.w3.org/Graphics/SVG/1.1/DTD/svg11.dtd">
<svg width="179pt" height="179pt" viewBox="0 0 179 179" version="1.1" xmlns="http://www.w3.org/2000/svg">
<g id="disabled">
<path fill="#707070" opacity="1.00" d=" M 4.98 10.99 C 6.20 6.76 10.60 3.67 14.99 3.98 C 65.67 4.03 116.35 3.98 167.03 4.01 C 170.09 4.09 173.38 5.84 174.36 8.90 C 174.32 61.30 174.41 113.71 174.39 166.10 C 173.93 169.69 170.55 172.19 167.30 173.14 C 117.88 173.40 68.45 173.16 19.03 173.26 C 16.63 173.26 14.22 173.28 11.82 173.10 C 8.50 172.09 5.51 169.40 4.77 165.93 C 4.61 160.62 4.61 155.29 5.10 150.00 C 5.11 107.66 5.10 65.32 5.11 22.98 C 4.93 18.99 4.39 14.97 4.98 10.99 M 8.39 9.21 C 7.87 10.77 7.21 12.32 7.29 14.00 C 7.28 62.00 7.30 110.01 7.28 158.02 C 7.33 160.84 7.08 163.69 7.58 166.49 C 8.81 168.81 11.14 171.00 13.95 170.80 C 63.97 170.84 113.99 170.79 164.02 170.83 C 167.82 171.21 172.49 168.34 171.86 164.08 C 171.85 113.69 171.81 63.29 171.71 12.89 C 172.04 9.81 169.06 7.04 166.08 7.06 C 156.73 6.78 147.37 7.36 138.04 6.67 C 99.68 6.66 61.32 6.32 22.95 6.44 C 18.06 6.57 12.33 5.59 8.39 9.21 Z" />
<path fill="#707070" opacity="1.00" d=" M 13.42 9.00 C 64.47 9.01 115.52 8.99 166.57 9.00 C 167.37 9.75 168.17 10.49 168.97 11.23 C 169.20 14.83 169.26 18.44 169.19 22.04 C 169.09 69.91 169.17 117.77 169.00 165.64 C 168.19 166.42 167.39 167.21 166.59 168.00 C 115.73 167.98 64.87 168.04 14.01 167.97 C 12.18 168.32 10.45 166.50 10.03 164.95 C 9.96 114.08 10.04 63.21 9.99 12.34 C 11.14 11.23 12.28 10.12 13.42 9.00 M 100.84 19.62 C 97.20 22.85 96.56 29.61 101.90 31.42 C 100.57 31.41 99.24 31.41 97.92 31.42 C 94.05 33.70 90.67 36.67 87.74 40.06 C 88.88 43.45 90.18 46.80 90.82 50.33 C 89.28 50.21 87.00 51.84 86.00 50.03 C 83.74 46.66 81.62 43.18 79.04 40.04 C 81.11 38.02 83.54 34.95 81.68 32.00 C 80.15 28.36 74.25 28.86 73.17 32.58 C 71.80 35.05 73.70 37.48 74.83 39.61 C 68.29 39.17 61.98 43.50 60.51 49.94 C 60.19 52.82 60.11 55.72 59.57 58.57 C 60.83 58.94 62.11 59.14 63.42 59.18 C 64.38 56.63 62.53 53.62 64.37 51.33 C 65.36 49.24 67.34 48.04 69.31 47.03 C 69.29 48.06 69.29 49.09 69.31 50.13 C 68.46 52.37 67.74 54.65 66.87 56.88 C 64.24 61.77 58.56 63.17 53.85 65.24 C 54.40 68.47 55.10 71.66 55.97 74.82 C 56.25 74.39 56.79 73.53 57.07 73.10 C 57.28 71.70 57.49 70.29 57.70 68.89 C 58.78 68.55 59.85 68.20 60.92 67.84 C 63.35 67.02 65.84 66.35 68.14 65.21 C 70.40 63.82 71.82 61.50 73.46 59.50 C 76.75 65.36 78.49 71.97 79.75 78.52 C 83.00 77.39 86.48 76.25 89.69 78.17 C 89.43 75.96 88.99 73.78 88.60 71.59 C 91.93 68.27 95.96 65.67 99.09 62.10 C 101.33 59.18 105.33 60.27 108.52 59.72 C 109.20 62.14 109.49 64.63 109.68 67.13 C 111.00 70.06 112.83 72.74 113.97 75.76 C 114.15 76.50 114.52 77.97 114.71 78.70 C 117.66 77.85 121.42 78.22 123.57 75.73 C 121.55 75.43 119.52 75.20 117.59 74.54 C 117.10 72.68 116.58 70.83 116.09 68.98 C 115.11 65.55 114.30 62.08 113.34 58.66 C 113.97 58.50 115.25 58.19 115.89 58.03 C 113.27 53.30 111.10 48.35 109.69 43.12 C 113.31 48.09 118.19 53.00 124.56 53.85 C 124.69 52.80 124.73 51.76 124.67 50.72 C 121.00 48.76 117.62 46.27 115.17 42.87 C 114.68 41.95 114.22 41.01 113.78 40.07 C 113.17 38.71 112.58 37.35 111.98 35.99 C 110.90 33.39 108.53 31.97 106.01 31.00 C 106.81 30.33 107.62 29.67 108.44 29.01 C 108.66 26.11 108.98 22.68 106.56 20.56 C 105.08 18.95 102.75 19.69 100.84 19.62 M 27.47 91.52 C 24.09 94.30 24.27 99.08 24.81 103.01 C 26.09 105.13 27.73 106.99 29.78 108.39 C 32.82 108.68 35.90 108.69 38.91 108.14 C 40.63 106.49 41.96 104.52 42.77 102.28 C 41.16 101.82 39.55 101.39 37.94 100.96 C 36.83 102.62 35.66 105.10 33.20 104.41 C 29.87 103.74 30.13 99.46 30.50 96.86 C 30.71 95.04 32.56 94.31 33.86 93.37 C 34.69 93.78 35.52 94.19 36.35 94.60 C 36.65 95.04 37.24 95.94 37.54 96.39 C 39.27 95.94 41.02 95.53 42.76 95.12 C 41.44 92.80 39.67 90.81 37.28 89.56 C 33.93 89.50 30.15 89.05 27.47 91.52 M 50.63 89.65 C 49.71 91.74 48.91 93.88 48.11 96.02 C 46.53 100.14 45.08 104.32 43.42 108.41 C 45.40 108.43 47.38 108.43 49.36 108.45 C 49.50 107.71 49.78 106.22 49.91 105.48 C 52.27 105.40 54.62 105.37 56.98 105.43 C 57.15 106.19 57.50 107.70 57.68 108.45 C 59.70 108.45 61.72 108.43 63.74 108.42 C 61.36 102.13 59.16 95.77 56.50 89.60 C 54.54 89.65 52.58 89.65 50.63 89.65 M 84.81 89.68 C 84.77 91.26 84.73 92.85 84.68 94.44 C 86.64 94.40 88.61 94.35 90.57 94.35 C 90.60 99.04 90.58 103.73 90.61 108.42 C 92.52 108.43 94.44 108.45 96.35 108.46 C 96.41 103.77 96.38 99.08 96.39 94.39 C 98.37 94.38 100.35 94.38 102.33 94.36 C 102.30 92.79 102.28 91.23 102.26 89.66 C 96.44 89.66 90.62 89.64 84.81 89.68 M 104.88 89.68 C 104.86 95.92 104.87 102.17 104.87 108.41 C 106.96 108.43 109.06 108.42 111.15 108.35 C 111.13 102.14 111.17 95.92 111.13 89.71 C 109.05 89.67 106.96 89.66 104.88 89.68 M 114.87 94.66 L 114.60 94.37 C 114.23 98.47 113.69 103.01 116.64 106.36 C 119.79 108.87 124.04 109.17 127.83 108.18 C 130.69 107.32 132.22 104.64 133.43 102.12 C 134.04 97.42 132.87 91.81 127.98 89.89 C 123.11 88.68 117.16 89.64 114.87 94.66 M 136.54 89.65 C 136.43 95.92 136.47 102.19 136.51 108.46 C 138.39 108.44 140.26 108.41 142.14 108.37 C 142.13 105.18 142.12 101.98 142.17 98.79 C 144.54 101.94 146.71 105.23 148.95 108.46 C 150.75 108.44 152.56 108.42 154.37 108.39 C 154.39 102.15 154.42 95.91 154.34 89.67 C 152.50 89.67 150.66 89.66 148.83 89.66 C 148.82 93.09 148.84 96.53 148.77 99.96 C 146.46 96.50 144.08 93.09 141.75 89.65 C 140.01 89.65 138.27 89.65 136.54 89.65 M 76.67 89.65 C 76.50 93.87 76.88 98.11 76.45 102.32 C 76.26 104.05 74.12 104.25 72.76 104.56 C 72.20 104.19 71.09 103.45 70.53 103.08 C 70.24 98.78 70.37 94.48 70.37 90.18 C 68.44 90.16 66.51 90.16 64.58 90.16 C 64.61 94.43 64.50 98.71 64.70 102.99 C 64.92 103.56 65.37 104.72 65.59 105.29 C 67.00 106.88 68.71 108.53 70.99 108.52 C 74.64 108.88 79.33 109.00 81.32 105.25 C 83.56 100.40 82.01 94.82 82.42 89.67 C 80.50 89.66 78.58 89.66 76.67 89.65 M 16.86 120.72 C 15.82 124.62 16.15 129.01 18.66 132.31 C 21.63 134.87 25.75 134.93 29.42 134.23 C 32.04 133.20 33.51 130.68 34.32 128.12 C 32.75 127.72 31.20 127.24 29.64 126.77 C 28.38 128.78 26.53 131.76 23.75 130.00 C 21.08 127.71 22.59 123.61 22.60 120.56 C 25.04 119.91 27.96 119.59 29.33 122.24 C 30.94 121.89 32.55 121.54 34.17 121.17 C 31.93 113.40 19.66 113.47 16.86 120.72 M 58.78 115.64 C 58.75 121.88 58.76 128.12 58.77 134.36 C 60.69 134.37 62.61 134.38 64.53 134.39 C 64.58 128.13 64.60 121.87 64.51 115.61 C 62.60 115.62 60.69 115.63 58.78 115.64 M 85.77 115.67 C 85.77 121.89 85.75 128.11 85.78 134.33 C 89.46 134.28 93.18 134.67 96.84 134.13 C 104.10 132.77 104.85 122.27 100.44 117.61 C 96.32 114.31 90.61 116.02 85.77 115.67 M 157.44 115.53 C 157.01 118.89 157.46 122.28 157.32 125.65 C 154.73 122.44 152.45 119.01 150.13 115.61 C 148.36 115.62 146.59 115.63 144.82 115.64 C 144.79 121.88 144.82 128.13 144.80 134.37 C 146.64 134.37 148.48 134.36 150.33 134.36 C 150.34 130.97 150.34 127.59 150.50 124.20 C 152.59 127.65 155.03 130.86 157.09 134.32 C 158.92 134.35 160.76 134.37 162.59 134.37 C 162.44 128.13 162.59 121.89 162.49 115.64 C 160.81 115.62 159.12 115.59 157.44 115.53 M 36.86 115.68 C 36.86 121.89 36.85 128.11 36.86 134.32 C 38.77 134.36 40.69 134.38 42.61 134.40 C 42.65 131.86 42.67 129.31 42.68 126.77 C 44.56 126.77 46.45 126.66 48.32 126.85 C 50.21 128.74 48.75 131.98 49.26 134.39 C 51.07 134.38 52.89 134.38 54.71 134.39 C 54.79 128.12 54.82 121.86 54.69 115.59 C 52.73 115.62 50.78 115.64 48.83 115.68 C 48.82 117.87 48.82 120.06 48.80 122.26 C 46.76 122.24 44.72 122.23 42.67 122.22 C 42.66 120.01 42.64 117.80 42.59 115.59 C 40.68 115.61 38.77 115.64 36.86 115.68 M 68.57 115.65 C 68.50 121.89 68.52 128.13 68.56 134.37 C 73.49 134.37 78.43 134.38 83.36 134.36 C 83.37 132.80 83.38 131.24 83.40 129.68 C 80.38 129.66 77.37 129.65 74.35 129.67 C 74.35 124.98 74.37 120.30 74.32 115.62 C 72.40 115.62 70.49 115.64 68.57 115.65 M 106.30 115.61 C 106.20 121.87 106.20 128.13 106.29 134.39 C 108.07 134.38 109.86 134.38 111.64 134.38 C 111.68 132.10 111.69 129.82 111.64 127.54 C 112.00 127.26 112.70 126.71 113.06 126.44 C 115.02 128.95 116.44 131.81 118.20 134.47 C 120.19 134.41 122.18 134.36 124.17 134.31 C 122.90 131.39 121.59 128.37 119.19 126.17 C 120.99 124.96 123.11 123.46 122.80 120.97 C 123.14 118.14 120.67 116.35 118.28 115.61 C 114.28 115.65 110.29 115.61 106.30 115.61 M 126.19 116.26 C 126.27 122.30 126.15 128.34 126.27 134.39 C 131.38 134.37 136.48 134.37 141.59 134.39 C 141.61 133.36 141.65 131.30 141.68 130.26 C 138.60 130.24 135.52 130.21 132.44 130.36 C 132.13 129.09 131.79 127.84 131.47 126.57 C 134.52 126.48 137.58 126.50 140.64 126.51 C 140.65 125.55 140.67 123.61 140.68 122.64 C 137.57 122.67 134.46 122.70 131.35 122.51 C 131.69 121.56 132.01 120.61 132.45 119.70 C 135.48 119.53 138.52 119.69 141.55 119.63 C 141.50 118.66 141.38 116.72 141.33 115.75 C 138.45 115.52 135.57 115.63 132.69 115.61 C 130.51 115.69 128.34 115.91 126.19 116.26 M 48.44 141.58 C 48.43 143.15 48.43 144.72 48.42 146.30 C 50.38 146.29 52.34 146.29 54.30 146.30 C 54.29 150.97 54.27 155.64 54.32 160.31 C 56.27 160.30 58.23 160.29 60.18 160.27 C 60.20 155.62 60.15 150.96 60.24 146.31 C 62.25 146.27 64.37 146.53 66.23 145.57 L 66.30 145.97 C 66.23 144.54 66.17 143.11 66.11 141.68 C 60.22 141.51 54.33 141.65 48.44 141.58 M 118.31 141.69 C 117.27 143.34 116.77 145.26 116.09 147.07 C 115.46 148.77 114.82 150.47 114.20 152.17 C 113.12 154.86 112.28 157.63 111.30 160.35 C 113.27 160.31 115.24 160.29 117.21 160.26 C 117.32 159.54 117.52 158.11 117.63 157.39 C 119.89 157.33 122.16 157.31 124.42 157.30 C 124.79 158.32 125.15 159.34 125.50 160.36 C 127.45 160.08 129.85 160.89 131.54 159.77 C 128.80 153.88 126.78 147.62 124.35 141.58 C 122.33 141.59 120.31 141.51 118.31 141.69 M 36.66 141.54 C 34.19 147.74 32.02 154.06 29.47 160.23 C 31.48 160.26 33.49 160.33 35.50 160.35 C 35.62 159.62 35.86 158.16 35.98 157.43 C 38.34 157.34 40.72 157.16 43.06 157.56 C 43.25 158.24 43.63 159.61 43.82 160.29 C 45.77 160.30 47.73 160.29 49.69 160.29 C 48.55 157.08 47.33 153.89 46.19 150.68 C 44.99 147.77 44.02 144.78 42.92 141.83 C 40.85 141.50 38.74 141.58 36.66 141.54 M 77.13 141.59 C 77.08 147.83 77.07 154.08 77.16 160.32 C 79.02 160.31 80.88 160.30 82.75 160.31 C 82.79 158.04 82.80 155.77 82.81 153.51 C 86.38 153.73 90.32 153.47 92.58 150.28 C 92.59 148.19 92.53 146.09 92.40 144.00 C 88.20 140.19 82.25 141.99 77.13 141.59 M 95.67 141.63 C 95.66 147.85 95.66 154.07 95.68 160.29 C 100.41 160.31 105.15 160.29 109.88 160.31 C 109.90 158.73 109.92 157.16 109.93 155.58 C 107.12 155.59 104.30 155.59 101.49 155.58 C 101.49 150.91 101.52 146.24 101.45 141.57 C 99.53 141.59 97.60 141.61 95.67 141.63 M 129.15 141.60 C 131.52 145.30 133.98 148.94 136.39 152.62 C 136.36 155.18 136.37 157.73 136.40 160.29 C 138.21 160.30 140.02 160.31 141.83 160.33 C 142.09 158.19 142.21 156.05 141.86 153.92 C 143.31 149.30 146.94 145.83 149.21 141.63 C 147.12 141.60 145.04 141.60 142.96 141.61 C 141.71 143.74 140.39 145.82 139.01 147.86 C 137.82 145.73 136.85 143.41 135.09 141.66 C 133.11 141.51 131.13 141.60 129.15 141.60 Z" />
<path fill="#707070" opacity="1.00" d=" M 93.11 40.76 C 94.95 39.83 96.80 38.93 98.67 38.06 C 98.74 44.24 97.45 50.44 94.61 55.95 C 94.85 56.70 96.89 57.77 95.41 58.31 C 90.86 61.07 87.83 65.56 85.00 69.92 C 84.78 72.36 86.42 74.39 87.22 76.57 C 85.86 75.28 83.68 74.22 83.72 72.07 C 83.07 64.46 79.96 57.29 79.57 49.67 C 81.11 51.20 82.54 52.84 83.92 54.52 C 87.47 54.69 90.74 53.13 94.07 52.15 C 94.42 51.69 95.12 50.77 95.47 50.31 C 95.40 49.53 95.33 48.74 95.25 47.95 C 94.01 45.74 93.27 43.30 93.11 40.76 Z" />
<path fill="#707070" opacity="1.00" d=" M 53.32 94.72 C 54.13 96.91 54.88 99.12 55.60 101.34 C 54.23 101.33 52.85 101.32 51.48 101.31 C 52.16 99.13 52.76 96.93 53.32 94.72 Z" />
<path fill="#707070" opacity="1.00" d=" M 120.86 94.97 C 122.32 93.59 124.52 94.44 126.30 94.22 C 127.83 96.96 128.52 100.82 126.49 103.47 C 124.82 105.24 122.38 104.23 120.59 103.27 C 120.01 100.51 119.39 97.57 120.86 94.97 Z" />
<path fill="#707070" opacity="1.00" d=" M 111.57 119.53 C 112.88 119.52 114.18 119.50 115.49 119.49 C 116.23 120.05 116.97 120.61 117.70 121.17 C 116.50 122.82 114.62 123.64 112.60 123.28 C 111.15 122.60 111.83 120.79 111.57 119.53 Z" />
<path fill="#707070" opacity="1.00" d=" M 91.59 120.06 C 93.16 120.16 94.73 120.30 96.30 120.49 C 97.17 123.33 98.06 126.66 96.20 129.31 C 94.77 130.38 93.05 130.42 91.49 129.62 C 91.63 126.43 91.60 123.24 91.59 120.06 Z" />
<path fill="#707070" opacity="1.00" d=" M 82.82 145.24 C 84.54 145.47 86.22 145.96 87.79 146.72 C 87.04 149.01 85.17 149.98 82.80 149.74 C 82.80 148.24 82.80 146.74 82.82 145.24 Z" />
<path fill="#707070" opacity="1.00" d=" M 39.87 146.90 C 40.44 149.04 41.02 151.18 41.63 153.32 C 40.26 153.30 38.90 153.29 37.54 153.27 C 38.25 151.12 39.01 148.99 39.87 146.90 Z" />
<path fill="#707070" opacity="1.00" d=" M 119.22 153.30 C 119.80 151.11 120.44 148.93 121.17 146.78 C 121.94 148.91 122.59 151.09 123.01 153.33 C 121.75 153.31 120.48 153.31 119.22 153.30 Z" />
<path fill="#000000" opacity="1.00" d=" M 8.39 9.21 C 12.33 5.59 18.06 6.57 22.95 6.44 C 61.32 6.32 99.68 6.66 138.04 6.67 C 147.37 7.36 156.73 6.78 166.08 7.06 C 169.06 7.04 172.04 9.81 171.71 12.89 C 171.81 63.29 171.85 113.69 171.86 164.08 C 172.49 168.34 167.82 171.21 164.02 170.83 C 113.99 170.79 63.97 170.84 13.95 170.80 C 11.14 171.00 8.81 168.81 7.58 166.49 C 7.08 163.69 7.33 160.84 7.28 158.02 C 7.30 110.01 7.28 62.00 7.29 14.00 C 7.21 12.32 7.87 10.77 8.39 9.21 M 13.42 9.00 C 12.28 10.12 11.14 11.23 9.99 12.34 C 10.04 63.21 9.96 114.08 10.03 164.95 C 10.45 166.50 12.18 168.32 14.01 167.97 C 64.87 168.04 115.73 167.98 166.59 168.00 C 167.39 167.21 168.19 166.42 169.00 165.64 C 169.17 117.77 169.09 69.91 169.19 22.04 C 169.26 18.44 169.20 14.83 168.97 11.23 C 168.17 10.49 167.37 9.75 166.57 9.00 C 115.52 8.99 64.47 9.01 13.42 9.00 Z" />
<path fill="#000000" opacity="1.00" d=" M 100.84 19.62 C 102.75 19.69 105.08 18.95 106.56 20.56 C 108.98 22.68 108.66 26.11 108.44 29.01 C 107.62 29.67 106.81 30.33 106.01 31.00 C 108.53 31.97 110.90 33.39 111.98 35.99 C 112.58 37.35 113.17 38.71 113.78 40.07 C 114.22 41.01 114.68 41.95 115.17 42.87 C 117.62 46.27 121.00 48.76 124.67 50.72 C 124.73 51.76 124.69 52.80 124.56 53.85 C 118.19 53.00 113.31 48.09 109.69 43.12 C 111.10 48.35 113.27 53.30 115.89 58.03 C 115.25 58.19 113.97 58.50 113.34 58.66 C 114.30 62.08 115.11 65.55 116.09 68.98 C 116.58 70.83 117.10 72.68 117.59 74.54 C 119.52 75.20 121.55 75.43 123.57 75.73 C 121.42 78.22 117.66 77.85 114.71 78.70 C 114.52 77.97 114.15 76.50 113.97 75.76 C 112.83 72.74 111.00 70.06 109.68 67.13 C 109.49 64.63 109.20 62.14 108.52 59.72 C 105.33 60.27 101.33 59.18 99.09 62.10 C 95.96 65.67 91.93 68.27 88.60 71.59 C 88.99 73.78 89.43 75.96 89.69 78.17 C 86.48 76.25 83.00 77.39 79.75 78.52 C 78.49 71.97 76.75 65.36 73.46 59.50 C 71.82 61.50 70.40 63.82 68.14 65.21 C 65.84 66.35 63.35 67.02 60.92 67.84 C 59.85 68.20 58.78 68.55 57.70 68.89 C 57.49 70.29 57.28 71.70 57.07 73.10 C 56.79 73.53 56.25 74.39 55.97 74.82 C 55.10 71.66 54.40 68.47 53.85 65.24 C 58.56 63.17 64.24 61.77 66.87 56.88 C 67.74 54.65 68.46 52.37 69.31 50.13 C 69.29 49.09 69.29 48.06 69.31 47.03 C 67.34 48.04 65.36 49.24 64.37 51.33 C 62.53 53.62 64.38 56.63 63.42 59.18 C 62.11 59.14 60.83 58.94 59.57 58.57 C 60.11 55.72 60.19 52.82 60.51 49.94 C 61.98 43.50 68.29 39.17 74.83 39.61 C 73.70 37.48 71.80 35.05 73.17 32.58 C 74.25 28.86 80.15 28.36 81.68 32.00 C 83.54 34.95 81.11 38.02 79.04 40.04 C 81.62 43.18 83.74 46.66 86.00 50.03 C 87.00 51.84 89.28 50.21 90.82 50.33 C 90.18 46.80 88.88 43.45 87.74 40.06 C 90.67 36.67 94.05 33.70 97.92 31.42 C 99.24 31.41 100.57 31.41 101.90 31.42 C 96.56 29.61 97.20 22.85 100.84 19.62 M 93.11 40.76 C 93.27 43.30 94.01 45.74 95.25 47.95 C 95.33 48.74 95.40 49.53 95.47 50.31 C 95.12 50.77 94.42 51.69 94.07 52.15 C 90.74 53.13 87.47 54.69 83.92 54.52 C 82.54 52.84 81.11 51.20 79.57 49.67 C 79.96 57.29 83.07 64.46 83.72 72.07 C 83.68 74.22 85.86 75.28 87.22 76.57 C 86.42 74.39 84.78 72.36 85.00 69.92 C 87.83 65.56 90.86 61.07 95.41 58.31 C 96.89 57.77 94.85 56.70 94.61 55.95 C 97.45 50.44 98.74 44.24 98.67 38.06 C 96.80 38.93 94.95 39.83 93.11 40.76 Z" />
<path fill="#000000" opacity="1.00" d=" M 27.47 91.52 C 30.15 89.05 33.93 89.50 37.28 89.56 C 39.67 90.81 41.44 92.80 42.76 95.12 C 41.02 95.53 39.27 95.94 37.54 96.39 C 37.24 95.94 36.65 95.04 36.35 94.60 C 35.52 94.19 34.69 93.78 33.86 93.37 C 32.56 94.31 30.71 95.04 30.50 96.86 C 30.13 99.46 29.87 103.74 33.20 104.41 C 35.66 105.10 36.83 102.62 37.94 100.96 C 39.55 101.39 41.16 101.82 42.77 102.28 C 41.96 104.52 40.63 106.49 38.91 108.14 C 35.90 108.69 32.82 108.68 29.78 108.39 C 27.73 106.99 26.09 105.13 24.81 103.01 C 24.27 99.08 24.09 94.30 27.47 91.52 Z" />
<path fill="#000000" opacity="1.00" d=" M 50.63 89.65 C 52.58 89.65 54.54 89.65 56.50 89.60 C 59.16 95.77 61.36 102.13 63.74 108.42 C 61.72 108.43 59.70 108.45 57.68 108.45 C 57.50 107.70 57.15 106.19 56.98 105.43 C 54.62 105.37 52.27 105.40 49.91 105.48 C 49.78 106.22 49.50 107.71 49.36 108.45 C 47.38 108.43 45.40 108.43 43.42 108.41 C 45.08 104.32 46.53 100.14 48.11 96.02 C 48.91 93.88 49.71 91.74 50.63 89.65 M 53.32 94.72 C 52.76 96.93 52.16 99.13 51.48 101.31 C 52.85 101.32 54.23 101.33 55.60 101.34 C 54.88 99.12 54.13 96.91 53.32 94.72 Z" />
<path fill="#000000" opacity="1.00" d=" M 84.81 89.68 C 90.62 89.64 96.44 89.66 102.26 89.66 C 102.28 91.23 102.30 92.79 102.33 94.36 C 100.35 94.38 98.37 94.38 96.39 94.39 C 96.38 99.08 96.41 103.77 96.35 108.46 C 94.44 108.45 92.52 108.43 90.61 108.42 C 90.58 103.73 90.60 99.04 90.57 94.35 C 88.61 94.35 86.64 94.40 84.68 94.44 C 84.73 92.85 84.77 91.26 84.81 89.68 Z" />
<path fill="#000000" opacity="1.00" d=" M 104.88 89.68 C 106.96 89.66 109.05 89.67 111.13 89.71 C 111.17 95.92 111.13 102.14 111.15 108.35 C 109.06 108.42 106.96 108.43 104.87 108.41 C 104.87 102.17 104.86 95.92 104.88 89.68 Z" />
<path fill="#000000" opacity="1.00" d=" M 114.87 94.66 C 117.16 89.64 123.11 88.68 127.98 89.89 C 132.87 91.81 134.04 97.42 133.43 102.12 C 132.22 104.64 130.69 107.32 127.83 108.18 C 124.04 109.17 119.79 108.87 116.64 106.36 C 113.69 103.01 114.23 98.47 114.60 94.37 L 114.87 94.66 M 120.86 94.97 C 119.39 97.57 120.01 100.51 120.59 103.27 C 122.38 104.23 124.82 105.24 126.49 103.47 C 128.52 100.82 127.83 96.96 126.30 94.22 C 124.52 94.44 122.32 93.59 120.86 94.97 Z" />
<path fill="#000000" opacity="1.00" d=" M 136.54 89.65 C 138.27 89.65 140.01 89.65 141.75 89.65 C 144.08 93.09 146.46 96.50 148.77 99.96 C 148.84 96.53 148.82 93.09 148.83 89.66 C 150.66 89.66 152.50 89.67 154.34 89.67 C 154.42 95.91 154.39 102.15 154.37 108.39 C 152.56 108.42 150.75 108.44 148.95 108.46 C 146.71 105.23 144.54 101.94 142.17 98.79 C 142.12 101.98 142.13 105.18 142.14 108.37 C 140.26 108.41 138.39 108.44 136.51 108.46 C 136.47 102.19 136.43 95.92 136.54 89.65 Z" />
<path fill="#000000" opacity="1.00" d=" M 76.67 89.65 C 78.58 89.66 80.50 89.66 82.42 89.67 C 82.01 94.82 83.56 100.40 81.32 105.25 C 79.33 109.00 74.64 108.88 70.99 108.52 C 68.71 108.53 67.00 106.88 65.59 105.29 C 65.37 104.72 64.92 103.56 64.70 102.99 C 64.50 98.71 64.61 94.43 64.58 90.16 C 66.51 90.16 68.44 90.16 70.37 90.18 C 70.37 94.48 70.24 98.78 70.53 103.08 C 71.09 103.45 72.20 104.19 72.76 104.56 C 74.12 104.25 76.26 104.05 76.45 102.32 C 76.88 98.11 76.50 93.87 76.67 89.65 Z" />
<path fill="#000000" opacity="1.00" d=" M 16.86 120.72 C 19.66 113.47 31.93 113.40 34.17 121.17 C 32.55 121.54 30.94 121.89 29.33 122.24 C 27.96 119.59 25.04 119.91 22.60 120.56 C 22.59 123.61 21.08 127.71 23.75 130.00 C 26.53 131.76 28.38 128.78 29.64 126.77 C 31.20 127.24 32.75 127.72 34.32 128.12 C 33.51 130.68 32.04 133.20 29.42 134.23 C 25.75 134.93 21.63 134.87 18.66 132.31 C 16.15 129.01 15.82 124.62 16.86 120.72 Z" />
<path fill="#000000" opacity="1.00" d=" M 58.78 115.64 C 60.69 115.63 62.60 115.62 64.51 115.61 C 64.60 121.87 64.58 128.13 64.53 134.39 C 62.61 134.38 60.69 134.37 58.77 134.36 C 58.76 128.12 58.75 121.88 58.78 115.64 Z" />
<path fill="#000000" opacity="1.00" d=" M 85.77 115.67 C 90.61 116.02 96.32 114.31 100.44 117.61 C 104.85 122.27 104.10 132.77 96.84 134.13 C 93.18 134.67 89.46 134.28 85.78 134.33 C 85.75 128.11 85.77 121.89 85.77 115.67 M 91.59 120.06 C 91.60 123.24 91.63 126.43 91.49 129.62 C 93.05 130.42 94.77 130.38 96.20 129.31 C 98.06 126.66 97.17 123.33 96.30 120.49 C 94.73 120.30 93.16 120.16 91.59 120.06 Z" />
<path fill="#000000" opacity="1.00" d=" M 157.44 115.53 C 159.12 115.59 160.81 115.62 162.49 115.64 C 162.59 121.89 162.44 128.13 162.59 134.37 C 160.76 134.37 158.92 134.35 157.09 134.32 C 155.03 130.86 152.59 127.65 150.50 124.20 C 150.34 127.59 150.34 130.97 150.33 134.36 C 148.48 134.36 146.64 134.37 144.80 134.37 C 144.82 128.13 144.79 121.88 144.82 115.64 C 146.59 115.63 148.36 115.62 150.13 115.61 C 152.45 119.01 154.73 122.44 157.32 125.65 C 157.46 122.28 157.01 118.89 157.44 115.53 Z" />
<path fill="#000000" opacity="1.00" d=" M 36.86 115.68 C 38.77 115.64 40.68 115.61 42.59 115.59 C 42.64 117.80 42.66 120.01 42.67 122.22 C 44.72 122.23 46.76 122.24 48.80 122.26 C 48.82 120.06 48.82 117.87 48.83 115.68 C 50.78 115.64 52.73 115.62 54.69 115.59 C 54.82 121.86 54.79 128.12 54.71 134.39 C 52.89 134.38 51.07 134.38 49.26 134.39 C 48.75 131.98 50.21 128.74 48.32 126.85 C 46.45 126.66 44.56 126.77 42.68 126.77 C 42.67 129.31 42.65 131.86 42.61 134.40 C 40.69 134.38 38.77 134.36 36.86 134.32 C 36.85 128.11 36.86 121.89 36.86 115.68 Z" />
<path fill="#000000" opacity="1.00" d=" M 68.57 115.65 C 70.49 115.64 72.40 115.62 74.32 115.62 C 74.37 120.30 74.35 124.98 74.35 129.67 C 77.37 129.65 80.38 129.66 83.40 129.68 C 83.38 131.24 83.37 132.80 83.36 134.36 C 78.43 134.38 73.49 134.37 68.56 134.37 C 68.52 128.13 68.50 121.89 68.57 115.65 Z" />
<path fill="#000000" opacity="1.00" d=" M 106.30 115.61 C 110.29 115.61 114.28 115.65 118.28 115.61 C 120.67 116.35 123.14 118.14 122.80 120.97 C 123.11 123.46 120.99 124.96 119.19 126.17 C 121.59 128.37 122.90 131.39 124.17 134.31 C 122.18 134.36 120.19 134.41 118.20 134.47 C 116.44 131.81 115.02 128.95 113.06 126.44 C 112.70 126.71 112.00 127.26 111.64 127.54 C 111.69 129.82 111.68 132.10 111.64 134.38 C 109.86 134.38 108.07 134.38 106.29 134.39 C 106.20 128.13 106.20 121.87 106.30 115.61 M 111.57 119.53 C 111.83 120.79 111.15 122.60 112.60 123.28 C 114.62 123.64 116.50 122.82 117.70 121.17 C 116.97 120.61 116.23 120.05 115.49 119.49 C 114.18 119.50 112.88 119.52 111.57 119.53 Z" />
<path fill="#000000" opacity="1.00" d=" M 126.19 116.26 C 128.34 115.91 130.51 115.69 132.69 115.61 C 135.57 115.63 138.45 115.52 141.33 115.75 C 141.38 116.72 141.50 118.66 141.55 119.63 C 138.52 119.69 135.48 119.53 132.45 119.70 C 132.01 120.61 131.69 121.56 131.35 122.51 C 134.46 122.70 137.57 122.67 140.68 122.64 C 140.67 123.61 140.65 125.55 140.64 126.51 C 137.58 126.50 134.52 126.48 131.47 126.57 C 131.79 127.84 132.13 129.09 132.44 130.36 C 135.52 130.21 138.60 130.24 141.68 130.26 C 141.65 131.30 141.61 133.36 141.59 134.39 C 136.48 134.37 131.38 134.37 126.27 134.39 C 126.15 128.34 126.27 122.30 126.19 116.26 Z" />
<path fill="#000000" opacity="1.00" d=" M 48.44 141.58 C 54.33 141.65 60.22 141.51 66.11 141.68 C 66.17 143.11 66.23 144.54 66.30 145.97 L 66.23 145.57 C 64.37 146.53 62.25 146.27 60.24 146.31 C 60.15 150.96 60.20 155.62 60.18 160.27 C 58.23 160.29 56.27 160.30 54.32 160.31 C 54.27 155.64 54.29 150.97 54.30 146.30 C 52.34 146.29 50.38 146.29 48.42 146.30 C 48.43 144.72 48.43 143.15 48.44 141.58 Z" />
<path fill="#000000" opacity="1.00" d=" M 118.31 141.69 C 120.31 141.51 122.33 141.59 124.35 141.58 C 126.78 147.62 128.80 153.88 131.54 159.77 C 129.85 160.89 127.45 160.08 125.50 160.36 C 125.15 159.34 124.79 158.32 124.42 157.30 C 122.16 157.31 119.89 157.33 117.63 157.39 C 117.52 158.11 117.32 159.54 117.21 160.26 C 115.24 160.29 113.27 160.31 111.30 160.35 C 112.28 157.63 113.12 154.86 114.20 152.17 C 114.82 150.47 115.46 148.77 116.09 147.07 C 116.77 145.26 117.27 143.34 118.31 141.69 M 119.22 153.30 C 120.48 153.31 121.75 153.31 123.01 153.33 C 122.59 151.09 121.94 148.91 121.17 146.78 C 120.44 148.93 119.80 151.11 119.22 153.30 Z" />
<path fill="#000000" opacity="1.00" d=" M 36.66 141.54 C 38.74 141.58 40.85 141.50 42.92 141.83 C 44.02 144.78 44.99 147.77 46.19 150.68 C 47.33 153.89 48.55 157.08 49.69 160.29 C 47.73 160.29 45.77 160.30 43.82 160.29 C 43.63 159.61 43.25 158.24 43.06 157.56 C 40.72 157.16 38.34 157.34 35.98 157.43 C 35.86 158.16 35.62 159.62 35.50 160.35 C 33.49 160.33 31.48 160.26 29.47 160.23 C 32.02 154.06 34.19 147.74 36.66 141.54 M 39.87 146.90 C 39.01 148.99 38.25 151.12 37.54 153.27 C 38.90 153.29 40.26 153.30 41.63 153.32 C 41.02 151.18 40.44 149.04 39.87 146.90 Z" />
<path fill="#000000" opacity="1.00" d=" M 77.13 141.59 C 82.25 141.99 88.20 140.19 92.40 144.00 C 92.53 146.09 92.59 148.19 92.58 150.28 C 90.32 153.47 86.38 153.73 82.81 153.51 C 82.80 155.77 82.79 158.04 82.75 160.31 C 80.88 160.30 79.02 160.31 77.16 160.32 C 77.07 154.08 77.08 147.83 77.13 141.59 M 82.82 145.24 C 82.80 146.74 82.80 148.24 82.80 149.74 C 85.17 149.98 87.04 149.01 87.79 146.72 C 86.22 145.96 84.54 145.47 82.82 145.24 Z" />
<path fill="#000000" opacity="1.00" d=" M 95.67 141.63 C 97.60 141.61 99.53 141.59 101.45 141.57 C 101.52 146.24 101.49 150.91 101.49 155.58 C 104.30 155.59 107.12 155.59 109.93 155.58 C 109.92 157.16 109.90 158.73 109.88 160.31 C 105.15 160.29 100.41 160.31 95.68 160.29 C 95.66 154.07 95.66 147.85 95.67 141.63 Z" />
<path fill="#000000" opacity="1.00" d=" M 129.15 141.60 C 131.13 141.60 133.11 141.51 135.09 141.66 C 136.85 143.41 137.82 145.73 139.01 147.86 C 140.39 145.82 141.71 143.74 142.96 141.61 C 145.04 141.60 147.12 141.60 149.21 141.63 C 146.94 145.83 143.31 149.30 141.86 153.92 C 142.21 156.05 142.09 158.19 141.83 160.33 C 140.02 160.31 138.21 160.30 136.40 160.29 C 136.37 157.73 136.36 155.18 136.39 152.62 C 133.98 148.94 131.52 145.30 129.15 141.60 Z" />
</g>
<g id="normal">
<path fill="#ffffff" opacity="1.00" d=" M 4.98 10.99 C 6.20 6.76 10.60 3.67 14.99 3.98 C 65.67 4.03 116.35 3.98 167.03 4.01 C 170.09 4.09 173.38 5.84 174.36 8.90 C 174.32 61.30 174.41 113.71 174.39 166.10 C 173.93 169.69 170.55 172.19 167.30 173.14 C 117.88 173.40 68.45 173.16 19.03 173.26 C 16.63 173.26 14.22 173.28 11.82 173.10 C 8.50 172.09 5.51 169.40 4.77 165.93 C 4.61 160.62 4.61 155.29 5.10 150.00 C 5.11 107.66 5.10 65.32 5.11 22.98 C 4.93 18.99 4.39 14.97 4.98 10.99 M 8.39 9.21 C 7.87 10.77 7.21 12.32 7.29 14.00 C 7.28 62.00 7.30 110.01 7.28 158.02 C 7.33 160.84 7.08 163.69 7.58 166.49 C 8.81 168.81 11.14 171.00 13.95 170.80 C 63.97 170.84 113.99 170.79 164.02 170.83 C 167.82 171.21 172.49 168.34 171.86 164.08 C 171.85 113.69 171.81 63.29 171.71 12.89 C 172.04 9.81 169.06 7.04 166.08 7.06 C 156.73 6.78 147.37 7.36 138.04 6.67 C 99.68 6.66 61.32 6.32 22.95 6.44 C 18.06 6.57 12.33 5.59 8.39 9.21 Z" />
<path fill="#ffffff" opacity="1.00" d=" M 13.42 9.00 C 64.47 9.01 115.52 8.99 166.57 9.00 C 167.37 9.75 168.17 10.49 168.97 11.23 C 169.20 14.83 169.26 18.44 169.19 22.04 C 169.09 69.91 169.17 117.77 169.00 165.64 C 168.19 166.42 167.39 167.21 166.59 168.00 C 115.73 167.98 64.87 168.04 14.01 167.97 C 12.18 168.32 10.45 166.50 10.03 164.95 C 9.96 114.08 10.04 63.21 9.99 12.34 C 11.14 11.23 12.28 10.12 13.42 9.00 M 100.84 19.62 C 97.20 22.85 96.56 29.61 101.90 31.42 C 100.57 31.41 99.24 31.41 97.92 31.42 C 94.05 33.70 90.67 36.67 87.74 40.06 C 88.88 43.45 90.18 46.80 90.82 50.33 C 89.28 50.21 87.00 51.84 86.00 50.03 C 83.74 46.66 81.62 43.18 79.04 40.04 C 81.11 38.02 83.54 34.95 81.68 32.00 C 80.15 28.36 74.25 28.86 73.17 32.58 C 71.80 35.05 73.70 37.48 74.83 39.61 C 68.29 39.17 61.98 43.50 60.51 49.94 C 60.19 52.82 60.11 55.72 59.57 58.57 C 60.83 58.94 62.11 59.14 63.42 59.18 C 64.38 56.63 62.53 53.62 64.37 51.33 C 65.36 49.24 67.34 48.04 69.31 47.03 C 69.29 48.06 69.29 49.09 69.31 50.13 C 68.46 52.37 67.74 54.65 66.87 56.88 C 64.24 61.77 58.56 63.17 53.85 65.24 C 54.40 68.47 55.10 71.66 55.97 74.82 C 56.25 74.39 56.79 73.53 57.07 73.10 C 57.28 71.70 57.49 70.29 57.70 68.89 C 58.78 68.55 59.85 68.20 60.92 67.84 C 63.35 67.02 65.84 66.35 68.14 65.21 C 70.40 63.82 71.82 61.50 73.46 59.50 C 76.75 65.36 78.49 71.97 79.75 78.52 C 83.00 77.39 86.48 76.25 89.69 78.17 C 89.43 75.96 88.99 73.78 88.60 71.59 C 91.93 68.27 95.96 65.67 99.09 62.10 C 101.33 59.18 105.33 60.27 108.52 59.72 C 109.20 62.14 109.49 64.63 109.68 67.13 C 111.00 70.06 112.83 72.74 113.97 75.76 C 114.15 76.50 114.52 77.97 114.71 78.70 C 117.66 77.85 121.42 78.22 123.57 75.73 C 121.55 75.43 119.52 75.20 117.59 74.54 C 117.10 72.68 116.58 70.83 116.09 68.98 C 115.11 65.55 114.30 62.08 113.34 58.66 C 113.97 58.50 115.25 58.19 115.89 58.03 C 113.27 53.30 111.10 48.35 109.69 43.12 C 113.31 48.09 118.19 53.00 124.56 53.85 C 124.69 52.80 124.73 51.76 124.67 50.72 C 121.00 48.76 117.62 46.27 115.17 42.87 C 114.68 41.95 114.22 41.01 113.78 40.07 C 113.17 38.71 112.58 37.35 111.98 35.99 C 110.90 33.39 108.53 31.97 106.01 31.00 C 106.81 30.33 107.62 29.67 108.44 29.01 C 108.66 26.11 108.98 22.68 106.56 20.56 C 105.08 18.95 102.75 19.69 100.84 19.62 M 27.47 91.52 C 24.09 94.30 24.27 99.08 24.81 103.01 C 26.09 105.13 27.73 106.99 29.78 108.39 C 32.82 108.68 35.90 108.69 38.91 108.14 C 40.63 106.49 41.96 104.52 42.77 102.28 C 41.16 101.82 39.55 101.39 37.94 100.96 C 36.83 102.62 35.66 105.10 33.20 104.41 C 29.87 103.74 30.13 99.46 30.50 96.86 C 30.71 95.04 32.56 94.31 33.86 93.37 C 34.69 93.78 35.52 94.19 36.35 94.60 C 36.65 95.04 37.24 95.94 37.54 96.39 C 39.27 95.94 41.02 95.53 42.76 95.12 C 41.44 92.80 39.67 90.81 37.28 89.56 C 33.93 89.50 30.15 89.05 27.47 91.52 M 50.63 89.65 C 49.71 91.74 48.91 93.88 48.11 96.02 C 46.53 100.14 45.08 104.32 43.42 108.41 C 45.40 108.43 47.38 108.43 49.36 108.45 C 49.50 107.71 49.78 106.22 49.91 105.48 C 52.27 105.40 54.62 105.37 56.98 105.43 C 57.15 106.19 57.50 107.70 57.68 108.45 C 59.70 108.45 61.72 108.43 63.74 108.42 C 61.36 102.13 59.16 95.77 56.50 89.60 C 54.54 89.65 52.58 89.65 50.63 89.65 M 84.81 89.68 C 84.77 91.26 84.73 92.85 84.68 94.44 C 86.64 94.40 88.61 94.35 90.57 94.35 C 90.60 99.04 90.58 103.73 90.61 108.42 C 92.52 108.43 94.44 108.45 96.35 108.46 C 96.41 103.77 96.38 99.08 96.39 94.39 C 98.37 94.38 100.35 94.38 102.33 94.36 C 102.30 92.79 102.28 91.23 102.26 89.66 C 96.44 89.66 90.62 89.64 84.81 89.68 M 104.88 89.68 C 104.86 95.92 104.87 102.17 104.87 108.41 C 106.96 108.43 109.06 108.42 111.15 108.35 C 111.13 102.14 111.17 95.92 111.13 89.71 C 109.05 89.67 106.96 89.66 104.88 89.68 M 114.87 94.66 L 114.60 94.37 C 114.23 98.47 113.69 103.01 116.64 106.36 C 119.79 108.87 124.04 109.17 127.83 108.18 C 130.69 107.32 132.22 104.64 133.43 102.12 C 134.04 97.42 132.87 91.81 127.98 89.89 C 123.11 88.68 117.16 89.64 114.87 94.66 M 136.54 89.65 C 136.43 95.92 136.47 102.19 136.51 108.46 C 138.39 108.44 140.26 108.41 142.14 108.37 C 142.13 105.18 142.12 101.98 142.17 98.79 C 144.54 101.94 146.71 105.23 148.95 108.46 C 150.75 108.44 152.56 108.42 154.37 108.39 C 154.39 102.15 154.42 95.91 154.34 89.67 C 152.50 89.67 150.66 89.66 148.83 89.66 C 148.82 93.09 148.84 96.53 148.77 99.96 C 146.46 96.50 144.08 93.09 141.75 89.65 C 140.01 89.65 138.27 89.65 136.54 89.65 M 76.67 89.65 C 76.50 93.87 76.88 98.11 76.45 102.32 C 76.26 104.05 74.12 104.25 72.76 104.56 C 72.20 104.19 71.09 103.45 70.53 103.08 C 70.24 98.78 70.37 94.48 70.37 90.18 C 68.44 90.16 66.51 90.16 64.58 90.16 C 64.61 94.43 64.50 98.71 64.70 102.99 C 64.92 103.56 65.37 104.72 65.59 105.29 C 67.00 106.88 68.71 108.53 70.99 108.52 C 74.64 108.88 79.33 109.00 81.32 105.25 C 83.56 100.40 82.01 94.82 82.42 89.67 C 80.50 89.66 78.58 89.66 76.67 89.65 M 16.86 120.72 C 15.82 124.62 16.15 129.01 18.66 132.31 C 21.63 134.87 25.75 134.93 29.42 134.23 C 32.04 133.20 33.51 130.68 34.32 128.12 C 32.75 127.72 31.20 127.24 29.64 126.77 C 28.38 128.78 26.53 131.76 23.75 130.00 C 21.08 127.71 22.59 123.61 22.60 120.56 C 25.04 119.91 27.96 119.59 29.33 122.24 C 30.94 121.89 32.55 121.54 34.17 121.17 C 31.93 113.40 19.66 113.47 16.86 120.72 M 58.78 115.64 C 58.75 121.88 58.76 128.12 58.77 134.36 C 60.69 134.37 62.61 134.38 64.53 134.39 C 64.58 128.13 64.60 121.87 64.51 115.61 C 62.60 115.62 60.69 115.63 58.78 115.64 M 85.77 115.67 C 85.77 121.89 85.75 128.11 85.78 134.33 C 89.46 134.28 93.18 134.67 96.84 134.13 C 104.10 132.77 104.85 122.27 100.44 117.61 C 96.32 114.31 90.61 116.02 85.77 115.67 M 157.44 115.53 C 157.01 118.89 157.46 122.28 157.32 125.65 C 154.73 122.44 152.45 119.01 150.13 115.61 C 148.36 115.62 146.59 115.63 144.82 115.64 C 144.79 121.88 144.82 128.13 144.80 134.37 C 146.64 134.37 148.48 134.36 150.33 134.36 C 150.34 130.97 150.34 127.59 150.50 124.20 C 152.59 127.65 155.03 130.86 157.09 134.32 C 158.92 134.35 160.76 134.37 162.59 134.37 C 162.44 128.13 162.59 121.89 162.49 115.64 C 160.81 115.62 159.12 115.59 157.44 115.53 M 36.86 115.68 C 36.86 121.89 36.85 128.11 36.86 134.32 C 38.77 134.36 40.69 134.38 42.61 134.40 C 42.65 131.86 42.67 129.31 42.68 126.77 C 44.56 126.77 46.45 126.66 48.32 126.85 C 50.21 128.74 48.75 131.98 49.26 134.39 C 51.07 134.38 52.89 134.38 54.71 134.39 C 54.79 128.12 54.82 121.86 54.69 115.59 C 52.73 115.62 50.78 115.64 48.83 115.68 C 48.82 117.87 48.82 120.06 48.80 122.26 C 46.76 122.24 44.72 122.23 42.67 122.22 C 42.66 120.01 42.64 117.80 42.59 115.59 C 40.68 115.61 38.77 115.64 36.86 115.68 M 68.57 115.65 C 68.50 121.89 68.52 128.13 68.56 134.37 C 73.49 134.37 78.43 134.38 83.36 134.36 C 83.37 132.80 83.38 131.24 83.40 129.68 C 80.38 129.66 77.37 129.65 74.35 129.67 C 74.35 124.98 74.37 120.30 74.32 115.62 C 72.40 115.62 70.49 115.64 68.57 115.65 M 106.30 115.61 C 106.20 121.87 106.20 128.13 106.29 134.39 C 108.07 134.38 109.86 134.38 111.64 134.38 C 111.68 132.10 111.69 129.82 111.64 127.54 C 112.00 127.26 112.70 126.71 113.06 126.44 C 115.02 128.95 116.44 131.81 118.20 134.47 C 120.19 134.41 122.18 134.36 124.17 134.31 C 122.90 131.39 121.59 128.37 119.19 126.17 C 120.99 124.96 123.11 123.46 122.80 120.97 C 123.14 118.14 120.67 116.35 118.28 115.61 C 114.28 115.65 110.29 115.61 106.30 115.61 M 126.19 116.26 C 126.27 122.30 126.15 128.34 126.27 134.39 C 131.38 134.37 136.48 134.37 141.59 134.39 C 141.61 133.36 141.65 131.30 141.68 130.26 C 138.60 130.24 135.52 130.21 132.44 130.36 C 132.13 129.09 131.79 127.84 131.47 126.57 C 134.52 126.48 137.58 126.50 140.64 126.51 C 140.65 125.55 140.67 123.61 140.68 122.64 C 137.57 122.67 134.46 122.70 131.35 122.51 C 131.69 121.56 132.01 120.61 132.45 119.70 C 135.48 119.53 138.52 119.69 141.55 119.63 C 141.50 118.66 141.38 116.72 141.33 115.75 C 138.45 115.52 135.57 115.63 132.69 115.61 C 130.51 115.69 128.34 115.91 126.19 116.26 M 48.44 141.58 C 48.43 143.15 48.43 144.72 48.42 146.30 C 50.38 146.29 52.34 146.29 54.30 146.30 C 54.29 150.97 54.27 155.64 54.32 160.31 C 56.27 160.30 58.23 160.29 60.18 160.27 C 60.20 155.62 60.15 150.96 60.24 146.31 C 62.25 146.27 64.37 146.53 66.23 145.57 L 66.30 145.97 C 66.23 144.54 66.17 143.11 66.11 141.68 C 60.22 141.51 54.33 141.65 48.44 141.58 M 118.31 141.69 C 117.27 143.34 116.77 145.26 116.09 147.07 C 115.46 148.77 114.82 150.47 114.20 152.17 C 113.12 154.86 112.28 157.63 111.30 160.35 C 113.27 160.31 115.24 160.29 117.21 160.26 C 117.32 159.54 117.52 158.11 117.63 157.39 C 119.89 157.33 122.16 157.31 124.42 157.30 C 124.79 158.32 125.15 159.34 125.50 160.36 C 127.45 160.08 129.85 160.89 131.54 159.77 C 128.80 153.88 126.78 147.62 124.35 141.58 C 122.33 141.59 120.31 141.51 118.31 141.69 M 36.66 141.54 C 34.19 147.74 32.02 154.06 29.47 160.23 C 31.48 160.26 33.49 160.33 35.50 160.35 C 35.62 159.62 35.86 158.16 35.98 157.43 C 38.34 157.34 40.72 157.16 43.06 157.56 C 43.25 158.24 43.63 159.61 43.82 160.29 C 45.77 160.30 47.73 160.29 49.69 160.29 C 48.55 157.08 47.33 153.89 46.19 150.68 C 44.99 147.77 44.02 144.78 42.92 141.83 C 40.85 141.50 38.74 141.58 36.66 141.54 M 77.13 141.59 C 77.08 147.83 77.07 154.08 77.16 160.32 C 79.02 160.31 80.88 160.30 82.75 160.31 C 82.79 158.04 82.80 155.77 82.81 153.51 C 86.38 153.73 90.32 153.47 92.58 150.28 C 92.59 148.19 92.53 146.09 92.40 144.00 C 88.20 140.19 82.25 141.99 77.13 141.59 M 95.67 141.63 C 95.66 147.85 95.66 154.07 95.68 160.29 C 100.41 160.31 105.15 160.29 109.88 160.31 C 109.90 158.73 109.92 157.16 109.93 155.58 C 107.12 155.59 104.30 155.59 101.49 155.58 C 101.49 150.91 101.52 146.24 101.45 141.57 C 99.53 141.59 97.60 141.61 95.67 141.63 M 129.15 141.60 C 131.52 145.30 133.98 148.94 136.39 152.62 C 136.36 155.18 136.37 157.73 136.40 160.29 C 138.21 160.30 140.02 160.31 141.83 160.33 C 142.09 158.19 142.21 156.05 141.86 153.92 C 143.31 149.30 146.94 145.83 149.21 141.63 C 147.12 141.60 145.04 141.60 142.96 141.61 C 141.71 143.74 140.39 145.82 139.01 147.86 C 137.82 145.73 136.85 143.41 135.09 141.66 C 133.11 141.51 131.13 141.60 129.15 141.60 Z" />
<path fill="#ffffff" opacity="1.00" d=" M 93.11 40.76 C 94.95 39.83 96.80 38.93 98.67 38.06 C 98.74 44.24 97.45 50.44 94.61 55.95 C 94.85 56.70 96.89 57.77 95.41 58.31 C 90.86 61.07 87.83 65.56 85.00 69.92 C 84.78 72.36 86.42 74.39 87.22 76.57 C 85.86 75.28 83.68 74.22 83.72 72.07 C 83.07 64.46 79.96 57.29 79.57 49.67 C 81.11 51.20 82.54 52.84 83.92 54.52 C 87.47 54.69 90.74 53.13 94.07 52.15 C 94.42 51.69 95.12 50.77 95.47 50.31 C 95.40 49.53 95.33 48.74 95.25 47.95 C 94.01 45.74 93.27 43.30 93.11 40.76 Z" />
<path fill="#ffffff" opacity="1.00" d=" M 53.32 94.72 C 54.13 96.91 54.88 99.12 55.60 101.34 C 54.23 101.33 52.85 101.32 51.48 101.31 C 52.16 99.13 52.76 96.93 53.32 94.72 Z" />
<path fill="#ffffff" opacity="1.00" d=" M 120.86 94.97 C 122.32 93.59 124.52 94.44 126.30 94.22 C 127.83 96.96 128.52 100.82 126.49 103.47 C 124.82 105.24 122.38 104.23 120.59 103.27 C 120.01 100.51 119.39 97.57 120.86 94.97 Z" />
<path fill="#ffffff" opacity="1.00" d=" M 111.57 119.53 C 112.88 119.52 114.18 119.50 115.49 119.49 C 116.23 120.05 116.97 120.61 117.70 121.17 C 116.50 122.82 114.62 123.64 112.60 123.28 C 111.15 122.60 111.83 120.79 111.57 119.53 Z" />
<path fill="#ffffff" opacity="1.00" d=" M 91.59 120.06 C 93.16 120.16 94.73 120.30 96.30 120.49 C 97.17 123.33 98.06 126.66 96.20 129.31 C 94.77 130.38 93.05 130.42 91.49 129.62 C 91.63 126.43 91.60 123.24 91.59 120.06 Z" />
<path fill="#ffffff" opacity="1.00" d=" M 82.82 145.24 C 84.54 145.47 86.22 145.96 87.79 146.72 C 87.04 149.01 85.17 149.98 82.80 149.74 C 82.80 148.24 82.80 146.74 82.82 145.24 Z" />
<path fill="#ffffff" opacity="1.00" d=" M 39.87 146.90 C 40.44 149.04 41.02 151.18 41.63 153.32 C 40.26 153.30 38.90 153.29 37.54 153.27 C 38.25 151.12 39.01 148.99 39.87 146.90 Z" />
<path fill="#ffffff" opacity="1.00" d=" M 119.22 153.30 C 119.80 151.11 120.44 148.93 121.17 146.78 C 121.94 148.91 122.59 151.09 123.01 153.33 C 121.75 153.31 120.48 153.31 119.22 153.30 Z" />
<path fill="#000000" opacity="1.00" d=" M 8.39 9.21 C 12.33 5.59 18.06 6.57 22.95 6.44 C 61.32 6.32 99.68 6.66 138.04 6.67 C 147.37 7.36 156.73 6.78 166.08 7.06 C 169.06 7.04 172.04 9.81 171.71 12.89 C 171.81 63.29 171.85 113.69 171.86 164.08 C 172.49 168.34 167.82 171.21 164.02 170.83 C 113.99 170.79 63.97 170.84 13.95 170.80 C 11.14 171.00 8.81 168.81 7.58 166.49 C 7.08 163.69 7.33 160.84 7.28 158.02 C 7.30 110.01 7.28 62.00 7.29 14.00 C 7.21 12.32 7.87 10.77 8.39 9.21 M 13.42 9.00 C 12.28 10.12 11.14 11.23 9.99 12.34 C 10.04 63.21 9.96 114.08 10.03 164.95 C 10.45 166.50 12.18 168.32 14.01 167.97 C 64.87 168.04 115.73 167.98 166.59 168.00 C 167.39 167.21 168.19 166.42 169.00 165.64 C 169.17 117.77 169.09 69.91 169.19 22.04 C 169.26 18.44 169.20 14.83 168.97 11.23 C 168.17 10.49 167.37 9.75 166.57 9.00 C 115.52 8.99 64.47 9.01 13.42 9.00 Z" />
<path fill="#000000" opacity="1.00" d=" M 100.84 19.62 C 102.75 19.69 105.08 18.95 106.56 20.56 C 108.98 22.68 108.66 26.11 108.44 29.01 C 107.62 29.67 106.81 30.33 106.01 31.00 C 108.53 31.97 110.90 33.39 111.98 35.99 C 112.58 37.35 113.17 38.71 113.78 40.07 C 114.22 41.01 114.68 41.95 115.17 42.87 C 117.62 46.27 121.00 48.76 124.67 50.72 C 124.73 51.76 124.69 52.80 124.56 53.85 C 118.19 53.00 113.31 48.09 109.69 43.12 C 111.10 48.35 113.27 53.30 115.89 58.03 C 115.25 58.19 113.97 58.50 113.34 58.66 C 114.30 62.08 115.11 65.55 116.09 68.98 C 116.58 70.83 117.10 72.68 117.59 74.54 C 119.52 75.20 121.55 75.43 123.57 75.73 C 121.42 78.22 117.66 77.85 114.71 78.70 C 114.52 77.97 114.15 76.50 113.97 75.76 C 112.83 72.74 111.00 70.06 109.68 67.13 C 109.49 64.63 109.20 62.14 108.52 59.72 C 105.33 60.27 101.33 59.18 99.09 62.10 C 95.96 65.67 91.93 68.27 88.60 71.59 C 88.99 73.78 89.43 75.96 89.69 78.17 C 86.48 76.25 83.00 77.39 79.75 78.52 C 78.49 71.97 76.75 65.36 73.46 59.50 C 71.82 61.50 70.40 63.82 68.14 65.21 C 65.84 66.35 63.35 67.02 60.92 67.84 C 59.85 68.20 58.78 68.55 57.70 68.89 C 57.49 70.29 57.28 71.70 57.07 73.10 C 56.79 73.53 56.25 74.39 55.97 74.82 C 55.10 71.66 54.40 68.47 53.85 65.24 C 58.56 63.17 64.24 61.77 66.87 56.88 C 67.74 54.65 68.46 52.37 69.31 50.13 C 69.29 49.09 69.29 48.06 69.31 47.03 C 67.34 48.04 65.36 49.24 64.37 51.33 C 62.53 53.62 64.38 56.63 63.42 59.18 C 62.11 59.14 60.83 58.94 59.57 58.57 C 60.11 55.72 60.19 52.82 60.51 49.94 C 61.98 43.50 68.29 39.17 74.83 39.61 C 73.70 37.48 71.80 35.05 73.17 32.58 C 74.25 28.86 80.15 28.36 81.68 32.00 C 83.54 34.95 81.11 38.02 79.04 40.04 C 81.62 43.18 83.74 46.66 86.00 50.03 C 87.00 51.84 89.28 50.21 90.82 50.33 C 90.18 46.80 88.88 43.45 87.74 40.06 C 90.67 36.67 94.05 33.70 97.92 31.42 C 99.24 31.41 100.57 31.41 101.90 31.42 C 96.56 29.61 97.20 22.85 100.84 19.62 M 93.11 40.76 C 93.27 43.30 94.01 45.74 95.25 47.95 C 95.33 48.74 95.40 49.53 95.47 50.31 C 95.12 50.77 94.42 51.69 94.07 52.15 C 90.74 53.13 87.47 54.69 83.92 54.52 C 82.54 52.84 81.11 51.20 79.57 49.67 C 79.96 57.29 83.07 64.46 83.72 72.07 C 83.68 74.22 85.86 75.28 87.22 76.57 C 86.42 74.39 84.78 72.36 85.00 69.92 C 87.83 65.56 90.86 61.07 95.41 58.31 C 96.89 57.77 94.85 56.70 94.61 55.95 C 97.45 50.44 98.74 44.24 98.67 38.06 C 96.80 38.93 94.95 39.83 93.11 40.76 Z" />
<path fill="#000000" opacity="1.00" d=" M 27.47 91.52 C 30.15 89.05 33.93 89.50 37.28 89.56 C 39.67 90.81 41.44 92.80 42.76 95.12 C 41.02 95.53 39.27 95.94 37.54 96.39 C 37.24 95.94 36.65 95.04 36.35 94.60 C 35.52 94.19 34.69 93.78 33.86 93.37 C 32.56 94.31 30.71 95.04 30.50 96.86 C 30.13 99.46 29.87 103.74 33.20 104.41 C 35.66 105.10 36.83 102.62 37.94 100.96 C 39.55 101.39 41.16 101.82 42.77 102.28 C 41.96 104.52 40.63 106.49 38.91 108.14 C 35.90 108.69 32.82 108.68 29.78 108.39 C 27.73 106.99 26.09 105.13 24.81 103.01 C 24.27 99.08 24.09 94.30 27.47 91.52 Z" />
<path fill="#000000" opacity="1.00" d=" M 50.63 89.65 C 52.58 89.65 54.54 89.65 56.50 89.60 C 59.16 95.77 61.36 102.13 63.74 108.42 C 61.72 108.43 59.70 108.45 57.68 108.45 C 57.50 107.70 57.15 106.19 56.98 105.43 C 54.62 105.37 52.27 105.40 49.91 105.48 C 49.78 106.22 49.50 107.71 49.36 108.45 C 47.38 108.43 45.40 108.43 43.42 108.41 C 45.08 104.32 46.53 100.14 48.11 96.02 C 48.91 93.88 49.71 91.74 50.63 89.65 M 53.32 94.72 C 52.76 96.93 52.16 99.13 51.48 101.31 C 52.85 101.32 54.23 101.33 55.60 101.34 C 54.88 99.12 54.13 96.91 53.32 94.72 Z" />
<path fill="#000000" opacity="1.00" d=" M 84.81 89.68 C 90.62 89.64 96.44 89.66 102.26 89.66 C 102.28 91.23 102.30 92.79 102.33 94.36 C 100.35 94.38 98.37 94.38 96.39 94.39 C 96.38 99.08 96.41 103.77 96.35 108.46 C 94.44 108.45 92.52 108.43 90.61 108.42 C 90.58 103.73 90.60 99.04 90.57 94.35 C 88.61 94.35 86.64 94.40 84.68 94.44 C 84.73 92.85 84.77 91.26 84.81 89.68 Z" />
<path fill="#000000" opacity="1.00" d=" M 104.88 89.68 C 106.96 89.66 109.05 89.67 111.13 89.71 C 111.17 95.92 111.13 102.14 111.15 108.35 C 109.06 108.42 106.96 108.43 104.87 108.41 C 104.87 102.17 104.86 95.92 104.88 89.68 Z" />
<path fill="#000000" opacity="1.00" d=" M 114.87 94.66 C 117.16 89.64 123.11 88.68 127.98 89.89 C 132.87 91.81 134.04 97.42 133.43 102.12 C 132.22 104.64 130.69 107.32 127.83 108.18 C 124.04 109.17 119.79 108.87 116.64 106.36 C 113.69 103.01 114.23 98.47 114.60 94.37 L 114.87 94.66 M 120.86 94.97 C 119.39 97.57 120.01 100.51 120.59 103.27 C 122.38 104.23 124.82 105.24 126.49 103.47 C 128.52 100.82 127.83 96.96 126.30 94.22 C 124.52 94.44 122.32 93.59 120.86 94.97 Z" />
<path fill="#000000" opacity="1.00" d=" M 136.54 89.65 C 138.27 89.65 140.01 89.65 141.75 89.65 C 144.08 93.09 146.46 96.50 148.77 99.96 C 148.84 96.53 148.82 93.09 148.83 89.66 C 150.66 89.66 152.50 89.67 154.34 89.67 C 154.42 95.91 154.39 102.15 154.37 108.39 C 152.56 108.42 150.75 108.44 148.95 108.46 C 146.71 105.23 144.54 101.94 142.17 98.79 C 142.12 101.98 142.13 105.18 142.14 108.37 C 140.26 108.41 138.39 108.44 136.51 108.46 C 136.47 102.19 136.43 95.92 136.54 89.65 Z" />
<path fill="#000000" opacity="1.00" d=" M 76.67 89.65 C 78.58 89.66 80.50 89.66 82.42 89.67 C 82.01 94.82 83.56 100.40 81.32 105.25 C 79.33 109.00 74.64 108.88 70.99 108.52 C 68.71 108.53 67.00 106.88 65.59 105.29 C 65.37 104.72 64.92 103.56 64.70 102.99 C 64.50 98.71 64.61 94.43 64.58 90.16 C 66.51 90.16 68.44 90.16 70.37 90.18 C 70.37 94.48 70.24 98.78 70.53 103.08 C 71.09 103.45 72.20 104.19 72.76 104.56 C 74.12 104.25 76.26 104.05 76.45 102.32 C 76.88 98.11 76.50 93.87 76.67 89.65 Z" />
<path fill="#000000" opacity="1.00" d=" M 16.86 120.72 C 19.66 113.47 31.93 113.40 34.17 121.17 C 32.55 121.54 30.94 121.89 29.33 122.24 C 27.96 119.59 25.04 119.91 22.60 120.56 C 22.59 123.61 21.08 127.71 23.75 130.00 C 26.53 131.76 28.38 128.78 29.64 126.77 C 31.20 127.24 32.75 127.72 34.32 128.12 C 33.51 130.68 32.04 133.20 29.42 134.23 C 25.75 134.93 21.63 134.87 18.66 132.31 C 16.15 129.01 15.82 124.62 16.86 120.72 Z" />
<path fill="#000000" opacity="1.00" d=" M 58.78 115.64 C 60.69 115.63 62.60 115.62 64.51 115.61 C 64.60 121.87 64.58 128.13 64.53 134.39 C 62.61 134.38 60.69 134.37 58.77 134.36 C 58.76 128.12 58.75 121.88 58.78 115.64 Z" />
<path fill="#000000" opacity="1.00" d=" M 85.77 115.67 C 90.61 116.02 96.32 114.31 100.44 117.61 C 104.85 122.27 104.10 132.77 96.84 134.13 C 93.18 134.67 89.46 134.28 85.78 134.33 C 85.75 128.11 85.77 121.89 85.77 115.67 M 91.59 120.06 C 91.60 123.24 91.63 126.43 91.49 129.62 C 93.05 130.42 94.77 130.38 96.20 129.31 C 98.06 126.66 97.17 123.33 96.30 120.49 C 94.73 120.30 93.16 120.16 91.59 120.06 Z" />
<path fill="#000000" opacity="1.00" d=" M 157.44 115.53 C 159.12 115.59 160.81 115.62 162.49 115.64 C 162.59 121.89 162.44 128.13 162.59 134.37 C 160.76 134.37 158.92 134.35 157.09 134.32 C 155.03 130.86 152.59 127.65 150.50 124.20 C 150.34 127.59 150.34 130.97 150.33 134.36 C 148.48 134.36 146.64 134.37 144.80 134.37 C 144.82 128.13 144.79 121.88 144.82 115.64 C 146.59 115.63 148.36 115.62 150.13 115.61 C 152.45 119.01 154.73 122.44 157.32 125.65 C 157.46 122.28 157.01 118.89 157.44 115.53 Z" />
<path fill="#000000" opacity="1.00" d=" M 36.86 115.68 C 38.77 115.64 40.68 115.61 42.59 115.59 C 42.64 117.80 42.66 120.01 42.67 122.22 C 44.72 122.23 46.76 122.24 48.80 122.26 C 48.82 120.06 48.82 117.87 48.83 115.68 C 50.78 115.64 52.73 115.62 54.69 115.59 C 54.82 121.86 54.79 128.12 54.71 134.39 C 52.89 134.38 51.07 134.38 49.26 134.39 C 48.75 131.98 50.21 128.74 48.32 126.85 C 46.45 126.66 44.56 126.77 42.68 126.77 C 42.67 129.31 42.65 131.86 42.61 134.40 C 40.69 134.38 38.77 134.36 36.86 134.32 C 36.85 128.11 36.86 121.89 36.86 115.68 Z" />
<path fill="#000000" opacity="1.00" d=" M 68.57 115.65 C 70.49 115.64 72.40 115.62 74.32 115.62 C 74.37 120.30 74.35 124.98 74.35 129.67 C 77.37 129.65 80.38 129.66 83.40 129.68 C 83.38 131.24 83.37 132.80 83.36 134.36 C 78.43 134.38 73.49 134.37 68.56 134.37 C 68.52 128.13 68.50 121.89 68.57 115.65 Z" />
<path fill="#000000" opacity="1.00" d=" M 106.30 115.61 C 110.29 115.61 114.28 115.65 118.28 115.61 C 120.67 116.35 123.14 118.14 122.80 120.97 C 123.11 123.46 120.99 124.96 119.19 126.17 C 121.59 128.37 122.90 131.39 124.17 134.31 C 122.18 134.36 120.19 134.41 118.20 134.47 C 116.44 131.81 115.02 128.95 113.06 126.44 C 112.70 126.71 112.00 127.26 111.64 127.54 C 111.69 129.82 111.68 132.10 111.64 134.38 C 109.86 134.38 108.07 134.38 106.29 134.39 C 106.20 128.13 106.20 121.87 106.30 115.61 M 111.57 119.53 C 111.83 120.79 111.15 122.60 112.60 123.28 C 114.62 123.64 116.50 122.82 117.70 121.17 C 116.97 120.61 116.23 120.05 115.49 119.49 C 114.18 119.50 112.88 119.52 111.57 119.53 Z" />
<path fill="#000000" opacity="1.00" d=" M 126.19 116.26 C 128.34 115.91 130.51 115.69 132.69 115.61 C 135.57 115.63 138.45 115.52 141.33 115.75 C 141.38 116.72 141.50 118.66 141.55 119.63 C 138.52 119.69 135.48 119.53 132.45 119.70 C 132.01 120.61 131.69 121.56 131.35 122.51 C 134.46 122.70 137.57 122.67 140.68 122.64 C 140.67 123.61 140.65 125.55 140.64 126.51 C 137.58 126.50 134.52 126.48 131.47 126.57 C 131.79 127.84 132.13 129.09 132.44 130.36 C 135.52 130.21 138.60 130.24 141.68 130.26 C 141.65 131.30 141.61 133.36 141.59 134.39 C 136.48 134.37 131.38 134.37 126.27 134.39 C 126.15 128.34 126.27 122.30 126.19 116.26 Z" />
<path fill="#000000" opacity="1.00" d=" M 48.44 141.58 C 54.33 141.65 60.22 141.51 66.11 141.68 C 66.17 143.11 66.23 144.54 66.30 145.97 L 66.23 145.57 C 64.37 146.53 62.25 146.27 60.24 146.31 C 60.15 150.96 60.20 155.62 60.18 160.27 C 58.23 160.29 56.27 160.30 54.32 160.31 C 54.27 155.64 54.29 150.97 54.30 146.30 C 52.34 146.29 50.38 146.29 48.42 146.30 C 48.43 144.72 48.43 143.15 48.44 141.58 Z" />
<path fill="#000000" opacity="1.00" d=" M 118.31 141.69 C 120.31 141.51 122.33 141.59 124.35 141.58 C 126.78 147.62 128.80 153.88 131.54 159.77 C 129.85 160.89 127.45 160.08 125.50 160.36 C 125.15 159.34 124.79 158.32 124.42 157.30 C 122.16 157.31 119.89 157.33 117.63 157.39 C 117.52 158.11 117.32 159.54 117.21 160.26 C 115.24 160.29 113.27 160.31 111.30 160.35 C 112.28 157.63 113.12 154.86 114.20 152.17 C 114.82 150.47 115.46 148.77 116.09 147.07 C 116.77 145.26 117.27 143.34 118.31 141.69 M 119.22 153.30 C 120.48 153.31 121.75 153.31 123.01 153.33 C 122.59 151.09 121.94 148.91 121.17 146.78 C 120.44 148.93 119.80 151.11 119.22 153.30 Z" />
<path fill="#000000" opacity="1.00" d=" M 36.66 141.54 C 38.74 141.58 40.85 141.50 42.92 141.83 C 44.02 144.78 44.99 147.77 46.19 150.68 C 47.33 153.89 48.55 157.08 49.69 160.29 C 47.73 160.29 45.77 160.30 43.82 160.29 C 43.63 159.61 43.25 158.24 43.06 157.56 C 40.72 157.16 38.34 157.34 35.98 157.43 C 35.86 158.16 35.62 159.62 35.50 160.35 C 33.49 160.33 31.48 160.26 29.47 160.23 C 32.02 154.06 34.19 147.74 36.66 141.54 M 39.87 146.90 C 39.01 148.99 38.25 151.12 37.54 153.27 C 38.90 153.29 40.26 153.30 41.63 153.32 C 41.02 151.18 40.44 149.04 39.87 146.90 Z" />
<path fill="#000000" opacity="1.00" d=" M 77.13 141.59 C 82.25 141.99 88.20 140.19 92.40 144.00 C 92.53 146.09 92.59 148.19 92.58 150.28 C 90.32 153.47 86.38 153.73 82.81 153.51 C 82.80 155.77 82.79 158.04 82.75 160.31 C 80.88 160.30 79.02 160.31 77.16 160.32 C 77.07 154.08 77.08 147.83 77.13 141.59 M 82.82 145.24 C 82.80 146.74 82.80 148.24 82.80 149.74 C 85.17 149.98 87.04 149.01 87.79 146.72 C 86.22 145.96 84.54 145.47 82.82 145.24 Z" />
<path fill="#000000" opacity="1.00" d=" M 95.67 141.63 C 97.60 141.61 99.53 141.59 101.45 141.57 C 101.52 146.24 101.49 150.91 101.49 155.58 C 104.30 155.59 107.12 155.59 109.93 155.58 C 109.92 157.16 109.90 158.73 109.88 160.31 C 105.15 160.29 100.41 160.31 95.68 160.29 C 95.66 154.07 95.66 147.85 95.67 141.63 Z" />
<path fill="#000000" opacity="1.00" d=" M 129.15 141.60 C 131.13 141.60 133.11 141.51 135.09 141.66 C 136.85 143.41 137.82 145.73 139.01 147.86 C 140.39 145.82 141.71 143.74 142.96 141.61 C 145.04 141.60 147.12 141.60 149.21 141.63 C 146.94 145.83 143.31 149.30 141.86 153.92 C 142.21 156.05 142.09 158.19 141.83 160.33 C 140.02 160.31 138.21 160.30 136.40 160.29 C 136.37 157.73 136.36 155.18 136.39 152.62 C 133.98 148.94 131.52 145.30 129.15 141.60 Z" />
</g>
</svg>
