<?xml version="1.0" encoding="UTF-8" ?>
<!DOCTYPE svg PUBLIC "-//W3C//DTD SVG 1.1//EN" "http://www.w3.org/Graphics/SVG/1.1/DTD/svg11.dtd">
<svg width="130pt" height="130pt" viewBox="0 0 130 130" version="1.1" xmlns="http://www.w3.org/2000/svg">
<g id="disabled">
<path fill="#ffffff" opacity="1.00" d=" M 62.65 12.36 C 63.68 10.78 64.68 8.46 66.99 8.91 C 68.60 9.60 69.29 11.36 70.18 12.75 C 89.62 46.61 109.24 80.37 128.68 114.22 C 130.04 116.17 130.71 119.84 127.77 120.72 C 125.52 120.99 123.25 121.01 120.98 121.01 C 83.29 120.96 45.60 121.06 7.91 120.96 C 5.17 121.23 3.46 118.35 3.39 115.93 C 3.94 113.53 5.46 111.51 6.59 109.37 C 20.35 85.55 34.06 61.70 47.95 37.96 C 49.15 36.36 50.15 34.62 50.97 32.79 C 54.69 25.89 58.82 19.21 62.65 12.36 M 64.78 15.71 C 45.69 48.33 26.82 81.08 7.86 113.77 C 6.78 115.12 6.97 116.66 7.80 118.08 C 46.57 117.87 85.35 118.10 124.13 117.96 C 125.45 118.06 126.14 117.42 126.17 116.06 C 125.32 113.68 123.88 111.58 122.64 109.40 C 104.53 78.13 86.48 46.81 68.32 15.57 C 67.62 13.77 65.40 13.90 64.78 15.71 Z" />
<path fill="#ffffff" opacity="1.00" d=" M 27.97 100.97 C 40.70 79.06 53.34 57.09 66.04 35.15 C 68.45 36.45 69.35 39.16 70.73 41.35 C 82.04 61.01 93.39 80.65 104.74 100.29 C 106.16 102.83 107.91 105.24 108.73 108.06 C 107.54 109.39 105.54 108.83 103.97 109.03 C 78.62 108.97 53.26 109.02 27.91 109.00 C 26.62 109.13 25.46 108.81 24.43 108.03 C 25.06 105.44 26.70 103.27 27.97 100.97 M 67.45 53.66 C 67.41 54.96 67.35 56.26 67.27 57.56 C 70.17 57.23 72.66 59.51 72.50 62.46 C 71.56 62.38 69.67 62.20 68.72 62.11 C 69.57 62.80 70.43 63.48 71.28 64.16 C 69.95 67.80 69.31 71.82 66.88 74.96 C 64.61 77.99 60.89 79.70 57.15 79.90 C 53.37 79.75 49.75 82.03 47.85 85.22 C 49.42 88.57 47.90 92.30 44.62 93.85 C 43.93 96.68 43.26 99.81 40.89 101.85 C 39.05 103.31 37.71 105.20 36.73 107.32 C 42.87 106.94 44.27 99.70 47.79 95.85 C 50.70 94.02 54.38 92.81 55.62 89.24 C 57.64 88.36 59.68 87.30 61.95 87.38 C 66.76 87.44 71.26 85.22 76.10 85.57 C 73.29 88.10 68.15 88.64 67.88 93.19 C 73.04 90.29 78.18 87.27 82.96 83.78 C 82.86 83.46 82.67 82.83 82.58 82.52 C 79.50 81.57 76.24 82.39 73.08 82.10 C 73.78 80.18 73.98 78.16 73.56 76.16 C 74.55 73.54 74.76 70.75 74.76 67.97 C 77.13 67.05 79.57 66.19 81.66 64.70 C 77.15 64.31 71.82 60.92 72.69 55.79 C 72.41 56.30 71.86 57.32 71.58 57.82 C 70.90 57.43 69.54 56.63 68.86 56.24 C 68.39 55.38 67.92 54.52 67.45 53.66 Z" />
<path fill="#606060" opacity="1.00" d=" M 64.78 15.71 C 65.40 13.90 67.62 13.77 68.32 15.57 C 86.48 46.81 104.53 78.13 122.64 109.40 C 123.88 111.58 125.32 113.68 126.17 116.06 C 126.14 117.42 125.45 118.06 124.13 117.96 C 85.35 118.10 46.57 117.87 7.80 118.08 C 6.97 116.66 6.78 115.12 7.86 113.77 C 26.82 81.08 45.69 48.33 64.78 15.71 M 27.97 100.97 C 26.70 103.27 25.06 105.44 24.43 108.03 C 25.46 108.81 26.62 109.13 27.91 109.00 C 53.26 109.02 78.62 108.97 103.97 109.03 C 105.54 108.83 107.54 109.39 108.73 108.06 C 107.91 105.24 106.16 102.83 104.74 100.29 C 93.39 80.65 82.04 61.01 70.73 41.35 C 69.35 39.16 68.45 36.45 66.04 35.15 C 53.34 57.09 40.70 79.06 27.97 100.97 Z" />
<path fill="#000000" opacity="1.00" d=" M 67.45 53.66 C 67.92 54.52 68.39 55.38 68.86 56.24 C 69.54 56.63 70.90 57.43 71.58 57.82 C 71.86 57.32 72.41 56.30 72.69 55.79 C 71.82 60.92 77.15 64.31 81.66 64.70 C 79.57 66.19 77.13 67.05 74.76 67.97 C 74.76 70.75 74.55 73.54 73.56 76.16 C 73.98 78.16 73.78 80.18 73.08 82.10 C 76.24 82.39 79.50 81.57 82.58 82.52 C 82.67 82.83 82.86 83.46 82.96 83.78 C 78.18 87.27 73.04 90.29 67.88 93.19 C 68.15 88.64 73.29 88.10 76.10 85.57 C 71.26 85.22 66.76 87.44 61.95 87.38 C 59.68 87.30 57.64 88.36 55.62 89.24 C 54.38 92.81 50.70 94.02 47.79 95.85 C 44.27 99.70 42.87 106.94 36.73 107.32 C 37.71 105.20 39.05 103.31 40.89 101.85 C 43.26 99.81 43.93 96.68 44.62 93.85 C 47.90 92.30 49.42 88.57 47.85 85.22 C 49.75 82.03 53.37 79.75 57.15 79.90 C 60.89 79.70 64.61 77.99 66.88 74.96 C 69.31 71.82 69.95 67.80 71.28 64.16 C 70.43 63.48 69.57 62.80 68.72 62.11 C 69.67 62.20 71.56 62.38 72.50 62.46 C 72.66 59.51 70.17 57.23 67.27 57.56 C 67.35 56.26 67.41 54.96 67.45 53.66 Z" />
</g>
<g id="normal">
<path fill="#ffffff" opacity="1.00" d=" M 62.65 12.36 C 63.68 10.78 64.68 8.46 66.99 8.91 C 68.60 9.60 69.29 11.36 70.18 12.75 C 89.62 46.61 109.24 80.37 128.68 114.22 C 130.04 116.17 130.71 119.84 127.77 120.72 C 125.52 120.99 123.25 121.01 120.98 121.01 C 83.29 120.96 45.60 121.06 7.91 120.96 C 5.17 121.23 3.46 118.35 3.39 115.93 C 3.94 113.53 5.46 111.51 6.59 109.37 C 20.35 85.55 34.06 61.70 47.95 37.96 C 49.15 36.36 50.15 34.62 50.97 32.79 C 54.69 25.89 58.82 19.21 62.65 12.36 M 64.78 15.71 C 45.69 48.33 26.82 81.08 7.86 113.77 C 6.78 115.12 6.97 116.66 7.80 118.08 C 46.57 117.87 85.35 118.10 124.13 117.96 C 125.45 118.06 126.14 117.42 126.17 116.06 C 125.32 113.68 123.88 111.58 122.64 109.40 C 104.53 78.13 86.48 46.81 68.32 15.57 C 67.62 13.77 65.40 13.90 64.78 15.71 Z" />
<path fill="#ffffff" opacity="1.00" d=" M 27.97 100.97 C 40.70 79.06 53.34 57.09 66.04 35.15 C 68.45 36.45 69.35 39.16 70.73 41.35 C 82.04 61.01 93.39 80.65 104.74 100.29 C 106.16 102.83 107.91 105.24 108.73 108.06 C 107.54 109.39 105.54 108.83 103.97 109.03 C 78.62 108.97 53.26 109.02 27.91 109.00 C 26.62 109.13 25.46 108.81 24.43 108.03 C 25.06 105.44 26.70 103.27 27.97 100.97 M 67.45 53.66 C 67.41 54.96 67.35 56.26 67.27 57.56 C 70.17 57.23 72.66 59.51 72.50 62.46 C 71.56 62.38 69.67 62.20 68.72 62.11 C 69.57 62.80 70.43 63.48 71.28 64.16 C 69.95 67.80 69.31 71.82 66.88 74.96 C 64.61 77.99 60.89 79.70 57.15 79.90 C 53.37 79.75 49.75 82.03 47.85 85.22 C 49.42 88.57 47.90 92.30 44.62 93.85 C 43.93 96.68 43.26 99.81 40.89 101.85 C 39.05 103.31 37.71 105.20 36.73 107.32 C 42.87 106.94 44.27 99.70 47.79 95.85 C 50.70 94.02 54.38 92.81 55.62 89.24 C 57.64 88.36 59.68 87.30 61.95 87.38 C 66.76 87.44 71.26 85.22 76.10 85.57 C 73.29 88.10 68.15 88.64 67.88 93.19 C 73.04 90.29 78.18 87.27 82.96 83.78 C 82.86 83.46 82.67 82.83 82.58 82.52 C 79.50 81.57 76.24 82.39 73.08 82.10 C 73.78 80.18 73.98 78.16 73.56 76.16 C 74.55 73.54 74.76 70.75 74.76 67.97 C 77.13 67.05 79.57 66.19 81.66 64.70 C 77.15 64.31 71.82 60.92 72.69 55.79 C 72.41 56.30 71.86 57.32 71.58 57.82 C 70.90 57.43 69.54 56.63 68.86 56.24 C 68.39 55.38 67.92 54.52 67.45 53.66 Z" />
<path fill="#de2e2e" opacity="1.00" d=" M 64.78 15.71 C 65.40 13.90 67.62 13.77 68.32 15.57 C 86.48 46.81 104.53 78.13 122.64 109.40 C 123.88 111.58 125.32 113.68 126.17 116.06 C 126.14 117.42 125.45 118.06 124.13 117.96 C 85.35 118.10 46.57 117.87 7.80 118.08 C 6.97 116.66 6.78 115.12 7.86 113.77 C 26.82 81.08 45.69 48.33 64.78 15.71 M 27.97 100.97 C 26.70 103.27 25.06 105.44 24.43 108.03 C 25.46 108.81 26.62 109.13 27.91 109.00 C 53.26 109.02 78.62 108.97 103.97 109.03 C 105.54 108.83 107.54 109.39 108.73 108.06 C 107.91 105.24 106.16 102.83 104.74 100.29 C 93.39 80.65 82.04 61.01 70.73 41.35 C 69.35 39.16 68.45 36.45 66.04 35.15 C 53.34 57.09 40.70 79.06 27.97 100.97 Z" />
<path fill="#000000" opacity="1.00" d=" M 67.45 53.66 C 67.92 54.52 68.39 55.38 68.86 56.24 C 69.54 56.63 70.90 57.43 71.58 57.82 C 71.86 57.32 72.41 56.30 72.69 55.79 C 71.82 60.92 77.15 64.31 81.66 64.70 C 79.57 66.19 77.13 67.05 74.76 67.97 C 74.76 70.75 74.55 73.54 73.56 76.16 C 73.98 78.16 73.78 80.18 73.08 82.10 C 76.24 82.39 79.50 81.57 82.58 82.52 C 82.67 82.83 82.86 83.46 82.96 83.78 C 78.18 87.27 73.04 90.29 67.88 93.19 C 68.15 88.64 73.29 88.10 76.10 85.57 C 71.26 85.22 66.76 87.44 61.95 87.38 C 59.68 87.30 57.64 88.36 55.62 89.24 C 54.38 92.81 50.70 94.02 47.79 95.85 C 44.27 99.70 42.87 106.94 36.73 107.32 C 37.71 105.20 39.05 103.31 40.89 101.85 C 43.26 99.81 43.93 96.68 44.62 93.85 C 47.90 92.30 49.42 88.57 47.85 85.22 C 49.75 82.03 53.37 79.75 57.15 79.90 C 60.89 79.70 64.61 77.99 66.88 74.96 C 69.31 71.82 69.95 67.80 71.28 64.16 C 70.43 63.48 69.57 62.80 68.72 62.11 C 69.67 62.20 71.56 62.38 72.50 62.46 C 72.66 59.51 70.17 57.23 67.27 57.56 C 67.35 56.26 67.41 54.96 67.45 53.66 Z" />
</g>
</svg>
