<?xml version="1.0" encoding="UTF-8" ?>
<!DOCTYPE svg PUBLIC "-//W3C//DTD SVG 1.1//EN" "http://www.w3.org/Graphics/SVG/1.1/DTD/svg11.dtd">
<svg width="132pt" height="132pt" viewBox="0 0 132 132" version="1.1" xmlns="http://www.w3.org/2000/svg">
<g id="disabled">
<path fill="#ffffff" opacity="1.00" d=" M 60.42 5.31 C 62.23 3.25 65.13 2.34 67.75 3.26 C 69.92 4.28 71.44 6.19 73.13 7.82 C 89.95 24.65 106.78 41.48 123.61 58.30 C 125.08 59.81 126.70 61.22 127.85 63.01 C 128.03 65.45 128.27 68.34 126.12 70.04 C 107.45 88.75 88.78 107.45 70.05 126.09 C 68.34 128.09 65.61 128.20 63.18 127.85 C 60.92 126.51 59.21 124.47 57.35 122.66 C 40.83 106.14 24.31 89.61 7.79 73.10 C 6.21 71.47 4.42 69.98 3.23 68.01 C 2.78 65.54 2.68 62.60 4.87 60.89 C 23.35 42.33 41.90 23.84 60.42 5.31 M 63.25 5.19 C 61.82 6.09 60.71 7.36 59.52 8.53 C 41.72 26.40 23.81 44.17 6.04 62.07 C 4.04 63.87 3.99 67.22 6.01 69.02 C 23.58 86.77 41.36 104.30 58.98 122.00 C 60.57 123.53 61.95 125.44 64.05 126.32 C 66.07 126.99 68.12 126.06 69.43 124.52 C 87.53 106.56 105.43 88.40 123.53 70.43 C 124.75 69.16 126.23 67.88 126.43 66.01 C 126.74 63.73 124.87 62.06 123.43 60.59 C 105.51 42.87 87.91 24.83 69.98 7.12 C 68.39 5.20 65.64 3.68 63.25 5.19 Z" />
<path fill="#ffffff" opacity="1.00" d=" M 62.14 9.13 C 63.21 8.14 64.31 6.86 65.91 6.92 C 68.47 8.33 70.28 10.69 72.36 12.68 C 77.56 17.81 82.58 23.11 87.87 28.14 C 88.13 29.44 86.64 30.06 86.00 30.96 C 82.86 34.05 79.76 37.19 76.64 40.30 C 72.88 36.60 69.18 32.84 65.43 29.13 C 53.28 41.22 41.25 53.43 29.02 65.45 C 32.57 69.40 36.61 72.87 40.12 76.86 C 36.23 80.62 32.49 84.54 28.59 88.30 C 21.38 80.72 13.43 73.79 6.66 65.84 C 7.33 63.40 9.45 61.94 11.11 60.21 C 28.13 43.19 45.14 26.16 62.14 9.13 Z" />
<path fill="#ffffff" opacity="1.00" d=" M 80.52 43.84 C 84.26 39.97 88.14 36.23 91.92 32.39 C 92.30 32.76 93.06 33.50 93.44 33.87 C 89.59 37.65 85.88 41.57 81.95 45.27 L 80.98 45.10 L 80.52 43.84 Z" />
<path fill="#ffffff" opacity="1.00" d=" M 85.84 48.94 C 89.49 45.04 93.39 41.38 97.12 37.56 C 97.51 37.95 98.29 38.74 98.68 39.14 C 94.83 42.99 90.96 46.84 87.12 50.70 L 85.78 49.72 L 85.84 48.94 Z" />
<path fill="#ffffff" opacity="1.00" d=" M 102.26 42.77 C 109.61 50.25 117.43 57.32 124.32 65.22 C 123.86 66.30 123.42 67.44 122.49 68.22 C 104.87 85.70 87.45 103.36 69.93 120.93 C 68.70 122.11 67.53 123.44 65.96 124.18 C 64.55 124.46 63.49 123.22 62.54 122.40 C 55.93 115.71 49.19 109.14 42.63 102.40 C 46.52 98.57 50.36 94.71 54.20 90.85 C 58.09 94.45 61.62 98.43 65.57 101.97 C 77.56 89.73 89.79 77.72 101.87 65.57 C 98.16 61.82 94.41 58.12 90.70 54.37 C 94.55 50.50 98.43 46.66 102.26 42.77 Z" />
<path fill="#ffffff" opacity="1.00" d=" M 32.46 91.90 C 36.20 88.02 40.08 84.28 43.87 80.45 C 44.25 80.82 45.00 81.56 45.38 81.93 C 41.54 85.71 37.83 89.61 33.92 93.32 C 33.55 92.96 32.83 92.26 32.46 91.90 Z" />
<path fill="#ffffff" opacity="1.00" d=" M 37.66 97.11 C 41.37 93.25 45.16 89.48 49.00 85.76 C 49.40 86.09 50.21 86.75 50.61 87.08 C 46.73 90.90 42.97 94.83 39.04 98.58 L 37.86 98.01 L 37.66 97.11 Z" />
<path fill="#000000" opacity="1.00" d=" M 63.25 5.19 C 65.64 3.68 68.39 5.20 69.98 7.12 C 87.91 24.83 105.51 42.87 123.43 60.59 C 124.87 62.06 126.74 63.73 126.43 66.01 C 126.23 67.88 124.75 69.16 123.53 70.43 C 105.43 88.40 87.53 106.56 69.43 124.52 C 68.12 126.06 66.07 126.99 64.05 126.32 C 61.95 125.44 60.57 123.53 58.98 122.00 C 41.36 104.30 23.58 86.77 6.01 69.02 C 3.99 67.22 4.04 63.87 6.04 62.07 C 23.81 44.17 41.72 26.40 59.52 8.53 C 60.71 7.36 61.82 6.09 63.25 5.19 M 62.14 9.13 C 45.14 26.16 28.13 43.19 11.11 60.21 C 9.45 61.94 7.33 63.40 6.66 65.84 C 13.43 73.79 21.38 80.72 28.59 88.30 C 32.49 84.54 36.23 80.62 40.12 76.86 C 36.61 72.87 32.57 69.40 29.02 65.45 C 41.25 53.43 53.28 41.22 65.43 29.13 C 69.18 32.84 72.88 36.60 76.64 40.30 C 79.76 37.19 82.86 34.05 86.00 30.96 C 86.64 30.06 88.13 29.44 87.87 28.14 C 82.58 23.11 77.56 17.81 72.36 12.68 C 70.28 10.69 68.47 8.33 65.91 6.92 C 64.31 6.86 63.21 8.14 62.14 9.13 M 65.42 30.87 C 53.88 42.46 42.25 53.96 30.76 65.60 C 34.22 69.01 37.62 72.46 41.07 75.88 C 52.63 64.32 64.19 52.76 75.75 41.19 C 72.32 37.74 68.89 34.29 65.42 30.87 M 80.52 43.84 L 80.98 45.10 L 81.95 45.27 C 85.88 41.57 89.59 37.65 93.44 33.87 C 93.06 33.50 92.30 32.76 91.92 32.39 C 88.14 36.23 84.26 39.97 80.52 43.84 M 85.84 48.94 L 85.78 49.72 L 87.12 50.70 C 90.96 46.84 94.83 42.99 98.68 39.14 C 98.29 38.74 97.51 37.95 97.12 37.56 C 93.39 41.38 89.49 45.04 85.84 48.94 M 102.26 42.77 C 98.43 46.66 94.55 50.50 90.70 54.37 C 94.41 58.12 98.16 61.82 101.87 65.57 C 89.79 77.72 77.56 89.73 65.57 101.97 C 61.62 98.43 58.09 94.45 54.20 90.85 C 50.36 94.71 46.52 98.57 42.63 102.40 C 49.19 109.14 55.93 115.71 62.54 122.40 C 63.49 123.22 64.55 124.46 65.96 124.18 C 67.53 123.44 68.70 122.11 69.93 120.93 C 87.45 103.36 104.87 85.70 122.49 68.22 C 123.42 67.44 123.86 66.30 124.32 65.22 C 117.43 57.32 109.61 50.25 102.26 42.77 M 44.68 79.82 C 45.13 80.10 46.04 80.66 46.49 80.94 C 57.83 69.30 69.53 58.00 80.87 46.36 C 80.58 45.96 80.01 45.15 79.72 44.75 C 67.90 56.29 56.19 67.97 44.68 79.82 M 49.92 84.73 C 50.38 85.04 51.32 85.66 51.78 85.97 C 63.22 74.65 74.60 63.27 85.92 51.84 C 85.60 51.38 84.97 50.47 84.66 50.02 C 73.07 61.58 61.52 73.18 49.92 84.73 M 55.19 90.00 C 58.57 93.42 62.01 96.79 65.38 100.23 C 77.05 88.80 88.46 77.11 100.10 65.66 C 96.82 62.08 93.28 58.76 89.87 55.31 C 78.31 66.87 66.74 78.43 55.19 90.00 M 32.46 91.90 C 32.83 92.26 33.55 92.96 33.92 93.32 C 37.83 89.61 41.54 85.71 45.38 81.93 C 45.00 81.56 44.25 80.82 43.87 80.45 C 40.08 84.28 36.20 88.02 32.46 91.90 M 37.66 97.11 L 37.86 98.01 L 39.04 98.58 C 42.97 94.83 46.73 90.90 50.61 87.08 C 50.21 86.75 49.40 86.09 49.00 85.76 C 45.16 89.48 41.37 93.25 37.66 97.11 Z" />
<path fill="#606060" opacity="1.00" d=" M 65.42 30.87 C 68.89 34.29 72.32 37.74 75.75 41.19 C 64.19 52.76 52.63 64.32 41.07 75.88 C 37.62 72.46 34.22 69.01 30.76 65.60 C 42.25 53.96 53.88 42.46 65.42 30.87 Z" />
<path fill="#606060" opacity="1.00" d=" M 44.68 79.82 C 56.19 67.97 67.90 56.29 79.72 44.75 C 80.01 45.15 80.58 45.96 80.87 46.36 C 69.53 58.00 57.83 69.30 46.49 80.94 C 46.04 80.66 45.13 80.10 44.68 79.82 Z" />
<path fill="#606060" opacity="1.00" d=" M 49.92 84.73 C 61.52 73.18 73.07 61.58 84.66 50.02 C 84.97 50.47 85.60 51.38 85.92 51.84 C 74.60 63.27 63.22 74.65 51.78 85.97 C 51.32 85.66 50.38 85.04 49.92 84.73 Z" />
<path fill="#606060" opacity="1.00" d=" M 55.19 90.00 C 66.74 78.43 78.31 66.87 89.87 55.31 C 93.28 58.76 96.82 62.08 100.10 65.66 C 88.46 77.11 77.05 88.80 65.38 100.23 C 62.01 96.79 58.57 93.42 55.19 90.00 Z" />
</g>
<g id="normal">
<path fill="#ffffff" opacity="1.00" d=" M 60.42 5.31 C 62.23 3.25 65.13 2.34 67.75 3.26 C 69.92 4.28 71.44 6.19 73.13 7.82 C 89.95 24.65 106.78 41.48 123.61 58.30 C 125.08 59.81 126.70 61.22 127.85 63.01 C 128.03 65.45 128.27 68.34 126.12 70.04 C 107.45 88.75 88.78 107.45 70.05 126.09 C 68.34 128.09 65.61 128.20 63.18 127.85 C 60.92 126.51 59.21 124.47 57.35 122.66 C 40.83 106.14 24.31 89.61 7.79 73.10 C 6.21 71.47 4.42 69.98 3.23 68.01 C 2.78 65.54 2.68 62.60 4.87 60.89 C 23.35 42.33 41.90 23.84 60.42 5.31 M 63.25 5.19 C 61.82 6.09 60.71 7.36 59.52 8.53 C 41.72 26.40 23.81 44.17 6.04 62.07 C 4.04 63.87 3.99 67.22 6.01 69.02 C 23.58 86.77 41.36 104.30 58.98 122.00 C 60.57 123.53 61.95 125.44 64.05 126.32 C 66.07 126.99 68.12 126.06 69.43 124.52 C 87.53 106.56 105.43 88.40 123.53 70.43 C 124.75 69.16 126.23 67.88 126.43 66.01 C 126.74 63.73 124.87 62.06 123.43 60.59 C 105.51 42.87 87.91 24.83 69.98 7.12 C 68.39 5.20 65.64 3.68 63.25 5.19 Z" />
<path fill="#ffffff" opacity="1.00" d=" M 62.14 9.13 C 63.21 8.14 64.31 6.86 65.91 6.92 C 68.47 8.33 70.28 10.69 72.36 12.68 C 77.56 17.81 82.58 23.11 87.87 28.14 C 88.13 29.44 86.64 30.06 86.00 30.96 C 82.86 34.05 79.76 37.19 76.64 40.30 C 72.88 36.60 69.18 32.84 65.43 29.13 C 53.28 41.22 41.25 53.43 29.02 65.45 C 32.57 69.40 36.61 72.87 40.12 76.86 C 36.23 80.62 32.49 84.54 28.59 88.30 C 21.38 80.72 13.43 73.79 6.66 65.84 C 7.33 63.40 9.45 61.94 11.11 60.21 C 28.13 43.19 45.14 26.16 62.14 9.13 Z" />
<path fill="#ffffff" opacity="1.00" d=" M 80.52 43.84 C 84.26 39.97 88.14 36.23 91.92 32.39 C 92.30 32.76 93.06 33.50 93.44 33.87 C 89.59 37.65 85.88 41.57 81.95 45.27 L 80.98 45.10 L 80.52 43.84 Z" />
<path fill="#ffffff" opacity="1.00" d=" M 85.84 48.94 C 89.49 45.04 93.39 41.38 97.12 37.56 C 97.51 37.95 98.29 38.74 98.68 39.14 C 94.83 42.99 90.96 46.84 87.12 50.70 L 85.78 49.72 L 85.84 48.94 Z" />
<path fill="#ffffff" opacity="1.00" d=" M 102.26 42.77 C 109.61 50.25 117.43 57.32 124.32 65.22 C 123.86 66.30 123.42 67.44 122.49 68.22 C 104.87 85.70 87.45 103.36 69.93 120.93 C 68.70 122.11 67.53 123.44 65.96 124.18 C 64.55 124.46 63.49 123.22 62.54 122.40 C 55.93 115.71 49.19 109.14 42.63 102.40 C 46.52 98.57 50.36 94.71 54.20 90.85 C 58.09 94.45 61.62 98.43 65.57 101.97 C 77.56 89.73 89.79 77.72 101.87 65.57 C 98.16 61.82 94.41 58.12 90.70 54.37 C 94.55 50.50 98.43 46.66 102.26 42.77 Z" />
<path fill="#ffffff" opacity="1.00" d=" M 32.46 91.90 C 36.20 88.02 40.08 84.28 43.87 80.45 C 44.25 80.82 45.00 81.56 45.38 81.93 C 41.54 85.71 37.83 89.61 33.92 93.32 C 33.55 92.96 32.83 92.26 32.46 91.90 Z" />
<path fill="#ffffff" opacity="1.00" d=" M 37.66 97.11 C 41.37 93.25 45.16 89.48 49.00 85.76 C 49.40 86.09 50.21 86.75 50.61 87.08 C 46.73 90.90 42.97 94.83 39.04 98.58 L 37.86 98.01 L 37.66 97.11 Z" />
<path fill="#000000" opacity="1.00" d=" M 63.25 5.19 C 65.64 3.68 68.39 5.20 69.98 7.12 C 87.91 24.83 105.51 42.87 123.43 60.59 C 124.87 62.06 126.74 63.73 126.43 66.01 C 126.23 67.88 124.75 69.16 123.53 70.43 C 105.43 88.40 87.53 106.56 69.43 124.52 C 68.12 126.06 66.07 126.99 64.05 126.32 C 61.95 125.44 60.57 123.53 58.98 122.00 C 41.36 104.30 23.58 86.77 6.01 69.02 C 3.99 67.22 4.04 63.87 6.04 62.07 C 23.81 44.17 41.72 26.40 59.52 8.53 C 60.71 7.36 61.82 6.09 63.25 5.19 M 62.14 9.13 C 45.14 26.16 28.13 43.19 11.11 60.21 C 9.45 61.94 7.33 63.40 6.66 65.84 C 13.43 73.79 21.38 80.72 28.59 88.30 C 32.49 84.54 36.23 80.62 40.12 76.86 C 36.61 72.87 32.57 69.40 29.02 65.45 C 41.25 53.43 53.28 41.22 65.43 29.13 C 69.18 32.84 72.88 36.60 76.64 40.30 C 79.76 37.19 82.86 34.05 86.00 30.96 C 86.64 30.06 88.13 29.44 87.87 28.14 C 82.58 23.11 77.56 17.81 72.36 12.68 C 70.28 10.69 68.47 8.33 65.91 6.92 C 64.31 6.86 63.21 8.14 62.14 9.13 M 65.42 30.87 C 53.88 42.46 42.25 53.96 30.76 65.60 C 34.22 69.01 37.62 72.46 41.07 75.88 C 52.63 64.32 64.19 52.76 75.75 41.19 C 72.32 37.74 68.89 34.29 65.42 30.87 M 80.52 43.84 L 80.98 45.10 L 81.95 45.27 C 85.88 41.57 89.59 37.65 93.44 33.87 C 93.06 33.50 92.30 32.76 91.92 32.39 C 88.14 36.23 84.26 39.97 80.52 43.84 M 85.84 48.94 L 85.78 49.72 L 87.12 50.70 C 90.96 46.84 94.83 42.99 98.68 39.14 C 98.29 38.74 97.51 37.95 97.12 37.56 C 93.39 41.38 89.49 45.04 85.84 48.94 M 102.26 42.77 C 98.43 46.66 94.55 50.50 90.70 54.37 C 94.41 58.12 98.16 61.82 101.87 65.57 C 89.79 77.72 77.56 89.73 65.57 101.97 C 61.62 98.43 58.09 94.45 54.20 90.85 C 50.36 94.71 46.52 98.57 42.63 102.40 C 49.19 109.14 55.93 115.71 62.54 122.40 C 63.49 123.22 64.55 124.46 65.96 124.18 C 67.53 123.44 68.70 122.11 69.93 120.93 C 87.45 103.36 104.87 85.70 122.49 68.22 C 123.42 67.44 123.86 66.30 124.32 65.22 C 117.43 57.32 109.61 50.25 102.26 42.77 M 44.68 79.82 C 45.13 80.10 46.04 80.66 46.49 80.94 C 57.83 69.30 69.53 58.00 80.87 46.36 C 80.58 45.96 80.01 45.15 79.72 44.75 C 67.90 56.29 56.19 67.97 44.68 79.82 M 49.92 84.73 C 50.38 85.04 51.32 85.66 51.78 85.97 C 63.22 74.65 74.60 63.27 85.92 51.84 C 85.60 51.38 84.97 50.47 84.66 50.02 C 73.07 61.58 61.52 73.18 49.92 84.73 M 55.19 90.00 C 58.57 93.42 62.01 96.79 65.38 100.23 C 77.05 88.80 88.46 77.11 100.10 65.66 C 96.82 62.08 93.28 58.76 89.87 55.31 C 78.31 66.87 66.74 78.43 55.19 90.00 M 32.46 91.90 C 32.83 92.26 33.55 92.96 33.92 93.32 C 37.83 89.61 41.54 85.71 45.38 81.93 C 45.00 81.56 44.25 80.82 43.87 80.45 C 40.08 84.28 36.20 88.02 32.46 91.90 M 37.66 97.11 L 37.86 98.01 L 39.04 98.58 C 42.97 94.83 46.73 90.90 50.61 87.08 C 50.21 86.75 49.40 86.09 49.00 85.76 C 45.16 89.48 41.37 93.25 37.66 97.11 Z" />
<path fill="#FBD200" opacity="1.00" d=" M 65.42 30.87 C 68.89 34.29 72.32 37.74 75.75 41.19 C 64.19 52.76 52.63 64.32 41.07 75.88 C 37.62 72.46 34.22 69.01 30.76 65.60 C 42.25 53.96 53.88 42.46 65.42 30.87 Z" />
<path fill="#FBD200" opacity="1.00" d=" M 44.68 79.82 C 56.19 67.97 67.90 56.29 79.72 44.75 C 80.01 45.15 80.58 45.96 80.87 46.36 C 69.53 58.00 57.83 69.30 46.49 80.94 C 46.04 80.66 45.13 80.10 44.68 79.82 Z" />
<path fill="#FBD200" opacity="1.00" d=" M 49.92 84.73 C 61.52 73.18 73.07 61.58 84.66 50.02 C 84.97 50.47 85.60 51.38 85.92 51.84 C 74.60 63.27 63.22 74.65 51.78 85.97 C 51.32 85.66 50.38 85.04 49.92 84.73 Z" />
<path fill="#FBD200" opacity="1.00" d=" M 55.19 90.00 C 66.74 78.43 78.31 66.87 89.87 55.31 C 93.28 58.76 96.82 62.08 100.10 65.66 C 88.46 77.11 77.05 88.80 65.38 100.23 C 62.01 96.79 58.57 93.42 55.19 90.00 Z" />
</g>
</svg>
