<?xml version="1.0" encoding="UTF-8" ?>
<!DOCTYPE svg PUBLIC "-//W3C//DTD SVG 1.1//EN" "http://www.w3.org/Graphics/SVG/1.1/DTD/svg11.dtd">
<svg width="170pt" height="170pt" viewBox="0 0 170 170" version="1.1" xmlns="http://www.w3.org/2000/svg">
<g id="disabled">
<path fill="#606060" opacity="1.00" d=" M 83.29 12.39 C 85.84 11.33 88.64 12.94 89.77 15.28 C 115.55 59.84 141.35 104.38 167.07 148.98 C 169.61 152.46 166.18 157.43 162.07 156.81 C 110.67 156.82 59.27 156.83 7.88 156.81 C 3.74 157.42 0.36 152.37 2.95 148.91 C 28.52 104.57 54.22 60.30 79.80 15.96 C 80.68 14.55 81.61 12.94 83.29 12.39 M 25.18 141.31 C 65.06 141.27 104.94 141.27 144.82 141.31 C 124.89 106.84 105.03 72.33 85.00 37.92 C 64.97 72.33 45.11 106.84 25.18 141.31 Z" />
<path fill="#909090" opacity="1.00" d=" M 25.18 141.31 C 45.11 106.84 64.97 72.33 85.00 37.92 C 105.03 72.33 124.89 106.84 144.82 141.31 C 104.94 141.27 65.06 141.27 25.18 141.31 M 105.35 83.10 C 96.66 87.69 87.89 92.11 79.16 96.63 C 74.26 93.89 69.40 91.06 64.31 88.69 C 61.84 87.50 58.84 87.53 56.41 88.79 C 58.46 95.77 65.80 98.22 71.34 101.77 C 72.54 102.71 74.86 103.08 74.82 104.97 C 75.34 114.53 75.75 124.10 76.24 133.67 C 77.79 134.54 79.34 135.43 80.89 136.32 C 81.55 131.72 81.91 127.06 82.76 122.50 C 84.27 118.84 86.68 115.63 88.59 112.18 C 93.58 114.46 98.53 116.81 103.48 119.17 C 103.47 122.32 103.47 125.48 103.43 128.64 C 104.17 129.10 104.92 129.55 105.67 130.02 C 107.33 127.11 109.02 124.23 110.66 121.32 C 111.37 121.38 112.80 121.50 113.52 121.56 C 113.12 120.96 112.32 119.76 111.93 119.16 C 113.64 116.20 115.36 113.23 117.06 110.25 C 116.52 109.97 115.45 109.40 114.91 109.12 C 112.15 110.65 109.40 112.21 106.69 113.83 C 102.06 110.84 97.56 107.66 92.93 104.67 C 95.02 101.19 96.81 97.50 99.14 94.17 C 102.54 91.04 106.62 88.72 110.07 85.64 C 108.49 84.79 106.94 83.91 105.35 83.10 Z" />
<path fill="#000000" opacity="1.00" d=" M 105.35 83.10 C 106.94 83.91 108.49 84.79 110.07 85.64 C 106.62 88.72 102.54 91.04 99.14 94.17 C 96.81 97.50 95.02 101.19 92.93 104.67 C 97.56 107.66 102.06 110.84 106.69 113.83 C 109.40 112.21 112.15 110.65 114.91 109.12 C 115.45 109.40 116.52 109.97 117.06 110.25 C 115.36 113.23 113.64 116.20 111.93 119.16 C 112.32 119.76 113.12 120.96 113.52 121.56 C 112.80 121.50 111.37 121.38 110.66 121.32 C 109.02 124.23 107.33 127.11 105.67 130.02 C 104.92 129.55 104.17 129.10 103.43 128.64 C 103.47 125.48 103.47 122.32 103.48 119.17 C 98.53 116.81 93.58 114.46 88.59 112.18 C 86.68 115.63 84.27 118.84 82.76 122.50 C 81.91 127.06 81.55 131.72 80.89 136.32 C 79.34 135.43 77.79 134.54 76.24 133.67 C 75.75 124.10 75.34 114.53 74.82 104.97 C 74.86 103.08 72.54 102.71 71.34 101.77 C 65.80 98.22 58.46 95.77 56.41 88.79 C 58.84 87.53 61.84 87.50 64.31 88.69 C 69.40 91.06 74.26 93.89 79.16 96.63 C 87.89 92.11 96.66 87.69 105.35 83.10 Z" />
</g>
<g id="normal">
<path fill="#cc0000" opacity="1.00" d=" M 83.29 12.39 C 85.84 11.33 88.64 12.94 89.77 15.28 C 115.55 59.84 141.35 104.38 167.07 148.98 C 169.61 152.46 166.18 157.43 162.07 156.81 C 110.67 156.82 59.27 156.83 7.88 156.81 C 3.74 157.42 0.36 152.37 2.95 148.91 C 28.52 104.57 54.22 60.30 79.80 15.96 C 80.68 14.55 81.61 12.94 83.29 12.39 M 25.18 141.31 C 65.06 141.27 104.94 141.27 144.82 141.31 C 124.89 106.84 105.03 72.33 85.00 37.92 C 64.97 72.33 45.11 106.84 25.18 141.31 Z" />
<path fill="#ffc500" opacity="1.00" d=" M 25.18 141.31 C 45.11 106.84 64.97 72.33 85.00 37.92 C 105.03 72.33 124.89 106.84 144.82 141.31 C 104.94 141.27 65.06 141.27 25.18 141.31 M 105.35 83.10 C 96.66 87.69 87.89 92.11 79.16 96.63 C 74.26 93.89 69.40 91.06 64.31 88.69 C 61.84 87.50 58.84 87.53 56.41 88.79 C 58.46 95.77 65.80 98.22 71.34 101.77 C 72.54 102.71 74.86 103.08 74.82 104.97 C 75.34 114.53 75.75 124.10 76.24 133.67 C 77.79 134.54 79.34 135.43 80.89 136.32 C 81.55 131.72 81.91 127.06 82.76 122.50 C 84.27 118.84 86.68 115.63 88.59 112.18 C 93.58 114.46 98.53 116.81 103.48 119.17 C 103.47 122.32 103.47 125.48 103.43 128.64 C 104.17 129.10 104.92 129.55 105.67 130.02 C 107.33 127.11 109.02 124.23 110.66 121.32 C 111.37 121.38 112.80 121.50 113.52 121.56 C 113.12 120.96 112.32 119.76 111.93 119.16 C 113.64 116.20 115.36 113.23 117.06 110.25 C 116.52 109.97 115.45 109.40 114.91 109.12 C 112.15 110.65 109.40 112.21 106.69 113.83 C 102.06 110.84 97.56 107.66 92.93 104.67 C 95.02 101.19 96.81 97.50 99.14 94.17 C 102.54 91.04 106.62 88.72 110.07 85.64 C 108.49 84.79 106.94 83.91 105.35 83.10 Z" />
<path fill="#000000" opacity="1.00" d=" M 105.35 83.10 C 106.94 83.91 108.49 84.79 110.07 85.64 C 106.62 88.72 102.54 91.04 99.14 94.17 C 96.81 97.50 95.02 101.19 92.93 104.67 C 97.56 107.66 102.06 110.84 106.69 113.83 C 109.40 112.21 112.15 110.65 114.91 109.12 C 115.45 109.40 116.52 109.97 117.06 110.25 C 115.36 113.23 113.64 116.20 111.93 119.16 C 112.32 119.76 113.12 120.96 113.52 121.56 C 112.80 121.50 111.37 121.38 110.66 121.32 C 109.02 124.23 107.33 127.11 105.67 130.02 C 104.92 129.55 104.17 129.10 103.43 128.64 C 103.47 125.48 103.47 122.32 103.48 119.17 C 98.53 116.81 93.58 114.46 88.59 112.18 C 86.68 115.63 84.27 118.84 82.76 122.50 C 81.91 127.06 81.55 131.72 80.89 136.32 C 79.34 135.43 77.79 134.54 76.24 133.67 C 75.75 124.10 75.34 114.53 74.82 104.97 C 74.86 103.08 72.54 102.71 71.34 101.77 C 65.80 98.22 58.46 95.77 56.41 88.79 C 58.84 87.53 61.84 87.50 64.31 88.69 C 69.40 91.06 74.26 93.89 79.16 96.63 C 87.89 92.11 96.66 87.69 105.35 83.10 Z" />
</g>
</svg>
