<?xml version="1.0" encoding="UTF-8" ?>
<!DOCTYPE svg PUBLIC "-//W3C//DTD SVG 1.1//EN" "http://www.w3.org/Graphics/SVG/1.1/DTD/svg11.dtd">
<svg width="149pt" height="149pt" viewBox="0 0 149 149" version="1.1" xmlns="http://www.w3.org/2000/svg">
<g id="disabled">
<path fill="#606060" opacity="1.00" d=" M 65.57 2.60 C 82.30 0.95 99.90 3.72 114.33 12.68 C 126.77 20.29 136.24 32.30 141.43 45.86 C 148.09 63.17 148.37 82.82 142.40 100.36 C 137.06 115.94 126.24 129.90 111.64 137.76 C 97.85 145.47 81.56 147.70 65.98 146.31 C 48.61 144.90 31.54 137.18 20.03 123.91 C -3.29 97.33 -3.78 53.87 18.64 26.60 C 29.85 12.29 47.71 4.22 65.57 2.60 M 42.76 27.91 C 50.24 36.88 57.78 45.80 65.23 54.80 C 66.08 55.68 66.73 56.88 67.93 57.33 L 67.32 57.34 C 69.68 60.04 71.98 62.79 74.26 65.56 C 74.93 66.36 75.61 67.15 76.28 67.95 C 71.91 68.04 67.31 67.72 63.28 69.74 C 62.14 68.40 61.01 67.08 59.88 65.75 C 57.54 62.93 55.19 60.12 52.82 57.33 C 46.67 49.90 40.41 42.57 34.29 35.12 C 17.47 51.53 13.37 78.99 24.18 99.77 C 32.02 115.52 47.63 127.07 64.99 129.91 C 79.19 132.44 94.26 129.05 106.17 120.96 C 99.70 113.21 93.21 105.47 86.70 97.75 C 90.10 96.12 93.03 93.57 95.19 90.48 C 101.64 98.25 108.24 105.90 114.60 113.74 C 123.62 104.83 129.16 92.62 130.44 80.04 C 131.95 65.65 127.55 50.74 118.51 39.44 C 109.63 28.17 96.29 20.53 82.06 18.69 C 68.40 16.77 54.15 20.15 42.76 27.91 Z" />
<path fill="#606060" opacity="1.00" d=" M 68.94 76.56 C 73.64 76.30 78.34 76.37 83.04 76.41 C 85.41 78.55 87.31 81.13 89.37 83.56 C 87.87 87.20 84.62 89.64 81.04 91.02 C 77.05 86.16 72.97 81.38 68.94 76.56 Z" />
<path fill="#909090" opacity="1.00" d=" M 42.76 27.91 C 54.15 20.15 68.40 16.77 82.06 18.69 C 96.29 20.53 109.63 28.17 118.51 39.44 C 127.55 50.74 131.95 65.65 130.44 80.04 C 129.16 92.62 123.62 104.83 114.60 113.74 C 108.24 105.90 101.64 98.25 95.19 90.48 C 98.03 86.37 99.12 81.34 98.95 76.40 C 102.75 76.40 106.54 76.38 110.33 76.42 C 112.93 80.66 118.42 83.26 123.15 80.95 C 129.31 78.53 130.82 69.47 125.83 65.15 C 121.32 60.63 113.29 62.40 110.43 67.91 C 105.73 67.97 101.03 67.94 96.32 67.93 C 93.26 63.11 88.56 59.26 82.94 57.94 C 78.02 56.77 72.92 57.46 67.93 57.33 C 66.73 56.88 66.08 55.68 65.23 54.80 C 57.78 45.80 50.24 36.88 42.76 27.91 Z" />
<path fill="#909090" opacity="1.00" d=" M 24.18 99.77 C 13.37 78.99 17.47 51.53 34.29 35.12 C 40.41 42.57 46.67 49.90 52.82 57.33 C 42.96 58.12 33.22 53.67 26.45 46.63 C 26.44 56.53 26.45 66.43 26.45 76.32 C 31.67 70.80 38.58 67.26 45.99 65.76 C 50.61 65.55 55.25 65.72 59.88 65.75 C 61.01 67.08 62.14 68.40 63.28 69.74 C 56.68 72.82 52.42 80.56 54.53 87.75 C 56.31 94.52 62.93 99.28 69.78 99.73 C 75.45 99.99 81.44 100.26 86.70 97.75 C 93.21 105.47 99.70 113.21 106.17 120.96 C 94.26 129.05 79.19 132.44 64.99 129.91 C 47.63 127.07 32.02 115.52 24.18 99.77 Z" />
<path fill="#909090" opacity="1.00" d=" M 74.26 65.56 C 78.00 65.54 81.80 65.98 85.13 67.81 C 82.18 67.96 79.23 67.95 76.28 67.95 C 75.61 67.15 74.93 66.36 74.26 65.56 Z" />
<path fill="#909090" opacity="1.00" d=" M 83.04 76.41 C 85.50 76.39 87.97 76.39 90.43 76.42 C 90.60 78.90 90.24 81.35 89.50 83.72 L 89.37 83.56 C 87.31 81.13 85.41 78.55 83.04 76.41 Z" />
<path fill="#909090" opacity="1.00" d=" M 62.49 82.96 C 62.95 79.63 65.96 77.51 68.94 76.56 C 72.97 81.38 77.05 86.16 81.04 91.02 C 77.37 91.46 73.66 91.52 69.98 91.23 C 65.90 90.96 61.83 87.27 62.49 82.96 Z" />
<path fill="#000000" opacity="1.00" d=" M 26.45 46.63 C 33.22 53.67 42.96 58.12 52.82 57.33 C 55.19 60.12 57.54 62.93 59.88 65.75 C 55.25 65.72 50.61 65.55 45.99 65.76 C 38.58 67.26 31.67 70.80 26.45 76.32 C 26.45 66.43 26.44 56.53 26.45 46.63 Z" />
<path fill="#000000" opacity="1.00" d=" M 67.93 57.33 C 72.92 57.46 78.02 56.77 82.94 57.94 C 88.56 59.26 93.26 63.11 96.32 67.93 C 101.03 67.94 105.73 67.97 110.43 67.91 C 113.29 62.40 121.32 60.63 125.83 65.15 C 130.82 69.47 129.31 78.53 123.15 80.95 C 118.42 83.26 112.93 80.66 110.33 76.42 C 106.54 76.38 102.75 76.40 98.95 76.40 C 99.12 81.34 98.03 86.37 95.19 90.48 C 93.03 93.57 90.10 96.12 86.70 97.75 C 81.44 100.26 75.45 99.99 69.78 99.73 C 62.93 99.28 56.31 94.52 54.53 87.75 C 52.42 80.56 56.68 72.82 63.28 69.74 C 67.31 67.72 71.91 68.04 76.28 67.95 C 79.23 67.95 82.18 67.96 85.13 67.81 C 81.80 65.98 78.00 65.54 74.26 65.56 C 71.98 62.79 69.68 60.04 67.32 57.34 L 67.93 57.33 M 68.94 76.56 C 65.96 77.51 62.95 79.63 62.49 82.96 C 61.83 87.27 65.90 90.96 69.98 91.23 C 73.66 91.52 77.37 91.46 81.04 91.02 C 84.62 89.64 87.87 87.20 89.37 83.56 L 89.50 83.72 C 90.24 81.35 90.60 78.90 90.43 76.42 C 87.97 76.39 85.50 76.39 83.04 76.41 C 78.34 76.37 73.64 76.30 68.94 76.56 Z" />
</g>
<g id="normal">
<path fill="#cc0000" opacity="1.00" d=" M 65.57 2.60 C 82.30 0.95 99.90 3.72 114.33 12.68 C 126.77 20.29 136.24 32.30 141.43 45.86 C 148.09 63.17 148.37 82.82 142.40 100.36 C 137.06 115.94 126.24 129.90 111.64 137.76 C 97.85 145.47 81.56 147.70 65.98 146.31 C 48.61 144.90 31.54 137.18 20.03 123.91 C -3.29 97.33 -3.78 53.87 18.64 26.60 C 29.85 12.29 47.71 4.22 65.57 2.60 M 42.76 27.91 C 50.24 36.88 57.78 45.80 65.23 54.80 C 66.08 55.68 66.73 56.88 67.93 57.33 L 67.32 57.34 C 69.68 60.04 71.98 62.79 74.26 65.56 C 74.93 66.36 75.61 67.15 76.28 67.95 C 71.91 68.04 67.31 67.72 63.28 69.74 C 62.14 68.40 61.01 67.08 59.88 65.75 C 57.54 62.93 55.19 60.12 52.82 57.33 C 46.67 49.90 40.41 42.57 34.29 35.12 C 17.47 51.53 13.37 78.99 24.18 99.77 C 32.02 115.52 47.63 127.07 64.99 129.91 C 79.19 132.44 94.26 129.05 106.17 120.96 C 99.70 113.21 93.21 105.47 86.70 97.75 C 90.10 96.12 93.03 93.57 95.19 90.48 C 101.64 98.25 108.24 105.90 114.60 113.74 C 123.62 104.83 129.16 92.62 130.44 80.04 C 131.95 65.65 127.55 50.74 118.51 39.44 C 109.63 28.17 96.29 20.53 82.06 18.69 C 68.40 16.77 54.15 20.15 42.76 27.91 Z" />
<path fill="#cc0000" opacity="1.00" d=" M 68.94 76.56 C 73.64 76.30 78.34 76.37 83.04 76.41 C 85.41 78.55 87.31 81.13 89.37 83.56 C 87.87 87.20 84.62 89.64 81.04 91.02 C 77.05 86.16 72.97 81.38 68.94 76.56 Z" />
<path fill="#ffffff" opacity="1.00" d=" M 42.76 27.91 C 54.15 20.15 68.40 16.77 82.06 18.69 C 96.29 20.53 109.63 28.17 118.51 39.44 C 127.55 50.74 131.95 65.65 130.44 80.04 C 129.16 92.62 123.62 104.83 114.60 113.74 C 108.24 105.90 101.64 98.25 95.19 90.48 C 98.03 86.37 99.12 81.34 98.95 76.40 C 102.75 76.40 106.54 76.38 110.33 76.42 C 112.93 80.66 118.42 83.26 123.15 80.95 C 129.31 78.53 130.82 69.47 125.83 65.15 C 121.32 60.63 113.29 62.40 110.43 67.91 C 105.73 67.97 101.03 67.94 96.32 67.93 C 93.26 63.11 88.56 59.26 82.94 57.94 C 78.02 56.77 72.92 57.46 67.93 57.33 C 66.73 56.88 66.08 55.68 65.23 54.80 C 57.78 45.80 50.24 36.88 42.76 27.91 Z" />
<path fill="#ffffff" opacity="1.00" d=" M 24.18 99.77 C 13.37 78.99 17.47 51.53 34.29 35.12 C 40.41 42.57 46.67 49.90 52.82 57.33 C 42.96 58.12 33.22 53.67 26.45 46.63 C 26.44 56.53 26.45 66.43 26.45 76.32 C 31.67 70.80 38.58 67.26 45.99 65.76 C 50.61 65.55 55.25 65.72 59.88 65.75 C 61.01 67.08 62.14 68.40 63.28 69.74 C 56.68 72.82 52.42 80.56 54.53 87.75 C 56.31 94.52 62.93 99.28 69.78 99.73 C 75.45 99.99 81.44 100.26 86.70 97.75 C 93.21 105.47 99.70 113.21 106.17 120.96 C 94.26 129.05 79.19 132.44 64.99 129.91 C 47.63 127.07 32.02 115.52 24.18 99.77 Z" />
<path fill="#ffffff" opacity="1.00" d=" M 74.26 65.56 C 78.00 65.54 81.80 65.98 85.13 67.81 C 82.18 67.96 79.23 67.95 76.28 67.95 C 75.61 67.15 74.93 66.36 74.26 65.56 Z" />
<path fill="#ffffff" opacity="1.00" d=" M 83.04 76.41 C 85.50 76.39 87.97 76.39 90.43 76.42 C 90.60 78.90 90.24 81.35 89.50 83.72 L 89.37 83.56 C 87.31 81.13 85.41 78.55 83.04 76.41 Z" />
<path fill="#ffffff" opacity="1.00" d=" M 62.49 82.96 C 62.95 79.63 65.96 77.51 68.94 76.56 C 72.97 81.38 77.05 86.16 81.04 91.02 C 77.37 91.46 73.66 91.52 69.98 91.23 C 65.90 90.96 61.83 87.27 62.49 82.96 Z" />
<path fill="#000000" opacity="1.00" d=" M 26.45 46.63 C 33.22 53.67 42.96 58.12 52.82 57.33 C 55.19 60.12 57.54 62.93 59.88 65.75 C 55.25 65.72 50.61 65.55 45.99 65.76 C 38.58 67.26 31.67 70.80 26.45 76.32 C 26.45 66.43 26.44 56.53 26.45 46.63 Z" />
<path fill="#000000" opacity="1.00" d=" M 67.93 57.33 C 72.92 57.46 78.02 56.77 82.94 57.94 C 88.56 59.26 93.26 63.11 96.32 67.93 C 101.03 67.94 105.73 67.97 110.43 67.91 C 113.29 62.40 121.32 60.63 125.83 65.15 C 130.82 69.47 129.31 78.53 123.15 80.95 C 118.42 83.26 112.93 80.66 110.33 76.42 C 106.54 76.38 102.75 76.40 98.95 76.40 C 99.12 81.34 98.03 86.37 95.19 90.48 C 93.03 93.57 90.10 96.12 86.70 97.75 C 81.44 100.26 75.45 99.99 69.78 99.73 C 62.93 99.28 56.31 94.52 54.53 87.75 C 52.42 80.56 56.68 72.82 63.28 69.74 C 67.31 67.72 71.91 68.04 76.28 67.95 C 79.23 67.95 82.18 67.96 85.13 67.81 C 81.80 65.98 78.00 65.54 74.26 65.56 C 71.98 62.79 69.68 60.04 67.32 57.34 L 67.93 57.33 M 68.94 76.56 C 65.96 77.51 62.95 79.63 62.49 82.96 C 61.83 87.27 65.90 90.96 69.98 91.23 C 73.66 91.52 77.37 91.46 81.04 91.02 C 84.62 89.64 87.87 87.20 89.37 83.56 L 89.50 83.72 C 90.24 81.35 90.60 78.90 90.43 76.42 C 87.97 76.39 85.50 76.39 83.04 76.41 C 78.34 76.37 73.64 76.30 68.94 76.56 Z" />
</g>
</svg>
