<?xml version="1.0" encoding="UTF-8" ?>
<!DOCTYPE svg PUBLIC "-//W3C//DTD SVG 1.1//EN" "http://www.w3.org/Graphics/SVG/1.1/DTD/svg11.dtd">
<svg width="130pt" height="130pt" viewBox="0 0 130 130" version="1.1" xmlns="http://www.w3.org/2000/svg">
<g id="disabled">
<path fill="#909090" opacity="1.00" d=" M 2.70 0.00 L 123.82 0.00 C 125.69 1.14 128.02 2.51 127.51 5.08 C 127.55 44.41 127.52 83.75 127.53 123.08 C 127.61 125.40 125.41 127.68 123.07 127.52 C 83.75 127.53 44.42 127.55 5.10 127.51 C 2.53 128.02 1.16 125.71 0.00 123.87 L 0.00 2.66 C 1.29 2.33 2.41 1.33 2.70 0.00 M 3.24 2.36 C 1.72 3.38 1.98 5.40 1.92 6.98 C 2.01 45.37 1.90 83.77 2.05 122.16 C 1.91 124.24 4.13 125.31 5.93 125.00 C 44.32 125.00 82.71 125.00 121.11 125.00 C 122.89 125.31 125.09 124.18 124.95 122.14 C 125.08 83.44 124.95 44.74 125.01 6.04 C 125.20 4.52 124.69 2.61 123.05 2.15 C 120.37 1.81 117.66 2.00 114.97 1.97 C 80.29 1.98 45.61 1.93 10.93 1.93 C 8.37 2.00 5.73 1.63 3.24 2.36 Z" />
<path fill="#000000" opacity="1.00" d=" M 3.24 2.36 C 5.73 1.63 8.37 2.00 10.93 1.93 C 45.61 1.93 80.29 1.98 114.97 1.97 C 117.66 2.00 120.37 1.81 123.05 2.15 C 124.69 2.61 125.20 4.52 125.01 6.04 C 124.95 44.74 125.08 83.44 124.95 122.14 C 125.09 124.18 122.89 125.31 121.11 125.00 C 82.71 125.00 44.32 125.00 5.93 125.00 C 4.13 125.31 1.91 124.24 2.05 122.16 C 1.90 83.77 2.01 45.37 1.92 6.98 C 1.98 5.40 1.72 3.38 3.24 2.36 M 5.11 5.09 C 5.19 44.06 4.97 83.03 5.00 122.00 C 44.00 122.00 83.00 122.00 122.00 122.00 C 122.00 83.01 122.01 44.01 121.99 5.01 C 83.03 5.01 44.07 5.21 5.11 5.09 Z" />
<path fill="#000000" opacity="1.00" d=" M 30.74 19.54 C 43.46 19.09 56.23 19.53 68.97 19.37 C 77.52 19.35 87.00 20.17 93.54 26.33 C 105.46 36.83 102.15 58.94 88.03 65.93 C 82.25 69.17 75.44 68.94 69.03 69.15 C 62.63 69.24 56.23 69.21 49.82 69.16 C 49.52 81.63 49.83 94.12 49.67 106.60 C 43.49 106.61 37.31 106.51 31.12 106.67 C 30.66 77.63 31.13 48.58 30.74 19.54 M 49.50 33.58 C 49.65 40.77 49.48 47.97 49.60 55.17 C 56.73 55.23 63.86 55.17 71.00 55.21 C 74.15 55.21 77.47 54.95 80.20 53.23 C 85.81 49.75 86.84 40.59 81.69 36.25 C 78.20 33.30 73.31 33.45 69.01 33.41 C 62.51 33.53 55.99 33.23 49.50 33.58 Z" />
<path fill="#909090" opacity="1.00" d=" M 5.11 5.09 C 44.07 5.21 83.03 5.01 121.99 5.01 C 122.01 44.01 122.00 83.01 122.00 122.00 C 83.00 122.00 44.00 122.00 5.00 122.00 C 4.97 83.03 5.19 44.06 5.11 5.09 M 30.74 19.54 C 31.13 48.58 30.66 77.63 31.12 106.67 C 37.31 106.51 43.49 106.61 49.67 106.60 C 49.83 94.12 49.52 81.63 49.82 69.16 C 56.23 69.21 62.63 69.24 69.03 69.15 C 75.44 68.94 82.25 69.17 88.03 65.93 C 102.15 58.94 105.46 36.83 93.54 26.33 C 87.00 20.17 77.52 19.35 68.97 19.37 C 56.23 19.53 43.46 19.09 30.74 19.54 Z" />
<path fill="#909090" opacity="1.00" d=" M 49.50 33.58 C 55.99 33.23 62.51 33.53 69.01 33.41 C 73.31 33.45 78.20 33.30 81.69 36.25 C 86.84 40.59 85.81 49.75 80.20 53.23 C 77.47 54.95 74.15 55.21 71.00 55.21 C 63.86 55.17 56.73 55.23 49.60 55.17 C 49.48 47.97 49.65 40.77 49.50 33.58 Z" />
</g>
<g id="normal">
<path fill="#000000" opacity="1.00" d=" M 2.70 0.00 L 123.82 0.00 C 125.69 1.14 128.02 2.51 127.51 5.08 C 127.55 44.41 127.52 83.75 127.53 123.08 C 127.61 125.40 125.41 127.68 123.07 127.52 C 83.75 127.53 44.42 127.55 5.10 127.51 C 2.53 128.02 1.16 125.71 0.00 123.87 L 0.00 2.66 C 1.29 2.33 2.41 1.33 2.70 0.00 M 3.24 2.36 C 1.72 3.38 1.98 5.40 1.92 6.98 C 2.01 45.37 1.90 83.77 2.05 122.16 C 1.91 124.24 4.13 125.31 5.93 125.00 C 44.32 125.00 82.71 125.00 121.11 125.00 C 122.89 125.31 125.09 124.18 124.95 122.14 C 125.08 83.44 124.95 44.74 125.01 6.04 C 125.20 4.52 124.69 2.61 123.05 2.15 C 120.37 1.81 117.66 2.00 114.97 1.97 C 80.29 1.98 45.61 1.93 10.93 1.93 C 8.37 2.00 5.73 1.63 3.24 2.36 Z" />
<path fill="#ffffff" opacity="1.00" d=" M 3.24 2.36 C 5.73 1.63 8.37 2.00 10.93 1.93 C 45.61 1.93 80.29 1.98 114.97 1.97 C 117.66 2.00 120.37 1.81 123.05 2.15 C 124.69 2.61 125.20 4.52 125.01 6.04 C 124.95 44.74 125.08 83.44 124.95 122.14 C 125.09 124.18 122.89 125.31 121.11 125.00 C 82.71 125.00 44.32 125.00 5.93 125.00 C 4.13 125.31 1.91 124.24 2.05 122.16 C 1.90 83.77 2.01 45.37 1.92 6.98 C 1.98 5.40 1.72 3.38 3.24 2.36 M 5.11 5.09 C 5.19 44.06 4.97 83.03 5.00 122.00 C 44.00 122.00 83.00 122.00 122.00 122.00 C 122.00 83.01 122.01 44.01 121.99 5.01 C 83.03 5.01 44.07 5.21 5.11 5.09 Z" />
<path fill="#ffffff" opacity="1.00" d=" M 30.74 19.54 C 43.46 19.09 56.23 19.53 68.97 19.37 C 77.52 19.35 87.00 20.17 93.54 26.33 C 105.46 36.83 102.15 58.94 88.03 65.93 C 82.25 69.17 75.44 68.94 69.03 69.15 C 62.63 69.24 56.23 69.21 49.82 69.16 C 49.52 81.63 49.83 94.12 49.67 106.60 C 43.49 106.61 37.31 106.51 31.12 106.67 C 30.66 77.63 31.13 48.58 30.74 19.54 M 49.50 33.58 C 49.65 40.77 49.48 47.97 49.60 55.17 C 56.73 55.23 63.86 55.17 71.00 55.21 C 74.15 55.21 77.47 54.95 80.20 53.23 C 85.81 49.75 86.84 40.59 81.69 36.25 C 78.20 33.30 73.31 33.45 69.01 33.41 C 62.51 33.53 55.99 33.23 49.50 33.58 Z" />
<path fill="#0071bc" opacity="1.00" d=" M 5.11 5.09 C 44.07 5.21 83.03 5.01 121.99 5.01 C 122.01 44.01 122.00 83.01 122.00 122.00 C 83.00 122.00 44.00 122.00 5.00 122.00 C 4.97 83.03 5.19 44.06 5.11 5.09 M 30.74 19.54 C 31.13 48.58 30.66 77.63 31.12 106.67 C 37.31 106.51 43.49 106.61 49.67 106.60 C 49.83 94.12 49.52 81.63 49.82 69.16 C 56.23 69.21 62.63 69.24 69.03 69.15 C 75.44 68.94 82.25 69.17 88.03 65.93 C 102.15 58.94 105.46 36.83 93.54 26.33 C 87.00 20.17 77.52 19.35 68.97 19.37 C 56.23 19.53 43.46 19.09 30.74 19.54 Z" />
<path fill="#0071bc" opacity="1.00" d=" M 49.50 33.58 C 55.99 33.23 62.51 33.53 69.01 33.41 C 73.31 33.45 78.20 33.30 81.69 36.25 C 86.84 40.59 85.81 49.75 80.20 53.23 C 77.47 54.95 74.15 55.21 71.00 55.21 C 63.86 55.17 56.73 55.23 49.60 55.17 C 49.48 47.97 49.65 40.77 49.50 33.58 Z" />
</g>
</svg>
