<?xml version="1.0" encoding="UTF-8" ?>
<!DOCTYPE svg PUBLIC "-//W3C//DTD SVG 1.1//EN" "http://www.w3.org/Graphics/SVG/1.1/DTD/svg11.dtd">
<svg width="170pt" height="170pt" viewBox="0 0 170 170" version="1.1" xmlns="http://www.w3.org/2000/svg">
<g id="disabled">
<path fill="#000000" opacity="1.00" d=" M 0.00 0.00 L 0.30 0.00 C 0.23 0.10 0.08 0.31 0.00 0.41 L 0.00 0.00 Z" />
<path fill="#000000" opacity="1.00" d=" M 86.85 87.51 C 89.83 86.59 93.82 84.96 96.36 87.66 C 100.09 92.31 103.75 97.02 107.41 101.72 C 109.81 104.65 106.33 107.93 105.91 110.99 C 107.82 115.18 111.08 118.70 112.79 123.01 C 112.51 125.24 110.03 126.24 108.57 127.67 C 111.22 128.25 113.92 129.15 116.64 128.40 C 120.18 127.48 123.91 126.29 127.52 127.63 C 130.83 128.85 134.33 128.65 137.79 128.62 C 138.05 129.08 138.56 130.01 138.82 130.48 C 135.00 131.02 131.08 131.09 127.39 129.80 C 124.13 128.64 120.70 129.46 117.51 130.40 C 114.43 131.39 111.25 130.51 108.24 129.74 C 107.43 128.17 105.38 128.69 104.07 129.20 C 101.34 129.58 98.75 130.65 96.00 130.86 C 92.57 131.00 89.45 129.16 86.03 129.19 C 82.94 129.30 80.10 130.78 77.01 130.87 C 73.85 130.83 70.94 129.33 67.81 129.12 C 67.80 129.65 67.78 130.73 67.77 131.26 C 70.24 131.58 72.59 132.38 75.02 132.89 C 79.09 133.71 82.84 131.06 86.89 131.36 C 89.68 131.59 92.28 132.77 95.06 133.05 C 98.45 133.12 101.57 131.34 104.95 131.34 C 108.08 131.40 110.96 132.86 114.07 133.07 C 117.44 132.98 120.55 131.26 123.93 131.34 C 127.02 131.49 129.88 132.93 132.98 133.07 C 135.29 133.03 137.58 132.65 139.88 132.41 C 140.12 132.87 140.60 133.79 140.84 134.24 C 136.57 135.03 132.07 135.79 127.87 134.26 C 124.27 132.88 120.51 133.86 116.97 134.86 C 113.24 135.96 109.65 134.06 106.00 133.61 C 102.22 133.12 98.77 135.40 95.00 135.18 C 91.93 134.98 89.07 133.49 85.97 133.53 C 82.93 133.65 80.12 135.09 77.08 135.20 C 73.86 135.20 70.89 133.71 67.71 133.52 C 67.74 134.05 67.80 135.13 67.83 135.66 C 70.91 136.07 73.84 137.30 76.96 137.40 C 80.06 137.32 82.93 135.84 86.03 135.73 C 89.44 135.71 92.57 137.52 95.99 137.39 C 99.05 137.21 101.89 135.76 104.98 135.73 C 108.07 135.81 110.92 137.26 114.00 137.40 C 117.44 137.46 120.59 135.62 124.04 135.74 C 127.09 135.92 129.92 137.37 132.99 137.40 C 135.98 137.36 138.90 136.66 141.85 136.23 L 142.79 137.08 L 142.71 138.19 C 139.49 138.73 136.28 139.47 133.00 139.59 C 129.90 139.59 127.05 138.08 123.97 137.94 C 120.57 137.83 117.46 139.63 114.07 139.59 C 110.94 139.50 108.06 137.97 104.93 137.93 C 101.89 137.96 99.09 139.40 96.07 139.58 C 92.62 139.76 89.47 137.89 86.03 137.93 C 82.28 138.06 78.74 140.24 74.93 139.41 C 72.53 138.87 70.18 138.10 67.73 137.79 C 66.81 140.85 70.14 140.25 72.07 140.68 C 72.22 140.93 72.51 141.43 72.66 141.68 C 72.52 141.83 72.24 142.12 72.11 142.26 C 70.51 140.27 68.05 141.76 65.99 141.36 C 52.41 141.45 38.82 141.18 25.25 141.50 C 25.30 140.39 26.02 139.50 26.52 138.56 C 34.77 124.40 42.91 110.16 51.20 96.02 C 56.74 96.01 62.27 95.95 67.81 96.04 C 67.82 106.33 67.78 116.61 67.83 126.90 C 70.31 127.30 72.71 128.08 75.19 128.52 C 79.51 129.36 83.51 126.33 87.83 127.14 C 91.32 127.74 94.83 129.42 98.41 128.27 C 100.40 127.59 102.66 127.56 104.50 126.57 C 100.99 127.85 97.51 124.23 99.52 120.89 C 94.31 113.59 88.48 106.63 82.95 99.53 C 81.12 99.89 78.99 99.63 78.08 97.75 C 77.05 96.28 78.42 94.75 78.21 93.23 C 77.70 92.63 76.67 91.43 76.16 90.83 C 79.31 88.88 83.02 84.56 86.85 87.51 M 89.64 90.99 C 92.00 93.86 94.02 97.34 96.78 99.67 C 98.29 98.38 99.88 97.20 101.43 95.97 C 99.80 93.51 97.85 91.26 96.01 88.96 C 94.20 86.85 89.52 88.10 89.64 90.99 M 80.23 95.18 C 78.75 96.63 81.73 98.52 82.51 96.67 C 83.40 95.44 81.08 93.88 80.23 95.18 M 97.44 100.98 C 99.89 103.75 101.76 107.52 104.77 109.51 C 105.36 107.33 106.93 105.38 107.03 103.11 C 105.43 101.14 104.09 98.56 102.07 97.17 C 100.59 98.51 98.74 99.47 97.44 100.98 M 101.39 122.56 C 100.95 124.12 102.49 124.89 103.75 124.16 C 103.72 123.61 103.65 122.51 103.62 121.95 C 103.06 122.11 101.95 122.41 101.39 122.56 Z" />
<path fill="#000000" opacity="1.00" d=" M 80.64 141.47 C 84.33 139.43 88.67 139.91 92.40 141.55 C 88.49 141.25 84.56 141.32 80.64 141.47 Z" />
<path fill="#000000" opacity="1.00" d=" M 98.68 141.56 C 100.77 141.07 102.73 139.90 104.96 140.06 C 107.23 139.89 109.18 141.22 111.36 141.56 C 107.14 141.29 102.90 141.24 98.68 141.56 Z" />
<path fill="#000000" opacity="1.00" d=" M 117.65 141.53 C 121.34 139.73 125.69 139.58 129.38 141.49 C 125.47 141.30 121.55 141.26 117.65 141.53 Z" />
<path fill="#000000" opacity="1.00" d=" M 136.51 141.52 C 139.03 141.00 141.49 140.23 144.09 140.15 C 144.60 140.54 145.10 140.95 145.59 141.38 C 142.56 141.25 139.53 141.45 136.51 141.52 Z" />
<path fill="#606060" opacity="1.00" d=" M 83.40 12.35 C 85.94 11.37 88.70 12.98 89.81 15.29 C 115.56 59.83 141.33 104.35 167.08 148.88 C 169.44 152.00 166.84 156.80 163.03 156.80 C 111.02 156.83 59.02 156.83 7.01 156.80 C 4.08 156.77 1.64 153.87 2.08 150.98 C 2.84 148.64 4.30 146.64 5.48 144.51 C 30.38 101.44 55.31 58.38 80.21 15.31 C 80.95 14.03 81.95 12.82 83.40 12.35 M 83.37 40.28 C 72.69 58.88 61.85 77.39 51.20 96.02 C 42.91 110.16 34.77 124.40 26.52 138.56 C 26.02 139.50 25.30 140.39 25.25 141.50 C 38.82 141.18 52.41 141.45 65.99 141.36 C 68.05 141.76 70.51 140.27 72.11 142.26 C 72.24 142.12 72.52 141.83 72.66 141.68 L 72.72 142.02 C 75.21 140.83 78.01 141.91 80.64 141.47 C 84.56 141.32 88.49 141.25 92.40 141.55 C 94.49 141.53 96.58 141.53 98.68 141.56 C 102.90 141.24 107.14 141.29 111.36 141.56 C 113.45 141.52 115.55 141.55 117.65 141.53 C 121.55 141.26 125.47 141.30 129.38 141.49 C 131.76 141.57 134.13 141.54 136.51 141.52 C 139.53 141.45 142.56 141.25 145.59 141.38 C 145.10 140.95 144.60 140.54 144.09 140.15 C 143.92 139.67 143.57 138.72 143.40 138.25 L 142.71 138.19 L 142.79 137.08 L 141.85 136.23 C 141.59 135.73 141.09 134.74 140.84 134.24 C 140.60 133.79 140.12 132.87 139.88 132.41 C 139.62 131.93 139.09 130.96 138.82 130.48 C 138.56 130.01 138.05 129.08 137.79 128.62 C 120.31 98.51 102.84 68.39 85.52 38.19 C 84.11 37.83 83.97 39.43 83.37 40.28 Z" />
<path fill="#909090" opacity="1.00" d=" M 83.37 40.28 C 83.97 39.43 84.11 37.83 85.52 38.19 C 102.84 68.39 120.31 98.51 137.79 128.62 C 134.33 128.65 130.83 128.85 127.52 127.63 C 123.91 126.29 120.18 127.48 116.64 128.40 C 113.92 129.15 111.22 128.25 108.57 127.67 C 110.03 126.24 112.51 125.24 112.79 123.01 C 111.08 118.70 107.82 115.18 105.91 110.99 C 106.33 107.93 109.81 104.65 107.41 101.72 C 103.75 97.02 100.09 92.31 96.36 87.66 C 93.82 84.96 89.83 86.59 86.85 87.51 C 83.02 84.56 79.31 88.88 76.16 90.83 C 76.67 91.43 77.70 92.63 78.21 93.23 C 78.42 94.75 77.05 96.28 78.08 97.75 C 78.99 99.63 81.12 99.89 82.95 99.53 C 88.48 106.63 94.31 113.59 99.52 120.89 C 97.51 124.23 100.99 127.85 104.50 126.57 C 102.66 127.56 100.40 127.59 98.41 128.27 C 94.83 129.42 91.32 127.74 87.83 127.14 C 83.51 126.33 79.51 129.36 75.19 128.52 C 72.71 128.08 70.31 127.30 67.83 126.90 C 67.78 116.61 67.82 106.33 67.81 96.04 C 62.27 95.95 56.74 96.01 51.20 96.02 C 61.85 77.39 72.69 58.88 83.37 40.28 Z" />
<path fill="#909090" opacity="1.00" d=" M 89.64 90.99 C 89.52 88.10 94.20 86.85 96.01 88.96 C 97.85 91.26 99.80 93.51 101.43 95.97 C 99.88 97.20 98.29 98.38 96.78 99.67 C 94.02 97.34 92.00 93.86 89.64 90.99 Z" />
<path fill="#909090" opacity="1.00" d=" M 80.23 95.18 C 81.08 93.88 83.40 95.44 82.51 96.67 C 81.73 98.52 78.75 96.63 80.23 95.18 Z" />
<path fill="#909090" opacity="1.00" d=" M 97.44 100.98 C 98.74 99.47 100.59 98.51 102.07 97.17 C 104.09 98.56 105.43 101.14 107.03 103.11 C 106.93 105.38 105.36 107.33 104.77 109.51 C 101.76 107.52 99.89 103.75 97.44 100.98 Z" />
<path fill="#909090" opacity="1.00" d=" M 101.39 122.56 C 101.95 122.41 103.06 122.11 103.62 121.95 C 103.65 122.51 103.72 123.61 103.75 124.16 C 102.49 124.89 100.95 124.12 101.39 122.56 Z" />
<path fill="#909090" opacity="1.00" d=" M 104.07 129.20 C 105.38 128.69 107.43 128.17 108.24 129.74 C 111.25 130.51 114.43 131.39 117.51 130.40 C 120.70 129.46 124.13 128.64 127.39 129.80 C 131.08 131.09 135.00 131.02 138.82 130.48 C 139.09 130.96 139.62 131.93 139.88 132.41 C 137.58 132.65 135.29 133.03 132.98 133.07 C 129.88 132.93 127.02 131.49 123.93 131.34 C 120.55 131.26 117.44 132.98 114.07 133.07 C 110.96 132.86 108.08 131.40 104.95 131.34 C 101.57 131.34 98.45 133.12 95.06 133.05 C 92.28 132.77 89.68 131.59 86.89 131.36 C 82.84 131.06 79.09 133.71 75.02 132.89 C 72.59 132.38 70.24 131.58 67.77 131.26 C 67.78 130.73 67.80 129.65 67.81 129.12 C 70.94 129.33 73.85 130.83 77.01 130.87 C 80.10 130.78 82.94 129.30 86.03 129.19 C 89.45 129.16 92.57 131.00 96.00 130.86 C 98.75 130.65 101.34 129.58 104.07 129.20 Z" />
<path fill="#909090" opacity="1.00" d=" M 67.71 133.52 C 70.89 133.71 73.86 135.20 77.08 135.20 C 80.12 135.09 82.93 133.65 85.97 133.53 C 89.07 133.49 91.93 134.98 95.00 135.18 C 98.77 135.40 102.22 133.12 106.00 133.61 C 109.65 134.06 113.24 135.96 116.97 134.86 C 120.51 133.86 124.27 132.88 127.87 134.26 C 132.07 135.79 136.57 135.03 140.84 134.24 C 141.09 134.74 141.59 135.73 141.85 136.23 C 138.90 136.66 135.98 137.36 132.99 137.40 C 129.92 137.37 127.09 135.92 124.04 135.74 C 120.59 135.62 117.44 137.46 114.00 137.40 C 110.92 137.26 108.07 135.81 104.98 135.73 C 101.89 135.76 99.05 137.21 95.99 137.39 C 92.57 137.52 89.44 135.71 86.03 135.73 C 82.93 135.84 80.06 137.32 76.96 137.40 C 73.84 137.30 70.91 136.07 67.83 135.66 C 67.80 135.13 67.74 134.05 67.71 133.52 Z" />
<path fill="#909090" opacity="1.00" d=" M 67.73 137.79 C 70.18 138.10 72.53 138.87 74.93 139.41 C 78.74 140.24 82.28 138.06 86.03 137.93 C 89.47 137.89 92.62 139.76 96.07 139.58 C 99.09 139.40 101.89 137.96 104.93 137.93 C 108.06 137.97 110.94 139.50 114.07 139.59 C 117.46 139.63 120.57 137.83 123.97 137.94 C 127.05 138.08 129.90 139.59 133.00 139.59 C 136.28 139.47 139.49 138.73 142.71 138.19 L 143.40 138.25 C 143.57 138.72 143.92 139.67 144.09 140.15 C 141.49 140.23 139.03 141.00 136.51 141.52 C 134.13 141.54 131.76 141.57 129.38 141.49 C 125.69 139.58 121.34 139.73 117.65 141.53 C 115.55 141.55 113.45 141.52 111.36 141.56 C 109.18 141.22 107.23 139.89 104.96 140.06 C 102.73 139.90 100.77 141.07 98.68 141.56 C 96.58 141.53 94.49 141.53 92.40 141.55 C 88.67 139.91 84.33 139.43 80.64 141.47 C 78.01 141.91 75.21 140.83 72.72 142.02 L 72.66 141.68 C 72.51 141.43 72.22 140.93 72.07 140.68 C 70.14 140.25 66.81 140.85 67.73 137.79 Z" />
</g>
<g id="normal">
<path fill="#000000" opacity="1.00" d=" M 0.00 0.00 L 0.30 0.00 C 0.23 0.10 0.08 0.31 0.00 0.41 L 0.00 0.00 Z" />
<path fill="#000000" opacity="1.00" d=" M 86.85 87.51 C 89.83 86.59 93.82 84.96 96.36 87.66 C 100.09 92.31 103.75 97.02 107.41 101.72 C 109.81 104.65 106.33 107.93 105.91 110.99 C 107.82 115.18 111.08 118.70 112.79 123.01 C 112.51 125.24 110.03 126.24 108.57 127.67 C 111.22 128.25 113.92 129.15 116.64 128.40 C 120.18 127.48 123.91 126.29 127.52 127.63 C 130.83 128.85 134.33 128.65 137.79 128.62 C 138.05 129.08 138.56 130.01 138.82 130.48 C 135.00 131.02 131.08 131.09 127.39 129.80 C 124.13 128.64 120.70 129.46 117.51 130.40 C 114.43 131.39 111.25 130.51 108.24 129.74 C 107.43 128.17 105.38 128.69 104.07 129.20 C 101.34 129.58 98.75 130.65 96.00 130.86 C 92.57 131.00 89.45 129.16 86.03 129.19 C 82.94 129.30 80.10 130.78 77.01 130.87 C 73.85 130.83 70.94 129.33 67.81 129.12 C 67.80 129.65 67.78 130.73 67.77 131.26 C 70.24 131.58 72.59 132.38 75.02 132.89 C 79.09 133.71 82.84 131.06 86.89 131.36 C 89.68 131.59 92.28 132.77 95.06 133.05 C 98.45 133.12 101.57 131.34 104.95 131.34 C 108.08 131.40 110.96 132.86 114.07 133.07 C 117.44 132.98 120.55 131.26 123.93 131.34 C 127.02 131.49 129.88 132.93 132.98 133.07 C 135.29 133.03 137.58 132.65 139.88 132.41 C 140.12 132.87 140.60 133.79 140.84 134.24 C 136.57 135.03 132.07 135.79 127.87 134.26 C 124.27 132.88 120.51 133.86 116.97 134.86 C 113.24 135.96 109.65 134.06 106.00 133.61 C 102.22 133.12 98.77 135.40 95.00 135.18 C 91.93 134.98 89.07 133.49 85.97 133.53 C 82.93 133.65 80.12 135.09 77.08 135.20 C 73.86 135.20 70.89 133.71 67.71 133.52 C 67.74 134.05 67.80 135.13 67.83 135.66 C 70.91 136.07 73.84 137.30 76.96 137.40 C 80.06 137.32 82.93 135.84 86.03 135.73 C 89.44 135.71 92.57 137.52 95.99 137.39 C 99.05 137.21 101.89 135.76 104.98 135.73 C 108.07 135.81 110.92 137.26 114.00 137.40 C 117.44 137.46 120.59 135.62 124.04 135.74 C 127.09 135.92 129.92 137.37 132.99 137.40 C 135.98 137.36 138.90 136.66 141.85 136.23 L 142.79 137.08 L 142.71 138.19 C 139.49 138.73 136.28 139.47 133.00 139.59 C 129.90 139.59 127.05 138.08 123.97 137.94 C 120.57 137.83 117.46 139.63 114.07 139.59 C 110.94 139.50 108.06 137.97 104.93 137.93 C 101.89 137.96 99.09 139.40 96.07 139.58 C 92.62 139.76 89.47 137.89 86.03 137.93 C 82.28 138.06 78.74 140.24 74.93 139.41 C 72.53 138.87 70.18 138.10 67.73 137.79 C 66.81 140.85 70.14 140.25 72.07 140.68 C 72.22 140.93 72.51 141.43 72.66 141.68 C 72.52 141.83 72.24 142.12 72.11 142.26 C 70.51 140.27 68.05 141.76 65.99 141.36 C 52.41 141.45 38.82 141.18 25.25 141.50 C 25.30 140.39 26.02 139.50 26.52 138.56 C 34.77 124.40 42.91 110.16 51.20 96.02 C 56.74 96.01 62.27 95.95 67.81 96.04 C 67.82 106.33 67.78 116.61 67.83 126.90 C 70.31 127.30 72.71 128.08 75.19 128.52 C 79.51 129.36 83.51 126.33 87.83 127.14 C 91.32 127.74 94.83 129.42 98.41 128.27 C 100.40 127.59 102.66 127.56 104.50 126.57 C 100.99 127.85 97.51 124.23 99.52 120.89 C 94.31 113.59 88.48 106.63 82.95 99.53 C 81.12 99.89 78.99 99.63 78.08 97.75 C 77.05 96.28 78.42 94.75 78.21 93.23 C 77.70 92.63 76.67 91.43 76.16 90.83 C 79.31 88.88 83.02 84.56 86.85 87.51 M 89.64 90.99 C 92.00 93.86 94.02 97.34 96.78 99.67 C 98.29 98.38 99.88 97.20 101.43 95.97 C 99.80 93.51 97.85 91.26 96.01 88.96 C 94.20 86.85 89.52 88.10 89.64 90.99 M 80.23 95.18 C 78.75 96.63 81.73 98.52 82.51 96.67 C 83.40 95.44 81.08 93.88 80.23 95.18 M 97.44 100.98 C 99.89 103.75 101.76 107.52 104.77 109.51 C 105.36 107.33 106.93 105.38 107.03 103.11 C 105.43 101.14 104.09 98.56 102.07 97.17 C 100.59 98.51 98.74 99.47 97.44 100.98 M 101.39 122.56 C 100.95 124.12 102.49 124.89 103.75 124.16 C 103.72 123.61 103.65 122.51 103.62 121.95 C 103.06 122.11 101.95 122.41 101.39 122.56 Z" />
<path fill="#000000" opacity="1.00" d=" M 80.64 141.47 C 84.33 139.43 88.67 139.91 92.40 141.55 C 88.49 141.25 84.56 141.32 80.64 141.47 Z" />
<path fill="#000000" opacity="1.00" d=" M 98.68 141.56 C 100.77 141.07 102.73 139.90 104.96 140.06 C 107.23 139.89 109.18 141.22 111.36 141.56 C 107.14 141.29 102.90 141.24 98.68 141.56 Z" />
<path fill="#000000" opacity="1.00" d=" M 117.65 141.53 C 121.34 139.73 125.69 139.58 129.38 141.49 C 125.47 141.30 121.55 141.26 117.65 141.53 Z" />
<path fill="#000000" opacity="1.00" d=" M 136.51 141.52 C 139.03 141.00 141.49 140.23 144.09 140.15 C 144.60 140.54 145.10 140.95 145.59 141.38 C 142.56 141.25 139.53 141.45 136.51 141.52 Z" />
<path fill="#cc0000" opacity="1.00" d=" M 83.40 12.35 C 85.94 11.37 88.70 12.98 89.81 15.29 C 115.56 59.83 141.33 104.35 167.08 148.88 C 169.44 152.00 166.84 156.80 163.03 156.80 C 111.02 156.83 59.02 156.83 7.01 156.80 C 4.08 156.77 1.64 153.87 2.08 150.98 C 2.84 148.64 4.30 146.64 5.48 144.51 C 30.38 101.44 55.31 58.38 80.21 15.31 C 80.95 14.03 81.95 12.82 83.40 12.35 M 83.37 40.28 C 72.69 58.88 61.85 77.39 51.20 96.02 C 42.91 110.16 34.77 124.40 26.52 138.56 C 26.02 139.50 25.30 140.39 25.25 141.50 C 38.82 141.18 52.41 141.45 65.99 141.36 C 68.05 141.76 70.51 140.27 72.11 142.26 C 72.24 142.12 72.52 141.83 72.66 141.68 L 72.72 142.02 C 75.21 140.83 78.01 141.91 80.64 141.47 C 84.56 141.32 88.49 141.25 92.40 141.55 C 94.49 141.53 96.58 141.53 98.68 141.56 C 102.90 141.24 107.14 141.29 111.36 141.56 C 113.45 141.52 115.55 141.55 117.65 141.53 C 121.55 141.26 125.47 141.30 129.38 141.49 C 131.76 141.57 134.13 141.54 136.51 141.52 C 139.53 141.45 142.56 141.25 145.59 141.38 C 145.10 140.95 144.60 140.54 144.09 140.15 C 143.92 139.67 143.57 138.72 143.40 138.25 L 142.71 138.19 L 142.79 137.08 L 141.85 136.23 C 141.59 135.73 141.09 134.74 140.84 134.24 C 140.60 133.79 140.12 132.87 139.88 132.41 C 139.62 131.93 139.09 130.96 138.82 130.48 C 138.56 130.01 138.05 129.08 137.79 128.62 C 120.31 98.51 102.84 68.39 85.52 38.19 C 84.11 37.83 83.97 39.43 83.37 40.28 Z" />
<path fill="#ffc500" opacity="1.00" d=" M 83.37 40.28 C 83.97 39.43 84.11 37.83 85.52 38.19 C 102.84 68.39 120.31 98.51 137.79 128.62 C 134.33 128.65 130.83 128.85 127.52 127.63 C 123.91 126.29 120.18 127.48 116.64 128.40 C 113.92 129.15 111.22 128.25 108.57 127.67 C 110.03 126.24 112.51 125.24 112.79 123.01 C 111.08 118.70 107.82 115.18 105.91 110.99 C 106.33 107.93 109.81 104.65 107.41 101.72 C 103.75 97.02 100.09 92.31 96.36 87.66 C 93.82 84.96 89.83 86.59 86.85 87.51 C 83.02 84.56 79.31 88.88 76.16 90.83 C 76.67 91.43 77.70 92.63 78.21 93.23 C 78.42 94.75 77.05 96.28 78.08 97.75 C 78.99 99.63 81.12 99.89 82.95 99.53 C 88.48 106.63 94.31 113.59 99.52 120.89 C 97.51 124.23 100.99 127.85 104.50 126.57 C 102.66 127.56 100.40 127.59 98.41 128.27 C 94.83 129.42 91.32 127.74 87.83 127.14 C 83.51 126.33 79.51 129.36 75.19 128.52 C 72.71 128.08 70.31 127.30 67.83 126.90 C 67.78 116.61 67.82 106.33 67.81 96.04 C 62.27 95.95 56.74 96.01 51.20 96.02 C 61.85 77.39 72.69 58.88 83.37 40.28 Z" />
<path fill="#ffc500" opacity="1.00" d=" M 89.64 90.99 C 89.52 88.10 94.20 86.85 96.01 88.96 C 97.85 91.26 99.80 93.51 101.43 95.97 C 99.88 97.20 98.29 98.38 96.78 99.67 C 94.02 97.34 92.00 93.86 89.64 90.99 Z" />
<path fill="#ffc500" opacity="1.00" d=" M 80.23 95.18 C 81.08 93.88 83.40 95.44 82.51 96.67 C 81.73 98.52 78.75 96.63 80.23 95.18 Z" />
<path fill="#ffc500" opacity="1.00" d=" M 97.44 100.98 C 98.74 99.47 100.59 98.51 102.07 97.17 C 104.09 98.56 105.43 101.14 107.03 103.11 C 106.93 105.38 105.36 107.33 104.77 109.51 C 101.76 107.52 99.89 103.75 97.44 100.98 Z" />
<path fill="#ffc500" opacity="1.00" d=" M 101.39 122.56 C 101.95 122.41 103.06 122.11 103.62 121.95 C 103.65 122.51 103.72 123.61 103.75 124.16 C 102.49 124.89 100.95 124.12 101.39 122.56 Z" />
<path fill="#ffc500" opacity="1.00" d=" M 104.07 129.20 C 105.38 128.69 107.43 128.17 108.24 129.74 C 111.25 130.51 114.43 131.39 117.51 130.40 C 120.70 129.46 124.13 128.64 127.39 129.80 C 131.08 131.09 135.00 131.02 138.82 130.48 C 139.09 130.96 139.62 131.93 139.88 132.41 C 137.58 132.65 135.29 133.03 132.98 133.07 C 129.88 132.93 127.02 131.49 123.93 131.34 C 120.55 131.26 117.44 132.98 114.07 133.07 C 110.96 132.86 108.08 131.40 104.95 131.34 C 101.57 131.34 98.45 133.12 95.06 133.05 C 92.28 132.77 89.68 131.59 86.89 131.36 C 82.84 131.06 79.09 133.71 75.02 132.89 C 72.59 132.38 70.24 131.58 67.77 131.26 C 67.78 130.73 67.80 129.65 67.81 129.12 C 70.94 129.33 73.85 130.83 77.01 130.87 C 80.10 130.78 82.94 129.30 86.03 129.19 C 89.45 129.16 92.57 131.00 96.00 130.86 C 98.75 130.65 101.34 129.58 104.07 129.20 Z" />
<path fill="#ffc500" opacity="1.00" d=" M 67.71 133.52 C 70.89 133.71 73.86 135.20 77.08 135.20 C 80.12 135.09 82.93 133.65 85.97 133.53 C 89.07 133.49 91.93 134.98 95.00 135.18 C 98.77 135.40 102.22 133.12 106.00 133.61 C 109.65 134.06 113.24 135.96 116.97 134.86 C 120.51 133.86 124.27 132.88 127.87 134.26 C 132.07 135.79 136.57 135.03 140.84 134.24 C 141.09 134.74 141.59 135.73 141.85 136.23 C 138.90 136.66 135.98 137.36 132.99 137.40 C 129.92 137.37 127.09 135.92 124.04 135.74 C 120.59 135.62 117.44 137.46 114.00 137.40 C 110.92 137.26 108.07 135.81 104.98 135.73 C 101.89 135.76 99.05 137.21 95.99 137.39 C 92.57 137.52 89.44 135.71 86.03 135.73 C 82.93 135.84 80.06 137.32 76.96 137.40 C 73.84 137.30 70.91 136.07 67.83 135.66 C 67.80 135.13 67.74 134.05 67.71 133.52 Z" />
<path fill="#ffc500" opacity="1.00" d=" M 67.73 137.79 C 70.18 138.10 72.53 138.87 74.93 139.41 C 78.74 140.24 82.28 138.06 86.03 137.93 C 89.47 137.89 92.62 139.76 96.07 139.58 C 99.09 139.40 101.89 137.96 104.93 137.93 C 108.06 137.97 110.94 139.50 114.07 139.59 C 117.46 139.63 120.57 137.83 123.97 137.94 C 127.05 138.08 129.90 139.59 133.00 139.59 C 136.28 139.47 139.49 138.73 142.71 138.19 L 143.40 138.25 C 143.57 138.72 143.92 139.67 144.09 140.15 C 141.49 140.23 139.03 141.00 136.51 141.52 C 134.13 141.54 131.76 141.57 129.38 141.49 C 125.69 139.58 121.34 139.73 117.65 141.53 C 115.55 141.55 113.45 141.52 111.36 141.56 C 109.18 141.22 107.23 139.89 104.96 140.06 C 102.73 139.90 100.77 141.07 98.68 141.56 C 96.58 141.53 94.49 141.53 92.40 141.55 C 88.67 139.91 84.33 139.43 80.64 141.47 C 78.01 141.91 75.21 140.83 72.72 142.02 L 72.66 141.68 C 72.51 141.43 72.22 140.93 72.07 140.68 C 70.14 140.25 66.81 140.85 67.73 137.79 Z" />
</g>
</svg>
