<?xml version="1.0" encoding="utf-8"?>
<!-- Generator: Adobe Illustrator 16.0.0, SVG Export Plug-In . SVG Version: 6.00 Build 0)  -->
<!DOCTYPE svg PUBLIC "-//W3C//DTD SVG 1.1//EN" "http://www.w3.org/Graphics/SVG/1.1/DTD/svg11.dtd">
<svg version="1.1" id="Layer_1" xmlns="http://www.w3.org/2000/svg" xmlns:xlink="http://www.w3.org/1999/xlink" x="0px" y="0px"
	 width="132px" height="132px" viewBox="0 0 132 132" enable-background="new 0 0 132 132" xml:space="preserve">
<g id="disabled">
	<g>
		<g>
			
				<linearGradient id="SVGID_3_" gradientUnits="userSpaceOnUse" x1="249.1201" y1="727.1699" x2="376.54" y2="727.1699" gradientTransform="matrix(1 0 0 1 -246.3301 -660.6699)">
				<stop  offset="0" style="stop-color:#000000;stop-opacity:0.6"/>
				<stop  offset="1" style="stop-color:#000000;stop-opacity:0.6"/>
			</linearGradient>
			<path id="SVGID_1_" fill="url(#SVGID_3_)" d="M66.5,2.791c35.186,0,63.71,28.524,63.71,63.71
				c0,35.185-28.524,63.708-63.71,63.708c-35.186,0-63.71-28.523-63.71-63.708C2.79,31.315,31.314,2.791,66.5,2.791L66.5,2.791z"/>
		</g>
		<g>
			<path id="SVGID_2_" fill="#FFFFFF" d="M65.5,1.791c35.186,0,63.71,28.524,63.71,63.71c0,35.185-28.524,63.708-63.71,63.708
				c-35.186,0-63.71-28.523-63.71-63.708C1.79,30.315,30.314,1.791,65.5,1.791L65.5,1.791z"/>
		</g>
	</g>
	<g>
		<g>
			<path id="SVGID_6_" fill="#969696" d="M65.345,6.35c32.581,0,58.993,26.413,58.993,58.995c0,32.581-26.413,58.993-58.993,58.993
				c-32.582,0-58.995-26.413-58.995-58.993C6.35,32.763,32.762,6.35,65.345,6.35L65.345,6.35z"/>
		</g>
	</g>
	<g>
		<g>
			<path id="SVGID_8_" fill="#FFFFFF" d="M65.345,9.645c30.764,0,55.702,24.938,55.702,55.7c0,30.765-24.938,55.703-55.702,55.703
				c-30.762,0-55.7-24.94-55.7-55.703C9.645,34.583,34.583,9.645,65.345,9.645L65.345,9.645z"/>
		</g>
	</g>
	<g>
		<g>
			<path id="SVGID_10_" fill="#969696" d="M105.627,82.792v7c0,0,0.381,0.998-2.176,0.998c-2.668,0-2.823-0.998-2.823-0.998v-7
				H76.627v7c0,0,0.221,1.176-2.336,1.176c-2.668,0-2.668-1.229-2.668-1.229l0.005-6.947h-2.001v-9.001l6-12.001h26.001l6,12.001
				v9.001H105.627L105.627,82.792z M99.628,63.791H77.627l-2,8h26.001L99.628,63.791L99.628,63.791z"/>
		</g>
	</g>
	<g>
		<g>
			<path id="SVGID_12_" fill="#969696" d="M60.785,90.344h-2.854c-0.63,0-1.142-0.451-1.142-1.008V85.82h-0.486v3.516
				c0,0.557-0.51,1.008-1.14,1.008h-2.854c-0.632,0-1.142-0.451-1.142-1.008V85.82h-4.411v2.029h-5.414V85.82h-4.634v3.516
				c0,0.557-0.512,1.008-1.142,1.008h-2.854c-0.63,0-1.142-0.451-1.142-1.008V85.82h-0.383v3.516c0,0.557-0.512,1.008-1.142,1.008
				h-2.854c-0.63,0-1.142-0.451-1.142-1.008V77.791h-0.423v-37h36v35.036c0.183,0.178,0.3,0.409,0.3,0.667v12.842
				C61.927,89.895,61.417,90.344,60.785,90.344L60.785,90.344z M31.571,77.791h-0.383v5.532h0.383V77.791L31.571,77.791z
				 M51.167,77.791H36.708v5.532h4.634v-2.776h5.414v2.776h4.411V77.791L51.167,77.791z M56.303,83.323h0.486v-5.532h-0.486V83.323
				L56.303,83.323z"/>
		</g>
	</g>
	<g>
		<g>
			<polygon id="SVGID_14_" fill="#969696" points="15.944,95.846 95.214,15.18 97.566,17.648 18.296,98.314 			"/>
		</g>
	</g>
	<g>
		<g>
			<polygon id="SVGID_16_" fill="#969696" points="20.348,99.984 99.618,19.32 101.968,21.788 22.698,102.453 			"/>
		</g>
	</g>
	<g>
		<g>
			<polygon id="SVGID_18_" fill="#969696" points="24.572,104.109 103.842,23.443 106.193,25.911 26.924,106.575 			"/>
		</g>
	</g>
	<g>
		<g>
			<polygon id="SVGID_20_" fill="#969696" points="28.473,108.109 107.743,27.446 110.094,29.913 30.824,110.579 			"/>
		</g>
	</g>
	<g>
		<g>
			<polygon id="SVGID_22_" fill="#969696" points="32.698,112.232 111.968,31.567 114.318,34.037 35.048,114.701 			"/>
		</g>
	</g>
	
		<linearGradient id="SVGID_4_" gradientUnits="userSpaceOnUse" x1="348.375" y1="778.3623" x2="275.2849" y2="673.9788" gradientTransform="matrix(1 0 0 1 -246.3301 -660.6699)">
		<stop  offset="0" style="stop-color:#000000;stop-opacity:0"/>
		<stop  offset="1" style="stop-color:#FFFFFF;stop-opacity:0.25"/>
	</linearGradient>
	<path fill="url(#SVGID_4_)" d="M65.5,1.791c35.186,0,63.71,28.524,63.71,63.71c0,35.185-28.524,63.708-63.71,63.708
		c-35.186,0-63.71-28.523-63.71-63.708C1.79,30.315,30.314,1.791,65.5,1.791L65.5,1.791z"/>
</g>
<g id="normal">
	<g>
		<g>
			
				<linearGradient id="SVGID_5_" gradientUnits="userSpaceOnUse" x1="249.1201" y1="727.1699" x2="376.54" y2="727.1699" gradientTransform="matrix(1 0 0 1 -246.3301 -660.6699)">
				<stop  offset="0" style="stop-color:#000000;stop-opacity:0.6"/>
				<stop  offset="1" style="stop-color:#000000;stop-opacity:0.6"/>
			</linearGradient>
			<path id="SVGID_25_" fill="url(#SVGID_5_)" d="M66.5,2.791c35.186,0,63.71,28.524,63.71,63.71
				c0,35.185-28.524,63.708-63.71,63.708c-35.186,0-63.71-28.523-63.71-63.708C2.79,31.315,31.314,2.791,66.5,2.791L66.5,2.791z"/>
		</g>
		<g>
			<path id="SVGID_26_" fill="#FFFFFF" d="M65.5,1.791c35.186,0,63.71,28.524,63.71,63.71c0,35.185-28.524,63.708-63.71,63.708
				c-35.186,0-63.71-28.523-63.71-63.708C1.79,30.315,30.314,1.791,65.5,1.791L65.5,1.791z"/>
		</g>
	</g>
	<g>
		<g>
			<path id="SVGID_30_" d="M65.345,6.35c32.581,0,58.993,26.413,58.993,58.995c0,32.581-26.413,58.993-58.993,58.993
				c-32.582,0-58.995-26.413-58.995-58.993C6.35,32.763,32.762,6.35,65.345,6.35L65.345,6.35z"/>
		</g>
	</g>
	<g>
		<g>
			<path id="SVGID_32_" fill="#FFFFFF" d="M65.345,9.645c30.764,0,55.702,24.938,55.702,55.7c0,30.765-24.938,55.703-55.702,55.703
				c-30.762,0-55.7-24.94-55.7-55.703C9.645,34.583,34.583,9.645,65.345,9.645L65.345,9.645z"/>
		</g>
	</g>
	<g>
		<g>
			<path id="SVGID_34_" fill="#646464" d="M105.627,82.792v7c0,0,0.381,0.998-2.176,0.998c-2.668,0-2.823-0.998-2.823-0.998v-7
				H76.627v7c0,0,0.221,1.176-2.336,1.176c-2.668,0-2.668-1.229-2.668-1.229l0.005-6.947h-2.001v-9.001l6-12.001h26.001l6,12.001
				v9.001H105.627L105.627,82.792z M99.628,63.791H77.627l-2,8h26.001L99.628,63.791L99.628,63.791z"/>
		</g>
	</g>
	<g>
		<g>
			<path id="SVGID_36_" fill="#646464" d="M60.785,90.344h-2.854c-0.63,0-1.142-0.451-1.142-1.008V85.82h-0.486v3.516
				c0,0.557-0.51,1.008-1.14,1.008h-2.854c-0.632,0-1.142-0.451-1.142-1.008V85.82h-4.411v2.029h-5.414V85.82h-4.634v3.516
				c0,0.557-0.512,1.008-1.142,1.008h-2.854c-0.63,0-1.142-0.451-1.142-1.008V85.82h-0.383v3.516c0,0.557-0.512,1.008-1.142,1.008
				h-2.854c-0.63,0-1.142-0.451-1.142-1.008V77.791h-0.423v-37h36v35.036c0.183,0.178,0.3,0.409,0.3,0.667v12.842
				C61.927,89.895,61.417,90.344,60.785,90.344L60.785,90.344z M31.571,77.791h-0.383v5.532h0.383V77.791L31.571,77.791z
				 M51.167,77.791H36.708v5.532h4.634v-2.776h5.414v2.776h4.411V77.791L51.167,77.791z M56.303,83.323h0.486v-5.532h-0.486V83.323
				L56.303,83.323z"/>
		</g>
	</g>
	<g>
		<g>
			<polygon id="SVGID_38_" points="15.944,95.846 95.214,15.18 97.566,17.648 18.296,98.314 			"/>
		</g>
	</g>
	<g>
		<g>
			<polygon id="SVGID_40_" points="20.348,99.984 99.618,19.32 101.968,21.788 22.698,102.453 			"/>
		</g>
	</g>
	<g>
		<g>
			<polygon id="SVGID_42_" points="24.572,104.109 103.842,23.443 106.193,25.911 26.924,106.575 			"/>
		</g>
	</g>
	<g>
		<g>
			<polygon id="SVGID_44_" points="28.473,108.109 107.743,27.446 110.094,29.913 30.824,110.579 			"/>
		</g>
	</g>
	<g>
		<g>
			<polygon id="SVGID_46_" points="32.698,112.232 111.968,31.567 114.318,34.037 35.048,114.701 			"/>
		</g>
	</g>
	
		<linearGradient id="SVGID_7_" gradientUnits="userSpaceOnUse" x1="348.375" y1="778.3623" x2="275.2849" y2="673.9788" gradientTransform="matrix(1 0 0 1 -246.3301 -660.6699)">
		<stop  offset="0" style="stop-color:#000000;stop-opacity:0"/>
		<stop  offset="1" style="stop-color:#FFFFFF;stop-opacity:0.25"/>
	</linearGradient>
	<path fill="url(#SVGID_7_)" d="M65.5,1.791c35.186,0,63.71,28.524,63.71,63.71c0,35.185-28.524,63.708-63.71,63.708
		c-35.186,0-63.71-28.523-63.71-63.708C1.79,30.315,30.314,1.791,65.5,1.791L65.5,1.791z"/>
</g>
</svg>
