<?xml version="1.0" encoding="UTF-8" ?>
<!DOCTYPE svg PUBLIC "-//W3C//DTD SVG 1.1//EN" "http://www.w3.org/Graphics/SVG/1.1/DTD/svg11.dtd">
<svg width="130pt" height="130pt" viewBox="0 0 130 130" version="1.1" xmlns="http://www.w3.org/2000/svg">
<g id="disabled">
<path fill="#606060" opacity="1.00" d=" M 58.45 2.48 C 62.33 -1.22 68.63 0.20 71.67 4.23 C 88.66 21.27 105.69 38.26 122.70 55.27 C 124.27 56.88 126.08 58.36 127.03 60.46 C 128.28 63.97 127.27 68.00 124.47 70.46 C 106.50 88.42 88.59 106.44 70.55 124.32 C 67.53 127.65 62.18 128.15 58.75 125.15 C 40.51 107.36 22.65 89.16 4.56 71.21 C 0.42 68.17 -0.75 61.72 3.01 57.92 C 21.45 39.40 39.92 20.91 58.45 2.48 M 62.20 3.31 C 59.31 4.04 57.41 6.47 55.37 8.45 C 39.03 24.78 22.70 41.12 6.34 57.44 C 3.00 60.36 2.44 66.08 5.68 69.28 C 23.16 86.80 40.64 104.31 58.15 121.80 C 61.06 125.32 66.94 125.38 70.08 122.14 C 87.49 104.85 104.82 87.45 122.16 70.09 C 125.77 66.88 125.93 60.97 122.29 57.73 C 104.93 40.39 87.59 23.03 70.18 5.74 C 68.15 3.75 64.99 2.64 62.20 3.31 Z" />
<path fill="#606060" opacity="1.00" d=" M 59.93 8.83 C 61.51 6.89 64.54 4.91 66.71 7.21 C 84.76 25.25 102.78 43.32 120.81 61.37 C 122.56 63.06 121.71 65.58 120.10 67.03 C 102.40 84.69 84.79 102.43 67.02 120.03 C 65.89 121.45 64.02 121.16 62.44 120.96 C 44.23 102.71 25.94 84.53 7.70 66.32 C 5.91 64.73 6.67 61.86 8.32 60.47 C 25.52 43.25 42.75 26.06 59.93 8.83 M 79.37 46.13 C 73.84 48.76 73.37 56.38 67.78 58.87 C 63.50 59.74 58.63 58.50 56.29 54.57 C 54.13 50.89 51.87 45.76 46.84 45.84 C 41.61 44.73 36.87 48.19 34.84 52.82 C 32.82 57.35 27.76 59.49 23.00 59.03 C 23.00 63.02 23.00 67.00 23.00 70.99 C 50.67 71.00 78.33 71.02 106.00 71.00 C 106.01 67.01 106.01 63.02 106.00 59.03 C 103.19 59.11 100.18 58.82 97.91 56.99 C 95.40 54.77 94.08 51.57 91.95 49.03 C 88.93 45.48 83.63 44.68 79.37 46.13 Z" />
<path fill="#000000" opacity="1.00" d=" M 62.20 3.31 C 64.99 2.64 68.15 3.75 70.18 5.74 C 87.59 23.03 104.93 40.39 122.29 57.73 C 125.93 60.97 125.77 66.88 122.16 70.09 C 104.82 87.45 87.49 104.85 70.08 122.14 C 66.94 125.38 61.06 125.32 58.15 121.80 C 40.64 104.31 23.16 86.80 5.68 69.28 C 2.44 66.08 3.00 60.36 6.34 57.44 C 22.70 41.12 39.03 24.78 55.37 8.45 C 57.41 6.47 59.31 4.04 62.20 3.31 M 59.93 8.83 C 42.75 26.06 25.52 43.25 8.32 60.47 C 6.67 61.86 5.91 64.73 7.70 66.32 C 25.94 84.53 44.23 102.71 62.44 120.96 C 64.02 121.16 65.89 121.45 67.02 120.03 C 84.79 102.43 102.40 84.69 120.10 67.03 C 121.71 65.58 122.56 63.06 120.81 61.37 C 102.78 43.32 84.76 25.25 66.71 7.21 C 64.54 4.91 61.51 6.89 59.93 8.83 Z" />
<path fill="#000000" opacity="1.00" d=" M 79.37 46.13 C 83.63 44.68 88.93 45.48 91.95 49.03 C 94.08 51.57 95.40 54.77 97.91 56.99 C 100.18 58.82 103.19 59.11 106.00 59.03 C 106.01 63.02 106.01 67.01 106.00 71.00 C 78.33 71.02 50.67 71.00 23.00 70.99 C 23.00 67.00 23.00 63.02 23.00 59.03 C 27.76 59.49 32.82 57.35 34.84 52.82 C 36.87 48.19 41.61 44.73 46.84 45.84 C 51.87 45.76 54.13 50.89 56.29 54.57 C 58.63 58.50 63.50 59.74 67.78 58.87 C 73.37 56.38 73.84 48.76 79.37 46.13 Z" />
</g>
<g id="normal">
<path fill="#FBD200" opacity="1.00" d=" M 58.45 2.48 C 62.33 -1.22 68.63 0.20 71.67 4.23 C 88.66 21.27 105.69 38.26 122.70 55.27 C 124.27 56.88 126.08 58.36 127.03 60.46 C 128.28 63.97 127.27 68.00 124.47 70.46 C 106.50 88.42 88.59 106.44 70.55 124.32 C 67.53 127.65 62.18 128.15 58.75 125.15 C 40.51 107.36 22.65 89.16 4.56 71.21 C 0.42 68.17 -0.75 61.72 3.01 57.92 C 21.45 39.40 39.92 20.91 58.45 2.48 M 62.20 3.31 C 59.31 4.04 57.41 6.47 55.37 8.45 C 39.03 24.78 22.70 41.12 6.34 57.44 C 3.00 60.36 2.44 66.08 5.68 69.28 C 23.16 86.80 40.64 104.31 58.15 121.80 C 61.06 125.32 66.94 125.38 70.08 122.14 C 87.49 104.85 104.82 87.45 122.16 70.09 C 125.77 66.88 125.93 60.97 122.29 57.73 C 104.93 40.39 87.59 23.03 70.18 5.74 C 68.15 3.75 64.99 2.64 62.20 3.31 Z" />
<path fill="#FBD200" opacity="1.00" d=" M 59.93 8.83 C 61.51 6.89 64.54 4.91 66.71 7.21 C 84.76 25.25 102.78 43.32 120.81 61.37 C 122.56 63.06 121.71 65.58 120.10 67.03 C 102.40 84.69 84.79 102.43 67.02 120.03 C 65.89 121.45 64.02 121.16 62.44 120.96 C 44.23 102.71 25.94 84.53 7.70 66.32 C 5.91 64.73 6.67 61.86 8.32 60.47 C 25.52 43.25 42.75 26.06 59.93 8.83 M 79.37 46.13 C 73.84 48.76 73.37 56.38 67.78 58.87 C 63.50 59.74 58.63 58.50 56.29 54.57 C 54.13 50.89 51.87 45.76 46.84 45.84 C 41.61 44.73 36.87 48.19 34.84 52.82 C 32.82 57.35 27.76 59.49 23.00 59.03 C 23.00 63.02 23.00 67.00 23.00 70.99 C 50.67 71.00 78.33 71.02 106.00 71.00 C 106.01 67.01 106.01 63.02 106.00 59.03 C 103.19 59.11 100.18 58.82 97.91 56.99 C 95.40 54.77 94.08 51.57 91.95 49.03 C 88.93 45.48 83.63 44.68 79.37 46.13 Z" />
<path fill="#000000" opacity="1.00" d=" M 62.20 3.31 C 64.99 2.64 68.15 3.75 70.18 5.74 C 87.59 23.03 104.93 40.39 122.29 57.73 C 125.93 60.97 125.77 66.88 122.16 70.09 C 104.82 87.45 87.49 104.85 70.08 122.14 C 66.94 125.38 61.06 125.32 58.15 121.80 C 40.64 104.31 23.16 86.80 5.68 69.28 C 2.44 66.08 3.00 60.36 6.34 57.44 C 22.70 41.12 39.03 24.78 55.37 8.45 C 57.41 6.47 59.31 4.04 62.20 3.31 M 59.93 8.83 C 42.75 26.06 25.52 43.25 8.32 60.47 C 6.67 61.86 5.91 64.73 7.70 66.32 C 25.94 84.53 44.23 102.71 62.44 120.96 C 64.02 121.16 65.89 121.45 67.02 120.03 C 84.79 102.43 102.40 84.69 120.10 67.03 C 121.71 65.58 122.56 63.06 120.81 61.37 C 102.78 43.32 84.76 25.25 66.71 7.21 C 64.54 4.91 61.51 6.89 59.93 8.83 Z" />
<path fill="#000000" opacity="1.00" d=" M 79.37 46.13 C 83.63 44.68 88.93 45.48 91.95 49.03 C 94.08 51.57 95.40 54.77 97.91 56.99 C 100.18 58.82 103.19 59.11 106.00 59.03 C 106.01 63.02 106.01 67.01 106.00 71.00 C 78.33 71.02 50.67 71.00 23.00 70.99 C 23.00 67.00 23.00 63.02 23.00 59.03 C 27.76 59.49 32.82 57.35 34.84 52.82 C 36.87 48.19 41.61 44.73 46.84 45.84 C 51.87 45.76 54.13 50.89 56.29 54.57 C 58.63 58.50 63.50 59.74 67.78 58.87 C 73.37 56.38 73.84 48.76 79.37 46.13 Z" />
</g>
</svg>
