<?xml version="1.0" encoding="UTF-8" ?>
<!DOCTYPE svg PUBLIC "-//W3C//DTD SVG 1.1//EN" "http://www.w3.org/Graphics/SVG/1.1/DTD/svg11.dtd">
<svg width="130pt" height="130pt" viewBox="0 0 130 130" version="1.1" xmlns="http://www.w3.org/2000/svg">
<g id="disabled">
<path fill="#606060" opacity="1.00" d=" M 58.04 5.06 C 60.05 2.95 62.98 1.32 65.98 2.02 C 68.58 2.19 70.57 3.97 72.29 5.76 C 89.72 23.28 107.25 40.71 124.70 58.21 C 127.92 61.05 128.62 66.33 125.89 69.74 C 107.48 88.05 89.17 106.48 70.75 124.79 C 67.56 128.32 61.61 128.10 58.46 124.63 C 40.85 107.19 23.41 89.58 5.83 72.11 C 3.95 70.34 2.67 68.07 1.65 65.72 C 1.76 62.85 2.91 60.04 5.04 58.08 C 22.69 40.39 40.38 22.74 58.04 5.06 M 62.46 4.46 C 60.83 4.98 59.45 6.04 58.25 7.23 C 41.05 24.39 23.87 41.57 6.68 58.75 C 3.33 61.79 3.18 67.39 6.56 70.46 C 23.80 87.82 41.14 105.09 58.45 122.38 C 61.65 126.26 68.03 126.02 71.24 122.27 C 88.41 105.08 105.61 87.91 122.72 70.66 C 126.17 67.50 126.10 61.59 122.60 58.49 C 105.65 41.44 88.59 24.50 71.61 7.47 C 69.38 5.00 65.76 3.29 62.46 4.46 Z" />
<path fill="#606060" opacity="1.00" d=" M 62.45 9.27 C 64.39 7.36 66.91 8.94 68.40 10.56 C 84.22 26.40 100.03 42.25 115.88 58.06 C 117.68 59.91 119.72 61.61 121.01 63.88 C 121.44 65.83 119.73 67.27 118.59 68.57 C 101.90 85.22 85.19 101.86 68.54 118.56 C 67.17 119.74 65.36 121.69 63.42 120.52 C 61.63 119.38 60.25 117.72 58.74 116.25 C 42.45 99.88 26.05 83.61 9.77 67.23 C 7.66 65.39 8.87 62.34 10.74 60.85 C 28.03 43.71 45.07 26.31 62.45 9.27 M 46.23 44.80 C 45.49 46.40 44.38 47.85 43.96 49.57 C 45.29 50.70 46.73 51.70 48.15 52.72 C 50.20 51.05 53.74 49.83 55.74 52.24 C 57.62 53.80 56.90 56.41 57.07 58.53 C 63.34 62.03 69.41 65.85 75.65 69.39 C 78.52 71.51 81.33 66.92 84.27 68.67 C 87.55 69.74 87.63 73.70 88.18 76.50 C 90.29 75.50 92.27 74.27 94.25 73.06 C 94.10 72.40 93.78 71.08 93.63 70.42 C 89.81 66.86 85.68 63.63 81.87 60.07 C 80.22 57.39 80.83 53.45 78.06 51.39 C 74.68 48.92 70.98 46.92 67.46 44.66 C 65.29 43.12 62.50 44.01 60.05 43.88 C 55.45 44.28 50.70 43.40 46.23 44.80 M 34.99 50.90 C 35.01 62.60 35.00 74.31 34.99 86.01 C 54.60 85.97 74.22 86.05 93.83 85.98 C 74.32 74.12 54.53 62.70 34.99 50.90 M 51.16 52.05 C 49.66 52.77 48.44 54.12 48.77 55.91 C 48.62 59.25 53.78 60.37 55.20 57.45 C 57.47 55.00 54.00 51.10 51.16 52.05 M 79.42 71.36 C 77.19 74.54 81.98 78.59 84.73 75.89 C 87.00 74.54 85.77 71.79 85.00 69.92 C 83.12 69.83 80.38 69.18 79.42 71.36 Z" />
<path fill="#606060" opacity="1.00" d=" M 56.52 46.23 C 59.26 45.87 61.99 45.35 64.77 45.28 C 67.63 45.74 69.86 47.78 72.25 49.25 C 71.27 50.86 70.28 52.45 69.29 54.05 C 65.07 51.39 60.43 49.37 56.52 46.23 Z" />
<path fill="#606060" opacity="1.00" d=" M 73.43 49.78 C 74.98 50.74 76.71 51.50 78.02 52.80 C 79.61 54.82 79.94 57.49 80.37 59.95 C 76.66 58.91 73.55 56.60 70.37 54.55 C 71.39 52.96 72.40 51.37 73.43 49.78 Z" />
<path fill="#606060" opacity="1.00" d=" M 51.02 54.13 C 51.78 54.05 53.31 53.89 54.07 53.81 C 54.05 55.47 54.23 57.43 52.04 57.61 C 50.12 56.78 49.78 55.62 51.02 54.13 Z" />
<path fill="#606060" opacity="1.00" d=" M 80.85 75.03 C 80.29 73.08 81.19 71.55 82.87 70.58 C 83.64 71.91 85.10 73.27 83.84 74.82 C 83.09 74.87 81.60 74.97 80.85 75.03 Z" />
<path fill="#000000" opacity="1.00" d=" M 62.46 4.46 C 65.76 3.29 69.38 5.00 71.61 7.47 C 88.59 24.50 105.65 41.44 122.60 58.49 C 126.10 61.59 126.17 67.50 122.72 70.66 C 105.61 87.91 88.41 105.08 71.24 122.27 C 68.03 126.02 61.65 126.26 58.45 122.38 C 41.14 105.09 23.80 87.82 6.56 70.46 C 3.18 67.39 3.33 61.79 6.68 58.75 C 23.87 41.57 41.05 24.39 58.25 7.23 C 59.45 6.04 60.83 4.98 62.46 4.46 M 62.45 9.27 C 45.07 26.31 28.03 43.71 10.74 60.85 C 8.87 62.34 7.66 65.39 9.77 67.23 C 26.05 83.61 42.45 99.88 58.74 116.25 C 60.25 117.72 61.63 119.38 63.42 120.52 C 65.36 121.69 67.17 119.74 68.54 118.56 C 85.19 101.86 101.90 85.22 118.59 68.57 C 119.73 67.27 121.44 65.83 121.01 63.88 C 119.72 61.61 117.68 59.91 115.88 58.06 C 100.03 42.25 84.22 26.40 68.40 10.56 C 66.91 8.94 64.39 7.36 62.45 9.27 Z" />
<path fill="#000000" opacity="1.00" d=" M 46.23 44.80 C 50.70 43.40 55.45 44.28 60.05 43.88 C 62.50 44.01 65.29 43.12 67.46 44.66 C 70.98 46.92 74.68 48.92 78.06 51.39 C 80.83 53.45 80.22 57.39 81.87 60.07 C 85.68 63.63 89.81 66.86 93.63 70.42 C 93.78 71.08 94.10 72.40 94.25 73.06 C 92.27 74.27 90.29 75.50 88.18 76.50 C 87.63 73.70 87.55 69.74 84.27 68.67 C 81.33 66.92 78.52 71.51 75.65 69.39 C 69.41 65.85 63.34 62.03 57.07 58.53 C 56.90 56.41 57.62 53.80 55.74 52.24 C 53.74 49.83 50.20 51.05 48.15 52.72 C 46.73 51.70 45.29 50.70 43.96 49.57 C 44.38 47.85 45.49 46.40 46.23 44.80 M 56.52 46.23 C 60.43 49.37 65.07 51.39 69.29 54.05 C 70.28 52.45 71.27 50.86 72.25 49.25 C 69.86 47.78 67.63 45.74 64.77 45.28 C 61.99 45.35 59.26 45.87 56.52 46.23 M 73.43 49.78 C 72.40 51.37 71.39 52.96 70.37 54.55 C 73.55 56.60 76.66 58.91 80.37 59.95 C 79.94 57.49 79.61 54.82 78.02 52.80 C 76.71 51.50 74.98 50.74 73.43 49.78 Z" />
<path fill="#000000" opacity="1.00" d=" M 34.99 50.90 C 54.53 62.70 74.32 74.12 93.83 85.98 C 74.22 86.05 54.60 85.97 34.99 86.01 C 35.00 74.31 35.01 62.60 34.99 50.90 Z" />
<path fill="#000000" opacity="1.00" d=" M 51.16 52.05 C 54.00 51.10 57.47 55.00 55.20 57.45 C 53.78 60.37 48.62 59.25 48.77 55.91 C 48.44 54.12 49.66 52.77 51.16 52.05 M 51.02 54.13 C 49.78 55.62 50.12 56.78 52.04 57.61 C 54.23 57.43 54.05 55.47 54.07 53.81 C 53.31 53.89 51.78 54.05 51.02 54.13 Z" />
<path fill="#000000" opacity="1.00" d=" M 79.42 71.36 C 80.38 69.18 83.12 69.83 85.00 69.92 C 85.77 71.79 87.00 74.54 84.73 75.89 C 81.98 78.59 77.19 74.54 79.42 71.36 M 80.85 75.03 C 81.60 74.97 83.09 74.87 83.84 74.82 C 85.10 73.27 83.64 71.91 82.87 70.58 C 81.19 71.55 80.29 73.08 80.85 75.03 Z" />
</g>
<g id="normal">
<path fill="#FBD200" opacity="1.00" d=" M 58.04 5.06 C 60.05 2.95 62.98 1.32 65.98 2.02 C 68.58 2.19 70.57 3.97 72.29 5.76 C 89.72 23.28 107.25 40.71 124.70 58.21 C 127.92 61.05 128.62 66.33 125.89 69.74 C 107.48 88.05 89.17 106.48 70.75 124.79 C 67.56 128.32 61.61 128.10 58.46 124.63 C 40.85 107.19 23.41 89.58 5.83 72.11 C 3.95 70.34 2.67 68.07 1.65 65.72 C 1.76 62.85 2.91 60.04 5.04 58.08 C 22.69 40.39 40.38 22.74 58.04 5.06 M 62.46 4.46 C 60.83 4.98 59.45 6.04 58.25 7.23 C 41.05 24.39 23.87 41.57 6.68 58.75 C 3.33 61.79 3.18 67.39 6.56 70.46 C 23.80 87.82 41.14 105.09 58.45 122.38 C 61.65 126.26 68.03 126.02 71.24 122.27 C 88.41 105.08 105.61 87.91 122.72 70.66 C 126.17 67.50 126.10 61.59 122.60 58.49 C 105.65 41.44 88.59 24.50 71.61 7.47 C 69.38 5.00 65.76 3.29 62.46 4.46 Z" />
<path fill="#FBD200" opacity="1.00" d=" M 62.45 9.27 C 64.39 7.36 66.91 8.94 68.40 10.56 C 84.22 26.40 100.03 42.25 115.88 58.06 C 117.68 59.91 119.72 61.61 121.01 63.88 C 121.44 65.83 119.73 67.27 118.59 68.57 C 101.90 85.22 85.19 101.86 68.54 118.56 C 67.17 119.74 65.36 121.69 63.42 120.52 C 61.63 119.38 60.25 117.72 58.74 116.25 C 42.45 99.88 26.05 83.61 9.77 67.23 C 7.66 65.39 8.87 62.34 10.74 60.85 C 28.03 43.71 45.07 26.31 62.45 9.27 M 46.23 44.80 C 45.49 46.40 44.38 47.85 43.96 49.57 C 45.29 50.70 46.73 51.70 48.15 52.72 C 50.20 51.05 53.74 49.83 55.74 52.24 C 57.62 53.80 56.90 56.41 57.07 58.53 C 63.34 62.03 69.41 65.85 75.65 69.39 C 78.52 71.51 81.33 66.92 84.27 68.67 C 87.55 69.74 87.63 73.70 88.18 76.50 C 90.29 75.50 92.27 74.27 94.25 73.06 C 94.10 72.40 93.78 71.08 93.63 70.42 C 89.81 66.86 85.68 63.63 81.87 60.07 C 80.22 57.39 80.83 53.45 78.06 51.39 C 74.68 48.92 70.98 46.92 67.46 44.66 C 65.29 43.12 62.50 44.01 60.05 43.88 C 55.45 44.28 50.70 43.40 46.23 44.80 M 34.99 50.90 C 35.01 62.60 35.00 74.31 34.99 86.01 C 54.60 85.97 74.22 86.05 93.83 85.98 C 74.32 74.12 54.53 62.70 34.99 50.90 M 51.16 52.05 C 49.66 52.77 48.44 54.12 48.77 55.91 C 48.62 59.25 53.78 60.37 55.20 57.45 C 57.47 55.00 54.00 51.10 51.16 52.05 M 79.42 71.36 C 77.19 74.54 81.98 78.59 84.73 75.89 C 87.00 74.54 85.77 71.79 85.00 69.92 C 83.12 69.83 80.38 69.18 79.42 71.36 Z" />
<path fill="#FBD200" opacity="1.00" d=" M 56.52 46.23 C 59.26 45.87 61.99 45.35 64.77 45.28 C 67.63 45.74 69.86 47.78 72.25 49.25 C 71.27 50.86 70.28 52.45 69.29 54.05 C 65.07 51.39 60.43 49.37 56.52 46.23 Z" />
<path fill="#FBD200" opacity="1.00" d=" M 73.43 49.78 C 74.98 50.74 76.71 51.50 78.02 52.80 C 79.61 54.82 79.94 57.49 80.37 59.95 C 76.66 58.91 73.55 56.60 70.37 54.55 C 71.39 52.96 72.40 51.37 73.43 49.78 Z" />
<path fill="#FBD200" opacity="1.00" d=" M 51.02 54.13 C 51.78 54.05 53.31 53.89 54.07 53.81 C 54.05 55.47 54.23 57.43 52.04 57.61 C 50.12 56.78 49.78 55.62 51.02 54.13 Z" />
<path fill="#FBD200" opacity="1.00" d=" M 80.85 75.03 C 80.29 73.08 81.19 71.55 82.87 70.58 C 83.64 71.91 85.10 73.27 83.84 74.82 C 83.09 74.87 81.60 74.97 80.85 75.03 Z" />
<path fill="#000000" opacity="1.00" d=" M 62.46 4.46 C 65.76 3.29 69.38 5.00 71.61 7.47 C 88.59 24.50 105.65 41.44 122.60 58.49 C 126.10 61.59 126.17 67.50 122.72 70.66 C 105.61 87.91 88.41 105.08 71.24 122.27 C 68.03 126.02 61.65 126.26 58.45 122.38 C 41.14 105.09 23.80 87.82 6.56 70.46 C 3.18 67.39 3.33 61.79 6.68 58.75 C 23.87 41.57 41.05 24.39 58.25 7.23 C 59.45 6.04 60.83 4.98 62.46 4.46 M 62.45 9.27 C 45.07 26.31 28.03 43.71 10.74 60.85 C 8.87 62.34 7.66 65.39 9.77 67.23 C 26.05 83.61 42.45 99.88 58.74 116.25 C 60.25 117.72 61.63 119.38 63.42 120.52 C 65.36 121.69 67.17 119.74 68.54 118.56 C 85.19 101.86 101.90 85.22 118.59 68.57 C 119.73 67.27 121.44 65.83 121.01 63.88 C 119.72 61.61 117.68 59.91 115.88 58.06 C 100.03 42.25 84.22 26.40 68.40 10.56 C 66.91 8.94 64.39 7.36 62.45 9.27 Z" />
<path fill="#000000" opacity="1.00" d=" M 46.23 44.80 C 50.70 43.40 55.45 44.28 60.05 43.88 C 62.50 44.01 65.29 43.12 67.46 44.66 C 70.98 46.92 74.68 48.92 78.06 51.39 C 80.83 53.45 80.22 57.39 81.87 60.07 C 85.68 63.63 89.81 66.86 93.63 70.42 C 93.78 71.08 94.10 72.40 94.25 73.06 C 92.27 74.27 90.29 75.50 88.18 76.50 C 87.63 73.70 87.55 69.74 84.27 68.67 C 81.33 66.92 78.52 71.51 75.65 69.39 C 69.41 65.85 63.34 62.03 57.07 58.53 C 56.90 56.41 57.62 53.80 55.74 52.24 C 53.74 49.83 50.20 51.05 48.15 52.72 C 46.73 51.70 45.29 50.70 43.96 49.57 C 44.38 47.85 45.49 46.40 46.23 44.80 M 56.52 46.23 C 60.43 49.37 65.07 51.39 69.29 54.05 C 70.28 52.45 71.27 50.86 72.25 49.25 C 69.86 47.78 67.63 45.74 64.77 45.28 C 61.99 45.35 59.26 45.87 56.52 46.23 M 73.43 49.78 C 72.40 51.37 71.39 52.96 70.37 54.55 C 73.55 56.60 76.66 58.91 80.37 59.95 C 79.94 57.49 79.61 54.82 78.02 52.80 C 76.71 51.50 74.98 50.74 73.43 49.78 Z" />
<path fill="#000000" opacity="1.00" d=" M 34.99 50.90 C 54.53 62.70 74.32 74.12 93.83 85.98 C 74.22 86.05 54.60 85.97 34.99 86.01 C 35.00 74.31 35.01 62.60 34.99 50.90 Z" />
<path fill="#000000" opacity="1.00" d=" M 51.16 52.05 C 54.00 51.10 57.47 55.00 55.20 57.45 C 53.78 60.37 48.62 59.25 48.77 55.91 C 48.44 54.12 49.66 52.77 51.16 52.05 M 51.02 54.13 C 49.78 55.62 50.12 56.78 52.04 57.61 C 54.23 57.43 54.05 55.47 54.07 53.81 C 53.31 53.89 51.78 54.05 51.02 54.13 Z" />
<path fill="#000000" opacity="1.00" d=" M 79.42 71.36 C 80.38 69.18 83.12 69.83 85.00 69.92 C 85.77 71.79 87.00 74.54 84.73 75.89 C 81.98 78.59 77.19 74.54 79.42 71.36 M 80.85 75.03 C 81.60 74.97 83.09 74.87 83.84 74.82 C 85.10 73.27 83.64 71.91 82.87 70.58 C 81.19 71.55 80.29 73.08 80.85 75.03 Z" />
</g>
</svg>
