<?xml version="1.0" encoding="utf-8"?>
<!-- Generator: Adobe Illustrator 16.0.0, SVG Export Plug-In . SVG Version: 6.00 Build 0)  -->
<!DOCTYPE svg PUBLIC "-//W3C//DTD SVG 1.1//EN" "http://www.w3.org/Graphics/SVG/1.1/DTD/svg11.dtd">
<svg version="1.1" id="Layer_1" xmlns="http://www.w3.org/2000/svg" xmlns:xlink="http://www.w3.org/1999/xlink" x="0px" y="0px"
	 width="132px" height="132px" viewBox="0 0 132 132" enable-background="new 0 0 132 132" xml:space="preserve">
<g id="disabled">
	<g>
		<g>
			
				<linearGradient id="SVGID_3_" gradientUnits="userSpaceOnUse" x1="249.5928" y1="727.1699" x2="376.0664" y2="727.1699" gradientTransform="matrix(1 0 0 1 -246.3301 -660.6699)">
				<stop  offset="0" style="stop-color:#000000;stop-opacity:0.6"/>
				<stop  offset="1" style="stop-color:#000000;stop-opacity:0.6"/>
			</linearGradient>
			<path id="SVGID_1_" fill="url(#SVGID_3_)" d="M69.087,11.761c8.843,15.315,50.501,87.229,60.233,104.087
				c1.332,2.312-0.735,6.719-3.327,6.719c-19.009,0-100.207,0-118.516,0c-4.331,0-5.284-2.892-3.044-6.771
				c9.737-16.864,50.96-88.228,60.072-104.011C65.487,10.084,68.006,9.89,69.087,11.761L69.087,11.761z"/>
		</g>
		<g>
			<path id="SVGID_2_" fill="#FFFFFF" d="M68.087,10.761c8.843,15.315,50.501,87.229,60.233,104.087
				c1.332,2.312-0.735,6.719-3.327,6.719c-19.009,0-100.207,0-118.516,0c-4.331,0-5.284-2.892-3.044-6.771
				c9.737-16.864,50.96-88.228,60.072-104.011C64.487,9.084,67.006,8.89,68.087,10.761L68.087,10.761z"/>
		</g>
	</g>
	<g>
		<g>
			<path id="SVGID_6_" fill="#575757" d="M67.316,15.968c8.441,14.622,48.218,83.284,57.51,99.38
				c0.938,1.621-0.111,3.355-1.756,3.355c-18.148,0-97.715,0-115.196,0c-1.744,0-2.394-1.752-1.441-3.405
				c9.297-16.103,48.655-84.237,57.356-99.306C64.728,14.366,66.285,14.184,67.316,15.968L67.316,15.968z"/>
		</g>
	</g>
	<g>
		<g>
			<path id="SVGID_8_" fill="#FFFFFF" d="M66.813,36.986c5.957,10.319,34.03,58.78,40.59,70.14c0.66,1.146-0.079,2.368-1.238,2.368
				c-12.811,0-68.967,0-81.305,0c-1.232,0-1.689-1.236-1.016-2.4c6.561-11.365,34.34-59.455,40.479-70.091
				C64.985,35.854,66.085,35.725,66.813,36.986L66.813,36.986z"/>
		</g>
	</g>
	<g>
		<g>
			<path id="SVGID_10_" d="M79.471,76.343l-0.679,1.896v7.854l4.198,7.449l8.599,4.537l-2.166,3.791l-8.327-3.86l-6.771-8.396
				l-3.657,18.552l-4.333-0.137l4.113-18.82L70.26,78.645l-4.062-0.408l-7.042,5.283l-2.437-2.979l10.019-7.449l10.156-1.154
				l6.364,1.02l6.365,9.617l-3.251,1.354L79.471,76.343L79.471,76.343z M72.458,71.334c-2.522,0-4.569-2.046-4.569-4.57
				c0-2.523,2.047-4.57,4.569-4.57c2.524,0,4.571,2.045,4.571,4.57C77.029,69.289,74.982,71.334,72.458,71.334L72.458,71.334z
				 M49.134,82.371c-2.206,0-3.996-1.79-3.996-3.997c0-2.206,1.79-3.996,3.996-3.996c2.208,0,3.996,1.79,3.996,3.996
				C53.13,80.581,51.342,82.371,49.134,82.371L49.134,82.371z M62.948,96.114l0.136,3.114h-7.042c0,0-4.427-2.398-5.511-3.234
				c-0.05-0.166-0.105-0.288-0.176-0.288c-0.141,0-0.052,0.11,0.176,0.288c0.518,1.751-0.042,11.765-0.042,11.765h-3.114
				l-0.609-18.416l-7.515,4.603l-1.76-2.168l9.072-8.123l9.344-0.541l5.417,7.041l-1.896,1.744l-4.875-4.57l-1.084,2.148
				l2.844,6.639L62.948,96.114L62.948,96.114z"/>
		</g>
	</g>
	
		<linearGradient id="SVGID_4_" gradientUnits="userSpaceOnUse" x1="337.8535" y1="806.2246" x2="265.1683" y2="702.4196" gradientTransform="matrix(1 0 0 1 -246.3301 -660.6699)">
		<stop  offset="0" style="stop-color:#000000;stop-opacity:0"/>
		<stop  offset="1" style="stop-color:#FFFFFF;stop-opacity:0.25"/>
	</linearGradient>
	<path fill="url(#SVGID_4_)" d="M68.087,10.761c8.843,15.315,50.501,87.229,60.233,104.087c1.332,2.312-0.735,6.719-3.327,6.719
		c-19.009,0-100.207,0-118.516,0c-4.331,0-5.284-2.892-3.044-6.771c9.737-16.864,50.96-88.228,60.072-104.011
		C64.487,9.084,67.006,8.89,68.087,10.761L68.087,10.761z"/>
</g>
<g id="normal">
	<g>
		<g>
			
				<linearGradient id="SVGID_5_" gradientUnits="userSpaceOnUse" x1="249.5928" y1="727.1699" x2="376.0664" y2="727.1699" gradientTransform="matrix(1 0 0 1 -246.3301 -660.6699)">
				<stop  offset="0" style="stop-color:#000000;stop-opacity:0.6"/>
				<stop  offset="1" style="stop-color:#000000;stop-opacity:0.6"/>
			</linearGradient>
			<path id="SVGID_13_" fill="url(#SVGID_5_)" d="M69.087,11.761c8.843,15.315,50.501,87.229,60.233,104.087
				c1.332,2.312-0.735,6.719-3.327,6.719c-19.009,0-100.207,0-118.516,0c-4.331,0-5.284-2.892-3.044-6.771
				c9.737-16.864,50.96-88.228,60.072-104.011C65.487,10.084,68.006,9.89,69.087,11.761L69.087,11.761z"/>
		</g>
		<g>
			<path id="SVGID_14_" fill="#FFFFFF" d="M68.087,10.761c8.843,15.315,50.501,87.229,60.233,104.087
				c1.332,2.312-0.735,6.719-3.327,6.719c-19.009,0-100.207,0-118.516,0c-4.331,0-5.284-2.892-3.044-6.771
				c9.737-16.864,50.96-88.228,60.072-104.011C64.487,9.084,67.006,8.89,68.087,10.761L68.087,10.761z"/>
		</g>
	</g>
	<g>
		<g>
			<path id="SVGID_18_" fill="#DA1E22" d="M67.316,15.968c8.441,14.622,48.218,83.284,57.51,99.38
				c0.938,1.621-0.111,3.355-1.756,3.355c-18.148,0-97.715,0-115.196,0c-1.744,0-2.394-1.752-1.441-3.405
				c9.297-16.103,48.655-84.237,57.356-99.306C64.728,14.366,66.285,14.184,67.316,15.968L67.316,15.968z"/>
		</g>
	</g>
	<g>
		<g>
			<path id="SVGID_20_" fill="#FFFFFF" d="M66.813,36.986c5.957,10.319,34.03,58.78,40.59,70.14c0.66,1.146-0.079,2.368-1.238,2.368
				c-12.811,0-68.967,0-81.305,0c-1.232,0-1.689-1.236-1.016-2.4c6.561-11.365,34.34-59.455,40.479-70.091
				C64.985,35.854,66.085,35.725,66.813,36.986L66.813,36.986z"/>
		</g>
	</g>
	<g>
		<g>
			<path id="SVGID_22_" d="M79.471,76.343l-0.679,1.896v7.854l4.198,7.449l8.599,4.537l-2.166,3.791l-8.327-3.86l-6.771-8.396
				l-3.657,18.552l-4.333-0.137l4.113-18.82L70.26,78.645l-4.062-0.408l-7.042,5.283l-2.437-2.979l10.019-7.449l10.156-1.154
				l6.364,1.02l6.365,9.617l-3.251,1.354L79.471,76.343L79.471,76.343z M72.458,71.334c-2.522,0-4.569-2.046-4.569-4.57
				c0-2.523,2.047-4.57,4.569-4.57c2.524,0,4.571,2.045,4.571,4.57C77.029,69.289,74.982,71.334,72.458,71.334L72.458,71.334z
				 M49.134,82.371c-2.206,0-3.996-1.79-3.996-3.997c0-2.206,1.79-3.996,3.996-3.996c2.208,0,3.996,1.79,3.996,3.996
				C53.13,80.581,51.342,82.371,49.134,82.371L49.134,82.371z M62.948,96.114l0.136,3.114h-7.042c0,0-4.427-2.398-5.511-3.234
				c-0.05-0.166-0.105-0.288-0.176-0.288c-0.141,0-0.052,0.11,0.176,0.288c0.518,1.751-0.042,11.765-0.042,11.765h-3.114
				l-0.609-18.416l-7.515,4.603l-1.76-2.168l9.072-8.123l9.344-0.541l5.417,7.041l-1.896,1.744l-4.875-4.57l-1.084,2.148
				l2.844,6.639L62.948,96.114L62.948,96.114z"/>
		</g>
	</g>
	
		<linearGradient id="SVGID_7_" gradientUnits="userSpaceOnUse" x1="337.8535" y1="806.2246" x2="265.1683" y2="702.4196" gradientTransform="matrix(1 0 0 1 -246.3301 -660.6699)">
		<stop  offset="0" style="stop-color:#000000;stop-opacity:0"/>
		<stop  offset="1" style="stop-color:#FFFFFF;stop-opacity:0.25"/>
	</linearGradient>
	<path fill="url(#SVGID_7_)" d="M68.087,10.761c8.843,15.315,50.501,87.229,60.233,104.087c1.332,2.312-0.735,6.719-3.327,6.719
		c-19.009,0-100.207,0-118.516,0c-4.331,0-5.284-2.892-3.044-6.771c9.737-16.864,50.96-88.228,60.072-104.011
		C64.487,9.084,67.006,8.89,68.087,10.761L68.087,10.761z"/>
</g>
</svg>
