<?xml version="1.0" encoding="utf-8"?>
<!-- Generator: Adobe Illustrator 16.0.0, SVG Export Plug-In . SVG Version: 6.00 Build 0)  -->
<!DOCTYPE svg PUBLIC "-//W3C//DTD SVG 1.1//EN" "http://www.w3.org/Graphics/SVG/1.1/DTD/svg11.dtd">
<svg version="1.1" id="Layer_1" xmlns="http://www.w3.org/2000/svg" xmlns:xlink="http://www.w3.org/1999/xlink" x="0px" y="0px"
	 width="132px" height="132px" viewBox="0 0 132 132" enable-background="new 0 0 132 132" xml:space="preserve">
<g id="disabled">
	<g>
		<g>
			
				<linearGradient id="SVGID_3_" gradientUnits="userSpaceOnUse" x1="249.5928" y1="727.1699" x2="376.0664" y2="727.1699" gradientTransform="matrix(1 0 0 1 -246.3301 -660.6699)">
				<stop  offset="0" style="stop-color:#000000;stop-opacity:0.6"/>
				<stop  offset="1" style="stop-color:#000000;stop-opacity:0.6"/>
			</linearGradient>
			<path id="SVGID_1_" fill="url(#SVGID_3_)" d="M69.087,11.761c8.843,15.314,50.501,87.229,60.233,104.087
				c1.332,2.31-0.735,6.719-3.327,6.719c-19.009,0-100.207,0-118.516,0c-4.331,0-5.284-2.892-3.044-6.771
				c9.737-16.866,50.96-88.228,60.072-104.01C65.487,10.083,68.006,9.891,69.087,11.761L69.087,11.761z"/>
		</g>
		<g>
			<path id="SVGID_2_" fill="#FFFFFF" d="M68.087,10.761c8.843,15.314,50.501,87.229,60.233,104.087
				c1.332,2.31-0.735,6.719-3.327,6.719c-19.009,0-100.207,0-118.516,0c-4.331,0-5.284-2.892-3.044-6.771
				c9.737-16.866,50.96-88.228,60.072-104.01C64.487,9.083,67.006,8.891,68.087,10.761L68.087,10.761z"/>
		</g>
	</g>
	<g>
		<g>
			<path id="SVGID_6_" fill="#575757" d="M67.316,15.969c8.441,14.622,48.218,83.282,57.51,99.379
				c0.938,1.623-0.111,3.355-1.756,3.355c-18.148,0-97.715,0-115.196,0c-1.744,0-2.394-1.752-1.441-3.402
				c9.297-16.105,48.655-84.24,57.356-99.309C64.728,14.366,66.285,14.182,67.316,15.969L67.316,15.969z"/>
		</g>
	</g>
	<g>
		<g>
			<path id="SVGID_8_" fill="#FFFFFF" d="M66.813,36.985c5.957,10.321,34.03,58.783,40.59,70.141
				c0.66,1.144-0.079,2.368-1.238,2.368c-12.811,0-68.967,0-81.305,0c-1.232,0-1.689-1.237-1.016-2.402
				c6.561-11.363,34.34-59.455,40.479-70.091C64.985,35.854,66.085,35.724,66.813,36.985L66.813,36.985z"/>
		</g>
	</g>
	<g>
		<g>
			<path id="SVGID_10_" d="M98.146,102.592h-65v-7h14.682c4.077-3.833,8.462-7.472,15.283-7.709c2.256-0.078,3.813,0,5.836,0
				c5.9,0,10.513,3.45,14.969,7.709h14.23V102.592L98.146,102.592z"/>
		</g>
	</g>
	
		<linearGradient id="SVGID_4_" gradientUnits="userSpaceOnUse" x1="337.8545" y1="806.2256" x2="265.1693" y2="702.4205" gradientTransform="matrix(1 0 0 1 -246.3301 -660.6699)">
		<stop  offset="0" style="stop-color:#000000;stop-opacity:0"/>
		<stop  offset="1" style="stop-color:#FFFFFF;stop-opacity:0.25"/>
	</linearGradient>
	<path fill="url(#SVGID_4_)" d="M68.087,10.761c8.843,15.314,50.501,87.229,60.233,104.087c1.332,2.31-0.735,6.719-3.327,6.719
		c-19.009,0-100.207,0-118.516,0c-4.331,0-5.284-2.892-3.044-6.771c9.737-16.866,50.96-88.228,60.072-104.01
		C64.487,9.083,67.006,8.891,68.087,10.761L68.087,10.761z"/>
</g>
<g id="normal">
	<g>
		<g>
			
				<linearGradient id="SVGID_5_" gradientUnits="userSpaceOnUse" x1="249.5928" y1="727.1699" x2="376.0664" y2="727.1699" gradientTransform="matrix(1 0 0 1 -246.3301 -660.6699)">
				<stop  offset="0" style="stop-color:#000000;stop-opacity:0.6"/>
				<stop  offset="1" style="stop-color:#000000;stop-opacity:0.6"/>
			</linearGradient>
			<path id="SVGID_13_" fill="url(#SVGID_5_)" d="M69.087,11.761c8.843,15.314,50.501,87.229,60.233,104.087
				c1.332,2.31-0.735,6.719-3.327,6.719c-19.009,0-100.207,0-118.516,0c-4.331,0-5.284-2.892-3.044-6.771
				c9.737-16.866,50.96-88.228,60.072-104.01C65.487,10.083,68.006,9.891,69.087,11.761L69.087,11.761z"/>
		</g>
		<g>
			<path id="SVGID_14_" fill="#FFFFFF" d="M68.087,10.761c8.843,15.314,50.501,87.229,60.233,104.087
				c1.332,2.31-0.735,6.719-3.327,6.719c-19.009,0-100.207,0-118.516,0c-4.331,0-5.284-2.892-3.044-6.771
				c9.737-16.866,50.96-88.228,60.072-104.01C64.487,9.083,67.006,8.891,68.087,10.761L68.087,10.761z"/>
		</g>
	</g>
	<g>
		<g>
			<path id="SVGID_18_" fill="#DA1E22" d="M67.316,15.969c8.441,14.622,48.218,83.282,57.51,99.379
				c0.938,1.623-0.111,3.355-1.756,3.355c-18.148,0-97.715,0-115.196,0c-1.744,0-2.394-1.752-1.441-3.402
				c9.297-16.105,48.655-84.24,57.356-99.309C64.728,14.366,66.285,14.182,67.316,15.969L67.316,15.969z"/>
		</g>
	</g>
	<g>
		<g>
			<path id="SVGID_20_" fill="#FFFFFF" d="M66.813,36.985c5.957,10.321,34.03,58.783,40.59,70.141
				c0.66,1.144-0.079,2.368-1.238,2.368c-12.811,0-68.967,0-81.305,0c-1.232,0-1.689-1.237-1.016-2.402
				c6.561-11.363,34.34-59.455,40.479-70.091C64.985,35.854,66.085,35.724,66.813,36.985L66.813,36.985z"/>
		</g>
	</g>
	<g>
		<g>
			<path id="SVGID_22_" d="M98.146,102.592h-65v-7h14.682c4.077-3.833,8.462-7.472,15.283-7.709c2.256-0.078,3.813,0,5.836,0
				c5.9,0,10.513,3.45,14.969,7.709h14.23V102.592L98.146,102.592z"/>
		</g>
	</g>
	
		<linearGradient id="SVGID_7_" gradientUnits="userSpaceOnUse" x1="337.8545" y1="806.2256" x2="265.1693" y2="702.4205" gradientTransform="matrix(1 0 0 1 -246.3301 -660.6699)">
		<stop  offset="0" style="stop-color:#000000;stop-opacity:0"/>
		<stop  offset="1" style="stop-color:#FFFFFF;stop-opacity:0.25"/>
	</linearGradient>
	<path fill="url(#SVGID_7_)" d="M68.087,10.761c8.843,15.314,50.501,87.229,60.233,104.087c1.332,2.31-0.735,6.719-3.327,6.719
		c-19.009,0-100.207,0-118.516,0c-4.331,0-5.284-2.892-3.044-6.771c9.737-16.866,50.96-88.228,60.072-104.01
		C64.487,9.083,67.006,8.891,68.087,10.761L68.087,10.761z"/>
</g>
</svg>
