<?xml version="1.0" encoding="UTF-8" ?>
<!DOCTYPE svg PUBLIC "-//W3C//DTD SVG 1.1//EN" "http://www.w3.org/Graphics/SVG/1.1/DTD/svg11.dtd">
<svg width="130pt" height="130pt" viewBox="0 0 130 130" version="1.1" xmlns="http://www.w3.org/2000/svg">
<g id="disabled">
<path fill="#606060" opacity="1.00" d=" M 59.33 4.26 C 62.99 0.52 69.40 1.54 72.45 5.56 C 88.60 21.75 104.78 37.90 120.94 54.07 C 123.15 56.33 125.59 58.41 127.37 61.05 C 128.65 64.54 127.91 68.53 125.15 71.09 C 107.31 88.96 89.47 106.84 71.55 124.63 C 68.41 128.11 62.41 128.34 59.23 124.79 C 40.82 106.49 22.53 88.05 4.12 69.75 C 1.47 66.36 2.06 61.14 5.25 58.30 C 23.26 40.27 41.27 22.23 59.33 4.26 M 62.42 4.56 C 60.57 5.17 59.14 6.53 57.79 7.88 C 41.01 24.74 24.12 41.50 7.35 58.38 C 3.83 61.53 3.76 67.52 7.24 70.73 C 24.38 87.94 41.60 105.10 58.77 122.29 C 61.05 124.94 64.70 125.64 68.01 124.90 C 70.16 123.90 71.82 122.13 73.49 120.49 C 90.08 103.81 106.79 87.24 123.37 70.54 C 126.80 67.46 126.70 61.78 123.29 58.72 C 105.94 41.40 88.60 24.05 71.27 6.71 C 69.05 4.37 65.48 3.17 62.42 4.56 Z" />
<path fill="#606060" opacity="1.00" d=" M 63.36 9.16 C 65.10 7.78 67.39 8.84 68.69 10.29 C 85.69 27.30 102.70 44.30 119.70 61.30 C 121.39 62.70 122.10 65.59 120.28 67.19 C 103.12 84.40 85.90 101.57 68.74 118.78 C 67.70 119.77 66.56 120.95 65.00 120.95 C 62.48 120.05 60.81 117.85 58.96 116.05 C 43.13 100.19 27.26 84.38 11.44 68.51 C 10.33 67.21 8.61 65.82 9.00 63.89 C 9.96 62.31 11.33 61.03 12.62 59.72 C 29.59 42.92 46.29 25.84 63.36 9.16 M 34.05 41.76 C 38.51 46.50 42.92 51.28 47.39 56.00 C 59.44 56.00 71.48 56.01 83.53 55.99 C 88.04 51.14 92.78 46.50 97.19 41.55 C 93.58 38.07 90.02 34.53 86.61 30.86 C 79.89 38.56 72.47 45.65 65.48 53.10 C 58.44 45.94 51.60 38.60 44.68 31.33 C 40.87 34.52 37.52 38.21 34.05 41.76 M 29.83 61.96 C 28.59 62.02 27.34 62.08 26.09 62.15 C 26.08 63.39 26.09 64.63 26.10 65.87 C 27.38 65.93 28.67 65.99 29.96 66.04 C 30.01 67.33 30.07 68.62 30.14 69.92 C 32.06 69.98 33.97 69.97 35.89 69.88 C 35.94 68.59 35.99 67.29 36.04 66.00 C 37.67 66.00 39.31 66.00 40.94 66.00 C 41.01 67.31 41.09 68.63 41.17 69.95 C 43.08 69.98 44.98 69.96 46.89 69.88 C 46.94 68.59 46.99 67.29 47.04 66.00 C 48.68 66.00 50.31 66.00 51.95 66.00 C 52.01 67.30 52.07 68.61 52.14 69.91 C 54.05 69.98 55.95 69.97 57.86 69.91 C 57.93 68.60 57.99 67.30 58.05 66.00 C 59.68 66.00 61.31 66.00 62.94 66.00 C 63.01 67.31 63.08 68.62 63.17 69.94 C 65.07 69.98 66.97 69.97 68.87 69.90 C 68.93 68.60 68.99 67.30 69.05 66.00 C 70.68 66.00 72.32 66.00 73.95 66.00 C 74.01 67.30 74.07 68.60 74.13 69.90 C 76.04 69.97 77.95 69.97 79.86 69.91 C 79.93 68.61 79.99 67.30 80.05 66.00 C 81.68 66.00 83.32 66.00 84.95 66.00 C 85.01 67.30 85.07 68.60 85.14 69.91 C 87.04 69.97 88.95 69.97 90.85 69.91 C 90.92 68.61 90.99 67.30 91.05 66.00 C 92.68 66.00 94.32 66.00 95.96 66.00 C 96.01 67.30 96.06 68.59 96.12 69.89 C 98.04 69.97 99.96 69.98 101.87 69.90 C 101.93 68.61 101.99 67.32 102.04 66.03 C 103.32 65.99 104.60 65.94 105.88 65.88 C 105.91 64.64 105.92 63.40 105.93 62.16 C 104.64 62.09 103.35 62.02 102.06 61.95 C 102.00 61.24 101.88 59.81 101.82 59.09 C 99.34 58.94 95.32 58.16 95.83 62.00 C 94.24 62.00 92.65 62.00 91.06 62.00 C 91.01 61.28 90.89 59.83 90.83 59.11 C 88.37 58.95 84.29 58.14 84.83 62.00 C 83.24 62.00 81.65 62.00 80.07 62.00 C 80.01 61.28 79.89 59.83 79.83 59.11 C 77.38 58.94 73.29 58.15 73.83 62.00 C 72.24 62.00 70.65 62.00 69.06 62.00 C 69.01 61.28 68.90 59.84 68.85 59.12 C 66.39 58.92 62.31 58.16 62.83 62.00 C 61.24 62.00 59.66 62.00 58.07 62.00 C 58.01 61.28 57.88 59.82 57.82 59.10 C 55.37 58.95 51.29 58.15 51.83 62.00 C 50.24 62.00 48.65 62.00 47.06 62.00 C 47.01 61.28 46.89 59.83 46.83 59.11 C 44.34 58.92 40.35 58.17 40.83 62.00 C 39.24 62.00 37.66 62.00 36.07 62.00 C 36.01 61.27 35.88 59.82 35.81 59.09 C 33.37 58.97 29.33 58.14 29.83 61.96 M 47.04 71.99 C 42.78 76.74 37.75 81.04 33.91 86.01 C 36.78 89.68 40.39 93.12 43.95 96.18 C 51.66 89.71 57.91 81.49 65.43 74.74 C 72.66 82.21 79.78 89.80 86.97 97.31 C 90.51 93.91 93.94 90.40 97.38 86.91 C 93.01 81.75 88.20 76.97 83.61 72.00 C 71.42 72.00 59.23 72.01 47.04 71.99 Z" />
<path fill="#000000" opacity="1.00" d=" M 62.42 4.56 C 65.48 3.17 69.05 4.37 71.27 6.71 C 88.60 24.05 105.94 41.40 123.29 58.72 C 126.70 61.78 126.80 67.46 123.37 70.54 C 106.79 87.24 90.08 103.81 73.49 120.49 C 71.82 122.13 70.16 123.90 68.01 124.90 C 64.70 125.64 61.05 124.94 58.77 122.29 C 41.60 105.10 24.38 87.94 7.24 70.73 C 3.76 67.52 3.83 61.53 7.35 58.38 C 24.12 41.50 41.01 24.74 57.79 7.88 C 59.14 6.53 60.57 5.17 62.42 4.56 M 63.36 9.16 C 46.29 25.84 29.59 42.92 12.62 59.72 C 11.33 61.03 9.96 62.31 9.00 63.89 C 8.61 65.82 10.33 67.21 11.44 68.51 C 27.26 84.38 43.13 100.19 58.96 116.05 C 60.81 117.85 62.48 120.05 65.00 120.95 C 66.56 120.95 67.70 119.77 68.74 118.78 C 85.90 101.57 103.12 84.40 120.28 67.19 C 122.10 65.59 121.39 62.70 119.70 61.30 C 102.70 44.30 85.69 27.30 68.69 10.29 C 67.39 8.84 65.10 7.78 63.36 9.16 Z" />
<path fill="#000000" opacity="1.00" d=" M 34.05 41.76 C 37.52 38.21 40.87 34.52 44.68 31.33 C 51.60 38.60 58.44 45.94 65.48 53.10 C 72.47 45.65 79.89 38.56 86.61 30.86 C 90.02 34.53 93.58 38.07 97.19 41.55 C 92.78 46.50 88.04 51.14 83.53 55.99 C 71.48 56.01 59.44 56.00 47.39 56.00 C 42.92 51.28 38.51 46.50 34.05 41.76 Z" />
<path fill="#000000" opacity="1.00" d=" M 29.83 61.96 C 29.33 58.14 33.37 58.97 35.81 59.09 C 35.88 59.82 36.01 61.27 36.07 62.00 C 37.66 62.00 39.24 62.00 40.83 62.00 C 40.35 58.17 44.34 58.92 46.83 59.11 C 46.89 59.83 47.01 61.28 47.06 62.00 C 48.65 62.00 50.24 62.00 51.83 62.00 C 51.29 58.15 55.37 58.95 57.82 59.10 C 57.88 59.82 58.01 61.28 58.07 62.00 C 59.66 62.00 61.24 62.00 62.83 62.00 C 62.31 58.16 66.39 58.92 68.85 59.12 C 68.90 59.84 69.01 61.28 69.06 62.00 C 70.65 62.00 72.24 62.00 73.83 62.00 C 73.29 58.15 77.38 58.94 79.83 59.11 C 79.89 59.83 80.01 61.28 80.07 62.00 C 81.65 62.00 83.24 62.00 84.83 62.00 C 84.29 58.14 88.37 58.95 90.83 59.11 C 90.89 59.83 91.01 61.28 91.06 62.00 C 92.65 62.00 94.24 62.00 95.83 62.00 C 95.32 58.16 99.34 58.94 101.82 59.09 C 101.88 59.81 102.00 61.24 102.06 61.95 C 103.35 62.02 104.64 62.09 105.93 62.16 C 105.92 63.40 105.91 64.64 105.88 65.88 C 104.60 65.94 103.32 65.99 102.04 66.03 C 101.99 67.32 101.93 68.61 101.87 69.90 C 99.96 69.98 98.04 69.97 96.12 69.89 C 96.06 68.59 96.01 67.30 95.96 66.00 C 94.32 66.00 92.68 66.00 91.05 66.00 C 90.99 67.30 90.92 68.61 90.85 69.91 C 88.95 69.97 87.04 69.97 85.14 69.91 C 85.07 68.60 85.01 67.30 84.95 66.00 C 83.32 66.00 81.68 66.00 80.05 66.00 C 79.99 67.30 79.93 68.61 79.86 69.91 C 77.95 69.97 76.04 69.97 74.13 69.90 C 74.07 68.60 74.01 67.30 73.95 66.00 C 72.32 66.00 70.68 66.00 69.05 66.00 C 68.99 67.30 68.93 68.60 68.87 69.90 C 66.97 69.97 65.07 69.98 63.17 69.94 C 63.08 68.62 63.01 67.31 62.94 66.00 C 61.31 66.00 59.68 66.00 58.05 66.00 C 57.99 67.30 57.93 68.60 57.86 69.91 C 55.95 69.97 54.05 69.98 52.14 69.91 C 52.07 68.61 52.01 67.30 51.95 66.00 C 50.31 66.00 48.68 66.00 47.04 66.00 C 46.99 67.29 46.94 68.59 46.89 69.88 C 44.98 69.96 43.08 69.98 41.17 69.95 C 41.09 68.63 41.01 67.31 40.94 66.00 C 39.31 66.00 37.67 66.00 36.04 66.00 C 35.99 67.29 35.94 68.59 35.89 69.88 C 33.97 69.97 32.06 69.98 30.14 69.92 C 30.07 68.62 30.01 67.33 29.96 66.04 C 28.67 65.99 27.38 65.93 26.10 65.87 C 26.09 64.63 26.08 63.39 26.09 62.15 C 27.34 62.08 28.59 62.02 29.83 61.96 Z" />
<path fill="#000000" opacity="1.00" d=" M 47.04 71.99 C 59.23 72.01 71.42 72.00 83.61 72.00 C 88.20 76.97 93.01 81.75 97.38 86.91 C 93.94 90.40 90.51 93.91 86.97 97.31 C 79.78 89.80 72.66 82.21 65.43 74.74 C 57.91 81.49 51.66 89.71 43.95 96.18 C 40.39 93.12 36.78 89.68 33.91 86.01 C 37.75 81.04 42.78 76.74 47.04 71.99 Z" />
</g>
<g id="normal">
<path fill="#FBD200" opacity="1.00" d=" M 59.33 4.26 C 62.99 0.52 69.40 1.54 72.45 5.56 C 88.60 21.75 104.78 37.90 120.94 54.07 C 123.15 56.33 125.59 58.41 127.37 61.05 C 128.65 64.54 127.91 68.53 125.15 71.09 C 107.31 88.96 89.47 106.84 71.55 124.63 C 68.41 128.11 62.41 128.34 59.23 124.79 C 40.82 106.49 22.53 88.05 4.12 69.75 C 1.47 66.36 2.06 61.14 5.25 58.30 C 23.26 40.27 41.27 22.23 59.33 4.26 M 62.42 4.56 C 60.57 5.17 59.14 6.53 57.79 7.88 C 41.01 24.74 24.12 41.50 7.35 58.38 C 3.83 61.53 3.76 67.52 7.24 70.73 C 24.38 87.94 41.60 105.10 58.77 122.29 C 61.05 124.94 64.70 125.64 68.01 124.90 C 70.16 123.90 71.82 122.13 73.49 120.49 C 90.08 103.81 106.79 87.24 123.37 70.54 C 126.80 67.46 126.70 61.78 123.29 58.72 C 105.94 41.40 88.60 24.05 71.27 6.71 C 69.05 4.37 65.48 3.17 62.42 4.56 Z" />
<path fill="#FBD200" opacity="1.00" d=" M 63.36 9.16 C 65.10 7.78 67.39 8.84 68.69 10.29 C 85.69 27.30 102.70 44.30 119.70 61.30 C 121.39 62.70 122.10 65.59 120.28 67.19 C 103.12 84.40 85.90 101.57 68.74 118.78 C 67.70 119.77 66.56 120.95 65.00 120.95 C 62.48 120.05 60.81 117.85 58.96 116.05 C 43.13 100.19 27.26 84.38 11.44 68.51 C 10.33 67.21 8.61 65.82 9.00 63.89 C 9.96 62.31 11.33 61.03 12.62 59.72 C 29.59 42.92 46.29 25.84 63.36 9.16 M 34.05 41.76 C 38.51 46.50 42.92 51.28 47.39 56.00 C 59.44 56.00 71.48 56.01 83.53 55.99 C 88.04 51.14 92.78 46.50 97.19 41.55 C 93.58 38.07 90.02 34.53 86.61 30.86 C 79.89 38.56 72.47 45.65 65.48 53.10 C 58.44 45.94 51.60 38.60 44.68 31.33 C 40.87 34.52 37.52 38.21 34.05 41.76 M 29.83 61.96 C 28.59 62.02 27.34 62.08 26.09 62.15 C 26.08 63.39 26.09 64.63 26.10 65.87 C 27.38 65.93 28.67 65.99 29.96 66.04 C 30.01 67.33 30.07 68.62 30.14 69.92 C 32.06 69.98 33.97 69.97 35.89 69.88 C 35.94 68.59 35.99 67.29 36.04 66.00 C 37.67 66.00 39.31 66.00 40.94 66.00 C 41.01 67.31 41.09 68.63 41.17 69.95 C 43.08 69.98 44.98 69.96 46.89 69.88 C 46.94 68.59 46.99 67.29 47.04 66.00 C 48.68 66.00 50.31 66.00 51.95 66.00 C 52.01 67.30 52.07 68.61 52.14 69.91 C 54.05 69.98 55.95 69.97 57.86 69.91 C 57.93 68.60 57.99 67.30 58.05 66.00 C 59.68 66.00 61.31 66.00 62.94 66.00 C 63.01 67.31 63.08 68.62 63.17 69.94 C 65.07 69.98 66.97 69.97 68.87 69.90 C 68.93 68.60 68.99 67.30 69.05 66.00 C 70.68 66.00 72.32 66.00 73.95 66.00 C 74.01 67.30 74.07 68.60 74.13 69.90 C 76.04 69.97 77.95 69.97 79.86 69.91 C 79.93 68.61 79.99 67.30 80.05 66.00 C 81.68 66.00 83.32 66.00 84.95 66.00 C 85.01 67.30 85.07 68.60 85.14 69.91 C 87.04 69.97 88.95 69.97 90.85 69.91 C 90.92 68.61 90.99 67.30 91.05 66.00 C 92.68 66.00 94.32 66.00 95.96 66.00 C 96.01 67.30 96.06 68.59 96.12 69.89 C 98.04 69.97 99.96 69.98 101.87 69.90 C 101.93 68.61 101.99 67.32 102.04 66.03 C 103.32 65.99 104.60 65.94 105.88 65.88 C 105.91 64.64 105.92 63.40 105.93 62.16 C 104.64 62.09 103.35 62.02 102.06 61.95 C 102.00 61.24 101.88 59.81 101.82 59.09 C 99.34 58.94 95.32 58.16 95.83 62.00 C 94.24 62.00 92.65 62.00 91.06 62.00 C 91.01 61.28 90.89 59.83 90.83 59.11 C 88.37 58.95 84.29 58.14 84.83 62.00 C 83.24 62.00 81.65 62.00 80.07 62.00 C 80.01 61.28 79.89 59.83 79.83 59.11 C 77.38 58.94 73.29 58.15 73.83 62.00 C 72.24 62.00 70.65 62.00 69.06 62.00 C 69.01 61.28 68.90 59.84 68.85 59.12 C 66.39 58.92 62.31 58.16 62.83 62.00 C 61.24 62.00 59.66 62.00 58.07 62.00 C 58.01 61.28 57.88 59.82 57.82 59.10 C 55.37 58.95 51.29 58.15 51.83 62.00 C 50.24 62.00 48.65 62.00 47.06 62.00 C 47.01 61.28 46.89 59.83 46.83 59.11 C 44.34 58.92 40.35 58.17 40.83 62.00 C 39.24 62.00 37.66 62.00 36.07 62.00 C 36.01 61.27 35.88 59.82 35.81 59.09 C 33.37 58.97 29.33 58.14 29.83 61.96 M 47.04 71.99 C 42.78 76.74 37.75 81.04 33.91 86.01 C 36.78 89.68 40.39 93.12 43.95 96.18 C 51.66 89.71 57.91 81.49 65.43 74.74 C 72.66 82.21 79.78 89.80 86.97 97.31 C 90.51 93.91 93.94 90.40 97.38 86.91 C 93.01 81.75 88.20 76.97 83.61 72.00 C 71.42 72.00 59.23 72.01 47.04 71.99 Z" />
<path fill="#000000" opacity="1.00" d=" M 62.42 4.56 C 65.48 3.17 69.05 4.37 71.27 6.71 C 88.60 24.05 105.94 41.40 123.29 58.72 C 126.70 61.78 126.80 67.46 123.37 70.54 C 106.79 87.24 90.08 103.81 73.49 120.49 C 71.82 122.13 70.16 123.90 68.01 124.90 C 64.70 125.64 61.05 124.94 58.77 122.29 C 41.60 105.10 24.38 87.94 7.24 70.73 C 3.76 67.52 3.83 61.53 7.35 58.38 C 24.12 41.50 41.01 24.74 57.79 7.88 C 59.14 6.53 60.57 5.17 62.42 4.56 M 63.36 9.16 C 46.29 25.84 29.59 42.92 12.62 59.72 C 11.33 61.03 9.96 62.31 9.00 63.89 C 8.61 65.82 10.33 67.21 11.44 68.51 C 27.26 84.38 43.13 100.19 58.96 116.05 C 60.81 117.85 62.48 120.05 65.00 120.95 C 66.56 120.95 67.70 119.77 68.74 118.78 C 85.90 101.57 103.12 84.40 120.28 67.19 C 122.10 65.59 121.39 62.70 119.70 61.30 C 102.70 44.30 85.69 27.30 68.69 10.29 C 67.39 8.84 65.10 7.78 63.36 9.16 Z" />
<path fill="#000000" opacity="1.00" d=" M 34.05 41.76 C 37.52 38.21 40.87 34.52 44.68 31.33 C 51.60 38.60 58.44 45.94 65.48 53.10 C 72.47 45.65 79.89 38.56 86.61 30.86 C 90.02 34.53 93.58 38.07 97.19 41.55 C 92.78 46.50 88.04 51.14 83.53 55.99 C 71.48 56.01 59.44 56.00 47.39 56.00 C 42.92 51.28 38.51 46.50 34.05 41.76 Z" />
<path fill="#000000" opacity="1.00" d=" M 29.83 61.96 C 29.33 58.14 33.37 58.97 35.81 59.09 C 35.88 59.82 36.01 61.27 36.07 62.00 C 37.66 62.00 39.24 62.00 40.83 62.00 C 40.35 58.17 44.34 58.92 46.83 59.11 C 46.89 59.83 47.01 61.28 47.06 62.00 C 48.65 62.00 50.24 62.00 51.83 62.00 C 51.29 58.15 55.37 58.95 57.82 59.10 C 57.88 59.82 58.01 61.28 58.07 62.00 C 59.66 62.00 61.24 62.00 62.83 62.00 C 62.31 58.16 66.39 58.92 68.85 59.12 C 68.90 59.84 69.01 61.28 69.06 62.00 C 70.65 62.00 72.24 62.00 73.83 62.00 C 73.29 58.15 77.38 58.94 79.83 59.11 C 79.89 59.83 80.01 61.28 80.07 62.00 C 81.65 62.00 83.24 62.00 84.83 62.00 C 84.29 58.14 88.37 58.95 90.83 59.11 C 90.89 59.83 91.01 61.28 91.06 62.00 C 92.65 62.00 94.24 62.00 95.83 62.00 C 95.32 58.16 99.34 58.94 101.82 59.09 C 101.88 59.81 102.00 61.24 102.06 61.95 C 103.35 62.02 104.64 62.09 105.93 62.16 C 105.92 63.40 105.91 64.64 105.88 65.88 C 104.60 65.94 103.32 65.99 102.04 66.03 C 101.99 67.32 101.93 68.61 101.87 69.90 C 99.96 69.98 98.04 69.97 96.12 69.89 C 96.06 68.59 96.01 67.30 95.96 66.00 C 94.32 66.00 92.68 66.00 91.05 66.00 C 90.99 67.30 90.92 68.61 90.85 69.91 C 88.95 69.97 87.04 69.97 85.14 69.91 C 85.07 68.60 85.01 67.30 84.95 66.00 C 83.32 66.00 81.68 66.00 80.05 66.00 C 79.99 67.30 79.93 68.61 79.86 69.91 C 77.95 69.97 76.04 69.97 74.13 69.90 C 74.07 68.60 74.01 67.30 73.95 66.00 C 72.32 66.00 70.68 66.00 69.05 66.00 C 68.99 67.30 68.93 68.60 68.87 69.90 C 66.97 69.97 65.07 69.98 63.17 69.94 C 63.08 68.62 63.01 67.31 62.94 66.00 C 61.31 66.00 59.68 66.00 58.05 66.00 C 57.99 67.30 57.93 68.60 57.86 69.91 C 55.95 69.97 54.05 69.98 52.14 69.91 C 52.07 68.61 52.01 67.30 51.95 66.00 C 50.31 66.00 48.68 66.00 47.04 66.00 C 46.99 67.29 46.94 68.59 46.89 69.88 C 44.98 69.96 43.08 69.98 41.17 69.95 C 41.09 68.63 41.01 67.31 40.94 66.00 C 39.31 66.00 37.67 66.00 36.04 66.00 C 35.99 67.29 35.94 68.59 35.89 69.88 C 33.97 69.97 32.06 69.98 30.14 69.92 C 30.07 68.62 30.01 67.33 29.96 66.04 C 28.67 65.99 27.38 65.93 26.10 65.87 C 26.09 64.63 26.08 63.39 26.09 62.15 C 27.34 62.08 28.59 62.02 29.83 61.96 Z" />
<path fill="#000000" opacity="1.00" d=" M 47.04 71.99 C 59.23 72.01 71.42 72.00 83.61 72.00 C 88.20 76.97 93.01 81.75 97.38 86.91 C 93.94 90.40 90.51 93.91 86.97 97.31 C 79.78 89.80 72.66 82.21 65.43 74.74 C 57.91 81.49 51.66 89.71 43.95 96.18 C 40.39 93.12 36.78 89.68 33.91 86.01 C 37.75 81.04 42.78 76.74 47.04 71.99 Z" />
</g>
</svg>
