<?xml version="1.0" encoding="utf-8"?>
<!-- Generator: Adobe Illustrator 17.0.1, SVG Export Plug-In . SVG Version: 6.00 Build 0)  -->
<!DOCTYPE svg PUBLIC "-//W3C//DTD SVG 1.1//EN" "http://www.w3.org/Graphics/SVG/1.1/DTD/svg11.dtd">
<svg version="1.1" xmlns="http://www.w3.org/2000/svg" xmlns:xlink="http://www.w3.org/1999/xlink" x="0px" y="0px" width="132px"
	 height="132px" viewBox="0 0 132 132" enable-background="new 0 0 132 132" xml:space="preserve">
<g id="disabled">
	<g>
		<defs>
			<path id="SVGID_1_" d="M69.087,11.761c8.842,15.315,50.501,87.228,60.233,104.086c1.333,2.311-0.735,6.72-3.327,6.72
				c-19.008,0-100.207,0-118.516,0c-4.331,0-5.284-2.892-3.044-6.771c9.737-16.865,50.96-88.228,60.072-104.01
				C65.487,10.084,68.006,9.89,69.087,11.761L69.087,11.761z"/>
		</defs>
		<defs>
			<path id="SVGID_2_" d="M68.087,10.761c8.842,15.315,50.501,87.228,60.233,104.086c1.333,2.311-0.735,6.72-3.327,6.72
				c-19.008,0-100.207,0-118.516,0c-4.331,0-5.284-2.892-3.044-6.771c9.737-16.865,50.96-88.228,60.072-104.01
				C64.487,9.084,67.006,8.89,68.087,10.761L68.087,10.761z"/>
		</defs>
		<linearGradient id="SVGID_3_" gradientUnits="userSpaceOnUse" x1="3.2627" y1="66.5" x2="129.7374" y2="66.5">
			<stop  offset="0" style="stop-color:#000000;stop-opacity:0.6"/>
			<stop  offset="1" style="stop-color:#000000;stop-opacity:0.6"/>
		</linearGradient>
		<use xlink:href="#SVGID_1_"  overflow="visible" fill-rule="evenodd" clip-rule="evenodd" fill="url(#SVGID_3_)"/>
		<use xlink:href="#SVGID_2_"  overflow="visible" fill-rule="evenodd" clip-rule="evenodd" fill="#FFFFFF"/>
		<clipPath id="SVGID_4_">
			<use xlink:href="#SVGID_1_"  overflow="visible"/>
		</clipPath>
		<clipPath id="SVGID_5_" clip-path="url(#SVGID_4_)">
			<use xlink:href="#SVGID_2_"  overflow="visible"/>
		</clipPath>
	</g>
	<g>
		<defs>
			<path id="SVGID_6_" d="M67.317,15.969c8.442,14.622,48.217,83.284,57.509,99.377c0.937,1.623-0.111,3.356-1.756,3.356
				c-18.148,0-97.715,0-115.196,0c-1.744,0-2.394-1.752-1.441-3.403c9.297-16.101,48.655-84.238,57.356-99.306
				C64.728,14.367,66.285,14.183,67.317,15.969L67.317,15.969z"/>
		</defs>
		<use xlink:href="#SVGID_6_"  overflow="visible" fill-rule="evenodd" clip-rule="evenodd" fill="#575757"/>
		<clipPath id="SVGID_7_">
			<use xlink:href="#SVGID_6_"  overflow="visible"/>
		</clipPath>
	</g>
	<g>
		<defs>
			<path id="SVGID_8_" d="M66.812,36.985c5.958,10.321,34.031,58.782,40.59,70.141c0.661,1.145-0.079,2.368-1.239,2.368
				c-12.81,0-68.967,0-81.305,0c-1.232,0-1.689-1.237-1.016-2.402c6.561-11.366,34.34-59.454,40.479-70.09
				C64.985,35.855,66.085,35.725,66.812,36.985L66.812,36.985z"/>
		</defs>
		<use xlink:href="#SVGID_8_"  overflow="visible" fill-rule="evenodd" clip-rule="evenodd" fill="#FFFFFF"/>
		<clipPath id="SVGID_9_">
			<use xlink:href="#SVGID_8_"  overflow="visible"/>
		</clipPath>
	</g>
	<g>
		<defs>
			<path id="SVGID_10_" d="M62.312,106.619l1.993-0.995l0.527-9.087c0,0,1.525,2.285,1.583,3.166
				c0.058,0.879,0.118,5.043-0.058,5.509c-0.176,0.47,1.875,0.236,1.875,0.236s0.176-5.101-0.234-8.266
				c-0.249-1.92-0.176-4.865-0.176-4.865l9.261-2.638c0,0,2.754,2.814,3.34,3.694c0.586,0.879,1.489,1.347,1.525,3.164
				c0.021,1.056-1.055,3.518-1.641,4.162c-0.586,0.644-2.755,4.279-2.755,4.279l1.817,0.352l4.102-5.979c0,0-0.35,2.051-0.762,2.814
				c-0.41,0.762-1.641,2.814-1.641,2.814l2.579-0.058c0,0,1.349-3.868,1.701-5.92c0.35-2.053,0.292-2.111,0.174-3.518
				c-0.116-1.407-0.527-2.638-0.644-4.22c-0.116-1.583,0.06-5.979,0.06-5.979s1.815,2.579,2.285,3.224
				c0.468,0.646,2.109,2.053,2.109,2.053s-0.468-1.29-0.762-1.877c-0.292-0.586-1.113-2.285-1.817-3.224
				c-0.703-0.938-1.055-1.875-1.757-2.403c-0.704-0.527-2.334-1.265-3.458-2.051c-1.173-0.82-2.403-1.525-3.518-2.345
				c-1.113-0.82-2.109-2.111-3.224-2.93c-1.113-0.822-2.578-1.408-4.337-1.173c-1.759,0.234-3.224,0.586-4.923,2.051
				c-1.701,1.465-1.993,3.166-4.162,4.161c-2.169,0.998-3.048,1.056-4.455,0.412c-1.407-0.644-1.759-2.285-1.993-3.752
				c-0.234-1.465-0.176-4.631-0.176-4.631s0.41-0.586-1.173-0.703c-1.581-0.119-1.991-0.119-3.34,0.176
				c-1.349,0.292-1.525,0.527-2.93,0.703c-1.407,0.176-1.935,0.468-1.935,0.468s-0.821,1.583-0.704,2.051
				c0.118,0.47,2.316,0.95,3.284,1.407c1.113,0.528,2.344,1.056,2.578,1.583c0.236,0.528-0.234,1.29,0.06,3.224
				c0.292,1.935-0.118,1.759,0.703,3.049c0.82,1.289,2.872,2.988,4.22,3.634c1.349,0.644,4.162,1.289,5.159,2.344
				c0.995,1.055,1.289,1.701,1.407,3.752C62.184,96.363,62.312,106.619,62.312,106.619L62.312,106.619z"/>
		</defs>
		<use xlink:href="#SVGID_10_"  overflow="visible" fill-rule="evenodd" clip-rule="evenodd"/>
		<clipPath id="SVGID_11_">
			<use xlink:href="#SVGID_10_"  overflow="visible"/>
		</clipPath>
	</g>
	<linearGradient id="SVGID_12_" gradientUnits="userSpaceOnUse" x1="91.5246" y1="145.556" x2="18.839" y2="41.7503">
		<stop  offset="0" style="stop-color:#000000;stop-opacity:0"/>
		<stop  offset="1" style="stop-color:#FFFFFF;stop-opacity:0.25"/>
	</linearGradient>
	<path fill-rule="evenodd" clip-rule="evenodd" fill="url(#SVGID_12_)" d="M68.087,10.761
		c8.842,15.315,50.501,87.228,60.233,104.086c1.333,2.311-0.735,6.72-3.327,6.72c-19.008,0-100.207,0-118.516,0
		c-4.331,0-5.284-2.892-3.044-6.771c9.737-16.865,50.96-88.228,60.072-104.01C64.487,9.084,67.006,8.89,68.087,10.761L68.087,10.761
		z"/>
</g>
<g id="normal">
	<g>
		<defs>
			<path id="SVGID_13_" d="M69.087,11.761c8.842,15.315,50.501,87.228,60.233,104.086c1.333,2.311-0.735,6.72-3.327,6.72
				c-19.008,0-100.207,0-118.516,0c-4.331,0-5.284-2.892-3.044-6.771c9.737-16.865,50.96-88.228,60.072-104.01
				C65.487,10.084,68.006,9.89,69.087,11.761L69.087,11.761z"/>
		</defs>
		<defs>
			<path id="SVGID_14_" d="M68.087,10.761c8.842,15.315,50.501,87.228,60.233,104.086c1.333,2.311-0.735,6.72-3.327,6.72
				c-19.008,0-100.207,0-118.516,0c-4.331,0-5.284-2.892-3.044-6.771c9.737-16.865,50.96-88.228,60.072-104.01
				C64.487,9.084,67.006,8.89,68.087,10.761L68.087,10.761z"/>
		</defs>
		<linearGradient id="SVGID_15_" gradientUnits="userSpaceOnUse" x1="3.2627" y1="66.5" x2="129.7374" y2="66.5">
			<stop  offset="0" style="stop-color:#000000;stop-opacity:0.6"/>
			<stop  offset="1" style="stop-color:#000000;stop-opacity:0.6"/>
		</linearGradient>
		<use xlink:href="#SVGID_13_"  overflow="visible" fill-rule="evenodd" clip-rule="evenodd" fill="url(#SVGID_15_)"/>
		<use xlink:href="#SVGID_14_"  overflow="visible" fill-rule="evenodd" clip-rule="evenodd" fill="#FFFFFF"/>
		<clipPath id="SVGID_16_">
			<use xlink:href="#SVGID_13_"  overflow="visible"/>
		</clipPath>
		<clipPath id="SVGID_17_" clip-path="url(#SVGID_16_)">
			<use xlink:href="#SVGID_14_"  overflow="visible"/>
		</clipPath>
	</g>
	<g>
		<defs>
			<path id="SVGID_18_" d="M67.317,15.969c8.442,14.622,48.217,83.284,57.509,99.377c0.937,1.623-0.111,3.356-1.756,3.356
				c-18.148,0-97.715,0-115.196,0c-1.744,0-2.394-1.752-1.441-3.403c9.297-16.101,48.655-84.238,57.356-99.306
				C64.728,14.367,66.285,14.183,67.317,15.969L67.317,15.969z"/>
		</defs>
		<use xlink:href="#SVGID_18_"  overflow="visible" fill-rule="evenodd" clip-rule="evenodd" fill="#DA1E22"/>
		<clipPath id="SVGID_19_">
			<use xlink:href="#SVGID_18_"  overflow="visible"/>
		</clipPath>
	</g>
	<g>
		<defs>
			<path id="SVGID_20_" d="M66.812,36.985c5.958,10.321,34.031,58.782,40.59,70.141c0.661,1.145-0.079,2.368-1.239,2.368
				c-12.81,0-68.967,0-81.305,0c-1.232,0-1.689-1.237-1.016-2.402c6.561-11.366,34.34-59.454,40.479-70.09
				C64.985,35.855,66.085,35.725,66.812,36.985L66.812,36.985z"/>
		</defs>
		<use xlink:href="#SVGID_20_"  overflow="visible" fill-rule="evenodd" clip-rule="evenodd" fill="#FFFFFF"/>
		<clipPath id="SVGID_21_">
			<use xlink:href="#SVGID_20_"  overflow="visible"/>
		</clipPath>
	</g>
	<g>
		<defs>
			<path id="SVGID_22_" d="M62.312,106.619l1.993-0.995l0.527-9.087c0,0,1.525,2.285,1.583,3.166
				c0.058,0.879,0.118,5.043-0.058,5.509c-0.176,0.47,1.875,0.236,1.875,0.236s0.176-5.101-0.234-8.266
				c-0.249-1.92-0.176-4.865-0.176-4.865l9.261-2.638c0,0,2.754,2.814,3.34,3.694c0.586,0.879,1.489,1.347,1.525,3.164
				c0.021,1.056-1.055,3.518-1.641,4.162c-0.586,0.644-2.755,4.279-2.755,4.279l1.817,0.352l4.102-5.979c0,0-0.35,2.051-0.762,2.814
				c-0.41,0.762-1.641,2.814-1.641,2.814l2.579-0.058c0,0,1.349-3.868,1.701-5.92c0.35-2.053,0.292-2.111,0.174-3.518
				c-0.116-1.407-0.527-2.638-0.644-4.22c-0.116-1.583,0.06-5.979,0.06-5.979s1.815,2.579,2.285,3.224
				c0.468,0.646,2.109,2.053,2.109,2.053s-0.468-1.29-0.762-1.877c-0.292-0.586-1.113-2.285-1.817-3.224
				c-0.703-0.938-1.055-1.875-1.757-2.403c-0.704-0.527-2.334-1.265-3.458-2.051c-1.173-0.82-2.403-1.525-3.518-2.345
				c-1.113-0.82-2.109-2.111-3.224-2.93c-1.113-0.822-2.578-1.408-4.337-1.173c-1.759,0.234-3.224,0.586-4.923,2.051
				c-1.701,1.465-1.993,3.166-4.162,4.161c-2.169,0.998-3.048,1.056-4.455,0.412c-1.407-0.644-1.759-2.285-1.993-3.752
				c-0.234-1.465-0.176-4.631-0.176-4.631s0.41-0.586-1.173-0.703c-1.581-0.119-1.991-0.119-3.34,0.176
				c-1.349,0.292-1.525,0.527-2.93,0.703c-1.407,0.176-1.935,0.468-1.935,0.468s-0.821,1.583-0.704,2.051
				c0.118,0.47,2.316,0.95,3.284,1.407c1.113,0.528,2.344,1.056,2.578,1.583c0.236,0.528-0.234,1.29,0.06,3.224
				c0.292,1.935-0.118,1.759,0.703,3.049c0.82,1.289,2.872,2.988,4.22,3.634c1.349,0.644,4.162,1.289,5.159,2.344
				c0.995,1.055,1.289,1.701,1.407,3.752C62.184,96.363,62.312,106.619,62.312,106.619L62.312,106.619z"/>
		</defs>
		<use xlink:href="#SVGID_22_"  overflow="visible" fill-rule="evenodd" clip-rule="evenodd"/>
		<clipPath id="SVGID_23_">
			<use xlink:href="#SVGID_22_"  overflow="visible"/>
		</clipPath>
	</g>
	<linearGradient id="SVGID_24_" gradientUnits="userSpaceOnUse" x1="91.5246" y1="145.556" x2="18.839" y2="41.7503">
		<stop  offset="0" style="stop-color:#000000;stop-opacity:0"/>
		<stop  offset="1" style="stop-color:#FFFFFF;stop-opacity:0.25"/>
	</linearGradient>
	<path fill-rule="evenodd" clip-rule="evenodd" fill="url(#SVGID_24_)" d="M68.087,10.761
		c8.842,15.315,50.501,87.228,60.233,104.086c1.333,2.311-0.735,6.72-3.327,6.72c-19.008,0-100.207,0-118.516,0
		c-4.331,0-5.284-2.892-3.044-6.771c9.737-16.865,50.96-88.228,60.072-104.01C64.487,9.084,67.006,8.89,68.087,10.761L68.087,10.761
		z"/>
</g>
</svg>
