<?xml version="1.0" encoding="UTF-8" ?>
<!DOCTYPE svg PUBLIC "-//W3C//DTD SVG 1.1//EN" "http://www.w3.org/Graphics/SVG/1.1/DTD/svg11.dtd">
<svg width="130pt" height="130pt" viewBox="0 0 130 130" version="1.1" xmlns="http://www.w3.org/2000/svg">
<g id="disabled">
<path fill="#707070" opacity="1.00" d=" M 10.10 0.00 L 120.72 0.00 C 123.09 0.46 125.22 2.32 124.96 4.93 C 125.05 43.30 124.98 81.67 124.99 120.04 C 125.40 123.87 121.87 127.42 118.05 127.13 C 82.71 127.14 47.36 127.13 12.01 127.13 C 8.12 127.48 4.56 123.93 4.87 120.04 C 4.87 82.32 4.85 44.59 4.88 6.87 C 4.66 3.64 7.13 0.91 10.10 0.00 M 9.43 2.68 C 7.52 3.64 6.88 5.92 7.01 7.93 C 6.99 45.29 7.00 82.66 7.01 120.02 C 6.76 122.74 9.22 125.22 11.94 125.00 C 46.96 125.00 81.99 125.00 117.01 125.00 C 119.98 125.43 123.17 123.23 122.98 120.06 C 123.01 82.36 122.90 44.65 122.81 6.95 C 123.06 4.32 120.72 1.98 118.09 2.21 C 83.71 2.05 49.32 2.13 14.94 2.01 C 13.10 2.08 11.14 1.86 9.43 2.68 Z" />
<path fill="#707070" opacity="1.00" d=" M 9.03 6.89 C 8.87 4.76 11.18 3.72 13.00 3.98 C 47.32 3.91 81.65 3.91 115.98 3.82 C 117.50 3.75 118.97 4.12 120.42 4.53 C 121.48 7.25 121.14 10.19 121.16 13.03 C 121.08 48.72 121.06 84.41 120.96 120.10 C 121.11 122.12 118.91 123.29 117.12 122.99 C 82.06 122.99 46.99 123.04 11.93 122.97 C 9.78 123.21 8.63 120.88 9.01 119.04 C 9.01 81.65 8.97 44.27 9.03 6.89 M 44.71 19.55 C 40.45 17.48 33.98 20.59 34.90 25.84 C 31.19 26.84 28.90 29.93 27.43 33.28 C 22.34 34.90 19.01 40.55 20.82 45.74 C 18.71 47.00 16.41 48.50 15.86 51.08 C 14.60 55.08 17.43 59.30 21.33 60.35 C 21.40 62.15 19.95 63.92 20.43 65.83 C 20.82 70.20 25.32 72.83 29.41 72.54 C 32.55 77.35 39.05 76.41 44.00 77.05 C 43.96 82.74 44.06 88.43 43.67 94.11 C 42.95 100.84 41.17 107.38 39.78 113.99 C 33.19 114.01 26.59 114.00 20.00 114.00 C 20.00 114.50 20.00 115.50 20.00 116.00 C 51.67 116.00 83.33 116.00 115.00 116.00 C 115.00 115.50 115.00 114.50 115.00 114.00 C 111.33 114.00 107.67 114.00 104.00 114.00 C 104.00 109.00 104.00 104.00 104.00 99.00 C 102.33 99.00 100.67 99.00 99.00 99.00 C 99.00 104.00 99.00 109.00 99.00 114.00 C 98.50 114.00 97.50 114.00 97.00 114.00 C 97.00 109.00 97.00 104.00 97.00 99.00 C 95.33 99.00 93.67 99.00 92.00 99.00 C 92.00 101.00 92.00 103.00 92.00 105.00 C 90.00 105.00 88.00 105.00 86.00 105.00 C 86.00 104.25 86.00 102.75 86.00 102.00 C 84.33 102.00 82.67 102.00 81.00 102.00 C 81.00 102.75 81.00 104.25 81.00 105.00 C 79.00 105.00 77.00 105.00 75.00 105.00 C 75.00 103.00 75.00 101.00 75.00 99.00 C 73.33 99.00 71.67 99.00 70.00 99.00 C 70.00 104.00 70.00 109.00 70.00 114.00 C 69.50 114.00 68.50 114.00 68.00 114.00 C 68.00 109.00 68.00 104.00 68.00 99.00 C 66.33 99.00 64.67 99.00 63.00 99.00 C 63.00 104.00 63.00 109.00 63.00 114.00 C 59.34 114.00 55.67 114.00 52.01 114.00 C 51.77 101.71 51.45 89.42 51.17 77.13 C 54.45 76.83 57.72 76.46 61.00 76.14 C 61.00 69.09 61.00 62.05 61.00 55.00 C 70.25 54.89 79.51 55.13 88.75 54.86 C 88.76 54.13 88.78 52.69 88.79 51.97 C 86.91 50.62 84.97 49.36 83.01 48.12 C 84.53 43.60 82.54 38.55 78.44 36.18 C 80.57 31.50 76.84 26.98 72.35 25.92 C 72.46 19.13 63.99 16.11 58.48 18.37 C 59.09 15.33 56.85 12.67 54.06 11.86 C 49.35 9.83 42.54 14.06 44.71 19.55 M 63.00 57.00 C 63.00 70.66 63.00 84.33 63.00 98.00 C 76.67 98.00 90.33 98.00 104.00 98.00 C 104.02 84.35 103.92 70.69 103.98 57.04 C 90.32 57.04 76.66 57.03 63.00 57.00 Z" />
<path fill="#707070" opacity="1.00" d=" M 75.00 108.00 C 77.00 108.00 79.00 108.00 81.00 108.00 C 81.00 108.75 81.00 110.25 81.00 111.00 C 82.67 111.00 84.33 111.00 86.00 111.00 C 86.00 110.25 86.00 108.75 86.00 108.00 C 88.00 108.00 90.00 108.00 92.00 108.00 C 92.00 110.00 92.00 112.00 92.00 114.00 C 86.33 114.00 80.67 114.00 75.00 114.00 C 75.00 112.00 75.00 110.00 75.00 108.00 Z" />
<path fill="#000000" opacity="1.00" d=" M 9.43 2.68 C 11.14 1.86 13.10 2.08 14.94 2.01 C 49.32 2.13 83.71 2.05 118.09 2.21 C 120.72 1.98 123.06 4.32 122.81 6.95 C 122.90 44.65 123.01 82.36 122.98 120.06 C 123.17 123.23 119.98 125.43 117.01 125.00 C 81.99 125.00 46.96 125.00 11.94 125.00 C 9.22 125.22 6.76 122.74 7.01 120.02 C 7.00 82.66 6.99 45.29 7.01 7.93 C 6.88 5.92 7.52 3.64 9.43 2.68 M 9.03 6.89 C 8.97 44.27 9.01 81.65 9.01 119.04 C 8.63 120.88 9.78 123.21 11.93 122.97 C 46.99 123.04 82.06 122.99 117.12 122.99 C 118.91 123.29 121.11 122.12 120.96 120.10 C 121.06 84.41 121.08 48.72 121.16 13.03 C 121.14 10.19 121.48 7.25 120.42 4.53 C 118.97 4.12 117.50 3.75 115.98 3.82 C 81.65 3.91 47.32 3.91 13.00 3.98 C 11.18 3.72 8.87 4.76 9.03 6.89 Z" />
<path fill="#000000" opacity="1.00" d=" M 44.71 19.55 C 42.54 14.06 49.35 9.83 54.06 11.86 C 56.85 12.67 59.09 15.33 58.48 18.37 C 63.99 16.11 72.46 19.13 72.35 25.92 C 76.84 26.98 80.57 31.50 78.44 36.18 C 82.54 38.55 84.53 43.60 83.01 48.12 C 84.97 49.36 86.91 50.62 88.79 51.97 C 88.78 52.69 88.76 54.13 88.75 54.86 C 79.51 55.13 70.25 54.89 61.00 55.00 C 61.00 62.05 61.00 69.09 61.00 76.14 C 57.72 76.46 54.45 76.83 51.17 77.13 C 51.45 89.42 51.77 101.71 52.01 114.00 C 55.67 114.00 59.34 114.00 63.00 114.00 C 63.00 109.00 63.00 104.00 63.00 99.00 C 64.67 99.00 66.33 99.00 68.00 99.00 C 68.00 104.00 68.00 109.00 68.00 114.00 C 68.50 114.00 69.50 114.00 70.00 114.00 C 70.00 109.00 70.00 104.00 70.00 99.00 C 71.67 99.00 73.33 99.00 75.00 99.00 C 75.00 101.00 75.00 103.00 75.00 105.00 C 77.00 105.00 79.00 105.00 81.00 105.00 C 81.00 104.25 81.00 102.75 81.00 102.00 C 82.67 102.00 84.33 102.00 86.00 102.00 C 86.00 102.75 86.00 104.25 86.00 105.00 C 88.00 105.00 90.00 105.00 92.00 105.00 C 92.00 103.00 92.00 101.00 92.00 99.00 C 93.67 99.00 95.33 99.00 97.00 99.00 C 97.00 104.00 97.00 109.00 97.00 114.00 C 97.50 114.00 98.50 114.00 99.00 114.00 C 99.00 109.00 99.00 104.00 99.00 99.00 C 100.67 99.00 102.33 99.00 104.00 99.00 C 104.00 104.00 104.00 109.00 104.00 114.00 C 107.67 114.00 111.33 114.00 115.00 114.00 C 115.00 114.50 115.00 115.50 115.00 116.00 C 83.33 116.00 51.67 116.00 20.00 116.00 C 20.00 115.50 20.00 114.50 20.00 114.00 C 26.59 114.00 33.19 114.01 39.78 113.99 C 41.17 107.38 42.95 100.84 43.67 94.11 C 44.06 88.43 43.96 82.74 44.00 77.05 C 39.05 76.41 32.55 77.35 29.41 72.54 C 25.32 72.83 20.82 70.20 20.43 65.83 C 19.95 63.92 21.40 62.15 21.33 60.35 C 17.43 59.30 14.60 55.08 15.86 51.08 C 16.41 48.50 18.71 47.00 20.82 45.74 C 19.01 40.55 22.34 34.90 27.43 33.28 C 28.90 29.93 31.19 26.84 34.90 25.84 C 33.98 20.59 40.45 17.48 44.71 19.55 M 75.00 108.00 C 75.00 110.00 75.00 112.00 75.00 114.00 C 80.67 114.00 86.33 114.00 92.00 114.00 C 92.00 112.00 92.00 110.00 92.00 108.00 C 90.00 108.00 88.00 108.00 86.00 108.00 C 86.00 108.75 86.00 110.25 86.00 111.00 C 84.33 111.00 82.67 111.00 81.00 111.00 C 81.00 110.25 81.00 108.75 81.00 108.00 C 79.00 108.00 77.00 108.00 75.00 108.00 Z" />
<path fill="#000000" opacity="1.00" d=" M 63.00 57.00 C 76.66 57.03 90.32 57.04 103.98 57.04 C 103.92 70.69 104.02 84.35 104.00 98.00 C 90.33 98.00 76.67 98.00 63.00 98.00 C 63.00 84.33 63.00 70.66 63.00 57.00 Z" />
</g>
<g id="normal">
<path fill="#ffffff" opacity="1.00" d=" M 10.10 0.00 L 120.72 0.00 C 123.09 0.46 125.22 2.32 124.96 4.93 C 125.05 43.30 124.98 81.67 124.99 120.04 C 125.40 123.87 121.87 127.42 118.05 127.13 C 82.71 127.14 47.36 127.13 12.01 127.13 C 8.12 127.48 4.56 123.93 4.87 120.04 C 4.87 82.32 4.85 44.59 4.88 6.87 C 4.66 3.64 7.13 0.91 10.10 0.00 M 9.43 2.68 C 7.52 3.64 6.88 5.92 7.01 7.93 C 6.99 45.29 7.00 82.66 7.01 120.02 C 6.76 122.74 9.22 125.22 11.94 125.00 C 46.96 125.00 81.99 125.00 117.01 125.00 C 119.98 125.43 123.17 123.23 122.98 120.06 C 123.01 82.36 122.90 44.65 122.81 6.95 C 123.06 4.32 120.72 1.98 118.09 2.21 C 83.71 2.05 49.32 2.13 14.94 2.01 C 13.10 2.08 11.14 1.86 9.43 2.68 Z" />
<path fill="#ffffff" opacity="1.00" d=" M 9.03 6.89 C 8.87 4.76 11.18 3.72 13.00 3.98 C 47.32 3.91 81.65 3.91 115.98 3.82 C 117.50 3.75 118.97 4.12 120.42 4.53 C 121.48 7.25 121.14 10.19 121.16 13.03 C 121.08 48.72 121.06 84.41 120.96 120.10 C 121.11 122.12 118.91 123.29 117.12 122.99 C 82.06 122.99 46.99 123.04 11.93 122.97 C 9.78 123.21 8.63 120.88 9.01 119.04 C 9.01 81.65 8.97 44.27 9.03 6.89 M 44.71 19.55 C 40.45 17.48 33.98 20.59 34.90 25.84 C 31.19 26.84 28.90 29.93 27.43 33.28 C 22.34 34.90 19.01 40.55 20.82 45.74 C 18.71 47.00 16.41 48.50 15.86 51.08 C 14.60 55.08 17.43 59.30 21.33 60.35 C 21.40 62.15 19.95 63.92 20.43 65.83 C 20.82 70.20 25.32 72.83 29.41 72.54 C 32.55 77.35 39.05 76.41 44.00 77.05 C 43.96 82.74 44.06 88.43 43.67 94.11 C 42.95 100.84 41.17 107.38 39.78 113.99 C 33.19 114.01 26.59 114.00 20.00 114.00 C 20.00 114.50 20.00 115.50 20.00 116.00 C 51.67 116.00 83.33 116.00 115.00 116.00 C 115.00 115.50 115.00 114.50 115.00 114.00 C 111.33 114.00 107.67 114.00 104.00 114.00 C 104.00 109.00 104.00 104.00 104.00 99.00 C 102.33 99.00 100.67 99.00 99.00 99.00 C 99.00 104.00 99.00 109.00 99.00 114.00 C 98.50 114.00 97.50 114.00 97.00 114.00 C 97.00 109.00 97.00 104.00 97.00 99.00 C 95.33 99.00 93.67 99.00 92.00 99.00 C 92.00 101.00 92.00 103.00 92.00 105.00 C 90.00 105.00 88.00 105.00 86.00 105.00 C 86.00 104.25 86.00 102.75 86.00 102.00 C 84.33 102.00 82.67 102.00 81.00 102.00 C 81.00 102.75 81.00 104.25 81.00 105.00 C 79.00 105.00 77.00 105.00 75.00 105.00 C 75.00 103.00 75.00 101.00 75.00 99.00 C 73.33 99.00 71.67 99.00 70.00 99.00 C 70.00 104.00 70.00 109.00 70.00 114.00 C 69.50 114.00 68.50 114.00 68.00 114.00 C 68.00 109.00 68.00 104.00 68.00 99.00 C 66.33 99.00 64.67 99.00 63.00 99.00 C 63.00 104.00 63.00 109.00 63.00 114.00 C 59.34 114.00 55.67 114.00 52.01 114.00 C 51.77 101.71 51.45 89.42 51.17 77.13 C 54.45 76.83 57.72 76.46 61.00 76.14 C 61.00 69.09 61.00 62.05 61.00 55.00 C 70.25 54.89 79.51 55.13 88.75 54.86 C 88.76 54.13 88.78 52.69 88.79 51.97 C 86.91 50.62 84.97 49.36 83.01 48.12 C 84.53 43.60 82.54 38.55 78.44 36.18 C 80.57 31.50 76.84 26.98 72.35 25.92 C 72.46 19.13 63.99 16.11 58.48 18.37 C 59.09 15.33 56.85 12.67 54.06 11.86 C 49.35 9.83 42.54 14.06 44.71 19.55 M 63.00 57.00 C 63.00 70.66 63.00 84.33 63.00 98.00 C 76.67 98.00 90.33 98.00 104.00 98.00 C 104.02 84.35 103.92 70.69 103.98 57.04 C 90.32 57.04 76.66 57.03 63.00 57.00 Z" />
<path fill="#ffffff" opacity="1.00" d=" M 75.00 108.00 C 77.00 108.00 79.00 108.00 81.00 108.00 C 81.00 108.75 81.00 110.25 81.00 111.00 C 82.67 111.00 84.33 111.00 86.00 111.00 C 86.00 110.25 86.00 108.75 86.00 108.00 C 88.00 108.00 90.00 108.00 92.00 108.00 C 92.00 110.00 92.00 112.00 92.00 114.00 C 86.33 114.00 80.67 114.00 75.00 114.00 C 75.00 112.00 75.00 110.00 75.00 108.00 Z" />
<path fill="#000000" opacity="1.00" d=" M 9.43 2.68 C 11.14 1.86 13.10 2.08 14.94 2.01 C 49.32 2.13 83.71 2.05 118.09 2.21 C 120.72 1.98 123.06 4.32 122.81 6.95 C 122.90 44.65 123.01 82.36 122.98 120.06 C 123.17 123.23 119.98 125.43 117.01 125.00 C 81.99 125.00 46.96 125.00 11.94 125.00 C 9.22 125.22 6.76 122.74 7.01 120.02 C 7.00 82.66 6.99 45.29 7.01 7.93 C 6.88 5.92 7.52 3.64 9.43 2.68 M 9.03 6.89 C 8.97 44.27 9.01 81.65 9.01 119.04 C 8.63 120.88 9.78 123.21 11.93 122.97 C 46.99 123.04 82.06 122.99 117.12 122.99 C 118.91 123.29 121.11 122.12 120.96 120.10 C 121.06 84.41 121.08 48.72 121.16 13.03 C 121.14 10.19 121.48 7.25 120.42 4.53 C 118.97 4.12 117.50 3.75 115.98 3.82 C 81.65 3.91 47.32 3.91 13.00 3.98 C 11.18 3.72 8.87 4.76 9.03 6.89 Z" />
<path fill="#000000" opacity="1.00" d=" M 44.71 19.55 C 42.54 14.06 49.35 9.83 54.06 11.86 C 56.85 12.67 59.09 15.33 58.48 18.37 C 63.99 16.11 72.46 19.13 72.35 25.92 C 76.84 26.98 80.57 31.50 78.44 36.18 C 82.54 38.55 84.53 43.60 83.01 48.12 C 84.97 49.36 86.91 50.62 88.79 51.97 C 88.78 52.69 88.76 54.13 88.75 54.86 C 79.51 55.13 70.25 54.89 61.00 55.00 C 61.00 62.05 61.00 69.09 61.00 76.14 C 57.72 76.46 54.45 76.83 51.17 77.13 C 51.45 89.42 51.77 101.71 52.01 114.00 C 55.67 114.00 59.34 114.00 63.00 114.00 C 63.00 109.00 63.00 104.00 63.00 99.00 C 64.67 99.00 66.33 99.00 68.00 99.00 C 68.00 104.00 68.00 109.00 68.00 114.00 C 68.50 114.00 69.50 114.00 70.00 114.00 C 70.00 109.00 70.00 104.00 70.00 99.00 C 71.67 99.00 73.33 99.00 75.00 99.00 C 75.00 101.00 75.00 103.00 75.00 105.00 C 77.00 105.00 79.00 105.00 81.00 105.00 C 81.00 104.25 81.00 102.75 81.00 102.00 C 82.67 102.00 84.33 102.00 86.00 102.00 C 86.00 102.75 86.00 104.25 86.00 105.00 C 88.00 105.00 90.00 105.00 92.00 105.00 C 92.00 103.00 92.00 101.00 92.00 99.00 C 93.67 99.00 95.33 99.00 97.00 99.00 C 97.00 104.00 97.00 109.00 97.00 114.00 C 97.50 114.00 98.50 114.00 99.00 114.00 C 99.00 109.00 99.00 104.00 99.00 99.00 C 100.67 99.00 102.33 99.00 104.00 99.00 C 104.00 104.00 104.00 109.00 104.00 114.00 C 107.67 114.00 111.33 114.00 115.00 114.00 C 115.00 114.50 115.00 115.50 115.00 116.00 C 83.33 116.00 51.67 116.00 20.00 116.00 C 20.00 115.50 20.00 114.50 20.00 114.00 C 26.59 114.00 33.19 114.01 39.78 113.99 C 41.17 107.38 42.95 100.84 43.67 94.11 C 44.06 88.43 43.96 82.74 44.00 77.05 C 39.05 76.41 32.55 77.35 29.41 72.54 C 25.32 72.83 20.82 70.20 20.43 65.83 C 19.95 63.92 21.40 62.15 21.33 60.35 C 17.43 59.30 14.60 55.08 15.86 51.08 C 16.41 48.50 18.71 47.00 20.82 45.74 C 19.01 40.55 22.34 34.90 27.43 33.28 C 28.90 29.93 31.19 26.84 34.90 25.84 C 33.98 20.59 40.45 17.48 44.71 19.55 M 75.00 108.00 C 75.00 110.00 75.00 112.00 75.00 114.00 C 80.67 114.00 86.33 114.00 92.00 114.00 C 92.00 112.00 92.00 110.00 92.00 108.00 C 90.00 108.00 88.00 108.00 86.00 108.00 C 86.00 108.75 86.00 110.25 86.00 111.00 C 84.33 111.00 82.67 111.00 81.00 111.00 C 81.00 110.25 81.00 108.75 81.00 108.00 C 79.00 108.00 77.00 108.00 75.00 108.00 Z" />
<path fill="#000000" opacity="1.00" d=" M 63.00 57.00 C 76.66 57.03 90.32 57.04 103.98 57.04 C 103.92 70.69 104.02 84.35 104.00 98.00 C 90.33 98.00 76.67 98.00 63.00 98.00 C 63.00 84.33 63.00 70.66 63.00 57.00 Z" />
</g>
</svg>
