<?xml version="1.0" encoding="utf-8"?>
<!-- Generator: Adobe Illustrator 16.0.0, SVG Export Plug-In . SVG Version: 6.00 Build 0)  -->
<!DOCTYPE svg PUBLIC "-//W3C//DTD SVG 1.1//EN" "http://www.w3.org/Graphics/SVG/1.1/DTD/svg11.dtd">
<svg version="1.1" id="Layer_1" xmlns="http://www.w3.org/2000/svg" xmlns:xlink="http://www.w3.org/1999/xlink" x="0px" y="0px"
	 width="132px" height="132px" viewBox="0 0 132 132" enable-background="new 0 0 132 132" xml:space="preserve">
<g id="disabled">
	<g>
		<g>
			
				<linearGradient id="SVGID_3_" gradientUnits="userSpaceOnUse" x1="249.5928" y1="727.1699" x2="376.0664" y2="727.1699" gradientTransform="matrix(1 0 0 1 -246.3301 -660.6699)">
				<stop  offset="0" style="stop-color:#000000;stop-opacity:0.6"/>
				<stop  offset="1" style="stop-color:#000000;stop-opacity:0.6"/>
			</linearGradient>
			<path id="SVGID_1_" fill="url(#SVGID_3_)" d="M69.087,11.761c8.843,15.315,50.501,87.229,60.233,104.087
				c1.332,2.312-0.735,6.719-3.327,6.719c-19.009,0-100.207,0-118.516,0c-4.331,0-5.284-2.892-3.044-6.771
				c9.737-16.864,50.96-88.228,60.072-104.01C65.487,10.083,68.006,9.891,69.087,11.761L69.087,11.761z"/>
		</g>
		<g>
			<path id="SVGID_2_" fill="#FFFFFF" d="M68.087,10.761c8.843,15.315,50.501,87.229,60.233,104.087
				c1.332,2.312-0.735,6.719-3.327,6.719c-19.009,0-100.207,0-118.516,0c-4.331,0-5.284-2.892-3.044-6.771
				c9.737-16.864,50.96-88.228,60.072-104.01C64.487,9.083,67.006,8.891,68.087,10.761L68.087,10.761z"/>
		</g>
	</g>
	<g>
		<g>
			<path id="SVGID_6_" fill="#575757" d="M67.316,15.969c8.441,14.622,48.218,83.282,57.51,99.379
				c0.938,1.623-0.111,3.355-1.756,3.355c-18.148,0-97.715,0-115.196,0c-1.744,0-2.394-1.752-1.441-3.403
				c9.297-16.103,48.655-84.237,57.356-99.306C64.728,14.366,66.285,14.182,67.316,15.969L67.316,15.969z"/>
		</g>
	</g>
	<g>
		<g>
			<path id="SVGID_8_" fill="#FFFFFF" d="M66.813,36.985c5.957,10.321,34.03,58.783,40.59,70.141
				c0.66,1.146-0.079,2.368-1.238,2.368c-12.811,0-68.967,0-81.305,0c-1.232,0-1.689-1.236-1.016-2.402
				c6.561-11.365,34.34-59.454,40.479-70.091C64.985,35.854,66.085,35.725,66.813,36.985L66.813,36.985z"/>
		</g>
	</g>
	<g>
		<g>
			<path id="SVGID_10_" d="M89.441,85.025c0,0.972-1.14,1.797-2.252,2.214l1.345,5.04l-3.287,0.113l-2.638-4.766
				c-3.832,0.107-10.437,0.292-17.172,0.473c-0.008,0.021-0.015,0.041-0.024,0.062c-0.567,1.247-0.454,2.381-0.226,4.985
				c0.226,2.607,2.833,8.729,3.854,10.315c1.02,1.586,0.68,2.379,0.68,2.379l-2.607,0.454c0,0-1.245-2.04-3.059-3.74
				c-0.588-0.552-1.379-1.671-2.232-2.994c-1.202-0.041-2.473-0.127-2.755-0.297c-0.567-0.342-0.113-2.606-0.113-2.606l1.103,0.045
				c-0.433-0.722-0.859-1.441-1.26-2.114c-1.355-0.052-2.476-0.117-2.676-0.199c-0.567-0.226-0.908-3.398-0.908-3.398l1.434,0.119
				c-0.577-0.914-1.055-1.892-1.392-2.748c-6.525,0.162-11.627,0.271-12.107,0.234c-0.911-0.076-3.93-1.119-3.985-3.063
				c-0.055-1.938,2.738-3.823,3.985-3.937c0.436-0.041,5.624,0.063,12.225,0.217c0.278-0.672,0.644-1.396,1.06-2.103l-1.219,0.103
				c0,0,0.341-3.174,0.908-3.399c0.191-0.076,1.21-0.14,2.471-0.19c0.397-0.664,0.825-1.385,1.26-2.113l-0.898,0.037
				c0,0-0.454-2.268,0.113-2.605c0.266-0.16,1.402-0.244,2.534-0.289c0.937-1.477,1.815-2.741,2.453-3.339
				c1.814-1.701,3.061-3.741,3.061-3.741l2.606,0.452c0,0,0.338,0.795-0.681,2.381c-1.021,1.588-3.628,7.707-3.854,10.315
				c-0.212,2.433-0.318,3.582,0.129,4.74c6.708,0.172,13.27,0.354,17.009,0.469l3.488-4.982l2.834,0.227l-1.678,5.248
				C88.143,83.424,89.441,84.121,89.441,85.025L89.441,85.025z"/>
		</g>
	</g>
	
		<linearGradient id="SVGID_4_" gradientUnits="userSpaceOnUse" x1="337.8535" y1="806.2256" x2="265.1685" y2="702.4204" gradientTransform="matrix(1 0 0 1 -246.3301 -660.6699)">
		<stop  offset="0" style="stop-color:#000000;stop-opacity:0"/>
		<stop  offset="1" style="stop-color:#FFFFFF;stop-opacity:0.25"/>
	</linearGradient>
	<path fill="url(#SVGID_4_)" d="M68.087,10.761c8.843,15.315,50.501,87.229,60.233,104.087c1.332,2.312-0.735,6.719-3.327,6.719
		c-19.009,0-100.207,0-118.516,0c-4.331,0-5.284-2.892-3.044-6.771c9.737-16.864,50.96-88.228,60.072-104.01
		C64.487,9.083,67.006,8.891,68.087,10.761L68.087,10.761z"/>
</g>
<g id="normal">
	<g>
		<g>
			
				<linearGradient id="SVGID_5_" gradientUnits="userSpaceOnUse" x1="249.5928" y1="727.1699" x2="376.0664" y2="727.1699" gradientTransform="matrix(1 0 0 1 -246.3301 -660.6699)">
				<stop  offset="0" style="stop-color:#000000;stop-opacity:0.6"/>
				<stop  offset="1" style="stop-color:#000000;stop-opacity:0.6"/>
			</linearGradient>
			<path id="SVGID_13_" fill="url(#SVGID_5_)" d="M69.087,11.761c8.843,15.315,50.501,87.229,60.233,104.087
				c1.332,2.312-0.735,6.719-3.327,6.719c-19.009,0-100.207,0-118.516,0c-4.331,0-5.284-2.892-3.044-6.771
				c9.737-16.864,50.96-88.228,60.072-104.01C65.487,10.083,68.006,9.891,69.087,11.761L69.087,11.761z"/>
		</g>
		<g>
			<path id="SVGID_14_" fill="#FFFFFF" d="M68.087,10.761c8.843,15.315,50.501,87.229,60.233,104.087
				c1.332,2.312-0.735,6.719-3.327,6.719c-19.009,0-100.207,0-118.516,0c-4.331,0-5.284-2.892-3.044-6.771
				c9.737-16.864,50.96-88.228,60.072-104.01C64.487,9.083,67.006,8.891,68.087,10.761L68.087,10.761z"/>
		</g>
	</g>
	<g>
		<g>
			<path id="SVGID_18_" fill="#DA1E22" d="M67.316,15.969c8.441,14.622,48.218,83.282,57.51,99.379
				c0.938,1.623-0.111,3.355-1.756,3.355c-18.148,0-97.715,0-115.196,0c-1.744,0-2.394-1.752-1.441-3.403
				c9.297-16.103,48.655-84.237,57.356-99.306C64.728,14.366,66.285,14.182,67.316,15.969L67.316,15.969z"/>
		</g>
	</g>
	<g>
		<g>
			<path id="SVGID_20_" fill="#FFFFFF" d="M66.813,36.985c5.957,10.321,34.03,58.783,40.59,70.141
				c0.66,1.146-0.079,2.368-1.238,2.368c-12.811,0-68.967,0-81.305,0c-1.232,0-1.689-1.236-1.016-2.402
				c6.561-11.365,34.34-59.454,40.479-70.091C64.985,35.854,66.085,35.725,66.813,36.985L66.813,36.985z"/>
		</g>
	</g>
	<g>
		<g>
			<path id="SVGID_22_" d="M89.441,85.025c0,0.972-1.14,1.797-2.252,2.214l1.345,5.04l-3.287,0.113l-2.638-4.766
				c-3.832,0.107-10.437,0.292-17.172,0.473c-0.008,0.021-0.015,0.041-0.024,0.062c-0.567,1.247-0.454,2.381-0.226,4.985
				c0.226,2.607,2.833,8.729,3.854,10.315c1.02,1.586,0.68,2.379,0.68,2.379l-2.607,0.454c0,0-1.245-2.04-3.059-3.74
				c-0.588-0.552-1.379-1.671-2.232-2.994c-1.202-0.041-2.473-0.127-2.755-0.297c-0.567-0.342-0.113-2.606-0.113-2.606l1.103,0.045
				c-0.433-0.722-0.859-1.441-1.26-2.114c-1.355-0.052-2.476-0.117-2.676-0.199c-0.567-0.226-0.908-3.398-0.908-3.398l1.434,0.119
				c-0.577-0.914-1.055-1.892-1.392-2.748c-6.525,0.162-11.627,0.271-12.107,0.234c-0.911-0.076-3.93-1.119-3.985-3.063
				c-0.055-1.938,2.738-3.823,3.985-3.937c0.436-0.041,5.624,0.063,12.225,0.217c0.278-0.672,0.644-1.396,1.06-2.103l-1.219,0.103
				c0,0,0.341-3.174,0.908-3.399c0.191-0.076,1.21-0.14,2.471-0.19c0.397-0.664,0.825-1.385,1.26-2.113l-0.898,0.037
				c0,0-0.454-2.268,0.113-2.605c0.266-0.16,1.402-0.244,2.534-0.289c0.937-1.477,1.815-2.741,2.453-3.339
				c1.814-1.701,3.061-3.741,3.061-3.741l2.606,0.452c0,0,0.338,0.795-0.681,2.381c-1.021,1.588-3.628,7.707-3.854,10.315
				c-0.212,2.433-0.318,3.582,0.129,4.74c6.708,0.172,13.27,0.354,17.009,0.469l3.488-4.982l2.834,0.227l-1.678,5.248
				C88.143,83.424,89.441,84.121,89.441,85.025L89.441,85.025z"/>
		</g>
	</g>
	
		<linearGradient id="SVGID_7_" gradientUnits="userSpaceOnUse" x1="337.8535" y1="806.2256" x2="265.1685" y2="702.4204" gradientTransform="matrix(1 0 0 1 -246.3301 -660.6699)">
		<stop  offset="0" style="stop-color:#000000;stop-opacity:0"/>
		<stop  offset="1" style="stop-color:#FFFFFF;stop-opacity:0.25"/>
	</linearGradient>
	<path fill="url(#SVGID_7_)" d="M68.087,10.761c8.843,15.315,50.501,87.229,60.233,104.087c1.332,2.312-0.735,6.719-3.327,6.719
		c-19.009,0-100.207,0-118.516,0c-4.331,0-5.284-2.892-3.044-6.771c9.737-16.864,50.96-88.228,60.072-104.01
		C64.487,9.083,67.006,8.891,68.087,10.761L68.087,10.761z"/>
</g>
</svg>
