<?xml version="1.0" encoding="UTF-8" ?>
<!DOCTYPE svg PUBLIC "-//W3C//DTD SVG 1.1//EN" "http://www.w3.org/Graphics/SVG/1.1/DTD/svg11.dtd">
<svg width="130pt" height="130pt" viewBox="0 0 130 130" version="1.1" xmlns="http://www.w3.org/2000/svg">
<g id="disabled">
<path fill="#ffffff" opacity="1.00" d=" M 64.05 10.26 C 65.22 7.96 68.38 8.87 69.14 11.02 C 88.99 45.42 108.88 79.80 128.68 114.22 C 130.04 116.15 130.71 119.86 127.77 120.71 C 125.51 120.99 123.23 121.01 120.96 121.01 C 83.28 120.96 45.59 121.06 7.90 120.96 C 5.17 121.23 3.46 118.36 3.40 115.95 C 3.89 113.55 5.45 111.56 6.57 109.42 C 20.31 85.60 34.05 61.76 47.91 38.01 C 49.16 36.41 50.19 34.64 50.98 32.76 C 55.22 25.20 59.49 17.63 64.05 10.26 M 66.32 14.16 C 65.13 14.71 64.64 16.04 63.93 17.05 C 45.70 48.47 27.49 79.89 9.27 111.30 C 8.15 113.42 5.93 115.76 7.86 118.08 C 46.62 117.88 85.38 118.08 124.13 117.98 C 126.21 118.38 126.64 115.65 125.50 114.43 C 106.81 81.89 87.90 49.46 69.18 16.94 C 68.43 15.84 67.90 14.19 66.32 14.16 Z" />
<path fill="#ffffff" opacity="1.00" d=" M 62.41 41.41 C 63.78 39.22 64.65 36.52 66.99 35.13 C 80.39 57.77 93.29 80.72 106.58 103.43 C 107.38 104.90 108.37 106.34 108.67 108.02 C 107.66 109.51 105.52 108.78 104.00 109.02 C 78.99 108.98 53.97 109.00 28.96 109.01 C 27.46 108.94 25.73 109.26 24.55 108.07 C 24.45 106.59 25.52 105.40 26.12 104.14 C 38.28 83.26 50.33 62.33 62.41 41.41 M 46.91 72.01 C 43.28 77.45 42.64 84.46 44.41 90.67 C 46.19 91.58 47.97 92.49 49.74 93.41 C 50.54 91.36 51.64 89.39 51.99 87.20 C 51.93 84.12 51.74 80.88 53.20 78.05 C 55.11 73.66 59.40 70.80 64.01 69.91 C 63.64 67.18 63.24 64.45 62.84 61.72 C 56.41 62.79 50.45 66.50 46.91 72.01 M 70.36 61.93 C 68.93 63.15 67.45 64.29 65.93 65.39 C 67.74 67.82 69.58 70.46 72.56 71.52 C 78.97 74.58 81.79 82.77 79.20 89.29 C 81.80 90.32 84.39 91.37 86.98 92.40 C 88.21 88.43 88.95 84.20 88.12 80.07 C 86.60 71.16 79.23 63.65 70.36 61.93 M 48.33 97.83 C 51.84 101.94 56.59 105.17 62.00 106.03 C 69.63 107.45 77.69 104.56 82.92 98.87 C 82.60 96.85 82.29 94.84 81.99 92.83 C 79.09 93.37 76.05 93.81 73.70 95.75 C 67.81 99.79 59.29 98.14 54.82 92.72 C 52.64 94.41 50.48 96.11 48.33 97.83 Z" />
<path fill="#606060" opacity="1.00" d=" M 66.32 14.16 C 67.90 14.19 68.43 15.84 69.18 16.94 C 87.90 49.46 106.81 81.89 125.50 114.43 C 126.64 115.65 126.21 118.38 124.13 117.98 C 85.38 118.08 46.62 117.88 7.86 118.08 C 5.93 115.76 8.15 113.42 9.27 111.30 C 27.49 79.89 45.70 48.47 63.93 17.05 C 64.64 16.04 65.13 14.71 66.32 14.16 M 62.41 41.41 C 50.33 62.33 38.28 83.26 26.12 104.14 C 25.52 105.40 24.45 106.59 24.55 108.07 C 25.73 109.26 27.46 108.94 28.96 109.01 C 53.97 109.00 78.99 108.98 104.00 109.02 C 105.52 108.78 107.66 109.51 108.67 108.02 C 108.37 106.34 107.38 104.90 106.58 103.43 C 93.29 80.72 80.39 57.77 66.99 35.13 C 64.65 36.52 63.78 39.22 62.41 41.41 Z" />
<path fill="#000000" opacity="1.00" d=" M 46.91 72.01 C 50.45 66.50 56.41 62.79 62.84 61.72 C 63.24 64.45 63.64 67.18 64.01 69.91 C 59.40 70.80 55.11 73.66 53.20 78.05 C 51.74 80.88 51.93 84.12 51.99 87.20 C 51.64 89.39 50.54 91.36 49.74 93.41 C 47.97 92.49 46.19 91.58 44.41 90.67 C 42.64 84.46 43.28 77.45 46.91 72.01 Z" />
<path fill="#000000" opacity="1.00" d=" M 70.36 61.93 C 79.23 63.65 86.60 71.16 88.12 80.07 C 88.95 84.20 88.21 88.43 86.98 92.40 C 84.39 91.37 81.80 90.32 79.20 89.29 C 81.79 82.77 78.97 74.58 72.56 71.52 C 69.58 70.46 67.74 67.82 65.93 65.39 C 67.45 64.29 68.93 63.15 70.36 61.93 Z" />
<path fill="#000000" opacity="1.00" d=" M 48.33 97.83 C 50.48 96.11 52.64 94.41 54.82 92.72 C 59.29 98.14 67.81 99.79 73.70 95.75 C 76.05 93.81 79.09 93.37 81.99 92.83 C 82.29 94.84 82.60 96.85 82.92 98.87 C 77.69 104.56 69.63 107.45 62.00 106.03 C 56.59 105.17 51.84 101.94 48.33 97.83 Z" />
</g>
<g id="normal">
<path fill="#ffffff" opacity="1.00" d=" M 64.05 10.26 C 65.22 7.96 68.38 8.87 69.14 11.02 C 88.99 45.42 108.88 79.80 128.68 114.22 C 130.04 116.15 130.71 119.86 127.77 120.71 C 125.51 120.99 123.23 121.01 120.96 121.01 C 83.28 120.96 45.59 121.06 7.90 120.96 C 5.17 121.23 3.46 118.36 3.40 115.95 C 3.89 113.55 5.45 111.56 6.57 109.42 C 20.31 85.60 34.05 61.76 47.91 38.01 C 49.16 36.41 50.19 34.64 50.98 32.76 C 55.22 25.20 59.49 17.63 64.05 10.26 M 66.32 14.16 C 65.13 14.71 64.64 16.04 63.93 17.05 C 45.70 48.47 27.49 79.89 9.27 111.30 C 8.15 113.42 5.93 115.76 7.86 118.08 C 46.62 117.88 85.38 118.08 124.13 117.98 C 126.21 118.38 126.64 115.65 125.50 114.43 C 106.81 81.89 87.90 49.46 69.18 16.94 C 68.43 15.84 67.90 14.19 66.32 14.16 Z" />
<path fill="#ffffff" opacity="1.00" d=" M 62.41 41.41 C 63.78 39.22 64.65 36.52 66.99 35.13 C 80.39 57.77 93.29 80.72 106.58 103.43 C 107.38 104.90 108.37 106.34 108.67 108.02 C 107.66 109.51 105.52 108.78 104.00 109.02 C 78.99 108.98 53.97 109.00 28.96 109.01 C 27.46 108.94 25.73 109.26 24.55 108.07 C 24.45 106.59 25.52 105.40 26.12 104.14 C 38.28 83.26 50.33 62.33 62.41 41.41 M 46.91 72.01 C 43.28 77.45 42.64 84.46 44.41 90.67 C 46.19 91.58 47.97 92.49 49.74 93.41 C 50.54 91.36 51.64 89.39 51.99 87.20 C 51.93 84.12 51.74 80.88 53.20 78.05 C 55.11 73.66 59.40 70.80 64.01 69.91 C 63.64 67.18 63.24 64.45 62.84 61.72 C 56.41 62.79 50.45 66.50 46.91 72.01 M 70.36 61.93 C 68.93 63.15 67.45 64.29 65.93 65.39 C 67.74 67.82 69.58 70.46 72.56 71.52 C 78.97 74.58 81.79 82.77 79.20 89.29 C 81.80 90.32 84.39 91.37 86.98 92.40 C 88.21 88.43 88.95 84.20 88.12 80.07 C 86.60 71.16 79.23 63.65 70.36 61.93 M 48.33 97.83 C 51.84 101.94 56.59 105.17 62.00 106.03 C 69.63 107.45 77.69 104.56 82.92 98.87 C 82.60 96.85 82.29 94.84 81.99 92.83 C 79.09 93.37 76.05 93.81 73.70 95.75 C 67.81 99.79 59.29 98.14 54.82 92.72 C 52.64 94.41 50.48 96.11 48.33 97.83 Z" />
<path fill="#de2e2e" opacity="1.00" d=" M 66.32 14.16 C 67.90 14.19 68.43 15.84 69.18 16.94 C 87.90 49.46 106.81 81.89 125.50 114.43 C 126.64 115.65 126.21 118.38 124.13 117.98 C 85.38 118.08 46.62 117.88 7.86 118.08 C 5.93 115.76 8.15 113.42 9.27 111.30 C 27.49 79.89 45.70 48.47 63.93 17.05 C 64.64 16.04 65.13 14.71 66.32 14.16 M 62.41 41.41 C 50.33 62.33 38.28 83.26 26.12 104.14 C 25.52 105.40 24.45 106.59 24.55 108.07 C 25.73 109.26 27.46 108.94 28.96 109.01 C 53.97 109.00 78.99 108.98 104.00 109.02 C 105.52 108.78 107.66 109.51 108.67 108.02 C 108.37 106.34 107.38 104.90 106.58 103.43 C 93.29 80.72 80.39 57.77 66.99 35.13 C 64.65 36.52 63.78 39.22 62.41 41.41 Z" />
<path fill="#000000" opacity="1.00" d=" M 46.91 72.01 C 50.45 66.50 56.41 62.79 62.84 61.72 C 63.24 64.45 63.64 67.18 64.01 69.91 C 59.40 70.80 55.11 73.66 53.20 78.05 C 51.74 80.88 51.93 84.12 51.99 87.20 C 51.64 89.39 50.54 91.36 49.74 93.41 C 47.97 92.49 46.19 91.58 44.41 90.67 C 42.64 84.46 43.28 77.45 46.91 72.01 Z" />
<path fill="#000000" opacity="1.00" d=" M 70.36 61.93 C 79.23 63.65 86.60 71.16 88.12 80.07 C 88.95 84.20 88.21 88.43 86.98 92.40 C 84.39 91.37 81.80 90.32 79.20 89.29 C 81.79 82.77 78.97 74.58 72.56 71.52 C 69.58 70.46 67.74 67.82 65.93 65.39 C 67.45 64.29 68.93 63.15 70.36 61.93 Z" />
<path fill="#000000" opacity="1.00" d=" M 48.33 97.83 C 50.48 96.11 52.64 94.41 54.82 92.72 C 59.29 98.14 67.81 99.79 73.70 95.75 C 76.05 93.81 79.09 93.37 81.99 92.83 C 82.29 94.84 82.60 96.85 82.92 98.87 C 77.69 104.56 69.63 107.45 62.00 106.03 C 56.59 105.17 51.84 101.94 48.33 97.83 Z" />
</g>
</svg>
