<?xml version="1.0" encoding="utf-8"?>
<!-- Generator: Adobe Illustrator 16.0.0, SVG Export Plug-In . SVG Version: 6.00 Build 0)  -->
<!DOCTYPE svg PUBLIC "-//W3C//DTD SVG 1.1//EN" "http://www.w3.org/Graphics/SVG/1.1/DTD/svg11.dtd">
<svg version="1.1" id="Layer_1" xmlns="http://www.w3.org/2000/svg" xmlns:xlink="http://www.w3.org/1999/xlink" x="0px" y="0px"
	 width="132px" height="132px" viewBox="0 0 132 132" enable-background="new 0 0 132 132" xml:space="preserve">
<g id="disabled">
	<g>
		<g>
			
				<linearGradient id="SVGID_3_" gradientUnits="userSpaceOnUse" x1="249.0391" y1="727.3789" x2="376.6211" y2="727.3789" gradientTransform="matrix(1 0 0 1 -246.3301 -660.6699)">
				<stop  offset="0" style="stop-color:#000000;stop-opacity:0.6"/>
				<stop  offset="1" style="stop-color:#000000;stop-opacity:0.6"/>
			</linearGradient>
			<path id="SVGID_1_" fill="url(#SVGID_3_)" d="M66.499,2.919c35.231,0,63.792,28.559,63.792,63.789
				c0,35.231-28.561,63.792-63.792,63.792c-35.23,0-63.79-28.561-63.79-63.792C2.709,31.479,31.27,2.919,66.499,2.919L66.499,2.919z
				"/>
		</g>
		<g>
			<path id="SVGID_2_" fill="#FFFFFF" d="M65.499,1.5c35.231,0,63.792,28.559,63.792,63.789c0,35.23-28.561,63.792-63.792,63.792
				c-35.23,0-63.79-28.562-63.79-63.792C1.709,30.059,30.27,1.5,65.499,1.5L65.499,1.5z"/>
		</g>
	</g>
	<g>
		<g>
			<path id="SVGID_6_" fill="#575757" d="M65.499,4.037c33.829,0,61.253,27.424,61.253,61.251c0,33.829-27.424,61.253-61.253,61.253
				c-33.828,0-61.251-27.424-61.251-61.253C4.248,31.461,31.671,4.037,65.499,4.037L65.499,4.037z"/>
		</g>
	</g>
	<g>
		<g>
			<path id="SVGID_8_" fill="#FFFFFF" d="M65.502,18.246c25.984,0,47.049,21.065,47.049,47.048
				c0,25.985-21.064,47.049-47.049,47.049c-25.983,0-47.048-21.065-47.048-47.049C18.455,39.31,39.519,18.246,65.502,18.246
				L65.502,18.246z"/>
		</g>
	</g>
	<g>
		<g>
			<path id="SVGID_10_" fill="#4C4C4C" d="M75.29,55.37c0,0-6.325,2.248-9.16,2.668c-1.152,0.17-2.197-1.034-1.084-2.608
				c2.825-4.001,11.524-16.045,14.129-19.637c0.367-0.504,1.287-0.56,1.691,0.006c2.641,3.702,11.547,15.887,14.278,19.755
				c0.883,1.252,0.215,2.689-1.125,2.491c-2.639-0.391-10.205-2.675-10.205-2.675v38.752H75.29V55.37L75.29,55.37z"/>
		</g>
	</g>
	<g>
		<g>
			<path id="SVGID_12_" d="M44.36,74.001c0,0-6.323-2.245-9.158-2.665c-1.152-0.171-2.197,1.032-1.084,2.607
				c2.825,4,11.524,16.045,14.129,19.637c0.367,0.504,1.287,0.561,1.691-0.005c2.641-3.702,11.547-15.888,14.278-19.757
				c0.883-1.252,0.216-2.689-1.126-2.491C60.454,71.718,52.884,74,52.884,74V35.25H44.36V74.001L44.36,74.001z"/>
		</g>
	</g>
	
		<linearGradient id="SVGID_4_" gradientUnits="userSpaceOnUse" x1="348.4229" y1="778.2188" x2="275.2392" y2="673.7017" gradientTransform="matrix(1 0 0 1 -246.3301 -660.6699)">
		<stop  offset="0" style="stop-color:#000000;stop-opacity:0"/>
		<stop  offset="1" style="stop-color:#FFFFFF;stop-opacity:0.25"/>
	</linearGradient>
	<path fill="url(#SVGID_4_)" d="M65.499,1.5c35.231,0,63.792,28.559,63.792,63.789c0,35.23-28.561,63.792-63.792,63.792
		c-35.23,0-63.79-28.562-63.79-63.792C1.709,30.059,30.27,1.5,65.499,1.5L65.499,1.5z"/>
</g>
<g id="normal">
	<g>
		<g>
			
				<linearGradient id="SVGID_5_" gradientUnits="userSpaceOnUse" x1="249.0391" y1="727.3789" x2="376.6211" y2="727.3789" gradientTransform="matrix(1 0 0 1 -246.3301 -660.6699)">
				<stop  offset="0" style="stop-color:#000000;stop-opacity:0.6"/>
				<stop  offset="1" style="stop-color:#000000;stop-opacity:0.6"/>
			</linearGradient>
			<path id="SVGID_15_" fill="url(#SVGID_5_)" d="M66.499,2.919c35.231,0,63.792,28.559,63.792,63.789
				c0,35.231-28.561,63.792-63.792,63.792c-35.23,0-63.79-28.561-63.79-63.792C2.709,31.479,31.27,2.919,66.499,2.919L66.499,2.919z
				"/>
		</g>
		<g>
			<path id="SVGID_16_" fill="#FFFFFF" d="M65.499,1.5c35.231,0,63.792,28.559,63.792,63.789c0,35.23-28.561,63.792-63.792,63.792
				c-35.23,0-63.79-28.562-63.79-63.792C1.709,30.059,30.27,1.5,65.499,1.5L65.499,1.5z"/>
		</g>
	</g>
	<g>
		<g>
			<path id="SVGID_20_" fill="#DA1E22" d="M65.499,4.037c33.829,0,61.253,27.424,61.253,61.251
				c0,33.829-27.424,61.253-61.253,61.253c-33.828,0-61.251-27.424-61.251-61.253C4.248,31.461,31.671,4.037,65.499,4.037
				L65.499,4.037z"/>
		</g>
	</g>
	<g>
		<g>
			<path id="SVGID_22_" fill="#FFFFFF" d="M65.502,18.246c25.984,0,47.049,21.065,47.049,47.048
				c0,25.985-21.064,47.049-47.049,47.049c-25.983,0-47.048-21.065-47.048-47.049C18.455,39.31,39.519,18.246,65.502,18.246
				L65.502,18.246z"/>
		</g>
	</g>
	<g>
		<g>
			<path id="SVGID_24_" fill="#EB0808" d="M75.29,55.37c0,0-6.325,2.248-9.16,2.668c-1.152,0.17-2.197-1.034-1.084-2.608
				c2.825-4.001,11.524-16.045,14.129-19.637c0.367-0.504,1.287-0.56,1.691,0.006c2.641,3.702,11.547,15.887,14.278,19.755
				c0.883,1.252,0.215,2.689-1.125,2.491c-2.639-0.391-10.205-2.675-10.205-2.675v38.752H75.29V55.37L75.29,55.37z"/>
		</g>
	</g>
	<g>
		<g>
			<path id="SVGID_26_" d="M44.36,74.001c0,0-6.323-2.245-9.158-2.665c-1.152-0.171-2.197,1.032-1.084,2.607
				c2.825,4,11.524,16.045,14.129,19.637c0.367,0.504,1.287,0.561,1.691-0.005c2.641-3.702,11.547-15.888,14.278-19.757
				c0.883-1.252,0.216-2.689-1.126-2.491C60.454,71.718,52.884,74,52.884,74V35.25H44.36V74.001L44.36,74.001z"/>
		</g>
	</g>
	
		<linearGradient id="SVGID_7_" gradientUnits="userSpaceOnUse" x1="348.4229" y1="778.2188" x2="275.2392" y2="673.7017" gradientTransform="matrix(1 0 0 1 -246.3301 -660.6699)">
		<stop  offset="0" style="stop-color:#000000;stop-opacity:0"/>
		<stop  offset="1" style="stop-color:#FFFFFF;stop-opacity:0.25"/>
	</linearGradient>
	<path fill="url(#SVGID_7_)" d="M65.499,1.5c35.231,0,63.792,28.559,63.792,63.789c0,35.23-28.561,63.792-63.792,63.792
		c-35.23,0-63.79-28.562-63.79-63.792C1.709,30.059,30.27,1.5,65.499,1.5L65.499,1.5z"/>
</g>
</svg>
