<?xml version="1.0" encoding="UTF-8" ?>
<!DOCTYPE svg PUBLIC "-//W3C//DTD SVG 1.1//EN" "http://www.w3.org/Graphics/SVG/1.1/DTD/svg11.dtd">
<svg width="130pt" height="130pt" viewBox="0 0 130 130" version="1.1" xmlns="http://www.w3.org/2000/svg">
<g id="disabled">
<path fill="#606060" opacity="1.00" d=" M 55.91 4.94 C 58.07 2.67 60.63 0.19 64.01 0.32 C 67.13 0.10 69.70 2.15 71.72 4.27 C 87.86 20.48 104.06 36.62 120.23 52.80 C 122.63 55.27 125.31 57.52 127.19 60.45 C 128.06 64.02 127.32 67.95 124.48 70.45 C 106.67 88.28 88.87 106.12 71.01 123.89 C 67.92 127.56 62.30 128.20 58.57 125.12 C 40.14 106.77 21.72 88.39 3.37 69.96 C -0.23 66.76 -0.09 60.68 3.43 57.47 C 20.89 39.93 38.45 22.48 55.91 4.94 M 62.23 3.30 C 60.33 3.80 58.77 5.05 57.40 6.41 C 40.40 23.43 23.38 40.43 6.35 57.43 C 4.09 59.55 2.91 62.87 3.80 65.91 C 4.42 68.65 6.86 70.35 8.68 72.30 C 25.17 88.80 41.65 105.32 58.15 121.81 C 61.10 125.30 66.94 125.38 70.09 122.11 C 87.35 105.03 104.45 87.78 121.65 70.63 C 123.85 68.43 125.75 65.26 124.81 62.05 C 123.93 58.72 121.06 56.59 118.79 54.23 C 102.77 38.23 86.76 22.23 70.72 6.26 C 68.60 4.01 65.32 2.57 62.23 3.30 Z" />
<path fill="#606060" opacity="1.00" d=" M 61.09 7.73 C 62.73 5.85 65.63 5.61 67.23 7.71 C 84.58 25.05 101.86 42.47 119.25 59.76 C 120.38 60.96 121.77 62.17 121.91 63.93 C 121.23 66.30 119.21 67.88 117.57 69.59 C 102.05 85.03 86.62 100.56 71.10 116.01 C 68.63 118.32 66.43 121.90 62.52 121.10 C 44.66 103.10 26.67 85.23 8.68 67.35 C 5.51 65.28 6.70 61.27 9.36 59.38 C 26.65 42.21 43.80 24.90 61.09 7.73 M 57.59 37.38 C 53.22 38.05 48.76 37.42 44.35 37.73 C 41.68 42.62 38.89 47.43 36.18 52.30 C 35.12 54.00 35.40 56.07 35.34 57.97 C 35.47 67.30 35.20 76.64 35.47 85.96 C 54.10 85.92 72.74 86.03 91.37 85.98 C 91.43 75.37 91.52 64.74 91.33 54.13 C 89.12 48.40 85.26 43.37 82.66 37.78 C 78.51 37.46 74.34 37.81 70.19 37.57 C 66.10 36.37 61.71 36.17 57.59 37.38 Z" />
<path fill="#606060" opacity="1.00" d=" M 59.74 37.65 C 62.21 37.63 64.68 37.63 67.16 37.63 C 67.01 39.36 66.85 41.08 66.67 42.80 C 64.52 42.82 62.36 42.82 60.21 42.86 C 60.05 41.12 59.90 39.38 59.74 37.65 Z" />
<path fill="#606060" opacity="1.00" d=" M 45.24 38.60 C 47.31 38.82 49.67 38.13 51.57 39.10 C 52.54 40.63 53.30 42.27 54.11 43.88 C 53.10 44.60 52.09 45.31 51.08 46.03 C 49.07 43.60 47.08 41.16 45.24 38.60 Z" />
<path fill="#606060" opacity="1.00" d=" M 52.58 38.64 C 54.67 38.64 56.77 38.66 58.86 38.69 C 58.91 39.55 59.01 41.26 59.06 42.12 C 57.71 42.58 56.35 43.03 55.00 43.47 C 54.20 41.86 53.38 40.25 52.58 38.64 Z" />
<path fill="#606060" opacity="1.00" d=" M 68.11 38.67 C 70.16 38.66 72.22 38.65 74.27 38.66 C 73.47 40.27 72.63 41.86 71.83 43.48 C 70.49 43.03 69.16 42.59 67.82 42.14 C 67.89 41.27 68.04 39.54 68.11 38.67 Z" />
<path fill="#606060" opacity="1.00" d=" M 75.29 38.78 C 77.35 38.70 79.41 38.66 81.48 38.63 C 79.68 41.20 77.73 43.67 75.67 46.04 C 74.73 45.32 73.79 44.60 72.84 43.88 C 73.66 42.18 74.49 40.49 75.29 38.78 Z" />
<path fill="#606060" opacity="1.00" d=" M 44.49 39.59 C 46.39 41.91 48.50 44.09 49.98 46.71 C 48.92 48.07 47.75 49.32 46.61 50.61 C 44.50 49.38 42.41 48.13 40.36 46.81 C 41.74 44.40 43.10 41.99 44.49 39.59 Z" />
<path fill="#606060" opacity="1.00" d=" M 76.71 46.75 C 78.43 44.23 80.39 41.89 82.43 39.63 C 83.76 42.04 85.09 44.45 86.39 46.88 C 84.35 48.12 82.30 49.35 80.25 50.58 C 79.07 49.31 77.89 48.02 76.71 46.75 Z" />
<path fill="#606060" opacity="1.00" d=" M 44.44 61.27 C 44.53 53.05 50.54 45.36 58.52 43.37 C 61.91 44.42 65.46 43.66 68.92 43.66 C 76.57 45.64 82.23 53.23 82.27 61.09 C 82.37 69.03 82.34 76.97 82.23 84.90 C 81.54 84.88 80.16 84.82 79.46 84.80 C 79.31 76.89 79.55 68.98 79.35 61.07 C 79.36 52.98 72.08 45.69 63.95 45.86 C 55.79 45.17 48.06 51.97 47.51 60.11 C 47.11 68.38 47.55 76.67 47.26 84.94 C 46.55 84.89 45.13 84.77 44.42 84.71 C 44.43 76.90 44.35 69.08 44.44 61.27 Z" />
<path fill="#606060" opacity="1.00" d=" M 39.90 47.78 C 41.98 49.00 44.07 50.24 46.17 51.44 C 45.42 53.01 44.73 54.60 44.03 56.18 C 41.49 55.42 38.94 54.68 36.41 53.90 C 37.57 51.86 38.73 49.82 39.90 47.78 Z" />
<path fill="#606060" opacity="1.00" d=" M 80.82 51.40 C 82.87 50.22 84.90 49.00 86.93 47.80 C 88.10 49.80 89.23 51.82 90.31 53.87 C 87.78 54.79 85.17 55.45 82.56 56.09 C 82.01 54.51 81.38 52.97 80.82 51.40 Z" />
<path fill="#606060" opacity="1.00" d=" M 36.31 54.94 C 38.85 55.71 41.40 56.44 43.95 57.18 C 43.72 58.63 43.51 60.09 43.30 61.55 C 40.98 61.61 38.66 61.63 36.34 61.63 C 36.32 59.40 36.31 57.17 36.31 54.94 Z" />
<path fill="#606060" opacity="1.00" d=" M 82.93 57.21 C 85.43 56.50 87.92 55.76 90.40 54.99 C 90.40 57.16 90.40 59.34 90.39 61.51 C 88.10 61.56 85.80 61.59 83.50 61.59 C 83.31 60.13 83.12 58.67 82.93 57.21 Z" />
<path fill="#606060" opacity="1.00" d=" M 36.32 62.67 C 38.67 62.65 41.02 62.65 43.37 62.67 C 43.35 64.23 43.33 65.79 43.31 67.35 C 40.98 67.35 38.65 67.35 36.32 67.32 C 36.32 65.77 36.32 64.22 36.32 62.67 Z" />
<path fill="#606060" opacity="1.00" d=" M 83.43 62.72 C 85.75 62.71 88.07 62.72 90.40 62.75 C 90.40 64.26 90.39 65.76 90.39 67.26 C 88.06 67.28 85.74 67.28 83.42 67.26 C 83.42 65.75 83.42 64.23 83.43 62.72 Z" />
<path fill="#606060" opacity="1.00" d=" M 36.36 68.40 C 38.67 68.37 40.98 68.37 43.29 68.36 C 43.32 69.92 43.35 71.48 43.38 73.04 C 41.02 73.05 38.66 73.07 36.30 73.06 C 36.31 71.51 36.34 69.95 36.36 68.40 Z" />
<path fill="#606060" opacity="1.00" d=" M 83.46 68.47 C 85.74 68.43 88.03 68.42 90.32 68.42 C 90.36 69.94 90.39 71.46 90.43 72.99 C 88.09 73.01 85.75 73.03 83.41 73.04 C 83.42 71.51 83.44 69.99 83.46 68.47 Z" />
<path fill="#606060" opacity="1.00" d=" M 36.35 74.17 C 38.66 74.13 40.97 74.11 43.28 74.10 C 43.32 75.73 43.35 77.36 43.38 78.99 C 41.02 79.00 38.66 79.00 36.30 78.99 C 36.31 77.39 36.33 75.78 36.35 74.17 Z" />
<path fill="#606060" opacity="1.00" d=" M 83.41 74.25 C 85.71 74.16 88.02 74.13 90.33 74.09 C 90.36 75.73 90.39 77.36 90.42 78.99 C 88.09 78.99 85.75 78.99 83.42 78.99 C 83.41 77.41 83.41 75.83 83.41 74.25 Z" />
<path fill="#606060" opacity="1.00" d=" M 36.31 80.00 C 38.67 80.00 41.02 80.00 43.38 80.01 C 43.35 81.63 43.31 83.26 43.26 84.88 C 40.96 84.87 38.66 84.86 36.36 84.82 C 36.34 83.21 36.32 81.61 36.31 80.00 Z" />
<path fill="#606060" opacity="1.00" d=" M 83.35 80.02 C 85.71 80.01 88.06 80.00 90.42 80.01 C 90.39 81.62 90.36 83.24 90.32 84.86 C 88.15 84.88 85.98 84.96 83.82 84.80 C 83.09 83.37 83.54 81.58 83.35 80.02 Z" />
<path fill="#000000" opacity="1.00" d=" M 62.23 3.30 C 65.32 2.57 68.60 4.01 70.72 6.26 C 86.76 22.23 102.77 38.23 118.79 54.23 C 121.06 56.59 123.93 58.72 124.81 62.05 C 125.75 65.26 123.85 68.43 121.65 70.63 C 104.45 87.78 87.35 105.03 70.09 122.11 C 66.94 125.38 61.10 125.30 58.15 121.81 C 41.65 105.32 25.17 88.80 8.68 72.30 C 6.86 70.35 4.42 68.65 3.80 65.91 C 2.91 62.87 4.09 59.55 6.35 57.43 C 23.38 40.43 40.40 23.43 57.40 6.41 C 58.77 5.05 60.33 3.80 62.23 3.30 M 61.09 7.73 C 43.80 24.90 26.65 42.21 9.36 59.38 C 6.70 61.27 5.51 65.28 8.68 67.35 C 26.67 85.23 44.66 103.10 62.52 121.10 C 66.43 121.90 68.63 118.32 71.10 116.01 C 86.62 100.56 102.05 85.03 117.57 69.59 C 119.21 67.88 121.23 66.30 121.91 63.93 C 121.77 62.17 120.38 60.96 119.25 59.76 C 101.86 42.47 84.58 25.05 67.23 7.71 C 65.63 5.61 62.73 5.85 61.09 7.73 Z" />
<path fill="#000000" opacity="1.00" d=" M 57.59 37.38 C 61.71 36.17 66.10 36.37 70.19 37.57 C 74.34 37.81 78.51 37.46 82.66 37.78 C 85.26 43.37 89.12 48.40 91.33 54.13 C 91.52 64.74 91.43 75.37 91.37 85.98 C 72.74 86.03 54.10 85.92 35.47 85.96 C 35.20 76.64 35.47 67.30 35.34 57.97 C 35.40 56.07 35.12 54.00 36.18 52.30 C 38.89 47.43 41.68 42.62 44.35 37.73 C 48.76 37.42 53.22 38.05 57.59 37.38 M 59.74 37.65 C 59.90 39.38 60.05 41.12 60.21 42.86 C 62.36 42.82 64.52 42.82 66.67 42.80 C 66.85 41.08 67.01 39.36 67.16 37.63 C 64.68 37.63 62.21 37.63 59.74 37.65 M 45.24 38.60 C 47.08 41.16 49.07 43.60 51.08 46.03 C 52.09 45.31 53.10 44.60 54.11 43.88 C 53.30 42.27 52.54 40.63 51.57 39.10 C 49.67 38.13 47.31 38.82 45.24 38.60 M 52.58 38.64 C 53.38 40.25 54.20 41.86 55.00 43.47 C 56.35 43.03 57.71 42.58 59.06 42.12 C 59.01 41.26 58.91 39.55 58.86 38.69 C 56.77 38.66 54.67 38.64 52.58 38.64 M 68.11 38.67 C 68.04 39.54 67.89 41.27 67.82 42.14 C 69.16 42.59 70.49 43.03 71.83 43.48 C 72.63 41.86 73.47 40.27 74.27 38.66 C 72.22 38.65 70.16 38.66 68.11 38.67 M 75.29 38.78 C 74.49 40.49 73.66 42.18 72.84 43.88 C 73.79 44.60 74.73 45.32 75.67 46.04 C 77.73 43.67 79.68 41.20 81.48 38.63 C 79.41 38.66 77.35 38.70 75.29 38.78 M 44.49 39.59 C 43.10 41.99 41.74 44.40 40.36 46.81 C 42.41 48.13 44.50 49.38 46.61 50.61 C 47.75 49.32 48.92 48.07 49.98 46.71 C 48.50 44.09 46.39 41.91 44.49 39.59 M 76.71 46.75 C 77.89 48.02 79.07 49.31 80.25 50.58 C 82.30 49.35 84.35 48.12 86.39 46.88 C 85.09 44.45 83.76 42.04 82.43 39.63 C 80.39 41.89 78.43 44.23 76.71 46.75 M 44.44 61.27 C 44.35 69.08 44.43 76.90 44.42 84.71 C 45.13 84.77 46.55 84.89 47.26 84.94 C 47.55 76.67 47.11 68.38 47.51 60.11 C 48.06 51.97 55.79 45.17 63.95 45.86 C 72.08 45.69 79.36 52.98 79.35 61.07 C 79.55 68.98 79.31 76.89 79.46 84.80 C 80.16 84.82 81.54 84.88 82.23 84.90 C 82.34 76.97 82.37 69.03 82.27 61.09 C 82.23 53.23 76.57 45.64 68.92 43.66 C 65.46 43.66 61.91 44.42 58.52 43.37 C 50.54 45.36 44.53 53.05 44.44 61.27 M 39.90 47.78 C 38.73 49.82 37.57 51.86 36.41 53.90 C 38.94 54.68 41.49 55.42 44.03 56.18 C 44.73 54.60 45.42 53.01 46.17 51.44 C 44.07 50.24 41.98 49.00 39.90 47.78 M 80.82 51.40 C 81.38 52.97 82.01 54.51 82.56 56.09 C 85.17 55.45 87.78 54.79 90.31 53.87 C 89.23 51.82 88.10 49.80 86.93 47.80 C 84.90 49.00 82.87 50.22 80.82 51.40 M 36.31 54.94 C 36.31 57.17 36.32 59.40 36.34 61.63 C 38.66 61.63 40.98 61.61 43.30 61.55 C 43.51 60.09 43.72 58.63 43.95 57.18 C 41.40 56.44 38.85 55.71 36.31 54.94 M 82.93 57.21 C 83.12 58.67 83.31 60.13 83.50 61.59 C 85.80 61.59 88.10 61.56 90.39 61.51 C 90.40 59.34 90.40 57.16 90.40 54.99 C 87.92 55.76 85.43 56.50 82.93 57.21 M 36.32 62.67 C 36.32 64.22 36.32 65.77 36.32 67.32 C 38.65 67.35 40.98 67.35 43.31 67.35 C 43.33 65.79 43.35 64.23 43.37 62.67 C 41.02 62.65 38.67 62.65 36.32 62.67 M 83.43 62.72 C 83.42 64.23 83.42 65.75 83.42 67.26 C 85.74 67.28 88.06 67.28 90.39 67.26 C 90.39 65.76 90.40 64.26 90.40 62.75 C 88.07 62.72 85.75 62.71 83.43 62.72 M 36.36 68.40 C 36.34 69.95 36.31 71.51 36.30 73.06 C 38.66 73.07 41.02 73.05 43.38 73.04 C 43.35 71.48 43.32 69.92 43.29 68.36 C 40.98 68.37 38.67 68.37 36.36 68.40 M 83.46 68.47 C 83.44 69.99 83.42 71.51 83.41 73.04 C 85.75 73.03 88.09 73.01 90.43 72.99 C 90.39 71.46 90.36 69.94 90.32 68.42 C 88.03 68.42 85.74 68.43 83.46 68.47 M 36.35 74.17 C 36.33 75.78 36.31 77.39 36.30 78.99 C 38.66 79.00 41.02 79.00 43.38 78.99 C 43.35 77.36 43.32 75.73 43.28 74.10 C 40.97 74.11 38.66 74.13 36.35 74.17 M 83.41 74.25 C 83.41 75.83 83.41 77.41 83.42 78.99 C 85.75 78.99 88.09 78.99 90.42 78.99 C 90.39 77.36 90.36 75.73 90.33 74.09 C 88.02 74.13 85.71 74.16 83.41 74.25 M 36.31 80.00 C 36.32 81.61 36.34 83.21 36.36 84.82 C 38.66 84.86 40.96 84.87 43.26 84.88 C 43.31 83.26 43.35 81.63 43.38 80.01 C 41.02 80.00 38.67 80.00 36.31 80.00 M 83.35 80.02 C 83.54 81.58 83.09 83.37 83.82 84.80 C 85.98 84.96 88.15 84.88 90.32 84.86 C 90.36 83.24 90.39 81.62 90.42 80.01 C 88.06 80.00 85.71 80.01 83.35 80.02 Z" />
</g>
<g id="normal">
<path fill="#FBD200" opacity="1.00" d=" M 55.91 4.94 C 58.07 2.67 60.63 0.19 64.01 0.32 C 67.13 0.10 69.70 2.15 71.72 4.27 C 87.86 20.48 104.06 36.62 120.23 52.80 C 122.63 55.27 125.31 57.52 127.19 60.45 C 128.06 64.02 127.32 67.95 124.48 70.45 C 106.67 88.28 88.87 106.12 71.01 123.89 C 67.92 127.56 62.30 128.20 58.57 125.12 C 40.14 106.77 21.72 88.39 3.37 69.96 C -0.23 66.76 -0.09 60.68 3.43 57.47 C 20.89 39.93 38.45 22.48 55.91 4.94 M 62.23 3.30 C 60.33 3.80 58.77 5.05 57.40 6.41 C 40.40 23.43 23.38 40.43 6.35 57.43 C 4.09 59.55 2.91 62.87 3.80 65.91 C 4.42 68.65 6.86 70.35 8.68 72.30 C 25.17 88.80 41.65 105.32 58.15 121.81 C 61.10 125.30 66.94 125.38 70.09 122.11 C 87.35 105.03 104.45 87.78 121.65 70.63 C 123.85 68.43 125.75 65.26 124.81 62.05 C 123.93 58.72 121.06 56.59 118.79 54.23 C 102.77 38.23 86.76 22.23 70.72 6.26 C 68.60 4.01 65.32 2.57 62.23 3.30 Z" />
<path fill="#FBD200" opacity="1.00" d=" M 61.09 7.73 C 62.73 5.85 65.63 5.61 67.23 7.71 C 84.58 25.05 101.86 42.47 119.25 59.76 C 120.38 60.96 121.77 62.17 121.91 63.93 C 121.23 66.30 119.21 67.88 117.57 69.59 C 102.05 85.03 86.62 100.56 71.10 116.01 C 68.63 118.32 66.43 121.90 62.52 121.10 C 44.66 103.10 26.67 85.23 8.68 67.35 C 5.51 65.28 6.70 61.27 9.36 59.38 C 26.65 42.21 43.80 24.90 61.09 7.73 M 57.59 37.38 C 53.22 38.05 48.76 37.42 44.35 37.73 C 41.68 42.62 38.89 47.43 36.18 52.30 C 35.12 54.00 35.40 56.07 35.34 57.97 C 35.47 67.30 35.20 76.64 35.47 85.96 C 54.10 85.92 72.74 86.03 91.37 85.98 C 91.43 75.37 91.52 64.74 91.33 54.13 C 89.12 48.40 85.26 43.37 82.66 37.78 C 78.51 37.46 74.34 37.81 70.19 37.57 C 66.10 36.37 61.71 36.17 57.59 37.38 Z" />
<path fill="#FBD200" opacity="1.00" d=" M 59.74 37.65 C 62.21 37.63 64.68 37.63 67.16 37.63 C 67.01 39.36 66.85 41.08 66.67 42.80 C 64.52 42.82 62.36 42.82 60.21 42.86 C 60.05 41.12 59.90 39.38 59.74 37.65 Z" />
<path fill="#FBD200" opacity="1.00" d=" M 45.24 38.60 C 47.31 38.82 49.67 38.13 51.57 39.10 C 52.54 40.63 53.30 42.27 54.11 43.88 C 53.10 44.60 52.09 45.31 51.08 46.03 C 49.07 43.60 47.08 41.16 45.24 38.60 Z" />
<path fill="#FBD200" opacity="1.00" d=" M 52.58 38.64 C 54.67 38.64 56.77 38.66 58.86 38.69 C 58.91 39.55 59.01 41.26 59.06 42.12 C 57.71 42.58 56.35 43.03 55.00 43.47 C 54.20 41.86 53.38 40.25 52.58 38.64 Z" />
<path fill="#FBD200" opacity="1.00" d=" M 68.11 38.67 C 70.16 38.66 72.22 38.65 74.27 38.66 C 73.47 40.27 72.63 41.86 71.83 43.48 C 70.49 43.03 69.16 42.59 67.82 42.14 C 67.89 41.27 68.04 39.54 68.11 38.67 Z" />
<path fill="#FBD200" opacity="1.00" d=" M 75.29 38.78 C 77.35 38.70 79.41 38.66 81.48 38.63 C 79.68 41.20 77.73 43.67 75.67 46.04 C 74.73 45.32 73.79 44.60 72.84 43.88 C 73.66 42.18 74.49 40.49 75.29 38.78 Z" />
<path fill="#FBD200" opacity="1.00" d=" M 44.49 39.59 C 46.39 41.91 48.50 44.09 49.98 46.71 C 48.92 48.07 47.75 49.32 46.61 50.61 C 44.50 49.38 42.41 48.13 40.36 46.81 C 41.74 44.40 43.10 41.99 44.49 39.59 Z" />
<path fill="#FBD200" opacity="1.00" d=" M 76.71 46.75 C 78.43 44.23 80.39 41.89 82.43 39.63 C 83.76 42.04 85.09 44.45 86.39 46.88 C 84.35 48.12 82.30 49.35 80.25 50.58 C 79.07 49.31 77.89 48.02 76.71 46.75 Z" />
<path fill="#FBD200" opacity="1.00" d=" M 44.44 61.27 C 44.53 53.05 50.54 45.36 58.52 43.37 C 61.91 44.42 65.46 43.66 68.92 43.66 C 76.57 45.64 82.23 53.23 82.27 61.09 C 82.37 69.03 82.34 76.97 82.23 84.90 C 81.54 84.88 80.16 84.82 79.46 84.80 C 79.31 76.89 79.55 68.98 79.35 61.07 C 79.36 52.98 72.08 45.69 63.95 45.86 C 55.79 45.17 48.06 51.97 47.51 60.11 C 47.11 68.38 47.55 76.67 47.26 84.94 C 46.55 84.89 45.13 84.77 44.42 84.71 C 44.43 76.90 44.35 69.08 44.44 61.27 Z" />
<path fill="#FBD200" opacity="1.00" d=" M 39.90 47.78 C 41.98 49.00 44.07 50.24 46.17 51.44 C 45.42 53.01 44.73 54.60 44.03 56.18 C 41.49 55.42 38.94 54.68 36.41 53.90 C 37.57 51.86 38.73 49.82 39.90 47.78 Z" />
<path fill="#FBD200" opacity="1.00" d=" M 80.82 51.40 C 82.87 50.22 84.90 49.00 86.93 47.80 C 88.10 49.80 89.23 51.82 90.31 53.87 C 87.78 54.79 85.17 55.45 82.56 56.09 C 82.01 54.51 81.38 52.97 80.82 51.40 Z" />
<path fill="#FBD200" opacity="1.00" d=" M 36.31 54.94 C 38.85 55.71 41.40 56.44 43.95 57.18 C 43.72 58.63 43.51 60.09 43.30 61.55 C 40.98 61.61 38.66 61.63 36.34 61.63 C 36.32 59.40 36.31 57.17 36.31 54.94 Z" />
<path fill="#FBD200" opacity="1.00" d=" M 82.93 57.21 C 85.43 56.50 87.92 55.76 90.40 54.99 C 90.40 57.16 90.40 59.34 90.39 61.51 C 88.10 61.56 85.80 61.59 83.50 61.59 C 83.31 60.13 83.12 58.67 82.93 57.21 Z" />
<path fill="#FBD200" opacity="1.00" d=" M 36.32 62.67 C 38.67 62.65 41.02 62.65 43.37 62.67 C 43.35 64.23 43.33 65.79 43.31 67.35 C 40.98 67.35 38.65 67.35 36.32 67.32 C 36.32 65.77 36.32 64.22 36.32 62.67 Z" />
<path fill="#FBD200" opacity="1.00" d=" M 83.43 62.72 C 85.75 62.71 88.07 62.72 90.40 62.75 C 90.40 64.26 90.39 65.76 90.39 67.26 C 88.06 67.28 85.74 67.28 83.42 67.26 C 83.42 65.75 83.42 64.23 83.43 62.72 Z" />
<path fill="#FBD200" opacity="1.00" d=" M 36.36 68.40 C 38.67 68.37 40.98 68.37 43.29 68.36 C 43.32 69.92 43.35 71.48 43.38 73.04 C 41.02 73.05 38.66 73.07 36.30 73.06 C 36.31 71.51 36.34 69.95 36.36 68.40 Z" />
<path fill="#FBD200" opacity="1.00" d=" M 83.46 68.47 C 85.74 68.43 88.03 68.42 90.32 68.42 C 90.36 69.94 90.39 71.46 90.43 72.99 C 88.09 73.01 85.75 73.03 83.41 73.04 C 83.42 71.51 83.44 69.99 83.46 68.47 Z" />
<path fill="#FBD200" opacity="1.00" d=" M 36.35 74.17 C 38.66 74.13 40.97 74.11 43.28 74.10 C 43.32 75.73 43.35 77.36 43.38 78.99 C 41.02 79.00 38.66 79.00 36.30 78.99 C 36.31 77.39 36.33 75.78 36.35 74.17 Z" />
<path fill="#FBD200" opacity="1.00" d=" M 83.41 74.25 C 85.71 74.16 88.02 74.13 90.33 74.09 C 90.36 75.73 90.39 77.36 90.42 78.99 C 88.09 78.99 85.75 78.99 83.42 78.99 C 83.41 77.41 83.41 75.83 83.41 74.25 Z" />
<path fill="#FBD200" opacity="1.00" d=" M 36.31 80.00 C 38.67 80.00 41.02 80.00 43.38 80.01 C 43.35 81.63 43.31 83.26 43.26 84.88 C 40.96 84.87 38.66 84.86 36.36 84.82 C 36.34 83.21 36.32 81.61 36.31 80.00 Z" />
<path fill="#FBD200" opacity="1.00" d=" M 83.35 80.02 C 85.71 80.01 88.06 80.00 90.42 80.01 C 90.39 81.62 90.36 83.24 90.32 84.86 C 88.15 84.88 85.98 84.96 83.82 84.80 C 83.09 83.37 83.54 81.58 83.35 80.02 Z" />
<path fill="#000000" opacity="1.00" d=" M 62.23 3.30 C 65.32 2.57 68.60 4.01 70.72 6.26 C 86.76 22.23 102.77 38.23 118.79 54.23 C 121.06 56.59 123.93 58.72 124.81 62.05 C 125.75 65.26 123.85 68.43 121.65 70.63 C 104.45 87.78 87.35 105.03 70.09 122.11 C 66.94 125.38 61.10 125.30 58.15 121.81 C 41.65 105.32 25.17 88.80 8.68 72.30 C 6.86 70.35 4.42 68.65 3.80 65.91 C 2.91 62.87 4.09 59.55 6.35 57.43 C 23.38 40.43 40.40 23.43 57.40 6.41 C 58.77 5.05 60.33 3.80 62.23 3.30 M 61.09 7.73 C 43.80 24.90 26.65 42.21 9.36 59.38 C 6.70 61.27 5.51 65.28 8.68 67.35 C 26.67 85.23 44.66 103.10 62.52 121.10 C 66.43 121.90 68.63 118.32 71.10 116.01 C 86.62 100.56 102.05 85.03 117.57 69.59 C 119.21 67.88 121.23 66.30 121.91 63.93 C 121.77 62.17 120.38 60.96 119.25 59.76 C 101.86 42.47 84.58 25.05 67.23 7.71 C 65.63 5.61 62.73 5.85 61.09 7.73 Z" />
<path fill="#000000" opacity="1.00" d=" M 57.59 37.38 C 61.71 36.17 66.10 36.37 70.19 37.57 C 74.34 37.81 78.51 37.46 82.66 37.78 C 85.26 43.37 89.12 48.40 91.33 54.13 C 91.52 64.74 91.43 75.37 91.37 85.98 C 72.74 86.03 54.10 85.92 35.47 85.96 C 35.20 76.64 35.47 67.30 35.34 57.97 C 35.40 56.07 35.12 54.00 36.18 52.30 C 38.89 47.43 41.68 42.62 44.35 37.73 C 48.76 37.42 53.22 38.05 57.59 37.38 M 59.74 37.65 C 59.90 39.38 60.05 41.12 60.21 42.86 C 62.36 42.82 64.52 42.82 66.67 42.80 C 66.85 41.08 67.01 39.36 67.16 37.63 C 64.68 37.63 62.21 37.63 59.74 37.65 M 45.24 38.60 C 47.08 41.16 49.07 43.60 51.08 46.03 C 52.09 45.31 53.10 44.60 54.11 43.88 C 53.30 42.27 52.54 40.63 51.57 39.10 C 49.67 38.13 47.31 38.82 45.24 38.60 M 52.58 38.64 C 53.38 40.25 54.20 41.86 55.00 43.47 C 56.35 43.03 57.71 42.58 59.06 42.12 C 59.01 41.26 58.91 39.55 58.86 38.69 C 56.77 38.66 54.67 38.64 52.58 38.64 M 68.11 38.67 C 68.04 39.54 67.89 41.27 67.82 42.14 C 69.16 42.59 70.49 43.03 71.83 43.48 C 72.63 41.86 73.47 40.27 74.27 38.66 C 72.22 38.65 70.16 38.66 68.11 38.67 M 75.29 38.78 C 74.49 40.49 73.66 42.18 72.84 43.88 C 73.79 44.60 74.73 45.32 75.67 46.04 C 77.73 43.67 79.68 41.20 81.48 38.63 C 79.41 38.66 77.35 38.70 75.29 38.78 M 44.49 39.59 C 43.10 41.99 41.74 44.40 40.36 46.81 C 42.41 48.13 44.50 49.38 46.61 50.61 C 47.75 49.32 48.92 48.07 49.98 46.71 C 48.50 44.09 46.39 41.91 44.49 39.59 M 76.71 46.75 C 77.89 48.02 79.07 49.31 80.25 50.58 C 82.30 49.35 84.35 48.12 86.39 46.88 C 85.09 44.45 83.76 42.04 82.43 39.63 C 80.39 41.89 78.43 44.23 76.71 46.75 M 44.44 61.27 C 44.35 69.08 44.43 76.90 44.42 84.71 C 45.13 84.77 46.55 84.89 47.26 84.94 C 47.55 76.67 47.11 68.38 47.51 60.11 C 48.06 51.97 55.79 45.17 63.95 45.86 C 72.08 45.69 79.36 52.98 79.35 61.07 C 79.55 68.98 79.31 76.89 79.46 84.80 C 80.16 84.82 81.54 84.88 82.23 84.90 C 82.34 76.97 82.37 69.03 82.27 61.09 C 82.23 53.23 76.57 45.64 68.92 43.66 C 65.46 43.66 61.91 44.42 58.52 43.37 C 50.54 45.36 44.53 53.05 44.44 61.27 M 39.90 47.78 C 38.73 49.82 37.57 51.86 36.41 53.90 C 38.94 54.68 41.49 55.42 44.03 56.18 C 44.73 54.60 45.42 53.01 46.17 51.44 C 44.07 50.24 41.98 49.00 39.90 47.78 M 80.82 51.40 C 81.38 52.97 82.01 54.51 82.56 56.09 C 85.17 55.45 87.78 54.79 90.31 53.87 C 89.23 51.82 88.10 49.80 86.93 47.80 C 84.90 49.00 82.87 50.22 80.82 51.40 M 36.31 54.94 C 36.31 57.17 36.32 59.40 36.34 61.63 C 38.66 61.63 40.98 61.61 43.30 61.55 C 43.51 60.09 43.72 58.63 43.95 57.18 C 41.40 56.44 38.85 55.71 36.31 54.94 M 82.93 57.21 C 83.12 58.67 83.31 60.13 83.50 61.59 C 85.80 61.59 88.10 61.56 90.39 61.51 C 90.40 59.34 90.40 57.16 90.40 54.99 C 87.92 55.76 85.43 56.50 82.93 57.21 M 36.32 62.67 C 36.32 64.22 36.32 65.77 36.32 67.32 C 38.65 67.35 40.98 67.35 43.31 67.35 C 43.33 65.79 43.35 64.23 43.37 62.67 C 41.02 62.65 38.67 62.65 36.32 62.67 M 83.43 62.72 C 83.42 64.23 83.42 65.75 83.42 67.26 C 85.74 67.28 88.06 67.28 90.39 67.26 C 90.39 65.76 90.40 64.26 90.40 62.75 C 88.07 62.72 85.75 62.71 83.43 62.72 M 36.36 68.40 C 36.34 69.95 36.31 71.51 36.30 73.06 C 38.66 73.07 41.02 73.05 43.38 73.04 C 43.35 71.48 43.32 69.92 43.29 68.36 C 40.98 68.37 38.67 68.37 36.36 68.40 M 83.46 68.47 C 83.44 69.99 83.42 71.51 83.41 73.04 C 85.75 73.03 88.09 73.01 90.43 72.99 C 90.39 71.46 90.36 69.94 90.32 68.42 C 88.03 68.42 85.74 68.43 83.46 68.47 M 36.35 74.17 C 36.33 75.78 36.31 77.39 36.30 78.99 C 38.66 79.00 41.02 79.00 43.38 78.99 C 43.35 77.36 43.32 75.73 43.28 74.10 C 40.97 74.11 38.66 74.13 36.35 74.17 M 83.41 74.25 C 83.41 75.83 83.41 77.41 83.42 78.99 C 85.75 78.99 88.09 78.99 90.42 78.99 C 90.39 77.36 90.36 75.73 90.33 74.09 C 88.02 74.13 85.71 74.16 83.41 74.25 M 36.31 80.00 C 36.32 81.61 36.34 83.21 36.36 84.82 C 38.66 84.86 40.96 84.87 43.26 84.88 C 43.31 83.26 43.35 81.63 43.38 80.01 C 41.02 80.00 38.67 80.00 36.31 80.00 M 83.35 80.02 C 83.54 81.58 83.09 83.37 83.82 84.80 C 85.98 84.96 88.15 84.88 90.32 84.86 C 90.36 83.24 90.39 81.62 90.42 80.01 C 88.06 80.00 85.71 80.01 83.35 80.02 Z" />
</g>
</svg>
