<?xml version="1.0" encoding="UTF-8" ?>
<!DOCTYPE svg PUBLIC "-//W3C//DTD SVG 1.1//EN" "http://www.w3.org/Graphics/SVG/1.1/DTD/svg11.dtd">
<svg width="130pt" height="130pt" viewBox="0 0 130 130" version="1.1" xmlns="http://www.w3.org/2000/svg">
<g id="disabled">
<path fill="#606060" opacity="1.00" d=" M 58.78 4.72 C 61.97 1.07 68.18 0.93 71.44 4.57 C 88.99 22.04 106.47 39.58 123.98 57.09 C 125.21 58.33 126.42 59.61 127.42 61.06 C 128.52 64.53 127.96 68.50 125.18 71.04 C 107.33 88.94 89.46 106.82 71.53 124.64 C 68.40 128.09 62.45 128.32 59.27 124.81 C 40.84 106.50 22.53 88.05 4.10 69.73 C 1.41 66.35 2.06 61.11 5.25 58.27 C 23.08 40.40 40.94 22.57 58.78 4.72 M 64.16 4.19 C 60.60 4.62 58.33 7.58 55.95 9.91 C 39.96 25.92 23.94 41.92 7.93 57.92 C 6.02 59.78 4.42 62.20 4.73 64.99 C 4.64 68.25 7.16 70.60 9.28 72.72 C 25.77 89.22 42.24 105.76 58.74 122.26 C 62.10 126.24 68.77 126.15 71.97 122.00 C 88.96 104.98 105.98 87.99 122.97 70.97 C 125.05 68.96 126.61 65.94 125.75 63.00 C 125.04 59.89 122.41 57.87 120.29 55.71 C 104.11 39.57 87.97 23.39 71.78 7.27 C 69.85 5.26 67.04 3.59 64.16 4.19 Z" />
<path fill="#606060" opacity="1.00" d=" M 63.24 9.16 C 65.00 7.53 67.37 8.75 68.70 10.27 C 85.71 27.32 102.75 44.34 119.76 61.38 C 121.74 62.98 121.93 66.19 119.77 67.74 C 102.37 85.05 85.09 102.51 67.63 119.78 C 65.99 121.71 63.44 120.65 62.00 119.06 C 45.12 102.23 28.28 85.37 11.39 68.55 C 10.25 67.25 8.52 65.80 9.00 63.84 C 10.03 62.00 11.62 60.57 13.08 59.09 C 29.87 42.52 46.30 25.56 63.24 9.16 M 50.00 30.00 C 50.00 38.67 50.00 47.34 50.00 56.01 C 47.08 59.42 43.85 62.56 40.99 66.03 C 41.01 75.02 40.99 84.01 41.00 93.00 C 44.33 93.00 47.67 93.00 51.00 93.00 C 51.00 85.35 51.01 77.70 51.00 70.05 C 53.99 67.04 57.00 64.05 60.00 61.04 C 60.01 50.69 60.00 40.35 60.00 30.00 C 56.67 30.00 53.33 30.00 50.00 30.00 M 70.00 30.00 C 69.99 40.35 70.00 50.69 70.00 61.03 C 72.98 64.06 76.00 67.05 79.00 70.06 C 79.00 77.71 79.00 85.35 79.00 93.00 C 82.34 93.00 85.68 93.01 89.02 93.02 C 89.00 84.00 88.99 74.99 89.02 65.97 C 86.15 62.51 82.90 59.39 79.99 55.97 C 80.01 47.31 80.00 38.66 80.00 30.00 C 76.67 30.00 73.33 30.00 70.00 30.00 Z" />
<path fill="#000000" opacity="1.00" d=" M 64.16 4.19 C 67.04 3.59 69.85 5.26 71.78 7.27 C 87.97 23.39 104.11 39.57 120.29 55.71 C 122.41 57.87 125.04 59.89 125.75 63.00 C 126.61 65.94 125.05 68.96 122.97 70.97 C 105.98 87.99 88.96 104.98 71.97 122.00 C 68.77 126.15 62.10 126.24 58.74 122.26 C 42.24 105.76 25.77 89.22 9.28 72.72 C 7.16 70.60 4.64 68.25 4.73 64.99 C 4.42 62.20 6.02 59.78 7.93 57.92 C 23.94 41.92 39.96 25.92 55.95 9.91 C 58.33 7.58 60.60 4.62 64.16 4.19 M 63.24 9.16 C 46.30 25.56 29.87 42.52 13.08 59.09 C 11.62 60.57 10.03 62.00 9.00 63.84 C 8.52 65.80 10.25 67.25 11.39 68.55 C 28.28 85.37 45.12 102.23 62.00 119.06 C 63.44 120.65 65.99 121.71 67.63 119.78 C 85.09 102.51 102.37 85.05 119.77 67.74 C 121.93 66.19 121.74 62.98 119.76 61.38 C 102.75 44.34 85.71 27.32 68.70 10.27 C 67.37 8.75 65.00 7.53 63.24 9.16 Z" />
<path fill="#000000" opacity="1.00" d=" M 50.00 30.00 C 53.33 30.00 56.67 30.00 60.00 30.00 C 60.00 40.35 60.01 50.69 60.00 61.04 C 57.00 64.05 53.99 67.04 51.00 70.05 C 51.01 77.70 51.00 85.35 51.00 93.00 C 47.67 93.00 44.33 93.00 41.00 93.00 C 40.99 84.01 41.01 75.02 40.99 66.03 C 43.85 62.56 47.08 59.42 50.00 56.01 C 50.00 47.34 50.00 38.67 50.00 30.00 Z" />
<path fill="#000000" opacity="1.00" d=" M 70.00 30.00 C 73.33 30.00 76.67 30.00 80.00 30.00 C 80.00 38.66 80.01 47.31 79.99 55.97 C 82.90 59.39 86.15 62.51 89.02 65.97 C 88.99 74.99 89.00 84.00 89.02 93.02 C 85.68 93.01 82.34 93.00 79.00 93.00 C 79.00 85.35 79.00 77.71 79.00 70.06 C 76.00 67.05 72.98 64.06 70.00 61.03 C 70.00 50.69 69.99 40.35 70.00 30.00 Z" />
</g>
<g id="normal">
<path fill="#FBD200" opacity="1.00" d=" M 58.78 4.72 C 61.97 1.07 68.18 0.93 71.44 4.57 C 88.99 22.04 106.47 39.58 123.98 57.09 C 125.21 58.33 126.42 59.61 127.42 61.06 C 128.52 64.53 127.96 68.50 125.18 71.04 C 107.33 88.94 89.46 106.82 71.53 124.64 C 68.40 128.09 62.45 128.32 59.27 124.81 C 40.84 106.50 22.53 88.05 4.10 69.73 C 1.41 66.35 2.06 61.11 5.25 58.27 C 23.08 40.40 40.94 22.57 58.78 4.72 M 64.16 4.19 C 60.60 4.62 58.33 7.58 55.95 9.91 C 39.96 25.92 23.94 41.92 7.93 57.92 C 6.02 59.78 4.42 62.20 4.73 64.99 C 4.64 68.25 7.16 70.60 9.28 72.72 C 25.77 89.22 42.24 105.76 58.74 122.26 C 62.10 126.24 68.77 126.15 71.97 122.00 C 88.96 104.98 105.98 87.99 122.97 70.97 C 125.05 68.96 126.61 65.94 125.75 63.00 C 125.04 59.89 122.41 57.87 120.29 55.71 C 104.11 39.57 87.97 23.39 71.78 7.27 C 69.85 5.26 67.04 3.59 64.16 4.19 Z" />
<path fill="#FBD200" opacity="1.00" d=" M 63.24 9.16 C 65.00 7.53 67.37 8.75 68.70 10.27 C 85.71 27.32 102.75 44.34 119.76 61.38 C 121.74 62.98 121.93 66.19 119.77 67.74 C 102.37 85.05 85.09 102.51 67.63 119.78 C 65.99 121.71 63.44 120.65 62.00 119.06 C 45.12 102.23 28.28 85.37 11.39 68.55 C 10.25 67.25 8.52 65.80 9.00 63.84 C 10.03 62.00 11.62 60.57 13.08 59.09 C 29.87 42.52 46.30 25.56 63.24 9.16 M 50.00 30.00 C 50.00 38.67 50.00 47.34 50.00 56.01 C 47.08 59.42 43.85 62.56 40.99 66.03 C 41.01 75.02 40.99 84.01 41.00 93.00 C 44.33 93.00 47.67 93.00 51.00 93.00 C 51.00 85.35 51.01 77.70 51.00 70.05 C 53.99 67.04 57.00 64.05 60.00 61.04 C 60.01 50.69 60.00 40.35 60.00 30.00 C 56.67 30.00 53.33 30.00 50.00 30.00 M 70.00 30.00 C 69.99 40.35 70.00 50.69 70.00 61.03 C 72.98 64.06 76.00 67.05 79.00 70.06 C 79.00 77.71 79.00 85.35 79.00 93.00 C 82.34 93.00 85.68 93.01 89.02 93.02 C 89.00 84.00 88.99 74.99 89.02 65.97 C 86.15 62.51 82.90 59.39 79.99 55.97 C 80.01 47.31 80.00 38.66 80.00 30.00 C 76.67 30.00 73.33 30.00 70.00 30.00 Z" />
<path fill="#000000" opacity="1.00" d=" M 64.16 4.19 C 67.04 3.59 69.85 5.26 71.78 7.27 C 87.97 23.39 104.11 39.57 120.29 55.71 C 122.41 57.87 125.04 59.89 125.75 63.00 C 126.61 65.94 125.05 68.96 122.97 70.97 C 105.98 87.99 88.96 104.98 71.97 122.00 C 68.77 126.15 62.10 126.24 58.74 122.26 C 42.24 105.76 25.77 89.22 9.28 72.72 C 7.16 70.60 4.64 68.25 4.73 64.99 C 4.42 62.20 6.02 59.78 7.93 57.92 C 23.94 41.92 39.96 25.92 55.95 9.91 C 58.33 7.58 60.60 4.62 64.16 4.19 M 63.24 9.16 C 46.30 25.56 29.87 42.52 13.08 59.09 C 11.62 60.57 10.03 62.00 9.00 63.84 C 8.52 65.80 10.25 67.25 11.39 68.55 C 28.28 85.37 45.12 102.23 62.00 119.06 C 63.44 120.65 65.99 121.71 67.63 119.78 C 85.09 102.51 102.37 85.05 119.77 67.74 C 121.93 66.19 121.74 62.98 119.76 61.38 C 102.75 44.34 85.71 27.32 68.70 10.27 C 67.37 8.75 65.00 7.53 63.24 9.16 Z" />
<path fill="#000000" opacity="1.00" d=" M 50.00 30.00 C 53.33 30.00 56.67 30.00 60.00 30.00 C 60.00 40.35 60.01 50.69 60.00 61.04 C 57.00 64.05 53.99 67.04 51.00 70.05 C 51.01 77.70 51.00 85.35 51.00 93.00 C 47.67 93.00 44.33 93.00 41.00 93.00 C 40.99 84.01 41.01 75.02 40.99 66.03 C 43.85 62.56 47.08 59.42 50.00 56.01 C 50.00 47.34 50.00 38.67 50.00 30.00 Z" />
<path fill="#000000" opacity="1.00" d=" M 70.00 30.00 C 73.33 30.00 76.67 30.00 80.00 30.00 C 80.00 38.66 80.01 47.31 79.99 55.97 C 82.90 59.39 86.15 62.51 89.02 65.97 C 88.99 74.99 89.00 84.00 89.02 93.02 C 85.68 93.01 82.34 93.00 79.00 93.00 C 79.00 85.35 79.00 77.71 79.00 70.06 C 76.00 67.05 72.98 64.06 70.00 61.03 C 70.00 50.69 69.99 40.35 70.00 30.00 Z" />
</g>
</svg>
