<?xml version="1.0" encoding="utf-8"?>
<!-- Generator: Adobe Illustrator 16.0.0, SVG Export Plug-In . SVG Version: 6.00 Build 0)  -->
<!DOCTYPE svg PUBLIC "-//W3C//DTD SVG 1.1//EN" "http://www.w3.org/Graphics/SVG/1.1/DTD/svg11.dtd">
<svg version="1.1" id="Layer_1" xmlns="http://www.w3.org/2000/svg" xmlns:xlink="http://www.w3.org/1999/xlink" x="0px" y="0px"
	 width="132px" height="132px" viewBox="0 0 132 132" enable-background="new 0 0 132 132" xml:space="preserve">
<g id="disabled">
	<g>
		<g>
			
				<linearGradient id="SVGID_3_" gradientUnits="userSpaceOnUse" x1="249.5928" y1="727.1699" x2="376.0664" y2="727.1699" gradientTransform="matrix(1 0 0 1 -246.3301 -660.6699)">
				<stop  offset="0" style="stop-color:#000000;stop-opacity:0.6"/>
				<stop  offset="1" style="stop-color:#000000;stop-opacity:0.6"/>
			</linearGradient>
			<path id="SVGID_1_" fill="url(#SVGID_3_)" d="M69.087,11.762c8.843,15.315,50.501,87.228,60.233,104.085
				c1.332,2.312-0.735,6.719-3.327,6.719c-19.009,0-100.207,0-118.516,0c-4.331,0-5.284-2.892-3.044-6.77
				C14.17,98.934,55.393,27.57,64.505,11.786C65.487,10.084,68.006,9.892,69.087,11.762L69.087,11.762z"/>
		</g>
		<g>
			<path id="SVGID_2_" fill="#FFFFFF" d="M68.087,10.762c8.843,15.315,50.501,87.228,60.233,104.085
				c1.332,2.312-0.735,6.719-3.327,6.719c-19.009,0-100.207,0-118.516,0c-4.331,0-5.284-2.892-3.044-6.77
				C13.17,97.934,54.393,26.57,63.505,10.786C64.487,9.084,67.006,8.892,68.087,10.762L68.087,10.762z"/>
		</g>
	</g>
	<g>
		<g>
			<path id="SVGID_6_" fill="#575757" d="M67.316,15.969c8.441,14.622,48.218,83.282,57.51,99.377
				c0.938,1.623-0.111,3.356-1.756,3.356c-18.148,0-97.715,0-115.196,0c-1.744,0-2.394-1.752-1.441-3.403
				c9.297-16.101,48.655-84.237,57.356-99.306C64.728,14.367,66.285,14.183,67.316,15.969L67.316,15.969z"/>
		</g>
	</g>
	<g>
		<g>
			<path id="SVGID_8_" fill="#FFFFFF" d="M66.813,36.986c5.957,10.321,34.03,58.78,40.59,70.14c0.66,1.147-0.079,2.369-1.238,2.369
				c-12.811,0-68.967,0-81.305,0c-1.232,0-1.689-1.237-1.016-2.402c6.561-11.366,34.34-59.454,40.479-70.09
				C64.985,35.855,66.085,35.726,66.813,36.986L66.813,36.986z"/>
		</g>
	</g>
	<g>
		<g>
			<path id="SVGID_10_" d="M98.146,108.594h-66v-2h15.77c0.087-0.56,0.237-1.47,0.428-2.419c0.308-1.544,0.205-2.573,0.412-3.909
				c0.205-1.339,1.029-2.16,1.441-3.395c0.41-1.234,0.102-3.6,0.205-5.246s-0.614-2.134-0.964-3.999
				c-0.42-2.228-0.386-3.737,0.026-6.911c0.173-1.341,0.606-1.628,0.906-2.146c0.289-0.502,0.706-1.608,0.695-2.359
				c-0.002-0.15-1.381,0.407-1.177-1.081c0.094-0.685,0.82-1.063,1.531-1.221c0.289-0.065,1.042-3.062,1.35-4.5
				c0.26-1.218,1.804-2.757,3.035-3.447c0.824-0.462,2.686-1.492,4.067-1.491c1.698,0,5.516,0.102,6.205,0.313
				c0.72,0.218,0.791,0.549,1.252,1.297c0.473,0.769,1.076,1.168,1.591,1.063c0.515-0.104,0.515-0.823,1.235-1.955
				c0.72-1.132,0.902-2.18,2.572-2.416c1.08-0.153,2.211-0.31,3.703-0.103c1.12,0.155,1.338,0.72,1.646,1.542
				c0.309,0.824,0.151,1.542-0.36,2.778c-0.515,1.233-1.184,1.026-2.418,1.851c-1.232,0.822-2.933,0.771-3.498,1.337
				c-0.648,0.651-0.308,1.134,0.207,1.646c0.516,0.515,1.236,1.593,1.236,2.827c0,1.233-0.104,2.16-1.236,3.188
				c-1.132,1.03-1.439,1.03-2.058,2.06c-0.617,1.026-1.234,2.879-2.06,4.422c-0.822,1.543-1.542,1.646-1.954,2.264
				c-0.41,0.617-0.308,2.366-0.308,2.366s8.333,7.714,8.848,8.434c0.516,0.72,0.205,0.412,0.41,1.853
				c0.053,0.365,0.092,0.584,0.153,0.724c0.296-0.082,0.731,0.003,1.597-0.104c1.646-0.205,0.206-0.104,0.924-1.541
				c0.721-1.441,1.236-1.643,5.453-1.744c4.217-0.103,5.967,4.211,7.612,5.345c1.239,0.851,3.757,3.446,4.929,4.683h2.592v1.996
				H98.146z M58.426,69.816c-1.132,0.205-1.544,0.824-1.544,0.824s-1.646,1.645-0.925,1.748s1.132,1.028,2.263,0.104
				c1.132-0.926,1.236-2.366,1.236-2.366S59.557,69.611,58.426,69.816L58.426,69.816z M59.146,90.596
				c-0.72-1.132-1.853-1.541-1.853-1.541s-1.029-0.207-1.029,0.307c0,0.516,0.309,0.619,0.515,1.955c0.205,1.338,0,2.365-0.72,3.602
				c-0.72,1.232-1.542,4.217-1.954,5.451c-0.412,1.232-0.925,1.954-1.029,3.087c-0.103,1.131-0.103,2.158-0.103,2.158l2.161-0.204
				c0,0-0.412-2.059,0.308-3.497c0.72-1.44,2.468-4.527,3.292-5.558c0.822-1.025,1.909-1.541,2.011-2.98
				C60.849,91.934,59.867,91.727,59.146,90.596L59.146,90.596z M64.392,81.234c-0.205-0.409,0-0.514-1.132-0.409
				c-1.131,0.102-2.21,1.714-1.234,1.702c0.966-0.012,1.641,0.479,2.155,0.068C64.694,82.184,64.598,81.646,64.392,81.234
				L64.392,81.234z M72.828,103.352c1.954-1.438,1.029-1.131,1.542-2.469c0.052-0.134,0.097-0.238,0.142-0.338
				c-0.304-0.262-0.938-0.898-1.171-1.822c-0.309-1.236-3.292-3.498-3.292-3.498s-1.851-1.646-2.777-1.953
				c-0.924-0.311-1.028,0.515-1.13,1.748c-0.103,1.235-2.058,4.526-3.19,6.069c-1.131,1.542-2.571,2.882-2.571,3.292
				c0,0.412,0.925,0.721,1.954,1.441c0.344,0.24,0.47,0.514,0.501,0.773h6.235C69.318,106.348,71.02,104.684,72.828,103.352
				L72.828,103.352z"/>
		</g>
	</g>
	
		<linearGradient id="SVGID_4_" gradientUnits="userSpaceOnUse" x1="337.8535" y1="806.2256" x2="265.1689" y2="702.4213" gradientTransform="matrix(1 0 0 1 -246.3301 -660.6699)">
		<stop  offset="0" style="stop-color:#000000;stop-opacity:0"/>
		<stop  offset="1" style="stop-color:#FFFFFF;stop-opacity:0.25"/>
	</linearGradient>
	<path fill="url(#SVGID_4_)" d="M68.087,10.762c8.843,15.315,50.501,87.228,60.233,104.085c1.332,2.312-0.735,6.719-3.327,6.719
		c-19.009,0-100.207,0-118.516,0c-4.331,0-5.284-2.892-3.044-6.77C13.17,97.934,54.393,26.57,63.505,10.786
		C64.487,9.084,67.006,8.892,68.087,10.762L68.087,10.762z"/>
</g>
<g id="normal">
	<g>
		<g>
			
				<linearGradient id="SVGID_5_" gradientUnits="userSpaceOnUse" x1="249.5928" y1="727.1699" x2="376.0664" y2="727.1699" gradientTransform="matrix(1 0 0 1 -246.3301 -660.6699)">
				<stop  offset="0" style="stop-color:#000000;stop-opacity:0.6"/>
				<stop  offset="1" style="stop-color:#000000;stop-opacity:0.6"/>
			</linearGradient>
			<path id="SVGID_13_" fill="url(#SVGID_5_)" d="M69.087,11.762c8.843,15.315,50.501,87.228,60.233,104.085
				c1.332,2.312-0.735,6.719-3.327,6.719c-19.009,0-100.207,0-118.516,0c-4.331,0-5.284-2.892-3.044-6.77
				C14.17,98.934,55.393,27.57,64.505,11.786C65.487,10.084,68.006,9.892,69.087,11.762L69.087,11.762z"/>
		</g>
		<g>
			<path id="SVGID_14_" fill="#FFFFFF" d="M68.087,10.762c8.843,15.315,50.501,87.228,60.233,104.085
				c1.332,2.312-0.735,6.719-3.327,6.719c-19.009,0-100.207,0-118.516,0c-4.331,0-5.284-2.892-3.044-6.77
				C13.17,97.934,54.393,26.57,63.505,10.786C64.487,9.084,67.006,8.892,68.087,10.762L68.087,10.762z"/>
		</g>
	</g>
	<g>
		<g>
			<path id="SVGID_18_" fill="#DA1E22" d="M67.316,15.969c8.441,14.622,48.218,83.282,57.51,99.377
				c0.938,1.623-0.111,3.356-1.756,3.356c-18.148,0-97.715,0-115.196,0c-1.744,0-2.394-1.752-1.441-3.403
				c9.297-16.101,48.655-84.237,57.356-99.306C64.728,14.367,66.285,14.183,67.316,15.969L67.316,15.969z"/>
		</g>
	</g>
	<g>
		<g>
			<path id="SVGID_20_" fill="#FFFFFF" d="M66.813,36.986c5.957,10.321,34.03,58.78,40.59,70.14c0.66,1.147-0.079,2.369-1.238,2.369
				c-12.811,0-68.967,0-81.305,0c-1.232,0-1.689-1.237-1.016-2.402c6.561-11.366,34.34-59.454,40.479-70.09
				C64.985,35.855,66.085,35.726,66.813,36.986L66.813,36.986z"/>
		</g>
	</g>
	<g>
		<g>
			<path id="SVGID_22_" d="M98.146,108.594h-66v-2h15.77c0.087-0.56,0.237-1.47,0.428-2.419c0.308-1.544,0.205-2.573,0.412-3.909
				c0.205-1.339,1.029-2.16,1.441-3.395c0.41-1.234,0.102-3.6,0.205-5.246s-0.614-2.134-0.964-3.999
				c-0.42-2.228-0.386-3.737,0.026-6.911c0.173-1.341,0.606-1.628,0.906-2.146c0.289-0.502,0.706-1.608,0.695-2.359
				c-0.002-0.15-1.381,0.407-1.177-1.081c0.094-0.685,0.82-1.063,1.531-1.221c0.289-0.065,1.042-3.062,1.35-4.5
				c0.26-1.218,1.804-2.757,3.035-3.447c0.824-0.462,2.686-1.492,4.067-1.491c1.698,0,5.516,0.102,6.205,0.313
				c0.72,0.218,0.791,0.549,1.252,1.297c0.473,0.769,1.076,1.168,1.591,1.063c0.515-0.104,0.515-0.823,1.235-1.955
				c0.72-1.132,0.902-2.18,2.572-2.416c1.08-0.153,2.211-0.31,3.703-0.103c1.12,0.155,1.338,0.72,1.646,1.542
				c0.309,0.824,0.151,1.542-0.36,2.778c-0.515,1.233-1.184,1.026-2.418,1.851c-1.232,0.822-2.933,0.771-3.498,1.337
				c-0.648,0.651-0.308,1.134,0.207,1.646c0.516,0.515,1.236,1.593,1.236,2.827c0,1.233-0.104,2.16-1.236,3.188
				c-1.132,1.03-1.439,1.03-2.058,2.06c-0.617,1.026-1.234,2.879-2.06,4.422c-0.822,1.543-1.542,1.646-1.954,2.264
				c-0.41,0.617-0.308,2.366-0.308,2.366s8.333,7.714,8.848,8.434c0.516,0.72,0.205,0.412,0.41,1.853
				c0.053,0.365,0.092,0.584,0.153,0.724c0.296-0.082,0.731,0.003,1.597-0.104c1.646-0.205,0.206-0.104,0.924-1.541
				c0.721-1.441,1.236-1.643,5.453-1.744c4.217-0.103,5.967,4.211,7.612,5.345c1.239,0.851,3.757,3.446,4.929,4.683h2.592v1.996
				H98.146z M58.426,69.816c-1.132,0.205-1.544,0.824-1.544,0.824s-1.646,1.645-0.925,1.748s1.132,1.028,2.263,0.104
				c1.132-0.926,1.236-2.366,1.236-2.366S59.557,69.611,58.426,69.816L58.426,69.816z M59.146,90.596
				c-0.72-1.132-1.853-1.541-1.853-1.541s-1.029-0.207-1.029,0.307c0,0.516,0.309,0.619,0.515,1.955c0.205,1.338,0,2.365-0.72,3.602
				c-0.72,1.232-1.542,4.217-1.954,5.451c-0.412,1.232-0.925,1.954-1.029,3.087c-0.103,1.131-0.103,2.158-0.103,2.158l2.161-0.204
				c0,0-0.412-2.059,0.308-3.497c0.72-1.44,2.468-4.527,3.292-5.558c0.822-1.025,1.909-1.541,2.011-2.98
				C60.849,91.934,59.867,91.727,59.146,90.596L59.146,90.596z M64.392,81.234c-0.205-0.409,0-0.514-1.132-0.409
				c-1.131,0.102-2.21,1.714-1.234,1.702c0.966-0.012,1.641,0.479,2.155,0.068C64.694,82.184,64.598,81.646,64.392,81.234
				L64.392,81.234z M72.828,103.352c1.954-1.438,1.029-1.131,1.542-2.469c0.052-0.134,0.097-0.238,0.142-0.338
				c-0.304-0.262-0.938-0.898-1.171-1.822c-0.309-1.236-3.292-3.498-3.292-3.498s-1.851-1.646-2.777-1.953
				c-0.924-0.311-1.028,0.515-1.13,1.748c-0.103,1.235-2.058,4.526-3.19,6.069c-1.131,1.542-2.571,2.882-2.571,3.292
				c0,0.412,0.925,0.721,1.954,1.441c0.344,0.24,0.47,0.514,0.501,0.773h6.235C69.318,106.348,71.02,104.684,72.828,103.352
				L72.828,103.352z"/>
		</g>
	</g>
	
		<linearGradient id="SVGID_7_" gradientUnits="userSpaceOnUse" x1="337.8535" y1="806.2256" x2="265.1689" y2="702.4213" gradientTransform="matrix(1 0 0 1 -246.3301 -660.6699)">
		<stop  offset="0" style="stop-color:#000000;stop-opacity:0"/>
		<stop  offset="1" style="stop-color:#FFFFFF;stop-opacity:0.25"/>
	</linearGradient>
	<path fill="url(#SVGID_7_)" d="M68.087,10.762c8.843,15.315,50.501,87.228,60.233,104.085c1.332,2.312-0.735,6.719-3.327,6.719
		c-19.009,0-100.207,0-118.516,0c-4.331,0-5.284-2.892-3.044-6.77C13.17,97.934,54.393,26.57,63.505,10.786
		C64.487,9.084,67.006,8.892,68.087,10.762L68.087,10.762z"/>
</g>
</svg>
