<?xml version="1.0" encoding="UTF-8" ?>
<!DOCTYPE svg PUBLIC "-//W3C//DTD SVG 1.1//EN" "http://www.w3.org/Graphics/SVG/1.1/DTD/svg11.dtd">
<svg width="173pt" height="173pt" viewBox="0 0 173 173" version="1.1" xmlns="http://www.w3.org/2000/svg">
<g id="disabled">
<path fill="#606060" opacity="1.00" d=" M 81.26 1.31 C 85.62 -0.35 90.68 1.01 94.08 4.07 C 117.94 28.13 141.98 52.02 165.87 76.05 C 168.86 78.81 170.84 82.97 169.83 87.07 C 169.21 91.01 166.12 93.79 163.47 96.49 C 140.46 119.50 117.52 142.58 94.32 165.39 C 90.34 169.88 82.93 170.94 78.33 166.78 C 53.56 142.56 29.14 117.97 4.68 93.44 C -0.14 89.15 -0.04 80.93 4.67 76.59 C 28.07 53.04 51.59 29.62 75.07 6.14 C 76.94 4.32 78.79 2.32 81.26 1.31 M 82.31 4.38 C 79.14 5.56 76.77 8.11 74.36 10.38 C 52.52 32.21 30.69 54.05 8.86 75.89 C 5.95 78.73 3.88 82.79 4.76 86.93 C 5.04 90.08 7.30 92.47 9.41 94.61 C 31.40 116.61 53.40 138.60 75.39 160.60 C 77.46 162.55 79.45 164.83 82.23 165.78 C 85.57 166.29 89.36 166.41 92.18 164.23 C 95.19 161.89 97.80 159.07 100.52 156.41 C 120.94 135.95 141.42 115.55 161.83 95.07 C 164.26 92.57 166.39 89.54 166.92 86.02 C 167.31 81.76 164.60 78.06 161.73 75.22 C 139.36 52.92 116.96 30.65 94.60 8.34 C 91.42 5.27 86.76 2.97 82.31 4.38 Z" />
<path fill="#606060" opacity="1.00" d=" M 79.14 13.09 C 81.10 11.26 82.90 8.37 85.97 8.68 C 88.47 8.74 89.88 11.07 91.54 12.59 C 114.60 35.81 137.81 58.89 160.88 82.10 C 163.21 84.25 161.74 87.75 159.73 89.55 C 135.57 113.18 111.90 137.33 87.84 161.07 C 86.33 161.10 84.82 161.12 83.31 161.12 C 59.20 136.74 34.82 112.62 10.59 88.36 C 7.92 86.07 9.35 82.51 11.61 80.54 C 34.12 58.05 56.66 35.60 79.14 13.09 M 99.45 35.84 C 99.16 37.87 98.91 39.90 98.67 41.93 C 96.80 41.68 94.91 41.44 93.13 40.81 C 78.17 38.99 62.31 44.61 52.27 55.94 C 55.59 57.78 58.42 60.33 61.33 62.73 C 62.88 63.96 64.29 65.62 66.39 65.80 C 72.84 57.09 84.99 54.03 95.06 57.58 C 93.79 59.54 92.48 61.52 91.92 63.82 C 92.98 63.67 95.09 63.37 96.15 63.22 C 100.07 61.86 104.19 61.17 108.16 60.00 C 111.72 58.94 115.83 58.87 118.60 56.07 C 112.72 48.89 106.23 42.16 99.45 35.84 M 44.22 69.26 C 41.56 73.77 40.53 79.04 39.12 84.04 C 38.72 85.03 38.40 86.06 38.16 87.11 C 37.18 90.34 36.25 93.57 35.35 96.82 C 37.44 96.30 39.43 95.43 41.31 94.38 C 41.88 95.92 42.42 97.47 42.90 99.04 C 48.04 113.52 61.43 124.27 76.24 127.64 C 76.43 125.79 76.59 123.92 77.15 122.13 C 77.42 118.32 78.42 114.62 78.68 110.81 C 68.07 109.43 57.61 100.87 57.18 89.68 C 59.52 89.71 61.86 89.66 64.19 89.52 C 59.41 84.40 54.43 79.48 49.53 74.47 C 47.79 72.71 46.33 70.61 44.22 69.26 M 111.33 76.79 C 111.56 80.57 113.02 84.20 112.79 88.02 C 112.94 95.32 109.36 102.31 103.89 107.02 C 102.87 105.29 101.92 103.51 101.04 101.71 C 100.67 101.54 99.93 101.20 99.56 101.02 C 97.73 107.96 95.84 114.88 93.82 121.76 C 93.18 123.67 93.26 125.69 93.39 127.67 C 102.38 127.44 110.84 123.66 119.68 122.25 C 119.67 121.90 119.64 121.20 119.63 120.85 C 118.20 119.85 116.74 118.89 115.23 118.01 C 127.90 106.44 131.16 87.48 127.01 71.35 C 121.56 72.48 116.69 75.36 111.33 76.79 Z" />
<path fill="#000000" opacity="1.00" d=" M 82.31 4.38 C 86.76 2.97 91.42 5.27 94.60 8.34 C 116.96 30.65 139.36 52.92 161.73 75.22 C 164.60 78.06 167.31 81.76 166.92 86.02 C 166.39 89.54 164.26 92.57 161.83 95.07 C 141.42 115.55 120.94 135.95 100.52 156.41 C 97.80 159.07 95.19 161.89 92.18 164.23 C 89.36 166.41 85.57 166.29 82.23 165.78 C 79.45 164.83 77.46 162.55 75.39 160.60 C 53.40 138.60 31.40 116.61 9.41 94.61 C 7.30 92.47 5.04 90.08 4.76 86.93 C 3.88 82.79 5.95 78.73 8.86 75.89 C 30.69 54.05 52.52 32.21 74.36 10.38 C 76.77 8.11 79.14 5.56 82.31 4.38 M 79.14 13.09 C 56.66 35.60 34.12 58.05 11.61 80.54 C 9.35 82.51 7.92 86.07 10.59 88.36 C 34.82 112.62 59.20 136.74 83.31 161.12 C 84.82 161.12 86.33 161.10 87.84 161.07 C 111.90 137.33 135.57 113.18 159.73 89.55 C 161.74 87.75 163.21 84.25 160.88 82.10 C 137.81 58.89 114.60 35.81 91.54 12.59 C 89.88 11.07 88.47 8.74 85.97 8.68 C 82.90 8.37 81.10 11.26 79.14 13.09 Z" />
<path fill="#000000" opacity="1.00" d=" M 99.45 35.84 C 106.23 42.16 112.72 48.89 118.60 56.07 C 115.83 58.87 111.72 58.94 108.16 60.00 C 104.19 61.17 100.07 61.86 96.15 63.22 C 95.09 63.37 92.98 63.67 91.92 63.82 C 92.48 61.52 93.79 59.54 95.06 57.58 C 84.99 54.03 72.84 57.09 66.39 65.80 C 64.29 65.62 62.88 63.96 61.33 62.73 C 58.42 60.33 55.59 57.78 52.27 55.94 C 62.31 44.61 78.17 38.99 93.13 40.81 C 94.91 41.44 96.80 41.68 98.67 41.93 C 98.91 39.90 99.16 37.87 99.45 35.84 Z" />
<path fill="#000000" opacity="1.00" d=" M 44.22 69.26 C 46.33 70.61 47.79 72.71 49.53 74.47 C 54.43 79.48 59.41 84.40 64.19 89.52 C 61.86 89.66 59.52 89.71 57.18 89.68 C 57.61 100.87 68.07 109.43 78.68 110.81 C 78.42 114.62 77.42 118.32 77.15 122.13 C 76.59 123.92 76.43 125.79 76.24 127.64 C 61.43 124.27 48.04 113.52 42.90 99.04 C 42.42 97.47 41.88 95.92 41.31 94.38 C 39.43 95.43 37.44 96.30 35.35 96.82 C 36.25 93.57 37.18 90.34 38.16 87.11 C 38.40 86.06 38.72 85.03 39.12 84.04 C 40.53 79.04 41.56 73.77 44.22 69.26 Z" />
<path fill="#000000" opacity="1.00" d=" M 111.33 76.79 C 116.69 75.36 121.56 72.48 127.01 71.35 C 131.16 87.48 127.90 106.44 115.23 118.01 C 116.74 118.89 118.20 119.85 119.63 120.85 C 119.64 121.20 119.67 121.90 119.68 122.25 C 110.84 123.66 102.38 127.44 93.39 127.67 C 93.26 125.69 93.18 123.67 93.82 121.76 C 95.84 114.88 97.73 107.96 99.56 101.02 C 99.93 101.20 100.67 101.54 101.04 101.71 C 101.92 103.51 102.87 105.29 103.89 107.02 C 109.36 102.31 112.94 95.32 112.79 88.02 C 113.02 84.20 111.56 80.57 111.33 76.79 Z" />
</g>
<g id="normal">
<path fill="#fbd200" opacity="1.00" d=" M 81.26 1.31 C 85.62 -0.35 90.68 1.01 94.08 4.07 C 117.94 28.13 141.98 52.02 165.87 76.05 C 168.86 78.81 170.84 82.97 169.83 87.07 C 169.21 91.01 166.12 93.79 163.47 96.49 C 140.46 119.50 117.52 142.58 94.32 165.39 C 90.34 169.88 82.93 170.94 78.33 166.78 C 53.56 142.56 29.14 117.97 4.68 93.44 C -0.14 89.15 -0.04 80.93 4.67 76.59 C 28.07 53.04 51.59 29.62 75.07 6.14 C 76.94 4.32 78.79 2.32 81.26 1.31 M 82.31 4.38 C 79.14 5.56 76.77 8.11 74.36 10.38 C 52.52 32.21 30.69 54.05 8.86 75.89 C 5.95 78.73 3.88 82.79 4.76 86.93 C 5.04 90.08 7.30 92.47 9.41 94.61 C 31.40 116.61 53.40 138.60 75.39 160.60 C 77.46 162.55 79.45 164.83 82.23 165.78 C 85.57 166.29 89.36 166.41 92.18 164.23 C 95.19 161.89 97.80 159.07 100.52 156.41 C 120.94 135.95 141.42 115.55 161.83 95.07 C 164.26 92.57 166.39 89.54 166.92 86.02 C 167.31 81.76 164.60 78.06 161.73 75.22 C 139.36 52.92 116.96 30.65 94.60 8.34 C 91.42 5.27 86.76 2.97 82.31 4.38 Z" />
<path fill="#fbd200" opacity="1.00" d=" M 79.14 13.09 C 81.10 11.26 82.90 8.37 85.97 8.68 C 88.47 8.74 89.88 11.07 91.54 12.59 C 114.60 35.81 137.81 58.89 160.88 82.10 C 163.21 84.25 161.74 87.75 159.73 89.55 C 135.57 113.18 111.90 137.33 87.84 161.07 C 86.33 161.10 84.82 161.12 83.31 161.12 C 59.20 136.74 34.82 112.62 10.59 88.36 C 7.92 86.07 9.35 82.51 11.61 80.54 C 34.12 58.05 56.66 35.60 79.14 13.09 M 99.45 35.84 C 99.16 37.87 98.91 39.90 98.67 41.93 C 96.80 41.68 94.91 41.44 93.13 40.81 C 78.17 38.99 62.31 44.61 52.27 55.94 C 55.59 57.78 58.42 60.33 61.33 62.73 C 62.88 63.96 64.29 65.62 66.39 65.80 C 72.84 57.09 84.99 54.03 95.06 57.58 C 93.79 59.54 92.48 61.52 91.92 63.82 C 92.98 63.67 95.09 63.37 96.15 63.22 C 100.07 61.86 104.19 61.17 108.16 60.00 C 111.72 58.94 115.83 58.87 118.60 56.07 C 112.72 48.89 106.23 42.16 99.45 35.84 M 44.22 69.26 C 41.56 73.77 40.53 79.04 39.12 84.04 C 38.72 85.03 38.40 86.06 38.16 87.11 C 37.18 90.34 36.25 93.57 35.35 96.82 C 37.44 96.30 39.43 95.43 41.31 94.38 C 41.88 95.92 42.42 97.47 42.90 99.04 C 48.04 113.52 61.43 124.27 76.24 127.64 C 76.43 125.79 76.59 123.92 77.15 122.13 C 77.42 118.32 78.42 114.62 78.68 110.81 C 68.07 109.43 57.61 100.87 57.18 89.68 C 59.52 89.71 61.86 89.66 64.19 89.52 C 59.41 84.40 54.43 79.48 49.53 74.47 C 47.79 72.71 46.33 70.61 44.22 69.26 M 111.33 76.79 C 111.56 80.57 113.02 84.20 112.79 88.02 C 112.94 95.32 109.36 102.31 103.89 107.02 C 102.87 105.29 101.92 103.51 101.04 101.71 C 100.67 101.54 99.93 101.20 99.56 101.02 C 97.73 107.96 95.84 114.88 93.82 121.76 C 93.18 123.67 93.26 125.69 93.39 127.67 C 102.38 127.44 110.84 123.66 119.68 122.25 C 119.67 121.90 119.64 121.20 119.63 120.85 C 118.20 119.85 116.74 118.89 115.23 118.01 C 127.90 106.44 131.16 87.48 127.01 71.35 C 121.56 72.48 116.69 75.36 111.33 76.79 Z" />
<path fill="#000000" opacity="1.00" d=" M 82.31 4.38 C 86.76 2.97 91.42 5.27 94.60 8.34 C 116.96 30.65 139.36 52.92 161.73 75.22 C 164.60 78.06 167.31 81.76 166.92 86.02 C 166.39 89.54 164.26 92.57 161.83 95.07 C 141.42 115.55 120.94 135.95 100.52 156.41 C 97.80 159.07 95.19 161.89 92.18 164.23 C 89.36 166.41 85.57 166.29 82.23 165.78 C 79.45 164.83 77.46 162.55 75.39 160.60 C 53.40 138.60 31.40 116.61 9.41 94.61 C 7.30 92.47 5.04 90.08 4.76 86.93 C 3.88 82.79 5.95 78.73 8.86 75.89 C 30.69 54.05 52.52 32.21 74.36 10.38 C 76.77 8.11 79.14 5.56 82.31 4.38 M 79.14 13.09 C 56.66 35.60 34.12 58.05 11.61 80.54 C 9.35 82.51 7.92 86.07 10.59 88.36 C 34.82 112.62 59.20 136.74 83.31 161.12 C 84.82 161.12 86.33 161.10 87.84 161.07 C 111.90 137.33 135.57 113.18 159.73 89.55 C 161.74 87.75 163.21 84.25 160.88 82.10 C 137.81 58.89 114.60 35.81 91.54 12.59 C 89.88 11.07 88.47 8.74 85.97 8.68 C 82.90 8.37 81.10 11.26 79.14 13.09 Z" />
<path fill="#000000" opacity="1.00" d=" M 99.45 35.84 C 106.23 42.16 112.72 48.89 118.60 56.07 C 115.83 58.87 111.72 58.94 108.16 60.00 C 104.19 61.17 100.07 61.86 96.15 63.22 C 95.09 63.37 92.98 63.67 91.92 63.82 C 92.48 61.52 93.79 59.54 95.06 57.58 C 84.99 54.03 72.84 57.09 66.39 65.80 C 64.29 65.62 62.88 63.96 61.33 62.73 C 58.42 60.33 55.59 57.78 52.27 55.94 C 62.31 44.61 78.17 38.99 93.13 40.81 C 94.91 41.44 96.80 41.68 98.67 41.93 C 98.91 39.90 99.16 37.87 99.45 35.84 Z" />
<path fill="#000000" opacity="1.00" d=" M 44.22 69.26 C 46.33 70.61 47.79 72.71 49.53 74.47 C 54.43 79.48 59.41 84.40 64.19 89.52 C 61.86 89.66 59.52 89.71 57.18 89.68 C 57.61 100.87 68.07 109.43 78.68 110.81 C 78.42 114.62 77.42 118.32 77.15 122.13 C 76.59 123.92 76.43 125.79 76.24 127.64 C 61.43 124.27 48.04 113.52 42.90 99.04 C 42.42 97.47 41.88 95.92 41.31 94.38 C 39.43 95.43 37.44 96.30 35.35 96.82 C 36.25 93.57 37.18 90.34 38.16 87.11 C 38.40 86.06 38.72 85.03 39.12 84.04 C 40.53 79.04 41.56 73.77 44.22 69.26 Z" />
<path fill="#000000" opacity="1.00" d=" M 111.33 76.79 C 116.69 75.36 121.56 72.48 127.01 71.35 C 131.16 87.48 127.90 106.44 115.23 118.01 C 116.74 118.89 118.20 119.85 119.63 120.85 C 119.64 121.20 119.67 121.90 119.68 122.25 C 110.84 123.66 102.38 127.44 93.39 127.67 C 93.26 125.69 93.18 123.67 93.82 121.76 C 95.84 114.88 97.73 107.96 99.56 101.02 C 99.93 101.20 100.67 101.54 101.04 101.71 C 101.92 103.51 102.87 105.29 103.89 107.02 C 109.36 102.31 112.94 95.32 112.79 88.02 C 113.02 84.20 111.56 80.57 111.33 76.79 Z" />
</g>
</svg>
