<?xml version="1.0" encoding="utf-8"?>
<!-- Generator: Adobe Illustrator 16.0.0, SVG Export Plug-In . SVG Version: 6.00 Build 0)  -->
<!DOCTYPE svg PUBLIC "-//W3C//DTD SVG 1.1//EN" "http://www.w3.org/Graphics/SVG/1.1/DTD/svg11.dtd">
<svg version="1.1" id="Layer_1" xmlns="http://www.w3.org/2000/svg" xmlns:xlink="http://www.w3.org/1999/xlink" x="0px" y="0px"
	 width="132px" height="132px" viewBox="0 0 132 132" enable-background="new 0 0 132 132" xml:space="preserve">
<g id="disabled">
	<g>
		<g>
			
				<linearGradient id="SVGID_3_" gradientUnits="userSpaceOnUse" x1="373.4531" y1="-809.0049" x2="498.5391" y2="-809.0049" gradientTransform="matrix(1 0 0 -1 -369.4951 -742.5049)">
				<stop  offset="0" style="stop-color:#000000;stop-opacity:0.6"/>
				<stop  offset="1" style="stop-color:#000000;stop-opacity:0.6"/>
			</linearGradient>
			<path id="SVGID_1_" fill="url(#SVGID_3_)" d="M70.84,127.243c-2.395,2.399-6.28,2.399-8.677,0L5.755,70.84
				c-2.397-2.396-2.397-6.285,0-8.682L62.163,5.753c2.397-2.395,6.28-2.395,8.677,0l56.407,56.405c2.396,2.397,2.396,6.285,0,8.682
				L70.84,127.243L70.84,127.243z"/>
		</g>
		<g>
			<path id="SVGID_2_" fill="#FFFFFF" d="M69.84,126.243c-2.395,2.399-6.28,2.399-8.677,0L4.755,69.84
				c-2.397-2.396-2.397-6.285,0-8.682L61.163,4.753c2.397-2.395,6.28-2.395,8.677,0l56.407,56.405c2.396,2.397,2.396,6.285,0,8.682
				L69.84,126.243L69.84,126.243z"/>
		</g>
	</g>
	<g>
		<g>
			<path id="SVGID_6_" fill="#D8D8D8" d="M41.05,75.834L30.745,65.532l34.713-34.713l10.304,10.306L41.05,75.834L41.05,75.834z
				 M46.259,81.044l-1.521-1.521L79.45,44.811l1.521,1.518L46.259,81.044L46.259,81.044z M51.466,86.253l-1.521-1.522l34.711-34.708
				l1.521,1.515L51.466,86.253L51.466,86.253z M65.457,100.24L55.152,89.939l34.711-34.713l10.305,10.305L65.457,100.24
				L65.457,100.24z"/>
		</g>
	</g>
	<g>
		<g>
			<path id="SVGID_8_" d="M125.117,68.787l-56.404,56.404c-1.799,1.799-4.711,1.799-6.509,0L5.796,68.787
				c-1.798-1.798-1.798-4.715,0-6.509l56.408-56.41c1.798-1.799,4.71-1.799,6.509,0l56.404,56.409
				C126.915,64.072,126.915,66.989,125.117,68.787L125.117,68.787z M38.991,98.725L50.594,87.12L49.077,85.6L37.471,97.205
				L38.991,98.725L38.991,98.725z M86.177,51.535l-1.521-1.515L49.945,84.73l1.521,1.521L86.177,51.535L86.177,51.535z
				 M55.152,89.939l10.305,10.301l34.711-34.71L89.863,55.226L55.152,89.939L55.152,89.939z M44.737,79.523l1.521,1.521
				L80.971,46.33l-1.521-1.518L44.737,79.523L44.737,79.523z M75.762,41.126L65.458,30.819L30.745,65.532L41.05,75.834
				L75.762,41.126L75.762,41.126z M33.783,93.518l11.605-11.604l-1.518-1.521L32.264,92L33.783,93.518L33.783,93.518z M67.083,7.496
				c-0.896-0.901-2.353-0.901-3.251,0L7.423,63.902c-0.898,0.901-0.898,2.358,0,3.255l21.154,21.151l11.606-11.604L29.011,65.531
				L65.457,29.08l11.172,11.177L88.236,28.65L67.083,7.496L67.083,7.496z M91.926,32.336L80.318,43.942l1.521,1.521l11.603-11.608
				L91.926,32.336L91.926,32.336z M97.133,37.543L85.525,49.151l1.519,1.52L98.65,39.065L97.133,37.543L97.133,37.543z
				 M123.491,63.904L102.337,42.75L90.734,54.359l11.172,11.174L65.458,101.98L54.285,90.803l-11.606,11.611l21.152,21.15
				c0.898,0.896,2.358,0.896,3.255,0l56.406-56.41C124.393,66.259,124.393,64.8,123.491,63.904L123.491,63.904z"/>
		</g>
	</g>
</g>
<g id="normal">
	<g>
		<g>
			
				<linearGradient id="SVGID_4_" gradientUnits="userSpaceOnUse" x1="373.4531" y1="-809.0049" x2="498.5391" y2="-809.0049" gradientTransform="matrix(1 0 0 -1 -369.4951 -742.5049)">
				<stop  offset="0" style="stop-color:#000000;stop-opacity:0.6"/>
				<stop  offset="1" style="stop-color:#000000;stop-opacity:0.6"/>
			</linearGradient>
			<path id="SVGID_10_" fill="url(#SVGID_4_)" d="M70.84,127.243c-2.395,2.399-6.28,2.399-8.677,0L5.755,70.84
				c-2.397-2.396-2.397-6.285,0-8.682L62.163,5.753c2.397-2.395,6.28-2.395,8.677,0l56.407,56.405c2.396,2.397,2.396,6.285,0,8.682
				L70.84,127.243L70.84,127.243z"/>
		</g>
		<g>
			<path id="SVGID_11_" fill="#FFFFFF" d="M69.84,126.243c-2.395,2.399-6.28,2.399-8.677,0L4.755,69.84
				c-2.397-2.396-2.397-6.285,0-8.682L61.163,4.753c2.397-2.395,6.28-2.395,8.677,0l56.407,56.405c2.396,2.397,2.396,6.285,0,8.682
				L69.84,126.243L69.84,126.243z"/>
		</g>
	</g>
	<g>
		<g>
			<path id="SVGID_15_" fill="#FDEC04" d="M41.05,75.834L30.745,65.532l34.713-34.713l10.304,10.306L41.05,75.834L41.05,75.834z
				 M46.259,81.044l-1.521-1.521L79.45,44.811l1.521,1.518L46.259,81.044L46.259,81.044z M51.466,86.253l-1.521-1.522l34.711-34.708
				l1.521,1.515L51.466,86.253L51.466,86.253z M65.457,100.24L55.152,89.939l34.711-34.713l10.305,10.305L65.457,100.24
				L65.457,100.24z"/>
		</g>
	</g>
	<g>
		<g>
			<path id="SVGID_17_" d="M125.117,68.787l-56.404,56.404c-1.799,1.799-4.711,1.799-6.509,0L5.796,68.787
				c-1.798-1.798-1.798-4.715,0-6.509l56.408-56.41c1.798-1.799,4.71-1.799,6.509,0l56.404,56.409
				C126.915,64.072,126.915,66.989,125.117,68.787L125.117,68.787z M38.991,98.725L50.594,87.12L49.077,85.6L37.471,97.205
				L38.991,98.725L38.991,98.725z M86.177,51.535l-1.521-1.515L49.945,84.73l1.521,1.521L86.177,51.535L86.177,51.535z
				 M55.152,89.939l10.305,10.301l34.711-34.71L89.863,55.226L55.152,89.939L55.152,89.939z M44.737,79.523l1.521,1.521
				L80.971,46.33l-1.521-1.518L44.737,79.523L44.737,79.523z M75.762,41.126L65.458,30.819L30.745,65.532L41.05,75.834
				L75.762,41.126L75.762,41.126z M33.783,93.518l11.605-11.604l-1.518-1.521L32.264,92L33.783,93.518L33.783,93.518z M67.083,7.496
				c-0.896-0.901-2.353-0.901-3.251,0L7.423,63.902c-0.898,0.901-0.898,2.358,0,3.255l21.154,21.151l11.606-11.604L29.011,65.531
				L65.457,29.08l11.172,11.177L88.236,28.65L67.083,7.496L67.083,7.496z M91.926,32.336L80.318,43.942l1.521,1.521l11.603-11.608
				L91.926,32.336L91.926,32.336z M97.133,37.543L85.525,49.151l1.519,1.52L98.65,39.065L97.133,37.543L97.133,37.543z
				 M123.491,63.904L102.337,42.75L90.734,54.359l11.172,11.174L65.458,101.98L54.285,90.803l-11.606,11.611l21.152,21.15
				c0.898,0.896,2.358,0.896,3.255,0l56.406-56.41C124.393,66.259,124.393,64.8,123.491,63.904L123.491,63.904z"/>
		</g>
	</g>
</g>
</svg>
