<?xml version="1.0" encoding="utf-8"?>
<!-- Generator: Adobe Illustrator 16.0.0, SVG Export Plug-In . SVG Version: 6.00 Build 0)  -->
<!DOCTYPE svg PUBLIC "-//W3C//DTD SVG 1.1//EN" "http://www.w3.org/Graphics/SVG/1.1/DTD/svg11.dtd">
<svg version="1.1" id="Layer_1" xmlns="http://www.w3.org/2000/svg" xmlns:xlink="http://www.w3.org/1999/xlink" x="0px" y="0px"
	 width="132px" height="132px" viewBox="0 0 132 132" enable-background="new 0 0 132 132" xml:space="preserve">
<g id="disabled">
	<g>
		<g>
			
				<linearGradient id="SVGID_3_" gradientUnits="userSpaceOnUse" x1="-710.0674" y1="727.1689" x2="-583.5923" y2="727.1689" gradientTransform="matrix(-1 0 0 1 -580.3301 -660.6699)">
				<stop  offset="0" style="stop-color:#000000;stop-opacity:0.6"/>
				<stop  offset="1" style="stop-color:#000000;stop-opacity:0.6"/>
			</linearGradient>
			<path id="SVGID_1_" fill="url(#SVGID_3_)" d="M63.913,11.761C55.071,27.076,13.412,98.989,3.679,115.846
				c-1.333,2.313,0.735,6.721,3.327,6.721c19.008,0,100.207,0,118.516,0c4.332,0,5.285-2.892,3.045-6.771
				C118.83,98.932,77.605,27.568,68.495,11.785C67.514,10.083,64.994,9.891,63.913,11.761L63.913,11.761z"/>
		</g>
		<g>
			<path id="SVGID_2_" fill="#FFFFFF" d="M62.913,10.761C54.071,26.076,12.412,97.989,2.679,114.846
				c-1.333,2.313,0.735,6.721,3.327,6.721c19.008,0,100.207,0,118.516,0c4.332,0,5.285-2.892,3.045-6.771
				C117.83,97.932,76.605,26.568,67.495,10.785C66.514,9.083,63.994,8.891,62.913,10.761L62.913,10.761z"/>
		</g>
	</g>
	<g>
		<g>
			<path id="SVGID_6_" fill="#575757" d="M63.683,15.968c-8.443,14.622-48.218,83.284-57.51,99.38
				c-0.937,1.621,0.111,3.355,1.756,3.355c18.148,0,97.715,0,115.196,0c1.744,0,2.395-1.752,1.441-3.403
				C115.27,99.197,75.911,31.062,67.21,15.992C66.272,14.366,64.715,14.182,63.683,15.968L63.683,15.968z"/>
		</g>
	</g>
	<g>
		<g>
			<path id="SVGID_8_" fill="#FFFFFF" d="M64.188,36.984c-5.958,10.321-34.031,58.782-40.59,70.141
				c-0.661,1.145,0.079,2.368,1.239,2.368c12.81,0,68.968,0,81.306,0c1.231,0,1.688-1.236,1.017-2.402
				c-6.562-11.364-34.341-59.454-40.479-70.09C66.015,35.854,64.915,35.725,64.188,36.984L64.188,36.984z"/>
		</g>
	</g>
	<g>
		<g>
			<path id="SVGID_10_" d="M66.979,81.902v3.688c0,0,0.063,0.688,1.486,0.688c1.488,0,1.488-0.688,1.488-0.688l-0.1-3.997h13v3.999
				c0,0,0.045,0.615,1.469,0.615c1.486,0,1.486-0.686,1.486-0.686l0.045-3.931h1l-0.049-5.086l-3.951-6.914h-13l-3.853,6.914V81.9
				h0.978V81.902z"/>
		</g>
	</g>
	<g>
		<g>
			<polygon id="SVGID_12_" fill="#FFFFFF" points="70.854,71.592 81.854,71.592 83.854,75.593 68.854,75.593 			"/>
		</g>
	</g>
	<g>
		<g>
			<path id="SVGID_14_" d="M51.092,92.861v4.615c0,0,0.078,0.854,1.861,0.854c1.859,0,1.859-0.854,1.859-0.854l0.042-4.885h16
				l0.073,4.797c0,0,0.078,0.856,1.859,0.856c1.86,0,2.069-0.652,2.069-0.652v-5.001h1v-7l-4.002-8h-18l-3.985,8.522v6.745h1.224
				V92.861z"/>
		</g>
	</g>
	<g>
		<g>
			<polygon id="SVGID_16_" fill="#FFFFFF" points="55.854,79.592 69.854,79.592 71.854,84.593 53.854,84.593 			"/>
		</g>
	</g>
	<g>
		<g>
			<path id="SVGID_18_" d="M35.853,102.592v5.002c0,0,0.045,0.998,2,0.998c2.042,0,2.001-0.998,2.001-0.998v-5.002h16.999v5.002
				c0,0,0.045,0.998,2,0.998c2.042,0,2.001-0.998,2.001-0.998v-5.002h2l0.037-6.924l-4.038-9.076H38.854l-5.001,9.001v6.998
				L35.853,102.592L35.853,102.592z"/>
		</g>
	</g>
	<g>
		<g>
			<polygon id="SVGID_20_" fill="#FFFFFF" points="40.854,88.592 56.854,88.592 57.853,94.592 38.854,94.592 			"/>
		</g>
	</g>
	
		<linearGradient id="SVGID_4_" gradientUnits="userSpaceOnUse" x1="-619.8057" y1="806.2256" x2="-692.4913" y2="702.4196" gradientTransform="matrix(-1 0 0 1 -580.3301 -660.6699)">
		<stop  offset="0" style="stop-color:#000000;stop-opacity:0"/>
		<stop  offset="1" style="stop-color:#FFFFFF;stop-opacity:0.25"/>
	</linearGradient>
	<path fill="url(#SVGID_4_)" d="M62.913,10.761C54.071,26.076,12.412,97.989,2.679,114.846c-1.333,2.313,0.735,6.721,3.327,6.721
		c19.008,0,100.207,0,118.516,0c4.332,0,5.285-2.892,3.045-6.771C117.83,97.932,76.605,26.568,67.495,10.785
		C66.514,9.083,63.994,8.891,62.913,10.761L62.913,10.761z"/>
</g>
<g id="normal">
	<g>
		<g>
			
				<linearGradient id="SVGID_5_" gradientUnits="userSpaceOnUse" x1="-710.0674" y1="727.1689" x2="-583.5923" y2="727.1689" gradientTransform="matrix(-1 0 0 1 -580.3301 -660.6699)">
				<stop  offset="0" style="stop-color:#000000;stop-opacity:0.6"/>
				<stop  offset="1" style="stop-color:#000000;stop-opacity:0.6"/>
			</linearGradient>
			<path id="SVGID_23_" fill="url(#SVGID_5_)" d="M63.913,11.761C55.071,27.076,13.412,98.989,3.679,115.846
				c-1.333,2.313,0.735,6.721,3.327,6.721c19.008,0,100.207,0,118.516,0c4.332,0,5.285-2.892,3.045-6.771
				C118.83,98.932,77.605,27.568,68.495,11.785C67.514,10.083,64.994,9.891,63.913,11.761L63.913,11.761z"/>
		</g>
		<g>
			<path id="SVGID_24_" fill="#FFFFFF" d="M62.913,10.761C54.071,26.076,12.412,97.989,2.679,114.846
				c-1.333,2.313,0.735,6.721,3.327,6.721c19.008,0,100.207,0,118.516,0c4.332,0,5.285-2.892,3.045-6.771
				C117.83,97.932,76.605,26.568,67.495,10.785C66.514,9.083,63.994,8.891,62.913,10.761L62.913,10.761z"/>
		</g>
	</g>
	<g>
		<g>
			<path id="SVGID_28_" fill="#DA1E22" d="M63.683,15.968c-8.443,14.622-48.218,83.284-57.51,99.38
				c-0.937,1.621,0.111,3.355,1.756,3.355c18.148,0,97.715,0,115.196,0c1.744,0,2.395-1.752,1.441-3.403
				C115.27,99.197,75.911,31.062,67.21,15.992C66.272,14.366,64.715,14.182,63.683,15.968L63.683,15.968z"/>
		</g>
	</g>
	<g>
		<g>
			<path id="SVGID_30_" fill="#FFFFFF" d="M64.188,36.984c-5.958,10.321-34.031,58.782-40.59,70.141
				c-0.661,1.145,0.079,2.368,1.239,2.368c12.81,0,68.968,0,81.306,0c1.231,0,1.688-1.236,1.017-2.402
				c-6.562-11.364-34.341-59.454-40.479-70.09C66.015,35.854,64.915,35.725,64.188,36.984L64.188,36.984z"/>
		</g>
	</g>
	<g>
		<g>
			<path id="SVGID_32_" d="M66.979,81.902v3.688c0,0,0.063,0.688,1.486,0.688c1.488,0,1.488-0.688,1.488-0.688l-0.1-3.997h13v3.999
				c0,0,0.045,0.615,1.469,0.615c1.486,0,1.486-0.686,1.486-0.686l0.045-3.931h1l-0.049-5.086l-3.951-6.914h-13l-3.853,6.914V81.9
				h0.978V81.902z"/>
		</g>
	</g>
	<g>
		<g>
			<polygon id="SVGID_34_" fill="#FFFFFF" points="70.854,71.592 81.854,71.592 83.854,75.593 68.854,75.593 			"/>
		</g>
	</g>
	<g>
		<g>
			<path id="SVGID_36_" d="M51.092,92.861v4.615c0,0,0.078,0.854,1.861,0.854c1.859,0,1.859-0.854,1.859-0.854l0.042-4.885h16
				l0.073,4.797c0,0,0.078,0.856,1.859,0.856c1.86,0,2.069-0.652,2.069-0.652v-5.001h1v-7l-4.002-8h-18l-3.985,8.522v6.745h1.224
				V92.861z"/>
		</g>
	</g>
	<g>
		<g>
			<polygon id="SVGID_38_" fill="#FFFFFF" points="55.854,79.592 69.854,79.592 71.854,84.593 53.854,84.593 			"/>
		</g>
	</g>
	<g>
		<g>
			<path id="SVGID_40_" d="M35.853,102.592v5.002c0,0,0.045,0.998,2,0.998c2.042,0,2.001-0.998,2.001-0.998v-5.002h16.999v5.002
				c0,0,0.045,0.998,2,0.998c2.042,0,2.001-0.998,2.001-0.998v-5.002h2l0.037-6.924l-4.038-9.076H38.854l-5.001,9.001v6.998
				L35.853,102.592L35.853,102.592z"/>
		</g>
	</g>
	<g>
		<g>
			<polygon id="SVGID_42_" fill="#FFFFFF" points="40.854,88.592 56.854,88.592 57.853,94.592 38.854,94.592 			"/>
		</g>
	</g>
	
		<linearGradient id="SVGID_7_" gradientUnits="userSpaceOnUse" x1="-619.8057" y1="806.2256" x2="-692.4913" y2="702.4196" gradientTransform="matrix(-1 0 0 1 -580.3301 -660.6699)">
		<stop  offset="0" style="stop-color:#000000;stop-opacity:0"/>
		<stop  offset="1" style="stop-color:#FFFFFF;stop-opacity:0.25"/>
	</linearGradient>
	<path fill="url(#SVGID_7_)" d="M62.913,10.761C54.071,26.076,12.412,97.989,2.679,114.846c-1.333,2.313,0.735,6.721,3.327,6.721
		c19.008,0,100.207,0,118.516,0c4.332,0,5.285-2.892,3.045-6.771C117.83,97.932,76.605,26.568,67.495,10.785
		C66.514,9.083,63.994,8.891,62.913,10.761L62.913,10.761z"/>
</g>
</svg>
