<?xml version="1.0" encoding="utf-8"?>
<!-- Generator: Adobe Illustrator 16.0.0, SVG Export Plug-In . SVG Version: 6.00 Build 0)  -->
<!DOCTYPE svg PUBLIC "-//W3C//DTD SVG 1.1//EN" "http://www.w3.org/Graphics/SVG/1.1/DTD/svg11.dtd">
<svg version="1.1" id="Layer_1" xmlns="http://www.w3.org/2000/svg" xmlns:xlink="http://www.w3.org/1999/xlink" x="0px" y="0px"
	 width="132px" height="132px" viewBox="0 0 132 132" enable-background="new 0 0 132 132" xml:space="preserve">
<g id="disabled">
	<g>
		<g>
			
				<linearGradient id="SVGID_3_" gradientUnits="userSpaceOnUse" x1="249.0391" y1="727.1699" x2="376.6211" y2="727.1699" gradientTransform="matrix(1 0 0 1 -246.3301 -660.6699)">
				<stop  offset="0" style="stop-color:#000000;stop-opacity:0.6"/>
				<stop  offset="1" style="stop-color:#000000;stop-opacity:0.6"/>
			</linearGradient>
			<path id="SVGID_1_" fill="url(#SVGID_3_)" d="M66.499,2.71c35.231,0,63.792,28.557,63.792,63.789
				c0,35.231-28.561,63.792-63.792,63.792c-35.23,0-63.79-28.561-63.79-63.792C2.709,31.268,31.27,2.71,66.499,2.71L66.499,2.71z"/>
		</g>
		<g>
			<path id="SVGID_2_" fill="#FFFFFF" d="M65.499,1.71c35.231,0,63.792,28.557,63.792,63.789c0,35.231-28.561,63.792-63.792,63.792
				c-35.23,0-63.79-28.561-63.79-63.792C1.709,30.268,30.27,1.71,65.499,1.71L65.499,1.71z"/>
		</g>
	</g>
	<g>
		<g>
			<path id="SVGID_6_" fill="#575757" d="M65.499,4.247c33.829,0,61.253,27.424,61.253,61.251s-27.424,61.253-61.253,61.253
				c-33.828,0-61.251-27.425-61.251-61.253S31.671,4.247,65.499,4.247L65.499,4.247z"/>
		</g>
	</g>
	<g>
		<g>
			<path id="SVGID_8_" fill="#FFFFFF" d="M65.502,18.456c25.984,0,47.049,21.063,47.049,47.048
				c0,25.985-21.064,47.049-47.049,47.049c-25.983,0-47.048-21.063-47.048-47.049C18.455,39.519,39.519,18.456,65.502,18.456
				L65.502,18.456z"/>
		</g>
	</g>
	<g>
		<g>
			<path id="SVGID_10_" d="M103.925,47.32l-0.142,0.102l0.003,0.003l-0.036,0.021L85.348,60.742v-6.903H63.425
				c-5.884,0-10.831,4.947-10.831,10.831v37.418l-6.769-6.076l-6.769,6.076V61.963c0-11.768,9.893-21.661,21.661-21.661h24.631
				v-6.913L103.925,47.32L103.925,47.32z"/>
		</g>
	</g>
	<g>
		<g>
			<polygon id="SVGID_12_" fill="#575757" points="101.658,28.66 94.564,23.002 32.637,100.534 39.731,106.193 			"/>
		</g>
	</g>
	
		<linearGradient id="SVGID_4_" gradientUnits="userSpaceOnUse" x1="348.4229" y1="778.4287" x2="275.2386" y2="673.9108" gradientTransform="matrix(1 0 0 1 -246.3301 -660.6699)">
		<stop  offset="0" style="stop-color:#000000;stop-opacity:0"/>
		<stop  offset="1" style="stop-color:#FFFFFF;stop-opacity:0.25"/>
	</linearGradient>
	<path fill="url(#SVGID_4_)" d="M65.499,1.71c35.231,0,63.792,28.557,63.792,63.789c0,35.231-28.561,63.792-63.792,63.792
		c-35.23,0-63.79-28.561-63.79-63.792C1.709,30.268,30.27,1.71,65.499,1.71L65.499,1.71z"/>
</g>
<g id="normal">
	<g>
		<g>
			
				<linearGradient id="SVGID_5_" gradientUnits="userSpaceOnUse" x1="249.0391" y1="727.1699" x2="376.6211" y2="727.1699" gradientTransform="matrix(1 0 0 1 -246.3301 -660.6699)">
				<stop  offset="0" style="stop-color:#000000;stop-opacity:0.6"/>
				<stop  offset="1" style="stop-color:#000000;stop-opacity:0.6"/>
			</linearGradient>
			<path id="SVGID_15_" fill="url(#SVGID_5_)" d="M66.499,2.71c35.231,0,63.792,28.557,63.792,63.789
				c0,35.231-28.561,63.792-63.792,63.792c-35.23,0-63.79-28.561-63.79-63.792C2.709,31.268,31.27,2.71,66.499,2.71L66.499,2.71z"/>
		</g>
		<g>
			<path id="SVGID_16_" fill="#FFFFFF" d="M65.499,1.71c35.231,0,63.792,28.557,63.792,63.789c0,35.231-28.561,63.792-63.792,63.792
				c-35.23,0-63.79-28.561-63.79-63.792C1.709,30.268,30.27,1.71,65.499,1.71L65.499,1.71z"/>
		</g>
	</g>
	<g>
		<g>
			<path id="SVGID_20_" fill="#DA1E22" d="M65.499,4.247c33.829,0,61.253,27.424,61.253,61.251s-27.424,61.253-61.253,61.253
				c-33.828,0-61.251-27.425-61.251-61.253S31.671,4.247,65.499,4.247L65.499,4.247z"/>
		</g>
	</g>
	<g>
		<g>
			<path id="SVGID_22_" fill="#FFFFFF" d="M65.502,18.456c25.984,0,47.049,21.063,47.049,47.048
				c0,25.985-21.064,47.049-47.049,47.049c-25.983,0-47.048-21.063-47.048-47.049C18.455,39.519,39.519,18.456,65.502,18.456
				L65.502,18.456z"/>
		</g>
	</g>
	<g>
		<g>
			<path id="SVGID_24_" d="M103.925,47.32l-0.142,0.102l0.003,0.003l-0.036,0.021L85.348,60.742v-6.903H63.425
				c-5.884,0-10.831,4.947-10.831,10.831v37.418l-6.769-6.076l-6.769,6.076V61.963c0-11.768,9.893-21.661,21.661-21.661h24.631
				v-6.913L103.925,47.32L103.925,47.32z"/>
		</g>
	</g>
	<g>
		<g>
			<polygon id="SVGID_26_" fill="#DA1E22" points="101.658,28.66 94.564,23.002 32.637,100.534 39.731,106.193 			"/>
		</g>
	</g>
	
		<linearGradient id="SVGID_7_" gradientUnits="userSpaceOnUse" x1="348.4229" y1="778.4287" x2="275.2386" y2="673.9108" gradientTransform="matrix(1 0 0 1 -246.3301 -660.6699)">
		<stop  offset="0" style="stop-color:#000000;stop-opacity:0"/>
		<stop  offset="1" style="stop-color:#FFFFFF;stop-opacity:0.25"/>
	</linearGradient>
	<path fill="url(#SVGID_7_)" d="M65.499,1.71c35.231,0,63.792,28.557,63.792,63.789c0,35.231-28.561,63.792-63.792,63.792
		c-35.23,0-63.79-28.561-63.79-63.792C1.709,30.268,30.27,1.71,65.499,1.71L65.499,1.71z"/>
</g>
</svg>
