<?xml version="1.0" encoding="UTF-8" ?>
<!DOCTYPE svg PUBLIC "-//W3C//DTD SVG 1.1//EN" "http://www.w3.org/Graphics/SVG/1.1/DTD/svg11.dtd">
<svg width="130pt" height="130pt" viewBox="0 0 130 130" version="1.1" xmlns="http://www.w3.org/2000/svg">
<g id="disabled">
<path fill="#606060" opacity="1.00" d=" M 57.98 2.92 C 61.12 -0.45 66.92 -0.56 70.13 2.77 C 88.22 20.72 106.17 38.81 124.23 56.80 C 125.37 57.90 126.43 59.12 127.09 60.58 C 128.22 64.08 127.24 68.03 124.46 70.47 C 106.48 88.43 88.58 106.47 70.51 124.34 C 67.52 127.66 62.23 128.05 58.78 125.24 C 42.12 108.88 25.71 92.26 9.15 75.79 C 6.85 73.39 4.31 71.21 2.23 68.61 C -0.26 65.30 0.43 60.26 3.41 57.48 C 21.59 39.28 39.77 21.08 57.98 2.92 M 62.27 3.29 C 59.38 4.01 57.45 6.41 55.42 8.39 C 39.07 24.75 22.72 41.09 6.35 57.43 C 2.97 60.36 2.46 66.15 5.75 69.34 C 22.70 86.36 39.69 103.34 56.67 120.33 C 58.28 121.83 59.73 123.84 62.06 124.21 C 65.13 125.13 68.45 123.98 70.59 121.67 C 86.80 105.50 102.97 89.30 119.17 73.12 C 121.15 71.07 123.51 69.19 124.52 66.43 C 125.88 63.41 124.45 59.90 122.25 57.69 C 104.90 40.37 87.58 23.02 70.18 5.74 C 68.16 3.77 65.05 2.66 62.27 3.29 Z" />
<path fill="#606060" opacity="1.00" d=" M 60.42 8.37 C 61.89 6.55 64.80 5.13 66.69 7.21 C 84.58 25.04 102.38 42.96 120.26 60.80 C 122.14 62.25 122.29 64.95 120.51 66.55 C 102.91 84.29 85.21 101.91 67.52 119.56 C 66.32 121.17 64.32 121.32 62.48 121.00 C 44.25 102.73 25.94 84.54 7.68 66.29 C 5.88 64.66 6.72 61.80 8.38 60.40 C 25.73 43.06 43.07 25.71 60.42 8.37 M 47.20 38.98 C 47.75 40.60 49.11 42.49 51.09 41.83 C 53.34 41.08 55.55 40.05 57.96 39.91 C 57.85 44.01 58.51 48.36 61.26 51.58 C 63.36 54.46 66.77 55.70 69.71 57.48 C 72.15 59.72 69.83 63.24 67.03 63.57 C 60.25 65.34 51.93 65.35 47.21 71.31 C 42.62 77.73 44.17 87.87 51.04 92.07 C 52.83 93.77 55.97 93.66 56.86 96.28 C 57.17 99.84 56.91 103.42 57.00 107.00 C 60.67 107.01 64.33 107.01 68.00 107.00 C 67.98 102.62 68.07 98.25 67.98 93.88 C 67.42 89.98 64.86 86.56 61.60 84.47 C 59.44 83.69 57.34 82.61 56.21 80.51 C 56.75 79.06 57.30 77.15 59.11 76.92 C 64.69 75.18 70.81 74.98 75.88 71.81 C 82.44 67.88 84.52 58.14 79.91 51.98 C 77.80 48.71 73.82 47.53 70.97 45.09 C 69.39 43.99 70.20 41.89 69.99 40.29 C 72.78 41.29 75.63 42.12 78.55 42.70 C 79.09 42.41 80.17 41.84 80.71 41.55 C 81.22 39.53 79.84 37.87 78.79 36.30 C 74.03 29.55 69.41 22.70 64.62 15.97 C 58.93 23.73 52.95 31.27 47.20 38.98 Z" />
<path fill="#000000" opacity="1.00" d=" M 62.27 3.29 C 65.05 2.66 68.16 3.77 70.18 5.74 C 87.58 23.02 104.90 40.37 122.25 57.69 C 124.45 59.90 125.88 63.41 124.52 66.43 C 123.51 69.19 121.15 71.07 119.17 73.12 C 102.97 89.30 86.80 105.50 70.59 121.67 C 68.45 123.98 65.13 125.13 62.06 124.21 C 59.73 123.84 58.28 121.83 56.67 120.33 C 39.69 103.34 22.70 86.36 5.75 69.34 C 2.46 66.15 2.97 60.36 6.35 57.43 C 22.72 41.09 39.07 24.75 55.42 8.39 C 57.45 6.41 59.38 4.01 62.27 3.29 M 60.42 8.37 C 43.07 25.71 25.73 43.06 8.38 60.40 C 6.72 61.80 5.88 64.66 7.68 66.29 C 25.94 84.54 44.25 102.73 62.48 121.00 C 64.32 121.32 66.32 121.17 67.52 119.56 C 85.21 101.91 102.91 84.29 120.51 66.55 C 122.29 64.95 122.14 62.25 120.26 60.80 C 102.38 42.96 84.58 25.04 66.69 7.21 C 64.80 5.13 61.89 6.55 60.42 8.37 Z" />
<path fill="#000000" opacity="1.00" d=" M 47.20 38.98 C 52.95 31.27 58.93 23.73 64.62 15.97 C 69.41 22.70 74.03 29.55 78.79 36.30 C 79.84 37.87 81.22 39.53 80.71 41.55 C 80.17 41.84 79.09 42.41 78.55 42.70 C 75.63 42.12 72.78 41.29 69.99 40.29 C 70.20 41.89 69.39 43.99 70.97 45.09 C 73.82 47.53 77.80 48.71 79.91 51.98 C 84.52 58.14 82.44 67.88 75.88 71.81 C 70.81 74.98 64.69 75.18 59.11 76.92 C 57.30 77.15 56.75 79.06 56.21 80.51 C 57.34 82.61 59.44 83.69 61.60 84.47 C 64.86 86.56 67.42 89.98 67.98 93.88 C 68.07 98.25 67.98 102.62 68.00 107.00 C 64.33 107.01 60.67 107.01 57.00 107.00 C 56.91 103.42 57.17 99.84 56.86 96.28 C 55.97 93.66 52.83 93.77 51.04 92.07 C 44.17 87.87 42.62 77.73 47.21 71.31 C 51.93 65.35 60.25 65.34 67.03 63.57 C 69.83 63.24 72.15 59.72 69.71 57.48 C 66.77 55.70 63.36 54.46 61.26 51.58 C 58.51 48.36 57.85 44.01 57.96 39.91 C 55.55 40.05 53.34 41.08 51.09 41.83 C 49.11 42.49 47.75 40.60 47.20 38.98 Z" />
</g>
<g id="normal">
<path fill="#FBD200" opacity="1.00" d=" M 57.98 2.92 C 61.12 -0.45 66.92 -0.56 70.13 2.77 C 88.22 20.72 106.17 38.81 124.23 56.80 C 125.37 57.90 126.43 59.12 127.09 60.58 C 128.22 64.08 127.24 68.03 124.46 70.47 C 106.48 88.43 88.58 106.47 70.51 124.34 C 67.52 127.66 62.23 128.05 58.78 125.24 C 42.12 108.88 25.71 92.26 9.15 75.79 C 6.85 73.39 4.31 71.21 2.23 68.61 C -0.26 65.30 0.43 60.26 3.41 57.48 C 21.59 39.28 39.77 21.08 57.98 2.92 M 62.27 3.29 C 59.38 4.01 57.45 6.41 55.42 8.39 C 39.07 24.75 22.72 41.09 6.35 57.43 C 2.97 60.36 2.46 66.15 5.75 69.34 C 22.70 86.36 39.69 103.34 56.67 120.33 C 58.28 121.83 59.73 123.84 62.06 124.21 C 65.13 125.13 68.45 123.98 70.59 121.67 C 86.80 105.50 102.97 89.30 119.17 73.12 C 121.15 71.07 123.51 69.19 124.52 66.43 C 125.88 63.41 124.45 59.90 122.25 57.69 C 104.90 40.37 87.58 23.02 70.18 5.74 C 68.16 3.77 65.05 2.66 62.27 3.29 Z" />
<path fill="#FBD200" opacity="1.00" d=" M 60.42 8.37 C 61.89 6.55 64.80 5.13 66.69 7.21 C 84.58 25.04 102.38 42.96 120.26 60.80 C 122.14 62.25 122.29 64.95 120.51 66.55 C 102.91 84.29 85.21 101.91 67.52 119.56 C 66.32 121.17 64.32 121.32 62.48 121.00 C 44.25 102.73 25.94 84.54 7.68 66.29 C 5.88 64.66 6.72 61.80 8.38 60.40 C 25.73 43.06 43.07 25.71 60.42 8.37 M 47.20 38.98 C 47.75 40.60 49.11 42.49 51.09 41.83 C 53.34 41.08 55.55 40.05 57.96 39.91 C 57.85 44.01 58.51 48.36 61.26 51.58 C 63.36 54.46 66.77 55.70 69.71 57.48 C 72.15 59.72 69.83 63.24 67.03 63.57 C 60.25 65.34 51.93 65.35 47.21 71.31 C 42.62 77.73 44.17 87.87 51.04 92.07 C 52.83 93.77 55.97 93.66 56.86 96.28 C 57.17 99.84 56.91 103.42 57.00 107.00 C 60.67 107.01 64.33 107.01 68.00 107.00 C 67.98 102.62 68.07 98.25 67.98 93.88 C 67.42 89.98 64.86 86.56 61.60 84.47 C 59.44 83.69 57.34 82.61 56.21 80.51 C 56.75 79.06 57.30 77.15 59.11 76.92 C 64.69 75.18 70.81 74.98 75.88 71.81 C 82.44 67.88 84.52 58.14 79.91 51.98 C 77.80 48.71 73.82 47.53 70.97 45.09 C 69.39 43.99 70.20 41.89 69.99 40.29 C 72.78 41.29 75.63 42.12 78.55 42.70 C 79.09 42.41 80.17 41.84 80.71 41.55 C 81.22 39.53 79.84 37.87 78.79 36.30 C 74.03 29.55 69.41 22.70 64.62 15.97 C 58.93 23.73 52.95 31.27 47.20 38.98 Z" />
<path fill="#000000" opacity="1.00" d=" M 62.27 3.29 C 65.05 2.66 68.16 3.77 70.18 5.74 C 87.58 23.02 104.90 40.37 122.25 57.69 C 124.45 59.90 125.88 63.41 124.52 66.43 C 123.51 69.19 121.15 71.07 119.17 73.12 C 102.97 89.30 86.80 105.50 70.59 121.67 C 68.45 123.98 65.13 125.13 62.06 124.21 C 59.73 123.84 58.28 121.83 56.67 120.33 C 39.69 103.34 22.70 86.36 5.75 69.34 C 2.46 66.15 2.97 60.36 6.35 57.43 C 22.72 41.09 39.07 24.75 55.42 8.39 C 57.45 6.41 59.38 4.01 62.27 3.29 M 60.42 8.37 C 43.07 25.71 25.73 43.06 8.38 60.40 C 6.72 61.80 5.88 64.66 7.68 66.29 C 25.94 84.54 44.25 102.73 62.48 121.00 C 64.32 121.32 66.32 121.17 67.52 119.56 C 85.21 101.91 102.91 84.29 120.51 66.55 C 122.29 64.95 122.14 62.25 120.26 60.80 C 102.38 42.96 84.58 25.04 66.69 7.21 C 64.80 5.13 61.89 6.55 60.42 8.37 Z" />
<path fill="#000000" opacity="1.00" d=" M 47.20 38.98 C 52.95 31.27 58.93 23.73 64.62 15.97 C 69.41 22.70 74.03 29.55 78.79 36.30 C 79.84 37.87 81.22 39.53 80.71 41.55 C 80.17 41.84 79.09 42.41 78.55 42.70 C 75.63 42.12 72.78 41.29 69.99 40.29 C 70.20 41.89 69.39 43.99 70.97 45.09 C 73.82 47.53 77.80 48.71 79.91 51.98 C 84.52 58.14 82.44 67.88 75.88 71.81 C 70.81 74.98 64.69 75.18 59.11 76.92 C 57.30 77.15 56.75 79.06 56.21 80.51 C 57.34 82.61 59.44 83.69 61.60 84.47 C 64.86 86.56 67.42 89.98 67.98 93.88 C 68.07 98.25 67.98 102.62 68.00 107.00 C 64.33 107.01 60.67 107.01 57.00 107.00 C 56.91 103.42 57.17 99.84 56.86 96.28 C 55.97 93.66 52.83 93.77 51.04 92.07 C 44.17 87.87 42.62 77.73 47.21 71.31 C 51.93 65.35 60.25 65.34 67.03 63.57 C 69.83 63.24 72.15 59.72 69.71 57.48 C 66.77 55.70 63.36 54.46 61.26 51.58 C 58.51 48.36 57.85 44.01 57.96 39.91 C 55.55 40.05 53.34 41.08 51.09 41.83 C 49.11 42.49 47.75 40.60 47.20 38.98 Z" />
</g>
</svg>
