<?xml version="1.0" encoding="UTF-8" ?>
<!DOCTYPE svg PUBLIC "-//W3C//DTD SVG 1.1//EN" "http://www.w3.org/Graphics/SVG/1.1/DTD/svg11.dtd">
<svg width="248pt" height="248pt" viewBox="0 0 248 248" version="1.1" xmlns="http://www.w3.org/2000/svg">
<g id="disabled">
<path fill="#707070" opacity="1.00" d=" M 115.16 2.14 C 139.93 0.55 165.31 6.31 186.47 19.43 C 211.08 34.09 230.04 57.87 239.11 85.02 C 247.98 111.80 247.42 141.69 237.01 167.96 C 227.16 193.41 208.40 215.27 184.78 228.94 C 165.28 240.32 142.54 246.13 119.97 245.28 C 92.30 244.72 65.01 234.04 44.13 215.90 C 24.85 199.36 10.92 176.62 5.12 151.88 C -0.11 129.90 0.97 106.51 8.06 85.06 C 16.07 61.25 31.55 39.90 52.00 25.25 C 70.26 11.66 92.50 3.79 115.16 2.14 M 104.08 10.05 C 87.49 12.65 71.76 19.51 57.97 29.01 C 31.26 47.48 12.63 77.67 9.17 110.07 C 7.84 118.98 8.42 128.07 8.77 137.04 C 9.43 139.62 9.60 142.28 10.15 144.88 C 10.40 146.56 10.63 148.24 10.94 149.90 C 11.35 151.22 11.72 152.55 12.12 153.87 C 16.93 172.84 27.13 190.31 40.57 204.46 C 53.63 218.03 70.05 228.24 87.85 234.32 C 89.90 234.90 91.96 235.47 94.03 236.00 C 95.62 236.42 97.23 236.80 98.81 237.28 C 102.21 237.89 105.60 238.48 109.04 238.87 C 118.62 240.26 128.38 239.77 138.02 239.22 C 140.33 238.61 142.72 238.40 145.09 238.18 C 147.00 237.69 148.93 237.31 150.84 236.81 C 176.74 230.88 200.23 215.36 216.29 194.23 C 224.79 183.14 230.99 170.44 235.31 157.18 C 235.48 156.11 235.66 155.04 235.84 153.97 C 236.21 152.92 236.56 151.87 236.90 150.81 C 237.87 146.58 238.28 142.25 239.19 138.02 C 240.02 126.64 239.99 115.16 238.22 103.88 C 237.75 101.95 237.41 100.00 236.98 98.07 C 236.61 96.74 236.28 95.40 235.89 94.08 C 235.60 92.76 235.34 91.43 235.05 90.11 C 234.65 89.12 234.26 88.12 233.87 87.13 C 230.95 77.80 226.27 69.16 221.18 60.86 C 213.31 49.01 203.41 38.51 191.86 30.17 C 179.24 21.22 164.98 14.44 149.83 11.13 C 147.61 10.57 145.33 10.28 143.10 9.78 C 130.20 7.92 116.94 7.74 104.08 10.05 Z" />
<path fill="#707070" opacity="1.00" d=" M 74.85 27.72 C 94.78 17.66 117.84 13.55 139.94 17.10 C 150.80 18.53 161.30 22.07 171.20 26.67 C 174.48 28.29 177.70 30.03 180.80 31.97 C 153.09 60.05 125.55 88.30 97.91 116.45 C 85.27 115.13 72.51 115.20 59.82 115.87 C 55.79 116.38 50.61 116.05 48.16 120.01 C 45.54 125.72 43.58 131.71 41.20 137.52 C 43.37 137.17 45.53 136.75 47.71 136.41 C 49.17 132.57 50.34 128.61 51.97 124.83 C 52.90 122.39 55.70 121.49 58.09 121.43 C 69.74 120.53 81.46 120.48 93.10 121.46 C 88.90 125.47 84.98 129.75 80.91 133.88 C 78.24 137.16 73.54 135.27 69.92 135.84 C 60.50 136.54 51.09 137.70 41.88 139.88 C 40.41 140.28 38.93 140.60 37.46 140.95 C 37.10 142.35 36.76 143.75 36.43 145.17 C 41.56 145.19 46.68 145.09 51.80 145.23 C 51.79 146.23 51.76 147.24 51.74 148.25 C 46.71 148.32 41.68 148.26 36.65 148.30 C 36.66 149.05 36.67 150.54 36.68 151.29 C 41.68 151.31 46.69 151.30 51.69 151.30 L 51.79 153.41 C 46.69 153.47 41.58 153.38 36.48 153.49 C 36.73 154.30 37.23 155.91 37.48 156.71 C 44.54 156.85 51.61 156.43 58.65 156.97 C 51.07 158.95 43.03 156.81 35.33 158.26 C 35.36 159.93 35.41 161.59 35.48 163.26 C 41.13 163.51 46.81 163.01 52.44 163.64 C 48.11 165.48 43.29 164.33 38.73 164.63 C 38.99 168.15 37.70 172.25 40.36 175.14 C 37.88 177.62 35.41 180.11 32.99 182.65 C 18.80 160.45 12.78 133.00 17.23 106.97 C 18.59 97.20 21.89 87.83 25.71 78.78 C 25.97 78.29 26.50 77.31 26.76 76.82 C 27.41 75.49 28.06 74.16 28.69 72.82 C 38.82 54.29 54.28 38.89 72.77 28.72 C 73.29 28.47 74.33 27.97 74.85 27.72 Z" />
<path fill="#707070" opacity="1.00" d=" M 139.21 82.54 C 154.58 66.63 170.17 50.92 185.67 35.13 C 187.57 36.56 189.47 37.99 191.38 39.40 C 176.39 53.09 162.87 68.28 148.45 82.56 L 148.18 82.56 C 145.19 82.59 142.20 82.60 139.21 82.54 Z" />
<path fill="#707070" opacity="1.00" d=" M 156.44 82.57 C 169.76 69.60 181.80 55.32 195.93 43.21 C 197.27 44.47 198.61 45.72 199.94 46.99 C 188.31 58.85 176.77 70.79 165.10 82.61 L 164.55 82.60 C 161.84 82.59 159.14 82.57 156.44 82.57 Z" />
<path fill="#707070" opacity="1.00" d=" M 174.14 81.91 C 183.81 71.39 194.01 61.38 203.90 51.07 C 205.16 52.56 206.44 54.05 207.71 55.54 C 199.40 64.77 190.57 73.50 181.97 82.45 C 179.22 82.55 176.46 82.60 173.72 82.65 L 174.14 81.91 Z" />
<path fill="#707070" opacity="1.00" d=" M 189.78 82.43 C 197.17 75.20 204.27 67.68 211.30 60.10 C 212.94 62.34 214.75 64.51 215.81 67.09 C 210.64 72.71 205.05 77.92 199.82 83.49 C 199.75 83.48 199.60 83.45 199.53 83.44 C 196.32 82.76 193.05 82.53 189.78 82.43 Z" />
<path fill="#707070" opacity="1.00" d=" M 203.55 87.54 C 208.74 82.41 213.91 77.27 219.05 72.09 C 228.78 90.35 233.73 111.31 232.05 132.00 C 230.44 153.88 222.00 175.21 208.17 192.23 C 198.75 203.60 187.26 213.33 174.11 220.10 C 154.28 230.38 131.25 234.64 109.11 231.32 C 98.58 229.97 88.37 226.71 78.70 222.40 C 77.46 221.65 75.80 221.32 75.02 219.99 C 94.34 199.67 114.16 179.82 133.55 159.56 C 133.70 163.82 133.67 168.09 133.61 172.35 C 134.31 173.03 135.00 173.71 135.69 174.40 C 137.80 174.39 139.92 174.40 142.03 174.41 C 142.40 173.95 143.14 173.02 143.51 172.56 C 143.43 166.02 143.50 159.47 143.39 152.93 C 143.05 152.43 142.38 151.43 142.04 150.92 C 142.27 150.70 142.74 150.26 142.97 150.04 C 162.46 149.76 181.95 150.00 201.44 149.92 C 201.48 130.11 201.37 110.29 201.48 90.48 C 201.70 89.26 202.82 88.46 203.55 87.54 M 181.09 151.51 C 180.78 153.89 180.64 156.29 180.52 158.70 L 179.74 156.67 C 179.78 157.88 179.81 159.09 179.84 160.30 C 177.85 160.31 175.86 160.32 173.88 160.32 C 172.89 159.40 171.90 158.48 170.94 157.55 C 168.70 157.33 166.45 157.30 164.22 157.58 C 161.81 160.61 158.09 160.57 154.59 160.32 C 154.41 157.62 154.34 154.91 154.23 152.21 C 151.17 152.20 148.11 152.21 145.04 152.31 C 144.98 159.17 145.03 166.04 145.01 172.91 C 145.41 173.30 146.20 174.06 146.60 174.44 C 149.13 174.42 151.67 174.41 154.20 174.37 C 154.34 171.40 154.38 168.43 154.51 165.47 C 156.73 165.45 158.95 165.45 161.17 165.49 C 164.19 169.86 170.80 169.86 173.80 165.48 C 176.02 165.45 178.25 165.46 180.48 165.51 C 180.56 167.82 180.60 170.12 180.59 172.43 C 180.87 172.93 181.43 173.93 181.71 174.42 C 184.35 174.42 186.99 174.41 189.63 174.36 C 190.08 166.79 190.00 159.18 189.68 151.60 C 186.82 151.55 183.96 151.53 181.09 151.51 M 192.33 151.63 C 191.49 152.54 191.61 153.84 191.55 154.98 C 191.52 160.88 191.59 166.78 191.52 172.68 C 192.22 173.25 192.93 173.82 193.64 174.39 C 195.60 174.40 197.57 174.42 199.53 174.46 C 200.14 173.84 200.75 173.21 201.36 172.59 C 200.87 165.54 202.22 158.30 200.43 151.38 C 197.73 151.44 195.01 151.26 192.33 151.63 Z" />
<path fill="#707070" opacity="1.00" d=" M 134.60 87.20 C 134.34 90.27 134.45 93.35 134.50 96.43 L 134.50 96.75 C 125.37 107.09 115.20 116.46 105.91 126.66 C 104.99 124.16 104.01 121.69 103.13 119.18 C 113.61 108.51 124.09 97.84 134.60 87.20 Z" />
<path fill="#707070" opacity="1.00" d=" M 108.31 132.27 C 116.99 123.21 125.67 114.15 134.59 105.31 C 134.39 108.03 134.45 110.76 134.50 113.48 L 134.51 113.86 C 127.72 121.56 120.19 128.57 113.12 136.02 C 111.79 137.27 110.65 138.82 108.99 139.65 C 106.63 139.50 104.38 138.73 102.10 138.17 C 103.02 137.62 103.95 137.06 104.88 136.51 C 106.61 136.84 108.34 137.18 110.08 137.51 C 109.49 135.76 108.87 134.02 108.31 132.27 Z" />
<path fill="#707070" opacity="1.00" d=" M 116.55 140.55 C 122.55 134.55 128.40 128.41 134.48 122.48 C 134.48 125.17 134.52 127.87 134.46 130.56 C 134.15 131.70 133.14 132.54 132.42 133.45 C 126.51 139.54 120.52 145.54 114.66 151.69 C 111.96 154.87 107.25 152.99 103.65 153.28 C 106.55 150.51 110.64 151.37 114.27 151.27 C 114.27 150.54 114.28 149.08 114.28 148.35 C 112.43 148.32 110.58 148.28 108.72 148.22 C 110.34 146.88 112.01 145.59 113.86 144.57 C 114.50 143.07 115.36 141.68 116.55 140.55 Z" />
<path fill="#707070" opacity="1.00" d=" M 86.29 136.27 C 90.71 132.23 94.62 127.69 99.04 123.66 C 99.94 126.09 100.83 128.53 101.64 131.00 C 99.73 132.94 98.02 135.09 95.87 136.76 C 92.67 136.92 89.48 136.40 86.29 136.27 Z" />
<path fill="#707070" opacity="1.00" d=" M 134.45 139.49 L 134.45 139.77 C 134.42 143.23 134.44 146.70 134.52 150.16 L 134.53 150.53 C 127.04 158.13 119.32 165.69 112.35 173.68 C 112.62 170.74 112.94 167.79 112.85 164.83 C 111.97 164.64 110.20 164.26 109.32 164.07 C 111.38 163.60 113.47 163.29 115.57 163.06 C 116.06 160.88 115.74 158.22 117.68 156.68 C 123.20 150.88 128.89 145.24 134.45 139.49 Z" />
<path fill="#707070" opacity="1.00" d=" M 64.43 145.21 C 66.16 144.09 68.48 144.84 70.44 144.55 C 68.32 146.61 66.23 148.71 64.22 150.89 C 64.27 148.99 64.21 147.09 64.43 145.21 Z" />
<path fill="#707070" opacity="1.00" d=" M 70.08 152.81 C 72.88 150.30 75.27 147.34 78.15 144.91 C 81.33 144.24 84.63 144.67 87.85 144.81 C 85.61 147.55 83.27 150.25 80.57 152.56 C 77.12 153.17 73.57 152.70 70.08 152.81 Z" />
<path fill="#707070" opacity="1.00" d=" M 98.55 145.18 C 100.52 145.18 102.49 145.22 104.47 145.32 C 102.79 146.80 100.92 148.07 98.75 148.68 C 98.67 147.51 98.60 146.35 98.55 145.18 Z" />
<path fill="#707070" opacity="1.00" d=" M 64.52 157.39 C 68.71 156.34 73.08 156.67 77.35 156.92 C 73.24 158.37 68.76 157.81 64.52 157.39 Z" />
<path fill="#707070" opacity="1.00" d=" M 85.85 156.68 C 88.39 156.70 90.93 156.70 93.47 156.93 C 90.11 158.17 86.46 157.64 82.97 158.18 C 83.93 157.68 84.89 157.18 85.85 156.68 Z" />
<path fill="#707070" opacity="1.00" d=" M 99.05 157.87 C 102.61 156.23 106.60 156.62 110.39 156.93 C 106.75 158.25 102.83 157.72 99.05 157.87 Z" />
<path fill="#707070" opacity="1.00" d=" M 52.89 172.95 C 53.53 168.82 56.89 165.87 60.07 163.52 C 63.66 163.06 67.29 163.36 70.89 163.50 C 70.41 163.81 69.44 164.41 68.96 164.71 C 59.83 174.53 50.11 183.78 41.08 193.70 C 39.48 191.62 37.91 189.51 36.39 187.36 C 40.12 183.71 43.58 179.79 47.38 176.22 C 48.87 174.54 52.38 175.51 52.89 172.95 Z" />
<path fill="#707070" opacity="1.00" d=" M 77.98 163.87 C 80.65 162.71 83.84 163.58 86.71 163.35 C 73.85 175.92 61.52 189.02 48.92 201.85 C 47.73 200.74 46.55 199.62 45.36 198.51 C 45.42 198.16 45.54 197.46 45.59 197.11 C 56.45 186.09 66.93 174.69 77.98 163.87 Z" />
<path fill="#707070" opacity="1.00" d=" M 92.42 165.40 C 95.22 161.81 100.32 163.55 104.19 163.73 C 102.38 164.24 100.53 164.60 98.67 164.91 C 98.56 166.95 98.16 169.06 96.46 170.41 C 83.58 183.48 70.86 196.71 58.04 209.83 C 56.35 208.51 54.69 207.17 53.04 205.82 C 66.26 192.44 79.19 178.77 92.42 165.40 Z" />
<path fill="#707070" opacity="1.00" d=" M 62.73 213.42 C 74.99 200.58 87.29 187.78 99.81 175.20 C 103.41 175.13 106.99 174.78 110.59 174.81 C 104.86 181.35 98.53 187.35 92.50 193.62 C 84.61 201.45 77.18 209.73 69.24 217.52 C 67.07 216.15 64.88 214.81 62.73 213.42 Z" />
<path fill="#000000" opacity="1.00" d=" M 104.08 10.05 C 116.94 7.74 130.20 7.92 143.10 9.78 C 145.33 10.28 147.61 10.57 149.83 11.13 C 164.98 14.44 179.24 21.22 191.86 30.17 C 203.41 38.51 213.31 49.01 221.18 60.86 C 226.27 69.16 230.95 77.80 233.87 87.13 C 234.26 88.12 234.65 89.12 235.05 90.11 C 235.34 91.43 235.60 92.76 235.89 94.08 C 236.28 95.40 236.61 96.74 236.98 98.07 C 237.41 100.00 237.75 101.95 238.22 103.88 C 239.99 115.16 240.02 126.64 239.19 138.02 C 238.28 142.25 237.87 146.58 236.90 150.81 C 236.56 151.87 236.21 152.92 235.84 153.97 C 235.66 155.04 235.48 156.11 235.31 157.18 C 230.99 170.44 224.79 183.14 216.29 194.23 C 200.23 215.36 176.74 230.88 150.84 236.81 C 148.93 237.31 147.00 237.69 145.09 238.18 C 142.72 238.40 140.33 238.61 138.02 239.22 C 128.38 239.77 118.62 240.26 109.04 238.87 C 105.60 238.48 102.21 237.89 98.81 237.28 C 97.23 236.80 95.62 236.42 94.03 236.00 C 91.96 235.47 89.90 234.90 87.85 234.32 C 70.05 228.24 53.63 218.03 40.57 204.46 C 27.13 190.31 16.93 172.84 12.12 153.87 C 11.72 152.55 11.35 151.22 10.94 149.90 C 10.63 148.24 10.40 146.56 10.15 144.88 C 9.60 142.28 9.43 139.62 8.77 137.04 C 8.42 128.07 7.84 118.98 9.17 110.07 C 12.63 77.67 31.26 47.48 57.97 29.01 C 71.76 19.51 87.49 12.65 104.08 10.05 M 74.85 27.72 C 74.33 27.97 73.29 28.47 72.77 28.72 C 54.28 38.89 38.82 54.29 28.69 72.82 C 28.06 74.16 27.41 75.49 26.76 76.82 C 26.50 77.31 25.97 78.29 25.71 78.78 C 21.89 87.83 18.59 97.20 17.23 106.97 C 12.78 133.00 18.80 160.45 32.99 182.65 C 35.41 180.11 37.88 177.62 40.36 175.14 C 37.70 172.25 38.99 168.15 38.73 164.63 C 43.29 164.33 48.11 165.48 52.44 163.64 C 46.81 163.01 41.13 163.51 35.48 163.26 C 35.41 161.59 35.36 159.93 35.33 158.26 C 43.03 156.81 51.07 158.95 58.65 156.97 C 51.61 156.43 44.54 156.85 37.48 156.71 C 37.23 155.91 36.73 154.30 36.48 153.49 C 41.58 153.38 46.69 153.47 51.79 153.41 L 51.69 151.30 C 46.69 151.30 41.68 151.31 36.68 151.29 C 36.67 150.54 36.66 149.05 36.65 148.30 C 41.68 148.26 46.71 148.32 51.74 148.25 C 51.76 147.24 51.79 146.23 51.80 145.23 C 46.68 145.09 41.56 145.19 36.43 145.17 C 36.76 143.75 37.10 142.35 37.46 140.95 C 38.93 140.60 40.41 140.28 41.88 139.88 C 51.09 137.70 60.50 136.54 69.92 135.84 C 73.54 135.27 78.24 137.16 80.91 133.88 C 84.98 129.75 88.90 125.47 93.10 121.46 C 81.46 120.48 69.74 120.53 58.09 121.43 C 55.70 121.49 52.90 122.39 51.97 124.83 C 50.34 128.61 49.17 132.57 47.71 136.41 C 45.53 136.75 43.37 137.17 41.20 137.52 C 43.58 131.71 45.54 125.72 48.16 120.01 C 50.61 116.05 55.79 116.38 59.82 115.87 C 72.51 115.20 85.27 115.13 97.91 116.45 C 125.55 88.30 153.09 60.05 180.80 31.97 C 177.70 30.03 174.48 28.29 171.20 26.67 C 161.30 22.07 150.80 18.53 139.94 17.10 C 117.84 13.55 94.78 17.66 74.85 27.72 M 139.21 82.54 L 138.54 82.53 C 137.15 84.01 135.62 85.41 134.60 87.20 C 124.09 97.84 113.61 108.51 103.13 119.18 C 104.01 121.69 104.99 124.16 105.91 126.66 C 115.20 116.46 125.37 107.09 134.50 96.75 L 134.50 96.43 C 139.48 92.25 143.79 87.35 148.18 82.56 L 148.45 82.56 C 162.87 68.28 176.39 53.09 191.38 39.40 C 189.47 37.99 187.57 36.56 185.67 35.13 C 170.17 50.92 154.58 66.63 139.21 82.54 M 156.44 82.57 C 149.10 90.10 141.81 97.70 134.59 105.31 C 125.67 114.15 116.99 123.21 108.31 132.27 C 108.87 134.02 109.49 135.76 110.08 137.51 C 108.34 137.18 106.61 136.84 104.88 136.51 C 103.95 137.06 103.02 137.62 102.10 138.17 C 104.38 138.73 106.63 139.50 108.99 139.65 C 110.65 138.82 111.79 137.27 113.12 136.02 C 120.19 128.57 127.72 121.56 134.51 113.86 L 134.50 113.48 C 137.83 110.84 140.75 107.77 143.61 104.65 C 150.54 97.25 158.23 90.55 164.55 82.60 L 165.10 82.61 C 176.77 70.79 188.31 58.85 199.94 46.99 C 198.61 45.72 197.27 44.47 195.93 43.21 C 181.80 55.32 169.76 69.60 156.44 82.57 M 174.14 81.91 L 174.58 80.66 C 171.54 83.91 168.81 87.44 165.55 90.48 C 155.03 100.86 145.21 111.93 134.47 122.08 L 134.48 122.48 C 128.40 128.41 122.55 134.55 116.55 140.55 C 115.36 141.68 114.50 143.07 113.86 144.57 C 112.01 145.59 110.34 146.88 108.72 148.22 C 110.58 148.28 112.43 148.32 114.28 148.35 C 114.28 149.08 114.27 150.54 114.27 151.27 C 110.64 151.37 106.55 150.51 103.65 153.28 C 107.25 152.99 111.96 154.87 114.66 151.69 C 120.52 145.54 126.51 139.54 132.42 133.45 C 133.14 132.54 134.15 131.70 134.46 130.56 C 135.98 129.36 137.52 128.20 138.92 126.87 C 153.06 111.87 167.70 97.34 181.97 82.45 C 190.57 73.50 199.40 64.77 207.71 55.54 C 206.44 54.05 205.16 52.56 203.90 51.07 C 194.01 61.38 183.81 71.39 174.14 81.91 M 189.78 82.43 C 182.85 90.24 175.35 97.53 168.07 105.02 C 158.06 115.03 148.48 125.48 138.44 135.46 C 137.19 136.92 135.08 137.95 134.45 139.77 L 134.45 139.49 C 128.89 145.24 123.20 150.88 117.68 156.68 C 115.74 158.22 116.06 160.88 115.57 163.06 C 113.47 163.29 111.38 163.60 109.32 164.07 C 110.20 164.26 111.97 164.64 112.85 164.83 C 112.94 167.79 112.62 170.74 112.35 173.68 C 119.32 165.69 127.04 158.13 134.53 150.53 L 134.52 150.16 C 140.35 144.75 145.64 138.80 151.24 133.16 C 167.25 116.51 183.57 100.15 199.53 83.44 C 199.60 83.45 199.75 83.48 199.82 83.49 C 205.05 77.92 210.64 72.71 215.81 67.09 C 214.75 64.51 212.94 62.34 211.30 60.10 C 204.27 67.68 197.17 75.20 189.78 82.43 M 203.55 87.54 C 202.82 88.46 201.70 89.26 201.48 90.48 C 200.20 91.55 198.91 92.62 197.67 93.74 C 179.47 112.53 161.08 131.15 142.97 150.04 C 142.74 150.26 142.27 150.70 142.04 150.92 L 141.78 150.52 C 139.44 153.75 136.70 156.66 133.53 159.08 C 133.54 159.20 133.54 159.44 133.55 159.56 C 114.16 179.82 94.34 199.67 75.02 219.99 C 75.80 221.32 77.46 221.65 78.70 222.40 C 88.37 226.71 98.58 229.97 109.11 231.32 C 131.25 234.64 154.28 230.38 174.11 220.10 C 187.26 213.33 198.75 203.60 208.17 192.23 C 222.00 175.21 230.44 153.88 232.05 132.00 C 233.73 111.31 228.78 90.35 219.05 72.09 C 213.91 77.27 208.74 82.41 203.55 87.54 M 86.29 136.27 C 89.48 136.40 92.67 136.92 95.87 136.76 C 98.02 135.09 99.73 132.94 101.64 131.00 C 100.83 128.53 99.94 126.09 99.04 123.66 C 94.62 127.69 90.71 132.23 86.29 136.27 M 64.43 145.21 C 64.21 147.09 64.27 148.99 64.22 150.89 C 66.23 148.71 68.32 146.61 70.44 144.55 C 68.48 144.84 66.16 144.09 64.43 145.21 M 70.08 152.81 C 73.57 152.70 77.12 153.17 80.57 152.56 C 83.27 150.25 85.61 147.55 87.85 144.81 C 84.63 144.67 81.33 144.24 78.15 144.91 C 75.27 147.34 72.88 150.30 70.08 152.81 M 98.55 145.18 C 98.60 146.35 98.67 147.51 98.75 148.68 C 100.92 148.07 102.79 146.80 104.47 145.32 C 102.49 145.22 100.52 145.18 98.55 145.18 M 64.52 157.39 C 68.76 157.81 73.24 158.37 77.35 156.92 C 73.08 156.67 68.71 156.34 64.52 157.39 M 85.85 156.68 C 84.89 157.18 83.93 157.68 82.97 158.18 C 86.46 157.64 90.11 158.17 93.47 156.93 C 90.93 156.70 88.39 156.70 85.85 156.68 M 99.05 157.87 C 102.83 157.72 106.75 158.25 110.39 156.93 C 106.60 156.62 102.61 156.23 99.05 157.87 M 52.89 172.95 C 52.38 175.51 48.87 174.54 47.38 176.22 C 43.58 179.79 40.12 183.71 36.39 187.36 C 37.91 189.51 39.48 191.62 41.08 193.70 C 50.11 183.78 59.83 174.53 68.96 164.71 C 69.44 164.41 70.41 163.81 70.89 163.50 C 67.29 163.36 63.66 163.06 60.07 163.52 C 56.89 165.87 53.53 168.82 52.89 172.95 M 77.98 163.87 C 66.93 174.69 56.45 186.09 45.59 197.11 C 45.54 197.46 45.42 198.16 45.36 198.51 C 46.55 199.62 47.73 200.74 48.92 201.85 C 61.52 189.02 73.85 175.92 86.71 163.35 C 83.84 163.58 80.65 162.71 77.98 163.87 M 92.42 165.40 C 79.19 178.77 66.26 192.44 53.04 205.82 C 54.69 207.17 56.35 208.51 58.04 209.83 C 70.86 196.71 83.58 183.48 96.46 170.41 C 98.16 169.06 98.56 166.95 98.67 164.91 C 100.53 164.60 102.38 164.24 104.19 163.73 C 100.32 163.55 95.22 161.81 92.42 165.40 M 62.73 213.42 C 64.88 214.81 67.07 216.15 69.24 217.52 C 77.18 209.73 84.61 201.45 92.50 193.62 C 98.53 187.35 104.86 181.35 110.59 174.81 C 106.99 174.78 103.41 175.13 99.81 175.20 C 87.29 187.78 74.99 200.58 62.73 213.42 Z" />
<path fill="#3c3c3c" opacity="1.00" d=" M 165.55 90.48 C 168.81 87.44 171.54 83.91 174.58 80.66 L 174.14 81.91 L 173.72 82.65 C 176.46 82.60 179.22 82.55 181.97 82.45 C 167.70 97.34 153.06 111.87 138.92 126.87 C 137.52 128.20 135.98 129.36 134.46 130.56 C 134.52 127.87 134.48 125.17 134.48 122.48 L 134.47 122.08 C 145.21 111.93 155.03 100.86 165.55 90.48 Z" />
<path fill="#3c3c3c" opacity="1.00" d=" M 138.54 82.53 L 139.21 82.54 C 142.20 82.60 145.19 82.59 148.18 82.56 C 143.79 87.35 139.48 92.25 134.50 96.43 C 134.45 93.35 134.34 90.27 134.60 87.20 C 135.62 85.41 137.15 84.01 138.54 82.53 Z" />
<path fill="#3c3c3c" opacity="1.00" d=" M 134.59 105.31 C 141.81 97.70 149.10 90.10 156.44 82.57 C 159.14 82.57 161.84 82.59 164.55 82.60 C 158.23 90.55 150.54 97.25 143.61 104.65 C 140.75 107.77 137.83 110.84 134.50 113.48 C 134.45 110.76 134.39 108.03 134.59 105.31 Z" />
<path fill="#3c3c3c" opacity="1.00" d=" M 168.07 105.02 C 175.35 97.53 182.85 90.24 189.78 82.43 C 193.05 82.53 196.32 82.76 199.53 83.44 C 183.57 100.15 167.25 116.51 151.24 133.16 C 145.64 138.80 140.35 144.75 134.52 150.16 C 134.44 146.70 134.42 143.23 134.45 139.77 C 135.08 137.95 137.19 136.92 138.44 135.46 C 148.48 125.48 158.06 115.03 168.07 105.02 Z" />
<path fill="#3c3c3c" opacity="1.00" d=" M 197.67 93.74 C 198.91 92.62 200.20 91.55 201.48 90.48 C 201.37 110.29 201.48 130.11 201.44 149.92 C 181.95 150.00 162.46 149.76 142.97 150.04 C 161.08 131.15 179.47 112.53 197.67 93.74 Z" />
<path fill="#3c3c3c" opacity="1.00" d=" M 141.78 150.52 L 142.04 150.92 C 142.38 151.43 143.05 152.43 143.39 152.93 C 143.50 159.47 143.43 166.02 143.51 172.56 C 143.14 173.02 142.40 173.95 142.03 174.41 C 139.92 174.40 137.80 174.39 135.69 174.40 C 135.00 173.71 134.31 173.03 133.61 172.35 C 133.67 168.09 133.70 163.82 133.55 159.56 C 133.54 159.44 133.54 159.20 133.53 159.08 C 136.70 156.66 139.44 153.75 141.78 150.52 Z" />
<path fill="#3c3c3c" opacity="1.00" d=" M 181.09 151.51 C 183.96 151.53 186.82 151.55 189.68 151.60 C 190.00 159.18 190.08 166.79 189.63 174.36 C 186.99 174.41 184.35 174.42 181.71 174.42 C 181.43 173.93 180.87 172.93 180.59 172.43 C 180.60 170.12 180.56 167.82 180.48 165.51 C 178.25 165.46 176.02 165.45 173.80 165.48 C 170.80 169.86 164.19 169.86 161.17 165.49 C 158.95 165.45 156.73 165.45 154.51 165.47 C 154.38 168.43 154.34 171.40 154.20 174.37 C 151.67 174.41 149.13 174.42 146.60 174.44 C 146.20 174.06 145.41 173.30 145.01 172.91 C 145.03 166.04 144.98 159.17 145.04 152.31 C 148.11 152.21 151.17 152.20 154.23 152.21 C 154.34 154.91 154.41 157.62 154.59 160.32 C 158.09 160.57 161.81 160.61 164.22 157.58 C 166.45 157.30 168.70 157.33 170.94 157.55 C 171.90 158.48 172.89 159.40 173.88 160.32 C 175.86 160.32 177.85 160.31 179.84 160.30 C 179.81 159.09 179.78 157.88 179.74 156.67 L 180.52 158.70 C 180.64 156.29 180.78 153.89 181.09 151.51 Z" />
<path fill="#3c3c3c" opacity="1.00" d=" M 192.33 151.63 C 195.01 151.26 197.73 151.44 200.43 151.38 C 202.22 158.30 200.87 165.54 201.36 172.59 C 200.75 173.21 200.14 173.84 199.53 174.46 C 197.57 174.42 195.60 174.40 193.64 174.39 C 192.93 173.82 192.22 173.25 191.52 172.68 C 191.59 166.78 191.52 160.88 191.55 154.98 C 191.61 153.84 191.49 152.54 192.33 151.63 Z" />
</g>
<g id="normal">
<path fill="#ffffff" opacity="1.00" d=" M 115.16 2.14 C 139.93 0.55 165.31 6.31 186.47 19.43 C 211.08 34.09 230.04 57.87 239.11 85.02 C 247.98 111.80 247.42 141.69 237.01 167.96 C 227.16 193.41 208.40 215.27 184.78 228.94 C 165.28 240.32 142.54 246.13 119.97 245.28 C 92.30 244.72 65.01 234.04 44.13 215.90 C 24.85 199.36 10.92 176.62 5.12 151.88 C -0.11 129.90 0.97 106.51 8.06 85.06 C 16.07 61.25 31.55 39.90 52.00 25.25 C 70.26 11.66 92.50 3.79 115.16 2.14 M 104.08 10.05 C 87.49 12.65 71.76 19.51 57.97 29.01 C 31.26 47.48 12.63 77.67 9.17 110.07 C 7.84 118.98 8.42 128.07 8.77 137.04 C 9.43 139.62 9.60 142.28 10.15 144.88 C 10.40 146.56 10.63 148.24 10.94 149.90 C 11.35 151.22 11.72 152.55 12.12 153.87 C 16.93 172.84 27.13 190.31 40.57 204.46 C 53.63 218.03 70.05 228.24 87.85 234.32 C 89.90 234.90 91.96 235.47 94.03 236.00 C 95.62 236.42 97.23 236.80 98.81 237.28 C 102.21 237.89 105.60 238.48 109.04 238.87 C 118.62 240.26 128.38 239.77 138.02 239.22 C 140.33 238.61 142.72 238.40 145.09 238.18 C 147.00 237.69 148.93 237.31 150.84 236.81 C 176.74 230.88 200.23 215.36 216.29 194.23 C 224.79 183.14 230.99 170.44 235.31 157.18 C 235.48 156.11 235.66 155.04 235.84 153.97 C 236.21 152.92 236.56 151.87 236.90 150.81 C 237.87 146.58 238.28 142.25 239.19 138.02 C 240.02 126.64 239.99 115.16 238.22 103.88 C 237.75 101.95 237.41 100.00 236.98 98.07 C 236.61 96.74 236.28 95.40 235.89 94.08 C 235.60 92.76 235.34 91.43 235.05 90.11 C 234.65 89.12 234.26 88.12 233.87 87.13 C 230.95 77.80 226.27 69.16 221.18 60.86 C 213.31 49.01 203.41 38.51 191.86 30.17 C 179.24 21.22 164.98 14.44 149.83 11.13 C 147.61 10.57 145.33 10.28 143.10 9.78 C 130.20 7.92 116.94 7.74 104.08 10.05 Z" />
<path fill="#ffffff" opacity="1.00" d=" M 74.85 27.72 C 94.78 17.66 117.84 13.55 139.94 17.10 C 150.80 18.53 161.30 22.07 171.20 26.67 C 174.48 28.29 177.70 30.03 180.80 31.97 C 153.09 60.05 125.55 88.30 97.91 116.45 C 85.27 115.13 72.51 115.20 59.82 115.87 C 55.79 116.38 50.61 116.05 48.16 120.01 C 45.54 125.72 43.58 131.71 41.20 137.52 C 43.37 137.17 45.53 136.75 47.71 136.41 C 49.17 132.57 50.34 128.61 51.97 124.83 C 52.90 122.39 55.70 121.49 58.09 121.43 C 69.74 120.53 81.46 120.48 93.10 121.46 C 88.90 125.47 84.98 129.75 80.91 133.88 C 78.24 137.16 73.54 135.27 69.92 135.84 C 60.50 136.54 51.09 137.70 41.88 139.88 C 40.41 140.28 38.93 140.60 37.46 140.95 C 37.10 142.35 36.76 143.75 36.43 145.17 C 41.56 145.19 46.68 145.09 51.80 145.23 C 51.79 146.23 51.76 147.24 51.74 148.25 C 46.71 148.32 41.68 148.26 36.65 148.30 C 36.66 149.05 36.67 150.54 36.68 151.29 C 41.68 151.31 46.69 151.30 51.69 151.30 L 51.79 153.41 C 46.69 153.47 41.58 153.38 36.48 153.49 C 36.73 154.30 37.23 155.91 37.48 156.71 C 44.54 156.85 51.61 156.43 58.65 156.97 C 51.07 158.95 43.03 156.81 35.33 158.26 C 35.36 159.93 35.41 161.59 35.48 163.26 C 41.13 163.51 46.81 163.01 52.44 163.64 C 48.11 165.48 43.29 164.33 38.73 164.63 C 38.99 168.15 37.70 172.25 40.36 175.14 C 37.88 177.62 35.41 180.11 32.99 182.65 C 18.80 160.45 12.78 133.00 17.23 106.97 C 18.59 97.20 21.89 87.83 25.71 78.78 C 25.97 78.29 26.50 77.31 26.76 76.82 C 27.41 75.49 28.06 74.16 28.69 72.82 C 38.82 54.29 54.28 38.89 72.77 28.72 C 73.29 28.47 74.33 27.97 74.85 27.72 Z" />
<path fill="#ffffff" opacity="1.00" d=" M 139.21 82.54 C 154.58 66.63 170.17 50.92 185.67 35.13 C 187.57 36.56 189.47 37.99 191.38 39.40 C 176.39 53.09 162.87 68.28 148.45 82.56 L 148.18 82.56 C 145.19 82.59 142.20 82.60 139.21 82.54 Z" />
<path fill="#ffffff" opacity="1.00" d=" M 156.44 82.57 C 169.76 69.60 181.80 55.32 195.93 43.21 C 197.27 44.47 198.61 45.72 199.94 46.99 C 188.31 58.85 176.77 70.79 165.10 82.61 L 164.55 82.60 C 161.84 82.59 159.14 82.57 156.44 82.57 Z" />
<path fill="#ffffff" opacity="1.00" d=" M 174.14 81.91 C 183.81 71.39 194.01 61.38 203.90 51.07 C 205.16 52.56 206.44 54.05 207.71 55.54 C 199.40 64.77 190.57 73.50 181.97 82.45 C 179.22 82.55 176.46 82.60 173.72 82.65 L 174.14 81.91 Z" />
<path fill="#ffffff" opacity="1.00" d=" M 189.78 82.43 C 197.17 75.20 204.27 67.68 211.30 60.10 C 212.94 62.34 214.75 64.51 215.81 67.09 C 210.64 72.71 205.05 77.92 199.82 83.49 C 199.75 83.48 199.60 83.45 199.53 83.44 C 196.32 82.76 193.05 82.53 189.78 82.43 Z" />
<path fill="#ffffff" opacity="1.00" d=" M 203.55 87.54 C 208.74 82.41 213.91 77.27 219.05 72.09 C 228.78 90.35 233.73 111.31 232.05 132.00 C 230.44 153.88 222.00 175.21 208.17 192.23 C 198.75 203.60 187.26 213.33 174.11 220.10 C 154.28 230.38 131.25 234.64 109.11 231.32 C 98.58 229.97 88.37 226.71 78.70 222.40 C 77.46 221.65 75.80 221.32 75.02 219.99 C 94.34 199.67 114.16 179.82 133.55 159.56 C 133.70 163.82 133.67 168.09 133.61 172.35 C 134.31 173.03 135.00 173.71 135.69 174.40 C 137.80 174.39 139.92 174.40 142.03 174.41 C 142.40 173.95 143.14 173.02 143.51 172.56 C 143.43 166.02 143.50 159.47 143.39 152.93 C 143.05 152.43 142.38 151.43 142.04 150.92 C 142.27 150.70 142.74 150.26 142.97 150.04 C 162.46 149.76 181.95 150.00 201.44 149.92 C 201.48 130.11 201.37 110.29 201.48 90.48 C 201.70 89.26 202.82 88.46 203.55 87.54 M 181.09 151.51 C 180.78 153.89 180.64 156.29 180.52 158.70 L 179.74 156.67 C 179.78 157.88 179.81 159.09 179.84 160.30 C 177.85 160.31 175.86 160.32 173.88 160.32 C 172.89 159.40 171.90 158.48 170.94 157.55 C 168.70 157.33 166.45 157.30 164.22 157.58 C 161.81 160.61 158.09 160.57 154.59 160.32 C 154.41 157.62 154.34 154.91 154.23 152.21 C 151.17 152.20 148.11 152.21 145.04 152.31 C 144.98 159.17 145.03 166.04 145.01 172.91 C 145.41 173.30 146.20 174.06 146.60 174.44 C 149.13 174.42 151.67 174.41 154.20 174.37 C 154.34 171.40 154.38 168.43 154.51 165.47 C 156.73 165.45 158.95 165.45 161.17 165.49 C 164.19 169.86 170.80 169.86 173.80 165.48 C 176.02 165.45 178.25 165.46 180.48 165.51 C 180.56 167.82 180.60 170.12 180.59 172.43 C 180.87 172.93 181.43 173.93 181.71 174.42 C 184.35 174.42 186.99 174.41 189.63 174.36 C 190.08 166.79 190.00 159.18 189.68 151.60 C 186.82 151.55 183.96 151.53 181.09 151.51 M 192.33 151.63 C 191.49 152.54 191.61 153.84 191.55 154.98 C 191.52 160.88 191.59 166.78 191.52 172.68 C 192.22 173.25 192.93 173.82 193.64 174.39 C 195.60 174.40 197.57 174.42 199.53 174.46 C 200.14 173.84 200.75 173.21 201.36 172.59 C 200.87 165.54 202.22 158.30 200.43 151.38 C 197.73 151.44 195.01 151.26 192.33 151.63 Z" />
<path fill="#ffffff" opacity="1.00" d=" M 134.60 87.20 C 134.34 90.27 134.45 93.35 134.50 96.43 L 134.50 96.75 C 125.37 107.09 115.20 116.46 105.91 126.66 C 104.99 124.16 104.01 121.69 103.13 119.18 C 113.61 108.51 124.09 97.84 134.60 87.20 Z" />
<path fill="#ffffff" opacity="1.00" d=" M 108.31 132.27 C 116.99 123.21 125.67 114.15 134.59 105.31 C 134.39 108.03 134.45 110.76 134.50 113.48 L 134.51 113.86 C 127.72 121.56 120.19 128.57 113.12 136.02 C 111.79 137.27 110.65 138.82 108.99 139.65 C 106.63 139.50 104.38 138.73 102.10 138.17 C 103.02 137.62 103.95 137.06 104.88 136.51 C 106.61 136.84 108.34 137.18 110.08 137.51 C 109.49 135.76 108.87 134.02 108.31 132.27 Z" />
<path fill="#ffffff" opacity="1.00" d=" M 116.55 140.55 C 122.55 134.55 128.40 128.41 134.48 122.48 C 134.48 125.17 134.52 127.87 134.46 130.56 C 134.15 131.70 133.14 132.54 132.42 133.45 C 126.51 139.54 120.52 145.54 114.66 151.69 C 111.96 154.87 107.25 152.99 103.65 153.28 C 106.55 150.51 110.64 151.37 114.27 151.27 C 114.27 150.54 114.28 149.08 114.28 148.35 C 112.43 148.32 110.58 148.28 108.72 148.22 C 110.34 146.88 112.01 145.59 113.86 144.57 C 114.50 143.07 115.36 141.68 116.55 140.55 Z" />
<path fill="#ffffff" opacity="1.00" d=" M 86.29 136.27 C 90.71 132.23 94.62 127.69 99.04 123.66 C 99.94 126.09 100.83 128.53 101.64 131.00 C 99.73 132.94 98.02 135.09 95.87 136.76 C 92.67 136.92 89.48 136.40 86.29 136.27 Z" />
<path fill="#ffffff" opacity="1.00" d=" M 134.45 139.49 L 134.45 139.77 C 134.42 143.23 134.44 146.70 134.52 150.16 L 134.53 150.53 C 127.04 158.13 119.32 165.69 112.35 173.68 C 112.62 170.74 112.94 167.79 112.85 164.83 C 111.97 164.64 110.20 164.26 109.32 164.07 C 111.38 163.60 113.47 163.29 115.57 163.06 C 116.06 160.88 115.74 158.22 117.68 156.68 C 123.20 150.88 128.89 145.24 134.45 139.49 Z" />
<path fill="#ffffff" opacity="1.00" d=" M 64.43 145.21 C 66.16 144.09 68.48 144.84 70.44 144.55 C 68.32 146.61 66.23 148.71 64.22 150.89 C 64.27 148.99 64.21 147.09 64.43 145.21 Z" />
<path fill="#ffffff" opacity="1.00" d=" M 70.08 152.81 C 72.88 150.30 75.27 147.34 78.15 144.91 C 81.33 144.24 84.63 144.67 87.85 144.81 C 85.61 147.55 83.27 150.25 80.57 152.56 C 77.12 153.17 73.57 152.70 70.08 152.81 Z" />
<path fill="#ffffff" opacity="1.00" d=" M 98.55 145.18 C 100.52 145.18 102.49 145.22 104.47 145.32 C 102.79 146.80 100.92 148.07 98.75 148.68 C 98.67 147.51 98.60 146.35 98.55 145.18 Z" />
<path fill="#ffffff" opacity="1.00" d=" M 64.52 157.39 C 68.71 156.34 73.08 156.67 77.35 156.92 C 73.24 158.37 68.76 157.81 64.52 157.39 Z" />
<path fill="#ffffff" opacity="1.00" d=" M 85.85 156.68 C 88.39 156.70 90.93 156.70 93.47 156.93 C 90.11 158.17 86.46 157.64 82.97 158.18 C 83.93 157.68 84.89 157.18 85.85 156.68 Z" />
<path fill="#ffffff" opacity="1.00" d=" M 99.05 157.87 C 102.61 156.23 106.60 156.62 110.39 156.93 C 106.75 158.25 102.83 157.72 99.05 157.87 Z" />
<path fill="#ffffff" opacity="1.00" d=" M 52.89 172.95 C 53.53 168.82 56.89 165.87 60.07 163.52 C 63.66 163.06 67.29 163.36 70.89 163.50 C 70.41 163.81 69.44 164.41 68.96 164.71 C 59.83 174.53 50.11 183.78 41.08 193.70 C 39.48 191.62 37.91 189.51 36.39 187.36 C 40.12 183.71 43.58 179.79 47.38 176.22 C 48.87 174.54 52.38 175.51 52.89 172.95 Z" />
<path fill="#ffffff" opacity="1.00" d=" M 77.98 163.87 C 80.65 162.71 83.84 163.58 86.71 163.35 C 73.85 175.92 61.52 189.02 48.92 201.85 C 47.73 200.74 46.55 199.62 45.36 198.51 C 45.42 198.16 45.54 197.46 45.59 197.11 C 56.45 186.09 66.93 174.69 77.98 163.87 Z" />
<path fill="#ffffff" opacity="1.00" d=" M 92.42 165.40 C 95.22 161.81 100.32 163.55 104.19 163.73 C 102.38 164.24 100.53 164.60 98.67 164.91 C 98.56 166.95 98.16 169.06 96.46 170.41 C 83.58 183.48 70.86 196.71 58.04 209.83 C 56.35 208.51 54.69 207.17 53.04 205.82 C 66.26 192.44 79.19 178.77 92.42 165.40 Z" />
<path fill="#ffffff" opacity="1.00" d=" M 62.73 213.42 C 74.99 200.58 87.29 187.78 99.81 175.20 C 103.41 175.13 106.99 174.78 110.59 174.81 C 104.86 181.35 98.53 187.35 92.50 193.62 C 84.61 201.45 77.18 209.73 69.24 217.52 C 67.07 216.15 64.88 214.81 62.73 213.42 Z" />
<path fill="#000000" opacity="1.00" d=" M 104.08 10.05 C 116.94 7.74 130.20 7.92 143.10 9.78 C 145.33 10.28 147.61 10.57 149.83 11.13 C 164.98 14.44 179.24 21.22 191.86 30.17 C 203.41 38.51 213.31 49.01 221.18 60.86 C 226.27 69.16 230.95 77.80 233.87 87.13 C 234.26 88.12 234.65 89.12 235.05 90.11 C 235.34 91.43 235.60 92.76 235.89 94.08 C 236.28 95.40 236.61 96.74 236.98 98.07 C 237.41 100.00 237.75 101.95 238.22 103.88 C 239.99 115.16 240.02 126.64 239.19 138.02 C 238.28 142.25 237.87 146.58 236.90 150.81 C 236.56 151.87 236.21 152.92 235.84 153.97 C 235.66 155.04 235.48 156.11 235.31 157.18 C 230.99 170.44 224.79 183.14 216.29 194.23 C 200.23 215.36 176.74 230.88 150.84 236.81 C 148.93 237.31 147.00 237.69 145.09 238.18 C 142.72 238.40 140.33 238.61 138.02 239.22 C 128.38 239.77 118.62 240.26 109.04 238.87 C 105.60 238.48 102.21 237.89 98.81 237.28 C 97.23 236.80 95.62 236.42 94.03 236.00 C 91.96 235.47 89.90 234.90 87.85 234.32 C 70.05 228.24 53.63 218.03 40.57 204.46 C 27.13 190.31 16.93 172.84 12.12 153.87 C 11.72 152.55 11.35 151.22 10.94 149.90 C 10.63 148.24 10.40 146.56 10.15 144.88 C 9.60 142.28 9.43 139.62 8.77 137.04 C 8.42 128.07 7.84 118.98 9.17 110.07 C 12.63 77.67 31.26 47.48 57.97 29.01 C 71.76 19.51 87.49 12.65 104.08 10.05 M 74.85 27.72 C 74.33 27.97 73.29 28.47 72.77 28.72 C 54.28 38.89 38.82 54.29 28.69 72.82 C 28.06 74.16 27.41 75.49 26.76 76.82 C 26.50 77.31 25.97 78.29 25.71 78.78 C 21.89 87.83 18.59 97.20 17.23 106.97 C 12.78 133.00 18.80 160.45 32.99 182.65 C 35.41 180.11 37.88 177.62 40.36 175.14 C 37.70 172.25 38.99 168.15 38.73 164.63 C 43.29 164.33 48.11 165.48 52.44 163.64 C 46.81 163.01 41.13 163.51 35.48 163.26 C 35.41 161.59 35.36 159.93 35.33 158.26 C 43.03 156.81 51.07 158.95 58.65 156.97 C 51.61 156.43 44.54 156.85 37.48 156.71 C 37.23 155.91 36.73 154.30 36.48 153.49 C 41.58 153.38 46.69 153.47 51.79 153.41 L 51.69 151.30 C 46.69 151.30 41.68 151.31 36.68 151.29 C 36.67 150.54 36.66 149.05 36.65 148.30 C 41.68 148.26 46.71 148.32 51.74 148.25 C 51.76 147.24 51.79 146.23 51.80 145.23 C 46.68 145.09 41.56 145.19 36.43 145.17 C 36.76 143.75 37.10 142.35 37.46 140.95 C 38.93 140.60 40.41 140.28 41.88 139.88 C 51.09 137.70 60.50 136.54 69.92 135.84 C 73.54 135.27 78.24 137.16 80.91 133.88 C 84.98 129.75 88.90 125.47 93.10 121.46 C 81.46 120.48 69.74 120.53 58.09 121.43 C 55.70 121.49 52.90 122.39 51.97 124.83 C 50.34 128.61 49.17 132.57 47.71 136.41 C 45.53 136.75 43.37 137.17 41.20 137.52 C 43.58 131.71 45.54 125.72 48.16 120.01 C 50.61 116.05 55.79 116.38 59.82 115.87 C 72.51 115.20 85.27 115.13 97.91 116.45 C 125.55 88.30 153.09 60.05 180.80 31.97 C 177.70 30.03 174.48 28.29 171.20 26.67 C 161.30 22.07 150.80 18.53 139.94 17.10 C 117.84 13.55 94.78 17.66 74.85 27.72 M 139.21 82.54 L 138.54 82.53 C 137.15 84.01 135.62 85.41 134.60 87.20 C 124.09 97.84 113.61 108.51 103.13 119.18 C 104.01 121.69 104.99 124.16 105.91 126.66 C 115.20 116.46 125.37 107.09 134.50 96.75 L 134.50 96.43 C 139.48 92.25 143.79 87.35 148.18 82.56 L 148.45 82.56 C 162.87 68.28 176.39 53.09 191.38 39.40 C 189.47 37.99 187.57 36.56 185.67 35.13 C 170.17 50.92 154.58 66.63 139.21 82.54 M 156.44 82.57 C 149.10 90.10 141.81 97.70 134.59 105.31 C 125.67 114.15 116.99 123.21 108.31 132.27 C 108.87 134.02 109.49 135.76 110.08 137.51 C 108.34 137.18 106.61 136.84 104.88 136.51 C 103.95 137.06 103.02 137.62 102.10 138.17 C 104.38 138.73 106.63 139.50 108.99 139.65 C 110.65 138.82 111.79 137.27 113.12 136.02 C 120.19 128.57 127.72 121.56 134.51 113.86 L 134.50 113.48 C 137.83 110.84 140.75 107.77 143.61 104.65 C 150.54 97.25 158.23 90.55 164.55 82.60 L 165.10 82.61 C 176.77 70.79 188.31 58.85 199.94 46.99 C 198.61 45.72 197.27 44.47 195.93 43.21 C 181.80 55.32 169.76 69.60 156.44 82.57 M 174.14 81.91 L 174.58 80.66 C 171.54 83.91 168.81 87.44 165.55 90.48 C 155.03 100.86 145.21 111.93 134.47 122.08 L 134.48 122.48 C 128.40 128.41 122.55 134.55 116.55 140.55 C 115.36 141.68 114.50 143.07 113.86 144.57 C 112.01 145.59 110.34 146.88 108.72 148.22 C 110.58 148.28 112.43 148.32 114.28 148.35 C 114.28 149.08 114.27 150.54 114.27 151.27 C 110.64 151.37 106.55 150.51 103.65 153.28 C 107.25 152.99 111.96 154.87 114.66 151.69 C 120.52 145.54 126.51 139.54 132.42 133.45 C 133.14 132.54 134.15 131.70 134.46 130.56 C 135.98 129.36 137.52 128.20 138.92 126.87 C 153.06 111.87 167.70 97.34 181.97 82.45 C 190.57 73.50 199.40 64.77 207.71 55.54 C 206.44 54.05 205.16 52.56 203.90 51.07 C 194.01 61.38 183.81 71.39 174.14 81.91 M 189.78 82.43 C 182.85 90.24 175.35 97.53 168.07 105.02 C 158.06 115.03 148.48 125.48 138.44 135.46 C 137.19 136.92 135.08 137.95 134.45 139.77 L 134.45 139.49 C 128.89 145.24 123.20 150.88 117.68 156.68 C 115.74 158.22 116.06 160.88 115.57 163.06 C 113.47 163.29 111.38 163.60 109.32 164.07 C 110.20 164.26 111.97 164.64 112.85 164.83 C 112.94 167.79 112.62 170.74 112.35 173.68 C 119.32 165.69 127.04 158.13 134.53 150.53 L 134.52 150.16 C 140.35 144.75 145.64 138.80 151.24 133.16 C 167.25 116.51 183.57 100.15 199.53 83.44 C 199.60 83.45 199.75 83.48 199.82 83.49 C 205.05 77.92 210.64 72.71 215.81 67.09 C 214.75 64.51 212.94 62.34 211.30 60.10 C 204.27 67.68 197.17 75.20 189.78 82.43 M 203.55 87.54 C 202.82 88.46 201.70 89.26 201.48 90.48 C 200.20 91.55 198.91 92.62 197.67 93.74 C 179.47 112.53 161.08 131.15 142.97 150.04 C 142.74 150.26 142.27 150.70 142.04 150.92 L 141.78 150.52 C 139.44 153.75 136.70 156.66 133.53 159.08 C 133.54 159.20 133.54 159.44 133.55 159.56 C 114.16 179.82 94.34 199.67 75.02 219.99 C 75.80 221.32 77.46 221.65 78.70 222.40 C 88.37 226.71 98.58 229.97 109.11 231.32 C 131.25 234.64 154.28 230.38 174.11 220.10 C 187.26 213.33 198.75 203.60 208.17 192.23 C 222.00 175.21 230.44 153.88 232.05 132.00 C 233.73 111.31 228.78 90.35 219.05 72.09 C 213.91 77.27 208.74 82.41 203.55 87.54 M 86.29 136.27 C 89.48 136.40 92.67 136.92 95.87 136.76 C 98.02 135.09 99.73 132.94 101.64 131.00 C 100.83 128.53 99.94 126.09 99.04 123.66 C 94.62 127.69 90.71 132.23 86.29 136.27 M 64.43 145.21 C 64.21 147.09 64.27 148.99 64.22 150.89 C 66.23 148.71 68.32 146.61 70.44 144.55 C 68.48 144.84 66.16 144.09 64.43 145.21 M 70.08 152.81 C 73.57 152.70 77.12 153.17 80.57 152.56 C 83.27 150.25 85.61 147.55 87.85 144.81 C 84.63 144.67 81.33 144.24 78.15 144.91 C 75.27 147.34 72.88 150.30 70.08 152.81 M 98.55 145.18 C 98.60 146.35 98.67 147.51 98.75 148.68 C 100.92 148.07 102.79 146.80 104.47 145.32 C 102.49 145.22 100.52 145.18 98.55 145.18 M 64.52 157.39 C 68.76 157.81 73.24 158.37 77.35 156.92 C 73.08 156.67 68.71 156.34 64.52 157.39 M 85.85 156.68 C 84.89 157.18 83.93 157.68 82.97 158.18 C 86.46 157.64 90.11 158.17 93.47 156.93 C 90.93 156.70 88.39 156.70 85.85 156.68 M 99.05 157.87 C 102.83 157.72 106.75 158.25 110.39 156.93 C 106.60 156.62 102.61 156.23 99.05 157.87 M 52.89 172.95 C 52.38 175.51 48.87 174.54 47.38 176.22 C 43.58 179.79 40.12 183.71 36.39 187.36 C 37.91 189.51 39.48 191.62 41.08 193.70 C 50.11 183.78 59.83 174.53 68.96 164.71 C 69.44 164.41 70.41 163.81 70.89 163.50 C 67.29 163.36 63.66 163.06 60.07 163.52 C 56.89 165.87 53.53 168.82 52.89 172.95 M 77.98 163.87 C 66.93 174.69 56.45 186.09 45.59 197.11 C 45.54 197.46 45.42 198.16 45.36 198.51 C 46.55 199.62 47.73 200.74 48.92 201.85 C 61.52 189.02 73.85 175.92 86.71 163.35 C 83.84 163.58 80.65 162.71 77.98 163.87 M 92.42 165.40 C 79.19 178.77 66.26 192.44 53.04 205.82 C 54.69 207.17 56.35 208.51 58.04 209.83 C 70.86 196.71 83.58 183.48 96.46 170.41 C 98.16 169.06 98.56 166.95 98.67 164.91 C 100.53 164.60 102.38 164.24 104.19 163.73 C 100.32 163.55 95.22 161.81 92.42 165.40 M 62.73 213.42 C 64.88 214.81 67.07 216.15 69.24 217.52 C 77.18 209.73 84.61 201.45 92.50 193.62 C 98.53 187.35 104.86 181.35 110.59 174.81 C 106.99 174.78 103.41 175.13 99.81 175.20 C 87.29 187.78 74.99 200.58 62.73 213.42 Z" />
<path fill="#3c3c3c" opacity="1.00" d=" M 165.55 90.48 C 168.81 87.44 171.54 83.91 174.58 80.66 L 174.14 81.91 L 173.72 82.65 C 176.46 82.60 179.22 82.55 181.97 82.45 C 167.70 97.34 153.06 111.87 138.92 126.87 C 137.52 128.20 135.98 129.36 134.46 130.56 C 134.52 127.87 134.48 125.17 134.48 122.48 L 134.47 122.08 C 145.21 111.93 155.03 100.86 165.55 90.48 Z" />
<path fill="#3c3c3c" opacity="1.00" d=" M 138.54 82.53 L 139.21 82.54 C 142.20 82.60 145.19 82.59 148.18 82.56 C 143.79 87.35 139.48 92.25 134.50 96.43 C 134.45 93.35 134.34 90.27 134.60 87.20 C 135.62 85.41 137.15 84.01 138.54 82.53 Z" />
<path fill="#3c3c3c" opacity="1.00" d=" M 134.59 105.31 C 141.81 97.70 149.10 90.10 156.44 82.57 C 159.14 82.57 161.84 82.59 164.55 82.60 C 158.23 90.55 150.54 97.25 143.61 104.65 C 140.75 107.77 137.83 110.84 134.50 113.48 C 134.45 110.76 134.39 108.03 134.59 105.31 Z" />
<path fill="#3c3c3c" opacity="1.00" d=" M 168.07 105.02 C 175.35 97.53 182.85 90.24 189.78 82.43 C 193.05 82.53 196.32 82.76 199.53 83.44 C 183.57 100.15 167.25 116.51 151.24 133.16 C 145.64 138.80 140.35 144.75 134.52 150.16 C 134.44 146.70 134.42 143.23 134.45 139.77 C 135.08 137.95 137.19 136.92 138.44 135.46 C 148.48 125.48 158.06 115.03 168.07 105.02 Z" />
<path fill="#3c3c3c" opacity="1.00" d=" M 197.67 93.74 C 198.91 92.62 200.20 91.55 201.48 90.48 C 201.37 110.29 201.48 130.11 201.44 149.92 C 181.95 150.00 162.46 149.76 142.97 150.04 C 161.08 131.15 179.47 112.53 197.67 93.74 Z" />
<path fill="#3c3c3c" opacity="1.00" d=" M 141.78 150.52 L 142.04 150.92 C 142.38 151.43 143.05 152.43 143.39 152.93 C 143.50 159.47 143.43 166.02 143.51 172.56 C 143.14 173.02 142.40 173.95 142.03 174.41 C 139.92 174.40 137.80 174.39 135.69 174.40 C 135.00 173.71 134.31 173.03 133.61 172.35 C 133.67 168.09 133.70 163.82 133.55 159.56 C 133.54 159.44 133.54 159.20 133.53 159.08 C 136.70 156.66 139.44 153.75 141.78 150.52 Z" />
<path fill="#3c3c3c" opacity="1.00" d=" M 181.09 151.51 C 183.96 151.53 186.82 151.55 189.68 151.60 C 190.00 159.18 190.08 166.79 189.63 174.36 C 186.99 174.41 184.35 174.42 181.71 174.42 C 181.43 173.93 180.87 172.93 180.59 172.43 C 180.60 170.12 180.56 167.82 180.48 165.51 C 178.25 165.46 176.02 165.45 173.80 165.48 C 170.80 169.86 164.19 169.86 161.17 165.49 C 158.95 165.45 156.73 165.45 154.51 165.47 C 154.38 168.43 154.34 171.40 154.20 174.37 C 151.67 174.41 149.13 174.42 146.60 174.44 C 146.20 174.06 145.41 173.30 145.01 172.91 C 145.03 166.04 144.98 159.17 145.04 152.31 C 148.11 152.21 151.17 152.20 154.23 152.21 C 154.34 154.91 154.41 157.62 154.59 160.32 C 158.09 160.57 161.81 160.61 164.22 157.58 C 166.45 157.30 168.70 157.33 170.94 157.55 C 171.90 158.48 172.89 159.40 173.88 160.32 C 175.86 160.32 177.85 160.31 179.84 160.30 C 179.81 159.09 179.78 157.88 179.74 156.67 L 180.52 158.70 C 180.64 156.29 180.78 153.89 181.09 151.51 Z" />
<path fill="#3c3c3c" opacity="1.00" d=" M 192.33 151.63 C 195.01 151.26 197.73 151.44 200.43 151.38 C 202.22 158.30 200.87 165.54 201.36 172.59 C 200.75 173.21 200.14 173.84 199.53 174.46 C 197.57 174.42 195.60 174.40 193.64 174.39 C 192.93 173.82 192.22 173.25 191.52 172.68 C 191.59 166.78 191.52 160.88 191.55 154.98 C 191.61 153.84 191.49 152.54 192.33 151.63 Z" />
</g>
</svg>
