<?xml version="1.0" encoding="UTF-8" ?>
<!DOCTYPE svg PUBLIC "-//W3C//DTD SVG 1.1//EN" "http://www.w3.org/Graphics/SVG/1.1/DTD/svg11.dtd">
<svg width="130pt" height="130pt" viewBox="0 0 130 130" version="1.1" xmlns="http://www.w3.org/2000/svg">
<g id="disabled">
<path fill="#606060" opacity="1.00" d=" M 57.31 7.38 C 59.74 5.00 62.27 2.00 65.94 1.79 C 68.98 1.45 71.60 3.36 73.66 5.37 C 91.15 22.89 108.68 40.38 126.17 57.90 C 129.68 60.88 130.26 66.65 127.02 70.04 C 124.48 72.72 121.95 75.45 119.11 77.82 C 118.12 78.35 117.35 79.11 116.82 80.11 C 116.07 81.15 115.14 82.05 114.24 82.95 C 99.77 97.26 85.52 111.80 71.00 126.04 C 67.54 127.53 63.24 127.56 60.53 124.62 C 42.58 106.84 24.77 88.92 6.90 71.07 C 3.61 68.31 3.14 63.67 4.92 59.93 C 22.27 42.31 39.90 24.95 57.31 7.38 M 62.42 5.57 C 61.06 6.47 59.92 7.67 58.75 8.80 C 42.29 25.32 25.71 41.71 9.25 58.23 C 5.73 61.21 5.23 67.03 8.71 70.24 C 25.17 86.79 41.73 103.25 58.19 119.80 C 60.15 121.72 62.10 124.05 64.99 124.48 C 68.14 125.16 71.16 123.48 73.23 121.21 C 90.20 104.16 107.28 87.20 124.18 70.08 C 127.50 66.93 127.12 61.28 123.75 58.33 C 106.73 41.33 89.72 24.32 72.70 7.32 C 70.18 4.48 65.72 3.48 62.42 5.57 Z" />
<path fill="#606060" opacity="1.00" d=" M 64.40 7.10 C 66.44 5.51 68.88 7.08 70.30 8.70 C 87.63 26.07 104.97 43.43 122.32 60.77 C 123.74 62.08 125.04 63.91 124.18 65.93 C 122.95 67.74 121.30 69.19 119.76 70.73 C 102.85 87.49 86.09 104.40 69.18 121.15 C 67.57 123.08 64.73 122.62 63.26 120.80 C 46.75 104.31 30.27 87.79 13.76 71.31 C 12.03 69.54 10.10 67.94 8.73 65.86 C 7.55 63.58 9.79 61.71 11.18 60.22 C 29.03 42.63 46.43 24.55 64.40 7.10 M 35.77 41.88 C 35.95 42.60 36.31 44.04 36.48 44.76 C 38.19 44.67 39.89 44.57 41.60 44.44 C 41.39 43.59 40.98 41.88 40.77 41.03 C 39.09 41.22 37.42 41.50 35.77 41.88 M 46.67 47.50 C 47.64 47.49 49.59 47.47 50.56 47.46 C 50.39 46.54 50.05 44.68 49.88 43.75 C 47.49 43.31 45.35 45.01 46.67 47.50 M 31.09 49.75 C 32.14 50.83 33.52 50.20 34.74 49.93 C 34.65 49.29 34.47 48.00 34.38 47.36 C 33.02 47.58 30.21 47.58 31.09 49.75 M 50.28 50.11 C 52.42 54.62 55.94 58.26 58.73 62.36 C 61.96 66.49 64.72 71.00 68.34 74.82 C 64.70 68.29 59.82 62.54 55.68 56.33 C 53.98 54.20 52.87 51.34 50.28 50.11 M 73.48 52.24 C 72.95 55.50 72.41 58.76 71.95 62.04 C 71.29 62.63 70.63 63.22 69.97 63.81 C 70.36 66.80 70.75 69.80 71.12 72.79 C 71.58 73.14 72.49 73.84 72.95 74.19 C 72.94 75.81 72.93 77.43 72.93 79.05 C 70.11 78.92 67.29 78.76 64.47 78.50 C 66.43 78.44 68.39 78.42 70.34 78.37 C 69.64 74.85 64.55 76.19 63.51 78.88 C 50.59 79.27 37.64 78.58 24.73 79.24 C 25.36 80.55 26.73 80.60 27.98 80.54 C 53.80 80.49 79.62 80.54 105.44 80.43 C 105.42 74.87 107.24 69.52 107.28 63.96 C 103.87 61.07 104.81 56.08 103.60 52.19 C 93.57 51.56 83.52 51.48 73.48 52.24 M 23.93 54.14 C 23.95 55.55 23.99 56.96 24.06 58.37 C 25.46 58.43 26.86 58.47 28.26 58.49 C 27.98 56.92 27.65 55.36 27.12 53.86 C 26.33 53.93 24.73 54.07 23.93 54.14 M 37.80 56.82 C 37.26 58.52 36.87 60.26 36.61 62.03 C 39.01 62.17 41.40 62.25 43.80 62.23 C 44.24 61.06 44.70 59.89 45.16 58.72 C 43.05 57.08 40.34 57.04 37.80 56.82 M 26.84 64.81 C 27.60 66.71 29.62 65.98 31.19 66.04 C 31.19 65.18 31.19 63.46 31.19 62.59 C 29.46 62.71 27.21 62.62 26.84 64.81 M 39.45 64.76 C 43.47 68.87 49.65 69.74 54.27 73.06 C 53.19 73.02 51.03 72.95 49.94 72.91 C 51.55 73.58 53.32 73.98 54.70 75.09 C 46.62 74.48 38.72 72.24 30.60 71.93 C 33.78 73.66 37.62 73.29 41.09 74.05 C 46.32 74.55 51.57 76.42 56.83 75.25 L 56.27 76.58 C 58.39 76.66 60.51 76.80 62.63 76.78 C 61.72 75.51 60.39 74.67 58.96 74.07 C 52.36 71.17 46.19 67.35 39.45 64.76 M 18.00 66.24 C 15.99 67.82 17.88 70.87 17.85 73.06 C 19.57 73.01 21.29 72.96 23.01 72.93 C 24.17 71.49 25.62 69.96 25.00 67.94 C 23.37 65.94 20.36 65.77 18.00 66.24 M 33.53 67.09 C 35.46 69.09 38.32 69.41 40.82 70.29 C 43.87 71.12 46.78 72.55 49.94 72.91 L 51.55 72.89 C 45.64 70.70 39.62 68.72 33.53 67.09 Z" />
<path fill="#606060" opacity="1.00" d=" M 75.14 53.89 C 84.12 53.47 93.11 53.46 102.09 53.87 C 102.70 56.62 103.19 59.40 103.54 62.19 C 96.84 62.12 90.14 62.18 83.44 62.14 C 82.99 61.54 82.09 60.35 81.64 59.75 C 82.49 57.84 82.77 54.65 79.99 54.30 C 76.81 54.18 76.62 57.77 77.65 59.93 C 76.51 61.06 75.36 62.31 73.63 62.40 C 74.03 59.55 74.56 56.71 75.14 53.89 Z" />
<path fill="#606060" opacity="1.00" d=" M 73.56 64.58 C 75.61 62.28 79.13 65.70 77.01 67.96 C 74.79 69.97 71.27 66.71 73.56 64.58 Z" />
<path fill="#606060" opacity="1.00" d=" M 101.22 64.37 C 102.44 63.43 104.30 63.70 104.95 65.18 C 106.19 66.82 103.86 69.34 102.06 68.37 C 100.17 68.19 100.02 65.44 101.22 64.37 Z" />
<path fill="#606060" opacity="1.00" d=" M 78.47 68.88 C 85.69 68.96 92.91 68.67 100.12 68.99 C 99.89 69.29 99.43 69.87 99.20 70.16 C 92.33 70.53 85.44 70.19 78.56 70.31 L 78.47 68.88 Z" />
<path fill="#606060" opacity="1.00" d=" M 78.42 74.03 C 85.64 73.99 92.85 74.02 100.07 74.02 C 100.07 75.67 100.07 77.33 100.07 78.98 C 92.86 78.98 85.64 79.00 78.43 78.97 C 78.43 77.32 78.43 75.68 78.42 74.03 Z" />
<path fill="#000000" opacity="1.00" d=" M 62.42 5.57 C 65.72 3.48 70.18 4.48 72.70 7.32 C 89.72 24.32 106.73 41.33 123.75 58.33 C 127.12 61.28 127.50 66.93 124.18 70.08 C 107.28 87.20 90.20 104.16 73.23 121.21 C 71.16 123.48 68.14 125.16 64.99 124.48 C 62.10 124.05 60.15 121.72 58.19 119.80 C 41.73 103.25 25.17 86.79 8.71 70.24 C 5.23 67.03 5.73 61.21 9.25 58.23 C 25.71 41.71 42.29 25.32 58.75 8.80 C 59.92 7.67 61.06 6.47 62.42 5.57 M 64.40 7.10 C 46.43 24.55 29.03 42.63 11.18 60.22 C 9.79 61.71 7.55 63.58 8.73 65.86 C 10.10 67.94 12.03 69.54 13.76 71.31 C 30.27 87.79 46.75 104.31 63.26 120.80 C 64.73 122.62 67.57 123.08 69.18 121.15 C 86.09 104.40 102.85 87.49 119.76 70.73 C 121.30 69.19 122.95 67.74 124.18 65.93 C 125.04 63.91 123.74 62.08 122.32 60.77 C 104.97 43.43 87.63 26.07 70.30 8.70 C 68.88 7.08 66.44 5.51 64.40 7.10 Z" />
<path fill="#000000" opacity="1.00" d=" M 35.77 41.88 C 37.42 41.50 39.09 41.22 40.77 41.03 C 40.98 41.88 41.39 43.59 41.60 44.44 C 39.89 44.57 38.19 44.67 36.48 44.76 C 36.31 44.04 35.95 42.60 35.77 41.88 Z" />
<path fill="#000000" opacity="1.00" d=" M 46.67 47.50 C 45.35 45.01 47.49 43.31 49.88 43.75 C 50.05 44.68 50.39 46.54 50.56 47.46 C 49.59 47.47 47.64 47.49 46.67 47.50 Z" />
<path fill="#000000" opacity="1.00" d=" M 31.09 49.75 C 30.21 47.58 33.02 47.58 34.38 47.36 C 34.47 48.00 34.65 49.29 34.74 49.93 C 33.52 50.20 32.14 50.83 31.09 49.75 Z" />
<path fill="#000000" opacity="1.00" d=" M 50.28 50.11 C 52.87 51.34 53.98 54.20 55.68 56.33 C 59.82 62.54 64.70 68.29 68.34 74.82 C 64.72 71.00 61.96 66.49 58.73 62.36 C 55.94 58.26 52.42 54.62 50.28 50.11 Z" />
<path fill="#000000" opacity="1.00" d=" M 73.48 52.24 C 83.52 51.48 93.57 51.56 103.60 52.19 C 104.81 56.08 103.87 61.07 107.28 63.96 C 107.24 69.52 105.42 74.87 105.44 80.43 C 79.62 80.54 53.80 80.49 27.98 80.54 C 26.73 80.60 25.36 80.55 24.73 79.24 C 37.64 78.58 50.59 79.27 63.51 78.88 C 64.55 76.19 69.64 74.85 70.34 78.37 C 68.39 78.42 66.43 78.44 64.47 78.50 C 67.29 78.76 70.11 78.92 72.93 79.05 C 72.93 77.43 72.94 75.81 72.95 74.19 C 72.49 73.84 71.58 73.14 71.12 72.79 C 70.75 69.80 70.36 66.80 69.97 63.81 C 70.63 63.22 71.29 62.63 71.95 62.04 C 72.41 58.76 72.95 55.50 73.48 52.24 M 75.14 53.89 C 74.56 56.71 74.03 59.55 73.63 62.40 C 75.36 62.31 76.51 61.06 77.65 59.93 C 76.62 57.77 76.81 54.18 79.99 54.30 C 82.77 54.65 82.49 57.84 81.64 59.75 C 82.09 60.35 82.99 61.54 83.44 62.14 C 90.14 62.18 96.84 62.12 103.54 62.19 C 103.19 59.40 102.70 56.62 102.09 53.87 C 93.11 53.46 84.12 53.47 75.14 53.89 M 73.56 64.58 C 71.27 66.71 74.79 69.97 77.01 67.96 C 79.13 65.70 75.61 62.28 73.56 64.58 M 101.22 64.37 C 100.02 65.44 100.17 68.19 102.06 68.37 C 103.86 69.34 106.19 66.82 104.95 65.18 C 104.30 63.70 102.44 63.43 101.22 64.37 M 78.47 68.88 L 78.56 70.31 C 85.44 70.19 92.33 70.53 99.20 70.16 C 99.43 69.87 99.89 69.29 100.12 68.99 C 92.91 68.67 85.69 68.96 78.47 68.88 M 78.42 74.03 C 78.43 75.68 78.43 77.32 78.43 78.97 C 85.64 79.00 92.86 78.98 100.07 78.98 C 100.07 77.33 100.07 75.67 100.07 74.02 C 92.85 74.02 85.64 73.99 78.42 74.03 Z" />
<path fill="#000000" opacity="1.00" d=" M 23.93 54.14 C 24.73 54.07 26.33 53.93 27.12 53.86 C 27.65 55.36 27.98 56.92 28.26 58.49 C 26.86 58.47 25.46 58.43 24.06 58.37 C 23.99 56.96 23.95 55.55 23.93 54.14 Z" />
<path fill="#000000" opacity="1.00" d=" M 37.80 56.82 C 40.34 57.04 43.05 57.08 45.16 58.72 C 44.70 59.89 44.24 61.06 43.80 62.23 C 41.40 62.25 39.01 62.17 36.61 62.03 C 36.87 60.26 37.26 58.52 37.80 56.82 Z" />
<path fill="#000000" opacity="1.00" d=" M 26.84 64.81 C 27.21 62.62 29.46 62.71 31.19 62.59 C 31.19 63.46 31.19 65.18 31.19 66.04 C 29.62 65.98 27.60 66.71 26.84 64.81 Z" />
<path fill="#000000" opacity="1.00" d=" M 39.45 64.76 C 46.19 67.35 52.36 71.17 58.96 74.07 C 60.39 74.67 61.72 75.51 62.63 76.78 C 60.51 76.80 58.39 76.66 56.27 76.58 L 56.83 75.25 C 51.57 76.42 46.32 74.55 41.09 74.05 C 37.62 73.29 33.78 73.66 30.60 71.93 C 38.72 72.24 46.62 74.48 54.70 75.09 C 53.32 73.98 51.55 73.58 49.94 72.91 C 51.03 72.95 53.19 73.02 54.27 73.06 C 49.65 69.74 43.47 68.87 39.45 64.76 Z" />
<path fill="#000000" opacity="1.00" d=" M 18.00 66.24 C 20.36 65.77 23.37 65.94 25.00 67.94 C 25.62 69.96 24.17 71.49 23.01 72.93 C 21.29 72.96 19.57 73.01 17.85 73.06 C 17.88 70.87 15.99 67.82 18.00 66.24 Z" />
<path fill="#000000" opacity="1.00" d=" M 33.53 67.09 C 39.62 68.72 45.64 70.70 51.55 72.89 L 49.94 72.91 C 46.78 72.55 43.87 71.12 40.82 70.29 C 38.32 69.41 35.46 69.09 33.53 67.09 Z" />
</g>
<g id="normal">
<path fill="#f77b15" opacity="1.00" d=" M 57.31 7.38 C 59.74 5.00 62.27 2.00 65.94 1.79 C 68.98 1.45 71.60 3.36 73.66 5.37 C 91.15 22.89 108.68 40.38 126.17 57.90 C 129.68 60.88 130.26 66.65 127.02 70.04 C 124.48 72.72 121.95 75.45 119.11 77.82 C 118.12 78.35 117.35 79.11 116.82 80.11 C 116.07 81.15 115.14 82.05 114.24 82.95 C 99.77 97.26 85.52 111.80 71.00 126.04 C 67.54 127.53 63.24 127.56 60.53 124.62 C 42.58 106.84 24.77 88.92 6.90 71.07 C 3.61 68.31 3.14 63.67 4.92 59.93 C 22.27 42.31 39.90 24.95 57.31 7.38 M 62.42 5.57 C 61.06 6.47 59.92 7.67 58.75 8.80 C 42.29 25.32 25.71 41.71 9.25 58.23 C 5.73 61.21 5.23 67.03 8.71 70.24 C 25.17 86.79 41.73 103.25 58.19 119.80 C 60.15 121.72 62.10 124.05 64.99 124.48 C 68.14 125.16 71.16 123.48 73.23 121.21 C 90.20 104.16 107.28 87.20 124.18 70.08 C 127.50 66.93 127.12 61.28 123.75 58.33 C 106.73 41.33 89.72 24.32 72.70 7.32 C 70.18 4.48 65.72 3.48 62.42 5.57 Z" />
<path fill="#f77b15" opacity="1.00" d=" M 64.40 7.10 C 66.44 5.51 68.88 7.08 70.30 8.70 C 87.63 26.07 104.97 43.43 122.32 60.77 C 123.74 62.08 125.04 63.91 124.18 65.93 C 122.95 67.74 121.30 69.19 119.76 70.73 C 102.85 87.49 86.09 104.40 69.18 121.15 C 67.57 123.08 64.73 122.62 63.26 120.80 C 46.75 104.31 30.27 87.79 13.76 71.31 C 12.03 69.54 10.10 67.94 8.73 65.86 C 7.55 63.58 9.79 61.71 11.18 60.22 C 29.03 42.63 46.43 24.55 64.40 7.10 M 35.77 41.88 C 35.95 42.60 36.31 44.04 36.48 44.76 C 38.19 44.67 39.89 44.57 41.60 44.44 C 41.39 43.59 40.98 41.88 40.77 41.03 C 39.09 41.22 37.42 41.50 35.77 41.88 M 46.67 47.50 C 47.64 47.49 49.59 47.47 50.56 47.46 C 50.39 46.54 50.05 44.68 49.88 43.75 C 47.49 43.31 45.35 45.01 46.67 47.50 M 31.09 49.75 C 32.14 50.83 33.52 50.20 34.74 49.93 C 34.65 49.29 34.47 48.00 34.38 47.36 C 33.02 47.58 30.21 47.58 31.09 49.75 M 50.28 50.11 C 52.42 54.62 55.94 58.26 58.73 62.36 C 61.96 66.49 64.72 71.00 68.34 74.82 C 64.70 68.29 59.82 62.54 55.68 56.33 C 53.98 54.20 52.87 51.34 50.28 50.11 M 73.48 52.24 C 72.95 55.50 72.41 58.76 71.95 62.04 C 71.29 62.63 70.63 63.22 69.97 63.81 C 70.36 66.80 70.75 69.80 71.12 72.79 C 71.58 73.14 72.49 73.84 72.95 74.19 C 72.94 75.81 72.93 77.43 72.93 79.05 C 70.11 78.92 67.29 78.76 64.47 78.50 C 66.43 78.44 68.39 78.42 70.34 78.37 C 69.64 74.85 64.55 76.19 63.51 78.88 C 50.59 79.27 37.64 78.58 24.73 79.24 C 25.36 80.55 26.73 80.60 27.98 80.54 C 53.80 80.49 79.62 80.54 105.44 80.43 C 105.42 74.87 107.24 69.52 107.28 63.96 C 103.87 61.07 104.81 56.08 103.60 52.19 C 93.57 51.56 83.52 51.48 73.48 52.24 M 23.93 54.14 C 23.95 55.55 23.99 56.96 24.06 58.37 C 25.46 58.43 26.86 58.47 28.26 58.49 C 27.98 56.92 27.65 55.36 27.12 53.86 C 26.33 53.93 24.73 54.07 23.93 54.14 M 37.80 56.82 C 37.26 58.52 36.87 60.26 36.61 62.03 C 39.01 62.17 41.40 62.25 43.80 62.23 C 44.24 61.06 44.70 59.89 45.16 58.72 C 43.05 57.08 40.34 57.04 37.80 56.82 M 26.84 64.81 C 27.60 66.71 29.62 65.98 31.19 66.04 C 31.19 65.18 31.19 63.46 31.19 62.59 C 29.46 62.71 27.21 62.62 26.84 64.81 M 39.45 64.76 C 43.47 68.87 49.65 69.74 54.27 73.06 C 53.19 73.02 51.03 72.95 49.94 72.91 C 51.55 73.58 53.32 73.98 54.70 75.09 C 46.62 74.48 38.72 72.24 30.60 71.93 C 33.78 73.66 37.62 73.29 41.09 74.05 C 46.32 74.55 51.57 76.42 56.83 75.25 L 56.27 76.58 C 58.39 76.66 60.51 76.80 62.63 76.78 C 61.72 75.51 60.39 74.67 58.96 74.07 C 52.36 71.17 46.19 67.35 39.45 64.76 M 18.00 66.24 C 15.99 67.82 17.88 70.87 17.85 73.06 C 19.57 73.01 21.29 72.96 23.01 72.93 C 24.17 71.49 25.62 69.96 25.00 67.94 C 23.37 65.94 20.36 65.77 18.00 66.24 M 33.53 67.09 C 35.46 69.09 38.32 69.41 40.82 70.29 C 43.87 71.12 46.78 72.55 49.94 72.91 L 51.55 72.89 C 45.64 70.70 39.62 68.72 33.53 67.09 Z" />
<path fill="#f77b15" opacity="1.00" d=" M 75.14 53.89 C 84.12 53.47 93.11 53.46 102.09 53.87 C 102.70 56.62 103.19 59.40 103.54 62.19 C 96.84 62.12 90.14 62.18 83.44 62.14 C 82.99 61.54 82.09 60.35 81.64 59.75 C 82.49 57.84 82.77 54.65 79.99 54.30 C 76.81 54.18 76.62 57.77 77.65 59.93 C 76.51 61.06 75.36 62.31 73.63 62.40 C 74.03 59.55 74.56 56.71 75.14 53.89 Z" />
<path fill="#f77b15" opacity="1.00" d=" M 73.56 64.58 C 75.61 62.28 79.13 65.70 77.01 67.96 C 74.79 69.97 71.27 66.71 73.56 64.58 Z" />
<path fill="#f77b15" opacity="1.00" d=" M 101.22 64.37 C 102.44 63.43 104.30 63.70 104.95 65.18 C 106.19 66.82 103.86 69.34 102.06 68.37 C 100.17 68.19 100.02 65.44 101.22 64.37 Z" />
<path fill="#f77b15" opacity="1.00" d=" M 78.47 68.88 C 85.69 68.96 92.91 68.67 100.12 68.99 C 99.89 69.29 99.43 69.87 99.20 70.16 C 92.33 70.53 85.44 70.19 78.56 70.31 L 78.47 68.88 Z" />
<path fill="#f77b15" opacity="1.00" d=" M 78.42 74.03 C 85.64 73.99 92.85 74.02 100.07 74.02 C 100.07 75.67 100.07 77.33 100.07 78.98 C 92.86 78.98 85.64 79.00 78.43 78.97 C 78.43 77.32 78.43 75.68 78.42 74.03 Z" />
<path fill="#000000" opacity="1.00" d=" M 62.42 5.57 C 65.72 3.48 70.18 4.48 72.70 7.32 C 89.72 24.32 106.73 41.33 123.75 58.33 C 127.12 61.28 127.50 66.93 124.18 70.08 C 107.28 87.20 90.20 104.16 73.23 121.21 C 71.16 123.48 68.14 125.16 64.99 124.48 C 62.10 124.05 60.15 121.72 58.19 119.80 C 41.73 103.25 25.17 86.79 8.71 70.24 C 5.23 67.03 5.73 61.21 9.25 58.23 C 25.71 41.71 42.29 25.32 58.75 8.80 C 59.92 7.67 61.06 6.47 62.42 5.57 M 64.40 7.10 C 46.43 24.55 29.03 42.63 11.18 60.22 C 9.79 61.71 7.55 63.58 8.73 65.86 C 10.10 67.94 12.03 69.54 13.76 71.31 C 30.27 87.79 46.75 104.31 63.26 120.80 C 64.73 122.62 67.57 123.08 69.18 121.15 C 86.09 104.40 102.85 87.49 119.76 70.73 C 121.30 69.19 122.95 67.74 124.18 65.93 C 125.04 63.91 123.74 62.08 122.32 60.77 C 104.97 43.43 87.63 26.07 70.30 8.70 C 68.88 7.08 66.44 5.51 64.40 7.10 Z" />
<path fill="#000000" opacity="1.00" d=" M 35.77 41.88 C 37.42 41.50 39.09 41.22 40.77 41.03 C 40.98 41.88 41.39 43.59 41.60 44.44 C 39.89 44.57 38.19 44.67 36.48 44.76 C 36.31 44.04 35.95 42.60 35.77 41.88 Z" />
<path fill="#000000" opacity="1.00" d=" M 46.67 47.50 C 45.35 45.01 47.49 43.31 49.88 43.75 C 50.05 44.68 50.39 46.54 50.56 47.46 C 49.59 47.47 47.64 47.49 46.67 47.50 Z" />
<path fill="#000000" opacity="1.00" d=" M 31.09 49.75 C 30.21 47.58 33.02 47.58 34.38 47.36 C 34.47 48.00 34.65 49.29 34.74 49.93 C 33.52 50.20 32.14 50.83 31.09 49.75 Z" />
<path fill="#000000" opacity="1.00" d=" M 50.28 50.11 C 52.87 51.34 53.98 54.20 55.68 56.33 C 59.82 62.54 64.70 68.29 68.34 74.82 C 64.72 71.00 61.96 66.49 58.73 62.36 C 55.94 58.26 52.42 54.62 50.28 50.11 Z" />
<path fill="#000000" opacity="1.00" d=" M 73.48 52.24 C 83.52 51.48 93.57 51.56 103.60 52.19 C 104.81 56.08 103.87 61.07 107.28 63.96 C 107.24 69.52 105.42 74.87 105.44 80.43 C 79.62 80.54 53.80 80.49 27.98 80.54 C 26.73 80.60 25.36 80.55 24.73 79.24 C 37.64 78.58 50.59 79.27 63.51 78.88 C 64.55 76.19 69.64 74.85 70.34 78.37 C 68.39 78.42 66.43 78.44 64.47 78.50 C 67.29 78.76 70.11 78.92 72.93 79.05 C 72.93 77.43 72.94 75.81 72.95 74.19 C 72.49 73.84 71.58 73.14 71.12 72.79 C 70.75 69.80 70.36 66.80 69.97 63.81 C 70.63 63.22 71.29 62.63 71.95 62.04 C 72.41 58.76 72.95 55.50 73.48 52.24 M 75.14 53.89 C 74.56 56.71 74.03 59.55 73.63 62.40 C 75.36 62.31 76.51 61.06 77.65 59.93 C 76.62 57.77 76.81 54.18 79.99 54.30 C 82.77 54.65 82.49 57.84 81.64 59.75 C 82.09 60.35 82.99 61.54 83.44 62.14 C 90.14 62.18 96.84 62.12 103.54 62.19 C 103.19 59.40 102.70 56.62 102.09 53.87 C 93.11 53.46 84.12 53.47 75.14 53.89 M 73.56 64.58 C 71.27 66.71 74.79 69.97 77.01 67.96 C 79.13 65.70 75.61 62.28 73.56 64.58 M 101.22 64.37 C 100.02 65.44 100.17 68.19 102.06 68.37 C 103.86 69.34 106.19 66.82 104.95 65.18 C 104.30 63.70 102.44 63.43 101.22 64.37 M 78.47 68.88 L 78.56 70.31 C 85.44 70.19 92.33 70.53 99.20 70.16 C 99.43 69.87 99.89 69.29 100.12 68.99 C 92.91 68.67 85.69 68.96 78.47 68.88 M 78.42 74.03 C 78.43 75.68 78.43 77.32 78.43 78.97 C 85.64 79.00 92.86 78.98 100.07 78.98 C 100.07 77.33 100.07 75.67 100.07 74.02 C 92.85 74.02 85.64 73.99 78.42 74.03 Z" />
<path fill="#000000" opacity="1.00" d=" M 23.93 54.14 C 24.73 54.07 26.33 53.93 27.12 53.86 C 27.65 55.36 27.98 56.92 28.26 58.49 C 26.86 58.47 25.46 58.43 24.06 58.37 C 23.99 56.96 23.95 55.55 23.93 54.14 Z" />
<path fill="#000000" opacity="1.00" d=" M 37.80 56.82 C 40.34 57.04 43.05 57.08 45.16 58.72 C 44.70 59.89 44.24 61.06 43.80 62.23 C 41.40 62.25 39.01 62.17 36.61 62.03 C 36.87 60.26 37.26 58.52 37.80 56.82 Z" />
<path fill="#000000" opacity="1.00" d=" M 26.84 64.81 C 27.21 62.62 29.46 62.71 31.19 62.59 C 31.19 63.46 31.19 65.18 31.19 66.04 C 29.62 65.98 27.60 66.71 26.84 64.81 Z" />
<path fill="#000000" opacity="1.00" d=" M 39.45 64.76 C 46.19 67.35 52.36 71.17 58.96 74.07 C 60.39 74.67 61.72 75.51 62.63 76.78 C 60.51 76.80 58.39 76.66 56.27 76.58 L 56.83 75.25 C 51.57 76.42 46.32 74.55 41.09 74.05 C 37.62 73.29 33.78 73.66 30.60 71.93 C 38.72 72.24 46.62 74.48 54.70 75.09 C 53.32 73.98 51.55 73.58 49.94 72.91 C 51.03 72.95 53.19 73.02 54.27 73.06 C 49.65 69.74 43.47 68.87 39.45 64.76 Z" />
<path fill="#000000" opacity="1.00" d=" M 18.00 66.24 C 20.36 65.77 23.37 65.94 25.00 67.94 C 25.62 69.96 24.17 71.49 23.01 72.93 C 21.29 72.96 19.57 73.01 17.85 73.06 C 17.88 70.87 15.99 67.82 18.00 66.24 Z" />
<path fill="#000000" opacity="1.00" d=" M 33.53 67.09 C 39.62 68.72 45.64 70.70 51.55 72.89 L 49.94 72.91 C 46.78 72.55 43.87 71.12 40.82 70.29 C 38.32 69.41 35.46 69.09 33.53 67.09 Z" />
</g>
</svg>
