<?xml version="1.0" encoding="UTF-8" ?>
<!DOCTYPE svg PUBLIC "-//W3C//DTD SVG 1.1//EN" "http://www.w3.org/Graphics/SVG/1.1/DTD/svg11.dtd">
<svg width="248pt" height="248pt" viewBox="0 0 248 248" version="1.1" xmlns="http://www.w3.org/2000/svg">
<g id="disabled">
<path fill="#707070" opacity="1.00" d=" M 115.23 2.14 C 136.79 0.80 158.82 4.89 178.10 14.77 C 202.44 26.87 222.39 47.44 233.91 72.05 C 245.55 96.75 248.35 125.42 242.04 151.96 C 236.59 174.85 224.34 196.10 207.16 212.19 C 188.42 230.04 163.80 241.56 138.10 244.54 C 112.02 247.63 84.88 242.26 62.23 228.83 C 40.39 216.15 22.75 196.47 12.43 173.43 C 0.78 147.63 -1.29 117.71 6.41 90.49 C 12.74 67.82 26.00 47.15 43.77 31.73 C 63.54 14.43 89.01 3.91 115.23 2.14 M 104.14 10.14 C 72.04 15.18 42.81 35.31 25.80 62.88 C 16.80 77.10 10.85 93.36 9.23 110.15 C 7.73 118.98 8.49 128.17 8.78 137.13 C 9.95 139.55 9.13 142.38 10.19 144.85 C 10.39 146.55 10.46 148.29 11.10 149.90 C 11.41 151.23 11.70 152.57 12.11 153.87 C 14.89 165.26 19.90 176.04 26.14 185.94 C 40.76 209.55 64.38 227.07 90.81 235.30 C 91.89 235.48 92.98 235.67 94.07 235.87 C 96.67 236.85 99.41 237.39 102.14 237.84 C 104.39 238.59 106.79 238.45 109.11 238.79 C 113.87 240.50 119.43 238.46 124.00 240.54 C 128.36 238.73 133.50 240.01 138.17 239.24 C 140.36 238.30 142.80 238.50 145.12 238.18 C 146.99 237.57 148.97 237.40 150.85 236.84 C 176.71 230.82 200.28 215.41 216.26 194.21 C 224.82 183.17 230.99 170.43 235.29 157.17 C 235.47 156.09 235.67 155.01 235.88 153.94 C 236.24 152.92 236.56 151.88 236.85 150.84 C 238.13 146.69 238.00 142.25 239.19 138.11 C 239.89 126.44 240.29 114.57 237.86 103.08 C 237.58 101.40 237.61 99.64 236.88 98.08 C 236.60 96.73 236.35 95.38 235.90 94.09 C 235.59 92.75 235.32 91.41 234.96 90.08 C 234.60 89.10 234.25 88.11 233.90 87.12 C 230.95 77.81 226.27 69.19 221.21 60.89 C 204.89 36.05 178.93 17.58 149.84 11.16 C 147.67 10.39 145.31 10.57 143.14 9.79 C 130.25 7.98 116.94 7.62 104.14 10.14 Z" />
<path fill="#707070" opacity="1.00" d=" M 72.80 28.69 C 88.84 20.34 106.81 15.72 124.92 15.81 C 140.89 16.10 156.83 19.65 171.17 26.73 C 171.68 26.98 172.68 27.47 173.19 27.72 C 174.50 28.39 175.82 29.05 177.13 29.73 C 178.34 30.61 179.64 31.36 181.04 31.89 C 158.00 54.87 135.38 78.29 112.59 101.52 C 110.53 103.58 108.29 105.48 106.64 107.90 C 105.24 105.60 104.58 102.97 103.41 100.56 C 101.60 97.70 98.01 96.97 94.87 96.82 C 82.62 95.89 70.28 95.90 58.03 96.94 C 54.74 97.02 51.01 98.51 49.90 101.89 C 48.01 107.07 45.71 112.12 44.13 117.41 C 46.13 117.01 48.14 116.64 50.15 116.33 C 51.53 112.62 52.69 108.83 54.20 105.18 C 55.41 102.13 59.20 101.83 62.01 101.68 C 73.01 101.27 84.08 100.99 95.05 102.02 C 99.34 102.26 100.56 106.76 101.53 110.17 C 102.71 113.31 98.92 115.22 97.01 117.05 C 78.08 114.44 58.77 115.88 40.30 120.72 C 40.00 122.04 39.71 123.37 39.44 124.71 C 44.16 124.71 48.88 124.79 53.59 124.63 C 53.88 125.48 54.81 126.88 53.78 127.58 C 49.08 127.92 44.35 127.62 39.64 127.71 C 39.63 128.69 39.61 129.67 39.60 130.65 C 44.37 130.68 49.14 130.65 53.90 130.68 C 53.90 131.19 53.90 132.21 53.90 132.72 C 49.10 132.74 44.29 132.70 39.49 132.74 C 39.83 133.92 40.17 135.10 40.53 136.28 C 53.32 136.33 66.13 135.90 78.91 136.50 C 77.65 137.02 76.35 137.26 75.00 137.24 C 62.78 137.28 50.55 137.14 38.32 137.31 C 38.33 138.97 38.39 140.63 38.51 142.29 C 49.97 142.37 61.43 142.18 72.88 142.38 C 69.68 144.97 66.96 148.09 64.05 151.00 C 53.61 161.54 43.06 172.01 32.94 182.86 C 29.21 176.17 25.24 169.51 22.82 162.19 C 12.43 135.50 13.81 104.78 25.73 78.81 C 27.01 76.63 27.93 74.26 29.16 72.05 C 39.21 53.81 54.60 38.76 72.80 28.69 M 41.57 143.59 C 41.55 146.48 41.57 149.36 41.57 152.25 C 43.38 153.87 45.85 153.50 48.07 153.55 C 50.56 153.42 53.38 154.03 55.46 152.28 C 55.45 149.39 55.45 146.51 55.44 143.62 C 50.81 143.61 46.19 143.57 41.57 143.59 Z" />
<path fill="#707070" opacity="1.00" d=" M 127.92 93.93 C 147.33 74.46 166.28 54.52 185.78 35.14 C 187.63 36.61 189.52 38.05 191.40 39.49 C 175.64 53.71 161.58 69.66 146.50 84.57 C 135.02 96.51 123.54 108.44 111.98 120.30 C 109.11 119.73 106.26 119.09 103.48 118.17 C 104.56 117.66 105.65 117.16 106.74 116.65 C 107.51 116.86 109.06 117.27 109.83 117.47 C 109.53 116.56 108.94 114.74 108.64 113.84 C 114.77 106.93 121.60 100.67 127.92 93.93 Z" />
<path fill="#707070" opacity="1.00" d=" M 171.86 66.88 C 179.64 58.73 187.28 50.40 195.96 43.19 C 197.27 44.47 198.60 45.74 199.94 46.99 C 184.44 62.82 169.01 78.72 153.55 94.59 C 152.77 95.25 152.17 96.28 151.16 96.61 C 147.89 97.07 144.06 97.02 141.75 99.81 C 139.71 102.93 138.91 106.64 137.55 110.06 C 136.03 113.21 133.14 115.36 130.86 117.92 C 124.54 124.27 118.43 130.86 111.89 136.99 C 108.92 137.52 105.86 137.19 102.86 137.06 C 105.44 135.84 108.30 136.29 111.04 136.20 C 113.01 136.49 113.92 134.43 113.92 132.79 C 111.75 132.74 109.59 132.67 107.43 132.49 C 109.32 131.10 111.49 130.28 113.88 130.54 C 113.75 129.65 113.48 127.88 113.34 127.00 C 132.91 107.02 152.16 86.74 171.86 66.88 Z" />
<path fill="#707070" opacity="1.00" d=" M 160.30 95.71 C 175.02 81.03 189.31 65.92 203.88 51.09 C 205.12 52.53 206.40 53.94 207.71 55.32 C 199.56 64.91 190.36 73.55 181.74 82.72 C 177.30 87.24 173.08 91.99 168.35 96.22 C 165.66 96.17 162.97 96.04 160.30 95.71 Z" />
<path fill="#707070" opacity="1.00" d=" M 211.25 60.10 C 212.60 62.59 216.10 64.79 215.29 67.85 C 206.42 76.80 197.35 85.55 188.74 94.76 C 187.91 95.44 187.30 96.59 186.16 96.77 C 183.08 96.72 179.98 96.56 176.95 95.98 C 188.33 83.98 200.07 72.31 211.25 60.10 Z" />
<path fill="#707070" opacity="1.00" d=" M 193.07 98.12 C 201.83 89.55 210.33 80.67 219.07 72.06 C 232.13 96.29 236.01 125.45 228.63 152.07 C 221.04 181.08 200.66 206.26 174.12 220.13 C 147.39 234.07 114.73 236.47 86.52 225.55 C 82.66 224.42 79.19 222.35 75.41 221.04 C 75.39 220.66 75.33 219.90 75.30 219.52 C 82.16 212.95 88.41 205.80 95.11 199.08 C 106.31 187.67 117.58 176.32 128.54 164.69 C 132.27 161.05 135.69 157.09 139.61 153.66 C 139.87 153.63 140.41 153.56 140.67 153.53 C 142.62 153.56 144.56 153.36 146.27 152.37 C 146.25 150.51 146.24 148.66 146.32 146.81 C 147.41 145.01 149.04 143.50 150.80 142.34 C 169.29 142.22 187.78 142.42 206.27 142.21 C 206.35 140.62 206.43 139.02 206.51 137.43 C 194.03 136.85 181.51 137.34 169.01 137.18 C 164.51 137.00 159.86 137.81 155.48 136.40 L 156.47 136.33 C 171.68 136.08 186.90 136.33 202.11 136.20 C 204.23 136.66 204.32 134.04 204.98 132.77 C 199.70 132.50 194.39 133.15 189.16 132.26 C 189.50 131.86 190.20 131.07 190.54 130.68 C 195.26 130.73 199.98 130.71 204.69 130.66 C 204.64 129.67 204.59 128.69 204.55 127.70 C 199.54 127.72 194.52 127.74 189.52 127.67 C 189.42 126.26 189.96 124.32 191.85 124.78 C 196.16 124.67 200.48 124.85 204.80 124.72 C 204.60 123.44 204.41 122.15 204.21 120.87 C 195.15 117.94 185.63 117.05 176.29 115.53 C 180.82 111.65 184.29 106.49 189.16 103.10 C 191.64 107.22 192.70 111.98 194.51 116.40 C 196.59 116.72 198.67 117.05 200.76 117.38 C 198.25 110.93 195.89 104.44 193.07 98.12 M 189.47 143.60 C 190.10 146.71 187.78 151.86 191.41 153.43 C 195.35 153.29 199.98 154.70 203.41 152.23 C 203.39 149.34 203.42 146.46 203.41 143.57 C 198.77 143.53 194.12 143.58 189.47 143.60 Z" />
<path fill="#707070" opacity="1.00" d=" M 150.63 105.64 C 152.31 104.26 153.56 101.77 155.88 101.51 C 158.47 101.44 161.06 101.46 163.66 101.45 C 158.23 106.48 153.48 112.21 148.00 117.17 C 147.77 117.25 147.30 117.39 147.07 117.47 C 144.07 118.02 141.04 118.46 137.99 118.60 C 142.64 114.74 146.24 109.79 150.63 105.64 Z" />
<path fill="#707070" opacity="1.00" d=" M 158.93 114.65 C 162.81 109.86 167.42 105.69 171.79 101.35 C 174.79 101.45 177.79 101.53 180.79 101.60 C 180.71 102.00 180.55 102.79 180.48 103.19 C 176.44 107.41 172.31 111.55 168.19 115.67 C 165.09 115.73 161.99 115.79 158.90 115.87 L 158.93 114.65 Z" />
<path fill="#707070" opacity="1.00" d=" M 66.29 124.34 C 73.75 124.50 81.29 123.77 88.71 124.73 C 87.24 127.76 84.79 130.28 82.03 132.17 C 76.76 132.45 71.46 132.35 66.18 132.15 C 65.86 129.55 65.78 126.92 66.29 124.34 Z" />
<path fill="#707070" opacity="1.00" d=" M 99.69 124.76 C 102.56 124.55 105.45 124.82 108.33 124.74 C 106.84 125.34 105.94 126.77 104.57 127.51 C 102.62 128.00 100.58 127.63 98.60 127.52 C 98.80 126.55 98.83 125.42 99.69 124.76 Z" />
<path fill="#707070" opacity="1.00" d=" M 132.36 124.65 L 132.88 124.67 C 135.60 124.76 138.33 124.83 141.06 124.83 C 140.00 125.70 139.00 126.65 138.07 127.66 L 137.49 127.67 C 135.11 127.69 132.72 127.68 130.34 127.66 C 130.33 128.66 130.32 129.66 130.32 130.66 C 131.91 130.70 133.50 130.75 135.09 130.80 C 133.83 132.19 132.19 133.06 130.42 133.59 C 131.35 135.08 129.71 135.99 128.98 136.98 C 105.33 161.26 81.68 185.53 58.05 209.83 C 56.36 208.52 54.69 207.19 53.05 205.83 C 69.79 188.66 86.45 171.39 103.32 154.36 C 105.94 152.20 110.26 155.06 112.44 152.19 C 113.14 149.22 111.49 145.41 114.11 143.15 C 120.16 136.95 126.13 130.67 132.36 124.65 Z" />
<path fill="#707070" opacity="1.00" d=" M 160.43 131.50 C 163.42 129.53 165.17 125.98 168.32 124.33 C 171.82 124.24 175.33 124.32 178.83 124.34 C 179.02 126.94 179.05 129.55 178.91 132.16 C 172.76 131.97 166.43 133.09 160.43 131.50 Z" />
<path fill="#707070" opacity="1.00" d=" M 99.19 130.67 C 99.98 130.68 101.56 130.69 102.35 130.70 C 101.34 131.42 100.34 132.16 99.34 132.90 C 99.30 132.34 99.23 131.22 99.19 130.67 Z" />
<path fill="#707070" opacity="1.00" d=" M 141.60 133.09 C 141.33 131.74 141.97 130.88 143.51 130.52 C 147.12 131.11 143.67 133.86 141.60 133.09 Z" />
<path fill="#707070" opacity="1.00" d=" M 84.88 137.08 C 88.78 135.47 93.08 136.58 97.15 135.98 C 93.43 138.17 88.96 137.05 84.88 137.08 Z" />
<path fill="#707070" opacity="1.00" d=" M 136.75 137.15 C 137.37 136.71 138.00 136.27 138.63 135.82 C 141.89 136.26 145.19 136.25 148.46 136.54 C 147.86 136.72 146.64 137.09 146.04 137.28 C 142.94 137.24 139.84 137.14 136.75 137.15 Z" />
<path fill="#707070" opacity="1.00" d=" M 80.02 142.97 C 83.31 141.46 87.34 142.66 90.90 142.35 C 82.58 150.22 74.95 158.79 66.91 166.95 C 58.31 175.87 49.47 184.56 41.09 193.69 C 39.45 191.62 37.89 189.50 36.40 187.31 C 50.95 172.55 65.26 157.53 80.02 142.97 Z" />
<path fill="#707070" opacity="1.00" d=" M 96.46 144.48 C 99.00 140.82 104.07 142.50 107.72 142.76 C 104.82 143.81 101.72 143.65 98.69 143.62 C 98.37 146.45 99.78 150.09 97.29 152.24 C 81.24 168.85 64.94 185.21 48.94 201.87 C 47.75 200.76 46.57 199.64 45.38 198.53 C 45.43 198.14 45.53 197.37 45.57 196.99 C 62.67 179.64 79.54 162.02 96.46 144.48 Z" />
<path fill="#707070" opacity="1.00" d=" M 126.56 147.53 C 128.46 145.81 129.96 143.47 132.28 142.31 C 135.72 142.19 139.15 142.39 142.58 142.55 C 142.01 142.80 140.88 143.31 140.31 143.57 C 137.63 143.61 134.95 143.56 132.27 143.56 C 132.27 146.59 132.29 149.63 132.37 152.66 C 111.27 174.36 90.16 196.04 69.07 217.75 C 67.51 215.87 65.07 215.19 63.21 213.70 C 63.27 213.41 63.40 212.82 63.47 212.53 C 84.38 190.75 105.69 169.36 126.56 147.53 Z" />
<path fill="#000000" opacity="1.00" d=" M 104.14 10.14 C 116.94 7.62 130.25 7.98 143.14 9.79 C 145.31 10.57 147.67 10.39 149.84 11.16 C 178.93 17.58 204.89 36.05 221.21 60.89 C 226.27 69.19 230.95 77.81 233.90 87.12 C 234.25 88.11 234.60 89.10 234.96 90.08 C 235.32 91.41 235.59 92.75 235.90 94.09 C 236.35 95.38 236.60 96.73 236.88 98.08 C 237.61 99.64 237.58 101.40 237.86 103.08 C 240.29 114.57 239.89 126.44 239.19 138.11 C 238.00 142.25 238.13 146.69 236.85 150.84 C 236.56 151.88 236.24 152.92 235.88 153.94 C 235.67 155.01 235.47 156.09 235.29 157.17 C 230.99 170.43 224.82 183.17 216.26 194.21 C 200.28 215.41 176.71 230.82 150.85 236.84 C 148.97 237.40 146.99 237.57 145.12 238.18 C 142.80 238.50 140.36 238.30 138.17 239.24 C 133.50 240.01 128.36 238.73 124.00 240.54 C 119.43 238.46 113.87 240.50 109.11 238.79 C 106.79 238.45 104.39 238.59 102.14 237.84 C 99.41 237.39 96.67 236.85 94.07 235.87 C 92.98 235.67 91.89 235.48 90.81 235.30 C 64.38 227.07 40.76 209.55 26.14 185.94 C 19.90 176.04 14.89 165.26 12.11 153.87 C 11.70 152.57 11.41 151.23 11.10 149.90 C 10.46 148.29 10.39 146.55 10.19 144.85 C 9.13 142.38 9.95 139.55 8.78 137.13 C 8.49 128.17 7.73 118.98 9.23 110.15 C 10.85 93.36 16.80 77.10 25.80 62.88 C 42.81 35.31 72.04 15.18 104.14 10.14 M 72.80 28.69 C 54.60 38.76 39.21 53.81 29.16 72.05 C 27.93 74.26 27.01 76.63 25.73 78.81 C 13.81 104.78 12.43 135.50 22.82 162.19 C 25.24 169.51 29.21 176.17 32.94 182.86 C 43.06 172.01 53.61 161.54 64.05 151.00 C 66.96 148.09 69.68 144.97 72.88 142.38 C 61.43 142.18 49.97 142.37 38.51 142.29 C 38.39 140.63 38.33 138.97 38.32 137.31 C 50.55 137.14 62.78 137.28 75.00 137.24 C 76.35 137.26 77.65 137.02 78.91 136.50 C 66.13 135.90 53.32 136.33 40.53 136.28 C 40.17 135.10 39.83 133.92 39.49 132.74 C 44.29 132.70 49.10 132.74 53.90 132.72 C 53.90 132.21 53.90 131.19 53.90 130.68 C 49.14 130.65 44.37 130.68 39.60 130.65 C 39.61 129.67 39.63 128.69 39.64 127.71 C 44.35 127.62 49.08 127.92 53.78 127.58 C 54.81 126.88 53.88 125.48 53.59 124.63 C 48.88 124.79 44.16 124.71 39.44 124.71 C 39.71 123.37 40.00 122.04 40.30 120.72 C 58.77 115.88 78.08 114.44 97.01 117.05 C 98.92 115.22 102.71 113.31 101.53 110.17 C 100.56 106.76 99.34 102.26 95.05 102.02 C 84.08 100.99 73.01 101.27 62.01 101.68 C 59.20 101.83 55.41 102.13 54.20 105.18 C 52.69 108.83 51.53 112.62 50.15 116.33 C 48.14 116.64 46.13 117.01 44.13 117.41 C 45.71 112.12 48.01 107.07 49.90 101.89 C 51.01 98.51 54.74 97.02 58.03 96.94 C 70.28 95.90 82.62 95.89 94.87 96.82 C 98.01 96.97 101.60 97.70 103.41 100.56 C 104.58 102.97 105.24 105.60 106.64 107.90 C 108.29 105.48 110.53 103.58 112.59 101.52 C 135.38 78.29 158.00 54.87 181.04 31.89 C 179.64 31.36 178.34 30.61 177.13 29.73 C 175.82 29.05 174.50 28.39 173.19 27.72 C 172.68 27.47 171.68 26.98 171.17 26.73 C 156.83 19.65 140.89 16.10 124.92 15.81 C 106.81 15.72 88.84 20.34 72.80 28.69 M 127.92 93.93 C 121.60 100.67 114.77 106.93 108.64 113.84 C 108.94 114.74 109.53 116.56 109.83 117.47 C 109.06 117.27 107.51 116.86 106.74 116.65 C 105.65 117.16 104.56 117.66 103.48 118.17 C 106.26 119.09 109.11 119.73 111.98 120.30 C 123.54 108.44 135.02 96.51 146.50 84.57 C 161.58 69.66 175.64 53.71 191.40 39.49 C 189.52 38.05 187.63 36.61 185.78 35.14 C 166.28 54.52 147.33 74.46 127.92 93.93 M 171.86 66.88 C 152.16 86.74 132.91 107.02 113.34 127.00 C 113.48 127.88 113.75 129.65 113.88 130.54 C 111.49 130.28 109.32 131.10 107.43 132.49 C 109.59 132.67 111.75 132.74 113.92 132.79 C 113.92 134.43 113.01 136.49 111.04 136.20 C 108.30 136.29 105.44 135.84 102.86 137.06 C 105.86 137.19 108.92 137.52 111.89 136.99 C 118.43 130.86 124.54 124.27 130.86 117.92 C 133.14 115.36 136.03 113.21 137.55 110.06 C 142.51 106.08 146.73 101.19 151.16 96.61 C 152.17 96.28 152.77 95.25 153.55 94.59 C 169.01 78.72 184.44 62.82 199.94 46.99 C 198.60 45.74 197.27 44.47 195.96 43.19 C 187.28 50.40 179.64 58.73 171.86 66.88 M 160.30 95.71 L 159.98 95.67 C 158.51 97.55 157.13 99.49 155.88 101.51 C 153.56 101.77 152.31 104.26 150.63 105.64 C 146.24 109.79 142.64 114.74 137.99 118.60 L 137.38 118.64 C 136.11 120.82 134.48 122.74 132.88 124.67 L 132.36 124.65 C 126.13 130.67 120.16 136.95 114.11 143.15 C 111.49 145.41 113.14 149.22 112.44 152.19 C 110.26 155.06 105.94 152.20 103.32 154.36 C 86.45 171.39 69.79 188.66 53.05 205.83 C 54.69 207.19 56.36 208.52 58.05 209.83 C 81.68 185.53 105.33 161.26 128.98 136.98 C 129.71 135.99 131.35 135.08 130.42 133.59 C 132.19 133.06 133.83 132.19 135.09 130.80 L 135.40 130.80 C 136.10 129.76 136.79 128.71 137.49 127.67 L 138.07 127.66 C 139.00 126.65 140.00 125.70 141.06 124.83 C 142.73 122.10 145.31 120.12 147.07 117.47 C 147.30 117.39 147.77 117.25 148.00 117.17 C 153.48 112.21 158.23 106.48 163.66 101.45 L 163.90 101.45 C 165.22 99.58 166.68 97.80 168.35 96.22 C 173.08 91.99 177.30 87.24 181.74 82.72 C 190.36 73.55 199.56 64.91 207.71 55.32 C 206.40 53.94 205.12 52.53 203.88 51.09 C 189.31 65.92 175.02 81.03 160.30 95.71 M 211.25 60.10 C 200.07 72.31 188.33 83.98 176.95 95.98 L 176.27 95.85 C 175.31 98.08 173.52 99.73 171.79 101.35 C 167.42 105.69 162.81 109.86 158.93 114.65 L 158.94 113.35 C 154.73 119.87 148.84 124.95 143.51 130.52 C 141.97 130.88 141.33 131.74 141.60 133.09 C 140.32 133.63 139.33 134.54 138.63 135.82 C 138.00 136.27 137.37 136.71 136.75 137.15 C 135.17 138.79 133.65 140.48 132.28 142.31 C 129.96 143.47 128.46 145.81 126.56 147.53 C 105.69 169.36 84.38 190.75 63.47 212.53 C 63.40 212.82 63.27 213.41 63.21 213.70 C 65.07 215.19 67.51 215.87 69.07 217.75 C 90.16 196.04 111.27 174.36 132.37 152.66 C 134.90 149.53 138.02 146.90 140.31 143.57 C 140.88 143.31 142.01 142.80 142.58 142.55 C 143.94 140.94 144.98 139.10 146.04 137.28 C 146.64 137.09 147.86 136.72 148.46 136.54 C 150.17 133.94 152.25 131.60 154.59 129.56 C 156.37 128.02 158.67 127.01 159.89 124.90 C 161.99 121.27 165.27 118.60 168.19 115.67 C 172.31 111.55 176.44 107.41 180.48 103.19 C 182.99 101.76 183.88 98.58 186.16 96.77 C 187.30 96.59 187.91 95.44 188.74 94.76 C 197.35 85.55 206.42 76.80 215.29 67.85 C 216.10 64.79 212.60 62.59 211.25 60.10 M 193.07 98.12 C 191.71 99.73 190.44 101.42 189.16 103.10 C 184.29 106.49 180.82 111.65 176.29 115.53 L 175.96 115.45 C 173.97 118.87 170.68 121.21 168.32 124.33 C 165.17 125.98 163.42 129.53 160.43 131.50 C 159.20 133.18 157.90 134.81 156.47 136.33 L 155.48 136.40 C 154.32 138.67 152.50 140.48 150.80 142.34 C 149.04 143.50 147.41 145.01 146.32 146.81 C 144.12 148.76 141.95 150.84 140.67 153.53 C 140.41 153.56 139.87 153.63 139.61 153.66 C 135.69 157.09 132.27 161.05 128.54 164.69 C 117.58 176.32 106.31 187.67 95.11 199.08 C 88.41 205.80 82.16 212.95 75.30 219.52 C 75.33 219.90 75.39 220.66 75.41 221.04 C 79.19 222.35 82.66 224.42 86.52 225.55 C 114.73 236.47 147.39 234.07 174.12 220.13 C 200.66 206.26 221.04 181.08 228.63 152.07 C 236.01 125.45 232.13 96.29 219.07 72.06 C 210.33 80.67 201.83 89.55 193.07 98.12 M 66.29 124.34 C 65.78 126.92 65.86 129.55 66.18 132.15 C 71.46 132.35 76.76 132.45 82.03 132.17 C 84.79 130.28 87.24 127.76 88.71 124.73 C 81.29 123.77 73.75 124.50 66.29 124.34 M 99.69 124.76 C 98.83 125.42 98.80 126.55 98.60 127.52 C 100.58 127.63 102.62 128.00 104.57 127.51 C 105.94 126.77 106.84 125.34 108.33 124.74 C 105.45 124.82 102.56 124.55 99.69 124.76 M 99.19 130.67 C 99.23 131.22 99.30 132.34 99.34 132.90 C 100.34 132.16 101.34 131.42 102.35 130.70 C 101.56 130.69 99.98 130.68 99.19 130.67 M 84.88 137.08 C 88.96 137.05 93.43 138.17 97.15 135.98 C 93.08 136.58 88.78 135.47 84.88 137.08 M 80.02 142.97 C 65.26 157.53 50.95 172.55 36.40 187.31 C 37.89 189.50 39.45 191.62 41.09 193.69 C 49.47 184.56 58.31 175.87 66.91 166.95 C 74.95 158.79 82.58 150.22 90.90 142.35 C 87.34 142.66 83.31 141.46 80.02 142.97 M 96.46 144.48 C 79.54 162.02 62.67 179.64 45.57 196.99 C 45.53 197.37 45.43 198.14 45.38 198.53 C 46.57 199.64 47.75 200.76 48.94 201.87 C 64.94 185.21 81.24 168.85 97.29 152.24 C 99.78 150.09 98.37 146.45 98.69 143.62 C 101.72 143.65 104.82 143.81 107.72 142.76 C 104.07 142.50 99.00 140.82 96.46 144.48 Z" />
<path fill="#000000" opacity="1.00" d=" M 41.57 143.59 C 46.19 143.57 50.81 143.61 55.44 143.62 C 55.45 146.51 55.45 149.39 55.46 152.28 C 53.38 154.03 50.56 153.42 48.07 153.55 C 45.85 153.50 43.38 153.87 41.57 152.25 C 41.57 149.36 41.55 146.48 41.57 143.59 Z" />
<path fill="#3c3c3c" opacity="1.00" d=" M 159.98 95.67 L 160.30 95.71 C 162.97 96.04 165.66 96.17 168.35 96.22 C 166.68 97.80 165.22 99.58 163.90 101.45 L 163.66 101.45 C 161.06 101.46 158.47 101.44 155.88 101.51 C 157.13 99.49 158.51 97.55 159.98 95.67 Z" />
<path fill="#3c3c3c" opacity="1.00" d=" M 176.27 95.85 L 176.95 95.98 C 179.98 96.56 183.08 96.72 186.16 96.77 C 183.88 98.58 182.99 101.76 180.48 103.19 C 180.55 102.79 180.71 102.00 180.79 101.60 C 177.79 101.53 174.79 101.45 171.79 101.35 C 173.52 99.73 175.31 98.08 176.27 95.85 Z" />
<path fill="#3c3c3c" opacity="1.00" d=" M 141.75 99.81 C 144.06 97.02 147.89 97.07 151.16 96.61 C 146.73 101.19 142.51 106.08 137.55 110.06 C 138.91 106.64 139.71 102.93 141.75 99.81 Z" />
<path fill="#3c3c3c" opacity="1.00" d=" M 189.16 103.10 C 190.44 101.42 191.71 99.73 193.07 98.12 C 195.89 104.44 198.25 110.93 200.76 117.38 C 198.67 117.05 196.59 116.72 194.51 116.40 C 192.70 111.98 191.64 107.22 189.16 103.10 Z" />
<path fill="#3c3c3c" opacity="1.00" d=" M 143.51 130.52 C 148.84 124.95 154.73 119.87 158.94 113.35 L 158.93 114.65 L 158.90 115.87 C 161.99 115.79 165.09 115.73 168.19 115.67 C 165.27 118.60 161.99 121.27 159.89 124.90 C 158.67 127.01 156.37 128.02 154.59 129.56 C 152.25 131.60 150.17 133.94 148.46 136.54 C 145.19 136.25 141.89 136.26 138.63 135.82 C 139.33 134.54 140.32 133.63 141.60 133.09 C 143.67 133.86 147.12 131.11 143.51 130.52 Z" />
<path fill="#3c3c3c" opacity="1.00" d=" M 175.96 115.45 L 176.29 115.53 C 185.63 117.05 195.15 117.94 204.21 120.87 C 204.41 122.15 204.60 123.44 204.80 124.72 C 200.48 124.85 196.16 124.67 191.85 124.78 C 189.96 124.32 189.42 126.26 189.52 127.67 C 194.52 127.74 199.54 127.72 204.55 127.70 C 204.59 128.69 204.64 129.67 204.69 130.66 C 199.98 130.71 195.26 130.73 190.54 130.68 C 190.20 131.07 189.50 131.86 189.16 132.26 C 194.39 133.15 199.70 132.50 204.98 132.77 C 204.32 134.04 204.23 136.66 202.11 136.20 C 186.90 136.33 171.68 136.08 156.47 136.33 C 157.90 134.81 159.20 133.18 160.43 131.50 C 166.43 133.09 172.76 131.97 178.91 132.16 C 179.05 129.55 179.02 126.94 178.83 124.34 C 175.33 124.32 171.82 124.24 168.32 124.33 C 170.68 121.21 173.97 118.87 175.96 115.45 Z" />
<path fill="#3c3c3c" opacity="1.00" d=" M 137.38 118.64 L 137.99 118.60 C 141.04 118.46 144.07 118.02 147.07 117.47 C 145.31 120.12 142.73 122.10 141.06 124.83 C 138.33 124.83 135.60 124.76 132.88 124.67 C 134.48 122.74 136.11 120.82 137.38 118.64 Z" />
<path fill="#3c3c3c" opacity="1.00" d=" M 130.32 130.66 C 130.32 129.66 130.33 128.66 130.34 127.66 C 132.72 127.68 135.11 127.69 137.49 127.67 C 136.79 128.71 136.10 129.76 135.40 130.80 L 135.09 130.80 C 133.50 130.75 131.91 130.70 130.32 130.66 Z" />
<path fill="#3c3c3c" opacity="1.00" d=" M 150.80 142.34 C 152.50 140.48 154.32 138.67 155.48 136.40 C 159.86 137.81 164.51 137.00 169.01 137.18 C 181.51 137.34 194.03 136.85 206.51 137.43 C 206.43 139.02 206.35 140.62 206.27 142.21 C 187.78 142.42 169.29 142.22 150.80 142.34 Z" />
<path fill="#3c3c3c" opacity="1.00" d=" M 132.28 142.31 C 133.65 140.48 135.17 138.79 136.75 137.15 C 139.84 137.14 142.94 137.24 146.04 137.28 C 144.98 139.10 143.94 140.94 142.58 142.55 C 139.15 142.39 135.72 142.19 132.28 142.31 Z" />
<path fill="#3c3c3c" opacity="1.00" d=" M 132.27 143.56 C 134.95 143.56 137.63 143.61 140.31 143.57 C 138.02 146.90 134.90 149.53 132.37 152.66 C 132.29 149.63 132.27 146.59 132.27 143.56 Z" />
<path fill="#3c3c3c" opacity="1.00" d=" M 189.47 143.60 C 194.12 143.58 198.77 143.53 203.41 143.57 C 203.42 146.46 203.39 149.34 203.41 152.23 C 199.98 154.70 195.35 153.29 191.41 153.43 C 187.78 151.86 190.10 146.71 189.47 143.60 Z" />
<path fill="#3c3c3c" opacity="1.00" d=" M 140.67 153.53 C 141.95 150.84 144.12 148.76 146.32 146.81 C 146.24 148.66 146.25 150.51 146.27 152.37 C 144.56 153.36 142.62 153.56 140.67 153.53 Z" />
</g>
<g id="normal">
<path fill="#ffffff" opacity="1.00" d=" M 115.23 2.14 C 136.79 0.80 158.82 4.89 178.10 14.77 C 202.44 26.87 222.39 47.44 233.91 72.05 C 245.55 96.75 248.35 125.42 242.04 151.96 C 236.59 174.85 224.34 196.10 207.16 212.19 C 188.42 230.04 163.80 241.56 138.10 244.54 C 112.02 247.63 84.88 242.26 62.23 228.83 C 40.39 216.15 22.75 196.47 12.43 173.43 C 0.78 147.63 -1.29 117.71 6.41 90.49 C 12.74 67.82 26.00 47.15 43.77 31.73 C 63.54 14.43 89.01 3.91 115.23 2.14 M 104.14 10.14 C 72.04 15.18 42.81 35.31 25.80 62.88 C 16.80 77.10 10.85 93.36 9.23 110.15 C 7.73 118.98 8.49 128.17 8.78 137.13 C 9.95 139.55 9.13 142.38 10.19 144.85 C 10.39 146.55 10.46 148.29 11.10 149.90 C 11.41 151.23 11.70 152.57 12.11 153.87 C 14.89 165.26 19.90 176.04 26.14 185.94 C 40.76 209.55 64.38 227.07 90.81 235.30 C 91.89 235.48 92.98 235.67 94.07 235.87 C 96.67 236.85 99.41 237.39 102.14 237.84 C 104.39 238.59 106.79 238.45 109.11 238.79 C 113.87 240.50 119.43 238.46 124.00 240.54 C 128.36 238.73 133.50 240.01 138.17 239.24 C 140.36 238.30 142.80 238.50 145.12 238.18 C 146.99 237.57 148.97 237.40 150.85 236.84 C 176.71 230.82 200.28 215.41 216.26 194.21 C 224.82 183.17 230.99 170.43 235.29 157.17 C 235.47 156.09 235.67 155.01 235.88 153.94 C 236.24 152.92 236.56 151.88 236.85 150.84 C 238.13 146.69 238.00 142.25 239.19 138.11 C 239.89 126.44 240.29 114.57 237.86 103.08 C 237.58 101.40 237.61 99.64 236.88 98.08 C 236.60 96.73 236.35 95.38 235.90 94.09 C 235.59 92.75 235.32 91.41 234.96 90.08 C 234.60 89.10 234.25 88.11 233.90 87.12 C 230.95 77.81 226.27 69.19 221.21 60.89 C 204.89 36.05 178.93 17.58 149.84 11.16 C 147.67 10.39 145.31 10.57 143.14 9.79 C 130.25 7.98 116.94 7.62 104.14 10.14 Z" />
<path fill="#ffffff" opacity="1.00" d=" M 72.80 28.69 C 88.84 20.34 106.81 15.72 124.92 15.81 C 140.89 16.10 156.83 19.65 171.17 26.73 C 171.68 26.98 172.68 27.47 173.19 27.72 C 174.50 28.39 175.82 29.05 177.13 29.73 C 178.34 30.61 179.64 31.36 181.04 31.89 C 158.00 54.87 135.38 78.29 112.59 101.52 C 110.53 103.58 108.29 105.48 106.64 107.90 C 105.24 105.60 104.58 102.97 103.41 100.56 C 101.60 97.70 98.01 96.97 94.87 96.82 C 82.62 95.89 70.28 95.90 58.03 96.94 C 54.74 97.02 51.01 98.51 49.90 101.89 C 48.01 107.07 45.71 112.12 44.13 117.41 C 46.13 117.01 48.14 116.64 50.15 116.33 C 51.53 112.62 52.69 108.83 54.20 105.18 C 55.41 102.13 59.20 101.83 62.01 101.68 C 73.01 101.27 84.08 100.99 95.05 102.02 C 99.34 102.26 100.56 106.76 101.53 110.17 C 102.71 113.31 98.92 115.22 97.01 117.05 C 78.08 114.44 58.77 115.88 40.30 120.72 C 40.00 122.04 39.71 123.37 39.44 124.71 C 44.16 124.71 48.88 124.79 53.59 124.63 C 53.88 125.48 54.81 126.88 53.78 127.58 C 49.08 127.92 44.35 127.62 39.64 127.71 C 39.63 128.69 39.61 129.67 39.60 130.65 C 44.37 130.68 49.14 130.65 53.90 130.68 C 53.90 131.19 53.90 132.21 53.90 132.72 C 49.10 132.74 44.29 132.70 39.49 132.74 C 39.83 133.92 40.17 135.10 40.53 136.28 C 53.32 136.33 66.13 135.90 78.91 136.50 C 77.65 137.02 76.35 137.26 75.00 137.24 C 62.78 137.28 50.55 137.14 38.32 137.31 C 38.33 138.97 38.39 140.63 38.51 142.29 C 49.97 142.37 61.43 142.18 72.88 142.38 C 69.68 144.97 66.96 148.09 64.05 151.00 C 53.61 161.54 43.06 172.01 32.94 182.86 C 29.21 176.17 25.24 169.51 22.82 162.19 C 12.43 135.50 13.81 104.78 25.73 78.81 C 27.01 76.63 27.93 74.26 29.16 72.05 C 39.21 53.81 54.60 38.76 72.80 28.69 M 41.57 143.59 C 41.55 146.48 41.57 149.36 41.57 152.25 C 43.38 153.87 45.85 153.50 48.07 153.55 C 50.56 153.42 53.38 154.03 55.46 152.28 C 55.45 149.39 55.45 146.51 55.44 143.62 C 50.81 143.61 46.19 143.57 41.57 143.59 Z" />
<path fill="#ffffff" opacity="1.00" d=" M 127.92 93.93 C 147.33 74.46 166.28 54.52 185.78 35.14 C 187.63 36.61 189.52 38.05 191.40 39.49 C 175.64 53.71 161.58 69.66 146.50 84.57 C 135.02 96.51 123.54 108.44 111.98 120.30 C 109.11 119.73 106.26 119.09 103.48 118.17 C 104.56 117.66 105.65 117.16 106.74 116.65 C 107.51 116.86 109.06 117.27 109.83 117.47 C 109.53 116.56 108.94 114.74 108.64 113.84 C 114.77 106.93 121.60 100.67 127.92 93.93 Z" />
<path fill="#ffffff" opacity="1.00" d=" M 171.86 66.88 C 179.64 58.73 187.28 50.40 195.96 43.19 C 197.27 44.47 198.60 45.74 199.94 46.99 C 184.44 62.82 169.01 78.72 153.55 94.59 C 152.77 95.25 152.17 96.28 151.16 96.61 C 147.89 97.07 144.06 97.02 141.75 99.81 C 139.71 102.93 138.91 106.64 137.55 110.06 C 136.03 113.21 133.14 115.36 130.86 117.92 C 124.54 124.27 118.43 130.86 111.89 136.99 C 108.92 137.52 105.86 137.19 102.86 137.06 C 105.44 135.84 108.30 136.29 111.04 136.20 C 113.01 136.49 113.92 134.43 113.92 132.79 C 111.75 132.74 109.59 132.67 107.43 132.49 C 109.32 131.10 111.49 130.28 113.88 130.54 C 113.75 129.65 113.48 127.88 113.34 127.00 C 132.91 107.02 152.16 86.74 171.86 66.88 Z" />
<path fill="#ffffff" opacity="1.00" d=" M 160.30 95.71 C 175.02 81.03 189.31 65.92 203.88 51.09 C 205.12 52.53 206.40 53.94 207.71 55.32 C 199.56 64.91 190.36 73.55 181.74 82.72 C 177.30 87.24 173.08 91.99 168.35 96.22 C 165.66 96.17 162.97 96.04 160.30 95.71 Z" />
<path fill="#ffffff" opacity="1.00" d=" M 211.25 60.10 C 212.60 62.59 216.10 64.79 215.29 67.85 C 206.42 76.80 197.35 85.55 188.74 94.76 C 187.91 95.44 187.30 96.59 186.16 96.77 C 183.08 96.72 179.98 96.56 176.95 95.98 C 188.33 83.98 200.07 72.31 211.25 60.10 Z" />
<path fill="#ffffff" opacity="1.00" d=" M 193.07 98.12 C 201.83 89.55 210.33 80.67 219.07 72.06 C 232.13 96.29 236.01 125.45 228.63 152.07 C 221.04 181.08 200.66 206.26 174.12 220.13 C 147.39 234.07 114.73 236.47 86.52 225.55 C 82.66 224.42 79.19 222.35 75.41 221.04 C 75.39 220.66 75.33 219.90 75.30 219.52 C 82.16 212.95 88.41 205.80 95.11 199.08 C 106.31 187.67 117.58 176.32 128.54 164.69 C 132.27 161.05 135.69 157.09 139.61 153.66 C 139.87 153.63 140.41 153.56 140.67 153.53 C 142.62 153.56 144.56 153.36 146.27 152.37 C 146.25 150.51 146.24 148.66 146.32 146.81 C 147.41 145.01 149.04 143.50 150.80 142.34 C 169.29 142.22 187.78 142.42 206.27 142.21 C 206.35 140.62 206.43 139.02 206.51 137.43 C 194.03 136.85 181.51 137.34 169.01 137.18 C 164.51 137.00 159.86 137.81 155.48 136.40 L 156.47 136.33 C 171.68 136.08 186.90 136.33 202.11 136.20 C 204.23 136.66 204.32 134.04 204.98 132.77 C 199.70 132.50 194.39 133.15 189.16 132.26 C 189.50 131.86 190.20 131.07 190.54 130.68 C 195.26 130.73 199.98 130.71 204.69 130.66 C 204.64 129.67 204.59 128.69 204.55 127.70 C 199.54 127.72 194.52 127.74 189.52 127.67 C 189.42 126.26 189.96 124.32 191.85 124.78 C 196.16 124.67 200.48 124.85 204.80 124.72 C 204.60 123.44 204.41 122.15 204.21 120.87 C 195.15 117.94 185.63 117.05 176.29 115.53 C 180.82 111.65 184.29 106.49 189.16 103.10 C 191.64 107.22 192.70 111.98 194.51 116.40 C 196.59 116.72 198.67 117.05 200.76 117.38 C 198.25 110.93 195.89 104.44 193.07 98.12 M 189.47 143.60 C 190.10 146.71 187.78 151.86 191.41 153.43 C 195.35 153.29 199.98 154.70 203.41 152.23 C 203.39 149.34 203.42 146.46 203.41 143.57 C 198.77 143.53 194.12 143.58 189.47 143.60 Z" />
<path fill="#ffffff" opacity="1.00" d=" M 150.63 105.64 C 152.31 104.26 153.56 101.77 155.88 101.51 C 158.47 101.44 161.06 101.46 163.66 101.45 C 158.23 106.48 153.48 112.21 148.00 117.17 C 147.77 117.25 147.30 117.39 147.07 117.47 C 144.07 118.02 141.04 118.46 137.99 118.60 C 142.64 114.74 146.24 109.79 150.63 105.64 Z" />
<path fill="#ffffff" opacity="1.00" d=" M 158.93 114.65 C 162.81 109.86 167.42 105.69 171.79 101.35 C 174.79 101.45 177.79 101.53 180.79 101.60 C 180.71 102.00 180.55 102.79 180.48 103.19 C 176.44 107.41 172.31 111.55 168.19 115.67 C 165.09 115.73 161.99 115.79 158.90 115.87 L 158.93 114.65 Z" />
<path fill="#ffffff" opacity="1.00" d=" M 66.29 124.34 C 73.75 124.50 81.29 123.77 88.71 124.73 C 87.24 127.76 84.79 130.28 82.03 132.17 C 76.76 132.45 71.46 132.35 66.18 132.15 C 65.86 129.55 65.78 126.92 66.29 124.34 Z" />
<path fill="#ffffff" opacity="1.00" d=" M 99.69 124.76 C 102.56 124.55 105.45 124.82 108.33 124.74 C 106.84 125.34 105.94 126.77 104.57 127.51 C 102.62 128.00 100.58 127.63 98.60 127.52 C 98.80 126.55 98.83 125.42 99.69 124.76 Z" />
<path fill="#ffffff" opacity="1.00" d=" M 132.36 124.65 L 132.88 124.67 C 135.60 124.76 138.33 124.83 141.06 124.83 C 140.00 125.70 139.00 126.65 138.07 127.66 L 137.49 127.67 C 135.11 127.69 132.72 127.68 130.34 127.66 C 130.33 128.66 130.32 129.66 130.32 130.66 C 131.91 130.70 133.50 130.75 135.09 130.80 C 133.83 132.19 132.19 133.06 130.42 133.59 C 131.35 135.08 129.71 135.99 128.98 136.98 C 105.33 161.26 81.68 185.53 58.05 209.83 C 56.36 208.52 54.69 207.19 53.05 205.83 C 69.79 188.66 86.45 171.39 103.32 154.36 C 105.94 152.20 110.26 155.06 112.44 152.19 C 113.14 149.22 111.49 145.41 114.11 143.15 C 120.16 136.95 126.13 130.67 132.36 124.65 Z" />
<path fill="#ffffff" opacity="1.00" d=" M 160.43 131.50 C 163.42 129.53 165.17 125.98 168.32 124.33 C 171.82 124.24 175.33 124.32 178.83 124.34 C 179.02 126.94 179.05 129.55 178.91 132.16 C 172.76 131.97 166.43 133.09 160.43 131.50 Z" />
<path fill="#ffffff" opacity="1.00" d=" M 99.19 130.67 C 99.98 130.68 101.56 130.69 102.35 130.70 C 101.34 131.42 100.34 132.16 99.34 132.90 C 99.30 132.34 99.23 131.22 99.19 130.67 Z" />
<path fill="#ffffff" opacity="1.00" d=" M 141.60 133.09 C 141.33 131.74 141.97 130.88 143.51 130.52 C 147.12 131.11 143.67 133.86 141.60 133.09 Z" />
<path fill="#ffffff" opacity="1.00" d=" M 84.88 137.08 C 88.78 135.47 93.08 136.58 97.15 135.98 C 93.43 138.17 88.96 137.05 84.88 137.08 Z" />
<path fill="#ffffff" opacity="1.00" d=" M 136.75 137.15 C 137.37 136.71 138.00 136.27 138.63 135.82 C 141.89 136.26 145.19 136.25 148.46 136.54 C 147.86 136.72 146.64 137.09 146.04 137.28 C 142.94 137.24 139.84 137.14 136.75 137.15 Z" />
<path fill="#ffffff" opacity="1.00" d=" M 80.02 142.97 C 83.31 141.46 87.34 142.66 90.90 142.35 C 82.58 150.22 74.95 158.79 66.91 166.95 C 58.31 175.87 49.47 184.56 41.09 193.69 C 39.45 191.62 37.89 189.50 36.40 187.31 C 50.95 172.55 65.26 157.53 80.02 142.97 Z" />
<path fill="#ffffff" opacity="1.00" d=" M 96.46 144.48 C 99.00 140.82 104.07 142.50 107.72 142.76 C 104.82 143.81 101.72 143.65 98.69 143.62 C 98.37 146.45 99.78 150.09 97.29 152.24 C 81.24 168.85 64.94 185.21 48.94 201.87 C 47.75 200.76 46.57 199.64 45.38 198.53 C 45.43 198.14 45.53 197.37 45.57 196.99 C 62.67 179.64 79.54 162.02 96.46 144.48 Z" />
<path fill="#ffffff" opacity="1.00" d=" M 126.56 147.53 C 128.46 145.81 129.96 143.47 132.28 142.31 C 135.72 142.19 139.15 142.39 142.58 142.55 C 142.01 142.80 140.88 143.31 140.31 143.57 C 137.63 143.61 134.95 143.56 132.27 143.56 C 132.27 146.59 132.29 149.63 132.37 152.66 C 111.27 174.36 90.16 196.04 69.07 217.75 C 67.51 215.87 65.07 215.19 63.21 213.70 C 63.27 213.41 63.40 212.82 63.47 212.53 C 84.38 190.75 105.69 169.36 126.56 147.53 Z" />
<path fill="#000000" opacity="1.00" d=" M 104.14 10.14 C 116.94 7.62 130.25 7.98 143.14 9.79 C 145.31 10.57 147.67 10.39 149.84 11.16 C 178.93 17.58 204.89 36.05 221.21 60.89 C 226.27 69.19 230.95 77.81 233.90 87.12 C 234.25 88.11 234.60 89.10 234.96 90.08 C 235.32 91.41 235.59 92.75 235.90 94.09 C 236.35 95.38 236.60 96.73 236.88 98.08 C 237.61 99.64 237.58 101.40 237.86 103.08 C 240.29 114.57 239.89 126.44 239.19 138.11 C 238.00 142.25 238.13 146.69 236.85 150.84 C 236.56 151.88 236.24 152.92 235.88 153.94 C 235.67 155.01 235.47 156.09 235.29 157.17 C 230.99 170.43 224.82 183.17 216.26 194.21 C 200.28 215.41 176.71 230.82 150.85 236.84 C 148.97 237.40 146.99 237.57 145.12 238.18 C 142.80 238.50 140.36 238.30 138.17 239.24 C 133.50 240.01 128.36 238.73 124.00 240.54 C 119.43 238.46 113.87 240.50 109.11 238.79 C 106.79 238.45 104.39 238.59 102.14 237.84 C 99.41 237.39 96.67 236.85 94.07 235.87 C 92.98 235.67 91.89 235.48 90.81 235.30 C 64.38 227.07 40.76 209.55 26.14 185.94 C 19.90 176.04 14.89 165.26 12.11 153.87 C 11.70 152.57 11.41 151.23 11.10 149.90 C 10.46 148.29 10.39 146.55 10.19 144.85 C 9.13 142.38 9.95 139.55 8.78 137.13 C 8.49 128.17 7.73 118.98 9.23 110.15 C 10.85 93.36 16.80 77.10 25.80 62.88 C 42.81 35.31 72.04 15.18 104.14 10.14 M 72.80 28.69 C 54.60 38.76 39.21 53.81 29.16 72.05 C 27.93 74.26 27.01 76.63 25.73 78.81 C 13.81 104.78 12.43 135.50 22.82 162.19 C 25.24 169.51 29.21 176.17 32.94 182.86 C 43.06 172.01 53.61 161.54 64.05 151.00 C 66.96 148.09 69.68 144.97 72.88 142.38 C 61.43 142.18 49.97 142.37 38.51 142.29 C 38.39 140.63 38.33 138.97 38.32 137.31 C 50.55 137.14 62.78 137.28 75.00 137.24 C 76.35 137.26 77.65 137.02 78.91 136.50 C 66.13 135.90 53.32 136.33 40.53 136.28 C 40.17 135.10 39.83 133.92 39.49 132.74 C 44.29 132.70 49.10 132.74 53.90 132.72 C 53.90 132.21 53.90 131.19 53.90 130.68 C 49.14 130.65 44.37 130.68 39.60 130.65 C 39.61 129.67 39.63 128.69 39.64 127.71 C 44.35 127.62 49.08 127.92 53.78 127.58 C 54.81 126.88 53.88 125.48 53.59 124.63 C 48.88 124.79 44.16 124.71 39.44 124.71 C 39.71 123.37 40.00 122.04 40.30 120.72 C 58.77 115.88 78.08 114.44 97.01 117.05 C 98.92 115.22 102.71 113.31 101.53 110.17 C 100.56 106.76 99.34 102.26 95.05 102.02 C 84.08 100.99 73.01 101.27 62.01 101.68 C 59.20 101.83 55.41 102.13 54.20 105.18 C 52.69 108.83 51.53 112.62 50.15 116.33 C 48.14 116.64 46.13 117.01 44.13 117.41 C 45.71 112.12 48.01 107.07 49.90 101.89 C 51.01 98.51 54.74 97.02 58.03 96.94 C 70.28 95.90 82.62 95.89 94.87 96.82 C 98.01 96.97 101.60 97.70 103.41 100.56 C 104.58 102.97 105.24 105.60 106.64 107.90 C 108.29 105.48 110.53 103.58 112.59 101.52 C 135.38 78.29 158.00 54.87 181.04 31.89 C 179.64 31.36 178.34 30.61 177.13 29.73 C 175.82 29.05 174.50 28.39 173.19 27.72 C 172.68 27.47 171.68 26.98 171.17 26.73 C 156.83 19.65 140.89 16.10 124.92 15.81 C 106.81 15.72 88.84 20.34 72.80 28.69 M 127.92 93.93 C 121.60 100.67 114.77 106.93 108.64 113.84 C 108.94 114.74 109.53 116.56 109.83 117.47 C 109.06 117.27 107.51 116.86 106.74 116.65 C 105.65 117.16 104.56 117.66 103.48 118.17 C 106.26 119.09 109.11 119.73 111.98 120.30 C 123.54 108.44 135.02 96.51 146.50 84.57 C 161.58 69.66 175.64 53.71 191.40 39.49 C 189.52 38.05 187.63 36.61 185.78 35.14 C 166.28 54.52 147.33 74.46 127.92 93.93 M 171.86 66.88 C 152.16 86.74 132.91 107.02 113.34 127.00 C 113.48 127.88 113.75 129.65 113.88 130.54 C 111.49 130.28 109.32 131.10 107.43 132.49 C 109.59 132.67 111.75 132.74 113.92 132.79 C 113.92 134.43 113.01 136.49 111.04 136.20 C 108.30 136.29 105.44 135.84 102.86 137.06 C 105.86 137.19 108.92 137.52 111.89 136.99 C 118.43 130.86 124.54 124.27 130.86 117.92 C 133.14 115.36 136.03 113.21 137.55 110.06 C 142.51 106.08 146.73 101.19 151.16 96.61 C 152.17 96.28 152.77 95.25 153.55 94.59 C 169.01 78.72 184.44 62.82 199.94 46.99 C 198.60 45.74 197.27 44.47 195.96 43.19 C 187.28 50.40 179.64 58.73 171.86 66.88 M 160.30 95.71 L 159.98 95.67 C 158.51 97.55 157.13 99.49 155.88 101.51 C 153.56 101.77 152.31 104.26 150.63 105.64 C 146.24 109.79 142.64 114.74 137.99 118.60 L 137.38 118.64 C 136.11 120.82 134.48 122.74 132.88 124.67 L 132.36 124.65 C 126.13 130.67 120.16 136.95 114.11 143.15 C 111.49 145.41 113.14 149.22 112.44 152.19 C 110.26 155.06 105.94 152.20 103.32 154.36 C 86.45 171.39 69.79 188.66 53.05 205.83 C 54.69 207.19 56.36 208.52 58.05 209.83 C 81.68 185.53 105.33 161.26 128.98 136.98 C 129.71 135.99 131.35 135.08 130.42 133.59 C 132.19 133.06 133.83 132.19 135.09 130.80 L 135.40 130.80 C 136.10 129.76 136.79 128.71 137.49 127.67 L 138.07 127.66 C 139.00 126.65 140.00 125.70 141.06 124.83 C 142.73 122.10 145.31 120.12 147.07 117.47 C 147.30 117.39 147.77 117.25 148.00 117.17 C 153.48 112.21 158.23 106.48 163.66 101.45 L 163.90 101.45 C 165.22 99.58 166.68 97.80 168.35 96.22 C 173.08 91.99 177.30 87.24 181.74 82.72 C 190.36 73.55 199.56 64.91 207.71 55.32 C 206.40 53.94 205.12 52.53 203.88 51.09 C 189.31 65.92 175.02 81.03 160.30 95.71 M 211.25 60.10 C 200.07 72.31 188.33 83.98 176.95 95.98 L 176.27 95.85 C 175.31 98.08 173.52 99.73 171.79 101.35 C 167.42 105.69 162.81 109.86 158.93 114.65 L 158.94 113.35 C 154.73 119.87 148.84 124.95 143.51 130.52 C 141.97 130.88 141.33 131.74 141.60 133.09 C 140.32 133.63 139.33 134.54 138.63 135.82 C 138.00 136.27 137.37 136.71 136.75 137.15 C 135.17 138.79 133.65 140.48 132.28 142.31 C 129.96 143.47 128.46 145.81 126.56 147.53 C 105.69 169.36 84.38 190.75 63.47 212.53 C 63.40 212.82 63.27 213.41 63.21 213.70 C 65.07 215.19 67.51 215.87 69.07 217.75 C 90.16 196.04 111.27 174.36 132.37 152.66 C 134.90 149.53 138.02 146.90 140.31 143.57 C 140.88 143.31 142.01 142.80 142.58 142.55 C 143.94 140.94 144.98 139.10 146.04 137.28 C 146.64 137.09 147.86 136.72 148.46 136.54 C 150.17 133.94 152.25 131.60 154.59 129.56 C 156.37 128.02 158.67 127.01 159.89 124.90 C 161.99 121.27 165.27 118.60 168.19 115.67 C 172.31 111.55 176.44 107.41 180.48 103.19 C 182.99 101.76 183.88 98.58 186.16 96.77 C 187.30 96.59 187.91 95.44 188.74 94.76 C 197.35 85.55 206.42 76.80 215.29 67.85 C 216.10 64.79 212.60 62.59 211.25 60.10 M 193.07 98.12 C 191.71 99.73 190.44 101.42 189.16 103.10 C 184.29 106.49 180.82 111.65 176.29 115.53 L 175.96 115.45 C 173.97 118.87 170.68 121.21 168.32 124.33 C 165.17 125.98 163.42 129.53 160.43 131.50 C 159.20 133.18 157.90 134.81 156.47 136.33 L 155.48 136.40 C 154.32 138.67 152.50 140.48 150.80 142.34 C 149.04 143.50 147.41 145.01 146.32 146.81 C 144.12 148.76 141.95 150.84 140.67 153.53 C 140.41 153.56 139.87 153.63 139.61 153.66 C 135.69 157.09 132.27 161.05 128.54 164.69 C 117.58 176.32 106.31 187.67 95.11 199.08 C 88.41 205.80 82.16 212.95 75.30 219.52 C 75.33 219.90 75.39 220.66 75.41 221.04 C 79.19 222.35 82.66 224.42 86.52 225.55 C 114.73 236.47 147.39 234.07 174.12 220.13 C 200.66 206.26 221.04 181.08 228.63 152.07 C 236.01 125.45 232.13 96.29 219.07 72.06 C 210.33 80.67 201.83 89.55 193.07 98.12 M 66.29 124.34 C 65.78 126.92 65.86 129.55 66.18 132.15 C 71.46 132.35 76.76 132.45 82.03 132.17 C 84.79 130.28 87.24 127.76 88.71 124.73 C 81.29 123.77 73.75 124.50 66.29 124.34 M 99.69 124.76 C 98.83 125.42 98.80 126.55 98.60 127.52 C 100.58 127.63 102.62 128.00 104.57 127.51 C 105.94 126.77 106.84 125.34 108.33 124.74 C 105.45 124.82 102.56 124.55 99.69 124.76 M 99.19 130.67 C 99.23 131.22 99.30 132.34 99.34 132.90 C 100.34 132.16 101.34 131.42 102.35 130.70 C 101.56 130.69 99.98 130.68 99.19 130.67 M 84.88 137.08 C 88.96 137.05 93.43 138.17 97.15 135.98 C 93.08 136.58 88.78 135.47 84.88 137.08 M 80.02 142.97 C 65.26 157.53 50.95 172.55 36.40 187.31 C 37.89 189.50 39.45 191.62 41.09 193.69 C 49.47 184.56 58.31 175.87 66.91 166.95 C 74.95 158.79 82.58 150.22 90.90 142.35 C 87.34 142.66 83.31 141.46 80.02 142.97 M 96.46 144.48 C 79.54 162.02 62.67 179.64 45.57 196.99 C 45.53 197.37 45.43 198.14 45.38 198.53 C 46.57 199.64 47.75 200.76 48.94 201.87 C 64.94 185.21 81.24 168.85 97.29 152.24 C 99.78 150.09 98.37 146.45 98.69 143.62 C 101.72 143.65 104.82 143.81 107.72 142.76 C 104.07 142.50 99.00 140.82 96.46 144.48 Z" />
<path fill="#000000" opacity="1.00" d=" M 41.57 143.59 C 46.19 143.57 50.81 143.61 55.44 143.62 C 55.45 146.51 55.45 149.39 55.46 152.28 C 53.38 154.03 50.56 153.42 48.07 153.55 C 45.85 153.50 43.38 153.87 41.57 152.25 C 41.57 149.36 41.55 146.48 41.57 143.59 Z" />
<path fill="#3c3c3c" opacity="1.00" d=" M 159.98 95.67 L 160.30 95.71 C 162.97 96.04 165.66 96.17 168.35 96.22 C 166.68 97.80 165.22 99.58 163.90 101.45 L 163.66 101.45 C 161.06 101.46 158.47 101.44 155.88 101.51 C 157.13 99.49 158.51 97.55 159.98 95.67 Z" />
<path fill="#3c3c3c" opacity="1.00" d=" M 176.27 95.85 L 176.95 95.98 C 179.98 96.56 183.08 96.72 186.16 96.77 C 183.88 98.58 182.99 101.76 180.48 103.19 C 180.55 102.79 180.71 102.00 180.79 101.60 C 177.79 101.53 174.79 101.45 171.79 101.35 C 173.52 99.73 175.31 98.08 176.27 95.85 Z" />
<path fill="#3c3c3c" opacity="1.00" d=" M 141.75 99.81 C 144.06 97.02 147.89 97.07 151.16 96.61 C 146.73 101.19 142.51 106.08 137.55 110.06 C 138.91 106.64 139.71 102.93 141.75 99.81 Z" />
<path fill="#3c3c3c" opacity="1.00" d=" M 189.16 103.10 C 190.44 101.42 191.71 99.73 193.07 98.12 C 195.89 104.44 198.25 110.93 200.76 117.38 C 198.67 117.05 196.59 116.72 194.51 116.40 C 192.70 111.98 191.64 107.22 189.16 103.10 Z" />
<path fill="#3c3c3c" opacity="1.00" d=" M 143.51 130.52 C 148.84 124.95 154.73 119.87 158.94 113.35 L 158.93 114.65 L 158.90 115.87 C 161.99 115.79 165.09 115.73 168.19 115.67 C 165.27 118.60 161.99 121.27 159.89 124.90 C 158.67 127.01 156.37 128.02 154.59 129.56 C 152.25 131.60 150.17 133.94 148.46 136.54 C 145.19 136.25 141.89 136.26 138.63 135.82 C 139.33 134.54 140.32 133.63 141.60 133.09 C 143.67 133.86 147.12 131.11 143.51 130.52 Z" />
<path fill="#3c3c3c" opacity="1.00" d=" M 175.96 115.45 L 176.29 115.53 C 185.63 117.05 195.15 117.94 204.21 120.87 C 204.41 122.15 204.60 123.44 204.80 124.72 C 200.48 124.85 196.16 124.67 191.85 124.78 C 189.96 124.32 189.42 126.26 189.52 127.67 C 194.52 127.74 199.54 127.72 204.55 127.70 C 204.59 128.69 204.64 129.67 204.69 130.66 C 199.98 130.71 195.26 130.73 190.54 130.68 C 190.20 131.07 189.50 131.86 189.16 132.26 C 194.39 133.15 199.70 132.50 204.98 132.77 C 204.32 134.04 204.23 136.66 202.11 136.20 C 186.90 136.33 171.68 136.08 156.47 136.33 C 157.90 134.81 159.20 133.18 160.43 131.50 C 166.43 133.09 172.76 131.97 178.91 132.16 C 179.05 129.55 179.02 126.94 178.83 124.34 C 175.33 124.32 171.82 124.24 168.32 124.33 C 170.68 121.21 173.97 118.87 175.96 115.45 Z" />
<path fill="#3c3c3c" opacity="1.00" d=" M 137.38 118.64 L 137.99 118.60 C 141.04 118.46 144.07 118.02 147.07 117.47 C 145.31 120.12 142.73 122.10 141.06 124.83 C 138.33 124.83 135.60 124.76 132.88 124.67 C 134.48 122.74 136.11 120.82 137.38 118.64 Z" />
<path fill="#3c3c3c" opacity="1.00" d=" M 130.32 130.66 C 130.32 129.66 130.33 128.66 130.34 127.66 C 132.72 127.68 135.11 127.69 137.49 127.67 C 136.79 128.71 136.10 129.76 135.40 130.80 L 135.09 130.80 C 133.50 130.75 131.91 130.70 130.32 130.66 Z" />
<path fill="#3c3c3c" opacity="1.00" d=" M 150.80 142.34 C 152.50 140.48 154.32 138.67 155.48 136.40 C 159.86 137.81 164.51 137.00 169.01 137.18 C 181.51 137.34 194.03 136.85 206.51 137.43 C 206.43 139.02 206.35 140.62 206.27 142.21 C 187.78 142.42 169.29 142.22 150.80 142.34 Z" />
<path fill="#3c3c3c" opacity="1.00" d=" M 132.28 142.31 C 133.65 140.48 135.17 138.79 136.75 137.15 C 139.84 137.14 142.94 137.24 146.04 137.28 C 144.98 139.10 143.94 140.94 142.58 142.55 C 139.15 142.39 135.72 142.19 132.28 142.31 Z" />
<path fill="#3c3c3c" opacity="1.00" d=" M 132.27 143.56 C 134.95 143.56 137.63 143.61 140.31 143.57 C 138.02 146.90 134.90 149.53 132.37 152.66 C 132.29 149.63 132.27 146.59 132.27 143.56 Z" />
<path fill="#3c3c3c" opacity="1.00" d=" M 189.47 143.60 C 194.12 143.58 198.77 143.53 203.41 143.57 C 203.42 146.46 203.39 149.34 203.41 152.23 C 199.98 154.70 195.35 153.29 191.41 153.43 C 187.78 151.86 190.10 146.71 189.47 143.60 Z" />
<path fill="#3c3c3c" opacity="1.00" d=" M 140.67 153.53 C 141.95 150.84 144.12 148.76 146.32 146.81 C 146.24 148.66 146.25 150.51 146.27 152.37 C 144.56 153.36 142.62 153.56 140.67 153.53 Z" />
</g>
</svg>
