<?xml version="1.0" encoding="utf-8"?>
<!-- Generator: Adobe Illustrator 16.0.0, SVG Export Plug-In . SVG Version: 6.00 Build 0)  -->
<!DOCTYPE svg PUBLIC "-//W3C//DTD SVG 1.1//EN" "http://www.w3.org/Graphics/SVG/1.1/DTD/svg11.dtd">
<svg version="1.1" id="Layer_1" xmlns="http://www.w3.org/2000/svg" xmlns:xlink="http://www.w3.org/1999/xlink" x="0px" y="0px"
	 width="132px" height="132px" viewBox="0 0 132 132" enable-background="new 0 0 132 132" xml:space="preserve">
<g id="disabled">
	<g>
		<g>
			
				<linearGradient id="SVGID_3_" gradientUnits="userSpaceOnUse" x1="-710.0674" y1="727.1699" x2="-583.5933" y2="727.1699" gradientTransform="matrix(-1 0 0 1 -580.3301 -660.6699)">
				<stop  offset="0" style="stop-color:#000000;stop-opacity:0.6"/>
				<stop  offset="1" style="stop-color:#000000;stop-opacity:0.6"/>
			</linearGradient>
			<path id="SVGID_1_" fill="url(#SVGID_3_)" d="M63.913,11.762C55.071,27.077,13.412,98.992,3.68,115.848
				c-1.333,2.311,0.735,6.719,3.327,6.719c19.008,0,100.207,0,118.517,0c4.33,0,5.283-2.891,3.043-6.769
				C118.83,98.934,77.607,27.57,68.495,11.788C67.514,10.084,64.994,9.891,63.913,11.762L63.913,11.762z"/>
		</g>
		<g>
			<path id="SVGID_2_" fill="#FFFFFF" d="M62.913,10.762C54.071,26.077,12.412,97.992,2.68,114.848
				c-1.333,2.311,0.735,6.719,3.327,6.719c19.008,0,100.207,0,118.517,0c4.33,0,5.283-2.891,3.043-6.769
				C117.83,97.934,76.607,26.57,67.495,10.788C66.514,9.084,63.994,8.891,62.913,10.762L62.913,10.762z"/>
		</g>
	</g>
	<g>
		<g>
			<path id="SVGID_6_" fill="#575757" d="M63.683,15.969c-8.443,14.622-48.218,83.284-57.51,99.379
				c-0.937,1.623,0.111,3.355,1.756,3.355c18.148,0,97.715,0,115.196,0c1.744,0,2.395-1.752,1.441-3.403
				C115.27,99.199,75.911,31.063,67.21,15.994C66.272,14.367,64.715,14.184,63.683,15.969L63.683,15.969z"/>
		</g>
	</g>
	<g>
		<g>
			<path id="SVGID_8_" fill="#FFFFFF" d="M64.188,36.987c-5.958,10.319-34.031,58.781-40.59,70.14
				c-0.661,1.145,0.079,2.368,1.239,2.368c12.81,0,68.968,0,81.306,0c1.231,0,1.688-1.236,1.017-2.399
				C100.598,95.729,72.818,47.64,66.68,37.004C66.015,35.857,64.915,35.726,64.188,36.987L64.188,36.987z"/>
		</g>
	</g>
	<g>
		<g>
			<path id="SVGID_10_" d="M85.012,107.594h-58l29.906-53.058c0,0,0.514,0.308,1.131,1.234c0.615,0.924,0.924,1.644,2.671,1.849
				c1.746,0.205,1.849,0.103,2.877,2.568c1.027,2.466,1.912,5.706,2.324,7.967c0.41,2.261,1.505,1.51,1.892,2
				c0.82,1.438,0.094,9.652,0.711,12.338c1.381,1.311,4.22,5.029,5.453,7.291c0.342,2.26-0.926,2.671,0.924,5.753
				c2.521,1.942,6.568,5.212,7.398,6.062c1.746,1.748,0.721,1.131,1.645,2.98C84.865,106.427,85.012,107.594,85.012,107.594
				L85.012,107.594z M65.524,61.184l-0.982-1.636l-0.036-0.984l0.837-0.073l1.163,0.436v1.055L65.524,61.184L65.524,61.184z
				 M68.762,62.056c0,0-0.982-1.709-1.201-1.964c-0.219-0.254-0.182-2.109,0-2.473c0.183-0.365,1.709-0.255,2.146,0.108
				c0.436,0.365,0.945,1.528,1.02,2.184C70.799,60.565,68.762,62.056,68.762,62.056L68.762,62.056z M68.798,63.366
				c0.401-0.363,2.074,0.22,2.911,0.22s1.127,0.835,1.455,1.707c0.326,0.874,0.544,1.527-0.073,2.038
				c-0.618,0.509-1.928,1.345-2.655,1.308c-0.728-0.035-1.235-0.399-1.709-0.727c-0.474-0.328-0.474-1.309-0.291-1.854
				c0.184-0.548,0.328-0.292,0.362-0.982C68.835,64.383,68.396,63.729,68.798,63.366L68.798,63.366z M72.254,69.695
				c0.617-0.254,1.637-0.182,2.255,0.182c0.619,0.363,1.163,0.037,1.782-0.4c0.619-0.437,1.273-1.637,2.475-1.6
				c1.199,0.036,3.199,2.109,3.928,2.836c0.728,0.729,0.182,1.383,0.291,2.292c0.107,0.909-1.527,3.419-2.183,3.892
				c-0.655,0.474-5.966,0.945-6.839,0.982c-0.872,0.036-2.365-1.273-2.729-1.891c-0.362-0.619-0.254-2.62-0.473-3.529
				s-0.326-0.945,0-1.563C71.09,70.277,71.637,69.949,72.254,69.695L72.254,69.695z M81.674,82.753v-1.636l1.455-0.036l1.02,0.653
				l0.653,1.201l-1.563,0.728L81.674,82.753L81.674,82.753z M81.273,82.861c0.037,0.619-0.254,1.892-0.69,2.256
				c-0.438,0.363-3.201,0.874-3.201,0.874s-1.31-0.401-1.928-0.765c-0.619-0.362-0.981-1.348-0.981-1.672
				c0-0.328,0.4-1.094,0.618-1.638c0.218-0.548,1.563-1.563,2.255-1.894c0.691-0.325,2.547-0.979,3.129-0.582
				C81.055,79.842,81.238,82.244,81.273,82.861L81.273,82.861z M83.02,90.828c1.201-0.037,1.492,0.107,2.291,1.236
				c0.801,1.127,0.801,1.818,0.401,2.91c-0.401,1.092-2.692,1.781-3.747,1.781s-2.836-1.02-3.054-1.418
				c-0.218-0.4-0.037-2.729,0.254-3.057C79.455,91.956,81.818,90.865,83.02,90.828L83.02,90.828z M88.111,89.846
				c-0.728-0.218-0.871-1.818-1.127-2.654c-0.254-0.838-0.908-4.691-0.908-4.691s3.129,0.146,4.001-0.218
				c0.874-0.363,1.71-1.237,1.71-1.237s0.472,4.438,0.472,5.165s-0.254,1.709-0.616,2.474c-0.365,0.764-1.056,1.383-1.746,1.563
				C89.204,90.428,88.84,90.064,88.111,89.846L88.111,89.846z M89.094,97.014c0.184-0.547,2.147-3.968,2.801-4.402
				c0.656-0.438,3.783-0.072,3.783-0.072l0.656,2.51l0.799-0.146c0,0,0.764-0.145,1.237,0.291c0.473,0.438,2.51,4.947,2.473,5.857
				c-0.036,0.909-2.219,3.311-2.69,3.783c-0.473,0.473-3.385,0.037-4.512,0c-1.127-0.036-4.399-1.964-4.399-1.964
				S88.913,97.559,89.094,97.014L89.094,97.014z"/>
		</g>
	</g>
	
		<linearGradient id="SVGID_4_" gradientUnits="userSpaceOnUse" x1="-619.8057" y1="806.2256" x2="-692.4904" y2="702.4213" gradientTransform="matrix(-1 0 0 1 -580.3301 -660.6699)">
		<stop  offset="0" style="stop-color:#000000;stop-opacity:0"/>
		<stop  offset="1" style="stop-color:#FFFFFF;stop-opacity:0.25"/>
	</linearGradient>
	<path fill="url(#SVGID_4_)" d="M62.913,10.762C54.071,26.077,12.412,97.992,2.68,114.848c-1.333,2.311,0.735,6.719,3.327,6.719
		c19.008,0,100.207,0,118.517,0c4.33,0,5.283-2.891,3.043-6.769C117.83,97.934,76.607,26.57,67.495,10.788
		C66.514,9.084,63.994,8.891,62.913,10.762L62.913,10.762z"/>
</g>
<g id="normal">
	<g>
		<g>
			
				<linearGradient id="SVGID_5_" gradientUnits="userSpaceOnUse" x1="-710.0674" y1="727.1699" x2="-583.5933" y2="727.1699" gradientTransform="matrix(-1 0 0 1 -580.3301 -660.6699)">
				<stop  offset="0" style="stop-color:#000000;stop-opacity:0.6"/>
				<stop  offset="1" style="stop-color:#000000;stop-opacity:0.6"/>
			</linearGradient>
			<path id="SVGID_13_" fill="url(#SVGID_5_)" d="M63.913,11.762C55.071,27.077,13.412,98.992,3.68,115.848
				c-1.333,2.311,0.735,6.719,3.327,6.719c19.008,0,100.207,0,118.517,0c4.33,0,5.283-2.891,3.043-6.769
				C118.83,98.934,77.607,27.57,68.495,11.788C67.514,10.084,64.994,9.891,63.913,11.762L63.913,11.762z"/>
		</g>
		<g>
			<path id="SVGID_14_" fill="#FFFFFF" d="M62.913,10.762C54.071,26.077,12.412,97.992,2.68,114.848
				c-1.333,2.311,0.735,6.719,3.327,6.719c19.008,0,100.207,0,118.517,0c4.33,0,5.283-2.891,3.043-6.769
				C117.83,97.934,76.607,26.57,67.495,10.788C66.514,9.084,63.994,8.891,62.913,10.762L62.913,10.762z"/>
		</g>
	</g>
	<g>
		<g>
			<path id="SVGID_18_" fill="#DA1E22" d="M63.683,15.969c-8.443,14.622-48.218,83.284-57.51,99.379
				c-0.937,1.623,0.111,3.355,1.756,3.355c18.148,0,97.715,0,115.196,0c1.744,0,2.395-1.752,1.441-3.403
				C115.27,99.199,75.911,31.063,67.21,15.994C66.272,14.367,64.715,14.184,63.683,15.969L63.683,15.969z"/>
		</g>
	</g>
	<g>
		<g>
			<path id="SVGID_20_" fill="#FFFFFF" d="M64.188,36.987c-5.958,10.319-34.031,58.781-40.59,70.14
				c-0.661,1.145,0.079,2.368,1.239,2.368c12.81,0,68.968,0,81.306,0c1.231,0,1.688-1.236,1.017-2.399
				C100.598,95.729,72.818,47.64,66.68,37.004C66.015,35.857,64.915,35.726,64.188,36.987L64.188,36.987z"/>
		</g>
	</g>
	<g>
		<g>
			<path id="SVGID_22_" d="M85.012,107.594h-58l29.906-53.058c0,0,0.514,0.308,1.131,1.234c0.615,0.924,0.924,1.644,2.671,1.849
				c1.746,0.205,1.849,0.103,2.877,2.568c1.027,2.466,1.912,5.706,2.324,7.967c0.41,2.261,1.505,1.51,1.892,2
				c0.82,1.438,0.094,9.652,0.711,12.338c1.381,1.311,4.22,5.029,5.453,7.291c0.342,2.26-0.926,2.671,0.924,5.753
				c2.521,1.942,6.568,5.212,7.398,6.062c1.746,1.748,0.721,1.131,1.645,2.98C84.865,106.427,85.012,107.594,85.012,107.594
				L85.012,107.594z M65.524,61.184l-0.982-1.636l-0.036-0.984l0.837-0.073l1.163,0.436v1.055L65.524,61.184L65.524,61.184z
				 M68.762,62.056c0,0-0.982-1.709-1.201-1.964c-0.219-0.254-0.182-2.109,0-2.473c0.183-0.365,1.709-0.255,2.146,0.108
				c0.436,0.365,0.945,1.528,1.02,2.184C70.799,60.565,68.762,62.056,68.762,62.056L68.762,62.056z M68.798,63.366
				c0.401-0.363,2.074,0.22,2.911,0.22s1.127,0.835,1.455,1.707c0.326,0.874,0.544,1.527-0.073,2.038
				c-0.618,0.509-1.928,1.345-2.655,1.308c-0.728-0.035-1.235-0.399-1.709-0.727c-0.474-0.328-0.474-1.309-0.291-1.854
				c0.184-0.548,0.328-0.292,0.362-0.982C68.835,64.383,68.396,63.729,68.798,63.366L68.798,63.366z M72.254,69.695
				c0.617-0.254,1.637-0.182,2.255,0.182c0.619,0.363,1.163,0.037,1.782-0.4c0.619-0.437,1.273-1.637,2.475-1.6
				c1.199,0.036,3.199,2.109,3.928,2.836c0.728,0.729,0.182,1.383,0.291,2.292c0.107,0.909-1.527,3.419-2.183,3.892
				c-0.655,0.474-5.966,0.945-6.839,0.982c-0.872,0.036-2.365-1.273-2.729-1.891c-0.362-0.619-0.254-2.62-0.473-3.529
				s-0.326-0.945,0-1.563C71.09,70.277,71.637,69.949,72.254,69.695L72.254,69.695z M81.674,82.753v-1.636l1.455-0.036l1.02,0.653
				l0.653,1.201l-1.563,0.728L81.674,82.753L81.674,82.753z M81.273,82.861c0.037,0.619-0.254,1.892-0.69,2.256
				c-0.438,0.363-3.201,0.874-3.201,0.874s-1.31-0.401-1.928-0.765c-0.619-0.362-0.981-1.348-0.981-1.672
				c0-0.328,0.4-1.094,0.618-1.638c0.218-0.548,1.563-1.563,2.255-1.894c0.691-0.325,2.547-0.979,3.129-0.582
				C81.055,79.842,81.238,82.244,81.273,82.861L81.273,82.861z M83.02,90.828c1.201-0.037,1.492,0.107,2.291,1.236
				c0.801,1.127,0.801,1.818,0.401,2.91c-0.401,1.092-2.692,1.781-3.747,1.781s-2.836-1.02-3.054-1.418
				c-0.218-0.4-0.037-2.729,0.254-3.057C79.455,91.956,81.818,90.865,83.02,90.828L83.02,90.828z M88.111,89.846
				c-0.728-0.218-0.871-1.818-1.127-2.654c-0.254-0.838-0.908-4.691-0.908-4.691s3.129,0.146,4.001-0.218
				c0.874-0.363,1.71-1.237,1.71-1.237s0.472,4.438,0.472,5.165s-0.254,1.709-0.616,2.474c-0.365,0.764-1.056,1.383-1.746,1.563
				C89.204,90.428,88.84,90.064,88.111,89.846L88.111,89.846z M89.094,97.014c0.184-0.547,2.147-3.968,2.801-4.402
				c0.656-0.438,3.783-0.072,3.783-0.072l0.656,2.51l0.799-0.146c0,0,0.764-0.145,1.237,0.291c0.473,0.438,2.51,4.947,2.473,5.857
				c-0.036,0.909-2.219,3.311-2.69,3.783c-0.473,0.473-3.385,0.037-4.512,0c-1.127-0.036-4.399-1.964-4.399-1.964
				S88.913,97.559,89.094,97.014L89.094,97.014z"/>
		</g>
	</g>
	
		<linearGradient id="SVGID_7_" gradientUnits="userSpaceOnUse" x1="-619.8057" y1="806.2256" x2="-692.4904" y2="702.4213" gradientTransform="matrix(-1 0 0 1 -580.3301 -660.6699)">
		<stop  offset="0" style="stop-color:#000000;stop-opacity:0"/>
		<stop  offset="1" style="stop-color:#FFFFFF;stop-opacity:0.25"/>
	</linearGradient>
	<path fill="url(#SVGID_7_)" d="M62.913,10.762C54.071,26.077,12.412,97.992,2.68,114.848c-1.333,2.311,0.735,6.719,3.327,6.719
		c19.008,0,100.207,0,118.517,0c4.33,0,5.283-2.891,3.043-6.769C117.83,97.934,76.607,26.57,67.495,10.788
		C66.514,9.084,63.994,8.891,62.913,10.762L62.913,10.762z"/>
</g>
</svg>
