<?xml version="1.0" encoding="utf-8"?>
<!-- Generator: Adobe Illustrator 16.0.0, SVG Export Plug-In . SVG Version: 6.00 Build 0)  -->
<!DOCTYPE svg PUBLIC "-//W3C//DTD SVG 1.1//EN" "http://www.w3.org/Graphics/SVG/1.1/DTD/svg11.dtd">
<svg version="1.1" id="Layer_1" xmlns="http://www.w3.org/2000/svg" xmlns:xlink="http://www.w3.org/1999/xlink" x="0px" y="0px"
	 width="132px" height="132px" viewBox="0 0 132 132" enable-background="new 0 0 132 132" xml:space="preserve">
<g id="disabled">
	<g>
		<g>
			
				<linearGradient id="SVGID_3_" gradientUnits="userSpaceOnUse" x1="249.5928" y1="727.1699" x2="376.0664" y2="727.1699" gradientTransform="matrix(1 0 0 1 -246.3301 -660.6699)">
				<stop  offset="0" style="stop-color:#000000;stop-opacity:0.6"/>
				<stop  offset="1" style="stop-color:#000000;stop-opacity:0.6"/>
			</linearGradient>
			<path id="SVGID_1_" fill="url(#SVGID_3_)" d="M69.087,121.239c8.843-15.314,50.501-87.229,60.233-104.086
				c1.332-2.309-0.735-6.719-3.327-6.719c-19.009,0-100.207,0-118.516,0c-4.331,0-5.284,2.891-3.044,6.769
				c9.737,16.866,50.96,88.229,60.072,104.011C65.487,122.916,68.006,123.107,69.087,121.239L69.087,121.239z"/>
		</g>
		<g>
			<path id="SVGID_2_" fill="#FFFFFF" d="M68.087,120.239c8.843-15.314,50.501-87.229,60.233-104.086
				c1.332-2.309-0.735-6.719-3.327-6.719c-19.009,0-100.207,0-118.516,0c-4.331,0-5.284,2.891-3.044,6.769
				c9.737,16.866,50.96,88.229,60.072,104.011C64.487,121.916,67.006,122.107,68.087,120.239L68.087,120.239z"/>
		</g>
	</g>
	<g>
		<g>
			<path id="SVGID_6_" fill="#575757" d="M67.316,115.031c8.441-14.622,48.218-83.284,57.51-99.379
				c0.938-1.622-0.111-3.355-1.756-3.355c-18.148,0-97.715,0-115.196,0c-1.744,0-2.394,1.751-1.441,3.402
				c9.297,16.103,48.655,84.238,57.356,99.308C64.728,116.633,66.285,116.816,67.316,115.031L67.316,115.031z"/>
		</g>
	</g>
	<g>
		<g>
			<path id="SVGID_8_" fill="#FFFFFF" d="M66.813,94.016c5.957-10.322,34.03-58.783,40.59-70.142
				c0.66-1.145-0.079-2.369-1.238-2.369c-12.811,0-68.967,0-81.305,0c-1.232,0-1.689,1.239-1.016,2.403
				c6.561,11.364,34.34,59.453,40.479,70.09C64.985,95.145,66.085,95.275,66.813,94.016L66.813,94.016z"/>
		</g>
	</g>
	
		<linearGradient id="SVGID_4_" gradientUnits="userSpaceOnUse" x1="358.6523" y1="750.2549" x2="285.5298" y2="645.825" gradientTransform="matrix(1 0 0 1 -246.3301 -660.6699)">
		<stop  offset="0" style="stop-color:#000000;stop-opacity:0"/>
		<stop  offset="1" style="stop-color:#FFFFFF;stop-opacity:0.25"/>
	</linearGradient>
	<path fill="url(#SVGID_4_)" d="M68.087,120.239c8.843-15.314,50.501-87.229,60.233-104.086c1.332-2.309-0.735-6.719-3.327-6.719
		c-19.009,0-100.207,0-118.516,0c-4.331,0-5.284,2.891-3.044,6.769c9.737,16.866,50.96,88.229,60.072,104.011
		C64.487,121.916,67.006,122.107,68.087,120.239L68.087,120.239z"/>
</g>
<g id="normal">
	<g>
		<g>
			
				<linearGradient id="SVGID_5_" gradientUnits="userSpaceOnUse" x1="249.5928" y1="727.1699" x2="376.0664" y2="727.1699" gradientTransform="matrix(1 0 0 1 -246.3301 -660.6699)">
				<stop  offset="0" style="stop-color:#000000;stop-opacity:0.6"/>
				<stop  offset="1" style="stop-color:#000000;stop-opacity:0.6"/>
			</linearGradient>
			<path id="SVGID_11_" fill="url(#SVGID_5_)" d="M69.087,121.239c8.843-15.314,50.501-87.229,60.233-104.086
				c1.332-2.309-0.735-6.719-3.327-6.719c-19.009,0-100.207,0-118.516,0c-4.331,0-5.284,2.891-3.044,6.769
				c9.737,16.866,50.96,88.229,60.072,104.011C65.487,122.916,68.006,123.107,69.087,121.239L69.087,121.239z"/>
		</g>
		<g>
			<path id="SVGID_12_" fill="#FFFFFF" d="M68.087,120.239c8.843-15.314,50.501-87.229,60.233-104.086
				c1.332-2.309-0.735-6.719-3.327-6.719c-19.009,0-100.207,0-118.516,0c-4.331,0-5.284,2.891-3.044,6.769
				c9.737,16.866,50.96,88.229,60.072,104.011C64.487,121.916,67.006,122.107,68.087,120.239L68.087,120.239z"/>
		</g>
	</g>
	<g>
		<g>
			<path id="SVGID_16_" fill="#DA1E22" d="M67.316,115.031c8.441-14.622,48.218-83.284,57.51-99.379
				c0.938-1.622-0.111-3.355-1.756-3.355c-18.148,0-97.715,0-115.196,0c-1.744,0-2.394,1.751-1.441,3.402
				c9.297,16.103,48.655,84.238,57.356,99.308C64.728,116.633,66.285,116.816,67.316,115.031L67.316,115.031z"/>
		</g>
	</g>
	<g>
		<g>
			<path id="SVGID_18_" fill="#FFFFFF" d="M66.813,94.016c5.957-10.322,34.03-58.783,40.59-70.142
				c0.66-1.145-0.079-2.369-1.238-2.369c-12.811,0-68.967,0-81.305,0c-1.232,0-1.689,1.239-1.016,2.403
				c6.561,11.364,34.34,59.453,40.479,70.09C64.985,95.145,66.085,95.275,66.813,94.016L66.813,94.016z"/>
		</g>
	</g>
	
		<linearGradient id="SVGID_7_" gradientUnits="userSpaceOnUse" x1="358.6523" y1="750.2549" x2="285.5298" y2="645.825" gradientTransform="matrix(1 0 0 1 -246.3301 -660.6699)">
		<stop  offset="0" style="stop-color:#000000;stop-opacity:0"/>
		<stop  offset="1" style="stop-color:#FFFFFF;stop-opacity:0.25"/>
	</linearGradient>
	<path fill="url(#SVGID_7_)" d="M68.087,120.239c8.843-15.314,50.501-87.229,60.233-104.086c1.332-2.309-0.735-6.719-3.327-6.719
		c-19.009,0-100.207,0-118.516,0c-4.331,0-5.284,2.891-3.044,6.769c9.737,16.866,50.96,88.229,60.072,104.011
		C64.487,121.916,67.006,122.107,68.087,120.239L68.087,120.239z"/>
</g>
</svg>
