<?xml version="1.0" encoding="UTF-8" ?>
<!DOCTYPE svg PUBLIC "-//W3C//DTD SVG 1.1//EN" "http://www.w3.org/Graphics/SVG/1.1/DTD/svg11.dtd">
<svg width="130pt" height="130pt" viewBox="0 0 130 130" version="1.1" xmlns="http://www.w3.org/2000/svg">
<g id="disabled">
<path fill="#ffffff" opacity="1.00" d=" M 42.89 5.07 C 57.42 -0.41 73.98 -0.29 88.43 5.40 C 103.53 11.25 116.21 23.11 123.00 37.83 C 128.76 49.96 130.39 63.95 127.80 77.11 C 123.98 96.99 110.11 114.58 91.65 122.90 C 78.52 128.68 63.48 130.17 49.56 126.56 C 31.93 122.19 16.47 109.84 8.36 93.58 C -0.43 76.62 -0.69 55.85 7.04 38.46 C 13.93 23.15 27.16 10.89 42.89 5.07 M 56.21 4.31 C 43.46 6.13 31.38 12.18 22.24 21.24 C 11.32 31.86 4.69 46.74 4.02 61.95 C 3.38 75.15 7.18 88.51 14.65 99.40 C 22.03 110.07 32.80 118.41 45.10 122.63 C 58.53 127.36 73.63 127.15 86.92 122.03 C 103.61 115.79 117.23 101.85 122.99 84.98 C 131.99 60.62 122.90 31.27 101.99 15.98 C 89.11 6.16 72.21 1.84 56.21 4.31 Z" />
<path fill="#ffffff" opacity="1.00" d=" M 55.50 18.74 C 67.22 16.26 79.87 18.40 90.02 24.79 C 101.63 31.93 109.87 44.34 111.77 57.85 C 113.72 70.34 110.22 83.52 102.47 93.49 C 94.92 103.32 83.37 109.99 71.05 111.43 C 57.35 113.25 43.00 108.54 33.00 99.03 C 21.65 88.50 16.06 72.13 18.88 56.88 C 21.74 38.24 37.05 22.44 55.50 18.74 M 48.22 37.45 C 43.88 43.71 39.08 49.66 34.99 56.09 C 35.24 56.47 35.75 57.25 36.01 57.64 C 39.70 57.03 43.28 55.93 46.90 54.96 C 46.89 67.87 46.82 80.79 46.93 93.70 C 49.78 93.70 52.63 93.69 55.47 93.62 C 55.45 80.74 55.48 67.86 55.44 54.97 C 59.02 55.90 62.56 57.74 66.34 57.26 C 65.78 54.16 63.40 51.92 61.71 49.40 C 58.12 44.62 54.95 39.52 51.10 34.95 C 49.57 34.72 49.13 36.61 48.22 37.45 M 77.83 34.83 C 77.83 47.71 77.83 60.60 77.84 73.49 C 74.28 72.52 70.76 71.38 67.11 70.81 C 64.75 71.73 67.05 73.86 67.77 75.12 C 72.56 81.25 76.49 88.08 81.79 93.78 C 86.12 88.36 89.91 82.54 94.06 76.98 C 95.30 75.13 97.13 73.41 97.03 71.00 C 93.31 70.93 89.86 72.47 86.35 73.47 C 86.31 60.59 86.38 47.70 86.31 34.82 C 83.48 34.82 80.66 34.82 77.83 34.83 Z" />
<path fill="#606060" opacity="1.00" d=" M 56.21 4.31 C 72.21 1.84 89.11 6.16 101.99 15.98 C 122.90 31.27 131.99 60.62 122.99 84.98 C 117.23 101.85 103.61 115.79 86.92 122.03 C 73.63 127.15 58.53 127.36 45.10 122.63 C 32.80 118.41 22.03 110.07 14.65 99.40 C 7.18 88.51 3.38 75.15 4.02 61.95 C 4.69 46.74 11.32 31.86 22.24 21.24 C 31.38 12.18 43.46 6.13 56.21 4.31 M 55.50 18.74 C 37.05 22.44 21.74 38.24 18.88 56.88 C 16.06 72.13 21.65 88.50 33.00 99.03 C 43.00 108.54 57.35 113.25 71.05 111.43 C 83.37 109.99 94.92 103.32 102.47 93.49 C 110.22 83.52 113.72 70.34 111.77 57.85 C 109.87 44.34 101.63 31.93 90.02 24.79 C 79.87 18.40 67.22 16.26 55.50 18.74 Z" />
<path fill="#606060" opacity="1.00" d=" M 48.22 37.45 C 49.13 36.61 49.57 34.72 51.10 34.95 C 54.95 39.52 58.12 44.62 61.71 49.40 C 63.40 51.92 65.78 54.16 66.34 57.26 C 62.56 57.74 59.02 55.90 55.44 54.97 C 55.48 67.86 55.45 80.74 55.47 93.62 C 52.63 93.69 49.78 93.70 46.93 93.70 C 46.82 80.79 46.89 67.87 46.90 54.96 C 43.28 55.93 39.70 57.03 36.01 57.64 C 35.75 57.25 35.24 56.47 34.99 56.09 C 39.08 49.66 43.88 43.71 48.22 37.45 Z" />
<path fill="#000000" opacity="1.00" d=" M 77.83 34.83 C 80.66 34.82 83.48 34.82 86.31 34.82 C 86.38 47.70 86.31 60.59 86.35 73.47 C 89.86 72.47 93.31 70.93 97.03 71.00 C 97.13 73.41 95.30 75.13 94.06 76.98 C 89.91 82.54 86.12 88.36 81.79 93.78 C 76.49 88.08 72.56 81.25 67.77 75.12 C 67.05 73.86 64.75 71.73 67.11 70.81 C 70.76 71.38 74.28 72.52 77.84 73.49 C 77.83 60.60 77.83 47.71 77.83 34.83 Z" />
</g>
<g id="normal">
<path fill="#ffffff" opacity="1.00" d=" M 42.89 5.07 C 57.42 -0.41 73.98 -0.29 88.43 5.40 C 103.53 11.25 116.21 23.11 123.00 37.83 C 128.76 49.96 130.39 63.95 127.80 77.11 C 123.98 96.99 110.11 114.58 91.65 122.90 C 78.52 128.68 63.48 130.17 49.56 126.56 C 31.93 122.19 16.47 109.84 8.36 93.58 C -0.43 76.62 -0.69 55.85 7.04 38.46 C 13.93 23.15 27.16 10.89 42.89 5.07 M 56.21 4.31 C 43.46 6.13 31.38 12.18 22.24 21.24 C 11.32 31.86 4.69 46.74 4.02 61.95 C 3.38 75.15 7.18 88.51 14.65 99.40 C 22.03 110.07 32.80 118.41 45.10 122.63 C 58.53 127.36 73.63 127.15 86.92 122.03 C 103.61 115.79 117.23 101.85 122.99 84.98 C 131.99 60.62 122.90 31.27 101.99 15.98 C 89.11 6.16 72.21 1.84 56.21 4.31 Z" />
<path fill="#ffffff" opacity="1.00" d=" M 55.50 18.74 C 67.22 16.26 79.87 18.40 90.02 24.79 C 101.63 31.93 109.87 44.34 111.77 57.85 C 113.72 70.34 110.22 83.52 102.47 93.49 C 94.92 103.32 83.37 109.99 71.05 111.43 C 57.35 113.25 43.00 108.54 33.00 99.03 C 21.65 88.50 16.06 72.13 18.88 56.88 C 21.74 38.24 37.05 22.44 55.50 18.74 M 48.22 37.45 C 43.88 43.71 39.08 49.66 34.99 56.09 C 35.24 56.47 35.75 57.25 36.01 57.64 C 39.70 57.03 43.28 55.93 46.90 54.96 C 46.89 67.87 46.82 80.79 46.93 93.70 C 49.78 93.70 52.63 93.69 55.47 93.62 C 55.45 80.74 55.48 67.86 55.44 54.97 C 59.02 55.90 62.56 57.74 66.34 57.26 C 65.78 54.16 63.40 51.92 61.71 49.40 C 58.12 44.62 54.95 39.52 51.10 34.95 C 49.57 34.72 49.13 36.61 48.22 37.45 M 77.83 34.83 C 77.83 47.71 77.83 60.60 77.84 73.49 C 74.28 72.52 70.76 71.38 67.11 70.81 C 64.75 71.73 67.05 73.86 67.77 75.12 C 72.56 81.25 76.49 88.08 81.79 93.78 C 86.12 88.36 89.91 82.54 94.06 76.98 C 95.30 75.13 97.13 73.41 97.03 71.00 C 93.31 70.93 89.86 72.47 86.35 73.47 C 86.31 60.59 86.38 47.70 86.31 34.82 C 83.48 34.82 80.66 34.82 77.83 34.83 Z" />
<path fill="#de2e2e" opacity="1.00" d=" M 56.21 4.31 C 72.21 1.84 89.11 6.16 101.99 15.98 C 122.90 31.27 131.99 60.62 122.99 84.98 C 117.23 101.85 103.61 115.79 86.92 122.03 C 73.63 127.15 58.53 127.36 45.10 122.63 C 32.80 118.41 22.03 110.07 14.65 99.40 C 7.18 88.51 3.38 75.15 4.02 61.95 C 4.69 46.74 11.32 31.86 22.24 21.24 C 31.38 12.18 43.46 6.13 56.21 4.31 M 55.50 18.74 C 37.05 22.44 21.74 38.24 18.88 56.88 C 16.06 72.13 21.65 88.50 33.00 99.03 C 43.00 108.54 57.35 113.25 71.05 111.43 C 83.37 109.99 94.92 103.32 102.47 93.49 C 110.22 83.52 113.72 70.34 111.77 57.85 C 109.87 44.34 101.63 31.93 90.02 24.79 C 79.87 18.40 67.22 16.26 55.50 18.74 Z" />
<path fill="#de2e2e" opacity="1.00" d=" M 48.22 37.45 C 49.13 36.61 49.57 34.72 51.10 34.95 C 54.95 39.52 58.12 44.62 61.71 49.40 C 63.40 51.92 65.78 54.16 66.34 57.26 C 62.56 57.74 59.02 55.90 55.44 54.97 C 55.48 67.86 55.45 80.74 55.47 93.62 C 52.63 93.69 49.78 93.70 46.93 93.70 C 46.82 80.79 46.89 67.87 46.90 54.96 C 43.28 55.93 39.70 57.03 36.01 57.64 C 35.75 57.25 35.24 56.47 34.99 56.09 C 39.08 49.66 43.88 43.71 48.22 37.45 Z" />
<path fill="#000000" opacity="1.00" d=" M 77.83 34.83 C 80.66 34.82 83.48 34.82 86.31 34.82 C 86.38 47.70 86.31 60.59 86.35 73.47 C 89.86 72.47 93.31 70.93 97.03 71.00 C 97.13 73.41 95.30 75.13 94.06 76.98 C 89.91 82.54 86.12 88.36 81.79 93.78 C 76.49 88.08 72.56 81.25 67.77 75.12 C 67.05 73.86 64.75 71.73 67.11 70.81 C 70.76 71.38 74.28 72.52 77.84 73.49 C 77.83 60.60 77.83 47.71 77.83 34.83 Z" />
</g>
</svg>
