<?xml version="1.0" encoding="UTF-8" ?>
<!DOCTYPE svg PUBLIC "-//W3C//DTD SVG 1.1//EN" "http://www.w3.org/Graphics/SVG/1.1/DTD/svg11.dtd">
<svg width="132pt" height="132pt" viewBox="0 0 132 132" version="1.1" xmlns="http://www.w3.org/2000/svg">
<g id="disabled">
<path fill="#ffffff" opacity="1.00" d=" M 63.48 2.94 C 67.02 2.25 70.00 4.12 72.17 6.75 C 90.64 25.52 109.56 43.86 127.85 62.80 C 128.01 65.29 128.32 68.24 126.16 70.01 C 107.69 88.58 89.14 107.07 70.62 125.60 C 68.75 127.86 65.84 128.39 63.05 127.90 C 61.52 126.82 60.18 125.50 58.84 124.19 C 40.87 106.13 22.78 88.17 4.79 70.12 C 2.62 68.42 2.79 65.49 3.19 63.04 C 4.37 61.01 6.21 59.49 7.82 57.82 C 23.83 41.83 39.82 25.82 55.82 9.82 C 58.26 7.40 60.54 4.77 63.48 2.94 M 60.47 7.74 L 60.43 8.23 C 60.13 8.54 59.52 9.16 59.21 9.48 L 58.45 9.44 L 58.54 10.54 L 57.45 10.45 L 57.53 11.53 L 56.77 11.51 C 56.46 11.83 55.83 12.45 55.51 12.77 L 55.46 13.21 C 55.15 13.52 54.52 14.15 54.21 14.46 L 53.45 14.44 L 53.53 15.52 L 52.45 15.45 L 52.45 16.20 C 52.14 16.52 51.52 17.15 51.20 17.46 L 50.45 17.44 L 50.52 18.52 L 49.44 18.44 L 49.52 19.52 L 48.44 19.44 L 48.52 20.52 L 47.76 20.51 C 47.45 20.82 46.82 21.44 46.50 21.76 L 46.52 22.52 L 45.44 22.44 L 45.45 23.20 C 45.13 23.51 44.51 24.13 44.20 24.44 L 43.45 24.44 L 43.51 25.51 L 42.43 25.44 L 42.44 26.19 C 42.13 26.50 41.50 27.13 41.19 27.44 L 40.44 27.43 L 40.51 28.50 L 39.44 28.44 L 39.50 29.50 L 38.44 29.44 L 38.50 30.51 L 37.75 30.50 C 37.43 30.81 36.81 31.44 36.50 31.75 L 36.51 32.51 L 35.43 32.43 L 35.44 33.19 C 35.12 33.50 34.50 34.12 34.19 34.43 L 33.44 34.43 L 33.50 35.50 L 32.44 35.44 L 32.50 36.50 L 31.44 36.44 L 31.43 37.18 C 31.12 37.49 30.50 38.12 30.18 38.43 L 29.44 38.44 L 29.49 39.49 L 28.43 39.44 L 28.42 40.18 C 28.11 40.49 27.49 41.11 27.18 41.42 L 26.44 41.43 L 26.48 42.48 L 25.44 42.44 L 25.48 43.48 L 24.44 43.44 L 24.41 44.18 C 24.10 44.49 23.48 45.11 23.18 45.42 L 22.44 45.43 L 22.48 46.47 L 21.44 46.44 L 21.41 47.17 C 21.10 47.48 20.48 48.10 20.17 48.40 L 19.44 48.44 L 19.47 49.47 L 18.43 49.44 L 18.47 50.47 L 17.43 50.44 L 17.40 51.17 C 17.09 51.48 16.48 52.09 16.17 52.40 L 15.44 52.43 L 15.46 53.46 L 14.43 53.44 L 14.39 54.16 C 14.09 54.47 13.47 55.09 13.17 55.39 L 12.44 55.43 L 12.45 56.44 L 11.45 56.44 L 11.45 57.45 L 10.44 57.45 L 10.44 58.45 L 9.43 58.43 L 9.39 59.16 C 9.09 59.47 8.47 60.07 8.16 60.38 L 7.67 60.43 C 6.47 61.85 4.95 63.24 4.63 65.16 C 4.45 67.30 6.17 68.93 7.50 70.38 C 25.51 88.41 43.46 106.51 61.55 124.46 C 63.40 126.74 67.03 127.24 69.03 124.85 C 87.29 106.84 105.31 88.57 123.52 70.50 C 124.71 69.17 126.32 67.89 126.47 65.98 C 126.83 63.93 125.21 62.34 123.95 60.98 C 105.97 43.01 87.98 25.05 69.92 7.16 C 69.05 6.27 67.95 5.64 66.93 4.93 C 64.36 4.04 62.21 6.16 60.47 7.74 Z" />
<path fill="#ffffff" opacity="1.00" d=" M 59.03 11.98 C 60.89 10.17 62.58 8.16 64.73 6.69 C 66.40 6.05 67.38 7.65 68.48 8.49 C 84.62 24.70 100.74 40.94 116.91 57.12 C 119.54 59.80 122.46 62.26 124.46 65.50 C 123.41 67.09 122.25 68.63 120.89 69.98 C 103.57 87.28 86.25 104.60 68.95 121.93 C 67.85 122.89 66.75 124.18 65.18 124.22 C 62.96 123.07 61.38 121.07 59.61 119.37 C 44.13 103.84 28.56 88.39 13.01 72.93 C 10.62 70.47 7.78 68.28 6.44 65.02 C 8.33 62.73 10.40 60.61 12.53 58.54 C 28.03 43.02 43.53 27.50 59.03 11.98 M 65.46 29.17 C 53.75 41.56 41.13 53.37 29.38 65.54 C 41.35 77.75 53.55 89.80 65.56 101.99 C 77.70 89.71 90.15 77.71 102.02 65.18 C 92.73 56.77 84.22 47.49 75.13 38.84 C 74.47 38.18 73.81 37.52 73.15 36.86 C 70.56 34.32 67.96 31.79 65.46 29.17 Z" />
<path fill="#000000" opacity="1.00" d=" M 60.47 7.74 C 62.21 6.16 64.36 4.04 66.93 4.93 C 67.95 5.64 69.05 6.27 69.92 7.16 C 87.98 25.05 105.97 43.01 123.95 60.98 C 125.21 62.34 126.83 63.93 126.47 65.98 C 126.32 67.89 124.71 69.17 123.52 70.50 C 105.31 88.57 87.29 106.84 69.03 124.85 C 67.03 127.24 63.40 126.74 61.55 124.46 C 43.46 106.51 25.51 88.41 7.50 70.38 C 6.17 68.93 4.45 67.30 4.63 65.16 C 4.95 63.24 6.47 61.85 7.67 60.43 L 8.16 60.38 C 8.47 60.07 9.09 59.47 9.39 59.16 L 9.43 58.43 L 10.44 58.45 L 10.44 57.45 L 11.45 57.45 L 11.45 56.44 L 12.45 56.44 L 12.44 55.43 L 13.17 55.39 C 13.47 55.09 14.09 54.47 14.39 54.16 L 14.43 53.44 L 15.46 53.46 L 15.44 52.43 L 16.17 52.40 C 16.48 52.09 17.09 51.48 17.40 51.17 L 17.43 50.44 L 18.47 50.47 L 18.43 49.44 L 19.47 49.47 L 19.44 48.44 L 20.17 48.40 C 20.48 48.10 21.10 47.48 21.41 47.17 L 21.44 46.44 L 22.48 46.47 L 22.44 45.43 L 23.18 45.42 C 23.48 45.11 24.10 44.49 24.41 44.18 L 24.44 43.44 L 25.48 43.48 L 25.44 42.44 L 26.48 42.48 L 26.44 41.43 L 27.18 41.42 C 27.49 41.11 28.11 40.49 28.42 40.18 L 28.43 39.44 L 29.49 39.49 L 29.44 38.44 L 30.18 38.43 C 30.50 38.12 31.12 37.49 31.43 37.18 L 31.44 36.44 L 32.50 36.50 L 32.44 35.44 L 33.50 35.50 L 33.44 34.43 L 34.19 34.43 C 34.50 34.12 35.12 33.50 35.44 33.19 L 35.43 32.43 L 36.51 32.51 L 36.50 31.75 C 36.81 31.44 37.43 30.81 37.75 30.50 L 38.50 30.51 L 38.44 29.44 L 39.50 29.50 L 39.44 28.44 L 40.51 28.50 L 40.44 27.43 L 41.19 27.44 C 41.50 27.13 42.13 26.50 42.44 26.19 L 42.43 25.44 L 43.51 25.51 L 43.45 24.44 L 44.20 24.44 C 44.51 24.13 45.13 23.51 45.45 23.20 L 45.44 22.44 L 46.52 22.52 L 46.50 21.76 C 46.82 21.44 47.45 20.82 47.76 20.51 L 48.52 20.52 L 48.44 19.44 L 49.52 19.52 L 49.44 18.44 L 50.52 18.52 L 50.45 17.44 L 51.20 17.46 C 51.52 17.15 52.14 16.52 52.45 16.20 L 52.45 15.45 L 53.53 15.52 L 53.45 14.44 L 54.21 14.46 C 54.52 14.15 55.15 13.52 55.46 13.21 L 55.51 12.77 C 55.83 12.45 56.46 11.83 56.77 11.51 L 57.53 11.53 L 57.45 10.45 L 58.54 10.54 L 58.45 9.44 L 59.21 9.48 C 59.52 9.16 60.13 8.54 60.43 8.23 L 60.47 7.74 M 59.03 11.98 C 43.53 27.50 28.03 43.02 12.53 58.54 C 10.40 60.61 8.33 62.73 6.44 65.02 C 7.78 68.28 10.62 70.47 13.01 72.93 C 28.56 88.39 44.13 103.84 59.61 119.37 C 61.38 121.07 62.96 123.07 65.18 124.22 C 66.75 124.18 67.85 122.89 68.95 121.93 C 86.25 104.60 103.57 87.28 120.89 69.98 C 122.25 68.63 123.41 67.09 124.46 65.50 C 122.46 62.26 119.54 59.80 116.91 57.12 C 100.74 40.94 84.62 24.70 68.48 8.49 C 67.38 7.65 66.40 6.05 64.73 6.69 C 62.58 8.16 60.89 10.17 59.03 11.98 Z" />
<path fill="#000000" opacity="1.00" d=" M 65.46 29.17 C 67.96 31.79 70.56 34.32 73.15 36.86 C 73.81 37.52 74.47 38.18 75.13 38.84 C 84.22 47.49 92.73 56.77 102.02 65.18 C 90.15 77.71 77.70 89.71 65.56 101.99 C 53.55 89.80 41.35 77.75 29.38 65.54 C 41.13 53.37 53.75 41.56 65.46 29.17 M 63.50 32.57 C 53.34 42.72 43.21 52.90 33.03 63.02 C 32.20 63.88 31.46 64.82 30.74 65.76 C 42.48 77.13 53.84 88.89 65.58 100.25 C 77.23 88.84 88.57 77.12 100.24 65.73 C 97.63 62.38 94.36 59.63 91.44 56.55 C 83.05 48.26 74.89 39.71 66.37 31.55 C 65.34 30.20 64.31 31.96 63.50 32.57 Z" />
<path fill="#606060" opacity="1.00" d=" M 63.50 32.57 C 64.31 31.96 65.34 30.20 66.37 31.55 C 74.89 39.71 83.05 48.26 91.44 56.55 C 94.36 59.63 97.63 62.38 100.24 65.73 C 88.57 77.12 77.23 88.84 65.58 100.25 C 53.84 88.89 42.48 77.13 30.74 65.76 C 31.46 64.82 32.20 63.88 33.03 63.02 C 43.21 52.90 53.34 42.72 63.50 32.57 Z" />
</g>
<g id="normal">
<path fill="#ffffff" opacity="1.00" d=" M 63.48 2.94 C 67.02 2.25 70.00 4.12 72.17 6.75 C 90.64 25.52 109.56 43.86 127.85 62.80 C 128.01 65.29 128.32 68.24 126.16 70.01 C 107.69 88.58 89.14 107.07 70.62 125.60 C 68.75 127.86 65.84 128.39 63.05 127.90 C 61.52 126.82 60.18 125.50 58.84 124.19 C 40.87 106.13 22.78 88.17 4.79 70.12 C 2.62 68.42 2.79 65.49 3.19 63.04 C 4.37 61.01 6.21 59.49 7.82 57.82 C 23.83 41.83 39.82 25.82 55.82 9.82 C 58.26 7.40 60.54 4.77 63.48 2.94 M 60.47 7.74 L 60.43 8.23 C 60.13 8.54 59.52 9.16 59.21 9.48 L 58.45 9.44 L 58.54 10.54 L 57.45 10.45 L 57.53 11.53 L 56.77 11.51 C 56.46 11.83 55.83 12.45 55.51 12.77 L 55.46 13.21 C 55.15 13.52 54.52 14.15 54.21 14.46 L 53.45 14.44 L 53.53 15.52 L 52.45 15.45 L 52.45 16.20 C 52.14 16.52 51.52 17.15 51.20 17.46 L 50.45 17.44 L 50.52 18.52 L 49.44 18.44 L 49.52 19.52 L 48.44 19.44 L 48.52 20.52 L 47.76 20.51 C 47.45 20.82 46.82 21.44 46.50 21.76 L 46.52 22.52 L 45.44 22.44 L 45.45 23.20 C 45.13 23.51 44.51 24.13 44.20 24.44 L 43.45 24.44 L 43.51 25.51 L 42.43 25.44 L 42.44 26.19 C 42.13 26.50 41.50 27.13 41.19 27.44 L 40.44 27.43 L 40.51 28.50 L 39.44 28.44 L 39.50 29.50 L 38.44 29.44 L 38.50 30.51 L 37.75 30.50 C 37.43 30.81 36.81 31.44 36.50 31.75 L 36.51 32.51 L 35.43 32.43 L 35.44 33.19 C 35.12 33.50 34.50 34.12 34.19 34.43 L 33.44 34.43 L 33.50 35.50 L 32.44 35.44 L 32.50 36.50 L 31.44 36.44 L 31.43 37.18 C 31.12 37.49 30.50 38.12 30.18 38.43 L 29.44 38.44 L 29.49 39.49 L 28.43 39.44 L 28.42 40.18 C 28.11 40.49 27.49 41.11 27.18 41.42 L 26.44 41.43 L 26.48 42.48 L 25.44 42.44 L 25.48 43.48 L 24.44 43.44 L 24.41 44.18 C 24.10 44.49 23.48 45.11 23.18 45.42 L 22.44 45.43 L 22.48 46.47 L 21.44 46.44 L 21.41 47.17 C 21.10 47.48 20.48 48.10 20.17 48.40 L 19.44 48.44 L 19.47 49.47 L 18.43 49.44 L 18.47 50.47 L 17.43 50.44 L 17.40 51.17 C 17.09 51.48 16.48 52.09 16.17 52.40 L 15.44 52.43 L 15.46 53.46 L 14.43 53.44 L 14.39 54.16 C 14.09 54.47 13.47 55.09 13.17 55.39 L 12.44 55.43 L 12.45 56.44 L 11.45 56.44 L 11.45 57.45 L 10.44 57.45 L 10.44 58.45 L 9.43 58.43 L 9.39 59.16 C 9.09 59.47 8.47 60.07 8.16 60.38 L 7.67 60.43 C 6.47 61.85 4.95 63.24 4.63 65.16 C 4.45 67.30 6.17 68.93 7.50 70.38 C 25.51 88.41 43.46 106.51 61.55 124.46 C 63.40 126.74 67.03 127.24 69.03 124.85 C 87.29 106.84 105.31 88.57 123.52 70.50 C 124.71 69.17 126.32 67.89 126.47 65.98 C 126.83 63.93 125.21 62.34 123.95 60.98 C 105.97 43.01 87.98 25.05 69.92 7.16 C 69.05 6.27 67.95 5.64 66.93 4.93 C 64.36 4.04 62.21 6.16 60.47 7.74 Z" />
<path fill="#ffffff" opacity="1.00" d=" M 59.03 11.98 C 60.89 10.17 62.58 8.16 64.73 6.69 C 66.40 6.05 67.38 7.65 68.48 8.49 C 84.62 24.70 100.74 40.94 116.91 57.12 C 119.54 59.80 122.46 62.26 124.46 65.50 C 123.41 67.09 122.25 68.63 120.89 69.98 C 103.57 87.28 86.25 104.60 68.95 121.93 C 67.85 122.89 66.75 124.18 65.18 124.22 C 62.96 123.07 61.38 121.07 59.61 119.37 C 44.13 103.84 28.56 88.39 13.01 72.93 C 10.62 70.47 7.78 68.28 6.44 65.02 C 8.33 62.73 10.40 60.61 12.53 58.54 C 28.03 43.02 43.53 27.50 59.03 11.98 M 65.46 29.17 C 53.75 41.56 41.13 53.37 29.38 65.54 C 41.35 77.75 53.55 89.80 65.56 101.99 C 77.70 89.71 90.15 77.71 102.02 65.18 C 92.73 56.77 84.22 47.49 75.13 38.84 C 74.47 38.18 73.81 37.52 73.15 36.86 C 70.56 34.32 67.96 31.79 65.46 29.17 Z" />
<path fill="#000000" opacity="1.00" d=" M 60.47 7.74 C 62.21 6.16 64.36 4.04 66.93 4.93 C 67.95 5.64 69.05 6.27 69.92 7.16 C 87.98 25.05 105.97 43.01 123.95 60.98 C 125.21 62.34 126.83 63.93 126.47 65.98 C 126.32 67.89 124.71 69.17 123.52 70.50 C 105.31 88.57 87.29 106.84 69.03 124.85 C 67.03 127.24 63.40 126.74 61.55 124.46 C 43.46 106.51 25.51 88.41 7.50 70.38 C 6.17 68.93 4.45 67.30 4.63 65.16 C 4.95 63.24 6.47 61.85 7.67 60.43 L 8.16 60.38 C 8.47 60.07 9.09 59.47 9.39 59.16 L 9.43 58.43 L 10.44 58.45 L 10.44 57.45 L 11.45 57.45 L 11.45 56.44 L 12.45 56.44 L 12.44 55.43 L 13.17 55.39 C 13.47 55.09 14.09 54.47 14.39 54.16 L 14.43 53.44 L 15.46 53.46 L 15.44 52.43 L 16.17 52.40 C 16.48 52.09 17.09 51.48 17.40 51.17 L 17.43 50.44 L 18.47 50.47 L 18.43 49.44 L 19.47 49.47 L 19.44 48.44 L 20.17 48.40 C 20.48 48.10 21.10 47.48 21.41 47.17 L 21.44 46.44 L 22.48 46.47 L 22.44 45.43 L 23.18 45.42 C 23.48 45.11 24.10 44.49 24.41 44.18 L 24.44 43.44 L 25.48 43.48 L 25.44 42.44 L 26.48 42.48 L 26.44 41.43 L 27.18 41.42 C 27.49 41.11 28.11 40.49 28.42 40.18 L 28.43 39.44 L 29.49 39.49 L 29.44 38.44 L 30.18 38.43 C 30.50 38.12 31.12 37.49 31.43 37.18 L 31.44 36.44 L 32.50 36.50 L 32.44 35.44 L 33.50 35.50 L 33.44 34.43 L 34.19 34.43 C 34.50 34.12 35.12 33.50 35.44 33.19 L 35.43 32.43 L 36.51 32.51 L 36.50 31.75 C 36.81 31.44 37.43 30.81 37.75 30.50 L 38.50 30.51 L 38.44 29.44 L 39.50 29.50 L 39.44 28.44 L 40.51 28.50 L 40.44 27.43 L 41.19 27.44 C 41.50 27.13 42.13 26.50 42.44 26.19 L 42.43 25.44 L 43.51 25.51 L 43.45 24.44 L 44.20 24.44 C 44.51 24.13 45.13 23.51 45.45 23.20 L 45.44 22.44 L 46.52 22.52 L 46.50 21.76 C 46.82 21.44 47.45 20.82 47.76 20.51 L 48.52 20.52 L 48.44 19.44 L 49.52 19.52 L 49.44 18.44 L 50.52 18.52 L 50.45 17.44 L 51.20 17.46 C 51.52 17.15 52.14 16.52 52.45 16.20 L 52.45 15.45 L 53.53 15.52 L 53.45 14.44 L 54.21 14.46 C 54.52 14.15 55.15 13.52 55.46 13.21 L 55.51 12.77 C 55.83 12.45 56.46 11.83 56.77 11.51 L 57.53 11.53 L 57.45 10.45 L 58.54 10.54 L 58.45 9.44 L 59.21 9.48 C 59.52 9.16 60.13 8.54 60.43 8.23 L 60.47 7.74 M 59.03 11.98 C 43.53 27.50 28.03 43.02 12.53 58.54 C 10.40 60.61 8.33 62.73 6.44 65.02 C 7.78 68.28 10.62 70.47 13.01 72.93 C 28.56 88.39 44.13 103.84 59.61 119.37 C 61.38 121.07 62.96 123.07 65.18 124.22 C 66.75 124.18 67.85 122.89 68.95 121.93 C 86.25 104.60 103.57 87.28 120.89 69.98 C 122.25 68.63 123.41 67.09 124.46 65.50 C 122.46 62.26 119.54 59.80 116.91 57.12 C 100.74 40.94 84.62 24.70 68.48 8.49 C 67.38 7.65 66.40 6.05 64.73 6.69 C 62.58 8.16 60.89 10.17 59.03 11.98 Z" />
<path fill="#000000" opacity="1.00" d=" M 65.46 29.17 C 67.96 31.79 70.56 34.32 73.15 36.86 C 73.81 37.52 74.47 38.18 75.13 38.84 C 84.22 47.49 92.73 56.77 102.02 65.18 C 90.15 77.71 77.70 89.71 65.56 101.99 C 53.55 89.80 41.35 77.75 29.38 65.54 C 41.13 53.37 53.75 41.56 65.46 29.17 M 63.50 32.57 C 53.34 42.72 43.21 52.90 33.03 63.02 C 32.20 63.88 31.46 64.82 30.74 65.76 C 42.48 77.13 53.84 88.89 65.58 100.25 C 77.23 88.84 88.57 77.12 100.24 65.73 C 97.63 62.38 94.36 59.63 91.44 56.55 C 83.05 48.26 74.89 39.71 66.37 31.55 C 65.34 30.20 64.31 31.96 63.50 32.57 Z" />
<path fill="#FBD200" opacity="1.00" d=" M 63.50 32.57 C 64.31 31.96 65.34 30.20 66.37 31.55 C 74.89 39.71 83.05 48.26 91.44 56.55 C 94.36 59.63 97.63 62.38 100.24 65.73 C 88.57 77.12 77.23 88.84 65.58 100.25 C 53.84 88.89 42.48 77.13 30.74 65.76 C 31.46 64.82 32.20 63.88 33.03 63.02 C 43.21 52.90 53.34 42.72 63.50 32.57 Z" />
</g>
</svg>
