<?xml version="1.0" encoding="UTF-8" ?>
<!DOCTYPE svg PUBLIC "-//W3C//DTD SVG 1.1//EN" "http://www.w3.org/Graphics/SVG/1.1/DTD/svg11.dtd">
<svg width="130pt" height="130pt" viewBox="0 0 130 130" version="1.1" xmlns="http://www.w3.org/2000/svg">
<g id="disabled">
<path fill="#606060" opacity="1.00" d=" M 57.99 2.91 C 61.36 -0.72 67.53 -0.42 70.70 3.30 C 87.56 20.12 104.38 36.98 121.24 53.81 C 123.34 55.92 125.62 57.93 127.19 60.49 C 128.07 64.04 127.31 67.95 124.50 70.43 C 106.81 88.15 89.10 105.86 71.38 123.55 C 68.34 127.25 62.77 128.37 58.86 125.36 C 40.42 107.14 22.15 88.74 3.79 70.43 C -0.11 67.24 -0.31 60.86 3.42 57.47 C 21.60 39.27 39.78 21.07 57.99 2.91 M 62.19 3.31 C 59.09 4.12 57.09 6.80 54.88 8.91 C 38.71 25.06 22.55 41.22 6.40 57.38 C 3.03 60.30 2.43 66.05 5.70 69.26 C 22.63 86.34 39.70 103.30 56.67 120.35 C 58.48 122.13 60.34 124.30 63.10 124.41 C 66.22 125.02 69.15 123.31 71.20 121.09 C 87.98 104.28 104.79 87.49 121.59 70.69 C 123.81 68.49 125.74 65.32 124.82 62.09 C 123.96 58.75 121.09 56.61 118.81 54.26 C 102.81 38.26 86.80 22.27 70.78 6.30 C 68.67 3.97 65.32 2.55 62.19 3.31 Z" />
<path fill="#606060" opacity="1.00" d=" M 60.41 8.36 C 61.72 7.08 63.69 5.34 65.61 6.48 C 67.97 8.05 69.76 10.28 71.77 12.24 C 87.73 28.27 103.72 44.28 119.74 60.26 C 120.73 61.30 121.81 62.42 121.91 63.95 C 121.22 66.30 119.22 67.88 117.58 69.58 C 102.03 85.05 86.56 100.61 71.01 116.09 C 68.57 118.36 66.37 121.98 62.49 121.07 C 44.34 102.73 25.95 84.62 7.75 66.34 C 5.86 64.68 6.71 61.85 8.40 60.40 C 25.72 43.04 43.09 25.72 60.41 8.36 M 68.96 36.91 C 69.02 37.70 69.15 39.28 69.22 40.07 C 71.41 40.10 73.60 40.12 75.79 40.16 C 75.82 40.76 75.89 41.98 75.93 42.58 C 74.28 43.49 72.74 44.59 71.45 45.96 C 65.24 45.87 59.02 46.34 52.83 45.93 C 52.44 45.15 52.10 44.36 51.82 43.54 C 54.63 42.02 58.85 42.16 60.47 39.07 C 55.18 38.94 49.88 39.01 44.59 39.02 C 44.84 40.17 45.17 41.30 45.58 42.40 C 47.03 43.38 48.80 44.24 49.23 46.12 C 48.40 49.97 46.47 53.47 45.10 57.15 C 42.66 56.99 40.19 56.65 37.76 57.10 C 32.01 58.48 27.46 64.05 27.61 70.03 C 27.34 77.50 34.46 84.24 41.94 83.34 C 48.44 83.12 53.52 77.43 54.47 71.25 C 57.14 70.06 56.86 74.59 59.10 75.07 C 63.48 77.53 68.72 72.55 66.56 68.03 C 70.60 64.54 74.47 60.80 78.76 57.61 C 80.60 60.15 77.83 61.98 76.78 64.08 C 73.56 69.93 75.86 77.93 81.53 81.36 C 87.60 85.36 96.60 83.31 100.23 76.97 C 104.02 71.07 101.99 62.42 95.98 58.81 C 91.97 56.09 86.68 56.44 82.33 58.09 C 80.83 53.93 79.30 49.78 78.10 45.52 C 81.49 44.28 82.40 39.26 79.63 37.04 C 76.09 36.70 72.52 36.96 68.96 36.91 Z" />
<path fill="#606060" opacity="1.00" d=" M 54.15 49.98 C 61.01 50.02 67.86 49.99 74.72 50.00 C 75.50 51.49 76.27 52.98 77.05 54.47 C 73.03 58.41 68.85 62.16 64.68 65.94 C 63.51 65.55 62.34 65.16 61.17 64.78 C 58.71 59.90 56.56 54.88 54.15 49.98 Z" />
<path fill="#606060" opacity="1.00" d=" M 48.12 58.58 C 48.98 56.18 50.12 53.90 51.18 51.59 C 53.30 56.34 55.64 61.00 57.55 65.83 C 57.47 67.83 56.17 68.63 54.31 68.33 C 53.72 64.32 51.16 61.08 48.12 58.58 Z" />
<path fill="#606060" opacity="1.00" d=" M 35.91 62.23 C 38.12 60.56 40.98 60.97 43.56 60.95 C 42.30 64.34 40.92 67.70 39.65 71.09 C 43.19 71.12 46.72 71.10 50.25 71.14 C 49.55 77.37 42.25 81.32 36.70 78.33 C 30.39 75.60 30.00 65.61 35.91 62.23 Z" />
<path fill="#606060" opacity="1.00" d=" M 84.23 62.23 C 89.77 58.16 98.30 63.34 98.04 70.01 C 98.32 76.89 89.88 81.74 84.04 78.10 C 78.88 75.32 78.34 68.26 81.47 63.73 C 83.66 66.85 85.13 71.86 89.98 71.07 C 91.33 69.18 89.14 68.12 87.96 67.11 C 86.25 65.89 85.35 63.94 84.23 62.23 Z" />
<path fill="#606060" opacity="1.00" d=" M 46.45 62.65 C 48.32 63.96 49.30 66.04 50.28 68.02 C 48.31 68.03 46.34 68.03 44.37 68.03 C 45.05 66.23 45.75 64.44 46.45 62.65 Z" />
<path fill="#000000" opacity="1.00" d=" M 62.19 3.31 C 65.32 2.55 68.67 3.97 70.78 6.30 C 86.80 22.27 102.81 38.26 118.81 54.26 C 121.09 56.61 123.96 58.75 124.82 62.09 C 125.74 65.32 123.81 68.49 121.59 70.69 C 104.79 87.49 87.98 104.28 71.20 121.09 C 69.15 123.31 66.22 125.02 63.10 124.41 C 60.34 124.30 58.48 122.13 56.67 120.35 C 39.70 103.30 22.63 86.34 5.70 69.26 C 2.43 66.05 3.03 60.30 6.40 57.38 C 22.55 41.22 38.71 25.06 54.88 8.91 C 57.09 6.80 59.09 4.12 62.19 3.31 M 60.41 8.36 C 43.09 25.72 25.72 43.04 8.40 60.40 C 6.71 61.85 5.86 64.68 7.75 66.34 C 25.95 84.62 44.34 102.73 62.49 121.07 C 66.37 121.98 68.57 118.36 71.01 116.09 C 86.56 100.61 102.03 85.05 117.58 69.58 C 119.22 67.88 121.22 66.30 121.91 63.95 C 121.81 62.42 120.73 61.30 119.74 60.26 C 103.72 44.28 87.73 28.27 71.77 12.24 C 69.76 10.28 67.97 8.05 65.61 6.48 C 63.69 5.34 61.72 7.08 60.41 8.36 Z" />
<path fill="#000000" opacity="1.00" d=" M 68.96 36.91 C 72.52 36.96 76.09 36.70 79.63 37.04 C 82.40 39.26 81.49 44.28 78.10 45.52 C 79.30 49.78 80.83 53.93 82.33 58.09 C 86.68 56.44 91.97 56.09 95.98 58.81 C 101.99 62.42 104.02 71.07 100.23 76.97 C 96.60 83.31 87.60 85.36 81.53 81.36 C 75.86 77.93 73.56 69.93 76.78 64.08 C 77.83 61.98 80.60 60.15 78.76 57.61 C 74.47 60.80 70.60 64.54 66.56 68.03 C 68.72 72.55 63.48 77.53 59.10 75.07 C 56.86 74.59 57.14 70.06 54.47 71.25 C 53.52 77.43 48.44 83.12 41.94 83.34 C 34.46 84.24 27.34 77.50 27.61 70.03 C 27.46 64.05 32.01 58.48 37.76 57.10 C 40.19 56.65 42.66 56.99 45.10 57.15 C 46.47 53.47 48.40 49.97 49.23 46.12 C 48.80 44.24 47.03 43.38 45.58 42.40 C 45.17 41.30 44.84 40.17 44.59 39.02 C 49.88 39.01 55.18 38.94 60.47 39.07 C 58.85 42.16 54.63 42.02 51.82 43.54 C 52.10 44.36 52.44 45.15 52.83 45.93 C 59.02 46.34 65.24 45.87 71.45 45.96 C 72.74 44.59 74.28 43.49 75.93 42.58 C 75.89 41.98 75.82 40.76 75.79 40.16 C 73.60 40.12 71.41 40.10 69.22 40.07 C 69.15 39.28 69.02 37.70 68.96 36.91 M 54.15 49.98 C 56.56 54.88 58.71 59.90 61.17 64.78 C 62.34 65.16 63.51 65.55 64.68 65.94 C 68.85 62.16 73.03 58.41 77.05 54.47 C 76.27 52.98 75.50 51.49 74.72 50.00 C 67.86 49.99 61.01 50.02 54.15 49.98 M 48.12 58.58 C 51.16 61.08 53.72 64.32 54.31 68.33 C 56.17 68.63 57.47 67.83 57.55 65.83 C 55.64 61.00 53.30 56.34 51.18 51.59 C 50.12 53.90 48.98 56.18 48.12 58.58 M 35.91 62.23 C 30.00 65.61 30.39 75.60 36.70 78.33 C 42.25 81.32 49.55 77.37 50.25 71.14 C 46.72 71.10 43.19 71.12 39.65 71.09 C 40.92 67.70 42.30 64.34 43.56 60.95 C 40.98 60.97 38.12 60.56 35.91 62.23 M 84.23 62.23 C 85.35 63.94 86.25 65.89 87.96 67.11 C 89.14 68.12 91.33 69.18 89.98 71.07 C 85.13 71.86 83.66 66.85 81.47 63.73 C 78.34 68.26 78.88 75.32 84.04 78.10 C 89.88 81.74 98.32 76.89 98.04 70.01 C 98.30 63.34 89.77 58.16 84.23 62.23 M 46.45 62.65 C 45.75 64.44 45.05 66.23 44.37 68.03 C 46.34 68.03 48.31 68.03 50.28 68.02 C 49.30 66.04 48.32 63.96 46.45 62.65 Z" />
</g>
<g id="normal">
<path fill="#FBD200" opacity="1.00" d=" M 57.99 2.91 C 61.36 -0.72 67.53 -0.42 70.70 3.30 C 87.56 20.12 104.38 36.98 121.24 53.81 C 123.34 55.92 125.62 57.93 127.19 60.49 C 128.07 64.04 127.31 67.95 124.50 70.43 C 106.81 88.15 89.10 105.86 71.38 123.55 C 68.34 127.25 62.77 128.37 58.86 125.36 C 40.42 107.14 22.15 88.74 3.79 70.43 C -0.11 67.24 -0.31 60.86 3.42 57.47 C 21.60 39.27 39.78 21.07 57.99 2.91 M 62.19 3.31 C 59.09 4.12 57.09 6.80 54.88 8.91 C 38.71 25.06 22.55 41.22 6.40 57.38 C 3.03 60.30 2.43 66.05 5.70 69.26 C 22.63 86.34 39.70 103.30 56.67 120.35 C 58.48 122.13 60.34 124.30 63.10 124.41 C 66.22 125.02 69.15 123.31 71.20 121.09 C 87.98 104.28 104.79 87.49 121.59 70.69 C 123.81 68.49 125.74 65.32 124.82 62.09 C 123.96 58.75 121.09 56.61 118.81 54.26 C 102.81 38.26 86.80 22.27 70.78 6.30 C 68.67 3.97 65.32 2.55 62.19 3.31 Z" />
<path fill="#FBD200" opacity="1.00" d=" M 60.41 8.36 C 61.72 7.08 63.69 5.34 65.61 6.48 C 67.97 8.05 69.76 10.28 71.77 12.24 C 87.73 28.27 103.72 44.28 119.74 60.26 C 120.73 61.30 121.81 62.42 121.91 63.95 C 121.22 66.30 119.22 67.88 117.58 69.58 C 102.03 85.05 86.56 100.61 71.01 116.09 C 68.57 118.36 66.37 121.98 62.49 121.07 C 44.34 102.73 25.95 84.62 7.75 66.34 C 5.86 64.68 6.71 61.85 8.40 60.40 C 25.72 43.04 43.09 25.72 60.41 8.36 M 68.96 36.91 C 69.02 37.70 69.15 39.28 69.22 40.07 C 71.41 40.10 73.60 40.12 75.79 40.16 C 75.82 40.76 75.89 41.98 75.93 42.58 C 74.28 43.49 72.74 44.59 71.45 45.96 C 65.24 45.87 59.02 46.34 52.83 45.93 C 52.44 45.15 52.10 44.36 51.82 43.54 C 54.63 42.02 58.85 42.16 60.47 39.07 C 55.18 38.94 49.88 39.01 44.59 39.02 C 44.84 40.17 45.17 41.30 45.58 42.40 C 47.03 43.38 48.80 44.24 49.23 46.12 C 48.40 49.97 46.47 53.47 45.10 57.15 C 42.66 56.99 40.19 56.65 37.76 57.10 C 32.01 58.48 27.46 64.05 27.61 70.03 C 27.34 77.50 34.46 84.24 41.94 83.34 C 48.44 83.12 53.52 77.43 54.47 71.25 C 57.14 70.06 56.86 74.59 59.10 75.07 C 63.48 77.53 68.72 72.55 66.56 68.03 C 70.60 64.54 74.47 60.80 78.76 57.61 C 80.60 60.15 77.83 61.98 76.78 64.08 C 73.56 69.93 75.86 77.93 81.53 81.36 C 87.60 85.36 96.60 83.31 100.23 76.97 C 104.02 71.07 101.99 62.42 95.98 58.81 C 91.97 56.09 86.68 56.44 82.33 58.09 C 80.83 53.93 79.30 49.78 78.10 45.52 C 81.49 44.28 82.40 39.26 79.63 37.04 C 76.09 36.70 72.52 36.96 68.96 36.91 Z" />
<path fill="#FBD200" opacity="1.00" d=" M 54.15 49.98 C 61.01 50.02 67.86 49.99 74.72 50.00 C 75.50 51.49 76.27 52.98 77.05 54.47 C 73.03 58.41 68.85 62.16 64.68 65.94 C 63.51 65.55 62.34 65.16 61.17 64.78 C 58.71 59.90 56.56 54.88 54.15 49.98 Z" />
<path fill="#FBD200" opacity="1.00" d=" M 48.12 58.58 C 48.98 56.18 50.12 53.90 51.18 51.59 C 53.30 56.34 55.64 61.00 57.55 65.83 C 57.47 67.83 56.17 68.63 54.31 68.33 C 53.72 64.32 51.16 61.08 48.12 58.58 Z" />
<path fill="#FBD200" opacity="1.00" d=" M 35.91 62.23 C 38.12 60.56 40.98 60.97 43.56 60.95 C 42.30 64.34 40.92 67.70 39.65 71.09 C 43.19 71.12 46.72 71.10 50.25 71.14 C 49.55 77.37 42.25 81.32 36.70 78.33 C 30.39 75.60 30.00 65.61 35.91 62.23 Z" />
<path fill="#FBD200" opacity="1.00" d=" M 84.23 62.23 C 89.77 58.16 98.30 63.34 98.04 70.01 C 98.32 76.89 89.88 81.74 84.04 78.10 C 78.88 75.32 78.34 68.26 81.47 63.73 C 83.66 66.85 85.13 71.86 89.98 71.07 C 91.33 69.18 89.14 68.12 87.96 67.11 C 86.25 65.89 85.35 63.94 84.23 62.23 Z" />
<path fill="#FBD200" opacity="1.00" d=" M 46.45 62.65 C 48.32 63.96 49.30 66.04 50.28 68.02 C 48.31 68.03 46.34 68.03 44.37 68.03 C 45.05 66.23 45.75 64.44 46.45 62.65 Z" />
<path fill="#000000" opacity="1.00" d=" M 62.19 3.31 C 65.32 2.55 68.67 3.97 70.78 6.30 C 86.80 22.27 102.81 38.26 118.81 54.26 C 121.09 56.61 123.96 58.75 124.82 62.09 C 125.74 65.32 123.81 68.49 121.59 70.69 C 104.79 87.49 87.98 104.28 71.20 121.09 C 69.15 123.31 66.22 125.02 63.10 124.41 C 60.34 124.30 58.48 122.13 56.67 120.35 C 39.70 103.30 22.63 86.34 5.70 69.26 C 2.43 66.05 3.03 60.30 6.40 57.38 C 22.55 41.22 38.71 25.06 54.88 8.91 C 57.09 6.80 59.09 4.12 62.19 3.31 M 60.41 8.36 C 43.09 25.72 25.72 43.04 8.40 60.40 C 6.71 61.85 5.86 64.68 7.75 66.34 C 25.95 84.62 44.34 102.73 62.49 121.07 C 66.37 121.98 68.57 118.36 71.01 116.09 C 86.56 100.61 102.03 85.05 117.58 69.58 C 119.22 67.88 121.22 66.30 121.91 63.95 C 121.81 62.42 120.73 61.30 119.74 60.26 C 103.72 44.28 87.73 28.27 71.77 12.24 C 69.76 10.28 67.97 8.05 65.61 6.48 C 63.69 5.34 61.72 7.08 60.41 8.36 Z" />
<path fill="#000000" opacity="1.00" d=" M 68.96 36.91 C 72.52 36.96 76.09 36.70 79.63 37.04 C 82.40 39.26 81.49 44.28 78.10 45.52 C 79.30 49.78 80.83 53.93 82.33 58.09 C 86.68 56.44 91.97 56.09 95.98 58.81 C 101.99 62.42 104.02 71.07 100.23 76.97 C 96.60 83.31 87.60 85.36 81.53 81.36 C 75.86 77.93 73.56 69.93 76.78 64.08 C 77.83 61.98 80.60 60.15 78.76 57.61 C 74.47 60.80 70.60 64.54 66.56 68.03 C 68.72 72.55 63.48 77.53 59.10 75.07 C 56.86 74.59 57.14 70.06 54.47 71.25 C 53.52 77.43 48.44 83.12 41.94 83.34 C 34.46 84.24 27.34 77.50 27.61 70.03 C 27.46 64.05 32.01 58.48 37.76 57.10 C 40.19 56.65 42.66 56.99 45.10 57.15 C 46.47 53.47 48.40 49.97 49.23 46.12 C 48.80 44.24 47.03 43.38 45.58 42.40 C 45.17 41.30 44.84 40.17 44.59 39.02 C 49.88 39.01 55.18 38.94 60.47 39.07 C 58.85 42.16 54.63 42.02 51.82 43.54 C 52.10 44.36 52.44 45.15 52.83 45.93 C 59.02 46.34 65.24 45.87 71.45 45.96 C 72.74 44.59 74.28 43.49 75.93 42.58 C 75.89 41.98 75.82 40.76 75.79 40.16 C 73.60 40.12 71.41 40.10 69.22 40.07 C 69.15 39.28 69.02 37.70 68.96 36.91 M 54.15 49.98 C 56.56 54.88 58.71 59.90 61.17 64.78 C 62.34 65.16 63.51 65.55 64.68 65.94 C 68.85 62.16 73.03 58.41 77.05 54.47 C 76.27 52.98 75.50 51.49 74.72 50.00 C 67.86 49.99 61.01 50.02 54.15 49.98 M 48.12 58.58 C 51.16 61.08 53.72 64.32 54.31 68.33 C 56.17 68.63 57.47 67.83 57.55 65.83 C 55.64 61.00 53.30 56.34 51.18 51.59 C 50.12 53.90 48.98 56.18 48.12 58.58 M 35.91 62.23 C 30.00 65.61 30.39 75.60 36.70 78.33 C 42.25 81.32 49.55 77.37 50.25 71.14 C 46.72 71.10 43.19 71.12 39.65 71.09 C 40.92 67.70 42.30 64.34 43.56 60.95 C 40.98 60.97 38.12 60.56 35.91 62.23 M 84.23 62.23 C 85.35 63.94 86.25 65.89 87.96 67.11 C 89.14 68.12 91.33 69.18 89.98 71.07 C 85.13 71.86 83.66 66.85 81.47 63.73 C 78.34 68.26 78.88 75.32 84.04 78.10 C 89.88 81.74 98.32 76.89 98.04 70.01 C 98.30 63.34 89.77 58.16 84.23 62.23 M 46.45 62.65 C 45.75 64.44 45.05 66.23 44.37 68.03 C 46.34 68.03 48.31 68.03 50.28 68.02 C 49.30 66.04 48.32 63.96 46.45 62.65 Z" />
</g>
</svg>
