<?xml version="1.0" encoding="UTF-8" ?>
<!DOCTYPE svg PUBLIC "-//W3C//DTD SVG 1.1//EN" "http://www.w3.org/Graphics/SVG/1.1/DTD/svg11.dtd">
<svg width="130pt" height="130pt" viewBox="0 0 130 130" version="1.1" xmlns="http://www.w3.org/2000/svg">
<g id="disabled">
<path fill="#606060" opacity="1.00" d=" M 59.28 3.31 C 62.45 -0.40 68.61 -0.73 71.99 2.89 C 90.19 21.04 108.36 39.24 126.53 57.42 C 130.10 60.65 130.24 66.78 126.59 70.01 C 108.20 88.45 89.78 106.88 71.29 125.23 C 67.79 127.96 62.52 127.72 59.51 124.34 C 41.41 106.49 23.51 88.41 5.52 70.45 C 2.68 67.94 1.91 63.99 2.85 60.41 C 3.67 59.09 4.70 57.90 5.78 56.78 C 23.63 38.98 41.43 21.13 59.28 3.31 M 63.40 3.60 C 61.54 4.10 60.09 5.43 58.77 6.76 C 41.59 23.95 24.30 41.04 7.20 58.32 C 3.96 61.62 4.52 67.08 7.86 70.10 C 24.82 87.16 41.89 104.12 58.87 121.16 C 60.93 123.38 63.88 125.03 66.99 124.40 C 69.94 124.22 71.83 121.76 73.80 119.88 C 89.43 104.20 105.11 88.55 120.75 72.86 C 122.96 70.50 126.06 68.42 126.39 64.92 C 126.83 62.14 125.66 59.35 123.66 57.44 C 106.62 40.43 89.57 23.41 72.56 6.37 C 70.28 3.90 66.71 2.15 63.40 3.60 Z" />
<path fill="#606060" opacity="1.00" d=" M 59.70 10.73 C 61.41 9.12 62.89 7.09 65.11 6.18 C 66.97 5.82 68.45 7.32 69.69 8.46 C 86.82 25.61 103.96 42.76 121.12 59.88 C 123.63 61.71 124.14 65.48 121.34 67.32 C 103.35 85.21 85.35 103.09 67.48 121.09 C 65.69 121.10 63.72 121.19 62.52 119.60 C 45.77 102.97 29.14 86.21 12.40 69.56 C 10.77 67.87 8.79 66.29 8.09 63.95 C 8.19 62.43 9.27 61.29 10.27 60.25 C 26.77 43.77 43.28 27.29 59.70 10.73 M 78.45 44.00 C 80.37 45.71 82.37 47.33 84.35 48.97 C 82.10 48.99 79.86 48.98 77.62 49.11 C 77.20 49.32 76.35 49.73 75.92 49.94 C 60.08 50.10 44.22 49.93 28.37 50.00 C 27.25 53.74 25.60 57.30 24.67 61.10 C 24.52 64.77 25.07 68.43 25.04 72.11 C 27.29 72.11 29.54 72.12 31.79 72.22 C 33.06 73.63 34.97 73.38 36.69 73.44 C 37.09 74.30 37.49 75.15 37.90 76.00 C 32.48 76.11 27.03 75.69 21.64 76.28 C 24.28 77.46 27.22 76.92 30.02 77.01 C 56.39 77.00 82.76 77.01 109.13 77.00 L 109.12 76.00 C 104.07 76.00 99.03 76.00 93.98 76.00 C 94.41 75.15 94.85 74.29 95.29 73.44 C 99.32 72.90 103.30 71.93 107.41 72.34 C 107.48 68.61 107.87 64.87 107.59 61.15 C 106.71 57.34 105.24 53.70 103.97 50.01 C 101.80 49.83 99.30 50.62 97.46 49.10 C 95.34 48.99 93.21 49.00 91.09 49.00 C 93.04 47.37 94.96 45.70 96.89 44.05 C 93.87 41.36 90.77 38.77 87.59 36.27 C 84.59 38.91 81.52 41.45 78.45 44.00 Z" />
<path fill="#606060" opacity="1.00" d=" M 80.97 44.00 C 83.21 42.15 85.40 40.23 87.60 38.34 C 89.81 40.25 92.37 41.79 94.24 44.06 C 92.25 46.20 89.84 47.87 87.57 49.68 C 85.39 47.77 83.20 45.86 80.97 44.00 Z" />
<path fill="#606060" opacity="1.00" d=" M 29.36 52.41 C 30.90 52.41 32.44 52.40 33.98 52.40 C 33.99 55.28 34.00 58.16 33.99 61.04 C 31.35 61.04 28.71 61.03 26.07 61.02 C 27.22 58.17 28.28 55.28 29.36 52.41 Z" />
<path fill="#606060" opacity="1.00" d=" M 36.02 52.39 C 38.56 52.40 41.10 52.42 43.64 52.45 C 43.71 58.22 43.67 63.99 43.65 69.76 C 41.10 69.85 38.56 69.90 36.01 69.89 C 36.01 64.06 36.00 58.22 36.02 52.39 Z" />
<path fill="#606060" opacity="1.00" d=" M 54.95 52.40 C 57.82 52.40 60.69 52.41 63.56 52.44 C 63.59 55.30 63.60 58.16 63.60 61.02 C 60.70 61.04 57.81 61.05 54.91 61.04 C 54.91 58.16 54.91 55.28 54.95 52.40 Z" />
<path fill="#606060" opacity="1.00" d=" M 66.00 52.36 C 68.98 52.36 71.96 52.36 74.95 52.37 C 74.97 55.26 74.97 58.15 74.97 61.04 C 71.98 61.04 68.99 61.04 66.00 61.04 C 66.00 58.15 66.00 55.25 66.00 52.36 Z" />
<path fill="#606060" opacity="1.00" d=" M 77.05 52.37 C 79.99 52.36 82.93 52.36 85.88 52.40 C 85.91 55.28 85.91 58.17 85.91 61.06 C 82.95 61.09 79.99 61.09 77.03 61.06 C 77.03 58.16 77.03 55.26 77.05 52.37 Z" />
<path fill="#606060" opacity="1.00" d=" M 88.18 52.39 C 90.74 52.35 93.30 52.35 95.87 52.37 C 95.93 58.20 95.93 64.03 95.87 69.86 C 93.31 69.89 90.76 69.89 88.21 69.85 C 88.17 64.03 88.06 58.21 88.18 52.39 Z" />
<path fill="#606060" opacity="1.00" d=" M 98.26 52.40 C 99.70 52.37 101.15 52.35 102.59 52.33 C 103.72 55.25 104.80 58.19 105.93 61.11 C 103.36 61.10 100.79 61.09 98.22 61.07 C 98.21 58.18 98.21 55.29 98.26 52.40 Z" />
<path fill="#606060" opacity="1.00" d=" M 44.89 52.41 C 47.30 52.41 49.72 52.41 52.13 52.41 C 52.20 58.23 52.20 64.05 52.12 69.87 C 49.71 69.87 47.30 69.87 44.89 69.87 C 44.82 64.05 44.79 58.23 44.89 52.41 Z" />
<path fill="#606060" opacity="1.00" d=" M 42.24 73.43 C 43.38 73.40 44.52 73.36 45.66 73.32 C 45.91 73.99 46.40 75.34 46.64 76.01 C 45.05 76.00 43.45 75.99 41.86 75.99 C 41.96 75.35 42.14 74.07 42.24 73.43 Z" />
<path fill="#606060" opacity="1.00" d=" M 51.22 73.36 C 61.08 73.45 70.95 73.43 80.81 73.36 C 80.93 74.02 81.18 75.34 81.30 76.00 C 71.08 75.99 60.86 75.99 50.64 76.00 C 50.79 75.34 51.08 74.02 51.22 73.36 Z" />
<path fill="#606060" opacity="1.00" d=" M 86.32 73.34 C 87.46 73.36 88.61 73.38 89.76 73.40 C 89.86 74.05 90.05 75.34 90.15 75.99 C 88.51 76.00 86.86 76.00 85.22 76.01 C 85.59 75.12 85.95 74.23 86.32 73.34 Z" />
<path fill="#000000" opacity="1.00" d=" M 63.40 3.60 C 66.71 2.15 70.28 3.90 72.56 6.37 C 89.57 23.41 106.62 40.43 123.66 57.44 C 125.66 59.35 126.83 62.14 126.39 64.92 C 126.06 68.42 122.96 70.50 120.75 72.86 C 105.11 88.55 89.43 104.20 73.80 119.88 C 71.83 121.76 69.94 124.22 66.99 124.40 C 63.88 125.03 60.93 123.38 58.87 121.16 C 41.89 104.12 24.82 87.16 7.86 70.10 C 4.52 67.08 3.96 61.62 7.20 58.32 C 24.30 41.04 41.59 23.95 58.77 6.76 C 60.09 5.43 61.54 4.10 63.40 3.60 M 59.70 10.73 C 43.28 27.29 26.77 43.77 10.27 60.25 C 9.27 61.29 8.19 62.43 8.09 63.95 C 8.79 66.29 10.77 67.87 12.40 69.56 C 29.14 86.21 45.77 102.97 62.52 119.60 C 63.72 121.19 65.69 121.10 67.48 121.09 C 85.35 103.09 103.35 85.21 121.34 67.32 C 124.14 65.48 123.63 61.71 121.12 59.88 C 103.96 42.76 86.82 25.61 69.69 8.46 C 68.45 7.32 66.97 5.82 65.11 6.18 C 62.89 7.09 61.41 9.12 59.70 10.73 Z" />
<path fill="#000000" opacity="1.00" d=" M 78.45 44.00 C 81.52 41.45 84.59 38.91 87.59 36.27 C 90.77 38.77 93.87 41.36 96.89 44.05 C 94.96 45.70 93.04 47.37 91.09 49.00 C 93.21 49.00 95.34 48.99 97.46 49.10 C 99.30 50.62 101.80 49.83 103.97 50.01 C 105.24 53.70 106.71 57.34 107.59 61.15 C 107.87 64.87 107.48 68.61 107.41 72.34 C 103.30 71.93 99.32 72.90 95.29 73.44 C 94.85 74.29 94.41 75.15 93.98 76.00 C 99.03 76.00 104.07 76.00 109.12 76.00 L 109.13 77.00 C 82.76 77.01 56.39 77.00 30.02 77.01 C 27.22 76.92 24.28 77.46 21.64 76.28 C 27.03 75.69 32.48 76.11 37.90 76.00 C 37.49 75.15 37.09 74.30 36.69 73.44 C 34.97 73.38 33.06 73.63 31.79 72.22 C 29.54 72.12 27.29 72.11 25.04 72.11 C 25.07 68.43 24.52 64.77 24.67 61.10 C 25.60 57.30 27.25 53.74 28.37 50.00 C 44.22 49.93 60.08 50.10 75.92 49.94 C 76.35 49.73 77.20 49.32 77.62 49.11 C 79.86 48.98 82.10 48.99 84.35 48.97 C 82.37 47.33 80.37 45.71 78.45 44.00 M 80.97 44.00 C 83.20 45.86 85.39 47.77 87.57 49.68 C 89.84 47.87 92.25 46.20 94.24 44.06 C 92.37 41.79 89.81 40.25 87.60 38.34 C 85.40 40.23 83.21 42.15 80.97 44.00 M 29.36 52.41 C 28.28 55.28 27.22 58.17 26.07 61.02 C 28.71 61.03 31.35 61.04 33.99 61.04 C 34.00 58.16 33.99 55.28 33.98 52.40 C 32.44 52.40 30.90 52.41 29.36 52.41 M 36.02 52.39 C 36.00 58.22 36.01 64.06 36.01 69.89 C 38.56 69.90 41.10 69.85 43.65 69.76 C 43.67 63.99 43.71 58.22 43.64 52.45 C 41.10 52.42 38.56 52.40 36.02 52.39 M 54.95 52.40 C 54.91 55.28 54.91 58.16 54.91 61.04 C 57.81 61.05 60.70 61.04 63.60 61.02 C 63.60 58.16 63.59 55.30 63.56 52.44 C 60.69 52.41 57.82 52.40 54.95 52.40 M 66.00 52.36 C 66.00 55.25 66.00 58.15 66.00 61.04 C 68.99 61.04 71.98 61.04 74.97 61.04 C 74.97 58.15 74.97 55.26 74.95 52.37 C 71.96 52.36 68.98 52.36 66.00 52.36 M 77.05 52.37 C 77.03 55.26 77.03 58.16 77.03 61.06 C 79.99 61.09 82.95 61.09 85.91 61.06 C 85.91 58.17 85.91 55.28 85.88 52.40 C 82.93 52.36 79.99 52.36 77.05 52.37 M 88.18 52.39 C 88.06 58.21 88.17 64.03 88.21 69.85 C 90.76 69.89 93.31 69.89 95.87 69.86 C 95.93 64.03 95.93 58.20 95.87 52.37 C 93.30 52.35 90.74 52.35 88.18 52.39 M 98.26 52.40 C 98.21 55.29 98.21 58.18 98.22 61.07 C 100.79 61.09 103.36 61.10 105.93 61.11 C 104.80 58.19 103.72 55.25 102.59 52.33 C 101.15 52.35 99.70 52.37 98.26 52.40 M 44.89 52.41 C 44.79 58.23 44.82 64.05 44.89 69.87 C 47.30 69.87 49.71 69.87 52.12 69.87 C 52.20 64.05 52.20 58.23 52.13 52.41 C 49.72 52.41 47.30 52.41 44.89 52.41 M 42.24 73.43 C 42.14 74.07 41.96 75.35 41.86 75.99 C 43.45 75.99 45.05 76.00 46.64 76.01 C 46.40 75.34 45.91 73.99 45.66 73.32 C 44.52 73.36 43.38 73.40 42.24 73.43 M 51.22 73.36 C 51.08 74.02 50.79 75.34 50.64 76.00 C 60.86 75.99 71.08 75.99 81.30 76.00 C 81.18 75.34 80.93 74.02 80.81 73.36 C 70.95 73.43 61.08 73.45 51.22 73.36 M 86.32 73.34 C 85.95 74.23 85.59 75.12 85.22 76.01 C 86.86 76.00 88.51 76.00 90.15 75.99 C 90.05 75.34 89.86 74.05 89.76 73.40 C 88.61 73.38 87.46 73.36 86.32 73.34 Z" />
</g>
<g id="normal">
<path fill="#FBD200" opacity="1.00" d=" M 59.28 3.31 C 62.45 -0.40 68.61 -0.73 71.99 2.89 C 90.19 21.04 108.36 39.24 126.53 57.42 C 130.10 60.65 130.24 66.78 126.59 70.01 C 108.20 88.45 89.78 106.88 71.29 125.23 C 67.79 127.96 62.52 127.72 59.51 124.34 C 41.41 106.49 23.51 88.41 5.52 70.45 C 2.68 67.94 1.91 63.99 2.85 60.41 C 3.67 59.09 4.70 57.90 5.78 56.78 C 23.63 38.98 41.43 21.13 59.28 3.31 M 63.40 3.60 C 61.54 4.10 60.09 5.43 58.77 6.76 C 41.59 23.95 24.30 41.04 7.20 58.32 C 3.96 61.62 4.52 67.08 7.86 70.10 C 24.82 87.16 41.89 104.12 58.87 121.16 C 60.93 123.38 63.88 125.03 66.99 124.40 C 69.94 124.22 71.83 121.76 73.80 119.88 C 89.43 104.20 105.11 88.55 120.75 72.86 C 122.96 70.50 126.06 68.42 126.39 64.92 C 126.83 62.14 125.66 59.35 123.66 57.44 C 106.62 40.43 89.57 23.41 72.56 6.37 C 70.28 3.90 66.71 2.15 63.40 3.60 Z" />
<path fill="#FBD200" opacity="1.00" d=" M 59.70 10.73 C 61.41 9.12 62.89 7.09 65.11 6.18 C 66.97 5.82 68.45 7.32 69.69 8.46 C 86.82 25.61 103.96 42.76 121.12 59.88 C 123.63 61.71 124.14 65.48 121.34 67.32 C 103.35 85.21 85.35 103.09 67.48 121.09 C 65.69 121.10 63.72 121.19 62.52 119.60 C 45.77 102.97 29.14 86.21 12.40 69.56 C 10.77 67.87 8.79 66.29 8.09 63.95 C 8.19 62.43 9.27 61.29 10.27 60.25 C 26.77 43.77 43.28 27.29 59.70 10.73 M 78.45 44.00 C 80.37 45.71 82.37 47.33 84.35 48.97 C 82.10 48.99 79.86 48.98 77.62 49.11 C 77.20 49.32 76.35 49.73 75.92 49.94 C 60.08 50.10 44.22 49.93 28.37 50.00 C 27.25 53.74 25.60 57.30 24.67 61.10 C 24.52 64.77 25.07 68.43 25.04 72.11 C 27.29 72.11 29.54 72.12 31.79 72.22 C 33.06 73.63 34.97 73.38 36.69 73.44 C 37.09 74.30 37.49 75.15 37.90 76.00 C 32.48 76.11 27.03 75.69 21.64 76.28 C 24.28 77.46 27.22 76.92 30.02 77.01 C 56.39 77.00 82.76 77.01 109.13 77.00 L 109.12 76.00 C 104.07 76.00 99.03 76.00 93.98 76.00 C 94.41 75.15 94.85 74.29 95.29 73.44 C 99.32 72.90 103.30 71.93 107.41 72.34 C 107.48 68.61 107.87 64.87 107.59 61.15 C 106.71 57.34 105.24 53.70 103.97 50.01 C 101.80 49.83 99.30 50.62 97.46 49.10 C 95.34 48.99 93.21 49.00 91.09 49.00 C 93.04 47.37 94.96 45.70 96.89 44.05 C 93.87 41.36 90.77 38.77 87.59 36.27 C 84.59 38.91 81.52 41.45 78.45 44.00 Z" />
<path fill="#FBD200" opacity="1.00" d=" M 80.97 44.00 C 83.21 42.15 85.40 40.23 87.60 38.34 C 89.81 40.25 92.37 41.79 94.24 44.06 C 92.25 46.20 89.84 47.87 87.57 49.68 C 85.39 47.77 83.20 45.86 80.97 44.00 Z" />
<path fill="#FBD200" opacity="1.00" d=" M 29.36 52.41 C 30.90 52.41 32.44 52.40 33.98 52.40 C 33.99 55.28 34.00 58.16 33.99 61.04 C 31.35 61.04 28.71 61.03 26.07 61.02 C 27.22 58.17 28.28 55.28 29.36 52.41 Z" />
<path fill="#FBD200" opacity="1.00" d=" M 36.02 52.39 C 38.56 52.40 41.10 52.42 43.64 52.45 C 43.71 58.22 43.67 63.99 43.65 69.76 C 41.10 69.85 38.56 69.90 36.01 69.89 C 36.01 64.06 36.00 58.22 36.02 52.39 Z" />
<path fill="#FBD200" opacity="1.00" d=" M 54.95 52.40 C 57.82 52.40 60.69 52.41 63.56 52.44 C 63.59 55.30 63.60 58.16 63.60 61.02 C 60.70 61.04 57.81 61.05 54.91 61.04 C 54.91 58.16 54.91 55.28 54.95 52.40 Z" />
<path fill="#FBD200" opacity="1.00" d=" M 66.00 52.36 C 68.98 52.36 71.96 52.36 74.95 52.37 C 74.97 55.26 74.97 58.15 74.97 61.04 C 71.98 61.04 68.99 61.04 66.00 61.04 C 66.00 58.15 66.00 55.25 66.00 52.36 Z" />
<path fill="#FBD200" opacity="1.00" d=" M 77.05 52.37 C 79.99 52.36 82.93 52.36 85.88 52.40 C 85.91 55.28 85.91 58.17 85.91 61.06 C 82.95 61.09 79.99 61.09 77.03 61.06 C 77.03 58.16 77.03 55.26 77.05 52.37 Z" />
<path fill="#FBD200" opacity="1.00" d=" M 88.18 52.39 C 90.74 52.35 93.30 52.35 95.87 52.37 C 95.93 58.20 95.93 64.03 95.87 69.86 C 93.31 69.89 90.76 69.89 88.21 69.85 C 88.17 64.03 88.06 58.21 88.18 52.39 Z" />
<path fill="#FBD200" opacity="1.00" d=" M 98.26 52.40 C 99.70 52.37 101.15 52.35 102.59 52.33 C 103.72 55.25 104.80 58.19 105.93 61.11 C 103.36 61.10 100.79 61.09 98.22 61.07 C 98.21 58.18 98.21 55.29 98.26 52.40 Z" />
<path fill="#FBD200" opacity="1.00" d=" M 44.89 52.41 C 47.30 52.41 49.72 52.41 52.13 52.41 C 52.20 58.23 52.20 64.05 52.12 69.87 C 49.71 69.87 47.30 69.87 44.89 69.87 C 44.82 64.05 44.79 58.23 44.89 52.41 Z" />
<path fill="#FBD200" opacity="1.00" d=" M 42.24 73.43 C 43.38 73.40 44.52 73.36 45.66 73.32 C 45.91 73.99 46.40 75.34 46.64 76.01 C 45.05 76.00 43.45 75.99 41.86 75.99 C 41.96 75.35 42.14 74.07 42.24 73.43 Z" />
<path fill="#FBD200" opacity="1.00" d=" M 51.22 73.36 C 61.08 73.45 70.95 73.43 80.81 73.36 C 80.93 74.02 81.18 75.34 81.30 76.00 C 71.08 75.99 60.86 75.99 50.64 76.00 C 50.79 75.34 51.08 74.02 51.22 73.36 Z" />
<path fill="#FBD200" opacity="1.00" d=" M 86.32 73.34 C 87.46 73.36 88.61 73.38 89.76 73.40 C 89.86 74.05 90.05 75.34 90.15 75.99 C 88.51 76.00 86.86 76.00 85.22 76.01 C 85.59 75.12 85.95 74.23 86.32 73.34 Z" />
<path fill="#000000" opacity="1.00" d=" M 63.40 3.60 C 66.71 2.15 70.28 3.90 72.56 6.37 C 89.57 23.41 106.62 40.43 123.66 57.44 C 125.66 59.35 126.83 62.14 126.39 64.92 C 126.06 68.42 122.96 70.50 120.75 72.86 C 105.11 88.55 89.43 104.20 73.80 119.88 C 71.83 121.76 69.94 124.22 66.99 124.40 C 63.88 125.03 60.93 123.38 58.87 121.16 C 41.89 104.12 24.82 87.16 7.86 70.10 C 4.52 67.08 3.96 61.62 7.20 58.32 C 24.30 41.04 41.59 23.95 58.77 6.76 C 60.09 5.43 61.54 4.10 63.40 3.60 M 59.70 10.73 C 43.28 27.29 26.77 43.77 10.27 60.25 C 9.27 61.29 8.19 62.43 8.09 63.95 C 8.79 66.29 10.77 67.87 12.40 69.56 C 29.14 86.21 45.77 102.97 62.52 119.60 C 63.72 121.19 65.69 121.10 67.48 121.09 C 85.35 103.09 103.35 85.21 121.34 67.32 C 124.14 65.48 123.63 61.71 121.12 59.88 C 103.96 42.76 86.82 25.61 69.69 8.46 C 68.45 7.32 66.97 5.82 65.11 6.18 C 62.89 7.09 61.41 9.12 59.70 10.73 Z" />
<path fill="#000000" opacity="1.00" d=" M 78.45 44.00 C 81.52 41.45 84.59 38.91 87.59 36.27 C 90.77 38.77 93.87 41.36 96.89 44.05 C 94.96 45.70 93.04 47.37 91.09 49.00 C 93.21 49.00 95.34 48.99 97.46 49.10 C 99.30 50.62 101.80 49.83 103.97 50.01 C 105.24 53.70 106.71 57.34 107.59 61.15 C 107.87 64.87 107.48 68.61 107.41 72.34 C 103.30 71.93 99.32 72.90 95.29 73.44 C 94.85 74.29 94.41 75.15 93.98 76.00 C 99.03 76.00 104.07 76.00 109.12 76.00 L 109.13 77.00 C 82.76 77.01 56.39 77.00 30.02 77.01 C 27.22 76.92 24.28 77.46 21.64 76.28 C 27.03 75.69 32.48 76.11 37.90 76.00 C 37.49 75.15 37.09 74.30 36.69 73.44 C 34.97 73.38 33.06 73.63 31.79 72.22 C 29.54 72.12 27.29 72.11 25.04 72.11 C 25.07 68.43 24.52 64.77 24.67 61.10 C 25.60 57.30 27.25 53.74 28.37 50.00 C 44.22 49.93 60.08 50.10 75.92 49.94 C 76.35 49.73 77.20 49.32 77.62 49.11 C 79.86 48.98 82.10 48.99 84.35 48.97 C 82.37 47.33 80.37 45.71 78.45 44.00 M 80.97 44.00 C 83.20 45.86 85.39 47.77 87.57 49.68 C 89.84 47.87 92.25 46.20 94.24 44.06 C 92.37 41.79 89.81 40.25 87.60 38.34 C 85.40 40.23 83.21 42.15 80.97 44.00 M 29.36 52.41 C 28.28 55.28 27.22 58.17 26.07 61.02 C 28.71 61.03 31.35 61.04 33.99 61.04 C 34.00 58.16 33.99 55.28 33.98 52.40 C 32.44 52.40 30.90 52.41 29.36 52.41 M 36.02 52.39 C 36.00 58.22 36.01 64.06 36.01 69.89 C 38.56 69.90 41.10 69.85 43.65 69.76 C 43.67 63.99 43.71 58.22 43.64 52.45 C 41.10 52.42 38.56 52.40 36.02 52.39 M 54.95 52.40 C 54.91 55.28 54.91 58.16 54.91 61.04 C 57.81 61.05 60.70 61.04 63.60 61.02 C 63.60 58.16 63.59 55.30 63.56 52.44 C 60.69 52.41 57.82 52.40 54.95 52.40 M 66.00 52.36 C 66.00 55.25 66.00 58.15 66.00 61.04 C 68.99 61.04 71.98 61.04 74.97 61.04 C 74.97 58.15 74.97 55.26 74.95 52.37 C 71.96 52.36 68.98 52.36 66.00 52.36 M 77.05 52.37 C 77.03 55.26 77.03 58.16 77.03 61.06 C 79.99 61.09 82.95 61.09 85.91 61.06 C 85.91 58.17 85.91 55.28 85.88 52.40 C 82.93 52.36 79.99 52.36 77.05 52.37 M 88.18 52.39 C 88.06 58.21 88.17 64.03 88.21 69.85 C 90.76 69.89 93.31 69.89 95.87 69.86 C 95.93 64.03 95.93 58.20 95.87 52.37 C 93.30 52.35 90.74 52.35 88.18 52.39 M 98.26 52.40 C 98.21 55.29 98.21 58.18 98.22 61.07 C 100.79 61.09 103.36 61.10 105.93 61.11 C 104.80 58.19 103.72 55.25 102.59 52.33 C 101.15 52.35 99.70 52.37 98.26 52.40 M 44.89 52.41 C 44.79 58.23 44.82 64.05 44.89 69.87 C 47.30 69.87 49.71 69.87 52.12 69.87 C 52.20 64.05 52.20 58.23 52.13 52.41 C 49.72 52.41 47.30 52.41 44.89 52.41 M 42.24 73.43 C 42.14 74.07 41.96 75.35 41.86 75.99 C 43.45 75.99 45.05 76.00 46.64 76.01 C 46.40 75.34 45.91 73.99 45.66 73.32 C 44.52 73.36 43.38 73.40 42.24 73.43 M 51.22 73.36 C 51.08 74.02 50.79 75.34 50.64 76.00 C 60.86 75.99 71.08 75.99 81.30 76.00 C 81.18 75.34 80.93 74.02 80.81 73.36 C 70.95 73.43 61.08 73.45 51.22 73.36 M 86.32 73.34 C 85.95 74.23 85.59 75.12 85.22 76.01 C 86.86 76.00 88.51 76.00 90.15 75.99 C 90.05 75.34 89.86 74.05 89.76 73.40 C 88.61 73.38 87.46 73.36 86.32 73.34 Z" />
</g>
</svg>
