<?xml version="1.0" encoding="UTF-8" ?>
<!DOCTYPE svg PUBLIC "-//W3C//DTD SVG 1.1//EN" "http://www.w3.org/Graphics/SVG/1.1/DTD/svg11.dtd">
<svg width="173pt" height="173pt" viewBox="0 0 173 173" version="1.1" xmlns="http://www.w3.org/2000/svg">
<g id="disabled">
<path fill="#606060" opacity="1.00" d=" M 81.24 1.32 C 85.55 -0.37 90.53 0.99 93.97 3.92 C 117.84 28.06 141.97 51.97 165.90 76.06 C 168.92 78.81 170.87 83.04 169.82 87.15 C 169.26 90.81 166.47 93.46 164.00 95.98 C 142.01 118.00 120.02 140.01 97.92 161.91 C 94.38 165.39 90.56 169.95 85.04 169.39 C 79.25 169.51 76.04 164.16 72.17 160.78 C 50.33 139.31 28.75 117.57 7.09 95.91 C 4.84 93.59 2.10 91.35 1.44 88.01 C 0.23 83.72 1.86 79.04 5.11 76.10 C 27.89 53.26 50.71 30.45 73.54 7.66 C 75.96 5.39 78.09 2.60 81.24 1.32 M 82.35 4.40 C 79.37 5.44 77.15 7.81 74.87 9.89 C 52.69 32.04 30.53 54.22 8.38 76.41 C 3.78 80.65 3.17 88.60 7.89 92.97 C 31.00 116.25 54.21 139.45 77.48 162.57 C 80.42 166.13 85.40 166.80 89.61 165.55 C 92.66 164.50 94.69 161.92 97.04 159.85 C 118.26 138.64 139.49 117.42 160.69 96.19 C 164.21 92.83 167.88 88.16 166.68 82.97 C 165.50 78.23 161.47 75.13 158.23 71.78 C 136.98 50.64 115.76 29.49 94.55 8.30 C 91.37 5.29 86.76 2.99 82.35 4.40 Z" />
<path fill="#606060" opacity="1.00" d=" M 83.25 9.20 C 85.09 8.28 87.61 8.46 89.05 10.04 C 111.11 32.27 133.28 54.39 155.39 76.56 C 157.50 78.81 160.02 80.70 161.77 83.26 C 162.70 85.30 161.60 87.61 160.16 89.12 C 136.30 112.56 112.80 136.36 89.05 159.92 C 87.67 161.60 85.08 161.47 83.19 160.90 C 59.82 137.56 36.48 114.18 13.07 90.89 C 11.10 89.01 7.83 86.40 9.53 83.39 C 10.65 81.02 12.83 79.40 14.59 77.53 C 37.07 55.08 59.60 32.67 82.01 10.15 C 82.32 9.91 82.94 9.44 83.25 9.20 M 87.54 44.53 C 76.70 55.37 65.87 66.21 55.00 77.02 C 54.36 77.92 52.81 78.54 53.09 79.85 C 54.62 81.65 56.41 83.19 58.09 84.83 C 70.71 72.27 83.37 59.73 95.88 47.07 C 94.24 45.35 92.53 43.70 90.87 42.00 C 89.36 42.18 88.58 43.62 87.54 44.53 M 38.16 103.48 C 44.70 103.88 51.27 103.42 57.81 103.72 C 57.92 102.96 58.14 101.44 58.25 100.69 C 60.53 101.12 62.30 102.66 64.37 103.54 C 67.05 103.87 70.12 104.14 72.31 102.21 C 74.50 100.49 77.63 100.40 79.85 102.13 C 83.17 104.85 88.24 104.09 91.46 101.57 C 95.67 98.77 98.79 104.31 102.97 103.75 C 106.39 104.42 108.66 101.42 111.77 100.80 C 111.89 101.52 112.12 102.96 112.24 103.68 C 118.77 103.43 125.32 103.92 131.84 103.44 C 127.98 97.54 124.64 91.30 121.10 85.20 C 118.06 84.69 114.93 84.88 111.87 85.15 C 111.88 87.38 111.88 89.60 111.86 91.83 C 108.03 91.97 105.34 96.10 101.27 94.63 C 98.70 93.31 96.07 91.25 92.97 92.03 C 90.26 92.03 88.57 94.71 85.93 94.81 C 81.83 95.54 79.12 90.70 74.89 92.02 C 72.21 92.08 70.52 94.62 67.91 94.81 C 64.15 95.52 61.78 91.64 58.08 91.81 C 58.08 89.49 58.09 87.17 58.07 84.86 C 55.01 85.04 51.93 84.71 48.89 85.17 C 45.31 91.27 41.98 97.52 38.16 103.48 Z" />
<path fill="#606060" opacity="1.00" d=" M 58.19 94.71 C 60.82 94.61 62.50 97.40 65.08 97.60 C 67.24 97.83 69.71 97.99 71.55 96.61 C 73.58 95.18 76.31 93.77 78.65 95.42 C 80.85 96.87 83.27 98.22 86.04 97.71 C 88.74 97.89 90.56 95.61 92.96 94.83 C 96.80 93.75 99.12 98.42 102.97 97.74 C 106.41 98.47 108.57 95.10 111.82 95.00 C 111.85 95.69 111.91 97.06 111.95 97.75 C 107.97 98.11 104.83 102.56 100.64 100.39 C 97.49 97.96 92.86 96.96 89.43 99.39 C 86.97 101.50 83.19 101.33 80.73 99.32 C 77.23 96.83 72.60 98.13 69.42 100.52 C 65.12 102.43 62.13 97.81 58.01 97.77 C 58.06 97.01 58.15 95.48 58.19 94.71 Z" />
<path fill="#000000" opacity="1.00" d=" M 82.35 4.40 C 86.76 2.99 91.37 5.29 94.55 8.30 C 115.76 29.49 136.98 50.64 158.23 71.78 C 161.47 75.13 165.50 78.23 166.68 82.97 C 167.88 88.16 164.21 92.83 160.69 96.19 C 139.49 117.42 118.26 138.64 97.04 159.85 C 94.69 161.92 92.66 164.50 89.61 165.55 C 85.40 166.80 80.42 166.13 77.48 162.57 C 54.21 139.45 31.00 116.25 7.89 92.97 C 3.17 88.60 3.78 80.65 8.38 76.41 C 30.53 54.22 52.69 32.04 74.87 9.89 C 77.15 7.81 79.37 5.44 82.35 4.40 M 83.25 9.20 C 82.94 9.44 82.32 9.91 82.01 10.15 C 59.60 32.67 37.07 55.08 14.59 77.53 C 12.83 79.40 10.65 81.02 9.53 83.39 C 7.83 86.40 11.10 89.01 13.07 90.89 C 36.48 114.18 59.82 137.56 83.19 160.90 C 85.08 161.47 87.67 161.60 89.05 159.92 C 112.80 136.36 136.30 112.56 160.16 89.12 C 161.60 87.61 162.70 85.30 161.77 83.26 C 160.02 80.70 157.50 78.81 155.39 76.56 C 133.28 54.39 111.11 32.27 89.05 10.04 C 87.61 8.46 85.09 8.28 83.25 9.20 Z" />
<path fill="#000000" opacity="1.00" d=" M 87.54 44.53 C 88.58 43.62 89.36 42.18 90.87 42.00 C 92.53 43.70 94.24 45.35 95.88 47.07 C 83.37 59.73 70.71 72.27 58.09 84.83 C 56.41 83.19 54.62 81.65 53.09 79.85 C 52.81 78.54 54.36 77.92 55.00 77.02 C 65.87 66.21 76.70 55.37 87.54 44.53 Z" />
<path fill="#000000" opacity="1.00" d=" M 38.16 103.48 C 41.98 97.52 45.31 91.27 48.89 85.17 C 51.93 84.71 55.01 85.04 58.07 84.86 C 58.09 87.17 58.08 89.49 58.08 91.81 C 61.78 91.64 64.15 95.52 67.91 94.81 C 70.52 94.62 72.21 92.08 74.89 92.02 C 79.12 90.70 81.83 95.54 85.93 94.81 C 88.57 94.71 90.26 92.03 92.97 92.03 C 96.07 91.25 98.70 93.31 101.27 94.63 C 105.34 96.10 108.03 91.97 111.86 91.83 C 111.88 89.60 111.88 87.38 111.87 85.15 C 114.93 84.88 118.06 84.69 121.10 85.20 C 124.64 91.30 127.98 97.54 131.84 103.44 C 125.32 103.92 118.77 103.43 112.24 103.68 C 112.12 102.96 111.89 101.52 111.77 100.80 C 108.66 101.42 106.39 104.42 102.97 103.75 C 98.79 104.31 95.67 98.77 91.46 101.57 C 88.24 104.09 83.17 104.85 79.85 102.13 C 77.63 100.40 74.50 100.49 72.31 102.21 C 70.12 104.14 67.05 103.87 64.37 103.54 C 62.30 102.66 60.53 101.12 58.25 100.69 C 58.14 101.44 57.92 102.96 57.81 103.72 C 51.27 103.42 44.70 103.88 38.16 103.48 M 58.19 94.71 C 58.15 95.48 58.06 97.01 58.01 97.77 C 62.13 97.81 65.12 102.43 69.42 100.52 C 72.60 98.13 77.23 96.83 80.73 99.32 C 83.19 101.33 86.97 101.50 89.43 99.39 C 92.86 96.96 97.49 97.96 100.64 100.39 C 104.83 102.56 107.97 98.11 111.95 97.75 C 111.91 97.06 111.85 95.69 111.82 95.00 C 108.57 95.10 106.41 98.47 102.97 97.74 C 99.12 98.42 96.80 93.75 92.96 94.83 C 90.56 95.61 88.74 97.89 86.04 97.71 C 83.27 98.22 80.85 96.87 78.65 95.42 C 76.31 93.77 73.58 95.18 71.55 96.61 C 69.71 97.99 67.24 97.83 65.08 97.60 C 62.50 97.40 60.82 94.61 58.19 94.71 Z" />
</g>
<g id="normal">
<path fill="#FBD200" opacity="1.00" d=" M 81.24 1.32 C 85.55 -0.37 90.53 0.99 93.97 3.92 C 117.84 28.06 141.97 51.97 165.90 76.06 C 168.92 78.81 170.87 83.04 169.82 87.15 C 169.26 90.81 166.47 93.46 164.00 95.98 C 142.01 118.00 120.02 140.01 97.92 161.91 C 94.38 165.39 90.56 169.95 85.04 169.39 C 79.25 169.51 76.04 164.16 72.17 160.78 C 50.33 139.31 28.75 117.57 7.09 95.91 C 4.84 93.59 2.10 91.35 1.44 88.01 C 0.23 83.72 1.86 79.04 5.11 76.10 C 27.89 53.26 50.71 30.45 73.54 7.66 C 75.96 5.39 78.09 2.60 81.24 1.32 M 82.35 4.40 C 79.37 5.44 77.15 7.81 74.87 9.89 C 52.69 32.04 30.53 54.22 8.38 76.41 C 3.78 80.65 3.17 88.60 7.89 92.97 C 31.00 116.25 54.21 139.45 77.48 162.57 C 80.42 166.13 85.40 166.80 89.61 165.55 C 92.66 164.50 94.69 161.92 97.04 159.85 C 118.26 138.64 139.49 117.42 160.69 96.19 C 164.21 92.83 167.88 88.16 166.68 82.97 C 165.50 78.23 161.47 75.13 158.23 71.78 C 136.98 50.64 115.76 29.49 94.55 8.30 C 91.37 5.29 86.76 2.99 82.35 4.40 Z" />
<path fill="#FBD200" opacity="1.00" d=" M 83.25 9.20 C 85.09 8.28 87.61 8.46 89.05 10.04 C 111.11 32.27 133.28 54.39 155.39 76.56 C 157.50 78.81 160.02 80.70 161.77 83.26 C 162.70 85.30 161.60 87.61 160.16 89.12 C 136.30 112.56 112.80 136.36 89.05 159.92 C 87.67 161.60 85.08 161.47 83.19 160.90 C 59.82 137.56 36.48 114.18 13.07 90.89 C 11.10 89.01 7.83 86.40 9.53 83.39 C 10.65 81.02 12.83 79.40 14.59 77.53 C 37.07 55.08 59.60 32.67 82.01 10.15 C 82.32 9.91 82.94 9.44 83.25 9.20 M 87.54 44.53 C 76.70 55.37 65.87 66.21 55.00 77.02 C 54.36 77.92 52.81 78.54 53.09 79.85 C 54.62 81.65 56.41 83.19 58.09 84.83 C 70.71 72.27 83.37 59.73 95.88 47.07 C 94.24 45.35 92.53 43.70 90.87 42.00 C 89.36 42.18 88.58 43.62 87.54 44.53 M 38.16 103.48 C 44.70 103.88 51.27 103.42 57.81 103.72 C 57.92 102.96 58.14 101.44 58.25 100.69 C 60.53 101.12 62.30 102.66 64.37 103.54 C 67.05 103.87 70.12 104.14 72.31 102.21 C 74.50 100.49 77.63 100.40 79.85 102.13 C 83.17 104.85 88.24 104.09 91.46 101.57 C 95.67 98.77 98.79 104.31 102.97 103.75 C 106.39 104.42 108.66 101.42 111.77 100.80 C 111.89 101.52 112.12 102.96 112.24 103.68 C 118.77 103.43 125.32 103.92 131.84 103.44 C 127.98 97.54 124.64 91.30 121.10 85.20 C 118.06 84.69 114.93 84.88 111.87 85.15 C 111.88 87.38 111.88 89.60 111.86 91.83 C 108.03 91.97 105.34 96.10 101.27 94.63 C 98.70 93.31 96.07 91.25 92.97 92.03 C 90.26 92.03 88.57 94.71 85.93 94.81 C 81.83 95.54 79.12 90.70 74.89 92.02 C 72.21 92.08 70.52 94.62 67.91 94.81 C 64.15 95.52 61.78 91.64 58.08 91.81 C 58.08 89.49 58.09 87.17 58.07 84.86 C 55.01 85.04 51.93 84.71 48.89 85.17 C 45.31 91.27 41.98 97.52 38.16 103.48 Z" />
<path fill="#FBD200" opacity="1.00" d=" M 58.19 94.71 C 60.82 94.61 62.50 97.40 65.08 97.60 C 67.24 97.83 69.71 97.99 71.55 96.61 C 73.58 95.18 76.31 93.77 78.65 95.42 C 80.85 96.87 83.27 98.22 86.04 97.71 C 88.74 97.89 90.56 95.61 92.96 94.83 C 96.80 93.75 99.12 98.42 102.97 97.74 C 106.41 98.47 108.57 95.10 111.82 95.00 C 111.85 95.69 111.91 97.06 111.95 97.75 C 107.97 98.11 104.83 102.56 100.64 100.39 C 97.49 97.96 92.86 96.96 89.43 99.39 C 86.97 101.50 83.19 101.33 80.73 99.32 C 77.23 96.83 72.60 98.13 69.42 100.52 C 65.12 102.43 62.13 97.81 58.01 97.77 C 58.06 97.01 58.15 95.48 58.19 94.71 Z" />
<path fill="#000000" opacity="1.00" d=" M 82.35 4.40 C 86.76 2.99 91.37 5.29 94.55 8.30 C 115.76 29.49 136.98 50.64 158.23 71.78 C 161.47 75.13 165.50 78.23 166.68 82.97 C 167.88 88.16 164.21 92.83 160.69 96.19 C 139.49 117.42 118.26 138.64 97.04 159.85 C 94.69 161.92 92.66 164.50 89.61 165.55 C 85.40 166.80 80.42 166.13 77.48 162.57 C 54.21 139.45 31.00 116.25 7.89 92.97 C 3.17 88.60 3.78 80.65 8.38 76.41 C 30.53 54.22 52.69 32.04 74.87 9.89 C 77.15 7.81 79.37 5.44 82.35 4.40 M 83.25 9.20 C 82.94 9.44 82.32 9.91 82.01 10.15 C 59.60 32.67 37.07 55.08 14.59 77.53 C 12.83 79.40 10.65 81.02 9.53 83.39 C 7.83 86.40 11.10 89.01 13.07 90.89 C 36.48 114.18 59.82 137.56 83.19 160.90 C 85.08 161.47 87.67 161.60 89.05 159.92 C 112.80 136.36 136.30 112.56 160.16 89.12 C 161.60 87.61 162.70 85.30 161.77 83.26 C 160.02 80.70 157.50 78.81 155.39 76.56 C 133.28 54.39 111.11 32.27 89.05 10.04 C 87.61 8.46 85.09 8.28 83.25 9.20 Z" />
<path fill="#000000" opacity="1.00" d=" M 87.54 44.53 C 88.58 43.62 89.36 42.18 90.87 42.00 C 92.53 43.70 94.24 45.35 95.88 47.07 C 83.37 59.73 70.71 72.27 58.09 84.83 C 56.41 83.19 54.62 81.65 53.09 79.85 C 52.81 78.54 54.36 77.92 55.00 77.02 C 65.87 66.21 76.70 55.37 87.54 44.53 Z" />
<path fill="#000000" opacity="1.00" d=" M 38.16 103.48 C 41.98 97.52 45.31 91.27 48.89 85.17 C 51.93 84.71 55.01 85.04 58.07 84.86 C 58.09 87.17 58.08 89.49 58.08 91.81 C 61.78 91.64 64.15 95.52 67.91 94.81 C 70.52 94.62 72.21 92.08 74.89 92.02 C 79.12 90.70 81.83 95.54 85.93 94.81 C 88.57 94.71 90.26 92.03 92.97 92.03 C 96.07 91.25 98.70 93.31 101.27 94.63 C 105.34 96.10 108.03 91.97 111.86 91.83 C 111.88 89.60 111.88 87.38 111.87 85.15 C 114.93 84.88 118.06 84.69 121.10 85.20 C 124.64 91.30 127.98 97.54 131.84 103.44 C 125.32 103.92 118.77 103.43 112.24 103.68 C 112.12 102.96 111.89 101.52 111.77 100.80 C 108.66 101.42 106.39 104.42 102.97 103.75 C 98.79 104.31 95.67 98.77 91.46 101.57 C 88.24 104.09 83.17 104.85 79.85 102.13 C 77.63 100.40 74.50 100.49 72.31 102.21 C 70.12 104.14 67.05 103.87 64.37 103.54 C 62.30 102.66 60.53 101.12 58.25 100.69 C 58.14 101.44 57.92 102.96 57.81 103.72 C 51.27 103.42 44.70 103.88 38.16 103.48 M 58.19 94.71 C 58.15 95.48 58.06 97.01 58.01 97.77 C 62.13 97.81 65.12 102.43 69.42 100.52 C 72.60 98.13 77.23 96.83 80.73 99.32 C 83.19 101.33 86.97 101.50 89.43 99.39 C 92.86 96.96 97.49 97.96 100.64 100.39 C 104.83 102.56 107.97 98.11 111.95 97.75 C 111.91 97.06 111.85 95.69 111.82 95.00 C 108.57 95.10 106.41 98.47 102.97 97.74 C 99.12 98.42 96.80 93.75 92.96 94.83 C 90.56 95.61 88.74 97.89 86.04 97.71 C 83.27 98.22 80.85 96.87 78.65 95.42 C 76.31 93.77 73.58 95.18 71.55 96.61 C 69.71 97.99 67.24 97.83 65.08 97.60 C 62.50 97.40 60.82 94.61 58.19 94.71 Z" />
</g>
</svg>
