<?xml version="1.0" encoding="utf-8"?>
<!-- Generator: Adobe Illustrator 16.0.0, SVG Export Plug-In . SVG Version: 6.00 Build 0)  -->
<!DOCTYPE svg PUBLIC "-//W3C//DTD SVG 1.1//EN" "http://www.w3.org/Graphics/SVG/1.1/DTD/svg11.dtd">
<svg version="1.1" id="Layer_1" xmlns="http://www.w3.org/2000/svg" xmlns:xlink="http://www.w3.org/1999/xlink" x="0px" y="0px"
	 width="132px" height="132px" viewBox="0 0 132 132" enable-background="new 0 0 132 132" xml:space="preserve">
<g id="disabled">
	<g>
		<g>
			
				<linearGradient id="SVGID_3_" gradientUnits="userSpaceOnUse" x1="126.4268" y1="-148.335" x2="252.9014" y2="-148.335" gradientTransform="matrix(1 0 0 -1 -123.165 -81.835)">
				<stop  offset="0" style="stop-color:#000000;stop-opacity:0.6"/>
				<stop  offset="1" style="stop-color:#000000;stop-opacity:0.6"/>
			</linearGradient>
			<path id="SVGID_1_" fill="url(#SVGID_3_)" d="M69.087,11.761c8.843,15.315,50.501,87.23,60.233,104.087
				c1.332,2.309-0.735,6.719-3.327,6.719c-19.009,0-100.207,0-118.516,0c-4.331,0-5.284-2.892-3.044-6.77
				c9.737-16.865,50.96-88.228,60.072-104.01C65.487,10.084,68.006,9.892,69.087,11.761L69.087,11.761z"/>
		</g>
		<g>
			<path id="SVGID_2_" fill="#FFFFFF" d="M68.087,10.761c8.843,15.315,50.501,87.23,60.233,104.087
				c1.332,2.309-0.735,6.719-3.327,6.719c-19.009,0-100.207,0-118.516,0c-4.331,0-5.284-2.892-3.044-6.77
				c9.737-16.865,50.96-88.228,60.072-104.01C64.487,9.084,67.006,8.892,68.087,10.761L68.087,10.761z"/>
		</g>
		<g>
			<defs>
				<path id="SVGID_4_" d="M69.087,11.761c8.843,15.315,50.501,87.23,60.233,104.087c1.332,2.309-0.735,6.719-3.327,6.719
					c-19.009,0-100.207,0-118.516,0c-4.331,0-5.284-2.892-3.044-6.77c9.737-16.865,50.96-88.228,60.072-104.01
					C65.487,10.084,68.006,9.892,69.087,11.761L69.087,11.761z"/>
			</defs>
			<clipPath id="SVGID_5_">
				<use xlink:href="#SVGID_4_"  overflow="visible"/>
			</clipPath>
		</g>
	</g>
	<g>
		<g>
			<path id="SVGID_6_" fill="#575757" d="M67.316,15.969c8.442,14.622,48.218,83.284,57.51,99.379
				c0.938,1.623-0.111,3.355-1.756,3.355c-18.148,0-97.715,0-115.196,0c-1.744,0-2.394-1.752-1.441-3.403
				c9.297-16.101,48.655-84.237,57.356-99.306C64.728,14.369,66.285,14.185,67.316,15.969L67.316,15.969z"/>
		</g>
	</g>
	<g>
		<g>
			<path id="SVGID_8_" fill="#FFFFFF" d="M66.813,36.986c5.957,10.321,34.03,58.782,40.59,70.141c0.66,1.145-0.08,2.368-1.239,2.368
				c-12.81,0-68.967,0-81.305,0c-1.232,0-1.689-1.236-1.016-2.402c6.561-11.364,34.34-59.454,40.479-70.09
				C64.985,35.857,66.085,35.726,66.813,36.986L66.813,36.986z"/>
		</g>
	</g>
	<g>
		<g>
			<path id="SVGID_10_" d="M96.146,107.594h-4.002v-20h2.209c0.608,1.053,1.209,2.088,1.793,3.096V107.594L96.146,107.594z
				 M40.146,87.593v20h-3.999v-18.78c0.234-0.403,0.468-0.809,0.704-1.219L40.146,87.593L40.146,87.593z M32.146,95.74v11.854
				h-3.999v-4.929C29.273,100.715,30.631,98.365,32.146,95.74L32.146,95.74z M48.146,87.593v20h-3.999v-20H48.146L48.146,87.593z
				 M88.146,107.594h-4.002v-8.169l2.094-1.893l0.099-3.905l-2.192-3.031v-3.002h4.002V107.594L88.146,107.594z M76.146,94.283
				l2.795,2.568l-1.697,3.733l2.801,2.547l0.102-0.092v4.553h-4V94.283L76.146,94.283z M60.146,107.594v-4.182l3.691-11.314
				l0.31-0.467v15.963H60.146L60.146,107.594z M56.145,90.754l-1.586,6.464l-2.413,0.244v-9.869h3.999V90.754L56.145,90.754z
				 M52.146,102.816l3.999,1.146v3.631h-3.999V102.816L52.146,102.816z M68.146,107.594v-20h2.09l1.91,2.393v17.607H68.146
				L68.146,107.594z M100.146,97.604c2.09,3.613,3.797,6.566,4.926,8.519l0.074,1.471h-5V97.604L100.146,97.604z"/>
		</g>
	</g>
	<g>
		<g>
			<path id="SVGID_12_" d="M78.926,100.895c0,0.199,2.215,0.151,2.215,0.151l4.254-5.251l-0.362-1.313c0,0-5.974-6.021-7.107-7.83
				c-1.131-1.812-4.073-8.057-4.571-9.777c-0.496-1.721-0.678-8.827-0.678-8.872s2.309,1.538,2.76,2.218
				c0.453,0.678,1.269,1.946,1.358,3.078c0.09,1.133-0.09,5.613-0.09,5.613s-0.136,0.497,0.678,0.452
				c0.816-0.046,1.313,0.271,1.901-0.407c0.588-0.68,1.087-0.951,1.087-1.63s-0.726-2.397-0.951-3.486
				c-0.226-1.087-1.313-5.929-2.397-7.423c-1.088-1.494-2.672-3.305-4.028-5.115c-1.358-1.809-3.802-1.584-4.663-1.63
				c-0.859-0.044-1.63-0.044-1.63-0.044s-0.543-0.59-0.317-1.177c0.227-0.587,0.77-1.177,0.906-2.219
				c0.136-1.04-0.045-2.126-0.407-2.986c-0.362-0.861-1.675-1.268-2.264-1.449c-0.588-0.181-1.765-0.317-2.353-0.181
				c-0.588,0.136-1.811,1.223-2.037,1.72c-0.226,0.499-0.497,1.494-0.543,2.263c-0.045,0.77,0.543,2.082,1.04,2.671
				c0.497,0.588,1.223,0.497,1.358,0.769c0.136,0.271,0.497,0.816,0.407,1.358c-0.09,0.543-0.497,0.769-1.04,1.358
				c-0.544,0.588-2.037,2.172-2.491,3.486c-0.452,1.313-1.447,5.158-3.167,6.381s-4.346,3.124-5.16,3.124
				c-0.816,0-1.584-0.092-1.811,0.045c-0.226,0.136-0.407,0.633-0.362,1.085s0.045,1.132,0.769,1.541
				c0.724,0.405,1.268,0.541,2.671,0.359c1.402-0.18,2.986-0.858,4.435-1.855c1.449-0.995,3.395-3.393,4.073-3.893
				c0.678-0.499,2.308-2.898,2.308-2.898s0.59,6.609,0.544,7.516c-0.045,0.903-0.273,2.397-1.087,3.938s-1.72,2.988-2.67,4.525
				c-0.951,1.539-1.811,4.302-2.038,6.111c-0.226,1.812-0.814,6.246-0.814,6.608s0.226,0.905-0.271,1.223s-4.48-0.09-5.07,0
				c-0.588,0.091-0.543,0.769-0.543,0.769s6.336,3.033,6.926,3.17c0.588,0.136,0.724-0.497,0.95-0.816
				c0.226-0.314,1.313-5.158,1.901-6.563c0.588-1.403,2.489-6.2,3.531-7.559c1.042-1.357,3.154-5.529,3.697-6.027
				s1.236-0.491,1.463-0.31c0.226,0.181,1.404,2.127,1.9,3.214c0.497,1.086,2.309,3.666,3.077,4.615
				c0.771,0.951,2.808,2.988,3.802,3.895c0.998,0.903,2.26,1.772,2.668,2.18c0.408,0.406,0.371,1.717,0.248,2.061
				C80.596,98.613,78.926,101.036,78.926,100.895L78.926,100.895z"/>
		</g>
	</g>
	
		<linearGradient id="SVGID_7_" gradientUnits="userSpaceOnUse" x1="214.6895" y1="-227.3892" x2="142.005" y2="-123.5849" gradientTransform="matrix(1 0 0 -1 -123.165 -81.835)">
		<stop  offset="0" style="stop-color:#000000;stop-opacity:0"/>
		<stop  offset="1" style="stop-color:#FFFFFF;stop-opacity:0.25"/>
	</linearGradient>
	<path fill="url(#SVGID_7_)" d="M68.087,10.761c8.843,15.315,50.501,87.23,60.233,104.087c1.332,2.309-0.735,6.719-3.327,6.719
		c-19.009,0-100.207,0-118.516,0c-4.331,0-5.284-2.892-3.044-6.77c9.737-16.865,50.96-88.228,60.072-104.01
		C64.487,9.084,67.006,8.892,68.087,10.761L68.087,10.761z"/>
</g>
<g id="normal">
	<g>
		<g>
			
				<linearGradient id="SVGID_9_" gradientUnits="userSpaceOnUse" x1="126.4268" y1="-148.335" x2="252.9014" y2="-148.335" gradientTransform="matrix(1 0 0 -1 -123.165 -81.835)">
				<stop  offset="0" style="stop-color:#000000;stop-opacity:0.6"/>
				<stop  offset="1" style="stop-color:#000000;stop-opacity:0.6"/>
			</linearGradient>
			<path id="SVGID_15_" fill="url(#SVGID_9_)" d="M69.087,11.761c8.843,15.315,50.501,87.23,60.233,104.087
				c1.332,2.309-0.735,6.719-3.327,6.719c-19.009,0-100.207,0-118.516,0c-4.331,0-5.284-2.892-3.044-6.77
				c9.737-16.865,50.96-88.228,60.072-104.01C65.487,10.084,68.006,9.892,69.087,11.761L69.087,11.761z"/>
		</g>
		<g>
			<path id="SVGID_16_" fill="#FFFFFF" d="M68.087,10.761c8.843,15.315,50.501,87.23,60.233,104.087
				c1.332,2.309-0.735,6.719-3.327,6.719c-19.009,0-100.207,0-118.516,0c-4.331,0-5.284-2.892-3.044-6.77
				c9.737-16.865,50.96-88.228,60.072-104.01C64.487,9.084,67.006,8.892,68.087,10.761L68.087,10.761z"/>
		</g>
		<g>
			<defs>
				<path id="SVGID_11_" d="M69.087,11.761c8.843,15.315,50.501,87.23,60.233,104.087c1.332,2.309-0.735,6.719-3.327,6.719
					c-19.009,0-100.207,0-118.516,0c-4.331,0-5.284-2.892-3.044-6.77c9.737-16.865,50.96-88.228,60.072-104.01
					C65.487,10.084,68.006,9.892,69.087,11.761L69.087,11.761z"/>
			</defs>
			<clipPath id="SVGID_13_">
				<use xlink:href="#SVGID_11_"  overflow="visible"/>
			</clipPath>
		</g>
	</g>
	<g>
		<g>
			<path id="SVGID_20_" fill="#DA1E22" d="M67.316,15.969c8.442,14.622,48.218,83.284,57.51,99.379
				c0.938,1.623-0.111,3.355-1.756,3.355c-18.148,0-97.715,0-115.196,0c-1.744,0-2.394-1.752-1.441-3.403
				c9.297-16.101,48.655-84.237,57.356-99.306C64.728,14.369,66.285,14.185,67.316,15.969L67.316,15.969z"/>
		</g>
	</g>
	<g>
		<g>
			<path id="SVGID_22_" fill="#FFFFFF" d="M66.813,36.986c5.957,10.321,34.03,58.782,40.59,70.141
				c0.66,1.145-0.08,2.368-1.239,2.368c-12.81,0-68.967,0-81.305,0c-1.232,0-1.689-1.236-1.016-2.402
				c6.561-11.364,34.34-59.454,40.479-70.09C64.985,35.857,66.085,35.726,66.813,36.986L66.813,36.986z"/>
		</g>
	</g>
	<g>
		<g>
			<path id="SVGID_24_" d="M96.146,107.594h-4.002v-20h2.209c0.608,1.053,1.209,2.088,1.793,3.096V107.594L96.146,107.594z
				 M40.146,87.593v20h-3.999v-18.78c0.234-0.403,0.468-0.809,0.704-1.219L40.146,87.593L40.146,87.593z M32.146,95.74v11.854
				h-3.999v-4.929C29.273,100.715,30.631,98.365,32.146,95.74L32.146,95.74z M48.146,87.593v20h-3.999v-20H48.146L48.146,87.593z
				 M88.146,107.594h-4.002v-8.169l2.094-1.893l0.099-3.905l-2.192-3.031v-3.002h4.002V107.594L88.146,107.594z M76.146,94.283
				l2.795,2.568l-1.697,3.733l2.801,2.547l0.102-0.092v4.553h-4V94.283L76.146,94.283z M60.146,107.594v-4.182l3.691-11.314
				l0.31-0.467v15.963H60.146L60.146,107.594z M56.145,90.754l-1.586,6.464l-2.413,0.244v-9.869h3.999V90.754L56.145,90.754z
				 M52.146,102.816l3.999,1.146v3.631h-3.999V102.816L52.146,102.816z M68.146,107.594v-20h2.09l1.91,2.393v17.607H68.146
				L68.146,107.594z M100.146,97.604c2.09,3.613,3.797,6.566,4.926,8.519l0.074,1.471h-5V97.604L100.146,97.604z"/>
		</g>
	</g>
	<g>
		<g>
			<path id="SVGID_26_" d="M78.926,100.895c0,0.199,2.215,0.151,2.215,0.151l4.254-5.251l-0.362-1.313c0,0-5.974-6.021-7.107-7.83
				c-1.131-1.812-4.073-8.057-4.571-9.777c-0.496-1.721-0.678-8.827-0.678-8.872s2.309,1.538,2.76,2.218
				c0.453,0.678,1.269,1.946,1.358,3.078c0.09,1.133-0.09,5.613-0.09,5.613s-0.136,0.497,0.678,0.452
				c0.816-0.046,1.313,0.271,1.901-0.407c0.588-0.68,1.087-0.951,1.087-1.63s-0.726-2.397-0.951-3.486
				c-0.226-1.087-1.313-5.929-2.397-7.423c-1.088-1.494-2.672-3.305-4.028-5.115c-1.358-1.809-3.802-1.584-4.663-1.63
				c-0.859-0.044-1.63-0.044-1.63-0.044s-0.543-0.59-0.317-1.177c0.227-0.587,0.77-1.177,0.906-2.219
				c0.136-1.04-0.045-2.126-0.407-2.986c-0.362-0.861-1.675-1.268-2.264-1.449c-0.588-0.181-1.765-0.317-2.353-0.181
				c-0.588,0.136-1.811,1.223-2.037,1.72c-0.226,0.499-0.497,1.494-0.543,2.263c-0.045,0.77,0.543,2.082,1.04,2.671
				c0.497,0.588,1.223,0.497,1.358,0.769c0.136,0.271,0.497,0.816,0.407,1.358c-0.09,0.543-0.497,0.769-1.04,1.358
				c-0.544,0.588-2.037,2.172-2.491,3.486c-0.452,1.313-1.447,5.158-3.167,6.381s-4.346,3.124-5.16,3.124
				c-0.816,0-1.584-0.092-1.811,0.045c-0.226,0.136-0.407,0.633-0.362,1.085s0.045,1.132,0.769,1.541
				c0.724,0.405,1.268,0.541,2.671,0.359c1.402-0.18,2.986-0.858,4.435-1.855c1.449-0.995,3.395-3.393,4.073-3.893
				c0.678-0.499,2.308-2.898,2.308-2.898s0.59,6.609,0.544,7.516c-0.045,0.903-0.273,2.397-1.087,3.938s-1.72,2.988-2.67,4.525
				c-0.951,1.539-1.811,4.302-2.038,6.111c-0.226,1.812-0.814,6.246-0.814,6.608s0.226,0.905-0.271,1.223s-4.48-0.09-5.07,0
				c-0.588,0.091-0.543,0.769-0.543,0.769s6.336,3.033,6.926,3.17c0.588,0.136,0.724-0.497,0.95-0.816
				c0.226-0.314,1.313-5.158,1.901-6.563c0.588-1.403,2.489-6.2,3.531-7.559c1.042-1.357,3.154-5.529,3.697-6.027
				s1.236-0.491,1.463-0.31c0.226,0.181,1.404,2.127,1.9,3.214c0.497,1.086,2.309,3.666,3.077,4.615
				c0.771,0.951,2.808,2.988,3.802,3.895c0.998,0.903,2.26,1.772,2.668,2.18c0.408,0.406,0.371,1.717,0.248,2.061
				C80.596,98.613,78.926,101.036,78.926,100.895L78.926,100.895z"/>
		</g>
	</g>
	
		<linearGradient id="SVGID_14_" gradientUnits="userSpaceOnUse" x1="214.6895" y1="-227.3892" x2="142.005" y2="-123.5849" gradientTransform="matrix(1 0 0 -1 -123.165 -81.835)">
		<stop  offset="0" style="stop-color:#000000;stop-opacity:0"/>
		<stop  offset="1" style="stop-color:#FFFFFF;stop-opacity:0.25"/>
	</linearGradient>
	<path fill="url(#SVGID_14_)" d="M68.087,10.761c8.843,15.315,50.501,87.23,60.233,104.087c1.332,2.309-0.735,6.719-3.327,6.719
		c-19.009,0-100.207,0-118.516,0c-4.331,0-5.284-2.892-3.044-6.77c9.737-16.865,50.96-88.228,60.072-104.01
		C64.487,9.084,67.006,8.892,68.087,10.761L68.087,10.761z"/>
</g>
</svg>
