<?xml version="1.0" encoding="UTF-8" ?>
<!DOCTYPE svg PUBLIC "-//W3C//DTD SVG 1.1//EN" "http://www.w3.org/Graphics/SVG/1.1/DTD/svg11.dtd">
<svg width="130pt" height="130pt" viewBox="0 0 130 130" version="1.1" xmlns="http://www.w3.org/2000/svg">
<g id="disabled">
<path fill="#606060" opacity="1.00" d=" M 57.95 2.95 C 61.10 -0.45 66.92 -0.57 70.15 2.79 C 88.23 20.72 106.15 38.81 124.22 56.77 C 125.47 57.99 126.54 59.41 127.37 60.96 C 127.96 64.41 127.17 68.09 124.46 70.47 C 106.47 88.43 88.58 106.50 70.48 124.35 C 67.44 127.75 62.08 127.98 58.60 125.13 C 40.28 106.95 22.05 88.66 3.79 70.42 C -0.94 66.62 0.25 59.26 4.90 55.94 C 22.62 38.31 40.24 20.59 57.95 2.95 M 62.28 3.29 C 60.37 3.77 58.80 5.03 57.43 6.38 C 40.43 23.40 23.41 40.41 6.37 57.41 C 4.06 59.55 2.92 62.91 3.83 65.98 C 4.47 68.69 6.88 70.37 8.68 72.30 C 24.51 88.16 40.36 104.00 56.19 119.86 C 58.16 121.76 60.06 124.24 63.03 124.40 C 66.13 125.02 69.06 123.38 71.11 121.18 C 88.12 104.12 105.20 87.14 122.18 70.06 C 125.50 67.02 126.03 61.56 122.77 58.28 C 105.50 40.85 88.06 23.58 70.70 6.24 C 68.60 4.00 65.33 2.59 62.28 3.29 Z" />
<path fill="#606060" opacity="1.00" d=" M 60.49 8.28 C 61.78 7.04 63.70 5.39 65.58 6.46 C 67.77 7.85 69.40 9.92 71.25 11.70 C 87.38 27.93 103.55 44.11 119.75 60.27 C 120.76 61.30 121.82 62.46 121.91 63.98 C 121.19 66.32 119.20 67.89 117.57 69.59 C 102.03 85.05 86.57 100.61 71.03 116.07 C 68.59 118.36 66.39 121.96 62.51 121.08 C 45.16 103.62 27.71 86.26 10.25 68.91 C 8.89 67.38 6.80 66.12 6.62 63.87 C 6.69 62.23 7.80 60.98 8.89 59.88 C 26.11 42.70 43.29 25.49 60.49 8.28 M 35.14 52.12 C 34.00 53.56 33.92 55.37 33.92 57.12 C 37.11 57.23 39.96 55.62 42.97 54.83 C 43.05 66.55 42.97 78.28 43.00 90.00 C 46.33 90.01 49.67 90.01 53.00 90.00 C 53.04 78.27 52.94 66.55 53.04 54.82 C 56.02 55.64 58.81 57.39 62.01 57.07 C 61.96 55.58 62.07 53.99 61.13 52.72 C 57.08 45.85 52.98 38.96 48.00 32.72 C 43.04 38.71 39.34 45.60 35.14 52.12 M 76.00 33.00 C 76.00 45.05 76.00 57.10 75.99 69.15 C 72.96 68.00 70.27 65.76 66.91 65.77 C 65.97 69.28 68.67 72.04 70.18 74.90 C 73.57 80.18 76.45 85.99 81.01 90.37 C 85.19 84.67 88.88 78.63 92.60 72.62 C 93.48 70.88 95.15 69.26 95.00 67.18 C 92.51 63.80 88.85 68.37 86.01 69.16 C 86.00 57.11 86.00 45.05 86.00 33.00 C 82.67 33.00 79.33 33.00 76.00 33.00 Z" />
<path fill="#000000" opacity="1.00" d=" M 62.28 3.29 C 65.33 2.59 68.60 4.00 70.70 6.24 C 88.06 23.58 105.50 40.85 122.77 58.28 C 126.03 61.56 125.50 67.02 122.18 70.06 C 105.20 87.14 88.12 104.12 71.11 121.18 C 69.06 123.38 66.13 125.02 63.03 124.40 C 60.06 124.24 58.16 121.76 56.19 119.86 C 40.36 104.00 24.51 88.16 8.68 72.30 C 6.88 70.37 4.47 68.69 3.83 65.98 C 2.92 62.91 4.06 59.55 6.37 57.41 C 23.41 40.41 40.43 23.40 57.43 6.38 C 58.80 5.03 60.37 3.77 62.28 3.29 M 60.49 8.28 C 43.29 25.49 26.11 42.70 8.89 59.88 C 7.80 60.98 6.69 62.23 6.62 63.87 C 6.80 66.12 8.89 67.38 10.25 68.91 C 27.71 86.26 45.16 103.62 62.51 121.08 C 66.39 121.96 68.59 118.36 71.03 116.07 C 86.57 100.61 102.03 85.05 117.57 69.59 C 119.20 67.89 121.19 66.32 121.91 63.98 C 121.82 62.46 120.76 61.30 119.75 60.27 C 103.55 44.11 87.38 27.93 71.25 11.70 C 69.40 9.92 67.77 7.85 65.58 6.46 C 63.70 5.39 61.78 7.04 60.49 8.28 Z" />
<path fill="#000000" opacity="1.00" d=" M 35.14 52.12 C 39.34 45.60 43.04 38.71 48.00 32.72 C 52.98 38.96 57.08 45.85 61.13 52.72 C 62.07 53.99 61.96 55.58 62.01 57.07 C 58.81 57.39 56.02 55.64 53.04 54.82 C 52.94 66.55 53.04 78.27 53.00 90.00 C 49.67 90.01 46.33 90.01 43.00 90.00 C 42.97 78.28 43.05 66.55 42.97 54.83 C 39.96 55.62 37.11 57.23 33.92 57.12 C 33.92 55.37 34.00 53.56 35.14 52.12 Z" />
<path fill="#000000" opacity="1.00" d=" M 76.00 33.00 C 79.33 33.00 82.67 33.00 86.00 33.00 C 86.00 45.05 86.00 57.11 86.01 69.16 C 88.85 68.37 92.51 63.80 95.00 67.18 C 95.15 69.26 93.48 70.88 92.60 72.62 C 88.88 78.63 85.19 84.67 81.01 90.37 C 76.45 85.99 73.57 80.18 70.18 74.90 C 68.67 72.04 65.97 69.28 66.91 65.77 C 70.27 65.76 72.96 68.00 75.99 69.15 C 76.00 57.10 76.00 45.05 76.00 33.00 Z" />
</g>
<g id="normal">
<path fill="#FBD200" opacity="1.00" d=" M 57.95 2.95 C 61.10 -0.45 66.92 -0.57 70.15 2.79 C 88.23 20.72 106.15 38.81 124.22 56.77 C 125.47 57.99 126.54 59.41 127.37 60.96 C 127.96 64.41 127.17 68.09 124.46 70.47 C 106.47 88.43 88.58 106.50 70.48 124.35 C 67.44 127.75 62.08 127.98 58.60 125.13 C 40.28 106.95 22.05 88.66 3.79 70.42 C -0.94 66.62 0.25 59.26 4.90 55.94 C 22.62 38.31 40.24 20.59 57.95 2.95 M 62.28 3.29 C 60.37 3.77 58.80 5.03 57.43 6.38 C 40.43 23.40 23.41 40.41 6.37 57.41 C 4.06 59.55 2.92 62.91 3.83 65.98 C 4.47 68.69 6.88 70.37 8.68 72.30 C 24.51 88.16 40.36 104.00 56.19 119.86 C 58.16 121.76 60.06 124.24 63.03 124.40 C 66.13 125.02 69.06 123.38 71.11 121.18 C 88.12 104.12 105.20 87.14 122.18 70.06 C 125.50 67.02 126.03 61.56 122.77 58.28 C 105.50 40.85 88.06 23.58 70.70 6.24 C 68.60 4.00 65.33 2.59 62.28 3.29 Z" />
<path fill="#FBD200" opacity="1.00" d=" M 60.49 8.28 C 61.78 7.04 63.70 5.39 65.58 6.46 C 67.77 7.85 69.40 9.92 71.25 11.70 C 87.38 27.93 103.55 44.11 119.75 60.27 C 120.76 61.30 121.82 62.46 121.91 63.98 C 121.19 66.32 119.20 67.89 117.57 69.59 C 102.03 85.05 86.57 100.61 71.03 116.07 C 68.59 118.36 66.39 121.96 62.51 121.08 C 45.16 103.62 27.71 86.26 10.25 68.91 C 8.89 67.38 6.80 66.12 6.62 63.87 C 6.69 62.23 7.80 60.98 8.89 59.88 C 26.11 42.70 43.29 25.49 60.49 8.28 M 35.14 52.12 C 34.00 53.56 33.92 55.37 33.92 57.12 C 37.11 57.23 39.96 55.62 42.97 54.83 C 43.05 66.55 42.97 78.28 43.00 90.00 C 46.33 90.01 49.67 90.01 53.00 90.00 C 53.04 78.27 52.94 66.55 53.04 54.82 C 56.02 55.64 58.81 57.39 62.01 57.07 C 61.96 55.58 62.07 53.99 61.13 52.72 C 57.08 45.85 52.98 38.96 48.00 32.72 C 43.04 38.71 39.34 45.60 35.14 52.12 M 76.00 33.00 C 76.00 45.05 76.00 57.10 75.99 69.15 C 72.96 68.00 70.27 65.76 66.91 65.77 C 65.97 69.28 68.67 72.04 70.18 74.90 C 73.57 80.18 76.45 85.99 81.01 90.37 C 85.19 84.67 88.88 78.63 92.60 72.62 C 93.48 70.88 95.15 69.26 95.00 67.18 C 92.51 63.80 88.85 68.37 86.01 69.16 C 86.00 57.11 86.00 45.05 86.00 33.00 C 82.67 33.00 79.33 33.00 76.00 33.00 Z" />
<path fill="#000000" opacity="1.00" d=" M 62.28 3.29 C 65.33 2.59 68.60 4.00 70.70 6.24 C 88.06 23.58 105.50 40.85 122.77 58.28 C 126.03 61.56 125.50 67.02 122.18 70.06 C 105.20 87.14 88.12 104.12 71.11 121.18 C 69.06 123.38 66.13 125.02 63.03 124.40 C 60.06 124.24 58.16 121.76 56.19 119.86 C 40.36 104.00 24.51 88.16 8.68 72.30 C 6.88 70.37 4.47 68.69 3.83 65.98 C 2.92 62.91 4.06 59.55 6.37 57.41 C 23.41 40.41 40.43 23.40 57.43 6.38 C 58.80 5.03 60.37 3.77 62.28 3.29 M 60.49 8.28 C 43.29 25.49 26.11 42.70 8.89 59.88 C 7.80 60.98 6.69 62.23 6.62 63.87 C 6.80 66.12 8.89 67.38 10.25 68.91 C 27.71 86.26 45.16 103.62 62.51 121.08 C 66.39 121.96 68.59 118.36 71.03 116.07 C 86.57 100.61 102.03 85.05 117.57 69.59 C 119.20 67.89 121.19 66.32 121.91 63.98 C 121.82 62.46 120.76 61.30 119.75 60.27 C 103.55 44.11 87.38 27.93 71.25 11.70 C 69.40 9.92 67.77 7.85 65.58 6.46 C 63.70 5.39 61.78 7.04 60.49 8.28 Z" />
<path fill="#000000" opacity="1.00" d=" M 35.14 52.12 C 39.34 45.60 43.04 38.71 48.00 32.72 C 52.98 38.96 57.08 45.85 61.13 52.72 C 62.07 53.99 61.96 55.58 62.01 57.07 C 58.81 57.39 56.02 55.64 53.04 54.82 C 52.94 66.55 53.04 78.27 53.00 90.00 C 49.67 90.01 46.33 90.01 43.00 90.00 C 42.97 78.28 43.05 66.55 42.97 54.83 C 39.96 55.62 37.11 57.23 33.92 57.12 C 33.92 55.37 34.00 53.56 35.14 52.12 Z" />
<path fill="#000000" opacity="1.00" d=" M 76.00 33.00 C 79.33 33.00 82.67 33.00 86.00 33.00 C 86.00 45.05 86.00 57.11 86.01 69.16 C 88.85 68.37 92.51 63.80 95.00 67.18 C 95.15 69.26 93.48 70.88 92.60 72.62 C 88.88 78.63 85.19 84.67 81.01 90.37 C 76.45 85.99 73.57 80.18 70.18 74.90 C 68.67 72.04 65.97 69.28 66.91 65.77 C 70.27 65.76 72.96 68.00 75.99 69.15 C 76.00 57.10 76.00 45.05 76.00 33.00 Z" />
</g>
</svg>
