<?xml version="1.0" encoding="UTF-8" ?>
<!DOCTYPE svg PUBLIC "-//W3C//DTD SVG 1.1//EN" "http://www.w3.org/Graphics/SVG/1.1/DTD/svg11.dtd">
<svg width="130pt" height="130pt" viewBox="0 0 130 130" version="1.1" xmlns="http://www.w3.org/2000/svg">
<g id="disabled">
<path fill="#606060" opacity="1.00" d=" M 59.76 2.79 C 63.04 -0.52 68.86 -0.50 72.05 2.93 C 90.25 21.10 108.42 39.31 126.62 57.49 C 130.08 60.70 130.21 66.69 126.73 69.94 C 108.64 88.14 90.43 106.21 72.31 124.36 C 70.87 125.46 69.46 126.85 67.56 127.04 C 64.32 127.77 61.30 126.25 59.04 124.03 C 41.03 106.01 22.99 88.02 5.00 69.97 C 2.54 67.60 1.90 63.92 2.82 60.71 C 3.43 59.41 4.22 58.22 5.27 57.24 C 23.44 39.09 41.58 20.92 59.76 2.79 M 65.24 3.31 C 63.26 3.57 61.27 4.31 59.92 5.84 C 42.52 23.16 25.11 40.47 7.76 57.82 C 4.45 60.80 4.25 66.39 7.46 69.51 C 24.93 87.07 42.48 104.58 60.01 122.09 C 62.26 124.46 65.85 124.93 68.86 123.94 C 71.06 122.90 72.62 121.00 74.33 119.33 C 91.00 102.63 107.69 85.95 124.29 69.18 C 127.24 66.14 127.01 60.88 124.01 57.96 C 106.67 40.63 89.33 23.30 72.00 5.96 C 70.26 4.19 67.78 2.91 65.24 3.31 Z" />
<path fill="#606060" opacity="1.00" d=" M 64.37 6.37 C 66.05 5.71 68.04 6.43 69.13 7.81 C 86.81 25.50 104.52 43.15 122.16 60.87 C 123.69 62.27 124.08 64.94 122.41 66.39 C 104.57 84.21 86.71 102.01 68.86 119.82 C 67.47 121.70 64.46 121.86 62.93 120.07 C 45.04 102.26 27.21 84.40 9.38 66.54 C 7.87 65.16 7.71 62.70 9.20 61.25 C 26.68 43.68 44.20 26.16 61.66 8.58 C 62.51 7.79 63.25 6.81 64.37 6.37 M 77.36 34.23 C 70.41 40.39 63.56 46.66 56.63 52.83 C 51.14 51.24 45.85 48.90 40.18 48.02 C 38.41 48.44 36.13 48.38 35.04 50.12 C 34.28 52.60 36.77 54.18 38.34 55.61 C 43.26 57.88 48.40 59.65 53.43 61.68 C 55.40 70.42 57.17 79.23 59.08 88.00 C 60.36 90.48 65.17 93.11 67.02 90.11 C 67.13 83.49 67.18 76.86 67.36 70.23 C 67.78 68.78 68.22 67.33 68.74 65.91 C 73.61 67.03 78.28 69.99 83.39 69.29 C 83.90 71.79 83.85 74.37 84.19 76.90 C 85.33 78.16 88.46 79.61 89.21 77.26 C 91.57 71.46 93.85 65.48 94.86 59.30 C 93.76 58.03 92.04 57.87 90.52 57.53 C 88.63 59.38 87.16 61.62 85.29 63.50 C 81.55 59.97 76.15 59.51 71.53 57.72 C 71.80 55.65 72.50 53.54 73.79 51.87 C 76.83 47.59 79.79 43.26 82.82 38.97 C 83.86 37.90 84.13 36.47 83.91 35.03 C 81.93 34.20 79.28 32.44 77.36 34.23 Z" />
<path fill="#000000" opacity="1.00" d=" M 65.24 3.31 C 67.78 2.91 70.26 4.19 72.00 5.96 C 89.33 23.30 106.67 40.63 124.01 57.96 C 127.01 60.88 127.24 66.14 124.29 69.18 C 107.69 85.95 91.00 102.63 74.33 119.33 C 72.62 121.00 71.06 122.90 68.86 123.94 C 65.85 124.93 62.26 124.46 60.01 122.09 C 42.48 104.58 24.93 87.07 7.46 69.51 C 4.25 66.39 4.45 60.80 7.76 57.82 C 25.11 40.47 42.52 23.16 59.92 5.84 C 61.27 4.31 63.26 3.57 65.24 3.31 M 64.37 6.37 C 63.25 6.81 62.51 7.79 61.66 8.58 C 44.20 26.16 26.68 43.68 9.20 61.25 C 7.71 62.70 7.87 65.16 9.38 66.54 C 27.21 84.40 45.04 102.26 62.93 120.07 C 64.46 121.86 67.47 121.70 68.86 119.82 C 86.71 102.01 104.57 84.21 122.41 66.39 C 124.08 64.94 123.69 62.27 122.16 60.87 C 104.52 43.15 86.81 25.50 69.13 7.81 C 68.04 6.43 66.05 5.71 64.37 6.37 Z" />
<path fill="#000000" opacity="1.00" d=" M 77.36 34.23 C 79.28 32.44 81.93 34.20 83.91 35.03 C 84.13 36.47 83.86 37.90 82.82 38.97 C 79.79 43.26 76.83 47.59 73.79 51.87 C 72.50 53.54 71.80 55.65 71.53 57.72 C 76.15 59.51 81.55 59.97 85.29 63.50 C 87.16 61.62 88.63 59.38 90.52 57.53 C 92.04 57.87 93.76 58.03 94.86 59.30 C 93.85 65.48 91.57 71.46 89.21 77.26 C 88.46 79.61 85.33 78.16 84.19 76.90 C 83.85 74.37 83.90 71.79 83.39 69.29 C 78.28 69.99 73.61 67.03 68.74 65.91 C 68.22 67.33 67.78 68.78 67.36 70.23 C 67.18 76.86 67.13 83.49 67.02 90.11 C 65.17 93.11 60.36 90.48 59.08 88.00 C 57.17 79.23 55.40 70.42 53.43 61.68 C 48.40 59.65 43.26 57.88 38.34 55.61 C 36.77 54.18 34.28 52.60 35.04 50.12 C 36.13 48.38 38.41 48.44 40.18 48.02 C 45.85 48.90 51.14 51.24 56.63 52.83 C 63.56 46.66 70.41 40.39 77.36 34.23 Z" />
</g>
<g id="normal">
<path fill="#FBD200" opacity="1.00" d=" M 59.76 2.79 C 63.04 -0.52 68.86 -0.50 72.05 2.93 C 90.25 21.10 108.42 39.31 126.62 57.49 C 130.08 60.70 130.21 66.69 126.73 69.94 C 108.64 88.14 90.43 106.21 72.31 124.36 C 70.87 125.46 69.46 126.85 67.56 127.04 C 64.32 127.77 61.30 126.25 59.04 124.03 C 41.03 106.01 22.99 88.02 5.00 69.97 C 2.54 67.60 1.90 63.92 2.82 60.71 C 3.43 59.41 4.22 58.22 5.27 57.24 C 23.44 39.09 41.58 20.92 59.76 2.79 M 65.24 3.31 C 63.26 3.57 61.27 4.31 59.92 5.84 C 42.52 23.16 25.11 40.47 7.76 57.82 C 4.45 60.80 4.25 66.39 7.46 69.51 C 24.93 87.07 42.48 104.58 60.01 122.09 C 62.26 124.46 65.85 124.93 68.86 123.94 C 71.06 122.90 72.62 121.00 74.33 119.33 C 91.00 102.63 107.69 85.95 124.29 69.18 C 127.24 66.14 127.01 60.88 124.01 57.96 C 106.67 40.63 89.33 23.30 72.00 5.96 C 70.26 4.19 67.78 2.91 65.24 3.31 Z" />
<path fill="#FBD200" opacity="1.00" d=" M 64.37 6.37 C 66.05 5.71 68.04 6.43 69.13 7.81 C 86.81 25.50 104.52 43.15 122.16 60.87 C 123.69 62.27 124.08 64.94 122.41 66.39 C 104.57 84.21 86.71 102.01 68.86 119.82 C 67.47 121.70 64.46 121.86 62.93 120.07 C 45.04 102.26 27.21 84.40 9.38 66.54 C 7.87 65.16 7.71 62.70 9.20 61.25 C 26.68 43.68 44.20 26.16 61.66 8.58 C 62.51 7.79 63.25 6.81 64.37 6.37 M 77.36 34.23 C 70.41 40.39 63.56 46.66 56.63 52.83 C 51.14 51.24 45.85 48.90 40.18 48.02 C 38.41 48.44 36.13 48.38 35.04 50.12 C 34.28 52.60 36.77 54.18 38.34 55.61 C 43.26 57.88 48.40 59.65 53.43 61.68 C 55.40 70.42 57.17 79.23 59.08 88.00 C 60.36 90.48 65.17 93.11 67.02 90.11 C 67.13 83.49 67.18 76.86 67.36 70.23 C 67.78 68.78 68.22 67.33 68.74 65.91 C 73.61 67.03 78.28 69.99 83.39 69.29 C 83.90 71.79 83.85 74.37 84.19 76.90 C 85.33 78.16 88.46 79.61 89.21 77.26 C 91.57 71.46 93.85 65.48 94.86 59.30 C 93.76 58.03 92.04 57.87 90.52 57.53 C 88.63 59.38 87.16 61.62 85.29 63.50 C 81.55 59.97 76.15 59.51 71.53 57.72 C 71.80 55.65 72.50 53.54 73.79 51.87 C 76.83 47.59 79.79 43.26 82.82 38.97 C 83.86 37.90 84.13 36.47 83.91 35.03 C 81.93 34.20 79.28 32.44 77.36 34.23 Z" />
<path fill="#000000" opacity="1.00" d=" M 65.24 3.31 C 67.78 2.91 70.26 4.19 72.00 5.96 C 89.33 23.30 106.67 40.63 124.01 57.96 C 127.01 60.88 127.24 66.14 124.29 69.18 C 107.69 85.95 91.00 102.63 74.33 119.33 C 72.62 121.00 71.06 122.90 68.86 123.94 C 65.85 124.93 62.26 124.46 60.01 122.09 C 42.48 104.58 24.93 87.07 7.46 69.51 C 4.25 66.39 4.45 60.80 7.76 57.82 C 25.11 40.47 42.52 23.16 59.92 5.84 C 61.27 4.31 63.26 3.57 65.24 3.31 M 64.37 6.37 C 63.25 6.81 62.51 7.79 61.66 8.58 C 44.20 26.16 26.68 43.68 9.20 61.25 C 7.71 62.70 7.87 65.16 9.38 66.54 C 27.21 84.40 45.04 102.26 62.93 120.07 C 64.46 121.86 67.47 121.70 68.86 119.82 C 86.71 102.01 104.57 84.21 122.41 66.39 C 124.08 64.94 123.69 62.27 122.16 60.87 C 104.52 43.15 86.81 25.50 69.13 7.81 C 68.04 6.43 66.05 5.71 64.37 6.37 Z" />
<path fill="#000000" opacity="1.00" d=" M 77.36 34.23 C 79.28 32.44 81.93 34.20 83.91 35.03 C 84.13 36.47 83.86 37.90 82.82 38.97 C 79.79 43.26 76.83 47.59 73.79 51.87 C 72.50 53.54 71.80 55.65 71.53 57.72 C 76.15 59.51 81.55 59.97 85.29 63.50 C 87.16 61.62 88.63 59.38 90.52 57.53 C 92.04 57.87 93.76 58.03 94.86 59.30 C 93.85 65.48 91.57 71.46 89.21 77.26 C 88.46 79.61 85.33 78.16 84.19 76.90 C 83.85 74.37 83.90 71.79 83.39 69.29 C 78.28 69.99 73.61 67.03 68.74 65.91 C 68.22 67.33 67.78 68.78 67.36 70.23 C 67.18 76.86 67.13 83.49 67.02 90.11 C 65.17 93.11 60.36 90.48 59.08 88.00 C 57.17 79.23 55.40 70.42 53.43 61.68 C 48.40 59.65 43.26 57.88 38.34 55.61 C 36.77 54.18 34.28 52.60 35.04 50.12 C 36.13 48.38 38.41 48.44 40.18 48.02 C 45.85 48.90 51.14 51.24 56.63 52.83 C 63.56 46.66 70.41 40.39 77.36 34.23 Z" />
</g>
</svg>
