<?xml version="1.0" encoding="utf-8"?>
<!-- Generator: Adobe Illustrator 16.0.0, SVG Export Plug-In . SVG Version: 6.00 Build 0)  -->
<!DOCTYPE svg PUBLIC "-//W3C//DTD SVG 1.1//EN" "http://www.w3.org/Graphics/SVG/1.1/DTD/svg11.dtd">
<svg version="1.1" id="Layer_1" xmlns="http://www.w3.org/2000/svg" xmlns:xlink="http://www.w3.org/1999/xlink" x="0px" y="0px"
	 width="132px" height="132px" viewBox="0 0 132 132" enable-background="new 0 0 132 132" xml:space="preserve">
<g id="disabled">
	<g>
		<g>
			
				<linearGradient id="SVGID_3_" gradientUnits="userSpaceOnUse" x1="249.0391" y1="727.1699" x2="376.6211" y2="727.1699" gradientTransform="matrix(1 0 0 1 -246.3301 -660.6699)">
				<stop  offset="0" style="stop-color:#000000;stop-opacity:0.6"/>
				<stop  offset="1" style="stop-color:#000000;stop-opacity:0.6"/>
			</linearGradient>
			<path id="SVGID_1_" fill="url(#SVGID_3_)" d="M66.499,2.71c35.231,0,63.792,28.559,63.792,63.79
				c0,35.23-28.561,63.789-63.792,63.789c-35.23,0-63.79-28.559-63.79-63.789C2.709,31.269,31.269,2.71,66.499,2.71L66.499,2.71z"/>
		</g>
		<g>
			<path id="SVGID_2_" fill="#FFFFFF" d="M65.499,1.71c35.231,0,63.792,28.559,63.792,63.79c0,35.23-28.561,63.789-63.792,63.789
				c-35.23,0-63.79-28.559-63.79-63.789C1.709,30.269,30.269,1.71,65.499,1.71L65.499,1.71z"/>
		</g>
	</g>
	<g>
		<g>
			<path id="SVGID_6_" fill="#5C5C5C" d="M65.499,4.248c33.829,0,61.253,27.424,61.253,61.251c0,33.829-27.424,61.253-61.253,61.253
				c-33.828,0-61.251-27.424-61.251-61.253C4.248,31.672,31.671,4.248,65.499,4.248L65.499,4.248z"/>
		</g>
	</g>
	<g>
		<g>
			<path id="SVGID_8_" fill="#FFFFFF" d="M65.502,18.457c25.984,0,47.049,21.063,47.049,47.048c0,25.985-21.064,47.05-47.049,47.05
				c-25.983,0-47.048-21.064-47.048-47.05C18.455,39.52,39.519,18.457,65.502,18.457L65.502,18.457z"/>
		</g>
	</g>
	<g>
		<g>
			<path id="SVGID_10_" d="M99.413,75.614c-4.669-0.076-7.218-3.056-9.416-5.007h-5.771c-0.054,1.182-0.297,2.387-1.018,3.438
				c-1.598,2.334-1.186,3.297-4.5,3.665c-3.316,0.368-15,0-15,0s-13.364-0.086-15,0c-2.297,0.121-4.27-3.821-4.48-5.979
				c-0.174-1.787,1.255-5.25,3.112-6.192c-0.47-0.016-0.851-0.024-1.1-0.024c-4.018-0.002-6.756,1.439-8.284,2.205
				c-1.108,0.553-6.621,4.161-9.581,6.945c-1.743-3.716-2.722-7.863-2.722-12.238c0-4.792,1.174-9.305,3.24-13.281
				c3.043,2.704,8.018,5.95,9.063,6.472c1.528,0.766,9.555,2.662,13.569,2.854c3.744,0.178,21.756,0.41,25.044,0.452
				c1.644,0.367,7.143,2.261,7.646,5.852c0.014,0.098-0.113,0.226-0.292,0.362c0.082,0.422,0.146,0.927,0.146,1.541h6.56
				c2.065-1.911,4.569-4.346,8.783-4.414c3.687-0.06,7.208,2.99,7.208,6.677C106.621,72.626,103.1,75.675,99.413,75.614
				L99.413,75.614z M50.709,73.709c2.617-0.283,23,0,25.999,0c3.001,0,2.815-1.752,2.692-2.857c-0.123-1.104-0.355-1.302-1.83-1.422
				c-1.475-0.123-25.489,0.086-26.862,0.28C49.32,69.907,48.826,73.913,50.709,73.709L50.709,73.709z"/>
		</g>
	</g>
	<g>
		<g>
			<polygon id="SVGID_12_" fill="#5C5C5C" points="32.636,28.663 39.729,23.002 101.656,100.535 94.561,106.195 			"/>
		</g>
	</g>
	
		<linearGradient id="SVGID_4_" gradientUnits="userSpaceOnUse" x1="348.4219" y1="778.4277" x2="275.2382" y2="673.9106" gradientTransform="matrix(1 0 0 1 -246.3301 -660.6699)">
		<stop  offset="0" style="stop-color:#000000;stop-opacity:0"/>
		<stop  offset="1" style="stop-color:#FFFFFF;stop-opacity:0.25"/>
	</linearGradient>
	<path fill="url(#SVGID_4_)" d="M65.499,1.71c35.231,0,63.792,28.559,63.792,63.79c0,35.23-28.561,63.789-63.792,63.789
		c-35.23,0-63.79-28.559-63.79-63.789C1.709,30.269,30.269,1.71,65.499,1.71L65.499,1.71z"/>
</g>
<g id="normal">
	<g>
		<g>
			
				<linearGradient id="SVGID_5_" gradientUnits="userSpaceOnUse" x1="249.0391" y1="727.1699" x2="376.6211" y2="727.1699" gradientTransform="matrix(1 0 0 1 -246.3301 -660.6699)">
				<stop  offset="0" style="stop-color:#000000;stop-opacity:0.6"/>
				<stop  offset="1" style="stop-color:#000000;stop-opacity:0.6"/>
			</linearGradient>
			<path id="SVGID_15_" fill="url(#SVGID_5_)" d="M66.499,2.71c35.231,0,63.792,28.559,63.792,63.79
				c0,35.23-28.561,63.789-63.792,63.789c-35.23,0-63.79-28.559-63.79-63.789C2.709,31.269,31.269,2.71,66.499,2.71L66.499,2.71z"/>
		</g>
		<g>
			<path id="SVGID_16_" fill="#FFFFFF" d="M65.499,1.71c35.231,0,63.792,28.559,63.792,63.79c0,35.23-28.561,63.789-63.792,63.789
				c-35.23,0-63.79-28.559-63.79-63.789C1.709,30.269,30.269,1.71,65.499,1.71L65.499,1.71z"/>
		</g>
	</g>
	<g>
		<g>
			<path id="SVGID_20_" fill="#ED1C24" d="M65.499,4.248c33.829,0,61.253,27.424,61.253,61.251
				c0,33.829-27.424,61.253-61.253,61.253c-33.828,0-61.251-27.424-61.251-61.253C4.248,31.672,31.671,4.248,65.499,4.248
				L65.499,4.248z"/>
		</g>
	</g>
	<g>
		<g>
			<path id="SVGID_22_" fill="#FFFFFF" d="M65.502,18.457c25.984,0,47.049,21.063,47.049,47.048c0,25.985-21.064,47.05-47.049,47.05
				c-25.983,0-47.048-21.064-47.048-47.05C18.455,39.52,39.519,18.457,65.502,18.457L65.502,18.457z"/>
		</g>
	</g>
	<g>
		<g>
			<path id="SVGID_24_" d="M99.413,75.614c-4.669-0.076-7.218-3.056-9.416-5.007h-5.771c-0.054,1.182-0.297,2.387-1.018,3.438
				c-1.598,2.334-1.186,3.297-4.5,3.665c-3.316,0.368-15,0-15,0s-13.364-0.086-15,0c-2.297,0.121-4.27-3.821-4.48-5.979
				c-0.174-1.787,1.255-5.25,3.112-6.192c-0.47-0.016-0.851-0.024-1.1-0.024c-4.018-0.002-6.756,1.439-8.284,2.205
				c-1.108,0.553-6.621,4.161-9.581,6.945c-1.743-3.716-2.722-7.863-2.722-12.238c0-4.792,1.174-9.305,3.24-13.281
				c3.043,2.704,8.018,5.95,9.063,6.472c1.528,0.766,9.555,2.662,13.569,2.854c3.744,0.178,21.756,0.41,25.044,0.452
				c1.644,0.367,7.143,2.261,7.646,5.852c0.014,0.098-0.113,0.226-0.292,0.362c0.082,0.422,0.146,0.927,0.146,1.541h6.56
				c2.065-1.911,4.569-4.346,8.783-4.414c3.687-0.06,7.208,2.99,7.208,6.677C106.621,72.626,103.1,75.675,99.413,75.614
				L99.413,75.614z M50.709,73.709c2.617-0.283,23,0,25.999,0c3.001,0,2.815-1.752,2.692-2.857c-0.123-1.104-0.355-1.302-1.83-1.422
				c-1.475-0.123-25.489,0.086-26.862,0.28C49.32,69.907,48.826,73.913,50.709,73.709L50.709,73.709z"/>
		</g>
	</g>
	<g>
		<g>
			<polygon id="SVGID_26_" fill="#ED1C24" points="32.636,28.663 39.729,23.002 101.656,100.535 94.561,106.195 			"/>
		</g>
	</g>
	
		<linearGradient id="SVGID_7_" gradientUnits="userSpaceOnUse" x1="348.4219" y1="778.4277" x2="275.2382" y2="673.9106" gradientTransform="matrix(1 0 0 1 -246.3301 -660.6699)">
		<stop  offset="0" style="stop-color:#000000;stop-opacity:0"/>
		<stop  offset="1" style="stop-color:#FFFFFF;stop-opacity:0.25"/>
	</linearGradient>
	<path fill="url(#SVGID_7_)" d="M65.499,1.71c35.231,0,63.792,28.559,63.792,63.79c0,35.23-28.561,63.789-63.792,63.789
		c-35.23,0-63.79-28.559-63.79-63.789C1.709,30.269,30.269,1.71,65.499,1.71L65.499,1.71z"/>
</g>
</svg>
