<?xml version="1.0" encoding="utf-8"?>
<!-- Generator: Adobe Illustrator 16.0.0, SVG Export Plug-In . SVG Version: 6.00 Build 0)  -->
<!DOCTYPE svg PUBLIC "-//W3C//DTD SVG 1.1//EN" "http://www.w3.org/Graphics/SVG/1.1/DTD/svg11.dtd">
<svg version="1.1" id="Layer_1" xmlns="http://www.w3.org/2000/svg" xmlns:xlink="http://www.w3.org/1999/xlink" x="0px" y="0px"
	 width="132px" height="132px" viewBox="0 0 132 132" enable-background="new 0 0 132 132" xml:space="preserve">
<g id="disabled">
	<g>
		<g>
			
				<linearGradient id="SVGID_3_" gradientUnits="userSpaceOnUse" x1="249.5928" y1="727.1699" x2="376.0664" y2="727.1699" gradientTransform="matrix(1 0 0 1 -246.3301 -660.6699)">
				<stop  offset="0" style="stop-color:#000000;stop-opacity:0.6"/>
				<stop  offset="1" style="stop-color:#000000;stop-opacity:0.6"/>
			</linearGradient>
			<path id="SVGID_1_" fill="url(#SVGID_3_)" d="M69.087,11.762c8.843,15.315,50.501,87.228,60.233,104.085
				c1.332,2.312-0.735,6.719-3.327,6.719c-19.009,0-100.207,0-118.516,0c-4.331,0-5.284-2.892-3.044-6.77
				c9.737-16.863,50.96-88.228,60.072-104.01C65.487,10.084,68.006,9.891,69.087,11.762L69.087,11.762z"/>
		</g>
		<g>
			<path id="SVGID_2_" fill="#FFFFFF" d="M68.087,10.762c8.843,15.315,50.501,87.228,60.233,104.085
				c1.332,2.312-0.735,6.719-3.327,6.719c-19.009,0-100.207,0-118.516,0c-4.331,0-5.284-2.892-3.044-6.77
				c9.737-16.863,50.96-88.228,60.072-104.01C64.487,9.084,67.006,8.891,68.087,10.762L68.087,10.762z"/>
		</g>
	</g>
	<g>
		<g>
			<path id="SVGID_6_" fill="#575757" d="M67.316,15.969c8.441,14.624,48.218,83.284,57.51,99.379
				c0.938,1.623-0.111,3.355-1.756,3.355c-18.148,0-97.715,0-115.196,0c-1.744,0-2.394-1.752-1.441-3.402
				c9.297-16.103,48.655-84.238,57.356-99.308C64.728,14.369,66.285,14.184,67.316,15.969L67.316,15.969z"/>
		</g>
	</g>
	<g>
		<g>
			<path id="SVGID_8_" fill="#FFFFFF" d="M66.813,36.986c5.957,10.321,34.03,58.78,40.59,70.141c0.66,1.145-0.079,2.369-1.238,2.369
				c-12.811,0-68.967,0-81.305,0c-1.232,0-1.689-1.237-1.016-2.402c6.561-11.365,34.34-59.455,40.479-70.091
				C64.985,35.857,66.085,35.726,66.813,36.986L66.813,36.986z"/>
		</g>
	</g>
	<g display="none">
		<g display="inline">
			<path id="SVGID_10_" fill="#474747" d="M57.636,96.809c0-4.824,3.936-8.748,8.775-8.748c4.836,0,8.769,3.922,8.769,8.748
				c0,4.827-3.933,8.754-8.769,8.754C61.572,105.563,57.636,101.635,57.636,96.809"/>
		</g>
	</g>
	<g>
		<g>
			<path id="SVGID_12_" fill="#9A9A9A" d="M66.411,90.059c3.739,0,6.769,3.025,6.769,6.748c0,3.727-3.029,6.756-6.769,6.756
				c-3.74,0-6.776-3.029-6.776-6.756C59.636,93.085,62.672,90.059,66.411,90.059"/>
		</g>
	</g>
	<g display="none">
		<g display="inline">
			<path id="SVGID_14_" fill="#474747" d="M57.636,80.585c0-4.824,3.936-8.749,8.775-8.749c4.836,0,8.769,3.925,8.769,8.749
				c0,4.821-3.933,8.743-8.769,8.743C61.572,89.328,57.636,85.406,57.636,80.585"/>
		</g>
	</g>
	<g>
		<g>
			<path id="SVGID_16_" fill="#CDCDCD" d="M66.411,73.835c3.739,0,6.769,3.022,6.769,6.75c0,3.726-3.029,6.743-6.769,6.743
				c-3.74,0-6.776-3.02-6.776-6.743C59.636,76.857,62.672,73.835,66.411,73.835"/>
		</g>
	</g>
	<g display="none">
		<g display="inline">
			<path id="SVGID_18_" fill="#474747" d="M57.636,64.361c0-4.826,3.936-8.752,8.775-8.752c4.836,0,8.769,3.926,8.769,8.752
				c0,4.821-3.933,8.745-8.769,8.745C61.572,73.105,57.636,69.182,57.636,64.361"/>
		</g>
	</g>
	<g>
		<g>
			<path id="SVGID_20_" fill="#737373" d="M66.411,57.608c3.739,0,6.769,3.025,6.769,6.753c0,3.72-3.029,6.745-6.769,6.745
				c-3.74,0-6.776-3.023-6.776-6.745C59.636,60.633,62.672,57.608,66.411,57.608"/>
		</g>
	</g>
	
		<linearGradient id="SVGID_4_" gradientUnits="userSpaceOnUse" x1="337.8535" y1="806.2256" x2="265.1683" y2="702.4205" gradientTransform="matrix(1 0 0 1 -246.3301 -660.6699)">
		<stop  offset="0" style="stop-color:#000000;stop-opacity:0"/>
		<stop  offset="1" style="stop-color:#FFFFFF;stop-opacity:0.25"/>
	</linearGradient>
	<path fill="url(#SVGID_4_)" d="M68.087,10.762c8.843,15.315,50.501,87.228,60.233,104.085c1.332,2.312-0.735,6.719-3.327,6.719
		c-19.009,0-100.207,0-118.516,0c-4.331,0-5.284-2.892-3.044-6.77c9.737-16.863,50.96-88.228,60.072-104.01
		C64.487,9.084,67.006,8.891,68.087,10.762L68.087,10.762z"/>
</g>
<g id="normal">
	<g>
		<g>
			
				<linearGradient id="SVGID_5_" gradientUnits="userSpaceOnUse" x1="249.5928" y1="727.1699" x2="376.0664" y2="727.1699" gradientTransform="matrix(1 0 0 1 -246.3301 -660.6699)">
				<stop  offset="0" style="stop-color:#000000;stop-opacity:0.6"/>
				<stop  offset="1" style="stop-color:#000000;stop-opacity:0.6"/>
			</linearGradient>
			<path id="SVGID_23_" fill="url(#SVGID_5_)" d="M69.087,11.762c8.843,15.315,50.501,87.228,60.233,104.085
				c1.332,2.312-0.735,6.719-3.327,6.719c-19.009,0-100.207,0-118.516,0c-4.331,0-5.284-2.892-3.044-6.77
				c9.737-16.863,50.96-88.228,60.072-104.01C65.487,10.084,68.006,9.891,69.087,11.762L69.087,11.762z"/>
		</g>
		<g>
			<path id="SVGID_24_" fill="#FFFFFF" d="M68.087,10.762c8.843,15.315,50.501,87.228,60.233,104.085
				c1.332,2.312-0.735,6.719-3.327,6.719c-19.009,0-100.207,0-118.516,0c-4.331,0-5.284-2.892-3.044-6.77
				c9.737-16.863,50.96-88.228,60.072-104.01C64.487,9.084,67.006,8.891,68.087,10.762L68.087,10.762z"/>
		</g>
	</g>
	<g>
		<g>
			<path id="SVGID_28_" fill="#DA1E22" d="M67.316,15.969c8.441,14.624,48.218,83.284,57.51,99.379
				c0.938,1.623-0.111,3.355-1.756,3.355c-18.148,0-97.715,0-115.196,0c-1.744,0-2.394-1.752-1.441-3.402
				c9.297-16.103,48.655-84.238,57.356-99.308C64.728,14.369,66.285,14.184,67.316,15.969L67.316,15.969z"/>
		</g>
	</g>
	<g>
		<g>
			<path id="SVGID_30_" fill="#FFFFFF" d="M66.813,36.986c5.957,10.321,34.03,58.78,40.59,70.141
				c0.66,1.145-0.079,2.369-1.238,2.369c-12.811,0-68.967,0-81.305,0c-1.232,0-1.689-1.237-1.016-2.402
				c6.561-11.365,34.34-59.455,40.479-70.091C64.985,35.857,66.085,35.726,66.813,36.986L66.813,36.986z"/>
		</g>
	</g>
	<g display="none">
		<g display="inline">
			<path id="SVGID_32_" fill="#474747" d="M57.636,96.809c0-4.824,3.936-8.748,8.775-8.748c4.836,0,8.769,3.922,8.769,8.748
				c0,4.827-3.933,8.754-8.769,8.754C61.572,105.563,57.636,101.635,57.636,96.809"/>
		</g>
	</g>
	<g>
		<g>
			<path id="SVGID_34_" fill="#72BF44" d="M66.411,90.059c3.739,0,6.769,3.025,6.769,6.748c0,3.727-3.029,6.756-6.769,6.756
				c-3.74,0-6.776-3.029-6.776-6.756C59.636,93.085,62.672,90.059,66.411,90.059"/>
		</g>
	</g>
	<g display="none">
		<g display="inline">
			<path id="SVGID_36_" fill="#474747" d="M57.636,80.585c0-4.824,3.936-8.749,8.775-8.749c4.836,0,8.769,3.925,8.769,8.749
				c0,4.821-3.933,8.743-8.769,8.743C61.572,89.328,57.636,85.406,57.636,80.585"/>
		</g>
	</g>
	<g>
		<g>
			<path id="SVGID_38_" fill="#EDDB2A" d="M66.411,73.835c3.739,0,6.769,3.022,6.769,6.75c0,3.726-3.029,6.743-6.769,6.743
				c-3.74,0-6.776-3.02-6.776-6.743C59.636,76.857,62.672,73.835,66.411,73.835"/>
		</g>
	</g>
	<g display="none">
		<g display="inline">
			<path id="SVGID_40_" fill="#474747" d="M57.636,64.361c0-4.826,3.936-8.752,8.775-8.752c4.836,0,8.769,3.926,8.769,8.752
				c0,4.821-3.933,8.745-8.769,8.745C61.572,73.105,57.636,69.182,57.636,64.361"/>
		</g>
	</g>
	<g>
		<g>
			<path id="SVGID_42_" fill="#F04224" d="M66.411,57.608c3.739,0,6.769,3.025,6.769,6.753c0,3.72-3.029,6.745-6.769,6.745
				c-3.74,0-6.776-3.023-6.776-6.745C59.636,60.633,62.672,57.608,66.411,57.608"/>
		</g>
	</g>
	
		<linearGradient id="SVGID_7_" gradientUnits="userSpaceOnUse" x1="337.8535" y1="806.2256" x2="265.1683" y2="702.4205" gradientTransform="matrix(1 0 0 1 -246.3301 -660.6699)">
		<stop  offset="0" style="stop-color:#000000;stop-opacity:0"/>
		<stop  offset="1" style="stop-color:#FFFFFF;stop-opacity:0.25"/>
	</linearGradient>
	<path fill="url(#SVGID_7_)" d="M68.087,10.762c8.843,15.315,50.501,87.228,60.233,104.085c1.332,2.312-0.735,6.719-3.327,6.719
		c-19.009,0-100.207,0-118.516,0c-4.331,0-5.284-2.892-3.044-6.77c9.737-16.863,50.96-88.228,60.072-104.01
		C64.487,9.084,67.006,8.891,68.087,10.762L68.087,10.762z"/>
</g>
</svg>
