<?xml version="1.0" encoding="utf-8"?>
<!-- Generator: Adobe Illustrator 16.0.0, SVG Export Plug-In . SVG Version: 6.00 Build 0)  -->
<!DOCTYPE svg PUBLIC "-//W3C//DTD SVG 1.1//EN" "http://www.w3.org/Graphics/SVG/1.1/DTD/svg11.dtd">
<svg version="1.1" id="Layer_1" xmlns="http://www.w3.org/2000/svg" xmlns:xlink="http://www.w3.org/1999/xlink" x="0px" y="0px"
	 width="132px" height="132px" viewBox="0 0 132 132" enable-background="new 0 0 132 132" xml:space="preserve">
<g id="disabled">
	<g>
		<g>
			
				<linearGradient id="SVGID_3_" gradientUnits="userSpaceOnUse" x1="249.0391" y1="727.3799" x2="376.6211" y2="727.3799" gradientTransform="matrix(1 0 0 1 -246.3301 -660.6699)">
				<stop  offset="0" style="stop-color:#000000;stop-opacity:0.6"/>
				<stop  offset="1" style="stop-color:#000000;stop-opacity:0.6"/>
			</linearGradient>
			<path id="SVGID_1_" fill="url(#SVGID_3_)" d="M66.499,2.92c35.231,0,63.792,28.561,63.792,63.79
				c0,35.231-28.561,63.79-63.792,63.79c-35.23,0-63.79-28.559-63.79-63.79C2.709,31.481,31.27,2.92,66.499,2.92L66.499,2.92z"/>
		</g>
		<g>
			<path id="SVGID_2_" fill="#FFFFFF" d="M65.499,1.499c35.231,0,63.792,28.561,63.792,63.79c0,35.23-28.561,63.79-63.792,63.79
				c-35.23,0-63.79-28.56-63.79-63.79C1.709,30.06,30.27,1.499,65.499,1.499L65.499,1.499z"/>
		</g>
	</g>
	<g>
		<g>
			<path id="SVGID_6_" fill="#575757" d="M65.499,4.038c33.829,0,61.253,27.422,61.253,61.251s-27.424,61.253-61.253,61.253
				c-33.828,0-61.251-27.424-61.251-61.253S31.671,4.038,65.499,4.038L65.499,4.038z"/>
		</g>
	</g>
	<g>
		<g>
			<path id="SVGID_8_" fill="#FFFFFF" d="M65.502,18.246c25.984,0,47.049,21.065,47.049,47.048
				c0,25.985-21.064,47.049-47.049,47.049c-25.983,0-47.048-21.065-47.048-47.049C18.455,39.311,39.519,18.246,65.502,18.246
				L65.502,18.246z"/>
		</g>
	</g>
	<g>
		<g>
			<path id="SVGID_10_" d="M35.47,73.553c-3.104,1.237-5.299,4.266-5.299,7.813c0,0.047,0.006,0.09,0.006,0.137h-5.731
				c-1.005-2.544-1.781-5.199-2.302-7.947H35.47V73.553z M38.581,88.171c-3.76,0-6.808-3.048-6.808-6.808s3.048-6.809,6.808-6.809
				c3.76,0,6.809,3.049,6.809,6.809C45.391,85.123,42.341,88.171,38.581,88.171L38.581,88.171z M41.692,73.553H56.61l-1.901,7.948
				h-7.722c0-0.047,0.006-0.09,0.006-0.137C46.993,77.818,44.796,74.79,41.692,73.553L41.692,73.553z M21.362,65.293
				c0-6.722,1.51-13.089,4.198-18.792h32.15V71.5H21.804C21.519,69.471,21.362,67.4,21.362,65.293L21.362,65.293z M109.202,71.5
				H99.71v-25h5.737c2.688,5.703,4.197,12.07,4.197,18.792C109.645,67.4,109.488,69.471,109.202,71.5L109.202,71.5z M77.086,81.363
				c0-3.76,3.048-6.809,6.809-6.809c3.76,0,6.809,3.049,6.809,6.809s-3.049,6.808-6.809,6.808
				C80.134,88.171,77.086,85.123,77.086,81.363L77.086,81.363z M96.709,65.499c-0.132,3.519-1,5.795-1,9.001
				c0,0.373-0.011,0.643,0,1h4.001v-2.001l9.156,0.026c-0.521,2.759-1.3,5.424-2.306,7.976H99.71V80.5h-4.001
				c0.048,0.234,0,1.001,0,1.001h-3.41c0-0.047,0.006-0.09,0.006-0.137c0-4.646-3.767-8.412-8.412-8.412
				c-4.645,0-8.412,3.767-8.412,8.412c0,0.047,0.006,0.09,0.006,0.137h-2.778c0,0,0-6.94,0-8.001c0-2.143,0.937-1.762,0.937-5.305
				c0-7.07,5.063-14.694,5.063-14.694h17.999C96.709,53.5,96.922,59.898,96.709,65.499L96.709,65.499z M90.708,55.5H79.709l-2.999,9
				h13.999L90.708,55.5L90.708,55.5z"/>
		</g>
	</g>
	
		<linearGradient id="SVGID_4_" gradientUnits="userSpaceOnUse" x1="348.4219" y1="778.2178" x2="275.2388" y2="673.7015" gradientTransform="matrix(1 0 0 1 -246.3301 -660.6699)">
		<stop  offset="0" style="stop-color:#000000;stop-opacity:0"/>
		<stop  offset="1" style="stop-color:#FFFFFF;stop-opacity:0.25"/>
	</linearGradient>
	<path fill="url(#SVGID_4_)" d="M65.499,1.499c35.231,0,63.792,28.561,63.792,63.79c0,35.23-28.561,63.79-63.792,63.79
		c-35.23,0-63.79-28.56-63.79-63.79C1.709,30.06,30.27,1.499,65.499,1.499L65.499,1.499z"/>
</g>
<g id="normal">
	<g>
		<g>
			
				<linearGradient id="SVGID_5_" gradientUnits="userSpaceOnUse" x1="249.0391" y1="727.3799" x2="376.6211" y2="727.3799" gradientTransform="matrix(1 0 0 1 -246.3301 -660.6699)">
				<stop  offset="0" style="stop-color:#000000;stop-opacity:0.6"/>
				<stop  offset="1" style="stop-color:#000000;stop-opacity:0.6"/>
			</linearGradient>
			<path id="SVGID_13_" fill="url(#SVGID_5_)" d="M66.499,2.92c35.231,0,63.792,28.561,63.792,63.79
				c0,35.231-28.561,63.79-63.792,63.79c-35.23,0-63.79-28.559-63.79-63.79C2.709,31.481,31.27,2.92,66.499,2.92L66.499,2.92z"/>
		</g>
		<g>
			<path id="SVGID_14_" fill="#FFFFFF" d="M65.499,1.499c35.231,0,63.792,28.561,63.792,63.79c0,35.23-28.561,63.79-63.792,63.79
				c-35.23,0-63.79-28.56-63.79-63.79C1.709,30.06,30.27,1.499,65.499,1.499L65.499,1.499z"/>
		</g>
	</g>
	<g>
		<g>
			<path id="SVGID_18_" fill="#DA1E22" d="M65.499,4.038c33.829,0,61.253,27.422,61.253,61.251s-27.424,61.253-61.253,61.253
				c-33.828,0-61.251-27.424-61.251-61.253S31.671,4.038,65.499,4.038L65.499,4.038z"/>
		</g>
	</g>
	<g>
		<g>
			<path id="SVGID_20_" fill="#FFFFFF" d="M65.502,18.246c25.984,0,47.049,21.065,47.049,47.048
				c0,25.985-21.064,47.049-47.049,47.049c-25.983,0-47.048-21.065-47.048-47.049C18.455,39.311,39.519,18.246,65.502,18.246
				L65.502,18.246z"/>
		</g>
	</g>
	<g>
		<g>
			<path id="SVGID_22_" d="M35.47,73.553c-3.104,1.237-5.299,4.266-5.299,7.813c0,0.047,0.006,0.09,0.006,0.137h-5.731
				c-1.005-2.544-1.781-5.199-2.302-7.947H35.47V73.553z M38.581,88.171c-3.76,0-6.808-3.048-6.808-6.808s3.048-6.809,6.808-6.809
				c3.76,0,6.809,3.049,6.809,6.809C45.391,85.123,42.341,88.171,38.581,88.171L38.581,88.171z M41.692,73.553H56.61l-1.901,7.948
				h-7.722c0-0.047,0.006-0.09,0.006-0.137C46.993,77.818,44.796,74.79,41.692,73.553L41.692,73.553z M21.362,65.293
				c0-6.722,1.51-13.089,4.198-18.792h32.15V71.5H21.804C21.519,69.471,21.362,67.4,21.362,65.293L21.362,65.293z M109.202,71.5
				H99.71v-25h5.737c2.688,5.703,4.197,12.07,4.197,18.792C109.645,67.4,109.488,69.471,109.202,71.5L109.202,71.5z M77.086,81.363
				c0-3.76,3.048-6.809,6.809-6.809c3.76,0,6.809,3.049,6.809,6.809s-3.049,6.808-6.809,6.808
				C80.134,88.171,77.086,85.123,77.086,81.363L77.086,81.363z M96.709,65.499c-0.132,3.519-1,5.795-1,9.001
				c0,0.373-0.011,0.643,0,1h4.001v-2.001l9.156,0.026c-0.521,2.759-1.3,5.424-2.306,7.976H99.71V80.5h-4.001
				c0.048,0.234,0,1.001,0,1.001h-3.41c0-0.047,0.006-0.09,0.006-0.137c0-4.646-3.767-8.412-8.412-8.412
				c-4.645,0-8.412,3.767-8.412,8.412c0,0.047,0.006,0.09,0.006,0.137h-2.778c0,0,0-6.94,0-8.001c0-2.143,0.937-1.762,0.937-5.305
				c0-7.07,5.063-14.694,5.063-14.694h17.999C96.709,53.5,96.922,59.898,96.709,65.499L96.709,65.499z M90.708,55.5H79.709l-2.999,9
				h13.999L90.708,55.5L90.708,55.5z"/>
		</g>
	</g>
	
		<linearGradient id="SVGID_7_" gradientUnits="userSpaceOnUse" x1="348.4219" y1="778.2178" x2="275.2388" y2="673.7015" gradientTransform="matrix(1 0 0 1 -246.3301 -660.6699)">
		<stop  offset="0" style="stop-color:#000000;stop-opacity:0"/>
		<stop  offset="1" style="stop-color:#FFFFFF;stop-opacity:0.25"/>
	</linearGradient>
	<path fill="url(#SVGID_7_)" d="M65.499,1.499c35.231,0,63.792,28.561,63.792,63.79c0,35.23-28.561,63.79-63.792,63.79
		c-35.23,0-63.79-28.56-63.79-63.79C1.709,30.06,30.27,1.499,65.499,1.499L65.499,1.499z"/>
</g>
</svg>
