<?xml version="1.0" encoding="utf-8"?>
<!-- Generator: Adobe Illustrator 16.0.0, SVG Export Plug-In . SVG Version: 6.00 Build 0)  -->
<!DOCTYPE svg PUBLIC "-//W3C//DTD SVG 1.1//EN" "http://www.w3.org/Graphics/SVG/1.1/DTD/svg11.dtd">
<svg version="1.1" id="Layer_1" xmlns="http://www.w3.org/2000/svg" xmlns:xlink="http://www.w3.org/1999/xlink" x="0px" y="0px"
	 width="132px" height="132px" viewBox="0 0 132 132" enable-background="new 0 0 132 132" xml:space="preserve">
<g id="disabled">
	<g>
		<g>
			
				<linearGradient id="SVGID_3_" gradientUnits="userSpaceOnUse" x1="249.5928" y1="727.1699" x2="376.0664" y2="727.1699" gradientTransform="matrix(1 0 0 1 -246.3301 -660.6699)">
				<stop  offset="0" style="stop-color:#000000;stop-opacity:0.6"/>
				<stop  offset="1" style="stop-color:#000000;stop-opacity:0.6"/>
			</linearGradient>
			<path id="SVGID_1_" fill="url(#SVGID_3_)" d="M69.087,11.761c8.843,15.315,50.501,87.23,60.233,104.087
				c1.332,2.31-0.735,6.719-3.327,6.719c-19.009,0-100.207,0-118.516,0c-4.331,0-5.284-2.892-3.044-6.771
				c9.737-16.864,50.96-88.228,60.072-104.01C65.487,10.084,68.006,9.89,69.087,11.761L69.087,11.761z"/>
		</g>
		<g>
			<path id="SVGID_2_" fill="#FFFFFF" d="M68.087,10.761c8.843,15.315,50.501,87.23,60.233,104.087
				c1.332,2.31-0.735,6.719-3.327,6.719c-19.009,0-100.207,0-118.516,0c-4.331,0-5.284-2.892-3.044-6.771
				c9.737-16.864,50.96-88.228,60.072-104.01C64.487,9.084,67.006,8.89,68.087,10.761L68.087,10.761z"/>
		</g>
	</g>
	<g>
		<g>
			<path id="SVGID_6_" fill="#575757" d="M67.316,15.969c8.441,14.622,48.218,83.284,57.51,99.379
				c0.938,1.623-0.111,3.355-1.756,3.355c-18.148,0-97.715,0-115.196,0c-1.744,0-2.394-1.752-1.441-3.403
				c9.297-16.101,48.655-84.238,57.356-99.306C64.728,14.368,66.285,14.183,67.316,15.969L67.316,15.969z"/>
		</g>
	</g>
	<g>
		<g>
			<path id="SVGID_8_" fill="#FFFFFF" d="M66.813,36.985c5.957,10.321,34.03,58.783,40.59,70.141
				c0.66,1.146-0.079,2.369-1.238,2.369c-12.811,0-68.967,0-81.305,0c-1.232,0-1.689-1.237-1.016-2.403
				c6.561-11.365,34.34-59.454,40.479-70.09C64.985,35.855,66.085,35.725,66.813,36.985L66.813,36.985z"/>
		</g>
	</g>
	<g>
		<g>
			<polygon id="SVGID_10_" points="86.277,73.014 74.225,85.07 86.277,97.124 77.611,105.787 65.559,93.734 53.505,105.787 
				44.841,97.124 56.895,85.07 44.839,73.014 53.505,64.351 65.559,76.406 77.613,64.351 			"/>
		</g>
	</g>
	
		<linearGradient id="SVGID_4_" gradientUnits="userSpaceOnUse" x1="337.8535" y1="806.2246" x2="265.1689" y2="702.4203" gradientTransform="matrix(1 0 0 1 -246.3301 -660.6699)">
		<stop  offset="0" style="stop-color:#000000;stop-opacity:0"/>
		<stop  offset="1" style="stop-color:#FFFFFF;stop-opacity:0.25"/>
	</linearGradient>
	<path fill="url(#SVGID_4_)" d="M68.087,10.761c8.843,15.315,50.501,87.23,60.233,104.087c1.332,2.31-0.735,6.719-3.327,6.719
		c-19.009,0-100.207,0-118.516,0c-4.331,0-5.284-2.892-3.044-6.771c9.737-16.864,50.96-88.228,60.072-104.01
		C64.487,9.084,67.006,8.89,68.087,10.761L68.087,10.761z"/>
</g>
<g id="normal">
	<g>
		<g>
			
				<linearGradient id="SVGID_5_" gradientUnits="userSpaceOnUse" x1="249.5928" y1="727.1699" x2="376.0664" y2="727.1699" gradientTransform="matrix(1 0 0 1 -246.3301 -660.6699)">
				<stop  offset="0" style="stop-color:#000000;stop-opacity:0.6"/>
				<stop  offset="1" style="stop-color:#000000;stop-opacity:0.6"/>
			</linearGradient>
			<path id="SVGID_13_" fill="url(#SVGID_5_)" d="M69.087,11.761c8.843,15.315,50.501,87.23,60.233,104.087
				c1.332,2.31-0.735,6.719-3.327,6.719c-19.009,0-100.207,0-118.516,0c-4.331,0-5.284-2.892-3.044-6.771
				c9.737-16.864,50.96-88.228,60.072-104.01C65.487,10.084,68.006,9.89,69.087,11.761L69.087,11.761z"/>
		</g>
		<g>
			<path id="SVGID_14_" fill="#FFFFFF" d="M68.087,10.761c8.843,15.315,50.501,87.23,60.233,104.087
				c1.332,2.31-0.735,6.719-3.327,6.719c-19.009,0-100.207,0-118.516,0c-4.331,0-5.284-2.892-3.044-6.771
				c9.737-16.864,50.96-88.228,60.072-104.01C64.487,9.084,67.006,8.89,68.087,10.761L68.087,10.761z"/>
		</g>
	</g>
	<g>
		<g>
			<path id="SVGID_18_" fill="#DA1E22" d="M67.316,15.969c8.441,14.622,48.218,83.284,57.51,99.379
				c0.938,1.623-0.111,3.355-1.756,3.355c-18.148,0-97.715,0-115.196,0c-1.744,0-2.394-1.752-1.441-3.403
				c9.297-16.101,48.655-84.238,57.356-99.306C64.728,14.368,66.285,14.183,67.316,15.969L67.316,15.969z"/>
		</g>
	</g>
	<g>
		<g>
			<path id="SVGID_20_" fill="#FFFFFF" d="M66.813,36.985c5.957,10.321,34.03,58.783,40.59,70.141
				c0.66,1.146-0.079,2.369-1.238,2.369c-12.811,0-68.967,0-81.305,0c-1.232,0-1.689-1.237-1.016-2.403
				c6.561-11.365,34.34-59.454,40.479-70.09C64.985,35.855,66.085,35.725,66.813,36.985L66.813,36.985z"/>
		</g>
	</g>
	<g>
		<g>
			<polygon id="SVGID_22_" points="86.277,73.014 74.225,85.07 86.277,97.124 77.611,105.787 65.559,93.734 53.505,105.787 
				44.841,97.124 56.895,85.07 44.839,73.014 53.505,64.351 65.559,76.406 77.613,64.351 			"/>
		</g>
	</g>
	
		<linearGradient id="SVGID_7_" gradientUnits="userSpaceOnUse" x1="337.8535" y1="806.2246" x2="265.1689" y2="702.4203" gradientTransform="matrix(1 0 0 1 -246.3301 -660.6699)">
		<stop  offset="0" style="stop-color:#000000;stop-opacity:0"/>
		<stop  offset="1" style="stop-color:#FFFFFF;stop-opacity:0.25"/>
	</linearGradient>
	<path fill="url(#SVGID_7_)" d="M68.087,10.761c8.843,15.315,50.501,87.23,60.233,104.087c1.332,2.31-0.735,6.719-3.327,6.719
		c-19.009,0-100.207,0-118.516,0c-4.331,0-5.284-2.892-3.044-6.771c9.737-16.864,50.96-88.228,60.072-104.01
		C64.487,9.084,67.006,8.89,68.087,10.761L68.087,10.761z"/>
</g>
</svg>
