<?xml version="1.0" encoding="UTF-8" ?>
<!DOCTYPE svg PUBLIC "-//W3C//DTD SVG 1.1//EN" "http://www.w3.org/Graphics/SVG/1.1/DTD/svg11.dtd">
<svg width="136pt" height="136pt" viewBox="0 0 136 136" version="1.1" xmlns="http://www.w3.org/2000/svg">
<g id="disabled">
<path fill="#ffffff" opacity="1.00" d=" M 16.56 0.00 L 116.77 0.00 C 117.98 1.42 119.35 2.95 119.02 4.99 C 118.96 46.86 119.04 88.74 118.97 130.62 C 118.18 131.40 117.39 132.19 116.60 132.98 C 83.20 133.01 49.79 133.02 16.38 132.98 C 15.61 132.19 14.83 131.41 14.05 130.63 C 13.97 87.88 13.98 45.12 14.04 2.36 C 14.86 1.55 15.70 0.76 16.56 0.00 M 17.39 2.09 C 16.26 2.75 15.80 3.73 16.00 5.02 C 16.00 46.00 16.00 86.98 16.00 127.96 C 15.57 129.73 17.14 131.42 18.94 131.00 C 50.65 131.00 82.35 131.00 114.06 131.00 C 115.85 131.43 117.44 129.72 117.00 127.96 C 117.00 86.97 117.00 45.98 117.00 4.99 C 117.42 3.26 115.86 1.59 114.10 2.00 C 81.86 2.06 49.62 1.87 17.39 2.09 Z" />
<path fill="#ffffff" opacity="1.00" d=" M 19.39 4.08 C 50.23 3.88 81.10 4.07 111.95 3.99 C 113.27 3.73 115.05 4.48 114.97 6.03 C 115.04 46.01 114.97 86.00 115.01 125.99 C 115.26 127.28 114.52 129.03 113.00 128.97 C 82.32 129.04 51.65 128.97 20.97 129.01 C 19.66 129.27 17.93 128.46 18.02 126.94 C 17.96 86.96 18.03 46.98 17.99 7.00 C 17.79 5.70 18.25 4.73 19.39 4.08 M 20.42 5.09 C 19.28 5.72 18.81 6.69 19.00 7.99 C 19.00 46.98 19.00 85.97 19.00 124.97 C 18.72 126.28 19.53 128.01 21.03 127.97 C 51.04 128.04 81.05 127.98 111.06 128.00 C 112.36 128.27 114.06 127.40 113.97 125.92 C 114.04 86.64 113.98 47.36 114.00 8.07 C 114.44 6.30 112.87 4.56 111.06 5.00 C 80.84 5.06 50.62 4.88 20.42 5.09 Z" />
<path fill="#ffffff" opacity="1.00" d=" M 80.18 28.00 C 84.04 24.28 87.39 20.09 90.99 16.13 C 94.28 20.36 98.02 24.22 101.82 28.00 C 99.50 28.00 97.18 28.00 94.87 28.00 C 95.36 57.66 94.86 87.34 95.14 117.00 C 92.38 117.00 89.61 117.00 86.84 117.00 C 87.14 87.34 86.58 57.66 87.14 28.00 C 84.82 28.00 82.50 28.00 80.18 28.00 Z" />
<path fill="#ffffff" opacity="1.00" d=" M 46.16 59.62 C 53.41 58.80 60.54 57.15 67.80 56.44 C 65.58 60.52 63.47 64.76 62.31 69.28 C 60.45 68.41 58.69 67.35 56.95 66.28 C 51.72 69.35 46.72 72.79 41.53 75.91 C 41.67 89.60 41.44 103.28 41.72 116.96 C 38.92 117.02 36.12 117.03 33.33 116.94 C 33.61 102.35 33.54 87.75 33.39 73.16 C 39.49 69.66 45.51 66.00 51.73 62.73 C 49.81 61.83 47.94 60.80 46.16 59.62 Z" />
<path fill="#ffffff" opacity="1.00" d=" M 62.00 84.00 C 63.33 84.00 64.67 84.00 66.00 84.00 C 66.00 88.00 66.00 92.00 66.00 96.00 C 64.67 96.00 63.33 96.00 62.00 96.00 C 62.00 92.00 62.00 88.00 62.00 84.00 Z" />
<path fill="#ffffff" opacity="1.00" d=" M 62.00 104.00 C 63.33 104.00 64.67 104.00 66.00 104.00 C 66.00 108.33 66.00 112.67 66.00 117.00 C 64.67 117.00 63.33 117.00 62.00 117.00 C 62.00 112.67 62.00 108.33 62.00 104.00 Z" />
<path fill="#606060" opacity="1.00" d=" M 17.39 2.09 C 49.62 1.87 81.86 2.06 114.10 2.00 C 115.86 1.59 117.42 3.26 117.00 4.99 C 117.00 45.98 117.00 86.97 117.00 127.96 C 117.44 129.72 115.85 131.43 114.06 131.00 C 82.35 131.00 50.65 131.00 18.94 131.00 C 17.14 131.42 15.57 129.73 16.00 127.96 C 16.00 86.98 16.00 46.00 16.00 5.02 C 15.80 3.73 16.26 2.75 17.39 2.09 M 19.39 4.08 C 18.25 4.73 17.79 5.70 17.99 7.00 C 18.03 46.98 17.96 86.96 18.02 126.94 C 17.93 128.46 19.66 129.27 20.97 129.01 C 51.65 128.97 82.32 129.04 113.00 128.97 C 114.52 129.03 115.26 127.28 115.01 125.99 C 114.97 86.00 115.04 46.01 114.97 6.03 C 115.05 4.48 113.27 3.73 111.95 3.99 C 81.10 4.07 50.23 3.88 19.39 4.08 Z" />
<path fill="#606060" opacity="1.00" d=" M 20.42 5.09 C 50.62 4.88 80.84 5.06 111.06 5.00 C 112.87 4.56 114.44 6.30 114.00 8.07 C 113.98 47.36 114.04 86.64 113.97 125.92 C 114.06 127.40 112.36 128.27 111.06 128.00 C 81.05 127.98 51.04 128.04 21.03 127.97 C 19.53 128.01 18.72 126.28 19.00 124.97 C 19.00 85.97 19.00 46.98 19.00 7.99 C 18.81 6.69 19.28 5.72 20.42 5.09 M 80.18 28.00 C 82.50 28.00 84.82 28.00 87.14 28.00 C 86.58 57.66 87.14 87.34 86.84 117.00 C 89.61 117.00 92.38 117.00 95.14 117.00 C 94.86 87.34 95.36 57.66 94.87 28.00 C 97.18 28.00 99.50 28.00 101.82 28.00 C 98.02 24.22 94.28 20.36 90.99 16.13 C 87.39 20.09 84.04 24.28 80.18 28.00 M 46.16 59.62 C 47.94 60.80 49.81 61.83 51.73 62.73 C 45.51 66.00 39.49 69.66 33.39 73.16 C 33.54 87.75 33.61 102.35 33.33 116.94 C 36.12 117.03 38.92 117.02 41.72 116.96 C 41.44 103.28 41.67 89.60 41.53 75.91 C 46.72 72.79 51.72 69.35 56.95 66.28 C 58.69 67.35 60.45 68.41 62.31 69.28 C 63.47 64.76 65.58 60.52 67.80 56.44 C 60.54 57.15 53.41 58.80 46.16 59.62 M 62.00 84.00 C 62.00 88.00 62.00 92.00 62.00 96.00 C 63.33 96.00 64.67 96.00 66.00 96.00 C 66.00 92.00 66.00 88.00 66.00 84.00 C 64.67 84.00 63.33 84.00 62.00 84.00 M 62.00 104.00 C 62.00 108.33 62.00 112.67 62.00 117.00 C 63.33 117.00 64.67 117.00 66.00 117.00 C 66.00 112.67 66.00 108.33 66.00 104.00 C 64.67 104.00 63.33 104.00 62.00 104.00 Z" />
</g>
<g id="normal">
<path fill="#000000" opacity="1.00" d=" M 16.56 0.00 L 116.77 0.00 C 117.98 1.42 119.35 2.95 119.02 4.99 C 118.96 46.86 119.04 88.74 118.97 130.62 C 118.18 131.40 117.39 132.19 116.60 132.98 C 83.20 133.01 49.79 133.02 16.38 132.98 C 15.61 132.19 14.83 131.41 14.05 130.63 C 13.97 87.88 13.98 45.12 14.04 2.36 C 14.86 1.55 15.70 0.76 16.56 0.00 M 17.39 2.09 C 16.26 2.75 15.80 3.73 16.00 5.02 C 16.00 46.00 16.00 86.98 16.00 127.96 C 15.57 129.73 17.14 131.42 18.94 131.00 C 50.65 131.00 82.35 131.00 114.06 131.00 C 115.85 131.43 117.44 129.72 117.00 127.96 C 117.00 86.97 117.00 45.98 117.00 4.99 C 117.42 3.26 115.86 1.59 114.10 2.00 C 81.86 2.06 49.62 1.87 17.39 2.09 Z" />
<path fill="#000000" opacity="1.00" d=" M 19.39 4.08 C 50.23 3.88 81.10 4.07 111.95 3.99 C 113.27 3.73 115.05 4.48 114.97 6.03 C 115.04 46.01 114.97 86.00 115.01 125.99 C 115.26 127.28 114.52 129.03 113.00 128.97 C 82.32 129.04 51.65 128.97 20.97 129.01 C 19.66 129.27 17.93 128.46 18.02 126.94 C 17.96 86.96 18.03 46.98 17.99 7.00 C 17.79 5.70 18.25 4.73 19.39 4.08 M 20.42 5.09 C 19.28 5.72 18.81 6.69 19.00 7.99 C 19.00 46.98 19.00 85.97 19.00 124.97 C 18.72 126.28 19.53 128.01 21.03 127.97 C 51.04 128.04 81.05 127.98 111.06 128.00 C 112.36 128.27 114.06 127.40 113.97 125.92 C 114.04 86.64 113.98 47.36 114.00 8.07 C 114.44 6.30 112.87 4.56 111.06 5.00 C 80.84 5.06 50.62 4.88 20.42 5.09 Z" />
<path fill="#000000" opacity="1.00" d=" M 80.18 28.00 C 84.04 24.28 87.39 20.09 90.99 16.13 C 94.28 20.36 98.02 24.22 101.82 28.00 C 99.50 28.00 97.18 28.00 94.87 28.00 C 95.36 57.66 94.86 87.34 95.14 117.00 C 92.38 117.00 89.61 117.00 86.84 117.00 C 87.14 87.34 86.58 57.66 87.14 28.00 C 84.82 28.00 82.50 28.00 80.18 28.00 Z" />
<path fill="#000000" opacity="1.00" d=" M 46.16 59.62 C 53.41 58.80 60.54 57.15 67.80 56.44 C 65.58 60.52 63.47 64.76 62.31 69.28 C 60.45 68.41 58.69 67.35 56.95 66.28 C 51.72 69.35 46.72 72.79 41.53 75.91 C 41.67 89.60 41.44 103.28 41.72 116.96 C 38.92 117.02 36.12 117.03 33.33 116.94 C 33.61 102.35 33.54 87.75 33.39 73.16 C 39.49 69.66 45.51 66.00 51.73 62.73 C 49.81 61.83 47.94 60.80 46.16 59.62 Z" />
<path fill="#000000" opacity="1.00" d=" M 62.00 84.00 C 63.33 84.00 64.67 84.00 66.00 84.00 C 66.00 88.00 66.00 92.00 66.00 96.00 C 64.67 96.00 63.33 96.00 62.00 96.00 C 62.00 92.00 62.00 88.00 62.00 84.00 Z" />
<path fill="#000000" opacity="1.00" d=" M 62.00 104.00 C 63.33 104.00 64.67 104.00 66.00 104.00 C 66.00 108.33 66.00 112.67 66.00 117.00 C 64.67 117.00 63.33 117.00 62.00 117.00 C 62.00 112.67 62.00 108.33 62.00 104.00 Z" />
<path fill="#ffffff" opacity="1.00" d=" M 17.39 2.09 C 49.62 1.87 81.86 2.06 114.10 2.00 C 115.86 1.59 117.42 3.26 117.00 4.99 C 117.00 45.98 117.00 86.97 117.00 127.96 C 117.44 129.72 115.85 131.43 114.06 131.00 C 82.35 131.00 50.65 131.00 18.94 131.00 C 17.14 131.42 15.57 129.73 16.00 127.96 C 16.00 86.98 16.00 46.00 16.00 5.02 C 15.80 3.73 16.26 2.75 17.39 2.09 M 19.39 4.08 C 18.25 4.73 17.79 5.70 17.99 7.00 C 18.03 46.98 17.96 86.96 18.02 126.94 C 17.93 128.46 19.66 129.27 20.97 129.01 C 51.65 128.97 82.32 129.04 113.00 128.97 C 114.52 129.03 115.26 127.28 115.01 125.99 C 114.97 86.00 115.04 46.01 114.97 6.03 C 115.05 4.48 113.27 3.73 111.95 3.99 C 81.10 4.07 50.23 3.88 19.39 4.08 Z" />
<path fill="#ffffff" opacity="1.00" d=" M 20.42 5.09 C 50.62 4.88 80.84 5.06 111.06 5.00 C 112.87 4.56 114.44 6.30 114.00 8.07 C 113.98 47.36 114.04 86.64 113.97 125.92 C 114.06 127.40 112.36 128.27 111.06 128.00 C 81.05 127.98 51.04 128.04 21.03 127.97 C 19.53 128.01 18.72 126.28 19.00 124.97 C 19.00 85.97 19.00 46.98 19.00 7.99 C 18.81 6.69 19.28 5.72 20.42 5.09 M 80.18 28.00 C 82.50 28.00 84.82 28.00 87.14 28.00 C 86.58 57.66 87.14 87.34 86.84 117.00 C 89.61 117.00 92.38 117.00 95.14 117.00 C 94.86 87.34 95.36 57.66 94.87 28.00 C 97.18 28.00 99.50 28.00 101.82 28.00 C 98.02 24.22 94.28 20.36 90.99 16.13 C 87.39 20.09 84.04 24.28 80.18 28.00 M 46.16 59.62 C 47.94 60.80 49.81 61.83 51.73 62.73 C 45.51 66.00 39.49 69.66 33.39 73.16 C 33.54 87.75 33.61 102.35 33.33 116.94 C 36.12 117.03 38.92 117.02 41.72 116.96 C 41.44 103.28 41.67 89.60 41.53 75.91 C 46.72 72.79 51.72 69.35 56.95 66.28 C 58.69 67.35 60.45 68.41 62.31 69.28 C 63.47 64.76 65.58 60.52 67.80 56.44 C 60.54 57.15 53.41 58.80 46.16 59.62 M 62.00 84.00 C 62.00 88.00 62.00 92.00 62.00 96.00 C 63.33 96.00 64.67 96.00 66.00 96.00 C 66.00 92.00 66.00 88.00 66.00 84.00 C 64.67 84.00 63.33 84.00 62.00 84.00 M 62.00 104.00 C 62.00 108.33 62.00 112.67 62.00 117.00 C 63.33 117.00 64.67 117.00 66.00 117.00 C 66.00 112.67 66.00 108.33 66.00 104.00 C 64.67 104.00 63.33 104.00 62.00 104.00 Z" />
</g>
</svg>
