<?xml version="1.0" encoding="utf-8"?>
<!-- Generator: Adobe Illustrator 16.0.0, SVG Export Plug-In . SVG Version: 6.00 Build 0)  -->
<!DOCTYPE svg PUBLIC "-//W3C//DTD SVG 1.1//EN" "http://www.w3.org/Graphics/SVG/1.1/DTD/svg11.dtd">
<svg version="1.1" id="Layer_1" xmlns="http://www.w3.org/2000/svg" xmlns:xlink="http://www.w3.org/1999/xlink" x="0px" y="0px"
	 width="132px" height="132px" viewBox="0 0 132 132" enable-background="new 0 0 132 132" xml:space="preserve">
<g id="disabled">
	<g>
		<g>
			
				<linearGradient id="SVGID_3_" gradientUnits="userSpaceOnUse" x1="249.3301" y1="727.1699" x2="376.3301" y2="727.1699" gradientTransform="matrix(1 0 0 1 -246.3301 -660.6699)">
				<stop  offset="0" style="stop-color:#000000;stop-opacity:0.6"/>
				<stop  offset="1" style="stop-color:#000000;stop-opacity:0.6"/>
			</linearGradient>
			<polygon id="SVGID_1_" fill="url(#SVGID_3_)" points="3,15.5 130,15.5 130,117.5 3,117.5 			"/>
		</g>
		<g>
			<polygon id="SVGID_2_" fill="#FFFFFF" points="2,14.5 129,14.5 129,116.5 2,116.5 			"/>
		</g>
	</g>
	<g>
		<g>
			<path id="SVGID_6_" fill="#4D4D4D" d="M2,116.5v-102h127v102H2L2,116.5z M126,17.501H5.001v96H126V17.501L126,17.501z
				 M122.001,109.5H9v-88h113.001V109.5L122.001,109.5z"/>
		</g>
	</g>
	<g>
		<g>
			<path id="SVGID_8_" fill="#FFFFFF" d="M53.025,64.025c-0.25,1.565-1.969,2.538-3.014,2.542c-1.444,0.007-7.278-1.842-7.278-1.842
				L43.4,70.77l0.126-0.008c0,0,1.63,6.125,2.329,11.277c0.756,5.564,3.046,11.564,3.046,11.564s2.647,3.555,2.334,5.271
				c-0.339,1.855-5.643,1.73-6.956,0.643c-1.153-0.959-1.814-3.972-2.145-5.996c-0.263-1.619-1.946-11.447-1.946-11.447
				s0.412-1.479-1.635-1.316c-0.992,0.079-1.864,1.024-2.132,1.817c-0.254,0.748-3.742,9.038-4.327,11.288
				c-0.874,3.354,0.832,5.982-0.118,8.199c-0.323,0.758-3.532,1.02-4.419,0.269c-0.885-0.751-2.237-1.575-2.389-2.813
				c-0.152-1.24-0.323-4.594,0.218-6.05c0.454-1.223,7.089-14.233,7.082-14.745c-0.04-2.619-0.15-6.227-0.178-7.113h-0.01
				c0,0-0.851-5.192-1.87-5.998c-1.171,0.242-2.098,2.269-2.098,2.269s-3.594,7.471-4.109,8.129
				c-0.515,0.659-2.998,0.743-3.403,0.133c-0.405-0.613-0.614-2.281-0.577-3.465c0.047-1.492,1.087-5.328,1.727-6.782
				c0.643-1.462,1.969-4.997,3.09-7.137c1.039-1.985,2.717-5.483,3.582-6.516c0.866-1.032,0.951-2.004,2.232-2.466
				c0.924-0.333,6.787-0.334,7.966-0.024c1.715,0.452,1.392,0.783,2.027,2.801c0.662,2.103,1.45,5.611,1.45,5.611
				s7.976,2.76,9.164,3.276C52.648,61.958,53.244,62.652,53.025,64.025L53.025,64.025z M34.943,47.543
				c-3.061,0.375-5.845-1.803-6.22-4.863c-0.375-3.059,1.803-5.842,4.863-6.217c3.061-0.375,5.844,1.802,6.218,4.862
				C40.179,44.385,38.002,47.17,34.943,47.543L34.943,47.543z"/>
		</g>
	</g>
	<g>
		<g>
			<path id="SVGID_10_" fill="#FFFFFF" d="M95.001,50.49v6.01c0,0,0.86,0.594-2.705,0.644C88.73,57.192,90,55.501,90,55.501v-5
				c-3.477,0-8.025,0-9.999,0c0,0-0.38,0-1,0c-1.827,0-5.823,0-9.001,0v5c0,0,0.109,2.867-3.24,1.644
				c-1.759-0.644-1.759-1.644-1.759-1.644v-5.009c-2.164-0.063-3.949-0.607-3.857-5.283c0.108-5.382-0.153-3.285,1.895-6.96
				c1.358-2.439,3.229-6.451,4.09-7.958c0.861-1.509-0.909-1.589,10.872-1.418c0.205,0.003,0.388,0.007,0.58,0.008
				c0.289-0.005,0.472-0.008,0.472-0.008v0.016c0.213,0.002,0.407,0.005,0.606,0.008c0.196-0.003,0.391-0.006,0.603-0.008
				l0.002-0.016c0,0,0.185,0.003,0.471,0.008c0.192-0.002,0.375-0.005,0.58-0.008c11.781-0.171,10.013-0.09,10.873,1.418
				c0.86,1.507,2.73,5.519,4.09,7.958c2.048,3.674,1.785,1.578,1.895,6.96C98.26,49.859,97.008,50.423,95.001,50.49L95.001,50.49z
				 M63.538,43.704c0,1.643,1.333,2.975,2.976,2.975c1.645,0,2.975-1.333,2.975-2.975c0-1.643-1.33-2.975-2.975-2.975
				C64.87,40.728,63.538,42.061,63.538,43.704L63.538,43.704z M93.066,37.621c-0.225-0.444-1.601-3.863-1.998-4.839
				C90.736,31.973,90.889,31.5,90,31.5c-0.707,0-6.617,0-9,0c-0.611,0-1,0-1,0c-2.747,0-10.275,0-11.001,0
				c-0.888,0-0.381,0.473-0.711,1.282c-0.399,0.976-1.776,4.395-1.998,4.839c-0.223,0.443-0.002,0.835,0.709,0.879
				c0.627,0.04,11.044,0.01,13.479,0.002C82.732,38.51,92.371,38.541,93,38.5C93.71,38.456,93.287,38.063,93.066,37.621
				L93.066,37.621z M92.889,40.728c-1.644,0-2.976,1.333-2.976,2.975c0,1.643,1.333,2.975,2.976,2.975
				c1.644,0,2.975-1.333,2.975-2.975C95.863,42.061,94.531,40.728,92.889,40.728L92.889,40.728z"/>
		</g>
	</g>
	<g>
		<g>
			<path id="SVGID_12_" fill="#FFFFFF" d="M104,90.499c-1.158,0.053-5.84,0.05-7,0c-1.273-0.054-2-0.483-2.807-1.752
				c-0.37-0.581-1.114-1.126-1.916-1.058C90.893,87.805,91.111,87.758,91,89.5c-0.132,2.087,0,6.475,0,8
				c0,1.154-0.527,2.695-1.912,2.695c-1.384,0-2.029-0.963-2.087-2.695c-0.062-1.84,0.115-16.961,0-17.999
				c-0.116-1.039-0.638-1.203-1.215-0.628c-0.577,0.577-2.681,2.613-3.603,3.307c-0.925,0.69-2.685,2.729-3.684,1.395
				c-0.893-1.194-0.473-1.395,0.451-2.316c0.924-0.924,5.916-6.355,7.254-7.136c1-0.583,5.794-0.62,5.794-0.62
				s5.442-0.124,6.392,0.754c1.389,1.284,3.299,4.189,3.795,4.999c0.422,0.688,0.646,1.94-0.271,2.563
				c-0.727,0.494-1.37,0.193-2.264-0.992c-0.438-0.583-2.422-4.006-3.344-4.006c-0.336,0-1.791,0.215-1.562,1.57
				c0.375,2.203,1.129,5.59,1.524,6.926c0.375,1.26-0.348,1.187,1.729,1.187s4.077,0,5.001,0c0.922,0,1.835,1.183,2,2
				C105.207,89.52,105.1,90.449,104,90.499L104,90.499z M89.107,72.143c-2.229,0-4.037-1.807-4.037-4.035
				c0-2.229,1.808-4.039,4.037-4.039c2.229,0,4.035,1.807,4.035,4.039C93.143,70.336,91.336,72.143,89.107,72.143L89.107,72.143z"/>
		</g>
	</g>
	<g>
		<g>
			<path id="SVGID_14_" fill="#FFFFFF" d="M70.924,90.134c2.637,0,4.771,2.136,4.771,4.771c0,2.636-2.135,4.771-4.771,4.771
				c-2.636,0-4.773-2.137-4.773-4.771C66.151,92.271,68.288,90.134,70.924,90.134L70.924,90.134z"/>
		</g>
	</g>
	
		<linearGradient id="SVGID_4_" gradientUnits="userSpaceOnUse" x1="356.6836" y1="790.2275" x2="266.9771" y2="662.1135" gradientTransform="matrix(1 0 0 1 -246.3301 -660.6699)">
		<stop  offset="0" style="stop-color:#000000;stop-opacity:0"/>
		<stop  offset="1" style="stop-color:#FFFFFF;stop-opacity:0.25"/>
	</linearGradient>
	<polygon fill="url(#SVGID_4_)" points="2,14.5 129,14.5 129,116.5 2,116.5 	"/>
</g>
<g id="normal">
	<g>
		<g>
			
				<linearGradient id="SVGID_5_" gradientUnits="userSpaceOnUse" x1="249.3301" y1="727.1699" x2="376.3301" y2="727.1699" gradientTransform="matrix(1 0 0 1 -246.3301 -660.6699)">
				<stop  offset="0" style="stop-color:#000000;stop-opacity:0.6"/>
				<stop  offset="1" style="stop-color:#000000;stop-opacity:0.6"/>
			</linearGradient>
			<polygon id="SVGID_17_" fill="url(#SVGID_5_)" points="3,15.5 130,15.5 130,117.5 3,117.5 			"/>
		</g>
		<g>
			<polygon id="SVGID_18_" fill="#FFFFFF" points="2,14.5 129,14.5 129,116.5 2,116.5 			"/>
		</g>
	</g>
	<g>
		<g>
			<path id="SVGID_22_" fill="#02649B" d="M2,116.5v-102h127v102H2L2,116.5z M126,17.501H5.001v96H126V17.501L126,17.501z
				 M122.001,109.5H9v-88h113.001V109.5L122.001,109.5z"/>
		</g>
	</g>
	<g>
		<g>
			<path id="SVGID_24_" fill="#FFFFFF" d="M53.025,64.025c-0.25,1.565-1.969,2.538-3.014,2.542
				c-1.444,0.007-7.278-1.842-7.278-1.842L43.4,70.77l0.126-0.008c0,0,1.63,6.125,2.329,11.277
				c0.756,5.564,3.046,11.564,3.046,11.564s2.647,3.555,2.334,5.271c-0.339,1.855-5.643,1.73-6.956,0.643
				c-1.153-0.959-1.814-3.972-2.145-5.996c-0.263-1.619-1.946-11.447-1.946-11.447s0.412-1.479-1.635-1.316
				c-0.992,0.079-1.864,1.024-2.132,1.817c-0.254,0.748-3.742,9.038-4.327,11.288c-0.874,3.354,0.832,5.982-0.118,8.199
				c-0.323,0.758-3.532,1.02-4.419,0.269c-0.885-0.751-2.237-1.575-2.389-2.813c-0.152-1.24-0.323-4.594,0.218-6.05
				c0.454-1.223,7.089-14.233,7.082-14.745c-0.04-2.619-0.15-6.227-0.178-7.113h-0.01c0,0-0.851-5.192-1.87-5.998
				c-1.171,0.242-2.098,2.269-2.098,2.269s-3.594,7.471-4.109,8.129c-0.515,0.659-2.998,0.743-3.403,0.133
				c-0.405-0.613-0.614-2.281-0.577-3.465c0.047-1.492,1.087-5.328,1.727-6.782c0.643-1.462,1.969-4.997,3.09-7.137
				c1.039-1.985,2.717-5.483,3.582-6.516c0.866-1.032,0.951-2.004,2.232-2.466c0.924-0.333,6.787-0.334,7.966-0.024
				c1.715,0.452,1.392,0.783,2.027,2.801c0.662,2.103,1.45,5.611,1.45,5.611s7.976,2.76,9.164,3.276
				C52.648,61.958,53.244,62.652,53.025,64.025L53.025,64.025z M34.943,47.543c-3.061,0.375-5.845-1.803-6.22-4.863
				c-0.375-3.059,1.803-5.842,4.863-6.217c3.061-0.375,5.844,1.802,6.218,4.862C40.179,44.385,38.002,47.17,34.943,47.543
				L34.943,47.543z"/>
		</g>
	</g>
	<g>
		<g>
			<path id="SVGID_26_" fill="#FFFFFF" d="M95.001,50.49v6.01c0,0,0.86,0.594-2.705,0.644C88.73,57.192,90,55.501,90,55.501v-5
				c-3.477,0-8.025,0-9.999,0c0,0-0.38,0-1,0c-1.827,0-5.823,0-9.001,0v5c0,0,0.109,2.867-3.24,1.644
				c-1.759-0.644-1.759-1.644-1.759-1.644v-5.009c-2.164-0.063-3.949-0.607-3.857-5.283c0.108-5.382-0.153-3.285,1.895-6.96
				c1.358-2.439,3.229-6.451,4.09-7.958c0.861-1.509-0.909-1.589,10.872-1.418c0.205,0.003,0.388,0.007,0.58,0.008
				c0.289-0.005,0.472-0.008,0.472-0.008v0.016c0.213,0.002,0.407,0.005,0.606,0.008c0.196-0.003,0.391-0.006,0.603-0.008
				l0.002-0.016c0,0,0.185,0.003,0.471,0.008c0.192-0.002,0.375-0.005,0.58-0.008c11.781-0.171,10.013-0.09,10.873,1.418
				c0.86,1.507,2.73,5.519,4.09,7.958c2.048,3.674,1.785,1.578,1.895,6.96C98.26,49.859,97.008,50.423,95.001,50.49L95.001,50.49z
				 M63.538,43.704c0,1.643,1.333,2.975,2.976,2.975c1.645,0,2.975-1.333,2.975-2.975c0-1.643-1.33-2.975-2.975-2.975
				C64.87,40.728,63.538,42.061,63.538,43.704L63.538,43.704z M93.066,37.621c-0.225-0.444-1.601-3.863-1.998-4.839
				C90.736,31.973,90.889,31.5,90,31.5c-0.707,0-6.617,0-9,0c-0.611,0-1,0-1,0c-2.747,0-10.275,0-11.001,0
				c-0.888,0-0.381,0.473-0.711,1.282c-0.399,0.976-1.776,4.395-1.998,4.839c-0.223,0.443-0.002,0.835,0.709,0.879
				c0.627,0.04,11.044,0.01,13.479,0.002C82.732,38.51,92.371,38.541,93,38.5C93.71,38.456,93.287,38.063,93.066,37.621
				L93.066,37.621z M92.889,40.728c-1.644,0-2.976,1.333-2.976,2.975c0,1.643,1.333,2.975,2.976,2.975
				c1.644,0,2.975-1.333,2.975-2.975C95.863,42.061,94.531,40.728,92.889,40.728L92.889,40.728z"/>
		</g>
	</g>
	<g>
		<g>
			<path id="SVGID_28_" fill="#FFFFFF" d="M104,90.499c-1.158,0.053-5.84,0.05-7,0c-1.273-0.054-2-0.483-2.807-1.752
				c-0.37-0.581-1.114-1.126-1.916-1.058C90.893,87.805,91.111,87.758,91,89.5c-0.132,2.087,0,6.475,0,8
				c0,1.154-0.527,2.695-1.912,2.695c-1.384,0-2.029-0.963-2.087-2.695c-0.062-1.84,0.115-16.961,0-17.999
				c-0.116-1.039-0.638-1.203-1.215-0.628c-0.577,0.577-2.681,2.613-3.603,3.307c-0.925,0.69-2.685,2.729-3.684,1.395
				c-0.893-1.194-0.473-1.395,0.451-2.316c0.924-0.924,5.916-6.355,7.254-7.136c1-0.583,5.794-0.62,5.794-0.62
				s5.442-0.124,6.392,0.754c1.389,1.284,3.299,4.189,3.795,4.999c0.422,0.688,0.646,1.94-0.271,2.563
				c-0.727,0.494-1.37,0.193-2.264-0.992c-0.438-0.583-2.422-4.006-3.344-4.006c-0.336,0-1.791,0.215-1.562,1.57
				c0.375,2.203,1.129,5.59,1.524,6.926c0.375,1.26-0.348,1.187,1.729,1.187s4.077,0,5.001,0c0.922,0,1.835,1.183,2,2
				C105.207,89.52,105.1,90.449,104,90.499L104,90.499z M89.107,72.143c-2.229,0-4.037-1.807-4.037-4.035
				c0-2.229,1.808-4.039,4.037-4.039c2.229,0,4.035,1.807,4.035,4.039C93.143,70.336,91.336,72.143,89.107,72.143L89.107,72.143z"/>
		</g>
	</g>
	<g>
		<g>
			<path id="SVGID_30_" fill="#FFFFFF" d="M70.924,90.134c2.637,0,4.771,2.136,4.771,4.771c0,2.636-2.135,4.771-4.771,4.771
				c-2.636,0-4.773-2.137-4.773-4.771C66.151,92.271,68.288,90.134,70.924,90.134L70.924,90.134z"/>
		</g>
	</g>
	
		<linearGradient id="SVGID_7_" gradientUnits="userSpaceOnUse" x1="356.6836" y1="790.2275" x2="266.9771" y2="662.1135" gradientTransform="matrix(1 0 0 1 -246.3301 -660.6699)">
		<stop  offset="0" style="stop-color:#000000;stop-opacity:0"/>
		<stop  offset="1" style="stop-color:#FFFFFF;stop-opacity:0.25"/>
	</linearGradient>
	<polygon fill="url(#SVGID_7_)" points="2,14.5 129,14.5 129,116.5 2,116.5 	"/>
</g>
</svg>
