<?xml version="1.0" encoding="UTF-8" ?>
<!DOCTYPE svg PUBLIC "-//W3C//DTD SVG 1.1//EN" "http://www.w3.org/Graphics/SVG/1.1/DTD/svg11.dtd">
<svg width="130pt" height="130pt" viewBox="0 0 130 130" version="1.1" xmlns="http://www.w3.org/2000/svg">
<g id="disabled">
<path fill="#606060" opacity="1.00" d=" M 57.93 2.97 C 61.28 -0.70 67.48 -0.45 70.69 3.28 C 88.37 20.93 106.01 38.63 123.71 56.26 C 124.97 57.55 126.21 58.89 127.20 60.41 C 128.04 64.00 127.32 67.93 124.48 70.45 C 106.64 88.30 88.81 106.19 70.90 123.99 C 67.89 127.50 62.58 128.09 58.85 125.37 C 40.56 107.27 22.43 88.99 4.18 70.84 C 0.05 67.65 -0.52 61.05 3.41 57.48 C 21.57 39.29 39.74 21.12 57.93 2.97 M 62.21 3.30 C 60.36 3.81 58.81 5.02 57.46 6.35 C 40.46 23.38 23.43 40.38 6.40 57.39 C 4.37 59.31 3.15 62.12 3.61 64.94 C 3.95 68.40 7.01 70.48 9.20 72.82 C 24.19 87.82 39.17 102.83 54.17 117.83 C 56.19 119.79 58.02 121.99 60.36 123.59 C 63.73 125.38 68.05 124.46 70.59 121.67 C 87.47 104.85 104.28 87.95 121.17 71.13 C 122.86 69.43 124.46 67.45 124.94 65.04 C 125.51 62.05 123.82 59.19 121.75 57.18 C 104.74 40.22 87.77 23.22 70.74 6.28 C 68.61 4.02 65.32 2.56 62.21 3.30 Z" />
<path fill="#606060" opacity="1.00" d=" M 59.86 8.88 C 61.08 7.75 62.32 6.42 64.03 6.12 C 65.61 6.00 66.73 7.34 67.82 8.25 C 84.92 25.46 102.06 42.63 119.25 59.76 C 120.38 60.96 121.76 62.18 121.92 63.94 C 121.19 66.29 119.22 67.89 117.57 69.59 C 100.85 86.22 84.24 102.96 67.51 119.57 C 66.31 121.12 64.34 121.08 62.57 121.14 C 44.39 102.76 25.93 84.64 7.72 66.29 C 5.86 64.63 6.75 61.88 8.37 60.43 C 25.51 43.22 42.74 26.11 59.86 8.88 M 13.86 64.03 C 23.97 74.42 34.20 84.69 44.39 95.00 C 54.92 94.99 65.44 95.05 75.97 94.96 C 69.68 86.73 61.43 79.74 57.44 69.95 C 58.21 64.36 58.11 58.72 57.83 53.10 C 58.70 47.09 57.93 41.07 58.04 35.03 C 58.13 30.97 55.94 27.34 53.84 24.02 C 39.89 36.71 27.03 50.55 13.86 64.03 M 59.92 52.18 C 60.34 54.30 60.57 56.51 61.48 58.50 C 63.58 59.97 66.34 60.18 68.80 59.83 C 70.75 58.64 72.48 56.38 71.95 53.98 C 70.66 51.20 68.61 48.67 66.02 47.02 C 62.38 45.68 61.53 49.95 59.92 52.18 M 72.86 62.19 C 72.42 65.65 75.07 70.29 79.09 68.89 C 81.57 68.88 81.41 65.77 82.02 64.03 C 83.13 61.39 82.03 57.43 79.11 56.67 C 76.50 57.83 74.80 60.21 72.86 62.19 M 63.96 63.86 C 63.72 64.84 63.48 65.82 63.24 66.80 C 63.64 67.92 64.01 69.04 64.37 70.17 C 65.55 70.33 66.72 70.34 67.90 70.20 C 68.47 68.21 70.20 65.51 68.01 63.89 C 67.03 62.24 65.33 63.58 63.96 63.86 M 86.75 71.21 C 86.81 74.50 88.05 77.63 89.46 80.56 C 90.59 81.74 92.32 82.06 93.76 82.75 C 96.48 80.11 100.16 79.17 103.24 77.13 C 103.08 72.70 101.74 67.62 97.07 66.03 C 93.32 67.06 89.63 68.52 86.75 71.21 M 70.38 73.84 C 69.59 74.72 68.77 75.58 67.94 76.42 C 68.01 77.43 68.08 78.43 68.13 79.44 C 70.07 79.96 71.60 81.19 72.46 83.01 C 75.09 83.39 78.99 84.31 79.71 80.73 C 81.68 77.21 77.69 75.66 75.50 73.90 C 73.80 73.72 72.08 73.71 70.38 73.84 M 77.57 90.03 C 79.66 91.29 82.58 94.17 84.96 92.08 C 86.49 88.42 82.93 86.11 79.82 85.54 C 79.06 87.03 78.20 88.48 77.57 90.03 Z" />
<path fill="#000000" opacity="1.00" d=" M 62.21 3.30 C 65.32 2.56 68.61 4.02 70.74 6.28 C 87.77 23.22 104.74 40.22 121.75 57.18 C 123.82 59.19 125.51 62.05 124.94 65.04 C 124.46 67.45 122.86 69.43 121.17 71.13 C 104.28 87.95 87.47 104.85 70.59 121.67 C 68.05 124.46 63.73 125.38 60.36 123.59 C 58.02 121.99 56.19 119.79 54.17 117.83 C 39.17 102.83 24.19 87.82 9.20 72.82 C 7.01 70.48 3.95 68.40 3.61 64.94 C 3.15 62.12 4.37 59.31 6.40 57.39 C 23.43 40.38 40.46 23.38 57.46 6.35 C 58.81 5.02 60.36 3.81 62.21 3.30 M 59.86 8.88 C 42.74 26.11 25.51 43.22 8.37 60.43 C 6.75 61.88 5.86 64.63 7.72 66.29 C 25.93 84.64 44.39 102.76 62.57 121.14 C 64.34 121.08 66.31 121.12 67.51 119.57 C 84.24 102.96 100.85 86.22 117.57 69.59 C 119.22 67.89 121.19 66.29 121.92 63.94 C 121.76 62.18 120.38 60.96 119.25 59.76 C 102.06 42.63 84.92 25.46 67.82 8.25 C 66.73 7.34 65.61 6.00 64.03 6.12 C 62.32 6.42 61.08 7.75 59.86 8.88 Z" />
<path fill="#000000" opacity="1.00" d=" M 13.86 64.03 C 27.03 50.55 39.89 36.71 53.84 24.02 C 55.94 27.34 58.13 30.97 58.04 35.03 C 57.93 41.07 58.70 47.09 57.83 53.10 C 58.11 58.72 58.21 64.36 57.44 69.95 C 61.43 79.74 69.68 86.73 75.97 94.96 C 65.44 95.05 54.92 94.99 44.39 95.00 C 34.20 84.69 23.97 74.42 13.86 64.03 Z" />
<path fill="#000000" opacity="1.00" d=" M 59.92 52.18 C 61.53 49.95 62.38 45.68 66.02 47.02 C 68.61 48.67 70.66 51.20 71.95 53.98 C 72.48 56.38 70.75 58.64 68.80 59.83 C 66.34 60.18 63.58 59.97 61.48 58.50 C 60.57 56.51 60.34 54.30 59.92 52.18 Z" />
<path fill="#000000" opacity="1.00" d=" M 72.86 62.19 C 74.80 60.21 76.50 57.83 79.11 56.67 C 82.03 57.43 83.13 61.39 82.02 64.03 C 81.41 65.77 81.57 68.88 79.09 68.89 C 75.07 70.29 72.42 65.65 72.86 62.19 Z" />
<path fill="#000000" opacity="1.00" d=" M 63.96 63.86 C 65.33 63.58 67.03 62.24 68.01 63.89 C 70.20 65.51 68.47 68.21 67.90 70.20 C 66.72 70.34 65.55 70.33 64.37 70.17 C 64.01 69.04 63.64 67.92 63.24 66.80 C 63.48 65.82 63.72 64.84 63.96 63.86 Z" />
<path fill="#000000" opacity="1.00" d=" M 86.75 71.21 C 89.63 68.52 93.32 67.06 97.07 66.03 C 101.74 67.62 103.08 72.70 103.24 77.13 C 100.16 79.17 96.48 80.11 93.76 82.75 C 92.32 82.06 90.59 81.74 89.46 80.56 C 88.05 77.63 86.81 74.50 86.75 71.21 Z" />
<path fill="#000000" opacity="1.00" d=" M 70.38 73.84 C 72.08 73.71 73.80 73.72 75.50 73.90 C 77.69 75.66 81.68 77.21 79.71 80.73 C 78.99 84.31 75.09 83.39 72.46 83.01 C 71.60 81.19 70.07 79.96 68.13 79.44 C 68.08 78.43 68.01 77.43 67.94 76.42 C 68.77 75.58 69.59 74.72 70.38 73.84 Z" />
<path fill="#000000" opacity="1.00" d=" M 77.57 90.03 C 78.20 88.48 79.06 87.03 79.82 85.54 C 82.93 86.11 86.49 88.42 84.96 92.08 C 82.58 94.17 79.66 91.29 77.57 90.03 Z" />
</g>
<g id="normal">
<path fill="#FBD200" opacity="1.00" d=" M 57.93 2.97 C 61.28 -0.70 67.48 -0.45 70.69 3.28 C 88.37 20.93 106.01 38.63 123.71 56.26 C 124.97 57.55 126.21 58.89 127.20 60.41 C 128.04 64.00 127.32 67.93 124.48 70.45 C 106.64 88.30 88.81 106.19 70.90 123.99 C 67.89 127.50 62.58 128.09 58.85 125.37 C 40.56 107.27 22.43 88.99 4.18 70.84 C 0.05 67.65 -0.52 61.05 3.41 57.48 C 21.57 39.29 39.74 21.12 57.93 2.97 M 62.21 3.30 C 60.36 3.81 58.81 5.02 57.46 6.35 C 40.46 23.38 23.43 40.38 6.40 57.39 C 4.37 59.31 3.15 62.12 3.61 64.94 C 3.95 68.40 7.01 70.48 9.20 72.82 C 24.19 87.82 39.17 102.83 54.17 117.83 C 56.19 119.79 58.02 121.99 60.36 123.59 C 63.73 125.38 68.05 124.46 70.59 121.67 C 87.47 104.85 104.28 87.95 121.17 71.13 C 122.86 69.43 124.46 67.45 124.94 65.04 C 125.51 62.05 123.82 59.19 121.75 57.18 C 104.74 40.22 87.77 23.22 70.74 6.28 C 68.61 4.02 65.32 2.56 62.21 3.30 Z" />
<path fill="#FBD200" opacity="1.00" d=" M 59.86 8.88 C 61.08 7.75 62.32 6.42 64.03 6.12 C 65.61 6.00 66.73 7.34 67.82 8.25 C 84.92 25.46 102.06 42.63 119.25 59.76 C 120.38 60.96 121.76 62.18 121.92 63.94 C 121.19 66.29 119.22 67.89 117.57 69.59 C 100.85 86.22 84.24 102.96 67.51 119.57 C 66.31 121.12 64.34 121.08 62.57 121.14 C 44.39 102.76 25.93 84.64 7.72 66.29 C 5.86 64.63 6.75 61.88 8.37 60.43 C 25.51 43.22 42.74 26.11 59.86 8.88 M 13.86 64.03 C 23.97 74.42 34.20 84.69 44.39 95.00 C 54.92 94.99 65.44 95.05 75.97 94.96 C 69.68 86.73 61.43 79.74 57.44 69.95 C 58.21 64.36 58.11 58.72 57.83 53.10 C 58.70 47.09 57.93 41.07 58.04 35.03 C 58.13 30.97 55.94 27.34 53.84 24.02 C 39.89 36.71 27.03 50.55 13.86 64.03 M 59.92 52.18 C 60.34 54.30 60.57 56.51 61.48 58.50 C 63.58 59.97 66.34 60.18 68.80 59.83 C 70.75 58.64 72.48 56.38 71.95 53.98 C 70.66 51.20 68.61 48.67 66.02 47.02 C 62.38 45.68 61.53 49.95 59.92 52.18 M 72.86 62.19 C 72.42 65.65 75.07 70.29 79.09 68.89 C 81.57 68.88 81.41 65.77 82.02 64.03 C 83.13 61.39 82.03 57.43 79.11 56.67 C 76.50 57.83 74.80 60.21 72.86 62.19 M 63.96 63.86 C 63.72 64.84 63.48 65.82 63.24 66.80 C 63.64 67.92 64.01 69.04 64.37 70.17 C 65.55 70.33 66.72 70.34 67.90 70.20 C 68.47 68.21 70.20 65.51 68.01 63.89 C 67.03 62.24 65.33 63.58 63.96 63.86 M 86.75 71.21 C 86.81 74.50 88.05 77.63 89.46 80.56 C 90.59 81.74 92.32 82.06 93.76 82.75 C 96.48 80.11 100.16 79.17 103.24 77.13 C 103.08 72.70 101.74 67.62 97.07 66.03 C 93.32 67.06 89.63 68.52 86.75 71.21 M 70.38 73.84 C 69.59 74.72 68.77 75.58 67.94 76.42 C 68.01 77.43 68.08 78.43 68.13 79.44 C 70.07 79.96 71.60 81.19 72.46 83.01 C 75.09 83.39 78.99 84.31 79.71 80.73 C 81.68 77.21 77.69 75.66 75.50 73.90 C 73.80 73.72 72.08 73.71 70.38 73.84 M 77.57 90.03 C 79.66 91.29 82.58 94.17 84.96 92.08 C 86.49 88.42 82.93 86.11 79.82 85.54 C 79.06 87.03 78.20 88.48 77.57 90.03 Z" />
<path fill="#000000" opacity="1.00" d=" M 62.21 3.30 C 65.32 2.56 68.61 4.02 70.74 6.28 C 87.77 23.22 104.74 40.22 121.75 57.18 C 123.82 59.19 125.51 62.05 124.94 65.04 C 124.46 67.45 122.86 69.43 121.17 71.13 C 104.28 87.95 87.47 104.85 70.59 121.67 C 68.05 124.46 63.73 125.38 60.36 123.59 C 58.02 121.99 56.19 119.79 54.17 117.83 C 39.17 102.83 24.19 87.82 9.20 72.82 C 7.01 70.48 3.95 68.40 3.61 64.94 C 3.15 62.12 4.37 59.31 6.40 57.39 C 23.43 40.38 40.46 23.38 57.46 6.35 C 58.81 5.02 60.36 3.81 62.21 3.30 M 59.86 8.88 C 42.74 26.11 25.51 43.22 8.37 60.43 C 6.75 61.88 5.86 64.63 7.72 66.29 C 25.93 84.64 44.39 102.76 62.57 121.14 C 64.34 121.08 66.31 121.12 67.51 119.57 C 84.24 102.96 100.85 86.22 117.57 69.59 C 119.22 67.89 121.19 66.29 121.92 63.94 C 121.76 62.18 120.38 60.96 119.25 59.76 C 102.06 42.63 84.92 25.46 67.82 8.25 C 66.73 7.34 65.61 6.00 64.03 6.12 C 62.32 6.42 61.08 7.75 59.86 8.88 Z" />
<path fill="#000000" opacity="1.00" d=" M 13.86 64.03 C 27.03 50.55 39.89 36.71 53.84 24.02 C 55.94 27.34 58.13 30.97 58.04 35.03 C 57.93 41.07 58.70 47.09 57.83 53.10 C 58.11 58.72 58.21 64.36 57.44 69.95 C 61.43 79.74 69.68 86.73 75.97 94.96 C 65.44 95.05 54.92 94.99 44.39 95.00 C 34.20 84.69 23.97 74.42 13.86 64.03 Z" />
<path fill="#000000" opacity="1.00" d=" M 59.92 52.18 C 61.53 49.95 62.38 45.68 66.02 47.02 C 68.61 48.67 70.66 51.20 71.95 53.98 C 72.48 56.38 70.75 58.64 68.80 59.83 C 66.34 60.18 63.58 59.97 61.48 58.50 C 60.57 56.51 60.34 54.30 59.92 52.18 Z" />
<path fill="#000000" opacity="1.00" d=" M 72.86 62.19 C 74.80 60.21 76.50 57.83 79.11 56.67 C 82.03 57.43 83.13 61.39 82.02 64.03 C 81.41 65.77 81.57 68.88 79.09 68.89 C 75.07 70.29 72.42 65.65 72.86 62.19 Z" />
<path fill="#000000" opacity="1.00" d=" M 63.96 63.86 C 65.33 63.58 67.03 62.24 68.01 63.89 C 70.20 65.51 68.47 68.21 67.90 70.20 C 66.72 70.34 65.55 70.33 64.37 70.17 C 64.01 69.04 63.64 67.92 63.24 66.80 C 63.48 65.82 63.72 64.84 63.96 63.86 Z" />
<path fill="#000000" opacity="1.00" d=" M 86.75 71.21 C 89.63 68.52 93.32 67.06 97.07 66.03 C 101.74 67.62 103.08 72.70 103.24 77.13 C 100.16 79.17 96.48 80.11 93.76 82.75 C 92.32 82.06 90.59 81.74 89.46 80.56 C 88.05 77.63 86.81 74.50 86.75 71.21 Z" />
<path fill="#000000" opacity="1.00" d=" M 70.38 73.84 C 72.08 73.71 73.80 73.72 75.50 73.90 C 77.69 75.66 81.68 77.21 79.71 80.73 C 78.99 84.31 75.09 83.39 72.46 83.01 C 71.60 81.19 70.07 79.96 68.13 79.44 C 68.08 78.43 68.01 77.43 67.94 76.42 C 68.77 75.58 69.59 74.72 70.38 73.84 Z" />
<path fill="#000000" opacity="1.00" d=" M 77.57 90.03 C 78.20 88.48 79.06 87.03 79.82 85.54 C 82.93 86.11 86.49 88.42 84.96 92.08 C 82.58 94.17 79.66 91.29 77.57 90.03 Z" />
</g>
</svg>
