<?xml version="1.0" encoding="utf-8"?>
<!-- Generator: Adobe Illustrator 17.0.1, SVG Export Plug-In . SVG Version: 6.00 Build 0)  -->
<!DOCTYPE svg PUBLIC "-//W3C//DTD SVG 1.1//EN" "http://www.w3.org/Graphics/SVG/1.1/DTD/svg11.dtd">
<svg version="1.1" xmlns="http://www.w3.org/2000/svg" xmlns:xlink="http://www.w3.org/1999/xlink" x="0px" y="0px" width="132px"
	 height="132px" viewBox="0 0 132 132" enable-background="new 0 0 132 132" xml:space="preserve">
<g id="disabled">
	<g>
		<defs>
			<path id="SVGID_1_" d="M69.079,11.929c8.814,15.269,50.344,86.96,60.048,103.767c1.33,2.302-0.734,6.699-3.317,6.699
				c-18.949,0-99.899,0-118.152,0c-4.317,0-5.267-2.882-3.036-6.749C14.33,98.833,55.426,27.688,64.51,11.954
				C65.49,10.257,68.001,10.065,69.079,11.929L69.079,11.929z"/>
		</defs>
		<defs>
			<path id="SVGID_2_" d="M68.079,10.929c8.814,15.269,50.344,86.96,60.048,103.767c1.33,2.302-0.734,6.699-3.317,6.699
				c-18.949,0-99.899,0-118.152,0c-4.317,0-5.267-2.882-3.036-6.749C13.33,97.833,54.426,26.688,63.51,10.954
				C64.49,9.257,67.001,9.065,68.079,10.929L68.079,10.929z"/>
		</defs>
		<linearGradient id="SVGID_3_" gradientUnits="userSpaceOnUse" x1="3.4569" y1="66.5" x2="129.5431" y2="66.5">
			<stop  offset="0" style="stop-color:#000000;stop-opacity:0.6"/>
			<stop  offset="1" style="stop-color:#000000;stop-opacity:0.6"/>
		</linearGradient>
		<use xlink:href="#SVGID_1_"  overflow="visible" fill-rule="evenodd" clip-rule="evenodd" fill="url(#SVGID_3_)"/>
		<use xlink:href="#SVGID_2_"  overflow="visible" fill="#AFAFAF"/>
		<clipPath id="SVGID_4_">
			<use xlink:href="#SVGID_1_"  overflow="visible"/>
		</clipPath>
		<clipPath id="SVGID_5_" clip-path="url(#SVGID_4_)">
			<use xlink:href="#SVGID_2_"  overflow="visible"/>
		</clipPath>
	</g>
	<g>
		<defs>
			<path id="SVGID_6_" d="M67.311,16.121c8.417,14.578,48.069,83.027,57.333,99.072c0.934,1.618-0.111,3.347-1.751,3.347
				c-18.091,0-97.413,0-114.842,0c-1.738,0-2.384-1.748-1.434-3.392c9.268-16.055,48.505-83.98,57.178-99.002
				C64.729,14.525,66.283,14.341,67.311,16.121L67.311,16.121z"/>
		</defs>
		<use xlink:href="#SVGID_6_"  overflow="visible" fill-rule="evenodd" clip-rule="evenodd"/>
		<clipPath id="SVGID_7_">
			<use xlink:href="#SVGID_6_"  overflow="visible"/>
		</clipPath>
	</g>
	<g>
		<defs>
			<path id="SVGID_8_" d="M66.807,37.074c5.941,10.289,33.928,57.947,40.466,69.272c0.659,1.14-0.079,2.36-1.236,2.36
				c-12.769,0-68.754,0-81.055,0c-1.228,0-1.683-1.232-1.013-2.394c6.541-11.33,34.235-58.62,40.356-69.222
				C64.986,35.945,66.081,35.816,66.807,37.074L66.807,37.074z"/>
		</defs>
		<use xlink:href="#SVGID_8_"  overflow="visible" fill="#AFAFAF"/>
		<clipPath id="SVGID_9_">
			<use xlink:href="#SVGID_8_"  overflow="visible"/>
		</clipPath>
	</g>
	<g>
		<defs>
			<polygon id="SVGID_10_" points="53.121,106.453 49.269,106.427 49.269,67.607 53.121,67.635 53.121,106.453 			"/>
		</defs>
		<use xlink:href="#SVGID_10_"  overflow="visible" fill-rule="evenodd" clip-rule="evenodd"/>
		<clipPath id="SVGID_11_">
			<use xlink:href="#SVGID_10_"  overflow="visible"/>
		</clipPath>
	</g>
	<g>
		<defs>
			<path id="SVGID_12_" d="M91.003,91.227c-0.41,1.026-1.261,1.61-2.306,1.896c-0.523,0.142-1.095,0.212-1.688,0.223
				c-0.593,0.013-1.205-0.029-1.811-0.105c-2.421-0.305-4.719-1.187-5.136-1.391c-8.909-3.634-17.705-7.84-26.571-12.049
				c-0.318-3.523-0.636-7.045-0.956-10.57c3.148-0.898,6.296-1.796,9.432-2.665l0,0c7.85,5.031,15.494,10.503,23.315,15.436
				c0.386,0.218,2.245,1.404,3.817,3.053c0.785,0.827,1.497,1.77,1.899,2.801c0.2,0.515,0.323,1.055,0.334,1.617
				C91.344,90.032,91.245,90.618,91.003,91.227L91.003,91.227z M61.758,67.866c-2.541,0.777-5.089,1.572-7.641,2.371
				c0.208,2.938,0.417,5.876,0.625,8.812c0.507,0.249,1.013,0.499,1.518,0.749c0,0-0.785-3.51,1.097-6.532
				c1.823-2.927,5.771-4.526,5.769-4.524C62.67,68.45,62.215,68.158,61.758,67.866L61.758,67.866z M69.748,72.947L69.748,72.947
				c0.002-0.006-3.393,1.904-4.87,4.489c-1.494,2.615-0.895,6.115-0.893,6.11c2.19,1.066,4.38,2.119,6.572,3.148
				c-0.002,0.003-0.63-3.172,0.754-5.781c1.349-2.539,4.298-4.038,4.296-4.031C73.655,75.575,71.704,74.257,69.748,72.947
				L69.748,72.947z M81.981,80.966L81.981,80.966c0.003-0.008-2.634,1.586-3.702,3.754c-1.072,2.182-0.42,5.034-0.42,5.028
				c1.833,0.811,3.673,1.599,5.516,2.382c0,0.003-0.654-2.571,0.336-4.705c0.971-2.092,3.287-3.345,3.285-3.339
				C85.311,83.075,83.641,82.032,81.981,80.966L81.981,80.966z M90.223,88.48c-0.392-0.199-1.102,0.491-1.609,1.578
				c-0.515,1.097-0.628,2.185-0.228,2.381c0.401,0.194,1.16-0.573,1.667-1.673C90.553,89.68,90.616,88.675,90.223,88.48
				L90.223,88.48z"/>
		</defs>
		<use xlink:href="#SVGID_12_"  overflow="visible" fill-rule="evenodd" clip-rule="evenodd"/>
		<clipPath id="SVGID_13_">
			<use xlink:href="#SVGID_12_"  overflow="visible"/>
		</clipPath>
	</g>
	<linearGradient id="SVGID_14_" gradientUnits="userSpaceOnUse" x1="91.444" y1="145.3097" x2="18.9818" y2="41.8229">
		<stop  offset="0" style="stop-color:#000000;stop-opacity:0"/>
		<stop  offset="1" style="stop-color:#FFFFFF;stop-opacity:0.25"/>
	</linearGradient>
	<path fill-rule="evenodd" clip-rule="evenodd" fill="url(#SVGID_14_)" d="M68.079,10.929c8.814,15.269,50.344,86.96,60.048,103.767
		c1.33,2.302-0.734,6.699-3.317,6.699c-18.949,0-99.899,0-118.152,0c-4.317,0-5.267-2.882-3.036-6.749
		C13.33,97.833,54.426,26.688,63.51,10.954C64.49,9.257,67.001,9.065,68.079,10.929L68.079,10.929z"/>
</g>
<g id="normal">
	<g>
		<defs>
			<path id="SVGID_15_" d="M69.079,11.929c8.814,15.269,50.344,86.96,60.048,103.767c1.33,2.302-0.734,6.699-3.317,6.699
				c-18.949,0-99.899,0-118.152,0c-4.317,0-5.267-2.882-3.036-6.749C14.33,98.833,55.426,27.688,64.51,11.954
				C65.49,10.257,68.001,10.065,69.079,11.929L69.079,11.929z"/>
		</defs>
		<defs>
			<path id="SVGID_16_" d="M68.079,10.929c8.814,15.269,50.344,86.96,60.048,103.767c1.33,2.302-0.734,6.699-3.317,6.699
				c-18.949,0-99.899,0-118.152,0c-4.317,0-5.267-2.882-3.036-6.749C13.33,97.833,54.426,26.688,63.51,10.954
				C64.49,9.257,67.001,9.065,68.079,10.929L68.079,10.929z"/>
		</defs>
		<linearGradient id="SVGID_17_" gradientUnits="userSpaceOnUse" x1="3.4569" y1="66.5" x2="129.5431" y2="66.5">
			<stop  offset="0" style="stop-color:#000000;stop-opacity:0.6"/>
			<stop  offset="1" style="stop-color:#000000;stop-opacity:0.6"/>
		</linearGradient>
		<use xlink:href="#SVGID_15_"  overflow="visible" fill-rule="evenodd" clip-rule="evenodd" fill="url(#SVGID_17_)"/>
		<use xlink:href="#SVGID_16_"  overflow="visible" fill="#FA9F37"/>
		<clipPath id="SVGID_18_">
			<use xlink:href="#SVGID_15_"  overflow="visible"/>
		</clipPath>
		<clipPath id="SVGID_19_" clip-path="url(#SVGID_18_)">
			<use xlink:href="#SVGID_16_"  overflow="visible"/>
		</clipPath>
	</g>
	<g>
		<defs>
			<path id="SVGID_20_" d="M67.311,16.121c8.417,14.578,48.069,83.027,57.333,99.072c0.934,1.618-0.111,3.347-1.751,3.347
				c-18.091,0-97.413,0-114.842,0c-1.738,0-2.384-1.748-1.434-3.392c9.268-16.055,48.505-83.98,57.178-99.002
				C64.729,14.525,66.283,14.341,67.311,16.121L67.311,16.121z"/>
		</defs>
		<use xlink:href="#SVGID_20_"  overflow="visible" fill-rule="evenodd" clip-rule="evenodd"/>
		<clipPath id="SVGID_21_">
			<use xlink:href="#SVGID_20_"  overflow="visible"/>
		</clipPath>
	</g>
	<g>
		<defs>
			<path id="SVGID_22_" d="M66.807,37.074c5.941,10.289,33.928,57.947,40.466,69.272c0.659,1.14-0.079,2.36-1.236,2.36
				c-12.769,0-68.754,0-81.055,0c-1.228,0-1.683-1.232-1.013-2.394c6.541-11.33,34.235-58.62,40.356-69.222
				C64.986,35.945,66.081,35.816,66.807,37.074L66.807,37.074z"/>
		</defs>
		<use xlink:href="#SVGID_22_"  overflow="visible" fill="#FA9F37"/>
		<clipPath id="SVGID_23_">
			<use xlink:href="#SVGID_22_"  overflow="visible"/>
		</clipPath>
	</g>
	<g>
		<defs>
			<polygon id="SVGID_24_" points="53.121,106.453 49.269,106.427 49.269,67.607 53.121,67.635 53.121,106.453 			"/>
		</defs>
		<use xlink:href="#SVGID_24_"  overflow="visible" fill-rule="evenodd" clip-rule="evenodd"/>
		<clipPath id="SVGID_25_">
			<use xlink:href="#SVGID_24_"  overflow="visible"/>
		</clipPath>
	</g>
	<g>
		<defs>
			<path id="SVGID_26_" d="M91.003,91.227c-0.41,1.026-1.261,1.61-2.306,1.896c-0.523,0.142-1.095,0.212-1.688,0.223
				c-0.593,0.013-1.205-0.029-1.811-0.105c-2.421-0.305-4.719-1.187-5.136-1.391c-8.909-3.634-17.705-7.84-26.571-12.049
				c-0.318-3.523-0.636-7.045-0.956-10.57c3.148-0.898,6.296-1.796,9.432-2.665l0,0c7.85,5.031,15.494,10.503,23.315,15.436
				c0.386,0.218,2.245,1.404,3.817,3.053c0.785,0.827,1.497,1.77,1.899,2.801c0.2,0.515,0.323,1.055,0.334,1.617
				C91.344,90.032,91.245,90.618,91.003,91.227L91.003,91.227z M61.758,67.866c-2.541,0.777-5.089,1.572-7.641,2.371
				c0.208,2.938,0.417,5.876,0.625,8.812c0.507,0.249,1.013,0.499,1.518,0.749c0,0-0.785-3.51,1.097-6.532
				c1.823-2.927,5.771-4.526,5.769-4.524C62.67,68.45,62.215,68.158,61.758,67.866L61.758,67.866z M69.748,72.947L69.748,72.947
				c0.002-0.006-3.393,1.904-4.87,4.489c-1.494,2.615-0.895,6.115-0.893,6.11c2.19,1.066,4.38,2.119,6.572,3.148
				c-0.002,0.003-0.63-3.172,0.754-5.781c1.349-2.539,4.298-4.038,4.296-4.031C73.655,75.575,71.704,74.257,69.748,72.947
				L69.748,72.947z M81.981,80.966L81.981,80.966c0.003-0.008-2.634,1.586-3.702,3.754c-1.072,2.182-0.42,5.034-0.42,5.028
				c1.833,0.811,3.673,1.599,5.516,2.382c0,0.003-0.654-2.571,0.336-4.705c0.971-2.092,3.287-3.345,3.285-3.339
				C85.311,83.075,83.641,82.032,81.981,80.966L81.981,80.966z M90.223,88.48c-0.392-0.199-1.102,0.491-1.609,1.578
				c-0.515,1.097-0.628,2.185-0.228,2.381c0.401,0.194,1.16-0.573,1.667-1.673C90.553,89.68,90.616,88.675,90.223,88.48
				L90.223,88.48z"/>
		</defs>
		<use xlink:href="#SVGID_26_"  overflow="visible" fill-rule="evenodd" clip-rule="evenodd"/>
		<clipPath id="SVGID_27_">
			<use xlink:href="#SVGID_26_"  overflow="visible"/>
		</clipPath>
	</g>
	<linearGradient id="SVGID_28_" gradientUnits="userSpaceOnUse" x1="91.444" y1="145.3097" x2="18.9818" y2="41.8229">
		<stop  offset="0" style="stop-color:#000000;stop-opacity:0"/>
		<stop  offset="1" style="stop-color:#FFFFFF;stop-opacity:0.25"/>
	</linearGradient>
	<path fill-rule="evenodd" clip-rule="evenodd" fill="url(#SVGID_28_)" d="M68.079,10.929c8.814,15.269,50.344,86.96,60.048,103.767
		c1.33,2.302-0.734,6.699-3.317,6.699c-18.949,0-99.899,0-118.152,0c-4.317,0-5.267-2.882-3.036-6.749
		C13.33,97.833,54.426,26.688,63.51,10.954C64.49,9.257,67.001,9.065,68.079,10.929L68.079,10.929z"/>
</g>
</svg>
