<?xml version="1.0" encoding="utf-8"?>
<!-- Generator: Adobe Illustrator 17.0.1, SVG Export Plug-In . SVG Version: 6.00 Build 0)  -->
<!DOCTYPE svg PUBLIC "-//W3C//DTD SVG 1.1//EN" "http://www.w3.org/Graphics/SVG/1.1/DTD/svg11.dtd">
<svg version="1.1" xmlns="http://www.w3.org/2000/svg" xmlns:xlink="http://www.w3.org/1999/xlink" x="0px" y="0px" width="132px"
	 height="132px" viewBox="0 0 132 132" enable-background="new 0 0 132 132" xml:space="preserve">
<g id="disabled">
	<g>
		<defs>
			<path id="SVGID_1_" d="M69.079,11.929c8.814,15.267,50.344,86.96,60.048,103.765c1.33,2.304-0.734,6.7-3.317,6.7
				c-18.949,0-99.899,0-118.152,0c-4.317,0-5.267-2.882-3.036-6.749C14.33,98.833,55.426,27.688,64.51,11.955
				C65.49,10.257,68.001,10.065,69.079,11.929L69.079,11.929z"/>
		</defs>
		<defs>
			<path id="SVGID_2_" d="M68.079,10.929c8.814,15.267,50.344,86.96,60.048,103.765c1.33,2.304-0.734,6.7-3.317,6.7
				c-18.949,0-99.899,0-118.152,0c-4.317,0-5.267-2.882-3.036-6.749C13.33,97.833,54.426,26.688,63.51,10.955
				C64.49,9.257,67.001,9.065,68.079,10.929L68.079,10.929z"/>
		</defs>
		<linearGradient id="SVGID_3_" gradientUnits="userSpaceOnUse" x1="3.4569" y1="66.5" x2="129.5431" y2="66.5">
			<stop  offset="0" style="stop-color:#000000;stop-opacity:0.6"/>
			<stop  offset="1" style="stop-color:#000000;stop-opacity:0.6"/>
		</linearGradient>
		<use xlink:href="#SVGID_1_"  overflow="visible" fill-rule="evenodd" clip-rule="evenodd" fill="url(#SVGID_3_)"/>
		<use xlink:href="#SVGID_2_"  overflow="visible" fill="#AFAFAF"/>
		<clipPath id="SVGID_4_">
			<use xlink:href="#SVGID_1_"  overflow="visible"/>
		</clipPath>
		<clipPath id="SVGID_5_" clip-path="url(#SVGID_4_)">
			<use xlink:href="#SVGID_2_"  overflow="visible"/>
		</clipPath>
	</g>
	<g>
		<defs>
			<path id="SVGID_6_" d="M67.311,16.121c8.417,14.578,48.069,83.027,57.333,99.073c0.934,1.617-0.111,3.343-1.751,3.343
				c-18.091,0-97.413,0-114.842,0c-1.738,0-2.384-1.746-1.434-3.392c9.268-16.053,48.505-83.978,57.178-99.001
				C64.729,14.524,66.283,14.341,67.311,16.121L67.311,16.121z"/>
		</defs>
		<use xlink:href="#SVGID_6_"  overflow="visible" fill-rule="evenodd" clip-rule="evenodd"/>
		<clipPath id="SVGID_7_">
			<use xlink:href="#SVGID_6_"  overflow="visible"/>
		</clipPath>
	</g>
	<g>
		<defs>
			<path id="SVGID_8_" d="M66.807,37.073c5.941,10.288,33.928,57.864,40.466,69.19c0.659,1.142-0.079,2.361-1.236,2.361
				c-12.769,0-68.754,0-81.055,0c-1.228,0-1.683-1.232-1.013-2.395c6.541-11.33,34.235-58.535,40.356-69.138
				C64.986,35.945,66.081,35.818,66.807,37.073L66.807,37.073z"/>
		</defs>
		<use xlink:href="#SVGID_8_"  overflow="visible" fill="#AFAFAF"/>
		<clipPath id="SVGID_9_">
			<use xlink:href="#SVGID_8_"  overflow="visible"/>
		</clipPath>
	</g>
	<g>
		<defs>
			<path id="SVGID_10_" d="M87.981,92.986c0.027,0,1.039,1.037,1.253,1.313c0.244,0.276,0.434,0.707,0.244,1.257
				c-0.183,0.581-0.551,3.524-0.551,4.228c0,0.701,0.063,2.849,0.063,3.057c0,0.186,0.12,0.339,0.094,0.496
				c-0.039,0.15-0.184,0.396-0.341,0.459c-0.153,0.086-0.52,0.276-0.52,0.276s0.459,1.037,0.52,1.284
				c-0.428,0.551-1.835,1.066-2.539,1.066c-0.674,0-1.069-0.212-1.069-0.672c0-0.459,0.672-1.194,0.919-1.53
				c0.276-0.371,0.607-2.084,0.578-3.494c0-1.436-0.459-3.456-1.497-4.802c-1.596,2.878-1.964,5.45-1.906,7.166
				c-0.606,0.118-0.946,0.522-1.248,1.1c-0.31,0.551-0.829,1.072-2.084,1.072c-0.67,0-0.919-0.155-0.946-0.246
				c-0.061-0.123,0.058-0.368,0.241-0.551c0.186-0.183,1.652-2.45,1.927-2.972c0.249-0.489,0.46-1.526,0.46-1.985
				c0-0.465,0-1.689-0.578-1.778c-0.578-0.126-0.736,0.825-1.013,0.795c-0.302-0.034-0.118-0.549-0.523-0.643
				c-0.363-0.063-0.942-0.244-1.127,0.147c-0.182,0.43-0.302,0.682-0.559,0.281c-0.207-0.37-0.207-0.646-0.207-0.829
				c-1.04-0.609-1.316-0.982-1.567-1.194c-0.21-0.246-0.887-0.98-0.887-0.98c-1.066,0.032-2.295,0.155-2.781,0.183
				c-0.459,0-1.623-0.089-2.176-0.089c-0.551,0-1.165,0.089-1.78,0.061c-0.609-0.061-1.497-0.155-1.769-0.212
				c-0.25-0.094-0.341-0.094-0.644,0c-0.307,0.057-0.486,0.239-0.551,0.488c-0.092,0.273-0.304,0.825-0.304,1.284
				s0,0.733,0.053,0.89c0.039,0.153,0.434,1.037,0.434,1.347c0,0.183-0.434,0.425-0.583,0.79c-0.16,0.404-0.583,1.139-0.583,1.991
				c0,0.829,0.153,1.137,0.218,1.654c0,0.249,0.186,0.464-0.183,0.523c-0.402,0.09-0.402,0.216-0.525,0.522
				c-0.095,0.304-0.189,0.522-0.488,0.737c-0.308,0.181-1.289,0.548-1.87,0.585c-0.581,0.053-0.732-0.037-0.796-0.25
				c-0.089-0.246,0.094-0.549,0.459-0.795c0.338-0.213,0.522-0.249,0.643-0.619c0.094-0.328,0.399-1.528,0.46-1.893
				c0.099-0.338,0.183-1.866,0.183-2.264c0-0.371-0.029-1.045-0.155-1.41c-0.12-0.396-0.27-1.313-0.304-1.313
				c-0.149,0.882-0.615,2.504-0.827,2.634c-0.182,0.118-0.394,0.275-0.488,0.488c-0.06,0.246-0.247,1.589-0.367,2.048
				c-0.092,0.465-0.157,1.99-0.276,2.116c-0.092,0.12-0.459,0.09-0.643,0.241c-0.218,0.157-0.494,0.704-0.796,0.917
				c-0.308,0.247-0.861,0.494-1.349,0.494c-0.486,0-0.888-0.036-0.945-0.218c-0.094-0.213-0.094-0.333,0.026-0.517
				c0.123-0.155,1.131-0.893,1.257-1.103c0.121-0.246,0.67-1.376,0.735-1.685c0.092-0.302,0.735-2.663,0.735-3.001
				c0-0.367-0.157-0.609-0.183-1.039c-0.061-0.434-0.157-1.778-0.157-2.203c0-0.402,0-0.556-0.338-0.556c-0.36,0-0.882,0-1.131-0.15
				c-0.21-0.157-0.643-0.494-0.854-0.827c-0.373-0.675-0.612-1.043-0.677-1.379c-0.092-0.305-0.606-1.958-0.919-2.539
				c-0.271-0.585-1.131-2.082-1.528-2.633c-0.425-0.522-1.16-1.32-1.562-1.715c-0.399-0.367-0.951-0.522-1.471-0.643
				c-0.488-0.12-1.195,0.065-1.869-0.061c-0.672-0.094-1.379-0.216-1.773-0.37c-0.396-0.147-1.347-0.58-1.743-0.641
				c-0.401-0.094-1.378,0.029-1.531-0.121c-0.158-0.155-0.249-0.368-0.402-0.64c-0.15-0.276-0.334-0.37-0.425-0.436
				c-0.131-0.09-0.341-0.09-0.341-0.363c0-0.275,0.123-0.339,0.367-0.644c0.368-0.491,1.195-1.1,1.41-1.376
				c0.213-0.309,0.399-0.551,0.646-0.798c0.239-0.276,0.916-0.578,1.195-0.921c0.276-0.302,1.651-1.743,1.925-1.988
				c0.273-0.246,1.228-0.917,1.228-0.917c-0.614,0.031-2.172,0.157-2.789-0.245c-0.578-0.396-0.799-0.67-0.948-1.192
				c0.861,0.183,1.408,0.244,1.803,0.244c0.402,0,1.717-0.183,2.332-0.434c0.575-0.27,0.851-0.27,1.006-0.27s0.37,0.027,0.737,0.21
				c0.394,0.186,0.706,0.276,0.674,0.462c-0.029,0.183-0.095,0.336-0.244,0.491c-0.153,0.157-0.247,0.578-0.061,0.643
				c0.21,0.063,0.338-0.027,0.52-0.184c0.187-0.155,0.984-0.614,1.471-0.614c0.455,0,0.704,0.339,0.796,0.494
				c0.092,0.15,0.242,0.552,0,0.793c-0.246,0.241-0.494,0.22-0.735,0.308c-0.215,0.057-0.43,0.149-0.43,0.368
				c0,0.213,0.089,0.271,0.488,0.302c0.367,0.031,2.201,0.182,3.033,0.213c2.085,0.094,6.582,0.373,8.113,0.522
				c1.499,0.157,3.463,0.341,5.022,0.522c1.559,0.157,2.386,0.184,3.799,0.157c1.433,0,4.929-0.186,6-0.371
				c1.494-0.15,3.485-0.216,4.372-0.336c0.925-0.12,2.365-0.12,3.062,0.275c0.707,0.396,1.654,1.074,2.082,1.866
				c0.397,0.798,0.468,0.735,0.559,1.565c0.113,0.795,0.426,2.234,0.572,2.877c0.16,0.678,0.16,1.313,0.186,2.053
				c0,0.766,0.124,2.205,0.124,3.003c0,0.302,0.058,0.699,0.402,0.791c0.367,0.094,0.517,0.245,0.67,0.493
				c0.157,0.276,0.459,0.305,0.489,0.796c0.061,0.52,0.126,0.854,0.036,1.25c-0.092,0.431-0.31,0.525-0.402,1.257
				c-0.092,0.551-0.242,1.562-0.333,2.022c-0.158-0.515-0.494-0.701-0.494-1.165c-0.036-0.425-0.218-1.526-0.368-2.021
				c-0.183-0.515-0.824-0.854-0.882-1.194c-0.037-0.365-0.068-0.704,0.058-0.984c0.092-0.236,0.179-0.329,0.118-0.698
				c-0.026-0.336-0.213-1.991-0.213-2.39c0-0.396-0.307-3.886-0.336-4.345c-0.061-0.459-0.578-2.3-0.578-2.3
				c0.057,1.502,0.118,3.49,0.149,4.109c0,0.607,0,2.386-0.031,2.935c-0.027,0.552,0.123,1.864-0.212,2.479
				c-0.367,0.578-0.494,0.892-0.494,0.892L87.981,92.986"/>
		</defs>
		<use xlink:href="#SVGID_10_"  overflow="visible" fill-rule="evenodd" clip-rule="evenodd"/>
		<clipPath id="SVGID_11_">
			<use xlink:href="#SVGID_10_"  overflow="visible"/>
		</clipPath>
	</g>
	<linearGradient id="SVGID_12_" gradientUnits="userSpaceOnUse" x1="91.444" y1="145.3096" x2="18.9822" y2="41.8234">
		<stop  offset="0" style="stop-color:#000000;stop-opacity:0"/>
		<stop  offset="1" style="stop-color:#FFFFFF;stop-opacity:0.25"/>
	</linearGradient>
	<path fill-rule="evenodd" clip-rule="evenodd" fill="url(#SVGID_12_)" d="M68.079,10.929c8.814,15.267,50.344,86.96,60.048,103.765
		c1.33,2.304-0.734,6.7-3.317,6.7c-18.949,0-99.899,0-118.152,0c-4.317,0-5.267-2.882-3.036-6.749
		C13.33,97.833,54.426,26.688,63.51,10.955C64.49,9.257,67.001,9.065,68.079,10.929L68.079,10.929z"/>
</g>
<g id="normal">
	<g>
		<defs>
			<path id="SVGID_13_" d="M69.079,11.929c8.814,15.267,50.344,86.96,60.048,103.765c1.33,2.304-0.734,6.7-3.317,6.7
				c-18.949,0-99.899,0-118.152,0c-4.317,0-5.267-2.882-3.036-6.749C14.33,98.833,55.426,27.688,64.51,11.955
				C65.49,10.257,68.001,10.065,69.079,11.929L69.079,11.929z"/>
		</defs>
		<defs>
			<path id="SVGID_14_" d="M68.079,10.929c8.814,15.267,50.344,86.96,60.048,103.765c1.33,2.304-0.734,6.7-3.317,6.7
				c-18.949,0-99.899,0-118.152,0c-4.317,0-5.267-2.882-3.036-6.749C13.33,97.833,54.426,26.688,63.51,10.955
				C64.49,9.257,67.001,9.065,68.079,10.929L68.079,10.929z"/>
		</defs>
		<linearGradient id="SVGID_15_" gradientUnits="userSpaceOnUse" x1="3.4569" y1="66.5" x2="129.5431" y2="66.5">
			<stop  offset="0" style="stop-color:#000000;stop-opacity:0.6"/>
			<stop  offset="1" style="stop-color:#000000;stop-opacity:0.6"/>
		</linearGradient>
		<use xlink:href="#SVGID_13_"  overflow="visible" fill-rule="evenodd" clip-rule="evenodd" fill="url(#SVGID_15_)"/>
		<use xlink:href="#SVGID_14_"  overflow="visible" fill="#FA9F37"/>
		<clipPath id="SVGID_16_">
			<use xlink:href="#SVGID_13_"  overflow="visible"/>
		</clipPath>
		<clipPath id="SVGID_17_" clip-path="url(#SVGID_16_)">
			<use xlink:href="#SVGID_14_"  overflow="visible"/>
		</clipPath>
	</g>
	<g>
		<defs>
			<path id="SVGID_18_" d="M67.311,16.121c8.417,14.578,48.069,83.027,57.333,99.073c0.934,1.617-0.111,3.343-1.751,3.343
				c-18.091,0-97.413,0-114.842,0c-1.738,0-2.384-1.746-1.434-3.392c9.268-16.053,48.505-83.978,57.178-99.001
				C64.729,14.524,66.283,14.341,67.311,16.121L67.311,16.121z"/>
		</defs>
		<use xlink:href="#SVGID_18_"  overflow="visible" fill-rule="evenodd" clip-rule="evenodd"/>
		<clipPath id="SVGID_19_">
			<use xlink:href="#SVGID_18_"  overflow="visible"/>
		</clipPath>
	</g>
	<g>
		<defs>
			<path id="SVGID_20_" d="M66.807,37.073c5.941,10.288,33.928,57.864,40.466,69.19c0.659,1.142-0.079,2.361-1.236,2.361
				c-12.769,0-68.754,0-81.055,0c-1.228,0-1.683-1.232-1.013-2.395c6.541-11.33,34.235-58.535,40.356-69.138
				C64.986,35.945,66.081,35.818,66.807,37.073L66.807,37.073z"/>
		</defs>
		<use xlink:href="#SVGID_20_"  overflow="visible" fill="#FA9F37"/>
		<clipPath id="SVGID_21_">
			<use xlink:href="#SVGID_20_"  overflow="visible"/>
		</clipPath>
	</g>
	<g>
		<defs>
			<path id="SVGID_22_" d="M87.981,92.986c0.027,0,1.039,1.037,1.253,1.313c0.244,0.276,0.434,0.707,0.244,1.257
				c-0.183,0.581-0.551,3.524-0.551,4.228c0,0.701,0.063,2.849,0.063,3.057c0,0.186,0.12,0.339,0.094,0.496
				c-0.039,0.15-0.184,0.396-0.341,0.459c-0.153,0.086-0.52,0.276-0.52,0.276s0.459,1.037,0.52,1.284
				c-0.428,0.551-1.835,1.066-2.539,1.066c-0.674,0-1.069-0.212-1.069-0.672c0-0.459,0.672-1.194,0.919-1.53
				c0.276-0.371,0.607-2.084,0.578-3.494c0-1.436-0.459-3.456-1.497-4.802c-1.596,2.878-1.964,5.45-1.906,7.166
				c-0.606,0.118-0.946,0.522-1.248,1.1c-0.31,0.551-0.829,1.072-2.084,1.072c-0.67,0-0.919-0.155-0.946-0.246
				c-0.061-0.123,0.058-0.368,0.241-0.551c0.186-0.183,1.652-2.45,1.927-2.972c0.249-0.489,0.46-1.526,0.46-1.985
				c0-0.465,0-1.689-0.578-1.778c-0.578-0.126-0.736,0.825-1.013,0.795c-0.302-0.034-0.118-0.549-0.523-0.643
				c-0.363-0.063-0.942-0.244-1.127,0.147c-0.182,0.43-0.302,0.682-0.559,0.281c-0.207-0.37-0.207-0.646-0.207-0.829
				c-1.04-0.609-1.316-0.982-1.567-1.194c-0.21-0.246-0.887-0.98-0.887-0.98c-1.066,0.032-2.295,0.155-2.781,0.183
				c-0.459,0-1.623-0.089-2.176-0.089c-0.551,0-1.165,0.089-1.78,0.061c-0.609-0.061-1.497-0.155-1.769-0.212
				c-0.25-0.094-0.341-0.094-0.644,0c-0.307,0.057-0.486,0.239-0.551,0.488c-0.092,0.273-0.304,0.825-0.304,1.284
				s0,0.733,0.053,0.89c0.039,0.153,0.434,1.037,0.434,1.347c0,0.183-0.434,0.425-0.583,0.79c-0.16,0.404-0.583,1.139-0.583,1.991
				c0,0.829,0.153,1.137,0.218,1.654c0,0.249,0.186,0.464-0.183,0.523c-0.402,0.09-0.402,0.216-0.525,0.522
				c-0.095,0.304-0.189,0.522-0.488,0.737c-0.308,0.181-1.289,0.548-1.87,0.585c-0.581,0.053-0.732-0.037-0.796-0.25
				c-0.089-0.246,0.094-0.549,0.459-0.795c0.338-0.213,0.522-0.249,0.643-0.619c0.094-0.328,0.399-1.528,0.46-1.893
				c0.099-0.338,0.183-1.866,0.183-2.264c0-0.371-0.029-1.045-0.155-1.41c-0.12-0.396-0.27-1.313-0.304-1.313
				c-0.149,0.882-0.615,2.504-0.827,2.634c-0.182,0.118-0.394,0.275-0.488,0.488c-0.06,0.246-0.247,1.589-0.367,2.048
				c-0.092,0.465-0.157,1.99-0.276,2.116c-0.092,0.12-0.459,0.09-0.643,0.241c-0.218,0.157-0.494,0.704-0.796,0.917
				c-0.308,0.247-0.861,0.494-1.349,0.494c-0.486,0-0.888-0.036-0.945-0.218c-0.094-0.213-0.094-0.333,0.026-0.517
				c0.123-0.155,1.131-0.893,1.257-1.103c0.121-0.246,0.67-1.376,0.735-1.685c0.092-0.302,0.735-2.663,0.735-3.001
				c0-0.367-0.157-0.609-0.183-1.039c-0.061-0.434-0.157-1.778-0.157-2.203c0-0.402,0-0.556-0.338-0.556c-0.36,0-0.882,0-1.131-0.15
				c-0.21-0.157-0.643-0.494-0.854-0.827c-0.373-0.675-0.612-1.043-0.677-1.379c-0.092-0.305-0.606-1.958-0.919-2.539
				c-0.271-0.585-1.131-2.082-1.528-2.633c-0.425-0.522-1.16-1.32-1.562-1.715c-0.399-0.367-0.951-0.522-1.471-0.643
				c-0.488-0.12-1.195,0.065-1.869-0.061c-0.672-0.094-1.379-0.216-1.773-0.37c-0.396-0.147-1.347-0.58-1.743-0.641
				c-0.401-0.094-1.378,0.029-1.531-0.121c-0.158-0.155-0.249-0.368-0.402-0.64c-0.15-0.276-0.334-0.37-0.425-0.436
				c-0.131-0.09-0.341-0.09-0.341-0.363c0-0.275,0.123-0.339,0.367-0.644c0.368-0.491,1.195-1.1,1.41-1.376
				c0.213-0.309,0.399-0.551,0.646-0.798c0.239-0.276,0.916-0.578,1.195-0.921c0.276-0.302,1.651-1.743,1.925-1.988
				c0.273-0.246,1.228-0.917,1.228-0.917c-0.614,0.031-2.172,0.157-2.789-0.245c-0.578-0.396-0.799-0.67-0.948-1.192
				c0.861,0.183,1.408,0.244,1.803,0.244c0.402,0,1.717-0.183,2.332-0.434c0.575-0.27,0.851-0.27,1.006-0.27s0.37,0.027,0.737,0.21
				c0.394,0.186,0.706,0.276,0.674,0.462c-0.029,0.183-0.095,0.336-0.244,0.491c-0.153,0.157-0.247,0.578-0.061,0.643
				c0.21,0.063,0.338-0.027,0.52-0.184c0.187-0.155,0.984-0.614,1.471-0.614c0.455,0,0.704,0.339,0.796,0.494
				c0.092,0.15,0.242,0.552,0,0.793c-0.246,0.241-0.494,0.22-0.735,0.308c-0.215,0.057-0.43,0.149-0.43,0.368
				c0,0.213,0.089,0.271,0.488,0.302c0.367,0.031,2.201,0.182,3.033,0.213c2.085,0.094,6.582,0.373,8.113,0.522
				c1.499,0.157,3.463,0.341,5.022,0.522c1.559,0.157,2.386,0.184,3.799,0.157c1.433,0,4.929-0.186,6-0.371
				c1.494-0.15,3.485-0.216,4.372-0.336c0.925-0.12,2.365-0.12,3.062,0.275c0.707,0.396,1.654,1.074,2.082,1.866
				c0.397,0.798,0.468,0.735,0.559,1.565c0.113,0.795,0.426,2.234,0.572,2.877c0.16,0.678,0.16,1.313,0.186,2.053
				c0,0.766,0.124,2.205,0.124,3.003c0,0.302,0.058,0.699,0.402,0.791c0.367,0.094,0.517,0.245,0.67,0.493
				c0.157,0.276,0.459,0.305,0.489,0.796c0.061,0.52,0.126,0.854,0.036,1.25c-0.092,0.431-0.31,0.525-0.402,1.257
				c-0.092,0.551-0.242,1.562-0.333,2.022c-0.158-0.515-0.494-0.701-0.494-1.165c-0.036-0.425-0.218-1.526-0.368-2.021
				c-0.183-0.515-0.824-0.854-0.882-1.194c-0.037-0.365-0.068-0.704,0.058-0.984c0.092-0.236,0.179-0.329,0.118-0.698
				c-0.026-0.336-0.213-1.991-0.213-2.39c0-0.396-0.307-3.886-0.336-4.345c-0.061-0.459-0.578-2.3-0.578-2.3
				c0.057,1.502,0.118,3.49,0.149,4.109c0,0.607,0,2.386-0.031,2.935c-0.027,0.552,0.123,1.864-0.212,2.479
				c-0.367,0.578-0.494,0.892-0.494,0.892L87.981,92.986"/>
		</defs>
		<use xlink:href="#SVGID_22_"  overflow="visible" fill-rule="evenodd" clip-rule="evenodd"/>
		<clipPath id="SVGID_23_">
			<use xlink:href="#SVGID_22_"  overflow="visible"/>
		</clipPath>
	</g>
	<linearGradient id="SVGID_24_" gradientUnits="userSpaceOnUse" x1="91.444" y1="145.3096" x2="18.9822" y2="41.8234">
		<stop  offset="0" style="stop-color:#000000;stop-opacity:0"/>
		<stop  offset="1" style="stop-color:#FFFFFF;stop-opacity:0.25"/>
	</linearGradient>
	<path fill-rule="evenodd" clip-rule="evenodd" fill="url(#SVGID_24_)" d="M68.079,10.929c8.814,15.267,50.344,86.96,60.048,103.765
		c1.33,2.304-0.734,6.7-3.317,6.7c-18.949,0-99.899,0-118.152,0c-4.317,0-5.267-2.882-3.036-6.749
		C13.33,97.833,54.426,26.688,63.51,10.955C64.49,9.257,67.001,9.065,68.079,10.929L68.079,10.929z"/>
</g>
</svg>
