<?xml version="1.0" encoding="utf-8"?>
<!-- Generator: Adobe Illustrator 17.0.1, SVG Export Plug-In . SVG Version: 6.00 Build 0)  -->
<!DOCTYPE svg PUBLIC "-//W3C//DTD SVG 1.1//EN" "http://www.w3.org/Graphics/SVG/1.1/DTD/svg11.dtd">
<svg version="1.1" xmlns="http://www.w3.org/2000/svg" xmlns:xlink="http://www.w3.org/1999/xlink" x="0px" y="0px" width="132px"
	 height="132px" viewBox="0 0 132 132" enable-background="new 0 0 132 132" xml:space="preserve">
<g id="disabled">
	<g>
		<defs>
			<path id="SVGID_1_" d="M69.079,11.93c8.814,15.267,50.344,86.96,60.048,103.765c1.33,2.304-0.734,6.699-3.317,6.699
				c-18.949,0-99.899,0-118.152,0c-4.317,0-5.267-2.881-3.036-6.747C14.33,98.834,55.426,27.688,64.51,11.955
				C65.49,10.258,68.001,10.066,69.079,11.93L69.079,11.93z"/>
		</defs>
		<defs>
			<path id="SVGID_2_" d="M68.079,10.93c8.814,15.267,50.344,86.96,60.048,103.765c1.33,2.304-0.734,6.699-3.317,6.699
				c-18.949,0-99.899,0-118.152,0c-4.317,0-5.267-2.881-3.036-6.747C13.33,97.834,54.426,26.688,63.51,10.955
				C64.49,9.258,67.001,9.066,68.079,10.93L68.079,10.93z"/>
		</defs>
		<linearGradient id="SVGID_3_" gradientUnits="userSpaceOnUse" x1="3.4569" y1="66.5" x2="129.5431" y2="66.5">
			<stop  offset="0" style="stop-color:#000000;stop-opacity:0.6"/>
			<stop  offset="1" style="stop-color:#000000;stop-opacity:0.6"/>
		</linearGradient>
		<use xlink:href="#SVGID_1_"  overflow="visible" fill-rule="evenodd" clip-rule="evenodd" fill="url(#SVGID_3_)"/>
		<use xlink:href="#SVGID_2_"  overflow="visible" fill="#B9B9B9"/>
		<clipPath id="SVGID_4_">
			<use xlink:href="#SVGID_1_"  overflow="visible"/>
		</clipPath>
		<clipPath id="SVGID_5_" clip-path="url(#SVGID_4_)">
			<use xlink:href="#SVGID_2_"  overflow="visible"/>
		</clipPath>
	</g>
	<g>
		<defs>
			<path id="SVGID_6_" d="M67.311,16.122c8.417,14.578,48.069,83.027,57.333,99.072c0.934,1.618-0.111,3.345-1.751,3.345
				c-18.091,0-97.413,0-114.842,0c-1.738,0-2.384-1.746-1.434-3.392c9.268-16.053,48.505-83.978,57.178-99.001
				C64.729,14.526,66.283,14.342,67.311,16.122L67.311,16.122z"/>
		</defs>
		<use xlink:href="#SVGID_6_"  overflow="visible" fill-rule="evenodd" clip-rule="evenodd"/>
		<clipPath id="SVGID_7_">
			<use xlink:href="#SVGID_6_"  overflow="visible"/>
		</clipPath>
	</g>
	<g>
		<defs>
			<path id="SVGID_8_" d="M66.807,37.074c5.941,10.288,33.928,57.858,40.466,69.183c0.659,1.142-0.079,2.361-1.236,2.361
				c-12.769,0-68.754,0-81.055,0c-1.228,0-1.683-1.232-1.013-2.394c6.541-11.332,34.235-58.531,40.356-69.133
				C64.986,35.946,66.081,35.819,66.807,37.074L66.807,37.074z"/>
		</defs>
		<use xlink:href="#SVGID_8_"  overflow="visible" fill="#B9B9B9"/>
		<clipPath id="SVGID_9_">
			<use xlink:href="#SVGID_8_"  overflow="visible"/>
		</clipPath>
	</g>
	<g>
		<defs>
			<path id="SVGID_10_" d="M88.878,90.524l-3.088-4.451l-0.029-0.002l-0.598-0.044c-0.719,8.836-7.525,15.938-16.221,17.127
				l-0.036-4.093c6.566-1.135,11.65-6.583,12.217-13.327l-0.811-0.058l0.002-0.002H80.3l0.013,0.002l-3.708,3.957l0.405-5.59
				l6.669-6.554l5.605,7.444L88.878,90.524L88.878,90.524z M66.367,69.671c-2.461,0-4.774,0.612-6.813,1.678l0.354,0.682
				l-0.006-0.013l5.315,1.089l-4.975,2.583l-9.077-2.252l3.411-8.672l4.975-2.581l-2.177,4.96l0.015,0.027l0.299,0.577
				c2.602-1.354,5.548-2.132,8.681-2.132c5.84,0,11.059,2.655,14.52,6.822l-3.263,2.432C74.91,71.691,70.877,69.671,66.367,69.671
				L66.367,69.671z M51.556,84.483c0,5.275,2.781,9.877,6.935,12.5l0.216-0.315L58.7,96.679l-1.533-5.206l4.613,3.183l2.273,9.071
				l-9.258,1.058l-4.614-3.182l5.403-0.404l0.018-0.026l0.581-0.843c-5.214-3.355-8.68-9.185-8.68-15.848
				c0-2.109,0.362-4.13,1-6.023l3.805,1.383C51.826,81.303,51.556,82.861,51.556,84.483L51.556,84.483z"/>
		</defs>
		<use xlink:href="#SVGID_10_"  overflow="visible" fill-rule="evenodd" clip-rule="evenodd"/>
		<clipPath id="SVGID_11_">
			<use xlink:href="#SVGID_10_"  overflow="visible"/>
		</clipPath>
	</g>
	<linearGradient id="SVGID_12_" gradientUnits="userSpaceOnUse" x1="91.4436" y1="145.3093" x2="18.9821" y2="41.8236">
		<stop  offset="0" style="stop-color:#000000;stop-opacity:0"/>
		<stop  offset="1" style="stop-color:#FFFFFF;stop-opacity:0.25"/>
	</linearGradient>
	<path fill-rule="evenodd" clip-rule="evenodd" fill="url(#SVGID_12_)" d="M68.079,10.93c8.814,15.267,50.344,86.96,60.048,103.765
		c1.33,2.304-0.734,6.699-3.317,6.699c-18.949,0-99.899,0-118.152,0c-4.317,0-5.267-2.881-3.036-6.747
		C13.33,97.834,54.426,26.688,63.51,10.955C64.49,9.258,67.001,9.066,68.079,10.93L68.079,10.93z"/>
</g>
<g id="normal">
	<g>
		<defs>
			<path id="SVGID_13_" d="M69.079,11.93c8.814,15.267,50.344,86.96,60.048,103.765c1.33,2.304-0.734,6.699-3.317,6.699
				c-18.949,0-99.899,0-118.152,0c-4.317,0-5.267-2.881-3.036-6.747C14.33,98.834,55.426,27.688,64.51,11.955
				C65.49,10.258,68.001,10.066,69.079,11.93L69.079,11.93z"/>
		</defs>
		<defs>
			<path id="SVGID_14_" d="M68.079,10.93c8.814,15.267,50.344,86.96,60.048,103.765c1.33,2.304-0.734,6.699-3.317,6.699
				c-18.949,0-99.899,0-118.152,0c-4.317,0-5.267-2.881-3.036-6.747C13.33,97.834,54.426,26.688,63.51,10.955
				C64.49,9.258,67.001,9.066,68.079,10.93L68.079,10.93z"/>
		</defs>
		<linearGradient id="SVGID_15_" gradientUnits="userSpaceOnUse" x1="3.4569" y1="66.5" x2="129.5431" y2="66.5">
			<stop  offset="0" style="stop-color:#000000;stop-opacity:0.6"/>
			<stop  offset="1" style="stop-color:#000000;stop-opacity:0.6"/>
		</linearGradient>
		<use xlink:href="#SVGID_13_"  overflow="visible" fill-rule="evenodd" clip-rule="evenodd" fill="url(#SVGID_15_)"/>
		<use xlink:href="#SVGID_14_"  overflow="visible" fill="#EBBA2C"/>
		<clipPath id="SVGID_16_">
			<use xlink:href="#SVGID_13_"  overflow="visible"/>
		</clipPath>
		<clipPath id="SVGID_17_" clip-path="url(#SVGID_16_)">
			<use xlink:href="#SVGID_14_"  overflow="visible"/>
		</clipPath>
	</g>
	<g>
		<defs>
			<path id="SVGID_18_" d="M67.311,16.122c8.417,14.578,48.069,83.027,57.333,99.072c0.934,1.618-0.111,3.345-1.751,3.345
				c-18.091,0-97.413,0-114.842,0c-1.738,0-2.384-1.746-1.434-3.392c9.268-16.053,48.505-83.978,57.178-99.001
				C64.729,14.526,66.283,14.342,67.311,16.122L67.311,16.122z"/>
		</defs>
		<use xlink:href="#SVGID_18_"  overflow="visible" fill-rule="evenodd" clip-rule="evenodd"/>
		<clipPath id="SVGID_19_">
			<use xlink:href="#SVGID_18_"  overflow="visible"/>
		</clipPath>
	</g>
	<g>
		<defs>
			<path id="SVGID_20_" d="M66.807,37.074c5.941,10.288,33.928,57.858,40.466,69.183c0.659,1.142-0.079,2.361-1.236,2.361
				c-12.769,0-68.754,0-81.055,0c-1.228,0-1.683-1.232-1.013-2.394c6.541-11.332,34.235-58.531,40.356-69.133
				C64.986,35.946,66.081,35.819,66.807,37.074L66.807,37.074z"/>
		</defs>
		<use xlink:href="#SVGID_20_"  overflow="visible" fill="#EBBA2C"/>
		<clipPath id="SVGID_21_">
			<use xlink:href="#SVGID_20_"  overflow="visible"/>
		</clipPath>
	</g>
	<g>
		<defs>
			<path id="SVGID_22_" d="M88.878,90.524l-3.088-4.451l-0.029-0.002l-0.598-0.044c-0.719,8.836-7.525,15.938-16.221,17.127
				l-0.036-4.093c6.566-1.135,11.65-6.583,12.217-13.327l-0.811-0.058l0.002-0.002H80.3l0.013,0.002l-3.708,3.957l0.405-5.59
				l6.669-6.554l5.605,7.444L88.878,90.524L88.878,90.524z M66.367,69.671c-2.461,0-4.774,0.612-6.813,1.678l0.354,0.682
				l-0.006-0.013l5.315,1.089l-4.975,2.583l-9.077-2.252l3.411-8.672l4.975-2.581l-2.177,4.96l0.015,0.027l0.299,0.577
				c2.602-1.354,5.548-2.132,8.681-2.132c5.84,0,11.059,2.655,14.52,6.822l-3.263,2.432C74.91,71.691,70.877,69.671,66.367,69.671
				L66.367,69.671z M51.556,84.483c0,5.275,2.781,9.877,6.935,12.5l0.216-0.315L58.7,96.679l-1.533-5.206l4.613,3.183l2.273,9.071
				l-9.258,1.058l-4.614-3.182l5.403-0.404l0.018-0.026l0.581-0.843c-5.214-3.355-8.68-9.185-8.68-15.848
				c0-2.109,0.362-4.13,1-6.023l3.805,1.383C51.826,81.303,51.556,82.861,51.556,84.483L51.556,84.483z"/>
		</defs>
		<use xlink:href="#SVGID_22_"  overflow="visible" fill-rule="evenodd" clip-rule="evenodd"/>
		<clipPath id="SVGID_23_">
			<use xlink:href="#SVGID_22_"  overflow="visible"/>
		</clipPath>
	</g>
	<linearGradient id="SVGID_24_" gradientUnits="userSpaceOnUse" x1="91.4436" y1="145.3093" x2="18.9821" y2="41.8236">
		<stop  offset="0" style="stop-color:#000000;stop-opacity:0"/>
		<stop  offset="1" style="stop-color:#FFFFFF;stop-opacity:0.25"/>
	</linearGradient>
	<path fill-rule="evenodd" clip-rule="evenodd" fill="url(#SVGID_24_)" d="M68.079,10.93c8.814,15.267,50.344,86.96,60.048,103.765
		c1.33,2.304-0.734,6.699-3.317,6.699c-18.949,0-99.899,0-118.152,0c-4.317,0-5.267-2.881-3.036-6.747
		C13.33,97.834,54.426,26.688,63.51,10.955C64.49,9.258,67.001,9.066,68.079,10.93L68.079,10.93z"/>
</g>
</svg>
