<?xml version="1.0" encoding="utf-8"?>
<!-- Generator: Adobe Illustrator 17.0.1, SVG Export Plug-In . SVG Version: 6.00 Build 0)  -->
<!DOCTYPE svg PUBLIC "-//W3C//DTD SVG 1.1//EN" "http://www.w3.org/Graphics/SVG/1.1/DTD/svg11.dtd">
<svg version="1.1" xmlns="http://www.w3.org/2000/svg" xmlns:xlink="http://www.w3.org/1999/xlink" x="0px" y="0px" width="132px"
	 height="132px" viewBox="0 0 132 132" enable-background="new 0 0 132 132" xml:space="preserve">
<g id="disabled">
	<g>
		<defs>
			<path id="SVGID_1_" d="M69.079,11.929c8.814,15.269,50.344,86.962,60.048,103.765c1.33,2.304-0.734,6.7-3.317,6.7
				c-18.949,0-99.899,0-118.152,0c-4.317,0-5.267-2.882-3.036-6.749C14.33,98.833,55.426,27.689,64.51,11.955
				C65.49,10.257,68.001,10.065,69.079,11.929L69.079,11.929z"/>
		</defs>
		<defs>
			<path id="SVGID_2_" d="M68.079,10.929c8.814,15.269,50.344,86.962,60.048,103.765c1.33,2.304-0.734,6.7-3.317,6.7
				c-18.949,0-99.899,0-118.152,0c-4.317,0-5.267-2.882-3.036-6.749C13.33,97.833,54.426,26.689,63.51,10.955
				C64.49,9.257,67.001,9.065,68.079,10.929L68.079,10.929z"/>
		</defs>
		<linearGradient id="SVGID_3_" gradientUnits="userSpaceOnUse" x1="3.4569" y1="66.5" x2="129.5431" y2="66.5">
			<stop  offset="0" style="stop-color:#000000;stop-opacity:0.6"/>
			<stop  offset="1" style="stop-color:#000000;stop-opacity:0.6"/>
		</linearGradient>
		<use xlink:href="#SVGID_1_"  overflow="visible" fill-rule="evenodd" clip-rule="evenodd" fill="url(#SVGID_3_)"/>
		<use xlink:href="#SVGID_2_"  overflow="visible" fill="#AFAFAF"/>
		<clipPath id="SVGID_4_">
			<use xlink:href="#SVGID_1_"  overflow="visible"/>
		</clipPath>
		<clipPath id="SVGID_5_" clip-path="url(#SVGID_4_)">
			<use xlink:href="#SVGID_2_"  overflow="visible"/>
		</clipPath>
	</g>
	<g>
		<defs>
			<path id="SVGID_6_" d="M67.311,16.121c8.417,14.577,48.069,83.027,57.333,99.073c0.934,1.617-0.111,3.345-1.751,3.345
				c-18.091,0-97.413,0-114.842,0c-1.738,0-2.384-1.748-1.434-3.393c9.268-16.053,48.505-83.978,57.178-99.001
				C64.729,14.525,66.283,14.341,67.311,16.121L67.311,16.121z"/>
		</defs>
		<use xlink:href="#SVGID_6_"  overflow="visible" fill-rule="evenodd" clip-rule="evenodd"/>
		<clipPath id="SVGID_7_">
			<use xlink:href="#SVGID_6_"  overflow="visible"/>
		</clipPath>
	</g>
	<g>
		<defs>
			<path id="SVGID_8_" d="M66.807,37.073c5.941,10.29,33.928,57.826,40.466,69.151c0.659,1.142-0.079,2.361-1.236,2.361
				c-12.769,0-68.754,0-81.055,0c-1.228,0-1.683-1.234-1.013-2.395c6.541-11.329,34.235-58.496,40.356-69.099
				C64.986,35.947,66.081,35.818,66.807,37.073L66.807,37.073z"/>
		</defs>
		<use xlink:href="#SVGID_8_"  overflow="visible" fill="#AFAFAF"/>
		<clipPath id="SVGID_9_">
			<use xlink:href="#SVGID_8_"  overflow="visible"/>
		</clipPath>
	</g>
	<g>
		<defs>
			<path id="SVGID_10_" d="M77.688,75.936c-2.566,1.998-3.993-0.428-5.989,0.144c-1.996,0.57-0.822,2.13-3.817,2.844
				c-2.996,0.712-3.574-2.14-5.429-1.998c-1.854,0.144-1.694,2.51-4.623,2.552c-4.157,0.058-2.885-2.258-4.421-1.872
				c-2.234,0.562-3.256,1.326-3.256,1.896c0,0.57-0.006,3.138-0.006,3.138l1.846,0.504l0.376,2.449l11.98,0.026
				c0,0,0.62-3.516,3.473-3.658c2.852-0.142,4.161,3.628,4.161,3.628l4.317,0.031l0.888-3.101l10.977,0.052l-0.026,3.019
				l-7.07,0.118l0.058,4.97h7.019l-0.024,7.83l-2.082,1.496c0.026,0.202,0.061,0.401,0.061,0.609c0,2.6-2.108,4.707-4.707,4.707
				c-2.6,0-4.707-2.106-4.707-4.707c0-0.05,0.013-0.097,0.015-0.147l-2.252-0.002c0.002,0.05,0.015,0.099,0.015,0.149
				c0,2.6-2.106,4.707-4.707,4.707c-2.599,0-4.707-2.106-4.707-4.707c0-0.053,0.015-0.102,0.016-0.155l-1.967-0.002
				c0.002,0.053,0.016,0.103,0.016,0.157c0,2.6-2.108,4.707-4.707,4.707c-2.6,0-4.707-2.106-4.707-4.707
				c0-0.055,0.015-0.107,0.016-0.163l-2.056-0.002c0.418,0.515,0.678,1.163,0.678,1.877c0,1.656-1.342,2.996-2.996,2.996
				s-2.996-1.341-2.996-2.996c0-0.916,0.42-1.727,1.069-2.276L47.208,97.6l-1.995,0.045l-0.804,2.652
				c0.493,0.533,0.801,1.242,0.801,2.025c0,1.656-1.341,2.996-2.996,2.996c-1.654,0-2.996-1.341-2.996-2.996
				c0-1.512,1.124-2.749,2.579-2.954l-0.662-1.752l-0.916-0.068l0.016-2.91l2.944-0.032l0.016-8.899h2.691l0.428-2.638l1.832-0.428
				l0.015-6.931c0,0,1.148-0.202,1.576-1.342c0.426-1.14,0.284-2.852,3.137-2.994c2.852-0.144,1.854,0,4.135-1.996
				c2.282-1.998,1.998-5.706,5.705-5.564c3.708,0.144,2.424,1.856,5.419,1.712c2.994-0.144,2.282-2.14,4.849-1.854
				c2.566,0.286,4.421-0.142,5.847,1.998c1.426,2.138,2.424,2.994,1.284,5.705C78.972,74.084,80.254,73.942,77.688,75.936
				L77.688,75.936z"/>
		</defs>
		<use xlink:href="#SVGID_10_"  overflow="visible" fill-rule="evenodd" clip-rule="evenodd"/>
		<clipPath id="SVGID_11_">
			<use xlink:href="#SVGID_10_"  overflow="visible"/>
		</clipPath>
	</g>
	<linearGradient id="SVGID_12_" gradientUnits="userSpaceOnUse" x1="91.444" y1="145.3096" x2="18.9822" y2="41.8234">
		<stop  offset="0" style="stop-color:#000000;stop-opacity:0"/>
		<stop  offset="1" style="stop-color:#FFFFFF;stop-opacity:0.25"/>
	</linearGradient>
	<path fill-rule="evenodd" clip-rule="evenodd" fill="url(#SVGID_12_)" d="M68.079,10.929
		c8.814,15.269,50.344,86.962,60.048,103.765c1.33,2.304-0.734,6.7-3.317,6.7c-18.949,0-99.899,0-118.152,0
		c-4.317,0-5.267-2.882-3.036-6.749C13.33,97.833,54.426,26.689,63.51,10.955C64.49,9.257,67.001,9.065,68.079,10.929L68.079,10.929
		z"/>
</g>
<g id="normal">
	<g>
		<defs>
			<path id="SVGID_13_" d="M69.079,11.929c8.814,15.269,50.344,86.962,60.048,103.765c1.33,2.304-0.734,6.7-3.317,6.7
				c-18.949,0-99.899,0-118.152,0c-4.317,0-5.267-2.882-3.036-6.749C14.33,98.833,55.426,27.689,64.51,11.955
				C65.49,10.257,68.001,10.065,69.079,11.929L69.079,11.929z"/>
		</defs>
		<defs>
			<path id="SVGID_14_" d="M68.079,10.929c8.814,15.269,50.344,86.962,60.048,103.765c1.33,2.304-0.734,6.7-3.317,6.7
				c-18.949,0-99.899,0-118.152,0c-4.317,0-5.267-2.882-3.036-6.749C13.33,97.833,54.426,26.689,63.51,10.955
				C64.49,9.257,67.001,9.065,68.079,10.929L68.079,10.929z"/>
		</defs>
		<linearGradient id="SVGID_15_" gradientUnits="userSpaceOnUse" x1="3.4569" y1="66.5" x2="129.5431" y2="66.5">
			<stop  offset="0" style="stop-color:#000000;stop-opacity:0.6"/>
			<stop  offset="1" style="stop-color:#000000;stop-opacity:0.6"/>
		</linearGradient>
		<use xlink:href="#SVGID_13_"  overflow="visible" fill-rule="evenodd" clip-rule="evenodd" fill="url(#SVGID_15_)"/>
		<use xlink:href="#SVGID_14_"  overflow="visible" fill="#FA9F37"/>
		<clipPath id="SVGID_16_">
			<use xlink:href="#SVGID_13_"  overflow="visible"/>
		</clipPath>
		<clipPath id="SVGID_17_" clip-path="url(#SVGID_16_)">
			<use xlink:href="#SVGID_14_"  overflow="visible"/>
		</clipPath>
	</g>
	<g>
		<defs>
			<path id="SVGID_18_" d="M67.311,16.121c8.417,14.577,48.069,83.027,57.333,99.073c0.934,1.617-0.111,3.345-1.751,3.345
				c-18.091,0-97.413,0-114.842,0c-1.738,0-2.384-1.748-1.434-3.393c9.268-16.053,48.505-83.978,57.178-99.001
				C64.729,14.525,66.283,14.341,67.311,16.121L67.311,16.121z"/>
		</defs>
		<use xlink:href="#SVGID_18_"  overflow="visible" fill-rule="evenodd" clip-rule="evenodd"/>
		<clipPath id="SVGID_19_">
			<use xlink:href="#SVGID_18_"  overflow="visible"/>
		</clipPath>
	</g>
	<g>
		<defs>
			<path id="SVGID_20_" d="M66.807,37.073c5.941,10.29,33.928,57.826,40.466,69.151c0.659,1.142-0.079,2.361-1.236,2.361
				c-12.769,0-68.754,0-81.055,0c-1.228,0-1.683-1.234-1.013-2.395c6.541-11.329,34.235-58.496,40.356-69.099
				C64.986,35.947,66.081,35.818,66.807,37.073L66.807,37.073z"/>
		</defs>
		<use xlink:href="#SVGID_20_"  overflow="visible" fill="#FA9F37"/>
		<clipPath id="SVGID_21_">
			<use xlink:href="#SVGID_20_"  overflow="visible"/>
		</clipPath>
	</g>
	<g>
		<defs>
			<path id="SVGID_22_" d="M77.688,75.936c-2.566,1.998-3.993-0.428-5.989,0.144c-1.996,0.57-0.822,2.13-3.817,2.844
				c-2.996,0.712-3.574-2.14-5.429-1.998c-1.854,0.144-1.694,2.51-4.623,2.552c-4.157,0.058-2.885-2.258-4.421-1.872
				c-2.234,0.562-3.256,1.326-3.256,1.896c0,0.57-0.006,3.138-0.006,3.138l1.846,0.504l0.376,2.449l11.98,0.026
				c0,0,0.62-3.516,3.473-3.658c2.852-0.142,4.161,3.628,4.161,3.628l4.317,0.031l0.888-3.101l10.977,0.052l-0.026,3.019
				l-7.07,0.118l0.058,4.97h7.019l-0.024,7.83l-2.082,1.496c0.026,0.202,0.061,0.401,0.061,0.609c0,2.6-2.108,4.707-4.707,4.707
				c-2.6,0-4.707-2.106-4.707-4.707c0-0.05,0.013-0.097,0.015-0.147l-2.252-0.002c0.002,0.05,0.015,0.099,0.015,0.149
				c0,2.6-2.106,4.707-4.707,4.707c-2.599,0-4.707-2.106-4.707-4.707c0-0.053,0.015-0.102,0.016-0.155l-1.967-0.002
				c0.002,0.053,0.016,0.103,0.016,0.157c0,2.6-2.108,4.707-4.707,4.707c-2.6,0-4.707-2.106-4.707-4.707
				c0-0.055,0.015-0.107,0.016-0.163l-2.056-0.002c0.418,0.515,0.678,1.163,0.678,1.877c0,1.656-1.342,2.996-2.996,2.996
				s-2.996-1.341-2.996-2.996c0-0.916,0.42-1.727,1.069-2.276L47.208,97.6l-1.995,0.045l-0.804,2.652
				c0.493,0.533,0.801,1.242,0.801,2.025c0,1.656-1.341,2.996-2.996,2.996c-1.654,0-2.996-1.341-2.996-2.996
				c0-1.512,1.124-2.749,2.579-2.954l-0.662-1.752l-0.916-0.068l0.016-2.91l2.944-0.032l0.016-8.899h2.691l0.428-2.638l1.832-0.428
				l0.015-6.931c0,0,1.148-0.202,1.576-1.342c0.426-1.14,0.284-2.852,3.137-2.994c2.852-0.144,1.854,0,4.135-1.996
				c2.282-1.998,1.998-5.706,5.705-5.564c3.708,0.144,2.424,1.856,5.419,1.712c2.994-0.144,2.282-2.14,4.849-1.854
				c2.566,0.286,4.421-0.142,5.847,1.998c1.426,2.138,2.424,2.994,1.284,5.705C78.972,74.084,80.254,73.942,77.688,75.936
				L77.688,75.936z"/>
		</defs>
		<use xlink:href="#SVGID_22_"  overflow="visible" fill-rule="evenodd" clip-rule="evenodd"/>
		<clipPath id="SVGID_23_">
			<use xlink:href="#SVGID_22_"  overflow="visible"/>
		</clipPath>
	</g>
	<linearGradient id="SVGID_24_" gradientUnits="userSpaceOnUse" x1="91.444" y1="145.3096" x2="18.9822" y2="41.8234">
		<stop  offset="0" style="stop-color:#000000;stop-opacity:0"/>
		<stop  offset="1" style="stop-color:#FFFFFF;stop-opacity:0.25"/>
	</linearGradient>
	<path fill-rule="evenodd" clip-rule="evenodd" fill="url(#SVGID_24_)" d="M68.079,10.929
		c8.814,15.269,50.344,86.962,60.048,103.765c1.33,2.304-0.734,6.7-3.317,6.7c-18.949,0-99.899,0-118.152,0
		c-4.317,0-5.267-2.882-3.036-6.749C13.33,97.833,54.426,26.689,63.51,10.955C64.49,9.257,67.001,9.065,68.079,10.929L68.079,10.929
		z"/>
</g>
</svg>
