<?xml version="1.0" encoding="utf-8"?>
<!-- Generator: Adobe Illustrator 17.0.1, SVG Export Plug-In . SVG Version: 6.00 Build 0)  -->
<!DOCTYPE svg PUBLIC "-//W3C//DTD SVG 1.1//EN" "http://www.w3.org/Graphics/SVG/1.1/DTD/svg11.dtd">
<svg version="1.1" xmlns="http://www.w3.org/2000/svg" xmlns:xlink="http://www.w3.org/1999/xlink" x="0px" y="0px" width="132px"
	 height="132px" viewBox="0 0 132 132" enable-background="new 0 0 132 132" xml:space="preserve">
<g id="disabled">
	<g>
		<defs>
			<path id="SVGID_1_" d="M69.079,11.929c8.814,15.267,50.344,86.96,60.048,103.765c1.33,2.304-0.734,6.7-3.317,6.7
				c-18.949,0-99.899,0-118.152,0c-4.317,0-5.267-2.882-3.036-6.749C14.33,98.833,55.426,27.688,64.51,11.955
				C65.49,10.257,68.001,10.065,69.079,11.929L69.079,11.929z"/>
		</defs>
		<defs>
			<path id="SVGID_2_" d="M68.079,10.929c8.814,15.267,50.344,86.96,60.048,103.765c1.33,2.304-0.734,6.7-3.317,6.7
				c-18.949,0-99.899,0-118.152,0c-4.317,0-5.267-2.882-3.036-6.749C13.33,97.833,54.426,26.688,63.51,10.955
				C64.49,9.257,67.001,9.065,68.079,10.929L68.079,10.929z"/>
		</defs>
		<linearGradient id="SVGID_3_" gradientUnits="userSpaceOnUse" x1="3.4569" y1="66.5" x2="129.5431" y2="66.5">
			<stop  offset="0" style="stop-color:#000000;stop-opacity:0.6"/>
			<stop  offset="1" style="stop-color:#000000;stop-opacity:0.6"/>
		</linearGradient>
		<use xlink:href="#SVGID_1_"  overflow="visible" fill-rule="evenodd" clip-rule="evenodd" fill="url(#SVGID_3_)"/>
		<use xlink:href="#SVGID_2_"  overflow="visible" fill="#AFAFAF"/>
		<clipPath id="SVGID_4_">
			<use xlink:href="#SVGID_1_"  overflow="visible"/>
		</clipPath>
		<clipPath id="SVGID_5_" clip-path="url(#SVGID_4_)">
			<use xlink:href="#SVGID_2_"  overflow="visible"/>
		</clipPath>
	</g>
	<g>
		<defs>
			<path id="SVGID_6_" d="M67.311,16.121c8.417,14.578,48.069,83.029,57.333,99.072c0.934,1.618-0.111,3.347-1.751,3.347
				c-18.091,0-97.413,0-114.842,0c-1.738,0-2.384-1.748-1.434-3.392c9.268-16.055,48.505-83.98,57.178-99.002
				C64.729,14.525,66.283,14.341,67.311,16.121L67.311,16.121z"/>
		</defs>
		<use xlink:href="#SVGID_6_"  overflow="visible" fill-rule="evenodd" clip-rule="evenodd"/>
		<clipPath id="SVGID_7_">
			<use xlink:href="#SVGID_6_"  overflow="visible"/>
		</clipPath>
	</g>
	<g>
		<defs>
			<path id="SVGID_8_" d="M66.807,37.074c5.941,10.289,33.928,57.906,40.466,69.23c0.659,1.142-0.079,2.361-1.236,2.361
				c-12.769,0-68.754,0-81.055,0c-1.228,0-1.683-1.232-1.013-2.394C30.511,94.94,58.204,47.694,64.326,37.09
				C64.986,35.945,66.081,35.818,66.807,37.074L66.807,37.074z"/>
		</defs>
		<use xlink:href="#SVGID_8_"  overflow="visible" fill="#AFAFAF"/>
		<clipPath id="SVGID_9_">
			<use xlink:href="#SVGID_8_"  overflow="visible"/>
		</clipPath>
	</g>
	<g>
		<defs>
			<path id="SVGID_10_" d="M97.107,97.741l-4.451,0.883c0.313,0.48,0.499,1.051,0.499,1.667c0,1.689-1.37,3.061-3.061,3.061
				c-1.689,0-3.059-1.371-3.059-3.061c0-0.192,0.023-0.38,0.057-0.562l-7.323,1.455l-8.032,1.656l-0.092,0.018
				c0.215,0.417,0.347,0.883,0.347,1.386c0,1.689-1.371,3.061-3.061,3.061s-3.059-1.371-3.059-3.061
				c0-0.113,0.021-0.221,0.032-0.331l-0.415,0.076c0,0-2.423,0.893-3.825,0.128c-1.404-0.764-0.255-4.207-0.255-4.207l8.543-1.531
				l0.998-6.239l-1.381,1.906l-4.335,3.442l-10.072,3.316l5.574-4.235h-6.614c-1.32-3.309-4.548-5.651-8.329-5.651
				c-3.781,0-7.01,2.342-8.329,5.651h-8.664V84.76h34.306v10.007l2.129-1.617l1.147-13.259l1.531,10.327l8.032-4.973l-4.884,6.74
				c0.919-0.179,14.858-2.91,15.72-2.788c0.893,0.128,2.423,3.444,3.314,3.952c0.893,0.51,7.141-0.764,7.523-0.509
				c0.381,0.255,1.402,3.059,1.402,3.059l0.255,1.147L97.107,97.741L97.107,97.741z M67.168,67.833v0.149
				c0,0.856-0.694,1.551-1.551,1.551c-0.856,0-1.549-0.695-1.549-1.551v-0.149c0-0.854,0.693-1.549,1.549-1.549
				C66.474,66.284,67.168,66.979,67.168,67.833L67.168,67.833z M65.613,64.593c-0.554,0-1.003-0.572-1.003-1.274l-0.995-10.838
				c0-0.704,0.893-1.276,1.996-1.276s1.996,0.572,1.996,1.276l-0.993,10.838C66.614,64.021,66.165,64.593,65.613,64.593
				L65.613,64.593z M50.206,74.714h12.899v8.835H50.206V74.714L50.206,74.714z M28.799,74.714h20.306v8.835H28.799V74.714
				L28.799,74.714z M45.79,92.443c4.112,0,7.444,3.334,7.444,7.444c0,4.112-3.332,7.446-7.444,7.446
				c-4.111,0-7.444-3.334-7.444-7.446C38.346,95.777,41.68,92.443,45.79,92.443L45.79,92.443z"/>
		</defs>
		<use xlink:href="#SVGID_10_"  overflow="visible" fill-rule="evenodd" clip-rule="evenodd"/>
		<clipPath id="SVGID_11_">
			<use xlink:href="#SVGID_10_"  overflow="visible"/>
		</clipPath>
	</g>
	<g>
		<defs>
			<path id="SVGID_12_" d="M90.221,101.663c-0.896,0-1.625-0.728-1.625-1.626c0-0.898,0.728-1.625,1.625-1.625
				c0.898,0,1.626,0.727,1.626,1.625C91.848,100.934,91.119,101.663,90.221,101.663L90.221,101.663z M83.968,91.762l2.524-0.522
				l2.487,2.964l-4.127,0.947L83.968,91.762L83.968,91.762z M76.911,93.222l6.024-1.247l0.892,3.41l-5.991,1.376L76.911,93.222
				L76.911,93.222z M75.881,93.435l0.93,3.56l-6.579,1.51c-0.882,0.882-2.092,1.436-3.437,1.436c-2.694,0-4.876-2.184-4.876-4.876
				c0-1.631,0.803-3.072,2.032-3.957c0.753-1.723,2.47-2.928,4.469-2.928c2.694,0,4.878,2.184,4.878,4.878
				c0,0.32-0.04,0.63-0.099,0.934L75.881,93.435L75.881,93.435z M45.758,103.001c-1.848,0-3.347-1.499-3.347-3.348
				c0-1.848,1.499-3.347,3.347-3.347c1.849,0,3.347,1.499,3.347,3.347C49.105,101.503,47.607,103.001,45.758,103.001L45.758,103.001
				z M68.898,103.001c0.845,0,1.531,0.683,1.531,1.53c0,0.845-0.686,1.53-1.531,1.53c-0.845,0-1.53-0.685-1.53-1.53
				C67.369,103.685,68.053,103.001,68.898,103.001L68.898,103.001z"/>
		</defs>
		<defs>
			<path id="SVGID_13_" d="M68.079,10.929c8.814,15.267,50.344,86.96,60.048,103.765c1.33,2.304-0.734,6.7-3.317,6.7
				c-18.949,0-99.899,0-118.152,0c-4.317,0-5.267-2.882-3.036-6.749C13.33,97.833,54.426,26.688,63.51,10.955
				C64.49,9.257,67.001,9.065,68.079,10.929L68.079,10.929z"/>
		</defs>
		<use xlink:href="#SVGID_12_"  overflow="visible" fill-rule="evenodd" clip-rule="evenodd" fill="#FFFFFF"/>
		<linearGradient id="SVGID_14_" gradientUnits="userSpaceOnUse" x1="91.444" y1="145.3096" x2="18.9822" y2="41.8234">
			<stop  offset="0" style="stop-color:#000000;stop-opacity:0"/>
			<stop  offset="1" style="stop-color:#FFFFFF;stop-opacity:0.25"/>
		</linearGradient>
		<use xlink:href="#SVGID_13_"  overflow="visible" fill-rule="evenodd" clip-rule="evenodd" fill="url(#SVGID_14_)"/>
		<clipPath id="SVGID_15_">
			<use xlink:href="#SVGID_12_"  overflow="visible"/>
		</clipPath>
		<clipPath id="SVGID_16_" clip-path="url(#SVGID_15_)">
			<use xlink:href="#SVGID_13_"  overflow="visible"/>
		</clipPath>
	</g>
</g>
<g id="normal">
	<g>
		<defs>
			<path id="SVGID_17_" d="M69.079,11.929c8.814,15.267,50.344,86.96,60.048,103.765c1.33,2.304-0.734,6.7-3.317,6.7
				c-18.949,0-99.899,0-118.152,0c-4.317,0-5.267-2.882-3.036-6.749C14.33,98.833,55.426,27.688,64.51,11.955
				C65.49,10.257,68.001,10.065,69.079,11.929L69.079,11.929z"/>
		</defs>
		<defs>
			<path id="SVGID_18_" d="M68.079,10.929c8.814,15.267,50.344,86.96,60.048,103.765c1.33,2.304-0.734,6.7-3.317,6.7
				c-18.949,0-99.899,0-118.152,0c-4.317,0-5.267-2.882-3.036-6.749C13.33,97.833,54.426,26.688,63.51,10.955
				C64.49,9.257,67.001,9.065,68.079,10.929L68.079,10.929z"/>
		</defs>
		<linearGradient id="SVGID_19_" gradientUnits="userSpaceOnUse" x1="3.4569" y1="66.5" x2="129.5431" y2="66.5">
			<stop  offset="0" style="stop-color:#000000;stop-opacity:0.6"/>
			<stop  offset="1" style="stop-color:#000000;stop-opacity:0.6"/>
		</linearGradient>
		<use xlink:href="#SVGID_17_"  overflow="visible" fill-rule="evenodd" clip-rule="evenodd" fill="url(#SVGID_19_)"/>
		<use xlink:href="#SVGID_18_"  overflow="visible" fill="#FA9F37"/>
		<clipPath id="SVGID_20_">
			<use xlink:href="#SVGID_17_"  overflow="visible"/>
		</clipPath>
		<clipPath id="SVGID_21_" clip-path="url(#SVGID_20_)">
			<use xlink:href="#SVGID_18_"  overflow="visible"/>
		</clipPath>
	</g>
	<g>
		<defs>
			<path id="SVGID_22_" d="M67.311,16.121c8.417,14.578,48.069,83.029,57.333,99.072c0.934,1.618-0.111,3.347-1.751,3.347
				c-18.091,0-97.413,0-114.842,0c-1.738,0-2.384-1.748-1.434-3.392c9.268-16.055,48.505-83.98,57.178-99.002
				C64.729,14.525,66.283,14.341,67.311,16.121L67.311,16.121z"/>
		</defs>
		<use xlink:href="#SVGID_22_"  overflow="visible" fill-rule="evenodd" clip-rule="evenodd"/>
		<clipPath id="SVGID_23_">
			<use xlink:href="#SVGID_22_"  overflow="visible"/>
		</clipPath>
	</g>
	<g>
		<defs>
			<path id="SVGID_24_" d="M66.807,37.074c5.941,10.289,33.928,57.906,40.466,69.23c0.659,1.142-0.079,2.361-1.236,2.361
				c-12.769,0-68.754,0-81.055,0c-1.228,0-1.683-1.232-1.013-2.394C30.511,94.94,58.204,47.694,64.326,37.09
				C64.986,35.945,66.081,35.818,66.807,37.074L66.807,37.074z"/>
		</defs>
		<use xlink:href="#SVGID_24_"  overflow="visible" fill="#FA9F37"/>
		<clipPath id="SVGID_25_">
			<use xlink:href="#SVGID_24_"  overflow="visible"/>
		</clipPath>
	</g>
	<g>
		<defs>
			<path id="SVGID_26_" d="M97.107,97.741l-4.451,0.883c0.313,0.48,0.499,1.051,0.499,1.667c0,1.689-1.37,3.061-3.061,3.061
				c-1.689,0-3.059-1.371-3.059-3.061c0-0.192,0.023-0.38,0.057-0.562l-7.323,1.455l-8.032,1.656l-0.092,0.018
				c0.215,0.417,0.347,0.883,0.347,1.386c0,1.689-1.371,3.061-3.061,3.061s-3.059-1.371-3.059-3.061
				c0-0.113,0.021-0.221,0.032-0.331l-0.415,0.076c0,0-2.423,0.893-3.825,0.128c-1.404-0.764-0.255-4.207-0.255-4.207l8.543-1.531
				l0.998-6.239l-1.381,1.906l-4.335,3.442l-10.072,3.316l5.574-4.235h-6.614c-1.32-3.309-4.548-5.651-8.329-5.651
				c-3.781,0-7.01,2.342-8.329,5.651h-8.664V84.76h34.306v10.007l2.129-1.617l1.147-13.259l1.531,10.327l8.032-4.973l-4.884,6.74
				c0.919-0.179,14.858-2.91,15.72-2.788c0.893,0.128,2.423,3.444,3.314,3.952c0.893,0.51,7.141-0.764,7.523-0.509
				c0.381,0.255,1.402,3.059,1.402,3.059l0.255,1.147L97.107,97.741L97.107,97.741z M67.168,67.833v0.149
				c0,0.856-0.694,1.551-1.551,1.551c-0.856,0-1.549-0.695-1.549-1.551v-0.149c0-0.854,0.693-1.549,1.549-1.549
				C66.474,66.284,67.168,66.979,67.168,67.833L67.168,67.833z M65.613,64.593c-0.554,0-1.003-0.572-1.003-1.274l-0.995-10.838
				c0-0.704,0.893-1.276,1.996-1.276s1.996,0.572,1.996,1.276l-0.993,10.838C66.614,64.021,66.165,64.593,65.613,64.593
				L65.613,64.593z M50.206,74.714h12.899v8.835H50.206V74.714L50.206,74.714z M28.799,74.714h20.306v8.835H28.799V74.714
				L28.799,74.714z M45.79,92.443c4.112,0,7.444,3.334,7.444,7.444c0,4.112-3.332,7.446-7.444,7.446
				c-4.111,0-7.444-3.334-7.444-7.446C38.346,95.777,41.68,92.443,45.79,92.443L45.79,92.443z"/>
		</defs>
		<use xlink:href="#SVGID_26_"  overflow="visible" fill-rule="evenodd" clip-rule="evenodd"/>
		<clipPath id="SVGID_27_">
			<use xlink:href="#SVGID_26_"  overflow="visible"/>
		</clipPath>
	</g>
	<g>
		<defs>
			<path id="SVGID_28_" d="M90.221,101.663c-0.896,0-1.625-0.728-1.625-1.626c0-0.898,0.728-1.625,1.625-1.625
				c0.898,0,1.626,0.727,1.626,1.625C91.848,100.934,91.119,101.663,90.221,101.663L90.221,101.663z M83.968,91.762l2.524-0.522
				l2.487,2.964l-4.127,0.947L83.968,91.762L83.968,91.762z M76.911,93.222l6.024-1.247l0.892,3.41l-5.991,1.376L76.911,93.222
				L76.911,93.222z M75.881,93.435l0.93,3.56l-6.579,1.51c-0.882,0.882-2.092,1.436-3.437,1.436c-2.694,0-4.876-2.184-4.876-4.876
				c0-1.631,0.803-3.072,2.032-3.957c0.753-1.723,2.47-2.928,4.469-2.928c2.694,0,4.878,2.184,4.878,4.878
				c0,0.32-0.04,0.63-0.099,0.934L75.881,93.435L75.881,93.435z M45.758,103.001c-1.848,0-3.347-1.499-3.347-3.348
				c0-1.848,1.499-3.347,3.347-3.347c1.849,0,3.347,1.499,3.347,3.347C49.105,101.503,47.607,103.001,45.758,103.001L45.758,103.001
				z M68.898,103.001c0.845,0,1.531,0.683,1.531,1.53c0,0.845-0.686,1.53-1.531,1.53c-0.845,0-1.53-0.685-1.53-1.53
				C67.369,103.685,68.053,103.001,68.898,103.001L68.898,103.001z"/>
		</defs>
		<defs>
			<path id="SVGID_29_" d="M68.079,10.929c8.814,15.267,50.344,86.96,60.048,103.765c1.33,2.304-0.734,6.7-3.317,6.7
				c-18.949,0-99.899,0-118.152,0c-4.317,0-5.267-2.882-3.036-6.749C13.33,97.833,54.426,26.688,63.51,10.955
				C64.49,9.257,67.001,9.065,68.079,10.929L68.079,10.929z"/>
		</defs>
		<use xlink:href="#SVGID_28_"  overflow="visible" fill-rule="evenodd" clip-rule="evenodd" fill="#FFFFFF"/>
		<linearGradient id="SVGID_30_" gradientUnits="userSpaceOnUse" x1="91.444" y1="145.3096" x2="18.9822" y2="41.8234">
			<stop  offset="0" style="stop-color:#000000;stop-opacity:0"/>
			<stop  offset="1" style="stop-color:#FFFFFF;stop-opacity:0.25"/>
		</linearGradient>
		<use xlink:href="#SVGID_29_"  overflow="visible" fill-rule="evenodd" clip-rule="evenodd" fill="url(#SVGID_30_)"/>
		<clipPath id="SVGID_31_">
			<use xlink:href="#SVGID_28_"  overflow="visible"/>
		</clipPath>
		<clipPath id="SVGID_32_" clip-path="url(#SVGID_31_)">
			<use xlink:href="#SVGID_29_"  overflow="visible"/>
		</clipPath>
	</g>
</g>
</svg>
