<?xml version="1.0" encoding="utf-8"?>
<!-- Generator: Adobe Illustrator 17.0.1, SVG Export Plug-In . SVG Version: 6.00 Build 0)  -->
<!DOCTYPE svg PUBLIC "-//W3C//DTD SVG 1.1//EN" "http://www.w3.org/Graphics/SVG/1.1/DTD/svg11.dtd">
<svg version="1.1" xmlns="http://www.w3.org/2000/svg" xmlns:xlink="http://www.w3.org/1999/xlink" x="0px" y="0px" width="132px"
	 height="132px" viewBox="0 0 132 132" enable-background="new 0 0 132 132" xml:space="preserve">
<g id="disabled">
	<g>
		<defs>
			<path id="SVGID_1_" d="M69.079,11.929c8.814,15.269,50.344,86.962,60.048,103.767c1.33,2.304-0.734,6.699-3.317,6.699
				c-18.949,0-99.899,0-118.152,0c-4.317,0-5.267-2.881-3.036-6.749C14.33,98.832,55.426,27.689,64.51,11.955
				C65.49,10.258,68.001,10.066,69.079,11.929L69.079,11.929z"/>
		</defs>
		<defs>
			<path id="SVGID_2_" d="M68.079,10.929c8.814,15.269,50.344,86.962,60.048,103.767c1.33,2.304-0.734,6.699-3.317,6.699
				c-18.949,0-99.899,0-118.152,0c-4.317,0-5.267-2.881-3.036-6.749C13.33,97.832,54.426,26.689,63.51,10.955
				C64.49,9.258,67.001,9.066,68.079,10.929L68.079,10.929z"/>
		</defs>
		<linearGradient id="SVGID_3_" gradientUnits="userSpaceOnUse" x1="3.4569" y1="66.5" x2="129.5431" y2="66.5">
			<stop  offset="0" style="stop-color:#000000;stop-opacity:0.6"/>
			<stop  offset="1" style="stop-color:#000000;stop-opacity:0.6"/>
		</linearGradient>
		<use xlink:href="#SVGID_1_"  overflow="visible" fill-rule="evenodd" clip-rule="evenodd" fill="url(#SVGID_3_)"/>
		<use xlink:href="#SVGID_2_"  overflow="visible" fill="#AFAFAF"/>
		<clipPath id="SVGID_4_">
			<use xlink:href="#SVGID_1_"  overflow="visible"/>
		</clipPath>
		<clipPath id="SVGID_5_" clip-path="url(#SVGID_4_)">
			<use xlink:href="#SVGID_2_"  overflow="visible"/>
		</clipPath>
	</g>
	<g>
		<defs>
			<path id="SVGID_6_" d="M67.311,16.122c8.417,14.578,48.069,83.027,57.333,99.072c0.934,1.618-0.111,3.345-1.751,3.345
				c-18.091,0-97.413,0-114.842,0c-1.738,0-2.384-1.746-1.434-3.392c9.268-16.053,48.505-83.978,57.178-99.001
				C64.729,14.526,66.283,14.342,67.311,16.122L67.311,16.122z"/>
		</defs>
		<use xlink:href="#SVGID_6_"  overflow="visible" fill-rule="evenodd" clip-rule="evenodd"/>
		<clipPath id="SVGID_7_">
			<use xlink:href="#SVGID_6_"  overflow="visible"/>
		</clipPath>
	</g>
	<g>
		<defs>
			<path id="SVGID_8_" d="M66.807,37.074c5.941,10.288,33.928,57.842,40.466,69.167c0.659,1.142-0.079,2.361-1.236,2.361
				c-12.769,0-68.754,0-81.055,0c-1.228,0-1.683-1.232-1.013-2.395c6.541-11.33,34.235-58.514,40.356-69.116
				C64.986,35.946,66.081,35.817,66.807,37.074L66.807,37.074z"/>
		</defs>
		<use xlink:href="#SVGID_8_"  overflow="visible" fill="#AFAFAF"/>
		<clipPath id="SVGID_9_">
			<use xlink:href="#SVGID_8_"  overflow="visible"/>
		</clipPath>
	</g>
	<g>
		<defs>
			<path id="SVGID_10_" d="M25.683,106.604l2.378-3.883l14.648-0.25c0,0,1.127-5.753,2.004-9.51c0.875-3.755,2.003-7.51,3.505-9.515
				c1.502-2.003,3.004-2.878,3.631-4.006c0.625-1.127,0.625-1.878,0.625-1.878s-1.877-1.502-2.378-1.877
				c-0.501-0.376-1.628-0.376-1.754-2.004c-0.124-1.626,2.255-3.629,3.506-4.13c1.252-0.501,3.505-2.004,5.383-2.004
				c1.878,0,3.381-0.124,4.256,0.501c0.877,0.627,3.13,2.129,3.13,3.13s0,3.256,0.376,4.258c0.375,1,1.626,3.129,2.003,4.506
				c0.375,1.376,1.252,4.632,1.252,4.632l4.006,3.505h5.76c0,0,1.127-0.501,1.001-1.001c-0.124-0.501-1.878-1.252-1.752-3.004
				c0.124-1.752,1.502-2.253,2.253-2.629c0.751-0.375,2.754-0.501,3.13-2.003c0.375-1.502,0.501-3.381,1.001-4.006
				c0.501-0.627,1.628-1.127,2.129-1.378c0.501-0.25,19.03,32.545,19.03,32.545L25.683,106.604L25.683,106.604z M55.73,71.428
				c-0.126-0.625-1.378,0.126-1.878,0.252c-0.501,0.124-0.751,1.376-0.751,1.376l1.001,1.752c0,0,1.752-1.252,1.752-1.752
				S55.854,72.055,55.73,71.428L55.73,71.428z M57.607,95.715c0-2.504,0-5.758,0-5.758s-2.378-3.004-3.255-2.754
				c-0.877,0.25-2.379,2.129-2.88,3.255c-0.501,1.126-0.875,4.132-1.626,5.133c-0.751,1.001-3.631,7.011-3.631,7.011l11.518,0.124
				C57.733,102.726,57.607,98.22,57.607,95.715L57.607,95.715z M63.366,79.941c-0.25-0.877-0.501-0.751-1.378-1.752
				c-0.875-1.001-0.875,0.124-1.126,0.751c-0.25,0.627,0,2.129,0,2.129l2.88,2.253C63.743,83.322,63.617,80.818,63.366,79.941
				L63.366,79.941z M76.512,93.838c-0.751-0.751-3.381-3.13-3.381-3.13l-11.894-7.136l-0.501,1.502c0,0,1.378,1.502,1.378,2.129
				c0,0.625,0.625,5.884,0.375,8.011c-0.25,2.129-1.126,7.388-1.126,7.388l2.379,0.375c0,0,1.252-3.004,2.628-3.129
				c1.378-0.126,2.003,0.124,2.003,0.124s-1.001-2.379,0.376-3.255c1.378-0.877,2.88-2.755,3.755-2.505
				c0.877,0.252,4.382,1.001,4.382,1.001S77.263,94.589,76.512,93.838L76.512,93.838z M65.369,68.548
				c-2.419,0-4.382-1.961-4.382-4.38c0-2.421,1.962-4.384,4.382-4.384c2.42,0,4.382,1.962,4.382,4.384
				C69.751,66.587,67.789,68.548,65.369,68.548L65.369,68.548z"/>
		</defs>
		<use xlink:href="#SVGID_10_"  overflow="visible" fill-rule="evenodd" clip-rule="evenodd"/>
		<clipPath id="SVGID_11_">
			<use xlink:href="#SVGID_10_"  overflow="visible"/>
		</clipPath>
	</g>
	<linearGradient id="SVGID_12_" gradientUnits="userSpaceOnUse" x1="91.444" y1="145.3092" x2="18.9824" y2="41.8234">
		<stop  offset="0" style="stop-color:#000000;stop-opacity:0"/>
		<stop  offset="1" style="stop-color:#FFFFFF;stop-opacity:0.25"/>
	</linearGradient>
	<path fill-rule="evenodd" clip-rule="evenodd" fill="url(#SVGID_12_)" d="M68.079,10.929
		c8.814,15.269,50.344,86.962,60.048,103.767c1.33,2.304-0.734,6.699-3.317,6.699c-18.949,0-99.899,0-118.152,0
		c-4.317,0-5.267-2.881-3.036-6.749C13.33,97.832,54.426,26.689,63.51,10.955C64.49,9.258,67.001,9.066,68.079,10.929L68.079,10.929
		z"/>
</g>
<g id="normal">
	<g>
		<defs>
			<path id="SVGID_13_" d="M69.079,11.929c8.814,15.269,50.344,86.962,60.048,103.767c1.33,2.304-0.734,6.699-3.317,6.699
				c-18.949,0-99.899,0-118.152,0c-4.317,0-5.267-2.881-3.036-6.749C14.33,98.832,55.426,27.689,64.51,11.955
				C65.49,10.258,68.001,10.066,69.079,11.929L69.079,11.929z"/>
		</defs>
		<defs>
			<path id="SVGID_14_" d="M68.079,10.929c8.814,15.269,50.344,86.962,60.048,103.767c1.33,2.304-0.734,6.699-3.317,6.699
				c-18.949,0-99.899,0-118.152,0c-4.317,0-5.267-2.881-3.036-6.749C13.33,97.832,54.426,26.689,63.51,10.955
				C64.49,9.258,67.001,9.066,68.079,10.929L68.079,10.929z"/>
		</defs>
		<linearGradient id="SVGID_15_" gradientUnits="userSpaceOnUse" x1="3.4569" y1="66.5" x2="129.5431" y2="66.5">
			<stop  offset="0" style="stop-color:#000000;stop-opacity:0.6"/>
			<stop  offset="1" style="stop-color:#000000;stop-opacity:0.6"/>
		</linearGradient>
		<use xlink:href="#SVGID_13_"  overflow="visible" fill-rule="evenodd" clip-rule="evenodd" fill="url(#SVGID_15_)"/>
		<use xlink:href="#SVGID_14_"  overflow="visible" fill="#FA9F37"/>
		<clipPath id="SVGID_16_">
			<use xlink:href="#SVGID_13_"  overflow="visible"/>
		</clipPath>
		<clipPath id="SVGID_17_" clip-path="url(#SVGID_16_)">
			<use xlink:href="#SVGID_14_"  overflow="visible"/>
		</clipPath>
	</g>
	<g>
		<defs>
			<path id="SVGID_18_" d="M67.311,16.122c8.417,14.578,48.069,83.027,57.333,99.072c0.934,1.618-0.111,3.345-1.751,3.345
				c-18.091,0-97.413,0-114.842,0c-1.738,0-2.384-1.746-1.434-3.392c9.268-16.053,48.505-83.978,57.178-99.001
				C64.729,14.526,66.283,14.342,67.311,16.122L67.311,16.122z"/>
		</defs>
		<use xlink:href="#SVGID_18_"  overflow="visible" fill-rule="evenodd" clip-rule="evenodd"/>
		<clipPath id="SVGID_19_">
			<use xlink:href="#SVGID_18_"  overflow="visible"/>
		</clipPath>
	</g>
	<g>
		<defs>
			<path id="SVGID_20_" d="M66.807,37.074c5.941,10.288,33.928,57.842,40.466,69.167c0.659,1.142-0.079,2.361-1.236,2.361
				c-12.769,0-68.754,0-81.055,0c-1.228,0-1.683-1.232-1.013-2.395c6.541-11.33,34.235-58.514,40.356-69.116
				C64.986,35.946,66.081,35.817,66.807,37.074L66.807,37.074z"/>
		</defs>
		<use xlink:href="#SVGID_20_"  overflow="visible" fill="#FA9F37"/>
		<clipPath id="SVGID_21_">
			<use xlink:href="#SVGID_20_"  overflow="visible"/>
		</clipPath>
	</g>
	<g>
		<defs>
			<path id="SVGID_22_" d="M25.683,106.604l2.378-3.883l14.648-0.25c0,0,1.127-5.753,2.004-9.51c0.875-3.755,2.003-7.51,3.505-9.515
				c1.502-2.003,3.004-2.878,3.631-4.006c0.625-1.127,0.625-1.878,0.625-1.878s-1.877-1.502-2.378-1.877
				c-0.501-0.376-1.628-0.376-1.754-2.004c-0.124-1.626,2.255-3.629,3.506-4.13c1.252-0.501,3.505-2.004,5.383-2.004
				c1.878,0,3.381-0.124,4.256,0.501c0.877,0.627,3.13,2.129,3.13,3.13s0,3.256,0.376,4.258c0.375,1,1.626,3.129,2.003,4.506
				c0.375,1.376,1.252,4.632,1.252,4.632l4.006,3.505h5.76c0,0,1.127-0.501,1.001-1.001c-0.124-0.501-1.878-1.252-1.752-3.004
				c0.124-1.752,1.502-2.253,2.253-2.629c0.751-0.375,2.754-0.501,3.13-2.003c0.375-1.502,0.501-3.381,1.001-4.006
				c0.501-0.627,1.628-1.127,2.129-1.378c0.501-0.25,19.03,32.545,19.03,32.545L25.683,106.604L25.683,106.604z M55.73,71.428
				c-0.126-0.625-1.378,0.126-1.878,0.252c-0.501,0.124-0.751,1.376-0.751,1.376l1.001,1.752c0,0,1.752-1.252,1.752-1.752
				S55.854,72.055,55.73,71.428L55.73,71.428z M57.607,95.715c0-2.504,0-5.758,0-5.758s-2.378-3.004-3.255-2.754
				c-0.877,0.25-2.379,2.129-2.88,3.255c-0.501,1.126-0.875,4.132-1.626,5.133c-0.751,1.001-3.631,7.011-3.631,7.011l11.518,0.124
				C57.733,102.726,57.607,98.22,57.607,95.715L57.607,95.715z M63.366,79.941c-0.25-0.877-0.501-0.751-1.378-1.752
				c-0.875-1.001-0.875,0.124-1.126,0.751c-0.25,0.627,0,2.129,0,2.129l2.88,2.253C63.743,83.322,63.617,80.818,63.366,79.941
				L63.366,79.941z M76.512,93.838c-0.751-0.751-3.381-3.13-3.381-3.13l-11.894-7.136l-0.501,1.502c0,0,1.378,1.502,1.378,2.129
				c0,0.625,0.625,5.884,0.375,8.011c-0.25,2.129-1.126,7.388-1.126,7.388l2.379,0.375c0,0,1.252-3.004,2.628-3.129
				c1.378-0.126,2.003,0.124,2.003,0.124s-1.001-2.379,0.376-3.255c1.378-0.877,2.88-2.755,3.755-2.505
				c0.877,0.252,4.382,1.001,4.382,1.001S77.263,94.589,76.512,93.838L76.512,93.838z M65.369,68.548
				c-2.419,0-4.382-1.961-4.382-4.38c0-2.421,1.962-4.384,4.382-4.384c2.42,0,4.382,1.962,4.382,4.384
				C69.751,66.587,67.789,68.548,65.369,68.548L65.369,68.548z"/>
		</defs>
		<use xlink:href="#SVGID_22_"  overflow="visible" fill-rule="evenodd" clip-rule="evenodd"/>
		<clipPath id="SVGID_23_">
			<use xlink:href="#SVGID_22_"  overflow="visible"/>
		</clipPath>
	</g>
	<linearGradient id="SVGID_24_" gradientUnits="userSpaceOnUse" x1="91.444" y1="145.3092" x2="18.9824" y2="41.8234">
		<stop  offset="0" style="stop-color:#000000;stop-opacity:0"/>
		<stop  offset="1" style="stop-color:#FFFFFF;stop-opacity:0.25"/>
	</linearGradient>
	<path fill-rule="evenodd" clip-rule="evenodd" fill="url(#SVGID_24_)" d="M68.079,10.929
		c8.814,15.269,50.344,86.962,60.048,103.767c1.33,2.304-0.734,6.699-3.317,6.699c-18.949,0-99.899,0-118.152,0
		c-4.317,0-5.267-2.881-3.036-6.749C13.33,97.832,54.426,26.689,63.51,10.955C64.49,9.258,67.001,9.066,68.079,10.929L68.079,10.929
		z"/>
</g>
</svg>
