<?xml version="1.0" encoding="utf-8"?>
<!-- Generator: Adobe Illustrator 17.0.1, SVG Export Plug-In . SVG Version: 6.00 Build 0)  -->
<!DOCTYPE svg PUBLIC "-//W3C//DTD SVG 1.1//EN" "http://www.w3.org/Graphics/SVG/1.1/DTD/svg11.dtd">
<svg version="1.1" xmlns="http://www.w3.org/2000/svg" xmlns:xlink="http://www.w3.org/1999/xlink" x="0px" y="0px" width="132px"
	 height="132px" viewBox="0 0 132 132" enable-background="new 0 0 132 132" xml:space="preserve">
<g id="disabled">
	<g>
		<defs>
			<path id="SVGID_1_" d="M69.079,11.929c8.814,15.267,50.344,86.96,60.048,103.765c1.33,2.304-0.734,6.7-3.317,6.7
				c-18.949,0-99.899,0-118.152,0c-4.317,0-5.267-2.882-3.036-6.749C14.33,98.833,55.426,27.689,64.51,11.955
				C65.49,10.257,68.001,10.065,69.079,11.929L69.079,11.929z"/>
		</defs>
		<defs>
			<path id="SVGID_2_" d="M68.079,10.929c8.814,15.267,50.344,86.96,60.048,103.765c1.33,2.304-0.734,6.7-3.317,6.7
				c-18.949,0-99.899,0-118.152,0c-4.317,0-5.267-2.882-3.036-6.749C13.33,97.833,54.426,26.689,63.51,10.955
				C64.49,9.257,67.001,9.065,68.079,10.929L68.079,10.929z"/>
		</defs>
		<linearGradient id="SVGID_3_" gradientUnits="userSpaceOnUse" x1="3.4569" y1="66.5" x2="129.5431" y2="66.5">
			<stop  offset="0" style="stop-color:#000000;stop-opacity:0.6"/>
			<stop  offset="1" style="stop-color:#000000;stop-opacity:0.6"/>
		</linearGradient>
		<use xlink:href="#SVGID_1_"  overflow="visible" fill-rule="evenodd" clip-rule="evenodd" fill="url(#SVGID_3_)"/>
		<use xlink:href="#SVGID_2_"  overflow="visible" fill="#AFAFAF"/>
		<clipPath id="SVGID_4_">
			<use xlink:href="#SVGID_1_"  overflow="visible"/>
		</clipPath>
		<clipPath id="SVGID_5_" clip-path="url(#SVGID_4_)">
			<use xlink:href="#SVGID_2_"  overflow="visible"/>
		</clipPath>
	</g>
	<g>
		<defs>
			<path id="SVGID_6_" d="M67.311,16.121c8.417,14.578,48.069,83.029,57.333,99.072c0.934,1.618-0.111,3.347-1.751,3.347
				c-18.091,0-97.413,0-114.842,0c-1.738,0-2.384-1.748-1.434-3.393c9.268-16.053,48.505-83.978,57.178-99.001
				C64.729,14.525,66.283,14.341,67.311,16.121L67.311,16.121z"/>
		</defs>
		<use xlink:href="#SVGID_6_"  overflow="visible" fill-rule="evenodd" clip-rule="evenodd"/>
		<clipPath id="SVGID_7_">
			<use xlink:href="#SVGID_6_"  overflow="visible"/>
		</clipPath>
	</g>
	<g>
		<defs>
			<path id="SVGID_8_" d="M66.807,37.073c5.941,10.29,33.928,57.902,40.466,69.225c0.659,1.142-0.079,2.361-1.236,2.361
				c-12.769,0-68.754,0-81.055,0c-1.228,0-1.683-1.232-1.013-2.394c6.541-11.33,34.235-58.572,40.356-69.175
				C64.986,35.945,66.081,35.818,66.807,37.073L66.807,37.073z"/>
		</defs>
		<use xlink:href="#SVGID_8_"  overflow="visible" fill="#AFAFAF"/>
		<clipPath id="SVGID_9_">
			<use xlink:href="#SVGID_8_"  overflow="visible"/>
		</clipPath>
	</g>
	<g>
		<defs>
			<path id="SVGID_10_" d="M94.75,106.597l-9.576-16.995h5.147l9.576,16.995H94.75L94.75,106.597z M81.33,106.597l-6.79-12.052
				l-0.615-1.253l-0.956-3.689h3.933l9.578,16.995H81.33L81.33,106.597z M54.903,106.597l-9.576-16.995h5.147l9.578,16.995H54.903
				L54.903,106.597z M42.205,106.597l-5.84-11.259l2.544-4.414l8.444,15.673H42.205L42.205,106.597z M62.472,95.407
				c0.082-0.329,1.421-2.565,2.316-4.036l8.58,15.226H68.22L62.35,96.179C62.405,95.782,62.449,95.499,62.472,95.407L62.472,95.407z
				"/>
		</defs>
		<use xlink:href="#SVGID_10_"  overflow="visible" fill-rule="evenodd" clip-rule="evenodd"/>
		<clipPath id="SVGID_11_">
			<use xlink:href="#SVGID_10_"  overflow="visible"/>
		</clipPath>
	</g>
	<g>
		<defs>
			<path id="SVGID_12_" d="M76.817,83.492c-0.9,1.635-2.66,1.27-3.02-0.359c-0.362-1.628-0.569-5.995-0.569-5.995l-2.093-1.946
				c0,0-0.103,2.817,0.465,5.761c0.523,2.717,0.208,3.718,0.027,5.345c-0.181,1.63-0.672,5.312-0.672,5.312s3.174,5.475,3.716,6.742
				c0.543,1.266,1.654,2.481,0.388,3.385c-1.265,0.904-3.46,0.284-4.182-1.344c-0.695-1.564-3.361-5.047-3.746-6.204
				c-0.362-1.085-0.549-3.059-0.389-4.366c0.157-1.266-0.207-3.132-0.207-3.132s-0.955,0.706-2.04,1.791
				c-1.084,1.085-2.736,1.883-3.098,3.15c-0.362,1.266-0.363,8.347-0.363,8.347s-0.984,1.24-1.706,1.24
				c-0.724,0-2.478-0.444-2.297-2.434c0.181-1.988,0.084-8.914,0.446-9.819c0.362-0.903,2.512-3.066,3.647-3.905
				c1.005-0.743,1.649-1.47,1.468-4.952c-0.121-2.355-0.034-4.372-0.034-4.372s-1.087,1.371-2.352,2.455
				c-1.266,1.085-1.757,1.447-3.024,2.353c-1.265,0.903-1.78,1.704-3.046,0.438c-1.265-1.266-0.213-1.92,0.801-3.099
				c1.111-1.292,2.681-3.45,5.296-5.711c2.453-2.121,2.712-3.746,3.615-4.831c0.905-1.085,4.469-0.674,4.469-0.674
				s2.222-0.21,3.125,0.695c0.904,0.904,3.925,4.552,4.829,5.999c0.904,1.446,0.596,7.079,0.596,7.079S77.274,82.66,76.817,83.492
				L76.817,83.492z M66.692,65.039c-2.497,0-4.522-2.024-4.522-4.522c0-2.497,2.025-4.522,4.522-4.522
				c2.499,0,4.522,2.025,4.522,4.522C71.214,63.015,69.191,65.039,66.692,65.039L66.692,65.039z"/>
		</defs>
		<use xlink:href="#SVGID_12_"  overflow="visible" fill-rule="evenodd" clip-rule="evenodd"/>
		<clipPath id="SVGID_13_">
			<use xlink:href="#SVGID_12_"  overflow="visible"/>
		</clipPath>
	</g>
	<linearGradient id="SVGID_14_" gradientUnits="userSpaceOnUse" x1="91.444" y1="145.3096" x2="18.9822" y2="41.8234">
		<stop  offset="0" style="stop-color:#000000;stop-opacity:0"/>
		<stop  offset="1" style="stop-color:#FFFFFF;stop-opacity:0.25"/>
	</linearGradient>
	<path fill-rule="evenodd" clip-rule="evenodd" fill="url(#SVGID_14_)" d="M68.079,10.929c8.814,15.267,50.344,86.96,60.048,103.765
		c1.33,2.304-0.734,6.7-3.317,6.7c-18.949,0-99.899,0-118.152,0c-4.317,0-5.267-2.882-3.036-6.749
		C13.33,97.833,54.426,26.689,63.51,10.955C64.49,9.257,67.001,9.065,68.079,10.929L68.079,10.929z"/>
</g>
<g id="normal">
	<g>
		<defs>
			<path id="SVGID_15_" d="M69.079,11.929c8.814,15.267,50.344,86.96,60.048,103.765c1.33,2.304-0.734,6.7-3.317,6.7
				c-18.949,0-99.899,0-118.152,0c-4.317,0-5.267-2.882-3.036-6.749C14.33,98.833,55.426,27.689,64.51,11.955
				C65.49,10.257,68.001,10.065,69.079,11.929L69.079,11.929z"/>
		</defs>
		<defs>
			<path id="SVGID_16_" d="M68.079,10.929c8.814,15.267,50.344,86.96,60.048,103.765c1.33,2.304-0.734,6.7-3.317,6.7
				c-18.949,0-99.899,0-118.152,0c-4.317,0-5.267-2.882-3.036-6.749C13.33,97.833,54.426,26.689,63.51,10.955
				C64.49,9.257,67.001,9.065,68.079,10.929L68.079,10.929z"/>
		</defs>
		<linearGradient id="SVGID_17_" gradientUnits="userSpaceOnUse" x1="3.4569" y1="66.5" x2="129.5431" y2="66.5">
			<stop  offset="0" style="stop-color:#000000;stop-opacity:0.6"/>
			<stop  offset="1" style="stop-color:#000000;stop-opacity:0.6"/>
		</linearGradient>
		<use xlink:href="#SVGID_15_"  overflow="visible" fill-rule="evenodd" clip-rule="evenodd" fill="url(#SVGID_17_)"/>
		<use xlink:href="#SVGID_16_"  overflow="visible" fill="#FA9F37"/>
		<clipPath id="SVGID_18_">
			<use xlink:href="#SVGID_15_"  overflow="visible"/>
		</clipPath>
		<clipPath id="SVGID_19_" clip-path="url(#SVGID_18_)">
			<use xlink:href="#SVGID_16_"  overflow="visible"/>
		</clipPath>
	</g>
	<g>
		<defs>
			<path id="SVGID_20_" d="M67.311,16.121c8.417,14.578,48.069,83.029,57.333,99.072c0.934,1.618-0.111,3.347-1.751,3.347
				c-18.091,0-97.413,0-114.842,0c-1.738,0-2.384-1.748-1.434-3.393c9.268-16.053,48.505-83.978,57.178-99.001
				C64.729,14.525,66.283,14.341,67.311,16.121L67.311,16.121z"/>
		</defs>
		<use xlink:href="#SVGID_20_"  overflow="visible" fill-rule="evenodd" clip-rule="evenodd"/>
		<clipPath id="SVGID_21_">
			<use xlink:href="#SVGID_20_"  overflow="visible"/>
		</clipPath>
	</g>
	<g>
		<defs>
			<path id="SVGID_22_" d="M66.807,37.073c5.941,10.29,33.928,57.902,40.466,69.225c0.659,1.142-0.079,2.361-1.236,2.361
				c-12.769,0-68.754,0-81.055,0c-1.228,0-1.683-1.232-1.013-2.394c6.541-11.33,34.235-58.572,40.356-69.175
				C64.986,35.945,66.081,35.818,66.807,37.073L66.807,37.073z"/>
		</defs>
		<use xlink:href="#SVGID_22_"  overflow="visible" fill="#FA9F37"/>
		<clipPath id="SVGID_23_">
			<use xlink:href="#SVGID_22_"  overflow="visible"/>
		</clipPath>
	</g>
	<g>
		<defs>
			<path id="SVGID_24_" d="M94.75,106.597l-9.576-16.995h5.147l9.576,16.995H94.75L94.75,106.597z M81.33,106.597l-6.79-12.052
				l-0.615-1.253l-0.956-3.689h3.933l9.578,16.995H81.33L81.33,106.597z M54.903,106.597l-9.576-16.995h5.147l9.578,16.995H54.903
				L54.903,106.597z M42.205,106.597l-5.84-11.259l2.544-4.414l8.444,15.673H42.205L42.205,106.597z M62.472,95.407
				c0.082-0.329,1.421-2.565,2.316-4.036l8.58,15.226H68.22L62.35,96.179C62.405,95.782,62.449,95.499,62.472,95.407L62.472,95.407z
				"/>
		</defs>
		<use xlink:href="#SVGID_24_"  overflow="visible" fill-rule="evenodd" clip-rule="evenodd"/>
		<clipPath id="SVGID_25_">
			<use xlink:href="#SVGID_24_"  overflow="visible"/>
		</clipPath>
	</g>
	<g>
		<defs>
			<path id="SVGID_26_" d="M76.817,83.492c-0.9,1.635-2.66,1.27-3.02-0.359c-0.362-1.628-0.569-5.995-0.569-5.995l-2.093-1.946
				c0,0-0.103,2.817,0.465,5.761c0.523,2.717,0.208,3.718,0.027,5.345c-0.181,1.63-0.672,5.312-0.672,5.312s3.174,5.475,3.716,6.742
				c0.543,1.266,1.654,2.481,0.388,3.385c-1.265,0.904-3.46,0.284-4.182-1.344c-0.695-1.564-3.361-5.047-3.746-6.204
				c-0.362-1.085-0.549-3.059-0.389-4.366c0.157-1.266-0.207-3.132-0.207-3.132s-0.955,0.706-2.04,1.791
				c-1.084,1.085-2.736,1.883-3.098,3.15c-0.362,1.266-0.363,8.347-0.363,8.347s-0.984,1.24-1.706,1.24
				c-0.724,0-2.478-0.444-2.297-2.434c0.181-1.988,0.084-8.914,0.446-9.819c0.362-0.903,2.512-3.066,3.647-3.905
				c1.005-0.743,1.649-1.47,1.468-4.952c-0.121-2.355-0.034-4.372-0.034-4.372s-1.087,1.371-2.352,2.455
				c-1.266,1.085-1.757,1.447-3.024,2.353c-1.265,0.903-1.78,1.704-3.046,0.438c-1.265-1.266-0.213-1.92,0.801-3.099
				c1.111-1.292,2.681-3.45,5.296-5.711c2.453-2.121,2.712-3.746,3.615-4.831c0.905-1.085,4.469-0.674,4.469-0.674
				s2.222-0.21,3.125,0.695c0.904,0.904,3.925,4.552,4.829,5.999c0.904,1.446,0.596,7.079,0.596,7.079S77.274,82.66,76.817,83.492
				L76.817,83.492z M66.692,65.039c-2.497,0-4.522-2.024-4.522-4.522c0-2.497,2.025-4.522,4.522-4.522
				c2.499,0,4.522,2.025,4.522,4.522C71.214,63.015,69.191,65.039,66.692,65.039L66.692,65.039z"/>
		</defs>
		<use xlink:href="#SVGID_26_"  overflow="visible" fill-rule="evenodd" clip-rule="evenodd"/>
		<clipPath id="SVGID_27_">
			<use xlink:href="#SVGID_26_"  overflow="visible"/>
		</clipPath>
	</g>
	<linearGradient id="SVGID_28_" gradientUnits="userSpaceOnUse" x1="91.444" y1="145.3096" x2="18.9822" y2="41.8234">
		<stop  offset="0" style="stop-color:#000000;stop-opacity:0"/>
		<stop  offset="1" style="stop-color:#FFFFFF;stop-opacity:0.25"/>
	</linearGradient>
	<path fill-rule="evenodd" clip-rule="evenodd" fill="url(#SVGID_28_)" d="M68.079,10.929c8.814,15.267,50.344,86.96,60.048,103.765
		c1.33,2.304-0.734,6.7-3.317,6.7c-18.949,0-99.899,0-118.152,0c-4.317,0-5.267-2.882-3.036-6.749
		C13.33,97.833,54.426,26.689,63.51,10.955C64.49,9.257,67.001,9.065,68.079,10.929L68.079,10.929z"/>
</g>
</svg>
