<?xml version="1.0" encoding="utf-8"?>
<!-- Generator: Adobe Illustrator 17.0.1, SVG Export Plug-In . SVG Version: 6.00 Build 0)  -->
<!DOCTYPE svg PUBLIC "-//W3C//DTD SVG 1.1//EN" "http://www.w3.org/Graphics/SVG/1.1/DTD/svg11.dtd">
<svg version="1.1" xmlns="http://www.w3.org/2000/svg" xmlns:xlink="http://www.w3.org/1999/xlink" x="0px" y="0px" width="132px"
	 height="132px" viewBox="0 0 132 132" enable-background="new 0 0 132 132" xml:space="preserve">
<g id="disabled">
	<g>
		<defs>
			<path id="SVGID_1_" d="M69.079,121.071c8.814-15.267,50.344-86.96,60.048-103.767c1.33-2.302-0.734-6.699-3.317-6.699
				c-18.949,0-99.899,0-118.152,0c-4.317,0-5.267,2.882-3.036,6.749c9.707,16.813,50.803,87.957,59.887,103.691
				C65.49,122.743,68.001,122.935,69.079,121.071L69.079,121.071z"/>
		</defs>
		<defs>
			<path id="SVGID_2_" d="M68.079,120.071c8.814-15.267,50.344-86.96,60.048-103.767c1.33-2.302-0.734-6.699-3.317-6.699
				c-18.949,0-99.899,0-118.152,0c-4.317,0-5.267,2.882-3.036,6.749c9.707,16.813,50.803,87.957,59.887,103.691
				C64.49,121.743,67.001,121.935,68.079,120.071L68.079,120.071z"/>
		</defs>
		<linearGradient id="SVGID_3_" gradientUnits="userSpaceOnUse" x1="3.4569" y1="66.5" x2="129.5431" y2="66.5">
			<stop  offset="0" style="stop-color:#000000;stop-opacity:0.6"/>
			<stop  offset="1" style="stop-color:#000000;stop-opacity:0.6"/>
		</linearGradient>
		<use xlink:href="#SVGID_1_"  overflow="visible" fill-rule="evenodd" clip-rule="evenodd" fill="url(#SVGID_3_)"/>
		<use xlink:href="#SVGID_2_"  overflow="visible" fill-rule="evenodd" clip-rule="evenodd" fill="#FFFFFF"/>
		<clipPath id="SVGID_4_">
			<use xlink:href="#SVGID_1_"  overflow="visible"/>
		</clipPath>
		<clipPath id="SVGID_5_" clip-path="url(#SVGID_4_)">
			<use xlink:href="#SVGID_2_"  overflow="visible"/>
		</clipPath>
	</g>
	<g>
		<defs>
			<path id="SVGID_6_" d="M65.242,119.045l-30.35-52.55L5.355,15.354c-0.782-1.356-0.898-2.205-0.898-2.592
				c0-0.509,0.181-0.653,0.28-0.729c0.163-0.129,0.68-0.428,1.923-0.428H124.81c0.606,0,1.732,1.533,1.732,2.983
				c0,0.297-0.052,0.551-0.147,0.717c-4.907,8.497-18.067,31.23-30.794,53.214c-12.805,22.116-24.898,43.004-29.254,50.551
				c-0.126,0.218-0.292,0.325-0.507,0.325C65.649,119.395,65.39,119.303,65.242,119.045"/>
		</defs>
		<use xlink:href="#SVGID_6_"  overflow="visible" fill="#585858"/>
		<clipPath id="SVGID_7_">
			<use xlink:href="#SVGID_6_"  overflow="visible"/>
		</clipPath>
	</g>
	<g>
		<defs>
			<path id="SVGID_8_" d="M67.311,114.878c8.417-14.577,48.069-83.027,57.333-99.072c0.934-1.618-0.111-3.345-1.751-3.345
				c-18.091,0-97.413,0-114.842,0c-1.738,0-2.384,1.746-1.434,3.392c9.268,16.053,48.505,83.978,57.178,99.001
				C64.729,116.476,66.283,116.66,67.311,114.878L67.311,114.878z"/>
		</defs>
		<use xlink:href="#SVGID_8_"  overflow="visible" fill="#585858"/>
		<clipPath id="SVGID_9_">
			<use xlink:href="#SVGID_8_"  overflow="visible"/>
		</clipPath>
	</g>
	<g>
		<defs>
			<path id="SVGID_10_" d="M66.677,90.082c5.301-9.179,30.274-52.291,36.108-62.395c0.588-1.021-0.069-2.108-1.102-2.108
				c-11.395,0-61.353,0-72.33,0c-1.095,0-1.502,1.1-0.904,2.137c5.837,10.109,30.549,52.891,36.011,62.351
				C65.051,91.089,66.03,91.207,66.677,90.082L66.677,90.082z"/>
		</defs>
		<use xlink:href="#SVGID_10_"  overflow="visible" fill-rule="evenodd" clip-rule="evenodd" fill="#FFFFFF"/>
		<clipPath id="SVGID_11_">
			<use xlink:href="#SVGID_10_"  overflow="visible"/>
		</clipPath>
	</g>
	<g>
		<defs>
			<path id="SVGID_12_" d="M57.54,29.338l-2.087,1.654c1.391,1.809,2.586,3.671,3.586,5.587l2.033-1.589
				C60.369,33.437,59.191,31.554,57.54,29.338L57.54,29.338L57.54,29.338z M78.468,54.963h-8.189V42.6h7.586v-2.81h-7.586V29.771
				h-2.462v25.191h-5.874v2.825h16.525V54.963L78.468,54.963z M62.639,49.663c-0.875,0.846-1.772,1.665-2.691,2.457V38.217h-5.432
				v2.857h2.93v12.765c0,0.342-0.089,0.625-0.267,0.851l1.177,2.311c1.462-1.018,3.242-2.607,5.338-4.768L62.639,49.663
				L62.639,49.663z"/>
		</defs>
		<use xlink:href="#SVGID_12_"  overflow="visible" fill-rule="evenodd" clip-rule="evenodd"/>
		<clipPath id="SVGID_13_">
			<use xlink:href="#SVGID_12_"  overflow="visible"/>
		</clipPath>
		
			<use xlink:href="#SVGID_12_"  overflow="visible" fill-rule="evenodd" clip-rule="evenodd" fill="none" stroke="#000000" stroke-width="0.5" stroke-miterlimit="10"/>
	</g>
	<linearGradient id="SVGID_14_" gradientUnits="userSpaceOnUse" x1="112.1791" y1="89.5111" x2="39.2808" y2="-14.5984">
		<stop  offset="0" style="stop-color:#000000;stop-opacity:0"/>
		<stop  offset="1" style="stop-color:#FFFFFF;stop-opacity:0.25"/>
	</linearGradient>
	<path fill-rule="evenodd" clip-rule="evenodd" fill="url(#SVGID_14_)" d="M68.079,120.071
		c8.814-15.267,50.344-86.96,60.048-103.767c1.33-2.302-0.734-6.699-3.317-6.699c-18.949,0-99.899,0-118.152,0
		c-4.317,0-5.267,2.882-3.036,6.749c9.707,16.813,50.803,87.957,59.887,103.691C64.49,121.743,67.001,121.935,68.079,120.071
		L68.079,120.071z"/>
</g>
<g id="normal">
	<g>
		<defs>
			<path id="SVGID_15_" d="M69.079,121.071c8.814-15.267,50.344-86.96,60.048-103.767c1.33-2.302-0.734-6.699-3.317-6.699
				c-18.949,0-99.899,0-118.152,0c-4.317,0-5.267,2.882-3.036,6.749c9.707,16.813,50.803,87.957,59.887,103.691
				C65.49,122.743,68.001,122.935,69.079,121.071L69.079,121.071z"/>
		</defs>
		<defs>
			<path id="SVGID_16_" d="M68.079,120.071c8.814-15.267,50.344-86.96,60.048-103.767c1.33-2.302-0.734-6.699-3.317-6.699
				c-18.949,0-99.899,0-118.152,0c-4.317,0-5.267,2.882-3.036,6.749c9.707,16.813,50.803,87.957,59.887,103.691
				C64.49,121.743,67.001,121.935,68.079,120.071L68.079,120.071z"/>
		</defs>
		<linearGradient id="SVGID_17_" gradientUnits="userSpaceOnUse" x1="3.4569" y1="66.5" x2="129.5431" y2="66.5">
			<stop  offset="0" style="stop-color:#000000;stop-opacity:0.6"/>
			<stop  offset="1" style="stop-color:#000000;stop-opacity:0.6"/>
		</linearGradient>
		<use xlink:href="#SVGID_15_"  overflow="visible" fill-rule="evenodd" clip-rule="evenodd" fill="url(#SVGID_17_)"/>
		<use xlink:href="#SVGID_16_"  overflow="visible" fill-rule="evenodd" clip-rule="evenodd" fill="#FFFFFF"/>
		<clipPath id="SVGID_18_">
			<use xlink:href="#SVGID_15_"  overflow="visible"/>
		</clipPath>
		<clipPath id="SVGID_19_" clip-path="url(#SVGID_18_)">
			<use xlink:href="#SVGID_16_"  overflow="visible"/>
		</clipPath>
	</g>
	<g>
		<defs>
			<path id="SVGID_20_" d="M65.242,119.045l-30.35-52.55L5.355,15.354c-0.782-1.356-0.898-2.205-0.898-2.592
				c0-0.509,0.181-0.653,0.28-0.729c0.163-0.129,0.68-0.428,1.923-0.428H124.81c0.606,0,1.732,1.533,1.732,2.983
				c0,0.297-0.052,0.551-0.147,0.717c-4.907,8.497-18.067,31.23-30.794,53.214c-12.805,22.116-24.898,43.004-29.254,50.551
				c-0.126,0.218-0.292,0.325-0.507,0.325C65.649,119.395,65.39,119.303,65.242,119.045"/>
		</defs>
		<use xlink:href="#SVGID_20_"  overflow="visible" fill="#DA2024"/>
		<clipPath id="SVGID_21_">
			<use xlink:href="#SVGID_20_"  overflow="visible"/>
		</clipPath>
	</g>
	<g>
		<defs>
			<path id="SVGID_22_" d="M67.311,114.878c8.417-14.577,48.069-83.027,57.333-99.072c0.934-1.618-0.111-3.345-1.751-3.345
				c-18.091,0-97.413,0-114.842,0c-1.738,0-2.384,1.746-1.434,3.392c9.268,16.053,48.505,83.978,57.178,99.001
				C64.729,116.476,66.283,116.66,67.311,114.878L67.311,114.878z"/>
		</defs>
		<use xlink:href="#SVGID_22_"  overflow="visible" fill="#DA2024"/>
		<clipPath id="SVGID_23_">
			<use xlink:href="#SVGID_22_"  overflow="visible"/>
		</clipPath>
	</g>
	<g>
		<defs>
			<path id="SVGID_24_" d="M66.677,90.082c5.301-9.179,30.274-52.291,36.108-62.395c0.588-1.021-0.069-2.108-1.102-2.108
				c-11.395,0-61.353,0-72.33,0c-1.095,0-1.502,1.1-0.904,2.137c5.837,10.109,30.549,52.891,36.011,62.351
				C65.051,91.089,66.03,91.207,66.677,90.082L66.677,90.082z"/>
		</defs>
		<use xlink:href="#SVGID_24_"  overflow="visible" fill-rule="evenodd" clip-rule="evenodd" fill="#FFFFFF"/>
		<clipPath id="SVGID_25_">
			<use xlink:href="#SVGID_24_"  overflow="visible"/>
		</clipPath>
	</g>
	<g>
		<defs>
			<path id="SVGID_26_" d="M57.54,29.338l-2.087,1.654c1.391,1.809,2.586,3.671,3.586,5.587l2.033-1.589
				C60.369,33.437,59.191,31.554,57.54,29.338L57.54,29.338L57.54,29.338z M78.468,54.963h-8.189V42.6h7.586v-2.81h-7.586V29.771
				h-2.462v25.191h-5.874v2.825h16.525V54.963L78.468,54.963z M62.639,49.663c-0.875,0.846-1.772,1.665-2.691,2.457V38.217h-5.432
				v2.857h2.93v12.765c0,0.342-0.089,0.625-0.267,0.851l1.177,2.311c1.462-1.018,3.242-2.607,5.338-4.768L62.639,49.663
				L62.639,49.663z"/>
		</defs>
		<use xlink:href="#SVGID_26_"  overflow="visible" fill-rule="evenodd" clip-rule="evenodd"/>
		<clipPath id="SVGID_27_">
			<use xlink:href="#SVGID_26_"  overflow="visible"/>
		</clipPath>
		
			<use xlink:href="#SVGID_26_"  overflow="visible" fill-rule="evenodd" clip-rule="evenodd" fill="none" stroke="#000000" stroke-width="0.5" stroke-miterlimit="10"/>
	</g>
	<linearGradient id="SVGID_28_" gradientUnits="userSpaceOnUse" x1="112.1791" y1="89.5111" x2="39.2808" y2="-14.5984">
		<stop  offset="0" style="stop-color:#000000;stop-opacity:0"/>
		<stop  offset="1" style="stop-color:#FFFFFF;stop-opacity:0.25"/>
	</linearGradient>
	<path fill-rule="evenodd" clip-rule="evenodd" fill="url(#SVGID_28_)" d="M68.079,120.071
		c8.814-15.267,50.344-86.96,60.048-103.767c1.33-2.302-0.734-6.699-3.317-6.699c-18.949,0-99.899,0-118.152,0
		c-4.317,0-5.267,2.882-3.036,6.749c9.707,16.813,50.803,87.957,59.887,103.691C64.49,121.743,67.001,121.935,68.079,120.071
		L68.079,120.071z"/>
</g>
</svg>
