<?xml version="1.0" encoding="utf-8"?>
<!-- Generator: Adobe Illustrator 17.0.1, SVG Export Plug-In . SVG Version: 6.00 Build 0)  -->
<!DOCTYPE svg PUBLIC "-//W3C//DTD SVG 1.1//EN" "http://www.w3.org/Graphics/SVG/1.1/DTD/svg11.dtd">
<svg version="1.1" xmlns="http://www.w3.org/2000/svg" xmlns:xlink="http://www.w3.org/1999/xlink" x="0px" y="0px" width="132px"
	 height="132px" viewBox="0 0 132 132" enable-background="new 0 0 132 132" xml:space="preserve">
<g id="disabled">
	<g>
		<defs>
			<path id="SVGID_1_" d="M69.079,11.929c8.814,15.267,50.344,86.96,60.048,103.767c1.33,2.302-0.734,6.699-3.317,6.699
				c-18.949,0-99.899,0-118.152,0c-4.317,0-5.267-2.882-3.036-6.749C14.33,98.833,55.426,27.689,64.51,11.954
				C65.49,10.257,68.001,10.065,69.079,11.929L69.079,11.929z"/>
		</defs>
		<defs>
			<path id="SVGID_2_" d="M68.079,10.929c8.814,15.267,50.344,86.96,60.048,103.767c1.33,2.302-0.734,6.699-3.317,6.699
				c-18.949,0-99.899,0-118.152,0c-4.317,0-5.267-2.882-3.036-6.749C13.33,97.833,54.426,26.689,63.51,10.954
				C64.49,9.257,67.001,9.065,68.079,10.929L68.079,10.929z"/>
		</defs>
		<linearGradient id="SVGID_3_" gradientUnits="userSpaceOnUse" x1="3.4569" y1="66.5" x2="129.5431" y2="66.5">
			<stop  offset="0" style="stop-color:#000000;stop-opacity:0.6"/>
			<stop  offset="1" style="stop-color:#000000;stop-opacity:0.6"/>
		</linearGradient>
		<use xlink:href="#SVGID_1_"  overflow="visible" fill-rule="evenodd" clip-rule="evenodd" fill="url(#SVGID_3_)"/>
		<use xlink:href="#SVGID_2_"  overflow="visible" fill="#AFAFAF"/>
		<clipPath id="SVGID_4_">
			<use xlink:href="#SVGID_1_"  overflow="visible"/>
		</clipPath>
		<clipPath id="SVGID_5_" clip-path="url(#SVGID_4_)">
			<use xlink:href="#SVGID_2_"  overflow="visible"/>
		</clipPath>
	</g>
	<g>
		<defs>
			<path id="SVGID_6_" d="M67.311,16.121c8.417,14.577,48.069,83.027,57.333,99.072c0.934,1.618-0.111,3.345-1.751,3.345
				c-18.091,0-97.413,0-114.842,0c-1.738,0-2.384-1.746-1.434-3.392c9.268-16.053,48.505-83.978,57.178-99.001
				C64.729,14.525,66.283,14.341,67.311,16.121L67.311,16.121z"/>
		</defs>
		<use xlink:href="#SVGID_6_"  overflow="visible" fill-rule="evenodd" clip-rule="evenodd"/>
		<clipPath id="SVGID_7_">
			<use xlink:href="#SVGID_6_"  overflow="visible"/>
		</clipPath>
	</g>
	<g>
		<defs>
			<path id="SVGID_8_" d="M66.807,37.074c5.941,10.289,33.928,57.743,40.466,69.069c0.659,1.14-0.079,2.36-1.236,2.36
				c-12.769,0-68.754,0-81.055,0c-1.228,0-1.683-1.232-1.013-2.395c6.541-11.329,34.235-58.414,40.356-69.017
				C64.986,35.947,66.081,35.816,66.807,37.074L66.807,37.074z"/>
		</defs>
		<use xlink:href="#SVGID_8_"  overflow="visible" fill="#AFAFAF"/>
		<clipPath id="SVGID_9_">
			<use xlink:href="#SVGID_8_"  overflow="visible"/>
		</clipPath>
	</g>
	<g>
		<defs>
			<path id="SVGID_10_" d="M72.125,84.534c-1.488,0.757-3.915,1.916-3.867,2.718c0.066,1.087,1.866,1.299,3.699,1.683
				c3.35,0.701,4.138,1.056,4.086,2.282c-0.086,2.006-2.478,3.61-2.478,3.61l-13.829,8.339l-0.113-0.223l-3.802-5.576
				c0,0,1.882-0.89,3.87-2.281c1.988-1.392,3.251-1.596,3.193-2.294c-0.094-1.102-1.366-0.917-3.473-1.425
				c-1.914-0.459-3.678-0.313-4.182-2.499c-0.36-1.57,0.518-2.546,4.112-3.867c1.861-0.682,3.561-1.061,3.51-2.289
				c-0.04-0.95-1.315-0.9-3.043-1.31c-2.959-0.706-4.224-0.801-4.385-2.384c-0.204-1.998,2.478-3.611,2.478-3.611l13.829-8.337
				l3.915,5.797c0,0-0.032,0.019-0.042,0.026l0.082,0.124c0,0-1.234,0.538-3.839,1.917c-2.145,1.137-3.749,1.395-3.747,2.51
				c0.003,1.328,2.237,0.943,4.172,1.405c2.778,0.664,3.873,0.74,3.872,2.19C76.142,82.698,74.871,83.134,72.125,84.534
				L72.125,84.534z"/>
		</defs>
		<use xlink:href="#SVGID_10_"  overflow="visible" fill-rule="evenodd" clip-rule="evenodd"/>
		<clipPath id="SVGID_11_">
			<use xlink:href="#SVGID_10_"  overflow="visible"/>
		</clipPath>
	</g>
	<linearGradient id="SVGID_12_" gradientUnits="userSpaceOnUse" x1="91.444" y1="145.3097" x2="18.9818" y2="41.8229">
		<stop  offset="0" style="stop-color:#000000;stop-opacity:0"/>
		<stop  offset="1" style="stop-color:#FFFFFF;stop-opacity:0.25"/>
	</linearGradient>
	<path fill-rule="evenodd" clip-rule="evenodd" fill="url(#SVGID_12_)" d="M68.079,10.929c8.814,15.267,50.344,86.96,60.048,103.767
		c1.33,2.302-0.734,6.699-3.317,6.699c-18.949,0-99.899,0-118.152,0c-4.317,0-5.267-2.882-3.036-6.749
		C13.33,97.833,54.426,26.689,63.51,10.954C64.49,9.257,67.001,9.065,68.079,10.929L68.079,10.929z"/>
</g>
<g id="normal">
	<g>
		<defs>
			<path id="SVGID_13_" d="M69.079,11.929c8.814,15.267,50.344,86.96,60.048,103.767c1.33,2.302-0.734,6.699-3.317,6.699
				c-18.949,0-99.899,0-118.152,0c-4.317,0-5.267-2.882-3.036-6.749C14.33,98.833,55.426,27.689,64.51,11.954
				C65.49,10.257,68.001,10.065,69.079,11.929L69.079,11.929z"/>
		</defs>
		<defs>
			<path id="SVGID_14_" d="M68.079,10.929c8.814,15.267,50.344,86.96,60.048,103.767c1.33,2.302-0.734,6.699-3.317,6.699
				c-18.949,0-99.899,0-118.152,0c-4.317,0-5.267-2.882-3.036-6.749C13.33,97.833,54.426,26.689,63.51,10.954
				C64.49,9.257,67.001,9.065,68.079,10.929L68.079,10.929z"/>
		</defs>
		<linearGradient id="SVGID_15_" gradientUnits="userSpaceOnUse" x1="3.4569" y1="66.5" x2="129.5431" y2="66.5">
			<stop  offset="0" style="stop-color:#000000;stop-opacity:0.6"/>
			<stop  offset="1" style="stop-color:#000000;stop-opacity:0.6"/>
		</linearGradient>
		<use xlink:href="#SVGID_13_"  overflow="visible" fill-rule="evenodd" clip-rule="evenodd" fill="url(#SVGID_15_)"/>
		<use xlink:href="#SVGID_14_"  overflow="visible" fill="#FA9F37"/>
		<clipPath id="SVGID_16_">
			<use xlink:href="#SVGID_13_"  overflow="visible"/>
		</clipPath>
		<clipPath id="SVGID_17_" clip-path="url(#SVGID_16_)">
			<use xlink:href="#SVGID_14_"  overflow="visible"/>
		</clipPath>
	</g>
	<g>
		<defs>
			<path id="SVGID_18_" d="M67.311,16.121c8.417,14.577,48.069,83.027,57.333,99.072c0.934,1.618-0.111,3.345-1.751,3.345
				c-18.091,0-97.413,0-114.842,0c-1.738,0-2.384-1.746-1.434-3.392c9.268-16.053,48.505-83.978,57.178-99.001
				C64.729,14.525,66.283,14.341,67.311,16.121L67.311,16.121z"/>
		</defs>
		<use xlink:href="#SVGID_18_"  overflow="visible" fill-rule="evenodd" clip-rule="evenodd"/>
		<clipPath id="SVGID_19_">
			<use xlink:href="#SVGID_18_"  overflow="visible"/>
		</clipPath>
	</g>
	<g>
		<defs>
			<path id="SVGID_20_" d="M66.807,37.074c5.941,10.289,33.928,57.743,40.466,69.069c0.659,1.14-0.079,2.36-1.236,2.36
				c-12.769,0-68.754,0-81.055,0c-1.228,0-1.683-1.232-1.013-2.395c6.541-11.329,34.235-58.414,40.356-69.017
				C64.986,35.947,66.081,35.816,66.807,37.074L66.807,37.074z"/>
		</defs>
		<use xlink:href="#SVGID_20_"  overflow="visible" fill="#FA9F37"/>
		<clipPath id="SVGID_21_">
			<use xlink:href="#SVGID_20_"  overflow="visible"/>
		</clipPath>
	</g>
	<g>
		<defs>
			<path id="SVGID_22_" d="M72.125,84.534c-1.488,0.757-3.915,1.916-3.867,2.718c0.066,1.087,1.866,1.299,3.699,1.683
				c3.35,0.701,4.138,1.056,4.086,2.282c-0.086,2.006-2.478,3.61-2.478,3.61l-13.829,8.339l-0.113-0.223l-3.802-5.576
				c0,0,1.882-0.89,3.87-2.281c1.988-1.392,3.251-1.596,3.193-2.294c-0.094-1.102-1.366-0.917-3.473-1.425
				c-1.914-0.459-3.678-0.313-4.182-2.499c-0.36-1.57,0.518-2.546,4.112-3.867c1.861-0.682,3.561-1.061,3.51-2.289
				c-0.04-0.95-1.315-0.9-3.043-1.31c-2.959-0.706-4.224-0.801-4.385-2.384c-0.204-1.998,2.478-3.611,2.478-3.611l13.829-8.337
				l3.915,5.797c0,0-0.032,0.019-0.042,0.026l0.082,0.124c0,0-1.234,0.538-3.839,1.917c-2.145,1.137-3.749,1.395-3.747,2.51
				c0.003,1.328,2.237,0.943,4.172,1.405c2.778,0.664,3.873,0.74,3.872,2.19C76.142,82.698,74.871,83.134,72.125,84.534
				L72.125,84.534z"/>
		</defs>
		<use xlink:href="#SVGID_22_"  overflow="visible" fill-rule="evenodd" clip-rule="evenodd"/>
		<clipPath id="SVGID_23_">
			<use xlink:href="#SVGID_22_"  overflow="visible"/>
		</clipPath>
	</g>
	<linearGradient id="SVGID_24_" gradientUnits="userSpaceOnUse" x1="91.444" y1="145.3097" x2="18.9818" y2="41.8229">
		<stop  offset="0" style="stop-color:#000000;stop-opacity:0"/>
		<stop  offset="1" style="stop-color:#FFFFFF;stop-opacity:0.25"/>
	</linearGradient>
	<path fill-rule="evenodd" clip-rule="evenodd" fill="url(#SVGID_24_)" d="M68.079,10.929c8.814,15.267,50.344,86.96,60.048,103.767
		c1.33,2.302-0.734,6.699-3.317,6.699c-18.949,0-99.899,0-118.152,0c-4.317,0-5.267-2.882-3.036-6.749
		C13.33,97.833,54.426,26.689,63.51,10.954C64.49,9.257,67.001,9.065,68.079,10.929L68.079,10.929z"/>
</g>
</svg>
