<?xml version="1.0" encoding="utf-8"?>
<!-- Generator: Adobe Illustrator 17.0.1, SVG Export Plug-In . SVG Version: 6.00 Build 0)  -->
<!DOCTYPE svg PUBLIC "-//W3C//DTD SVG 1.1//EN" "http://www.w3.org/Graphics/SVG/1.1/DTD/svg11.dtd">
<svg version="1.1" xmlns="http://www.w3.org/2000/svg" xmlns:xlink="http://www.w3.org/1999/xlink" x="0px" y="0px" width="132px"
	 height="132px" viewBox="0 0 132 132" enable-background="new 0 0 132 132" xml:space="preserve">
<g id="disabled">
	<g>
		<defs>
			<path id="SVGID_1_" d="M7,23h119c1.84,0,4.001,2.161,4.001,4.001v79c0,1.84-2.161,3.999-4.001,3.999H7
				C5.159,110,3,107.841,3,106.001v-79C3,25.161,5.159,23,7,23L7,23z"/>
		</defs>
		<defs>
			<path id="SVGID_2_" d="M6,22h119c1.84,0,4.001,2.161,4.001,4.001v79c0,1.84-2.161,3.999-4.001,3.999H6
				C4.159,109,2,106.841,2,105.001v-79C2,24.161,4.159,22,6,22L6,22z"/>
		</defs>
		<linearGradient id="SVGID_3_" gradientUnits="userSpaceOnUse" x1="2.9995" y1="66.5" x2="130.0005" y2="66.5">
			<stop  offset="0" style="stop-color:#000000;stop-opacity:0.6"/>
			<stop  offset="1" style="stop-color:#000000;stop-opacity:0.6"/>
		</linearGradient>
		<use xlink:href="#SVGID_1_"  overflow="visible" fill-rule="evenodd" clip-rule="evenodd" fill="url(#SVGID_3_)"/>
		<use xlink:href="#SVGID_2_"  overflow="visible" fill-rule="evenodd" clip-rule="evenodd"/>
		<clipPath id="SVGID_4_">
			<use xlink:href="#SVGID_1_"  overflow="visible"/>
		</clipPath>
		<clipPath id="SVGID_5_" clip-path="url(#SVGID_4_)">
			<use xlink:href="#SVGID_2_"  overflow="visible"/>
		</clipPath>
	</g>
	<g>
		<defs>
			<path id="SVGID_6_" d="M7,23.999h117c1.794,0,2.999,1.207,2.999,3.001V103c0,1.796-1.205,4.001-2.999,4.001H7
				c-1.794,0-2.999-2.205-2.999-4.001V27C4.001,25.206,5.206,23.999,7,23.999L7,23.999z"/>
		</defs>
		<use xlink:href="#SVGID_6_"  overflow="visible" fill-rule="evenodd" clip-rule="evenodd" fill="#FFFFFF"/>
		<clipPath id="SVGID_7_">
			<use xlink:href="#SVGID_6_"  overflow="visible"/>
		</clipPath>
	</g>
	<g>
		<defs>
			<polygon id="SVGID_8_" points="7,27 124,27 124,104.001 7,104.001 7,27 			"/>
		</defs>
		<use xlink:href="#SVGID_8_"  overflow="visible" fill="#5B5B5B"/>
		<clipPath id="SVGID_9_">
			<use xlink:href="#SVGID_8_"  overflow="visible"/>
		</clipPath>
	</g>
	<g>
		<defs>
			<path id="SVGID_10_" d="M29.791,51.969c-2.437,0-4.413-1.975-4.413-4.411c0-2.437,1.975-4.413,4.413-4.413
				c2.437,0,4.413,1.975,4.413,4.413C34.204,49.994,32.229,51.969,29.791,51.969L29.791,51.969z M38.567,67.956
				c-0.299,0.812-1.353,1.06-2.174,0.963c-1.134-0.134-5.115-2.463-5.115-2.463l0.019,4.876l-9.032,0.052l-0.016-7.737l-2.016,3.846
				c0,0-2.484,3.809-2.951,4.275c-0.467,0.467-1.647,0.439-1.906-0.079c-0.26-0.518-0.27-1.454-0.216-2.387
				c0.052-0.935,0.927-2.541,1.568-3.621c0.644-1.084,1.838-3.009,2.922-4.581c1.006-1.458,3.712-5.915,4.492-6.64
				c0.779-0.727,1.809-0.934,2.484-0.934s2.428-0.171,3.311,0.919c0.882,1.089,1.31,1.418,1.328,3.754
				c0.018,2.373-0.019,4.359-0.019,4.359s4.516,2.701,5.398,3.219C37.526,66.295,38.946,66.922,38.567,67.956L38.567,67.956z
				 M30.593,97.473c-1.489,0.069-2.087,0.115-2.657-0.924c-0.572-1.037-0.623-2.211-0.688-3.831
				c-0.052-1.297,0.078-13.204,0.078-13.204s0.142-0.913-0.544-0.917c-0.785-0.006-0.497,0.457-0.783,1.053
				c-0.271,0.562-4.771,7.72-5.238,8.501c-0.467,0.777-3.594,5.891-4.165,6.204c-0.57,0.31-1.129,0.389-1.752-0.287
				c-0.622-0.675-0.686-1.249-0.686-2.235c0-0.987,0.228-2.342,0.901-3.12c0.675-0.779,6.839-10.184,7.097-10.495
				c0.26-0.312,0.176-5.755,0.176-5.755l8.967,0.013v22.32C31.297,94.793,31.531,97.429,30.593,97.473L30.593,97.473z"/>
		</defs>
		<use xlink:href="#SVGID_10_"  overflow="visible" fill-rule="evenodd" clip-rule="evenodd" fill="#FFFFFF"/>
		<clipPath id="SVGID_11_">
			<use xlink:href="#SVGID_10_"  overflow="visible"/>
		</clipPath>
	</g>
	<g>
		<defs>
			<path id="SVGID_12_" d="M70.311,49.375l0.076,4.143c0,0,0.38,0.688-2.138,0.724c-2.516,0.034-1.862-1-1.862-1l-0.047-3.883
				c-2.681-0.024-6.133-0.061-7.015-0.071c-0.885,0.01-4.358,0.048-7.042,0.071l0.076,4.159c0,0,0.38,0.688-2.138,0.724
				c-2.516,0.034-1.862-1-1.862-1l-0.047-3.87c-1.279-0.057-2.116-0.501-2.054-3.558c0.076-3.799-0.108-2.318,1.336-4.912
				c0.959-1.722,2.281-4.556,2.888-5.619c0.607-1.064-0.643-1.121,7.675-1.001c0.141,0.002,0.267,0.003,0.401,0.005
				c0.208-0.003,0.342-0.005,0.342-0.005v0.01c0.15,0.003,0.287,0.005,0.426,0.007c0.139-0.002,0.276-0.003,0.426-0.007v-0.01
				c0,0,0.134,0.002,0.342,0.005c0.134-0.002,0.26-0.003,0.401-0.005c8.318-0.12,7.068-0.063,7.675,1.001
				c0.609,1.063,1.928,3.897,2.888,5.619c1.446,2.594,1.261,1.113,1.337,4.912C72.456,48.895,71.606,49.323,70.311,49.375
				L70.311,49.375z M47.946,44.751c0,1.161,0.94,2.101,2.1,2.101c1.16,0,2.101-0.94,2.101-2.101c0-1.16-0.942-2.1-2.101-2.1
				C48.886,42.651,47.946,43.591,47.946,44.751L47.946,44.751z M68.792,40.458c-0.157-0.315-1.129-2.728-1.412-3.418
				c-0.233-0.57-0.187-0.722-0.814-0.722c-0.585,0-6.39-0.027-7.179-0.031l0,0c0,0-0.016,0-0.019,0c-0.036,0-0.045,0-0.055,0
				c-0.003,0-0.019,0-0.019,0l0,0c-0.79,0.003-6.595,0.031-7.179,0.031c-0.627,0-0.581,0.152-0.814,0.722
				c-0.283,0.69-1.255,3.103-1.412,3.418c-0.157,0.313-0.47,0.783,0.032,0.814c0.472,0.031,8.441,0.003,9.373,0c0,0,0.036,0,0.094,0
				c0.932,0.003,8.901,0.031,9.373,0C69.262,41.241,68.949,40.771,68.792,40.458L68.792,40.458z M68.667,42.651
				c-1.16,0-2.1,0.94-2.1,2.1c0,1.161,0.94,2.101,2.1,2.101c1.16,0,2.1-0.94,2.1-2.101C70.766,43.591,69.826,42.651,68.667,42.651
				L68.667,42.651z"/>
		</defs>
		<use xlink:href="#SVGID_12_"  overflow="visible" fill-rule="evenodd" clip-rule="evenodd" fill="#FFFFFF"/>
		<clipPath id="SVGID_13_">
			<use xlink:href="#SVGID_12_"  overflow="visible"/>
		</clipPath>
	</g>
	<g>
		<defs>
			<path id="SVGID_14_" d="M72.855,76.156c-1.68,0-3.043-1.362-3.043-3.043c0-1.681,1.363-3.043,3.043-3.043
				c1.681,0,3.043,1.362,3.043,3.043C75.898,74.794,74.536,76.156,72.855,76.156L72.855,76.156z M83.838,89.5
				c-0.874,0.04-4.183,0.076-5.057,0.037c-0.959-0.04-1.483,0.092-2.092-0.866c-0.279-0.438-0.84-0.848-1.444-0.796
				c-1.043,0.086-1.139,0.357-1.221,1.668c-0.092,1.429,0,5.516,0,6.385c0,0.871-0.141,1.374-1.184,1.374s-1.383-0.203-1.426-1.51
				c-0.045-1.386,0.136-13.289,0.05-14.073c-0.087-0.782-0.677-0.925-1.113-0.491c-0.434,0.434-2.019,1.969-2.715,2.492
				c-0.696,0.522-2.022,2.056-2.775,1.05c-0.674-0.898-0.355-1.05,0.339-1.746c0.696-0.696,4.459-4.792,5.469-5.378
				c0.753-0.439,4.178-0.149,4.178-0.149s4.29-0.412,5.005,0.249c1.047,0.971,2.486,3.161,2.86,3.77
				c0.318,0.518,0.488,1.463-0.204,1.932c-0.549,0.371-1.034,0.147-1.707-0.749c-0.329-0.439-1.825-3.019-2.521-3.019
				c-0.254,0-1.35,0.162-1.176,1.182c0.283,1.662,0.851,4.214,1.15,5.22c0.281,0.951,0.079,1.376,1.644,1.376
				c1.565,0,3.045,0,3.741,0c0.695,0,1.092,0.254,1.216,0.869C85.013,89.095,84.665,89.463,83.838,89.5L83.838,89.5z"/>
		</defs>
		<use xlink:href="#SVGID_14_"  overflow="visible" fill-rule="evenodd" clip-rule="evenodd" fill="#FFFFFF"/>
		<clipPath id="SVGID_15_">
			<use xlink:href="#SVGID_14_"  overflow="visible"/>
		</clipPath>
	</g>
	<g>
		<defs>
			<path id="SVGID_16_" d="M53.159,90.742c1.861,0,3.369,1.509,3.369,3.371c0,1.859-1.509,3.368-3.369,3.368
				c-1.861,0-3.369-1.509-3.369-3.368C49.79,92.251,51.299,90.742,53.159,90.742L53.159,90.742z"/>
		</defs>
		<use xlink:href="#SVGID_16_"  overflow="visible" fill-rule="evenodd" clip-rule="evenodd" fill="#FFFFFF"/>
		<clipPath id="SVGID_17_">
			<use xlink:href="#SVGID_16_"  overflow="visible"/>
		</clipPath>
	</g>
	<g>
		<defs>
			<path id="SVGID_18_" d="M112.999,43v23H92.001V43l-5.834-0.011l10.636-7.257L96,36v-2.999h3.001v1.232l3.461-2.361l16.549,11.117
				L112.999,43L112.999,43z M111,41.001l-8.538-6.435L94,41.001v23h6v-9.999h4.999V64h6V41.001L111,41.001z M104,43h5v7h-5V43
				L104,43z M96,43H101v7H96V43L96,43z M95.654,76.107c4.277,2.851,18.347,12.894,18.347,12.894v2.999
				c0,0-16.074-10.587-20.509-13.756c-4.435-3.167-8.853-7.034-11.112-11.217C80.554,63.65,79,54.001,79,54.001H82
				c0,0,1.102,7.525,3.161,11.327C87.22,69.128,91.377,73.257,95.654,76.107L95.654,76.107z"/>
		</defs>
		<use xlink:href="#SVGID_18_"  overflow="visible" fill-rule="evenodd" clip-rule="evenodd" fill="#FFFFFF"/>
		<clipPath id="SVGID_19_">
			<use xlink:href="#SVGID_18_"  overflow="visible"/>
		</clipPath>
	</g>
	<linearGradient id="SVGID_20_" gradientUnits="userSpaceOnUse" x1="105.8293" y1="123.0971" x2="25.1699" y2="7.9035">
		<stop  offset="0" style="stop-color:#000000;stop-opacity:0"/>
		<stop  offset="1" style="stop-color:#FFFFFF;stop-opacity:0.25"/>
	</linearGradient>
	<path fill-rule="evenodd" clip-rule="evenodd" fill="url(#SVGID_20_)" d="M6,22h119c1.84,0,4.001,2.161,4.001,4.001v79
		c0,1.84-2.161,3.999-4.001,3.999H6C4.159,109,2,106.841,2,105.001v-79C2,24.161,4.159,22,6,22L6,22z"/>
</g>
<g id="normal">
	<g>
		<defs>
			<path id="SVGID_21_" d="M7,23h119c1.84,0,4.001,2.161,4.001,4.001v79c0,1.84-2.161,3.999-4.001,3.999H7
				C5.159,110,3,107.841,3,106.001v-79C3,25.161,5.159,23,7,23L7,23z"/>
		</defs>
		<defs>
			<path id="SVGID_22_" d="M6,22h119c1.84,0,4.001,2.161,4.001,4.001v79c0,1.84-2.161,3.999-4.001,3.999H6
				C4.159,109,2,106.841,2,105.001v-79C2,24.161,4.159,22,6,22L6,22z"/>
		</defs>
		<linearGradient id="SVGID_23_" gradientUnits="userSpaceOnUse" x1="2.9995" y1="66.5" x2="130.0005" y2="66.5">
			<stop  offset="0" style="stop-color:#000000;stop-opacity:0.6"/>
			<stop  offset="1" style="stop-color:#000000;stop-opacity:0.6"/>
		</linearGradient>
		<use xlink:href="#SVGID_21_"  overflow="visible" fill-rule="evenodd" clip-rule="evenodd" fill="url(#SVGID_23_)"/>
		<use xlink:href="#SVGID_22_"  overflow="visible" fill-rule="evenodd" clip-rule="evenodd"/>
		<clipPath id="SVGID_24_">
			<use xlink:href="#SVGID_21_"  overflow="visible"/>
		</clipPath>
		<clipPath id="SVGID_25_" clip-path="url(#SVGID_24_)">
			<use xlink:href="#SVGID_22_"  overflow="visible"/>
		</clipPath>
	</g>
	<g>
		<defs>
			<path id="SVGID_26_" d="M7,23.999h117c1.794,0,2.999,1.207,2.999,3.001V103c0,1.796-1.205,4.001-2.999,4.001H7
				c-1.794,0-2.999-2.205-2.999-4.001V27C4.001,25.206,5.206,23.999,7,23.999L7,23.999z"/>
		</defs>
		<use xlink:href="#SVGID_26_"  overflow="visible" fill-rule="evenodd" clip-rule="evenodd" fill="#FFFFFF"/>
		<clipPath id="SVGID_27_">
			<use xlink:href="#SVGID_26_"  overflow="visible"/>
		</clipPath>
	</g>
	<g>
		<defs>
			<polygon id="SVGID_28_" points="7,27 124,27 124,104.001 7,104.001 7,27 			"/>
		</defs>
		<use xlink:href="#SVGID_28_"  overflow="visible" fill="#0078BB"/>
		<clipPath id="SVGID_29_">
			<use xlink:href="#SVGID_28_"  overflow="visible"/>
		</clipPath>
	</g>
	<g>
		<defs>
			<path id="SVGID_30_" d="M29.791,51.969c-2.437,0-4.413-1.975-4.413-4.411c0-2.437,1.975-4.413,4.413-4.413
				c2.437,0,4.413,1.975,4.413,4.413C34.204,49.994,32.229,51.969,29.791,51.969L29.791,51.969z M38.567,67.956
				c-0.299,0.812-1.353,1.06-2.174,0.963c-1.134-0.134-5.115-2.463-5.115-2.463l0.019,4.876l-9.032,0.052l-0.016-7.737l-2.016,3.846
				c0,0-2.484,3.809-2.951,4.275c-0.467,0.467-1.647,0.439-1.906-0.079c-0.26-0.518-0.27-1.454-0.216-2.387
				c0.052-0.935,0.927-2.541,1.568-3.621c0.644-1.084,1.838-3.009,2.922-4.581c1.006-1.458,3.712-5.915,4.492-6.64
				c0.779-0.727,1.809-0.934,2.484-0.934s2.428-0.171,3.311,0.919c0.882,1.089,1.31,1.418,1.328,3.754
				c0.018,2.373-0.019,4.359-0.019,4.359s4.516,2.701,5.398,3.219C37.526,66.295,38.946,66.922,38.567,67.956L38.567,67.956z
				 M30.593,97.473c-1.489,0.069-2.087,0.115-2.657-0.924c-0.572-1.037-0.623-2.211-0.688-3.831
				c-0.052-1.297,0.078-13.204,0.078-13.204s0.142-0.913-0.544-0.917c-0.785-0.006-0.497,0.457-0.783,1.053
				c-0.271,0.562-4.771,7.72-5.238,8.501c-0.467,0.777-3.594,5.891-4.165,6.204c-0.57,0.31-1.129,0.389-1.752-0.287
				c-0.622-0.675-0.686-1.249-0.686-2.235c0-0.987,0.228-2.342,0.901-3.12c0.675-0.779,6.839-10.184,7.097-10.495
				c0.26-0.312,0.176-5.755,0.176-5.755l8.967,0.013v22.32C31.297,94.793,31.531,97.429,30.593,97.473L30.593,97.473z"/>
		</defs>
		<use xlink:href="#SVGID_30_"  overflow="visible" fill-rule="evenodd" clip-rule="evenodd" fill="#FFFFFF"/>
		<clipPath id="SVGID_31_">
			<use xlink:href="#SVGID_30_"  overflow="visible"/>
		</clipPath>
	</g>
	<g>
		<defs>
			<path id="SVGID_32_" d="M70.311,49.375l0.076,4.143c0,0,0.38,0.688-2.138,0.724c-2.516,0.034-1.862-1-1.862-1l-0.047-3.883
				c-2.681-0.024-6.133-0.061-7.015-0.071c-0.885,0.01-4.358,0.048-7.042,0.071l0.076,4.159c0,0,0.38,0.688-2.138,0.724
				c-2.516,0.034-1.862-1-1.862-1l-0.047-3.87c-1.279-0.057-2.116-0.501-2.054-3.558c0.076-3.799-0.108-2.318,1.336-4.912
				c0.959-1.722,2.281-4.556,2.888-5.619c0.607-1.064-0.643-1.121,7.675-1.001c0.141,0.002,0.267,0.003,0.401,0.005
				c0.208-0.003,0.342-0.005,0.342-0.005v0.01c0.15,0.003,0.287,0.005,0.426,0.007c0.139-0.002,0.276-0.003,0.426-0.007v-0.01
				c0,0,0.134,0.002,0.342,0.005c0.134-0.002,0.26-0.003,0.401-0.005c8.318-0.12,7.068-0.063,7.675,1.001
				c0.609,1.063,1.928,3.897,2.888,5.619c1.446,2.594,1.261,1.113,1.337,4.912C72.456,48.895,71.606,49.323,70.311,49.375
				L70.311,49.375z M47.946,44.751c0,1.161,0.94,2.101,2.1,2.101c1.16,0,2.101-0.94,2.101-2.101c0-1.16-0.942-2.1-2.101-2.1
				C48.886,42.651,47.946,43.591,47.946,44.751L47.946,44.751z M68.792,40.458c-0.157-0.315-1.129-2.728-1.412-3.418
				c-0.233-0.57-0.187-0.722-0.814-0.722c-0.585,0-6.39-0.027-7.179-0.031l0,0c0,0-0.016,0-0.019,0c-0.036,0-0.045,0-0.055,0
				c-0.003,0-0.019,0-0.019,0l0,0c-0.79,0.003-6.595,0.031-7.179,0.031c-0.627,0-0.581,0.152-0.814,0.722
				c-0.283,0.69-1.255,3.103-1.412,3.418c-0.157,0.313-0.47,0.783,0.032,0.814c0.472,0.031,8.441,0.003,9.373,0c0,0,0.036,0,0.094,0
				c0.932,0.003,8.901,0.031,9.373,0C69.262,41.241,68.949,40.771,68.792,40.458L68.792,40.458z M68.667,42.651
				c-1.16,0-2.1,0.94-2.1,2.1c0,1.161,0.94,2.101,2.1,2.101c1.16,0,2.1-0.94,2.1-2.101C70.766,43.591,69.826,42.651,68.667,42.651
				L68.667,42.651z"/>
		</defs>
		<use xlink:href="#SVGID_32_"  overflow="visible" fill-rule="evenodd" clip-rule="evenodd" fill="#FFFFFF"/>
		<clipPath id="SVGID_33_">
			<use xlink:href="#SVGID_32_"  overflow="visible"/>
		</clipPath>
	</g>
	<g>
		<defs>
			<path id="SVGID_34_" d="M72.855,76.156c-1.68,0-3.043-1.362-3.043-3.043c0-1.681,1.363-3.043,3.043-3.043
				c1.681,0,3.043,1.362,3.043,3.043C75.898,74.794,74.536,76.156,72.855,76.156L72.855,76.156z M83.838,89.5
				c-0.874,0.04-4.183,0.076-5.057,0.037c-0.959-0.04-1.483,0.092-2.092-0.866c-0.279-0.438-0.84-0.848-1.444-0.796
				c-1.043,0.086-1.139,0.357-1.221,1.668c-0.092,1.429,0,5.516,0,6.385c0,0.871-0.141,1.374-1.184,1.374s-1.383-0.203-1.426-1.51
				c-0.045-1.386,0.136-13.289,0.05-14.073c-0.087-0.782-0.677-0.925-1.113-0.491c-0.434,0.434-2.019,1.969-2.715,2.492
				c-0.696,0.522-2.022,2.056-2.775,1.05c-0.674-0.898-0.355-1.05,0.339-1.746c0.696-0.696,4.459-4.792,5.469-5.378
				c0.753-0.439,4.178-0.149,4.178-0.149s4.29-0.412,5.005,0.249c1.047,0.971,2.486,3.161,2.86,3.77
				c0.318,0.518,0.488,1.463-0.204,1.932c-0.549,0.371-1.034,0.147-1.707-0.749c-0.329-0.439-1.825-3.019-2.521-3.019
				c-0.254,0-1.35,0.162-1.176,1.182c0.283,1.662,0.851,4.214,1.15,5.22c0.281,0.951,0.079,1.376,1.644,1.376
				c1.565,0,3.045,0,3.741,0c0.695,0,1.092,0.254,1.216,0.869C85.013,89.095,84.665,89.463,83.838,89.5L83.838,89.5z"/>
		</defs>
		<use xlink:href="#SVGID_34_"  overflow="visible" fill-rule="evenodd" clip-rule="evenodd" fill="#FFFFFF"/>
		<clipPath id="SVGID_35_">
			<use xlink:href="#SVGID_34_"  overflow="visible"/>
		</clipPath>
	</g>
	<g>
		<defs>
			<path id="SVGID_36_" d="M53.159,90.742c1.861,0,3.369,1.509,3.369,3.371c0,1.859-1.509,3.368-3.369,3.368
				c-1.861,0-3.369-1.509-3.369-3.368C49.79,92.251,51.299,90.742,53.159,90.742L53.159,90.742z"/>
		</defs>
		<use xlink:href="#SVGID_36_"  overflow="visible" fill-rule="evenodd" clip-rule="evenodd" fill="#FFFFFF"/>
		<clipPath id="SVGID_37_">
			<use xlink:href="#SVGID_36_"  overflow="visible"/>
		</clipPath>
	</g>
	<g>
		<defs>
			<path id="SVGID_38_" d="M112.999,43v23H92.001V43l-5.834-0.011l10.636-7.257L96,36v-2.999h3.001v1.232l3.461-2.361l16.549,11.117
				L112.999,43L112.999,43z M111,41.001l-8.538-6.435L94,41.001v23h6v-9.999h4.999V64h6V41.001L111,41.001z M104,43h5v7h-5V43
				L104,43z M96,43H101v7H96V43L96,43z M95.654,76.107c4.277,2.851,18.347,12.894,18.347,12.894v2.999
				c0,0-16.074-10.587-20.509-13.756c-4.435-3.167-8.853-7.034-11.112-11.217C80.554,63.65,79,54.001,79,54.001H82
				c0,0,1.102,7.525,3.161,11.327C87.22,69.128,91.377,73.257,95.654,76.107L95.654,76.107z"/>
		</defs>
		<use xlink:href="#SVGID_38_"  overflow="visible" fill-rule="evenodd" clip-rule="evenodd" fill="#FFFFFF"/>
		<clipPath id="SVGID_39_">
			<use xlink:href="#SVGID_38_"  overflow="visible"/>
		</clipPath>
	</g>
	<linearGradient id="SVGID_40_" gradientUnits="userSpaceOnUse" x1="105.8293" y1="123.0971" x2="25.1699" y2="7.9035">
		<stop  offset="0" style="stop-color:#000000;stop-opacity:0"/>
		<stop  offset="1" style="stop-color:#FFFFFF;stop-opacity:0.25"/>
	</linearGradient>
	<path fill-rule="evenodd" clip-rule="evenodd" fill="url(#SVGID_40_)" d="M6,22h119c1.84,0,4.001,2.161,4.001,4.001v79
		c0,1.84-2.161,3.999-4.001,3.999H6C4.159,109,2,106.841,2,105.001v-79C2,24.161,4.159,22,6,22L6,22z"/>
</g>
</svg>
