<?xml version="1.0" encoding="utf-8"?>
<!-- Generator: Adobe Illustrator 17.0.1, SVG Export Plug-In . SVG Version: 6.00 Build 0)  -->
<!DOCTYPE svg PUBLIC "-//W3C//DTD SVG 1.1//EN" "http://www.w3.org/Graphics/SVG/1.1/DTD/svg11.dtd">
<svg version="1.1" xmlns="http://www.w3.org/2000/svg" xmlns:xlink="http://www.w3.org/1999/xlink" x="0px" y="0px" width="132px"
	 height="132px" viewBox="0 0 132 132" enable-background="new 0 0 132 132" xml:space="preserve">
<g id="disabled">
	<g>
		<defs>
			<path id="SVGID_1_" d="M72.496,5.559l54.946,54.946c3.339,3.339,3.339,8.756,0,12.095l-54.842,54.842
				c-3.339,3.338-8.755,3.338-12.095,0L5.56,72.497c-3.341-3.339-3.341-8.756,0-12.095L60.4,5.559
				C63.741,2.22,69.157,2.22,72.496,5.559L72.496,5.559z"/>
		</defs>
		<defs>
			<path id="SVGID_2_" d="M71.496,4.559l54.946,54.946c3.339,3.339,3.339,8.756,0,12.095l-54.842,54.842
				c-3.339,3.338-8.755,3.338-12.095,0L4.56,71.497c-3.341-3.339-3.341-8.756,0-12.095L59.4,4.559
				C62.741,1.22,68.157,1.22,71.496,4.559L71.496,4.559z"/>
		</defs>
		<linearGradient id="SVGID_3_" gradientUnits="userSpaceOnUse" x1="3.054" y1="66.5" x2="129.946" y2="66.5">
			<stop  offset="0" style="stop-color:#000000;stop-opacity:0.6"/>
			<stop  offset="1" style="stop-color:#000000;stop-opacity:0.6"/>
		</linearGradient>
		<use xlink:href="#SVGID_1_"  overflow="visible" fill-rule="evenodd" clip-rule="evenodd" fill="url(#SVGID_3_)"/>
		<use xlink:href="#SVGID_2_"  overflow="visible" fill="#BEBEBE"/>
		<clipPath id="SVGID_4_">
			<use xlink:href="#SVGID_1_"  overflow="visible"/>
		</clipPath>
		<clipPath id="SVGID_5_" clip-path="url(#SVGID_4_)">
			<use xlink:href="#SVGID_2_"  overflow="visible"/>
		</clipPath>
	</g>
	<g>
		<defs>
			<path id="SVGID_6_" d="M49.914,47.74c-0.291,0.934-0.707,1.688-1.249,2.266c-0.409,0.438-0.961,0.778-1.656,1.024
				c-0.52,0.181-1.215,0.271-2.084,0.271h-4.432V38.472h4.304c0.971,0,1.71,0.081,2.219,0.244c0.685,0.223,1.271,0.615,1.759,1.182
				c0.488,0.565,0.859,1.258,1.113,2.079c0.255,0.819,0.383,1.83,0.383,3.032C50.272,46.065,50.153,46.974,49.914,47.74
				L49.914,47.74z M47.599,42.61c-0.16-0.53-0.383-0.945-0.669-1.242c-0.286-0.297-0.649-0.499-1.09-0.604
				c-0.329-0.081-0.972-0.123-1.933-0.123h-1.058v8.499h1.759c0.657,0,1.132-0.042,1.423-0.123c0.383-0.105,0.699-0.283,0.951-0.535
				c0.252-0.25,0.457-0.664,0.617-1.239c0.158-0.573,0.239-1.357,0.239-2.348S47.757,43.141,47.599,42.61L47.599,42.61z
				 M59.551,45.638c0.51,0.328,0.93,0.686,1.261,1.077c0.331,0.391,0.779,1.085,1.341,2.082l1.425,2.504h-2.817l-1.702-2.793
				c-0.604-0.997-1.019-1.625-1.242-1.885c-0.221-0.26-0.459-0.438-0.707-0.535c-0.249-0.095-0.644-0.144-1.186-0.144h-0.476v5.356
				h-2.355V38.472h4.955c1.247,0,2.153,0.115,2.718,0.346c0.564,0.229,1.016,0.64,1.355,1.229c0.339,0.59,0.51,1.263,0.51,2.021
				c0,0.963-0.258,1.759-0.772,2.386C61.344,45.079,60.575,45.475,59.551,45.638L59.551,45.638z M59.89,41.189
				c-0.21-0.265-0.506-0.433-0.888-0.504c-0.191-0.029-0.762-0.044-1.719-0.044h-1.836v3.256h1.741c1.131,0,1.836-0.053,2.117-0.158
				c0.281-0.105,0.501-0.286,0.659-0.543c0.16-0.255,0.239-0.577,0.239-0.963C60.204,41.802,60.099,41.453,59.89,41.189
				L59.89,41.189z M73.621,51.301l-1.018-2.914H67.94l-0.963,2.914h-2.499l4.543-12.829h2.491l4.669,12.829H73.621L73.621,51.301z
				 M70.24,41.465l-1.576,4.76h3.183L70.24,41.465L70.24,41.465z M88.693,51.301h-2.499l-2.323-9.592l-2.316,9.592h-2.554
				l-2.785-12.829h2.411l1.757,8.812l2.132-8.812h2.801l2.045,8.961l1.79-8.961h2.371L88.693,51.301L88.693,51.301z M42.098,65.199
				c0.381,0.549,0.573,1.194,0.573,1.935c0,0.583-0.124,1.15-0.37,1.702c-0.247,0.551-0.585,0.992-1.011,1.321
				c-0.426,0.329-0.953,0.533-1.58,0.607c-0.392,0.047-1.339,0.076-2.839,0.089h-3.97V58.023h4.661c0.924,0,1.612,0.042,2.066,0.128
				c0.452,0.084,0.859,0.262,1.216,0.53c0.359,0.268,0.657,0.625,0.895,1.071c0.239,0.447,0.359,0.947,0.359,1.502
				c0,0.601-0.147,1.152-0.441,1.654c-0.296,0.501-0.695,0.877-1.198,1.129C41.169,64.264,41.717,64.652,42.098,65.199
				L42.098,65.199z M39.509,60.653c-0.199-0.247-0.496-0.397-0.888-0.451c-0.233-0.029-0.903-0.044-2.012-0.044h-1.352v2.967h1.542
				c0.919,0,1.489-0.015,1.71-0.044c0.404-0.052,0.72-0.205,0.951-0.459c0.231-0.255,0.346-0.588,0.346-1.003
				C39.806,61.224,39.707,60.901,39.509,60.653L39.509,60.653z M39.982,66.031c-0.17-0.268-0.415-0.464-0.736-0.586
				c-0.321-0.123-1.018-0.184-2.088-0.184h-1.901v3.431h2.179c0.85,0,1.387-0.026,1.615-0.078c0.35-0.071,0.636-0.241,0.856-0.512
				c0.22-0.271,0.329-0.635,0.329-1.09C40.236,66.627,40.152,66.299,39.982,66.031L39.982,66.031z M51.942,65.191
				c0.51,0.326,0.93,0.685,1.261,1.076c0.331,0.391,0.778,1.085,1.341,2.084l1.425,2.503h-2.817l-1.702-2.793
				c-0.606-0.998-1.019-1.626-1.242-1.887c-0.221-0.258-0.459-0.436-0.707-0.533s-0.644-0.144-1.186-0.144h-0.476v5.356h-2.356
				V58.023h4.957c1.247,0,2.153,0.116,2.717,0.346c0.565,0.231,1.018,0.641,1.357,1.231c0.339,0.588,0.51,1.263,0.51,2.021
				c0,0.963-0.258,1.757-0.772,2.386C53.735,64.632,52.966,65.028,51.942,65.191L51.942,65.191z M52.281,60.742
				c-0.21-0.267-0.506-0.434-0.888-0.504c-0.191-0.029-0.762-0.044-1.719-0.044h-1.836v3.256h1.741c1.131,0,1.835-0.053,2.117-0.158
				c0.281-0.105,0.501-0.286,0.659-0.543c0.16-0.257,0.239-0.577,0.239-0.963C52.595,61.355,52.49,61.006,52.281,60.742
				L52.281,60.742z M57.984,70.854V58.023h2.355v12.831H57.984L57.984,70.854z M72.81,67.291c-0.292,0.934-0.709,1.689-1.25,2.268
				c-0.409,0.438-0.959,0.778-1.654,1.024c-0.52,0.181-1.215,0.271-2.085,0.271h-4.43V58.023h4.303c0.971,0,1.71,0.082,2.221,0.245
				c0.683,0.221,1.269,0.615,1.757,1.181c0.488,0.567,0.859,1.26,1.114,2.079c0.255,0.82,0.381,1.832,0.381,3.033
				C73.167,65.618,73.049,66.527,72.81,67.291L72.81,67.291z M70.494,62.163c-0.158-0.531-0.381-0.945-0.667-1.242
				c-0.288-0.297-0.651-0.499-1.09-0.604c-0.329-0.082-0.974-0.123-1.933-0.123h-1.058v8.497h1.757c0.657,0,1.132-0.04,1.425-0.123
				c0.381-0.105,0.699-0.283,0.951-0.533c0.252-0.25,0.457-0.664,0.615-1.239c0.16-0.575,0.239-1.357,0.239-2.35
				C70.733,63.455,70.654,62.694,70.494,62.163L70.494,62.163z M81.406,66.136v-2.161h5.075v5.11
				c-0.493,0.525-1.208,0.988-2.143,1.387c-0.937,0.399-1.885,0.599-2.844,0.599c-1.221,0-2.284-0.281-3.19-0.845
				c-0.908-0.562-1.589-1.368-2.045-2.415c-0.457-1.048-0.685-2.187-0.685-3.418c0-1.336,0.255-2.523,0.764-3.561
				c0.509-1.039,1.253-1.835,2.235-2.39c0.748-0.425,1.678-0.638,2.793-0.638c1.447,0,2.579,0.334,3.393,1.001
				c0.814,0.669,1.337,1.591,1.572,2.77l-2.339,0.481c-0.165-0.63-0.475-1.127-0.927-1.492c-0.454-0.363-1.021-0.546-1.699-0.546
				c-1.029,0-1.848,0.359-2.455,1.076c-0.607,0.717-0.911,1.783-0.911,3.195c0,1.523,0.309,2.665,0.924,3.426
				c0.615,0.762,1.421,1.142,2.418,1.142c0.494,0,0.988-0.107,1.484-0.32c0.496-0.212,0.921-0.47,1.276-0.774v-1.628H81.406
				L81.406,66.136z M98.339,68.691v2.163h-8.872V58.023h8.649v2.171h-6.293v2.844h5.855v2.161h-5.855v3.492H98.339L98.339,68.691z
				 M43.973,90.405l-1.017-2.914h-4.663l-0.963,2.914h-2.499l4.543-12.829h2.491l4.669,12.829H43.973L43.973,90.405z M40.593,80.569
				l-1.576,4.761H42.2L40.593,80.569L40.593,80.569z M55.576,90.405v-5.609h-4.614v5.609h-2.355V77.576h2.355v5.049h4.614v-5.049
				h2.355v12.829H55.576L55.576,90.405z M70.051,88.244v2.161h-8.87V77.576h8.648v2.171h-6.293v2.844h5.855v2.161h-5.855v3.492
				H70.051L70.051,88.244z M80.819,90.405L79.8,87.492h-4.661l-0.963,2.914h-2.499l4.542-12.829h2.491l4.671,12.829H80.819
				L80.819,90.405z M77.437,80.569l-1.575,4.761h3.182L77.437,80.569L77.437,80.569z M94.857,86.844
				c-0.292,0.934-0.709,1.689-1.25,2.266c-0.409,0.438-0.959,0.78-1.654,1.024c-0.52,0.181-1.215,0.271-2.085,0.271h-4.43V77.576
				h4.303c0.971,0,1.71,0.082,2.221,0.245c0.683,0.221,1.27,0.615,1.757,1.181c0.488,0.567,0.859,1.26,1.114,2.079
				c0.255,0.82,0.381,1.83,0.381,3.033C95.214,85.169,95.096,86.08,94.857,86.844L94.857,86.844z M92.541,81.716
				c-0.158-0.531-0.381-0.945-0.667-1.244c-0.287-0.297-0.651-0.497-1.09-0.602c-0.329-0.082-0.974-0.123-1.933-0.123h-1.058v8.497
				h1.757c0.657,0,1.132-0.04,1.425-0.123c0.381-0.105,0.699-0.283,0.951-0.533c0.25-0.252,0.457-0.664,0.615-1.239
				c0.16-0.575,0.239-1.358,0.239-2.35C92.78,83.008,92.701,82.247,92.541,81.716L92.541,81.716z"/>
		</defs>
		<use xlink:href="#SVGID_6_"  overflow="visible" fill-rule="evenodd" clip-rule="evenodd"/>
		<clipPath id="SVGID_7_">
			<use xlink:href="#SVGID_6_"  overflow="visible"/>
		</clipPath>
	</g>
	<path fill-rule="evenodd" clip-rule="evenodd" d="M123.833,59.761L71.24,7.169c-3.198-3.198-8.381-3.198-11.579,0L7.169,59.661
		c-3.198,3.198-3.198,8.383,0,11.579l52.593,52.593c3.196,3.196,8.381,3.196,11.577,0l52.494-52.494
		C127.029,68.142,127.029,62.958,123.833,59.761z M121.712,69.218l-52.494,52.494c-0.979,0.979-2.282,1.519-3.667,1.519
		c-1.386,0-2.688-0.539-3.668-1.519L9.29,69.119c-0.98-0.979-1.52-2.282-1.52-3.667c0-1.386,0.54-2.689,1.52-3.669L61.782,9.29
		c0.98-0.98,2.283-1.52,3.668-1.52c1.385,0,2.688,0.54,3.668,1.52l52.593,52.592C123.733,63.905,123.733,67.195,121.712,69.218z"/>
	<linearGradient id="SVGID_8_" gradientUnits="userSpaceOnUse" x1="96.2152" y1="109.3659" x2="34.7851" y2="21.6347">
		<stop  offset="0" style="stop-color:#000000;stop-opacity:0"/>
		<stop  offset="1" style="stop-color:#FFFFFF;stop-opacity:0.25"/>
	</linearGradient>
	<path fill-rule="evenodd" clip-rule="evenodd" fill="url(#SVGID_8_)" d="M71.496,4.559l54.946,54.946
		c3.339,3.339,3.339,8.756,0,12.095l-54.842,54.842c-3.339,3.338-8.755,3.338-12.095,0L4.56,71.497
		c-3.341-3.339-3.341-8.756,0-12.095L59.4,4.559C62.741,1.22,68.157,1.22,71.496,4.559L71.496,4.559z"/>
</g>
<g id="normal">
	<g>
		<defs>
			<path id="SVGID_9_" d="M72.496,5.559l54.946,54.946c3.339,3.339,3.339,8.756,0,12.095l-54.842,54.842
				c-3.339,3.338-8.755,3.338-12.095,0L5.56,72.497c-3.341-3.339-3.341-8.756,0-12.095L60.4,5.559
				C63.741,2.22,69.157,2.22,72.496,5.559L72.496,5.559z"/>
		</defs>
		<defs>
			<path id="SVGID_10_" d="M71.496,4.559l54.946,54.946c3.339,3.339,3.339,8.756,0,12.095l-54.842,54.842
				c-3.339,3.338-8.755,3.338-12.095,0L4.56,71.497c-3.341-3.339-3.341-8.756,0-12.095L59.4,4.559
				C62.741,1.22,68.157,1.22,71.496,4.559L71.496,4.559z"/>
		</defs>
		<linearGradient id="SVGID_11_" gradientUnits="userSpaceOnUse" x1="3.054" y1="66.5" x2="129.946" y2="66.5">
			<stop  offset="0" style="stop-color:#000000;stop-opacity:0.6"/>
			<stop  offset="1" style="stop-color:#000000;stop-opacity:0.6"/>
		</linearGradient>
		<use xlink:href="#SVGID_9_"  overflow="visible" fill-rule="evenodd" clip-rule="evenodd" fill="url(#SVGID_11_)"/>
		<use xlink:href="#SVGID_10_"  overflow="visible" fill="#FFC000"/>
		<clipPath id="SVGID_12_">
			<use xlink:href="#SVGID_9_"  overflow="visible"/>
		</clipPath>
		<clipPath id="SVGID_13_" clip-path="url(#SVGID_12_)">
			<use xlink:href="#SVGID_10_"  overflow="visible"/>
		</clipPath>
	</g>
	<g>
		<defs>
			<path id="SVGID_14_" d="M49.914,47.74c-0.291,0.934-0.707,1.688-1.249,2.266c-0.409,0.438-0.961,0.778-1.656,1.024
				c-0.52,0.181-1.215,0.271-2.084,0.271h-4.432V38.472h4.304c0.971,0,1.71,0.081,2.219,0.244c0.685,0.223,1.271,0.615,1.759,1.182
				c0.488,0.565,0.859,1.258,1.113,2.079c0.255,0.819,0.383,1.83,0.383,3.032C50.272,46.065,50.153,46.974,49.914,47.74
				L49.914,47.74z M47.599,42.61c-0.16-0.53-0.383-0.945-0.669-1.242c-0.286-0.297-0.649-0.499-1.09-0.604
				c-0.329-0.081-0.972-0.123-1.933-0.123h-1.058v8.499h1.759c0.657,0,1.132-0.042,1.423-0.123c0.383-0.105,0.699-0.283,0.951-0.535
				c0.252-0.25,0.457-0.664,0.617-1.239c0.158-0.573,0.239-1.357,0.239-2.348S47.757,43.141,47.599,42.61L47.599,42.61z
				 M59.551,45.638c0.51,0.328,0.93,0.686,1.261,1.077c0.331,0.391,0.779,1.085,1.341,2.082l1.425,2.504h-2.817l-1.702-2.793
				c-0.604-0.997-1.019-1.625-1.242-1.885c-0.221-0.26-0.459-0.438-0.707-0.535c-0.249-0.095-0.644-0.144-1.186-0.144h-0.476v5.356
				h-2.355V38.472h4.955c1.247,0,2.153,0.115,2.718,0.346c0.564,0.229,1.016,0.64,1.355,1.229c0.339,0.59,0.51,1.263,0.51,2.021
				c0,0.963-0.258,1.759-0.772,2.386C61.344,45.079,60.575,45.475,59.551,45.638L59.551,45.638z M59.89,41.189
				c-0.21-0.265-0.506-0.433-0.888-0.504c-0.191-0.029-0.762-0.044-1.719-0.044h-1.836v3.256h1.741c1.131,0,1.836-0.053,2.117-0.158
				c0.281-0.105,0.501-0.286,0.659-0.543c0.16-0.255,0.239-0.577,0.239-0.963C60.204,41.802,60.099,41.453,59.89,41.189
				L59.89,41.189z M73.621,51.301l-1.018-2.914H67.94l-0.963,2.914h-2.499l4.543-12.829h2.491l4.669,12.829H73.621L73.621,51.301z
				 M70.24,41.465l-1.576,4.76h3.183L70.24,41.465L70.24,41.465z M88.693,51.301h-2.499l-2.323-9.592l-2.316,9.592h-2.554
				l-2.785-12.829h2.411l1.757,8.812l2.132-8.812h2.801l2.045,8.961l1.79-8.961h2.371L88.693,51.301L88.693,51.301z M42.098,65.199
				c0.381,0.549,0.573,1.194,0.573,1.935c0,0.583-0.124,1.15-0.37,1.702c-0.247,0.551-0.585,0.992-1.011,1.321
				c-0.426,0.329-0.953,0.533-1.58,0.607c-0.392,0.047-1.339,0.076-2.839,0.089h-3.97V58.023h4.661c0.924,0,1.612,0.042,2.066,0.128
				c0.452,0.084,0.859,0.262,1.216,0.53c0.359,0.268,0.657,0.625,0.895,1.071c0.239,0.447,0.359,0.947,0.359,1.502
				c0,0.601-0.147,1.152-0.441,1.654c-0.296,0.501-0.695,0.877-1.198,1.129C41.169,64.264,41.717,64.652,42.098,65.199
				L42.098,65.199z M39.509,60.653c-0.199-0.247-0.496-0.397-0.888-0.451c-0.233-0.029-0.903-0.044-2.012-0.044h-1.352v2.967h1.542
				c0.919,0,1.489-0.015,1.71-0.044c0.404-0.052,0.72-0.205,0.951-0.459c0.231-0.255,0.346-0.588,0.346-1.003
				C39.806,61.224,39.707,60.901,39.509,60.653L39.509,60.653z M39.982,66.031c-0.17-0.268-0.415-0.464-0.736-0.586
				c-0.321-0.123-1.018-0.184-2.088-0.184h-1.901v3.431h2.179c0.85,0,1.387-0.026,1.615-0.078c0.35-0.071,0.636-0.241,0.856-0.512
				c0.22-0.271,0.329-0.635,0.329-1.09C40.236,66.627,40.152,66.299,39.982,66.031L39.982,66.031z M51.942,65.191
				c0.51,0.326,0.93,0.685,1.261,1.076c0.331,0.391,0.778,1.085,1.341,2.084l1.425,2.503h-2.817l-1.702-2.793
				c-0.606-0.998-1.019-1.626-1.242-1.887c-0.221-0.258-0.459-0.436-0.707-0.533s-0.644-0.144-1.186-0.144h-0.476v5.356h-2.356
				V58.023h4.957c1.247,0,2.153,0.116,2.717,0.346c0.565,0.231,1.018,0.641,1.357,1.231c0.339,0.588,0.51,1.263,0.51,2.021
				c0,0.963-0.258,1.757-0.772,2.386C53.735,64.632,52.966,65.028,51.942,65.191L51.942,65.191z M52.281,60.742
				c-0.21-0.267-0.506-0.434-0.888-0.504c-0.191-0.029-0.762-0.044-1.719-0.044h-1.836v3.256h1.741c1.131,0,1.835-0.053,2.117-0.158
				c0.281-0.105,0.501-0.286,0.659-0.543c0.16-0.257,0.239-0.577,0.239-0.963C52.595,61.355,52.49,61.006,52.281,60.742
				L52.281,60.742z M57.984,70.854V58.023h2.355v12.831H57.984L57.984,70.854z M72.81,67.291c-0.292,0.934-0.709,1.689-1.25,2.268
				c-0.409,0.438-0.959,0.778-1.654,1.024c-0.52,0.181-1.215,0.271-2.085,0.271h-4.43V58.023h4.303c0.971,0,1.71,0.082,2.221,0.245
				c0.683,0.221,1.269,0.615,1.757,1.181c0.488,0.567,0.859,1.26,1.114,2.079c0.255,0.82,0.381,1.832,0.381,3.033
				C73.167,65.618,73.049,66.527,72.81,67.291L72.81,67.291z M70.494,62.163c-0.158-0.531-0.381-0.945-0.667-1.242
				c-0.288-0.297-0.651-0.499-1.09-0.604c-0.329-0.082-0.974-0.123-1.933-0.123h-1.058v8.497h1.757c0.657,0,1.132-0.04,1.425-0.123
				c0.381-0.105,0.699-0.283,0.951-0.533c0.252-0.25,0.457-0.664,0.615-1.239c0.16-0.575,0.239-1.357,0.239-2.35
				C70.733,63.455,70.654,62.694,70.494,62.163L70.494,62.163z M81.406,66.136v-2.161h5.075v5.11
				c-0.493,0.525-1.208,0.988-2.143,1.387c-0.937,0.399-1.885,0.599-2.844,0.599c-1.221,0-2.284-0.281-3.19-0.845
				c-0.908-0.562-1.589-1.368-2.045-2.415c-0.457-1.048-0.685-2.187-0.685-3.418c0-1.336,0.255-2.523,0.764-3.561
				c0.509-1.039,1.253-1.835,2.235-2.39c0.748-0.425,1.678-0.638,2.793-0.638c1.447,0,2.579,0.334,3.393,1.001
				c0.814,0.669,1.337,1.591,1.572,2.77l-2.339,0.481c-0.165-0.63-0.475-1.127-0.927-1.492c-0.454-0.363-1.021-0.546-1.699-0.546
				c-1.029,0-1.848,0.359-2.455,1.076c-0.607,0.717-0.911,1.783-0.911,3.195c0,1.523,0.309,2.665,0.924,3.426
				c0.615,0.762,1.421,1.142,2.418,1.142c0.494,0,0.988-0.107,1.484-0.32c0.496-0.212,0.921-0.47,1.276-0.774v-1.628H81.406
				L81.406,66.136z M98.339,68.691v2.163h-8.872V58.023h8.649v2.171h-6.293v2.844h5.855v2.161h-5.855v3.492H98.339L98.339,68.691z
				 M43.973,90.405l-1.017-2.914h-4.663l-0.963,2.914h-2.499l4.543-12.829h2.491l4.669,12.829H43.973L43.973,90.405z M40.593,80.569
				l-1.576,4.761H42.2L40.593,80.569L40.593,80.569z M55.576,90.405v-5.609h-4.614v5.609h-2.355V77.576h2.355v5.049h4.614v-5.049
				h2.355v12.829H55.576L55.576,90.405z M70.051,88.244v2.161h-8.87V77.576h8.648v2.171h-6.293v2.844h5.855v2.161h-5.855v3.492
				H70.051L70.051,88.244z M80.819,90.405L79.8,87.492h-4.661l-0.963,2.914h-2.499l4.542-12.829h2.491l4.671,12.829H80.819
				L80.819,90.405z M77.437,80.569l-1.575,4.761h3.182L77.437,80.569L77.437,80.569z M94.857,86.844
				c-0.292,0.934-0.709,1.689-1.25,2.266c-0.409,0.438-0.959,0.78-1.654,1.024c-0.52,0.181-1.215,0.271-2.085,0.271h-4.43V77.576
				h4.303c0.971,0,1.71,0.082,2.221,0.245c0.683,0.221,1.27,0.615,1.757,1.181c0.488,0.567,0.859,1.26,1.114,2.079
				c0.255,0.82,0.381,1.83,0.381,3.033C95.214,85.169,95.096,86.08,94.857,86.844L94.857,86.844z M92.541,81.716
				c-0.158-0.531-0.381-0.945-0.667-1.244c-0.287-0.297-0.651-0.497-1.09-0.602c-0.329-0.082-0.974-0.123-1.933-0.123h-1.058v8.497
				h1.757c0.657,0,1.132-0.04,1.425-0.123c0.381-0.105,0.699-0.283,0.951-0.533c0.25-0.252,0.457-0.664,0.615-1.239
				c0.16-0.575,0.239-1.358,0.239-2.35C92.78,83.008,92.701,82.247,92.541,81.716L92.541,81.716z"/>
		</defs>
		<use xlink:href="#SVGID_14_"  overflow="visible" fill-rule="evenodd" clip-rule="evenodd"/>
		<clipPath id="SVGID_15_">
			<use xlink:href="#SVGID_14_"  overflow="visible"/>
		</clipPath>
	</g>
	<path fill-rule="evenodd" clip-rule="evenodd" d="M123.833,59.761L71.24,7.169c-3.198-3.198-8.381-3.198-11.579,0L7.169,59.661
		c-3.198,3.198-3.198,8.383,0,11.579l52.593,52.593c3.196,3.196,8.381,3.196,11.577,0l52.494-52.494
		C127.029,68.142,127.029,62.958,123.833,59.761z M121.712,69.218l-52.494,52.494c-0.979,0.979-2.282,1.519-3.667,1.519
		c-1.386,0-2.688-0.539-3.668-1.519L9.29,69.119c-0.98-0.979-1.52-2.282-1.52-3.667c0-1.386,0.54-2.689,1.52-3.669L61.782,9.29
		c0.98-0.98,2.283-1.52,3.668-1.52c1.385,0,2.688,0.54,3.668,1.52l52.593,52.592C123.733,63.905,123.733,67.195,121.712,69.218z"/>
	<linearGradient id="SVGID_16_" gradientUnits="userSpaceOnUse" x1="96.2152" y1="109.3659" x2="34.7851" y2="21.6347">
		<stop  offset="0" style="stop-color:#000000;stop-opacity:0"/>
		<stop  offset="1" style="stop-color:#FFFFFF;stop-opacity:0.25"/>
	</linearGradient>
	<path fill-rule="evenodd" clip-rule="evenodd" fill="url(#SVGID_16_)" d="M71.496,4.559l54.946,54.946
		c3.339,3.339,3.339,8.756,0,12.095l-54.842,54.842c-3.339,3.338-8.755,3.338-12.095,0L4.56,71.497
		c-3.341-3.339-3.341-8.756,0-12.095L59.4,4.559C62.741,1.22,68.157,1.22,71.496,4.559L71.496,4.559z"/>
</g>
</svg>
