<?xml version="1.0" encoding="utf-8"?>
<!-- Generator: Adobe Illustrator 17.0.1, SVG Export Plug-In . SVG Version: 6.00 Build 0)  -->
<!DOCTYPE svg PUBLIC "-//W3C//DTD SVG 1.1//EN" "http://www.w3.org/Graphics/SVG/1.1/DTD/svg11.dtd">
<svg version="1.1" xmlns="http://www.w3.org/2000/svg" xmlns:xlink="http://www.w3.org/1999/xlink" x="0px" y="0px" width="132px"
	 height="132px" viewBox="0 0 132 132" enable-background="new 0 0 132 132" xml:space="preserve">
<g id="disabled">
	<g>
		<defs>
			<path id="SVGID_1_" d="M72.496,5.558l54.946,54.946c3.339,3.339,3.339,8.755,0,12.095l-54.842,54.842
				c-3.339,3.339-8.755,3.339-12.095,0L5.56,72.496c-3.341-3.339-3.341-8.755,0-12.095L60.4,5.558
				C63.741,2.219,69.157,2.219,72.496,5.558L72.496,5.558z"/>
		</defs>
		<defs>
			<path id="SVGID_2_" d="M71.496,4.558l54.946,54.946c3.339,3.339,3.339,8.755,0,12.095l-54.842,54.842
				c-3.339,3.339-8.755,3.339-12.095,0L4.56,71.496c-3.341-3.339-3.341-8.755,0-12.095L59.4,4.558
				C62.741,1.219,68.157,1.219,71.496,4.558L71.496,4.558z"/>
		</defs>
		<linearGradient id="SVGID_3_" gradientUnits="userSpaceOnUse" x1="3.054" y1="66.5" x2="129.946" y2="66.5">
			<stop  offset="0" style="stop-color:#000000;stop-opacity:0.3"/>
			<stop  offset="1" style="stop-color:#000000;stop-opacity:0.3"/>
		</linearGradient>
		<use xlink:href="#SVGID_1_"  overflow="visible" fill-rule="evenodd" clip-rule="evenodd" fill="url(#SVGID_3_)"/>
		<linearGradient id="SVGID_4_" gradientUnits="userSpaceOnUse" x1="12.638" y1="40.85" x2="118.3624" y2="90.15">
			<stop  offset="0" style="stop-color:#C6C6C6"/>
			<stop  offset="0.6" style="stop-color:#BEBEBE"/>
		</linearGradient>
		<use xlink:href="#SVGID_2_"  overflow="visible" fill-rule="evenodd" clip-rule="evenodd" fill="url(#SVGID_4_)"/>
		<clipPath id="SVGID_5_">
			<use xlink:href="#SVGID_1_"  overflow="visible"/>
		</clipPath>
		<clipPath id="SVGID_6_" clip-path="url(#SVGID_5_)">
			<use xlink:href="#SVGID_2_"  overflow="visible"/>
		</clipPath>
	</g>
	<g>
		<defs>
			<path id="SVGID_7_" d="M123.833,71.338l-52.494,52.494c-3.196,3.196-8.381,3.196-11.577,0L7.169,71.24
				c-3.198-3.198-3.198-8.381,0-11.577L59.661,7.168c3.198-3.198,8.381-3.198,11.579,0l52.593,52.593
				C127.029,62.957,127.029,68.142,123.833,71.338L123.833,71.338z M122.048,62.871L68.183,9.006c-1.45-1.452-3.804-1.452-5.254,0
				L9.063,62.871c-1.45,1.45-1.45,3.804,0,5.256l53.865,53.864c1.45,1.452,3.804,1.452,5.254,0l53.865-53.864
				C123.498,66.675,123.498,64.322,122.048,62.871L122.048,62.871z"/>
		</defs>
		<linearGradient id="SVGID_8_" gradientUnits="userSpaceOnUse" x1="14.901" y1="41.9049" x2="116.0995" y2="89.0946">
			<stop  offset="0" style="stop-color:#333333"/>
			<stop  offset="0.6" style="stop-color:#000000"/>
		</linearGradient>
		<use xlink:href="#SVGID_7_"  overflow="visible" fill="url(#SVGID_8_)"/>
		<clipPath id="SVGID_9_">
			<use xlink:href="#SVGID_7_"  overflow="visible"/>
		</clipPath>
	</g>
	<g>
		<defs>
			<path id="SVGID_10_" d="M31.418,49.915v3.355h5.378v2.397h-5.378v6.023h-2.602V47.516h8.833v2.398H31.418L31.418,49.915z
				 M48.491,61.689l-1.126-3.219h-5.149l-1.064,3.219h-2.76l5.02-14.173h2.751l5.159,14.173H48.491L48.491,61.689z M44.755,50.822
				l-1.74,5.261h3.515L44.755,50.822L44.755,50.822z M53.67,61.689V47.633h2.602v11.669h6.469v2.387H53.67L53.67,61.689z
				 M65.566,61.689V47.633h2.602v11.669h6.469v2.387H65.566L65.566,61.689z M87.19,59.302v2.387H77.39V47.516h9.554v2.398h-6.952
				v3.142h6.469v2.389h-6.469v3.857H87.19L87.19,59.302z M97.934,61.689l-5.194-9.242v9.242h-2.416V47.516h2.531l5.273,9.465v-9.465
				h2.416v14.173H97.934L97.934,61.689z M38.892,77.035c0.562,0.362,1.026,0.758,1.392,1.189c0.367,0.433,0.859,1.2,1.481,2.302
				l1.573,2.765h-3.111l-1.882-3.085c-0.667-1.102-1.124-1.796-1.371-2.084c-0.246-0.286-0.507-0.483-0.782-0.59
				c-0.276-0.107-0.712-0.158-1.31-0.158h-0.527v5.916h-2.602V69.117h5.475c1.378,0,2.378,0.128,3.001,0.381
				c0.625,0.255,1.124,0.707,1.499,1.358c0.375,0.651,0.562,1.396,0.562,2.234c0,1.063-0.284,1.941-0.851,2.634
				C40.872,76.418,40.022,76.854,38.892,77.035L38.892,77.035z M39.265,72.118c-0.233-0.292-0.559-0.478-0.98-0.556
				c-0.212-0.032-0.843-0.048-1.898-0.048h-2.03v3.597h1.924c1.249,0,2.029-0.058,2.339-0.174c0.31-0.116,0.554-0.315,0.728-0.599
				c0.176-0.284,0.265-0.638,0.265-1.063C39.612,72.797,39.496,72.412,39.265,72.118L39.265,72.118z M55.919,81.593
				c-1.131,1.292-2.642,1.938-4.535,1.938c-1.916,0-3.439-0.643-4.569-1.928c-1.132-1.286-1.698-3.056-1.698-5.312
				c0-1.444,0.197-2.655,0.59-3.636c0.292-0.72,0.693-1.368,1.2-1.943c0.506-0.573,1.061-0.998,1.665-1.276
				c0.803-0.373,1.728-0.56,2.776-0.56c1.899,0,3.418,0.648,4.558,1.943c1.14,1.295,1.709,3.098,1.709,5.404
				C57.615,78.511,57.049,80.301,55.919,81.593L55.919,81.593z M53.955,72.52c-0.648-0.799-1.507-1.2-2.579-1.2
				c-1.072,0-1.937,0.405-2.592,1.215c-0.657,0.808-0.985,2.029-0.985,3.658c0,1.605,0.338,2.822,1.011,3.65s1.53,1.242,2.566,1.242
				c1.037,0,1.888-0.41,2.554-1.232c0.664-0.822,0.997-2.054,0.997-3.699C54.925,74.531,54.602,73.32,53.955,72.52L53.955,72.52z
				 M67.748,71.958c-0.483-0.425-1.071-0.638-1.762-0.638c-0.955,0-1.73,0.378-2.324,1.132c-0.596,0.754-0.893,1.975-0.893,3.663
				c0,1.793,0.294,3.069,0.88,3.829c0.585,0.761,1.347,1.14,2.284,1.14c0.691,0,1.287-0.242,1.785-0.725
				c0.497-0.483,0.856-1.244,1.072-2.282l2.523,0.88c-0.388,1.547-1.03,2.696-1.93,3.447c-0.9,0.751-2.04,1.126-3.423,1.126
				c-1.712,0-3.117-0.643-4.219-1.928c-1.102-1.286-1.652-3.043-1.652-5.273c0-2.358,0.552-4.191,1.66-5.496
				c1.108-1.305,2.563-1.958,4.369-1.958c1.575,0,2.856,0.512,3.841,1.538c0.585,0.606,1.024,1.476,1.318,2.61l-2.576,0.677
				C68.549,72.965,68.231,72.385,67.748,71.958L67.748,71.958z M86.099,83.29h-3.368l-3.542-6.651l-2.108,2.368v4.283H74.48V69.117
				h2.602v6.293l5.256-6.293h3.497l-4.85,5.521L86.099,83.29L86.099,83.29z M94.474,71.723c-0.367-0.32-0.916-0.478-1.647-0.478
				c-0.756,0-1.349,0.17-1.777,0.512c-0.275,0.218-0.412,0.512-0.412,0.879c0,0.336,0.128,0.623,0.386,0.861
				c0.328,0.304,1.126,0.619,2.39,0.948c1.266,0.328,2.201,0.669,2.809,1.019c0.606,0.352,1.081,0.832,1.423,1.441
				c0.344,0.609,0.515,1.362,0.515,2.258c0,0.812-0.205,1.573-0.615,2.282c-0.41,0.709-0.99,1.236-1.741,1.58
				c-0.749,0.346-1.685,0.517-2.804,0.517c-1.628,0-2.88-0.413-3.752-1.242c-0.874-0.827-1.395-2.035-1.565-3.62l2.531-0.271
				c0.153,0.935,0.462,1.622,0.929,2.059c0.465,0.438,1.093,0.657,1.885,0.657c0.838,0,1.468-0.195,1.893-0.585
				c0.425-0.391,0.638-0.846,0.638-1.368c0-0.336-0.089-0.62-0.268-0.856c-0.179-0.234-0.491-0.439-0.937-0.614
				c-0.304-0.116-0.998-0.321-2.082-0.619c-1.395-0.38-2.373-0.848-2.936-1.402c-0.79-0.78-1.186-1.73-1.186-2.852
				c0-0.722,0.186-1.397,0.557-2.025c0.373-0.628,0.909-1.106,1.609-1.436c0.701-0.328,1.546-0.493,2.536-0.493
				c1.617,0,2.835,0.391,3.652,1.169c0.817,0.78,1.247,1.822,1.287,3.124l-2.602,0.126C95.078,72.566,94.841,72.041,94.474,71.723
				L94.474,71.723z"/>
		</defs>
		<linearGradient id="SVGID_11_" gradientUnits="userSpaceOnUse" x1="28.6331" y1="47.9093" x2="98.0993" y2="80.3019">
			<stop  offset="0" style="stop-color:#333333"/>
			<stop  offset="0.6" style="stop-color:#000000"/>
		</linearGradient>
		<use xlink:href="#SVGID_10_"  overflow="visible" fill="url(#SVGID_11_)"/>
		<clipPath id="SVGID_12_">
			<use xlink:href="#SVGID_10_"  overflow="visible"/>
		</clipPath>
		<linearGradient id="SVGID_13_" gradientUnits="userSpaceOnUse" x1="28.5664" y1="65.5284" x2="100.7937" y2="65.5284">
			<stop  offset="0" style="stop-color:#333333"/>
			<stop  offset="0.6" style="stop-color:#000000"/>
		</linearGradient>
		
			<use xlink:href="#SVGID_10_"  overflow="visible" fill="none" stroke="url(#SVGID_13_)" stroke-width="0.5" stroke-miterlimit="10"/>
	</g>
</g>
<g id="normal">
	<g>
		<defs>
			<path id="SVGID_14_" d="M72.496,5.558l54.946,54.946c3.339,3.339,3.339,8.755,0,12.095l-54.842,54.842
				c-3.339,3.339-8.755,3.339-12.095,0L5.56,72.496c-3.341-3.339-3.341-8.755,0-12.095L60.4,5.558
				C63.741,2.219,69.157,2.219,72.496,5.558L72.496,5.558z"/>
		</defs>
		<defs>
			<path id="SVGID_15_" d="M71.496,4.558l54.946,54.946c3.339,3.339,3.339,8.755,0,12.095l-54.842,54.842
				c-3.339,3.339-8.755,3.339-12.095,0L4.56,71.496c-3.341-3.339-3.341-8.755,0-12.095L59.4,4.558
				C62.741,1.219,68.157,1.219,71.496,4.558L71.496,4.558z"/>
		</defs>
		<linearGradient id="SVGID_16_" gradientUnits="userSpaceOnUse" x1="3.054" y1="66.5" x2="129.946" y2="66.5">
			<stop  offset="0" style="stop-color:#000000;stop-opacity:0.3"/>
			<stop  offset="1" style="stop-color:#000000;stop-opacity:0.3"/>
		</linearGradient>
		<use xlink:href="#SVGID_14_"  overflow="visible" fill-rule="evenodd" clip-rule="evenodd" fill="url(#SVGID_16_)"/>
		<linearGradient id="SVGID_17_" gradientUnits="userSpaceOnUse" x1="12.638" y1="40.85" x2="118.3624" y2="90.15">
			<stop  offset="0" style="stop-color:#FFC820"/>
			<stop  offset="0.6" style="stop-color:#FFC000"/>
		</linearGradient>
		<use xlink:href="#SVGID_15_"  overflow="visible" fill-rule="evenodd" clip-rule="evenodd" fill="url(#SVGID_17_)"/>
		<clipPath id="SVGID_18_">
			<use xlink:href="#SVGID_14_"  overflow="visible"/>
		</clipPath>
		<clipPath id="SVGID_19_" clip-path="url(#SVGID_18_)">
			<use xlink:href="#SVGID_15_"  overflow="visible"/>
		</clipPath>
	</g>
	<g>
		<defs>
			<path id="SVGID_20_" d="M123.833,71.338l-52.494,52.494c-3.196,3.196-8.381,3.196-11.577,0L7.169,71.24
				c-3.198-3.198-3.198-8.381,0-11.577L59.661,7.168c3.198-3.198,8.381-3.198,11.579,0l52.593,52.593
				C127.029,62.957,127.029,68.142,123.833,71.338L123.833,71.338z M122.048,62.871L68.183,9.006c-1.45-1.452-3.804-1.452-5.254,0
				L9.063,62.871c-1.45,1.45-1.45,3.804,0,5.256l53.865,53.864c1.45,1.452,3.804,1.452,5.254,0l53.865-53.864
				C123.498,66.675,123.498,64.322,122.048,62.871L122.048,62.871z"/>
		</defs>
		<linearGradient id="SVGID_21_" gradientUnits="userSpaceOnUse" x1="14.901" y1="41.9049" x2="116.0995" y2="89.0946">
			<stop  offset="0" style="stop-color:#333333"/>
			<stop  offset="0.6" style="stop-color:#000000"/>
		</linearGradient>
		<use xlink:href="#SVGID_20_"  overflow="visible" fill="url(#SVGID_21_)"/>
		<clipPath id="SVGID_22_">
			<use xlink:href="#SVGID_20_"  overflow="visible"/>
		</clipPath>
	</g>
	<g>
		<defs>
			<path id="SVGID_23_" d="M31.418,49.915v3.355h5.378v2.397h-5.378v6.023h-2.602V47.516h8.833v2.398H31.418L31.418,49.915z
				 M48.491,61.689l-1.126-3.219h-5.149l-1.064,3.219h-2.76l5.02-14.173h2.751l5.159,14.173H48.491L48.491,61.689z M44.755,50.822
				l-1.74,5.261h3.515L44.755,50.822L44.755,50.822z M53.67,61.689V47.633h2.602v11.669h6.469v2.387H53.67L53.67,61.689z
				 M65.566,61.689V47.633h2.602v11.669h6.469v2.387H65.566L65.566,61.689z M87.19,59.302v2.387H77.39V47.516h9.554v2.398h-6.952
				v3.142h6.469v2.389h-6.469v3.857H87.19L87.19,59.302z M97.934,61.689l-5.194-9.242v9.242h-2.416V47.516h2.531l5.273,9.465v-9.465
				h2.416v14.173H97.934L97.934,61.689z M38.892,77.035c0.562,0.362,1.026,0.758,1.392,1.189c0.367,0.433,0.859,1.2,1.481,2.302
				l1.573,2.765h-3.111l-1.882-3.085c-0.667-1.102-1.124-1.796-1.371-2.084c-0.246-0.286-0.507-0.483-0.782-0.59
				c-0.276-0.107-0.712-0.158-1.31-0.158h-0.527v5.916h-2.602V69.117h5.475c1.378,0,2.378,0.128,3.001,0.381
				c0.625,0.255,1.124,0.707,1.499,1.358c0.375,0.651,0.562,1.396,0.562,2.234c0,1.063-0.284,1.941-0.851,2.634
				C40.872,76.418,40.022,76.854,38.892,77.035L38.892,77.035z M39.265,72.118c-0.233-0.292-0.559-0.478-0.98-0.556
				c-0.212-0.032-0.843-0.048-1.898-0.048h-2.03v3.597h1.924c1.249,0,2.029-0.058,2.339-0.174c0.31-0.116,0.554-0.315,0.728-0.599
				c0.176-0.284,0.265-0.638,0.265-1.063C39.612,72.797,39.496,72.412,39.265,72.118L39.265,72.118z M55.919,81.593
				c-1.131,1.292-2.642,1.938-4.535,1.938c-1.916,0-3.439-0.643-4.569-1.928c-1.132-1.286-1.698-3.056-1.698-5.312
				c0-1.444,0.197-2.655,0.59-3.636c0.292-0.72,0.693-1.368,1.2-1.943c0.506-0.573,1.061-0.998,1.665-1.276
				c0.803-0.373,1.728-0.56,2.776-0.56c1.899,0,3.418,0.648,4.558,1.943c1.14,1.295,1.709,3.098,1.709,5.404
				C57.615,78.511,57.049,80.301,55.919,81.593L55.919,81.593z M53.955,72.52c-0.648-0.799-1.507-1.2-2.579-1.2
				c-1.072,0-1.937,0.405-2.592,1.215c-0.657,0.808-0.985,2.029-0.985,3.658c0,1.605,0.338,2.822,1.011,3.65s1.53,1.242,2.566,1.242
				c1.037,0,1.888-0.41,2.554-1.232c0.664-0.822,0.997-2.054,0.997-3.699C54.925,74.531,54.602,73.32,53.955,72.52L53.955,72.52z
				 M67.748,71.958c-0.483-0.425-1.071-0.638-1.762-0.638c-0.955,0-1.73,0.378-2.324,1.132c-0.596,0.754-0.893,1.975-0.893,3.663
				c0,1.793,0.294,3.069,0.88,3.829c0.585,0.761,1.347,1.14,2.284,1.14c0.691,0,1.287-0.242,1.785-0.725
				c0.497-0.483,0.856-1.244,1.072-2.282l2.523,0.88c-0.388,1.547-1.03,2.696-1.93,3.447c-0.9,0.751-2.04,1.126-3.423,1.126
				c-1.712,0-3.117-0.643-4.219-1.928c-1.102-1.286-1.652-3.043-1.652-5.273c0-2.358,0.552-4.191,1.66-5.496
				c1.108-1.305,2.563-1.958,4.369-1.958c1.575,0,2.856,0.512,3.841,1.538c0.585,0.606,1.024,1.476,1.318,2.61l-2.576,0.677
				C68.549,72.965,68.231,72.385,67.748,71.958L67.748,71.958z M86.099,83.29h-3.368l-3.542-6.651l-2.108,2.368v4.283H74.48V69.117
				h2.602v6.293l5.256-6.293h3.497l-4.85,5.521L86.099,83.29L86.099,83.29z M94.474,71.723c-0.367-0.32-0.916-0.478-1.647-0.478
				c-0.756,0-1.349,0.17-1.777,0.512c-0.275,0.218-0.412,0.512-0.412,0.879c0,0.336,0.128,0.623,0.386,0.861
				c0.328,0.304,1.126,0.619,2.39,0.948c1.266,0.328,2.201,0.669,2.809,1.019c0.606,0.352,1.081,0.832,1.423,1.441
				c0.344,0.609,0.515,1.362,0.515,2.258c0,0.812-0.205,1.573-0.615,2.282c-0.41,0.709-0.99,1.236-1.741,1.58
				c-0.749,0.346-1.685,0.517-2.804,0.517c-1.628,0-2.88-0.413-3.752-1.242c-0.874-0.827-1.395-2.035-1.565-3.62l2.531-0.271
				c0.153,0.935,0.462,1.622,0.929,2.059c0.465,0.438,1.093,0.657,1.885,0.657c0.838,0,1.468-0.195,1.893-0.585
				c0.425-0.391,0.638-0.846,0.638-1.368c0-0.336-0.089-0.62-0.268-0.856c-0.179-0.234-0.491-0.439-0.937-0.614
				c-0.304-0.116-0.998-0.321-2.082-0.619c-1.395-0.38-2.373-0.848-2.936-1.402c-0.79-0.78-1.186-1.73-1.186-2.852
				c0-0.722,0.186-1.397,0.557-2.025c0.373-0.628,0.909-1.106,1.609-1.436c0.701-0.328,1.546-0.493,2.536-0.493
				c1.617,0,2.835,0.391,3.652,1.169c0.817,0.78,1.247,1.822,1.287,3.124l-2.602,0.126C95.078,72.566,94.841,72.041,94.474,71.723
				L94.474,71.723z"/>
		</defs>
		<linearGradient id="SVGID_24_" gradientUnits="userSpaceOnUse" x1="28.6331" y1="47.9093" x2="98.0993" y2="80.3019">
			<stop  offset="0" style="stop-color:#333333"/>
			<stop  offset="0.6" style="stop-color:#000000"/>
		</linearGradient>
		<use xlink:href="#SVGID_23_"  overflow="visible" fill="url(#SVGID_24_)"/>
		<clipPath id="SVGID_25_">
			<use xlink:href="#SVGID_23_"  overflow="visible"/>
		</clipPath>
		<linearGradient id="SVGID_26_" gradientUnits="userSpaceOnUse" x1="28.5664" y1="65.5284" x2="100.7937" y2="65.5284">
			<stop  offset="0" style="stop-color:#333333"/>
			<stop  offset="0.6" style="stop-color:#000000"/>
		</linearGradient>
		
			<use xlink:href="#SVGID_23_"  overflow="visible" fill="none" stroke="url(#SVGID_26_)" stroke-width="0.5" stroke-miterlimit="10"/>
	</g>
</g>
</svg>
