<?xml version="1.0" encoding="utf-8"?>
<!-- Generator: Adobe Illustrator 17.0.1, SVG Export Plug-In . SVG Version: 6.00 Build 0)  -->
<!DOCTYPE svg PUBLIC "-//W3C//DTD SVG 1.1//EN" "http://www.w3.org/Graphics/SVG/1.1/DTD/svg11.dtd">
<svg version="1.1" xmlns="http://www.w3.org/2000/svg" xmlns:xlink="http://www.w3.org/1999/xlink" x="0px" y="0px" width="132px"
	 height="132px" viewBox="0 0 132 132" enable-background="new 0 0 132 132" xml:space="preserve">
<g id="disabled">
	<g>
		<defs>
			<path id="SVGID_1_" d="M72.496,5.558l54.946,54.946c3.339,3.339,3.339,8.755,0,12.095L72.599,127.44
				c-3.339,3.341-8.755,3.341-12.095,0L5.56,72.496c-3.341-3.339-3.341-8.755,0-12.095L60.4,5.558
				C63.741,2.219,69.157,2.219,72.496,5.558L72.496,5.558z"/>
		</defs>
		<defs>
			<path id="SVGID_2_" d="M71.496,4.558l54.946,54.946c3.339,3.339,3.339,8.755,0,12.095L71.599,126.44
				c-3.339,3.341-8.755,3.341-12.095,0L4.56,71.496c-3.341-3.339-3.341-8.755,0-12.095L59.4,4.558
				C62.741,1.219,68.157,1.219,71.496,4.558L71.496,4.558z"/>
		</defs>
		<linearGradient id="SVGID_3_" gradientUnits="userSpaceOnUse" x1="3.054" y1="66.5" x2="129.946" y2="66.5">
			<stop  offset="0" style="stop-color:#000000;stop-opacity:0.6"/>
			<stop  offset="1" style="stop-color:#000000;stop-opacity:0.6"/>
		</linearGradient>
		<use xlink:href="#SVGID_1_"  overflow="visible" fill-rule="evenodd" clip-rule="evenodd" fill="url(#SVGID_3_)"/>
		<use xlink:href="#SVGID_2_"  overflow="visible" fill="#BEBEBE"/>
		<clipPath id="SVGID_4_">
			<use xlink:href="#SVGID_1_"  overflow="visible"/>
		</clipPath>
		<clipPath id="SVGID_5_" clip-path="url(#SVGID_4_)">
			<use xlink:href="#SVGID_2_"  overflow="visible"/>
		</clipPath>
	</g>
	<path fill-rule="evenodd" clip-rule="evenodd" d="M123.833,59.761L71.24,7.169c-3.198-3.198-8.381-3.198-11.579,0L7.169,59.661
		c-3.198,3.198-3.198,8.383,0,11.579l52.593,52.593c3.196,3.196,8.381,3.196,11.577,0l52.494-52.494
		C127.029,68.142,127.029,62.958,123.833,59.761z M121.712,69.218l-52.494,52.494c-0.979,0.979-2.282,1.519-3.667,1.519
		c-1.386,0-2.688-0.539-3.668-1.519L9.29,69.119c-0.98-0.979-1.52-2.282-1.52-3.667c0-1.386,0.54-2.689,1.52-3.669L61.782,9.29
		c0.98-0.98,2.283-1.52,3.668-1.52c1.385,0,2.688,0.54,3.668,1.52l52.593,52.592C123.733,63.905,123.733,67.195,121.712,69.218z"/>
	<g>
		<defs>
			<polygon id="SVGID_6_" points="66.033,17.673 48.686,40.453 48.925,41.92 49.662,42.895 50.636,43.386 52.228,43.629 
				53.816,43.021 55.042,42.527 56.628,42.161 57.852,41.679 59.435,41.552 59.435,43.021 59.561,45.226 59.677,47.31 
				60.296,49.146 61.021,51.104 62.005,52.449 62.982,53.677 64.083,54.776 65.173,55.754 66.401,56.611 67.869,57.472 
				69.454,58.207 70.922,59.065 71.897,60.409 72.138,62.127 71.162,63.838 69.696,65.065 67.008,65.558 64.563,66.163 
				61.64,66.658 59.561,67.142 57.233,67.761 54.79,68.61 51.863,69.839 50.153,71.43 47.951,73.758 46.976,76.205 46,79.022 
				45.874,82.819 46.732,86.492 48.315,89.921 50.028,91.755 52.598,93.957 54.673,95.184 56.994,96.045 58.219,97.878 
				58.33,99.715 58.33,102.714 58.33,104.714 58.33,106.715 58.33,108.714 69.329,108.714 69.329,99.715 69.329,95.716 
				68.719,93.474 67.742,91.146 66.527,89.428 64.808,87.842 63.348,86.372 60.905,85.388 58.942,84.287 57.602,82.328 
				58.219,79.882 59.805,78.655 62.247,78.162 65.059,77.429 67.377,76.822 70.796,76.205 73.848,75.103 77.025,73.758 
				79.713,71.555 81.548,69.101 82.89,66.658 83.625,63.23 83.751,59.916 82.774,56.371 81.422,53.919 79.837,51.956 77.52,50.246 
				74.834,48.653 72.505,47.059 71.529,45.958 71.288,44.364 71.288,42.413 72.023,42.044 73.974,42.895 76.785,43.756 
				79.963,44.364 81.79,43.512 82.155,41.552 81.18,39.592 66.033,17.673 			"/>
		</defs>
		<use xlink:href="#SVGID_6_"  overflow="visible" fill-rule="evenodd" clip-rule="evenodd"/>
		<clipPath id="SVGID_7_">
			<use xlink:href="#SVGID_6_"  overflow="visible"/>
		</clipPath>
	</g>
	<linearGradient id="SVGID_8_" gradientUnits="userSpaceOnUse" x1="96.2149" y1="109.365" x2="34.7851" y2="21.6343">
		<stop  offset="0" style="stop-color:#000000;stop-opacity:0"/>
		<stop  offset="1" style="stop-color:#FFFFFF;stop-opacity:0.25"/>
	</linearGradient>
	<path fill-rule="evenodd" clip-rule="evenodd" fill="url(#SVGID_8_)" d="M71.496,4.558l54.946,54.946
		c3.339,3.339,3.339,8.755,0,12.095L71.599,126.44c-3.339,3.341-8.755,3.341-12.095,0L4.56,71.496
		c-3.341-3.339-3.341-8.755,0-12.095L59.4,4.558C62.741,1.219,68.157,1.219,71.496,4.558L71.496,4.558z"/>
</g>
<g id="normal">
	<g>
		<defs>
			<path id="SVGID_9_" d="M72.496,5.558l54.946,54.946c3.339,3.339,3.339,8.755,0,12.095L72.599,127.44
				c-3.339,3.341-8.755,3.341-12.095,0L5.56,72.496c-3.341-3.339-3.341-8.755,0-12.095L60.4,5.558
				C63.741,2.219,69.157,2.219,72.496,5.558L72.496,5.558z"/>
		</defs>
		<defs>
			<path id="SVGID_10_" d="M71.496,4.558l54.946,54.946c3.339,3.339,3.339,8.755,0,12.095L71.599,126.44
				c-3.339,3.341-8.755,3.341-12.095,0L4.56,71.496c-3.341-3.339-3.341-8.755,0-12.095L59.4,4.558
				C62.741,1.219,68.157,1.219,71.496,4.558L71.496,4.558z"/>
		</defs>
		<linearGradient id="SVGID_11_" gradientUnits="userSpaceOnUse" x1="3.054" y1="66.5" x2="129.946" y2="66.5">
			<stop  offset="0" style="stop-color:#000000;stop-opacity:0.6"/>
			<stop  offset="1" style="stop-color:#000000;stop-opacity:0.6"/>
		</linearGradient>
		<use xlink:href="#SVGID_9_"  overflow="visible" fill-rule="evenodd" clip-rule="evenodd" fill="url(#SVGID_11_)"/>
		<use xlink:href="#SVGID_10_"  overflow="visible" fill="#FFC000"/>
		<clipPath id="SVGID_12_">
			<use xlink:href="#SVGID_9_"  overflow="visible"/>
		</clipPath>
		<clipPath id="SVGID_13_" clip-path="url(#SVGID_12_)">
			<use xlink:href="#SVGID_10_"  overflow="visible"/>
		</clipPath>
	</g>
	<path fill-rule="evenodd" clip-rule="evenodd" d="M123.833,59.761L71.24,7.169c-3.198-3.198-8.381-3.198-11.579,0L7.169,59.661
		c-3.198,3.198-3.198,8.383,0,11.579l52.593,52.593c3.196,3.196,8.381,3.196,11.577,0l52.494-52.494
		C127.029,68.142,127.029,62.958,123.833,59.761z M121.712,69.218l-52.494,52.494c-0.979,0.979-2.282,1.519-3.667,1.519
		c-1.386,0-2.688-0.539-3.668-1.519L9.29,69.119c-0.98-0.979-1.52-2.282-1.52-3.667c0-1.386,0.54-2.689,1.52-3.669L61.782,9.29
		c0.98-0.98,2.283-1.52,3.668-1.52c1.385,0,2.688,0.54,3.668,1.52l52.593,52.592C123.733,63.905,123.733,67.195,121.712,69.218z"/>
	<g>
		<defs>
			<polygon id="SVGID_14_" points="66.033,17.673 48.686,40.453 48.925,41.92 49.662,42.895 50.636,43.386 52.228,43.629 
				53.816,43.021 55.042,42.527 56.628,42.161 57.852,41.679 59.435,41.552 59.435,43.021 59.561,45.226 59.677,47.31 
				60.296,49.146 61.021,51.104 62.005,52.449 62.982,53.677 64.083,54.776 65.173,55.754 66.401,56.611 67.869,57.472 
				69.454,58.207 70.922,59.065 71.897,60.409 72.138,62.127 71.162,63.838 69.696,65.065 67.008,65.558 64.563,66.163 
				61.64,66.658 59.561,67.142 57.233,67.761 54.79,68.61 51.863,69.839 50.153,71.43 47.951,73.758 46.976,76.205 46,79.022 
				45.874,82.819 46.732,86.492 48.315,89.921 50.028,91.755 52.598,93.957 54.673,95.184 56.994,96.045 58.219,97.878 
				58.33,99.715 58.33,102.714 58.33,104.714 58.33,106.715 58.33,108.714 69.329,108.714 69.329,99.715 69.329,95.716 
				68.719,93.474 67.742,91.146 66.527,89.428 64.808,87.842 63.348,86.372 60.905,85.388 58.942,84.287 57.602,82.328 
				58.219,79.882 59.805,78.655 62.247,78.162 65.059,77.429 67.377,76.822 70.796,76.205 73.848,75.103 77.025,73.758 
				79.713,71.555 81.548,69.101 82.89,66.658 83.625,63.23 83.751,59.916 82.774,56.371 81.422,53.919 79.837,51.956 77.52,50.246 
				74.834,48.653 72.505,47.059 71.529,45.958 71.288,44.364 71.288,42.413 72.023,42.044 73.974,42.895 76.785,43.756 
				79.963,44.364 81.79,43.512 82.155,41.552 81.18,39.592 66.033,17.673 			"/>
		</defs>
		<use xlink:href="#SVGID_14_"  overflow="visible" fill-rule="evenodd" clip-rule="evenodd"/>
		<clipPath id="SVGID_15_">
			<use xlink:href="#SVGID_14_"  overflow="visible"/>
		</clipPath>
	</g>
	<linearGradient id="SVGID_16_" gradientUnits="userSpaceOnUse" x1="96.2149" y1="109.365" x2="34.7851" y2="21.6343">
		<stop  offset="0" style="stop-color:#000000;stop-opacity:0"/>
		<stop  offset="1" style="stop-color:#FFFFFF;stop-opacity:0.25"/>
	</linearGradient>
	<path fill-rule="evenodd" clip-rule="evenodd" fill="url(#SVGID_16_)" d="M71.496,4.558l54.946,54.946
		c3.339,3.339,3.339,8.755,0,12.095L71.599,126.44c-3.339,3.341-8.755,3.341-12.095,0L4.56,71.496
		c-3.341-3.339-3.341-8.755,0-12.095L59.4,4.558C62.741,1.219,68.157,1.219,71.496,4.558L71.496,4.558z"/>
</g>
</svg>
