<?xml version="1.0" encoding="utf-8"?>
<!-- Generator: Adobe Illustrator 17.0.1, SVG Export Plug-In . SVG Version: 6.00 Build 0)  -->
<!DOCTYPE svg PUBLIC "-//W3C//DTD SVG 1.1//EN" "http://www.w3.org/Graphics/SVG/1.1/DTD/svg11.dtd">
<svg version="1.1" xmlns="http://www.w3.org/2000/svg" xmlns:xlink="http://www.w3.org/1999/xlink" x="0px" y="0px" width="132px"
	 height="132px" viewBox="0 0 132 132" enable-background="new 0 0 132 132" xml:space="preserve">
<g id="disabled">
	<g>
		<defs>
			<path id="SVGID_1_" d="M72.496,5.558l54.946,54.946c3.339,3.339,3.339,8.755,0,12.095L72.599,127.44
				c-3.339,3.341-8.755,3.341-12.095,0L5.56,72.496c-3.341-3.339-3.341-8.756,0-12.097L60.4,5.558
				C63.741,2.219,69.157,2.219,72.496,5.558L72.496,5.558z"/>
		</defs>
		<defs>
			<path id="SVGID_2_" d="M71.496,4.558l54.946,54.946c3.339,3.339,3.339,8.755,0,12.095L71.599,126.44
				c-3.339,3.341-8.755,3.341-12.095,0L4.56,71.496c-3.341-3.339-3.341-8.756,0-12.097L59.4,4.558
				C62.741,1.219,68.157,1.219,71.496,4.558L71.496,4.558z"/>
		</defs>
		<linearGradient id="SVGID_3_" gradientUnits="userSpaceOnUse" x1="3.054" y1="66.5" x2="129.946" y2="66.5">
			<stop  offset="0" style="stop-color:#000000;stop-opacity:0.6"/>
			<stop  offset="1" style="stop-color:#000000;stop-opacity:0.6"/>
		</linearGradient>
		<use xlink:href="#SVGID_1_"  overflow="visible" fill-rule="evenodd" clip-rule="evenodd" fill="url(#SVGID_3_)"/>
		<use xlink:href="#SVGID_2_"  overflow="visible" fill="#BEBEBE"/>
		<clipPath id="SVGID_4_">
			<use xlink:href="#SVGID_1_"  overflow="visible"/>
		</clipPath>
		<clipPath id="SVGID_5_" clip-path="url(#SVGID_4_)">
			<use xlink:href="#SVGID_2_"  overflow="visible"/>
		</clipPath>
	</g>
	<g>
		<defs>
			<path id="SVGID_6_" d="M48.802,40.471c-0.328-0.284-0.819-0.428-1.473-0.428c-0.675,0-1.203,0.153-1.586,0.459
				c-0.245,0.195-0.368,0.457-0.368,0.787c0,0.299,0.115,0.556,0.344,0.769c0.294,0.27,1.006,0.552,2.137,0.846
				c1.131,0.294,1.967,0.598,2.508,0.911c0.543,0.313,0.966,0.743,1.273,1.287c0.305,0.544,0.459,1.216,0.459,2.017
				c0,0.725-0.183,1.405-0.549,2.038c-0.367,0.633-0.885,1.103-1.555,1.412c-0.67,0.309-1.505,0.462-2.505,0.462
				c-1.455,0-2.573-0.37-3.353-1.11c-0.78-0.74-1.245-1.819-1.397-3.235l2.261-0.242c0.136,0.835,0.412,1.449,0.829,1.841
				c0.417,0.391,0.977,0.586,1.685,0.586c0.748,0,1.313-0.174,1.693-0.522c0.38-0.349,0.569-0.756,0.569-1.223
				c0-0.299-0.079-0.554-0.239-0.764c-0.16-0.212-0.439-0.394-0.837-0.549c-0.271-0.103-0.893-0.287-1.861-0.552
				c-1.247-0.341-2.121-0.757-2.623-1.253c-0.707-0.696-1.06-1.546-1.06-2.547c0-0.646,0.165-1.249,0.497-1.811
				c0.333-0.562,0.812-0.988,1.438-1.282c0.625-0.294,1.381-0.441,2.266-0.441c1.444,0,2.533,0.349,3.263,1.045
				c0.73,0.698,1.113,1.628,1.15,2.791l-2.324,0.111C49.342,41.223,49.129,40.757,48.802,40.471L48.802,40.471z M64.035,49.291
				c-1.009,1.153-2.361,1.731-4.051,1.731c-1.712,0-3.074-0.575-4.085-1.723c-1.009-1.148-1.515-2.731-1.515-4.747
				c0-1.289,0.176-2.373,0.527-3.248c0.262-0.644,0.619-1.223,1.071-1.736c0.454-0.512,0.95-0.892,1.489-1.14
				c0.717-0.333,1.544-0.501,2.481-0.501c1.696,0,3.054,0.58,4.072,1.736c1.018,1.158,1.528,2.767,1.528,4.829
				C65.551,46.536,65.046,48.136,64.035,49.291L64.035,49.291z M62.281,41.183c-0.58-0.714-1.347-1.071-2.305-1.071
				c-0.958,0-1.731,0.362-2.318,1.084c-0.586,0.724-0.879,1.814-0.879,3.271c0,1.433,0.3,2.52,0.903,3.261
				c0.602,0.74,1.366,1.11,2.294,1.11c0.925,0,1.686-0.368,2.281-1.102c0.594-0.735,0.892-1.836,0.892-3.305
				C63.148,42.981,62.859,41.899,62.281,41.183L62.281,41.183z M70.508,40.285v2.998h4.807v2.142h-4.807v5.382h-2.324V38.143h7.892
				v2.142H70.508L70.508,40.285z M83.712,40.285v10.521h-2.324V40.285h-3.416v-2.142h9.148v2.142H83.712L83.712,40.285z
				 M23.514,59.77c-0.328-0.286-0.817-0.428-1.473-0.428c-0.675,0-1.203,0.153-1.586,0.457c-0.246,0.197-0.368,0.459-0.368,0.787
				c0,0.3,0.115,0.556,0.346,0.769c0.292,0.271,1.005,0.552,2.135,0.846s1.967,0.598,2.51,0.911
				c0.541,0.315,0.966,0.743,1.271,1.287c0.307,0.544,0.46,1.218,0.46,2.017c0,0.725-0.184,1.405-0.551,2.038
				c-0.367,0.633-0.885,1.105-1.554,1.413c-0.67,0.307-1.505,0.462-2.505,0.462c-1.455,0-2.573-0.37-3.353-1.11
				c-0.78-0.741-1.247-1.819-1.399-3.235l2.261-0.242c0.137,0.835,0.414,1.449,0.829,1.84c0.417,0.392,0.979,0.588,1.685,0.588
				c0.749,0,1.313-0.174,1.693-0.523c0.38-0.347,0.569-0.756,0.569-1.223c0-0.299-0.079-0.554-0.239-0.764
				c-0.16-0.21-0.438-0.392-0.837-0.548c-0.271-0.105-0.892-0.289-1.861-0.554c-1.245-0.339-2.121-0.757-2.623-1.252
				c-0.706-0.698-1.06-1.547-1.06-2.549c0-0.644,0.166-1.248,0.499-1.809c0.331-0.562,0.811-0.99,1.436-1.284
				c0.627-0.292,1.381-0.439,2.266-0.439c1.446,0,2.533,0.347,3.263,1.045c0.73,0.696,1.114,1.626,1.15,2.789l-2.324,0.113
				C24.055,60.523,23.842,60.055,23.514,59.77L23.514,59.77z M36.454,70.106v-5.537H31.9v5.537h-2.324V57.441H31.9v4.984h4.555
				v-4.984h2.324v12.664H36.454L36.454,70.106z M51.165,68.589c-1.009,1.155-2.361,1.731-4.052,1.731
				c-1.71,0-3.072-0.573-4.083-1.723c-1.009-1.148-1.515-2.73-1.515-4.745c0-1.291,0.174-2.373,0.527-3.248
				c0.262-0.644,0.619-1.224,1.071-1.736c0.454-0.512,0.95-0.893,1.489-1.14c0.717-0.334,1.544-0.501,2.481-0.501
				c1.696,0,3.053,0.578,4.072,1.736c1.018,1.156,1.526,2.767,1.526,4.828C52.68,65.835,52.176,67.434,51.165,68.589L51.165,68.589z
				 M49.411,60.483c-0.58-0.714-1.347-1.071-2.305-1.071c-0.959,0-1.731,0.362-2.318,1.084s-0.879,1.812-0.879,3.269
				c0,1.434,0.3,2.521,0.903,3.261c0.602,0.74,1.366,1.11,2.293,1.11c0.925,0,1.686-0.367,2.281-1.102
				c0.594-0.733,0.892-1.835,0.892-3.303C50.279,62.279,49.989,61.196,49.411,60.483L49.411,60.483z M64.275,67.315
				c-0.126,0.628-0.359,1.158-0.696,1.589c-0.338,0.433-0.788,0.777-1.354,1.032c-0.565,0.257-1.303,0.384-2.214,0.384
				c-1.1,0-1.933-0.139-2.502-0.418c-0.569-0.279-1.018-0.641-1.347-1.089c-0.329-0.446-0.546-0.914-0.651-1.404
				c-0.152-0.725-0.228-1.796-0.228-3.213v-6.756h2.324v6.86c0,1.089,0.029,1.793,0.086,2.116c0.1,0.519,0.338,0.935,0.711,1.249
				c0.375,0.313,0.887,0.47,1.536,0.47c0.659,0,1.156-0.147,1.492-0.444c0.334-0.297,0.536-0.661,0.604-1.093
				c0.068-0.431,0.102-1.148,0.102-2.15v-7.007h2.324v6.651C64.463,65.614,64.4,66.688,64.275,67.315L64.275,67.315z M67.78,70.106
				V57.546h2.324v10.426h5.779v2.134H67.78L67.78,70.106z M87.635,66.589c-0.289,0.922-0.699,1.667-1.234,2.237
				c-0.402,0.433-0.947,0.769-1.633,1.011c-0.514,0.178-1.198,0.268-2.058,0.268h-4.374V57.441h4.249
				c0.958,0,1.688,0.081,2.19,0.242c0.675,0.22,1.253,0.607,1.735,1.166c0.483,0.559,0.85,1.242,1.1,2.051
				c0.252,0.809,0.376,1.807,0.376,2.993C87.987,64.937,87.871,65.835,87.635,66.589L87.635,66.589z M85.35,61.528
				c-0.157-0.523-0.376-0.934-0.661-1.226c-0.283-0.294-0.641-0.493-1.076-0.596c-0.325-0.081-0.959-0.121-1.907-0.121h-1.045v8.388
				h1.736c0.649,0,1.118-0.04,1.405-0.121c0.376-0.103,0.69-0.279,0.938-0.527c0.249-0.249,0.452-0.656,0.609-1.223
				c0.157-0.567,0.236-1.341,0.236-2.319S85.507,62.052,85.35,61.528L85.35,61.528z M99.52,67.972v2.134h-8.756V57.441H99.3v2.143
				h-6.212v2.807h5.779v2.134h-5.779v3.447H99.52L99.52,67.972z M108.679,64.517c0.502,0.321,0.917,0.675,1.244,1.061
				c0.328,0.386,0.769,1.071,1.323,2.056l1.407,2.471h-2.78l-1.681-2.755c-0.596-0.985-1.005-1.605-1.224-1.862
				c-0.22-0.255-0.454-0.431-0.699-0.527c-0.246-0.095-0.636-0.142-1.169-0.142h-0.472v5.286h-2.324V57.441h4.892
				c1.229,0,2.124,0.115,2.681,0.342c0.557,0.228,1.003,0.632,1.339,1.213c0.334,0.581,0.502,1.247,0.502,1.995
				c0,0.951-0.254,1.736-0.762,2.355C110.448,63.965,109.689,64.356,108.679,64.517L108.679,64.517z M109.012,60.124
				c-0.207-0.262-0.499-0.428-0.875-0.497c-0.189-0.027-0.754-0.042-1.696-0.042h-1.814v3.213h1.72c1.114,0,1.811-0.052,2.088-0.155
				c0.278-0.103,0.494-0.283,0.651-0.536c0.158-0.252,0.236-0.57,0.236-0.95C109.322,60.73,109.219,60.386,109.012,60.124
				L109.012,60.124z"/>
		</defs>
		<use xlink:href="#SVGID_6_"  overflow="visible" fill-rule="evenodd" clip-rule="evenodd"/>
		<clipPath id="SVGID_7_">
			<use xlink:href="#SVGID_6_"  overflow="visible"/>
		</clipPath>
	</g>
	<path fill-rule="evenodd" clip-rule="evenodd" d="M123.833,59.761L71.24,7.169c-3.198-3.198-8.381-3.198-11.579,0L7.169,59.661
		c-3.198,3.198-3.198,8.383,0,11.579l52.593,52.593c3.196,3.196,8.381,3.196,11.577,0l52.494-52.494
		C127.029,68.142,127.029,62.958,123.833,59.761z M121.712,69.218l-52.494,52.494c-0.979,0.979-2.282,1.519-3.667,1.519
		c-1.386,0-2.688-0.539-3.668-1.519L9.29,69.119c-0.98-0.979-1.52-2.282-1.52-3.667c0-1.386,0.54-2.689,1.52-3.669L61.782,9.29
		c0.98-0.98,2.283-1.52,3.668-1.52c1.385,0,2.688,0.54,3.668,1.52l52.593,52.592C123.733,63.905,123.733,67.195,121.712,69.218z"/>
	<linearGradient id="SVGID_8_" gradientUnits="userSpaceOnUse" x1="96.2149" y1="109.365" x2="34.7851" y2="21.6342">
		<stop  offset="0" style="stop-color:#000000;stop-opacity:0"/>
		<stop  offset="1" style="stop-color:#FFFFFF;stop-opacity:0.25"/>
	</linearGradient>
	<path fill-rule="evenodd" clip-rule="evenodd" fill="url(#SVGID_8_)" d="M71.496,4.558l54.946,54.946
		c3.339,3.339,3.339,8.755,0,12.095L71.599,126.44c-3.339,3.341-8.755,3.341-12.095,0L4.56,71.496
		c-3.341-3.339-3.341-8.756,0-12.097L59.4,4.558C62.741,1.219,68.157,1.219,71.496,4.558L71.496,4.558z"/>
</g>
<g id="normal">
	<g>
		<defs>
			<path id="SVGID_9_" d="M72.496,5.558l54.946,54.946c3.339,3.339,3.339,8.755,0,12.095L72.599,127.44
				c-3.339,3.341-8.755,3.341-12.095,0L5.56,72.496c-3.341-3.339-3.341-8.756,0-12.097L60.4,5.558
				C63.741,2.219,69.157,2.219,72.496,5.558L72.496,5.558z"/>
		</defs>
		<defs>
			<path id="SVGID_10_" d="M71.496,4.558l54.946,54.946c3.339,3.339,3.339,8.755,0,12.095L71.599,126.44
				c-3.339,3.341-8.755,3.341-12.095,0L4.56,71.496c-3.341-3.339-3.341-8.756,0-12.097L59.4,4.558
				C62.741,1.219,68.157,1.219,71.496,4.558L71.496,4.558z"/>
		</defs>
		<linearGradient id="SVGID_11_" gradientUnits="userSpaceOnUse" x1="3.054" y1="66.5" x2="129.946" y2="66.5">
			<stop  offset="0" style="stop-color:#000000;stop-opacity:0.6"/>
			<stop  offset="1" style="stop-color:#000000;stop-opacity:0.6"/>
		</linearGradient>
		<use xlink:href="#SVGID_9_"  overflow="visible" fill-rule="evenodd" clip-rule="evenodd" fill="url(#SVGID_11_)"/>
		<use xlink:href="#SVGID_10_"  overflow="visible" fill="#FFC000"/>
		<clipPath id="SVGID_12_">
			<use xlink:href="#SVGID_9_"  overflow="visible"/>
		</clipPath>
		<clipPath id="SVGID_13_" clip-path="url(#SVGID_12_)">
			<use xlink:href="#SVGID_10_"  overflow="visible"/>
		</clipPath>
	</g>
	<g>
		<defs>
			<path id="SVGID_14_" d="M48.802,40.471c-0.328-0.284-0.819-0.428-1.473-0.428c-0.675,0-1.203,0.153-1.586,0.459
				c-0.245,0.195-0.368,0.457-0.368,0.787c0,0.299,0.115,0.556,0.344,0.769c0.294,0.27,1.006,0.552,2.137,0.846
				c1.131,0.294,1.967,0.598,2.508,0.911c0.543,0.313,0.966,0.743,1.273,1.287c0.305,0.544,0.459,1.216,0.459,2.017
				c0,0.725-0.183,1.405-0.549,2.038c-0.367,0.633-0.885,1.103-1.555,1.412c-0.67,0.309-1.505,0.462-2.505,0.462
				c-1.455,0-2.573-0.37-3.353-1.11c-0.78-0.74-1.245-1.819-1.397-3.235l2.261-0.242c0.136,0.835,0.412,1.449,0.829,1.841
				c0.417,0.391,0.977,0.586,1.685,0.586c0.748,0,1.313-0.174,1.693-0.522c0.38-0.349,0.569-0.756,0.569-1.223
				c0-0.299-0.079-0.554-0.239-0.764c-0.16-0.212-0.439-0.394-0.837-0.549c-0.271-0.103-0.893-0.287-1.861-0.552
				c-1.247-0.341-2.121-0.757-2.623-1.253c-0.707-0.696-1.06-1.546-1.06-2.547c0-0.646,0.165-1.249,0.497-1.811
				c0.333-0.562,0.812-0.988,1.438-1.282c0.625-0.294,1.381-0.441,2.266-0.441c1.444,0,2.533,0.349,3.263,1.045
				c0.73,0.698,1.113,1.628,1.15,2.791l-2.324,0.111C49.342,41.223,49.129,40.757,48.802,40.471L48.802,40.471z M64.035,49.291
				c-1.009,1.153-2.361,1.731-4.051,1.731c-1.712,0-3.074-0.575-4.085-1.723c-1.009-1.148-1.515-2.731-1.515-4.747
				c0-1.289,0.176-2.373,0.527-3.248c0.262-0.644,0.619-1.223,1.071-1.736c0.454-0.512,0.95-0.892,1.489-1.14
				c0.717-0.333,1.544-0.501,2.481-0.501c1.696,0,3.054,0.58,4.072,1.736c1.018,1.158,1.528,2.767,1.528,4.829
				C65.551,46.536,65.046,48.136,64.035,49.291L64.035,49.291z M62.281,41.183c-0.58-0.714-1.347-1.071-2.305-1.071
				c-0.958,0-1.731,0.362-2.318,1.084c-0.586,0.724-0.879,1.814-0.879,3.271c0,1.433,0.3,2.52,0.903,3.261
				c0.602,0.74,1.366,1.11,2.294,1.11c0.925,0,1.686-0.368,2.281-1.102c0.594-0.735,0.892-1.836,0.892-3.305
				C63.148,42.981,62.859,41.899,62.281,41.183L62.281,41.183z M70.508,40.285v2.998h4.807v2.142h-4.807v5.382h-2.324V38.143h7.892
				v2.142H70.508L70.508,40.285z M83.712,40.285v10.521h-2.324V40.285h-3.416v-2.142h9.148v2.142H83.712L83.712,40.285z
				 M23.514,59.77c-0.328-0.286-0.817-0.428-1.473-0.428c-0.675,0-1.203,0.153-1.586,0.457c-0.246,0.197-0.368,0.459-0.368,0.787
				c0,0.3,0.115,0.556,0.346,0.769c0.292,0.271,1.005,0.552,2.135,0.846s1.967,0.598,2.51,0.911
				c0.541,0.315,0.966,0.743,1.271,1.287c0.307,0.544,0.46,1.218,0.46,2.017c0,0.725-0.184,1.405-0.551,2.038
				c-0.367,0.633-0.885,1.105-1.554,1.413c-0.67,0.307-1.505,0.462-2.505,0.462c-1.455,0-2.573-0.37-3.353-1.11
				c-0.78-0.741-1.247-1.819-1.399-3.235l2.261-0.242c0.137,0.835,0.414,1.449,0.829,1.84c0.417,0.392,0.979,0.588,1.685,0.588
				c0.749,0,1.313-0.174,1.693-0.523c0.38-0.347,0.569-0.756,0.569-1.223c0-0.299-0.079-0.554-0.239-0.764
				c-0.16-0.21-0.438-0.392-0.837-0.548c-0.271-0.105-0.892-0.289-1.861-0.554c-1.245-0.339-2.121-0.757-2.623-1.252
				c-0.706-0.698-1.06-1.547-1.06-2.549c0-0.644,0.166-1.248,0.499-1.809c0.331-0.562,0.811-0.99,1.436-1.284
				c0.627-0.292,1.381-0.439,2.266-0.439c1.446,0,2.533,0.347,3.263,1.045c0.73,0.696,1.114,1.626,1.15,2.789l-2.324,0.113
				C24.055,60.523,23.842,60.055,23.514,59.77L23.514,59.77z M36.454,70.106v-5.537H31.9v5.537h-2.324V57.441H31.9v4.984h4.555
				v-4.984h2.324v12.664H36.454L36.454,70.106z M51.165,68.589c-1.009,1.155-2.361,1.731-4.052,1.731
				c-1.71,0-3.072-0.573-4.083-1.723c-1.009-1.148-1.515-2.73-1.515-4.745c0-1.291,0.174-2.373,0.527-3.248
				c0.262-0.644,0.619-1.224,1.071-1.736c0.454-0.512,0.95-0.893,1.489-1.14c0.717-0.334,1.544-0.501,2.481-0.501
				c1.696,0,3.053,0.578,4.072,1.736c1.018,1.156,1.526,2.767,1.526,4.828C52.68,65.835,52.176,67.434,51.165,68.589L51.165,68.589z
				 M49.411,60.483c-0.58-0.714-1.347-1.071-2.305-1.071c-0.959,0-1.731,0.362-2.318,1.084s-0.879,1.812-0.879,3.269
				c0,1.434,0.3,2.521,0.903,3.261c0.602,0.74,1.366,1.11,2.293,1.11c0.925,0,1.686-0.367,2.281-1.102
				c0.594-0.733,0.892-1.835,0.892-3.303C50.279,62.279,49.989,61.196,49.411,60.483L49.411,60.483z M64.275,67.315
				c-0.126,0.628-0.359,1.158-0.696,1.589c-0.338,0.433-0.788,0.777-1.354,1.032c-0.565,0.257-1.303,0.384-2.214,0.384
				c-1.1,0-1.933-0.139-2.502-0.418c-0.569-0.279-1.018-0.641-1.347-1.089c-0.329-0.446-0.546-0.914-0.651-1.404
				c-0.152-0.725-0.228-1.796-0.228-3.213v-6.756h2.324v6.86c0,1.089,0.029,1.793,0.086,2.116c0.1,0.519,0.338,0.935,0.711,1.249
				c0.375,0.313,0.887,0.47,1.536,0.47c0.659,0,1.156-0.147,1.492-0.444c0.334-0.297,0.536-0.661,0.604-1.093
				c0.068-0.431,0.102-1.148,0.102-2.15v-7.007h2.324v6.651C64.463,65.614,64.4,66.688,64.275,67.315L64.275,67.315z M67.78,70.106
				V57.546h2.324v10.426h5.779v2.134H67.78L67.78,70.106z M87.635,66.589c-0.289,0.922-0.699,1.667-1.234,2.237
				c-0.402,0.433-0.947,0.769-1.633,1.011c-0.514,0.178-1.198,0.268-2.058,0.268h-4.374V57.441h4.249
				c0.958,0,1.688,0.081,2.19,0.242c0.675,0.22,1.253,0.607,1.735,1.166c0.483,0.559,0.85,1.242,1.1,2.051
				c0.252,0.809,0.376,1.807,0.376,2.993C87.987,64.937,87.871,65.835,87.635,66.589L87.635,66.589z M85.35,61.528
				c-0.157-0.523-0.376-0.934-0.661-1.226c-0.283-0.294-0.641-0.493-1.076-0.596c-0.325-0.081-0.959-0.121-1.907-0.121h-1.045v8.388
				h1.736c0.649,0,1.118-0.04,1.405-0.121c0.376-0.103,0.69-0.279,0.938-0.527c0.249-0.249,0.452-0.656,0.609-1.223
				c0.157-0.567,0.236-1.341,0.236-2.319S85.507,62.052,85.35,61.528L85.35,61.528z M99.52,67.972v2.134h-8.756V57.441H99.3v2.143
				h-6.212v2.807h5.779v2.134h-5.779v3.447H99.52L99.52,67.972z M108.679,64.517c0.502,0.321,0.917,0.675,1.244,1.061
				c0.328,0.386,0.769,1.071,1.323,2.056l1.407,2.471h-2.78l-1.681-2.755c-0.596-0.985-1.005-1.605-1.224-1.862
				c-0.22-0.255-0.454-0.431-0.699-0.527c-0.246-0.095-0.636-0.142-1.169-0.142h-0.472v5.286h-2.324V57.441h4.892
				c1.229,0,2.124,0.115,2.681,0.342c0.557,0.228,1.003,0.632,1.339,1.213c0.334,0.581,0.502,1.247,0.502,1.995
				c0,0.951-0.254,1.736-0.762,2.355C110.448,63.965,109.689,64.356,108.679,64.517L108.679,64.517z M109.012,60.124
				c-0.207-0.262-0.499-0.428-0.875-0.497c-0.189-0.027-0.754-0.042-1.696-0.042h-1.814v3.213h1.72c1.114,0,1.811-0.052,2.088-0.155
				c0.278-0.103,0.494-0.283,0.651-0.536c0.158-0.252,0.236-0.57,0.236-0.95C109.322,60.73,109.219,60.386,109.012,60.124
				L109.012,60.124z"/>
		</defs>
		<use xlink:href="#SVGID_14_"  overflow="visible" fill-rule="evenodd" clip-rule="evenodd"/>
		<clipPath id="SVGID_15_">
			<use xlink:href="#SVGID_14_"  overflow="visible"/>
		</clipPath>
	</g>
	<path fill-rule="evenodd" clip-rule="evenodd" d="M123.833,59.761L71.24,7.169c-3.198-3.198-8.381-3.198-11.579,0L7.169,59.661
		c-3.198,3.198-3.198,8.383,0,11.579l52.593,52.593c3.196,3.196,8.381,3.196,11.577,0l52.494-52.494
		C127.029,68.142,127.029,62.958,123.833,59.761z M121.712,69.218l-52.494,52.494c-0.979,0.979-2.282,1.519-3.667,1.519
		c-1.386,0-2.688-0.539-3.668-1.519L9.29,69.119c-0.98-0.979-1.52-2.282-1.52-3.667c0-1.386,0.54-2.689,1.52-3.669L61.782,9.29
		c0.98-0.98,2.283-1.52,3.668-1.52c1.385,0,2.688,0.54,3.668,1.52l52.593,52.592C123.733,63.905,123.733,67.195,121.712,69.218z"/>
	<linearGradient id="SVGID_16_" gradientUnits="userSpaceOnUse" x1="96.2149" y1="109.365" x2="34.7851" y2="21.6342">
		<stop  offset="0" style="stop-color:#000000;stop-opacity:0"/>
		<stop  offset="1" style="stop-color:#FFFFFF;stop-opacity:0.25"/>
	</linearGradient>
	<path fill-rule="evenodd" clip-rule="evenodd" fill="url(#SVGID_16_)" d="M71.496,4.558l54.946,54.946
		c3.339,3.339,3.339,8.755,0,12.095L71.599,126.44c-3.339,3.341-8.755,3.341-12.095,0L4.56,71.496
		c-3.341-3.339-3.341-8.756,0-12.097L59.4,4.558C62.741,1.219,68.157,1.219,71.496,4.558L71.496,4.558z"/>
</g>
</svg>
