<?xml version="1.0" encoding="utf-8"?>
<!-- Generator: Adobe Illustrator 17.0.1, SVG Export Plug-In . SVG Version: 6.00 Build 0)  -->
<!DOCTYPE svg PUBLIC "-//W3C//DTD SVG 1.1//EN" "http://www.w3.org/Graphics/SVG/1.1/DTD/svg11.dtd">
<svg version="1.1" xmlns="http://www.w3.org/2000/svg" xmlns:xlink="http://www.w3.org/1999/xlink" x="0px" y="0px" width="132px"
	 height="132px" viewBox="0 0 132 132" enable-background="new 0 0 132 132" xml:space="preserve">
<g id="disabled">
	<g>
		<defs>
			<path id="SVGID_1_" d="M66.499,2.71c35.231,0,63.792,28.557,63.792,63.789s-28.561,63.792-63.792,63.792
				c-35.23,0-63.79-28.561-63.79-63.792S31.269,2.71,66.499,2.71L66.499,2.71z"/>
		</defs>
		<defs>
			<path id="SVGID_2_" d="M65.499,1.71c35.231,0,63.792,28.557,63.792,63.789s-28.561,63.792-63.792,63.792
				c-35.23,0-63.79-28.561-63.79-63.792S30.269,1.71,65.499,1.71L65.499,1.71z"/>
		</defs>
		<linearGradient id="SVGID_3_" gradientUnits="userSpaceOnUse" x1="2.7088" y1="66.5" x2="130.2912" y2="66.5">
			<stop  offset="0" style="stop-color:#000000;stop-opacity:0.6"/>
			<stop  offset="1" style="stop-color:#000000;stop-opacity:0.6"/>
		</linearGradient>
		<use xlink:href="#SVGID_1_"  overflow="visible" fill-rule="evenodd" clip-rule="evenodd" fill="url(#SVGID_3_)"/>
		<use xlink:href="#SVGID_2_"  overflow="visible" fill-rule="evenodd" clip-rule="evenodd" fill="#FFFFFF"/>
		<clipPath id="SVGID_4_">
			<use xlink:href="#SVGID_1_"  overflow="visible"/>
		</clipPath>
		<clipPath id="SVGID_5_" clip-path="url(#SVGID_4_)">
			<use xlink:href="#SVGID_2_"  overflow="visible"/>
		</clipPath>
	</g>
	<g>
		<defs>
			<path id="SVGID_6_" d="M65.499,4.247c33.829,0,61.253,27.422,61.253,61.251c0,33.828-27.424,61.251-61.253,61.251
				c-33.828,0-61.251-27.424-61.251-61.251C4.248,31.669,31.671,4.247,65.499,4.247L65.499,4.247z"/>
		</defs>
		<use xlink:href="#SVGID_6_"  overflow="visible" fill="#5C5C5C"/>
		<clipPath id="SVGID_7_">
			<use xlink:href="#SVGID_6_"  overflow="visible"/>
		</clipPath>
	</g>
	<g>
		<defs>
			<path id="SVGID_8_" d="M65.502,18.456c25.985,0,47.049,21.063,47.049,47.048c0,25.985-21.065,47.048-47.049,47.048
				c-25.983,0-47.048-21.063-47.048-47.048C18.455,39.519,39.519,18.456,65.502,18.456L65.502,18.456z"/>
		</defs>
		<use xlink:href="#SVGID_8_"  overflow="visible" fill-rule="evenodd" clip-rule="evenodd" fill="#FFFFFF"/>
		<clipPath id="SVGID_9_">
			<use xlink:href="#SVGID_8_"  overflow="visible"/>
		</clipPath>
	</g>
	<g>
		<defs>
			<path id="SVGID_10_" d="M65.504,21.362c24.377,0,44.14,19.763,44.14,44.14c0,24.379-19.763,44.142-44.14,44.142
				c-24.379,0-44.142-19.763-44.142-44.142C21.362,41.125,41.125,21.362,65.504,21.362L65.504,21.362z"/>
		</defs>
		<use xlink:href="#SVGID_10_"  overflow="visible" fill-rule="evenodd" clip-rule="evenodd" fill="#FFFFFF"/>
		<clipPath id="SVGID_11_">
			<use xlink:href="#SVGID_10_"  overflow="visible"/>
		</clipPath>
	</g>
	<g>
		<defs>
			<path id="SVGID_12_" d="M35.474,73.762c-3.106,1.236-5.303,4.264-5.303,7.811c0,0.045,0.005,0.09,0.006,0.136h-5.731
				c-1.003-2.542-1.781-5.198-2.302-7.947H35.474L35.474,73.762z M38.581,88.379c-3.76,0-6.808-3.046-6.808-6.808
				c0-3.76,3.048-6.808,6.808-6.808c3.76,0,6.808,3.048,6.808,6.808C45.389,85.333,42.341,88.379,38.581,88.379L38.581,88.379z
				 M41.69,73.762h14.919l-1.901,7.947h-7.722c0-0.045,0.006-0.09,0.006-0.136C46.993,78.026,44.795,74.997,41.69,73.762
				L41.69,73.762z M21.362,65.502c0-6.722,1.509-13.091,4.198-18.794h32.15v25.001H21.804C21.519,69.68,21.362,67.61,21.362,65.502
				L21.362,65.502z M109.202,71.709H99.71V46.708h5.737c2.689,5.703,4.198,12.072,4.198,18.794
				C109.645,67.61,109.488,69.68,109.202,71.709L109.202,71.709z M77.085,81.571c0-3.76,3.049-6.808,6.809-6.808
				c3.76,0,6.808,3.048,6.808,6.808c0,3.762-3.048,6.808-6.808,6.808C80.134,88.379,77.085,85.333,77.085,81.571L77.085,81.571z
				 M96.709,65.709c-0.132,3.519-1,5.795-1,9.001c0,0.373-0.011,0.643,0,0.998h4.001v-2l9.156,0.026
				c-0.52,2.759-1.3,5.424-2.306,7.974h-6.85v-1h-4.001c0.048,0.233,0,1,0,1h-3.411c0.002-0.045,0.006-0.09,0.006-0.136
				c0-4.647-3.765-8.412-8.41-8.412s-8.412,3.765-8.412,8.412c0,0.045,0.006,0.09,0.006,0.136h-2.78c0,0,0-6.94,0-8
				c0-2.143,0.935-1.762,0.935-5.306c0-7.069,5.065-14.693,5.065-14.693h17.999C96.709,53.71,96.92,60.107,96.709,65.709
				L96.709,65.709z M90.708,55.709H79.709l-3.001,9h14V55.709L90.708,55.709z"/>
		</defs>
		<use xlink:href="#SVGID_12_"  overflow="visible" fill-rule="evenodd" clip-rule="evenodd"/>
		<clipPath id="SVGID_13_">
			<use xlink:href="#SVGID_12_"  overflow="visible"/>
		</clipPath>
	</g>
	<linearGradient id="SVGID_14_" gradientUnits="userSpaceOnUse" x1="102.0922" y1="117.758" x2="28.9081" y2="13.2404">
		<stop  offset="0" style="stop-color:#000000;stop-opacity:0"/>
		<stop  offset="1" style="stop-color:#FFFFFF;stop-opacity:0.25"/>
	</linearGradient>
	<path fill-rule="evenodd" clip-rule="evenodd" fill="url(#SVGID_14_)" d="M65.499,1.71c35.231,0,63.792,28.557,63.792,63.789
		s-28.561,63.792-63.792,63.792c-35.23,0-63.79-28.561-63.79-63.792S30.269,1.71,65.499,1.71L65.499,1.71z"/>
</g>
<g id="normal">
	<g>
		<defs>
			<path id="SVGID_15_" d="M66.499,2.71c35.231,0,63.792,28.557,63.792,63.789s-28.561,63.792-63.792,63.792
				c-35.23,0-63.79-28.561-63.79-63.792S31.269,2.71,66.499,2.71L66.499,2.71z"/>
		</defs>
		<defs>
			<path id="SVGID_16_" d="M65.499,1.71c35.231,0,63.792,28.557,63.792,63.789s-28.561,63.792-63.792,63.792
				c-35.23,0-63.79-28.561-63.79-63.792S30.269,1.71,65.499,1.71L65.499,1.71z"/>
		</defs>
		<linearGradient id="SVGID_17_" gradientUnits="userSpaceOnUse" x1="2.7088" y1="66.5" x2="130.2912" y2="66.5">
			<stop  offset="0" style="stop-color:#000000;stop-opacity:0.6"/>
			<stop  offset="1" style="stop-color:#000000;stop-opacity:0.6"/>
		</linearGradient>
		<use xlink:href="#SVGID_15_"  overflow="visible" fill-rule="evenodd" clip-rule="evenodd" fill="url(#SVGID_17_)"/>
		<use xlink:href="#SVGID_16_"  overflow="visible" fill-rule="evenodd" clip-rule="evenodd" fill="#FFFFFF"/>
		<clipPath id="SVGID_18_">
			<use xlink:href="#SVGID_15_"  overflow="visible"/>
		</clipPath>
		<clipPath id="SVGID_19_" clip-path="url(#SVGID_18_)">
			<use xlink:href="#SVGID_16_"  overflow="visible"/>
		</clipPath>
	</g>
	<g>
		<defs>
			<path id="SVGID_20_" d="M65.499,4.247c33.829,0,61.253,27.422,61.253,61.251c0,33.828-27.424,61.251-61.253,61.251
				c-33.828,0-61.251-27.424-61.251-61.251C4.248,31.669,31.671,4.247,65.499,4.247L65.499,4.247z"/>
		</defs>
		<use xlink:href="#SVGID_20_"  overflow="visible" fill="#ED1C24"/>
		<clipPath id="SVGID_21_">
			<use xlink:href="#SVGID_20_"  overflow="visible"/>
		</clipPath>
	</g>
	<g>
		<defs>
			<path id="SVGID_22_" d="M65.502,18.456c25.985,0,47.049,21.063,47.049,47.048c0,25.985-21.065,47.048-47.049,47.048
				c-25.983,0-47.048-21.063-47.048-47.048C18.455,39.519,39.519,18.456,65.502,18.456L65.502,18.456z"/>
		</defs>
		<use xlink:href="#SVGID_22_"  overflow="visible" fill-rule="evenodd" clip-rule="evenodd" fill="#FFFFFF"/>
		<clipPath id="SVGID_23_">
			<use xlink:href="#SVGID_22_"  overflow="visible"/>
		</clipPath>
	</g>
	<g>
		<defs>
			<path id="SVGID_24_" d="M65.504,21.362c24.377,0,44.14,19.763,44.14,44.14c0,24.379-19.763,44.142-44.14,44.142
				c-24.379,0-44.142-19.763-44.142-44.142C21.362,41.125,41.125,21.362,65.504,21.362L65.504,21.362z"/>
		</defs>
		<use xlink:href="#SVGID_24_"  overflow="visible" fill-rule="evenodd" clip-rule="evenodd" fill="#FFFFFF"/>
		<clipPath id="SVGID_25_">
			<use xlink:href="#SVGID_24_"  overflow="visible"/>
		</clipPath>
	</g>
	<g>
		<defs>
			<path id="SVGID_26_" d="M35.474,73.762c-3.106,1.236-5.303,4.264-5.303,7.811c0,0.045,0.005,0.09,0.006,0.136h-5.731
				c-1.003-2.542-1.781-5.198-2.302-7.947H35.474L35.474,73.762z M38.581,88.379c-3.76,0-6.808-3.046-6.808-6.808
				c0-3.76,3.048-6.808,6.808-6.808c3.76,0,6.808,3.048,6.808,6.808C45.389,85.333,42.341,88.379,38.581,88.379L38.581,88.379z
				 M41.69,73.762h14.919l-1.901,7.947h-7.722c0-0.045,0.006-0.09,0.006-0.136C46.993,78.026,44.795,74.997,41.69,73.762
				L41.69,73.762z M21.362,65.502c0-6.722,1.509-13.091,4.198-18.794h32.15v25.001H21.804C21.519,69.68,21.362,67.61,21.362,65.502
				L21.362,65.502z M109.202,71.709H99.71V46.708h5.737c2.689,5.703,4.198,12.072,4.198,18.794
				C109.645,67.61,109.488,69.68,109.202,71.709L109.202,71.709z M77.085,81.571c0-3.76,3.049-6.808,6.809-6.808
				c3.76,0,6.808,3.048,6.808,6.808c0,3.762-3.048,6.808-6.808,6.808C80.134,88.379,77.085,85.333,77.085,81.571L77.085,81.571z
				 M96.709,65.709c-0.132,3.519-1,5.795-1,9.001c0,0.373-0.011,0.643,0,0.998h4.001v-2l9.156,0.026
				c-0.52,2.759-1.3,5.424-2.306,7.974h-6.85v-1h-4.001c0.048,0.233,0,1,0,1h-3.411c0.002-0.045,0.006-0.09,0.006-0.136
				c0-4.647-3.765-8.412-8.41-8.412s-8.412,3.765-8.412,8.412c0,0.045,0.006,0.09,0.006,0.136h-2.78c0,0,0-6.94,0-8
				c0-2.143,0.935-1.762,0.935-5.306c0-7.069,5.065-14.693,5.065-14.693h17.999C96.709,53.71,96.92,60.107,96.709,65.709
				L96.709,65.709z M90.708,55.709H79.709l-3.001,9h14V55.709L90.708,55.709z"/>
		</defs>
		<use xlink:href="#SVGID_26_"  overflow="visible" fill-rule="evenodd" clip-rule="evenodd"/>
		<clipPath id="SVGID_27_">
			<use xlink:href="#SVGID_26_"  overflow="visible"/>
		</clipPath>
	</g>
	<linearGradient id="SVGID_28_" gradientUnits="userSpaceOnUse" x1="102.0922" y1="117.758" x2="28.9081" y2="13.2404">
		<stop  offset="0" style="stop-color:#000000;stop-opacity:0"/>
		<stop  offset="1" style="stop-color:#FFFFFF;stop-opacity:0.25"/>
	</linearGradient>
	<path fill-rule="evenodd" clip-rule="evenodd" fill="url(#SVGID_28_)" d="M65.499,1.71c35.231,0,63.792,28.557,63.792,63.789
		s-28.561,63.792-63.792,63.792c-35.23,0-63.79-28.561-63.79-63.792S30.269,1.71,65.499,1.71L65.499,1.71z"/>
</g>
</svg>
