<?xml version="1.0" encoding="utf-8"?>
<!-- Generator: Adobe Illustrator 17.0.1, SVG Export Plug-In . SVG Version: 6.00 Build 0)  -->
<!DOCTYPE svg PUBLIC "-//W3C//DTD SVG 1.1//EN" "http://www.w3.org/Graphics/SVG/1.1/DTD/svg11.dtd">
<svg version="1.1" xmlns="http://www.w3.org/2000/svg" xmlns:xlink="http://www.w3.org/1999/xlink" x="0px" y="0px" width="132px"
	 height="132px" viewBox="0 0 132 132" enable-background="new 0 0 132 132" xml:space="preserve">
<g id="disabled">
	<g>
		<defs>
			<path id="SVGID_1_" d="M72.496,5.559l54.946,54.946c3.339,3.339,3.339,8.755,0,12.095l-54.842,54.841
				c-3.339,3.339-8.755,3.339-12.095,0L5.56,72.497c-3.341-3.339-3.341-8.756,0-12.095L60.4,5.559
				C63.741,2.22,69.157,2.22,72.496,5.559L72.496,5.559z"/>
		</defs>
		<defs>
			<path id="SVGID_2_" d="M71.496,4.559l54.946,54.946c3.339,3.339,3.339,8.755,0,12.095l-54.842,54.841
				c-3.339,3.339-8.755,3.339-12.095,0L4.56,71.497c-3.341-3.339-3.341-8.756,0-12.095L59.4,4.559
				C62.741,1.22,68.157,1.22,71.496,4.559L71.496,4.559z"/>
		</defs>
		<linearGradient id="SVGID_3_" gradientUnits="userSpaceOnUse" x1="3.054" y1="66.5" x2="129.946" y2="66.5">
			<stop  offset="0" style="stop-color:#000000;stop-opacity:0.6"/>
			<stop  offset="1" style="stop-color:#000000;stop-opacity:0.6"/>
		</linearGradient>
		<use xlink:href="#SVGID_1_"  overflow="visible" fill-rule="evenodd" clip-rule="evenodd" fill="url(#SVGID_3_)"/>
		<use xlink:href="#SVGID_2_"  overflow="visible" fill="#BEBEBE"/>
		<clipPath id="SVGID_4_">
			<use xlink:href="#SVGID_1_"  overflow="visible"/>
		</clipPath>
		<clipPath id="SVGID_5_" clip-path="url(#SVGID_4_)">
			<use xlink:href="#SVGID_2_"  overflow="visible"/>
		</clipPath>
	</g>
	<g>
		<defs>
			<path id="SVGID_6_" d="M59.892,83.685l0.09,4.962c0,0,0.455,0.825-2.56,0.867c-3.015,0.04-2.231-1.197-2.231-1.197l-0.057-4.653
				c-3.211-0.029-7.346-0.073-8.402-0.084c-1.06,0.011-5.222,0.057-8.438,0.084l0.092,4.983c0,0,0.454,0.825-2.562,0.867
				c-3.015,0.04-2.23-1.197-2.23-1.197l-0.057-4.635c-1.533-0.069-2.536-0.599-2.461-4.262c0.09-4.551-0.131-2.776,1.601-5.886
				c1.148-2.063,2.731-5.456,3.46-6.73c0.728-1.274-0.77-1.342,9.193-1.198c0.17,0.003,0.32,0.005,0.48,0.006
				c0.249-0.005,0.41-0.006,0.41-0.006v0.013c0.179,0.003,0.346,0.003,0.512,0.006c0.166-0.003,0.331-0.003,0.51-0.006v-0.013
				c0,0,0.161,0.002,0.41,0.006c0.16-0.002,0.31-0.003,0.48-0.006c9.964-0.144,8.467-0.076,9.193,1.198
				c0.728,1.274,2.311,4.668,3.46,6.73c1.731,3.109,1.51,1.334,1.601,5.886C62.462,83.11,61.444,83.624,59.892,83.685L59.892,83.685
				z M33.101,78.147c0,1.391,1.126,2.516,2.516,2.516c1.389,0,2.515-1.126,2.515-2.516c0-1.389-1.126-2.516-2.515-2.516
				C34.227,75.63,33.101,76.758,33.101,78.147L33.101,78.147z M58.073,73.002c-0.187-0.376-1.352-3.267-1.689-4.093
				c-0.279-0.683-0.226-0.864-0.977-0.864c-0.699,0-7.651-0.032-8.599-0.039l0,0c0,0-0.019,0-0.024,0c-0.042,0-0.053,0-0.065,0
				c-0.005,0-0.024,0-0.024,0l0,0c-0.948,0.006-7.9,0.039-8.599,0.039c-0.751,0-0.696,0.181-0.976,0.864
				c-0.339,0.825-1.502,3.716-1.691,4.093c-0.187,0.376-0.562,0.938,0.039,0.977c0.565,0.036,10.114,0.003,11.227,0
				c0,0,0.044,0,0.113,0c1.113,0.003,10.663,0.036,11.229,0C58.637,73.941,58.261,73.379,58.073,73.002L58.073,73.002z
				 M57.923,75.63c-1.389,0-2.516,1.127-2.516,2.516c0,1.391,1.127,2.516,2.516,2.516s2.516-1.126,2.516-2.516
				C60.439,76.758,59.312,75.63,57.923,75.63L57.923,75.63z"/>
		</defs>
		<use xlink:href="#SVGID_6_"  overflow="visible" fill-rule="evenodd" clip-rule="evenodd"/>
		<clipPath id="SVGID_7_">
			<use xlink:href="#SVGID_6_"  overflow="visible"/>
		</clipPath>
	</g>
	<g>
		<defs>
			<path id="SVGID_8_" d="M77.86,71.705l0.09,4.963c0,0,0.455,0.824-2.56,0.866s-2.231-1.197-2.231-1.197l-0.058-4.652
				c-3.211-0.029-7.347-0.074-8.402-0.086c-0.688,0.008-2.701,0.029-4.907,0.052c-0.943-1.849-1.933-3.917-2.466-4.849
				c-0.38-0.665-0.166-1-1.279-1.148c-0.237-1.144-1.249-2.004-2.461-2.004c-1.182,0-2.166,0.817-2.436,1.916
				c-0.617,0.006-1.316,0.016-2.074,0.026c0.042-2.226,0.139-1.468,1.57-4.036c1.148-2.063,2.731-5.456,3.46-6.732
				c0.728-1.273-0.77-1.342,9.193-1.197c0.174,0.002,0.328,0.005,0.491,0.006c0.244-0.005,0.399-0.006,0.399-0.006v0.013
				c0.179,0.002,0.344,0.005,0.51,0.006c0.168-0.002,0.333-0.005,0.512-0.006v-0.013c0,0,0.155,0.002,0.399,0.006
				c0.163-0.002,0.317-0.005,0.491-0.006c9.964-0.145,8.465-0.076,9.193,1.197c0.728,1.276,2.311,4.669,3.46,6.732
				c1.731,3.108,1.51,1.332,1.601,5.884C80.43,71.132,79.413,71.644,77.86,71.705L77.86,71.705z M76.042,61.024
				c-0.187-0.376-1.352-3.267-1.689-4.094c-0.279-0.683-0.226-0.864-0.977-0.864c-0.699,0-7.653-0.032-8.599-0.037
				c0,0-0.032,0-0.057,0c-0.024,0-0.057,0-0.057,0c-0.945,0.005-7.9,0.037-8.599,0.037c-0.751,0-0.696,0.181-0.976,0.864
				c-0.339,0.827-1.502,3.718-1.691,4.094c-0.187,0.375-0.562,0.937,0.039,0.976c0.583,0.037,10.692,0.002,11.283,0
				c0.591,0.002,10.7,0.037,11.285,0C76.606,61.961,76.229,61.399,76.042,61.024L76.042,61.024z M75.892,63.651
				c-1.389,0-2.516,1.127-2.516,2.516c0,1.391,1.127,2.518,2.516,2.518c1.389,0,2.516-1.127,2.516-2.518
				C78.408,64.778,77.281,63.651,75.892,63.651L75.892,63.651z"/>
		</defs>
		<use xlink:href="#SVGID_8_"  overflow="visible" fill-rule="evenodd" clip-rule="evenodd"/>
		<clipPath id="SVGID_9_">
			<use xlink:href="#SVGID_8_"  overflow="visible"/>
		</clipPath>
	</g>
	<g>
		<defs>
			<path id="SVGID_10_" d="M95.829,59.726l0.09,4.963c0,0,0.455,0.825-2.56,0.867c-3.015,0.04-2.231-1.198-2.231-1.198l-0.058-4.652
				c-3.211-0.027-7.347-0.074-8.402-0.086c-0.69,0.008-2.701,0.031-4.907,0.053c-0.943-1.849-1.933-3.917-2.466-4.85
				c-0.38-0.664-0.166-1-1.279-1.148c-0.237-1.143-1.249-2.003-2.461-2.003c-1.182,0-2.166,0.816-2.436,1.916
				c-0.617,0.007-1.316,0.016-2.074,0.026c0.042-2.226,0.139-1.468,1.57-4.038c1.148-2.063,2.731-5.456,3.46-6.73
				c0.727-1.274-0.77-1.344,9.193-1.198c0.173,0.003,0.328,0.005,0.491,0.008c0.244-0.005,0.399-0.008,0.399-0.008v0.013
				c0.179,0.002,0.344,0.005,0.51,0.006c0.168-0.002,0.331-0.005,0.512-0.006v-0.013c0,0,0.155,0.003,0.399,0.008
				c0.163-0.003,0.317-0.005,0.491-0.008c9.964-0.145,8.465-0.076,9.193,1.198c0.728,1.274,2.311,4.668,3.46,6.73
				c1.731,3.109,1.51,1.334,1.601,5.886C98.399,59.152,97.381,59.664,95.829,59.726L95.829,59.726z M94.01,49.045
				c-0.189-0.376-1.352-3.267-1.689-4.094c-0.279-0.682-0.226-0.862-0.977-0.862c-0.699,0-7.654-0.034-8.599-0.037v-0.002
				c0,0-0.032,0-0.057,0c-0.024,0-0.057,0-0.057,0v0.002c-0.945,0.003-7.9,0.037-8.599,0.037c-0.751,0-0.696,0.181-0.976,0.862
				c-0.339,0.827-1.502,3.718-1.691,4.094c-0.187,0.376-0.562,0.938,0.039,0.976c0.583,0.037,10.692,0.003,11.283,0
				c0.591,0.003,10.7,0.037,11.283,0C94.572,49.983,94.198,49.421,94.01,49.045L94.01,49.045z M93.86,51.673
				c-1.391,0-2.516,1.126-2.516,2.516c0,1.389,1.126,2.516,2.516,2.516c1.389,0,2.515-1.127,2.515-2.516
				C96.375,52.798,95.249,51.673,93.86,51.673L93.86,51.673z"/>
		</defs>
		<use xlink:href="#SVGID_10_"  overflow="visible" fill-rule="evenodd" clip-rule="evenodd"/>
		<clipPath id="SVGID_11_">
			<use xlink:href="#SVGID_10_"  overflow="visible"/>
		</clipPath>
	</g>
	<path fill-rule="evenodd" clip-rule="evenodd" d="M123.833,59.761L71.24,7.169c-3.198-3.198-8.381-3.198-11.579,0L7.169,59.661
		c-3.198,3.198-3.198,8.383,0,11.579l52.593,52.593c3.196,3.196,8.381,3.196,11.577,0l52.494-52.494
		C127.029,68.142,127.029,62.958,123.833,59.761z M121.712,69.218l-52.494,52.494c-0.979,0.979-2.282,1.519-3.667,1.519
		c-1.386,0-2.688-0.539-3.668-1.519L9.29,69.119c-0.98-0.979-1.52-2.282-1.52-3.667c0-1.386,0.54-2.689,1.52-3.669L61.782,9.29
		c0.98-0.98,2.283-1.52,3.668-1.52c1.385,0,2.688,0.54,3.668,1.52l52.593,52.592C123.733,63.905,123.733,67.195,121.712,69.218z"/>
	<linearGradient id="SVGID_12_" gradientUnits="userSpaceOnUse" x1="96.2147" y1="109.3653" x2="34.7851" y2="21.6349">
		<stop  offset="0" style="stop-color:#000000;stop-opacity:0"/>
		<stop  offset="1" style="stop-color:#FFFFFF;stop-opacity:0.25"/>
	</linearGradient>
	<path fill-rule="evenodd" clip-rule="evenodd" fill="url(#SVGID_12_)" d="M71.496,4.559l54.946,54.946
		c3.339,3.339,3.339,8.755,0,12.095l-54.842,54.841c-3.339,3.339-8.755,3.339-12.095,0L4.56,71.497
		c-3.341-3.339-3.341-8.756,0-12.095L59.4,4.559C62.741,1.22,68.157,1.22,71.496,4.559L71.496,4.559z"/>
</g>
<g id="normal">
	<g>
		<defs>
			<path id="SVGID_13_" d="M72.496,5.559l54.946,54.946c3.339,3.339,3.339,8.755,0,12.095l-54.842,54.841
				c-3.339,3.339-8.755,3.339-12.095,0L5.56,72.497c-3.341-3.339-3.341-8.756,0-12.095L60.4,5.559
				C63.741,2.22,69.157,2.22,72.496,5.559L72.496,5.559z"/>
		</defs>
		<defs>
			<path id="SVGID_14_" d="M71.496,4.559l54.946,54.946c3.339,3.339,3.339,8.755,0,12.095l-54.842,54.841
				c-3.339,3.339-8.755,3.339-12.095,0L4.56,71.497c-3.341-3.339-3.341-8.756,0-12.095L59.4,4.559
				C62.741,1.22,68.157,1.22,71.496,4.559L71.496,4.559z"/>
		</defs>
		<linearGradient id="SVGID_15_" gradientUnits="userSpaceOnUse" x1="3.054" y1="66.5" x2="129.946" y2="66.5">
			<stop  offset="0" style="stop-color:#000000;stop-opacity:0.6"/>
			<stop  offset="1" style="stop-color:#000000;stop-opacity:0.6"/>
		</linearGradient>
		<use xlink:href="#SVGID_13_"  overflow="visible" fill-rule="evenodd" clip-rule="evenodd" fill="url(#SVGID_15_)"/>
		<use xlink:href="#SVGID_14_"  overflow="visible" fill="#FFC000"/>
		<clipPath id="SVGID_16_">
			<use xlink:href="#SVGID_13_"  overflow="visible"/>
		</clipPath>
		<clipPath id="SVGID_17_" clip-path="url(#SVGID_16_)">
			<use xlink:href="#SVGID_14_"  overflow="visible"/>
		</clipPath>
	</g>
	<g>
		<defs>
			<path id="SVGID_18_" d="M59.892,83.685l0.09,4.962c0,0,0.455,0.825-2.56,0.867c-3.015,0.04-2.231-1.197-2.231-1.197l-0.057-4.653
				c-3.211-0.029-7.346-0.073-8.402-0.084c-1.06,0.011-5.222,0.057-8.438,0.084l0.092,4.983c0,0,0.454,0.825-2.562,0.867
				c-3.015,0.04-2.23-1.197-2.23-1.197l-0.057-4.635c-1.533-0.069-2.536-0.599-2.461-4.262c0.09-4.551-0.131-2.776,1.601-5.886
				c1.148-2.063,2.731-5.456,3.46-6.73c0.728-1.274-0.77-1.342,9.193-1.198c0.17,0.003,0.32,0.005,0.48,0.006
				c0.249-0.005,0.41-0.006,0.41-0.006v0.013c0.179,0.003,0.346,0.003,0.512,0.006c0.166-0.003,0.331-0.003,0.51-0.006v-0.013
				c0,0,0.161,0.002,0.41,0.006c0.16-0.002,0.31-0.003,0.48-0.006c9.964-0.144,8.467-0.076,9.193,1.198
				c0.728,1.274,2.311,4.668,3.46,6.73c1.731,3.109,1.51,1.334,1.601,5.886C62.462,83.11,61.444,83.624,59.892,83.685L59.892,83.685
				z M33.101,78.147c0,1.391,1.126,2.516,2.516,2.516c1.389,0,2.515-1.126,2.515-2.516c0-1.389-1.126-2.516-2.515-2.516
				C34.227,75.63,33.101,76.758,33.101,78.147L33.101,78.147z M58.073,73.002c-0.187-0.376-1.352-3.267-1.689-4.093
				c-0.279-0.683-0.226-0.864-0.977-0.864c-0.699,0-7.651-0.032-8.599-0.039l0,0c0,0-0.019,0-0.024,0c-0.042,0-0.053,0-0.065,0
				c-0.005,0-0.024,0-0.024,0l0,0c-0.948,0.006-7.9,0.039-8.599,0.039c-0.751,0-0.696,0.181-0.976,0.864
				c-0.339,0.825-1.502,3.716-1.691,4.093c-0.187,0.376-0.562,0.938,0.039,0.977c0.565,0.036,10.114,0.003,11.227,0
				c0,0,0.044,0,0.113,0c1.113,0.003,10.663,0.036,11.229,0C58.637,73.941,58.261,73.379,58.073,73.002L58.073,73.002z
				 M57.923,75.63c-1.389,0-2.516,1.127-2.516,2.516c0,1.391,1.127,2.516,2.516,2.516s2.516-1.126,2.516-2.516
				C60.439,76.758,59.312,75.63,57.923,75.63L57.923,75.63z"/>
		</defs>
		<use xlink:href="#SVGID_18_"  overflow="visible" fill-rule="evenodd" clip-rule="evenodd"/>
		<clipPath id="SVGID_19_">
			<use xlink:href="#SVGID_18_"  overflow="visible"/>
		</clipPath>
	</g>
	<g>
		<defs>
			<path id="SVGID_20_" d="M77.86,71.705l0.09,4.963c0,0,0.455,0.824-2.56,0.866s-2.231-1.197-2.231-1.197l-0.058-4.652
				c-3.211-0.029-7.347-0.074-8.402-0.086c-0.688,0.008-2.701,0.029-4.907,0.052c-0.943-1.849-1.933-3.917-2.466-4.849
				c-0.38-0.665-0.166-1-1.279-1.148c-0.237-1.144-1.249-2.004-2.461-2.004c-1.182,0-2.166,0.817-2.436,1.916
				c-0.617,0.006-1.316,0.016-2.074,0.026c0.042-2.226,0.139-1.468,1.57-4.036c1.148-2.063,2.731-5.456,3.46-6.732
				c0.728-1.273-0.77-1.342,9.193-1.197c0.174,0.002,0.328,0.005,0.491,0.006c0.244-0.005,0.399-0.006,0.399-0.006v0.013
				c0.179,0.002,0.344,0.005,0.51,0.006c0.168-0.002,0.333-0.005,0.512-0.006v-0.013c0,0,0.155,0.002,0.399,0.006
				c0.163-0.002,0.317-0.005,0.491-0.006c9.964-0.145,8.465-0.076,9.193,1.197c0.728,1.276,2.311,4.669,3.46,6.732
				c1.731,3.108,1.51,1.332,1.601,5.884C80.43,71.132,79.413,71.644,77.86,71.705L77.86,71.705z M76.042,61.024
				c-0.187-0.376-1.352-3.267-1.689-4.094c-0.279-0.683-0.226-0.864-0.977-0.864c-0.699,0-7.653-0.032-8.599-0.037
				c0,0-0.032,0-0.057,0c-0.024,0-0.057,0-0.057,0c-0.945,0.005-7.9,0.037-8.599,0.037c-0.751,0-0.696,0.181-0.976,0.864
				c-0.339,0.827-1.502,3.718-1.691,4.094c-0.187,0.375-0.562,0.937,0.039,0.976c0.583,0.037,10.692,0.002,11.283,0
				c0.591,0.002,10.7,0.037,11.285,0C76.606,61.961,76.229,61.399,76.042,61.024L76.042,61.024z M75.892,63.651
				c-1.389,0-2.516,1.127-2.516,2.516c0,1.391,1.127,2.518,2.516,2.518c1.389,0,2.516-1.127,2.516-2.518
				C78.408,64.778,77.281,63.651,75.892,63.651L75.892,63.651z"/>
		</defs>
		<use xlink:href="#SVGID_20_"  overflow="visible" fill-rule="evenodd" clip-rule="evenodd"/>
		<clipPath id="SVGID_21_">
			<use xlink:href="#SVGID_20_"  overflow="visible"/>
		</clipPath>
	</g>
	<g>
		<defs>
			<path id="SVGID_22_" d="M95.829,59.726l0.09,4.963c0,0,0.455,0.825-2.56,0.867c-3.015,0.04-2.231-1.198-2.231-1.198l-0.058-4.652
				c-3.211-0.027-7.347-0.074-8.402-0.086c-0.69,0.008-2.701,0.031-4.907,0.053c-0.943-1.849-1.933-3.917-2.466-4.85
				c-0.38-0.664-0.166-1-1.279-1.148c-0.237-1.143-1.249-2.003-2.461-2.003c-1.182,0-2.166,0.816-2.436,1.916
				c-0.617,0.007-1.316,0.016-2.074,0.026c0.042-2.226,0.139-1.468,1.57-4.038c1.148-2.063,2.731-5.456,3.46-6.73
				c0.727-1.274-0.77-1.344,9.193-1.198c0.173,0.003,0.328,0.005,0.491,0.008c0.244-0.005,0.399-0.008,0.399-0.008v0.013
				c0.179,0.002,0.344,0.005,0.51,0.006c0.168-0.002,0.331-0.005,0.512-0.006v-0.013c0,0,0.155,0.003,0.399,0.008
				c0.163-0.003,0.317-0.005,0.491-0.008c9.964-0.145,8.465-0.076,9.193,1.198c0.728,1.274,2.311,4.668,3.46,6.73
				c1.731,3.109,1.51,1.334,1.601,5.886C98.399,59.152,97.381,59.664,95.829,59.726L95.829,59.726z M94.01,49.045
				c-0.189-0.376-1.352-3.267-1.689-4.094c-0.279-0.682-0.226-0.862-0.977-0.862c-0.699,0-7.654-0.034-8.599-0.037v-0.002
				c0,0-0.032,0-0.057,0c-0.024,0-0.057,0-0.057,0v0.002c-0.945,0.003-7.9,0.037-8.599,0.037c-0.751,0-0.696,0.181-0.976,0.862
				c-0.339,0.827-1.502,3.718-1.691,4.094c-0.187,0.376-0.562,0.938,0.039,0.976c0.583,0.037,10.692,0.003,11.283,0
				c0.591,0.003,10.7,0.037,11.283,0C94.572,49.983,94.198,49.421,94.01,49.045L94.01,49.045z M93.86,51.673
				c-1.391,0-2.516,1.126-2.516,2.516c0,1.389,1.126,2.516,2.516,2.516c1.389,0,2.515-1.127,2.515-2.516
				C96.375,52.798,95.249,51.673,93.86,51.673L93.86,51.673z"/>
		</defs>
		<use xlink:href="#SVGID_22_"  overflow="visible" fill-rule="evenodd" clip-rule="evenodd"/>
		<clipPath id="SVGID_23_">
			<use xlink:href="#SVGID_22_"  overflow="visible"/>
		</clipPath>
	</g>
	<path fill-rule="evenodd" clip-rule="evenodd" d="M123.833,59.761L71.24,7.169c-3.198-3.198-8.381-3.198-11.579,0L7.169,59.661
		c-3.198,3.198-3.198,8.383,0,11.579l52.593,52.593c3.196,3.196,8.381,3.196,11.577,0l52.494-52.494
		C127.029,68.142,127.029,62.958,123.833,59.761z M121.712,69.218l-52.494,52.494c-0.979,0.979-2.282,1.519-3.667,1.519
		c-1.386,0-2.688-0.539-3.668-1.519L9.29,69.119c-0.98-0.979-1.52-2.282-1.52-3.667c0-1.386,0.54-2.689,1.52-3.669L61.782,9.29
		c0.98-0.98,2.283-1.52,3.668-1.52c1.385,0,2.688,0.54,3.668,1.52l52.593,52.592C123.733,63.905,123.733,67.195,121.712,69.218z"/>
	<linearGradient id="SVGID_24_" gradientUnits="userSpaceOnUse" x1="96.2147" y1="109.3653" x2="34.7851" y2="21.6349">
		<stop  offset="0" style="stop-color:#000000;stop-opacity:0"/>
		<stop  offset="1" style="stop-color:#FFFFFF;stop-opacity:0.25"/>
	</linearGradient>
	<path fill-rule="evenodd" clip-rule="evenodd" fill="url(#SVGID_24_)" d="M71.496,4.559l54.946,54.946
		c3.339,3.339,3.339,8.755,0,12.095l-54.842,54.841c-3.339,3.339-8.755,3.339-12.095,0L4.56,71.497
		c-3.341-3.339-3.341-8.756,0-12.095L59.4,4.559C62.741,1.22,68.157,1.22,71.496,4.559L71.496,4.559z"/>
</g>
</svg>
