<?xml version="1.0" encoding="utf-8"?>
<!-- Generator: Adobe Illustrator 17.0.1, SVG Export Plug-In . SVG Version: 6.00 Build 0)  -->
<!DOCTYPE svg PUBLIC "-//W3C//DTD SVG 1.1//EN" "http://www.w3.org/Graphics/SVG/1.1/DTD/svg11.dtd">
<svg version="1.1" xmlns="http://www.w3.org/2000/svg" xmlns:xlink="http://www.w3.org/1999/xlink" x="0px" y="0px" width="132px"
	 height="132px" viewBox="0 0 132 132" enable-background="new 0 0 132 132" xml:space="preserve">
<g id="disabled">
	<g>
		<defs>
			<path id="SVGID_1_" d="M72.496,5.558l54.946,54.946c3.339,3.339,3.339,8.756,0,12.095L72.599,127.44
				c-3.339,3.341-8.755,3.341-12.095,0L5.56,72.496c-3.341-3.339-3.341-8.756,0-12.095L60.4,5.558
				C63.741,2.219,69.157,2.219,72.496,5.558L72.496,5.558z"/>
		</defs>
		<defs>
			<path id="SVGID_2_" d="M71.496,4.558l54.946,54.946c3.339,3.339,3.339,8.756,0,12.095L71.599,126.44
				c-3.339,3.341-8.755,3.341-12.095,0L4.56,71.496c-3.341-3.339-3.341-8.756,0-12.095L59.4,4.558
				C62.741,1.219,68.157,1.219,71.496,4.558L71.496,4.558z"/>
		</defs>
		<linearGradient id="SVGID_3_" gradientUnits="userSpaceOnUse" x1="3.054" y1="66.5" x2="129.946" y2="66.5">
			<stop  offset="0" style="stop-color:#000000;stop-opacity:0.6"/>
			<stop  offset="1" style="stop-color:#000000;stop-opacity:0.6"/>
		</linearGradient>
		<use xlink:href="#SVGID_1_"  overflow="visible" fill-rule="evenodd" clip-rule="evenodd" fill="url(#SVGID_3_)"/>
		<use xlink:href="#SVGID_2_"  overflow="visible" fill="#BEBEBE"/>
		<clipPath id="SVGID_4_">
			<use xlink:href="#SVGID_1_"  overflow="visible"/>
		</clipPath>
		<clipPath id="SVGID_5_" clip-path="url(#SVGID_4_)">
			<use xlink:href="#SVGID_2_"  overflow="visible"/>
		</clipPath>
	</g>
	<g>
		<defs>
			<path id="SVGID_6_" d="M123.833,71.338l-52.494,52.494c-3.196,3.196-8.381,3.196-11.577,0L7.169,71.238
				c-3.198-3.195-3.198-8.379,0-11.576L59.661,7.168c3.198-3.198,8.381-3.198,11.579,0l52.593,52.593
				C127.029,62.957,127.029,68.142,123.833,71.338L123.833,71.338z M122.048,62.871L68.183,9.006c-1.45-1.45-3.804-1.45-5.254,0
				L9.063,62.871c-1.45,1.45-1.45,3.804,0,5.256l53.865,53.864c1.45,1.45,3.804,1.45,5.254,0l53.865-53.864
				C123.498,66.675,123.498,64.322,122.048,62.871L122.048,62.871z"/>
		</defs>
		<use xlink:href="#SVGID_6_"  overflow="visible" fill-rule="evenodd" clip-rule="evenodd"/>
		<clipPath id="SVGID_7_">
			<use xlink:href="#SVGID_6_"  overflow="visible"/>
		</clipPath>
	</g>
	<g>
		<defs>
			<path id="SVGID_8_" d="M85.93,43.162c0.144,0.334,1.899,1.358,1.494,1.358c-0.136,0,0.307-0.396,1.079-0.317
				c0.825,0.087-0.304-1.173,0.89-1.572c1.229-0.412,6.827-0.123,7.892,0.425c0.132,0.068,0.063,0.352-0.507,0.354
				c0.711-0.002-4.54,0.182-4.907,0.321c-0.665,0.249,0.183,0.948,0.187,0.955c0.371,0.393,1.224,0.638,1.93,0.84
				c0.706,0.202,1.817,0.606,1.817,1.008c0,0.404,0.808,1.917,1.11,2.119c0.302,0.202,1.412,0.606,1.715,1.312
				c0.302,0.706,0.704,1.715,1.21,1.916c0.504,0.202,1.413,0.808,1.413,0.808c0,1.21-0.808,2.119-0.808,2.119l-0.506,0.808
				c0,0-0.906,0.504-2.219,0.504c-1.31,0-3.227-0.102-3.631,0c-0.404,0.1-2.219-0.202-3.632-0.202c-1.412,0-1.614,0.606-2.721,1.412
				c-1.111,0.806-2.321,2.623-2.623,3.935c-0.304,1.312-0.909,4.64-2.017,6.556c-1.111,1.917-2.121,2.827-2.927,3.33
				c0,1.412,0.304,2.925,0,4.035c-0.302,1.11-0.126,2.894,0.081,4.941c0.179,1.759,0.113,1.228,0.418,2.108
				c0.371,1.069,1.158,1.069,1.158,1.069s0.909,0.688,0.909,2.001c-0.202,0.806-1.313,0.399-1.313,0.399
				c-1.31,0.404-1.93-0.034-1.93-0.034c-0.202-1.211-0.35-1.494-0.35-1.494l-0.958-1.341c-1.108-0.808-0.58-3.234-0.883-4.647
				c-0.302-1.412-0.339-2.799-0.339-2.799l-1.707-2.439c-0.808,2.623-1.056,4.875-0.854,5.784c0.2,0.908,0.83,3.495,0.83,3.495
				c0.706,0.606,1.355,1.129,1.355,1.129c0.202,1.108,0.124,2.04,0.124,2.04c-2.521-0.1-3.329-0.1-3.329-0.1l-0.302-1.008
				l0.076-1.008c-0.504-0.709-0.682-1.313-0.682-1.313s-0.394-0.265-0.533-1.066c-0.168-0.953-0.761-2.229-0.761-2.229
				c-0.302-5.346-0.36-5.261-0.258-5.664c0.1-0.404-0.833-2.583-0.833-2.583c-1.009-1.11-3.057-1.001-4.167-0.598
				c-1.11,0.404-0.937,1.98-6.183,2.08c-0.606,0-1.522,0.086-1.522,0.086c-1.917-0.202-2.195,1.089-2.195,1.089
				c-2.319-0.604-0.772,0.598-1.68,1.001c-0.909,0.404,0.297,1.686-0.006,2.594c-0.302,0.909-2.035-1.993-2.035-1.993l-1.476,1.625
				l-1.677-1.878c-0.302-0.707-0.699-0.698-0.699-0.698s-0.467,0.006-0.77,0.208c-0.302,0.202-0.107,1.551-0.107,1.551l0.483,1.748
				c0.706,1.426,1.239,2.781,1.484,3.161c0.246,0.376,0.478,1.024,0.478,1.024l0.422,0.704c-0.066,1.226,0.562,1.31,0.562,1.31
				c1.381,0.691,1.358,1.946,1.413,2.449c-2.596,0.389-3.326-0.029-3.326-0.029c-0.38-0.669-0.09-1.257-0.09-1.257l-1.045-1.329
				c-1.47-0.446-2.907-3.862-3.209-5.359c-0.368-1.825-0.888-4.004-0.888-4.004l-1.228,0.473l-1.247,0.95
				c-0.977,2.022-0.812,2.739-1.014,3.547c-0.202,0.806-0.229,2.652,0.074,4.267c0.302,1.614,2.458,2.728,2.458,2.728
				c0.806,0.808,1.11,2.219,1.11,2.219c-1.715,0.202-3.833,0.202-3.833,0.202l-0.506-0.604l0.304-1.009c0,0-0.78-1.103-1.228-1.512
				c-0.743-0.68-1.486-1.53-1.284-2.439c-0.029,0.126,0.084-4.997-0.149-6.162c-0.202-1.009-0.228-2.56,1.284-5.585
				c1.513-3.027-0.074-5.564-0.074-7.381c0-1.814-0.174-1.89,0.229-5.319c0.404-3.429-0.552-3.345-0.552-3.345l-0.956-0.903
				c-0.706,2.219-0.954,5.411-0.954,6.924s0.704,5.144,0.1,7.262c-0.606,2.119-1.11,3.834-1.11,5.348s0.606,5.95-0.908,7.664
				c-0.908-1.108-1.615-2.016-1.615-2.016c0.304-3.733-0.202-4.539,1.111-8.473c1.31-3.935,1.512-7.465,1.512-8.271
				c0-0.808-0.632-3.616-0.128-6.039c0-3.329,0.754-4.681,2.974-5.792c2.219-1.108,4.555-1.226,4.555-1.226
				c2.187-0.223,9.373,0.186,9.373,0.186c3.529-0.058,7.284-0.011,10.511-0.111c3.229-0.1,7.869-0.822,7.869-0.822
				c1.916-1.009,4.39-1.326,5.701-1.226l4.157,0.853c1.312-0.2,3.03-0.388,3.03-0.388c0.504-0.806,2.988-1.205,2.988-1.205
				l-2.253-2.671c0.404-1.715,0.397-1.342,0.397-1.342s1.163-0.234,1.467,0.472"/>
		</defs>
		<use xlink:href="#SVGID_8_"  overflow="visible" fill-rule="evenodd" clip-rule="evenodd"/>
		<clipPath id="SVGID_9_">
			<use xlink:href="#SVGID_8_"  overflow="visible"/>
		</clipPath>
	</g>
	<linearGradient id="SVGID_10_" gradientUnits="userSpaceOnUse" x1="96.2149" y1="109.365" x2="34.7851" y2="21.6343">
		<stop  offset="0" style="stop-color:#000000;stop-opacity:0"/>
		<stop  offset="1" style="stop-color:#FFFFFF;stop-opacity:0.25"/>
	</linearGradient>
	<path fill-rule="evenodd" clip-rule="evenodd" fill="url(#SVGID_10_)" d="M71.496,4.558l54.946,54.946
		c3.339,3.339,3.339,8.756,0,12.095L71.599,126.44c-3.339,3.341-8.755,3.341-12.095,0L4.56,71.496
		c-3.341-3.339-3.341-8.756,0-12.095L59.4,4.558C62.741,1.219,68.157,1.219,71.496,4.558L71.496,4.558z"/>
</g>
<g id="normal">
	<g>
		<defs>
			<path id="SVGID_11_" d="M72.496,5.558l54.946,54.946c3.339,3.339,3.339,8.756,0,12.095L72.599,127.44
				c-3.339,3.341-8.755,3.341-12.095,0L5.56,72.496c-3.341-3.339-3.341-8.756,0-12.095L60.4,5.558
				C63.741,2.219,69.157,2.219,72.496,5.558L72.496,5.558z"/>
		</defs>
		<defs>
			<path id="SVGID_12_" d="M71.496,4.558l54.946,54.946c3.339,3.339,3.339,8.756,0,12.095L71.599,126.44
				c-3.339,3.341-8.755,3.341-12.095,0L4.56,71.496c-3.341-3.339-3.341-8.756,0-12.095L59.4,4.558
				C62.741,1.219,68.157,1.219,71.496,4.558L71.496,4.558z"/>
		</defs>
		<linearGradient id="SVGID_13_" gradientUnits="userSpaceOnUse" x1="3.054" y1="66.5" x2="129.946" y2="66.5">
			<stop  offset="0" style="stop-color:#000000;stop-opacity:0.6"/>
			<stop  offset="1" style="stop-color:#000000;stop-opacity:0.6"/>
		</linearGradient>
		<use xlink:href="#SVGID_11_"  overflow="visible" fill-rule="evenodd" clip-rule="evenodd" fill="url(#SVGID_13_)"/>
		<use xlink:href="#SVGID_12_"  overflow="visible" fill="#FFC000"/>
		<clipPath id="SVGID_14_">
			<use xlink:href="#SVGID_11_"  overflow="visible"/>
		</clipPath>
		<clipPath id="SVGID_15_" clip-path="url(#SVGID_14_)">
			<use xlink:href="#SVGID_12_"  overflow="visible"/>
		</clipPath>
	</g>
	<g>
		<defs>
			<path id="SVGID_16_" d="M123.833,71.338l-52.494,52.494c-3.196,3.196-8.381,3.196-11.577,0L7.169,71.238
				c-3.198-3.195-3.198-8.379,0-11.576L59.661,7.168c3.198-3.198,8.381-3.198,11.579,0l52.593,52.593
				C127.029,62.957,127.029,68.142,123.833,71.338L123.833,71.338z M122.048,62.871L68.183,9.006c-1.45-1.45-3.804-1.45-5.254,0
				L9.063,62.871c-1.45,1.45-1.45,3.804,0,5.256l53.865,53.864c1.45,1.45,3.804,1.45,5.254,0l53.865-53.864
				C123.498,66.675,123.498,64.322,122.048,62.871L122.048,62.871z"/>
		</defs>
		<use xlink:href="#SVGID_16_"  overflow="visible" fill-rule="evenodd" clip-rule="evenodd"/>
		<clipPath id="SVGID_17_">
			<use xlink:href="#SVGID_16_"  overflow="visible"/>
		</clipPath>
	</g>
	<g>
		<defs>
			<path id="SVGID_18_" d="M85.93,43.162c0.144,0.334,1.899,1.358,1.494,1.358c-0.136,0,0.307-0.396,1.079-0.317
				c0.825,0.087-0.304-1.173,0.89-1.572c1.229-0.412,6.827-0.123,7.892,0.425c0.132,0.068,0.063,0.352-0.507,0.354
				c0.711-0.002-4.54,0.182-4.907,0.321c-0.665,0.249,0.183,0.948,0.187,0.955c0.371,0.393,1.224,0.638,1.93,0.84
				c0.706,0.202,1.817,0.606,1.817,1.008c0,0.404,0.808,1.917,1.11,2.119c0.302,0.202,1.412,0.606,1.715,1.312
				c0.302,0.706,0.704,1.715,1.21,1.916c0.504,0.202,1.413,0.808,1.413,0.808c0,1.21-0.808,2.119-0.808,2.119l-0.506,0.808
				c0,0-0.906,0.504-2.219,0.504c-1.31,0-3.227-0.102-3.631,0c-0.404,0.1-2.219-0.202-3.632-0.202c-1.412,0-1.614,0.606-2.721,1.412
				c-1.111,0.806-2.321,2.623-2.623,3.935c-0.304,1.312-0.909,4.64-2.017,6.556c-1.111,1.917-2.121,2.827-2.927,3.33
				c0,1.412,0.304,2.925,0,4.035c-0.302,1.11-0.126,2.894,0.081,4.941c0.179,1.759,0.113,1.228,0.418,2.108
				c0.371,1.069,1.158,1.069,1.158,1.069s0.909,0.688,0.909,2.001c-0.202,0.806-1.313,0.399-1.313,0.399
				c-1.31,0.404-1.93-0.034-1.93-0.034c-0.202-1.211-0.35-1.494-0.35-1.494l-0.958-1.341c-1.108-0.808-0.58-3.234-0.883-4.647
				c-0.302-1.412-0.339-2.799-0.339-2.799l-1.707-2.439c-0.808,2.623-1.056,4.875-0.854,5.784c0.2,0.908,0.83,3.495,0.83,3.495
				c0.706,0.606,1.355,1.129,1.355,1.129c0.202,1.108,0.124,2.04,0.124,2.04c-2.521-0.1-3.329-0.1-3.329-0.1l-0.302-1.008
				l0.076-1.008c-0.504-0.709-0.682-1.313-0.682-1.313s-0.394-0.265-0.533-1.066c-0.168-0.953-0.761-2.229-0.761-2.229
				c-0.302-5.346-0.36-5.261-0.258-5.664c0.1-0.404-0.833-2.583-0.833-2.583c-1.009-1.11-3.057-1.001-4.167-0.598
				c-1.11,0.404-0.937,1.98-6.183,2.08c-0.606,0-1.522,0.086-1.522,0.086c-1.917-0.202-2.195,1.089-2.195,1.089
				c-2.319-0.604-0.772,0.598-1.68,1.001c-0.909,0.404,0.297,1.686-0.006,2.594c-0.302,0.909-2.035-1.993-2.035-1.993l-1.476,1.625
				l-1.677-1.878c-0.302-0.707-0.699-0.698-0.699-0.698s-0.467,0.006-0.77,0.208c-0.302,0.202-0.107,1.551-0.107,1.551l0.483,1.748
				c0.706,1.426,1.239,2.781,1.484,3.161c0.246,0.376,0.478,1.024,0.478,1.024l0.422,0.704c-0.066,1.226,0.562,1.31,0.562,1.31
				c1.381,0.691,1.358,1.946,1.413,2.449c-2.596,0.389-3.326-0.029-3.326-0.029c-0.38-0.669-0.09-1.257-0.09-1.257l-1.045-1.329
				c-1.47-0.446-2.907-3.862-3.209-5.359c-0.368-1.825-0.888-4.004-0.888-4.004l-1.228,0.473l-1.247,0.95
				c-0.977,2.022-0.812,2.739-1.014,3.547c-0.202,0.806-0.229,2.652,0.074,4.267c0.302,1.614,2.458,2.728,2.458,2.728
				c0.806,0.808,1.11,2.219,1.11,2.219c-1.715,0.202-3.833,0.202-3.833,0.202l-0.506-0.604l0.304-1.009c0,0-0.78-1.103-1.228-1.512
				c-0.743-0.68-1.486-1.53-1.284-2.439c-0.029,0.126,0.084-4.997-0.149-6.162c-0.202-1.009-0.228-2.56,1.284-5.585
				c1.513-3.027-0.074-5.564-0.074-7.381c0-1.814-0.174-1.89,0.229-5.319c0.404-3.429-0.552-3.345-0.552-3.345l-0.956-0.903
				c-0.706,2.219-0.954,5.411-0.954,6.924s0.704,5.144,0.1,7.262c-0.606,2.119-1.11,3.834-1.11,5.348s0.606,5.95-0.908,7.664
				c-0.908-1.108-1.615-2.016-1.615-2.016c0.304-3.733-0.202-4.539,1.111-8.473c1.31-3.935,1.512-7.465,1.512-8.271
				c0-0.808-0.632-3.616-0.128-6.039c0-3.329,0.754-4.681,2.974-5.792c2.219-1.108,4.555-1.226,4.555-1.226
				c2.187-0.223,9.373,0.186,9.373,0.186c3.529-0.058,7.284-0.011,10.511-0.111c3.229-0.1,7.869-0.822,7.869-0.822
				c1.916-1.009,4.39-1.326,5.701-1.226l4.157,0.853c1.312-0.2,3.03-0.388,3.03-0.388c0.504-0.806,2.988-1.205,2.988-1.205
				l-2.253-2.671c0.404-1.715,0.397-1.342,0.397-1.342s1.163-0.234,1.467,0.472"/>
		</defs>
		<use xlink:href="#SVGID_18_"  overflow="visible" fill-rule="evenodd" clip-rule="evenodd"/>
		<clipPath id="SVGID_19_">
			<use xlink:href="#SVGID_18_"  overflow="visible"/>
		</clipPath>
	</g>
	<linearGradient id="SVGID_20_" gradientUnits="userSpaceOnUse" x1="96.2149" y1="109.365" x2="34.7851" y2="21.6343">
		<stop  offset="0" style="stop-color:#000000;stop-opacity:0"/>
		<stop  offset="1" style="stop-color:#FFFFFF;stop-opacity:0.25"/>
	</linearGradient>
	<path fill-rule="evenodd" clip-rule="evenodd" fill="url(#SVGID_20_)" d="M71.496,4.558l54.946,54.946
		c3.339,3.339,3.339,8.756,0,12.095L71.599,126.44c-3.339,3.341-8.755,3.341-12.095,0L4.56,71.496
		c-3.341-3.339-3.341-8.756,0-12.095L59.4,4.558C62.741,1.219,68.157,1.219,71.496,4.558L71.496,4.558z"/>
</g>
</svg>
