<?xml version="1.0" encoding="utf-8"?>
<!-- Generator: Adobe Illustrator 17.0.1, SVG Export Plug-In . SVG Version: 6.00 Build 0)  -->
<!DOCTYPE svg PUBLIC "-//W3C//DTD SVG 1.1//EN" "http://www.w3.org/Graphics/SVG/1.1/DTD/svg11.dtd">
<svg version="1.1" xmlns="http://www.w3.org/2000/svg" xmlns:xlink="http://www.w3.org/1999/xlink" x="0px" y="0px" width="132px"
	 height="132px" viewBox="0 0 132 132" enable-background="new 0 0 132 132" xml:space="preserve">
<g id="disabled">
	<linearGradient id="SVGID_1_" gradientUnits="userSpaceOnUse" x1="14.0004" y1="66.499" x2="123.0006" y2="66.499">
		<stop  offset="0" style="stop-color:#000000;stop-opacity:0.6"/>
		<stop  offset="1" style="stop-color:#000000;stop-opacity:0.6"/>
	</linearGradient>
	<path fill-rule="evenodd" clip-rule="evenodd" fill="url(#SVGID_1_)" d="M18.999,2.999H118c2.675,0,5.001,2.324,5.001,4.999v117
		c0,2.675-2.326,5.001-5.001,5.001H18.999c-2.675,0-4.999-2.326-4.999-5.001v-117C14,5.323,16.325,2.999,18.999,2.999L18.999,2.999z
		"/>
	<path fill-rule="evenodd" clip-rule="evenodd" fill="#969696" d="M17.999,1.999H117c2.675,0,5.001,2.324,5.001,4.999v117
		c0,2.675-2.326,5.001-5.001,5.001H17.999c-2.675,0-4.999-2.326-4.999-5.001v-117C13,4.323,15.325,1.999,17.999,1.999L17.999,1.999z
		"/>
	<path fill-rule="evenodd" clip-rule="evenodd" fill="#FFFFFF" d="M17.999,126.999c-1.57,0-2.999-1.431-2.999-3.001v-117
		c0-1.57,1.429-2.999,2.999-2.999H117c1.57,0,3.001,1.429,3.001,2.999v117c0,1.57-1.431,3.001-3.001,3.001H17.999"/>
	<path fill-rule="evenodd" clip-rule="evenodd" fill="#969696" d="M71.364,31.153c1.528,1.689,3.586,2.534,6.173,2.534
		c2.557,0,4.6-0.85,6.126-2.546c1.528-1.698,2.292-4.048,2.292-7.053c0-3.03-0.77-5.395-2.31-7.097
		c-1.539-1.701-3.59-2.55-6.155-2.55c-1.417,0-2.668,0.246-3.752,0.735c-0.816,0.365-1.565,0.924-2.25,1.677
		c-0.685,0.753-1.224,1.604-1.62,2.552c-0.531,1.286-0.796,2.878-0.796,4.773C69.072,27.14,69.836,29.465,71.364,31.153
		L71.364,31.153z M74.022,19.246c0.887-1.063,2.054-1.594,3.503-1.594s2.61,0.525,3.484,1.575c0.875,1.05,1.313,2.641,1.313,4.773
		c0,2.158-0.449,3.778-1.349,4.857c-0.898,1.079-2.048,1.618-3.448,1.618s-2.557-0.544-3.468-1.631
		c-0.909-1.087-1.365-2.686-1.365-4.792C72.693,21.91,73.137,20.308,74.022,19.246L74.022,19.246z"/>
	<polygon fill-rule="evenodd" clip-rule="evenodd" fill="#969696" points="52.622,33.369 52.622,21.233 60.888,33.369 
		65.042,33.369 65.042,14.758 61.197,14.758 61.197,27.186 52.803,14.758 48.774,14.758 48.774,33.369 52.622,33.369 	"/>
	<path fill-rule="evenodd" clip-rule="evenodd" fill="#969696" d="M26.629,59.948c-0.901,1.696-2.105,2.544-3.611,2.544
		c-1.526,0-2.741-0.843-3.641-2.533c-0.901-1.688-1.352-4.014-1.352-6.976c0-1.896,0.157-3.487,0.47-4.773
		c0.233-0.948,0.551-1.799,0.955-2.552s0.846-1.311,1.328-1.677c0.638-0.489,1.376-0.735,2.211-0.735c1.513,0,2.723,0.85,3.631,2.55
		c0.908,1.702,1.362,4.067,1.362,7.097C27.981,55.899,27.53,58.251,26.629,59.948L26.629,59.948z M25.064,48.033
		c-0.515-1.05-1.2-1.575-2.055-1.575c-0.853,0-1.542,0.531-2.064,1.594c-0.523,1.061-0.785,2.663-0.785,4.805
		c0,2.106,0.268,3.705,0.806,4.792c0.536,1.087,1.218,1.631,2.043,1.631c0.827,0,1.504-0.539,2.034-1.618
		c0.53-1.079,0.795-2.699,0.795-4.857C25.838,50.674,25.581,49.083,25.064,48.033L25.064,48.033z M35.002,62.175h-2.213
		l-3.668-18.611h2.247l2.597,13.774l2.513-13.774h2.198L35.002,62.175L35.002,62.175z M48.114,59.041v3.135h-7.806V43.564h7.611
		v3.148H42.38v4.127h5.152v3.135H42.38v5.067H48.114L48.114,59.041z M56.136,53.961c0.447,0.475,0.817,0.995,1.11,1.562
		c0.291,0.567,0.685,1.575,1.179,3.022l1.253,3.631h-2.478l-1.499-4.049c-0.531-1.447-0.896-2.36-1.092-2.736
		c-0.195-0.376-0.404-0.635-0.623-0.775c-0.22-0.139-0.567-0.208-1.043-0.208h-0.42v7.769h-2.072V43.564h4.363
		c1.097,0,1.893,0.168,2.39,0.501c0.497,0.336,0.895,0.93,1.194,1.785c0.299,0.854,0.447,1.832,0.447,2.933
		c0,1.396-0.226,2.549-0.678,3.458C57.714,53.152,57.038,53.725,56.136,53.961L56.136,53.961z M56.433,47.507
		c-0.184-0.386-0.444-0.628-0.78-0.73c-0.168-0.044-0.672-0.065-1.512-0.065h-1.618v4.723h1.534c0.993,0,1.614-0.076,1.861-0.228
		c0.249-0.153,0.443-0.415,0.581-0.788c0.141-0.371,0.21-0.837,0.21-1.395C56.71,48.397,56.618,47.891,56.433,47.507L56.433,47.507z
		 M65.754,46.712v15.463h-2.072V46.712h-3.045v-3.148h8.155v3.148H65.754L65.754,46.712z M76.641,62.175l-0.896-4.227h-4.102
		l-0.848,4.227h-2.198l3.998-18.611h2.192l4.109,18.611H76.641L76.641,62.175z M73.665,47.906l-1.387,6.906h2.801L73.665,47.906
		L73.665,47.906z M89.849,62.175h-2.681l-2.82-8.735l-1.681,3.111v5.624h-2.072V43.564h2.072v8.265l4.186-8.265h2.786l-3.863,7.249
		L89.849,62.175L89.849,62.175z M91.432,62.175V43.564h2.072v18.611H91.432L91.432,62.175z M102.136,62.175l-4.138-12.136v12.136
		h-1.925V43.564h2.016l4.201,12.429V43.564h1.925v18.611H102.136L102.136,62.175z M111.754,55.332v-3.135h4.466v7.414
		c-0.433,0.762-1.063,1.433-1.887,2.013c-0.824,0.58-1.657,0.869-2.502,0.869c-1.074,0-2.009-0.407-2.809-1.224
		c-0.798-0.817-1.397-1.985-1.798-3.503c-0.402-1.52-0.602-3.172-0.602-4.958c0-1.938,0.223-3.66,0.672-5.167
		c0.447-1.507,1.103-2.662,1.967-3.466c0.657-0.617,1.476-0.926,2.457-0.926c1.274,0,2.269,0.485,2.986,1.452
		c0.715,0.971,1.177,2.31,1.383,4.018l-2.058,0.699c-0.145-0.914-0.417-1.636-0.816-2.166c-0.399-0.528-0.898-0.793-1.496-0.793
		c-0.904,0-1.625,0.52-2.159,1.562c-0.535,1.04-0.801,2.586-0.801,4.634c0,2.21,0.27,3.865,0.812,4.97
		c0.541,1.105,1.25,1.657,2.127,1.657c0.434,0,0.869-0.155,1.307-0.464c0.436-0.309,0.811-0.683,1.123-1.124v-2.361H111.754
		L111.754,55.332z"/>
	<path fill-rule="evenodd" clip-rule="evenodd" fill="#969696" d="M64.585,87.947c-1.274,1.696-2.975,2.546-5.106,2.546
		c-2.158,0-3.872-0.845-5.144-2.534c-1.274-1.688-1.911-4.014-1.911-6.976c0-1.895,0.221-3.487,0.664-4.773
		c0.329-0.948,0.78-1.799,1.35-2.552c0.57-0.753,1.195-1.312,1.875-1.677c0.903-0.489,1.945-0.735,3.125-0.735
		c2.137,0,3.847,0.85,5.13,2.55c1.284,1.702,1.925,4.067,1.925,7.097C66.494,83.899,65.858,86.249,64.585,87.947L64.585,87.947z
		 M62.374,76.032c-0.73-1.05-1.698-1.575-2.904-1.575c-1.208,0-2.18,0.531-2.919,1.594c-0.74,1.061-1.108,2.663-1.108,4.805
		c0,2.106,0.378,3.705,1.137,4.792s1.722,1.631,2.89,1.631c1.168,0,2.126-0.539,2.873-1.618c0.749-1.079,1.123-2.699,1.123-4.857
		C63.466,78.673,63.102,77.082,62.374,76.032L62.374,76.032z M77.634,81.961c0.633,0.473,1.155,0.993,1.568,1.56
		c0.412,0.567,0.967,1.575,1.667,3.022l1.77,3.631h-3.502l-2.117-4.049c-0.753-1.447-1.266-2.36-1.544-2.736
		c-0.276-0.376-0.57-0.635-0.88-0.775c-0.31-0.139-0.801-0.208-1.473-0.208h-0.594v7.769H69.6V71.563h6.163
		c1.551,0,2.676,0.168,3.379,0.502c0.703,0.334,1.265,0.929,1.686,1.783c0.423,0.854,0.633,1.832,0.633,2.933
		c0,1.395-0.32,2.549-0.959,3.458C79.863,81.15,78.907,81.724,77.634,81.961L77.634,81.961z M78.054,75.505
		c-0.26-0.386-0.628-0.628-1.103-0.73c-0.237-0.042-0.95-0.065-2.137-0.065h-2.285v4.723h2.166c1.405,0,2.282-0.076,2.633-0.228
		c0.349-0.152,0.623-0.415,0.82-0.787c0.199-0.373,0.297-0.838,0.297-1.397C78.445,76.395,78.314,75.89,78.054,75.505L78.054,75.505
		z"/>
	<path fill-rule="evenodd" clip-rule="evenodd" fill="#969696" d="M34.702,107.844c-0.304,0.78-0.691,1.391-1.161,1.835
		c-0.47,0.444-0.946,0.738-1.433,0.882c-0.659,0.178-1.614,0.268-2.864,0.268h-1.801v7.019h-2.762V99.237h4.432
		c1.68,0,2.775,0.094,3.285,0.279c0.783,0.279,1.439,0.887,1.967,1.822c0.53,0.935,0.793,2.143,0.793,3.624
		C35.159,106.106,35.007,107.065,34.702,107.844L34.702,107.844z M31.875,103.338c-0.292-0.439-0.662-0.716-1.11-0.825
		c-0.331-0.084-0.993-0.126-1.988-0.126h-1.334v5.28h1.512c1.089,0,1.815-0.097,2.184-0.291c0.367-0.195,0.654-0.501,0.863-0.914
		c0.208-0.415,0.313-0.898,0.313-1.447C32.314,104.336,32.167,103.779,31.875,103.338L31.875,103.338z M46.103,117.848l-1.195-4.227
		H39.44l-1.129,4.227h-2.928l5.327-18.611h2.92l5.477,18.611H46.103L46.103,117.848z M42.138,103.578l-1.848,6.906h3.733
		L42.138,103.578L42.138,103.578z M57.843,102.659c-0.389-0.42-0.972-0.63-1.749-0.63c-0.803,0-1.431,0.225-1.885,0.674
		c-0.292,0.288-0.438,0.674-0.438,1.155c0,0.441,0.136,0.817,0.41,1.131c0.347,0.397,1.194,0.812,2.537,1.244
		c1.344,0.431,2.337,0.879,2.982,1.339c0.643,0.462,1.147,1.092,1.51,1.893c0.365,0.799,0.546,1.788,0.546,2.964
		c0,1.066-0.216,2.066-0.653,2.996c-0.436,0.93-1.051,1.623-1.848,2.075c-0.796,0.452-1.788,0.68-2.975,0.68
		c-1.73,0-3.057-0.544-3.985-1.631c-0.927-1.089-1.481-2.673-1.66-4.755l2.686-0.355c0.162,1.228,0.491,2.129,0.985,2.704
		c0.494,0.575,1.161,0.864,2.001,0.864c0.89,0,1.559-0.257,2.011-0.769c0.451-0.512,0.677-1.111,0.677-1.796
		c0-0.441-0.095-0.816-0.286-1.124c-0.189-0.309-0.52-0.578-0.993-0.806c-0.323-0.152-1.06-0.423-2.211-0.812
		c-1.479-0.499-2.52-1.113-3.116-1.841c-0.84-1.024-1.26-2.273-1.26-3.744c0-0.948,0.197-1.835,0.593-2.66
		c0.394-0.825,0.964-1.454,1.707-1.885c0.743-0.433,1.639-0.648,2.691-0.648c1.717,0,3.009,0.512,3.878,1.536
		c0.867,1.024,1.323,2.39,1.366,4.101l-2.762,0.165C58.486,103.766,58.233,103.078,57.843,102.659L57.843,102.659z M71.353,102.659
		c-0.389-0.42-0.972-0.63-1.749-0.63c-0.803,0-1.431,0.225-1.885,0.674c-0.292,0.288-0.438,0.674-0.438,1.155
		c0,0.441,0.136,0.817,0.41,1.131c0.347,0.397,1.194,0.812,2.537,1.244c1.344,0.431,2.337,0.879,2.982,1.339
		c0.643,0.462,1.147,1.092,1.51,1.893c0.365,0.799,0.546,1.788,0.546,2.964c0,1.066-0.216,2.066-0.653,2.996
		c-0.436,0.93-1.051,1.623-1.848,2.075c-0.796,0.452-1.788,0.68-2.975,0.68c-1.73,0-3.057-0.544-3.985-1.631
		c-0.927-1.089-1.481-2.673-1.66-4.755l2.686-0.355c0.162,1.228,0.491,2.129,0.985,2.704c0.494,0.575,1.161,0.864,2.001,0.864
		c0.89,0,1.559-0.257,2.011-0.769c0.451-0.512,0.675-1.111,0.675-1.796c0-0.441-0.094-0.816-0.284-1.124
		c-0.189-0.309-0.52-0.578-0.993-0.806c-0.323-0.152-1.061-0.423-2.211-0.812c-1.481-0.499-2.52-1.113-3.116-1.841
		c-0.84-1.024-1.26-2.273-1.26-3.744c0-0.948,0.197-1.835,0.593-2.66c0.394-0.825,0.964-1.454,1.707-1.885
		c0.743-0.433,1.639-0.648,2.691-0.648c1.717,0,3.009,0.512,3.876,1.536c0.869,1.024,1.324,2.39,1.368,4.101l-2.762,0.165
		C71.995,103.766,71.742,103.078,71.353,102.659L71.353,102.659z M78.27,117.848V99.237h2.762v18.611H78.27L78.27,117.848z
		 M92.535,117.848l-5.514-12.136v12.136h-2.566V99.237h2.688l5.598,12.429V99.237h2.565v18.611H92.535L92.535,117.848z
		 M105.353,111.006v-3.137h5.953v7.414c-0.578,0.762-1.416,1.433-2.515,2.012c-1.098,0.58-2.21,0.871-3.335,0.871
		c-1.431,0-2.678-0.409-3.742-1.226c-1.063-0.816-1.862-1.985-2.397-3.503c-0.535-1.52-0.803-3.172-0.803-4.959
		c0-1.938,0.299-3.66,0.896-5.167c0.596-1.505,1.47-2.662,2.621-3.466c0.877-0.617,1.969-0.925,3.274-0.925
		c1.699,0,3.025,0.485,3.98,1.454c0.955,0.969,1.568,2.308,1.843,4.017l-2.743,0.699c-0.194-0.914-0.556-1.636-1.087-2.164
		c-0.533-0.53-1.197-0.795-1.993-0.795c-1.207,0-2.166,0.522-2.878,1.562c-0.712,1.042-1.068,2.586-1.068,4.634
		c0,2.21,0.36,3.865,1.082,4.97c0.722,1.105,1.667,1.657,2.836,1.657c0.578,0,1.158-0.153,1.74-0.464
		c0.581-0.308,1.081-0.683,1.499-1.122v-2.361H105.353L105.353,111.006z"/>
	<linearGradient id="SVGID_2_" gradientUnits="userSpaceOnUse" x1="114.1158" y1="132.0724" x2="20.8847" y2="-1.0755">
		<stop  offset="0" style="stop-color:#000000;stop-opacity:0"/>
		<stop  offset="1" style="stop-color:#FFFFFF;stop-opacity:0.25"/>
	</linearGradient>
	<path fill-rule="evenodd" clip-rule="evenodd" fill="url(#SVGID_2_)" d="M17.999,1.999H117c2.675,0,5.001,2.324,5.001,4.999v117
		c0,2.675-2.326,5.001-5.001,5.001H17.999c-2.675,0-4.999-2.326-4.999-5.001v-117C13,4.323,15.325,1.999,17.999,1.999L17.999,1.999z
		"/>
</g>
<g id="normal">
	<g>
		<defs>
			<path id="SVGID_3_" d="M18.999,2.999H118c2.675,0,5.001,2.324,5.001,4.999v117c0,2.675-2.326,5.001-5.001,5.001H18.999
				c-2.675,0-4.999-2.326-4.999-5.001v-117C14,5.323,16.325,2.999,18.999,2.999L18.999,2.999z"/>
		</defs>
		<defs>
			<path id="SVGID_4_" d="M17.999,1.999H117c2.675,0,5.001,2.324,5.001,4.999v117c0,2.675-2.326,5.001-5.001,5.001H17.999
				c-2.675,0-4.999-2.326-4.999-5.001v-117C13,4.323,15.325,1.999,17.999,1.999L17.999,1.999z"/>
		</defs>
		<linearGradient id="SVGID_5_" gradientUnits="userSpaceOnUse" x1="14.0004" y1="66.499" x2="123.0006" y2="66.499">
			<stop  offset="0" style="stop-color:#000000;stop-opacity:0.6"/>
			<stop  offset="1" style="stop-color:#000000;stop-opacity:0.6"/>
		</linearGradient>
		<use xlink:href="#SVGID_3_"  overflow="visible" fill-rule="evenodd" clip-rule="evenodd" fill="url(#SVGID_5_)"/>
		<use xlink:href="#SVGID_4_"  overflow="visible" fill-rule="evenodd" clip-rule="evenodd"/>
		<clipPath id="SVGID_6_">
			<use xlink:href="#SVGID_3_"  overflow="visible"/>
		</clipPath>
		<clipPath id="SVGID_7_" clip-path="url(#SVGID_6_)">
			<use xlink:href="#SVGID_4_"  overflow="visible"/>
		</clipPath>
	</g>
	<g>
		<defs>
			<path id="SVGID_8_" d="M17.999,126.999c-1.57,0-2.999-1.431-2.999-3.001v-117c0-1.57,1.429-2.999,2.999-2.999H117
				c1.57,0,3.001,1.429,3.001,2.999v117c0,1.57-1.431,3.001-3.001,3.001H17.999"/>
		</defs>
		<use xlink:href="#SVGID_8_"  overflow="visible" fill-rule="evenodd" clip-rule="evenodd" fill="#FFFFFF"/>
		<clipPath id="SVGID_9_">
			<use xlink:href="#SVGID_8_"  overflow="visible"/>
		</clipPath>
	</g>
	<g>
		<defs>
			<path id="SVGID_10_" d="M71.364,31.153c1.528,1.689,3.586,2.534,6.173,2.534c2.557,0,4.6-0.85,6.126-2.546
				c1.528-1.698,2.292-4.048,2.292-7.053c0-3.03-0.77-5.395-2.31-7.097c-1.539-1.701-3.59-2.55-6.155-2.55
				c-1.417,0-2.668,0.246-3.752,0.735c-0.816,0.365-1.565,0.924-2.25,1.677c-0.685,0.753-1.224,1.604-1.62,2.552
				c-0.531,1.286-0.796,2.878-0.796,4.773C69.072,27.14,69.836,29.465,71.364,31.153L71.364,31.153z M74.022,19.246
				c0.887-1.063,2.054-1.594,3.503-1.594s2.61,0.525,3.484,1.575c0.875,1.05,1.313,2.641,1.313,4.773
				c0,2.158-0.449,3.778-1.349,4.857c-0.898,1.079-2.048,1.618-3.448,1.618s-2.557-0.544-3.468-1.631
				c-0.909-1.087-1.365-2.686-1.365-4.792C72.693,21.91,73.137,20.308,74.022,19.246L74.022,19.246z"/>
		</defs>
		<use xlink:href="#SVGID_10_"  overflow="visible" fill-rule="evenodd" clip-rule="evenodd"/>
		<clipPath id="SVGID_11_">
			<use xlink:href="#SVGID_10_"  overflow="visible"/>
		</clipPath>
	</g>
	<g>
		<defs>
			<polygon id="SVGID_12_" points="52.622,33.369 52.622,21.233 60.888,33.369 65.042,33.369 65.042,14.758 61.197,14.758 
				61.197,27.186 52.803,14.758 48.774,14.758 48.774,33.369 52.622,33.369 			"/>
		</defs>
		<use xlink:href="#SVGID_12_"  overflow="visible" fill-rule="evenodd" clip-rule="evenodd"/>
		<clipPath id="SVGID_13_">
			<use xlink:href="#SVGID_12_"  overflow="visible"/>
		</clipPath>
	</g>
	<g>
		<defs>
			<path id="SVGID_14_" d="M26.629,59.948c-0.901,1.696-2.105,2.544-3.611,2.544c-1.526,0-2.741-0.843-3.641-2.533
				c-0.901-1.688-1.352-4.014-1.352-6.976c0-1.896,0.157-3.487,0.47-4.773c0.233-0.948,0.551-1.799,0.955-2.552
				s0.846-1.311,1.328-1.677c0.638-0.489,1.376-0.735,2.211-0.735c1.513,0,2.723,0.85,3.631,2.55
				c0.908,1.702,1.362,4.067,1.362,7.097C27.981,55.899,27.53,58.251,26.629,59.948L26.629,59.948z M25.064,48.033
				c-0.515-1.05-1.2-1.575-2.055-1.575c-0.853,0-1.542,0.531-2.064,1.594c-0.523,1.061-0.785,2.663-0.785,4.805
				c0,2.106,0.268,3.705,0.806,4.792c0.536,1.087,1.218,1.631,2.043,1.631c0.827,0,1.504-0.539,2.034-1.618
				c0.53-1.079,0.795-2.699,0.795-4.857C25.838,50.674,25.581,49.083,25.064,48.033L25.064,48.033z M35.002,62.175h-2.213
				l-3.668-18.611h2.247l2.597,13.774l2.513-13.774h2.198L35.002,62.175L35.002,62.175z M48.114,59.041v3.135h-7.806V43.564h7.611
				v3.148H42.38v4.127h5.152v3.135H42.38v5.067H48.114L48.114,59.041z M56.136,53.961c0.447,0.475,0.817,0.995,1.11,1.562
				c0.291,0.567,0.685,1.575,1.179,3.022l1.253,3.631h-2.478l-1.499-4.049c-0.531-1.447-0.896-2.36-1.092-2.736
				c-0.195-0.376-0.404-0.635-0.623-0.775c-0.22-0.139-0.567-0.208-1.043-0.208h-0.42v7.769h-2.072V43.564h4.363
				c1.097,0,1.893,0.168,2.39,0.501c0.497,0.336,0.895,0.93,1.194,1.785c0.299,0.854,0.447,1.832,0.447,2.933
				c0,1.396-0.226,2.549-0.678,3.458C57.714,53.152,57.038,53.725,56.136,53.961L56.136,53.961z M56.433,47.507
				c-0.184-0.386-0.444-0.628-0.78-0.73c-0.168-0.044-0.672-0.065-1.512-0.065h-1.618v4.723h1.534c0.993,0,1.614-0.076,1.861-0.228
				c0.249-0.153,0.443-0.415,0.581-0.788c0.141-0.371,0.21-0.837,0.21-1.395C56.71,48.397,56.618,47.891,56.433,47.507
				L56.433,47.507z M65.754,46.712v15.463h-2.072V46.712h-3.045v-3.148h8.155v3.148H65.754L65.754,46.712z M76.641,62.175
				l-0.896-4.227h-4.102l-0.848,4.227h-2.198l3.998-18.611h2.192l4.109,18.611H76.641L76.641,62.175z M73.665,47.906l-1.387,6.906
				h2.801L73.665,47.906L73.665,47.906z M89.849,62.175h-2.681l-2.82-8.735l-1.681,3.111v5.624h-2.072V43.564h2.072v8.265
				l4.186-8.265h2.786l-3.863,7.249L89.849,62.175L89.849,62.175z M91.432,62.175V43.564h2.072v18.611H91.432L91.432,62.175z
				 M102.136,62.175l-4.138-12.136v12.136h-1.925V43.564h2.016l4.201,12.429V43.564h1.925v18.611H102.136L102.136,62.175z
				 M111.754,55.332v-3.135h4.466v7.414c-0.433,0.762-1.063,1.433-1.887,2.013c-0.824,0.58-1.657,0.869-2.502,0.869
				c-1.074,0-2.009-0.407-2.809-1.224c-0.798-0.817-1.397-1.985-1.798-3.503c-0.402-1.52-0.602-3.172-0.602-4.958
				c0-1.938,0.223-3.66,0.672-5.167c0.447-1.507,1.103-2.662,1.967-3.466c0.657-0.617,1.476-0.926,2.457-0.926
				c1.274,0,2.269,0.485,2.986,1.452c0.715,0.971,1.177,2.31,1.383,4.018l-2.058,0.699c-0.145-0.914-0.417-1.636-0.816-2.166
				c-0.399-0.528-0.898-0.793-1.496-0.793c-0.904,0-1.625,0.52-2.159,1.562c-0.535,1.04-0.801,2.586-0.801,4.634
				c0,2.21,0.27,3.865,0.812,4.97c0.541,1.105,1.25,1.657,2.127,1.657c0.434,0,0.869-0.155,1.307-0.464
				c0.436-0.309,0.811-0.683,1.123-1.124v-2.361H111.754L111.754,55.332z"/>
		</defs>
		<use xlink:href="#SVGID_14_"  overflow="visible" fill-rule="evenodd" clip-rule="evenodd"/>
		<clipPath id="SVGID_15_">
			<use xlink:href="#SVGID_14_"  overflow="visible"/>
		</clipPath>
	</g>
	<g>
		<defs>
			<path id="SVGID_16_" d="M64.585,87.947c-1.274,1.696-2.975,2.546-5.106,2.546c-2.158,0-3.872-0.845-5.144-2.534
				c-1.274-1.688-1.911-4.014-1.911-6.976c0-1.895,0.221-3.487,0.664-4.773c0.329-0.948,0.78-1.799,1.35-2.552
				c0.57-0.753,1.195-1.312,1.875-1.677c0.903-0.489,1.945-0.735,3.125-0.735c2.137,0,3.847,0.85,5.13,2.55
				c1.284,1.702,1.925,4.067,1.925,7.097C66.494,83.899,65.858,86.249,64.585,87.947L64.585,87.947z M62.374,76.032
				c-0.73-1.05-1.698-1.575-2.904-1.575c-1.208,0-2.18,0.531-2.919,1.594c-0.74,1.061-1.108,2.663-1.108,4.805
				c0,2.106,0.378,3.705,1.137,4.792s1.722,1.631,2.89,1.631c1.168,0,2.126-0.539,2.873-1.618c0.749-1.079,1.123-2.699,1.123-4.857
				C63.466,78.673,63.102,77.082,62.374,76.032L62.374,76.032z M77.634,81.961c0.633,0.473,1.155,0.993,1.568,1.56
				c0.412,0.567,0.967,1.575,1.667,3.022l1.77,3.631h-3.502l-2.117-4.049c-0.753-1.447-1.266-2.36-1.544-2.736
				c-0.276-0.376-0.57-0.635-0.88-0.775c-0.31-0.139-0.801-0.208-1.473-0.208h-0.594v7.769H69.6V71.563h6.163
				c1.551,0,2.676,0.168,3.379,0.502c0.703,0.334,1.265,0.929,1.686,1.783c0.423,0.854,0.633,1.832,0.633,2.933
				c0,1.395-0.32,2.549-0.959,3.458C79.863,81.15,78.907,81.724,77.634,81.961L77.634,81.961z M78.054,75.505
				c-0.26-0.386-0.628-0.628-1.103-0.73c-0.237-0.042-0.95-0.065-2.137-0.065h-2.285v4.723h2.166c1.405,0,2.282-0.076,2.633-0.228
				c0.349-0.152,0.623-0.415,0.82-0.787c0.199-0.373,0.297-0.838,0.297-1.397C78.445,76.395,78.314,75.89,78.054,75.505
				L78.054,75.505z"/>
		</defs>
		<use xlink:href="#SVGID_16_"  overflow="visible" fill-rule="evenodd" clip-rule="evenodd"/>
		<clipPath id="SVGID_17_">
			<use xlink:href="#SVGID_16_"  overflow="visible"/>
		</clipPath>
	</g>
	<g>
		<defs>
			<path id="SVGID_18_" d="M34.702,107.844c-0.304,0.78-0.691,1.391-1.161,1.835c-0.47,0.444-0.946,0.738-1.433,0.882
				c-0.659,0.178-1.614,0.268-2.864,0.268h-1.801v7.019h-2.762V99.237h4.432c1.68,0,2.775,0.094,3.285,0.279
				c0.783,0.279,1.439,0.887,1.967,1.822c0.53,0.935,0.793,2.143,0.793,3.624C35.159,106.106,35.007,107.065,34.702,107.844
				L34.702,107.844z M31.875,103.338c-0.292-0.439-0.662-0.716-1.11-0.825c-0.331-0.084-0.993-0.126-1.988-0.126h-1.334v5.28h1.512
				c1.089,0,1.815-0.097,2.184-0.291c0.367-0.195,0.654-0.501,0.863-0.914c0.208-0.415,0.313-0.898,0.313-1.447
				C32.314,104.336,32.167,103.779,31.875,103.338L31.875,103.338z M46.103,117.848l-1.195-4.227H39.44l-1.129,4.227h-2.928
				l5.327-18.611h2.92l5.477,18.611H46.103L46.103,117.848z M42.138,103.578l-1.848,6.906h3.733L42.138,103.578L42.138,103.578z
				 M57.843,102.659c-0.389-0.42-0.972-0.63-1.749-0.63c-0.803,0-1.431,0.225-1.885,0.674c-0.292,0.288-0.438,0.674-0.438,1.155
				c0,0.441,0.136,0.817,0.41,1.131c0.347,0.397,1.194,0.812,2.537,1.244c1.344,0.431,2.337,0.879,2.982,1.339
				c0.643,0.462,1.147,1.092,1.51,1.893c0.365,0.799,0.546,1.788,0.546,2.964c0,1.066-0.216,2.066-0.653,2.996
				c-0.436,0.93-1.051,1.623-1.848,2.075c-0.796,0.452-1.788,0.68-2.975,0.68c-1.73,0-3.057-0.544-3.985-1.631
				c-0.927-1.089-1.481-2.673-1.66-4.755l2.686-0.355c0.162,1.228,0.491,2.129,0.985,2.704c0.494,0.575,1.161,0.864,2.001,0.864
				c0.89,0,1.559-0.257,2.011-0.769c0.451-0.512,0.677-1.111,0.677-1.796c0-0.441-0.095-0.816-0.286-1.124
				c-0.189-0.309-0.52-0.578-0.993-0.806c-0.323-0.152-1.06-0.423-2.211-0.812c-1.479-0.499-2.52-1.113-3.116-1.841
				c-0.84-1.024-1.26-2.273-1.26-3.744c0-0.948,0.197-1.835,0.593-2.66c0.394-0.825,0.964-1.454,1.707-1.885
				c0.743-0.433,1.639-0.648,2.691-0.648c1.717,0,3.009,0.512,3.878,1.536c0.867,1.024,1.323,2.39,1.366,4.101l-2.762,0.165
				C58.486,103.766,58.233,103.078,57.843,102.659L57.843,102.659z M71.353,102.659c-0.389-0.42-0.972-0.63-1.749-0.63
				c-0.803,0-1.431,0.225-1.885,0.674c-0.292,0.288-0.438,0.674-0.438,1.155c0,0.441,0.136,0.817,0.41,1.131
				c0.347,0.397,1.194,0.812,2.537,1.244c1.344,0.431,2.337,0.879,2.982,1.339c0.643,0.462,1.147,1.092,1.51,1.893
				c0.365,0.799,0.546,1.788,0.546,2.964c0,1.066-0.216,2.066-0.653,2.996c-0.436,0.93-1.051,1.623-1.848,2.075
				c-0.796,0.452-1.788,0.68-2.975,0.68c-1.73,0-3.057-0.544-3.985-1.631c-0.927-1.089-1.481-2.673-1.66-4.755l2.686-0.355
				c0.162,1.228,0.491,2.129,0.985,2.704c0.494,0.575,1.161,0.864,2.001,0.864c0.89,0,1.559-0.257,2.011-0.769
				c0.451-0.512,0.675-1.111,0.675-1.796c0-0.441-0.094-0.816-0.284-1.124c-0.189-0.309-0.52-0.578-0.993-0.806
				c-0.323-0.152-1.061-0.423-2.211-0.812c-1.481-0.499-2.52-1.113-3.116-1.841c-0.84-1.024-1.26-2.273-1.26-3.744
				c0-0.948,0.197-1.835,0.593-2.66c0.394-0.825,0.964-1.454,1.707-1.885c0.743-0.433,1.639-0.648,2.691-0.648
				c1.717,0,3.009,0.512,3.876,1.536c0.869,1.024,1.324,2.39,1.368,4.101l-2.762,0.165
				C71.995,103.766,71.742,103.078,71.353,102.659L71.353,102.659z M78.27,117.848V99.237h2.762v18.611H78.27L78.27,117.848z
				 M92.535,117.848l-5.514-12.136v12.136h-2.566V99.237h2.688l5.598,12.429V99.237h2.565v18.611H92.535L92.535,117.848z
				 M105.353,111.006v-3.137h5.953v7.414c-0.578,0.762-1.416,1.433-2.515,2.012c-1.098,0.58-2.21,0.871-3.335,0.871
				c-1.431,0-2.678-0.409-3.742-1.226c-1.063-0.816-1.862-1.985-2.397-3.503c-0.535-1.52-0.803-3.172-0.803-4.959
				c0-1.938,0.299-3.66,0.896-5.167c0.596-1.505,1.47-2.662,2.621-3.466c0.877-0.617,1.969-0.925,3.274-0.925
				c1.699,0,3.025,0.485,3.98,1.454c0.955,0.969,1.568,2.308,1.843,4.017l-2.743,0.699c-0.194-0.914-0.556-1.636-1.087-2.164
				c-0.533-0.53-1.197-0.795-1.993-0.795c-1.207,0-2.166,0.522-2.878,1.562c-0.712,1.042-1.068,2.586-1.068,4.634
				c0,2.21,0.36,3.865,1.082,4.97c0.722,1.105,1.667,1.657,2.836,1.657c0.578,0,1.158-0.153,1.74-0.464
				c0.581-0.308,1.081-0.683,1.499-1.122v-2.361H105.353L105.353,111.006z"/>
		</defs>
		<use xlink:href="#SVGID_18_"  overflow="visible" fill-rule="evenodd" clip-rule="evenodd"/>
		<clipPath id="SVGID_19_">
			<use xlink:href="#SVGID_18_"  overflow="visible"/>
		</clipPath>
	</g>
	<linearGradient id="SVGID_20_" gradientUnits="userSpaceOnUse" x1="114.1158" y1="132.0724" x2="20.8847" y2="-1.0755">
		<stop  offset="0" style="stop-color:#000000;stop-opacity:0"/>
		<stop  offset="1" style="stop-color:#FFFFFF;stop-opacity:0.25"/>
	</linearGradient>
	<path fill-rule="evenodd" clip-rule="evenodd" fill="url(#SVGID_20_)" d="M17.999,1.999H117c2.675,0,5.001,2.324,5.001,4.999v117
		c0,2.675-2.326,5.001-5.001,5.001H17.999c-2.675,0-4.999-2.326-4.999-5.001v-117C13,4.323,15.325,1.999,17.999,1.999L17.999,1.999z
		"/>
</g>
</svg>
