<?xml version="1.0" encoding="utf-8"?>
<!-- Generator: Adobe Illustrator 17.0.1, SVG Export Plug-In . SVG Version: 6.00 Build 0)  -->
<!DOCTYPE svg PUBLIC "-//W3C//DTD SVG 1.1//EN" "http://www.w3.org/Graphics/SVG/1.1/DTD/svg11.dtd">
<svg version="1.1" xmlns="http://www.w3.org/2000/svg" xmlns:xlink="http://www.w3.org/1999/xlink" x="0px" y="0px" width="132px"
	 height="132px" viewBox="0 0 132 132" enable-background="new 0 0 132 132" xml:space="preserve">
<g id="disabled">
	<g>
		<defs>
			<path id="SVGID_1_" d="M72.496,5.558l54.946,54.946c3.339,3.339,3.339,8.756,0,12.095l-54.842,54.842
				c-3.339,3.339-8.755,3.339-12.095,0L5.56,72.496c-3.341-3.339-3.341-8.756,0-12.095L60.4,5.558
				C63.741,2.219,69.157,2.219,72.496,5.558L72.496,5.558z"/>
		</defs>
		<defs>
			<path id="SVGID_2_" d="M71.496,4.558l54.946,54.946c3.339,3.339,3.339,8.756,0,12.095l-54.842,54.842
				c-3.339,3.339-8.755,3.339-12.095,0L4.56,71.496c-3.341-3.339-3.341-8.756,0-12.095L59.4,4.558
				C62.741,1.219,68.157,1.219,71.496,4.558L71.496,4.558z"/>
		</defs>
		<linearGradient id="SVGID_3_" gradientUnits="userSpaceOnUse" x1="3.054" y1="66.5" x2="129.946" y2="66.5">
			<stop  offset="0" style="stop-color:#000000;stop-opacity:0.6"/>
			<stop  offset="1" style="stop-color:#000000;stop-opacity:0.6"/>
		</linearGradient>
		<use xlink:href="#SVGID_1_"  overflow="visible" fill-rule="evenodd" clip-rule="evenodd" fill="url(#SVGID_3_)"/>
		<use xlink:href="#SVGID_2_"  overflow="visible" fill="#BEBEBE"/>
		<clipPath id="SVGID_4_">
			<use xlink:href="#SVGID_1_"  overflow="visible"/>
		</clipPath>
		<clipPath id="SVGID_5_" clip-path="url(#SVGID_4_)">
			<use xlink:href="#SVGID_2_"  overflow="visible"/>
		</clipPath>
	</g>
	<g>
		<defs>
			<path id="SVGID_6_" d="M123.833,71.338l-52.494,52.494c-3.196,3.198-8.381,3.198-11.577,0L7.169,71.24
				c-3.198-3.196-3.198-8.381,0-11.577L59.661,7.168c3.198-3.198,8.381-3.198,11.579,0l52.593,52.593
				C127.029,62.959,127.029,68.142,123.833,71.338L123.833,71.338z M122.048,62.87L68.183,9.008c-1.45-1.452-3.804-1.452-5.254,0
				L9.063,62.87c-1.45,1.454-1.45,3.805,0,5.257l53.865,53.864c1.45,1.45,3.804,1.45,5.254,0l53.865-53.864
				C123.498,66.675,123.498,64.323,122.048,62.87L122.048,62.87z"/>
		</defs>
		<use xlink:href="#SVGID_6_"  overflow="visible" fill-rule="evenodd" clip-rule="evenodd"/>
		<clipPath id="SVGID_7_">
			<use xlink:href="#SVGID_6_"  overflow="visible"/>
		</clipPath>
	</g>
	<g>
		<defs>
			<path id="SVGID_8_" d="M71.536,56.49L54.265,67.131c-3.576-4.891-12.091-0.782-9.694,6.317l-3.744,2.298v0.121
				c-0.334-0.552-1.24-4.671-1.24-4.671l-1.026-2.626l5.548-4.724l-0.451-9.655l14.263-9.193c2.232,0.171,7.268,2.037,9.316,4.135
				c3.852-3.017,11.508-5.532,11.508-5.532l2.854,2.692l2.145,0.331l1.158,1.363l-4.955,3.25
				C76.157,45.42,68.78,51.467,71.536,56.49L71.536,56.49z M45.49,54.881h0.06c-0.084,1.135,0.501,8.06,0.501,8.06l8.622-5.773
				l-3.586-5.815L45.49,54.881L45.49,54.881z M57.928,46.815l-5.16,3.484l3.746,5.64l8.833-5.685
				C64.23,49.062,60.824,47.019,57.928,46.815L57.928,46.815z M45.472,70.519c0-2.365,1.917-4.283,4.283-4.283
				c2.366,0,4.283,1.919,4.283,4.283c0,2.366-1.917,4.283-4.283,4.283C47.389,74.803,45.472,72.885,45.472,70.519L45.472,70.519z
				 M52.036,70.521c0-1.258-1.019-2.277-2.277-2.277c-1.258,0-2.277,1.019-2.277,2.277c0,1.258,1.019,2.277,2.277,2.277
				C51.017,72.798,52.036,71.779,52.036,70.521L52.036,70.521z M76.232,58.788c-2.366,0-4.285-1.917-4.285-4.283
				c0-2.366,1.919-4.283,4.285-4.283c2.365,0,4.283,1.917,4.283,4.283c0,1.295-0.588,2.442-1.496,3.227l20.322-12.48l-0.097,41.469
				l-67.584,0.098l46.135-28.336C77.311,58.675,76.785,58.788,76.232,58.788L76.232,58.788z M76.236,52.228
				c-1.258,0-2.279,1.021-2.279,2.279c0,1.257,1.021,2.277,2.279,2.277c1.257,0,2.277-1.021,2.277-2.277
				C78.513,53.248,77.492,52.228,76.236,52.228L76.236,52.228z"/>
		</defs>
		<use xlink:href="#SVGID_8_"  overflow="visible" fill-rule="evenodd" clip-rule="evenodd"/>
		<clipPath id="SVGID_9_">
			<use xlink:href="#SVGID_8_"  overflow="visible"/>
		</clipPath>
	</g>
	<linearGradient id="SVGID_10_" gradientUnits="userSpaceOnUse" x1="96.2154" y1="109.3656" x2="34.7851" y2="21.6341">
		<stop  offset="0" style="stop-color:#000000;stop-opacity:0"/>
		<stop  offset="1" style="stop-color:#FFFFFF;stop-opacity:0.25"/>
	</linearGradient>
	<path fill-rule="evenodd" clip-rule="evenodd" fill="url(#SVGID_10_)" d="M71.496,4.558l54.946,54.946
		c3.339,3.339,3.339,8.756,0,12.095l-54.842,54.842c-3.339,3.339-8.755,3.339-12.095,0L4.56,71.496
		c-3.341-3.339-3.341-8.756,0-12.095L59.4,4.558C62.741,1.219,68.157,1.219,71.496,4.558L71.496,4.558z"/>
</g>
<g id="normal">
	<g>
		<defs>
			<path id="SVGID_11_" d="M72.496,5.558l54.946,54.946c3.339,3.339,3.339,8.756,0,12.095l-54.842,54.842
				c-3.339,3.339-8.755,3.339-12.095,0L5.56,72.496c-3.341-3.339-3.341-8.756,0-12.095L60.4,5.558
				C63.741,2.219,69.157,2.219,72.496,5.558L72.496,5.558z"/>
		</defs>
		<defs>
			<path id="SVGID_12_" d="M71.496,4.558l54.946,54.946c3.339,3.339,3.339,8.756,0,12.095l-54.842,54.842
				c-3.339,3.339-8.755,3.339-12.095,0L4.56,71.496c-3.341-3.339-3.341-8.756,0-12.095L59.4,4.558
				C62.741,1.219,68.157,1.219,71.496,4.558L71.496,4.558z"/>
		</defs>
		<linearGradient id="SVGID_13_" gradientUnits="userSpaceOnUse" x1="3.054" y1="66.5" x2="129.946" y2="66.5">
			<stop  offset="0" style="stop-color:#000000;stop-opacity:0.6"/>
			<stop  offset="1" style="stop-color:#000000;stop-opacity:0.6"/>
		</linearGradient>
		<use xlink:href="#SVGID_11_"  overflow="visible" fill-rule="evenodd" clip-rule="evenodd" fill="url(#SVGID_13_)"/>
		<use xlink:href="#SVGID_12_"  overflow="visible" fill="#FFC000"/>
		<clipPath id="SVGID_14_">
			<use xlink:href="#SVGID_11_"  overflow="visible"/>
		</clipPath>
		<clipPath id="SVGID_15_" clip-path="url(#SVGID_14_)">
			<use xlink:href="#SVGID_12_"  overflow="visible"/>
		</clipPath>
	</g>
	<g>
		<defs>
			<path id="SVGID_16_" d="M123.833,71.338l-52.494,52.494c-3.196,3.198-8.381,3.198-11.577,0L7.169,71.24
				c-3.198-3.196-3.198-8.381,0-11.577L59.661,7.168c3.198-3.198,8.381-3.198,11.579,0l52.593,52.593
				C127.029,62.959,127.029,68.142,123.833,71.338L123.833,71.338z M122.048,62.87L68.183,9.008c-1.45-1.452-3.804-1.452-5.254,0
				L9.063,62.87c-1.45,1.454-1.45,3.805,0,5.257l53.865,53.864c1.45,1.45,3.804,1.45,5.254,0l53.865-53.864
				C123.498,66.675,123.498,64.323,122.048,62.87L122.048,62.87z"/>
		</defs>
		<use xlink:href="#SVGID_16_"  overflow="visible" fill-rule="evenodd" clip-rule="evenodd"/>
		<clipPath id="SVGID_17_">
			<use xlink:href="#SVGID_16_"  overflow="visible"/>
		</clipPath>
	</g>
	<g>
		<defs>
			<path id="SVGID_18_" d="M71.536,56.49L54.265,67.131c-3.576-4.891-12.091-0.782-9.694,6.317l-3.744,2.298v0.121
				c-0.334-0.552-1.24-4.671-1.24-4.671l-1.026-2.626l5.548-4.724l-0.451-9.655l14.263-9.193c2.232,0.171,7.268,2.037,9.316,4.135
				c3.852-3.017,11.508-5.532,11.508-5.532l2.854,2.692l2.145,0.331l1.158,1.363l-4.955,3.25
				C76.157,45.42,68.78,51.467,71.536,56.49L71.536,56.49z M45.49,54.881h0.06c-0.084,1.135,0.501,8.06,0.501,8.06l8.622-5.773
				l-3.586-5.815L45.49,54.881L45.49,54.881z M57.928,46.815l-5.16,3.484l3.746,5.64l8.833-5.685
				C64.23,49.062,60.824,47.019,57.928,46.815L57.928,46.815z M45.472,70.519c0-2.365,1.917-4.283,4.283-4.283
				c2.366,0,4.283,1.919,4.283,4.283c0,2.366-1.917,4.283-4.283,4.283C47.389,74.803,45.472,72.885,45.472,70.519L45.472,70.519z
				 M52.036,70.521c0-1.258-1.019-2.277-2.277-2.277c-1.258,0-2.277,1.019-2.277,2.277c0,1.258,1.019,2.277,2.277,2.277
				C51.017,72.798,52.036,71.779,52.036,70.521L52.036,70.521z M76.232,58.788c-2.366,0-4.285-1.917-4.285-4.283
				c0-2.366,1.919-4.283,4.285-4.283c2.365,0,4.283,1.917,4.283,4.283c0,1.295-0.588,2.442-1.496,3.227l20.322-12.48l-0.097,41.469
				l-67.584,0.098l46.135-28.336C77.311,58.675,76.785,58.788,76.232,58.788L76.232,58.788z M76.236,52.228
				c-1.258,0-2.279,1.021-2.279,2.279c0,1.257,1.021,2.277,2.279,2.277c1.257,0,2.277-1.021,2.277-2.277
				C78.513,53.248,77.492,52.228,76.236,52.228L76.236,52.228z"/>
		</defs>
		<use xlink:href="#SVGID_18_"  overflow="visible" fill-rule="evenodd" clip-rule="evenodd"/>
		<clipPath id="SVGID_19_">
			<use xlink:href="#SVGID_18_"  overflow="visible"/>
		</clipPath>
	</g>
	<linearGradient id="SVGID_20_" gradientUnits="userSpaceOnUse" x1="96.2154" y1="109.3656" x2="34.7851" y2="21.6341">
		<stop  offset="0" style="stop-color:#000000;stop-opacity:0"/>
		<stop  offset="1" style="stop-color:#FFFFFF;stop-opacity:0.25"/>
	</linearGradient>
	<path fill-rule="evenodd" clip-rule="evenodd" fill="url(#SVGID_20_)" d="M71.496,4.558l54.946,54.946
		c3.339,3.339,3.339,8.756,0,12.095l-54.842,54.842c-3.339,3.339-8.755,3.339-12.095,0L4.56,71.496
		c-3.341-3.339-3.341-8.756,0-12.095L59.4,4.558C62.741,1.219,68.157,1.219,71.496,4.558L71.496,4.558z"/>
</g>
</svg>
