<?xml version="1.0" encoding="utf-8"?>
<!-- Generator: Adobe Illustrator 17.0.1, SVG Export Plug-In . SVG Version: 6.00 Build 0)  -->
<!DOCTYPE svg PUBLIC "-//W3C//DTD SVG 1.1//EN" "http://www.w3.org/Graphics/SVG/1.1/DTD/svg11.dtd">
<svg version="1.1" xmlns="http://www.w3.org/2000/svg" xmlns:xlink="http://www.w3.org/1999/xlink" x="0px" y="0px" width="132px"
	 height="132px" viewBox="0 0 132 132" enable-background="new 0 0 132 132" xml:space="preserve">
<g id="disabled">
	<g>
		<defs>
			<path id="SVGID_1_" d="M72.496,5.56l54.946,54.944c3.339,3.341,3.339,8.756,0,12.095l-54.842,54.842
				c-3.339,3.339-8.755,3.339-12.095,0L5.56,72.496c-3.341-3.339-3.341-8.755,0-12.095L60.4,5.56
				C63.741,2.218,69.157,2.218,72.496,5.56L72.496,5.56z"/>
		</defs>
		<defs>
			<path id="SVGID_2_" d="M71.496,4.56l54.946,54.944c3.339,3.341,3.339,8.756,0,12.095l-54.842,54.842
				c-3.339,3.339-8.755,3.339-12.095,0L4.56,71.496c-3.341-3.339-3.341-8.755,0-12.095L59.4,4.56
				C62.741,1.218,68.157,1.218,71.496,4.56L71.496,4.56z"/>
		</defs>
		<linearGradient id="SVGID_3_" gradientUnits="userSpaceOnUse" x1="3.054" y1="66.5" x2="129.946" y2="66.5">
			<stop  offset="0" style="stop-color:#000000;stop-opacity:0.6"/>
			<stop  offset="1" style="stop-color:#000000;stop-opacity:0.6"/>
		</linearGradient>
		<use xlink:href="#SVGID_1_"  overflow="visible" fill-rule="evenodd" clip-rule="evenodd" fill="url(#SVGID_3_)"/>
		<use xlink:href="#SVGID_2_"  overflow="visible" fill="#BEBEBE"/>
		<clipPath id="SVGID_4_">
			<use xlink:href="#SVGID_1_"  overflow="visible"/>
		</clipPath>
		<clipPath id="SVGID_5_" clip-path="url(#SVGID_4_)">
			<use xlink:href="#SVGID_2_"  overflow="visible"/>
		</clipPath>
	</g>
	<g>
		<defs>
			<path id="SVGID_6_" d="M123.833,71.339l-52.494,52.494c-3.196,3.196-8.381,3.196-11.577,0L7.169,71.24
				c-3.198-3.196-3.198-8.381,0-11.579L59.661,7.169c3.198-3.198,8.381-3.198,11.579,0l52.593,52.593
				C127.029,62.958,127.029,68.142,123.833,71.339L123.833,71.339z M122.048,62.871L68.183,9.007c-1.45-1.45-3.804-1.45-5.254,0
				L9.063,62.871c-1.45,1.452-1.45,3.805,0,5.256l53.865,53.865c1.45,1.45,3.804,1.45,5.254,0l53.865-53.865
				C123.498,66.676,123.498,64.323,122.048,62.871L122.048,62.871z"/>
		</defs>
		<use xlink:href="#SVGID_6_"  overflow="visible" fill-rule="evenodd" clip-rule="evenodd"/>
		<clipPath id="SVGID_7_">
			<use xlink:href="#SVGID_6_"  overflow="visible"/>
		</clipPath>
	</g>
	<g>
		<defs>
			<path id="SVGID_8_" d="M90.061,85.15c-7.389,0-13.382-5.991-13.382-13.38c0-3.965,1.736-7.517,4.476-9.967l-1.402-2.508
				L67.716,69.811c0.333,0.695,0.525,1.468,0.525,2.289c0,2.935-2.379,5.314-5.314,5.314c-0.707,0-1.381-0.142-1.998-0.392
				l-1.247-0.72c-1.077-0.833-1.822-2.069-2.014-3.482l-2.075,0.011c-0.541,6.893-6.294,12.32-13.327,12.32
				c-7.391,0-13.382-5.991-13.382-13.38c0-7.391,5.991-13.381,13.382-13.381c1.447,0,2.838,0.236,4.143,0.661l4.29-10.771
				l-0.082-0.186l-1.326-2.859l-1.326-0.092l-1.206-0.921l-0.496-2.536l-0.483-0.964l15.877,0.045l-0.391,1.373l-8.147,3.229
				l1.102,2.566l18.891-0.284l-0.052-0.16c0,0,1.276-2.247,3.348-2.497c1.289-0.158,0.657-3.014,0.657-3.014l-6.423-0.121
				L70.4,38.603l9.941-0.121c0,0,1.807,0.724,2.05,2.29c0.241,1.567,0,4.768-0.845,5.009c-0.843,0.242-1.928,1.51-1.928,1.51
				s-0.632-1.497-0.128,0.11l0.244,1.163l3.153,9.339l0.183,0.16c0.21,0.648,0.446,1.282,0.696,1.901
				c1.877-1.003,4.018-1.575,6.296-1.575c7.389,0,13.382,5.991,13.382,13.381C103.443,79.159,97.451,85.15,90.061,85.15
				L90.061,85.15z M45.611,69.774l5.815,0.168c-0.457-2.306-1.767-4.298-3.582-5.655L45.611,69.774L45.611,69.774z M42.266,62.428
				c-5.16,0-9.342,4.182-9.342,9.342c0,5.159,4.182,9.342,9.342,9.342c4.792,0,8.738-3.611,9.274-8.261l-10.652,0.058l4.022-10.096
				C44.07,62.565,43.185,62.428,42.266,62.428L42.266,62.428z M52.427,53.016l-3.028,7.446c3.293,2.082,5.609,5.553,6.126,9.597
				l2.471,0.071c0.355-0.89,0.375-1.801,1.121-2.379L52.427,53.016L52.427,53.016z M76.145,51.818h-20.58l6.973,14.987
				c0.129-0.01,0.258-0.019,0.389-0.019c0.506,0,0.993,0.074,1.457,0.207l1.184,0.501c0.152,0.087,0.299,0.181,0.441,0.283
				L78.4,56.223L76.145,51.818L76.145,51.818z M90.061,62.428c-1.664,0-3.222,0.439-4.574,1.2c0.99,1.859,1.877,3.214,2.124,3.615
				c0.964,1.567,2.05,2.05,2.652,2.292c0.602,0.239,1.688,1.686,1.567,2.289c-0.119,0.604-1.686,1.206-1.686,1.206l-3.978-1.809
				l-2.171-4.338l-0.799-1.433c-1.533,1.664-2.476,3.88-2.476,6.32c0,5.159,4.182,9.342,9.342,9.342
				c5.159,0,9.342-4.183,9.342-9.342C99.403,66.61,95.22,62.428,90.061,62.428L90.061,62.428z"/>
		</defs>
		<use xlink:href="#SVGID_8_"  overflow="visible" fill-rule="evenodd" clip-rule="evenodd"/>
		<clipPath id="SVGID_9_">
			<use xlink:href="#SVGID_8_"  overflow="visible"/>
		</clipPath>
	</g>
	<linearGradient id="SVGID_10_" gradientUnits="userSpaceOnUse" x1="96.2153" y1="109.3661" x2="34.7853" y2="21.635">
		<stop  offset="0" style="stop-color:#000000;stop-opacity:0"/>
		<stop  offset="1" style="stop-color:#FFFFFF;stop-opacity:0.25"/>
	</linearGradient>
	<path fill-rule="evenodd" clip-rule="evenodd" fill="url(#SVGID_10_)" d="M71.496,4.56l54.946,54.944
		c3.339,3.341,3.339,8.756,0,12.095l-54.842,54.842c-3.339,3.339-8.755,3.339-12.095,0L4.56,71.496
		c-3.341-3.339-3.341-8.755,0-12.095L59.4,4.56C62.741,1.218,68.157,1.218,71.496,4.56L71.496,4.56z"/>
</g>
<g id="normal">
	<g>
		<defs>
			<path id="SVGID_11_" d="M72.496,5.56l54.946,54.944c3.339,3.341,3.339,8.756,0,12.095l-54.842,54.842
				c-3.339,3.339-8.755,3.339-12.095,0L5.56,72.496c-3.341-3.339-3.341-8.755,0-12.095L60.4,5.56
				C63.741,2.218,69.157,2.218,72.496,5.56L72.496,5.56z"/>
		</defs>
		<defs>
			<path id="SVGID_12_" d="M71.496,4.56l54.946,54.944c3.339,3.341,3.339,8.756,0,12.095l-54.842,54.842
				c-3.339,3.339-8.755,3.339-12.095,0L4.56,71.496c-3.341-3.339-3.341-8.755,0-12.095L59.4,4.56
				C62.741,1.218,68.157,1.218,71.496,4.56L71.496,4.56z"/>
		</defs>
		<linearGradient id="SVGID_13_" gradientUnits="userSpaceOnUse" x1="3.054" y1="66.5" x2="129.946" y2="66.5">
			<stop  offset="0" style="stop-color:#000000;stop-opacity:0.6"/>
			<stop  offset="1" style="stop-color:#000000;stop-opacity:0.6"/>
		</linearGradient>
		<use xlink:href="#SVGID_11_"  overflow="visible" fill-rule="evenodd" clip-rule="evenodd" fill="url(#SVGID_13_)"/>
		<use xlink:href="#SVGID_12_"  overflow="visible" fill="#FFC000"/>
		<clipPath id="SVGID_14_">
			<use xlink:href="#SVGID_11_"  overflow="visible"/>
		</clipPath>
		<clipPath id="SVGID_15_" clip-path="url(#SVGID_14_)">
			<use xlink:href="#SVGID_12_"  overflow="visible"/>
		</clipPath>
	</g>
	<g>
		<defs>
			<path id="SVGID_16_" d="M123.833,71.339l-52.494,52.494c-3.196,3.196-8.381,3.196-11.577,0L7.169,71.24
				c-3.198-3.196-3.198-8.381,0-11.579L59.661,7.169c3.198-3.198,8.381-3.198,11.579,0l52.593,52.593
				C127.029,62.958,127.029,68.142,123.833,71.339L123.833,71.339z M122.048,62.871L68.183,9.007c-1.45-1.45-3.804-1.45-5.254,0
				L9.063,62.871c-1.45,1.452-1.45,3.805,0,5.256l53.865,53.865c1.45,1.45,3.804,1.45,5.254,0l53.865-53.865
				C123.498,66.676,123.498,64.323,122.048,62.871L122.048,62.871z"/>
		</defs>
		<use xlink:href="#SVGID_16_"  overflow="visible" fill-rule="evenodd" clip-rule="evenodd"/>
		<clipPath id="SVGID_17_">
			<use xlink:href="#SVGID_16_"  overflow="visible"/>
		</clipPath>
	</g>
	<g>
		<defs>
			<path id="SVGID_18_" d="M90.061,85.15c-7.389,0-13.382-5.991-13.382-13.38c0-3.965,1.736-7.517,4.476-9.967l-1.402-2.508
				L67.716,69.811c0.333,0.695,0.525,1.468,0.525,2.289c0,2.935-2.379,5.314-5.314,5.314c-0.707,0-1.381-0.142-1.998-0.392
				l-1.247-0.72c-1.077-0.833-1.822-2.069-2.014-3.482l-2.075,0.011c-0.541,6.893-6.294,12.32-13.327,12.32
				c-7.391,0-13.382-5.991-13.382-13.38c0-7.391,5.991-13.381,13.382-13.381c1.447,0,2.838,0.236,4.143,0.661l4.29-10.771
				l-0.082-0.186l-1.326-2.859l-1.326-0.092l-1.206-0.921l-0.496-2.536l-0.483-0.964l15.877,0.045l-0.391,1.373l-8.147,3.229
				l1.102,2.566l18.891-0.284l-0.052-0.16c0,0,1.276-2.247,3.348-2.497c1.289-0.158,0.657-3.014,0.657-3.014l-6.423-0.121
				L70.4,38.603l9.941-0.121c0,0,1.807,0.724,2.05,2.29c0.241,1.567,0,4.768-0.845,5.009c-0.843,0.242-1.928,1.51-1.928,1.51
				s-0.632-1.497-0.128,0.11l0.244,1.163l3.153,9.339l0.183,0.16c0.21,0.648,0.446,1.282,0.696,1.901
				c1.877-1.003,4.018-1.575,6.296-1.575c7.389,0,13.382,5.991,13.382,13.381C103.443,79.159,97.451,85.15,90.061,85.15
				L90.061,85.15z M45.611,69.774l5.815,0.168c-0.457-2.306-1.767-4.298-3.582-5.655L45.611,69.774L45.611,69.774z M42.266,62.428
				c-5.16,0-9.342,4.182-9.342,9.342c0,5.159,4.182,9.342,9.342,9.342c4.792,0,8.738-3.611,9.274-8.261l-10.652,0.058l4.022-10.096
				C44.07,62.565,43.185,62.428,42.266,62.428L42.266,62.428z M52.427,53.016l-3.028,7.446c3.293,2.082,5.609,5.553,6.126,9.597
				l2.471,0.071c0.355-0.89,0.375-1.801,1.121-2.379L52.427,53.016L52.427,53.016z M76.145,51.818h-20.58l6.973,14.987
				c0.129-0.01,0.258-0.019,0.389-0.019c0.506,0,0.993,0.074,1.457,0.207l1.184,0.501c0.152,0.087,0.299,0.181,0.441,0.283
				L78.4,56.223L76.145,51.818L76.145,51.818z M90.061,62.428c-1.664,0-3.222,0.439-4.574,1.2c0.99,1.859,1.877,3.214,2.124,3.615
				c0.964,1.567,2.05,2.05,2.652,2.292c0.602,0.239,1.688,1.686,1.567,2.289c-0.119,0.604-1.686,1.206-1.686,1.206l-3.978-1.809
				l-2.171-4.338l-0.799-1.433c-1.533,1.664-2.476,3.88-2.476,6.32c0,5.159,4.182,9.342,9.342,9.342
				c5.159,0,9.342-4.183,9.342-9.342C99.403,66.61,95.22,62.428,90.061,62.428L90.061,62.428z"/>
		</defs>
		<use xlink:href="#SVGID_18_"  overflow="visible" fill-rule="evenodd" clip-rule="evenodd"/>
		<clipPath id="SVGID_19_">
			<use xlink:href="#SVGID_18_"  overflow="visible"/>
		</clipPath>
	</g>
	<linearGradient id="SVGID_20_" gradientUnits="userSpaceOnUse" x1="96.2153" y1="109.3661" x2="34.7853" y2="21.635">
		<stop  offset="0" style="stop-color:#000000;stop-opacity:0"/>
		<stop  offset="1" style="stop-color:#FFFFFF;stop-opacity:0.25"/>
	</linearGradient>
	<path fill-rule="evenodd" clip-rule="evenodd" fill="url(#SVGID_20_)" d="M71.496,4.56l54.946,54.944
		c3.339,3.341,3.339,8.756,0,12.095l-54.842,54.842c-3.339,3.339-8.755,3.339-12.095,0L4.56,71.496
		c-3.341-3.339-3.341-8.755,0-12.095L59.4,4.56C62.741,1.218,68.157,1.218,71.496,4.56L71.496,4.56z"/>
</g>
</svg>
