<?xml version="1.0" encoding="utf-8"?>
<!-- Generator: Adobe Illustrator 17.0.1, SVG Export Plug-In . SVG Version: 6.00 Build 0)  -->
<!DOCTYPE svg PUBLIC "-//W3C//DTD SVG 1.1//EN" "http://www.w3.org/Graphics/SVG/1.1/DTD/svg11.dtd">
<svg version="1.1" xmlns="http://www.w3.org/2000/svg" xmlns:xlink="http://www.w3.org/1999/xlink" x="0px" y="0px" width="132px"
	 height="132px" viewBox="0 0 132 132" enable-background="new 0 0 132 132" xml:space="preserve">
<g id="disabled">
	<g>
		<defs>
			<path id="SVGID_1_" d="M72.496,5.558l54.946,54.946c3.339,3.339,3.339,8.755,0,12.095L72.599,127.44
				c-3.339,3.341-8.755,3.341-12.095,0L5.56,72.496c-3.341-3.341-3.341-8.756,0-12.095L60.4,5.558
				C63.741,2.219,69.157,2.219,72.496,5.558L72.496,5.558z"/>
		</defs>
		<defs>
			<path id="SVGID_2_" d="M71.496,4.558l54.946,54.946c3.339,3.339,3.339,8.755,0,12.095L71.599,126.44
				c-3.339,3.341-8.755,3.341-12.095,0L4.56,71.496c-3.341-3.341-3.341-8.756,0-12.095L59.4,4.558
				C62.741,1.219,68.157,1.219,71.496,4.558L71.496,4.558z"/>
		</defs>
		<linearGradient id="SVGID_3_" gradientUnits="userSpaceOnUse" x1="3.054" y1="66.5" x2="129.946" y2="66.5">
			<stop  offset="0" style="stop-color:#000000;stop-opacity:0.6"/>
			<stop  offset="1" style="stop-color:#000000;stop-opacity:0.6"/>
		</linearGradient>
		<use xlink:href="#SVGID_1_"  overflow="visible" fill-rule="evenodd" clip-rule="evenodd" fill="url(#SVGID_3_)"/>
		<use xlink:href="#SVGID_2_"  overflow="visible" fill="#BEBEBE"/>
		<clipPath id="SVGID_4_">
			<use xlink:href="#SVGID_1_"  overflow="visible"/>
		</clipPath>
		<clipPath id="SVGID_5_" clip-path="url(#SVGID_4_)">
			<use xlink:href="#SVGID_2_"  overflow="visible"/>
		</clipPath>
	</g>
	<g>
		<defs>
			<path id="SVGID_6_" d="M123.833,71.338l-52.494,52.494c-3.196,3.196-8.381,3.196-11.577,0L7.169,71.238
				c-3.198-3.195-3.198-8.379,0-11.577L59.661,7.168c3.198-3.198,8.381-3.198,11.579,0l52.593,52.593
				C127.029,62.957,127.029,68.142,123.833,71.338L123.833,71.338z M122.048,62.872L68.183,9.006c-1.45-1.45-3.804-1.45-5.254,0
				L9.063,62.872c-1.45,1.45-1.45,3.804,0,5.256l53.865,53.862c1.45,1.452,3.804,1.452,5.254,0l53.865-53.862
				C123.498,66.675,123.498,64.322,122.048,62.872L122.048,62.872z"/>
		</defs>
		<use xlink:href="#SVGID_6_"  overflow="visible" fill-rule="evenodd" clip-rule="evenodd"/>
		<clipPath id="SVGID_7_">
			<use xlink:href="#SVGID_6_"  overflow="visible"/>
		</clipPath>
	</g>
	<g>
		<defs>
			<path id="SVGID_8_" d="M108.797,78.784H22.081v-1.093h15.302c-0.476-0.451-0.779-1.085-0.779-1.794
				c0-0.265,0.053-0.515,0.131-0.754H32v-1.118l-8.124,0.011L23.65,62.641l3.611-10.92h5.979v-1.027h7.01l-5.895-4.962l9.271-7.803
				l9.271,7.803l-5.895,4.962h7.157v1.027h48.697l3.949,11.145l-0.564,11.057l-7.447,0.01v1.21h-4.826
				c0.078,0.239,0.129,0.489,0.129,0.754c0,0.709-0.3,1.344-0.777,1.794h15.478V78.784L108.797,78.784z M33.035,54.111h-4.354
				l-3.248,8.794h7.603V54.111L33.035,54.111z M89.919,77.691c-0.476-0.451-0.779-1.085-0.779-1.794
				c0-0.265,0.053-0.515,0.131-0.754h-4.17c0.076,0.239,0.129,0.489,0.129,0.754c0,0.709-0.3,1.344-0.778,1.794H89.919
				L89.919,77.691z M81.054,77.691c-0.476-0.451-0.778-1.085-0.778-1.794c0-0.265,0.053-0.515,0.131-0.754h-30.11
				c0.078,0.239,0.131,0.489,0.131,0.754c0,0.709-0.302,1.344-0.779,1.794H81.054L81.054,77.691z M46.249,77.691
				c-0.476-0.451-0.777-1.085-0.777-1.794c0-0.265,0.052-0.515,0.129-0.754h-4.17c0.078,0.239,0.129,0.489,0.129,0.754
				c0,0.709-0.3,1.344-0.777,1.794H46.249L46.249,77.691z M35.495,54.111v17.342h7.603V54.111H35.495L35.495,54.111z M50.39,45.73
				l-6.764-5.693l-6.764,5.693l6.764,5.692L50.39,45.73L50.39,45.73z M54.273,54.111h-8.801v8.794h8.801V54.111L54.273,54.111z
				 M65.446,54.111h-9.051v8.794h9.051V54.111L65.446,54.111z M76.534,54.111h-8.801v8.794h8.801V54.111L76.534,54.111z
				 M86.621,54.111h-7.603v17.342h7.603V54.111L86.621,54.111z M97.315,62.906h7.979l-3.248-8.794h-4.731V62.906L97.315,62.906z
				 M95.317,71.453V54.111h-7.604v17.342H95.317L95.317,71.453z"/>
		</defs>
		<use xlink:href="#SVGID_8_"  overflow="visible" fill-rule="evenodd" clip-rule="evenodd"/>
		<clipPath id="SVGID_9_">
			<use xlink:href="#SVGID_8_"  overflow="visible"/>
		</clipPath>
	</g>
	<linearGradient id="SVGID_10_" gradientUnits="userSpaceOnUse" x1="96.215" y1="109.365" x2="34.7852" y2="21.6342">
		<stop  offset="0" style="stop-color:#000000;stop-opacity:0"/>
		<stop  offset="1" style="stop-color:#FFFFFF;stop-opacity:0.25"/>
	</linearGradient>
	<path fill-rule="evenodd" clip-rule="evenodd" fill="url(#SVGID_10_)" d="M71.496,4.558l54.946,54.946
		c3.339,3.339,3.339,8.755,0,12.095L71.599,126.44c-3.339,3.341-8.755,3.341-12.095,0L4.56,71.496
		c-3.341-3.341-3.341-8.756,0-12.095L59.4,4.558C62.741,1.219,68.157,1.219,71.496,4.558L71.496,4.558z"/>
</g>
<g id="normal">
	<g>
		<defs>
			<path id="SVGID_11_" d="M72.496,5.558l54.946,54.946c3.339,3.339,3.339,8.755,0,12.095L72.599,127.44
				c-3.339,3.341-8.755,3.341-12.095,0L5.56,72.496c-3.341-3.341-3.341-8.756,0-12.095L60.4,5.558
				C63.741,2.219,69.157,2.219,72.496,5.558L72.496,5.558z"/>
		</defs>
		<defs>
			<path id="SVGID_12_" d="M71.496,4.558l54.946,54.946c3.339,3.339,3.339,8.755,0,12.095L71.599,126.44
				c-3.339,3.341-8.755,3.341-12.095,0L4.56,71.496c-3.341-3.341-3.341-8.756,0-12.095L59.4,4.558
				C62.741,1.219,68.157,1.219,71.496,4.558L71.496,4.558z"/>
		</defs>
		<linearGradient id="SVGID_13_" gradientUnits="userSpaceOnUse" x1="3.054" y1="66.5" x2="129.946" y2="66.5">
			<stop  offset="0" style="stop-color:#000000;stop-opacity:0.6"/>
			<stop  offset="1" style="stop-color:#000000;stop-opacity:0.6"/>
		</linearGradient>
		<use xlink:href="#SVGID_11_"  overflow="visible" fill-rule="evenodd" clip-rule="evenodd" fill="url(#SVGID_13_)"/>
		<use xlink:href="#SVGID_12_"  overflow="visible" fill="#FFC000"/>
		<clipPath id="SVGID_14_">
			<use xlink:href="#SVGID_11_"  overflow="visible"/>
		</clipPath>
		<clipPath id="SVGID_15_" clip-path="url(#SVGID_14_)">
			<use xlink:href="#SVGID_12_"  overflow="visible"/>
		</clipPath>
	</g>
	<g>
		<defs>
			<path id="SVGID_16_" d="M123.833,71.338l-52.494,52.494c-3.196,3.196-8.381,3.196-11.577,0L7.169,71.238
				c-3.198-3.195-3.198-8.379,0-11.577L59.661,7.168c3.198-3.198,8.381-3.198,11.579,0l52.593,52.593
				C127.029,62.957,127.029,68.142,123.833,71.338L123.833,71.338z M122.048,62.872L68.183,9.006c-1.45-1.45-3.804-1.45-5.254,0
				L9.063,62.872c-1.45,1.45-1.45,3.804,0,5.256l53.865,53.862c1.45,1.452,3.804,1.452,5.254,0l53.865-53.862
				C123.498,66.675,123.498,64.322,122.048,62.872L122.048,62.872z"/>
		</defs>
		<use xlink:href="#SVGID_16_"  overflow="visible" fill-rule="evenodd" clip-rule="evenodd"/>
		<clipPath id="SVGID_17_">
			<use xlink:href="#SVGID_16_"  overflow="visible"/>
		</clipPath>
	</g>
	<g>
		<defs>
			<path id="SVGID_18_" d="M108.797,78.784H22.081v-1.093h15.302c-0.476-0.451-0.779-1.085-0.779-1.794
				c0-0.265,0.053-0.515,0.131-0.754H32v-1.118l-8.124,0.011L23.65,62.641l3.611-10.92h5.979v-1.027h7.01l-5.895-4.962l9.271-7.803
				l9.271,7.803l-5.895,4.962h7.157v1.027h48.697l3.949,11.145l-0.564,11.057l-7.447,0.01v1.21h-4.826
				c0.078,0.239,0.129,0.489,0.129,0.754c0,0.709-0.3,1.344-0.777,1.794h15.478V78.784L108.797,78.784z M33.035,54.111h-4.354
				l-3.248,8.794h7.603V54.111L33.035,54.111z M89.919,77.691c-0.476-0.451-0.779-1.085-0.779-1.794
				c0-0.265,0.053-0.515,0.131-0.754h-4.17c0.076,0.239,0.129,0.489,0.129,0.754c0,0.709-0.3,1.344-0.778,1.794H89.919
				L89.919,77.691z M81.054,77.691c-0.476-0.451-0.778-1.085-0.778-1.794c0-0.265,0.053-0.515,0.131-0.754h-30.11
				c0.078,0.239,0.131,0.489,0.131,0.754c0,0.709-0.302,1.344-0.779,1.794H81.054L81.054,77.691z M46.249,77.691
				c-0.476-0.451-0.777-1.085-0.777-1.794c0-0.265,0.052-0.515,0.129-0.754h-4.17c0.078,0.239,0.129,0.489,0.129,0.754
				c0,0.709-0.3,1.344-0.777,1.794H46.249L46.249,77.691z M35.495,54.111v17.342h7.603V54.111H35.495L35.495,54.111z M50.39,45.73
				l-6.764-5.693l-6.764,5.693l6.764,5.692L50.39,45.73L50.39,45.73z M54.273,54.111h-8.801v8.794h8.801V54.111L54.273,54.111z
				 M65.446,54.111h-9.051v8.794h9.051V54.111L65.446,54.111z M76.534,54.111h-8.801v8.794h8.801V54.111L76.534,54.111z
				 M86.621,54.111h-7.603v17.342h7.603V54.111L86.621,54.111z M97.315,62.906h7.979l-3.248-8.794h-4.731V62.906L97.315,62.906z
				 M95.317,71.453V54.111h-7.604v17.342H95.317L95.317,71.453z"/>
		</defs>
		<use xlink:href="#SVGID_18_"  overflow="visible" fill-rule="evenodd" clip-rule="evenodd"/>
		<clipPath id="SVGID_19_">
			<use xlink:href="#SVGID_18_"  overflow="visible"/>
		</clipPath>
	</g>
	<linearGradient id="SVGID_20_" gradientUnits="userSpaceOnUse" x1="96.215" y1="109.365" x2="34.7852" y2="21.6342">
		<stop  offset="0" style="stop-color:#000000;stop-opacity:0"/>
		<stop  offset="1" style="stop-color:#FFFFFF;stop-opacity:0.25"/>
	</linearGradient>
	<path fill-rule="evenodd" clip-rule="evenodd" fill="url(#SVGID_20_)" d="M71.496,4.558l54.946,54.946
		c3.339,3.339,3.339,8.755,0,12.095L71.599,126.44c-3.339,3.341-8.755,3.341-12.095,0L4.56,71.496
		c-3.341-3.341-3.341-8.756,0-12.095L59.4,4.558C62.741,1.219,68.157,1.219,71.496,4.558L71.496,4.558z"/>
</g>
</svg>
