<?xml version="1.0" encoding="utf-8"?>
<!-- Generator: Adobe Illustrator 17.0.1, SVG Export Plug-In . SVG Version: 6.00 Build 0)  -->
<!DOCTYPE svg PUBLIC "-//W3C//DTD SVG 1.1//EN" "http://www.w3.org/Graphics/SVG/1.1/DTD/svg11.dtd">
<svg version="1.1" xmlns="http://www.w3.org/2000/svg" xmlns:xlink="http://www.w3.org/1999/xlink" x="0px" y="0px" width="132px"
	 height="132px" viewBox="0 0 132 132" enable-background="new 0 0 132 132" xml:space="preserve">
<g id="disabled">
	<g>
		<defs>
			<path id="SVGID_1_" d="M72.428,6.263l54.309,54.311c3.301,3.301,3.301,8.654,0,11.955l-54.208,54.208
				c-3.301,3.301-8.654,3.301-11.955,0L6.263,72.428c-3.301-3.301-3.301-8.654,0-11.955L60.471,6.263
				C63.772,2.962,69.126,2.962,72.428,6.263L72.428,6.263z"/>
		</defs>
		<defs>
			<path id="SVGID_2_" d="M71.428,5.263l54.309,54.311c3.301,3.301,3.301,8.654,0,11.955l-54.208,54.208
				c-3.301,3.301-8.654,3.301-11.955,0L5.263,71.428c-3.301-3.301-3.301-8.654,0-11.955L59.471,5.263
				C62.772,1.962,68.126,1.962,71.428,5.263L71.428,5.263z"/>
		</defs>
		<linearGradient id="SVGID_3_" gradientUnits="userSpaceOnUse" x1="3.7869" y1="66.5" x2="129.2131" y2="66.5">
			<stop  offset="0" style="stop-color:#000000;stop-opacity:0.6"/>
			<stop  offset="1" style="stop-color:#000000;stop-opacity:0.6"/>
		</linearGradient>
		<use xlink:href="#SVGID_1_"  overflow="visible" fill-rule="evenodd" clip-rule="evenodd" fill="url(#SVGID_3_)"/>
		<use xlink:href="#SVGID_2_"  overflow="visible" fill="#8B8B8B"/>
		<clipPath id="SVGID_4_">
			<use xlink:href="#SVGID_1_"  overflow="visible"/>
		</clipPath>
		<clipPath id="SVGID_5_" clip-path="url(#SVGID_4_)">
			<use xlink:href="#SVGID_2_"  overflow="visible"/>
		</clipPath>
	</g>
	<g>
		<defs>
			<path id="SVGID_6_" d="M123.159,71.271l-51.888,51.888c-3.161,3.159-8.284,3.159-11.443,0L7.842,71.172
				c-3.161-3.159-3.161-8.283,0-11.443L59.729,7.842c3.161-3.161,8.284-3.161,11.445,0l51.985,51.985
				C126.319,62.988,126.319,68.112,123.159,71.271L123.159,71.271z M122.533,62.85L68.205,8.521c-1.463-1.463-3.838-1.463-5.301,0
				L8.576,62.85c-1.463,1.463-1.463,3.836,0,5.301l54.329,54.327c1.463,1.465,3.838,1.465,5.301,0l54.327-54.327
				C123.998,66.686,123.998,64.313,122.533,62.85L122.533,62.85z"/>
		</defs>
		<use xlink:href="#SVGID_6_"  overflow="visible" fill-rule="evenodd" clip-rule="evenodd"/>
		<clipPath id="SVGID_7_">
			<use xlink:href="#SVGID_6_"  overflow="visible"/>
		</clipPath>
	</g>
	<g>
		<defs>
			<path id="SVGID_8_" d="M86.161,51.778l-4.054-3.857l2.176,5.39L86.161,51.778L86.161,51.778z M72.416,56.326l-2.324,12.807
				l4.598-4.203L72.416,56.326L72.416,56.326z M83.433,96.018h4.001V61.02l-1.124-2.815l6.131-5.983
				c-5.06-5.11-10.121-10.219-15.179-15.328c-2.56,2.274-5.286,2.772-8.11,2.274l-3.658,33.771
				c-5.159,4.351-10.318,8.702-15.476,13.052c3.757-6.898,2.055-14.389-4.5-12.409l-16.861,5.093l16.777,17.344h19.001l-7.199-13.34
				l17.108-14.338l-3.015,8.602l0.107,19.075h3.999l1.234-16.156L80.97,72.1L83.433,96.018L83.433,96.018z M71.155,23.248
				c-3.935,0-7.145,3.209-7.145,7.145c0,3.934,3.211,7.144,7.145,7.144c3.934,0,7.144-3.209,7.144-7.144
				C78.298,26.457,75.089,23.248,71.155,23.248L71.155,23.248z"/>
		</defs>
		<use xlink:href="#SVGID_8_"  overflow="visible" fill-rule="evenodd" clip-rule="evenodd"/>
		<clipPath id="SVGID_9_">
			<use xlink:href="#SVGID_8_"  overflow="visible"/>
		</clipPath>
	</g>
	<linearGradient id="SVGID_10_" gradientUnits="userSpaceOnUse" x1="95.8599" y1="108.8592" x2="35.1394" y2="22.1414">
		<stop  offset="0" style="stop-color:#000000;stop-opacity:0"/>
		<stop  offset="1" style="stop-color:#FFFFFF;stop-opacity:0.25"/>
	</linearGradient>
	<path fill-rule="evenodd" clip-rule="evenodd" fill="url(#SVGID_10_)" d="M71.428,5.263l54.309,54.311
		c3.301,3.301,3.301,8.654,0,11.955l-54.208,54.208c-3.301,3.301-8.654,3.301-11.955,0L5.263,71.428
		c-3.301-3.301-3.301-8.654,0-11.955L59.471,5.263C62.772,1.962,68.126,1.962,71.428,5.263L71.428,5.263z"/>
</g>
<g id="normal">
	<g>
		<defs>
			<path id="SVGID_11_" d="M72.428,6.263l54.309,54.311c3.301,3.301,3.301,8.654,0,11.955l-54.208,54.208
				c-3.301,3.301-8.654,3.301-11.955,0L6.263,72.428c-3.301-3.301-3.301-8.654,0-11.955L60.471,6.263
				C63.772,2.962,69.126,2.962,72.428,6.263L72.428,6.263z"/>
		</defs>
		<defs>
			<path id="SVGID_12_" d="M71.428,5.263l54.309,54.311c3.301,3.301,3.301,8.654,0,11.955l-54.208,54.208
				c-3.301,3.301-8.654,3.301-11.955,0L5.263,71.428c-3.301-3.301-3.301-8.654,0-11.955L59.471,5.263
				C62.772,1.962,68.126,1.962,71.428,5.263L71.428,5.263z"/>
		</defs>
		<linearGradient id="SVGID_13_" gradientUnits="userSpaceOnUse" x1="3.7869" y1="66.5" x2="129.2131" y2="66.5">
			<stop  offset="0" style="stop-color:#000000;stop-opacity:0.6"/>
			<stop  offset="1" style="stop-color:#000000;stop-opacity:0.6"/>
		</linearGradient>
		<use xlink:href="#SVGID_11_"  overflow="visible" fill-rule="evenodd" clip-rule="evenodd" fill="url(#SVGID_13_)"/>
		<use xlink:href="#SVGID_12_"  overflow="visible" fill="#EB6E1F"/>
		<clipPath id="SVGID_14_">
			<use xlink:href="#SVGID_11_"  overflow="visible"/>
		</clipPath>
		<clipPath id="SVGID_15_" clip-path="url(#SVGID_14_)">
			<use xlink:href="#SVGID_12_"  overflow="visible"/>
		</clipPath>
	</g>
	<g>
		<defs>
			<path id="SVGID_16_" d="M123.159,71.271l-51.888,51.888c-3.161,3.159-8.284,3.159-11.443,0L7.842,71.172
				c-3.161-3.159-3.161-8.283,0-11.443L59.729,7.842c3.161-3.161,8.284-3.161,11.445,0l51.985,51.985
				C126.319,62.988,126.319,68.112,123.159,71.271L123.159,71.271z M122.533,62.85L68.205,8.521c-1.463-1.463-3.838-1.463-5.301,0
				L8.576,62.85c-1.463,1.463-1.463,3.836,0,5.301l54.329,54.327c1.463,1.465,3.838,1.465,5.301,0l54.327-54.327
				C123.998,66.686,123.998,64.313,122.533,62.85L122.533,62.85z"/>
		</defs>
		<use xlink:href="#SVGID_16_"  overflow="visible" fill-rule="evenodd" clip-rule="evenodd"/>
		<clipPath id="SVGID_17_">
			<use xlink:href="#SVGID_16_"  overflow="visible"/>
		</clipPath>
	</g>
	<g>
		<defs>
			<path id="SVGID_18_" d="M86.161,51.778l-4.054-3.857l2.176,5.39L86.161,51.778L86.161,51.778z M72.416,56.326l-2.324,12.807
				l4.598-4.203L72.416,56.326L72.416,56.326z M83.433,96.018h4.001V61.02l-1.124-2.815l6.131-5.983
				c-5.06-5.11-10.121-10.219-15.179-15.328c-2.56,2.274-5.286,2.772-8.11,2.274l-3.658,33.771
				c-5.159,4.351-10.318,8.702-15.476,13.052c3.757-6.898,2.055-14.389-4.5-12.409l-16.861,5.093l16.777,17.344h19.001l-7.199-13.34
				l17.108-14.338l-3.015,8.602l0.107,19.075h3.999l1.234-16.156L80.97,72.1L83.433,96.018L83.433,96.018z M71.155,23.248
				c-3.935,0-7.145,3.209-7.145,7.145c0,3.934,3.211,7.144,7.145,7.144c3.934,0,7.144-3.209,7.144-7.144
				C78.298,26.457,75.089,23.248,71.155,23.248L71.155,23.248z"/>
		</defs>
		<use xlink:href="#SVGID_18_"  overflow="visible" fill-rule="evenodd" clip-rule="evenodd"/>
		<clipPath id="SVGID_19_">
			<use xlink:href="#SVGID_18_"  overflow="visible"/>
		</clipPath>
	</g>
	<linearGradient id="SVGID_20_" gradientUnits="userSpaceOnUse" x1="95.8599" y1="108.8592" x2="35.1394" y2="22.1414">
		<stop  offset="0" style="stop-color:#000000;stop-opacity:0"/>
		<stop  offset="1" style="stop-color:#FFFFFF;stop-opacity:0.25"/>
	</linearGradient>
	<path fill-rule="evenodd" clip-rule="evenodd" fill="url(#SVGID_20_)" d="M71.428,5.263l54.309,54.311
		c3.301,3.301,3.301,8.654,0,11.955l-54.208,54.208c-3.301,3.301-8.654,3.301-11.955,0L5.263,71.428
		c-3.301-3.301-3.301-8.654,0-11.955L59.471,5.263C62.772,1.962,68.126,1.962,71.428,5.263L71.428,5.263z"/>
</g>
</svg>
