<?xml version="1.0" encoding="UTF-8" ?>
<!DOCTYPE svg PUBLIC "-//W3C//DTD SVG 1.1//EN" "http://www.w3.org/Graphics/SVG/1.1/DTD/svg11.dtd">
<svg width="167pt" height="167pt" viewBox="0 0 167 167" version="1.1" xmlns="http://www.w3.org/2000/svg">
<g id="disabled">
<path fill="#606060" opacity="1.00" d=" M 72.27 16.13 C 73.84 13.19 76.60 10.86 79.93 10.27 C 84.67 9.14 89.60 12.03 91.74 16.25 C 115.16 56.85 138.57 97.45 162.00 138.05 C 163.95 141.22 164.56 145.29 162.88 148.71 C 161.11 152.90 156.45 155.25 152.02 155.02 C 104.98 154.97 57.93 155.03 10.88 154.98 C 5.43 155.06 0.72 150.69 0.00 145.35 L 0.00 143.37 C 0.65 139.77 2.71 136.69 4.52 133.59 C 27.12 94.44 49.67 55.27 72.27 16.13 M 79.30 15.97 C 77.26 18.16 75.85 20.81 74.41 23.40 C 51.85 62.50 29.31 101.60 6.75 140.69 C 5.51 142.48 5.66 144.70 5.99 146.75 C 6.75 147.50 7.51 148.25 8.26 149.00 C 12.14 149.56 16.05 149.31 19.95 149.34 C 63.62 149.36 107.29 149.33 150.96 149.36 C 152.54 149.33 154.12 149.18 155.69 149.00 C 156.46 148.22 157.23 147.44 158.01 146.66 C 158.85 143.28 157.18 140.28 155.38 137.57 C 133.20 99.14 111.04 60.70 88.88 22.25 C 87.59 20.13 86.59 17.70 84.59 16.14 C 82.88 15.52 81.06 15.89 79.30 15.97 Z" />
<path fill="#c6c6c6" opacity="1.00" d=" M 79.30 15.97 C 81.06 15.89 82.88 15.52 84.59 16.14 C 86.59 17.70 87.59 20.13 88.88 22.25 C 111.04 60.70 133.20 99.14 155.38 137.57 C 157.18 140.28 158.85 143.28 158.01 146.66 C 157.23 147.44 156.46 148.22 155.69 149.00 C 154.12 149.18 152.54 149.33 150.96 149.36 C 107.29 149.33 63.62 149.36 19.95 149.34 C 16.05 149.31 12.14 149.56 8.26 149.00 C 7.51 148.25 6.75 147.50 5.99 146.75 C 5.66 144.70 5.51 142.48 6.75 140.69 C 29.31 101.60 51.85 62.50 74.41 23.40 C 75.85 20.81 77.26 18.16 79.30 15.97 M 95.33 74.10 C 95.32 77.09 95.32 80.09 95.33 83.08 C 98.32 83.09 101.31 83.10 104.30 83.08 C 104.31 80.09 104.31 77.09 104.30 74.10 C 101.31 74.09 98.32 74.09 95.33 74.10 M 47.91 76.09 C 46.45 78.33 45.15 80.67 43.84 83.00 C 46.94 82.99 50.04 83.01 53.14 83.00 C 53.81 87.53 54.48 92.06 55.11 96.60 C 48.74 96.60 42.36 96.60 35.98 96.60 C 31.51 104.32 27.10 112.07 22.62 119.79 C 35.14 119.82 47.65 119.78 60.17 119.80 C 60.19 120.73 60.23 122.58 60.25 123.51 C 46.95 123.75 33.65 123.48 20.35 123.64 C 18.61 126.79 16.78 129.88 14.98 132.99 C 26.36 133.01 37.74 132.99 49.11 133.00 C 49.12 136.80 49.11 140.60 49.12 144.40 C 53.72 144.28 58.35 144.72 62.92 144.10 C 83.39 140.39 103.91 136.97 124.40 133.39 C 111.77 133.71 99.15 134.41 86.52 134.77 C 99.00 129.62 111.60 124.69 124.33 120.21 C 120.50 120.27 116.81 121.32 113.08 122.06 C 105.77 123.74 98.40 125.12 91.09 126.81 C 99.23 119.94 107.80 113.58 115.79 106.53 C 107.25 110.99 98.79 115.59 90.26 120.07 C 97.91 109.50 105.70 99.02 113.08 88.26 C 95.76 106.72 78.31 125.05 60.96 143.48 C 60.96 139.99 60.96 136.50 60.97 133.01 C 61.73 133.01 63.25 132.99 64.01 132.99 C 64.01 122.62 64.03 112.26 64.01 101.89 C 64.18 99.46 61.54 98.30 60.20 96.66 C 59.11 89.82 58.06 82.97 56.96 76.13 C 53.94 76.14 50.92 76.15 47.91 76.09 M 116.41 94.53 C 116.40 97.52 116.40 100.52 116.41 103.51 C 119.40 103.53 122.40 103.52 125.39 103.51 C 125.39 100.52 125.39 97.53 125.39 94.54 C 122.40 94.52 119.40 94.52 116.41 94.53 M 127.63 110.22 C 127.61 113.22 127.61 116.21 127.63 119.21 C 130.61 119.21 133.59 119.22 136.57 119.22 C 136.60 116.22 136.62 113.23 136.60 110.23 C 133.61 110.22 130.62 110.21 127.63 110.22 M 132.62 128.37 C 132.61 131.36 132.62 134.35 132.63 137.34 C 135.61 137.35 138.60 137.35 141.59 137.35 C 141.61 134.35 141.61 131.35 141.60 128.36 C 138.60 128.34 135.61 128.34 132.62 128.37 Z" />
<path fill="#c6c6c6" opacity="1.00" d=" M 52.24 104.33 C 56.51 102.12 61.99 106.28 61.07 110.99 C 60.59 115.59 54.46 118.08 50.95 114.99 C 47.26 112.35 48.04 106.02 52.24 104.33 Z" />
<path fill="#000000" opacity="1.00" d=" M 95.33 74.10 C 98.32 74.09 101.31 74.09 104.30 74.10 C 104.31 77.09 104.31 80.09 104.30 83.08 C 101.31 83.10 98.32 83.09 95.33 83.08 C 95.32 80.09 95.32 77.09 95.33 74.10 Z" />
<path fill="#000000" opacity="1.00" d=" M 47.91 76.09 C 50.92 76.15 53.94 76.14 56.96 76.13 C 58.06 82.97 59.11 89.82 60.20 96.66 C 61.54 98.30 64.18 99.46 64.01 101.89 C 64.03 112.26 64.01 122.62 64.01 132.99 C 63.25 132.99 61.73 133.01 60.97 133.01 C 60.96 136.50 60.96 139.99 60.96 143.48 C 78.31 125.05 95.76 106.72 113.08 88.26 C 105.70 99.02 97.91 109.50 90.26 120.07 C 98.79 115.59 107.25 110.99 115.79 106.53 C 107.80 113.58 99.23 119.94 91.09 126.81 C 98.40 125.12 105.77 123.74 113.08 122.06 C 116.81 121.32 120.50 120.27 124.33 120.21 C 111.60 124.69 99.00 129.62 86.52 134.77 C 99.15 134.41 111.77 133.71 124.40 133.39 C 103.91 136.97 83.39 140.39 62.92 144.10 C 58.35 144.72 53.72 144.28 49.12 144.40 C 49.11 140.60 49.12 136.80 49.11 133.00 C 37.74 132.99 26.36 133.01 14.98 132.99 C 16.78 129.88 18.61 126.79 20.35 123.64 C 33.65 123.48 46.95 123.75 60.25 123.51 C 60.23 122.58 60.19 120.73 60.17 119.80 C 47.65 119.78 35.14 119.82 22.62 119.79 C 27.10 112.07 31.51 104.32 35.98 96.60 C 42.36 96.60 48.74 96.60 55.11 96.60 C 54.48 92.06 53.81 87.53 53.14 83.00 C 50.04 83.01 46.94 82.99 43.84 83.00 C 45.15 80.67 46.45 78.33 47.91 76.09 M 52.24 104.33 C 48.04 106.02 47.26 112.35 50.95 114.99 C 54.46 118.08 60.59 115.59 61.07 110.99 C 61.99 106.28 56.51 102.12 52.24 104.33 Z" />
<path fill="#000000" opacity="1.00" d=" M 116.41 94.53 C 119.40 94.52 122.40 94.52 125.39 94.54 C 125.39 97.53 125.39 100.52 125.39 103.51 C 122.40 103.52 119.40 103.53 116.41 103.51 C 116.40 100.52 116.40 97.52 116.41 94.53 Z" />
<path fill="#000000" opacity="1.00" d=" M 127.63 110.22 C 130.62 110.21 133.61 110.22 136.60 110.23 C 136.62 113.23 136.60 116.22 136.57 119.22 C 133.59 119.22 130.61 119.21 127.63 119.21 C 127.61 116.21 127.61 113.22 127.63 110.22 Z" />
<path fill="#000000" opacity="1.00" d=" M 132.62 128.37 C 135.61 128.34 138.60 128.34 141.60 128.36 C 141.61 131.35 141.61 134.35 141.59 137.35 C 138.60 137.35 135.61 137.35 132.63 137.34 C 132.62 134.35 132.61 131.36 132.62 128.37 Z" />
</g>
<g id="normal">
<path fill="#d40000" opacity="1.00" d=" M 72.27 16.13 C 73.84 13.19 76.60 10.86 79.93 10.27 C 84.67 9.14 89.60 12.03 91.74 16.25 C 115.16 56.85 138.57 97.45 162.00 138.05 C 163.95 141.22 164.56 145.29 162.88 148.71 C 161.11 152.90 156.45 155.25 152.02 155.02 C 104.98 154.97 57.93 155.03 10.88 154.98 C 5.43 155.06 0.72 150.69 0.00 145.35 L 0.00 143.37 C 0.65 139.77 2.71 136.69 4.52 133.59 C 27.12 94.44 49.67 55.27 72.27 16.13 M 79.30 15.97 C 77.26 18.16 75.85 20.81 74.41 23.40 C 51.85 62.50 29.31 101.60 6.75 140.69 C 5.51 142.48 5.66 144.70 5.99 146.75 C 6.75 147.50 7.51 148.25 8.26 149.00 C 12.14 149.56 16.05 149.31 19.95 149.34 C 63.62 149.36 107.29 149.33 150.96 149.36 C 152.54 149.33 154.12 149.18 155.69 149.00 C 156.46 148.22 157.23 147.44 158.01 146.66 C 158.85 143.28 157.18 140.28 155.38 137.57 C 133.20 99.14 111.04 60.70 88.88 22.25 C 87.59 20.13 86.59 17.70 84.59 16.14 C 82.88 15.52 81.06 15.89 79.30 15.97 Z" />
<path fill="#febe0b" opacity="1.00" d=" M 79.30 15.97 C 81.06 15.89 82.88 15.52 84.59 16.14 C 86.59 17.70 87.59 20.13 88.88 22.25 C 111.04 60.70 133.20 99.14 155.38 137.57 C 157.18 140.28 158.85 143.28 158.01 146.66 C 157.23 147.44 156.46 148.22 155.69 149.00 C 154.12 149.18 152.54 149.33 150.96 149.36 C 107.29 149.33 63.62 149.36 19.95 149.34 C 16.05 149.31 12.14 149.56 8.26 149.00 C 7.51 148.25 6.75 147.50 5.99 146.75 C 5.66 144.70 5.51 142.48 6.75 140.69 C 29.31 101.60 51.85 62.50 74.41 23.40 C 75.85 20.81 77.26 18.16 79.30 15.97 M 95.33 74.10 C 95.32 77.09 95.32 80.09 95.33 83.08 C 98.32 83.09 101.31 83.10 104.30 83.08 C 104.31 80.09 104.31 77.09 104.30 74.10 C 101.31 74.09 98.32 74.09 95.33 74.10 M 47.91 76.09 C 46.45 78.33 45.15 80.67 43.84 83.00 C 46.94 82.99 50.04 83.01 53.14 83.00 C 53.81 87.53 54.48 92.06 55.11 96.60 C 48.74 96.60 42.36 96.60 35.98 96.60 C 31.51 104.32 27.10 112.07 22.62 119.79 C 35.14 119.82 47.65 119.78 60.17 119.80 C 60.19 120.73 60.23 122.58 60.25 123.51 C 46.95 123.75 33.65 123.48 20.35 123.64 C 18.61 126.79 16.78 129.88 14.98 132.99 C 26.36 133.01 37.74 132.99 49.11 133.00 C 49.12 136.80 49.11 140.60 49.12 144.40 C 53.72 144.28 58.35 144.72 62.92 144.10 C 83.39 140.39 103.91 136.97 124.40 133.39 C 111.77 133.71 99.15 134.41 86.52 134.77 C 99.00 129.62 111.60 124.69 124.33 120.21 C 120.50 120.27 116.81 121.32 113.08 122.06 C 105.77 123.74 98.40 125.12 91.09 126.81 C 99.23 119.94 107.80 113.58 115.79 106.53 C 107.25 110.99 98.79 115.59 90.26 120.07 C 97.91 109.50 105.70 99.02 113.08 88.26 C 95.76 106.72 78.31 125.05 60.96 143.48 C 60.96 139.99 60.96 136.50 60.97 133.01 C 61.73 133.01 63.25 132.99 64.01 132.99 C 64.01 122.62 64.03 112.26 64.01 101.89 C 64.18 99.46 61.54 98.30 60.20 96.66 C 59.11 89.82 58.06 82.97 56.96 76.13 C 53.94 76.14 50.92 76.15 47.91 76.09 M 116.41 94.53 C 116.40 97.52 116.40 100.52 116.41 103.51 C 119.40 103.53 122.40 103.52 125.39 103.51 C 125.39 100.52 125.39 97.53 125.39 94.54 C 122.40 94.52 119.40 94.52 116.41 94.53 M 127.63 110.22 C 127.61 113.22 127.61 116.21 127.63 119.21 C 130.61 119.21 133.59 119.22 136.57 119.22 C 136.60 116.22 136.62 113.23 136.60 110.23 C 133.61 110.22 130.62 110.21 127.63 110.22 M 132.62 128.37 C 132.61 131.36 132.62 134.35 132.63 137.34 C 135.61 137.35 138.60 137.35 141.59 137.35 C 141.61 134.35 141.61 131.35 141.60 128.36 C 138.60 128.34 135.61 128.34 132.62 128.37 Z" />
<path fill="#febe0b" opacity="1.00" d=" M 52.24 104.33 C 56.51 102.12 61.99 106.28 61.07 110.99 C 60.59 115.59 54.46 118.08 50.95 114.99 C 47.26 112.35 48.04 106.02 52.24 104.33 Z" />
<path fill="#000000" opacity="1.00" d=" M 95.33 74.10 C 98.32 74.09 101.31 74.09 104.30 74.10 C 104.31 77.09 104.31 80.09 104.30 83.08 C 101.31 83.10 98.32 83.09 95.33 83.08 C 95.32 80.09 95.32 77.09 95.33 74.10 Z" />
<path fill="#000000" opacity="1.00" d=" M 47.91 76.09 C 50.92 76.15 53.94 76.14 56.96 76.13 C 58.06 82.97 59.11 89.82 60.20 96.66 C 61.54 98.30 64.18 99.46 64.01 101.89 C 64.03 112.26 64.01 122.62 64.01 132.99 C 63.25 132.99 61.73 133.01 60.97 133.01 C 60.96 136.50 60.96 139.99 60.96 143.48 C 78.31 125.05 95.76 106.72 113.08 88.26 C 105.70 99.02 97.91 109.50 90.26 120.07 C 98.79 115.59 107.25 110.99 115.79 106.53 C 107.80 113.58 99.23 119.94 91.09 126.81 C 98.40 125.12 105.77 123.74 113.08 122.06 C 116.81 121.32 120.50 120.27 124.33 120.21 C 111.60 124.69 99.00 129.62 86.52 134.77 C 99.15 134.41 111.77 133.71 124.40 133.39 C 103.91 136.97 83.39 140.39 62.92 144.10 C 58.35 144.72 53.72 144.28 49.12 144.40 C 49.11 140.60 49.12 136.80 49.11 133.00 C 37.74 132.99 26.36 133.01 14.98 132.99 C 16.78 129.88 18.61 126.79 20.35 123.64 C 33.65 123.48 46.95 123.75 60.25 123.51 C 60.23 122.58 60.19 120.73 60.17 119.80 C 47.65 119.78 35.14 119.82 22.62 119.79 C 27.10 112.07 31.51 104.32 35.98 96.60 C 42.36 96.60 48.74 96.60 55.11 96.60 C 54.48 92.06 53.81 87.53 53.14 83.00 C 50.04 83.01 46.94 82.99 43.84 83.00 C 45.15 80.67 46.45 78.33 47.91 76.09 M 52.24 104.33 C 48.04 106.02 47.26 112.35 50.95 114.99 C 54.46 118.08 60.59 115.59 61.07 110.99 C 61.99 106.28 56.51 102.12 52.24 104.33 Z" />
<path fill="#000000" opacity="1.00" d=" M 116.41 94.53 C 119.40 94.52 122.40 94.52 125.39 94.54 C 125.39 97.53 125.39 100.52 125.39 103.51 C 122.40 103.52 119.40 103.53 116.41 103.51 C 116.40 100.52 116.40 97.52 116.41 94.53 Z" />
<path fill="#000000" opacity="1.00" d=" M 127.63 110.22 C 130.62 110.21 133.61 110.22 136.60 110.23 C 136.62 113.23 136.60 116.22 136.57 119.22 C 133.59 119.22 130.61 119.21 127.63 119.21 C 127.61 116.21 127.61 113.22 127.63 110.22 Z" />
<path fill="#000000" opacity="1.00" d=" M 132.62 128.37 C 135.61 128.34 138.60 128.34 141.60 128.36 C 141.61 131.35 141.61 134.35 141.59 137.35 C 138.60 137.35 135.61 137.35 132.63 137.34 C 132.62 134.35 132.61 131.36 132.62 128.37 Z" />
</g>
</svg>
