<?xml version="1.0" encoding="UTF-8" ?>
<!DOCTYPE svg PUBLIC "-//W3C//DTD SVG 1.1//EN" "http://www.w3.org/Graphics/SVG/1.1/DTD/svg11.dtd">
<svg width="167pt" height="167pt" viewBox="0 0 167 167" version="1.1" xmlns="http://www.w3.org/2000/svg">
<g id="disabled">
<path fill="#606060" opacity="1.00" d=" M 78.44 10.68 C 83.49 8.65 89.41 11.52 91.74 16.25 C 115.16 56.85 138.57 97.46 162.00 138.05 C 163.68 140.88 164.49 144.38 163.32 147.55 C 162.02 151.98 157.56 154.98 153.02 154.99 C 105.66 155.01 58.29 155.00 10.92 154.99 C 5.47 155.08 0.72 150.72 0.00 145.36 L 0.00 143.36 C 0.68 139.51 3.00 136.30 4.88 132.98 C 26.95 94.70 49.03 56.44 71.08 18.15 C 72.74 15.04 74.86 11.76 78.44 10.68 M 79.28 16.02 C 77.57 17.82 76.29 19.96 75.13 22.14 C 52.34 61.66 29.55 101.19 6.74 140.70 C 5.50 142.49 5.64 144.73 6.01 146.77 C 6.77 147.49 7.52 148.23 8.24 148.99 C 11.78 149.54 15.35 149.32 18.91 149.35 C 62.94 149.36 106.98 149.32 151.01 149.36 C 152.58 149.35 154.13 149.18 155.69 149.00 C 156.44 148.22 157.21 147.45 157.99 146.70 C 158.18 144.71 158.48 142.52 157.24 140.78 C 134.43 101.29 111.67 61.78 88.90 22.28 C 87.61 20.17 86.62 17.74 84.62 16.17 C 82.91 15.50 81.05 15.86 79.28 16.02 Z" />
<path fill="#c6c6c6" opacity="1.00" d=" M 79.28 16.02 C 81.05 15.86 82.91 15.50 84.62 16.17 C 86.62 17.74 87.61 20.17 88.90 22.28 C 111.67 61.78 134.43 101.29 157.24 140.78 C 158.48 142.52 158.18 144.71 157.99 146.70 C 157.21 147.45 156.44 148.22 155.69 149.00 C 154.13 149.18 152.58 149.35 151.01 149.36 C 106.98 149.32 62.94 149.36 18.91 149.35 C 15.35 149.32 11.78 149.54 8.24 148.99 C 7.52 148.23 6.77 147.49 6.01 146.77 C 5.64 144.73 5.50 142.49 6.74 140.70 C 29.55 101.19 52.34 61.66 75.13 22.14 C 76.29 19.96 77.57 17.82 79.28 16.02 M 60.41 63.02 C 59.52 67.68 58.81 72.38 57.80 77.01 C 57.32 78.55 55.13 79.20 55.36 81.02 C 55.34 88.17 55.36 95.32 55.37 102.47 C 55.97 102.47 57.18 102.47 57.79 102.47 C 57.78 104.98 57.81 107.49 57.79 110.00 C 60.24 110.00 62.69 110.00 65.14 109.99 C 65.13 107.49 65.15 104.98 65.14 102.47 C 76.54 102.46 87.95 102.47 99.36 102.47 C 99.36 104.97 99.37 107.47 99.35 109.98 C 101.80 110.00 104.25 110.01 106.69 110.00 C 106.69 107.52 106.70 105.04 106.69 102.57 C 107.32 102.51 108.58 102.39 109.21 102.33 C 109.07 94.87 109.18 87.40 109.15 79.94 C 108.32 79.07 107.49 78.20 106.67 77.32 C 105.81 72.55 104.95 67.77 104.06 63.00 C 89.51 63.01 74.96 62.97 60.41 63.02 M 27.93 128.31 C 38.00 132.54 47.94 137.08 57.94 141.45 C 56.11 143.31 54.26 145.17 52.39 147.01 C 56.99 147.00 61.58 146.99 66.17 147.01 C 68.81 143.86 71.36 140.63 74.02 137.48 C 63.59 134.31 53.06 131.44 42.54 128.59 C 46.68 125.12 51.37 122.38 55.80 119.30 C 46.49 122.23 37.13 125.04 27.93 128.31 M 73.24 128.27 C 88.23 132.51 103.13 137.03 118.05 141.49 C 117.05 143.32 116.09 145.16 115.09 146.99 C 120.11 147.01 125.13 147.00 130.14 147.00 C 132.52 143.80 134.94 140.64 137.31 137.43 C 120.99 134.14 104.66 130.97 88.30 127.92 C 91.61 125.06 95.04 122.34 98.32 119.46 C 89.91 122.22 81.56 125.21 73.24 128.27 Z" />
<path fill="#c6c6c6" opacity="1.00" d=" M 63.67 67.40 C 76.06 67.40 88.44 67.40 100.83 67.40 C 101.49 70.76 102.14 74.11 102.78 77.47 C 89.09 77.46 75.41 77.48 61.72 77.46 C 62.36 74.10 63.01 70.75 63.67 67.40 Z" />
<path fill="#000000" opacity="1.00" d=" M 60.41 63.02 C 74.96 62.97 89.51 63.01 104.06 63.00 C 104.95 67.77 105.81 72.55 106.67 77.32 C 107.49 78.20 108.32 79.07 109.15 79.94 C 109.18 87.40 109.07 94.87 109.21 102.33 C 108.58 102.39 107.32 102.51 106.69 102.57 C 106.70 105.04 106.69 107.52 106.69 110.00 C 104.25 110.01 101.80 110.00 99.35 109.98 C 99.37 107.47 99.36 104.97 99.36 102.47 C 87.95 102.47 76.54 102.46 65.14 102.47 C 65.15 104.98 65.13 107.49 65.14 109.99 C 62.69 110.00 60.24 110.00 57.79 110.00 C 57.81 107.49 57.78 104.98 57.79 102.47 C 57.18 102.47 55.97 102.47 55.37 102.47 C 55.36 95.32 55.34 88.17 55.36 81.02 C 55.13 79.20 57.32 78.55 57.80 77.01 C 58.81 72.38 59.52 67.68 60.41 63.02 M 63.67 67.40 C 63.01 70.75 62.36 74.10 61.72 77.46 C 75.41 77.48 89.09 77.46 102.78 77.47 C 102.14 74.11 101.49 70.76 100.83 67.40 C 88.44 67.40 76.06 67.40 63.67 67.40 Z" />
<path fill="#000000" opacity="1.00" d=" M 27.93 128.31 C 37.13 125.04 46.49 122.23 55.80 119.30 C 51.37 122.38 46.68 125.12 42.54 128.59 C 53.06 131.44 63.59 134.31 74.02 137.48 C 71.36 140.63 68.81 143.86 66.17 147.01 C 61.58 146.99 56.99 147.00 52.39 147.01 C 54.26 145.17 56.11 143.31 57.94 141.45 C 47.94 137.08 38.00 132.54 27.93 128.31 Z" />
<path fill="#000000" opacity="1.00" d=" M 73.24 128.27 C 81.56 125.21 89.91 122.22 98.32 119.46 C 95.04 122.34 91.61 125.06 88.30 127.92 C 104.66 130.97 120.99 134.14 137.31 137.43 C 134.94 140.64 132.52 143.80 130.14 147.00 C 125.13 147.00 120.11 147.01 115.09 146.99 C 116.09 145.16 117.05 143.32 118.05 141.49 C 103.13 137.03 88.23 132.51 73.24 128.27 Z" />
</g>
<g id="normal">
<path fill="#d40000" opacity="1.00" d=" M 78.44 10.68 C 83.49 8.65 89.41 11.52 91.74 16.25 C 115.16 56.85 138.57 97.46 162.00 138.05 C 163.68 140.88 164.49 144.38 163.32 147.55 C 162.02 151.98 157.56 154.98 153.02 154.99 C 105.66 155.01 58.29 155.00 10.92 154.99 C 5.47 155.08 0.72 150.72 0.00 145.36 L 0.00 143.36 C 0.68 139.51 3.00 136.30 4.88 132.98 C 26.95 94.70 49.03 56.44 71.08 18.15 C 72.74 15.04 74.86 11.76 78.44 10.68 M 79.28 16.02 C 77.57 17.82 76.29 19.96 75.13 22.14 C 52.34 61.66 29.55 101.19 6.74 140.70 C 5.50 142.49 5.64 144.73 6.01 146.77 C 6.77 147.49 7.52 148.23 8.24 148.99 C 11.78 149.54 15.35 149.32 18.91 149.35 C 62.94 149.36 106.98 149.32 151.01 149.36 C 152.58 149.35 154.13 149.18 155.69 149.00 C 156.44 148.22 157.21 147.45 157.99 146.70 C 158.18 144.71 158.48 142.52 157.24 140.78 C 134.43 101.29 111.67 61.78 88.90 22.28 C 87.61 20.17 86.62 17.74 84.62 16.17 C 82.91 15.50 81.05 15.86 79.28 16.02 Z" />
<path fill="#febe0b" opacity="1.00" d=" M 79.28 16.02 C 81.05 15.86 82.91 15.50 84.62 16.17 C 86.62 17.74 87.61 20.17 88.90 22.28 C 111.67 61.78 134.43 101.29 157.24 140.78 C 158.48 142.52 158.18 144.71 157.99 146.70 C 157.21 147.45 156.44 148.22 155.69 149.00 C 154.13 149.18 152.58 149.35 151.01 149.36 C 106.98 149.32 62.94 149.36 18.91 149.35 C 15.35 149.32 11.78 149.54 8.24 148.99 C 7.52 148.23 6.77 147.49 6.01 146.77 C 5.64 144.73 5.50 142.49 6.74 140.70 C 29.55 101.19 52.34 61.66 75.13 22.14 C 76.29 19.96 77.57 17.82 79.28 16.02 M 60.41 63.02 C 59.52 67.68 58.81 72.38 57.80 77.01 C 57.32 78.55 55.13 79.20 55.36 81.02 C 55.34 88.17 55.36 95.32 55.37 102.47 C 55.97 102.47 57.18 102.47 57.79 102.47 C 57.78 104.98 57.81 107.49 57.79 110.00 C 60.24 110.00 62.69 110.00 65.14 109.99 C 65.13 107.49 65.15 104.98 65.14 102.47 C 76.54 102.46 87.95 102.47 99.36 102.47 C 99.36 104.97 99.37 107.47 99.35 109.98 C 101.80 110.00 104.25 110.01 106.69 110.00 C 106.69 107.52 106.70 105.04 106.69 102.57 C 107.32 102.51 108.58 102.39 109.21 102.33 C 109.07 94.87 109.18 87.40 109.15 79.94 C 108.32 79.07 107.49 78.20 106.67 77.32 C 105.81 72.55 104.95 67.77 104.06 63.00 C 89.51 63.01 74.96 62.97 60.41 63.02 M 27.93 128.31 C 38.00 132.54 47.94 137.08 57.94 141.45 C 56.11 143.31 54.26 145.17 52.39 147.01 C 56.99 147.00 61.58 146.99 66.17 147.01 C 68.81 143.86 71.36 140.63 74.02 137.48 C 63.59 134.31 53.06 131.44 42.54 128.59 C 46.68 125.12 51.37 122.38 55.80 119.30 C 46.49 122.23 37.13 125.04 27.93 128.31 M 73.24 128.27 C 88.23 132.51 103.13 137.03 118.05 141.49 C 117.05 143.32 116.09 145.16 115.09 146.99 C 120.11 147.01 125.13 147.00 130.14 147.00 C 132.52 143.80 134.94 140.64 137.31 137.43 C 120.99 134.14 104.66 130.97 88.30 127.92 C 91.61 125.06 95.04 122.34 98.32 119.46 C 89.91 122.22 81.56 125.21 73.24 128.27 Z" />
<path fill="#febe0b" opacity="1.00" d=" M 63.67 67.40 C 76.06 67.40 88.44 67.40 100.83 67.40 C 101.49 70.76 102.14 74.11 102.78 77.47 C 89.09 77.46 75.41 77.48 61.72 77.46 C 62.36 74.10 63.01 70.75 63.67 67.40 Z" />
<path fill="#000000" opacity="1.00" d=" M 60.41 63.02 C 74.96 62.97 89.51 63.01 104.06 63.00 C 104.95 67.77 105.81 72.55 106.67 77.32 C 107.49 78.20 108.32 79.07 109.15 79.94 C 109.18 87.40 109.07 94.87 109.21 102.33 C 108.58 102.39 107.32 102.51 106.69 102.57 C 106.70 105.04 106.69 107.52 106.69 110.00 C 104.25 110.01 101.80 110.00 99.35 109.98 C 99.37 107.47 99.36 104.97 99.36 102.47 C 87.95 102.47 76.54 102.46 65.14 102.47 C 65.15 104.98 65.13 107.49 65.14 109.99 C 62.69 110.00 60.24 110.00 57.79 110.00 C 57.81 107.49 57.78 104.98 57.79 102.47 C 57.18 102.47 55.97 102.47 55.37 102.47 C 55.36 95.32 55.34 88.17 55.36 81.02 C 55.13 79.20 57.32 78.55 57.80 77.01 C 58.81 72.38 59.52 67.68 60.41 63.02 M 63.67 67.40 C 63.01 70.75 62.36 74.10 61.72 77.46 C 75.41 77.48 89.09 77.46 102.78 77.47 C 102.14 74.11 101.49 70.76 100.83 67.40 C 88.44 67.40 76.06 67.40 63.67 67.40 Z" />
<path fill="#000000" opacity="1.00" d=" M 27.93 128.31 C 37.13 125.04 46.49 122.23 55.80 119.30 C 51.37 122.38 46.68 125.12 42.54 128.59 C 53.06 131.44 63.59 134.31 74.02 137.48 C 71.36 140.63 68.81 143.86 66.17 147.01 C 61.58 146.99 56.99 147.00 52.39 147.01 C 54.26 145.17 56.11 143.31 57.94 141.45 C 47.94 137.08 38.00 132.54 27.93 128.31 Z" />
<path fill="#000000" opacity="1.00" d=" M 73.24 128.27 C 81.56 125.21 89.91 122.22 98.32 119.46 C 95.04 122.34 91.61 125.06 88.30 127.92 C 104.66 130.97 120.99 134.14 137.31 137.43 C 134.94 140.64 132.52 143.80 130.14 147.00 C 125.13 147.00 120.11 147.01 115.09 146.99 C 116.09 145.16 117.05 143.32 118.05 141.49 C 103.13 137.03 88.23 132.51 73.24 128.27 Z" />
</g>
</svg>
