<?xml version="1.0" encoding="UTF-8" ?>
<!DOCTYPE svg PUBLIC "-//W3C//DTD SVG 1.1//EN" "http://www.w3.org/Graphics/SVG/1.1/DTD/svg11.dtd">
<svg width="167pt" height="167pt" viewBox="0 0 167 167" version="1.1" xmlns="http://www.w3.org/2000/svg">
<g id="disabled">
<path fill="#606060" opacity="1.00" d=" M 78.43 10.68 C 83.51 8.64 89.39 11.54 91.75 16.27 C 115.18 56.87 138.59 97.47 162.01 138.07 C 163.93 141.26 164.56 145.33 162.86 148.75 C 161.07 152.91 156.47 155.22 152.06 155.01 C 104.98 154.97 57.90 155.05 10.82 154.97 C 5.36 155.05 0.75 150.65 0.00 145.34 L 0.00 143.34 C 0.98 138.80 3.78 135.01 6.00 131.02 C 27.33 94.04 48.67 57.07 69.97 20.07 C 72.08 16.44 74.08 12.03 78.43 10.68 M 79.29 15.85 C 78.20 17.30 77.11 18.76 76.18 20.32 C 54.15 58.55 32.08 96.77 10.04 135.00 C 8.01 138.64 4.94 142.24 5.89 146.72 C 6.69 147.49 7.49 148.26 8.28 149.04 C 10.19 149.20 12.10 149.33 14.01 149.36 C 59.32 149.34 104.64 149.35 149.96 149.35 C 151.86 149.32 153.77 149.20 155.66 149.05 C 156.47 148.23 157.28 147.42 158.10 146.62 C 158.09 144.64 158.35 142.51 157.21 140.76 C 134.78 101.85 112.34 62.95 89.91 24.04 C 88.58 21.77 87.43 19.38 85.78 17.31 C 84.36 15.10 81.47 16.05 79.29 15.85 Z" />
<path fill="#c6c6c6" opacity="1.00" d=" M 79.29 15.85 C 81.47 16.05 84.36 15.10 85.78 17.31 C 87.43 19.38 88.58 21.77 89.91 24.04 C 112.34 62.95 134.78 101.85 157.21 140.76 C 158.35 142.51 158.09 144.64 158.10 146.62 C 157.28 147.42 156.47 148.23 155.66 149.05 C 153.77 149.20 151.86 149.32 149.96 149.35 C 104.64 149.35 59.32 149.34 14.01 149.36 C 12.10 149.33 10.19 149.20 8.28 149.04 C 7.49 148.26 6.69 147.49 5.89 146.72 C 4.94 142.24 8.01 138.64 10.04 135.00 C 32.08 96.77 54.15 58.55 76.18 20.32 C 77.11 18.76 78.20 17.30 79.29 15.85 M 80.35 30.48 C 75.14 31.79 73.45 39.17 77.34 42.77 C 80.75 46.47 87.59 44.72 88.90 39.90 C 90.96 34.78 85.72 28.74 80.35 30.48 M 80.43 49.38 C 74.99 59.41 69.41 69.36 63.93 79.36 C 66.33 79.30 68.72 79.26 71.11 79.24 C 74.90 73.76 78.61 68.22 82.39 62.74 C 85.17 67.10 87.94 71.47 90.69 75.85 C 84.67 80.73 78.80 85.83 72.64 90.54 C 68.64 91.46 64.34 90.70 60.23 90.93 C 61.17 88.30 61.42 85.27 63.15 83.02 C 66.08 82.03 69.29 82.70 72.33 82.53 C 72.33 81.78 72.33 80.28 72.33 79.53 C 69.26 79.58 66.17 79.40 63.13 79.83 C 60.64 80.14 59.44 82.56 58.81 84.70 C 56.82 91.24 54.93 97.81 52.96 104.36 C 46.94 103.58 40.46 104.71 35.71 108.71 C 29.76 113.32 26.96 121.64 29.23 128.87 C 31.60 136.95 39.58 142.77 47.94 142.98 C 55.23 143.42 62.65 139.69 66.50 133.45 C 70.19 127.74 70.31 119.99 66.81 114.16 C 64.45 109.96 60.38 107.05 56.01 105.19 C 56.44 103.73 56.86 102.27 57.28 100.81 C 65.11 107.45 73.04 113.99 80.85 120.66 C 78.67 125.63 83.80 131.26 88.89 129.17 C 91.45 128.73 91.81 124.92 94.42 125.00 C 94.76 126.35 95.06 127.71 95.33 129.08 C 92.79 130.81 90.07 132.29 87.70 134.26 C 87.64 134.90 87.53 136.20 87.48 136.84 C 91.18 136.37 94.86 135.73 98.57 135.29 C 103.52 141.15 111.54 144.22 119.12 142.62 C 127.95 141.07 135.40 133.07 135.48 123.96 C 135.78 115.55 129.72 107.75 121.83 105.22 C 116.76 103.44 111.18 103.99 106.22 105.87 C 105.04 103.98 103.63 102.19 102.87 100.08 C 104.11 93.84 106.35 87.84 107.77 81.64 C 108.25 79.84 107.02 78.20 106.49 76.57 C 103.28 69.39 100.81 61.87 96.88 55.03 C 94.68 50.99 92.52 46.92 90.33 42.88 C 86.92 44.77 82.06 45.33 80.43 49.38 Z" />
<path fill="#c6c6c6" opacity="1.00" d=" M 89.67 90.79 C 89.91 89.45 90.62 89.20 91.81 90.05 C 91.59 91.41 90.88 91.66 89.67 90.79 Z" />
<path fill="#c6c6c6" opacity="1.00" d=" M 59.25 94.15 C 63.50 94.12 67.76 94.13 72.01 94.13 C 74.66 99.69 77.23 105.29 79.83 110.86 C 78.93 111.74 78.02 112.61 77.12 113.49 C 70.83 108.24 64.58 102.96 58.27 97.74 C 58.59 96.55 58.92 95.35 59.25 94.15 Z" />
<path fill="#c6c6c6" opacity="1.00" d=" M 81.74 95.19 C 85.14 93.61 88.94 94.19 92.57 94.15 C 91.53 99.84 90.60 105.58 88.82 111.10 C 86.46 105.80 83.96 100.55 81.74 95.19 Z" />
<path fill="#c6c6c6" opacity="1.00" d=" M 101.69 108.88 C 100.32 108.59 100.25 105.93 101.56 105.54 C 102.80 106.03 103.24 108.48 101.69 108.88 Z" />
<path fill="#c6c6c6" opacity="1.00" d=" M 35.81 112.80 C 39.80 108.21 46.18 106.57 52.07 107.20 C 50.21 112.56 49.84 118.71 45.82 123.04 C 45.25 125.69 48.71 127.55 50.76 125.96 C 52.95 124.54 51.01 121.83 51.67 119.79 C 52.72 115.85 54.02 111.98 55.17 108.07 C 60.52 110.34 65.09 114.99 65.98 120.90 C 67.37 128.07 62.95 135.52 56.38 138.40 C 48.71 142.11 38.58 139.32 34.09 132.03 C 30.20 126.20 31.01 117.88 35.81 112.80 Z" />
<path fill="#c6c6c6" opacity="1.00" d=" M 107.87 108.39 C 112.74 106.79 118.24 106.49 122.90 108.91 C 129.56 111.97 133.75 119.84 131.92 127.07 C 130.18 135.03 122.00 140.63 113.97 140.00 C 109.53 139.86 105.50 137.64 102.19 134.83 C 102.97 134.71 104.54 134.48 105.32 134.36 C 104.55 131.27 103.85 128.16 103.34 125.01 C 106.20 124.99 109.05 124.97 111.91 125.08 C 113.35 125.85 115.26 127.33 116.83 125.95 C 118.29 125.18 118.66 122.90 117.33 121.84 C 113.33 118.01 110.98 112.90 107.87 108.39 Z" />
<path fill="#c6c6c6" opacity="1.00" d=" M 101.84 113.08 C 102.66 112.08 103.53 111.13 104.45 110.22 C 107.08 114.09 109.55 118.07 112.10 122.00 C 109.05 122.00 106.00 122.00 102.95 122.00 C 102.53 119.04 101.83 116.09 101.84 113.08 Z" />
<path fill="#c6c6c6" opacity="1.00" d=" M 79.11 115.24 C 81.89 115.14 84.68 115.02 87.46 114.89 C 87.25 115.52 86.84 116.77 86.63 117.39 C 85.45 117.73 84.26 118.08 83.08 118.43 C 81.76 117.36 80.43 116.30 79.11 115.24 Z" />
<path fill="#c6c6c6" opacity="1.00" d=" M 92.00 114.20 C 92.72 116.93 93.47 119.67 93.94 122.46 C 92.52 121.37 91.50 119.90 90.48 118.46 C 90.86 117.40 91.62 115.26 92.00 114.20 Z" />
<path fill="#000000" opacity="1.00" d=" M 80.35 30.48 C 85.72 28.74 90.96 34.78 88.90 39.90 C 87.59 44.72 80.75 46.47 77.34 42.77 C 73.45 39.17 75.14 31.79 80.35 30.48 Z" />
<path fill="#000000" opacity="1.00" d=" M 80.43 49.38 C 82.06 45.33 86.92 44.77 90.33 42.88 C 92.52 46.92 94.68 50.99 96.88 55.03 C 100.81 61.87 103.28 69.39 106.49 76.57 C 107.02 78.20 108.25 79.84 107.77 81.64 C 106.35 87.84 104.11 93.84 102.87 100.08 C 103.63 102.19 105.04 103.98 106.22 105.87 C 111.18 103.99 116.76 103.44 121.83 105.22 C 129.72 107.75 135.78 115.55 135.48 123.96 C 135.40 133.07 127.95 141.07 119.12 142.62 C 111.54 144.22 103.52 141.15 98.57 135.29 C 94.86 135.73 91.18 136.37 87.48 136.84 C 87.53 136.20 87.64 134.90 87.70 134.26 C 90.07 132.29 92.79 130.81 95.33 129.08 C 95.06 127.71 94.76 126.35 94.42 125.00 C 91.81 124.92 91.45 128.73 88.89 129.17 C 83.80 131.26 78.67 125.63 80.85 120.66 C 73.04 113.99 65.11 107.45 57.28 100.81 C 56.86 102.27 56.44 103.73 56.01 105.19 C 60.38 107.05 64.45 109.96 66.81 114.16 C 70.31 119.99 70.19 127.74 66.50 133.45 C 62.65 139.69 55.23 143.42 47.94 142.98 C 39.58 142.77 31.60 136.95 29.23 128.87 C 26.96 121.64 29.76 113.32 35.71 108.71 C 40.46 104.71 46.94 103.58 52.96 104.36 C 54.93 97.81 56.82 91.24 58.81 84.70 C 59.44 82.56 60.64 80.14 63.13 79.83 C 66.17 79.40 69.26 79.58 72.33 79.53 C 72.33 80.28 72.33 81.78 72.33 82.53 C 69.29 82.70 66.08 82.03 63.15 83.02 C 61.42 85.27 61.17 88.30 60.23 90.93 C 64.34 90.70 68.64 91.46 72.64 90.54 C 78.80 85.83 84.67 80.73 90.69 75.85 C 87.94 71.47 85.17 67.10 82.39 62.74 C 78.61 68.22 74.90 73.76 71.11 79.24 C 68.72 79.26 66.33 79.30 63.93 79.36 C 69.41 69.36 74.99 59.41 80.43 49.38 M 89.67 90.79 C 90.88 91.66 91.59 91.41 91.81 90.05 C 90.62 89.20 89.91 89.45 89.67 90.79 M 59.25 94.15 C 58.92 95.35 58.59 96.55 58.27 97.74 C 64.58 102.96 70.83 108.24 77.12 113.49 C 78.02 112.61 78.93 111.74 79.83 110.86 C 77.23 105.29 74.66 99.69 72.01 94.13 C 67.76 94.13 63.50 94.12 59.25 94.15 M 81.74 95.19 C 83.96 100.55 86.46 105.80 88.82 111.10 C 90.60 105.58 91.53 99.84 92.57 94.15 C 88.94 94.19 85.14 93.61 81.74 95.19 M 101.69 108.88 C 103.24 108.48 102.80 106.03 101.56 105.54 C 100.25 105.93 100.32 108.59 101.69 108.88 M 35.81 112.80 C 31.01 117.88 30.20 126.20 34.09 132.03 C 38.58 139.32 48.71 142.11 56.38 138.40 C 62.95 135.52 67.37 128.07 65.98 120.90 C 65.09 114.99 60.52 110.34 55.17 108.07 C 54.02 111.98 52.72 115.85 51.67 119.79 C 51.01 121.83 52.95 124.54 50.76 125.96 C 48.71 127.55 45.25 125.69 45.82 123.04 C 49.84 118.71 50.21 112.56 52.07 107.20 C 46.18 106.57 39.80 108.21 35.81 112.80 M 107.87 108.39 C 110.98 112.90 113.33 118.01 117.33 121.84 C 118.66 122.90 118.29 125.18 116.83 125.95 C 115.26 127.33 113.35 125.85 111.91 125.08 C 109.05 124.97 106.20 124.99 103.34 125.01 C 103.85 128.16 104.55 131.27 105.32 134.36 C 104.54 134.48 102.97 134.71 102.19 134.83 C 105.50 137.64 109.53 139.86 113.97 140.00 C 122.00 140.63 130.18 135.03 131.92 127.07 C 133.75 119.84 129.56 111.97 122.90 108.91 C 118.24 106.49 112.74 106.79 107.87 108.39 M 101.84 113.08 C 101.83 116.09 102.53 119.04 102.95 122.00 C 106.00 122.00 109.05 122.00 112.10 122.00 C 109.55 118.07 107.08 114.09 104.45 110.22 C 103.53 111.13 102.66 112.08 101.84 113.08 M 79.11 115.24 C 80.43 116.30 81.76 117.36 83.08 118.43 C 84.26 118.08 85.45 117.73 86.63 117.39 C 86.84 116.77 87.25 115.52 87.46 114.89 C 84.68 115.02 81.89 115.14 79.11 115.24 M 92.00 114.20 C 91.62 115.26 90.86 117.40 90.48 118.46 C 91.50 119.90 92.52 121.37 93.94 122.46 C 93.47 119.67 92.72 116.93 92.00 114.20 Z" />
</g>
<g id="normal">
<path fill="#d40000" opacity="1.00" d=" M 78.43 10.68 C 83.51 8.64 89.39 11.54 91.75 16.27 C 115.18 56.87 138.59 97.47 162.01 138.07 C 163.93 141.26 164.56 145.33 162.86 148.75 C 161.07 152.91 156.47 155.22 152.06 155.01 C 104.98 154.97 57.90 155.05 10.82 154.97 C 5.36 155.05 0.75 150.65 0.00 145.34 L 0.00 143.34 C 0.98 138.80 3.78 135.01 6.00 131.02 C 27.33 94.04 48.67 57.07 69.97 20.07 C 72.08 16.44 74.08 12.03 78.43 10.68 M 79.29 15.85 C 78.20 17.30 77.11 18.76 76.18 20.32 C 54.15 58.55 32.08 96.77 10.04 135.00 C 8.01 138.64 4.94 142.24 5.89 146.72 C 6.69 147.49 7.49 148.26 8.28 149.04 C 10.19 149.20 12.10 149.33 14.01 149.36 C 59.32 149.34 104.64 149.35 149.96 149.35 C 151.86 149.32 153.77 149.20 155.66 149.05 C 156.47 148.23 157.28 147.42 158.10 146.62 C 158.09 144.64 158.35 142.51 157.21 140.76 C 134.78 101.85 112.34 62.95 89.91 24.04 C 88.58 21.77 87.43 19.38 85.78 17.31 C 84.36 15.10 81.47 16.05 79.29 15.85 Z" />
<path fill="#febe0b" opacity="1.00" d=" M 79.29 15.85 C 81.47 16.05 84.36 15.10 85.78 17.31 C 87.43 19.38 88.58 21.77 89.91 24.04 C 112.34 62.95 134.78 101.85 157.21 140.76 C 158.35 142.51 158.09 144.64 158.10 146.62 C 157.28 147.42 156.47 148.23 155.66 149.05 C 153.77 149.20 151.86 149.32 149.96 149.35 C 104.64 149.35 59.32 149.34 14.01 149.36 C 12.10 149.33 10.19 149.20 8.28 149.04 C 7.49 148.26 6.69 147.49 5.89 146.72 C 4.94 142.24 8.01 138.64 10.04 135.00 C 32.08 96.77 54.15 58.55 76.18 20.32 C 77.11 18.76 78.20 17.30 79.29 15.85 M 80.35 30.48 C 75.14 31.79 73.45 39.17 77.34 42.77 C 80.75 46.47 87.59 44.72 88.90 39.90 C 90.96 34.78 85.72 28.74 80.35 30.48 M 80.43 49.38 C 74.99 59.41 69.41 69.36 63.93 79.36 C 66.33 79.30 68.72 79.26 71.11 79.24 C 74.90 73.76 78.61 68.22 82.39 62.74 C 85.17 67.10 87.94 71.47 90.69 75.85 C 84.67 80.73 78.80 85.83 72.64 90.54 C 68.64 91.46 64.34 90.70 60.23 90.93 C 61.17 88.30 61.42 85.27 63.15 83.02 C 66.08 82.03 69.29 82.70 72.33 82.53 C 72.33 81.78 72.33 80.28 72.33 79.53 C 69.26 79.58 66.17 79.40 63.13 79.83 C 60.64 80.14 59.44 82.56 58.81 84.70 C 56.82 91.24 54.93 97.81 52.96 104.36 C 46.94 103.58 40.46 104.71 35.71 108.71 C 29.76 113.32 26.96 121.64 29.23 128.87 C 31.60 136.95 39.58 142.77 47.94 142.98 C 55.23 143.42 62.65 139.69 66.50 133.45 C 70.19 127.74 70.31 119.99 66.81 114.16 C 64.45 109.96 60.38 107.05 56.01 105.19 C 56.44 103.73 56.86 102.27 57.28 100.81 C 65.11 107.45 73.04 113.99 80.85 120.66 C 78.67 125.63 83.80 131.26 88.89 129.17 C 91.45 128.73 91.81 124.92 94.42 125.00 C 94.76 126.35 95.06 127.71 95.33 129.08 C 92.79 130.81 90.07 132.29 87.70 134.26 C 87.64 134.90 87.53 136.20 87.48 136.84 C 91.18 136.37 94.86 135.73 98.57 135.29 C 103.52 141.15 111.54 144.22 119.12 142.62 C 127.95 141.07 135.40 133.07 135.48 123.96 C 135.78 115.55 129.72 107.75 121.83 105.22 C 116.76 103.44 111.18 103.99 106.22 105.87 C 105.04 103.98 103.63 102.19 102.87 100.08 C 104.11 93.84 106.35 87.84 107.77 81.64 C 108.25 79.84 107.02 78.20 106.49 76.57 C 103.28 69.39 100.81 61.87 96.88 55.03 C 94.68 50.99 92.52 46.92 90.33 42.88 C 86.92 44.77 82.06 45.33 80.43 49.38 Z" />
<path fill="#febe0b" opacity="1.00" d=" M 89.67 90.79 C 89.91 89.45 90.62 89.20 91.81 90.05 C 91.59 91.41 90.88 91.66 89.67 90.79 Z" />
<path fill="#febe0b" opacity="1.00" d=" M 59.25 94.15 C 63.50 94.12 67.76 94.13 72.01 94.13 C 74.66 99.69 77.23 105.29 79.83 110.86 C 78.93 111.74 78.02 112.61 77.12 113.49 C 70.83 108.24 64.58 102.96 58.27 97.74 C 58.59 96.55 58.92 95.35 59.25 94.15 Z" />
<path fill="#febe0b" opacity="1.00" d=" M 81.74 95.19 C 85.14 93.61 88.94 94.19 92.57 94.15 C 91.53 99.84 90.60 105.58 88.82 111.10 C 86.46 105.80 83.96 100.55 81.74 95.19 Z" />
<path fill="#febe0b" opacity="1.00" d=" M 101.69 108.88 C 100.32 108.59 100.25 105.93 101.56 105.54 C 102.80 106.03 103.24 108.48 101.69 108.88 Z" />
<path fill="#febe0b" opacity="1.00" d=" M 35.81 112.80 C 39.80 108.21 46.18 106.57 52.07 107.20 C 50.21 112.56 49.84 118.71 45.82 123.04 C 45.25 125.69 48.71 127.55 50.76 125.96 C 52.95 124.54 51.01 121.83 51.67 119.79 C 52.72 115.85 54.02 111.98 55.17 108.07 C 60.52 110.34 65.09 114.99 65.98 120.90 C 67.37 128.07 62.95 135.52 56.38 138.40 C 48.71 142.11 38.58 139.32 34.09 132.03 C 30.20 126.20 31.01 117.88 35.81 112.80 Z" />
<path fill="#febe0b" opacity="1.00" d=" M 107.87 108.39 C 112.74 106.79 118.24 106.49 122.90 108.91 C 129.56 111.97 133.75 119.84 131.92 127.07 C 130.18 135.03 122.00 140.63 113.97 140.00 C 109.53 139.86 105.50 137.64 102.19 134.83 C 102.97 134.71 104.54 134.48 105.32 134.36 C 104.55 131.27 103.85 128.16 103.34 125.01 C 106.20 124.99 109.05 124.97 111.91 125.08 C 113.35 125.85 115.26 127.33 116.83 125.95 C 118.29 125.18 118.66 122.90 117.33 121.84 C 113.33 118.01 110.98 112.90 107.87 108.39 Z" />
<path fill="#febe0b" opacity="1.00" d=" M 101.84 113.08 C 102.66 112.08 103.53 111.13 104.45 110.22 C 107.08 114.09 109.55 118.07 112.10 122.00 C 109.05 122.00 106.00 122.00 102.95 122.00 C 102.53 119.04 101.83 116.09 101.84 113.08 Z" />
<path fill="#febe0b" opacity="1.00" d=" M 79.11 115.24 C 81.89 115.14 84.68 115.02 87.46 114.89 C 87.25 115.52 86.84 116.77 86.63 117.39 C 85.45 117.73 84.26 118.08 83.08 118.43 C 81.76 117.36 80.43 116.30 79.11 115.24 Z" />
<path fill="#febe0b" opacity="1.00" d=" M 92.00 114.20 C 92.72 116.93 93.47 119.67 93.94 122.46 C 92.52 121.37 91.50 119.90 90.48 118.46 C 90.86 117.40 91.62 115.26 92.00 114.20 Z" />
<path fill="#000000" opacity="1.00" d=" M 80.35 30.48 C 85.72 28.74 90.96 34.78 88.90 39.90 C 87.59 44.72 80.75 46.47 77.34 42.77 C 73.45 39.17 75.14 31.79 80.35 30.48 Z" />
<path fill="#000000" opacity="1.00" d=" M 80.43 49.38 C 82.06 45.33 86.92 44.77 90.33 42.88 C 92.52 46.92 94.68 50.99 96.88 55.03 C 100.81 61.87 103.28 69.39 106.49 76.57 C 107.02 78.20 108.25 79.84 107.77 81.64 C 106.35 87.84 104.11 93.84 102.87 100.08 C 103.63 102.19 105.04 103.98 106.22 105.87 C 111.18 103.99 116.76 103.44 121.83 105.22 C 129.72 107.75 135.78 115.55 135.48 123.96 C 135.40 133.07 127.95 141.07 119.12 142.62 C 111.54 144.22 103.52 141.15 98.57 135.29 C 94.86 135.73 91.18 136.37 87.48 136.84 C 87.53 136.20 87.64 134.90 87.70 134.26 C 90.07 132.29 92.79 130.81 95.33 129.08 C 95.06 127.71 94.76 126.35 94.42 125.00 C 91.81 124.92 91.45 128.73 88.89 129.17 C 83.80 131.26 78.67 125.63 80.85 120.66 C 73.04 113.99 65.11 107.45 57.28 100.81 C 56.86 102.27 56.44 103.73 56.01 105.19 C 60.38 107.05 64.45 109.96 66.81 114.16 C 70.31 119.99 70.19 127.74 66.50 133.45 C 62.65 139.69 55.23 143.42 47.94 142.98 C 39.58 142.77 31.60 136.95 29.23 128.87 C 26.96 121.64 29.76 113.32 35.71 108.71 C 40.46 104.71 46.94 103.58 52.96 104.36 C 54.93 97.81 56.82 91.24 58.81 84.70 C 59.44 82.56 60.64 80.14 63.13 79.83 C 66.17 79.40 69.26 79.58 72.33 79.53 C 72.33 80.28 72.33 81.78 72.33 82.53 C 69.29 82.70 66.08 82.03 63.15 83.02 C 61.42 85.27 61.17 88.30 60.23 90.93 C 64.34 90.70 68.64 91.46 72.64 90.54 C 78.80 85.83 84.67 80.73 90.69 75.85 C 87.94 71.47 85.17 67.10 82.39 62.74 C 78.61 68.22 74.90 73.76 71.11 79.24 C 68.72 79.26 66.33 79.30 63.93 79.36 C 69.41 69.36 74.99 59.41 80.43 49.38 M 89.67 90.79 C 90.88 91.66 91.59 91.41 91.81 90.05 C 90.62 89.20 89.91 89.45 89.67 90.79 M 59.25 94.15 C 58.92 95.35 58.59 96.55 58.27 97.74 C 64.58 102.96 70.83 108.24 77.12 113.49 C 78.02 112.61 78.93 111.74 79.83 110.86 C 77.23 105.29 74.66 99.69 72.01 94.13 C 67.76 94.13 63.50 94.12 59.25 94.15 M 81.74 95.19 C 83.96 100.55 86.46 105.80 88.82 111.10 C 90.60 105.58 91.53 99.84 92.57 94.15 C 88.94 94.19 85.14 93.61 81.74 95.19 M 101.69 108.88 C 103.24 108.48 102.80 106.03 101.56 105.54 C 100.25 105.93 100.32 108.59 101.69 108.88 M 35.81 112.80 C 31.01 117.88 30.20 126.20 34.09 132.03 C 38.58 139.32 48.71 142.11 56.38 138.40 C 62.95 135.52 67.37 128.07 65.98 120.90 C 65.09 114.99 60.52 110.34 55.17 108.07 C 54.02 111.98 52.72 115.85 51.67 119.79 C 51.01 121.83 52.95 124.54 50.76 125.96 C 48.71 127.55 45.25 125.69 45.82 123.04 C 49.84 118.71 50.21 112.56 52.07 107.20 C 46.18 106.57 39.80 108.21 35.81 112.80 M 107.87 108.39 C 110.98 112.90 113.33 118.01 117.33 121.84 C 118.66 122.90 118.29 125.18 116.83 125.95 C 115.26 127.33 113.35 125.85 111.91 125.08 C 109.05 124.97 106.20 124.99 103.34 125.01 C 103.85 128.16 104.55 131.27 105.32 134.36 C 104.54 134.48 102.97 134.71 102.19 134.83 C 105.50 137.64 109.53 139.86 113.97 140.00 C 122.00 140.63 130.18 135.03 131.92 127.07 C 133.75 119.84 129.56 111.97 122.90 108.91 C 118.24 106.49 112.74 106.79 107.87 108.39 M 101.84 113.08 C 101.83 116.09 102.53 119.04 102.95 122.00 C 106.00 122.00 109.05 122.00 112.10 122.00 C 109.55 118.07 107.08 114.09 104.45 110.22 C 103.53 111.13 102.66 112.08 101.84 113.08 M 79.11 115.24 C 80.43 116.30 81.76 117.36 83.08 118.43 C 84.26 118.08 85.45 117.73 86.63 117.39 C 86.84 116.77 87.25 115.52 87.46 114.89 C 84.68 115.02 81.89 115.14 79.11 115.24 M 92.00 114.20 C 91.62 115.26 90.86 117.40 90.48 118.46 C 91.50 119.90 92.52 121.37 93.94 122.46 C 93.47 119.67 92.72 116.93 92.00 114.20 Z" />
</g>
</svg>
