<?xml version="1.0" encoding="UTF-8" ?>
<!DOCTYPE svg PUBLIC "-//W3C//DTD SVG 1.1//EN" "http://www.w3.org/Graphics/SVG/1.1/DTD/svg11.dtd">
<svg width="149pt" height="149pt" viewBox="0 0 149 149" version="1.1" xmlns="http://www.w3.org/2000/svg">
<g id="disabled">
<path fill="#606060" opacity="1.00" d=" M 63.53 2.73 C 77.64 0.60 92.41 2.63 105.34 8.73 C 129.86 20.01 146.97 45.92 147.01 72.99 C 147.66 91.82 140.24 110.71 127.25 124.33 C 113.43 139.06 93.22 147.74 72.98 147.01 C 45.40 146.95 19.04 129.15 8.11 103.91 C -3.67 78.13 1.65 45.68 21.24 25.15 C 32.25 13.16 47.42 5.09 63.53 2.73 M 70.25 16.34 C 50.38 17.62 31.77 29.95 22.73 47.66 C 15.82 60.94 14.27 76.90 18.66 91.22 C 23.17 106.41 34.15 119.55 48.38 126.55 C 61.14 133.03 76.34 134.63 90.11 130.62 C 101.97 127.30 112.78 120.19 120.34 110.44 C 130.34 97.82 134.77 80.89 132.00 65.01 C 129.50 49.33 120.21 34.89 106.98 26.12 C 96.32 18.80 83.11 15.43 70.25 16.34 Z" />
<path fill="#606060" opacity="1.00" d=" M 31.67 56.41 C 42.34 56.39 53.00 56.40 63.67 56.41 C 65.39 60.79 65.01 66.29 68.56 69.71 C 68.72 75.39 68.55 81.08 68.66 86.76 C 68.17 86.81 67.21 86.90 66.72 86.95 C 66.72 88.81 66.71 90.67 66.71 92.53 C 64.81 92.53 62.91 92.53 61.02 92.54 C 61.01 90.65 61.00 88.76 60.99 86.87 C 52.11 86.87 43.23 86.86 34.34 86.87 C 34.34 88.76 34.34 90.64 34.34 92.53 C 32.43 92.53 30.52 92.53 28.62 92.53 C 28.63 90.74 28.64 88.96 28.67 87.18 C 28.17 87.05 27.18 86.77 26.68 86.63 C 26.77 81.04 26.67 75.45 26.74 69.86 C 30.27 66.34 29.97 60.85 31.67 56.41 M 33.19 58.27 C 32.68 60.80 32.18 63.33 31.68 65.86 C 42.34 65.86 53.01 65.89 63.67 65.85 C 63.16 63.32 62.66 60.79 62.14 58.27 C 52.49 58.27 42.84 58.26 33.19 58.27 Z" />
<path fill="#ffffff" opacity="1.00" d=" M 70.25 16.34 C 83.11 15.43 96.32 18.80 106.98 26.12 C 120.21 34.89 129.50 49.33 132.00 65.01 C 134.77 80.89 130.34 97.82 120.34 110.44 C 112.78 120.19 101.97 127.30 90.11 130.62 C 76.34 134.63 61.14 133.03 48.38 126.55 C 34.15 119.55 23.17 106.41 18.66 91.22 C 14.27 76.90 15.82 60.94 22.73 47.66 C 31.77 29.95 50.38 17.62 70.25 16.34 M 31.67 56.41 C 29.97 60.85 30.27 66.34 26.74 69.86 C 26.67 75.45 26.77 81.04 26.68 86.63 C 27.18 86.77 28.17 87.05 28.67 87.18 C 28.64 88.96 28.63 90.74 28.62 92.53 C 30.52 92.53 32.43 92.53 34.34 92.53 C 34.34 90.64 34.34 88.76 34.34 86.87 C 43.23 86.86 52.11 86.87 60.99 86.87 C 61.00 88.76 61.01 90.65 61.02 92.54 C 62.91 92.53 64.81 92.53 66.71 92.53 C 66.71 90.67 66.72 88.81 66.72 86.95 C 67.21 86.90 68.17 86.81 68.66 86.76 C 68.55 81.08 68.72 75.39 68.56 69.71 C 65.01 66.29 65.39 60.79 63.67 56.41 C 53.00 56.40 42.34 56.39 31.67 56.41 M 85.33 56.40 C 83.58 60.78 84.00 66.32 80.43 69.74 C 80.30 75.43 80.44 81.11 80.35 86.79 C 80.83 86.82 81.80 86.89 82.28 86.92 C 82.28 88.79 82.28 90.66 82.29 92.53 C 84.19 92.53 86.08 92.53 87.99 92.54 C 87.99 90.65 88.00 88.76 88.00 86.87 C 96.85 86.82 105.70 86.97 114.54 86.79 C 114.67 88.70 114.67 90.61 114.67 92.53 C 116.57 92.53 118.48 92.53 120.38 92.53 C 120.37 90.74 120.36 88.95 120.34 87.16 C 120.83 87.03 121.82 86.78 122.32 86.65 C 122.23 81.05 122.33 75.44 122.26 69.84 C 118.70 66.35 119.02 60.85 117.33 56.41 C 106.66 56.39 96.00 56.40 85.33 56.40 Z" />
<path fill="#ffffff" opacity="1.00" d=" M 33.19 58.27 C 42.84 58.26 52.49 58.27 62.14 58.27 C 62.66 60.79 63.16 63.32 63.67 65.85 C 53.01 65.89 42.34 65.86 31.68 65.86 C 32.18 63.33 32.68 60.80 33.19 58.27 Z" />
<path fill="#ffffff" opacity="1.00" d=" M 86.86 58.27 C 96.51 58.27 106.16 58.26 115.80 58.27 C 116.31 60.80 116.82 63.33 117.32 65.86 C 106.66 65.87 96.00 65.86 85.34 65.87 C 85.83 63.33 86.34 60.80 86.86 58.27 Z" />
<path fill="#000000" opacity="1.00" d=" M 85.33 56.40 C 96.00 56.40 106.66 56.39 117.33 56.41 C 119.02 60.85 118.70 66.35 122.26 69.84 C 122.33 75.44 122.23 81.05 122.32 86.65 C 121.82 86.78 120.83 87.03 120.34 87.16 C 120.36 88.95 120.37 90.74 120.38 92.53 C 118.48 92.53 116.57 92.53 114.67 92.53 C 114.67 90.61 114.67 88.70 114.54 86.79 C 105.70 86.97 96.85 86.82 88.00 86.87 C 88.00 88.76 87.99 90.65 87.99 92.54 C 86.08 92.53 84.19 92.53 82.29 92.53 C 82.28 90.66 82.28 88.79 82.28 86.92 C 81.80 86.89 80.83 86.82 80.35 86.79 C 80.44 81.11 80.30 75.43 80.43 69.74 C 84.00 66.32 83.58 60.78 85.33 56.40 M 86.86 58.27 C 86.34 60.80 85.83 63.33 85.34 65.87 C 96.00 65.86 106.66 65.87 117.32 65.86 C 116.82 63.33 116.31 60.80 115.80 58.27 C 106.16 58.26 96.51 58.27 86.86 58.27 Z" />
</g>
<g id="normal">
<path fill="#d40000" opacity="1.00" d=" M 63.53 2.73 C 77.64 0.60 92.41 2.63 105.34 8.73 C 129.86 20.01 146.97 45.92 147.01 72.99 C 147.66 91.82 140.24 110.71 127.25 124.33 C 113.43 139.06 93.22 147.74 72.98 147.01 C 45.40 146.95 19.04 129.15 8.11 103.91 C -3.67 78.13 1.65 45.68 21.24 25.15 C 32.25 13.16 47.42 5.09 63.53 2.73 M 70.25 16.34 C 50.38 17.62 31.77 29.95 22.73 47.66 C 15.82 60.94 14.27 76.90 18.66 91.22 C 23.17 106.41 34.15 119.55 48.38 126.55 C 61.14 133.03 76.34 134.63 90.11 130.62 C 101.97 127.30 112.78 120.19 120.34 110.44 C 130.34 97.82 134.77 80.89 132.00 65.01 C 129.50 49.33 120.21 34.89 106.98 26.12 C 96.32 18.80 83.11 15.43 70.25 16.34 Z" />
<path fill="#d40000" opacity="1.00" d=" M 31.67 56.41 C 42.34 56.39 53.00 56.40 63.67 56.41 C 65.39 60.79 65.01 66.29 68.56 69.71 C 68.72 75.39 68.55 81.08 68.66 86.76 C 68.17 86.81 67.21 86.90 66.72 86.95 C 66.72 88.81 66.71 90.67 66.71 92.53 C 64.81 92.53 62.91 92.53 61.02 92.54 C 61.01 90.65 61.00 88.76 60.99 86.87 C 52.11 86.87 43.23 86.86 34.34 86.87 C 34.34 88.76 34.34 90.64 34.34 92.53 C 32.43 92.53 30.52 92.53 28.62 92.53 C 28.63 90.74 28.64 88.96 28.67 87.18 C 28.17 87.05 27.18 86.77 26.68 86.63 C 26.77 81.04 26.67 75.45 26.74 69.86 C 30.27 66.34 29.97 60.85 31.67 56.41 M 33.19 58.27 C 32.68 60.80 32.18 63.33 31.68 65.86 C 42.34 65.86 53.01 65.89 63.67 65.85 C 63.16 63.32 62.66 60.79 62.14 58.27 C 52.49 58.27 42.84 58.26 33.19 58.27 Z" />
<path fill="#ffffff" opacity="1.00" d=" M 70.25 16.34 C 83.11 15.43 96.32 18.80 106.98 26.12 C 120.21 34.89 129.50 49.33 132.00 65.01 C 134.77 80.89 130.34 97.82 120.34 110.44 C 112.78 120.19 101.97 127.30 90.11 130.62 C 76.34 134.63 61.14 133.03 48.38 126.55 C 34.15 119.55 23.17 106.41 18.66 91.22 C 14.27 76.90 15.82 60.94 22.73 47.66 C 31.77 29.95 50.38 17.62 70.25 16.34 M 31.67 56.41 C 29.97 60.85 30.27 66.34 26.74 69.86 C 26.67 75.45 26.77 81.04 26.68 86.63 C 27.18 86.77 28.17 87.05 28.67 87.18 C 28.64 88.96 28.63 90.74 28.62 92.53 C 30.52 92.53 32.43 92.53 34.34 92.53 C 34.34 90.64 34.34 88.76 34.34 86.87 C 43.23 86.86 52.11 86.87 60.99 86.87 C 61.00 88.76 61.01 90.65 61.02 92.54 C 62.91 92.53 64.81 92.53 66.71 92.53 C 66.71 90.67 66.72 88.81 66.72 86.95 C 67.21 86.90 68.17 86.81 68.66 86.76 C 68.55 81.08 68.72 75.39 68.56 69.71 C 65.01 66.29 65.39 60.79 63.67 56.41 C 53.00 56.40 42.34 56.39 31.67 56.41 M 85.33 56.40 C 83.58 60.78 84.00 66.32 80.43 69.74 C 80.30 75.43 80.44 81.11 80.35 86.79 C 80.83 86.82 81.80 86.89 82.28 86.92 C 82.28 88.79 82.28 90.66 82.29 92.53 C 84.19 92.53 86.08 92.53 87.99 92.54 C 87.99 90.65 88.00 88.76 88.00 86.87 C 96.85 86.82 105.70 86.97 114.54 86.79 C 114.67 88.70 114.67 90.61 114.67 92.53 C 116.57 92.53 118.48 92.53 120.38 92.53 C 120.37 90.74 120.36 88.95 120.34 87.16 C 120.83 87.03 121.82 86.78 122.32 86.65 C 122.23 81.05 122.33 75.44 122.26 69.84 C 118.70 66.35 119.02 60.85 117.33 56.41 C 106.66 56.39 96.00 56.40 85.33 56.40 Z" />
<path fill="#ffffff" opacity="1.00" d=" M 33.19 58.27 C 42.84 58.26 52.49 58.27 62.14 58.27 C 62.66 60.79 63.16 63.32 63.67 65.85 C 53.01 65.89 42.34 65.86 31.68 65.86 C 32.18 63.33 32.68 60.80 33.19 58.27 Z" />
<path fill="#ffffff" opacity="1.00" d=" M 86.86 58.27 C 96.51 58.27 106.16 58.26 115.80 58.27 C 116.31 60.80 116.82 63.33 117.32 65.86 C 106.66 65.87 96.00 65.86 85.34 65.87 C 85.83 63.33 86.34 60.80 86.86 58.27 Z" />
<path fill="#000000" opacity="1.00" d=" M 85.33 56.40 C 96.00 56.40 106.66 56.39 117.33 56.41 C 119.02 60.85 118.70 66.35 122.26 69.84 C 122.33 75.44 122.23 81.05 122.32 86.65 C 121.82 86.78 120.83 87.03 120.34 87.16 C 120.36 88.95 120.37 90.74 120.38 92.53 C 118.48 92.53 116.57 92.53 114.67 92.53 C 114.67 90.61 114.67 88.70 114.54 86.79 C 105.70 86.97 96.85 86.82 88.00 86.87 C 88.00 88.76 87.99 90.65 87.99 92.54 C 86.08 92.53 84.19 92.53 82.29 92.53 C 82.28 90.66 82.28 88.79 82.28 86.92 C 81.80 86.89 80.83 86.82 80.35 86.79 C 80.44 81.11 80.30 75.43 80.43 69.74 C 84.00 66.32 83.58 60.78 85.33 56.40 M 86.86 58.27 C 86.34 60.80 85.83 63.33 85.34 65.87 C 96.00 65.86 106.66 65.87 117.32 65.86 C 116.82 63.33 116.31 60.80 115.80 58.27 C 106.16 58.26 96.51 58.27 86.86 58.27 Z" />
</g>
</svg>
