<?xml version="1.0" encoding="UTF-8" ?>
<!DOCTYPE svg PUBLIC "-//W3C//DTD SVG 1.1//EN" "http://www.w3.org/Graphics/SVG/1.1/DTD/svg11.dtd">
<svg width="167pt" height="167pt" viewBox="0 0 167 167" version="1.1" xmlns="http://www.w3.org/2000/svg">
<g id="disabled">
<path fill="#606060" opacity="1.00" d=" M 72.26 16.23 C 74.65 11.39 80.90 8.55 85.96 10.85 C 88.84 11.84 90.76 14.36 92.17 16.93 C 115.45 57.27 138.73 97.62 162.01 137.98 C 163.69 140.84 164.60 144.38 163.35 147.59 C 161.90 152.38 156.87 155.26 152.02 154.99 C 105.33 155.00 58.63 155.00 11.94 154.99 C 5.92 155.45 0.32 150.70 0.00 144.62 L 0.00 143.71 C 0.35 141.47 1.17 139.33 2.33 137.38 C 25.66 97.01 48.91 56.59 72.26 16.23 M 80.38 15.53 C 78.48 16.07 77.34 17.79 76.41 19.40 C 53.24 59.59 30.04 99.76 6.87 139.95 C 5.73 141.80 4.69 144.12 5.71 146.27 C 6.65 148.78 9.44 149.97 11.98 149.74 C 57.68 149.73 103.37 149.72 149.07 149.74 C 151.78 149.66 155.00 150.25 157.10 148.08 C 159.19 146.11 159.04 142.81 157.48 140.57 C 134.10 99.96 110.65 59.38 87.23 18.78 C 86.07 16.27 83.11 14.56 80.38 15.53 Z" />
<path fill="#c6c6c6" opacity="1.00" d=" M 80.38 15.53 C 83.11 14.56 86.07 16.27 87.23 18.78 C 110.65 59.38 134.10 99.96 157.48 140.57 C 159.04 142.81 159.19 146.11 157.10 148.08 C 155.00 150.25 151.78 149.66 149.07 149.74 C 103.37 149.72 57.68 149.73 11.98 149.74 C 9.44 149.97 6.65 148.78 5.71 146.27 C 4.69 144.12 5.73 141.80 6.87 139.95 C 30.04 99.76 53.24 59.59 76.41 19.40 C 77.34 17.79 78.48 16.07 80.38 15.53 M 60.19 73.90 C 57.53 76.50 54.90 79.12 52.24 81.71 C 54.86 84.41 57.51 87.09 60.20 89.73 C 67.40 90.01 74.72 91.35 81.01 95.03 C 93.59 101.83 102.22 115.18 103.48 129.40 C 103.68 133.29 103.53 137.19 103.59 141.09 C 106.22 138.48 108.82 135.86 111.43 133.24 C 114.18 135.76 116.70 138.51 119.38 141.11 C 119.44 133.35 119.66 125.45 117.40 117.94 C 113.07 100.99 100.65 86.46 84.76 79.22 C 77.16 75.37 68.57 74.36 60.19 73.90 Z" />
<path fill="#000000" opacity="1.00" d=" M 60.19 73.90 C 68.57 74.36 77.16 75.37 84.76 79.22 C 100.65 86.46 113.07 100.99 117.40 117.94 C 119.66 125.45 119.44 133.35 119.38 141.11 C 116.70 138.51 114.18 135.76 111.43 133.24 C 108.82 135.86 106.22 138.48 103.59 141.09 C 103.53 137.19 103.68 133.29 103.48 129.40 C 102.22 115.18 93.59 101.83 81.01 95.03 C 74.72 91.35 67.40 90.01 60.20 89.73 C 57.51 87.09 54.86 84.41 52.24 81.71 C 54.90 79.12 57.53 76.50 60.19 73.90 Z" />
</g>
<g id="normal">
<path fill="#d40000" opacity="1.00" d=" M 72.26 16.23 C 74.65 11.39 80.90 8.55 85.96 10.85 C 88.84 11.84 90.76 14.36 92.17 16.93 C 115.45 57.27 138.73 97.62 162.01 137.98 C 163.69 140.84 164.60 144.38 163.35 147.59 C 161.90 152.38 156.87 155.26 152.02 154.99 C 105.33 155.00 58.63 155.00 11.94 154.99 C 5.92 155.45 0.32 150.70 0.00 144.62 L 0.00 143.71 C 0.35 141.47 1.17 139.33 2.33 137.38 C 25.66 97.01 48.91 56.59 72.26 16.23 M 80.38 15.53 C 78.48 16.07 77.34 17.79 76.41 19.40 C 53.24 59.59 30.04 99.76 6.87 139.95 C 5.73 141.80 4.69 144.12 5.71 146.27 C 6.65 148.78 9.44 149.97 11.98 149.74 C 57.68 149.73 103.37 149.72 149.07 149.74 C 151.78 149.66 155.00 150.25 157.10 148.08 C 159.19 146.11 159.04 142.81 157.48 140.57 C 134.10 99.96 110.65 59.38 87.23 18.78 C 86.07 16.27 83.11 14.56 80.38 15.53 Z" />
<path fill="#febe0b" opacity="1.00" d=" M 80.38 15.53 C 83.11 14.56 86.07 16.27 87.23 18.78 C 110.65 59.38 134.10 99.96 157.48 140.57 C 159.04 142.81 159.19 146.11 157.10 148.08 C 155.00 150.25 151.78 149.66 149.07 149.74 C 103.37 149.72 57.68 149.73 11.98 149.74 C 9.44 149.97 6.65 148.78 5.71 146.27 C 4.69 144.12 5.73 141.80 6.87 139.95 C 30.04 99.76 53.24 59.59 76.41 19.40 C 77.34 17.79 78.48 16.07 80.38 15.53 M 60.19 73.90 C 57.53 76.50 54.90 79.12 52.24 81.71 C 54.86 84.41 57.51 87.09 60.20 89.73 C 67.40 90.01 74.72 91.35 81.01 95.03 C 93.59 101.83 102.22 115.18 103.48 129.40 C 103.68 133.29 103.53 137.19 103.59 141.09 C 106.22 138.48 108.82 135.86 111.43 133.24 C 114.18 135.76 116.70 138.51 119.38 141.11 C 119.44 133.35 119.66 125.45 117.40 117.94 C 113.07 100.99 100.65 86.46 84.76 79.22 C 77.16 75.37 68.57 74.36 60.19 73.90 Z" />
<path fill="#000000" opacity="1.00" d=" M 60.19 73.90 C 68.57 74.36 77.16 75.37 84.76 79.22 C 100.65 86.46 113.07 100.99 117.40 117.94 C 119.66 125.45 119.44 133.35 119.38 141.11 C 116.70 138.51 114.18 135.76 111.43 133.24 C 108.82 135.86 106.22 138.48 103.59 141.09 C 103.53 137.19 103.68 133.29 103.48 129.40 C 102.22 115.18 93.59 101.83 81.01 95.03 C 74.72 91.35 67.40 90.01 60.20 89.73 C 57.51 87.09 54.86 84.41 52.24 81.71 C 54.90 79.12 57.53 76.50 60.19 73.90 Z" />
</g>
</svg>
