<?xml version="1.0" encoding="UTF-8" ?>
<!DOCTYPE svg PUBLIC "-//W3C//DTD SVG 1.1//EN" "http://www.w3.org/Graphics/SVG/1.1/DTD/svg11.dtd">
<svg width="167pt" height="167pt" viewBox="0 0 167 167" version="1.1" xmlns="http://www.w3.org/2000/svg">
<g id="disabled">
<path fill="#606060" opacity="1.00" d=" M 72.29 16.10 C 73.89 13.24 76.56 10.87 79.86 10.28 C 84.62 9.11 89.54 12.02 91.72 16.22 C 114.44 55.56 137.08 94.93 159.83 134.25 C 162.03 138.03 164.90 142.26 163.53 146.87 C 162.39 152.02 157.12 155.36 151.99 155.01 C 104.98 154.97 57.97 155.05 10.96 154.97 C 5.49 155.11 0.85 150.77 0.00 145.47 L 0.00 143.24 C 0.53 141.19 1.30 139.20 2.33 137.36 C 25.69 96.96 48.95 56.51 72.29 16.10 M 79.20 15.86 C 78.00 17.55 76.81 19.24 75.75 21.03 C 54.00 58.83 32.18 96.60 10.39 134.38 C 8.29 138.23 4.98 141.98 5.87 146.70 C 6.67 147.47 7.47 148.25 8.25 149.04 C 10.18 149.19 12.11 149.32 14.04 149.35 C 59.36 149.34 104.68 149.35 150.00 149.35 C 151.89 149.31 153.77 149.19 155.66 149.05 C 156.47 148.24 157.28 147.44 158.11 146.65 C 158.16 144.40 158.20 142.03 156.87 140.11 C 134.75 101.89 112.74 63.60 90.67 25.36 C 89.06 22.67 87.73 19.79 85.78 17.32 C 84.35 15.09 81.40 16.07 79.20 15.86 Z" />
<path fill="#c6c6c6" opacity="1.00" d=" M 79.20 15.86 C 81.40 16.07 84.35 15.09 85.78 17.32 C 87.73 19.79 89.06 22.67 90.67 25.36 C 112.74 63.60 134.75 101.89 156.87 140.11 C 158.20 142.03 158.16 144.40 158.11 146.65 C 157.28 147.44 156.47 148.24 155.66 149.05 C 153.77 149.19 151.89 149.31 150.00 149.35 C 104.68 149.35 59.36 149.34 14.04 149.35 C 12.11 149.32 10.18 149.19 8.25 149.04 C 7.47 148.25 6.67 147.47 5.87 146.70 C 4.98 141.98 8.29 138.23 10.39 134.38 C 32.18 96.60 54.00 58.83 75.75 21.03 C 76.81 19.24 78.00 17.55 79.20 15.86 M 49.92 76.13 C 49.92 76.82 49.92 78.18 49.92 78.87 C 60.32 78.88 70.71 78.85 81.11 78.88 C 77.02 82.63 72.76 86.19 68.68 89.94 C 71.53 93.58 74.41 97.20 77.25 100.86 C 64.82 100.88 52.40 100.87 39.98 100.85 C 36.66 100.34 34.18 103.42 32.74 105.94 C 32.43 113.35 32.73 120.77 32.62 128.19 C 34.16 129.72 35.68 131.26 37.21 132.80 C 41.56 132.80 45.90 132.81 50.25 132.78 C 51.04 134.16 51.85 135.54 52.68 136.89 C 41.51 136.68 30.33 136.85 19.16 136.80 C 19.16 138.38 19.16 139.96 19.16 141.54 C 61.04 141.53 102.91 141.53 144.78 141.54 C 144.78 139.96 144.78 138.38 144.79 136.80 C 133.62 136.86 122.45 136.67 111.28 136.90 C 112.08 135.55 112.86 134.19 113.63 132.82 C 118.00 132.79 122.37 132.80 126.74 132.80 C 128.25 131.25 129.78 129.71 131.32 128.18 C 131.21 120.77 131.52 113.34 131.20 105.93 C 130.30 103.88 128.25 102.54 126.78 100.88 C 113.41 100.84 100.05 100.89 86.68 100.85 C 89.54 97.21 92.40 93.58 95.27 89.94 C 91.18 86.20 86.92 82.63 82.84 78.89 C 93.23 78.84 103.63 78.88 114.02 78.87 C 114.02 78.18 114.02 76.82 114.02 76.13 C 92.65 76.13 71.29 76.13 49.92 76.13 Z" />
<path fill="#c6c6c6" opacity="1.00" d=" M 71.44 89.94 C 74.92 86.95 78.43 84.00 81.97 81.10 C 85.51 84.00 89.03 86.94 92.49 89.93 C 88.99 92.97 85.45 95.97 81.97 99.02 C 78.50 95.95 74.95 92.97 71.44 89.94 Z" />
<path fill="#c6c6c6" opacity="1.00" d=" M 119.24 105.27 C 119.72 105.37 120.66 105.57 121.14 105.68 C 121.14 108.55 121.14 111.43 121.15 114.31 C 120.66 114.40 119.68 114.58 119.19 114.67 C 119.05 111.54 119.04 108.40 119.24 105.27 Z" />
<path fill="#c6c6c6" opacity="1.00" d=" M 37.38 114.35 C 37.09 111.46 37.10 108.53 37.40 105.64 C 38.13 105.57 39.58 105.44 40.31 105.38 C 40.32 108.46 40.32 111.54 40.31 114.62 C 39.58 114.55 38.11 114.42 37.38 114.35 Z" />
<path fill="#c6c6c6" opacity="1.00" d=" M 42.85 105.20 C 43.32 105.38 44.27 105.72 44.75 105.89 C 44.97 108.62 44.97 111.38 44.75 114.12 C 44.27 114.28 43.32 114.62 42.84 114.78 C 42.78 111.59 42.78 108.40 42.85 105.20 Z" />
<path fill="#c6c6c6" opacity="1.00" d=" M 47.34 114.49 C 47.33 111.49 47.33 108.50 47.34 105.51 C 48.11 105.52 49.65 105.54 50.42 105.55 C 50.42 108.52 50.42 111.48 50.42 114.45 C 49.65 114.46 48.11 114.48 47.34 114.49 Z" />
<path fill="#c6c6c6" opacity="1.00" d=" M 55.15 105.54 C 58.81 105.53 62.47 105.53 66.13 105.53 C 66.13 108.49 66.13 111.44 66.13 114.40 C 62.47 114.40 58.81 114.40 55.15 114.40 C 55.15 111.44 55.15 108.49 55.15 105.54 Z" />
<path fill="#c6c6c6" opacity="1.00" d=" M 68.56 105.53 C 72.59 105.53 76.62 105.53 80.65 105.52 C 80.67 108.49 80.67 111.45 80.65 114.41 C 76.62 114.40 72.59 114.40 68.56 114.40 C 68.56 111.44 68.56 108.49 68.56 105.53 Z" />
<path fill="#c6c6c6" opacity="1.00" d=" M 83.25 114.37 C 83.27 111.42 83.28 108.47 83.30 105.52 C 87.32 105.53 91.35 105.53 95.38 105.53 C 95.38 108.49 95.38 111.44 95.38 114.40 C 91.34 114.41 87.29 114.41 83.25 114.37 Z" />
<path fill="#c6c6c6" opacity="1.00" d=" M 97.81 105.54 C 101.48 105.52 105.15 105.51 108.82 105.58 C 108.79 108.52 108.78 111.46 108.79 114.39 C 105.13 114.40 101.47 114.40 97.81 114.40 C 97.81 111.44 97.81 108.49 97.81 105.54 Z" />
<path fill="#c6c6c6" opacity="1.00" d=" M 113.52 105.55 C 114.29 105.54 115.83 105.52 116.60 105.52 C 116.61 108.50 116.61 111.49 116.60 114.48 C 115.83 114.47 114.29 114.46 113.52 114.46 C 113.52 111.49 113.52 108.52 113.52 105.55 Z" />
<path fill="#c6c6c6" opacity="1.00" d=" M 123.62 105.55 C 124.39 105.54 125.93 105.52 126.70 105.50 C 126.71 108.51 126.71 111.51 126.68 114.51 C 125.92 114.49 124.38 114.46 123.62 114.44 C 123.62 111.47 123.62 108.51 123.62 105.55 Z" />
<path fill="#c6c6c6" opacity="1.00" d=" M 57.70 136.89 C 58.50 135.55 59.26 134.19 60.02 132.82 C 61.31 132.82 62.60 132.82 63.89 132.82 C 64.63 134.19 65.39 135.55 66.18 136.89 C 63.35 136.77 60.52 136.77 57.70 136.89 Z" />
<path fill="#c6c6c6" opacity="1.00" d=" M 73.59 132.82 C 79.17 132.79 84.76 132.78 90.34 132.82 C 91.10 134.19 91.88 135.56 92.70 136.90 C 85.55 136.74 78.40 136.73 71.26 136.90 C 72.06 135.55 72.84 134.19 73.59 132.82 Z" />
<path fill="#c6c6c6" opacity="1.00" d=" M 97.73 136.90 C 98.53 135.55 99.31 134.19 100.06 132.82 C 101.34 132.82 102.63 132.82 103.92 132.82 C 104.66 134.19 105.42 135.55 106.22 136.90 C 103.39 136.77 100.56 136.77 97.73 136.90 Z" />
<path fill="#000000" opacity="1.00" d=" M 49.92 76.13 C 71.29 76.13 92.65 76.13 114.02 76.13 C 114.02 76.82 114.02 78.18 114.02 78.87 C 103.63 78.88 93.23 78.84 82.84 78.89 C 86.92 82.63 91.18 86.20 95.27 89.94 C 92.40 93.58 89.54 97.21 86.68 100.85 C 100.05 100.89 113.41 100.84 126.78 100.88 C 128.25 102.54 130.30 103.88 131.20 105.93 C 131.52 113.34 131.21 120.77 131.32 128.18 C 129.78 129.71 128.25 131.25 126.74 132.80 C 122.37 132.80 118.00 132.79 113.63 132.82 C 112.86 134.19 112.08 135.55 111.28 136.90 C 122.45 136.67 133.62 136.86 144.79 136.80 C 144.78 138.38 144.78 139.96 144.78 141.54 C 102.91 141.53 61.04 141.53 19.16 141.54 C 19.16 139.96 19.16 138.38 19.16 136.80 C 30.33 136.85 41.51 136.68 52.68 136.89 C 51.85 135.54 51.04 134.16 50.25 132.78 C 45.90 132.81 41.56 132.80 37.21 132.80 C 35.68 131.26 34.16 129.72 32.62 128.19 C 32.73 120.77 32.43 113.35 32.74 105.94 C 34.18 103.42 36.66 100.34 39.98 100.85 C 52.40 100.87 64.82 100.88 77.25 100.86 C 74.41 97.20 71.53 93.58 68.68 89.94 C 72.76 86.19 77.02 82.63 81.11 78.88 C 70.71 78.85 60.32 78.88 49.92 78.87 C 49.92 78.18 49.92 76.82 49.92 76.13 M 71.44 89.94 C 74.95 92.97 78.50 95.95 81.97 99.02 C 85.45 95.97 88.99 92.97 92.49 89.93 C 89.03 86.94 85.51 84.00 81.97 81.10 C 78.43 84.00 74.92 86.95 71.44 89.94 M 119.24 105.27 C 119.04 108.40 119.05 111.54 119.19 114.67 C 119.68 114.58 120.66 114.40 121.15 114.31 C 121.14 111.43 121.14 108.55 121.14 105.68 C 120.66 105.57 119.72 105.37 119.24 105.27 M 37.38 114.35 C 38.11 114.42 39.58 114.55 40.31 114.62 C 40.32 111.54 40.32 108.46 40.31 105.38 C 39.58 105.44 38.13 105.57 37.40 105.64 C 37.10 108.53 37.09 111.46 37.38 114.35 M 42.85 105.20 C 42.78 108.40 42.78 111.59 42.84 114.78 C 43.32 114.62 44.27 114.28 44.75 114.12 C 44.97 111.38 44.97 108.62 44.75 105.89 C 44.27 105.72 43.32 105.38 42.85 105.20 M 47.34 114.49 C 48.11 114.48 49.65 114.46 50.42 114.45 C 50.42 111.48 50.42 108.52 50.42 105.55 C 49.65 105.54 48.11 105.52 47.34 105.51 C 47.33 108.50 47.33 111.49 47.34 114.49 M 55.15 105.54 C 55.15 108.49 55.15 111.44 55.15 114.40 C 58.81 114.40 62.47 114.40 66.13 114.40 C 66.13 111.44 66.13 108.49 66.13 105.53 C 62.47 105.53 58.81 105.53 55.15 105.54 M 68.56 105.53 C 68.56 108.49 68.56 111.44 68.56 114.40 C 72.59 114.40 76.62 114.40 80.65 114.41 C 80.67 111.45 80.67 108.49 80.65 105.52 C 76.62 105.53 72.59 105.53 68.56 105.53 M 83.25 114.37 C 87.29 114.41 91.34 114.41 95.38 114.40 C 95.38 111.44 95.38 108.49 95.38 105.53 C 91.35 105.53 87.32 105.53 83.30 105.52 C 83.28 108.47 83.27 111.42 83.25 114.37 M 97.81 105.54 C 97.81 108.49 97.81 111.44 97.81 114.40 C 101.47 114.40 105.13 114.40 108.79 114.39 C 108.78 111.46 108.79 108.52 108.82 105.58 C 105.15 105.51 101.48 105.52 97.81 105.54 M 113.52 105.55 C 113.52 108.52 113.52 111.49 113.52 114.46 C 114.29 114.46 115.83 114.47 116.60 114.48 C 116.61 111.49 116.61 108.50 116.60 105.52 C 115.83 105.52 114.29 105.54 113.52 105.55 M 123.62 105.55 C 123.62 108.51 123.62 111.47 123.62 114.44 C 124.38 114.46 125.92 114.49 126.68 114.51 C 126.71 111.51 126.71 108.51 126.70 105.50 C 125.93 105.52 124.39 105.54 123.62 105.55 M 57.70 136.89 C 60.52 136.77 63.35 136.77 66.18 136.89 C 65.39 135.55 64.63 134.19 63.89 132.82 C 62.60 132.82 61.31 132.82 60.02 132.82 C 59.26 134.19 58.50 135.55 57.70 136.89 M 73.59 132.82 C 72.84 134.19 72.06 135.55 71.26 136.90 C 78.40 136.73 85.55 136.74 92.70 136.90 C 91.88 135.56 91.10 134.19 90.34 132.82 C 84.76 132.78 79.17 132.79 73.59 132.82 M 97.73 136.90 C 100.56 136.77 103.39 136.77 106.22 136.90 C 105.42 135.55 104.66 134.19 103.92 132.82 C 102.63 132.82 101.34 132.82 100.06 132.82 C 99.31 134.19 98.53 135.55 97.73 136.90 Z" />
</g>
<g id="normal">
<path fill="#d40000" opacity="1.00" d=" M 72.29 16.10 C 73.89 13.24 76.56 10.87 79.86 10.28 C 84.62 9.11 89.54 12.02 91.72 16.22 C 114.44 55.56 137.08 94.93 159.83 134.25 C 162.03 138.03 164.90 142.26 163.53 146.87 C 162.39 152.02 157.12 155.36 151.99 155.01 C 104.98 154.97 57.97 155.05 10.96 154.97 C 5.49 155.11 0.85 150.77 0.00 145.47 L 0.00 143.24 C 0.53 141.19 1.30 139.20 2.33 137.36 C 25.69 96.96 48.95 56.51 72.29 16.10 M 79.20 15.86 C 78.00 17.55 76.81 19.24 75.75 21.03 C 54.00 58.83 32.18 96.60 10.39 134.38 C 8.29 138.23 4.98 141.98 5.87 146.70 C 6.67 147.47 7.47 148.25 8.25 149.04 C 10.18 149.19 12.11 149.32 14.04 149.35 C 59.36 149.34 104.68 149.35 150.00 149.35 C 151.89 149.31 153.77 149.19 155.66 149.05 C 156.47 148.24 157.28 147.44 158.11 146.65 C 158.16 144.40 158.20 142.03 156.87 140.11 C 134.75 101.89 112.74 63.60 90.67 25.36 C 89.06 22.67 87.73 19.79 85.78 17.32 C 84.35 15.09 81.40 16.07 79.20 15.86 Z" />
<path fill="#febe0b" opacity="1.00" d=" M 79.20 15.86 C 81.40 16.07 84.35 15.09 85.78 17.32 C 87.73 19.79 89.06 22.67 90.67 25.36 C 112.74 63.60 134.75 101.89 156.87 140.11 C 158.20 142.03 158.16 144.40 158.11 146.65 C 157.28 147.44 156.47 148.24 155.66 149.05 C 153.77 149.19 151.89 149.31 150.00 149.35 C 104.68 149.35 59.36 149.34 14.04 149.35 C 12.11 149.32 10.18 149.19 8.25 149.04 C 7.47 148.25 6.67 147.47 5.87 146.70 C 4.98 141.98 8.29 138.23 10.39 134.38 C 32.18 96.60 54.00 58.83 75.75 21.03 C 76.81 19.24 78.00 17.55 79.20 15.86 M 49.92 76.13 C 49.92 76.82 49.92 78.18 49.92 78.87 C 60.32 78.88 70.71 78.85 81.11 78.88 C 77.02 82.63 72.76 86.19 68.68 89.94 C 71.53 93.58 74.41 97.20 77.25 100.86 C 64.82 100.88 52.40 100.87 39.98 100.85 C 36.66 100.34 34.18 103.42 32.74 105.94 C 32.43 113.35 32.73 120.77 32.62 128.19 C 34.16 129.72 35.68 131.26 37.21 132.80 C 41.56 132.80 45.90 132.81 50.25 132.78 C 51.04 134.16 51.85 135.54 52.68 136.89 C 41.51 136.68 30.33 136.85 19.16 136.80 C 19.16 138.38 19.16 139.96 19.16 141.54 C 61.04 141.53 102.91 141.53 144.78 141.54 C 144.78 139.96 144.78 138.38 144.79 136.80 C 133.62 136.86 122.45 136.67 111.28 136.90 C 112.08 135.55 112.86 134.19 113.63 132.82 C 118.00 132.79 122.37 132.80 126.74 132.80 C 128.25 131.25 129.78 129.71 131.32 128.18 C 131.21 120.77 131.52 113.34 131.20 105.93 C 130.30 103.88 128.25 102.54 126.78 100.88 C 113.41 100.84 100.05 100.89 86.68 100.85 C 89.54 97.21 92.40 93.58 95.27 89.94 C 91.18 86.20 86.92 82.63 82.84 78.89 C 93.23 78.84 103.63 78.88 114.02 78.87 C 114.02 78.18 114.02 76.82 114.02 76.13 C 92.65 76.13 71.29 76.13 49.92 76.13 Z" />
<path fill="#febe0b" opacity="1.00" d=" M 71.44 89.94 C 74.92 86.95 78.43 84.00 81.97 81.10 C 85.51 84.00 89.03 86.94 92.49 89.93 C 88.99 92.97 85.45 95.97 81.97 99.02 C 78.50 95.95 74.95 92.97 71.44 89.94 Z" />
<path fill="#febe0b" opacity="1.00" d=" M 119.24 105.27 C 119.72 105.37 120.66 105.57 121.14 105.68 C 121.14 108.55 121.14 111.43 121.15 114.31 C 120.66 114.40 119.68 114.58 119.19 114.67 C 119.05 111.54 119.04 108.40 119.24 105.27 Z" />
<path fill="#febe0b" opacity="1.00" d=" M 37.38 114.35 C 37.09 111.46 37.10 108.53 37.40 105.64 C 38.13 105.57 39.58 105.44 40.31 105.38 C 40.32 108.46 40.32 111.54 40.31 114.62 C 39.58 114.55 38.11 114.42 37.38 114.35 Z" />
<path fill="#febe0b" opacity="1.00" d=" M 42.85 105.20 C 43.32 105.38 44.27 105.72 44.75 105.89 C 44.97 108.62 44.97 111.38 44.75 114.12 C 44.27 114.28 43.32 114.62 42.84 114.78 C 42.78 111.59 42.78 108.40 42.85 105.20 Z" />
<path fill="#febe0b" opacity="1.00" d=" M 47.34 114.49 C 47.33 111.49 47.33 108.50 47.34 105.51 C 48.11 105.52 49.65 105.54 50.42 105.55 C 50.42 108.52 50.42 111.48 50.42 114.45 C 49.65 114.46 48.11 114.48 47.34 114.49 Z" />
<path fill="#febe0b" opacity="1.00" d=" M 55.15 105.54 C 58.81 105.53 62.47 105.53 66.13 105.53 C 66.13 108.49 66.13 111.44 66.13 114.40 C 62.47 114.40 58.81 114.40 55.15 114.40 C 55.15 111.44 55.15 108.49 55.15 105.54 Z" />
<path fill="#febe0b" opacity="1.00" d=" M 68.56 105.53 C 72.59 105.53 76.62 105.53 80.65 105.52 C 80.67 108.49 80.67 111.45 80.65 114.41 C 76.62 114.40 72.59 114.40 68.56 114.40 C 68.56 111.44 68.56 108.49 68.56 105.53 Z" />
<path fill="#febe0b" opacity="1.00" d=" M 83.25 114.37 C 83.27 111.42 83.28 108.47 83.30 105.52 C 87.32 105.53 91.35 105.53 95.38 105.53 C 95.38 108.49 95.38 111.44 95.38 114.40 C 91.34 114.41 87.29 114.41 83.25 114.37 Z" />
<path fill="#febe0b" opacity="1.00" d=" M 97.81 105.54 C 101.48 105.52 105.15 105.51 108.82 105.58 C 108.79 108.52 108.78 111.46 108.79 114.39 C 105.13 114.40 101.47 114.40 97.81 114.40 C 97.81 111.44 97.81 108.49 97.81 105.54 Z" />
<path fill="#febe0b" opacity="1.00" d=" M 113.52 105.55 C 114.29 105.54 115.83 105.52 116.60 105.52 C 116.61 108.50 116.61 111.49 116.60 114.48 C 115.83 114.47 114.29 114.46 113.52 114.46 C 113.52 111.49 113.52 108.52 113.52 105.55 Z" />
<path fill="#febe0b" opacity="1.00" d=" M 123.62 105.55 C 124.39 105.54 125.93 105.52 126.70 105.50 C 126.71 108.51 126.71 111.51 126.68 114.51 C 125.92 114.49 124.38 114.46 123.62 114.44 C 123.62 111.47 123.62 108.51 123.62 105.55 Z" />
<path fill="#febe0b" opacity="1.00" d=" M 57.70 136.89 C 58.50 135.55 59.26 134.19 60.02 132.82 C 61.31 132.82 62.60 132.82 63.89 132.82 C 64.63 134.19 65.39 135.55 66.18 136.89 C 63.35 136.77 60.52 136.77 57.70 136.89 Z" />
<path fill="#febe0b" opacity="1.00" d=" M 73.59 132.82 C 79.17 132.79 84.76 132.78 90.34 132.82 C 91.10 134.19 91.88 135.56 92.70 136.90 C 85.55 136.74 78.40 136.73 71.26 136.90 C 72.06 135.55 72.84 134.19 73.59 132.82 Z" />
<path fill="#febe0b" opacity="1.00" d=" M 97.73 136.90 C 98.53 135.55 99.31 134.19 100.06 132.82 C 101.34 132.82 102.63 132.82 103.92 132.82 C 104.66 134.19 105.42 135.55 106.22 136.90 C 103.39 136.77 100.56 136.77 97.73 136.90 Z" />
<path fill="#000000" opacity="1.00" d=" M 49.92 76.13 C 71.29 76.13 92.65 76.13 114.02 76.13 C 114.02 76.82 114.02 78.18 114.02 78.87 C 103.63 78.88 93.23 78.84 82.84 78.89 C 86.92 82.63 91.18 86.20 95.27 89.94 C 92.40 93.58 89.54 97.21 86.68 100.85 C 100.05 100.89 113.41 100.84 126.78 100.88 C 128.25 102.54 130.30 103.88 131.20 105.93 C 131.52 113.34 131.21 120.77 131.32 128.18 C 129.78 129.71 128.25 131.25 126.74 132.80 C 122.37 132.80 118.00 132.79 113.63 132.82 C 112.86 134.19 112.08 135.55 111.28 136.90 C 122.45 136.67 133.62 136.86 144.79 136.80 C 144.78 138.38 144.78 139.96 144.78 141.54 C 102.91 141.53 61.04 141.53 19.16 141.54 C 19.16 139.96 19.16 138.38 19.16 136.80 C 30.33 136.85 41.51 136.68 52.68 136.89 C 51.85 135.54 51.04 134.16 50.25 132.78 C 45.90 132.81 41.56 132.80 37.21 132.80 C 35.68 131.26 34.16 129.72 32.62 128.19 C 32.73 120.77 32.43 113.35 32.74 105.94 C 34.18 103.42 36.66 100.34 39.98 100.85 C 52.40 100.87 64.82 100.88 77.25 100.86 C 74.41 97.20 71.53 93.58 68.68 89.94 C 72.76 86.19 77.02 82.63 81.11 78.88 C 70.71 78.85 60.32 78.88 49.92 78.87 C 49.92 78.18 49.92 76.82 49.92 76.13 M 71.44 89.94 C 74.95 92.97 78.50 95.95 81.97 99.02 C 85.45 95.97 88.99 92.97 92.49 89.93 C 89.03 86.94 85.51 84.00 81.97 81.10 C 78.43 84.00 74.92 86.95 71.44 89.94 M 119.24 105.27 C 119.04 108.40 119.05 111.54 119.19 114.67 C 119.68 114.58 120.66 114.40 121.15 114.31 C 121.14 111.43 121.14 108.55 121.14 105.68 C 120.66 105.57 119.72 105.37 119.24 105.27 M 37.38 114.35 C 38.11 114.42 39.58 114.55 40.31 114.62 C 40.32 111.54 40.32 108.46 40.31 105.38 C 39.58 105.44 38.13 105.57 37.40 105.64 C 37.10 108.53 37.09 111.46 37.38 114.35 M 42.85 105.20 C 42.78 108.40 42.78 111.59 42.84 114.78 C 43.32 114.62 44.27 114.28 44.75 114.12 C 44.97 111.38 44.97 108.62 44.75 105.89 C 44.27 105.72 43.32 105.38 42.85 105.20 M 47.34 114.49 C 48.11 114.48 49.65 114.46 50.42 114.45 C 50.42 111.48 50.42 108.52 50.42 105.55 C 49.65 105.54 48.11 105.52 47.34 105.51 C 47.33 108.50 47.33 111.49 47.34 114.49 M 55.15 105.54 C 55.15 108.49 55.15 111.44 55.15 114.40 C 58.81 114.40 62.47 114.40 66.13 114.40 C 66.13 111.44 66.13 108.49 66.13 105.53 C 62.47 105.53 58.81 105.53 55.15 105.54 M 68.56 105.53 C 68.56 108.49 68.56 111.44 68.56 114.40 C 72.59 114.40 76.62 114.40 80.65 114.41 C 80.67 111.45 80.67 108.49 80.65 105.52 C 76.62 105.53 72.59 105.53 68.56 105.53 M 83.25 114.37 C 87.29 114.41 91.34 114.41 95.38 114.40 C 95.38 111.44 95.38 108.49 95.38 105.53 C 91.35 105.53 87.32 105.53 83.30 105.52 C 83.28 108.47 83.27 111.42 83.25 114.37 M 97.81 105.54 C 97.81 108.49 97.81 111.44 97.81 114.40 C 101.47 114.40 105.13 114.40 108.79 114.39 C 108.78 111.46 108.79 108.52 108.82 105.58 C 105.15 105.51 101.48 105.52 97.81 105.54 M 113.52 105.55 C 113.52 108.52 113.52 111.49 113.52 114.46 C 114.29 114.46 115.83 114.47 116.60 114.48 C 116.61 111.49 116.61 108.50 116.60 105.52 C 115.83 105.52 114.29 105.54 113.52 105.55 M 123.62 105.55 C 123.62 108.51 123.62 111.47 123.62 114.44 C 124.38 114.46 125.92 114.49 126.68 114.51 C 126.71 111.51 126.71 108.51 126.70 105.50 C 125.93 105.52 124.39 105.54 123.62 105.55 M 57.70 136.89 C 60.52 136.77 63.35 136.77 66.18 136.89 C 65.39 135.55 64.63 134.19 63.89 132.82 C 62.60 132.82 61.31 132.82 60.02 132.82 C 59.26 134.19 58.50 135.55 57.70 136.89 M 73.59 132.82 C 72.84 134.19 72.06 135.55 71.26 136.90 C 78.40 136.73 85.55 136.74 92.70 136.90 C 91.88 135.56 91.10 134.19 90.34 132.82 C 84.76 132.78 79.17 132.79 73.59 132.82 M 97.73 136.90 C 100.56 136.77 103.39 136.77 106.22 136.90 C 105.42 135.55 104.66 134.19 103.92 132.82 C 102.63 132.82 101.34 132.82 100.06 132.82 C 99.31 134.19 98.53 135.55 97.73 136.90 Z" />
</g>
</svg>
