<?xml version="1.0" encoding="UTF-8" ?>
<!DOCTYPE svg PUBLIC "-//W3C//DTD SVG 1.1//EN" "http://www.w3.org/Graphics/SVG/1.1/DTD/svg11.dtd">
<svg width="167pt" height="167pt" viewBox="0 0 167 167" version="1.1" xmlns="http://www.w3.org/2000/svg">
<g id="disabled">
<path fill="#606060" opacity="1.00" d=" M 78.45 10.68 C 83.51 8.65 89.38 11.53 91.73 16.24 C 115.15 56.83 138.56 97.43 161.98 138.02 C 163.94 141.23 164.57 145.35 162.84 148.79 C 161.05 152.94 156.44 155.23 152.04 155.01 C 105.00 154.97 57.95 155.05 10.90 154.97 C 5.46 155.09 0.84 150.76 0.00 145.49 L 0.00 143.24 C 1.02 138.75 3.79 135.00 5.99 131.04 C 27.33 94.05 48.67 57.06 69.98 20.06 C 72.08 16.42 74.09 12.02 78.45 10.68 M 79.21 15.94 C 76.72 19.05 74.86 22.59 72.89 26.04 C 51.93 62.37 30.98 98.71 10.01 135.04 C 8.02 138.68 4.86 142.26 5.93 146.73 C 6.70 147.50 7.49 148.27 8.27 149.03 C 13.18 149.55 18.11 149.31 23.03 149.34 C 65.37 149.36 107.71 149.33 150.05 149.36 C 151.93 149.33 153.80 149.19 155.68 149.03 C 156.47 148.25 157.26 147.46 158.05 146.67 C 158.22 144.44 158.25 142.08 156.90 140.17 C 133.41 99.63 110.13 58.96 86.62 18.43 C 85.34 15.41 81.93 15.65 79.21 15.94 Z" />
<path fill="#606060" opacity="1.00" d=" M 78.49 42.60 C 85.46 40.54 93.37 45.76 94.23 52.97 C 95.42 59.54 90.52 66.40 83.92 67.40 C 77.24 68.80 70.16 63.81 69.17 57.07 C 67.93 50.77 72.25 44.09 78.49 42.60 Z" />
<path fill="#c6c6c6" opacity="1.00" d=" M 79.21 15.94 C 81.93 15.65 85.34 15.41 86.62 18.43 C 110.13 58.96 133.41 99.63 156.90 140.17 C 158.25 142.08 158.22 144.44 158.05 146.67 C 157.26 147.46 156.47 148.25 155.68 149.03 C 153.80 149.19 151.93 149.33 150.05 149.36 C 107.71 149.33 65.37 149.36 23.03 149.34 C 18.11 149.31 13.18 149.55 8.27 149.03 C 7.49 148.27 6.70 147.50 5.93 146.73 C 4.86 142.26 8.02 138.68 10.01 135.04 C 30.98 98.71 51.93 62.37 72.89 26.04 C 74.86 22.59 76.72 19.05 79.21 15.94 M 76.38 40.52 C 69.09 43.08 64.70 51.64 66.97 59.05 C 69.00 67.01 78.15 72.14 86.01 69.58 C 94.09 67.41 99.10 57.91 96.18 50.03 C 93.75 42.04 84.15 37.41 76.38 40.52 M 78.10 76.26 C 71.43 77.75 66.30 84.18 66.41 91.04 C 66.12 99.32 73.65 106.82 81.95 106.41 C 90.86 106.58 98.39 97.67 96.83 88.92 C 95.83 80.27 86.51 73.99 78.10 76.26 M 77.47 112.63 C 70.19 114.57 65.19 122.47 66.62 129.89 C 67.71 137.54 75.30 143.50 83.01 142.63 C 91.63 142.15 98.45 133.28 96.77 124.82 C 95.54 116.11 85.90 109.92 77.47 112.63 Z" />
<path fill="#606060" opacity="1.00" d=" M 77.22 79.23 C 84.00 76.44 92.39 80.88 93.99 87.99 C 96.08 95.16 90.49 103.16 83.08 103.78 C 76.54 104.66 69.99 99.59 69.14 93.06 C 68.14 87.29 71.73 81.21 77.22 79.23 Z" />
<path fill="#080400" opacity="1.00" d=" M 76.38 40.52 C 84.15 37.41 93.75 42.04 96.18 50.03 C 99.10 57.91 94.09 67.41 86.01 69.58 C 78.15 72.14 69.00 67.01 66.97 59.05 C 64.70 51.64 69.09 43.08 76.38 40.52 M 78.49 42.60 C 72.25 44.09 67.93 50.77 69.17 57.07 C 70.16 63.81 77.24 68.80 83.92 67.40 C 90.52 66.40 95.42 59.54 94.23 52.97 C 93.37 45.76 85.46 40.54 78.49 42.60 Z" />
<path fill="#080400" opacity="1.00" d=" M 78.10 76.26 C 86.51 73.99 95.83 80.27 96.83 88.92 C 98.39 97.67 90.86 106.58 81.95 106.41 C 73.65 106.82 66.12 99.32 66.41 91.04 C 66.30 84.18 71.43 77.75 78.10 76.26 M 77.22 79.23 C 71.73 81.21 68.14 87.29 69.14 93.06 C 69.99 99.59 76.54 104.66 83.08 103.78 C 90.49 103.16 96.08 95.16 93.99 87.99 C 92.39 80.88 84.00 76.44 77.22 79.23 Z" />
<path fill="#080400" opacity="1.00" d=" M 77.47 112.63 C 85.90 109.92 95.54 116.11 96.77 124.82 C 98.45 133.28 91.63 142.15 83.01 142.63 C 75.30 143.50 67.71 137.54 66.62 129.89 C 65.19 122.47 70.19 114.57 77.47 112.63 M 77.31 115.43 C 70.79 117.64 67.17 125.63 69.86 131.98 C 72.20 138.59 80.59 142.04 86.90 138.95 C 93.03 136.40 96.07 128.67 93.48 122.59 C 91.12 116.38 83.49 112.99 77.31 115.43 Z" />
<path fill="#606060" opacity="1.00" d=" M 77.31 115.43 C 83.49 112.99 91.12 116.38 93.48 122.59 C 96.07 128.67 93.03 136.40 86.90 138.95 C 80.59 142.04 72.20 138.59 69.86 131.98 C 67.17 125.63 70.79 117.64 77.31 115.43 Z" />
</g>
<g id="normal">
<path fill="#d40000" opacity="1.00" d=" M 78.45 10.68 C 83.51 8.65 89.38 11.53 91.73 16.24 C 115.15 56.83 138.56 97.43 161.98 138.02 C 163.94 141.23 164.57 145.35 162.84 148.79 C 161.05 152.94 156.44 155.23 152.04 155.01 C 105.00 154.97 57.95 155.05 10.90 154.97 C 5.46 155.09 0.84 150.76 0.00 145.49 L 0.00 143.24 C 1.02 138.75 3.79 135.00 5.99 131.04 C 27.33 94.05 48.67 57.06 69.98 20.06 C 72.08 16.42 74.09 12.02 78.45 10.68 M 79.21 15.94 C 76.72 19.05 74.86 22.59 72.89 26.04 C 51.93 62.37 30.98 98.71 10.01 135.04 C 8.02 138.68 4.86 142.26 5.93 146.73 C 6.70 147.50 7.49 148.27 8.27 149.03 C 13.18 149.55 18.11 149.31 23.03 149.34 C 65.37 149.36 107.71 149.33 150.05 149.36 C 151.93 149.33 153.80 149.19 155.68 149.03 C 156.47 148.25 157.26 147.46 158.05 146.67 C 158.22 144.44 158.25 142.08 156.90 140.17 C 133.41 99.63 110.13 58.96 86.62 18.43 C 85.34 15.41 81.93 15.65 79.21 15.94 Z" />
<path fill="#d40000" opacity="1.00" d=" M 78.49 42.60 C 85.46 40.54 93.37 45.76 94.23 52.97 C 95.42 59.54 90.52 66.40 83.92 67.40 C 77.24 68.80 70.16 63.81 69.17 57.07 C 67.93 50.77 72.25 44.09 78.49 42.60 Z" />
<path fill="#febe0b" opacity="1.00" d=" M 79.21 15.94 C 81.93 15.65 85.34 15.41 86.62 18.43 C 110.13 58.96 133.41 99.63 156.90 140.17 C 158.25 142.08 158.22 144.44 158.05 146.67 C 157.26 147.46 156.47 148.25 155.68 149.03 C 153.80 149.19 151.93 149.33 150.05 149.36 C 107.71 149.33 65.37 149.36 23.03 149.34 C 18.11 149.31 13.18 149.55 8.27 149.03 C 7.49 148.27 6.70 147.50 5.93 146.73 C 4.86 142.26 8.02 138.68 10.01 135.04 C 30.98 98.71 51.93 62.37 72.89 26.04 C 74.86 22.59 76.72 19.05 79.21 15.94 M 76.38 40.52 C 69.09 43.08 64.70 51.64 66.97 59.05 C 69.00 67.01 78.15 72.14 86.01 69.58 C 94.09 67.41 99.10 57.91 96.18 50.03 C 93.75 42.04 84.15 37.41 76.38 40.52 M 78.10 76.26 C 71.43 77.75 66.30 84.18 66.41 91.04 C 66.12 99.32 73.65 106.82 81.95 106.41 C 90.86 106.58 98.39 97.67 96.83 88.92 C 95.83 80.27 86.51 73.99 78.10 76.26 M 77.47 112.63 C 70.19 114.57 65.19 122.47 66.62 129.89 C 67.71 137.54 75.30 143.50 83.01 142.63 C 91.63 142.15 98.45 133.28 96.77 124.82 C 95.54 116.11 85.90 109.92 77.47 112.63 Z" />
<path fill="#febe0b" opacity="1.00" d=" M 77.22 79.23 C 84.00 76.44 92.39 80.88 93.99 87.99 C 96.08 95.16 90.49 103.16 83.08 103.78 C 76.54 104.66 69.99 99.59 69.14 93.06 C 68.14 87.29 71.73 81.21 77.22 79.23 Z" />
<path fill="#080400" opacity="1.00" d=" M 76.38 40.52 C 84.15 37.41 93.75 42.04 96.18 50.03 C 99.10 57.91 94.09 67.41 86.01 69.58 C 78.15 72.14 69.00 67.01 66.97 59.05 C 64.70 51.64 69.09 43.08 76.38 40.52 M 78.49 42.60 C 72.25 44.09 67.93 50.77 69.17 57.07 C 70.16 63.81 77.24 68.80 83.92 67.40 C 90.52 66.40 95.42 59.54 94.23 52.97 C 93.37 45.76 85.46 40.54 78.49 42.60 Z" />
<path fill="#080400" opacity="1.00" d=" M 78.10 76.26 C 86.51 73.99 95.83 80.27 96.83 88.92 C 98.39 97.67 90.86 106.58 81.95 106.41 C 73.65 106.82 66.12 99.32 66.41 91.04 C 66.30 84.18 71.43 77.75 78.10 76.26 M 77.22 79.23 C 71.73 81.21 68.14 87.29 69.14 93.06 C 69.99 99.59 76.54 104.66 83.08 103.78 C 90.49 103.16 96.08 95.16 93.99 87.99 C 92.39 80.88 84.00 76.44 77.22 79.23 Z" />
<path fill="#080400" opacity="1.00" d=" M 77.47 112.63 C 85.90 109.92 95.54 116.11 96.77 124.82 C 98.45 133.28 91.63 142.15 83.01 142.63 C 75.30 143.50 67.71 137.54 66.62 129.89 C 65.19 122.47 70.19 114.57 77.47 112.63 M 77.31 115.43 C 70.79 117.64 67.17 125.63 69.86 131.98 C 72.20 138.59 80.59 142.04 86.90 138.95 C 93.03 136.40 96.07 128.67 93.48 122.59 C 91.12 116.38 83.49 112.99 77.31 115.43 Z" />
<path fill="#009200" opacity="1.00" d=" M 77.31 115.43 C 83.49 112.99 91.12 116.38 93.48 122.59 C 96.07 128.67 93.03 136.40 86.90 138.95 C 80.59 142.04 72.20 138.59 69.86 131.98 C 67.17 125.63 70.79 117.64 77.31 115.43 Z" />
</g>
</svg>
