<?xml version="1.0" encoding="UTF-8" ?>
<!DOCTYPE svg PUBLIC "-//W3C//DTD SVG 1.1//EN" "http://www.w3.org/Graphics/SVG/1.1/DTD/svg11.dtd">
<svg width="167pt" height="167pt" viewBox="0 0 167 167" version="1.1" xmlns="http://www.w3.org/2000/svg">
<g id="disabled">
<path fill="#909090" opacity="1.00" d=" M 72.26 16.25 C 74.45 11.88 79.69 8.98 84.54 10.38 C 87.68 11.08 90.22 13.34 91.73 16.12 C 115.17 56.72 138.55 97.34 161.99 137.94 C 163.72 140.81 164.65 144.39 163.37 147.63 C 162.04 152.02 157.60 154.99 153.08 154.99 C 107.70 155.02 62.32 154.98 16.95 155.01 C 12.91 154.96 8.47 155.58 4.93 153.16 C 2.02 151.48 0.72 148.18 0.01 145.05 L 0.00 147.34 L 0.00 143.72 C 0.47 141.75 1.00 139.78 2.01 138.02 C 25.44 97.44 48.84 56.84 72.26 16.25 M 79.42 16.13 C 77.40 17.70 76.40 20.14 75.11 22.26 C 52.34 61.76 29.58 101.27 6.78 140.76 C 5.55 142.49 5.83 144.67 5.99 146.66 C 6.77 147.43 7.54 148.21 8.30 149.00 C 12.17 149.54 16.08 149.32 19.97 149.34 C 63.64 149.36 107.30 149.33 150.96 149.36 C 152.56 149.35 154.16 149.18 155.75 149.00 C 156.49 148.24 157.24 147.50 158.00 146.76 C 158.34 144.71 158.50 142.46 157.23 140.66 C 134.91 101.99 112.62 63.31 90.30 24.64 C 88.55 21.69 87.10 18.51 84.71 15.99 C 82.95 15.88 81.13 15.52 79.42 16.13 Z" />
<path fill="#c6c6c6" opacity="1.00" d=" M 79.42 16.13 C 81.13 15.52 82.95 15.88 84.71 15.99 C 87.10 18.51 88.55 21.69 90.30 24.64 C 112.62 63.31 134.91 101.99 157.23 140.66 C 158.50 142.46 158.34 144.71 158.00 146.76 C 157.24 147.50 156.49 148.24 155.75 149.00 C 154.16 149.18 152.56 149.35 150.96 149.36 C 107.30 149.33 63.64 149.36 19.97 149.34 C 16.08 149.32 12.17 149.54 8.30 149.00 C 7.54 148.21 6.77 147.43 5.99 146.66 C 5.83 144.67 5.55 142.49 6.78 140.76 C 29.58 101.27 52.34 61.76 75.11 22.26 C 76.40 20.14 77.40 17.70 79.42 16.13 M 63.96 53.54 C 63.94 64.65 63.96 75.75 63.95 86.86 C 59.72 91.05 55.44 95.18 51.22 99.38 C 51.17 113.38 51.21 127.39 51.19 141.39 C 55.44 141.41 59.70 141.40 63.95 141.40 C 63.97 129.01 63.93 116.62 63.97 104.24 C 68.58 100.09 73.20 95.93 77.79 91.75 C 77.76 79.02 77.78 66.28 77.78 53.54 C 73.17 53.52 68.56 53.53 63.96 53.54 M 86.32 141.46 C 90.91 141.45 95.51 141.47 100.10 141.45 C 100.11 112.16 100.11 82.87 100.10 53.57 C 95.54 53.54 90.98 53.62 86.42 53.51 C 86.16 82.82 86.36 112.14 86.32 141.46 Z" />
<path fill="#000000" opacity="1.00" d=" M 63.96 53.54 C 68.56 53.53 73.17 53.52 77.78 53.54 C 77.78 66.28 77.76 79.02 77.79 91.75 C 73.20 95.93 68.58 100.09 63.97 104.24 C 63.93 116.62 63.97 129.01 63.95 141.40 C 59.70 141.40 55.44 141.41 51.19 141.39 C 51.21 127.39 51.17 113.38 51.22 99.38 C 55.44 95.18 59.72 91.05 63.95 86.86 C 63.96 75.75 63.94 64.65 63.96 53.54 Z" />
<path fill="#000000" opacity="1.00" d=" M 86.32 141.46 C 86.36 112.14 86.16 82.82 86.42 53.51 C 90.98 53.62 95.54 53.54 100.10 53.57 C 100.11 82.87 100.11 112.16 100.10 141.45 C 95.51 141.47 90.91 141.45 86.32 141.46 Z" />
</g>
<g id="normal">
<path fill="#d40000" opacity="1.00" d=" M 72.26 16.25 C 74.45 11.88 79.69 8.98 84.54 10.38 C 87.68 11.08 90.22 13.34 91.73 16.12 C 115.17 56.72 138.55 97.34 161.99 137.94 C 163.72 140.81 164.65 144.39 163.37 147.63 C 162.04 152.02 157.60 154.99 153.08 154.99 C 107.70 155.02 62.32 154.98 16.95 155.01 C 12.91 154.96 8.47 155.58 4.93 153.16 C 2.02 151.48 0.72 148.18 0.01 145.05 L 0.00 147.34 L 0.00 143.72 C 0.47 141.75 1.00 139.78 2.01 138.02 C 25.44 97.44 48.84 56.84 72.26 16.25 M 79.42 16.13 C 77.40 17.70 76.40 20.14 75.11 22.26 C 52.34 61.76 29.58 101.27 6.78 140.76 C 5.55 142.49 5.83 144.67 5.99 146.66 C 6.77 147.43 7.54 148.21 8.30 149.00 C 12.17 149.54 16.08 149.32 19.97 149.34 C 63.64 149.36 107.30 149.33 150.96 149.36 C 152.56 149.35 154.16 149.18 155.75 149.00 C 156.49 148.24 157.24 147.50 158.00 146.76 C 158.34 144.71 158.50 142.46 157.23 140.66 C 134.91 101.99 112.62 63.31 90.30 24.64 C 88.55 21.69 87.10 18.51 84.71 15.99 C 82.95 15.88 81.13 15.52 79.42 16.13 Z" />
<path fill="#febe0b" opacity="1.00" d=" M 79.42 16.13 C 81.13 15.52 82.95 15.88 84.71 15.99 C 87.10 18.51 88.55 21.69 90.30 24.64 C 112.62 63.31 134.91 101.99 157.23 140.66 C 158.50 142.46 158.34 144.71 158.00 146.76 C 157.24 147.50 156.49 148.24 155.75 149.00 C 154.16 149.18 152.56 149.35 150.96 149.36 C 107.30 149.33 63.64 149.36 19.97 149.34 C 16.08 149.32 12.17 149.54 8.30 149.00 C 7.54 148.21 6.77 147.43 5.99 146.66 C 5.83 144.67 5.55 142.49 6.78 140.76 C 29.58 101.27 52.34 61.76 75.11 22.26 C 76.40 20.14 77.40 17.70 79.42 16.13 M 63.96 53.54 C 63.94 64.65 63.96 75.75 63.95 86.86 C 59.72 91.05 55.44 95.18 51.22 99.38 C 51.17 113.38 51.21 127.39 51.19 141.39 C 55.44 141.41 59.70 141.40 63.95 141.40 C 63.97 129.01 63.93 116.62 63.97 104.24 C 68.58 100.09 73.20 95.93 77.79 91.75 C 77.76 79.02 77.78 66.28 77.78 53.54 C 73.17 53.52 68.56 53.53 63.96 53.54 M 86.32 141.46 C 90.91 141.45 95.51 141.47 100.10 141.45 C 100.11 112.16 100.11 82.87 100.10 53.57 C 95.54 53.54 90.98 53.62 86.42 53.51 C 86.16 82.82 86.36 112.14 86.32 141.46 Z" />
<path fill="#000000" opacity="1.00" d=" M 63.96 53.54 C 68.56 53.53 73.17 53.52 77.78 53.54 C 77.78 66.28 77.76 79.02 77.79 91.75 C 73.20 95.93 68.58 100.09 63.97 104.24 C 63.93 116.62 63.97 129.01 63.95 141.40 C 59.70 141.40 55.44 141.41 51.19 141.39 C 51.21 127.39 51.17 113.38 51.22 99.38 C 55.44 95.18 59.72 91.05 63.95 86.86 C 63.96 75.75 63.94 64.65 63.96 53.54 Z" />
<path fill="#000000" opacity="1.00" d=" M 86.32 141.46 C 86.36 112.14 86.16 82.82 86.42 53.51 C 90.98 53.62 95.54 53.54 100.10 53.57 C 100.11 82.87 100.11 112.16 100.10 141.45 C 95.51 141.47 90.91 141.45 86.32 141.46 Z" />
</g>
</svg>
