<?xml version="1.0" encoding="UTF-8" ?>
<!DOCTYPE svg PUBLIC "-//W3C//DTD SVG 1.1//EN" "http://www.w3.org/Graphics/SVG/1.1/DTD/svg11.dtd">
<svg width="136pt" height="136pt" viewBox="0 0 136 136" version="1.1" xmlns="http://www.w3.org/2000/svg">
<g id="disabled">
<path fill="#909090" opacity="1.00" d=" M 22.36 0.00 L 109.72 0.00 C 115.18 0.42 119.48 5.52 119.00 10.98 C 118.97 48.32 119.06 85.66 118.96 123.00 C 119.07 128.32 114.35 133.09 109.01 132.96 C 80.67 133.03 52.32 133.03 23.99 132.96 C 18.62 133.09 13.92 128.27 14.04 122.93 C 13.94 85.61 14.02 48.28 14.00 10.96 C 13.57 5.78 17.37 1.11 22.36 0.00 M 20.35 2.37 C 16.97 3.75 15.35 7.52 15.60 11.01 C 15.63 48.33 15.55 85.65 15.64 122.97 C 15.39 127.55 19.42 131.64 24.02 131.33 C 52.03 131.39 80.04 131.33 108.05 131.36 C 111.00 131.49 114.24 130.55 115.91 127.94 C 117.56 125.64 117.40 122.69 117.43 120.01 C 117.35 83.34 117.47 46.67 117.37 10.00 C 117.65 5.38 113.49 1.33 108.90 1.60 C 81.27 1.50 53.63 1.61 26.00 1.55 C 24.10 1.62 22.10 1.50 20.35 2.37 Z" />
<path fill="#909090" opacity="1.00" d=" M 21.37 5.25 C 22.78 4.48 24.46 4.72 26.00 4.64 C 53.68 4.72 81.37 4.60 109.05 4.69 C 111.87 4.56 114.34 7.15 114.23 9.94 C 114.26 47.62 114.26 85.30 114.24 122.98 C 114.37 125.78 111.86 128.45 109.01 128.29 C 80.66 128.31 52.30 128.30 23.95 128.29 C 21.06 128.52 18.39 125.94 18.57 123.04 C 18.52 85.68 18.58 48.30 18.54 10.93 C 18.35 8.72 19.17 6.17 21.37 5.25 M 74.66 26.16 C 77.19 25.99 79.73 26.19 82.27 26.06 C 82.06 30.94 82.92 36.10 80.86 40.70 C 78.79 45.39 74.62 48.56 71.19 52.20 C 60.98 62.64 50.36 72.69 40.52 83.50 C 35.85 88.43 33.97 95.37 34.00 102.04 C 34.01 109.66 33.98 117.28 34.02 124.90 C 36.97 124.88 39.92 124.86 42.87 124.83 C 42.85 116.56 42.69 108.27 42.94 100.00 C 43.03 94.76 45.52 89.83 49.20 86.18 C 59.99 75.36 70.70 64.43 81.58 53.70 C 81.53 77.44 81.56 101.18 81.56 124.92 C 84.40 124.87 87.24 124.86 90.08 124.84 C 89.92 91.91 89.90 58.97 90.07 26.03 C 92.34 26.11 94.62 26.09 96.90 26.18 C 93.62 20.26 90.18 14.43 86.76 8.59 C 82.74 14.45 78.60 20.24 74.66 26.16 M 61.30 92.78 C 61.38 96.34 61.38 99.91 61.27 103.47 C 61.97 103.49 63.37 103.53 64.08 103.55 C 64.04 99.96 64.04 96.37 64.08 92.77 C 63.38 92.78 62.00 92.78 61.30 92.78 M 61.31 114.08 C 61.41 117.57 61.23 121.07 61.42 124.56 C 62.04 124.65 63.28 124.82 63.90 124.91 C 64.11 121.21 64.08 117.51 64.03 113.82 C 63.35 113.88 61.99 114.01 61.31 114.08 Z" />
<path fill="#000000" opacity="1.00" d=" M 20.35 2.37 C 22.10 1.50 24.10 1.62 26.00 1.55 C 53.63 1.61 81.27 1.50 108.90 1.60 C 113.49 1.33 117.65 5.38 117.37 10.00 C 117.47 46.67 117.35 83.34 117.43 120.01 C 117.40 122.69 117.56 125.64 115.91 127.94 C 114.24 130.55 111.00 131.49 108.05 131.36 C 80.04 131.33 52.03 131.39 24.02 131.33 C 19.42 131.64 15.39 127.55 15.64 122.97 C 15.55 85.65 15.63 48.33 15.60 11.01 C 15.35 7.52 16.97 3.75 20.35 2.37 M 21.37 5.25 C 19.17 6.17 18.35 8.72 18.54 10.93 C 18.58 48.30 18.52 85.68 18.57 123.04 C 18.39 125.94 21.06 128.52 23.95 128.29 C 52.30 128.30 80.66 128.31 109.01 128.29 C 111.86 128.45 114.37 125.78 114.24 122.98 C 114.26 85.30 114.26 47.62 114.23 9.94 C 114.34 7.15 111.87 4.56 109.05 4.69 C 81.37 4.60 53.68 4.72 26.00 4.64 C 24.46 4.72 22.78 4.48 21.37 5.25 Z" />
<path fill="#000000" opacity="1.00" d=" M 74.66 26.16 C 78.60 20.24 82.74 14.45 86.76 8.59 C 90.18 14.43 93.62 20.26 96.90 26.18 C 94.62 26.09 92.34 26.11 90.07 26.03 C 89.90 58.97 89.92 91.91 90.08 124.84 C 87.24 124.86 84.40 124.87 81.56 124.92 C 81.56 101.18 81.53 77.44 81.58 53.70 C 70.70 64.43 59.99 75.36 49.20 86.18 C 45.52 89.83 43.03 94.76 42.94 100.00 C 42.69 108.27 42.85 116.56 42.87 124.83 C 39.92 124.86 36.97 124.88 34.02 124.90 C 33.98 117.28 34.01 109.66 34.00 102.04 C 33.97 95.37 35.85 88.43 40.52 83.50 C 50.36 72.69 60.98 62.64 71.19 52.20 C 74.62 48.56 78.79 45.39 80.86 40.70 C 82.92 36.10 82.06 30.94 82.27 26.06 C 79.73 26.19 77.19 25.99 74.66 26.16 Z" />
<path fill="#000000" opacity="1.00" d=" M 61.30 92.78 C 62.00 92.78 63.38 92.78 64.08 92.77 C 64.04 96.37 64.04 99.96 64.08 103.55 C 63.37 103.53 61.97 103.49 61.27 103.47 C 61.38 99.91 61.38 96.34 61.30 92.78 Z" />
<path fill="#000000" opacity="1.00" d=" M 61.31 114.08 C 61.99 114.01 63.35 113.88 64.03 113.82 C 64.08 117.51 64.11 121.21 63.90 124.91 C 63.28 124.82 62.04 124.65 61.42 124.56 C 61.23 121.07 61.41 117.57 61.31 114.08 Z" />
</g>
<g id="normal">
<path fill="#003399" opacity="1.00" d=" M 22.36 0.00 L 109.72 0.00 C 115.18 0.42 119.48 5.52 119.00 10.98 C 118.97 48.32 119.06 85.66 118.96 123.00 C 119.07 128.32 114.35 133.09 109.01 132.96 C 80.67 133.03 52.32 133.03 23.99 132.96 C 18.62 133.09 13.92 128.27 14.04 122.93 C 13.94 85.61 14.02 48.28 14.00 10.96 C 13.57 5.78 17.37 1.11 22.36 0.00 M 20.35 2.37 C 16.97 3.75 15.35 7.52 15.60 11.01 C 15.63 48.33 15.55 85.65 15.64 122.97 C 15.39 127.55 19.42 131.64 24.02 131.33 C 52.03 131.39 80.04 131.33 108.05 131.36 C 111.00 131.49 114.24 130.55 115.91 127.94 C 117.56 125.64 117.40 122.69 117.43 120.01 C 117.35 83.34 117.47 46.67 117.37 10.00 C 117.65 5.38 113.49 1.33 108.90 1.60 C 81.27 1.50 53.63 1.61 26.00 1.55 C 24.10 1.62 22.10 1.50 20.35 2.37 Z" />
<path fill="#003399" opacity="1.00" d=" M 21.37 5.25 C 22.78 4.48 24.46 4.72 26.00 4.64 C 53.68 4.72 81.37 4.60 109.05 4.69 C 111.87 4.56 114.34 7.15 114.23 9.94 C 114.26 47.62 114.26 85.30 114.24 122.98 C 114.37 125.78 111.86 128.45 109.01 128.29 C 80.66 128.31 52.30 128.30 23.95 128.29 C 21.06 128.52 18.39 125.94 18.57 123.04 C 18.52 85.68 18.58 48.30 18.54 10.93 C 18.35 8.72 19.17 6.17 21.37 5.25 M 74.66 26.16 C 77.19 25.99 79.73 26.19 82.27 26.06 C 82.06 30.94 82.92 36.10 80.86 40.70 C 78.79 45.39 74.62 48.56 71.19 52.20 C 60.98 62.64 50.36 72.69 40.52 83.50 C 35.85 88.43 33.97 95.37 34.00 102.04 C 34.01 109.66 33.98 117.28 34.02 124.90 C 36.97 124.88 39.92 124.86 42.87 124.83 C 42.85 116.56 42.69 108.27 42.94 100.00 C 43.03 94.76 45.52 89.83 49.20 86.18 C 59.99 75.36 70.70 64.43 81.58 53.70 C 81.53 77.44 81.56 101.18 81.56 124.92 C 84.40 124.87 87.24 124.86 90.08 124.84 C 89.92 91.91 89.90 58.97 90.07 26.03 C 92.34 26.11 94.62 26.09 96.90 26.18 C 93.62 20.26 90.18 14.43 86.76 8.59 C 82.74 14.45 78.60 20.24 74.66 26.16 M 61.30 92.78 C 61.38 96.34 61.38 99.91 61.27 103.47 C 61.97 103.49 63.37 103.53 64.08 103.55 C 64.04 99.96 64.04 96.37 64.08 92.77 C 63.38 92.78 62.00 92.78 61.30 92.78 M 61.31 114.08 C 61.41 117.57 61.23 121.07 61.42 124.56 C 62.04 124.65 63.28 124.82 63.90 124.91 C 64.11 121.21 64.08 117.51 64.03 113.82 C 63.35 113.88 61.99 114.01 61.31 114.08 Z" />
<path fill="#ffffff" opacity="1.00" d=" M 20.35 2.37 C 22.10 1.50 24.10 1.62 26.00 1.55 C 53.63 1.61 81.27 1.50 108.90 1.60 C 113.49 1.33 117.65 5.38 117.37 10.00 C 117.47 46.67 117.35 83.34 117.43 120.01 C 117.40 122.69 117.56 125.64 115.91 127.94 C 114.24 130.55 111.00 131.49 108.05 131.36 C 80.04 131.33 52.03 131.39 24.02 131.33 C 19.42 131.64 15.39 127.55 15.64 122.97 C 15.55 85.65 15.63 48.33 15.60 11.01 C 15.35 7.52 16.97 3.75 20.35 2.37 M 21.37 5.25 C 19.17 6.17 18.35 8.72 18.54 10.93 C 18.58 48.30 18.52 85.68 18.57 123.04 C 18.39 125.94 21.06 128.52 23.95 128.29 C 52.30 128.30 80.66 128.31 109.01 128.29 C 111.86 128.45 114.37 125.78 114.24 122.98 C 114.26 85.30 114.26 47.62 114.23 9.94 C 114.34 7.15 111.87 4.56 109.05 4.69 C 81.37 4.60 53.68 4.72 26.00 4.64 C 24.46 4.72 22.78 4.48 21.37 5.25 Z" />
<path fill="#ffffff" opacity="1.00" d=" M 74.66 26.16 C 78.60 20.24 82.74 14.45 86.76 8.59 C 90.18 14.43 93.62 20.26 96.90 26.18 C 94.62 26.09 92.34 26.11 90.07 26.03 C 89.90 58.97 89.92 91.91 90.08 124.84 C 87.24 124.86 84.40 124.87 81.56 124.92 C 81.56 101.18 81.53 77.44 81.58 53.70 C 70.70 64.43 59.99 75.36 49.20 86.18 C 45.52 89.83 43.03 94.76 42.94 100.00 C 42.69 108.27 42.85 116.56 42.87 124.83 C 39.92 124.86 36.97 124.88 34.02 124.90 C 33.98 117.28 34.01 109.66 34.00 102.04 C 33.97 95.37 35.85 88.43 40.52 83.50 C 50.36 72.69 60.98 62.64 71.19 52.20 C 74.62 48.56 78.79 45.39 80.86 40.70 C 82.92 36.10 82.06 30.94 82.27 26.06 C 79.73 26.19 77.19 25.99 74.66 26.16 Z" />
<path fill="#ffffff" opacity="1.00" d=" M 61.30 92.78 C 62.00 92.78 63.38 92.78 64.08 92.77 C 64.04 96.37 64.04 99.96 64.08 103.55 C 63.37 103.53 61.97 103.49 61.27 103.47 C 61.38 99.91 61.38 96.34 61.30 92.78 Z" />
<path fill="#ffffff" opacity="1.00" d=" M 61.31 114.08 C 61.99 114.01 63.35 113.88 64.03 113.82 C 64.08 117.51 64.11 121.21 63.90 124.91 C 63.28 124.82 62.04 124.65 61.42 124.56 C 61.23 121.07 61.41 117.57 61.31 114.08 Z" />
</g>
</svg>
