<?xml version="1.0" encoding="UTF-8" ?>
<!DOCTYPE svg PUBLIC "-//W3C//DTD SVG 1.1//EN" "http://www.w3.org/Graphics/SVG/1.1/DTD/svg11.dtd">
<svg width="167pt" height="167pt" viewBox="0 0 167 167" version="1.1" xmlns="http://www.w3.org/2000/svg">
<g id="disabled">
<path fill="#606060" opacity="1.00" d=" M 73.02 14.93 C 76.83 8.49 87.21 8.53 90.96 15.01 C 114.63 55.76 138.06 96.66 161.66 137.45 C 163.36 140.21 164.52 143.62 163.52 146.85 C 162.49 151.61 157.82 154.97 153.05 155.01 C 107.36 154.99 61.67 155.01 15.97 155.00 C 12.67 154.94 9.15 155.46 6.11 153.84 C 2.69 152.41 0.72 148.93 0.00 145.45 L 0.00 143.28 C 0.42 141.17 1.22 139.16 2.35 137.34 C 25.95 96.56 49.35 55.67 73.02 14.93 M 79.29 16.09 C 77.09 18.09 75.96 20.88 74.43 23.36 C 51.75 62.70 29.04 102.03 6.37 141.37 C 5.41 143.03 5.69 145.02 6.07 146.80 C 6.80 147.51 7.52 148.22 8.23 148.95 C 11.13 149.56 14.11 149.31 17.05 149.35 C 62.05 149.35 107.05 149.34 152.04 149.35 C 153.29 149.32 154.52 149.18 155.75 148.94 C 156.47 148.18 157.21 147.43 157.96 146.70 C 158.15 144.94 158.52 142.98 157.57 141.37 C 133.90 100.39 110.31 59.36 86.62 18.39 C 85.34 15.51 81.95 15.38 79.29 16.09 Z" />
<path fill="#c6c6c6" opacity="1.00" d=" M 79.29 16.09 C 81.95 15.38 85.34 15.51 86.62 18.39 C 110.31 59.36 133.90 100.39 157.57 141.37 C 158.52 142.98 158.15 144.94 157.96 146.70 C 157.21 147.43 156.47 148.18 155.75 148.94 C 154.52 149.18 153.29 149.32 152.04 149.35 C 107.05 149.34 62.05 149.35 17.05 149.35 C 14.11 149.31 11.13 149.56 8.23 148.95 C 7.52 148.22 6.80 147.51 6.07 146.80 C 5.69 145.02 5.41 143.03 6.37 141.37 C 29.04 102.03 51.75 62.70 74.43 23.36 C 75.96 20.88 77.09 18.09 79.29 16.09 M 79.35 47.43 C 75.47 48.69 72.77 52.88 73.33 56.94 C 75.06 76.61 76.70 96.28 78.47 115.95 C 78.99 120.09 85.52 120.04 86.10 115.96 C 88.12 96.29 89.05 76.51 91.26 56.86 C 92.17 50.61 85.23 45.09 79.35 47.43 M 79.47 126.70 C 75.66 128.46 74.91 134.19 78.15 136.87 C 81.60 140.29 88.15 137.76 88.46 132.92 C 89.19 128.24 83.61 124.31 79.47 126.70 Z" />
<path fill="#000000" opacity="1.00" d=" M 79.35 47.43 C 85.23 45.09 92.17 50.61 91.26 56.86 C 89.05 76.51 88.12 96.29 86.10 115.96 C 85.52 120.04 78.99 120.09 78.47 115.95 C 76.70 96.28 75.06 76.61 73.33 56.94 C 72.77 52.88 75.47 48.69 79.35 47.43 Z" />
<path fill="#000000" opacity="1.00" d=" M 79.47 126.70 C 83.61 124.31 89.19 128.24 88.46 132.92 C 88.15 137.76 81.60 140.29 78.15 136.87 C 74.91 134.19 75.66 128.46 79.47 126.70 Z" />
</g>
<g id="normal">
<path fill="#d40000" opacity="1.00" d=" M 73.02 14.93 C 76.83 8.49 87.21 8.53 90.96 15.01 C 114.63 55.76 138.06 96.66 161.66 137.45 C 163.36 140.21 164.52 143.62 163.52 146.85 C 162.49 151.61 157.82 154.97 153.05 155.01 C 107.36 154.99 61.67 155.01 15.97 155.00 C 12.67 154.94 9.15 155.46 6.11 153.84 C 2.69 152.41 0.72 148.93 0.00 145.45 L 0.00 143.28 C 0.42 141.17 1.22 139.16 2.35 137.34 C 25.95 96.56 49.35 55.67 73.02 14.93 M 79.29 16.09 C 77.09 18.09 75.96 20.88 74.43 23.36 C 51.75 62.70 29.04 102.03 6.37 141.37 C 5.41 143.03 5.69 145.02 6.07 146.80 C 6.80 147.51 7.52 148.22 8.23 148.95 C 11.13 149.56 14.11 149.31 17.05 149.35 C 62.05 149.35 107.05 149.34 152.04 149.35 C 153.29 149.32 154.52 149.18 155.75 148.94 C 156.47 148.18 157.21 147.43 157.96 146.70 C 158.15 144.94 158.52 142.98 157.57 141.37 C 133.90 100.39 110.31 59.36 86.62 18.39 C 85.34 15.51 81.95 15.38 79.29 16.09 Z" />
<path fill="#febe0b" opacity="1.00" d=" M 79.29 16.09 C 81.95 15.38 85.34 15.51 86.62 18.39 C 110.31 59.36 133.90 100.39 157.57 141.37 C 158.52 142.98 158.15 144.94 157.96 146.70 C 157.21 147.43 156.47 148.18 155.75 148.94 C 154.52 149.18 153.29 149.32 152.04 149.35 C 107.05 149.34 62.05 149.35 17.05 149.35 C 14.11 149.31 11.13 149.56 8.23 148.95 C 7.52 148.22 6.80 147.51 6.07 146.80 C 5.69 145.02 5.41 143.03 6.37 141.37 C 29.04 102.03 51.75 62.70 74.43 23.36 C 75.96 20.88 77.09 18.09 79.29 16.09 M 79.35 47.43 C 75.47 48.69 72.77 52.88 73.33 56.94 C 75.06 76.61 76.70 96.28 78.47 115.95 C 78.99 120.09 85.52 120.04 86.10 115.96 C 88.12 96.29 89.05 76.51 91.26 56.86 C 92.17 50.61 85.23 45.09 79.35 47.43 M 79.47 126.70 C 75.66 128.46 74.91 134.19 78.15 136.87 C 81.60 140.29 88.15 137.76 88.46 132.92 C 89.19 128.24 83.61 124.31 79.47 126.70 Z" />
<path fill="#000000" opacity="1.00" d=" M 79.35 47.43 C 85.23 45.09 92.17 50.61 91.26 56.86 C 89.05 76.51 88.12 96.29 86.10 115.96 C 85.52 120.04 78.99 120.09 78.47 115.95 C 76.70 96.28 75.06 76.61 73.33 56.94 C 72.77 52.88 75.47 48.69 79.35 47.43 Z" />
<path fill="#000000" opacity="1.00" d=" M 79.47 126.70 C 83.61 124.31 89.19 128.24 88.46 132.92 C 88.15 137.76 81.60 140.29 78.15 136.87 C 74.91 134.19 75.66 128.46 79.47 126.70 Z" />
</g>
</svg>
