<?xml version="1.0" encoding="UTF-8" ?>
<!DOCTYPE svg PUBLIC "-//W3C//DTD SVG 1.1//EN" "http://www.w3.org/Graphics/SVG/1.1/DTD/svg11.dtd">
<svg width="167pt" height="167pt" viewBox="0 0 167 167" version="1.1" xmlns="http://www.w3.org/2000/svg">
<g id="disabled">
<path fill="#909090" opacity="1.00" d=" M 72.30 16.07 C 74.70 11.26 80.92 8.57 85.93 10.85 C 89.78 12.22 91.67 16.05 93.55 19.37 C 116.34 58.91 139.15 98.44 161.96 137.98 C 163.80 140.99 164.55 144.81 163.12 148.15 C 161.51 152.64 156.67 155.27 152.04 155.02 C 104.98 154.96 57.92 155.03 10.87 154.99 C 5.43 155.06 0.74 150.70 0.00 145.38 L 0.00 143.31 C 0.40 141.43 1.07 139.62 2.00 137.95 C 25.45 97.34 48.85 56.69 72.30 16.07 M 79.33 15.96 C 76.90 18.50 75.43 21.71 73.66 24.70 C 51.35 63.36 29.08 102.02 6.76 140.67 C 5.52 142.47 5.66 144.69 5.99 146.74 C 6.75 147.48 7.50 148.24 8.25 149.00 C 12.15 149.56 16.09 149.31 20.01 149.34 C 63.67 149.36 107.33 149.33 150.99 149.36 C 152.56 149.33 154.13 149.18 155.69 149.00 C 156.45 148.22 157.23 147.45 158.00 146.68 C 158.17 144.67 158.44 142.48 157.21 140.73 C 134.41 101.26 111.66 61.76 88.90 22.28 C 87.61 20.17 86.61 17.75 84.64 16.17 C 82.94 15.51 81.09 15.89 79.33 15.96 Z" />
<path fill="#c6c6c6" opacity="1.00" d=" M 79.33 15.96 C 81.09 15.89 82.94 15.51 84.64 16.17 C 86.61 17.75 87.61 20.17 88.90 22.28 C 111.66 61.76 134.41 101.26 157.21 140.73 C 158.44 142.48 158.17 144.67 158.00 146.68 C 157.23 147.45 156.45 148.22 155.69 149.00 C 154.13 149.18 152.56 149.33 150.99 149.36 C 107.33 149.33 63.67 149.36 20.01 149.34 C 16.09 149.31 12.15 149.56 8.25 149.00 C 7.50 148.24 6.75 147.48 5.99 146.74 C 5.66 144.69 5.52 142.47 6.76 140.67 C 29.08 102.02 51.35 63.36 73.66 24.70 C 75.43 21.71 76.90 18.50 79.33 15.96 M 63.90 53.57 C 63.89 82.87 63.89 112.16 63.90 141.45 C 68.49 141.47 73.07 141.44 77.66 141.48 C 77.75 112.18 77.67 82.87 77.70 53.57 C 73.10 53.56 68.50 53.56 63.90 53.57 M 86.18 53.59 C 86.27 66.31 86.22 79.03 86.21 91.75 C 90.80 95.92 95.39 100.09 100.02 104.21 C 100.08 116.61 100.03 129.00 100.05 141.40 C 104.30 141.40 108.56 141.42 112.82 141.38 C 112.77 127.37 112.84 113.37 112.78 99.36 C 108.55 95.18 104.28 91.04 100.05 86.86 C 100.04 75.75 100.05 64.64 100.04 53.54 C 95.42 53.55 90.80 53.48 86.18 53.59 Z" />
<path fill="#000000" opacity="1.00" d=" M 63.90 53.57 C 68.50 53.56 73.10 53.56 77.70 53.57 C 77.67 82.87 77.75 112.18 77.66 141.48 C 73.07 141.44 68.49 141.47 63.90 141.45 C 63.89 112.16 63.89 82.87 63.90 53.57 Z" />
<path fill="#000000" opacity="1.00" d=" M 86.18 53.59 C 90.80 53.48 95.42 53.55 100.04 53.54 C 100.05 64.64 100.04 75.75 100.05 86.86 C 104.28 91.04 108.55 95.18 112.78 99.36 C 112.84 113.37 112.77 127.37 112.82 141.38 C 108.56 141.42 104.30 141.40 100.05 141.40 C 100.03 129.00 100.08 116.61 100.02 104.21 C 95.39 100.09 90.80 95.92 86.21 91.75 C 86.22 79.03 86.27 66.31 86.18 53.59 Z" />
</g>
<g id="normal">
<path fill="#d40000" opacity="1.00" d=" M 72.30 16.07 C 74.70 11.26 80.92 8.57 85.93 10.85 C 89.78 12.22 91.67 16.05 93.55 19.37 C 116.34 58.91 139.15 98.44 161.96 137.98 C 163.80 140.99 164.55 144.81 163.12 148.15 C 161.51 152.64 156.67 155.27 152.04 155.02 C 104.98 154.96 57.92 155.03 10.87 154.99 C 5.43 155.06 0.74 150.70 0.00 145.38 L 0.00 143.31 C 0.40 141.43 1.07 139.62 2.00 137.95 C 25.45 97.34 48.85 56.69 72.30 16.07 M 79.33 15.96 C 76.90 18.50 75.43 21.71 73.66 24.70 C 51.35 63.36 29.08 102.02 6.76 140.67 C 5.52 142.47 5.66 144.69 5.99 146.74 C 6.75 147.48 7.50 148.24 8.25 149.00 C 12.15 149.56 16.09 149.31 20.01 149.34 C 63.67 149.36 107.33 149.33 150.99 149.36 C 152.56 149.33 154.13 149.18 155.69 149.00 C 156.45 148.22 157.23 147.45 158.00 146.68 C 158.17 144.67 158.44 142.48 157.21 140.73 C 134.41 101.26 111.66 61.76 88.90 22.28 C 87.61 20.17 86.61 17.75 84.64 16.17 C 82.94 15.51 81.09 15.89 79.33 15.96 Z" />
<path fill="#febe0b" opacity="1.00" d=" M 79.33 15.96 C 81.09 15.89 82.94 15.51 84.64 16.17 C 86.61 17.75 87.61 20.17 88.90 22.28 C 111.66 61.76 134.41 101.26 157.21 140.73 C 158.44 142.48 158.17 144.67 158.00 146.68 C 157.23 147.45 156.45 148.22 155.69 149.00 C 154.13 149.18 152.56 149.33 150.99 149.36 C 107.33 149.33 63.67 149.36 20.01 149.34 C 16.09 149.31 12.15 149.56 8.25 149.00 C 7.50 148.24 6.75 147.48 5.99 146.74 C 5.66 144.69 5.52 142.47 6.76 140.67 C 29.08 102.02 51.35 63.36 73.66 24.70 C 75.43 21.71 76.90 18.50 79.33 15.96 M 63.90 53.57 C 63.89 82.87 63.89 112.16 63.90 141.45 C 68.49 141.47 73.07 141.44 77.66 141.48 C 77.75 112.18 77.67 82.87 77.70 53.57 C 73.10 53.56 68.50 53.56 63.90 53.57 M 86.18 53.59 C 86.27 66.31 86.22 79.03 86.21 91.75 C 90.80 95.92 95.39 100.09 100.02 104.21 C 100.08 116.61 100.03 129.00 100.05 141.40 C 104.30 141.40 108.56 141.42 112.82 141.38 C 112.77 127.37 112.84 113.37 112.78 99.36 C 108.55 95.18 104.28 91.04 100.05 86.86 C 100.04 75.75 100.05 64.64 100.04 53.54 C 95.42 53.55 90.80 53.48 86.18 53.59 Z" />
<path fill="#000000" opacity="1.00" d=" M 63.90 53.57 C 68.50 53.56 73.10 53.56 77.70 53.57 C 77.67 82.87 77.75 112.18 77.66 141.48 C 73.07 141.44 68.49 141.47 63.90 141.45 C 63.89 112.16 63.89 82.87 63.90 53.57 Z" />
<path fill="#000000" opacity="1.00" d=" M 86.18 53.59 C 90.80 53.48 95.42 53.55 100.04 53.54 C 100.05 64.64 100.04 75.75 100.05 86.86 C 104.28 91.04 108.55 95.18 112.78 99.36 C 112.84 113.37 112.77 127.37 112.82 141.38 C 108.56 141.42 104.30 141.40 100.05 141.40 C 100.03 129.00 100.08 116.61 100.02 104.21 C 95.39 100.09 90.80 95.92 86.21 91.75 C 86.22 79.03 86.27 66.31 86.18 53.59 Z" />
</g>
</svg>
