<?xml version="1.0" encoding="UTF-8" ?>
<!DOCTYPE svg PUBLIC "-//W3C//DTD SVG 1.1//EN" "http://www.w3.org/Graphics/SVG/1.1/DTD/svg11.dtd">
<svg width="147pt" height="147pt" viewBox="0 0 147 147" version="1.1" xmlns="http://www.w3.org/2000/svg">
<g id="disabled">
<path fill="#606060" opacity="1.00" d=" M 62.62 1.90 C 78.09 -0.47 94.34 2.31 108.07 9.84 C 125.27 19.08 138.38 35.61 143.43 54.47 C 146.86 66.98 146.84 80.40 143.33 92.89 C 138.89 108.98 128.69 123.44 114.94 132.91 C 100.08 143.40 81.12 147.97 63.13 145.23 C 48.48 143.15 34.60 136.36 23.83 126.23 C 11.82 114.90 3.77 99.41 1.71 83.01 C -0.68 65.78 3.55 47.76 13.24 33.32 C 24.35 16.56 42.68 4.78 62.62 1.90 M 69.22 15.34 C 51.32 16.58 34.40 26.61 24.66 41.66 C 15.97 54.90 13.01 71.76 16.82 87.15 C 20.34 101.97 29.96 115.22 42.96 123.16 C 54.79 130.41 69.26 133.50 82.97 131.06 C 99.44 128.41 114.52 118.30 123.19 104.04 C 130.49 92.22 133.44 77.72 131.05 64.02 C 128.58 48.33 119.25 33.94 106.06 25.14 C 95.36 17.83 82.12 14.42 69.22 15.34 Z" />
<path fill="#434343" opacity="1.00" d=" M 79.24 77.92 C 84.45 70.82 89.71 63.75 94.97 56.68 C 99.98 63.74 104.95 70.83 109.91 77.92 C 106.99 77.93 104.07 77.94 101.15 77.94 C 101.15 89.13 101.15 100.33 101.15 111.53 C 96.77 111.54 92.39 111.53 88.01 111.54 C 87.99 100.34 88.01 89.14 88.00 77.94 C 85.08 77.94 82.16 77.93 79.24 77.92 Z" />
<path fill="#ffffff" opacity="1.00" d=" M 69.22 15.34 C 82.12 14.42 95.36 17.83 106.06 25.14 C 119.25 33.94 128.58 48.33 131.05 64.02 C 133.44 77.72 130.49 92.22 123.19 104.04 C 114.52 118.30 99.44 128.41 82.97 131.06 C 69.26 133.50 54.79 130.41 42.96 123.16 C 29.96 115.22 20.34 101.97 16.82 87.15 C 13.01 71.76 15.97 54.90 24.66 41.66 C 34.40 26.61 51.32 16.58 69.22 15.34 M 47.49 84.13 C 44.30 84.13 41.12 84.14 37.93 84.12 C 43.65 93.25 49.35 102.39 55.08 111.52 C 60.51 102.39 65.91 93.25 71.36 84.13 C 68.17 84.13 64.98 84.13 61.79 84.13 C 61.79 67.62 61.79 51.11 61.79 34.60 C 57.03 34.60 52.26 34.60 47.50 34.60 C 47.49 51.11 47.50 67.62 47.49 84.13 M 79.24 77.92 C 82.16 77.93 85.08 77.94 88.00 77.94 C 88.01 89.14 87.99 100.34 88.01 111.54 C 92.39 111.53 96.77 111.54 101.15 111.53 C 101.15 100.33 101.15 89.13 101.15 77.94 C 104.07 77.94 106.99 77.93 109.91 77.92 C 104.95 70.83 99.98 63.74 94.97 56.68 C 89.71 63.75 84.45 70.82 79.24 77.92 Z" />
<path fill="#000000" opacity="1.00" d=" M 47.49 84.13 C 47.50 67.62 47.49 51.11 47.50 34.60 C 52.26 34.60 57.03 34.60 61.79 34.60 C 61.79 51.11 61.79 67.62 61.79 84.13 C 64.98 84.13 68.17 84.13 71.36 84.13 C 65.91 93.25 60.51 102.39 55.08 111.52 C 49.35 102.39 43.65 93.25 37.93 84.12 C 41.12 84.14 44.30 84.13 47.49 84.13 Z" />
</g>
<g id="normal">
<path fill="#d40000" opacity="1.00" d=" M 62.62 1.90 C 78.09 -0.47 94.34 2.31 108.07 9.84 C 125.27 19.08 138.38 35.61 143.43 54.47 C 146.86 66.98 146.84 80.40 143.33 92.89 C 138.89 108.98 128.69 123.44 114.94 132.91 C 100.08 143.40 81.12 147.97 63.13 145.23 C 48.48 143.15 34.60 136.36 23.83 126.23 C 11.82 114.90 3.77 99.41 1.71 83.01 C -0.68 65.78 3.55 47.76 13.24 33.32 C 24.35 16.56 42.68 4.78 62.62 1.90 M 69.22 15.34 C 51.32 16.58 34.40 26.61 24.66 41.66 C 15.97 54.90 13.01 71.76 16.82 87.15 C 20.34 101.97 29.96 115.22 42.96 123.16 C 54.79 130.41 69.26 133.50 82.97 131.06 C 99.44 128.41 114.52 118.30 123.19 104.04 C 130.49 92.22 133.44 77.72 131.05 64.02 C 128.58 48.33 119.25 33.94 106.06 25.14 C 95.36 17.83 82.12 14.42 69.22 15.34 Z" />
<path fill="#d40000" opacity="1.00" d=" M 79.24 77.92 C 84.45 70.82 89.71 63.75 94.97 56.68 C 99.98 63.74 104.95 70.83 109.91 77.92 C 106.99 77.93 104.07 77.94 101.15 77.94 C 101.15 89.13 101.15 100.33 101.15 111.53 C 96.77 111.54 92.39 111.53 88.01 111.54 C 87.99 100.34 88.01 89.14 88.00 77.94 C 85.08 77.94 82.16 77.93 79.24 77.92 Z" />
<path fill="#ffffff" opacity="1.00" d=" M 69.22 15.34 C 82.12 14.42 95.36 17.83 106.06 25.14 C 119.25 33.94 128.58 48.33 131.05 64.02 C 133.44 77.72 130.49 92.22 123.19 104.04 C 114.52 118.30 99.44 128.41 82.97 131.06 C 69.26 133.50 54.79 130.41 42.96 123.16 C 29.96 115.22 20.34 101.97 16.82 87.15 C 13.01 71.76 15.97 54.90 24.66 41.66 C 34.40 26.61 51.32 16.58 69.22 15.34 M 47.49 84.13 C 44.30 84.13 41.12 84.14 37.93 84.12 C 43.65 93.25 49.35 102.39 55.08 111.52 C 60.51 102.39 65.91 93.25 71.36 84.13 C 68.17 84.13 64.98 84.13 61.79 84.13 C 61.79 67.62 61.79 51.11 61.79 34.60 C 57.03 34.60 52.26 34.60 47.50 34.60 C 47.49 51.11 47.50 67.62 47.49 84.13 M 79.24 77.92 C 82.16 77.93 85.08 77.94 88.00 77.94 C 88.01 89.14 87.99 100.34 88.01 111.54 C 92.39 111.53 96.77 111.54 101.15 111.53 C 101.15 100.33 101.15 89.13 101.15 77.94 C 104.07 77.94 106.99 77.93 109.91 77.92 C 104.95 70.83 99.98 63.74 94.97 56.68 C 89.71 63.75 84.45 70.82 79.24 77.92 Z" />
<path fill="#000000" opacity="1.00" d=" M 47.49 84.13 C 47.50 67.62 47.49 51.11 47.50 34.60 C 52.26 34.60 57.03 34.60 61.79 34.60 C 61.79 51.11 61.79 67.62 61.79 84.13 C 64.98 84.13 68.17 84.13 71.36 84.13 C 65.91 93.25 60.51 102.39 55.08 111.52 C 49.35 102.39 43.65 93.25 37.93 84.12 C 41.12 84.14 44.30 84.13 47.49 84.13 Z" />
</g>
</svg>
