<?xml version="1.0" encoding="UTF-8" ?>
<!DOCTYPE svg PUBLIC "-//W3C//DTD SVG 1.1//EN" "http://www.w3.org/Graphics/SVG/1.1/DTD/svg11.dtd">
<svg width="149pt" height="149pt" viewBox="0 0 149 149" version="1.1" xmlns="http://www.w3.org/2000/svg">
<g id="disabled">
<path fill="#606060" opacity="1.00" d=" M 63.54 2.73 C 78.13 0.54 93.44 2.76 106.65 9.39 C 120.88 16.36 132.64 28.17 139.63 42.38 C 147.85 58.87 149.33 78.54 143.81 96.11 C 138.39 113.70 125.96 128.96 109.86 137.88 C 89.91 149.25 64.47 150.14 43.76 140.26 C 27.60 132.74 14.41 119.08 7.55 102.62 C -1.07 82.38 0.23 58.20 11.11 39.06 C 21.78 19.76 41.68 5.85 63.54 2.73 M 70.28 16.34 C 49.90 17.64 30.85 30.58 22.07 49.00 C 15.72 61.96 14.43 77.30 18.63 91.12 C 23.11 106.35 34.12 119.53 48.37 126.54 C 61.12 133.02 76.31 134.63 90.08 130.63 C 101.75 127.37 112.40 120.45 119.94 110.94 C 130.23 98.25 134.82 81.05 131.99 64.93 C 129.47 49.26 120.16 34.83 106.92 26.08 C 96.28 18.79 83.11 15.44 70.28 16.34 Z" />
<path fill="#606060" opacity="1.00" d=" M 26.74 50.95 C 26.51 48.67 28.62 46.63 30.90 47.01 C 42.31 47.01 53.73 46.95 65.14 47.04 C 67.19 46.99 68.79 49.11 68.61 51.07 C 68.65 66.07 68.61 81.07 68.62 96.07 C 68.14 96.14 67.17 96.29 66.69 96.37 C 66.70 98.22 66.72 100.07 66.73 101.93 C 64.82 101.93 62.91 101.93 61.01 101.93 C 61.00 100.02 61.00 98.11 60.99 96.20 C 58.18 96.20 55.36 96.18 52.54 96.22 C 50.24 99.76 45.07 99.69 42.75 96.22 C 39.94 96.18 37.14 96.20 34.34 96.21 C 34.34 98.11 34.34 100.02 34.34 101.93 C 32.43 101.93 30.53 101.93 28.62 101.93 C 28.63 100.05 28.64 98.17 28.65 96.29 C 28.17 96.25 27.20 96.17 26.72 96.13 C 26.73 81.07 26.69 66.01 26.74 50.95 Z" />
<path fill="#ffffff" opacity="1.00" d=" M 70.28 16.34 C 83.11 15.44 96.28 18.79 106.92 26.08 C 120.16 34.83 129.47 49.26 131.99 64.93 C 134.82 81.05 130.23 98.25 119.94 110.94 C 112.40 120.45 101.75 127.37 90.08 130.63 C 76.31 134.63 61.12 133.02 48.37 126.54 C 34.12 119.53 23.11 106.35 18.63 91.12 C 14.43 77.30 15.72 61.96 22.07 49.00 C 30.85 30.58 49.90 17.64 70.28 16.34 M 26.74 50.95 C 26.69 66.01 26.73 81.07 26.72 96.13 C 27.20 96.17 28.17 96.25 28.65 96.29 C 28.64 98.17 28.63 100.05 28.62 101.93 C 30.53 101.93 32.43 101.93 34.34 101.93 C 34.34 100.02 34.34 98.11 34.34 96.21 C 37.14 96.20 39.94 96.18 42.75 96.22 C 45.07 99.69 50.24 99.76 52.54 96.22 C 55.36 96.18 58.18 96.20 60.99 96.20 C 61.00 98.11 61.00 100.02 61.01 101.93 C 62.91 101.93 64.82 101.93 66.73 101.93 C 66.72 100.07 66.70 98.22 66.69 96.37 C 67.17 96.29 68.14 96.14 68.62 96.07 C 68.61 81.07 68.65 66.07 68.61 51.07 C 68.79 49.11 67.19 46.99 65.14 47.04 C 53.73 46.95 42.31 47.01 30.90 47.01 C 28.62 46.63 26.51 48.67 26.74 50.95 M 85.32 65.74 C 84.31 69.36 83.48 73.03 82.39 76.62 C 81.97 77.91 80.28 78.57 80.38 80.03 C 80.34 85.39 80.41 90.75 80.36 96.12 C 80.84 96.15 81.81 96.22 82.29 96.25 C 82.28 98.14 82.28 100.04 82.28 101.93 C 84.18 101.93 86.09 101.93 87.99 101.93 C 87.99 100.02 88.00 98.11 88.00 96.20 C 96.89 96.21 105.78 96.19 114.66 96.20 C 114.66 98.11 114.66 100.02 114.66 101.93 C 116.56 101.93 118.47 101.93 120.37 101.93 C 120.37 100.04 120.36 98.16 120.35 96.27 C 120.83 96.24 121.80 96.18 122.28 96.14 C 122.27 90.45 122.32 84.76 122.25 79.06 C 118.58 75.74 119.11 70.08 117.31 65.73 C 106.65 65.74 95.99 65.72 85.32 65.74 Z" />
<path fill="#ffffff" opacity="1.00" d=" M 85.33 75.27 C 85.83 72.73 86.34 70.20 86.86 67.67 C 96.51 67.67 106.16 67.66 115.81 67.67 C 116.31 70.20 116.82 72.73 117.32 75.26 C 106.66 75.27 96.00 75.26 85.33 75.27 Z" />
<path fill="#000000" opacity="1.00" d=" M 85.32 65.74 C 95.99 65.72 106.65 65.74 117.31 65.73 C 119.11 70.08 118.58 75.74 122.25 79.06 C 122.32 84.76 122.27 90.45 122.28 96.14 C 121.80 96.18 120.83 96.24 120.35 96.27 C 120.36 98.16 120.37 100.04 120.37 101.93 C 118.47 101.93 116.56 101.93 114.66 101.93 C 114.66 100.02 114.66 98.11 114.66 96.20 C 105.78 96.19 96.89 96.21 88.00 96.20 C 88.00 98.11 87.99 100.02 87.99 101.93 C 86.09 101.93 84.18 101.93 82.28 101.93 C 82.28 100.04 82.28 98.14 82.29 96.25 C 81.81 96.22 80.84 96.15 80.36 96.12 C 80.41 90.75 80.34 85.39 80.38 80.03 C 80.28 78.57 81.97 77.91 82.39 76.62 C 83.48 73.03 84.31 69.36 85.32 65.74 M 85.33 75.27 C 96.00 75.26 106.66 75.27 117.32 75.26 C 116.82 72.73 116.31 70.20 115.81 67.67 C 106.16 67.66 96.51 67.67 86.86 67.67 C 86.34 70.20 85.83 72.73 85.33 75.27 Z" />
</g>
<g id="normal">
<path fill="#d40000" opacity="1.00" d=" M 63.54 2.73 C 78.13 0.54 93.44 2.76 106.65 9.39 C 120.88 16.36 132.64 28.17 139.63 42.38 C 147.85 58.87 149.33 78.54 143.81 96.11 C 138.39 113.70 125.96 128.96 109.86 137.88 C 89.91 149.25 64.47 150.14 43.76 140.26 C 27.60 132.74 14.41 119.08 7.55 102.62 C -1.07 82.38 0.23 58.20 11.11 39.06 C 21.78 19.76 41.68 5.85 63.54 2.73 M 70.28 16.34 C 49.90 17.64 30.85 30.58 22.07 49.00 C 15.72 61.96 14.43 77.30 18.63 91.12 C 23.11 106.35 34.12 119.53 48.37 126.54 C 61.12 133.02 76.31 134.63 90.08 130.63 C 101.75 127.37 112.40 120.45 119.94 110.94 C 130.23 98.25 134.82 81.05 131.99 64.93 C 129.47 49.26 120.16 34.83 106.92 26.08 C 96.28 18.79 83.11 15.44 70.28 16.34 Z" />
<path fill="#d40000" opacity="1.00" d=" M 26.74 50.95 C 26.51 48.67 28.62 46.63 30.90 47.01 C 42.31 47.01 53.73 46.95 65.14 47.04 C 67.19 46.99 68.79 49.11 68.61 51.07 C 68.65 66.07 68.61 81.07 68.62 96.07 C 68.14 96.14 67.17 96.29 66.69 96.37 C 66.70 98.22 66.72 100.07 66.73 101.93 C 64.82 101.93 62.91 101.93 61.01 101.93 C 61.00 100.02 61.00 98.11 60.99 96.20 C 58.18 96.20 55.36 96.18 52.54 96.22 C 50.24 99.76 45.07 99.69 42.75 96.22 C 39.94 96.18 37.14 96.20 34.34 96.21 C 34.34 98.11 34.34 100.02 34.34 101.93 C 32.43 101.93 30.53 101.93 28.62 101.93 C 28.63 100.05 28.64 98.17 28.65 96.29 C 28.17 96.25 27.20 96.17 26.72 96.13 C 26.73 81.07 26.69 66.01 26.74 50.95 Z" />
<path fill="#ffffff" opacity="1.00" d=" M 70.28 16.34 C 83.11 15.44 96.28 18.79 106.92 26.08 C 120.16 34.83 129.47 49.26 131.99 64.93 C 134.82 81.05 130.23 98.25 119.94 110.94 C 112.40 120.45 101.75 127.37 90.08 130.63 C 76.31 134.63 61.12 133.02 48.37 126.54 C 34.12 119.53 23.11 106.35 18.63 91.12 C 14.43 77.30 15.72 61.96 22.07 49.00 C 30.85 30.58 49.90 17.64 70.28 16.34 M 26.74 50.95 C 26.69 66.01 26.73 81.07 26.72 96.13 C 27.20 96.17 28.17 96.25 28.65 96.29 C 28.64 98.17 28.63 100.05 28.62 101.93 C 30.53 101.93 32.43 101.93 34.34 101.93 C 34.34 100.02 34.34 98.11 34.34 96.21 C 37.14 96.20 39.94 96.18 42.75 96.22 C 45.07 99.69 50.24 99.76 52.54 96.22 C 55.36 96.18 58.18 96.20 60.99 96.20 C 61.00 98.11 61.00 100.02 61.01 101.93 C 62.91 101.93 64.82 101.93 66.73 101.93 C 66.72 100.07 66.70 98.22 66.69 96.37 C 67.17 96.29 68.14 96.14 68.62 96.07 C 68.61 81.07 68.65 66.07 68.61 51.07 C 68.79 49.11 67.19 46.99 65.14 47.04 C 53.73 46.95 42.31 47.01 30.90 47.01 C 28.62 46.63 26.51 48.67 26.74 50.95 M 85.32 65.74 C 84.31 69.36 83.48 73.03 82.39 76.62 C 81.97 77.91 80.28 78.57 80.38 80.03 C 80.34 85.39 80.41 90.75 80.36 96.12 C 80.84 96.15 81.81 96.22 82.29 96.25 C 82.28 98.14 82.28 100.04 82.28 101.93 C 84.18 101.93 86.09 101.93 87.99 101.93 C 87.99 100.02 88.00 98.11 88.00 96.20 C 96.89 96.21 105.78 96.19 114.66 96.20 C 114.66 98.11 114.66 100.02 114.66 101.93 C 116.56 101.93 118.47 101.93 120.37 101.93 C 120.37 100.04 120.36 98.16 120.35 96.27 C 120.83 96.24 121.80 96.18 122.28 96.14 C 122.27 90.45 122.32 84.76 122.25 79.06 C 118.58 75.74 119.11 70.08 117.31 65.73 C 106.65 65.74 95.99 65.72 85.32 65.74 Z" />
<path fill="#ffffff" opacity="1.00" d=" M 85.33 75.27 C 85.83 72.73 86.34 70.20 86.86 67.67 C 96.51 67.67 106.16 67.66 115.81 67.67 C 116.31 70.20 116.82 72.73 117.32 75.26 C 106.66 75.27 96.00 75.26 85.33 75.27 Z" />
<path fill="#000000" opacity="1.00" d=" M 85.32 65.74 C 95.99 65.72 106.65 65.74 117.31 65.73 C 119.11 70.08 118.58 75.74 122.25 79.06 C 122.32 84.76 122.27 90.45 122.28 96.14 C 121.80 96.18 120.83 96.24 120.35 96.27 C 120.36 98.16 120.37 100.04 120.37 101.93 C 118.47 101.93 116.56 101.93 114.66 101.93 C 114.66 100.02 114.66 98.11 114.66 96.20 C 105.78 96.19 96.89 96.21 88.00 96.20 C 88.00 98.11 87.99 100.02 87.99 101.93 C 86.09 101.93 84.18 101.93 82.28 101.93 C 82.28 100.04 82.28 98.14 82.29 96.25 C 81.81 96.22 80.84 96.15 80.36 96.12 C 80.41 90.75 80.34 85.39 80.38 80.03 C 80.28 78.57 81.97 77.91 82.39 76.62 C 83.48 73.03 84.31 69.36 85.32 65.74 M 85.33 75.27 C 96.00 75.26 106.66 75.27 117.32 75.26 C 116.82 72.73 116.31 70.20 115.81 67.67 C 106.16 67.66 96.51 67.67 86.86 67.67 C 86.34 70.20 85.83 72.73 85.33 75.27 Z" />
</g>
</svg>
