<?xml version="1.0" encoding="UTF-8" ?>
<!DOCTYPE svg PUBLIC "-//W3C//DTD SVG 1.1//EN" "http://www.w3.org/Graphics/SVG/1.1/DTD/svg11.dtd">
<svg width="147pt" height="147pt" viewBox="0 0 147 147" version="1.1" xmlns="http://www.w3.org/2000/svg">
<g id="disabled">
<path fill="#606060" opacity="1.00" d=" M 62.57 1.90 C 78.32 -0.51 94.89 2.40 108.78 10.25 C 121.37 17.24 131.77 28.10 138.20 40.98 C 146.16 56.62 148.04 75.20 143.48 92.13 C 139.31 107.84 129.68 122.02 116.59 131.66 C 101.72 142.76 82.44 147.87 64.04 145.29 C 48.59 143.33 33.92 136.08 22.81 125.19 C 11.33 113.97 3.69 98.84 1.70 82.89 C -0.69 65.66 3.60 47.66 13.28 33.23 C 24.38 16.52 42.69 4.80 62.57 1.90 M 37.64 27.53 C 50.14 40.01 62.62 52.52 75.13 65.00 C 77.45 67.34 79.78 69.68 82.12 71.99 C 83.80 73.69 85.50 75.37 87.18 77.07 C 88.58 78.48 89.99 79.89 91.44 81.26 C 93.06 82.98 94.73 84.66 96.47 86.26 C 97.84 87.74 99.26 89.17 100.71 90.57 C 106.93 96.85 113.21 103.06 119.43 109.33 C 127.51 99.07 131.90 86.03 131.81 72.99 C 131.66 60.74 127.64 48.52 120.26 38.73 C 111.41 26.76 97.80 18.29 83.06 16.03 C 67.19 13.22 50.29 17.58 37.64 27.53 M 27.57 37.57 C 19.48 47.88 15.06 60.95 15.18 74.04 C 15.32 86.77 19.72 99.43 27.63 109.42 C 36.92 121.41 51.12 129.40 66.15 131.31 C 81.39 133.42 97.29 128.80 109.39 119.39 C 101.20 111.27 93.08 103.07 84.91 94.94 C 82.97 92.97 81.02 91.03 79.04 89.12 C 76.64 86.60 74.13 84.19 71.71 81.71 C 70.09 80.12 68.49 78.53 66.92 76.90 C 65.31 75.30 63.69 73.72 62.04 72.16 C 59.08 69.10 56.13 66.00 52.99 63.12 C 44.64 54.49 36.01 46.12 27.57 37.57 Z" />
<path fill="#ffffff" opacity="1.00" d=" M 37.64 27.53 C 50.29 17.58 67.19 13.22 83.06 16.03 C 97.80 18.29 111.41 26.76 120.26 38.73 C 127.64 48.52 131.66 60.74 131.81 72.99 C 131.90 86.03 127.51 99.07 119.43 109.33 C 113.21 103.06 106.93 96.85 100.71 90.57 C 102.28 87.96 103.36 85.11 104.00 82.14 C 105.92 82.13 107.84 82.13 109.77 82.16 C 112.01 85.13 116.29 86.69 119.63 84.57 C 123.67 82.50 124.03 76.23 120.22 73.75 C 116.81 71.12 111.96 72.66 109.64 75.97 C 107.75 76.00 105.86 76.00 103.98 76.00 C 102.81 72.07 101.34 67.06 96.91 65.81 C 89.67 65.22 82.38 65.45 75.13 65.00 C 62.62 52.52 50.14 40.01 37.64 27.53 Z" />
<path fill="#ffffff" opacity="1.00" d=" M 27.57 37.57 C 36.01 46.12 44.64 54.49 52.99 63.12 C 43.22 61.03 32.73 58.93 25.17 51.88 C 25.25 62.08 25.24 72.27 25.17 82.46 C 34.99 73.27 49.24 72.03 62.04 72.16 C 63.69 73.72 65.31 75.30 66.92 76.90 C 61.47 76.96 55.91 76.25 50.53 77.33 C 44.50 78.82 43.46 87.47 47.55 91.46 C 50.32 94.09 54.22 95.32 58.00 95.15 C 66.97 95.02 75.94 95.00 84.91 94.94 C 93.08 103.07 101.20 111.27 109.39 119.39 C 97.29 128.80 81.39 133.42 66.15 131.31 C 51.12 129.40 36.92 121.41 27.63 109.42 C 19.72 99.43 15.32 86.77 15.18 74.04 C 15.06 60.95 19.48 47.88 27.57 37.57 Z" />
<path fill="#ffffff" opacity="1.00" d=" M 82.12 71.99 C 86.32 72.03 90.61 71.53 94.74 72.48 C 96.50 73.00 96.28 75.83 94.58 76.29 C 92.20 77.08 89.64 76.91 87.18 77.07 C 85.50 75.37 83.80 73.69 82.12 71.99 Z" />
<path fill="#ffffff" opacity="1.00" d=" M 91.44 81.26 C 94.39 81.25 96.36 83.39 96.47 86.26 C 94.73 84.66 93.06 82.98 91.44 81.26 Z" />
<path fill="#ffffff" opacity="1.00" d=" M 53.66 88.29 C 51.54 86.21 52.69 81.49 56.00 81.63 C 61.24 81.55 66.47 81.55 71.71 81.71 C 74.13 84.19 76.64 86.60 79.04 89.12 C 72.02 89.16 65.01 89.11 58.00 89.16 C 56.58 88.98 54.73 89.51 53.66 88.29 Z" />
<path fill="#000000" opacity="1.00" d=" M 25.17 51.88 C 32.73 58.93 43.22 61.03 52.99 63.12 C 56.13 66.00 59.08 69.10 62.04 72.16 C 49.24 72.03 34.99 73.27 25.17 82.46 C 25.24 72.27 25.25 62.08 25.17 51.88 Z" />
<path fill="#000000" opacity="1.00" d=" M 75.13 65.00 C 82.38 65.45 89.67 65.22 96.91 65.81 C 101.34 67.06 102.81 72.07 103.98 76.00 C 105.86 76.00 107.75 76.00 109.64 75.97 C 111.96 72.66 116.81 71.12 120.22 73.75 C 124.03 76.23 123.67 82.50 119.63 84.57 C 116.29 86.69 112.01 85.13 109.77 82.16 C 107.84 82.13 105.92 82.13 104.00 82.14 C 103.36 85.11 102.28 87.96 100.71 90.57 C 99.26 89.17 97.84 87.74 96.47 86.26 C 96.36 83.39 94.39 81.25 91.44 81.26 C 89.99 79.89 88.58 78.48 87.18 77.07 C 89.64 76.91 92.20 77.08 94.58 76.29 C 96.28 75.83 96.50 73.00 94.74 72.48 C 90.61 71.53 86.32 72.03 82.12 71.99 C 79.78 69.68 77.45 67.34 75.13 65.00 Z" />
<path fill="#000000" opacity="1.00" d=" M 50.53 77.33 C 55.91 76.25 61.47 76.96 66.92 76.90 C 68.49 78.53 70.09 80.12 71.71 81.71 C 66.47 81.55 61.24 81.55 56.00 81.63 C 52.69 81.49 51.54 86.21 53.66 88.29 C 54.73 89.51 56.58 88.98 58.00 89.16 C 65.01 89.11 72.02 89.16 79.04 89.12 C 81.02 91.03 82.97 92.97 84.91 94.94 C 75.94 95.00 66.97 95.02 58.00 95.15 C 54.22 95.32 50.32 94.09 47.55 91.46 C 43.46 87.47 44.50 78.82 50.53 77.33 Z" />
</g>
<g id="normal">
<path fill="#d40000" opacity="1.00" d=" M 62.57 1.90 C 78.32 -0.51 94.89 2.40 108.78 10.25 C 121.37 17.24 131.77 28.10 138.20 40.98 C 146.16 56.62 148.04 75.20 143.48 92.13 C 139.31 107.84 129.68 122.02 116.59 131.66 C 101.72 142.76 82.44 147.87 64.04 145.29 C 48.59 143.33 33.92 136.08 22.81 125.19 C 11.33 113.97 3.69 98.84 1.70 82.89 C -0.69 65.66 3.60 47.66 13.28 33.23 C 24.38 16.52 42.69 4.80 62.57 1.90 M 37.64 27.53 C 50.14 40.01 62.62 52.52 75.13 65.00 C 77.45 67.34 79.78 69.68 82.12 71.99 C 83.80 73.69 85.50 75.37 87.18 77.07 C 88.58 78.48 89.99 79.89 91.44 81.26 C 93.06 82.98 94.73 84.66 96.47 86.26 C 97.84 87.74 99.26 89.17 100.71 90.57 C 106.93 96.85 113.21 103.06 119.43 109.33 C 127.51 99.07 131.90 86.03 131.81 72.99 C 131.66 60.74 127.64 48.52 120.26 38.73 C 111.41 26.76 97.80 18.29 83.06 16.03 C 67.19 13.22 50.29 17.58 37.64 27.53 M 27.57 37.57 C 19.48 47.88 15.06 60.95 15.18 74.04 C 15.32 86.77 19.72 99.43 27.63 109.42 C 36.92 121.41 51.12 129.40 66.15 131.31 C 81.39 133.42 97.29 128.80 109.39 119.39 C 101.20 111.27 93.08 103.07 84.91 94.94 C 82.97 92.97 81.02 91.03 79.04 89.12 C 76.64 86.60 74.13 84.19 71.71 81.71 C 70.09 80.12 68.49 78.53 66.92 76.90 C 65.31 75.30 63.69 73.72 62.04 72.16 C 59.08 69.10 56.13 66.00 52.99 63.12 C 44.64 54.49 36.01 46.12 27.57 37.57 Z" />
<path fill="#ffffff" opacity="1.00" d=" M 37.64 27.53 C 50.29 17.58 67.19 13.22 83.06 16.03 C 97.80 18.29 111.41 26.76 120.26 38.73 C 127.64 48.52 131.66 60.74 131.81 72.99 C 131.90 86.03 127.51 99.07 119.43 109.33 C 113.21 103.06 106.93 96.85 100.71 90.57 C 102.28 87.96 103.36 85.11 104.00 82.14 C 105.92 82.13 107.84 82.13 109.77 82.16 C 112.01 85.13 116.29 86.69 119.63 84.57 C 123.67 82.50 124.03 76.23 120.22 73.75 C 116.81 71.12 111.96 72.66 109.64 75.97 C 107.75 76.00 105.86 76.00 103.98 76.00 C 102.81 72.07 101.34 67.06 96.91 65.81 C 89.67 65.22 82.38 65.45 75.13 65.00 C 62.62 52.52 50.14 40.01 37.64 27.53 Z" />
<path fill="#ffffff" opacity="1.00" d=" M 27.57 37.57 C 36.01 46.12 44.64 54.49 52.99 63.12 C 43.22 61.03 32.73 58.93 25.17 51.88 C 25.25 62.08 25.24 72.27 25.17 82.46 C 34.99 73.27 49.24 72.03 62.04 72.16 C 63.69 73.72 65.31 75.30 66.92 76.90 C 61.47 76.96 55.91 76.25 50.53 77.33 C 44.50 78.82 43.46 87.47 47.55 91.46 C 50.32 94.09 54.22 95.32 58.00 95.15 C 66.97 95.02 75.94 95.00 84.91 94.94 C 93.08 103.07 101.20 111.27 109.39 119.39 C 97.29 128.80 81.39 133.42 66.15 131.31 C 51.12 129.40 36.92 121.41 27.63 109.42 C 19.72 99.43 15.32 86.77 15.18 74.04 C 15.06 60.95 19.48 47.88 27.57 37.57 Z" />
<path fill="#ffffff" opacity="1.00" d=" M 82.12 71.99 C 86.32 72.03 90.61 71.53 94.74 72.48 C 96.50 73.00 96.28 75.83 94.58 76.29 C 92.20 77.08 89.64 76.91 87.18 77.07 C 85.50 75.37 83.80 73.69 82.12 71.99 Z" />
<path fill="#ffffff" opacity="1.00" d=" M 91.44 81.26 C 94.39 81.25 96.36 83.39 96.47 86.26 C 94.73 84.66 93.06 82.98 91.44 81.26 Z" />
<path fill="#ffffff" opacity="1.00" d=" M 53.66 88.29 C 51.54 86.21 52.69 81.49 56.00 81.63 C 61.24 81.55 66.47 81.55 71.71 81.71 C 74.13 84.19 76.64 86.60 79.04 89.12 C 72.02 89.16 65.01 89.11 58.00 89.16 C 56.58 88.98 54.73 89.51 53.66 88.29 Z" />
<path fill="#000000" opacity="1.00" d=" M 25.17 51.88 C 32.73 58.93 43.22 61.03 52.99 63.12 C 56.13 66.00 59.08 69.10 62.04 72.16 C 49.24 72.03 34.99 73.27 25.17 82.46 C 25.24 72.27 25.25 62.08 25.17 51.88 Z" />
<path fill="#000000" opacity="1.00" d=" M 75.13 65.00 C 82.38 65.45 89.67 65.22 96.91 65.81 C 101.34 67.06 102.81 72.07 103.98 76.00 C 105.86 76.00 107.75 76.00 109.64 75.97 C 111.96 72.66 116.81 71.12 120.22 73.75 C 124.03 76.23 123.67 82.50 119.63 84.57 C 116.29 86.69 112.01 85.13 109.77 82.16 C 107.84 82.13 105.92 82.13 104.00 82.14 C 103.36 85.11 102.28 87.96 100.71 90.57 C 99.26 89.17 97.84 87.74 96.47 86.26 C 96.36 83.39 94.39 81.25 91.44 81.26 C 89.99 79.89 88.58 78.48 87.18 77.07 C 89.64 76.91 92.20 77.08 94.58 76.29 C 96.28 75.83 96.50 73.00 94.74 72.48 C 90.61 71.53 86.32 72.03 82.12 71.99 C 79.78 69.68 77.45 67.34 75.13 65.00 Z" />
<path fill="#000000" opacity="1.00" d=" M 50.53 77.33 C 55.91 76.25 61.47 76.96 66.92 76.90 C 68.49 78.53 70.09 80.12 71.71 81.71 C 66.47 81.55 61.24 81.55 56.00 81.63 C 52.69 81.49 51.54 86.21 53.66 88.29 C 54.73 89.51 56.58 88.98 58.00 89.16 C 65.01 89.11 72.02 89.16 79.04 89.12 C 81.02 91.03 82.97 92.97 84.91 94.94 C 75.94 95.00 66.97 95.02 58.00 95.15 C 54.22 95.32 50.32 94.09 47.55 91.46 C 43.46 87.47 44.50 78.82 50.53 77.33 Z" />
</g>
</svg>
