<?xml version="1.0" encoding="UTF-8" ?>
<!DOCTYPE svg PUBLIC "-//W3C//DTD SVG 1.1//EN" "http://www.w3.org/Graphics/SVG/1.1/DTD/svg11.dtd">
<svg width="167pt" height="167pt" viewBox="0 0 167 167" version="1.1" xmlns="http://www.w3.org/2000/svg">
<g id="disabled">
<path fill="#909090" opacity="1.00" d=" M 72.30 16.07 C 74.69 11.28 80.87 8.58 85.88 10.83 C 88.75 11.86 90.71 14.33 92.14 16.91 C 115.50 57.52 138.98 98.06 162.32 138.68 C 165.25 143.40 163.82 150.21 159.07 153.16 C 155.52 155.58 151.04 154.95 146.98 155.01 C 101.62 154.97 56.26 155.03 10.90 154.98 C 5.45 155.07 0.78 150.73 0.00 145.42 L 0.00 143.29 C 0.77 139.49 2.98 136.25 4.89 132.95 C 27.37 94.00 49.81 55.02 72.30 16.07 M 79.25 15.96 C 78.32 17.15 77.36 18.32 76.58 19.61 C 54.30 58.29 31.98 96.95 9.68 135.63 C 7.78 139.07 4.77 142.52 5.98 146.74 C 6.73 147.49 7.48 148.24 8.22 148.99 C 9.80 149.17 11.39 149.32 12.98 149.35 C 56.33 149.34 99.67 149.35 143.02 149.34 C 147.24 149.32 151.48 149.55 155.68 149.01 C 156.46 148.23 157.24 147.45 158.02 146.68 C 158.13 144.68 158.44 142.52 157.23 140.77 C 134.55 101.48 111.90 62.17 89.24 22.87 C 87.81 20.56 86.76 17.87 84.57 16.14 C 82.86 15.52 81.02 15.92 79.25 15.96 Z" />
<path fill="#c6c6c6" opacity="1.00" d=" M 79.25 15.96 C 81.02 15.92 82.86 15.52 84.57 16.14 C 86.76 17.87 87.81 20.56 89.24 22.87 C 111.90 62.17 134.55 101.48 157.23 140.77 C 158.44 142.52 158.13 144.68 158.02 146.68 C 157.24 147.45 156.46 148.23 155.68 149.01 C 151.48 149.55 147.24 149.32 143.02 149.34 C 99.67 149.35 56.33 149.34 12.98 149.35 C 11.39 149.32 9.80 149.17 8.22 148.99 C 7.48 148.24 6.73 147.49 5.98 146.74 C 4.77 142.52 7.78 139.07 9.68 135.63 C 31.98 96.95 54.30 58.29 76.58 19.61 C 77.36 18.32 78.32 17.15 79.25 15.96 M 63.90 53.54 C 63.89 64.64 63.89 75.74 63.90 86.84 C 59.66 91.03 55.39 95.18 51.16 99.37 C 51.11 113.38 51.15 127.38 51.14 141.39 C 55.39 141.40 59.64 141.41 63.90 141.39 C 63.90 129.00 63.87 116.61 63.91 104.22 C 68.54 100.08 73.10 95.86 77.71 91.70 C 77.66 78.97 77.73 66.25 77.67 53.52 C 73.08 53.54 68.49 53.52 63.90 53.54 M 86.21 53.55 C 86.23 66.28 86.24 79.02 86.20 91.75 C 90.79 95.91 95.36 100.08 100.00 104.18 C 100.10 116.58 100.02 128.99 100.05 141.39 C 104.30 141.40 108.55 141.40 112.80 141.40 C 112.79 127.38 112.84 113.37 112.78 99.36 C 108.54 95.18 104.28 91.04 100.05 86.86 C 100.04 75.75 100.05 64.65 100.04 53.54 C 95.43 53.53 90.82 53.52 86.21 53.55 Z" />
<path fill="#000000" opacity="1.00" d=" M 63.90 53.54 C 68.49 53.52 73.08 53.54 77.67 53.52 C 77.73 66.25 77.66 78.97 77.71 91.70 C 73.10 95.86 68.54 100.08 63.91 104.22 C 63.87 116.61 63.90 129.00 63.90 141.39 C 59.64 141.41 55.39 141.40 51.14 141.39 C 51.15 127.38 51.11 113.38 51.16 99.37 C 55.39 95.18 59.66 91.03 63.90 86.84 C 63.89 75.74 63.89 64.64 63.90 53.54 Z" />
<path fill="#000000" opacity="1.00" d=" M 86.21 53.55 C 90.82 53.52 95.43 53.53 100.04 53.54 C 100.05 64.65 100.04 75.75 100.05 86.86 C 104.28 91.04 108.54 95.18 112.78 99.36 C 112.84 113.37 112.79 127.38 112.80 141.40 C 108.55 141.40 104.30 141.40 100.05 141.39 C 100.02 128.99 100.10 116.58 100.00 104.18 C 95.36 100.08 90.79 95.91 86.20 91.75 C 86.24 79.02 86.23 66.28 86.21 53.55 Z" />
</g>
<g id="normal">
<path fill="#d40000" opacity="1.00" d=" M 72.30 16.07 C 74.69 11.28 80.87 8.58 85.88 10.83 C 88.75 11.86 90.71 14.33 92.14 16.91 C 115.50 57.52 138.98 98.06 162.32 138.68 C 165.25 143.40 163.82 150.21 159.07 153.16 C 155.52 155.58 151.04 154.95 146.98 155.01 C 101.62 154.97 56.26 155.03 10.90 154.98 C 5.45 155.07 0.78 150.73 0.00 145.42 L 0.00 143.29 C 0.77 139.49 2.98 136.25 4.89 132.95 C 27.37 94.00 49.81 55.02 72.30 16.07 M 79.25 15.96 C 78.32 17.15 77.36 18.32 76.58 19.61 C 54.30 58.29 31.98 96.95 9.68 135.63 C 7.78 139.07 4.77 142.52 5.98 146.74 C 6.73 147.49 7.48 148.24 8.22 148.99 C 9.80 149.17 11.39 149.32 12.98 149.35 C 56.33 149.34 99.67 149.35 143.02 149.34 C 147.24 149.32 151.48 149.55 155.68 149.01 C 156.46 148.23 157.24 147.45 158.02 146.68 C 158.13 144.68 158.44 142.52 157.23 140.77 C 134.55 101.48 111.90 62.17 89.24 22.87 C 87.81 20.56 86.76 17.87 84.57 16.14 C 82.86 15.52 81.02 15.92 79.25 15.96 Z" />
<path fill="#febe0b" opacity="1.00" d=" M 79.25 15.96 C 81.02 15.92 82.86 15.52 84.57 16.14 C 86.76 17.87 87.81 20.56 89.24 22.87 C 111.90 62.17 134.55 101.48 157.23 140.77 C 158.44 142.52 158.13 144.68 158.02 146.68 C 157.24 147.45 156.46 148.23 155.68 149.01 C 151.48 149.55 147.24 149.32 143.02 149.34 C 99.67 149.35 56.33 149.34 12.98 149.35 C 11.39 149.32 9.80 149.17 8.22 148.99 C 7.48 148.24 6.73 147.49 5.98 146.74 C 4.77 142.52 7.78 139.07 9.68 135.63 C 31.98 96.95 54.30 58.29 76.58 19.61 C 77.36 18.32 78.32 17.15 79.25 15.96 M 63.90 53.54 C 63.89 64.64 63.89 75.74 63.90 86.84 C 59.66 91.03 55.39 95.18 51.16 99.37 C 51.11 113.38 51.15 127.38 51.14 141.39 C 55.39 141.40 59.64 141.41 63.90 141.39 C 63.90 129.00 63.87 116.61 63.91 104.22 C 68.54 100.08 73.10 95.86 77.71 91.70 C 77.66 78.97 77.73 66.25 77.67 53.52 C 73.08 53.54 68.49 53.52 63.90 53.54 M 86.21 53.55 C 86.23 66.28 86.24 79.02 86.20 91.75 C 90.79 95.91 95.36 100.08 100.00 104.18 C 100.10 116.58 100.02 128.99 100.05 141.39 C 104.30 141.40 108.55 141.40 112.80 141.40 C 112.79 127.38 112.84 113.37 112.78 99.36 C 108.54 95.18 104.28 91.04 100.05 86.86 C 100.04 75.75 100.05 64.65 100.04 53.54 C 95.43 53.53 90.82 53.52 86.21 53.55 Z" />
<path fill="#000000" opacity="1.00" d=" M 63.90 53.54 C 68.49 53.52 73.08 53.54 77.67 53.52 C 77.73 66.25 77.66 78.97 77.71 91.70 C 73.10 95.86 68.54 100.08 63.91 104.22 C 63.87 116.61 63.90 129.00 63.90 141.39 C 59.64 141.41 55.39 141.40 51.14 141.39 C 51.15 127.38 51.11 113.38 51.16 99.37 C 55.39 95.18 59.66 91.03 63.90 86.84 C 63.89 75.74 63.89 64.64 63.90 53.54 Z" />
<path fill="#000000" opacity="1.00" d=" M 86.21 53.55 C 90.82 53.52 95.43 53.53 100.04 53.54 C 100.05 64.65 100.04 75.75 100.05 86.86 C 104.28 91.04 108.54 95.18 112.78 99.36 C 112.84 113.37 112.79 127.38 112.80 141.40 C 108.55 141.40 104.30 141.40 100.05 141.39 C 100.02 128.99 100.10 116.58 100.00 104.18 C 95.36 100.08 90.79 95.91 86.20 91.75 C 86.24 79.02 86.23 66.28 86.21 53.55 Z" />
</g>
</svg>
