<?xml version="1.0" encoding="UTF-8" ?>
<!DOCTYPE svg PUBLIC "-//W3C//DTD SVG 1.1//EN" "http://www.w3.org/Graphics/SVG/1.1/DTD/svg11.dtd">
<svg width="147pt" height="147pt" viewBox="0 0 147 147" version="1.1" xmlns="http://www.w3.org/2000/svg">
<g id="disabled">
<path fill="#606060" opacity="1.00" d=" M 62.61 1.90 C 78.34 -0.50 94.88 2.41 108.75 10.24 C 121.55 17.32 132.08 28.43 138.50 41.58 C 146.21 57.08 147.98 75.38 143.49 92.08 C 139.39 107.57 129.98 121.60 117.17 131.23 C 102.22 142.61 82.71 147.90 64.08 145.30 C 48.63 143.34 33.95 136.10 22.84 125.21 C 11.35 114.00 3.70 98.87 1.71 82.93 C -0.56 66.64 3.13 49.63 11.75 35.63 C 22.66 17.65 41.77 4.91 62.61 1.90 M 41.63 24.71 C 27.77 33.62 18.11 48.73 15.83 65.05 C 13.39 80.54 17.88 96.79 27.37 109.21 C 40.14 97.14 52.30 84.39 64.83 72.05 C 70.16 66.70 75.52 61.38 80.84 56.01 C 90.36 46.53 99.86 37.03 109.35 27.51 C 90.39 12.33 61.76 11.06 41.63 24.71 M 119.39 37.60 C 113.30 43.77 107.11 49.85 101.02 56.03 C 95.74 61.36 90.26 66.52 85.18 72.04 C 69.12 87.60 53.53 103.67 37.61 119.38 C 47.64 127.22 60.26 131.67 72.99 131.82 C 87.01 131.92 100.98 126.74 111.59 117.58 C 121.81 108.78 128.84 96.34 130.99 83.01 C 133.76 67.15 129.38 50.21 119.39 37.60 Z" />
<path fill="#ffffff" opacity="1.00" d=" M 41.63 24.71 C 61.76 11.06 90.39 12.33 109.35 27.51 C 99.86 37.03 90.36 46.53 80.84 56.01 C 69.48 55.98 58.12 56.01 46.77 56.00 C 46.77 53.34 46.77 50.69 46.76 48.04 C 38.86 52.74 31.22 57.85 23.32 62.55 C 31.09 68.39 38.95 74.11 46.75 79.90 C 46.76 77.29 46.77 74.68 46.77 72.07 C 52.79 72.06 58.81 72.08 64.83 72.05 C 52.30 84.39 40.14 97.14 27.37 109.21 C 17.88 96.79 13.39 80.54 15.83 65.05 C 18.11 48.73 27.77 33.62 41.63 24.71 Z" />
<path fill="#ffffff" opacity="1.00" d=" M 119.39 37.60 C 129.38 50.21 133.76 67.15 130.99 83.01 C 128.84 96.34 121.81 108.78 111.59 117.58 C 100.98 126.74 87.01 131.92 72.99 131.82 C 60.26 131.67 47.64 127.22 37.61 119.38 C 53.53 103.67 69.12 87.60 85.18 72.04 C 88.44 72.34 92.50 74.09 92.37 77.97 C 92.55 91.33 92.38 104.69 92.44 118.05 C 98.23 118.09 104.02 118.06 109.82 118.06 C 109.82 101.02 109.81 83.99 109.83 66.95 C 110.07 61.72 105.46 57.85 101.02 56.03 C 107.11 49.85 113.30 43.77 119.39 37.60 Z" />
<path fill="#000000" opacity="1.00" d=" M 23.32 62.55 C 31.22 57.85 38.86 52.74 46.76 48.04 C 46.77 50.69 46.77 53.34 46.77 56.00 C 58.12 56.01 69.48 55.98 80.84 56.01 C 75.52 61.38 70.16 66.70 64.83 72.05 C 58.81 72.08 52.79 72.06 46.77 72.07 C 46.77 74.68 46.76 77.29 46.75 79.90 C 38.95 74.11 31.09 68.39 23.32 62.55 Z" />
<path fill="#000000" opacity="1.00" d=" M 85.18 72.04 C 90.26 66.52 95.74 61.36 101.02 56.03 C 105.46 57.85 110.07 61.72 109.83 66.95 C 109.81 83.99 109.82 101.02 109.82 118.06 C 104.02 118.06 98.23 118.09 92.44 118.05 C 92.38 104.69 92.55 91.33 92.37 77.97 C 92.50 74.09 88.44 72.34 85.18 72.04 Z" />
</g>
<g id="normal">
<path fill="#d40000" opacity="1.00" d=" M 62.61 1.90 C 78.34 -0.50 94.88 2.41 108.75 10.24 C 121.55 17.32 132.08 28.43 138.50 41.58 C 146.21 57.08 147.98 75.38 143.49 92.08 C 139.39 107.57 129.98 121.60 117.17 131.23 C 102.22 142.61 82.71 147.90 64.08 145.30 C 48.63 143.34 33.95 136.10 22.84 125.21 C 11.35 114.00 3.70 98.87 1.71 82.93 C -0.56 66.64 3.13 49.63 11.75 35.63 C 22.66 17.65 41.77 4.91 62.61 1.90 M 41.63 24.71 C 27.77 33.62 18.11 48.73 15.83 65.05 C 13.39 80.54 17.88 96.79 27.37 109.21 C 40.14 97.14 52.30 84.39 64.83 72.05 C 70.16 66.70 75.52 61.38 80.84 56.01 C 90.36 46.53 99.86 37.03 109.35 27.51 C 90.39 12.33 61.76 11.06 41.63 24.71 M 119.39 37.60 C 113.30 43.77 107.11 49.85 101.02 56.03 C 95.74 61.36 90.26 66.52 85.18 72.04 C 69.12 87.60 53.53 103.67 37.61 119.38 C 47.64 127.22 60.26 131.67 72.99 131.82 C 87.01 131.92 100.98 126.74 111.59 117.58 C 121.81 108.78 128.84 96.34 130.99 83.01 C 133.76 67.15 129.38 50.21 119.39 37.60 Z" />
<path fill="#ffffff" opacity="1.00" d=" M 41.63 24.71 C 61.76 11.06 90.39 12.33 109.35 27.51 C 99.86 37.03 90.36 46.53 80.84 56.01 C 69.48 55.98 58.12 56.01 46.77 56.00 C 46.77 53.34 46.77 50.69 46.76 48.04 C 38.86 52.74 31.22 57.85 23.32 62.55 C 31.09 68.39 38.95 74.11 46.75 79.90 C 46.76 77.29 46.77 74.68 46.77 72.07 C 52.79 72.06 58.81 72.08 64.83 72.05 C 52.30 84.39 40.14 97.14 27.37 109.21 C 17.88 96.79 13.39 80.54 15.83 65.05 C 18.11 48.73 27.77 33.62 41.63 24.71 Z" />
<path fill="#ffffff" opacity="1.00" d=" M 119.39 37.60 C 129.38 50.21 133.76 67.15 130.99 83.01 C 128.84 96.34 121.81 108.78 111.59 117.58 C 100.98 126.74 87.01 131.92 72.99 131.82 C 60.26 131.67 47.64 127.22 37.61 119.38 C 53.53 103.67 69.12 87.60 85.18 72.04 C 88.44 72.34 92.50 74.09 92.37 77.97 C 92.55 91.33 92.38 104.69 92.44 118.05 C 98.23 118.09 104.02 118.06 109.82 118.06 C 109.82 101.02 109.81 83.99 109.83 66.95 C 110.07 61.72 105.46 57.85 101.02 56.03 C 107.11 49.85 113.30 43.77 119.39 37.60 Z" />
<path fill="#000000" opacity="1.00" d=" M 23.32 62.55 C 31.22 57.85 38.86 52.74 46.76 48.04 C 46.77 50.69 46.77 53.34 46.77 56.00 C 58.12 56.01 69.48 55.98 80.84 56.01 C 75.52 61.38 70.16 66.70 64.83 72.05 C 58.81 72.08 52.79 72.06 46.77 72.07 C 46.77 74.68 46.76 77.29 46.75 79.90 C 38.95 74.11 31.09 68.39 23.32 62.55 Z" />
<path fill="#000000" opacity="1.00" d=" M 85.18 72.04 C 90.26 66.52 95.74 61.36 101.02 56.03 C 105.46 57.85 110.07 61.72 109.83 66.95 C 109.81 83.99 109.82 101.02 109.82 118.06 C 104.02 118.06 98.23 118.09 92.44 118.05 C 92.38 104.69 92.55 91.33 92.37 77.97 C 92.50 74.09 88.44 72.34 85.18 72.04 Z" />
</g>
</svg>
