<?xml version="1.0" encoding="UTF-8" ?>
<!DOCTYPE svg PUBLIC "-//W3C//DTD SVG 1.1//EN" "http://www.w3.org/Graphics/SVG/1.1/DTD/svg11.dtd">
<svg width="167pt" height="167pt" viewBox="0 0 167 167" version="1.1" xmlns="http://www.w3.org/2000/svg">
<g id="disabled">
<path fill="#909090" opacity="1.00" d=" M 72.29 16.09 C 73.87 13.19 76.60 10.88 79.90 10.28 C 84.66 9.14 89.60 12.04 91.74 16.27 C 115.17 56.87 138.58 97.48 162.00 138.08 C 163.96 141.26 164.54 145.36 162.84 148.78 C 161.04 152.94 156.40 155.23 151.99 155.02 C 107.01 154.99 62.02 154.99 17.03 155.01 C 13.14 154.93 8.92 155.56 5.42 153.49 C 2.20 151.82 0.49 148.33 0.00 144.87 L 0.00 143.03 C 0.91 139.35 3.02 136.18 4.90 132.95 C 27.38 94.00 49.82 55.03 72.29 16.09 M 79.31 15.97 C 76.80 18.76 75.19 22.18 73.30 25.39 C 51.13 63.81 28.96 102.25 6.79 140.67 C 5.55 142.47 5.74 144.68 5.99 146.74 C 6.75 147.48 7.52 148.23 8.27 149.00 C 9.83 149.15 11.40 149.29 12.97 149.32 C 58.96 149.31 104.95 149.31 150.93 149.32 C 152.53 149.28 154.12 149.14 155.71 148.99 C 156.45 148.22 157.20 147.46 157.97 146.70 C 158.11 144.71 158.43 142.55 157.22 140.80 C 134.66 101.73 112.13 62.63 89.59 23.54 C 88.35 21.44 87.28 19.21 85.76 17.28 C 84.31 15.14 81.47 15.98 79.31 15.97 Z" />
<path fill="#c6c6c6" opacity="1.00" d=" M 79.31 15.97 C 81.47 15.98 84.31 15.14 85.76 17.28 C 87.28 19.21 88.35 21.44 89.59 23.54 C 112.13 62.63 134.66 101.73 157.22 140.80 C 158.43 142.55 158.11 144.71 157.97 146.70 C 157.20 147.46 156.45 148.22 155.71 148.99 C 154.12 149.14 152.53 149.28 150.93 149.32 C 104.95 149.31 58.96 149.31 12.97 149.32 C 11.40 149.29 9.83 149.15 8.27 149.00 C 7.52 148.23 6.75 147.48 5.99 146.74 C 5.74 144.68 5.55 142.47 6.79 140.67 C 28.96 102.25 51.13 63.81 73.30 25.39 C 75.19 22.18 76.80 18.76 79.31 15.97 M 57.79 75.70 C 60.14 82.34 62.69 88.91 65.04 95.55 C 75.30 90.42 87.83 90.29 98.05 95.60 C 100.51 88.97 102.96 82.34 105.39 75.70 C 89.52 75.67 73.65 75.68 57.79 75.70 M 37.45 97.23 C 43.14 99.67 48.88 101.99 54.66 104.20 C 56.94 101.57 59.59 99.28 62.42 97.24 C 59.48 90.76 56.57 84.26 53.65 77.78 C 48.02 84.06 42.89 90.78 37.45 97.23 M 109.53 77.82 C 106.75 84.39 103.47 90.75 100.94 97.42 C 103.72 99.29 106.26 101.50 108.43 104.06 C 114.27 102.07 119.91 99.52 125.64 97.24 C 120.23 90.80 115.05 84.17 109.53 77.82 M 57.27 108.04 C 56.44 115.21 57.15 122.60 56.92 129.85 C 73.34 129.94 89.76 129.87 106.18 129.89 C 106.06 122.65 106.45 115.39 106.01 108.17 C 102.07 102.82 96.24 98.90 89.82 97.17 C 78.13 93.73 64.47 98.16 57.27 108.04 M 110.12 106.84 C 110.11 114.98 110.10 123.12 110.12 131.26 C 115.73 131.27 121.34 131.27 126.96 131.26 C 126.96 121.23 127.00 111.19 126.94 101.15 C 121.33 103.06 115.72 104.94 110.12 106.84 M 36.19 131.29 C 41.83 131.31 47.48 131.32 53.13 131.28 C 53.16 123.13 53.14 114.98 53.14 106.83 C 47.52 104.85 41.85 103.03 36.22 101.08 C 36.14 111.15 36.21 121.22 36.19 131.29 M 21.94 133.87 C 21.92 136.44 21.93 139.02 22.00 141.59 C 61.75 141.51 101.50 141.66 141.25 141.52 C 141.24 138.97 141.23 136.42 141.22 133.87 C 101.46 133.88 61.70 133.89 21.94 133.87 Z" />
<path fill="#000000" opacity="1.00" d=" M 57.79 75.70 C 73.65 75.68 89.52 75.67 105.39 75.70 C 102.96 82.34 100.51 88.97 98.05 95.60 C 87.83 90.29 75.30 90.42 65.04 95.55 C 62.69 88.91 60.14 82.34 57.79 75.70 Z" />
<path fill="#000000" opacity="1.00" d=" M 37.45 97.23 C 42.89 90.78 48.02 84.06 53.65 77.78 C 56.57 84.26 59.48 90.76 62.42 97.24 C 59.59 99.28 56.94 101.57 54.66 104.20 C 48.88 101.99 43.14 99.67 37.45 97.23 Z" />
<path fill="#000000" opacity="1.00" d=" M 109.53 77.82 C 115.05 84.17 120.23 90.80 125.64 97.24 C 119.91 99.52 114.27 102.07 108.43 104.06 C 106.26 101.50 103.72 99.29 100.94 97.42 C 103.47 90.75 106.75 84.39 109.53 77.82 Z" />
<path fill="#000000" opacity="1.00" d=" M 57.27 108.04 C 64.47 98.16 78.13 93.73 89.82 97.17 C 96.24 98.90 102.07 102.82 106.01 108.17 C 106.45 115.39 106.06 122.65 106.18 129.89 C 89.76 129.87 73.34 129.94 56.92 129.85 C 57.15 122.60 56.44 115.21 57.27 108.04 Z" />
<path fill="#000000" opacity="1.00" d=" M 110.12 106.84 C 115.72 104.94 121.33 103.06 126.94 101.15 C 127.00 111.19 126.96 121.23 126.96 131.26 C 121.34 131.27 115.73 131.27 110.12 131.26 C 110.10 123.12 110.11 114.98 110.12 106.84 Z" />
<path fill="#000000" opacity="1.00" d=" M 36.19 131.29 C 36.21 121.22 36.14 111.15 36.22 101.08 C 41.85 103.03 47.52 104.85 53.14 106.83 C 53.14 114.98 53.16 123.13 53.13 131.28 C 47.48 131.32 41.83 131.31 36.19 131.29 Z" />
<path fill="#000000" opacity="1.00" d=" M 21.94 133.87 C 61.70 133.89 101.46 133.88 141.22 133.87 C 141.23 136.42 141.24 138.97 141.25 141.52 C 101.50 141.66 61.75 141.51 22.00 141.59 C 21.93 139.02 21.92 136.44 21.94 133.87 Z" />
</g>
<g id="normal">
<path fill="#d40000" opacity="1.00" d=" M 72.29 16.09 C 73.87 13.19 76.60 10.88 79.90 10.28 C 84.66 9.14 89.60 12.04 91.74 16.27 C 115.17 56.87 138.58 97.48 162.00 138.08 C 163.96 141.26 164.54 145.36 162.84 148.78 C 161.04 152.94 156.40 155.23 151.99 155.02 C 107.01 154.99 62.02 154.99 17.03 155.01 C 13.14 154.93 8.92 155.56 5.42 153.49 C 2.20 151.82 0.49 148.33 0.00 144.87 L 0.00 143.03 C 0.91 139.35 3.02 136.18 4.90 132.95 C 27.38 94.00 49.82 55.03 72.29 16.09 M 79.31 15.97 C 76.80 18.76 75.19 22.18 73.30 25.39 C 51.13 63.81 28.96 102.25 6.79 140.67 C 5.55 142.47 5.74 144.68 5.99 146.74 C 6.75 147.48 7.52 148.23 8.27 149.00 C 9.83 149.15 11.40 149.29 12.97 149.32 C 58.96 149.31 104.95 149.31 150.93 149.32 C 152.53 149.28 154.12 149.14 155.71 148.99 C 156.45 148.22 157.20 147.46 157.97 146.70 C 158.11 144.71 158.43 142.55 157.22 140.80 C 134.66 101.73 112.13 62.63 89.59 23.54 C 88.35 21.44 87.28 19.21 85.76 17.28 C 84.31 15.14 81.47 15.98 79.31 15.97 Z" />
<path fill="#febf0b" opacity="1.00" d=" M 79.31 15.97 C 81.47 15.98 84.31 15.14 85.76 17.28 C 87.28 19.21 88.35 21.44 89.59 23.54 C 112.13 62.63 134.66 101.73 157.22 140.80 C 158.43 142.55 158.11 144.71 157.97 146.70 C 157.20 147.46 156.45 148.22 155.71 148.99 C 154.12 149.14 152.53 149.28 150.93 149.32 C 104.95 149.31 58.96 149.31 12.97 149.32 C 11.40 149.29 9.83 149.15 8.27 149.00 C 7.52 148.23 6.75 147.48 5.99 146.74 C 5.74 144.68 5.55 142.47 6.79 140.67 C 28.96 102.25 51.13 63.81 73.30 25.39 C 75.19 22.18 76.80 18.76 79.31 15.97 M 57.79 75.70 C 60.14 82.34 62.69 88.91 65.04 95.55 C 75.30 90.42 87.83 90.29 98.05 95.60 C 100.51 88.97 102.96 82.34 105.39 75.70 C 89.52 75.67 73.65 75.68 57.79 75.70 M 37.45 97.23 C 43.14 99.67 48.88 101.99 54.66 104.20 C 56.94 101.57 59.59 99.28 62.42 97.24 C 59.48 90.76 56.57 84.26 53.65 77.78 C 48.02 84.06 42.89 90.78 37.45 97.23 M 109.53 77.82 C 106.75 84.39 103.47 90.75 100.94 97.42 C 103.72 99.29 106.26 101.50 108.43 104.06 C 114.27 102.07 119.91 99.52 125.64 97.24 C 120.23 90.80 115.05 84.17 109.53 77.82 M 57.27 108.04 C 56.44 115.21 57.15 122.60 56.92 129.85 C 73.34 129.94 89.76 129.87 106.18 129.89 C 106.06 122.65 106.45 115.39 106.01 108.17 C 102.07 102.82 96.24 98.90 89.82 97.17 C 78.13 93.73 64.47 98.16 57.27 108.04 M 110.12 106.84 C 110.11 114.98 110.10 123.12 110.12 131.26 C 115.73 131.27 121.34 131.27 126.96 131.26 C 126.96 121.23 127.00 111.19 126.94 101.15 C 121.33 103.06 115.72 104.94 110.12 106.84 M 36.19 131.29 C 41.83 131.31 47.48 131.32 53.13 131.28 C 53.16 123.13 53.14 114.98 53.14 106.83 C 47.52 104.85 41.85 103.03 36.22 101.08 C 36.14 111.15 36.21 121.22 36.19 131.29 M 21.94 133.87 C 21.92 136.44 21.93 139.02 22.00 141.59 C 61.75 141.51 101.50 141.66 141.25 141.52 C 141.24 138.97 141.23 136.42 141.22 133.87 C 101.46 133.88 61.70 133.89 21.94 133.87 Z" />
<path fill="#000000" opacity="1.00" d=" M 57.79 75.70 C 73.65 75.68 89.52 75.67 105.39 75.70 C 102.96 82.34 100.51 88.97 98.05 95.60 C 87.83 90.29 75.30 90.42 65.04 95.55 C 62.69 88.91 60.14 82.34 57.79 75.70 Z" />
<path fill="#000000" opacity="1.00" d=" M 37.45 97.23 C 42.89 90.78 48.02 84.06 53.65 77.78 C 56.57 84.26 59.48 90.76 62.42 97.24 C 59.59 99.28 56.94 101.57 54.66 104.20 C 48.88 101.99 43.14 99.67 37.45 97.23 Z" />
<path fill="#000000" opacity="1.00" d=" M 109.53 77.82 C 115.05 84.17 120.23 90.80 125.64 97.24 C 119.91 99.52 114.27 102.07 108.43 104.06 C 106.26 101.50 103.72 99.29 100.94 97.42 C 103.47 90.75 106.75 84.39 109.53 77.82 Z" />
<path fill="#000000" opacity="1.00" d=" M 57.27 108.04 C 64.47 98.16 78.13 93.73 89.82 97.17 C 96.24 98.90 102.07 102.82 106.01 108.17 C 106.45 115.39 106.06 122.65 106.18 129.89 C 89.76 129.87 73.34 129.94 56.92 129.85 C 57.15 122.60 56.44 115.21 57.27 108.04 Z" />
<path fill="#000000" opacity="1.00" d=" M 110.12 106.84 C 115.72 104.94 121.33 103.06 126.94 101.15 C 127.00 111.19 126.96 121.23 126.96 131.26 C 121.34 131.27 115.73 131.27 110.12 131.26 C 110.10 123.12 110.11 114.98 110.12 106.84 Z" />
<path fill="#000000" opacity="1.00" d=" M 36.19 131.29 C 36.21 121.22 36.14 111.15 36.22 101.08 C 41.85 103.03 47.52 104.85 53.14 106.83 C 53.14 114.98 53.16 123.13 53.13 131.28 C 47.48 131.32 41.83 131.31 36.19 131.29 Z" />
<path fill="#000000" opacity="1.00" d=" M 21.94 133.87 C 61.70 133.89 101.46 133.88 141.22 133.87 C 141.23 136.42 141.24 138.97 141.25 141.52 C 101.50 141.66 61.75 141.51 22.00 141.59 C 21.93 139.02 21.92 136.44 21.94 133.87 Z" />
</g>
</svg>
