<?xml version="1.0" encoding="utf-8"?>
<!-- Generator: Adobe Illustrator 17.0.0, SVG Export Plug-In . SVG Version: 6.00 Build 0)  -->
<!DOCTYPE svg PUBLIC "-//W3C//DTD SVG 1.1//EN" "http://www.w3.org/Graphics/SVG/1.1/DTD/svg11.dtd">
<svg version="1.1" id="Layer_1" xmlns="http://www.w3.org/2000/svg" xmlns:xlink="http://www.w3.org/1999/xlink" x="0px" y="0px"
	 width="210px" height="114px" viewBox="0 0 210 114" enable-background="new 0 0 210 114" xml:space="preserve">
<g id="phase9">
	<path fill-rule="evenodd" clip-rule="evenodd" fill="#231F20" d="M160.545,67.342c0-6.312,5.115-11.43,11.425-11.43
		c6.31,0,11.427,5.118,11.427,11.43c0,6.314-5.116,11.432-11.427,11.432C165.659,78.773,160.545,73.655,160.545,67.342
		L160.545,67.342z M174.826,67.342c0-1.577-1.277-2.856-2.856-2.856c-1.577,0-2.856,1.279-2.856,2.856
		c0,1.579,1.279,2.858,2.856,2.858C173.549,70.2,174.826,68.921,174.826,67.342L174.826,67.342z M185.719,69.766
		c0,0,0-12.609-12.604-15.132c-12.604-2.521-17.645,10.087-17.645,10.087L132.784,62.2c0,0,0,0,0,2.521
		c12.604,12.61,32.77,21.522,32.77,21.522h24.225v8.264H20.235v-8.264c0,0,41.972,0,49.534,0c7.561,0,42.851-24.044,42.851-24.044
		v-2.521h-7.563l-7.561-15.13h-5.041c0,0,2.52-5.044-7.563-5.044c-2.505,0-4.698,0.469-6.58,1.17c3.079,2.048,5.11,5.547,5.11,9.521
		c0,6.314-5.117,11.432-11.427,11.432c-5.244,0-9.655-3.541-10.996-8.363c-2.176-0.126-5.061,0.84-8.875,3.893
		c-0.544,0.435-1.043,0.864-1.524,1.289c2.595,2.096,4.258,5.301,4.258,8.895c0,6.314-5.115,11.432-11.425,11.432
		s-11.427-5.118-11.427-11.432c0-1.989,0.511-3.857,1.403-5.486l-1.452-2.177v-7.566l2.352-2.352l0.092-20.273h0.154l-0.04-0.054
		l7.177-5.227l0.027,0.037l10.404-7.435l17.305,22.259c0.563-0.129,1.142-0.216,1.733-0.259l3.648-1.825V26.895l25.206,2.521
		l10.082,10.087l2.521-25.217l45.372,7.564l-5.041,30.262h2.52c0,0,0-7.564,17.645-5.043c17.645,2.521,17.645,22.696,17.645,22.696
		H185.719L185.719,69.766z M41.593,31.158l-3.806,2.771l-0.623-0.856l-0.054,11.924l9.178-7.181L41.593,31.158L41.593,31.158z
		 M43.433,64.486c-1.579,0-2.856,1.279-2.856,2.856c0,1.579,1.277,2.858,2.856,2.858c1.577,0,2.856-1.279,2.856-2.858
		C46.289,65.765,45.01,64.486,43.433,64.486L43.433,64.486z M71.996,47.338c-1.577,0-2.856,1.281-2.856,2.858
		c0,1.579,1.279,2.858,2.856,2.858c1.579,0,2.858-1.279,2.858-2.858C74.854,48.619,73.574,47.338,71.996,47.338L71.996,47.338z"/>
</g>
<g id="phase8">
	<path fill-rule="evenodd" clip-rule="evenodd" fill="#231F20" d="M98.075,83.356H67.507V50.08h30.568V83.356L98.075,83.356z
		 M141.517,51.013c2.061,4.122-4.12,12.368-8.242,10.307c0,8.246-8.241,8.246-12.363,6.185c0,16.49,2.061,29.838,2.061,29.838
		h19.537v5.517H64.741v-5.517h2.766V86.229h8.341v2.768h13.836v-2.768h8.391v11.114c0,0,12.535,0,14.596,0
		c2.059-4.122,2.059-23.655,2.059-27.777c-8.241,2.061-11.12-4.124-11.12-4.124V44.529c0,0-13.605,0-19.786,0
		c-4.12-8.246,2.061-18.253,8.242-18.253c-4.12-8.246,6.181-12.368,12.363-10.307c6.181-10.307,18.544-2.061,18.544,2.061
		c8.242,0,10.302,4.124,8.242,10.307c10.302,0,8.241,6.185,8.241,10.307C145.637,38.644,145.637,51.013,141.517,51.013
		L141.517,51.013z M89.684,94.465h-5.86h-1.738h-6.238v2.878h6.238h1.738h5.86V94.465L89.684,94.465z"/>
</g>
<g id="phase7">
	<path fill-rule="evenodd" clip-rule="evenodd" fill="#231F20" d="M11.857,91.71v-5.577h186.231v5.577H11.857L11.857,91.71z
		 M179.169,72.77c2.905,0,5.259,2.356,5.259,5.262c0,2.906-2.354,5.262-5.259,5.262c-2.905,0-5.259-2.356-5.259-5.262
		C173.91,75.125,176.264,72.77,179.169,72.77L179.169,72.77z M127.564,75.73c0,2.906-2.356,5.262-5.26,5.262
		c-2.903,0-5.259-2.356-5.259-5.262s2.356-5.262,5.259-5.262C125.208,70.468,127.564,72.823,127.564,75.73L127.564,75.73z
		 M96.008,75.73c0,2.906-2.354,5.262-5.259,5.262c-2.905,0-5.259-2.356-5.259-5.262s2.354-5.262,5.259-5.262
		C93.654,70.468,96.008,72.823,96.008,75.73L96.008,75.73z M32.899,78.36c0,2.906-2.356,5.262-5.26,5.262s-5.259-2.356-5.259-5.262
		c0-2.905,2.354-5.26,5.259-5.26S32.899,75.455,32.899,78.36L32.899,78.36z M187.058,77.21c0,0,0.986-6.742-6.903-7.564
		c-7.846-0.817-7.889,6.084-7.889,6.084l-39.443-2.63c0,0-5.259-5.262-10.519-5.262c-5.259,0-7.887,2.63-7.887,2.63l-7.889,2.632
		l-5.259,2.63l-2.63-2.63c0,0-0.027-6.575-7.889-5.92c-7.889,0.658-7.889,5.92-7.889,5.92l-47.333,3.288c0,0,0-5.92-7.889-5.92
		c-7.889,0-7.889,7.892-7.889,7.892h-7.568v-7.892l12.828-8.855h10.518l13.148-16.588l34.185-2.632l21.037,17.553l7.889-7.892
		l13.148,2.63l5.259,2.632L143.34,44.16l34.185,2.63l20.014,15.785l-2.922,15.785L187.058,77.21L187.058,77.21z M67.083,49.399
		l-15.778,0.988l-7.889,12.188l23.667-1.808V49.399L67.083,49.399z M82.86,48.574l-10.518,0.658v11.865l16.928-2.96L82.86,48.574
		L82.86,48.574z M145.97,49.056l-10.518,8.259l23.665,2.63l1.48-9.737L145.97,49.056L145.97,49.056z M176.539,52.18l-12.162-1.48
		l-1.314,9.245l17.75,0.986L176.539,52.18L176.539,52.18z M127.564,31.511l6.643,7.151l-17.163,8.128L127.564,31.511L127.564,31.511
		z M106.527,44.16V33.638l2.629,5.26l5.26-5.26l4.991-14.507l-2.362,14.507h5.259L106.527,44.16L106.527,44.16z M88.119,28.375
		h7.889l-5.259-10.523h7.889l2.63,13.153l-5.024,0.71l6.205,14.571L88.119,28.375L88.119,28.375z M82.86,38.898l3.574-5.229
		l6.643,12.821L82.86,38.898L82.86,38.898z M77.601,20.483l5.259,10.523l-7.889-5.26L77.601,20.483L77.601,20.483z"/>
</g>
<g id="phase6">
	<path fill-rule="evenodd" clip-rule="evenodd" fill="#231F20" d="M159.066,69.11c-3.477,0.497-3.809,2.982-4.472,5.302
		c-0.661,2.32-23.52,15.411-33.954,16.903c-4.639,1.324-5.964,2.153-8.614,3.811s-9.938-3.645-6.625-14.251
		c-9.441-5.634-12.091-1.492-17.061-0.663c-4.969,0.829-17.556-0.332-17.556-0.332s0.164,3.149-1.823,3.978
		c-1.987,0.829-7.619,0.331-4.306-4.475c-5.301-1.49-7.454-4.142-7.454-4.142c0,0,1.987-5.302,5.798-4.142
		c-1.16-2.984-2.319-8.286,0-8.286c2.319,0,5.962,4.971,5.962,4.971c0,0,8.78,2.155,12.257,1.326
		c3.479-0.829,7.122-5.137,7.122-5.137l-4.14-5.965l-9.938-2.155c0,0-14.244-12.759-14.742-15.909
		c-0.497-3.148,22.693,10.275,22.693,10.275L56.375,29.008c0,0,0-7.789,7.452-8.783L91.05,25.76l0.604,3.745
		c0,0,40.58,27.011,46.045,30.49c-1.52-4.562-34.834-26.006-44.784-33.857l32.859,6.68c9.938,1.658,26.999,19.388,31.636,22.868
		C162.048,59.166,162.545,68.613,159.066,69.11L159.066,69.11z M77.906,24.865c-4.847,0-8.778,2.672-8.778,5.965
		c0,3.295,3.931,5.967,8.778,5.967c4.849,0,8.78-2.672,8.78-5.967C86.685,27.537,82.754,24.865,77.906,24.865L77.906,24.865z
		 M89.17,44.585l-4.14,1.822c14.906,30.16,28.819,22.205,29.813,18.063C96.458,69.11,89.17,44.585,89.17,44.585L89.17,44.585z
		 M108.052,76.898c0,0,1.987,1.326,3.975,1.987c1.326-5.302,21.367-10.107,32.961-10.936
		C124.118,59.664,108.052,76.898,108.052,76.898L108.052,76.898z M145.319,50.219l-10.931-7.954l13.416,17.896l4.472,2.32
		L145.319,50.219L145.319,50.219z M74.028,31.016l2.873-5.59l2.788,5.602l-2.222,4.914L74.028,31.016L74.028,31.016z"/>
</g>
<g id="phase5">
	<path fill-rule="evenodd" clip-rule="evenodd" fill="#231F20" d="M131.517,51.477h-5.453l-8.572-5.455v-6.985h44.471v5.366
		c0,0-11.361,0-19.54,0C134.242,44.403,131.517,51.477,131.517,51.477L131.517,51.477z M143.785,51.477
		c12.8,0,23.175,10.38,23.175,23.185c0,12.805-10.375,23.185-23.175,23.185c-11.614,0-21.206-8.555-22.887-19.704H96.073
		L71.535,48.749l-3.039,6.079C75.21,58.89,79.714,66.24,79.714,74.662c0,12.805-10.375,23.185-23.175,23.185
		c-12.798,0-23.173-10.38-23.173-23.185c0-12.805,10.375-23.185,23.173-23.185c1.4,0,2.762,0.144,4.094,0.382l10.903-24.931
		c0,0,4.629-5.455,20.988-5.455c0,2.727,0,9.007,0,9.007h-12.81l-5.453,8.48h10.906L98.06,54.204v14.799l2.726,0.74h20.359
		C123.402,59.304,132.675,51.477,143.785,51.477L143.785,51.477z M143.785,92.221c9.788,0,17.722-7.938,17.722-17.729
		c0-9.793-7.934-17.73-17.722-17.73c-8.14,0-14.979,5.497-17.059,12.98h21.342v8.4h-21.625
		C128.128,86.182,135.249,92.221,143.785,92.221L143.785,92.221z M57.904,76.026h-5.453v-5.455l5.992-13.704
		c-0.626-0.067-1.261-0.105-1.904-0.105c-9.786,0-17.72,7.938-17.72,17.73c0,9.791,7.934,17.729,17.72,17.729
		c9.788,0,17.722-7.938,17.722-17.729c0-6.258-3.25-11.746-8.144-14.902L57.904,76.026L57.904,76.026z"/>
</g>
<g id="phase4">
	<path fill-rule="evenodd" clip-rule="evenodd" fill="#231F20" d="M156.617,86.098c0,0,0.174-11.206-12.962-11.206
		c-13.138,0-12.269,9.858-12.269,9.858v6.931H77.795c0,0,0-16.789-13.138-16.789c-13.136,0-13.136,16.903-13.136,16.903H36.937
		V72.299h8.015l19.706-25.028h13.911v-5.503h-32.84l-5.962-6.304v-6.571l15.505-9.464h75.071l6.57,8.398h33.363v58.272H156.617
		L156.617,86.098z M84.169,25.238H59.114v11.003h25.055V25.238L84.169,25.238z M84.169,52.901H67.942l-9.853,13.833h26.08V52.901
		L84.169,52.901z M123.107,41.587h-22.314v39.177h22.314V41.587L123.107,41.587z M153.657,41.587h-19.441v14.064h19.441V41.587
		L153.657,41.587z M64.657,78.179c5.441,0,9.853,4.413,9.853,9.858c0,5.443-4.412,9.856-9.853,9.856
		c-5.441,0-9.853-4.413-9.853-9.856C54.805,82.592,59.216,78.179,64.657,78.179L64.657,78.179z M143.481,78.179
		c5.441,0,9.853,4.413,9.853,9.858c0,5.443-4.412,9.856-9.853,9.856c-5.441,0-9.853-4.413-9.853-9.856
		C133.628,82.592,138.039,78.179,143.481,78.179L143.481,78.179z"/>
</g>
<g id="phase3">
	<path fill-rule="evenodd" clip-rule="evenodd" fill="#231F20" d="M166.466,68.988c-8.293,0-8.031,3.112-8.031,3.112h-15.887V55.528
		l2.764-2.766h44.49l2.764,2.766V72.1H175.02C175.02,72.1,174.759,68.988,166.466,68.988L166.466,68.988z M147.365,75.006h9.223
		l-3.685,5.548h-13.136v-3.546h4.834L147.365,75.006L147.365,75.006z M114.21,69.641c-11.969,0-11.057,10.981-11.057,10.981H47.871
		c0,0,0.139-10.981-11.057-10.981c-10.59,0-11.057,10.981-11.057,10.981h-8.288V66.875l16.58-5.664h12.153l17.392-13.884h47.85
		l13.821,13.968h6.139l2.764,1.696v17.631h-8.904C125.267,80.622,125.099,69.641,114.21,69.641L114.21,69.641z M84.142,50.047
		H66.137l-9.973,10.151v0.929h27.978V50.047L84.142,50.047z M114.21,60.198l-8.293-10.151H89.753v11.08h24.457V60.198L114.21,60.198
		z M36.815,72.406c4.581,0,8.293,3.713,8.293,8.296c0,4.581-3.712,8.296-8.293,8.296c-4.579,0-8.293-3.715-8.293-8.296
		C28.522,76.12,32.236,72.406,36.815,72.406L36.815,72.406z M114.21,72.406c4.579,0,8.293,3.713,8.293,8.296
		c0,4.581-3.713,8.296-8.293,8.296c-4.581,0-8.293-3.715-8.293-8.296C105.917,76.12,109.629,72.406,114.21,72.406L114.21,72.406z
		 M166.728,72.406c4.579,0,8.293,3.713,8.293,8.296c0,4.581-3.713,8.296-8.293,8.296c-4.581,0-8.293-3.715-8.293-8.296
		C158.435,76.12,162.147,72.406,166.728,72.406L166.728,72.406z M187.924,80.555h-9.272V75.16h14.176L187.924,80.555L187.924,80.555
		z"/>
</g>
<g id="phase2">
	<path fill-rule="evenodd" clip-rule="evenodd" fill="#231F20" d="M163.113,86.261c0,0-1.602-16.418-15.271-16.418
		c-13.669,0-15.591,16.418-15.591,16.418h-54.46c0,0-1.817-16.418-15.485-16.418c-13.668,0-15.271,16.418-15.271,16.418h-23.98
		V59.587l8.267-6.838V27.741h142.148l13.556,28.427v30.093H163.113L163.113,86.261z M56.358,33.422H43.619l-6.705,9.071v18.663
		h19.445V33.422L56.358,33.422z M77.792,33.422H61.925v27.734h19.284L77.792,33.422L77.792,33.422z M84.626,33.422l3.417,27.734
		h15.376l-6.834-27.734H84.626L84.626,33.422z M103.42,33.422l6.834,27.734h17.086l-6.834-27.734H103.42L103.42,33.422z
		 M127.339,33.422l6.834,27.734h17.086l-6.834-27.734H127.339L127.339,33.422z M175.882,52.749l-9.247-19.327h-15.376l6.834,27.734
		h17.789V52.749L175.882,52.749z M62.414,73.26c6.605,0,11.961,5.358,11.961,11.966c0,6.608-5.356,11.966-11.961,11.966
		c-6.605,0-11.961-5.358-11.961-11.966C50.453,78.618,55.809,73.26,62.414,73.26L62.414,73.26z M147.842,73.26
		c6.607,0,11.961,5.358,11.961,11.966c0,6.608-5.354,11.966-11.961,11.966c-6.605,0-11.959-5.358-11.959-11.966
		C135.883,78.618,141.237,73.26,147.842,73.26L147.842,73.26z"/>
</g>
<g id="phase1">
	<path fill-rule="evenodd" clip-rule="evenodd" fill="#231F20" d="M48.031,33.469h69.52v38.864h-69.52V33.469L48.031,33.469z
		 M45.24,44.599H22.94L11.904,56.292v24.464h4.887c0,0,2.855-10.755,11.423-10.755c8.567,0,11.423,10.755,11.423,10.755h35.402
		l2.657-5.718H45.24V44.599L45.24,44.599z M97.925,75.045l2.818,5.627h16.808v-5.627H97.925L97.925,75.045z M28.214,72.857
		c4.731,0,8.567,3.837,8.567,8.572c0,4.733-3.836,8.572-8.567,8.572c-4.733,0-8.569-3.839-8.569-8.572
		C19.645,76.694,23.481,72.857,28.214,72.857L28.214,72.857z M25.358,49.933l-7.874,8.639v5.307h22.175V49.933H25.358L25.358,49.933
		z M120.261,33.469v38.864l77.802-0.057V33.469H120.261L120.261,33.469z M120.299,74.958v5.654h3.29l2.856-5.567L120.299,74.958
		L120.299,74.958z M144.989,74.958l1.929,5.567h20.434l2.091-5.567H144.989L144.989,74.958z M190.559,74.958l1.57,5.567h5.945
		l-0.012-5.567H190.559L190.559,74.958z M135.012,72.857c4.731,0,8.567,3.837,8.567,8.572c0,4.733-3.836,8.572-8.567,8.572
		c-4.731,0-8.567-3.839-8.567-8.572C126.445,76.694,130.281,72.857,135.012,72.857L135.012,72.857z M87.802,72.857
		c4.731,0,8.567,3.837,8.567,8.572c0,4.733-3.836,8.572-8.567,8.572c-4.731,0-8.569-3.839-8.569-8.572
		C79.233,76.694,83.071,72.857,87.802,72.857L87.802,72.857z M179.723,72.857c4.733,0,8.569,3.837,8.569,8.572
		c0,4.733-3.836,8.572-8.569,8.572c-4.731,0-8.567-3.839-8.567-8.572C171.156,76.694,174.992,72.857,179.723,72.857L179.723,72.857z
		"/>
</g>
<g id="phase0">
	<path fill-rule="evenodd" clip-rule="evenodd" fill="#231F20" d="M81.375,72.179V33.415h94.529v38.764H81.375L81.375,72.179z
		 M129.429,86.15H72.297c0,0-3.571-13.908-14.283-13.908c-10.712,0-14.283,13.995-14.283,13.995h-6.849V57.953l13.992-16.228h27.719
		v36.189h56.02L129.429,86.15L129.429,86.15z M73.012,47.201H54.445l-6.399,8.793v7.882h24.966V47.201L73.012,47.201z
		 M58.014,75.815c5.917,0,10.712,4.798,10.712,10.717s-4.795,10.717-10.712,10.717c-5.915,0-10.712-4.798-10.712-10.717
		S52.099,75.815,58.014,75.815L58.014,75.815z M145.384,75.815c5.917,0,10.712,4.798,10.712,10.717s-4.795,10.717-10.712,10.717
		c-5.915,0-10.712-4.798-10.712-10.717S139.469,75.815,145.384,75.815L145.384,75.815z M175.841,86.15h-14.276l-4.904-8.237h19.172
		L175.841,86.15L175.841,86.15z"/>
</g>
</svg>
