<?xml version="1.0" encoding="UTF-8" ?>
<!DOCTYPE svg PUBLIC "-//W3C//DTD SVG 1.1//EN" "http://www.w3.org/Graphics/SVG/1.1/DTD/svg11.dtd">
<svg width="147pt" height="147pt" viewBox="0 0 147 147" version="1.1" xmlns="http://www.w3.org/2000/svg">
<g id="disabled">
<path fill="#000000" opacity="1.00" d=" M 70.69 3.74 C 71.64 2.78 72.65 1.88 73.66 0.99 C 97.69 25.28 122.05 49.24 146.03 73.57 C 121.78 97.61 97.69 121.81 73.57 145.98 C 62.60 135.41 52.27 124.18 40.98 113.96 C 36.79 109.58 32.22 105.56 28.38 100.86 C 19.24 91.80 10.28 82.57 1.02 73.63 C 24.02 50.12 47.49 27.07 70.69 3.74 M 73.42 3.45 C 50.16 26.90 26.56 50.04 3.46 73.64 C 12.97 82.63 21.88 92.26 31.41 101.22 C 34.46 97.99 37.67 94.92 40.78 91.76 C 35.68 86.66 30.60 81.54 25.48 76.47 C 24.47 75.43 23.22 74.48 22.85 73.00 C 39.84 56.26 56.54 39.22 73.54 22.49 C 79.67 28.54 85.71 34.67 91.83 40.73 C 94.84 37.63 98.01 34.68 100.95 31.52 C 101.12 30.35 99.67 29.79 99.09 28.94 C 90.49 20.49 82.12 11.80 73.42 3.45 M 73.38 23.74 C 56.92 40.34 40.39 56.87 23.79 73.33 C 29.41 79.49 35.56 85.15 41.36 91.15 C 57.95 74.49 74.78 58.06 91.13 41.19 C 85.09 35.50 79.51 29.33 73.38 23.74 M 106.38 55.24 C 112.42 61.32 118.48 67.36 124.55 73.41 C 107.63 90.54 90.44 107.42 73.56 124.59 C 67.48 118.49 61.39 112.42 55.32 106.32 C 52.15 109.38 49.15 112.62 45.89 115.59 C 54.78 125.19 64.37 134.18 73.54 143.54 C 96.84 120.14 120.19 96.79 143.60 73.50 C 134.41 64.23 125.13 55.05 115.93 45.78 C 112.66 48.84 109.57 52.10 106.38 55.24 M 55.95 105.48 C 61.52 111.65 67.73 117.21 73.42 123.28 C 90.13 106.72 106.83 90.14 123.30 73.35 C 117.36 67.63 111.61 61.71 105.76 55.90 C 89.08 72.35 72.74 89.15 55.95 105.48 Z" />
<path fill="#909090" opacity="1.00" d=" M 73.42 3.45 C 82.12 11.80 90.49 20.49 99.09 28.94 C 99.67 29.79 101.12 30.35 100.95 31.52 C 98.01 34.68 94.84 37.63 91.83 40.73 C 85.71 34.67 79.67 28.54 73.54 22.49 C 56.54 39.22 39.84 56.26 22.85 73.00 C 23.22 74.48 24.47 75.43 25.48 76.47 C 30.60 81.54 35.68 86.66 40.78 91.76 C 37.67 94.92 34.46 97.99 31.41 101.22 C 21.88 92.26 12.97 82.63 3.46 73.64 C 26.56 50.04 50.16 26.90 73.42 3.45 Z" />
<path fill="#909090" opacity="1.00" d=" M 106.38 55.24 C 109.57 52.10 112.66 48.84 115.93 45.78 C 125.13 55.05 134.41 64.23 143.60 73.50 C 120.19 96.79 96.84 120.14 73.54 143.54 C 64.37 134.18 54.78 125.19 45.89 115.59 C 49.15 112.62 52.15 109.38 55.32 106.32 C 61.39 112.42 67.48 118.49 73.56 124.59 C 90.44 107.42 107.63 90.54 124.55 73.41 C 118.48 67.36 112.42 61.32 106.38 55.24 Z" />
<path fill="#606060" opacity="1.00" d=" M 73.38 23.74 C 79.51 29.33 85.09 35.50 91.13 41.19 C 74.78 58.06 57.95 74.49 41.36 91.15 C 35.56 85.15 29.41 79.49 23.79 73.33 C 40.39 56.87 56.92 40.34 73.38 23.74 Z" />
<path fill="#606060" opacity="1.00" d=" M 55.95 105.48 C 72.74 89.15 89.08 72.35 105.76 55.90 C 111.61 61.71 117.36 67.63 123.30 73.35 C 106.83 90.14 90.13 106.72 73.42 123.28 C 67.73 117.21 61.52 111.65 55.95 105.48 Z" />
</g>
<g id="normal">
<path fill="#000000" opacity="1.00" d=" M 70.69 3.74 C 71.64 2.78 72.65 1.88 73.66 0.99 C 97.69 25.28 122.05 49.24 146.03 73.57 C 121.78 97.61 97.69 121.81 73.57 145.98 C 62.60 135.41 52.27 124.18 40.98 113.96 C 36.79 109.58 32.22 105.56 28.38 100.86 C 19.24 91.80 10.28 82.57 1.02 73.63 C 24.02 50.12 47.49 27.07 70.69 3.74 M 73.42 3.45 C 50.16 26.90 26.56 50.04 3.46 73.64 C 12.97 82.63 21.88 92.26 31.41 101.22 C 34.46 97.99 37.67 94.92 40.78 91.76 C 35.68 86.66 30.60 81.54 25.48 76.47 C 24.47 75.43 23.22 74.48 22.85 73.00 C 39.84 56.26 56.54 39.22 73.54 22.49 C 79.67 28.54 85.71 34.67 91.83 40.73 C 94.84 37.63 98.01 34.68 100.95 31.52 C 101.12 30.35 99.67 29.79 99.09 28.94 C 90.49 20.49 82.12 11.80 73.42 3.45 M 73.38 23.74 C 56.92 40.34 40.39 56.87 23.79 73.33 C 29.41 79.49 35.56 85.15 41.36 91.15 C 57.95 74.49 74.78 58.06 91.13 41.19 C 85.09 35.50 79.51 29.33 73.38 23.74 M 106.38 55.24 C 112.42 61.32 118.48 67.36 124.55 73.41 C 107.63 90.54 90.44 107.42 73.56 124.59 C 67.48 118.49 61.39 112.42 55.32 106.32 C 52.15 109.38 49.15 112.62 45.89 115.59 C 54.78 125.19 64.37 134.18 73.54 143.54 C 96.84 120.14 120.19 96.79 143.60 73.50 C 134.41 64.23 125.13 55.05 115.93 45.78 C 112.66 48.84 109.57 52.10 106.38 55.24 M 55.95 105.48 C 61.52 111.65 67.73 117.21 73.42 123.28 C 90.13 106.72 106.83 90.14 123.30 73.35 C 117.36 67.63 111.61 61.71 105.76 55.90 C 89.08 72.35 72.74 89.15 55.95 105.48 Z" />
<path fill="#ffffff" opacity="1.00" d=" M 73.42 3.45 C 82.12 11.80 90.49 20.49 99.09 28.94 C 99.67 29.79 101.12 30.35 100.95 31.52 C 98.01 34.68 94.84 37.63 91.83 40.73 C 85.71 34.67 79.67 28.54 73.54 22.49 C 56.54 39.22 39.84 56.26 22.85 73.00 C 23.22 74.48 24.47 75.43 25.48 76.47 C 30.60 81.54 35.68 86.66 40.78 91.76 C 37.67 94.92 34.46 97.99 31.41 101.22 C 21.88 92.26 12.97 82.63 3.46 73.64 C 26.56 50.04 50.16 26.90 73.42 3.45 Z" />
<path fill="#ffffff" opacity="1.00" d=" M 106.38 55.24 C 109.57 52.10 112.66 48.84 115.93 45.78 C 125.13 55.05 134.41 64.23 143.60 73.50 C 120.19 96.79 96.84 120.14 73.54 143.54 C 64.37 134.18 54.78 125.19 45.89 115.59 C 49.15 112.62 52.15 109.38 55.32 106.32 C 61.39 112.42 67.48 118.49 73.56 124.59 C 90.44 107.42 107.63 90.54 124.55 73.41 C 118.48 67.36 112.42 61.32 106.38 55.24 Z" />
<path fill="#fee400" opacity="1.00" d=" M 73.38 23.74 C 79.51 29.33 85.09 35.50 91.13 41.19 C 74.78 58.06 57.95 74.49 41.36 91.15 C 35.56 85.15 29.41 79.49 23.79 73.33 C 40.39 56.87 56.92 40.34 73.38 23.74 Z" />
<path fill="#fee400" opacity="1.00" d=" M 55.95 105.48 C 72.74 89.15 89.08 72.35 105.76 55.90 C 111.61 61.71 117.36 67.63 123.30 73.35 C 106.83 90.14 90.13 106.72 73.42 123.28 C 67.73 117.21 61.52 111.65 55.95 105.48 Z" />
</g>
</svg>
