<?xml version="1.0" encoding="utf-8"?>
<!-- Generator: Adobe Illustrator 16.0.0, SVG Export Plug-In . SVG Version: 6.00 Build 0)  -->
<!DOCTYPE svg PUBLIC "-//W3C//DTD SVG 1.1//EN" "http://www.w3.org/Graphics/SVG/1.1/DTD/svg11.dtd">
<svg version="1.1" id="Layer_1" xmlns="http://www.w3.org/2000/svg" xmlns:xlink="http://www.w3.org/1999/xlink" x="0px" y="0px"
	 width="132px" height="132px" viewBox="0 0 132 132" enable-background="new 0 0 132 132" xml:space="preserve">
<g id="disabled">
	<g>
		<g>
			
				<linearGradient id="SVGID_5_" gradientUnits="userSpaceOnUse" x1="126.9521" y1="-148.335" x2="252.3779" y2="-148.335" gradientTransform="matrix(1 0 0 -1 -123.165 -81.835)">
				<stop  offset="0" style="stop-color:#000000;stop-opacity:0.6"/>
				<stop  offset="1" style="stop-color:#000000;stop-opacity:0.6"/>
			</linearGradient>
			<path id="SVGID_1_" fill="url(#SVGID_5_)" d="M72.428,6.262l54.309,54.311c3.302,3.301,3.302,8.653,0,11.956l-54.207,54.207
				c-3.301,3.303-8.654,3.303-11.955,0L6.263,72.427c-3.301-3.301-3.301-8.654,0-11.955l54.208-54.21
				C63.772,2.961,69.126,2.961,72.428,6.262L72.428,6.262z"/>
		</g>
		<g>
			<path id="SVGID_2_" fill="#D1D1D1" d="M71.428,5.262l54.309,54.311c3.302,3.301,3.302,8.653,0,11.956l-54.207,54.207
				c-3.301,3.303-8.654,3.303-11.955,0L5.263,71.427c-3.301-3.301-3.301-8.654,0-11.955l54.208-54.21
				C62.772,1.961,68.126,1.961,71.428,5.262L71.428,5.262z"/>
		</g>
		<g>
			<defs>
				<path id="SVGID_7_" d="M72.428,6.262l54.309,54.311c3.302,3.301,3.302,8.653,0,11.956l-54.207,54.207
					c-3.301,3.303-8.654,3.303-11.955,0L6.263,72.427c-3.301-3.301-3.301-8.654,0-11.955l54.208-54.21
					C63.772,2.961,69.126,2.961,72.428,6.262L72.428,6.262z"/>
			</defs>
			<clipPath id="SVGID_9_">
				<use xlink:href="#SVGID_7_"  overflow="visible"/>
			</clipPath>
		</g>
	</g>
	<g>
		<g>
			<path id="SVGID_6_" d="M123.159,71.271l-51.888,51.888c-3.162,3.161-8.285,3.161-11.443,0L7.842,71.173
				c-3.161-3.159-3.161-8.284,0-11.445L59.729,7.842c3.161-3.159,8.285-3.159,11.445,0l51.985,51.985
				C126.318,62.988,126.318,68.113,123.159,71.271L123.159,71.271z M122.533,62.849L68.205,8.52c-1.463-1.463-3.838-1.463-5.301,0
				L8.576,62.849c-1.463,1.463-1.463,3.836,0,5.301l54.329,54.328c1.463,1.463,3.838,1.463,5.301,0l54.327-54.328
				C123.998,66.686,123.998,64.312,122.533,62.849L122.533,62.849z"/>
		</g>
	</g>
	<g>
		<g>
			<path id="SVGID_8_" d="M38.71,49.997c-0.38-0.331-0.95-0.496-1.709-0.496c-0.785,0-1.399,0.176-1.841,0.531
				c-0.286,0.226-0.428,0.531-0.428,0.913c0,0.347,0.132,0.644,0.401,0.892c0.339,0.315,1.166,0.641,2.479,0.982
				c1.313,0.341,2.284,0.694,2.912,1.058c0.628,0.365,1.121,0.862,1.476,1.494s0.533,1.413,0.533,2.342
				c0,0.841-0.212,1.631-0.638,2.366c-0.425,0.735-1.027,1.282-1.804,1.639c-0.779,0.357-1.748,0.536-2.907,0.536
				c-1.689,0-2.988-0.43-3.893-1.289c-0.906-0.858-1.447-2.109-1.623-3.755l2.626-0.279c0.157,0.969,0.478,1.681,0.961,2.135
				s1.135,0.682,1.956,0.682c0.869,0,1.523-0.202,1.964-0.607c0.439-0.404,0.661-0.877,0.661-1.418c0-0.347-0.094-0.643-0.278-0.887
				c-0.186-0.244-0.509-0.457-0.971-0.638c-0.317-0.119-1.037-0.333-2.161-0.641c-1.446-0.394-2.461-0.879-3.045-1.454
				c-0.82-0.809-1.231-1.794-1.231-2.957c0-0.749,0.194-1.449,0.58-2.101c0.386-0.651,0.942-1.148,1.668-1.489
				c0.725-0.341,1.602-0.51,2.629-0.51c1.677,0,2.94,0.404,3.788,1.213c0.846,0.809,1.292,1.888,1.334,3.238l-2.697,0.131
				C39.336,50.871,39.089,50.328,38.71,49.997L38.71,49.997z M53.73,61.995v-6.428h-5.286v6.428h-2.699v-14.7h2.699v5.785h5.286
				v-5.785h2.697v14.699L53.73,61.995L53.73,61.995z M69.268,61.995l-1.168-3.34h-5.342l-1.103,3.34h-2.862l5.206-14.699h2.853
				l5.351,14.699H69.268L69.268,61.995z M65.392,50.724l-1.804,5.454h3.645L65.392,50.724L65.392,50.724z M81.977,55.506
				c0.582,0.375,1.063,0.785,1.445,1.234c0.38,0.447,0.893,1.242,1.534,2.386l1.633,2.869h-3.228l-1.95-3.2
				c-0.693-1.142-1.166-1.862-1.421-2.159c-0.256-0.299-0.527-0.502-0.813-0.612c-0.283-0.11-0.738-0.166-1.357-0.166h-0.547v6.138
				h-2.699V47.295h5.679c1.429,0,2.466,0.132,3.114,0.396c0.646,0.265,1.165,0.733,1.554,1.408c0.39,0.675,0.583,1.447,0.583,2.316
				c0,1.103-0.294,2.014-0.883,2.733C84.031,54.867,83.148,55.319,81.977,55.506L81.977,55.506z M82.363,50.407
				c-0.24-0.304-0.577-0.496-1.016-0.577c-0.22-0.032-0.875-0.05-1.969-0.05h-2.105v3.73h1.996c1.293,0,2.103-0.06,2.424-0.181
				c0.32-0.12,0.574-0.328,0.756-0.622s0.275-0.662,0.275-1.103C82.725,51.112,82.604,50.713,82.363,50.407L82.363,50.407z
				 M98.771,54.093c-0.299,0.615-0.678,1.098-1.135,1.449c-0.46,0.35-0.926,0.583-1.4,0.696c-0.644,0.141-1.577,0.212-2.799,0.212
				H91.68v5.545h-2.697v-14.7h4.328c1.642,0,2.711,0.073,3.209,0.22c0.767,0.221,1.407,0.701,1.922,1.439
				c0.518,0.74,0.775,1.693,0.775,2.864C99.216,52.719,99.068,53.478,98.771,54.093L98.771,54.093z M96.009,50.533
				c-0.286-0.347-0.647-0.565-1.085-0.651c-0.32-0.068-0.969-0.102-1.941-0.102H91.68v4.172h1.477c1.064,0,1.775-0.078,2.134-0.231
				c0.358-0.153,0.64-0.394,0.843-0.722c0.204-0.328,0.305-0.707,0.305-1.144C96.438,51.322,96.293,50.881,96.009,50.533
				L96.009,50.533z M39.821,72.645c-0.501-0.442-1.11-0.662-1.827-0.662c-0.99,0-1.794,0.392-2.411,1.174
				c-0.617,0.781-0.925,2.05-0.925,3.8c0,1.856,0.304,3.183,0.913,3.97c0.607,0.79,1.397,1.184,2.369,1.184
				c0.717,0,1.334-0.25,1.851-0.752c0.515-0.502,0.887-1.291,1.111-2.366l2.617,0.913c-0.401,1.604-1.068,2.796-2.001,3.574
				c-0.932,0.777-2.116,1.168-3.55,1.168c-1.775,0-3.234-0.666-4.375-2c-1.141-1.336-1.714-3.158-1.714-5.472
				c0-2.444,0.575-4.346,1.723-5.7c1.148-1.354,2.659-2.029,4.53-2.029c1.635,0,2.962,0.531,3.983,1.594
				c0.607,0.628,1.063,1.531,1.366,2.707l-2.67,0.703C40.653,73.688,40.323,73.086,39.821,72.645L39.821,72.645z M57.185,81.157
				c-0.147,0.728-0.415,1.344-0.808,1.845c-0.391,0.502-0.916,0.9-1.572,1.198c-0.657,0.297-1.513,0.446-2.571,0.446
				c-1.276,0-2.243-0.162-2.902-0.486c-0.659-0.323-1.181-0.745-1.563-1.264c-0.383-0.518-0.635-1.061-0.756-1.629
				c-0.178-0.842-0.265-2.086-0.265-3.729v-7.843h2.697v7.962c0,1.265,0.034,2.084,0.102,2.456c0.115,0.603,0.389,1.086,0.824,1.449
				c0.434,0.365,1.029,0.549,1.783,0.549c0.766,0,1.342-0.174,1.731-0.518c0.389-0.344,0.622-0.767,0.701-1.268
				c0.079-0.502,0.12-1.334,0.12-2.497v-8.132h2.697v7.72C57.403,79.182,57.331,80.428,57.185,81.157L57.185,81.157z M68.591,77.909
				c0.583,0.373,1.063,0.784,1.446,1.231c0.38,0.449,0.893,1.244,1.536,2.387l1.631,2.867h-3.228l-1.951-3.197
				c-0.692-1.145-1.166-1.864-1.42-2.161c-0.255-0.297-0.527-0.501-0.812-0.612c-0.286-0.109-0.74-0.165-1.358-0.165h-0.548v6.136
				h-2.697V69.695h5.677c1.429,0,2.466,0.132,3.114,0.396c0.646,0.264,1.164,0.733,1.554,1.408c0.389,0.675,0.583,1.447,0.583,2.316
				c0,1.103-0.294,2.014-0.883,2.73C70.646,77.268,69.764,77.721,68.591,77.909L68.591,77.909z M68.979,72.811
				c-0.24-0.305-0.578-0.496-1.016-0.578c-0.22-0.033-0.875-0.049-1.969-0.049h-2.106v3.729h1.996c1.294,0,2.103-0.061,2.425-0.18
				c0.322-0.121,0.574-0.328,0.756-0.621c0.182-0.295,0.273-0.662,0.273-1.104C69.339,73.514,69.221,73.113,68.979,72.811
				L68.979,72.811z M81.548,84.395h-2.881l-4.776-14.699h2.928l3.382,10.88l3.272-10.88h2.861L81.548,84.395L81.548,84.395z
				 M98.807,81.919v2.476H88.645V69.695h9.906v2.486h-7.21v3.26h6.709v2.476h-6.709v4.001L98.807,81.919L98.807,81.919z"/>
		</g>
		<g>
			<path id="SVGID_3_" fill="none" stroke="#000000" stroke-width="0.5" stroke-miterlimit="10" d="M38.71,49.997
				c-0.38-0.331-0.95-0.496-1.709-0.496c-0.785,0-1.399,0.176-1.841,0.531c-0.286,0.226-0.428,0.531-0.428,0.913
				c0,0.347,0.132,0.644,0.401,0.892c0.339,0.315,1.166,0.641,2.479,0.982c1.313,0.341,2.284,0.694,2.912,1.058
				c0.628,0.365,1.121,0.862,1.476,1.494s0.533,1.413,0.533,2.342c0,0.841-0.212,1.631-0.638,2.366
				c-0.425,0.735-1.027,1.282-1.804,1.639c-0.779,0.357-1.748,0.536-2.907,0.536c-1.689,0-2.988-0.43-3.893-1.289
				c-0.906-0.858-1.447-2.109-1.623-3.755l2.626-0.279c0.157,0.969,0.478,1.681,0.961,2.135s1.135,0.682,1.956,0.682
				c0.869,0,1.523-0.202,1.964-0.607c0.439-0.404,0.661-0.877,0.661-1.418c0-0.347-0.094-0.643-0.278-0.887
				c-0.186-0.244-0.509-0.457-0.971-0.638c-0.317-0.119-1.037-0.333-2.161-0.641c-1.446-0.394-2.461-0.879-3.045-1.454
				c-0.82-0.809-1.231-1.794-1.231-2.957c0-0.749,0.194-1.449,0.58-2.101c0.386-0.651,0.942-1.148,1.668-1.489
				c0.725-0.341,1.602-0.51,2.629-0.51c1.677,0,2.94,0.404,3.788,1.213c0.846,0.809,1.292,1.888,1.334,3.238l-2.697,0.131
				C39.336,50.871,39.089,50.328,38.71,49.997L38.71,49.997z M53.73,61.995v-6.428h-5.286v6.428h-2.699v-14.7h2.699v5.785h5.286
				v-5.785h2.697v14.699L53.73,61.995L53.73,61.995z M69.268,61.995l-1.168-3.34h-5.342l-1.103,3.34h-2.862l5.206-14.699h2.853
				l5.351,14.699H69.268L69.268,61.995z M65.392,50.724l-1.804,5.454h3.645L65.392,50.724L65.392,50.724z M81.977,55.506
				c0.582,0.375,1.063,0.785,1.445,1.234c0.38,0.447,0.893,1.242,1.534,2.386l1.633,2.869h-3.228l-1.95-3.2
				c-0.693-1.142-1.166-1.862-1.421-2.159c-0.256-0.299-0.527-0.502-0.813-0.612c-0.283-0.11-0.738-0.166-1.357-0.166h-0.547v6.138
				h-2.699V47.295h5.679c1.429,0,2.466,0.132,3.114,0.396c0.646,0.265,1.165,0.733,1.554,1.408c0.39,0.675,0.583,1.447,0.583,2.316
				c0,1.103-0.294,2.014-0.883,2.733C84.031,54.867,83.148,55.319,81.977,55.506L81.977,55.506z M82.363,50.407
				c-0.24-0.304-0.577-0.496-1.016-0.577c-0.22-0.032-0.875-0.05-1.969-0.05h-2.105v3.73h1.996c1.293,0,2.103-0.06,2.424-0.181
				c0.32-0.12,0.574-0.328,0.756-0.622s0.275-0.662,0.275-1.103C82.725,51.112,82.604,50.713,82.363,50.407L82.363,50.407z
				 M98.771,54.093c-0.299,0.615-0.678,1.098-1.135,1.449c-0.46,0.35-0.926,0.583-1.4,0.696c-0.644,0.141-1.577,0.212-2.799,0.212
				H91.68v5.545h-2.697v-14.7h4.328c1.642,0,2.711,0.073,3.209,0.22c0.767,0.221,1.407,0.701,1.922,1.439
				c0.518,0.74,0.775,1.693,0.775,2.864C99.216,52.719,99.068,53.478,98.771,54.093L98.771,54.093z M96.009,50.533
				c-0.286-0.347-0.647-0.565-1.085-0.651c-0.32-0.068-0.969-0.102-1.941-0.102H91.68v4.172h1.477c1.064,0,1.775-0.078,2.134-0.231
				c0.358-0.153,0.64-0.394,0.843-0.722c0.204-0.328,0.305-0.707,0.305-1.144C96.438,51.322,96.293,50.881,96.009,50.533
				L96.009,50.533z M39.821,72.645c-0.501-0.442-1.11-0.662-1.827-0.662c-0.99,0-1.794,0.392-2.411,1.174
				c-0.617,0.781-0.925,2.05-0.925,3.8c0,1.856,0.304,3.183,0.913,3.97c0.607,0.79,1.397,1.184,2.369,1.184
				c0.717,0,1.334-0.25,1.851-0.752c0.515-0.502,0.887-1.291,1.111-2.366l2.617,0.913c-0.401,1.604-1.068,2.796-2.001,3.574
				c-0.932,0.777-2.116,1.168-3.55,1.168c-1.775,0-3.234-0.666-4.375-2c-1.141-1.336-1.714-3.158-1.714-5.472
				c0-2.444,0.575-4.346,1.723-5.7c1.148-1.354,2.659-2.029,4.53-2.029c1.635,0,2.962,0.531,3.983,1.594
				c0.607,0.628,1.063,1.531,1.366,2.707l-2.67,0.703C40.653,73.688,40.323,73.086,39.821,72.645L39.821,72.645z M57.185,81.157
				c-0.147,0.728-0.415,1.344-0.808,1.845c-0.391,0.502-0.916,0.9-1.572,1.198c-0.657,0.297-1.513,0.446-2.571,0.446
				c-1.276,0-2.243-0.162-2.902-0.486c-0.659-0.323-1.181-0.745-1.563-1.264c-0.383-0.518-0.635-1.061-0.756-1.629
				c-0.178-0.842-0.265-2.086-0.265-3.729v-7.843h2.697v7.962c0,1.265,0.034,2.084,0.102,2.456c0.115,0.603,0.389,1.086,0.824,1.449
				c0.434,0.365,1.029,0.549,1.783,0.549c0.766,0,1.342-0.174,1.731-0.518c0.389-0.344,0.622-0.767,0.701-1.268
				c0.079-0.502,0.12-1.334,0.12-2.497v-8.132h2.697v7.72C57.403,79.182,57.331,80.428,57.185,81.157L57.185,81.157z M68.591,77.909
				c0.583,0.373,1.063,0.784,1.446,1.231c0.38,0.449,0.893,1.244,1.536,2.387l1.631,2.867h-3.228l-1.951-3.197
				c-0.692-1.145-1.166-1.864-1.42-2.161c-0.255-0.297-0.527-0.501-0.812-0.612c-0.286-0.109-0.74-0.165-1.358-0.165h-0.548v6.136
				h-2.697V69.695h5.677c1.429,0,2.466,0.132,3.114,0.396c0.646,0.264,1.164,0.733,1.554,1.408c0.389,0.675,0.583,1.447,0.583,2.316
				c0,1.103-0.294,2.014-0.883,2.73C70.646,77.268,69.764,77.721,68.591,77.909L68.591,77.909z M68.979,72.811
				c-0.24-0.305-0.578-0.496-1.016-0.578c-0.22-0.033-0.875-0.049-1.969-0.049h-2.106v3.729h1.996c1.294,0,2.103-0.061,2.425-0.18
				c0.322-0.121,0.574-0.328,0.756-0.621c0.182-0.295,0.273-0.662,0.273-1.104C69.339,73.514,69.221,73.113,68.979,72.811
				L68.979,72.811z M81.548,84.395h-2.881l-4.776-14.699h2.928l3.382,10.88l3.272-10.88h2.861L81.548,84.395L81.548,84.395z
				 M98.807,81.919v2.476H88.645V69.695h9.906v2.486h-7.21v3.26h6.709v2.476h-6.709v4.001L98.807,81.919L98.807,81.919z"/>
		</g>
	</g>
	
		<linearGradient id="SVGID_10_" gradientUnits="userSpaceOnUse" x1="219.0254" y1="-190.6934" x2="158.3049" y2="-103.9756" gradientTransform="matrix(1 0 0 -1 -123.165 -81.835)">
		<stop  offset="0" style="stop-color:#000000;stop-opacity:0"/>
		<stop  offset="1" style="stop-color:#FFFFFF;stop-opacity:0.25"/>
	</linearGradient>
	<path fill="url(#SVGID_10_)" d="M71.428,5.262l54.309,54.311c3.302,3.301,3.302,8.653,0,11.956l-54.207,54.207
		c-3.301,3.303-8.654,3.303-11.955,0L5.263,71.427c-3.301-3.301-3.301-8.654,0-11.955l54.208-54.21
		C62.772,1.961,68.126,1.961,71.428,5.262L71.428,5.262z"/>
</g>
<g id="normal">
	<g>
		<g>
			
				<linearGradient id="SVGID_13_" gradientUnits="userSpaceOnUse" x1="126.9521" y1="-148.335" x2="252.3779" y2="-148.335" gradientTransform="matrix(1 0 0 -1 -123.165 -81.835)">
				<stop  offset="0" style="stop-color:#000000;stop-opacity:0.6"/>
				<stop  offset="1" style="stop-color:#000000;stop-opacity:0.6"/>
			</linearGradient>
			<path id="SVGID_11_" fill="url(#SVGID_13_)" d="M72.428,6.262l54.309,54.311c3.302,3.301,3.302,8.653,0,11.956l-54.207,54.207
				c-3.301,3.303-8.654,3.303-11.955,0L6.263,72.427c-3.301-3.301-3.301-8.654,0-11.955l54.208-54.21
				C63.772,2.961,69.126,2.961,72.428,6.262L72.428,6.262z"/>
		</g>
		<g>
			<path id="SVGID_12_" fill="#FFDF0A" d="M71.428,5.262l54.309,54.311c3.302,3.301,3.302,8.653,0,11.956l-54.207,54.207
				c-3.301,3.303-8.654,3.303-11.955,0L5.263,71.427c-3.301-3.301-3.301-8.654,0-11.955l54.208-54.21
				C62.772,1.961,68.126,1.961,71.428,5.262L71.428,5.262z"/>
		</g>
		<g>
			<defs>
				<path id="SVGID_14_" d="M72.428,6.262l54.309,54.311c3.302,3.301,3.302,8.653,0,11.956l-54.207,54.207
					c-3.301,3.303-8.654,3.303-11.955,0L6.263,72.427c-3.301-3.301-3.301-8.654,0-11.955l54.208-54.21
					C63.772,2.961,69.126,2.961,72.428,6.262L72.428,6.262z"/>
			</defs>
			<clipPath id="SVGID_15_">
				<use xlink:href="#SVGID_14_"  overflow="visible"/>
			</clipPath>
		</g>
	</g>
	<g>
		<g>
			<path id="SVGID_16_" d="M123.159,71.271l-51.888,51.888c-3.162,3.161-8.285,3.161-11.443,0L7.842,71.173
				c-3.161-3.159-3.161-8.284,0-11.445L59.729,7.842c3.161-3.159,8.285-3.159,11.445,0l51.985,51.985
				C126.318,62.988,126.318,68.113,123.159,71.271L123.159,71.271z M122.533,62.849L68.205,8.52c-1.463-1.463-3.838-1.463-5.301,0
				L8.576,62.849c-1.463,1.463-1.463,3.836,0,5.301l54.329,54.328c1.463,1.463,3.838,1.463,5.301,0l54.327-54.328
				C123.998,66.686,123.998,64.312,122.533,62.849L122.533,62.849z"/>
		</g>
	</g>
	<g>
		<g>
			<path id="SVGID_18_" d="M38.71,49.997c-0.38-0.331-0.95-0.496-1.709-0.496c-0.785,0-1.399,0.176-1.841,0.531
				c-0.286,0.226-0.428,0.531-0.428,0.913c0,0.347,0.132,0.644,0.401,0.892c0.339,0.315,1.166,0.641,2.479,0.982
				c1.313,0.341,2.284,0.694,2.912,1.058c0.628,0.365,1.121,0.862,1.476,1.494s0.533,1.413,0.533,2.342
				c0,0.841-0.212,1.631-0.638,2.366c-0.425,0.735-1.027,1.282-1.804,1.639c-0.779,0.357-1.748,0.536-2.907,0.536
				c-1.689,0-2.988-0.43-3.893-1.289c-0.906-0.858-1.447-2.109-1.623-3.755l2.626-0.279c0.157,0.969,0.478,1.681,0.961,2.135
				s1.135,0.682,1.956,0.682c0.869,0,1.523-0.202,1.964-0.607c0.439-0.404,0.661-0.877,0.661-1.418c0-0.347-0.094-0.643-0.278-0.887
				c-0.186-0.244-0.509-0.457-0.971-0.638c-0.317-0.119-1.037-0.333-2.161-0.641c-1.446-0.394-2.461-0.879-3.045-1.454
				c-0.82-0.809-1.231-1.794-1.231-2.957c0-0.749,0.194-1.449,0.58-2.101c0.386-0.651,0.942-1.148,1.668-1.489
				c0.725-0.341,1.602-0.51,2.629-0.51c1.677,0,2.94,0.404,3.788,1.213c0.846,0.809,1.292,1.888,1.334,3.238l-2.697,0.131
				C39.336,50.871,39.089,50.328,38.71,49.997L38.71,49.997z M53.73,61.995v-6.428h-5.286v6.428h-2.699v-14.7h2.699v5.785h5.286
				v-5.785h2.697v14.699L53.73,61.995L53.73,61.995z M69.268,61.995l-1.168-3.34h-5.342l-1.103,3.34h-2.862l5.206-14.699h2.853
				l5.351,14.699H69.268L69.268,61.995z M65.392,50.724l-1.804,5.454h3.645L65.392,50.724L65.392,50.724z M81.977,55.506
				c0.582,0.375,1.063,0.785,1.445,1.234c0.38,0.447,0.893,1.242,1.534,2.386l1.633,2.869h-3.228l-1.95-3.2
				c-0.693-1.142-1.166-1.862-1.421-2.159c-0.256-0.299-0.527-0.502-0.813-0.612c-0.283-0.11-0.738-0.166-1.357-0.166h-0.547v6.138
				h-2.699V47.295h5.679c1.429,0,2.466,0.132,3.114,0.396c0.646,0.265,1.165,0.733,1.554,1.408c0.39,0.675,0.583,1.447,0.583,2.316
				c0,1.103-0.294,2.014-0.883,2.733C84.031,54.867,83.148,55.319,81.977,55.506L81.977,55.506z M82.363,50.407
				c-0.24-0.304-0.577-0.496-1.016-0.577c-0.22-0.032-0.875-0.05-1.969-0.05h-2.105v3.73h1.996c1.293,0,2.103-0.06,2.424-0.181
				c0.32-0.12,0.574-0.328,0.756-0.622s0.275-0.662,0.275-1.103C82.725,51.112,82.604,50.713,82.363,50.407L82.363,50.407z
				 M98.771,54.093c-0.299,0.615-0.678,1.098-1.135,1.449c-0.46,0.35-0.926,0.583-1.4,0.696c-0.644,0.141-1.577,0.212-2.799,0.212
				H91.68v5.545h-2.697v-14.7h4.328c1.642,0,2.711,0.073,3.209,0.22c0.767,0.221,1.407,0.701,1.922,1.439
				c0.518,0.74,0.775,1.693,0.775,2.864C99.216,52.719,99.068,53.478,98.771,54.093L98.771,54.093z M96.009,50.533
				c-0.286-0.347-0.647-0.565-1.085-0.651c-0.32-0.068-0.969-0.102-1.941-0.102H91.68v4.172h1.477c1.064,0,1.775-0.078,2.134-0.231
				c0.358-0.153,0.64-0.394,0.843-0.722c0.204-0.328,0.305-0.707,0.305-1.144C96.438,51.322,96.293,50.881,96.009,50.533
				L96.009,50.533z M39.821,72.645c-0.501-0.442-1.11-0.662-1.827-0.662c-0.99,0-1.794,0.392-2.411,1.174
				c-0.617,0.781-0.925,2.05-0.925,3.8c0,1.856,0.304,3.183,0.913,3.97c0.607,0.79,1.397,1.184,2.369,1.184
				c0.717,0,1.334-0.25,1.851-0.752c0.515-0.502,0.887-1.291,1.111-2.366l2.617,0.913c-0.401,1.604-1.068,2.796-2.001,3.574
				c-0.932,0.777-2.116,1.168-3.55,1.168c-1.775,0-3.234-0.666-4.375-2c-1.141-1.336-1.714-3.158-1.714-5.472
				c0-2.444,0.575-4.346,1.723-5.7c1.148-1.354,2.659-2.029,4.53-2.029c1.635,0,2.962,0.531,3.983,1.594
				c0.607,0.628,1.063,1.531,1.366,2.707l-2.67,0.703C40.653,73.688,40.323,73.086,39.821,72.645L39.821,72.645z M57.185,81.157
				c-0.147,0.728-0.415,1.344-0.808,1.845c-0.391,0.502-0.916,0.9-1.572,1.198c-0.657,0.297-1.513,0.446-2.571,0.446
				c-1.276,0-2.243-0.162-2.902-0.486c-0.659-0.323-1.181-0.745-1.563-1.264c-0.383-0.518-0.635-1.061-0.756-1.629
				c-0.178-0.842-0.265-2.086-0.265-3.729v-7.843h2.697v7.962c0,1.265,0.034,2.084,0.102,2.456c0.115,0.603,0.389,1.086,0.824,1.449
				c0.434,0.365,1.029,0.549,1.783,0.549c0.766,0,1.342-0.174,1.731-0.518c0.389-0.344,0.622-0.767,0.701-1.268
				c0.079-0.502,0.12-1.334,0.12-2.497v-8.132h2.697v7.72C57.403,79.182,57.331,80.428,57.185,81.157L57.185,81.157z M68.591,77.909
				c0.583,0.373,1.063,0.784,1.446,1.231c0.38,0.449,0.893,1.244,1.536,2.387l1.631,2.867h-3.228l-1.951-3.197
				c-0.692-1.145-1.166-1.864-1.42-2.161c-0.255-0.297-0.527-0.501-0.812-0.612c-0.286-0.109-0.74-0.165-1.358-0.165h-0.548v6.136
				h-2.697V69.695h5.677c1.429,0,2.466,0.132,3.114,0.396c0.646,0.264,1.164,0.733,1.554,1.408c0.389,0.675,0.583,1.447,0.583,2.316
				c0,1.103-0.294,2.014-0.883,2.73C70.646,77.268,69.764,77.721,68.591,77.909L68.591,77.909z M68.979,72.811
				c-0.24-0.305-0.578-0.496-1.016-0.578c-0.22-0.033-0.875-0.049-1.969-0.049h-2.106v3.729h1.996c1.294,0,2.103-0.061,2.425-0.18
				c0.322-0.121,0.574-0.328,0.756-0.621c0.182-0.295,0.273-0.662,0.273-1.104C69.339,73.514,69.221,73.113,68.979,72.811
				L68.979,72.811z M81.548,84.395h-2.881l-4.776-14.699h2.928l3.382,10.88l3.272-10.88h2.861L81.548,84.395L81.548,84.395z
				 M98.807,81.919v2.476H88.645V69.695h9.906v2.486h-7.21v3.26h6.709v2.476h-6.709v4.001L98.807,81.919L98.807,81.919z"/>
		</g>
		<g>
			<path id="SVGID_4_" fill="none" stroke="#000000" stroke-width="0.5" stroke-miterlimit="10" d="M38.71,49.997
				c-0.38-0.331-0.95-0.496-1.709-0.496c-0.785,0-1.399,0.176-1.841,0.531c-0.286,0.226-0.428,0.531-0.428,0.913
				c0,0.347,0.132,0.644,0.401,0.892c0.339,0.315,1.166,0.641,2.479,0.982c1.313,0.341,2.284,0.694,2.912,1.058
				c0.628,0.365,1.121,0.862,1.476,1.494s0.533,1.413,0.533,2.342c0,0.841-0.212,1.631-0.638,2.366
				c-0.425,0.735-1.027,1.282-1.804,1.639c-0.779,0.357-1.748,0.536-2.907,0.536c-1.689,0-2.988-0.43-3.893-1.289
				c-0.906-0.858-1.447-2.109-1.623-3.755l2.626-0.279c0.157,0.969,0.478,1.681,0.961,2.135s1.135,0.682,1.956,0.682
				c0.869,0,1.523-0.202,1.964-0.607c0.439-0.404,0.661-0.877,0.661-1.418c0-0.347-0.094-0.643-0.278-0.887
				c-0.186-0.244-0.509-0.457-0.971-0.638c-0.317-0.119-1.037-0.333-2.161-0.641c-1.446-0.394-2.461-0.879-3.045-1.454
				c-0.82-0.809-1.231-1.794-1.231-2.957c0-0.749,0.194-1.449,0.58-2.101c0.386-0.651,0.942-1.148,1.668-1.489
				c0.725-0.341,1.602-0.51,2.629-0.51c1.677,0,2.94,0.404,3.788,1.213c0.846,0.809,1.292,1.888,1.334,3.238l-2.697,0.131
				C39.336,50.871,39.089,50.328,38.71,49.997L38.71,49.997z M53.73,61.995v-6.428h-5.286v6.428h-2.699v-14.7h2.699v5.785h5.286
				v-5.785h2.697v14.699L53.73,61.995L53.73,61.995z M69.268,61.995l-1.168-3.34h-5.342l-1.103,3.34h-2.862l5.206-14.699h2.853
				l5.351,14.699H69.268L69.268,61.995z M65.392,50.724l-1.804,5.454h3.645L65.392,50.724L65.392,50.724z M81.977,55.506
				c0.582,0.375,1.063,0.785,1.445,1.234c0.38,0.447,0.893,1.242,1.534,2.386l1.633,2.869h-3.228l-1.95-3.2
				c-0.693-1.142-1.166-1.862-1.421-2.159c-0.256-0.299-0.527-0.502-0.813-0.612c-0.283-0.11-0.738-0.166-1.357-0.166h-0.547v6.138
				h-2.699V47.295h5.679c1.429,0,2.466,0.132,3.114,0.396c0.646,0.265,1.165,0.733,1.554,1.408c0.39,0.675,0.583,1.447,0.583,2.316
				c0,1.103-0.294,2.014-0.883,2.733C84.031,54.867,83.148,55.319,81.977,55.506L81.977,55.506z M82.363,50.407
				c-0.24-0.304-0.577-0.496-1.016-0.577c-0.22-0.032-0.875-0.05-1.969-0.05h-2.105v3.73h1.996c1.293,0,2.103-0.06,2.424-0.181
				c0.32-0.12,0.574-0.328,0.756-0.622s0.275-0.662,0.275-1.103C82.725,51.112,82.604,50.713,82.363,50.407L82.363,50.407z
				 M98.771,54.093c-0.299,0.615-0.678,1.098-1.135,1.449c-0.46,0.35-0.926,0.583-1.4,0.696c-0.644,0.141-1.577,0.212-2.799,0.212
				H91.68v5.545h-2.697v-14.7h4.328c1.642,0,2.711,0.073,3.209,0.22c0.767,0.221,1.407,0.701,1.922,1.439
				c0.518,0.74,0.775,1.693,0.775,2.864C99.216,52.719,99.068,53.478,98.771,54.093L98.771,54.093z M96.009,50.533
				c-0.286-0.347-0.647-0.565-1.085-0.651c-0.32-0.068-0.969-0.102-1.941-0.102H91.68v4.172h1.477c1.064,0,1.775-0.078,2.134-0.231
				c0.358-0.153,0.64-0.394,0.843-0.722c0.204-0.328,0.305-0.707,0.305-1.144C96.438,51.322,96.293,50.881,96.009,50.533
				L96.009,50.533z M39.821,72.645c-0.501-0.442-1.11-0.662-1.827-0.662c-0.99,0-1.794,0.392-2.411,1.174
				c-0.617,0.781-0.925,2.05-0.925,3.8c0,1.856,0.304,3.183,0.913,3.97c0.607,0.79,1.397,1.184,2.369,1.184
				c0.717,0,1.334-0.25,1.851-0.752c0.515-0.502,0.887-1.291,1.111-2.366l2.617,0.913c-0.401,1.604-1.068,2.796-2.001,3.574
				c-0.932,0.777-2.116,1.168-3.55,1.168c-1.775,0-3.234-0.666-4.375-2c-1.141-1.336-1.714-3.158-1.714-5.472
				c0-2.444,0.575-4.346,1.723-5.7c1.148-1.354,2.659-2.029,4.53-2.029c1.635,0,2.962,0.531,3.983,1.594
				c0.607,0.628,1.063,1.531,1.366,2.707l-2.67,0.703C40.653,73.688,40.323,73.086,39.821,72.645L39.821,72.645z M57.185,81.157
				c-0.147,0.728-0.415,1.344-0.808,1.845c-0.391,0.502-0.916,0.9-1.572,1.198c-0.657,0.297-1.513,0.446-2.571,0.446
				c-1.276,0-2.243-0.162-2.902-0.486c-0.659-0.323-1.181-0.745-1.563-1.264c-0.383-0.518-0.635-1.061-0.756-1.629
				c-0.178-0.842-0.265-2.086-0.265-3.729v-7.843h2.697v7.962c0,1.265,0.034,2.084,0.102,2.456c0.115,0.603,0.389,1.086,0.824,1.449
				c0.434,0.365,1.029,0.549,1.783,0.549c0.766,0,1.342-0.174,1.731-0.518c0.389-0.344,0.622-0.767,0.701-1.268
				c0.079-0.502,0.12-1.334,0.12-2.497v-8.132h2.697v7.72C57.403,79.182,57.331,80.428,57.185,81.157L57.185,81.157z M68.591,77.909
				c0.583,0.373,1.063,0.784,1.446,1.231c0.38,0.449,0.893,1.244,1.536,2.387l1.631,2.867h-3.228l-1.951-3.197
				c-0.692-1.145-1.166-1.864-1.42-2.161c-0.255-0.297-0.527-0.501-0.812-0.612c-0.286-0.109-0.74-0.165-1.358-0.165h-0.548v6.136
				h-2.697V69.695h5.677c1.429,0,2.466,0.132,3.114,0.396c0.646,0.264,1.164,0.733,1.554,1.408c0.389,0.675,0.583,1.447,0.583,2.316
				c0,1.103-0.294,2.014-0.883,2.73C70.646,77.268,69.764,77.721,68.591,77.909L68.591,77.909z M68.979,72.811
				c-0.24-0.305-0.578-0.496-1.016-0.578c-0.22-0.033-0.875-0.049-1.969-0.049h-2.106v3.729h1.996c1.294,0,2.103-0.061,2.425-0.18
				c0.322-0.121,0.574-0.328,0.756-0.621c0.182-0.295,0.273-0.662,0.273-1.104C69.339,73.514,69.221,73.113,68.979,72.811
				L68.979,72.811z M81.548,84.395h-2.881l-4.776-14.699h2.928l3.382,10.88l3.272-10.88h2.861L81.548,84.395L81.548,84.395z
				 M98.807,81.919v2.476H88.645V69.695h9.906v2.486h-7.21v3.26h6.709v2.476h-6.709v4.001L98.807,81.919L98.807,81.919z"/>
		</g>
	</g>
	
		<linearGradient id="SVGID_17_" gradientUnits="userSpaceOnUse" x1="219.0254" y1="-190.6934" x2="158.3049" y2="-103.9756" gradientTransform="matrix(1 0 0 -1 -123.165 -81.835)">
		<stop  offset="0" style="stop-color:#000000;stop-opacity:0"/>
		<stop  offset="1" style="stop-color:#FFFFFF;stop-opacity:0.25"/>
	</linearGradient>
	<path fill="url(#SVGID_17_)" d="M71.428,5.262l54.309,54.311c3.302,3.301,3.302,8.653,0,11.956l-54.207,54.207
		c-3.301,3.303-8.654,3.303-11.955,0L5.263,71.427c-3.301-3.301-3.301-8.654,0-11.955l54.208-54.21
		C62.772,1.961,68.126,1.961,71.428,5.262L71.428,5.262z"/>
</g>
</svg>
