<?xml version="1.0" encoding="utf-8"?>
<!-- Generator: Adobe Illustrator 16.0.0, SVG Export Plug-In . SVG Version: 6.00 Build 0)  -->
<!DOCTYPE svg PUBLIC "-//W3C//DTD SVG 1.1//EN" "http://www.w3.org/Graphics/SVG/1.1/DTD/svg11.dtd">
<svg version="1.1" id="Layer_1" xmlns="http://www.w3.org/2000/svg" xmlns:xlink="http://www.w3.org/1999/xlink" x="0px" y="0px"
	 width="132px" height="132px" viewBox="0 0 132 132" enable-background="new 0 0 132 132" xml:space="preserve">
<g id="disabled">
	<g>
		<g>
			
				<linearGradient id="SVGID_5_" gradientUnits="userSpaceOnUse" x1="126.9521" y1="-148.335" x2="252.3779" y2="-148.335" gradientTransform="matrix(1 0 0 -1 -123.165 -81.835)">
				<stop  offset="0" style="stop-color:#000000;stop-opacity:0.6"/>
				<stop  offset="1" style="stop-color:#000000;stop-opacity:0.6"/>
			</linearGradient>
			<path id="SVGID_1_" fill="url(#SVGID_5_)" d="M72.428,6.263l54.309,54.311c3.302,3.301,3.302,8.654,0,11.955l-54.207,54.207
				c-3.301,3.302-8.654,3.302-11.955,0L6.263,72.428c-3.301-3.301-3.301-8.654,0-11.955l54.208-54.21
				C63.772,2.962,69.126,2.962,72.428,6.263L72.428,6.263z"/>
		</g>
		<g>
			<path id="SVGID_2_" fill="#D1D1D1" d="M71.428,5.263l54.309,54.311c3.302,3.301,3.302,8.654,0,11.955l-54.207,54.207
				c-3.301,3.302-8.654,3.302-11.955,0L5.263,71.428c-3.301-3.301-3.301-8.654,0-11.955l54.208-54.21
				C62.772,1.962,68.126,1.962,71.428,5.263L71.428,5.263z"/>
		</g>
		<g>
			<defs>
				<path id="SVGID_7_" d="M72.428,6.263l54.309,54.311c3.302,3.301,3.302,8.654,0,11.955l-54.207,54.207
					c-3.301,3.302-8.654,3.302-11.955,0L6.263,72.428c-3.301-3.301-3.301-8.654,0-11.955l54.208-54.21
					C63.772,2.962,69.126,2.962,72.428,6.263L72.428,6.263z"/>
			</defs>
			<clipPath id="SVGID_9_">
				<use xlink:href="#SVGID_7_"  overflow="visible"/>
			</clipPath>
		</g>
	</g>
	<g>
		<g>
			<path id="SVGID_6_" d="M123.159,71.271l-51.888,51.888c-3.162,3.161-8.285,3.161-11.443,0L7.842,71.174
				c-3.161-3.158-3.161-8.284,0-11.445L59.729,7.842c3.161-3.161,8.285-3.161,11.445,0l51.985,51.985
				C126.318,62.987,126.318,68.111,123.159,71.271L123.159,71.271z M122.533,62.85L68.205,8.521c-1.463-1.463-3.838-1.463-5.301,0
				L8.576,62.85c-1.463,1.463-1.463,3.837,0,5.3l54.329,54.33c1.463,1.463,3.838,1.463,5.301,0l54.327-54.33
				C123.998,66.688,123.998,64.313,122.533,62.85L122.533,62.85z"/>
		</g>
	</g>
	<g>
		<g>
			<path id="SVGID_8_" d="M47.31,44.821c0.525,0.373,0.958,0.782,1.3,1.226c0.342,0.444,0.803,1.236,1.383,2.371l1.468,2.848h-2.904
				l-1.756-3.177c-0.623-1.135-1.05-1.851-1.279-2.147s-0.473-0.497-0.73-0.607s-0.665-0.165-1.223-0.165h-0.493v6.096h-2.428
				V36.665h5.11c1.286,0,2.219,0.131,2.802,0.394c0.581,0.262,1.048,0.728,1.399,1.399c0.349,0.67,0.525,1.438,0.525,2.3
				c0,1.097-0.267,2.001-0.796,2.715C49.158,44.186,48.366,44.635,47.31,44.821L47.31,44.821z M47.659,39.758
				c-0.216-0.302-0.522-0.494-0.914-0.573c-0.197-0.032-0.788-0.05-1.772-0.05h-1.896v3.705h1.798c1.165,0,1.891-0.06,2.182-0.179
				c0.289-0.12,0.517-0.325,0.68-0.617c0.165-0.292,0.247-0.657,0.247-1.095C47.984,40.455,47.875,40.06,47.659,39.758
				L47.659,39.758z M63.203,49.518c-1.056,1.331-2.466,1.996-4.233,1.996c-1.788,0-3.209-0.662-4.266-1.987
				c-1.055-1.324-1.583-3.148-1.583-5.472c0-1.488,0.183-2.736,0.549-3.746c0.275-0.743,0.648-1.412,1.121-2.003
				c0.472-0.59,0.99-1.029,1.554-1.315c0.749-0.384,1.614-0.577,2.592-0.577c1.772,0,3.19,0.667,4.253,2.001
				c1.064,1.336,1.596,3.192,1.596,5.567C64.786,46.343,64.258,48.187,63.203,49.518L63.203,49.518z M61.37,40.171
				c-0.604-0.824-1.407-1.236-2.408-1.236c-1,0-1.807,0.417-2.42,1.25c-0.612,0.833-0.919,2.09-0.919,3.77
				c0,1.654,0.315,2.907,0.943,3.76s1.428,1.279,2.395,1.279c0.967,0,1.762-0.423,2.384-1.27c0.62-0.846,0.93-2.116,0.93-3.81
				C62.276,42.242,61.974,40.993,61.37,40.171L61.37,40.171z M75.725,51.266l-1.051-3.316h-4.807l-0.993,3.316H66.3l4.685-14.601
				h2.565l4.816,14.601H75.725L75.725,51.266z M72.238,40.071l-1.625,5.419h3.281L72.238,40.071L72.238,40.071z M90.199,47.212
				c-0.303,1.063-0.73,1.924-1.289,2.581c-0.422,0.497-0.99,0.885-1.706,1.165c-0.536,0.207-1.253,0.309-2.149,0.309h-4.57V36.665
				h4.438c1,0,1.765,0.094,2.289,0.279c0.706,0.252,1.31,0.699,1.812,1.344c0.504,0.644,0.888,1.433,1.148,2.366
				c0.264,0.932,0.395,2.084,0.395,3.45C90.566,45.307,90.443,46.343,90.199,47.212L90.199,47.212z M87.813,41.376
				c-0.166-0.604-0.395-1.076-0.69-1.415s-0.67-0.567-1.124-0.686c-0.339-0.094-1.003-0.141-1.993-0.141h-1.09v9.672h1.812
				c0.678,0,1.168-0.047,1.469-0.139c0.394-0.12,0.72-0.323,0.979-0.607c0.261-0.286,0.472-0.756,0.636-1.41
				c0.164-0.654,0.246-1.546,0.246-2.675S87.975,41.98,87.813,41.376L87.813,41.376z M26.912,73.52l-4.849-9.523v9.523h-2.255
				V58.917h2.361l4.923,9.752v-9.752h2.255V73.52H26.912L26.912,73.52z M40.959,73.52l-1.05-3.318h-4.807l-0.993,3.318h-2.576
				l4.684-14.604h2.568L43.6,73.52H40.959L40.959,73.52z M37.472,62.323l-1.623,5.419h3.28L37.472,62.323L37.472,62.323z
				 M52.398,67.075c0.525,0.37,0.958,0.78,1.3,1.224c0.342,0.446,0.803,1.236,1.383,2.371l1.468,2.85h-2.904l-1.756-3.178
				c-0.623-1.135-1.05-1.851-1.279-2.146c-0.229-0.297-0.473-0.5-0.73-0.609c-0.257-0.107-0.665-0.163-1.223-0.163h-0.493v6.097
				h-2.428V58.917h5.11c1.286,0,2.219,0.132,2.802,0.394c0.581,0.262,1.048,0.728,1.397,1.399c0.35,0.672,0.527,1.438,0.527,2.302
				c0,1.095-0.266,2-0.796,2.713C54.246,66.438,53.453,66.889,52.398,67.075L52.398,67.075z M52.747,62.01
				c-0.216-0.302-0.522-0.493-0.914-0.572c-0.197-0.034-0.788-0.05-1.772-0.05h-1.896v3.705h1.798c1.165,0,1.891-0.06,2.182-0.179
				c0.289-0.12,0.517-0.326,0.68-0.619c0.165-0.292,0.245-0.657,0.245-1.095C53.07,62.709,52.963,62.312,52.747,62.01L52.747,62.01z
				 M65.371,67.075c0.525,0.37,0.958,0.78,1.3,1.224c0.341,0.446,0.804,1.236,1.384,2.371l1.467,2.85h-2.903l-1.756-3.178
				c-0.623-1.135-1.05-1.851-1.279-2.146c-0.231-0.297-0.473-0.5-0.73-0.609c-0.258-0.107-0.665-0.163-1.223-0.163h-0.493v6.097
				H58.71V58.917h5.11c1.286,0,2.219,0.132,2.801,0.394c0.583,0.262,1.05,0.728,1.398,1.399c0.351,0.672,0.525,1.438,0.525,2.302
				c0,1.095-0.266,2-0.795,2.713C67.219,66.438,66.425,66.889,65.371,67.075L65.371,67.075z M65.72,62.01
				c-0.216-0.302-0.522-0.493-0.916-0.572c-0.197-0.034-0.787-0.05-1.772-0.05h-1.895v3.705h1.796c1.166,0,1.893-0.06,2.182-0.179
				c0.291-0.12,0.517-0.326,0.682-0.619c0.163-0.292,0.245-0.657,0.245-1.095C66.043,62.709,65.934,62.312,65.72,62.01L65.72,62.01z
				 M81.264,71.77c-1.056,1.334-2.466,1.998-4.232,1.998c-1.788,0-3.211-0.662-4.266-1.986c-1.057-1.326-1.584-3.15-1.584-5.474
				c0-1.488,0.182-2.736,0.549-3.746c0.273-0.743,0.646-1.41,1.119-2.001c0.474-0.591,0.992-1.029,1.555-1.315
				c0.75-0.386,1.613-0.578,2.593-0.578c1.772,0,3.188,0.667,4.253,2.003c1.064,1.334,1.596,3.19,1.596,5.567
				C82.848,68.596,82.318,70.439,81.264,71.77L81.264,71.77z M79.432,62.423c-0.606-0.824-1.408-1.236-2.408-1.236
				c-1.002,0-1.808,0.417-2.42,1.25c-0.613,0.833-0.918,2.09-0.918,3.77c0,1.654,0.313,2.907,0.942,3.76
				c0.628,0.854,1.429,1.281,2.396,1.281s1.762-0.423,2.381-1.271c0.623-0.846,0.933-2.115,0.933-3.809
				C80.337,64.495,80.035,63.247,79.432,62.423L79.432,62.423z M97.279,73.52h-2.575l-2.396-10.917L89.922,73.52h-2.633
				l-2.872-14.604h2.485l1.813,10.029l2.198-10.029h2.888l2.109,10.2l1.844-10.2h2.445L97.279,73.52L97.279,73.52z M107.999,61.601
				c-0.341-0.328-0.854-0.493-1.538-0.493c-0.706,0-1.258,0.176-1.656,0.528c-0.258,0.226-0.387,0.528-0.387,0.906
				c0,0.346,0.121,0.641,0.361,0.887c0.306,0.312,1.051,0.638,2.232,0.976c1.182,0.339,2.055,0.689,2.62,1.051
				c0.565,0.362,1.009,0.856,1.329,1.483c0.32,0.627,0.48,1.402,0.48,2.326c0,0.838-0.192,1.62-0.575,2.351
				c-0.384,0.729-0.925,1.272-1.623,1.628c-0.701,0.355-1.573,0.533-2.617,0.533c-1.521,0-2.688-0.426-3.503-1.279
				c-0.816-0.854-1.303-2.096-1.46-3.73l2.362-0.279c0.143,0.964,0.431,1.669,0.865,2.121c0.436,0.453,1.021,0.678,1.76,0.678
				c0.783,0,1.371-0.2,1.768-0.602s0.596-0.871,0.596-1.408c0-0.346-0.084-0.641-0.25-0.883c-0.168-0.242-0.459-0.453-0.873-0.633
				c-0.285-0.119-0.935-0.33-1.945-0.636c-1.303-0.392-2.215-0.874-2.739-1.444c-0.738-0.804-1.108-1.783-1.108-2.94
				c0-0.743,0.174-1.439,0.522-2.087c0.347-0.646,0.846-1.14,1.5-1.478c0.653-0.339,1.442-0.509,2.366-0.509
				c1.51,0,2.646,0.402,3.41,1.205c0.762,0.804,1.162,1.877,1.201,3.217l-2.429,0.129C108.564,62.47,108.342,61.931,107.999,61.601
				L107.999,61.601z"/>
		</g>
		<g>
			<path id="SVGID_3_" fill="none" stroke="#000000" stroke-width="0.5" stroke-miterlimit="10" d="M47.31,44.821
				c0.525,0.373,0.958,0.782,1.3,1.226c0.342,0.444,0.803,1.236,1.383,2.371l1.468,2.848h-2.904l-1.756-3.177
				c-0.623-1.135-1.05-1.851-1.279-2.147s-0.473-0.497-0.73-0.607s-0.665-0.165-1.223-0.165h-0.493v6.096h-2.428V36.665h5.11
				c1.286,0,2.219,0.131,2.802,0.394c0.581,0.262,1.048,0.728,1.399,1.399c0.349,0.67,0.525,1.438,0.525,2.3
				c0,1.097-0.267,2.001-0.796,2.715C49.158,44.186,48.366,44.635,47.31,44.821L47.31,44.821z M47.659,39.758
				c-0.216-0.302-0.522-0.494-0.914-0.573c-0.197-0.032-0.788-0.05-1.772-0.05h-1.896v3.705h1.798c1.165,0,1.891-0.06,2.182-0.179
				c0.289-0.12,0.517-0.325,0.68-0.617c0.165-0.292,0.247-0.657,0.247-1.095C47.984,40.455,47.875,40.06,47.659,39.758
				L47.659,39.758z M63.203,49.518c-1.056,1.331-2.466,1.996-4.233,1.996c-1.788,0-3.209-0.662-4.266-1.987
				c-1.055-1.324-1.583-3.148-1.583-5.472c0-1.488,0.183-2.736,0.549-3.746c0.275-0.743,0.648-1.412,1.121-2.003
				c0.472-0.59,0.99-1.029,1.554-1.315c0.749-0.384,1.614-0.577,2.592-0.577c1.772,0,3.19,0.667,4.253,2.001
				c1.064,1.336,1.596,3.192,1.596,5.567C64.786,46.343,64.258,48.187,63.203,49.518L63.203,49.518z M61.37,40.171
				c-0.604-0.824-1.407-1.236-2.408-1.236c-1,0-1.807,0.417-2.42,1.25c-0.612,0.833-0.919,2.09-0.919,3.77
				c0,1.654,0.315,2.907,0.943,3.76s1.428,1.279,2.395,1.279c0.967,0,1.762-0.423,2.384-1.27c0.62-0.846,0.93-2.116,0.93-3.81
				C62.276,42.242,61.974,40.993,61.37,40.171L61.37,40.171z M75.725,51.266l-1.051-3.316h-4.807l-0.993,3.316H66.3l4.685-14.601
				h2.565l4.816,14.601H75.725L75.725,51.266z M72.238,40.071l-1.625,5.419h3.281L72.238,40.071L72.238,40.071z M90.199,47.212
				c-0.303,1.063-0.73,1.924-1.289,2.581c-0.422,0.497-0.99,0.885-1.706,1.165c-0.536,0.207-1.253,0.309-2.149,0.309h-4.57V36.665
				h4.438c1,0,1.765,0.094,2.289,0.279c0.706,0.252,1.31,0.699,1.812,1.344c0.504,0.644,0.888,1.433,1.148,2.366
				c0.264,0.932,0.395,2.084,0.395,3.45C90.566,45.307,90.443,46.343,90.199,47.212L90.199,47.212z M87.813,41.376
				c-0.166-0.604-0.395-1.076-0.69-1.415s-0.67-0.567-1.124-0.686c-0.339-0.094-1.003-0.141-1.993-0.141h-1.09v9.672h1.812
				c0.678,0,1.168-0.047,1.469-0.139c0.394-0.12,0.72-0.323,0.979-0.607c0.261-0.286,0.472-0.756,0.636-1.41
				c0.164-0.654,0.246-1.546,0.246-2.675S87.975,41.98,87.813,41.376L87.813,41.376z M26.912,73.52l-4.849-9.523v9.523h-2.255
				V58.917h2.361l4.923,9.752v-9.752h2.255V73.52H26.912L26.912,73.52z M40.959,73.52l-1.05-3.318h-4.807l-0.993,3.318h-2.576
				l4.684-14.604h2.568L43.6,73.52H40.959L40.959,73.52z M37.472,62.323l-1.623,5.419h3.28L37.472,62.323L37.472,62.323z
				 M52.398,67.075c0.525,0.37,0.958,0.78,1.3,1.224c0.342,0.446,0.803,1.236,1.383,2.371l1.468,2.85h-2.904l-1.756-3.178
				c-0.623-1.135-1.05-1.851-1.279-2.146c-0.229-0.297-0.473-0.5-0.73-0.609c-0.257-0.107-0.665-0.163-1.223-0.163h-0.493v6.097
				h-2.428V58.917h5.11c1.286,0,2.219,0.132,2.802,0.394c0.581,0.262,1.048,0.728,1.397,1.399c0.35,0.672,0.527,1.438,0.527,2.302
				c0,1.095-0.266,2-0.796,2.713C54.246,66.438,53.453,66.889,52.398,67.075L52.398,67.075z M52.747,62.01
				c-0.216-0.302-0.522-0.493-0.914-0.572c-0.197-0.034-0.788-0.05-1.772-0.05h-1.896v3.705h1.798c1.165,0,1.891-0.06,2.182-0.179
				c0.289-0.12,0.517-0.326,0.68-0.619c0.165-0.292,0.245-0.657,0.245-1.095C53.07,62.709,52.963,62.312,52.747,62.01L52.747,62.01z
				 M65.371,67.075c0.525,0.37,0.958,0.78,1.3,1.224c0.341,0.446,0.804,1.236,1.384,2.371l1.467,2.85h-2.903l-1.756-3.178
				c-0.623-1.135-1.05-1.851-1.279-2.146c-0.231-0.297-0.473-0.5-0.73-0.609c-0.258-0.107-0.665-0.163-1.223-0.163h-0.493v6.097
				H58.71V58.917h5.11c1.286,0,2.219,0.132,2.801,0.394c0.583,0.262,1.05,0.728,1.398,1.399c0.351,0.672,0.525,1.438,0.525,2.302
				c0,1.095-0.266,2-0.795,2.713C67.219,66.438,66.425,66.889,65.371,67.075L65.371,67.075z M65.72,62.01
				c-0.216-0.302-0.522-0.493-0.916-0.572c-0.197-0.034-0.787-0.05-1.772-0.05h-1.895v3.705h1.796c1.166,0,1.893-0.06,2.182-0.179
				c0.291-0.12,0.517-0.326,0.682-0.619c0.163-0.292,0.245-0.657,0.245-1.095C66.043,62.709,65.934,62.312,65.72,62.01L65.72,62.01z
				 M81.264,71.77c-1.056,1.334-2.466,1.998-4.232,1.998c-1.788,0-3.211-0.662-4.266-1.986c-1.057-1.326-1.584-3.15-1.584-5.474
				c0-1.488,0.182-2.736,0.549-3.746c0.273-0.743,0.646-1.41,1.119-2.001c0.474-0.591,0.992-1.029,1.555-1.315
				c0.75-0.386,1.613-0.578,2.593-0.578c1.772,0,3.188,0.667,4.253,2.003c1.064,1.334,1.596,3.19,1.596,5.567
				C82.848,68.596,82.318,70.439,81.264,71.77L81.264,71.77z M79.432,62.423c-0.606-0.824-1.408-1.236-2.408-1.236
				c-1.002,0-1.808,0.417-2.42,1.25c-0.613,0.833-0.918,2.09-0.918,3.77c0,1.654,0.313,2.907,0.942,3.76
				c0.628,0.854,1.429,1.281,2.396,1.281s1.762-0.423,2.381-1.271c0.623-0.846,0.933-2.115,0.933-3.809
				C80.337,64.495,80.035,63.247,79.432,62.423L79.432,62.423z M97.279,73.52h-2.575l-2.396-10.917L89.922,73.52h-2.633
				l-2.872-14.604h2.485l1.813,10.029l2.198-10.029h2.888l2.109,10.2l1.844-10.2h2.445L97.279,73.52L97.279,73.52z M107.999,61.601
				c-0.341-0.328-0.854-0.493-1.538-0.493c-0.706,0-1.258,0.176-1.656,0.528c-0.258,0.226-0.387,0.528-0.387,0.906
				c0,0.346,0.121,0.641,0.361,0.887c0.306,0.312,1.051,0.638,2.232,0.976c1.182,0.339,2.055,0.689,2.62,1.051
				c0.565,0.362,1.009,0.856,1.329,1.483c0.32,0.627,0.48,1.402,0.48,2.326c0,0.838-0.192,1.62-0.575,2.351
				c-0.384,0.729-0.925,1.272-1.623,1.628c-0.701,0.355-1.573,0.533-2.617,0.533c-1.521,0-2.688-0.426-3.503-1.279
				c-0.816-0.854-1.303-2.096-1.46-3.73l2.362-0.279c0.143,0.964,0.431,1.669,0.865,2.121c0.436,0.453,1.021,0.678,1.76,0.678
				c0.783,0,1.371-0.2,1.768-0.602s0.596-0.871,0.596-1.408c0-0.346-0.084-0.641-0.25-0.883c-0.168-0.242-0.459-0.453-0.873-0.633
				c-0.285-0.119-0.935-0.33-1.945-0.636c-1.303-0.392-2.215-0.874-2.739-1.444c-0.738-0.804-1.108-1.783-1.108-2.94
				c0-0.743,0.174-1.439,0.522-2.087c0.347-0.646,0.846-1.14,1.5-1.478c0.653-0.339,1.442-0.509,2.366-0.509
				c1.51,0,2.646,0.402,3.41,1.205c0.762,0.804,1.162,1.877,1.201,3.217l-2.429,0.129C108.564,62.47,108.342,61.931,107.999,61.601
				L107.999,61.601z"/>
		</g>
	</g>
	
		<linearGradient id="SVGID_10_" gradientUnits="userSpaceOnUse" x1="219.0254" y1="-190.6934" x2="158.3055" y2="-103.9764" gradientTransform="matrix(1 0 0 -1 -123.165 -81.835)">
		<stop  offset="0" style="stop-color:#000000;stop-opacity:0"/>
		<stop  offset="1" style="stop-color:#FFFFFF;stop-opacity:0.25"/>
	</linearGradient>
	<path fill="url(#SVGID_10_)" d="M71.428,5.263l54.309,54.311c3.302,3.301,3.302,8.654,0,11.955l-54.207,54.207
		c-3.301,3.302-8.654,3.302-11.955,0L5.263,71.428c-3.301-3.301-3.301-8.654,0-11.955l54.208-54.21
		C62.772,1.962,68.126,1.962,71.428,5.263L71.428,5.263z"/>
</g>
<g id="normal">
	<g>
		<g>
			
				<linearGradient id="SVGID_13_" gradientUnits="userSpaceOnUse" x1="126.9521" y1="-148.335" x2="252.3779" y2="-148.335" gradientTransform="matrix(1 0 0 -1 -123.165 -81.835)">
				<stop  offset="0" style="stop-color:#000000;stop-opacity:0.6"/>
				<stop  offset="1" style="stop-color:#000000;stop-opacity:0.6"/>
			</linearGradient>
			<path id="SVGID_11_" fill="url(#SVGID_13_)" d="M72.428,6.263l54.309,54.311c3.302,3.301,3.302,8.654,0,11.955l-54.207,54.207
				c-3.301,3.302-8.654,3.302-11.955,0L6.263,72.428c-3.301-3.301-3.301-8.654,0-11.955l54.208-54.21
				C63.772,2.962,69.126,2.962,72.428,6.263L72.428,6.263z"/>
		</g>
		<g>
			<path id="SVGID_12_" fill="#FFDF0A" d="M71.428,5.263l54.309,54.311c3.302,3.301,3.302,8.654,0,11.955l-54.207,54.207
				c-3.301,3.302-8.654,3.302-11.955,0L5.263,71.428c-3.301-3.301-3.301-8.654,0-11.955l54.208-54.21
				C62.772,1.962,68.126,1.962,71.428,5.263L71.428,5.263z"/>
		</g>
		<g>
			<defs>
				<path id="SVGID_14_" d="M72.428,6.263l54.309,54.311c3.302,3.301,3.302,8.654,0,11.955l-54.207,54.207
					c-3.301,3.302-8.654,3.302-11.955,0L6.263,72.428c-3.301-3.301-3.301-8.654,0-11.955l54.208-54.21
					C63.772,2.962,69.126,2.962,72.428,6.263L72.428,6.263z"/>
			</defs>
			<clipPath id="SVGID_15_">
				<use xlink:href="#SVGID_14_"  overflow="visible"/>
			</clipPath>
		</g>
	</g>
	<g>
		<g>
			<path id="SVGID_16_" d="M123.159,71.271l-51.888,51.888c-3.162,3.161-8.285,3.161-11.443,0L7.842,71.174
				c-3.161-3.158-3.161-8.284,0-11.445L59.729,7.842c3.161-3.161,8.285-3.161,11.445,0l51.985,51.985
				C126.318,62.987,126.318,68.111,123.159,71.271L123.159,71.271z M122.533,62.85L68.205,8.521c-1.463-1.463-3.838-1.463-5.301,0
				L8.576,62.85c-1.463,1.463-1.463,3.837,0,5.3l54.329,54.33c1.463,1.463,3.838,1.463,5.301,0l54.327-54.33
				C123.998,66.688,123.998,64.313,122.533,62.85L122.533,62.85z"/>
		</g>
	</g>
	<g>
		<g>
			<path id="SVGID_18_" d="M47.31,44.821c0.525,0.373,0.958,0.782,1.3,1.226c0.342,0.444,0.803,1.236,1.383,2.371l1.468,2.848
				h-2.904l-1.756-3.177c-0.623-1.135-1.05-1.851-1.279-2.147s-0.473-0.497-0.73-0.607s-0.665-0.165-1.223-0.165h-0.493v6.096
				h-2.428V36.665h5.11c1.286,0,2.219,0.131,2.802,0.394c0.581,0.262,1.048,0.728,1.399,1.399c0.349,0.67,0.525,1.438,0.525,2.3
				c0,1.097-0.267,2.001-0.796,2.715C49.158,44.186,48.366,44.635,47.31,44.821L47.31,44.821z M47.659,39.758
				c-0.216-0.302-0.522-0.494-0.914-0.573c-0.197-0.032-0.788-0.05-1.772-0.05h-1.896v3.705h1.798c1.165,0,1.891-0.06,2.182-0.179
				c0.289-0.12,0.517-0.325,0.68-0.617c0.165-0.292,0.247-0.657,0.247-1.095C47.984,40.455,47.875,40.06,47.659,39.758
				L47.659,39.758z M63.203,49.518c-1.056,1.331-2.466,1.996-4.233,1.996c-1.788,0-3.209-0.662-4.266-1.987
				c-1.055-1.324-1.583-3.148-1.583-5.472c0-1.488,0.183-2.736,0.549-3.746c0.275-0.743,0.648-1.412,1.121-2.003
				c0.472-0.59,0.99-1.029,1.554-1.315c0.749-0.384,1.614-0.577,2.592-0.577c1.772,0,3.19,0.667,4.253,2.001
				c1.064,1.336,1.596,3.192,1.596,5.567C64.786,46.343,64.258,48.187,63.203,49.518L63.203,49.518z M61.37,40.171
				c-0.604-0.824-1.407-1.236-2.408-1.236c-1,0-1.807,0.417-2.42,1.25c-0.612,0.833-0.919,2.09-0.919,3.77
				c0,1.654,0.315,2.907,0.943,3.76s1.428,1.279,2.395,1.279c0.967,0,1.762-0.423,2.384-1.27c0.62-0.846,0.93-2.116,0.93-3.81
				C62.276,42.242,61.974,40.993,61.37,40.171L61.37,40.171z M75.725,51.266l-1.051-3.316h-4.807l-0.993,3.316H66.3l4.685-14.601
				h2.565l4.816,14.601H75.725L75.725,51.266z M72.238,40.071l-1.625,5.419h3.281L72.238,40.071L72.238,40.071z M90.199,47.212
				c-0.303,1.063-0.73,1.924-1.289,2.581c-0.422,0.497-0.99,0.885-1.706,1.165c-0.536,0.207-1.253,0.309-2.149,0.309h-4.57V36.665
				h4.438c1,0,1.765,0.094,2.289,0.279c0.706,0.252,1.31,0.699,1.812,1.344c0.504,0.644,0.888,1.433,1.148,2.366
				c0.264,0.932,0.395,2.084,0.395,3.45C90.566,45.307,90.443,46.343,90.199,47.212L90.199,47.212z M87.813,41.376
				c-0.166-0.604-0.395-1.076-0.69-1.415s-0.67-0.567-1.124-0.686c-0.339-0.094-1.003-0.141-1.993-0.141h-1.09v9.672h1.812
				c0.678,0,1.168-0.047,1.469-0.139c0.394-0.12,0.72-0.323,0.979-0.607c0.261-0.286,0.472-0.756,0.636-1.41
				c0.164-0.654,0.246-1.546,0.246-2.675S87.975,41.98,87.813,41.376L87.813,41.376z M26.912,73.52l-4.849-9.523v9.523h-2.255
				V58.917h2.361l4.923,9.752v-9.752h2.255V73.52H26.912L26.912,73.52z M40.959,73.52l-1.05-3.318h-4.807l-0.993,3.318h-2.576
				l4.684-14.604h2.568L43.6,73.52H40.959L40.959,73.52z M37.472,62.323l-1.623,5.419h3.28L37.472,62.323L37.472,62.323z
				 M52.398,67.075c0.525,0.37,0.958,0.78,1.3,1.224c0.342,0.446,0.803,1.236,1.383,2.371l1.468,2.85h-2.904l-1.756-3.178
				c-0.623-1.135-1.05-1.851-1.279-2.146c-0.229-0.297-0.473-0.5-0.73-0.609c-0.257-0.107-0.665-0.163-1.223-0.163h-0.493v6.097
				h-2.428V58.917h5.11c1.286,0,2.219,0.132,2.802,0.394c0.581,0.262,1.048,0.728,1.397,1.399c0.35,0.672,0.527,1.438,0.527,2.302
				c0,1.095-0.266,2-0.796,2.713C54.246,66.438,53.453,66.889,52.398,67.075L52.398,67.075z M52.747,62.01
				c-0.216-0.302-0.522-0.493-0.914-0.572c-0.197-0.034-0.788-0.05-1.772-0.05h-1.896v3.705h1.798c1.165,0,1.891-0.06,2.182-0.179
				c0.289-0.12,0.517-0.326,0.68-0.619c0.165-0.292,0.245-0.657,0.245-1.095C53.07,62.709,52.963,62.312,52.747,62.01L52.747,62.01z
				 M65.371,67.075c0.525,0.37,0.958,0.78,1.3,1.224c0.341,0.446,0.804,1.236,1.384,2.371l1.467,2.85h-2.903l-1.756-3.178
				c-0.623-1.135-1.05-1.851-1.279-2.146c-0.231-0.297-0.473-0.5-0.73-0.609c-0.258-0.107-0.665-0.163-1.223-0.163h-0.493v6.097
				H58.71V58.917h5.11c1.286,0,2.219,0.132,2.801,0.394c0.583,0.262,1.05,0.728,1.398,1.399c0.351,0.672,0.525,1.438,0.525,2.302
				c0,1.095-0.266,2-0.795,2.713C67.219,66.438,66.425,66.889,65.371,67.075L65.371,67.075z M65.72,62.01
				c-0.216-0.302-0.522-0.493-0.916-0.572c-0.197-0.034-0.787-0.05-1.772-0.05h-1.895v3.705h1.796c1.166,0,1.893-0.06,2.182-0.179
				c0.291-0.12,0.517-0.326,0.682-0.619c0.163-0.292,0.245-0.657,0.245-1.095C66.043,62.709,65.934,62.312,65.72,62.01L65.72,62.01z
				 M81.264,71.77c-1.056,1.334-2.466,1.998-4.232,1.998c-1.788,0-3.211-0.662-4.266-1.986c-1.057-1.326-1.584-3.15-1.584-5.474
				c0-1.488,0.182-2.736,0.549-3.746c0.273-0.743,0.646-1.41,1.119-2.001c0.474-0.591,0.992-1.029,1.555-1.315
				c0.75-0.386,1.613-0.578,2.593-0.578c1.772,0,3.188,0.667,4.253,2.003c1.064,1.334,1.596,3.19,1.596,5.567
				C82.848,68.596,82.318,70.439,81.264,71.77L81.264,71.77z M79.432,62.423c-0.606-0.824-1.408-1.236-2.408-1.236
				c-1.002,0-1.808,0.417-2.42,1.25c-0.613,0.833-0.918,2.09-0.918,3.77c0,1.654,0.313,2.907,0.942,3.76
				c0.628,0.854,1.429,1.281,2.396,1.281s1.762-0.423,2.381-1.271c0.623-0.846,0.933-2.115,0.933-3.809
				C80.337,64.495,80.035,63.247,79.432,62.423L79.432,62.423z M97.279,73.52h-2.575l-2.396-10.917L89.922,73.52h-2.633
				l-2.872-14.604h2.485l1.813,10.029l2.198-10.029h2.888l2.109,10.2l1.844-10.2h2.445L97.279,73.52L97.279,73.52z M107.999,61.601
				c-0.341-0.328-0.854-0.493-1.538-0.493c-0.706,0-1.258,0.176-1.656,0.528c-0.258,0.226-0.387,0.528-0.387,0.906
				c0,0.346,0.121,0.641,0.361,0.887c0.306,0.312,1.051,0.638,2.232,0.976c1.182,0.339,2.055,0.689,2.62,1.051
				c0.565,0.362,1.009,0.856,1.329,1.483c0.32,0.627,0.48,1.402,0.48,2.326c0,0.838-0.192,1.62-0.575,2.351
				c-0.384,0.729-0.925,1.272-1.623,1.628c-0.701,0.355-1.573,0.533-2.617,0.533c-1.521,0-2.688-0.426-3.503-1.279
				c-0.816-0.854-1.303-2.096-1.46-3.73l2.362-0.279c0.143,0.964,0.431,1.669,0.865,2.121c0.436,0.453,1.021,0.678,1.76,0.678
				c0.783,0,1.371-0.2,1.768-0.602s0.596-0.871,0.596-1.408c0-0.346-0.084-0.641-0.25-0.883c-0.168-0.242-0.459-0.453-0.873-0.633
				c-0.285-0.119-0.935-0.33-1.945-0.636c-1.303-0.392-2.215-0.874-2.739-1.444c-0.738-0.804-1.108-1.783-1.108-2.94
				c0-0.743,0.174-1.439,0.522-2.087c0.347-0.646,0.846-1.14,1.5-1.478c0.653-0.339,1.442-0.509,2.366-0.509
				c1.51,0,2.646,0.402,3.41,1.205c0.762,0.804,1.162,1.877,1.201,3.217l-2.429,0.129C108.564,62.47,108.342,61.931,107.999,61.601
				L107.999,61.601z"/>
		</g>
		<g>
			<path id="SVGID_4_" fill="none" stroke="#000000" stroke-width="0.5" stroke-miterlimit="10" d="M47.31,44.821
				c0.525,0.373,0.958,0.782,1.3,1.226c0.342,0.444,0.803,1.236,1.383,2.371l1.468,2.848h-2.904l-1.756-3.177
				c-0.623-1.135-1.05-1.851-1.279-2.147s-0.473-0.497-0.73-0.607s-0.665-0.165-1.223-0.165h-0.493v6.096h-2.428V36.665h5.11
				c1.286,0,2.219,0.131,2.802,0.394c0.581,0.262,1.048,0.728,1.399,1.399c0.349,0.67,0.525,1.438,0.525,2.3
				c0,1.097-0.267,2.001-0.796,2.715C49.158,44.186,48.366,44.635,47.31,44.821L47.31,44.821z M47.659,39.758
				c-0.216-0.302-0.522-0.494-0.914-0.573c-0.197-0.032-0.788-0.05-1.772-0.05h-1.896v3.705h1.798c1.165,0,1.891-0.06,2.182-0.179
				c0.289-0.12,0.517-0.325,0.68-0.617c0.165-0.292,0.247-0.657,0.247-1.095C47.984,40.455,47.875,40.06,47.659,39.758
				L47.659,39.758z M63.203,49.518c-1.056,1.331-2.466,1.996-4.233,1.996c-1.788,0-3.209-0.662-4.266-1.987
				c-1.055-1.324-1.583-3.148-1.583-5.472c0-1.488,0.183-2.736,0.549-3.746c0.275-0.743,0.648-1.412,1.121-2.003
				c0.472-0.59,0.99-1.029,1.554-1.315c0.749-0.384,1.614-0.577,2.592-0.577c1.772,0,3.19,0.667,4.253,2.001
				c1.064,1.336,1.596,3.192,1.596,5.567C64.786,46.343,64.258,48.187,63.203,49.518L63.203,49.518z M61.37,40.171
				c-0.604-0.824-1.407-1.236-2.408-1.236c-1,0-1.807,0.417-2.42,1.25c-0.612,0.833-0.919,2.09-0.919,3.77
				c0,1.654,0.315,2.907,0.943,3.76s1.428,1.279,2.395,1.279c0.967,0,1.762-0.423,2.384-1.27c0.62-0.846,0.93-2.116,0.93-3.81
				C62.276,42.242,61.974,40.993,61.37,40.171L61.37,40.171z M75.725,51.266l-1.051-3.316h-4.807l-0.993,3.316H66.3l4.685-14.601
				h2.565l4.816,14.601H75.725L75.725,51.266z M72.238,40.071l-1.625,5.419h3.281L72.238,40.071L72.238,40.071z M90.199,47.212
				c-0.303,1.063-0.73,1.924-1.289,2.581c-0.422,0.497-0.99,0.885-1.706,1.165c-0.536,0.207-1.253,0.309-2.149,0.309h-4.57V36.665
				h4.438c1,0,1.765,0.094,2.289,0.279c0.706,0.252,1.31,0.699,1.812,1.344c0.504,0.644,0.888,1.433,1.148,2.366
				c0.264,0.932,0.395,2.084,0.395,3.45C90.566,45.307,90.443,46.343,90.199,47.212L90.199,47.212z M87.813,41.376
				c-0.166-0.604-0.395-1.076-0.69-1.415s-0.67-0.567-1.124-0.686c-0.339-0.094-1.003-0.141-1.993-0.141h-1.09v9.672h1.812
				c0.678,0,1.168-0.047,1.469-0.139c0.394-0.12,0.72-0.323,0.979-0.607c0.261-0.286,0.472-0.756,0.636-1.41
				c0.164-0.654,0.246-1.546,0.246-2.675S87.975,41.98,87.813,41.376L87.813,41.376z M26.912,73.52l-4.849-9.523v9.523h-2.255
				V58.917h2.361l4.923,9.752v-9.752h2.255V73.52H26.912L26.912,73.52z M40.959,73.52l-1.05-3.318h-4.807l-0.993,3.318h-2.576
				l4.684-14.604h2.568L43.6,73.52H40.959L40.959,73.52z M37.472,62.323l-1.623,5.419h3.28L37.472,62.323L37.472,62.323z
				 M52.398,67.075c0.525,0.37,0.958,0.78,1.3,1.224c0.342,0.446,0.803,1.236,1.383,2.371l1.468,2.85h-2.904l-1.756-3.178
				c-0.623-1.135-1.05-1.851-1.279-2.146c-0.229-0.297-0.473-0.5-0.73-0.609c-0.257-0.107-0.665-0.163-1.223-0.163h-0.493v6.097
				h-2.428V58.917h5.11c1.286,0,2.219,0.132,2.802,0.394c0.581,0.262,1.048,0.728,1.397,1.399c0.35,0.672,0.527,1.438,0.527,2.302
				c0,1.095-0.266,2-0.796,2.713C54.246,66.438,53.453,66.889,52.398,67.075L52.398,67.075z M52.747,62.01
				c-0.216-0.302-0.522-0.493-0.914-0.572c-0.197-0.034-0.788-0.05-1.772-0.05h-1.896v3.705h1.798c1.165,0,1.891-0.06,2.182-0.179
				c0.289-0.12,0.517-0.326,0.68-0.619c0.165-0.292,0.245-0.657,0.245-1.095C53.07,62.709,52.963,62.312,52.747,62.01L52.747,62.01z
				 M65.371,67.075c0.525,0.37,0.958,0.78,1.3,1.224c0.341,0.446,0.804,1.236,1.384,2.371l1.467,2.85h-2.903l-1.756-3.178
				c-0.623-1.135-1.05-1.851-1.279-2.146c-0.231-0.297-0.473-0.5-0.73-0.609c-0.258-0.107-0.665-0.163-1.223-0.163h-0.493v6.097
				H58.71V58.917h5.11c1.286,0,2.219,0.132,2.801,0.394c0.583,0.262,1.05,0.728,1.398,1.399c0.351,0.672,0.525,1.438,0.525,2.302
				c0,1.095-0.266,2-0.795,2.713C67.219,66.438,66.425,66.889,65.371,67.075L65.371,67.075z M65.72,62.01
				c-0.216-0.302-0.522-0.493-0.916-0.572c-0.197-0.034-0.787-0.05-1.772-0.05h-1.895v3.705h1.796c1.166,0,1.893-0.06,2.182-0.179
				c0.291-0.12,0.517-0.326,0.682-0.619c0.163-0.292,0.245-0.657,0.245-1.095C66.043,62.709,65.934,62.312,65.72,62.01L65.72,62.01z
				 M81.264,71.77c-1.056,1.334-2.466,1.998-4.232,1.998c-1.788,0-3.211-0.662-4.266-1.986c-1.057-1.326-1.584-3.15-1.584-5.474
				c0-1.488,0.182-2.736,0.549-3.746c0.273-0.743,0.646-1.41,1.119-2.001c0.474-0.591,0.992-1.029,1.555-1.315
				c0.75-0.386,1.613-0.578,2.593-0.578c1.772,0,3.188,0.667,4.253,2.003c1.064,1.334,1.596,3.19,1.596,5.567
				C82.848,68.596,82.318,70.439,81.264,71.77L81.264,71.77z M79.432,62.423c-0.606-0.824-1.408-1.236-2.408-1.236
				c-1.002,0-1.808,0.417-2.42,1.25c-0.613,0.833-0.918,2.09-0.918,3.77c0,1.654,0.313,2.907,0.942,3.76
				c0.628,0.854,1.429,1.281,2.396,1.281s1.762-0.423,2.381-1.271c0.623-0.846,0.933-2.115,0.933-3.809
				C80.337,64.495,80.035,63.247,79.432,62.423L79.432,62.423z M97.279,73.52h-2.575l-2.396-10.917L89.922,73.52h-2.633
				l-2.872-14.604h2.485l1.813,10.029l2.198-10.029h2.888l2.109,10.2l1.844-10.2h2.445L97.279,73.52L97.279,73.52z M107.999,61.601
				c-0.341-0.328-0.854-0.493-1.538-0.493c-0.706,0-1.258,0.176-1.656,0.528c-0.258,0.226-0.387,0.528-0.387,0.906
				c0,0.346,0.121,0.641,0.361,0.887c0.306,0.312,1.051,0.638,2.232,0.976c1.182,0.339,2.055,0.689,2.62,1.051
				c0.565,0.362,1.009,0.856,1.329,1.483c0.32,0.627,0.48,1.402,0.48,2.326c0,0.838-0.192,1.62-0.575,2.351
				c-0.384,0.729-0.925,1.272-1.623,1.628c-0.701,0.355-1.573,0.533-2.617,0.533c-1.521,0-2.688-0.426-3.503-1.279
				c-0.816-0.854-1.303-2.096-1.46-3.73l2.362-0.279c0.143,0.964,0.431,1.669,0.865,2.121c0.436,0.453,1.021,0.678,1.76,0.678
				c0.783,0,1.371-0.2,1.768-0.602s0.596-0.871,0.596-1.408c0-0.346-0.084-0.641-0.25-0.883c-0.168-0.242-0.459-0.453-0.873-0.633
				c-0.285-0.119-0.935-0.33-1.945-0.636c-1.303-0.392-2.215-0.874-2.739-1.444c-0.738-0.804-1.108-1.783-1.108-2.94
				c0-0.743,0.174-1.439,0.522-2.087c0.347-0.646,0.846-1.14,1.5-1.478c0.653-0.339,1.442-0.509,2.366-0.509
				c1.51,0,2.646,0.402,3.41,1.205c0.762,0.804,1.162,1.877,1.201,3.217l-2.429,0.129C108.564,62.47,108.342,61.931,107.999,61.601
				L107.999,61.601z"/>
		</g>
	</g>
	
		<linearGradient id="SVGID_17_" gradientUnits="userSpaceOnUse" x1="219.0254" y1="-190.6934" x2="158.3055" y2="-103.9764" gradientTransform="matrix(1 0 0 -1 -123.165 -81.835)">
		<stop  offset="0" style="stop-color:#000000;stop-opacity:0"/>
		<stop  offset="1" style="stop-color:#FFFFFF;stop-opacity:0.25"/>
	</linearGradient>
	<path fill="url(#SVGID_17_)" d="M71.428,5.263l54.309,54.311c3.302,3.301,3.302,8.654,0,11.955l-54.207,54.207
		c-3.301,3.302-8.654,3.302-11.955,0L5.263,71.428c-3.301-3.301-3.301-8.654,0-11.955l54.208-54.21
		C62.772,1.962,68.126,1.962,71.428,5.263L71.428,5.263z"/>
</g>
</svg>
