<?xml version="1.0" encoding="utf-8"?>
<!-- Generator: Adobe Illustrator 16.0.0, SVG Export Plug-In . SVG Version: 6.00 Build 0)  -->
<!DOCTYPE svg PUBLIC "-//W3C//DTD SVG 1.1//EN" "http://www.w3.org/Graphics/SVG/1.1/DTD/svg11.dtd">
<svg version="1.1" id="Layer_1" xmlns="http://www.w3.org/2000/svg" xmlns:xlink="http://www.w3.org/1999/xlink" x="0px" y="0px"
	 width="132px" height="132px" viewBox="0 0 132 132" enable-background="new 0 0 132 132" xml:space="preserve">
<g id="disabled">
	<g>
		<g>
			
				<linearGradient id="SVGID_5_" gradientUnits="userSpaceOnUse" x1="126.9521" y1="-148.3345" x2="252.3779" y2="-148.3345" gradientTransform="matrix(1 0 0 -1 -123.165 -81.835)">
				<stop  offset="0" style="stop-color:#000000;stop-opacity:0.6"/>
				<stop  offset="1" style="stop-color:#000000;stop-opacity:0.6"/>
			</linearGradient>
			<path id="SVGID_1_" fill="url(#SVGID_5_)" d="M72.428,6.262l54.309,54.311c3.302,3.301,3.302,8.653,0,11.954l-54.207,54.209
				c-3.301,3.301-8.654,3.301-11.955,0L6.263,72.427c-3.301-3.301-3.301-8.654,0-11.955l54.208-54.21
				C63.772,2.962,69.126,2.962,72.428,6.262L72.428,6.262z"/>
		</g>
		<g>
			<path id="SVGID_2_" fill="#A2A2A2" d="M71.428,5.262l54.309,54.311c3.302,3.301,3.302,8.653,0,11.954l-54.207,54.209
				c-3.301,3.301-8.654,3.301-11.955,0L5.263,71.427c-3.301-3.301-3.301-8.654,0-11.955l54.208-54.21
				C62.772,1.962,68.126,1.962,71.428,5.262L71.428,5.262z"/>
		</g>
		<g>
			<defs>
				<path id="SVGID_7_" d="M72.428,6.262l54.309,54.311c3.302,3.301,3.302,8.653,0,11.954l-54.207,54.209
					c-3.301,3.301-8.654,3.301-11.955,0L6.263,72.427c-3.301-3.301-3.301-8.654,0-11.955l54.208-54.21
					C63.772,2.962,69.126,2.962,72.428,6.262L72.428,6.262z"/>
			</defs>
			<clipPath id="SVGID_9_">
				<use xlink:href="#SVGID_7_"  overflow="visible"/>
			</clipPath>
		</g>
	</g>
	<g>
		<g>
			<path id="SVGID_6_" d="M123.159,71.271l-51.888,51.888c-3.162,3.161-8.285,3.161-11.443,0L7.842,71.173
				c-3.161-3.161-3.161-8.284,0-11.443L59.729,7.842c3.161-3.161,8.285-3.161,11.445,0l51.985,51.985
				C126.318,62.988,126.318,68.111,123.159,71.271L123.159,71.271z M122.533,62.849L68.205,8.52c-1.463-1.463-3.838-1.463-5.301,0
				L8.576,62.849c-1.463,1.463-1.463,3.838,0,5.301l54.329,54.326c1.463,1.465,3.838,1.465,5.301,0l54.327-54.326
				C123.998,66.686,123.998,64.312,122.533,62.849L122.533,62.849z"/>
		</g>
	</g>
	<g>
		<g>
			<path id="SVGID_8_" d="M30.957,63.487l-0.956-2.738h-4.379l-0.904,2.738h-2.347l4.267-12.051h2.339l4.387,12.051H30.957
				L30.957,63.487z M27.781,54.246l-1.479,4.472h2.99L27.781,54.246L27.781,54.246z M41.426,53.852
				c-0.412-0.362-0.911-0.543-1.499-0.543c-0.812,0-1.471,0.32-1.977,0.961c-0.506,0.641-0.758,1.68-0.758,3.116
				c0,1.525,0.249,2.608,0.748,3.256c0.497,0.646,1.145,0.969,1.941,0.969c0.588,0,1.093-0.205,1.518-0.617
				c0.423-0.41,0.727-1.056,0.911-1.94l2.145,0.749c-0.33,1.315-0.875,2.292-1.641,2.93c-0.764,0.638-1.735,0.958-2.91,0.958
				c-1.454,0-2.65-0.548-3.586-1.641c-0.937-1.092-1.405-2.587-1.405-4.484c0-2.006,0.47-3.563,1.412-4.673
				c0.942-1.11,2.18-1.665,3.715-1.665c1.339,0,2.428,0.436,3.264,1.308c0.499,0.514,0.872,1.255,1.121,2.219l-2.189,0.575
				C42.108,54.707,41.836,54.214,41.426,53.852L41.426,53.852z M53.243,53.852c-0.41-0.362-0.909-0.543-1.497-0.543
				c-0.812,0-1.471,0.32-1.977,0.961s-0.759,1.68-0.759,3.116c0,1.525,0.25,2.608,0.748,3.256c0.499,0.646,1.147,0.969,1.943,0.969
				c0.588,0,1.093-0.205,1.517-0.617c0.423-0.41,0.728-1.056,0.913-1.94l2.145,0.749c-0.329,1.315-0.877,2.292-1.641,2.93
				c-0.764,0.638-1.735,0.958-2.91,0.958c-1.455,0-2.65-0.548-3.587-1.641c-0.937-1.092-1.405-2.587-1.405-4.484
				c0-2.006,0.472-3.563,1.413-4.673c0.942-1.11,2.179-1.665,3.713-1.665c1.341,0,2.429,0.436,3.266,1.308
				c0.497,0.514,0.872,1.255,1.121,2.219l-2.19,0.575C53.924,54.707,53.654,54.214,53.243,53.852L53.243,53.852z M58.87,63.487
				V51.436h2.211v12.051H58.87L58.87,63.487z M72.794,60.14c-0.272,0.877-0.665,1.586-1.173,2.129
				c-0.385,0.412-0.9,0.732-1.555,0.963c-0.488,0.17-1.142,0.255-1.959,0.255h-4.162V51.436h4.042c0.914,0,1.607,0.076,2.086,0.229
				c0.643,0.208,1.193,0.578,1.652,1.11c0.457,0.531,0.806,1.182,1.045,1.953c0.238,0.77,0.358,1.719,0.358,2.848
				C73.13,58.567,73.02,59.423,72.794,60.14L72.794,60.14z M70.62,55.324c-0.149-0.499-0.358-0.888-0.628-1.168
				c-0.268-0.279-0.611-0.468-1.024-0.567c-0.308-0.078-0.913-0.115-1.815-0.115H66.16v7.98h1.65c0.619,0,1.064-0.037,1.338-0.115
				c0.359-0.099,0.656-0.265,0.893-0.501c0.236-0.236,0.43-0.623,0.58-1.163c0.148-0.541,0.225-1.276,0.225-2.208
				C70.846,56.537,70.77,55.823,70.62,55.324L70.62,55.324z M84.104,61.455v2.032h-8.332V51.436h8.123v2.038h-5.91v2.672h5.5v2.03
				h-5.5v3.279H84.104L84.104,61.455z M93.238,63.487l-4.415-7.859v7.859h-2.056V51.436h2.152l4.484,8.047v-8.047h2.054v12.051
				H93.238L93.238,63.487z M103.24,53.474v10.012h-2.211V53.474h-3.252v-2.038h8.707v2.038H103.24L103.24,53.474z M44.432,81.852
				l-0.958-2.738h-4.379l-0.904,2.738h-2.345L40.111,69.8h2.34l4.385,12.052H44.432L44.432,81.852z M41.255,72.611l-1.479,4.472
				h2.99L41.255,72.611L41.255,72.611z M55.329,81.852v-5.27h-4.333v5.27h-2.213V69.8h2.213v4.744h4.333V69.8h2.213v12.052H55.329
				L55.329,81.852z M68.926,79.82v2.031h-8.333V69.8h8.123v2.038h-5.91v2.671h5.5v2.03h-5.5v3.279h6.12V79.82z M79.04,81.852
				l-0.956-2.738h-4.38L72.8,81.852h-2.347L74.721,69.8h2.34l4.387,12.052H79.04L79.04,81.852z M75.863,72.611l-1.479,4.472h2.99
				L75.863,72.611L75.863,72.611z M92.225,78.506c-0.275,0.877-0.666,1.586-1.174,2.129c-0.384,0.41-0.902,0.732-1.555,0.961
				c-0.488,0.172-1.141,0.256-1.958,0.256h-4.162V69.8h4.043c0.913,0,1.606,0.078,2.085,0.231c0.643,0.208,1.194,0.578,1.65,1.109
				c0.459,0.531,0.809,1.183,1.048,1.951c0.239,0.77,0.358,1.721,0.358,2.85C92.561,76.934,92.449,77.787,92.225,78.506
				L92.225,78.506z M90.05,73.688c-0.149-0.496-0.358-0.887-0.628-1.166c-0.268-0.278-0.611-0.467-1.023-0.568
				c-0.31-0.076-0.914-0.115-1.815-0.115H85.59v7.982h1.651c0.618,0,1.063-0.039,1.337-0.115c0.359-0.1,0.656-0.268,0.893-0.502
				c0.237-0.236,0.43-0.623,0.58-1.163c0.149-0.539,0.225-1.274,0.225-2.206S90.199,74.188,90.05,73.688L90.05,73.688z"/>
		</g>
		<g>
			<path id="SVGID_3_" fill="none" stroke="#000000" stroke-width="0.5" stroke-miterlimit="10" d="M30.957,63.487l-0.956-2.738
				h-4.379l-0.904,2.738h-2.347l4.267-12.051h2.339l4.387,12.051H30.957L30.957,63.487z M27.781,54.246l-1.479,4.472h2.99
				L27.781,54.246L27.781,54.246z M41.426,53.852c-0.412-0.362-0.911-0.543-1.499-0.543c-0.812,0-1.471,0.32-1.977,0.961
				c-0.506,0.641-0.758,1.68-0.758,3.116c0,1.525,0.249,2.608,0.748,3.256c0.497,0.646,1.145,0.969,1.941,0.969
				c0.588,0,1.093-0.205,1.518-0.617c0.423-0.41,0.727-1.056,0.911-1.94l2.145,0.749c-0.33,1.315-0.875,2.292-1.641,2.93
				c-0.764,0.638-1.735,0.958-2.91,0.958c-1.454,0-2.65-0.548-3.586-1.641c-0.937-1.092-1.405-2.587-1.405-4.484
				c0-2.006,0.47-3.563,1.412-4.673c0.942-1.11,2.18-1.665,3.715-1.665c1.339,0,2.428,0.436,3.264,1.308
				c0.499,0.514,0.872,1.255,1.121,2.219l-2.189,0.575C42.108,54.707,41.836,54.214,41.426,53.852L41.426,53.852z M53.243,53.852
				c-0.41-0.362-0.909-0.543-1.497-0.543c-0.812,0-1.471,0.32-1.977,0.961s-0.759,1.68-0.759,3.116c0,1.525,0.25,2.608,0.748,3.256
				c0.499,0.646,1.147,0.969,1.943,0.969c0.588,0,1.093-0.205,1.517-0.617c0.423-0.41,0.728-1.056,0.913-1.94l2.145,0.749
				c-0.329,1.315-0.877,2.292-1.641,2.93c-0.764,0.638-1.735,0.958-2.91,0.958c-1.455,0-2.65-0.548-3.587-1.641
				c-0.937-1.092-1.405-2.587-1.405-4.484c0-2.006,0.472-3.563,1.413-4.673c0.942-1.11,2.179-1.665,3.713-1.665
				c1.341,0,2.429,0.436,3.266,1.308c0.497,0.514,0.872,1.255,1.121,2.219l-2.19,0.575C53.924,54.707,53.654,54.214,53.243,53.852
				L53.243,53.852z M58.87,63.487V51.436h2.211v12.051H58.87L58.87,63.487z M72.794,60.14c-0.272,0.877-0.665,1.586-1.173,2.129
				c-0.385,0.412-0.9,0.732-1.555,0.963c-0.488,0.17-1.142,0.255-1.959,0.255h-4.162V51.436h4.042c0.914,0,1.607,0.076,2.086,0.229
				c0.643,0.208,1.193,0.578,1.652,1.11c0.457,0.531,0.806,1.182,1.045,1.953c0.238,0.77,0.358,1.719,0.358,2.848
				C73.13,58.567,73.02,59.423,72.794,60.14L72.794,60.14z M70.62,55.324c-0.149-0.499-0.358-0.888-0.628-1.168
				c-0.268-0.279-0.611-0.468-1.024-0.567c-0.308-0.078-0.913-0.115-1.815-0.115H66.16v7.98h1.65c0.619,0,1.064-0.037,1.338-0.115
				c0.359-0.099,0.656-0.265,0.893-0.501c0.236-0.236,0.43-0.623,0.58-1.163c0.148-0.541,0.225-1.276,0.225-2.208
				C70.846,56.537,70.77,55.823,70.62,55.324L70.62,55.324z M84.104,61.455v2.032h-8.332V51.436h8.123v2.038h-5.91v2.672h5.5v2.03
				h-5.5v3.279H84.104L84.104,61.455z M93.238,63.487l-4.415-7.859v7.859h-2.056V51.436h2.152l4.484,8.047v-8.047h2.054v12.051
				H93.238L93.238,63.487z M103.24,53.474v10.012h-2.211V53.474h-3.252v-2.038h8.707v2.038H103.24L103.24,53.474z M44.432,81.852
				l-0.958-2.738h-4.379l-0.904,2.738h-2.345L40.111,69.8h2.34l4.385,12.052H44.432L44.432,81.852z M41.255,72.611l-1.479,4.472
				h2.99L41.255,72.611L41.255,72.611z M55.329,81.852v-5.27h-4.333v5.27h-2.213V69.8h2.213v4.744h4.333V69.8h2.213v12.052H55.329
				L55.329,81.852z M68.926,79.82v2.031h-8.333V69.8h8.123v2.038h-5.91v2.671h5.5v2.03h-5.5v3.279h6.12V79.82z M79.04,81.852
				l-0.956-2.738h-4.38L72.8,81.852h-2.347L74.721,69.8h2.34l4.387,12.052H79.04L79.04,81.852z M75.863,72.611l-1.479,4.472h2.99
				L75.863,72.611L75.863,72.611z M92.225,78.506c-0.275,0.877-0.666,1.586-1.174,2.129c-0.384,0.41-0.902,0.732-1.555,0.961
				c-0.488,0.172-1.141,0.256-1.958,0.256h-4.162V69.8h4.043c0.913,0,1.606,0.078,2.085,0.231c0.643,0.208,1.194,0.578,1.65,1.109
				c0.459,0.531,0.809,1.183,1.048,1.951c0.239,0.77,0.358,1.721,0.358,2.85C92.561,76.934,92.449,77.787,92.225,78.506
				L92.225,78.506z M90.05,73.688c-0.149-0.496-0.358-0.887-0.628-1.166c-0.268-0.278-0.611-0.467-1.023-0.568
				c-0.31-0.076-0.914-0.115-1.815-0.115H85.59v7.982h1.651c0.618,0,1.063-0.039,1.337-0.115c0.359-0.1,0.656-0.268,0.893-0.502
				c0.237-0.236,0.43-0.623,0.58-1.163c0.149-0.539,0.225-1.274,0.225-2.206S90.199,74.188,90.05,73.688L90.05,73.688z"/>
		</g>
	</g>
	
		<linearGradient id="SVGID_10_" gradientUnits="userSpaceOnUse" x1="219.0254" y1="-190.6924" x2="158.3053" y2="-103.9752" gradientTransform="matrix(1 0 0 -1 -123.165 -81.835)">
		<stop  offset="0" style="stop-color:#000000;stop-opacity:0"/>
		<stop  offset="1" style="stop-color:#FFFFFF;stop-opacity:0.25"/>
	</linearGradient>
	<path fill="url(#SVGID_10_)" d="M71.428,5.262l54.309,54.311c3.302,3.301,3.302,8.653,0,11.954l-54.207,54.209
		c-3.301,3.301-8.654,3.301-11.955,0L5.263,71.427c-3.301-3.301-3.301-8.654,0-11.955l54.208-54.21
		C62.772,1.962,68.126,1.962,71.428,5.262L71.428,5.262z"/>
</g>
<g id="normal">
	<g>
		<g>
			
				<linearGradient id="SVGID_13_" gradientUnits="userSpaceOnUse" x1="126.9521" y1="-148.3345" x2="252.3779" y2="-148.3345" gradientTransform="matrix(1 0 0 -1 -123.165 -81.835)">
				<stop  offset="0" style="stop-color:#000000;stop-opacity:0.6"/>
				<stop  offset="1" style="stop-color:#000000;stop-opacity:0.6"/>
			</linearGradient>
			<path id="SVGID_11_" fill="url(#SVGID_13_)" d="M72.428,6.262l54.309,54.311c3.302,3.301,3.302,8.653,0,11.954l-54.207,54.209
				c-3.301,3.301-8.654,3.301-11.955,0L6.263,72.427c-3.301-3.301-3.301-8.654,0-11.955l54.208-54.21
				C63.772,2.962,69.126,2.962,72.428,6.262L72.428,6.262z"/>
		</g>
		<g>
			<path id="SVGID_12_" fill="#F78F1E" d="M71.428,5.262l54.309,54.311c3.302,3.301,3.302,8.653,0,11.954l-54.207,54.209
				c-3.301,3.301-8.654,3.301-11.955,0L5.263,71.427c-3.301-3.301-3.301-8.654,0-11.955l54.208-54.21
				C62.772,1.962,68.126,1.962,71.428,5.262L71.428,5.262z"/>
		</g>
		<g>
			<defs>
				<path id="SVGID_14_" d="M72.428,6.262l54.309,54.311c3.302,3.301,3.302,8.653,0,11.954l-54.207,54.209
					c-3.301,3.301-8.654,3.301-11.955,0L6.263,72.427c-3.301-3.301-3.301-8.654,0-11.955l54.208-54.21
					C63.772,2.962,69.126,2.962,72.428,6.262L72.428,6.262z"/>
			</defs>
			<clipPath id="SVGID_15_">
				<use xlink:href="#SVGID_14_"  overflow="visible"/>
			</clipPath>
		</g>
	</g>
	<g>
		<g>
			<path id="SVGID_16_" d="M123.159,71.271l-51.888,51.888c-3.162,3.161-8.285,3.161-11.443,0L7.842,71.173
				c-3.161-3.161-3.161-8.284,0-11.443L59.729,7.842c3.161-3.161,8.285-3.161,11.445,0l51.985,51.985
				C126.318,62.988,126.318,68.111,123.159,71.271L123.159,71.271z M122.533,62.849L68.205,8.52c-1.463-1.463-3.838-1.463-5.301,0
				L8.576,62.849c-1.463,1.463-1.463,3.838,0,5.301l54.329,54.326c1.463,1.465,3.838,1.465,5.301,0l54.327-54.326
				C123.998,66.686,123.998,64.312,122.533,62.849L122.533,62.849z"/>
		</g>
	</g>
	<g>
		<g>
			<path id="SVGID_18_" d="M30.957,63.487l-0.956-2.738h-4.379l-0.904,2.738h-2.347l4.267-12.051h2.339l4.387,12.051H30.957
				L30.957,63.487z M27.781,54.246l-1.479,4.472h2.99L27.781,54.246L27.781,54.246z M41.426,53.852
				c-0.412-0.362-0.911-0.543-1.499-0.543c-0.812,0-1.471,0.32-1.977,0.961c-0.506,0.641-0.758,1.68-0.758,3.116
				c0,1.525,0.249,2.608,0.748,3.256c0.497,0.646,1.145,0.969,1.941,0.969c0.588,0,1.093-0.205,1.518-0.617
				c0.423-0.41,0.727-1.056,0.911-1.94l2.145,0.749c-0.33,1.315-0.875,2.292-1.641,2.93c-0.764,0.638-1.735,0.958-2.91,0.958
				c-1.454,0-2.65-0.548-3.586-1.641c-0.937-1.092-1.405-2.587-1.405-4.484c0-2.006,0.47-3.563,1.412-4.673
				c0.942-1.11,2.18-1.665,3.715-1.665c1.339,0,2.428,0.436,3.264,1.308c0.499,0.514,0.872,1.255,1.121,2.219l-2.189,0.575
				C42.108,54.707,41.836,54.214,41.426,53.852L41.426,53.852z M53.243,53.852c-0.41-0.362-0.909-0.543-1.497-0.543
				c-0.812,0-1.471,0.32-1.977,0.961s-0.759,1.68-0.759,3.116c0,1.525,0.25,2.608,0.748,3.256c0.499,0.646,1.147,0.969,1.943,0.969
				c0.588,0,1.093-0.205,1.517-0.617c0.423-0.41,0.728-1.056,0.913-1.94l2.145,0.749c-0.329,1.315-0.877,2.292-1.641,2.93
				c-0.764,0.638-1.735,0.958-2.91,0.958c-1.455,0-2.65-0.548-3.587-1.641c-0.937-1.092-1.405-2.587-1.405-4.484
				c0-2.006,0.472-3.563,1.413-4.673c0.942-1.11,2.179-1.665,3.713-1.665c1.341,0,2.429,0.436,3.266,1.308
				c0.497,0.514,0.872,1.255,1.121,2.219l-2.19,0.575C53.924,54.707,53.654,54.214,53.243,53.852L53.243,53.852z M58.87,63.487
				V51.436h2.211v12.051H58.87L58.87,63.487z M72.794,60.14c-0.272,0.877-0.665,1.586-1.173,2.129
				c-0.385,0.412-0.9,0.732-1.555,0.963c-0.488,0.17-1.142,0.255-1.959,0.255h-4.162V51.436h4.042c0.914,0,1.607,0.076,2.086,0.229
				c0.643,0.208,1.193,0.578,1.652,1.11c0.457,0.531,0.806,1.182,1.045,1.953c0.238,0.77,0.358,1.719,0.358,2.848
				C73.13,58.567,73.02,59.423,72.794,60.14L72.794,60.14z M70.62,55.324c-0.149-0.499-0.358-0.888-0.628-1.168
				c-0.268-0.279-0.611-0.468-1.024-0.567c-0.308-0.078-0.913-0.115-1.815-0.115H66.16v7.98h1.65c0.619,0,1.064-0.037,1.338-0.115
				c0.359-0.099,0.656-0.265,0.893-0.501c0.236-0.236,0.43-0.623,0.58-1.163c0.148-0.541,0.225-1.276,0.225-2.208
				C70.846,56.537,70.77,55.823,70.62,55.324L70.62,55.324z M84.104,61.455v2.032h-8.332V51.436h8.123v2.038h-5.91v2.672h5.5v2.03
				h-5.5v3.279H84.104L84.104,61.455z M93.238,63.487l-4.415-7.859v7.859h-2.056V51.436h2.152l4.484,8.047v-8.047h2.054v12.051
				H93.238L93.238,63.487z M103.24,53.474v10.012h-2.211V53.474h-3.252v-2.038h8.707v2.038H103.24L103.24,53.474z M44.432,81.852
				l-0.958-2.738h-4.379l-0.904,2.738h-2.345L40.111,69.8h2.34l4.385,12.052H44.432L44.432,81.852z M41.255,72.611l-1.479,4.472
				h2.99L41.255,72.611L41.255,72.611z M55.329,81.852v-5.27h-4.333v5.27h-2.213V69.8h2.213v4.744h4.333V69.8h2.213v12.052H55.329
				L55.329,81.852z M68.926,79.82v2.031h-8.333V69.8h8.123v2.038h-5.91v2.671h5.5v2.03h-5.5v3.279h6.12V79.82z M79.04,81.852
				l-0.956-2.738h-4.38L72.8,81.852h-2.347L74.721,69.8h2.34l4.387,12.052H79.04L79.04,81.852z M75.863,72.611l-1.479,4.472h2.99
				L75.863,72.611L75.863,72.611z M92.225,78.506c-0.275,0.877-0.666,1.586-1.174,2.129c-0.384,0.41-0.902,0.732-1.555,0.961
				c-0.488,0.172-1.141,0.256-1.958,0.256h-4.162V69.8h4.043c0.913,0,1.606,0.078,2.085,0.231c0.643,0.208,1.194,0.578,1.65,1.109
				c0.459,0.531,0.809,1.183,1.048,1.951c0.239,0.77,0.358,1.721,0.358,2.85C92.561,76.934,92.449,77.787,92.225,78.506
				L92.225,78.506z M90.05,73.688c-0.149-0.496-0.358-0.887-0.628-1.166c-0.268-0.278-0.611-0.467-1.023-0.568
				c-0.31-0.076-0.914-0.115-1.815-0.115H85.59v7.982h1.651c0.618,0,1.063-0.039,1.337-0.115c0.359-0.1,0.656-0.268,0.893-0.502
				c0.237-0.236,0.43-0.623,0.58-1.163c0.149-0.539,0.225-1.274,0.225-2.206S90.199,74.188,90.05,73.688L90.05,73.688z"/>
		</g>
		<g>
			<path id="SVGID_4_" fill="none" stroke="#000000" stroke-width="0.5" stroke-miterlimit="10" d="M30.957,63.487l-0.956-2.738
				h-4.379l-0.904,2.738h-2.347l4.267-12.051h2.339l4.387,12.051H30.957L30.957,63.487z M27.781,54.246l-1.479,4.472h2.99
				L27.781,54.246L27.781,54.246z M41.426,53.852c-0.412-0.362-0.911-0.543-1.499-0.543c-0.812,0-1.471,0.32-1.977,0.961
				c-0.506,0.641-0.758,1.68-0.758,3.116c0,1.525,0.249,2.608,0.748,3.256c0.497,0.646,1.145,0.969,1.941,0.969
				c0.588,0,1.093-0.205,1.518-0.617c0.423-0.41,0.727-1.056,0.911-1.94l2.145,0.749c-0.33,1.315-0.875,2.292-1.641,2.93
				c-0.764,0.638-1.735,0.958-2.91,0.958c-1.454,0-2.65-0.548-3.586-1.641c-0.937-1.092-1.405-2.587-1.405-4.484
				c0-2.006,0.47-3.563,1.412-4.673c0.942-1.11,2.18-1.665,3.715-1.665c1.339,0,2.428,0.436,3.264,1.308
				c0.499,0.514,0.872,1.255,1.121,2.219l-2.189,0.575C42.108,54.707,41.836,54.214,41.426,53.852L41.426,53.852z M53.243,53.852
				c-0.41-0.362-0.909-0.543-1.497-0.543c-0.812,0-1.471,0.32-1.977,0.961s-0.759,1.68-0.759,3.116c0,1.525,0.25,2.608,0.748,3.256
				c0.499,0.646,1.147,0.969,1.943,0.969c0.588,0,1.093-0.205,1.517-0.617c0.423-0.41,0.728-1.056,0.913-1.94l2.145,0.749
				c-0.329,1.315-0.877,2.292-1.641,2.93c-0.764,0.638-1.735,0.958-2.91,0.958c-1.455,0-2.65-0.548-3.587-1.641
				c-0.937-1.092-1.405-2.587-1.405-4.484c0-2.006,0.472-3.563,1.413-4.673c0.942-1.11,2.179-1.665,3.713-1.665
				c1.341,0,2.429,0.436,3.266,1.308c0.497,0.514,0.872,1.255,1.121,2.219l-2.19,0.575C53.924,54.707,53.654,54.214,53.243,53.852
				L53.243,53.852z M58.87,63.487V51.436h2.211v12.051H58.87L58.87,63.487z M72.794,60.14c-0.272,0.877-0.665,1.586-1.173,2.129
				c-0.385,0.412-0.9,0.732-1.555,0.963c-0.488,0.17-1.142,0.255-1.959,0.255h-4.162V51.436h4.042c0.914,0,1.607,0.076,2.086,0.229
				c0.643,0.208,1.193,0.578,1.652,1.11c0.457,0.531,0.806,1.182,1.045,1.953c0.238,0.77,0.358,1.719,0.358,2.848
				C73.13,58.567,73.02,59.423,72.794,60.14L72.794,60.14z M70.62,55.324c-0.149-0.499-0.358-0.888-0.628-1.168
				c-0.268-0.279-0.611-0.468-1.024-0.567c-0.308-0.078-0.913-0.115-1.815-0.115H66.16v7.98h1.65c0.619,0,1.064-0.037,1.338-0.115
				c0.359-0.099,0.656-0.265,0.893-0.501c0.236-0.236,0.43-0.623,0.58-1.163c0.148-0.541,0.225-1.276,0.225-2.208
				C70.846,56.537,70.77,55.823,70.62,55.324L70.62,55.324z M84.104,61.455v2.032h-8.332V51.436h8.123v2.038h-5.91v2.672h5.5v2.03
				h-5.5v3.279H84.104L84.104,61.455z M93.238,63.487l-4.415-7.859v7.859h-2.056V51.436h2.152l4.484,8.047v-8.047h2.054v12.051
				H93.238L93.238,63.487z M103.24,53.474v10.012h-2.211V53.474h-3.252v-2.038h8.707v2.038H103.24L103.24,53.474z M44.432,81.852
				l-0.958-2.738h-4.379l-0.904,2.738h-2.345L40.111,69.8h2.34l4.385,12.052H44.432L44.432,81.852z M41.255,72.611l-1.479,4.472
				h2.99L41.255,72.611L41.255,72.611z M55.329,81.852v-5.27h-4.333v5.27h-2.213V69.8h2.213v4.744h4.333V69.8h2.213v12.052H55.329
				L55.329,81.852z M68.926,79.82v2.031h-8.333V69.8h8.123v2.038h-5.91v2.671h5.5v2.03h-5.5v3.279h6.12V79.82z M79.04,81.852
				l-0.956-2.738h-4.38L72.8,81.852h-2.347L74.721,69.8h2.34l4.387,12.052H79.04L79.04,81.852z M75.863,72.611l-1.479,4.472h2.99
				L75.863,72.611L75.863,72.611z M92.225,78.506c-0.275,0.877-0.666,1.586-1.174,2.129c-0.384,0.41-0.902,0.732-1.555,0.961
				c-0.488,0.172-1.141,0.256-1.958,0.256h-4.162V69.8h4.043c0.913,0,1.606,0.078,2.085,0.231c0.643,0.208,1.194,0.578,1.65,1.109
				c0.459,0.531,0.809,1.183,1.048,1.951c0.239,0.77,0.358,1.721,0.358,2.85C92.561,76.934,92.449,77.787,92.225,78.506
				L92.225,78.506z M90.05,73.688c-0.149-0.496-0.358-0.887-0.628-1.166c-0.268-0.278-0.611-0.467-1.023-0.568
				c-0.31-0.076-0.914-0.115-1.815-0.115H85.59v7.982h1.651c0.618,0,1.063-0.039,1.337-0.115c0.359-0.1,0.656-0.268,0.893-0.502
				c0.237-0.236,0.43-0.623,0.58-1.163c0.149-0.539,0.225-1.274,0.225-2.206S90.199,74.188,90.05,73.688L90.05,73.688z"/>
		</g>
	</g>
	
		<linearGradient id="SVGID_17_" gradientUnits="userSpaceOnUse" x1="219.0254" y1="-190.6924" x2="158.3053" y2="-103.9752" gradientTransform="matrix(1 0 0 -1 -123.165 -81.835)">
		<stop  offset="0" style="stop-color:#000000;stop-opacity:0"/>
		<stop  offset="1" style="stop-color:#FFFFFF;stop-opacity:0.25"/>
	</linearGradient>
	<path fill="url(#SVGID_17_)" d="M71.428,5.262l54.309,54.311c3.302,3.301,3.302,8.653,0,11.954l-54.207,54.209
		c-3.301,3.301-8.654,3.301-11.955,0L5.263,71.427c-3.301-3.301-3.301-8.654,0-11.955l54.208-54.21
		C62.772,1.962,68.126,1.962,71.428,5.262L71.428,5.262z"/>
</g>
</svg>
