<?xml version="1.0" encoding="utf-8"?>
<!-- Generator: Adobe Illustrator 16.0.0, SVG Export Plug-In . SVG Version: 6.00 Build 0)  -->
<!DOCTYPE svg PUBLIC "-//W3C//DTD SVG 1.1//EN" "http://www.w3.org/Graphics/SVG/1.1/DTD/svg11.dtd">
<svg version="1.1" id="Layer_1" xmlns="http://www.w3.org/2000/svg" xmlns:xlink="http://www.w3.org/1999/xlink" x="0px" y="0px"
	 width="132px" height="132px" viewBox="0 0 132 132" enable-background="new 0 0 132 132" xml:space="preserve">
<g id="disabled">
	<g>
		<g>
			
				<linearGradient id="SVGID_3_" gradientUnits="userSpaceOnUse" x1="126.9521" y1="-148.335" x2="252.3779" y2="-148.335" gradientTransform="matrix(1 0 0 -1 -123.165 -81.835)">
				<stop  offset="0" style="stop-color:#000000;stop-opacity:0.6"/>
				<stop  offset="1" style="stop-color:#000000;stop-opacity:0.6"/>
			</linearGradient>
			<path id="SVGID_1_" fill="url(#SVGID_3_)" d="M72.428,6.264l54.309,54.309c3.302,3.301,3.302,8.653,0,11.956l-54.207,54.209
				c-3.301,3.301-8.654,3.301-11.955,0L6.263,72.427c-3.301-3.301-3.301-8.654,0-11.955L60.471,6.264
				C63.772,2.961,69.126,2.961,72.428,6.264L72.428,6.264z"/>
		</g>
		<g>
			<path id="SVGID_2_" fill="#D1D1D1" d="M71.428,5.264l54.309,54.309c3.302,3.301,3.302,8.653,0,11.956l-54.207,54.209
				c-3.301,3.301-8.654,3.301-11.955,0L5.263,71.427c-3.301-3.301-3.301-8.654,0-11.955L59.471,5.264
				C62.772,1.961,68.126,1.961,71.428,5.264L71.428,5.264z"/>
		</g>
		<g>
			<defs>
				<path id="SVGID_4_" d="M72.428,6.264l54.309,54.309c3.302,3.301,3.302,8.653,0,11.956l-54.207,54.209
					c-3.301,3.301-8.654,3.301-11.955,0L6.263,72.427c-3.301-3.301-3.301-8.654,0-11.955L60.471,6.264
					C63.772,2.961,69.126,2.961,72.428,6.264L72.428,6.264z"/>
			</defs>
			<clipPath id="SVGID_5_">
				<use xlink:href="#SVGID_4_"  overflow="visible"/>
			</clipPath>
		</g>
	</g>
	<g>
		<g>
			<path id="SVGID_6_" d="M123.159,71.271l-51.888,51.888c-3.162,3.161-8.285,3.161-11.443,0L7.842,71.173
				c-3.161-3.159-3.161-8.284,0-11.445L59.729,7.841c3.161-3.159,8.285-3.159,11.445,0l51.985,51.985
				C126.318,62.987,126.318,68.111,123.159,71.271L123.159,71.271z M122.533,62.849L68.205,8.52c-1.463-1.463-3.838-1.463-5.301,0
				L8.576,62.849c-1.463,1.463-1.463,3.836,0,5.301l54.329,54.328c1.463,1.463,3.838,1.463,5.301,0l54.327-54.328
				C123.998,66.686,123.998,64.312,122.533,62.849L122.533,62.849z"/>
		</g>
	</g>
	<g>
		<g>
			<polygon id="SVGID_8_" points="50.957,24.019 79.957,24.019 79.957,106.018 50.957,106.018 			"/>
		</g>
	</g>
	<g>
		<g>
			<path id="SVGID_10_" fill="#545454" d="M65.429,80.037c6.262,0,11.324,4.929,11.324,11.195c0,5.994-5.062,10.925-11.324,10.925
				c-6.131,0-11.196-4.929-11.196-10.925C54.233,84.966,59.298,80.037,65.429,80.037"/>
		</g>
	</g>
	<g>
		<g>
			<path id="SVGID_12_" fill="#CFCFCF" d="M65.429,54.291c6.262,0,11.324,4.929,11.324,11.193c0,5.995-5.062,10.927-11.324,10.927
				c-6.131,0-11.196-4.931-11.196-10.927C54.233,59.221,59.298,54.291,65.429,54.291"/>
		</g>
	</g>
	<g>
		<g>
			<path id="SVGID_14_" fill="#4B4B4B" d="M65.429,28.598c6.262,0,11.324,4.933,11.324,11.195c0,5.995-5.062,10.926-11.324,10.926
				c-6.131,0-11.196-4.931-11.196-10.926C54.233,33.53,59.298,28.598,65.429,28.598"/>
		</g>
	</g>
	
		<linearGradient id="SVGID_7_" gradientUnits="userSpaceOnUse" x1="219.0254" y1="-190.6943" x2="158.3049" y2="-103.9764" gradientTransform="matrix(1 0 0 -1 -123.165 -81.835)">
		<stop  offset="0" style="stop-color:#000000;stop-opacity:0"/>
		<stop  offset="1" style="stop-color:#FFFFFF;stop-opacity:0.25"/>
	</linearGradient>
	<path fill="url(#SVGID_7_)" d="M71.428,5.264l54.309,54.309c3.302,3.301,3.302,8.653,0,11.956l-54.207,54.209
		c-3.301,3.301-8.654,3.301-11.955,0L5.263,71.427c-3.301-3.301-3.301-8.654,0-11.955L59.471,5.264
		C62.772,1.961,68.126,1.961,71.428,5.264L71.428,5.264z"/>
</g>
<g id="normal">
	<g>
		<g>
			
				<linearGradient id="SVGID_9_" gradientUnits="userSpaceOnUse" x1="126.9521" y1="-148.335" x2="252.3779" y2="-148.335" gradientTransform="matrix(1 0 0 -1 -123.165 -81.835)">
				<stop  offset="0" style="stop-color:#000000;stop-opacity:0.6"/>
				<stop  offset="1" style="stop-color:#000000;stop-opacity:0.6"/>
			</linearGradient>
			<path id="SVGID_17_" fill="url(#SVGID_9_)" d="M72.428,6.264l54.309,54.309c3.302,3.301,3.302,8.653,0,11.956l-54.207,54.209
				c-3.301,3.301-8.654,3.301-11.955,0L6.263,72.427c-3.301-3.301-3.301-8.654,0-11.955L60.471,6.264
				C63.772,2.961,69.126,2.961,72.428,6.264L72.428,6.264z"/>
		</g>
		<g>
			<path id="SVGID_18_" fill="#FFDF0A" d="M71.428,5.264l54.309,54.309c3.302,3.301,3.302,8.653,0,11.956l-54.207,54.209
				c-3.301,3.301-8.654,3.301-11.955,0L5.263,71.427c-3.301-3.301-3.301-8.654,0-11.955L59.471,5.264
				C62.772,1.961,68.126,1.961,71.428,5.264L71.428,5.264z"/>
		</g>
		<g>
			<defs>
				<path id="SVGID_11_" d="M72.428,6.264l54.309,54.309c3.302,3.301,3.302,8.653,0,11.956l-54.207,54.209
					c-3.301,3.301-8.654,3.301-11.955,0L6.263,72.427c-3.301-3.301-3.301-8.654,0-11.955L60.471,6.264
					C63.772,2.961,69.126,2.961,72.428,6.264L72.428,6.264z"/>
			</defs>
			<clipPath id="SVGID_13_">
				<use xlink:href="#SVGID_11_"  overflow="visible"/>
			</clipPath>
		</g>
	</g>
	<g>
		<g>
			<path id="SVGID_22_" d="M123.159,71.271l-51.888,51.888c-3.162,3.161-8.285,3.161-11.443,0L7.842,71.173
				c-3.161-3.159-3.161-8.284,0-11.445L59.729,7.841c3.161-3.159,8.285-3.159,11.445,0l51.985,51.985
				C126.318,62.987,126.318,68.111,123.159,71.271L123.159,71.271z M122.533,62.849L68.205,8.52c-1.463-1.463-3.838-1.463-5.301,0
				L8.576,62.849c-1.463,1.463-1.463,3.836,0,5.301l54.329,54.328c1.463,1.463,3.838,1.463,5.301,0l54.327-54.328
				C123.998,66.686,123.998,64.312,122.533,62.849L122.533,62.849z"/>
		</g>
	</g>
	<g>
		<g>
			<polygon id="SVGID_24_" points="50.957,24.019 79.957,24.019 79.957,106.018 50.957,106.018 			"/>
		</g>
	</g>
	<g>
		<g>
			<path id="SVGID_26_" fill="#00833B" d="M65.429,80.037c6.262,0,11.324,4.929,11.324,11.195c0,5.994-5.062,10.925-11.324,10.925
				c-6.131,0-11.196-4.929-11.196-10.925C54.233,84.966,59.298,80.037,65.429,80.037"/>
		</g>
	</g>
	<g>
		<g>
			<path id="SVGID_28_" fill="#FFDE00" d="M65.429,54.291c6.262,0,11.324,4.929,11.324,11.193c0,5.995-5.062,10.927-11.324,10.927
				c-6.131,0-11.196-4.931-11.196-10.927C54.233,59.221,59.298,54.291,65.429,54.291"/>
		</g>
	</g>
	<g>
		<g>
			<path id="SVGID_30_" fill="#C4161C" d="M65.429,28.598c6.262,0,11.324,4.933,11.324,11.195c0,5.995-5.062,10.926-11.324,10.926
				c-6.131,0-11.196-4.931-11.196-10.926C54.233,33.53,59.298,28.598,65.429,28.598"/>
		</g>
	</g>
	
		<linearGradient id="SVGID_15_" gradientUnits="userSpaceOnUse" x1="219.0254" y1="-190.6943" x2="158.3049" y2="-103.9764" gradientTransform="matrix(1 0 0 -1 -123.165 -81.835)">
		<stop  offset="0" style="stop-color:#000000;stop-opacity:0"/>
		<stop  offset="1" style="stop-color:#FFFFFF;stop-opacity:0.25"/>
	</linearGradient>
	<path fill="url(#SVGID_15_)" d="M71.428,5.264l54.309,54.309c3.302,3.301,3.302,8.653,0,11.956l-54.207,54.209
		c-3.301,3.301-8.654,3.301-11.955,0L5.263,71.427c-3.301-3.301-3.301-8.654,0-11.955L59.471,5.264
		C62.772,1.961,68.126,1.961,71.428,5.264L71.428,5.264z"/>
</g>
</svg>
