<?xml version="1.0" encoding="utf-8"?>
<!-- Generator: Adobe Illustrator 16.0.0, SVG Export Plug-In . SVG Version: 6.00 Build 0)  -->
<!DOCTYPE svg PUBLIC "-//W3C//DTD SVG 1.1//EN" "http://www.w3.org/Graphics/SVG/1.1/DTD/svg11.dtd">
<svg version="1.1" id="Layer_1" xmlns="http://www.w3.org/2000/svg" xmlns:xlink="http://www.w3.org/1999/xlink" x="0px" y="0px"
	 width="132px" height="132px" viewBox="0 0 132 132" enable-background="new 0 0 132 132" xml:space="preserve">
<g id="disabled">
	<g>
		<g>
			
				<linearGradient id="SVGID_3_" gradientUnits="userSpaceOnUse" x1="126.9521" y1="-148.3345" x2="252.3779" y2="-148.3345" gradientTransform="matrix(1 0 0 -1 -123.165 -81.835)">
				<stop  offset="0" style="stop-color:#000000;stop-opacity:0.6"/>
				<stop  offset="1" style="stop-color:#000000;stop-opacity:0.6"/>
			</linearGradient>
			<path id="SVGID_1_" fill="url(#SVGID_3_)" d="M72.428,6.262l54.309,54.311c3.302,3.301,3.302,8.653,0,11.954l-54.207,54.209
				c-3.301,3.302-8.654,3.302-11.955,0L6.263,72.427c-3.301-3.301-3.301-8.654,0-11.955l54.208-54.21
				C63.772,2.961,69.126,2.961,72.428,6.262L72.428,6.262z"/>
		</g>
		<g>
			<path id="SVGID_2_" fill="#D1D1D1" d="M71.428,5.262l54.309,54.311c3.302,3.301,3.302,8.653,0,11.954l-54.207,54.209
				c-3.301,3.302-8.654,3.302-11.955,0L5.263,71.427c-3.301-3.301-3.301-8.654,0-11.955l54.208-54.21
				C62.772,1.961,68.126,1.961,71.428,5.262L71.428,5.262z"/>
		</g>
		<g>
			<defs>
				<path id="SVGID_4_" d="M72.428,6.262l54.309,54.311c3.302,3.301,3.302,8.653,0,11.954l-54.207,54.209
					c-3.301,3.302-8.654,3.302-11.955,0L6.263,72.427c-3.301-3.301-3.301-8.654,0-11.955l54.208-54.21
					C63.772,2.961,69.126,2.961,72.428,6.262L72.428,6.262z"/>
			</defs>
			<clipPath id="SVGID_5_">
				<use xlink:href="#SVGID_4_"  overflow="visible"/>
			</clipPath>
		</g>
	</g>
	<g>
		<g>
			<path id="SVGID_6_" d="M123.159,71.27l-51.888,51.889c-3.162,3.16-8.285,3.16-11.443,0L7.842,71.173
				c-3.161-3.159-3.161-8.284,0-11.443L59.729,7.841c3.161-3.159,8.285-3.159,11.445,0l51.985,51.985
				C126.318,62.988,126.318,68.111,123.159,71.27L123.159,71.27z M122.533,62.849L68.205,8.52c-1.463-1.463-3.838-1.463-5.301,0
				L8.576,62.849c-1.463,1.463-1.463,3.836,0,5.301l54.329,54.328c1.463,1.463,3.838,1.463,5.301,0l54.327-54.328
				C123.998,66.686,123.998,64.312,122.533,62.849L122.533,62.849z"/>
		</g>
	</g>
	<g>
		<g>
			<path id="SVGID_8_" d="M65.358,20.126L49.922,39.985c0,0-1.384,1.827-1.027,3.351c0.273,1.161,1.772,0.985,3.316,0.766
				c1.542-0.221,7.023-3.269,7.683-2.386c0.662,0.882,0.392,1.901,0.171,3.006c-0.22,1.102-2.646,3.537-3.749,5.412
				s-4.715,6.711-4.597,10.461c0.118,3.75,0.958,6.528,3.715,9.397c2.757,2.867,4.742,5.074,4.742,5.074l4.962,4.084
				c0,0,1.725,1.74,1.805,3.406c0.082,1.73-0.375,2.678-1.585,4.205c-2.492,3.146-5.181,6.729-6.065,8.385
				c-0.882,1.655-1.144,1.984-1.253,4.521c-0.111,2.537-0.036,9.378-0.036,9.378l11.959,0.036c0,0-0.084-7.207,0.025-8.53
				c0.111-1.323,1.214-2.317,2.316-3.53c1.104-1.213,6.246-5.359,6.285-14.012c0.039-8.349-3.639-10.591-4.3-11.253
				c-0.662-0.661-5.073-5.186-6.616-6.288c-1.544-1.103-3.749-1.877-3.749-4.634c0-2.759,1.102-3.311,2.646-5.408
				c1.545-2.095,3.089-2.536,4.08-5.404c0.992-2.868,0.332-5.737,0.332-6.84c0-1.105,0-1.765,0.551-2.096s1.189-0.192,1.93,0.538
				c0.896,0.882,4.27,2.552,5.374,2.662c1.103,0.11,2.358,0.178,2.729-0.552c0.586-1.15,0.221-2.799-0.771-4.014
				C79.802,38.508,65.358,20.126,65.358,20.126L65.358,20.126z"/>
		</g>
	</g>
	
		<linearGradient id="SVGID_7_" gradientUnits="userSpaceOnUse" x1="219.0264" y1="-190.6929" x2="158.306" y2="-103.9753" gradientTransform="matrix(1 0 0 -1 -123.165 -81.835)">
		<stop  offset="0" style="stop-color:#000000;stop-opacity:0"/>
		<stop  offset="1" style="stop-color:#FFFFFF;stop-opacity:0.25"/>
	</linearGradient>
	<path fill="url(#SVGID_7_)" d="M71.428,5.262l54.309,54.311c3.302,3.301,3.302,8.653,0,11.954l-54.207,54.209
		c-3.301,3.302-8.654,3.302-11.955,0L5.263,71.427c-3.301-3.301-3.301-8.654,0-11.955l54.208-54.21
		C62.772,1.961,68.126,1.961,71.428,5.262L71.428,5.262z"/>
</g>
<g id="normal">
	<g>
		<g>
			
				<linearGradient id="SVGID_9_" gradientUnits="userSpaceOnUse" x1="126.9521" y1="-148.3345" x2="252.3779" y2="-148.3345" gradientTransform="matrix(1 0 0 -1 -123.165 -81.835)">
				<stop  offset="0" style="stop-color:#000000;stop-opacity:0.6"/>
				<stop  offset="1" style="stop-color:#000000;stop-opacity:0.6"/>
			</linearGradient>
			<path id="SVGID_11_" fill="url(#SVGID_9_)" d="M72.428,6.262l54.309,54.311c3.302,3.301,3.302,8.653,0,11.954l-54.207,54.209
				c-3.301,3.302-8.654,3.302-11.955,0L6.263,72.427c-3.301-3.301-3.301-8.654,0-11.955l54.208-54.21
				C63.772,2.961,69.126,2.961,72.428,6.262L72.428,6.262z"/>
		</g>
		<g>
			<path id="SVGID_12_" fill="#FFDF0A" d="M71.428,5.262l54.309,54.311c3.302,3.301,3.302,8.653,0,11.954l-54.207,54.209
				c-3.301,3.302-8.654,3.302-11.955,0L5.263,71.427c-3.301-3.301-3.301-8.654,0-11.955l54.208-54.21
				C62.772,1.961,68.126,1.961,71.428,5.262L71.428,5.262z"/>
		</g>
		<g>
			<defs>
				<path id="SVGID_10_" d="M72.428,6.262l54.309,54.311c3.302,3.301,3.302,8.653,0,11.954l-54.207,54.209
					c-3.301,3.302-8.654,3.302-11.955,0L6.263,72.427c-3.301-3.301-3.301-8.654,0-11.955l54.208-54.21
					C63.772,2.961,69.126,2.961,72.428,6.262L72.428,6.262z"/>
			</defs>
			<clipPath id="SVGID_13_">
				<use xlink:href="#SVGID_10_"  overflow="visible"/>
			</clipPath>
		</g>
	</g>
	<g>
		<g>
			<path id="SVGID_16_" d="M123.159,71.27l-51.888,51.889c-3.162,3.16-8.285,3.16-11.443,0L7.842,71.173
				c-3.161-3.159-3.161-8.284,0-11.443L59.729,7.841c3.161-3.159,8.285-3.159,11.445,0l51.985,51.985
				C126.318,62.988,126.318,68.111,123.159,71.27L123.159,71.27z M122.533,62.849L68.205,8.52c-1.463-1.463-3.838-1.463-5.301,0
				L8.576,62.849c-1.463,1.463-1.463,3.836,0,5.301l54.329,54.328c1.463,1.463,3.838,1.463,5.301,0l54.327-54.328
				C123.998,66.686,123.998,64.312,122.533,62.849L122.533,62.849z"/>
		</g>
	</g>
	<g>
		<g>
			<path id="SVGID_18_" d="M65.358,20.126L49.922,39.985c0,0-1.384,1.827-1.027,3.351c0.273,1.161,1.772,0.985,3.316,0.766
				c1.542-0.221,7.023-3.269,7.683-2.386c0.662,0.882,0.392,1.901,0.171,3.006c-0.22,1.102-2.646,3.537-3.749,5.412
				s-4.715,6.711-4.597,10.461c0.118,3.75,0.958,6.528,3.715,9.397c2.757,2.867,4.742,5.074,4.742,5.074l4.962,4.084
				c0,0,1.725,1.74,1.805,3.406c0.082,1.73-0.375,2.678-1.585,4.205c-2.492,3.146-5.181,6.729-6.065,8.385
				c-0.882,1.655-1.144,1.984-1.253,4.521c-0.111,2.537-0.036,9.378-0.036,9.378l11.959,0.036c0,0-0.084-7.207,0.025-8.53
				c0.111-1.323,1.214-2.317,2.316-3.53c1.104-1.213,6.246-5.359,6.285-14.012c0.039-8.349-3.639-10.591-4.3-11.253
				c-0.662-0.661-5.073-5.186-6.616-6.288c-1.544-1.103-3.749-1.877-3.749-4.634c0-2.759,1.102-3.311,2.646-5.408
				c1.545-2.095,3.089-2.536,4.08-5.404c0.992-2.868,0.332-5.737,0.332-6.84c0-1.105,0-1.765,0.551-2.096s1.189-0.192,1.93,0.538
				c0.896,0.882,4.27,2.552,5.374,2.662c1.103,0.11,2.358,0.178,2.729-0.552c0.586-1.15,0.221-2.799-0.771-4.014
				C79.802,38.508,65.358,20.126,65.358,20.126L65.358,20.126z"/>
		</g>
	</g>
	
		<linearGradient id="SVGID_14_" gradientUnits="userSpaceOnUse" x1="219.0264" y1="-190.6929" x2="158.306" y2="-103.9753" gradientTransform="matrix(1 0 0 -1 -123.165 -81.835)">
		<stop  offset="0" style="stop-color:#000000;stop-opacity:0"/>
		<stop  offset="1" style="stop-color:#FFFFFF;stop-opacity:0.25"/>
	</linearGradient>
	<path fill="url(#SVGID_14_)" d="M71.428,5.262l54.309,54.311c3.302,3.301,3.302,8.653,0,11.954l-54.207,54.209
		c-3.301,3.302-8.654,3.302-11.955,0L5.263,71.427c-3.301-3.301-3.301-8.654,0-11.955l54.208-54.21
		C62.772,1.961,68.126,1.961,71.428,5.262L71.428,5.262z"/>
</g>
</svg>
