<?xml version="1.0" encoding="utf-8"?>
<!-- Generator: Adobe Illustrator 16.0.0, SVG Export Plug-In . SVG Version: 6.00 Build 0)  -->
<!DOCTYPE svg PUBLIC "-//W3C//DTD SVG 1.1//EN" "http://www.w3.org/Graphics/SVG/1.1/DTD/svg11.dtd">
<svg version="1.1" id="Layer_1" xmlns="http://www.w3.org/2000/svg" xmlns:xlink="http://www.w3.org/1999/xlink" x="0px" y="0px"
	 width="132px" height="132px" viewBox="0 0 132 132" enable-background="new 0 0 132 132" xml:space="preserve">
<g id="disabled">
	<g>
		<g>
			
				<linearGradient id="SVGID_3_" gradientUnits="userSpaceOnUse" x1="129.165" y1="-148.335" x2="250.165" y2="-148.335" gradientTransform="matrix(1 0 0 -1 -123.165 -81.835)">
				<stop  offset="0" style="stop-color:#000000;stop-opacity:0.6"/>
				<stop  offset="1" style="stop-color:#000000;stop-opacity:0.6"/>
			</linearGradient>
			<path id="SVGID_1_" fill="url(#SVGID_3_)" d="M127,119.5c0,4.186-3.813,8-8,8H14c-4.185,0-8-3.813-8-8L6.07,13.498
				C6.07,9.315,9.815,5.5,14,5.5h105c4.188,0,8,3.817,8,8.001V119.5L127,119.5z"/>
		</g>
		<g>
			<path id="SVGID_2_" fill="#FFFFFF" d="M126,118.5c0,4.186-3.813,8-8,8H13c-4.185,0-8-3.813-8-8L5.07,12.498
				C5.07,8.315,8.815,4.5,13,4.5h105c4.188,0,8,3.817,8,8.001V118.5L126,118.5z"/>
		</g>
		<g>
			<defs>
				<path id="SVGID_4_" d="M127,119.5c0,4.186-3.813,8-8,8H14c-4.185,0-8-3.813-8-8L6.07,13.498C6.07,9.315,9.815,5.5,14,5.5h105
					c4.188,0,8,3.817,8,8.001V119.5L127,119.5z"/>
			</defs>
			<clipPath id="SVGID_5_">
				<use xlink:href="#SVGID_4_"  overflow="visible"/>
			</clipPath>
		</g>
	</g>
	<g>
		<g>
			<path id="SVGID_6_" fill="#969696" d="M118,124.501H13c-3.062,0-6-2.935-6-6v-106c0-3.064,2.938-6,6-6h105c3.066,0,6,2.936,6,6
				V118.5C124,121.566,121.064,124.501,118,124.501L118,124.501z M121.001,12.501c0-1.394-1.604-3.001-3.001-3.001H13
				c-1.392,0-3.001,1.607-3.001,3.001V118.5c0,1.395,1.609,3.001,3.001,3.001h105c1.396,0,3.001-1.606,3.001-3.001V12.501
				L121.001,12.501z M84.438,38.68c-4.834-3.335-11.002-5.588-17.021-5.91c-8.061-0.428-16.292,2.219-22.483,7.304l6.566,2.145
				c0.901,0.31,1.52,0.607,1.83,1.407c0.441,1.142-0.128,2.431-1.27,2.875L26.211,56.567l0.258-27.75
				c0.005-1.226,1.011-2.218,2.235-2.208c0.819,0.006,1.349,0.473,1.914,1.121l4.306,5.433c8.799-8.271,20.924-12.869,33.12-12.223
				c8.019,0.425,16.25,3.308,22.832,7.675L84.438,38.68L84.438,38.68z M54.006,117.943c-1.06,0.613-2.424,0.248-3.036-0.812
				c-0.41-0.707-0.276-1.401-0.006-2.216l2.5-6.465c-11.595-3.391-21.706-11.506-27.335-22.348c-3.7-7.121-5.343-15.31-4.921-23.196
				l11.896,0.074c-0.428,5.853,0.762,12.316,3.54,17.662c3.72,7.17,10.174,12.918,17.696,15.674l-1.481-6.748
				c-0.191-0.932-0.245-1.618,0.284-2.287c0.759-0.959,2.166-1.124,3.12-0.362l21.79,17.164L54.006,117.943L54.006,117.943z
				 M117.764,52.337c-0.404,0.709-1.07,0.94-1.914,1.116l-6.845,1.087c2.892,11.728,0.948,24.547-5.598,34.858
				c-4.304,6.776-10.855,12.539-17.888,16.131L79.906,94.98c5.279-2.571,10.271-6.848,13.498-11.932
				c4.33-6.818,6.061-15.283,4.666-23.177l-5.088,4.673c-0.711,0.632-1.276,1.026-2.123,0.904c-1.209-0.178-2.055-1.31-1.881-2.52
				l3.908-27.462l24.055,13.837C118.005,49.911,118.373,51.276,117.764,52.337L117.764,52.337z"/>
		</g>
	</g>
	
		<linearGradient id="SVGID_7_" gradientUnits="userSpaceOnUse" x1="235.3652" y1="-214.0293" x2="141.9728" y2="-80.6511" gradientTransform="matrix(1 0 0 -1 -123.165 -81.835)">
		<stop  offset="0" style="stop-color:#000000;stop-opacity:0"/>
		<stop  offset="1" style="stop-color:#FFFFFF;stop-opacity:0.25"/>
	</linearGradient>
	<path fill="url(#SVGID_7_)" d="M126,118.5c0,4.186-3.813,8-8,8H13c-4.185,0-8-3.813-8-8L5.07,12.498C5.07,8.315,8.815,4.5,13,4.5
		h105c4.188,0,8,3.817,8,8.001V118.5L126,118.5z"/>
</g>
<g id="normal">
	<g>
		<g>
			
				<linearGradient id="SVGID_8_" gradientUnits="userSpaceOnUse" x1="129.165" y1="-148.335" x2="250.165" y2="-148.335" gradientTransform="matrix(1 0 0 -1 -123.165 -81.835)">
				<stop  offset="0" style="stop-color:#000000;stop-opacity:0.6"/>
				<stop  offset="1" style="stop-color:#000000;stop-opacity:0.6"/>
			</linearGradient>
			<path id="SVGID_9_" fill="url(#SVGID_8_)" d="M127,119.5c0,4.186-3.813,8-8,8H14c-4.185,0-8-3.813-8-8L6.07,13.498
				C6.07,9.315,9.815,5.5,14,5.5h105c4.188,0,8,3.817,8,8.001V119.5L127,119.5z"/>
		</g>
		<g>
			<path id="SVGID_10_" fill="#FFFFFF" d="M126,118.5c0,4.186-3.813,8-8,8H13c-4.185,0-8-3.813-8-8L5.07,12.498
				C5.07,8.315,8.815,4.5,13,4.5h105c4.188,0,8,3.817,8,8.001V118.5L126,118.5z"/>
		</g>
		<g>
			<defs>
				<path id="SVGID_11_" d="M127,119.5c0,4.186-3.813,8-8,8H14c-4.185,0-8-3.813-8-8L6.07,13.498C6.07,9.315,9.815,5.5,14,5.5h105
					c4.188,0,8,3.817,8,8.001V119.5L127,119.5z"/>
			</defs>
			<clipPath id="SVGID_12_">
				<use xlink:href="#SVGID_11_"  overflow="visible"/>
			</clipPath>
		</g>
	</g>
	<g>
		<g>
			<path id="SVGID_14_" d="M118,124.501H13c-3.062,0-6-2.935-6-6v-106c0-3.064,2.938-6,6-6h105c3.066,0,6,2.936,6,6V118.5
				C124,121.566,121.064,124.501,118,124.501L118,124.501z M121.001,12.501c0-1.394-1.604-3.001-3.001-3.001H13
				c-1.392,0-3.001,1.607-3.001,3.001V118.5c0,1.395,1.609,3.001,3.001,3.001h105c1.396,0,3.001-1.606,3.001-3.001V12.501
				L121.001,12.501z M84.438,38.68c-4.834-3.335-11.002-5.588-17.021-5.91c-8.061-0.428-16.292,2.219-22.483,7.304l6.566,2.145
				c0.901,0.31,1.52,0.607,1.83,1.407c0.441,1.142-0.128,2.431-1.27,2.875L26.211,56.567l0.258-27.75
				c0.005-1.226,1.011-2.218,2.235-2.208c0.819,0.006,1.349,0.473,1.914,1.121l4.306,5.433c8.799-8.271,20.924-12.869,33.12-12.223
				c8.019,0.425,16.25,3.308,22.832,7.675L84.438,38.68L84.438,38.68z M54.006,117.943c-1.06,0.613-2.424,0.248-3.036-0.812
				c-0.41-0.707-0.276-1.401-0.006-2.216l2.5-6.465c-11.595-3.391-21.706-11.506-27.335-22.348c-3.7-7.121-5.343-15.31-4.921-23.196
				l11.896,0.074c-0.428,5.853,0.762,12.316,3.54,17.662c3.72,7.17,10.174,12.918,17.696,15.674l-1.481-6.748
				c-0.191-0.932-0.245-1.618,0.284-2.287c0.759-0.959,2.166-1.124,3.12-0.362l21.79,17.164L54.006,117.943L54.006,117.943z
				 M117.764,52.337c-0.404,0.709-1.07,0.94-1.914,1.116l-6.845,1.087c2.892,11.728,0.948,24.547-5.598,34.858
				c-4.304,6.776-10.855,12.539-17.888,16.131L79.906,94.98c5.279-2.571,10.271-6.848,13.498-11.932
				c4.33-6.818,6.061-15.283,4.666-23.177l-5.088,4.673c-0.711,0.632-1.276,1.026-2.123,0.904c-1.209-0.178-2.055-1.31-1.881-2.52
				l3.908-27.462l24.055,13.837C118.005,49.911,118.373,51.276,117.764,52.337L117.764,52.337z"/>
		</g>
	</g>
	
		<linearGradient id="SVGID_13_" gradientUnits="userSpaceOnUse" x1="235.3652" y1="-214.0293" x2="141.9728" y2="-80.6511" gradientTransform="matrix(1 0 0 -1 -123.165 -81.835)">
		<stop  offset="0" style="stop-color:#000000;stop-opacity:0"/>
		<stop  offset="1" style="stop-color:#FFFFFF;stop-opacity:0.25"/>
	</linearGradient>
	<path fill="url(#SVGID_13_)" d="M126,118.5c0,4.186-3.813,8-8,8H13c-4.185,0-8-3.813-8-8L5.07,12.498C5.07,8.315,8.815,4.5,13,4.5
		h105c4.188,0,8,3.817,8,8.001V118.5L126,118.5z"/>
</g>
</svg>
