<?xml version="1.0" encoding="utf-8"?>
<!-- Generator: Adobe Illustrator 16.0.0, SVG Export Plug-In . SVG Version: 6.00 Build 0)  -->
<!DOCTYPE svg PUBLIC "-//W3C//DTD SVG 1.1//EN" "http://www.w3.org/Graphics/SVG/1.1/DTD/svg11.dtd">
<svg version="1.1" id="Layer_1" xmlns="http://www.w3.org/2000/svg" xmlns:xlink="http://www.w3.org/1999/xlink" x="0px" y="0px"
	 width="132px" height="132px" viewBox="0 0 132 132" enable-background="new 0 0 132 132" xml:space="preserve">
<g id="disabled">
	<g>
		<g>
			
				<linearGradient id="SVGID_3_" gradientUnits="userSpaceOnUse" x1="250.1172" y1="727.1699" x2="375.543" y2="727.1699" gradientTransform="matrix(1 0 0 1 -246.3301 -660.6699)">
				<stop  offset="0" style="stop-color:#000000;stop-opacity:0.6"/>
				<stop  offset="1" style="stop-color:#000000;stop-opacity:0.6"/>
			</linearGradient>
			<path id="SVGID_1_" fill="url(#SVGID_3_)" d="M72.428,6.263l54.309,54.311c3.303,3.301,3.303,8.654,0,11.955l-54.207,54.209
				c-3.301,3.3-8.653,3.3-11.954,0L6.263,72.427c-3.301-3.301-3.301-8.654,0-11.955L60.471,6.263
				C63.772,2.961,69.126,2.961,72.428,6.263L72.428,6.263z"/>
		</g>
		<g>
			<path id="SVGID_2_" fill="#D1D1D1" d="M71.428,5.263l54.309,54.311c3.303,3.301,3.303,8.654,0,11.955l-54.207,54.209
				c-3.301,3.3-8.653,3.3-11.954,0L5.263,71.427c-3.301-3.301-3.301-8.654,0-11.955L59.471,5.263
				C62.772,1.961,68.126,1.961,71.428,5.263L71.428,5.263z"/>
		</g>
	</g>
	<g>
		<g>
			<path id="SVGID_6_" d="M123.159,71.271l-51.888,51.888c-3.162,3.161-8.286,3.161-11.443,0L7.842,71.174
				c-3.161-3.16-3.161-8.284,0-11.445L59.729,7.842c3.161-3.161,8.285-3.161,11.445,0l51.985,51.987
				C126.318,62.988,126.318,68.111,123.159,71.271L123.159,71.271z M122.533,62.849L68.205,8.52c-1.463-1.463-3.838-1.463-5.301,0
				L8.576,62.849c-1.463,1.463-1.463,3.836,0,5.301l54.329,54.326c1.463,1.465,3.838,1.465,5.301,0l54.327-54.326
				C123.998,66.686,123.998,64.313,122.533,62.849L122.533,62.849z"/>
		</g>
	</g>
	<g>
		<g>
			<path id="SVGID_8_" d="M44.957,103.018v-75h10.999v75H44.957L44.957,103.018z M74.957,103.018v-40l-8-13.999v-21h11.001V45.02
				l8,12.999v45H74.957V103.018z M66.957,103.018V93.02h5.001v9.998H66.957L66.957,103.018z M66.957,90.02v-10h5.001v10H66.957
				L66.957,90.02z M66.957,77.02v-10h5.001v10H66.957L66.957,77.02z"/>
		</g>
	</g>
	
		<linearGradient id="SVGID_4_" gradientUnits="userSpaceOnUse" x1="342.1904" y1="769.5293" x2="281.4697" y2="682.8112" gradientTransform="matrix(1 0 0 1 -246.3301 -660.6699)">
		<stop  offset="0" style="stop-color:#000000;stop-opacity:0"/>
		<stop  offset="1" style="stop-color:#FFFFFF;stop-opacity:0.25"/>
	</linearGradient>
	<path fill="url(#SVGID_4_)" d="M71.428,5.263l54.309,54.311c3.303,3.301,3.303,8.654,0,11.955l-54.207,54.209
		c-3.301,3.3-8.653,3.3-11.954,0L5.263,71.427c-3.301-3.301-3.301-8.654,0-11.955L59.471,5.263
		C62.772,1.961,68.126,1.961,71.428,5.263L71.428,5.263z"/>
</g>
<g id="normal">
	<g>
		<g>
			
				<linearGradient id="SVGID_5_" gradientUnits="userSpaceOnUse" x1="250.1172" y1="727.1699" x2="375.543" y2="727.1699" gradientTransform="matrix(1 0 0 1 -246.3301 -660.6699)">
				<stop  offset="0" style="stop-color:#000000;stop-opacity:0.6"/>
				<stop  offset="1" style="stop-color:#000000;stop-opacity:0.6"/>
			</linearGradient>
			<path id="SVGID_11_" fill="url(#SVGID_5_)" d="M72.428,6.263l54.309,54.311c3.303,3.301,3.303,8.654,0,11.955l-54.207,54.209
				c-3.301,3.3-8.653,3.3-11.954,0L6.263,72.427c-3.301-3.301-3.301-8.654,0-11.955L60.471,6.263
				C63.772,2.961,69.126,2.961,72.428,6.263L72.428,6.263z"/>
		</g>
		<g>
			<path id="SVGID_12_" fill="#FFDF0A" d="M71.428,5.263l54.309,54.311c3.303,3.301,3.303,8.654,0,11.955l-54.207,54.209
				c-3.301,3.3-8.653,3.3-11.954,0L5.263,71.427c-3.301-3.301-3.301-8.654,0-11.955L59.471,5.263
				C62.772,1.961,68.126,1.961,71.428,5.263L71.428,5.263z"/>
		</g>
	</g>
	<g>
		<g>
			<path id="SVGID_16_" d="M123.159,71.271l-51.888,51.888c-3.162,3.161-8.286,3.161-11.443,0L7.842,71.174
				c-3.161-3.16-3.161-8.284,0-11.445L59.729,7.842c3.161-3.161,8.285-3.161,11.445,0l51.985,51.987
				C126.318,62.988,126.318,68.111,123.159,71.271L123.159,71.271z M122.533,62.849L68.205,8.52c-1.463-1.463-3.838-1.463-5.301,0
				L8.576,62.849c-1.463,1.463-1.463,3.836,0,5.301l54.329,54.326c1.463,1.465,3.838,1.465,5.301,0l54.327-54.326
				C123.998,66.686,123.998,64.313,122.533,62.849L122.533,62.849z"/>
		</g>
	</g>
	<g>
		<g>
			<path id="SVGID_18_" d="M44.957,103.018v-75h10.999v75H44.957L44.957,103.018z M74.957,103.018v-40l-8-13.999v-21h11.001V45.02
				l8,12.999v45H74.957V103.018z M66.957,103.018V93.02h5.001v9.998H66.957L66.957,103.018z M66.957,90.02v-10h5.001v10H66.957
				L66.957,90.02z M66.957,77.02v-10h5.001v10H66.957L66.957,77.02z"/>
		</g>
	</g>
	
		<linearGradient id="SVGID_7_" gradientUnits="userSpaceOnUse" x1="342.1904" y1="769.5293" x2="281.4697" y2="682.8112" gradientTransform="matrix(1 0 0 1 -246.3301 -660.6699)">
		<stop  offset="0" style="stop-color:#000000;stop-opacity:0"/>
		<stop  offset="1" style="stop-color:#FFFFFF;stop-opacity:0.25"/>
	</linearGradient>
	<path fill="url(#SVGID_7_)" d="M71.428,5.263l54.309,54.311c3.303,3.301,3.303,8.654,0,11.955l-54.207,54.209
		c-3.301,3.3-8.653,3.3-11.954,0L5.263,71.427c-3.301-3.301-3.301-8.654,0-11.955L59.471,5.263
		C62.772,1.961,68.126,1.961,71.428,5.263L71.428,5.263z"/>
</g>
</svg>
