<?xml version="1.0" encoding="utf-8"?>
<!-- Generator: Adobe Illustrator 16.0.0, SVG Export Plug-In . SVG Version: 6.00 Build 0)  -->
<!DOCTYPE svg PUBLIC "-//W3C//DTD SVG 1.1//EN" "http://www.w3.org/Graphics/SVG/1.1/DTD/svg11.dtd">
<svg version="1.1" id="Layer_1" xmlns="http://www.w3.org/2000/svg" xmlns:xlink="http://www.w3.org/1999/xlink" x="0px" y="0px"
	 width="132px" height="132px" viewBox="0 0 132 132" enable-background="new 0 0 132 132" xml:space="preserve">
<g id="disabled">
	<g>
		<g>
			
				<linearGradient id="SVGID_3_" gradientUnits="userSpaceOnUse" x1="126.9521" y1="-148.335" x2="252.3779" y2="-148.335" gradientTransform="matrix(1 0 0 -1 -123.165 -81.835)">
				<stop  offset="0" style="stop-color:#000000;stop-opacity:0.6"/>
				<stop  offset="1" style="stop-color:#000000;stop-opacity:0.6"/>
			</linearGradient>
			<path id="SVGID_1_" fill="url(#SVGID_3_)" d="M72.428,6.262l54.309,54.311c3.302,3.301,3.302,8.653,0,11.954l-54.207,54.209
				c-3.301,3.302-8.654,3.302-11.955,0L6.263,72.426c-3.301-3.301-3.301-8.654,0-11.955L60.471,6.262
				C63.772,2.962,69.126,2.962,72.428,6.262L72.428,6.262z"/>
		</g>
		<g>
			<path id="SVGID_2_" fill="#D1D1D1" d="M71.428,5.262l54.309,54.311c3.302,3.301,3.302,8.653,0,11.954l-54.207,54.209
				c-3.301,3.302-8.654,3.302-11.955,0L5.263,71.426c-3.301-3.301-3.301-8.654,0-11.955L59.471,5.262
				C62.772,1.962,68.126,1.962,71.428,5.262L71.428,5.262z"/>
		</g>
		<g>
			<defs>
				<path id="SVGID_4_" d="M72.428,6.262l54.309,54.311c3.302,3.301,3.302,8.653,0,11.954l-54.207,54.209
					c-3.301,3.302-8.654,3.302-11.955,0L6.263,72.426c-3.301-3.301-3.301-8.654,0-11.955L60.471,6.262
					C63.772,2.962,69.126,2.962,72.428,6.262L72.428,6.262z"/>
			</defs>
			<clipPath id="SVGID_5_">
				<use xlink:href="#SVGID_4_"  overflow="visible"/>
			</clipPath>
		</g>
	</g>
	<g>
		<g>
			<path id="SVGID_6_" d="M123.159,71.27l-51.888,51.889c-3.162,3.16-8.285,3.16-11.443,0L7.842,71.173
				c-3.161-3.159-3.161-8.284,0-11.445L59.729,7.841c3.161-3.161,8.285-3.161,11.445,0l51.985,51.985
				C126.318,62.987,126.318,68.109,123.159,71.27L123.159,71.27z M122.533,62.848L68.205,8.519c-1.463-1.463-3.838-1.463-5.301,0
				L8.576,62.848c-1.463,1.463-1.463,3.835,0,5.3l54.329,54.328c1.463,1.463,3.838,1.463,5.301,0l54.327-54.328
				C123.998,66.684,123.998,64.311,122.533,62.848L122.533,62.848z"/>
		</g>
	</g>
	<g>
		<g>
			<path id="SVGID_8_" d="M43.957,94.018h11.999v-32c0,0,0.732-2,2.001-2c1.27,0,20,0,20,0s-5.125,7.158-5.125,8.287
				c0,1.127,1.41,2.397,2.961,2.397c1.553,0,26.371-16.541,26.371-16.541S79.146,39.265,76.813,37.993
				c-1.551-0.846-2.68-0.141-2.819,0.846c-0.142,0.987,3.965,9.179,3.965,9.179s-23.63,0-28,0c-4.372,0-5.719,3.167-6,5.001
				C43.674,54.852,43.957,94.018,43.957,94.018L43.957,94.018z"/>
		</g>
	</g>
	
		<linearGradient id="SVGID_7_" gradientUnits="userSpaceOnUse" x1="219.0264" y1="-190.6929" x2="158.3062" y2="-103.9755" gradientTransform="matrix(1 0 0 -1 -123.165 -81.835)">
		<stop  offset="0" style="stop-color:#000000;stop-opacity:0"/>
		<stop  offset="1" style="stop-color:#FFFFFF;stop-opacity:0.25"/>
	</linearGradient>
	<path fill="url(#SVGID_7_)" d="M71.428,5.262l54.309,54.311c3.302,3.301,3.302,8.653,0,11.954l-54.207,54.209
		c-3.301,3.302-8.654,3.302-11.955,0L5.263,71.426c-3.301-3.301-3.301-8.654,0-11.955L59.471,5.262
		C62.772,1.962,68.126,1.962,71.428,5.262L71.428,5.262z"/>
</g>
<g id="normal">
	<g>
		<g>
			
				<linearGradient id="SVGID_9_" gradientUnits="userSpaceOnUse" x1="126.9521" y1="-148.335" x2="252.3779" y2="-148.335" gradientTransform="matrix(1 0 0 -1 -123.165 -81.835)">
				<stop  offset="0" style="stop-color:#000000;stop-opacity:0.6"/>
				<stop  offset="1" style="stop-color:#000000;stop-opacity:0.6"/>
			</linearGradient>
			<path id="SVGID_11_" fill="url(#SVGID_9_)" d="M72.428,6.262l54.309,54.311c3.302,3.301,3.302,8.653,0,11.954l-54.207,54.209
				c-3.301,3.302-8.654,3.302-11.955,0L6.263,72.426c-3.301-3.301-3.301-8.654,0-11.955L60.471,6.262
				C63.772,2.962,69.126,2.962,72.428,6.262L72.428,6.262z"/>
		</g>
		<g>
			<path id="SVGID_12_" fill="#FFDF0A" d="M71.428,5.262l54.309,54.311c3.302,3.301,3.302,8.653,0,11.954l-54.207,54.209
				c-3.301,3.302-8.654,3.302-11.955,0L5.263,71.426c-3.301-3.301-3.301-8.654,0-11.955L59.471,5.262
				C62.772,1.962,68.126,1.962,71.428,5.262L71.428,5.262z"/>
		</g>
		<g>
			<defs>
				<path id="SVGID_10_" d="M72.428,6.262l54.309,54.311c3.302,3.301,3.302,8.653,0,11.954l-54.207,54.209
					c-3.301,3.302-8.654,3.302-11.955,0L6.263,72.426c-3.301-3.301-3.301-8.654,0-11.955L60.471,6.262
					C63.772,2.962,69.126,2.962,72.428,6.262L72.428,6.262z"/>
			</defs>
			<clipPath id="SVGID_13_">
				<use xlink:href="#SVGID_10_"  overflow="visible"/>
			</clipPath>
		</g>
	</g>
	<g>
		<g>
			<path id="SVGID_16_" d="M123.159,71.27l-51.888,51.889c-3.162,3.16-8.285,3.16-11.443,0L7.842,71.173
				c-3.161-3.159-3.161-8.284,0-11.445L59.729,7.841c3.161-3.161,8.285-3.161,11.445,0l51.985,51.985
				C126.318,62.987,126.318,68.109,123.159,71.27L123.159,71.27z M122.533,62.848L68.205,8.519c-1.463-1.463-3.838-1.463-5.301,0
				L8.576,62.848c-1.463,1.463-1.463,3.835,0,5.3l54.329,54.328c1.463,1.463,3.838,1.463,5.301,0l54.327-54.328
				C123.998,66.684,123.998,64.311,122.533,62.848L122.533,62.848z"/>
		</g>
	</g>
	<g>
		<g>
			<path id="SVGID_18_" d="M43.957,94.018h11.999v-32c0,0,0.732-2,2.001-2c1.27,0,20,0,20,0s-5.125,7.158-5.125,8.287
				c0,1.127,1.41,2.397,2.961,2.397c1.553,0,26.371-16.541,26.371-16.541S79.146,39.265,76.813,37.993
				c-1.551-0.846-2.68-0.141-2.819,0.846c-0.142,0.987,3.965,9.179,3.965,9.179s-23.63,0-28,0c-4.372,0-5.719,3.167-6,5.001
				C43.674,54.852,43.957,94.018,43.957,94.018L43.957,94.018z"/>
		</g>
	</g>
	
		<linearGradient id="SVGID_14_" gradientUnits="userSpaceOnUse" x1="219.0264" y1="-190.6929" x2="158.3062" y2="-103.9755" gradientTransform="matrix(1 0 0 -1 -123.165 -81.835)">
		<stop  offset="0" style="stop-color:#000000;stop-opacity:0"/>
		<stop  offset="1" style="stop-color:#FFFFFF;stop-opacity:0.25"/>
	</linearGradient>
	<path fill="url(#SVGID_14_)" d="M71.428,5.262l54.309,54.311c3.302,3.301,3.302,8.653,0,11.954l-54.207,54.209
		c-3.301,3.302-8.654,3.302-11.955,0L5.263,71.426c-3.301-3.301-3.301-8.654,0-11.955L59.471,5.262
		C62.772,1.962,68.126,1.962,71.428,5.262L71.428,5.262z"/>
</g>
</svg>
