<?xml version="1.0" encoding="utf-8"?>
<!-- Generator: Adobe Illustrator 16.0.0, SVG Export Plug-In . SVG Version: 6.00 Build 0)  -->
<!DOCTYPE svg PUBLIC "-//W3C//DTD SVG 1.1//EN" "http://www.w3.org/Graphics/SVG/1.1/DTD/svg11.dtd">
<svg version="1.1" id="Layer_1" xmlns="http://www.w3.org/2000/svg" xmlns:xlink="http://www.w3.org/1999/xlink" x="0px" y="0px"
	 width="132px" height="132px" viewBox="0 0 132 132" enable-background="new 0 0 132 132" xml:space="preserve">
<g id="disabled">
	<g>
		<g>
			
				<linearGradient id="SVGID_3_" gradientUnits="userSpaceOnUse" x1="126.9521" y1="-148.335" x2="252.3779" y2="-148.335" gradientTransform="matrix(1 0 0 -1 -123.165 -81.835)">
				<stop  offset="0" style="stop-color:#000000;stop-opacity:0.6"/>
				<stop  offset="1" style="stop-color:#000000;stop-opacity:0.6"/>
			</linearGradient>
			<path id="SVGID_1_" fill="url(#SVGID_3_)" d="M72.428,6.262l54.309,54.311c3.302,3.301,3.302,8.653,0,11.956l-54.207,54.209
				c-3.301,3.301-8.654,3.301-11.955,0L6.263,72.427c-3.301-3.301-3.301-8.654,0-11.955l54.208-54.21
				C63.772,2.961,69.126,2.961,72.428,6.262L72.428,6.262z"/>
		</g>
		<g>
			<path id="SVGID_2_" fill="#D1D1D1" d="M71.428,5.262l54.309,54.311c3.302,3.301,3.302,8.653,0,11.956l-54.207,54.209
				c-3.301,3.301-8.654,3.301-11.955,0L5.263,71.427c-3.301-3.301-3.301-8.654,0-11.955l54.208-54.21
				C62.772,1.961,68.126,1.961,71.428,5.262L71.428,5.262z"/>
		</g>
		<g>
			<defs>
				<path id="SVGID_4_" d="M72.428,6.262l54.309,54.311c3.302,3.301,3.302,8.653,0,11.956l-54.207,54.209
					c-3.301,3.301-8.654,3.301-11.955,0L6.263,72.427c-3.301-3.301-3.301-8.654,0-11.955l54.208-54.21
					C63.772,2.961,69.126,2.961,72.428,6.262L72.428,6.262z"/>
			</defs>
			<clipPath id="SVGID_5_">
				<use xlink:href="#SVGID_4_"  overflow="visible"/>
			</clipPath>
		</g>
	</g>
	<g>
		<g>
			<path id="SVGID_6_" d="M123.159,71.271l-51.888,51.888c-3.162,3.161-8.285,3.161-11.443,0L7.842,71.173
				c-3.161-3.159-3.161-8.284,0-11.445L59.729,7.841c3.161-3.159,8.285-3.159,11.445,0l51.985,51.985
				C126.318,62.988,126.318,68.111,123.159,71.271L123.159,71.271z M122.533,62.849L68.205,8.522c-1.463-1.465-3.838-1.465-5.301,0
				L8.576,62.849c-1.463,1.463-1.463,3.836,0,5.301l54.329,54.326c1.463,1.465,3.838,1.465,5.301,0l54.327-54.326
				C123.998,66.686,123.998,64.312,122.533,62.849L122.533,62.849z"/>
		</g>
	</g>
	<g>
		<g>
			<path id="SVGID_8_" d="M88.904,96.982l0.103-2.719c0,0-1.581-0.356-2.104-1.924c-0.522-1.568,0.016-5.18-0.297-6.643
				c-0.313-1.463-0.852-1.98-2.342-3.432c-1.414-1.373-2.777-2.002-3.193-3.988c-0.418-1.984,0.195-2.809,0.521-4.701
				c0.236-1.371,0.34-2.355,0.061-4.01c0,0.002-0.168-0.903-0.53-1.709c-0.063-0.143,2.437-0.746,3.948-2.097
				c0.662-0.593,1.3-2.544,1.111-3.177c-0.113-0.38-1.09-1.798-1.49-1.686c-0.809,0.229-0.217,2.503-0.567,3.184
				c-0.515,0.998-1.374,1.596-1.995,1.872c-0.885,0.394-2.025,0.83-2.077,0.78c-0.632-0.6-0.94-1.155-2.221-1.726
				c-2.822-1.253-8.987-2.221-12.327-4.283c-2.683-1.656-5.359-3.127-6.299-5.842c-0.94-2.717-1.328-7.323-1.223-9.935
				c0.105-2.612,0.313-3.553,0.313-3.553s0.549,0.132,1.462-0.835c0.761-0.806,1.118-0.985,0.491-1.615
				c-0.496-0.496-1.744-0.265-1.744-0.265l-0.179-1.47c0,0-0.06-0.118,0.594-1.131c0.654-1.009,1.428-1.783,1.605-2.675
				c0.179-0.892,0.357-2.497,0.179-2.854c-0.179-0.357-0.179-0.536-0.714-0.476c-0.535,0.06-0.476,0-0.594,0.833
				c-0.12,0.832-0.297,1.665-0.714,2.2c-0.417,0.535-0.417,0.535-0.417,0.535s-1.129-1.249-1.426-2.497
				c-0.299-1.249-0.476-1.843-0.179-2.676c0.297-0.832,0.297-1.069-0.297-1.308c-0.594-0.237-0.535-0.355-0.892,0.297
				c-0.357,0.656-0.357,1.19-0.357,1.725c0,0.535-0.12,1.071-0.12,1.071s-0.237-0.06-0.654-0.714
				c-0.415-0.654-0.654-1.071-0.654-1.843c0-0.774,0.417-1.189,0.179-1.605c-0.239-0.417-0.654-0.476-0.654-0.476
				s-0.297-0.297-0.594,0.237c-0.299,0.536-0.357,1.962-0.239,2.676c0.12,0.714,0.714,1.605,0.714,1.605s-0.654,0.237-1.189-0.535
				c-0.536-0.772-0.774-2.082-1.131-2.319c-0.357-0.237-0.714-0.297-0.892,0.119c-0.178,0.415-0.297,0.654,0.06,1.665
				c0.357,1.009,1.011,1.843,1.783,2.437c0.774,0.594,1.785,0.774,2.439,1.249c0.654,0.475,1.903,1.665,2.2,2.08
				c0.297,0.417,0.892,0.536,0.774,1.308c-0.12,0.774,0.297,0.953-0.297,1.605c-0.596,0.654-1.19,1.725-1.19,1.725
				s-2.557-0.179-3.271-0.06c-0.714,0.118-2.557,1.071-2.854,1.189c-0.297,0.12-3.508,0.179-3.508,0.179s-0.536,0.237-0.594,0.594
				c-0.06,0.357,0.178,0.357,0.357,0.774c0.178,0.415,0.178,1.069,0.355,1.426c0.179,0.357,0.716,0.846,1.072,0.904
				c0.357,0.06,2.378,0.404,2.912,0.761c0.536,0.355,0.417-0.12,0.892,0.714c0.476,0.832,0.179,2.2,0.12,3.448
				s0.179,4.519,0.179,4.519s-0.299-0.12-0.833,1.011c-0.535,1.129-1.189,3.626-1.486,4.815c-0.297,1.19-0.536,1.605-0.536,1.605
				s0.893,0.476-0.832-0.058s-3.39-1.129-4.162-1.25c-0.774-0.118-2.796-0.535-3.271-0.415c-0.476,0.118-0.654,0.415-0.893,0.892
				c-0.237,0.475-0.653,0.714-0.118,1.605c0.535,0.892,1.546,2.379,1.783,3.448c0.239,1.071,0.654,2.379,0.417,3.093
				c-0.237,0.712-0.237,0.772,0.06,1.426c0.297,0.654,0.594,1.011,0.951,1.188c0.357,0.18,2.437,2.558,2.437,2.558
				s0.596-0.118,0.833-0.832c0.237-0.714,0.073-1.103-0.284-1.576c-0.357-0.476-1.618-1.812-1.618-1.812s0-0.594-0.119-1.844
				c-0.118-1.25-0.475-2.558-0.654-2.915c-0.178-0.355-0.594-0.892,0-0.892c0.594,0,1.843,0.284,2.557,0.701s0.774,0.25,1.665,1.142
				c0.892,0.893,1.19,1.25,2.319,1.488c1.131,0.237,4.921,1.413,5.576,1.771c0.654,0.356,1.383,0.31,2.749,0.608
				c1.368,0.298,5.188,1.384,7.389,1.979c2.2,0.596,3.508,0.863,4.222,1.339c0.714,0.477,1.798,1.544,2.035,2.436
				c0.239,0.894-0.207,0.489,1.221,1.857c1.427,1.366,2.319,2.2,4.103,3.091c1.785,0.893,3.271,1.723,4.043,2.555
				c0.772,0.834,2.379,2.797,2.854,4.401s0.774,2.914,0.774,4.162c0,1.249-0.12,1.011,0.475,1.784
				c0.594,0.772,1.309,1.07,1.844,1.783C87.346,95.777,88.904,96.982,88.904,96.982L88.904,96.982z"/>
		</g>
	</g>
	
		<linearGradient id="SVGID_7_" gradientUnits="userSpaceOnUse" x1="219.0264" y1="-190.6938" x2="158.3053" y2="-103.9751" gradientTransform="matrix(1 0 0 -1 -123.165 -81.835)">
		<stop  offset="0" style="stop-color:#000000;stop-opacity:0"/>
		<stop  offset="1" style="stop-color:#FFFFFF;stop-opacity:0.25"/>
	</linearGradient>
	<path fill="url(#SVGID_7_)" d="M71.428,5.262l54.309,54.311c3.302,3.301,3.302,8.653,0,11.956l-54.207,54.209
		c-3.301,3.301-8.654,3.301-11.955,0L5.263,71.427c-3.301-3.301-3.301-8.654,0-11.955l54.208-54.21
		C62.772,1.961,68.126,1.961,71.428,5.262L71.428,5.262z"/>
</g>
<g id="normal">
	<g>
		<g>
			
				<linearGradient id="SVGID_9_" gradientUnits="userSpaceOnUse" x1="126.9521" y1="-148.335" x2="252.3779" y2="-148.335" gradientTransform="matrix(1 0 0 -1 -123.165 -81.835)">
				<stop  offset="0" style="stop-color:#000000;stop-opacity:0.6"/>
				<stop  offset="1" style="stop-color:#000000;stop-opacity:0.6"/>
			</linearGradient>
			<path id="SVGID_11_" fill="url(#SVGID_9_)" d="M72.428,6.262l54.309,54.311c3.302,3.301,3.302,8.653,0,11.956l-54.207,54.209
				c-3.301,3.301-8.654,3.301-11.955,0L6.263,72.427c-3.301-3.301-3.301-8.654,0-11.955l54.208-54.21
				C63.772,2.961,69.126,2.961,72.428,6.262L72.428,6.262z"/>
		</g>
		<g>
			<path id="SVGID_12_" fill="#FFDF0A" d="M71.428,5.262l54.309,54.311c3.302,3.301,3.302,8.653,0,11.956l-54.207,54.209
				c-3.301,3.301-8.654,3.301-11.955,0L5.263,71.427c-3.301-3.301-3.301-8.654,0-11.955l54.208-54.21
				C62.772,1.961,68.126,1.961,71.428,5.262L71.428,5.262z"/>
		</g>
		<g>
			<defs>
				<path id="SVGID_10_" d="M72.428,6.262l54.309,54.311c3.302,3.301,3.302,8.653,0,11.956l-54.207,54.209
					c-3.301,3.301-8.654,3.301-11.955,0L6.263,72.427c-3.301-3.301-3.301-8.654,0-11.955l54.208-54.21
					C63.772,2.961,69.126,2.961,72.428,6.262L72.428,6.262z"/>
			</defs>
			<clipPath id="SVGID_13_">
				<use xlink:href="#SVGID_10_"  overflow="visible"/>
			</clipPath>
		</g>
	</g>
	<g>
		<g>
			<path id="SVGID_16_" d="M123.159,71.271l-51.888,51.888c-3.162,3.161-8.285,3.161-11.443,0L7.842,71.173
				c-3.161-3.159-3.161-8.284,0-11.445L59.729,7.841c3.161-3.159,8.285-3.159,11.445,0l51.985,51.985
				C126.318,62.988,126.318,68.111,123.159,71.271L123.159,71.271z M122.533,62.849L68.205,8.522c-1.463-1.465-3.838-1.465-5.301,0
				L8.576,62.849c-1.463,1.463-1.463,3.836,0,5.301l54.329,54.326c1.463,1.465,3.838,1.465,5.301,0l54.327-54.326
				C123.998,66.686,123.998,64.312,122.533,62.849L122.533,62.849z"/>
		</g>
	</g>
	<g>
		<g>
			<path id="SVGID_18_" d="M88.904,96.982l0.103-2.719c0,0-1.581-0.356-2.104-1.924c-0.522-1.568,0.016-5.18-0.297-6.643
				c-0.313-1.463-0.852-1.98-2.342-3.432c-1.414-1.373-2.777-2.002-3.193-3.988c-0.418-1.984,0.195-2.809,0.521-4.701
				c0.236-1.371,0.34-2.355,0.061-4.01c0,0.002-0.168-0.903-0.53-1.709c-0.063-0.143,2.437-0.746,3.948-2.097
				c0.662-0.593,1.3-2.544,1.111-3.177c-0.113-0.38-1.09-1.798-1.49-1.686c-0.809,0.229-0.217,2.503-0.567,3.184
				c-0.515,0.998-1.374,1.596-1.995,1.872c-0.885,0.394-2.025,0.83-2.077,0.78c-0.632-0.6-0.94-1.155-2.221-1.726
				c-2.822-1.253-8.987-2.221-12.327-4.283c-2.683-1.656-5.359-3.127-6.299-5.842c-0.94-2.717-1.328-7.323-1.223-9.935
				c0.105-2.612,0.313-3.553,0.313-3.553s0.549,0.132,1.462-0.835c0.761-0.806,1.118-0.985,0.491-1.615
				c-0.496-0.496-1.744-0.265-1.744-0.265l-0.179-1.47c0,0-0.06-0.118,0.594-1.131c0.654-1.009,1.428-1.783,1.605-2.675
				c0.179-0.892,0.357-2.497,0.179-2.854c-0.179-0.357-0.179-0.536-0.714-0.476c-0.535,0.06-0.476,0-0.594,0.833
				c-0.12,0.832-0.297,1.665-0.714,2.2c-0.417,0.535-0.417,0.535-0.417,0.535s-1.129-1.249-1.426-2.497
				c-0.299-1.249-0.476-1.843-0.179-2.676c0.297-0.832,0.297-1.069-0.297-1.308c-0.594-0.237-0.535-0.355-0.892,0.297
				c-0.357,0.656-0.357,1.19-0.357,1.725c0,0.535-0.12,1.071-0.12,1.071s-0.237-0.06-0.654-0.714
				c-0.415-0.654-0.654-1.071-0.654-1.843c0-0.774,0.417-1.189,0.179-1.605c-0.239-0.417-0.654-0.476-0.654-0.476
				s-0.297-0.297-0.594,0.237c-0.299,0.536-0.357,1.962-0.239,2.676c0.12,0.714,0.714,1.605,0.714,1.605s-0.654,0.237-1.189-0.535
				c-0.536-0.772-0.774-2.082-1.131-2.319c-0.357-0.237-0.714-0.297-0.892,0.119c-0.178,0.415-0.297,0.654,0.06,1.665
				c0.357,1.009,1.011,1.843,1.783,2.437c0.774,0.594,1.785,0.774,2.439,1.249c0.654,0.475,1.903,1.665,2.2,2.08
				c0.297,0.417,0.892,0.536,0.774,1.308c-0.12,0.774,0.297,0.953-0.297,1.605c-0.596,0.654-1.19,1.725-1.19,1.725
				s-2.557-0.179-3.271-0.06c-0.714,0.118-2.557,1.071-2.854,1.189c-0.297,0.12-3.508,0.179-3.508,0.179s-0.536,0.237-0.594,0.594
				c-0.06,0.357,0.178,0.357,0.357,0.774c0.178,0.415,0.178,1.069,0.355,1.426c0.179,0.357,0.716,0.846,1.072,0.904
				c0.357,0.06,2.378,0.404,2.912,0.761c0.536,0.355,0.417-0.12,0.892,0.714c0.476,0.832,0.179,2.2,0.12,3.448
				s0.179,4.519,0.179,4.519s-0.299-0.12-0.833,1.011c-0.535,1.129-1.189,3.626-1.486,4.815c-0.297,1.19-0.536,1.605-0.536,1.605
				s0.893,0.476-0.832-0.058s-3.39-1.129-4.162-1.25c-0.774-0.118-2.796-0.535-3.271-0.415c-0.476,0.118-0.654,0.415-0.893,0.892
				c-0.237,0.475-0.653,0.714-0.118,1.605c0.535,0.892,1.546,2.379,1.783,3.448c0.239,1.071,0.654,2.379,0.417,3.093
				c-0.237,0.712-0.237,0.772,0.06,1.426c0.297,0.654,0.594,1.011,0.951,1.188c0.357,0.18,2.437,2.558,2.437,2.558
				s0.596-0.118,0.833-0.832c0.237-0.714,0.073-1.103-0.284-1.576c-0.357-0.476-1.618-1.812-1.618-1.812s0-0.594-0.119-1.844
				c-0.118-1.25-0.475-2.558-0.654-2.915c-0.178-0.355-0.594-0.892,0-0.892c0.594,0,1.843,0.284,2.557,0.701s0.774,0.25,1.665,1.142
				c0.892,0.893,1.19,1.25,2.319,1.488c1.131,0.237,4.921,1.413,5.576,1.771c0.654,0.356,1.383,0.31,2.749,0.608
				c1.368,0.298,5.188,1.384,7.389,1.979c2.2,0.596,3.508,0.863,4.222,1.339c0.714,0.477,1.798,1.544,2.035,2.436
				c0.239,0.894-0.207,0.489,1.221,1.857c1.427,1.366,2.319,2.2,4.103,3.091c1.785,0.893,3.271,1.723,4.043,2.555
				c0.772,0.834,2.379,2.797,2.854,4.401s0.774,2.914,0.774,4.162c0,1.249-0.12,1.011,0.475,1.784
				c0.594,0.772,1.309,1.07,1.844,1.783C87.346,95.777,88.904,96.982,88.904,96.982L88.904,96.982z"/>
		</g>
	</g>
	
		<linearGradient id="SVGID_14_" gradientUnits="userSpaceOnUse" x1="219.0264" y1="-190.6938" x2="158.3053" y2="-103.9751" gradientTransform="matrix(1 0 0 -1 -123.165 -81.835)">
		<stop  offset="0" style="stop-color:#000000;stop-opacity:0"/>
		<stop  offset="1" style="stop-color:#FFFFFF;stop-opacity:0.25"/>
	</linearGradient>
	<path fill="url(#SVGID_14_)" d="M71.428,5.262l54.309,54.311c3.302,3.301,3.302,8.653,0,11.956l-54.207,54.209
		c-3.301,3.301-8.654,3.301-11.955,0L5.263,71.427c-3.301-3.301-3.301-8.654,0-11.955l54.208-54.21
		C62.772,1.961,68.126,1.961,71.428,5.262L71.428,5.262z"/>
</g>
</svg>
