<?xml version="1.0" encoding="utf-8"?>
<!-- Generator: Adobe Illustrator 16.0.0, SVG Export Plug-In . SVG Version: 6.00 Build 0)  -->
<!DOCTYPE svg PUBLIC "-//W3C//DTD SVG 1.1//EN" "http://www.w3.org/Graphics/SVG/1.1/DTD/svg11.dtd">
<svg version="1.1" id="Layer_1" xmlns="http://www.w3.org/2000/svg" xmlns:xlink="http://www.w3.org/1999/xlink" x="0px" y="0px"
	 width="132px" height="132px" viewBox="0 0 132 132" enable-background="new 0 0 132 132" xml:space="preserve">
<g id="disabled">
	<g>
		<g>
			
				<linearGradient id="SVGID_3_" gradientUnits="userSpaceOnUse" x1="266.3301" y1="727.1699" x2="359.3311" y2="727.1699" gradientTransform="matrix(1 0 0 1 -246.3301 -660.6699)">
				<stop  offset="0" style="stop-color:#000000;stop-opacity:0.6"/>
				<stop  offset="1" style="stop-color:#000000;stop-opacity:0.6"/>
			</linearGradient>
			<path id="SVGID_1_" fill="url(#SVGID_3_)" d="M28.25,2.971h75.84c4.668,0,8.911,3.389,8.911,8.058v110
				c-0.002,4.668-4.332,9-9.001,9H29c-4.668,0-9-4.332-9-9v-110C19.999,6.36,23.58,2.971,28.25,2.971L28.25,2.971z"/>
		</g>
		<g>
			<path id="SVGID_2_" fill="#FFFFFF" d="M27.25,1.971h75.84c4.668,0,8.911,3.389,8.911,8.058v110c-0.002,4.668-4.332,9-9.001,9H28
				c-4.668,0-9-4.332-9-9v-110C18.999,5.36,22.58,1.971,27.25,1.971L27.25,1.971z"/>
		</g>
	</g>
	<g>
		<g>
			<path id="SVGID_6_" fill="#969696" d="M29,4.029h73c4.469,0,8,3.531,8,8v107c0,4.47-3.531,7.998-8,7.998H29
				c-4.469,0.002-8-3.528-8-7.998v-107C21,7.56,24.531,4.029,29,4.029L29,4.029z"/>
		</g>
	</g>
	<g>
		<g>
			<path id="SVGID_8_" fill="#FFFFFF" d="M29,125.027h-0.003c-3.363,0-5.997-2.635-5.997-5.998v-107c0-3.364,2.636-6,6-6h73
				c3.363,0,6,2.636,6,6v107c0,3.363-2.637,6-6,6H29"/>
		</g>
	</g>
	<g>
		<g>
			<path id="SVGID_10_" fill="#969696" d="M46.502,31.458c-1.003,1.341-2.814,2.011-5.433,2.011h-4.752v9.256h-2.452V19.958h6.989
				c1.229,0,2.169,0.073,2.817,0.218c0.911,0.186,1.673,0.541,2.287,1.063c0.615,0.523,1.111,1.257,1.486,2.198
				s0.562,1.977,0.562,3.106C48.005,28.479,47.505,30.117,46.502,31.458L46.502,31.458z M44.89,24.19
				c-0.391-0.678-0.908-1.126-1.547-1.344c-0.413-0.134-1.176-0.202-2.287-0.202h-4.739v8.139h4.789
				c1.584,0,2.709-0.362,3.374-1.087c0.665-0.725,0.998-1.744,0.998-3.059C45.478,25.684,45.282,24.868,44.89,24.19L44.89,24.19z
				 M61.069,42.725L58.91,35.83h-7.748l-2.033,6.895h-2.604l7.115-22.767h2.641l7.583,22.767H61.069L61.069,42.725z M56.217,27.071
				c-0.59-1.916-1.027-3.489-1.315-4.721c-0.236,1.46-0.569,2.909-0.998,4.348l-2.033,6.679h6.28L56.217,27.071L56.217,27.071z
				 M74.898,23.329c-0.729-0.737-1.806-1.103-3.229-1.103c-1.483,0-2.563,0.334-3.241,1.001c-0.679,0.667-1.017,1.473-1.017,2.415
				c0,0.819,0.239,1.491,0.72,2.019c0.473,0.528,1.702,1.069,3.695,1.623c1.992,0.554,3.359,1.039,4.102,1.452
				c1.078,0.611,1.873,1.384,2.389,2.323c0.515,0.937,0.771,2.016,0.771,3.237c0,1.211-0.282,2.353-0.846,3.426
				c-0.565,1.071-1.378,1.904-2.433,2.5c-1.059,0.594-2.248,0.893-3.572,0.893c-1.676,0-3.082-0.3-4.213-0.901
				c-1.135-0.601-2.021-1.504-2.667-2.71c-0.644-1.207-0.984-2.57-1.018-4.093l2.313-0.249c0.111,1.14,0.365,2.074,0.765,2.804
				c0.401,0.73,1.022,1.32,1.864,1.77c0.843,0.451,1.791,0.675,2.844,0.675c0.936,0,1.762-0.17,2.477-0.512
				c0.717-0.341,1.25-0.809,1.6-1.405c0.35-0.596,0.523-1.245,0.523-1.949c0-0.714-0.17-1.337-0.506-1.87
				c-0.338-0.535-0.893-0.982-1.668-1.344c-0.496-0.239-1.596-0.609-3.298-1.111c-1.702-0.502-2.894-0.976-3.575-1.42
				c-0.886-0.57-1.545-1.276-1.979-2.121c-0.433-0.843-0.651-1.788-0.651-2.835c0-1.148,0.266-2.222,0.796-3.222
				c0.531-1,1.307-1.757,2.326-2.276c1.019-0.517,2.153-0.775,3.399-0.775c1.373,0,2.584,0.271,3.633,0.814
				c1.048,0.544,1.855,1.344,2.419,2.4c0.565,1.056,0.868,2.252,0.911,3.587l-2.35,0.218C76.055,25.151,75.626,24.064,74.898,23.329
				L74.898,23.329z M91.514,23.329c-0.729-0.737-1.805-1.103-3.229-1.103c-1.483,0-2.563,0.334-3.242,1.001
				c-0.679,0.667-1.018,1.473-1.018,2.415c0,0.819,0.24,1.491,0.722,2.019c0.472,0.528,1.702,1.069,3.694,1.623
				c1.992,0.554,3.359,1.039,4.102,1.452c1.079,0.611,1.875,1.384,2.391,2.323c0.514,0.937,0.77,2.016,0.77,3.237
				c0,1.211-0.283,2.353-0.846,3.426c-0.565,1.071-1.377,1.904-2.434,2.5c-1.058,0.594-2.248,0.893-3.57,0.893
				c-1.678,0-3.08-0.3-4.213-0.901c-1.136-0.601-2.022-1.504-2.668-2.71c-0.645-1.207-0.984-2.57-1.019-4.093l2.313-0.249
				c0.109,1.14,0.364,2.074,0.764,2.804c0.402,0.73,1.023,1.32,1.865,1.77c0.842,0.451,1.791,0.675,2.844,0.675
				c0.935,0,1.76-0.17,2.476-0.512c0.718-0.341,1.25-0.809,1.599-1.405c0.352-0.596,0.525-1.245,0.525-1.949
				c0-0.714-0.168-1.337-0.506-1.87c-0.338-0.535-0.893-0.982-1.668-1.344c-0.497-0.239-1.596-0.609-3.298-1.111
				c-1.702-0.502-2.894-0.976-3.576-1.42c-0.886-0.57-1.544-1.276-1.979-2.121c-0.433-0.843-0.649-1.788-0.649-2.835
				c0-1.148,0.267-2.222,0.796-3.222c0.53-1,1.309-1.757,2.326-2.276c1.02-0.517,2.152-0.775,3.398-0.775
				c1.373,0,2.584,0.271,3.633,0.814c1.051,0.544,1.855,1.344,2.418,2.4c0.565,1.056,0.869,2.252,0.912,3.587l-2.353,0.218
				C92.669,25.151,92.241,24.064,91.514,23.329L91.514,23.329z M51.43,76.885h-2.363l-3.904-17.348
				c-0.329-1.449-0.523-2.339-0.581-2.67c-0.194,1.045-0.376,1.935-0.544,2.67l-3.93,17.348h-2.502l-4.917-22.767h2.515
				l2.818,14.924c0.304,1.563,0.564,3.117,0.783,4.66c0.472-2.435,0.749-3.836,0.833-4.209l3.526-15.375h2.957l2.654,11.523
				c0.665,2.857,1.145,5.544,1.441,8.061c0.236-1.438,0.544-3.091,0.922-4.955l2.907-14.628h2.465L51.43,76.885L51.43,76.885z
				 M58.567,76.885V54.118h2.452v22.767H58.567L58.567,76.885z M71.859,56.804v20.081h-2.451V56.804h-6.104v-2.686h14.682v2.686
				H71.859L71.859,56.804z M92.012,76.885V66.154h-9.63v10.731h-2.45V54.118h2.45v9.349h9.63v-9.349h2.452v22.767H92.012
				L92.012,76.885z M42.546,91.602c-0.817-0.756-1.845-1.135-3.083-1.135c-1.425,0-2.613,0.42-3.569,1.258s-1.628,1.965-2.016,3.377
				c-0.388,1.414-0.581,2.873-0.581,4.373c0,1.938,0.229,3.625,0.688,5.069c0.459,1.446,1.173,2.524,2.142,3.238
				c0.969,0.716,2.017,1.071,3.148,1.071c1.373,0,2.534-0.487,3.487-1.459c0.951-0.976,1.596-2.418,1.933-4.334l2.452,0.762
				c-0.514,2.474-1.439,4.361-2.773,5.66c-1.336,1.301-2.969,1.949-4.897,1.949c-1.996,0-3.621-0.498-4.871-1.498
				c-1.252-1-2.205-2.445-2.857-4.344c-0.652-1.896-0.979-3.928-0.979-6.102c0-2.371,0.368-4.44,1.106-6.205
				c0.736-1.766,1.785-3.106,3.146-4.022c1.36-0.916,2.857-1.372,4.492-1.372c1.854,0,3.413,0.578,4.676,1.738
				s2.143,2.789,2.641,4.893l-2.413,0.697C43.987,93.564,43.364,92.357,42.546,91.602L42.546,91.602z M62.03,111.044l-2.161-6.896
				h-7.746l-2.035,6.896h-2.602L54.6,88.277h2.641l7.582,22.767H62.03L62.03,111.044z M57.178,95.391
				c-0.591-1.916-1.029-3.49-1.315-4.722c-0.236,1.46-0.569,2.909-0.998,4.349l-2.035,6.678h6.281L57.178,95.391L57.178,95.391z
				 M75.764,100.686c0.648,0.383,1.141,0.763,1.479,1.135c0.716,0.809,1.396,1.816,2.032,3.027l3.223,6.196h-3.083l-2.45-4.735
				c-0.717-1.367-1.307-2.414-1.771-3.139c-0.463-0.725-0.879-1.23-1.243-1.521c-0.365-0.289-0.738-0.489-1.118-0.604
				c-0.277-0.071-0.732-0.106-1.365-0.106h-2.843v10.107h-2.452V88.277h8.213c1.652,0,2.907,0.205,3.768,0.613
				c0.858,0.408,1.547,1.133,2.06,2.166c0.515,1.036,0.772,2.18,0.772,3.433c0,1.614-0.426,2.977-1.278,4.085
				C78.855,99.682,77.542,100.386,75.764,100.686L75.764,100.686z M77.501,91.834c-0.636-0.693-1.642-1.04-3.015-1.04h-5.862v7.531
				h5.269c1.121,0,1.996-0.142,2.629-0.427c0.633-0.283,1.111-0.739,1.441-1.365c0.328-0.627,0.493-1.307,0.493-2.043
				C78.456,93.413,78.139,92.527,77.501,91.834L77.501,91.834z M98.053,108.357v2.687H84.229V88.277h13.395v2.688H86.68v6.973
				h10.248v2.672H86.68v7.75h11.373V108.357z"/>
		</g>
	</g>
	
		<linearGradient id="SVGID_4_" gradientUnits="userSpaceOnUse" x1="355.0332" y1="787.5195" x2="268.6439" y2="664.1428" gradientTransform="matrix(1 0 0 1 -246.3301 -660.6699)">
		<stop  offset="0" style="stop-color:#000000;stop-opacity:0"/>
		<stop  offset="1" style="stop-color:#FFFFFF;stop-opacity:0.25"/>
	</linearGradient>
	<path fill="url(#SVGID_4_)" d="M27.25,1.971h75.84c4.668,0,8.911,3.389,8.911,8.058v110c-0.002,4.668-4.332,9-9.001,9H28
		c-4.668,0-9-4.332-9-9v-110C18.999,5.36,22.58,1.971,27.25,1.971L27.25,1.971z"/>
</g>
<g id="normal">
	<g>
		<g>
			
				<linearGradient id="SVGID_5_" gradientUnits="userSpaceOnUse" x1="266.3301" y1="727.1699" x2="359.3311" y2="727.1699" gradientTransform="matrix(1 0 0 1 -246.3301 -660.6699)">
				<stop  offset="0" style="stop-color:#000000;stop-opacity:0.6"/>
				<stop  offset="1" style="stop-color:#000000;stop-opacity:0.6"/>
			</linearGradient>
			<path id="SVGID_13_" fill="url(#SVGID_5_)" d="M28.25,2.971h75.84c4.668,0,8.911,3.389,8.911,8.058v110
				c-0.002,4.668-4.332,9-9.001,9H29c-4.668,0-9-4.332-9-9v-110C19.999,6.36,23.58,2.971,28.25,2.971L28.25,2.971z"/>
		</g>
		<g>
			<path id="SVGID_14_" fill="#FFFFFF" d="M27.25,1.971h75.84c4.668,0,8.911,3.389,8.911,8.058v110c-0.002,4.668-4.332,9-9.001,9H28
				c-4.668,0-9-4.332-9-9v-110C18.999,5.36,22.58,1.971,27.25,1.971L27.25,1.971z"/>
		</g>
	</g>
	<g>
		<g>
			<path id="SVGID_18_" d="M29,4.029h73c4.469,0,8,3.531,8,8v107c0,4.47-3.531,7.998-8,7.998H29c-4.469,0.002-8-3.528-8-7.998v-107
				C21,7.56,24.531,4.029,29,4.029L29,4.029z"/>
		</g>
	</g>
	<g>
		<g>
			<path id="SVGID_20_" fill="#FFFFFF" d="M29,125.027h-0.003c-3.363,0-5.997-2.635-5.997-5.998v-107c0-3.364,2.636-6,6-6h73
				c3.363,0,6,2.636,6,6v107c0,3.363-2.637,6-6,6H29"/>
		</g>
	</g>
	<g>
		<g>
			<path id="SVGID_22_" d="M46.502,31.458c-1.003,1.341-2.814,2.011-5.433,2.011h-4.752v9.256h-2.452V19.958h6.989
				c1.229,0,2.169,0.073,2.817,0.218c0.911,0.186,1.673,0.541,2.287,1.063c0.615,0.523,1.111,1.257,1.486,2.198
				s0.562,1.977,0.562,3.106C48.005,28.479,47.505,30.117,46.502,31.458L46.502,31.458z M44.89,24.19
				c-0.391-0.678-0.908-1.126-1.547-1.344c-0.413-0.134-1.176-0.202-2.287-0.202h-4.739v8.139h4.789
				c1.584,0,2.709-0.362,3.374-1.087c0.665-0.725,0.998-1.744,0.998-3.059C45.478,25.684,45.282,24.868,44.89,24.19L44.89,24.19z
				 M61.069,42.725L58.91,35.83h-7.748l-2.033,6.895h-2.604l7.115-22.767h2.641l7.583,22.767H61.069L61.069,42.725z M56.217,27.071
				c-0.59-1.916-1.027-3.489-1.315-4.721c-0.236,1.46-0.569,2.909-0.998,4.348l-2.033,6.679h6.28L56.217,27.071L56.217,27.071z
				 M74.898,23.329c-0.729-0.737-1.806-1.103-3.229-1.103c-1.483,0-2.563,0.334-3.241,1.001c-0.679,0.667-1.017,1.473-1.017,2.415
				c0,0.819,0.239,1.491,0.72,2.019c0.473,0.528,1.702,1.069,3.695,1.623c1.992,0.554,3.359,1.039,4.102,1.452
				c1.078,0.611,1.873,1.384,2.389,2.323c0.515,0.937,0.771,2.016,0.771,3.237c0,1.211-0.282,2.353-0.846,3.426
				c-0.565,1.071-1.378,1.904-2.433,2.5c-1.059,0.594-2.248,0.893-3.572,0.893c-1.676,0-3.082-0.3-4.213-0.901
				c-1.135-0.601-2.021-1.504-2.667-2.71c-0.644-1.207-0.984-2.57-1.018-4.093l2.313-0.249c0.111,1.14,0.365,2.074,0.765,2.804
				c0.401,0.73,1.022,1.32,1.864,1.77c0.843,0.451,1.791,0.675,2.844,0.675c0.936,0,1.762-0.17,2.477-0.512
				c0.717-0.341,1.25-0.809,1.6-1.405c0.35-0.596,0.523-1.245,0.523-1.949c0-0.714-0.17-1.337-0.506-1.87
				c-0.338-0.535-0.893-0.982-1.668-1.344c-0.496-0.239-1.596-0.609-3.298-1.111c-1.702-0.502-2.894-0.976-3.575-1.42
				c-0.886-0.57-1.545-1.276-1.979-2.121c-0.433-0.843-0.651-1.788-0.651-2.835c0-1.148,0.266-2.222,0.796-3.222
				c0.531-1,1.307-1.757,2.326-2.276c1.019-0.517,2.153-0.775,3.399-0.775c1.373,0,2.584,0.271,3.633,0.814
				c1.048,0.544,1.855,1.344,2.419,2.4c0.565,1.056,0.868,2.252,0.911,3.587l-2.35,0.218C76.055,25.151,75.626,24.064,74.898,23.329
				L74.898,23.329z M91.514,23.329c-0.729-0.737-1.805-1.103-3.229-1.103c-1.483,0-2.563,0.334-3.242,1.001
				c-0.679,0.667-1.018,1.473-1.018,2.415c0,0.819,0.24,1.491,0.722,2.019c0.472,0.528,1.702,1.069,3.694,1.623
				c1.992,0.554,3.359,1.039,4.102,1.452c1.079,0.611,1.875,1.384,2.391,2.323c0.514,0.937,0.77,2.016,0.77,3.237
				c0,1.211-0.283,2.353-0.846,3.426c-0.565,1.071-1.377,1.904-2.434,2.5c-1.058,0.594-2.248,0.893-3.57,0.893
				c-1.678,0-3.08-0.3-4.213-0.901c-1.136-0.601-2.022-1.504-2.668-2.71c-0.645-1.207-0.984-2.57-1.019-4.093l2.313-0.249
				c0.109,1.14,0.364,2.074,0.764,2.804c0.402,0.73,1.023,1.32,1.865,1.77c0.842,0.451,1.791,0.675,2.844,0.675
				c0.935,0,1.76-0.17,2.476-0.512c0.718-0.341,1.25-0.809,1.599-1.405c0.352-0.596,0.525-1.245,0.525-1.949
				c0-0.714-0.168-1.337-0.506-1.87c-0.338-0.535-0.893-0.982-1.668-1.344c-0.497-0.239-1.596-0.609-3.298-1.111
				c-1.702-0.502-2.894-0.976-3.576-1.42c-0.886-0.57-1.544-1.276-1.979-2.121c-0.433-0.843-0.649-1.788-0.649-2.835
				c0-1.148,0.267-2.222,0.796-3.222c0.53-1,1.309-1.757,2.326-2.276c1.02-0.517,2.152-0.775,3.398-0.775
				c1.373,0,2.584,0.271,3.633,0.814c1.051,0.544,1.855,1.344,2.418,2.4c0.565,1.056,0.869,2.252,0.912,3.587l-2.353,0.218
				C92.669,25.151,92.241,24.064,91.514,23.329L91.514,23.329z M51.43,76.885h-2.363l-3.904-17.348
				c-0.329-1.449-0.523-2.339-0.581-2.67c-0.194,1.045-0.376,1.935-0.544,2.67l-3.93,17.348h-2.502l-4.917-22.767h2.515
				l2.818,14.924c0.304,1.563,0.564,3.117,0.783,4.66c0.472-2.435,0.749-3.836,0.833-4.209l3.526-15.375h2.957l2.654,11.523
				c0.665,2.857,1.145,5.544,1.441,8.061c0.236-1.438,0.544-3.091,0.922-4.955l2.907-14.628h2.465L51.43,76.885L51.43,76.885z
				 M58.567,76.885V54.118h2.452v22.767H58.567L58.567,76.885z M71.859,56.804v20.081h-2.451V56.804h-6.104v-2.686h14.682v2.686
				H71.859L71.859,56.804z M92.012,76.885V66.154h-9.63v10.731h-2.45V54.118h2.45v9.349h9.63v-9.349h2.452v22.767H92.012
				L92.012,76.885z M42.546,91.602c-0.817-0.756-1.845-1.135-3.083-1.135c-1.425,0-2.613,0.42-3.569,1.258s-1.628,1.965-2.016,3.377
				c-0.388,1.414-0.581,2.873-0.581,4.373c0,1.938,0.229,3.625,0.688,5.069c0.459,1.446,1.173,2.524,2.142,3.238
				c0.969,0.716,2.017,1.071,3.148,1.071c1.373,0,2.534-0.487,3.487-1.459c0.951-0.976,1.596-2.418,1.933-4.334l2.452,0.762
				c-0.514,2.474-1.439,4.361-2.773,5.66c-1.336,1.301-2.969,1.949-4.897,1.949c-1.996,0-3.621-0.498-4.871-1.498
				c-1.252-1-2.205-2.445-2.857-4.344c-0.652-1.896-0.979-3.928-0.979-6.102c0-2.371,0.368-4.44,1.106-6.205
				c0.736-1.766,1.785-3.106,3.146-4.022c1.36-0.916,2.857-1.372,4.492-1.372c1.854,0,3.413,0.578,4.676,1.738
				s2.143,2.789,2.641,4.893l-2.413,0.697C43.987,93.564,43.364,92.357,42.546,91.602L42.546,91.602z M62.03,111.044l-2.161-6.896
				h-7.746l-2.035,6.896h-2.602L54.6,88.277h2.641l7.582,22.767H62.03L62.03,111.044z M57.178,95.391
				c-0.591-1.916-1.029-3.49-1.315-4.722c-0.236,1.46-0.569,2.909-0.998,4.349l-2.035,6.678h6.281L57.178,95.391L57.178,95.391z
				 M75.764,100.686c0.648,0.383,1.141,0.763,1.479,1.135c0.716,0.809,1.396,1.816,2.032,3.027l3.223,6.196h-3.083l-2.45-4.735
				c-0.717-1.367-1.307-2.414-1.771-3.139c-0.463-0.725-0.879-1.23-1.243-1.521c-0.365-0.289-0.738-0.489-1.118-0.604
				c-0.277-0.071-0.732-0.106-1.365-0.106h-2.843v10.107h-2.452V88.277h8.213c1.652,0,2.907,0.205,3.768,0.613
				c0.858,0.408,1.547,1.133,2.06,2.166c0.515,1.036,0.772,2.18,0.772,3.433c0,1.614-0.426,2.977-1.278,4.085
				C78.855,99.682,77.542,100.386,75.764,100.686L75.764,100.686z M77.501,91.834c-0.636-0.693-1.642-1.04-3.015-1.04h-5.862v7.531
				h5.269c1.121,0,1.996-0.142,2.629-0.427c0.633-0.283,1.111-0.739,1.441-1.365c0.328-0.627,0.493-1.307,0.493-2.043
				C78.456,93.413,78.139,92.527,77.501,91.834L77.501,91.834z M98.053,108.357v2.687H84.229V88.277h13.395v2.688H86.68v6.973
				h10.248v2.672H86.68v7.75h11.373V108.357z"/>
		</g>
	</g>
	
		<linearGradient id="SVGID_7_" gradientUnits="userSpaceOnUse" x1="355.0332" y1="787.5195" x2="268.6439" y2="664.1428" gradientTransform="matrix(1 0 0 1 -246.3301 -660.6699)">
		<stop  offset="0" style="stop-color:#000000;stop-opacity:0"/>
		<stop  offset="1" style="stop-color:#FFFFFF;stop-opacity:0.25"/>
	</linearGradient>
	<path fill="url(#SVGID_7_)" d="M27.25,1.971h75.84c4.668,0,8.911,3.389,8.911,8.058v110c-0.002,4.668-4.332,9-9.001,9H28
		c-4.668,0-9-4.332-9-9v-110C18.999,5.36,22.58,1.971,27.25,1.971L27.25,1.971z"/>
</g>
</svg>
