<?xml version="1.0" encoding="utf-8"?>
<!-- Generator: Adobe Illustrator 16.0.0, SVG Export Plug-In . SVG Version: 6.00 Build 0)  -->
<!DOCTYPE svg PUBLIC "-//W3C//DTD SVG 1.1//EN" "http://www.w3.org/Graphics/SVG/1.1/DTD/svg11.dtd">
<svg version="1.1" id="Layer_1" xmlns="http://www.w3.org/2000/svg" xmlns:xlink="http://www.w3.org/1999/xlink" x="0px" y="0px"
	 width="132px" height="132px" viewBox="0 0 132 132" enable-background="new 0 0 132 132" xml:space="preserve">
<g id="disabled">
	<g>
		<g>
			
				<linearGradient id="SVGID_5_" gradientUnits="userSpaceOnUse" x1="128.3271" y1="-148.3359" x2="251.0029" y2="-148.3359" gradientTransform="matrix(1 0 0 -1 -123.165 -81.835)">
				<stop  offset="0" style="stop-color:#000000;stop-opacity:0.6"/>
				<stop  offset="1" style="stop-color:#000000;stop-opacity:0.6"/>
			</linearGradient>
			<path id="SVGID_1_" fill="url(#SVGID_5_)" d="M7.582,117.497c-0.36-0.003-0.812-0.165-1.213-0.431
				c-0.745-0.498-1.207-1.362-1.207-2.258V18.154c0-1.45,1.685-2.597,3.119-2.663c0.622,0.255,118.179,48.634,118.811,48.892
				c0.455,0.502,0.746,1.124,0.746,1.804c0,0.002,0,0.002,0,0.003c0,0.682-0.292,1.307-0.751,1.806
				c-0.178,0.076-63.634,26.792-63.634,26.792c-0.003,0.003-7.704,3.25-7.704,3.25l-44.872,18.896l-1.145,0.479l-0.195,0.063
				l-1.003,0.036L7.582,117.497L7.582,117.497z"/>
		</g>
		<g>
			<path id="SVGID_2_" fill="#D1D1D1" d="M6.582,116.497c-0.36-0.003-0.812-0.165-1.213-0.431c-0.745-0.498-1.207-1.362-1.207-2.258
				V17.154c0-1.45,1.685-2.597,3.119-2.663c0.622,0.255,118.179,48.634,118.811,48.892c0.455,0.502,0.746,1.124,0.746,1.804
				c0,0.002,0,0.002,0,0.003c0,0.682-0.292,1.307-0.751,1.806c-0.178,0.076-63.634,26.792-63.634,26.792
				c-0.003,0.003-7.704,3.25-7.704,3.25L9.877,115.934l-1.145,0.478l-0.195,0.063l-1.003,0.035L6.582,116.497L6.582,116.497z"/>
		</g>
		<g>
			<defs>
				<path id="SVGID_7_" d="M7.582,117.497c-0.36-0.003-0.812-0.165-1.213-0.431c-0.745-0.498-1.207-1.362-1.207-2.258V18.154
					c0-1.45,1.685-2.597,3.119-2.663c0.622,0.255,118.179,48.634,118.811,48.892c0.455,0.502,0.746,1.124,0.746,1.804
					c0,0.002,0,0.002,0,0.003c0,0.682-0.292,1.307-0.751,1.806c-0.178,0.076-63.634,26.792-63.634,26.792
					c-0.003,0.003-7.704,3.25-7.704,3.25l-44.872,18.896l-1.145,0.479l-0.195,0.063l-1.003,0.036L7.582,117.497L7.582,117.497z"/>
			</defs>
			<clipPath id="SVGID_9_">
				<use xlink:href="#SVGID_7_"  overflow="visible"/>
			</clipPath>
		</g>
	</g>
	<g>
		<g>
			<path id="SVGID_6_" d="M6.89,17.591l-0.145,0.097c-0.824,0.591-0.803,1.534-0.785,2.289l0.005,0.338v88.828l-0.01,1.014
				l0.015,2.154c0.05,0.959,0.486,1.435,0.843,1.666c0.003,0.002,1.815,0.23,1.815,0.23c0-0.003,1.42-0.477,1.42-0.477l0.41-0.191
				l109.468-46.096c1.006-0.418,1.614-0.99,1.861-1.751c0.357-1.1-0.348-2.079-1.982-2.759c-0.003,0-107.454-44.216-107.454-44.216
				l-0.753-0.346C10.277,17.745,7.938,16.968,6.89,17.591L6.89,17.591z M9.058,111.587c-0.271-0.174-0.974-0.524-1-1v-2.001v-0.998
				v-86v-1c-0.016-0.764,0.575-0.696,1-1.001l0,0c1,0,1.993,0.528,3.001,1.001l0,0l106.179,43.223
				c0.816,0.338,1.734,0.903,1.477,1.683c-0.165,0.509-0.596,0.892-1.357,1.207l-107.3,43.886L9.058,111.587L9.058,111.587
				L9.058,111.587L9.058,111.587z"/>
		</g>
	</g>
	<g>
		<g>
			<path id="SVGID_8_" d="M17.373,46.637L11.67,36.161v10.476h-1.378V33.305h1.473l5.703,10.466V33.305h1.378v13.331h-1.473V46.637z
				 M30.161,43.618c-0.444,1.066-1.074,1.875-1.888,2.423c-0.816,0.549-1.694,0.824-2.638,0.824c-1.021,0-1.935-0.304-2.739-0.909
				c-0.806-0.607-1.415-1.434-1.83-2.483c-0.415-1.05-0.622-2.158-0.622-3.329c0-2.213,0.483-3.944,1.452-5.196
				c0.967-1.252,2.216-1.878,3.747-1.878c1.003,0,1.906,0.294,2.71,0.882c0.806,0.588,1.42,1.408,1.841,2.46
				c0.422,1.051,0.633,2.245,0.633,3.578C30.828,41.341,30.605,42.55,30.161,43.618L30.161,43.618z M28.898,37.138
				c-0.299-0.809-0.735-1.436-1.31-1.882c-0.575-0.446-1.221-0.669-1.937-0.669c-1.018,0-1.893,0.43-2.626,1.287
				c-0.733,0.858-1.1,2.29-1.1,4.296c0,1.607,0.352,2.872,1.055,3.797c0.704,0.924,1.586,1.386,2.649,1.386
				c1.081,0,1.97-0.467,2.67-1.4c0.699-0.934,1.048-2.258,1.048-3.973C29.347,38.895,29.197,37.949,28.898,37.138L28.898,37.138z
				 M17.713,61.323c-0.588,0.785-1.651,1.177-3.185,1.177h-2.786v5.419h-1.436V54.59h4.096c0.72,0,1.271,0.042,1.651,0.128
				c0.533,0.108,0.98,0.317,1.341,0.622c0.36,0.307,0.651,0.735,0.871,1.287c0.22,0.551,0.329,1.158,0.329,1.819
				C18.594,59.579,18.3,60.538,17.713,61.323L17.713,61.323z M16.768,57.067c-0.229-0.397-0.533-0.659-0.908-0.787
				c-0.242-0.079-0.688-0.118-1.341-0.118h-2.778v4.765h2.807c0.929,0,1.588-0.213,1.979-0.636c0.389-0.425,0.585-1.022,0.585-1.791
				C17.112,57.941,16.998,57.465,16.768,57.067L16.768,57.067z M26.251,67.919l-1.266-4.038h-4.54l-1.194,4.038h-1.525l4.17-13.33
				h1.547l4.443,13.33H26.251L26.251,67.919z M23.407,58.754c-0.346-1.121-0.602-2.043-0.77-2.764
				c-0.137,0.854-0.333,1.702-0.585,2.545l-1.192,3.91h3.681L23.407,58.754L23.407,58.754z M34.356,56.562
				c-0.426-0.43-1.058-0.644-1.891-0.644c-0.871,0-1.504,0.195-1.901,0.586s-0.596,0.862-0.596,1.413
				c0,0.48,0.141,0.874,0.423,1.182c0.276,0.31,0.998,0.627,2.166,0.95c1.168,0.325,1.969,0.609,2.403,0.851
				c0.632,0.357,1.098,0.811,1.4,1.36c0.3,0.548,0.451,1.181,0.451,1.896c0,0.711-0.165,1.378-0.496,2.006
				c-0.331,0.627-0.806,1.114-1.426,1.463c-0.619,0.349-1.316,0.522-2.092,0.522c-0.982,0-1.806-0.176-2.47-0.527
				c-0.665-0.35-1.186-0.88-1.564-1.586c-0.378-0.706-0.577-1.505-0.596-2.397l1.355-0.145c0.065,0.667,0.213,1.215,0.447,1.643
				c0.236,0.426,0.599,0.772,1.093,1.035c0.494,0.265,1.048,0.396,1.667,0.396c0.548,0,1.032-0.1,1.45-0.298
				c0.42-0.2,0.733-0.475,0.938-0.824c0.204-0.349,0.307-0.728,0.307-1.142c0-0.418-0.099-0.783-0.297-1.095
				c-0.197-0.312-0.523-0.575-0.977-0.787c-0.291-0.139-0.935-0.355-1.933-0.649c-0.997-0.294-1.696-0.572-2.096-0.833
				c-0.518-0.333-0.904-0.746-1.158-1.24c-0.255-0.494-0.381-1.047-0.381-1.66c0-0.672,0.155-1.302,0.467-1.886
				c0.31-0.585,0.764-1.029,1.362-1.333c0.598-0.302,1.261-0.454,1.993-0.454c0.804,0,1.515,0.158,2.129,0.478
				c0.615,0.318,1.089,0.787,1.418,1.404c0.331,0.619,0.509,1.32,0.535,2.101l-1.378,0.128
				C35.034,57.629,34.784,56.993,34.356,56.562L34.356,56.562z M44.095,56.562c-0.428-0.43-1.058-0.644-1.893-0.644
				c-0.869,0-1.502,0.195-1.899,0.586s-0.596,0.862-0.596,1.413c0,0.48,0.141,0.874,0.422,1.182c0.276,0.31,0.998,0.627,2.166,0.95
				c1.168,0.325,1.969,0.609,2.403,0.851c0.633,0.357,1.1,0.811,1.4,1.36c0.3,0.548,0.452,1.181,0.452,1.896
				c0,0.711-0.166,1.378-0.496,2.006c-0.331,0.627-0.808,1.114-1.426,1.463c-0.62,0.349-1.318,0.522-2.093,0.522
				c-0.982,0-1.806-0.176-2.47-0.527c-0.664-0.35-1.186-0.88-1.563-1.586c-0.378-0.706-0.577-1.505-0.596-2.397l1.355-0.145
				c0.065,0.667,0.215,1.215,0.449,1.643c0.234,0.426,0.598,0.772,1.092,1.035c0.494,0.265,1.05,0.396,1.667,0.396
				c0.548,0,1.032-0.1,1.452-0.298c0.42-0.2,0.732-0.475,0.937-0.824s0.307-0.728,0.307-1.142c0-0.418-0.099-0.783-0.296-1.095
				c-0.199-0.312-0.523-0.575-0.979-0.787c-0.291-0.139-0.935-0.355-1.932-0.649c-0.998-0.294-1.698-0.572-2.096-0.833
				c-0.518-0.333-0.904-0.746-1.16-1.24c-0.254-0.494-0.381-1.047-0.381-1.66c0-0.672,0.155-1.302,0.467-1.886
				c0.31-0.585,0.766-1.029,1.363-1.333c0.598-0.302,1.261-0.454,1.991-0.454c0.806,0,1.515,0.158,2.13,0.478
				c0.614,0.318,1.087,0.787,1.418,1.404c0.331,0.619,0.509,1.32,0.533,2.101l-1.378,0.128
				C44.772,57.629,44.522,56.993,44.095,56.562L44.095,56.562z M48.379,67.919V54.59h1.436v13.33L48.379,67.919L48.379,67.919z
				 M59.035,67.919l-5.703-10.476v10.476h-1.378V54.59h1.473l5.703,10.466V54.59h1.378v13.33L59.035,67.919L59.035,67.919z
				 M67.625,62.691v-1.563l4.6-0.01v4.947c-0.705,0.691-1.434,1.21-2.185,1.559s-1.521,0.522-2.312,0.522
				c-1.065,0-2.035-0.28-2.907-0.84c-0.871-0.561-1.53-1.372-1.974-2.433c-0.444-1.061-0.665-2.245-0.665-3.555
				c0-1.297,0.22-2.508,0.662-3.632c0.442-1.124,1.077-1.961,1.907-2.505c0.829-0.546,1.785-0.819,2.867-0.819
				c0.785,0,1.494,0.157,2.129,0.468c0.635,0.312,1.132,0.748,1.492,1.305c0.359,0.557,0.635,1.286,0.822,2.182l-1.295,0.436
				c-0.164-0.678-0.367-1.211-0.609-1.601c-0.241-0.388-0.586-0.698-1.037-0.932c-0.449-0.233-0.948-0.349-1.496-0.349
				c-0.656,0-1.224,0.123-1.704,0.368c-0.478,0.246-0.864,0.567-1.158,0.967c-0.294,0.401-0.523,0.84-0.685,1.318
				c-0.278,0.825-0.415,1.72-0.415,2.683c0,1.189,0.166,2.182,0.499,2.983c0.334,0.799,0.819,1.394,1.455,1.781
				c0.638,0.389,1.314,0.583,2.029,0.583c0.623,0,1.229-0.146,1.822-0.44c0.594-0.294,1.043-0.609,1.35-0.942v-2.483h-3.193V62.691z
				 M18.023,89.202H9.439v-1.636l5.563-8.539c0.396-0.606,0.77-1.133,1.126-1.582H10.07v-1.573h7.777v1.573l-6.096,9.248
				l-0.659,0.935h6.932L18.023,89.202L18.023,89.202z M28.473,86.184c-0.444,1.068-1.074,1.875-1.89,2.424
				c-0.814,0.549-1.693,0.822-2.636,0.822c-1.022,0-1.937-0.302-2.741-0.908c-0.804-0.606-1.415-1.434-1.83-2.482
				c-0.413-1.048-0.622-2.158-0.622-3.327c0-2.213,0.485-3.946,1.452-5.198c0.967-1.252,2.218-1.877,3.747-1.877
				c1.003,0,1.906,0.295,2.712,0.883c0.804,0.588,1.418,1.406,1.84,2.459c0.423,1.051,0.633,2.244,0.633,3.578
				C29.139,83.908,28.918,85.118,28.473,86.184L28.473,86.184z M27.21,79.705c-0.299-0.809-0.737-1.438-1.312-1.882
				c-0.575-0.446-1.221-0.669-1.937-0.669c-1.018,0-1.893,0.428-2.626,1.285c-0.733,0.859-1.1,2.291-1.1,4.299
				c0,1.604,0.352,2.871,1.056,3.796c0.703,0.924,1.586,1.387,2.647,1.387c1.082,0,1.972-0.467,2.67-1.399
				c0.699-0.935,1.048-2.258,1.048-3.976C27.658,81.463,27.509,80.514,27.21,79.705L27.21,79.705z M37.678,89.202l-5.703-10.474
				v10.474h-1.378v-13.33h1.475l5.703,10.466V75.872h1.378v13.33H37.678L37.678,89.202z M49.32,87.629v1.573h-8.103v-13.33h7.851
				v1.573h-6.414v4.082h6.007v1.563h-6.007v4.537L49.32,87.629L49.32,87.629z"/>
		</g>
		<g>
			<path id="SVGID_3_" fill="none" stroke="#000000" stroke-width="0.5" stroke-miterlimit="10" d="M17.373,46.637L11.67,36.161
				v10.476h-1.378V33.305h1.473l5.703,10.466V33.305h1.378v13.331h-1.473V46.637z M30.161,43.618
				c-0.444,1.066-1.074,1.875-1.888,2.423c-0.816,0.549-1.694,0.824-2.638,0.824c-1.021,0-1.935-0.304-2.739-0.909
				c-0.806-0.607-1.415-1.434-1.83-2.483c-0.415-1.05-0.622-2.158-0.622-3.329c0-2.213,0.483-3.944,1.452-5.196
				c0.967-1.252,2.216-1.878,3.747-1.878c1.003,0,1.906,0.294,2.71,0.882c0.806,0.588,1.42,1.408,1.841,2.46
				c0.422,1.051,0.633,2.245,0.633,3.578C30.828,41.341,30.605,42.55,30.161,43.618L30.161,43.618z M28.898,37.138
				c-0.299-0.809-0.735-1.436-1.31-1.882c-0.575-0.446-1.221-0.669-1.937-0.669c-1.018,0-1.893,0.43-2.626,1.287
				c-0.733,0.858-1.1,2.29-1.1,4.296c0,1.607,0.352,2.872,1.055,3.797c0.704,0.924,1.586,1.386,2.649,1.386
				c1.081,0,1.97-0.467,2.67-1.4c0.699-0.934,1.048-2.258,1.048-3.973C29.347,38.895,29.197,37.949,28.898,37.138L28.898,37.138z
				 M17.713,61.323c-0.588,0.785-1.651,1.177-3.185,1.177h-2.786v5.419h-1.436V54.59h4.096c0.72,0,1.271,0.042,1.651,0.128
				c0.533,0.108,0.98,0.317,1.341,0.622c0.36,0.307,0.651,0.735,0.871,1.287c0.22,0.551,0.329,1.158,0.329,1.819
				C18.594,59.579,18.3,60.538,17.713,61.323L17.713,61.323z M16.768,57.067c-0.229-0.397-0.533-0.659-0.908-0.787
				c-0.242-0.079-0.688-0.118-1.341-0.118h-2.778v4.765h2.807c0.929,0,1.588-0.213,1.979-0.636c0.389-0.425,0.585-1.022,0.585-1.791
				C17.112,57.941,16.998,57.465,16.768,57.067L16.768,57.067z M26.251,67.919l-1.266-4.038h-4.54l-1.194,4.038h-1.525l4.17-13.33
				h1.547l4.443,13.33H26.251L26.251,67.919z M23.407,58.754c-0.346-1.121-0.602-2.043-0.77-2.764
				c-0.137,0.854-0.333,1.702-0.585,2.545l-1.192,3.91h3.681L23.407,58.754L23.407,58.754z M34.356,56.562
				c-0.426-0.43-1.058-0.644-1.891-0.644c-0.871,0-1.504,0.195-1.901,0.586s-0.596,0.862-0.596,1.413
				c0,0.48,0.141,0.874,0.423,1.182c0.276,0.31,0.998,0.627,2.166,0.95c1.168,0.325,1.969,0.609,2.403,0.851
				c0.632,0.357,1.098,0.811,1.4,1.36c0.3,0.548,0.451,1.181,0.451,1.896c0,0.711-0.165,1.378-0.496,2.006
				c-0.331,0.627-0.806,1.114-1.426,1.463c-0.619,0.349-1.316,0.522-2.092,0.522c-0.982,0-1.806-0.176-2.47-0.527
				c-0.665-0.35-1.186-0.88-1.564-1.586c-0.378-0.706-0.577-1.505-0.596-2.397l1.355-0.145c0.065,0.667,0.213,1.215,0.447,1.643
				c0.236,0.426,0.599,0.772,1.093,1.035c0.494,0.265,1.048,0.396,1.667,0.396c0.548,0,1.032-0.1,1.45-0.298
				c0.42-0.2,0.733-0.475,0.938-0.824c0.204-0.349,0.307-0.728,0.307-1.142c0-0.418-0.099-0.783-0.297-1.095
				c-0.197-0.312-0.523-0.575-0.977-0.787c-0.291-0.139-0.935-0.355-1.933-0.649c-0.997-0.294-1.696-0.572-2.096-0.833
				c-0.518-0.333-0.904-0.746-1.158-1.24c-0.255-0.494-0.381-1.047-0.381-1.66c0-0.672,0.155-1.302,0.467-1.886
				c0.31-0.585,0.764-1.029,1.362-1.333c0.598-0.302,1.261-0.454,1.993-0.454c0.804,0,1.515,0.158,2.129,0.478
				c0.615,0.318,1.089,0.787,1.418,1.404c0.331,0.619,0.509,1.32,0.535,2.101l-1.378,0.128
				C35.034,57.629,34.784,56.993,34.356,56.562L34.356,56.562z M44.095,56.562c-0.428-0.43-1.058-0.644-1.893-0.644
				c-0.869,0-1.502,0.195-1.899,0.586s-0.596,0.862-0.596,1.413c0,0.48,0.141,0.874,0.422,1.182c0.276,0.31,0.998,0.627,2.166,0.95
				c1.168,0.325,1.969,0.609,2.403,0.851c0.633,0.357,1.1,0.811,1.4,1.36c0.3,0.548,0.452,1.181,0.452,1.896
				c0,0.711-0.166,1.378-0.496,2.006c-0.331,0.627-0.808,1.114-1.426,1.463c-0.62,0.349-1.318,0.522-2.093,0.522
				c-0.982,0-1.806-0.176-2.47-0.527c-0.664-0.35-1.186-0.88-1.563-1.586c-0.378-0.706-0.577-1.505-0.596-2.397l1.355-0.145
				c0.065,0.667,0.215,1.215,0.449,1.643c0.234,0.426,0.598,0.772,1.092,1.035c0.494,0.265,1.05,0.396,1.667,0.396
				c0.548,0,1.032-0.1,1.452-0.298c0.42-0.2,0.732-0.475,0.937-0.824s0.307-0.728,0.307-1.142c0-0.418-0.099-0.783-0.296-1.095
				c-0.199-0.312-0.523-0.575-0.979-0.787c-0.291-0.139-0.935-0.355-1.932-0.649c-0.998-0.294-1.698-0.572-2.096-0.833
				c-0.518-0.333-0.904-0.746-1.16-1.24c-0.254-0.494-0.381-1.047-0.381-1.66c0-0.672,0.155-1.302,0.467-1.886
				c0.31-0.585,0.766-1.029,1.363-1.333c0.598-0.302,1.261-0.454,1.991-0.454c0.806,0,1.515,0.158,2.13,0.478
				c0.614,0.318,1.087,0.787,1.418,1.404c0.331,0.619,0.509,1.32,0.533,2.101l-1.378,0.128
				C44.772,57.629,44.522,56.993,44.095,56.562L44.095,56.562z M48.379,67.919V54.59h1.436v13.33L48.379,67.919L48.379,67.919z
				 M59.035,67.919l-5.703-10.476v10.476h-1.378V54.59h1.473l5.703,10.466V54.59h1.378v13.33L59.035,67.919L59.035,67.919z
				 M67.625,62.691v-1.563l4.6-0.01v4.947c-0.705,0.691-1.434,1.21-2.185,1.559s-1.521,0.522-2.312,0.522
				c-1.065,0-2.035-0.28-2.907-0.84c-0.871-0.561-1.53-1.372-1.974-2.433c-0.444-1.061-0.665-2.245-0.665-3.555
				c0-1.297,0.22-2.508,0.662-3.632c0.442-1.124,1.077-1.961,1.907-2.505c0.829-0.546,1.785-0.819,2.867-0.819
				c0.785,0,1.494,0.157,2.129,0.468c0.635,0.312,1.132,0.748,1.492,1.305c0.359,0.557,0.635,1.286,0.822,2.182l-1.295,0.436
				c-0.164-0.678-0.367-1.211-0.609-1.601c-0.241-0.388-0.586-0.698-1.037-0.932c-0.449-0.233-0.948-0.349-1.496-0.349
				c-0.656,0-1.224,0.123-1.704,0.368c-0.478,0.246-0.864,0.567-1.158,0.967c-0.294,0.401-0.523,0.84-0.685,1.318
				c-0.278,0.825-0.415,1.72-0.415,2.683c0,1.189,0.166,2.182,0.499,2.983c0.334,0.799,0.819,1.394,1.455,1.781
				c0.638,0.389,1.314,0.583,2.029,0.583c0.623,0,1.229-0.146,1.822-0.44c0.594-0.294,1.043-0.609,1.35-0.942v-2.483h-3.193V62.691z
				 M18.023,89.202H9.439v-1.636l5.563-8.539c0.396-0.606,0.77-1.133,1.126-1.582H10.07v-1.573h7.777v1.573l-6.096,9.248
				l-0.659,0.935h6.932L18.023,89.202L18.023,89.202z M28.473,86.184c-0.444,1.068-1.074,1.875-1.89,2.424
				c-0.814,0.549-1.693,0.822-2.636,0.822c-1.022,0-1.937-0.302-2.741-0.908c-0.804-0.606-1.415-1.434-1.83-2.482
				c-0.413-1.048-0.622-2.158-0.622-3.327c0-2.213,0.485-3.946,1.452-5.198c0.967-1.252,2.218-1.877,3.747-1.877
				c1.003,0,1.906,0.295,2.712,0.883c0.804,0.588,1.418,1.406,1.84,2.459c0.423,1.051,0.633,2.244,0.633,3.578
				C29.139,83.908,28.918,85.118,28.473,86.184L28.473,86.184z M27.21,79.705c-0.299-0.809-0.737-1.438-1.312-1.882
				c-0.575-0.446-1.221-0.669-1.937-0.669c-1.018,0-1.893,0.428-2.626,1.285c-0.733,0.859-1.1,2.291-1.1,4.299
				c0,1.604,0.352,2.871,1.056,3.796c0.703,0.924,1.586,1.387,2.647,1.387c1.082,0,1.972-0.467,2.67-1.399
				c0.699-0.935,1.048-2.258,1.048-3.976C27.658,81.463,27.509,80.514,27.21,79.705L27.21,79.705z M37.678,89.202l-5.703-10.474
				v10.474h-1.378v-13.33h1.475l5.703,10.466V75.872h1.378v13.33H37.678L37.678,89.202z M49.32,87.629v1.573h-8.103v-13.33h7.851
				v1.573h-6.414v4.082h6.007v1.563h-6.007v4.537L49.32,87.629L49.32,87.629z"/>
		</g>
	</g>
	
		<linearGradient id="SVGID_10_" gradientUnits="userSpaceOnUse" x1="198.0107" y1="-184.7104" x2="133.9436" y2="-93.2131" gradientTransform="matrix(1 0 0 -1 -123.165 -81.835)">
		<stop  offset="0" style="stop-color:#000000;stop-opacity:0"/>
		<stop  offset="1" style="stop-color:#FFFFFF;stop-opacity:0.25"/>
	</linearGradient>
	<path fill="url(#SVGID_10_)" d="M6.582,116.497c-0.36-0.003-0.812-0.165-1.213-0.431c-0.745-0.498-1.207-1.362-1.207-2.258V17.154
		c0-1.45,1.685-2.597,3.119-2.663c0.622,0.255,118.179,48.634,118.811,48.892c0.455,0.502,0.746,1.124,0.746,1.804
		c0,0.002,0,0.002,0,0.003c0,0.682-0.292,1.307-0.751,1.806c-0.178,0.076-63.634,26.792-63.634,26.792
		c-0.003,0.003-7.704,3.25-7.704,3.25L9.877,115.934l-1.145,0.478l-0.195,0.063l-1.003,0.035L6.582,116.497L6.582,116.497z"/>
</g>
<g id="normal">
	<g>
		<g>
			
				<linearGradient id="SVGID_13_" gradientUnits="userSpaceOnUse" x1="128.3271" y1="-148.3359" x2="251.0029" y2="-148.3359" gradientTransform="matrix(1 0 0 -1 -123.165 -81.835)">
				<stop  offset="0" style="stop-color:#000000;stop-opacity:0.6"/>
				<stop  offset="1" style="stop-color:#000000;stop-opacity:0.6"/>
			</linearGradient>
			<path id="SVGID_11_" fill="url(#SVGID_13_)" d="M7.582,117.497c-0.36-0.003-0.812-0.165-1.213-0.431
				c-0.745-0.498-1.207-1.362-1.207-2.258V18.154c0-1.45,1.685-2.597,3.119-2.663c0.622,0.255,118.179,48.634,118.811,48.892
				c0.455,0.502,0.746,1.124,0.746,1.804c0,0.002,0,0.002,0,0.003c0,0.682-0.292,1.307-0.751,1.806
				c-0.178,0.076-63.634,26.792-63.634,26.792c-0.003,0.003-7.704,3.25-7.704,3.25l-44.872,18.896l-1.145,0.479l-0.195,0.063
				l-1.003,0.036L7.582,117.497L7.582,117.497z"/>
		</g>
		<g>
			<path id="SVGID_12_" fill="#FFDF0A" d="M6.582,116.497c-0.36-0.003-0.812-0.165-1.213-0.431
				c-0.745-0.498-1.207-1.362-1.207-2.258V17.154c0-1.45,1.685-2.597,3.119-2.663c0.622,0.255,118.179,48.634,118.811,48.892
				c0.455,0.502,0.746,1.124,0.746,1.804c0,0.002,0,0.002,0,0.003c0,0.682-0.292,1.307-0.751,1.806
				c-0.178,0.076-63.634,26.792-63.634,26.792c-0.003,0.003-7.704,3.25-7.704,3.25L9.877,115.934l-1.145,0.478l-0.195,0.063
				l-1.003,0.035L6.582,116.497L6.582,116.497z"/>
		</g>
		<g>
			<defs>
				<path id="SVGID_14_" d="M7.582,117.497c-0.36-0.003-0.812-0.165-1.213-0.431c-0.745-0.498-1.207-1.362-1.207-2.258V18.154
					c0-1.45,1.685-2.597,3.119-2.663c0.622,0.255,118.179,48.634,118.811,48.892c0.455,0.502,0.746,1.124,0.746,1.804
					c0,0.002,0,0.002,0,0.003c0,0.682-0.292,1.307-0.751,1.806c-0.178,0.076-63.634,26.792-63.634,26.792
					c-0.003,0.003-7.704,3.25-7.704,3.25l-44.872,18.896l-1.145,0.479l-0.195,0.063l-1.003,0.036L7.582,117.497L7.582,117.497z"/>
			</defs>
			<clipPath id="SVGID_15_">
				<use xlink:href="#SVGID_14_"  overflow="visible"/>
			</clipPath>
		</g>
	</g>
	<g>
		<g>
			<path id="SVGID_16_" d="M6.89,17.591l-0.145,0.097c-0.824,0.591-0.803,1.534-0.785,2.289l0.005,0.338v88.828l-0.01,1.014
				l0.015,2.154c0.05,0.959,0.486,1.435,0.843,1.666c0.003,0.002,1.815,0.23,1.815,0.23c0-0.003,1.42-0.477,1.42-0.477l0.41-0.191
				l109.468-46.096c1.006-0.418,1.614-0.99,1.861-1.751c0.357-1.1-0.348-2.079-1.982-2.759c-0.003,0-107.454-44.216-107.454-44.216
				l-0.753-0.346C10.277,17.745,7.938,16.968,6.89,17.591L6.89,17.591z M9.058,111.587c-0.271-0.174-0.974-0.524-1-1v-2.001v-0.998
				v-86v-1c-0.016-0.764,0.575-0.696,1-1.001l0,0c1,0,1.993,0.528,3.001,1.001l0,0l106.179,43.223
				c0.816,0.338,1.734,0.903,1.477,1.683c-0.165,0.509-0.596,0.892-1.357,1.207l-107.3,43.886L9.058,111.587L9.058,111.587
				L9.058,111.587L9.058,111.587z"/>
		</g>
	</g>
	<g>
		<g>
			<path id="SVGID_18_" d="M17.373,46.637L11.67,36.161v10.476h-1.378V33.305h1.473l5.703,10.466V33.305h1.378v13.331h-1.473V46.637
				z M30.161,43.618c-0.444,1.066-1.074,1.875-1.888,2.423c-0.816,0.549-1.694,0.824-2.638,0.824c-1.021,0-1.935-0.304-2.739-0.909
				c-0.806-0.607-1.415-1.434-1.83-2.483c-0.415-1.05-0.622-2.158-0.622-3.329c0-2.213,0.483-3.944,1.452-5.196
				c0.967-1.252,2.216-1.878,3.747-1.878c1.003,0,1.906,0.294,2.71,0.882c0.806,0.588,1.42,1.408,1.841,2.46
				c0.422,1.051,0.633,2.245,0.633,3.578C30.828,41.341,30.605,42.55,30.161,43.618L30.161,43.618z M28.898,37.138
				c-0.299-0.809-0.735-1.436-1.31-1.882c-0.575-0.446-1.221-0.669-1.937-0.669c-1.018,0-1.893,0.43-2.626,1.287
				c-0.733,0.858-1.1,2.29-1.1,4.296c0,1.607,0.352,2.872,1.055,3.797c0.704,0.924,1.586,1.386,2.649,1.386
				c1.081,0,1.97-0.467,2.67-1.4c0.699-0.934,1.048-2.258,1.048-3.973C29.347,38.895,29.197,37.949,28.898,37.138L28.898,37.138z
				 M17.713,61.323c-0.588,0.785-1.651,1.177-3.185,1.177h-2.786v5.419h-1.436V54.59h4.096c0.72,0,1.271,0.042,1.651,0.128
				c0.533,0.108,0.98,0.317,1.341,0.622c0.36,0.307,0.651,0.735,0.871,1.287c0.22,0.551,0.329,1.158,0.329,1.819
				C18.594,59.579,18.3,60.538,17.713,61.323L17.713,61.323z M16.768,57.067c-0.229-0.397-0.533-0.659-0.908-0.787
				c-0.242-0.079-0.688-0.118-1.341-0.118h-2.778v4.765h2.807c0.929,0,1.588-0.213,1.979-0.636c0.389-0.425,0.585-1.022,0.585-1.791
				C17.112,57.941,16.998,57.465,16.768,57.067L16.768,57.067z M26.251,67.919l-1.266-4.038h-4.54l-1.194,4.038h-1.525l4.17-13.33
				h1.547l4.443,13.33H26.251L26.251,67.919z M23.407,58.754c-0.346-1.121-0.602-2.043-0.77-2.764
				c-0.137,0.854-0.333,1.702-0.585,2.545l-1.192,3.91h3.681L23.407,58.754L23.407,58.754z M34.356,56.562
				c-0.426-0.43-1.058-0.644-1.891-0.644c-0.871,0-1.504,0.195-1.901,0.586s-0.596,0.862-0.596,1.413
				c0,0.48,0.141,0.874,0.423,1.182c0.276,0.31,0.998,0.627,2.166,0.95c1.168,0.325,1.969,0.609,2.403,0.851
				c0.632,0.357,1.098,0.811,1.4,1.36c0.3,0.548,0.451,1.181,0.451,1.896c0,0.711-0.165,1.378-0.496,2.006
				c-0.331,0.627-0.806,1.114-1.426,1.463c-0.619,0.349-1.316,0.522-2.092,0.522c-0.982,0-1.806-0.176-2.47-0.527
				c-0.665-0.35-1.186-0.88-1.564-1.586c-0.378-0.706-0.577-1.505-0.596-2.397l1.355-0.145c0.065,0.667,0.213,1.215,0.447,1.643
				c0.236,0.426,0.599,0.772,1.093,1.035c0.494,0.265,1.048,0.396,1.667,0.396c0.548,0,1.032-0.1,1.45-0.298
				c0.42-0.2,0.733-0.475,0.938-0.824c0.204-0.349,0.307-0.728,0.307-1.142c0-0.418-0.099-0.783-0.297-1.095
				c-0.197-0.312-0.523-0.575-0.977-0.787c-0.291-0.139-0.935-0.355-1.933-0.649c-0.997-0.294-1.696-0.572-2.096-0.833
				c-0.518-0.333-0.904-0.746-1.158-1.24c-0.255-0.494-0.381-1.047-0.381-1.66c0-0.672,0.155-1.302,0.467-1.886
				c0.31-0.585,0.764-1.029,1.362-1.333c0.598-0.302,1.261-0.454,1.993-0.454c0.804,0,1.515,0.158,2.129,0.478
				c0.615,0.318,1.089,0.787,1.418,1.404c0.331,0.619,0.509,1.32,0.535,2.101l-1.378,0.128
				C35.034,57.629,34.784,56.993,34.356,56.562L34.356,56.562z M44.095,56.562c-0.428-0.43-1.058-0.644-1.893-0.644
				c-0.869,0-1.502,0.195-1.899,0.586s-0.596,0.862-0.596,1.413c0,0.48,0.141,0.874,0.422,1.182c0.276,0.31,0.998,0.627,2.166,0.95
				c1.168,0.325,1.969,0.609,2.403,0.851c0.633,0.357,1.1,0.811,1.4,1.36c0.3,0.548,0.452,1.181,0.452,1.896
				c0,0.711-0.166,1.378-0.496,2.006c-0.331,0.627-0.808,1.114-1.426,1.463c-0.62,0.349-1.318,0.522-2.093,0.522
				c-0.982,0-1.806-0.176-2.47-0.527c-0.664-0.35-1.186-0.88-1.563-1.586c-0.378-0.706-0.577-1.505-0.596-2.397l1.355-0.145
				c0.065,0.667,0.215,1.215,0.449,1.643c0.234,0.426,0.598,0.772,1.092,1.035c0.494,0.265,1.05,0.396,1.667,0.396
				c0.548,0,1.032-0.1,1.452-0.298c0.42-0.2,0.732-0.475,0.937-0.824s0.307-0.728,0.307-1.142c0-0.418-0.099-0.783-0.296-1.095
				c-0.199-0.312-0.523-0.575-0.979-0.787c-0.291-0.139-0.935-0.355-1.932-0.649c-0.998-0.294-1.698-0.572-2.096-0.833
				c-0.518-0.333-0.904-0.746-1.16-1.24c-0.254-0.494-0.381-1.047-0.381-1.66c0-0.672,0.155-1.302,0.467-1.886
				c0.31-0.585,0.766-1.029,1.363-1.333c0.598-0.302,1.261-0.454,1.991-0.454c0.806,0,1.515,0.158,2.13,0.478
				c0.614,0.318,1.087,0.787,1.418,1.404c0.331,0.619,0.509,1.32,0.533,2.101l-1.378,0.128
				C44.772,57.629,44.522,56.993,44.095,56.562L44.095,56.562z M48.379,67.919V54.59h1.436v13.33L48.379,67.919L48.379,67.919z
				 M59.035,67.919l-5.703-10.476v10.476h-1.378V54.59h1.473l5.703,10.466V54.59h1.378v13.33L59.035,67.919L59.035,67.919z
				 M67.625,62.691v-1.563l4.6-0.01v4.947c-0.705,0.691-1.434,1.21-2.185,1.559s-1.521,0.522-2.312,0.522
				c-1.065,0-2.035-0.28-2.907-0.84c-0.871-0.561-1.53-1.372-1.974-2.433c-0.444-1.061-0.665-2.245-0.665-3.555
				c0-1.297,0.22-2.508,0.662-3.632c0.442-1.124,1.077-1.961,1.907-2.505c0.829-0.546,1.785-0.819,2.867-0.819
				c0.785,0,1.494,0.157,2.129,0.468c0.635,0.312,1.132,0.748,1.492,1.305c0.359,0.557,0.635,1.286,0.822,2.182l-1.295,0.436
				c-0.164-0.678-0.367-1.211-0.609-1.601c-0.241-0.388-0.586-0.698-1.037-0.932c-0.449-0.233-0.948-0.349-1.496-0.349
				c-0.656,0-1.224,0.123-1.704,0.368c-0.478,0.246-0.864,0.567-1.158,0.967c-0.294,0.401-0.523,0.84-0.685,1.318
				c-0.278,0.825-0.415,1.72-0.415,2.683c0,1.189,0.166,2.182,0.499,2.983c0.334,0.799,0.819,1.394,1.455,1.781
				c0.638,0.389,1.314,0.583,2.029,0.583c0.623,0,1.229-0.146,1.822-0.44c0.594-0.294,1.043-0.609,1.35-0.942v-2.483h-3.193V62.691z
				 M18.023,89.202H9.439v-1.636l5.563-8.539c0.396-0.606,0.77-1.133,1.126-1.582H10.07v-1.573h7.777v1.573l-6.096,9.248
				l-0.659,0.935h6.932L18.023,89.202L18.023,89.202z M28.473,86.184c-0.444,1.068-1.074,1.875-1.89,2.424
				c-0.814,0.549-1.693,0.822-2.636,0.822c-1.022,0-1.937-0.302-2.741-0.908c-0.804-0.606-1.415-1.434-1.83-2.482
				c-0.413-1.048-0.622-2.158-0.622-3.327c0-2.213,0.485-3.946,1.452-5.198c0.967-1.252,2.218-1.877,3.747-1.877
				c1.003,0,1.906,0.295,2.712,0.883c0.804,0.588,1.418,1.406,1.84,2.459c0.423,1.051,0.633,2.244,0.633,3.578
				C29.139,83.908,28.918,85.118,28.473,86.184L28.473,86.184z M27.21,79.705c-0.299-0.809-0.737-1.438-1.312-1.882
				c-0.575-0.446-1.221-0.669-1.937-0.669c-1.018,0-1.893,0.428-2.626,1.285c-0.733,0.859-1.1,2.291-1.1,4.299
				c0,1.604,0.352,2.871,1.056,3.796c0.703,0.924,1.586,1.387,2.647,1.387c1.082,0,1.972-0.467,2.67-1.399
				c0.699-0.935,1.048-2.258,1.048-3.976C27.658,81.463,27.509,80.514,27.21,79.705L27.21,79.705z M37.678,89.202l-5.703-10.474
				v10.474h-1.378v-13.33h1.475l5.703,10.466V75.872h1.378v13.33H37.678L37.678,89.202z M49.32,87.629v1.573h-8.103v-13.33h7.851
				v1.573h-6.414v4.082h6.007v1.563h-6.007v4.537L49.32,87.629L49.32,87.629z"/>
		</g>
		<g>
			<path id="SVGID_4_" fill="none" stroke="#000000" stroke-width="0.5" stroke-miterlimit="10" d="M17.373,46.637L11.67,36.161
				v10.476h-1.378V33.305h1.473l5.703,10.466V33.305h1.378v13.331h-1.473V46.637z M30.161,43.618
				c-0.444,1.066-1.074,1.875-1.888,2.423c-0.816,0.549-1.694,0.824-2.638,0.824c-1.021,0-1.935-0.304-2.739-0.909
				c-0.806-0.607-1.415-1.434-1.83-2.483c-0.415-1.05-0.622-2.158-0.622-3.329c0-2.213,0.483-3.944,1.452-5.196
				c0.967-1.252,2.216-1.878,3.747-1.878c1.003,0,1.906,0.294,2.71,0.882c0.806,0.588,1.42,1.408,1.841,2.46
				c0.422,1.051,0.633,2.245,0.633,3.578C30.828,41.341,30.605,42.55,30.161,43.618L30.161,43.618z M28.898,37.138
				c-0.299-0.809-0.735-1.436-1.31-1.882c-0.575-0.446-1.221-0.669-1.937-0.669c-1.018,0-1.893,0.43-2.626,1.287
				c-0.733,0.858-1.1,2.29-1.1,4.296c0,1.607,0.352,2.872,1.055,3.797c0.704,0.924,1.586,1.386,2.649,1.386
				c1.081,0,1.97-0.467,2.67-1.4c0.699-0.934,1.048-2.258,1.048-3.973C29.347,38.895,29.197,37.949,28.898,37.138L28.898,37.138z
				 M17.713,61.323c-0.588,0.785-1.651,1.177-3.185,1.177h-2.786v5.419h-1.436V54.59h4.096c0.72,0,1.271,0.042,1.651,0.128
				c0.533,0.108,0.98,0.317,1.341,0.622c0.36,0.307,0.651,0.735,0.871,1.287c0.22,0.551,0.329,1.158,0.329,1.819
				C18.594,59.579,18.3,60.538,17.713,61.323L17.713,61.323z M16.768,57.067c-0.229-0.397-0.533-0.659-0.908-0.787
				c-0.242-0.079-0.688-0.118-1.341-0.118h-2.778v4.765h2.807c0.929,0,1.588-0.213,1.979-0.636c0.389-0.425,0.585-1.022,0.585-1.791
				C17.112,57.941,16.998,57.465,16.768,57.067L16.768,57.067z M26.251,67.919l-1.266-4.038h-4.54l-1.194,4.038h-1.525l4.17-13.33
				h1.547l4.443,13.33H26.251L26.251,67.919z M23.407,58.754c-0.346-1.121-0.602-2.043-0.77-2.764
				c-0.137,0.854-0.333,1.702-0.585,2.545l-1.192,3.91h3.681L23.407,58.754L23.407,58.754z M34.356,56.562
				c-0.426-0.43-1.058-0.644-1.891-0.644c-0.871,0-1.504,0.195-1.901,0.586s-0.596,0.862-0.596,1.413
				c0,0.48,0.141,0.874,0.423,1.182c0.276,0.31,0.998,0.627,2.166,0.95c1.168,0.325,1.969,0.609,2.403,0.851
				c0.632,0.357,1.098,0.811,1.4,1.36c0.3,0.548,0.451,1.181,0.451,1.896c0,0.711-0.165,1.378-0.496,2.006
				c-0.331,0.627-0.806,1.114-1.426,1.463c-0.619,0.349-1.316,0.522-2.092,0.522c-0.982,0-1.806-0.176-2.47-0.527
				c-0.665-0.35-1.186-0.88-1.564-1.586c-0.378-0.706-0.577-1.505-0.596-2.397l1.355-0.145c0.065,0.667,0.213,1.215,0.447,1.643
				c0.236,0.426,0.599,0.772,1.093,1.035c0.494,0.265,1.048,0.396,1.667,0.396c0.548,0,1.032-0.1,1.45-0.298
				c0.42-0.2,0.733-0.475,0.938-0.824c0.204-0.349,0.307-0.728,0.307-1.142c0-0.418-0.099-0.783-0.297-1.095
				c-0.197-0.312-0.523-0.575-0.977-0.787c-0.291-0.139-0.935-0.355-1.933-0.649c-0.997-0.294-1.696-0.572-2.096-0.833
				c-0.518-0.333-0.904-0.746-1.158-1.24c-0.255-0.494-0.381-1.047-0.381-1.66c0-0.672,0.155-1.302,0.467-1.886
				c0.31-0.585,0.764-1.029,1.362-1.333c0.598-0.302,1.261-0.454,1.993-0.454c0.804,0,1.515,0.158,2.129,0.478
				c0.615,0.318,1.089,0.787,1.418,1.404c0.331,0.619,0.509,1.32,0.535,2.101l-1.378,0.128
				C35.034,57.629,34.784,56.993,34.356,56.562L34.356,56.562z M44.095,56.562c-0.428-0.43-1.058-0.644-1.893-0.644
				c-0.869,0-1.502,0.195-1.899,0.586s-0.596,0.862-0.596,1.413c0,0.48,0.141,0.874,0.422,1.182c0.276,0.31,0.998,0.627,2.166,0.95
				c1.168,0.325,1.969,0.609,2.403,0.851c0.633,0.357,1.1,0.811,1.4,1.36c0.3,0.548,0.452,1.181,0.452,1.896
				c0,0.711-0.166,1.378-0.496,2.006c-0.331,0.627-0.808,1.114-1.426,1.463c-0.62,0.349-1.318,0.522-2.093,0.522
				c-0.982,0-1.806-0.176-2.47-0.527c-0.664-0.35-1.186-0.88-1.563-1.586c-0.378-0.706-0.577-1.505-0.596-2.397l1.355-0.145
				c0.065,0.667,0.215,1.215,0.449,1.643c0.234,0.426,0.598,0.772,1.092,1.035c0.494,0.265,1.05,0.396,1.667,0.396
				c0.548,0,1.032-0.1,1.452-0.298c0.42-0.2,0.732-0.475,0.937-0.824s0.307-0.728,0.307-1.142c0-0.418-0.099-0.783-0.296-1.095
				c-0.199-0.312-0.523-0.575-0.979-0.787c-0.291-0.139-0.935-0.355-1.932-0.649c-0.998-0.294-1.698-0.572-2.096-0.833
				c-0.518-0.333-0.904-0.746-1.16-1.24c-0.254-0.494-0.381-1.047-0.381-1.66c0-0.672,0.155-1.302,0.467-1.886
				c0.31-0.585,0.766-1.029,1.363-1.333c0.598-0.302,1.261-0.454,1.991-0.454c0.806,0,1.515,0.158,2.13,0.478
				c0.614,0.318,1.087,0.787,1.418,1.404c0.331,0.619,0.509,1.32,0.533,2.101l-1.378,0.128
				C44.772,57.629,44.522,56.993,44.095,56.562L44.095,56.562z M48.379,67.919V54.59h1.436v13.33L48.379,67.919L48.379,67.919z
				 M59.035,67.919l-5.703-10.476v10.476h-1.378V54.59h1.473l5.703,10.466V54.59h1.378v13.33L59.035,67.919L59.035,67.919z
				 M67.625,62.691v-1.563l4.6-0.01v4.947c-0.705,0.691-1.434,1.21-2.185,1.559s-1.521,0.522-2.312,0.522
				c-1.065,0-2.035-0.28-2.907-0.84c-0.871-0.561-1.53-1.372-1.974-2.433c-0.444-1.061-0.665-2.245-0.665-3.555
				c0-1.297,0.22-2.508,0.662-3.632c0.442-1.124,1.077-1.961,1.907-2.505c0.829-0.546,1.785-0.819,2.867-0.819
				c0.785,0,1.494,0.157,2.129,0.468c0.635,0.312,1.132,0.748,1.492,1.305c0.359,0.557,0.635,1.286,0.822,2.182l-1.295,0.436
				c-0.164-0.678-0.367-1.211-0.609-1.601c-0.241-0.388-0.586-0.698-1.037-0.932c-0.449-0.233-0.948-0.349-1.496-0.349
				c-0.656,0-1.224,0.123-1.704,0.368c-0.478,0.246-0.864,0.567-1.158,0.967c-0.294,0.401-0.523,0.84-0.685,1.318
				c-0.278,0.825-0.415,1.72-0.415,2.683c0,1.189,0.166,2.182,0.499,2.983c0.334,0.799,0.819,1.394,1.455,1.781
				c0.638,0.389,1.314,0.583,2.029,0.583c0.623,0,1.229-0.146,1.822-0.44c0.594-0.294,1.043-0.609,1.35-0.942v-2.483h-3.193V62.691z
				 M18.023,89.202H9.439v-1.636l5.563-8.539c0.396-0.606,0.77-1.133,1.126-1.582H10.07v-1.573h7.777v1.573l-6.096,9.248
				l-0.659,0.935h6.932L18.023,89.202L18.023,89.202z M28.473,86.184c-0.444,1.068-1.074,1.875-1.89,2.424
				c-0.814,0.549-1.693,0.822-2.636,0.822c-1.022,0-1.937-0.302-2.741-0.908c-0.804-0.606-1.415-1.434-1.83-2.482
				c-0.413-1.048-0.622-2.158-0.622-3.327c0-2.213,0.485-3.946,1.452-5.198c0.967-1.252,2.218-1.877,3.747-1.877
				c1.003,0,1.906,0.295,2.712,0.883c0.804,0.588,1.418,1.406,1.84,2.459c0.423,1.051,0.633,2.244,0.633,3.578
				C29.139,83.908,28.918,85.118,28.473,86.184L28.473,86.184z M27.21,79.705c-0.299-0.809-0.737-1.438-1.312-1.882
				c-0.575-0.446-1.221-0.669-1.937-0.669c-1.018,0-1.893,0.428-2.626,1.285c-0.733,0.859-1.1,2.291-1.1,4.299
				c0,1.604,0.352,2.871,1.056,3.796c0.703,0.924,1.586,1.387,2.647,1.387c1.082,0,1.972-0.467,2.67-1.399
				c0.699-0.935,1.048-2.258,1.048-3.976C27.658,81.463,27.509,80.514,27.21,79.705L27.21,79.705z M37.678,89.202l-5.703-10.474
				v10.474h-1.378v-13.33h1.475l5.703,10.466V75.872h1.378v13.33H37.678L37.678,89.202z M49.32,87.629v1.573h-8.103v-13.33h7.851
				v1.573h-6.414v4.082h6.007v1.563h-6.007v4.537L49.32,87.629L49.32,87.629z"/>
		</g>
	</g>
	
		<linearGradient id="SVGID_17_" gradientUnits="userSpaceOnUse" x1="198.0107" y1="-184.7104" x2="133.9436" y2="-93.2131" gradientTransform="matrix(1 0 0 -1 -123.165 -81.835)">
		<stop  offset="0" style="stop-color:#000000;stop-opacity:0"/>
		<stop  offset="1" style="stop-color:#FFFFFF;stop-opacity:0.25"/>
	</linearGradient>
	<path fill="url(#SVGID_17_)" d="M6.582,116.497c-0.36-0.003-0.812-0.165-1.213-0.431c-0.745-0.498-1.207-1.362-1.207-2.258V17.154
		c0-1.45,1.685-2.597,3.119-2.663c0.622,0.255,118.179,48.634,118.811,48.892c0.455,0.502,0.746,1.124,0.746,1.804
		c0,0.002,0,0.002,0,0.003c0,0.682-0.292,1.307-0.751,1.806c-0.178,0.076-63.634,26.792-63.634,26.792
		c-0.003,0.003-7.704,3.25-7.704,3.25L9.877,115.934l-1.145,0.478l-0.195,0.063l-1.003,0.035L6.582,116.497L6.582,116.497z"/>
</g>
</svg>
