<?xml version="1.0" encoding="utf-8"?>
<!-- Generator: Adobe Illustrator 16.0.0, SVG Export Plug-In . SVG Version: 6.00 Build 0)  -->
<!DOCTYPE svg PUBLIC "-//W3C//DTD SVG 1.1//EN" "http://www.w3.org/Graphics/SVG/1.1/DTD/svg11.dtd">
<svg version="1.1" id="Layer_1" xmlns="http://www.w3.org/2000/svg" xmlns:xlink="http://www.w3.org/1999/xlink" x="0px" y="0px"
	 width="132px" height="132px" viewBox="0 0 132 132" enable-background="new 0 0 132 132" xml:space="preserve">
<g id="disabled">
	<g>
		<g>
			<path id="SVGID_1_" fill="#575757" d="M123.637,25.955l-49.283,88.904c-1.315,3.324-4.553,5.679-8.345,5.679
				c-3.395,0-6.348-1.884-7.875-4.661l-0.084-0.003L8.258,25.814c-1.123-1.499-1.796-3.355-1.796-5.37
				c0-4.962,4.022-8.982,8.982-8.982c0.089,0,0.173,0.01,0.262,0.013h100.592c0.087-0.003,0.173-0.013,0.263-0.013
				c4.959,0,8.979,4.02,8.979,8.982C125.539,22.523,124.825,24.433,123.637,25.955L123.637,25.955z"/>
		</g>
	</g>
	<g>
		<g>
			<path id="SVGID_3_" fill="#FFFFFF" d="M59.324,113.057c-0.182-0.152-0.341-0.342-0.46-0.557L10.507,25.806
				c-0.06-0.108-0.11-0.218-0.149-0.333c-0.677-1.198-1.032-2.544-1.032-3.92c0-4.419,3.595-8.013,8.014-8.013
				c0,0,0.105,0.008,0.208,0.016c0.097,0,97.045,0,97.097,0c0.099-0.008,0.194-0.016,0.194-0.016c4.419,0,8.013,3.594,8.013,8.013
				c0,1.255-0.305,2.497-0.888,3.631c-0.042,0.165-0.106,0.328-0.19,0.48l-48.418,86.835c-0.137,0.247-0.322,0.455-0.541,0.62
				c-1.467,2.302-3.979,3.704-6.725,3.704C63.32,116.823,60.785,115.396,59.324,113.057 M114.443,13.573
				c0.007,0,0.023-0.002,0.039-0.003C114.468,13.571,114.443,13.573,114.443,13.573 M114.617,13.558c0,0-0.01,0.002-0.012,0.002
				c0.008,0,0.017-0.002,0.026-0.002C114.625,13.558,114.617,13.558,114.617,13.558"/>
		</g>
	</g>
	<g>
		<g>
			<path id="SVGID_5_" fill="#575757" d="M119.95,24.69h0.077l-48.418,86.835h-0.183c-0.995,1.949-2.997,3.298-5.336,3.298
				c-2.338,0-4.343-1.349-5.338-3.298h-0.144L12.253,24.832h0.055c-0.617-0.943-0.982-2.067-0.982-3.279
				c0-3.321,2.692-6.013,6.015-6.013c0.055,0,0.105,0.015,0.16,0.016h97.171v0.002c0.059-0.002,0.111-0.018,0.17-0.018
				c3.321,0,6.014,2.692,6.014,6.013C120.855,22.708,120.514,23.776,119.95,24.69L119.95,24.69z"/>
		</g>
	</g>
	<g>
		<g>
			<path id="SVGID_7_" fill="#FFFFFF" d="M64.324,88.066c-0.01-0.055-0.029-0.107-0.057-0.156l-29.3-52.223
				c-0.011-0.023-0.026-0.042-0.04-0.061c-0.294-0.38-0.447-0.825-0.447-1.29c0-1.174,0.955-2.129,2.129-2.129l-0.053-0.005
				l0.089,0.008h59.363c0,0,0.016-0.002,0.031-0.003c0.02,0.002,0.039,0.003,0.039,0.003s0.042,0,0.076,0
				c0.031,0.01,0.064,0.016,0.099,0.019c1.095,0.108,1.92,1.013,1.92,2.106c0,0.577-0.228,1.118-0.644,1.523
				c-0.036,0.034-0.065,0.073-0.09,0.116c0,0-28.594,51.493-28.752,51.777c-0.09,0.074-0.155,0.181-0.176,0.304
				c-0.177,1.026-1.057,1.771-2.094,1.771C65.384,89.826,64.504,89.086,64.324,88.066 M96.043,32.207
				c0.025-0.002,0.053-0.005,0.053-0.005L96.043,32.207"/>
		</g>
	</g>
	<g>
		<g>
			<path id="SVGID_9_" fill="#575757" d="M50.675,42.03v4.542h-1.98v-4.556l-3.605-6.268h2.329l2.316,4.282l2.269-4.282h2.29
				L50.675,42.03L50.675,42.03z M55.908,46.572V35.747h1.987v10.825H55.908L55.908,46.572z M67.96,44.749v1.824h-7.485V35.747h7.296
				v1.83h-5.311v2.4h4.941v1.825h-4.941v2.946L67.96,44.749L67.96,44.749z M70.389,46.572V35.835h1.986v8.914h4.941v1.824
				L70.389,46.572L70.389,46.572z M87.361,43.566c-0.248,0.788-0.598,1.426-1.055,1.914c-0.345,0.368-0.81,0.657-1.396,0.864
				c-0.438,0.152-1.026,0.229-1.759,0.229h-3.741V35.747h3.632c0.818,0,1.443,0.068,1.874,0.207
				c0.577,0.186,1.071,0.518,1.483,0.997c0.412,0.478,0.725,1.063,0.939,1.754s0.323,1.544,0.323,2.558
				C87.663,42.155,87.561,42.922,87.361,43.566L87.361,43.566z M85.407,39.239c-0.134-0.447-0.321-0.798-0.564-1.048
				c-0.241-0.25-0.548-0.422-0.919-0.51c-0.277-0.068-0.822-0.103-1.631-0.103H81.4v7.171h1.482c0.557,0,0.956-0.034,1.202-0.103
				c0.323-0.089,0.59-0.239,0.804-0.451c0.213-0.212,0.385-0.56,0.52-1.045c0.134-0.485,0.201-1.145,0.201-1.982
				C85.609,40.33,85.541,39.688,85.407,39.239L85.407,39.239z"/>
		</g>
		<g>
			<path id="SVGID_2_" fill="none" stroke="#575757" stroke-width="0.5" stroke-miterlimit="10" d="M50.675,42.03v4.542h-1.98
				v-4.556l-3.605-6.268h2.329l2.316,4.282l2.269-4.282h2.29L50.675,42.03L50.675,42.03z M55.908,46.572V35.747h1.987v10.825H55.908
				L55.908,46.572z M67.96,44.749v1.824h-7.485V35.747h7.296v1.83h-5.311v2.4h4.941v1.825h-4.941v2.946L67.96,44.749L67.96,44.749z
				 M70.389,46.572V35.835h1.986v8.914h4.941v1.824L70.389,46.572L70.389,46.572z M87.361,43.566
				c-0.248,0.788-0.598,1.426-1.055,1.914c-0.345,0.368-0.81,0.657-1.396,0.864c-0.438,0.152-1.026,0.229-1.759,0.229h-3.741V35.747
				h3.632c0.818,0,1.443,0.068,1.874,0.207c0.577,0.186,1.071,0.518,1.483,0.997c0.412,0.478,0.725,1.063,0.939,1.754
				s0.323,1.544,0.323,2.558C87.663,42.155,87.561,42.922,87.361,43.566L87.361,43.566z M85.407,39.239
				c-0.134-0.447-0.321-0.798-0.564-1.048c-0.241-0.25-0.548-0.422-0.919-0.51c-0.277-0.068-0.822-0.103-1.631-0.103H81.4v7.171
				h1.482c0.557,0,0.956-0.034,1.202-0.103c0.323-0.089,0.59-0.239,0.804-0.451c0.213-0.212,0.385-0.56,0.52-1.045
				c0.134-0.485,0.201-1.145,0.201-1.982C85.609,40.33,85.541,39.688,85.407,39.239L85.407,39.239z"/>
		</g>
	</g>
</g>
<g id="normal">
	<g>
		<g>
			<path id="SVGID_11_" fill="#DA1E22" d="M123.637,25.955l-49.283,88.904c-1.315,3.324-4.553,5.679-8.345,5.679
				c-3.395,0-6.348-1.884-7.875-4.661l-0.084-0.003L8.258,25.814c-1.123-1.499-1.796-3.355-1.796-5.37
				c0-4.962,4.022-8.982,8.982-8.982c0.089,0,0.173,0.01,0.262,0.013h100.592c0.087-0.003,0.173-0.013,0.263-0.013
				c4.959,0,8.979,4.02,8.979,8.982C125.539,22.523,124.825,24.433,123.637,25.955L123.637,25.955z"/>
		</g>
	</g>
	<g>
		<g>
			<path id="SVGID_13_" fill="#FFFFFF" d="M59.324,113.057c-0.182-0.152-0.341-0.342-0.46-0.557L10.507,25.806
				c-0.06-0.108-0.11-0.218-0.149-0.333c-0.677-1.198-1.032-2.544-1.032-3.92c0-4.419,3.595-8.013,8.014-8.013
				c0,0,0.105,0.008,0.208,0.016c0.097,0,97.045,0,97.097,0c0.099-0.008,0.194-0.016,0.194-0.016c4.419,0,8.013,3.594,8.013,8.013
				c0,1.255-0.305,2.497-0.888,3.631c-0.042,0.165-0.106,0.328-0.19,0.48l-48.418,86.835c-0.137,0.247-0.322,0.455-0.541,0.62
				c-1.467,2.302-3.979,3.704-6.725,3.704C63.32,116.823,60.785,115.396,59.324,113.057 M114.443,13.573
				c0.007,0,0.023-0.002,0.039-0.003C114.468,13.571,114.443,13.573,114.443,13.573 M114.617,13.558c0,0-0.01,0.002-0.012,0.002
				c0.008,0,0.017-0.002,0.026-0.002C114.625,13.558,114.617,13.558,114.617,13.558"/>
		</g>
	</g>
	<g>
		<g>
			<path id="SVGID_15_" fill="#DA1E22" d="M119.95,24.69h0.077l-48.418,86.835h-0.183c-0.995,1.949-2.997,3.298-5.336,3.298
				c-2.338,0-4.343-1.349-5.338-3.298h-0.144L12.253,24.832h0.055c-0.617-0.943-0.982-2.067-0.982-3.279
				c0-3.321,2.692-6.013,6.015-6.013c0.055,0,0.105,0.015,0.16,0.016h97.171v0.002c0.059-0.002,0.111-0.018,0.17-0.018
				c3.321,0,6.014,2.692,6.014,6.013C120.855,22.708,120.514,23.776,119.95,24.69L119.95,24.69z"/>
		</g>
	</g>
	<g>
		<g>
			<path id="SVGID_17_" fill="#FFFFFF" d="M64.324,88.066c-0.01-0.055-0.029-0.107-0.057-0.156l-29.3-52.223
				c-0.011-0.023-0.026-0.042-0.04-0.061c-0.294-0.38-0.447-0.825-0.447-1.29c0-1.174,0.955-2.129,2.129-2.129l-0.053-0.005
				l0.089,0.008h59.363c0,0,0.016-0.002,0.031-0.003c0.02,0.002,0.039,0.003,0.039,0.003s0.042,0,0.076,0
				c0.031,0.01,0.064,0.016,0.099,0.019c1.095,0.108,1.92,1.013,1.92,2.106c0,0.577-0.228,1.118-0.644,1.523
				c-0.036,0.034-0.065,0.073-0.09,0.116c0,0-28.594,51.493-28.752,51.777c-0.09,0.074-0.155,0.181-0.176,0.304
				c-0.177,1.026-1.057,1.771-2.094,1.771C65.384,89.826,64.504,89.086,64.324,88.066 M96.043,32.207
				c0.025-0.002,0.053-0.005,0.053-0.005L96.043,32.207"/>
		</g>
	</g>
	<g>
		<g>
			<path id="SVGID_19_" fill="#DA1E22" d="M50.675,42.03v4.542h-1.98v-4.556l-3.605-6.268h2.329l2.316,4.282l2.269-4.282h2.29
				L50.675,42.03L50.675,42.03z M55.908,46.572V35.747h1.987v10.825H55.908L55.908,46.572z M67.96,44.749v1.824h-7.485V35.747h7.296
				v1.83h-5.311v2.4h4.941v1.825h-4.941v2.946L67.96,44.749L67.96,44.749z M70.389,46.572V35.835h1.986v8.914h4.941v1.824
				L70.389,46.572L70.389,46.572z M87.361,43.566c-0.248,0.788-0.598,1.426-1.055,1.914c-0.345,0.368-0.81,0.657-1.396,0.864
				c-0.438,0.152-1.026,0.229-1.759,0.229h-3.741V35.747h3.632c0.818,0,1.443,0.068,1.874,0.207
				c0.577,0.186,1.071,0.518,1.483,0.997c0.412,0.478,0.725,1.063,0.939,1.754s0.323,1.544,0.323,2.558
				C87.663,42.155,87.561,42.922,87.361,43.566L87.361,43.566z M85.407,39.239c-0.134-0.447-0.321-0.798-0.564-1.048
				c-0.241-0.25-0.548-0.422-0.919-0.51c-0.277-0.068-0.822-0.103-1.631-0.103H81.4v7.171h1.482c0.557,0,0.956-0.034,1.202-0.103
				c0.323-0.089,0.59-0.239,0.804-0.451c0.213-0.212,0.385-0.56,0.52-1.045c0.134-0.485,0.201-1.145,0.201-1.982
				C85.609,40.33,85.541,39.688,85.407,39.239L85.407,39.239z"/>
		</g>
		<g>
			<path id="SVGID_4_" fill="none" stroke="#DA1E22" stroke-width="0.5" stroke-miterlimit="10" d="M50.675,42.03v4.542h-1.98
				v-4.556l-3.605-6.268h2.329l2.316,4.282l2.269-4.282h2.29L50.675,42.03L50.675,42.03z M55.908,46.572V35.747h1.987v10.825H55.908
				L55.908,46.572z M67.96,44.749v1.824h-7.485V35.747h7.296v1.83h-5.311v2.4h4.941v1.825h-4.941v2.946L67.96,44.749L67.96,44.749z
				 M70.389,46.572V35.835h1.986v8.914h4.941v1.824L70.389,46.572L70.389,46.572z M87.361,43.566
				c-0.248,0.788-0.598,1.426-1.055,1.914c-0.345,0.368-0.81,0.657-1.396,0.864c-0.438,0.152-1.026,0.229-1.759,0.229h-3.741V35.747
				h3.632c0.818,0,1.443,0.068,1.874,0.207c0.577,0.186,1.071,0.518,1.483,0.997c0.412,0.478,0.725,1.063,0.939,1.754
				s0.323,1.544,0.323,2.558C87.663,42.155,87.561,42.922,87.361,43.566L87.361,43.566z M85.407,39.239
				c-0.134-0.447-0.321-0.798-0.564-1.048c-0.241-0.25-0.548-0.422-0.919-0.51c-0.277-0.068-0.822-0.103-1.631-0.103H81.4v7.171
				h1.482c0.557,0,0.956-0.034,1.202-0.103c0.323-0.089,0.59-0.239,0.804-0.451c0.213-0.212,0.385-0.56,0.52-1.045
				c0.134-0.485,0.201-1.145,0.201-1.982C85.609,40.33,85.541,39.688,85.407,39.239L85.407,39.239z"/>
		</g>
	</g>
</g>
</svg>
