<?xml version="1.0" encoding="utf-8"?>
<!-- Generator: Adobe Illustrator 16.0.0, SVG Export Plug-In . SVG Version: 6.00 Build 0)  -->
<!DOCTYPE svg PUBLIC "-//W3C//DTD SVG 1.1//EN" "http://www.w3.org/Graphics/SVG/1.1/DTD/svg11.dtd">
<svg version="1.1" id="Layer_1" xmlns="http://www.w3.org/2000/svg" xmlns:xlink="http://www.w3.org/1999/xlink" x="0px" y="0px"
	 width="132px" height="132px" viewBox="0 0 132 132" enable-background="new 0 0 132 132" xml:space="preserve">
<g id="disabled">
	<g>
		<g>
			
				<linearGradient id="SVGID_5_" gradientUnits="userSpaceOnUse" x1="126.9521" y1="-148.335" x2="252.3779" y2="-148.335" gradientTransform="matrix(1 0 0 -1 -123.165 -81.835)">
				<stop  offset="0" style="stop-color:#000000;stop-opacity:0.6"/>
				<stop  offset="1" style="stop-color:#000000;stop-opacity:0.6"/>
			</linearGradient>
			<path id="SVGID_1_" fill="url(#SVGID_5_)" d="M72.428,6.262l54.309,54.311c3.302,3.301,3.302,8.655,0,11.956l-54.207,54.207
				c-3.301,3.303-8.654,3.303-11.955,0L6.263,72.427c-3.301-3.301-3.301-8.654,0-11.955l54.208-54.21
				C63.772,2.961,69.126,2.961,72.428,6.262L72.428,6.262z"/>
		</g>
		<g>
			<path id="SVGID_2_" fill="#D1D1D1" d="M71.428,5.262l54.309,54.311c3.302,3.301,3.302,8.655,0,11.956l-54.207,54.207
				c-3.301,3.303-8.654,3.303-11.955,0L5.263,71.427c-3.301-3.301-3.301-8.654,0-11.955l54.208-54.21
				C62.772,1.961,68.126,1.961,71.428,5.262L71.428,5.262z"/>
		</g>
		<g>
			<defs>
				<path id="SVGID_7_" d="M72.428,6.262l54.309,54.311c3.302,3.301,3.302,8.655,0,11.956l-54.207,54.207
					c-3.301,3.303-8.654,3.303-11.955,0L6.263,72.427c-3.301-3.301-3.301-8.654,0-11.955l54.208-54.21
					C63.772,2.961,69.126,2.961,72.428,6.262L72.428,6.262z"/>
			</defs>
			<clipPath id="SVGID_9_">
				<use xlink:href="#SVGID_7_"  overflow="visible"/>
			</clipPath>
		</g>
	</g>
	<g>
		<g>
			<path id="SVGID_6_" d="M123.159,71.271l-51.888,51.888c-3.162,3.161-8.285,3.161-11.443,0L7.842,71.173
				c-3.161-3.159-3.161-8.284,0-11.443L59.729,7.842c3.161-3.159,8.285-3.159,11.445,0l51.985,51.985
				C126.318,62.988,126.318,68.111,123.159,71.271L123.159,71.271z M122.533,62.849L68.205,8.522c-1.463-1.465-3.838-1.465-5.301,0
				L8.576,62.849c-1.463,1.463-1.463,3.838,0,5.301l54.329,54.326c1.463,1.463,3.838,1.463,5.301,0l54.327-54.326
				C123.998,66.688,123.998,64.312,122.533,62.849L122.533,62.849z"/>
		</g>
	</g>
	<g>
		<g>
			<path id="SVGID_8_" d="M47.228,77.854V65.427H33.413v12.427h-3.518V51.488h3.518v10.828h13.814V51.488h3.516v26.366H47.228
				L47.228,77.854z M57.2,77.854V51.475h3.519v26.378H57.2L57.2,77.854z M66.777,77.854V51.475h3.52v23.266h13.096v3.112H66.777
				L66.777,77.854z M87.438,77.854V51.475h3.519v23.266h13.097v3.112H87.438L87.438,77.854z"/>
		</g>
		<g>
			<path id="SVGID_3_" fill="none" stroke="#000000" stroke-width="0.5" stroke-miterlimit="10" d="M47.228,77.854V65.427H33.413
				v12.427h-3.518V51.488h3.518v10.828h13.814V51.488h3.516v26.366H47.228L47.228,77.854z M57.2,77.854V51.475h3.519v26.378H57.2
				L57.2,77.854z M66.777,77.854V51.475h3.52v23.266h13.096v3.112H66.777L66.777,77.854z M87.438,77.854V51.475h3.519v23.266h13.097
				v3.112H87.438L87.438,77.854z"/>
		</g>
	</g>
</g>
<g id="normal">
	<g>
		<g>
			
				<linearGradient id="SVGID_12_" gradientUnits="userSpaceOnUse" x1="126.9521" y1="-148.335" x2="252.3779" y2="-148.335" gradientTransform="matrix(1 0 0 -1 -123.165 -81.835)">
				<stop  offset="0" style="stop-color:#000000;stop-opacity:0.6"/>
				<stop  offset="1" style="stop-color:#000000;stop-opacity:0.6"/>
			</linearGradient>
			<path id="SVGID_10_" fill="url(#SVGID_12_)" d="M72.428,6.262l54.309,54.311c3.302,3.301,3.302,8.655,0,11.956l-54.207,54.207
				c-3.301,3.303-8.654,3.303-11.955,0L6.263,72.427c-3.301-3.301-3.301-8.654,0-11.955l54.208-54.21
				C63.772,2.961,69.126,2.961,72.428,6.262L72.428,6.262z"/>
		</g>
		<g>
			<path id="SVGID_11_" fill="#FFDF0A" d="M71.428,5.262l54.309,54.311c3.302,3.301,3.302,8.655,0,11.956l-54.207,54.207
				c-3.301,3.303-8.654,3.303-11.955,0L5.263,71.427c-3.301-3.301-3.301-8.654,0-11.955l54.208-54.21
				C62.772,1.961,68.126,1.961,71.428,5.262L71.428,5.262z"/>
		</g>
		<g>
			<defs>
				<path id="SVGID_13_" d="M72.428,6.262l54.309,54.311c3.302,3.301,3.302,8.655,0,11.956l-54.207,54.207
					c-3.301,3.303-8.654,3.303-11.955,0L6.263,72.427c-3.301-3.301-3.301-8.654,0-11.955l54.208-54.21
					C63.772,2.961,69.126,2.961,72.428,6.262L72.428,6.262z"/>
			</defs>
			<clipPath id="SVGID_14_">
				<use xlink:href="#SVGID_13_"  overflow="visible"/>
			</clipPath>
		</g>
	</g>
	<g>
		<g>
			<path id="SVGID_15_" d="M123.159,71.271l-51.888,51.888c-3.162,3.161-8.285,3.161-11.443,0L7.842,71.173
				c-3.161-3.159-3.161-8.284,0-11.443L59.729,7.842c3.161-3.159,8.285-3.159,11.445,0l51.985,51.985
				C126.318,62.988,126.318,68.111,123.159,71.271L123.159,71.271z M122.533,62.849L68.205,8.522c-1.463-1.465-3.838-1.465-5.301,0
				L8.576,62.849c-1.463,1.463-1.463,3.838,0,5.301l54.329,54.326c1.463,1.463,3.838,1.463,5.301,0l54.327-54.326
				C123.998,66.688,123.998,64.312,122.533,62.849L122.533,62.849z"/>
		</g>
	</g>
	<g>
		<g>
			<path id="SVGID_17_" d="M47.228,77.854V65.427H33.413v12.427h-3.518V51.488h3.518v10.828h13.814V51.488h3.516v26.366H47.228
				L47.228,77.854z M57.2,77.854V51.475h3.519v26.378H57.2L57.2,77.854z M66.777,77.854V51.475h3.52v23.266h13.096v3.112H66.777
				L66.777,77.854z M87.438,77.854V51.475h3.519v23.266h13.097v3.112H87.438L87.438,77.854z"/>
		</g>
		<g>
			<path id="SVGID_4_" fill="none" stroke="#000000" stroke-width="0.5" stroke-miterlimit="10" d="M47.228,77.854V65.427H33.413
				v12.427h-3.518V51.488h3.518v10.828h13.814V51.488h3.516v26.366H47.228L47.228,77.854z M57.2,77.854V51.475h3.519v26.378H57.2
				L57.2,77.854z M66.777,77.854V51.475h3.52v23.266h13.096v3.112H66.777L66.777,77.854z M87.438,77.854V51.475h3.519v23.266h13.097
				v3.112H87.438L87.438,77.854z"/>
		</g>
	</g>
</g>
</svg>
