<?xml version="1.0" encoding="utf-8"?>
<!-- Generator: Adobe Illustrator 16.0.0, SVG Export Plug-In . SVG Version: 6.00 Build 0)  -->
<!DOCTYPE svg PUBLIC "-//W3C//DTD SVG 1.1//EN" "http://www.w3.org/Graphics/SVG/1.1/DTD/svg11.dtd">
<svg version="1.1" id="Layer_1" xmlns="http://www.w3.org/2000/svg" xmlns:xlink="http://www.w3.org/1999/xlink" x="0px" y="0px"
	 width="132px" height="132px" viewBox="0 0 132 132" enable-background="new 0 0 132 132" xml:space="preserve">
<g id="disabled">
	<g>
		<g>
			
				<linearGradient id="SVGID_3_" gradientUnits="userSpaceOnUse" x1="126.0254" y1="-148.3354" x2="253.3057" y2="-148.3354" gradientTransform="matrix(1 0 0 -1 -123.165 -81.835)">
				<stop  offset="0" style="stop-color:#000000;stop-opacity:0.6"/>
				<stop  offset="1" style="stop-color:#000000;stop-opacity:0.6"/>
			</linearGradient>
			<path id="SVGID_1_" fill="url(#SVGID_3_)" d="M7.859,3h117.28c2.676,0,5.002,2.326,5.002,5.001v116.001
				c0,2.673-2.326,5.999-5.002,5.999H7.859c-2.675,0-4.999-2.326-4.999-5.001V8.001C2.86,5.326,5.184,3,7.859,3L7.859,3z"/>
		</g>
		<g>
			<path id="SVGID_2_" fill="#FFFFFF" d="M6.859,2h117.28c2.676,0,5.002,2.326,5.002,5.001v116.001c0,2.673-2.326,5.999-5.002,5.999
				H6.859c-2.675,0-4.999-2.326-4.999-5.001V7.001C1.86,4.326,4.184,2,6.859,2L6.859,2z"/>
		</g>
		<g>
			<defs>
				<path id="SVGID_4_" d="M7.859,3h117.28c2.676,0,5.002,2.326,5.002,5.001v116.001c0,2.673-2.326,5.999-5.002,5.999H7.859
					c-2.675,0-4.999-2.326-4.999-5.001V8.001C2.86,5.326,5.184,3,7.859,3L7.859,3z"/>
			</defs>
			<clipPath id="SVGID_5_">
				<use xlink:href="#SVGID_4_"  overflow="visible"/>
			</clipPath>
		</g>
	</g>
	<g>
		<g>
			<path id="SVGID_6_" d="M9.886,5.268H121.33c2.542,0,4.752,2.21,4.752,4.752v110.228c0,2.541-2.21,5.702-4.752,5.702H9.886
				c-2.541,0-4.75-2.21-4.75-4.752V10.02C5.136,7.478,7.346,5.268,9.886,5.268L9.886,5.268z"/>
		</g>
	</g>
	<g>
		<g>
			<path id="SVGID_8_" fill="#FFFFFF" d="M9.886,122.95c-0.883,0-1.751-0.869-1.751-1.752V10.02c0-0.883,0.867-1.752,1.751-1.752
				H121.33c0.883,0,1.752,0.869,1.752,1.752v110.228c0,1.23-1.258,2.702-1.752,2.702H9.886"/>
		</g>
	</g>
	<g>
		<g>
			<path id="SVGID_10_" fill="#575757" d="M65.851,12.062c-29.674,0-53.726,24.054-53.726,53.726s24.053,53.726,53.726,53.726
				c29.672,0,53.726-24.054,53.726-53.726C119.578,36.116,95.523,12.062,65.851,12.062L65.851,12.062z"/>
		</g>
	</g>
	<g>
		<g>
			<path id="SVGID_12_" fill="#FFFFFF" d="M65.848,24.524c-22.791,0-41.269,18.477-41.269,41.269
				c0,22.791,18.477,41.268,41.269,41.268c22.792,0,41.267-18.477,41.267-41.268S88.639,24.524,65.848,24.524L65.848,24.524z"/>
		</g>
	</g>
	<g>
		<g>
			<path id="SVGID_14_" d="M86.047,95h-12V62.001c0,0-0.732-1-2-1c-1.27,0-18.001,0-18.001,0s3.825,7.478,3.825,8.604
				s-1.41,2.396-2.962,2.396c-1.551,0-26.369-16.541-26.369-16.541s23.018-14.895,25.351-16.169c1.551-0.845,2.68-0.139,2.82,0.848
				c0.141,0.986-2.665,8.86-2.665,8.86s21.628,0,26.001,0c4.371,0,5.719,3.167,6,4.999C86.328,55.834,86.047,95,86.047,95L86.047,95
				z"/>
		</g>
	</g>
	<g>
		<g>
			<polygon id="SVGID_16_" fill="#575757" points="94.677,33.477 88.455,28.512 34.136,96.52 40.359,101.484 			"/>
		</g>
	</g>
	
		<linearGradient id="SVGID_7_" gradientUnits="userSpaceOnUse" x1="238.165" y1="-218.0273" x2="139.0428" y2="-76.4661" gradientTransform="matrix(1 0 0 -1 -123.165 -81.835)">
		<stop  offset="0" style="stop-color:#000000;stop-opacity:0"/>
		<stop  offset="1" style="stop-color:#FFFFFF;stop-opacity:0.25"/>
	</linearGradient>
	<path fill="url(#SVGID_7_)" d="M6.859,2h117.28c2.676,0,5.002,2.326,5.002,5.001v116.001c0,2.673-2.326,5.999-5.002,5.999H6.859
		c-2.675,0-4.999-2.326-4.999-5.001V7.001C1.86,4.326,4.184,2,6.859,2L6.859,2z"/>
</g>
<g id="normal">
	<g>
		<g>
			
				<linearGradient id="SVGID_9_" gradientUnits="userSpaceOnUse" x1="126.0254" y1="-148.3354" x2="253.3057" y2="-148.3354" gradientTransform="matrix(1 0 0 -1 -123.165 -81.835)">
				<stop  offset="0" style="stop-color:#000000;stop-opacity:0.6"/>
				<stop  offset="1" style="stop-color:#000000;stop-opacity:0.6"/>
			</linearGradient>
			<path id="SVGID_19_" fill="url(#SVGID_9_)" d="M7.859,3h117.28c2.676,0,5.002,2.326,5.002,5.001v116.001
				c0,2.673-2.326,5.999-5.002,5.999H7.859c-2.675,0-4.999-2.326-4.999-5.001V8.001C2.86,5.326,5.184,3,7.859,3L7.859,3z"/>
		</g>
		<g>
			<path id="SVGID_20_" fill="#FFFFFF" d="M6.859,2h117.28c2.676,0,5.002,2.326,5.002,5.001v116.001
				c0,2.673-2.326,5.999-5.002,5.999H6.859c-2.675,0-4.999-2.326-4.999-5.001V7.001C1.86,4.326,4.184,2,6.859,2L6.859,2z"/>
		</g>
		<g>
			<defs>
				<path id="SVGID_11_" d="M7.859,3h117.28c2.676,0,5.002,2.326,5.002,5.001v116.001c0,2.673-2.326,5.999-5.002,5.999H7.859
					c-2.675,0-4.999-2.326-4.999-5.001V8.001C2.86,5.326,5.184,3,7.859,3L7.859,3z"/>
			</defs>
			<clipPath id="SVGID_13_">
				<use xlink:href="#SVGID_11_"  overflow="visible"/>
			</clipPath>
		</g>
	</g>
	<g>
		<g>
			<path id="SVGID_24_" d="M9.886,5.268H121.33c2.542,0,4.752,2.21,4.752,4.752v110.228c0,2.541-2.21,5.702-4.752,5.702H9.886
				c-2.541,0-4.75-2.21-4.75-4.752V10.02C5.136,7.478,7.346,5.268,9.886,5.268L9.886,5.268z"/>
		</g>
	</g>
	<g>
		<g>
			<path id="SVGID_26_" fill="#FFFFFF" d="M9.886,122.95c-0.883,0-1.751-0.869-1.751-1.752V10.02c0-0.883,0.867-1.752,1.751-1.752
				H121.33c0.883,0,1.752,0.869,1.752,1.752v110.228c0,1.23-1.258,2.702-1.752,2.702H9.886"/>
		</g>
	</g>
	<g>
		<g>
			<path id="SVGID_28_" fill="#DA1E22" d="M65.851,12.062c-29.674,0-53.726,24.054-53.726,53.726s24.053,53.726,53.726,53.726
				c29.672,0,53.726-24.054,53.726-53.726C119.578,36.116,95.523,12.062,65.851,12.062L65.851,12.062z"/>
		</g>
	</g>
	<g>
		<g>
			<path id="SVGID_30_" fill="#FFFFFF" d="M65.848,24.524c-22.791,0-41.269,18.477-41.269,41.269
				c0,22.791,18.477,41.268,41.269,41.268c22.792,0,41.267-18.477,41.267-41.268S88.639,24.524,65.848,24.524L65.848,24.524z"/>
		</g>
	</g>
	<g>
		<g>
			<path id="SVGID_32_" d="M86.047,95h-12V62.001c0,0-0.732-1-2-1c-1.27,0-18.001,0-18.001,0s3.825,7.478,3.825,8.604
				s-1.41,2.396-2.962,2.396c-1.551,0-26.369-16.541-26.369-16.541s23.018-14.895,25.351-16.169c1.551-0.845,2.68-0.139,2.82,0.848
				c0.141,0.986-2.665,8.86-2.665,8.86s21.628,0,26.001,0c4.371,0,5.719,3.167,6,4.999C86.328,55.834,86.047,95,86.047,95L86.047,95
				z"/>
		</g>
	</g>
	<g>
		<g>
			<polygon id="SVGID_34_" fill="#DA1E22" points="94.677,33.477 88.455,28.512 34.136,96.52 40.359,101.484 			"/>
		</g>
	</g>
	
		<linearGradient id="SVGID_15_" gradientUnits="userSpaceOnUse" x1="238.165" y1="-218.0273" x2="139.0428" y2="-76.4661" gradientTransform="matrix(1 0 0 -1 -123.165 -81.835)">
		<stop  offset="0" style="stop-color:#000000;stop-opacity:0"/>
		<stop  offset="1" style="stop-color:#FFFFFF;stop-opacity:0.25"/>
	</linearGradient>
	<path fill="url(#SVGID_15_)" d="M6.859,2h117.28c2.676,0,5.002,2.326,5.002,5.001v116.001c0,2.673-2.326,5.999-5.002,5.999H6.859
		c-2.675,0-4.999-2.326-4.999-5.001V7.001C1.86,4.326,4.184,2,6.859,2L6.859,2z"/>
</g>
</svg>
