<?xml version="1.0" encoding="utf-8"?>
<!-- Generator: Adobe Illustrator 16.0.0, SVG Export Plug-In . SVG Version: 6.00 Build 0)  -->
<!DOCTYPE svg PUBLIC "-//W3C//DTD SVG 1.1//EN" "http://www.w3.org/Graphics/SVG/1.1/DTD/svg11.dtd">
<svg version="1.1" id="Layer_1" xmlns="http://www.w3.org/2000/svg" xmlns:xlink="http://www.w3.org/1999/xlink" x="0px" y="0px"
	 width="132px" height="132px" viewBox="0 0 132 132" enable-background="new 0 0 132 132" xml:space="preserve">
<g id="disabled">
	<g>
		<g>
			
				<linearGradient id="SVGID_9_" gradientUnits="userSpaceOnUse" x1="249.0391" y1="727.3799" x2="376.6211" y2="727.3799" gradientTransform="matrix(1 0 0 1 -246.3301 -660.6699)">
				<stop  offset="0" style="stop-color:#000000;stop-opacity:0.6"/>
				<stop  offset="1" style="stop-color:#000000;stop-opacity:0.6"/>
			</linearGradient>
			<path id="SVGID_1_" fill="url(#SVGID_9_)" d="M66.499,2.919c35.231,0,63.792,28.561,63.792,63.792
				c0,35.23-28.561,63.79-63.792,63.79c-35.23,0-63.79-28.562-63.79-63.79C2.709,31.479,31.27,2.919,66.499,2.919L66.499,2.919z"/>
		</g>
		<g>
			<path id="SVGID_2_" fill="#D1D1D1" d="M65.499,1.499c35.231,0,63.792,28.561,63.792,63.792c0,35.23-28.561,63.79-63.792,63.79
				c-35.23,0-63.79-28.562-63.79-63.79C1.709,30.06,30.27,1.499,65.499,1.499L65.499,1.499z"/>
		</g>
	</g>
	<g>
		<g>
			<path id="SVGID_6_" d="M65.499,125.938c-33.493,0-60.646-27.151-60.646-60.646c0-33.493,27.152-60.646,60.646-60.646
				c33.495,0,60.647,27.152,60.647,60.646S98.994,125.938,65.499,125.938L65.499,125.938z M65.501,8.213
				c-31.525,0-57.079,25.555-57.079,57.078c0,31.523,25.555,57.078,57.079,57.078c31.522,0,57.078-25.555,57.078-57.078
				C122.579,33.768,97.023,8.213,65.501,8.213L65.501,8.213z"/>
		</g>
	</g>
	<g>
		<g>
			<path id="SVGID_8_" d="M110.809,29.436L75.124,65.121l35.835,35.835c-2.673,3.401-5.711,6.498-9.066,9.224L65.979,74.266
				L29.645,110.6c-3.429-2.718-6.54-5.811-9.274-9.226L56.73,65.015L20.613,28.9c2.725-3.356,5.821-6.394,9.222-9.067l36.039,36.039
				l35.709-35.709C104.998,22.895,108.092,26.007,110.809,29.436L110.809,29.436z"/>
		</g>
	</g>
	<g>
		<g>
			<path id="SVGID_10_" d="M23.098,75.945v-9.979h0.89c1.008,0,1.744,0.09,2.208,0.27c0.465,0.179,0.904,0.51,1.32,0.995
				c0.415,0.483,1.187,1.655,2.313,3.517l3.172,5.201h5.248l-2.654-4.663c-1.047-1.859-1.88-3.153-2.497-3.883
				c-0.619-0.728-1.4-1.396-2.35-2.004c1.908-0.304,3.34-1.04,4.3-2.21c0.958-1.168,1.437-2.651,1.437-4.443
				c0-1.413-0.317-2.668-0.948-3.767c-0.633-1.098-1.475-1.862-2.528-2.292c-1.053-0.43-2.741-0.644-5.062-0.644H18.71v23.906h4.388
				V75.945z M23.098,56.085h3.424c1.78,0,2.848,0.027,3.203,0.082c0.711,0.129,1.261,0.443,1.652,0.937
				c0.391,0.496,0.586,1.145,0.586,1.949c0,0.717-0.149,1.315-0.446,1.793c-0.296,0.478-0.706,0.816-1.229,1.011
				c-0.525,0.195-1.838,0.294-3.944,0.294h-3.246V56.085L23.098,56.085z"/>
		</g>
		<g>
			<path id="SVGID_3_" fill="none" stroke="#000000" stroke-width="0.5" stroke-miterlimit="10" d="M23.098,75.945v-9.979h0.89
				c1.008,0,1.744,0.09,2.208,0.27c0.465,0.179,0.904,0.51,1.32,0.995c0.415,0.483,1.187,1.655,2.313,3.517l3.172,5.201h5.248
				l-2.654-4.663c-1.047-1.859-1.88-3.153-2.497-3.883c-0.619-0.728-1.4-1.396-2.35-2.004c1.908-0.304,3.34-1.04,4.3-2.21
				c0.958-1.168,1.437-2.651,1.437-4.443c0-1.413-0.317-2.668-0.948-3.767c-0.633-1.098-1.475-1.862-2.528-2.292
				c-1.053-0.43-2.741-0.644-5.062-0.644H18.71v23.906h4.388V75.945z M23.098,56.085h3.424c1.78,0,2.848,0.027,3.203,0.082
				c0.711,0.129,1.261,0.443,1.652,0.937c0.391,0.496,0.586,1.145,0.586,1.949c0,0.717-0.149,1.315-0.446,1.793
				c-0.296,0.478-0.706,0.816-1.229,1.011c-0.525,0.195-1.838,0.294-3.944,0.294h-3.246V56.085L23.098,56.085z"/>
		</g>
	</g>
	<g>
		<g>
			<path id="SVGID_12_" d="M99.475,75.945v-9.979h0.889c1.01,0,1.744,0.09,2.21,0.27c0.465,0.179,0.903,0.51,1.319,0.995
				c0.414,0.483,1.187,1.655,2.313,3.517l3.172,5.201h5.248l-2.653-4.663c-1.049-1.859-1.881-3.153-2.496-3.883
				c-0.619-0.728-1.402-1.396-2.352-2.004c1.908-0.304,3.34-1.04,4.298-2.21c0.959-1.168,1.438-2.651,1.438-4.443
				c0-1.413-0.316-2.668-0.949-3.767c-0.633-1.098-1.477-1.862-2.528-2.292c-1.051-0.43-2.737-0.644-5.063-0.644h-9.233v23.906h4.39
				v-0.003H99.475z M99.475,56.085h3.424c1.777,0,2.847,0.027,3.201,0.082c0.711,0.129,1.262,0.443,1.653,0.937
				c0.392,0.496,0.585,1.145,0.585,1.949c0,0.717-0.146,1.315-0.443,1.793s-0.707,0.816-1.23,1.011
				c-0.521,0.195-1.838,0.294-3.941,0.294h-3.246v-6.066H99.475z"/>
		</g>
		<g>
			<path id="SVGID_4_" fill="none" stroke="#000000" stroke-width="0.5" stroke-miterlimit="10" d="M99.475,75.945v-9.979h0.889
				c1.01,0,1.744,0.09,2.21,0.27c0.465,0.179,0.903,0.51,1.319,0.995c0.414,0.483,1.187,1.655,2.313,3.517l3.172,5.201h5.248
				l-2.653-4.663c-1.049-1.859-1.881-3.153-2.496-3.883c-0.619-0.728-1.402-1.396-2.352-2.004c1.908-0.304,3.34-1.04,4.298-2.21
				c0.959-1.168,1.438-2.651,1.438-4.443c0-1.413-0.316-2.668-0.949-3.767c-0.633-1.098-1.477-1.862-2.528-2.292
				c-1.051-0.43-2.737-0.644-5.063-0.644h-9.233v23.906h4.39v-0.003H99.475z M99.475,56.085h3.424c1.777,0,2.847,0.027,3.201,0.082
				c0.711,0.129,1.262,0.443,1.653,0.937c0.392,0.496,0.585,1.145,0.585,1.949c0,0.717-0.146,1.315-0.443,1.793
				s-0.707,0.816-1.23,1.011c-0.521,0.195-1.838,0.294-3.941,0.294h-3.246v-6.066H99.475z"/>
		</g>
	</g>
	
		<linearGradient id="SVGID_11_" gradientUnits="userSpaceOnUse" x1="348.4219" y1="778.2197" x2="275.2377" y2="673.7018" gradientTransform="matrix(1 0 0 1 -246.3301 -660.6699)">
		<stop  offset="0" style="stop-color:#000000;stop-opacity:0"/>
		<stop  offset="1" style="stop-color:#FFFFFF;stop-opacity:0.25"/>
	</linearGradient>
	<path fill="url(#SVGID_11_)" d="M65.499,1.499c35.231,0,63.792,28.561,63.792,63.792c0,35.23-28.561,63.79-63.792,63.79
		c-35.23,0-63.79-28.562-63.79-63.79C1.709,30.06,30.27,1.499,65.499,1.499L65.499,1.499z"/>
</g>
<g id="normal">
	<g>
		<g>
			
				<linearGradient id="SVGID_13_" gradientUnits="userSpaceOnUse" x1="249.0391" y1="727.3799" x2="376.6211" y2="727.3799" gradientTransform="matrix(1 0 0 1 -246.3301 -660.6699)">
				<stop  offset="0" style="stop-color:#000000;stop-opacity:0.6"/>
				<stop  offset="1" style="stop-color:#000000;stop-opacity:0.6"/>
			</linearGradient>
			<path id="SVGID_15_" fill="url(#SVGID_13_)" d="M66.499,2.919c35.231,0,63.792,28.561,63.792,63.792
				c0,35.23-28.561,63.79-63.792,63.79c-35.23,0-63.79-28.562-63.79-63.79C2.709,31.479,31.27,2.919,66.499,2.919L66.499,2.919z"/>
		</g>
		<g>
			<path id="SVGID_16_" fill="#FFDF0A" d="M65.499,1.499c35.231,0,63.792,28.561,63.792,63.792c0,35.23-28.561,63.79-63.792,63.79
				c-35.23,0-63.79-28.562-63.79-63.79C1.709,30.06,30.27,1.499,65.499,1.499L65.499,1.499z"/>
		</g>
	</g>
	<g>
		<g>
			<path id="SVGID_20_" d="M65.499,125.938c-33.493,0-60.646-27.151-60.646-60.646c0-33.493,27.152-60.646,60.646-60.646
				c33.495,0,60.647,27.152,60.647,60.646S98.994,125.938,65.499,125.938L65.499,125.938z M65.501,8.213
				c-31.525,0-57.079,25.555-57.079,57.078c0,31.523,25.555,57.078,57.079,57.078c31.522,0,57.078-25.555,57.078-57.078
				C122.579,33.768,97.023,8.213,65.501,8.213L65.501,8.213z"/>
		</g>
	</g>
	<g>
		<g>
			<path id="SVGID_22_" d="M110.809,29.436L75.124,65.121l35.835,35.835c-2.673,3.401-5.711,6.498-9.066,9.224L65.979,74.266
				L29.645,110.6c-3.429-2.718-6.54-5.811-9.274-9.226L56.73,65.015L20.613,28.9c2.725-3.356,5.821-6.394,9.222-9.067l36.039,36.039
				l35.709-35.709C104.998,22.895,108.092,26.007,110.809,29.436L110.809,29.436z"/>
		</g>
	</g>
	<g>
		<g>
			<path id="SVGID_24_" d="M23.098,75.945v-9.979h0.89c1.008,0,1.744,0.09,2.208,0.27c0.465,0.179,0.904,0.51,1.32,0.995
				c0.415,0.483,1.187,1.655,2.313,3.517l3.172,5.201h5.248l-2.654-4.663c-1.047-1.859-1.88-3.153-2.497-3.883
				c-0.619-0.728-1.4-1.396-2.35-2.004c1.908-0.304,3.34-1.04,4.3-2.21c0.958-1.168,1.437-2.651,1.437-4.443
				c0-1.413-0.317-2.668-0.948-3.767c-0.633-1.098-1.475-1.862-2.528-2.292c-1.053-0.43-2.741-0.644-5.062-0.644H18.71v23.906h4.388
				V75.945z M23.098,56.085h3.424c1.78,0,2.848,0.027,3.203,0.082c0.711,0.129,1.261,0.443,1.652,0.937
				c0.391,0.496,0.586,1.145,0.586,1.949c0,0.717-0.149,1.315-0.446,1.793c-0.296,0.478-0.706,0.816-1.229,1.011
				c-0.525,0.195-1.838,0.294-3.944,0.294h-3.246V56.085L23.098,56.085z"/>
		</g>
		<g>
			<path id="SVGID_5_" fill="none" stroke="#000000" stroke-width="0.5" stroke-miterlimit="10" d="M23.098,75.945v-9.979h0.89
				c1.008,0,1.744,0.09,2.208,0.27c0.465,0.179,0.904,0.51,1.32,0.995c0.415,0.483,1.187,1.655,2.313,3.517l3.172,5.201h5.248
				l-2.654-4.663c-1.047-1.859-1.88-3.153-2.497-3.883c-0.619-0.728-1.4-1.396-2.35-2.004c1.908-0.304,3.34-1.04,4.3-2.21
				c0.958-1.168,1.437-2.651,1.437-4.443c0-1.413-0.317-2.668-0.948-3.767c-0.633-1.098-1.475-1.862-2.528-2.292
				c-1.053-0.43-2.741-0.644-5.062-0.644H18.71v23.906h4.388V75.945z M23.098,56.085h3.424c1.78,0,2.848,0.027,3.203,0.082
				c0.711,0.129,1.261,0.443,1.652,0.937c0.391,0.496,0.586,1.145,0.586,1.949c0,0.717-0.149,1.315-0.446,1.793
				c-0.296,0.478-0.706,0.816-1.229,1.011c-0.525,0.195-1.838,0.294-3.944,0.294h-3.246V56.085L23.098,56.085z"/>
		</g>
	</g>
	<g>
		<g>
			<path id="SVGID_26_" d="M99.475,75.945v-9.979h0.889c1.01,0,1.744,0.09,2.21,0.27c0.465,0.179,0.903,0.51,1.319,0.995
				c0.414,0.483,1.187,1.655,2.313,3.517l3.172,5.201h5.248l-2.653-4.663c-1.049-1.859-1.881-3.153-2.496-3.883
				c-0.619-0.728-1.402-1.396-2.352-2.004c1.908-0.304,3.34-1.04,4.298-2.21c0.959-1.168,1.438-2.651,1.438-4.443
				c0-1.413-0.316-2.668-0.949-3.767c-0.633-1.098-1.477-1.862-2.528-2.292c-1.051-0.43-2.737-0.644-5.063-0.644h-9.233v23.906h4.39
				v-0.003H99.475z M99.475,56.085h3.424c1.777,0,2.847,0.027,3.201,0.082c0.711,0.129,1.262,0.443,1.653,0.937
				c0.392,0.496,0.585,1.145,0.585,1.949c0,0.717-0.146,1.315-0.443,1.793s-0.707,0.816-1.23,1.011
				c-0.521,0.195-1.838,0.294-3.941,0.294h-3.246v-6.066H99.475z"/>
		</g>
		<g>
			<path id="SVGID_7_" fill="none" stroke="#000000" stroke-width="0.5" stroke-miterlimit="10" d="M99.475,75.945v-9.979h0.889
				c1.01,0,1.744,0.09,2.21,0.27c0.465,0.179,0.903,0.51,1.319,0.995c0.414,0.483,1.187,1.655,2.313,3.517l3.172,5.201h5.248
				l-2.653-4.663c-1.049-1.859-1.881-3.153-2.496-3.883c-0.619-0.728-1.402-1.396-2.352-2.004c1.908-0.304,3.34-1.04,4.298-2.21
				c0.959-1.168,1.438-2.651,1.438-4.443c0-1.413-0.316-2.668-0.949-3.767c-0.633-1.098-1.477-1.862-2.528-2.292
				c-1.051-0.43-2.737-0.644-5.063-0.644h-9.233v23.906h4.39v-0.003H99.475z M99.475,56.085h3.424c1.777,0,2.847,0.027,3.201,0.082
				c0.711,0.129,1.262,0.443,1.653,0.937c0.392,0.496,0.585,1.145,0.585,1.949c0,0.717-0.146,1.315-0.443,1.793
				s-0.707,0.816-1.23,1.011c-0.521,0.195-1.838,0.294-3.941,0.294h-3.246v-6.066H99.475z"/>
		</g>
	</g>
	
		<linearGradient id="SVGID_14_" gradientUnits="userSpaceOnUse" x1="348.4219" y1="778.2197" x2="275.2377" y2="673.7018" gradientTransform="matrix(1 0 0 1 -246.3301 -660.6699)">
		<stop  offset="0" style="stop-color:#000000;stop-opacity:0"/>
		<stop  offset="1" style="stop-color:#FFFFFF;stop-opacity:0.25"/>
	</linearGradient>
	<path fill="url(#SVGID_14_)" d="M65.499,1.499c35.231,0,63.792,28.561,63.792,63.792c0,35.23-28.561,63.79-63.792,63.79
		c-35.23,0-63.79-28.562-63.79-63.79C1.709,30.06,30.27,1.499,65.499,1.499L65.499,1.499z"/>
</g>
</svg>
