<?xml version="1.0" encoding="utf-8"?>
<!-- Generator: Adobe Illustrator 16.0.0, SVG Export Plug-In . SVG Version: 6.00 Build 0)  -->
<!DOCTYPE svg PUBLIC "-//W3C//DTD SVG 1.1//EN" "http://www.w3.org/Graphics/SVG/1.1/DTD/svg11.dtd">
<svg version="1.1" id="Layer_1" xmlns="http://www.w3.org/2000/svg" xmlns:xlink="http://www.w3.org/1999/xlink" x="0px" y="0px"
	 width="132px" height="132px" viewBox="0 0 132 132" enable-background="new 0 0 132 132" xml:space="preserve">
<g id="disabled">
	<g>
		<g>
			
				<linearGradient id="SVGID_3_" gradientUnits="userSpaceOnUse" x1="126.9521" y1="-148.335" x2="252.3779" y2="-148.335" gradientTransform="matrix(1 0 0 -1 -123.165 -81.835)">
				<stop  offset="0" style="stop-color:#000000;stop-opacity:0.6"/>
				<stop  offset="1" style="stop-color:#000000;stop-opacity:0.6"/>
			</linearGradient>
			<path id="SVGID_1_" fill="url(#SVGID_3_)" d="M72.428,6.263l54.309,54.311c3.302,3.301,3.302,8.654,0,11.955l-54.207,54.209
				c-3.301,3.3-8.654,3.3-11.955,0L6.263,72.427c-3.301-3.301-3.301-8.656,0-11.955L60.471,6.263
				C63.772,2.961,69.126,2.961,72.428,6.263L72.428,6.263z"/>
		</g>
		<g>
			<path id="SVGID_2_" fill="#D1D1D1" d="M71.428,5.263l54.309,54.311c3.302,3.301,3.302,8.654,0,11.955l-54.207,54.209
				c-3.301,3.3-8.654,3.3-11.955,0L5.263,71.427c-3.301-3.301-3.301-8.656,0-11.955L59.471,5.263
				C62.772,1.961,68.126,1.961,71.428,5.263L71.428,5.263z"/>
		</g>
		<g>
			<defs>
				<path id="SVGID_4_" d="M72.428,6.263l54.309,54.311c3.302,3.301,3.302,8.654,0,11.955l-54.207,54.209
					c-3.301,3.3-8.654,3.3-11.955,0L6.263,72.427c-3.301-3.301-3.301-8.656,0-11.955L60.471,6.263
					C63.772,2.961,69.126,2.961,72.428,6.263L72.428,6.263z"/>
			</defs>
			<clipPath id="SVGID_5_">
				<use xlink:href="#SVGID_4_"  overflow="visible"/>
			</clipPath>
		</g>
	</g>
	<g>
		<g>
			<path id="SVGID_6_" d="M123.159,71.271l-51.888,51.888c-3.162,3.161-8.285,3.161-11.443,0L7.842,71.174
				c-3.161-3.158-3.161-8.284,0-11.443L59.729,7.842c3.161-3.161,8.285-3.161,11.445,0l51.985,51.985
				C126.318,62.988,126.318,68.111,123.159,71.271L123.159,71.271z M122.533,62.849L68.205,8.52c-1.463-1.463-3.838-1.463-5.301,0
				L8.576,62.849c-1.463,1.463-1.463,3.836,0,5.301l54.329,54.326c1.463,1.465,3.838,1.465,5.301,0l54.327-54.326
				C123.998,66.686,123.998,64.313,122.533,62.849L122.533,62.849z"/>
		</g>
	</g>
	<g>
		<g>
			<path id="SVGID_8_" d="M51.636,44.215c-0.304-0.302-0.759-0.454-1.366-0.454c-0.628,0-1.118,0.163-1.473,0.486
				c-0.228,0.208-0.342,0.486-0.342,0.833c0,0.318,0.107,0.59,0.321,0.816c0.271,0.288,0.932,0.586,1.982,0.898
				c1.05,0.312,1.825,0.635,2.327,0.967c0.504,0.333,0.896,0.788,1.181,1.365c0.284,0.577,0.426,1.291,0.426,2.14
				c0,0.769-0.17,1.491-0.509,2.163c-0.341,0.672-0.822,1.171-1.444,1.497c-0.622,0.328-1.397,0.491-2.324,0.491
				c-1.352,0-2.389-0.392-3.112-1.177c-0.724-0.785-1.156-1.928-1.297-3.432l2.098-0.257c0.128,0.887,0.383,1.538,0.769,1.953
				c0.388,0.415,0.908,0.622,1.563,0.622c0.695,0,1.219-0.184,1.572-0.554c0.352-0.37,0.528-0.801,0.528-1.297
				c0-0.317-0.074-0.588-0.223-0.811c-0.149-0.223-0.407-0.417-0.775-0.581c-0.254-0.11-0.829-0.305-1.728-0.586
				c-1.156-0.36-1.967-0.803-2.434-1.329c-0.656-0.738-0.984-1.639-0.984-2.702c0-0.685,0.155-1.324,0.464-1.92
				c0.309-0.596,0.753-1.048,1.332-1.36c0.581-0.312,1.282-0.468,2.103-0.468c1.341,0,2.35,0.37,3.028,1.11
				c0.677,0.74,1.034,1.725,1.068,2.959l-2.158,0.12C52.136,45.015,51.938,44.517,51.636,44.215L51.636,44.215z M65.025,53.572
				c-0.937,1.224-2.19,1.836-3.76,1.836c-1.588,0-2.852-0.609-3.789-1.828c-0.938-1.218-1.407-2.896-1.407-5.034
				c0-1.368,0.163-2.516,0.488-3.445c0.244-0.685,0.575-1.299,0.995-1.843c0.42-0.543,0.882-0.947,1.381-1.21
				c0.665-0.354,1.434-0.531,2.303-0.531c1.575,0,2.835,0.614,3.779,1.843c0.945,1.228,1.416,2.935,1.416,5.122
				C66.432,50.65,65.964,52.346,65.025,53.572L65.025,53.572z M63.397,44.971c-0.536-0.758-1.25-1.135-2.138-1.135
				c-0.89,0-1.605,0.383-2.15,1.15c-0.544,0.766-0.817,1.922-0.817,3.468c0,1.521,0.279,2.675,0.838,3.46s1.268,1.177,2.129,1.177
				c0.859,0,1.565-0.389,2.116-1.169c0.552-0.779,0.829-1.946,0.829-3.505C64.203,46.877,63.933,45.729,63.397,44.971L63.397,44.971
				z M70.287,44.018v3.18h4.461v2.273h-4.461v5.708h-2.156V41.746h7.323v2.272H70.287L70.287,44.018z M81.795,44.018v11.161h-2.158
				V44.018h-3.171v-2.272h8.491v2.272H81.795L81.795,44.018z M29.658,65.455c-0.304-0.302-0.759-0.454-1.366-0.454
				c-0.627,0-1.118,0.161-1.471,0.486c-0.228,0.207-0.342,0.485-0.342,0.833c0,0.319,0.107,0.59,0.32,0.816
				c0.273,0.287,0.934,0.587,1.983,0.898c1.048,0.312,1.825,0.633,2.327,0.966c0.504,0.334,0.896,0.788,1.181,1.366
				c0.284,0.577,0.426,1.29,0.426,2.138c0,0.77-0.17,1.491-0.51,2.163c-0.339,0.672-0.82,1.173-1.442,1.499
				s-1.397,0.488-2.324,0.488c-1.352,0-2.389-0.391-3.112-1.176c-0.724-0.783-1.156-1.929-1.297-3.432l2.098-0.257
				c0.126,0.885,0.383,1.536,0.769,1.951c0.386,0.417,0.908,0.623,1.563,0.623c0.695,0,1.218-0.185,1.57-0.554
				c0.354-0.371,0.53-0.802,0.53-1.297c0-0.318-0.074-0.589-0.223-0.812c-0.149-0.224-0.407-0.417-0.777-0.581
				c-0.252-0.11-0.827-0.305-1.727-0.586c-1.156-0.36-1.967-0.805-2.434-1.329c-0.656-0.74-0.984-1.64-0.984-2.704
				c0-0.683,0.153-1.323,0.462-1.919s0.754-1.05,1.334-1.362c0.581-0.31,1.282-0.467,2.103-0.467c1.341,0,2.35,0.37,3.028,1.11
				c0.677,0.738,1.034,1.725,1.068,2.959l-2.158,0.12C30.16,66.252,29.962,65.757,29.658,65.455L29.658,65.455z M40.922,76.418
				v-5.874h-4.227v5.874h-2.158V62.985h2.158v5.287h4.227v-5.287h2.156v13.433H40.922L40.922,76.418z M53.829,74.811
				c-0.938,1.226-2.192,1.838-3.762,1.838c-1.588,0-2.851-0.609-3.789-1.828c-0.937-1.219-1.407-2.898-1.407-5.036
				c0-1.368,0.163-2.517,0.489-3.445c0.242-0.683,0.573-1.297,0.995-1.841c0.42-0.544,0.88-0.946,1.381-1.21
				c0.665-0.354,1.433-0.531,2.302-0.531c1.575,0,2.835,0.614,3.779,1.841c0.945,1.229,1.416,2.936,1.416,5.123
				C55.234,71.889,54.766,73.585,53.829,74.811L53.829,74.811z M52.199,66.21c-0.536-0.758-1.25-1.137-2.138-1.137
				c-0.89,0-1.605,0.384-2.15,1.15c-0.544,0.767-0.816,1.923-0.816,3.468c0,1.521,0.278,2.674,0.837,3.459s1.268,1.177,2.129,1.177
				c0.859,0,1.565-0.39,2.117-1.168c0.551-0.779,0.827-1.946,0.827-3.505C53.005,68.116,52.737,66.968,52.199,66.21L52.199,66.21z
				 M65.248,73.459c-0.116,0.665-0.331,1.229-0.644,1.686c-0.313,0.459-0.733,0.823-1.258,1.095
				c-0.523,0.272-1.21,0.409-2.054,0.409c-1.021,0-1.794-0.149-2.321-0.444c-0.527-0.297-0.943-0.683-1.25-1.155
				c-0.305-0.473-0.507-0.971-0.604-1.488c-0.142-0.771-0.212-1.906-0.212-3.41v-7.166h2.156v7.276c0,1.153,0.027,1.903,0.081,2.243
				c0.092,0.551,0.312,0.992,0.659,1.324c0.347,0.332,0.822,0.499,1.425,0.499c0.612,0,1.074-0.157,1.386-0.472
				c0.31-0.313,0.497-0.701,0.56-1.158c0.063-0.459,0.095-1.219,0.095-2.282v-7.431h2.156v7.055
				C65.422,71.654,65.364,72.792,65.248,73.459L65.248,73.459z M67.755,76.418V63.095h2.158v11.062h5.364v2.263L67.755,76.418
				L67.755,76.418z M85.436,72.689c-0.268,0.977-0.648,1.769-1.145,2.373c-0.375,0.459-0.879,0.815-1.516,1.071
				c-0.476,0.189-1.112,0.284-1.91,0.284h-4.059V62.985h3.942c0.89,0,1.567,0.086,2.033,0.257c0.627,0.233,1.163,0.644,1.61,1.237
				c0.446,0.593,0.787,1.318,1.021,2.176s0.351,1.917,0.351,3.175C85.764,70.936,85.654,71.889,85.436,72.689L85.436,72.689z
				 M83.314,67.318c-0.146-0.557-0.35-0.988-0.612-1.3s-0.595-0.523-0.998-0.633c-0.3-0.086-0.892-0.128-1.771-0.128h-0.969v8.897
				h1.61c0.602,0,1.036-0.043,1.305-0.129c0.349-0.109,0.64-0.295,0.871-0.559c0.231-0.262,0.418-0.695,0.563-1.297
				c0.147-0.602,0.221-1.421,0.221-2.46C83.533,68.672,83.461,67.876,83.314,67.318L83.314,67.318z M95.718,74.154v2.264h-8.126
				V62.985h7.922v2.272H89.75v2.978h5.363v2.264H89.75v3.656H95.718L95.718,74.154z M103.473,70.489
				c0.467,0.342,0.851,0.719,1.154,1.127c0.305,0.409,0.712,1.137,1.229,2.18l1.305,2.621h-2.579l-1.56-2.923
				c-0.555-1.045-0.933-1.702-1.138-1.975c-0.204-0.272-0.42-0.459-0.647-0.559c-0.229-0.102-0.592-0.152-1.088-0.152h-0.436v5.608
				h-2.158V62.985h4.541c1.141,0,1.971,0.121,2.488,0.362c0.518,0.241,0.932,0.67,1.242,1.287c0.313,0.617,0.467,1.323,0.467,2.117
				c0,1.008-0.236,1.84-0.707,2.497C105.115,69.904,104.409,70.318,103.473,70.489L103.473,70.489z M103.782,65.829
				c-0.192-0.278-0.464-0.452-0.812-0.527c-0.177-0.031-0.701-0.045-1.576-0.045h-1.683v3.408h1.597c1.034,0,1.68-0.056,1.938-0.165
				c0.257-0.109,0.459-0.299,0.605-0.568c0.146-0.269,0.219-0.604,0.219-1.009C104.07,66.474,103.973,66.109,103.782,65.829
				L103.782,65.829z"/>
		</g>
	</g>
	
		<linearGradient id="SVGID_7_" gradientUnits="userSpaceOnUse" x1="219.0244" y1="-190.6948" x2="158.3037" y2="-103.9767" gradientTransform="matrix(1 0 0 -1 -123.165 -81.835)">
		<stop  offset="0" style="stop-color:#000000;stop-opacity:0"/>
		<stop  offset="1" style="stop-color:#FFFFFF;stop-opacity:0.25"/>
	</linearGradient>
	<path fill="url(#SVGID_7_)" d="M71.428,5.263l54.309,54.311c3.302,3.301,3.302,8.654,0,11.955l-54.207,54.209
		c-3.301,3.3-8.654,3.3-11.955,0L5.263,71.427c-3.301-3.301-3.301-8.656,0-11.955L59.471,5.263
		C62.772,1.961,68.126,1.961,71.428,5.263L71.428,5.263z"/>
</g>
<g id="normal">
	<g>
		<g>
			
				<linearGradient id="SVGID_9_" gradientUnits="userSpaceOnUse" x1="126.9521" y1="-148.335" x2="252.3779" y2="-148.335" gradientTransform="matrix(1 0 0 -1 -123.165 -81.835)">
				<stop  offset="0" style="stop-color:#000000;stop-opacity:0.6"/>
				<stop  offset="1" style="stop-color:#000000;stop-opacity:0.6"/>
			</linearGradient>
			<path id="SVGID_11_" fill="url(#SVGID_9_)" d="M72.428,6.263l54.309,54.311c3.302,3.301,3.302,8.654,0,11.955l-54.207,54.209
				c-3.301,3.3-8.654,3.3-11.955,0L6.263,72.427c-3.301-3.301-3.301-8.656,0-11.955L60.471,6.263
				C63.772,2.961,69.126,2.961,72.428,6.263L72.428,6.263z"/>
		</g>
		<g>
			<path id="SVGID_12_" fill="#FFDF0A" d="M71.428,5.263l54.309,54.311c3.302,3.301,3.302,8.654,0,11.955l-54.207,54.209
				c-3.301,3.3-8.654,3.3-11.955,0L5.263,71.427c-3.301-3.301-3.301-8.656,0-11.955L59.471,5.263
				C62.772,1.961,68.126,1.961,71.428,5.263L71.428,5.263z"/>
		</g>
		<g>
			<defs>
				<path id="SVGID_10_" d="M72.428,6.263l54.309,54.311c3.302,3.301,3.302,8.654,0,11.955l-54.207,54.209
					c-3.301,3.3-8.654,3.3-11.955,0L6.263,72.427c-3.301-3.301-3.301-8.656,0-11.955L60.471,6.263
					C63.772,2.961,69.126,2.961,72.428,6.263L72.428,6.263z"/>
			</defs>
			<clipPath id="SVGID_13_">
				<use xlink:href="#SVGID_10_"  overflow="visible"/>
			</clipPath>
		</g>
	</g>
	<g>
		<g>
			<path id="SVGID_16_" d="M123.159,71.271l-51.888,51.888c-3.162,3.161-8.285,3.161-11.443,0L7.842,71.174
				c-3.161-3.158-3.161-8.284,0-11.443L59.729,7.842c3.161-3.161,8.285-3.161,11.445,0l51.985,51.985
				C126.318,62.988,126.318,68.111,123.159,71.271L123.159,71.271z M122.533,62.849L68.205,8.52c-1.463-1.463-3.838-1.463-5.301,0
				L8.576,62.849c-1.463,1.463-1.463,3.836,0,5.301l54.329,54.326c1.463,1.465,3.838,1.465,5.301,0l54.327-54.326
				C123.998,66.686,123.998,64.313,122.533,62.849L122.533,62.849z"/>
		</g>
	</g>
	<g>
		<g>
			<path id="SVGID_18_" d="M51.636,44.215c-0.304-0.302-0.759-0.454-1.366-0.454c-0.628,0-1.118,0.163-1.473,0.486
				c-0.228,0.208-0.342,0.486-0.342,0.833c0,0.318,0.107,0.59,0.321,0.816c0.271,0.288,0.932,0.586,1.982,0.898
				c1.05,0.312,1.825,0.635,2.327,0.967c0.504,0.333,0.896,0.788,1.181,1.365c0.284,0.577,0.426,1.291,0.426,2.14
				c0,0.769-0.17,1.491-0.509,2.163c-0.341,0.672-0.822,1.171-1.444,1.497c-0.622,0.328-1.397,0.491-2.324,0.491
				c-1.352,0-2.389-0.392-3.112-1.177c-0.724-0.785-1.156-1.928-1.297-3.432l2.098-0.257c0.128,0.887,0.383,1.538,0.769,1.953
				c0.388,0.415,0.908,0.622,1.563,0.622c0.695,0,1.219-0.184,1.572-0.554c0.352-0.37,0.528-0.801,0.528-1.297
				c0-0.317-0.074-0.588-0.223-0.811c-0.149-0.223-0.407-0.417-0.775-0.581c-0.254-0.11-0.829-0.305-1.728-0.586
				c-1.156-0.36-1.967-0.803-2.434-1.329c-0.656-0.738-0.984-1.639-0.984-2.702c0-0.685,0.155-1.324,0.464-1.92
				c0.309-0.596,0.753-1.048,1.332-1.36c0.581-0.312,1.282-0.468,2.103-0.468c1.341,0,2.35,0.37,3.028,1.11
				c0.677,0.74,1.034,1.725,1.068,2.959l-2.158,0.12C52.136,45.015,51.938,44.517,51.636,44.215L51.636,44.215z M65.025,53.572
				c-0.937,1.224-2.19,1.836-3.76,1.836c-1.588,0-2.852-0.609-3.789-1.828c-0.938-1.218-1.407-2.896-1.407-5.034
				c0-1.368,0.163-2.516,0.488-3.445c0.244-0.685,0.575-1.299,0.995-1.843c0.42-0.543,0.882-0.947,1.381-1.21
				c0.665-0.354,1.434-0.531,2.303-0.531c1.575,0,2.835,0.614,3.779,1.843c0.945,1.228,1.416,2.935,1.416,5.122
				C66.432,50.65,65.964,52.346,65.025,53.572L65.025,53.572z M63.397,44.971c-0.536-0.758-1.25-1.135-2.138-1.135
				c-0.89,0-1.605,0.383-2.15,1.15c-0.544,0.766-0.817,1.922-0.817,3.468c0,1.521,0.279,2.675,0.838,3.46s1.268,1.177,2.129,1.177
				c0.859,0,1.565-0.389,2.116-1.169c0.552-0.779,0.829-1.946,0.829-3.505C64.203,46.877,63.933,45.729,63.397,44.971L63.397,44.971
				z M70.287,44.018v3.18h4.461v2.273h-4.461v5.708h-2.156V41.746h7.323v2.272H70.287L70.287,44.018z M81.795,44.018v11.161h-2.158
				V44.018h-3.171v-2.272h8.491v2.272H81.795L81.795,44.018z M29.658,65.455c-0.304-0.302-0.759-0.454-1.366-0.454
				c-0.627,0-1.118,0.161-1.471,0.486c-0.228,0.207-0.342,0.485-0.342,0.833c0,0.319,0.107,0.59,0.32,0.816
				c0.273,0.287,0.934,0.587,1.983,0.898c1.048,0.312,1.825,0.633,2.327,0.966c0.504,0.334,0.896,0.788,1.181,1.366
				c0.284,0.577,0.426,1.29,0.426,2.138c0,0.77-0.17,1.491-0.51,2.163c-0.339,0.672-0.82,1.173-1.442,1.499
				s-1.397,0.488-2.324,0.488c-1.352,0-2.389-0.391-3.112-1.176c-0.724-0.783-1.156-1.929-1.297-3.432l2.098-0.257
				c0.126,0.885,0.383,1.536,0.769,1.951c0.386,0.417,0.908,0.623,1.563,0.623c0.695,0,1.218-0.185,1.57-0.554
				c0.354-0.371,0.53-0.802,0.53-1.297c0-0.318-0.074-0.589-0.223-0.812c-0.149-0.224-0.407-0.417-0.777-0.581
				c-0.252-0.11-0.827-0.305-1.727-0.586c-1.156-0.36-1.967-0.805-2.434-1.329c-0.656-0.74-0.984-1.64-0.984-2.704
				c0-0.683,0.153-1.323,0.462-1.919s0.754-1.05,1.334-1.362c0.581-0.31,1.282-0.467,2.103-0.467c1.341,0,2.35,0.37,3.028,1.11
				c0.677,0.738,1.034,1.725,1.068,2.959l-2.158,0.12C30.16,66.252,29.962,65.757,29.658,65.455L29.658,65.455z M40.922,76.418
				v-5.874h-4.227v5.874h-2.158V62.985h2.158v5.287h4.227v-5.287h2.156v13.433H40.922L40.922,76.418z M53.829,74.811
				c-0.938,1.226-2.192,1.838-3.762,1.838c-1.588,0-2.851-0.609-3.789-1.828c-0.937-1.219-1.407-2.898-1.407-5.036
				c0-1.368,0.163-2.517,0.489-3.445c0.242-0.683,0.573-1.297,0.995-1.841c0.42-0.544,0.88-0.946,1.381-1.21
				c0.665-0.354,1.433-0.531,2.302-0.531c1.575,0,2.835,0.614,3.779,1.841c0.945,1.229,1.416,2.936,1.416,5.123
				C55.234,71.889,54.766,73.585,53.829,74.811L53.829,74.811z M52.199,66.21c-0.536-0.758-1.25-1.137-2.138-1.137
				c-0.89,0-1.605,0.384-2.15,1.15c-0.544,0.767-0.816,1.923-0.816,3.468c0,1.521,0.278,2.674,0.837,3.459s1.268,1.177,2.129,1.177
				c0.859,0,1.565-0.39,2.117-1.168c0.551-0.779,0.827-1.946,0.827-3.505C53.005,68.116,52.737,66.968,52.199,66.21L52.199,66.21z
				 M65.248,73.459c-0.116,0.665-0.331,1.229-0.644,1.686c-0.313,0.459-0.733,0.823-1.258,1.095
				c-0.523,0.272-1.21,0.409-2.054,0.409c-1.021,0-1.794-0.149-2.321-0.444c-0.527-0.297-0.943-0.683-1.25-1.155
				c-0.305-0.473-0.507-0.971-0.604-1.488c-0.142-0.771-0.212-1.906-0.212-3.41v-7.166h2.156v7.276c0,1.153,0.027,1.903,0.081,2.243
				c0.092,0.551,0.312,0.992,0.659,1.324c0.347,0.332,0.822,0.499,1.425,0.499c0.612,0,1.074-0.157,1.386-0.472
				c0.31-0.313,0.497-0.701,0.56-1.158c0.063-0.459,0.095-1.219,0.095-2.282v-7.431h2.156v7.055
				C65.422,71.654,65.364,72.792,65.248,73.459L65.248,73.459z M67.755,76.418V63.095h2.158v11.062h5.364v2.263L67.755,76.418
				L67.755,76.418z M85.436,72.689c-0.268,0.977-0.648,1.769-1.145,2.373c-0.375,0.459-0.879,0.815-1.516,1.071
				c-0.476,0.189-1.112,0.284-1.91,0.284h-4.059V62.985h3.942c0.89,0,1.567,0.086,2.033,0.257c0.627,0.233,1.163,0.644,1.61,1.237
				c0.446,0.593,0.787,1.318,1.021,2.176s0.351,1.917,0.351,3.175C85.764,70.936,85.654,71.889,85.436,72.689L85.436,72.689z
				 M83.314,67.318c-0.146-0.557-0.35-0.988-0.612-1.3s-0.595-0.523-0.998-0.633c-0.3-0.086-0.892-0.128-1.771-0.128h-0.969v8.897
				h1.61c0.602,0,1.036-0.043,1.305-0.129c0.349-0.109,0.64-0.295,0.871-0.559c0.231-0.262,0.418-0.695,0.563-1.297
				c0.147-0.602,0.221-1.421,0.221-2.46C83.533,68.672,83.461,67.876,83.314,67.318L83.314,67.318z M95.718,74.154v2.264h-8.126
				V62.985h7.922v2.272H89.75v2.978h5.363v2.264H89.75v3.656H95.718L95.718,74.154z M103.473,70.489
				c0.467,0.342,0.851,0.719,1.154,1.127c0.305,0.409,0.712,1.137,1.229,2.18l1.305,2.621h-2.579l-1.56-2.923
				c-0.555-1.045-0.933-1.702-1.138-1.975c-0.204-0.272-0.42-0.459-0.647-0.559c-0.229-0.102-0.592-0.152-1.088-0.152h-0.436v5.608
				h-2.158V62.985h4.541c1.141,0,1.971,0.121,2.488,0.362c0.518,0.241,0.932,0.67,1.242,1.287c0.313,0.617,0.467,1.323,0.467,2.117
				c0,1.008-0.236,1.84-0.707,2.497C105.115,69.904,104.409,70.318,103.473,70.489L103.473,70.489z M103.782,65.829
				c-0.192-0.278-0.464-0.452-0.812-0.527c-0.177-0.031-0.701-0.045-1.576-0.045h-1.683v3.408h1.597c1.034,0,1.68-0.056,1.938-0.165
				c0.257-0.109,0.459-0.299,0.605-0.568c0.146-0.269,0.219-0.604,0.219-1.009C104.07,66.474,103.973,66.109,103.782,65.829
				L103.782,65.829z"/>
		</g>
	</g>
	
		<linearGradient id="SVGID_14_" gradientUnits="userSpaceOnUse" x1="219.0244" y1="-190.6948" x2="158.3037" y2="-103.9767" gradientTransform="matrix(1 0 0 -1 -123.165 -81.835)">
		<stop  offset="0" style="stop-color:#000000;stop-opacity:0"/>
		<stop  offset="1" style="stop-color:#FFFFFF;stop-opacity:0.25"/>
	</linearGradient>
	<path fill="url(#SVGID_14_)" d="M71.428,5.263l54.309,54.311c3.302,3.301,3.302,8.654,0,11.955l-54.207,54.209
		c-3.301,3.3-8.654,3.3-11.955,0L5.263,71.427c-3.301-3.301-3.301-8.656,0-11.955L59.471,5.263
		C62.772,1.961,68.126,1.961,71.428,5.263L71.428,5.263z"/>
</g>
</svg>
