<?xml version="1.0" encoding="utf-8"?>
<!-- Generator: Adobe Illustrator 16.0.0, SVG Export Plug-In . SVG Version: 6.00 Build 0)  -->
<!DOCTYPE svg PUBLIC "-//W3C//DTD SVG 1.1//EN" "http://www.w3.org/Graphics/SVG/1.1/DTD/svg11.dtd">
<svg version="1.1" id="Layer_1" xmlns="http://www.w3.org/2000/svg" xmlns:xlink="http://www.w3.org/1999/xlink" x="0px" y="0px"
	 width="132px" height="132px" viewBox="0 0 132 132" enable-background="new 0 0 132 132" xml:space="preserve">
<g id="disabled">
	<g>
		<g>
			
				<linearGradient id="SVGID_3_" gradientUnits="userSpaceOnUse" x1="139.165" y1="-148.335" x2="240.165" y2="-148.335" gradientTransform="matrix(1 0 0 -1 -123.165 -81.835)">
				<stop  offset="0" style="stop-color:#000000;stop-opacity:0.6"/>
				<stop  offset="1" style="stop-color:#000000;stop-opacity:0.6"/>
			</linearGradient>
			<path id="SVGID_1_" fill="url(#SVGID_3_)" d="M22,3h90c2.674,0,5,2.325,5,4.999v117c0,2.676-2.326,5.001-5.001,5.001H22
				c-2.675,0-6-3.326-6-5.999V7.999C16,5.325,19.325,3,22,3L22,3z"/>
		</g>
		<g>
			<path id="SVGID_2_" fill="#FFFFFF" d="M21,2h90c2.674,0,5,2.325,5,4.999v117c0,2.676-2.326,5.001-5.001,5.001H21
				c-2.675,0-6-3.326-6-5.999V6.999C15,4.325,18.325,2,21,2L21,2z"/>
		</g>
		<g>
			<defs>
				<path id="SVGID_4_" d="M22,3h90c2.674,0,5,2.325,5,4.999v117c0,2.676-2.326,5.001-5.001,5.001H22c-2.675,0-6-3.326-6-5.999
					V7.999C16,5.325,19.325,3,22,3L22,3z"/>
			</defs>
			<clipPath id="SVGID_5_">
				<use xlink:href="#SVGID_4_"  overflow="visible"/>
			</clipPath>
		</g>
	</g>
	<g>
		<g>
			<path id="SVGID_6_" fill="#424242" d="M23.581,5.683h84.778c2.521,0,4.711,2.189,4.711,4.71v110.212
				c0,2.521-2.19,4.711-4.711,4.711H23.581c-2.52,0-5.651-3.133-5.651-5.651V10.393C17.93,7.872,21.062,5.683,23.581,5.683
				L23.581,5.683z"/>
		</g>
	</g>
	<g>
		<g>
			<path id="SVGID_8_" fill="#FFFFFF" d="M23.581,122.316c-0.203,0-0.9-0.254-1.649-1.002c-0.749-0.75-1.003-1.446-1.003-1.649
				V10.393c0-0.115,0.186-0.51,0.735-0.942c0.675-0.53,1.45-0.769,1.917-0.769h84.778c0.863,0,1.711,0.848,1.711,1.71v110.213
				c0,0.862-0.848,1.709-1.711,1.709H23.581"/>
		</g>
	</g>
	<g>
		<g>
			<path id="SVGID_10_" d="M52.528,117.807l-0.937-3.91h-4.288l-0.887,3.91h-2.298l4.18-17.209h2.29l4.298,17.209H52.528
				L52.528,117.807z M49.417,104.611l-1.449,6.386h2.928L49.417,104.611L49.417,104.611z M62.585,110.211
				c0.468,0.438,0.856,0.919,1.161,1.443c0.304,0.523,0.715,1.455,1.232,2.794l1.311,3.358h-2.592l-1.567-3.744
				c-0.556-1.34-0.937-2.183-1.142-2.531c-0.205-0.348-0.422-0.586-0.651-0.717c-0.229-0.129-0.593-0.193-1.09-0.193h-0.439v7.184
				H56.64v-17.207h4.561c1.147,0,1.98,0.152,2.499,0.463c0.52,0.31,0.937,0.858,1.249,1.649c0.313,0.79,0.468,1.694,0.468,2.712
				c0,1.291-0.236,2.357-0.709,3.198C64.236,109.462,63.527,109.992,62.585,110.211L62.585,110.211z M62.897,104.242
				c-0.192-0.355-0.465-0.581-0.816-0.676c-0.176-0.039-0.704-0.058-1.581-0.058h-1.691v4.367h1.602c1.04,0,1.689-0.071,1.948-0.212
				c0.258-0.143,0.46-0.385,0.607-0.729s0.22-0.774,0.22-1.291C63.186,105.064,63.089,104.598,62.897,104.242L62.897,104.242z
				 M76.223,114.906v2.898h-8.162v-17.207h7.957v2.909h-5.789v3.815h5.387v2.898h-5.387v4.684h5.994V114.906z M85.979,117.807
				l-0.937-3.91h-4.29l-0.885,3.91h-2.299l4.181-17.209h2.29l4.298,17.209H85.979L85.979,117.807z M82.869,104.611l-1.449,6.386
				h2.928L82.869,104.611L82.869,104.611z"/>
		</g>
	</g>
	<g>
		<g>
			<path id="SVGID_12_" d="M39.122,86.557c-0.239,0.719-0.543,1.285-0.911,1.695c-0.368,0.412-0.743,0.684-1.124,0.816
				c-0.517,0.164-1.266,0.246-2.247,0.246h-1.413v6.492h-2.166V78.598h3.477c1.316,0,2.176,0.086,2.576,0.258
				c0.615,0.258,1.129,0.819,1.544,1.685c0.415,0.866,0.622,1.981,0.622,3.351C39.481,84.947,39.361,85.835,39.122,86.557
				L39.122,86.557z M36.905,82.389c-0.229-0.406-0.52-0.66-0.871-0.762c-0.258-0.079-0.779-0.118-1.56-0.118h-1.047v4.884h1.187
				c0.853,0,1.425-0.09,1.712-0.271c0.288-0.179,0.514-0.462,0.677-0.845s0.246-0.83,0.246-1.34
				C37.249,83.313,37.134,82.796,36.905,82.389L36.905,82.389z M48.067,95.807l-0.937-3.91h-4.29l-0.885,3.91h-2.298l4.18-17.209
				h2.29l4.298,17.209H48.067L48.067,95.807z M44.956,82.611l-1.449,6.386h2.928L44.956,82.611L44.956,82.611z M58.124,88.211
				c0.468,0.438,0.856,0.919,1.16,1.443c0.305,0.523,0.717,1.455,1.234,2.794l1.31,3.358h-2.591l-1.567-3.744
				c-0.556-1.34-0.937-2.183-1.142-2.531c-0.205-0.348-0.422-0.586-0.651-0.715s-0.593-0.194-1.092-0.194h-0.438v7.185h-2.168
				V78.598h4.561c1.147,0,1.98,0.153,2.499,0.465c0.52,0.309,0.937,0.857,1.249,1.648c0.312,0.79,0.468,1.693,0.468,2.712
				c0,1.29-0.237,2.356-0.711,3.198C59.773,87.462,59.066,87.992,58.124,88.211L58.124,88.211z M58.436,82.242
				c-0.194-0.355-0.465-0.581-0.817-0.676c-0.174-0.039-0.703-0.058-1.581-0.058h-1.689v4.366h1.602c1.04,0,1.688-0.068,1.948-0.21
				c0.258-0.142,0.46-0.384,0.607-0.728c0.145-0.345,0.22-0.775,0.22-1.291C58.725,83.064,58.628,82.6,58.436,82.242L58.436,82.242z
				 M73.305,95.807h-2.802l-2.951-8.076l-1.757,2.875v5.201h-2.166V78.598h2.166v7.642l4.379-7.642h2.914l-4.041,6.701
				L73.305,95.807L73.305,95.807z M74.959,95.807V78.598h2.168v17.209H74.959L74.959,95.807z M86.152,95.807l-4.327-11.223v11.223
				h-2.013V78.598h2.108l4.392,11.492V78.598h2.015v17.209H86.152L86.152,95.807z M96.21,89.479V86.58h4.669v6.855
				c-0.454,0.703-1.111,1.323-1.972,1.86c-0.862,0.536-1.735,0.804-2.618,0.804c-1.123,0-2.1-0.377-2.936-1.134
				c-0.834-0.754-1.461-1.835-1.881-3.239c-0.421-1.404-0.631-2.933-0.631-4.584c0-1.791,0.236-3.385,0.704-4.778
				c0.468-1.392,1.153-2.46,2.056-3.204c0.688-0.57,1.545-0.855,2.57-0.855c1.332,0,2.373,0.446,3.122,1.344
				c0.749,0.896,1.231,2.135,1.446,3.715l-2.151,0.646c-0.151-0.845-0.437-1.512-0.853-2.001c-0.418-0.488-0.938-0.732-1.563-0.732
				c-0.946,0-1.698,0.48-2.258,1.443c-0.56,0.961-0.838,2.391-0.838,4.283c0,2.043,0.282,3.574,0.85,4.596
				c0.565,1.021,1.308,1.532,2.224,1.532c0.455,0,0.91-0.142,1.367-0.428c0.455-0.286,0.846-0.634,1.174-1.04V89.48H96.21V89.479z"
				/>
		</g>
	</g>
	<g>
		<g>
			<path id="SVGID_14_" fill="#424242" d="M64.777,73.41C47.834,73.41,34.1,59.676,34.1,42.735s13.734-30.677,30.677-30.677
				c16.941,0,30.675,13.735,30.675,30.677C95.452,59.676,81.719,73.41,64.777,73.41L64.777,73.41z M64.777,16.851
				c-14.296,0-25.883,11.589-25.883,25.883s11.587,25.883,25.883,25.883c14.296,0,25.883-11.589,25.883-25.883
				S79.073,16.851,64.777,16.851L64.777,16.851z"/>
		</g>
	</g>
	<g>
		<g>
			<path id="SVGID_16_" d="M68.368,46.896c2.752,0,4.772-0.163,6.065-0.489c1.291-0.326,2.623-0.987,3.998-1.983
				c1.377-0.997,2.44-2.365,3.195-4.104c0.754-1.738,1.131-3.523,1.131-5.351c0-2.61-0.706-4.81-2.121-6.604
				c-1.412-1.793-3.02-2.81-4.82-3.51c-1.799-0.696-4.395-1.045-7.787-1.045H50.335v38.948h8.698V46.896H68.368L68.368,46.896z
				 M58.947,30.321h10.389c2.055,0,3.586,0.444,4.594,1.331c1.008,0.888,1.514,2.084,1.514,3.587c0,1.286-0.452,2.579-1.358,3.574
				c-0.903,0.997-2.478,1.646-4.722,1.646H58.947V30.321L58.947,30.321z"/>
		</g>
	</g>
	
		<linearGradient id="SVGID_7_" gradientUnits="userSpaceOnUse" x1="234.2305" y1="-211.8428" x2="143.836" y2="-82.746" gradientTransform="matrix(1 0 0 -1 -123.165 -81.835)">
		<stop  offset="0" style="stop-color:#000000;stop-opacity:0"/>
		<stop  offset="1" style="stop-color:#FFFFFF;stop-opacity:0.25"/>
	</linearGradient>
	<path fill="url(#SVGID_7_)" d="M21,2h90c2.674,0,5,2.325,5,4.999v117c0,2.676-2.326,5.001-5.001,5.001H21c-2.675,0-6-3.326-6-5.999
		V6.999C15,4.325,18.325,2,21,2L21,2z"/>
</g>
<g id="normal">
	<g>
		<g>
			
				<linearGradient id="SVGID_9_" gradientUnits="userSpaceOnUse" x1="139.165" y1="-148.335" x2="240.165" y2="-148.335" gradientTransform="matrix(1 0 0 -1 -123.165 -81.835)">
				<stop  offset="0" style="stop-color:#000000;stop-opacity:0.6"/>
				<stop  offset="1" style="stop-color:#000000;stop-opacity:0.6"/>
			</linearGradient>
			<path id="SVGID_19_" fill="url(#SVGID_9_)" d="M22,3h90c2.674,0,5,2.325,5,4.999v117c0,2.676-2.326,5.001-5.001,5.001H22
				c-2.675,0-6-3.326-6-5.999V7.999C16,5.325,19.325,3,22,3L22,3z"/>
		</g>
		<g>
			<path id="SVGID_20_" fill="#FFFFFF" d="M21,2h90c2.674,0,5,2.325,5,4.999v117c0,2.676-2.326,5.001-5.001,5.001H21
				c-2.675,0-6-3.326-6-5.999V6.999C15,4.325,18.325,2,21,2L21,2z"/>
		</g>
		<g>
			<defs>
				<path id="SVGID_11_" d="M22,3h90c2.674,0,5,2.325,5,4.999v117c0,2.676-2.326,5.001-5.001,5.001H22c-2.675,0-6-3.326-6-5.999
					V7.999C16,5.325,19.325,3,22,3L22,3z"/>
			</defs>
			<clipPath id="SVGID_13_">
				<use xlink:href="#SVGID_11_"  overflow="visible"/>
			</clipPath>
		</g>
	</g>
	<g>
		<g>
			<path id="SVGID_24_" fill="#155C2E" d="M23.581,5.683h84.778c2.521,0,4.711,2.189,4.711,4.71v110.212
				c0,2.521-2.19,4.711-4.711,4.711H23.581c-2.52,0-5.651-3.133-5.651-5.651V10.393C17.93,7.872,21.062,5.683,23.581,5.683
				L23.581,5.683z"/>
		</g>
	</g>
	<g>
		<g>
			<path id="SVGID_26_" fill="#FFFFFF" d="M23.581,122.316c-0.203,0-0.9-0.254-1.649-1.002c-0.749-0.75-1.003-1.446-1.003-1.649
				V10.393c0-0.115,0.186-0.51,0.735-0.942c0.675-0.53,1.45-0.769,1.917-0.769h84.778c0.863,0,1.711,0.848,1.711,1.71v110.213
				c0,0.862-0.848,1.709-1.711,1.709H23.581"/>
		</g>
	</g>
	<g>
		<g>
			<path id="SVGID_28_" d="M52.528,117.807l-0.937-3.91h-4.288l-0.887,3.91h-2.298l4.18-17.209h2.29l4.298,17.209H52.528
				L52.528,117.807z M49.417,104.611l-1.449,6.386h2.928L49.417,104.611L49.417,104.611z M62.585,110.211
				c0.468,0.438,0.856,0.919,1.161,1.443c0.304,0.523,0.715,1.455,1.232,2.794l1.311,3.358h-2.592l-1.567-3.744
				c-0.556-1.34-0.937-2.183-1.142-2.531c-0.205-0.348-0.422-0.586-0.651-0.717c-0.229-0.129-0.593-0.193-1.09-0.193h-0.439v7.184
				H56.64v-17.207h4.561c1.147,0,1.98,0.152,2.499,0.463c0.52,0.31,0.937,0.858,1.249,1.649c0.313,0.79,0.468,1.694,0.468,2.712
				c0,1.291-0.236,2.357-0.709,3.198C64.236,109.462,63.527,109.992,62.585,110.211L62.585,110.211z M62.897,104.242
				c-0.192-0.355-0.465-0.581-0.816-0.676c-0.176-0.039-0.704-0.058-1.581-0.058h-1.691v4.367h1.602c1.04,0,1.689-0.071,1.948-0.212
				c0.258-0.143,0.46-0.385,0.607-0.729s0.22-0.774,0.22-1.291C63.186,105.064,63.089,104.598,62.897,104.242L62.897,104.242z
				 M76.223,114.906v2.898h-8.162v-17.207h7.957v2.909h-5.789v3.815h5.387v2.898h-5.387v4.684h5.994V114.906z M85.979,117.807
				l-0.937-3.91h-4.29l-0.885,3.91h-2.299l4.181-17.209h2.29l4.298,17.209H85.979L85.979,117.807z M82.869,104.611l-1.449,6.386
				h2.928L82.869,104.611L82.869,104.611z"/>
		</g>
	</g>
	<g>
		<g>
			<path id="SVGID_30_" d="M39.122,86.557c-0.239,0.719-0.543,1.285-0.911,1.695c-0.368,0.412-0.743,0.684-1.124,0.816
				c-0.517,0.164-1.266,0.246-2.247,0.246h-1.413v6.492h-2.166V78.598h3.477c1.316,0,2.176,0.086,2.576,0.258
				c0.615,0.258,1.129,0.819,1.544,1.685c0.415,0.866,0.622,1.981,0.622,3.351C39.481,84.947,39.361,85.835,39.122,86.557
				L39.122,86.557z M36.905,82.389c-0.229-0.406-0.52-0.66-0.871-0.762c-0.258-0.079-0.779-0.118-1.56-0.118h-1.047v4.884h1.187
				c0.853,0,1.425-0.09,1.712-0.271c0.288-0.179,0.514-0.462,0.677-0.845s0.246-0.83,0.246-1.34
				C37.249,83.313,37.134,82.796,36.905,82.389L36.905,82.389z M48.067,95.807l-0.937-3.91h-4.29l-0.885,3.91h-2.298l4.18-17.209
				h2.29l4.298,17.209H48.067L48.067,95.807z M44.956,82.611l-1.449,6.386h2.928L44.956,82.611L44.956,82.611z M58.124,88.211
				c0.468,0.438,0.856,0.919,1.16,1.443c0.305,0.523,0.717,1.455,1.234,2.794l1.31,3.358h-2.591l-1.567-3.744
				c-0.556-1.34-0.937-2.183-1.142-2.531c-0.205-0.348-0.422-0.586-0.651-0.715s-0.593-0.194-1.092-0.194h-0.438v7.185h-2.168
				V78.598h4.561c1.147,0,1.98,0.153,2.499,0.465c0.52,0.309,0.937,0.857,1.249,1.648c0.312,0.79,0.468,1.693,0.468,2.712
				c0,1.29-0.237,2.356-0.711,3.198C59.773,87.462,59.066,87.992,58.124,88.211L58.124,88.211z M58.436,82.242
				c-0.194-0.355-0.465-0.581-0.817-0.676c-0.174-0.039-0.703-0.058-1.581-0.058h-1.689v4.366h1.602c1.04,0,1.688-0.068,1.948-0.21
				c0.258-0.142,0.46-0.384,0.607-0.728c0.145-0.345,0.22-0.775,0.22-1.291C58.725,83.064,58.628,82.6,58.436,82.242L58.436,82.242z
				 M73.305,95.807h-2.802l-2.951-8.076l-1.757,2.875v5.201h-2.166V78.598h2.166v7.642l4.379-7.642h2.914l-4.041,6.701
				L73.305,95.807L73.305,95.807z M74.959,95.807V78.598h2.168v17.209H74.959L74.959,95.807z M86.152,95.807l-4.327-11.223v11.223
				h-2.013V78.598h2.108l4.392,11.492V78.598h2.015v17.209H86.152L86.152,95.807z M96.21,89.479V86.58h4.669v6.855
				c-0.454,0.703-1.111,1.323-1.972,1.86c-0.862,0.536-1.735,0.804-2.618,0.804c-1.123,0-2.1-0.377-2.936-1.134
				c-0.834-0.754-1.461-1.835-1.881-3.239c-0.421-1.404-0.631-2.933-0.631-4.584c0-1.791,0.236-3.385,0.704-4.778
				c0.468-1.392,1.153-2.46,2.056-3.204c0.688-0.57,1.545-0.855,2.57-0.855c1.332,0,2.373,0.446,3.122,1.344
				c0.749,0.896,1.231,2.135,1.446,3.715l-2.151,0.646c-0.151-0.845-0.437-1.512-0.853-2.001c-0.418-0.488-0.938-0.732-1.563-0.732
				c-0.946,0-1.698,0.48-2.258,1.443c-0.56,0.961-0.838,2.391-0.838,4.283c0,2.043,0.282,3.574,0.85,4.596
				c0.565,1.021,1.308,1.532,2.224,1.532c0.455,0,0.91-0.142,1.367-0.428c0.455-0.286,0.846-0.634,1.174-1.04V89.48H96.21V89.479z"
				/>
		</g>
	</g>
	<g>
		<g>
			<path id="SVGID_32_" fill="#155C2E" d="M64.777,73.41C47.834,73.41,34.1,59.676,34.1,42.735s13.734-30.677,30.677-30.677
				c16.941,0,30.675,13.735,30.675,30.677C95.452,59.676,81.719,73.41,64.777,73.41L64.777,73.41z M64.777,16.851
				c-14.296,0-25.883,11.589-25.883,25.883s11.587,25.883,25.883,25.883c14.296,0,25.883-11.589,25.883-25.883
				S79.073,16.851,64.777,16.851L64.777,16.851z"/>
		</g>
	</g>
	<g>
		<g>
			<path id="SVGID_34_" d="M68.368,46.896c2.752,0,4.772-0.163,6.065-0.489c1.291-0.326,2.623-0.987,3.998-1.983
				c1.377-0.997,2.44-2.365,3.195-4.104c0.754-1.738,1.131-3.523,1.131-5.351c0-2.61-0.706-4.81-2.121-6.604
				c-1.412-1.793-3.02-2.81-4.82-3.51c-1.799-0.696-4.395-1.045-7.787-1.045H50.335v38.948h8.698V46.896H68.368L68.368,46.896z
				 M58.947,30.321h10.389c2.055,0,3.586,0.444,4.594,1.331c1.008,0.888,1.514,2.084,1.514,3.587c0,1.286-0.452,2.579-1.358,3.574
				c-0.903,0.997-2.478,1.646-4.722,1.646H58.947V30.321L58.947,30.321z"/>
		</g>
	</g>
	
		<linearGradient id="SVGID_15_" gradientUnits="userSpaceOnUse" x1="234.2305" y1="-211.8428" x2="143.836" y2="-82.746" gradientTransform="matrix(1 0 0 -1 -123.165 -81.835)">
		<stop  offset="0" style="stop-color:#000000;stop-opacity:0"/>
		<stop  offset="1" style="stop-color:#FFFFFF;stop-opacity:0.25"/>
	</linearGradient>
	<path fill="url(#SVGID_15_)" d="M21,2h90c2.674,0,5,2.325,5,4.999v117c0,2.676-2.326,5.001-5.001,5.001H21
		c-2.675,0-6-3.326-6-5.999V6.999C15,4.325,18.325,2,21,2L21,2z"/>
</g>
</svg>
