<?xml version="1.0" encoding="utf-8"?>
<!-- Generator: Adobe Illustrator 16.0.0, SVG Export Plug-In . SVG Version: 6.00 Build 0)  -->
<!DOCTYPE svg PUBLIC "-//W3C//DTD SVG 1.1//EN" "http://www.w3.org/Graphics/SVG/1.1/DTD/svg11.dtd">
<svg version="1.1" id="Layer_1" xmlns="http://www.w3.org/2000/svg" xmlns:xlink="http://www.w3.org/1999/xlink" x="0px" y="0px"
	 width="132px" height="132px" viewBox="0 0 132 132" enable-background="new 0 0 132 132" xml:space="preserve">
<g id="disabled">
	<g>
		<g>
			
				<linearGradient id="SVGID_5_" gradientUnits="userSpaceOnUse" x1="129.666" y1="-148.335" x2="249.665" y2="-148.335" gradientTransform="matrix(1 0 0 -1 -123.165 -81.835)">
				<stop  offset="0" style="stop-color:#000000;stop-opacity:0.6"/>
				<stop  offset="1" style="stop-color:#000000;stop-opacity:0.6"/>
			</linearGradient>
			<path id="SVGID_1_" fill="url(#SVGID_5_)" d="M12.501,35.5H120.5c3.072,0,6,2.93,6,6v50c0,3.072-2.928,6-6,6H12.501
				c-3.072,0-6-2.928-6-6v-50C6.5,38.429,9.429,35.5,12.501,35.5L12.501,35.5z"/>
		</g>
		<g>
			<path id="SVGID_2_" fill="#D1D1D1" d="M11.501,34.5H119.5c3.072,0,6,2.93,6,6v50c0,3.072-2.928,6-6,6H11.501
				c-3.072,0-6-2.928-6-6v-50C5.5,37.429,8.429,34.5,11.501,34.5L11.501,34.5z"/>
		</g>
		<g>
			<defs>
				<path id="SVGID_7_" d="M12.501,35.5H120.5c3.072,0,6,2.93,6,6v50c0,3.072-2.928,6-6,6H12.501c-3.072,0-6-2.928-6-6v-50
					C6.5,38.429,9.429,35.5,12.501,35.5L12.501,35.5z"/>
			</defs>
			<clipPath id="SVGID_9_">
				<use xlink:href="#SVGID_7_"  overflow="visible"/>
			</clipPath>
		</g>
	</g>
	<g>
		<g>
			<path id="SVGID_6_" d="M12.5,36.501h106c2.991,0,5.001,2.009,5.001,4.999v48c0,2.99-2.009,4.999-5.001,4.999h-106
				c-2.991,0-5-2.009-5-4.999v-48C7.5,38.51,9.509,36.501,12.5,36.501L12.5,36.501z"/>
		</g>
	</g>
	<g>
		<g>
			<path id="SVGID_8_" fill="#D1D1D1" d="M12.5,92.5c-1.878,0-3.001-1.121-3.001-2.999V41.5c0-1.878,1.123-2.999,3.001-2.999h106
				c1.878,0,3.001,1.121,3.001,2.999v48c0,1.878-1.123,2.999-3.001,2.999L12.5,92.5"/>
		</g>
	</g>
	<g>
		<g>
			<path id="SVGID_10_" d="M36.214,56.017v21.208h-3.208V56.017h-7.985v-2.838h19.212v2.838H36.214L36.214,56.017z M67.627,71.777
				c-0.992,1.925-2.397,3.382-4.216,4.371c-1.819,0.988-3.781,1.484-5.886,1.484c-2.282,0-4.322-0.548-6.118-1.641
				c-1.796-1.094-3.158-2.586-4.083-4.477c-0.925-1.892-1.389-3.894-1.389-6.005c0-3.991,1.081-7.115,3.24-9.373
				c2.161-2.258,4.949-3.387,8.366-3.387c2.237,0,4.254,0.531,6.05,1.591c1.798,1.061,3.167,2.539,4.109,4.437
				c0.942,1.896,1.413,4.048,1.413,6.454C69.115,67.672,68.619,69.854,67.627,71.777L67.627,71.777z M64.809,60.092
				c-0.667-1.46-1.643-2.591-2.927-3.395c-1.284-0.803-2.726-1.205-4.324-1.205c-2.271,0-4.224,0.774-5.861,2.321
				c-1.636,1.547-2.455,4.13-2.455,7.75c0,2.898,0.785,5.18,2.357,6.847c1.57,1.668,3.54,2.502,5.91,2.502
				c2.415,0,4.401-0.842,5.962-2.526c1.559-1.683,2.339-4.073,2.339-7.166C65.809,63.261,65.474,61.552,64.809,60.092L64.809,60.092
				z M73.115,77.225V53.179h3.208v21.207h11.938v2.839H73.115L73.115,77.225z M91.947,77.225V53.179h3.207v21.207h11.938v2.839
				H91.947L91.947,77.225z"/>
		</g>
		<g>
			<path id="SVGID_3_" fill="none" stroke="#000000" stroke-width="0.5" stroke-miterlimit="10" d="M36.214,56.017v21.208h-3.208
				V56.017h-7.985v-2.838h19.212v2.838H36.214L36.214,56.017z M67.627,71.777c-0.992,1.925-2.397,3.382-4.216,4.371
				c-1.819,0.988-3.781,1.484-5.886,1.484c-2.282,0-4.322-0.548-6.118-1.641c-1.796-1.094-3.158-2.586-4.083-4.477
				c-0.925-1.892-1.389-3.894-1.389-6.005c0-3.991,1.081-7.115,3.24-9.373c2.161-2.258,4.949-3.387,8.366-3.387
				c2.237,0,4.254,0.531,6.05,1.591c1.798,1.061,3.167,2.539,4.109,4.437c0.942,1.896,1.413,4.048,1.413,6.454
				C69.115,67.672,68.619,69.854,67.627,71.777L67.627,71.777z M64.809,60.092c-0.667-1.46-1.643-2.591-2.927-3.395
				c-1.284-0.803-2.726-1.205-4.324-1.205c-2.271,0-4.224,0.774-5.861,2.321c-1.636,1.547-2.455,4.13-2.455,7.75
				c0,2.898,0.785,5.18,2.357,6.847c1.57,1.668,3.54,2.502,5.91,2.502c2.415,0,4.401-0.842,5.962-2.526
				c1.559-1.683,2.339-4.073,2.339-7.166C65.809,63.261,65.474,61.552,64.809,60.092L64.809,60.092z M73.115,77.225V53.179h3.208
				v21.207h11.938v2.839H73.115L73.115,77.225z M91.947,77.225V53.179h3.207v21.207h11.938v2.839H91.947L91.947,77.225z"/>
		</g>
	</g>
	
		<linearGradient id="SVGID_11_" gradientUnits="userSpaceOnUse" x1="221.5527" y1="-194.3037" x2="155.7771" y2="-100.3663" gradientTransform="matrix(1 0 0 -1 -123.165 -81.835)">
		<stop  offset="0" style="stop-color:#000000;stop-opacity:0"/>
		<stop  offset="1" style="stop-color:#FFFFFF;stop-opacity:0.25"/>
	</linearGradient>
	<path fill="url(#SVGID_11_)" d="M11.501,34.5H119.5c3.072,0,6,2.93,6,6v50c0,3.072-2.928,6-6,6H11.501c-3.072,0-6-2.928-6-6v-50
		C5.5,37.429,8.429,34.5,11.501,34.5L11.501,34.5z"/>
</g>
<g id="normal">
	<g>
		<g>
			
				<linearGradient id="SVGID_12_" gradientUnits="userSpaceOnUse" x1="129.666" y1="-148.335" x2="249.665" y2="-148.335" gradientTransform="matrix(1 0 0 -1 -123.165 -81.835)">
				<stop  offset="0" style="stop-color:#000000;stop-opacity:0.6"/>
				<stop  offset="1" style="stop-color:#000000;stop-opacity:0.6"/>
			</linearGradient>
			<path id="SVGID_13_" fill="url(#SVGID_12_)" d="M12.501,35.5H120.5c3.072,0,6,2.93,6,6v50c0,3.072-2.928,6-6,6H12.501
				c-3.072,0-6-2.928-6-6v-50C6.5,38.429,9.429,35.5,12.501,35.5L12.501,35.5z"/>
		</g>
		<g>
			<path id="SVGID_14_" fill="#FFDF0A" d="M11.501,34.5H119.5c3.072,0,6,2.93,6,6v50c0,3.072-2.928,6-6,6H11.501
				c-3.072,0-6-2.928-6-6v-50C5.5,37.429,8.429,34.5,11.501,34.5L11.501,34.5z"/>
		</g>
		<g>
			<defs>
				<path id="SVGID_15_" d="M12.501,35.5H120.5c3.072,0,6,2.93,6,6v50c0,3.072-2.928,6-6,6H12.501c-3.072,0-6-2.928-6-6v-50
					C6.5,38.429,9.429,35.5,12.501,35.5L12.501,35.5z"/>
			</defs>
			<clipPath id="SVGID_16_">
				<use xlink:href="#SVGID_15_"  overflow="visible"/>
			</clipPath>
		</g>
	</g>
	<g>
		<g>
			<path id="SVGID_18_" d="M12.5,36.501h106c2.991,0,5.001,2.009,5.001,4.999v48c0,2.99-2.009,4.999-5.001,4.999h-106
				c-2.991,0-5-2.009-5-4.999v-48C7.5,38.51,9.509,36.501,12.5,36.501L12.5,36.501z"/>
		</g>
	</g>
	<g>
		<g>
			<path id="SVGID_20_" fill="#FFDF0A" d="M12.5,92.5c-1.878,0-3.001-1.121-3.001-2.999V41.5c0-1.878,1.123-2.999,3.001-2.999h106
				c1.878,0,3.001,1.121,3.001,2.999v48c0,1.878-1.123,2.999-3.001,2.999L12.5,92.5"/>
		</g>
	</g>
	<g>
		<g>
			<path id="SVGID_22_" d="M36.214,56.017v21.208h-3.208V56.017h-7.985v-2.838h19.212v2.838H36.214L36.214,56.017z M67.627,71.777
				c-0.992,1.925-2.397,3.382-4.216,4.371c-1.819,0.988-3.781,1.484-5.886,1.484c-2.282,0-4.322-0.548-6.118-1.641
				c-1.796-1.094-3.158-2.586-4.083-4.477c-0.925-1.892-1.389-3.894-1.389-6.005c0-3.991,1.081-7.115,3.24-9.373
				c2.161-2.258,4.949-3.387,8.366-3.387c2.237,0,4.254,0.531,6.05,1.591c1.798,1.061,3.167,2.539,4.109,4.437
				c0.942,1.896,1.413,4.048,1.413,6.454C69.115,67.672,68.619,69.854,67.627,71.777L67.627,71.777z M64.809,60.092
				c-0.667-1.46-1.643-2.591-2.927-3.395c-1.284-0.803-2.726-1.205-4.324-1.205c-2.271,0-4.224,0.774-5.861,2.321
				c-1.636,1.547-2.455,4.13-2.455,7.75c0,2.898,0.785,5.18,2.357,6.847c1.57,1.668,3.54,2.502,5.91,2.502
				c2.415,0,4.401-0.842,5.962-2.526c1.559-1.683,2.339-4.073,2.339-7.166C65.809,63.261,65.474,61.552,64.809,60.092L64.809,60.092
				z M73.115,77.225V53.179h3.208v21.207h11.938v2.839H73.115L73.115,77.225z M91.947,77.225V53.179h3.207v21.207h11.938v2.839
				H91.947L91.947,77.225z"/>
		</g>
		<g>
			<path id="SVGID_4_" fill="none" stroke="#000000" stroke-width="0.5" stroke-miterlimit="10" d="M36.214,56.017v21.208h-3.208
				V56.017h-7.985v-2.838h19.212v2.838H36.214L36.214,56.017z M67.627,71.777c-0.992,1.925-2.397,3.382-4.216,4.371
				c-1.819,0.988-3.781,1.484-5.886,1.484c-2.282,0-4.322-0.548-6.118-1.641c-1.796-1.094-3.158-2.586-4.083-4.477
				c-0.925-1.892-1.389-3.894-1.389-6.005c0-3.991,1.081-7.115,3.24-9.373c2.161-2.258,4.949-3.387,8.366-3.387
				c2.237,0,4.254,0.531,6.05,1.591c1.798,1.061,3.167,2.539,4.109,4.437c0.942,1.896,1.413,4.048,1.413,6.454
				C69.115,67.672,68.619,69.854,67.627,71.777L67.627,71.777z M64.809,60.092c-0.667-1.46-1.643-2.591-2.927-3.395
				c-1.284-0.803-2.726-1.205-4.324-1.205c-2.271,0-4.224,0.774-5.861,2.321c-1.636,1.547-2.455,4.13-2.455,7.75
				c0,2.898,0.785,5.18,2.357,6.847c1.57,1.668,3.54,2.502,5.91,2.502c2.415,0,4.401-0.842,5.962-2.526
				c1.559-1.683,2.339-4.073,2.339-7.166C65.809,63.261,65.474,61.552,64.809,60.092L64.809,60.092z M73.115,77.225V53.179h3.208
				v21.207h11.938v2.839H73.115L73.115,77.225z M91.947,77.225V53.179h3.207v21.207h11.938v2.839H91.947L91.947,77.225z"/>
		</g>
	</g>
	
		<linearGradient id="SVGID_17_" gradientUnits="userSpaceOnUse" x1="221.5527" y1="-194.3037" x2="155.7771" y2="-100.3663" gradientTransform="matrix(1 0 0 -1 -123.165 -81.835)">
		<stop  offset="0" style="stop-color:#000000;stop-opacity:0"/>
		<stop  offset="1" style="stop-color:#FFFFFF;stop-opacity:0.25"/>
	</linearGradient>
	<path fill="url(#SVGID_17_)" d="M11.501,34.5H119.5c3.072,0,6,2.93,6,6v50c0,3.072-2.928,6-6,6H11.501c-3.072,0-6-2.928-6-6v-50
		C5.5,37.429,8.429,34.5,11.501,34.5L11.501,34.5z"/>
</g>
</svg>
