<?xml version="1.0" encoding="utf-8"?>
<!-- Generator: Adobe Illustrator 16.0.0, SVG Export Plug-In . SVG Version: 6.00 Build 0)  -->
<!DOCTYPE svg PUBLIC "-//W3C//DTD SVG 1.1//EN" "http://www.w3.org/Graphics/SVG/1.1/DTD/svg11.dtd">
<svg version="1.1" id="Layer_1" xmlns="http://www.w3.org/2000/svg" xmlns:xlink="http://www.w3.org/1999/xlink" x="0px" y="0px"
	 width="132px" height="132px" viewBox="0 0 132 132" enable-background="new 0 0 132 132" xml:space="preserve">
<g id="disabled">
	<g>
		<g>
			
				<linearGradient id="SVGID_3_" gradientUnits="userSpaceOnUse" x1="126.9521" y1="-148.335" x2="252.3779" y2="-148.335" gradientTransform="matrix(1 0 0 -1 -123.165 -81.835)">
				<stop  offset="0" style="stop-color:#000000;stop-opacity:0.6"/>
				<stop  offset="1" style="stop-color:#000000;stop-opacity:0.6"/>
			</linearGradient>
			<path id="SVGID_1_" fill="url(#SVGID_3_)" d="M72.428,6.263l54.309,54.311c3.302,3.301,3.302,8.654,0,11.955l-54.207,54.207
				c-3.301,3.302-8.654,3.302-11.955,0L6.263,72.428c-3.301-3.301-3.301-8.654,0-11.955l54.208-54.21
				C63.772,2.962,69.126,2.962,72.428,6.263L72.428,6.263z"/>
		</g>
		<g>
			<path id="SVGID_2_" fill="#D1D1D1" d="M71.428,5.263l54.309,54.311c3.302,3.301,3.302,8.654,0,11.955l-54.207,54.207
				c-3.301,3.302-8.654,3.302-11.955,0L5.263,71.428c-3.301-3.301-3.301-8.654,0-11.955l54.208-54.21
				C62.772,1.962,68.126,1.962,71.428,5.263L71.428,5.263z"/>
		</g>
		<g>
			<defs>
				<path id="SVGID_4_" d="M72.428,6.263l54.309,54.311c3.302,3.301,3.302,8.654,0,11.955l-54.207,54.207
					c-3.301,3.302-8.654,3.302-11.955,0L6.263,72.428c-3.301-3.301-3.301-8.654,0-11.955l54.208-54.21
					C63.772,2.962,69.126,2.962,72.428,6.263L72.428,6.263z"/>
			</defs>
			<clipPath id="SVGID_5_">
				<use xlink:href="#SVGID_4_"  overflow="visible"/>
			</clipPath>
		</g>
	</g>
	<g>
		<g>
			<path id="SVGID_6_" d="M123.159,71.271l-51.888,51.888c-3.162,3.161-8.285,3.161-11.443,0L7.842,71.174
				c-3.161-3.158-3.161-8.284,0-11.443L59.729,7.842c3.161-3.161,8.285-3.161,11.445,0l51.985,51.985
				C126.318,62.988,126.318,68.111,123.159,71.271L123.159,71.271z M122.533,62.85L68.205,8.521c-1.463-1.463-3.838-1.463-5.301,0
				L8.576,62.85c-1.463,1.463-1.463,3.835,0,5.3l54.329,54.328c1.463,1.465,3.838,1.465,5.301,0l54.327-54.328
				C123.998,66.686,123.998,64.313,122.533,62.85L122.533,62.85z"/>
		</g>
	</g>
	<g>
		<g>
			<path id="SVGID_8_" d="M53.354,48.097v-6.239h-5.59v6.239h-2.852V33.825h2.852v5.617h5.59v-5.617h2.852v14.271L53.354,48.097
				L53.354,48.097z M57.786,48.097V33.825h2.852v14.271L57.786,48.097L57.786,48.097z M68.646,42.849v-2.403h6.148v5.684
				c-0.598,0.585-1.463,1.098-2.597,1.544c-1.136,0.444-2.284,0.667-3.447,0.667c-1.478,0-2.765-0.313-3.863-0.94
				c-1.098-0.627-1.925-1.521-2.478-2.688c-0.552-1.164-0.829-2.431-0.829-3.8c0-1.486,0.309-2.807,0.925-3.962
				c0.617-1.155,1.52-2.042,2.709-2.657c0.904-0.475,2.033-0.711,3.383-0.711c1.754,0,3.123,0.371,4.11,1.114
				c0.985,0.743,1.62,1.77,1.903,3.08l-2.834,0.536c-0.198-0.701-0.572-1.255-1.123-1.66c-0.549-0.405-1.235-0.607-2.057-0.607
				c-1.248,0-2.238,0.399-2.975,1.197c-0.735,0.798-1.103,1.982-1.103,3.553c0,1.693,0.373,2.964,1.118,3.81
				c0.746,0.848,1.721,1.271,2.93,1.271c0.598,0,1.197-0.12,1.798-0.355c0.601-0.237,1.116-0.525,1.546-0.863v-1.811L68.646,42.849
				L68.646,42.849z M84.594,48.097v-6.239h-5.59v6.239h-2.852V33.825h2.852v5.617h5.59v-5.617h2.852v14.271L84.594,48.097
				L84.594,48.097z M43.809,60.611c-0.53-0.428-1.174-0.643-1.933-0.643c-1.047,0-1.896,0.38-2.549,1.139
				c-0.652,0.761-0.977,1.99-0.977,3.691c0,1.804,0.32,3.088,0.963,3.854c0.643,0.766,1.478,1.147,2.507,1.147
				c0.757,0,1.41-0.241,1.956-0.729c0.546-0.486,0.938-1.252,1.176-2.297l2.765,0.887c-0.423,1.557-1.129,2.713-2.114,3.469
				c-0.987,0.756-2.239,1.135-3.754,1.135c-1.877,0-3.419-0.648-4.626-1.941c-1.208-1.295-1.812-3.066-1.812-5.312
				c0-2.374,0.607-4.219,1.82-5.534c1.215-1.315,2.812-1.972,4.791-1.972c1.728,0,3.132,0.517,4.211,1.549
				c0.643,0.609,1.124,1.486,1.446,2.628l-2.823,0.682C44.687,61.624,44.338,61.039,43.809,60.611L43.809,60.611z M56.321,65.721
				c0.617,0.363,1.126,0.762,1.528,1.197c0.401,0.436,0.943,1.208,1.623,2.318l1.725,2.785h-3.411l-2.063-3.106
				c-0.732-1.11-1.234-1.81-1.504-2.099c-0.27-0.289-0.556-0.485-0.858-0.592c-0.302-0.108-0.78-0.162-1.436-0.162h-0.578v5.958
				h-2.852V57.749h6.004c1.51,0,2.607,0.129,3.292,0.384c0.685,0.257,1.232,0.712,1.643,1.368c0.412,0.656,0.617,1.405,0.617,2.248
				c0,1.071-0.312,1.956-0.935,2.654C58.493,65.099,57.562,65.54,56.321,65.721L56.321,65.721z M56.731,60.771
				c-0.254-0.294-0.612-0.481-1.076-0.559c-0.231-0.032-0.924-0.048-2.08-0.048h-2.227v3.621h2.111c1.368,0,2.222-0.058,2.563-0.176
				c0.341-0.116,0.607-0.317,0.8-0.602c0.194-0.286,0.289-0.643,0.289-1.071C57.111,61.454,56.985,61.066,56.731,60.771
				L56.731,60.771z M72.327,70.313c-1.239,1.299-2.897,1.951-4.972,1.951c-2.101,0-3.771-0.648-5.011-1.941
				c-1.24-1.295-1.861-3.078-1.861-5.349c0-1.454,0.216-2.673,0.646-3.66c0.321-0.727,0.759-1.379,1.316-1.956
				c0.556-0.578,1.163-1.006,1.825-1.286c0.88-0.376,1.896-0.565,3.046-0.565c2.082,0,3.746,0.653,4.996,1.958
				c1.25,1.303,1.875,3.119,1.875,5.441C74.188,67.207,73.568,69.01,72.327,70.313L72.327,70.313z M70.174,61.176
				c-0.711-0.806-1.652-1.208-2.828-1.208s-2.124,0.407-2.844,1.223c-0.719,0.814-1.079,2.042-1.079,3.684
				c0,1.615,0.37,2.841,1.108,3.674c0.74,0.833,1.678,1.25,2.815,1.25s2.069-0.413,2.799-1.24c0.729-0.826,1.094-2.068,1.094-3.723
				C71.238,63.2,70.883,61.981,70.174,61.176L70.174,61.176z M81.458,60.372c-0.401-0.321-1.003-0.481-1.806-0.481
				c-0.829,0-1.479,0.173-1.948,0.515c-0.302,0.221-0.452,0.517-0.452,0.887c0,0.338,0.141,0.627,0.423,0.866
				c0.36,0.305,1.234,0.623,2.621,0.955c1.39,0.331,2.415,0.673,3.08,1.027s1.187,0.837,1.56,1.45
				c0.377,0.612,0.564,1.371,0.564,2.273c0,0.817-0.225,1.583-0.674,2.297c-0.451,0.714-1.085,1.245-1.909,1.593
				c-0.821,0.348-1.847,0.52-3.074,0.52c-1.786,0-3.157-0.416-4.114-1.25c-0.959-0.832-1.53-2.049-1.715-3.645l2.775-0.273
				c0.166,0.942,0.506,1.634,1.016,2.074c0.51,0.441,1.2,0.662,2.067,0.662c0.919,0,1.61-0.197,2.077-0.59
				c0.465-0.393,0.697-0.852,0.697-1.378c0-0.338-0.097-0.625-0.293-0.86c-0.195-0.238-0.539-0.443-1.026-0.62
				c-0.334-0.116-1.095-0.325-2.284-0.623c-1.529-0.383-2.602-0.853-3.219-1.412c-0.867-0.785-1.303-1.741-1.303-2.872
				c0-0.725,0.205-1.405,0.612-2.038c0.409-0.633,0.997-1.114,1.765-1.446c0.767-0.331,1.693-0.497,2.781-0.497
				c1.771,0,3.107,0.394,4.004,1.179c0.896,0.785,1.365,1.833,1.412,3.143l-2.853,0.128C82.122,61.221,81.859,60.693,81.458,60.372
				L81.458,60.372z M92.945,60.372c-0.401-0.321-1.004-0.481-1.807-0.481c-0.83,0-1.478,0.173-1.947,0.515
				c-0.303,0.221-0.453,0.517-0.453,0.887c0,0.338,0.142,0.627,0.424,0.866c0.359,0.305,1.234,0.623,2.621,0.955
				c1.389,0.331,2.415,0.673,3.08,1.027c0.664,0.354,1.186,0.837,1.56,1.45c0.376,0.612,0.563,1.371,0.563,2.273
				c0,0.817-0.225,1.583-0.674,2.297c-0.451,0.714-1.086,1.245-1.908,1.593s-1.846,0.52-3.074,0.52c-1.786,0-3.158-0.416-4.115-1.25
				c-0.958-0.832-1.529-2.049-1.715-3.645l2.775-0.273c0.168,0.942,0.507,1.634,1.018,2.074c0.512,0.441,1.2,0.662,2.066,0.662
				c0.92,0,1.611-0.197,2.078-0.59c0.465-0.393,0.697-0.852,0.697-1.378c0-0.338-0.097-0.625-0.294-0.86
				c-0.194-0.238-0.538-0.443-1.026-0.62c-0.334-0.116-1.094-0.325-2.283-0.623c-1.53-0.383-2.602-0.853-3.219-1.412
				c-0.867-0.785-1.303-1.741-1.303-2.872c0-0.725,0.204-1.405,0.612-2.038c0.409-0.633,0.997-1.114,1.765-1.446
				c0.766-0.332,1.693-0.497,2.779-0.497c1.773,0,3.109,0.394,4.006,1.179c0.896,0.785,1.366,1.833,1.412,3.143l-2.852,0.128
				C93.607,61.221,93.348,60.693,92.945,60.372L92.945,60.372z M57.006,95.941h-3.025l-2.814-10.668l-2.806,10.668h-3.093
				l-3.372-14.27h2.919l2.13,9.803l2.583-9.803h3.392l2.478,9.967l2.168-9.967h2.873L57.006,95.941L57.006,95.941z M60.524,95.941
				v-14.27h2.852v14.27H60.524L60.524,95.941z M73.186,95.941l-5.695-9.305v9.305h-2.65v-14.27h2.775l5.781,9.529v-9.529h2.65v14.27
				H73.186L73.186,95.941z M89.182,91.98c-0.354,1.039-0.858,1.879-1.514,2.521c-0.494,0.488-1.163,0.867-2.004,1.14
				c-0.63,0.201-1.471,0.301-2.525,0.301h-5.367v-14.27h5.215c1.176,0,2.07,0.09,2.688,0.273c0.829,0.246,1.539,0.685,2.131,1.313
				c0.59,0.631,1.039,1.4,1.348,2.313s0.465,2.035,0.465,3.373C89.616,90.118,89.471,91.131,89.182,91.98L89.182,91.98z
				 M86.377,86.277c-0.191-0.592-0.464-1.051-0.809-1.383c-0.348-0.332-0.789-0.557-1.321-0.672
				c-0.397-0.091-1.179-0.137-2.343-0.137h-1.28v9.452h2.129c0.798,0,1.373-0.045,1.726-0.138c0.463-0.115,0.846-0.314,1.151-0.592
				c0.306-0.279,0.556-0.738,0.748-1.379c0.192-0.64,0.289-1.51,0.289-2.613C86.667,87.714,86.57,86.867,86.377,86.277
				L86.377,86.277z"/>
		</g>
	</g>
	
		<linearGradient id="SVGID_7_" gradientUnits="userSpaceOnUse" x1="219.0254" y1="-190.6934" x2="158.3055" y2="-103.9764" gradientTransform="matrix(1 0 0 -1 -123.165 -81.835)">
		<stop  offset="0" style="stop-color:#000000;stop-opacity:0"/>
		<stop  offset="1" style="stop-color:#FFFFFF;stop-opacity:0.25"/>
	</linearGradient>
	<path fill="url(#SVGID_7_)" d="M71.428,5.263l54.309,54.311c3.302,3.301,3.302,8.654,0,11.955l-54.207,54.207
		c-3.301,3.302-8.654,3.302-11.955,0L5.263,71.428c-3.301-3.301-3.301-8.654,0-11.955l54.208-54.21
		C62.772,1.962,68.126,1.962,71.428,5.263L71.428,5.263z"/>
</g>
<g id="normal">
	<g>
		<g>
			
				<linearGradient id="SVGID_9_" gradientUnits="userSpaceOnUse" x1="126.9521" y1="-148.335" x2="252.3779" y2="-148.335" gradientTransform="matrix(1 0 0 -1 -123.165 -81.835)">
				<stop  offset="0" style="stop-color:#000000;stop-opacity:0.6"/>
				<stop  offset="1" style="stop-color:#000000;stop-opacity:0.6"/>
			</linearGradient>
			<path id="SVGID_11_" fill="url(#SVGID_9_)" d="M72.428,6.263l54.309,54.311c3.302,3.301,3.302,8.654,0,11.955l-54.207,54.207
				c-3.301,3.302-8.654,3.302-11.955,0L6.263,72.428c-3.301-3.301-3.301-8.654,0-11.955l54.208-54.21
				C63.772,2.962,69.126,2.962,72.428,6.263L72.428,6.263z"/>
		</g>
		<g>
			<path id="SVGID_12_" fill="#FFDF0A" d="M71.428,5.263l54.309,54.311c3.302,3.301,3.302,8.654,0,11.955l-54.207,54.207
				c-3.301,3.302-8.654,3.302-11.955,0L5.263,71.428c-3.301-3.301-3.301-8.654,0-11.955l54.208-54.21
				C62.772,1.962,68.126,1.962,71.428,5.263L71.428,5.263z"/>
		</g>
		<g>
			<defs>
				<path id="SVGID_10_" d="M72.428,6.263l54.309,54.311c3.302,3.301,3.302,8.654,0,11.955l-54.207,54.207
					c-3.301,3.302-8.654,3.302-11.955,0L6.263,72.428c-3.301-3.301-3.301-8.654,0-11.955l54.208-54.21
					C63.772,2.962,69.126,2.962,72.428,6.263L72.428,6.263z"/>
			</defs>
			<clipPath id="SVGID_13_">
				<use xlink:href="#SVGID_10_"  overflow="visible"/>
			</clipPath>
		</g>
	</g>
	<g>
		<g>
			<path id="SVGID_16_" d="M123.159,71.271l-51.888,51.888c-3.162,3.161-8.285,3.161-11.443,0L7.842,71.174
				c-3.161-3.158-3.161-8.284,0-11.443L59.729,7.842c3.161-3.161,8.285-3.161,11.445,0l51.985,51.985
				C126.318,62.988,126.318,68.111,123.159,71.271L123.159,71.271z M122.533,62.85L68.205,8.521c-1.463-1.463-3.838-1.463-5.301,0
				L8.576,62.85c-1.463,1.463-1.463,3.835,0,5.3l54.329,54.328c1.463,1.465,3.838,1.465,5.301,0l54.327-54.328
				C123.998,66.686,123.998,64.313,122.533,62.85L122.533,62.85z"/>
		</g>
	</g>
	<g>
		<g>
			<path id="SVGID_18_" d="M53.354,48.097v-6.239h-5.59v6.239h-2.852V33.825h2.852v5.617h5.59v-5.617h2.852v14.271L53.354,48.097
				L53.354,48.097z M57.786,48.097V33.825h2.852v14.271L57.786,48.097L57.786,48.097z M68.646,42.849v-2.403h6.148v5.684
				c-0.598,0.585-1.463,1.098-2.597,1.544c-1.136,0.444-2.284,0.667-3.447,0.667c-1.478,0-2.765-0.313-3.863-0.94
				c-1.098-0.627-1.925-1.521-2.478-2.688c-0.552-1.164-0.829-2.431-0.829-3.8c0-1.486,0.309-2.807,0.925-3.962
				c0.617-1.155,1.52-2.042,2.709-2.657c0.904-0.475,2.033-0.711,3.383-0.711c1.754,0,3.123,0.371,4.11,1.114
				c0.985,0.743,1.62,1.77,1.903,3.08l-2.834,0.536c-0.198-0.701-0.572-1.255-1.123-1.66c-0.549-0.405-1.235-0.607-2.057-0.607
				c-1.248,0-2.238,0.399-2.975,1.197c-0.735,0.798-1.103,1.982-1.103,3.553c0,1.693,0.373,2.964,1.118,3.81
				c0.746,0.848,1.721,1.271,2.93,1.271c0.598,0,1.197-0.12,1.798-0.355c0.601-0.237,1.116-0.525,1.546-0.863v-1.811L68.646,42.849
				L68.646,42.849z M84.594,48.097v-6.239h-5.59v6.239h-2.852V33.825h2.852v5.617h5.59v-5.617h2.852v14.271L84.594,48.097
				L84.594,48.097z M43.809,60.611c-0.53-0.428-1.174-0.643-1.933-0.643c-1.047,0-1.896,0.38-2.549,1.139
				c-0.652,0.761-0.977,1.99-0.977,3.691c0,1.804,0.32,3.088,0.963,3.854c0.643,0.766,1.478,1.147,2.507,1.147
				c0.757,0,1.41-0.241,1.956-0.729c0.546-0.486,0.938-1.252,1.176-2.297l2.765,0.887c-0.423,1.557-1.129,2.713-2.114,3.469
				c-0.987,0.756-2.239,1.135-3.754,1.135c-1.877,0-3.419-0.648-4.626-1.941c-1.208-1.295-1.812-3.066-1.812-5.312
				c0-2.374,0.607-4.219,1.82-5.534c1.215-1.315,2.812-1.972,4.791-1.972c1.728,0,3.132,0.517,4.211,1.549
				c0.643,0.609,1.124,1.486,1.446,2.628l-2.823,0.682C44.687,61.624,44.338,61.039,43.809,60.611L43.809,60.611z M56.321,65.721
				c0.617,0.363,1.126,0.762,1.528,1.197c0.401,0.436,0.943,1.208,1.623,2.318l1.725,2.785h-3.411l-2.063-3.106
				c-0.732-1.11-1.234-1.81-1.504-2.099c-0.27-0.289-0.556-0.485-0.858-0.592c-0.302-0.108-0.78-0.162-1.436-0.162h-0.578v5.958
				h-2.852V57.749h6.004c1.51,0,2.607,0.129,3.292,0.384c0.685,0.257,1.232,0.712,1.643,1.368c0.412,0.656,0.617,1.405,0.617,2.248
				c0,1.071-0.312,1.956-0.935,2.654C58.493,65.099,57.562,65.54,56.321,65.721L56.321,65.721z M56.731,60.771
				c-0.254-0.294-0.612-0.481-1.076-0.559c-0.231-0.032-0.924-0.048-2.08-0.048h-2.227v3.621h2.111c1.368,0,2.222-0.058,2.563-0.176
				c0.341-0.116,0.607-0.317,0.8-0.602c0.194-0.286,0.289-0.643,0.289-1.071C57.111,61.454,56.985,61.066,56.731,60.771
				L56.731,60.771z M72.327,70.313c-1.239,1.299-2.897,1.951-4.972,1.951c-2.101,0-3.771-0.648-5.011-1.941
				c-1.24-1.295-1.861-3.078-1.861-5.349c0-1.454,0.216-2.673,0.646-3.66c0.321-0.727,0.759-1.379,1.316-1.956
				c0.556-0.578,1.163-1.006,1.825-1.286c0.88-0.376,1.896-0.565,3.046-0.565c2.082,0,3.746,0.653,4.996,1.958
				c1.25,1.303,1.875,3.119,1.875,5.441C74.188,67.207,73.568,69.01,72.327,70.313L72.327,70.313z M70.174,61.176
				c-0.711-0.806-1.652-1.208-2.828-1.208s-2.124,0.407-2.844,1.223c-0.719,0.814-1.079,2.042-1.079,3.684
				c0,1.615,0.37,2.841,1.108,3.674c0.74,0.833,1.678,1.25,2.815,1.25s2.069-0.413,2.799-1.24c0.729-0.826,1.094-2.068,1.094-3.723
				C71.238,63.2,70.883,61.981,70.174,61.176L70.174,61.176z M81.458,60.372c-0.401-0.321-1.003-0.481-1.806-0.481
				c-0.829,0-1.479,0.173-1.948,0.515c-0.302,0.221-0.452,0.517-0.452,0.887c0,0.338,0.141,0.627,0.423,0.866
				c0.36,0.305,1.234,0.623,2.621,0.955c1.39,0.331,2.415,0.673,3.08,1.027s1.187,0.837,1.56,1.45
				c0.377,0.612,0.564,1.371,0.564,2.273c0,0.817-0.225,1.583-0.674,2.297c-0.451,0.714-1.085,1.245-1.909,1.593
				c-0.821,0.348-1.847,0.52-3.074,0.52c-1.786,0-3.157-0.416-4.114-1.25c-0.959-0.832-1.53-2.049-1.715-3.645l2.775-0.273
				c0.166,0.942,0.506,1.634,1.016,2.074c0.51,0.441,1.2,0.662,2.067,0.662c0.919,0,1.61-0.197,2.077-0.59
				c0.465-0.393,0.697-0.852,0.697-1.378c0-0.338-0.097-0.625-0.293-0.86c-0.195-0.238-0.539-0.443-1.026-0.62
				c-0.334-0.116-1.095-0.325-2.284-0.623c-1.529-0.383-2.602-0.853-3.219-1.412c-0.867-0.785-1.303-1.741-1.303-2.872
				c0-0.725,0.205-1.405,0.612-2.038c0.409-0.633,0.997-1.114,1.765-1.446c0.767-0.331,1.693-0.497,2.781-0.497
				c1.771,0,3.107,0.394,4.004,1.179c0.896,0.785,1.365,1.833,1.412,3.143l-2.853,0.128C82.122,61.221,81.859,60.693,81.458,60.372
				L81.458,60.372z M92.945,60.372c-0.401-0.321-1.004-0.481-1.807-0.481c-0.83,0-1.478,0.173-1.947,0.515
				c-0.303,0.221-0.453,0.517-0.453,0.887c0,0.338,0.142,0.627,0.424,0.866c0.359,0.305,1.234,0.623,2.621,0.955
				c1.389,0.331,2.415,0.673,3.08,1.027c0.664,0.354,1.186,0.837,1.56,1.45c0.376,0.612,0.563,1.371,0.563,2.273
				c0,0.817-0.225,1.583-0.674,2.297c-0.451,0.714-1.086,1.245-1.908,1.593s-1.846,0.52-3.074,0.52c-1.786,0-3.158-0.416-4.115-1.25
				c-0.958-0.832-1.529-2.049-1.715-3.645l2.775-0.273c0.168,0.942,0.507,1.634,1.018,2.074c0.512,0.441,1.2,0.662,2.066,0.662
				c0.92,0,1.611-0.197,2.078-0.59c0.465-0.393,0.697-0.852,0.697-1.378c0-0.338-0.097-0.625-0.294-0.86
				c-0.194-0.238-0.538-0.443-1.026-0.62c-0.334-0.116-1.094-0.325-2.283-0.623c-1.53-0.383-2.602-0.853-3.219-1.412
				c-0.867-0.785-1.303-1.741-1.303-2.872c0-0.725,0.204-1.405,0.612-2.038c0.409-0.633,0.997-1.114,1.765-1.446
				c0.766-0.332,1.693-0.497,2.779-0.497c1.773,0,3.109,0.394,4.006,1.179c0.896,0.785,1.366,1.833,1.412,3.143l-2.852,0.128
				C93.607,61.221,93.348,60.693,92.945,60.372L92.945,60.372z M57.006,95.941h-3.025l-2.814-10.668l-2.806,10.668h-3.093
				l-3.372-14.27h2.919l2.13,9.803l2.583-9.803h3.392l2.478,9.967l2.168-9.967h2.873L57.006,95.941L57.006,95.941z M60.524,95.941
				v-14.27h2.852v14.27H60.524L60.524,95.941z M73.186,95.941l-5.695-9.305v9.305h-2.65v-14.27h2.775l5.781,9.529v-9.529h2.65v14.27
				H73.186L73.186,95.941z M89.182,91.98c-0.354,1.039-0.858,1.879-1.514,2.521c-0.494,0.488-1.163,0.867-2.004,1.14
				c-0.63,0.201-1.471,0.301-2.525,0.301h-5.367v-14.27h5.215c1.176,0,2.07,0.09,2.688,0.273c0.829,0.246,1.539,0.685,2.131,1.313
				c0.59,0.631,1.039,1.4,1.348,2.313s0.465,2.035,0.465,3.373C89.616,90.118,89.471,91.131,89.182,91.98L89.182,91.98z
				 M86.377,86.277c-0.191-0.592-0.464-1.051-0.809-1.383c-0.348-0.332-0.789-0.557-1.321-0.672
				c-0.397-0.091-1.179-0.137-2.343-0.137h-1.28v9.452h2.129c0.798,0,1.373-0.045,1.726-0.138c0.463-0.115,0.846-0.314,1.151-0.592
				c0.306-0.279,0.556-0.738,0.748-1.379c0.192-0.64,0.289-1.51,0.289-2.613C86.667,87.714,86.57,86.867,86.377,86.277
				L86.377,86.277z"/>
		</g>
	</g>
	
		<linearGradient id="SVGID_14_" gradientUnits="userSpaceOnUse" x1="219.0254" y1="-190.6934" x2="158.3055" y2="-103.9764" gradientTransform="matrix(1 0 0 -1 -123.165 -81.835)">
		<stop  offset="0" style="stop-color:#000000;stop-opacity:0"/>
		<stop  offset="1" style="stop-color:#FFFFFF;stop-opacity:0.25"/>
	</linearGradient>
	<path fill="url(#SVGID_14_)" d="M71.428,5.263l54.309,54.311c3.302,3.301,3.302,8.654,0,11.955l-54.207,54.207
		c-3.301,3.302-8.654,3.302-11.955,0L5.263,71.428c-3.301-3.301-3.301-8.654,0-11.955l54.208-54.21
		C62.772,1.962,68.126,1.962,71.428,5.263L71.428,5.263z"/>
</g>
</svg>
