<?xml version="1.0" encoding="utf-8"?>
<!-- Generator: Adobe Illustrator 16.0.0, SVG Export Plug-In . SVG Version: 6.00 Build 0)  -->
<!DOCTYPE svg PUBLIC "-//W3C//DTD SVG 1.1//EN" "http://www.w3.org/Graphics/SVG/1.1/DTD/svg11.dtd">
<svg version="1.1" id="Layer_1" xmlns="http://www.w3.org/2000/svg" xmlns:xlink="http://www.w3.org/1999/xlink" x="0px" y="0px"
	 width="132px" height="132px" viewBox="0 0 132 132" enable-background="new 0 0 132 132" xml:space="preserve">
<g id="disabled">
	<g>
		<g>
			
				<linearGradient id="SVGID_3_" gradientUnits="userSpaceOnUse" x1="126.9521" y1="-148.335" x2="252.3779" y2="-148.335" gradientTransform="matrix(1 0 0 -1 -123.165 -81.835)">
				<stop  offset="0" style="stop-color:#000000;stop-opacity:0.6"/>
				<stop  offset="1" style="stop-color:#000000;stop-opacity:0.6"/>
			</linearGradient>
			<path id="SVGID_1_" fill="url(#SVGID_3_)" d="M72.428,6.262l54.309,54.311c3.302,3.301,3.302,8.653,0,11.954l-54.207,54.209
				c-3.301,3.303-8.654,3.303-11.955,0L6.263,72.427c-3.301-3.301-3.301-8.654,0-11.957L60.471,6.262
				C63.772,2.961,69.126,2.961,72.428,6.262L72.428,6.262z"/>
		</g>
		<g>
			<path id="SVGID_2_" fill="#D1D1D1" d="M71.428,5.262l54.309,54.311c3.302,3.301,3.302,8.653,0,11.954l-54.207,54.209
				c-3.301,3.303-8.654,3.303-11.955,0L5.263,71.427c-3.301-3.301-3.301-8.654,0-11.957L59.471,5.262
				C62.772,1.961,68.126,1.961,71.428,5.262L71.428,5.262z"/>
		</g>
		<g>
			<defs>
				<path id="SVGID_4_" d="M72.428,6.262l54.309,54.311c3.302,3.301,3.302,8.653,0,11.954l-54.207,54.209
					c-3.301,3.303-8.654,3.303-11.955,0L6.263,72.427c-3.301-3.301-3.301-8.654,0-11.957L60.471,6.262
					C63.772,2.961,69.126,2.961,72.428,6.262L72.428,6.262z"/>
			</defs>
			<clipPath id="SVGID_5_">
				<use xlink:href="#SVGID_4_"  overflow="visible"/>
			</clipPath>
		</g>
	</g>
	<g>
		<g>
			<path id="SVGID_6_" d="M123.159,71.27l-51.888,51.889c-3.162,3.16-8.285,3.16-11.443,0L7.842,71.173
				c-3.161-3.159-3.161-8.284,0-11.445L59.729,7.842c3.161-3.161,8.285-3.161,11.445,0l51.985,51.985
				C126.318,62.986,126.318,68.111,123.159,71.27L123.159,71.27z M122.533,62.847L68.205,8.52c-1.463-1.463-3.838-1.463-5.301,0
				L8.576,62.847c-1.463,1.465-1.463,3.838,0,5.303l54.329,54.326c1.463,1.463,3.838,1.463,5.301,0l54.327-54.326
				C123.998,66.688,123.998,64.312,122.533,62.847L122.533,62.847z"/>
		</g>
	</g>
	<g>
		<g>
			<path id="SVGID_8_" d="M31.766,58.257c-0.145-0.359-0.317-0.707-0.475-1.061c-0.081-0.354-0.501-0.859,0.023-1.421
				c0.438-0.602,1.302-1.184,1.898-1.615c0.829-0.599,1.542-1.347,2.234-2.1c0.504-0.548,0.893-1.192,1.341-1.786
				c0.594-0.953,1.804-1.552,2.699-2.177c-0.909-0.031-1.685-0.061-2.744,0.078c-0.73,0.052-1.31-0.105-1.89-0.599
				c-0.383-0.46-0.577-0.945-0.656-1.455c0.032-0.392,0.186-0.481,0.42-0.268c0.373,0.194,0.725,0.386,1.098,0.58
				c1.336,0.452,3.595-0.339,4.913-0.625c0.864-0.255,1.454-0.036,1.966,0.365c0.351,0.267,0.514,0.665,0.714,1.064
				c0.158,0.447,0.449,0.556,0.759,0.491c0.801-0.136,1.489-0.535,2.234-0.803c0.539-0.396,0.864-0.04,0.893,0.268
				c0,0.371,0,0.745,0,1.116c-0.278,0.552-0.688,0.706-1.116,0.803c-0.181,0.089-0.779,0.439-0.09,0.716
				c6.063,2.024,6.989-0.386,10.184,0.313c1.891,0.357,3.783,0.714,5.672,1.072c3.631,0.247,6.976,0.342,10.497,0.089
				c3.381-0.194,6.76-0.388,10.139-0.581c2.856-0.278,4.203-0.896,6.61-0.223c0.581,0.045,1.161,0.089,1.743,0.134
				c0.746-0.078,1.079-0.131,1.652,0.491c3.484,2.539,3.15,6.976,2.992,10.497c-0.016,1.488-0.443,2.978-0.045,4.466
				c0.477,0.477,0.387,0.779,1.43,1.43c1.482,0.887,1.77,2.656,1.16,3.707c-0.58,1.004,0.143,3.635,0.172,3.51
				c-0.258,0.197-0.494,0.308-0.993,0.154c-0.869-0.404-1.248-1.264-1.232-2.236c0.013-0.776-0.094-1.239-0.446-1.92
				c-0.373-0.625-0.744-1.25-1.117-1.877c-0.653-0.664-0.563-1.563-0.491-2.365c0.25-2.862,0.042-8.546-1.384-11.568
				c-0.264-0.556-0.489-0.389-0.35,0.15c0.18,0.759,0.438,1.601,0.617,2.36c1.182,3.192,0.316,6.117,0.178,9.013
				c-0.178,1.261-0.434,2.226,0.359,3.217c1.104,1.085,1.555,1.77,0.893,3.259c-1.219,3.062-0.578,5.29-0.179,8.62
				c0.074,0.342,0.149,0.686,0.224,1.027c0.265,0.539-0.008,1.187-0.58,1.252c-0.111,0.195-0.061,0.445-0.09,0.67
				c0,0.535,0,1.07,0,1.607c0.03,0.187,0.008,0.375-0.313,0.401c-1.518,0.515-2.982,0.515-4.557,0.491
				c-0.396,0.019-0.819-0.098-0.625-0.67c0.539-0.523,1.156-0.791,1.699-1.25c0.996-0.851,0.914-1.805,1.115-2.904
				c0.32-1.736,0.221-3.545-0.357-5.359C90,75.792,89.73,74.646,88.867,73.77c-0.389,0.683-0.774,1.367-1.161,2.054
				c-1.118,1.919-1.163,4.178-1.651,6.296c-0.113,0.691-0.255,0.902-0.582,1.072c-0.207,0.06-0.389,0.16-0.598,0.22
				c-0.527,0.401-0.496,1.47-0.518,2.06c-1.688,0.408-3.133,0.454-4.601,0.535c-0.588-0.023-0.655-0.363-0.401-0.627
				c0.695-0.827,0.927-0.841,1.248-1.029c0.51-0.297,1.775-1.959,2.039-2.75c0.174-0.521,0.324-1.013,0.543-1.51
				c0.297-0.677,0.551-1.117,0.881-1.773c0.213-0.422,0.311-0.976,0.373-1.493c0.051-0.404-0.028-0.806-0.037-1.179
				c-0.041-0.662-0.42-0.754-1.068-0.502c-0.375,0.147-0.381,0.14-0.51,0.508c-0.094,0.271-0.195,0.58-0.278,0.787
				c-0.155,0.32-0.803,0.283-1.042-0.068c-0.322-0.581-0.322-0.951-1.434-0.77c-0.434-0.084-0.477,0.446-0.715,0.67
				c-0.229,0.211-0.697,0.535-1.193-0.137c-0.089-0.326-0.039-0.304-0.128-0.632c-0.163-0.089-0.257-0.306-0.423-0.394
				c-1.07-0.664-1.68-1.135-2.322-1.698c-0.334-0.2-0.208-0.507-1.116-0.357c-4.571,0.431-6.569-1.579-10.006-0.782
				c-0.612-0.002-1.53,0.078-2.098,1.72c-0.514,2.266-0.48,4.923-0.468,7.334c0.015,0.622,0.283,1.202,0.536,1.784
				c0.144,0.461,0.115,1.205-0.179,1.295c-0.161,0.053-0.328,0.091-0.491,0.135c-0.279,0.105-0.318,0.294-0.357,0.493
				c-0.097,0.472-0.136,0.69-0.21,1.168c-0.003,0.276-0.297,0.38-0.46,0.394c-1.444,0.165-2.888,0.328-4.333,0.491
				c-0.381,0.01-0.675-0.373-0.401-0.669c0.908-0.805,1.815-1.207,2.455-2.411c0.397-1.221,1.011-2.636,0.42-5.711
				c-0.165-0.536-0.546-1.801-0.711-2.337c-0.46,0.611-0.99,2.066-1.25,2.814c-0.535,1.541-0.333,0.688-0.682,3.342
				c0.029,0.611-0.152,1.222-0.123,1.832c-0.089,0.061-0.018,0.207-0.268,0.179c-0.103-0.015-0.194,0.028-0.297,0.015
				c-0.354,0.166-0.43,0.303-0.506,0.701c-0.045,0.223-0.09,0.446-0.134,0.67c-0.09,0.135,0.053,0.426-0.268,0.402
				c-1.37,0.061-2.741,0.117-4.111,0.178c-0.069-0.475-0.04-0.977,0.402-1.25c1.399-0.867,2.256-1.053,2.449-2.179
				c0.391-2.295,1.095-2.793,0.153-5.925c-0.155-0.518-0.297-0.703-0.315-1.252c-0.019-0.606,0.006-1.215,0.036-1.823
				c0.024-0.481-0.098-0.554-0.485-0.511c-0.27,0.031-0.541,0.056-0.811,0.084c-1.265,0.074-1.772-0.566-2.189-1.252
				c-0.326-1.086-0.481-2.239-0.982-3.26c-1.087-2.217-2.859-4.17-4.288-6.253c-0.846-1.491-2.494-2.972-4.447-2.986
				c-2.15-0.013-4.22,0.433-6.751-0.308C32.276,58.958,31.974,58.769,31.766,58.257L31.766,58.257z"/>
		</g>
	</g>
	
		<linearGradient id="SVGID_7_" gradientUnits="userSpaceOnUse" x1="219.0254" y1="-190.6934" x2="158.3049" y2="-103.9756" gradientTransform="matrix(1 0 0 -1 -123.165 -81.835)">
		<stop  offset="0" style="stop-color:#000000;stop-opacity:0"/>
		<stop  offset="1" style="stop-color:#FFFFFF;stop-opacity:0.25"/>
	</linearGradient>
	<path fill="url(#SVGID_7_)" d="M71.428,5.262l54.309,54.311c3.302,3.301,3.302,8.653,0,11.954l-54.207,54.209
		c-3.301,3.303-8.654,3.303-11.955,0L5.263,71.427c-3.301-3.301-3.301-8.654,0-11.957L59.471,5.262
		C62.772,1.961,68.126,1.961,71.428,5.262L71.428,5.262z"/>
</g>
<g id="normal">
	<g>
		<g>
			
				<linearGradient id="SVGID_9_" gradientUnits="userSpaceOnUse" x1="126.9521" y1="-148.335" x2="252.3779" y2="-148.335" gradientTransform="matrix(1 0 0 -1 -123.165 -81.835)">
				<stop  offset="0" style="stop-color:#000000;stop-opacity:0.6"/>
				<stop  offset="1" style="stop-color:#000000;stop-opacity:0.6"/>
			</linearGradient>
			<path id="SVGID_11_" fill="url(#SVGID_9_)" d="M72.428,6.262l54.309,54.311c3.302,3.301,3.302,8.653,0,11.954l-54.207,54.209
				c-3.301,3.303-8.654,3.303-11.955,0L6.263,72.427c-3.301-3.301-3.301-8.654,0-11.957L60.471,6.262
				C63.772,2.961,69.126,2.961,72.428,6.262L72.428,6.262z"/>
		</g>
		<g>
			<path id="SVGID_12_" fill="#FFDF0A" d="M71.428,5.262l54.309,54.311c3.302,3.301,3.302,8.653,0,11.954l-54.207,54.209
				c-3.301,3.303-8.654,3.303-11.955,0L5.263,71.427c-3.301-3.301-3.301-8.654,0-11.957L59.471,5.262
				C62.772,1.961,68.126,1.961,71.428,5.262L71.428,5.262z"/>
		</g>
		<g>
			<defs>
				<path id="SVGID_10_" d="M72.428,6.262l54.309,54.311c3.302,3.301,3.302,8.653,0,11.954l-54.207,54.209
					c-3.301,3.303-8.654,3.303-11.955,0L6.263,72.427c-3.301-3.301-3.301-8.654,0-11.957L60.471,6.262
					C63.772,2.961,69.126,2.961,72.428,6.262L72.428,6.262z"/>
			</defs>
			<clipPath id="SVGID_13_">
				<use xlink:href="#SVGID_10_"  overflow="visible"/>
			</clipPath>
		</g>
	</g>
	<g>
		<g>
			<path id="SVGID_16_" d="M123.159,71.27l-51.888,51.889c-3.162,3.16-8.285,3.16-11.443,0L7.842,71.173
				c-3.161-3.159-3.161-8.284,0-11.445L59.729,7.842c3.161-3.161,8.285-3.161,11.445,0l51.985,51.985
				C126.318,62.986,126.318,68.111,123.159,71.27L123.159,71.27z M122.533,62.847L68.205,8.52c-1.463-1.463-3.838-1.463-5.301,0
				L8.576,62.847c-1.463,1.465-1.463,3.838,0,5.303l54.329,54.326c1.463,1.463,3.838,1.463,5.301,0l54.327-54.326
				C123.998,66.688,123.998,64.312,122.533,62.847L122.533,62.847z"/>
		</g>
	</g>
	<g>
		<g>
			<path id="SVGID_18_" d="M31.766,58.257c-0.145-0.359-0.317-0.707-0.475-1.061c-0.081-0.354-0.501-0.859,0.023-1.421
				c0.438-0.602,1.302-1.184,1.898-1.615c0.829-0.599,1.542-1.347,2.234-2.1c0.504-0.548,0.893-1.192,1.341-1.786
				c0.594-0.953,1.804-1.552,2.699-2.177c-0.909-0.031-1.685-0.061-2.744,0.078c-0.73,0.052-1.31-0.105-1.89-0.599
				c-0.383-0.46-0.577-0.945-0.656-1.455c0.032-0.392,0.186-0.481,0.42-0.268c0.373,0.194,0.725,0.386,1.098,0.58
				c1.336,0.452,3.595-0.339,4.913-0.625c0.864-0.255,1.454-0.036,1.966,0.365c0.351,0.267,0.514,0.665,0.714,1.064
				c0.158,0.447,0.449,0.556,0.759,0.491c0.801-0.136,1.489-0.535,2.234-0.803c0.539-0.396,0.864-0.04,0.893,0.268
				c0,0.371,0,0.745,0,1.116c-0.278,0.552-0.688,0.706-1.116,0.803c-0.181,0.089-0.779,0.439-0.09,0.716
				c6.063,2.024,6.989-0.386,10.184,0.313c1.891,0.357,3.783,0.714,5.672,1.072c3.631,0.247,6.976,0.342,10.497,0.089
				c3.381-0.194,6.76-0.388,10.139-0.581c2.856-0.278,4.203-0.896,6.61-0.223c0.581,0.045,1.161,0.089,1.743,0.134
				c0.746-0.078,1.079-0.131,1.652,0.491c3.484,2.539,3.15,6.976,2.992,10.497c-0.016,1.488-0.443,2.978-0.045,4.466
				c0.477,0.477,0.387,0.779,1.43,1.43c1.482,0.887,1.77,2.656,1.16,3.707c-0.58,1.004,0.143,3.635,0.172,3.51
				c-0.258,0.197-0.494,0.308-0.993,0.154c-0.869-0.404-1.248-1.264-1.232-2.236c0.013-0.776-0.094-1.239-0.446-1.92
				c-0.373-0.625-0.744-1.25-1.117-1.877c-0.653-0.664-0.563-1.563-0.491-2.365c0.25-2.862,0.042-8.546-1.384-11.568
				c-0.264-0.556-0.489-0.389-0.35,0.15c0.18,0.759,0.438,1.601,0.617,2.36c1.182,3.192,0.316,6.117,0.178,9.013
				c-0.178,1.261-0.434,2.226,0.359,3.217c1.104,1.085,1.555,1.77,0.893,3.259c-1.219,3.062-0.578,5.29-0.179,8.62
				c0.074,0.342,0.149,0.686,0.224,1.027c0.265,0.539-0.008,1.187-0.58,1.252c-0.111,0.195-0.061,0.445-0.09,0.67
				c0,0.535,0,1.07,0,1.607c0.03,0.187,0.008,0.375-0.313,0.401c-1.518,0.515-2.982,0.515-4.557,0.491
				c-0.396,0.019-0.819-0.098-0.625-0.67c0.539-0.523,1.156-0.791,1.699-1.25c0.996-0.851,0.914-1.805,1.115-2.904
				c0.32-1.736,0.221-3.545-0.357-5.359C90,75.792,89.73,74.646,88.867,73.77c-0.389,0.683-0.774,1.367-1.161,2.054
				c-1.118,1.919-1.163,4.178-1.651,6.296c-0.113,0.691-0.255,0.902-0.582,1.072c-0.207,0.06-0.389,0.16-0.598,0.22
				c-0.527,0.401-0.496,1.47-0.518,2.06c-1.688,0.408-3.133,0.454-4.601,0.535c-0.588-0.023-0.655-0.363-0.401-0.627
				c0.695-0.827,0.927-0.841,1.248-1.029c0.51-0.297,1.775-1.959,2.039-2.75c0.174-0.521,0.324-1.013,0.543-1.51
				c0.297-0.677,0.551-1.117,0.881-1.773c0.213-0.422,0.311-0.976,0.373-1.493c0.051-0.404-0.028-0.806-0.037-1.179
				c-0.041-0.662-0.42-0.754-1.068-0.502c-0.375,0.147-0.381,0.14-0.51,0.508c-0.094,0.271-0.195,0.58-0.278,0.787
				c-0.155,0.32-0.803,0.283-1.042-0.068c-0.322-0.581-0.322-0.951-1.434-0.77c-0.434-0.084-0.477,0.446-0.715,0.67
				c-0.229,0.211-0.697,0.535-1.193-0.137c-0.089-0.326-0.039-0.304-0.128-0.632c-0.163-0.089-0.257-0.306-0.423-0.394
				c-1.07-0.664-1.68-1.135-2.322-1.698c-0.334-0.2-0.208-0.507-1.116-0.357c-4.571,0.431-6.569-1.579-10.006-0.782
				c-0.612-0.002-1.53,0.078-2.098,1.72c-0.514,2.266-0.48,4.923-0.468,7.334c0.015,0.622,0.283,1.202,0.536,1.784
				c0.144,0.461,0.115,1.205-0.179,1.295c-0.161,0.053-0.328,0.091-0.491,0.135c-0.279,0.105-0.318,0.294-0.357,0.493
				c-0.097,0.472-0.136,0.69-0.21,1.168c-0.003,0.276-0.297,0.38-0.46,0.394c-1.444,0.165-2.888,0.328-4.333,0.491
				c-0.381,0.01-0.675-0.373-0.401-0.669c0.908-0.805,1.815-1.207,2.455-2.411c0.397-1.221,1.011-2.636,0.42-5.711
				c-0.165-0.536-0.546-1.801-0.711-2.337c-0.46,0.611-0.99,2.066-1.25,2.814c-0.535,1.541-0.333,0.688-0.682,3.342
				c0.029,0.611-0.152,1.222-0.123,1.832c-0.089,0.061-0.018,0.207-0.268,0.179c-0.103-0.015-0.194,0.028-0.297,0.015
				c-0.354,0.166-0.43,0.303-0.506,0.701c-0.045,0.223-0.09,0.446-0.134,0.67c-0.09,0.135,0.053,0.426-0.268,0.402
				c-1.37,0.061-2.741,0.117-4.111,0.178c-0.069-0.475-0.04-0.977,0.402-1.25c1.399-0.867,2.256-1.053,2.449-2.179
				c0.391-2.295,1.095-2.793,0.153-5.925c-0.155-0.518-0.297-0.703-0.315-1.252c-0.019-0.606,0.006-1.215,0.036-1.823
				c0.024-0.481-0.098-0.554-0.485-0.511c-0.27,0.031-0.541,0.056-0.811,0.084c-1.265,0.074-1.772-0.566-2.189-1.252
				c-0.326-1.086-0.481-2.239-0.982-3.26c-1.087-2.217-2.859-4.17-4.288-6.253c-0.846-1.491-2.494-2.972-4.447-2.986
				c-2.15-0.013-4.22,0.433-6.751-0.308C32.276,58.958,31.974,58.769,31.766,58.257L31.766,58.257z"/>
		</g>
	</g>
	
		<linearGradient id="SVGID_14_" gradientUnits="userSpaceOnUse" x1="219.0254" y1="-190.6934" x2="158.3049" y2="-103.9756" gradientTransform="matrix(1 0 0 -1 -123.165 -81.835)">
		<stop  offset="0" style="stop-color:#000000;stop-opacity:0"/>
		<stop  offset="1" style="stop-color:#FFFFFF;stop-opacity:0.25"/>
	</linearGradient>
	<path fill="url(#SVGID_14_)" d="M71.428,5.262l54.309,54.311c3.302,3.301,3.302,8.653,0,11.954l-54.207,54.209
		c-3.301,3.303-8.654,3.303-11.955,0L5.263,71.427c-3.301-3.301-3.301-8.654,0-11.957L59.471,5.262
		C62.772,1.961,68.126,1.961,71.428,5.262L71.428,5.262z"/>
</g>
</svg>
