<?xml version="1.0" encoding="utf-8"?>
<!-- Generator: Adobe Illustrator 16.0.0, SVG Export Plug-In . SVG Version: 6.00 Build 0)  -->
<!DOCTYPE svg PUBLIC "-//W3C//DTD SVG 1.1//EN" "http://www.w3.org/Graphics/SVG/1.1/DTD/svg11.dtd">
<svg version="1.1" id="Layer_1" xmlns="http://www.w3.org/2000/svg" xmlns:xlink="http://www.w3.org/1999/xlink" x="0px" y="0px"
	 width="132px" height="132px" viewBox="0 0 132 132" enable-background="new 0 0 132 132" xml:space="preserve">
<g id="disabled">
	<g>
		<g>
			
				<linearGradient id="SVGID_3_" gradientUnits="userSpaceOnUse" x1="250.1172" y1="727.1699" x2="375.543" y2="727.1699" gradientTransform="matrix(1 0 0 1 -246.3301 -660.6699)">
				<stop  offset="0" style="stop-color:#000000;stop-opacity:0.6"/>
				<stop  offset="1" style="stop-color:#000000;stop-opacity:0.6"/>
			</linearGradient>
			<path id="SVGID_1_" fill="url(#SVGID_3_)" d="M72.428,6.262l54.309,54.311c3.303,3.301,3.303,8.655,0,11.954l-54.207,54.209
				c-3.301,3.302-8.653,3.302-11.954,0L6.263,72.426c-3.301-3.301-3.301-8.654,0-11.955L60.471,6.262
				C63.772,2.962,69.126,2.962,72.428,6.262L72.428,6.262z"/>
		</g>
		<g>
			<path id="SVGID_2_" fill="#D1D1D1" d="M71.428,5.262l54.309,54.311c3.303,3.301,3.303,8.655,0,11.954l-54.207,54.209
				c-3.301,3.302-8.653,3.302-11.954,0L5.263,71.426c-3.301-3.301-3.301-8.654,0-11.955L59.471,5.262
				C62.772,1.962,68.126,1.962,71.428,5.262L71.428,5.262z"/>
		</g>
	</g>
	<g>
		<g>
			<path id="SVGID_6_" d="M123.159,71.271l-51.888,51.887c-3.162,3.16-8.286,3.16-11.443,0L7.842,71.173
				c-3.161-3.159-3.161-8.284,0-11.443L59.729,7.841c3.161-3.161,8.285-3.161,11.445,0l51.985,51.985
				C126.318,62.987,126.318,68.109,123.159,71.271L123.159,71.271z M122.533,62.848L68.205,8.521c-1.463-1.465-3.838-1.465-5.301,0
				L8.576,62.848c-1.463,1.463-1.463,3.835,0,5.3l54.329,54.33c1.463,1.463,3.838,1.463,5.301,0l54.327-54.33
				C123.998,66.684,123.998,64.311,122.533,62.848L122.533,62.848z"/>
		</g>
	</g>
	<g>
		<g>
			<path id="SVGID_8_" d="M97.879,45.921l-1.982,1.98l-2.008-2.022l-3.074,3.074l1.976,1.988l-1.981,1.977l-1.976-1.985
				l-3.075,3.075l2.012,2.024l-1.979,1.98l-2.009-2.022l-3.188,3.187l2.017,2.016l-1.98,1.977l-2.016-2.014l-3.073,3.077
				l1.981,1.979l-1.979,1.979l-1.981-1.979l-3.031,3.033l1.974,1.985l-1.981,1.98l-1.975-1.986l-3.08,3.082l2.014,2.012L65.502,78.3
				l-2.004-2.022l-3.085,3.084l1.982,1.979l-1.98,1.982l-1.982-1.98l-3.067,3.067l2.009,2.021l-1.982,1.98l-2.008-2.021
				l-3.077,3.075l1.972,1.983l-1.977,1.982l-1.974-1.988l-3.075,3.076l2.008,2.021l-1.979,1.979l-2.007-2.021l-1.809,1.808
				L40.829,97.6l1.777-1.775l-5.461-5.498l-1.83,1.83l-0.636-0.709l1.796-1.795l-2.009-2.021l1.98-1.979l2.009,2.021l3.075-3.075
				l-2.045-2.056l1.98-1.979l2.043,2.059l3.077-3.077l-2.009-2.021l1.979-1.979l2.009,2.021l3.074-3.073l-2.043-2.06l1.98-1.979
				l2.04,2.063l3.087-3.088l-2.014-2.017l1.979-1.979l1.979,2.048l3.104-3.104l-2.05-2.055l1.979-1.979l2.045,2.056l3.038-3.038
				l-2.042-2.056l1.979-1.98l2.039,2.059l3.104-3.103l-2.031-1.998l1.979-1.979l2.015,2.016l0.036-0.037l0,0l3.138-3.14
				l-2.008-2.021l1.979-1.98l2.009,2.022l3.075-3.075l-2.046-2.058l1.979-1.979l2.044,2.056l3.074-3.075l-2.009-2.022l1.979-1.979
				l2.008,2.021l1.738-1.736l0.637,0.706l-1.705,1.706l5.463,5.495l1.757-1.756l0.636,0.706l-1.725,1.723L97.879,45.921
				L97.879,45.921z M42.193,85.275L39.12,88.35l5.461,5.496l3.074-3.074L42.193,85.275L42.193,85.275z M47.249,80.219l-3.075,3.075
				l1.594,1.604l3.867,3.892l3.075-3.075L47.249,80.219L47.249,80.219z M52.301,75.167l-3.072,3.072l5.461,5.495l3.069-3.066
				L52.301,75.167L52.301,75.167z M57.368,70.1l-3.09,3.09l5.458,5.5l3.088-3.09L57.368,70.1L57.368,70.1z M62.415,65.054
				l-3.103,3.103l5.479,5.477l3.083-3.083L62.415,65.054L62.415,65.054z M67.432,60.036l-3.038,3.038l1.484,1.494l3.976,4.002
				l3.033-3.033l-1.24-1.25L67.432,60.036L67.432,60.036z M72.52,54.948l-3.111,3.112l5.458,5.5l3.073-3.075L72.52,54.948
				L72.52,54.948z M77.648,49.819l-3.209,3.208l5.479,5.479l3.188-3.19L77.648,49.819L77.648,49.819z M82.703,44.763l-3.075,3.075
				l5.362,5.398l0.099,0.1l3.075-3.077L82.703,44.763L82.703,44.763z M87.758,39.708l-3.074,3.077l5.461,5.495l3.073-3.074
				L87.758,39.708L87.758,39.708z M58.957,26.018h15v20.325l-15,15V26.018L58.957,26.018z M73.957,108.02h-15V87.09l15-15V108.02
				L73.957,108.02z"/>
		</g>
	</g>
	
		<linearGradient id="SVGID_4_" gradientUnits="userSpaceOnUse" x1="342.1904" y1="769.5283" x2="281.4697" y2="682.8102" gradientTransform="matrix(1 0 0 1 -246.3301 -660.6699)">
		<stop  offset="0" style="stop-color:#000000;stop-opacity:0"/>
		<stop  offset="1" style="stop-color:#FFFFFF;stop-opacity:0.25"/>
	</linearGradient>
	<path fill="url(#SVGID_4_)" d="M71.428,5.262l54.309,54.311c3.303,3.301,3.303,8.655,0,11.954l-54.207,54.209
		c-3.301,3.302-8.653,3.302-11.954,0L5.263,71.426c-3.301-3.301-3.301-8.654,0-11.955L59.471,5.262
		C62.772,1.962,68.126,1.962,71.428,5.262L71.428,5.262z"/>
</g>
<g id="normal">
	<g>
		<g>
			
				<linearGradient id="SVGID_5_" gradientUnits="userSpaceOnUse" x1="250.1172" y1="727.1699" x2="375.543" y2="727.1699" gradientTransform="matrix(1 0 0 1 -246.3301 -660.6699)">
				<stop  offset="0" style="stop-color:#000000;stop-opacity:0.6"/>
				<stop  offset="1" style="stop-color:#000000;stop-opacity:0.6"/>
			</linearGradient>
			<path id="SVGID_11_" fill="url(#SVGID_5_)" d="M72.428,6.262l54.309,54.311c3.303,3.301,3.303,8.655,0,11.954l-54.207,54.209
				c-3.301,3.302-8.653,3.302-11.954,0L6.263,72.426c-3.301-3.301-3.301-8.654,0-11.955L60.471,6.262
				C63.772,2.962,69.126,2.962,72.428,6.262L72.428,6.262z"/>
		</g>
		<g>
			<path id="SVGID_12_" fill="#FFDF0A" d="M71.428,5.262l54.309,54.311c3.303,3.301,3.303,8.655,0,11.954l-54.207,54.209
				c-3.301,3.302-8.653,3.302-11.954,0L5.263,71.426c-3.301-3.301-3.301-8.654,0-11.955L59.471,5.262
				C62.772,1.962,68.126,1.962,71.428,5.262L71.428,5.262z"/>
		</g>
	</g>
	<g>
		<g>
			<path id="SVGID_16_" d="M123.159,71.271l-51.888,51.887c-3.162,3.16-8.286,3.16-11.443,0L7.842,71.173
				c-3.161-3.159-3.161-8.284,0-11.443L59.729,7.841c3.161-3.161,8.285-3.161,11.445,0l51.985,51.985
				C126.318,62.987,126.318,68.109,123.159,71.271L123.159,71.271z M122.533,62.848L68.205,8.521c-1.463-1.465-3.838-1.465-5.301,0
				L8.576,62.848c-1.463,1.463-1.463,3.835,0,5.3l54.329,54.33c1.463,1.463,3.838,1.463,5.301,0l54.327-54.33
				C123.998,66.684,123.998,64.311,122.533,62.848L122.533,62.848z"/>
		</g>
	</g>
	<g>
		<g>
			<path id="SVGID_18_" d="M97.879,45.921l-1.982,1.98l-2.008-2.022l-3.074,3.074l1.976,1.988l-1.981,1.977l-1.976-1.985
				l-3.075,3.075l2.012,2.024l-1.979,1.98l-2.009-2.022l-3.188,3.187l2.017,2.016l-1.98,1.977l-2.016-2.014l-3.073,3.077
				l1.981,1.979l-1.979,1.979l-1.981-1.979l-3.031,3.033l1.974,1.985l-1.981,1.98l-1.975-1.986l-3.08,3.082l2.014,2.012L65.502,78.3
				l-2.004-2.022l-3.085,3.084l1.982,1.979l-1.98,1.982l-1.982-1.98l-3.067,3.067l2.009,2.021l-1.982,1.98l-2.008-2.021
				l-3.077,3.075l1.972,1.983l-1.977,1.982l-1.974-1.988l-3.075,3.076l2.008,2.021l-1.979,1.979l-2.007-2.021l-1.809,1.808
				L40.829,97.6l1.777-1.775l-5.461-5.498l-1.83,1.83l-0.636-0.709l1.796-1.795l-2.009-2.021l1.98-1.979l2.009,2.021l3.075-3.075
				l-2.045-2.056l1.98-1.979l2.043,2.059l3.077-3.077l-2.009-2.021l1.979-1.979l2.009,2.021l3.074-3.073l-2.043-2.06l1.98-1.979
				l2.04,2.063l3.087-3.088l-2.014-2.017l1.979-1.979l1.979,2.048l3.104-3.104l-2.05-2.055l1.979-1.979l2.045,2.056l3.038-3.038
				l-2.042-2.056l1.979-1.98l2.039,2.059l3.104-3.103l-2.031-1.998l1.979-1.979l2.015,2.016l0.036-0.037l0,0l3.138-3.14
				l-2.008-2.021l1.979-1.98l2.009,2.022l3.075-3.075l-2.046-2.058l1.979-1.979l2.044,2.056l3.074-3.075l-2.009-2.022l1.979-1.979
				l2.008,2.021l1.738-1.736l0.637,0.706l-1.705,1.706l5.463,5.495l1.757-1.756l0.636,0.706l-1.725,1.723L97.879,45.921
				L97.879,45.921z M42.193,85.275L39.12,88.35l5.461,5.496l3.074-3.074L42.193,85.275L42.193,85.275z M47.249,80.219l-3.075,3.075
				l1.594,1.604l3.867,3.892l3.075-3.075L47.249,80.219L47.249,80.219z M52.301,75.167l-3.072,3.072l5.461,5.495l3.069-3.066
				L52.301,75.167L52.301,75.167z M57.368,70.1l-3.09,3.09l5.458,5.5l3.088-3.09L57.368,70.1L57.368,70.1z M62.415,65.054
				l-3.103,3.103l5.479,5.477l3.083-3.083L62.415,65.054L62.415,65.054z M67.432,60.036l-3.038,3.038l1.484,1.494l3.976,4.002
				l3.033-3.033l-1.24-1.25L67.432,60.036L67.432,60.036z M72.52,54.948l-3.111,3.112l5.458,5.5l3.073-3.075L72.52,54.948
				L72.52,54.948z M77.648,49.819l-3.209,3.208l5.479,5.479l3.188-3.19L77.648,49.819L77.648,49.819z M82.703,44.763l-3.075,3.075
				l5.362,5.398l0.099,0.1l3.075-3.077L82.703,44.763L82.703,44.763z M87.758,39.708l-3.074,3.077l5.461,5.495l3.073-3.074
				L87.758,39.708L87.758,39.708z M58.957,26.018h15v20.325l-15,15V26.018L58.957,26.018z M73.957,108.02h-15V87.09l15-15V108.02
				L73.957,108.02z"/>
		</g>
	</g>
	
		<linearGradient id="SVGID_7_" gradientUnits="userSpaceOnUse" x1="342.1904" y1="769.5283" x2="281.4697" y2="682.8102" gradientTransform="matrix(1 0 0 1 -246.3301 -660.6699)">
		<stop  offset="0" style="stop-color:#000000;stop-opacity:0"/>
		<stop  offset="1" style="stop-color:#FFFFFF;stop-opacity:0.25"/>
	</linearGradient>
	<path fill="url(#SVGID_7_)" d="M71.428,5.262l54.309,54.311c3.303,3.301,3.303,8.655,0,11.954l-54.207,54.209
		c-3.301,3.302-8.653,3.302-11.954,0L5.263,71.426c-3.301-3.301-3.301-8.654,0-11.955L59.471,5.262
		C62.772,1.962,68.126,1.962,71.428,5.262L71.428,5.262z"/>
</g>
</svg>
