<?xml version="1.0" encoding="utf-8"?>
<!-- Generator: Adobe Illustrator 16.0.0, SVG Export Plug-In . SVG Version: 6.00 Build 0)  -->
<!DOCTYPE svg PUBLIC "-//W3C//DTD SVG 1.1//EN" "http://www.w3.org/Graphics/SVG/1.1/DTD/svg11.dtd">
<svg version="1.1" id="Layer_1" xmlns="http://www.w3.org/2000/svg" xmlns:xlink="http://www.w3.org/1999/xlink" x="0px" y="0px"
	 width="132px" height="132px" viewBox="0 0 132 132" enable-background="new 0 0 132 132" xml:space="preserve">
<g id="disabled">
	<g>
		<g>
			
				<linearGradient id="SVGID_3_" gradientUnits="userSpaceOnUse" x1="126.9521" y1="-148.3345" x2="252.3779" y2="-148.3345" gradientTransform="matrix(1 0 0 -1 -123.165 -81.835)">
				<stop  offset="0" style="stop-color:#000000;stop-opacity:0.6"/>
				<stop  offset="1" style="stop-color:#000000;stop-opacity:0.6"/>
			</linearGradient>
			<path id="SVGID_1_" fill="url(#SVGID_3_)" d="M72.428,6.262l54.309,54.311c3.302,3.301,3.302,8.653,0,11.954l-54.207,54.209
				c-3.301,3.302-8.654,3.302-11.955,0L6.263,72.428c-3.301-3.303-3.301-8.656,0-11.957L60.471,6.262
				C63.772,2.961,69.126,2.961,72.428,6.262L72.428,6.262z"/>
		</g>
		<g>
			<path id="SVGID_2_" fill="#D1D1D1" d="M71.428,5.262l54.309,54.311c3.302,3.301,3.302,8.653,0,11.954l-54.207,54.209
				c-3.301,3.302-8.654,3.302-11.955,0L5.263,71.428c-3.301-3.303-3.301-8.656,0-11.957L59.471,5.262
				C62.772,1.961,68.126,1.961,71.428,5.262L71.428,5.262z"/>
		</g>
		<g>
			<defs>
				<path id="SVGID_4_" d="M72.428,6.262l54.309,54.311c3.302,3.301,3.302,8.653,0,11.954l-54.207,54.209
					c-3.301,3.302-8.654,3.302-11.955,0L6.263,72.428c-3.301-3.303-3.301-8.656,0-11.957L60.471,6.262
					C63.772,2.961,69.126,2.961,72.428,6.262L72.428,6.262z"/>
			</defs>
			<clipPath id="SVGID_5_">
				<use xlink:href="#SVGID_4_"  overflow="visible"/>
			</clipPath>
		</g>
	</g>
	<g>
		<g>
			<path id="SVGID_6_" d="M123.159,71.27l-51.888,51.889c-3.162,3.16-8.285,3.16-11.443,0L7.842,71.173
				c-3.161-3.159-3.161-8.284,0-11.443L59.729,7.841c3.161-3.161,8.285-3.161,11.445,0l51.985,51.985
				C126.318,62.988,126.318,68.111,123.159,71.27L123.159,71.27z M122.533,62.849L68.205,8.522c-1.463-1.465-3.838-1.465-5.301,0
				L8.576,62.849c-1.463,1.463-1.463,3.838,0,5.301l54.329,54.326c1.463,1.463,3.838,1.463,5.301,0l54.327-54.326
				C123.998,66.686,123.998,64.312,122.533,62.849L122.533,62.849z"/>
		</g>
	</g>
	<g>
		<g>
			<polygon id="SVGID_8_" points="33.956,54.017 93.957,88.018 33.956,88.018 			"/>
		</g>
	</g>
	<g>
		<g>
			<path id="SVGID_10_" d="M98.197,83.616c0,0-1.383-0.825-3.602-2.146c0.094,2.096-1.505,3.894-3.607,4.025
				c-2.127,0.134-3.961-1.48-4.094-3.607c-0.103-1.604,0.793-3.039,2.149-3.707c-6.511-3.85-15.126-8.91-21.125-12.304
				c0.034,0.17,0.073,0.336,0.084,0.514c0.136,2.127-1.481,3.959-3.608,4.094c-2.127,0.136-3.96-1.481-4.094-3.607
				c-0.11-1.728,0.945-3.245,2.479-3.833c-1.127-0.59-1.836-0.916-1.962-0.882c-1.001,0.265,9.339-16.466,9.339-16.466
				l37.431,22.262L98.197,83.616L98.197,83.616z M61.961,58.829l-1.512,2.429l-4.779-1.042l-11.288-6.325
				c-0.184,1.793-1.61,3.266-3.473,3.442c-2.122,0.202-4.006-1.355-4.207-3.476c-0.131-1.376,0.485-2.644,1.509-3.426l-2.153-1.207
				l4.828-6.341l9.252,4.186l5.319-3.917l8.51,5.175l-4.934,8.774L61.961,58.829L61.961,58.829z"/>
		</g>
	</g>
	
		<linearGradient id="SVGID_7_" gradientUnits="userSpaceOnUse" x1="219.0244" y1="-190.6934" x2="158.304" y2="-103.9758" gradientTransform="matrix(1 0 0 -1 -123.165 -81.835)">
		<stop  offset="0" style="stop-color:#000000;stop-opacity:0"/>
		<stop  offset="1" style="stop-color:#FFFFFF;stop-opacity:0.25"/>
	</linearGradient>
	<path fill="url(#SVGID_7_)" d="M71.428,5.262l54.309,54.311c3.302,3.301,3.302,8.653,0,11.954l-54.207,54.209
		c-3.301,3.302-8.654,3.302-11.955,0L5.263,71.428c-3.301-3.303-3.301-8.656,0-11.957L59.471,5.262
		C62.772,1.961,68.126,1.961,71.428,5.262L71.428,5.262z"/>
</g>
<g id="normal">
	<g>
		<g>
			
				<linearGradient id="SVGID_9_" gradientUnits="userSpaceOnUse" x1="126.9521" y1="-148.3345" x2="252.3779" y2="-148.3345" gradientTransform="matrix(1 0 0 -1 -123.165 -81.835)">
				<stop  offset="0" style="stop-color:#000000;stop-opacity:0.6"/>
				<stop  offset="1" style="stop-color:#000000;stop-opacity:0.6"/>
			</linearGradient>
			<path id="SVGID_13_" fill="url(#SVGID_9_)" d="M72.428,6.262l54.309,54.311c3.302,3.301,3.302,8.653,0,11.954l-54.207,54.209
				c-3.301,3.302-8.654,3.302-11.955,0L6.263,72.428c-3.301-3.303-3.301-8.656,0-11.957L60.471,6.262
				C63.772,2.961,69.126,2.961,72.428,6.262L72.428,6.262z"/>
		</g>
		<g>
			<path id="SVGID_14_" fill="#FFDF0A" d="M71.428,5.262l54.309,54.311c3.302,3.301,3.302,8.653,0,11.954l-54.207,54.209
				c-3.301,3.302-8.654,3.302-11.955,0L5.263,71.428c-3.301-3.303-3.301-8.656,0-11.957L59.471,5.262
				C62.772,1.961,68.126,1.961,71.428,5.262L71.428,5.262z"/>
		</g>
		<g>
			<defs>
				<path id="SVGID_11_" d="M72.428,6.262l54.309,54.311c3.302,3.301,3.302,8.653,0,11.954l-54.207,54.209
					c-3.301,3.302-8.654,3.302-11.955,0L6.263,72.428c-3.301-3.303-3.301-8.656,0-11.957L60.471,6.262
					C63.772,2.961,69.126,2.961,72.428,6.262L72.428,6.262z"/>
			</defs>
			<clipPath id="SVGID_12_">
				<use xlink:href="#SVGID_11_"  overflow="visible"/>
			</clipPath>
		</g>
	</g>
	<g>
		<g>
			<path id="SVGID_18_" d="M123.159,71.27l-51.888,51.889c-3.162,3.16-8.285,3.16-11.443,0L7.842,71.173
				c-3.161-3.159-3.161-8.284,0-11.443L59.729,7.841c3.161-3.161,8.285-3.161,11.445,0l51.985,51.985
				C126.318,62.988,126.318,68.111,123.159,71.27L123.159,71.27z M122.533,62.849L68.205,8.522c-1.463-1.465-3.838-1.465-5.301,0
				L8.576,62.849c-1.463,1.463-1.463,3.838,0,5.301l54.329,54.326c1.463,1.463,3.838,1.463,5.301,0l54.327-54.326
				C123.998,66.686,123.998,64.312,122.533,62.849L122.533,62.849z"/>
		</g>
	</g>
	<g>
		<g>
			<polygon id="SVGID_20_" points="33.956,54.017 93.957,88.018 33.956,88.018 			"/>
		</g>
	</g>
	<g>
		<g>
			<path id="SVGID_22_" d="M98.197,83.616c0,0-1.383-0.825-3.602-2.146c0.094,2.096-1.505,3.894-3.607,4.025
				c-2.127,0.134-3.961-1.48-4.094-3.607c-0.103-1.604,0.793-3.039,2.149-3.707c-6.511-3.85-15.126-8.91-21.125-12.304
				c0.034,0.17,0.073,0.336,0.084,0.514c0.136,2.127-1.481,3.959-3.608,4.094c-2.127,0.136-3.96-1.481-4.094-3.607
				c-0.11-1.728,0.945-3.245,2.479-3.833c-1.127-0.59-1.836-0.916-1.962-0.882c-1.001,0.265,9.339-16.466,9.339-16.466
				l37.431,22.262L98.197,83.616L98.197,83.616z M61.961,58.829l-1.512,2.429l-4.779-1.042l-11.288-6.325
				c-0.184,1.793-1.61,3.266-3.473,3.442c-2.122,0.202-4.006-1.355-4.207-3.476c-0.131-1.376,0.485-2.644,1.509-3.426l-2.153-1.207
				l4.828-6.341l9.252,4.186l5.319-3.917l8.51,5.175l-4.934,8.774L61.961,58.829L61.961,58.829z"/>
		</g>
	</g>
	
		<linearGradient id="SVGID_15_" gradientUnits="userSpaceOnUse" x1="219.0244" y1="-190.6934" x2="158.304" y2="-103.9758" gradientTransform="matrix(1 0 0 -1 -123.165 -81.835)">
		<stop  offset="0" style="stop-color:#000000;stop-opacity:0"/>
		<stop  offset="1" style="stop-color:#FFFFFF;stop-opacity:0.25"/>
	</linearGradient>
	<path fill="url(#SVGID_15_)" d="M71.428,5.262l54.309,54.311c3.302,3.301,3.302,8.653,0,11.954l-54.207,54.209
		c-3.301,3.302-8.654,3.302-11.955,0L5.263,71.428c-3.301-3.303-3.301-8.656,0-11.957L59.471,5.262
		C62.772,1.961,68.126,1.961,71.428,5.262L71.428,5.262z"/>
</g>
</svg>
