<?xml version="1.0" encoding="utf-8"?>
<!-- Generator: Adobe Illustrator 17.1.0, SVG Export Plug-In . SVG Version: 6.00 Build 0)  -->
<!DOCTYPE svg PUBLIC "-//W3C//DTD SVG 1.1//EN" "http://www.w3.org/Graphics/SVG/1.1/DTD/svg11.dtd">
<svg version="1.1" xmlns="http://www.w3.org/2000/svg" xmlns:xlink="http://www.w3.org/1999/xlink" x="0px" y="0px" width="180px"
	 height="72px" viewBox="0 0 180 72" enable-background="new 0 0 180 72" xml:space="preserve">
<g id="normal">
	<g>
		<g>
			<polygon fill-rule="evenodd" clip-rule="evenodd" points="-620,76 -620,64 180,64 180,76 -619,76 			"/>
		</g>
		<path fill-rule="evenodd" clip-rule="evenodd" d="M17,64C43.02,64.03,56.07,0,80,0c43.027,0,110,0,110,0v73c0,0-77.541,0-173,0
			C16.993,73,16.99,64,17,64L17,64z"/>
		<path fill-rule="evenodd" clip-rule="evenodd" d="M-457,64c-26.018,0.032-39.07-64-63-64c-43.029,0-110,0-110,0v72
			c0,0,77.541,0,173,0C-456.992,72-456.988,64-457,64L-457,64z"/>
	</g>
	<g>
		<path fill="#0309d2" d="M189,1v71h-9h-1v1v2h-798v-2v-1h-1h-9V1.038C-620.517,1.033-559.943,1-520,1
			c11.146,0,20.001,14.822,29.376,30.515C-480.845,47.883-470.733,64.809-457,65H16h1.018c13.846,0,23.953-17.026,33.727-33.491
			C60.059,15.819,68.856,1,80,1H189 M190,0c0,0-66.973,0-110,0C56.074,0,43.029,64,17.018,64c-0.005,0-0.014,0-0.018,0h-1h-473
			c-25.856-0.36-39.144-64-63-64c-43.029,0-110,0.038-110,0.038V73c0,0,3.533,0,10,0v3h1h799v-3c6.467,0,10,0,10,0V0L190,0z"/>
	</g>
</g>
<g id="disabled">
	<g>
		<g>
			<polygon fill-rule="evenodd" clip-rule="evenodd" points="-620,76 -620,64 180,64 180,76 -619,76 			"/>
		</g>
		<path fill-rule="evenodd" clip-rule="evenodd" d="M17,64C43.02,64.03,56.07,0,80,0c43.027,0,110,0,110,0v73c0,0-77.541,0-173,0
			C16.993,73,16.99,64,17,64L17,64z"/>
		<path fill-rule="evenodd" clip-rule="evenodd" d="M-457,64c-26.018,0.032-39.07-64-63-64c-43.029,0-110,0-110,0v72
			c0,0,77.541,0,173,0C-456.992,72-456.988,64-457,64L-457,64z"/>
	</g>
	<g>
		<path fill="#0309d2" d="M189,1v71h-9h-1v1v2h-798v-2v-1h-1h-9V1.038C-620.517,1.033-559.943,1-520,1
			c11.146,0,20.001,14.822,29.376,30.515C-480.845,47.883-470.733,64.809-457,65H16h1.018c13.846,0,23.953-17.026,33.727-33.491
			C60.059,15.819,68.856,1,80,1H189 M190,0c0,0-66.973,0-110,0C56.074,0,43.029,64,17.018,64c-0.005,0-0.014,0-0.018,0h-1h-473
			c-25.856-0.36-39.144-64-63-64c-43.029,0-110,0.038-110,0.038V73c0,0,3.533,0,10,0v3h1h799v-3c6.467,0,10,0,10,0V0L190,0z"/>
	</g>
</g>
<g id="active">
	<g>
		<g>
			<polygon fill-rule="evenodd" clip-rule="evenodd" points="-620,76 -620,64 180,64 180,76 -619,76 			"/>
		</g>
		<linearGradient id="SVGID_1_" gradientUnits="userSpaceOnUse" x1="16.9937" y1="36.5" x2="190" y2="36.5">
			<stop  offset="0" style="stop-color:#000000"/>
			<stop  offset="0.07" style="stop-color:#21259b"/>
		</linearGradient>
		<path fill-rule="evenodd" clip-rule="evenodd" fill="url(#SVGID_1_)" d="M17,64C43.02,64.03,56.07,0,80,0c43.027,0,110,0,110,0v73
			c0,0-77.541,0-173,0C16.993,73,16.99,64,17,64L17,64z"/>
		<path display="none" fill-rule="evenodd" clip-rule="evenodd" d="M-457,64c-26.018,0.032-39.07-64-63-64c-43.029,0-110,0-110,0v72
			c0,0,77.541,0,173,0C-456.992,72-456.988,64-457,64L-457,64z"/>
	</g>
	<g>
		<path fill="#0309d2" d="M189,1v71h-9h-1v1v2h-798v-2v-1h-1h-9V1.038C-620.517,1.033-559.943,1-520,1
			c11.146,0,20.001,14.822,29.376,30.515C-480.845,47.883-470.733,64.809-457,65H16h1.018c13.846,0,23.953-17.026,33.727-33.491
			C60.059,15.819,68.856,1,80,1H189 M190,0c0,0-66.973,0-110,0C56.074,0,43.029,64,17.018,64c-0.005,0-0.014,0-0.018,0h-1h-473
			c-25.856-0.36-39.144-64-63-64c-43.029,0-110,0.038-110,0.038V73c0,0,3.533,0,10,0v3h1h799v-3c6.467,0,10,0,10,0V0L190,0z"/>
	</g>
</g>
</svg>
