<?xml version="1.0" encoding="utf-8"?>
<!-- Generator: Adobe Illustrator 16.0.2, SVG Export Plug-In . SVG Version: 6.00 Build 0)  -->
<!DOCTYPE svg PUBLIC "-//W3C//DTD SVG 1.1//EN" "http://www.w3.org/Graphics/SVG/1.1/DTD/svg11.dtd">
<svg version="1.1" id="Layer_1" xmlns="http://www.w3.org/2000/svg" xmlns:xlink="http://www.w3.org/1999/xlink" x="0px" y="0px"
	 width="120px" height="120px" viewBox="0 0 120 120" enable-background="new 0 0 120 120" xml:space="preserve">
<g id="black_white">
	<g>
		
			<linearGradient id="SVGID_1_" gradientUnits="userSpaceOnUse" x1="-176.5991" y1="-345.6128" x2="-176.5991" y2="-254.1885" gradientTransform="matrix(-1 0 0 -1 -116.5996 -239.9004)">
			<stop  offset="0" style="stop-color:#0369B0"/>
			<stop  offset="1" style="stop-color:#1E7FC3"/>
		</linearGradient>
		<ellipse fill="url(#SVGID_1_)" cx="60" cy="60" rx="45.839" ry="45.712"/>
		<path fill="#FFFFFF" d="M41.945,44.427c-3.68-2.99-4.145-3.37-7.841-6.967c6.771-8.006,18.397-11.933,29.968-11.006l2.18,0.227
			c3.984,0.532,7.924,1.654,11.621,3.389l2.662-4.274l4.893,15.866l-15.266,0.793l2.63-4.225
			C62.896,33.362,49.749,35.562,41.945,44.427L41.945,44.427z M24.633,60.038l-5.043-0.165l11.342-12.149l8.312,12.793l-4.963-0.163
			c0.711,10.982,9.165,21.241,20.762,23.558c-0.759,4.672-0.857,5.265-2.136,10.253c-10.338-1.854-19.553-9.938-24.526-20.398
			l-0.89-1.996C25.962,68.064,24.971,64.1,24.633,60.038L24.633,60.038z M79.678,95.374l-16.226-3.709l6.946-13.581l2.343,4.366
			c9.175-6.111,13.85-18.546,10.056-29.718c4.436-1.683,4.998-1.895,9.969-3.288c3.567,9.851,1.164,21.854-5.429,31.383
			l-1.286,1.771c-2.455,3.174-5.4,6.014-8.755,8.34L79.678,95.374z"/>
	</g>
</g>
<g id="blue">
	<path fill-opacity="0.1" d="M43.191,103.309c-5.477-2.317-10.395-5.634-14.619-9.855c-4.223-4.225-7.54-9.143-9.855-14.619
		c-2.401-5.673-3.616-11.697-3.616-17.904c0-6.208,1.215-12.23,3.616-17.904c2.316-5.477,5.632-10.395,9.855-14.619
		c4.224-4.223,9.142-7.538,14.619-9.855c5.673-2.399,11.696-3.615,17.905-3.615c6.207,0,12.23,1.215,17.902,3.615
		c5.477,2.317,10.396,5.632,14.618,9.855c4.224,4.223,7.54,9.142,9.856,14.619c2.399,5.672,3.614,11.696,3.614,17.904
		c0,6.207-1.215,12.232-3.614,17.904c-2.316,5.479-5.634,10.396-9.856,14.619c-4.224,4.223-9.142,7.538-14.618,9.855
		c-5.673,2.398-11.695,3.613-17.902,3.613C54.887,106.922,48.864,105.707,43.191,103.309"/>
	<path fill="#70B7E0" d="M41.191,101.309c-5.477-2.317-10.395-5.634-14.619-9.855c-4.223-4.225-7.54-9.143-9.856-14.619
		C14.315,71.161,13.1,65.137,13.1,58.929c0-6.208,1.215-12.231,3.616-17.903c2.316-5.477,5.632-10.395,9.856-14.619
		c4.224-4.223,9.142-7.538,14.619-9.855c5.673-2.399,11.696-3.615,17.904-3.615c6.208,0,12.231,1.215,17.903,3.615
		c5.477,2.317,10.396,5.632,14.618,9.855c4.224,4.223,7.54,9.142,9.856,14.619c2.399,5.672,3.614,11.696,3.614,17.903
		c0,6.208-1.215,12.232-3.614,17.905c-2.316,5.479-5.634,10.396-9.856,14.619c-4.224,4.223-9.142,7.538-14.618,9.855
		c-5.673,2.398-11.695,3.613-17.903,3.613C52.887,104.922,46.864,103.707,41.191,101.309"/>
	<g>
		
			<linearGradient id="SVGID_2_" gradientUnits="userSpaceOnUse" x1="-181.5054" y1="-341.8247" x2="-181.5054" y2="-255.8364" gradientTransform="matrix(-1 0 0 -1 -122.4102 -239.9004)">
			<stop  offset="0" style="stop-color:#48A2FB"/>
			<stop  offset="0.1758" style="stop-color:#059CF4"/>
			<stop  offset="0.4969" style="stop-color:#0398EF"/>
			<stop  offset="0.782" style="stop-color:#0293E7"/>
			<stop  offset="1" style="stop-color:#0189D8"/>
		</linearGradient>
		<path fill="url(#SVGID_2_)" d="M59.095,15.936c-23.744,0-42.994,19.249-42.994,42.993c0,23.746,19.25,42.995,42.994,42.995
			c23.744,0,42.995-19.249,42.995-42.995C102.09,35.184,82.839,15.936,59.095,15.936L59.095,15.936z"/>
	</g>
	
		<linearGradient id="SVGID_3_" gradientUnits="userSpaceOnUse" x1="296.6953" y1="-283.9473" x2="296.6953" y2="-257.4883" gradientTransform="matrix(1 0 0 -1 -237.5996 -239.9004)">
		<stop  offset="0" style="stop-color:#FFFFFF;stop-opacity:0"/>
		<stop  offset="1" style="stop-color:#FFFFFF;stop-opacity:0.8"/>
	</linearGradient>
	<path fill="url(#SVGID_3_)" d="M59.095,17.588c15.068,0,28.111,8.268,28.111,13.23c0,7.306-13.043,13.229-28.111,13.229
		c-15.069,0-28.112-5.922-28.112-13.229C30.983,25.857,44.026,17.588,59.095,17.588L59.095,17.588z"/>
	<path display="none" fill="#70B7E0" d="M80.502,95.372c-0.341,0.446-0.865,0.7-1.414,0.7c-0.132,0-0.266-0.016-0.398-0.047
		l-16.344-3.741c-0.533-0.122-0.982-0.484-1.216-0.981c-0.11-0.24-0.166-0.496-0.166-0.753c0-0.278,0.065-0.558,0.194-0.81
		l6.996-13.702c0.303-0.589,0.906-0.962,1.568-0.968c0.006,0,0.01,0,0.016,0c0.656,0,1.261,0.357,1.57,0.938
		c0,0,0.719,1.342,1.393,2.6c2.514-2.021,4.634-4.614,6.197-7.594c1.887-3.599,2.883-7.611,2.883-11.61
		c0-2.591-0.416-5.135-1.24-7.561c-0.063-0.19-0.094-0.382-0.094-0.573c0-0.719,0.439-1.395,1.148-1.663
		c4.514-1.715,5.094-1.935,10.194-3.367c0.161-0.044,0.321-0.066,0.481-0.066c0.729,0,1.412,0.455,1.672,1.175
		c1.173,3.246,1.769,6.758,1.769,10.443c0,7.503-2.464,15.321-6.95,22.104c0.002,0.035-1.752,2.529-1.929,2.699
		c-2.292,2.947-4.924,5.549-7.842,7.75c0.706,1.319,1.665,3.104,1.665,3.104c0.141,0.265,0.211,0.554,0.211,0.841
		C80.867,94.675,80.744,95.057,80.502,95.372 M53.845,93.516c-0.202,0.801-0.924,1.338-1.723,1.338c-0.104,0-0.208-0.01-0.316-0.027
		c-5.34-0.959-10.6-3.527-15.211-7.428c-4.235-3.578-7.68-8.25-10.398-13.349c-0.406-0.762-1.32-2.791-1.375-3.022
		c-1.409-3.455-2.344-7.031-2.79-10.658c-1.496-0.049-3.526-0.115-3.526-0.115c-0.697-0.021-1.317-0.449-1.586-1.095
		c-0.09-0.221-0.136-0.454-0.136-0.683c0-0.441,0.165-0.878,0.478-1.213l11.425-12.256c0.339-0.364,0.811-0.568,1.301-0.568
		c0.053,0,0.103,0.003,0.157,0.007c0.544,0.049,1.039,0.345,1.338,0.804l8.371,12.908c0.192,0.293,0.287,0.629,0.287,0.967
		c0,0.302-0.078,0.604-0.231,0.876c-0.314,0.562-0.907,0.905-1.549,0.905c-0.019,0-0.038,0-0.059,0c0,0-1.521-0.053-2.949-0.1
		c0.68,4.379,2.664,8.633,5.702,12.153c3.567,4.138,8.387,6.985,13.569,8.022c0.844,0.17,1.431,0.91,1.431,1.744
		c0,0.094-0.007,0.19-0.023,0.287C55.258,87.777,55.157,88.391,53.845,93.516 M42.419,44.065c-0.35,0.4-0.843,0.605-1.337,0.605
		c-0.396,0-0.794-0.132-1.124-0.399c-3.745-3.048-4.225-3.438-8.018-7.135c-0.356-0.348-0.537-0.81-0.537-1.274
		c0-0.406,0.138-0.815,0.42-1.149c3.159-3.741,7.471-6.802,12.469-8.853c4.806-1.973,10.237-3.016,15.71-3.016
		c0.867,0,2.027,0.043,2.629,0.05c0.705,0.009,3.08,0.281,3.307,0.348c3.703,0.507,7.273,1.484,10.64,2.907
		c0.79-1.271,1.862-2.996,1.862-2.996c0.326-0.526,0.901-0.838,1.513-0.838c0.075,0,0.151,0.005,0.229,0.015
		c0.69,0.088,1.268,0.574,1.473,1.242l4.928,16.007c0.053,0.171,0.077,0.347,0.077,0.522c0,0.361-0.109,0.718-0.322,1.022
		c-0.313,0.449-0.817,0.728-1.364,0.756l-15.377,0.8c-0.031,0.002-0.063,0.003-0.093,0.003c-0.629,0-1.212-0.332-1.532-0.875
		c-0.166-0.28-0.248-0.594-0.248-0.906c0-0.326,0.09-0.651,0.27-0.939c0,0,0.809-1.301,1.564-2.518
		c-2.689-1.038-5.637-1.58-8.631-1.58C53.743,35.865,46.997,38.854,42.419,44.065"/>
	<path fill="#70B7E0" d="M78.916,95.035l-16.344-3.742c-0.227-0.053-0.422-0.21-0.52-0.418c-0.048-0.104-0.072-0.213-0.072-0.325
		c0-0.12,0.028-0.239,0.084-0.347l6.996-13.701c0.129-0.253,0.387-0.412,0.678-0.415c0.283,0,0.541,0.154,0.674,0.399l1.393,2.601
		c0.143,0.267,0.397,0.456,0.693,0.517c0.066,0.014,0.136,0.021,0.203,0.021c0.229,0,0.455-0.078,0.637-0.226
		c2.611-2.098,4.846-4.834,6.462-7.914c1.962-3.742,2.999-7.92,2.999-12.082c0-2.706-0.436-5.36-1.293-7.883
		c-0.025-0.082-0.041-0.166-0.041-0.25c0-0.315,0.197-0.601,0.493-0.712c4.476-1.7,5.05-1.918,10.104-3.337
		c0.071-0.02,0.141-0.03,0.209-0.03c0.318,0,0.605,0.202,0.715,0.503c1.135,3.136,1.709,6.533,1.709,10.098
		c0,7.278-2.408,14.931-6.782,21.545c-0.015,0.022-0.028,0.045-0.041,0.067c-0.207,0.32-1.571,2.254-1.742,2.455
		c-0.034,0.035-0.067,0.072-0.101,0.111c-2.231,2.873-4.807,5.416-7.649,7.563c-0.399,0.302-0.521,0.851-0.284,1.292l1.663,3.102
		c0.062,0.113,0.093,0.238,0.093,0.363c0,0.167-0.056,0.33-0.158,0.464c-0.144,0.187-0.367,0.3-0.604,0.3
		C79.031,95.055,78.975,95.049,78.916,95.035z M51.985,93.824c-5.165-0.928-10.26-3.42-14.734-7.203
		c-3.863-3.266-7.28-7.655-10.156-13.051c-0.391-0.73-1.209-2.561-1.283-2.776c-0.013-0.052-0.029-0.101-0.049-0.149
		c-1.371-3.365-2.287-6.863-2.722-10.4c-0.061-0.497-0.476-0.876-0.977-0.892l-3.527-0.115c-0.298-0.009-0.563-0.193-0.676-0.463
		c-0.04-0.097-0.061-0.2-0.061-0.298c0-0.194,0.072-0.378,0.204-0.52L29.43,45.699c0.141-0.152,0.338-0.24,0.606-0.24
		c0.006,0,0.011,0,0.016,0c0.233,0.021,0.449,0.15,0.575,0.344l8.374,12.911c0.079,0.122,0.121,0.264,0.121,0.411
		c0,0.13-0.035,0.261-0.102,0.378c-0.134,0.239-0.388,0.388-0.686,0.388c0,0-2.973-0.101-2.984-0.101
		c-0.291,0-0.567,0.125-0.762,0.343c-0.2,0.227-0.29,0.532-0.243,0.831c0.716,4.612,2.769,8.991,5.937,12.661
		c3.714,4.309,8.736,7.275,14.138,8.355c0.356,0.071,0.615,0.387,0.615,0.746c0,0.041-0.003,0.082-0.01,0.125
		c-0.765,4.713-0.863,5.318-2.168,10.412c-0.084,0.338-0.388,0.571-0.736,0.571C52.073,93.836,52.023,93.83,51.985,93.824z
		 M40.59,43.474c-3.706-3.016-4.182-3.404-7.939-7.065c-0.148-0.146-0.23-0.34-0.23-0.547c0-0.18,0.064-0.355,0.181-0.493
		c3.054-3.616,7.23-6.579,12.077-8.568c4.686-1.923,9.983-2.94,15.324-2.94c0.535,0,1.185,0.016,1.739,0.031
		c0.341,0.008,0.648,0.016,0.877,0.019c0.628,0.008,2.775,0.254,3.029,0.306c0.051,0.015,0.102,0.025,0.151,0.032
		c3.604,0.493,7.097,1.447,10.38,2.836c0.129,0.054,0.264,0.08,0.396,0.08c0.343,0,0.673-0.173,0.863-0.479
		c0.776-1.249,1.826-2.936,1.865-2.997c0.137-0.22,0.385-0.357,0.646-0.357c0.035,0,0.068,0.002,0.1,0.006
		c0.295,0.038,0.541,0.246,0.629,0.532l4.928,16.008c0.021,0.071,0.033,0.146,0.033,0.223c0,0.158-0.048,0.309-0.14,0.44
		c-0.132,0.19-0.351,0.31-0.583,0.323l-15.417,0.801c-0.269,0-0.521-0.144-0.657-0.376c-0.068-0.117-0.105-0.25-0.105-0.387
		c0-0.142,0.039-0.281,0.115-0.402l1.563-2.518c0.16-0.257,0.196-0.573,0.103-0.86c-0.098-0.288-0.316-0.517-0.599-0.626
		c-2.794-1.078-5.905-1.648-8.998-1.648c-7.475,0-14.497,3.115-19.27,8.547c-0.145,0.164-0.353,0.258-0.572,0.258
		C40.959,43.653,40.773,43.624,40.59,43.474z"/>
	<path fill="#FFFFFF" d="M75.119,90.656c0,0,0.354,0.664,0.55,1.027c-3.687-0.845-7.877-1.802-10.302-2.357
		c1.115-2.184,2.891-5.662,4.41-8.639c0.328,0.61,0.754,1.405,0.754,1.405c0.238,0.442,0.65,0.765,1.137,0.886
		c0.143,0.035,0.289,0.055,0.432,0.055c0.35,0,0.693-0.104,0.988-0.301c7.559-5.043,12.254-13.98,12.254-23.33
		c0-2.401-0.313-4.769-0.929-7.059c2.618-0.987,3.72-1.363,6.694-2.213c0.692,2.412,1.045,4.981,1.045,7.66
		c0,7.059-2.422,14.449-6.815,20.813c-0.165,0.24-1.056,1.506-1.056,1.506c-0.067,0.063-0.127,0.131-0.184,0.205
		c-2.418,3.131-5.255,5.836-8.426,8.039c-0.494,0.344-0.765,0.896-0.765,1.463C74.908,90.102,74.977,90.391,75.119,90.656
		 M52.25,84.083c-0.452,2.761-0.679,3.899-1.431,6.892c-8.907-2.225-17.148-9.457-21.794-19.242
		c-0.124-0.264-0.773-1.666-0.771-1.666c-0.021-0.09-0.052-0.178-0.086-0.264c-1.505-3.656-2.43-7.459-2.752-11.309
		c-0.074-0.9-0.813-1.601-1.715-1.63c0,0-0.754-0.024-1.168-0.039c2.579-2.766,5.506-5.907,7.201-7.725
		c1.333,2.053,3.458,5.331,5.277,8.136c-0.691-0.022-1.592-0.052-1.592-0.052c-0.022,0-0.041-0.002-0.061-0.002
		c-0.48,0-0.942,0.195-1.276,0.542c-0.323,0.332-0.501,0.776-0.501,1.237c0,0.038,0,0.076,0.004,0.114
		c0.377,5.827,2.78,11.585,6.774,16.211C42.056,79.574,46.938,82.654,52.25,84.083 M60.924,32.306
		c-7.613,0-14.807,2.953-20.004,8.156c-2.168-1.772-3.045-2.534-5.265-4.679c5.706-5.899,14.669-9.378,24.347-9.378
		c1.063,0,2.146,0.042,3.225,0.129c0.047,0.004,0.094,0.006,0.142,0.006c0.239,0,1.69,0.155,1.69,0.155
		c0.088,0.025,0.178,0.044,0.269,0.057c3.928,0.526,7.69,1.625,11.187,3.266c0.242,0.116,0.502,0.169,0.756,0.169
		c0.6,0,1.178-0.302,1.512-0.839c0,0,0.4-0.643,0.619-0.997c1.111,3.61,2.375,7.717,3.104,10.092
		c-2.448,0.126-6.353,0.33-9.692,0.504c0.371-0.595,0.852-1.368,0.852-1.368c0.178-0.285,0.27-0.61,0.27-0.94
		c0-0.164-0.022-0.328-0.07-0.489c-0.137-0.483-0.475-0.885-0.924-1.107C69.303,33.253,65.146,32.306,60.924,32.306"/>
</g>
<g id="green">
	<path fill-opacity="0.1" d="M43.191,103.309c-5.477-2.317-10.395-5.634-14.619-9.855c-4.223-4.225-7.54-9.143-9.855-14.619
		c-2.401-5.673-3.616-11.697-3.616-17.904c0-6.208,1.215-12.23,3.616-17.904c2.316-5.477,5.632-10.395,9.855-14.619
		c4.224-4.223,9.142-7.538,14.619-9.855c5.673-2.399,11.696-3.615,17.905-3.615c6.207,0,12.23,1.215,17.902,3.615
		c5.477,2.317,10.396,5.632,14.618,9.855c4.224,4.223,7.54,9.142,9.856,14.619c2.399,5.672,3.614,11.696,3.614,17.904
		c0,6.207-1.215,12.232-3.614,17.904c-2.316,5.479-5.634,10.396-9.856,14.619c-4.224,4.223-9.142,7.538-14.618,9.855
		c-5.673,2.398-11.695,3.613-17.902,3.613C54.887,106.922,48.864,105.707,43.191,103.309"/>
	<path fill="#03FC30" d="M41.191,101.309c-5.477-2.317-10.395-5.634-14.619-9.855c-4.223-4.225-7.54-9.143-9.856-14.619
		C14.315,71.161,13.1,65.137,13.1,58.929c0-6.208,1.215-12.231,3.616-17.903c2.316-5.477,5.632-10.395,9.856-14.619
		c4.224-4.223,9.142-7.538,14.619-9.855c5.673-2.399,11.696-3.615,17.904-3.615c6.208,0,12.231,1.215,17.903,3.615
		c5.477,2.317,10.396,5.632,14.618,9.855c4.224,4.223,7.54,9.142,9.856,14.619c2.399,5.672,3.614,11.696,3.614,17.903
		c0,6.208-1.215,12.232-3.614,17.905c-2.316,5.479-5.634,10.396-9.856,14.619c-4.224,4.223-9.142,7.538-14.618,9.855
		c-5.673,2.398-11.695,3.613-17.903,3.613C52.887,104.922,46.864,103.707,41.191,101.309"/>
	<g>
		
			<linearGradient id="SVGID_4_" gradientUnits="userSpaceOnUse" x1="-181.5054" y1="-341.8247" x2="-181.5054" y2="-255.8364" gradientTransform="matrix(-1 0 0 -1 -122.4102 -239.9004)">
			<stop  offset="0" style="stop-color:#00DF34"/>
			<stop  offset="0.1758" style="stop-color:#00CD26"/>
			<stop  offset="0.4969" style="stop-color:#00B211"/>
			<stop  offset="0.782" style="stop-color:#00A204"/>
			<stop  offset="1" style="stop-color:#009C00"/>
		</linearGradient>
		<path fill="url(#SVGID_4_)" d="M59.095,15.936c-23.744,0-42.994,19.249-42.994,42.993c0,23.746,19.25,42.995,42.994,42.995
			c23.744,0,42.995-19.249,42.995-42.995C102.09,35.184,82.839,15.936,59.095,15.936L59.095,15.936z"/>
	</g>
	
		<linearGradient id="SVGID_5_" gradientUnits="userSpaceOnUse" x1="296.6953" y1="-283.9473" x2="296.6953" y2="-257.4883" gradientTransform="matrix(1 0 0 -1 -237.5996 -239.9004)">
		<stop  offset="0" style="stop-color:#FFFFFF;stop-opacity:0"/>
		<stop  offset="1" style="stop-color:#FFFFFF;stop-opacity:0.8"/>
	</linearGradient>
	<path fill="url(#SVGID_5_)" d="M59.095,17.588c15.068,0,28.111,8.268,28.111,13.23c0,7.306-13.043,13.229-28.111,13.229
		c-15.069,0-28.112-5.922-28.112-13.229C30.983,25.857,44.026,17.588,59.095,17.588L59.095,17.588z"/>
	<path display="none" fill="#03FC30" d="M80.502,95.372c-0.341,0.446-0.865,0.7-1.414,0.7c-0.132,0-0.266-0.016-0.398-0.047
		l-16.344-3.741c-0.533-0.122-0.982-0.484-1.216-0.981c-0.11-0.24-0.166-0.496-0.166-0.753c0-0.278,0.065-0.558,0.194-0.81
		l6.996-13.702c0.303-0.589,0.906-0.962,1.568-0.968c0.006,0,0.01,0,0.016,0c0.656,0,1.261,0.357,1.57,0.938
		c0,0,0.719,1.342,1.393,2.6c2.514-2.021,4.634-4.614,6.197-7.594c1.887-3.599,2.883-7.611,2.883-11.61
		c0-2.591-0.416-5.135-1.24-7.561c-0.063-0.19-0.094-0.382-0.094-0.573c0-0.719,0.439-1.395,1.148-1.663
		c4.514-1.715,5.094-1.935,10.194-3.367c0.161-0.044,0.321-0.066,0.481-0.066c0.729,0,1.412,0.455,1.672,1.175
		c1.173,3.246,1.769,6.758,1.769,10.443c0,7.503-2.464,15.321-6.95,22.104c0.002,0.035-1.752,2.529-1.929,2.699
		c-2.292,2.947-4.924,5.549-7.842,7.75c0.706,1.319,1.665,3.104,1.665,3.104c0.141,0.265,0.211,0.554,0.211,0.841
		C80.867,94.675,80.744,95.057,80.502,95.372 M53.845,93.516c-0.202,0.801-0.924,1.338-1.723,1.338c-0.104,0-0.208-0.01-0.316-0.027
		c-5.34-0.959-10.6-3.527-15.211-7.428c-4.235-3.578-7.68-8.25-10.398-13.349c-0.406-0.762-1.32-2.791-1.375-3.022
		c-1.409-3.455-2.344-7.031-2.79-10.658c-1.496-0.049-3.526-0.115-3.526-0.115c-0.697-0.021-1.317-0.449-1.586-1.095
		c-0.09-0.221-0.136-0.454-0.136-0.683c0-0.441,0.165-0.878,0.478-1.213l11.425-12.256c0.339-0.364,0.811-0.568,1.301-0.568
		c0.053,0,0.103,0.003,0.157,0.007c0.544,0.049,1.039,0.345,1.338,0.804l8.371,12.908c0.192,0.293,0.287,0.629,0.287,0.967
		c0,0.302-0.078,0.604-0.231,0.876c-0.314,0.562-0.907,0.905-1.549,0.905c-0.019,0-0.038,0-0.059,0c0,0-1.521-0.053-2.949-0.1
		c0.68,4.379,2.664,8.633,5.702,12.153c3.567,4.138,8.387,6.985,13.569,8.022c0.844,0.17,1.431,0.91,1.431,1.744
		c0,0.094-0.007,0.19-0.023,0.287C55.258,87.777,55.157,88.391,53.845,93.516 M42.419,44.065c-0.35,0.4-0.843,0.605-1.337,0.605
		c-0.396,0-0.794-0.132-1.124-0.399c-3.745-3.048-4.225-3.438-8.018-7.135c-0.356-0.348-0.537-0.81-0.537-1.274
		c0-0.406,0.138-0.815,0.42-1.149c3.159-3.741,7.471-6.802,12.469-8.853c4.806-1.973,10.237-3.016,15.71-3.016
		c0.867,0,2.027,0.043,2.629,0.05c0.705,0.009,3.08,0.281,3.307,0.348c3.703,0.507,7.273,1.484,10.64,2.907
		c0.79-1.271,1.862-2.996,1.862-2.996c0.326-0.526,0.901-0.838,1.513-0.838c0.075,0,0.151,0.005,0.229,0.015
		c0.69,0.088,1.268,0.574,1.473,1.242l4.928,16.007c0.053,0.171,0.077,0.347,0.077,0.522c0,0.361-0.109,0.718-0.322,1.022
		c-0.313,0.449-0.817,0.728-1.364,0.756l-15.377,0.8c-0.031,0.002-0.063,0.003-0.093,0.003c-0.629,0-1.212-0.332-1.532-0.875
		c-0.166-0.28-0.248-0.594-0.248-0.906c0-0.326,0.09-0.651,0.27-0.939c0,0,0.809-1.301,1.564-2.518
		c-2.689-1.038-5.637-1.58-8.631-1.58C53.743,35.865,46.997,38.854,42.419,44.065"/>
	<path fill="#03FC30" d="M78.916,95.035l-16.344-3.742c-0.227-0.053-0.422-0.21-0.52-0.418c-0.048-0.104-0.072-0.213-0.072-0.325
		c0-0.12,0.028-0.239,0.084-0.347l6.996-13.701c0.129-0.253,0.387-0.412,0.678-0.415c0.283,0,0.541,0.154,0.674,0.399l1.393,2.601
		c0.143,0.267,0.397,0.456,0.693,0.517c0.066,0.014,0.136,0.021,0.203,0.021c0.229,0,0.455-0.078,0.637-0.226
		c2.611-2.098,4.846-4.834,6.462-7.914c1.962-3.742,2.999-7.92,2.999-12.082c0-2.706-0.436-5.36-1.293-7.883
		c-0.025-0.082-0.041-0.166-0.041-0.25c0-0.315,0.197-0.601,0.493-0.712c4.476-1.7,5.05-1.918,10.104-3.337
		c0.071-0.02,0.141-0.03,0.209-0.03c0.318,0,0.605,0.202,0.715,0.503c1.135,3.136,1.709,6.533,1.709,10.098
		c0,7.278-2.408,14.931-6.782,21.545c-0.015,0.022-0.028,0.045-0.041,0.067c-0.207,0.32-1.571,2.254-1.742,2.455
		c-0.034,0.035-0.067,0.072-0.101,0.111c-2.231,2.873-4.807,5.416-7.649,7.563c-0.399,0.302-0.521,0.851-0.284,1.292l1.663,3.102
		c0.062,0.113,0.093,0.238,0.093,0.363c0,0.167-0.056,0.33-0.158,0.464c-0.144,0.187-0.367,0.3-0.604,0.3
		C79.031,95.055,78.975,95.049,78.916,95.035z M51.985,93.824c-5.165-0.928-10.26-3.42-14.734-7.203
		c-3.863-3.266-7.28-7.655-10.156-13.051c-0.391-0.73-1.209-2.561-1.283-2.776c-0.013-0.052-0.029-0.101-0.049-0.149
		c-1.371-3.365-2.287-6.863-2.722-10.4c-0.061-0.497-0.476-0.876-0.977-0.892l-3.527-0.115c-0.298-0.009-0.563-0.193-0.676-0.463
		c-0.04-0.097-0.061-0.2-0.061-0.298c0-0.194,0.072-0.378,0.204-0.52L29.43,45.699c0.141-0.152,0.338-0.24,0.606-0.24
		c0.006,0,0.011,0,0.016,0c0.233,0.021,0.449,0.15,0.575,0.344l8.374,12.911c0.079,0.122,0.121,0.264,0.121,0.411
		c0,0.13-0.035,0.261-0.102,0.378c-0.134,0.239-0.388,0.388-0.686,0.388c0,0-2.973-0.101-2.984-0.101
		c-0.291,0-0.567,0.125-0.762,0.343c-0.2,0.227-0.29,0.532-0.243,0.831c0.716,4.612,2.769,8.991,5.937,12.661
		c3.714,4.309,8.736,7.275,14.138,8.355c0.356,0.071,0.615,0.387,0.615,0.746c0,0.041-0.003,0.082-0.01,0.125
		c-0.765,4.713-0.863,5.318-2.168,10.412c-0.084,0.338-0.388,0.571-0.736,0.571C52.073,93.836,52.023,93.83,51.985,93.824z
		 M40.59,43.474c-3.706-3.016-4.182-3.404-7.939-7.065c-0.148-0.146-0.23-0.34-0.23-0.547c0-0.18,0.064-0.355,0.181-0.493
		c3.054-3.616,7.23-6.579,12.077-8.568c4.686-1.923,9.983-2.94,15.324-2.94c0.535,0,1.185,0.016,1.739,0.031
		c0.341,0.008,0.648,0.016,0.877,0.019c0.628,0.008,2.775,0.254,3.029,0.306c0.051,0.015,0.102,0.025,0.151,0.032
		c3.604,0.493,7.097,1.447,10.38,2.836c0.129,0.054,0.264,0.08,0.396,0.08c0.343,0,0.673-0.173,0.863-0.479
		c0.776-1.249,1.826-2.936,1.865-2.997c0.137-0.22,0.385-0.357,0.646-0.357c0.035,0,0.068,0.002,0.1,0.006
		c0.295,0.038,0.541,0.246,0.629,0.532l4.928,16.008c0.021,0.071,0.033,0.146,0.033,0.223c0,0.158-0.048,0.309-0.14,0.44
		c-0.132,0.19-0.351,0.31-0.583,0.323l-15.417,0.801c-0.269,0-0.521-0.144-0.657-0.376c-0.068-0.117-0.105-0.25-0.105-0.387
		c0-0.142,0.039-0.281,0.115-0.402l1.563-2.518c0.16-0.257,0.196-0.573,0.103-0.86c-0.098-0.288-0.316-0.517-0.599-0.626
		c-2.794-1.078-5.905-1.648-8.998-1.648c-7.475,0-14.497,3.115-19.27,8.547c-0.145,0.164-0.353,0.258-0.572,0.258
		C40.959,43.653,40.773,43.624,40.59,43.474z"/>
	<path fill="#FFFFFF" d="M75.119,90.656c0,0,0.354,0.664,0.55,1.027c-3.687-0.845-7.877-1.802-10.302-2.357
		c1.115-2.184,2.891-5.662,4.41-8.639c0.328,0.61,0.754,1.405,0.754,1.405c0.238,0.442,0.65,0.765,1.137,0.886
		c0.143,0.035,0.289,0.055,0.432,0.055c0.35,0,0.693-0.104,0.988-0.301c7.559-5.043,12.254-13.98,12.254-23.33
		c0-2.401-0.313-4.769-0.929-7.059c2.618-0.987,3.72-1.363,6.694-2.213c0.692,2.412,1.045,4.981,1.045,7.66
		c0,7.059-2.422,14.449-6.815,20.813c-0.165,0.24-1.056,1.506-1.056,1.506c-0.067,0.063-0.127,0.131-0.184,0.205
		c-2.418,3.131-5.255,5.836-8.426,8.039c-0.494,0.344-0.765,0.896-0.765,1.463C74.908,90.102,74.977,90.391,75.119,90.656
		 M52.25,84.083c-0.452,2.761-0.679,3.899-1.431,6.892c-8.907-2.225-17.148-9.457-21.794-19.242
		c-0.124-0.264-0.773-1.666-0.771-1.666c-0.021-0.09-0.052-0.178-0.086-0.264c-1.505-3.656-2.43-7.459-2.752-11.309
		c-0.074-0.9-0.813-1.601-1.715-1.63c0,0-0.754-0.024-1.168-0.039c2.579-2.766,5.506-5.907,7.201-7.725
		c1.333,2.053,3.458,5.331,5.277,8.136c-0.691-0.022-1.592-0.052-1.592-0.052c-0.022,0-0.041-0.002-0.061-0.002
		c-0.48,0-0.942,0.195-1.276,0.542c-0.323,0.332-0.501,0.776-0.501,1.237c0,0.038,0,0.076,0.004,0.114
		c0.377,5.827,2.78,11.585,6.774,16.211C42.056,79.574,46.938,82.654,52.25,84.083 M60.924,32.306
		c-7.613,0-14.807,2.953-20.004,8.156c-2.168-1.772-3.045-2.534-5.265-4.679c5.706-5.899,14.669-9.378,24.347-9.378
		c1.063,0,2.146,0.042,3.225,0.129c0.047,0.004,0.094,0.006,0.142,0.006c0.239,0,1.69,0.155,1.69,0.155
		c0.088,0.025,0.178,0.044,0.269,0.057c3.928,0.526,7.69,1.625,11.187,3.266c0.242,0.116,0.502,0.169,0.756,0.169
		c0.6,0,1.178-0.302,1.512-0.839c0,0,0.4-0.643,0.619-0.997c1.111,3.61,2.375,7.717,3.104,10.092
		c-2.448,0.126-6.353,0.33-9.692,0.504c0.371-0.595,0.852-1.368,0.852-1.368c0.178-0.285,0.27-0.61,0.27-0.94
		c0-0.164-0.022-0.328-0.07-0.489c-0.137-0.483-0.475-0.885-0.924-1.107C69.303,33.253,65.146,32.306,60.924,32.306"/>
</g>
<g id="kia">
	<path fill-opacity="0.1" d="M43.191,103.309c-5.477-2.317-10.395-5.634-14.619-9.855c-4.223-4.225-7.54-9.143-9.855-14.619
		c-2.401-5.673-3.616-11.697-3.616-17.904c0-6.208,1.215-12.23,3.616-17.904c2.316-5.477,5.632-10.395,9.855-14.619
		c4.224-4.223,9.142-7.538,14.619-9.855c5.673-2.399,11.696-3.615,17.905-3.615c6.207,0,12.23,1.215,17.902,3.615
		c5.477,2.317,10.396,5.632,14.618,9.855c4.224,4.223,7.54,9.142,9.856,14.619c2.399,5.672,3.614,11.696,3.614,17.904
		c0,6.207-1.215,12.232-3.614,17.904c-2.316,5.479-5.634,10.396-9.856,14.619c-4.224,4.223-9.142,7.538-14.618,9.855
		c-5.673,2.398-11.695,3.613-17.902,3.613C54.887,106.922,48.864,105.707,43.191,103.309"/>
	<path fill="#171e9e" d="M41.191,101.309c-5.477-2.317-10.395-5.634-14.619-9.855c-4.223-4.225-7.54-9.143-9.856-14.619
		C14.315,71.161,13.1,65.137,13.1,58.929c0-6.208,1.215-12.231,3.616-17.903c2.316-5.477,5.632-10.395,9.856-14.619
		c4.224-4.223,9.142-7.538,14.619-9.855c5.673-2.399,11.696-3.615,17.904-3.615c6.208,0,12.231,1.215,17.903,3.615
		c5.477,2.317,10.396,5.632,14.618,9.855c4.224,4.223,7.54,9.142,9.856,14.619c2.399,5.672,3.614,11.696,3.614,17.903
		c0,6.208-1.215,12.232-3.614,17.905c-2.316,5.479-5.634,10.396-9.856,14.619c-4.224,4.223-9.142,7.538-14.618,9.855
		c-5.673,2.398-11.695,3.613-17.903,3.613C52.887,104.922,46.864,103.707,41.191,101.309"/>
	<g>
		
			<linearGradient id="SVGID_6_" gradientUnits="userSpaceOnUse" x1="-181.5054" y1="-341.8247" x2="-181.5054" y2="-255.8364" gradientTransform="matrix(-1 0 0 -1 -122.4102 -239.9004)">
			<stop  offset="0" style="stop-color:#FFFFFF"/>
			<stop  offset="0.1758" style="stop-color:#E7E9EA"/>
			<stop  offset="0.4969" style="stop-color:#CDD2D5"/>
			<stop  offset="0.782" style="stop-color:#C5CACC"/>
			<stop  offset="1" style="stop-color:#BABDC0"/>
		</linearGradient>
		<path fill="url(#SVGID_6_)" d="M59.095,15.936c-23.744,0-42.994,19.249-42.994,42.993c0,23.746,19.25,42.995,42.994,42.995
			c23.744,0,42.995-19.249,42.995-42.995C102.09,35.184,82.839,15.936,59.095,15.936L59.095,15.936z"/>
	</g>
	
		<linearGradient id="SVGID_7_" gradientUnits="userSpaceOnUse" x1="296.6953" y1="-283.9473" x2="296.6953" y2="-257.4883" gradientTransform="matrix(1 0 0 -1 -237.5996 -239.9004)">
		<stop  offset="0" style="stop-color:#FFFFFF;stop-opacity:0"/>
		<stop  offset="1" style="stop-color:#FFFFFF;stop-opacity:0.8"/>
	</linearGradient>
	<path fill="url(#SVGID_7_)" d="M59.095,17.588c15.068,0,28.111,8.268,28.111,13.23c0,7.306-13.043,13.229-28.111,13.229
		c-15.069,0-28.112-5.922-28.112-13.229C30.983,25.857,44.026,17.588,59.095,17.588L59.095,17.588z"/>
	<path display="none" fill="#171e9e" d="M80.502,95.372c-0.341,0.446-0.865,0.7-1.414,0.7c-0.132,0-0.266-0.016-0.398-0.047
		l-16.344-3.741c-0.533-0.122-0.982-0.484-1.216-0.981c-0.11-0.24-0.166-0.496-0.166-0.753c0-0.278,0.065-0.558,0.194-0.81
		l6.996-13.702c0.303-0.589,0.906-0.962,1.568-0.968c0.006,0,0.01,0,0.016,0c0.656,0,1.261,0.357,1.57,0.938
		c0,0,0.719,1.342,1.393,2.6c2.514-2.021,4.634-4.614,6.197-7.594c1.887-3.599,2.883-7.611,2.883-11.61
		c0-2.591-0.416-5.135-1.24-7.561c-0.063-0.19-0.094-0.382-0.094-0.573c0-0.719,0.439-1.395,1.148-1.663
		c4.514-1.715,5.094-1.935,10.194-3.367c0.161-0.044,0.321-0.066,0.481-0.066c0.729,0,1.412,0.455,1.672,1.175
		c1.173,3.246,1.769,6.758,1.769,10.443c0,7.503-2.464,15.321-6.95,22.104c0.002,0.035-1.752,2.529-1.929,2.699
		c-2.292,2.947-4.924,5.549-7.842,7.75c0.706,1.319,1.665,3.104,1.665,3.104c0.141,0.265,0.211,0.554,0.211,0.841
		C80.867,94.675,80.744,95.057,80.502,95.372 M53.845,93.516c-0.202,0.801-0.924,1.338-1.723,1.338c-0.104,0-0.208-0.01-0.316-0.027
		c-5.34-0.959-10.6-3.527-15.211-7.428c-4.235-3.578-7.68-8.25-10.398-13.349c-0.406-0.762-1.32-2.791-1.375-3.022
		c-1.409-3.455-2.344-7.031-2.79-10.658c-1.496-0.049-3.526-0.115-3.526-0.115c-0.697-0.021-1.317-0.449-1.586-1.095
		c-0.09-0.221-0.136-0.454-0.136-0.683c0-0.441,0.165-0.878,0.478-1.213l11.425-12.256c0.339-0.364,0.811-0.568,1.301-0.568
		c0.053,0,0.103,0.003,0.157,0.007c0.544,0.049,1.039,0.345,1.338,0.804l8.371,12.908c0.192,0.293,0.287,0.629,0.287,0.967
		c0,0.302-0.078,0.604-0.231,0.876c-0.314,0.562-0.907,0.905-1.549,0.905c-0.019,0-0.038,0-0.059,0c0,0-1.521-0.053-2.949-0.1
		c0.68,4.379,2.664,8.633,5.702,12.153c3.567,4.138,8.387,6.985,13.569,8.022c0.844,0.17,1.431,0.91,1.431,1.744
		c0,0.094-0.007,0.19-0.023,0.287C55.258,87.777,55.157,88.391,53.845,93.516 M42.419,44.065c-0.35,0.4-0.843,0.605-1.337,0.605
		c-0.396,0-0.794-0.132-1.124-0.399c-3.745-3.048-4.225-3.438-8.018-7.135c-0.356-0.348-0.537-0.81-0.537-1.274
		c0-0.406,0.138-0.815,0.42-1.149c3.159-3.741,7.471-6.802,12.469-8.853c4.806-1.973,10.237-3.016,15.71-3.016
		c0.867,0,2.027,0.043,2.629,0.05c0.705,0.009,3.08,0.281,3.307,0.348c3.703,0.507,7.273,1.484,10.64,2.907
		c0.79-1.271,1.862-2.996,1.862-2.996c0.326-0.526,0.901-0.838,1.513-0.838c0.075,0,0.151,0.005,0.229,0.015
		c0.69,0.088,1.268,0.574,1.473,1.242l4.928,16.007c0.053,0.171,0.077,0.347,0.077,0.522c0,0.361-0.109,0.718-0.322,1.022
		c-0.313,0.449-0.817,0.728-1.364,0.756l-15.377,0.8c-0.031,0.002-0.063,0.003-0.093,0.003c-0.629,0-1.212-0.332-1.532-0.875
		c-0.166-0.28-0.248-0.594-0.248-0.906c0-0.326,0.09-0.651,0.27-0.939c0,0,0.809-1.301,1.564-2.518
		c-2.689-1.038-5.637-1.58-8.631-1.58C53.743,35.865,46.997,38.854,42.419,44.065"/>
	<path fill="#171e9e" d="M78.916,95.035l-16.344-3.742c-0.227-0.053-0.422-0.21-0.52-0.418c-0.048-0.104-0.072-0.213-0.072-0.325
		c0-0.12,0.028-0.239,0.084-0.347l6.996-13.701c0.129-0.253,0.387-0.412,0.678-0.415c0.283,0,0.541,0.154,0.674,0.399l1.393,2.601
		c0.143,0.267,0.397,0.456,0.693,0.517c0.066,0.014,0.136,0.021,0.203,0.021c0.229,0,0.455-0.078,0.637-0.226
		c2.611-2.098,4.846-4.834,6.462-7.914c1.962-3.742,2.999-7.92,2.999-12.082c0-2.706-0.436-5.36-1.293-7.883
		c-0.025-0.082-0.041-0.166-0.041-0.25c0-0.315,0.197-0.601,0.493-0.712c4.476-1.7,5.05-1.918,10.104-3.337
		c0.071-0.02,0.141-0.03,0.209-0.03c0.318,0,0.605,0.202,0.715,0.503c1.135,3.136,1.709,6.533,1.709,10.098
		c0,7.278-2.408,14.931-6.782,21.545c-0.015,0.022-0.028,0.045-0.041,0.067c-0.207,0.32-1.571,2.254-1.742,2.455
		c-0.034,0.035-0.067,0.072-0.101,0.111c-2.231,2.873-4.807,5.416-7.649,7.563c-0.399,0.302-0.521,0.851-0.284,1.292l1.663,3.102
		c0.062,0.113,0.093,0.238,0.093,0.363c0,0.167-0.056,0.33-0.158,0.464c-0.144,0.187-0.367,0.3-0.604,0.3
		C79.031,95.055,78.975,95.049,78.916,95.035z M51.985,93.824c-5.165-0.928-10.26-3.42-14.734-7.203
		c-3.863-3.266-7.28-7.655-10.156-13.051c-0.391-0.73-1.209-2.561-1.283-2.776c-0.013-0.052-0.029-0.101-0.049-0.149
		c-1.371-3.365-2.287-6.863-2.722-10.4c-0.061-0.497-0.476-0.876-0.977-0.892l-3.527-0.115c-0.298-0.009-0.563-0.193-0.676-0.463
		c-0.04-0.097-0.061-0.2-0.061-0.298c0-0.194,0.072-0.378,0.204-0.52L29.43,45.699c0.141-0.152,0.338-0.24,0.606-0.24
		c0.006,0,0.011,0,0.016,0c0.233,0.021,0.449,0.15,0.575,0.344l8.374,12.911c0.079,0.122,0.121,0.264,0.121,0.411
		c0,0.13-0.035,0.261-0.102,0.378c-0.134,0.239-0.388,0.388-0.686,0.388c0,0-2.973-0.101-2.984-0.101
		c-0.291,0-0.567,0.125-0.762,0.343c-0.2,0.227-0.29,0.532-0.243,0.831c0.716,4.612,2.769,8.991,5.937,12.661
		c3.714,4.309,8.736,7.275,14.138,8.355c0.356,0.071,0.615,0.387,0.615,0.746c0,0.041-0.003,0.082-0.01,0.125
		c-0.765,4.713-0.863,5.318-2.168,10.412c-0.084,0.338-0.388,0.571-0.736,0.571C52.073,93.836,52.023,93.83,51.985,93.824z
		 M40.59,43.474c-3.706-3.016-4.182-3.404-7.939-7.065c-0.148-0.146-0.23-0.34-0.23-0.547c0-0.18,0.064-0.355,0.181-0.493
		c3.054-3.616,7.23-6.579,12.077-8.568c4.686-1.923,9.983-2.94,15.324-2.94c0.535,0,1.185,0.016,1.739,0.031
		c0.341,0.008,0.648,0.016,0.877,0.019c0.628,0.008,2.775,0.254,3.029,0.306c0.051,0.015,0.102,0.025,0.151,0.032
		c3.604,0.493,7.097,1.447,10.38,2.836c0.129,0.054,0.264,0.08,0.396,0.08c0.343,0,0.673-0.173,0.863-0.479
		c0.776-1.249,1.826-2.936,1.865-2.997c0.137-0.22,0.385-0.357,0.646-0.357c0.035,0,0.068,0.002,0.1,0.006
		c0.295,0.038,0.541,0.246,0.629,0.532l4.928,16.008c0.021,0.071,0.033,0.146,0.033,0.223c0,0.158-0.048,0.309-0.14,0.44
		c-0.132,0.19-0.351,0.31-0.583,0.323l-15.417,0.801c-0.269,0-0.521-0.144-0.657-0.376c-0.068-0.117-0.105-0.25-0.105-0.387
		c0-0.142,0.039-0.281,0.115-0.402l1.563-2.518c0.16-0.257,0.196-0.573,0.103-0.86c-0.098-0.288-0.316-0.517-0.599-0.626
		c-2.794-1.078-5.905-1.648-8.998-1.648c-7.475,0-14.497,3.115-19.27,8.547c-0.145,0.164-0.353,0.258-0.572,0.258
		C40.959,43.653,40.773,43.624,40.59,43.474z"/>
	<path fill="#FFFFFF" d="M75.119,90.656c0,0,0.354,0.664,0.55,1.027c-3.687-0.845-7.877-1.802-10.302-2.357
		c1.115-2.184,2.891-5.662,4.41-8.639c0.328,0.61,0.754,1.405,0.754,1.405c0.238,0.442,0.65,0.765,1.137,0.886
		c0.143,0.035,0.289,0.055,0.432,0.055c0.35,0,0.693-0.104,0.988-0.301c7.559-5.043,12.254-13.98,12.254-23.33
		c0-2.401-0.313-4.769-0.929-7.059c2.618-0.987,3.72-1.363,6.694-2.213c0.692,2.412,1.045,4.981,1.045,7.66
		c0,7.059-2.422,14.449-6.815,20.813c-0.165,0.24-1.056,1.506-1.056,1.506c-0.067,0.063-0.127,0.131-0.184,0.205
		c-2.418,3.131-5.255,5.836-8.426,8.039c-0.494,0.344-0.765,0.896-0.765,1.463C74.908,90.102,74.977,90.391,75.119,90.656
		 M52.25,84.083c-0.452,2.761-0.679,3.899-1.431,6.892c-8.907-2.225-17.148-9.457-21.794-19.242
		c-0.124-0.264-0.773-1.666-0.771-1.666c-0.021-0.09-0.052-0.178-0.086-0.264c-1.505-3.656-2.43-7.459-2.752-11.309
		c-0.074-0.9-0.813-1.601-1.715-1.63c0,0-0.754-0.024-1.168-0.039c2.579-2.766,5.506-5.907,7.201-7.725
		c1.333,2.053,3.458,5.331,5.277,8.136c-0.691-0.022-1.592-0.052-1.592-0.052c-0.022,0-0.041-0.002-0.061-0.002
		c-0.48,0-0.942,0.195-1.276,0.542c-0.323,0.332-0.501,0.776-0.501,1.237c0,0.038,0,0.076,0.004,0.114
		c0.377,5.827,2.78,11.585,6.774,16.211C42.056,79.574,46.938,82.654,52.25,84.083 M60.924,32.306
		c-7.613,0-14.807,2.953-20.004,8.156c-2.168-1.772-3.045-2.534-5.265-4.679c5.706-5.899,14.669-9.378,24.347-9.378
		c1.063,0,2.146,0.042,3.225,0.129c0.047,0.004,0.094,0.006,0.142,0.006c0.239,0,1.69,0.155,1.69,0.155
		c0.088,0.025,0.178,0.044,0.269,0.057c3.928,0.526,7.69,1.625,11.187,3.266c0.242,0.116,0.502,0.169,0.756,0.169
		c0.6,0,1.178-0.302,1.512-0.839c0,0,0.4-0.643,0.619-0.997c1.111,3.61,2.375,7.717,3.104,10.092
		c-2.448,0.126-6.353,0.33-9.692,0.504c0.371-0.595,0.852-1.368,0.852-1.368c0.178-0.285,0.27-0.61,0.27-0.94
		c0-0.164-0.022-0.328-0.07-0.489c-0.137-0.483-0.475-0.885-0.924-1.107C69.303,33.253,65.146,32.306,60.924,32.306"/>
</g>
<g id="orange">
	<path fill-opacity="0.1" d="M43.191,103.309c-5.477-2.317-10.395-5.634-14.619-9.855c-4.223-4.225-7.54-9.143-9.855-14.619
		c-2.401-5.673-3.616-11.697-3.616-17.904c0-6.208,1.215-12.23,3.616-17.904c2.316-5.477,5.632-10.395,9.855-14.619
		c4.224-4.223,9.142-7.538,14.619-9.855c5.673-2.399,11.696-3.615,17.905-3.615c6.207,0,12.23,1.215,17.902,3.615
		c5.477,2.317,10.396,5.632,14.618,9.855c4.224,4.223,7.54,9.142,9.856,14.619c2.399,5.672,3.614,11.696,3.614,17.904
		c0,6.207-1.215,12.232-3.614,17.904c-2.316,5.479-5.634,10.396-9.856,14.619c-4.224,4.223-9.142,7.538-14.618,9.855
		c-5.673,2.398-11.695,3.613-17.902,3.613C54.887,106.922,48.864,105.707,43.191,103.309"/>
	<path fill="#FFE035" d="M41.191,101.309c-5.477-2.317-10.395-5.634-14.619-9.855c-4.223-4.225-7.54-9.143-9.856-14.619
		C14.315,71.161,13.1,65.137,13.1,58.929c0-6.208,1.215-12.231,3.616-17.903c2.316-5.477,5.632-10.395,9.856-14.619
		c4.224-4.223,9.142-7.538,14.619-9.855c5.673-2.399,11.696-3.615,17.904-3.615c6.208,0,12.231,1.215,17.903,3.615
		c5.477,2.317,10.396,5.632,14.618,9.855c4.224,4.223,7.54,9.142,9.856,14.619c2.399,5.672,3.614,11.696,3.614,17.903
		c0,6.208-1.215,12.232-3.614,17.905c-2.316,5.479-5.634,10.396-9.856,14.619c-4.224,4.223-9.142,7.538-14.618,9.855
		c-5.673,2.398-11.695,3.613-17.903,3.613C52.887,104.922,46.864,103.707,41.191,101.309"/>
	<g>
		
			<linearGradient id="SVGID_8_" gradientUnits="userSpaceOnUse" x1="-181.5054" y1="-341.8247" x2="-181.5054" y2="-255.8364" gradientTransform="matrix(-1 0 0 -1 -122.4102 -239.9004)">
			<stop  offset="0" style="stop-color:#FEDF34"/>
			<stop  offset="0.1758" style="stop-color:#FECD26"/>
			<stop  offset="0.4969" style="stop-color:#FFB211"/>
			<stop  offset="0.782" style="stop-color:#FFA204"/>
			<stop  offset="1" style="stop-color:#FF9C00"/>
		</linearGradient>
		<path fill="url(#SVGID_8_)" d="M59.095,15.936c-23.744,0-42.994,19.249-42.994,42.993c0,23.746,19.25,42.995,42.994,42.995
			c23.744,0,42.995-19.249,42.995-42.995C102.09,35.184,82.839,15.936,59.095,15.936L59.095,15.936z"/>
	</g>
	
		<linearGradient id="SVGID_9_" gradientUnits="userSpaceOnUse" x1="296.6953" y1="-283.9473" x2="296.6953" y2="-257.4883" gradientTransform="matrix(1 0 0 -1 -237.5996 -239.9004)">
		<stop  offset="0" style="stop-color:#FFFFFF;stop-opacity:0"/>
		<stop  offset="1" style="stop-color:#FFFFFF;stop-opacity:0.8"/>
	</linearGradient>
	<path fill="url(#SVGID_9_)" d="M59.095,17.588c15.068,0,28.111,8.268,28.111,13.23c0,7.306-13.043,13.229-28.111,13.229
		c-15.069,0-28.112-5.922-28.112-13.229C30.983,25.857,44.026,17.588,59.095,17.588L59.095,17.588z"/>
	<path display="none" fill="#FFE035" d="M80.502,95.372c-0.341,0.446-0.865,0.7-1.414,0.7c-0.132,0-0.266-0.016-0.398-0.047
		l-16.344-3.741c-0.533-0.122-0.982-0.484-1.216-0.981c-0.11-0.24-0.166-0.496-0.166-0.753c0-0.278,0.065-0.558,0.194-0.81
		l6.996-13.702c0.303-0.589,0.906-0.962,1.568-0.968c0.006,0,0.01,0,0.016,0c0.656,0,1.261,0.357,1.57,0.938
		c0,0,0.719,1.342,1.393,2.6c2.514-2.021,4.634-4.614,6.197-7.594c1.887-3.599,2.883-7.611,2.883-11.61
		c0-2.591-0.416-5.135-1.24-7.561c-0.063-0.19-0.094-0.382-0.094-0.573c0-0.719,0.439-1.395,1.148-1.663
		c4.514-1.715,5.094-1.935,10.194-3.367c0.161-0.044,0.321-0.066,0.481-0.066c0.729,0,1.412,0.455,1.672,1.175
		c1.173,3.246,1.769,6.758,1.769,10.443c0,7.503-2.464,15.321-6.95,22.104c0.002,0.035-1.752,2.529-1.929,2.699
		c-2.292,2.947-4.924,5.549-7.842,7.75c0.706,1.319,1.665,3.104,1.665,3.104c0.141,0.265,0.211,0.554,0.211,0.841
		C80.867,94.675,80.744,95.057,80.502,95.372 M53.845,93.516c-0.202,0.801-0.924,1.338-1.723,1.338c-0.104,0-0.208-0.01-0.316-0.027
		c-5.34-0.959-10.6-3.527-15.211-7.428c-4.235-3.578-7.68-8.25-10.398-13.349c-0.406-0.762-1.32-2.791-1.375-3.022
		c-1.409-3.455-2.344-7.031-2.79-10.658c-1.496-0.049-3.526-0.115-3.526-0.115c-0.697-0.021-1.317-0.449-1.586-1.095
		c-0.09-0.221-0.136-0.454-0.136-0.683c0-0.441,0.165-0.878,0.478-1.213l11.425-12.256c0.339-0.364,0.811-0.568,1.301-0.568
		c0.053,0,0.103,0.003,0.157,0.007c0.544,0.049,1.039,0.345,1.338,0.804l8.371,12.908c0.192,0.293,0.287,0.629,0.287,0.967
		c0,0.302-0.078,0.604-0.231,0.876c-0.314,0.562-0.907,0.905-1.549,0.905c-0.019,0-0.038,0-0.059,0c0,0-1.521-0.053-2.949-0.1
		c0.68,4.379,2.664,8.633,5.702,12.153c3.567,4.138,8.387,6.985,13.569,8.022c0.844,0.17,1.431,0.91,1.431,1.744
		c0,0.094-0.007,0.19-0.023,0.287C55.258,87.777,55.157,88.391,53.845,93.516 M42.419,44.065c-0.35,0.4-0.843,0.605-1.337,0.605
		c-0.396,0-0.794-0.132-1.124-0.399c-3.745-3.048-4.225-3.438-8.018-7.135c-0.356-0.348-0.537-0.81-0.537-1.274
		c0-0.406,0.138-0.815,0.42-1.149c3.159-3.741,7.471-6.802,12.469-8.853c4.806-1.973,10.237-3.016,15.71-3.016
		c0.867,0,2.027,0.043,2.629,0.05c0.705,0.009,3.08,0.281,3.307,0.348c3.703,0.507,7.273,1.484,10.64,2.907
		c0.79-1.271,1.862-2.996,1.862-2.996c0.326-0.526,0.901-0.838,1.513-0.838c0.075,0,0.151,0.005,0.229,0.015
		c0.69,0.088,1.268,0.574,1.473,1.242l4.928,16.007c0.053,0.171,0.077,0.347,0.077,0.522c0,0.361-0.109,0.718-0.322,1.022
		c-0.313,0.449-0.817,0.728-1.364,0.756l-15.377,0.8c-0.031,0.002-0.063,0.003-0.093,0.003c-0.629,0-1.212-0.332-1.532-0.875
		c-0.166-0.28-0.248-0.594-0.248-0.906c0-0.326,0.09-0.651,0.27-0.939c0,0,0.809-1.301,1.564-2.518
		c-2.689-1.038-5.637-1.58-8.631-1.58C53.743,35.865,46.997,38.854,42.419,44.065"/>
	<path fill="#FFE035" d="M78.916,95.035l-16.344-3.742c-0.227-0.053-0.422-0.21-0.52-0.418c-0.048-0.104-0.072-0.213-0.072-0.325
		c0-0.12,0.028-0.239,0.084-0.347l6.996-13.701c0.129-0.253,0.387-0.412,0.678-0.415c0.283,0,0.541,0.154,0.674,0.399l1.393,2.601
		c0.143,0.267,0.397,0.456,0.693,0.517c0.066,0.014,0.136,0.021,0.203,0.021c0.229,0,0.455-0.078,0.637-0.226
		c2.611-2.098,4.846-4.834,6.462-7.914c1.962-3.742,2.999-7.92,2.999-12.082c0-2.706-0.436-5.36-1.293-7.883
		c-0.025-0.082-0.041-0.166-0.041-0.25c0-0.315,0.197-0.601,0.493-0.712c4.476-1.7,5.05-1.918,10.104-3.337
		c0.071-0.02,0.141-0.03,0.209-0.03c0.318,0,0.605,0.202,0.715,0.503c1.135,3.136,1.709,6.533,1.709,10.098
		c0,7.278-2.408,14.931-6.782,21.545c-0.015,0.022-0.028,0.045-0.041,0.067c-0.207,0.32-1.571,2.254-1.742,2.455
		c-0.034,0.035-0.067,0.072-0.101,0.111c-2.231,2.873-4.807,5.416-7.649,7.563c-0.399,0.302-0.521,0.851-0.284,1.292l1.663,3.102
		c0.062,0.113,0.093,0.238,0.093,0.363c0,0.167-0.056,0.33-0.158,0.464c-0.144,0.187-0.367,0.3-0.604,0.3
		C79.031,95.055,78.975,95.049,78.916,95.035z M51.985,93.824c-5.165-0.928-10.26-3.42-14.734-7.203
		c-3.863-3.266-7.28-7.655-10.156-13.051c-0.391-0.73-1.209-2.561-1.283-2.776c-0.013-0.052-0.029-0.101-0.049-0.149
		c-1.371-3.365-2.287-6.863-2.722-10.4c-0.061-0.497-0.476-0.876-0.977-0.892l-3.527-0.115c-0.298-0.009-0.563-0.193-0.676-0.463
		c-0.04-0.097-0.061-0.2-0.061-0.298c0-0.194,0.072-0.378,0.204-0.52L29.43,45.699c0.141-0.152,0.338-0.24,0.606-0.24
		c0.006,0,0.011,0,0.016,0c0.233,0.021,0.449,0.15,0.575,0.344l8.374,12.911c0.079,0.122,0.121,0.264,0.121,0.411
		c0,0.13-0.035,0.261-0.102,0.378c-0.134,0.239-0.388,0.388-0.686,0.388c0,0-2.973-0.101-2.984-0.101
		c-0.291,0-0.567,0.125-0.762,0.343c-0.2,0.227-0.29,0.532-0.243,0.831c0.716,4.612,2.769,8.991,5.937,12.661
		c3.714,4.309,8.736,7.275,14.138,8.355c0.356,0.071,0.615,0.387,0.615,0.746c0,0.041-0.003,0.082-0.01,0.125
		c-0.765,4.713-0.863,5.318-2.168,10.412c-0.084,0.338-0.388,0.571-0.736,0.571C52.073,93.836,52.023,93.83,51.985,93.824z
		 M40.59,43.474c-3.706-3.016-4.182-3.404-7.939-7.065c-0.148-0.146-0.23-0.34-0.23-0.547c0-0.18,0.064-0.355,0.181-0.493
		c3.054-3.616,7.23-6.579,12.077-8.568c4.686-1.923,9.983-2.94,15.324-2.94c0.535,0,1.185,0.016,1.739,0.031
		c0.341,0.008,0.648,0.016,0.877,0.019c0.628,0.008,2.775,0.254,3.029,0.306c0.051,0.015,0.102,0.025,0.151,0.032
		c3.604,0.493,7.097,1.447,10.38,2.836c0.129,0.054,0.264,0.08,0.396,0.08c0.343,0,0.673-0.173,0.863-0.479
		c0.776-1.249,1.826-2.936,1.865-2.997c0.137-0.22,0.385-0.357,0.646-0.357c0.035,0,0.068,0.002,0.1,0.006
		c0.295,0.038,0.541,0.246,0.629,0.532l4.928,16.008c0.021,0.071,0.033,0.146,0.033,0.223c0,0.158-0.048,0.309-0.14,0.44
		c-0.132,0.19-0.351,0.31-0.583,0.323l-15.417,0.801c-0.269,0-0.521-0.144-0.657-0.376c-0.068-0.117-0.105-0.25-0.105-0.387
		c0-0.142,0.039-0.281,0.115-0.402l1.563-2.518c0.16-0.257,0.196-0.573,0.103-0.86c-0.098-0.288-0.316-0.517-0.599-0.626
		c-2.794-1.078-5.905-1.648-8.998-1.648c-7.475,0-14.497,3.115-19.27,8.547c-0.145,0.164-0.353,0.258-0.572,0.258
		C40.959,43.653,40.773,43.624,40.59,43.474z"/>
	<path fill="#FFFFFF" d="M75.119,90.656c0,0,0.354,0.664,0.55,1.027c-3.687-0.845-7.877-1.802-10.302-2.357
		c1.115-2.184,2.891-5.662,4.41-8.639c0.328,0.61,0.754,1.405,0.754,1.405c0.238,0.442,0.65,0.765,1.137,0.886
		c0.143,0.035,0.289,0.055,0.432,0.055c0.35,0,0.693-0.104,0.988-0.301c7.559-5.043,12.254-13.98,12.254-23.33
		c0-2.401-0.313-4.769-0.929-7.059c2.618-0.987,3.72-1.363,6.694-2.213c0.692,2.412,1.045,4.981,1.045,7.66
		c0,7.059-2.422,14.449-6.815,20.813c-0.165,0.24-1.056,1.506-1.056,1.506c-0.067,0.063-0.127,0.131-0.184,0.205
		c-2.418,3.131-5.255,5.836-8.426,8.039c-0.494,0.344-0.765,0.896-0.765,1.463C74.908,90.102,74.977,90.391,75.119,90.656
		 M52.25,84.083c-0.452,2.761-0.679,3.899-1.431,6.892c-8.907-2.225-17.148-9.457-21.794-19.242
		c-0.124-0.264-0.773-1.666-0.771-1.666c-0.021-0.09-0.052-0.178-0.086-0.264c-1.505-3.656-2.43-7.459-2.752-11.309
		c-0.074-0.9-0.813-1.601-1.715-1.63c0,0-0.754-0.024-1.168-0.039c2.579-2.766,5.506-5.907,7.201-7.725
		c1.333,2.053,3.458,5.331,5.277,8.136c-0.691-0.022-1.592-0.052-1.592-0.052c-0.022,0-0.041-0.002-0.061-0.002
		c-0.48,0-0.942,0.195-1.276,0.542c-0.323,0.332-0.501,0.776-0.501,1.237c0,0.038,0,0.076,0.004,0.114
		c0.377,5.827,2.78,11.585,6.774,16.211C42.056,79.574,46.938,82.654,52.25,84.083 M60.924,32.306
		c-7.613,0-14.807,2.953-20.004,8.156c-2.168-1.772-3.045-2.534-5.265-4.679c5.706-5.899,14.669-9.378,24.347-9.378
		c1.063,0,2.146,0.042,3.225,0.129c0.047,0.004,0.094,0.006,0.142,0.006c0.239,0,1.69,0.155,1.69,0.155
		c0.088,0.025,0.178,0.044,0.269,0.057c3.928,0.526,7.69,1.625,11.187,3.266c0.242,0.116,0.502,0.169,0.756,0.169
		c0.6,0,1.178-0.302,1.512-0.839c0,0,0.4-0.643,0.619-0.997c1.111,3.61,2.375,7.717,3.104,10.092
		c-2.448,0.126-6.353,0.33-9.692,0.504c0.371-0.595,0.852-1.368,0.852-1.368c0.178-0.285,0.27-0.61,0.27-0.94
		c0-0.164-0.022-0.328-0.07-0.489c-0.137-0.483-0.475-0.885-0.924-1.107C69.303,33.253,65.146,32.306,60.924,32.306"/>
</g>
<g id="red">
	<path fill-opacity="0.1" d="M43.191,103.309c-5.477-2.317-10.395-5.634-14.619-9.855c-4.223-4.225-7.54-9.143-9.855-14.619
		c-2.401-5.673-3.616-11.697-3.616-17.904c0-6.208,1.215-12.23,3.616-17.904c2.316-5.477,5.632-10.395,9.855-14.619
		c4.224-4.223,9.142-7.538,14.619-9.855c5.673-2.399,11.696-3.615,17.905-3.615c6.207,0,12.23,1.215,17.902,3.615
		c5.477,2.317,10.396,5.632,14.618,9.855c4.224,4.223,7.54,9.142,9.856,14.619c2.399,5.672,3.614,11.696,3.614,17.904
		c0,6.207-1.215,12.232-3.614,17.904c-2.316,5.479-5.634,10.396-9.856,14.619c-4.224,4.223-9.142,7.538-14.618,9.855
		c-5.673,2.398-11.695,3.613-17.902,3.613C54.887,106.922,48.864,105.707,43.191,103.309"/>
	<path fill="#FC7E7E" d="M41.191,101.309c-5.477-2.317-10.395-5.634-14.619-9.855c-4.223-4.225-7.54-9.143-9.856-14.619
		C14.315,71.161,13.1,65.137,13.1,58.929c0-6.208,1.215-12.231,3.616-17.903c2.316-5.477,5.632-10.395,9.856-14.619
		c4.224-4.223,9.142-7.538,14.619-9.855c5.673-2.399,11.696-3.615,17.904-3.615c6.208,0,12.231,1.215,17.903,3.615
		c5.477,2.317,10.396,5.632,14.618,9.855c4.224,4.223,7.54,9.142,9.856,14.619c2.399,5.672,3.614,11.696,3.614,17.903
		c0,6.208-1.215,12.232-3.614,17.905c-2.316,5.479-5.634,10.396-9.856,14.619c-4.224,4.223-9.142,7.538-14.618,9.855
		c-5.673,2.398-11.695,3.613-17.903,3.613C52.887,104.922,46.864,103.707,41.191,101.309"/>
	<g>
		
			<linearGradient id="SVGID_10_" gradientUnits="userSpaceOnUse" x1="-181.5054" y1="-341.8247" x2="-181.5054" y2="-255.8364" gradientTransform="matrix(-1 0 0 -1 -122.4102 -239.9004)">
			<stop  offset="0" style="stop-color:#FF0000"/>
			<stop  offset="0.1758" style="stop-color:#F60303"/>
			<stop  offset="0.4969" style="stop-color:#EC0404"/>
			<stop  offset="0.782" style="stop-color:#E30101"/>
			<stop  offset="1" style="stop-color:#D60202"/>
		</linearGradient>
		<path fill="url(#SVGID_10_)" d="M59.095,15.936c-23.744,0-42.994,19.249-42.994,42.993c0,23.746,19.25,42.995,42.994,42.995
			c23.744,0,42.995-19.249,42.995-42.995C102.09,35.184,82.839,15.936,59.095,15.936L59.095,15.936z"/>
	</g>
	
		<linearGradient id="SVGID_11_" gradientUnits="userSpaceOnUse" x1="296.6953" y1="-283.9473" x2="296.6953" y2="-257.4883" gradientTransform="matrix(1 0 0 -1 -237.5996 -239.9004)">
		<stop  offset="0" style="stop-color:#FFFFFF;stop-opacity:0"/>
		<stop  offset="1" style="stop-color:#FFFFFF;stop-opacity:0.8"/>
	</linearGradient>
	<path fill="url(#SVGID_11_)" d="M59.095,17.588c15.068,0,28.111,8.268,28.111,13.23c0,7.306-13.043,13.229-28.111,13.229
		c-15.069,0-28.112-5.922-28.112-13.229C30.983,25.857,44.026,17.588,59.095,17.588L59.095,17.588z"/>
	<path display="none" fill="#FC7E7E" d="M80.502,95.372c-0.341,0.446-0.865,0.7-1.414,0.7c-0.132,0-0.266-0.016-0.398-0.047
		l-16.344-3.741c-0.533-0.122-0.982-0.484-1.216-0.981c-0.11-0.24-0.166-0.496-0.166-0.753c0-0.278,0.065-0.558,0.194-0.81
		l6.996-13.702c0.303-0.589,0.906-0.962,1.568-0.968c0.006,0,0.01,0,0.016,0c0.656,0,1.261,0.357,1.57,0.938
		c0,0,0.719,1.342,1.393,2.6c2.514-2.021,4.634-4.614,6.197-7.594c1.887-3.599,2.883-7.611,2.883-11.61
		c0-2.591-0.416-5.135-1.24-7.561c-0.063-0.19-0.094-0.382-0.094-0.573c0-0.719,0.439-1.395,1.148-1.663
		c4.514-1.715,5.094-1.935,10.194-3.367c0.161-0.044,0.321-0.066,0.481-0.066c0.729,0,1.412,0.455,1.672,1.175
		c1.173,3.246,1.769,6.758,1.769,10.443c0,7.503-2.464,15.321-6.95,22.104c0.002,0.035-1.752,2.529-1.929,2.699
		c-2.292,2.947-4.924,5.549-7.842,7.75c0.706,1.319,1.665,3.104,1.665,3.104c0.141,0.265,0.211,0.554,0.211,0.841
		C80.867,94.675,80.744,95.057,80.502,95.372 M53.845,93.516c-0.202,0.801-0.924,1.338-1.723,1.338c-0.104,0-0.208-0.01-0.316-0.027
		c-5.34-0.959-10.6-3.527-15.211-7.428c-4.235-3.578-7.68-8.25-10.398-13.349c-0.406-0.762-1.32-2.791-1.375-3.022
		c-1.409-3.455-2.344-7.031-2.79-10.658c-1.496-0.049-3.526-0.115-3.526-0.115c-0.697-0.021-1.317-0.449-1.586-1.095
		c-0.09-0.221-0.136-0.454-0.136-0.683c0-0.441,0.165-0.878,0.478-1.213l11.425-12.256c0.339-0.364,0.811-0.568,1.301-0.568
		c0.053,0,0.103,0.003,0.157,0.007c0.544,0.049,1.039,0.345,1.338,0.804l8.371,12.908c0.192,0.293,0.287,0.629,0.287,0.967
		c0,0.302-0.078,0.604-0.231,0.876c-0.314,0.562-0.907,0.905-1.549,0.905c-0.019,0-0.038,0-0.059,0c0,0-1.521-0.053-2.949-0.1
		c0.68,4.379,2.664,8.633,5.702,12.153c3.567,4.138,8.387,6.985,13.569,8.022c0.844,0.17,1.431,0.91,1.431,1.744
		c0,0.094-0.007,0.19-0.023,0.287C55.258,87.777,55.157,88.391,53.845,93.516 M42.419,44.065c-0.35,0.4-0.843,0.605-1.337,0.605
		c-0.396,0-0.794-0.132-1.124-0.399c-3.745-3.048-4.225-3.438-8.018-7.135c-0.356-0.348-0.537-0.81-0.537-1.274
		c0-0.406,0.138-0.815,0.42-1.149c3.159-3.741,7.471-6.802,12.469-8.853c4.806-1.973,10.237-3.016,15.71-3.016
		c0.867,0,2.027,0.043,2.629,0.05c0.705,0.009,3.08,0.281,3.307,0.348c3.703,0.507,7.273,1.484,10.64,2.907
		c0.79-1.271,1.862-2.996,1.862-2.996c0.326-0.526,0.901-0.838,1.513-0.838c0.075,0,0.151,0.005,0.229,0.015
		c0.69,0.088,1.268,0.574,1.473,1.242l4.928,16.007c0.053,0.171,0.077,0.347,0.077,0.522c0,0.361-0.109,0.718-0.322,1.022
		c-0.313,0.449-0.817,0.728-1.364,0.756l-15.377,0.8c-0.031,0.002-0.063,0.003-0.093,0.003c-0.629,0-1.212-0.332-1.532-0.875
		c-0.166-0.28-0.248-0.594-0.248-0.906c0-0.326,0.09-0.651,0.27-0.939c0,0,0.809-1.301,1.564-2.518
		c-2.689-1.038-5.637-1.58-8.631-1.58C53.743,35.865,46.997,38.854,42.419,44.065"/>
	<path fill="#FC7E7E" d="M78.916,95.035l-16.344-3.742c-0.227-0.053-0.422-0.21-0.52-0.418c-0.048-0.104-0.072-0.213-0.072-0.325
		c0-0.12,0.028-0.239,0.084-0.347l6.996-13.701c0.129-0.253,0.387-0.412,0.678-0.415c0.283,0,0.541,0.154,0.674,0.399l1.393,2.601
		c0.143,0.267,0.397,0.456,0.693,0.517c0.066,0.014,0.136,0.021,0.203,0.021c0.229,0,0.455-0.078,0.637-0.226
		c2.611-2.098,4.846-4.834,6.462-7.914c1.962-3.742,2.999-7.92,2.999-12.082c0-2.706-0.436-5.36-1.293-7.883
		c-0.025-0.082-0.041-0.166-0.041-0.25c0-0.315,0.197-0.601,0.493-0.712c4.476-1.7,5.05-1.918,10.104-3.337
		c0.071-0.02,0.141-0.03,0.209-0.03c0.318,0,0.605,0.202,0.715,0.503c1.135,3.136,1.709,6.533,1.709,10.098
		c0,7.278-2.408,14.931-6.782,21.545c-0.015,0.022-0.028,0.045-0.041,0.067c-0.207,0.32-1.571,2.254-1.742,2.455
		c-0.034,0.035-0.067,0.072-0.101,0.111c-2.231,2.873-4.807,5.416-7.649,7.563c-0.399,0.302-0.521,0.851-0.284,1.292l1.663,3.102
		c0.062,0.113,0.093,0.238,0.093,0.363c0,0.167-0.056,0.33-0.158,0.464c-0.144,0.187-0.367,0.3-0.604,0.3
		C79.031,95.055,78.975,95.049,78.916,95.035z M51.985,93.824c-5.165-0.928-10.26-3.42-14.734-7.203
		c-3.863-3.266-7.28-7.655-10.156-13.051c-0.391-0.73-1.209-2.561-1.283-2.776c-0.013-0.052-0.029-0.101-0.049-0.149
		c-1.371-3.365-2.287-6.863-2.722-10.4c-0.061-0.497-0.476-0.876-0.977-0.892l-3.527-0.115c-0.298-0.009-0.563-0.193-0.676-0.463
		c-0.04-0.097-0.061-0.2-0.061-0.298c0-0.194,0.072-0.378,0.204-0.52L29.43,45.699c0.141-0.152,0.338-0.24,0.606-0.24
		c0.006,0,0.011,0,0.016,0c0.233,0.021,0.449,0.15,0.575,0.344l8.374,12.911c0.079,0.122,0.121,0.264,0.121,0.411
		c0,0.13-0.035,0.261-0.102,0.378c-0.134,0.239-0.388,0.388-0.686,0.388c0,0-2.973-0.101-2.984-0.101
		c-0.291,0-0.567,0.125-0.762,0.343c-0.2,0.227-0.29,0.532-0.243,0.831c0.716,4.612,2.769,8.991,5.937,12.661
		c3.714,4.309,8.736,7.275,14.138,8.355c0.356,0.071,0.615,0.387,0.615,0.746c0,0.041-0.003,0.082-0.01,0.125
		c-0.765,4.713-0.863,5.318-2.168,10.412c-0.084,0.338-0.388,0.571-0.736,0.571C52.073,93.836,52.023,93.83,51.985,93.824z
		 M40.59,43.474c-3.706-3.016-4.182-3.404-7.939-7.065c-0.148-0.146-0.23-0.34-0.23-0.547c0-0.18,0.064-0.355,0.181-0.493
		c3.054-3.616,7.23-6.579,12.077-8.568c4.686-1.923,9.983-2.94,15.324-2.94c0.535,0,1.185,0.016,1.739,0.031
		c0.341,0.008,0.648,0.016,0.877,0.019c0.628,0.008,2.775,0.254,3.029,0.306c0.051,0.015,0.102,0.025,0.151,0.032
		c3.604,0.493,7.097,1.447,10.38,2.836c0.129,0.054,0.264,0.08,0.396,0.08c0.343,0,0.673-0.173,0.863-0.479
		c0.776-1.249,1.826-2.936,1.865-2.997c0.137-0.22,0.385-0.357,0.646-0.357c0.035,0,0.068,0.002,0.1,0.006
		c0.295,0.038,0.541,0.246,0.629,0.532l4.928,16.008c0.021,0.071,0.033,0.146,0.033,0.223c0,0.158-0.048,0.309-0.14,0.44
		c-0.132,0.19-0.351,0.31-0.583,0.323l-15.417,0.801c-0.269,0-0.521-0.144-0.657-0.376c-0.068-0.117-0.105-0.25-0.105-0.387
		c0-0.142,0.039-0.281,0.115-0.402l1.563-2.518c0.16-0.257,0.196-0.573,0.103-0.86c-0.098-0.288-0.316-0.517-0.599-0.626
		c-2.794-1.078-5.905-1.648-8.998-1.648c-7.475,0-14.497,3.115-19.27,8.547c-0.145,0.164-0.353,0.258-0.572,0.258
		C40.959,43.653,40.773,43.624,40.59,43.474z"/>
	<path fill="#FFFFFF" d="M75.119,90.656c0,0,0.354,0.664,0.55,1.027c-3.687-0.845-7.877-1.802-10.302-2.357
		c1.115-2.184,2.891-5.662,4.41-8.639c0.328,0.61,0.754,1.405,0.754,1.405c0.238,0.442,0.65,0.765,1.137,0.886
		c0.143,0.035,0.289,0.055,0.432,0.055c0.35,0,0.693-0.104,0.988-0.301c7.559-5.043,12.254-13.98,12.254-23.33
		c0-2.401-0.313-4.769-0.929-7.059c2.618-0.987,3.72-1.363,6.694-2.213c0.692,2.412,1.045,4.981,1.045,7.66
		c0,7.059-2.422,14.449-6.815,20.813c-0.165,0.24-1.056,1.506-1.056,1.506c-0.067,0.063-0.127,0.131-0.184,0.205
		c-2.418,3.131-5.255,5.836-8.426,8.039c-0.494,0.344-0.765,0.896-0.765,1.463C74.908,90.102,74.977,90.391,75.119,90.656
		 M52.25,84.083c-0.452,2.761-0.679,3.899-1.431,6.892c-8.907-2.225-17.148-9.457-21.794-19.242
		c-0.124-0.264-0.773-1.666-0.771-1.666c-0.021-0.09-0.052-0.178-0.086-0.264c-1.505-3.656-2.43-7.459-2.752-11.309
		c-0.074-0.9-0.813-1.601-1.715-1.63c0,0-0.754-0.024-1.168-0.039c2.579-2.766,5.506-5.907,7.201-7.725
		c1.333,2.053,3.458,5.331,5.277,8.136c-0.691-0.022-1.592-0.052-1.592-0.052c-0.022,0-0.041-0.002-0.061-0.002
		c-0.48,0-0.942,0.195-1.276,0.542c-0.323,0.332-0.501,0.776-0.501,1.237c0,0.038,0,0.076,0.004,0.114
		c0.377,5.827,2.78,11.585,6.774,16.211C42.056,79.574,46.938,82.654,52.25,84.083 M60.924,32.306
		c-7.613,0-14.807,2.953-20.004,8.156c-2.168-1.772-3.045-2.534-5.265-4.679c5.706-5.899,14.669-9.378,24.347-9.378
		c1.063,0,2.146,0.042,3.225,0.129c0.047,0.004,0.094,0.006,0.142,0.006c0.239,0,1.69,0.155,1.69,0.155
		c0.088,0.025,0.178,0.044,0.269,0.057c3.928,0.526,7.69,1.625,11.187,3.266c0.242,0.116,0.502,0.169,0.756,0.169
		c0.6,0,1.178-0.302,1.512-0.839c0,0,0.4-0.643,0.619-0.997c1.111,3.61,2.375,7.717,3.104,10.092
		c-2.448,0.126-6.353,0.33-9.692,0.504c0.371-0.595,0.852-1.368,0.852-1.368c0.178-0.285,0.27-0.61,0.27-0.94
		c0-0.164-0.022-0.328-0.07-0.489c-0.137-0.483-0.475-0.885-0.924-1.107C69.303,33.253,65.146,32.306,60.924,32.306"/>
</g>
</svg>
