<?xml version="1.0" encoding="utf-8"?>
<!-- Generator: Adobe Illustrator 16.0.2, SVG Export Plug-In . SVG Version: 6.00 Build 0)  -->
<!DOCTYPE svg PUBLIC "-//W3C//DTD SVG 1.1//EN" "http://www.w3.org/Graphics/SVG/1.1/DTD/svg11.dtd">
<svg version="1.1" id="Layer_1" xmlns="http://www.w3.org/2000/svg" xmlns:xlink="http://www.w3.org/1999/xlink" x="0px" y="0px"
	 width="120px" height="120px" viewBox="0 0 120 120" enable-background="new 0 0 120 120" xml:space="preserve">
<g id="black_white">
	<path fill="#FFFFFF" d="M60,107.5L30.317,54L60,0.5L89.684,54L60,107.5L60,107.5z M59.998,15.978L38.902,54.004l21.096,38.023
		l21.098-38.023L59.998,15.978L59.998,15.978z"/>
</g>
<g id="blue">
	<path fill-opacity="0.1" d="M50.036,104.891V17.617h6.907v87.273H50.036L50.036,104.891z M92.072,59.615H16.566V22.278h75.506
		L105.8,40.056L92.072,59.615L92.072,59.615z"/>
	<path d="M48.036,102.891V15.617h6.907v87.273H48.036L48.036,102.891z M90.072,57.615H14.566V20.278h75.506L103.8,38.056
		L90.072,57.615L90.072,57.615z"/>
</g>
<g id="green">
	<path fill-opacity="0.1" d="M50.036,104.891V17.617h6.907v87.273H50.036L50.036,104.891z M92.072,59.615H16.566V22.278h75.506
		L105.8,40.056L92.072,59.615L92.072,59.615z"/>
	<path d="M48.036,102.891V15.617h6.907v87.273H48.036L48.036,102.891z M90.072,57.615H14.566V20.278h75.506L103.8,38.056
		L90.072,57.615L90.072,57.615z"/>
</g>
<g id="kia">
	<path fill-opacity="0.1" d="M50.036,104.891V17.617h6.907v87.273H50.036L50.036,104.891z M92.072,59.615H16.566V22.278h75.506
		L105.8,40.056L92.072,59.615L92.072,59.615z"/>
	<path d="M48.036,102.891V15.617h6.907v87.273H48.036L48.036,102.891z M90.072,57.615H14.566V20.278h75.506L103.8,38.056
		L90.072,57.615L90.072,57.615z"/>
</g>
<g id="orange">
	<path fill-opacity="0.1" d="M50.036,104.891V17.617h6.907v87.273H50.036L50.036,104.891z M92.072,59.615H16.566V22.278h75.506
		L105.8,40.056L92.072,59.615L92.072,59.615z"/>
	<path d="M48.036,102.891V15.617h6.907v87.273H48.036L48.036,102.891z M90.072,57.615H14.566V20.278h75.506L103.8,38.056
		L90.072,57.615L90.072,57.615z"/>
</g>
<g id="red">
	<path fill-opacity="0.1" d="M50.036,104.891V17.617h6.907v87.273H50.036L50.036,104.891z M92.072,59.615H16.566V22.278h75.506
		L105.8,40.056L92.072,59.615L92.072,59.615z"/>
	<path d="M48.036,102.891V15.617h6.907v87.273H48.036L48.036,102.891z M90.072,57.615H14.566V20.278h75.506L103.8,38.056
		L90.072,57.615L90.072,57.615z"/>
</g>
</svg>
