<?xml version="1.0" encoding="utf-8"?>
<!-- Generator: Adobe Illustrator 16.0.2, SVG Export Plug-In . SVG Version: 6.00 Build 0)  -->
<!DOCTYPE svg PUBLIC "-//W3C//DTD SVG 1.1//EN" "http://www.w3.org/Graphics/SVG/1.1/DTD/svg11.dtd">
<svg version="1.1" id="Layer_1" xmlns="http://www.w3.org/2000/svg" xmlns:xlink="http://www.w3.org/1999/xlink" x="0px" y="0px"
	 width="120px" height="120px" viewBox="0 0 120 120" enable-background="new 0 0 120 120" xml:space="preserve">
<g id="black_white">
	<g>
		<rect x="69.45" y="75.828" fill="#999999" width="30.853" height="8.451"/>
		<rect x="19.698" y="75.828" fill="#999999" width="30.852" height="8.451"/>
		<path fill="#FFFFFF" d="M86.1,51.241L61.508,17.996c-0.75-1.013-2.266-1.013-3.015,0L33.901,51.241
			c-0.916,1.238-0.032,2.991,1.508,2.991H49.55v48.534h20.9V54.232h14.141C86.131,54.232,87.014,52.479,86.1,51.241z"/>
	</g>
</g>
<g id="blue">
	<polygon fill="#7B7B7B" points="108.441,88.693 108.441,72.158 12.533,72.158 12.533,88.693 	"/>
	
		<linearGradient id="SVGID_1_" gradientUnits="userSpaceOnUse" x1="250.1348" y1="-320.3262" x2="346.041" y2="-320.3262" gradientTransform="matrix(1 0 0 -1 -237.5996 -239.9004)">
		<stop  offset="0.08" style="stop-color:#EAEAEA"/>
		<stop  offset="0.1241" style="stop-color:#D7D7D7"/>
		<stop  offset="0.1888" style="stop-color:#C3C3C3"/>
		<stop  offset="0.2624" style="stop-color:#B5B5B5"/>
		<stop  offset="0.3516" style="stop-color:#ADADAD"/>
		<stop  offset="0.5" style="stop-color:#AAAAAA"/>
		<stop  offset="0.6484" style="stop-color:#ADADAD"/>
		<stop  offset="0.7376" style="stop-color:#B5B5B5"/>
		<stop  offset="0.8112" style="stop-color:#C3C3C3"/>
		<stop  offset="0.8759" style="stop-color:#D7D7D7"/>
		<stop  offset="0.92" style="stop-color:#EAEAEA"/>
	</linearGradient>
	<path fill="url(#SVGID_1_)" d="M12.534,86.693c0-2.668,0-9.869,0-12.535c3.754,0,92.153,0,95.907,0c0,2.666,0,9.867,0,12.535
		c-3.754,0-90.153,0-93.907,0"/>
	<path fill-opacity="0.1" d="M53.013,106.798c-1.657,0-3-1.342-3-2.999c0,0,0-39.675,0-44.947c-3.794,0-11.64,0-11.79,0
		c-0.221,0.029-0.444,0.045-0.665,0.045c-2.813,0-5.104-2.292-5.104-5.104c0-1.463,0.633-2.854,1.715-3.816
		c0.44-0.589,23.757-31.849,23.992-32.165c0.916-1.554,2.573-2.508,4.397-2.508c1.784,0,3.418,0.92,4.344,2.426
		c0.106,0.144,23.285,31.586,23.754,32.221c1.103,0.962,1.744,2.359,1.744,3.842c0,2.814-2.291,5.104-5.104,5.104
		c-0.218,0-0.438-0.016-0.657-0.045c-0.359,0-7.887,0-11.635,0c0,5.272,0,44.947,0,44.947c0,1.657-1.342,2.999-3,2.999H53.013"/>
	<path fill="#70B7E0" d="M51.013,104.798c-1.657,0-3-1.342-3-2.999c0,0,0-39.675,0-44.947c-3.794,0-11.64,0-11.79,0
		c-0.221,0.029-0.444,0.043-0.665,0.043c-2.813,0-5.104-2.291-5.104-5.104c0-1.463,0.633-2.854,1.715-3.816
		c0.44-0.589,23.757-31.849,23.992-32.165c0.916-1.554,2.574-2.508,4.396-2.508c1.786,0,3.42,0.92,4.346,2.426
		c0.105,0.144,23.285,31.586,23.752,32.221c1.104,0.962,1.744,2.359,1.744,3.842c0,2.814-2.289,5.104-5.104,5.104
		c-0.218,0-0.439-0.015-0.658-0.043c-0.359,0-7.886,0-11.634,0c0,5.272,0,44.947,0,44.947c0,1.657-1.342,2.999-3,2.999H51.013"/>
	<g>
		
			<linearGradient id="SVGID_2_" gradientUnits="userSpaceOnUse" x1="298.0273" y1="-341.6987" x2="298.0273" y2="-256.2026" gradientTransform="matrix(1 0 0 -1 -237.5996 -239.9004)">
			<stop  offset="0" style="stop-color:#48A2FB"/>
			<stop  offset="0.1758" style="stop-color:#059CF4"/>
			<stop  offset="0.4969" style="stop-color:#0398EF"/>
			<stop  offset="0.782" style="stop-color:#0293E7"/>
			<stop  offset="1" style="stop-color:#0189D8"/>
		</linearGradient>
		<path fill="url(#SVGID_2_)" d="M84.889,53.853H36.127l-2.272-3.12L58.81,17.279l3.625,0.157l24.516,33.252L84.889,53.853
			L84.889,53.853z M51.013,101.799V53.555h18.992v48.244H51.013L51.013,101.799z M35.558,53.896c-1.163,0-2.104-0.941-2.104-2.104
			c0-1.161,0.941-2.103,2.104-2.103c1.161,0,2.103,0.941,2.103,2.103S36.719,53.896,35.558,53.896L35.558,53.896z M85.297,53.896
			c-1.16,0-2.104-0.941-2.104-2.104c0-1.161,0.941-2.103,2.104-2.103S87.4,50.63,87.4,51.792S86.459,53.896,85.297,53.896
			L85.297,53.896z M60.559,20.509c-1.164,0-2.104-0.941-2.104-2.104c0-1.161,0.941-2.103,2.104-2.103
			c1.16,0,2.103,0.941,2.103,2.103C62.661,19.567,61.719,20.509,60.559,20.509L60.559,20.509z"/>
	</g>
	
		<linearGradient id="SVGID_3_" gradientUnits="userSpaceOnUse" x1="293.5537" y1="-283.8315" x2="293.5537" y2="-259.6934" gradientTransform="matrix(1 0 0 -1 -237.5996 -239.9004)">
		<stop  offset="0" style="stop-color:#FFFFFF;stop-opacity:0"/>
		<stop  offset="1" style="stop-color:#FFFFFF;stop-opacity:0.8"/>
	</linearGradient>
	<path fill="url(#SVGID_3_)" d="M61.202,19.793c0,0,7.718,9.604,9.793,12.125c-19.154-2.101-30.084,12.013-30.084,12.013
		l19.01-24.119L61.202,19.793L61.202,19.793z"/>
</g>
<g id="green">
	<polygon fill="#7B7B7B" points="108.441,88.693 108.441,72.158 12.533,72.158 12.533,88.693 	"/>
	
		<linearGradient id="SVGID_4_" gradientUnits="userSpaceOnUse" x1="250.1348" y1="-320.3262" x2="346.041" y2="-320.3262" gradientTransform="matrix(1 0 0 -1 -237.5996 -239.9004)">
		<stop  offset="0.08" style="stop-color:#EAEAEA"/>
		<stop  offset="0.1241" style="stop-color:#D7D7D7"/>
		<stop  offset="0.1888" style="stop-color:#C3C3C3"/>
		<stop  offset="0.2624" style="stop-color:#B5B5B5"/>
		<stop  offset="0.3516" style="stop-color:#ADADAD"/>
		<stop  offset="0.5" style="stop-color:#AAAAAA"/>
		<stop  offset="0.6484" style="stop-color:#ADADAD"/>
		<stop  offset="0.7376" style="stop-color:#B5B5B5"/>
		<stop  offset="0.8112" style="stop-color:#C3C3C3"/>
		<stop  offset="0.8759" style="stop-color:#D7D7D7"/>
		<stop  offset="0.92" style="stop-color:#EAEAEA"/>
	</linearGradient>
	<path fill="url(#SVGID_4_)" d="M12.534,86.693c0-2.668,0-9.869,0-12.535c3.754,0,92.153,0,95.907,0c0,2.666,0,9.867,0,12.535
		c-3.754,0-90.153,0-93.907,0"/>
	<path fill-opacity="0.1" d="M53.013,106.798c-1.657,0-3-1.342-3-2.999c0,0,0-39.675,0-44.947c-3.794,0-11.64,0-11.79,0
		c-0.221,0.029-0.444,0.045-0.665,0.045c-2.813,0-5.104-2.292-5.104-5.104c0-1.463,0.633-2.854,1.715-3.816
		c0.44-0.589,23.757-31.849,23.992-32.165c0.916-1.554,2.573-2.508,4.397-2.508c1.784,0,3.418,0.92,4.344,2.426
		c0.106,0.144,23.285,31.586,23.754,32.221c1.103,0.962,1.744,2.359,1.744,3.842c0,2.814-2.291,5.104-5.104,5.104
		c-0.218,0-0.438-0.016-0.657-0.045c-0.359,0-7.887,0-11.635,0c0,5.272,0,44.947,0,44.947c0,1.657-1.342,2.999-3,2.999H53.013"/>
	<path fill="#03FC30" d="M51.013,104.798c-1.657,0-3-1.342-3-2.999c0,0,0-39.675,0-44.947c-3.794,0-11.64,0-11.79,0
		c-0.221,0.029-0.444,0.043-0.665,0.043c-2.813,0-5.104-2.291-5.104-5.104c0-1.463,0.633-2.854,1.715-3.816
		c0.44-0.589,23.757-31.849,23.992-32.165c0.916-1.554,2.574-2.508,4.396-2.508c1.786,0,3.42,0.92,4.346,2.426
		c0.105,0.144,23.285,31.586,23.752,32.221c1.104,0.962,1.744,2.359,1.744,3.842c0,2.814-2.289,5.104-5.104,5.104
		c-0.218,0-0.439-0.015-0.658-0.043c-0.359,0-7.886,0-11.634,0c0,5.272,0,44.947,0,44.947c0,1.657-1.342,2.999-3,2.999H51.013"/>
	<g>
		
			<linearGradient id="SVGID_5_" gradientUnits="userSpaceOnUse" x1="298.0273" y1="-341.6987" x2="298.0273" y2="-256.2026" gradientTransform="matrix(1 0 0 -1 -237.5996 -239.9004)">
			<stop  offset="0" style="stop-color:#00DF34"/>
			<stop  offset="0.1758" style="stop-color:#00CD26"/>
			<stop  offset="0.4969" style="stop-color:#00B211"/>
			<stop  offset="0.782" style="stop-color:#00A204"/>
			<stop  offset="1" style="stop-color:#009C00"/>
		</linearGradient>
		<path fill="url(#SVGID_5_)" d="M84.889,53.853H36.127l-2.272-3.12L58.81,17.279l3.625,0.157l24.516,33.252L84.889,53.853
			L84.889,53.853z M51.013,101.799V53.555h18.992v48.244H51.013L51.013,101.799z M35.558,53.896c-1.163,0-2.104-0.941-2.104-2.104
			c0-1.161,0.941-2.103,2.104-2.103c1.161,0,2.103,0.941,2.103,2.103S36.719,53.896,35.558,53.896L35.558,53.896z M85.297,53.896
			c-1.16,0-2.104-0.941-2.104-2.104c0-1.161,0.941-2.103,2.104-2.103S87.4,50.63,87.4,51.792S86.459,53.896,85.297,53.896
			L85.297,53.896z M60.559,20.509c-1.164,0-2.104-0.941-2.104-2.104c0-1.161,0.941-2.103,2.104-2.103
			c1.16,0,2.103,0.941,2.103,2.103C62.661,19.567,61.719,20.509,60.559,20.509L60.559,20.509z"/>
	</g>
	
		<linearGradient id="SVGID_6_" gradientUnits="userSpaceOnUse" x1="293.5537" y1="-283.8315" x2="293.5537" y2="-259.6934" gradientTransform="matrix(1 0 0 -1 -237.5996 -239.9004)">
		<stop  offset="0" style="stop-color:#FFFFFF;stop-opacity:0"/>
		<stop  offset="1" style="stop-color:#FFFFFF;stop-opacity:0.8"/>
	</linearGradient>
	<path fill="url(#SVGID_6_)" d="M61.202,19.793c0,0,7.718,9.604,9.793,12.125c-19.154-2.101-30.084,12.013-30.084,12.013
		l19.01-24.119L61.202,19.793L61.202,19.793z"/>
</g>
<g id="kia">
	<polygon fill="#7B7B7B" points="108.441,88.693 108.441,72.158 12.533,72.158 12.533,88.693 	"/>
	
		<linearGradient id="SVGID_7_" gradientUnits="userSpaceOnUse" x1="250.1348" y1="-320.3262" x2="346.041" y2="-320.3262" gradientTransform="matrix(1 0 0 -1 -237.5996 -239.9004)">
		<stop  offset="0.08" style="stop-color:#EAEAEA"/>
		<stop  offset="0.1241" style="stop-color:#D7D7D7"/>
		<stop  offset="0.1888" style="stop-color:#C3C3C3"/>
		<stop  offset="0.2624" style="stop-color:#B5B5B5"/>
		<stop  offset="0.3516" style="stop-color:#ADADAD"/>
		<stop  offset="0.5" style="stop-color:#AAAAAA"/>
		<stop  offset="0.6484" style="stop-color:#ADADAD"/>
		<stop  offset="0.7376" style="stop-color:#B5B5B5"/>
		<stop  offset="0.8112" style="stop-color:#C3C3C3"/>
		<stop  offset="0.8759" style="stop-color:#D7D7D7"/>
		<stop  offset="0.92" style="stop-color:#EAEAEA"/>
	</linearGradient>
	<path fill="url(#SVGID_7_)" d="M12.534,86.693c0-2.668,0-9.869,0-12.535c3.754,0,92.153,0,95.907,0c0,2.666,0,9.867,0,12.535
		c-3.754,0-90.153,0-93.907,0"/>
	<path fill-opacity="0.1" d="M53.013,106.798c-1.657,0-3-1.342-3-2.999c0,0,0-39.675,0-44.947c-3.794,0-11.64,0-11.79,0
		c-0.221,0.029-0.444,0.045-0.665,0.045c-2.813,0-5.104-2.292-5.104-5.104c0-1.463,0.633-2.854,1.715-3.816
		c0.44-0.589,23.757-31.849,23.992-32.165c0.916-1.554,2.573-2.508,4.397-2.508c1.784,0,3.418,0.92,4.344,2.426
		c0.106,0.144,23.285,31.586,23.754,32.221c1.103,0.962,1.744,2.359,1.744,3.842c0,2.814-2.291,5.104-5.104,5.104
		c-0.218,0-0.438-0.016-0.657-0.045c-0.359,0-7.887,0-11.635,0c0,5.272,0,44.947,0,44.947c0,1.657-1.342,2.999-3,2.999H53.013"/>
	<path fill="#171e9e" d="M51.013,104.798c-1.657,0-3-1.342-3-2.999c0,0,0-39.675,0-44.947c-3.794,0-11.64,0-11.79,0
		c-0.221,0.029-0.444,0.043-0.665,0.043c-2.813,0-5.104-2.291-5.104-5.104c0-1.463,0.633-2.854,1.715-3.816
		c0.44-0.589,23.757-31.849,23.992-32.165c0.916-1.554,2.574-2.508,4.396-2.508c1.786,0,3.42,0.92,4.346,2.426
		c0.105,0.144,23.285,31.586,23.752,32.221c1.104,0.962,1.744,2.359,1.744,3.842c0,2.814-2.289,5.104-5.104,5.104
		c-0.218,0-0.439-0.015-0.658-0.043c-0.359,0-7.886,0-11.634,0c0,5.272,0,44.947,0,44.947c0,1.657-1.342,2.999-3,2.999H51.013"/>
	<g>
		
			<linearGradient id="SVGID_8_" gradientUnits="userSpaceOnUse" x1="298.0273" y1="-341.6987" x2="298.0273" y2="-256.2026" gradientTransform="matrix(1 0 0 -1 -237.5996 -239.9004)">
			<stop  offset="0" style="stop-color:#FFFFFF"/>
			<stop  offset="0.1758" style="stop-color:#E7E9EA"/>
			<stop  offset="0.4969" style="stop-color:#CDD2D5"/>
			<stop  offset="0.782" style="stop-color:#C5CACC"/>
			<stop  offset="1" style="stop-color:#BABDC0"/>
		</linearGradient>
		<path fill="url(#SVGID_8_)" d="M84.889,53.853H36.127l-2.272-3.12L58.81,17.279l3.625,0.157l24.516,33.252L84.889,53.853
			L84.889,53.853z M51.013,101.799V53.555h18.992v48.244H51.013L51.013,101.799z M35.558,53.896c-1.163,0-2.104-0.941-2.104-2.104
			c0-1.161,0.941-2.103,2.104-2.103c1.161,0,2.103,0.941,2.103,2.103S36.719,53.896,35.558,53.896L35.558,53.896z M85.297,53.896
			c-1.16,0-2.104-0.941-2.104-2.104c0-1.161,0.941-2.103,2.104-2.103S87.4,50.63,87.4,51.792S86.459,53.896,85.297,53.896
			L85.297,53.896z M60.559,20.509c-1.164,0-2.104-0.941-2.104-2.104c0-1.161,0.941-2.103,2.104-2.103
			c1.16,0,2.103,0.941,2.103,2.103C62.661,19.567,61.719,20.509,60.559,20.509L60.559,20.509z"/>
	</g>
	
		<linearGradient id="SVGID_9_" gradientUnits="userSpaceOnUse" x1="293.5537" y1="-283.8315" x2="293.5537" y2="-259.6934" gradientTransform="matrix(1 0 0 -1 -237.5996 -239.9004)">
		<stop  offset="0" style="stop-color:#FFFFFF;stop-opacity:0"/>
		<stop  offset="1" style="stop-color:#FFFFFF;stop-opacity:0.8"/>
	</linearGradient>
	<path fill="url(#SVGID_9_)" d="M61.202,19.793c0,0,7.718,9.604,9.793,12.125c-19.154-2.101-30.084,12.013-30.084,12.013
		l19.01-24.119L61.202,19.793L61.202,19.793z"/>
</g>
<g id="orange">
	<polygon fill="#7B7B7B" points="108.441,88.693 108.441,72.158 12.533,72.158 12.533,88.693 	"/>
	
		<linearGradient id="SVGID_10_" gradientUnits="userSpaceOnUse" x1="250.1348" y1="-320.3262" x2="346.041" y2="-320.3262" gradientTransform="matrix(1 0 0 -1 -237.5996 -239.9004)">
		<stop  offset="0.08" style="stop-color:#EAEAEA"/>
		<stop  offset="0.1241" style="stop-color:#D7D7D7"/>
		<stop  offset="0.1888" style="stop-color:#C3C3C3"/>
		<stop  offset="0.2624" style="stop-color:#B5B5B5"/>
		<stop  offset="0.3516" style="stop-color:#ADADAD"/>
		<stop  offset="0.5" style="stop-color:#AAAAAA"/>
		<stop  offset="0.6484" style="stop-color:#ADADAD"/>
		<stop  offset="0.7376" style="stop-color:#B5B5B5"/>
		<stop  offset="0.8112" style="stop-color:#C3C3C3"/>
		<stop  offset="0.8759" style="stop-color:#D7D7D7"/>
		<stop  offset="0.92" style="stop-color:#EAEAEA"/>
	</linearGradient>
	<path fill="url(#SVGID_10_)" d="M12.534,86.693c0-2.668,0-9.869,0-12.535c3.754,0,92.153,0,95.907,0c0,2.666,0,9.867,0,12.535
		c-3.754,0-90.153,0-93.907,0"/>
	<path fill-opacity="0.1" d="M53.013,106.798c-1.657,0-3-1.342-3-2.999c0,0,0-39.675,0-44.947c-3.794,0-11.64,0-11.79,0
		c-0.221,0.029-0.444,0.045-0.665,0.045c-2.813,0-5.104-2.292-5.104-5.104c0-1.463,0.633-2.854,1.715-3.816
		c0.44-0.589,23.757-31.849,23.992-32.165c0.916-1.554,2.573-2.508,4.397-2.508c1.784,0,3.418,0.92,4.344,2.426
		c0.106,0.144,23.285,31.586,23.754,32.221c1.103,0.962,1.744,2.359,1.744,3.842c0,2.814-2.291,5.104-5.104,5.104
		c-0.218,0-0.438-0.016-0.657-0.045c-0.359,0-7.887,0-11.635,0c0,5.272,0,44.947,0,44.947c0,1.657-1.342,2.999-3,2.999H53.013"/>
	<path fill="#FFE035" d="M51.013,104.798c-1.657,0-3-1.342-3-2.999c0,0,0-39.675,0-44.947c-3.794,0-11.64,0-11.79,0
		c-0.221,0.029-0.444,0.043-0.665,0.043c-2.813,0-5.104-2.291-5.104-5.104c0-1.463,0.633-2.854,1.715-3.816
		c0.44-0.589,23.757-31.849,23.992-32.165c0.916-1.554,2.574-2.508,4.396-2.508c1.786,0,3.42,0.92,4.346,2.426
		c0.105,0.144,23.285,31.586,23.752,32.221c1.104,0.962,1.744,2.359,1.744,3.842c0,2.814-2.289,5.104-5.104,5.104
		c-0.218,0-0.439-0.015-0.658-0.043c-0.359,0-7.886,0-11.634,0c0,5.272,0,44.947,0,44.947c0,1.657-1.342,2.999-3,2.999H51.013"/>
	<g>
		
			<linearGradient id="SVGID_11_" gradientUnits="userSpaceOnUse" x1="298.0273" y1="-341.6987" x2="298.0273" y2="-256.2026" gradientTransform="matrix(1 0 0 -1 -237.5996 -239.9004)">
			<stop  offset="0" style="stop-color:#FEDF34"/>
			<stop  offset="0.1758" style="stop-color:#FECD26"/>
			<stop  offset="0.4969" style="stop-color:#FFB211"/>
			<stop  offset="0.782" style="stop-color:#FFA204"/>
			<stop  offset="1" style="stop-color:#FF9C00"/>
		</linearGradient>
		<path fill="url(#SVGID_11_)" d="M84.889,53.853H36.127l-2.272-3.12L58.81,17.279l3.625,0.157l24.516,33.252L84.889,53.853
			L84.889,53.853z M51.013,101.799V53.555h18.992v48.244H51.013L51.013,101.799z M35.558,53.896c-1.163,0-2.104-0.941-2.104-2.104
			c0-1.161,0.941-2.103,2.104-2.103c1.161,0,2.103,0.941,2.103,2.103S36.719,53.896,35.558,53.896L35.558,53.896z M85.297,53.896
			c-1.16,0-2.104-0.941-2.104-2.104c0-1.161,0.941-2.103,2.104-2.103S87.4,50.63,87.4,51.792S86.459,53.896,85.297,53.896
			L85.297,53.896z M60.559,20.509c-1.164,0-2.104-0.941-2.104-2.104c0-1.161,0.941-2.103,2.104-2.103
			c1.16,0,2.103,0.941,2.103,2.103C62.661,19.567,61.719,20.509,60.559,20.509L60.559,20.509z"/>
	</g>
	
		<linearGradient id="SVGID_12_" gradientUnits="userSpaceOnUse" x1="293.5537" y1="-283.8315" x2="293.5537" y2="-259.6934" gradientTransform="matrix(1 0 0 -1 -237.5996 -239.9004)">
		<stop  offset="0" style="stop-color:#FFFFFF;stop-opacity:0"/>
		<stop  offset="1" style="stop-color:#FFFFFF;stop-opacity:0.8"/>
	</linearGradient>
	<path fill="url(#SVGID_12_)" d="M61.202,19.793c0,0,7.718,9.604,9.793,12.125c-19.154-2.101-30.084,12.013-30.084,12.013
		l19.01-24.119L61.202,19.793L61.202,19.793z"/>
</g>
<g id="red">
	<polygon fill="#7B7B7B" points="108.441,88.693 108.441,72.158 12.533,72.158 12.533,88.693 	"/>
	
		<linearGradient id="SVGID_13_" gradientUnits="userSpaceOnUse" x1="250.1348" y1="-320.3262" x2="346.041" y2="-320.3262" gradientTransform="matrix(1 0 0 -1 -237.5996 -239.9004)">
		<stop  offset="0.08" style="stop-color:#EAEAEA"/>
		<stop  offset="0.1241" style="stop-color:#D7D7D7"/>
		<stop  offset="0.1888" style="stop-color:#C3C3C3"/>
		<stop  offset="0.2624" style="stop-color:#B5B5B5"/>
		<stop  offset="0.3516" style="stop-color:#ADADAD"/>
		<stop  offset="0.5" style="stop-color:#AAAAAA"/>
		<stop  offset="0.6484" style="stop-color:#ADADAD"/>
		<stop  offset="0.7376" style="stop-color:#B5B5B5"/>
		<stop  offset="0.8112" style="stop-color:#C3C3C3"/>
		<stop  offset="0.8759" style="stop-color:#D7D7D7"/>
		<stop  offset="0.92" style="stop-color:#EAEAEA"/>
	</linearGradient>
	<path fill="url(#SVGID_13_)" d="M12.534,86.693c0-2.668,0-9.869,0-12.535c3.754,0,92.153,0,95.907,0c0,2.666,0,9.867,0,12.535
		c-3.754,0-90.153,0-93.907,0"/>
	<path fill-opacity="0.1" d="M53.013,106.798c-1.657,0-3-1.342-3-2.999c0,0,0-39.675,0-44.947c-3.794,0-11.64,0-11.79,0
		c-0.221,0.029-0.444,0.045-0.665,0.045c-2.813,0-5.104-2.292-5.104-5.104c0-1.463,0.633-2.854,1.715-3.816
		c0.44-0.589,23.757-31.849,23.992-32.165c0.916-1.554,2.573-2.508,4.397-2.508c1.784,0,3.418,0.92,4.344,2.426
		c0.106,0.144,23.285,31.586,23.754,32.221c1.103,0.962,1.744,2.359,1.744,3.842c0,2.814-2.291,5.104-5.104,5.104
		c-0.218,0-0.438-0.016-0.657-0.045c-0.359,0-7.887,0-11.635,0c0,5.272,0,44.947,0,44.947c0,1.657-1.342,2.999-3,2.999H53.013"/>
	<path fill="#FC7E7E" d="M51.013,104.798c-1.657,0-3-1.342-3-2.999c0,0,0-39.675,0-44.947c-3.794,0-11.64,0-11.79,0
		c-0.221,0.029-0.444,0.043-0.665,0.043c-2.813,0-5.104-2.291-5.104-5.104c0-1.463,0.633-2.854,1.715-3.816
		c0.44-0.589,23.757-31.849,23.992-32.165c0.916-1.554,2.574-2.508,4.396-2.508c1.786,0,3.42,0.92,4.346,2.426
		c0.105,0.144,23.285,31.586,23.752,32.221c1.104,0.962,1.744,2.359,1.744,3.842c0,2.814-2.289,5.104-5.104,5.104
		c-0.218,0-0.439-0.015-0.658-0.043c-0.359,0-7.886,0-11.634,0c0,5.272,0,44.947,0,44.947c0,1.657-1.342,2.999-3,2.999H51.013"/>
	<g>
		
			<linearGradient id="SVGID_14_" gradientUnits="userSpaceOnUse" x1="298.0273" y1="-341.6987" x2="298.0273" y2="-256.2026" gradientTransform="matrix(1 0 0 -1 -237.5996 -239.9004)">
			<stop  offset="0" style="stop-color:#FF0000"/>
			<stop  offset="0.1758" style="stop-color:#F60303"/>
			<stop  offset="0.4969" style="stop-color:#EC0404"/>
			<stop  offset="0.782" style="stop-color:#E30101"/>
			<stop  offset="1" style="stop-color:#D60202"/>
		</linearGradient>
		<path fill="url(#SVGID_14_)" d="M84.889,53.853H36.127l-2.272-3.12L58.81,17.279l3.625,0.157l24.516,33.252L84.889,53.853
			L84.889,53.853z M51.013,101.799V53.555h18.992v48.244H51.013L51.013,101.799z M35.558,53.896c-1.163,0-2.104-0.941-2.104-2.104
			c0-1.161,0.941-2.103,2.104-2.103c1.161,0,2.103,0.941,2.103,2.103S36.719,53.896,35.558,53.896L35.558,53.896z M85.297,53.896
			c-1.16,0-2.104-0.941-2.104-2.104c0-1.161,0.941-2.103,2.104-2.103S87.4,50.63,87.4,51.792S86.459,53.896,85.297,53.896
			L85.297,53.896z M60.559,20.509c-1.164,0-2.104-0.941-2.104-2.104c0-1.161,0.941-2.103,2.104-2.103
			c1.16,0,2.103,0.941,2.103,2.103C62.661,19.567,61.719,20.509,60.559,20.509L60.559,20.509z"/>
	</g>
	
		<linearGradient id="SVGID_15_" gradientUnits="userSpaceOnUse" x1="293.5537" y1="-283.8315" x2="293.5537" y2="-259.6934" gradientTransform="matrix(1 0 0 -1 -237.5996 -239.9004)">
		<stop  offset="0" style="stop-color:#FFFFFF;stop-opacity:0"/>
		<stop  offset="1" style="stop-color:#FFFFFF;stop-opacity:0.8"/>
	</linearGradient>
	<path fill="url(#SVGID_15_)" d="M61.202,19.793c0,0,7.718,9.604,9.793,12.125c-19.154-2.101-30.084,12.013-30.084,12.013
		l19.01-24.119L61.202,19.793L61.202,19.793z"/>
</g>
</svg>
