<?xml version="1.0" encoding="utf-8"?>
<!-- Generator: Adobe Illustrator 16.0.2, SVG Export Plug-In . SVG Version: 6.00 Build 0)  -->
<!DOCTYPE svg PUBLIC "-//W3C//DTD SVG 1.1//EN" "http://www.w3.org/Graphics/SVG/1.1/DTD/svg11.dtd">
<svg version="1.1" id="Layer_1" xmlns="http://www.w3.org/2000/svg" xmlns:xlink="http://www.w3.org/1999/xlink" x="0px" y="0px"
	 width="120px" height="120px" viewBox="0 0 120 120" enable-background="new 0 0 120 120" xml:space="preserve">
<g id="black_white">
	<g>
		
			<linearGradient id="SVGID_1_" gradientUnits="userSpaceOnUse" x1="297.6006" y1="-348.4272" x2="297.6006" y2="-251.3735" gradientTransform="matrix(1 0 0 -1 -237.5996 -239.9004)">
			<stop  offset="0" style="stop-color:#D40000"/>
			<stop  offset="1" style="stop-color:#FF1B15"/>
		</linearGradient>
		<circle fill="url(#SVGID_1_)" cx="60" cy="60" r="48.527"/>
		<path fill="#FFFFFF" d="M86.535,33.465C79.447,26.376,70.023,22.472,60,22.472c-10.024,0-19.447,3.905-26.536,10.993
			C26.375,40.553,22.472,49.976,22.472,60c0,10.023,3.904,19.449,10.993,26.536C40.551,93.624,49.976,97.527,60,97.527
			c10.023,0,19.447-3.903,26.535-10.992C93.623,79.445,97.527,70.023,97.527,60C97.527,49.976,93.624,40.553,86.535,33.465z"/>
		<path d="M38.364,79.447c0,0-0.279-17.264-0.17-22.73c0.192-9.59,7.764-8.523,16.443-8.523c7.953,0,14.995,0,14.995,0
			l-14.06-11.571h16.747l17.574,17.573L72.318,71.771l-16.747,0.164l14.06-11.567l-15.687,0.058c0,0-2.827,0.266-3.461,2.807
			c-0.617,2.459-0.086,16.213-0.086,16.213L38.364,79.447L38.364,79.447z"/>
	</g>
</g>
<g id="blue">
	<path fill-opacity="0.1" d="M43.191,103.309c-5.477-2.317-10.395-5.634-14.619-9.855c-4.223-4.225-7.54-9.143-9.855-14.619
		c-2.401-5.673-3.616-11.697-3.616-17.904c0-6.208,1.215-12.23,3.616-17.904c2.316-5.477,5.632-10.396,9.855-14.619
		c4.224-4.223,9.142-7.538,14.619-9.855c5.673-2.399,11.696-3.615,17.905-3.615c6.207,0,12.229,1.215,17.902,3.615
		c5.477,2.317,10.396,5.632,14.618,9.855c4.224,4.223,7.54,9.142,9.856,14.619c2.399,5.672,3.614,11.696,3.614,17.904
		c0,6.207-1.215,12.231-3.614,17.904c-2.316,5.479-5.634,10.396-9.856,14.619c-4.224,4.223-9.142,7.538-14.618,9.855
		c-5.673,2.398-11.695,3.613-17.902,3.613C54.887,106.922,48.864,105.707,43.191,103.309"/>
	<path fill="#FF2A2A" d="M41.191,101.309c-5.477-2.317-10.395-5.634-14.619-9.855c-4.223-4.225-7.54-9.143-9.855-14.619
		c-2.401-5.673-3.616-11.697-3.616-17.905c0-6.208,1.215-12.231,3.616-17.903c2.316-5.477,5.632-10.396,9.855-14.619
		c4.224-4.223,9.142-7.538,14.619-9.855c5.673-2.399,11.696-3.615,17.904-3.615c6.208,0,12.23,1.215,17.903,3.615
		c5.477,2.317,10.396,5.632,14.618,9.855c4.224,4.223,7.54,9.142,9.856,14.619c2.399,5.672,3.614,11.696,3.614,17.903
		c0,6.208-1.215,12.232-3.614,17.905c-2.316,5.479-5.634,10.396-9.856,14.619c-4.224,4.223-9.142,7.538-14.618,9.855
		c-5.673,2.398-11.695,3.613-17.903,3.613C52.887,104.922,46.864,103.707,41.191,101.309"/>
	
		<linearGradient id="SVGID_2_" gradientUnits="userSpaceOnUse" x1="296.6953" y1="-282.8862" x2="296.6953" y2="-254.5425" gradientTransform="matrix(1 0 0 -1 -237.5996 -239.9004)">
		<stop  offset="0" style="stop-color:#FFFFFF;stop-opacity:0"/>
		<stop  offset="1" style="stop-color:#FFFFFF;stop-opacity:0.8"/>
	</linearGradient>
	<path fill="url(#SVGID_2_)" d="M59.095,14.642c16.143,0,30.114,8.858,30.114,14.173c0,7.827-13.973,14.171-30.114,14.171
		c-16.142,0-30.115-6.344-30.115-14.171C28.979,23.5,42.952,14.642,59.095,14.642L59.095,14.642z"/>
	<path fill="#FFFFFF" d="M33.865,84.159c-6.738-6.74-10.449-15.699-10.449-25.23c0-9.53,3.711-18.49,10.449-25.23
		c6.74-6.739,15.699-10.45,25.229-10.45c9.531,0,18.489,3.711,25.228,10.45c6.738,6.739,10.449,15.7,10.449,25.23
		c0,9.531-3.711,18.491-10.449,25.23c-6.738,6.737-15.696,10.448-25.228,10.448C49.564,94.607,40.605,90.896,33.865,84.159"/>
	<path fill-opacity="0.1" d="M38.791,80.9c0,0-0.271-16.758-0.164-22.064c0.186-9.308,7.537-8.273,15.96-8.273
		c7.722,0,14.556,0,14.556,0L55.495,39.33h16.257l17.061,17.06L71.752,73.451l-16.257,0.16l13.647-11.23l-15.228,0.059
		c0,0-2.743,0.256-3.36,2.722c-0.597,2.389-0.084,15.741-0.084,15.741h-11.68V80.9z"/>
	<path d="M36.791,78.9c0,0-0.271-16.758-0.164-22.064c0.186-9.308,7.537-8.273,15.96-8.273c7.722,0,14.556,0,14.556,0L53.495,37.33
		h16.257l17.061,17.06L69.752,71.451l-16.257,0.16l13.647-11.23l-15.228,0.059c0,0-2.743,0.256-3.36,2.722
		c-0.597,2.389-0.084,15.741-0.084,15.741h-11.68V78.9z"/>
</g>
<g id="green">
	<path fill-opacity="0.1" d="M43.191,103.309c-5.477-2.317-10.395-5.634-14.619-9.855c-4.223-4.225-7.54-9.143-9.855-14.619
		c-2.401-5.673-3.616-11.697-3.616-17.904c0-6.208,1.215-12.23,3.616-17.904c2.316-5.477,5.632-10.396,9.855-14.619
		c4.224-4.223,9.142-7.538,14.619-9.855c5.673-2.399,11.696-3.615,17.905-3.615c6.207,0,12.229,1.215,17.902,3.615
		c5.477,2.317,10.396,5.632,14.618,9.855c4.224,4.223,7.54,9.142,9.856,14.619c2.399,5.672,3.614,11.696,3.614,17.904
		c0,6.207-1.215,12.231-3.614,17.904c-2.316,5.479-5.634,10.396-9.856,14.619c-4.224,4.223-9.142,7.538-14.618,9.855
		c-5.673,2.398-11.695,3.613-17.902,3.613C54.887,106.922,48.864,105.707,43.191,103.309"/>
	<path fill="#FF2A2A" d="M41.191,101.309c-5.477-2.317-10.395-5.634-14.619-9.855c-4.223-4.225-7.54-9.143-9.855-14.619
		c-2.401-5.673-3.616-11.697-3.616-17.905c0-6.208,1.215-12.231,3.616-17.903c2.316-5.477,5.632-10.396,9.855-14.619
		c4.224-4.223,9.142-7.538,14.619-9.855c5.673-2.399,11.696-3.615,17.904-3.615c6.208,0,12.23,1.215,17.903,3.615
		c5.477,2.317,10.396,5.632,14.618,9.855c4.224,4.223,7.54,9.142,9.856,14.619c2.399,5.672,3.614,11.696,3.614,17.903
		c0,6.208-1.215,12.232-3.614,17.905c-2.316,5.479-5.634,10.396-9.856,14.619c-4.224,4.223-9.142,7.538-14.618,9.855
		c-5.673,2.398-11.695,3.613-17.903,3.613C52.887,104.922,46.864,103.707,41.191,101.309"/>
	
		<linearGradient id="SVGID_3_" gradientUnits="userSpaceOnUse" x1="296.6953" y1="-282.8862" x2="296.6953" y2="-254.5425" gradientTransform="matrix(1 0 0 -1 -237.5996 -239.9004)">
		<stop  offset="0" style="stop-color:#FFFFFF;stop-opacity:0"/>
		<stop  offset="1" style="stop-color:#FFFFFF;stop-opacity:0.8"/>
	</linearGradient>
	<path fill="url(#SVGID_3_)" d="M59.095,14.642c16.143,0,30.114,8.858,30.114,14.173c0,7.827-13.973,14.171-30.114,14.171
		c-16.142,0-30.115-6.344-30.115-14.171C28.979,23.5,42.952,14.642,59.095,14.642L59.095,14.642z"/>
	<path fill="#FFFFFF" d="M33.865,84.159c-6.738-6.74-10.449-15.699-10.449-25.23c0-9.53,3.711-18.49,10.449-25.23
		c6.74-6.739,15.699-10.45,25.229-10.45c9.531,0,18.489,3.711,25.228,10.45c6.738,6.739,10.449,15.7,10.449,25.23
		c0,9.531-3.711,18.491-10.449,25.23c-6.738,6.737-15.696,10.448-25.228,10.448C49.564,94.607,40.605,90.896,33.865,84.159"/>
	<path fill-opacity="0.1" d="M38.791,80.9c0,0-0.271-16.758-0.164-22.064c0.186-9.308,7.537-8.273,15.96-8.273
		c7.722,0,14.556,0,14.556,0L55.495,39.33h16.257l17.061,17.06L71.752,73.451l-16.257,0.16l13.647-11.23l-15.228,0.059
		c0,0-2.743,0.256-3.36,2.722c-0.597,2.389-0.084,15.741-0.084,15.741h-11.68V80.9z"/>
	<path d="M36.791,78.9c0,0-0.271-16.758-0.164-22.064c0.186-9.308,7.537-8.273,15.96-8.273c7.722,0,14.556,0,14.556,0L53.495,37.33
		h16.257l17.061,17.06L69.752,71.451l-16.257,0.16l13.647-11.23l-15.228,0.059c0,0-2.743,0.256-3.36,2.722
		c-0.597,2.389-0.084,15.741-0.084,15.741h-11.68V78.9z"/>
</g>
<g id="kia">
	<path fill-opacity="0.1" d="M43.191,103.309c-5.477-2.317-10.395-5.634-14.619-9.855c-4.223-4.225-7.54-9.143-9.855-14.619
		c-2.401-5.673-3.616-11.697-3.616-17.904c0-6.208,1.215-12.23,3.616-17.904c2.316-5.477,5.632-10.396,9.855-14.619
		c4.224-4.223,9.142-7.538,14.619-9.855c5.673-2.399,11.696-3.615,17.905-3.615c6.207,0,12.229,1.215,17.902,3.615
		c5.477,2.317,10.396,5.632,14.618,9.855c4.224,4.223,7.54,9.142,9.856,14.619c2.399,5.672,3.614,11.696,3.614,17.904
		c0,6.207-1.215,12.231-3.614,17.904c-2.316,5.479-5.634,10.396-9.856,14.619c-4.224,4.223-9.142,7.538-14.618,9.855
		c-5.673,2.398-11.695,3.613-17.902,3.613C54.887,106.922,48.864,105.707,43.191,103.309"/>
	<path fill="#FF2A2A" d="M41.191,101.309c-5.477-2.317-10.395-5.634-14.619-9.855c-4.223-4.225-7.54-9.143-9.855-14.619
		c-2.401-5.673-3.616-11.697-3.616-17.905c0-6.208,1.215-12.231,3.616-17.903c2.316-5.477,5.632-10.396,9.855-14.619
		c4.224-4.223,9.142-7.538,14.619-9.855c5.673-2.399,11.696-3.615,17.904-3.615c6.208,0,12.23,1.215,17.903,3.615
		c5.477,2.317,10.396,5.632,14.618,9.855c4.224,4.223,7.54,9.142,9.856,14.619c2.399,5.672,3.614,11.696,3.614,17.903
		c0,6.208-1.215,12.232-3.614,17.905c-2.316,5.479-5.634,10.396-9.856,14.619c-4.224,4.223-9.142,7.538-14.618,9.855
		c-5.673,2.398-11.695,3.613-17.903,3.613C52.887,104.922,46.864,103.707,41.191,101.309"/>
	
		<linearGradient id="SVGID_4_" gradientUnits="userSpaceOnUse" x1="296.6953" y1="-282.8862" x2="296.6953" y2="-254.5425" gradientTransform="matrix(1 0 0 -1 -237.5996 -239.9004)">
		<stop  offset="0" style="stop-color:#FFFFFF;stop-opacity:0"/>
		<stop  offset="1" style="stop-color:#FFFFFF;stop-opacity:0.8"/>
	</linearGradient>
	<path fill="url(#SVGID_4_)" d="M59.095,14.642c16.143,0,30.114,8.858,30.114,14.173c0,7.827-13.973,14.171-30.114,14.171
		c-16.142,0-30.115-6.344-30.115-14.171C28.979,23.5,42.952,14.642,59.095,14.642L59.095,14.642z"/>
	<path fill="#FFFFFF" d="M33.865,84.159c-6.738-6.74-10.449-15.699-10.449-25.23c0-9.53,3.711-18.49,10.449-25.23
		c6.74-6.739,15.699-10.45,25.229-10.45c9.531,0,18.489,3.711,25.228,10.45c6.738,6.739,10.449,15.7,10.449,25.23
		c0,9.531-3.711,18.491-10.449,25.23c-6.738,6.737-15.696,10.448-25.228,10.448C49.564,94.607,40.605,90.896,33.865,84.159"/>
	<path fill-opacity="0.1" d="M38.791,80.9c0,0-0.271-16.758-0.164-22.064c0.186-9.308,7.537-8.273,15.96-8.273
		c7.722,0,14.556,0,14.556,0L55.495,39.33h16.257l17.061,17.06L71.752,73.451l-16.257,0.16l13.647-11.23l-15.228,0.059
		c0,0-2.743,0.256-3.36,2.722c-0.597,2.389-0.084,15.741-0.084,15.741h-11.68V80.9z"/>
	<path d="M36.791,78.9c0,0-0.271-16.758-0.164-22.064c0.186-9.308,7.537-8.273,15.96-8.273c7.722,0,14.556,0,14.556,0L53.495,37.33
		h16.257l17.061,17.06L69.752,71.451l-16.257,0.16l13.647-11.23l-15.228,0.059c0,0-2.743,0.256-3.36,2.722
		c-0.597,2.389-0.084,15.741-0.084,15.741h-11.68V78.9z"/>
</g>
<g id="orange">
	<path fill-opacity="0.1" d="M43.191,103.309c-5.477-2.317-10.395-5.634-14.619-9.855c-4.223-4.225-7.54-9.143-9.855-14.619
		c-2.401-5.673-3.616-11.697-3.616-17.904c0-6.208,1.215-12.23,3.616-17.904c2.316-5.477,5.632-10.396,9.855-14.619
		c4.224-4.223,9.142-7.538,14.619-9.855c5.673-2.399,11.696-3.615,17.905-3.615c6.207,0,12.229,1.215,17.902,3.615
		c5.477,2.317,10.396,5.632,14.618,9.855c4.224,4.223,7.54,9.142,9.856,14.619c2.399,5.672,3.614,11.696,3.614,17.904
		c0,6.207-1.215,12.231-3.614,17.904c-2.316,5.479-5.634,10.396-9.856,14.619c-4.224,4.223-9.142,7.538-14.618,9.855
		c-5.673,2.398-11.695,3.613-17.902,3.613C54.887,106.922,48.864,105.707,43.191,103.309"/>
	<path fill="#FF2A2A" d="M41.191,101.309c-5.477-2.317-10.395-5.634-14.619-9.855c-4.223-4.225-7.54-9.143-9.855-14.619
		c-2.401-5.673-3.616-11.697-3.616-17.905c0-6.208,1.215-12.231,3.616-17.903c2.316-5.477,5.632-10.396,9.855-14.619
		c4.224-4.223,9.142-7.538,14.619-9.855c5.673-2.399,11.696-3.615,17.904-3.615c6.208,0,12.23,1.215,17.903,3.615
		c5.477,2.317,10.396,5.632,14.618,9.855c4.224,4.223,7.54,9.142,9.856,14.619c2.399,5.672,3.614,11.696,3.614,17.903
		c0,6.208-1.215,12.232-3.614,17.905c-2.316,5.479-5.634,10.396-9.856,14.619c-4.224,4.223-9.142,7.538-14.618,9.855
		c-5.673,2.398-11.695,3.613-17.903,3.613C52.887,104.922,46.864,103.707,41.191,101.309"/>
	
		<linearGradient id="SVGID_5_" gradientUnits="userSpaceOnUse" x1="296.6953" y1="-282.8862" x2="296.6953" y2="-254.5425" gradientTransform="matrix(1 0 0 -1 -237.5996 -239.9004)">
		<stop  offset="0" style="stop-color:#FFFFFF;stop-opacity:0"/>
		<stop  offset="1" style="stop-color:#FFFFFF;stop-opacity:0.8"/>
	</linearGradient>
	<path fill="url(#SVGID_5_)" d="M59.095,14.642c16.143,0,30.114,8.858,30.114,14.173c0,7.827-13.973,14.171-30.114,14.171
		c-16.142,0-30.115-6.344-30.115-14.171C28.979,23.5,42.952,14.642,59.095,14.642L59.095,14.642z"/>
	<path fill="#FFFFFF" d="M33.865,84.159c-6.738-6.74-10.449-15.699-10.449-25.23c0-9.53,3.711-18.49,10.449-25.23
		c6.74-6.739,15.699-10.45,25.229-10.45c9.531,0,18.489,3.711,25.228,10.45c6.738,6.739,10.449,15.7,10.449,25.23
		c0,9.531-3.711,18.491-10.449,25.23c-6.738,6.737-15.696,10.448-25.228,10.448C49.564,94.607,40.605,90.896,33.865,84.159"/>
	<path fill-opacity="0.1" d="M38.791,80.9c0,0-0.271-16.758-0.164-22.064c0.186-9.308,7.537-8.273,15.96-8.273
		c7.722,0,14.556,0,14.556,0L55.495,39.33h16.257l17.061,17.06L71.752,73.451l-16.257,0.16l13.647-11.23l-15.228,0.059
		c0,0-2.743,0.256-3.36,2.722c-0.597,2.389-0.084,15.741-0.084,15.741h-11.68V80.9z"/>
	<path d="M36.791,78.9c0,0-0.271-16.758-0.164-22.064c0.186-9.308,7.537-8.273,15.96-8.273c7.722,0,14.556,0,14.556,0L53.495,37.33
		h16.257l17.061,17.06L69.752,71.451l-16.257,0.16l13.647-11.23l-15.228,0.059c0,0-2.743,0.256-3.36,2.722
		c-0.597,2.389-0.084,15.741-0.084,15.741h-11.68V78.9z"/>
</g>
<g id="red">
	<path fill-opacity="0.1" d="M43.191,103.309c-5.477-2.317-10.395-5.634-14.619-9.855c-4.223-4.225-7.54-9.143-9.855-14.619
		c-2.401-5.673-3.616-11.697-3.616-17.904c0-6.208,1.215-12.23,3.616-17.904c2.316-5.477,5.632-10.396,9.855-14.619
		c4.224-4.223,9.142-7.538,14.619-9.855c5.673-2.399,11.696-3.615,17.905-3.615c6.207,0,12.229,1.215,17.902,3.615
		c5.477,2.317,10.396,5.632,14.618,9.855c4.224,4.223,7.54,9.142,9.856,14.619c2.399,5.672,3.614,11.696,3.614,17.904
		c0,6.207-1.215,12.231-3.614,17.904c-2.316,5.479-5.634,10.396-9.856,14.619c-4.224,4.223-9.142,7.538-14.618,9.855
		c-5.673,2.398-11.695,3.613-17.902,3.613C54.887,106.922,48.864,105.707,43.191,103.309"/>
	<path fill="#FF2A2A" d="M41.191,101.309c-5.477-2.317-10.395-5.634-14.619-9.855c-4.223-4.225-7.54-9.143-9.855-14.619
		c-2.401-5.673-3.616-11.697-3.616-17.905c0-6.208,1.215-12.231,3.616-17.903c2.316-5.477,5.632-10.396,9.855-14.619
		c4.224-4.223,9.142-7.538,14.619-9.855c5.673-2.399,11.696-3.615,17.904-3.615c6.208,0,12.23,1.215,17.903,3.615
		c5.477,2.317,10.396,5.632,14.618,9.855c4.224,4.223,7.54,9.142,9.856,14.619c2.399,5.672,3.614,11.696,3.614,17.903
		c0,6.208-1.215,12.232-3.614,17.905c-2.316,5.479-5.634,10.396-9.856,14.619c-4.224,4.223-9.142,7.538-14.618,9.855
		c-5.673,2.398-11.695,3.613-17.903,3.613C52.887,104.922,46.864,103.707,41.191,101.309"/>
	
		<linearGradient id="SVGID_6_" gradientUnits="userSpaceOnUse" x1="296.6953" y1="-282.8862" x2="296.6953" y2="-254.5425" gradientTransform="matrix(1 0 0 -1 -237.5996 -239.9004)">
		<stop  offset="0" style="stop-color:#FFFFFF;stop-opacity:0"/>
		<stop  offset="1" style="stop-color:#FFFFFF;stop-opacity:0.8"/>
	</linearGradient>
	<path fill="url(#SVGID_6_)" d="M59.095,14.642c16.143,0,30.114,8.858,30.114,14.173c0,7.827-13.973,14.171-30.114,14.171
		c-16.142,0-30.115-6.344-30.115-14.171C28.979,23.5,42.952,14.642,59.095,14.642L59.095,14.642z"/>
	<path fill="#FFFFFF" d="M33.865,84.159c-6.738-6.74-10.449-15.699-10.449-25.23c0-9.53,3.711-18.49,10.449-25.23
		c6.74-6.739,15.699-10.45,25.229-10.45c9.531,0,18.489,3.711,25.228,10.45c6.738,6.739,10.449,15.7,10.449,25.23
		c0,9.531-3.711,18.491-10.449,25.23c-6.738,6.737-15.696,10.448-25.228,10.448C49.564,94.607,40.605,90.896,33.865,84.159"/>
	<path fill-opacity="0.1" d="M38.791,80.9c0,0-0.271-16.758-0.164-22.064c0.186-9.308,7.537-8.273,15.96-8.273
		c7.722,0,14.556,0,14.556,0L55.495,39.33h16.257l17.061,17.06L71.752,73.451l-16.257,0.16l13.647-11.23l-15.228,0.059
		c0,0-2.743,0.256-3.36,2.722c-0.597,2.389-0.084,15.741-0.084,15.741h-11.68V80.9z"/>
	<path d="M36.791,78.9c0,0-0.271-16.758-0.164-22.064c0.186-9.308,7.537-8.273,15.96-8.273c7.722,0,14.556,0,14.556,0L53.495,37.33
		h16.257l17.061,17.06L69.752,71.451l-16.257,0.16l13.647-11.23l-15.228,0.059c0,0-2.743,0.256-3.36,2.722
		c-0.597,2.389-0.084,15.741-0.084,15.741h-11.68V78.9z"/>
</g>
</svg>
