<?xml version="1.0" encoding="utf-8"?>
<!-- Generator: Adobe Illustrator 16.0.2, SVG Export Plug-In . SVG Version: 6.00 Build 0)  -->
<!DOCTYPE svg PUBLIC "-//W3C//DTD SVG 1.1//EN" "http://www.w3.org/Graphics/SVG/1.1/DTD/svg11.dtd">
<svg version="1.1" id="Layer_1" xmlns="http://www.w3.org/2000/svg" xmlns:xlink="http://www.w3.org/1999/xlink" x="0px" y="0px"
	 width="120px" height="120px" viewBox="0 0 120 120" enable-background="new 0 0 120 120" xml:space="preserve">
<g id="black_white">
	<g>
		<path fill="#FFFFFF" d="M19.519,19.81l41.352,0.026c1.54,0.001,2.422,1.754,1.506,2.992l-8.446,11.404l14.831,10.984l2.01,1.49
			l27.356,20.261l-0.007,0.01c2.566,1.903,4.236,4.946,4.236,8.389v26.85H81.458V80.628l-8.86-6.562l-1.613-1.195L41.491,51.026
			L33.104,62.35c-0.916,1.237-2.851,0.904-3.301-0.567l-12.08-39.548C17.356,21.027,18.258,19.809,19.519,19.81z"/>
		<path fill="#FFFFFF" d="M68.76,14.399h3.84v11.042h-3.84V14.399z M68.76,35.662v9.553v1.49h2.012h1.826V35.662H68.76z
			 M72.6,94.559h-3.84v11.043h3.84V94.559z M68.76,72.871v11.04h3.84v-9.847V72.87h-1.613L68.76,72.871L68.76,72.871z"/>
	</g>
</g>
<g id="blue">
	<path fill="#4E4E4E" d="M69.053,102.229c-1.105,0-2-0.896-2-2V88.654c0-1.104,0.895-2,2-2h4.961c1.104,0,2,0.896,2,2v11.574
		c0,1.104-0.896,2-2,2H69.053 M69.053,84.041c-1.105,0-2-0.896-2-2V70.465c0-1.105,0.895-2,2-2h4.961c1.104,0,2,0.895,2,2v11.576
		c0,1.104-0.896,2-2,2H69.053 M69.053,65.852c-1.105,0-2-0.896-2-2V52.275c0-1.105,0.895-2,2-2h4.961c1.104,0,2,0.896,2,2v11.577
		c0,1.104-0.896,2-2,2H69.053 M69.053,47.661c-1.105,0-2-0.896-2-2V34.086c0-1.105,0.895-2,2-2h4.961c1.104,0,2,0.895,2,2V45.66
		c0,1.105-0.896,2-2,2L69.053,47.661 M69.053,29.471c-1.105,0-2-0.895-2-2V15.896c0-1.105,0.895-2,2-2h4.961c1.104,0,2,0.896,2,2
		V27.47c0,1.105-0.896,2-2,2L69.053,29.471"/>
	<path fill="#FFFFFF" d="M69.053,100.229V88.654h4.961v11.574H69.053L69.053,100.229z M69.053,82.041V70.465h4.961v11.576H69.053
		L69.053,82.041z M69.053,63.852V52.275h4.961v11.577H69.053L69.053,63.852z M69.053,45.661V34.086h4.961V45.66L69.053,45.661
		L69.053,45.661z M69.053,27.471V15.896h4.961V27.47L69.053,27.471L69.053,27.471z"/>
	<path fill-opacity="0.1" d="M85.991,105.818c-1.657,0-2.999-1.344-2.999-3c0,0,0-16.855,0-19.537
		c-1.557-1.09-4.536-3.172-4.536-3.172s-2.396-1.676-2.918-2.041c-0.118-0.063-0.235-0.131-0.347-0.211l-4.85-3.424l0.01,0.008
		l-4.709-3.295c-0.107-0.076-0.207-0.155-0.302-0.242c-10.237-7.221-17.402-12.268-21.384-15.06
		c-2.194,3.173-6.853,9.906-6.859,9.916c-0.077,0.153-0.17,0.32-0.287,0.491c-0.003,0.003-0.005,0.007-0.007,0.011
		c-0.954,1.375-2.522,2.196-4.197,2.196c-1.042,0-2.047-0.313-2.905-0.908c-1.14-0.788-1.89-2.012-2.103-3.401
		C27.403,63.566,14.535,25.5,14.535,25.5c-0.027-0.079-0.05-0.159-0.069-0.239c-0.165-0.514-0.248-1.044-0.248-1.582
		c0-1.023,0.306-2.007,0.884-2.843c0.943-1.36,2.506-2.172,4.182-2.172c0.066-0.006,0.131-0.011,0.199-0.013
		c0,0,39.688-1.137,40.363-1.156c0.373-0.083,0.75-0.125,1.129-0.125c1.023,0,2.008,0.306,2.844,0.884
		c1.375,0.955,2.197,2.524,2.197,4.199c0,1.038-0.313,2.039-0.902,2.896c-0.006,0.006-0.01,0.013-0.014,0.019
		c-0.115,0.165-0.234,0.304-0.344,0.419c-0.13,0.188-4.643,6.708-6.799,9.826c5.854,4.114,16.645,11.726,21.572,15.205
		c4.982,3.349,21.56,14.593,25.691,18.723c2.293,2.297,3.526,6.357,3.666,12.08c0.063,0.245,0.1,0.503,0.1,0.766l0.002,20.432
		c0,0.795-0.314,1.559-0.877,2.119c-0.563,0.564-1.325,0.881-2.123,0.881H85.991"/>
	<path fill="#70B7E0" d="M83.991,103.818c-1.657,0-2.999-1.344-2.999-3c0,0,0-16.855,0-19.537c-1.557-1.09-4.536-3.172-4.536-3.172
		s-2.396-1.676-2.918-2.041c-0.118-0.063-0.235-0.131-0.347-0.211l-4.85-3.424l0.01,0.008l-4.709-3.295
		c-0.107-0.076-0.207-0.155-0.302-0.242c-10.237-7.221-17.402-12.267-21.384-15.06c-2.194,3.173-6.853,9.906-6.859,9.916
		c-0.077,0.153-0.17,0.32-0.287,0.491c-0.003,0.003-0.005,0.007-0.007,0.011c-0.954,1.375-2.522,2.196-4.197,2.196
		c-1.042,0-2.047-0.313-2.905-0.908c-1.14-0.788-1.89-2.012-2.103-3.401C25.403,61.566,12.535,23.5,12.535,23.5
		c-0.027-0.079-0.05-0.159-0.069-0.239c-0.165-0.514-0.248-1.044-0.248-1.582c0-1.023,0.306-2.007,0.884-2.843
		c0.943-1.36,2.506-2.172,4.182-2.172c0.066-0.006,0.131-0.011,0.199-0.013c0,0,39.688-1.137,40.363-1.156
		c0.373-0.083,0.751-0.125,1.129-0.125c1.024,0,2.007,0.306,2.843,0.884c1.375,0.955,2.197,2.524,2.197,4.199
		c0,1.038-0.313,2.039-0.902,2.896c-0.006,0.006-0.01,0.013-0.014,0.019c-0.115,0.165-0.234,0.304-0.344,0.419
		c-0.13,0.188-4.642,6.708-6.799,9.826c5.854,4.114,16.645,11.726,21.572,15.205c4.982,3.349,21.56,14.593,25.691,18.723
		c2.293,2.297,3.526,6.357,3.666,12.08c0.063,0.245,0.1,0.503,0.1,0.766l0.002,20.432c0,0.795-0.314,1.559-0.877,2.119
		c-0.563,0.564-1.325,0.881-2.123,0.881H83.991"/>
	<g>
		
			<linearGradient id="SVGID_1_" gradientUnits="userSpaceOnUse" x1="297.2031" y1="-340.7183" x2="297.2031" y2="-258.2725" gradientTransform="matrix(1 0 0 -1 -237.5996 -239.9004)">
			<stop  offset="0" style="stop-color:#48A2FB"/>
			<stop  offset="0.1758" style="stop-color:#059CF4"/>
			<stop  offset="0.4969" style="stop-color:#0398EF"/>
			<stop  offset="0.782" style="stop-color:#0293E7"/>
			<stop  offset="1" style="stop-color:#0189D8"/>
		</linearGradient>
		<path fill="url(#SVGID_1_)" d="M60.643,21.649c-0.078,0.112-0.19,0.181-0.285,0.274l0.016,0.039L32.628,62.059l-0.079,0.002
			c-0.059,0.168-0.104,0.338-0.21,0.492c-0.661,0.953-1.971,1.192-2.927,0.531c-0.551-0.382-0.831-0.98-0.87-1.602L15.378,22.54
			l0.01-0.013c-0.26-0.636-0.239-1.374,0.181-1.981c0.458-0.662,1.229-0.953,1.977-0.865l0.024-0.03l40.706-1.166
			c0.602-0.195,1.273-0.15,1.833,0.237C61.063,19.383,61.303,20.693,60.643,21.649L60.643,21.649z M83.991,100.818V71.428
			l19.995,8.959l0.002,20.432H83.991L83.991,100.818z M103.839,82.762c0,0-13.312,1.412-13.702,1.254
			c-6.472-4.523-24.775-17.326-24.775-17.326l9.594-15.983c0,0,21.598,14.411,26.145,18.958
			C104.549,73.115,103.839,82.762,103.839,82.762L103.839,82.762z M74.924,73.408c0,0-28.874-20.392-34.159-24.058
			c-8.152-5.655-2.849-12.575-2.849-12.575s13.419-2.622,13.812-2.465c6.47,4.526,32.79,23.115,32.79,23.115L74.924,73.408
			L74.924,73.408z"/>
	</g>
	
		<linearGradient id="SVGID_2_" gradientUnits="userSpaceOnUse" x1="260.415" y1="-290.3545" x2="260.415" y2="-259.5625" gradientTransform="matrix(1 0 0 -1 -237.5996 -239.9004)">
		<stop  offset="0" style="stop-color:#FFFFFF;stop-opacity:0"/>
		<stop  offset="1" style="stop-color:#FFFFFF;stop-opacity:0.8"/>
	</linearGradient>
	<path fill="url(#SVGID_2_)" d="M15.421,19.662c0,0,12.196,0.506,15.421,0c-11.552,15.423-5.657,30.792-5.657,30.792L14.787,20.773
		L15.421,19.662L15.421,19.662z"/>
</g>
<g id="green">
	<path fill="#4E4E4E" d="M69.053,102.229c-1.105,0-2-0.896-2-2V88.654c0-1.104,0.895-2,2-2h4.961c1.104,0,2,0.896,2,2v11.574
		c0,1.104-0.896,2-2,2H69.053 M69.053,84.041c-1.105,0-2-0.896-2-2V70.465c0-1.105,0.895-2,2-2h4.961c1.104,0,2,0.895,2,2v11.576
		c0,1.104-0.896,2-2,2H69.053 M69.053,65.852c-1.105,0-2-0.896-2-2V52.275c0-1.105,0.895-2,2-2h4.961c1.104,0,2,0.896,2,2v11.577
		c0,1.104-0.896,2-2,2H69.053 M69.053,47.661c-1.105,0-2-0.896-2-2V34.086c0-1.105,0.895-2,2-2h4.961c1.104,0,2,0.895,2,2V45.66
		c0,1.105-0.896,2-2,2L69.053,47.661 M69.053,29.471c-1.105,0-2-0.895-2-2V15.896c0-1.105,0.895-2,2-2h4.961c1.104,0,2,0.896,2,2
		V27.47c0,1.105-0.896,2-2,2L69.053,29.471"/>
	<path fill="#FFFFFF" d="M69.053,100.229V88.654h4.961v11.574H69.053L69.053,100.229z M69.053,82.041V70.465h4.961v11.576H69.053
		L69.053,82.041z M69.053,63.852V52.275h4.961v11.577H69.053L69.053,63.852z M69.053,45.661V34.086h4.961V45.66L69.053,45.661
		L69.053,45.661z M69.053,27.471V15.896h4.961V27.47L69.053,27.471L69.053,27.471z"/>
	<path fill-opacity="0.1" d="M85.991,105.818c-1.657,0-2.999-1.344-2.999-3c0,0,0-16.855,0-19.537
		c-1.557-1.09-4.536-3.172-4.536-3.172s-2.396-1.676-2.918-2.041c-0.118-0.063-0.235-0.131-0.347-0.211l-4.85-3.424l0.01,0.008
		l-4.709-3.295c-0.107-0.076-0.207-0.155-0.302-0.242c-10.237-7.221-17.402-12.268-21.384-15.06
		c-2.194,3.173-6.853,9.906-6.859,9.916c-0.077,0.153-0.17,0.32-0.287,0.491c-0.003,0.003-0.005,0.007-0.007,0.011
		c-0.954,1.375-2.522,2.196-4.197,2.196c-1.042,0-2.047-0.313-2.905-0.908c-1.14-0.788-1.89-2.012-2.103-3.401
		C27.403,63.566,14.535,25.5,14.535,25.5c-0.027-0.079-0.05-0.159-0.069-0.239c-0.165-0.514-0.248-1.044-0.248-1.582
		c0-1.023,0.306-2.007,0.884-2.843c0.943-1.36,2.506-2.172,4.182-2.172c0.066-0.006,0.131-0.011,0.199-0.013
		c0,0,39.688-1.137,40.363-1.156c0.373-0.083,0.75-0.125,1.129-0.125c1.023,0,2.008,0.306,2.844,0.884
		c1.375,0.955,2.197,2.524,2.197,4.199c0,1.038-0.313,2.039-0.902,2.896c-0.006,0.006-0.01,0.013-0.014,0.019
		c-0.115,0.165-0.234,0.304-0.344,0.419c-0.13,0.188-4.643,6.708-6.799,9.826c5.854,4.114,16.645,11.726,21.572,15.205
		c4.982,3.349,21.56,14.593,25.691,18.723c2.293,2.297,3.526,6.357,3.666,12.08c0.063,0.245,0.1,0.503,0.1,0.766l0.002,20.432
		c0,0.795-0.314,1.559-0.877,2.119c-0.563,0.564-1.325,0.881-2.123,0.881H85.991"/>
	<path fill="#03FC30" d="M83.991,103.818c-1.657,0-2.999-1.344-2.999-3c0,0,0-16.855,0-19.537c-1.557-1.09-4.536-3.172-4.536-3.172
		s-2.396-1.676-2.918-2.041c-0.118-0.063-0.235-0.131-0.347-0.211l-4.85-3.424l0.01,0.008l-4.709-3.295
		c-0.107-0.076-0.207-0.155-0.302-0.242c-10.237-7.221-17.402-12.267-21.384-15.06c-2.194,3.173-6.853,9.906-6.859,9.916
		c-0.077,0.153-0.17,0.32-0.287,0.491c-0.003,0.003-0.005,0.007-0.007,0.011c-0.954,1.375-2.522,2.196-4.197,2.196
		c-1.042,0-2.047-0.313-2.905-0.908c-1.14-0.788-1.89-2.012-2.103-3.401C25.403,61.566,12.535,23.5,12.535,23.5
		c-0.027-0.079-0.05-0.159-0.069-0.239c-0.165-0.514-0.248-1.044-0.248-1.582c0-1.023,0.306-2.007,0.884-2.843
		c0.943-1.36,2.506-2.172,4.182-2.172c0.066-0.006,0.131-0.011,0.199-0.013c0,0,39.688-1.137,40.363-1.156
		c0.373-0.083,0.751-0.125,1.129-0.125c1.024,0,2.007,0.306,2.843,0.884c1.375,0.955,2.197,2.524,2.197,4.199
		c0,1.038-0.313,2.039-0.902,2.896c-0.006,0.006-0.01,0.013-0.014,0.019c-0.115,0.165-0.234,0.304-0.344,0.419
		c-0.13,0.188-4.642,6.708-6.799,9.826c5.854,4.114,16.645,11.726,21.572,15.205c4.982,3.349,21.56,14.593,25.691,18.723
		c2.293,2.297,3.526,6.357,3.666,12.08c0.063,0.245,0.1,0.503,0.1,0.766l0.002,20.432c0,0.795-0.314,1.559-0.877,2.119
		c-0.563,0.564-1.325,0.881-2.123,0.881H83.991"/>
	<g>
		
			<linearGradient id="SVGID_3_" gradientUnits="userSpaceOnUse" x1="297.2031" y1="-340.7183" x2="297.2031" y2="-258.2725" gradientTransform="matrix(1 0 0 -1 -237.5996 -239.9004)">
			<stop  offset="0" style="stop-color:#00DF34"/>
			<stop  offset="0.1758" style="stop-color:#00CD26"/>
			<stop  offset="0.4969" style="stop-color:#00B211"/>
			<stop  offset="0.782" style="stop-color:#00A204"/>
			<stop  offset="1" style="stop-color:#009C00"/>
		</linearGradient>
		<path fill="url(#SVGID_3_)" d="M60.643,21.649c-0.078,0.112-0.19,0.181-0.285,0.274l0.016,0.039L32.628,62.059l-0.079,0.002
			c-0.059,0.168-0.104,0.338-0.21,0.492c-0.661,0.953-1.971,1.192-2.927,0.531c-0.551-0.382-0.831-0.98-0.87-1.602L15.378,22.54
			l0.01-0.013c-0.26-0.636-0.239-1.374,0.181-1.981c0.458-0.662,1.229-0.953,1.977-0.865l0.024-0.03l40.706-1.166
			c0.602-0.195,1.273-0.15,1.833,0.237C61.063,19.383,61.303,20.693,60.643,21.649L60.643,21.649z M83.991,100.818V71.428
			l19.995,8.959l0.002,20.432H83.991L83.991,100.818z M103.839,82.762c0,0-13.312,1.412-13.702,1.254
			c-6.472-4.523-24.775-17.326-24.775-17.326l9.594-15.983c0,0,21.598,14.411,26.145,18.958
			C104.549,73.115,103.839,82.762,103.839,82.762L103.839,82.762z M74.924,73.408c0,0-28.874-20.392-34.159-24.058
			c-8.152-5.655-2.849-12.575-2.849-12.575s13.419-2.622,13.812-2.465c6.47,4.526,32.79,23.115,32.79,23.115L74.924,73.408
			L74.924,73.408z"/>
	</g>
	
		<linearGradient id="SVGID_4_" gradientUnits="userSpaceOnUse" x1="260.415" y1="-290.3545" x2="260.415" y2="-259.5625" gradientTransform="matrix(1 0 0 -1 -237.5996 -239.9004)">
		<stop  offset="0" style="stop-color:#FFFFFF;stop-opacity:0"/>
		<stop  offset="1" style="stop-color:#FFFFFF;stop-opacity:0.8"/>
	</linearGradient>
	<path fill="url(#SVGID_4_)" d="M15.421,19.662c0,0,12.196,0.506,15.421,0c-11.552,15.423-5.657,30.792-5.657,30.792L14.787,20.773
		L15.421,19.662L15.421,19.662z"/>
</g>
<g id="kia">
	<path fill="#4E4E4E" d="M69.053,102.229c-1.105,0-2-0.896-2-2V88.654c0-1.104,0.895-2,2-2h4.961c1.104,0,2,0.896,2,2v11.574
		c0,1.104-0.896,2-2,2H69.053 M69.053,84.041c-1.105,0-2-0.896-2-2V70.465c0-1.105,0.895-2,2-2h4.961c1.104,0,2,0.895,2,2v11.576
		c0,1.104-0.896,2-2,2H69.053 M69.053,65.852c-1.105,0-2-0.896-2-2V52.275c0-1.105,0.895-2,2-2h4.961c1.104,0,2,0.896,2,2v11.577
		c0,1.104-0.896,2-2,2H69.053 M69.053,47.661c-1.105,0-2-0.896-2-2V34.086c0-1.105,0.895-2,2-2h4.961c1.104,0,2,0.895,2,2V45.66
		c0,1.105-0.896,2-2,2L69.053,47.661 M69.053,29.471c-1.105,0-2-0.895-2-2V15.896c0-1.105,0.895-2,2-2h4.961c1.104,0,2,0.896,2,2
		V27.47c0,1.105-0.896,2-2,2L69.053,29.471"/>
	<path fill="#FFFFFF" d="M69.053,100.229V88.654h4.961v11.574H69.053L69.053,100.229z M69.053,82.041V70.465h4.961v11.576H69.053
		L69.053,82.041z M69.053,63.852V52.275h4.961v11.577H69.053L69.053,63.852z M69.053,45.661V34.086h4.961V45.66L69.053,45.661
		L69.053,45.661z M69.053,27.471V15.896h4.961V27.47L69.053,27.471L69.053,27.471z"/>
	<path fill-opacity="0.1" d="M85.991,105.818c-1.657,0-2.999-1.344-2.999-3c0,0,0-16.855,0-19.537
		c-1.557-1.09-4.536-3.172-4.536-3.172s-2.396-1.676-2.918-2.041c-0.118-0.063-0.235-0.131-0.347-0.211l-4.85-3.424l0.01,0.008
		l-4.709-3.295c-0.107-0.076-0.207-0.155-0.302-0.242c-10.237-7.221-17.402-12.268-21.384-15.06
		c-2.194,3.173-6.853,9.906-6.859,9.916c-0.077,0.153-0.17,0.32-0.287,0.491c-0.003,0.003-0.005,0.007-0.007,0.011
		c-0.954,1.375-2.522,2.196-4.197,2.196c-1.042,0-2.047-0.313-2.905-0.908c-1.14-0.788-1.89-2.012-2.103-3.401
		C27.403,63.566,14.535,25.5,14.535,25.5c-0.027-0.079-0.05-0.159-0.069-0.239c-0.165-0.514-0.248-1.044-0.248-1.582
		c0-1.023,0.306-2.007,0.884-2.843c0.943-1.36,2.506-2.172,4.182-2.172c0.066-0.006,0.131-0.011,0.199-0.013
		c0,0,39.688-1.137,40.363-1.156c0.373-0.083,0.75-0.125,1.129-0.125c1.023,0,2.008,0.306,2.844,0.884
		c1.375,0.955,2.197,2.524,2.197,4.199c0,1.038-0.313,2.039-0.902,2.896c-0.006,0.006-0.01,0.013-0.014,0.019
		c-0.115,0.165-0.234,0.304-0.344,0.419c-0.13,0.188-4.643,6.708-6.799,9.826c5.854,4.114,16.645,11.726,21.572,15.205
		c4.982,3.349,21.56,14.593,25.691,18.723c2.293,2.297,3.526,6.357,3.666,12.08c0.063,0.245,0.1,0.503,0.1,0.766l0.002,20.432
		c0,0.795-0.314,1.559-0.877,2.119c-0.563,0.564-1.325,0.881-2.123,0.881H85.991"/>
	<path fill="#171e9e" d="M83.991,103.818c-1.657,0-2.999-1.344-2.999-3c0,0,0-16.855,0-19.537c-1.557-1.09-4.536-3.172-4.536-3.172
		s-2.396-1.676-2.918-2.041c-0.118-0.063-0.235-0.131-0.347-0.211l-4.85-3.424l0.01,0.008l-4.709-3.295
		c-0.107-0.076-0.207-0.155-0.302-0.242c-10.237-7.221-17.402-12.267-21.384-15.06c-2.194,3.173-6.853,9.906-6.859,9.916
		c-0.077,0.153-0.17,0.32-0.287,0.491c-0.003,0.003-0.005,0.007-0.007,0.011c-0.954,1.375-2.522,2.196-4.197,2.196
		c-1.042,0-2.047-0.313-2.905-0.908c-1.14-0.788-1.89-2.012-2.103-3.401C25.403,61.566,12.535,23.5,12.535,23.5
		c-0.027-0.079-0.05-0.159-0.069-0.239c-0.165-0.514-0.248-1.044-0.248-1.582c0-1.023,0.306-2.007,0.884-2.843
		c0.943-1.36,2.506-2.172,4.182-2.172c0.066-0.006,0.131-0.011,0.199-0.013c0,0,39.688-1.137,40.363-1.156
		c0.373-0.083,0.751-0.125,1.129-0.125c1.024,0,2.007,0.306,2.843,0.884c1.375,0.955,2.197,2.524,2.197,4.199
		c0,1.038-0.313,2.039-0.902,2.896c-0.006,0.006-0.01,0.013-0.014,0.019c-0.115,0.165-0.234,0.304-0.344,0.419
		c-0.13,0.188-4.642,6.708-6.799,9.826c5.854,4.114,16.645,11.726,21.572,15.205c4.982,3.349,21.56,14.593,25.691,18.723
		c2.293,2.297,3.526,6.357,3.666,12.08c0.063,0.245,0.1,0.503,0.1,0.766l0.002,20.432c0,0.795-0.314,1.559-0.877,2.119
		c-0.563,0.564-1.325,0.881-2.123,0.881H83.991"/>
	<g>
		
			<linearGradient id="SVGID_5_" gradientUnits="userSpaceOnUse" x1="297.2031" y1="-340.7183" x2="297.2031" y2="-258.2725" gradientTransform="matrix(1 0 0 -1 -237.5996 -239.9004)">
			<stop  offset="0" style="stop-color:#FFFFFF"/>
			<stop  offset="0.1758" style="stop-color:#E7E9EA"/>
			<stop  offset="0.4969" style="stop-color:#CDD2D5"/>
			<stop  offset="0.782" style="stop-color:#C5CACC"/>
			<stop  offset="1" style="stop-color:#BABDC0"/>
		</linearGradient>
		<path fill="url(#SVGID_5_)" d="M60.643,21.649c-0.078,0.112-0.19,0.181-0.285,0.274l0.016,0.039L32.628,62.059l-0.079,0.002
			c-0.059,0.168-0.104,0.338-0.21,0.492c-0.661,0.953-1.971,1.192-2.927,0.531c-0.551-0.382-0.831-0.98-0.87-1.602L15.378,22.54
			l0.01-0.013c-0.26-0.636-0.239-1.374,0.181-1.981c0.458-0.662,1.229-0.953,1.977-0.865l0.024-0.03l40.706-1.166
			c0.602-0.195,1.273-0.15,1.833,0.237C61.063,19.383,61.303,20.693,60.643,21.649L60.643,21.649z M83.991,100.818V71.428
			l19.995,8.959l0.002,20.432H83.991L83.991,100.818z M103.839,82.762c0,0-13.312,1.412-13.702,1.254
			c-6.472-4.523-24.775-17.326-24.775-17.326l9.594-15.983c0,0,21.598,14.411,26.145,18.958
			C104.549,73.115,103.839,82.762,103.839,82.762L103.839,82.762z M74.924,73.408c0,0-28.874-20.392-34.159-24.058
			c-8.152-5.655-2.849-12.575-2.849-12.575s13.419-2.622,13.812-2.465c6.47,4.526,32.79,23.115,32.79,23.115L74.924,73.408
			L74.924,73.408z"/>
	</g>
	
		<linearGradient id="SVGID_6_" gradientUnits="userSpaceOnUse" x1="260.415" y1="-290.3545" x2="260.415" y2="-259.5625" gradientTransform="matrix(1 0 0 -1 -237.5996 -239.9004)">
		<stop  offset="0" style="stop-color:#FFFFFF;stop-opacity:0"/>
		<stop  offset="1" style="stop-color:#FFFFFF;stop-opacity:0.8"/>
	</linearGradient>
	<path fill="url(#SVGID_6_)" d="M15.421,19.662c0,0,12.196,0.506,15.421,0c-11.552,15.423-5.657,30.792-5.657,30.792L14.787,20.773
		L15.421,19.662L15.421,19.662z"/>
</g>
<g id="orange">
	<path fill="#4E4E4E" d="M69.053,102.229c-1.105,0-2-0.896-2-2V88.654c0-1.104,0.895-2,2-2h4.961c1.104,0,2,0.896,2,2v11.574
		c0,1.104-0.896,2-2,2H69.053 M69.053,84.041c-1.105,0-2-0.896-2-2V70.465c0-1.105,0.895-2,2-2h4.961c1.104,0,2,0.895,2,2v11.576
		c0,1.104-0.896,2-2,2H69.053 M69.053,65.852c-1.105,0-2-0.896-2-2V52.275c0-1.105,0.895-2,2-2h4.961c1.104,0,2,0.896,2,2v11.577
		c0,1.104-0.896,2-2,2H69.053 M69.053,47.661c-1.105,0-2-0.896-2-2V34.086c0-1.105,0.895-2,2-2h4.961c1.104,0,2,0.895,2,2V45.66
		c0,1.105-0.896,2-2,2L69.053,47.661 M69.053,29.471c-1.105,0-2-0.895-2-2V15.896c0-1.105,0.895-2,2-2h4.961c1.104,0,2,0.896,2,2
		V27.47c0,1.105-0.896,2-2,2L69.053,29.471"/>
	<path fill="#FFFFFF" d="M69.053,100.229V88.654h4.961v11.574H69.053L69.053,100.229z M69.053,82.041V70.465h4.961v11.576H69.053
		L69.053,82.041z M69.053,63.852V52.275h4.961v11.577H69.053L69.053,63.852z M69.053,45.661V34.086h4.961V45.66L69.053,45.661
		L69.053,45.661z M69.053,27.471V15.896h4.961V27.47L69.053,27.471L69.053,27.471z"/>
	<path fill-opacity="0.1" d="M85.991,105.818c-1.657,0-2.999-1.344-2.999-3c0,0,0-16.855,0-19.537
		c-1.557-1.09-4.536-3.172-4.536-3.172s-2.396-1.676-2.918-2.041c-0.118-0.063-0.235-0.131-0.347-0.211l-4.85-3.424l0.01,0.008
		l-4.709-3.295c-0.107-0.076-0.207-0.155-0.302-0.242c-10.237-7.221-17.402-12.268-21.384-15.06
		c-2.194,3.173-6.853,9.906-6.859,9.916c-0.077,0.153-0.17,0.32-0.287,0.491c-0.003,0.003-0.005,0.007-0.007,0.011
		c-0.954,1.375-2.522,2.196-4.197,2.196c-1.042,0-2.047-0.313-2.905-0.908c-1.14-0.788-1.89-2.012-2.103-3.401
		C27.403,63.566,14.535,25.5,14.535,25.5c-0.027-0.079-0.05-0.159-0.069-0.239c-0.165-0.514-0.248-1.044-0.248-1.582
		c0-1.023,0.306-2.007,0.884-2.843c0.943-1.36,2.506-2.172,4.182-2.172c0.066-0.006,0.131-0.011,0.199-0.013
		c0,0,39.688-1.137,40.363-1.156c0.373-0.083,0.75-0.125,1.129-0.125c1.023,0,2.008,0.306,2.844,0.884
		c1.375,0.955,2.197,2.524,2.197,4.199c0,1.038-0.313,2.039-0.902,2.896c-0.006,0.006-0.01,0.013-0.014,0.019
		c-0.115,0.165-0.234,0.304-0.344,0.419c-0.13,0.188-4.643,6.708-6.799,9.826c5.854,4.114,16.645,11.726,21.572,15.205
		c4.982,3.349,21.56,14.593,25.691,18.723c2.293,2.297,3.526,6.357,3.666,12.08c0.063,0.245,0.1,0.503,0.1,0.766l0.002,20.432
		c0,0.795-0.314,1.559-0.877,2.119c-0.563,0.564-1.325,0.881-2.123,0.881H85.991"/>
	<path fill="#FFE035" d="M83.991,103.818c-1.657,0-2.999-1.344-2.999-3c0,0,0-16.855,0-19.537c-1.557-1.09-4.536-3.172-4.536-3.172
		s-2.396-1.676-2.918-2.041c-0.118-0.063-0.235-0.131-0.347-0.211l-4.85-3.424l0.01,0.008l-4.709-3.295
		c-0.107-0.076-0.207-0.155-0.302-0.242c-10.237-7.221-17.402-12.267-21.384-15.06c-2.194,3.173-6.853,9.906-6.859,9.916
		c-0.077,0.153-0.17,0.32-0.287,0.491c-0.003,0.003-0.005,0.007-0.007,0.011c-0.954,1.375-2.522,2.196-4.197,2.196
		c-1.042,0-2.047-0.313-2.905-0.908c-1.14-0.788-1.89-2.012-2.103-3.401C25.403,61.566,12.535,23.5,12.535,23.5
		c-0.027-0.079-0.05-0.159-0.069-0.239c-0.165-0.514-0.248-1.044-0.248-1.582c0-1.023,0.306-2.007,0.884-2.843
		c0.943-1.36,2.506-2.172,4.182-2.172c0.066-0.006,0.131-0.011,0.199-0.013c0,0,39.688-1.137,40.363-1.156
		c0.373-0.083,0.751-0.125,1.129-0.125c1.024,0,2.007,0.306,2.843,0.884c1.375,0.955,2.197,2.524,2.197,4.199
		c0,1.038-0.313,2.039-0.902,2.896c-0.006,0.006-0.01,0.013-0.014,0.019c-0.115,0.165-0.234,0.304-0.344,0.419
		c-0.13,0.188-4.642,6.708-6.799,9.826c5.854,4.114,16.645,11.726,21.572,15.205c4.982,3.349,21.56,14.593,25.691,18.723
		c2.293,2.297,3.526,6.357,3.666,12.08c0.063,0.245,0.1,0.503,0.1,0.766l0.002,20.432c0,0.795-0.314,1.559-0.877,2.119
		c-0.563,0.564-1.325,0.881-2.123,0.881H83.991"/>
	<g>
		
			<linearGradient id="SVGID_7_" gradientUnits="userSpaceOnUse" x1="297.2031" y1="-340.7183" x2="297.2031" y2="-258.2725" gradientTransform="matrix(1 0 0 -1 -237.5996 -239.9004)">
			<stop  offset="0" style="stop-color:#FEDF34"/>
			<stop  offset="0.1758" style="stop-color:#FECD26"/>
			<stop  offset="0.4969" style="stop-color:#FFB211"/>
			<stop  offset="0.782" style="stop-color:#FFA204"/>
			<stop  offset="1" style="stop-color:#FF9C00"/>
		</linearGradient>
		<path fill="url(#SVGID_7_)" d="M60.643,21.649c-0.078,0.112-0.19,0.181-0.285,0.274l0.016,0.039L32.628,62.059l-0.079,0.002
			c-0.059,0.168-0.104,0.338-0.21,0.492c-0.661,0.953-1.971,1.192-2.927,0.531c-0.551-0.382-0.831-0.98-0.87-1.602L15.378,22.54
			l0.01-0.013c-0.26-0.636-0.239-1.374,0.181-1.981c0.458-0.662,1.229-0.953,1.977-0.865l0.024-0.03l40.706-1.166
			c0.602-0.195,1.273-0.15,1.833,0.237C61.063,19.383,61.303,20.693,60.643,21.649L60.643,21.649z M83.991,100.818V71.428
			l19.995,8.959l0.002,20.432H83.991L83.991,100.818z M103.839,82.762c0,0-13.312,1.412-13.702,1.254
			c-6.472-4.523-24.775-17.326-24.775-17.326l9.594-15.983c0,0,21.598,14.411,26.145,18.958
			C104.549,73.115,103.839,82.762,103.839,82.762L103.839,82.762z M74.924,73.408c0,0-28.874-20.392-34.159-24.058
			c-8.152-5.655-2.849-12.575-2.849-12.575s13.419-2.622,13.812-2.465c6.47,4.526,32.79,23.115,32.79,23.115L74.924,73.408
			L74.924,73.408z"/>
	</g>
	
		<linearGradient id="SVGID_8_" gradientUnits="userSpaceOnUse" x1="260.415" y1="-290.3545" x2="260.415" y2="-259.5625" gradientTransform="matrix(1 0 0 -1 -237.5996 -239.9004)">
		<stop  offset="0" style="stop-color:#FFFFFF;stop-opacity:0"/>
		<stop  offset="1" style="stop-color:#FFFFFF;stop-opacity:0.8"/>
	</linearGradient>
	<path fill="url(#SVGID_8_)" d="M15.421,19.662c0,0,12.196,0.506,15.421,0c-11.552,15.423-5.657,30.792-5.657,30.792L14.787,20.773
		L15.421,19.662L15.421,19.662z"/>
</g>
<g id="red">
	<path fill="#4E4E4E" d="M69.053,102.229c-1.105,0-2-0.896-2-2V88.654c0-1.104,0.895-2,2-2h4.961c1.104,0,2,0.896,2,2v11.574
		c0,1.104-0.896,2-2,2H69.053 M69.053,84.041c-1.105,0-2-0.896-2-2V70.465c0-1.105,0.895-2,2-2h4.961c1.104,0,2,0.895,2,2v11.576
		c0,1.104-0.896,2-2,2H69.053 M69.053,65.852c-1.105,0-2-0.896-2-2V52.275c0-1.105,0.895-2,2-2h4.961c1.104,0,2,0.896,2,2v11.577
		c0,1.104-0.896,2-2,2H69.053 M69.053,47.661c-1.105,0-2-0.896-2-2V34.086c0-1.105,0.895-2,2-2h4.961c1.104,0,2,0.895,2,2V45.66
		c0,1.105-0.896,2-2,2L69.053,47.661 M69.053,29.471c-1.105,0-2-0.895-2-2V15.896c0-1.105,0.895-2,2-2h4.961c1.104,0,2,0.896,2,2
		V27.47c0,1.105-0.896,2-2,2L69.053,29.471"/>
	<path fill="#FFFFFF" d="M69.053,100.229V88.654h4.961v11.574H69.053L69.053,100.229z M69.053,82.041V70.465h4.961v11.576H69.053
		L69.053,82.041z M69.053,63.852V52.275h4.961v11.577H69.053L69.053,63.852z M69.053,45.661V34.086h4.961V45.66L69.053,45.661
		L69.053,45.661z M69.053,27.471V15.896h4.961V27.47L69.053,27.471L69.053,27.471z"/>
	<path fill-opacity="0.1" d="M85.991,105.818c-1.657,0-2.999-1.344-2.999-3c0,0,0-16.855,0-19.537
		c-1.557-1.09-4.536-3.172-4.536-3.172s-2.396-1.676-2.918-2.041c-0.118-0.063-0.235-0.131-0.347-0.211l-4.85-3.424l0.01,0.008
		l-4.709-3.295c-0.107-0.076-0.207-0.155-0.302-0.242c-10.237-7.221-17.402-12.268-21.384-15.06
		c-2.194,3.173-6.853,9.906-6.859,9.916c-0.077,0.153-0.17,0.32-0.287,0.491c-0.003,0.003-0.005,0.007-0.007,0.011
		c-0.954,1.375-2.522,2.196-4.197,2.196c-1.042,0-2.047-0.313-2.905-0.908c-1.14-0.788-1.89-2.012-2.103-3.401
		C27.403,63.566,14.535,25.5,14.535,25.5c-0.027-0.079-0.05-0.159-0.069-0.239c-0.165-0.514-0.248-1.044-0.248-1.582
		c0-1.023,0.306-2.007,0.884-2.843c0.943-1.36,2.506-2.172,4.182-2.172c0.066-0.006,0.131-0.011,0.199-0.013
		c0,0,39.688-1.137,40.363-1.156c0.373-0.083,0.75-0.125,1.129-0.125c1.023,0,2.008,0.306,2.844,0.884
		c1.375,0.955,2.197,2.524,2.197,4.199c0,1.038-0.313,2.039-0.902,2.896c-0.006,0.006-0.01,0.013-0.014,0.019
		c-0.115,0.165-0.234,0.304-0.344,0.419c-0.13,0.188-4.643,6.708-6.799,9.826c5.854,4.114,16.645,11.726,21.572,15.205
		c4.982,3.349,21.56,14.593,25.691,18.723c2.293,2.297,3.526,6.357,3.666,12.08c0.063,0.245,0.1,0.503,0.1,0.766l0.002,20.432
		c0,0.795-0.314,1.559-0.877,2.119c-0.563,0.564-1.325,0.881-2.123,0.881H85.991"/>
	<path fill="#FC7E7E" d="M83.991,103.818c-1.657,0-2.999-1.344-2.999-3c0,0,0-16.855,0-19.537c-1.557-1.09-4.536-3.172-4.536-3.172
		s-2.396-1.676-2.918-2.041c-0.118-0.063-0.235-0.131-0.347-0.211l-4.85-3.424l0.01,0.008l-4.709-3.295
		c-0.107-0.076-0.207-0.155-0.302-0.242c-10.237-7.221-17.402-12.267-21.384-15.06c-2.194,3.173-6.853,9.906-6.859,9.916
		c-0.077,0.153-0.17,0.32-0.287,0.491c-0.003,0.003-0.005,0.007-0.007,0.011c-0.954,1.375-2.522,2.196-4.197,2.196
		c-1.042,0-2.047-0.313-2.905-0.908c-1.14-0.788-1.89-2.012-2.103-3.401C25.403,61.566,12.535,23.5,12.535,23.5
		c-0.027-0.079-0.05-0.159-0.069-0.239c-0.165-0.514-0.248-1.044-0.248-1.582c0-1.023,0.306-2.007,0.884-2.843
		c0.943-1.36,2.506-2.172,4.182-2.172c0.066-0.006,0.131-0.011,0.199-0.013c0,0,39.688-1.137,40.363-1.156
		c0.373-0.083,0.751-0.125,1.129-0.125c1.024,0,2.007,0.306,2.843,0.884c1.375,0.955,2.197,2.524,2.197,4.199
		c0,1.038-0.313,2.039-0.902,2.896c-0.006,0.006-0.01,0.013-0.014,0.019c-0.115,0.165-0.234,0.304-0.344,0.419
		c-0.13,0.188-4.642,6.708-6.799,9.826c5.854,4.114,16.645,11.726,21.572,15.205c4.982,3.349,21.56,14.593,25.691,18.723
		c2.293,2.297,3.526,6.357,3.666,12.08c0.063,0.245,0.1,0.503,0.1,0.766l0.002,20.432c0,0.795-0.314,1.559-0.877,2.119
		c-0.563,0.564-1.325,0.881-2.123,0.881H83.991"/>
	<g>
		
			<linearGradient id="SVGID_9_" gradientUnits="userSpaceOnUse" x1="297.2031" y1="-340.7183" x2="297.2031" y2="-258.2725" gradientTransform="matrix(1 0 0 -1 -237.5996 -239.9004)">
			<stop  offset="0" style="stop-color:#FF0000"/>
			<stop  offset="0.1758" style="stop-color:#F60303"/>
			<stop  offset="0.4969" style="stop-color:#EC0404"/>
			<stop  offset="0.782" style="stop-color:#E30101"/>
			<stop  offset="1" style="stop-color:#D60202"/>
		</linearGradient>
		<path fill="url(#SVGID_9_)" d="M60.643,21.649c-0.078,0.112-0.19,0.181-0.285,0.274l0.016,0.039L32.628,62.059l-0.079,0.002
			c-0.059,0.168-0.104,0.338-0.21,0.492c-0.661,0.953-1.971,1.192-2.927,0.531c-0.551-0.382-0.831-0.98-0.87-1.602L15.378,22.54
			l0.01-0.013c-0.26-0.636-0.239-1.374,0.181-1.981c0.458-0.662,1.229-0.953,1.977-0.865l0.024-0.03l40.706-1.166
			c0.602-0.195,1.273-0.15,1.833,0.237C61.063,19.383,61.303,20.693,60.643,21.649L60.643,21.649z M83.991,100.818V71.428
			l19.995,8.959l0.002,20.432H83.991L83.991,100.818z M103.839,82.762c0,0-13.312,1.412-13.702,1.254
			c-6.472-4.523-24.775-17.326-24.775-17.326l9.594-15.983c0,0,21.598,14.411,26.145,18.958
			C104.549,73.115,103.839,82.762,103.839,82.762L103.839,82.762z M74.924,73.408c0,0-28.874-20.392-34.159-24.058
			c-8.152-5.655-2.849-12.575-2.849-12.575s13.419-2.622,13.812-2.465c6.47,4.526,32.79,23.115,32.79,23.115L74.924,73.408
			L74.924,73.408z"/>
	</g>
	
		<linearGradient id="SVGID_10_" gradientUnits="userSpaceOnUse" x1="260.415" y1="-290.3545" x2="260.415" y2="-259.5625" gradientTransform="matrix(1 0 0 -1 -237.5996 -239.9004)">
		<stop  offset="0" style="stop-color:#FFFFFF;stop-opacity:0"/>
		<stop  offset="1" style="stop-color:#FFFFFF;stop-opacity:0.8"/>
	</linearGradient>
	<path fill="url(#SVGID_10_)" d="M15.421,19.662c0,0,12.196,0.506,15.421,0c-11.552,15.423-5.657,30.792-5.657,30.792L14.787,20.773
		L15.421,19.662L15.421,19.662z"/>
</g>
</svg>
