<?xml version="1.0" encoding="utf-8"?>
<!-- Generator: Adobe Illustrator 17.0.0, SVG Export Plug-In . SVG Version: 6.00 Build 0)  -->
<!DOCTYPE svg PUBLIC "-//W3C//DTD SVG 1.1//EN" "http://www.w3.org/Graphics/SVG/1.1/DTD/svg11.dtd">
<svg version="1.1" xmlns="http://www.w3.org/2000/svg" xmlns:xlink="http://www.w3.org/1999/xlink" x="0px" y="0px" width="114px"
	 height="114px" viewBox="0 0 114 114" enable-background="new 0 0 114 114" xml:space="preserve">
<g id="normal">
	<path fill-rule="evenodd" clip-rule="evenodd" fill="#A6A6A6" d="M102.904,66.068l-8.74,2.018l-1.252-4.017l9.364-2.283
		c-0.847-4.411-2.254-8.602-4.12-12.5l-8.892,5.177l-2.382-3.417l9.251-5.564c-2.31-3.926-5.117-7.482-8.335-10.561l-6.598,7.4
		l-3.279-2.482l0.739-0.859l0.021,0.038l5.949-6.919c-3.114-2.482-6.535-4.546-10.183-6.136l-0.009,0.022
		c-0.015-0.007-0.03-0.015-0.045-0.022l-3.624,9.069l-3.807-1.289l3.493-9.298c-3.608-1.17-7.401-1.883-11.322-2.074l0,0.004
		c-0.018-0.001-0.036-0.004-0.054-0.004l-0.107,10.072h-3.999l-0.107-10.072c-0.018,0.001-0.036,0.004-0.054,0.004l0-0.004
		c-3.921,0.19-7.714,0.903-11.322,2.074l3.493,9.298l-3.807,1.289l-3.624-9.069c-0.015,0.007-0.03,0.015-0.045,0.022l-0.009-0.022
		c-3.649,1.589-7.069,3.653-10.183,6.136l5.949,6.919l0.021-0.038l0.739,0.859l-3.279,2.482l-6.598-7.4
		c-3.218,3.08-6.025,6.636-8.335,10.561l9.251,5.564l-2.382,3.417l-8.892-5.177c-1.866,3.898-3.273,8.088-4.12,12.5l9.364,2.283
		l-1.252,4.017l-8.74-2.018c-0.202,1.876-0.317,3.78-0.317,5.714c0,4.006,0.457,7.897,1.298,11.627h37.909
		c0.078-2.133,0.88-4.052,2.132-5.446c0.004-0.005,0.003-0.007,0.008-0.012L40.82,40.335l3.981-1.427l14.148,37.074
		c3.217,0.559,5.717,3.434,5.729,7.426h37.245c0.841-3.73,1.298-7.621,1.298-11.627C103.221,69.848,103.106,67.944,102.904,66.068z"
		/>
</g>
<g id="active">
	<path fill-rule="evenodd" clip-rule="evenodd" fill="#A6A6A6" d="M102.904,66.068l-8.74,2.018l-1.252-4.017l9.364-2.283
		c-0.847-4.411-2.254-8.602-4.12-12.5l-8.892,5.177l-2.382-3.417l9.251-5.564c-2.31-3.926-5.117-7.482-8.335-10.561l-6.598,7.4
		l-3.279-2.482l0.739-0.859l0.021,0.038l5.949-6.919c-3.114-2.482-6.535-4.546-10.183-6.136l-0.009,0.022
		c-0.015-0.007-0.03-0.015-0.045-0.022l-3.624,9.069l-3.807-1.289l3.493-9.298c-3.608-1.17-7.401-1.883-11.322-2.074l0,0.004
		c-0.018-0.001-0.036-0.004-0.054-0.004l-0.107,10.072h-3.999l-0.107-10.072c-0.018,0.001-0.036,0.004-0.054,0.004l0-0.004
		c-3.921,0.19-7.714,0.903-11.322,2.074l3.493,9.298l-3.807,1.289l-3.624-9.069c-0.015,0.007-0.03,0.015-0.045,0.022l-0.009-0.022
		c-3.649,1.589-7.069,3.653-10.183,6.136l5.949,6.919l0.021-0.038l0.739,0.859l-3.279,2.482l-6.598-7.4
		c-3.218,3.08-6.025,6.636-8.335,10.561l9.251,5.564l-2.382,3.417l-8.892-5.177c-1.866,3.898-3.273,8.088-4.12,12.5l9.364,2.283
		l-1.252,4.017l-8.74-2.018c-0.202,1.876-0.317,3.78-0.317,5.714c0,4.006,0.457,7.897,1.298,11.627h37.909
		c0.078-2.133,0.88-4.052,2.132-5.446c0.004-0.005,0.003-0.007,0.008-0.012L40.82,40.335l3.981-1.427l14.148,37.074
		c3.217,0.559,5.717,3.434,5.729,7.426h37.245c0.841-3.73,1.298-7.621,1.298-11.627C103.221,69.848,103.106,67.944,102.904,66.068z"
		/>
</g>
<g id="disabled" opacity="0.6">
	<path fill-rule="evenodd" clip-rule="evenodd" fill="#A6A6A6" d="M102.904,66.068l-8.74,2.018l-1.252-4.017l9.364-2.283
		c-0.847-4.411-2.254-8.602-4.12-12.5l-8.892,5.177l-2.382-3.417l9.251-5.564c-2.31-3.926-5.117-7.482-8.335-10.561l-6.598,7.4
		l-3.279-2.482l0.739-0.859l0.021,0.038l5.949-6.919c-3.114-2.482-6.535-4.546-10.183-6.136l-0.009,0.022
		c-0.015-0.007-0.03-0.015-0.045-0.022l-3.624,9.069l-3.807-1.289l3.493-9.298c-3.608-1.17-7.401-1.883-11.322-2.074l0,0.004
		c-0.018-0.001-0.036-0.004-0.054-0.004l-0.107,10.072h-3.999l-0.107-10.072c-0.018,0.001-0.036,0.004-0.054,0.004l0-0.004
		c-3.921,0.19-7.714,0.903-11.322,2.074l3.493,9.298l-3.807,1.289l-3.624-9.069c-0.015,0.007-0.03,0.015-0.045,0.022l-0.009-0.022
		c-3.649,1.589-7.069,3.653-10.183,6.136l5.949,6.919l0.021-0.038l0.739,0.859l-3.279,2.482l-6.598-7.4
		c-3.218,3.08-6.025,6.636-8.335,10.561l9.251,5.564l-2.382,3.417l-8.892-5.177c-1.866,3.898-3.273,8.088-4.12,12.5l9.364,2.283
		l-1.252,4.017l-8.74-2.018c-0.202,1.876-0.317,3.78-0.317,5.714c0,4.006,0.457,7.897,1.298,11.627h37.909
		c0.078-2.133,0.88-4.052,2.132-5.446c0.004-0.005,0.003-0.007,0.008-0.012L40.82,40.335l3.981-1.427l14.148,37.074
		c3.217,0.559,5.717,3.434,5.729,7.426h37.245c0.841-3.73,1.298-7.621,1.298-11.627C103.221,69.848,103.106,67.944,102.904,66.068z"
		/>
</g>
</svg>
