<?xml version="1.0" encoding="utf-8"?>
<!-- Generator: Adobe Illustrator 17.1.0, SVG Export Plug-In . SVG Version: 6.00 Build 0)  -->
<!DOCTYPE svg PUBLIC "-//W3C//DTD SVG 1.1//EN" "http://www.w3.org/Graphics/SVG/1.1/DTD/svg11.dtd">
<svg version="1.1" id="Layer_1" xmlns="http://www.w3.org/2000/svg" xmlns:xlink="http://www.w3.org/1999/xlink" x="0px" y="0px"
	 viewBox="0 0 114 114" enable-background="new 0 0 114 114" xml:space="preserve">
<g id="phase17">
	<radialGradient id="SVGID_1_" cx="56.8333" cy="44.5" r="18.1027" gradientUnits="userSpaceOnUse">
		<stop  offset="0" style="stop-color:#103C7B"/>
		<stop  offset="1" style="stop-color:#082C63"/>
	</radialGradient>
	<polygon fill-rule="evenodd" clip-rule="evenodd" fill="url(#SVGID_1_)" points="37.426,37.044 76.574,37.044 76.574,76.956 
		37.426,76.956 37.426,37.044 	"/>
</g>
<g id="phase16">
	<radialGradient id="SVGID_2_" cx="56.8333" cy="44.5" r="18.1027" gradientUnits="userSpaceOnUse">
		<stop  offset="0" style="stop-color:#EF4531"/>
		<stop  offset="1" style="stop-color:#DE2008"/>
	</radialGradient>
	<polygon fill-rule="evenodd" clip-rule="evenodd" fill="url(#SVGID_2_)" points="37.426,37.044 76.574,37.044 76.574,76.956 
		37.426,76.956 37.426,37.044 	"/>
</g>
<g id="phase15">
	<radialGradient id="SVGID_3_" cx="56.8333" cy="44.5" r="18.1027" gradientUnits="userSpaceOnUse">
		<stop  offset="0" style="stop-color:#086D21"/>
		<stop  offset="1" style="stop-color:#005518"/>
	</radialGradient>
	<polygon fill-rule="evenodd" clip-rule="evenodd" fill="url(#SVGID_3_)" points="37.426,37.044 76.574,37.044 76.574,76.956 
		37.426,76.956 37.426,37.044 	"/>
</g>
<g id="phase14">
	<radialGradient id="SVGID_4_" cx="56.8333" cy="44.5" r="18.1027" gradientUnits="userSpaceOnUse">
		<stop  offset="0" style="stop-color:#39B2F7"/>
		<stop  offset="1" style="stop-color:#109EEF"/>
	</radialGradient>
	<polygon fill-rule="evenodd" clip-rule="evenodd" fill="url(#SVGID_4_)" points="37.426,37.044 76.574,37.044 76.574,76.956 
		37.426,76.956 37.426,37.044 	"/>
</g>
<g id="phase13">
	<radialGradient id="SVGID_5_" cx="56.8333" cy="44.5" r="18.1027" gradientUnits="userSpaceOnUse">
		<stop  offset="0" style="stop-color:#6B6D08"/>
		<stop  offset="1" style="stop-color:#5A5D00"/>
	</radialGradient>
	<polygon fill-rule="evenodd" clip-rule="evenodd" fill="url(#SVGID_5_)" points="37.426,37.044 76.574,37.044 76.574,76.956 
		37.426,76.956 37.426,37.044 	"/>
</g>
<g id="phase12">
	<radialGradient id="SVGID_6_" cx="56.8333" cy="44.5" r="18.1027" gradientUnits="userSpaceOnUse">
		<stop  offset="0" style="stop-color:#E78642"/>
		<stop  offset="1" style="stop-color:#E76910"/>
	</radialGradient>
	<polygon fill-rule="evenodd" clip-rule="evenodd" fill="url(#SVGID_6_)" points="37.426,37.044 76.574,37.044 76.574,76.956 
		37.426,76.956 37.426,37.044 	"/>
</g>
<g id="phase11">
	<radialGradient id="SVGID_7_" cx="56.8333" cy="44.5" r="18.1027" gradientUnits="userSpaceOnUse">
		<stop  offset="0" style="stop-color:#21D339"/>
		<stop  offset="1" style="stop-color:#08B218"/>
	</radialGradient>
	<polygon fill-rule="evenodd" clip-rule="evenodd" fill="url(#SVGID_7_)" points="37.426,37.044 76.574,37.044 76.574,76.956 
		37.426,76.956 37.426,37.044 	"/>
</g>
<g id="phase10">
	<radialGradient id="SVGID_8_" cx="56.8333" cy="44.5" r="18.1027" gradientUnits="userSpaceOnUse">
		<stop  offset="0" style="stop-color:#212CEF"/>
		<stop  offset="1" style="stop-color:#212CEF"/>
	</radialGradient>
	<polygon fill-rule="evenodd" clip-rule="evenodd" fill="url(#SVGID_8_)" points="37.426,37.044 76.574,37.044 76.574,76.956 
		37.426,76.956 37.426,37.044 	"/>
</g>
<g id="phase9">
	<radialGradient id="SVGID_9_" cx="56.8333" cy="44.5" r="18.1027" gradientUnits="userSpaceOnUse">
		<stop  offset="0" style="stop-color:#00595A"/>
		<stop  offset="1" style="stop-color:#004542"/>
	</radialGradient>
	<polygon fill-rule="evenodd" clip-rule="evenodd" fill="url(#SVGID_9_)" points="37.426,37.044 76.574,37.044 76.574,76.956 
		37.426,76.956 37.426,37.044 	"/>
</g>
<g id="phase8">
	<radialGradient id="SVGID_10_" cx="56.8333" cy="44.5" r="18.1027" gradientUnits="userSpaceOnUse">
		<stop  offset="0" style="stop-color:#F7CB42"/>
		<stop  offset="1" style="stop-color:#F7CB42"/>
	</radialGradient>
	<polygon fill-rule="evenodd" clip-rule="evenodd" fill="url(#SVGID_10_)" points="37.426,37.044 76.574,37.044 76.574,76.956 
		37.426,76.956 37.426,37.044 	"/>
</g>
<g id="phase7">
	<radialGradient id="SVGID_11_" cx="56.8333" cy="44.5" r="18.1027" gradientUnits="userSpaceOnUse">
		<stop  offset="0" style="stop-color:#5AEB94"/>
		<stop  offset="1" style="stop-color:#5AEB94"/>
	</radialGradient>
	<polygon fill-rule="evenodd" clip-rule="evenodd" fill="url(#SVGID_11_)" points="37.426,37.044 76.574,37.044 76.574,76.956 
		37.426,76.956 37.426,37.044 	"/>
</g>
<g id="phase6">
	<radialGradient id="SVGID_12_" cx="56.8333" cy="44.5" r="18.1027" gradientUnits="userSpaceOnUse">
		<stop  offset="0" style="stop-color:#9323D5"/>
		<stop  offset="1" style="stop-color:#7B0CBD"/>
	</radialGradient>
	<polygon fill-rule="evenodd" clip-rule="evenodd" fill="url(#SVGID_12_)" points="37.426,37.044 76.574,37.044 76.574,76.956 
		37.426,76.956 37.426,37.044 	"/>
</g>
<g id="phase5">
	<radialGradient id="SVGID_13_" cx="56.8333" cy="44.5" r="18.1027" gradientUnits="userSpaceOnUse">
		<stop  offset="0" style="stop-color:#7B1010"/>
		<stop  offset="1" style="stop-color:#630400"/>
	</radialGradient>
	<polygon fill-rule="evenodd" clip-rule="evenodd" fill="url(#SVGID_13_)" points="37.426,37.044 76.574,37.044 76.574,76.956 
		37.426,76.956 37.426,37.044 	"/>
</g>
<g id="phase4">
	<radialGradient id="SVGID_14_" cx="56.8333" cy="44.5" r="18.1027" gradientUnits="userSpaceOnUse">
		<stop  offset="0" style="stop-color:#FFFF6B"/>
		<stop  offset="1" style="stop-color:#F7FF08"/>
	</radialGradient>
	<polygon fill-rule="evenodd" clip-rule="evenodd" fill="url(#SVGID_14_)" points="37.426,37.044 76.574,37.044 76.574,76.956 
		37.426,76.956 37.426,37.044 	"/>
</g>
<g id="phase3">
	<radialGradient id="SVGID_15_" cx="56.8333" cy="44.5" r="18.1027" gradientUnits="userSpaceOnUse">
		<stop  offset="0" style="stop-color:#4AF3D6"/>
		<stop  offset="1" style="stop-color:#21EBC6"/>
	</radialGradient>
	<polygon fill-rule="evenodd" clip-rule="evenodd" fill="url(#SVGID_15_)" points="37.426,37.044 76.574,37.044 76.574,76.956 
		37.426,76.956 37.426,37.044 	"/>
</g>
<g id="phase2">
	<radialGradient id="SVGID_16_" cx="56.8333" cy="44.5" r="18.1027" gradientUnits="userSpaceOnUse">
		<stop  offset="0" style="stop-color:#C638E7"/>
		<stop  offset="1" style="stop-color:#B510DE"/>
	</radialGradient>
	<polygon fill-rule="evenodd" clip-rule="evenodd" fill="url(#SVGID_16_)" points="37.426,37.044 76.574,37.044 76.574,76.956 
		37.426,76.956 37.426,37.044 	"/>
</g>
<g id="phase1">
	<polygon fill-rule="evenodd" clip-rule="evenodd" fill="#10D510" points="82.857,80.323 56.999,69.412 31.143,80.323 
		56.999,33.677 82.857,80.323 	"/>
</g>
<g id="phase0">
	<polygon fill-rule="evenodd" clip-rule="evenodd" fill="#EE22C4" points="82.857,80.323 56.999,69.412 31.143,80.323 
		56.999,33.677 82.857,80.323 	"/>
</g>
</svg>
