<?xml version="1.0" encoding="utf-8"?>
<!-- Generator: Adobe Illustrator 17.0.0, SVG Export Plug-In . SVG Version: 6.00 Build 0)  -->
<!DOCTYPE svg PUBLIC "-//W3C//DTD SVG 1.1//EN" "http://www.w3.org/Graphics/SVG/1.1/DTD/svg11.dtd">
<svg version="1.1" id="Layer_1" xmlns="http://www.w3.org/2000/svg" xmlns:xlink="http://www.w3.org/1999/xlink" x="0px" y="0px"
	 width="114px" height="114px" viewBox="0 0 114 114" enable-background="new 0 0 114 114" xml:space="preserve">
<g id="phase17">
	<path fill-rule="evenodd" clip-rule="evenodd" fill="#A6A6A6" d="M49.928,83.369c0-2.104,0.818-4.01,2.143-5.418L40.82,40.335
		l3.981-1.427L58.85,75.645c2.162,0.357,4.005,1.645,5.165,3.432v-30.47l26.921,0.035l5.252-3.158
		c-2.31-3.926-5.117-7.482-8.335-10.561l-6.598,7.4l-3.279-2.482l6.655-7.741c-3.114-2.482-6.535-4.546-10.183-6.136l-3.631,9.085
		l-3.854-1.305l3.493-9.298c-3.608-1.17-7.401-1.883-11.322-2.074l-0.107,10.072h-4.053l-0.107-10.072
		c-3.921,0.19-7.714,0.903-11.322,2.074l3.493,9.298l-3.854,1.305l-3.631-9.085c-3.649,1.589-7.069,3.653-10.183,6.136l6.655,7.741
		l-3.279,2.482l-6.598-7.4c-3.218,3.08-6.025,6.636-8.335,10.561l9.251,5.564l-2.382,3.417l-8.892-5.177
		c-1.866,3.898-3.273,8.088-4.12,12.5l9.364,2.283l-1.252,4.017l-8.74-2.018c-0.202,1.876-0.317,3.78-0.317,5.714
		c0,4.006,0.457,7.897,1.298,11.627H49.93C49.93,83.395,49.928,83.382,49.928,83.369z"/>
	<radialGradient id="SVGID_1_" cx="86.0642" cy="58.7543" r="18.1027" gradientUnits="userSpaceOnUse">
		<stop  offset="0" style="stop-color:#103C7B"/>
		<stop  offset="1" style="stop-color:#082C63"/>
	</radialGradient>
	<polygon fill-rule="evenodd" clip-rule="evenodd" fill="url(#SVGID_1_)" points="66.657,51.299 105.805,51.299 105.805,91.21 
		66.657,91.21 66.657,51.299 	"/>
</g>
<g id="phase16">
	<path fill-rule="evenodd" clip-rule="evenodd" fill="#A6A6A6" d="M49.928,83.369c0-2.104,0.818-4.01,2.143-5.418L40.82,40.335
		l3.981-1.427L58.85,75.645c2.162,0.357,4.005,1.645,5.165,3.432v-30.47l26.921,0.035l5.252-3.158
		c-2.31-3.926-5.117-7.482-8.335-10.561l-6.598,7.4l-3.279-2.482l6.655-7.741c-3.114-2.482-6.535-4.546-10.183-6.136l-3.631,9.085
		l-3.854-1.305l3.493-9.298c-3.608-1.17-7.401-1.883-11.322-2.074l-0.107,10.072h-4.053l-0.107-10.072
		c-3.921,0.19-7.714,0.903-11.322,2.074l3.493,9.298l-3.854,1.305l-3.631-9.085c-3.649,1.589-7.069,3.653-10.183,6.136l6.655,7.741
		l-3.279,2.482l-6.598-7.4c-3.218,3.08-6.025,6.636-8.335,10.561l9.251,5.564l-2.382,3.417l-8.892-5.177
		c-1.866,3.898-3.273,8.088-4.12,12.5l9.364,2.283l-1.252,4.017l-8.74-2.018c-0.202,1.876-0.317,3.78-0.317,5.714
		c0,4.006,0.457,7.897,1.298,11.627H49.93C49.93,83.395,49.928,83.382,49.928,83.369z"/>
	<radialGradient id="SVGID_2_" cx="86.0642" cy="58.7543" r="18.1027" gradientUnits="userSpaceOnUse">
		<stop  offset="0" style="stop-color:#EF4531"/>
		<stop  offset="1" style="stop-color:#DE2008"/>
	</radialGradient>
	<polygon fill-rule="evenodd" clip-rule="evenodd" fill="url(#SVGID_2_)" points="66.657,51.299 105.805,51.299 105.805,91.21 
		66.657,91.21 66.657,51.299 	"/>
</g>
<g id="phase15">
	<path fill-rule="evenodd" clip-rule="evenodd" fill="#A6A6A6" d="M49.928,83.369c0-2.104,0.818-4.01,2.143-5.418L40.82,40.335
		l3.981-1.427L58.85,75.645c2.162,0.357,4.005,1.645,5.165,3.432v-30.47l26.921,0.035l5.252-3.158
		c-2.31-3.926-5.117-7.482-8.335-10.561l-6.598,7.4l-3.279-2.482l6.655-7.741c-3.114-2.482-6.535-4.546-10.183-6.136l-3.631,9.085
		l-3.854-1.305l3.493-9.298c-3.608-1.17-7.401-1.883-11.322-2.074l-0.107,10.072h-4.053l-0.107-10.072
		c-3.921,0.19-7.714,0.903-11.322,2.074l3.493,9.298l-3.854,1.305l-3.631-9.085c-3.649,1.589-7.069,3.653-10.183,6.136l6.655,7.741
		l-3.279,2.482l-6.598-7.4c-3.218,3.08-6.025,6.636-8.335,10.561l9.251,5.564l-2.382,3.417l-8.892-5.177
		c-1.866,3.898-3.273,8.088-4.12,12.5l9.364,2.283l-1.252,4.017l-8.74-2.018c-0.202,1.876-0.317,3.78-0.317,5.714
		c0,4.006,0.457,7.897,1.298,11.627H49.93C49.93,83.395,49.928,83.382,49.928,83.369z"/>
	<radialGradient id="SVGID_3_" cx="86.0642" cy="58.7543" r="18.1027" gradientUnits="userSpaceOnUse">
		<stop  offset="0" style="stop-color:#086D21"/>
		<stop  offset="1" style="stop-color:#005518"/>
	</radialGradient>
	<polygon fill-rule="evenodd" clip-rule="evenodd" fill="url(#SVGID_3_)" points="66.657,51.299 105.805,51.299 105.805,91.21 
		66.657,91.21 66.657,51.299 	"/>
</g>
<g id="phase14">
	<path fill-rule="evenodd" clip-rule="evenodd" fill="#A6A6A6" d="M49.928,83.369c0-2.104,0.818-4.01,2.143-5.418L40.82,40.335
		l3.981-1.427L58.85,75.645c2.162,0.357,4.005,1.645,5.165,3.432v-30.47l26.921,0.035l5.252-3.158
		c-2.31-3.926-5.117-7.482-8.335-10.561l-6.598,7.4l-3.279-2.482l6.655-7.741c-3.114-2.482-6.535-4.546-10.183-6.136l-3.631,9.085
		l-3.854-1.305l3.493-9.298c-3.608-1.17-7.401-1.883-11.322-2.074l-0.107,10.072h-4.053l-0.107-10.072
		c-3.921,0.19-7.714,0.903-11.322,2.074l3.493,9.298l-3.854,1.305l-3.631-9.085c-3.649,1.589-7.069,3.653-10.183,6.136l6.655,7.741
		l-3.279,2.482l-6.598-7.4c-3.218,3.08-6.025,6.636-8.335,10.561l9.251,5.564l-2.382,3.417l-8.892-5.177
		c-1.866,3.898-3.273,8.088-4.12,12.5l9.364,2.283l-1.252,4.017l-8.74-2.018c-0.202,1.876-0.317,3.78-0.317,5.714
		c0,4.006,0.457,7.897,1.298,11.627H49.93C49.93,83.395,49.928,83.382,49.928,83.369z"/>
	<radialGradient id="SVGID_4_" cx="86.0642" cy="58.7543" r="18.1027" gradientUnits="userSpaceOnUse">
		<stop  offset="0" style="stop-color:#39B2F7"/>
		<stop  offset="1" style="stop-color:#109EEF"/>
	</radialGradient>
	<polygon fill-rule="evenodd" clip-rule="evenodd" fill="url(#SVGID_4_)" points="66.657,51.299 105.805,51.299 105.805,91.21 
		66.657,91.21 66.657,51.299 	"/>
</g>
<g id="phase13">
	<path fill-rule="evenodd" clip-rule="evenodd" fill="#A6A6A6" d="M49.928,83.369c0-2.104,0.818-4.01,2.143-5.418L40.82,40.335
		l3.981-1.427L58.85,75.645c2.162,0.357,4.005,1.645,5.165,3.432v-30.47l26.921,0.035l5.252-3.158
		c-2.31-3.926-5.117-7.482-8.335-10.561l-6.598,7.4l-3.279-2.482l6.655-7.741c-3.114-2.482-6.535-4.546-10.183-6.136l-3.631,9.085
		l-3.854-1.305l3.493-9.298c-3.608-1.17-7.401-1.883-11.322-2.074l-0.107,10.072h-4.053l-0.107-10.072
		c-3.921,0.19-7.714,0.903-11.322,2.074l3.493,9.298l-3.854,1.305l-3.631-9.085c-3.649,1.589-7.069,3.653-10.183,6.136l6.655,7.741
		l-3.279,2.482l-6.598-7.4c-3.218,3.08-6.025,6.636-8.335,10.561l9.251,5.564l-2.382,3.417l-8.892-5.177
		c-1.866,3.898-3.273,8.088-4.12,12.5l9.364,2.283l-1.252,4.017l-8.74-2.018c-0.202,1.876-0.317,3.78-0.317,5.714
		c0,4.006,0.457,7.897,1.298,11.627H49.93C49.93,83.395,49.928,83.382,49.928,83.369z"/>
	<radialGradient id="SVGID_5_" cx="86.0642" cy="58.7543" r="18.1027" gradientUnits="userSpaceOnUse">
		<stop  offset="0" style="stop-color:#6B6D08"/>
		<stop  offset="1" style="stop-color:#5A5D00"/>
	</radialGradient>
	<polygon fill-rule="evenodd" clip-rule="evenodd" fill="url(#SVGID_5_)" points="66.657,51.299 105.805,51.299 105.805,91.21 
		66.657,91.21 66.657,51.299 	"/>
</g>
<g id="phase12">
	<path fill-rule="evenodd" clip-rule="evenodd" fill="#A6A6A6" d="M49.928,83.369c0-2.104,0.818-4.01,2.143-5.418L40.82,40.335
		l3.981-1.427L58.85,75.645c2.162,0.357,4.005,1.645,5.165,3.432v-30.47l26.921,0.035l5.252-3.158
		c-2.31-3.926-5.117-7.482-8.335-10.561l-6.598,7.4l-3.279-2.482l6.655-7.741c-3.114-2.482-6.535-4.546-10.183-6.136l-3.631,9.085
		l-3.854-1.305l3.493-9.298c-3.608-1.17-7.401-1.883-11.322-2.074l-0.107,10.072h-4.053l-0.107-10.072
		c-3.921,0.19-7.714,0.903-11.322,2.074l3.493,9.298l-3.854,1.305l-3.631-9.085c-3.649,1.589-7.069,3.653-10.183,6.136l6.655,7.741
		l-3.279,2.482l-6.598-7.4c-3.218,3.08-6.025,6.636-8.335,10.561l9.251,5.564l-2.382,3.417l-8.892-5.177
		c-1.866,3.898-3.273,8.088-4.12,12.5l9.364,2.283l-1.252,4.017l-8.74-2.018c-0.202,1.876-0.317,3.78-0.317,5.714
		c0,4.006,0.457,7.897,1.298,11.627H49.93C49.93,83.395,49.928,83.382,49.928,83.369z"/>
	<radialGradient id="SVGID_6_" cx="86.0642" cy="58.7543" r="18.1027" gradientUnits="userSpaceOnUse">
		<stop  offset="0" style="stop-color:#E78642"/>
		<stop  offset="1" style="stop-color:#E76910"/>
	</radialGradient>
	<polygon fill-rule="evenodd" clip-rule="evenodd" fill="url(#SVGID_6_)" points="66.657,51.299 105.805,51.299 105.805,91.21 
		66.657,91.21 66.657,51.299 	"/>
</g>
<g id="phase11">
	<path fill-rule="evenodd" clip-rule="evenodd" fill="#A6A6A6" d="M49.928,83.369c0-2.104,0.818-4.01,2.143-5.418L40.82,40.335
		l3.981-1.427L58.85,75.645c2.162,0.357,4.005,1.645,5.165,3.432v-30.47l26.921,0.035l5.252-3.158
		c-2.31-3.926-5.117-7.482-8.335-10.561l-6.598,7.4l-3.279-2.482l6.655-7.741c-3.114-2.482-6.535-4.546-10.183-6.136l-3.631,9.085
		l-3.854-1.305l3.493-9.298c-3.608-1.17-7.401-1.883-11.322-2.074l-0.107,10.072h-4.053l-0.107-10.072
		c-3.921,0.19-7.714,0.903-11.322,2.074l3.493,9.298l-3.854,1.305l-3.631-9.085c-3.649,1.589-7.069,3.653-10.183,6.136l6.655,7.741
		l-3.279,2.482l-6.598-7.4c-3.218,3.08-6.025,6.636-8.335,10.561l9.251,5.564l-2.382,3.417l-8.892-5.177
		c-1.866,3.898-3.273,8.088-4.12,12.5l9.364,2.283l-1.252,4.017l-8.74-2.018c-0.202,1.876-0.317,3.78-0.317,5.714
		c0,4.006,0.457,7.897,1.298,11.627H49.93C49.93,83.395,49.928,83.382,49.928,83.369z"/>
	<radialGradient id="SVGID_7_" cx="86.0642" cy="58.7543" r="18.1027" gradientUnits="userSpaceOnUse">
		<stop  offset="0" style="stop-color:#21D339"/>
		<stop  offset="1" style="stop-color:#08B218"/>
	</radialGradient>
	<polygon fill-rule="evenodd" clip-rule="evenodd" fill="url(#SVGID_7_)" points="66.657,51.299 105.805,51.299 105.805,91.21 
		66.657,91.21 66.657,51.299 	"/>
</g>
<g id="phase10">
	<path fill-rule="evenodd" clip-rule="evenodd" fill="#A6A6A6" d="M49.928,83.369c0-2.104,0.818-4.01,2.143-5.418L40.82,40.335
		l3.981-1.427L58.85,75.645c2.162,0.357,4.005,1.645,5.165,3.432v-30.47l26.921,0.035l5.252-3.158
		c-2.31-3.926-5.117-7.482-8.335-10.561l-6.598,7.4l-3.279-2.482l6.655-7.741c-3.114-2.482-6.535-4.546-10.183-6.136l-3.631,9.085
		l-3.854-1.305l3.493-9.298c-3.608-1.17-7.401-1.883-11.322-2.074l-0.107,10.072h-4.053l-0.107-10.072
		c-3.921,0.19-7.714,0.903-11.322,2.074l3.493,9.298l-3.854,1.305l-3.631-9.085c-3.649,1.589-7.069,3.653-10.183,6.136l6.655,7.741
		l-3.279,2.482l-6.598-7.4c-3.218,3.08-6.025,6.636-8.335,10.561l9.251,5.564l-2.382,3.417l-8.892-5.177
		c-1.866,3.898-3.273,8.088-4.12,12.5l9.364,2.283l-1.252,4.017l-8.74-2.018c-0.202,1.876-0.317,3.78-0.317,5.714
		c0,4.006,0.457,7.897,1.298,11.627H49.93C49.93,83.395,49.928,83.382,49.928,83.369z"/>
	<radialGradient id="SVGID_8_" cx="86.0642" cy="58.7543" r="18.1027" gradientUnits="userSpaceOnUse">
		<stop  offset="0" style="stop-color:#212CEF"/>
		<stop  offset="1" style="stop-color:#212CEF"/>
	</radialGradient>
	<polygon fill-rule="evenodd" clip-rule="evenodd" fill="url(#SVGID_8_)" points="66.657,51.299 105.805,51.299 105.805,91.21 
		66.657,91.21 66.657,51.299 	"/>
</g>
<g id="phase9">
	<path fill-rule="evenodd" clip-rule="evenodd" fill="#A6A6A6" d="M49.928,83.369c0-2.104,0.818-4.01,2.143-5.418L40.82,40.335
		l3.981-1.427L58.85,75.645c2.162,0.357,4.005,1.645,5.165,3.432v-30.47l26.921,0.035l5.252-3.158
		c-2.31-3.926-5.117-7.482-8.335-10.561l-6.598,7.4l-3.279-2.482l6.655-7.741c-3.114-2.482-6.535-4.546-10.183-6.136l-3.631,9.085
		l-3.854-1.305l3.493-9.298c-3.608-1.17-7.401-1.883-11.322-2.074l-0.107,10.072h-4.053l-0.107-10.072
		c-3.921,0.19-7.714,0.903-11.322,2.074l3.493,9.298l-3.854,1.305l-3.631-9.085c-3.649,1.589-7.069,3.653-10.183,6.136l6.655,7.741
		l-3.279,2.482l-6.598-7.4c-3.218,3.08-6.025,6.636-8.335,10.561l9.251,5.564l-2.382,3.417l-8.892-5.177
		c-1.866,3.898-3.273,8.088-4.12,12.5l9.364,2.283l-1.252,4.017l-8.74-2.018c-0.202,1.876-0.317,3.78-0.317,5.714
		c0,4.006,0.457,7.897,1.298,11.627H49.93C49.93,83.395,49.928,83.382,49.928,83.369z"/>
	<radialGradient id="SVGID_9_" cx="86.0642" cy="58.7543" r="18.1027" gradientUnits="userSpaceOnUse">
		<stop  offset="0" style="stop-color:#00595A"/>
		<stop  offset="1" style="stop-color:#004542"/>
	</radialGradient>
	<polygon fill-rule="evenodd" clip-rule="evenodd" fill="url(#SVGID_9_)" points="66.657,51.299 105.805,51.299 105.805,91.21 
		66.657,91.21 66.657,51.299 	"/>
</g>
<g id="phase8">
	<path fill-rule="evenodd" clip-rule="evenodd" fill="#A6A6A6" d="M49.928,83.369c0-2.104,0.818-4.01,2.143-5.418L40.82,40.335
		l3.981-1.427L58.85,75.645c2.162,0.357,4.005,1.645,5.165,3.432v-30.47l26.921,0.035l5.252-3.158
		c-2.31-3.926-5.117-7.482-8.335-10.561l-6.598,7.4l-3.279-2.482l6.655-7.741c-3.114-2.482-6.535-4.546-10.183-6.136l-3.631,9.085
		l-3.854-1.305l3.493-9.298c-3.608-1.17-7.401-1.883-11.322-2.074l-0.107,10.072h-4.053l-0.107-10.072
		c-3.921,0.19-7.714,0.903-11.322,2.074l3.493,9.298l-3.854,1.305l-3.631-9.085c-3.649,1.589-7.069,3.653-10.183,6.136l6.655,7.741
		l-3.279,2.482l-6.598-7.4c-3.218,3.08-6.025,6.636-8.335,10.561l9.251,5.564l-2.382,3.417l-8.892-5.177
		c-1.866,3.898-3.273,8.088-4.12,12.5l9.364,2.283l-1.252,4.017l-8.74-2.018c-0.202,1.876-0.317,3.78-0.317,5.714
		c0,4.006,0.457,7.897,1.298,11.627H49.93C49.93,83.395,49.928,83.382,49.928,83.369z"/>
	<radialGradient id="SVGID_10_" cx="86.0642" cy="58.7543" r="18.1027" gradientUnits="userSpaceOnUse">
		<stop  offset="0" style="stop-color:#F7CB42"/>
		<stop  offset="1" style="stop-color:#F7CB42"/>
	</radialGradient>
	<polygon fill-rule="evenodd" clip-rule="evenodd" fill="url(#SVGID_10_)" points="66.657,51.299 105.805,51.299 105.805,91.21 
		66.657,91.21 66.657,51.299 	"/>
</g>
<g id="phase7">
	<path fill-rule="evenodd" clip-rule="evenodd" fill="#A6A6A6" d="M49.928,83.369c0-2.104,0.818-4.01,2.143-5.418L40.82,40.335
		l3.981-1.427L58.85,75.645c2.162,0.357,4.005,1.645,5.165,3.432v-30.47l26.921,0.035l5.252-3.158
		c-2.31-3.926-5.117-7.482-8.335-10.561l-6.598,7.4l-3.279-2.482l6.655-7.741c-3.114-2.482-6.535-4.546-10.183-6.136l-3.631,9.085
		l-3.854-1.305l3.493-9.298c-3.608-1.17-7.401-1.883-11.322-2.074l-0.107,10.072h-4.053l-0.107-10.072
		c-3.921,0.19-7.714,0.903-11.322,2.074l3.493,9.298l-3.854,1.305l-3.631-9.085c-3.649,1.589-7.069,3.653-10.183,6.136l6.655,7.741
		l-3.279,2.482l-6.598-7.4c-3.218,3.08-6.025,6.636-8.335,10.561l9.251,5.564l-2.382,3.417l-8.892-5.177
		c-1.866,3.898-3.273,8.088-4.12,12.5l9.364,2.283l-1.252,4.017l-8.74-2.018c-0.202,1.876-0.317,3.78-0.317,5.714
		c0,4.006,0.457,7.897,1.298,11.627H49.93C49.93,83.395,49.928,83.382,49.928,83.369z"/>
	<radialGradient id="SVGID_11_" cx="86.0642" cy="58.7543" r="18.1027" gradientUnits="userSpaceOnUse">
		<stop  offset="0" style="stop-color:#5AEB94"/>
		<stop  offset="1" style="stop-color:#5AEB94"/>
	</radialGradient>
	<polygon fill-rule="evenodd" clip-rule="evenodd" fill="url(#SVGID_11_)" points="66.657,51.299 105.805,51.299 105.805,91.21 
		66.657,91.21 66.657,51.299 	"/>
</g>
<g id="phase6">
	<path fill-rule="evenodd" clip-rule="evenodd" fill="#A6A6A6" d="M49.928,83.369c0-2.104,0.818-4.01,2.143-5.418L40.82,40.335
		l3.981-1.427L58.85,75.645c2.162,0.357,4.005,1.645,5.165,3.432v-30.47l26.921,0.035l5.252-3.158
		c-2.31-3.926-5.117-7.482-8.335-10.561l-6.598,7.4l-3.279-2.482l6.655-7.741c-3.114-2.482-6.535-4.546-10.183-6.136l-3.631,9.085
		l-3.854-1.305l3.493-9.298c-3.608-1.17-7.401-1.883-11.322-2.074l-0.107,10.072h-4.053l-0.107-10.072
		c-3.921,0.19-7.714,0.903-11.322,2.074l3.493,9.298l-3.854,1.305l-3.631-9.085c-3.649,1.589-7.069,3.653-10.183,6.136l6.655,7.741
		l-3.279,2.482l-6.598-7.4c-3.218,3.08-6.025,6.636-8.335,10.561l9.251,5.564l-2.382,3.417l-8.892-5.177
		c-1.866,3.898-3.273,8.088-4.12,12.5l9.364,2.283l-1.252,4.017l-8.74-2.018c-0.202,1.876-0.317,3.78-0.317,5.714
		c0,4.006,0.457,7.897,1.298,11.627H49.93C49.93,83.395,49.928,83.382,49.928,83.369z"/>
	<radialGradient id="SVGID_12_" cx="86.0642" cy="58.7543" r="18.1027" gradientUnits="userSpaceOnUse">
		<stop  offset="0" style="stop-color:#9323D5"/>
		<stop  offset="1" style="stop-color:#7B0CBD"/>
	</radialGradient>
	<polygon fill-rule="evenodd" clip-rule="evenodd" fill="url(#SVGID_12_)" points="66.657,51.299 105.805,51.299 105.805,91.21 
		66.657,91.21 66.657,51.299 	"/>
</g>
<g id="phase5">
	<path fill-rule="evenodd" clip-rule="evenodd" fill="#A6A6A6" d="M49.928,83.369c0-2.104,0.818-4.01,2.143-5.418L40.82,40.335
		l3.981-1.427L58.85,75.645c2.162,0.357,4.005,1.645,5.165,3.432v-30.47l26.921,0.035l5.252-3.158
		c-2.31-3.926-5.117-7.482-8.335-10.561l-6.598,7.4l-3.279-2.482l6.655-7.741c-3.114-2.482-6.535-4.546-10.183-6.136l-3.631,9.085
		l-3.854-1.305l3.493-9.298c-3.608-1.17-7.401-1.883-11.322-2.074l-0.107,10.072h-4.053l-0.107-10.072
		c-3.921,0.19-7.714,0.903-11.322,2.074l3.493,9.298l-3.854,1.305l-3.631-9.085c-3.649,1.589-7.069,3.653-10.183,6.136l6.655,7.741
		l-3.279,2.482l-6.598-7.4c-3.218,3.08-6.025,6.636-8.335,10.561l9.251,5.564l-2.382,3.417l-8.892-5.177
		c-1.866,3.898-3.273,8.088-4.12,12.5l9.364,2.283l-1.252,4.017l-8.74-2.018c-0.202,1.876-0.317,3.78-0.317,5.714
		c0,4.006,0.457,7.897,1.298,11.627H49.93C49.93,83.395,49.928,83.382,49.928,83.369z"/>
	<radialGradient id="SVGID_13_" cx="86.0642" cy="58.7543" r="18.1027" gradientUnits="userSpaceOnUse">
		<stop  offset="0" style="stop-color:#7B1010"/>
		<stop  offset="1" style="stop-color:#630400"/>
	</radialGradient>
	<polygon fill-rule="evenodd" clip-rule="evenodd" fill="url(#SVGID_13_)" points="66.657,51.299 105.805,51.299 105.805,91.21 
		66.657,91.21 66.657,51.299 	"/>
</g>
<g id="phase4">
	<path fill-rule="evenodd" clip-rule="evenodd" fill="#A6A6A6" d="M49.928,83.369c0-2.104,0.818-4.01,2.143-5.418L40.82,40.335
		l3.981-1.427L58.85,75.645c2.162,0.357,4.005,1.645,5.165,3.432v-30.47l26.921,0.035l5.252-3.158
		c-2.31-3.926-5.117-7.482-8.335-10.561l-6.598,7.4l-3.279-2.482l6.655-7.741c-3.114-2.482-6.535-4.546-10.183-6.136l-3.631,9.085
		l-3.854-1.305l3.493-9.298c-3.608-1.17-7.401-1.883-11.322-2.074l-0.107,10.072h-4.053l-0.107-10.072
		c-3.921,0.19-7.714,0.903-11.322,2.074l3.493,9.298l-3.854,1.305l-3.631-9.085c-3.649,1.589-7.069,3.653-10.183,6.136l6.655,7.741
		l-3.279,2.482l-6.598-7.4c-3.218,3.08-6.025,6.636-8.335,10.561l9.251,5.564l-2.382,3.417l-8.892-5.177
		c-1.866,3.898-3.273,8.088-4.12,12.5l9.364,2.283l-1.252,4.017l-8.74-2.018c-0.202,1.876-0.317,3.78-0.317,5.714
		c0,4.006,0.457,7.897,1.298,11.627H49.93C49.93,83.395,49.928,83.382,49.928,83.369z"/>
	<radialGradient id="SVGID_14_" cx="86.0642" cy="58.7543" r="18.1027" gradientUnits="userSpaceOnUse">
		<stop  offset="0" style="stop-color:#FFFF6B"/>
		<stop  offset="1" style="stop-color:#F7FF08"/>
	</radialGradient>
	<polygon fill-rule="evenodd" clip-rule="evenodd" fill="url(#SVGID_14_)" points="66.657,51.299 105.805,51.299 105.805,91.21 
		66.657,91.21 66.657,51.299 	"/>
</g>
<g id="phase3">
	<path fill-rule="evenodd" clip-rule="evenodd" fill="#A6A6A6" d="M49.928,83.369c0-2.104,0.818-4.01,2.143-5.418L40.82,40.335
		l3.981-1.427L58.85,75.645c2.162,0.357,4.005,1.645,5.165,3.432v-30.47l26.921,0.035l5.252-3.158
		c-2.31-3.926-5.117-7.482-8.335-10.561l-6.598,7.4l-3.279-2.482l6.655-7.741c-3.114-2.482-6.535-4.546-10.183-6.136l-3.631,9.085
		l-3.854-1.305l3.493-9.298c-3.608-1.17-7.401-1.883-11.322-2.074l-0.107,10.072h-4.053l-0.107-10.072
		c-3.921,0.19-7.714,0.903-11.322,2.074l3.493,9.298l-3.854,1.305l-3.631-9.085c-3.649,1.589-7.069,3.653-10.183,6.136l6.655,7.741
		l-3.279,2.482l-6.598-7.4c-3.218,3.08-6.025,6.636-8.335,10.561l9.251,5.564l-2.382,3.417l-8.892-5.177
		c-1.866,3.898-3.273,8.088-4.12,12.5l9.364,2.283l-1.252,4.017l-8.74-2.018c-0.202,1.876-0.317,3.78-0.317,5.714
		c0,4.006,0.457,7.897,1.298,11.627H49.93C49.93,83.395,49.928,83.382,49.928,83.369z"/>
	<radialGradient id="SVGID_15_" cx="86.0642" cy="58.7543" r="18.1027" gradientUnits="userSpaceOnUse">
		<stop  offset="0" style="stop-color:#4AF3D6"/>
		<stop  offset="1" style="stop-color:#21EBC6"/>
	</radialGradient>
	<polygon fill-rule="evenodd" clip-rule="evenodd" fill="url(#SVGID_15_)" points="66.657,51.299 105.805,51.299 105.805,91.21 
		66.657,91.21 66.657,51.299 	"/>
</g>
<g id="phase2">
	<path fill-rule="evenodd" clip-rule="evenodd" fill="#A6A6A6" d="M49.928,83.369c0-2.104,0.818-4.01,2.143-5.418L40.82,40.335
		l3.981-1.427L58.85,75.645c2.162,0.357,4.005,1.645,5.165,3.432v-30.47l26.921,0.035l5.252-3.158
		c-2.31-3.926-5.117-7.482-8.335-10.561l-6.598,7.4l-3.279-2.482l6.655-7.741c-3.114-2.482-6.535-4.546-10.183-6.136l-3.631,9.085
		l-3.854-1.305l3.493-9.298c-3.608-1.17-7.401-1.883-11.322-2.074l-0.107,10.072h-4.053l-0.107-10.072
		c-3.921,0.19-7.714,0.903-11.322,2.074l3.493,9.298l-3.854,1.305l-3.631-9.085c-3.649,1.589-7.069,3.653-10.183,6.136l6.655,7.741
		l-3.279,2.482l-6.598-7.4c-3.218,3.08-6.025,6.636-8.335,10.561l9.251,5.564l-2.382,3.417l-8.892-5.177
		c-1.866,3.898-3.273,8.088-4.12,12.5l9.364,2.283l-1.252,4.017l-8.74-2.018c-0.202,1.876-0.317,3.78-0.317,5.714
		c0,4.006,0.457,7.897,1.298,11.627H49.93C49.93,83.395,49.928,83.382,49.928,83.369z"/>
	<radialGradient id="SVGID_16_" cx="86.0642" cy="58.7543" r="18.1027" gradientUnits="userSpaceOnUse">
		<stop  offset="0" style="stop-color:#C638E7"/>
		<stop  offset="1" style="stop-color:#B510DE"/>
	</radialGradient>
	<polygon fill-rule="evenodd" clip-rule="evenodd" fill="url(#SVGID_16_)" points="66.657,51.299 105.805,51.299 105.805,91.21 
		66.657,91.21 66.657,51.299 	"/>
</g>
<g id="phase1">
	<g>
		<path fill-rule="evenodd" clip-rule="evenodd" fill="#A6A6A6" d="M80.017,41.385l13.136,23.287l-0.188-0.602l9.364-2.283
			c-0.847-4.411-2.254-8.602-4.12-12.5l-8.892,5.177l-2.382-3.417l9.251-5.564c-2.31-3.926-5.117-7.482-8.335-10.561l-6.598,7.4
			L80.017,41.385z"/>
		<path fill-rule="evenodd" clip-rule="evenodd" fill="#A6A6A6" d="M102.429,81.115c0.544-3.024,0.846-6.14,0.846-9.333
			c0-1.934-0.115-3.838-0.317-5.714L94.98,67.91L102.429,81.115z"/>
		<path fill-rule="evenodd" clip-rule="evenodd" fill="#A6A6A6" d="M52.071,77.951L40.82,40.335l3.981-1.427l13.629,35.64
			L78.401,38.52l0.281,0.498l5.949-6.919c-3.114-2.482-6.535-4.546-10.183-6.136l-3.631,9.085l-3.854-1.305l3.493-9.298
			c-3.608-1.17-7.401-1.883-11.322-2.074l-0.107,10.072h-4.053l-0.107-10.072c-3.921,0.19-7.714,0.903-11.322,2.074l3.493,9.298
			l-3.854,1.305l-3.631-9.085c-3.649,1.589-7.069,3.653-10.183,6.136l6.655,7.741l-3.279,2.482l-6.598-7.4
			c-3.218,3.08-6.025,6.636-8.335,10.561l9.251,5.564l-2.382,3.417l-8.892-5.177c-1.866,3.898-3.273,8.088-4.12,12.5l9.364,2.283
			l-1.252,4.017l-8.74-2.018c-0.202,1.876-0.317,3.78-0.317,5.714c0,4.006,0.457,7.897,1.298,11.627h37.871
			C49.915,81.332,50.762,79.342,52.071,77.951z"/>
	</g>
	<polygon fill-rule="evenodd" clip-rule="evenodd" fill="#10D510" points="104.259,91.975 78.401,81.064 52.545,91.975 
		78.401,45.33 104.259,91.975 	"/>
</g>
<g id="phase0">
	<g>
		<path fill-rule="evenodd" clip-rule="evenodd" fill="#A6A6A6" d="M80.017,41.385l13.136,23.287l-0.188-0.602l9.364-2.283
			c-0.847-4.411-2.254-8.602-4.12-12.5l-8.892,5.177l-2.382-3.417l9.251-5.564c-2.31-3.926-5.117-7.482-8.335-10.561l-6.598,7.4
			L80.017,41.385z"/>
		<path fill-rule="evenodd" clip-rule="evenodd" fill="#A6A6A6" d="M102.429,81.115c0.544-3.024,0.846-6.14,0.846-9.333
			c0-1.934-0.115-3.838-0.317-5.714L94.98,67.91L102.429,81.115z"/>
		<path fill-rule="evenodd" clip-rule="evenodd" fill="#A6A6A6" d="M52.071,77.951L40.82,40.335l3.981-1.427l13.629,35.64
			L78.401,38.52l0.281,0.498l5.949-6.919c-3.114-2.482-6.535-4.546-10.183-6.136l-3.631,9.085l-3.854-1.305l3.493-9.298
			c-3.608-1.17-7.401-1.883-11.322-2.074l-0.107,10.072h-4.053l-0.107-10.072c-3.921,0.19-7.714,0.903-11.322,2.074l3.493,9.298
			l-3.854,1.305l-3.631-9.085c-3.649,1.589-7.069,3.653-10.183,6.136l6.655,7.741l-3.279,2.482l-6.598-7.4
			c-3.218,3.08-6.025,6.636-8.335,10.561l9.251,5.564l-2.382,3.417l-8.892-5.177c-1.866,3.898-3.273,8.088-4.12,12.5l9.364,2.283
			l-1.252,4.017l-8.74-2.018c-0.202,1.876-0.317,3.78-0.317,5.714c0,4.006,0.457,7.897,1.298,11.627h37.871
			C49.915,81.332,50.762,79.342,52.071,77.951z"/>
	</g>
	<polygon fill-rule="evenodd" clip-rule="evenodd" fill="#EE22C4" points="104.259,91.975 78.401,81.064 52.545,91.975 
		78.401,45.33 104.259,91.975 	"/>
</g>
</svg>
