<?xml version="1.0" encoding="utf-8"?>
<!-- Generator: Adobe Illustrator 16.0.2, SVG Export Plug-In . SVG Version: 6.00 Build 0)  -->
<!DOCTYPE svg PUBLIC "-//W3C//DTD SVG 1.1//EN" "http://www.w3.org/Graphics/SVG/1.1/DTD/svg11.dtd">
<svg version="1.1" id="Capa_1" xmlns="http://www.w3.org/2000/svg" xmlns:xlink="http://www.w3.org/1999/xlink" x="0px" y="0px"
	 width="120px" height="120px" viewBox="0 0 120 120" xml:space="preserve">
<g>
	<g>
		<path fill="#FFFFFF" d="M73.378,5c7.366,0,11.048,5.023,11.048,10.768c0,7.175-6.396,13.811-14.73,13.811
			c-6.979,0-11.049-4.127-10.855-10.941C58.84,12.894,63.686,5,73.378,5z M50.697,115c-5.815,0-10.08-3.588-6.009-19.376
			l6.677-28.003c1.162-4.484,1.353-6.278,0-6.278c-1.747,0-9.296,3.098-13.761,6.149L34.7,62.646
			C48.85,50.628,65.128,43.579,72.104,43.579c5.813,0,6.785,6.997,3.877,17.763l-7.643,29.437c-1.357,5.202-0.774,6.995,0.579,6.995
			c1.745,0,7.466-2.16,13.085-6.646l3.297,4.487C71.537,109.61,56.514,115,50.697,115z"/>
	</g>
</g>
</svg>
