<?xml version="1.0" encoding="utf-8"?>
<!-- Generator: Adobe Illustrator 16.0.2, SVG Export Plug-In . SVG Version: 6.00 Build 0)  -->
<!DOCTYPE svg PUBLIC "-//W3C//DTD SVG 1.1//EN" "http://www.w3.org/Graphics/SVG/1.1/DTD/svg11.dtd">
<svg version="1.1" id="Layer_1" xmlns="http://www.w3.org/2000/svg" xmlns:xlink="http://www.w3.org/1999/xlink" x="0px" y="0px"
	 width="132px" height="132px" viewBox="0 0 132 132" xml:space="preserve">
<g>
	<path fill="#FFFFFF" d="M109.505,34.758c-0.005-0.551-0.179-1.094-0.558-1.523L85.809,6.806c-0.005-0.007-0.013-0.01-0.019-0.017
		c-0.138-0.155-0.296-0.282-0.468-0.394c-0.05-0.033-0.1-0.063-0.153-0.093c-0.15-0.08-0.304-0.146-0.464-0.193
		c-0.044-0.015-0.083-0.031-0.127-0.043C84.402,6.025,84.224,6,84.04,6H27.176c-2.595,0-4.705,2.112-4.705,4.707v110.586
		c0,2.596,2.11,4.707,4.706,4.707h77.646c2.596,0,4.706-2.111,4.706-4.707V35.021C109.529,34.934,109.516,34.845,109.505,34.758z
		 M27.176,85.904V10.708h54.51v24.078c0,1.299,1.052,2.354,2.354,2.354h20.783l0.002,48.765H27.176z M99.724,117.704H84.501V93.339
		h5.533v19.738h9.689V117.704L99.724,117.704z M77.719,117.704H62.497V93.339h5.532v19.738h9.689V117.704L77.719,117.704z
		 M38.415,117.704h-5.887l8.868-24.367h5.446l8.869,24.367h-5.888l-1.822-5.004h-7.765L38.415,117.704L38.415,117.704z
		 M44.119,102.031l-1.901,5.223h3.802L44.119,102.031L44.119,102.031z"/>
	<polygon fill="#FFFFFF" points="44.119,102.031 42.218,107.254 46.019,107.254 	"/>
</g>
<g id="Layer_x5F_1">
	<path fill="#FFFFFF" d="M65.265,20.054c15.785-0.06,28.953,12.861,28.921,28.958c-0.03,15.707-12.973,28.985-29.162,28.861
		c-15.868-0.12-28.684-13.42-28.632-29.043C36.443,33.045,49.459,20.008,65.265,20.054z M39.653,41.119
		c0.095,0.067,0.188,0.132,0.282,0.199c0.286-0.173,0.596-0.319,0.853-0.527c0.57-0.466,1.104-0.979,1.671-1.449
		c3.402-2.826,7.105-3.652,11.192-1.595c1.383,0.695,2.767,1.42,4.053,2.274c5.688,3.774,11.257,7.739,17.04,11.364
		c4.573,2.873,9.558,4.927,14.914,5.966c0.826,0.161,1.197-0.056,1.355-0.794c0.216-1.005,0.341-2.034,0.614-3.023
		c0.181-0.651-0.061-0.892-0.612-1.021c-2.85-0.67-5.463-1.935-7.734-3.707c-4.153-3.241-8.192-6.64-12.218-10.044
		c-2.786-2.358-5.435-4.882-8.21-7.254c-3.77-3.218-8.19-3.812-12.892-2.871c-1.161,0.232-2.524,0.49-3.339,1.233
		c-2.8,2.56-5.02,5.603-6.346,9.212C40.028,39.747,39.856,40.44,39.653,41.119z M87.376,64.083
		c-0.108-0.116-0.213-0.229-0.321-0.344c-0.343,0.087-0.686,0.165-1.024,0.259c-3.634,0.995-7.32,1.866-11.09,1.677
		c-3.254-0.164-6.519-0.606-9.721-1.215c-5.54-1.053-10.67-3.358-15.858-5.49c-1.643-0.673-3.422-1.254-5.171-1.375
		c-2.341-0.159-3.626,2.209-2.514,4.231c2.616,4.754,6.329,8.407,11.126,10.942c0.386,0.203,0.825,0.3,1.458,0.523
		c-0.127-0.631-0.182-0.985-0.27-1.33c-0.635-2.521,0.396-3.579,2.981-3.047c0.36,0.075,0.722,0.147,1.08,0.242
		c6.224,1.604,12.512,2.357,18.926,1.389c3.391-0.512,6.707-1.171,8.829-4.297C86.307,65.511,86.853,64.803,87.376,64.083z
		 M57.618,23.375c0.019,0.153,0.037,0.305,0.057,0.459c0.27,0.045,0.537,0.119,0.807,0.132c1.397,0.078,2.794,0.127,4.19,0.211
		c5.11,0.31,9.619,2.146,13.084,5.907c2.691,2.916,4.955,6.227,7.491,9.292c1.117,1.356,2.356,2.645,3.693,3.786
		c1.005,0.857,2.216,0.735,3.066,0.041c0.929-0.757,1.076-1.479,0.602-2.885c-1.676-4.968-4.606-9.084-8.744-12.254
		c-5.997-4.602-12.794-6.546-20.343-5.543C60.208,22.695,58.92,23.084,57.618,23.375z"/>
</g>
</svg>
