<?xml version="1.0" encoding="UTF-8" ?>
<!DOCTYPE svg PUBLIC "-//W3C//DTD SVG 1.1//EN" "http://www.w3.org/Graphics/SVG/1.1/DTD/svg11.dtd">
<svg width="512pt" height="512pt" viewBox="0 0 512 512" version="1.1" xmlns="http://www.w3.org/2000/svg">
<g id="#2183aaff">
<path fill="#2183aa" opacity="1.00" d=" M 238.07 25.11 C 267.92 20.76 298.52 22.03 327.91 28.81 C 323.58 27.30 319.75 30.44 315.85 31.80 C 318.58 36.27 324.18 37.02 328.41 39.48 C 333.68 42.01 336.90 47.13 341.63 50.38 C 347.02 54.08 354.63 51.87 359.58 56.46 C 364.26 60.25 363.16 67.45 367.66 71.36 C 372.20 75.83 378.80 76.70 384.86 77.22 C 387.16 75.57 390.57 73.21 392.90 76.19 C 395.04 80.37 395.51 85.26 397.63 89.43 C 400.58 91.53 404.71 91.01 407.61 93.24 C 409.42 94.81 411.10 96.62 412.16 98.80 C 413.20 101.17 412.24 103.77 411.83 106.18 C 405.32 104.45 401.02 98.78 395.08 95.91 C 388.75 92.85 382.79 88.41 375.56 87.80 C 375.41 91.20 376.63 94.56 378.71 97.22 C 380.25 97.92 381.91 98.31 383.53 98.80 C 383.43 103.91 383.96 109.06 386.44 113.63 C 389.94 117.29 395.28 117.78 400.04 118.19 C 400.73 116.26 400.69 113.50 402.96 112.67 C 406.83 112.03 409.25 115.65 411.23 118.34 C 413.36 115.84 415.53 113.37 417.77 110.97 C 418.67 112.80 420.10 114.69 419.46 116.85 C 418.60 120.17 416.68 123.08 415.25 126.16 C 425.16 125.12 433.11 136.11 430.21 145.27 C 428.98 149.23 424.46 149.87 420.91 149.77 C 419.53 154.24 423.60 156.89 425.95 159.99 C 429.33 164.31 433.89 167.85 435.89 173.12 C 437.68 177.00 438.69 182.17 443.07 183.97 C 449.61 185.54 457.51 180.05 457.04 172.96 C 456.58 162.23 449.12 153.48 447.28 143.10 C 445.91 138.30 451.36 133.78 455.82 135.25 C 461.20 138.36 460.65 146.03 465.31 149.77 C 470.60 152.42 476.87 152.63 482.65 151.80 L 482.71 151.79 C 485.69 159.29 489.31 166.53 492.16 174.10 C 491.19 177.54 490.64 181.43 487.89 183.98 C 485.03 186.54 480.00 184.82 478.67 181.41 C 477.17 177.04 478.61 172.22 477.16 167.86 C 476.27 165.46 473.39 165.74 471.33 165.62 C 470.92 167.42 470.65 169.27 469.96 170.99 C 468.27 175.24 463.98 178.13 463.58 182.94 C 462.94 187.25 456.95 184.80 454.84 187.82 C 450.77 192.89 449.74 199.67 449.96 205.99 C 450.27 212.74 450.89 219.47 450.79 226.24 C 450.78 227.91 450.76 229.59 450.75 231.27 C 450.65 236.30 450.56 241.33 450.57 246.36 C 450.55 248.02 450.50 249.69 450.42 251.36 C 449.87 257.75 448.00 263.91 446.34 270.08 C 445.71 272.39 445.20 274.72 444.78 277.08 C 443.90 282.10 443.92 287.28 444.96 292.27 C 445.31 293.79 445.73 295.30 446.21 296.79 C 447.43 300.17 448.98 303.42 450.63 306.61 C 451.24 307.78 451.86 308.96 452.48 310.14 C 454.23 313.40 455.79 316.76 457.14 320.21 C 457.55 321.26 457.98 322.30 458.41 323.36 C 459.87 326.94 461.49 330.49 463.69 333.70 C 464.56 334.83 465.50 335.92 466.48 336.97 C 468.65 338.38 471.73 339.99 474.14 338.18 C 479.10 334.72 482.50 329.30 488.08 326.67 C 489.29 330.87 487.14 334.94 486.20 338.96 C 485.03 343.84 481.64 347.91 481.00 352.95 C 480.26 357.58 479.46 362.20 478.95 366.86 C 461.92 398.00 438.02 425.44 409.02 445.97 C 372.17 472.48 327.35 487.78 281.97 489.25 C 238.69 490.94 194.97 480.27 157.44 458.61 C 133.78 445.09 112.55 427.35 94.98 406.53 C 109.27 388.14 123.58 369.77 137.88 351.39 C 140.71 353.81 143.47 356.33 146.55 358.45 C 157.68 365.78 165.47 377.17 176.86 384.14 C 180.49 386.45 184.80 387.19 188.99 387.76 C 191.30 388.06 193.60 388.38 195.88 388.87 C 199.60 389.76 203.50 392.03 204.32 396.07 C 205.09 400.39 204.65 405.30 201.81 408.83 C 198.83 412.81 194.20 415.81 193.06 420.94 C 193.02 423.04 193.09 425.14 193.19 427.24 C 193.30 429.36 193.44 431.47 193.56 433.59 C 201.20 435.56 208.41 438.83 215.39 442.44 C 216.46 442.99 217.53 443.56 218.60 444.13 C 221.86 445.89 225.10 447.68 228.34 449.46 C 229.39 450.03 230.43 450.61 231.48 451.18 C 234.76 452.98 238.08 454.69 241.45 456.32 C 242.54 456.84 243.64 457.37 244.74 457.90 C 248.08 459.49 251.46 461.03 254.77 462.72 C 256.03 463.38 257.28 464.06 258.51 464.78 C 261.41 466.47 264.17 468.39 266.73 470.58 C 267.68 471.39 268.60 472.25 269.49 473.14 C 271.95 475.61 274.07 478.39 276.05 481.26 C 276.87 482.42 277.67 483.59 278.52 484.74 C 279.65 486.18 280.84 487.58 282.04 488.98 C 284.59 488.80 287.15 488.61 289.70 488.42 C 292.00 488.24 294.29 488.07 296.59 487.85 C 301.40 487.22 306.26 486.89 311.00 485.81 C 314.17 482.62 316.19 478.48 319.09 475.05 C 325.17 467.49 334.27 462.63 338.99 453.93 C 341.36 449.92 342.30 445.28 342.44 440.67 C 342.53 439.03 342.59 437.39 342.70 435.76 C 343.07 433.02 343.32 430.14 344.73 427.70 C 346.82 424.53 350.35 422.57 352.21 419.22 C 353.49 416.70 352.67 413.70 351.36 411.37 C 350.41 410.48 349.42 409.63 348.41 408.84 C 345.01 406.86 341.25 405.63 337.44 404.74 C 336.07 404.42 334.69 404.13 333.33 403.85 C 329.49 403.09 325.75 401.94 322.13 400.49 C 320.84 400.00 319.55 399.52 318.24 399.09 C 315.01 397.88 311.08 398.03 308.54 400.60 C 306.04 402.98 303.04 406.79 299.28 404.19 C 299.42 402.34 299.49 400.49 299.51 398.64 C 299.53 394.26 299.52 389.88 299.51 385.50 C 298.70 385.56 297.08 385.68 296.27 385.74 C 292.41 386.01 288.55 386.28 284.69 386.06 C 282.91 385.60 281.37 384.55 279.95 383.43 C 278.82 382.33 277.77 381.15 276.67 380.03 C 275.19 378.62 273.66 377.04 271.59 376.60 C 267.46 375.82 263.06 377.67 259.09 375.89 C 256.11 374.69 255.93 371.08 254.91 368.49 C 254.39 367.17 253.73 365.91 253.04 364.69 C 249.30 361.67 244.55 363.95 240.32 363.56 C 235.23 362.21 231.66 357.98 227.23 355.39 C 225.96 354.80 224.66 354.29 223.34 353.87 C 216.43 352.97 208.50 353.23 202.98 358.04 C 199.28 361.25 199.69 366.59 197.67 370.69 C 195.21 374.96 189.74 377.19 185.00 375.78 C 180.15 374.36 176.26 370.60 173.75 366.32 C 170.64 361.28 173.34 355.03 171.29 349.72 C 169.38 346.30 165.12 347.07 161.89 347.31 C 157.85 347.77 152.98 345.88 151.41 341.90 C 150.87 338.57 152.05 335.26 152.91 332.09 C 158.02 325.39 163.29 318.82 168.37 312.09 C 173.97 315.22 180.84 316.29 186.97 314.10 C 194.22 311.74 198.70 305.19 204.09 300.24 C 229.40 311.01 258.27 313.19 284.90 306.26 C 312.60 299.33 337.44 282.32 354.59 259.56 C 370.91 238.01 379.91 211.05 379.74 184.01 C 379.80 153.67 368.24 123.52 347.95 100.97 C 329.59 80.16 304.28 65.62 276.98 60.52 C 277.27 57.76 277.97 54.44 275.77 52.23 C 271.20 47.59 264.85 45.37 259.96 41.13 C 257.93 39.49 256.09 37.52 253.68 36.43 C 250.25 35.40 246.44 36.60 243.12 35.16 C 240.08 32.69 239.79 28.42 238.07 25.11 Z" />
<path fill="#2183aa" opacity="1.00" d=" M 40.06 250.00 C 41.21 193.40 64.06 137.49 103.09 96.47 C 102.22 100.65 100.24 104.48 98.13 108.16 C 91.19 120.00 81.50 129.89 74.10 141.42 C 71.66 144.95 69.90 148.90 68.31 152.88 C 65.30 160.04 63.15 167.53 61.36 175.08 C 60.77 177.48 60.23 179.89 59.73 182.31 C 57.02 195.90 54.74 209.61 53.38 223.41 C 53.28 224.99 53.22 226.57 53.17 228.16 C 53.00 233.24 53.22 238.32 53.80 243.37 C 53.97 244.78 54.16 246.19 54.37 247.61 C 55.00 251.87 55.90 256.08 57.05 260.23 C 57.43 261.59 57.84 262.94 58.27 264.29 C 59.40 267.76 60.72 271.17 62.22 274.50 C 62.90 276.01 63.62 277.52 64.38 279.00 C 65.97 282.00 67.76 284.88 69.59 287.74 C 70.28 288.85 70.97 289.96 71.64 291.09 C 73.44 294.16 75.12 297.31 76.76 300.48 C 77.38 301.68 77.99 302.89 78.61 304.10 C 80.24 307.31 81.88 310.52 83.59 313.70 C 84.20 314.85 84.82 316.00 85.43 317.15 C 75.50 324.93 65.54 332.68 55.61 340.47 C 44.67 311.68 39.15 280.80 40.06 250.00 Z" />
</g>
<g id="#e3e5e6ff">
<path fill="#e3e5e6" opacity="1.00" d=" M 228.77 26.16 C 231.79 25.69 234.81 25.17 237.79 24.48 C 221.51 41.32 204.63 57.56 188.31 74.36 C 187.76 75.03 187.35 75.79 187.08 76.62 C 184.55 79.48 181.00 81.10 178.03 83.44 C 177.20 83.44 175.54 83.44 174.71 83.44 C 178.28 78.78 182.69 74.89 186.78 70.73 C 201.12 56.39 215.45 42.03 229.81 27.70 C 229.57 27.35 229.10 26.65 228.86 26.29 L 228.77 26.16 Z" />
<path fill="#e3e5e6" opacity="1.00" d=" M 193.97 42.30 C 196.97 41.01 200.05 39.92 203.11 38.78 C 200.53 41.96 197.71 44.92 194.77 47.76 C 152.89 89.55 111.08 131.40 69.25 173.24 C 66.17 176.35 63.14 179.54 59.73 182.31 C 60.23 179.89 60.77 177.48 61.36 175.08 C 62.72 174.23 64.11 173.41 65.26 172.29 C 104.86 132.58 144.55 92.95 184.22 53.31 C 187.58 49.75 191.74 46.78 193.97 42.30 Z" />
<path fill="#e3e5e6" opacity="1.00" d=" M 148.72 68.79 C 151.46 66.01 154.12 63.13 157.34 60.90 C 157.39 62.27 157.77 63.60 158.78 64.58 C 155.41 66.50 152.96 69.57 150.24 72.26 C 124.24 98.27 98.21 124.26 72.23 150.30 C 71.07 151.36 69.67 152.11 68.31 152.88 C 69.90 148.90 71.66 144.95 74.10 141.42 C 75.80 141.41 77.21 140.52 78.30 139.29 C 101.70 115.72 125.26 92.30 148.72 68.79 Z" />
<path fill="#e3e5e6" opacity="1.00" d=" M 129.20 148.21 C 130.49 146.92 132.09 145.99 133.67 145.09 C 132.97 147.37 132.30 149.66 131.67 151.96 C 127.75 154.15 124.89 157.67 121.74 160.77 C 100.22 182.25 78.73 203.77 57.26 225.29 C 56.03 226.43 54.58 227.27 53.17 228.16 C 53.22 226.57 53.28 224.99 53.38 223.41 C 55.88 221.60 58.16 219.53 60.25 217.27 C 83.17 194.19 106.34 171.36 129.20 148.21 Z" />
<path fill="#e3e5e6" opacity="1.00" d=" M 124.21 173.27 C 125.52 172.01 126.92 170.85 128.32 169.69 C 128.17 171.10 128.04 172.52 127.92 173.94 C 126.29 175.95 124.61 177.93 122.77 179.76 C 103.89 198.55 85.08 217.41 66.24 236.25 C 62.36 240.12 58.58 244.10 54.37 247.61 C 54.16 246.19 53.97 244.78 53.80 243.37 C 55.84 241.56 57.85 239.71 59.76 237.77 C 81.22 216.25 102.76 194.80 124.21 173.27 Z" />
<path fill="#e3e5e6" opacity="1.00" d=" M 494.75 181.19 C 495.30 183.00 495.89 184.79 496.48 186.60 C 493.84 188.59 491.46 190.89 489.19 193.29 C 480.37 202.10 471.59 210.96 462.75 219.74 C 458.77 223.61 455.14 227.85 450.75 231.27 C 450.76 229.59 450.78 227.91 450.79 226.24 C 454.20 223.54 457.18 220.37 460.22 217.28 C 468.90 208.60 477.60 199.95 486.27 191.26 C 489.27 188.06 493.00 185.36 494.75 181.19 Z" />
<path fill="#e3e5e6" opacity="1.00" d=" M 126.34 191.20 C 126.84 192.14 127.35 193.08 127.82 194.04 L 127.90 194.75 C 104.54 217.78 81.46 241.09 58.27 264.29 C 57.84 262.94 57.43 261.59 57.05 260.23 C 80.41 237.49 103.13 214.09 126.34 191.20 Z" />
<path fill="#e3e5e6" opacity="1.00" d=" M 499.27 196.25 C 499.62 197.53 499.96 198.82 500.25 200.13 C 499.84 201.86 499.20 203.60 497.81 204.79 C 486.00 216.30 474.46 228.09 462.76 239.71 C 458.69 243.64 455.06 248.07 450.42 251.36 C 450.50 249.69 450.55 248.02 450.57 246.36 C 453.13 244.35 455.51 242.13 457.77 239.78 C 470.55 226.89 483.46 214.13 496.27 201.26 C 497.72 199.90 498.86 198.22 499.27 196.25 Z" />
<path fill="#e3e5e6" opacity="1.00" d=" M 120.77 216.79 C 123.65 213.82 126.57 210.89 129.75 208.23 C 130.02 209.59 130.31 210.95 130.62 212.31 C 125.81 216.27 121.66 220.94 117.21 225.29 C 103.02 239.40 88.92 253.61 74.75 267.75 C 71.27 271.48 67.10 274.62 64.38 279.00 C 63.62 277.52 62.90 276.01 62.22 274.50 C 66.38 271.64 69.62 267.72 73.26 264.27 C 89.07 248.42 104.88 232.56 120.77 216.79 Z" />
<path fill="#e3e5e6" opacity="1.00" d=" M 457.73 259.75 C 472.74 244.98 487.40 229.85 502.47 215.14 C 502.93 216.17 503.39 217.20 503.85 218.24 L 504.07 218.75 C 489.17 232.94 474.91 247.78 460.26 262.22 C 455.07 267.14 450.49 272.73 444.78 277.08 C 445.20 274.72 445.71 272.39 446.34 270.08 C 450.92 267.58 453.95 263.20 457.73 259.75 Z" />
<path fill="#e3e5e6" opacity="1.00" d=" M 133.77 223.71 C 134.20 225.02 134.66 226.33 135.13 227.63 C 120.25 241.91 105.91 256.75 91.26 271.26 C 84.73 277.88 77.94 284.25 71.64 291.09 C 70.97 289.96 70.28 288.85 69.59 287.74 C 91.13 266.55 112.40 245.08 133.77 223.71 Z" />
<path fill="#e3e5e6" opacity="1.00" d=" M 505.14 227.51 L 505.15 227.19 C 505.71 230.35 505.97 233.55 506.06 236.75 C 490.98 251.11 476.54 266.13 461.72 280.76 C 456.62 286.17 450.88 290.99 446.21 296.79 C 445.73 295.30 445.31 293.79 444.96 292.27 C 464.51 273.38 483.41 253.81 502.81 234.76 C 505.05 233.02 505.00 230.07 505.14 227.51 Z" />
<path fill="#e3e5e6" opacity="1.00" d=" M 506.06 236.75 C 507.63 252.74 507.25 268.98 505.07 284.89 C 505.03 282.58 504.89 280.27 504.79 277.97 C 492.47 289.61 480.83 301.96 468.67 313.76 C 465.24 316.95 462.39 320.80 458.41 323.36 C 457.98 322.30 457.55 321.26 457.14 320.21 C 471.69 306.07 485.86 291.55 500.27 277.27 C 502.05 275.45 504.08 273.81 505.49 271.66 C 506.44 266.82 506.04 261.84 505.86 256.94 C 500.97 261.04 496.80 265.87 492.22 270.29 C 478.95 283.55 465.66 296.79 452.48 310.14 C 451.86 308.96 451.24 307.78 450.63 306.61 C 455.21 302.55 459.41 298.10 463.73 293.77 C 477.59 279.63 491.98 265.95 505.65 251.65 C 506.57 246.75 505.36 241.70 506.06 236.75 Z" />
<path fill="#e3e5e6" opacity="1.00" d=" M 127.75 249.81 C 131.77 246.11 135.04 241.54 139.74 238.64 C 140.21 239.60 140.68 240.56 141.17 241.51 C 126.02 256.25 111.27 271.38 96.22 286.22 C 90.41 292.24 84.26 297.92 78.61 304.10 C 77.99 302.89 77.38 301.68 76.76 300.48 C 94.04 283.88 110.64 266.58 127.75 249.81 Z" />
<path fill="#e3e5e6" opacity="1.00" d=" M 83.59 313.70 C 99.48 298.42 114.69 282.42 130.60 267.15 C 131.00 268.13 131.39 269.12 131.77 270.13 L 131.94 270.76 C 120.16 282.04 108.88 293.82 97.22 305.22 C 95.68 306.82 93.58 308.31 93.51 310.76 C 90.92 313.02 88.14 315.04 85.43 317.15 C 84.82 316.00 84.20 314.85 83.59 313.70 Z" />
<path fill="#e3e5e6" opacity="1.00" d=" M 463.69 333.70 C 476.81 320.95 489.46 307.71 502.65 295.03 C 502.76 295.76 502.98 297.23 503.10 297.96 C 503.03 298.61 502.90 299.91 502.84 300.56 L 502.66 300.69 C 500.72 302.00 498.86 303.46 497.24 305.16 C 489.48 313.11 481.59 320.92 473.72 328.76 C 471.07 331.28 468.37 333.80 466.48 336.97 C 465.50 335.92 464.56 334.83 463.69 333.70 Z" />
<path fill="#e3e5e6" opacity="1.00" d=" M 223.34 353.87 C 224.66 354.29 225.96 354.80 227.23 355.39 C 216.45 365.85 206.00 376.64 195.31 387.18 C 195.45 387.60 195.74 388.45 195.88 388.87 C 193.60 388.38 191.30 388.06 188.99 387.76 C 193.81 384.40 197.49 379.76 201.75 375.77 C 208.87 368.40 216.43 361.44 223.34 353.87 Z" />
<path fill="#e3e5e6" opacity="1.00" d=" M 194.71 422.84 C 214.14 403.45 233.40 383.87 253.04 364.69 C 253.73 365.91 254.39 367.17 254.91 368.49 C 251.83 370.48 249.25 373.09 246.73 375.72 C 229.43 393.05 212.20 410.43 194.79 427.63 C 194.39 427.54 193.59 427.34 193.19 427.24 C 193.09 425.14 193.02 423.04 193.06 420.94 C 193.61 421.57 194.16 422.20 194.71 422.84 Z" />
<path fill="#e3e5e6" opacity="1.00" d=" M 276.67 380.03 C 277.77 381.15 278.82 382.33 279.95 383.43 C 277.87 384.84 275.89 386.41 274.17 388.24 C 255.73 406.96 236.89 425.28 218.60 444.13 C 217.53 443.56 216.46 442.99 215.39 442.44 C 231.28 425.69 248.03 409.77 264.20 393.29 C 268.40 388.91 273.16 385.02 276.67 380.03 Z" />
<path fill="#e3e5e6" opacity="1.00" d=" M 284.69 386.06 C 288.55 386.28 292.41 386.01 296.27 385.74 C 292.80 390.10 288.61 393.78 284.72 397.75 C 267.01 415.59 249.07 433.22 231.48 451.18 C 230.43 450.61 229.39 450.03 228.34 449.46 C 248.53 428.45 269.64 408.33 289.90 387.39 C 288.15 386.96 286.41 386.55 284.69 386.06 Z" />
<path fill="#e3e5e6" opacity="1.00" d=" M 286.28 411.18 C 290.70 407.01 294.66 402.33 299.51 398.64 C 299.49 400.49 299.42 402.34 299.28 404.19 C 295.26 406.39 292.52 410.17 289.22 413.24 C 274.44 428.17 259.41 442.87 244.74 457.90 C 243.64 457.37 242.54 456.84 241.45 456.32 C 256.14 441.04 271.41 426.31 286.28 411.18 Z" />
<path fill="#e3e5e6" opacity="1.00" d=" M 318.24 399.09 C 319.55 399.52 320.84 400.00 322.13 400.49 C 302.07 420.29 282.23 440.32 262.25 460.20 C 260.87 461.61 259.68 463.19 258.51 464.78 C 257.28 464.06 256.03 463.38 254.77 462.72 C 275.92 441.51 297.27 420.48 318.24 399.09 Z" />
<path fill="#e3e5e6" opacity="1.00" d=" M 333.33 403.85 C 334.69 404.13 336.07 404.42 337.44 404.74 C 315.14 427.87 291.94 450.14 269.49 473.14 C 268.60 472.25 267.68 471.39 266.73 470.58 C 277.59 460.18 288.01 449.32 298.73 438.78 C 310.22 427.09 322.09 415.77 333.33 403.85 Z" />
<path fill="#e3e5e6" opacity="1.00" d=" M 348.41 408.84 C 349.42 409.63 350.41 410.48 351.36 411.37 C 330.93 431.25 311.03 451.67 290.77 471.73 C 286.73 476.10 281.90 479.77 278.52 484.74 C 277.67 483.59 276.87 482.42 276.05 481.26 C 291.09 466.59 305.83 451.60 320.72 436.79 C 329.88 427.40 339.46 418.43 348.41 408.84 Z" />
<path fill="#e3e5e6" opacity="1.00" d=" M 338.18 439.24 C 339.53 437.89 341.11 436.81 342.70 435.76 C 342.59 437.39 342.53 439.03 342.44 440.67 C 327.78 453.89 314.40 468.49 300.20 482.21 C 298.72 483.86 296.32 485.30 296.59 487.85 C 294.29 488.07 292.00 488.24 289.70 488.42 C 292.78 484.31 296.67 480.94 300.23 477.28 C 312.86 464.58 325.61 452.00 338.18 439.24 Z" />
</g>
<g id="#edeff1ff">
<path fill="#edeff1" opacity="1.00" d=" M 237.79 24.48 L 238.07 25.11 C 239.79 28.42 240.08 32.69 243.12 35.16 C 246.44 36.60 250.25 35.40 253.68 36.43 C 256.09 37.52 257.93 39.49 259.96 41.13 C 264.85 45.37 271.20 47.59 275.77 52.23 C 277.97 54.44 277.27 57.76 276.98 60.52 C 262.90 57.95 248.38 57.64 234.22 59.87 C 232.59 56.67 230.89 53.21 227.74 51.23 C 225.60 49.87 222.55 49.82 220.63 51.61 C 217.26 54.65 216.91 59.54 216.92 63.78 C 210.74 65.68 204.72 68.07 198.88 70.86 C 196.98 71.91 194.26 71.02 193.00 73.18 C 191.50 75.00 189.20 75.77 187.08 76.62 C 187.35 75.79 187.76 75.03 188.31 74.36 C 204.63 57.56 221.51 41.32 237.79 24.48 Z" />
<path fill="#edeff1" opacity="1.00" d=" M 222.31 28.20 C 224.10 26.70 226.66 26.67 228.86 26.29 C 229.10 26.65 229.57 27.35 229.81 27.70 C 215.45 42.03 201.12 56.39 186.78 70.73 C 182.69 74.89 178.28 78.78 174.71 83.44 C 173.46 83.43 172.21 83.41 170.96 83.39 C 170.79 85.17 170.95 86.95 171.45 88.67 C 153.96 103.51 140.84 123.32 133.67 145.09 C 132.09 145.99 130.49 146.92 129.20 148.21 C 106.34 171.36 83.17 194.19 60.25 217.27 C 58.16 219.53 55.88 221.60 53.38 223.41 C 54.74 209.61 57.02 195.90 59.73 182.31 C 63.14 179.54 66.17 176.35 69.25 173.24 C 111.08 131.40 152.89 89.55 194.77 47.76 C 197.71 44.92 200.53 41.96 203.11 38.78 C 209.82 35.92 217.02 33.45 222.31 28.20 Z" />
<path fill="#edeff1" opacity="1.00" d=" M 315.85 31.80 C 319.75 30.44 323.58 27.30 327.91 28.81 C 394.29 44.30 452.44 90.76 482.65 151.80 C 476.87 152.63 470.60 152.42 465.31 149.77 C 460.65 146.03 461.20 138.36 455.82 135.25 C 451.36 133.78 445.91 138.30 447.28 143.10 C 449.12 153.48 456.58 162.23 457.04 172.96 C 457.51 180.05 449.61 185.54 443.07 183.97 C 438.69 182.17 437.68 177.00 435.89 173.12 C 433.89 167.85 429.33 164.31 425.95 159.99 C 423.60 156.89 419.53 154.24 420.91 149.77 C 424.46 149.87 428.98 149.23 430.21 145.27 C 433.11 136.11 425.16 125.12 415.25 126.16 C 416.68 123.08 418.60 120.17 419.46 116.85 C 420.10 114.69 418.67 112.80 417.77 110.97 C 415.53 113.37 413.36 115.84 411.23 118.34 C 409.25 115.65 406.83 112.03 402.96 112.67 C 400.69 113.50 400.73 116.26 400.04 118.19 C 395.28 117.78 389.94 117.29 386.44 113.63 C 383.96 109.06 383.43 103.91 383.53 98.80 C 381.91 98.31 380.25 97.92 378.71 97.22 C 376.63 94.56 375.41 91.20 375.56 87.80 C 382.79 88.41 388.75 92.85 395.08 95.91 C 401.02 98.78 405.32 104.45 411.83 106.18 C 412.24 103.77 413.20 101.17 412.16 98.80 C 411.10 96.62 409.42 94.81 407.61 93.24 C 404.71 91.01 400.58 91.53 397.63 89.43 C 395.51 85.26 395.04 80.37 392.90 76.19 C 390.57 73.21 387.16 75.57 384.86 77.22 C 378.80 76.70 372.20 75.83 367.66 71.36 C 363.16 67.45 364.26 60.25 359.58 56.46 C 354.63 51.87 347.02 54.08 341.63 50.38 C 336.90 47.13 333.68 42.01 328.41 39.48 C 324.18 37.02 318.58 36.27 315.85 31.80 Z" />
<path fill="#edeff1" opacity="1.00" d=" M 181.02 47.77 C 185.61 46.64 189.59 43.99 193.97 42.30 C 191.74 46.78 187.58 49.75 184.22 53.31 C 144.55 92.95 104.86 132.58 65.26 172.29 C 64.11 173.41 62.72 174.23 61.36 175.08 C 63.15 167.53 65.30 160.04 68.31 152.88 C 69.67 152.11 71.07 151.36 72.23 150.30 C 98.21 124.26 124.24 98.27 150.24 72.26 C 152.96 69.57 155.41 66.50 158.78 64.58 C 161.25 64.02 164.21 64.03 166.02 61.98 C 168.35 59.09 169.03 55.24 171.35 52.34 C 173.74 49.47 177.61 48.77 181.02 47.77 Z" />
<path fill="#edeff1" opacity="1.00" d=" M 156.44 53.22 C 157.19 52.84 157.98 52.59 158.82 52.45 C 158.78 55.34 158.19 58.16 157.34 60.90 C 154.12 63.13 151.46 66.01 148.72 68.79 C 125.26 92.30 101.70 115.72 78.30 139.29 C 77.21 140.52 75.80 141.41 74.10 141.42 C 81.50 129.89 91.19 120.00 98.13 108.16 C 100.24 104.48 102.22 100.65 103.09 96.47 C 103.16 96.16 103.30 95.55 103.38 95.24 C 119.13 79.00 136.92 64.69 156.44 53.22 Z" />
<path fill="#edeff1" opacity="1.00" d=" M 121.74 160.77 C 124.89 157.67 127.75 154.15 131.67 151.96 C 130.16 157.79 129.03 163.71 128.32 169.69 C 126.92 170.85 125.52 172.01 124.21 173.27 C 102.76 194.80 81.22 216.25 59.76 237.77 C 57.85 239.71 55.84 241.56 53.80 243.37 C 53.22 238.32 53.00 233.24 53.17 228.16 C 54.58 227.27 56.03 226.43 57.26 225.29 C 78.73 203.77 100.22 182.25 121.74 160.77 Z" />
<path fill="#edeff1" opacity="1.00" d=" M 471.33 165.62 C 473.39 165.74 476.27 165.46 477.16 167.86 C 478.61 172.22 477.17 177.04 478.67 181.41 C 480.00 184.82 485.03 186.54 487.89 183.98 C 490.64 181.43 491.19 177.54 492.16 174.10 C 493.04 176.46 493.87 178.83 494.75 181.19 C 493.00 185.36 489.27 188.06 486.27 191.26 C 477.60 199.95 468.90 208.60 460.22 217.28 C 457.18 220.37 454.20 223.54 450.79 226.24 C 450.89 219.47 450.27 212.74 449.96 205.99 C 449.74 199.67 450.77 192.89 454.84 187.82 C 456.95 184.80 462.94 187.25 463.58 182.94 C 463.98 178.13 468.27 175.24 469.96 170.99 C 470.65 169.27 470.92 167.42 471.33 165.62 Z" />
<path fill="#edeff1" opacity="1.00" d=" M 122.77 179.76 C 124.61 177.93 126.29 175.95 127.92 173.94 C 127.37 180.62 127.38 187.35 127.82 194.04 C 127.35 193.08 126.84 192.14 126.34 191.20 C 103.13 214.09 80.41 237.49 57.05 260.23 C 55.90 256.08 55.00 251.87 54.37 247.61 C 58.58 244.10 62.36 240.12 66.24 236.25 C 85.08 217.41 103.89 198.55 122.77 179.76 Z" />
<path fill="#edeff1" opacity="1.00" d=" M 489.19 193.29 C 491.46 190.89 493.84 188.59 496.48 186.60 C 497.41 189.81 498.42 193.01 499.27 196.25 C 498.86 198.22 497.72 199.90 496.27 201.26 C 483.46 214.13 470.55 226.89 457.77 239.78 C 455.51 242.13 453.13 244.35 450.57 246.36 C 450.56 241.33 450.65 236.30 450.75 231.27 C 455.14 227.85 458.77 223.61 462.75 219.74 C 471.59 210.96 480.37 202.10 489.19 193.29 Z" />
<path fill="#edeff1" opacity="1.00" d=" M 58.27 264.29 C 81.46 241.09 104.54 217.78 127.90 194.75 C 128.35 199.27 128.89 203.78 129.75 208.23 C 126.57 210.89 123.65 213.82 120.77 216.79 C 104.88 232.56 89.07 248.42 73.26 264.27 C 69.62 267.72 66.38 271.64 62.22 274.50 C 60.72 271.17 59.40 267.76 58.27 264.29 Z" />
<path fill="#edeff1" opacity="1.00" d=" M 500.25 200.13 C 501.65 206.12 503.04 212.13 503.85 218.24 C 503.39 217.20 502.93 216.17 502.47 215.14 C 487.40 229.85 472.74 244.98 457.73 259.75 C 453.95 263.20 450.92 267.58 446.34 270.08 C 448.00 263.91 449.87 257.75 450.42 251.36 C 455.06 248.07 458.69 243.64 462.76 239.71 C 474.46 228.09 486.00 216.30 497.81 204.79 C 499.20 203.60 499.84 201.86 500.25 200.13 Z" />
<path fill="#edeff1" opacity="1.00" d=" M 117.21 225.29 C 121.66 220.94 125.81 216.27 130.62 212.31 C 131.50 216.15 132.55 219.96 133.77 223.71 C 112.40 245.08 91.13 266.55 69.59 287.74 C 67.76 284.88 65.97 282.00 64.38 279.00 C 67.10 274.62 71.27 271.48 74.75 267.75 C 88.92 253.61 103.02 239.40 117.21 225.29 Z" />
<path fill="#edeff1" opacity="1.00" d=" M 460.26 262.22 C 474.91 247.78 489.17 232.94 504.07 218.75 C 504.45 221.67 504.98 224.56 505.14 227.51 C 505.00 230.07 505.05 233.02 502.81 234.76 C 483.41 253.81 464.51 273.38 444.96 292.27 C 443.92 287.28 443.90 282.10 444.78 277.08 C 450.49 272.73 455.07 267.14 460.26 262.22 Z" />
<path fill="#edeff1" opacity="1.00" d=" M 91.26 271.26 C 105.91 256.75 120.25 241.91 135.13 227.63 C 136.50 231.37 138.05 235.04 139.74 238.64 C 135.04 241.54 131.77 246.11 127.75 249.81 C 110.64 266.58 94.04 283.88 76.76 300.48 C 75.12 297.31 73.44 294.16 71.64 291.09 C 77.94 284.25 84.73 277.88 91.26 271.26 Z" />
<path fill="#edeff1" opacity="1.00" d=" M 461.72 280.76 C 476.54 266.13 490.98 251.11 506.06 236.75 C 505.36 241.70 506.57 246.75 505.65 251.65 C 491.98 265.95 477.59 279.63 463.73 293.77 C 459.41 298.10 455.21 302.55 450.63 306.61 C 448.98 303.42 447.43 300.17 446.21 296.79 C 450.88 290.99 456.62 286.17 461.72 280.76 Z" />
<path fill="#edeff1" opacity="1.00" d=" M 96.22 286.22 C 111.27 271.38 126.02 256.25 141.17 241.51 C 141.94 243.03 142.75 244.52 143.58 246.01 C 140.09 249.68 135.93 252.95 133.79 257.67 C 131.89 261.51 131.47 265.89 131.77 270.13 C 131.39 269.12 131.00 268.13 130.60 267.15 C 114.69 282.42 99.48 298.42 83.59 313.70 C 81.88 310.52 80.24 307.31 78.61 304.10 C 84.26 297.92 90.41 292.24 96.22 286.22 Z" />
<path fill="#edeff1" opacity="1.00" d=" M 492.22 270.29 C 496.80 265.87 500.97 261.04 505.86 256.94 C 506.04 261.84 506.44 266.82 505.49 271.66 C 504.08 273.81 502.05 275.45 500.27 277.27 C 485.86 291.55 471.69 306.07 457.14 320.21 C 455.79 316.76 454.23 313.40 452.48 310.14 C 465.66 296.79 478.95 283.55 492.22 270.29 Z" />
<path fill="#edeff1" opacity="1.00" d=" M 97.22 305.22 C 108.88 293.82 120.16 282.04 131.94 270.76 C 132.66 273.45 133.55 276.12 134.89 278.58 C 130.50 281.81 126.38 285.39 121.88 288.46 L 121.57 288.59 L 121.38 288.85 C 112.30 296.41 102.83 303.50 93.51 310.76 C 93.58 308.31 95.68 306.82 97.22 305.22 Z" />
<path fill="#edeff1" opacity="1.00" d=" M 468.67 313.76 C 480.83 301.96 492.47 289.61 504.79 277.97 C 504.89 280.27 505.03 282.58 505.07 284.89 C 504.77 289.29 504.00 293.65 503.10 297.96 C 502.98 297.23 502.76 295.76 502.65 295.03 C 489.46 307.71 476.81 320.95 463.69 333.70 C 461.49 330.49 459.87 326.94 458.41 323.36 C 462.39 320.80 465.24 316.95 468.67 313.76 Z" />
<path fill="#edeff1" opacity="1.00" d=" M 497.24 305.16 C 498.86 303.46 500.72 302.00 502.66 300.69 C 498.15 323.74 490.42 346.34 478.95 366.86 C 479.46 362.20 480.26 357.58 481.00 352.95 C 481.64 347.91 485.03 343.84 486.20 338.96 C 487.14 334.94 489.29 330.87 488.08 326.67 C 482.50 329.30 479.10 334.72 474.14 338.18 C 471.73 339.99 468.65 338.38 466.48 336.97 C 468.37 333.80 471.07 331.28 473.72 328.76 C 481.59 320.92 489.48 313.11 497.24 305.16 Z" />
<path fill="#edeff1" opacity="1.00" d=" M 137.88 351.39 C 142.88 344.95 147.88 338.51 152.91 332.09 C 152.05 335.26 150.87 338.57 151.41 341.90 C 152.98 345.88 157.85 347.77 161.89 347.31 C 165.12 347.07 169.38 346.30 171.29 349.72 C 173.34 355.03 170.64 361.28 173.75 366.32 C 176.26 370.60 180.15 374.36 185.00 375.78 C 189.74 377.19 195.21 374.96 197.67 370.69 C 199.69 366.59 199.28 361.25 202.98 358.04 C 208.50 353.23 216.43 352.97 223.34 353.87 C 216.43 361.44 208.87 368.40 201.75 375.77 C 197.49 379.76 193.81 384.40 188.99 387.76 C 184.80 387.19 180.49 386.45 176.86 384.14 C 165.47 377.17 157.68 365.78 146.55 358.45 C 143.47 356.33 140.71 353.81 137.88 351.39 Z" />
<path fill="#edeff1" opacity="1.00" d=" M 195.31 387.18 C 206.00 376.64 216.45 365.85 227.23 355.39 C 231.66 357.98 235.23 362.21 240.32 363.56 C 244.55 363.95 249.30 361.67 253.04 364.69 C 233.40 383.87 214.14 403.45 194.71 422.84 C 194.16 422.20 193.61 421.57 193.06 420.94 C 194.20 415.81 198.83 412.81 201.81 408.83 C 204.65 405.30 205.09 400.39 204.32 396.07 C 203.50 392.03 199.60 389.76 195.88 388.87 C 195.74 388.45 195.45 387.60 195.31 387.18 Z" />
<path fill="#edeff1" opacity="1.00" d=" M 246.73 375.72 C 249.25 373.09 251.83 370.48 254.91 368.49 C 255.93 371.08 256.11 374.69 259.09 375.89 C 263.06 377.67 267.46 375.82 271.59 376.60 C 273.66 377.04 275.19 378.62 276.67 380.03 C 273.16 385.02 268.40 388.91 264.20 393.29 C 248.03 409.77 231.28 425.69 215.39 442.44 C 208.41 438.83 201.20 435.56 193.56 433.59 C 193.44 431.47 193.30 429.36 193.19 427.24 C 193.59 427.34 194.39 427.54 194.79 427.63 C 212.20 410.43 229.43 393.05 246.73 375.72 Z" />
<path fill="#edeff1" opacity="1.00" d=" M 274.17 388.24 C 275.89 386.41 277.87 384.84 279.95 383.43 C 281.37 384.55 282.91 385.60 284.69 386.06 C 286.41 386.55 288.15 386.96 289.90 387.39 C 269.64 408.33 248.53 428.45 228.34 449.46 C 225.10 447.68 221.86 445.89 218.60 444.13 C 236.89 425.28 255.73 406.96 274.17 388.24 Z" />
<path fill="#edeff1" opacity="1.00" d=" M 296.27 385.74 C 297.08 385.68 298.70 385.56 299.51 385.50 C 299.52 389.88 299.53 394.26 299.51 398.64 C 294.66 402.33 290.70 407.01 286.28 411.18 C 271.41 426.31 256.14 441.04 241.45 456.32 C 238.08 454.69 234.76 452.98 231.48 451.18 C 249.07 433.22 267.01 415.59 284.72 397.75 C 288.61 393.78 292.80 390.10 296.27 385.74 Z" />
<path fill="#edeff1" opacity="1.00" d=" M 308.54 400.60 C 311.08 398.03 315.01 397.88 318.24 399.09 C 297.27 420.48 275.92 441.51 254.77 462.72 C 251.46 461.03 248.08 459.49 244.74 457.90 C 259.41 442.87 274.44 428.17 289.22 413.24 C 292.52 410.17 295.26 406.39 299.28 404.19 C 303.04 406.79 306.04 402.98 308.54 400.60 Z" />
<path fill="#edeff1" opacity="1.00" d=" M 262.25 460.20 C 282.23 440.32 302.07 420.29 322.13 400.49 C 325.75 401.94 329.49 403.09 333.33 403.85 C 322.09 415.77 310.22 427.09 298.73 438.78 C 288.01 449.32 277.59 460.18 266.73 470.58 C 264.17 468.39 261.41 466.47 258.51 464.78 C 259.68 463.19 260.87 461.61 262.25 460.20 Z" />
<path fill="#edeff1" opacity="1.00" d=" M 337.44 404.74 C 341.25 405.63 345.01 406.86 348.41 408.84 C 339.46 418.43 329.88 427.40 320.72 436.79 C 305.83 451.60 291.09 466.59 276.05 481.26 C 274.07 478.39 271.95 475.61 269.49 473.14 C 291.94 450.14 315.14 427.87 337.44 404.74 Z" />
<path fill="#edeff1" opacity="1.00" d=" M 290.77 471.73 C 311.03 451.67 330.93 431.25 351.36 411.37 C 352.67 413.70 353.49 416.70 352.21 419.22 C 350.35 422.57 346.82 424.53 344.73 427.70 C 343.32 430.14 343.07 433.02 342.70 435.76 C 341.11 436.81 339.53 437.89 338.18 439.24 C 325.61 452.00 312.86 464.58 300.23 477.28 C 296.67 480.94 292.78 484.31 289.70 488.42 C 287.15 488.61 284.59 488.80 282.04 488.98 C 280.84 487.58 279.65 486.18 278.52 484.74 C 281.90 479.77 286.73 476.10 290.77 471.73 Z" />
<path fill="#edeff1" opacity="1.00" d=" M 300.20 482.21 C 314.40 468.49 327.78 453.89 342.44 440.67 C 342.30 445.28 341.36 449.92 338.99 453.93 C 334.27 462.63 325.17 467.49 319.09 475.05 C 316.19 478.48 314.17 482.62 311.00 485.81 C 306.26 486.89 301.40 487.22 296.59 487.85 C 296.32 485.30 298.72 483.86 300.20 482.21 Z" />
</g>
<g id="#2182a9ff">
<path fill="#2182a9" opacity="1.00" d=" M 158.82 52.45 C 178.72 41.47 200.07 33.00 222.31 28.20 C 217.02 33.45 209.82 35.92 203.11 38.78 C 200.05 39.92 196.97 41.01 193.97 42.30 C 189.59 43.99 185.61 46.64 181.02 47.77 C 177.61 48.77 173.74 49.47 171.35 52.34 C 169.03 55.24 168.35 59.09 166.02 61.98 C 164.21 64.03 161.25 64.02 158.78 64.58 C 157.77 63.60 157.39 62.27 157.34 60.90 C 158.19 58.16 158.78 55.34 158.82 52.45 Z" />
<path fill="#2182a9" opacity="1.00" d=" M 220.63 51.61 C 222.55 49.82 225.60 49.87 227.74 51.23 C 230.89 53.21 232.59 56.67 234.22 59.87 C 228.38 60.82 222.60 62.12 216.92 63.78 C 216.91 59.54 217.26 54.65 220.63 51.61 Z" />
</g>
<g id="#0a2c48ff">
<path fill="#0a2c48" opacity="1.00" d=" M 234.22 59.87 C 248.38 57.64 262.90 57.95 276.98 60.52 C 304.28 65.62 329.59 80.16 347.95 100.97 C 368.24 123.52 379.80 153.67 379.74 184.01 C 379.91 211.05 370.91 238.01 354.59 259.56 C 337.44 282.32 312.60 299.33 284.90 306.26 C 258.27 313.19 229.40 311.01 204.09 300.24 C 178.68 289.48 157.06 270.08 143.58 246.01 C 142.75 244.52 141.94 243.03 141.17 241.51 C 140.68 240.56 140.21 239.60 139.74 238.64 C 138.05 235.04 136.50 231.37 135.13 227.63 C 134.66 226.33 134.20 225.02 133.77 223.71 C 132.55 219.96 131.50 216.15 130.62 212.31 C 130.31 210.95 130.02 209.59 129.75 208.23 C 128.89 203.78 128.35 199.27 127.90 194.75 L 127.82 194.04 C 127.38 187.35 127.37 180.62 127.92 173.94 C 128.04 172.52 128.17 171.10 128.32 169.69 C 129.03 163.71 130.16 157.79 131.67 151.96 C 132.30 149.66 132.97 147.37 133.67 145.09 C 140.84 123.32 153.96 103.51 171.45 88.67 C 173.61 86.88 175.79 85.12 178.03 83.44 C 181.00 81.10 184.55 79.48 187.08 76.62 C 189.20 75.77 191.50 75.00 193.00 73.18 C 194.26 71.02 196.98 71.91 198.88 70.86 C 204.72 68.07 210.74 65.68 216.92 63.78 C 222.60 62.12 228.38 60.82 234.22 59.87 M 199.99 109.22 L 199.70 109.13 C 193.97 113.24 188.85 118.11 184.09 123.29 L 184.20 123.61 C 176.33 131.83 170.82 142.07 166.72 152.62 C 156.07 181.38 160.97 215.31 179.64 239.68 C 188.61 251.68 200.51 261.52 214.05 267.98 C 231.85 276.56 252.45 279.18 271.83 275.26 C 293.97 270.92 314.37 258.12 327.80 239.97 C 341.80 221.27 348.35 197.17 345.67 173.96 C 343.81 156.08 336.50 138.82 325.00 125.01 C 310.85 108.09 290.57 96.06 268.65 92.92 L 268.63 92.58 C 260.42 91.45 252.09 90.98 243.85 92.07 C 228.17 94.09 212.48 99.32 199.99 109.22 Z" />
</g>
<g id="#2380a4ff">
<path fill="#2380a4" opacity="1.00" d=" M 170.96 83.39 C 172.21 83.41 173.46 83.43 174.71 83.44 C 175.54 83.44 177.20 83.44 178.03 83.44 C 175.79 85.12 173.61 86.88 171.45 88.67 C 170.95 86.95 170.79 85.17 170.96 83.39 Z" />
</g>
<g id="#469cc3ff">
<path fill="#469cc3" opacity="1.00" d=" M 199.99 109.22 C 212.48 99.32 228.17 94.09 243.85 92.07 C 247.39 97.99 252.12 103.16 258.20 106.53 C 244.84 105.82 231.33 108.42 219.32 114.33 C 217.00 115.51 214.65 116.61 212.30 117.71 C 210.31 118.91 208.41 120.24 206.62 121.70 C 206.12 118.17 206.27 114.61 206.41 111.06 C 204.26 110.48 202.12 109.87 199.99 109.22 Z" />
<path fill="#469cc3" opacity="1.00" d=" M 268.65 92.92 C 290.57 96.06 310.85 108.09 325.00 125.01 C 336.50 138.82 343.81 156.08 345.67 173.96 C 348.35 197.17 341.80 221.27 327.80 239.97 C 314.37 258.12 293.97 270.92 271.83 275.26 C 252.45 279.18 231.85 276.56 214.05 267.98 C 200.51 261.52 188.61 251.68 179.64 239.68 C 180.29 235.66 180.81 231.62 181.24 227.57 C 183.54 227.03 186.33 226.96 187.80 224.79 C 189.89 222.29 189.53 218.86 189.75 215.83 C 193.12 216.06 196.49 216.15 199.87 216.11 C 199.89 212.21 199.19 208.15 200.36 204.36 C 202.25 201.49 205.21 199.40 206.55 196.13 C 209.76 196.50 213.40 197.42 216.19 195.23 C 220.54 191.87 223.23 186.90 226.72 182.73 C 222.63 182.51 218.51 182.62 214.49 181.79 C 214.23 178.06 213.98 174.33 213.78 170.59 C 210.15 171.71 206.78 173.46 203.33 175.00 C 203.13 172.09 202.93 168.57 205.73 166.75 C 214.55 160.58 226.49 161.62 235.20 155.21 C 238.53 152.86 240.09 148.18 238.45 144.39 C 236.84 141.09 234.26 138.41 231.85 135.68 C 249.62 131.93 268.68 134.63 284.63 143.35 C 302.70 153.05 316.77 170.19 322.19 190.05 C 324.46 197.33 324.89 204.97 325.33 212.53 C 332.36 195.98 332.75 176.85 327.21 159.81 C 318.55 132.90 294.17 111.85 266.20 107.49 C 270.62 103.95 268.55 97.76 268.65 92.92 M 235.41 161.45 C 232.11 167.03 232.53 173.79 232.36 180.03 C 230.80 180.83 229.27 181.67 227.82 182.64 C 229.37 182.90 230.96 183.15 232.53 182.89 C 232.53 182.15 232.52 180.68 232.51 179.95 C 238.73 178.62 244.99 180.34 251.25 179.86 C 251.92 173.44 250.28 166.98 247.88 161.06 C 247.35 160.06 247.03 158.53 245.67 158.41 C 242.07 157.71 237.54 157.97 235.41 161.45 Z" />
<path fill="#469cc3" opacity="1.00" d=" M 166.72 152.62 C 170.82 142.07 176.33 131.83 184.20 123.61 C 185.54 126.99 186.74 131.09 184.39 134.33 C 182.48 137.62 177.11 135.81 175.66 139.55 C 173.21 145.32 174.85 152.04 171.95 157.73 C 169.74 156.56 168.16 154.61 166.72 152.62 Z" />
</g>
<g id="#afd4e8ff">
<path fill="#afd4e8" opacity="1.00" d=" M 243.85 92.07 C 252.09 90.98 260.42 91.45 268.63 92.58 L 268.65 92.92 C 268.55 97.76 270.62 103.95 266.20 107.49 C 263.57 106.95 260.90 106.53 258.20 106.53 C 252.12 103.16 247.39 97.99 243.85 92.07 Z" />
<path fill="#afd4e8" opacity="1.00" d=" M 184.09 123.29 C 188.85 118.11 193.97 113.24 199.70 109.13 L 199.99 109.22 C 202.12 109.87 204.26 110.48 206.41 111.06 C 206.27 114.61 206.12 118.17 206.62 121.70 C 195.91 130.72 186.39 141.69 181.63 155.05 C 180.62 157.70 179.76 160.41 178.98 163.14 C 177.22 168.96 176.11 175.01 176.33 181.11 C 181.06 172.00 186.52 163.10 193.89 155.87 C 204.31 146.00 217.32 138.51 231.49 135.75 L 231.85 135.68 C 234.26 138.41 236.84 141.09 238.45 144.39 C 240.09 148.18 238.53 152.86 235.20 155.21 C 226.49 161.62 214.55 160.58 205.73 166.75 C 202.93 168.57 203.13 172.09 203.33 175.00 C 206.78 173.46 210.15 171.71 213.78 170.59 C 213.98 174.33 214.23 178.06 214.49 181.79 C 218.51 182.62 222.63 182.51 226.72 182.73 C 223.23 186.90 220.54 191.87 216.19 195.23 C 213.40 197.42 209.76 196.50 206.55 196.13 C 205.21 199.40 202.25 201.49 200.36 204.36 C 199.19 208.15 199.89 212.21 199.87 216.11 C 196.49 216.15 193.12 216.06 189.75 215.83 C 189.53 218.86 189.89 222.29 187.80 224.79 C 186.33 226.96 183.54 227.03 181.24 227.57 C 180.81 231.62 180.29 235.66 179.64 239.68 C 160.97 215.31 156.07 181.38 166.72 152.62 C 168.16 154.61 169.74 156.56 171.95 157.73 C 174.85 152.04 173.21 145.32 175.66 139.55 C 177.11 135.81 182.48 137.62 184.39 134.33 C 186.74 131.09 185.54 126.99 184.20 123.61 L 184.09 123.29 Z" />
<path fill="#afd4e8" opacity="1.00" d=" M 235.41 161.45 C 237.54 157.97 242.07 157.71 245.67 158.41 C 247.03 158.53 247.35 160.06 247.88 161.06 C 250.28 166.98 251.92 173.44 251.25 179.86 C 244.99 180.34 238.73 178.62 232.51 179.95 C 232.52 180.68 232.53 182.15 232.53 182.89 C 230.96 183.15 229.37 182.90 227.82 182.64 C 229.27 181.67 230.80 180.83 232.36 180.03 C 232.53 173.79 232.11 167.03 235.41 161.45 Z" />
</g>
<g id="#cbe3eeff">
<path fill="#cbe3ee" opacity="1.00" d=" M 258.20 106.53 C 260.90 106.53 263.57 106.95 266.20 107.49 C 294.17 111.85 318.55 132.90 327.21 159.81 C 332.75 176.85 332.36 195.98 325.33 212.53 C 324.89 204.97 324.46 197.33 322.19 190.05 C 316.77 170.19 302.70 153.05 284.63 143.35 C 268.68 134.63 249.62 131.93 231.85 135.68 L 231.49 135.75 C 227.83 131.22 223.12 127.71 219.03 123.59 C 218.14 122.48 217.34 121.31 216.50 120.17 C 215.65 118.56 213.96 118.03 212.30 117.71 C 214.65 116.61 217.00 115.51 219.32 114.33 C 231.33 108.42 244.84 105.82 258.20 106.53 Z" />
</g>
<g id="#e8f3f9ff">
<path fill="#e8f3f9" opacity="1.00" d=" M 206.62 121.70 C 208.41 120.24 210.31 118.91 212.30 117.71 C 213.96 118.03 215.65 118.56 216.50 120.17 C 215.09 122.16 213.57 124.09 211.81 125.78 C 203.22 134.22 194.70 142.72 186.27 151.31 C 184.88 152.74 183.28 153.94 181.63 155.05 C 186.39 141.69 195.91 130.72 206.62 121.70 Z" />
<path fill="#e8f3f9" opacity="1.00" d=" M 189.26 153.22 C 199.19 143.35 209.02 133.37 219.03 123.59 C 223.12 127.71 227.83 131.22 231.49 135.75 C 217.32 138.51 204.31 146.00 193.89 155.87 C 186.52 163.10 181.06 172.00 176.33 181.11 C 176.11 175.01 177.22 168.96 178.98 163.14 C 182.69 160.14 185.91 156.60 189.26 153.22 Z" />
</g>
<g id="#dee8eeff">
<path fill="#dee8ee" opacity="1.00" d=" M 216.50 120.17 C 217.34 121.31 218.14 122.48 219.03 123.59 C 209.02 133.37 199.19 143.35 189.26 153.22 C 185.91 156.60 182.69 160.14 178.98 163.14 C 179.76 160.41 180.62 157.70 181.63 155.05 C 183.28 153.94 184.88 152.74 186.27 151.31 C 194.70 142.72 203.22 134.22 211.81 125.78 C 213.57 124.09 215.09 122.16 216.50 120.17 Z" />
</g>
<g id="#bf4028ff">
<path fill="#bf4028" opacity="1.00" d=" M 143.58 246.01 C 157.06 270.08 178.68 289.48 204.09 300.24 C 198.70 305.19 194.22 311.74 186.97 314.10 C 180.84 316.29 173.97 315.22 168.37 312.09 C 160.68 305.98 154.32 298.40 147.16 291.71 C 143.22 287.19 138.18 283.65 134.89 278.58 C 133.55 276.12 132.66 273.45 131.94 270.76 L 131.77 270.13 C 131.47 265.89 131.89 261.51 133.79 257.67 C 135.93 252.95 140.09 249.68 143.58 246.01 Z" />
</g>
<g id="#e55336ff">
<path fill="#e55336" opacity="1.00" d=" M 121.88 288.46 C 126.38 285.39 130.50 281.81 134.89 278.58 C 138.18 283.65 143.22 287.19 147.16 291.71 C 154.32 298.40 160.68 305.98 168.37 312.09 C 163.29 318.82 158.02 325.39 152.91 332.09 C 147.88 338.51 142.88 344.95 137.88 351.39 C 123.58 369.77 109.27 388.14 94.98 406.53 C 89.65 413.33 84.40 420.20 79.03 426.98 C 71.34 436.52 59.19 442.23 46.93 442.02 C 33.12 442.03 19.64 434.60 12.12 423.05 C 3.10 409.51 3.15 390.69 12.16 377.16 C 14.75 373.17 18.08 369.70 21.85 366.82 C 33.11 358.04 44.34 349.23 55.61 340.47 C 65.54 332.68 75.50 324.93 85.43 317.15 C 88.14 315.04 90.92 313.02 93.51 310.76 C 102.83 303.50 112.30 296.41 121.38 288.85 C 121.51 288.75 121.76 288.56 121.88 288.46 Z" />
</g>
<g id="#8cacbcff">
<path fill="#8cacbc" opacity="1.00" d=" M 121.57 288.59 L 121.88 288.46 C 121.76 288.56 121.51 288.75 121.38 288.85 L 121.57 288.59 Z" />
</g>
</svg>
