<?xml version="1.0" encoding="UTF-8" ?>
<!DOCTYPE svg PUBLIC "-//W3C//DTD SVG 1.1//EN" "http://www.w3.org/Graphics/SVG/1.1/DTD/svg11.dtd">
<svg width="200pt" height="200pt" viewBox="0 0 200 200" version="1.1" xmlns="http://www.w3.org/2000/svg">
<g id="#000000ff">
<path fill="#000000" opacity="1.00" d=" M 155.53 10.76 C 168.18 7.30 182.54 14.30 187.61 26.38 C 192.86 37.64 189.09 51.79 179.58 59.56 C 150.93 88.25 122.10 116.78 93.64 145.64 C 77.43 150.83 61.15 155.95 44.92 161.12 C 42.42 162.27 39.18 160.71 38.58 158.02 C 38.09 156.33 39.00 154.70 39.41 153.11 C 44.41 137.55 49.28 121.92 54.27 106.37 C 82.97 78.04 111.34 49.36 139.90 20.88 C 143.95 16.07 149.37 12.29 155.53 10.76 M 153.06 21.44 C 161.39 30.05 169.93 38.46 178.44 46.88 C 182.43 39.59 181.20 29.77 174.93 24.15 C 169.16 18.68 160.04 17.90 153.06 21.44 M 64.92 108.95 C 73.60 117.66 82.29 126.36 91.00 135.04 C 118.01 108.06 145.00 81.06 171.98 54.07 C 163.30 45.36 154.60 36.66 145.89 27.97 C 118.89 54.96 91.89 81.94 64.92 108.95 M 60.26 117.84 C 57.00 128.52 53.52 139.13 50.18 149.78 C 60.83 146.45 71.43 142.94 82.10 139.71 C 74.87 132.37 67.56 125.11 60.26 117.84 Z" />
<path fill="#000000" opacity="1.00" d=" M 24.26 28.35 C 25.82 28.08 27.42 28.07 29.00 28.06 C 56.03 28.10 83.05 28.04 110.07 28.09 C 112.30 28.00 114.40 29.84 114.64 32.06 C 115.11 34.75 112.69 37.48 109.96 37.28 C 82.30 37.35 54.63 37.24 26.97 37.33 C 22.56 37.36 18.85 41.57 19.21 45.94 C 19.22 88.32 19.16 130.70 19.24 173.07 C 19.26 177.54 23.55 181.20 27.95 180.83 C 69.96 180.83 111.98 180.83 153.99 180.83 C 158.39 181.20 162.65 177.53 162.70 173.08 C 162.80 145.40 162.68 117.71 162.75 90.03 C 162.56 87.34 165.21 85.02 167.83 85.39 C 170.09 85.58 172.03 87.68 171.93 89.96 C 171.97 117.68 171.98 145.40 171.93 173.12 C 171.94 182.07 163.98 190.02 155.03 190.02 C 112.34 190.06 69.63 190.06 26.94 190.02 C 17.95 190.05 9.95 182.04 10.00 173.05 C 9.98 130.36 9.96 87.66 10.01 44.97 C 10.03 36.97 16.38 29.64 24.26 28.35 Z" />
</g>
</svg>
