<?xml version="1.0" encoding="utf-8"?>
<!-- Generator: Adobe Illustrator 16.0.0, SVG Export Plug-In . SVG Version: 6.00 Build 0)  -->
<!DOCTYPE svg PUBLIC "-//W3C//DTD SVG 1.1//EN" "http://www.w3.org/Graphics/SVG/1.1/DTD/svg11.dtd">
<svg version="1.1" id="Слой_1" xmlns="http://www.w3.org/2000/svg" xmlns:xlink="http://www.w3.org/1999/xlink" x="0px" y="0px"
	 width="96.987px" height="97.02px" viewBox="-0.143 1.329 96.987 97.02" xml:space="preserve">
<g id="Слой_1_1_">
	<path opacity="0.4" fill="none" stroke="#898989" stroke-width="2" stroke-miterlimit="10" enable-background="new    " d="
		M95.844,49.839c0.01,26.229-21.245,47.5-47.478,47.51c-26.229,0.01-47.5-21.245-47.51-47.475c0-0.015,0-0.023,0-0.035
		c-0.01-26.229,21.245-47.5,47.475-47.51c26.229-0.013,47.5,21.245,47.513,47.475C95.844,49.815,95.844,49.827,95.844,49.839z"/>
	
		<radialGradient id="SVGID_1_" cx="-358.8713" cy="1296.1819" r="27.3564" gradientTransform="matrix(1.7364 0 0 1.7364 671.4968 -2200.8499)" gradientUnits="userSpaceOnUse">
		<stop  offset="0" style="stop-color:#7CB95E"/>
		<stop  offset="0.3764" style="stop-color:#52AC62"/>
		<stop  offset="1" style="stop-color:#004819"/>
	</radialGradient>
	<path fill="url(#SVGID_1_)" d="M95.844,49.839c0.01,26.229-21.245,47.5-47.478,47.51c-26.229,0.01-47.5-21.245-47.51-47.475
		c0-0.015,0-0.023,0-0.035c-0.01-26.229,21.245-47.5,47.475-47.51c26.229-0.013,47.5,21.245,47.513,47.475
		C95.844,49.815,95.844,49.827,95.844,49.839z"/>
	
		<radialGradient id="SVGID_2_" cx="-363.5085" cy="1295.6262" r="42.1083" fx="-361.3493" fy="1309.6617" gradientTransform="matrix(1.7363 -0.0103 0.0103 1.7363 665.1782 -2207.3262)" gradientUnits="userSpaceOnUse">
		<stop  offset="0" style="stop-color:#000000;stop-opacity:0"/>
		<stop  offset="0.3854" style="stop-color:#5D7000;stop-opacity:0"/>
		<stop  offset="1" style="stop-color:#003700;stop-opacity:0.8"/>
	</radialGradient>
	<path fill="url(#SVGID_2_)" d="M96.124,49.486c0.164,26.229-20.965,47.625-47.19,47.79C22.702,97.441,1.306,76.312,1.141,50.083
		c0.001-0.011,0-0.023,0-0.035C0.975,23.819,22.104,2.423,48.332,2.258c26.229-0.165,47.626,20.963,47.791,47.193
		C96.122,49.462,96.123,49.473,96.124,49.486z"/>
</g>
<g id="Слой_4">
	
		<linearGradient id="SVGID_3_" gradientUnits="userSpaceOnUse" x1="23.5652" y1="50.6057" x2="56.325" y2="-6.1359" gradientTransform="matrix(1 0 0 -1 8.3398 73.0601)">
		<stop  offset="0" style="stop-color:#949494"/>
		<stop  offset="1" style="stop-color:#333333"/>
	</linearGradient>
	<path opacity="0.8" fill="url(#SVGID_3_)" enable-background="new    " d="M48.287,83.142c-14.889,0-24.575-8.036-24.678-20.473
		l1-1.008h13.473l0.998,0.936c0.369,5.668,3.479,8.424,9.506,8.424c5.447,0,9.4-3.373,9.4-8.021c0-3.916-2.628-6.969-6.857-7.967
		c-2.245-0.479-3.037-0.563-7.895-0.563l-1-1l0.003-7.929l1-1h1.188c7.594,0,11.284-2.625,11.284-8.024
		c0-4.413-2.741-6.844-7.719-6.844c-3.645,0-6.495,1.368-7.624,3.659c-0.632,1.386-0.894,2.939-0.988,5.915l-1,0.968H25.499l-1-1
		v-1.012c0-5.642,1.418-9.893,4.334-12.998c4.112-4.549,11.026-7.063,19.454-7.063c14.148,0,23.291,6.782,23.291,17.277
		c0,5.398-2.413,9.257-7.994,12.628c7.087,3.413,10.273,8.085,10.273,14.95C73.857,75.235,63.82,83.142,48.287,83.142z
		 M25.64,63.661c0.585,10.813,9.166,17.479,22.646,17.479c14.318,0,23.57-7.122,23.57-18.145c0-6.596-3.253-10.76-10.875-13.922
		l-0.084-1.809c6.165-3.258,8.68-6.69,8.68-11.848c0-9.281-8.356-15.277-21.291-15.277c-7.854,0-14.242,2.279-17.982,6.417
		c-2.564,2.731-3.806,6.535-3.806,11.644v0.012h10.92c0.133-2.666,0.453-4.232,1.143-5.741c1.485-3.016,5.006-4.801,9.43-4.801
		c6.086,0,9.719,3.306,9.719,8.844c0,4.573-2.305,10.024-13.284,10.024h-0.188l-0.002,5.93c3.95,0.013,4.992,0.113,7.332,0.61
		c5.123,1.209,8.42,5.101,8.42,9.919c0,5.807-4.795,10.021-11.4,10.021c-6.751,0-10.68-3.23-11.416-9.358L25.64,63.661L25.64,63.661
		z"/>
	
		<linearGradient id="SVGID_4_" gradientUnits="userSpaceOnUse" x1="18.2053" y1="44.1833" x2="62.1516" y2="0.2371" gradientTransform="matrix(1 0 0 -1 8.3398 73.0601)">
		<stop  offset="0" style="stop-color:#FFFFFF"/>
		<stop  offset="1" style="stop-color:#C2C2C2"/>
	</linearGradient>
	<path fill="url(#SVGID_4_)" d="M43.234,53.469c4.854,0,5.746,0.084,8.124,0.59c4.656,1.1,7.628,4.558,7.628,8.94
		c0,5.229-4.356,9.021-10.4,9.021c-6.54,0-10.104-3.205-10.504-9.358H24.609c0.099,11.976,9.313,19.479,23.678,19.479
		c14.961,0,24.57-7.506,24.57-19.145c0-7-3.566-11.558-11.492-14.847c6.539-3.456,9.213-7.252,9.213-12.731
		c0-9.952-8.717-16.277-22.291-16.277c-8.021,0-14.761,2.362-18.725,6.747c-2.772,2.952-4.063,7-4.063,12.313v1.012H38.38
		c0.103-3.205,0.397-4.807,1.092-6.325c1.287-2.614,4.459-4.217,8.521-4.217c5.549,0,8.719,2.868,8.719,7.844
		c0,5.988-4.063,9.024-12.284,9.024h-1.188L43.234,53.469"/>
</g>
<linearGradient id="path5492_1_" gradientUnits="userSpaceOnUse" x1="-995.1799" y1="-4.3909" x2="-994.8398" y2="-3.6619" gradientTransform="matrix(142.796 0 0 66.6088 142132.1875 306.5745)">
	<stop  offset="0" style="stop-color:#FFFFFF"/>
	<stop  offset="0.6285" style="stop-color:#FFFFFF;stop-opacity:0"/>
</linearGradient>
<path id="path5492" opacity="0.8" fill="url(#path5492_1_)" enable-background="new    " d="M91.318,42.302
	c0,21.366-10.696-14.363-44.188-6.085C23.903,41.956,5.385,63.668,5.385,42.302S24.635,3.596,48.351,3.596
	C72.069,3.596,91.318,20.936,91.318,42.302z"/>
</svg>
