<?xml version="1.0" encoding="utf-8"?>
<!-- Generator: Adobe Illustrator 18.0.0, SVG Export Plug-In . SVG Version: 6.00 Build 0)  -->
<!DOCTYPE svg PUBLIC "-//W3C//DTD SVG 1.1//EN" "http://www.w3.org/Graphics/SVG/1.1/DTD/svg11.dtd">
<svg version="1.1" xmlns="http://www.w3.org/2000/svg" xmlns:xlink="http://www.w3.org/1999/xlink" x="0px" y="0px" width="120px"
	 height="120px" viewBox="0 0 120 120" enable-background="new 0 0 120 120" xml:space="preserve">
<g id="Layer_2" display="none">
	<circle display="inline" opacity="0.5" fill="#DF1F26" cx="60" cy="60" r="60"/>
	<rect x="6.5" y="6.5" display="inline" opacity="0.5" fill="#3B4FA1" width="107" height="107"/>
</g>
<g id="normal">
	<path fill="#FFFFFF" d="M60,75.155c-9.009,0-16.314-7.158-16.314-15.983V22.568C43.686,13.74,50.99,6.586,60,6.586
		c9.01,0,16.311,7.154,16.311,15.983v36.604C76.311,67.997,69.01,75.155,60,75.155L60,75.155z M94.858,60.04
		c0,0.102,0,0.196,0,0.279c0,18.438-15.59,33.383-34.824,33.383c-19.158,0-34.699-14.836-34.812-33.179
		c-0.075-0.343-0.113-0.701-0.113-1.067c0-2.832,2.297-5.129,5.129-5.129c2.753,0,4.993,2.172,5.117,4.895
		c0.023,0.004,0.034,0.008,0.034,0.011c0-0.4,0-0.762,0-0.762c0,13.976,11.035,25.305,24.645,25.305
		c13.373,0,24.253-10.16,24.63-23.77c-0.019-0.181-0.03-0.366-0.03-0.551c0-2.832,2.297-5.129,5.129-5.129
		c2.832,0,5.129,2.297,5.129,5.129C94.892,59.651,94.877,59.847,94.858,60.04L94.858,60.04z M73.441,113.414H46.544
		c-2.704,0-4.899-2.195-4.899-4.899c0-2.704,2.195-4.895,4.899-4.895h26.897c2.708,0,4.899,2.191,4.899,4.895
		C78.34,111.219,76.148,113.414,73.441,113.414L73.441,113.414z M54.833,104.94V92.039h10.329v12.901H54.833L54.833,104.94z"/>
</g>
<g id="active">
	<path fill="#FFFFFF" d="M60,75.155c-9.009,0-16.314-7.158-16.314-15.983V22.568C43.686,13.74,50.99,6.586,60,6.586
		c9.01,0,16.311,7.154,16.311,15.983v36.604C76.311,67.997,69.01,75.155,60,75.155L60,75.155z M94.858,60.04
		c0,0.102,0,0.196,0,0.279c0,18.438-15.59,33.383-34.824,33.383c-19.158,0-34.699-14.836-34.812-33.179
		c-0.075-0.343-0.113-0.701-0.113-1.067c0-2.832,2.297-5.129,5.129-5.129c2.753,0,4.993,2.172,5.117,4.895
		c0.023,0.004,0.034,0.008,0.034,0.011c0-0.4,0-0.762,0-0.762c0,13.976,11.035,25.305,24.645,25.305
		c13.373,0,24.253-10.16,24.63-23.77c-0.019-0.181-0.03-0.366-0.03-0.551c0-2.832,2.297-5.129,5.129-5.129
		c2.832,0,5.129,2.297,5.129,5.129C94.892,59.651,94.877,59.847,94.858,60.04L94.858,60.04z M73.441,113.414H46.544
		c-2.704,0-4.899-2.195-4.899-4.899c0-2.704,2.195-4.895,4.899-4.895h26.897c2.708,0,4.899,2.191,4.899,4.895
		C78.34,111.219,76.148,113.414,73.441,113.414L73.441,113.414z M54.833,104.94V92.039h10.329v12.901H54.833L54.833,104.94z"/>
</g>
<g id="disabled" opacity="0.2">
	<path fill="#FFFFFF" d="M60,75.155c-9.009,0-16.314-7.158-16.314-15.983V22.568C43.686,13.74,50.99,6.586,60,6.586
		c9.01,0,16.311,7.154,16.311,15.983v36.604C76.311,67.997,69.01,75.155,60,75.155L60,75.155z M94.858,60.04
		c0,0.102,0,0.196,0,0.279c0,18.438-15.59,33.383-34.824,33.383c-19.158,0-34.699-14.836-34.812-33.179
		c-0.075-0.343-0.113-0.701-0.113-1.067c0-2.832,2.297-5.129,5.129-5.129c2.753,0,4.993,2.172,5.117,4.895
		c0.023,0.004,0.034,0.008,0.034,0.011c0-0.4,0-0.762,0-0.762c0,13.976,11.035,25.305,24.645,25.305
		c13.373,0,24.253-10.16,24.63-23.77c-0.019-0.181-0.03-0.366-0.03-0.551c0-2.832,2.297-5.129,5.129-5.129
		c2.832,0,5.129,2.297,5.129,5.129C94.892,59.651,94.877,59.847,94.858,60.04L94.858,60.04z M73.441,113.414H46.544
		c-2.704,0-4.899-2.195-4.899-4.899c0-2.704,2.195-4.895,4.899-4.895h26.897c2.708,0,4.899,2.191,4.899,4.895
		C78.34,111.219,76.148,113.414,73.441,113.414L73.441,113.414z M54.833,104.94V92.039h10.329v12.901H54.833L54.833,104.94z"/>
</g>
</svg>
