<?xml version="1.0" encoding="utf-8"?>
<!-- Generator: Adobe Illustrator 16.0.2, SVG Export Plug-In . SVG Version: 6.00 Build 0)  -->
<!DOCTYPE svg PUBLIC "-//W3C//DTD SVG 1.1//EN" "http://www.w3.org/Graphics/SVG/1.1/DTD/svg11.dtd">
<svg version="1.1" id="layer" xmlns="http://www.w3.org/2000/svg" xmlns:xlink="http://www.w3.org/1999/xlink" x="0px" y="0px"
	 width="110px" height="110px" viewBox="0 0 110 110" xml:space="preserve">
<g id="normal">
	<path fill="#9C2021" d="M92.094,1H17.903C8.567,1,1,8.985,1,18.835v72.33C1,101.016,8.567,109,17.903,109h74.191
		c9.34,0,16.906-7.984,16.906-17.835v-72.33C109,8.985,101.434,1,92.094,1z M106.186,91.002c0,8.298-6.381,15.025-14.244,15.025
		H18.06c-7.864,0-14.241-6.729-14.241-15.025V18.999c0-8.298,6.376-15.026,14.241-15.026h73.881c7.863,0,14.244,6.728,14.244,15.026
		V91.002L106.186,91.002z"/>
	<path fill="#000000" stroke="#C42C33" stroke-miterlimit="10" d="M91.941,3.973H18.06c-7.865,0-14.241,6.728-14.241,15.026v72.003
		c0,8.296,6.377,15.025,14.241,15.025h73.881c7.863,0,14.244-6.729,14.244-15.025V18.999C106.186,10.701,99.805,3.973,91.941,3.973z
		"/>
</g>
<g id="active">
	<path fill="#9C2021" d="M92.094,1H17.903C8.567,1,1,8.985,1,18.835v72.33C1,101.016,8.567,109,17.903,109h74.191
		c9.34,0,16.906-7.984,16.906-17.835v-72.33C109,8.985,101.434,1,92.094,1z M106.186,91.002c0,8.298-6.381,15.025-14.244,15.025
		H18.06c-7.864,0-14.241-6.729-14.241-15.025V18.999c0-8.298,6.376-15.026,14.241-15.026h73.881c7.863,0,14.244,6.728,14.244,15.026
		V91.002L106.186,91.002z"/>
	<path fill="#9C2021" stroke="#C42C33" stroke-miterlimit="10" d="M91.941,3.973H18.06c-7.865,0-14.241,6.728-14.241,15.026v72.003
		c0,8.296,6.377,15.025,14.241,15.025h73.881c7.863,0,14.244-6.729,14.244-15.025V18.999C106.186,10.701,99.805,3.973,91.941,3.973z
		"/>
</g>
</svg>
