<?xml version="1.0" encoding="utf-8"?>
<!-- Generator: Adobe Illustrator 16.0.2, SVG Export Plug-In . SVG Version: 6.00 Build 0)  -->
<!DOCTYPE svg PUBLIC "-//W3C//DTD SVG 1.1//EN" "http://www.w3.org/Graphics/SVG/1.1/DTD/svg11.dtd">
<svg version="1.1" id="layer" xmlns="http://www.w3.org/2000/svg" xmlns:xlink="http://www.w3.org/1999/xlink" x="0px" y="0px"
	 width="110px" height="110px" viewBox="0 0 110 110" xml:space="preserve">
<g id="normal">
	
		<linearGradient id="SVGID_2_" gradientUnits="userSpaceOnUse" x1="4.6011" y1="2299.2773" x2="4.6011" y2="2191.2773" gradientTransform="matrix(1 0 0 1 50.3994 -2190.2773)">
		<stop  offset="0" style="stop-color:#E1DEDB"/>
		<stop  offset="0" style="stop-color:#D8D4D1"/>
		<stop  offset="0.0369" style="stop-color:#C9C6C3"/>
		<stop  offset="0.1078" style="stop-color:#A2A19E"/>
		<stop  offset="0.2045" style="stop-color:#646563"/>
		<stop  offset="0.264" style="stop-color:#3A3D3B"/>
		<stop  offset="0.2751" style="stop-color:#414442"/>
		<stop  offset="0.3799" style="stop-color:#838584"/>
		<stop  offset="0.468" style="stop-color:#B3B4B4"/>
		<stop  offset="0.535" style="stop-color:#D1D1D2"/>
		<stop  offset="0.573" style="stop-color:#DCDCDD"/>
		<stop  offset="0.6269" style="stop-color:#D2D2D4"/>
		<stop  offset="0.7175" style="stop-color:#B8B9BB"/>
		<stop  offset="0.8332" style="stop-color:#8E8F93"/>
		<stop  offset="0.8764" style="stop-color:#7C7E82"/>
		<stop  offset="1" style="stop-color:#C9C8C8"/>
		<stop  offset="1" style="stop-color:#979695"/>
	</linearGradient>
	<path fill="url(#SVGID_2_)" d="M92.094,1H17.903C8.567,1,1,8.985,1,18.835v72.33C1,101.016,8.567,109,17.903,109h74.191
		c9.34,0,16.906-7.984,16.906-17.835v-72.33C109,8.985,101.434,1,92.094,1z M106.186,91.002c0,8.298-6.381,15.025-14.244,15.025
		H18.06c-7.864,0-14.241-6.729-14.241-15.025V18.999c0-8.298,6.376-15.026,14.241-15.026h73.881c7.863,0,14.244,6.728,14.244,15.026
		V91.002L106.186,91.002z"/>
	<path fill="#888888" stroke="#6B6966" stroke-miterlimit="10" d="M91.941,3.973H18.06c-7.865,0-14.241,6.728-14.241,15.026v72.003
		c0,8.296,6.377,15.025,14.241,15.025h73.881c7.863,0,14.244-6.729,14.244-15.025V18.999C106.186,10.701,99.805,3.973,91.941,3.973z
		"/>
</g>
<g id="active">
	
		<linearGradient id="SVGID_2_" gradientUnits="userSpaceOnUse" x1="4.6011" y1="2299.2773" x2="4.6011" y2="2191.2773" gradientTransform="matrix(1 0 0 1 50.3994 -2190.2773)">
		<stop  offset="0" style="stop-color:#E1DEDB"/>
		<stop  offset="0" style="stop-color:#D8D4D1"/>
		<stop  offset="0.0369" style="stop-color:#C9C6C3"/>
		<stop  offset="0.1078" style="stop-color:#A2A19E"/>
		<stop  offset="0.2045" style="stop-color:#646563"/>
		<stop  offset="0.264" style="stop-color:#3A3D3B"/>
		<stop  offset="0.2751" style="stop-color:#414442"/>
		<stop  offset="0.3799" style="stop-color:#838584"/>
		<stop  offset="0.468" style="stop-color:#B3B4B4"/>
		<stop  offset="0.535" style="stop-color:#D1D1D2"/>
		<stop  offset="0.573" style="stop-color:#DCDCDD"/>
		<stop  offset="0.6269" style="stop-color:#D2D2D4"/>
		<stop  offset="0.7175" style="stop-color:#B8B9BB"/>
		<stop  offset="0.8332" style="stop-color:#8E8F93"/>
		<stop  offset="0.8764" style="stop-color:#7C7E82"/>
		<stop  offset="1" style="stop-color:#C9C8C8"/>
		<stop  offset="1" style="stop-color:#979695"/>
	</linearGradient>
	<path fill="url(#SVGID_2_)" d="M92.094,1H17.903C8.567,1,1,8.985,1,18.835v72.33C1,101.016,8.567,109,17.903,109h74.191
		c9.34,0,16.906-7.984,16.906-17.835v-72.33C109,8.985,101.434,1,92.094,1z M106.186,91.002c0,8.298-6.381,15.025-14.244,15.025
		H18.06c-7.864,0-14.241-6.729-14.241-15.025V18.999c0-8.298,6.376-15.026,14.241-15.026h73.881c7.863,0,14.244,6.728,14.244,15.026
		V91.002L106.186,91.002z"/>
	<path fill="#444444" stroke="#6B6966" stroke-miterlimit="10" d="M91.941,3.973H18.06c-7.865,0-14.241,6.728-14.241,15.026v72.003
		c0,8.296,6.377,15.025,14.241,15.025h73.881c7.863,0,14.244-6.729,14.244-15.025V18.999C106.186,10.701,99.805,3.973,91.941,3.973z
		"/>
</g>
</svg>
