<?xml version="1.0" encoding="utf-8"?>
<!-- Generator: Adobe Illustrator 16.0.2, SVG Export Plug-In . SVG Version: 6.00 Build 0)  -->
<!DOCTYPE svg PUBLIC "-//W3C//DTD SVG 1.1//EN" "http://www.w3.org/Graphics/SVG/1.1/DTD/svg11.dtd">
<svg version="1.1" id="Layer_1" xmlns="http://www.w3.org/2000/svg" xmlns:xlink="http://www.w3.org/1999/xlink" x="0px" y="0px"
	 width="120px" height="120px" viewBox="0 0 120 120" enable-background="new 0 0 120 120" xml:space="preserve">
<g id="black_white">
	<g>
		<path fill="#3A3A3A" d="M108.005,24.47v2c-15.103,0-42,0-42,0c-4.412,0-8.001-3.589-8.001-8.001c0,0,0-1.54,0-2.969h2v2.969
			c0,3.314,2.688,6.001,6.001,6.001H108.005z M15.005,73.471c3.313,0,5.999,2.684,5.999,5.998V104.5h2c0-3.432,0-25.031,0-25.031
			c0-4.41-3.588-8-7.999-8c0,0-1.266,0-3.01,0v2.002H15.005z M21.004,18.469c0,3.314-2.687,6.001-5.999,6.001h-3.01v2
			c1.744,0,3.01,0,3.01,0c4.411,0,7.999-3.589,7.999-8.001c0,0,0-1.54,0-2.969h-2V18.469z M57.995,57.466h20.967
			c0-1.281,0-2.813,0-3.999H57.995c-1.102,0-2,0.896-2,2C55.995,56.569,56.892,57.466,57.995,57.466z M89.076,53.467
			c1.756,1.309,3.654,2.726,5.361,3.999h13.543v-3.999H89.076z M78.962,71.469c-7.437,0-12.957,0-12.957,0
			c-4.412,0-8.001,3.59-8.001,8c0,0,0,21.602,0,25.031h2V79.469c0-3.313,2.688-5.998,6.001-5.998h12.957
			C78.962,72.813,78.962,72.12,78.962,71.469z M94.223,71.469c-0.893,0.658-1.811,1.336-2.714,2.002h16.496v-2.002
			C104,71.469,99.165,71.469,94.223,71.469z"/>
		<path fill="#3A3A3A" d="M99.498,63.59L82.715,51.012c-0.791-0.593-1.92-0.028-1.92,0.96v8.481H59.041h-0.183l-0.114,0.011
			l-0.365,0.034l-0.293,0.035l-0.554,0.078c-0.36,0.057-0.714,0.121-1.065,0.191c-0.701,0.141-1.39,0.313-2.075,0.51
			c-1.371,0.396-2.723,0.92-4.047,1.586c-1.323,0.664-2.61,1.506-3.8,2.531c-1.188,1.022-2.27,2.25-3.129,3.633
			c-0.863,1.383-1.493,2.908-1.875,4.444c-0.113,0.386-0.171,0.769-0.247,1.154c-0.035,0.192-0.075,0.386-0.103,0.575l-0.065,0.574
			c-0.04,0.381-0.09,0.768-0.095,1.141l-0.019,0.564l-0.01,0.282c-0.003,0.093-0.006,0.193-0.005,0.261v7.203v13.275h8.049V85.262
			v-7.201l0.023-0.69c-0.002-0.228,0.034-0.437,0.055-0.653l0.034-0.322c0.014-0.104,0.04-0.203,0.058-0.307
			c0.043-0.204,0.064-0.417,0.128-0.607c0.197-0.791,0.498-1.508,0.906-2.162c0.409-0.655,0.929-1.254,1.557-1.799
			c0.629-0.539,1.358-1.031,2.183-1.441c0.82-0.412,1.712-0.766,2.65-1.034c0.466-0.138,0.943-0.255,1.419-0.351
			c0.237-0.047,0.474-0.09,0.707-0.127l0.336-0.047l0.154-0.019h21.542v8.627c0,0.989,1.129,1.554,1.92,0.96l16.78-12.578
			C100.139,65.029,100.139,64.07,99.498,63.59z"/>
	</g>
</g>
<g id="blue">
	<path fill="#7B7B7B" d="M66.01,73.471c-3.314,0-6.001,2.686-6.001,6v25.03h-39v-25.03c0-3.314-2.687-6-5.999-6H12v-49h3.01
		c3.313,0,5.999-2.687,5.999-6.001v-2.969h39v2.969c0,3.314,2.687,6.001,6.001,6.001h42v49H66.01z"/>
	
		<radialGradient id="SVGID_1_" cx="297.5996" cy="-299.9014" r="46.2821" gradientTransform="matrix(1 0 0 -1 -237.5996 -239.9004)" gradientUnits="userSpaceOnUse">
		<stop  offset="0.14" style="stop-color:#AEAEAE"/>
		<stop  offset="0.96" style="stop-color:#CBCBCB"/>
	</radialGradient>
	<path fill="url(#SVGID_1_)" d="M23.009,104.501c0-3.431,0-25.03,0-25.03c0-4.412-3.588-8-7.999-8c0,0-1.566,0-3.009,0
		c0-3.523,0-41.476,0-45c1.443,0,3.009,0,3.009,0c4.411,0,7.999-3.589,7.999-8.001c0,0,0-1.54,0-2.969c3.407,0,31.594,0,35,0
		c0,1.429,0,2.969,0,2.969c0,4.412,3.589,8.001,8.001,8.001c0,0,41.967,0,41.988,0c0,4.076,0,40.923,0,45
		c-0.021,0-41.988,0-41.988,0c-4.412,0-8.001,3.588-8.001,8c0,0,0,21.6,0,25.03C54.603,104.501,26.416,104.501,23.009,104.501"/>
	<path fill="#4E4E4E" d="M58,57.467c-1.103,0-2-0.896-2-1.999s0.897-2,2-2h49.986v3.999H58"/>
	<path fill="#FFFFFF" d="M107.986,56.467H58c-0.552,0-1-0.447-1-1c0-0.553,0.447-1,1-1h49.986V56.467L107.986,56.467z"/>
	<path fill-opacity="0.1" d="M43.001,102.539c-1.105,0-2-0.895-2-2V87.264v-7.203v-0.039l0.006-0.307c0-0.002,0-0.002,0-0.002
		s0,0.016,0,0.018l0.01-0.28l0.019-0.563l-0.001,0.041c0.006-0.404,0.048-0.791,0.085-1.134l0.021-0.188
		c0-0.006,0.001-0.015,0.001-0.02l0.066-0.572c0.005-0.039,0.001-0.019,0.008-0.058l0.088-0.511l0.027-0.143l0.003-0.023l0.048-0.25
		c0.056-0.307,0.12-0.653,0.226-1.025c0.442-1.763,1.172-3.49,2.116-5c0.938-1.509,2.124-2.886,3.52-4.089
		c1.276-1.101,2.694-2.043,4.209-2.804c1.409-0.709,2.887-1.286,4.391-1.719c0.761-0.222,1.494-0.4,2.234-0.551
		c0.399-0.08,0.775-0.146,1.152-0.205c0.009-0.002,0.018-0.004,0.027-0.004l0.554-0.078c0.015-0.004,0.027-0.006,0.042-0.007
		l0.293-0.034c0.018-0.002,0.037-0.004,0.054-0.008l0.364-0.033l-0.012,0.001l0.113-0.011c0.064-0.006,0.131-0.01,0.197-0.01h0.182
		c0,0,16.618,0,19.922,0c0-2.391,0-6.789,0-6.901c-0.015-0.122-0.021-0.243-0.021-0.365c0-1.697,1.382-3.08,3.08-3.08
		c0.865,0,1.688,0.367,2.268,0.996c1.993,1.486,15.234,11.364,16.467,12.282c0.92,0.559,1.482,1.545,1.482,2.633
		c0,1.074-0.553,2.058-1.455,2.615c-0.117,0.088-16.075,11.854-16.475,12.146c-0.58,0.643-1.408,1.018-2.287,1.018
		c-1.698,0-3.08-1.383-3.08-3.08c0-0.123,0.007-0.248,0.021-0.371c0-0.222,0-3.65,0-5.845c-3.277,0-19.385,0-19.593,0
		c-0.017,0.002-0.042,0.005-0.042,0.005c-0.072,0.01-0.234,0.034-0.264,0.037c-0.023,0.005-0.609,0.109-0.609,0.109
		c-0.415,0.082-0.834,0.188-1.256,0.311c-0.802,0.229-1.577,0.531-2.314,0.9c-0.649,0.322-1.245,0.717-1.778,1.175l0.008-0.009
		c-0.479,0.416-0.873,0.869-1.169,1.347c-0.299,0.479-0.517,0.999-0.663,1.588c-0.006,0.026-0.027,0.097-0.038,0.138
		c0.003-0.011,0.004-0.021,0.004-0.021l-0.025,0.138c0,0-0.025,0.135-0.04,0.215v-0.002v0.004c0,0.004-0.001,0.006-0.001,0.01v0.002
		c-0.002,0.005-0.003,0.011-0.003,0.015c-0.001,0.006-0.003,0.013-0.005,0.022c0-0.002,0.003-0.008,0.003-0.01
		c-0.001,0.006-0.006,0.029-0.006,0.029s0-0.002,0-0.003c-0.011,0.054-0.022,0.114-0.022,0.114s-0.006,0.031-0.01,0.049
		c-0.008,0.08-0.027,0.261-0.027,0.261l0.002-0.013l-0.022,0.208c-0.011,0.095-0.022,0.19-0.022,0.235v0.015
		c0,0.022,0,0.044-0.002,0.065c0,0-0.018,0.557-0.021,0.641c0,0.031,0,7.188,0,7.188v13.275c0,1.105-0.896,2-2,2H43.001
		 M53.177,78.496c0-0.002,0-0.002,0-0.003C53.177,78.494,53.177,78.494,53.177,78.496 M53.243,78.118c0,0,0.001-0.007,0.003-0.011
		C53.245,78.111,53.245,78.115,53.243,78.118"/>
	<path fill="#00598C" d="M41.001,100.539c-1.105,0-2-0.895-2-2V85.264v-7.203v-0.039l0.006-0.307c0-0.002,0-0.002,0-0.002
		s0,0.016,0,0.018l0.01-0.28l0.019-0.563l-0.001,0.041c0.006-0.404,0.048-0.791,0.085-1.134l0.021-0.188
		c0-0.006,0.001-0.015,0.001-0.02l0.066-0.572c0.005-0.039,0.001-0.019,0.008-0.058l0.088-0.511l0.027-0.143l0.003-0.023l0.048-0.25
		c0.056-0.307,0.12-0.653,0.226-1.025c0.442-1.763,1.172-3.49,2.116-5c0.938-1.509,2.124-2.886,3.52-4.089
		c1.276-1.101,2.694-2.043,4.209-2.804c1.409-0.708,2.887-1.286,4.391-1.719c0.761-0.221,1.494-0.4,2.234-0.549
		c0.399-0.08,0.775-0.147,1.152-0.207c0.009-0.001,0.018-0.003,0.027-0.003l0.554-0.079c0.015-0.003,0.027-0.005,0.042-0.006
		l0.293-0.035c0.018-0.002,0.037-0.003,0.054-0.007l0.365-0.033l-0.013,0.001l0.114-0.011c0.065-0.006,0.131-0.01,0.197-0.01h0.183
		c0,0,16.618,0,19.921,0c0-2.391,0-6.789,0-6.901c-0.015-0.122-0.021-0.243-0.021-0.365c0-1.697,1.382-3.08,3.08-3.08
		c0.865,0,1.688,0.367,2.268,0.996c1.993,1.486,15.234,11.364,16.467,12.282c0.92,0.559,1.482,1.545,1.482,2.633
		c0,1.074-0.553,2.058-1.455,2.615c-0.117,0.088-16.075,11.854-16.475,12.146c-0.58,0.643-1.408,1.018-2.287,1.018
		c-1.698,0-3.08-1.383-3.08-3.08c0-0.123,0.007-0.248,0.021-0.371c0-0.222,0-3.65,0-5.845c-3.277,0-19.385,0-19.593,0
		c-0.016,0.002-0.042,0.005-0.042,0.005c-0.072,0.01-0.235,0.034-0.263,0.037c-0.024,0.005-0.61,0.109-0.61,0.109
		c-0.415,0.082-0.834,0.188-1.256,0.311c-0.802,0.229-1.577,0.531-2.314,0.9c-0.649,0.322-1.245,0.717-1.778,1.175l0.008-0.009
		c-0.479,0.416-0.873,0.869-1.169,1.347c-0.299,0.479-0.517,0.999-0.663,1.588c-0.006,0.026-0.027,0.097-0.038,0.138
		c0.003-0.011,0.004-0.021,0.004-0.021l-0.025,0.138c0,0-0.025,0.135-0.04,0.215v-0.002v0.004c0,0.004-0.001,0.006-0.001,0.01v0.002
		c-0.002,0.005-0.003,0.011-0.003,0.015c-0.001,0.006-0.003,0.013-0.005,0.022c0-0.002,0.003-0.008,0.003-0.01
		c-0.001,0.006-0.006,0.029-0.006,0.029s0-0.002,0-0.003c-0.011,0.054-0.022,0.114-0.022,0.114s-0.006,0.031-0.01,0.049
		c-0.008,0.08-0.027,0.261-0.027,0.261l0.002-0.013l-0.022,0.208c-0.011,0.095-0.022,0.19-0.022,0.235v0.015
		c0,0.022,0,0.044-0.002,0.065c0,0-0.018,0.557-0.021,0.641c0,0.031,0,7.188,0,7.188v13.275c0,1.105-0.896,2-2,2H41.001
		 M51.177,76.496c0-0.002,0-0.002,0-0.003C51.177,76.494,51.177,76.494,51.177,76.496 M51.243,76.118c0,0,0.001-0.007,0.003-0.011
		C51.245,76.111,51.245,76.115,51.243,76.118"/>
	<g>
		
			<linearGradient id="SVGID_2_" gradientUnits="userSpaceOnUse" x1="308.2207" y1="-338.438" x2="308.2207" y2="-290.0083" gradientTransform="matrix(1 0 0 -1 -237.5996 -239.9004)">
			<stop  offset="0" style="stop-color:#48A2FB"/>
			<stop  offset="0.1758" style="stop-color:#059CF4"/>
			<stop  offset="0.4969" style="stop-color:#0398EF"/>
			<stop  offset="0.782" style="stop-color:#0293E7"/>
			<stop  offset="1" style="stop-color:#0189D8"/>
		</linearGradient>
		<path fill="url(#SVGID_2_)" d="M59.258,68.501l-0.154,0.019l-0.336,0.047c-0.232,0.037-0.469,0.08-0.707,0.127
			c-0.476,0.096-0.953,0.213-1.419,0.351c-0.938,0.269-1.831,0.622-2.65,1.034c-0.825,0.41-1.553,0.902-2.183,1.441
			c-0.628,0.545-1.148,1.144-1.557,1.799c-0.408,0.654-0.709,1.371-0.906,2.162c-0.064,0.19-0.085,0.403-0.128,0.607
			c-0.018,0.104-0.043,0.203-0.058,0.307l-0.034,0.322c-0.021,0.217-0.056,0.426-0.055,0.653l-0.022,0.69v7.201v13.276H41V85.264
			v-7.203c0-0.067,0.003-0.168,0.006-0.261l0.01-0.282l0.019-0.564c0.005-0.373,0.055-0.76,0.095-1.141l0.065-0.574
			c0.027-0.189,0.067-0.383,0.103-0.575c0.075-0.386,0.133-0.769,0.247-1.154c0.383-1.536,1.012-3.063,1.875-4.444
			c0.86-1.383,1.941-2.609,3.129-3.633c1.19-1.025,2.478-1.867,3.8-2.531c1.325-0.666,2.676-1.19,4.047-1.586
			c0.685-0.197,1.374-0.369,2.075-0.51c0.351-0.07,0.705-0.136,1.065-0.191l0.554-0.078l0.293-0.035l0.365-0.034l0.114-0.011h0.183
			H91.88v8.047L59.258,68.501L59.258,68.501z M99.658,64.98L82.591,77.564l-1.624-1.059V51.479l1.602-1.166l17.173,12.81
			L99.658,64.98L99.658,64.98z M82.023,52.267c-0.596,0-1.08-0.484-1.08-1.08s0.484-1.079,1.08-1.079
			c0.598,0,1.082,0.483,1.082,1.079S82.621,52.267,82.023,52.267L82.023,52.267z M82.023,77.796c-0.596,0-1.08-0.483-1.08-1.079
			c0-0.598,0.484-1.078,1.08-1.078c0.598,0,1.082,0.48,1.082,1.078C83.105,77.313,82.621,77.796,82.023,77.796L82.023,77.796z
			 M99.162,65.098c-0.598,0-1.081-0.482-1.081-1.078c0-0.597,0.483-1.08,1.081-1.08c0.596,0,1.079,0.483,1.079,1.08
			C100.241,64.615,99.758,65.098,99.162,65.098L99.162,65.098z"/>
	</g>
</g>
<g id="green">
	<path fill="#7B7B7B" d="M66.01,73.471c-3.314,0-6.001,2.686-6.001,6v25.03h-39v-25.03c0-3.314-2.687-6-5.999-6H12v-49h3.01
		c3.313,0,5.999-2.687,5.999-6.001v-2.969h39v2.969c0,3.314,2.687,6.001,6.001,6.001h42v49H66.01z"/>
	
		<radialGradient id="SVGID_3_" cx="297.5996" cy="-299.9014" r="46.2821" gradientTransform="matrix(1 0 0 -1 -237.5996 -239.9004)" gradientUnits="userSpaceOnUse">
		<stop  offset="0.14" style="stop-color:#AEAEAE"/>
		<stop  offset="0.96" style="stop-color:#CBCBCB"/>
	</radialGradient>
	<path fill="url(#SVGID_3_)" d="M23.009,104.501c0-3.431,0-25.03,0-25.03c0-4.412-3.588-8-7.999-8c0,0-1.566,0-3.009,0
		c0-3.523,0-41.476,0-45c1.443,0,3.009,0,3.009,0c4.411,0,7.999-3.589,7.999-8.001c0,0,0-1.54,0-2.969c3.407,0,31.594,0,35,0
		c0,1.429,0,2.969,0,2.969c0,4.412,3.589,8.001,8.001,8.001c0,0,41.967,0,41.988,0c0,4.076,0,40.923,0,45
		c-0.021,0-41.988,0-41.988,0c-4.412,0-8.001,3.588-8.001,8c0,0,0,21.6,0,25.03C54.603,104.501,26.416,104.501,23.009,104.501"/>
	<path fill="#4E4E4E" d="M58,57.467c-1.103,0-2-0.896-2-1.999s0.897-2,2-2h49.986v3.999H58"/>
	<path fill="#FFFFFF" d="M107.986,56.467H58c-0.552,0-1-0.447-1-1c0-0.553,0.447-1,1-1h49.986V56.467L107.986,56.467z"/>
	<path fill-opacity="0.1" d="M43.001,102.539c-1.105,0-2-0.895-2-2V87.264v-7.203v-0.039l0.006-0.307c0-0.002,0-0.002,0-0.002
		s0,0.016,0,0.018l0.01-0.28l0.019-0.563l-0.001,0.041c0.006-0.404,0.048-0.791,0.085-1.134l0.021-0.188
		c0-0.006,0.001-0.015,0.001-0.02l0.066-0.572c0.005-0.039,0.001-0.019,0.008-0.058l0.088-0.511l0.027-0.143l0.003-0.023l0.048-0.25
		c0.056-0.307,0.12-0.653,0.226-1.025c0.442-1.763,1.172-3.49,2.116-5c0.938-1.509,2.124-2.886,3.52-4.089
		c1.276-1.101,2.694-2.043,4.209-2.804c1.409-0.709,2.887-1.286,4.391-1.719c0.761-0.222,1.494-0.4,2.234-0.551
		c0.399-0.08,0.775-0.146,1.152-0.205c0.009-0.002,0.018-0.004,0.027-0.004l0.554-0.078c0.015-0.004,0.027-0.006,0.042-0.007
		l0.293-0.034c0.018-0.002,0.037-0.004,0.054-0.008l0.364-0.033l-0.012,0.001l0.113-0.011c0.064-0.006,0.131-0.01,0.197-0.01h0.182
		c0,0,16.618,0,19.922,0c0-2.391,0-6.789,0-6.901c-0.015-0.122-0.021-0.243-0.021-0.365c0-1.697,1.382-3.08,3.08-3.08
		c0.865,0,1.688,0.367,2.268,0.996c1.993,1.486,15.234,11.364,16.467,12.282c0.92,0.559,1.482,1.545,1.482,2.633
		c0,1.074-0.553,2.058-1.455,2.615c-0.117,0.088-16.075,11.854-16.475,12.146c-0.58,0.643-1.408,1.018-2.287,1.018
		c-1.698,0-3.08-1.383-3.08-3.08c0-0.123,0.007-0.248,0.021-0.371c0-0.222,0-3.65,0-5.845c-3.277,0-19.385,0-19.593,0
		c-0.017,0.002-0.042,0.005-0.042,0.005c-0.072,0.01-0.234,0.034-0.264,0.037c-0.023,0.005-0.609,0.109-0.609,0.109
		c-0.415,0.082-0.834,0.188-1.256,0.311c-0.802,0.229-1.577,0.531-2.314,0.9c-0.649,0.322-1.245,0.717-1.778,1.175l0.008-0.009
		c-0.479,0.416-0.873,0.869-1.169,1.347c-0.299,0.479-0.517,0.999-0.663,1.588c-0.006,0.026-0.027,0.097-0.038,0.138
		c0.003-0.011,0.004-0.021,0.004-0.021l-0.025,0.138c0,0-0.025,0.135-0.04,0.215v-0.002v0.004c0,0.004-0.001,0.006-0.001,0.01v0.002
		c-0.002,0.005-0.003,0.011-0.003,0.015c-0.001,0.006-0.003,0.013-0.005,0.022c0-0.002,0.003-0.008,0.003-0.01
		c-0.001,0.006-0.006,0.029-0.006,0.029s0-0.002,0-0.003c-0.011,0.054-0.022,0.114-0.022,0.114s-0.006,0.031-0.01,0.049
		c-0.008,0.08-0.027,0.261-0.027,0.261l0.002-0.013l-0.022,0.208c-0.011,0.095-0.022,0.19-0.022,0.235v0.015
		c0,0.022,0,0.044-0.002,0.065c0,0-0.018,0.557-0.021,0.641c0,0.031,0,7.188,0,7.188v13.275c0,1.105-0.896,2-2,2H43.001
		 M53.177,78.496c0-0.002,0-0.002,0-0.003C53.177,78.494,53.177,78.494,53.177,78.496 M53.243,78.118c0,0,0.001-0.007,0.003-0.011
		C53.245,78.111,53.245,78.115,53.243,78.118"/>
	<path fill="#015911" d="M41.001,100.539c-1.105,0-2-0.895-2-2V85.264v-7.203v-0.039l0.006-0.307c0-0.002,0-0.002,0-0.002
		s0,0.016,0,0.018l0.01-0.28l0.019-0.563l-0.001,0.041c0.006-0.404,0.048-0.791,0.085-1.134l0.021-0.188
		c0-0.006,0.001-0.015,0.001-0.02l0.066-0.572c0.005-0.039,0.001-0.019,0.008-0.058l0.088-0.511l0.027-0.143l0.003-0.023l0.048-0.25
		c0.056-0.307,0.12-0.653,0.226-1.025c0.442-1.763,1.172-3.49,2.116-5c0.938-1.509,2.124-2.886,3.52-4.089
		c1.276-1.101,2.694-2.043,4.209-2.804c1.409-0.708,2.887-1.286,4.391-1.719c0.761-0.221,1.494-0.4,2.234-0.549
		c0.399-0.08,0.775-0.147,1.152-0.207c0.009-0.001,0.018-0.003,0.027-0.003l0.554-0.079c0.015-0.003,0.027-0.005,0.042-0.006
		l0.293-0.035c0.018-0.002,0.037-0.003,0.054-0.007l0.365-0.033l-0.013,0.001l0.114-0.011c0.065-0.006,0.131-0.01,0.197-0.01h0.183
		c0,0,16.618,0,19.921,0c0-2.391,0-6.789,0-6.901c-0.015-0.122-0.021-0.243-0.021-0.365c0-1.697,1.382-3.08,3.08-3.08
		c0.865,0,1.688,0.367,2.268,0.996c1.993,1.486,15.234,11.364,16.467,12.282c0.92,0.559,1.482,1.545,1.482,2.633
		c0,1.074-0.553,2.058-1.455,2.615c-0.117,0.088-16.075,11.854-16.475,12.146c-0.58,0.643-1.408,1.018-2.287,1.018
		c-1.698,0-3.08-1.383-3.08-3.08c0-0.123,0.007-0.248,0.021-0.371c0-0.222,0-3.65,0-5.845c-3.277,0-19.385,0-19.593,0
		c-0.016,0.002-0.042,0.005-0.042,0.005c-0.072,0.01-0.235,0.034-0.263,0.037c-0.024,0.005-0.61,0.109-0.61,0.109
		c-0.415,0.082-0.834,0.188-1.256,0.311c-0.802,0.229-1.577,0.531-2.314,0.9c-0.649,0.322-1.245,0.717-1.778,1.175l0.008-0.009
		c-0.479,0.416-0.873,0.869-1.169,1.347c-0.299,0.479-0.517,0.999-0.663,1.588c-0.006,0.026-0.027,0.097-0.038,0.138
		c0.003-0.011,0.004-0.021,0.004-0.021l-0.025,0.138c0,0-0.025,0.135-0.04,0.215v-0.002v0.004c0,0.004-0.001,0.006-0.001,0.01v0.002
		c-0.002,0.005-0.003,0.011-0.003,0.015c-0.001,0.006-0.003,0.013-0.005,0.022c0-0.002,0.003-0.008,0.003-0.01
		c-0.001,0.006-0.006,0.029-0.006,0.029s0-0.002,0-0.003c-0.011,0.054-0.022,0.114-0.022,0.114s-0.006,0.031-0.01,0.049
		c-0.008,0.08-0.027,0.261-0.027,0.261l0.002-0.013l-0.022,0.208c-0.011,0.095-0.022,0.19-0.022,0.235v0.015
		c0,0.022,0,0.044-0.002,0.065c0,0-0.018,0.557-0.021,0.641c0,0.031,0,7.188,0,7.188v13.275c0,1.105-0.896,2-2,2H41.001
		 M51.177,76.496c0-0.002,0-0.002,0-0.003C51.177,76.494,51.177,76.494,51.177,76.496 M51.243,76.118c0,0,0.001-0.007,0.003-0.011
		C51.245,76.111,51.245,76.115,51.243,76.118"/>
	<g>
		
			<linearGradient id="SVGID_4_" gradientUnits="userSpaceOnUse" x1="308.2207" y1="-338.438" x2="308.2207" y2="-290.0083" gradientTransform="matrix(1 0 0 -1 -237.5996 -239.9004)">
			<stop  offset="0" style="stop-color:#00DF34"/>
			<stop  offset="0.1758" style="stop-color:#00CD26"/>
			<stop  offset="0.4969" style="stop-color:#00B211"/>
			<stop  offset="0.782" style="stop-color:#00A204"/>
			<stop  offset="1" style="stop-color:#009C00"/>
		</linearGradient>
		<path fill="url(#SVGID_4_)" d="M59.258,68.501l-0.154,0.019l-0.336,0.047c-0.232,0.037-0.469,0.08-0.707,0.127
			c-0.476,0.096-0.953,0.213-1.419,0.351c-0.938,0.269-1.831,0.622-2.65,1.034c-0.825,0.41-1.553,0.902-2.183,1.441
			c-0.628,0.545-1.148,1.144-1.557,1.799c-0.408,0.654-0.709,1.371-0.906,2.162c-0.064,0.19-0.085,0.403-0.128,0.607
			c-0.018,0.104-0.043,0.203-0.058,0.307l-0.034,0.322c-0.021,0.217-0.056,0.426-0.055,0.653l-0.022,0.69v7.201v13.276H41V85.264
			v-7.203c0-0.067,0.003-0.168,0.006-0.261l0.01-0.282l0.019-0.564c0.005-0.373,0.055-0.76,0.095-1.141l0.065-0.574
			c0.027-0.189,0.067-0.383,0.103-0.575c0.075-0.386,0.133-0.769,0.247-1.154c0.383-1.536,1.012-3.063,1.875-4.444
			c0.86-1.383,1.941-2.609,3.129-3.633c1.19-1.025,2.478-1.867,3.8-2.531c1.325-0.666,2.676-1.19,4.047-1.586
			c0.685-0.197,1.374-0.369,2.075-0.51c0.351-0.07,0.705-0.136,1.065-0.191l0.554-0.078l0.293-0.035l0.365-0.034l0.114-0.011h0.183
			H91.88v8.047L59.258,68.501L59.258,68.501z M99.658,64.98L82.591,77.564l-1.624-1.059V51.479l1.602-1.166l17.173,12.81
			L99.658,64.98L99.658,64.98z M82.023,52.267c-0.596,0-1.08-0.484-1.08-1.08s0.484-1.079,1.08-1.079
			c0.598,0,1.082,0.483,1.082,1.079S82.621,52.267,82.023,52.267L82.023,52.267z M82.023,77.796c-0.596,0-1.08-0.483-1.08-1.079
			c0-0.598,0.484-1.078,1.08-1.078c0.598,0,1.082,0.48,1.082,1.078C83.105,77.313,82.621,77.796,82.023,77.796L82.023,77.796z
			 M99.162,65.098c-0.598,0-1.081-0.482-1.081-1.078c0-0.597,0.483-1.08,1.081-1.08c0.596,0,1.079,0.483,1.079,1.08
			C100.241,64.615,99.758,65.098,99.162,65.098L99.162,65.098z"/>
	</g>
</g>
<g id="kia">
	<path fill="#7B7B7B" d="M66.01,73.471c-3.314,0-6.001,2.686-6.001,6v25.03h-39v-25.03c0-3.314-2.687-6-5.999-6H12v-49h3.01
		c3.313,0,5.999-2.687,5.999-6.001v-2.969h39v2.969c0,3.314,2.687,6.001,6.001,6.001h42v49H66.01z"/>
	
		<radialGradient id="SVGID_5_" cx="297.5996" cy="-299.9014" r="46.2821" gradientTransform="matrix(1 0 0 -1 -237.5996 -239.9004)" gradientUnits="userSpaceOnUse">
		<stop  offset="0.14" style="stop-color:#AEAEAE"/>
		<stop  offset="0.96" style="stop-color:#CBCBCB"/>
	</radialGradient>
	<path fill="url(#SVGID_5_)" d="M23.009,104.501c0-3.431,0-25.03,0-25.03c0-4.412-3.588-8-7.999-8c0,0-1.566,0-3.009,0
		c0-3.523,0-41.476,0-45c1.443,0,3.009,0,3.009,0c4.411,0,7.999-3.589,7.999-8.001c0,0,0-1.54,0-2.969c3.407,0,31.594,0,35,0
		c0,1.429,0,2.969,0,2.969c0,4.412,3.589,8.001,8.001,8.001c0,0,41.967,0,41.988,0c0,4.076,0,40.923,0,45
		c-0.021,0-41.988,0-41.988,0c-4.412,0-8.001,3.588-8.001,8c0,0,0,21.6,0,25.03C54.603,104.501,26.416,104.501,23.009,104.501"/>
	<path fill="#4E4E4E" d="M58,57.467c-1.103,0-2-0.896-2-1.999s0.897-2,2-2h49.986v3.999H58"/>
	<path fill="#FFFFFF" d="M107.986,56.467H58c-0.552,0-1-0.447-1-1c0-0.553,0.447-1,1-1h49.986V56.467L107.986,56.467z"/>
	<path fill-opacity="0.1" d="M43.001,102.539c-1.105,0-2-0.895-2-2V87.264v-7.203v-0.039l0.006-0.307c0-0.002,0-0.002,0-0.002
		s0,0.016,0,0.018l0.01-0.28l0.019-0.563l-0.001,0.041c0.006-0.404,0.048-0.791,0.085-1.134l0.021-0.188
		c0-0.006,0.001-0.015,0.001-0.02l0.066-0.572c0.005-0.039,0.001-0.019,0.008-0.058l0.088-0.511l0.027-0.143l0.003-0.023l0.048-0.25
		c0.056-0.307,0.12-0.653,0.226-1.025c0.442-1.763,1.172-3.49,2.116-5c0.938-1.509,2.124-2.886,3.52-4.089
		c1.276-1.101,2.694-2.043,4.209-2.804c1.409-0.709,2.887-1.286,4.391-1.719c0.761-0.222,1.494-0.4,2.234-0.551
		c0.399-0.08,0.775-0.146,1.152-0.205c0.009-0.002,0.018-0.004,0.027-0.004l0.554-0.078c0.015-0.004,0.027-0.006,0.042-0.007
		l0.293-0.034c0.018-0.002,0.037-0.004,0.054-0.008l0.364-0.033l-0.012,0.001l0.113-0.011c0.064-0.006,0.131-0.01,0.197-0.01h0.182
		c0,0,16.618,0,19.922,0c0-2.391,0-6.789,0-6.901c-0.015-0.122-0.021-0.243-0.021-0.365c0-1.697,1.382-3.08,3.08-3.08
		c0.865,0,1.688,0.367,2.268,0.996c1.993,1.486,15.234,11.364,16.467,12.282c0.92,0.559,1.482,1.545,1.482,2.633
		c0,1.074-0.553,2.058-1.455,2.615c-0.117,0.088-16.075,11.854-16.475,12.146c-0.58,0.643-1.408,1.018-2.287,1.018
		c-1.698,0-3.08-1.383-3.08-3.08c0-0.123,0.007-0.248,0.021-0.371c0-0.222,0-3.65,0-5.845c-3.277,0-19.385,0-19.593,0
		c-0.017,0.002-0.042,0.005-0.042,0.005c-0.072,0.01-0.234,0.034-0.264,0.037c-0.023,0.005-0.609,0.109-0.609,0.109
		c-0.415,0.082-0.834,0.188-1.256,0.311c-0.802,0.229-1.577,0.531-2.314,0.9c-0.649,0.322-1.245,0.717-1.778,1.175l0.008-0.009
		c-0.479,0.416-0.873,0.869-1.169,1.347c-0.299,0.479-0.517,0.999-0.663,1.588c-0.006,0.026-0.027,0.097-0.038,0.138
		c0.003-0.011,0.004-0.021,0.004-0.021l-0.025,0.138c0,0-0.025,0.135-0.04,0.215v-0.002v0.004c0,0.004-0.001,0.006-0.001,0.01v0.002
		c-0.002,0.005-0.003,0.011-0.003,0.015c-0.001,0.006-0.003,0.013-0.005,0.022c0-0.002,0.003-0.008,0.003-0.01
		c-0.001,0.006-0.006,0.029-0.006,0.029s0-0.002,0-0.003c-0.011,0.054-0.022,0.114-0.022,0.114s-0.006,0.031-0.01,0.049
		c-0.008,0.08-0.027,0.261-0.027,0.261l0.002-0.013l-0.022,0.208c-0.011,0.095-0.022,0.19-0.022,0.235v0.015
		c0,0.022,0,0.044-0.002,0.065c0,0-0.018,0.557-0.021,0.641c0,0.031,0,7.188,0,7.188v13.275c0,1.105-0.896,2-2,2H43.001
		 M53.177,78.496c0-0.002,0-0.002,0-0.003C53.177,78.494,53.177,78.494,53.177,78.496 M53.243,78.118c0,0,0.001-0.007,0.003-0.011
		C53.245,78.111,53.245,78.115,53.243,78.118"/>
	<path fill="#9E171E" d="M41.001,100.539c-1.105,0-2-0.895-2-2V85.264v-7.203v-0.039l0.006-0.307c0-0.002,0-0.002,0-0.002
		s0,0.016,0,0.018l0.01-0.28l0.019-0.563l-0.001,0.041c0.006-0.404,0.048-0.791,0.085-1.134l0.021-0.188
		c0-0.006,0.001-0.015,0.001-0.02l0.066-0.572c0.005-0.039,0.001-0.019,0.008-0.058l0.088-0.511l0.027-0.143l0.003-0.023l0.048-0.25
		c0.056-0.307,0.12-0.653,0.226-1.025c0.442-1.763,1.172-3.49,2.116-5c0.938-1.509,2.124-2.886,3.52-4.089
		c1.276-1.101,2.694-2.043,4.209-2.804c1.409-0.708,2.887-1.286,4.391-1.719c0.761-0.221,1.494-0.4,2.234-0.549
		c0.399-0.08,0.775-0.147,1.152-0.207c0.009-0.001,0.018-0.003,0.027-0.003l0.554-0.079c0.015-0.003,0.027-0.005,0.042-0.006
		l0.293-0.035c0.018-0.002,0.037-0.003,0.054-0.007l0.365-0.033l-0.013,0.001l0.114-0.011c0.065-0.006,0.131-0.01,0.197-0.01h0.183
		c0,0,16.618,0,19.921,0c0-2.391,0-6.789,0-6.901c-0.015-0.122-0.021-0.243-0.021-0.365c0-1.697,1.382-3.08,3.08-3.08
		c0.865,0,1.688,0.367,2.268,0.996c1.993,1.486,15.234,11.364,16.467,12.282c0.92,0.559,1.482,1.545,1.482,2.633
		c0,1.074-0.553,2.058-1.455,2.615c-0.117,0.088-16.075,11.854-16.475,12.146c-0.58,0.643-1.408,1.018-2.287,1.018
		c-1.698,0-3.08-1.383-3.08-3.08c0-0.123,0.007-0.248,0.021-0.371c0-0.222,0-3.65,0-5.845c-3.277,0-19.385,0-19.593,0
		c-0.016,0.002-0.042,0.005-0.042,0.005c-0.072,0.01-0.235,0.034-0.263,0.037c-0.024,0.005-0.61,0.109-0.61,0.109
		c-0.415,0.082-0.834,0.188-1.256,0.311c-0.802,0.229-1.577,0.531-2.314,0.9c-0.649,0.322-1.245,0.717-1.778,1.175l0.008-0.009
		c-0.479,0.416-0.873,0.869-1.169,1.347c-0.299,0.479-0.517,0.999-0.663,1.588c-0.006,0.026-0.027,0.097-0.038,0.138
		c0.003-0.011,0.004-0.021,0.004-0.021l-0.025,0.138c0,0-0.025,0.135-0.04,0.215v-0.002v0.004c0,0.004-0.001,0.006-0.001,0.01v0.002
		c-0.002,0.005-0.003,0.011-0.003,0.015c-0.001,0.006-0.003,0.013-0.005,0.022c0-0.002,0.003-0.008,0.003-0.01
		c-0.001,0.006-0.006,0.029-0.006,0.029s0-0.002,0-0.003c-0.011,0.054-0.022,0.114-0.022,0.114s-0.006,0.031-0.01,0.049
		c-0.008,0.08-0.027,0.261-0.027,0.261l0.002-0.013l-0.022,0.208c-0.011,0.095-0.022,0.19-0.022,0.235v0.015
		c0,0.022,0,0.044-0.002,0.065c0,0-0.018,0.557-0.021,0.641c0,0.031,0,7.188,0,7.188v13.275c0,1.105-0.896,2-2,2H41.001
		 M51.177,76.496c0-0.002,0-0.002,0-0.003C51.177,76.494,51.177,76.494,51.177,76.496 M51.243,76.118c0,0,0.001-0.007,0.003-0.011
		C51.245,76.111,51.245,76.115,51.243,76.118"/>
	<g>
		
			<linearGradient id="SVGID_6_" gradientUnits="userSpaceOnUse" x1="308.2207" y1="-338.438" x2="308.2207" y2="-290.0083" gradientTransform="matrix(1 0 0 -1 -237.5996 -239.9004)">
			<stop  offset="0" style="stop-color:#FFFFFF"/>
			<stop  offset="0.1758" style="stop-color:#E7E9EA"/>
			<stop  offset="0.4969" style="stop-color:#CDD2D5"/>
			<stop  offset="0.782" style="stop-color:#C5CACC"/>
			<stop  offset="1" style="stop-color:#BABDC0"/>
		</linearGradient>
		<path fill="url(#SVGID_6_)" d="M59.258,68.501l-0.154,0.019l-0.336,0.047c-0.232,0.037-0.469,0.08-0.707,0.127
			c-0.476,0.096-0.953,0.213-1.419,0.351c-0.938,0.269-1.831,0.622-2.65,1.034c-0.825,0.41-1.553,0.902-2.183,1.441
			c-0.628,0.545-1.148,1.144-1.557,1.799c-0.408,0.654-0.709,1.371-0.906,2.162c-0.064,0.19-0.085,0.403-0.128,0.607
			c-0.018,0.104-0.043,0.203-0.058,0.307l-0.034,0.322c-0.021,0.217-0.056,0.426-0.055,0.653l-0.022,0.69v7.201v13.276H41V85.264
			v-7.203c0-0.067,0.003-0.168,0.006-0.261l0.01-0.282l0.019-0.564c0.005-0.373,0.055-0.76,0.095-1.141l0.065-0.574
			c0.027-0.189,0.067-0.383,0.103-0.575c0.075-0.386,0.133-0.769,0.247-1.154c0.383-1.536,1.012-3.063,1.875-4.444
			c0.86-1.383,1.941-2.609,3.129-3.633c1.19-1.025,2.478-1.867,3.8-2.531c1.325-0.666,2.676-1.19,4.047-1.586
			c0.685-0.197,1.374-0.369,2.075-0.51c0.351-0.07,0.705-0.136,1.065-0.191l0.554-0.078l0.293-0.035l0.365-0.034l0.114-0.011h0.183
			H91.88v8.047L59.258,68.501L59.258,68.501z M99.658,64.98L82.591,77.564l-1.624-1.059V51.479l1.602-1.166l17.173,12.81
			L99.658,64.98L99.658,64.98z M82.023,52.267c-0.596,0-1.08-0.484-1.08-1.08s0.484-1.079,1.08-1.079
			c0.598,0,1.082,0.483,1.082,1.079S82.621,52.267,82.023,52.267L82.023,52.267z M82.023,77.796c-0.596,0-1.08-0.483-1.08-1.079
			c0-0.598,0.484-1.078,1.08-1.078c0.598,0,1.082,0.48,1.082,1.078C83.105,77.313,82.621,77.796,82.023,77.796L82.023,77.796z
			 M99.162,65.098c-0.598,0-1.081-0.482-1.081-1.078c0-0.597,0.483-1.08,1.081-1.08c0.596,0,1.079,0.483,1.079,1.08
			C100.241,64.615,99.758,65.098,99.162,65.098L99.162,65.098z"/>
	</g>
</g>
<g id="orange">
	<path fill="#7B7B7B" d="M66.01,73.471c-3.314,0-6.001,2.686-6.001,6v25.03h-39v-25.03c0-3.314-2.687-6-5.999-6H12v-49h3.01
		c3.313,0,5.999-2.687,5.999-6.001v-2.969h39v2.969c0,3.314,2.687,6.001,6.001,6.001h42v49H66.01z"/>
	
		<radialGradient id="SVGID_7_" cx="297.5996" cy="-299.9014" r="46.2821" gradientTransform="matrix(1 0 0 -1 -237.5996 -239.9004)" gradientUnits="userSpaceOnUse">
		<stop  offset="0.14" style="stop-color:#AEAEAE"/>
		<stop  offset="0.96" style="stop-color:#CBCBCB"/>
	</radialGradient>
	<path fill="url(#SVGID_7_)" d="M23.009,104.501c0-3.431,0-25.03,0-25.03c0-4.412-3.588-8-7.999-8c0,0-1.566,0-3.009,0
		c0-3.523,0-41.476,0-45c1.443,0,3.009,0,3.009,0c4.411,0,7.999-3.589,7.999-8.001c0,0,0-1.54,0-2.969c3.407,0,31.594,0,35,0
		c0,1.429,0,2.969,0,2.969c0,4.412,3.589,8.001,8.001,8.001c0,0,41.967,0,41.988,0c0,4.076,0,40.923,0,45
		c-0.021,0-41.988,0-41.988,0c-4.412,0-8.001,3.588-8.001,8c0,0,0,21.6,0,25.03C54.603,104.501,26.416,104.501,23.009,104.501"/>
	<path fill="#4E4E4E" d="M58,57.467c-1.103,0-2-0.896-2-1.999s0.897-2,2-2h49.986v3.999H58"/>
	<path fill="#FFFFFF" d="M107.986,56.467H58c-0.552,0-1-0.447-1-1c0-0.553,0.447-1,1-1h49.986V56.467L107.986,56.467z"/>
	<path fill-opacity="0.1" d="M43.001,102.539c-1.105,0-2-0.895-2-2V87.264v-7.203v-0.039l0.006-0.307c0-0.002,0-0.002,0-0.002
		s0,0.016,0,0.018l0.01-0.28l0.019-0.563l-0.001,0.041c0.006-0.404,0.048-0.791,0.085-1.134l0.021-0.188
		c0-0.006,0.001-0.015,0.001-0.02l0.066-0.572c0.005-0.039,0.001-0.019,0.008-0.058l0.088-0.511l0.027-0.143l0.003-0.023l0.048-0.25
		c0.056-0.307,0.12-0.653,0.226-1.025c0.442-1.763,1.172-3.49,2.116-5c0.938-1.509,2.124-2.886,3.52-4.089
		c1.276-1.101,2.694-2.043,4.209-2.804c1.409-0.709,2.887-1.286,4.391-1.719c0.761-0.222,1.494-0.4,2.234-0.551
		c0.399-0.08,0.775-0.146,1.152-0.205c0.009-0.002,0.018-0.004,0.027-0.004l0.554-0.078c0.015-0.004,0.027-0.006,0.042-0.007
		l0.293-0.034c0.018-0.002,0.037-0.004,0.054-0.008l0.364-0.033l-0.012,0.001l0.113-0.011c0.064-0.006,0.131-0.01,0.197-0.01h0.182
		c0,0,16.618,0,19.922,0c0-2.391,0-6.789,0-6.901c-0.015-0.122-0.021-0.243-0.021-0.365c0-1.697,1.382-3.08,3.08-3.08
		c0.865,0,1.688,0.367,2.268,0.996c1.993,1.486,15.234,11.364,16.467,12.282c0.92,0.559,1.482,1.545,1.482,2.633
		c0,1.074-0.553,2.058-1.455,2.615c-0.117,0.088-16.075,11.854-16.475,12.146c-0.58,0.643-1.408,1.018-2.287,1.018
		c-1.698,0-3.08-1.383-3.08-3.08c0-0.123,0.007-0.248,0.021-0.371c0-0.222,0-3.65,0-5.845c-3.277,0-19.385,0-19.593,0
		c-0.017,0.002-0.042,0.005-0.042,0.005c-0.072,0.01-0.234,0.034-0.264,0.037c-0.023,0.005-0.609,0.109-0.609,0.109
		c-0.415,0.082-0.834,0.188-1.256,0.311c-0.802,0.229-1.577,0.531-2.314,0.9c-0.649,0.322-1.245,0.717-1.778,1.175l0.008-0.009
		c-0.479,0.416-0.873,0.869-1.169,1.347c-0.299,0.479-0.517,0.999-0.663,1.588c-0.006,0.026-0.027,0.097-0.038,0.138
		c0.003-0.011,0.004-0.021,0.004-0.021l-0.025,0.138c0,0-0.025,0.135-0.04,0.215v-0.002v0.004c0,0.004-0.001,0.006-0.001,0.01v0.002
		c-0.002,0.005-0.003,0.011-0.003,0.015c-0.001,0.006-0.003,0.013-0.005,0.022c0-0.002,0.003-0.008,0.003-0.01
		c-0.001,0.006-0.006,0.029-0.006,0.029s0-0.002,0-0.003c-0.011,0.054-0.022,0.114-0.022,0.114s-0.006,0.031-0.01,0.049
		c-0.008,0.08-0.027,0.261-0.027,0.261l0.002-0.013l-0.022,0.208c-0.011,0.095-0.022,0.19-0.022,0.235v0.015
		c0,0.022,0,0.044-0.002,0.065c0,0-0.018,0.557-0.021,0.641c0,0.031,0,7.188,0,7.188v13.275c0,1.105-0.896,2-2,2H43.001
		 M53.177,78.496c0-0.002,0-0.002,0-0.003C53.177,78.494,53.177,78.494,53.177,78.496 M53.243,78.118c0,0,0.001-0.007,0.003-0.011
		C53.245,78.111,53.245,78.115,53.243,78.118"/>
	<path fill="#A43C10" d="M41.001,100.539c-1.105,0-2-0.895-2-2V85.264v-7.203v-0.039l0.006-0.307c0-0.002,0-0.002,0-0.002
		s0,0.016,0,0.018l0.01-0.28l0.019-0.563l-0.001,0.041c0.006-0.404,0.048-0.791,0.085-1.134l0.021-0.188
		c0-0.006,0.001-0.015,0.001-0.02l0.066-0.572c0.005-0.039,0.001-0.019,0.008-0.058l0.088-0.511l0.027-0.143l0.003-0.023l0.048-0.25
		c0.056-0.307,0.12-0.653,0.226-1.025c0.442-1.763,1.172-3.49,2.116-5c0.938-1.509,2.124-2.886,3.52-4.089
		c1.276-1.101,2.694-2.043,4.209-2.804c1.409-0.708,2.887-1.286,4.391-1.719c0.761-0.221,1.494-0.4,2.234-0.549
		c0.399-0.08,0.775-0.147,1.152-0.207c0.009-0.001,0.018-0.003,0.027-0.003l0.554-0.079c0.015-0.003,0.027-0.005,0.042-0.006
		l0.293-0.035c0.018-0.002,0.037-0.003,0.054-0.007l0.365-0.033l-0.013,0.001l0.114-0.011c0.065-0.006,0.131-0.01,0.197-0.01h0.183
		c0,0,16.618,0,19.921,0c0-2.391,0-6.789,0-6.901c-0.015-0.122-0.021-0.243-0.021-0.365c0-1.697,1.382-3.08,3.08-3.08
		c0.865,0,1.688,0.367,2.268,0.996c1.993,1.486,15.234,11.364,16.467,12.282c0.92,0.559,1.482,1.545,1.482,2.633
		c0,1.074-0.553,2.058-1.455,2.615c-0.117,0.088-16.075,11.854-16.475,12.146c-0.58,0.643-1.408,1.018-2.287,1.018
		c-1.698,0-3.08-1.383-3.08-3.08c0-0.123,0.007-0.248,0.021-0.371c0-0.222,0-3.65,0-5.845c-3.277,0-19.385,0-19.593,0
		c-0.016,0.002-0.042,0.005-0.042,0.005c-0.072,0.01-0.235,0.034-0.263,0.037c-0.024,0.005-0.61,0.109-0.61,0.109
		c-0.415,0.082-0.834,0.188-1.256,0.311c-0.802,0.229-1.577,0.531-2.314,0.9c-0.649,0.322-1.245,0.717-1.778,1.175l0.008-0.009
		c-0.479,0.416-0.873,0.869-1.169,1.347c-0.299,0.479-0.517,0.999-0.663,1.588c-0.006,0.026-0.027,0.097-0.038,0.138
		c0.003-0.011,0.004-0.021,0.004-0.021l-0.025,0.138c0,0-0.025,0.135-0.04,0.215v-0.002v0.004c0,0.004-0.001,0.006-0.001,0.01v0.002
		c-0.002,0.005-0.003,0.011-0.003,0.015c-0.001,0.006-0.003,0.013-0.005,0.022c0-0.002,0.003-0.008,0.003-0.01
		c-0.001,0.006-0.006,0.029-0.006,0.029s0-0.002,0-0.003c-0.011,0.054-0.022,0.114-0.022,0.114s-0.006,0.031-0.01,0.049
		c-0.008,0.08-0.027,0.261-0.027,0.261l0.002-0.013l-0.022,0.208c-0.011,0.095-0.022,0.19-0.022,0.235v0.015
		c0,0.022,0,0.044-0.002,0.065c0,0-0.018,0.557-0.021,0.641c0,0.031,0,7.188,0,7.188v13.275c0,1.105-0.896,2-2,2H41.001
		 M51.177,76.496c0-0.002,0-0.002,0-0.003C51.177,76.494,51.177,76.494,51.177,76.496 M51.243,76.118c0,0,0.001-0.007,0.003-0.011
		C51.245,76.111,51.245,76.115,51.243,76.118"/>
	<g>
		
			<linearGradient id="SVGID_8_" gradientUnits="userSpaceOnUse" x1="308.2207" y1="-338.438" x2="308.2207" y2="-290.0083" gradientTransform="matrix(1 0 0 -1 -237.5996 -239.9004)">
			<stop  offset="0" style="stop-color:#FEDF34"/>
			<stop  offset="0.1758" style="stop-color:#FECD26"/>
			<stop  offset="0.4969" style="stop-color:#FFB211"/>
			<stop  offset="0.782" style="stop-color:#FFA204"/>
			<stop  offset="1" style="stop-color:#FF9C00"/>
		</linearGradient>
		<path fill="url(#SVGID_8_)" d="M59.258,68.501l-0.154,0.019l-0.336,0.047c-0.232,0.037-0.469,0.08-0.707,0.127
			c-0.476,0.096-0.953,0.213-1.419,0.351c-0.938,0.269-1.831,0.622-2.65,1.034c-0.825,0.41-1.553,0.902-2.183,1.441
			c-0.628,0.545-1.148,1.144-1.557,1.799c-0.408,0.654-0.709,1.371-0.906,2.162c-0.064,0.19-0.085,0.403-0.128,0.607
			c-0.018,0.104-0.043,0.203-0.058,0.307l-0.034,0.322c-0.021,0.217-0.056,0.426-0.055,0.653l-0.022,0.69v7.201v13.276H41V85.264
			v-7.203c0-0.067,0.003-0.168,0.006-0.261l0.01-0.282l0.019-0.564c0.005-0.373,0.055-0.76,0.095-1.141l0.065-0.574
			c0.027-0.189,0.067-0.383,0.103-0.575c0.075-0.386,0.133-0.769,0.247-1.154c0.383-1.536,1.012-3.063,1.875-4.444
			c0.86-1.383,1.941-2.609,3.129-3.633c1.19-1.025,2.478-1.867,3.8-2.531c1.325-0.666,2.676-1.19,4.047-1.586
			c0.685-0.197,1.374-0.369,2.075-0.51c0.351-0.07,0.705-0.136,1.065-0.191l0.554-0.078l0.293-0.035l0.365-0.034l0.114-0.011h0.183
			H91.88v8.047L59.258,68.501L59.258,68.501z M99.658,64.98L82.591,77.564l-1.624-1.059V51.479l1.602-1.166l17.173,12.81
			L99.658,64.98L99.658,64.98z M82.023,52.267c-0.596,0-1.08-0.484-1.08-1.08s0.484-1.079,1.08-1.079
			c0.598,0,1.082,0.483,1.082,1.079S82.621,52.267,82.023,52.267L82.023,52.267z M82.023,77.796c-0.596,0-1.08-0.483-1.08-1.079
			c0-0.598,0.484-1.078,1.08-1.078c0.598,0,1.082,0.48,1.082,1.078C83.105,77.313,82.621,77.796,82.023,77.796L82.023,77.796z
			 M99.162,65.098c-0.598,0-1.081-0.482-1.081-1.078c0-0.597,0.483-1.08,1.081-1.08c0.596,0,1.079,0.483,1.079,1.08
			C100.241,64.615,99.758,65.098,99.162,65.098L99.162,65.098z"/>
	</g>
</g>
<g id="red">
	<path fill="#7B7B7B" d="M66.01,73.471c-3.314,0-6.001,2.686-6.001,6v25.03h-39v-25.03c0-3.314-2.687-6-5.999-6H12v-49h3.01
		c3.313,0,5.999-2.687,5.999-6.001v-2.969h39v2.969c0,3.314,2.687,6.001,6.001,6.001h42v49H66.01z"/>
	
		<radialGradient id="SVGID_9_" cx="297.5996" cy="-299.9014" r="46.2821" gradientTransform="matrix(1 0 0 -1 -237.5996 -239.9004)" gradientUnits="userSpaceOnUse">
		<stop  offset="0.14" style="stop-color:#AEAEAE"/>
		<stop  offset="0.96" style="stop-color:#CBCBCB"/>
	</radialGradient>
	<path fill="url(#SVGID_9_)" d="M23.009,104.501c0-3.431,0-25.03,0-25.03c0-4.412-3.588-8-7.999-8c0,0-1.566,0-3.009,0
		c0-3.523,0-41.476,0-45c1.443,0,3.009,0,3.009,0c4.411,0,7.999-3.589,7.999-8.001c0,0,0-1.54,0-2.969c3.407,0,31.594,0,35,0
		c0,1.429,0,2.969,0,2.969c0,4.412,3.589,8.001,8.001,8.001c0,0,41.967,0,41.988,0c0,4.076,0,40.923,0,45
		c-0.021,0-41.988,0-41.988,0c-4.412,0-8.001,3.588-8.001,8c0,0,0,21.6,0,25.03C54.603,104.501,26.416,104.501,23.009,104.501"/>
	<path fill="#4E4E4E" d="M58,57.467c-1.103,0-2-0.896-2-1.999s0.897-2,2-2h49.986v3.999H58"/>
	<path fill="#FFFFFF" d="M107.986,56.467H58c-0.552,0-1-0.447-1-1c0-0.553,0.447-1,1-1h49.986V56.467L107.986,56.467z"/>
	<path fill-opacity="0.1" d="M43.001,102.539c-1.105,0-2-0.895-2-2V87.264v-7.203v-0.039l0.006-0.307c0-0.002,0-0.002,0-0.002
		s0,0.016,0,0.018l0.01-0.28l0.019-0.563l-0.001,0.041c0.006-0.404,0.048-0.791,0.085-1.134l0.021-0.188
		c0-0.006,0.001-0.015,0.001-0.02l0.066-0.572c0.005-0.039,0.001-0.019,0.008-0.058l0.088-0.511l0.027-0.143l0.003-0.023l0.048-0.25
		c0.056-0.307,0.12-0.653,0.226-1.025c0.442-1.763,1.172-3.49,2.116-5c0.938-1.509,2.124-2.886,3.52-4.089
		c1.276-1.101,2.694-2.043,4.209-2.804c1.409-0.709,2.887-1.286,4.391-1.719c0.761-0.222,1.494-0.4,2.234-0.551
		c0.399-0.08,0.775-0.146,1.152-0.205c0.009-0.002,0.018-0.004,0.027-0.004l0.554-0.078c0.015-0.004,0.027-0.006,0.042-0.007
		l0.293-0.034c0.018-0.002,0.037-0.004,0.054-0.008l0.364-0.033l-0.012,0.001l0.113-0.011c0.064-0.006,0.131-0.01,0.197-0.01h0.182
		c0,0,16.618,0,19.922,0c0-2.391,0-6.789,0-6.901c-0.015-0.122-0.021-0.243-0.021-0.365c0-1.697,1.382-3.08,3.08-3.08
		c0.865,0,1.688,0.367,2.268,0.996c1.993,1.486,15.234,11.364,16.467,12.282c0.92,0.559,1.482,1.545,1.482,2.633
		c0,1.074-0.553,2.058-1.455,2.615c-0.117,0.088-16.075,11.854-16.475,12.146c-0.58,0.643-1.408,1.018-2.287,1.018
		c-1.698,0-3.08-1.383-3.08-3.08c0-0.123,0.007-0.248,0.021-0.371c0-0.222,0-3.65,0-5.845c-3.277,0-19.385,0-19.593,0
		c-0.017,0.002-0.042,0.005-0.042,0.005c-0.072,0.01-0.234,0.034-0.264,0.037c-0.023,0.005-0.609,0.109-0.609,0.109
		c-0.415,0.082-0.834,0.188-1.256,0.311c-0.802,0.229-1.577,0.531-2.314,0.9c-0.649,0.322-1.245,0.717-1.778,1.175l0.008-0.009
		c-0.479,0.416-0.873,0.869-1.169,1.347c-0.299,0.479-0.517,0.999-0.663,1.588c-0.006,0.026-0.027,0.097-0.038,0.138
		c0.003-0.011,0.004-0.021,0.004-0.021l-0.025,0.138c0,0-0.025,0.135-0.04,0.215v-0.002v0.004c0,0.004-0.001,0.006-0.001,0.01v0.002
		c-0.002,0.005-0.003,0.011-0.003,0.015c-0.001,0.006-0.003,0.013-0.005,0.022c0-0.002,0.003-0.008,0.003-0.01
		c-0.001,0.006-0.006,0.029-0.006,0.029s0-0.002,0-0.003c-0.011,0.054-0.022,0.114-0.022,0.114s-0.006,0.031-0.01,0.049
		c-0.008,0.08-0.027,0.261-0.027,0.261l0.002-0.013l-0.022,0.208c-0.011,0.095-0.022,0.19-0.022,0.235v0.015
		c0,0.022,0,0.044-0.002,0.065c0,0-0.018,0.557-0.021,0.641c0,0.031,0,7.188,0,7.188v13.275c0,1.105-0.896,2-2,2H43.001
		 M53.177,78.496c0-0.002,0-0.002,0-0.003C53.177,78.494,53.177,78.494,53.177,78.496 M53.243,78.118c0,0,0.001-0.007,0.003-0.011
		C53.245,78.111,53.245,78.115,53.243,78.118"/>
	<path fill="#940202" d="M41.001,100.539c-1.105,0-2-0.895-2-2V85.264v-7.203v-0.039l0.006-0.307c0-0.002,0-0.002,0-0.002
		s0,0.016,0,0.018l0.01-0.28l0.019-0.563l-0.001,0.041c0.006-0.404,0.048-0.791,0.085-1.134l0.021-0.188
		c0-0.006,0.001-0.015,0.001-0.02l0.066-0.572c0.005-0.039,0.001-0.019,0.008-0.058l0.088-0.511l0.027-0.143l0.003-0.023l0.048-0.25
		c0.056-0.307,0.12-0.653,0.226-1.025c0.442-1.763,1.172-3.49,2.116-5c0.938-1.509,2.124-2.886,3.52-4.089
		c1.276-1.101,2.694-2.043,4.209-2.804c1.409-0.708,2.887-1.286,4.391-1.719c0.761-0.221,1.494-0.4,2.234-0.549
		c0.399-0.08,0.775-0.147,1.152-0.207c0.009-0.001,0.018-0.003,0.027-0.003l0.554-0.079c0.015-0.003,0.027-0.005,0.042-0.006
		l0.293-0.035c0.018-0.002,0.037-0.003,0.054-0.007l0.365-0.033l-0.013,0.001l0.114-0.011c0.065-0.006,0.131-0.01,0.197-0.01h0.183
		c0,0,16.618,0,19.921,0c0-2.391,0-6.789,0-6.901c-0.015-0.122-0.021-0.243-0.021-0.365c0-1.697,1.382-3.08,3.08-3.08
		c0.865,0,1.688,0.367,2.268,0.996c1.993,1.486,15.234,11.364,16.467,12.282c0.92,0.559,1.482,1.545,1.482,2.633
		c0,1.074-0.553,2.058-1.455,2.615c-0.117,0.088-16.075,11.854-16.475,12.146c-0.58,0.643-1.408,1.018-2.287,1.018
		c-1.698,0-3.08-1.383-3.08-3.08c0-0.123,0.007-0.248,0.021-0.371c0-0.222,0-3.65,0-5.845c-3.277,0-19.385,0-19.593,0
		c-0.016,0.002-0.042,0.005-0.042,0.005c-0.072,0.01-0.235,0.034-0.263,0.037c-0.024,0.005-0.61,0.109-0.61,0.109
		c-0.415,0.082-0.834,0.188-1.256,0.311c-0.802,0.229-1.577,0.531-2.314,0.9c-0.649,0.322-1.245,0.717-1.778,1.175l0.008-0.009
		c-0.479,0.416-0.873,0.869-1.169,1.347c-0.299,0.479-0.517,0.999-0.663,1.588c-0.006,0.026-0.027,0.097-0.038,0.138
		c0.003-0.011,0.004-0.021,0.004-0.021l-0.025,0.138c0,0-0.025,0.135-0.04,0.215v-0.002v0.004c0,0.004-0.001,0.006-0.001,0.01v0.002
		c-0.002,0.005-0.003,0.011-0.003,0.015c-0.001,0.006-0.003,0.013-0.005,0.022c0-0.002,0.003-0.008,0.003-0.01
		c-0.001,0.006-0.006,0.029-0.006,0.029s0-0.002,0-0.003c-0.011,0.054-0.022,0.114-0.022,0.114s-0.006,0.031-0.01,0.049
		c-0.008,0.08-0.027,0.261-0.027,0.261l0.002-0.013l-0.022,0.208c-0.011,0.095-0.022,0.19-0.022,0.235v0.015
		c0,0.022,0,0.044-0.002,0.065c0,0-0.018,0.557-0.021,0.641c0,0.031,0,7.188,0,7.188v13.275c0,1.105-0.896,2-2,2H41.001
		 M51.177,76.496c0-0.002,0-0.002,0-0.003C51.177,76.494,51.177,76.494,51.177,76.496 M51.243,76.118c0,0,0.001-0.007,0.003-0.011
		C51.245,76.111,51.245,76.115,51.243,76.118"/>
	<g>
		
			<linearGradient id="SVGID_10_" gradientUnits="userSpaceOnUse" x1="308.2207" y1="-338.438" x2="308.2207" y2="-290.0083" gradientTransform="matrix(1 0 0 -1 -237.5996 -239.9004)">
			<stop  offset="0" style="stop-color:#FF0000"/>
			<stop  offset="0.1758" style="stop-color:#F60303"/>
			<stop  offset="0.4969" style="stop-color:#EC0404"/>
			<stop  offset="0.782" style="stop-color:#E30101"/>
			<stop  offset="1" style="stop-color:#D60202"/>
		</linearGradient>
		<path fill="url(#SVGID_10_)" d="M59.258,68.501l-0.154,0.019l-0.336,0.047c-0.232,0.037-0.469,0.08-0.707,0.127
			c-0.476,0.096-0.953,0.213-1.419,0.351c-0.938,0.269-1.831,0.622-2.65,1.034c-0.825,0.41-1.553,0.902-2.183,1.441
			c-0.628,0.545-1.148,1.144-1.557,1.799c-0.408,0.654-0.709,1.371-0.906,2.162c-0.064,0.19-0.085,0.403-0.128,0.607
			c-0.018,0.104-0.043,0.203-0.058,0.307l-0.034,0.322c-0.021,0.217-0.056,0.426-0.055,0.653l-0.022,0.69v7.201v13.276H41V85.264
			v-7.203c0-0.067,0.003-0.168,0.006-0.261l0.01-0.282l0.019-0.564c0.005-0.373,0.055-0.76,0.095-1.141l0.065-0.574
			c0.027-0.189,0.067-0.383,0.103-0.575c0.075-0.386,0.133-0.769,0.247-1.154c0.383-1.536,1.012-3.063,1.875-4.444
			c0.86-1.383,1.941-2.609,3.129-3.633c1.19-1.025,2.478-1.867,3.8-2.531c1.325-0.666,2.676-1.19,4.047-1.586
			c0.685-0.197,1.374-0.369,2.075-0.51c0.351-0.07,0.705-0.136,1.065-0.191l0.554-0.078l0.293-0.035l0.365-0.034l0.114-0.011h0.183
			H91.88v8.047L59.258,68.501L59.258,68.501z M99.658,64.98L82.591,77.564l-1.624-1.059V51.479l1.602-1.166l17.173,12.81
			L99.658,64.98L99.658,64.98z M82.023,52.267c-0.596,0-1.08-0.484-1.08-1.08s0.484-1.079,1.08-1.079
			c0.598,0,1.082,0.483,1.082,1.079S82.621,52.267,82.023,52.267L82.023,52.267z M82.023,77.796c-0.596,0-1.08-0.483-1.08-1.079
			c0-0.598,0.484-1.078,1.08-1.078c0.598,0,1.082,0.48,1.082,1.078C83.105,77.313,82.621,77.796,82.023,77.796L82.023,77.796z
			 M99.162,65.098c-0.598,0-1.081-0.482-1.081-1.078c0-0.597,0.483-1.08,1.081-1.08c0.596,0,1.079,0.483,1.079,1.08
			C100.241,64.615,99.758,65.098,99.162,65.098L99.162,65.098z"/>
	</g>
</g>
</svg>
