<?xml version="1.0" encoding="utf-8"?>
<!-- Generator: Adobe Illustrator 16.0.2, SVG Export Plug-In . SVG Version: 6.00 Build 0)  -->
<!DOCTYPE svg PUBLIC "-//W3C//DTD SVG 1.1//EN" "http://www.w3.org/Graphics/SVG/1.1/DTD/svg11.dtd">
<svg version="1.1" id="Layer_1" xmlns="http://www.w3.org/2000/svg" xmlns:xlink="http://www.w3.org/1999/xlink" x="0px" y="0px"
	 width="120px" height="120px" viewBox="0 0 120 120" enable-background="new 0 0 120 120" xml:space="preserve">
<g id="black_white">
	<g>
		<path fill="#3A3A3A" d="M100.48,19.81l-41.352,0.026c-1.54,0.001-2.422,1.754-1.506,2.992l8.445,11.404L51.24,45.215l-2.011,1.49
			L21.872,66.966l0.007,0.009c-2.566,1.904-4.237,4.947-4.237,8.389v26.851h20.9V80.628l8.86-6.562l1.613-1.195L78.51,51.026
			l8.387,11.324c0.916,1.237,2.852,0.904,3.301-0.567l12.08-39.548C102.645,21.027,101.742,19.809,100.48,19.81z"/>
		<path fill="#3A3A3A" d="M51.24,25.441h-3.839V14.399h3.839V25.441z M47.401,35.662v11.042h1.827h2.011v-1.49v-9.553L47.401,35.662
			L47.401,35.662z M47.401,105.602h3.839V94.559h-3.839V105.602z M49.014,72.871h-1.613v1.195v9.846h3.839v-11.04L49.014,72.871
			L49.014,72.871z"/>
	</g>
</g>
<g id="blue">
	<path fill="#4E4E4E" d="M45.172,102.229c-1.105,0-2-0.896-2-2V88.654c0-1.104,0.895-2,2-2h4.961c1.105,0,2,0.896,2,2v11.574
		c0,1.104-0.895,2-2,2H45.172 M45.172,84.041c-1.105,0-2-0.896-2-2V70.465c0-1.105,0.895-2,2-2h4.961c1.105,0,2,0.895,2,2v11.576
		c0,1.104-0.895,2-2,2H45.172 M45.172,65.852c-1.105,0-2-0.896-2-2V52.275c0-1.105,0.895-2,2-2h4.961c1.105,0,2,0.896,2,2v11.577
		c0,1.104-0.895,2-2,2H45.172 M45.172,47.661c-1.105,0-2-0.896-2-2V34.086c0-1.105,0.895-2,2-2h4.961c1.105,0,2,0.895,2,2V45.66
		c0,1.105-0.895,2-2,2L45.172,47.661 M45.172,29.471c-1.105,0-2-0.895-2-2V15.896c0-1.105,0.895-2,2-2h4.961c1.105,0,2,0.896,2,2
		V27.47c0,1.105-0.895,2-2,2L45.172,29.471"/>
	<path fill="#FFFFFF" d="M45.172,100.229V88.654h4.961v11.574H45.172L45.172,100.229z M45.172,82.041V70.465h4.961v11.576H45.172
		L45.172,82.041z M45.172,63.852V52.275h4.961v11.577H45.172L45.172,63.852z M45.172,45.661V34.086h4.961V45.66L45.172,45.661
		L45.172,45.661z M45.172,27.471V15.896h4.961V27.47L45.172,27.471L45.172,27.471z"/>
	<path fill-opacity="0.1" d="M16.989,105.796c-0.796,0-1.558-0.315-2.122-0.88c-0.562-0.563-0.877-1.324-0.877-2.12
		c0,0,0.003-19.55,0.003-19.69c0-0.002-0.009-0.939-0.009-0.939c0-6.007,1.201-10.254,3.568-12.623
		c4.17-4.17,21.201-15.501,26.366-18.904c6.002-4.237,15.869-11.196,21.313-15.023c-2.156-3.118-6.667-9.638-6.797-9.826
		c-0.109-0.115-0.228-0.254-0.344-0.419c-0.001-0.003-0.005-0.008-0.008-0.011c-0.594-0.858-0.908-1.862-0.908-2.905
		c0-1.677,0.823-3.246,2.202-4.199c0.832-0.576,1.814-0.882,2.839-0.882c0.378,0,0.757,0.042,1.13,0.125
		c0.674,0.019,40.362,1.156,40.362,1.156c0.067,0.001,0.133,0.006,0.198,0.013c1.673,0,3.234,0.811,4.179,2.167
		c0.582,0.841,0.888,1.824,0.888,2.848c0,0.538-0.082,1.068-0.248,1.582c-0.02,0.08-0.041,0.16-0.068,0.239
		c0,0-12.87,38.063-13.066,38.646c-0.213,1.394-0.963,2.617-2.107,3.406c-0.854,0.59-1.857,0.904-2.898,0.904
		c-1.676,0-3.243-0.82-4.197-2.197c-0.002-0.002-0.003-0.007-0.007-0.01c-0.116-0.171-0.211-0.336-0.286-0.49
		c-0.005-0.008-4.665-6.742-6.859-9.917c-3.98,2.792-11.146,7.838-21.382,15.061c-0.095,0.086-0.194,0.166-0.301,0.24l-4.766,3.334
		l0.013-0.008l-4.8,3.389c-0.112,0.078-0.229,0.148-0.349,0.212C47.092,78.456,44,80.618,44,80.618s-2.542,1.776-4.014,2.808
		c0,2.676,0,19.37,0,19.37c0,1.657-1.342,3-3,3H16.989"/>
	<path fill="#00598C" d="M14.989,103.796c-0.796,0-1.558-0.315-2.122-0.88c-0.562-0.563-0.877-1.324-0.877-2.12
		c0,0,0.003-19.55,0.003-19.69c0-0.002-0.009-0.939-0.009-0.939c0-6.007,1.201-10.254,3.568-12.623
		c4.17-4.17,21.201-15.501,26.366-18.904c6.002-4.237,15.868-11.196,21.313-15.023c-2.156-3.118-6.667-9.638-6.797-9.826
		c-0.109-0.115-0.228-0.254-0.344-0.419c-0.001-0.003-0.005-0.008-0.008-0.011c-0.594-0.858-0.908-1.862-0.908-2.905
		c0-1.677,0.823-3.246,2.202-4.199c0.833-0.576,1.815-0.882,2.839-0.882c0.378,0,0.757,0.042,1.13,0.125
		c0.674,0.019,40.362,1.156,40.362,1.156c0.067,0.001,0.133,0.006,0.198,0.013c1.673,0,3.234,0.811,4.179,2.167
		c0.582,0.841,0.888,1.824,0.888,2.848c0,0.538-0.082,1.068-0.248,1.582c-0.02,0.08-0.041,0.16-0.068,0.239
		c0,0-12.87,38.063-13.066,38.646c-0.213,1.394-0.963,2.617-2.107,3.406c-0.854,0.59-1.857,0.904-2.898,0.904
		c-1.676,0-3.243-0.82-4.197-2.197c-0.002-0.002-0.003-0.007-0.007-0.01c-0.116-0.171-0.211-0.336-0.286-0.49
		c-0.005-0.008-4.665-6.744-6.859-9.917c-3.98,2.793-11.146,7.838-21.382,15.061c-0.095,0.086-0.194,0.166-0.301,0.24l-4.766,3.334
		l0.013-0.008l-4.8,3.389c-0.112,0.078-0.229,0.148-0.349,0.212C45.092,76.456,42,78.618,42,78.618s-2.542,1.776-4.014,2.808
		c0,2.676,0,19.37,0,19.37c0,1.657-1.342,3-3,3H14.989"/>
	<g>
		
			<linearGradient id="SVGID_1_" gradientUnits="userSpaceOnUse" x1="297.0762" y1="-340.6958" x2="297.0762" y2="-258.271" gradientTransform="matrix(1 0 0 -1 -237.5996 -239.9004)">
			<stop  offset="0" style="stop-color:#48A2FB"/>
			<stop  offset="0.1758" style="stop-color:#059CF4"/>
			<stop  offset="0.4969" style="stop-color:#0398EF"/>
			<stop  offset="0.782" style="stop-color:#0293E7"/>
			<stop  offset="1" style="stop-color:#0189D8"/>
		</linearGradient>
		<path fill="url(#SVGID_1_)" d="M103.799,22.527l0.01,0.013L90.643,61.482c-0.037,0.621-0.316,1.22-0.869,1.602
			c-0.955,0.661-2.265,0.422-2.926-0.531c-0.105-0.154-0.15-0.324-0.211-0.492l-0.078-0.002L58.814,21.961l0.016-0.039
			c-0.094-0.093-0.207-0.162-0.285-0.274c-0.661-0.956-0.422-2.266,0.533-2.927c0.561-0.388,1.23-0.433,1.834-0.237l40.706,1.166
			l0.022,0.03c0.748-0.088,1.518,0.204,1.978,0.865C104.038,21.153,104.059,21.891,103.799,22.527L103.799,22.527z M14.989,100.796
			l0.003-20.409l19.995-8.957v29.366H14.989L14.989,100.796z M29.05,84.016c-0.392,0.158-13.975-1.254-13.975-1.254
			s-0.854-9.646,2.598-13.098c4.547-4.548,26.56-18.958,26.56-18.958l9.593,15.983C53.826,66.688,35.52,79.491,29.05,84.016
			L29.05,84.016z M78.422,49.351c-5.285,3.666-34.161,24.058-34.161,24.058L34.67,57.425c0,0,26.318-18.589,32.789-23.115
			c0.391-0.157,13.813,2.465,13.813,2.465S86.572,43.695,78.422,49.351L78.422,49.351z"/>
	</g>
	
		<linearGradient id="SVGID_2_" gradientUnits="userSpaceOnUse" x1="333.9727" y1="-290.3545" x2="333.9727" y2="-259.5625" gradientTransform="matrix(1 0 0 -1 -237.5996 -239.9004)">
		<stop  offset="0" style="stop-color:#FFFFFF;stop-opacity:0"/>
		<stop  offset="1" style="stop-color:#FFFFFF;stop-opacity:0.8"/>
	</linearGradient>
	<path fill="url(#SVGID_2_)" d="M103.766,19.662c0,0-12.195,0.506-15.42,0c11.551,15.423,5.655,30.792,5.655,30.792l10.397-29.681
		L103.766,19.662L103.766,19.662z"/>
</g>
<g id="green">
	<path fill="#4E4E4E" d="M45.172,102.229c-1.105,0-2-0.896-2-2V88.654c0-1.104,0.895-2,2-2h4.961c1.105,0,2,0.896,2,2v11.574
		c0,1.104-0.895,2-2,2H45.172 M45.172,84.041c-1.105,0-2-0.896-2-2V70.465c0-1.105,0.895-2,2-2h4.961c1.105,0,2,0.895,2,2v11.576
		c0,1.104-0.895,2-2,2H45.172 M45.172,65.852c-1.105,0-2-0.896-2-2V52.275c0-1.105,0.895-2,2-2h4.961c1.105,0,2,0.896,2,2v11.577
		c0,1.104-0.895,2-2,2H45.172 M45.172,47.661c-1.105,0-2-0.896-2-2V34.086c0-1.105,0.895-2,2-2h4.961c1.105,0,2,0.895,2,2V45.66
		c0,1.105-0.895,2-2,2L45.172,47.661 M45.172,29.471c-1.105,0-2-0.895-2-2V15.896c0-1.105,0.895-2,2-2h4.961c1.105,0,2,0.896,2,2
		V27.47c0,1.105-0.895,2-2,2L45.172,29.471"/>
	<path fill="#FFFFFF" d="M45.172,100.229V88.654h4.961v11.574H45.172L45.172,100.229z M45.172,82.041V70.465h4.961v11.576H45.172
		L45.172,82.041z M45.172,63.852V52.275h4.961v11.577H45.172L45.172,63.852z M45.172,45.661V34.086h4.961V45.66L45.172,45.661
		L45.172,45.661z M45.172,27.471V15.896h4.961V27.47L45.172,27.471L45.172,27.471z"/>
	<path fill-opacity="0.1" d="M16.989,105.796c-0.796,0-1.558-0.315-2.122-0.88c-0.562-0.563-0.877-1.324-0.877-2.12
		c0,0,0.003-19.55,0.003-19.69c0-0.002-0.009-0.939-0.009-0.939c0-6.007,1.201-10.254,3.568-12.623
		c4.17-4.17,21.201-15.501,26.366-18.904c6.002-4.237,15.869-11.196,21.313-15.023c-2.156-3.118-6.667-9.638-6.797-9.826
		c-0.109-0.115-0.228-0.254-0.344-0.419c-0.001-0.003-0.005-0.008-0.008-0.011c-0.594-0.858-0.908-1.862-0.908-2.905
		c0-1.677,0.823-3.246,2.202-4.199c0.832-0.576,1.814-0.882,2.839-0.882c0.378,0,0.757,0.042,1.13,0.125
		c0.674,0.019,40.362,1.156,40.362,1.156c0.067,0.001,0.133,0.006,0.198,0.013c1.673,0,3.234,0.811,4.179,2.167
		c0.582,0.841,0.888,1.824,0.888,2.848c0,0.538-0.082,1.068-0.248,1.582c-0.02,0.08-0.041,0.16-0.068,0.239
		c0,0-12.87,38.063-13.066,38.646c-0.213,1.394-0.963,2.617-2.107,3.406c-0.854,0.59-1.857,0.904-2.898,0.904
		c-1.676,0-3.243-0.82-4.197-2.197c-0.002-0.002-0.003-0.007-0.007-0.01c-0.116-0.171-0.211-0.336-0.286-0.49
		c-0.005-0.008-4.665-6.742-6.859-9.917c-3.98,2.792-11.146,7.838-21.382,15.061c-0.095,0.086-0.194,0.166-0.301,0.24l-4.766,3.334
		l0.013-0.008l-4.8,3.389c-0.112,0.078-0.229,0.148-0.349,0.212C47.092,78.456,44,80.618,44,80.618s-2.542,1.776-4.014,2.808
		c0,2.676,0,19.37,0,19.37c0,1.657-1.342,3-3,3H16.989"/>
	<path fill="#015911" d="M14.989,103.796c-0.796,0-1.558-0.315-2.122-0.88c-0.562-0.563-0.877-1.324-0.877-2.12
		c0,0,0.003-19.55,0.003-19.69c0-0.002-0.009-0.939-0.009-0.939c0-6.007,1.201-10.254,3.568-12.623
		c4.17-4.17,21.201-15.501,26.366-18.904c6.002-4.237,15.868-11.196,21.313-15.023c-2.156-3.118-6.667-9.638-6.797-9.826
		c-0.109-0.115-0.228-0.254-0.344-0.419c-0.001-0.003-0.005-0.008-0.008-0.011c-0.594-0.858-0.908-1.862-0.908-2.905
		c0-1.677,0.823-3.246,2.202-4.199c0.833-0.576,1.815-0.882,2.839-0.882c0.378,0,0.757,0.042,1.13,0.125
		c0.674,0.019,40.362,1.156,40.362,1.156c0.067,0.001,0.133,0.006,0.198,0.013c1.673,0,3.234,0.811,4.179,2.167
		c0.582,0.841,0.888,1.824,0.888,2.848c0,0.538-0.082,1.068-0.248,1.582c-0.02,0.08-0.041,0.16-0.068,0.239
		c0,0-12.87,38.063-13.066,38.646c-0.213,1.394-0.963,2.617-2.107,3.406c-0.854,0.59-1.857,0.904-2.898,0.904
		c-1.676,0-3.243-0.82-4.197-2.197c-0.002-0.002-0.003-0.007-0.007-0.01c-0.116-0.171-0.211-0.336-0.286-0.49
		c-0.005-0.008-4.665-6.744-6.859-9.917c-3.98,2.793-11.146,7.838-21.382,15.061c-0.095,0.086-0.194,0.166-0.301,0.24l-4.766,3.334
		l0.013-0.008l-4.8,3.389c-0.112,0.078-0.229,0.148-0.349,0.212C45.092,76.456,42,78.618,42,78.618s-2.542,1.776-4.014,2.808
		c0,2.676,0,19.37,0,19.37c0,1.657-1.342,3-3,3H14.989"/>
	<g>
		
			<linearGradient id="SVGID_3_" gradientUnits="userSpaceOnUse" x1="297.0762" y1="-340.6958" x2="297.0762" y2="-258.271" gradientTransform="matrix(1 0 0 -1 -237.5996 -239.9004)">
			<stop  offset="0" style="stop-color:#00DF34"/>
			<stop  offset="0.1758" style="stop-color:#00CD26"/>
			<stop  offset="0.4969" style="stop-color:#00B211"/>
			<stop  offset="0.782" style="stop-color:#00A204"/>
			<stop  offset="1" style="stop-color:#009C00"/>
		</linearGradient>
		<path fill="url(#SVGID_3_)" d="M103.799,22.527l0.01,0.013L90.643,61.482c-0.037,0.621-0.316,1.22-0.869,1.602
			c-0.955,0.661-2.265,0.422-2.926-0.531c-0.105-0.154-0.15-0.324-0.211-0.492l-0.078-0.002L58.814,21.961l0.016-0.039
			c-0.094-0.093-0.207-0.162-0.285-0.274c-0.661-0.956-0.422-2.266,0.533-2.927c0.561-0.388,1.23-0.433,1.834-0.237l40.706,1.166
			l0.022,0.03c0.748-0.088,1.518,0.204,1.978,0.865C104.038,21.153,104.059,21.891,103.799,22.527L103.799,22.527z M14.989,100.796
			l0.003-20.409l19.995-8.957v29.366H14.989L14.989,100.796z M29.05,84.016c-0.392,0.158-13.975-1.254-13.975-1.254
			s-0.854-9.646,2.598-13.098c4.547-4.548,26.56-18.958,26.56-18.958l9.593,15.983C53.826,66.688,35.52,79.491,29.05,84.016
			L29.05,84.016z M78.422,49.351c-5.285,3.666-34.161,24.058-34.161,24.058L34.67,57.425c0,0,26.318-18.589,32.789-23.115
			c0.391-0.157,13.813,2.465,13.813,2.465S86.572,43.695,78.422,49.351L78.422,49.351z"/>
	</g>
	
		<linearGradient id="SVGID_4_" gradientUnits="userSpaceOnUse" x1="333.9727" y1="-290.3545" x2="333.9727" y2="-259.5625" gradientTransform="matrix(1 0 0 -1 -237.5996 -239.9004)">
		<stop  offset="0" style="stop-color:#FFFFFF;stop-opacity:0"/>
		<stop  offset="1" style="stop-color:#FFFFFF;stop-opacity:0.8"/>
	</linearGradient>
	<path fill="url(#SVGID_4_)" d="M103.766,19.662c0,0-12.195,0.506-15.42,0c11.551,15.423,5.655,30.792,5.655,30.792l10.397-29.681
		L103.766,19.662L103.766,19.662z"/>
</g>
<g id="kia">
	<path fill="#4E4E4E" d="M45.172,102.229c-1.105,0-2-0.896-2-2V88.654c0-1.104,0.895-2,2-2h4.961c1.105,0,2,0.896,2,2v11.574
		c0,1.104-0.895,2-2,2H45.172 M45.172,84.041c-1.105,0-2-0.896-2-2V70.465c0-1.105,0.895-2,2-2h4.961c1.105,0,2,0.895,2,2v11.576
		c0,1.104-0.895,2-2,2H45.172 M45.172,65.852c-1.105,0-2-0.896-2-2V52.275c0-1.105,0.895-2,2-2h4.961c1.105,0,2,0.896,2,2v11.577
		c0,1.104-0.895,2-2,2H45.172 M45.172,47.661c-1.105,0-2-0.896-2-2V34.086c0-1.105,0.895-2,2-2h4.961c1.105,0,2,0.895,2,2V45.66
		c0,1.105-0.895,2-2,2L45.172,47.661 M45.172,29.471c-1.105,0-2-0.895-2-2V15.896c0-1.105,0.895-2,2-2h4.961c1.105,0,2,0.896,2,2
		V27.47c0,1.105-0.895,2-2,2L45.172,29.471"/>
	<path fill="#FFFFFF" d="M45.172,100.229V88.654h4.961v11.574H45.172L45.172,100.229z M45.172,82.041V70.465h4.961v11.576H45.172
		L45.172,82.041z M45.172,63.852V52.275h4.961v11.577H45.172L45.172,63.852z M45.172,45.661V34.086h4.961V45.66L45.172,45.661
		L45.172,45.661z M45.172,27.471V15.896h4.961V27.47L45.172,27.471L45.172,27.471z"/>
	<path fill-opacity="0.1" d="M16.989,105.796c-0.796,0-1.558-0.315-2.122-0.88c-0.562-0.563-0.877-1.324-0.877-2.12
		c0,0,0.003-19.55,0.003-19.69c0-0.002-0.009-0.939-0.009-0.939c0-6.007,1.201-10.254,3.568-12.623
		c4.17-4.17,21.201-15.501,26.366-18.904c6.002-4.237,15.869-11.196,21.313-15.023c-2.156-3.118-6.667-9.638-6.797-9.826
		c-0.109-0.115-0.228-0.254-0.344-0.419c-0.001-0.003-0.005-0.008-0.008-0.011c-0.594-0.858-0.908-1.862-0.908-2.905
		c0-1.677,0.823-3.246,2.202-4.199c0.832-0.576,1.814-0.882,2.839-0.882c0.378,0,0.757,0.042,1.13,0.125
		c0.674,0.019,40.362,1.156,40.362,1.156c0.067,0.001,0.133,0.006,0.198,0.013c1.673,0,3.234,0.811,4.179,2.167
		c0.582,0.841,0.888,1.824,0.888,2.848c0,0.538-0.082,1.068-0.248,1.582c-0.02,0.08-0.041,0.16-0.068,0.239
		c0,0-12.87,38.063-13.066,38.646c-0.213,1.394-0.963,2.617-2.107,3.406c-0.854,0.59-1.857,0.904-2.898,0.904
		c-1.676,0-3.243-0.82-4.197-2.197c-0.002-0.002-0.003-0.007-0.007-0.01c-0.116-0.171-0.211-0.336-0.286-0.49
		c-0.005-0.008-4.665-6.742-6.859-9.917c-3.98,2.792-11.146,7.838-21.382,15.061c-0.095,0.086-0.194,0.166-0.301,0.24l-4.766,3.334
		l0.013-0.008l-4.8,3.389c-0.112,0.078-0.229,0.148-0.349,0.212C47.092,78.456,44,80.618,44,80.618s-2.542,1.776-4.014,2.808
		c0,2.676,0,19.37,0,19.37c0,1.657-1.342,3-3,3H16.989"/>
	<path fill="#9E171E" d="M14.989,103.796c-0.796,0-1.558-0.315-2.122-0.88c-0.562-0.563-0.877-1.324-0.877-2.12
		c0,0,0.003-19.55,0.003-19.69c0-0.002-0.009-0.939-0.009-0.939c0-6.007,1.201-10.254,3.568-12.623
		c4.17-4.17,21.201-15.501,26.366-18.904c6.002-4.237,15.868-11.196,21.313-15.023c-2.156-3.118-6.667-9.638-6.797-9.826
		c-0.109-0.115-0.228-0.254-0.344-0.419c-0.001-0.003-0.005-0.008-0.008-0.011c-0.594-0.858-0.908-1.862-0.908-2.905
		c0-1.677,0.823-3.246,2.202-4.199c0.833-0.576,1.815-0.882,2.839-0.882c0.378,0,0.757,0.042,1.13,0.125
		c0.674,0.019,40.362,1.156,40.362,1.156c0.067,0.001,0.133,0.006,0.198,0.013c1.673,0,3.234,0.811,4.179,2.167
		c0.582,0.841,0.888,1.824,0.888,2.848c0,0.538-0.082,1.068-0.248,1.582c-0.02,0.08-0.041,0.16-0.068,0.239
		c0,0-12.87,38.063-13.066,38.646c-0.213,1.394-0.963,2.617-2.107,3.406c-0.854,0.59-1.857,0.904-2.898,0.904
		c-1.676,0-3.243-0.82-4.197-2.197c-0.002-0.002-0.003-0.007-0.007-0.01c-0.116-0.171-0.211-0.336-0.286-0.49
		c-0.005-0.008-4.665-6.744-6.859-9.917c-3.98,2.793-11.146,7.838-21.382,15.061c-0.095,0.086-0.194,0.166-0.301,0.24l-4.766,3.334
		l0.013-0.008l-4.8,3.389c-0.112,0.078-0.229,0.148-0.349,0.212C45.092,76.456,42,78.618,42,78.618s-2.542,1.776-4.014,2.808
		c0,2.676,0,19.37,0,19.37c0,1.657-1.342,3-3,3H14.989"/>
	<g>
		
			<linearGradient id="SVGID_5_" gradientUnits="userSpaceOnUse" x1="297.0762" y1="-340.6958" x2="297.0762" y2="-258.271" gradientTransform="matrix(1 0 0 -1 -237.5996 -239.9004)">
			<stop  offset="0" style="stop-color:#FFFFFF"/>
			<stop  offset="0.1758" style="stop-color:#E7E9EA"/>
			<stop  offset="0.4969" style="stop-color:#CDD2D5"/>
			<stop  offset="0.782" style="stop-color:#C5CACC"/>
			<stop  offset="1" style="stop-color:#BABDC0"/>
		</linearGradient>
		<path fill="url(#SVGID_5_)" d="M103.799,22.527l0.01,0.013L90.643,61.482c-0.037,0.621-0.316,1.22-0.869,1.602
			c-0.955,0.661-2.265,0.422-2.926-0.531c-0.105-0.154-0.15-0.324-0.211-0.492l-0.078-0.002L58.814,21.961l0.016-0.039
			c-0.094-0.093-0.207-0.162-0.285-0.274c-0.661-0.956-0.422-2.266,0.533-2.927c0.561-0.388,1.23-0.433,1.834-0.237l40.706,1.166
			l0.022,0.03c0.748-0.088,1.518,0.204,1.978,0.865C104.038,21.153,104.059,21.891,103.799,22.527L103.799,22.527z M14.989,100.796
			l0.003-20.409l19.995-8.957v29.366H14.989L14.989,100.796z M29.05,84.016c-0.392,0.158-13.975-1.254-13.975-1.254
			s-0.854-9.646,2.598-13.098c4.547-4.548,26.56-18.958,26.56-18.958l9.593,15.983C53.826,66.688,35.52,79.491,29.05,84.016
			L29.05,84.016z M78.422,49.351c-5.285,3.666-34.161,24.058-34.161,24.058L34.67,57.425c0,0,26.318-18.589,32.789-23.115
			c0.391-0.157,13.813,2.465,13.813,2.465S86.572,43.695,78.422,49.351L78.422,49.351z"/>
	</g>
	
		<linearGradient id="SVGID_6_" gradientUnits="userSpaceOnUse" x1="333.9727" y1="-290.3545" x2="333.9727" y2="-259.5625" gradientTransform="matrix(1 0 0 -1 -237.5996 -239.9004)">
		<stop  offset="0" style="stop-color:#FFFFFF;stop-opacity:0"/>
		<stop  offset="1" style="stop-color:#FFFFFF;stop-opacity:0.8"/>
	</linearGradient>
	<path fill="url(#SVGID_6_)" d="M103.766,19.662c0,0-12.195,0.506-15.42,0c11.551,15.423,5.655,30.792,5.655,30.792l10.397-29.681
		L103.766,19.662L103.766,19.662z"/>
</g>
<g id="orange">
	<path fill="#4E4E4E" d="M45.172,102.229c-1.105,0-2-0.896-2-2V88.654c0-1.104,0.895-2,2-2h4.961c1.105,0,2,0.896,2,2v11.574
		c0,1.104-0.895,2-2,2H45.172 M45.172,84.041c-1.105,0-2-0.896-2-2V70.465c0-1.105,0.895-2,2-2h4.961c1.105,0,2,0.895,2,2v11.576
		c0,1.104-0.895,2-2,2H45.172 M45.172,65.852c-1.105,0-2-0.896-2-2V52.275c0-1.105,0.895-2,2-2h4.961c1.105,0,2,0.896,2,2v11.577
		c0,1.104-0.895,2-2,2H45.172 M45.172,47.661c-1.105,0-2-0.896-2-2V34.086c0-1.105,0.895-2,2-2h4.961c1.105,0,2,0.895,2,2V45.66
		c0,1.105-0.895,2-2,2L45.172,47.661 M45.172,29.471c-1.105,0-2-0.895-2-2V15.896c0-1.105,0.895-2,2-2h4.961c1.105,0,2,0.896,2,2
		V27.47c0,1.105-0.895,2-2,2L45.172,29.471"/>
	<path fill="#FFFFFF" d="M45.172,100.229V88.654h4.961v11.574H45.172L45.172,100.229z M45.172,82.041V70.465h4.961v11.576H45.172
		L45.172,82.041z M45.172,63.852V52.275h4.961v11.577H45.172L45.172,63.852z M45.172,45.661V34.086h4.961V45.66L45.172,45.661
		L45.172,45.661z M45.172,27.471V15.896h4.961V27.47L45.172,27.471L45.172,27.471z"/>
	<path fill-opacity="0.1" d="M16.989,105.796c-0.796,0-1.558-0.315-2.122-0.88c-0.562-0.563-0.877-1.324-0.877-2.12
		c0,0,0.003-19.55,0.003-19.69c0-0.002-0.009-0.939-0.009-0.939c0-6.007,1.201-10.254,3.568-12.623
		c4.17-4.17,21.201-15.501,26.366-18.904c6.002-4.237,15.869-11.196,21.313-15.023c-2.156-3.118-6.667-9.638-6.797-9.826
		c-0.109-0.115-0.228-0.254-0.344-0.419c-0.001-0.003-0.005-0.008-0.008-0.011c-0.594-0.858-0.908-1.862-0.908-2.905
		c0-1.677,0.823-3.246,2.202-4.199c0.832-0.576,1.814-0.882,2.839-0.882c0.378,0,0.757,0.042,1.13,0.125
		c0.674,0.019,40.362,1.156,40.362,1.156c0.067,0.001,0.133,0.006,0.198,0.013c1.673,0,3.234,0.811,4.179,2.167
		c0.582,0.841,0.888,1.824,0.888,2.848c0,0.538-0.082,1.068-0.248,1.582c-0.02,0.08-0.041,0.16-0.068,0.239
		c0,0-12.87,38.063-13.066,38.646c-0.213,1.394-0.963,2.617-2.107,3.406c-0.854,0.59-1.857,0.904-2.898,0.904
		c-1.676,0-3.243-0.82-4.197-2.197c-0.002-0.002-0.003-0.007-0.007-0.01c-0.116-0.171-0.211-0.336-0.286-0.49
		c-0.005-0.008-4.665-6.742-6.859-9.917c-3.98,2.792-11.146,7.838-21.382,15.061c-0.095,0.086-0.194,0.166-0.301,0.24l-4.766,3.334
		l0.013-0.008l-4.8,3.389c-0.112,0.078-0.229,0.148-0.349,0.212C47.092,78.456,44,80.618,44,80.618s-2.542,1.776-4.014,2.808
		c0,2.676,0,19.37,0,19.37c0,1.657-1.342,3-3,3H16.989"/>
	<path fill="#A43C10" d="M14.989,103.796c-0.796,0-1.558-0.315-2.122-0.88c-0.562-0.563-0.877-1.324-0.877-2.12
		c0,0,0.003-19.55,0.003-19.69c0-0.002-0.009-0.939-0.009-0.939c0-6.007,1.201-10.254,3.568-12.623
		c4.17-4.17,21.201-15.501,26.366-18.904c6.002-4.237,15.868-11.196,21.313-15.023c-2.156-3.118-6.667-9.638-6.797-9.826
		c-0.109-0.115-0.228-0.254-0.344-0.419c-0.001-0.003-0.005-0.008-0.008-0.011c-0.594-0.858-0.908-1.862-0.908-2.905
		c0-1.677,0.823-3.246,2.202-4.199c0.833-0.576,1.815-0.882,2.839-0.882c0.378,0,0.757,0.042,1.13,0.125
		c0.674,0.019,40.362,1.156,40.362,1.156c0.067,0.001,0.133,0.006,0.198,0.013c1.673,0,3.234,0.811,4.179,2.167
		c0.582,0.841,0.888,1.824,0.888,2.848c0,0.538-0.082,1.068-0.248,1.582c-0.02,0.08-0.041,0.16-0.068,0.239
		c0,0-12.87,38.063-13.066,38.646c-0.213,1.394-0.963,2.617-2.107,3.406c-0.854,0.59-1.857,0.904-2.898,0.904
		c-1.676,0-3.243-0.82-4.197-2.197c-0.002-0.002-0.003-0.007-0.007-0.01c-0.116-0.171-0.211-0.336-0.286-0.49
		c-0.005-0.008-4.665-6.744-6.859-9.917c-3.98,2.793-11.146,7.838-21.382,15.061c-0.095,0.086-0.194,0.166-0.301,0.24l-4.766,3.334
		l0.013-0.008l-4.8,3.389c-0.112,0.078-0.229,0.148-0.349,0.212C45.092,76.456,42,78.618,42,78.618s-2.542,1.776-4.014,2.808
		c0,2.676,0,19.37,0,19.37c0,1.657-1.342,3-3,3H14.989"/>
	<g>
		
			<linearGradient id="SVGID_7_" gradientUnits="userSpaceOnUse" x1="297.0762" y1="-340.6958" x2="297.0762" y2="-258.271" gradientTransform="matrix(1 0 0 -1 -237.5996 -239.9004)">
			<stop  offset="0" style="stop-color:#FEDF34"/>
			<stop  offset="0.1758" style="stop-color:#FECD26"/>
			<stop  offset="0.4969" style="stop-color:#FFB211"/>
			<stop  offset="0.782" style="stop-color:#FFA204"/>
			<stop  offset="1" style="stop-color:#FF9C00"/>
		</linearGradient>
		<path fill="url(#SVGID_7_)" d="M103.799,22.527l0.01,0.013L90.643,61.482c-0.037,0.621-0.316,1.22-0.869,1.602
			c-0.955,0.661-2.265,0.422-2.926-0.531c-0.105-0.154-0.15-0.324-0.211-0.492l-0.078-0.002L58.814,21.961l0.016-0.039
			c-0.094-0.093-0.207-0.162-0.285-0.274c-0.661-0.956-0.422-2.266,0.533-2.927c0.561-0.388,1.23-0.433,1.834-0.237l40.706,1.166
			l0.022,0.03c0.748-0.088,1.518,0.204,1.978,0.865C104.038,21.153,104.059,21.891,103.799,22.527L103.799,22.527z M14.989,100.796
			l0.003-20.409l19.995-8.957v29.366H14.989L14.989,100.796z M29.05,84.016c-0.392,0.158-13.975-1.254-13.975-1.254
			s-0.854-9.646,2.598-13.098c4.547-4.548,26.56-18.958,26.56-18.958l9.593,15.983C53.826,66.688,35.52,79.491,29.05,84.016
			L29.05,84.016z M78.422,49.351c-5.285,3.666-34.161,24.058-34.161,24.058L34.67,57.425c0,0,26.318-18.589,32.789-23.115
			c0.391-0.157,13.813,2.465,13.813,2.465S86.572,43.695,78.422,49.351L78.422,49.351z"/>
	</g>
	
		<linearGradient id="SVGID_8_" gradientUnits="userSpaceOnUse" x1="333.9727" y1="-290.3545" x2="333.9727" y2="-259.5625" gradientTransform="matrix(1 0 0 -1 -237.5996 -239.9004)">
		<stop  offset="0" style="stop-color:#FFFFFF;stop-opacity:0"/>
		<stop  offset="1" style="stop-color:#FFFFFF;stop-opacity:0.8"/>
	</linearGradient>
	<path fill="url(#SVGID_8_)" d="M103.766,19.662c0,0-12.195,0.506-15.42,0c11.551,15.423,5.655,30.792,5.655,30.792l10.397-29.681
		L103.766,19.662L103.766,19.662z"/>
</g>
<g id="red">
	<path fill="#4E4E4E" d="M45.172,102.229c-1.105,0-2-0.896-2-2V88.654c0-1.104,0.895-2,2-2h4.961c1.105,0,2,0.896,2,2v11.574
		c0,1.104-0.895,2-2,2H45.172 M45.172,84.041c-1.105,0-2-0.896-2-2V70.465c0-1.105,0.895-2,2-2h4.961c1.105,0,2,0.895,2,2v11.576
		c0,1.104-0.895,2-2,2H45.172 M45.172,65.852c-1.105,0-2-0.896-2-2V52.275c0-1.105,0.895-2,2-2h4.961c1.105,0,2,0.896,2,2v11.577
		c0,1.104-0.895,2-2,2H45.172 M45.172,47.661c-1.105,0-2-0.896-2-2V34.086c0-1.105,0.895-2,2-2h4.961c1.105,0,2,0.895,2,2V45.66
		c0,1.105-0.895,2-2,2L45.172,47.661 M45.172,29.471c-1.105,0-2-0.895-2-2V15.896c0-1.105,0.895-2,2-2h4.961c1.105,0,2,0.896,2,2
		V27.47c0,1.105-0.895,2-2,2L45.172,29.471"/>
	<path fill="#FFFFFF" d="M45.172,100.229V88.654h4.961v11.574H45.172L45.172,100.229z M45.172,82.041V70.465h4.961v11.576H45.172
		L45.172,82.041z M45.172,63.852V52.275h4.961v11.577H45.172L45.172,63.852z M45.172,45.661V34.086h4.961V45.66L45.172,45.661
		L45.172,45.661z M45.172,27.471V15.896h4.961V27.47L45.172,27.471L45.172,27.471z"/>
	<path fill-opacity="0.1" d="M16.989,105.796c-0.796,0-1.558-0.315-2.122-0.88c-0.562-0.563-0.877-1.324-0.877-2.12
		c0,0,0.003-19.55,0.003-19.69c0-0.002-0.009-0.939-0.009-0.939c0-6.007,1.201-10.254,3.568-12.623
		c4.17-4.17,21.201-15.501,26.366-18.904c6.002-4.237,15.869-11.196,21.313-15.023c-2.156-3.118-6.667-9.638-6.797-9.826
		c-0.109-0.115-0.228-0.254-0.344-0.419c-0.001-0.003-0.005-0.008-0.008-0.011c-0.594-0.858-0.908-1.862-0.908-2.905
		c0-1.677,0.823-3.246,2.202-4.199c0.832-0.576,1.814-0.882,2.839-0.882c0.378,0,0.757,0.042,1.13,0.125
		c0.674,0.019,40.362,1.156,40.362,1.156c0.067,0.001,0.133,0.006,0.198,0.013c1.673,0,3.234,0.811,4.179,2.167
		c0.582,0.841,0.888,1.824,0.888,2.848c0,0.538-0.082,1.068-0.248,1.582c-0.02,0.08-0.041,0.16-0.068,0.239
		c0,0-12.87,38.063-13.066,38.646c-0.213,1.394-0.963,2.617-2.107,3.406c-0.854,0.59-1.857,0.904-2.898,0.904
		c-1.676,0-3.243-0.82-4.197-2.197c-0.002-0.002-0.003-0.007-0.007-0.01c-0.116-0.171-0.211-0.336-0.286-0.49
		c-0.005-0.008-4.665-6.742-6.859-9.917c-3.98,2.792-11.146,7.838-21.382,15.061c-0.095,0.086-0.194,0.166-0.301,0.24l-4.766,3.334
		l0.013-0.008l-4.8,3.389c-0.112,0.078-0.229,0.148-0.349,0.212C47.092,78.456,44,80.618,44,80.618s-2.542,1.776-4.014,2.808
		c0,2.676,0,19.37,0,19.37c0,1.657-1.342,3-3,3H16.989"/>
	<path fill="#940202" d="M14.989,103.796c-0.796,0-1.558-0.315-2.122-0.88c-0.562-0.563-0.877-1.324-0.877-2.12
		c0,0,0.003-19.55,0.003-19.69c0-0.002-0.009-0.939-0.009-0.939c0-6.007,1.201-10.254,3.568-12.623
		c4.17-4.17,21.201-15.501,26.366-18.904c6.002-4.237,15.868-11.196,21.313-15.023c-2.156-3.118-6.667-9.638-6.797-9.826
		c-0.109-0.115-0.228-0.254-0.344-0.419c-0.001-0.003-0.005-0.008-0.008-0.011c-0.594-0.858-0.908-1.862-0.908-2.905
		c0-1.677,0.823-3.246,2.202-4.199c0.833-0.576,1.815-0.882,2.839-0.882c0.378,0,0.757,0.042,1.13,0.125
		c0.674,0.019,40.362,1.156,40.362,1.156c0.067,0.001,0.133,0.006,0.198,0.013c1.673,0,3.234,0.811,4.179,2.167
		c0.582,0.841,0.888,1.824,0.888,2.848c0,0.538-0.082,1.068-0.248,1.582c-0.02,0.08-0.041,0.16-0.068,0.239
		c0,0-12.87,38.063-13.066,38.646c-0.213,1.394-0.963,2.617-2.107,3.406c-0.854,0.59-1.857,0.904-2.898,0.904
		c-1.676,0-3.243-0.82-4.197-2.197c-0.002-0.002-0.003-0.007-0.007-0.01c-0.116-0.171-0.211-0.336-0.286-0.49
		c-0.005-0.008-4.665-6.744-6.859-9.917c-3.98,2.793-11.146,7.838-21.382,15.061c-0.095,0.086-0.194,0.166-0.301,0.24l-4.766,3.334
		l0.013-0.008l-4.8,3.389c-0.112,0.078-0.229,0.148-0.349,0.212C45.092,76.456,42,78.618,42,78.618s-2.542,1.776-4.014,2.808
		c0,2.676,0,19.37,0,19.37c0,1.657-1.342,3-3,3H14.989"/>
	<g>
		
			<linearGradient id="SVGID_9_" gradientUnits="userSpaceOnUse" x1="297.0762" y1="-340.6958" x2="297.0762" y2="-258.271" gradientTransform="matrix(1 0 0 -1 -237.5996 -239.9004)">
			<stop  offset="0" style="stop-color:#FF0000"/>
			<stop  offset="0.1758" style="stop-color:#F60303"/>
			<stop  offset="0.4969" style="stop-color:#EC0404"/>
			<stop  offset="0.782" style="stop-color:#E30101"/>
			<stop  offset="1" style="stop-color:#D60202"/>
		</linearGradient>
		<path fill="url(#SVGID_9_)" d="M103.799,22.527l0.01,0.013L90.643,61.482c-0.037,0.621-0.316,1.22-0.869,1.602
			c-0.955,0.661-2.265,0.422-2.926-0.531c-0.105-0.154-0.15-0.324-0.211-0.492l-0.078-0.002L58.814,21.961l0.016-0.039
			c-0.094-0.093-0.207-0.162-0.285-0.274c-0.661-0.956-0.422-2.266,0.533-2.927c0.561-0.388,1.23-0.433,1.834-0.237l40.706,1.166
			l0.022,0.03c0.748-0.088,1.518,0.204,1.978,0.865C104.038,21.153,104.059,21.891,103.799,22.527L103.799,22.527z M14.989,100.796
			l0.003-20.409l19.995-8.957v29.366H14.989L14.989,100.796z M29.05,84.016c-0.392,0.158-13.975-1.254-13.975-1.254
			s-0.854-9.646,2.598-13.098c4.547-4.548,26.56-18.958,26.56-18.958l9.593,15.983C53.826,66.688,35.52,79.491,29.05,84.016
			L29.05,84.016z M78.422,49.351c-5.285,3.666-34.161,24.058-34.161,24.058L34.67,57.425c0,0,26.318-18.589,32.789-23.115
			c0.391-0.157,13.813,2.465,13.813,2.465S86.572,43.695,78.422,49.351L78.422,49.351z"/>
	</g>
	
		<linearGradient id="SVGID_10_" gradientUnits="userSpaceOnUse" x1="333.9727" y1="-290.3545" x2="333.9727" y2="-259.5625" gradientTransform="matrix(1 0 0 -1 -237.5996 -239.9004)">
		<stop  offset="0" style="stop-color:#FFFFFF;stop-opacity:0"/>
		<stop  offset="1" style="stop-color:#FFFFFF;stop-opacity:0.8"/>
	</linearGradient>
	<path fill="url(#SVGID_10_)" d="M103.766,19.662c0,0-12.195,0.506-15.42,0c11.551,15.423,5.655,30.792,5.655,30.792l10.397-29.681
		L103.766,19.662L103.766,19.662z"/>
</g>
</svg>
