<?xml version="1.0" encoding="utf-8"?>
<!-- Generator: Adobe Illustrator 16.0.2, SVG Export Plug-In . SVG Version: 6.00 Build 0)  -->
<!DOCTYPE svg PUBLIC "-//W3C//DTD SVG 1.1//EN" "http://www.w3.org/Graphics/SVG/1.1/DTD/svg11.dtd">
<svg version="1.1" id="Layer_1" xmlns="http://www.w3.org/2000/svg" xmlns:xlink="http://www.w3.org/1999/xlink" x="0px" y="0px"
	 width="120px" height="120px" viewBox="0 0 120 120" enable-background="new 0 0 120 120" xml:space="preserve">
<g id="black_white">
	<g>
		<rect x="26.614" y="75.828" fill="#999999" width="30.852" height="8.451"/>
		<path fill="#3A3A3A" d="M93.016,51.241L68.424,17.996c-0.75-1.013-2.266-1.013-3.015,0L40.818,51.241
			c-0.916,1.238-0.032,2.991,1.508,2.991h14.141v48.534h20.9V54.232h14.141C93.047,54.232,93.93,52.479,93.016,51.241z"/>
	</g>
</g>
<g id="blue">
	<polygon fill="#7B7B7B" points="68.486,88.693 68.486,72.158 20.533,72.158 20.533,88.693 	"/>
	
		<linearGradient id="SVGID_1_" gradientUnits="userSpaceOnUse" x1="258.1328" y1="-320.3262" x2="304.0859" y2="-320.3262" gradientTransform="matrix(1 0 0 -1 -237.5996 -239.9004)">
		<stop  offset="0.16" style="stop-color:#EAEAEA"/>
		<stop  offset="0.4512" style="stop-color:#CACACA"/>
		<stop  offset="0.78" style="stop-color:#AAAAAA"/>
	</linearGradient>
	<path fill="url(#SVGID_1_)" d="M20.533,86.693c0-2.668,0-9.869,0-12.535c3.514,0,42.439,0,45.953,0c0,2.666,0,9.867,0,12.535
		c-3.514,0-40.439,0-43.953,0"/>
	<path fill-opacity="0.1" d="M61.014,106.798c-1.659,0-3-1.342-3-2.999c0,0,0-39.675,0-44.947c-3.794,0-11.64,0-11.79,0
		c-0.221,0.029-0.444,0.045-0.665,0.045c-2.814,0-5.103-2.292-5.103-5.104c0-1.462,0.631-2.851,1.712-3.813
		c0.434-0.582,23.749-31.835,23.989-32.157c0.914-1.562,2.574-2.519,4.4-2.519c1.793,0,3.432,0.925,4.356,2.44
		c0.128,0.175,23.302,31.603,23.753,32.216c1.094,0.962,1.732,2.355,1.732,3.832c0,2.814-2.289,5.104-5.103,5.104
		c-0.22,0-0.442-0.015-0.665-0.043c-0.369,0-7.883,0-11.627,0c0,5.271,0,44.946,0,44.946c0,1.657-1.342,2.999-2.999,2.999
		L61.014,106.798"/>
	<path fill="#00598C" d="M59.013,104.798c-1.658,0-3-1.342-3-2.999c0,0,0-39.675,0-44.947c-3.794,0-11.64,0-11.79,0
		c-0.221,0.029-0.444,0.043-0.665,0.043c-2.814,0-5.103-2.291-5.103-5.104c0-1.462,0.631-2.851,1.712-3.813
		c0.434-0.582,23.749-31.835,23.989-32.157c0.914-1.562,2.574-2.519,4.4-2.519c1.793,0,3.432,0.925,4.356,2.44
		c0.128,0.175,23.302,31.603,23.753,32.216c1.094,0.962,1.732,2.355,1.732,3.832c0,2.814-2.289,5.104-5.103,5.104
		c-0.22,0-0.442-0.015-0.665-0.043c-0.369,0-7.883,0-11.627,0c0,5.272,0,44.947,0,44.947c0,1.657-1.342,2.999-2.999,2.999
		L59.013,104.798"/>
	<g>
		
			<linearGradient id="SVGID_2_" gradientUnits="userSpaceOnUse" x1="306.0283" y1="-341.6987" x2="306.0283" y2="-256.2026" gradientTransform="matrix(1 0 0 -1 -237.5996 -239.9004)">
			<stop  offset="0" style="stop-color:#48A2FB"/>
			<stop  offset="0.1758" style="stop-color:#059CF4"/>
			<stop  offset="0.4969" style="stop-color:#0398EF"/>
			<stop  offset="0.782" style="stop-color:#0293E7"/>
			<stop  offset="1" style="stop-color:#0189D8"/>
		</linearGradient>
		<path fill="url(#SVGID_2_)" d="M92.889,53.853H44.126l-2.271-3.12l24.956-33.454l3.621,0.157L94.95,50.688L92.889,53.853
			L92.889,53.853z M59.013,101.799V53.555h18.994v48.244H59.013L59.013,101.799z M43.558,53.896c-1.161,0-2.103-0.941-2.103-2.104
			c0-1.161,0.942-2.103,2.103-2.103s2.104,0.941,2.104,2.103S44.719,53.896,43.558,53.896L43.558,53.896z M93.298,53.896
			c-1.163,0-2.104-0.941-2.104-2.104c0-1.161,0.941-2.103,2.104-2.103c1.161,0,2.103,0.941,2.103,2.103S94.459,53.896,93.298,53.896
			L93.298,53.896z M68.559,20.509c-1.162,0-2.104-0.941-2.104-2.104c0-1.161,0.942-2.103,2.104-2.103
			c1.16,0,2.104,0.941,2.104,2.103C70.662,19.567,69.719,20.509,68.559,20.509L68.559,20.509z"/>
	</g>
	
		<linearGradient id="SVGID_3_" gradientUnits="userSpaceOnUse" x1="301.5527" y1="-283.8315" x2="301.5527" y2="-259.6934" gradientTransform="matrix(1 0 0 -1 -237.5996 -239.9004)">
		<stop  offset="0" style="stop-color:#FFFFFF;stop-opacity:0"/>
		<stop  offset="1" style="stop-color:#FFFFFF;stop-opacity:0.8"/>
	</linearGradient>
	<path fill="url(#SVGID_3_)" d="M69.201,19.793c0,0,7.718,9.604,9.793,12.125C59.84,29.817,48.91,43.931,48.91,43.931l19.01-24.119
		L69.201,19.793L69.201,19.793z"/>
</g>
<g id="green">
	<polygon fill="#7B7B7B" points="68.486,88.693 68.486,72.158 20.533,72.158 20.533,88.693 	"/>
	
		<linearGradient id="SVGID_4_" gradientUnits="userSpaceOnUse" x1="258.1328" y1="-320.3262" x2="304.0859" y2="-320.3262" gradientTransform="matrix(1 0 0 -1 -237.5996 -239.9004)">
		<stop  offset="0.16" style="stop-color:#EAEAEA"/>
		<stop  offset="0.4512" style="stop-color:#CACACA"/>
		<stop  offset="0.78" style="stop-color:#AAAAAA"/>
	</linearGradient>
	<path fill="url(#SVGID_4_)" d="M20.533,86.693c0-2.668,0-9.869,0-12.535c3.514,0,42.439,0,45.953,0c0,2.666,0,9.867,0,12.535
		c-3.514,0-40.439,0-43.953,0"/>
	<path fill-opacity="0.1" d="M61.014,106.798c-1.659,0-3-1.342-3-2.999c0,0,0-39.675,0-44.947c-3.794,0-11.64,0-11.79,0
		c-0.221,0.029-0.444,0.045-0.665,0.045c-2.814,0-5.103-2.292-5.103-5.104c0-1.462,0.631-2.851,1.712-3.813
		c0.434-0.582,23.749-31.835,23.989-32.157c0.914-1.562,2.574-2.519,4.4-2.519c1.793,0,3.432,0.925,4.356,2.44
		c0.128,0.175,23.302,31.603,23.753,32.216c1.094,0.962,1.732,2.355,1.732,3.832c0,2.814-2.289,5.104-5.103,5.104
		c-0.22,0-0.442-0.015-0.665-0.043c-0.369,0-7.883,0-11.627,0c0,5.271,0,44.946,0,44.946c0,1.657-1.342,2.999-2.999,2.999
		L61.014,106.798"/>
	<path fill="#015911" d="M59.013,104.798c-1.658,0-3-1.342-3-2.999c0,0,0-39.675,0-44.947c-3.794,0-11.64,0-11.79,0
		c-0.221,0.029-0.444,0.043-0.665,0.043c-2.814,0-5.103-2.291-5.103-5.104c0-1.462,0.631-2.851,1.712-3.813
		c0.434-0.582,23.749-31.835,23.989-32.157c0.914-1.562,2.574-2.519,4.4-2.519c1.793,0,3.432,0.925,4.356,2.44
		c0.128,0.175,23.302,31.603,23.753,32.216c1.094,0.962,1.732,2.355,1.732,3.832c0,2.814-2.289,5.104-5.103,5.104
		c-0.22,0-0.442-0.015-0.665-0.043c-0.369,0-7.883,0-11.627,0c0,5.272,0,44.947,0,44.947c0,1.657-1.342,2.999-2.999,2.999
		L59.013,104.798"/>
	<g>
		
			<linearGradient id="SVGID_5_" gradientUnits="userSpaceOnUse" x1="306.0283" y1="-341.6987" x2="306.0283" y2="-256.2026" gradientTransform="matrix(1 0 0 -1 -237.5996 -239.9004)">
			<stop  offset="0" style="stop-color:#00DF34"/>
			<stop  offset="0.1758" style="stop-color:#00CD26"/>
			<stop  offset="0.4969" style="stop-color:#00B211"/>
			<stop  offset="0.782" style="stop-color:#00A204"/>
			<stop  offset="1" style="stop-color:#009C00"/>
		</linearGradient>
		<path fill="url(#SVGID_5_)" d="M92.889,53.853H44.126l-2.271-3.12l24.956-33.454l3.621,0.157L94.95,50.688L92.889,53.853
			L92.889,53.853z M59.013,101.799V53.555h18.994v48.244H59.013L59.013,101.799z M43.558,53.896c-1.161,0-2.103-0.941-2.103-2.104
			c0-1.161,0.942-2.103,2.103-2.103s2.104,0.941,2.104,2.103S44.719,53.896,43.558,53.896L43.558,53.896z M93.298,53.896
			c-1.163,0-2.104-0.941-2.104-2.104c0-1.161,0.941-2.103,2.104-2.103c1.161,0,2.103,0.941,2.103,2.103S94.459,53.896,93.298,53.896
			L93.298,53.896z M68.559,20.509c-1.162,0-2.104-0.941-2.104-2.104c0-1.161,0.942-2.103,2.104-2.103
			c1.16,0,2.104,0.941,2.104,2.103C70.662,19.567,69.719,20.509,68.559,20.509L68.559,20.509z"/>
	</g>
	
		<linearGradient id="SVGID_6_" gradientUnits="userSpaceOnUse" x1="301.5527" y1="-283.8315" x2="301.5527" y2="-259.6934" gradientTransform="matrix(1 0 0 -1 -237.5996 -239.9004)">
		<stop  offset="0" style="stop-color:#FFFFFF;stop-opacity:0"/>
		<stop  offset="1" style="stop-color:#FFFFFF;stop-opacity:0.8"/>
	</linearGradient>
	<path fill="url(#SVGID_6_)" d="M69.201,19.793c0,0,7.718,9.604,9.793,12.125C59.84,29.817,48.91,43.931,48.91,43.931l19.01-24.119
		L69.201,19.793L69.201,19.793z"/>
</g>
<g id="kia">
	<polygon fill="#7B7B7B" points="68.486,88.693 68.486,72.158 20.533,72.158 20.533,88.693 	"/>
	
		<linearGradient id="SVGID_7_" gradientUnits="userSpaceOnUse" x1="258.1328" y1="-320.3262" x2="304.0859" y2="-320.3262" gradientTransform="matrix(1 0 0 -1 -237.5996 -239.9004)">
		<stop  offset="0.16" style="stop-color:#EAEAEA"/>
		<stop  offset="0.4512" style="stop-color:#CACACA"/>
		<stop  offset="0.78" style="stop-color:#AAAAAA"/>
	</linearGradient>
	<path fill="url(#SVGID_7_)" d="M20.533,86.693c0-2.668,0-9.869,0-12.535c3.514,0,42.439,0,45.953,0c0,2.666,0,9.867,0,12.535
		c-3.514,0-40.439,0-43.953,0"/>
	<path fill-opacity="0.1" d="M61.014,106.798c-1.659,0-3-1.342-3-2.999c0,0,0-39.675,0-44.947c-3.794,0-11.64,0-11.79,0
		c-0.221,0.029-0.444,0.045-0.665,0.045c-2.814,0-5.103-2.292-5.103-5.104c0-1.462,0.631-2.851,1.712-3.813
		c0.434-0.582,23.749-31.835,23.989-32.157c0.914-1.562,2.574-2.519,4.4-2.519c1.793,0,3.432,0.925,4.356,2.44
		c0.128,0.175,23.302,31.603,23.753,32.216c1.094,0.962,1.732,2.355,1.732,3.832c0,2.814-2.289,5.104-5.103,5.104
		c-0.22,0-0.442-0.015-0.665-0.043c-0.369,0-7.883,0-11.627,0c0,5.271,0,44.946,0,44.946c0,1.657-1.342,2.999-2.999,2.999
		L61.014,106.798"/>
	<path fill="#9E171E" d="M59.013,104.798c-1.658,0-3-1.342-3-2.999c0,0,0-39.675,0-44.947c-3.794,0-11.64,0-11.79,0
		c-0.221,0.029-0.444,0.043-0.665,0.043c-2.814,0-5.103-2.291-5.103-5.104c0-1.462,0.631-2.851,1.712-3.813
		c0.434-0.582,23.749-31.835,23.989-32.157c0.914-1.562,2.574-2.519,4.4-2.519c1.793,0,3.432,0.925,4.356,2.44
		c0.128,0.175,23.302,31.603,23.753,32.216c1.094,0.962,1.732,2.355,1.732,3.832c0,2.814-2.289,5.104-5.103,5.104
		c-0.22,0-0.442-0.015-0.665-0.043c-0.369,0-7.883,0-11.627,0c0,5.272,0,44.947,0,44.947c0,1.657-1.342,2.999-2.999,2.999
		L59.013,104.798"/>
	<g>
		
			<linearGradient id="SVGID_8_" gradientUnits="userSpaceOnUse" x1="306.0283" y1="-341.6987" x2="306.0283" y2="-256.2026" gradientTransform="matrix(1 0 0 -1 -237.5996 -239.9004)">
			<stop  offset="0" style="stop-color:#FFFFFF"/>
			<stop  offset="0.1758" style="stop-color:#E7E9EA"/>
			<stop  offset="0.4969" style="stop-color:#CDD2D5"/>
			<stop  offset="0.782" style="stop-color:#C5CACC"/>
			<stop  offset="1" style="stop-color:#BABDC0"/>
		</linearGradient>
		<path fill="url(#SVGID_8_)" d="M92.889,53.853H44.126l-2.271-3.12l24.956-33.454l3.621,0.157L94.95,50.688L92.889,53.853
			L92.889,53.853z M59.013,101.799V53.555h18.994v48.244H59.013L59.013,101.799z M43.558,53.896c-1.161,0-2.103-0.941-2.103-2.104
			c0-1.161,0.942-2.103,2.103-2.103s2.104,0.941,2.104,2.103S44.719,53.896,43.558,53.896L43.558,53.896z M93.298,53.896
			c-1.163,0-2.104-0.941-2.104-2.104c0-1.161,0.941-2.103,2.104-2.103c1.161,0,2.103,0.941,2.103,2.103S94.459,53.896,93.298,53.896
			L93.298,53.896z M68.559,20.509c-1.162,0-2.104-0.941-2.104-2.104c0-1.161,0.942-2.103,2.104-2.103
			c1.16,0,2.104,0.941,2.104,2.103C70.662,19.567,69.719,20.509,68.559,20.509L68.559,20.509z"/>
	</g>
	
		<linearGradient id="SVGID_9_" gradientUnits="userSpaceOnUse" x1="301.5527" y1="-283.8315" x2="301.5527" y2="-259.6934" gradientTransform="matrix(1 0 0 -1 -237.5996 -239.9004)">
		<stop  offset="0" style="stop-color:#FFFFFF;stop-opacity:0"/>
		<stop  offset="1" style="stop-color:#FFFFFF;stop-opacity:0.8"/>
	</linearGradient>
	<path fill="url(#SVGID_9_)" d="M69.201,19.793c0,0,7.718,9.604,9.793,12.125C59.84,29.817,48.91,43.931,48.91,43.931l19.01-24.119
		L69.201,19.793L69.201,19.793z"/>
</g>
<g id="orange">
	<polygon fill="#7B7B7B" points="68.486,88.693 68.486,72.158 20.533,72.158 20.533,88.693 	"/>
	
		<linearGradient id="SVGID_10_" gradientUnits="userSpaceOnUse" x1="258.1328" y1="-320.3262" x2="304.0859" y2="-320.3262" gradientTransform="matrix(1 0 0 -1 -237.5996 -239.9004)">
		<stop  offset="0.16" style="stop-color:#EAEAEA"/>
		<stop  offset="0.4512" style="stop-color:#CACACA"/>
		<stop  offset="0.78" style="stop-color:#AAAAAA"/>
	</linearGradient>
	<path fill="url(#SVGID_10_)" d="M20.533,86.693c0-2.668,0-9.869,0-12.535c3.514,0,42.439,0,45.953,0c0,2.666,0,9.867,0,12.535
		c-3.514,0-40.439,0-43.953,0"/>
	<path fill-opacity="0.1" d="M61.014,106.798c-1.659,0-3-1.342-3-2.999c0,0,0-39.675,0-44.947c-3.794,0-11.64,0-11.79,0
		c-0.221,0.029-0.444,0.045-0.665,0.045c-2.814,0-5.103-2.292-5.103-5.104c0-1.462,0.631-2.851,1.712-3.813
		c0.434-0.582,23.749-31.835,23.989-32.157c0.914-1.562,2.574-2.519,4.4-2.519c1.793,0,3.432,0.925,4.356,2.44
		c0.128,0.175,23.302,31.603,23.753,32.216c1.094,0.962,1.732,2.355,1.732,3.832c0,2.814-2.289,5.104-5.103,5.104
		c-0.22,0-0.442-0.015-0.665-0.043c-0.369,0-7.883,0-11.627,0c0,5.271,0,44.946,0,44.946c0,1.657-1.342,2.999-2.999,2.999
		L61.014,106.798"/>
	<path fill="#A43C10" d="M59.013,104.798c-1.658,0-3-1.342-3-2.999c0,0,0-39.675,0-44.947c-3.794,0-11.64,0-11.79,0
		c-0.221,0.029-0.444,0.043-0.665,0.043c-2.814,0-5.103-2.291-5.103-5.104c0-1.462,0.631-2.851,1.712-3.813
		c0.434-0.582,23.749-31.835,23.989-32.157c0.914-1.562,2.574-2.519,4.4-2.519c1.793,0,3.432,0.925,4.356,2.44
		c0.128,0.175,23.302,31.603,23.753,32.216c1.094,0.962,1.732,2.355,1.732,3.832c0,2.814-2.289,5.104-5.103,5.104
		c-0.22,0-0.442-0.015-0.665-0.043c-0.369,0-7.883,0-11.627,0c0,5.272,0,44.947,0,44.947c0,1.657-1.342,2.999-2.999,2.999
		L59.013,104.798"/>
	<g>
		
			<linearGradient id="SVGID_11_" gradientUnits="userSpaceOnUse" x1="306.0283" y1="-341.6987" x2="306.0283" y2="-256.2026" gradientTransform="matrix(1 0 0 -1 -237.5996 -239.9004)">
			<stop  offset="0" style="stop-color:#FEDF34"/>
			<stop  offset="0.1758" style="stop-color:#FECD26"/>
			<stop  offset="0.4969" style="stop-color:#FFB211"/>
			<stop  offset="0.782" style="stop-color:#FFA204"/>
			<stop  offset="1" style="stop-color:#FF9C00"/>
		</linearGradient>
		<path fill="url(#SVGID_11_)" d="M92.889,53.853H44.126l-2.271-3.12l24.956-33.454l3.621,0.157L94.95,50.688L92.889,53.853
			L92.889,53.853z M59.013,101.799V53.555h18.994v48.244H59.013L59.013,101.799z M43.558,53.896c-1.161,0-2.103-0.941-2.103-2.104
			c0-1.161,0.942-2.103,2.103-2.103s2.104,0.941,2.104,2.103S44.719,53.896,43.558,53.896L43.558,53.896z M93.298,53.896
			c-1.163,0-2.104-0.941-2.104-2.104c0-1.161,0.941-2.103,2.104-2.103c1.161,0,2.103,0.941,2.103,2.103S94.459,53.896,93.298,53.896
			L93.298,53.896z M68.559,20.509c-1.162,0-2.104-0.941-2.104-2.104c0-1.161,0.942-2.103,2.104-2.103
			c1.16,0,2.104,0.941,2.104,2.103C70.662,19.567,69.719,20.509,68.559,20.509L68.559,20.509z"/>
	</g>
	
		<linearGradient id="SVGID_12_" gradientUnits="userSpaceOnUse" x1="301.5527" y1="-283.8315" x2="301.5527" y2="-259.6934" gradientTransform="matrix(1 0 0 -1 -237.5996 -239.9004)">
		<stop  offset="0" style="stop-color:#FFFFFF;stop-opacity:0"/>
		<stop  offset="1" style="stop-color:#FFFFFF;stop-opacity:0.8"/>
	</linearGradient>
	<path fill="url(#SVGID_12_)" d="M69.201,19.793c0,0,7.718,9.604,9.793,12.125C59.84,29.817,48.91,43.931,48.91,43.931l19.01-24.119
		L69.201,19.793L69.201,19.793z"/>
</g>
<g id="red">
	<polygon fill="#7B7B7B" points="68.486,88.693 68.486,72.158 20.533,72.158 20.533,88.693 	"/>
	
		<linearGradient id="SVGID_13_" gradientUnits="userSpaceOnUse" x1="258.1328" y1="-320.3262" x2="304.0859" y2="-320.3262" gradientTransform="matrix(1 0 0 -1 -237.5996 -239.9004)">
		<stop  offset="0.16" style="stop-color:#EAEAEA"/>
		<stop  offset="0.4512" style="stop-color:#CACACA"/>
		<stop  offset="0.78" style="stop-color:#AAAAAA"/>
	</linearGradient>
	<path fill="url(#SVGID_13_)" d="M20.533,86.693c0-2.668,0-9.869,0-12.535c3.514,0,42.439,0,45.953,0c0,2.666,0,9.867,0,12.535
		c-3.514,0-40.439,0-43.953,0"/>
	<path fill-opacity="0.1" d="M61.014,106.798c-1.659,0-3-1.342-3-2.999c0,0,0-39.675,0-44.947c-3.794,0-11.64,0-11.79,0
		c-0.221,0.029-0.444,0.045-0.665,0.045c-2.814,0-5.103-2.292-5.103-5.104c0-1.462,0.631-2.851,1.712-3.813
		c0.434-0.582,23.749-31.835,23.989-32.157c0.914-1.562,2.574-2.519,4.4-2.519c1.793,0,3.432,0.925,4.356,2.44
		c0.128,0.175,23.302,31.603,23.753,32.216c1.094,0.962,1.732,2.355,1.732,3.832c0,2.814-2.289,5.104-5.103,5.104
		c-0.22,0-0.442-0.015-0.665-0.043c-0.369,0-7.883,0-11.627,0c0,5.271,0,44.946,0,44.946c0,1.657-1.342,2.999-2.999,2.999
		L61.014,106.798"/>
	<path fill="#940202" d="M59.013,104.798c-1.658,0-3-1.342-3-2.999c0,0,0-39.675,0-44.947c-3.794,0-11.64,0-11.79,0
		c-0.221,0.029-0.444,0.043-0.665,0.043c-2.814,0-5.103-2.291-5.103-5.104c0-1.462,0.631-2.851,1.712-3.813
		c0.434-0.582,23.749-31.835,23.989-32.157c0.914-1.562,2.574-2.519,4.4-2.519c1.793,0,3.432,0.925,4.356,2.44
		c0.128,0.175,23.302,31.603,23.753,32.216c1.094,0.962,1.732,2.355,1.732,3.832c0,2.814-2.289,5.104-5.103,5.104
		c-0.22,0-0.442-0.015-0.665-0.043c-0.369,0-7.883,0-11.627,0c0,5.272,0,44.947,0,44.947c0,1.657-1.342,2.999-2.999,2.999
		L59.013,104.798"/>
	<g>
		
			<linearGradient id="SVGID_14_" gradientUnits="userSpaceOnUse" x1="306.0283" y1="-341.6987" x2="306.0283" y2="-256.2026" gradientTransform="matrix(1 0 0 -1 -237.5996 -239.9004)">
			<stop  offset="0" style="stop-color:#FF0000"/>
			<stop  offset="0.1758" style="stop-color:#F60303"/>
			<stop  offset="0.4969" style="stop-color:#EC0404"/>
			<stop  offset="0.782" style="stop-color:#E30101"/>
			<stop  offset="1" style="stop-color:#D60202"/>
		</linearGradient>
		<path fill="url(#SVGID_14_)" d="M92.889,53.853H44.126l-2.271-3.12l24.956-33.454l3.621,0.157L94.95,50.688L92.889,53.853
			L92.889,53.853z M59.013,101.799V53.555h18.994v48.244H59.013L59.013,101.799z M43.558,53.896c-1.161,0-2.103-0.941-2.103-2.104
			c0-1.161,0.942-2.103,2.103-2.103s2.104,0.941,2.104,2.103S44.719,53.896,43.558,53.896L43.558,53.896z M93.298,53.896
			c-1.163,0-2.104-0.941-2.104-2.104c0-1.161,0.941-2.103,2.104-2.103c1.161,0,2.103,0.941,2.103,2.103S94.459,53.896,93.298,53.896
			L93.298,53.896z M68.559,20.509c-1.162,0-2.104-0.941-2.104-2.104c0-1.161,0.942-2.103,2.104-2.103
			c1.16,0,2.104,0.941,2.104,2.103C70.662,19.567,69.719,20.509,68.559,20.509L68.559,20.509z"/>
	</g>
	
		<linearGradient id="SVGID_15_" gradientUnits="userSpaceOnUse" x1="301.5527" y1="-283.8315" x2="301.5527" y2="-259.6934" gradientTransform="matrix(1 0 0 -1 -237.5996 -239.9004)">
		<stop  offset="0" style="stop-color:#FFFFFF;stop-opacity:0"/>
		<stop  offset="1" style="stop-color:#FFFFFF;stop-opacity:0.8"/>
	</linearGradient>
	<path fill="url(#SVGID_15_)" d="M69.201,19.793c0,0,7.718,9.604,9.793,12.125C59.84,29.817,48.91,43.931,48.91,43.931l19.01-24.119
		L69.201,19.793L69.201,19.793z"/>
</g>
</svg>
