<?xml version="1.0" encoding="utf-8"?>
<!-- Generator: Adobe Illustrator 17.1.0, SVG Export Plug-In . SVG Version: 6.00 Build 0)  -->
<!DOCTYPE svg PUBLIC "-//W3C//DTD SVG 1.1//EN" "http://www.w3.org/Graphics/SVG/1.1/DTD/svg11.dtd">
<svg version="1.1" id="Layer_1" xmlns="http://www.w3.org/2000/svg" xmlns:xlink="http://www.w3.org/1999/xlink" x="0px" y="0px"
	 width="210px" height="174px" viewBox="0 0 210 174" enable-background="new 0 0 210 174" xml:space="preserve">
<g>
	<g>
		<path opacity="0.15" enable-background="new    " d="M76.4-44c58.2,0,105.4,47.2,105.4,105.4S134.7,166.8,76.4,166.8
			c-30.9,0-106.2,0-106.2,0S-29,88.7-29,61.4C-29,3.2,18.2-44,76.4-44z"/>
		<path opacity="0.15" enable-background="new    " d="M77.4-43c58.2,0,105.4,47.2,105.4,105.4S135.7,167.8,77.4,167.8
			c-30.9,0-106.2,0-106.2,0S-28,89.7-28,62.4C-28,4.2,19.2-43,77.4-43z"/>
		<path opacity="0.15" enable-background="new    " d="M78.4-42c58.2,0,105.4,47.2,105.4,105.4S136.7,168.8,78.4,168.8
			c-30.9,0-106.2,0-106.2,0S-27,90.7-27,63.4C-27,5.2,20.2-42,78.4-42z"/>
	</g>
	
		<linearGradient id="SVGID_1_" gradientUnits="userSpaceOnUse" x1="40.8854" y1="50.1876" x2="106.4481" y2="254.1976" gradientTransform="matrix(1 0 0 -1 0 218)">
		<stop  offset="0" style="stop-color:#BF1729"/>
		<stop  offset="0.217" style="stop-color:#FFFFFF"/>
		<stop  offset="0.3679" style="stop-color:#BF1729"/>
		<stop  offset="0.4753" style="stop-color:#BF1729"/>
		<stop  offset="0.5708" style="stop-color:#8A101E"/>
		<stop  offset="0.7264" style="stop-color:#FFFFFF"/>
		<stop  offset="0.8019" style="stop-color:#BF1729"/>
		<stop  offset="1" style="stop-color:#BF1729"/>
	</linearGradient>
	<path fill="url(#SVGID_1_)" d="M75.4-45c58.2,0,105.4,47.2,105.4,105.4S133.7,165.8,75.4,165.8c-30.9,0-106.2,0-106.2,0
		S-30,87.7-30,60.4C-30,2.2,17.2-45,75.4-45z"/>
	<path fill="#FFFFFF" d="M75.4-34.9c52.7,0,95.3,42.7,95.3,95.3c0,52.7-42.7,95.3-95.3,95.3c-28,0-96.1,0-96.1,0S-20,85.1-20,60.4
		C-19.9,7.8,22.7-34.9,75.4-34.9z"/>
	<g>
		<path opacity="0.3" enable-background="new    " d="M74.4-35.8c-53.1,0-96.2,43.1-96.2,96.2c0,24.9-0.8,96.2-0.8,96.2s68.7,0,97,0
			c53.1,0,96.2-43.1,96.2-96.2S127.6-35.8,74.4-35.8z M74.4,154.6c-27.6,0-95,0-95,0s0.7-69.8,0.7-94.2c0-52,42.2-94.2,94.2-94.2
			s94.2,42.2,94.2,94.2C168.6,112.4,126.4,154.6,74.4,154.6z"/>
		<g opacity="0.2">
			<g>
				<polygon fill="#FFFFFF" points="170.7,59.5 170.7,57.5 81.7,57.5 144.9,-5.7 143.5,-7.1 79.8,56.5 79.8,-34.8 77.8,-34.8 
					77.8,56.5 11.2,-10.1 9.8,-8.7 75.9,57.5 -19.6,57.5 -19.6,59.5 76.8,59.5 -19.6,155.9 -18.2,157.4 77.8,61.3 77.8,156 
					79.8,156 79.8,61.4 144.5,126.1 145.9,124.7 80.8,59.5 				"/>
			</g>
		</g>
	</g>
</g>
<g>
	
		<ellipse transform="matrix(0.5426 -0.84 0.84 0.5426 -8.6531 185.1412)" opacity="5.000000e-002" fill="#FFFFFF" enable-background="new    " cx="165.7" cy="100.5" rx="29.3" ry="7"/>
	<path opacity="5.000000e-002" fill="#FFFFFF" enable-background="new    " d="M150.9,124.2c-0.2,0-0.3,0-0.4-0.1
		c-0.6-0.4-1.1-2.6,1-8.5c1.9-5.3,5.2-11.8,9.4-18.2c8.3-12.9,16.5-20.5,19.7-20.5c0.2,0,0.3,0,0.4,0.1c0.6,0.4,1.1,2.6-1,8.5
		c-1.9,5.3-5.2,11.8-9.4,18.2C162.3,116.5,154.1,124.2,150.9,124.2L150.9,124.2z"/>
	<path opacity="5.000000e-002" fill="#FFFFFF" enable-background="new    " d="M151.2,123c-0.1-0.6-0.2-2.6,1.4-7
		c1.8-5.2,5.1-11.6,9.3-18c8.1-12.6,15.7-19.5,18.4-20c0.1,0.6,0.2,2.6-1.4,7c-1.8,5.2-5.1,11.6-9.3,18
		C161.5,115.6,153.9,122.5,151.2,123z"/>
	<path opacity="5.000000e-002" fill="#FFFFFF" enable-background="new    " d="M152.4,121.2c0.1-1,0.5-2.6,1.3-4.8
		c1.8-5.1,5.1-11.4,9.1-17.7c7-10.9,13.2-16.9,16.2-18.8c-0.1,1-0.5,2.6-1.3,4.8c-1.8,5.1-5,11.4-9.1,17.7
		C161.6,113.2,155.4,119.3,152.4,121.2z"/>
</g>
<g>
	
		<ellipse transform="matrix(-0.3735 0.9276 -0.9276 -0.3735 320.0657 -35.0941)" opacity="2.000000e-002" fill="#FFFFFF" enable-background="new    " cx="171.9" cy="90.5" rx="12.7" ry="9.3"/>
	<path opacity="2.000000e-002" fill="#FFFFFF" enable-background="new    " d="M169.8,101.7c-0.8,0-1.5-0.1-2.2-0.4
		c-4.2-1.7-5.6-7.9-3.3-13.8c1.9-4.8,5.9-8.1,9.7-8.1c0.8,0,1.5,0.1,2.2,0.4c2,0.8,3.4,2.6,4,5.1c0.7,2.7,0.4,5.7-0.8,8.7
		C177.5,98.4,173.6,101.7,169.8,101.7z"/>
	<path opacity="2.000000e-002" fill="#FFFFFF" enable-background="new    " d="M169.8,100.6c-0.6,0-1.2-0.1-1.8-0.3
		c-3.6-1.4-4.8-7-2.6-12.3c1.8-4.4,5.3-7.4,8.6-7.4c0.6,0,1.2,0.1,1.8,0.3c1.6,0.7,2.8,2.2,3.4,4.4c0.6,2.4,0.4,5.2-0.7,7.9
		C176.7,97.5,173.1,100.6,169.8,100.6z"/>
	<path opacity="2.000000e-002" fill="#FFFFFF" enable-background="new    " d="M169.8,99.4c-0.5,0-0.9-0.1-1.4-0.3
		c-1.4-0.6-2.4-1.9-2.8-3.9c-0.4-2.1-0.2-4.6,0.8-7c1.6-3.9,4.7-6.7,7.6-6.7c0.5,0,0.9,0.1,1.4,0.3c1.3,0.5,2.2,1.8,2.7,3.6
		c0.6,2.2,0.3,4.8-0.7,7.2C175.8,96.6,172.6,99.4,169.8,99.4z"/>
	<path opacity="2.000000e-002" fill="#FFFFFF" enable-background="new    " d="M169.8,98.3c-0.3,0-0.7-0.1-0.9-0.2
		c-1-0.4-1.8-1.5-2.1-3.1c-0.4-1.9-0.1-4.1,0.7-6.3c1.4-3.4,4.2-6,6.5-6c0.3,0,0.7,0.1,0.9,0.2c0.9,0.4,1.6,1.4,2,2.8
		c0.5,2,0.3,4.3-0.6,6.5C174.9,95.7,172.1,98.3,169.8,98.3z"/>
	<path opacity="2.000000e-002" fill="#FFFFFF" enable-background="new    " d="M169.8,97.2c-0.2,0-0.4,0-0.5-0.1
		c-0.6-0.3-1.2-1.1-1.4-2.2c-0.4-1.7-0.1-3.7,0.7-5.6c1.3-3.2,3.9-5.3,5.5-5.3c0.2,0,0.4,0,0.5,0.1c0.6,0.2,1.1,1,1.3,2
		c0.4,1.7,0.2,3.8-0.6,5.8C173.9,95.1,171.4,97.2,169.8,97.2z"/>
</g>
</svg>
