<?xml version="1.0" encoding="utf-8"?>
<!-- Generator: Adobe Illustrator 17.1.0, SVG Export Plug-In . SVG Version: 6.00 Build 0)  -->
<!DOCTYPE svg PUBLIC "-//W3C//DTD SVG 1.1//EN" "http://www.w3.org/Graphics/SVG/1.1/DTD/svg11.dtd">
<svg version="1.1" xmlns="http://www.w3.org/2000/svg" xmlns:xlink="http://www.w3.org/1999/xlink" x="0px" y="0px"
	 viewBox="0 0 624 72" enable-background="new 0 0 624 72" xml:space="preserve">
<g id="normal">
	<g>
		<linearGradient id="SVGID_1_" gradientUnits="userSpaceOnUse" x1="311.9998" y1="83.4618" x2="311.9998" y2="-5.1505">
			<stop  offset="0" style="stop-color:#08B02B"/>
			<stop  offset="1" style="stop-color:#089526"/>
		</linearGradient>
		<path fill-rule="evenodd" clip-rule="evenodd" fill="url(#SVGID_1_)" d="M10.879,73.313l24.35-56.651
			c0.066-0.129,7.378-14.277,21.744-14.277c3.888,0,15.208-0.147,32.343-0.369c47.571-0.617,136.12-1.765,219.668-1.765
			c86.656,0,182.45,1.245,228.486,1.843c15.821,0.206,26.274,0.341,29.487,0.341c12.562,0,21.74,14.12,21.831,14.263l24.331,56.615
			H10.879z"/>
		<path fill="#C8C8C8" d="M308.985,0.5c86.654,0,182.446,1.245,228.482,1.843c15.823,0.206,26.276,0.341,29.491,0.341
			c12.123,0,21.098,13.352,21.6,14.114l24.183,56.263H11.259l24.187-56.275c0.072-0.142,7.321-14.154,21.527-14.154
			c3.89,0,15.21-0.147,32.346-0.369C136.89,1.648,225.438,0.5,308.985,0.5 M308.985,0C195.387,0,71.667,2.134,56.973,2.134
			C42.28,2.134,35,16.562,35,16.562l-24.5,57h603l-24.5-57c0,0-9.198-14.378-22.042-14.378C554.114,2.185,424.534,0,308.985,0
			L308.985,0z"/>
	</g>
	<linearGradient id="SVGID_2_" gradientUnits="userSpaceOnUse" x1="312" y1="-15.1145" x2="312" y2="60.0473">
		<stop  offset="0" style="stop-color:#FFFFFF;stop-opacity:0.2"/>
		<stop  offset="1" style="stop-color:#FFFFFF;stop-opacity:0"/>
	</linearGradient>
	<path fill-rule="evenodd" clip-rule="evenodd" fill="url(#SVGID_2_)" d="M28.693,31.236L10.5,73.563h603l-17.999-41.875
		C531.453,14.919,435.137,3.594,308.346,3.594C185.664,3.594,91.69,14.715,28.693,31.236z"/>
</g>
<g id="focus">
	<g>
		<linearGradient id="SVGID_3_" gradientUnits="userSpaceOnUse" x1="311.9998" y1="83.4618" x2="311.9998" y2="-5.1505">
			<stop  offset="0" style="stop-color:#001A94"/>
			<stop  offset="1" style="stop-color:#00487F"/>
		</linearGradient>
		<path fill-rule="evenodd" clip-rule="evenodd" fill="url(#SVGID_3_)" d="M10.879,73.313l24.35-56.651
			c0.066-0.129,7.378-14.277,21.744-14.277c3.888,0,15.208-0.147,32.343-0.369c47.571-0.617,136.12-1.765,219.668-1.765
			c86.656,0,182.45,1.245,228.486,1.843c15.821,0.206,26.274,0.341,29.487,0.341c12.562,0,21.74,14.12,21.831,14.263l24.331,56.615
			H10.879z"/>
		<path fill="#C8C8C8" d="M308.985,0.5c86.654,0,182.446,1.245,228.482,1.843c15.823,0.206,26.276,0.341,29.491,0.341
			c12.123,0,21.098,13.352,21.6,14.114l24.183,56.263H11.259l24.187-56.275c0.072-0.142,7.321-14.154,21.527-14.154
			c3.89,0,15.21-0.147,32.346-0.369C136.89,1.648,225.438,0.5,308.985,0.5 M308.985,0C195.387,0,71.667,2.134,56.973,2.134
			C42.28,2.134,35,16.562,35,16.562l-24.5,57h603l-24.5-57c0,0-9.198-14.378-22.042-14.378C554.114,2.185,424.534,0,308.985,0
			L308.985,0z"/>
	</g>
	<linearGradient id="SVGID_4_" gradientUnits="userSpaceOnUse" x1="312" y1="-15.1145" x2="312" y2="60.0473">
		<stop  offset="0" style="stop-color:#FFFFFF;stop-opacity:0.2"/>
		<stop  offset="1" style="stop-color:#FFFFFF;stop-opacity:0"/>
	</linearGradient>
	<path fill-rule="evenodd" clip-rule="evenodd" fill="url(#SVGID_4_)" d="M28.693,31.236L10.5,73.563h603l-17.999-41.875
		C531.453,14.919,435.137,3.594,308.346,3.594C185.664,3.594,91.69,14.715,28.693,31.236z"/>
</g>
<g id="active">
	<g>
		<linearGradient id="SVGID_5_" gradientUnits="userSpaceOnUse" x1="311.9998" y1="83.4618" x2="311.9998" y2="-5.1505">
			<stop  offset="0" style="stop-color:#08BD2B"/>
			<stop  offset="1" style="stop-color:#08CF26"/>
		</linearGradient>
		<path fill-rule="evenodd" clip-rule="evenodd" fill="url(#SVGID_5_)" d="M10.879,73.313l24.35-56.651
			c0.066-0.129,7.378-14.277,21.744-14.277c3.888,0,15.208-0.147,32.343-0.369c47.571-0.617,136.12-1.765,219.668-1.765
			c86.656,0,182.45,1.245,228.486,1.843c15.821,0.206,26.274,0.341,29.487,0.341c12.562,0,21.74,14.12,21.831,14.263l24.331,56.615
			H10.879z"/>
		<path fill="#C8C8C8" d="M308.985,0.5c86.654,0,182.446,1.245,228.482,1.843c15.823,0.206,26.276,0.341,29.491,0.341
			c12.123,0,21.098,13.352,21.6,14.114l24.183,56.263H11.259l24.187-56.275c0.072-0.142,7.321-14.154,21.527-14.154
			c3.89,0,15.21-0.147,32.346-0.369C136.89,1.648,225.438,0.5,308.985,0.5 M308.985,0C195.387,0,71.667,2.134,56.973,2.134
			C42.28,2.134,35,16.562,35,16.562l-24.5,57h603l-24.5-57c0,0-9.198-14.378-22.042-14.378C554.114,2.185,424.534,0,308.985,0
			L308.985,0z"/>
	</g>
	<linearGradient id="SVGID_6_" gradientUnits="userSpaceOnUse" x1="312" y1="-15.1145" x2="312" y2="60.0473">
		<stop  offset="0" style="stop-color:#FFFFFF;stop-opacity:0.2"/>
		<stop  offset="1" style="stop-color:#FFFFFF;stop-opacity:0"/>
	</linearGradient>
	<path fill-rule="evenodd" clip-rule="evenodd" fill="url(#SVGID_6_)" d="M28.693,31.236L10.5,73.563h603l-17.999-41.875
		C531.453,14.919,435.137,3.594,308.346,3.594C185.664,3.594,91.69,14.715,28.693,31.236z"/>
</g>
<g id="disabled">
	<g>
		<linearGradient id="SVGID_7_" gradientUnits="userSpaceOnUse" x1="311.9998" y1="83.4618" x2="311.9998" y2="-5.1505">
			<stop  offset="0" style="stop-color:#646464"/>
			<stop  offset="1" style="stop-color:#505050"/>
		</linearGradient>
		<path fill-rule="evenodd" clip-rule="evenodd" fill="url(#SVGID_7_)" d="M10.879,73.313l24.35-56.651
			c0.066-0.129,7.378-14.277,21.744-14.277c3.888,0,15.208-0.147,32.343-0.369c47.571-0.617,136.12-1.765,219.668-1.765
			c86.656,0,182.45,1.245,228.486,1.843c15.821,0.206,26.274,0.341,29.487,0.341c12.562,0,21.74,14.12,21.831,14.263l24.331,56.615
			H10.879z"/>
		<path fill="#C8C8C8" d="M308.985,0.5c86.654,0,182.446,1.245,228.482,1.843c15.823,0.206,26.276,0.341,29.491,0.341
			c12.123,0,21.098,13.352,21.6,14.114l24.183,56.263H11.259l24.187-56.275c0.072-0.142,7.321-14.154,21.527-14.154
			c3.89,0,15.21-0.147,32.346-0.369C136.89,1.648,225.438,0.5,308.985,0.5 M308.985,0C195.387,0,71.667,2.134,56.973,2.134
			C42.28,2.134,35,16.562,35,16.562l-24.5,57h603l-24.5-57c0,0-9.198-14.378-22.042-14.378C554.114,2.185,424.534,0,308.985,0
			L308.985,0z"/>
	</g>
	<linearGradient id="SVGID_8_" gradientUnits="userSpaceOnUse" x1="312" y1="-15.1145" x2="312" y2="60.0473">
		<stop  offset="0" style="stop-color:#FFFFFF;stop-opacity:0.2"/>
		<stop  offset="1" style="stop-color:#FFFFFF;stop-opacity:0"/>
	</linearGradient>
	<path opacity="0.5" fill-rule="evenodd" clip-rule="evenodd" fill="url(#SVGID_8_)" d="M28.693,31.236L10.5,73.563h603
		l-17.999-41.875C531.453,14.919,435.137,3.594,308.346,3.594C185.664,3.594,91.69,14.715,28.693,31.236z"/>
</g>
</svg>
