<?xml version="1.0" encoding="utf-8"?>
<!-- Generator: Adobe Illustrator 17.1.0, SVG Export Plug-In . SVG Version: 6.00 Build 0)  -->
<!DOCTYPE svg PUBLIC "-//W3C//DTD SVG 1.1//EN" "http://www.w3.org/Graphics/SVG/1.1/DTD/svg11.dtd">
<svg version="1.1" xmlns="http://www.w3.org/2000/svg" xmlns:xlink="http://www.w3.org/1999/xlink" x="0px" y="0px" width="666px"
	 height="176px" viewBox="0 0 666 176" enable-background="new 0 0 666 176" xml:space="preserve">
<g id="normal">
	<g opacity="0.6">
		<path opacity="0.05" fill-rule="evenodd" clip-rule="evenodd" d="M623.627,7.972c-2.114-3.929-6.202-6.372-10.664-6.372H11.946
			C5.268,1.6-0.162,7.03-0.162,13.708l0,150.185c0,6.678,5.43,12.108,12.108,12.108h601.017c4.462,0,8.549-2.443,10.663-6.372
			L665.4,91.965c1.066-1.981,1.066-4.349,0-6.331L623.627,7.972z"/>
		<path display="none" opacity="0.15" fill-rule="evenodd" clip-rule="evenodd" d="M622.922,8.151
			c-1.974-3.669-5.793-5.951-9.959-5.951H11.946C5.708,2.2,0.638,7.27,0.638,13.508v150.184c0,6.238,5.07,11.308,11.308,11.308
			h601.017c4.166,0,7.985-2.282,9.959-5.951l41.774-77.663c0.938-1.743,0.938-3.829,0-5.573L622.922,8.151z"/>
		<path opacity="0.15" fill-rule="evenodd" clip-rule="evenodd" d="M622.217,8.33c-1.834-3.408-5.384-5.53-9.254-5.53H11.946
			C6.147,2.8,1.438,7.509,1.438,13.308v150.184c0,5.799,4.709,10.508,10.508,10.508h601.017c3.87,0,7.421-2.122,9.254-5.53
			l41.774-77.663c0.81-1.506,0.81-3.309,0-4.815L622.217,8.33z"/>
		<path opacity="0.2" fill-rule="evenodd" clip-rule="evenodd" d="M621.513,8.509c-1.693-3.148-4.975-5.109-8.55-5.109H11.946
			c-5.359,0-9.708,4.349-9.708,9.708v150.184c0,5.359,4.349,9.708,9.708,9.708h601.017c3.574,0,6.856-1.961,8.549-5.109
			l41.774-77.663c0.682-1.268,0.682-2.789,0-4.057L621.513,8.509z"/>
	</g>
	<g>
		<path fill-rule="evenodd" clip-rule="evenodd" fill="#ECECEC" d="M620.808,8.688l41.774,77.663c0.554,1.03,0.554,2.269,0,3.298
			l-41.774,77.663c-1.553,2.887-4.567,4.688-7.845,4.688H11.946c-4.92,0-8.908-3.988-8.908-8.908V12.908
			C3.038,7.988,7.026,4,11.946,4h601.018C616.242,4,619.255,5.801,620.808,8.688z"/>
	</g>
</g>
<g id="active">
	<g opacity="0.6">
		<path opacity="0.05" fill-rule="evenodd" clip-rule="evenodd" d="M623.627,7.972c-2.114-3.929-6.202-6.372-10.664-6.372H11.946
			C5.268,1.6-0.162,7.03-0.162,13.708l0,150.185c0,6.678,5.43,12.108,12.108,12.108h601.017c4.462,0,8.549-2.443,10.663-6.372
			L665.4,91.965c1.066-1.981,1.066-4.349,0-6.331L623.627,7.972z"/>
		<path display="none" opacity="0.15" fill-rule="evenodd" clip-rule="evenodd" d="M622.922,8.151
			c-1.974-3.669-5.793-5.951-9.959-5.951H11.946C5.708,2.2,0.638,7.27,0.638,13.508v150.184c0,6.238,5.07,11.308,11.308,11.308
			h601.017c4.166,0,7.985-2.282,9.959-5.951l41.774-77.663c0.938-1.743,0.938-3.829,0-5.573L622.922,8.151z"/>
		<path opacity="0.15" fill-rule="evenodd" clip-rule="evenodd" d="M622.217,8.33c-1.834-3.408-5.384-5.53-9.254-5.53H11.946
			C6.147,2.8,1.438,7.509,1.438,13.308v150.184c0,5.799,4.709,10.508,10.508,10.508h601.017c3.87,0,7.421-2.122,9.254-5.53
			l41.774-77.663c0.81-1.506,0.81-3.309,0-4.815L622.217,8.33z"/>
		<path opacity="0.2" fill-rule="evenodd" clip-rule="evenodd" d="M621.513,8.509c-1.693-3.148-4.975-5.109-8.55-5.109H11.946
			c-5.359,0-9.708,4.349-9.708,9.708v150.184c0,5.359,4.349,9.708,9.708,9.708h601.017c3.574,0,6.856-1.961,8.549-5.109
			l41.774-77.663c0.682-1.268,0.682-2.789,0-4.057L621.513,8.509z"/>
	</g>
	<g>
		<path fill-rule="evenodd" clip-rule="evenodd" fill="#AAAAAA" d="M620.808,8.688l41.774,77.663c0.554,1.03,0.554,2.269,0,3.298
			l-41.774,77.663c-1.553,2.887-4.567,4.688-7.845,4.688H11.946c-4.92,0-8.908-3.988-8.908-8.908V12.908
			C3.038,7.988,7.026,4,11.946,4h601.018C616.242,4,619.255,5.801,620.808,8.688z"/>
	</g>
</g>
<g id="disabled" opacity="0.33">
	<g opacity="0.6">
		<path opacity="0.05" fill-rule="evenodd" clip-rule="evenodd" d="M623.627,7.972c-2.114-3.929-6.202-6.372-10.664-6.372H11.946
			C5.268,1.6-0.162,7.03-0.162,13.708l0,150.185c0,6.678,5.43,12.108,12.108,12.108h601.017c4.462,0,8.549-2.443,10.663-6.372
			L665.4,91.965c1.066-1.981,1.066-4.349,0-6.331L623.627,7.972z"/>
		<path display="none" opacity="0.15" fill-rule="evenodd" clip-rule="evenodd" d="M622.922,8.151
			c-1.974-3.669-5.793-5.951-9.959-5.951H11.946C5.708,2.2,0.638,7.27,0.638,13.508v150.184c0,6.238,5.07,11.308,11.308,11.308
			h601.017c4.166,0,7.985-2.282,9.959-5.951l41.774-77.663c0.938-1.743,0.938-3.829,0-5.573L622.922,8.151z"/>
		<path opacity="0.15" fill-rule="evenodd" clip-rule="evenodd" d="M622.217,8.33c-1.834-3.408-5.384-5.53-9.254-5.53H11.946
			C6.147,2.8,1.438,7.509,1.438,13.308v150.184c0,5.799,4.709,10.508,10.508,10.508h601.017c3.87,0,7.421-2.122,9.254-5.53
			l41.774-77.663c0.81-1.506,0.81-3.309,0-4.815L622.217,8.33z"/>
		<path opacity="0.2" fill-rule="evenodd" clip-rule="evenodd" d="M621.513,8.509c-1.693-3.148-4.975-5.109-8.55-5.109H11.946
			c-5.359,0-9.708,4.349-9.708,9.708v150.184c0,5.359,4.349,9.708,9.708,9.708h601.017c3.574,0,6.856-1.961,8.549-5.109
			l41.774-77.663c0.682-1.268,0.682-2.789,0-4.057L621.513,8.509z"/>
	</g>
	<g>
		<path fill-rule="evenodd" clip-rule="evenodd" fill="#DEDEDE" d="M620.808,8.688l41.774,77.663c0.554,1.03,0.554,2.269,0,3.298
			l-41.774,77.663c-1.553,2.887-4.567,4.688-7.845,4.688H11.946c-4.92,0-8.908-3.988-8.908-8.908V12.908
			C3.038,7.988,7.026,4,11.946,4h601.018C616.242,4,619.255,5.801,620.808,8.688z"/>
	</g>
</g>
</svg>
