<?xml version="1.0" encoding="utf-8"?>
<!-- Generator: Adobe Illustrator 18.0.0, SVG Export Plug-In . SVG Version: 6.00 Build 0)  -->
<!DOCTYPE svg PUBLIC "-//W3C//DTD SVG 1.1//EN" "http://www.w3.org/Graphics/SVG/1.1/DTD/svg11.dtd">
<svg version="1.1" xmlns="http://www.w3.org/2000/svg" xmlns:xlink="http://www.w3.org/1999/xlink" x="0px" y="0px" width="354px"
	 height="120px" viewBox="0 0 354 120" enable-background="new 0 0 354 120" xml:space="preserve">
<g id="normal">
	<g>
		<path opacity="0.2" fill-rule="evenodd" clip-rule="evenodd" d="M351,113.167H44.107c-3.11,0-6.043-1.447-7.936-3.915
			L2.445,65.266c-1.929-2.516-1.926-6.014,0.007-8.527l33.72-43.836C38.065,10.442,40.993,9,44.098,9H351c1.105,0,2,0.895,2,2
			v100.167C353,112.271,352.105,113.167,351,113.167z"/>
		<g opacity="0.2">
			<path fill="#4A4A4A" d="M351,9c1.105,0,2,0.895,2,2v100.167c0,1.105-0.895,2-2,2H44.107c-3.11,0-6.043-1.447-7.936-3.915
				L2.445,65.266c-1.929-2.516-1.926-6.014,0.007-8.527l33.72-43.836C38.065,10.442,40.993,9,44.098,9H351 M351,8.5H44.098
				c-3.237,0-6.349,1.532-8.323,4.098L2.055,56.434c-2.068,2.688-2.071,6.445-0.007,9.137l33.727,43.985
				c1.974,2.574,5.089,4.111,8.332,4.111H351c1.379,0,2.5-1.122,2.5-2.5V11C353.5,9.621,352.378,8.5,351,8.5L351,8.5z"/>
		</g>
	</g>
	<g>
		<path fill-rule="evenodd" clip-rule="evenodd" fill="#ECECEC" d="M351,112.167H44.107c-3.11,0-6.043-1.447-7.936-3.915
			L2.445,64.266c-1.929-2.516-1.926-6.014,0.007-8.527l33.72-43.836C38.065,9.442,40.993,8,44.098,8H351c1.105,0,2,0.895,2,2
			v100.167C353,111.271,352.105,112.167,351,112.167z"/>
		<g opacity="0.2">
			<path fill="#4A4A4A" d="M351,9c0.551,0,1,0.449,1,1v100.167c0,0.551-0.449,1-1,1H44.107c-2.78,0-5.45-1.317-7.142-3.524
				L3.239,63.658c-1.651-2.153-1.649-5.159,0.006-7.309l33.72-43.836C38.656,10.313,41.323,9,44.098,9H351 M351,8H44.098
				c-3.105,0-6.033,1.442-7.926,3.903L2.452,55.739c-1.933,2.513-1.936,6.011-0.007,8.527l33.727,43.985
				c1.892,2.468,4.826,3.915,7.936,3.915H351c1.105,0,2-0.895,2-2V10C353,8.895,352.105,8,351,8L351,8z"/>
		</g>
	</g>
</g>
<g id="active">
	<g>
		<path fill-rule="evenodd" clip-rule="evenodd" fill="#AAAAAA" d="M44.107,111.167c-2.78,0-5.45-1.317-7.142-3.523L3.238,63.658
			c-1.65-2.153-1.648-5.159,0.006-7.309l33.72-43.836C38.656,10.313,41.323,9,44.098,9H351c0.551,0,1,0.449,1,1v100.167
			c0,0.551-0.449,1-1,1H44.107z"/>
		<path fill="#AAAAAA" d="M351,10v100.167H44.107c-2.471,0-4.845-1.171-6.348-3.132L4.032,63.049
			c-1.376-1.794-1.374-4.299,0.005-6.091l33.72-43.836C39.261,11.167,41.631,10,44.098,10H351 M351,8H44.098
			c-3.105,0-6.033,1.442-7.926,3.903L2.452,55.739c-1.933,2.513-1.936,6.011-0.007,8.527l33.727,43.985
			c1.892,2.468,4.826,3.915,7.936,3.915H351c1.105,0,2-0.895,2-2V10C353,8.895,352.105,8,351,8L351,8z"/>
	</g>
</g>
<g id="disabled">
	<g opacity="0.2">
		<path fill-rule="evenodd" clip-rule="evenodd" fill="#ECECEC" d="M351,112.167H44.107c-3.11,0-6.043-1.447-7.936-3.915
			L2.445,64.266c-1.929-2.516-1.926-6.014,0.007-8.527l33.72-43.836C38.065,9.442,40.993,8,44.098,8H351c1.105,0,2,0.895,2,2
			v100.167C353,111.271,352.105,112.167,351,112.167z"/>
		<g opacity="0.2">
			<path fill="#4A4A4A" d="M351,9c0.551,0,1,0.449,1,1v100.167c0,0.551-0.449,1-1,1H44.107c-2.78,0-5.45-1.317-7.142-3.524
				L3.239,63.658c-1.651-2.153-1.649-5.159,0.006-7.309l33.72-43.836C38.656,10.313,41.323,9,44.098,9H351 M351,8H44.098
				c-3.105,0-6.033,1.442-7.926,3.903L2.452,55.739c-1.933,2.513-1.936,6.011-0.007,8.527l33.727,43.985
				c1.892,2.468,4.826,3.915,7.936,3.915H351c1.105,0,2-0.895,2-2V10C353,8.895,352.105,8,351,8L351,8z"/>
		</g>
	</g>
</g>
</svg>
