<?xml version="1.0" encoding="utf-8"?>
<!-- Generator: Adobe Illustrator 17.1.0, SVG Export Plug-In . SVG Version: 6.00 Build 0)  -->
<!DOCTYPE svg PUBLIC "-//W3C//DTD SVG 1.1//EN" "http://www.w3.org/Graphics/SVG/1.1/DTD/svg11.dtd">
<svg version="1.1" xmlns="http://www.w3.org/2000/svg" xmlns:xlink="http://www.w3.org/1999/xlink" x="0px" y="0px" width="350px"
	 height="358px" viewBox="0 0 350 358" enable-background="new 0 0 350 358" xml:space="preserve">
<g id="normal">
	<g opacity="0.6">
		<path opacity="0.05" fill-rule="evenodd" clip-rule="evenodd" d="M297.884,358c4.183,0,7.821-2.832,8.846-6.888L350,180
			L306.73,8.888C305.705,4.833,302.067,2,297.884,2H8.999c-5.032,0-9.125,4.093-9.125,9.125l0,337.75
			c0,5.031,4.093,9.125,9.125,9.125H297.884z"/>
		<path display="none" opacity="0.1" fill-rule="evenodd" clip-rule="evenodd" d="M297.884,356.75c3.724,0,6.964-2.522,7.877-6.133
			l43.208-170.867L305.761,8.883c-0.913-3.61-4.153-6.133-7.877-6.133H8.999c-4.481,0-8.125,3.644-8.125,8.125v337.75
			c0,4.481,3.644,8.125,8.125,8.125H297.884z"/>
		<path opacity="0.15" fill-rule="evenodd" clip-rule="evenodd" d="M297.884,355.5c3.265,0,6.107-2.213,6.907-5.378L347.937,179.5
			L304.791,8.878c-0.8-3.165-3.643-5.378-6.907-5.378H8.999c-3.931,0-7.125,3.194-7.125,7.125v337.75
			c0,3.931,3.194,7.125,7.125,7.125H297.884z"/>
		<path opacity="0.2" fill-rule="evenodd" clip-rule="evenodd" d="M297.884,354.25c2.806,0,5.25-1.903,5.938-4.623l43.084-170.377
			L303.822,8.873c-0.688-2.72-3.132-4.623-5.938-4.623H8.999c-3.381,0-6.125,2.744-6.125,6.125v337.75
			c0,3.381,2.744,6.125,6.125,6.125H297.884z"/>
	</g>
	<g>
		<path fill-rule="evenodd" clip-rule="evenodd" fill="#ECECEC" d="M8.999,353h288.885c2.347,0,4.393-1.594,4.969-3.869L345.874,179
			L302.852,8.869C302.277,6.594,300.23,5,297.884,5H8.999c-2.83,0-5.125,2.295-5.125,5.125v337.75
			C3.874,350.705,6.169,353,8.999,353z"/>
	</g>
</g>
<g id="active">
	<g opacity="0.6">
		<path opacity="0.05" fill-rule="evenodd" clip-rule="evenodd" d="M297.884,358c4.183,0,7.821-2.832,8.846-6.888L350,180
			L306.73,8.888C305.705,4.833,302.067,2,297.884,2H8.999c-5.032,0-9.125,4.093-9.125,9.125l0,337.75
			c0,5.031,4.093,9.125,9.125,9.125H297.884z"/>
		<path display="none" opacity="0.1" fill-rule="evenodd" clip-rule="evenodd" d="M297.884,356.75c3.724,0,6.964-2.522,7.877-6.133
			l43.208-170.867L305.761,8.883c-0.913-3.61-4.153-6.133-7.877-6.133H8.999c-4.481,0-8.125,3.644-8.125,8.125v337.75
			c0,4.481,3.644,8.125,8.125,8.125H297.884z"/>
		<path opacity="0.15" fill-rule="evenodd" clip-rule="evenodd" d="M297.884,355.5c3.265,0,6.107-2.213,6.907-5.378L347.937,179.5
			L304.791,8.878c-0.8-3.165-3.643-5.378-6.907-5.378H8.999c-3.931,0-7.125,3.194-7.125,7.125v337.75
			c0,3.931,3.194,7.125,7.125,7.125H297.884z"/>
		<path opacity="0.2" fill-rule="evenodd" clip-rule="evenodd" d="M297.884,354.25c2.806,0,5.25-1.903,5.938-4.623l43.084-170.377
			L303.822,8.873c-0.688-2.72-3.132-4.623-5.938-4.623H8.999c-3.381,0-6.125,2.744-6.125,6.125v337.75
			c0,3.381,2.744,6.125,6.125,6.125H297.884z"/>
	</g>
	<g>
		<path fill-rule="evenodd" clip-rule="evenodd" fill="#AAAAAA" d="M8.999,353h288.885c2.347,0,4.393-1.594,4.969-3.869L345.874,179
			L302.852,8.869C302.277,6.594,300.23,5,297.884,5H8.999c-2.83,0-5.125,2.295-5.125,5.125v337.75
			C3.874,350.705,6.169,353,8.999,353z"/>
	</g>
</g>
<g id="disabled" opacity="0.33">
	<g opacity="0.6">
		<path opacity="0.05" fill-rule="evenodd" clip-rule="evenodd" d="M297.884,358c4.183,0,7.821-2.832,8.846-6.888L350,180
			L306.73,8.888C305.705,4.833,302.067,2,297.884,2H8.999c-5.032,0-9.125,4.093-9.125,9.125l0,337.75
			c0,5.031,4.093,9.125,9.125,9.125H297.884z"/>
		<path display="none" opacity="0.1" fill-rule="evenodd" clip-rule="evenodd" d="M297.884,356.75c3.724,0,6.964-2.522,7.877-6.133
			l43.208-170.867L305.761,8.883c-0.913-3.61-4.153-6.133-7.877-6.133H8.999c-4.481,0-8.125,3.644-8.125,8.125v337.75
			c0,4.481,3.644,8.125,8.125,8.125H297.884z"/>
		<path opacity="0.15" fill-rule="evenodd" clip-rule="evenodd" d="M297.884,355.5c3.265,0,6.107-2.213,6.907-5.378L347.937,179.5
			L304.791,8.878c-0.8-3.165-3.643-5.378-6.907-5.378H8.999c-3.931,0-7.125,3.194-7.125,7.125v337.75
			c0,3.931,3.194,7.125,7.125,7.125H297.884z"/>
		<path opacity="0.2" fill-rule="evenodd" clip-rule="evenodd" d="M297.884,354.25c2.806,0,5.25-1.903,5.938-4.623l43.084-170.377
			L303.822,8.873c-0.688-2.72-3.132-4.623-5.938-4.623H8.999c-3.381,0-6.125,2.744-6.125,6.125v337.75
			c0,3.381,2.744,6.125,6.125,6.125H297.884z"/>
	</g>
	<g>
		<path fill-rule="evenodd" clip-rule="evenodd" fill="#DEDEDE" d="M8.999,353h288.885c2.347,0,4.393-1.594,4.969-3.869L345.874,179
			L302.852,8.869C302.277,6.594,300.23,5,297.884,5H8.999c-2.83,0-5.125,2.295-5.125,5.125v337.75
			C3.874,350.705,6.169,353,8.999,353z"/>
	</g>
</g>
</svg>
