<?xml version="1.0" encoding="utf-8"?>
<!-- Generator: Adobe Illustrator 18.0.0, SVG Export Plug-In . SVG Version: 6.00 Build 0)  -->
<!DOCTYPE svg PUBLIC "-//W3C//DTD SVG 1.1//EN" "http://www.w3.org/Graphics/SVG/1.1/DTD/svg11.dtd">
<svg version="1.1" xmlns="http://www.w3.org/2000/svg" xmlns:xlink="http://www.w3.org/1999/xlink" x="0px" y="0px" width="552px"
	 height="90px" viewBox="0 0 552 90" enable-background="new 0 0 552 90" xml:space="preserve">
<g id="normal">
	<g>
		<path opacity="0.2" fill-rule="evenodd" clip-rule="evenodd" d="M2.504,85.243h516.085c2.338,0,4.544-1.088,5.967-2.944
			l25.358-33.071c1.451-1.892,1.448-4.522-0.005-6.411L524.556,9.858c-1.423-1.85-3.625-2.934-5.959-2.934H2.504
			C1.673,6.924,1,7.597,1,8.427v75.312C1,84.57,1.673,85.243,2.504,85.243z"/>
		<g opacity="0.2">
			<path fill="#4A4A4A" d="M518.596,6.924c2.334,0,4.536,1.084,5.959,2.934l25.353,32.959c1.453,1.889,1.455,4.52,0.005,6.411
				l-25.358,33.071c-1.423,1.856-3.628,2.944-5.966,2.944H2.504C1.673,85.243,1,84.57,1,83.739V8.427
				c0-0.831,0.673-1.504,1.504-1.504H518.596 M518.596,6.424H2.504C1.399,6.424,0.5,7.322,0.5,8.427v75.312
				c0,1.105,0.899,2.004,2.004,2.004h516.085c2.477,0,4.856-1.174,6.363-3.14l25.358-33.071c1.586-2.068,1.583-4.955-0.005-7.021
				L524.952,9.553C523.445,7.594,521.068,6.424,518.596,6.424L518.596,6.424z"/>
		</g>
	</g>
	<g>
		<path fill-rule="evenodd" clip-rule="evenodd" fill="#ECECEC" d="M2.504,84.243h516.085c2.338,0,4.544-1.088,5.967-2.944
			l25.358-33.071c1.451-1.892,1.448-4.522-0.005-6.411L524.556,8.858c-1.423-1.85-3.625-2.934-5.959-2.934H2.504
			C1.673,5.924,1,6.597,1,7.427v75.312C1,83.57,1.673,84.243,2.504,84.243z"/>
		<g opacity="0.2">
			<path fill="#4A4A4A" d="M518.596,6.924c2.01,0,3.941,0.951,5.167,2.544l25.353,32.959c1.175,1.528,1.177,3.664,0.004,5.193
				l-25.358,33.071c-1.225,1.598-3.159,2.552-5.173,2.552H2.504C2.226,83.243,2,83.017,2,82.739V7.427
				C2,7.15,2.226,6.924,2.504,6.924H518.596 M518.596,5.924H2.504C1.673,5.924,1,6.597,1,7.427v75.312
				c0,0.83,0.673,1.504,1.504,1.504h516.085c2.338,0,4.544-1.088,5.966-2.944l25.358-33.071c1.451-1.892,1.448-4.522-0.005-6.411
				L524.556,8.858C523.132,7.008,520.93,5.924,518.596,5.924L518.596,5.924z"/>
		</g>
	</g>
</g>
<g id="active">
	<g>
		<path fill-rule="evenodd" clip-rule="evenodd" fill="#AAAAAA" d="M2.504,83.243C2.226,83.243,2,83.017,2,82.739V7.427
			c0-0.278,0.226-0.503,0.504-0.503h516.093c2.01,0,3.941,0.951,5.166,2.543l25.353,32.959c1.177,1.528,1.178,3.663,0.004,5.192
			l-25.357,33.072c-1.225,1.598-3.159,2.552-5.173,2.552H2.504z"/>
		<path fill="#AAAAAA" d="M518.596,7.924c1.702,0,3.337,0.805,4.374,2.154l25.353,32.959c0.9,1.169,0.901,2.804,0.003,3.975
			l-25.358,33.071c-1.037,1.353-2.674,2.161-4.379,2.161H3V7.924H518.596 M518.596,5.924H2.504C1.673,5.924,1,6.597,1,7.427v75.312
			c0,0.83,0.673,1.504,1.504,1.504h516.085c2.338,0,4.544-1.088,5.966-2.944l25.358-33.071c1.451-1.892,1.448-4.522-0.005-6.411
			L524.556,8.858C523.132,7.008,520.93,5.924,518.596,5.924L518.596,5.924z"/>
	</g>
</g>
<g id="disabled">
	<g opacity="0.2">
		<path fill-rule="evenodd" clip-rule="evenodd" fill="#ECECEC" d="M2.504,84.243h516.085c2.338,0,4.544-1.088,5.967-2.944
			l25.358-33.071c1.451-1.892,1.448-4.522-0.005-6.411L524.556,8.858c-1.423-1.85-3.625-2.934-5.959-2.934H2.504
			C1.673,5.924,1,6.597,1,7.427v75.312C1,83.57,1.673,84.243,2.504,84.243z"/>
		<g opacity="0.2">
			<path fill="#4A4A4A" d="M518.596,6.924c2.01,0,3.941,0.951,5.167,2.544l25.353,32.959c1.175,1.528,1.177,3.664,0.004,5.193
				l-25.358,33.071c-1.225,1.598-3.159,2.552-5.173,2.552H2.504C2.226,83.243,2,83.017,2,82.739V7.427
				C2,7.15,2.226,6.924,2.504,6.924H518.596 M518.596,5.924H2.504C1.673,5.924,1,6.597,1,7.427v75.312
				c0,0.83,0.673,1.504,1.504,1.504h516.085c2.338,0,4.544-1.088,5.966-2.944l25.358-33.071c1.451-1.892,1.448-4.522-0.005-6.411
				L524.556,8.858C523.132,7.008,520.93,5.924,518.596,5.924L518.596,5.924z"/>
		</g>
	</g>
</g>
</svg>
