<?xml version="1.0" encoding="utf-8"?>
<!-- Generator: Adobe Illustrator 16.0.2, SVG Export Plug-In . SVG Version: 6.00 Build 0)  -->
<!DOCTYPE svg PUBLIC "-//W3C//DTD SVG 1.1//EN" "http://www.w3.org/Graphics/SVG/1.1/DTD/svg11.dtd">
<svg version="1.1" id="Layer_1" xmlns="http://www.w3.org/2000/svg" xmlns:xlink="http://www.w3.org/1999/xlink" x="0px" y="0px"
	 width="120px" height="120px" viewBox="0 0 120 120" enable-background="new 0 0 120 120" xml:space="preserve">
<g id="black_white">
	<path fill="#3A3A3A" d="M51.012,53.306v44.191H24.831l7.793-44.128L51.012,53.306z M76.279,53.221l-18.363,0.063v44.213h26.182
		l-0.727-4.114l0,0c-4.668-4.186-8.28-9.378-10.538-15.148l-1.717,1.063l-0.929,0.574c-2.574,1.593-5.819-0.613-5.287-3.594
		l2.953-16.501c0.334-1.868,2.297-2.96,4.061-2.26l4.553,1.808l0.957,0.38l0,0L76.279,53.221z M57.916,38.278h15.725l-3.293-18.645
		H57.916V38.278z M14.371,44.315v4.579h6.451v5.304h4.843v-5.304h56.907v5.304h4.843v-5.304h7.172v-4.579H14.371z M35.289,38.278
		h15.724V19.633H38.581L35.289,38.278z M105.629,86.518c-0.113,0-0.229,0.002-0.341,0.002c-2.384,0-4.756-0.31-7.052-0.916
		c-7.152-1.895-13.115-6.441-16.789-12.807l-1.454-2.52l5.212-3.225c0.419-0.26,0.363-0.887-0.094-1.068L71.49,60.577
		c-0.354-0.14-0.745,0.077-0.813,0.452l-2.783,15.557c-0.09,0.512,0.465,0.889,0.906,0.616l5.512-3.41l1.312,3.353
		c4.274,10.924,13.653,19.252,25.084,22.278c1.59,0.421,3.235,0.736,4.921,0.944V86.518z"/>
</g>
<g id="blue">
	<path fill-opacity="0.1" d="M31.33,106.922c-8.949,0-16.229-7.279-16.229-16.229V31.164c0-8.948,7.28-16.228,16.229-16.228h59.527
		c8.949,0,16.229,7.28,16.229,16.228v59.529c0,8.947-7.28,16.229-16.229,16.229H31.33"/>
	<path fill="#00598C" d="M29.33,104.922c-8.949,0-16.229-7.279-16.229-16.229V29.164c0-8.948,7.28-16.228,16.229-16.228h59.527
		c8.949,0,16.229,7.28,16.229,16.228v59.529c0,8.947-7.28,16.229-16.229,16.229H29.33"/>
	<g>
		
			<linearGradient id="SVGID_1_" gradientUnits="userSpaceOnUse" x1="296.6943" y1="-341.8228" x2="296.6942" y2="-255.8354" gradientTransform="matrix(1 0 0 -1 -237.5996 -239.9004)">
			<stop  offset="0" style="stop-color:#48A2FB"/>
			<stop  offset="0.1758" style="stop-color:#059CF4"/>
			<stop  offset="0.4969" style="stop-color:#0398EF"/>
			<stop  offset="0.782" style="stop-color:#0293E7"/>
			<stop  offset="1" style="stop-color:#0189D8"/>
		</linearGradient>
		<path fill="url(#SVGID_1_)" d="M88.857,101.923H29.33c-7.306,0-13.23-5.923-13.23-13.229V29.164
			c0-7.306,5.924-13.229,13.23-13.229h59.527c7.308,0,13.23,5.922,13.23,13.229v59.529C102.089,96,96.165,101.923,88.857,101.923
			L88.857,101.923z"/>
	</g>
	<path fill="#00598C" d="M60.35,52.772V27.985h6.276l4.856,24.787H60.35L60.35,52.772z M46.707,52.772l4.856-24.787h6.276v24.787
		H46.707L46.707,52.772z M57.839,55.282v39.231H38.531l7.684-39.231H57.839L57.839,55.282z M71.975,55.282l7.685,39.231H60.35
		V55.282H71.975L71.975,55.282z"/>
	<path fill="#FFFFFF" d="M63.35,91.514c0-4.695,0-28.537,0-33.231c2.357,0,4.096,0,6.154,0c0.755,3.852,5.434,27.726,6.512,33.231
		C72.137,91.514,66.673,91.514,63.35,91.514 M42.174,91.514c1.078-5.507,5.756-29.381,6.51-33.231c2.06,0,3.797,0,6.155,0
		c0,4.694,0,28.536,0,33.231C51.516,91.514,46.053,91.514,42.174,91.514 M63.35,49.772c0-3.998,0-14.79,0-18.788
		c0.403,0,0.422,0,0.809,0c0.648,3.313,2.773,14.148,3.682,18.788C65.861,49.772,65.116,49.772,63.35,49.772 M50.35,49.772
		c0.908-4.64,3.033-15.474,3.682-18.788c0.386,0,0.403,0,0.807,0c0,3.998,0,14.79,0,18.788
		C53.073,49.772,52.327,49.772,50.35,49.772"/>
	<path fill="#00598C" d="M36.497,57.327v-7.532h45.192v7.532H36.497L36.497,57.327z M70.395,59.838V53.56h6.275v6.278H70.395
		L70.395,59.838z M41.52,59.838V53.56h6.276v6.278H41.52L41.52,59.838z"/>
	<path fill="#FFFFFF" d="M73.354,56.838c-0.233-1.425-1.47-2.511-2.959-2.511H47.796c-1.491,0-2.726,1.086-2.96,2.511
		c-0.178,0-0.179,0-0.357,0c-0.234-1.425-1.469-2.511-2.959-2.511c0,0-1.049,0-2.023,0c0-0.735,0-0.797,0-1.533
		c4.857,0,34.336,0,39.194,0c0,0.735,0,0.798,0,1.533c-0.973,0-2.021,0-2.021,0c-1.49,0-2.727,1.086-2.96,2.511
		C73.532,56.838,73.529,56.838,73.354,56.838"/>
	<path fill="#00598C" d="M96.191,96.825c-4.278-0.533-8.242-1.673-11.782-3.38c-2.847-1.375-5.425-3.118-7.661-5.184
		c-2.242-2.07-3.691-4.048-4.523-5.363c-1.33,0.996-3.146,2.357-3.146,2.357c-0.266,0.199-0.582,0.303-0.9,0.303
		c-0.213,0-0.428-0.047-0.63-0.141c-0.499-0.23-0.832-0.718-0.866-1.27L65.553,66.1c-0.002-0.029-0.003-0.061-0.003-0.092
		c0-0.463,0.214-0.906,0.587-1.189c0.266-0.205,0.588-0.313,0.916-0.313c0.157,0,0.317,0.025,0.473,0.077l16.92,5.642
		c0.529,0.178,0.918,0.633,1.007,1.184c0.014,0.08,0.021,0.16,0.021,0.238c0,0.467-0.219,0.914-0.602,1.201
		c0,0-2.163,1.621-3.419,2.563c1.144,1.497,4.058,4.165,10.313,4.165c1.363,0,2.834-0.129,4.366-0.385
		c0.082-0.014,0.165-0.021,0.247-0.021c0.354,0,0.696,0.125,0.969,0.355c0.336,0.285,0.531,0.705,0.531,1.146v14.663
		c0,0.432-0.186,0.839-0.507,1.124c-0.274,0.244-0.63,0.375-0.992,0.375C96.316,96.836,96.255,96.833,96.191,96.825"/>
	<path fill="#FFFFFF" d="M85.809,90.789c-2.568-1.23-4.896-2.787-6.914-4.629c-3.449-3.148-4.826-6.082-4.84-6.111
		c-0.191-0.41-0.558-0.717-0.996-0.828c-0.121-0.029-0.246-0.046-0.369-0.046c-0.32,0-0.639,0.103-0.898,0.3
		c0,0-1.146,0.857-2.289,1.717c-0.211-3.396-0.639-10.238-0.814-13.055c2.642,0.881,8.834,2.945,12.094,4.031
		c-1.11,0.833-2.223,1.666-2.223,1.666c-0.388,0.289-0.601,0.738-0.601,1.199c0,0.197,0.04,0.4,0.122,0.591
		c0.121,0.283,3.102,6.955,13.686,6.955c0.996,0,2.039-0.062,3.112-0.181c0,2.324,0,8.863,0,11.201
		C91.605,93.049,88.561,92.105,85.809,90.789"/>
	
		<linearGradient id="SVGID_2_" gradientUnits="userSpaceOnUse" x1="297.291" y1="-282.6055" x2="297.291" y2="-257.9302" gradientTransform="matrix(1 0 0 -1 -237.5996 -239.9004)">
		<stop  offset="0" style="stop-color:#FFFFFF;stop-opacity:0"/>
		<stop  offset="1" style="stop-color:#FFFFFF;stop-opacity:0.8"/>
	</linearGradient>
	<path fill="url(#SVGID_2_)" d="M36.279,34.888c-10.953-3.797-15.283-8.096-16.986-10.74c1.672-3.347,4.899-5.653,8.636-6.118
		c0.237,0,61.958,0,61.958,0l0.297,0.01c0,0,0.086,0.005,0.168,0.008c5.557,0.737,9.737,5.503,9.737,11.116c0,0,0,10.497,0,13.541
		C72.244,42.546,50.784,39.917,36.279,34.888"/>
</g>
<g id="green">
	<path fill-opacity="0.1" d="M31.33,106.922c-8.949,0-16.229-7.279-16.229-16.229V31.164c0-8.948,7.28-16.228,16.229-16.228h59.527
		c8.949,0,16.229,7.28,16.229,16.228v59.529c0,8.947-7.28,16.229-16.229,16.229H31.33"/>
	<path fill="#015911" d="M29.33,104.922c-8.949,0-16.229-7.279-16.229-16.229V29.164c0-8.948,7.28-16.228,16.229-16.228h59.527
		c8.949,0,16.229,7.28,16.229,16.228v59.529c0,8.947-7.28,16.229-16.229,16.229H29.33"/>
	<g>
		
			<linearGradient id="SVGID_3_" gradientUnits="userSpaceOnUse" x1="296.6943" y1="-341.8228" x2="296.6942" y2="-255.8354" gradientTransform="matrix(1 0 0 -1 -237.5996 -239.9004)">
			<stop  offset="0" style="stop-color:#00DF34"/>
			<stop  offset="0.1758" style="stop-color:#00CD26"/>
			<stop  offset="0.4969" style="stop-color:#00B211"/>
			<stop  offset="0.782" style="stop-color:#00A204"/>
			<stop  offset="1" style="stop-color:#009C00"/>
		</linearGradient>
		<path fill="url(#SVGID_3_)" d="M88.857,101.923H29.33c-7.306,0-13.23-5.923-13.23-13.229V29.164
			c0-7.306,5.924-13.229,13.23-13.229h59.527c7.308,0,13.23,5.922,13.23,13.229v59.529C102.089,96,96.165,101.923,88.857,101.923
			L88.857,101.923z"/>
	</g>
	<path fill="#015911" d="M60.35,52.772V27.985h6.276l4.856,24.787H60.35L60.35,52.772z M46.707,52.772l4.856-24.787h6.276v24.787
		H46.707L46.707,52.772z M57.839,55.282v39.231H38.531l7.684-39.231H57.839L57.839,55.282z M71.975,55.282l7.685,39.231H60.35
		V55.282H71.975L71.975,55.282z"/>
	<path fill="#FFFFFF" d="M63.35,91.514c0-4.695,0-28.537,0-33.231c2.357,0,4.096,0,6.154,0c0.755,3.852,5.434,27.726,6.512,33.231
		C72.137,91.514,66.673,91.514,63.35,91.514 M42.174,91.514c1.078-5.507,5.756-29.381,6.51-33.231c2.06,0,3.797,0,6.155,0
		c0,4.694,0,28.536,0,33.231C51.516,91.514,46.053,91.514,42.174,91.514 M63.35,49.772c0-3.998,0-14.79,0-18.788
		c0.403,0,0.422,0,0.809,0c0.648,3.313,2.773,14.148,3.682,18.788C65.861,49.772,65.116,49.772,63.35,49.772 M50.35,49.772
		c0.908-4.64,3.033-15.474,3.682-18.788c0.386,0,0.403,0,0.807,0c0,3.998,0,14.79,0,18.788
		C53.073,49.772,52.327,49.772,50.35,49.772"/>
	<path fill="#015911" d="M36.497,57.327v-7.532h45.192v7.532H36.497L36.497,57.327z M70.395,59.838V53.56h6.275v6.278H70.395
		L70.395,59.838z M41.52,59.838V53.56h6.276v6.278H41.52L41.52,59.838z"/>
	<path fill="#FFFFFF" d="M73.354,56.838c-0.233-1.425-1.47-2.511-2.959-2.511H47.796c-1.491,0-2.726,1.086-2.96,2.511
		c-0.178,0-0.179,0-0.357,0c-0.234-1.425-1.469-2.511-2.959-2.511c0,0-1.049,0-2.023,0c0-0.735,0-0.797,0-1.533
		c4.857,0,34.336,0,39.194,0c0,0.735,0,0.798,0,1.533c-0.973,0-2.021,0-2.021,0c-1.49,0-2.727,1.086-2.96,2.511
		C73.532,56.838,73.529,56.838,73.354,56.838"/>
	<path fill="#015911" d="M96.191,96.825c-4.278-0.533-8.242-1.673-11.782-3.38c-2.847-1.375-5.425-3.118-7.661-5.184
		c-2.242-2.07-3.691-4.048-4.523-5.363c-1.33,0.996-3.146,2.357-3.146,2.357c-0.266,0.199-0.582,0.303-0.9,0.303
		c-0.213,0-0.428-0.047-0.63-0.141c-0.499-0.23-0.832-0.718-0.866-1.27L65.553,66.1c-0.002-0.029-0.003-0.061-0.003-0.092
		c0-0.463,0.214-0.906,0.587-1.189c0.266-0.205,0.588-0.313,0.916-0.313c0.157,0,0.317,0.025,0.473,0.077l16.92,5.642
		c0.529,0.178,0.918,0.633,1.007,1.184c0.014,0.08,0.021,0.16,0.021,0.238c0,0.467-0.219,0.914-0.602,1.201
		c0,0-2.163,1.621-3.419,2.563c1.144,1.497,4.058,4.165,10.313,4.165c1.363,0,2.834-0.129,4.366-0.385
		c0.082-0.014,0.165-0.021,0.247-0.021c0.354,0,0.696,0.125,0.969,0.355c0.336,0.285,0.531,0.705,0.531,1.146v14.663
		c0,0.432-0.186,0.839-0.507,1.124c-0.274,0.244-0.63,0.375-0.992,0.375C96.316,96.836,96.255,96.833,96.191,96.825"/>
	<path fill="#FFFFFF" d="M85.809,90.789c-2.568-1.23-4.896-2.787-6.914-4.629c-3.449-3.148-4.826-6.082-4.84-6.111
		c-0.191-0.41-0.558-0.717-0.996-0.828c-0.121-0.029-0.246-0.046-0.369-0.046c-0.32,0-0.639,0.103-0.898,0.3
		c0,0-1.146,0.857-2.289,1.717c-0.211-3.396-0.639-10.238-0.814-13.055c2.642,0.881,8.834,2.945,12.094,4.031
		c-1.11,0.833-2.223,1.666-2.223,1.666c-0.388,0.289-0.601,0.738-0.601,1.199c0,0.197,0.04,0.4,0.122,0.591
		c0.121,0.283,3.102,6.955,13.686,6.955c0.996,0,2.039-0.062,3.112-0.181c0,2.324,0,8.863,0,11.201
		C91.605,93.049,88.561,92.105,85.809,90.789"/>
	
		<linearGradient id="SVGID_4_" gradientUnits="userSpaceOnUse" x1="297.291" y1="-282.6055" x2="297.291" y2="-257.9302" gradientTransform="matrix(1 0 0 -1 -237.5996 -239.9004)">
		<stop  offset="0" style="stop-color:#FFFFFF;stop-opacity:0"/>
		<stop  offset="1" style="stop-color:#FFFFFF;stop-opacity:0.8"/>
	</linearGradient>
	<path fill="url(#SVGID_4_)" d="M36.279,34.888c-10.953-3.797-15.283-8.096-16.986-10.74c1.672-3.347,4.899-5.653,8.636-6.118
		c0.237,0,61.958,0,61.958,0l0.297,0.01c0,0,0.086,0.005,0.168,0.008c5.557,0.737,9.737,5.503,9.737,11.116c0,0,0,10.497,0,13.541
		C72.244,42.546,50.784,39.917,36.279,34.888"/>
</g>
<g id="kia">
	<path fill-opacity="0.1" d="M31.33,106.922c-8.949,0-16.229-7.279-16.229-16.229V31.164c0-8.948,7.28-16.228,16.229-16.228h59.527
		c8.949,0,16.229,7.28,16.229,16.228v59.529c0,8.947-7.28,16.229-16.229,16.229H31.33"/>
	<path fill="#000000" d="M29.33,104.922c-8.949,0-16.229-7.279-16.229-16.229V29.164c0-8.948,7.28-16.228,16.229-16.228h59.527
		c8.949,0,16.229,7.28,16.229,16.228v59.529c0,8.947-7.28,16.229-16.229,16.229H29.33"/>
	<g>
		
			<linearGradient id="SVGID_5_" gradientUnits="userSpaceOnUse" x1="296.6943" y1="-341.8228" x2="296.6942" y2="-255.8354" gradientTransform="matrix(1 0 0 -1 -237.5996 -239.9004)">
			<stop  offset="0" style="stop-color:#FFFFFF"/>
			<stop  offset="0.1758" style="stop-color:#E7E9EA"/>
			<stop  offset="0.4969" style="stop-color:#CDD2D5"/>
			<stop  offset="0.782" style="stop-color:#C5CACC"/>
			<stop  offset="1" style="stop-color:#BABDC0"/>
		</linearGradient>
		<path fill="url(#SVGID_5_)" d="M88.857,101.923H29.33c-7.306,0-13.23-5.923-13.23-13.229V29.164
			c0-7.306,5.924-13.229,13.23-13.229h59.527c7.308,0,13.23,5.922,13.23,13.229v59.529C102.089,96,96.165,101.923,88.857,101.923
			L88.857,101.923z"/>
	</g>
	<path fill="#000000" d="M60.35,52.772V27.985h6.276l4.856,24.787H60.35L60.35,52.772z M46.707,52.772l4.856-24.787h6.276v24.787
		H46.707L46.707,52.772z M57.839,55.282v39.231H38.531l7.684-39.231H57.839L57.839,55.282z M71.975,55.282l7.685,39.231H60.35
		V55.282H71.975L71.975,55.282z"/>
	<path fill="#FFFFFF" d="M63.35,91.514c0-4.695,0-28.537,0-33.231c2.357,0,4.096,0,6.154,0c0.755,3.852,5.434,27.726,6.512,33.231
		C72.137,91.514,66.673,91.514,63.35,91.514 M42.174,91.514c1.078-5.507,5.756-29.381,6.51-33.231c2.06,0,3.797,0,6.155,0
		c0,4.694,0,28.536,0,33.231C51.516,91.514,46.053,91.514,42.174,91.514 M63.35,49.772c0-3.998,0-14.79,0-18.788
		c0.403,0,0.422,0,0.809,0c0.648,3.313,2.773,14.148,3.682,18.788C65.861,49.772,65.116,49.772,63.35,49.772 M50.35,49.772
		c0.908-4.64,3.033-15.474,3.682-18.788c0.386,0,0.403,0,0.807,0c0,3.998,0,14.79,0,18.788
		C53.073,49.772,52.327,49.772,50.35,49.772"/>
	<path fill="#000000" d="M36.497,57.327v-7.532h45.192v7.532H36.497L36.497,57.327z M70.395,59.838V53.56h6.275v6.278H70.395
		L70.395,59.838z M41.52,59.838V53.56h6.276v6.278H41.52L41.52,59.838z"/>
	<path fill="#FFFFFF" d="M73.354,56.838c-0.233-1.425-1.47-2.511-2.959-2.511H47.796c-1.491,0-2.726,1.086-2.96,2.511
		c-0.178,0-0.179,0-0.357,0c-0.234-1.425-1.469-2.511-2.959-2.511c0,0-1.049,0-2.023,0c0-0.735,0-0.797,0-1.533
		c4.857,0,34.336,0,39.194,0c0,0.735,0,0.798,0,1.533c-0.973,0-2.021,0-2.021,0c-1.49,0-2.727,1.086-2.96,2.511
		C73.532,56.838,73.529,56.838,73.354,56.838"/>
	<path fill="#000000" d="M96.191,96.825c-4.278-0.533-8.242-1.673-11.782-3.38c-2.847-1.375-5.425-3.118-7.661-5.184
		c-2.242-2.07-3.691-4.048-4.523-5.363c-1.33,0.996-3.146,2.357-3.146,2.357c-0.266,0.199-0.582,0.303-0.9,0.303
		c-0.213,0-0.428-0.047-0.63-0.141c-0.499-0.23-0.832-0.718-0.866-1.27L65.553,66.1c-0.002-0.029-0.003-0.061-0.003-0.092
		c0-0.463,0.214-0.906,0.587-1.189c0.266-0.205,0.588-0.313,0.916-0.313c0.157,0,0.317,0.025,0.473,0.077l16.92,5.642
		c0.529,0.178,0.918,0.633,1.007,1.184c0.014,0.08,0.021,0.16,0.021,0.238c0,0.467-0.219,0.914-0.602,1.201
		c0,0-2.163,1.621-3.419,2.563c1.144,1.497,4.058,4.165,10.313,4.165c1.363,0,2.834-0.129,4.366-0.385
		c0.082-0.014,0.165-0.021,0.247-0.021c0.354,0,0.696,0.125,0.969,0.355c0.336,0.285,0.531,0.705,0.531,1.146v14.663
		c0,0.432-0.186,0.839-0.507,1.124c-0.274,0.244-0.63,0.375-0.992,0.375C96.316,96.836,96.255,96.833,96.191,96.825"/>
	<path fill="#FFFFFF" d="M85.809,90.789c-2.568-1.23-4.896-2.787-6.914-4.629c-3.449-3.148-4.826-6.082-4.84-6.111
		c-0.191-0.41-0.558-0.717-0.996-0.828c-0.121-0.029-0.246-0.046-0.369-0.046c-0.32,0-0.639,0.103-0.898,0.3
		c0,0-1.146,0.857-2.289,1.717c-0.211-3.396-0.639-10.238-0.814-13.055c2.642,0.881,8.834,2.945,12.094,4.031
		c-1.11,0.833-2.223,1.666-2.223,1.666c-0.388,0.289-0.601,0.738-0.601,1.199c0,0.197,0.04,0.4,0.122,0.591
		c0.121,0.283,3.102,6.955,13.686,6.955c0.996,0,2.039-0.062,3.112-0.181c0,2.324,0,8.863,0,11.201
		C91.605,93.049,88.561,92.105,85.809,90.789"/>
	
		<linearGradient id="SVGID_6_" gradientUnits="userSpaceOnUse" x1="297.291" y1="-282.6055" x2="297.291" y2="-257.9302" gradientTransform="matrix(1 0 0 -1 -237.5996 -239.9004)">
		<stop  offset="0" style="stop-color:#FFFFFF;stop-opacity:0"/>
		<stop  offset="1" style="stop-color:#FFFFFF;stop-opacity:0.8"/>
	</linearGradient>
	<path fill="url(#SVGID_6_)" d="M36.279,34.888c-10.953-3.797-15.283-8.096-16.986-10.74c1.672-3.347,4.899-5.653,8.636-6.118
		c0.237,0,61.958,0,61.958,0l0.297,0.01c0,0,0.086,0.005,0.168,0.008c5.557,0.737,9.737,5.503,9.737,11.116c0,0,0,10.497,0,13.541
		C72.244,42.546,50.784,39.917,36.279,34.888"/>
</g>
<g id="orange">
	<path fill-opacity="0.1" d="M31.33,106.922c-8.949,0-16.229-7.279-16.229-16.229V31.164c0-8.948,7.28-16.228,16.229-16.228h59.527
		c8.949,0,16.229,7.28,16.229,16.228v59.529c0,8.947-7.28,16.229-16.229,16.229H31.33"/>
	<path fill="#A43C10" d="M29.33,104.922c-8.949,0-16.229-7.279-16.229-16.229V29.164c0-8.948,7.28-16.228,16.229-16.228h59.527
		c8.949,0,16.229,7.28,16.229,16.228v59.529c0,8.947-7.28,16.229-16.229,16.229H29.33"/>
	<g>
		
			<linearGradient id="SVGID_7_" gradientUnits="userSpaceOnUse" x1="296.6943" y1="-341.8228" x2="296.6942" y2="-255.8354" gradientTransform="matrix(1 0 0 -1 -237.5996 -239.9004)">
			<stop  offset="0" style="stop-color:#FEDF34"/>
			<stop  offset="0.1758" style="stop-color:#FECD26"/>
			<stop  offset="0.4969" style="stop-color:#FFB211"/>
			<stop  offset="0.782" style="stop-color:#FFA204"/>
			<stop  offset="1" style="stop-color:#FF9C00"/>
		</linearGradient>
		<path fill="url(#SVGID_7_)" d="M88.857,101.923H29.33c-7.306,0-13.23-5.923-13.23-13.229V29.164
			c0-7.306,5.924-13.229,13.23-13.229h59.527c7.308,0,13.23,5.922,13.23,13.229v59.529C102.089,96,96.165,101.923,88.857,101.923
			L88.857,101.923z"/>
	</g>
	<path fill="#A43C10" d="M60.35,52.772V27.985h6.276l4.856,24.787H60.35L60.35,52.772z M46.707,52.772l4.856-24.787h6.276v24.787
		H46.707L46.707,52.772z M57.839,55.282v39.231H38.531l7.684-39.231H57.839L57.839,55.282z M71.975,55.282l7.685,39.231H60.35
		V55.282H71.975L71.975,55.282z"/>
	<path fill="#FFFFFF" d="M63.35,91.514c0-4.695,0-28.537,0-33.231c2.357,0,4.096,0,6.154,0c0.755,3.852,5.434,27.726,6.512,33.231
		C72.137,91.514,66.673,91.514,63.35,91.514 M42.174,91.514c1.078-5.507,5.756-29.381,6.51-33.231c2.06,0,3.797,0,6.155,0
		c0,4.694,0,28.536,0,33.231C51.516,91.514,46.053,91.514,42.174,91.514 M63.35,49.772c0-3.998,0-14.79,0-18.788
		c0.403,0,0.422,0,0.809,0c0.648,3.313,2.773,14.148,3.682,18.788C65.861,49.772,65.116,49.772,63.35,49.772 M50.35,49.772
		c0.908-4.64,3.033-15.474,3.682-18.788c0.386,0,0.403,0,0.807,0c0,3.998,0,14.79,0,18.788
		C53.073,49.772,52.327,49.772,50.35,49.772"/>
	<path fill="#A43C10" d="M36.497,57.327v-7.532h45.192v7.532H36.497L36.497,57.327z M70.395,59.838V53.56h6.275v6.278H70.395
		L70.395,59.838z M41.52,59.838V53.56h6.276v6.278H41.52L41.52,59.838z"/>
	<path fill="#FFFFFF" d="M73.354,56.838c-0.233-1.425-1.47-2.511-2.959-2.511H47.796c-1.491,0-2.726,1.086-2.96,2.511
		c-0.178,0-0.179,0-0.357,0c-0.234-1.425-1.469-2.511-2.959-2.511c0,0-1.049,0-2.023,0c0-0.735,0-0.797,0-1.533
		c4.857,0,34.336,0,39.194,0c0,0.735,0,0.798,0,1.533c-0.973,0-2.021,0-2.021,0c-1.49,0-2.727,1.086-2.96,2.511
		C73.532,56.838,73.529,56.838,73.354,56.838"/>
	<path fill="#A43C10" d="M96.191,96.825c-4.278-0.533-8.242-1.673-11.782-3.38c-2.847-1.375-5.425-3.118-7.661-5.184
		c-2.242-2.07-3.691-4.048-4.523-5.363c-1.33,0.996-3.146,2.357-3.146,2.357c-0.266,0.199-0.582,0.303-0.9,0.303
		c-0.213,0-0.428-0.047-0.63-0.141c-0.499-0.23-0.832-0.718-0.866-1.27L65.553,66.1c-0.002-0.029-0.003-0.061-0.003-0.092
		c0-0.463,0.214-0.906,0.587-1.189c0.266-0.205,0.588-0.313,0.916-0.313c0.157,0,0.317,0.025,0.473,0.077l16.92,5.642
		c0.529,0.178,0.918,0.633,1.007,1.184c0.014,0.08,0.021,0.16,0.021,0.238c0,0.467-0.219,0.914-0.602,1.201
		c0,0-2.163,1.621-3.419,2.563c1.144,1.497,4.058,4.165,10.313,4.165c1.363,0,2.834-0.129,4.366-0.385
		c0.082-0.014,0.165-0.021,0.247-0.021c0.354,0,0.696,0.125,0.969,0.355c0.336,0.285,0.531,0.705,0.531,1.146v14.663
		c0,0.432-0.186,0.839-0.507,1.124c-0.274,0.244-0.63,0.375-0.992,0.375C96.316,96.836,96.255,96.833,96.191,96.825"/>
	<path fill="#FFFFFF" d="M85.809,90.789c-2.568-1.23-4.896-2.787-6.914-4.629c-3.449-3.148-4.826-6.082-4.84-6.111
		c-0.191-0.41-0.558-0.717-0.996-0.828c-0.121-0.029-0.246-0.046-0.369-0.046c-0.32,0-0.639,0.103-0.898,0.3
		c0,0-1.146,0.857-2.289,1.717c-0.211-3.396-0.639-10.238-0.814-13.055c2.642,0.881,8.834,2.945,12.094,4.031
		c-1.11,0.833-2.223,1.666-2.223,1.666c-0.388,0.289-0.601,0.738-0.601,1.199c0,0.197,0.04,0.4,0.122,0.591
		c0.121,0.283,3.102,6.955,13.686,6.955c0.996,0,2.039-0.062,3.112-0.181c0,2.324,0,8.863,0,11.201
		C91.605,93.049,88.561,92.105,85.809,90.789"/>
	
		<linearGradient id="SVGID_8_" gradientUnits="userSpaceOnUse" x1="297.291" y1="-282.6055" x2="297.291" y2="-257.9302" gradientTransform="matrix(1 0 0 -1 -237.5996 -239.9004)">
		<stop  offset="0" style="stop-color:#FFFFFF;stop-opacity:0"/>
		<stop  offset="1" style="stop-color:#FFFFFF;stop-opacity:0.8"/>
	</linearGradient>
	<path fill="url(#SVGID_8_)" d="M36.279,34.888c-10.953-3.797-15.283-8.096-16.986-10.74c1.672-3.347,4.899-5.653,8.636-6.118
		c0.237,0,61.958,0,61.958,0l0.297,0.01c0,0,0.086,0.005,0.168,0.008c5.557,0.737,9.737,5.503,9.737,11.116c0,0,0,10.497,0,13.541
		C72.244,42.546,50.784,39.917,36.279,34.888"/>
</g>
<g id="red">
	<path fill-opacity="0.1" d="M31.33,106.922c-8.949,0-16.229-7.279-16.229-16.229V31.164c0-8.948,7.28-16.228,16.229-16.228h59.527
		c8.949,0,16.229,7.28,16.229,16.228v59.529c0,8.947-7.28,16.229-16.229,16.229H31.33"/>
	<path fill="#940202" d="M29.33,104.922c-8.949,0-16.229-7.279-16.229-16.229V29.164c0-8.948,7.28-16.228,16.229-16.228h59.527
		c8.949,0,16.229,7.28,16.229,16.228v59.529c0,8.947-7.28,16.229-16.229,16.229H29.33"/>
	<g>
		
			<linearGradient id="SVGID_9_" gradientUnits="userSpaceOnUse" x1="296.6943" y1="-341.8228" x2="296.6942" y2="-255.8354" gradientTransform="matrix(1 0 0 -1 -237.5996 -239.9004)">
			<stop  offset="0" style="stop-color:#FF0000"/>
			<stop  offset="0.1758" style="stop-color:#F60303"/>
			<stop  offset="0.4969" style="stop-color:#EC0404"/>
			<stop  offset="0.782" style="stop-color:#E30101"/>
			<stop  offset="1" style="stop-color:#D60202"/>
		</linearGradient>
		<path fill="url(#SVGID_9_)" d="M88.857,101.923H29.33c-7.306,0-13.23-5.923-13.23-13.229V29.164
			c0-7.306,5.924-13.229,13.23-13.229h59.527c7.308,0,13.23,5.922,13.23,13.229v59.529C102.089,96,96.165,101.923,88.857,101.923
			L88.857,101.923z"/>
	</g>
	<path fill="#940202" d="M60.35,52.772V27.985h6.276l4.856,24.787H60.35L60.35,52.772z M46.707,52.772l4.856-24.787h6.276v24.787
		H46.707L46.707,52.772z M57.839,55.282v39.231H38.531l7.684-39.231H57.839L57.839,55.282z M71.975,55.282l7.685,39.231H60.35
		V55.282H71.975L71.975,55.282z"/>
	<path fill="#FFFFFF" d="M63.35,91.514c0-4.695,0-28.537,0-33.231c2.357,0,4.096,0,6.154,0c0.755,3.852,5.434,27.726,6.512,33.231
		C72.137,91.514,66.673,91.514,63.35,91.514 M42.174,91.514c1.078-5.507,5.756-29.381,6.51-33.231c2.06,0,3.797,0,6.155,0
		c0,4.694,0,28.536,0,33.231C51.516,91.514,46.053,91.514,42.174,91.514 M63.35,49.772c0-3.998,0-14.79,0-18.788
		c0.403,0,0.422,0,0.809,0c0.648,3.313,2.773,14.148,3.682,18.788C65.861,49.772,65.116,49.772,63.35,49.772 M50.35,49.772
		c0.908-4.64,3.033-15.474,3.682-18.788c0.386,0,0.403,0,0.807,0c0,3.998,0,14.79,0,18.788
		C53.073,49.772,52.327,49.772,50.35,49.772"/>
	<path fill="#940202" d="M36.497,57.327v-7.532h45.192v7.532H36.497L36.497,57.327z M70.395,59.838V53.56h6.275v6.278H70.395
		L70.395,59.838z M41.52,59.838V53.56h6.276v6.278H41.52L41.52,59.838z"/>
	<path fill="#FFFFFF" d="M73.354,56.838c-0.233-1.425-1.47-2.511-2.959-2.511H47.796c-1.491,0-2.726,1.086-2.96,2.511
		c-0.178,0-0.179,0-0.357,0c-0.234-1.425-1.469-2.511-2.959-2.511c0,0-1.049,0-2.023,0c0-0.735,0-0.797,0-1.533
		c4.857,0,34.336,0,39.194,0c0,0.735,0,0.798,0,1.533c-0.973,0-2.021,0-2.021,0c-1.49,0-2.727,1.086-2.96,2.511
		C73.532,56.838,73.529,56.838,73.354,56.838"/>
	<path fill="#940202" d="M96.191,96.825c-4.278-0.533-8.242-1.673-11.782-3.38c-2.847-1.375-5.425-3.118-7.661-5.184
		c-2.242-2.07-3.691-4.048-4.523-5.363c-1.33,0.996-3.146,2.357-3.146,2.357c-0.266,0.199-0.582,0.303-0.9,0.303
		c-0.213,0-0.428-0.047-0.63-0.141c-0.499-0.23-0.832-0.718-0.866-1.27L65.553,66.1c-0.002-0.029-0.003-0.061-0.003-0.092
		c0-0.463,0.214-0.906,0.587-1.189c0.266-0.205,0.588-0.313,0.916-0.313c0.157,0,0.317,0.025,0.473,0.077l16.92,5.642
		c0.529,0.178,0.918,0.633,1.007,1.184c0.014,0.08,0.021,0.16,0.021,0.238c0,0.467-0.219,0.914-0.602,1.201
		c0,0-2.163,1.621-3.419,2.563c1.144,1.497,4.058,4.165,10.313,4.165c1.363,0,2.834-0.129,4.366-0.385
		c0.082-0.014,0.165-0.021,0.247-0.021c0.354,0,0.696,0.125,0.969,0.355c0.336,0.285,0.531,0.705,0.531,1.146v14.663
		c0,0.432-0.186,0.839-0.507,1.124c-0.274,0.244-0.63,0.375-0.992,0.375C96.316,96.836,96.255,96.833,96.191,96.825"/>
	<path fill="#FFFFFF" d="M85.809,90.789c-2.568-1.23-4.896-2.787-6.914-4.629c-3.449-3.148-4.826-6.082-4.84-6.111
		c-0.191-0.41-0.558-0.717-0.996-0.828c-0.121-0.029-0.246-0.046-0.369-0.046c-0.32,0-0.639,0.103-0.898,0.3
		c0,0-1.146,0.857-2.289,1.717c-0.211-3.396-0.639-10.238-0.814-13.055c2.642,0.881,8.834,2.945,12.094,4.031
		c-1.11,0.833-2.223,1.666-2.223,1.666c-0.388,0.289-0.601,0.738-0.601,1.199c0,0.197,0.04,0.4,0.122,0.591
		c0.121,0.283,3.102,6.955,13.686,6.955c0.996,0,2.039-0.062,3.112-0.181c0,2.324,0,8.863,0,11.201
		C91.605,93.049,88.561,92.105,85.809,90.789"/>
	
		<linearGradient id="SVGID_10_" gradientUnits="userSpaceOnUse" x1="297.291" y1="-282.6055" x2="297.291" y2="-257.9302" gradientTransform="matrix(1 0 0 -1 -237.5996 -239.9004)">
		<stop  offset="0" style="stop-color:#FFFFFF;stop-opacity:0"/>
		<stop  offset="1" style="stop-color:#FFFFFF;stop-opacity:0.8"/>
	</linearGradient>
	<path fill="url(#SVGID_10_)" d="M36.279,34.888c-10.953-3.797-15.283-8.096-16.986-10.74c1.672-3.347,4.899-5.653,8.636-6.118
		c0.237,0,61.958,0,61.958,0l0.297,0.01c0,0,0.086,0.005,0.168,0.008c5.557,0.737,9.737,5.503,9.737,11.116c0,0,0,10.497,0,13.541
		C72.244,42.546,50.784,39.917,36.279,34.888"/>
</g>
</svg>
