<?xml version="1.0" encoding="utf-8"?>
<!-- Generator: Adobe Illustrator 16.0.2, SVG Export Plug-In . SVG Version: 6.00 Build 0)  -->
<!DOCTYPE svg PUBLIC "-//W3C//DTD SVG 1.1//EN" "http://www.w3.org/Graphics/SVG/1.1/DTD/svg11.dtd">
<svg version="1.1" id="Layer_1" xmlns="http://www.w3.org/2000/svg" xmlns:xlink="http://www.w3.org/1999/xlink" x="0px" y="0px"
	 width="120px" height="120px" viewBox="0 0 120 120" enable-background="new 0 0 120 120" xml:space="preserve">
<g id="black_white">
	<g>
		<path fill="#FFFFFF" d="M93.596,7.472H26.403c-10.439,0-18.932,8.494-18.932,18.933v67.193c0,10.438,8.493,18.932,18.932,18.932
			h67.193c10.438,0,18.932-8.493,18.932-18.932V26.405C112.527,15.966,104.034,7.472,93.596,7.472z"/>
		
			<linearGradient id="SVGID_1_" gradientUnits="userSpaceOnUse" x1="297.5996" y1="-348.4272" x2="297.5996" y2="-251.3726" gradientTransform="matrix(1 0 0 -1 -237.5996 -239.9004)">
			<stop  offset="0" style="stop-color:#0369B0"/>
			<stop  offset="1" style="stop-color:#1E7FC3"/>
		</linearGradient>
		<path fill="url(#SVGID_1_)" d="M93.596,11.472H26.403c-8.246,0-14.931,6.686-14.931,14.932v67.192
			c0,8.246,6.685,14.932,14.931,14.932h67.193c8.247,0,14.932-6.686,14.932-14.932V26.405
			C108.527,18.159,101.843,11.472,93.596,11.472z"/>
		<path fill="#FFFFFF" d="M100.729,83.62c-1.904,1.905-3.75,0.042-3.75,0.042s-2.922-1.627-4.789-2.667
			c-0.877-0.488-3.334-0.847-3.334-0.847s-9.377,2.945-13.859,4.125c-1.124,0.295-1.827,0.479-1.827,0.479
			S61.863,77.33,57.251,74.596c-1.026-0.609-5.44,0-5.44,0s-9.729,6.117-14.059,9.475c-0.796,0.617-6.706,0.982-6.706,0.982
			l-10.547-7.98c0,0-1.977-1.227-0.539-4.18c1.19-1.566,3.18-0.731,3.18-0.731l9.414,6.159c0,0,2.409,1.349,3.39,0.582
			C40.54,75.314,51.769,68.76,51.769,68.76s4.326-0.26,5.482,0.396c5.091,2.887,17.035,9.529,17.035,9.529s0.683-0.181,1.774-0.467
			c4.355-1.148,13.397-4.004,13.397-4.004s2.647,0.512,3.819,1.23c2.787,1.707,7.49,4.59,7.49,4.59S102.585,81.764,100.729,83.62
			L100.729,83.62z M74.626,60.986c2.688,0.722,4.267,3.552,3.524,6.32c-0.741,2.77-3.523,4.432-6.211,3.711
			c-2.69-0.721-4.269-3.551-3.526-6.32C69.154,61.928,71.938,60.266,74.626,60.986L74.626,60.986z M45.385,53.152
			c2.69,0.721,4.268,3.551,3.526,6.32c-0.742,2.769-3.524,4.43-6.214,3.709c-2.69-0.721-4.268-3.55-3.526-6.32
			C39.914,54.092,42.696,52.432,45.385,53.152L45.385,53.152z M81.495,67.316c0.716-4.291-1.835-8.477-6.003-9.592
			c-4.153-1.113-8.441,1.218-9.979,5.266l-13.247-3.586c0.672-4.263-1.872-8.405-6.014-9.515c-4.129-1.106-8.386,1.19-9.949,5.194
			l-5.18-1.402c0,0,0.41-1.783,1.49-5.509c0.813-2.805,8.296-6.003,10.062-5.733c4.94,0.752,10.033,1.596,10.033,1.596
			s4.073-3.366,5.502-4.811c0.461-0.172,1.197-1.62,3.411-1.201c5.106,1.021,12.802,3.826,13.927,4.137
			c1.126,0.312,1.575,0.811,1.893,2.384c0.33,1.627,1.119,7.333,1.119,7.333s5.112,1.854,8.061,3.027
			c1.295,0.516,1.945,0.863,2.027,2.955c0.095,2.406-1.512,10.985-1.512,10.985L81.495,67.316L81.495,67.316z"/>
	</g>
</g>
<g id="blue">
	<path fill-opacity="0.1" d="M31.33,106.609c-8.949,0-16.229-7.28-16.229-16.229V30.85c0-8.948,7.28-16.228,16.229-16.228h59.527
		c8.949,0,16.229,7.28,16.229,16.228v59.53c0,8.948-7.28,16.229-16.229,16.229H31.33"/>
	<path fill="#FFFFFF" d="M29.33,104.609c-8.949,0-16.229-7.28-16.229-16.229V28.85c0-8.948,7.28-16.228,16.229-16.228h59.527
		c8.949,0,16.229,7.28,16.229,16.228v59.53c0,8.948-7.28,16.229-16.229,16.229H29.33"/>
	
		<linearGradient id="SVGID_2_" gradientUnits="userSpaceOnUse" x1="296.6943" y1="-341.5093" x2="296.6942" y2="-255.5215" gradientTransform="matrix(1 0 0 -1 -237.5996 -239.9004)">
		<stop  offset="0.16" style="stop-color:#3E8CE8"/>
		<stop  offset="0.1933" style="stop-color:#3984E6"/>
		<stop  offset="0.3612" style="stop-color:#205EDD"/>
		<stop  offset="0.517" style="stop-color:#0E43D6"/>
		<stop  offset="0.6547" style="stop-color:#0433D2"/>
		<stop  offset="0.76" style="stop-color:#002DD1"/>
	</linearGradient>
	<path fill="url(#SVGID_2_)" d="M88.857,101.609H29.33c-7.306,0-13.23-5.922-13.23-13.229V28.85c0-7.306,5.924-13.229,13.23-13.229
		h59.527c7.308,0,13.23,5.922,13.23,13.229v59.53C102.089,95.688,96.165,101.609,88.857,101.609L88.857,101.609z"/>
	<g>
		
			<radialGradient id="SVGID_3_" cx="296.6934" cy="-298.5156" r="42.9941" gradientTransform="matrix(1 0 0 -1 -237.5996 -239.9004)" gradientUnits="userSpaceOnUse">
			<stop  offset="0" style="stop-color:#000000"/>
			<stop  offset="0.1503" style="stop-color:#202020;stop-opacity:0.8497"/>
			<stop  offset="0.4818" style="stop-color:#737373;stop-opacity:0.5182"/>
			<stop  offset="0.9675" style="stop-color:#F6F6F6;stop-opacity:0.0325"/>
			<stop  offset="1" style="stop-color:#FFFFFF;stop-opacity:0"/>
		</radialGradient>
		<path opacity="0.25" fill="url(#SVGID_3_)" enable-background="new    " d="M88.857,101.609H29.33
			c-7.306,0-13.23-5.922-13.23-13.229V28.85c0-7.306,5.924-13.229,13.23-13.229h59.527c7.308,0,13.23,5.922,13.23,13.229v59.53
			C102.089,95.688,96.165,101.609,88.857,101.609L88.857,101.609z"/>
	</g>
	<polygon fill-opacity="0.1" points="97.441,85.553 97.441,89.541 24.28,89.541 24.28,85.553 	"/>
	<path fill-opacity="0.1" d="M94.969,72.695c-0.607,0.646-2.268,0.685-2.268,0.685l-1.783,1.71l-1.357-0.007
		c-0.295-5.376-4.756-9.646-10.231-9.646c-5.14,0-9.369,3.781-10.103,8.703l-20.346,0.408c0-0.045,0.006-0.088,0.006-0.135
		c0-5.077-4.138-9.196-9.243-9.196c-3.054,0-5.754,1.479-7.436,3.753c-1.266-0.484-2.708-0.978-3.502-1.035
		c0,0-2.152-6.416,3.263-7.51c5.417-1.098,18.699-3.738,18.699-3.738l5.95-14.927c0,0,1.165-0.259,2.469-0.259
		c1.302,0,27.524,0.054,27.524,0.054s1.303-0.411,1.92,0.893c0.615,1.302,3.08,15.614,3.08,15.614s1.207-0.192,1.938,0.457
		c0.729,0.646,2.35,4.563,2.268,6.215S95.576,72.053,94.969,72.695L94.969,72.695z M58.412,44.984l-2.197,9.417
		c0.61,0.828,1.838,3.704,1.838,3.704l13.105,0.086l0.064-13.206L58.412,44.984L58.412,44.984z M82.572,44.94
		c-0.609-0.043-7.961-0.142-7.961-0.142l0.061,12.278c0.001,0-2.311,0.83-1.186,0.873c0.293,0.011,1.238,0.032,2.471,0.056
		l9.225-12.237C84.055,44.857,83.164,44.981,82.572,44.94L82.572,44.94z M86.381,48.674l-5.457,9.418
		c2.395,0.042,4.436,0.075,4.436,0.075s1.763-0.306,1.894-1.002C87.344,56.674,87.072,51.903,86.381,48.674L86.381,48.674z
		 M39.374,69.65c4.523,0,8.191,3.65,8.191,8.154c0,4.502-3.667,8.151-8.191,8.151c-4.522,0-8.189-3.649-8.189-8.151
		S34.852,69.65,39.374,69.65L39.374,69.65z M39.374,81.678c2.262,0,4.095-1.824,4.095-4.076c0-2.254-1.833-4.078-4.095-4.078
		c-2.26,0-4.094,1.824-4.094,4.078C35.28,79.854,37.114,81.678,39.374,81.678L39.374,81.678z M79.273,69.896
		c4.522,0,8.188,3.649,8.188,8.156c0,4.5-3.666,7.969-8.188,7.969c-4.515,0-8.162-3.469-8.162-7.969
		C71.111,73.546,74.76,69.896,79.273,69.896L79.273,69.896z M79.273,81.861c2.262,0,4.096-1.823,4.096-4.074
		c0-2.252-1.834-4.079-4.096-4.079c-2.258,0-4.084,1.827-4.084,4.079C75.189,80.038,77.016,81.861,79.273,81.861L79.273,81.861z"/>
	<polygon fill="#FFFFFF" points="95.441,83.553 95.441,87.541 22.28,87.541 22.28,83.553 	"/>
	<path fill="#FFFFFF" d="M92.969,70.695c-0.607,0.646-2.268,0.685-2.268,0.685l-1.783,1.71l-1.357-0.007
		c-0.295-5.376-4.756-9.646-10.231-9.646c-5.14,0-9.369,3.781-10.103,8.703l-20.346,0.408c0-0.045,0.006-0.088,0.006-0.135
		c0-5.077-4.138-9.196-9.243-9.196c-3.054,0-5.754,1.479-7.436,3.753c-1.266-0.484-2.708-0.978-3.502-1.035
		c0,0-2.152-6.416,3.263-7.51c5.417-1.097,18.699-3.737,18.699-3.737l5.95-14.927c0,0,1.165-0.259,2.469-0.259
		c1.302,0,27.524,0.054,27.524,0.054s1.303-0.411,1.92,0.893c0.615,1.302,3.08,15.614,3.08,15.614s1.207-0.192,1.938,0.456
		c0.729,0.647,2.35,4.563,2.268,6.216C93.734,64.387,93.576,70.053,92.969,70.695L92.969,70.695z M56.412,42.984l-2.197,9.417
		c0.61,0.828,1.838,3.704,1.838,3.704l13.105,0.086l0.064-13.206L56.412,42.984L56.412,42.984z M80.572,42.94
		c-0.609-0.043-7.961-0.142-7.961-0.142l0.061,12.278c0.001,0-2.311,0.83-1.186,0.873c0.293,0.011,1.238,0.032,2.471,0.056
		l9.225-12.237C82.055,42.857,81.164,42.981,80.572,42.94L80.572,42.94z M84.381,46.674l-5.457,9.418
		c2.395,0.042,4.436,0.075,4.436,0.075s1.763-0.306,1.894-1.002C85.344,54.674,85.072,49.903,84.381,46.674L84.381,46.674z
		 M37.374,67.65c4.523,0,8.191,3.65,8.191,8.154c0,4.502-3.667,8.151-8.191,8.151c-4.522,0-8.189-3.649-8.189-8.151
		S32.852,67.65,37.374,67.65L37.374,67.65z M37.374,79.678c2.262,0,4.095-1.824,4.095-4.076c0-2.254-1.833-4.078-4.095-4.078
		c-2.26,0-4.094,1.824-4.094,4.078C33.28,77.854,35.114,79.678,37.374,79.678L37.374,79.678z M77.273,67.896
		c4.522,0,8.188,3.649,8.188,8.156c0,4.5-3.666,7.969-8.188,7.969c-4.515,0-8.162-3.469-8.162-7.969
		C69.111,71.546,72.76,67.896,77.273,67.896L77.273,67.896z M77.273,79.861c2.262,0,4.096-1.823,4.096-4.074
		c0-2.252-1.834-4.079-4.096-4.079c-2.258,0-4.084,1.827-4.084,4.079C73.189,78.038,75.016,79.861,77.273,79.861L77.273,79.861z"/>
	
		<linearGradient id="SVGID_4_" gradientUnits="userSpaceOnUse" x1="297.291" y1="-282.2925" x2="297.291" y2="-257.6172" gradientTransform="matrix(1 0 0 -1 -237.5996 -239.9004)">
		<stop  offset="0" style="stop-color:#FFFFFF;stop-opacity:0"/>
		<stop  offset="1" style="stop-color:#FFFFFF;stop-opacity:0.8"/>
	</linearGradient>
	<path fill="url(#SVGID_4_)" d="M36.279,34.575c-10.953-3.797-15.283-8.096-16.986-10.74c1.672-3.347,4.899-5.653,8.636-6.118
		c0.237,0,61.958,0,61.958,0l0.297,0.01c0,0,0.086,0.005,0.168,0.008c5.557,0.737,9.737,5.503,9.737,11.116c0,0,0,10.497,0,13.541
		C72.244,42.233,50.784,39.604,36.279,34.575"/>
</g>
<g id="green">
	<path fill-opacity="0.1" d="M31.33,106.609c-8.949,0-16.229-7.28-16.229-16.229V30.85c0-8.948,7.28-16.228,16.229-16.228h59.527
		c8.949,0,16.229,7.28,16.229,16.228v59.53c0,8.948-7.28,16.229-16.229,16.229H31.33"/>
	<path fill="#FFFFFF" d="M29.33,104.609c-8.949,0-16.229-7.28-16.229-16.229V28.85c0-8.948,7.28-16.228,16.229-16.228h59.527
		c8.949,0,16.229,7.28,16.229,16.228v59.53c0,8.948-7.28,16.229-16.229,16.229H29.33"/>
	
		<linearGradient id="SVGID_5_" gradientUnits="userSpaceOnUse" x1="296.6943" y1="-341.5093" x2="296.6942" y2="-255.5215" gradientTransform="matrix(1 0 0 -1 -237.5996 -239.9004)">
		<stop  offset="0.16" style="stop-color:#3E8CE8"/>
		<stop  offset="0.1933" style="stop-color:#3984E6"/>
		<stop  offset="0.3612" style="stop-color:#205EDD"/>
		<stop  offset="0.517" style="stop-color:#0E43D6"/>
		<stop  offset="0.6547" style="stop-color:#0433D2"/>
		<stop  offset="0.76" style="stop-color:#002DD1"/>
	</linearGradient>
	<path fill="url(#SVGID_5_)" d="M88.857,101.609H29.33c-7.306,0-13.23-5.922-13.23-13.229V28.85c0-7.306,5.924-13.229,13.23-13.229
		h59.527c7.308,0,13.23,5.922,13.23,13.229v59.53C102.089,95.688,96.165,101.609,88.857,101.609L88.857,101.609z"/>
	<g>
		
			<radialGradient id="SVGID_6_" cx="296.6934" cy="-298.5156" r="42.9941" gradientTransform="matrix(1 0 0 -1 -237.5996 -239.9004)" gradientUnits="userSpaceOnUse">
			<stop  offset="0" style="stop-color:#000000"/>
			<stop  offset="0.1503" style="stop-color:#202020;stop-opacity:0.8497"/>
			<stop  offset="0.4818" style="stop-color:#737373;stop-opacity:0.5182"/>
			<stop  offset="0.9675" style="stop-color:#F6F6F6;stop-opacity:0.0325"/>
			<stop  offset="1" style="stop-color:#FFFFFF;stop-opacity:0"/>
		</radialGradient>
		<path opacity="0.25" fill="url(#SVGID_6_)" enable-background="new    " d="M88.857,101.609H29.33
			c-7.306,0-13.23-5.922-13.23-13.229V28.85c0-7.306,5.924-13.229,13.23-13.229h59.527c7.308,0,13.23,5.922,13.23,13.229v59.53
			C102.089,95.688,96.165,101.609,88.857,101.609L88.857,101.609z"/>
	</g>
	<polygon fill-opacity="0.1" points="97.441,85.553 97.441,89.541 24.28,89.541 24.28,85.553 	"/>
	<path fill-opacity="0.1" d="M94.969,72.695c-0.607,0.646-2.268,0.685-2.268,0.685l-1.783,1.71l-1.357-0.007
		c-0.295-5.376-4.756-9.646-10.231-9.646c-5.14,0-9.369,3.781-10.103,8.703l-20.346,0.408c0-0.045,0.006-0.088,0.006-0.135
		c0-5.077-4.138-9.196-9.243-9.196c-3.054,0-5.754,1.479-7.436,3.753c-1.266-0.484-2.708-0.978-3.502-1.035
		c0,0-2.152-6.416,3.263-7.51c5.417-1.098,18.699-3.738,18.699-3.738l5.95-14.927c0,0,1.165-0.259,2.469-0.259
		c1.302,0,27.524,0.054,27.524,0.054s1.303-0.411,1.92,0.893c0.615,1.302,3.08,15.614,3.08,15.614s1.207-0.192,1.938,0.457
		c0.729,0.646,2.35,4.563,2.268,6.215S95.576,72.053,94.969,72.695L94.969,72.695z M58.412,44.984l-2.197,9.417
		c0.61,0.828,1.838,3.704,1.838,3.704l13.105,0.086l0.064-13.206L58.412,44.984L58.412,44.984z M82.572,44.94
		c-0.609-0.043-7.961-0.142-7.961-0.142l0.061,12.278c0.001,0-2.311,0.83-1.186,0.873c0.293,0.011,1.238,0.032,2.471,0.056
		l9.225-12.237C84.055,44.857,83.164,44.981,82.572,44.94L82.572,44.94z M86.381,48.674l-5.457,9.418
		c2.395,0.042,4.436,0.075,4.436,0.075s1.763-0.306,1.894-1.002C87.344,56.674,87.072,51.903,86.381,48.674L86.381,48.674z
		 M39.374,69.65c4.523,0,8.191,3.65,8.191,8.154c0,4.502-3.667,8.151-8.191,8.151c-4.522,0-8.189-3.649-8.189-8.151
		S34.852,69.65,39.374,69.65L39.374,69.65z M39.374,81.678c2.262,0,4.095-1.824,4.095-4.076c0-2.254-1.833-4.078-4.095-4.078
		c-2.26,0-4.094,1.824-4.094,4.078C35.28,79.854,37.114,81.678,39.374,81.678L39.374,81.678z M79.273,69.896
		c4.522,0,8.188,3.649,8.188,8.156c0,4.5-3.666,7.969-8.188,7.969c-4.515,0-8.162-3.469-8.162-7.969
		C71.111,73.546,74.76,69.896,79.273,69.896L79.273,69.896z M79.273,81.861c2.262,0,4.096-1.823,4.096-4.074
		c0-2.252-1.834-4.079-4.096-4.079c-2.258,0-4.084,1.827-4.084,4.079C75.189,80.038,77.016,81.861,79.273,81.861L79.273,81.861z"/>
	<polygon fill="#FFFFFF" points="95.441,83.553 95.441,87.541 22.28,87.541 22.28,83.553 	"/>
	<path fill="#FFFFFF" d="M92.969,70.695c-0.607,0.646-2.268,0.685-2.268,0.685l-1.783,1.71l-1.357-0.007
		c-0.295-5.376-4.756-9.646-10.231-9.646c-5.14,0-9.369,3.781-10.103,8.703l-20.346,0.408c0-0.045,0.006-0.088,0.006-0.135
		c0-5.077-4.138-9.196-9.243-9.196c-3.054,0-5.754,1.479-7.436,3.753c-1.266-0.484-2.708-0.978-3.502-1.035
		c0,0-2.152-6.416,3.263-7.51c5.417-1.097,18.699-3.737,18.699-3.737l5.95-14.927c0,0,1.165-0.259,2.469-0.259
		c1.302,0,27.524,0.054,27.524,0.054s1.303-0.411,1.92,0.893c0.615,1.302,3.08,15.614,3.08,15.614s1.207-0.192,1.938,0.456
		c0.729,0.647,2.35,4.563,2.268,6.216C93.734,64.387,93.576,70.053,92.969,70.695L92.969,70.695z M56.412,42.984l-2.197,9.417
		c0.61,0.828,1.838,3.704,1.838,3.704l13.105,0.086l0.064-13.206L56.412,42.984L56.412,42.984z M80.572,42.94
		c-0.609-0.043-7.961-0.142-7.961-0.142l0.061,12.278c0.001,0-2.311,0.83-1.186,0.873c0.293,0.011,1.238,0.032,2.471,0.056
		l9.225-12.237C82.055,42.857,81.164,42.981,80.572,42.94L80.572,42.94z M84.381,46.674l-5.457,9.418
		c2.395,0.042,4.436,0.075,4.436,0.075s1.763-0.306,1.894-1.002C85.344,54.674,85.072,49.903,84.381,46.674L84.381,46.674z
		 M37.374,67.65c4.523,0,8.191,3.65,8.191,8.154c0,4.502-3.667,8.151-8.191,8.151c-4.522,0-8.189-3.649-8.189-8.151
		S32.852,67.65,37.374,67.65L37.374,67.65z M37.374,79.678c2.262,0,4.095-1.824,4.095-4.076c0-2.254-1.833-4.078-4.095-4.078
		c-2.26,0-4.094,1.824-4.094,4.078C33.28,77.854,35.114,79.678,37.374,79.678L37.374,79.678z M77.273,67.896
		c4.522,0,8.188,3.649,8.188,8.156c0,4.5-3.666,7.969-8.188,7.969c-4.515,0-8.162-3.469-8.162-7.969
		C69.111,71.546,72.76,67.896,77.273,67.896L77.273,67.896z M77.273,79.861c2.262,0,4.096-1.823,4.096-4.074
		c0-2.252-1.834-4.079-4.096-4.079c-2.258,0-4.084,1.827-4.084,4.079C73.189,78.038,75.016,79.861,77.273,79.861L77.273,79.861z"/>
	
		<linearGradient id="SVGID_7_" gradientUnits="userSpaceOnUse" x1="297.291" y1="-282.2925" x2="297.291" y2="-257.6172" gradientTransform="matrix(1 0 0 -1 -237.5996 -239.9004)">
		<stop  offset="0" style="stop-color:#FFFFFF;stop-opacity:0"/>
		<stop  offset="1" style="stop-color:#FFFFFF;stop-opacity:0.8"/>
	</linearGradient>
	<path fill="url(#SVGID_7_)" d="M36.279,34.575c-10.953-3.797-15.283-8.096-16.986-10.74c1.672-3.347,4.899-5.653,8.636-6.118
		c0.237,0,61.958,0,61.958,0l0.297,0.01c0,0,0.086,0.005,0.168,0.008c5.557,0.737,9.737,5.503,9.737,11.116c0,0,0,10.497,0,13.541
		C72.244,42.233,50.784,39.604,36.279,34.575"/>
</g>
<g id="kia">
	<path fill-opacity="0.1" d="M31.33,106.609c-8.949,0-16.229-7.28-16.229-16.229V30.85c0-8.948,7.28-16.228,16.229-16.228h59.527
		c8.949,0,16.229,7.28,16.229,16.228v59.53c0,8.948-7.28,16.229-16.229,16.229H31.33"/>
	<path fill="#FFFFFF" d="M29.33,104.609c-8.949,0-16.229-7.28-16.229-16.229V28.85c0-8.948,7.28-16.228,16.229-16.228h59.527
		c8.949,0,16.229,7.28,16.229,16.228v59.53c0,8.948-7.28,16.229-16.229,16.229H29.33"/>
	
		<linearGradient id="SVGID_8_" gradientUnits="userSpaceOnUse" x1="296.6943" y1="-341.5093" x2="296.6942" y2="-255.5215" gradientTransform="matrix(1 0 0 -1 -237.5996 -239.9004)">
		<stop  offset="0.16" style="stop-color:#3E8CE8"/>
		<stop  offset="0.1933" style="stop-color:#3984E6"/>
		<stop  offset="0.3612" style="stop-color:#205EDD"/>
		<stop  offset="0.517" style="stop-color:#0E43D6"/>
		<stop  offset="0.6547" style="stop-color:#0433D2"/>
		<stop  offset="0.76" style="stop-color:#002DD1"/>
	</linearGradient>
	<path fill="url(#SVGID_8_)" d="M88.857,101.609H29.33c-7.306,0-13.23-5.922-13.23-13.229V28.85c0-7.306,5.924-13.229,13.23-13.229
		h59.527c7.308,0,13.23,5.922,13.23,13.229v59.53C102.089,95.688,96.165,101.609,88.857,101.609L88.857,101.609z"/>
	<g>
		
			<radialGradient id="SVGID_9_" cx="296.6934" cy="-298.5156" r="42.9941" gradientTransform="matrix(1 0 0 -1 -237.5996 -239.9004)" gradientUnits="userSpaceOnUse">
			<stop  offset="0" style="stop-color:#000000"/>
			<stop  offset="0.1503" style="stop-color:#202020;stop-opacity:0.8497"/>
			<stop  offset="0.4818" style="stop-color:#737373;stop-opacity:0.5182"/>
			<stop  offset="0.9675" style="stop-color:#F6F6F6;stop-opacity:0.0325"/>
			<stop  offset="1" style="stop-color:#FFFFFF;stop-opacity:0"/>
		</radialGradient>
		<path opacity="0.25" fill="url(#SVGID_9_)" enable-background="new    " d="M88.857,101.609H29.33
			c-7.306,0-13.23-5.922-13.23-13.229V28.85c0-7.306,5.924-13.229,13.23-13.229h59.527c7.308,0,13.23,5.922,13.23,13.229v59.53
			C102.089,95.688,96.165,101.609,88.857,101.609L88.857,101.609z"/>
	</g>
	<polygon fill-opacity="0.1" points="97.441,85.553 97.441,89.541 24.28,89.541 24.28,85.553 	"/>
	<path fill-opacity="0.1" d="M94.969,72.695c-0.607,0.646-2.268,0.685-2.268,0.685l-1.783,1.71l-1.357-0.007
		c-0.295-5.376-4.756-9.646-10.231-9.646c-5.14,0-9.369,3.781-10.103,8.703l-20.346,0.408c0-0.045,0.006-0.088,0.006-0.135
		c0-5.077-4.138-9.196-9.243-9.196c-3.054,0-5.754,1.479-7.436,3.753c-1.266-0.484-2.708-0.978-3.502-1.035
		c0,0-2.152-6.416,3.263-7.51c5.417-1.098,18.699-3.738,18.699-3.738l5.95-14.927c0,0,1.165-0.259,2.469-0.259
		c1.302,0,27.524,0.054,27.524,0.054s1.303-0.411,1.92,0.893c0.615,1.302,3.08,15.614,3.08,15.614s1.207-0.192,1.938,0.457
		c0.729,0.646,2.35,4.563,2.268,6.215S95.576,72.053,94.969,72.695L94.969,72.695z M58.412,44.984l-2.197,9.417
		c0.61,0.828,1.838,3.704,1.838,3.704l13.105,0.086l0.064-13.206L58.412,44.984L58.412,44.984z M82.572,44.94
		c-0.609-0.043-7.961-0.142-7.961-0.142l0.061,12.278c0.001,0-2.311,0.83-1.186,0.873c0.293,0.011,1.238,0.032,2.471,0.056
		l9.225-12.237C84.055,44.857,83.164,44.981,82.572,44.94L82.572,44.94z M86.381,48.674l-5.457,9.418
		c2.395,0.042,4.436,0.075,4.436,0.075s1.763-0.306,1.894-1.002C87.344,56.674,87.072,51.903,86.381,48.674L86.381,48.674z
		 M39.374,69.65c4.523,0,8.191,3.65,8.191,8.154c0,4.502-3.667,8.151-8.191,8.151c-4.522,0-8.189-3.649-8.189-8.151
		S34.852,69.65,39.374,69.65L39.374,69.65z M39.374,81.678c2.262,0,4.095-1.824,4.095-4.076c0-2.254-1.833-4.078-4.095-4.078
		c-2.26,0-4.094,1.824-4.094,4.078C35.28,79.854,37.114,81.678,39.374,81.678L39.374,81.678z M79.273,69.896
		c4.522,0,8.188,3.649,8.188,8.156c0,4.5-3.666,7.969-8.188,7.969c-4.515,0-8.162-3.469-8.162-7.969
		C71.111,73.546,74.76,69.896,79.273,69.896L79.273,69.896z M79.273,81.861c2.262,0,4.096-1.823,4.096-4.074
		c0-2.252-1.834-4.079-4.096-4.079c-2.258,0-4.084,1.827-4.084,4.079C75.189,80.038,77.016,81.861,79.273,81.861L79.273,81.861z"/>
	<polygon fill="#FFFFFF" points="95.441,83.553 95.441,87.541 22.28,87.541 22.28,83.553 	"/>
	<path fill="#FFFFFF" d="M92.969,70.695c-0.607,0.646-2.268,0.685-2.268,0.685l-1.783,1.71l-1.357-0.007
		c-0.295-5.376-4.756-9.646-10.231-9.646c-5.14,0-9.369,3.781-10.103,8.703l-20.346,0.408c0-0.045,0.006-0.088,0.006-0.135
		c0-5.077-4.138-9.196-9.243-9.196c-3.054,0-5.754,1.479-7.436,3.753c-1.266-0.484-2.708-0.978-3.502-1.035
		c0,0-2.152-6.416,3.263-7.51c5.417-1.097,18.699-3.737,18.699-3.737l5.95-14.927c0,0,1.165-0.259,2.469-0.259
		c1.302,0,27.524,0.054,27.524,0.054s1.303-0.411,1.92,0.893c0.615,1.302,3.08,15.614,3.08,15.614s1.207-0.192,1.938,0.456
		c0.729,0.647,2.35,4.563,2.268,6.216C93.734,64.387,93.576,70.053,92.969,70.695L92.969,70.695z M56.412,42.984l-2.197,9.417
		c0.61,0.828,1.838,3.704,1.838,3.704l13.105,0.086l0.064-13.206L56.412,42.984L56.412,42.984z M80.572,42.94
		c-0.609-0.043-7.961-0.142-7.961-0.142l0.061,12.278c0.001,0-2.311,0.83-1.186,0.873c0.293,0.011,1.238,0.032,2.471,0.056
		l9.225-12.237C82.055,42.857,81.164,42.981,80.572,42.94L80.572,42.94z M84.381,46.674l-5.457,9.418
		c2.395,0.042,4.436,0.075,4.436,0.075s1.763-0.306,1.894-1.002C85.344,54.674,85.072,49.903,84.381,46.674L84.381,46.674z
		 M37.374,67.65c4.523,0,8.191,3.65,8.191,8.154c0,4.502-3.667,8.151-8.191,8.151c-4.522,0-8.189-3.649-8.189-8.151
		S32.852,67.65,37.374,67.65L37.374,67.65z M37.374,79.678c2.262,0,4.095-1.824,4.095-4.076c0-2.254-1.833-4.078-4.095-4.078
		c-2.26,0-4.094,1.824-4.094,4.078C33.28,77.854,35.114,79.678,37.374,79.678L37.374,79.678z M77.273,67.896
		c4.522,0,8.188,3.649,8.188,8.156c0,4.5-3.666,7.969-8.188,7.969c-4.515,0-8.162-3.469-8.162-7.969
		C69.111,71.546,72.76,67.896,77.273,67.896L77.273,67.896z M77.273,79.861c2.262,0,4.096-1.823,4.096-4.074
		c0-2.252-1.834-4.079-4.096-4.079c-2.258,0-4.084,1.827-4.084,4.079C73.189,78.038,75.016,79.861,77.273,79.861L77.273,79.861z"/>
	
		<linearGradient id="SVGID_10_" gradientUnits="userSpaceOnUse" x1="297.291" y1="-282.2925" x2="297.291" y2="-257.6172" gradientTransform="matrix(1 0 0 -1 -237.5996 -239.9004)">
		<stop  offset="0" style="stop-color:#FFFFFF;stop-opacity:0"/>
		<stop  offset="1" style="stop-color:#FFFFFF;stop-opacity:0.8"/>
	</linearGradient>
	<path fill="url(#SVGID_10_)" d="M36.279,34.575c-10.953-3.797-15.283-8.096-16.986-10.74c1.672-3.347,4.899-5.653,8.636-6.118
		c0.237,0,61.958,0,61.958,0l0.297,0.01c0,0,0.086,0.005,0.168,0.008c5.557,0.737,9.737,5.503,9.737,11.116c0,0,0,10.497,0,13.541
		C72.244,42.233,50.784,39.604,36.279,34.575"/>
</g>
<g id="orange">
	<path fill-opacity="0.1" d="M31.33,106.609c-8.949,0-16.229-7.28-16.229-16.229V30.85c0-8.948,7.28-16.228,16.229-16.228h59.527
		c8.949,0,16.229,7.28,16.229,16.228v59.53c0,8.948-7.28,16.229-16.229,16.229H31.33"/>
	<path fill="#FFFFFF" d="M29.33,104.609c-8.949,0-16.229-7.28-16.229-16.229V28.85c0-8.948,7.28-16.228,16.229-16.228h59.527
		c8.949,0,16.229,7.28,16.229,16.228v59.53c0,8.948-7.28,16.229-16.229,16.229H29.33"/>
	
		<linearGradient id="SVGID_11_" gradientUnits="userSpaceOnUse" x1="296.6943" y1="-341.5093" x2="296.6942" y2="-255.5215" gradientTransform="matrix(1 0 0 -1 -237.5996 -239.9004)">
		<stop  offset="0.16" style="stop-color:#3E8CE8"/>
		<stop  offset="0.1933" style="stop-color:#3984E6"/>
		<stop  offset="0.3612" style="stop-color:#205EDD"/>
		<stop  offset="0.517" style="stop-color:#0E43D6"/>
		<stop  offset="0.6547" style="stop-color:#0433D2"/>
		<stop  offset="0.76" style="stop-color:#002DD1"/>
	</linearGradient>
	<path fill="url(#SVGID_11_)" d="M88.857,101.609H29.33c-7.306,0-13.23-5.922-13.23-13.229V28.85c0-7.306,5.924-13.229,13.23-13.229
		h59.527c7.308,0,13.23,5.922,13.23,13.229v59.53C102.089,95.688,96.165,101.609,88.857,101.609L88.857,101.609z"/>
	<g>
		
			<radialGradient id="SVGID_12_" cx="296.6934" cy="-298.5156" r="42.9941" gradientTransform="matrix(1 0 0 -1 -237.5996 -239.9004)" gradientUnits="userSpaceOnUse">
			<stop  offset="0" style="stop-color:#000000"/>
			<stop  offset="0.1503" style="stop-color:#202020;stop-opacity:0.8497"/>
			<stop  offset="0.4818" style="stop-color:#737373;stop-opacity:0.5182"/>
			<stop  offset="0.9675" style="stop-color:#F6F6F6;stop-opacity:0.0325"/>
			<stop  offset="1" style="stop-color:#FFFFFF;stop-opacity:0"/>
		</radialGradient>
		<path opacity="0.25" fill="url(#SVGID_12_)" enable-background="new    " d="M88.857,101.609H29.33
			c-7.306,0-13.23-5.922-13.23-13.229V28.85c0-7.306,5.924-13.229,13.23-13.229h59.527c7.308,0,13.23,5.922,13.23,13.229v59.53
			C102.089,95.688,96.165,101.609,88.857,101.609L88.857,101.609z"/>
	</g>
	<polygon fill-opacity="0.1" points="97.441,85.553 97.441,89.541 24.28,89.541 24.28,85.553 	"/>
	<path fill-opacity="0.1" d="M94.969,72.695c-0.607,0.646-2.268,0.685-2.268,0.685l-1.783,1.71l-1.357-0.007
		c-0.295-5.376-4.756-9.646-10.231-9.646c-5.14,0-9.369,3.781-10.103,8.703l-20.346,0.408c0-0.045,0.006-0.088,0.006-0.135
		c0-5.077-4.138-9.196-9.243-9.196c-3.054,0-5.754,1.479-7.436,3.753c-1.266-0.484-2.708-0.978-3.502-1.035
		c0,0-2.152-6.416,3.263-7.51c5.417-1.098,18.699-3.738,18.699-3.738l5.95-14.927c0,0,1.165-0.259,2.469-0.259
		c1.302,0,27.524,0.054,27.524,0.054s1.303-0.411,1.92,0.893c0.615,1.302,3.08,15.614,3.08,15.614s1.207-0.192,1.938,0.457
		c0.729,0.646,2.35,4.563,2.268,6.215S95.576,72.053,94.969,72.695L94.969,72.695z M58.412,44.984l-2.197,9.417
		c0.61,0.828,1.838,3.704,1.838,3.704l13.105,0.086l0.064-13.206L58.412,44.984L58.412,44.984z M82.572,44.94
		c-0.609-0.043-7.961-0.142-7.961-0.142l0.061,12.278c0.001,0-2.311,0.83-1.186,0.873c0.293,0.011,1.238,0.032,2.471,0.056
		l9.225-12.237C84.055,44.857,83.164,44.981,82.572,44.94L82.572,44.94z M86.381,48.674l-5.457,9.418
		c2.395,0.042,4.436,0.075,4.436,0.075s1.763-0.306,1.894-1.002C87.344,56.674,87.072,51.903,86.381,48.674L86.381,48.674z
		 M39.374,69.65c4.523,0,8.191,3.65,8.191,8.154c0,4.502-3.667,8.151-8.191,8.151c-4.522,0-8.189-3.649-8.189-8.151
		S34.852,69.65,39.374,69.65L39.374,69.65z M39.374,81.678c2.262,0,4.095-1.824,4.095-4.076c0-2.254-1.833-4.078-4.095-4.078
		c-2.26,0-4.094,1.824-4.094,4.078C35.28,79.854,37.114,81.678,39.374,81.678L39.374,81.678z M79.273,69.896
		c4.522,0,8.188,3.649,8.188,8.156c0,4.5-3.666,7.969-8.188,7.969c-4.515,0-8.162-3.469-8.162-7.969
		C71.111,73.546,74.76,69.896,79.273,69.896L79.273,69.896z M79.273,81.861c2.262,0,4.096-1.823,4.096-4.074
		c0-2.252-1.834-4.079-4.096-4.079c-2.258,0-4.084,1.827-4.084,4.079C75.189,80.038,77.016,81.861,79.273,81.861L79.273,81.861z"/>
	<polygon fill="#FFFFFF" points="95.441,83.553 95.441,87.541 22.28,87.541 22.28,83.553 	"/>
	<path fill="#FFFFFF" d="M92.969,70.695c-0.607,0.646-2.268,0.685-2.268,0.685l-1.783,1.71l-1.357-0.007
		c-0.295-5.376-4.756-9.646-10.231-9.646c-5.14,0-9.369,3.781-10.103,8.703l-20.346,0.408c0-0.045,0.006-0.088,0.006-0.135
		c0-5.077-4.138-9.196-9.243-9.196c-3.054,0-5.754,1.479-7.436,3.753c-1.266-0.484-2.708-0.978-3.502-1.035
		c0,0-2.152-6.416,3.263-7.51c5.417-1.097,18.699-3.737,18.699-3.737l5.95-14.927c0,0,1.165-0.259,2.469-0.259
		c1.302,0,27.524,0.054,27.524,0.054s1.303-0.411,1.92,0.893c0.615,1.302,3.08,15.614,3.08,15.614s1.207-0.192,1.938,0.456
		c0.729,0.647,2.35,4.563,2.268,6.216C93.734,64.387,93.576,70.053,92.969,70.695L92.969,70.695z M56.412,42.984l-2.197,9.417
		c0.61,0.828,1.838,3.704,1.838,3.704l13.105,0.086l0.064-13.206L56.412,42.984L56.412,42.984z M80.572,42.94
		c-0.609-0.043-7.961-0.142-7.961-0.142l0.061,12.278c0.001,0-2.311,0.83-1.186,0.873c0.293,0.011,1.238,0.032,2.471,0.056
		l9.225-12.237C82.055,42.857,81.164,42.981,80.572,42.94L80.572,42.94z M84.381,46.674l-5.457,9.418
		c2.395,0.042,4.436,0.075,4.436,0.075s1.763-0.306,1.894-1.002C85.344,54.674,85.072,49.903,84.381,46.674L84.381,46.674z
		 M37.374,67.65c4.523,0,8.191,3.65,8.191,8.154c0,4.502-3.667,8.151-8.191,8.151c-4.522,0-8.189-3.649-8.189-8.151
		S32.852,67.65,37.374,67.65L37.374,67.65z M37.374,79.678c2.262,0,4.095-1.824,4.095-4.076c0-2.254-1.833-4.078-4.095-4.078
		c-2.26,0-4.094,1.824-4.094,4.078C33.28,77.854,35.114,79.678,37.374,79.678L37.374,79.678z M77.273,67.896
		c4.522,0,8.188,3.649,8.188,8.156c0,4.5-3.666,7.969-8.188,7.969c-4.515,0-8.162-3.469-8.162-7.969
		C69.111,71.546,72.76,67.896,77.273,67.896L77.273,67.896z M77.273,79.861c2.262,0,4.096-1.823,4.096-4.074
		c0-2.252-1.834-4.079-4.096-4.079c-2.258,0-4.084,1.827-4.084,4.079C73.189,78.038,75.016,79.861,77.273,79.861L77.273,79.861z"/>
	
		<linearGradient id="SVGID_13_" gradientUnits="userSpaceOnUse" x1="297.291" y1="-282.2925" x2="297.291" y2="-257.6172" gradientTransform="matrix(1 0 0 -1 -237.5996 -239.9004)">
		<stop  offset="0" style="stop-color:#FFFFFF;stop-opacity:0"/>
		<stop  offset="1" style="stop-color:#FFFFFF;stop-opacity:0.8"/>
	</linearGradient>
	<path fill="url(#SVGID_13_)" d="M36.279,34.575c-10.953-3.797-15.283-8.096-16.986-10.74c1.672-3.347,4.899-5.653,8.636-6.118
		c0.237,0,61.958,0,61.958,0l0.297,0.01c0,0,0.086,0.005,0.168,0.008c5.557,0.737,9.737,5.503,9.737,11.116c0,0,0,10.497,0,13.541
		C72.244,42.233,50.784,39.604,36.279,34.575"/>
</g>
<g id="red">
	<path fill-opacity="0.1" d="M31.33,106.609c-8.949,0-16.229-7.28-16.229-16.229V30.85c0-8.948,7.28-16.228,16.229-16.228h59.527
		c8.949,0,16.229,7.28,16.229,16.228v59.53c0,8.948-7.28,16.229-16.229,16.229H31.33"/>
	<path fill="#FFFFFF" d="M29.33,104.609c-8.949,0-16.229-7.28-16.229-16.229V28.85c0-8.948,7.28-16.228,16.229-16.228h59.527
		c8.949,0,16.229,7.28,16.229,16.228v59.53c0,8.948-7.28,16.229-16.229,16.229H29.33"/>
	
		<linearGradient id="SVGID_14_" gradientUnits="userSpaceOnUse" x1="296.6943" y1="-341.5093" x2="296.6942" y2="-255.5215" gradientTransform="matrix(1 0 0 -1 -237.5996 -239.9004)">
		<stop  offset="0.16" style="stop-color:#3E8CE8"/>
		<stop  offset="0.1933" style="stop-color:#3984E6"/>
		<stop  offset="0.3612" style="stop-color:#205EDD"/>
		<stop  offset="0.517" style="stop-color:#0E43D6"/>
		<stop  offset="0.6547" style="stop-color:#0433D2"/>
		<stop  offset="0.76" style="stop-color:#002DD1"/>
	</linearGradient>
	<path fill="url(#SVGID_14_)" d="M88.857,101.609H29.33c-7.306,0-13.23-5.922-13.23-13.229V28.85c0-7.306,5.924-13.229,13.23-13.229
		h59.527c7.308,0,13.23,5.922,13.23,13.229v59.53C102.089,95.688,96.165,101.609,88.857,101.609L88.857,101.609z"/>
	<g>
		
			<radialGradient id="SVGID_15_" cx="296.6934" cy="-298.5156" r="42.9941" gradientTransform="matrix(1 0 0 -1 -237.5996 -239.9004)" gradientUnits="userSpaceOnUse">
			<stop  offset="0" style="stop-color:#000000"/>
			<stop  offset="0.1503" style="stop-color:#202020;stop-opacity:0.8497"/>
			<stop  offset="0.4818" style="stop-color:#737373;stop-opacity:0.5182"/>
			<stop  offset="0.9675" style="stop-color:#F6F6F6;stop-opacity:0.0325"/>
			<stop  offset="1" style="stop-color:#FFFFFF;stop-opacity:0"/>
		</radialGradient>
		<path opacity="0.25" fill="url(#SVGID_15_)" enable-background="new    " d="M88.857,101.609H29.33
			c-7.306,0-13.23-5.922-13.23-13.229V28.85c0-7.306,5.924-13.229,13.23-13.229h59.527c7.308,0,13.23,5.922,13.23,13.229v59.53
			C102.089,95.688,96.165,101.609,88.857,101.609L88.857,101.609z"/>
	</g>
	<polygon fill-opacity="0.1" points="97.441,85.553 97.441,89.541 24.28,89.541 24.28,85.553 	"/>
	<path fill-opacity="0.1" d="M94.969,72.695c-0.607,0.646-2.268,0.685-2.268,0.685l-1.783,1.71l-1.357-0.007
		c-0.295-5.376-4.756-9.646-10.231-9.646c-5.14,0-9.369,3.781-10.103,8.703l-20.346,0.408c0-0.045,0.006-0.088,0.006-0.135
		c0-5.077-4.138-9.196-9.243-9.196c-3.054,0-5.754,1.479-7.436,3.753c-1.266-0.484-2.708-0.978-3.502-1.035
		c0,0-2.152-6.416,3.263-7.51c5.417-1.098,18.699-3.738,18.699-3.738l5.95-14.927c0,0,1.165-0.259,2.469-0.259
		c1.302,0,27.524,0.054,27.524,0.054s1.303-0.411,1.92,0.893c0.615,1.302,3.08,15.614,3.08,15.614s1.207-0.192,1.938,0.457
		c0.729,0.646,2.35,4.563,2.268,6.215S95.576,72.053,94.969,72.695L94.969,72.695z M58.412,44.984l-2.197,9.417
		c0.61,0.828,1.838,3.704,1.838,3.704l13.105,0.086l0.064-13.206L58.412,44.984L58.412,44.984z M82.572,44.94
		c-0.609-0.043-7.961-0.142-7.961-0.142l0.061,12.278c0.001,0-2.311,0.83-1.186,0.873c0.293,0.011,1.238,0.032,2.471,0.056
		l9.225-12.237C84.055,44.857,83.164,44.981,82.572,44.94L82.572,44.94z M86.381,48.674l-5.457,9.418
		c2.395,0.042,4.436,0.075,4.436,0.075s1.763-0.306,1.894-1.002C87.344,56.674,87.072,51.903,86.381,48.674L86.381,48.674z
		 M39.374,69.65c4.523,0,8.191,3.65,8.191,8.154c0,4.502-3.667,8.151-8.191,8.151c-4.522,0-8.189-3.649-8.189-8.151
		S34.852,69.65,39.374,69.65L39.374,69.65z M39.374,81.678c2.262,0,4.095-1.824,4.095-4.076c0-2.254-1.833-4.078-4.095-4.078
		c-2.26,0-4.094,1.824-4.094,4.078C35.28,79.854,37.114,81.678,39.374,81.678L39.374,81.678z M79.273,69.896
		c4.522,0,8.188,3.649,8.188,8.156c0,4.5-3.666,7.969-8.188,7.969c-4.515,0-8.162-3.469-8.162-7.969
		C71.111,73.546,74.76,69.896,79.273,69.896L79.273,69.896z M79.273,81.861c2.262,0,4.096-1.823,4.096-4.074
		c0-2.252-1.834-4.079-4.096-4.079c-2.258,0-4.084,1.827-4.084,4.079C75.189,80.038,77.016,81.861,79.273,81.861L79.273,81.861z"/>
	<polygon fill="#FFFFFF" points="95.441,83.553 95.441,87.541 22.28,87.541 22.28,83.553 	"/>
	<path fill="#FFFFFF" d="M92.969,70.695c-0.607,0.646-2.268,0.685-2.268,0.685l-1.783,1.71l-1.357-0.007
		c-0.295-5.376-4.756-9.646-10.231-9.646c-5.14,0-9.369,3.781-10.103,8.703l-20.346,0.408c0-0.045,0.006-0.088,0.006-0.135
		c0-5.077-4.138-9.196-9.243-9.196c-3.054,0-5.754,1.479-7.436,3.753c-1.266-0.484-2.708-0.978-3.502-1.035
		c0,0-2.152-6.416,3.263-7.51c5.417-1.097,18.699-3.737,18.699-3.737l5.95-14.927c0,0,1.165-0.259,2.469-0.259
		c1.302,0,27.524,0.054,27.524,0.054s1.303-0.411,1.92,0.893c0.615,1.302,3.08,15.614,3.08,15.614s1.207-0.192,1.938,0.456
		c0.729,0.647,2.35,4.563,2.268,6.216C93.734,64.387,93.576,70.053,92.969,70.695L92.969,70.695z M56.412,42.984l-2.197,9.417
		c0.61,0.828,1.838,3.704,1.838,3.704l13.105,0.086l0.064-13.206L56.412,42.984L56.412,42.984z M80.572,42.94
		c-0.609-0.043-7.961-0.142-7.961-0.142l0.061,12.278c0.001,0-2.311,0.83-1.186,0.873c0.293,0.011,1.238,0.032,2.471,0.056
		l9.225-12.237C82.055,42.857,81.164,42.981,80.572,42.94L80.572,42.94z M84.381,46.674l-5.457,9.418
		c2.395,0.042,4.436,0.075,4.436,0.075s1.763-0.306,1.894-1.002C85.344,54.674,85.072,49.903,84.381,46.674L84.381,46.674z
		 M37.374,67.65c4.523,0,8.191,3.65,8.191,8.154c0,4.502-3.667,8.151-8.191,8.151c-4.522,0-8.189-3.649-8.189-8.151
		S32.852,67.65,37.374,67.65L37.374,67.65z M37.374,79.678c2.262,0,4.095-1.824,4.095-4.076c0-2.254-1.833-4.078-4.095-4.078
		c-2.26,0-4.094,1.824-4.094,4.078C33.28,77.854,35.114,79.678,37.374,79.678L37.374,79.678z M77.273,67.896
		c4.522,0,8.188,3.649,8.188,8.156c0,4.5-3.666,7.969-8.188,7.969c-4.515,0-8.162-3.469-8.162-7.969
		C69.111,71.546,72.76,67.896,77.273,67.896L77.273,67.896z M77.273,79.861c2.262,0,4.096-1.823,4.096-4.074
		c0-2.252-1.834-4.079-4.096-4.079c-2.258,0-4.084,1.827-4.084,4.079C73.189,78.038,75.016,79.861,77.273,79.861L77.273,79.861z"/>
	
		<linearGradient id="SVGID_16_" gradientUnits="userSpaceOnUse" x1="297.291" y1="-282.2925" x2="297.291" y2="-257.6172" gradientTransform="matrix(1 0 0 -1 -237.5996 -239.9004)">
		<stop  offset="0" style="stop-color:#FFFFFF;stop-opacity:0"/>
		<stop  offset="1" style="stop-color:#FFFFFF;stop-opacity:0.8"/>
	</linearGradient>
	<path fill="url(#SVGID_16_)" d="M36.279,34.575c-10.953-3.797-15.283-8.096-16.986-10.74c1.672-3.347,4.899-5.653,8.636-6.118
		c0.237,0,61.958,0,61.958,0l0.297,0.01c0,0,0.086,0.005,0.168,0.008c5.557,0.737,9.737,5.503,9.737,11.116c0,0,0,10.497,0,13.541
		C72.244,42.233,50.784,39.604,36.279,34.575"/>
</g>
</svg>
