<?xml version="1.0" encoding="iso-8859-1"?>
<!-- Generator: Adobe Illustrator 17.1.0, SVG Export Plug-In . SVG Version: 6.00 Build 0)  -->
<!DOCTYPE svg PUBLIC "-//W3C//DTD SVG 1.1//EN" "http://www.w3.org/Graphics/SVG/1.1/DTD/svg11.dtd">
<svg version="1.1" xmlns="http://www.w3.org/2000/svg" xmlns:xlink="http://www.w3.org/1999/xlink" x="0px" y="0px" width="120px"
	 height="120px" viewBox="0 0 120 120" enable-background="new 0 0 120 120" xml:space="preserve">
<g id="Layer_2" display="none">
	<circle display="inline" opacity="0.5" fill="#DF1F26" cx="60" cy="60" r="60"/>
	<rect x="6.5" y="6.5" display="inline" opacity="0.5" fill="#3B4FA1" width="107" height="107"/>
</g>
<g id="normal">
	<g>
		<g>
			<path fill-rule="evenodd" clip-rule="evenodd" fill="#3A3A3A" d="M70.899,60.253c-0.588-0.588-1.386-0.919-2.218-0.919h-0.094
				c-0.816,0-1.599,0.324-2.177,0.901l-3.671,3.671c-0.489,0.489-1.152,0.763-1.843,0.763h-0.282c-0.836,0-1.638-0.332-2.229-0.923
				L49.66,55.02c-0.654-0.654-1.541-1.021-2.466-1.021h-1.264c-1.682,0-3.296,0.668-4.486,1.858L27.297,70.005v10.671h64.026
				L70.899,60.253z M6.5,18.39l0.012,83.221l106.988,0V18.39L6.5,18.39z M104.607,92.666l-89.202,0l0-65.337l89.202,0
				L104.607,92.666z M90.139,48.907c0.166-0.238,0.381-0.453,0.62-0.619c4.972-7.12-2.817-14.909-9.937-9.939
				c-0.166,0.238-0.381,0.453-0.62,0.62C75.231,46.087,83.019,53.876,90.139,48.907z"/>
		</g>
	</g>
</g>
<g id="active">
	<g>
		<g>
			<path fill-rule="evenodd" clip-rule="evenodd" fill="#3A3A3A" d="M70.899,60.253c-0.588-0.588-1.386-0.919-2.218-0.919h-0.094
				c-0.816,0-1.599,0.324-2.177,0.901l-3.671,3.671c-0.489,0.489-1.152,0.763-1.843,0.763h-0.282c-0.836,0-1.638-0.332-2.229-0.923
				L49.66,55.02c-0.654-0.654-1.541-1.021-2.466-1.021h-1.264c-1.682,0-3.296,0.668-4.486,1.858L27.297,70.005v10.671h64.026
				L70.899,60.253z M6.5,18.39l0.012,83.221l106.988,0V18.39L6.5,18.39z M104.607,92.666l-89.202,0l0-65.337l89.202,0
				L104.607,92.666z M90.139,48.907c0.166-0.238,0.381-0.453,0.62-0.619c4.972-7.12-2.817-14.909-9.937-9.939
				c-0.166,0.238-0.381,0.453-0.62,0.62C75.231,46.087,83.019,53.876,90.139,48.907z"/>
		</g>
	</g>
</g>
<g id="disabled" opacity="0.2">
	<g>
		<g>
			<path fill-rule="evenodd" clip-rule="evenodd" fill="#3A3A3A" d="M70.899,60.253c-0.588-0.588-1.386-0.919-2.218-0.919h-0.094
				c-0.816,0-1.599,0.324-2.177,0.901l-3.671,3.671c-0.489,0.489-1.152,0.763-1.843,0.763h-0.282c-0.836,0-1.638-0.332-2.229-0.923
				L49.66,55.02c-0.654-0.654-1.541-1.021-2.466-1.021h-1.264c-1.682,0-3.296,0.668-4.486,1.858L27.297,70.005v10.671h64.026
				L70.899,60.253z M6.5,18.39l0.012,83.221l106.988,0V18.39L6.5,18.39z M104.607,92.666l-89.202,0l0-65.337l89.202,0
				L104.607,92.666z M90.139,48.907c0.166-0.238,0.381-0.453,0.62-0.619c4.972-7.12-2.817-14.909-9.937-9.939
				c-0.166,0.238-0.381,0.453-0.62,0.62C75.231,46.087,83.019,53.876,90.139,48.907z"/>
		</g>
	</g>
</g>
</svg>
