<?xml version="1.0" encoding="iso-8859-1"?>
<!-- Generator: Adobe Illustrator 17.1.0, SVG Export Plug-In . SVG Version: 6.00 Build 0)  -->
<!DOCTYPE svg PUBLIC "-//W3C//DTD SVG 1.1//EN" "http://www.w3.org/Graphics/SVG/1.1/DTD/svg11.dtd">
<svg version="1.1" xmlns="http://www.w3.org/2000/svg" xmlns:xlink="http://www.w3.org/1999/xlink" x="0px" y="0px" width="120px"
	 height="120px" viewBox="0 0 120 120" enable-background="new 0 0 120 120" xml:space="preserve">
<g id="Layer_4" display="none">
	<circle display="inline" opacity="0.5" fill="#DF1F26" cx="60" cy="60" r="60"/>
	<rect x="6.5" y="6.5" display="inline" opacity="0.5" fill="#3B4FA1" width="107" height="107"/>
</g>
<g id="normal">
	<g>
		<g>
			<path fill-rule="evenodd" clip-rule="evenodd" fill="#3A3A3A" d="M83.479,94.81c-3.767,2.551-7.945,4.486-12.465,5.542
				c1.515-2.044,2.902-4.247,4.155-6.558c-1.33-0.362-2.612-0.813-3.845-1.34c-1.769,3.3-3.746,6.449-5.899,9.296
				c-1.535,0.28-2.933,0.418-4.332,0.418V85.101c-2.153-2.411-3.89-5.163-5.143-8.135c-4.52,0.397-9.596,1.74-14.555,3.829
				c-2.515-6.706-4.05-13.413-4.332-19.7h16.959c0.159-0.992,0.368-1.986,0.634-2.978c0.11-0.409,0.232-0.812,0.358-1.212H37.063
				c0.282-6.566,1.817-13.132,4.332-19.698c5.308,2.234,10.758,3.63,15.507,3.912v11.188c1.146-2.229,2.561-4.266,4.19-6.084v-5.104
				c2.734-0.162,5.702-0.704,8.739-1.552c3.344-1.666,7.012-2.695,10.815-2.979c-0.094-0.26-0.178-0.52-0.274-0.78
				c4.191-1.816,7.965-3.771,10.898-5.867c2.938,3.258,5.343,6.989,7.137,11.075c2.465,1.558,4.65,3.464,6.51,5.629
				C99.579,26.238,81.258,11.5,59,11.5c-26.544,0-47.5,20.955-47.5,47.5c0,26.545,20.955,47.5,47.5,47.5
				c11.415,0,21.787-3.886,29.911-10.417c-0.289-0.663-0.526-1.25-0.723-1.774C86.645,94.598,85.073,94.775,83.479,94.81z
				 M88.337,27.006c-2.516,1.816-5.73,3.633-9.363,5.17c-2.093-5.308-4.886-10.478-7.96-14.669
				C77.58,19.182,83.447,22.536,88.337,27.006z M61.093,15.832c1.399,0,2.797,0.139,4.332,0.418
				c3.773,5.169,7.266,11.038,9.917,17.464c-4.609,1.677-9.636,2.795-14.249,3.073V15.832z M56.902,15.832v20.955
				c-4.609-0.279-9.64-1.396-14.249-3.073c2.652-6.426,6.148-12.295,9.917-17.464C54.109,15.971,55.503,15.832,56.902,15.832z
				 M46.985,17.507c-3.074,4.191-5.871,9.361-7.965,14.669c-3.633-1.537-6.848-3.354-9.363-5.17
				C34.548,22.536,40.419,19.182,46.985,17.507z M26.725,29.942c2.933,2.096,6.706,4.051,10.897,5.867
				c-2.793,7.545-4.468,15.089-4.75,21.097H15.968C16.39,46.427,20.299,37.067,26.725,29.942z M15.968,61.095h16.905
				c0.141,5.869,1.816,13.552,4.75,21.097c-4.191,1.816-7.965,3.771-10.897,5.867C20.299,80.934,16.39,71.573,15.968,61.095z
				 M29.658,90.994c2.656-1.957,5.871-3.773,9.503-5.31c1.953,5.31,4.609,10.338,7.824,14.668
				C40.419,98.818,34.548,95.464,29.658,90.994z M56.902,102.168c-1.399,0-2.793-0.138-4.332-0.418
				c-3.91-5.169-7.266-11.317-9.776-17.604c4.75-1.676,9.639-2.654,14.108-2.934V102.168z M111.372,105.099l-9.074-15.717
				c-0.812-1.407-2.219-2.244-3.719-2.407l-2.893-5.011c3.521-2.746,6.212-6.618,7.457-11.264
				c3.042-11.355-3.696-23.026-15.051-26.068c-11.354-3.042-23.025,3.696-26.068,15.051c-3.042,11.354,3.696,23.025,15.05,26.067
				c4.733,1.268,9.519,0.832,13.714-0.925l2.842,4.922c-0.658,1.402-0.648,3.09,0.185,4.533l9.074,15.716
				c1.352,2.342,4.348,3.145,6.691,1.793S112.724,107.442,111.372,105.099z M78.486,80.476
				c-8.441-2.262-13.451-10.938-11.189-19.379c2.262-8.441,10.938-13.45,19.38-11.188c8.441,2.262,13.45,10.938,11.188,19.379
				C95.604,77.729,86.927,82.738,78.486,80.476z"/>
		</g>
	</g>
</g>
<g id="active">
	<g>
		<g>
			<path fill-rule="evenodd" clip-rule="evenodd" fill="#3A3A3A" d="M83.479,94.81c-3.767,2.551-7.945,4.486-12.465,5.542
				c1.515-2.044,2.902-4.247,4.155-6.558c-1.33-0.362-2.612-0.813-3.845-1.34c-1.769,3.3-3.746,6.449-5.899,9.296
				c-1.535,0.28-2.933,0.418-4.332,0.418V85.101c-2.153-2.411-3.89-5.163-5.143-8.135c-4.52,0.397-9.596,1.74-14.555,3.829
				c-2.515-6.706-4.05-13.413-4.332-19.7h16.959c0.159-0.992,0.368-1.986,0.634-2.978c0.11-0.409,0.232-0.812,0.358-1.212H37.063
				c0.282-6.566,1.817-13.132,4.332-19.698c5.308,2.234,10.758,3.63,15.507,3.912v11.188c1.146-2.229,2.561-4.266,4.19-6.084v-5.104
				c2.734-0.162,5.702-0.704,8.739-1.552c3.344-1.666,7.012-2.695,10.815-2.979c-0.094-0.26-0.178-0.52-0.274-0.78
				c4.191-1.816,7.965-3.771,10.898-5.867c2.938,3.258,5.343,6.989,7.137,11.075c2.465,1.558,4.65,3.464,6.51,5.629
				C99.579,26.238,81.258,11.5,59,11.5c-26.544,0-47.5,20.955-47.5,47.5c0,26.545,20.955,47.5,47.5,47.5
				c11.415,0,21.787-3.886,29.911-10.417c-0.289-0.663-0.526-1.25-0.723-1.774C86.645,94.598,85.073,94.775,83.479,94.81z
				 M88.337,27.006c-2.516,1.816-5.73,3.633-9.363,5.17c-2.093-5.308-4.886-10.478-7.96-14.669
				C77.58,19.182,83.447,22.536,88.337,27.006z M61.093,15.832c1.399,0,2.797,0.139,4.332,0.418
				c3.773,5.169,7.266,11.038,9.917,17.464c-4.609,1.677-9.636,2.795-14.249,3.073V15.832z M56.902,15.832v20.955
				c-4.609-0.279-9.64-1.396-14.249-3.073c2.652-6.426,6.148-12.295,9.917-17.464C54.109,15.971,55.503,15.832,56.902,15.832z
				 M46.985,17.507c-3.074,4.191-5.871,9.361-7.965,14.669c-3.633-1.537-6.848-3.354-9.363-5.17
				C34.548,22.536,40.419,19.182,46.985,17.507z M26.725,29.942c2.933,2.096,6.706,4.051,10.897,5.867
				c-2.793,7.545-4.468,15.089-4.75,21.097H15.968C16.39,46.427,20.299,37.067,26.725,29.942z M15.968,61.095h16.905
				c0.141,5.869,1.816,13.552,4.75,21.097c-4.191,1.816-7.965,3.771-10.897,5.867C20.299,80.934,16.39,71.573,15.968,61.095z
				 M29.658,90.994c2.656-1.957,5.871-3.773,9.503-5.31c1.953,5.31,4.609,10.338,7.824,14.668
				C40.419,98.818,34.548,95.464,29.658,90.994z M56.902,102.168c-1.399,0-2.793-0.138-4.332-0.418
				c-3.91-5.169-7.266-11.317-9.776-17.604c4.75-1.676,9.639-2.654,14.108-2.934V102.168z M111.372,105.099l-9.074-15.717
				c-0.812-1.407-2.219-2.244-3.719-2.407l-2.893-5.011c3.521-2.746,6.212-6.618,7.457-11.264
				c3.042-11.355-3.696-23.026-15.051-26.068c-11.354-3.042-23.025,3.696-26.068,15.051c-3.042,11.354,3.696,23.025,15.05,26.067
				c4.733,1.268,9.519,0.832,13.714-0.925l2.842,4.922c-0.658,1.402-0.648,3.09,0.185,4.533l9.074,15.716
				c1.352,2.342,4.348,3.145,6.691,1.793S112.724,107.442,111.372,105.099z M78.486,80.476
				c-8.441-2.262-13.451-10.938-11.189-19.379c2.262-8.441,10.938-13.45,19.38-11.188c8.441,2.262,13.45,10.938,11.188,19.379
				C95.604,77.729,86.927,82.738,78.486,80.476z"/>
		</g>
	</g>
</g>
<g id="disabled" opacity="0.2">
	<g>
		<g>
			<path fill-rule="evenodd" clip-rule="evenodd" fill="#3A3A3A" d="M83.479,94.81c-3.767,2.551-7.945,4.486-12.465,5.542
				c1.515-2.044,2.902-4.247,4.155-6.558c-1.33-0.362-2.612-0.813-3.845-1.34c-1.769,3.3-3.746,6.449-5.899,9.296
				c-1.535,0.28-2.933,0.418-4.332,0.418V85.101c-2.153-2.411-3.89-5.163-5.143-8.135c-4.52,0.397-9.596,1.74-14.555,3.829
				c-2.515-6.706-4.05-13.413-4.332-19.7h16.959c0.159-0.992,0.368-1.986,0.634-2.978c0.11-0.409,0.232-0.812,0.358-1.212H37.063
				c0.282-6.566,1.817-13.132,4.332-19.698c5.308,2.234,10.758,3.63,15.507,3.912v11.188c1.146-2.229,2.561-4.266,4.19-6.084v-5.104
				c2.734-0.162,5.702-0.704,8.739-1.552c3.344-1.666,7.012-2.695,10.815-2.979c-0.094-0.26-0.178-0.52-0.274-0.78
				c4.191-1.816,7.965-3.771,10.898-5.867c2.938,3.258,5.343,6.989,7.137,11.075c2.465,1.558,4.65,3.464,6.51,5.629
				C99.579,26.238,81.258,11.5,59,11.5c-26.544,0-47.5,20.955-47.5,47.5c0,26.545,20.955,47.5,47.5,47.5
				c11.415,0,21.787-3.886,29.911-10.417c-0.289-0.663-0.526-1.25-0.723-1.774C86.645,94.598,85.073,94.775,83.479,94.81z
				 M88.337,27.006c-2.516,1.816-5.73,3.633-9.363,5.17c-2.093-5.308-4.886-10.478-7.96-14.669
				C77.58,19.182,83.447,22.536,88.337,27.006z M61.093,15.832c1.399,0,2.797,0.139,4.332,0.418
				c3.773,5.169,7.266,11.038,9.917,17.464c-4.609,1.677-9.636,2.795-14.249,3.073V15.832z M56.902,15.832v20.955
				c-4.609-0.279-9.64-1.396-14.249-3.073c2.652-6.426,6.148-12.295,9.917-17.464C54.109,15.971,55.503,15.832,56.902,15.832z
				 M46.985,17.507c-3.074,4.191-5.871,9.361-7.965,14.669c-3.633-1.537-6.848-3.354-9.363-5.17
				C34.548,22.536,40.419,19.182,46.985,17.507z M26.725,29.942c2.933,2.096,6.706,4.051,10.897,5.867
				c-2.793,7.545-4.468,15.089-4.75,21.097H15.968C16.39,46.427,20.299,37.067,26.725,29.942z M15.968,61.095h16.905
				c0.141,5.869,1.816,13.552,4.75,21.097c-4.191,1.816-7.965,3.771-10.897,5.867C20.299,80.934,16.39,71.573,15.968,61.095z
				 M29.658,90.994c2.656-1.957,5.871-3.773,9.503-5.31c1.953,5.31,4.609,10.338,7.824,14.668
				C40.419,98.818,34.548,95.464,29.658,90.994z M56.902,102.168c-1.399,0-2.793-0.138-4.332-0.418
				c-3.91-5.169-7.266-11.317-9.776-17.604c4.75-1.676,9.639-2.654,14.108-2.934V102.168z M111.372,105.099l-9.074-15.717
				c-0.812-1.407-2.219-2.244-3.719-2.407l-2.893-5.011c3.521-2.746,6.212-6.618,7.457-11.264
				c3.042-11.355-3.696-23.026-15.051-26.068c-11.354-3.042-23.025,3.696-26.068,15.051c-3.042,11.354,3.696,23.025,15.05,26.067
				c4.733,1.268,9.519,0.832,13.714-0.925l2.842,4.922c-0.658,1.402-0.648,3.09,0.185,4.533l9.074,15.716
				c1.352,2.342,4.348,3.145,6.691,1.793S112.724,107.442,111.372,105.099z M78.486,80.476
				c-8.441-2.262-13.451-10.938-11.189-19.379c2.262-8.441,10.938-13.45,19.38-11.188c8.441,2.262,13.45,10.938,11.188,19.379
				C95.604,77.729,86.927,82.738,78.486,80.476z"/>
		</g>
	</g>
</g>
</svg>
