<?xml version="1.0" encoding="iso-8859-1"?>
<!-- Generator: Adobe Illustrator 17.1.0, SVG Export Plug-In . SVG Version: 6.00 Build 0)  -->
<!DOCTYPE svg PUBLIC "-//W3C//DTD SVG 1.1//EN" "http://www.w3.org/Graphics/SVG/1.1/DTD/svg11.dtd">
<svg version="1.1" xmlns="http://www.w3.org/2000/svg" xmlns:xlink="http://www.w3.org/1999/xlink" x="0px" y="0px" width="120px"
	 height="120px" viewBox="0 0 120 120" enable-background="new 0 0 120 120" xml:space="preserve">
<g id="Layer_4" display="none">
	<circle display="inline" opacity="0.5" fill="#DF1F26" cx="60" cy="60" r="60"/>
	<rect x="6.5" y="6.5" display="inline" opacity="0.5" fill="#3B4FA1" width="107" height="107"/>
</g>
<g id="normal">
	<g>
		<polygon fill-rule="evenodd" clip-rule="evenodd" fill="#3A3A3A" points="64.389,36.294 64.389,57.927 91.88,65.231 
			89.787,72.973 58.5,64.662 55.624,64.662 55.624,63.899 55.624,61.731 55.624,36.294 64.389,36.294 		"/>
		<polygon fill-rule="evenodd" clip-rule="evenodd" fill="#3A3A3A" points="67.293,92.345 97.5,89.75 87.239,118 		"/>
		<path fill="#3A3A3A" d="M75.25,101.482c-4.756,1.754-9.892,2.714-15.25,2.714c-24.369,0-44.196-19.826-44.196-44.196
			S35.631,15.804,60,15.804S104.196,35.631,104.196,60h9.304c0-29.5-24-53.5-53.5-53.5S6.5,30.5,6.5,60s24,53.5,53.5,53.5
			c10.467,0,20.234-3.033,28.49-8.25L75.25,101.482z"/>
	</g>
</g>
<g id="active">
	<g>
		<polygon fill-rule="evenodd" clip-rule="evenodd" fill="#3A3A3A" points="64.389,36.294 64.389,57.927 91.88,65.231 
			89.787,72.973 58.5,64.662 55.624,64.662 55.624,63.899 55.624,61.731 55.624,36.294 64.389,36.294 		"/>
		<polygon fill-rule="evenodd" clip-rule="evenodd" fill="#3A3A3A" points="67.293,92.345 97.5,89.75 87.239,118 		"/>
		<path fill="#3A3A3A" d="M75.25,101.482c-4.756,1.754-9.892,2.714-15.25,2.714c-24.369,0-44.196-19.826-44.196-44.196
			S35.631,15.804,60,15.804S104.196,35.631,104.196,60h9.304c0-29.5-24-53.5-53.5-53.5S6.5,30.5,6.5,60s24,53.5,53.5,53.5
			c10.467,0,20.234-3.033,28.49-8.25L75.25,101.482z"/>
	</g>
</g>
<g id="disabled" opacity="0.2">
	<g>
		<polygon fill-rule="evenodd" clip-rule="evenodd" fill="#3A3A3A" points="64.389,36.294 64.389,57.927 91.88,65.231 
			89.787,72.973 58.5,64.662 55.624,64.662 55.624,63.899 55.624,61.731 55.624,36.294 64.389,36.294 		"/>
		<polygon fill-rule="evenodd" clip-rule="evenodd" fill="#3A3A3A" points="67.293,92.345 97.5,89.75 87.239,118 		"/>
		<path fill="#3A3A3A" d="M75.25,101.482c-4.756,1.754-9.892,2.714-15.25,2.714c-24.369,0-44.196-19.826-44.196-44.196
			S35.631,15.804,60,15.804S104.196,35.631,104.196,60h9.304c0-29.5-24-53.5-53.5-53.5S6.5,30.5,6.5,60s24,53.5,53.5,53.5
			c10.467,0,20.234-3.033,28.49-8.25L75.25,101.482z"/>
	</g>
</g>
</svg>
