<?xml version="1.0" encoding="iso-8859-1"?>
<!-- Generator: Adobe Illustrator 17.1.0, SVG Export Plug-In . SVG Version: 6.00 Build 0)  -->
<!DOCTYPE svg PUBLIC "-//W3C//DTD SVG 1.1//EN" "http://www.w3.org/Graphics/SVG/1.1/DTD/svg11.dtd">
<svg version="1.1" xmlns="http://www.w3.org/2000/svg" xmlns:xlink="http://www.w3.org/1999/xlink" x="0px" y="0px" width="120px"
	 height="120px" viewBox="0 0 120 120" enable-background="new 0 0 120 120" xml:space="preserve">
<g id="Layer_4" display="none">
	<circle display="inline" opacity="0.5" fill="#DF1F26" cx="60" cy="60" r="60"/>
	<rect x="6.5" y="6.5" display="inline" opacity="0.5" fill="#3B4FA1" width="107" height="107"/>
</g>
<g id="normal">
	<path fill="#3A3A3A" d="M62.616,35.436l0,75.777c0,1.263-1.024,2.287-2.288,2.287l-0.656,0c-1.263,0-2.287-1.024-2.287-2.288
		l0-75.777c0-1.263,1.024-2.287,2.288-2.287l0.656,0C61.592,33.148,62.616,34.172,62.616,35.436L62.616,35.436z M86.343,30.709
		L69.82,36.516l3.117,17.91L59.882,42.385L46.593,54.183l3.468-17.851l-16.405-6.113l16.523-5.807L47.063,6.5l13.055,12.043
		L73.407,6.745l-3.469,17.849L86.343,30.709L86.343,30.709z"/>
</g>
<g id="active">
	<path fill="#3A3A3A" d="M62.616,35.436l0,75.777c0,1.263-1.024,2.287-2.288,2.287l-0.656,0c-1.263,0-2.287-1.024-2.287-2.288
		l0-75.777c0-1.263,1.024-2.287,2.288-2.287l0.656,0C61.592,33.148,62.616,34.172,62.616,35.436L62.616,35.436z M86.343,30.709
		L69.82,36.516l3.117,17.91L59.882,42.385L46.593,54.183l3.468-17.851l-16.405-6.113l16.523-5.807L47.063,6.5l13.055,12.043
		L73.407,6.745l-3.469,17.849L86.343,30.709L86.343,30.709z"/>
</g>
<g id="disabled" opacity="0.2">
	<path fill="#3A3A3A" d="M62.616,35.436l0,75.777c0,1.263-1.024,2.287-2.288,2.287l-0.656,0c-1.263,0-2.287-1.024-2.287-2.288
		l0-75.777c0-1.263,1.024-2.287,2.288-2.287l0.656,0C61.592,33.148,62.616,34.172,62.616,35.436L62.616,35.436z M86.343,30.709
		L69.82,36.516l3.117,17.91L59.882,42.385L46.593,54.183l3.468-17.851l-16.405-6.113l16.523-5.807L47.063,6.5l13.055,12.043
		L73.407,6.745l-3.469,17.849L86.343,30.709L86.343,30.709z"/>
</g>
</svg>
