<?xml version="1.0" encoding="utf-8"?>
<!-- Generator: Adobe Illustrator 17.0.1, SVG Export Plug-In . SVG Version: 6.00 Build 0)  -->
<!DOCTYPE svg PUBLIC "-//W3C//DTD SVG 1.1//EN" "http://www.w3.org/Graphics/SVG/1.1/DTD/svg11.dtd">
<svg version="1.1" xmlns="http://www.w3.org/2000/svg" xmlns:xlink="http://www.w3.org/1999/xlink" x="0px" y="0px" width="114px"
	 height="114px" viewBox="0 0 114 114" enable-background="new 0 0 114 114" xml:space="preserve">
<g id="normal">
	<path fill="#3A3A3A" d="M73.909,59.301c-1.227,1.249-3.216,1.249-4.443,0L40.092,29.194c-1.228-1.249-1.228-3.273,0-4.523
		c1.227-1.248,3.216-1.248,4.443,0l29.375,30.108C75.136,56.027,75.136,58.053,73.909,59.301L73.909,59.301z M73.909,59.221
		L44.534,89.329c-1.227,1.248-3.216,1.248-4.443,0c-1.228-1.249-1.228-3.273,0-4.523l29.375-30.107c1.227-1.249,3.216-1.249,4.443,0
		C75.136,55.947,75.136,57.971,73.909,59.221L73.909,59.221z"/>
</g>
<g id="active">
	<path fill="#3A3A3A" d="M73.909,59.301c-1.227,1.249-3.216,1.249-4.443,0L40.092,29.194c-1.228-1.249-1.228-3.273,0-4.523
		c1.227-1.248,3.216-1.248,4.443,0l29.375,30.108C75.136,56.027,75.136,58.053,73.909,59.301L73.909,59.301z M73.909,59.221
		L44.534,89.329c-1.227,1.248-3.216,1.248-4.443,0c-1.228-1.249-1.228-3.273,0-4.523l29.375-30.107c1.227-1.249,3.216-1.249,4.443,0
		C75.136,55.947,75.136,57.971,73.909,59.221L73.909,59.221z"/>
</g>
<g id="disabled" opacity="0.6">
	<path fill="#3A3A3A" d="M73.909,59.301c-1.227,1.249-3.216,1.249-4.443,0L40.092,29.194c-1.228-1.249-1.228-3.273,0-4.523
		c1.227-1.248,3.216-1.248,4.443,0l29.375,30.108C75.136,56.027,75.136,58.053,73.909,59.301L73.909,59.301z M73.909,59.221
		L44.534,89.329c-1.227,1.248-3.216,1.248-4.443,0c-1.228-1.249-1.228-3.273,0-4.523l29.375-30.107c1.227-1.249,3.216-1.249,4.443,0
		C75.136,55.947,75.136,57.971,73.909,59.221L73.909,59.221z"/>
</g>
</svg>
