<?xml version="1.0" encoding="iso-8859-1"?>
<!-- Generator: Adobe Illustrator 17.1.0, SVG Export Plug-In . SVG Version: 6.00 Build 0)  -->
<!DOCTYPE svg PUBLIC "-//W3C//DTD SVG 1.1//EN" "http://www.w3.org/Graphics/SVG/1.1/DTD/svg11.dtd">
<svg version="1.1" xmlns="http://www.w3.org/2000/svg" xmlns:xlink="http://www.w3.org/1999/xlink" x="0px" y="0px" width="120px"
	 height="120px" viewBox="0 0 120 120" enable-background="new 0 0 120 120" xml:space="preserve">
<g id="Layer_4" display="none">
	<circle display="inline" opacity="0.5" fill="#DF1F26" cx="60" cy="60" r="60"/>
	<rect x="6.5" y="6.5" display="inline" opacity="0.5" fill="#3B4FA1" width="107" height="107"/>
</g>
<g id="normal">
	<g>
		<path fill="#3A3A3A" d="M52.835,104.691c-20.79-3.216-37.173-20.444-39.059-41.623C11.2,34.154,35.32,10.034,64.233,12.61
			c22.165,1.974,40.014,19.822,41.991,41.987c1.08,12.112-2.537,23.373-9.216,32.193l2.999,5.411
			c6.618-7.917,10.943-17.805,11.906-28.609c2.895-32.473-24.196-59.565-56.67-56.671C30.351,9.139,10.305,29.185,8.086,54.078
			c-2.438,27.357,16.406,50.89,41.819,55.898L52.835,104.691z"/>
		<polygon fill-rule="evenodd" clip-rule="evenodd" fill="#3A3A3A" points="103.353,113.467 79.883,103.563 56.415,113.467 
			79.883,71.129 103.353,113.467 		"/>
		<rect x="57.144" y="8.993" fill="#3A3A3A" width="5.712" height="9.854"/>
		
			<rect x="97.309" y="49.195" transform="matrix(0.0039 1 -1 0.0039 158.2872 -41.8803)" fill="#3A3A3A" width="5.713" height="18.637"/>
		<rect x="10.516" y="55.621" fill="#3A3A3A" width="8.867" height="5.712"/>
		
			<rect x="89" y="22.188" transform="matrix(0.7071 0.7071 -0.7071 0.7071 45.7287 -57.1545)" fill="#3A3A3A" width="5.712" height="8.868"/>
		
			<rect x="23.711" y="23.766" transform="matrix(0.7071 0.7071 -0.7071 0.7071 27.0662 -12.1039)" fill="#3A3A3A" width="8.867" height="5.713"/>
		
			<rect x="38.326" y="14" transform="matrix(0.3827 0.9239 -0.9239 0.3827 41.9698 -29.0991)" fill="#3A3A3A" width="8.868" height="5.712"/>
		
			<rect x="98.765" y="36.803" transform="matrix(0.3828 0.9238 -0.9238 0.3828 100.8154 -68.4292)" fill="#3A3A3A" width="5.712" height="8.868"/>
		
			<rect x="19.576" y="64.937" transform="matrix(0.402 0.9157 -0.9157 0.402 81.024 23.6174)" fill="#3A3A3A" width="5.712" height="17.8"/>
		
			<rect x="74.384" y="12.422" transform="matrix(0.9238 0.3828 -0.3828 0.9238 12.3364 -28.2844)" fill="#3A3A3A" width="5.712" height="8.868"/>
		
			<rect x="13.945" y="38.381" transform="matrix(0.9239 0.3827 -0.3827 0.9239 17.1794 -3.8943)" fill="#3A3A3A" width="8.868" height="5.712"/>
		<circle fill="#3A3A3A" cx="60" cy="58.835" r="9.045"/>
		
			<rect x="28.722" y="45.839" transform="matrix(0.8098 0.5867 -0.5867 0.8098 37.3189 -17.7292)" fill="#3A3A3A" width="34.565" height="5.712"/>
	</g>
</g>
<g id="active">
	<g>
		<path fill="#3A3A3A" d="M52.835,104.691c-20.79-3.216-37.173-20.444-39.059-41.623C11.2,34.154,35.32,10.034,64.233,12.61
			c22.165,1.974,40.014,19.822,41.991,41.987c1.08,12.112-2.537,23.373-9.216,32.193l2.999,5.411
			c6.618-7.917,10.943-17.805,11.906-28.609c2.895-32.473-24.196-59.565-56.67-56.671C30.351,9.139,10.305,29.185,8.086,54.078
			c-2.438,27.357,16.406,50.89,41.819,55.898L52.835,104.691z"/>
		<polygon fill-rule="evenodd" clip-rule="evenodd" fill="#3A3A3A" points="103.353,113.467 79.883,103.563 56.415,113.467 
			79.883,71.129 103.353,113.467 		"/>
		<rect x="57.144" y="8.993" fill="#3A3A3A" width="5.712" height="9.854"/>
		
			<rect x="97.309" y="49.195" transform="matrix(0.0039 1 -1 0.0039 158.2872 -41.8803)" fill="#3A3A3A" width="5.713" height="18.637"/>
		<rect x="10.516" y="55.621" fill="#3A3A3A" width="8.867" height="5.712"/>
		
			<rect x="89" y="22.188" transform="matrix(0.7071 0.7071 -0.7071 0.7071 45.7287 -57.1545)" fill="#3A3A3A" width="5.712" height="8.868"/>
		
			<rect x="23.711" y="23.766" transform="matrix(0.7071 0.7071 -0.7071 0.7071 27.0662 -12.1039)" fill="#3A3A3A" width="8.867" height="5.713"/>
		
			<rect x="38.326" y="14" transform="matrix(0.3827 0.9239 -0.9239 0.3827 41.9698 -29.0991)" fill="#3A3A3A" width="8.868" height="5.712"/>
		
			<rect x="98.765" y="36.803" transform="matrix(0.3828 0.9238 -0.9238 0.3828 100.8154 -68.4292)" fill="#3A3A3A" width="5.712" height="8.868"/>
		
			<rect x="19.576" y="64.937" transform="matrix(0.402 0.9157 -0.9157 0.402 81.024 23.6174)" fill="#3A3A3A" width="5.712" height="17.8"/>
		
			<rect x="74.384" y="12.422" transform="matrix(0.9238 0.3828 -0.3828 0.9238 12.3364 -28.2844)" fill="#3A3A3A" width="5.712" height="8.868"/>
		
			<rect x="13.945" y="38.381" transform="matrix(0.9239 0.3827 -0.3827 0.9239 17.1794 -3.8943)" fill="#3A3A3A" width="8.868" height="5.712"/>
		<circle fill="#3A3A3A" cx="60" cy="58.835" r="9.045"/>
		
			<rect x="28.722" y="45.839" transform="matrix(0.8098 0.5867 -0.5867 0.8098 37.3189 -17.7292)" fill="#3A3A3A" width="34.565" height="5.712"/>
	</g>
</g>
<g id="disabled" opacity="0.2">
	<g>
		<path fill="#3A3A3A" d="M52.835,104.691c-20.79-3.216-37.173-20.444-39.059-41.623C11.2,34.154,35.32,10.034,64.233,12.61
			c22.165,1.974,40.014,19.822,41.991,41.987c1.08,12.112-2.537,23.373-9.216,32.193l2.999,5.411
			c6.618-7.917,10.943-17.805,11.906-28.609c2.895-32.473-24.196-59.565-56.67-56.671C30.351,9.139,10.305,29.185,8.086,54.078
			c-2.438,27.357,16.406,50.89,41.819,55.898L52.835,104.691z"/>
		<polygon fill-rule="evenodd" clip-rule="evenodd" fill="#3A3A3A" points="103.353,113.467 79.883,103.563 56.415,113.467 
			79.883,71.129 103.353,113.467 		"/>
		<rect x="57.144" y="8.993" fill="#3A3A3A" width="5.712" height="9.854"/>
		
			<rect x="97.309" y="49.195" transform="matrix(0.0039 1 -1 0.0039 158.2872 -41.8803)" fill="#3A3A3A" width="5.713" height="18.637"/>
		<rect x="10.516" y="55.621" fill="#3A3A3A" width="8.867" height="5.712"/>
		
			<rect x="89" y="22.188" transform="matrix(0.7071 0.7071 -0.7071 0.7071 45.7287 -57.1545)" fill="#3A3A3A" width="5.712" height="8.868"/>
		
			<rect x="23.711" y="23.766" transform="matrix(0.7071 0.7071 -0.7071 0.7071 27.0662 -12.1039)" fill="#3A3A3A" width="8.867" height="5.713"/>
		
			<rect x="38.326" y="14" transform="matrix(0.3827 0.9239 -0.9239 0.3827 41.9698 -29.0991)" fill="#3A3A3A" width="8.868" height="5.712"/>
		
			<rect x="98.765" y="36.803" transform="matrix(0.3828 0.9238 -0.9238 0.3828 100.8154 -68.4292)" fill="#3A3A3A" width="5.712" height="8.868"/>
		
			<rect x="19.576" y="64.937" transform="matrix(0.402 0.9157 -0.9157 0.402 81.024 23.6174)" fill="#3A3A3A" width="5.712" height="17.8"/>
		
			<rect x="74.384" y="12.422" transform="matrix(0.9238 0.3828 -0.3828 0.9238 12.3364 -28.2844)" fill="#3A3A3A" width="5.712" height="8.868"/>
		
			<rect x="13.945" y="38.381" transform="matrix(0.9239 0.3827 -0.3827 0.9239 17.1794 -3.8943)" fill="#3A3A3A" width="8.868" height="5.712"/>
		<circle fill="#3A3A3A" cx="60" cy="58.835" r="9.045"/>
		
			<rect x="28.722" y="45.839" transform="matrix(0.8098 0.5867 -0.5867 0.8098 37.3189 -17.7292)" fill="#3A3A3A" width="34.565" height="5.712"/>
	</g>
</g>
</svg>
