<?xml version="1.0" encoding="iso-8859-1"?>
<!-- Generator: Adobe Illustrator 17.1.0, SVG Export Plug-In . SVG Version: 6.00 Build 0)  -->
<!DOCTYPE svg PUBLIC "-//W3C//DTD SVG 1.1//EN" "http://www.w3.org/Graphics/SVG/1.1/DTD/svg11.dtd">
<svg version="1.1" xmlns="http://www.w3.org/2000/svg" xmlns:xlink="http://www.w3.org/1999/xlink" x="0px" y="0px" width="120px"
	 height="120px" viewBox="-36 -36 120 120" enable-background="new -36 -36 120 120" xml:space="preserve">
<g id="Layer_2" display="none">
	<circle display="inline" opacity="0.5" fill="#DF1F26" cx="24" cy="24" r="60"/>
	<rect x="-29.5" y="-29.5" display="inline" opacity="0.5" fill="#3B4FA1" width="107" height="107"/>
</g>
<g id="normal">
	<path fill="#3A3A3A" d="M-3.561-23.033c-1.481-1.478-1.481-3.875,0-5.356s3.881-1.481,5.362,0l49.759,49.757
		c1.481,1.481,1.481,3.878,0,5.359c-1.478,1.481-3.881,1.481-5.362,0L-3.561-23.033L-3.561-23.033z M-3.561,76.389
		c-1.481-1.478-1.481-3.881,0-5.356l49.759-49.76c1.481-1.481,3.881-1.481,5.362,0c1.481,1.478,1.481,3.878,0,5.359L1.801,76.389
		C0.32,77.87-2.079,77.87-3.561,76.389L-3.561,76.389z"/>
</g>
<g id="active">
	<path fill="#3A3A3A" d="M-3.561-23.033c-1.481-1.478-1.481-3.875,0-5.356s3.881-1.481,5.362,0l49.759,49.757
		c1.481,1.481,1.481,3.878,0,5.359c-1.478,1.481-3.881,1.481-5.362,0L-3.561-23.033L-3.561-23.033z M-3.561,76.389
		c-1.481-1.478-1.481-3.881,0-5.356l49.759-49.76c1.481-1.481,3.881-1.481,5.362,0c1.481,1.478,1.481,3.878,0,5.359L1.801,76.389
		C0.32,77.87-2.079,77.87-3.561,76.389L-3.561,76.389z"/>
</g>
<g id="disabled" opacity="0.2">
	<path fill="#3A3A3A" d="M-3.561-23.033c-1.481-1.478-1.481-3.875,0-5.356s3.881-1.481,5.362,0l49.759,49.757
		c1.481,1.481,1.481,3.878,0,5.359c-1.478,1.481-3.881,1.481-5.362,0L-3.561-23.033L-3.561-23.033z M-3.561,76.389
		c-1.481-1.478-1.481-3.881,0-5.356l49.759-49.76c1.481-1.481,3.881-1.481,5.362,0c1.481,1.478,1.481,3.878,0,5.359L1.801,76.389
		C0.32,77.87-2.079,77.87-3.561,76.389L-3.561,76.389z"/>
</g>
</svg>
