<?xml version="1.0" encoding="utf-8"?>
<!-- Generator: Adobe Illustrator 16.0.2, SVG Export Plug-In . SVG Version: 6.00 Build 0)  -->
<!DOCTYPE svg PUBLIC "-//W3C//DTD SVG 1.1//EN" "http://www.w3.org/Graphics/SVG/1.1/DTD/svg11.dtd">
<svg version="1.1" id="Layer_1" xmlns="http://www.w3.org/2000/svg" xmlns:xlink="http://www.w3.org/1999/xlink" x="0px" y="0px"
	 width="132px" height="132px" viewBox="0 0 132 132" enable-background="new 0 0 132 132" xml:space="preserve">
<g>
	<path fill="#FFFFFF" d="M65,130c-35.841,0-65-29.158-65-65C0,29.159,29.159,0,65,0c35.842,0,65,29.159,65,65
		C130,100.842,100.842,130,65,130z"/>
	<path fill="#888888" d="M65,3.256c34.105,0,61.753,27.643,61.753,61.744c0,34.1-27.647,61.742-61.753,61.742
		C30.895,126.742,3.247,99.1,3.247,65C3.247,30.899,30.893,3.256,65,3.256L65,3.256z"/>
	<path fill="#FFFFFF" d="M31.648,98.284C22.753,89.392,17.855,77.569,17.855,65s4.898-24.392,13.793-33.285
		C40.554,22.811,52.396,17.908,65,17.908c12.602,0,24.445,4.903,33.351,13.808c8.896,8.892,13.794,20.714,13.794,33.285
		c0,12.57-4.897,24.392-13.794,33.284c-8.904,8.905-20.747,13.81-33.351,13.81S40.554,107.188,31.648,98.284"/>
</g>
<g id="g2578">
	<path id="path1426" fill="#3A3A3A" d="M43.813,43.621c-6.185,0.155-11.229,2.421-14.292,6.434
		c-3.099,4.042-4.362,8.68-4.362,16.235c0,7.146,1.116,11.59,3.772,14.928c3.026,3.865,8.485,6.155,14.685,6.155
		c10.407,0,17.484-6.207,17.484-15.228c0-7.966-6.2-13.47-15.205-13.47c-4.282,0-7.156,0.986-10.403,3.68
		c0.221-4.393,0.228-4.387,0.671-6.145c0.959-3.749,3.909-5.971,8.042-5.971c3.321,0,5.094,1.056,6.423,3.691h9.593
		c-0.517-2.694-1.182-4.043-2.511-5.566c-2.731-2.987-7.532-4.745-13.216-4.745C44.268,43.621,44.039,43.616,43.813,43.621z
		 M44.334,64.37c0.056-0.001,0.118,0,0.174,0c4.797,0,7.893,2.988,7.893,7.557c0,4.451-3.398,7.671-7.974,7.671
		c-4.723,0-7.973-3.105-7.973-7.498C36.454,67.584,39.628,64.442,44.334,64.37z"/>
</g>
<g id="g2259">
	<path id="text2238" fill="#3A3A3A" d="M93.168,64.575c0-5.272-0.555-8.981-1.664-11.128c-1.088-2.166-2.93-3.248-5.524-3.248
		s-4.447,1.082-5.556,3.248c-1.109,2.146-1.664,5.856-1.664,11.128c0,5.33,0.555,9.085,1.664,11.271
		c1.108,2.184,2.961,3.275,5.556,3.275c2.573,0,4.415-1.092,5.524-3.275C92.613,73.66,93.168,69.905,93.168,64.575 M105.252,64.66
		c0,6.986-1.673,12.381-5.021,16.185c-3.349,3.784-8.099,5.677-14.251,5.677c-6.173,0-10.935-1.893-14.283-5.677
		c-3.348-3.804-5.021-9.198-5.021-16.185c0-7.005,1.674-12.399,5.021-16.184c3.349-3.804,8.11-5.706,14.283-5.706
		c6.152,0,10.902,1.901,14.251,5.706C103.579,52.261,105.252,57.655,105.252,64.66"/>
</g>
</svg>
