<?xml version="1.0" encoding="utf-8"?>
<!-- Generator: Adobe Illustrator 17.0.1, SVG Export Plug-In . SVG Version: 6.00 Build 0)  -->
<!DOCTYPE svg PUBLIC "-//W3C//DTD SVG 1.1//EN" "http://www.w3.org/Graphics/SVG/1.1/DTD/svg11.dtd">
<svg version="1.1" xmlns="http://www.w3.org/2000/svg" xmlns:xlink="http://www.w3.org/1999/xlink" x="0px" y="0px" width="114px"
	 height="114px" viewBox="0 0 114 114" enable-background="new 0 0 114 114" xml:space="preserve">
<g id="normal">
	<path fill="#3A3A3A" d="M73.874,89.329c-1.224,1.248-3.209,1.248-4.433,0L40.126,59.221c-1.225-1.248-1.225-3.274,0-4.521
		c1.224-1.249,3.209-1.249,4.433,0l29.314,30.107C75.099,86.055,75.099,88.08,73.874,89.329L73.874,89.329z M73.874,29.194
		L44.559,59.301c-1.224,1.249-3.209,1.249-4.433,0c-1.225-1.248-1.225-3.272,0-4.521l29.314-30.108c1.224-1.248,3.209-1.248,4.433,0
		C75.099,25.92,75.099,27.945,73.874,29.194L73.874,29.194z"/>
</g>
<g id="active">
	<path fill="#3A3A3A" d="M73.874,89.329c-1.224,1.248-3.209,1.248-4.433,0L40.126,59.221c-1.225-1.248-1.225-3.274,0-4.521
		c1.224-1.249,3.209-1.249,4.433,0l29.314,30.107C75.099,86.055,75.099,88.08,73.874,89.329L73.874,89.329z M73.874,29.194
		L44.559,59.301c-1.224,1.249-3.209,1.249-4.433,0c-1.225-1.248-1.225-3.272,0-4.521l29.314-30.108c1.224-1.248,3.209-1.248,4.433,0
		C75.099,25.92,75.099,27.945,73.874,29.194L73.874,29.194z"/>
</g>
<g id="disabled" opacity="0.6">
	<path fill="#3A3A3A" d="M73.874,89.329c-1.224,1.248-3.209,1.248-4.433,0L40.126,59.221c-1.225-1.248-1.225-3.274,0-4.521
		c1.224-1.249,3.209-1.249,4.433,0l29.314,30.107C75.099,86.055,75.099,88.08,73.874,89.329L73.874,89.329z M73.874,29.194
		L44.559,59.301c-1.224,1.249-3.209,1.249-4.433,0c-1.225-1.248-1.225-3.272,0-4.521l29.314-30.108c1.224-1.248,3.209-1.248,4.433,0
		C75.099,25.92,75.099,27.945,73.874,29.194L73.874,29.194z"/>
</g>
</svg>
