<?xml version="1.0" encoding="iso-8859-1"?>
<!-- Generator: Adobe Illustrator 17.1.0, SVG Export Plug-In . SVG Version: 6.00 Build 0)  -->
<!DOCTYPE svg PUBLIC "-//W3C//DTD SVG 1.1//EN" "http://www.w3.org/Graphics/SVG/1.1/DTD/svg11.dtd">
<svg version="1.1" xmlns="http://www.w3.org/2000/svg" xmlns:xlink="http://www.w3.org/1999/xlink" x="0px" y="0px" width="120px"
	 height="120px" viewBox="0 0 120 120" enable-background="new 0 0 120 120" xml:space="preserve">
<g id="Layer_2" display="none">
	<circle display="inline" opacity="0.5" fill="#DF1F26" cx="60" cy="60" r="60"/>
	<rect x="6.5" y="6.5" display="inline" opacity="0.5" fill="#3B4FA1" width="107" height="107"/>
</g>
<g id="normal">
	<polygon fill="#3A3A3A" points="93.055,111.672 59.994,88.441 26.927,111.358 38.357,72.394 6.5,47.488 46.627,46.638 
		60.005,8.328 73.375,46.765 113.5,47.993 81.638,72.602 	"/>
</g>
<g id="active">
	<polygon fill="#3A3A3A" points="93.055,111.672 59.994,88.441 26.927,111.358 38.357,72.394 6.5,47.488 46.627,46.638 
		60.005,8.328 73.375,46.765 113.5,47.993 81.638,72.602 	"/>
</g>
<g id="disabled" opacity="0.2">
	<polygon fill="#3A3A3A" points="93.055,111.672 59.994,88.441 26.927,111.358 38.357,72.394 6.5,47.488 46.627,46.638 
		60.005,8.328 73.375,46.765 113.5,47.993 81.638,72.602 	"/>
</g>
</svg>
