<?xml version="1.0" encoding="iso-8859-1"?>
<!-- Generator: Adobe Illustrator 17.1.0, SVG Export Plug-In . SVG Version: 6.00 Build 0)  -->
<!DOCTYPE svg PUBLIC "-//W3C//DTD SVG 1.1//EN" "http://www.w3.org/Graphics/SVG/1.1/DTD/svg11.dtd">
<svg version="1.1" xmlns="http://www.w3.org/2000/svg" xmlns:xlink="http://www.w3.org/1999/xlink" x="0px" y="0px" width="120px"
	 height="120px" viewBox="0 0 120 120" enable-background="new 0 0 120 120" xml:space="preserve">
<g id="Layer_2" display="none">
	<circle display="inline" opacity="0.5" fill="#DF1F26" cx="60" cy="60" r="60"/>
	<rect x="6.5" y="6.5" display="inline" opacity="0.5" fill="#3B4FA1" width="107" height="107"/>
</g>
<g id="normal">
	<path fill-rule="evenodd" clip-rule="evenodd" fill="#3A3A3A" d="M103.309,11.594c0,0-0.002,48.007,0,75.358l-20.621-0.001
		c-3.274-0.001-5.929,2.738-5.929,6.114l0.001,20.434l-54.975,0c-2.814-0.001-5.096-2.282-5.095-5.096l-0.001-96.81
		C16.69,8.781,18.971,6.501,21.785,6.5l76.429,0C101.027,6.499,103.309,8.781,103.309,11.594L103.309,11.594z M31.531,74.746
		l0.018,1.346c0.01,0.743,0.593,1.354,1.302,1.364l51.354,0.713c0.709,0.01,1.276-0.585,1.266-1.328l-0.018-1.346
		c-0.01-0.743-0.593-1.353-1.302-1.362l-51.355-0.714C32.088,73.408,31.521,74.003,31.531,74.746L31.531,74.746z M41.083,35.862
		l-8.785-0.121c-0.709-0.01-1.276,0.585-1.266,1.328l0.427,32.295c0.01,0.743,0.593,1.354,1.302,1.364l8.785,0.121
		c0.709,0.01,1.275-0.584,1.266-1.328l-0.429-32.295C42.374,36.483,41.792,35.872,41.083,35.862L41.083,35.862z M55.094,22.603
		l-8.783-0.122c-0.709-0.01-1.276,0.585-1.266,1.328l0.605,45.752c0.01,0.743,0.593,1.354,1.302,1.364l8.785,0.121
		c0.709,0.01,1.275-0.584,1.266-1.328l-0.607-45.751C56.386,23.223,55.803,22.612,55.094,22.603L55.094,22.603z M69.57,44.331
		l-8.785-0.123c-0.708-0.01-1.275,0.584-1.265,1.327l0.32,24.223c0.01,0.743,0.593,1.353,1.302,1.362l8.785,0.123
		c0.708,0.01,1.275-0.584,1.266-1.328l-0.322-24.222C70.862,44.95,70.28,44.341,69.57,44.331L69.57,44.331z M83.405,17.615
		l-8.785-0.123c-0.709-0.01-1.276,0.585-1.266,1.328l0.678,51.135c0.01,0.743,0.593,1.353,1.302,1.362l8.785,0.123
		c0.708,0.01,1.275-0.584,1.265-1.327l-0.678-51.135C84.695,18.234,84.114,17.625,83.405,17.615L83.405,17.615z M85.322,90.571
		l12.917,0.001l-17.858,17.833l0.001-12.737C80.38,92.852,82.592,90.571,85.322,90.571L85.322,90.571z"/>
</g>
<g id="active">
	<path fill-rule="evenodd" clip-rule="evenodd" fill="#3A3A3A" d="M103.309,11.594c0,0-0.002,48.007,0,75.358l-20.621-0.001
		c-3.274-0.001-5.929,2.738-5.929,6.114l0.001,20.434l-54.975,0c-2.814-0.001-5.096-2.282-5.095-5.096l-0.001-96.81
		C16.69,8.781,18.971,6.501,21.785,6.5l76.429,0C101.027,6.499,103.309,8.781,103.309,11.594L103.309,11.594z M31.531,74.746
		l0.018,1.346c0.01,0.743,0.593,1.354,1.302,1.364l51.354,0.713c0.709,0.01,1.276-0.585,1.266-1.328l-0.018-1.346
		c-0.01-0.743-0.593-1.353-1.302-1.362l-51.355-0.714C32.088,73.408,31.521,74.003,31.531,74.746L31.531,74.746z M41.083,35.862
		l-8.785-0.121c-0.709-0.01-1.276,0.585-1.266,1.328l0.427,32.295c0.01,0.743,0.593,1.354,1.302,1.364l8.785,0.121
		c0.709,0.01,1.275-0.584,1.266-1.328l-0.429-32.295C42.374,36.483,41.792,35.872,41.083,35.862L41.083,35.862z M55.094,22.603
		l-8.783-0.122c-0.709-0.01-1.276,0.585-1.266,1.328l0.605,45.752c0.01,0.743,0.593,1.354,1.302,1.364l8.785,0.121
		c0.709,0.01,1.275-0.584,1.266-1.328l-0.607-45.751C56.386,23.223,55.803,22.612,55.094,22.603L55.094,22.603z M69.57,44.331
		l-8.785-0.123c-0.708-0.01-1.275,0.584-1.265,1.327l0.32,24.223c0.01,0.743,0.593,1.353,1.302,1.362l8.785,0.123
		c0.708,0.01,1.275-0.584,1.266-1.328l-0.322-24.222C70.862,44.95,70.28,44.341,69.57,44.331L69.57,44.331z M83.405,17.615
		l-8.785-0.123c-0.709-0.01-1.276,0.585-1.266,1.328l0.678,51.135c0.01,0.743,0.593,1.353,1.302,1.362l8.785,0.123
		c0.708,0.01,1.275-0.584,1.265-1.327l-0.678-51.135C84.695,18.234,84.114,17.625,83.405,17.615L83.405,17.615z M85.322,90.571
		l12.917,0.001l-17.858,17.833l0.001-12.737C80.38,92.852,82.592,90.571,85.322,90.571L85.322,90.571z"/>
</g>
<g id="disabled" opacity="0.2">
	<path fill-rule="evenodd" clip-rule="evenodd" fill="#3A3A3A" d="M103.309,11.594c0,0-0.002,48.007,0,75.358l-20.621-0.001
		c-3.274-0.001-5.929,2.738-5.929,6.114l0.001,20.434l-54.975,0c-2.814-0.001-5.096-2.282-5.095-5.096l-0.001-96.81
		C16.69,8.781,18.971,6.501,21.785,6.5l76.429,0C101.027,6.499,103.309,8.781,103.309,11.594L103.309,11.594z M31.531,74.746
		l0.018,1.346c0.01,0.743,0.593,1.354,1.302,1.364l51.354,0.713c0.709,0.01,1.276-0.585,1.266-1.328l-0.018-1.346
		c-0.01-0.743-0.593-1.353-1.302-1.362l-51.355-0.714C32.088,73.408,31.521,74.003,31.531,74.746L31.531,74.746z M41.083,35.862
		l-8.785-0.121c-0.709-0.01-1.276,0.585-1.266,1.328l0.427,32.295c0.01,0.743,0.593,1.354,1.302,1.364l8.785,0.121
		c0.709,0.01,1.275-0.584,1.266-1.328l-0.429-32.295C42.374,36.483,41.792,35.872,41.083,35.862L41.083,35.862z M55.094,22.603
		l-8.783-0.122c-0.709-0.01-1.276,0.585-1.266,1.328l0.605,45.752c0.01,0.743,0.593,1.354,1.302,1.364l8.785,0.121
		c0.709,0.01,1.275-0.584,1.266-1.328l-0.607-45.751C56.386,23.223,55.803,22.612,55.094,22.603L55.094,22.603z M69.57,44.331
		l-8.785-0.123c-0.708-0.01-1.275,0.584-1.265,1.327l0.32,24.223c0.01,0.743,0.593,1.353,1.302,1.362l8.785,0.123
		c0.708,0.01,1.275-0.584,1.266-1.328l-0.322-24.222C70.862,44.95,70.28,44.341,69.57,44.331L69.57,44.331z M83.405,17.615
		l-8.785-0.123c-0.709-0.01-1.276,0.585-1.266,1.328l0.678,51.135c0.01,0.743,0.593,1.353,1.302,1.362l8.785,0.123
		c0.708,0.01,1.275-0.584,1.265-1.327l-0.678-51.135C84.695,18.234,84.114,17.625,83.405,17.615L83.405,17.615z M85.322,90.571
		l12.917,0.001l-17.858,17.833l0.001-12.737C80.38,92.852,82.592,90.571,85.322,90.571L85.322,90.571z"/>
</g>
</svg>
