<?xml version="1.0" encoding="iso-8859-1"?>
<!-- Generator: Adobe Illustrator 17.1.0, SVG Export Plug-In . SVG Version: 6.00 Build 0)  -->
<!DOCTYPE svg PUBLIC "-//W3C//DTD SVG 1.1//EN" "http://www.w3.org/Graphics/SVG/1.1/DTD/svg11.dtd">
<svg version="1.1" xmlns="http://www.w3.org/2000/svg" xmlns:xlink="http://www.w3.org/1999/xlink" x="0px" y="0px" width="120px"
	 height="120px" viewBox="-3 -3 120 120" enable-background="new -3 -3 120 120" xml:space="preserve">
<g id="Layer_2" display="none">
	<circle display="inline" opacity="0.5" fill="#DF1F26" cx="57" cy="57" r="60"/>
	<rect x="3.5" y="3.5" display="inline" opacity="0.5" fill="#3B4FA1" width="107" height="107"/>
</g>
<g id="normal">
</g>
<g id="active">
	<path fill="#3A3A3A" d="M20.322,61.525c-3.846,3.848-10.088,3.848-13.937,0c-3.846-3.846-3.846-10.085,0-13.934
		c3.849-3.846,10.091-3.846,13.937,0C24.171,51.443,24.171,57.68,20.322,61.525L20.322,61.525z M109.436,23.762
		c-1.702,2.161-65.687,75.012-65.687,75.012L6.376,61.413l14.012-14.015l23.361,23.35c0,0,56.006-52.337,58.173-54.195
		c2.161-1.858,5.018-1.714,6.917,0.107C110.697,18.446,111.136,21.596,109.436,23.762L109.436,23.762z"/>
</g>
</svg>
