<?xml version="1.0" encoding="iso-8859-1"?>
<!-- Generator: Adobe Illustrator 17.1.0, SVG Export Plug-In . SVG Version: 6.00 Build 0)  -->
<!DOCTYPE svg PUBLIC "-//W3C//DTD SVG 1.1//EN" "http://www.w3.org/Graphics/SVG/1.1/DTD/svg11.dtd">
<svg version="1.1" xmlns="http://www.w3.org/2000/svg" xmlns:xlink="http://www.w3.org/1999/xlink" x="0px" y="0px" width="120px"
	 height="120px" viewBox="0 0 120 120" enable-background="new 0 0 120 120" xml:space="preserve">
<g id="Layer_4" display="none">
	<circle display="inline" opacity="0.5" fill="#DF1F26" cx="60" cy="60" r="60"/>
	<rect x="6.5" y="6.5" display="inline" opacity="0.5" fill="#3B4FA1" width="107" height="107"/>
</g>
<g id="normal">
	<path fill-rule="evenodd" clip-rule="evenodd" fill="#3A3A3A" d="M103.31,11.594c0,0-0.002,48.007,0,75.358l-20.621-0.001
		c-3.274-0.001-5.929,2.738-5.929,6.114l0.001,20.434l-54.975,0c-2.814-0.001-5.096-2.282-5.095-5.096l-0.001-96.81
		C16.69,8.781,18.971,6.501,21.785,6.5l76.429,0C101.027,6.499,103.309,8.781,103.31,11.594L103.31,11.594z M73.65,17.748
		L61.653,41.182l6.927-0.04c-0.011,0.04-0.044,0.09-0.043,0.126l0.184,28.023c-0.014,1.524-1.304,2.773-2.879,2.788l-40.586,0.37
		l8.193,8.795l40.463-0.371c1.981-0.019,3.602-1.588,3.62-3.506l0.934-36.279l6.915-0.04L73.65,17.748L73.65,17.748z M85.322,90.571
		l12.917,0.001l-17.858,17.833l0.001-12.737C80.38,92.852,82.592,90.571,85.322,90.571L85.322,90.571z"/>
</g>
<g id="active">
	<path fill-rule="evenodd" clip-rule="evenodd" fill="#3A3A3A" d="M103.31,11.594c0,0-0.002,48.007,0,75.358l-20.621-0.001
		c-3.274-0.001-5.929,2.738-5.929,6.114l0.001,20.434l-54.975,0c-2.814-0.001-5.096-2.282-5.095-5.096l-0.001-96.81
		C16.69,8.781,18.971,6.501,21.785,6.5l76.429,0C101.027,6.499,103.309,8.781,103.31,11.594L103.31,11.594z M73.65,17.748
		L61.653,41.182l6.927-0.04c-0.011,0.04-0.044,0.09-0.043,0.126l0.184,28.023c-0.014,1.524-1.304,2.773-2.879,2.788l-40.586,0.37
		l8.193,8.795l40.463-0.371c1.981-0.019,3.602-1.588,3.62-3.506l0.934-36.279l6.915-0.04L73.65,17.748L73.65,17.748z M85.322,90.571
		l12.917,0.001l-17.858,17.833l0.001-12.737C80.38,92.852,82.592,90.571,85.322,90.571L85.322,90.571z"/>
</g>
<g id="disabled" opacity="0.2">
	<path fill-rule="evenodd" clip-rule="evenodd" fill="#3A3A3A" d="M103.31,11.594c0,0-0.002,48.007,0,75.358l-20.621-0.001
		c-3.274-0.001-5.929,2.738-5.929,6.114l0.001,20.434l-54.975,0c-2.814-0.001-5.096-2.282-5.095-5.096l-0.001-96.81
		C16.69,8.781,18.971,6.501,21.785,6.5l76.429,0C101.027,6.499,103.309,8.781,103.31,11.594L103.31,11.594z M73.65,17.748
		L61.653,41.182l6.927-0.04c-0.011,0.04-0.044,0.09-0.043,0.126l0.184,28.023c-0.014,1.524-1.304,2.773-2.879,2.788l-40.586,0.37
		l8.193,8.795l40.463-0.371c1.981-0.019,3.602-1.588,3.62-3.506l0.934-36.279l6.915-0.04L73.65,17.748L73.65,17.748z M85.322,90.571
		l12.917,0.001l-17.858,17.833l0.001-12.737C80.38,92.852,82.592,90.571,85.322,90.571L85.322,90.571z"/>
</g>
</svg>
