<?xml version="1.0" encoding="iso-8859-1"?>
<!-- Generator: Adobe Illustrator 17.1.0, SVG Export Plug-In . SVG Version: 6.00 Build 0)  -->
<!DOCTYPE svg PUBLIC "-//W3C//DTD SVG 1.1//EN" "http://www.w3.org/Graphics/SVG/1.1/DTD/svg11.dtd">
<svg version="1.1" xmlns="http://www.w3.org/2000/svg" xmlns:xlink="http://www.w3.org/1999/xlink" x="0px" y="0px" width="120px"
	 height="120px" viewBox="0 0 120 120" enable-background="new 0 0 120 120" xml:space="preserve">
<g id="Layer_4" display="none">
	<circle display="inline" opacity="0.5" fill="#DF1F26" cx="60" cy="60" r="60"/>
	<rect x="6.5" y="6.5" display="inline" opacity="0.5" fill="#3B4FA1" width="107" height="107"/>
</g>
<g id="normal">
	<path fill-rule="evenodd" clip-rule="evenodd" fill="#3A3A3A" d="M102.797,85.934v6.397c0,5.688-3.192,5.708-7.131,5.708
		c-3.941,0-7.133,0.457-7.133-5.708v-6.181H31.468v6.181c0,5.688-3.192,5.708-7.133,5.708c-3.939,0-7.131,0.457-7.131-5.708v-6.397
		c-3.888-1.077-4.755-6.186-4.755-10.797v-7.758c0-3.934,0.632-8.234,3.229-10.082c-0.037-0.277-0.059-0.584-0.059-0.93
		l12.68-25.029c0-5.183,7.428-9.386,12.68-9.386h38.043c5.252,0,12.68,4.202,12.68,9.386l12.68,25.029
		c0,0.346-0.022,0.653-0.059,0.93c2.597,1.847,3.229,6.147,3.229,10.082v7.758C107.552,79.749,106.685,84.857,102.797,85.934
		L102.797,85.934z M21.957,70.695c0,4.597,3.726,8.323,8.323,8.323c4.595,0,8.321-3.726,8.321-8.323
		c0-4.595-3.726-8.321-8.321-8.321C25.683,62.374,21.957,66.1,21.957,70.695L21.957,70.695z M79.021,28.211H40.979
		c-8.457,0-15.85,26.369-15.85,26.369h69.743C94.872,54.58,87.479,28.211,79.021,28.211L79.021,28.211z M87.342,62.374
		c-4.595,0-8.321,3.726-8.321,8.321c0,4.597,3.726,8.323,8.321,8.323c4.597,0,8.323-3.726,8.323-8.323
		C95.665,66.1,91.939,62.374,87.342,62.374L87.342,62.374z"/>
</g>
<g id="active">
	<path fill-rule="evenodd" clip-rule="evenodd" fill="#3A3A3A" d="M102.797,85.934v6.397c0,5.688-3.192,5.708-7.131,5.708
		c-3.941,0-7.133,0.457-7.133-5.708v-6.181H31.468v6.181c0,5.688-3.192,5.708-7.133,5.708c-3.939,0-7.131,0.457-7.131-5.708v-6.397
		c-3.888-1.077-4.755-6.186-4.755-10.797v-7.758c0-3.934,0.632-8.234,3.229-10.082c-0.037-0.277-0.059-0.584-0.059-0.93
		l12.68-25.029c0-5.183,7.428-9.386,12.68-9.386h38.043c5.252,0,12.68,4.202,12.68,9.386l12.68,25.029
		c0,0.346-0.022,0.653-0.059,0.93c2.597,1.847,3.229,6.147,3.229,10.082v7.758C107.552,79.749,106.685,84.857,102.797,85.934
		L102.797,85.934z M21.957,70.695c0,4.597,3.726,8.323,8.323,8.323c4.595,0,8.321-3.726,8.321-8.323
		c0-4.595-3.726-8.321-8.321-8.321C25.683,62.374,21.957,66.1,21.957,70.695L21.957,70.695z M79.021,28.211H40.979
		c-8.457,0-15.85,26.369-15.85,26.369h69.743C94.872,54.58,87.479,28.211,79.021,28.211L79.021,28.211z M87.342,62.374
		c-4.595,0-8.321,3.726-8.321,8.321c0,4.597,3.726,8.323,8.321,8.323c4.597,0,8.323-3.726,8.323-8.323
		C95.665,66.1,91.939,62.374,87.342,62.374L87.342,62.374z"/>
</g>
<g id="disabled" opacity="0.2">
	<path fill-rule="evenodd" clip-rule="evenodd" fill="#3A3A3A" d="M102.797,85.934v6.397c0,5.688-3.192,5.708-7.131,5.708
		c-3.941,0-7.133,0.457-7.133-5.708v-6.181H31.468v6.181c0,5.688-3.192,5.708-7.133,5.708c-3.939,0-7.131,0.457-7.131-5.708v-6.397
		c-3.888-1.077-4.755-6.186-4.755-10.797v-7.758c0-3.934,0.632-8.234,3.229-10.082c-0.037-0.277-0.059-0.584-0.059-0.93
		l12.68-25.029c0-5.183,7.428-9.386,12.68-9.386h38.043c5.252,0,12.68,4.202,12.68,9.386l12.68,25.029
		c0,0.346-0.022,0.653-0.059,0.93c2.597,1.847,3.229,6.147,3.229,10.082v7.758C107.552,79.749,106.685,84.857,102.797,85.934
		L102.797,85.934z M21.957,70.695c0,4.597,3.726,8.323,8.323,8.323c4.595,0,8.321-3.726,8.321-8.323
		c0-4.595-3.726-8.321-8.321-8.321C25.683,62.374,21.957,66.1,21.957,70.695L21.957,70.695z M79.021,28.211H40.979
		c-8.457,0-15.85,26.369-15.85,26.369h69.743C94.872,54.58,87.479,28.211,79.021,28.211L79.021,28.211z M87.342,62.374
		c-4.595,0-8.321,3.726-8.321,8.321c0,4.597,3.726,8.323,8.321,8.323c4.597,0,8.323-3.726,8.323-8.323
		C95.665,66.1,91.939,62.374,87.342,62.374L87.342,62.374z"/>
</g>
</svg>
