<?xml version="1.0" encoding="iso-8859-1"?>
<!-- Generator: Adobe Illustrator 17.1.0, SVG Export Plug-In . SVG Version: 6.00 Build 0)  -->
<!DOCTYPE svg PUBLIC "-//W3C//DTD SVG 1.1//EN" "http://www.w3.org/Graphics/SVG/1.1/DTD/svg11.dtd">
<svg version="1.1" xmlns="http://www.w3.org/2000/svg" xmlns:xlink="http://www.w3.org/1999/xlink" x="0px" y="0px" width="120px"
	 height="120px" viewBox="0 0 120 120" enable-background="new 0 0 120 120" xml:space="preserve">
<g id="Layer_2" display="none">
	<circle display="inline" opacity="0.5" fill="#DF1F26" cx="60" cy="60" r="60"/>
	<rect x="6.5" y="6.5" display="inline" opacity="0.5" fill="#3B4FA1" width="107" height="107"/>
</g>
<g id="normal">
	<g>
		<path fill-rule="evenodd" clip-rule="evenodd" fill="#3A3A3A" d="M88.468,73.272L71.051,8.27l6.462-1.733l18.971,70.8
			L88.468,73.272L88.468,73.272z M20.184,48.801l47.91-39.014l13.5,51.558L20.184,48.801L20.184,48.801z"/>
		<path fill="#EB6900" d="M113.5,96.01l-33.164,17.453v-11.647H37.734V90.53h42.603V78.555L113.5,96.01L113.5,96.01z M19.914,109.25
			c-7.407,0-13.414-6.005-13.414-13.412c0-7.407,6.007-13.412,13.414-13.412c7.407,0,13.412,6.005,13.412,13.412
			C33.326,103.245,27.322,109.25,19.914,109.25L19.914,109.25z"/>
	</g>
</g>
<g id="active">
	<g>
		<path fill-rule="evenodd" clip-rule="evenodd" fill="#3A3A3A" d="M88.468,73.272L71.051,8.27l6.462-1.733l18.971,70.8
			L88.468,73.272L88.468,73.272z M20.184,48.801l47.91-39.014l13.5,51.558L20.184,48.801L20.184,48.801z"/>
		<path fill="#EB6900" d="M113.5,96.01l-33.164,17.453v-11.647H37.734V90.53h42.603V78.555L113.5,96.01L113.5,96.01z M19.914,109.25
			c-7.407,0-13.414-6.005-13.414-13.412c0-7.407,6.007-13.412,13.414-13.412c7.407,0,13.412,6.005,13.412,13.412
			C33.326,103.245,27.322,109.25,19.914,109.25L19.914,109.25z"/>
	</g>
</g>
<g id="disabled" opacity="0.2">
	<g>
		<path fill-rule="evenodd" clip-rule="evenodd" fill="#3A3A3A" d="M88.468,73.272L71.051,8.27l6.462-1.733l18.971,70.8
			L88.468,73.272L88.468,73.272z M20.184,48.801l47.91-39.014l13.5,51.558L20.184,48.801L20.184,48.801z"/>
		<path fill="#EB6900" d="M113.5,96.01l-33.164,17.453v-11.647H37.734V90.53h42.603V78.555L113.5,96.01L113.5,96.01z M19.914,109.25
			c-7.407,0-13.414-6.005-13.414-13.412c0-7.407,6.007-13.412,13.414-13.412c7.407,0,13.412,6.005,13.412,13.412
			C33.326,103.245,27.322,109.25,19.914,109.25L19.914,109.25z"/>
	</g>
</g>
</svg>
