<?xml version="1.0" encoding="utf-8"?>
<!-- Generator: Adobe Illustrator 17.0.0, SVG Export Plug-In . SVG Version: 6.00 Build 0)  -->
<!DOCTYPE svg PUBLIC "-//W3C//DTD SVG 1.1//EN" "http://www.w3.org/Graphics/SVG/1.1/DTD/svg11.dtd">
<svg version="1.1" id="Layer_1" xmlns="http://www.w3.org/2000/svg" xmlns:xlink="http://www.w3.org/1999/xlink" x="0px" y="0px"
	 width="114px" height="114px" viewBox="0 0 114 114" enable-background="new 0 0 114 114" xml:space="preserve">
<path fill-rule="evenodd" clip-rule="evenodd" fill="#484747" d="M56.999,111.65C26.847,111.65,2.404,87.182,2.404,57
	S26.847,2.35,56.999,2.35c30.153,0,54.597,24.468,54.597,54.65S87.153,111.65,56.999,111.65L56.999,111.65z M53.248,34.151
	c0-1.741-1.409-3.152-3.15-3.152h-9.451c-1.739,0-3.15,1.411-3.15,3.152v47.988c0,1.742,1.411,3.153,3.15,3.153h9.451
	c1.741,0,3.15-1.411,3.15-3.153V34.151L53.248,34.151z M78.443,34.151c0-1.741-1.409-3.152-3.149-3.152h-9.452
	c-1.739,0-3.149,1.411-3.149,3.152v47.988c0,1.742,1.409,3.153,3.149,3.153h9.452c1.739,0,3.149-1.411,3.149-3.153V34.151
	L78.443,34.151z"/>
</svg>
