<?xml version="1.0" encoding="iso-8859-1"?>
<!-- Generator: Adobe Illustrator 17.1.0, SVG Export Plug-In . SVG Version: 6.00 Build 0)  -->
<!DOCTYPE svg PUBLIC "-//W3C//DTD SVG 1.1//EN" "http://www.w3.org/Graphics/SVG/1.1/DTD/svg11.dtd">
<svg version="1.1" xmlns="http://www.w3.org/2000/svg" xmlns:xlink="http://www.w3.org/1999/xlink" x="0px" y="0px" width="120px"
	 height="120px" viewBox="0 0 120 120" enable-background="new 0 0 120 120" xml:space="preserve">
<g id="Layer_2" display="none">
	<circle display="inline" opacity="0.5" fill="#DF1F26" cx="60" cy="60" r="60"/>
	<rect x="6.5" y="6.5" display="inline" opacity="0.5" fill="#3B4FA1" width="107" height="107"/>
</g>
<g id="normal">
	<path fill-rule="evenodd" clip-rule="evenodd" fill="#3A3A3A" d="M70.083,19.475l1.331,34.385
		c9.99,3.032,16.992,9.786,17.034,17.612c0.004,0.843-0.101,1.67-0.253,2.483l-20.79-0.16L60.694,113.5l-7.133-39.81l-21.762-0.168
		c-0.145-0.771-0.243-1.55-0.247-2.347c-0.041-7.811,6.865-14.483,16.796-17.417l0.801-34.465
		C41.875,16.869,36.705,12.09,36.027,6.5l47.267,0.248C82.668,12.388,77.45,17.152,70.083,19.475L70.083,19.475z"/>
</g>
<g id="active">
	<path fill-rule="evenodd" clip-rule="evenodd" fill="#3A3A3A" d="M70.083,19.475l1.331,34.385
		c9.99,3.032,16.992,9.786,17.034,17.612c0.004,0.843-0.101,1.67-0.253,2.483l-20.79-0.16L60.694,113.5l-7.133-39.81l-21.762-0.168
		c-0.145-0.771-0.243-1.55-0.247-2.347c-0.041-7.811,6.865-14.483,16.796-17.417l0.801-34.465
		C41.875,16.869,36.705,12.09,36.027,6.5l47.267,0.248C82.668,12.388,77.45,17.152,70.083,19.475L70.083,19.475z"/>
</g>
<g id="disabled" opacity="0.2">
	<path fill-rule="evenodd" clip-rule="evenodd" fill="#3A3A3A" d="M70.083,19.475l1.331,34.385
		c9.99,3.032,16.992,9.786,17.034,17.612c0.004,0.843-0.101,1.67-0.253,2.483l-20.79-0.16L60.694,113.5l-7.133-39.81l-21.762-0.168
		c-0.145-0.771-0.243-1.55-0.247-2.347c-0.041-7.811,6.865-14.483,16.796-17.417l0.801-34.465
		C41.875,16.869,36.705,12.09,36.027,6.5l47.267,0.248C82.668,12.388,77.45,17.152,70.083,19.475L70.083,19.475z"/>
</g>
</svg>
