<?xml version="1.0" encoding="iso-8859-1"?>
<!-- Generator: Adobe Illustrator 17.1.0, SVG Export Plug-In . SVG Version: 6.00 Build 0)  -->
<!DOCTYPE svg PUBLIC "-//W3C//DTD SVG 1.1//EN" "http://www.w3.org/Graphics/SVG/1.1/DTD/svg11.dtd">
<svg version="1.1" xmlns="http://www.w3.org/2000/svg" xmlns:xlink="http://www.w3.org/1999/xlink" x="0px" y="0px" width="120px"
	 height="120px" viewBox="0 0 120 120" enable-background="new 0 0 120 120" xml:space="preserve">
<g id="Layer_4" display="none">
	<circle display="inline" opacity="0.5" fill="#DF1F26" cx="62" cy="60" r="60"/>
	<rect x="8.5" y="6.5" display="inline" opacity="0.5" fill="#3B4FA1" width="107" height="107"/>
</g>
<g id="normal">
	<path fill-rule="evenodd" clip-rule="evenodd" fill="#3A3A3A" d="M61.986,113.382c-28.456,0-51.525-22.962-51.525-51.287
		c0-21.607,13.429-40.079,32.429-47.633v13.767c-11.881,6.658-19.912,19.322-19.912,33.86c0,21.452,17.47,38.843,39.02,38.843
		c21.553,0,39.022-17.391,39.022-38.843c0-14.395-7.874-26.952-19.563-33.663V14.608c18.802,7.645,32.056,26.02,32.056,47.486
		C113.513,90.42,90.445,113.382,61.986,113.382L61.986,113.382z M55.02,6.382h14.248v34.851H55.02V6.382L55.02,6.382z"/>
</g>
<g id="active">
	<path fill-rule="evenodd" clip-rule="evenodd" fill="#3A3A3A" d="M61.986,113.382c-28.456,0-51.525-22.962-51.525-51.287
		c0-21.607,13.429-40.079,32.429-47.633v13.767c-11.881,6.658-19.912,19.322-19.912,33.86c0,21.452,17.47,38.843,39.02,38.843
		c21.553,0,39.022-17.391,39.022-38.843c0-14.395-7.874-26.952-19.563-33.663V14.608c18.802,7.645,32.056,26.02,32.056,47.486
		C113.513,90.42,90.445,113.382,61.986,113.382L61.986,113.382z M55.02,6.382h14.248v34.851H55.02V6.382L55.02,6.382z"/>
</g>
<g id="disabled" opacity="0.2">
	<path fill-rule="evenodd" clip-rule="evenodd" fill="#3A3A3A" d="M61.986,113.382c-28.456,0-51.525-22.962-51.525-51.287
		c0-21.607,13.429-40.079,32.429-47.633v13.767c-11.881,6.658-19.912,19.322-19.912,33.86c0,21.452,17.47,38.843,39.02,38.843
		c21.553,0,39.022-17.391,39.022-38.843c0-14.395-7.874-26.952-19.563-33.663V14.608c18.802,7.645,32.056,26.02,32.056,47.486
		C113.513,90.42,90.445,113.382,61.986,113.382L61.986,113.382z M55.02,6.382h14.248v34.851H55.02V6.382L55.02,6.382z"/>
</g>
</svg>
