<?xml version="1.0" encoding="utf-8"?>
<!-- Generator: Adobe Illustrator 17.0.1, SVG Export Plug-In . SVG Version: 6.00 Build 0)  -->
<!DOCTYPE svg PUBLIC "-//W3C//DTD SVG 1.1//EN" "http://www.w3.org/Graphics/SVG/1.1/DTD/svg11.dtd">
<svg version="1.1" xmlns="http://www.w3.org/2000/svg" xmlns:xlink="http://www.w3.org/1999/xlink" x="0px" y="0px" width="48px"
	 height="48px" viewBox="0 0 48 48" enable-background="new 0 0 48 48" xml:space="preserve">
<g id="normal">
	<path fill="#3A3A3A" d="M40.956,33.936L23.017,15.997c-0.534-0.534-0.534-1.4,0-1.933c0.534-0.534,1.398-0.534,1.932,0
		l17.939,17.939c0.534,0.534,0.534,1.399,0,1.933S41.489,34.47,40.956,33.936L40.956,33.936z M5.113,33.936
		c-0.534-0.534-0.534-1.399,0-1.933l17.939-17.939c0.534-0.534,1.399-0.534,1.932,0c0.534,0.534,0.534,1.399,0,1.933L7.044,33.936
		C6.512,34.47,5.646,34.47,5.113,33.936L5.113,33.936z"/>
</g>
<g id="active">
	<path fill="#3A3A3A" d="M40.956,33.936L23.017,15.997c-0.534-0.534-0.534-1.4,0-1.933c0.534-0.534,1.398-0.534,1.932,0
		l17.939,17.939c0.534,0.534,0.534,1.399,0,1.933S41.489,34.47,40.956,33.936L40.956,33.936z M5.113,33.936
		c-0.534-0.534-0.534-1.399,0-1.933l17.939-17.939c0.534-0.534,1.399-0.534,1.932,0c0.534,0.534,0.534,1.399,0,1.933L7.044,33.936
		C6.512,34.47,5.646,34.47,5.113,33.936L5.113,33.936z"/>
</g>
<g id="disabled" opacity="0.6">
	<path fill="#3A3A3A" d="M40.956,33.936L23.017,15.997c-0.534-0.534-0.534-1.4,0-1.933c0.534-0.534,1.398-0.534,1.932,0
		l17.939,17.939c0.534,0.534,0.534,1.399,0,1.933S41.489,34.47,40.956,33.936L40.956,33.936z M5.113,33.936
		c-0.534-0.534-0.534-1.399,0-1.933l17.939-17.939c0.534-0.534,1.399-0.534,1.932,0c0.534,0.534,0.534,1.399,0,1.933L7.044,33.936
		C6.512,34.47,5.646,34.47,5.113,33.936L5.113,33.936z"/>
</g>
</svg>
