<?xml version="1.0" encoding="iso-8859-1"?>
<!-- Generator: Adobe Illustrator 17.1.0, SVG Export Plug-In . SVG Version: 6.00 Build 0)  -->
<!DOCTYPE svg PUBLIC "-//W3C//DTD SVG 1.1//EN" "http://www.w3.org/Graphics/SVG/1.1/DTD/svg11.dtd">
<svg version="1.1" xmlns="http://www.w3.org/2000/svg" xmlns:xlink="http://www.w3.org/1999/xlink" x="0px" y="0px" width="120px"
	 height="120px" viewBox="0 0 120 120" enable-background="new 0 0 120 120" xml:space="preserve">
<g id="Layer_4" display="none">
	<circle display="inline" opacity="0.5" fill="#DF1F26" cx="60.125" cy="60" r="60"/>
	<rect x="6.625" y="6.5" display="inline" opacity="0.5" fill="#3B4FA1" width="107" height="107"/>
</g>
<g id="normal">
	<g>
		<path fill="#3A3A3A" d="M91.372,113.046H79.941V39.707l-17.29,0.232V31.7l28.721-3.133V113.046z"/>
	</g>
	<g>
		<path fill="#3A3A3A" d="M30.877,48.197h-8.814l-2.978,16.062h-6.542l2.977-16.062H6.471v-6.189h10.225l2.272-12.262h-9.52v-6.229
			h10.695l3.056-16.297h6.542l-3.056,16.297h8.775l3.056-16.297h6.582l-3.056,16.297h8.148v6.229h-9.324l-2.272,12.262h8.658v6.189
			h-9.833l-2.978,16.062h-6.542L30.877,48.197z M23.238,42.007h8.814l2.272-12.262H25.51L23.238,42.007z"/>
	</g>
</g>
<g id="active">
	<g>
		<path fill="#3A3A3A" d="M91.372,113.046H79.941V39.707l-17.29,0.232V31.7l28.721-3.133V113.046z"/>
	</g>
	<g>
		<path fill="#3A3A3A" d="M30.877,48.197h-8.814l-2.978,16.062h-6.542l2.977-16.062H6.471v-6.189h10.225l2.272-12.262h-9.52v-6.229
			h10.695l3.056-16.297h6.542l-3.056,16.297h8.775l3.056-16.297h6.582l-3.056,16.297h8.148v6.229h-9.324l-2.272,12.262h8.658v6.189
			h-9.833l-2.978,16.062h-6.542L30.877,48.197z M23.238,42.007h8.814l2.272-12.262H25.51L23.238,42.007z"/>
	</g>
</g>
<g id="disabled" opacity="0.2">
	<g>
		<path fill="#3A3A3A" d="M91.372,113.046H79.941V39.707l-17.29,0.232V31.7l28.721-3.133V113.046z"/>
	</g>
	<g>
		<path fill="#3A3A3A" d="M30.877,48.197h-8.814l-2.978,16.062h-6.542l2.977-16.062H6.471v-6.189h10.225l2.272-12.262h-9.52v-6.229
			h10.695l3.056-16.297h6.542l-3.056,16.297h8.775l3.056-16.297h6.582l-3.056,16.297h8.148v6.229h-9.324l-2.272,12.262h8.658v6.189
			h-9.833l-2.978,16.062h-6.542L30.877,48.197z M23.238,42.007h8.814l2.272-12.262H25.51L23.238,42.007z"/>
	</g>
</g>
</svg>
