<?xml version="1.0" encoding="iso-8859-1"?>
<!-- Generator: Adobe Illustrator 17.1.0, SVG Export Plug-In . SVG Version: 6.00 Build 0)  -->
<!DOCTYPE svg PUBLIC "-//W3C//DTD SVG 1.1//EN" "http://www.w3.org/Graphics/SVG/1.1/DTD/svg11.dtd">
<svg version="1.1" xmlns="http://www.w3.org/2000/svg" xmlns:xlink="http://www.w3.org/1999/xlink" x="0px" y="0px" width="120px"
	 height="120px" viewBox="0 0 120 120" enable-background="new 0 0 120 120" xml:space="preserve">
<g id="Layer_4" display="none">
	<circle display="inline" opacity="0.5" fill="#DF1F26" cx="60" cy="60" r="60"/>
	<rect x="6.5" y="6.5" display="inline" opacity="0.5" fill="#3B4FA1" width="107" height="107"/>
</g>
<g id="normal">
	<g>
		<g>
			<path fill="#3A3A3A" d="M95.051,82.367c12.549-18.913,10.646-44.902-5.758-61.64c-18.584-18.968-48.834-18.968-67.42,0
				c-18.587,18.962-18.587,49.822,0,68.79c16.275,16.597,41.481,18.668,59.975,6.2c0,0,3.994-2.694,7.307-6.043
				C92.443,86.348,95.051,82.367,95.051,82.367z M81.061,81.117c-14.05,14.336-36.909,14.336-50.959,0
				c-14.051-14.33-14.051-37.66,0-51.997c14.05-14.336,36.909-14.336,50.959,0S95.111,66.786,81.061,81.117z M109.347,97.321
				L98.85,86.34c0,0-2.056,4.064-5.098,7.514c-3.182,3.609-7.358,6.612-7.358,6.612l9.816,10.254c3.627,3.707,9.505,3.707,13.137,0
				C112.974,107.026,112.974,101.021,109.347,97.321z M61.094,32.994H50.245v16.039H34.284v10.871h15.961v15.95h10.848v-15.95h16.05
				V49.033h-16.05V32.994z"/>
		</g>
	</g>
</g>
<g id="active">
	<g>
		<g>
			<path fill="#3A3A3A" d="M109.347,97.321L98.85,86.34c0,0-2.056,4.064-5.098,7.514c-3.182,3.609-7.358,6.612-7.358,6.612
				l9.816,10.254c3.627,3.707,9.505,3.707,13.137,0C112.974,107.026,112.974,101.021,109.347,97.321z M95.051,82.367
				c12.549-18.913,10.646-44.902-5.758-61.64c-18.584-18.968-48.834-18.968-67.42,0c-18.587,18.962-18.587,49.822,0,68.79
				c16.275,16.597,41.481,18.668,59.975,6.2c0,0,3.994-2.694,7.307-6.043C92.443,86.348,95.051,82.367,95.051,82.367z
				 M81.061,81.117c-14.05,14.336-36.909,14.336-50.959,0c-14.051-14.33-14.051-37.66,0-51.997c14.05-14.336,36.909-14.336,50.959,0
				S95.111,66.786,81.061,81.117z M61.094,32.994H50.245v16.039H34.284v10.871h15.961v15.95h10.848v-15.95h16.05V49.033h-16.05
				V32.994z"/>
		</g>
	</g>
</g>
<g id="disabled" opacity="0.2">
	<g>
		<g>
			<path fill="#3A3A3A" d="M95.051,82.367c12.549-18.913,10.646-44.902-5.758-61.64c-18.584-18.968-48.834-18.968-67.42,0
				c-18.587,18.962-18.587,49.822,0,68.79c16.275,16.597,41.481,18.668,59.975,6.2c0,0,3.994-2.694,7.307-6.043
				C92.443,86.348,95.051,82.367,95.051,82.367z M81.061,81.117c-14.05,14.336-36.909,14.336-50.959,0
				c-14.051-14.33-14.051-37.66,0-51.997c14.05-14.336,36.909-14.336,50.959,0S95.111,66.786,81.061,81.117z M109.347,97.321
				L98.85,86.34c0,0-2.056,4.064-5.098,7.514c-3.182,3.609-7.358,6.612-7.358,6.612l9.816,10.254c3.627,3.707,9.505,3.707,13.137,0
				C112.974,107.026,112.974,101.021,109.347,97.321z M61.094,32.994H50.245v16.039H34.284v10.871h15.961v15.95h10.848v-15.95h16.05
				V49.033h-16.05V32.994z"/>
		</g>
	</g>
</g>
</svg>
