<?xml version="1.0" encoding="iso-8859-1"?>
<!-- Generator: Adobe Illustrator 17.1.0, SVG Export Plug-In . SVG Version: 6.00 Build 0)  -->
<!DOCTYPE svg PUBLIC "-//W3C//DTD SVG 1.1//EN" "http://www.w3.org/Graphics/SVG/1.1/DTD/svg11.dtd">
<svg version="1.1" xmlns="http://www.w3.org/2000/svg" xmlns:xlink="http://www.w3.org/1999/xlink" x="0px" y="0px" width="120px"
	 height="120px" viewBox="0 0 120 120" enable-background="new 0 0 120 120" xml:space="preserve">
<g id="Layer_4" display="none">
	<circle display="inline" opacity="0.5" fill="#DF1F26" cx="60.125" cy="60" r="60"/>
	<rect x="6.625" y="6.5" display="inline" opacity="0.5" fill="#3B4FA1" width="107" height="107"/>
</g>
<g id="normal">
	<g>
		<path fill="#3A3A3A" d="M30.877,48.197h-8.814l-2.978,16.062h-6.542l2.977-16.062H6.471v-6.189h10.225l2.272-12.262h-9.52v-6.229
			h10.695l3.056-16.297h6.542l-3.056,16.297h8.775l3.056-16.297h6.582l-3.056,16.297h8.148v6.229h-9.324l-2.272,12.262h8.658v6.189
			h-9.833l-2.978,16.062h-6.542L30.877,48.197z M23.238,42.007h8.814l2.272-12.262H25.51L23.238,42.007z"/>
	</g>
	<g>
		<path fill="#3A3A3A" d="M74.372,65.526h9.979c5.066,0,8.654-1.267,10.763-3.8c2.107-2.533,3.162-6.063,3.162-10.589
			c0-4.835-1.199-8.509-3.598-11.024c-2.398-2.514-5.938-3.771-10.617-3.771c-4.449,0-8.018,1.306-10.705,3.917
			c-2.689,2.611-4.032,6.083-4.032,10.415H58.358l-0.116-0.348c-0.194-6.382,2.118-11.807,6.933-16.275
			c4.816-4.467,11.111-6.701,18.887-6.701c7.813,0,14.041,2.08,18.683,6.237c4.642,4.158,6.963,10.086,6.963,17.783
			c0,3.481-1.055,6.954-3.163,10.415c-2.108,3.462-5.271,6.103-9.486,7.92c5.067,1.663,8.654,4.274,10.764,7.833
			c2.107,3.559,3.162,7.543,3.162,11.952c0,7.698-2.524,13.751-7.572,18.161c-5.048,4.409-11.498,6.614-19.35,6.614
			c-7.698,0-14.07-2.079-19.118-6.237s-7.476-9.796-7.282-16.913l0.174-0.349h10.908c0,4.432,1.364,7.956,4.091,10.576
			c2.728,2.62,6.47,3.93,11.228,3.93c4.834,0,8.625-1.311,11.372-3.931c2.746-2.62,4.119-6.493,4.119-11.618
			c0-5.202-1.219-9.037-3.655-11.503s-6.286-3.7-11.546-3.7h-9.979V65.526z"/>
	</g>
</g>
<g id="active">
	<g>
		<path fill="#3A3A3A" d="M30.877,48.197h-8.814l-2.978,16.062h-6.542l2.977-16.062H6.471v-6.189h10.225l2.272-12.262h-9.52v-6.229
			h10.695l3.056-16.297h6.542l-3.056,16.297h8.775l3.056-16.297h6.582l-3.056,16.297h8.148v6.229h-9.324l-2.272,12.262h8.658v6.189
			h-9.833l-2.978,16.062h-6.542L30.877,48.197z M23.238,42.007h8.814l2.272-12.262H25.51L23.238,42.007z"/>
	</g>
	<g>
		<path fill="#3A3A3A" d="M74.372,65.526h9.979c5.066,0,8.654-1.267,10.763-3.8c2.107-2.533,3.162-6.063,3.162-10.589
			c0-4.835-1.199-8.509-3.598-11.024c-2.398-2.514-5.938-3.771-10.617-3.771c-4.449,0-8.018,1.306-10.705,3.917
			c-2.689,2.611-4.032,6.083-4.032,10.415H58.358l-0.116-0.348c-0.194-6.382,2.118-11.807,6.933-16.275
			c4.816-4.467,11.111-6.701,18.887-6.701c7.813,0,14.041,2.08,18.683,6.237c4.642,4.158,6.963,10.086,6.963,17.783
			c0,3.481-1.055,6.954-3.163,10.415c-2.108,3.462-5.271,6.103-9.486,7.92c5.067,1.663,8.654,4.274,10.764,7.833
			c2.107,3.559,3.162,7.543,3.162,11.952c0,7.698-2.524,13.751-7.572,18.161c-5.048,4.409-11.498,6.614-19.35,6.614
			c-7.698,0-14.07-2.079-19.118-6.237s-7.476-9.796-7.282-16.913l0.174-0.349h10.908c0,4.432,1.364,7.956,4.091,10.576
			c2.728,2.62,6.47,3.93,11.228,3.93c4.834,0,8.625-1.311,11.372-3.931c2.746-2.62,4.119-6.493,4.119-11.618
			c0-5.202-1.219-9.037-3.655-11.503s-6.286-3.7-11.546-3.7h-9.979V65.526z"/>
	</g>
</g>
<g id="disabled" opacity="0.2">
	<g>
		<path fill="#3A3A3A" d="M30.877,48.197h-8.814l-2.978,16.062h-6.542l2.977-16.062H6.471v-6.189h10.225l2.272-12.262h-9.52v-6.229
			h10.695l3.056-16.297h6.542l-3.056,16.297h8.775l3.056-16.297h6.582l-3.056,16.297h8.148v6.229h-9.324l-2.272,12.262h8.658v6.189
			h-9.833l-2.978,16.062h-6.542L30.877,48.197z M23.238,42.007h8.814l2.272-12.262H25.51L23.238,42.007z"/>
	</g>
	<g>
		<path fill="#3A3A3A" d="M74.372,65.526h9.979c5.066,0,8.654-1.267,10.763-3.8c2.107-2.533,3.162-6.063,3.162-10.589
			c0-4.835-1.199-8.509-3.598-11.024c-2.398-2.514-5.938-3.771-10.617-3.771c-4.449,0-8.018,1.306-10.705,3.917
			c-2.689,2.611-4.032,6.083-4.032,10.415H58.358l-0.116-0.348c-0.194-6.382,2.118-11.807,6.933-16.275
			c4.816-4.467,11.111-6.701,18.887-6.701c7.813,0,14.041,2.08,18.683,6.237c4.642,4.158,6.963,10.086,6.963,17.783
			c0,3.481-1.055,6.954-3.163,10.415c-2.108,3.462-5.271,6.103-9.486,7.92c5.067,1.663,8.654,4.274,10.764,7.833
			c2.107,3.559,3.162,7.543,3.162,11.952c0,7.698-2.524,13.751-7.572,18.161c-5.048,4.409-11.498,6.614-19.35,6.614
			c-7.698,0-14.07-2.079-19.118-6.237s-7.476-9.796-7.282-16.913l0.174-0.349h10.908c0,4.432,1.364,7.956,4.091,10.576
			c2.728,2.62,6.47,3.93,11.228,3.93c4.834,0,8.625-1.311,11.372-3.931c2.746-2.62,4.119-6.493,4.119-11.618
			c0-5.202-1.219-9.037-3.655-11.503s-6.286-3.7-11.546-3.7h-9.979V65.526z"/>
	</g>
</g>
</svg>
