<?xml version="1.0" encoding="UTF-8" ?>
<!DOCTYPE svg PUBLIC "-//W3C//DTD SVG 1.1//EN" "http://www.w3.org/Graphics/SVG/1.1/DTD/svg11.dtd">
<svg width="225pt" height="225pt" viewBox="0 0 225 225" version="1.1" xmlns="http://www.w3.org/2000/svg">
<g id="#000000ff">
<path fill="black" opacity="1.00" d=" M 7.85 52.88 C 14.89 43.72 26.36 38.21 37.91 38.43 C 97.58 38.43 157.25 38.37 216.91 38.46 C 221.26 38.33 224.53 42.16 225.00 46.26 L 225.00 47.42 C 224.43 51.36 221.17 54.90 217.05 54.98 C 208.23 55.12 199.41 55.01 190.59 55.01 C 190.57 58.60 190.58 62.19 190.61 65.78 C 194.41 65.87 198.99 64.95 201.86 68.15 C 205.13 70.87 203.09 76.00 206.26 78.75 C 208.66 81.61 212.97 79.95 215.69 82.23 C 218.15 83.97 219.22 87.10 219.09 90.02 C 219.04 103.72 219.13 117.42 219.05 131.11 C 219.06 135.44 215.19 139.12 210.90 139.14 C 207.72 139.15 204.67 141.69 204.42 144.92 C 204.15 147.39 203.83 150.09 201.84 151.85 C 199.85 153.99 196.80 154.34 194.04 154.26 C 147.04 154.20 100.04 154.28 53.04 154.23 C 48.46 154.51 44.58 150.39 44.58 145.91 C 44.50 142.41 41.73 139.10 38.09 139.13 C 33.66 139.27 29.48 135.52 29.71 130.98 C 29.65 116.98 29.69 102.98 29.69 88.98 C 29.45 85.75 31.60 82.79 34.42 81.41 C 37.16 80.48 40.61 81.04 42.70 78.62 C 45.51 75.90 43.72 71.23 46.61 68.56 C 49.35 65.07 54.10 65.79 57.99 65.75 C 58.00 62.18 58.00 58.60 58.00 55.03 C 50.98 55.06 43.95 55.00 36.93 55.05 C 28.81 55.08 21.08 60.49 18.10 68.02 C 16.34 72.12 16.67 76.67 16.65 81.03 C 16.67 113.04 16.64 145.06 16.66 177.08 C 16.99 180.96 14.80 185.11 10.90 186.21 C 5.94 187.94 0.52 184.19 0.00 179.06 L 0.00 73.30 C 0.68 65.94 3.20 58.68 7.85 52.88 M 74.65 55.00 C 74.63 58.60 74.63 62.20 74.66 65.79 C 107.76 65.70 140.87 65.79 173.98 65.75 C 173.96 62.19 173.96 58.62 173.97 55.05 C 140.87 55.00 107.76 55.09 74.65 55.00 M 59.66 82.26 C 57.31 88.43 52.31 93.37 46.20 95.85 C 46.18 105.17 46.26 114.50 46.16 123.82 C 52.28 126.46 57.23 131.51 59.67 137.72 C 102.84 137.70 146.00 137.70 189.16 137.72 C 191.51 131.52 196.45 126.42 202.57 123.87 C 202.47 114.52 202.57 105.17 202.52 95.82 C 196.37 93.49 191.52 88.35 189.17 82.25 C 146.00 82.28 102.83 82.27 59.66 82.26 Z" />
</g>
</svg>
