<?xml version="1.0" encoding="iso-8859-1"?>
<!-- Generator: Adobe Illustrator 17.1.0, SVG Export Plug-In . SVG Version: 6.00 Build 0)  -->
<!DOCTYPE svg PUBLIC "-//W3C//DTD SVG 1.1//EN" "http://www.w3.org/Graphics/SVG/1.1/DTD/svg11.dtd">
<svg version="1.1" xmlns="http://www.w3.org/2000/svg" xmlns:xlink="http://www.w3.org/1999/xlink" x="0px" y="0px" width="120px"
	 height="120px" viewBox="0 0 120 120" enable-background="new 0 0 120 120" xml:space="preserve">
<g id="Layer_4" display="none">
	<circle display="inline" opacity="0.5" fill="#DF1F26" cx="60" cy="60" r="60"/>
	<rect x="6.5" y="6.5" display="inline" opacity="0.5" fill="#3B4FA1" width="107" height="107"/>
</g>
<g id="normal">
	<g>
		<path fill-rule="evenodd" clip-rule="evenodd" fill="#3A3A3A" d="M92.179,76.69L73.901,8.48l6.454-1.73l19.829,74L92.179,76.69
			L92.179,76.69z M30.851,75.354l-13.724-51.45l54.38-14.467l13.481,51.487L30.851,75.354L30.851,75.354z M34.151,70.183
			l15.51-4.155l-3.856-14.393l-15.51,4.157L34.151,70.183L34.151,70.183z M37.954,22.336l-15.51,4.157L26.3,40.884l15.51-4.155
			L37.954,22.336L37.954,22.336z M45.858,51.345L61.37,47.19l-3.856-14.393l-15.512,4.157L45.858,51.345L45.858,51.345z
			 M69.221,13.959l-15.51,4.155l3.856,14.393l15.512-4.157L69.221,13.959L69.221,13.959z M61.562,47.413l3.856,14.393l15.512-4.157
			l-3.858-14.391L61.562,47.413L61.562,47.413z"/>
		<path fill="#EB6900" d="M37.732,101.602V90.317h52.937v11.286H37.732L37.732,101.602z M80.336,113.25V78.341L113.5,95.797
			L80.336,113.25L80.336,113.25z M19.912,109.039c-7.408,0-13.412-6.007-13.412-13.415c0-7.408,6.005-13.412,13.412-13.412
			c7.408,0,13.412,6.005,13.412,13.412C33.325,103.032,27.32,109.039,19.912,109.039L19.912,109.039z"/>
	</g>
</g>
<g id="active">
	<g>
		<path fill-rule="evenodd" clip-rule="evenodd" fill="#3A3A3A" d="M92.179,76.69L73.901,8.48l6.454-1.73l19.829,74L92.179,76.69
			L92.179,76.69z M30.851,75.354l-13.724-51.45l54.38-14.467l13.481,51.487L30.851,75.354L30.851,75.354z M34.151,70.183
			l15.51-4.155l-3.856-14.393l-15.51,4.157L34.151,70.183L34.151,70.183z M37.954,22.336l-15.51,4.157L26.3,40.884l15.51-4.155
			L37.954,22.336L37.954,22.336z M45.858,51.345L61.37,47.19l-3.856-14.393l-15.512,4.157L45.858,51.345L45.858,51.345z
			 M69.221,13.959l-15.51,4.155l3.856,14.393l15.512-4.157L69.221,13.959L69.221,13.959z M61.562,47.413l3.856,14.393l15.512-4.157
			l-3.858-14.391L61.562,47.413L61.562,47.413z"/>
		<path fill="#EB6900" d="M37.732,101.602V90.317h52.937v11.286H37.732L37.732,101.602z M80.336,113.25V78.341L113.5,95.797
			L80.336,113.25L80.336,113.25z M19.912,109.039c-7.408,0-13.412-6.007-13.412-13.415c0-7.408,6.005-13.412,13.412-13.412
			c7.408,0,13.412,6.005,13.412,13.412C33.325,103.032,27.32,109.039,19.912,109.039L19.912,109.039z"/>
	</g>
</g>
<g id="disabled" opacity="0.2">
	<g>
		<path fill-rule="evenodd" clip-rule="evenodd" fill="#3A3A3A" d="M92.179,76.69L73.901,8.48l6.454-1.73l19.829,74L92.179,76.69
			L92.179,76.69z M30.851,75.354l-13.724-51.45l54.38-14.467l13.481,51.487L30.851,75.354L30.851,75.354z M34.151,70.183
			l15.51-4.155l-3.856-14.393l-15.51,4.157L34.151,70.183L34.151,70.183z M37.954,22.336l-15.51,4.157L26.3,40.884l15.51-4.155
			L37.954,22.336L37.954,22.336z M45.858,51.345L61.37,47.19l-3.856-14.393l-15.512,4.157L45.858,51.345L45.858,51.345z
			 M69.221,13.959l-15.51,4.155l3.856,14.393l15.512-4.157L69.221,13.959L69.221,13.959z M61.562,47.413l3.856,14.393l15.512-4.157
			l-3.858-14.391L61.562,47.413L61.562,47.413z"/>
		<path fill="#EB6900" d="M37.732,101.602V90.317h52.937v11.286H37.732L37.732,101.602z M80.336,113.25V78.341L113.5,95.797
			L80.336,113.25L80.336,113.25z M19.912,109.039c-7.408,0-13.412-6.007-13.412-13.415c0-7.408,6.005-13.412,13.412-13.412
			c7.408,0,13.412,6.005,13.412,13.412C33.325,103.032,27.32,109.039,19.912,109.039L19.912,109.039z"/>
	</g>
</g>
</svg>
