<?xml version="1.0" encoding="utf-8"?>
<!-- Generator: Adobe Illustrator 17.1.0, SVG Export Plug-In . SVG Version: 6.00 Build 0)  -->
<!DOCTYPE svg PUBLIC "-//W3C//DTD SVG 1.1//EN" "http://www.w3.org/Graphics/SVG/1.1/DTD/svg11.dtd">
<svg version="1.1" id="Layer_1" xmlns="http://www.w3.org/2000/svg" xmlns:xlink="http://www.w3.org/1999/xlink" x="0px" y="0px"
	 viewBox="0 0 120 120" enable-background="new 0 0 120 120" xml:space="preserve">
<g id="Layer_4" display="none">
	<circle display="inline" opacity="0.5" fill="#DF1F26" enable-background="new    " cx="60" cy="60" r="60"/>
	<rect x="6.5" y="6.5" display="inline" opacity="0.5" fill="#3B4FA1" enable-background="new    " width="107" height="107"/>
</g>
<g id="normal">
	<path fill="#FF0019" d="M67.2,60c0,12.5,30.1,10.2,30.1,29.6c-0.2-0.1,0.2,23.9,0.2,23.9H22.7c0,0-0.3-23.9-0.3-24.7
		c0-17.6,30-15.3,30-28.3c0-13-30-11.6-30-30.7c0-3.2,0.3-23.3,0.3-23.3h74.9c0,0,0,21.4-0.3,23.6C97.3,49.2,67.2,47.4,67.2,60
		L67.2,60z M33.4,92.1c0.5,0.3,0,10.7,0,10.7h53.5c0,0-0.5-0.3,0-10.7C87.4,81.7,66,81.7,60.1,70.7C55.3,81.7,33.9,81.7,33.4,92.1
		L33.4,92.1z M86.9,17.2H33.4v10.7h53.5V17.2L86.9,17.2z"/>
</g>
<g id="active">
	<path fill="#FF0019" d="M67.2,60c0,12.5,30.1,10.2,30.1,29.6c-0.2-0.1,0.2,23.9,0.2,23.9H22.7c0,0-0.3-23.9-0.3-24.7
		c0-17.6,30-15.3,30-28.3c0-13-30-11.6-30-30.7c0-3.2,0.3-23.3,0.3-23.3h74.9c0,0,0,21.4-0.3,23.6C97.3,49.2,67.2,47.4,67.2,60
		L67.2,60z M33.4,92.1c0.5,0.3,0,10.7,0,10.7h53.5c0,0-0.5-0.3,0-10.7C87.4,81.7,66,81.7,60.1,70.7C55.3,81.7,33.9,81.7,33.4,92.1
		L33.4,92.1z M86.9,17.2H33.4v10.7h53.5V17.2L86.9,17.2z"/>
</g>
<g id="disabled" opacity="0.2">
	<path fill="#F1DE0E" d="M67.2,60c0,12.5,30.1,10.2,30.1,29.6c-0.2-0.1,0.2,23.9,0.2,23.9H22.7c0,0-0.3-23.9-0.3-24.7
		c0-17.6,30-15.3,30-28.3c0-13-30-11.6-30-30.7c0-3.2,0.3-23.3,0.3-23.3h74.9c0,0,0,21.4-0.3,23.6C97.3,49.2,67.2,47.4,67.2,60
		L67.2,60z M33.4,92.1c0.5,0.3,0,10.7,0,10.7h53.5c0,0-0.5-0.3,0-10.7C87.4,81.7,66,81.7,60.1,70.7C55.3,81.7,33.9,81.7,33.4,92.1
		L33.4,92.1z M86.9,17.2H33.4v10.7h53.5V17.2L86.9,17.2z"/>
</g>
</svg>
