<?xml version="1.0" encoding="iso-8859-1"?>
<!-- Generator: Adobe Illustrator 17.1.0, SVG Export Plug-In . SVG Version: 6.00 Build 0)  -->
<!DOCTYPE svg PUBLIC "-//W3C//DTD SVG 1.1//EN" "http://www.w3.org/Graphics/SVG/1.1/DTD/svg11.dtd">
<svg version="1.1" xmlns="http://www.w3.org/2000/svg" xmlns:xlink="http://www.w3.org/1999/xlink" x="0px" y="0px" width="120px"
	 height="120px" viewBox="0 0 120 120" enable-background="new 0 0 120 120" xml:space="preserve">
<g id="Layer_4" display="none">
	<circle display="inline" opacity="0.5" fill="#DF1F26" cx="60.125" cy="60" r="60"/>
	<rect x="6.625" y="6.5" display="inline" opacity="0.5" fill="#3B4FA1" width="107" height="107"/>
</g>
<g id="normal">
	<g>
		<g>
			<path fill-rule="evenodd" clip-rule="evenodd" fill="#3A3A3A" d="M19.07,51.652h2.783c1.537,0,2.783-1.246,2.783-2.783
				s-1.246-2.783-2.783-2.783H19.07c-1.537,0-2.783,1.246-2.783,2.783S17.533,51.652,19.07,51.652z M19.07,76.696h2.783
				c1.537,0,2.783-1.246,2.783-2.783s-1.246-2.783-2.783-2.783H19.07c-1.537,0-2.783,1.246-2.783,2.783S17.533,76.696,19.07,76.696z
				 M24.635,98.957c0-1.537-1.246-2.783-2.783-2.783H19.07c-1.537,0-2.783,1.246-2.783,2.783s1.246,2.783,2.783,2.783h2.783
				C23.39,101.74,24.635,100.494,24.635,98.957z M96.984,7.13H30.201c-4.611,0-8.348,3.737-8.348,8.348v0.031
				c0.193-0.015,0.385-0.031,0.582-0.031c4.289,0,7.766,3.73,7.766,8.33c0,4.601-3.477,8.33-7.766,8.33
				c-0.196,0-0.389-0.016-0.582-0.031v8.446c0.193-0.015,0.385-0.031,0.582-0.031c4.289,0,7.766,3.73,7.766,8.33
				c0,4.601-3.477,8.33-7.766,8.33c-0.196,0-0.389-0.016-0.582-0.031v8.446c0.193-0.015,0.385-0.031,0.582-0.031
				c4.289,0,7.766,3.73,7.766,8.33s-3.477,8.33-7.766,8.33c-0.196,0-0.389-0.016-0.582-0.031v8.446
				c0.193-0.015,0.385-0.031,0.582-0.031c4.289,0,7.766,3.73,7.766,8.33s-3.477,8.33-7.766,8.33c-0.038,0-0.074-0.005-0.111-0.006
				c1.135,3.262,4.229,5.606,7.878,5.606h66.783c4.611,0,8.348-3.737,8.348-8.348V15.478C105.332,10.867,101.595,7.13,96.984,7.13z
				 M93.764,76.694c-0.246,2.457-0.246,5.652-0.246,5.652l-51.499-0.023c0,0,0-3.195-0.246-5.652
				c-0.246-2.457,0.983-3.44,3.195-4.915c2.212-1.475,16.956-7.127,16.956-7.127l0.246-4.915c0,0-2.949-2.949-4.424-6.389
				c-3.194-1.474-2.703-5.898-2.703-5.898l2.457-0.491l0.246-8.355c0,0,0.4-6.536,9.699-6.536c9.3,0,10.344,6.559,10.344,6.559
				l0.246,8.355l2.457,0.492c0,0,0.491,4.423-2.703,5.898c-1.474,3.44-4.424,6.389-4.424,6.389l0.246,4.915
				c0,0,14.745,5.652,16.956,7.126C92.781,73.253,94.009,74.237,93.764,76.694z M19.07,26.608h2.783
				c1.537,0,2.783-1.246,2.783-2.783s-1.246-2.783-2.783-2.783H19.07c-1.537,0-2.783,1.246-2.783,2.783S17.533,26.608,19.07,26.608z
				"/>
		</g>
	</g>
</g>
<g id="active">
	<g>
		<g>
			<path fill-rule="evenodd" clip-rule="evenodd" fill="#3A3A3A" d="M19.07,51.652h2.783c1.537,0,2.783-1.246,2.783-2.783
				s-1.246-2.783-2.783-2.783H19.07c-1.537,0-2.783,1.246-2.783,2.783S17.533,51.652,19.07,51.652z M19.07,26.608h2.783
				c1.537,0,2.783-1.246,2.783-2.783s-1.246-2.783-2.783-2.783H19.07c-1.537,0-2.783,1.246-2.783,2.783S17.533,26.608,19.07,26.608z
				 M19.07,76.696h2.783c1.537,0,2.783-1.246,2.783-2.783s-1.246-2.783-2.783-2.783H19.07c-1.537,0-2.783,1.246-2.783,2.783
				S17.533,76.696,19.07,76.696z M24.635,98.957c0-1.537-1.246-2.783-2.783-2.783H19.07c-1.537,0-2.783,1.246-2.783,2.783
				s1.246,2.783,2.783,2.783h2.783C23.39,101.74,24.635,100.494,24.635,98.957z M96.984,7.13H30.201
				c-4.611,0-8.348,3.737-8.348,8.348v0.031c0.193-0.015,0.385-0.031,0.582-0.031c4.289,0,7.766,3.73,7.766,8.33
				c0,4.601-3.477,8.33-7.766,8.33c-0.196,0-0.389-0.016-0.582-0.031v8.446c0.193-0.015,0.385-0.031,0.582-0.031
				c4.289,0,7.766,3.73,7.766,8.33c0,4.601-3.477,8.33-7.766,8.33c-0.196,0-0.389-0.016-0.582-0.031v8.446
				c0.193-0.015,0.385-0.031,0.582-0.031c4.289,0,7.766,3.73,7.766,8.33s-3.477,8.33-7.766,8.33c-0.196,0-0.389-0.016-0.582-0.031
				v8.446c0.193-0.015,0.385-0.031,0.582-0.031c4.289,0,7.766,3.73,7.766,8.33s-3.477,8.33-7.766,8.33
				c-0.038,0-0.074-0.005-0.111-0.006c1.135,3.262,4.229,5.606,7.878,5.606h66.783c4.611,0,8.348-3.737,8.348-8.348V15.478
				C105.332,10.867,101.595,7.13,96.984,7.13z M93.764,76.694c-0.246,2.457-0.246,5.652-0.246,5.652l-51.499-0.023
				c0,0,0-3.195-0.246-5.652c-0.246-2.457,0.983-3.44,3.195-4.915c2.212-1.475,16.956-7.127,16.956-7.127l0.246-4.915
				c0,0-2.949-2.949-4.424-6.389c-3.194-1.474-2.703-5.898-2.703-5.898l2.457-0.491l0.246-8.355c0,0,0.4-6.536,9.699-6.536
				c9.3,0,10.344,6.559,10.344,6.559l0.246,8.355l2.457,0.492c0,0,0.491,4.423-2.703,5.898c-1.474,3.44-4.424,6.389-4.424,6.389
				l0.246,4.915c0,0,14.745,5.652,16.956,7.126C92.781,73.253,94.009,74.237,93.764,76.694z"/>
		</g>
	</g>
</g>
<g id="disabled" opacity="0.2">
	<g>
		<g>
			<path fill-rule="evenodd" clip-rule="evenodd" fill="#3A3A3A" d="M19.07,51.652h2.783c1.537,0,2.783-1.246,2.783-2.783
				s-1.246-2.783-2.783-2.783H19.07c-1.537,0-2.783,1.246-2.783,2.783S17.533,51.652,19.07,51.652z M19.07,26.608h2.783
				c1.537,0,2.783-1.246,2.783-2.783s-1.246-2.783-2.783-2.783H19.07c-1.537,0-2.783,1.246-2.783,2.783S17.533,26.608,19.07,26.608z
				 M19.07,76.696h2.783c1.537,0,2.783-1.246,2.783-2.783s-1.246-2.783-2.783-2.783H19.07c-1.537,0-2.783,1.246-2.783,2.783
				S17.533,76.696,19.07,76.696z M24.635,98.957c0-1.537-1.246-2.783-2.783-2.783H19.07c-1.537,0-2.783,1.246-2.783,2.783
				s1.246,2.783,2.783,2.783h2.783C23.39,101.74,24.635,100.494,24.635,98.957z M96.984,7.13H30.201
				c-4.611,0-8.348,3.737-8.348,8.348v0.031c0.193-0.015,0.385-0.031,0.582-0.031c4.289,0,7.766,3.73,7.766,8.33
				c0,4.601-3.477,8.33-7.766,8.33c-0.196,0-0.389-0.016-0.582-0.031v8.446c0.193-0.015,0.385-0.031,0.582-0.031
				c4.289,0,7.766,3.73,7.766,8.33c0,4.601-3.477,8.33-7.766,8.33c-0.196,0-0.389-0.016-0.582-0.031v8.446
				c0.193-0.015,0.385-0.031,0.582-0.031c4.289,0,7.766,3.73,7.766,8.33s-3.477,8.33-7.766,8.33c-0.196,0-0.389-0.016-0.582-0.031
				v8.446c0.193-0.015,0.385-0.031,0.582-0.031c4.289,0,7.766,3.73,7.766,8.33s-3.477,8.33-7.766,8.33
				c-0.038,0-0.074-0.005-0.111-0.006c1.135,3.262,4.229,5.606,7.878,5.606h66.783c4.611,0,8.348-3.737,8.348-8.348V15.478
				C105.332,10.867,101.595,7.13,96.984,7.13z M93.764,76.694c-0.246,2.457-0.246,5.652-0.246,5.652l-51.499-0.023
				c0,0,0-3.195-0.246-5.652c-0.246-2.457,0.983-3.44,3.195-4.915c2.212-1.475,16.956-7.127,16.956-7.127l0.246-4.915
				c0,0-2.949-2.949-4.424-6.389c-3.194-1.474-2.703-5.898-2.703-5.898l2.457-0.491l0.246-8.355c0,0,0.4-6.536,9.699-6.536
				c9.3,0,10.344,6.559,10.344,6.559l0.246,8.355l2.457,0.492c0,0,0.491,4.423-2.703,5.898c-1.474,3.44-4.424,6.389-4.424,6.389
				l0.246,4.915c0,0,14.745,5.652,16.956,7.126C92.781,73.253,94.009,74.237,93.764,76.694z"/>
		</g>
	</g>
</g>
</svg>
