<?xml version="1.0" encoding="iso-8859-1"?>
<!-- Generator: Adobe Illustrator 17.1.0, SVG Export Plug-In . SVG Version: 6.00 Build 0)  -->
<!DOCTYPE svg PUBLIC "-//W3C//DTD SVG 1.1//EN" "http://www.w3.org/Graphics/SVG/1.1/DTD/svg11.dtd">
<svg version="1.1" xmlns="http://www.w3.org/2000/svg" xmlns:xlink="http://www.w3.org/1999/xlink" x="0px" y="0px" width="120px"
	 height="120px" viewBox="0 0 120 120" enable-background="new 0 0 120 120" xml:space="preserve">
<g id="Layer_4" display="none">
	<circle display="inline" opacity="0.5" fill="#DF1F26" cx="60" cy="60" r="60"/>
	<rect x="6.5" y="6.5" display="inline" opacity="0.5" fill="#3B4FA1" width="107" height="107"/>
</g>
<g id="normal">
	<path fill-rule="evenodd" clip-rule="evenodd" fill="#3A3A3A" d="M113.5,75.393c-0.001,9.718-7.276,17.753-16.784,19.232l0,0.266
		l-67.137,0C16.832,94.892,6.5,84.783,6.5,72.315c0.001-9.622,6.164-17.816,14.829-21.066c-0.091-0.835-0.143-1.68-0.144-2.537
		c0-13.036,10.803-23.602,24.128-23.603c8.88,0,16.619,4.706,20.808,11.696c2.976-2.179,6.66-3.486,10.663-3.486
		c9.85,0,17.833,7.811,17.834,17.445c-0.001,1.791-0.278,3.519-0.791,5.144C104.715,56.045,113.499,64.71,113.5,75.393L113.5,75.393
		z"/>
</g>
<g id="active">
	<path fill-rule="evenodd" clip-rule="evenodd" fill="#3A3A3A" d="M113.5,75.393c-0.001,9.718-7.276,17.753-16.784,19.232l0,0.266
		l-67.137,0C16.832,94.892,6.5,84.783,6.5,72.315c0.001-9.622,6.164-17.816,14.829-21.066c-0.091-0.835-0.143-1.68-0.144-2.537
		c0-13.036,10.803-23.602,24.128-23.603c8.88,0,16.619,4.706,20.808,11.696c2.976-2.179,6.66-3.486,10.663-3.486
		c9.85,0,17.833,7.811,17.834,17.445c-0.001,1.791-0.278,3.519-0.791,5.144C104.715,56.045,113.499,64.71,113.5,75.393L113.5,75.393
		z"/>
</g>
<g id="disabled" opacity="0.2">
	<path fill-rule="evenodd" clip-rule="evenodd" fill="#3A3A3A" d="M113.5,75.393c-0.001,9.718-7.276,17.753-16.784,19.232l0,0.266
		l-67.137,0C16.832,94.892,6.5,84.783,6.5,72.315c0.001-9.622,6.164-17.816,14.829-21.066c-0.091-0.835-0.143-1.68-0.144-2.537
		c0-13.036,10.803-23.602,24.128-23.603c8.88,0,16.619,4.706,20.808,11.696c2.976-2.179,6.66-3.486,10.663-3.486
		c9.85,0,17.833,7.811,17.834,17.445c-0.001,1.791-0.278,3.519-0.791,5.144C104.715,56.045,113.499,64.71,113.5,75.393L113.5,75.393
		z"/>
</g>
</svg>
