<?xml version="1.0" encoding="utf-8"?>
<!-- Generator: Adobe Illustrator 17.1.0, SVG Export Plug-In . SVG Version: 6.00 Build 0)  -->
<!DOCTYPE svg PUBLIC "-//W3C//DTD SVG 1.1//EN" "http://www.w3.org/Graphics/SVG/1.1/DTD/svg11.dtd">
<svg version="1.1" xmlns="http://www.w3.org/2000/svg" xmlns:xlink="http://www.w3.org/1999/xlink" x="0px" y="0px"
	 viewBox="0 0 120 120" enable-background="new 0 0 120 120" xml:space="preserve">
<g id="phase23">
	<path fill-rule="evenodd" clip-rule="evenodd" fill="#3A3A3A" d="M88.455,99.678c0.668-3.734,1.011-7.604,1.011-11.483
		c0-11.686-3.004-22.706-8.457-31.028c-5.581-8.515-13.041-13.204-21.008-13.204c-7.967,0-15.428,4.688-21.009,13.204
		c-5.454,8.322-8.457,19.342-8.457,31.028c0,3.879,0.343,7.749,1.011,11.483c-6.861,0-15.97,0-21.185,0c0-9.784,0-69.571,0-79.356
		c8.161,0,91.116,0,99.277,0c0,9.785,0,69.572,0,79.356C104.424,99.678,95.316,99.678,88.455,99.678"/>
</g>
<g id="phase22">
	<path fill-rule="evenodd" clip-rule="evenodd" fill="#3A3A3A" d="M99.219,95.346v6.269c0,5.213-0.031,5.229-9.787,5.229
		c-9.938,0-9.788,0.273-9.788-5.229V95.95H40.493v5.665c0,5.213-0.032,5.229-9.788,5.229c-9.938,0-9.788,0.273-9.788-5.229v-6.196
		c-1.371-0.733-2.314-2.161-2.314-3.826V39.299c0-2.407,1.95-4.358,4.356-4.358h74.083c2.407,0,4.356,1.951,4.356,4.358v52.294
		C101.398,93.202,100.516,94.59,99.219,95.346L99.219,95.346z M25.137,43.657v15.252c0,2.407,1.951,4.358,4.358,4.358h28.326V39.299
		H29.495C27.089,39.299,25.137,41.25,25.137,43.657L25.137,43.657z M94.863,43.657c0-2.407-1.951-4.358-4.358-4.358H62.179v23.968
		h28.326c2.407,0,4.358-1.951,4.358-4.358V43.657L94.863,43.657z M22.958,22.686c0-4.636,2.681-9.533,5.557-9.533h62.97
		c2.586,0,5.555,4.997,5.555,9.533v7.897H22.958V22.686L22.958,22.686z M40.024,89.494h39.921v-4.948H40.024V89.494L40.024,89.494z
		 M79.167,80.853v-4.951H40.649v4.951H79.167L79.167,80.853z M40.024,72.071h39.921V67.12H40.024V72.071L40.024,72.071z
		 M27.579,84.315c0,1.477,0.437,2.755,2.226,2.755h3.14c1.791,0,2.151-1.279,2.151-2.755v-7.962c0-1.48-0.359-3.379-2.151-3.379
		h-3.14c-1.789,0-2.226,1.899-2.226,3.379V84.315L27.579,84.315z M92.421,76.352c0-1.48-0.361-3.379-2.15-3.379h-3.14
		c-1.789,0-2.227,1.899-2.227,3.379v7.962c0,1.477,0.438,2.755,2.227,2.755h3.14c1.79,0,2.15-1.279,2.15-2.755V76.352L92.421,76.352
		z"/>
</g>
<g id="phase21">
	<g>
		<path fill-rule="evenodd" clip-rule="evenodd" fill="#3A3A3A" d="M9.361,98.86V81.992l9.73-8.329c0,0,0.927-0.298,2.502-0.545
			c2.022,2.75,5.271,4.542,8.95,4.542c2.585,0,4.956-0.888,6.843-2.368c3.231,1.526,9.668,7.591,11.493,7.591
			c2.279,0,4.753-4.834,9.554-5.941c4.799-1.106,13.083,3.348,14.006,4.639c0.923,1.289-0.232-0.174,1.429,2.96
			c1.662,3.134,5.712,2.211,5.712,2.211l2.032-0.479c0.748,0.159,1.52,0.245,2.314,0.245c4.305,0,8.029-2.447,9.873-6.022
			c1.286,0.532,1.924,1.419,5.065,1.419c4.673,0,4.561-1.564,8.021-1.564c3.461,0,3.754,7.451,3.754,7.451V98.86H9.361L9.361,98.86z
			"/>
		<path fill-rule="evenodd" clip-rule="evenodd" fill="#3A3A3A" d="M107.574,55.744l-2.079,12.78l-2.75-0.447l-0.563,3.423
			l-8.46-1.243c0.062-0.412,0.163-1.17,0.32-2.516c0.702-5.971-3.781-7.373-9.532-8.447c-5.358-1.001-11.109,0.417-12.395,8.319
			c-0.127,0.793-28.222-4.457-28.222-4.457s-0.162,0.996,0.542-4.164c0.672-4.915-5.888-10.153-11.397-11.051
			c-4.986-0.811-6.575,0.689-8.078,1.66c-1.505,0.973-1.485,0.841-1.485,0.841l-4.284-0.968l0.878-5.401
			c0,0,0.513-3.975,2.063-4.398c1.55-0.424,3.186-0.634,8.738-0.742c5.943-0.113,14.223,0.402,16.649,1.115
			c1.026,0.303,10.226-18.99,11.559-18.907c1.333,0.081,40.312,6.289,41.23,6.439c0.656,0.107,2.453,2.657,2.491,3.723
			c0.071,2.041,0.912,15.907,0.537,18.208c-0.086,0.527,2.387,0.451,2.387,0.451l-0.878,5.339L107.574,55.744L107.574,55.744z
			 M61.998,26.372l-5.282,15.909l19.172,2.984l2.637-16.203L61.998,26.372L61.998,26.372z M82.874,29.499l-2.812,16.446l2.383,0.252
			l12.475-14.601L82.874,29.499L82.874,29.499z M87.188,46.834l8.921,1.452l2.14-13.986L87.188,46.834L87.188,46.834z
			 M93.635,70.244l0.087,0.013C93.574,71.222,93.635,70.244,93.635,70.244L93.635,70.244z M31.832,53.924
			c5.632,0.916,9.451,6.244,8.531,11.901c-0.921,5.657-6.234,9.499-11.865,8.583c-5.631-0.918-9.451-6.246-8.531-11.904
			C20.889,56.85,26.2,53.006,31.832,53.924L31.832,53.924z M84.047,63.244c5.671,0.923,9.514,6.287,8.588,11.98
			c-0.926,5.695-6.273,9.563-11.943,8.64c-5.67-0.923-9.515-6.286-8.589-11.98C73.03,66.188,78.377,62.321,84.047,63.244
			L84.047,63.244z"/>
	</g>
</g>
<g id="phase18">
	<g>
		<g>
			<path fill-rule="evenodd" clip-rule="evenodd" fill="#3A3A3A" d="M84.96,79.756c0-12.917-20.13-11.377-20.13-19.76
				c0-8.383,20.084-7.232,20.084-19.965c0.203-1.482,0.203-15.784,0.203-15.784H35.062c0,0-0.179,13.426-0.179,15.576
				c0,12.769,20.028,11.856,20.028,20.544c0,8.688-20.028,7.146-20.028,18.88c0,0.533,0.179,16.508,0.179,16.508h50.055
				C85.117,95.753,84.846,79.658,84.96,79.756z M42.213,38.548v-7.151h35.753v7.151H42.213z M77.966,88.603H42.213
				c0,0,0.335-6.927,0-7.151c0.335-6.927,14.636-6.927,17.877-14.301c3.91,7.374,18.212,7.374,17.877,14.301
				C77.631,88.379,77.966,88.603,77.966,88.603z"/>
		</g>
	</g>
</g>
<g id="phase17">
	<path fill="#3A3A3A" d="M101.278,36.691c-27.837,25.48-21.031,56.8-21.031,70.723H57.544l1.305-0.044
		C58.83,106.778,57.487,48.451,101.278,36.691L101.278,36.691z M56.237,107.414H35.962c1.076-57.682,48.48-69.574,60.036-71.788
		C55.155,50.508,56.201,106.156,56.237,107.414L56.237,107.414z M35.775,23.786h-2.572c-4.309,0-6.762,1.675-6.762,5.862
		c0,3.889,3.412,5.267,6.762,6.104l2.572,0.659c7.24,1.915,14.182,4.606,14.182,13.284c0,8.975-6.223,13.102-14.182,13.461h-2.572
		c-8.617-0.18-14.599-5.085-14.48-14h6.821c-0.06,5.265,2.214,8.436,7.659,8.616h2.572c4.309-0.299,7.36-2.334,7.36-7.12
		c0-4.488-3.65-5.864-7.36-6.821l-2.572-0.539C26.68,41.496,19.62,38.863,19.62,30.128c0-7.599,6.463-11.728,13.583-11.728h2.572
		c7.18,0,13.104,3.77,13.104,11.668h-6.821C41.879,26.058,40.024,23.786,35.775,23.786L35.775,23.786z M32.421,67.697v-55.11h5.225
		v55.11H32.421L32.421,67.697z"/>
</g>
<g id="phase16">
	<path fill="#3A3A3A" d="M62.374,32.954h-4.253c-7.125,0-11.182,2.77-11.182,9.694c0,6.432,5.642,8.71,11.182,10.093l4.253,1.089
		c11.972,3.166,23.452,7.617,23.452,21.966c0,14.841-10.291,21.666-23.452,22.26h-4.253c-14.25-0.297-24.142-8.41-23.944-23.152
		h11.279c-0.099,8.707,3.661,13.95,12.665,14.247h4.253c7.125-0.495,12.17-3.86,12.17-11.774c0-7.422-6.035-9.697-12.17-11.279
		l-4.253-0.891C47.335,62.24,35.66,57.885,35.66,43.44c0-12.566,10.687-19.394,22.461-19.394h4.253
		c11.873,0,21.669,6.234,21.669,19.295H72.764C72.467,36.711,69.4,32.954,62.374,32.954L62.374,32.954z M56.828,105.566V14.434h8.64
		v91.133H56.828L56.828,105.566z"/>
</g>
<g id="phase15">
	<path fill-rule="evenodd" clip-rule="evenodd" fill="#3A3A3A" d="M108.706,93.556c0,7.79-9.089,7.79-9.089,0c0-0.557,0-9.12,0-9.12
		H99.22V62.495c0-0.614-0.497-1.112-1.112-1.112c-0.614,0-2.05,0.498-2.05,1.112v21.942H73.845l29.84-34.82h0.449
		c3.142,0,5.69,2.475,5.69,5.524C109.824,55.14,108.775,93.486,108.706,93.556L108.706,93.556z M88.369,45.493
		c-6.3,0-11.409-4.959-11.409-11.077c0-0.266,0.033-0.569,0.074-0.884h-6.168l5.462-5.656h23.456v5.656
		C99.784,40.514,94.673,45.493,88.369,45.493L88.369,45.493z M70.866,16.828h28.918v7.335H76.169L70.866,16.828L70.866,16.828z
		 M96.675,49.616L68.64,82.332V63.517L46.282,88.345c-2.22,2.157-5.827,2.157-8.047,0c-2.225-2.157-2.225-5.657,0-7.814
		l26.392-29.31c1.109-1.069,2.561-1.599,4.012-1.602v-0.003H96.675L96.675,49.616z M60.922,97.972c0,2.871-2.396,5.199-5.36,5.199
		H26.586c-2.958,0-5.36-2.328-5.36-5.199v-5.519h-5.69c-2.958,0-5.36-2.33-5.36-5.199V59.122c0-2.868,2.402-5.199,5.36-5.199h5.69
		v38.523h39.695V97.972L60.922,97.972z"/>
</g>
<g id="phase14">
	<path fill-rule="evenodd" clip-rule="evenodd" fill="#3A3A3A" d="M60,110.323L32.08,60L60,9.677L87.92,60L60,110.323L60,110.323z
		 M59.998,24.236L40.155,60.003L59.998,95.77l19.845-35.766L59.998,24.236L59.998,24.236z"/>
</g>
<g id="phase10">
	<g>
		<path fill-rule="evenodd" clip-rule="evenodd" fill="#D80404" d="M101.263,52.497H90.011v31.886c0,1.036,7.501,1.876,7.501,1.876
			c1.036,0,1.876,0.84,1.876,1.876v1.876c0,1.036-0.84,1.876-1.876,1.876H75.005c-1.036,0-1.876-0.84-1.876-1.876v-1.876
			c0-1.036,0.84-1.876,1.876-1.876c0,0,7.503-0.84,7.503-1.876V52.497H37.492v31.886c0,1.036,7.503,1.876,7.503,1.876
			c1.036,0,1.876,0.84,1.876,1.876v1.876c0,1.036-0.84,1.876-1.876,1.876H22.488c-1.036,0-1.876-0.84-1.876-1.876v-1.876
			c0-1.036,0.84-1.876,1.876-1.876c0,0,7.501-0.84,7.501-1.876V52.497H18.737c-1.036,0-1.876-0.84-1.876-1.876V29.989
			c0-1.036,0.84-1.876,1.876-1.876h82.527c1.036,0,1.876,0.84,1.876,1.876v20.632C103.139,51.658,102.299,52.497,101.263,52.497
			L101.263,52.497z M99.388,33.741c0-1.036-0.84-1.876-1.876-1.876H22.488c-1.036,0-1.876,0.84-1.876,1.876v13.13
			c0,1.036,0.84,1.876,1.876,1.876h75.024c1.036,0,1.876-0.84,1.876-1.876V33.741L99.388,33.741z"/>
		<path fill-rule="evenodd" clip-rule="evenodd" fill="#D80404" d="M21.71,50.622L33.528,29.99h14.559L36.175,50.622H21.71z
			 M47.342,50.622L59.16,29.99H73.72L61.807,50.622H47.342z M72.975,50.622L84.793,29.99h14.559L87.439,50.622H72.975z"/>
	</g>
</g>
<g id="phase8">
	<path fill-rule="evenodd" clip-rule="evenodd" fill="#3A3A3A" d="M112.412,88.82c-2.482,2.482-4.887,0.054-4.887,0.054
		s-3.807-2.12-6.24-3.474c-1.142-0.636-4.342-1.102-4.342-1.102s-12.216,3.836-18.058,5.373c-1.464,0.385-2.38,0.626-2.38,0.626
		s-14.73-9.671-20.739-13.234c-1.336-0.793-7.087,0-7.087,0s-12.675,7.971-18.317,12.345c-1.037,0.804-8.737,1.279-8.737,1.279
		L7.885,80.288c0,0-2.576-1.598-0.702-5.446c1.55-2.041,4.143-0.953,4.143-0.953l12.266,8.024c0,0,3.138,1.757,4.417,0.758
		c5.986-4.672,20.616-13.212,20.616-13.212s5.636-0.339,7.143,0.516C62.4,73.736,77.962,82.39,77.962,82.39s0.89-0.234,2.313-0.608
		c5.674-1.494,17.454-5.215,17.454-5.215s3.449,0.666,4.976,1.603c3.63,2.225,9.757,5.98,9.757,5.98S114.83,86.401,112.412,88.82
		L112.412,88.82z M78.405,59.331c3.503,0.94,5.559,4.626,4.592,8.234c-0.967,3.608-4.591,5.773-8.094,4.835
		c-3.505-0.94-5.561-4.626-4.594-8.234C71.276,60.558,74.9,58.393,78.405,59.331L78.405,59.331z M40.308,49.123
		c3.504,0.94,5.561,4.626,4.594,8.234c-0.967,3.608-4.591,5.773-8.095,4.833c-3.504-0.938-5.561-4.624-4.594-8.232
		C33.179,50.348,36.803,48.185,40.308,49.123L40.308,49.123z M87.354,67.579c0.933-5.591-2.391-11.044-7.821-12.498
		c-5.411-1.45-10.998,1.587-13,6.861l-17.26-4.672c0.876-5.555-2.439-10.95-7.836-12.396c-5.379-1.442-10.926,1.55-12.962,6.767
		l-6.749-1.827c0,0,0.534-2.323,1.942-7.178c1.059-3.654,10.808-7.821,13.11-7.469c6.435,0.98,13.072,2.079,13.072,2.079
		s5.306-4.385,7.168-6.268c0.601-0.225,1.559-2.111,4.444-1.564c6.652,1.33,16.68,4.984,18.145,5.391
		c1.467,0.406,2.052,1.056,2.466,3.106c0.429,2.12,1.458,9.554,1.458,9.554s6.66,2.415,10.501,3.944
		c1.687,0.672,2.534,1.125,2.641,3.85c0.124,3.135-1.969,14.311-1.969,14.311L87.354,67.579L87.354,67.579z"/>
</g>
<g id="phase7">
	<path fill="#3A3A3A" d="M89.981,21.008h-2.262c-3.789,0-5.948,1.473-5.948,5.156c0,3.421,3.001,4.632,5.948,5.368l2.262,0.579
		c6.367,1.684,12.473,4.051,12.473,11.683c0,7.893-5.474,11.523-12.473,11.839h-2.262c-7.579-0.158-12.84-4.473-12.735-12.314h5.999
		c-0.053,4.631,1.947,7.419,6.736,7.577h2.262c3.789-0.263,6.473-2.053,6.473-6.262c0-3.948-3.21-5.157-6.473-5.999l-2.262-0.474
		c-5.737-1.579-11.946-3.895-11.946-11.578c0-6.684,5.684-10.315,11.946-10.315h2.262c6.315,0,11.525,3.315,11.525,10.262h-5.999
		C95.35,23.007,93.718,21.008,89.981,21.008L89.981,21.008z M87.032,59.628v-48.47h4.595v48.47H87.032L87.032,59.628z
		 M29.969,108.842H9.807v-61.56h8.871l11.291,12.097V108.842z M37.043,90.497l-11.253,0c-1.036,0-1.876-0.84-1.876-1.876l0-20.632
		c0-1.036,0.84-1.876,1.876-1.876l82.527,0c1.036,0,1.876,0.84,1.876,1.876l0,20.632c0,1.036-0.84,1.876-1.876,1.876l0,0l-11.253,0
		 M88.486,90.497l-45.016,0 M105.366,71.74c0-1.036-0.84-1.876-1.876-1.876l-75.024,0c-1.036,0-1.876,0.84-1.876,1.876l0,13.13
		c0,1.036,0.84,1.876,1.876,1.876l75.024,0c1.036,0,1.876-0.821,1.876-1.876L105.366,71.74L105.366,71.74z M27.688,88.622
		l11.818-20.632h14.559L42.153,88.622H27.688z M54.396,88.622l11.818-20.632h14.559L68.861,88.622H54.396z M80.028,88.622
		l11.818-20.632h14.559L94.493,88.622H80.028z"/>
</g>
<g id="phase3">
	<g>
		<g>
			<path fill-rule="evenodd" clip-rule="evenodd" fill="#3A3A3A" d="M56.482,20.16H43.761l-3.369,19.079h16.09V20.16z M76.268,20.16
				H63.548v19.079h16.09L76.268,20.16z M63.548,54.619V99.84H90.34l-7.975-45.157L63.548,54.619z M29.69,99.84h26.792V54.595
				l-18.791-0.064L29.69,99.84z M18.957,45.417v4.687h7.338v5.427h4.955v-5.427h58.235v5.427h4.955v-5.427h6.601v-4.687H18.957z"/>
		</g>
	</g>
</g>
<g id="phase2">
	<path fill="#3A3A3A" d="M90.16,74.41H31.787h-13.62H9.411V60.79h33.911c0.048,0.002,0.092,0.014,0.14,0.014s0.092-0.012,0.14-0.014
		h30.844c0.048,0.002,0.092,0.014,0.14,0.014s0.092-0.012,0.14-0.014h35.861v13.62h-6.808H90.16L90.16,74.41z M96.97,83.371
		c0,3.761-3.049,6.81-6.81,6.81c-3.761,0-6.81-3.049-6.81-6.81c0-3.761,3.049-6.81,6.81-6.81
		C93.921,76.561,96.97,79.609,96.97,83.371L96.97,83.371z M103.78,76.561c3.76,0,6.808,3.049,6.808,6.81
		c0,3.761-3.049,6.81-6.808,6.81c-3.761,0-6.81-3.049-6.81-6.81C96.97,79.609,100.019,76.561,103.78,76.561L103.78,76.561z
		 M24.977,83.371c0,3.761-3.049,6.81-6.81,6.81c-3.76,0-6.808-3.049-6.808-6.81c0-3.761,3.049-6.81,6.808-6.81
		C21.928,76.561,24.977,79.609,24.977,83.371L24.977,83.371z M31.787,76.561c3.761,0,6.81,3.049,6.81,6.81
		c0,3.761-3.049,6.81-6.81,6.81s-6.81-3.049-6.81-6.81C24.977,79.609,28.026,76.561,31.787,76.561L31.787,76.561z M75.866,44.716
		c-4.246,0-7.698,3.231-8.135,7.359l-13.637-0.034c-0.455-4.114-3.898-7.325-8.133-7.325c-4.219,0-7.659,3.193-8.128,7.284
		l-5.338-0.014c0,0-0.064-1.754,0.014-5.477c0.059-2.799,6.381-7.621,8.135-7.81c4.908-0.528,9.983-1.01,9.983-1.01
		s3.026-4.132,4.021-5.823c0.394-0.275,0.728-1.8,2.947-1.961c5.134-0.321,13.194,0.366,14.347,0.375
		c1.154,0.011,1.711,0.362,2.414,1.741c0.73,1.427,2.945,6.515,2.945,6.515s5.35,0.451,8.463,0.806
		c1.368,0.157,2.078,0.316,2.69,2.235c0.708,2.205,1.368,10.554,1.368,10.554l-5.814-0.014
		C83.587,47.97,80.124,44.716,75.866,44.716L75.866,44.716z M40.989,52.933c0-2.749,2.23-4.979,4.979-4.979
		c2.751,0,4.981,2.23,4.981,4.979c0,2.751-2.23,4.981-4.981,4.981C43.219,57.914,40.989,55.684,40.989,52.933L40.989,52.933z
		 M70.892,52.933c0-2.749,2.23-4.979,4.981-4.979c2.751,0,4.979,2.23,4.979,4.979c0,2.751-2.228,4.981-4.979,4.981
		C73.122,57.914,70.892,55.684,70.892,52.933L70.892,52.933z"/>
</g>
<g id="phase1">
	<path fill="#3A3A3A" d="M90.679,56.571c-3.474,0-6.299,2.644-6.656,6.021l-11.158-0.028c-0.372-3.366-3.189-5.993-6.654-5.993
		c-3.452,0-6.267,2.612-6.65,5.96l-4.368-0.011c0,0-0.052-1.435,0.011-4.481c0.048-2.29,5.221-6.235,6.656-6.39
		c4.016-0.432,8.168-0.827,8.168-0.827s2.476-3.381,3.29-4.764c0.322-0.225,0.596-1.473,2.411-1.605
		c4.2-0.263,10.795,0.3,11.739,0.307c0.944,0.009,1.4,0.296,1.975,1.424c0.598,1.167,2.409,5.33,2.409,5.33s4.377,0.369,6.924,0.659
		c1.119,0.128,1.7,0.259,2.201,1.828c0.579,1.804,1.119,8.635,1.119,8.635l-4.757-0.011C96.997,59.234,94.163,56.571,90.679,56.571
		L90.679,56.571z M62.143,63.295c0-2.249,1.825-4.074,4.074-4.074c2.251,0,4.076,1.825,4.076,4.074c0,2.251-1.825,4.076-4.076,4.076
		C63.968,67.37,62.143,65.546,62.143,63.295L62.143,63.295z M86.609,63.295c0-2.249,1.825-4.074,4.076-4.074
		s4.074,1.825,4.074,4.074c0,2.251-1.823,4.076-4.074,4.076S86.609,65.546,86.609,63.295L86.609,63.295z M104.185,86.625
		c-1.931,3.361-9.812,4.208-9.812,4.208s-73.103,0.188-77.477,0.188c-4.373,0-5.293-19.171-5.293-19.171h9.378l0.009-0.101h25.252
		l0.017,0.101h62.137C108.397,71.85,108.054,79.887,104.185,86.625L104.185,86.625z M28.088,77.912c-1.691,0-3.061,1.37-3.061,3.061
		c0,1.691,1.37,3.061,3.061,3.061c1.691,0,3.061-1.37,3.061-3.061C31.149,79.282,29.779,77.912,28.088,77.912L28.088,77.912z
		 M40.322,77.912c-1.691,0-3.063,1.37-3.063,3.061c0,1.691,1.372,3.061,3.063,3.061s3.061-1.37,3.061-3.061
		C43.383,79.282,42.013,77.912,40.322,77.912L40.322,77.912z M52.555,77.912c-1.691,0-3.061,1.37-3.061,3.061
		c0,1.691,1.37,3.061,3.061,3.061c1.691,0,3.063-1.37,3.063-3.061C55.617,79.282,54.245,77.912,52.555,77.912L52.555,77.912z
		 M25.033,28.979h14.273l6.373,39.289H21.32L25.033,28.979L25.033,28.979z"/>
</g>
<g id="phase0">
</g>
</svg>
