<?xml version="1.0" encoding="iso-8859-1"?>
<!-- Generator: Adobe Illustrator 17.1.0, SVG Export Plug-In . SVG Version: 6.00 Build 0)  -->
<!DOCTYPE svg PUBLIC "-//W3C//DTD SVG 1.1//EN" "http://www.w3.org/Graphics/SVG/1.1/DTD/svg11.dtd">
<svg version="1.1" xmlns="http://www.w3.org/2000/svg" xmlns:xlink="http://www.w3.org/1999/xlink" x="0px" y="0px" width="120px"
	 height="120px" viewBox="0 0 120 120" enable-background="new 0 0 120 120" xml:space="preserve">
<g id="Layer_4" display="none">
	<circle display="inline" opacity="0.5" fill="#DF1F26" cx="60" cy="60" r="60"/>
	<rect x="6.5" y="6.5" display="inline" opacity="0.5" fill="#3B4FA1" width="107" height="107"/>
</g>
<g id="normal">
	<g>
		<path fill-rule="evenodd" clip-rule="evenodd" fill="#EB6900" d="M94.641,30.254l-0.096,22.823l-9.168,0.037l0.095-22.51
			c0-0.091,0.038-0.206,0.059-0.312l-7.42,0.031L90.219,6.5l11.907,23.723L94.641,30.254L94.641,30.254z M67.554,52.832
			l0.048-11.246l11.981-0.05l-0.048,11.246L67.554,52.832L67.554,52.832z M48.906,52.908l0.048-11.245l11.981-0.05L60.89,52.859
			L48.906,52.908L48.906,52.908z M30.259,52.986c0,0-0.479-4.101,3.189-7.809c3.813-3.853,8.841-3.487,8.841-3.487l-0.048,11.246
			L30.259,52.986L30.259,52.986z M42.165,71.317l-11.983,0.05l0.048-11.246l11.981-0.05L42.165,71.317L42.165,71.317z
			 M42.088,89.696l-11.983,0.05L30.153,78.5l11.982-0.048L42.088,89.696L42.088,89.696z M41.81,105.21l-21.836,0.09l-8.099-9.005
			l29.973-0.123L41.81,105.21L41.81,105.21z"/>
		<path fill-rule="evenodd" clip-rule="evenodd" fill="#3A3A3A" d="M89.043,85.088H57.747c-1.572,0-2.846-1.596-2.846-3.565v-7.132
			c0-1.97,1.274-3.567,2.846-3.567h31.296l8.536,7.132L89.043,85.088L89.043,85.088z M77.647,111.129
			c0,1.309-1.062,2.371-2.371,2.371h-0.962c-1.309,0-2.371-1.062-2.371-2.371V89.792h5.704V111.129L77.647,111.129z"/>
	</g>
</g>
<g id="active">
	<g>
		<path fill-rule="evenodd" clip-rule="evenodd" fill="#EB6900" d="M94.641,30.254l-0.096,22.823l-9.168,0.037l0.095-22.51
			c0-0.091,0.038-0.206,0.059-0.312l-7.42,0.031L90.219,6.5l11.907,23.723L94.641,30.254L94.641,30.254z M67.554,52.832
			l0.048-11.246l11.981-0.05l-0.048,11.246L67.554,52.832L67.554,52.832z M48.906,52.908l0.048-11.245l11.981-0.05L60.89,52.859
			L48.906,52.908L48.906,52.908z M30.259,52.986c0,0-0.479-4.101,3.189-7.809c3.813-3.853,8.841-3.487,8.841-3.487l-0.048,11.246
			L30.259,52.986L30.259,52.986z M42.165,71.317l-11.983,0.05l0.048-11.246l11.981-0.05L42.165,71.317L42.165,71.317z
			 M42.088,89.696l-11.983,0.05L30.153,78.5l11.982-0.048L42.088,89.696L42.088,89.696z M41.81,105.21l-21.836,0.09l-8.099-9.005
			l29.973-0.123L41.81,105.21L41.81,105.21z"/>
		<path fill-rule="evenodd" clip-rule="evenodd" fill="#3A3A3A" d="M89.043,85.088H57.747c-1.572,0-2.846-1.596-2.846-3.565v-7.132
			c0-1.97,1.274-3.567,2.846-3.567h31.296l8.536,7.132L89.043,85.088L89.043,85.088z M77.647,111.129
			c0,1.309-1.062,2.371-2.371,2.371h-0.962c-1.309,0-2.371-1.062-2.371-2.371V89.792h5.704V111.129L77.647,111.129z"/>
	</g>
</g>
<g id="disabled" opacity="0.2">
	<g>
		<path fill-rule="evenodd" clip-rule="evenodd" fill="#EB6900" d="M94.641,30.254l-0.096,22.823l-9.168,0.037l0.095-22.51
			c0-0.091,0.038-0.206,0.059-0.312l-7.42,0.031L90.219,6.5l11.907,23.723L94.641,30.254L94.641,30.254z M67.554,52.832
			l0.048-11.246l11.981-0.05l-0.048,11.246L67.554,52.832L67.554,52.832z M48.906,52.908l0.048-11.245l11.981-0.05L60.89,52.859
			L48.906,52.908L48.906,52.908z M30.259,52.986c0,0-0.479-4.101,3.189-7.809c3.813-3.853,8.841-3.487,8.841-3.487l-0.048,11.246
			L30.259,52.986L30.259,52.986z M42.165,71.317l-11.983,0.05l0.048-11.246l11.981-0.05L42.165,71.317L42.165,71.317z
			 M42.088,89.696l-11.983,0.05L30.153,78.5l11.982-0.048L42.088,89.696L42.088,89.696z M41.81,105.21l-21.836,0.09l-8.099-9.005
			l29.973-0.123L41.81,105.21L41.81,105.21z"/>
		<path fill-rule="evenodd" clip-rule="evenodd" fill="#3A3A3A" d="M89.043,85.088H57.747c-1.572,0-2.846-1.596-2.846-3.565v-7.132
			c0-1.97,1.274-3.567,2.846-3.567h31.296l8.536,7.132L89.043,85.088L89.043,85.088z M77.647,111.129
			c0,1.309-1.062,2.371-2.371,2.371h-0.962c-1.309,0-2.371-1.062-2.371-2.371V89.792h5.704V111.129L77.647,111.129z"/>
	</g>
</g>
</svg>
