<?xml version="1.0" encoding="iso-8859-1"?>
<!-- Generator: Adobe Illustrator 17.1.0, SVG Export Plug-In . SVG Version: 6.00 Build 0)  -->
<!DOCTYPE svg PUBLIC "-//W3C//DTD SVG 1.1//EN" "http://www.w3.org/Graphics/SVG/1.1/DTD/svg11.dtd">
<svg version="1.1" xmlns="http://www.w3.org/2000/svg" xmlns:xlink="http://www.w3.org/1999/xlink" x="0px" y="0px" width="120px"
	 height="120px" viewBox="0 0 120 120" enable-background="new 0 0 120 120" xml:space="preserve">
<g id="Layer_4" display="none">
	<circle display="inline" opacity="0.5" fill="#DF1F26" cx="60" cy="60" r="60"/>
	<rect x="6.5" y="6.5" display="inline" opacity="0.5" fill="#3B4FA1" width="107" height="107"/>
</g>
<g id="normal">
	<path fill-rule="evenodd" clip-rule="evenodd" fill="#3A3A3A" d="M47.613,9.247l9.564,23.632c0,0,0.756,3.79-2.635,5.459
		c-3.392,1.666-9.118,3.811-9.118,3.811s-6.949,8.076,3.727,24.552c8.274,12.77,14.939,14.307,18.12,14.792
		c3.392-1.668,7.771-5.647,7.771-5.647s4.011-2.605,6.207,0.192c2.194,2.795,15.115,19.138,15.115,19.138s4.232,4.813,0.196,8.883
		c-4.036,4.071-11.093,8.436-13.866,9.165c-2.772,0.73-6.643,0.059-9.959-2.668c-3.318-2.729-17.595-13.9-33.415-38.483
		c-15.82-24.583-17.625-46.033-17.625-46.033s-0.061-10.505,6.035-14.023c6.097-3.519,10.267-5.346,10.267-5.346
		S44.038,5.508,47.613,9.247L47.613,9.247z"/>
</g>
<g id="active">
	<path fill-rule="evenodd" clip-rule="evenodd" fill="#3A3A3A" d="M47.613,9.247l9.564,23.632c0,0,0.756,3.79-2.635,5.459
		c-3.392,1.666-9.118,3.811-9.118,3.811s-6.949,8.076,3.727,24.552c8.274,12.77,14.939,14.307,18.12,14.792
		c3.392-1.668,7.771-5.647,7.771-5.647s4.011-2.605,6.207,0.192c2.194,2.795,15.115,19.138,15.115,19.138s4.232,4.813,0.196,8.883
		c-4.036,4.071-11.093,8.436-13.866,9.165c-2.772,0.73-6.643,0.059-9.959-2.668c-3.318-2.729-17.595-13.9-33.415-38.483
		c-15.82-24.583-17.625-46.033-17.625-46.033s-0.061-10.505,6.035-14.023c6.097-3.519,10.267-5.346,10.267-5.346
		S44.038,5.508,47.613,9.247L47.613,9.247z"/>
</g>
<g id="disabled" opacity="0.2">
	<path fill-rule="evenodd" clip-rule="evenodd" fill="#3A3A3A" d="M47.613,9.247l9.564,23.632c0,0,0.756,3.79-2.635,5.459
		c-3.392,1.666-9.118,3.811-9.118,3.811s-6.949,8.076,3.727,24.552c8.274,12.77,14.939,14.307,18.12,14.792
		c3.392-1.668,7.771-5.647,7.771-5.647s4.011-2.605,6.207,0.192c2.194,2.795,15.115,19.138,15.115,19.138s4.232,4.813,0.196,8.883
		c-4.036,4.071-11.093,8.436-13.866,9.165c-2.772,0.73-6.643,0.059-9.959-2.668c-3.318-2.729-17.595-13.9-33.415-38.483
		c-15.82-24.583-17.625-46.033-17.625-46.033s-0.061-10.505,6.035-14.023c6.097-3.519,10.267-5.346,10.267-5.346
		S44.038,5.508,47.613,9.247L47.613,9.247z"/>
</g>
</svg>
