<?xml version="1.0" encoding="utf-8"?>
<!-- Generator: Adobe Illustrator 17.1.0, SVG Export Plug-In . SVG Version: 6.00 Build 0)  -->
<!DOCTYPE svg PUBLIC "-//W3C//DTD SVG 1.1//EN" "http://www.w3.org/Graphics/SVG/1.1/DTD/svg11.dtd">
<svg version="1.1" xmlns="http://www.w3.org/2000/svg" xmlns:xlink="http://www.w3.org/1999/xlink" x="0px" y="0px" width="120px"
	 height="120px" viewBox="0 114 120 120" enable-background="new 0 114 120 120" xml:space="preserve">
<g id="Layer_2" display="none">
	<circle display="inline" opacity="0.5" fill="#DF1F26" cx="60" cy="174" r="60"/>
	<rect x="6.5" y="120.5" display="inline" opacity="0.5" fill="#3B4FA1" width="107" height="107"/>
</g>
<g id="normal">
	<polygon fill="#3A3A3A" points="6.5,180.825 85.063,180.825 55.347,210.545 65.889,222.962 113.5,173.4 65.588,125.038 
		55.347,136.252 85.063,165.972 6.5,165.972 	"/>
</g>
<g id="active">
	<polygon fill="#3A3A3A" points="6.5,180.825 85.063,180.825 55.347,210.545 65.889,222.962 113.5,173.4 65.588,125.038 
		55.347,136.252 85.063,165.972 6.5,165.972 	"/>
</g>
<g id="disabled" opacity="0.2">
	<polygon fill="#3A3A3A" points="6.5,180.825 85.063,180.825 55.347,210.545 65.889,222.962 113.5,173.4 65.588,125.038 
		55.347,136.252 85.063,165.972 6.5,165.972 	"/>
</g>
</svg>
