<?xml version="1.0" encoding="utf-8"?>
<!-- Generator: Adobe Illustrator 16.0.2, SVG Export Plug-In . SVG Version: 6.00 Build 0)  -->
<!DOCTYPE svg PUBLIC "-//W3C//DTD SVG 1.1//EN" "http://www.w3.org/Graphics/SVG/1.1/DTD/svg11.dtd">
<svg version="1.1"
	 id="svg2" xmlns:svg="http://www.w3.org/2000/svg" xmlns:inkscape="http://www.inkscape.org/namespaces/inkscape" xmlns:sodipodi="http://sodipodi.sourceforge.net/DTD/sodipodi-0.dtd" xmlns:rdf="http://www.w3.org/1999/02/22-rdf-syntax-ns#" xmlns:cc="http://creativecommons.org/ns#" xmlns:dc="http://purl.org/dc/elements/1.1/" inkscape:version="0.48.2 r9819" sodipodi:docname="Nuovo documento 1"
	 xmlns="http://www.w3.org/2000/svg" xmlns:xlink="http://www.w3.org/1999/xlink" x="0px" y="0px" width="120px" height="120px"
	 viewBox="0 0 120 120" enable-background="new 0 0 120 120" xml:space="preserve">
<defs>
	
	
		<inkscape:path-effect  scale_y_rel="false" copytype="single_stretched" is_visible="true" normal_offset="0" prop_scale="1" prop_units="false" pattern="m -64.649763,239.35539 10,5 0,-10 z" fuse_tolerance="0" id="path-effect3847" spacing="0" tang_offset="0" effect="skeletal" vertical_pattern="false">
		</inkscape:path-effect>
	
		<inkscape:path-effect  scale_y_rel="false" copytype="single_stretched" is_visible="true" normal_offset="0" prop_scale="1" prop_units="false" pattern="M 0,0 0,10 10,5 z" fuse_tolerance="0" id="path-effect3843" spacing="0" tang_offset="0" effect="skeletal" vertical_pattern="false">
		</inkscape:path-effect>
	
		<inkscape:path-effect  scale_y_rel="false" copytype="single_stretched" is_visible="true" normal_offset="0" prop_scale="1" prop_units="false" pattern="M 0,5 10,10 10,0 z" fuse_tolerance="0" id="path-effect3833" spacing="0" tang_offset="0" effect="skeletal" vertical_pattern="false">
		</inkscape:path-effect>
	
		<inkscape:path-effect  scale_y_rel="false" copytype="single_stretched" is_visible="true" normal_offset="0" prop_scale="1" prop_units="false" pattern="M 0,0 0,10 10,5 z" fuse_tolerance="0" id="path-effect3815" spacing="0" tang_offset="0" effect="skeletal" vertical_pattern="false">
		</inkscape:path-effect>
	
		<inkscape:path-effect  scale_y_rel="false" copytype="single_stretched" is_visible="true" normal_offset="0" prop_scale="1" prop_units="false" pattern="M 0,0 0,10 10,5 z" fuse_tolerance="0" id="path-effect3809" spacing="0" tang_offset="0" effect="skeletal" vertical_pattern="false">
		</inkscape:path-effect>
	
		<inkscape:path-effect  scale_y_rel="false" copytype="single_stretched" is_visible="true" normal_offset="0" prop_scale="1" prop_units="false" pattern="M 0,0 0,10 10,5 z" fuse_tolerance="0" id="path-effect2989" spacing="0" tang_offset="0" effect="skeletal" vertical_pattern="false">
		</inkscape:path-effect>
	
		<inkscape:path-effect  scale_y_rel="false" copytype="single_stretched" is_visible="true" normal_offset="0" prop_scale="1" prop_units="false" pattern="m -83.59381,-297.85714 10,5 0,-10 z" fuse_tolerance="0" id="path-effect3847-5" spacing="0" tang_offset="0" effect="skeletal" vertical_pattern="false">
		</inkscape:path-effect>
</defs>
<sodipodi:namedview  inkscape:window-x="0" fit-margin-left="0" fit-margin-top="0" id="base" inkscape:cy="289.09634" inkscape:cx="651.5481" borderopacity="1.0" showgrid="false" pagecolor="#ffffff" bordercolor="#666666" inkscape:zoom="0.49497475" inkscape:window-height="722" inkscape:document-units="px" inkscape:window-width="1278" inkscape:current-layer="g3874" inkscape:pageopacity="0.0" inkscape:pageshadow="2" fit-margin-bottom="0" fit-margin-right="0" inkscape:window-maximized="1" inkscape:window-y="25">
	</sodipodi:namedview>
<g id="layer1" transform="translate(-304.48453,-524.21875)" inkscape:label="Livello 1" inkscape:groupmode="layer">
	<g id="g3874">
		
			<path id="path3835" sodipodi:nodetypes="csssccssscc" inkscape:connector-curvature="0" fill="#3A3A3A" stroke="#3A3A3A" stroke-width="0.8069" d="
			M362.926,529.217c-4.766,1.862-17.35,6.667-18.924,13.733c-1.156,5.196,17.077,9.953,8.138,16.022
			c-11.061,7.509-25.956,11.557-38.452,23.271c-19.768,18.533,36.127,46.508,44.555,54.933l61.242,0.596
			c-36.86-20.66-94.641-41.957-81.994-52.855c12.694-10.943,14.98-12.328,26.654-23.271c8.501-7.973-12.815-15.55-15.259-19.457
			c-3.763-6.01,11.416-10.89,15.103-12.856L362.926,529.217z"/>
		<path inkscape:connector-curvature="0" fill="#3A3A3A" stroke="#FFFFFF" stroke-width="0.8069" d="M363.358,529.354
			c-1.599,0.611-3.194,1.261-4.788,1.97c-1.946,0.866-3.888,1.807-5.82,2.939c-0.885,0.518-1.77,1.077-2.645,1.72l0,0
			c-0.716,0.525-1.429,1.101-2.123,1.832l0,0c-0.266,0.281-0.53,0.585-0.785,0.946c-0.195,0.272-0.387,0.577-0.56,0.964
			c-0.12,0.266-0.237,0.586-0.303,1.006c-0.026,0.163-0.042,0.347-0.042,0.531c0,0.187,0.017,0.369,0.045,0.533l0,0
			c0.028,0.16,0.069,0.287,0.111,0.393c0.059,0.152,0.124,0.278,0.189,0.395c0.188,0.334,0.391,0.597,0.593,0.845
			c0.278,0.338,0.562,0.639,0.846,0.929l0,0c0.349,0.351,0.701,0.681,1.052,1c0.839,0.76,1.684,1.468,2.529,2.162
			c0.924,0.764,1.85,1.515,2.772,2.282c0.878,0.73,1.754,1.472,2.624,2.276c0.706,0.649,1.407,1.328,2.085,2.15
			c0.246,0.299,0.487,0.613,0.716,0.988l0,0c0.157,0.257,0.31,0.522,0.424,0.879c0.038,0.116,0.07,0.231,0.086,0.353
			c0.012,0.091,0.017,0.186,0.01,0.259l0,0c-0.005,0.087-0.029,0.175-0.058,0.263c-0.043,0.122-0.098,0.217-0.161,0.306
			c-0.065,0.097-0.138,0.171-0.214,0.251l0,0c-0.119,0.123-0.241,0.238-0.363,0.354c-0.372,0.342-0.747,0.657-1.126,0.966
			c-1.188,0.977-2.382,1.891-3.577,2.797c-3.462,2.626-6.933,5.147-10.407,7.659l0,0c-3.613,2.613-7.229,5.205-10.843,7.802
			c-1.375,0.987-2.75,1.974-4.124,2.973c-0.827,0.598-1.656,1.193-2.482,1.831c-0.52,0.401-1.04,0.864-1.542,1.47l0,0
			c-0.358,0.426-0.715,0.931-1.037,1.627c-0.121,0.261-0.236,0.554-0.34,0.896l0,0c-0.087,0.287-0.163,0.611-0.221,0.978l0,0
			c-0.052,0.327-0.083,0.685-0.093,1.054c-0.007,0.364,0.008,0.729,0.042,1.071c0.085,0.813,0.25,1.5,0.433,2.065
			c0.249,0.785,0.536,1.435,0.828,2.021c0.382,0.765,0.784,1.427,1.191,2.039c0.501,0.759,1.013,1.44,1.53,2.086l0,0
			c1.298,1.619,2.627,2.997,3.965,4.289l0,0c1.649,1.59,3.314,3.03,4.985,4.397l0,0c4.002,3.272,8.043,6.133,12.094,8.84
			c4.438,2.966,8.891,5.725,13.353,8.378c4.232,2.515,8.477,4.932,12.72,7.288c3.397,1.893,6.798,3.73,10.196,5.578l0,0
			c1.188,0.646,2.374,1.289,3.561,1.951c0.432,0.244,0.859,0.484,1.289,0.733c0.311,0.177,0.616,0.362,0.924,0.556l0.149-2.007
			c-0.312-0.19-0.626-0.372-0.937-0.549c-0.437-0.246-0.863-0.479-1.297-0.712c-1.188-0.648-2.377-1.275-3.566-1.902
			c-3.402-1.8-6.807-3.596-10.203-5.431c-4.251-2.296-8.494-4.647-12.729-7.104c-4.46-2.58-8.914-5.275-13.353-8.17
			c-4.051-2.646-8.087-5.439-12.087-8.652l0,0c-1.668-1.336-3.33-2.746-4.974-4.309l0,0c-1.333-1.266-2.655-2.615-3.941-4.197l0,0
			c-0.512-0.629-1.016-1.293-1.508-2.026c-0.4-0.597-0.789-1.231-1.155-1.955c-0.281-0.556-0.547-1.151-0.768-1.851
			c-0.16-0.514-0.299-1.053-0.356-1.645c-0.023-0.242-0.035-0.486-0.029-0.72c0.004-0.237,0.025-0.476,0.059-0.699
			c0.039-0.251,0.096-0.495,0.164-0.724l0,0c0.082-0.275,0.178-0.521,0.284-0.754c0.283-0.629,0.614-1.094,0.957-1.515l0,0
			c0.481-0.587,0.985-1.044,1.497-1.444c0.821-0.649,1.647-1.256,2.474-1.867l0,0c1.372-1.017,2.745-2.022,4.118-3.031
			c3.609-2.648,7.221-5.289,10.829-7.958l0,0c3.469-2.563,6.936-5.136,10.396-7.812c1.195-0.925,2.388-1.855,3.576-2.852
			c0.376-0.317,0.754-0.637,1.128-0.987c0.124-0.116,0.247-0.233,0.369-0.365c0.075-0.08,0.153-0.163,0.231-0.276l0,0
			c0.069-0.097,0.139-0.224,0.201-0.396c0.045-0.124,0.085-0.289,0.103-0.495l0,0c0.015-0.193,0.006-0.384-0.02-0.549
			c-0.029-0.202-0.072-0.366-0.119-0.501c-0.137-0.412-0.304-0.703-0.466-0.958l0,0c-0.238-0.382-0.484-0.702-0.734-1.001
			c-0.688-0.822-1.394-1.493-2.103-2.135c-0.873-0.791-1.753-1.523-2.633-2.243l0,0c-0.925-0.753-1.852-1.489-2.775-2.239
			c-0.847-0.685-1.691-1.378-2.531-2.122c-0.352-0.314-0.703-0.637-1.05-0.985c-0.284-0.281-0.566-0.576-0.843-0.91
			c-0.201-0.242-0.399-0.495-0.583-0.816c-0.062-0.111-0.124-0.227-0.176-0.363c-0.038-0.099-0.072-0.199-0.09-0.313
			c-0.023-0.132-0.037-0.275-0.038-0.42c-0.001-0.142,0.012-0.289,0.032-0.425c0.055-0.361,0.162-0.65,0.277-0.913
			c0.165-0.373,0.352-0.672,0.543-0.946c0.25-0.359,0.512-0.665,0.776-0.946l0,0c0.689-0.74,1.398-1.323,2.112-1.855
			c0.874-0.657,1.755-1.227,2.64-1.759c1.928-1.158,3.868-2.127,5.813-3.021C360.165,530.66,361.761,529.988,363.358,529.354
			L363.358,529.354z"/>
	</g>
</g>
<g>
	<g>
		<path fill="#3A3A3A" d="M89.422,10.377c4.688,0,7.03,3.196,7.03,6.853c0,4.565-4.07,8.789-9.375,8.789
			c-4.44,0-7.03-2.626-6.907-6.962C80.17,15.401,83.253,10.377,89.422,10.377z M74.986,80.377c-3.699,0-6.414-2.283-3.822-12.329
			l4.25-17.821c0.738-2.854,0.859-3.995,0-3.995c-1.113,0-5.916,1.972-8.757,3.913l-1.849-3.083
			c9.004-7.649,19.362-12.134,23.801-12.134c3.699,0,4.318,4.452,2.468,11.303l-4.862,18.732c-0.863,3.313-0.492,4.452,0.367,4.452
			c1.109,0,4.751-1.376,8.328-4.229l2.097,2.856C88.25,76.945,78.689,80.377,74.986,80.377z"/>
	</g>
</g>
</svg>
