<?xml version="1.0" encoding="iso-8859-1"?>
<!-- Generator: Adobe Illustrator 17.1.0, SVG Export Plug-In . SVG Version: 6.00 Build 0)  -->
<!DOCTYPE svg PUBLIC "-//W3C//DTD SVG 1.1//EN" "http://www.w3.org/Graphics/SVG/1.1/DTD/svg11.dtd">
<svg version="1.1" xmlns="http://www.w3.org/2000/svg" xmlns:xlink="http://www.w3.org/1999/xlink" x="0px" y="0px" width="120px"
	 height="120px" viewBox="0 0 120 120" enable-background="new 0 0 120 120" xml:space="preserve">
<g id="Layer_4" display="none">
	<circle display="inline" opacity="0.5" fill="#DF1F26" cx="60" cy="60" r="60"/>
	<rect x="6.5" y="6.5" display="inline" opacity="0.5" fill="#3B4FA1" width="107" height="107"/>
</g>
<g id="normal">
	<g>
		<g>
			<path fill="#3A3A3A" d="M85.464,64.693h-6.938v11.516h6.938c1.96,0,3.445-0.534,4.457-1.602c1.012-1.068,1.517-2.429,1.517-4.084
				c0-1.686-0.502-3.08-1.506-4.18C88.93,65.244,87.44,64.693,85.464,64.693z M60.524,52.237v49.658h48.62V52.237H60.524z
				 M94.98,78.569c-2.312,2.04-5.485,3.06-9.516,3.06h-6.938v12.72h-7.034V59.273h13.972c4.031,0,7.204,1.028,9.516,3.083
				c2.312,2.056,3.469,4.762,3.469,8.118C98.45,73.832,97.293,76.53,94.98,78.569z M61.224,44.423v-3.226
				c4.762-0.282,10.226-1.682,15.548-3.922c0.913,2.383,1.693,4.765,2.335,7.148h4.141c-0.726-2.794-1.628-5.671-2.693-8.55
				c4.202-1.821,7.985-3.781,10.927-5.882c3.726,4.132,6.603,9.017,8.453,14.432h4.56C98.404,25.171,80.591,11.5,59.126,11.5
				C32.511,11.5,11.5,32.511,11.5,59.126c0,24.489,17.792,44.219,41.367,47.217v-4.327c-0.065-0.011-0.123-0.015-0.188-0.027
				c-3.92-5.183-7.284-11.347-9.802-17.651c3.326-1.174,6.719-1.998,9.99-2.489v-4.291c-3.662,0.638-7.562,1.806-11.392,3.42
				c-2.522-6.724-4.061-13.448-4.343-19.751h15.735v-4.202H37.131c0.282-6.583,1.822-13.167,4.343-19.75
				c5.322,2.24,10.786,3.64,15.548,3.922v3.226H61.224z M88.541,27.047c-2.522,1.821-5.745,3.642-9.388,5.183
				c-2.099-5.322-4.899-10.506-7.981-14.707C77.755,19.203,83.638,22.565,88.541,27.047z M61.224,15.843
				c1.403,0,2.805,0.139,4.343,0.419c3.783,5.183,7.285,11.068,9.944,17.51c-4.622,1.682-9.661,2.802-14.287,3.082V15.843z
				 M47.079,100.588c-6.583-1.539-12.469-4.901-17.373-9.383c2.663-1.962,5.887-3.783,9.529-5.324
				C41.193,91.204,43.856,96.246,47.079,100.588z M37.692,82.379c-4.203,1.821-7.986,3.781-10.927,5.882
				c-6.443-7.143-10.362-16.529-10.786-27.034h16.95C33.07,67.112,34.751,74.814,37.692,82.379z M32.93,57.025h-16.95
				c0.424-10.506,4.343-19.891,10.786-27.035c2.941,2.101,6.724,4.061,10.927,5.882C34.891,43.437,33.211,51.001,32.93,57.025z
				 M39.094,32.23c-3.643-1.541-6.866-3.362-9.388-5.183c4.904-4.482,10.79-7.844,17.373-9.524
				C43.997,21.725,41.193,26.908,39.094,32.23z M42.736,33.772c2.659-6.442,6.164-12.327,9.943-17.51
				c1.543-0.28,2.941-0.419,4.343-0.419v21.011C52.401,36.574,47.357,35.454,42.736,33.772z"/>
		</g>
	</g>
</g>
<g id="active">
	<g>
		<g>
			<path fill="#3A3A3A" d="M85.464,64.693h-6.938v11.516h6.938c1.96,0,3.445-0.534,4.457-1.602c1.012-1.068,1.517-2.429,1.517-4.084
				c0-1.686-0.502-3.08-1.506-4.18C88.93,65.244,87.44,64.693,85.464,64.693z M60.524,52.237v49.658h48.62V52.237H60.524z
				 M94.98,78.569c-2.312,2.04-5.485,3.06-9.516,3.06h-6.938v12.72h-7.034V59.273h13.972c4.031,0,7.204,1.028,9.516,3.083
				c2.312,2.056,3.469,4.762,3.469,8.118C98.45,73.832,97.293,76.53,94.98,78.569z M61.224,44.423v-3.226
				c4.762-0.282,10.226-1.682,15.548-3.922c0.913,2.383,1.693,4.765,2.335,7.148h4.141c-0.726-2.794-1.628-5.671-2.693-8.55
				c4.202-1.821,7.985-3.781,10.927-5.882c3.726,4.132,6.603,9.017,8.453,14.432h4.56C98.404,25.171,80.591,11.5,59.126,11.5
				C32.511,11.5,11.5,32.511,11.5,59.126c0,24.489,17.792,44.219,41.367,47.217v-4.327c-0.065-0.011-0.123-0.015-0.188-0.027
				c-3.92-5.183-7.284-11.347-9.802-17.651c3.326-1.174,6.719-1.998,9.99-2.489v-4.291c-3.662,0.638-7.562,1.806-11.392,3.42
				c-2.522-6.724-4.061-13.448-4.343-19.751h15.735v-4.202H37.131c0.282-6.583,1.822-13.167,4.343-19.75
				c5.322,2.24,10.786,3.64,15.548,3.922v3.226H61.224z M88.541,27.047c-2.522,1.821-5.745,3.642-9.388,5.183
				c-2.099-5.322-4.899-10.506-7.981-14.707C77.755,19.203,83.638,22.565,88.541,27.047z M61.224,15.843
				c1.403,0,2.805,0.139,4.343,0.419c3.783,5.183,7.285,11.068,9.944,17.51c-4.622,1.682-9.661,2.802-14.287,3.082V15.843z
				 M47.079,100.588c-6.583-1.539-12.469-4.901-17.373-9.383c2.663-1.962,5.887-3.783,9.529-5.324
				C41.193,91.204,43.856,96.246,47.079,100.588z M37.692,82.379c-4.203,1.821-7.986,3.781-10.927,5.882
				c-6.443-7.143-10.362-16.529-10.786-27.034h16.95C33.07,67.112,34.751,74.814,37.692,82.379z M32.93,57.025h-16.95
				c0.424-10.506,4.343-19.891,10.786-27.035c2.941,2.101,6.724,4.061,10.927,5.882C34.891,43.437,33.211,51.001,32.93,57.025z
				 M39.094,32.23c-3.643-1.541-6.866-3.362-9.388-5.183c4.904-4.482,10.79-7.844,17.373-9.524
				C43.997,21.725,41.193,26.908,39.094,32.23z M42.736,33.772c2.659-6.442,6.164-12.327,9.943-17.51
				c1.543-0.28,2.941-0.419,4.343-0.419v21.011C52.401,36.574,47.357,35.454,42.736,33.772z"/>
		</g>
	</g>
</g>
<g id="disabled" opacity="0.2">
	<g>
		<g>
			<path fill="#3A3A3A" d="M85.464,64.693h-6.938v11.516h6.938c1.96,0,3.445-0.534,4.457-1.602c1.012-1.068,1.517-2.429,1.517-4.084
				c0-1.686-0.502-3.08-1.506-4.18C88.93,65.244,87.44,64.693,85.464,64.693z M60.524,52.237v49.658h48.62V52.237H60.524z
				 M94.98,78.569c-2.312,2.04-5.485,3.06-9.516,3.06h-6.938v12.72h-7.034V59.273h13.972c4.031,0,7.204,1.028,9.516,3.083
				c2.312,2.056,3.469,4.762,3.469,8.118C98.45,73.832,97.293,76.53,94.98,78.569z M61.224,44.423v-3.226
				c4.762-0.282,10.226-1.682,15.548-3.922c0.913,2.383,1.693,4.765,2.335,7.148h4.141c-0.726-2.794-1.628-5.671-2.693-8.55
				c4.202-1.821,7.985-3.781,10.927-5.882c3.726,4.132,6.603,9.017,8.453,14.432h4.56C98.404,25.171,80.591,11.5,59.126,11.5
				C32.511,11.5,11.5,32.511,11.5,59.126c0,24.489,17.792,44.219,41.367,47.217v-4.327c-0.065-0.011-0.123-0.015-0.188-0.027
				c-3.92-5.183-7.284-11.347-9.802-17.651c3.326-1.174,6.719-1.998,9.99-2.489v-4.291c-3.662,0.638-7.562,1.806-11.392,3.42
				c-2.522-6.724-4.061-13.448-4.343-19.751h15.735v-4.202H37.131c0.282-6.583,1.822-13.167,4.343-19.75
				c5.322,2.24,10.786,3.64,15.548,3.922v3.226H61.224z M88.541,27.047c-2.522,1.821-5.745,3.642-9.388,5.183
				c-2.099-5.322-4.899-10.506-7.981-14.707C77.755,19.203,83.638,22.565,88.541,27.047z M61.224,15.843
				c1.403,0,2.805,0.139,4.343,0.419c3.783,5.183,7.285,11.068,9.944,17.51c-4.622,1.682-9.661,2.802-14.287,3.082V15.843z
				 M47.079,100.588c-6.583-1.539-12.469-4.901-17.373-9.383c2.663-1.962,5.887-3.783,9.529-5.324
				C41.193,91.204,43.856,96.246,47.079,100.588z M37.692,82.379c-4.203,1.821-7.986,3.781-10.927,5.882
				c-6.443-7.143-10.362-16.529-10.786-27.034h16.95C33.07,67.112,34.751,74.814,37.692,82.379z M32.93,57.025h-16.95
				c0.424-10.506,4.343-19.891,10.786-27.035c2.941,2.101,6.724,4.061,10.927,5.882C34.891,43.437,33.211,51.001,32.93,57.025z
				 M39.094,32.23c-3.643-1.541-6.866-3.362-9.388-5.183c4.904-4.482,10.79-7.844,17.373-9.524
				C43.997,21.725,41.193,26.908,39.094,32.23z M42.736,33.772c2.659-6.442,6.164-12.327,9.943-17.51
				c1.543-0.28,2.941-0.419,4.343-0.419v21.011C52.401,36.574,47.357,35.454,42.736,33.772z"/>
		</g>
	</g>
</g>
</svg>
