<?xml version="1.0" encoding="utf-8"?>
<!-- Generator: Adobe Illustrator 17.0.1, SVG Export Plug-In . SVG Version: 6.00 Build 0)  -->
<!DOCTYPE svg PUBLIC "-//W3C//DTD SVG 1.1//EN" "http://www.w3.org/Graphics/SVG/1.1/DTD/svg11.dtd">
<svg version="1.1" id="Layer_1" xmlns="http://www.w3.org/2000/svg" xmlns:xlink="http://www.w3.org/1999/xlink" x="0px" y="0px"
	 width="114px" height="114px" viewBox="0 0 114 114" enable-background="new 0 0 114 114" xml:space="preserve">
<g id="phase10">
	<path fill-rule="evenodd" clip-rule="evenodd" fill="#3A3A3A" d="M69.057,96.71c-0.062-0.151-0.154-0.294-0.305-0.414
		c-0.511-0.405-1.337-0.405-1.848,0l-0.556,0.441h-5.71l8.113-6.442c0.51-0.405,0.51-1.06,0-1.465c-0.511-0.405-1.337-0.405-1.848,0
		l-9.958,7.907h-0.864l-9.96-7.907c-0.51-0.405-1.337-0.405-1.846,0c-0.51,0.405-0.51,1.06,0,1.465l8.113,6.442h-5.712l-0.556-0.441
		c-0.51-0.405-1.337-0.405-1.846,0c-0.129,0.102-0.224,0.221-0.287,0.346c-2.851-0.357-4.981-1.816-4.981-4.669
		c0,0,1.176-2.981,1.176-5.886c0-15.236,0-62.809,0-62.809c0-3.323,2.692-6.015,6.015-6.015h0.157l8.912,7.077
		c0.065,0.122,0.064,0.26,0.189,0.36c0.29,0.23,0.679,0.314,1.057,0.283c0.378,0.032,0.767-0.052,1.056-0.283
		c0.125-0.1,0.125-0.238,0.189-0.36l8.913-7.077h1.127c3.323,0,6.015,2.692,6.015,6.015c0,0,0,45.912,0,61.974
		c0,3.407,1.178,6.721,1.178,6.721C74.992,95.135,72.371,96.575,69.057,96.71L69.057,96.71z M68.752,21.613
		c-0.511-0.405-1.337-0.405-1.848,0l-10.39,8.248l-10.391-8.248c-0.51-0.405-1.337-0.405-1.846,0s-0.51,1.06,0,1.465l10.991,8.728
		c0.065,0.122,0.064,0.26,0.189,0.36c0.29,0.23,0.679,0.314,1.057,0.284c0.378,0.03,0.767-0.054,1.056-0.284
		c0.125-0.1,0.125-0.238,0.189-0.36l10.993-8.728C69.261,22.673,69.261,22.018,68.752,21.613L68.752,21.613z M68.752,29.079
		c-0.511-0.405-1.337-0.405-1.848,0l-10.39,8.25l-10.391-8.25c-0.51-0.405-1.337-0.405-1.846,0c-0.51,0.405-0.51,1.06,0,1.465
		l10.991,8.728c0.065,0.122,0.064,0.26,0.189,0.36c0.29,0.23,0.679,0.314,1.057,0.284c0.378,0.03,0.767-0.054,1.056-0.284
		c0.125-0.1,0.125-0.238,0.189-0.36l10.993-8.728C69.261,30.139,69.261,29.483,68.752,29.079L68.752,29.079z M68.752,36.49
		c-0.511-0.405-1.337-0.405-1.848,0l-10.39,8.25l-10.391-8.25c-0.51-0.405-1.337-0.405-1.846,0s-0.51,1.06,0,1.465l10.991,8.728
		c0.065,0.122,0.064,0.262,0.189,0.36c0.29,0.23,0.679,0.314,1.057,0.284c0.378,0.03,0.767-0.054,1.056-0.284
		c0.125-0.098,0.125-0.238,0.189-0.36l10.993-8.728C69.261,37.551,69.261,36.895,68.752,36.49L68.752,36.49z M68.752,43.956
		c-0.511-0.405-1.337-0.405-1.848,0l-10.39,8.25l-10.391-8.25c-0.51-0.405-1.337-0.405-1.846,0s-0.51,1.06,0,1.465l10.991,8.728
		c0.065,0.122,0.064,0.262,0.189,0.36c0.29,0.23,0.679,0.314,1.057,0.284c0.378,0.03,0.767-0.054,1.056-0.284
		c0.125-0.098,0.125-0.238,0.189-0.36l10.993-8.728C69.261,45.016,69.261,44.361,68.752,43.956L68.752,43.956z M68.752,51.422
		c-0.511-0.405-1.337-0.405-1.848,0l-10.39,8.25l-10.391-8.25c-0.51-0.405-1.337-0.405-1.846,0s-0.51,1.06,0,1.465l10.991,8.728
		c0.065,0.122,0.064,0.262,0.189,0.36c0.29,0.23,0.679,0.314,1.057,0.284c0.378,0.03,0.767-0.054,1.056-0.284
		c0.125-0.098,0.125-0.238,0.189-0.36l10.993-8.728C69.261,52.482,69.261,51.826,68.752,51.422L68.752,51.422z M68.752,58.833
		c-0.511-0.405-1.337-0.405-1.848,0l-10.39,8.25l-10.391-8.25c-0.51-0.405-1.337-0.405-1.846,0c-0.51,0.405-0.51,1.06,0,1.465
		l10.991,8.728c0.065,0.122,0.064,0.262,0.189,0.362c0.29,0.229,0.679,0.314,1.057,0.283c0.378,0.032,0.767-0.054,1.056-0.283
		c0.125-0.1,0.125-0.24,0.189-0.362l10.993-8.728C69.261,59.894,69.261,59.238,68.752,58.833L68.752,58.833z M68.752,66.299
		c-0.511-0.405-1.337-0.405-1.848,0l-10.39,8.25l-10.391-8.25c-0.51-0.405-1.337-0.405-1.846,0s-0.51,1.06,0,1.467l10.991,8.726
		c0.065,0.124,0.064,0.262,0.189,0.362c0.29,0.229,0.679,0.314,1.057,0.283c0.378,0.032,0.767-0.054,1.056-0.283
		c0.125-0.1,0.125-0.238,0.189-0.362l10.993-8.726C69.261,67.36,69.261,66.704,68.752,66.299L68.752,66.299z M68.752,73.765
		c-0.511-0.405-1.337-0.405-1.848,0l-10.39,8.25l-10.391-8.25c-0.51-0.405-1.337-0.405-1.846,0c-0.51,0.405-0.51,1.062,0,1.467
		l10.991,8.726c0.065,0.124,0.064,0.262,0.189,0.362c0.29,0.229,0.679,0.314,1.057,0.283c0.378,0.032,0.767-0.054,1.056-0.283
		c0.125-0.1,0.125-0.238,0.189-0.362l10.993-8.726C69.261,74.827,69.261,74.17,68.752,73.765L68.752,73.765z M68.752,81.364
		c-0.511-0.405-1.337-0.405-1.848,0l-10.39,8.25l-10.391-8.25c-0.51-0.405-1.337-0.405-1.846,0c-0.51,0.405-0.51,1.06,0,1.465
		l10.991,8.728c0.065,0.122,0.064,0.262,0.189,0.36c0.29,0.23,0.679,0.314,1.057,0.284c0.378,0.03,0.767-0.054,1.056-0.284
		c0.125-0.098,0.125-0.238,0.189-0.36l10.993-8.728C69.261,82.424,69.261,81.769,68.752,81.364L68.752,81.364z M50.049,17.263h12.93
		l-6.464,5.132L50.049,17.263L50.049,17.263z"/>
</g>
<g id="phase9">
	<path fill-rule="evenodd" clip-rule="evenodd" fill="#3A3A3A" d="M47.549,95.717v-0.035h6.027v1.278h-6.027v-0.006h0.101v-1.237
		H47.549L47.549,95.717z M49.522,90.178h-6.025v-1.966h6.025V90.178L49.522,90.178z M43.432,65.881h-6.025v-1.966h6.025V65.881
		L43.432,65.881z M43.432,49.565h-6.025v-1.966h6.025V49.565L43.432,49.565z M47.492,33.449h-6.027v-1.966h6.027V33.449
		L47.492,33.449z M51.27,25.265h-6.027v-1.966h6.027V25.265L51.27,25.265z M66.068,97.844v0.051H55.034
		c0.335-0.248,0.543-0.575,0.543-0.921v-0.021h4.496v-1.237h-4.496v-0.106c0-0.728-0.908-1.319-2.029-1.319h-5.995
		c-1.121,0-2.029,0.591-2.029,1.319v0.106h-2.756v0.081c-1.646-1.312-3.181-3.22-4.553-5.629h3.255v0.032
		c0,1.121,0.908,2.121,2.029,2.121h5.995c1.121,0,2.029-1,2.029-2.121v-0.032h4.342c0.493,0.913,1.672,1.3,2.648,0.895l1.936-0.807
		c1.036-0.43,1.526-1.619,1.094-2.653l-2.303-5.536c-0.43-1.034-1.619-1.524-2.653-1.094l-1.936,0.807
		c-1.036,0.43-1.611,1.654-1.18,2.688l1.579,3.797h-3.528v-0.163c0-1.121-0.908-2.031-2.029-2.031h-5.995
		c-1.121,0-2.029,0.91-2.029,2.031v0.163h-3.921v0.666c-2.939-5.725-5.04-13.814-5.812-23.061h3.644v0.032
		c0,1.12,0.908,2.121,2.029,2.121h5.995c1.121,0,2.029-1.001,2.029-2.121v-0.032h4.498v-1.903h-4.498v-0.164
		c0-1.121-0.908-2.029-2.029-2.029h-5.995c-1.121,0-2.029,0.908-2.029,2.029v0.164h-3.783c-0.122-1.944-0.191-3.929-0.191-5.956
		c0-2.923,0.145-5.758,0.395-8.502h3.579v0.163c0,1.121,0.908,2.029,2.029,2.029h5.995c1.121,0,2.029-0.908,2.029-2.029v-0.163
		h4.498v-1.903h-4.498v-0.032c0-1.121-0.908-2.123-2.029-2.123h-5.995c-1.121,0-2.029,1.001-2.029,2.123v0.032h-3.392
		c0.67-5.937,1.89-11.327,3.531-15.82v1.608h3.921v0.163c0,1.121,0.908,2.029,2.029,2.029h5.995c1.121,0,2.029-0.908,2.029-2.029
		v-0.163h3.569l-0.668,2.33c-0.31,1.077,0.401,2.227,1.48,2.536l2.017,0.578c1.077,0.31,2.202-0.313,2.51-1.391l1.654-5.761
		c0.31-1.079-0.313-2.202-1.391-2.511l-2.015-0.578c-1.079-0.31-2.292,0.287-2.6,1.366l-0.439,1.529h-4.116v-0.032
		c0-1.121-0.908-2.123-2.029-2.123h-5.995c-1.121,0-2.029,1.001-2.029,2.123v0.032H35.63c1.068-2.863,2.298-5.368,3.666-7.396v1.115
		h3.92v0.164c0,1.121,0.91,2.029,2.029,2.029h5.995c1.121,0,2.031-0.908,2.031-2.029v-0.164h3.997
		c0.071,0.486,0.3,0.956,0.682,1.298l1.56,1.401c0.835,0.749,2.119,0.679,2.868-0.156l4.002-4.463
		c0.749-0.834,0.678-2.118-0.156-2.866l-1.562-1.401c-0.835-0.749-2.186-0.739-2.934,0.095l-3.961,4.416v-0.226h-4.496v-0.03
		c0-1.121-0.91-2.123-2.031-2.123h-5.995c-1.12,0-2.029,1.001-2.029,2.123v0.03h-3.361c2.052-2.783,4.376-4.539,6.851-5h3.302v0.021
		c0,0.728,0.908,1.379,2.029,1.379h5.995c1.121,0,2.029-0.651,2.029-1.379v-0.021h4.496v-0.092h0.976
		c0.155-0.011,0.308-0.041,0.464-0.041c9.166,0,16.596,17.835,16.596,39.837C82.595,79.959,75.202,97.753,66.068,97.844
		L66.068,97.844z M35.518,81.986h3.921v0.032c0,1.12,0.908,2.121,2.029,2.121h5.995c1.121,0,2.029-1.001,2.029-2.121v-0.032h4.496
		v-1.903h-4.496v-0.164c0-1.12-0.908-2.029-2.029-2.029h-5.995c-1.121,0-2.029,0.91-2.029,2.029v0.164h-3.921V81.986L35.518,81.986z
		 M49.44,55.727h-3.931v-0.032c0-1.121-0.908-2.121-2.029-2.121h-5.995c-1.121,0-2.029,1-2.029,2.121v0.032h-3.921v1.903h3.921
		v0.163c0,1.121,0.908,2.031,2.029,2.031h5.995c1.121,0,2.029-0.91,2.029-2.031V57.63h3.795l0.21,4.957
		c0.047,1.12,1.087,1.985,2.206,1.938l2.096-0.09c1.12-0.047,1.99-0.993,1.943-2.113l-0.254-5.99
		c-0.049-1.12-0.995-1.988-2.115-1.941l-2.096,0.088C50.484,54.514,49.762,55.026,49.44,55.727L49.44,55.727z M51.96,39.488h-4.496
		v-0.032c0-1.121-0.91-2.123-2.031-2.123h-5.994c-1.121,0-2.031,1.001-2.031,2.123v0.032h-3.92v1.903h3.92v0.163
		c0,1.121,0.91,2.029,2.031,2.029h5.994c1.121,0,2.031-0.908,2.031-2.029v-0.163h4.496V39.488L51.96,39.488z M55.402,41.519
		l-2.07-0.328c-1.109-0.175-2.238,0.565-2.415,1.672l-0.938,5.921c-0.175,1.107,0.67,2.161,1.777,2.337l2.072,0.329
		c1.107,0.175,2.148-0.58,2.323-1.687l0.94-5.921C57.265,42.736,56.509,41.695,55.402,41.519L55.402,41.519z M57.308,75.909
		l-0.826-5.937c-0.153-1.11-1.178-1.886-2.29-1.731l-2.077,0.289c-1.11,0.153-1.977,1.192-1.823,2.303l0.174,1.254h-3.002v-0.163
		c0-1.121-0.91-2.031-2.031-2.031h-5.994c-1.121,0-2.031,0.91-2.031,2.031v0.163h-3.92v1.903h3.92v0.032
		c0,1.121,0.91,2.121,2.031,2.121h5.994c1.121,0,2.031-1,2.031-2.121V73.99h3.268l0.387,2.78c0.155,1.11,1.27,1.873,2.382,1.718
		l2.077-0.287C56.687,78.046,57.463,77.021,57.308,75.909L57.308,75.909z M67.671,27.2c-5.534,0-10.019,13.724-10.019,30.655
		c0,16.93,4.485,30.655,10.019,30.655s10.019-13.724,10.019-30.655C77.691,40.924,73.205,27.2,67.671,27.2L67.671,27.2z M67,86.977
		c-4.537,0-8.723-13.039-8.723-29.123S62.463,28.733,67,28.733c4.537,0,8.012,13.037,8.012,29.121S71.538,86.977,67,86.977
		L67,86.977z M65.596,42.712c-2.359,0-4.272,6.78-4.272,15.144c0,8.362,1.913,15.143,4.272,15.143c2.36,0,4.272-6.78,4.272-15.143
		C69.868,49.492,67.956,42.712,65.596,42.712L65.596,42.712z M52.412,70.51l1.947-0.272l0.831,5.97l-1.949,0.27L52.412,70.51
		L52.412,70.51z M51.96,73.99h-1.229l-0.265-1.903h1.494V73.99L51.96,73.99z M39.436,72.034h6.027V74h-6.027V72.034L39.436,72.034z
		 M52.095,49.122l0.944-5.952l1.943,0.308l-0.944,5.952L52.095,49.122L52.095,49.122z M39.436,39.479h6.027v1.966h-6.027V39.479
		L39.436,39.479z M53.622,62.415l-1.965,0.084l-0.256-6.022l1.965-0.084L53.622,62.415L53.622,62.415z M50.007,57.63h-0.703
		l-0.044-1.033c-0.013-0.31,0.057-0.602,0.18-0.87h0.567V57.63L50.007,57.63z M37.483,55.718h6.025v1.966h-6.025V55.718
		L37.483,55.718z M47.492,81.996h-6.027V80.03h6.027V81.996L47.492,81.996z M64.807,21.841l-4.023,4.487l-1.464-1.312l4.023-4.487
		L64.807,21.841L64.807,21.841z M57.268,25.211c-0.085-0.576,0.052-1.177,0.456-1.63l0.043-0.047v1.677H57.268L57.268,25.211z
		 M58.006,31.069l-1.661,5.791l-1.89-0.542l1.661-5.793L58.006,31.069L58.006,31.069z M53.99,33.395h-0.927l0.546-1.903h0.381
		V33.395L53.99,33.395z M59.57,88.429l-1.815,0.755l-2.315-5.564l1.816-0.755L59.57,88.429L59.57,88.429z M56.021,90.169h-0.156
		c-0.03-0.055-0.065-0.106-0.09-0.164l-0.723-1.739h0.97V90.169L56.021,90.169z M47.552,98.353c-0.878,0-1.619-0.4-1.902-0.922
		c0.695,0.237,1.402,0.381,2.123,0.404v0.06h7.26c-0.371,0.276-0.897,0.458-1.486,0.458H47.552L47.552,98.353z M45.523,96.954v0.021
		c0,0.158,0.049,0.311,0.128,0.456c-0.374-0.128-0.744-0.291-1.11-0.477H45.523L45.523,96.954z M59.675,18.217h-1.614v-1.18h-6.027
		v1.18h-1.063v-1.145h-0.963v-0.106c0-0.728,0.908-1.319,2.029-1.319h5.995c1.121,0,2.029,0.591,2.029,1.319v0.106h-0.387V18.217
		L59.675,18.217z M58.061,18.314h-6.027v-0.098h6.027V18.314L58.061,18.314z"/>
</g>
<g id="phase8">
	<path fill-rule="evenodd" clip-rule="evenodd" fill="#3A3A3A" d="M90.881,90.466c-2.856,4.402-11.272,7.413-17.216,7.876
		c-5.943,0.463-19.145,1.467-33.891-6.41c-13.584-7.257-14.011-12.53-15.761-17.032c-2.978-5.671-4.797-13.225-4.797-21.522
		c0-5.167,0.711-10.039,1.962-14.352c0.092-0.424,0.201-0.868,0.351-1.356c5.814-18.954,23.089-21.53,26.587-21.86
		c2.006-0.297,4.088-0.462,6.231-0.462c6.919,0,13.246,1.633,18.151,4.334c6.678,3.027,12.879,11.556,16.034,22.656
		c-0.093,0.055-0.209,0.133-0.318,0.202c-1.794-0.297-3.964-0.56-5.531-0.435c-3.166,0.253-29.323,4.617-31.145,4.981
		c-1.822,0.365-12.846,0.183-13.483,7.47c-0.639,7.288,6.286,13.847,6.286,13.847s2.551,3.553,13.483,4.374
		c10.933,0.819,20.59,0.819,26.786-0.547c6.195-1.366,7.094-4.641,5.276-6.103c-2.382-1.914-7.837-11.752-6.471-17.855
		c0.534-2.384,1.799-3.673,3.174-4.371c-0.993,1.064-1.865,2.586-1.69,4.634c0.378,4.407,2.497,12.533,6.354,15.996
		c1.506,1.696,3.311,4.165,3.488,6.474C95.049,75.023,93.737,86.065,90.881,90.466L90.881,90.466z M32.765,45.902
		c-1.08,0-1.955,1.283-1.955,2.867c0,1.584,0.876,2.867,1.955,2.867s1.955-1.283,1.955-2.867
		C34.72,47.186,33.844,45.902,32.765,45.902L32.765,45.902z M81.593,87.85c5.109-0.278,8.164-1.987,9.454-5.532
		c1.288-3.544-0.006-1.827-0.221-1.505c0,0-2.131,5.14-9.335,5.066C74.285,85.806,80.145,87.929,81.593,87.85L81.593,87.85z
		 M81.593,83.473c5.109-0.28,8.164-1.988,9.454-5.532c1.288-3.545-0.006-1.829-0.221-1.506c0,0-2.131,5.14-9.335,5.066
		C74.285,81.427,80.145,83.552,81.593,83.473L81.593,83.473z M91.167,71.891c0,0-2.132,5.14-9.337,5.066
		c-7.205-0.073-1.345,2.052,0.103,1.973c5.109-0.28,8.164-1.988,9.454-5.532C92.675,69.852,91.38,71.569,91.167,71.891
		L91.167,71.891z"/>
</g>
<g id="phase7">
	<path fill-rule="evenodd" clip-rule="evenodd" fill="#3A3A3A" d="M94.615,83.266l-7.948-4.723c0.564-0.994,0.621-2.278,0.003-3.39
		C85.028,72.192,61.376,31.288,59.9,28.785c-0.491-0.834-1.234-1.36-2.042-1.579v-6.64c1.091,0.235,2.112,0.894,2.769,2.009
		c1.845,3.129,31.408,54.26,33.463,57.963C94.557,81.38,94.718,82.342,94.615,83.266L94.615,83.266z M28.918,78.038
		c-0.872-0.948-1.175-2.395-0.346-3.845c1.118-1.959,23.708-41.076,25.64-44.415c0.4-0.689,0.981-1.133,1.617-1.385V46.12
		L41.827,70.368L28.918,78.038L28.918,78.038z M54.101,28.785c-2.012,3.478-25.544,44.226-26.709,46.265
		c-0.804,1.404-0.58,2.802,0.183,3.786l-8.123,4.827c-0.215-1.027-0.087-2.164,0.539-3.257c1.458-2.549,30.871-53.483,33.387-57.832
		c0.592-1.023,1.482-1.658,2.451-1.943v6.694C55.147,27.583,54.526,28.05,54.101,28.785L54.101,28.785z M83.478,79.008
		c-0.24,0.054-0.485,0.1-0.753,0.1c-2.669,0-49.542,0-51.384,0c-0.071,0-0.136-0.022-0.205-0.027l11.739-6.975h28.988L83.478,79.008
		L83.478,79.008z M59.779,29.778c1.417,2.404,24.122,41.672,25.698,44.515c0.638,1.148,0.515,2.48-0.147,3.456L71.78,69.697
		L57.857,45.583V28.278C58.617,28.494,59.317,28.992,59.779,29.778L59.779,29.778z M30.276,80.169c1.919,0,50.744,0,53.526,0
		c0.455,0,0.853-0.1,1.224-0.24l8.918,5.298c-0.697,1.139-1.884,1.952-3.44,1.952c-0.69,0-3.658,0-7.983,0v2.098h-4.037v-2.098
		c-12.778,0-32.639,0-44.662,0v2.098h-4.037v-2.098c-3.473,0-5.762,0-6.188,0c-1.332,0-2.511-0.66-3.29-1.663l9.171-5.449
		C29.734,80.126,30,80.169,30.276,80.169L30.276,80.169z M23.764,89.346h66.849v0.924h0.021v3.165h-4.037v-2.06H27.738v2.06h-4.037
		V90.27h0.063V89.346L23.764,89.346z M60.249,93.37h-4.037v-1.325h4.037V93.37L60.249,93.37z"/>
</g>
<g id="phase6">
	<path fill="#3A3A3A" d="M90.899,84.996H23.101c-2.139,0-3.873-1.734-3.873-3.873V36.75c0-2.141,1.734-3.875,3.873-3.875h67.797
		c2.139,0,3.873,1.734,3.873,3.875v44.373C94.772,83.262,93.038,84.996,90.899,84.996L90.899,84.996z M75.333,52.135H63.835v-11.57
		H50.248v11.57H38.62v13.587h11.628V77.28h13.587V65.723h11.497V52.135L75.333,52.135z M48.274,28.879
		c0-1.069,0.867-1.936,1.936-1.936h13.562c1.07,0,1.937,0.867,1.937,1.936v1.96H48.274V28.879L48.274,28.879z M85.972,87.057h-7.534
		c-0.595,0-1.077-0.455-1.077-1.015v-1.028h9.687v1.028C87.049,86.602,86.567,87.057,85.972,87.057L85.972,87.057z M35.608,87.057
		h-7.534c-0.595,0-1.077-0.455-1.077-1.015v-1.028h9.687v1.028C36.684,86.602,36.203,87.057,35.608,87.057L35.608,87.057z"/>
</g>
<g id="phase5">
	<path fill-rule="evenodd" clip-rule="evenodd" fill="#3A3A3A" d="M90.851,27.655L64.327,60.956V92.56l-41.178-0.157v-32.42
		l12.261,0.064c-0.13,1.763-0.275,4.243-0.275,6.644c0,4.845,3.927,8.774,8.774,8.774h1.214c4.846,0,8.775-3.929,8.775-8.774
		c0-1.324-0.042-2.73-0.097-4.007c1.027-0.58,1.403-1.406,1.093-2.537l8.092,0.042l25.929-32.555l-3.602-4.451l1.186-0.961
		l4.348,5.371l-0.036,0.03L90.851,27.655L90.851,27.655z M42.277,67.348c0,1.543-1.25,2.793-2.793,2.793
		c-1.543,0-2.793-1.25-2.793-2.793c0-1.543,1.25-2.793,2.793-2.793C41.027,64.555,42.277,65.805,42.277,67.348L42.277,67.348z
		 M64.27,45.82c-1.794,5.381-4.209,8.669-6.449,10.673c-0.861,0.724-1.781,1.378-2.759,1.95c-0.349,0.185-0.683,0.346-0.993,0.474
		c-0.416,0.174-0.49,0.253-0.316,0.229c-0.049,0.024-0.096,0.052-0.145,0.075c-0.036-0.534-0.061-0.856-0.061-0.856
		s-4.433,1.081-8.425,1.081h-1.214c-3.839,0-8.293-1.83-8.293-1.83s-0.044,0.421-0.104,1.12
		c-6.163-3.373-10.348-9.899-10.348-17.419c0-10.978,8.899-19.877,19.877-19.877c6.398,0,12.074,3.035,15.71,7.731
		c0.025,0.047,0.041,0.077,0.041,0.077s1.558,1.932,2.784,4.93c0.856,2.218,1.343,4.62,1.343,7.14c0,0.971-0.072,1.928-0.207,2.861
		C64.599,44.721,64.454,45.268,64.27,45.82L64.27,45.82z M44.115,24.021c-0.424,0-0.839,0.031-1.255,0.058
		c1.144,1.681-1.007,5.644-4.939,9.014c-4.041,3.462-8.422,4.98-9.787,3.387c-0.932-1.087-0.214-3.341,1.618-5.765
		c-2.204,2.743-3.525,6.128-3.525,9.804c0,7.448,5.087,12.264,12.34,13.774v-2.685c0-1.117,0.825-2.03,1.898-2.19l-2.919-11.862
		l2.16-0.533l3.043,12.362h4.667l3.043-12.362l2.16,0.533l-2.942,11.957c0.878,0.297,1.513,1.117,1.513,2.096v1.411
		c4.688-2.47,7.602-7.22,7.602-12.5C58.791,31.408,53.995,24.021,44.115,24.021L44.115,24.021z M44.563,36.62l0.003-0.013
		l-3.36,1.15l-0.72-2.104l4.441-1.519l0.132,0.386l0.016-0.066l4.441,1.051l-0.512,2.165L44.563,36.62L44.563,36.62z"/>
</g>
<g id="phase4">
	<path fill-rule="evenodd" clip-rule="evenodd" fill="#3A3A3A" d="M91.478,22.357v20.706c0.557,1.224,0.898,2.728,0.898,4.373
		c0,4.01-1.958,7.257-4.388,7.324c0.019,0.905,0.037,1.86,0.037,2.35c0,1.089-3.101,1.374-3.101,3.406
		c0,1.375,0.138,1.742,1.309,1.7c1.558-0.055,2.677-2.092,3.599-2.428c0.922-0.334,1.428,2.026,0.124,2.058
		c-1.303,0.032-1.666,2.493-3.69,2.548c-1.089,0.031-3.351-0.67-3.351-3.435c0-3.865,3.347-4.789,3.347-4.789l-0.045-1.954
		c-1.623-1.097-3.856-3.718-3.856-6.781c0-1.758,0.471-3.35,1.097-4.614V23.339l-10.183,1.176L45.698,43.084l1.483,2.567
		l-1.512,0.872l2.305,3.994H70.38c2.914,0,5.064,2.081,5.064,4.993v19.774h1.904c0.97,0,2.077,0.787,2.077,1.759v3.069
		c0,0.972-1.107,2.397-2.077,2.397h-5.666c-0.137-0.334-0.228-0.639-0.228-0.892v-6.836h2.442v-8.716h-2.442V66.06
		c0-2.914-1.677-5.278-4.592-5.278H21.658V34.248h8.714c1.208,0,2.585,1.986,3.456,3.955l19.47-11.59l-0.074,0.008l12.658-7.511
		l0.022-0.002l0.169-0.101l17.113-1.168l-0.243,0.164l6.953-0.451c0.967-0.082,1.815,0.413,1.894,1.104l0.3,2.651
		C92.139,21.72,91.882,22.092,91.478,22.357L91.478,22.357z M28.901,41.55c-1.785,0-3.231,1.446-3.231,3.231
		c0,1.783,1.446,3.229,3.231,3.229c1.783,0,3.229-1.446,3.229-3.229C32.13,42.996,30.684,41.55,28.901,41.55L28.901,41.55z
		 M40.598,38.419c-0.8,0-1.448,0.647-1.448,1.448c0,0.8,0.647,1.448,1.448,1.448s1.448-0.647,1.448-1.448
		C42.046,39.066,41.398,38.419,40.598,38.419L40.598,38.419z M43.71,47.655l-1.737,1.003l-1.274-2.207l-3.538,2.381l0.461,1.687
		h7.741L43.71,47.655L43.71,47.655z M89.485,22.788l-3.959,0.366v17.494c0.521-0.35,1.632-0.472,2.23-0.472
		c0.644,0,1.176,0.156,1.729,0.561V22.788L89.485,22.788z M69.446,67.859v13.156c0,0.27,0.215,0.826,0.522,1.494h-3.906
		c0-9.145-6.595-15.627-14.72-15.627c-8.112,0-14.442,6.397-14.464,15.517H21.658V62.582h43.569
		C68.142,62.582,69.446,64.945,69.446,67.859L69.446,67.859z M72.251,87.153c-0.162-0.586-1.518-2.977-2.283-4.643h1.713
		C72.536,84.591,75.402,87.849,72.251,87.153L72.251,87.153z M21.624,62.582v-1.799h0.034v1.799H21.624L21.624,62.582z
		 M37.783,90.202c-2.742,0-5.029-1.587-5.615-3.711H21.645v-1.992h10.48c0.008-0.037,0.024-0.071,0.034-0.106h4.624
		c0.453,2.092,1.415,3.991,2.76,5.559C38.985,90.101,38.4,90.202,37.783,90.202L37.783,90.202z M38.63,81.909
		c0-7.026,5.695-12.721,12.721-12.721c7.026,0,12.721,5.695,12.721,12.721c0,6.359-4.672,11.612-10.767,12.554H81.34v1.994H21.636
		v-1.994h27.762C43.302,93.522,38.63,88.268,38.63,81.909L38.63,81.909z M56.434,81.903c0-2.81-2.278-5.088-5.088-5.088
		c-2.812,0-5.09,2.278-5.09,5.088s2.278,5.088,5.09,5.088C54.156,86.991,56.434,84.713,56.434,81.903L56.434,81.903z M51.33,80.151
		c0.969,0,1.756,0.787,1.756,1.756c0,0.969-0.787,1.756-1.756,1.756c-0.97,0-1.756-0.787-1.756-1.756
		C49.574,80.939,50.36,80.151,51.33,80.151L51.33,80.151z"/>
</g>
<g id="phase3">
	<path fill="#3A3A3A" d="M58.092,82.849c0,0-14.556-9.948-15.208-28.288c-0.724-20.345,13.09-31.283,13.09-31.283
		s37.706,3.326,38.245,28.446C94.786,78.023,58.092,82.849,58.092,82.849L58.092,82.849z M57.95,30.669c0,0-9.361,9.573-8.69,23.676
		c0.562,11.803,10.808,20.879,10.808,20.879s27.811-4.669,26.949-22.79C86.015,31.333,57.95,30.669,57.95,30.669L57.95,30.669z
		 M44.942,32.164c-1.065,2.198-2.06,4.248-2.06,4.248l-23.108,7.306l0.019-7.735l28.358-9.087
		C48.151,26.896,46.171,29.628,44.942,32.164L44.942,32.164z M39.163,45.04c-1.065,3.229-0.84,4.717-0.84,4.717l-18.517,5.43
		l0.02-7.735l21.327-7.024C41.153,40.428,40.046,42.363,39.163,45.04L39.163,45.04z M19.806,67.157l0.02-7.735l18.234-6.179
		c0,0,0.047,1.496,0.354,3.861c0.25,1.931,0.565,3.498,0.565,3.498L19.806,67.157L19.806,67.157z M19.806,79.032l0.02-7.734
		l19.922-6.837c0,0,0.587,1.923,1.101,3.485c0.785,2.385,1.879,3.405,1.879,3.405L19.806,79.032L19.806,79.032z M19.806,90.722
		l0.02-7.735l24.702-9.087c0,0,1.5,2.278,2.507,3.58c1.629,2.102,3.66,3.218,3.66,3.218L19.806,90.722L19.806,90.722z"/>
</g>
<g id="phase2">
	<path fill-rule="evenodd" clip-rule="evenodd" fill="#3A3A3A" d="M77.337,19.117c0,0-0.129,4.14-5.564,5.692
		c-3.42,0.977-9.273,2.611-13.161,3.696c2.706,1,6.381,2.364,8.598,3.203c3.827,1.448,3.918,5.313,3.918,5.313L57.7,32.237v5.004
		c-0.82-0.101-1.687-0.168-2.644-0.168c-0.836,0-1.596,0.05-2.323,0.121v-6.899l-2.06,0.192c0,0-6.817-0.507-8.876,4.56
		c-2.059,5.065-0.859,16.153-0.313,18.786c0.356,1.719,1.225,9.048,1.423,15.098V53.199h0.008v-8.201h0.148
		c0.094-2.364,1.769-7.031,9.671-7.804v1.944c0,1.371-1.316,2.484,2.484,2.484c4.014,0,2.484-1.113,2.484-2.484v-1.897
		c7.551,0.924,9.504,5.744,9.504,7.982c0,0.093-0.047,0.179-0.058,0.271c0,0,0,26.66,0,38.286c0,0.315-1.662,1.739-1.662,2.029
		c0,0.186,1.662,1.771,1.662,1.946c0,2.106,0,2.808,0,2.808h-0.074c-0.224,2.402-4.999,4.321-11.946,4.321
		c-6.945,0-11.902-1.919-12.133-4.321h-0.08v-7.645h-0.008v-9.69c-0.063,1.357-0.198,2.492-0.434,3.241
		c-1.317,4.173-2.413,6.455-2.413,6.455s-0.25,4.332-3.395,1.735c0,0,1.231-2.46,2.734-6.97c1.503-4.511-0.411-21.733-0.957-24.604
		c-0.548-2.87-1.503-14.488,0.82-19.956c2.325-5.467,10.049-5.673,10.049-5.673l4.442,0.069c0,0,0.098,0.036,0.242,0.096
		l-0.722-2.035L77.337,19.117L77.337,19.117z M44.159,77.34c3.274,1.727,6.624,1.404,9.972,1.157c0-6.806,0-13.613,0-20.428
		c-3.394,0.235-6.79,0.534-10.113-1.266c-0.305,1.972-0.589,4.694-0.589,8.053C43.428,68.854,43.805,73.679,44.159,77.34
		L44.159,77.34z"/>
</g>
<g id="phase1">
	<path fill-rule="evenodd" clip-rule="evenodd" fill="#3A3A3A" d="M84.85,88.353c-1.123,0.521-12.675,3.666-27.144,4.317
		c-0.029,0.002-0.055,0-0.084,0.002c-1.122-0.659-3.761-2.329-5.063-4.095c10.314-0.33,20.692-3.593,30.601-8.607
		c-0.474-1.98-0.895-4.499-1.106-7.466c-9.503,4.859-19.583,7.791-29.706,8.024c-0.048,0.002-0.079-0.03-0.12-0.043
		c0.109-1.518,0.227-3.095,0.349-4.689c9.88-0.318,19.821-3.33,29.353-7.992c0.036-2.595,0.244-5.397,0.719-8.385
		c-9.394,4.895-19.369,7.903-29.405,8.291c0.437-4.874,0.882-8.878,1.234-10.088c0.822-2.831,3.282-6.009,4.312-7.257
		c5.115-5.465,10.438-19.377,10.438-27.396c0-0.543-0.022-1.08-0.062-1.609c0.79,0.163,1.567,0.333,2.324,0.507
		c-0.23,3.925-0.752,15.046,0.406,19.319c1.286,4.749,4.673,14.089,11.727,17.231c-0.005,0.032-0.008,0.06-0.013,0.092
		c0.005,0.002,0.008,0.006,0.013,0.008c-0.564,3.406-0.781,6.424-0.795,9.136c-0.002,0.733,0.008,1.449,0.036,2.132
		c0.002,0.008,0,0.016,0,0.024c0.033,0.77,0.084,1.508,0.147,2.221c-0.005,0.002-0.008,0.005-0.013,0.006
		c0.258,2.948,0.759,5.394,1.296,7.374c0.01-0.005,0.017-0.009,0.027-0.014c0.775,2.844,1.605,4.743,1.83,5.839
		C86.792,88.361,85.972,87.831,84.85,88.353L84.85,88.353z M84.509,53.175c-0.13,0.743-0.247,1.445-0.369,2.161
		c-6.051-3.108-9-11.249-10.14-15.457c-1.042-3.849-0.592-13.784-0.379-17.494c0.461,0.117,0.96,0.234,1.386,0.35
		c-0.185,1.57-0.282,3.197-0.282,4.863c0,12.049,2.916,23.17,9.313,25.191c0.174,0.032,0.344,0.06,0.518,0.092
		c-0.002,0.01-0.003,0.017-0.005,0.029c0.307,0.071,0.61,0.149,0.939,0.181C85.153,53.129,84.828,53.155,84.509,53.175
		L84.509,53.175z M56.83,49.484l-0.139-0.019c0,0-0.051,0.059-0.133,0.154C53.197,50.65,46.499,30.126,46.34,22.05
		c2.611,1.701,6.4,2.777,10.626,2.777c0.002,0,0.002-0.002,0.003-0.002v-0.002c0.014,0,0.027,0,0.041,0c0.013,0,0.025,0,0.04,0
		v0.002c0.002,0,0.003,0.002,0.003,0.002c4.25,0,8.059-1.085,10.671-2.806c-0.136,8.298-6.723,22.999-10.69,27.298
		C56.969,49.391,56.899,49.435,56.83,49.484L56.83,49.484z M54.973,51.632c-1.125,1.541-2.489,3.674-3.059,5.64
		c-0.284,0.979-0.638,4.063-1.001,8.028c-6.596-0.496-13.121-2.183-19.428-5.206c0.431,2.928,0.626,5.685,0.638,8.223
		c5.852,2.926,11.932,4.539,18.121,5.02c-0.119,1.546-0.236,3.107-0.347,4.638c-6.091-0.567-12.116-2.158-17.956-4.893
		c-0.241,2.923-0.678,5.408-1.16,7.319c5.977,3.221,12.206,5.019,18.557,5.624c-0.184,2.736-0.325,4.925-0.398,6.088
		c-10.864-1.131-18.867-3.331-19.791-3.761c-1.122-0.521-1.942,0.008-1.301-3.119c0.215-1.047,0.996-2.832,1.754-5.467
		c0.024,0.014,0.049,0.025,0.073,0.04l-0.024-0.022c0.548-1.95,1.08-4.282,1.367-7.129c-0.013-0.006-0.024-0.011-0.036-0.017
		c0.152-1.451,0.246-3.024,0.246-4.741c-0.019-2.626-0.249-5.587-0.808-8.958c0.021-0.009,0.038-0.011,0.057-0.019
		c-0.008-0.049-0.013-0.095-0.021-0.146c7.68-2.706,11.304-12.638,12.646-17.589c1.18-4.36,0.613-15.829,0.391-19.529
		c0.499-0.109,0.993-0.22,1.499-0.326c-0.041,0.54-0.063,1.085-0.063,1.64C44.93,30.58,50.602,48.393,54.973,51.632L54.973,51.632z
		 M29.95,55.749c-0.143-0.846-0.285-1.689-0.439-2.574c-0.318-0.021-0.645-0.046-0.982-0.084c0.328-0.032,0.63-0.109,0.938-0.181
		c-0.002-0.011-0.003-0.019-0.005-0.029c0.176-0.032,0.345-0.06,0.52-0.092c6.397-2.021,9.312-13.142,9.312-25.191
		c0-1.667-0.097-3.293-0.28-4.863c0.721-0.196,1.532-0.396,2.348-0.594c0.206,3.49,0.703,13.798-0.364,17.738
		C39.802,44.291,36.618,53.028,29.95,55.749L29.95,55.749z"/>
</g>
<g id="phase0">
	<path fill-rule="evenodd" clip-rule="evenodd" fill="#3A3A3A" d="M32.136,90.781c0,0-0.723-0.435-1.084-0.652
		c0-3.972,11.913-7.153,16.205-7.153c0-25.266-0.768-20.173-25.988-45.393c0-4.089,0.686-0.168,4.326,1.783
		c0,0,18.972,19.273,25.567,19.273c6.454,0,24.579-18.745,24.579-18.745c3.639-1.951,4.643-6.399,4.643-2.311
		c-25.22,25.22-25.99,19.858-25.99,45.393c4.294,0,16.207,3.181,16.207,7.153c-0.361,0.217-1.084,0.652-1.084,0.652H32.136
		L32.136,90.781z"/>
	<path fill-rule="evenodd" clip-rule="evenodd" fill="#3A3A3A" fill-opacity="0.5" d="M26.149,40.273c0,0,47.35,0.378,48.993,0.253
		c1.643-0.127-18.551,18.076-19.562,18.454c-1.01,0.379-7.875,0.317-8.634,0.192C46.187,59.045,26.149,40.273,26.149,40.273
		L26.149,40.273z"/>
	<path fill-rule="evenodd" clip-rule="evenodd" fill="#3A3A3A" d="M80.113,48.455c-1.977,0-3.84-0.468-5.506-1.278
		c1.797-1.66,4.947-4.526,6.789-7.202c0.415,1.123,0.952,2.225,1.624,2.935c1.892,1.996,2.921,2.781,4.919,0.889
		c1.998-1.892,1.165-2.865-0.727-4.862c-0.993-1.048-2.841-1.848-4.38-2.376c0.013-0.313-0.008-0.616-0.104-0.892
		c1.657-0.179,3.78-0.567,5.03-1.424c2.269-1.555,3.207-2.448,1.652-4.718c-1.555-2.269-2.646-1.6-4.916-0.046
		c-1.398,0.956-2.649,3.136-3.405,4.672c-0.068-0.024-0.13-0.064-0.201-0.083c0.481-1.644,1.019-4.066,0.638-5.701
		c-0.625-2.681-1.117-3.878-3.796-3.253c-2.679,0.625-2.453,1.883-1.828,4.562c0.349,1.497,1.679,3.246,2.786,4.501
		c-0.25,0.072-0.503,0.157-0.76,0.261c-1.421-0.737-3.21-1.486-4.609-1.486c-2.752,0-4.03,0.207-4.03,2.959
		c0,2.218,0.848,2.684,2.612,2.785c-1.22,1.134-2.271,2.232-2.97,2.975c-0.912-1.746-1.437-3.728-1.437-5.836
		c0-6.968,5.649-12.617,12.619-12.617c6.968,0,12.617,5.649,12.617,12.617C92.73,42.806,87.081,48.455,80.113,48.455L80.113,48.455z
		"/>
</g>
</svg>
