<?xml version="1.0" encoding="utf-8"?>
<!-- Generator: Adobe Illustrator 17.0.1, SVG Export Plug-In . SVG Version: 6.00 Build 0)  -->
<!DOCTYPE svg PUBLIC "-//W3C//DTD SVG 1.1//EN" "http://www.w3.org/Graphics/SVG/1.1/DTD/svg11.dtd">
<svg version="1.1" xmlns="http://www.w3.org/2000/svg" xmlns:xlink="http://www.w3.org/1999/xlink" x="0px" y="0px" width="60px"
	 height="60px" viewBox="0 0 60 60" enable-background="new 0 0 60 60" xml:space="preserve">
<g id="hwy_disabled">
	<g id="hd">
		<path fill="#eeeeee" d="M19.933,55.587c-0.276,0-0.5-0.224-0.5-0.5v-3.458c-1.235-0.521-2.479-1.166-3.702-1.918
			c-0.191-0.117-0.28-0.347-0.219-0.562c0.061-0.216,0.257-0.364,0.481-0.364h10.632V28.53l-1.763,1.695
			c-0.094,0.09-0.218,0.14-0.347,0.14c-0.017,0-0.035-0.001-0.052-0.003c-0.146-0.015-0.279-0.094-0.362-0.216
			c-0.818-1.204-1.251-2.61-1.251-4.067c0-3.084,1.965-5.82,4.89-6.808c0.053-0.018,0.106-0.026,0.16-0.026
			c0.127,0,0.252,0.049,0.346,0.14l1.344,1.29l1.559-1.481c0.094-0.09,0.217-0.138,0.344-0.138c0.038,0,0.076,0.004,0.113,0.013
			c3.266,0.759,5.546,3.642,5.546,7.011c0,1.637-0.557,3.195-1.61,4.509c-0.087,0.109-0.217,0.177-0.356,0.187
			c-0.011,0.001-0.022,0.001-0.034,0.001c-0.128,0-0.251-0.049-0.344-0.138l-1.432-1.359v19.507h10.632
			c0.224,0,0.42,0.148,0.481,0.364c0.061,0.215-0.028,0.444-0.219,0.562c-1.223,0.752-2.467,1.396-3.702,1.918v3.458
			c0,0.276-0.224,0.5-0.5,0.5H19.933z M49.957,44.836c-0.128,0-0.251-0.049-0.344-0.138l-3.116-2.958
			c-0.196-0.186-0.208-0.494-0.028-0.695c3.691-4.129,5.724-9.443,5.724-14.966c0-7.013-3.186-13.49-8.741-17.772
			c-0.116-0.09-0.187-0.225-0.194-0.371c-0.007-0.146,0.049-0.287,0.155-0.388l3.155-2.997c0.096-0.092,0.22-0.138,0.344-0.138
			c0.111,0,0.223,0.037,0.315,0.112c6.507,5.292,10.238,13.148,10.238,21.554c0,6.885-2.535,13.487-7.136,18.592
			c-0.09,0.1-0.217,0.159-0.352,0.165C49.97,44.836,49.963,44.836,49.957,44.836z M9.751,44.521
			c-0.136-0.007-0.265-0.068-0.354-0.171c-4.425-5.062-6.862-11.55-6.862-18.271c0-8.233,3.604-15.987,9.888-21.273
			c0.093-0.078,0.208-0.117,0.322-0.117c0.125,0,0.25,0.047,0.346,0.14l3.126,3.003c0.104,0.1,0.16,0.238,0.153,0.383
			c-0.006,0.144-0.074,0.277-0.186,0.367c-5.322,4.28-8.375,10.658-8.375,17.498c0,5.371,1.93,10.573,5.435,14.646
			c0.173,0.201,0.159,0.503-0.033,0.687l-3.093,2.97c-0.093,0.09-0.217,0.14-0.346,0.14C9.766,44.521,9.759,44.521,9.751,44.521z
			 M41.974,37.256c-0.128,0-0.251-0.049-0.344-0.138l-3.073-2.919c-0.193-0.184-0.208-0.485-0.035-0.688
			c1.775-2.069,2.753-4.709,2.753-7.433c0-4.174-2.26-8.006-5.898-10c-0.14-0.077-0.235-0.216-0.255-0.374
			c-0.021-0.158,0.036-0.317,0.151-0.427l3.187-3.028c0.096-0.091,0.22-0.138,0.344-0.138c0.096,0,0.193,0.027,0.277,0.084
			c4.645,3.095,7.418,8.285,7.418,13.883c0,4.048-1.473,7.957-4.148,11.007c-0.09,0.102-0.217,0.163-0.353,0.169
			C41.989,37.256,41.981,37.256,41.974,37.256z M17.679,36.901c-0.139-0.008-0.269-0.073-0.357-0.181
			c-2.464-2.979-3.821-6.759-3.821-10.642c0-5.383,2.613-10.459,6.989-13.579c0.087-0.063,0.189-0.093,0.29-0.093
			c0.125,0,0.25,0.047,0.346,0.14l3.141,3.017c0.112,0.107,0.167,0.261,0.151,0.415c-0.017,0.153-0.104,0.291-0.237,0.372
			c-3.417,2.085-5.457,5.722-5.457,9.729c0,2.586,0.846,5.027,2.447,7.062c0.159,0.202,0.139,0.492-0.046,0.67l-3.071,2.952
			c-0.094,0.09-0.218,0.14-0.347,0.14C17.698,36.902,17.688,36.902,17.679,36.901z"/>
		<path fill="#cccccc" d="M46.911,4.913c6.127,4.984,10.054,12.609,10.054,21.166c0,7.035-2.659,13.434-7.008,18.257l-3.116-2.958
			c3.626-4.056,5.851-9.409,5.851-15.299c0-7.416-3.513-13.988-8.936-18.169L46.911,4.913 M12.745,5.188l3.126,3.003
			C10.659,12.384,7.31,18.833,7.31,26.079c0,5.732,2.102,10.958,5.556,14.973l-3.093,2.97c-4.185-4.786-6.738-11.058-6.738-17.943
			C3.035,17.682,6.814,10.178,12.745,5.188 M38.803,12.612c4.333,2.888,7.195,7.838,7.195,13.467c0,4.099-1.528,7.83-4.025,10.677
			l-3.073-2.919c1.786-2.081,2.874-4.788,2.874-7.758c0-4.507-2.491-8.428-6.158-10.439L38.803,12.612 M20.781,12.907l3.142,3.016
			c-3.409,2.081-5.697,5.844-5.697,10.155c0,2.788,0.959,5.345,2.553,7.371l-3.071,2.952c-2.313-2.798-3.706-6.396-3.706-10.323
			C14.001,20.634,16.684,15.828,20.781,12.907 M31.493,19.556c2.952,0.686,5.16,3.339,5.16,6.523c0,1.598-0.576,3.044-1.5,4.197
			l-2.276-2.161v21.17h11.132c-1.252,0.77-2.565,1.452-3.941,2.01v3.792h-7.192h-5.752h-7.192v-3.792
			c-1.375-0.559-2.688-1.241-3.941-2.01h11.132V27.357l-2.61,2.509c-0.733-1.078-1.164-2.38-1.164-3.786
			c0-2.96,1.913-5.443,4.55-6.334l1.688,1.622L31.493,19.556 M28.453,26.079h2.28l-1.145-1.088L28.453,26.079 M44.008,49.285h0.005
			 M46.911,3.913c-0.249,0-0.497,0.092-0.689,0.275l-3.155,2.997c-0.212,0.201-0.325,0.485-0.31,0.777
			c0.015,0.292,0.157,0.562,0.388,0.741c5.432,4.187,8.547,10.521,8.547,17.377c0,5.399-1.988,10.596-5.597,14.633
			c-0.36,0.403-0.335,1.02,0.057,1.392l3.116,2.958c0.186,0.177,0.433,0.275,0.688,0.275c0.013,0,0.026,0,0.039-0.001
			c0.269-0.01,0.523-0.129,0.704-0.33c4.685-5.196,7.265-11.918,7.265-18.927c0-8.556-3.799-16.554-10.423-21.942
			C47.358,3.987,47.134,3.913,46.911,3.913L46.911,3.913z M12.745,4.188c-0.228,0-0.457,0.078-0.644,0.235
			C5.704,9.804,2.035,17.698,2.035,26.079c0,6.843,2.481,13.449,6.985,18.601c0.18,0.206,0.436,0.329,0.709,0.341
			c0.015,0.001,0.029,0.001,0.044,0.001c0.258,0,0.506-0.099,0.693-0.279l3.093-2.97c0.383-0.368,0.412-0.971,0.065-1.374
			c-3.427-3.983-5.314-9.069-5.314-14.321c0-6.687,2.984-12.923,8.188-17.109c0.224-0.18,0.36-0.448,0.372-0.735
			c0.013-0.287-0.099-0.566-0.306-0.765l-3.126-3.003C13.245,4.282,12.995,4.188,12.745,4.188L12.745,4.188z M38.804,11.612
			c-0.25,0-0.498,0.093-0.689,0.275l-3.186,3.028c-0.231,0.22-0.344,0.537-0.303,0.854c0.041,0.317,0.231,0.595,0.511,0.748
			c3.478,1.907,5.639,5.571,5.639,9.562c0,2.605-0.935,5.129-2.633,7.107c-0.347,0.404-0.316,1.009,0.07,1.376l3.073,2.919
			c0.186,0.177,0.433,0.275,0.689,0.275c0.015,0,0.03,0,0.046-0.001c0.272-0.012,0.527-0.135,0.706-0.34
			c2.755-3.141,4.273-7.167,4.273-11.336c0-5.765-2.856-11.111-7.641-14.299C39.189,11.667,38.996,11.612,38.804,11.612
			L38.804,11.612z M20.78,11.907c-0.202,0-0.406,0.061-0.58,0.186c-4.508,3.214-7.199,8.442-7.199,13.986
			c0,3.999,1.398,7.891,3.935,10.96c0.177,0.214,0.436,0.345,0.714,0.361c0.019,0.001,0.038,0.002,0.057,0.002
			c0.258,0,0.506-0.1,0.693-0.279l3.071-2.952c0.371-0.356,0.411-0.935,0.093-1.339c-1.53-1.945-2.339-4.28-2.339-6.753
			c0-3.83,1.951-7.308,5.218-9.302c0.265-0.162,0.44-0.437,0.473-0.745c0.034-0.308-0.078-0.615-0.302-0.83l-3.142-3.016
			C21.281,12.001,21.031,11.907,20.78,11.907L20.78,11.907z M31.493,18.556c-0.254,0-0.501,0.097-0.689,0.275l-1.212,1.153
			l-0.999-0.959c-0.189-0.182-0.439-0.279-0.693-0.279c-0.107,0-0.215,0.017-0.32,0.053c-3.128,1.057-5.23,3.983-5.23,7.281
			c0,1.557,0.462,3.06,1.337,4.348c0.166,0.244,0.43,0.402,0.723,0.433c0.035,0.004,0.07,0.005,0.104,0.005
			c0.257,0,0.506-0.099,0.693-0.279l0.917-0.881v18.58H15.992c-0.447,0-0.841,0.297-0.962,0.728
			c-0.122,0.431,0.057,0.89,0.439,1.124c1.145,0.704,2.307,1.315,3.464,1.822v3.129c0,0.552,0.448,1,1,1h7.192h5.752h7.192
			c0.552,0,1-0.448,1-1v-3.129c1.148-0.503,2.301-1.108,3.437-1.805c0.302-0.172,0.506-0.497,0.506-0.868c0-0.552-0.445-1-0.998-1
			h-0.005H33.876V30.443l0.588,0.558c0.186,0.177,0.433,0.275,0.688,0.275c0.023,0,0.045-0.001,0.068-0.002
			c0.279-0.019,0.537-0.154,0.712-0.372c1.125-1.404,1.72-3.071,1.72-4.822c0-3.603-2.44-6.686-5.933-7.497
			C31.644,18.564,31.568,18.556,31.493,18.556L31.493,18.556z"/>
	</g>
</g>
<g id="hwy">
	<g id="h_2_">
		<path fill="#666666" d="M19.933,55.587c-0.276,0-0.5-0.224-0.5-0.5v-3.458c-1.235-0.521-2.479-1.166-3.702-1.918
			c-0.191-0.117-0.28-0.347-0.219-0.562c0.061-0.216,0.257-0.364,0.481-0.364h10.632V28.53l-1.763,1.695
			c-0.094,0.09-0.218,0.14-0.347,0.14c-0.017,0-0.035-0.001-0.052-0.003c-0.146-0.015-0.279-0.094-0.362-0.216
			c-0.818-1.204-1.251-2.61-1.251-4.067c0-3.084,1.965-5.82,4.89-6.808c0.053-0.018,0.106-0.026,0.16-0.026
			c0.127,0,0.252,0.049,0.346,0.14l1.344,1.29l1.559-1.481c0.094-0.09,0.217-0.138,0.344-0.138c0.038,0,0.076,0.004,0.113,0.013
			c3.266,0.759,5.546,3.642,5.546,7.011c0,1.637-0.557,3.195-1.61,4.509c-0.087,0.109-0.217,0.177-0.356,0.187
			c-0.011,0.001-0.022,0.001-0.034,0.001c-0.128,0-0.251-0.049-0.344-0.138l-1.432-1.359v19.507h10.632
			c0.224,0,0.42,0.148,0.481,0.364c0.061,0.215-0.028,0.444-0.219,0.562c-1.223,0.752-2.467,1.396-3.702,1.918v3.458
			c0,0.276-0.224,0.5-0.5,0.5H19.933z M49.957,44.836c-0.128,0-0.251-0.049-0.344-0.138l-3.116-2.958
			c-0.196-0.186-0.208-0.494-0.028-0.695c3.691-4.129,5.724-9.443,5.724-14.966c0-7.013-3.186-13.49-8.741-17.772
			c-0.116-0.09-0.187-0.225-0.194-0.371c-0.007-0.146,0.049-0.287,0.155-0.388l3.155-2.997c0.096-0.092,0.22-0.138,0.344-0.138
			c0.111,0,0.223,0.037,0.315,0.112c6.507,5.292,10.238,13.148,10.238,21.554c0,6.885-2.535,13.487-7.136,18.592
			c-0.09,0.1-0.217,0.159-0.352,0.165C49.97,44.836,49.963,44.836,49.957,44.836z M9.751,44.521
			c-0.136-0.007-0.265-0.068-0.354-0.171c-4.425-5.062-6.862-11.55-6.862-18.271c0-8.233,3.604-15.987,9.888-21.273
			c0.093-0.078,0.208-0.117,0.322-0.117c0.125,0,0.25,0.047,0.346,0.14l3.126,3.003c0.104,0.1,0.16,0.238,0.153,0.383
			c-0.006,0.144-0.074,0.277-0.186,0.367c-5.322,4.28-8.375,10.658-8.375,17.498c0,5.371,1.93,10.573,5.435,14.646
			c0.173,0.201,0.159,0.503-0.033,0.687l-3.093,2.97c-0.093,0.09-0.217,0.14-0.346,0.14C9.766,44.521,9.759,44.521,9.751,44.521z
			 M41.974,37.256c-0.128,0-0.251-0.049-0.344-0.138l-3.073-2.919c-0.193-0.184-0.208-0.485-0.035-0.688
			c1.775-2.069,2.753-4.709,2.753-7.433c0-4.174-2.26-8.006-5.898-10c-0.14-0.077-0.235-0.216-0.255-0.374
			c-0.021-0.158,0.036-0.317,0.151-0.427l3.187-3.028c0.096-0.091,0.22-0.138,0.344-0.138c0.096,0,0.193,0.027,0.277,0.084
			c4.645,3.095,7.418,8.285,7.418,13.883c0,4.048-1.473,7.957-4.148,11.007c-0.09,0.102-0.217,0.163-0.353,0.169
			C41.989,37.256,41.981,37.256,41.974,37.256z M17.679,36.901c-0.139-0.008-0.269-0.073-0.357-0.181
			c-2.464-2.979-3.821-6.759-3.821-10.642c0-5.383,2.613-10.459,6.989-13.579c0.087-0.063,0.189-0.093,0.29-0.093
			c0.125,0,0.25,0.047,0.346,0.14l3.141,3.017c0.112,0.107,0.167,0.261,0.151,0.415c-0.017,0.153-0.104,0.291-0.237,0.372
			c-3.417,2.085-5.457,5.722-5.457,9.729c0,2.586,0.846,5.027,2.447,7.062c0.159,0.202,0.139,0.492-0.046,0.67l-3.071,2.952
			c-0.094,0.09-0.218,0.14-0.347,0.14C17.698,36.902,17.688,36.902,17.679,36.901z"/>
		<path display="none" fill="#3A3A3A" d="M46.911,4.913c6.127,4.984,10.054,12.609,10.054,21.166c0,7.035-2.659,13.434-7.008,18.257l-3.116-2.958
			c3.626-4.056,5.851-9.409,5.851-15.299c0-7.416-3.513-13.988-8.936-18.169L46.911,4.913 M12.745,5.188l3.126,3.003
			C10.659,12.384,7.31,18.833,7.31,26.079c0,5.732,2.102,10.958,5.556,14.973l-3.093,2.97c-4.185-4.786-6.738-11.058-6.738-17.943
			C3.035,17.682,6.814,10.178,12.745,5.188 M38.803,12.612c4.333,2.888,7.195,7.838,7.195,13.467c0,4.099-1.528,7.83-4.025,10.677
			l-3.073-2.919c1.786-2.081,2.874-4.788,2.874-7.758c0-4.507-2.491-8.428-6.158-10.439L38.803,12.612 M20.781,12.907l3.142,3.016
			c-3.409,2.081-5.697,5.844-5.697,10.155c0,2.788,0.959,5.345,2.553,7.371l-3.071,2.952c-2.313-2.798-3.706-6.396-3.706-10.323
			C14.001,20.634,16.684,15.828,20.781,12.907 M31.493,19.556c2.952,0.686,5.16,3.339,5.16,6.523c0,1.598-0.576,3.044-1.5,4.197
			l-2.276-2.161v21.17h11.132c-1.252,0.77-2.565,1.452-3.941,2.01v3.792h-7.192h-5.752h-7.192v-3.792
			c-1.375-0.559-2.688-1.241-3.941-2.01h11.132V27.357l-2.61,2.509c-0.733-1.078-1.164-2.38-1.164-3.786
			c0-2.96,1.913-5.443,4.55-6.334l1.688,1.622L31.493,19.556 M28.453,26.079h2.28l-1.145-1.088L28.453,26.079 M44.008,49.285h0.005
			 M46.911,3.913c-0.249,0-0.497,0.092-0.689,0.275l-3.155,2.997c-0.212,0.201-0.325,0.485-0.31,0.777
			c0.015,0.292,0.157,0.562,0.388,0.741c5.432,4.187,8.547,10.521,8.547,17.377c0,5.399-1.988,10.596-5.597,14.633
			c-0.36,0.403-0.335,1.02,0.057,1.392l3.116,2.958c0.186,0.177,0.433,0.275,0.688,0.275c0.013,0,0.026,0,0.039-0.001
			c0.269-0.01,0.523-0.129,0.704-0.33c4.685-5.196,7.265-11.918,7.265-18.927c0-8.556-3.799-16.554-10.423-21.942
			C47.358,3.987,47.134,3.913,46.911,3.913L46.911,3.913z M12.745,4.188c-0.228,0-0.457,0.078-0.644,0.235
			C5.704,9.804,2.035,17.698,2.035,26.079c0,6.843,2.481,13.449,6.985,18.601c0.18,0.206,0.436,0.329,0.709,0.341
			c0.015,0.001,0.029,0.001,0.044,0.001c0.258,0,0.506-0.099,0.693-0.279l3.093-2.97c0.383-0.368,0.412-0.971,0.065-1.374
			c-3.427-3.983-5.314-9.069-5.314-14.321c0-6.687,2.984-12.923,8.188-17.109c0.224-0.18,0.36-0.448,0.372-0.735
			c0.013-0.287-0.099-0.566-0.306-0.765l-3.126-3.003C13.245,4.282,12.995,4.188,12.745,4.188L12.745,4.188z M38.804,11.612
			c-0.25,0-0.498,0.093-0.689,0.275l-3.186,3.028c-0.231,0.22-0.344,0.537-0.303,0.854c0.041,0.317,0.231,0.595,0.511,0.748
			c3.478,1.907,5.639,5.571,5.639,9.562c0,2.605-0.935,5.129-2.633,7.107c-0.347,0.404-0.316,1.009,0.07,1.376l3.073,2.919
			c0.186,0.177,0.433,0.275,0.689,0.275c0.015,0,0.03,0,0.046-0.001c0.272-0.012,0.527-0.135,0.706-0.34
			c2.755-3.141,4.273-7.167,4.273-11.336c0-5.765-2.856-11.111-7.641-14.299C39.189,11.667,38.996,11.612,38.804,11.612
			L38.804,11.612z M20.78,11.907c-0.202,0-0.406,0.061-0.58,0.186c-4.508,3.214-7.199,8.442-7.199,13.986
			c0,3.999,1.398,7.891,3.935,10.96c0.177,0.214,0.436,0.345,0.714,0.361c0.019,0.001,0.038,0.002,0.057,0.002
			c0.258,0,0.506-0.1,0.693-0.279l3.071-2.952c0.371-0.356,0.411-0.935,0.093-1.339c-1.53-1.945-2.339-4.28-2.339-6.753
			c0-3.83,1.951-7.308,5.218-9.302c0.265-0.162,0.44-0.437,0.473-0.745c0.034-0.308-0.078-0.615-0.302-0.83l-3.142-3.016
			C21.281,12.001,21.031,11.907,20.78,11.907L20.78,11.907z M31.493,18.556c-0.254,0-0.501,0.097-0.689,0.275l-1.212,1.153
			l-0.999-0.959c-0.189-0.182-0.439-0.279-0.693-0.279c-0.107,0-0.215,0.017-0.32,0.053c-3.128,1.057-5.23,3.983-5.23,7.281
			c0,1.557,0.462,3.06,1.337,4.348c0.166,0.244,0.43,0.402,0.723,0.433c0.035,0.004,0.07,0.005,0.104,0.005
			c0.257,0,0.506-0.099,0.693-0.279l0.917-0.881v18.58H15.992c-0.447,0-0.841,0.297-0.962,0.728
			c-0.122,0.431,0.057,0.89,0.439,1.124c1.145,0.704,2.307,1.315,3.464,1.822v3.129c0,0.552,0.448,1,1,1h7.192h5.752h7.192
			c0.552,0,1-0.448,1-1v-3.129c1.148-0.503,2.301-1.108,3.437-1.805c0.302-0.172,0.506-0.497,0.506-0.868c0-0.552-0.445-1-0.998-1
			h-0.005H33.876V30.443l0.588,0.558c0.186,0.177,0.433,0.275,0.688,0.275c0.023,0,0.045-0.001,0.068-0.002
			c0.279-0.019,0.537-0.154,0.712-0.372c1.125-1.404,1.72-3.071,1.72-4.822c0-3.603-2.44-6.686-5.933-7.497
			C31.644,18.564,31.568,18.556,31.493,18.556L31.493,18.556z"/>
	</g>
</g>
<g id="group">
	<path id="g" fill="#3A3A3A" d="M12.745,5.188l3.126,3.003C10.659,12.384,7.31,18.833,7.31,26.079
		c0,5.732,2.102,10.958,5.556,14.973l-3.093,2.97c-4.185-4.786-6.738-11.058-6.738-17.943C3.035,17.682,6.814,10.178,12.745,5.188
		L12.745,5.188z M20.781,12.907l3.142,3.016c-3.409,2.081-5.697,5.844-5.697,10.155c0,2.788,0.959,5.345,2.553,7.371l-3.071,2.952
		c-2.313-2.798-3.706-6.396-3.706-10.323C14.001,20.634,16.684,15.828,20.781,12.907L20.781,12.907z M27.124,27.357l-2.61,2.509
		c-0.733-1.078-1.164-2.38-1.164-3.786c0-2.96,1.913-5.443,4.55-6.334l1.688,1.622l1.905-1.811c2.952,0.686,5.16,3.339,5.16,6.523
		c0,1.598-0.576,3.044-1.5,4.197l-2.276-2.161v21.17h11.132c-1.252,0.77-2.565,1.452-3.941,2.01v3.792h-7.192h-5.752h-7.192v-3.792
		c-1.375-0.559-2.688-1.241-3.941-2.01h11.132V27.357L27.124,27.357z M30.733,26.079l-1.145-1.088l-1.135,1.088H30.733
		L30.733,26.079z M38.901,33.837c1.786-2.081,2.874-4.788,2.874-7.758c0-4.507-2.491-8.428-6.158-10.439l3.186-3.028
		c4.333,2.888,7.195,7.838,7.195,13.467c0,4.099-1.528,7.83-4.025,10.677L38.901,33.837L38.901,33.837z M43.756,7.91l3.155-2.997
		c6.127,4.984,10.054,12.609,10.054,21.166c0,7.035-2.659,13.434-7.008,18.257l-3.116-2.958c3.626-4.056,5.851-9.409,5.851-15.299
		C52.692,18.663,49.179,12.091,43.756,7.91L43.756,7.91z"/>
</g>
<g id="disabled">
	<linearGradient id="d_1_" gradientUnits="userSpaceOnUse" x1="30" y1="55.0873" x2="30" y2="4.9127">
		<stop  offset="0" style="stop-color:#E0E0E0"/>
		<stop  offset="0.0118" style="stop-color:#E1E1E1"/>
		<stop  offset="0.2974" style="stop-color:#F2F2F2"/>
		<stop  offset="0.6101" style="stop-color:#FCFCFC"/>
		<stop  offset="1" style="stop-color:#FFFFFF"/>
	</linearGradient>
	<path id="d_2_" fill="url(#d_1_)" d="M12.745,5.188l3.126,3.003C10.659,12.384,7.31,18.833,7.31,26.079
		c0,5.732,2.102,10.958,5.556,14.973l-3.093,2.97c-4.185-4.786-6.738-11.058-6.738-17.943C3.035,17.682,6.814,10.178,12.745,5.188
		L12.745,5.188z M20.781,12.907l3.142,3.016c-3.409,2.081-5.697,5.844-5.697,10.155c0,2.788,0.959,5.345,2.553,7.371l-3.071,2.952
		c-2.313-2.798-3.706-6.396-3.706-10.323C14.001,20.634,16.684,15.828,20.781,12.907L20.781,12.907z M27.124,27.357l-2.61,2.509
		c-0.733-1.078-1.164-2.38-1.164-3.786c0-2.96,1.913-5.443,4.55-6.334l1.688,1.622l1.905-1.811c2.952,0.686,5.16,3.339,5.16,6.523
		c0,1.598-0.576,3.044-1.5,4.197l-2.276-2.161v21.17h11.132c-1.252,0.77-2.565,1.452-3.941,2.01v3.792h-7.192h-5.752h-7.192v-3.792
		c-1.375-0.559-2.688-1.241-3.941-2.01h11.132V27.357L27.124,27.357z M30.733,26.079l-1.145-1.088l-1.135,1.088H30.733
		L30.733,26.079z M38.901,33.837c1.786-2.081,2.874-4.788,2.874-7.758c0-4.507-2.491-8.428-6.158-10.439l3.186-3.028
		c4.333,2.888,7.195,7.838,7.195,13.467c0,4.099-1.528,7.83-4.025,10.677L38.901,33.837L38.901,33.837z M43.756,7.91l3.155-2.997
		c6.127,4.984,10.054,12.609,10.054,21.166c0,7.035-2.659,13.434-7.008,18.257l-3.116-2.958c3.626-4.056,5.851-9.409,5.851-15.299
		C52.692,18.663,49.179,12.091,43.756,7.91L43.756,7.91z"/>
</g>
<g id="normal">
	<linearGradient id="n_1_" gradientUnits="userSpaceOnUse" x1="30" y1="55.0873" x2="30" y2="4.9127">
		<stop  offset="0" style="stop-color:#D9DEFF"/>
		<stop  offset="0.0932" style="stop-color:#E1E5FF"/>
		<stop  offset="0.3551" style="stop-color:#F2F4FF"/>
		<stop  offset="0.6423" style="stop-color:#FCFCFF"/>
		<stop  offset="1" style="stop-color:#FFFFFF"/>
	</linearGradient>
	<path id="n" fill="url(#n_1_)" d="M12.745,5.188l3.126,3.003C10.659,12.384,7.31,18.833,7.31,26.079
		c0,5.732,2.102,10.958,5.556,14.973l-3.093,2.97c-4.185-4.786-6.738-11.058-6.738-17.943C3.035,17.682,6.814,10.178,12.745,5.188
		L12.745,5.188z M20.781,12.907l3.142,3.016c-3.409,2.081-5.697,5.844-5.697,10.155c0,2.788,0.959,5.345,2.553,7.371l-3.071,2.952
		c-2.313-2.798-3.706-6.396-3.706-10.323C14.001,20.634,16.684,15.828,20.781,12.907L20.781,12.907z M27.124,27.357l-2.61,2.509
		c-0.733-1.078-1.164-2.38-1.164-3.786c0-2.96,1.913-5.443,4.55-6.334l1.688,1.622l1.905-1.811c2.952,0.686,5.16,3.339,5.16,6.523
		c0,1.598-0.576,3.044-1.5,4.197l-2.276-2.161v21.17h11.132c-1.252,0.77-2.565,1.452-3.941,2.01v3.792h-7.192h-5.752h-7.192v-3.792
		c-1.375-0.559-2.688-1.241-3.941-2.01h11.132V27.357L27.124,27.357z M30.733,26.079l-1.145-1.088l-1.135,1.088H30.733
		L30.733,26.079z M38.901,33.837c1.786-2.081,2.874-4.788,2.874-7.758c0-4.507-2.491-8.428-6.158-10.439l3.186-3.028
		c4.333,2.888,7.195,7.838,7.195,13.467c0,4.099-1.528,7.83-4.025,10.677L38.901,33.837L38.901,33.837z M43.756,7.91l3.155-2.997
		c6.127,4.984,10.054,12.609,10.054,21.166c0,7.035-2.659,13.434-7.008,18.257l-3.116-2.958c3.626-4.056,5.851-9.409,5.851-15.299
		C52.692,18.663,49.179,12.091,43.756,7.91L43.756,7.91z"/>
</g>
</svg>
