<?xml version="1.0" encoding="utf-8"?>
<!-- Generator: Adobe Illustrator 17.0.1, SVG Export Plug-In . SVG Version: 6.00 Build 0)  -->
<!DOCTYPE svg PUBLIC "-//W3C//DTD SVG 1.1//EN" "http://www.w3.org/Graphics/SVG/1.1/DTD/svg11.dtd">
<svg version="1.1" xmlns="http://www.w3.org/2000/svg" xmlns:xlink="http://www.w3.org/1999/xlink" x="0px" y="0px" width="60px"
	 height="60px" viewBox="0 0 60 60" enable-background="new 0 0 60 60" xml:space="preserve">
<g id="hwy_disabled">
	<g id="hd">
		<path fill="#eeeeee" d="M23.631,54.189c-0.276,0-0.5-0.224-0.5-0.5V36.957H6.478c-0.276,0-0.5-0.224-0.5-0.5V23.541
			c0-0.276,0.224-0.5,0.5-0.5h16.653V6.311c0-0.276,0.224-0.5,0.5-0.5h12.804c0.276,0,0.5,0.224,0.5,0.5v16.73h16.587
			c0.276,0,0.5,0.224,0.5,0.5v12.916c0,0.276-0.224,0.5-0.5,0.5H36.935v16.732c0,0.276-0.224,0.5-0.5,0.5H23.631z"/>
		<path fill="#cccccc" d="M36.435,6.311v17.23h17.087v12.915H36.435v17.233H23.631V36.457H6.478V23.541h17.153V6.311H36.435 M36.435,5.311H23.631
			c-0.552,0-1,0.448-1,1v16.23H6.478c-0.552,0-1,0.448-1,1v12.915c0,0.552,0.448,1,1,1h16.153v16.233c0,0.552,0.448,1,1,1h12.804
			c0.552,0,1-0.448,1-1V37.457h16.087c0.552,0,1-0.448,1-1V23.541c0-0.552-0.448-1-1-1H37.435V6.311
			C37.435,5.759,36.987,5.311,36.435,5.311L36.435,5.311z"/>
	</g>
</g>
<g id="hwy">
	<g id="h">
		<path fill="#666666" d="M23.631,54.189c-0.276,0-0.5-0.224-0.5-0.5V36.957H6.478c-0.276,0-0.5-0.224-0.5-0.5V23.541
			c0-0.276,0.224-0.5,0.5-0.5h16.653V6.311c0-0.276,0.224-0.5,0.5-0.5h12.804c0.276,0,0.5,0.224,0.5,0.5v16.73h16.587
			c0.276,0,0.5,0.224,0.5,0.5v12.916c0,0.276-0.224,0.5-0.5,0.5H36.935v16.732c0,0.276-0.224,0.5-0.5,0.5H23.631z"/>
		<path display="none" fill="#3A3A3A" d="M36.435,6.311v17.23h17.087v12.915H36.435v17.233H23.631V36.457H6.478V23.541h17.153V6.311H36.435 M36.435,5.311H23.631
			c-0.552,0-1,0.448-1,1v16.23H6.478c-0.552,0-1,0.448-1,1v12.915c0,0.552,0.448,1,1,1h16.153v16.233c0,0.552,0.448,1,1,1h12.804
			c0.552,0,1-0.448,1-1V37.457h16.087c0.552,0,1-0.448,1-1V23.541c0-0.552-0.448-1-1-1H37.435V6.311
			C37.435,5.759,36.987,5.311,36.435,5.311L36.435,5.311z"/>
	</g>
</g>
<g id="group">
	<polygon id="g" fill="#3A3A3A" points="53.522,36.457 36.435,36.457 36.435,53.689 23.631,53.689 23.631,36.457 6.478,36.457 
		6.478,23.541 23.631,23.541 23.631,6.311 36.435,6.311 36.435,23.541 53.522,23.541 53.522,36.457 	"/>
</g>
<g id="disabled">
	<linearGradient id="d_1_" gradientUnits="userSpaceOnUse" x1="30" y1="53.6892" x2="30" y2="6.3108">
		<stop  offset="0" style="stop-color:#E0E0E0"/>
		<stop  offset="0.0118" style="stop-color:#E1E1E1"/>
		<stop  offset="0.2974" style="stop-color:#F2F2F2"/>
		<stop  offset="0.6101" style="stop-color:#FCFCFC"/>
		<stop  offset="1" style="stop-color:#FFFFFF"/>
	</linearGradient>
	<polygon id="d" fill="url(#d_1_)" points="53.522,36.457 36.435,36.457 36.435,53.689 23.631,53.689 23.631,36.457 6.478,36.457 
		6.478,23.541 23.631,23.541 23.631,6.311 36.435,6.311 36.435,23.541 53.522,23.541 53.522,36.457 	"/>
</g>
<g id="normal">
	<linearGradient id="n_1_" gradientUnits="userSpaceOnUse" x1="30" y1="53.6892" x2="30" y2="6.3108">
		<stop  offset="0" style="stop-color:#D9DEFF"/>
		<stop  offset="0.0932" style="stop-color:#E1E5FF"/>
		<stop  offset="0.3551" style="stop-color:#F2F4FF"/>
		<stop  offset="0.6423" style="stop-color:#FCFCFF"/>
		<stop  offset="1" style="stop-color:#FFFFFF"/>
	</linearGradient>
	<polygon id="n" fill="url(#n_1_)" points="53.522,36.457 36.435,36.457 36.435,53.689 23.631,53.689 23.631,36.457 6.478,36.457 
		6.478,23.541 23.631,23.541 23.631,6.311 36.435,6.311 36.435,23.541 53.522,23.541 53.522,36.457 	"/>
</g>
</svg>
