<?xml version="1.0" encoding="utf-8"?>
<!-- Generator: Adobe Illustrator 17.0.1, SVG Export Plug-In . SVG Version: 6.00 Build 0)  -->
<!DOCTYPE svg PUBLIC "-//W3C//DTD SVG 1.1//EN" "http://www.w3.org/Graphics/SVG/1.1/DTD/svg11.dtd">
<svg version="1.1" xmlns="http://www.w3.org/2000/svg" xmlns:xlink="http://www.w3.org/1999/xlink" x="0px" y="0px" width="60px"
	 height="60px" viewBox="0 0 60 60" enable-background="new 0 0 60 60" xml:space="preserve">
<g id="hwy_disabled">
	<g id="hd">
		<path fill="#eeeeee" d="M19.086,56.229c-0.079,0-0.157-0.019-0.228-0.055c-0.197-0.101-4.811-2.503-4.811-6.078V27.219
			c0-3.111,2.797-5.858,6.1-6.113V10.191c0-0.276,0.224-0.5,0.5-0.5h8.313c0.276,0,0.5,0.224,0.5,0.5v2.678l19.823-7.068
			c0.055-0.02,0.111-0.029,0.168-0.029c0.102,0,0.203,0.031,0.288,0.092c0.133,0.093,0.212,0.246,0.212,0.408v16.548
			c0,0.162-0.079,0.315-0.212,0.408c-0.085,0.061-0.187,0.092-0.288,0.092c-0.057,0-0.113-0.01-0.168-0.029l-19.823-7.069v4.884
			c3.337,0.253,6.163,3.002,6.163,6.114v22.877c0,3.58-4.788,5.98-4.991,6.081c-0.069,0.034-0.145,0.052-0.221,0.052H19.086z"/>
		<path fill="#cccccc" d="M49.452,6.272v16.547l-20.491-7.308v6.075c3.086,0,6.163,2.522,6.163,5.633c0,0,0,14.658,0,22.877
			c0,3.311-4.712,5.633-4.712,5.633H19.086c0,0-4.539-2.321-4.539-5.633c0-8.219,0-22.877,0-22.877c0-3.111,3.014-5.633,6.1-5.633
			V10.191h8.313v3.387L49.452,6.272 M49.452,5.272c-0.113,0-0.227,0.019-0.336,0.058l-19.156,6.83v-1.968c0-0.552-0.448-1-1-1
			h-8.313c-0.552,0-1,0.448-1,1v10.467c-3.348,0.485-6.1,3.343-6.1,6.561v22.877c0,3.878,4.876,6.417,5.083,6.523
			c0.141,0.072,0.297,0.11,0.455,0.11h11.325c0.153,0,0.304-0.035,0.442-0.103c0.215-0.106,5.27-2.641,5.27-6.53V27.219
			c0-3.221-2.781-6.081-6.163-6.562V16.93l19.156,6.831c0.109,0.039,0.223,0.058,0.336,0.058c0.204,0,0.405-0.062,0.576-0.183
			c0.266-0.187,0.424-0.492,0.424-0.817V6.272c0-0.325-0.158-0.63-0.424-0.817C49.858,5.334,49.656,5.272,49.452,5.272L49.452,5.272
			z"/>
	</g>
</g>
<g id="hwy">
	<g id="h_1_">
		<path fill="#666666" d="M19.086,56.229c-0.079,0-0.157-0.019-0.228-0.055c-0.197-0.101-4.811-2.503-4.811-6.078V27.219
			c0-3.111,2.797-5.858,6.1-6.113V10.191c0-0.276,0.224-0.5,0.5-0.5h8.313c0.276,0,0.5,0.224,0.5,0.5v2.678l19.823-7.068
			c0.055-0.02,0.111-0.029,0.168-0.029c0.102,0,0.203,0.031,0.288,0.092c0.133,0.093,0.212,0.246,0.212,0.408v16.548
			c0,0.162-0.079,0.315-0.212,0.408c-0.085,0.061-0.187,0.092-0.288,0.092c-0.057,0-0.113-0.01-0.168-0.029l-19.823-7.069v4.884
			c3.337,0.253,6.163,3.002,6.163,6.114v22.877c0,3.58-4.788,5.98-4.991,6.081c-0.069,0.034-0.145,0.052-0.221,0.052H19.086z"/>
		<path display="none" fill="#3A3A3A" d="M49.452,6.272v16.547l-20.491-7.308v6.075c3.086,0,6.163,2.522,6.163,5.633c0,0,0,14.658,0,22.877
			c0,3.311-4.712,5.633-4.712,5.633H19.086c0,0-4.539-2.321-4.539-5.633c0-8.219,0-22.877,0-22.877c0-3.111,3.014-5.633,6.1-5.633
			V10.191h8.313v3.387L49.452,6.272 M49.452,5.272c-0.113,0-0.227,0.019-0.336,0.058l-19.156,6.83v-1.968c0-0.552-0.448-1-1-1
			h-8.313c-0.552,0-1,0.448-1,1v10.467c-3.348,0.485-6.1,3.343-6.1,6.561v22.877c0,3.878,4.876,6.417,5.083,6.523
			c0.141,0.072,0.297,0.11,0.455,0.11h11.325c0.153,0,0.304-0.035,0.442-0.103c0.215-0.106,5.27-2.641,5.27-6.53V27.219
			c0-3.221-2.781-6.081-6.163-6.562V16.93l19.156,6.831c0.109,0.039,0.223,0.058,0.336,0.058c0.204,0,0.405-0.062,0.576-0.183
			c0.266-0.187,0.424-0.492,0.424-0.817V6.272c0-0.325-0.158-0.63-0.424-0.817C49.858,5.334,49.656,5.272,49.452,5.272L49.452,5.272
			z"/>
	</g>
</g>
<g id="group">
	<path id="g" fill="#3A3A3A" d="M49.452,22.819l-20.491-7.308v6.075c3.086,0,6.163,2.522,6.163,5.633c0,0,0,14.658,0,22.877
		c0,3.311-4.712,5.633-4.712,5.633H19.086c0,0-4.539-2.321-4.539-5.633c0-8.219,0-22.877,0-22.877c0-3.111,3.014-5.633,6.1-5.633
		V10.191h8.313v3.387l20.491-7.306V22.819L49.452,22.819z"/>
</g>
<g id="disabled">
	<linearGradient id="d_2_" gradientUnits="userSpaceOnUse" x1="32" y1="55.7281" x2="32" y2="6.2719">
		<stop  offset="0" style="stop-color:#E0E0E0"/>
		<stop  offset="0.0118" style="stop-color:#E1E1E1"/>
		<stop  offset="0.2974" style="stop-color:#F2F2F2"/>
		<stop  offset="0.6101" style="stop-color:#FCFCFC"/>
		<stop  offset="1" style="stop-color:#FFFFFF"/>
	</linearGradient>
	<path id="d_1_" fill="url(#d_2_)" d="M49.452,22.819l-20.491-7.308v6.075c3.086,0,6.163,2.522,6.163,5.633c0,0,0,14.658,0,22.877
		c0,3.311-4.712,5.633-4.712,5.633H19.086c0,0-4.539-2.321-4.539-5.633c0-8.219,0-22.877,0-22.877c0-3.111,3.014-5.633,6.1-5.633
		V10.191h8.313v3.387l20.491-7.306V22.819L49.452,22.819z"/>
</g>
<g id="normal">
	<linearGradient id="n_1_" gradientUnits="userSpaceOnUse" x1="32" y1="55.7281" x2="32" y2="6.2719">
		<stop  offset="0" style="stop-color:#D9DEFF"/>
		<stop  offset="0.0932" style="stop-color:#E1E5FF"/>
		<stop  offset="0.3551" style="stop-color:#F2F4FF"/>
		<stop  offset="0.6423" style="stop-color:#FCFCFF"/>
		<stop  offset="1" style="stop-color:#FFFFFF"/>
	</linearGradient>
	<path id="n" fill="url(#n_1_)" d="M49.452,22.819l-20.491-7.308v6.075c3.086,0,6.163,2.522,6.163,5.633c0,0,0,14.658,0,22.877
		c0,3.311-4.712,5.633-4.712,5.633H19.086c0,0-4.539-2.321-4.539-5.633c0-8.219,0-22.877,0-22.877c0-3.111,3.014-5.633,6.1-5.633
		V10.191h8.313v3.387l20.491-7.306V22.819L49.452,22.819z"/>
</g>
</svg>
