<?xml version="1.0" encoding="utf-8"?>
<!-- Generator: Adobe Illustrator 16.0.2, SVG Export Plug-In . SVG Version: 6.00 Build 0)  -->
<!DOCTYPE svg PUBLIC "-//W3C//DTD SVG 1.1//EN" "http://www.w3.org/Graphics/SVG/1.1/DTD/svg11.dtd">
<svg version="1.1" id="Layer_1" xmlns="http://www.w3.org/2000/svg" xmlns:xlink="http://www.w3.org/1999/xlink" x="0px" y="0px"
	 width="80px" height="80px" viewBox="0 0 80 80" enable-background="new 0 0 80 80" xml:space="preserve">
<g id="group">
	<path fill="#000000" d="M59.585,43.365v-0.041H19.46v0.041h-7.175l7.43-9.49V19.457H28.6v7.56l11.402-12.524l27.713,28.873H59.585
		L59.585,43.365z M59.585,65.508H45.009V52.305l-0.163-0.01c-0.224-1.65-2.106-2.946-4.425-2.946c-2.468,0-4.47,1.461-4.47,3.267
		c0,0.135,0.032,0.26,0.053,0.389l-0.096,0.027v12.477H19.461L19.46,43.365h40.125V65.508L59.585,65.508z"/>
</g>
<g id="disabled">
	<path fill="#000000" d="M59.585,43.365v-0.041H19.46v0.041h-7.175l7.43-9.49V19.457H28.6v7.56l11.402-12.524l27.713,28.873H59.585
		L59.585,43.365z M59.585,65.508H45.009V52.305l-0.163-0.01c-0.224-1.65-2.106-2.946-4.425-2.946c-2.468,0-4.47,1.461-4.47,3.267
		c0,0.135,0.032,0.26,0.053,0.389l-0.096,0.027v12.477H19.461L19.46,43.365h40.125V65.508L59.585,65.508z"/>
</g>
<g id="normal">
	<path fill="#000000" d="M59.585,43.365v-0.041H19.46v0.041h-7.175l7.43-9.49V19.457H28.6v7.56l11.402-12.524l27.713,28.873H59.585
		L59.585,43.365z M59.585,65.508H45.009V52.305l-0.163-0.01c-0.224-1.65-2.106-2.946-4.425-2.946c-2.468,0-4.47,1.461-4.47,3.267
		c0,0.135,0.032,0.26,0.053,0.389l-0.096,0.027v12.477H19.461L19.46,43.365h40.125V65.508L59.585,65.508z"/>
</g>
</svg>
