<?xml version="1.0" encoding="utf-8"?>
<!-- Generator: Adobe Illustrator 17.0.1, SVG Export Plug-In . SVG Version: 6.00 Build 0)  -->
<!DOCTYPE svg PUBLIC "-//W3C//DTD SVG 1.1//EN" "http://www.w3.org/Graphics/SVG/1.1/DTD/svg11.dtd">
<svg version="1.1" xmlns="http://www.w3.org/2000/svg" xmlns:xlink="http://www.w3.org/1999/xlink" x="0px" y="0px" width="60px"
	 height="60px" viewBox="0 0 60 60" enable-background="new 0 0 60 60" xml:space="preserve">
<g id="hwy_disabled">
	<g id="hd">
		<path fill="#eeeeee" d="M43.226,45.576c-0.12,0-0.236-0.043-0.327-0.122c-0.054-0.046-4.437-3.78-10.064-5.159
			c4.343,2.057,5.314,4.43,5.38,4.604c0.058,0.153,0.037,0.325-0.056,0.461c-0.093,0.135-0.248,0.216-0.412,0.216H4.741
			c-0.276,0-0.5-0.224-0.5-0.5v-4.408c0-0.114,0.039-0.226,0.111-0.314c0.102-0.127,2.601-3.101,10.754-3.101
			c5.891,0,10.305,0.637,13.606,1.544c0.701-0.39,1.382-0.85,2.1-1.335c1.693-1.145,3.608-2.439,6.484-3.273
			c1.758-1.926,1.81-2.536,1.81-2.601c0-0.624-0.09-1.219-0.27-1.772c-0.557-0.135-1.079-0.325-1.552-0.566
			c-0.254-0.129-0.656-0.237-1.082-0.354c-0.829-0.224-1.685-0.456-2.147-0.99c-0.415-0.479-0.185-1.198,0.06-1.958
			c0.104-0.324,0.278-0.865,0.232-1.02c-0.125-0.273-0.288-0.48-0.46-0.7c-0.318-0.404-0.679-0.863-0.679-1.694
			c0-0.41-0.184-0.929-0.361-1.431c-0.308-0.87-0.626-1.771-0.211-2.55c0.411-0.771,1.46-1.191,2.474-1.597
			c0.513-0.206,0.997-0.399,1.28-0.599c0.215-0.151,0.455-0.228,0.713-0.228c0.279,0,0.533,0.089,0.757,0.168
			c0.186,0.064,0.361,0.126,0.515,0.126c0.048,0,0.093-0.006,0.138-0.018c0.111-0.06,0.39-0.482,0.556-0.734
			c0.405-0.614,0.823-1.248,1.432-1.248c1.342,0,2.896,1.953,3.417,2.664c0.619,0.111,2.275,0.489,2.852,1.408
			c0.08,0.126,0.359,0.345,0.584,0.521c0.434,0.339,0.882,0.689,1.029,1.123c0.199,0.584-0.023,1.108-0.218,1.572
			c-0.124,0.292-0.24,0.567-0.24,0.821c0,0.358,0.179,0.88,0.353,1.385c0.299,0.868,0.608,1.768,0.281,2.478
			c-0.246,0.53-0.85,1.067-1.383,1.541c-0.238,0.211-0.46,0.406-0.612,0.573c-0.119,0.13-0.332,0.286-0.675,0.286
			c-0.363,0-0.748-0.18-1.119-0.354c-0.26-0.121-0.583-0.272-0.747-0.272c-0.288,0.161-0.583,0.395-0.896,0.641
			c-0.208,0.164-0.419,0.33-0.635,0.483c-0.305,0.677-0.466,1.466-0.466,2.294c0,0.075,0.054,0.502,1.068,1.742l0.044-0.002
			c0.193-0.009,0.386-0.018,0.59-0.021c9.857,0,11.921,5.971,12.004,6.225c0.017,0.05,0.025,0.103,0.025,0.155v5.389
			c0,0.276-0.224,0.5-0.5,0.5H43.226z"/>
		<path fill="#cccccc" d="M40.501,14.924c1.291,0,3.132,2.624,3.132,2.624s2.143,0.305,2.713,1.214c0.287,0.457,1.386,1.018,1.563,1.54
			c0.245,0.72-0.485,1.426-0.485,2.232c0,1.064,1.095,2.75,0.68,3.653c-0.303,0.656-1.432,1.461-1.911,1.986
			c-0.08,0.088-0.184,0.123-0.306,0.123c-0.511,0-1.324-0.625-1.865-0.625c-0.093,0-0.178,0.018-0.252,0.062
			c-0.552,0.322-1.093,0.832-1.675,1.229c-0.265,0.547-0.57,1.424-0.57,2.627c0,0.527,0.658,1.439,1.342,2.253
			c0.287-0.011,0.565-0.029,0.867-0.033c9.601,0,11.523,5.88,11.523,5.88v5.388H43.226c0,0-6.69-5.785-14.373-5.785
			c2.463-1.342,4.566-3.49,8.718-4.661c0.852-0.923,2.037-2.333,2.037-3.042c0-0.927-0.183-1.657-0.389-2.2
			c-0.598-0.122-1.174-0.314-1.706-0.585c-0.794-0.404-2.496-0.552-3.077-1.225c-0.439-0.507,0.653-2.231,0.371-2.851
			c-0.406-0.894-1.097-1.143-1.097-2.194c0-1.209-1.159-2.754-0.631-3.746c0.517-0.971,2.713-1.397,3.6-2.02
			c0.142-0.1,0.284-0.137,0.426-0.137c0.401,0,0.81,0.295,1.271,0.295c0.089,0,0.179-0.011,0.272-0.037
			C39.229,16.723,39.869,14.924,40.501,14.924 M15.107,37.753c19.866,0,22.641,7.323,22.641,7.323H4.741v-4.408
			C4.741,40.668,7.098,37.753,15.107,37.753 M40.501,13.924c-0.878,0-1.394,0.782-1.849,1.472c-0.106,0.16-0.253,0.384-0.359,0.516
			c-0.077-0.019-0.18-0.055-0.267-0.086c-0.249-0.087-0.558-0.196-0.922-0.196c-0.363,0-0.7,0.107-1.001,0.319
			c-0.235,0.165-0.714,0.357-1.177,0.542c-1.047,0.419-2.234,0.894-2.731,1.826c-0.518,0.974-0.147,2.025,0.181,2.952
			c0.163,0.462,0.332,0.94,0.332,1.265c0,1.003,0.454,1.581,0.786,2.003c0.137,0.174,0.258,0.328,0.354,0.509
			c-0.024,0.175-0.137,0.527-0.208,0.748c-0.263,0.819-0.561,1.747,0.039,2.44c0.561,0.649,1.535,0.913,2.394,1.145
			c0.382,0.103,0.778,0.21,0.985,0.316c0.429,0.218,0.891,0.397,1.38,0.534c0.113,0.429,0.169,0.885,0.169,1.36
			c-0.032,0.16-0.411,0.86-1.586,2.16c-2.875,0.856-4.792,2.152-6.489,3.299c-0.654,0.442-1.277,0.863-1.905,1.224
			c-3.328-0.896-7.726-1.518-13.521-1.518c-8.389,0-11.034,3.152-11.143,3.286c-0.144,0.178-0.222,0.4-0.222,0.629v4.408
			c0,0.552,0.448,1,1,1h33.006c0.329,0,0.636-0.161,0.823-0.432c0.187-0.27,0.229-0.615,0.112-0.923
			c-0.045-0.119-0.49-1.21-2.022-2.549c3.483,1.594,5.872,3.627,5.911,3.661c0.182,0.156,0.414,0.243,0.654,0.243h12.033
			c0.552,0,1-0.448,1-1v-5.388c0-0.106-0.017-0.21-0.049-0.311c-0.088-0.268-2.264-6.57-12.473-6.57
			c-0.144,0.002-0.279,0.006-0.41,0.012c-0.733-0.927-0.799-1.253-0.801-1.268c0.002-0.686,0.127-1.343,0.372-1.932
			c0.187-0.137,0.367-0.279,0.542-0.417c0.236-0.186,0.462-0.364,0.674-0.505c0.122,0.046,0.317,0.137,0.446,0.198
			c0.421,0.197,0.856,0.4,1.33,0.4c0.41,0,0.782-0.16,1.046-0.451c0.124-0.136,0.342-0.329,0.572-0.533
			c0.571-0.506,1.217-1.08,1.506-1.705c0.411-0.894,0.053-1.934-0.262-2.851c-0.153-0.444-0.326-0.947-0.326-1.222
			c0-0.153,0.102-0.395,0.2-0.628c0.207-0.491,0.49-1.163,0.231-1.926c-0.196-0.575-0.704-0.972-1.195-1.356
			c-0.165-0.129-0.414-0.324-0.477-0.406c-0.62-0.989-2.134-1.418-2.982-1.586C43.503,15.703,41.968,13.924,40.501,13.924
			L40.501,13.924z"/>
	</g>
</g>
<g id="hwy">
	<g id="h">
		<path fill="#666666" d="M43.226,45.576c-0.12,0-0.236-0.043-0.327-0.122c-0.054-0.046-4.437-3.78-10.064-5.159
			c4.343,2.057,5.314,4.43,5.38,4.604c0.058,0.153,0.037,0.325-0.056,0.461c-0.093,0.135-0.248,0.216-0.412,0.216H4.741
			c-0.276,0-0.5-0.224-0.5-0.5v-4.408c0-0.114,0.039-0.226,0.111-0.314c0.102-0.127,2.601-3.101,10.754-3.101
			c5.891,0,10.305,0.637,13.606,1.544c0.701-0.39,1.382-0.85,2.1-1.335c1.693-1.145,3.608-2.439,6.484-3.273
			c1.758-1.926,1.81-2.536,1.81-2.601c0-0.624-0.09-1.219-0.27-1.772c-0.557-0.135-1.079-0.325-1.552-0.566
			c-0.254-0.129-0.656-0.237-1.082-0.354c-0.829-0.224-1.685-0.456-2.147-0.99c-0.415-0.479-0.185-1.198,0.06-1.958
			c0.104-0.324,0.278-0.865,0.232-1.02c-0.125-0.273-0.288-0.48-0.46-0.7c-0.318-0.404-0.679-0.863-0.679-1.694
			c0-0.41-0.184-0.929-0.361-1.431c-0.308-0.87-0.626-1.771-0.211-2.55c0.411-0.771,1.46-1.191,2.474-1.597
			c0.513-0.206,0.997-0.399,1.28-0.599c0.215-0.151,0.455-0.228,0.713-0.228c0.279,0,0.533,0.089,0.757,0.168
			c0.186,0.064,0.361,0.126,0.515,0.126c0.048,0,0.093-0.006,0.138-0.018c0.111-0.06,0.39-0.482,0.556-0.734
			c0.405-0.614,0.823-1.248,1.432-1.248c1.342,0,2.896,1.953,3.417,2.664c0.619,0.111,2.275,0.489,2.852,1.408
			c0.08,0.126,0.359,0.345,0.584,0.521c0.434,0.339,0.882,0.689,1.029,1.123c0.199,0.584-0.023,1.108-0.218,1.572
			c-0.124,0.292-0.24,0.567-0.24,0.821c0,0.358,0.179,0.88,0.353,1.385c0.299,0.868,0.608,1.768,0.281,2.478
			c-0.246,0.53-0.85,1.067-1.383,1.541c-0.238,0.211-0.46,0.406-0.612,0.573c-0.119,0.13-0.332,0.286-0.675,0.286
			c-0.363,0-0.748-0.18-1.119-0.354c-0.26-0.121-0.583-0.272-0.747-0.272c-0.288,0.161-0.583,0.395-0.896,0.641
			c-0.208,0.164-0.419,0.33-0.635,0.483c-0.305,0.677-0.466,1.466-0.466,2.294c0,0.075,0.054,0.502,1.068,1.742l0.044-0.002
			c0.193-0.009,0.386-0.018,0.59-0.021c9.857,0,11.921,5.971,12.004,6.225c0.017,0.05,0.025,0.103,0.025,0.155v5.389
			c0,0.276-0.224,0.5-0.5,0.5H43.226z"/>
		<path display="none" fill="#3A3A3A" d="M40.501,14.924c1.291,0,3.132,2.624,3.132,2.624s2.143,0.305,2.713,1.214c0.287,0.457,1.386,1.018,1.563,1.54
			c0.245,0.72-0.485,1.426-0.485,2.232c0,1.064,1.095,2.75,0.68,3.653c-0.303,0.656-1.432,1.461-1.911,1.986
			c-0.08,0.088-0.184,0.123-0.306,0.123c-0.511,0-1.324-0.625-1.865-0.625c-0.093,0-0.178,0.018-0.252,0.062
			c-0.552,0.322-1.093,0.832-1.675,1.229c-0.265,0.547-0.57,1.424-0.57,2.627c0,0.527,0.658,1.439,1.342,2.253
			c0.287-0.011,0.565-0.029,0.867-0.033c9.601,0,11.523,5.88,11.523,5.88v5.388H43.226c0,0-6.69-5.785-14.373-5.785
			c2.463-1.342,4.566-3.49,8.718-4.661c0.852-0.923,2.037-2.333,2.037-3.042c0-0.927-0.183-1.657-0.389-2.2
			c-0.598-0.122-1.174-0.314-1.706-0.585c-0.794-0.404-2.496-0.552-3.077-1.225c-0.439-0.507,0.653-2.231,0.371-2.851
			c-0.406-0.894-1.097-1.143-1.097-2.194c0-1.209-1.159-2.754-0.631-3.746c0.517-0.971,2.713-1.397,3.6-2.02
			c0.142-0.1,0.284-0.137,0.426-0.137c0.401,0,0.81,0.295,1.271,0.295c0.089,0,0.179-0.011,0.272-0.037
			C39.229,16.723,39.869,14.924,40.501,14.924 M15.107,37.753c19.866,0,22.641,7.323,22.641,7.323H4.741v-4.408
			C4.741,40.668,7.098,37.753,15.107,37.753 M40.501,13.924c-0.878,0-1.394,0.782-1.849,1.472c-0.106,0.16-0.253,0.384-0.359,0.516
			c-0.077-0.019-0.18-0.055-0.267-0.086c-0.249-0.087-0.558-0.196-0.922-0.196c-0.363,0-0.7,0.107-1.001,0.319
			c-0.235,0.165-0.714,0.357-1.177,0.542c-1.047,0.419-2.234,0.894-2.731,1.826c-0.518,0.974-0.147,2.025,0.181,2.952
			c0.163,0.462,0.332,0.94,0.332,1.265c0,1.003,0.454,1.581,0.786,2.003c0.137,0.174,0.258,0.328,0.354,0.509
			c-0.024,0.175-0.137,0.527-0.208,0.748c-0.263,0.819-0.561,1.747,0.039,2.44c0.561,0.649,1.535,0.913,2.394,1.145
			c0.382,0.103,0.778,0.21,0.985,0.316c0.429,0.218,0.891,0.397,1.38,0.534c0.113,0.429,0.169,0.885,0.169,1.36
			c-0.032,0.16-0.411,0.86-1.586,2.16c-2.875,0.856-4.792,2.152-6.489,3.299c-0.654,0.442-1.277,0.863-1.905,1.224
			c-3.328-0.896-7.726-1.518-13.521-1.518c-8.389,0-11.034,3.152-11.143,3.286c-0.144,0.178-0.222,0.4-0.222,0.629v4.408
			c0,0.552,0.448,1,1,1h33.006c0.329,0,0.636-0.161,0.823-0.432c0.187-0.27,0.229-0.615,0.112-0.923
			c-0.045-0.119-0.49-1.21-2.022-2.549c3.483,1.594,5.872,3.627,5.911,3.661c0.182,0.156,0.414,0.243,0.654,0.243h12.033
			c0.552,0,1-0.448,1-1v-5.388c0-0.106-0.017-0.21-0.049-0.311c-0.088-0.268-2.264-6.57-12.473-6.57
			c-0.144,0.002-0.279,0.006-0.41,0.012c-0.733-0.927-0.799-1.253-0.801-1.268c0.002-0.686,0.127-1.343,0.372-1.932
			c0.187-0.137,0.367-0.279,0.542-0.417c0.236-0.186,0.462-0.364,0.674-0.505c0.122,0.046,0.317,0.137,0.446,0.198
			c0.421,0.197,0.856,0.4,1.33,0.4c0.41,0,0.782-0.16,1.046-0.451c0.124-0.136,0.342-0.329,0.572-0.533
			c0.571-0.506,1.217-1.08,1.506-1.705c0.411-0.894,0.053-1.934-0.262-2.851c-0.153-0.444-0.326-0.947-0.326-1.222
			c0-0.153,0.102-0.395,0.2-0.628c0.207-0.491,0.49-1.163,0.231-1.926c-0.196-0.575-0.704-0.972-1.195-1.356
			c-0.165-0.129-0.414-0.324-0.477-0.406c-0.62-0.989-2.134-1.418-2.982-1.586C43.503,15.703,41.968,13.924,40.501,13.924
			L40.501,13.924z"/>
	</g>
</g>
<g id="group">
	<path id="g" fill="#3A3A3A" d="M43.226,45.076c0,0-6.69-5.785-14.373-5.785c2.463-1.342,4.566-3.49,8.718-4.661
		c0.852-0.923,2.037-2.333,2.037-3.042c0-0.927-0.183-1.657-0.389-2.2c-0.598-0.122-1.174-0.314-1.706-0.585
		c-0.794-0.404-2.496-0.552-3.077-1.225c-0.439-0.507,0.653-2.231,0.371-2.851c-0.406-0.894-1.097-1.143-1.097-2.194
		c0-1.209-1.159-2.754-0.631-3.746c0.517-0.971,2.713-1.397,3.6-2.02c0.622-0.437,1.221,0.329,1.969,0.121
		c0.581-0.165,1.221-1.964,1.854-1.964c1.291,0,3.132,2.624,3.132,2.624s2.143,0.305,2.713,1.214
		c0.287,0.457,1.386,1.018,1.563,1.54c0.245,0.72-0.485,1.426-0.485,2.232c0,1.064,1.095,2.75,0.68,3.653
		c-0.303,0.656-1.432,1.461-1.911,1.986c-0.472,0.519-1.816-0.795-2.423-0.441c-0.552,0.322-1.093,0.832-1.675,1.229
		c-0.265,0.547-0.57,1.424-0.57,2.627c0,0.527,0.658,1.439,1.342,2.253c0.287-0.011,0.565-0.029,0.867-0.033
		c9.601,0,11.523,5.88,11.523,5.88v5.388H43.226L43.226,45.076z M37.748,45.076H4.741v-4.408c0,0,2.357-2.915,10.365-2.915
		C34.972,37.753,37.748,45.076,37.748,45.076L37.748,45.076z"/>
</g>
<g id="disabled">
	<linearGradient id="d_1_" gradientUnits="userSpaceOnUse" x1="30" y1="45.0762" x2="30" y2="14.9238">
		<stop  offset="0" style="stop-color:#E0E0E0"/>
		<stop  offset="0.0118" style="stop-color:#E1E1E1"/>
		<stop  offset="0.2974" style="stop-color:#F2F2F2"/>
		<stop  offset="0.6101" style="stop-color:#FCFCFC"/>
		<stop  offset="1" style="stop-color:#FFFFFF"/>
	</linearGradient>
	<path id="d" fill="url(#d_1_)" d="M43.226,45.076c0,0-6.69-5.785-14.373-5.785c2.463-1.342,4.566-3.49,8.718-4.661
		c0.852-0.923,2.037-2.333,2.037-3.042c0-0.927-0.183-1.657-0.389-2.2c-0.598-0.122-1.174-0.314-1.706-0.585
		c-0.794-0.404-2.496-0.552-3.077-1.225c-0.439-0.507,0.653-2.231,0.371-2.851c-0.406-0.894-1.097-1.143-1.097-2.194
		c0-1.209-1.159-2.754-0.631-3.746c0.517-0.971,2.713-1.397,3.6-2.02c0.622-0.437,1.221,0.329,1.969,0.121
		c0.581-0.165,1.221-1.964,1.854-1.964c1.291,0,3.132,2.624,3.132,2.624s2.143,0.305,2.713,1.214
		c0.287,0.457,1.386,1.018,1.563,1.54c0.245,0.72-0.485,1.426-0.485,2.232c0,1.064,1.095,2.75,0.68,3.653
		c-0.303,0.656-1.432,1.461-1.911,1.986c-0.472,0.519-1.816-0.795-2.423-0.441c-0.552,0.322-1.093,0.832-1.675,1.229
		c-0.265,0.547-0.57,1.424-0.57,2.627c0,0.527,0.658,1.439,1.342,2.253c0.287-0.011,0.565-0.029,0.867-0.033
		c9.601,0,11.523,5.88,11.523,5.88v5.388H43.226L43.226,45.076z M37.748,45.076H4.741v-4.408c0,0,2.357-2.915,10.365-2.915
		C34.972,37.753,37.748,45.076,37.748,45.076L37.748,45.076z"/>
</g>
<g id="normal">
	<linearGradient id="n_1_" gradientUnits="userSpaceOnUse" x1="30" y1="45.0762" x2="30" y2="14.9238">
		<stop  offset="0" style="stop-color:#D9DEFF"/>
		<stop  offset="0.0932" style="stop-color:#E1E5FF"/>
		<stop  offset="0.3551" style="stop-color:#F2F4FF"/>
		<stop  offset="0.6423" style="stop-color:#FCFCFF"/>
		<stop  offset="1" style="stop-color:#FFFFFF"/>
	</linearGradient>
	<path id="n" fill="url(#n_1_)" d="M43.226,45.076c0,0-6.69-5.785-14.373-5.785c2.463-1.342,4.566-3.49,8.718-4.661
		c0.852-0.923,2.037-2.333,2.037-3.042c0-0.927-0.183-1.657-0.389-2.2c-0.598-0.122-1.174-0.314-1.706-0.585
		c-0.794-0.404-2.496-0.552-3.077-1.225c-0.439-0.507,0.653-2.231,0.371-2.851c-0.406-0.894-1.097-1.143-1.097-2.194
		c0-1.209-1.159-2.754-0.631-3.746c0.517-0.971,2.713-1.397,3.6-2.02c0.622-0.437,1.221,0.329,1.969,0.121
		c0.581-0.165,1.221-1.964,1.854-1.964c1.291,0,3.132,2.624,3.132,2.624s2.143,0.305,2.713,1.214
		c0.287,0.457,1.386,1.018,1.563,1.54c0.245,0.72-0.485,1.426-0.485,2.232c0,1.064,1.095,2.75,0.68,3.653
		c-0.303,0.656-1.432,1.461-1.911,1.986c-0.472,0.519-1.816-0.795-2.423-0.441c-0.552,0.322-1.093,0.832-1.675,1.229
		c-0.265,0.547-0.57,1.424-0.57,2.627c0,0.527,0.658,1.439,1.342,2.253c0.287-0.011,0.565-0.029,0.867-0.033
		c9.601,0,11.523,5.88,11.523,5.88v5.388H43.226L43.226,45.076z M37.748,45.076H4.741v-4.408c0,0,2.357-2.915,10.365-2.915
		C34.972,37.753,37.748,45.076,37.748,45.076L37.748,45.076z"/>
</g>
</svg>
