<?xml version="1.0" encoding="utf-8"?>
<!-- Generator: Adobe Illustrator 17.0.1, SVG Export Plug-In . SVG Version: 6.00 Build 0)  -->
<!DOCTYPE svg PUBLIC "-//W3C//DTD SVG 1.1//EN" "http://www.w3.org/Graphics/SVG/1.1/DTD/svg11.dtd">
<svg version="1.1" xmlns="http://www.w3.org/2000/svg" xmlns:xlink="http://www.w3.org/1999/xlink" x="0px" y="0px" width="60px"
	 height="60px" viewBox="0 0 60 60" enable-background="new 0 0 60 60" xml:space="preserve">
<g id="hwy_disabled">
	<g id="hd">
		<path fill="#eeeeee" d="M23.461,57.031c-5.116,0-9.278-4.196-9.278-9.354c0-5.157,4.162-9.354,9.278-9.354
			c4.44,0,8.377,3.634,9.143,8.353h17.054c0.199,0,0.379,0.118,0.459,0.301c0.079,0.184,0.042,0.396-0.094,0.541l-5.694,6.073
			c-0.095,0.101-0.227,0.158-0.365,0.158H30.801C29.073,55.838,26.414,57.031,23.461,57.031z M21.749,47.055
			c-1.402,0-2.543,1.152-2.543,2.569s1.141,2.57,2.543,2.57c1.404,0,2.546-1.153,2.546-2.57S23.153,47.055,21.749,47.055z
			 M42.497,37.953c-1.578,0-2.164-0.621-2.164-2.29v-3.752H19.665v3.752c0,1.669-0.586,2.29-2.164,2.29h-2.892
			c-1.579,0-2.166-0.621-2.166-2.29v-3.957l-0.625-0.347c-1.276-0.645-2.599-1.956-2.599-6.725c0-4.685,0.391-5.446,0.77-6.184
			c0.359-0.699,1.101-1.376,1.386-1.621l3.979-10.473c0.94-2.261,3.604-3.389,4.833-3.389h19.623c1.229,0,3.894,1.128,4.828,3.374
			l3.986,10.487c0.284,0.243,1.022,0.913,1.354,1.563c0.409,0.792,0.802,1.554,0.802,6.242c0,4.768-1.323,6.079-2.617,6.733
			l-0.608,0.337v3.958c0,1.669-0.586,2.29-2.164,2.29H42.497z M42.688,22.104c-1.156,0-2.096,0.95-2.096,2.118
			c0,1.169,0.94,2.119,2.096,2.119c1.155,0,2.095-0.95,2.095-2.119C44.783,23.055,43.844,22.104,42.688,22.104z M17.217,22.104
			c-1.156,0-2.096,0.95-2.096,2.118c0,1.169,0.94,2.119,2.096,2.119c1.156,0,2.097-0.95,2.097-2.119
			C19.314,23.055,18.374,22.104,17.217,22.104z M42.323,15.382c-0.132-0.408-0.497-1.358-0.88-2.356
			c-0.681-1.772-1.528-3.978-1.795-4.852c-0.115-0.317-0.902-1.212-1.952-1.212l-0.115,0.004L22.289,6.967l-0.147-0.005
			c-1.049,0-1.837,0.895-1.959,1.234c-0.258,0.846-1.099,3.036-1.775,4.795c-0.395,1.027-0.801,2.087-0.901,2.391H42.323z"/>
		<path fill="#cccccc" d="M39.811,3.469c1.073,0,3.531,1.059,4.366,3.066l4.026,10.594c0,0,0.975,0.795,1.33,1.492
			c0.358,0.697,0.747,1.316,0.747,6.014c0,4.582-1.224,5.722-2.343,6.287l-0.883,0.489v4.252c0,1.38-0.334,1.79-1.664,1.79h-2.894
			c-1.33,0-1.664-0.409-1.664-1.79v-4.252H19.165v4.252c0,1.38-0.332,1.79-1.664,1.79h-2.892c-1.332,0-1.666-0.409-1.666-1.79
			v-4.252l-0.883-0.489c-1.119-0.565-2.341-1.706-2.341-6.287c0-4.698,0.389-5.317,0.745-6.014c0.358-0.697,1.332-1.492,1.332-1.492
			l4.024-10.594c0.835-2.007,3.294-3.066,4.366-3.066H39.811 M22.288,6.467c-0.049-0.003-0.098-0.005-0.147-0.005
			c-1.303,0-2.256,1.083-2.43,1.564c-0.443,1.452-2.555,6.739-2.704,7.276c-0.151,0.54,0.249,0.58,0.373,0.58
			c0.022,0,0.035-0.001,0.035-0.001h25.006c0,0,0.013,0.001,0.035,0.001c0.124,0,0.526-0.04,0.374-0.58
			c-0.152-0.537-2.261-5.824-2.704-7.276c-0.173-0.481-1.128-1.564-2.43-1.564c-0.048,0-0.097,0.001-0.146,0.005H22.288
			 M42.689,26.841c1.43,0,2.595-1.174,2.595-2.618c0-1.442-1.164-2.618-2.595-2.618c-1.432,0-2.596,1.176-2.596,2.618
			C40.092,25.667,41.257,26.841,42.689,26.841 M17.217,26.841c1.43,0,2.596-1.174,2.596-2.618c0-1.442-1.166-2.618-2.596-2.618
			c-1.432,0-2.596,1.176-2.596,2.618C14.621,25.667,15.785,26.841,17.217,26.841 M23.461,38.823c4.488,0,8.181,3.897,8.708,8.353
			h17.488l-5.694,6.074H30.561c-1.596,2.047-4.178,3.282-7.1,3.282c-4.847,0-8.778-3.965-8.778-8.854
			C14.683,42.788,18.613,38.823,23.461,38.823 M21.749,52.694c1.682,0,3.046-1.374,3.046-3.07c0-1.696-1.364-3.07-3.046-3.07
			c-1.682,0-3.044,1.374-3.044,3.07C18.705,51.32,20.068,52.694,21.749,52.694 M49.657,47.176h0.005 M39.811,2.469H20.187
			c-1.536,0-4.303,1.311-5.289,3.682l-3.945,10.384c-0.354,0.314-1.04,0.971-1.378,1.629l-0.031,0.06
			c-0.483,0.941-0.824,1.951-0.824,6.41c0,4.009,0.864,6.156,2.89,7.18L11.943,32v3.664c0,1.955,0.797,2.79,2.666,2.79h2.892
			c2.347,0,2.664-1.41,2.664-2.79v-3.252h19.669v3.252c0,1.379,0.316,2.79,2.664,2.79h2.894c2.347,0,2.664-1.41,2.664-2.79V32
			l0.368-0.204c1.993-1.006,2.858-3.154,2.858-7.162c0-4.463-0.343-5.474-0.828-6.414l-0.029-0.057
			c-0.335-0.658-1.021-1.315-1.376-1.629L45.111,6.18C44.114,3.78,41.347,2.469,39.811,2.469L39.811,2.469z M22.288,7.467H37.55
			c0.021,0,0.042-0.001,0.062-0.002c0.028-0.002,0.056-0.003,0.084-0.003c0.793,0,1.388,0.698,1.487,0.9
			c0.286,0.919,1.121,3.094,1.794,4.847c0.223,0.581,0.463,1.207,0.639,1.673H18.221c0.179-0.475,0.425-1.116,0.654-1.711
			c0.668-1.739,1.496-3.896,1.78-4.808c0.099-0.202,0.693-0.9,1.487-0.9c0.028,0,0.056,0.001,0.085,0.003
			C22.247,7.466,22.268,7.467,22.288,7.467L22.288,7.467z M42.689,25.841c-0.88,0-1.596-0.726-1.596-1.618
			c0-0.892,0.716-1.618,1.596-1.618c0.879,0,1.595,0.726,1.595,1.618C44.283,25.115,43.568,25.841,42.689,25.841L42.689,25.841z
			 M17.217,25.841c-0.88,0-1.596-0.726-1.596-1.618c0-0.892,0.716-1.618,1.596-1.618c0.88,0,1.596,0.726,1.596,1.618
			C18.814,25.115,18.098,25.841,17.217,25.841L17.217,25.841z M23.461,37.823c-5.392,0-9.778,4.42-9.778,9.854
			c0,5.433,4.386,9.854,9.778,9.854c3.017,0,5.747-1.19,7.571-3.282h12.931c0.276,0,0.54-0.114,0.73-0.316l5.666-6.044
			c0.186-0.181,0.301-0.434,0.301-0.714c0-0.552-0.445-1-0.998-1h-0.005H33.021C32.057,41.426,28.01,37.823,23.461,37.823
			L23.461,37.823z M21.749,51.694c-1.127,0-2.044-0.929-2.044-2.07c0-1.141,0.917-2.07,2.044-2.07c1.128,0,2.046,0.929,2.046,2.07
			C23.795,50.766,22.877,51.694,21.749,51.694L21.749,51.694z"/>
	</g>
</g>
<g id="hwy">
	<g id="h">
		<path fill="#666666" d="M23.461,57.031c-5.116,0-9.278-4.196-9.278-9.354c0-5.157,4.162-9.354,9.278-9.354
			c4.44,0,8.377,3.634,9.143,8.353h17.054c0.199,0,0.379,0.118,0.459,0.301c0.079,0.184,0.042,0.396-0.094,0.541l-5.694,6.073
			c-0.095,0.101-0.227,0.158-0.365,0.158H30.801C29.073,55.838,26.414,57.031,23.461,57.031z M21.749,47.055
			c-1.402,0-2.543,1.152-2.543,2.569s1.141,2.57,2.543,2.57c1.404,0,2.546-1.153,2.546-2.57S23.153,47.055,21.749,47.055z
			 M42.497,37.953c-1.578,0-2.164-0.621-2.164-2.29v-3.752H19.665v3.752c0,1.669-0.586,2.29-2.164,2.29h-2.892
			c-1.579,0-2.166-0.621-2.166-2.29v-3.957l-0.625-0.347c-1.276-0.645-2.599-1.956-2.599-6.725c0-4.685,0.391-5.446,0.77-6.184
			c0.359-0.699,1.101-1.376,1.386-1.621l3.979-10.473c0.94-2.261,3.604-3.389,4.833-3.389h19.623c1.229,0,3.894,1.128,4.828,3.374
			l3.986,10.487c0.284,0.243,1.022,0.913,1.354,1.563c0.409,0.792,0.802,1.554,0.802,6.242c0,4.768-1.323,6.079-2.617,6.733
			l-0.608,0.337v3.958c0,1.669-0.586,2.29-2.164,2.29H42.497z M42.688,22.104c-1.156,0-2.096,0.95-2.096,2.118
			c0,1.169,0.94,2.119,2.096,2.119c1.155,0,2.095-0.95,2.095-2.119C44.783,23.055,43.844,22.104,42.688,22.104z M17.217,22.104
			c-1.156,0-2.096,0.95-2.096,2.118c0,1.169,0.94,2.119,2.096,2.119c1.156,0,2.097-0.95,2.097-2.119
			C19.314,23.055,18.374,22.104,17.217,22.104z M42.323,15.382c-0.132-0.408-0.497-1.358-0.88-2.356
			c-0.681-1.772-1.528-3.978-1.795-4.852c-0.115-0.317-0.902-1.212-1.952-1.212l-0.115,0.004L22.289,6.967l-0.147-0.005
			c-1.049,0-1.837,0.895-1.959,1.234c-0.258,0.846-1.099,3.036-1.775,4.795c-0.395,1.027-0.801,2.087-0.901,2.391H42.323z"/>
		<path display="none" fill="#3A3A3A" d="M39.811,3.469c1.073,0,3.531,1.059,4.366,3.066l4.026,10.594c0,0,0.975,0.795,1.33,1.492
			c0.358,0.697,0.747,1.316,0.747,6.014c0,4.582-1.224,5.722-2.343,6.287l-0.883,0.489v4.252c0,1.38-0.334,1.79-1.664,1.79h-2.894
			c-1.33,0-1.664-0.409-1.664-1.79v-4.252H19.165v4.252c0,1.38-0.332,1.79-1.664,1.79h-2.892c-1.332,0-1.666-0.409-1.666-1.79
			v-4.252l-0.883-0.489c-1.119-0.565-2.341-1.706-2.341-6.287c0-4.698,0.389-5.317,0.745-6.014c0.358-0.697,1.332-1.492,1.332-1.492
			l4.024-10.594c0.835-2.007,3.294-3.066,4.366-3.066H39.811 M22.288,6.467c-0.049-0.003-0.098-0.005-0.147-0.005
			c-1.303,0-2.256,1.083-2.43,1.564c-0.443,1.452-2.555,6.739-2.704,7.276c-0.151,0.54,0.249,0.58,0.373,0.58
			c0.022,0,0.035-0.001,0.035-0.001h25.006c0,0,0.013,0.001,0.035,0.001c0.124,0,0.526-0.04,0.374-0.58
			c-0.152-0.537-2.261-5.824-2.704-7.276c-0.173-0.481-1.128-1.564-2.43-1.564c-0.048,0-0.097,0.001-0.146,0.005H22.288
			 M42.689,26.841c1.43,0,2.595-1.174,2.595-2.618c0-1.442-1.164-2.618-2.595-2.618c-1.432,0-2.596,1.176-2.596,2.618
			C40.092,25.667,41.257,26.841,42.689,26.841 M17.217,26.841c1.43,0,2.596-1.174,2.596-2.618c0-1.442-1.166-2.618-2.596-2.618
			c-1.432,0-2.596,1.176-2.596,2.618C14.621,25.667,15.785,26.841,17.217,26.841 M23.461,38.823c4.488,0,8.181,3.897,8.708,8.353
			h17.488l-5.694,6.074H30.561c-1.596,2.047-4.178,3.282-7.1,3.282c-4.847,0-8.778-3.965-8.778-8.854
			C14.683,42.788,18.613,38.823,23.461,38.823 M21.749,52.694c1.682,0,3.046-1.374,3.046-3.07c0-1.696-1.364-3.07-3.046-3.07
			c-1.682,0-3.044,1.374-3.044,3.07C18.705,51.32,20.068,52.694,21.749,52.694 M49.657,47.176h0.005 M39.811,2.469H20.187
			c-1.536,0-4.303,1.311-5.289,3.682l-3.945,10.384c-0.354,0.314-1.04,0.971-1.378,1.629l-0.031,0.06
			c-0.483,0.941-0.824,1.951-0.824,6.41c0,4.009,0.864,6.156,2.89,7.18L11.943,32v3.664c0,1.955,0.797,2.79,2.666,2.79h2.892
			c2.347,0,2.664-1.41,2.664-2.79v-3.252h19.669v3.252c0,1.379,0.316,2.79,2.664,2.79h2.894c2.347,0,2.664-1.41,2.664-2.79V32
			l0.368-0.204c1.993-1.006,2.858-3.154,2.858-7.162c0-4.463-0.343-5.474-0.828-6.414l-0.029-0.057
			c-0.335-0.658-1.021-1.315-1.376-1.629L45.111,6.18C44.114,3.78,41.347,2.469,39.811,2.469L39.811,2.469z M22.288,7.467H37.55
			c0.021,0,0.042-0.001,0.062-0.002c0.028-0.002,0.056-0.003,0.084-0.003c0.793,0,1.388,0.698,1.487,0.9
			c0.286,0.919,1.121,3.094,1.794,4.847c0.223,0.581,0.463,1.207,0.639,1.673H18.221c0.179-0.475,0.425-1.116,0.654-1.711
			c0.668-1.739,1.496-3.896,1.78-4.808c0.099-0.202,0.693-0.9,1.487-0.9c0.028,0,0.056,0.001,0.085,0.003
			C22.247,7.466,22.268,7.467,22.288,7.467L22.288,7.467z M42.689,25.841c-0.88,0-1.596-0.726-1.596-1.618
			c0-0.892,0.716-1.618,1.596-1.618c0.879,0,1.595,0.726,1.595,1.618C44.283,25.115,43.568,25.841,42.689,25.841L42.689,25.841z
			 M17.217,25.841c-0.88,0-1.596-0.726-1.596-1.618c0-0.892,0.716-1.618,1.596-1.618c0.88,0,1.596,0.726,1.596,1.618
			C18.814,25.115,18.098,25.841,17.217,25.841L17.217,25.841z M23.461,37.823c-5.392,0-9.778,4.42-9.778,9.854
			c0,5.433,4.386,9.854,9.778,9.854c3.017,0,5.747-1.19,7.571-3.282h12.931c0.276,0,0.54-0.114,0.73-0.316l5.666-6.044
			c0.186-0.181,0.301-0.434,0.301-0.714c0-0.552-0.445-1-0.998-1h-0.005H33.021C32.057,41.426,28.01,37.823,23.461,37.823
			L23.461,37.823z M21.749,51.694c-1.127,0-2.044-0.929-2.044-2.07c0-1.141,0.917-2.07,2.044-2.07c1.128,0,2.046,0.929,2.046,2.07
			C23.795,50.766,22.877,51.694,21.749,51.694L21.749,51.694z"/>
	</g>
</g>
<g id="group">
	<path id="g" fill="#3A3A3A" d="M47.938,30.922l-0.883,0.489v4.252c0,1.38-0.334,1.79-1.664,1.79h-2.894
		c-1.33,0-1.664-0.409-1.664-1.79v-4.252H19.165v4.252c0,1.38-0.332,1.79-1.664,1.79h-2.892c-1.332,0-1.666-0.409-1.666-1.79v-4.252
		l-0.883-0.489c-1.119-0.565-2.341-1.706-2.341-6.287c0-4.698,0.389-5.317,0.745-6.014c0.358-0.697,1.332-1.492,1.332-1.492
		l4.024-10.594c0.835-2.007,3.294-3.066,4.366-3.066h19.623c1.073,0,3.531,1.059,4.366,3.066l0,0l4.027,10.594
		c0,0,0.975,0.795,1.33,1.492c0.358,0.697,0.747,1.316,0.747,6.014C50.28,29.216,49.056,30.357,47.938,30.922L47.938,30.922z
		 M14.621,24.223c0,1.444,1.164,2.618,2.596,2.618c1.43,0,2.596-1.174,2.596-2.618c0-1.442-1.166-2.618-2.596-2.618
		C15.785,21.604,14.621,22.781,14.621,24.223L14.621,24.223z M42.831,15.303c-0.152-0.537-2.261-5.824-2.704-7.276
		c-0.18-0.499-1.2-1.646-2.576-1.56H22.288c-1.378-0.086-2.397,1.061-2.576,1.56c-0.443,1.452-2.555,6.739-2.704,7.276
		c-0.178,0.635,0.407,0.579,0.407,0.579h25.006C42.421,15.882,43.008,15.938,42.831,15.303L42.831,15.303z M42.689,21.604
		c-1.432,0-2.596,1.176-2.596,2.618c0,1.444,1.164,2.618,2.596,2.618c1.43,0,2.595-1.174,2.595-2.618
		C45.283,22.781,44.119,21.604,42.689,21.604L42.689,21.604z M23.461,38.823c4.488,0,8.181,3.897,8.708,8.353h17.488l-5.694,6.074
		H30.561c-1.596,2.047-4.178,3.282-7.1,3.282c-4.847,0-8.778-3.965-8.778-8.854C14.683,42.788,18.613,38.823,23.461,38.823
		L23.461,38.823z M21.749,52.694c1.682,0,3.046-1.374,3.046-3.07c0-1.696-1.364-3.07-3.046-3.07c-1.682,0-3.044,1.374-3.044,3.07
		C18.705,51.32,20.068,52.694,21.749,52.694L21.749,52.694z"/>
</g>
<g id="disabled">
	<linearGradient id="d_1_" gradientUnits="userSpaceOnUse" x1="30" y1="56.5309" x2="30" y2="3.4691">
		<stop  offset="0" style="stop-color:#E0E0E0"/>
		<stop  offset="0.0118" style="stop-color:#E1E1E1"/>
		<stop  offset="0.2974" style="stop-color:#F2F2F2"/>
		<stop  offset="0.6101" style="stop-color:#FCFCFC"/>
		<stop  offset="1" style="stop-color:#FFFFFF"/>
	</linearGradient>
	<path id="d" fill="url(#d_1_)" d="M47.938,30.922l-0.883,0.489v4.252c0,1.38-0.334,1.79-1.664,1.79h-2.894
		c-1.33,0-1.664-0.409-1.664-1.79v-4.252H19.165v4.252c0,1.38-0.332,1.79-1.664,1.79h-2.892c-1.332,0-1.666-0.409-1.666-1.79v-4.252
		l-0.883-0.489c-1.119-0.565-2.341-1.706-2.341-6.287c0-4.698,0.389-5.317,0.745-6.014c0.358-0.697,1.332-1.492,1.332-1.492
		l4.024-10.594c0.835-2.007,3.294-3.066,4.366-3.066h19.623c1.073,0,3.531,1.059,4.366,3.066l0,0l4.027,10.594
		c0,0,0.975,0.795,1.33,1.492c0.358,0.697,0.747,1.316,0.747,6.014C50.28,29.216,49.056,30.357,47.938,30.922L47.938,30.922z
		 M14.621,24.223c0,1.444,1.164,2.618,2.596,2.618c1.43,0,2.596-1.174,2.596-2.618c0-1.442-1.166-2.618-2.596-2.618
		C15.785,21.604,14.621,22.781,14.621,24.223L14.621,24.223z M42.831,15.303c-0.152-0.537-2.261-5.824-2.704-7.276
		c-0.18-0.499-1.2-1.646-2.576-1.56H22.288c-1.378-0.086-2.397,1.061-2.576,1.56c-0.443,1.452-2.555,6.739-2.704,7.276
		c-0.178,0.635,0.407,0.579,0.407,0.579h25.006C42.421,15.882,43.008,15.938,42.831,15.303L42.831,15.303z M42.689,21.604
		c-1.432,0-2.596,1.176-2.596,2.618c0,1.444,1.164,2.618,2.596,2.618c1.43,0,2.595-1.174,2.595-2.618
		C45.283,22.781,44.119,21.604,42.689,21.604L42.689,21.604z M23.461,38.823c4.488,0,8.181,3.897,8.708,8.353h17.488l-5.694,6.074
		H30.561c-1.596,2.047-4.178,3.282-7.1,3.282c-4.847,0-8.778-3.965-8.778-8.854C14.683,42.788,18.613,38.823,23.461,38.823
		L23.461,38.823z M21.749,52.694c1.682,0,3.046-1.374,3.046-3.07c0-1.696-1.364-3.07-3.046-3.07c-1.682,0-3.044,1.374-3.044,3.07
		C18.705,51.32,20.068,52.694,21.749,52.694L21.749,52.694z"/>
</g>
<g id="normal">
	<linearGradient id="n_1_" gradientUnits="userSpaceOnUse" x1="30" y1="56.5309" x2="30" y2="3.4691">
		<stop  offset="0" style="stop-color:#D9DEFF"/>
		<stop  offset="0.0932" style="stop-color:#E1E5FF"/>
		<stop  offset="0.3551" style="stop-color:#F2F4FF"/>
		<stop  offset="0.6423" style="stop-color:#FCFCFF"/>
		<stop  offset="1" style="stop-color:#FFFFFF"/>
	</linearGradient>
	<path id="n" fill="url(#n_1_)" d="M47.938,30.922l-0.883,0.489v4.252c0,1.38-0.334,1.79-1.664,1.79h-2.894
		c-1.33,0-1.664-0.409-1.664-1.79v-4.252H19.165v4.252c0,1.38-0.332,1.79-1.664,1.79h-2.892c-1.332,0-1.666-0.409-1.666-1.79v-4.252
		l-0.883-0.489c-1.119-0.565-2.341-1.706-2.341-6.287c0-4.698,0.389-5.317,0.745-6.014c0.358-0.697,1.332-1.492,1.332-1.492
		l4.024-10.594c0.835-2.007,3.294-3.066,4.366-3.066h19.623c1.073,0,3.531,1.059,4.366,3.066l0,0l4.027,10.594
		c0,0,0.975,0.795,1.33,1.492c0.358,0.697,0.747,1.316,0.747,6.014C50.28,29.216,49.056,30.357,47.938,30.922L47.938,30.922z
		 M14.621,24.223c0,1.444,1.164,2.618,2.596,2.618c1.43,0,2.596-1.174,2.596-2.618c0-1.442-1.166-2.618-2.596-2.618
		C15.785,21.604,14.621,22.781,14.621,24.223L14.621,24.223z M42.831,15.303c-0.152-0.537-2.261-5.824-2.704-7.276
		c-0.18-0.499-1.2-1.646-2.576-1.56H22.288c-1.378-0.086-2.397,1.061-2.576,1.56c-0.443,1.452-2.555,6.739-2.704,7.276
		c-0.178,0.635,0.407,0.579,0.407,0.579h25.006C42.421,15.882,43.008,15.938,42.831,15.303L42.831,15.303z M42.689,21.604
		c-1.432,0-2.596,1.176-2.596,2.618c0,1.444,1.164,2.618,2.596,2.618c1.43,0,2.595-1.174,2.595-2.618
		C45.283,22.781,44.119,21.604,42.689,21.604L42.689,21.604z M23.461,38.823c4.488,0,8.181,3.897,8.708,8.353h17.488l-5.694,6.074
		H30.561c-1.596,2.047-4.178,3.282-7.1,3.282c-4.847,0-8.778-3.965-8.778-8.854C14.683,42.788,18.613,38.823,23.461,38.823
		L23.461,38.823z M21.749,52.694c1.682,0,3.046-1.374,3.046-3.07c0-1.696-1.364-3.07-3.046-3.07c-1.682,0-3.044,1.374-3.044,3.07
		C18.705,51.32,20.068,52.694,21.749,52.694L21.749,52.694z"/>
</g>
</svg>
