<?xml version="1.0" encoding="utf-8"?>
<!-- Generator: Adobe Illustrator 17.0.1, SVG Export Plug-In . SVG Version: 6.00 Build 0)  -->
<!DOCTYPE svg PUBLIC "-//W3C//DTD SVG 1.1//EN" "http://www.w3.org/Graphics/SVG/1.1/DTD/svg11.dtd">
<svg version="1.1" xmlns="http://www.w3.org/2000/svg" xmlns:xlink="http://www.w3.org/1999/xlink" x="0px" y="0px" width="60px"
	 height="60px" viewBox="0 0 60 60" enable-background="new 0 0 60 60" xml:space="preserve">
<g id="hwy_disabled">
	<g id="hd">
		<path fill="#eeeeee" d="M29.999,58.106c-15.369,0-27.872-12.609-27.872-28.107c0-15.497,12.503-28.105,27.872-28.105
			c15.37,0,27.874,12.608,27.874,28.105C57.873,45.497,45.369,58.106,29.999,58.106z M26.098,54.547
			c1.283,0.205,2.593,0.31,3.903,0.31c4.294,0,8.506-1.127,12.214-3.263l-1.84-3.627l-13.598,2.199L26.098,54.547z M5.531,32.946
			c0.633,5.39,3.028,10.458,6.791,14.37l2.096-1.794l-5.23-12.855L5.531,32.946z M51.706,41.776
			c1.924-3.603,2.938-7.662,2.938-11.775c0-1.266-0.097-2.543-0.289-3.804l-2.893,0.372l-2.567,13.652L51.706,41.776z M25.054,39.77
			l12.985-2.074l2.058-13.105L28.38,18.571l-9.299,9.378L25.054,39.77z M11.694,19.792l10.03-9.521L20.27,7.16
			c-5.018,2.179-9.195,5.997-11.844,10.824L11.694,19.792z M46.039,15.524l2.274-2.158c-3.613-4.042-8.457-6.79-13.734-7.791
			l-0.616,3.271L46.039,15.524z"/>
		<path fill="#cccccc" d="M29.999,2.394c15.119,0,27.374,12.361,27.374,27.605c0,15.247-12.255,27.607-27.374,27.607
			c-15.117,0-27.372-12.361-27.372-27.607C2.627,14.754,14.882,2.394,29.999,2.394 M46.117,16.14l2.888-2.741
			c-3.746-4.357-8.941-7.41-14.827-8.404L33.405,9.11L46.117,16.14 M11.773,20.407L22.33,10.385l-1.811-3.873
			c-5.494,2.259-10.018,6.419-12.767,11.672L11.773,20.407 M24.772,40.321l13.704-2.189l2.17-13.821l-12.362-6.351l-9.811,9.894
			L24.772,40.321 M51.904,42.457c2.062-3.68,3.24-7.928,3.24-12.456c0-1.487-0.129-2.944-0.372-4.361l-3.734,0.48l-2.701,14.365
			L51.904,42.457 M12.292,48l2.725-2.333L9.514,32.141L4.98,32.487C5.563,38.53,8.25,43.952,12.292,48 M30.001,55.357
			c4.705,0,9.106-1.304,12.872-3.571l-2.217-4.371L26.339,49.73l-0.81,5.227C26.98,55.22,28.474,55.357,30.001,55.357 M29.999,1.394
			c-15.644,0-28.372,12.832-28.372,28.605c0,15.774,12.728,28.607,28.372,28.607c15.646,0,28.374-12.833,28.374-28.607
			C58.373,14.226,45.645,1.394,29.999,1.394L29.999,1.394z M34.521,8.584l0.455-2.419c4.822,1.022,9.249,3.536,12.637,7.177
			L45.96,14.91L34.521,8.584L34.521,8.584z M9.108,17.791c2.522-4.384,6.348-7.879,10.917-9.974l1.094,2.339l-9.503,9.021
			L9.108,17.791L9.108,17.791z M19.69,28.046l8.788-8.863l11.068,5.686l-1.945,12.389l-12.266,1.96L19.69,28.046L19.69,28.046z
			 M51.886,27.019l2.044-0.263c0.142,1.078,0.214,2.166,0.214,3.245c0,3.86-0.912,7.673-2.645,11.09l-2.046-1.132L51.886,27.019
			L51.886,27.019z M6.094,33.405l2.768-0.211l4.957,12.183l-1.46,1.25C8.976,42.969,6.781,38.337,6.094,33.405L6.094,33.405z
			 M27.216,50.601l12.879-2.082l1.458,2.874c-3.53,1.942-7.503,2.964-11.551,2.964c-1.115,0-2.232-0.077-3.332-0.23L27.216,50.601
			L27.216,50.601z"/>
	</g>
</g>
<g id="hwy">
	<g id="h_2_">
		<path fill="#666666" d="M29.999,58.106c-15.369,0-27.872-12.609-27.872-28.107c0-15.497,12.503-28.105,27.872-28.105
			c15.37,0,27.874,12.608,27.874,28.105C57.873,45.497,45.369,58.106,29.999,58.106z M26.098,54.547
			c1.283,0.205,2.593,0.31,3.903,0.31c4.294,0,8.506-1.127,12.214-3.263l-1.84-3.627l-13.598,2.199L26.098,54.547z M5.531,32.946
			c0.633,5.39,3.028,10.458,6.791,14.37l2.096-1.794l-5.23-12.855L5.531,32.946z M51.706,41.776
			c1.924-3.603,2.938-7.662,2.938-11.775c0-1.266-0.097-2.543-0.289-3.804l-2.893,0.372l-2.567,13.652L51.706,41.776z M25.054,39.77
			l12.985-2.074l2.058-13.105L28.38,18.571l-9.299,9.378L25.054,39.77z M11.694,19.792l10.03-9.521L20.27,7.16
			c-5.018,2.179-9.195,5.997-11.844,10.824L11.694,19.792z M46.039,15.524l2.274-2.158c-3.613-4.042-8.457-6.79-13.734-7.791
			l-0.616,3.271L46.039,15.524z"/>
		<path display="none" fill="#3A3A3A" d="M29.999,2.394c15.119,0,27.374,12.361,27.374,27.605c0,15.247-12.255,27.607-27.374,27.607
			c-15.117,0-27.372-12.361-27.372-27.607C2.627,14.754,14.882,2.394,29.999,2.394 M46.117,16.14l2.888-2.741
			c-3.746-4.357-8.941-7.41-14.827-8.404L33.405,9.11L46.117,16.14 M11.773,20.407L22.33,10.385l-1.811-3.873
			c-5.494,2.259-10.018,6.419-12.767,11.672L11.773,20.407 M24.772,40.321l13.704-2.189l2.17-13.821l-12.362-6.351l-9.811,9.894
			L24.772,40.321 M51.904,42.457c2.062-3.68,3.24-7.928,3.24-12.456c0-1.487-0.129-2.944-0.372-4.361l-3.734,0.48l-2.701,14.365
			L51.904,42.457 M12.292,48l2.725-2.333L9.514,32.141L4.98,32.487C5.563,38.53,8.25,43.952,12.292,48 M30.001,55.357
			c4.705,0,9.106-1.304,12.872-3.571l-2.217-4.371L26.339,49.73l-0.81,5.227C26.98,55.22,28.474,55.357,30.001,55.357 M29.999,1.394
			c-15.644,0-28.372,12.832-28.372,28.605c0,15.774,12.728,28.607,28.372,28.607c15.646,0,28.374-12.833,28.374-28.607
			C58.373,14.226,45.645,1.394,29.999,1.394L29.999,1.394z M34.521,8.584l0.455-2.419c4.822,1.022,9.249,3.536,12.637,7.177
			L45.96,14.91L34.521,8.584L34.521,8.584z M9.108,17.791c2.522-4.384,6.348-7.879,10.917-9.974l1.094,2.339l-9.503,9.021
			L9.108,17.791L9.108,17.791z M19.69,28.046l8.788-8.863l11.068,5.686l-1.945,12.389l-12.266,1.96L19.69,28.046L19.69,28.046z
			 M51.886,27.019l2.044-0.263c0.142,1.078,0.214,2.166,0.214,3.245c0,3.86-0.912,7.673-2.645,11.09l-2.046-1.132L51.886,27.019
			L51.886,27.019z M6.094,33.405l2.768-0.211l4.957,12.183l-1.46,1.25C8.976,42.969,6.781,38.337,6.094,33.405L6.094,33.405z
			 M27.216,50.601l12.879-2.082l1.458,2.874c-3.53,1.942-7.503,2.964-11.551,2.964c-1.115,0-2.232-0.077-3.332-0.23L27.216,50.601
			L27.216,50.601z"/>
	</g>
</g>
<g id="group">
	<path id="g" fill="#3A3A3A" d="M29.999,57.606c-15.117,0-27.372-12.361-27.372-27.607c0-15.245,12.255-27.605,27.372-27.605
		c15.119,0,27.374,12.361,27.374,27.605C57.373,45.246,45.118,57.606,29.999,57.606L29.999,57.606z M51.038,26.12l-2.701,14.365
		l3.567,1.972c2.062-3.68,3.24-7.928,3.24-12.456c0-1.487-0.129-2.944-0.372-4.361L51.038,26.12L51.038,26.12z M30.001,55.357
		c4.705,0,9.106-1.304,12.872-3.571l-2.217-4.371L26.339,49.73l-0.81,5.227C26.98,55.22,28.474,55.357,30.001,55.357L30.001,55.357z
		 M28.283,17.959l-9.811,9.894l6.3,12.468l13.704-2.189l2.17-13.821L28.283,17.959L28.283,17.959z M12.292,48l2.725-2.333
		L9.514,32.141L4.98,32.487C5.563,38.53,8.25,43.952,12.292,48L12.292,48z M7.752,18.184l4.021,2.223L22.33,10.385l-1.811-3.873
		C15.025,8.771,10.501,12.931,7.752,18.184L7.752,18.184z M34.179,4.995L33.405,9.11l12.713,7.03l2.888-2.741
		C45.26,9.042,40.065,5.989,34.179,4.995L34.179,4.995z"/>
</g>
<g id="disabled">
	<linearGradient id="d_1_" gradientUnits="userSpaceOnUse" x1="30" y1="57.6061" x2="30" y2="2.3939">
		<stop  offset="0" style="stop-color:#E0E0E0"/>
		<stop  offset="0.0118" style="stop-color:#E1E1E1"/>
		<stop  offset="0.2974" style="stop-color:#F2F2F2"/>
		<stop  offset="0.6101" style="stop-color:#FCFCFC"/>
		<stop  offset="1" style="stop-color:#FFFFFF"/>
	</linearGradient>
	<path id="d_2_" fill="url(#d_1_)" d="M29.999,57.606c-15.117,0-27.372-12.361-27.372-27.607c0-15.245,12.255-27.605,27.372-27.605
		c15.119,0,27.374,12.361,27.374,27.605C57.373,45.246,45.118,57.606,29.999,57.606L29.999,57.606z M51.038,26.12l-2.701,14.365
		l3.567,1.972c2.062-3.68,3.24-7.928,3.24-12.456c0-1.487-0.129-2.944-0.372-4.361L51.038,26.12L51.038,26.12z M30.001,55.357
		c4.705,0,9.106-1.304,12.872-3.571l-2.217-4.371L26.339,49.73l-0.81,5.227C26.98,55.22,28.474,55.357,30.001,55.357L30.001,55.357z
		 M28.283,17.959l-9.811,9.894l6.3,12.468l13.704-2.189l2.17-13.821L28.283,17.959L28.283,17.959z M12.292,48l2.725-2.333
		L9.514,32.141L4.98,32.487C5.563,38.53,8.25,43.952,12.292,48L12.292,48z M7.752,18.184l4.021,2.223L22.33,10.385l-1.811-3.873
		C15.025,8.771,10.501,12.931,7.752,18.184L7.752,18.184z M34.179,4.995L33.405,9.11l12.713,7.03l2.888-2.741
		C45.26,9.042,40.065,5.989,34.179,4.995L34.179,4.995z"/>
</g>
<g id="normal">
	<linearGradient id="n_1_" gradientUnits="userSpaceOnUse" x1="30" y1="57.6061" x2="30" y2="2.3939">
		<stop  offset="0" style="stop-color:#D9DEFF"/>
		<stop  offset="0.0932" style="stop-color:#E1E5FF"/>
		<stop  offset="0.3551" style="stop-color:#F2F4FF"/>
		<stop  offset="0.6423" style="stop-color:#FCFCFF"/>
		<stop  offset="1" style="stop-color:#FFFFFF"/>
	</linearGradient>
	<path id="n" fill="url(#n_1_)" d="M29.999,57.606c-15.117,0-27.372-12.361-27.372-27.607c0-15.245,12.255-27.605,27.372-27.605
		c15.119,0,27.374,12.361,27.374,27.605C57.373,45.246,45.118,57.606,29.999,57.606L29.999,57.606z M51.038,26.12l-2.701,14.365
		l3.567,1.972c2.062-3.68,3.24-7.928,3.24-12.456c0-1.487-0.129-2.944-0.372-4.361L51.038,26.12L51.038,26.12z M30.001,55.357
		c4.705,0,9.106-1.304,12.872-3.571l-2.217-4.371L26.339,49.73l-0.81,5.227C26.98,55.22,28.474,55.357,30.001,55.357L30.001,55.357z
		 M28.283,17.959l-9.811,9.894l6.3,12.468l13.704-2.189l2.17-13.821L28.283,17.959L28.283,17.959z M12.292,48l2.725-2.333
		L9.514,32.141L4.98,32.487C5.563,38.53,8.25,43.952,12.292,48L12.292,48z M7.752,18.184l4.021,2.223L22.33,10.385l-1.811-3.873
		C15.025,8.771,10.501,12.931,7.752,18.184L7.752,18.184z M34.179,4.995L33.405,9.11l12.713,7.03l2.888-2.741
		C45.26,9.042,40.065,5.989,34.179,4.995L34.179,4.995z"/>
</g>
</svg>
