<?xml version="1.0" encoding="utf-8"?>
<!-- Generator: Adobe Illustrator 17.0.1, SVG Export Plug-In . SVG Version: 6.00 Build 0)  -->
<!DOCTYPE svg PUBLIC "-//W3C//DTD SVG 1.1//EN" "http://www.w3.org/Graphics/SVG/1.1/DTD/svg11.dtd">
<svg version="1.1" xmlns="http://www.w3.org/2000/svg" xmlns:xlink="http://www.w3.org/1999/xlink" x="0px" y="0px" width="60px"
	 height="60px" viewBox="0 0 60 60" enable-background="new 0 0 60 60" xml:space="preserve">
<g id="hwy_disabled">
	<g id="hd">
		<path fill="#eeeeee" d="M39.864,52.534c-0.133,0-0.261-0.053-0.354-0.147s-0.146-0.223-0.146-0.355l0.139-23.256
			c0.001-0.207,0.13-0.392,0.324-0.465c0.057-0.021,0.117-0.032,0.176-0.032c0.14,0,0.277,0.059,0.374,0.167l12.911,14.498
			c0.131,0.147,0.163,0.357,0.083,0.538c-0.081,0.18-0.259,0.295-0.456,0.295h-3.29l0.191,8.246
			c0.003,0.135-0.048,0.265-0.143,0.361c-0.094,0.096-0.223,0.15-0.357,0.15H39.864z M9.988,52.534c-0.271,0-0.494-0.217-0.5-0.488
			l-0.193-8.27H7.086c-0.194,0-0.371-0.112-0.453-0.288c-0.083-0.176-0.056-0.383,0.069-0.532l12.22-14.65
			c0.095-0.114,0.235-0.18,0.384-0.18h0.515c0.275,0,0.499,0.222,0.5,0.497l0.139,23.408c0.001,0.133-0.052,0.261-0.146,0.355
			s-0.221,0.147-0.354,0.147H9.988z M23.994,51.966c-0.276,0-0.5-0.224-0.5-0.5V20.261h-1.789c-0.176,0-0.338-0.092-0.429-0.243
			c-0.09-0.15-0.095-0.338-0.012-0.492L29.739,3.67c0.087-0.163,0.256-0.265,0.441-0.265c0.188,0,0.364,0.105,0.449,0.272
			l8.086,15.855c0.079,0.155,0.072,0.341-0.019,0.488c-0.091,0.148-0.252,0.239-0.426,0.239H36.44v31.205c0,0.276-0.224,0.5-0.5,0.5
			H23.994z M30.144,21.395c-1.559,0-3.17,1.043-3.17,2.788c0,1.602,1.481,3.007,3.17,3.007c1.642,0,2.977-1.349,2.977-3.007
			C33.121,22.593,31.841,21.395,30.144,21.395z"/>
		<path fill="#cccccc" d="M30.184,3.906l8.086,15.855H21.705L30.18,3.906H30.184 M35.941,20.048v31.417H23.994V20.048H35.941 M30.144,27.689
			c1.921,0,3.477-1.57,3.477-3.507c0-1.938-1.556-3.287-3.477-3.287c-1.921,0-3.67,1.35-3.67,3.287
			C26.473,26.12,28.223,27.689,30.144,27.689 M19.821,28.626l0.139,23.408H9.988l-0.205-8.758H7.086l12.22-14.65H19.821
			 M40.003,28.778l12.911,14.498h-3.802l0.203,8.758h-9.451L40.003,28.778 M30.184,2.906H30.18c-0.369,0-0.708,0.203-0.882,0.529
			l-8.475,15.855c-0.166,0.31-0.156,0.684,0.024,0.986c0.181,0.301,0.506,0.486,0.858,0.486h1.289v30.705c0,0.552,0.448,1,1,1
			h11.946c0.552,0,1-0.448,1-1V20.761h1.329c0.348,0,0.671-0.181,0.853-0.478s0.196-0.667,0.038-0.977L31.074,3.451
			C30.904,3.116,30.559,2.906,30.184,2.906L30.184,2.906z M30.144,26.689c-1.423,0-2.67-1.172-2.67-2.507
			c0-1.432,1.358-2.287,2.67-2.287c1.435,0,2.477,0.962,2.477,2.287C32.621,25.565,31.51,26.689,30.144,26.689L30.144,26.689z
			 M19.821,27.626h-0.514c-0.297,0-0.578,0.132-0.768,0.359l-12.22,14.65C6.069,42.933,6.016,43.348,6.18,43.7
			c0.165,0.352,0.518,0.576,0.906,0.576h1.721l0.182,7.782c0.013,0.543,0.457,0.977,1,0.977h9.971c0.266,0,0.521-0.106,0.709-0.295
			c0.188-0.189,0.292-0.445,0.291-0.711L20.821,28.62C20.817,28.07,20.371,27.626,19.821,27.626L19.821,27.626z M40.003,27.778
			c-0.118,0-0.238,0.021-0.353,0.064c-0.387,0.146-0.644,0.516-0.647,0.93l-0.139,23.256c-0.002,0.266,0.103,0.522,0.291,0.711
			c0.188,0.189,0.443,0.295,0.709,0.295h9.451c0.269,0,0.527-0.109,0.715-0.301c0.188-0.193,0.291-0.453,0.284-0.722l-0.179-7.735
			h2.778c0.394,0,0.751-0.231,0.912-0.591c0.161-0.359,0.096-0.78-0.166-1.074L40.75,28.113
			C40.557,27.896,40.283,27.778,40.003,27.778L40.003,27.778z"/>
	</g>
</g>
<g id="hwy">
	<g id="h_2_">
		<path fill="#666666" d="M39.864,52.534c-0.133,0-0.261-0.053-0.354-0.147s-0.146-0.223-0.146-0.355l0.139-23.256
			c0.001-0.207,0.13-0.392,0.324-0.465c0.057-0.021,0.117-0.032,0.176-0.032c0.14,0,0.277,0.059,0.374,0.167l12.911,14.498
			c0.131,0.147,0.163,0.357,0.083,0.538c-0.081,0.18-0.259,0.295-0.456,0.295h-3.29l0.191,8.246
			c0.003,0.135-0.048,0.265-0.143,0.361c-0.094,0.096-0.223,0.15-0.357,0.15H39.864z M9.988,52.534c-0.271,0-0.494-0.217-0.5-0.488
			l-0.193-8.27H7.086c-0.194,0-0.371-0.112-0.453-0.288c-0.083-0.176-0.056-0.383,0.069-0.532l12.22-14.65
			c0.095-0.114,0.235-0.18,0.384-0.18h0.515c0.275,0,0.499,0.222,0.5,0.497l0.139,23.408c0.001,0.133-0.052,0.261-0.146,0.355
			s-0.221,0.147-0.354,0.147H9.988z M23.994,51.966c-0.276,0-0.5-0.224-0.5-0.5V20.261h-1.789c-0.176,0-0.338-0.092-0.429-0.243
			c-0.09-0.15-0.095-0.338-0.012-0.492L29.739,3.67c0.087-0.163,0.256-0.265,0.441-0.265c0.188,0,0.364,0.105,0.449,0.272
			l8.086,15.855c0.079,0.155,0.072,0.341-0.019,0.488c-0.091,0.148-0.252,0.239-0.426,0.239H36.44v31.205c0,0.276-0.224,0.5-0.5,0.5
			H23.994z M30.144,21.395c-1.559,0-3.17,1.043-3.17,2.788c0,1.602,1.481,3.007,3.17,3.007c1.642,0,2.977-1.349,2.977-3.007
			C33.121,22.593,31.841,21.395,30.144,21.395z"/>
		<path display="none" fill="#3A3A3A" d="M30.184,3.906l8.086,15.855H21.705L30.18,3.906H30.184 M35.941,20.048v31.417H23.994V20.048H35.941 M30.144,27.689
			c1.921,0,3.477-1.57,3.477-3.507c0-1.938-1.556-3.287-3.477-3.287c-1.921,0-3.67,1.35-3.67,3.287
			C26.473,26.12,28.223,27.689,30.144,27.689 M19.821,28.626l0.139,23.408H9.988l-0.205-8.758H7.086l12.22-14.65H19.821
			 M40.003,28.778l12.911,14.498h-3.802l0.203,8.758h-9.451L40.003,28.778 M30.184,2.906H30.18c-0.369,0-0.708,0.203-0.882,0.529
			l-8.475,15.855c-0.166,0.31-0.156,0.684,0.024,0.986c0.181,0.301,0.506,0.486,0.858,0.486h1.289v30.705c0,0.552,0.448,1,1,1
			h11.946c0.552,0,1-0.448,1-1V20.761h1.329c0.348,0,0.671-0.181,0.853-0.478s0.196-0.667,0.038-0.977L31.074,3.451
			C30.904,3.116,30.559,2.906,30.184,2.906L30.184,2.906z M30.144,26.689c-1.423,0-2.67-1.172-2.67-2.507
			c0-1.432,1.358-2.287,2.67-2.287c1.435,0,2.477,0.962,2.477,2.287C32.621,25.565,31.51,26.689,30.144,26.689L30.144,26.689z
			 M19.821,27.626h-0.514c-0.297,0-0.578,0.132-0.768,0.359l-12.22,14.65C6.069,42.933,6.016,43.348,6.18,43.7
			c0.165,0.352,0.518,0.576,0.906,0.576h1.721l0.182,7.782c0.013,0.543,0.457,0.977,1,0.977h9.971c0.266,0,0.521-0.106,0.709-0.295
			c0.188-0.189,0.292-0.445,0.291-0.711L20.821,28.62C20.817,28.07,20.371,27.626,19.821,27.626L19.821,27.626z M40.003,27.778
			c-0.118,0-0.238,0.021-0.353,0.064c-0.387,0.146-0.644,0.516-0.647,0.93l-0.139,23.256c-0.002,0.266,0.103,0.522,0.291,0.711
			c0.188,0.189,0.443,0.295,0.709,0.295h9.451c0.269,0,0.527-0.109,0.715-0.301c0.188-0.193,0.291-0.453,0.284-0.722l-0.179-7.735
			h2.778c0.394,0,0.751-0.231,0.912-0.591c0.161-0.359,0.096-0.78-0.166-1.074L40.75,28.113
			C40.557,27.896,40.283,27.778,40.003,27.778L40.003,27.778z"/>
	</g>
</g>
<g id="group">
	<path id="g" fill="#3A3A3A" d="M49.112,43.276l0.203,8.758h-9.451l0.139-23.256l12.911,14.498H49.112L49.112,43.276z M30.18,3.906
		h0.004l8.086,15.855H21.705L30.18,3.906L30.18,3.906z M9.784,43.276H7.086l12.22-14.65h0.514l0.139,23.408H9.988L9.784,43.276
		L9.784,43.276z M35.941,51.465H23.994V20.048h11.946V51.465L35.941,51.465z M30.144,20.895c-1.921,0-3.67,1.35-3.67,3.287
		c0,1.938,1.75,3.507,3.67,3.507c1.921,0,3.477-1.57,3.477-3.507C33.621,22.245,32.064,20.895,30.144,20.895L30.144,20.895z"/>
</g>
<g id="disabled">
	<linearGradient id="d_1_" gradientUnits="userSpaceOnUse" x1="30" y1="52.0343" x2="30" y2="3.9057">
		<stop  offset="0" style="stop-color:#E0E0E0"/>
		<stop  offset="0.0118" style="stop-color:#E1E1E1"/>
		<stop  offset="0.2974" style="stop-color:#F2F2F2"/>
		<stop  offset="0.6101" style="stop-color:#FCFCFC"/>
		<stop  offset="1" style="stop-color:#FFFFFF"/>
	</linearGradient>
	<path id="d_2_" fill="url(#d_1_)" d="M49.112,43.276l0.203,8.758h-9.451l0.139-23.256l12.911,14.498H49.112L49.112,43.276z
		 M30.18,3.906h0.004l8.086,15.855H21.705L30.18,3.906L30.18,3.906z M9.784,43.276H7.086l12.22-14.65h0.514l0.139,23.408H9.988
		L9.784,43.276L9.784,43.276z M35.941,51.465H23.994V20.048h11.946V51.465L35.941,51.465z M30.144,20.895
		c-1.921,0-3.67,1.35-3.67,3.287c0,1.938,1.75,3.507,3.67,3.507c1.921,0,3.477-1.57,3.477-3.507
		C33.621,22.245,32.064,20.895,30.144,20.895L30.144,20.895z"/>
</g>
<g id="normal">
	<linearGradient id="n_1_" gradientUnits="userSpaceOnUse" x1="30" y1="52.0343" x2="30" y2="3.9057">
		<stop  offset="0" style="stop-color:#D9DEFF"/>
		<stop  offset="0.0932" style="stop-color:#E1E5FF"/>
		<stop  offset="0.3551" style="stop-color:#F2F4FF"/>
		<stop  offset="0.6423" style="stop-color:#FCFCFF"/>
		<stop  offset="1" style="stop-color:#FFFFFF"/>
	</linearGradient>
	<path id="n" fill="url(#n_1_)" d="M49.112,43.276l0.203,8.758h-9.451l0.139-23.256l12.911,14.498H49.112L49.112,43.276z
		 M30.18,3.906h0.004l8.086,15.855H21.705L30.18,3.906L30.18,3.906z M9.784,43.276H7.086l12.22-14.65h0.514l0.139,23.408H9.988
		L9.784,43.276L9.784,43.276z M35.941,51.465H23.994V20.048h11.946V51.465L35.941,51.465z M30.144,20.895
		c-1.921,0-3.67,1.35-3.67,3.287c0,1.938,1.75,3.507,3.67,3.507c1.921,0,3.477-1.57,3.477-3.507
		C33.621,22.245,32.064,20.895,30.144,20.895L30.144,20.895z"/>
</g>
</svg>
