<?xml version="1.0" encoding="utf-8"?>
<!-- Generator: Adobe Illustrator 17.0.1, SVG Export Plug-In . SVG Version: 6.00 Build 0)  -->
<!DOCTYPE svg PUBLIC "-//W3C//DTD SVG 1.1//EN" "http://www.w3.org/Graphics/SVG/1.1/DTD/svg11.dtd">
<svg version="1.1" xmlns="http://www.w3.org/2000/svg" xmlns:xlink="http://www.w3.org/1999/xlink" x="0px" y="0px" width="60px"
	 height="60px" viewBox="0 0 60 60" enable-background="new 0 0 60 60" xml:space="preserve">
<g id="hwy_disabled">
	<path id="hd" fill="#313131" stroke="#000000" stroke-linecap="round" stroke-linejoin="round" stroke-miterlimit="10" d="
		M39.171,39.955c-3.46-2.325-6.416-2.325-9.874,0c-5.257,3.532-9.545,3.532-14.801,0c-3.5-2.35-5.863-2.35-9.364,0l-1.444-4.581
		c4.254-2.859,7.829-2.973,12.251,0c4.169,2.801,7.247,3.133,11.914,0c4.423-2.973,8.534-2.841,12.761,0
		c4.34,2.914,7.744,3.029,12.253,0c0.664,2.415,1.216,2.356,1.444,4.581C49.006,43.521,44.477,43.521,39.171,39.955L39.171,39.955z
		 M40.848,25.407c-4.548,0-8.235-3.719-8.235-8.305c0-4.586,3.686-8.305,8.235-8.305c4.546,0,8.233,3.719,8.233,8.305
		C49.081,21.689,45.395,25.407,40.848,25.407L40.848,25.407z M20.811,14.269l11.108,10.31l-0.616,0.619L42.24,32.31l0,0
		l-12.964-0.855l-11.587,2.422l5.803-6.825l-4.02-3.625l-7.322,7.005l-5.01-5.231L20.811,14.269 M15.94,43.945
		c4.169,2.803,7.247,3.135,11.914,0c4.423-2.972,8.534-2.839,12.761,0c4.34,2.916,7.744,3.031,12.253,0
		c0.664,2.417,1.216,2.358,1.444,4.582c-5.306,3.566-9.834,3.566-15.14,0c-3.46-2.325-6.416-2.325-9.874,0
		c-5.257,3.532-9.545,3.532-14.801,0c-3.5-2.352-5.863-2.352-9.364,0l-1.444-4.582C7.942,41.086,11.517,40.973,15.94,43.945
		L15.94,43.945z"/>
</g>
<g id="hwy">
	<path id="h_1_" fill="#3A3A3A" stroke="#000000" stroke-linecap="round" stroke-linejoin="round" stroke-miterlimit="10" d="
		M39.171,39.955c-3.46-2.325-6.416-2.325-9.874,0c-5.257,3.532-9.545,3.532-14.801,0c-3.5-2.35-5.863-2.35-9.364,0l-1.444-4.581
		c4.254-2.859,7.829-2.973,12.251,0c4.169,2.801,7.247,3.133,11.914,0c4.423-2.973,8.534-2.841,12.761,0
		c4.34,2.914,7.744,3.029,12.253,0c0.664,2.415,1.216,2.356,1.444,4.581C49.006,43.521,44.477,43.521,39.171,39.955L39.171,39.955z
		 M40.848,25.407c-4.548,0-8.235-3.719-8.235-8.305c0-4.586,3.686-8.305,8.235-8.305c4.546,0,8.233,3.719,8.233,8.305
		C49.081,21.689,45.395,25.407,40.848,25.407L40.848,25.407z M20.811,14.269l11.108,10.31l-0.616,0.619L42.24,32.31l0,0
		l-12.964-0.855l-11.587,2.422l5.803-6.825l-4.02-3.625l-7.322,7.005l-5.01-5.231L20.811,14.269 M15.94,43.945
		c4.169,2.803,7.247,3.135,11.914,0c4.423-2.972,8.534-2.839,12.761,0c4.34,2.916,7.744,3.031,12.253,0
		c0.664,2.417,1.216,2.358,1.444,4.582c-5.306,3.566-9.834,3.566-15.14,0c-3.46-2.325-6.416-2.325-9.874,0
		c-5.257,3.532-9.545,3.532-14.801,0c-3.5-2.352-5.863-2.352-9.364,0l-1.444-4.582C7.942,41.086,11.517,40.973,15.94,43.945
		L15.94,43.945z"/>
</g>
<g id="group">
	<path id="g" fill="#3A3A3A" d="M39.171,39.955c-3.46-2.325-6.416-2.325-9.874,0c-5.257,3.532-9.545,3.532-14.801,0
		c-3.5-2.35-5.863-2.35-9.364,0l-1.444-4.581c4.254-2.859,7.829-2.973,12.251,0c4.169,2.801,7.247,3.133,11.914,0
		c4.423-2.973,8.534-2.841,12.761,0c4.34,2.914,7.744,3.029,12.253,0c0.664,2.415,1.216,2.356,1.444,4.581
		C49.006,43.521,44.477,43.521,39.171,39.955L39.171,39.955z M40.848,25.407c-4.548,0-8.235-3.719-8.235-8.305
		c0-4.586,3.686-8.305,8.235-8.305c4.546,0,8.233,3.719,8.233,8.305C49.081,21.689,45.395,25.407,40.848,25.407L40.848,25.407z
		 M20.811,14.269l11.108,10.31l-0.616,0.619L42.24,32.31l0,0l-12.964-0.855l-11.587,2.422l5.803-6.825l-4.02-3.625l-7.322,7.005
		l-5.01-5.231L20.811,14.269 M15.94,43.945c4.169,2.803,7.247,3.135,11.914,0c4.423-2.972,8.534-2.839,12.761,0
		c4.34,2.916,7.744,3.031,12.253,0c0.664,2.417,1.216,2.358,1.444,4.582c-5.306,3.566-9.834,3.566-15.14,0
		c-3.46-2.325-6.416-2.325-9.874,0c-5.257,3.532-9.545,3.532-14.801,0c-3.5-2.352-5.863-2.352-9.364,0l-1.444-4.582
		C7.942,41.086,11.517,40.973,15.94,43.945L15.94,43.945z"/>
</g>
<g id="disabled">
	<linearGradient id="d_2_" gradientUnits="userSpaceOnUse" x1="29" y1="51.2019" x2="29" y2="8.7981">
		<stop  offset="0" style="stop-color:#E0E0E0"/>
		<stop  offset="0.0118" style="stop-color:#E1E1E1"/>
		<stop  offset="0.2974" style="stop-color:#F2F2F2"/>
		<stop  offset="0.6101" style="stop-color:#FCFCFC"/>
		<stop  offset="1" style="stop-color:#FFFFFF"/>
	</linearGradient>
	<path id="d_1_" fill="url(#d_2_)" d="M39.171,39.955c-3.46-2.325-6.416-2.325-9.874,0c-5.257,3.532-9.545,3.532-14.801,0
		c-3.5-2.35-5.863-2.35-9.364,0l-1.444-4.581c4.254-2.859,7.829-2.973,12.251,0c4.169,2.801,7.247,3.133,11.914,0
		c4.423-2.973,8.534-2.841,12.761,0c4.34,2.914,7.744,3.029,12.253,0c0.664,2.415,1.216,2.356,1.444,4.581
		C49.006,43.521,44.477,43.521,39.171,39.955L39.171,39.955z M40.848,25.407c-4.548,0-8.235-3.719-8.235-8.305
		c0-4.586,3.686-8.305,8.235-8.305c4.546,0,8.233,3.719,8.233,8.305C49.081,21.689,45.395,25.407,40.848,25.407L40.848,25.407z
		 M20.811,14.269l11.108,10.31l-0.616,0.619L42.24,32.31l0,0l-12.964-0.855l-11.587,2.422l5.803-6.825l-4.02-3.625l-7.322,7.005
		l-5.01-5.231L20.811,14.269 M15.94,43.945c4.169,2.803,7.247,3.135,11.914,0c4.423-2.972,8.534-2.839,12.761,0
		c4.34,2.916,7.744,3.031,12.253,0c0.664,2.417,1.216,2.358,1.444,4.582c-5.306,3.566-9.834,3.566-15.14,0
		c-3.46-2.325-6.416-2.325-9.874,0c-5.257,3.532-9.545,3.532-14.801,0c-3.5-2.352-5.863-2.352-9.364,0l-1.444-4.582
		C7.942,41.086,11.517,40.973,15.94,43.945L15.94,43.945z"/>
</g>
<g id="normal">
	<linearGradient id="n_1_" gradientUnits="userSpaceOnUse" x1="29" y1="51.2019" x2="29" y2="8.7981">
		<stop  offset="0" style="stop-color:#D9DEFF"/>
		<stop  offset="0.0932" style="stop-color:#E1E5FF"/>
		<stop  offset="0.3551" style="stop-color:#F2F4FF"/>
		<stop  offset="0.6423" style="stop-color:#FCFCFF"/>
		<stop  offset="1" style="stop-color:#FFFFFF"/>
	</linearGradient>
	<path id="n" fill="url(#n_1_)" d="M39.171,39.955c-3.46-2.325-6.416-2.325-9.874,0c-5.257,3.532-9.545,3.532-14.801,0
		c-3.5-2.35-5.863-2.35-9.364,0l-1.444-4.581c4.254-2.859,7.829-2.973,12.251,0c4.169,2.801,7.247,3.133,11.914,0
		c4.423-2.973,8.534-2.841,12.761,0c4.34,2.914,7.744,3.029,12.253,0c0.664,2.415,1.216,2.356,1.444,4.581
		C49.006,43.521,44.477,43.521,39.171,39.955L39.171,39.955z M40.848,25.407c-4.548,0-8.235-3.719-8.235-8.305
		c0-4.586,3.686-8.305,8.235-8.305c4.546,0,8.233,3.719,8.233,8.305C49.081,21.689,45.395,25.407,40.848,25.407L40.848,25.407z
		 M20.811,14.269l11.108,10.31l-0.616,0.619L42.24,32.31l0,0l-12.964-0.855l-11.587,2.422l5.803-6.825l-4.02-3.625l-7.322,7.005
		l-5.01-5.231L20.811,14.269 M15.94,43.945c4.169,2.803,7.247,3.135,11.914,0c4.423-2.972,8.534-2.839,12.761,0
		c4.34,2.916,7.744,3.031,12.253,0c0.664,2.417,1.216,2.358,1.444,4.582c-5.306,3.566-9.834,3.566-15.14,0
		c-3.46-2.325-6.416-2.325-9.874,0c-5.257,3.532-9.545,3.532-14.801,0c-3.5-2.352-5.863-2.352-9.364,0l-1.444-4.582
		C7.942,41.086,11.517,40.973,15.94,43.945L15.94,43.945z"/>
</g>
</svg>
