<?xml version="1.0" encoding="utf-8"?>
<!-- Generator: Adobe Illustrator 17.0.0, SVG Export Plug-In . SVG Version: 6.00 Build 0)  -->
<!DOCTYPE svg PUBLIC "-//W3C//DTD SVG 1.1//EN" "http://www.w3.org/Graphics/SVG/1.1/DTD/svg11.dtd">
<svg version="1.1" id="roundabout_x5F_dir_x5F_left"
	 xmlns="http://www.w3.org/2000/svg" xmlns:xlink="http://www.w3.org/1999/xlink" x="0px" y="0px" width="114px" height="114px"
	 viewBox="0 0 114 114" enable-background="new 0 0 114 114" xml:space="preserve">
<g id="phase11">
	<path fill="#00598C" d="M50.594,108.912c-0.553,0-1-0.446-1-0.999c0,0-0.01-17.107-0.01-18.58
		c-7.08-1.659-13.431-5.496-18.082-11.149c-2.402-2.921-4.334-6.177-5.627-9.716c-1.337-3.661-1.985-7.511-1.985-11.444
		c0-8.91,3.479-17.251,9.78-23.553c6.302-6.301,14.641-9.604,23.554-9.604c8.912,0,17.133,3.636,23.435,9.937
		c6.303,6.302,9.44,14.311,9.44,23.221c0,4.888-0.978,9.434-3.021,13.836c-1.856,4.001-4.259,7.483-7.512,10.475
		c0.585,1.012,1.736,2.625,2.441,3.844c1.387-0.801,7.371-4.257,7.371-4.257c0.155-0.09,0.328-0.133,0.5-0.133
		c0.215,0,0.426,0.068,0.605,0.203c0.253,0.192,0.394,0.488,0.394,0.798c0,0.083-0.01,0.165-0.03,0.248l-5.646,21.931
		c-0.067,0.26-0.237,0.482-0.47,0.617c-0.153,0.088-0.325,0.135-0.5,0.135c-0.089,0-0.181-0.014-0.269-0.037
		c0,0-17.576-4.85-19.474-5.379c0,2.998,0,8.609,0,8.609c0,0.553-0.447,0.999-1,0.999H50.594 M64.463,95.291
		c1.59-0.917,3.617-2.072,4.759-2.732c-0.771-1.339-2.432-4.036-2.551-4.243c-0.03-0.037-0.056-0.073-0.08-0.115l-3.887-6.715
		c-0.037-0.063-0.064-0.129-0.086-0.197c-0.157-0.279-3.535-6.244-3.535-6.244c-0.086-0.154-0.13-0.324-0.13-0.493
		c0-0.147,0.032-0.295,0.097-0.432c0.141-0.294,0.416-0.501,0.738-0.556c4.084-0.681,7.756-2.831,10.338-6.054
		c0.001-0.003,0.003-0.006,0.005-0.008c0.559-0.7,1.064-1.446,1.502-2.22c0,0,0.018-0.032,0.032-0.055c0,0.002,0,0.004,0,0.004
		s0.003-0.005,0.005-0.008c0,0.001-0.004,0.001-0.004,0.003c0.005-0.008,0.013-0.021,0.013-0.021v-0.001c0,0,0,0.001-0.001,0.005
		c0.157-0.28,0.298-0.573,0.448-0.884c0.002-0.005,0.069-0.142,0.069-0.142l0.16-0.335c0.115-0.256,0.221-0.525,0.326-0.802
		c0.002-0.003,0.242-0.665,0.242-0.665c0.078-0.228,0.15-0.461,0.224-0.716c0.069-0.237,0.135-0.498,0.217-0.844l0.035-0.149
		l0.107-0.493c0.067-0.356,0.116-0.721,0.15-0.997c0.001-0.005,0.033-0.231,0.033-0.231l0.042-0.329
		c0.055-0.57,0.082-1.094,0.082-1.601c0-9.265-7.537-16.801-16.801-16.801c-9.264,0-16.801,7.536-16.801,16.801
		c0,4.444,1.72,8.634,4.843,11.796c3.118,3.158,7.28,4.931,11.718,4.993c0.361,0.005,0.689,0.203,0.862,0.519l6.673,12.404
		c0.082,0.147,0.124,0.313,0.124,0.479c0,0.006,0,0.013,0,0.019 M70.019,67.68c0,0,0.001-0.001,0.003-0.003L70.019,67.68"/>
	<linearGradient id="SVGID_1_" gradientUnits="userSpaceOnUse" x1="57.1028" y1="106.9141" x2="57.1028" y2="25.8643">
		<stop  offset="0" style="stop-color:#0189D8"/>
		<stop  offset="1" style="stop-color:#0189D8"/>
	</linearGradient>
	<path fill="url(#SVGID_1_)" d="M51.593,106.914c0-1.797,0-18.491,0-18.491c0-0.474-0.332-0.883-0.796-0.979
		c-6.947-1.447-13.213-5.017-17.749-10.532c-2.26-2.746-4.08-5.805-5.294-9.13c-1.257-3.439-1.865-7.061-1.865-10.759
		c0-8.377,3.272-16.215,9.196-22.137c5.924-5.924,13.761-9.022,22.14-9.022c8.377,0,16.097,3.431,22.021,9.354
		c5.925,5.922,8.856,13.428,8.856,21.805c0,4.597-0.915,8.856-2.836,12.993c-1.854,3.996-4.328,7.404-7.659,10.322
		c-0.223,0.195-0.341,0.473-0.341,0.753c0,0.171,0.045,0.343,0.135,0.499l3.375,5.452c0.186,0.322,0.521,0.502,0.868,0.502
		c0.17,0,0.341-0.044,0.498-0.135c0,0,3.857-2.227,6.175-3.565c-0.903,3.51-4.385,17.032-4.798,18.636
		c-1.597-0.445-15.046-4.191-18.536-5.163c2.307-1.331,6.105-3.525,6.105-3.525c0.321-0.186,0.501-0.521,0.501-0.868
		c0-0.169-0.043-0.341-0.135-0.498l-3.119-5.229c-0.03-0.052-0.063-0.102-0.099-0.146c-0.16-0.275-3.558-6.145-3.718-6.42
		c-0.021-0.064-0.046-0.123-0.08-0.183c0,0-2.057-3.655-2.95-5.234c4.012-0.981,7.543-3.211,10.137-6.45
		c-0.006,0.008-0.061,0.068-0.065,0.073c0.002-0.001,0.188-0.263,0.188-0.263l-0.112,0.178c0.622-0.779,1.184-1.609,1.671-2.468
		c0.006-0.01,0.04-0.067,0.058-0.098c0.001-0.002,0.001-0.003,0.003-0.005c0.002-0.003,0.003-0.006,0.005-0.01
		c0.185-0.328,0.345-0.658,0.498-0.977l0.063-0.128l0.188-0.395c0.138-0.304,0.259-0.616,0.371-0.911
		c0-0.001,0.271-0.738,0.271-0.738c0.087-0.256,0.169-0.519,0.25-0.802c0.079-0.272,0.152-0.563,0.242-0.943
		c0-0.004,0.035-0.147,0.035-0.147l0.127-0.585c0.076-0.405,0.129-0.807,0.169-1.113c0-0.006,0.026-0.191,0.026-0.191l0.056-0.427
		c0.06-0.637,0.088-1.224,0.088-1.792c0-10.366-8.373-18.771-18.74-18.771c-10.366,0-18.761,8.404-18.761,18.771
		c0,4.975,1.923,9.643,5.418,13.181c3.352,3.395,7.733,5.31,12.478,5.521c0.495,0.902,6.042,11.307,6.28,11.737
		c0-1.714,0.063,15.66,0.063,19.453C60.933,106.914,53.151,106.914,51.593,106.914 M73.373,66.17
		c0.001-0.002,0.001-0.004,0.001-0.004S73.373,66.168,73.373,66.17"/>
</g>
<g id="phase10">
	<path fill="#00598C" d="M50.58,108.847c-0.552,0-1-0.446-1-0.999c0,0,0-17.043,0-18.511C42.545,87.646,36.101,83.8,31.487,78.16
		c-2.386-2.914-4.285-6.18-5.566-9.705c-1.326-3.648-2.038-7.482-2.038-11.399c0-8.912,3.537-17.34,9.839-23.641
		c6.302-6.302,14.757-9.538,23.67-9.538c8.912,0,17.114,3.783,23.416,10.085c6.302,6.301,9.282,14.182,9.282,23.094
		c0,3.299-0.354,6.416-1.344,9.625c1.029,0.595,2.855,1.49,4.101,2.209c0.801-1.387,4.257-7.372,4.257-7.372
		c0.182-0.312,0.513-0.499,0.865-0.499c0.042,0,0.083,0.003,0.127,0.008c0.4,0.05,0.729,0.335,0.839,0.724l6.074,21.816
		c0.024,0.088,0.037,0.178,0.037,0.268c0,0.174-0.047,0.346-0.135,0.499c-0.135,0.232-0.357,0.402-0.616,0.47l-21.93,5.646
		c-0.083,0.021-0.165,0.03-0.248,0.03c-0.31,0-0.605-0.142-0.798-0.395c-0.135-0.179-0.203-0.391-0.203-0.605
		c0-0.171,0.043-0.344,0.133-0.499c0,0,3.418-5.923,4.217-7.307c-1.06-0.611-17.63-10.113-17.63-10.113
		c-0.285-0.163-0.471-0.455-0.498-0.781c-0.001-0.029-0.003-0.056-0.003-0.083c0-0.297,0.132-0.582,0.362-0.772
		c3.547-2.934,5.689-7.001,6.045-11.539c0-0.004,0-0.009,0-0.012c0.045-0.506,0.067-0.924,0.067-1.318
		c0-9.265-7.409-16.854-16.673-16.84c-9.429,0.015-16.928,7.575-16.928,16.84c0,9.264,7.478,16.738,16.928,16.722
		c0.508-0.001,1.035-0.026,1.608-0.081c0.01,0,0.341-0.045,0.341-0.045l0.263-0.037c0.343-0.046,0.669-0.09,0.984-0.148
		c0.004-0.002,0.435-0.098,0.435-0.098l0.183-0.044c0.378-0.088,0.66-0.16,0.914-0.235c0.004,0,0.613-0.195,0.613-0.195l0.035-0.011
		c0.282-0.097,0.534-0.188,0.763-0.279c0.118-0.046,0.243-0.07,0.367-0.07c0.201,0,0.4,0.062,0.569,0.18
		c0.27,0.188,0.43,0.493,0.43,0.818c0,0.008,0,0.016,0,0.024l-0.101,4.934c0,0.041,0,13.031,0,13.031l0.006,16.329
		c0,0.553-0.446,0.999-0.999,0.999H50.58"/>
	<linearGradient id="SVGID_2_" gradientUnits="userSpaceOnUse" x1="64.3447" y1="106.8486" x2="64.3447" y2="25.876">
		<stop  offset="0" style="stop-color:#0189D8"/>
		<stop  offset="1" style="stop-color:#0189D8"/>
	</linearGradient>
	<path fill="url(#SVGID_2_)" d="M51.579,106.849c0-1.796,0-18.399,0-18.399c0-0.471-0.329-0.879-0.79-0.979
		c-6.906-1.478-13.26-5.252-17.726-10.575c-2.276-2.714-4.058-5.811-5.262-9.124c-1.248-3.428-1.92-7.032-1.92-10.716
		c0-8.377,3.331-16.303,9.255-22.227c5.924-5.924,13.878-8.953,22.256-8.953c8.377,0,16.078,3.576,22.002,9.5
		c5.924,5.924,8.698,13.303,8.698,21.68c0,3.351-0.455,6.512-1.543,9.762c-0.035,0.104-0.051,0.211-0.051,0.316
		c0,0.35,0.185,0.685,0.5,0.867l5.716,3.121c0.157,0.092,0.328,0.135,0.498,0.135c0.347,0,0.683-0.18,0.868-0.501
		c0,0,2.227-3.856,3.565-6.176c0.972,3.491,4.718,16.945,5.161,18.539c-1.602,0.413-15.128,3.894-18.635,4.797
		c1.331-2.305,3.526-6.108,3.526-6.108c0.091-0.157,0.135-0.328,0.135-0.498c0-0.346-0.18-0.683-0.502-0.868
		c0,0-3.379-1.954-3.76-2.173c-0.057-0.052-0.119-0.1-0.186-0.138c0,0-11.271-6.417-13.353-7.613
		c3.335-3.193,5.291-7.365,5.652-11.978v0.012c0.052-0.567,0.074-1.043,0.074-1.498c0-10.366-8.256-18.79-18.623-18.79
		c-10.366,0-18.849,8.424-18.849,18.79c0,10.367,8.482,18.721,18.849,18.721c0.572,0,1.159-0.067,1.797-0.127
		c0.002-0.002,0.447-0.06,0.447-0.06l0.224-0.032c0.362-0.048,0.733-0.096,1.104-0.168c0.004,0,0.528-0.117,0.528-0.117l0.169-0.039
		c0.414-0.097,0.731-0.179,1.026-0.265c0,0,0.078-0.025,0.181-0.06c-0.028,1.424-0.07,3.538-0.07,3.538c0,0.007,0,0.015,0,0.021
		v13.053c0,0,0.007,13.568,0.007,15.33C60.988,106.849,53.139,106.849,51.579,106.849"/>
</g>
<g id="phase9">
	<path fill="#00598C" d="M50.594,108.799c-0.551,0-0.997-0.447-0.997-1c0,0,0-16.966,0-18.438
		c-7.065-1.656-13.354-5.443-17.997-11.099c-2.399-2.922-4.376-6.197-5.665-9.736c-1.336-3.663-2.041-7.516-2.041-11.45
		c0-8.911,3.499-17.339,9.785-23.641c6.285-6.303,14.621-9.558,23.509-9.558c3.934,0,7.786,0.751,11.448,2.096
		c3.537,1.3,6.742,3.214,9.66,5.631c5.65,4.679,9.391,10.869,11.022,17.979c1.17,0,3.211,0,4.628,0c0-1.601,0-8.513,0-8.513
		c0-0.402,0.241-0.766,0.611-0.923c0.125-0.053,0.257-0.078,0.387-0.078c0.257,0,0.507,0.1,0.698,0.287l16.125,15.854
		c0.192,0.188,0.3,0.445,0.3,0.714c0,0.27-0.107,0.525-0.3,0.715L95.643,73.494c-0.191,0.188-0.441,0.287-0.698,0.287
		c-0.13,0-0.262-0.026-0.387-0.079c-0.37-0.156-0.611-0.521-0.611-0.922c0-0.001,0-7.327,0-8.943c-0.631,0-1.283-0.002-1.283-0.002
		c-0.059,0-0.116-0.005-0.172-0.015c-0.334,0-18.677,0-18.677,0c-0.324,0-0.626-0.155-0.813-0.42
		c-0.122-0.171-0.184-0.375-0.184-0.579c0-0.111,0.018-0.222,0.054-0.329c0.619-1.791,0.935-3.638,0.935-5.488
		c0-2.058-0.355-4.047-1.112-6.011c-0.142-0.363-0.298-0.727-0.481-1.116c-0.002-0.002-0.005-0.012-0.008-0.016
		c0,0.001,0.001,0.003,0.001,0.003s-0.001-0.002-0.001-0.003c-0.002-0.004-0.004-0.009-0.004-0.009l-0.039-0.083l0.012,0.027
		c-0.688-1.434-1.534-2.749-2.592-3.931c-0.002-0.004-0.22-0.244-0.22-0.244c-0.259-0.276-0.483-0.508-0.693-0.711
		c-0.002,0-0.238-0.216-0.238-0.216l-0.056-0.052c-0.376-0.343-0.782-0.697-1.213-1.022c0-0.001-0.175-0.135-0.175-0.135
		l-0.337-0.251c-0.007-0.005-0.482-0.313-0.482-0.313l-0.133-0.083c-0.003-0.002-0.621-0.382-0.621-0.382l-0.609-0.333
		c-0.227-0.115-0.476-0.237-0.788-0.38l-0.181-0.083l-0.332-0.139c-0.438-0.182-0.889-0.396-1.341-0.539L62.01,40.94l-0.188-0.053
		c-0.372-0.108-0.747-0.206-1.114-0.286l-0.396-0.089l-0.107-0.021c-0.373-0.069-0.718-0.122-1.052-0.162
		C59.15,40.33,59,40.312,59,40.312l-0.337-0.039c-0.565-0.053-1.071-0.078-1.545-0.078c-9.239,0-16.912,7.547-16.912,16.81
		c0,9.265,7.673,16.781,16.912,16.781c0.484,0,0.994-0.025,1.561-0.08c0.003,0,0.355-0.041,0.355-0.041l0.137-0.018
		c0.392-0.05,0.735-0.102,1.053-0.162c0.005,0,0.514-0.104,0.514-0.104c0.33-0.072,0.668-0.16,1.032-0.266l0.218-0.063l0.244-0.07
		c0.29-0.093,0.582-0.207,0.889-0.325l0.097-0.037c0.115-0.045,0.237-0.067,0.359-0.067c0.197,0,0.395,0.059,0.563,0.175
		c0.271,0.186,0.433,0.495,0.433,0.825l-0.063,34.247c0,0.553-0.445,1-0.996,1H50.594"/>
	<linearGradient id="SVGID_3_" gradientUnits="userSpaceOnUse" x1="67.7756" y1="106.7988" x2="67.7756" y2="25.8779">
		<stop  offset="0" style="stop-color:#0189D8"/>
		<stop  offset="1" style="stop-color:#0189D8"/>
	</linearGradient>
	<path fill="url(#SVGID_3_)" d="M51.59,106.799c0-1.794,0-18.357,0-18.357c0-0.475-0.33-0.883-0.794-0.979
		c-6.934-1.443-13.09-4.955-17.617-10.47c-2.256-2.748-4.131-5.826-5.343-9.153c-1.255-3.442-1.93-7.063-1.93-10.764
		c0-8.377,3.293-16.303,9.202-22.227c5.908-5.924,13.723-8.972,22.079-8.972c3.699,0,7.319,0.709,10.761,1.975
		c3.327,1.221,6.335,3.021,9.078,5.294c5.511,4.564,9.023,10.657,10.44,17.637c0.096,0.464,0.503,0.799,0.978,0.799h6.5
		c0.551,0,0.995-0.447,0.995-0.999c0,0,0-4.455,0-7.132c2.579,2.534,12.527,12.313,13.705,13.473
		c-1.178,1.16-11.126,10.941-13.705,13.476c0-2.754,0-7.563,0-7.563c0-0.553-0.444-1-0.995-1c0,0-1.821-0.001-2.111-0.001
		c-0.057-0.01-0.113-0.015-0.173-0.015c0,0-15.191,0-17.563,0c0.422-1.583,0.625-3.197,0.625-4.817c0-2.305-0.382-4.528-1.228-6.722
		c-0.155-0.403-0.33-0.806-0.528-1.23l-0.002-0.003l0.002,0.002c0-0.002-0.003-0.004-0.003-0.005l0.001,0.003
		c0-0.002-0.005-0.011-0.008-0.016l0.002,0.001c0-0.001-0.002-0.001-0.002-0.003v0.002c-0.012-0.022-0.031-0.064-0.031-0.064
		s-0.002-0.005-0.003-0.008c-0.004-0.007-0.008-0.017-0.01-0.022c-0.77-1.602-1.729-3.075-2.914-4.398l-0.255-0.282
		c-0.274-0.295-0.527-0.553-0.767-0.782c0-0.001-0.286-0.264-0.286-0.264l-0.057-0.048c-0.407-0.374-0.852-0.748-1.33-1.112
		c-0.001,0-0.156-0.12-0.156-0.12l-0.429-0.317c-0.203,0-0.352-0.23-0.554-0.36l-0.129-0.08l-0.633-0.394l-0.683-0.371
		c-0.256-0.133-0.562-0.287-0.904-0.444c-0.005-0.002-0.171-0.078-0.171-0.078L64.23,39.7c-0.486-0.2-0.958-0.383-1.462-0.544
		c-0.008-0.002-0.243-0.079-0.243-0.079l-0.135-0.037c-0.421-0.125-0.843-0.233-1.257-0.325c-0.003,0-0.454-0.089-0.454-0.089
		l-0.105-0.02c-0.422-0.08-0.808-0.14-1.186-0.184l-0.139-0.018l-0.401-0.046c-0.629-0.058-1.195-0.085-1.73-0.085
		c-10.338,0-18.828,8.365-18.828,18.73c0,10.366,8.489,18.702,18.828,18.702c0.548,0,1.119-0.028,1.745-0.086l0.432-0.052
		l0.129-0.018c0.425-0.053,0.809-0.11,1.168-0.178c0.003-0.001,0.577-0.116,0.577-0.116c0.374-0.084,0.751-0.182,1.16-0.302
		c0.005-0.001,0.186-0.053,0.186-0.053s0.043-0.011,0.064-0.017c0,2.267-0.063,30.12-0.063,31.914
		C60.961,106.799,53.146,106.799,51.59,106.799 M73.922,48.962c0.001,0.002,0.001,0.004,0.001,0.004
		C73.923,48.964,73.923,48.964,73.922,48.962"/>
</g>
<g id="phase8">
	<path fill="#00598C" d="M50.565,108.86c-0.553,0-1-0.447-1-1c0,0,0-17.046,0-18.521c-7.085-1.653-13.357-5.45-18.013-11.105
		c-2.407-2.923-4.292-6.121-5.586-9.66c-1.339-3.665-2.077-7.518-2.077-11.453c0-8.912,3.422-17.289,9.722-23.592
		c6.302-6.302,14.642-9.665,23.552-9.665c4.823,0,9.417,1.025,13.77,3.014c3.957,1.806,7.463,4.464,10.448,7.635
		c1.031-0.596,2.588-1.719,3.847-2.446c-0.799-1.384-4.217-7.306-4.217-7.306c-0.09-0.155-0.133-0.328-0.133-0.5
		c0-0.215,0.069-0.428,0.203-0.605c0.192-0.253,0.488-0.394,0.798-0.394c0.083,0,0.165,0.01,0.248,0.03l21.93,5.646
		c0.26,0.067,0.482,0.237,0.616,0.47c0.089,0.153,0.135,0.325,0.135,0.5c0,0.089-0.013,0.179-0.037,0.268l-6.074,21.815
		c-0.108,0.389-0.439,0.674-0.839,0.724c-0.043,0.005-0.085,0.008-0.127,0.008c-0.353,0-0.684-0.188-0.864-0.499
		c0,0-3.456-5.983-4.257-7.372c-1.258,0.725-17.606,9.788-17.606,9.788c-0.155,0.09-0.328,0.134-0.503,0.134
		c-0.143,0-0.286-0.03-0.419-0.091c-0.295-0.136-0.506-0.408-0.564-0.73c-1.45-7.99-8.302-13.762-16.412-13.762
		c-9.263,0-16.897,7.508-16.897,16.772c0,5.042,2.317,9.862,6.218,13.071c3.008,2.495,6.834,3.781,10.742,3.781
		c2.19,0,4.334-0.492,6.369-1.327c0.122-0.05,0.25-0.073,0.378-0.073c0.208,0,0.415,0.063,0.588,0.188
		c0.261,0.189,0.415,0.492,0.415,0.813c0,0.023-0.002,0.046-0.004,0.07c0,0-0.347,4.871-0.351,4.914c0,0.1,0,10.448,0,10.448v2.82
		v16.191c0,0.553-0.446,1-0.999,1H50.565"/>
	<linearGradient id="SVGID_4_" gradientUnits="userSpaceOnUse" x1="64.2295" y1="106.8613" x2="64.2295" y2="25.8242">
		<stop  offset="0" style="stop-color:#0189D8"/>
		<stop  offset="1" style="stop-color:#0189D8"/>
	</linearGradient>
	<path fill="url(#SVGID_4_)" d="M51.564,106.861c0-1.795,0-18.424,0-18.424c0-0.474-0.332-0.882-0.796-0.979
		c-6.956-1.441-13.13-4.98-17.672-10.496c-2.263-2.748-4.036-5.75-5.252-9.076c-1.258-3.443-1.956-7.064-1.956-10.766
		c0-8.377,3.215-16.253,9.139-22.177c5.922-5.925,13.759-9.081,22.136-9.081c4.534,0,8.848,1.054,12.94,2.922
		c3.952,1.803,7.355,4.48,10.271,7.73c0.195,0.218,0.469,0.331,0.746,0.331c0.172,0,0.343-0.043,0.498-0.133l5.476-3.416
		c0.321-0.186,0.501-0.521,0.501-0.867c0-0.17-0.043-0.342-0.135-0.498c0,0-2.195-3.803-3.526-6.108
		c3.509,0.903,17.032,4.385,18.636,4.798c-0.444,1.594-4.19,15.048-5.162,18.539c-1.339-2.319-3.565-6.176-3.565-6.176
		c-0.186-0.321-0.521-0.501-0.867-0.501c-0.17,0-0.342,0.043-0.498,0.135c0,0-15.328,8.52-17.345,9.691
		c-2.131-8.226-9.421-14.05-18.027-14.05c-10.367,0-18.828,8.336-18.828,18.702c0,5.643,2.532,10.937,6.896,14.527
		c3.36,2.788,7.622,4.217,11.994,4.217c1.924,0,3.814-0.302,5.641-0.878c-0.104,1.439-0.242,3.45-0.242,3.45
		c-0.001,0.023-0.001,0.048-0.001,0.072v10.497v2.82c0,0,0,13.433,0,15.192C61.004,106.861,53.126,106.861,51.564,106.861"/>
</g>
<g id="phase7">
	<path fill="#00598C" d="M50.547,108.788c-0.553,0-1-0.447-1-1c0,0,0-16.973,0-18.449c-7.101-1.643-13.35-5.463-18.021-11.124
		c-2.414-2.925-4.342-6.204-5.641-9.75c-1.342-3.669-2.013-7.527-2.013-11.469c0-8.912,3.451-17.192,9.753-23.494
		c6.3-6.302,14.543-9.624,23.456-9.624c3.363,0,6.688,0.504,9.897,1.501c0.594-1.032,1.336-2.744,2.054-3.988
		c-1.384-0.8-7.305-4.219-7.305-4.219c-0.313-0.181-0.5-0.513-0.5-0.864c0-0.042,0.004-0.084,0.009-0.127
		c0.049-0.4,0.334-0.731,0.724-0.839l21.815-6.075c0.088-0.023,0.178-0.036,0.268-0.036c0.175,0,0.346,0.046,0.5,0.134
		c0.232,0.135,0.401,0.357,0.469,0.617l5.646,21.93c0.02,0.083,0.03,0.165,0.03,0.248c0,0.309-0.141,0.605-0.394,0.798
		c-0.18,0.134-0.391,0.203-0.605,0.203c-0.172,0-0.345-0.043-0.5-0.133c0,0-5.984-3.456-7.371-4.257
		c-0.69,1.196-10.104,17.547-10.104,17.547c-0.165,0.285-0.461,0.47-0.789,0.495c-0.025,0.002-0.052,0.003-0.077,0.003
		c-0.301,0-0.589-0.138-0.779-0.373c-2.614-3.232-6.235-5.368-10.34-6.019c-0.467-0.073-0.851-0.126-1.24-0.158
		c-0.005,0-0.01,0-0.014,0c-0.503-0.048-0.958-0.072-1.394-0.072c-9.265,0-16.88,7.537-16.88,16.801
		c0,9.266,7.615,16.802,16.88,16.802c2.104,0,4.182-0.4,6.174-1.189c0.118-0.047,0.245-0.07,0.368-0.07
		c0.198,0,0.394,0.059,0.563,0.174c0.271,0.185,0.437,0.493,0.437,0.823c0,0.002,0,0.004,0,0.005l-0.016,18.986l-0.025,15.266
		c0,0.553-0.448,0.998-1,0.998H50.547"/>
	<linearGradient id="SVGID_5_" gradientUnits="userSpaceOnUse" x1="56.9983" y1="106.7891" x2="56.9983" y2="11.4687">
		<stop  offset="0" style="stop-color:#0189D8"/>
		<stop  offset="1" style="stop-color:#0189D8"/>
	</linearGradient>
	<path fill="url(#SVGID_5_)" d="M51.546,106.789c0-1.796,0-18.362,0-18.362c0-0.476-0.333-0.885-0.799-0.981
		c-6.97-1.429-13.268-5.32-17.678-10.505c-2.309-2.715-4.084-5.833-5.305-9.164c-1.262-3.448-1.893-7.075-1.893-10.781
		c0-8.377,3.244-16.156,9.168-22.08c5.924-5.924,13.663-9.039,22.041-9.039c3.417,0,6.795,0.556,10.038,1.65
		c0.105,0.035,0.213,0.053,0.318,0.053c0.35,0,0.686-0.184,0.868-0.501l2.959-5.556c0.091-0.157,0.135-0.328,0.135-0.498
		c0-0.346-0.18-0.683-0.502-0.868c0,0-3.802-2.195-6.107-3.526c3.491-0.973,16.945-4.718,18.539-5.162
		c0.413,1.604,3.893,15.125,4.796,18.634c-2.317-1.339-6.175-3.564-6.175-3.564c-0.152-0.089-0.324-0.133-0.498-0.133
		c-0.087,0-0.177,0.011-0.262,0.033c-0.256,0.068-0.474,0.235-0.606,0.466c0,0-8.76,15.219-9.953,17.289
		c-2.841-3.014-6.468-5.014-10.589-5.668c-0.002,0-0.011-0.001-0.013-0.001c-0.503-0.079-0.931-0.138-1.381-0.173h0.015
		c-0.566-0.053-1.084-0.079-1.582-0.079c-10.367,0-18.82,8.355-18.82,18.722c0,10.367,8.453,18.723,18.82,18.723
		c1.878,0,3.736-0.285,5.541-0.846c-0.002,2.423-0.015,17.649-0.015,17.649s-0.021,12.526-0.023,14.269
		C61.023,106.789,53.109,106.789,51.546,106.789"/>
</g>
<g id="phase6">
	<path fill="#00598C" d="M50.544,108.786c-0.553,0-1-0.446-1-0.999c0,0,0-16.975,0-18.448c-7.074-1.662-13.372-5.52-18.02-11.172
		c-2.402-2.921-4.333-6.194-5.624-9.73c-1.336-3.661-2.013-7.51-2.013-11.441c0-3.941,0.69-7.798,2.032-11.467
		c1.296-3.542,3.227-6.822,5.637-9.746c4.669-5.66,10.993-9.443,18.09-11.088c0-1.18-0.005-3.03-0.005-4.461
		c-1.597,0-8.434,0-8.434,0c-0.402,0-0.765-0.24-0.922-0.611c-0.053-0.125-0.078-0.258-0.078-0.388c0-0.258,0.099-0.51,0.287-0.7
		L56.35,2.364c0.189-0.192,0.445-0.3,0.715-0.3c0.269,0,0.524,0.107,0.714,0.3l15.854,16.17c0.188,0.19,0.287,0.442,0.287,0.7
		c0,0.13-0.025,0.263-0.079,0.388c-0.156,0.371-0.521,0.611-0.922,0.611c0,0-6.771,0-8.366,0c0,1.586,0,5.028,0,5.028l0.006,15.195
		c0,0.33-0.161,0.64-0.434,0.825c-0.17,0.115-0.367,0.175-0.565,0.175c-0.122,0-0.243-0.022-0.36-0.067
		c-1.97-0.761-3.991-1.197-6.006-1.197c-2.495,0-5.099,0.554-7.389,1.646c-0.002,0-0.1,0.046-0.1,0.046l-0.09,0.044
		c-0.367,0.181-0.693,0.354-0.993,0.528l0.011-0.008l-0.015,0.01l-0.081,0.048c0,0,0.005-0.002,0.008-0.004
		c-0.969,0.567-1.893,1.243-2.742,2.007c-0.003,0.004-0.287,0.262-0.287,0.262c-0.247,0.229-0.46,0.44-0.655,0.646
		c-0.002,0-0.275,0.303-0.275,0.303l-0.1,0.11c-0.001,0-0.109,0.122-0.109,0.122c-0.155,0.173-0.303,0.336-0.437,0.504
		c-0.275,0.343-0.521,0.672-0.748,1c-0.004,0.003-0.277,0.429-0.277,0.429l-0.117,0.188c-0.001,0-0.383,0.628-0.383,0.628
		c0,0.002-0.327,0.605-0.327,0.605c-0.114,0.22-0.228,0.456-0.363,0.754l-0.09,0.195l-0.159,0.356
		c-0.19,0.461-0.349,0.895-0.485,1.332c-0.001,0.003-0.033,0.12-0.033,0.12l-0.048,0.173c-0.114,0.38-0.216,0.778-0.304,1.182
		c-0.001,0.005-0.077,0.391-0.077,0.391l-0.013,0.069c-0.064,0.346-0.12,0.708-0.165,1.079l-0.02,0.154l-0.039,0.341
		c-0.053,0.566-0.078,1.069-0.078,1.54c0,9.264,7.712,16.811,16.977,16.811c2.037,0,4.059-0.439,6.008-1.187
		c0.115-0.045,0.238-0.067,0.358-0.067c0.2,0,0.397,0.061,0.566,0.177c0.271,0.187,0.433,0.494,0.433,0.824c0,0,0,18.342,0,18.815
		c0.02,0.078,0.03,0.16,0.03,0.243v15.178c0,0.553-0.446,0.999-0.999,0.999H50.544 M48.554,42.499c-0.001,0-0.001,0.001-0.003,0.001
		C48.552,42.499,48.554,42.499,48.554,42.499"/>
	<linearGradient id="SVGID_6_" gradientUnits="userSpaceOnUse" x1="48.2127" y1="106.7881" x2="48.2127" y2="4.4922">
		<stop  offset="0" style="stop-color:#0189D8"/>
		<stop  offset="1" style="stop-color:#0189D8"/>
	</linearGradient>
	<path fill="url(#SVGID_6_)" d="M51.543,106.788c0-1.796,0-18.359,0-18.359c0-0.474-0.332-0.882-0.794-0.979
		C43.805,86,37.601,82.409,33.068,76.897c-2.256-2.747-4.075-5.823-5.289-9.148c-1.255-3.438-1.893-7.058-1.893-10.754
		c0-3.706,0.65-7.331,1.911-10.778c1.219-3.331,3.036-6.414,5.304-9.162c4.553-5.52,10.779-9.144,17.747-10.574
		c0.463-0.097,0.798-0.505,0.798-0.978c0-0.001,0-0.001,0-0.003l-0.005-6.266c0-0.553-0.447-0.999-1-0.999c0,0-4.391,0-7.053,0
		C46.122,15.65,55.904,5.674,57.064,4.492c1.159,1.182,10.94,11.158,13.475,13.743c-2.649,0-6.986,0-6.986,0
		c-0.552,0-0.999,0.446-0.999,0.999v6.027c0,0,0.005,11.485,0.007,13.794c-1.769-0.539-3.568-0.804-5.367-0.804
		c-2.796,0-5.6,0.56-8.163,1.78c-0.008,0.005-0.098,0.048-0.098,0.048l-0.107,0.052c-0.413,0.203-0.78,0.396-1.121,0.596
		c-0.005,0.003-0.006,0.003-0.011,0.008l-0.032,0.02l-0.018,0.009c-0.003,0.004-0.009,0.007-0.014,0.009
		c-1.087,0.637-2.122,1.395-3.073,2.248l-0.319,0.29c-0.274,0.256-0.516,0.496-0.741,0.733c0,0.002-0.313,0.343-0.313,0.343
		l-0.095,0.105c-0.003,0.005-0.112,0.125-0.112,0.125c-0.167,0.186-0.338,0.377-0.504,0.585c-0.309,0.384-0.582,0.749-0.838,1.117
		c0,0.002-0.33,0.51-0.33,0.51l-0.109,0.175c0,0.001-0.428,0.708-0.428,0.708c-0.001,0-0.372,0.685-0.372,0.685
		c-0.124,0.239-0.253,0.507-0.402,0.835c-0.002,0.003-0.085,0.183-0.085,0.183l-0.195,0.441c-0.21,0.51-0.388,0.998-0.543,1.49
		c0,0.001-0.06,0.209-0.06,0.209l-0.029,0.106c-0.128,0.432-0.243,0.879-0.342,1.329c0,0.003-0.091,0.463-0.091,0.463l-0.011,0.067
		c-0.072,0.378-0.133,0.783-0.185,1.197c0,0.002-0.018,0.147-0.018,0.147l-0.046,0.405c-0.058,0.626-0.085,1.189-0.085,1.723
		c0,10.367,8.521,18.711,18.888,18.711c1.812,0,3.611-0.297,5.367-0.825c0,2.399,0,17.73,0,17.73c0,0.084,0.011,0.165,0.03,0.244
		c0,0.438,0,12.221,0,13.935C61.027,106.788,53.106,106.788,51.543,106.788"/>
</g>
<g id="phase5">
	<path fill="#00598C" d="M50.606,108.785c-0.552,0-0.999-0.447-0.999-1c0,0,0-16.96,0-18.43
		c-7.066-1.668-13.493-5.556-18.133-11.204c-2.399-2.922-4.278-6.193-5.567-9.727c-1.334-3.657-2.01-7.503-2.01-11.432
		c0-4.866,1.035-9.559,3.059-13.945c1.84-3.989,4.404-7.491,7.63-10.482c-0.594-1.026-1.259-2.659-1.976-3.902
		c-1.384,0.799-7.305,4.217-7.305,4.217c-0.155,0.09-0.329,0.133-0.5,0.133c-0.215,0-0.428-0.068-0.605-0.203
		c-0.253-0.192-0.394-0.488-0.394-0.798c0-0.083,0.01-0.165,0.03-0.248l5.647-21.932c0.067-0.259,0.237-0.481,0.469-0.616
		c0.154-0.088,0.325-0.135,0.5-0.135c0.09,0,0.181,0.013,0.27,0.037l21.815,6.076c0.388,0.109,0.673,0.438,0.723,0.839
		c0.004,0.044,0.008,0.085,0.008,0.127c0,0.353-0.188,0.684-0.5,0.864c0,0-5.985,3.456-7.372,4.257
		c0.764,1.323,9.982,17.595,9.982,17.595c0.088,0.154,0.133,0.327,0.133,0.5c0,0.148-0.032,0.298-0.1,0.436
		c-0.144,0.298-0.426,0.506-0.754,0.554c-4.149,0.61-7.969,2.72-10.609,5.94c-0.298,0.362-0.593,0.756-0.875,1.168l-0.216,0.343
		l-0.131,0.209c0,0.002-0.022,0.037-0.022,0.037c-0.152,0.24-0.294,0.468-0.423,0.698c-0.001,0-0.328,0.631-0.328,0.631
		c-0.114,0.226-0.244,0.487-0.36,0.748c0,0.002-0.266,0.648-0.266,0.648c-0.106,0.267-0.208,0.544-0.301,0.823
		c-0.001,0-0.199,0.626-0.199,0.626c-0.082,0.286-0.162,0.596-0.237,0.916c0,0.003-0.027,0.118-0.027,0.118l-0.107,0.485
		c-0.059,0.311-0.105,0.633-0.155,1.021l-0.034,0.243l-0.042,0.323c-0.055,0.573-0.082,1.099-0.082,1.604
		c0,9.265,7.615,16.831,16.879,16.831c2.045,0,4.072-0.391,6.025-1.144c0.115-0.045,0.238-0.067,0.358-0.067
		c0.2,0,0.397,0.061,0.566,0.176c0.272,0.188,0.434,0.495,0.434,0.825v15.186l-0.003,19.03c0,0.553-0.447,1-0.999,1H50.606"/>
	<linearGradient id="SVGID_7_" gradientUnits="userSpaceOnUse" x1="44.2021" y1="106.7861" x2="44.2021" y2="11.3213">
		<stop  offset="0" style="stop-color:#0189D8"/>
		<stop  offset="1" style="stop-color:#0189D8"/>
	</linearGradient>
	<path fill="url(#SVGID_7_)" d="M51.606,106.786c0-1.795,0-18.378,0-18.378c0-0.473-0.332-0.881-0.794-0.979
		c-6.936-1.456-13.189-5.039-17.713-10.549c-2.255-2.745-4.1-5.821-5.312-9.142c-1.254-3.437-1.89-7.053-1.89-10.746
		c0-4.575,0.974-8.985,2.876-13.108c1.837-3.982,4.462-7.413,7.764-10.331c0.221-0.196,0.338-0.472,0.338-0.752
		c0-0.171-0.043-0.343-0.133-0.499l-2.899-5.506c-0.186-0.32-0.522-0.5-0.868-0.5c-0.169,0-0.341,0.043-0.498,0.135
		c0,0-3.802,2.195-6.108,3.526c0.903-3.507,4.385-17.033,4.798-18.637c1.597,0.445,15.048,4.191,18.538,5.163
		c-2.319,1.339-6.174,3.565-6.174,3.565c-0.322,0.186-0.501,0.521-0.501,0.868c0,0.169,0.043,0.341,0.134,0.498
		c0,0,8.673,15.324,9.805,17.286c-4.069,0.921-7.815,3.103-10.468,6.336c-0.334,0.407-0.663,0.848-0.977,1.306
		c-0.002,0.003-0.272,0.426-0.272,0.426l-0.117,0.19c-0.002,0.002-0.026,0.042-0.026,0.042c-0.157,0.25-0.32,0.509-0.474,0.783
		c0,0.001-0.37,0.714-0.37,0.714c-0.122,0.238-0.265,0.527-0.399,0.828l-0.301,0.724c-0.118,0.302-0.23,0.61-0.336,0.923
		c0,0.003-0.221,0.703-0.221,0.703c-0.095,0.325-0.184,0.671-0.266,1.028l-0.027,0.11l-0.124,0.561
		c-0.07,0.365-0.12,0.722-0.174,1.148l-0.029,0.205l-0.056,0.426c-0.06,0.637-0.088,1.225-0.088,1.793
		c0,10.367,8.512,18.781,18.878,18.781c1.819,0,3.626-0.289,5.385-0.819c0,2.307,0,13.845,0,13.845s-0.004,16.237-0.004,18.031
		C60.946,106.786,53.164,106.786,51.606,106.786 M47.2,27.298c0.003-0.001,0.005-0.001,0.008-0.003l-0.011,0.003
		C47.197,27.298,47.199,27.298,47.2,27.298"/>
</g>
<g id="phase4">
	<path fill="#00598C" d="M50.534,108.7c-0.553,0-1-0.446-1-0.999c0,0,0-16.915,0-18.384c-7.045-1.685-13.5-5.598-18.121-11.238
		c-2.39-2.916-4.301-6.271-5.586-9.799c-1.329-3.65-1.943-7.489-1.943-11.409c0-3.338,0.497-6.64,1.48-9.827
		c-1.006-0.58-2.606-1.492-3.82-2.191c-0.799,1.384-4.218,7.305-4.218,7.305c-0.181,0.312-0.513,0.499-0.865,0.499
		c-0.042,0-0.083-0.003-0.126-0.008c-0.4-0.05-0.73-0.335-0.839-0.722L9.419,30.11c-0.024-0.088-0.037-0.18-0.037-0.269
		c0-0.175,0.046-0.347,0.135-0.5c0.134-0.232,0.357-0.402,0.617-0.47l21.931-5.645c0.083-0.021,0.165-0.031,0.249-0.031
		c0.309,0,0.605,0.142,0.797,0.394c0.135,0.179,0.204,0.391,0.204,0.606c0,0.171-0.043,0.344-0.133,0.499
		c0,0-3.456,5.985-4.257,7.372c1.312,0.758,17.619,10.056,17.619,10.056c0.293,0.17,0.485,0.471,0.504,0.809
		c0.001,0.018,0.001,0.037,0.001,0.055c0,0.316-0.147,0.614-0.405,0.804c0,0-0.021,0.015-0.025,0.018l-0.002,0.002
		c0.002-0.002,0.01-0.007,0.01-0.007s-0.011,0.008-0.016,0.012c-3.235,2.593-5.495,6.336-6.17,10.422
		c-0.063,0.386-0.133,0.844-0.173,1.321c0,0.003,0,0.006,0,0.011c-0.049,0.508-0.074,0.972-0.074,1.422
		c0,9.525,7.732,16.821,16.997,16.821c2.057,0,4.09-0.453,6.049-1.21c0.117-0.045,0.238-0.067,0.36-0.067
		c0.198,0,0.396,0.059,0.566,0.175c0.272,0.186,0.434,0.494,0.434,0.824v26.83l0.007,7.338c0,0.553-0.447,0.999-0.999,0.999H50.534"
		/>
	<linearGradient id="SVGID_8_" gradientUnits="userSpaceOnUse" x1="37.113" y1="106.7021" x2="37.113" y2="25.7588">
		<stop  offset="0" style="stop-color:#0189D8"/>
		<stop  offset="1" style="stop-color:#0189D8"/>
	</linearGradient>
	<path fill="url(#SVGID_8_)" d="M51.533,106.702c0-1.796,0-18.301,0-18.301c0-0.473-0.33-0.88-0.791-0.979
		C43.826,85.951,37.506,82.274,33,76.773c-2.245-2.742-4.046-5.862-5.252-9.178c-1.249-3.43-1.844-7.038-1.844-10.725
		c0-3.396,0.586-6.751,1.668-9.972c0.036-0.104,0.051-0.211,0.051-0.316c0-0.351-0.184-0.686-0.5-0.868l-5.445-3.095
		c-0.157-0.092-0.328-0.135-0.498-0.135c-0.346,0-0.682,0.18-0.868,0.501c0,0-2.195,3.801-3.526,6.106
		c-0.972-3.489-4.718-16.94-5.163-18.537c1.603-0.413,15.126-3.894,18.635-4.797c-1.339,2.317-3.565,6.176-3.565,6.176
		c-0.091,0.157-0.134,0.328-0.134,0.498c0,0.346,0.179,0.683,0.501,0.868c0,0,15.329,8.751,17.302,9.89
		c-3.043,2.824-5.145,6.619-5.826,10.738c-0.066,0.404-0.146,0.933-0.192,1.479v-0.012c-0.054,0.572-0.08,1.101-0.08,1.614
		c0,10.367,8.378,18.693,18.927,18.713c1.829,0.003,3.645-0.28,5.41-0.817c0,2.518,0,25.458,0,25.458s0.003,4.848,0.005,6.339
		C61.039,106.702,53.096,106.702,51.533,106.702"/>
</g>
<g id="phase3">
	<path fill="#00598C" d="M50.581,108.772c-0.552,0-0.999-0.447-0.999-1c0,0,0-16.964,0-18.44c-6.206-1.439-11.85-4.612-16.334-9.209
		c-4.486-4.6-7.438-10.035-8.717-16.279c-1.118,0-3.113,0.003-4.43,0.005c0,1.597,0,8.435,0,8.435c0,0.4-0.237,0.761-0.605,0.919
		c-0.127,0.055-0.261,0.08-0.394,0.08c-0.252,0-0.5-0.094-0.689-0.273L2.243,57.639c-0.198-0.188-0.311-0.448-0.311-0.722
		c0-0.002,0-0.005,0-0.007c0-0.271,0.11-0.528,0.304-0.716l16.169-15.611c0.19-0.184,0.442-0.281,0.697-0.281
		c0.131,0,0.263,0.026,0.389,0.08c0.37,0.156,0.608,0.519,0.608,0.921c0,0,0,6.912,0,8.513c1.16,0,1.826,0,1.826,0l18.401,0.004
		c0.327,0,0.634,0.16,0.821,0.429c0.117,0.17,0.178,0.368,0.178,0.57c0,0.117-0.019,0.235-0.063,0.35
		c-0.682,1.833-1.066,3.934-1.066,5.837c0,9.265,7.693,16.802,16.957,16.802c2.038,0,4.059-0.429,6.008-1.177
		c0.115-0.045,0.239-0.067,0.359-0.067c0.2,0,0.396,0.062,0.566,0.177c0.271,0.188,0.433,0.494,0.433,0.824l0.021,34.209
		c0,0.553-0.446,1-0.999,1H50.581"/>
	<linearGradient id="SVGID_9_" gradientUnits="userSpaceOnUse" x1="33.4605" y1="106.7734" x2="33.4605" y2="43.6582">
		<stop  offset="0" style="stop-color:#0189D8"/>
		<stop  offset="1" style="stop-color:#0189D8"/>
	</linearGradient>
	<path fill="url(#SVGID_9_)" d="M51.58,106.773c0-1.794,0-18.345,0-18.345c0-0.474-0.333-0.884-0.797-0.981
		c-6.127-1.264-11.67-4.236-16.064-8.741c-4.401-4.513-7.225-9.868-8.328-16.039c-0.086-0.476-0.5-0.823-0.982-0.823
		c-0.001,0-0.001,0-0.003,0l-6.304,0.005c-0.553,0-1,0.446-1,0.999c0,0,0,4.462,0,7.105C15.536,67.514,5.604,58.071,4.378,56.907
		c1.216-1.174,11.148-10.764,13.724-13.249c0,2.666,0,7.157,0,7.157c0,0.553,0.447,0.999,1,0.999h2.825
		c0,0,14.708,0.003,17.077,0.003c-0.495,1.703-0.736,3.441-0.736,5.188c0,10.366,8.521,18.731,18.887,18.731
		c1.812,0,3.612-0.296,5.367-0.825c0,2.527,0.021,30.564,0.021,31.862C60.982,106.773,53.14,106.773,51.58,106.773"/>
</g>
<g id="phase2">
	<path fill="#00598C" d="M50.604,108.59c-0.553,0-1-0.446-1-0.999c0,0,0-16.787,0-18.252c-5.97-1.438-11.854-4.495-16.566-9.47
		l0.011,0.012c-0.162-0.166-0.323-0.336-0.485-0.51c-0.924,0.533-2.587,1.56-3.705,2.206c0.8,1.387,4.256,7.372,4.256,7.372
		c0.09,0.156,0.133,0.328,0.133,0.5c0,0.214-0.067,0.427-0.203,0.605c-0.192,0.252-0.488,0.393-0.797,0.393
		c-0.082,0-0.167-0.01-0.249-0.03l-21.931-5.646c-0.26-0.067-0.482-0.236-0.617-0.469c-0.088-0.154-0.133-0.326-0.133-0.5
		c0-0.09,0.011-0.18,0.035-0.269L15.43,61.72c0.109-0.387,0.439-0.673,0.839-0.725c0.042-0.005,0.081-0.008,0.123-0.008
		c0.354,0,0.688,0.189,0.868,0.501c0,0,3.418,5.921,4.217,7.304c1.183-0.683,17.427-10.264,17.427-10.264
		c0.154-0.088,0.326-0.131,0.498-0.131c0.151,0,0.304,0.033,0.443,0.103c0.299,0.147,0.504,0.436,0.548,0.767
		c0.527,4.008,2.62,7.741,5.658,10.433c3.065,2.715,7.223,4.069,11.322,4.069c1.959,0,3.912-0.442,5.805-1.142
		c0.112-0.042,0.229-0.061,0.347-0.061c0.203,0,0.402,0.06,0.572,0.178c0.268,0.188,0.428,0.493,0.428,0.821L64.5,107.591
		c0,0.553-0.446,0.999-0.999,0.999H50.604"/>
	<linearGradient id="SVGID_10_" gradientUnits="userSpaceOnUse" x1="37.0401" y1="106.5918" x2="37.0401" y2="60.9756">
		<stop  offset="0" style="stop-color:#0189D8"/>
		<stop  offset="1" style="stop-color:#0189D8"/>
	</linearGradient>
	<path fill="url(#SVGID_10_)" d="M51.603,106.592c0-1.795,0-18.13,0-18.13c0-0.471-0.328-0.878-0.789-0.978
		c-6.139-1.321-11.918-4.333-16.324-8.99c-0.003-0.003-0.008-0.008-0.011-0.012c-0.264-0.27-0.532-0.556-0.795-0.85
		c-0.002,0-0.112-0.12-0.112-0.12l-0.055-0.059c-0.203-0.215-0.497-0.337-0.787-0.337c-0.164,0-0.328,0.038-0.473,0.122
		l-5.263,3.105c-0.321,0.185-0.501,0.52-0.501,0.866c0,0.17,0.043,0.342,0.135,0.499c0,0,2.227,3.859,3.565,6.178
		c-3.505-0.903-17.033-4.386-18.638-4.799c0.443-1.596,4.191-15.049,5.164-18.538c1.33,2.306,3.526,6.106,3.526,6.106
		c0.185,0.321,0.521,0.501,0.866,0.501c0.17,0,0.342-0.043,0.5-0.135c0,0,15.087-8.922,17.049-10.048
		c0.832,3.922,3.036,7.537,6.066,10.219c3.432,3.04,8.058,4.524,12.647,4.524c1.733,0,3.461-0.257,5.152-0.746
		c0,2.269-0.023,29.826-0.023,31.619C60.943,106.592,53.161,106.592,51.603,106.592"/>
</g>
<g id="phase1">
	<path fill="#00598C" d="M50.604,108.651c-0.552,0-0.999-0.446-0.999-0.999c0,0,0.015-6.591,0.015-8.473
		c-2.248,0.627-19.471,5.389-19.471,5.389c-0.088,0.024-0.18,0.037-0.269,0.037c-0.175,0-0.346-0.047-0.5-0.135
		c-0.232-0.135-0.402-0.357-0.469-0.616l-5.647-21.932c-0.021-0.083-0.03-0.165-0.03-0.248c0-0.309,0.141-0.605,0.394-0.798
		c0.179-0.134,0.391-0.203,0.606-0.203c0.171,0,0.344,0.043,0.5,0.133c0,0,5.921,3.42,7.305,4.219
		c0.631-1.093,10.315-17.295,10.315-17.295c0.165-0.285,0.459-0.471,0.787-0.497c0.027-0.001,0.055-0.003,0.082-0.003
		c0.299,0,0.584,0.135,0.775,0.372c3.221,3.986,8.054,6.175,13.125,6.175c2.051,0,4.072-0.396,6.009-1.137
		c0.115-0.045,0.236-0.067,0.356-0.067c0.2,0,0.397,0.061,0.567,0.178c0.271,0.186,0.433,0.493,0.433,0.823l0.016,34.078
		c0,0.553-0.446,0.999-0.999,0.999H50.604 M49.612,95.166c0-2.17-0.017-4.69-0.017-5.807c-0.842-0.2-1.722-0.451-2.659-0.758
		c-0.563,0.978-1.442,2.643-2.113,3.804C45.916,93.036,47.891,94.171,49.612,95.166"/>
	<linearGradient id="SVGID_11_" gradientUnits="userSpaceOnUse" x1="44.1499" y1="106.6533" x2="44.1499" y2="69.8359">
		<stop  offset="0" style="stop-color:#0189D8"/>
		<stop  offset="1" style="stop-color:#0189D8"/>
	</linearGradient>
	<path fill="url(#SVGID_11_)" d="M51.604,106.653c0-1.557,0-18.186,0-18.186c0-0.476-0.333-0.884-0.799-0.98
		c-1.222-0.25-2.525-0.618-3.986-1.127c-0.108-0.037-0.22-0.057-0.329-0.057c-0.349,0-0.684,0.185-0.866,0.502l-3.033,5.467
		c-0.091,0.156-0.134,0.328-0.134,0.498c0,0.346,0.179,0.682,0.501,0.868c0,0,3.972,2.293,6.174,3.564
		c-3.251,0.905-16.928,4.715-18.537,5.163c-0.413-1.603-3.895-15.126-4.798-18.635c2.306,1.331,6.108,3.526,6.108,3.526
		c0.157,0.091,0.329,0.135,0.499,0.135c0.346,0,0.682-0.18,0.868-0.5c0,0,8.941-14.985,10.134-17.057
		c3.557,3.788,8.516,5.911,13.717,5.911c1.82,0,3.619-0.266,5.366-0.788c0,2.489,0.017,30.144,0.017,31.694
		C60.945,106.653,53.162,106.653,51.604,106.653"/>
</g>
<g id="phase0">
	<path fill="#00598C" d="M56.213,111.637L40.358,95.468c-0.188-0.19-0.287-0.442-0.287-0.7c0-0.13,0.026-0.263,0.079-0.388
		c0.157-0.371,0.521-0.611,0.922-0.611c0,0,6.912,0,8.514,0c0-1.033-0.045-15.275-0.045-15.275c0-2.31,1.659-4.272,3.881-4.715
		c0.014-0.014,0.59-0.17,1.431-0.152c0.734,0.016,1.417,0.147,2.364,0.147c9.266,0,16.567-7.518,16.567-16.78
		c0-9.265-7.497-16.802-16.763-16.802c-9.264,0-16.801,7.537-16.801,16.802c0,5.49,2.897,10.773,7.423,13.921
		c0.277,0.193,0.429,0.504,0.429,0.821c0,0.173-0.045,0.35-0.14,0.508c0,0-5.001,8.357-5.056,8.449
		c-0.006,0.016-0.013,0.031-0.013,0.031l-0.143,0.294c-0.865,1.463-2.458,2.371-4.161,2.371c-0.86,0-1.709-0.23-2.452-0.669
		c-0.423-0.252-0.807-0.572-1.146-0.958c-0.022-0.018-0.045-0.035-0.066-0.055c-3.435-3.099-6.122-6.778-8.028-10.957
		c-1.977-4.335-2.979-8.957-2.979-13.755c0-8.913,3.49-17.202,9.792-23.504c6.3-6.303,14.621-9.626,23.533-9.605
		c8.721,0.021,16.792,3.303,23.095,9.605c6.302,6.302,9.771,14.591,9.771,23.504c0,3.959-0.688,7.833-2.04,11.516
		c-1.311,3.558-3.206,6.847-5.64,9.777c-4.711,5.675-10.704,9.396-17.85,11.002c0.002,1.003,0.005,3.287,0.007,4.479
		c1.587,0,8.224,0,8.224,0c0.402,0,0.766,0.24,0.923,0.611c0.053,0.125,0.078,0.258,0.078,0.388c0,0.258-0.1,0.51-0.286,0.7
		l-15.855,16.169c-0.189,0.192-0.445,0.299-0.714,0.299C56.658,111.936,56.402,111.829,56.213,111.637"/>
	<linearGradient id="SVGID_12_" gradientUnits="userSpaceOnUse" x1="56.9868" y1="109.5078" x2="56.9868" y2="25.8848">
		<stop  offset="0" style="stop-color:#0189D8"/>
		<stop  offset="1" style="stop-color:#0189D8"/>
	</linearGradient>
	<path fill="url(#SVGID_12_)" d="M43.452,95.768c2.676,0,7.133,0,7.133,0c0.553,0,1-0.447,1-1l-0.036-16.207l-0.009-0.073
		c0-1.466,1.159-2.697,2.638-2.797c0.134-0.009,2.167,0.082,3.039,0.082c10.367,0,18.547-8.413,18.547-18.779
		s-8.375-18.8-18.742-18.8c-10.366,0-18.8,8.434-18.8,18.8c0,5.834,2.921,11.456,7.529,15.013c-0.762,1.289-4.575,7.697-4.575,7.697
		c-0.019,0.032-0.022,0.037-0.038,0.074l-0.071,0.157c0,0-0.022,0.051-0.024,0.056c-0.514,0.863-1.422,1.381-2.433,1.381
		c-0.503,0-0.98-0.156-1.414-0.414c-0.282-0.166-0.56-0.374-0.785-0.657c-0.08-0.102-0.18-0.185-0.289-0.247
		c-3.153-2.883-5.671-6.271-7.433-10.133c-1.857-4.072-2.799-8.415-2.799-12.925c0-8.378,3.284-16.166,9.207-22.09
		c5.924-5.924,13.742-9.01,22.119-9.021c8.033-0.01,16.315,3.615,21.681,9.021c5.902,5.945,9.186,13.712,9.186,22.09
		c0,3.723-0.646,7.365-1.92,10.826c-1.229,3.344-3.013,6.435-5.3,9.189c-4.596,5.534-10.491,8.998-17.508,10.392
		c-0.466,0.093-0.804,0.502-0.804,0.979c0,0.001,0,0.001,0,0.003l0.01,6.386c0,0.551,0.448,0.998,0.999,0.998c0,0,4.222,0,6.842,0
		c-2.535,2.584-12.315,12.559-13.475,13.74C55.768,108.326,45.987,98.352,43.452,95.768"/>
</g>
</svg>
