<?xml version="1.0" encoding="utf-8"?>
<!-- Generator: Adobe Illustrator 17.1.0, SVG Export Plug-In . SVG Version: 6.00 Build 0)  -->
<!DOCTYPE svg PUBLIC "-//W3C//DTD SVG 1.1//EN" "http://www.w3.org/Graphics/SVG/1.1/DTD/svg11.dtd">
<svg version="1.1" id="Layer_1" xmlns="http://www.w3.org/2000/svg" xmlns:xlink="http://www.w3.org/1999/xlink" x="0px" y="0px"
	 viewBox="0 0 174 114" enable-background="new 0 0 174 114" xml:space="preserve">
<path fill-rule="evenodd" clip-rule="evenodd" fill="#3A3A3A" d="M155.456,112.841H18.544c-9.45,0-17.114-7.656-17.114-17.114V42.03
	h171.141v53.697C172.571,105.185,164.906,112.841,155.456,112.841L155.456,112.841z M57.037,57.234h-30.33v5.053h30.33V57.234
	L57.037,57.234z M77.262,72.399H26.707v5.06h50.555V72.399L77.262,72.399z M102.539,87.564H26.707v5.06h75.832V87.564
	L102.539,87.564z M1.429,18.273c0-9.458,7.664-17.114,17.114-17.114h136.913c9.45,0,17.114,7.656,17.114,17.114v3.579H1.429V18.273
	L1.429,18.273z"/>
</svg>
