<?xml version="1.0" encoding="utf-8"?>
<!-- Generator: Adobe Illustrator 17.1.0, SVG Export Plug-In . SVG Version: 6.00 Build 0)  -->
<!DOCTYPE svg PUBLIC "-//W3C//DTD SVG 1.1//EN" "http://www.w3.org/Graphics/SVG/1.1/DTD/svg11.dtd">
<svg version="1.1" id="Layer_1" xmlns="http://www.w3.org/2000/svg" xmlns:xlink="http://www.w3.org/1999/xlink" x="0px" y="0px"
	 viewBox="0 0 174 114" enable-background="new 0 0 174 114" xml:space="preserve">
<path fill-rule="evenodd" clip-rule="evenodd" fill="#3A3A3A" d="M155.231,1.159H18.769c-9.389,0-17,7.611-17,17v77.682
	c0,9.389,7.611,17,17,17h136.462c9.389,0,17-7.611,17-17V18.159C172.231,8.77,164.62,1.159,155.231,1.159z M21.883,31.535
	c0-2.823,2.289-5.112,5.112-5.112h17.038c2.823,0,5.112,2.289,5.112,5.112v11.359c0,2.823-2.289,5.112-5.112,5.112H26.995
	c-2.823,0-5.112-2.289-5.112-5.112V31.535z M73.172,72.399v5.06H22.617v-5.06H73.172z M98.449,92.624H22.617v-5.06h75.832V92.624z"
	/>
</svg>
