<?xml version="1.0" encoding="utf-8"?>
<!-- Generator: Adobe Illustrator 16.0.2, SVG Export Plug-In . SVG Version: 6.00 Build 0)  -->
<!DOCTYPE svg PUBLIC "-//W3C//DTD SVG 1.1//EN" "http://www.w3.org/Graphics/SVG/1.1/DTD/svg11.dtd">
<svg version="1.1" id="Layer_1" xmlns="http://www.w3.org/2000/svg" xmlns:xlink="http://www.w3.org/1999/xlink" x="0px" y="0px"
	 width="210px" height="174px" viewBox="0 0 210 174" enable-background="new 0 0 210 174" xml:space="preserve">
<g id="green">
	<rect x="166.407" fill="#00AA00" width="44.593" height="65.15"/>
	<g>
		<g>
			<path opacity="0.15" enable-background="new    " d="M141.557-36.541l-0.297-0.387L1.598-37.991L-69.507,63.26l68.89,105.025
				l0.516,0.02c0.453,0.016,45.752,1.678,84.294,1.678c32.675,0,50.624-1.125,54.87-3.441C150.523,160.288,210.08,78.55,210,65.388
				C209.926,52.66,144.35-32.905,141.557-36.541z M132.531,155.314c-10.436,5.692-124.316-0.946-124.316-0.946l-61.18-90.848
				l63.136-89.901l124.315,0.947c0,0,61.111,79.609,61.182,90.85C195.734,76.655,142.967,149.625,132.531,155.314z"/>
			<path opacity="0.15" enable-background="new    " d="M140.588-37.363l-0.297-0.387L0.628-38.813L-70.478,62.438l68.891,105.025
				l0.516,0.02c0.453,0.018,45.752,1.68,84.294,1.68c32.675,0,50.623-1.126,54.871-3.443c11.461-6.252,71.018-87.99,70.938-101.152
				C208.954,51.838,143.379-33.726,140.588-37.363z M131.561,154.494c-10.434,5.693-124.314-0.947-124.314-0.947l-61.18-90.848
				L9.2-27.203l124.315,0.947c0,0,61.11,79.609,61.18,90.85C194.764,75.833,141.996,148.803,131.561,154.494z"/>
			<path opacity="0.15" enable-background="new    " d="M139.646-38.058l-0.299-0.387L-0.314-39.509L-71.42,61.742l68.891,105.025
				l0.516,0.019c0.453,0.017,45.752,1.679,84.294,1.679c32.675,0,50.624-1.126,54.87-3.443
				c11.461-6.252,71.018-87.988,70.938-101.15C208.012,51.143,142.438-34.422,139.646-38.058z M130.619,153.798
				c-10.436,5.692-124.316-0.946-124.316-0.946l-61.18-90.849L8.258-27.899l124.316,0.947c0,0,61.111,79.609,61.18,90.85
				C193.82,75.138,141.055,148.107,130.619,153.798z"/>
			<path opacity="0.15" enable-background="new    " d="M138.645-38.866l-0.297-0.387L-1.315-40.316L-72.421,60.935L-3.53,165.96
				l0.516,0.019c0.453,0.019,45.752,1.681,84.294,1.681c32.675,0,50.623-1.126,54.871-3.443
				c11.461-6.252,71.018-87.99,70.938-101.152C207.012,50.336,141.436-35.229,138.645-38.866z M129.618,152.99
				c-10.435,5.693-124.316-0.946-124.316-0.946l-61.18-90.848L7.258-28.706l124.316,0.947c0,0,61.111,79.609,61.18,90.85
				C192.82,74.33,140.053,147.3,129.618,152.99z"/>
		</g>
		<path fill="#FFFFFF" d="M135.506,162.764c-11.638,6.348-138.65,1.643-138.65,1.643L-71.379,60.382L-0.965-39.884l138.65,1.055
			c0,0,68.16,88.788,68.233,101.325C205.996,75.032,147.143,156.415,135.506,162.764L135.506,162.764z"/>
		<g>
			<path opacity="0.15" enable-background="new    " d="M132.532-27.991l-0.298-0.387L6.907-29.333l-63.833,90.894l61.841,91.83
				l0.495,0.028c0.558,0.033,56.241,3.255,92.906,3.255c18.5,0,28.952-0.795,31.946-2.429c10.284-5.606,63.729-78.966,63.657-90.783
				C193.852,52.016,135.036-24.73,132.532-27.991z M125.762,147.393c-7.838,4.461-116.137-0.886-116.137-0.886L-47.53,61.635
				l58.98-83.987l116.137,0.885c0,0,57.155,72.46,57.155,84.872C184.742,75.818,133.6,142.93,125.762,147.393z"/>
			<path opacity="0.15" enable-background="new    " d="M132.199-28.94l-0.297-0.387L6.574-30.282l-63.833,90.894l61.841,91.83
				l0.495,0.029c0.558,0.032,56.241,3.254,92.906,3.254c18.501,0,28.951-0.795,31.947-2.429
				c10.282-5.606,63.729-78.966,63.655-90.783C193.518,51.067,134.703-25.679,132.199-28.94z M125.428,146.443
				c-7.838,4.461-116.136-0.885-116.136-0.885l-57.155-84.874l58.98-83.987l116.138,0.885c0,0,57.154,72.46,57.154,84.872
				S133.266,141.98,125.428,146.443z"/>
		</g>
		
			<linearGradient id="SVGID_2_" gradientUnits="userSpaceOnUse" x1="59.8716" y1="87.5996" x2="59.8716" y2="150.0994" gradientTransform="matrix(1 0 0 -1 8.3999 150.0996)">
			<stop  offset="0" style="stop-color:#FFFFFF"/>
			<stop  offset="1" style="stop-color:#F6F6F6"/>
		</linearGradient>
		<path fill="url(#SVGID_2_)" d="M129.451,152.418c-10.436,5.693-124.316-0.947-124.316-0.947l-61.18-90.848L7.091-29.278
			l124.316,0.947c0,0,61.11,79.609,61.181,90.85C192.654,73.758,139.887,146.727,129.451,152.418L129.451,152.418z"/>
		
			<linearGradient id="SVGID_3_" gradientUnits="userSpaceOnUse" x1="314.4189" y1="975.6533" x2="406.388" y2="883.6842" gradientTransform="matrix(1 0 0 1 -307.5 -852.5)">
			<stop  offset="0.3559" style="stop-color:#DFDFDC"/>
			<stop  offset="1" style="stop-color:#F8F8F2"/>
		</linearGradient>
		<path fill="url(#SVGID_3_)" d="M125.428,146.443c-7.838,4.461-116.136-0.885-116.136-0.885l-57.155-84.874l58.98-83.987
			l116.138,0.885c0,0,57.154,72.46,57.154,84.872S133.266,141.98,125.428,146.443L125.428,146.443z"/>
		<path display="none" fill="#DB1F1F" d="M-14.328,110.484l4.691-53.668l191.959,0.291c1.005,2.286,1.572,4.116,1.572,5.349
			c0,12.413-50.629,80.024-58.467,84.487c-7.839,4.461-116.138-1.385-116.138-1.385L-14.328,110.484L-14.328,110.484z"/>
		<g>
			<path opacity="0.45" enable-background="new    " d="M127.314-22.016L11.178-22.901l-58.98,83.987l57.155,84.872
				c0,0,108.299,5.347,116.137,0.886c7.838-4.463,58.98-71.576,58.98-83.988S127.314-22.016,127.314-22.016z M124.995,145.975
				c-1.079,0.614-6.054,1.646-27.224,1.646c-32.32,0-82.326-2.369-87.869-2.639l-56.491-83.884l58.284-82.995l115.133,0.877
				c16.047,20.326,56.643,73.909,56.643,83.876C183.469,74.553,132.727,141.572,124.995,145.975z"/>
			<path opacity="0.3" enable-background="new    " d="M126.828-21.02L11.695-21.897l-58.284,82.995l56.491,83.886
				c5.543,0.268,55.549,2.637,87.869,2.637c21.17,0,26.145-1.031,27.224-1.646c7.731-4.399,58.476-71.42,58.476-83.118
				C183.469,52.889,142.875-0.694,126.828-21.02z M124.5,145.105c-0.623,0.354-4.395,1.516-26.729,1.516
				c-31.483,0-79.75-2.249-87.32-2.611l-55.827-82.9l57.587-82.003l114.128,0.87c21.832,27.683,56.129,74.335,56.129,82.88
				c0,4.789-10.019,21.536-26.146,43.706C142.338,125.787,128.063,143.078,124.5,145.105z"/>
			<path opacity="0.15" enable-background="new    " d="M126.342-20.023l-114.129-0.87L-45.375,61.11l55.827,82.9
				c7.57,0.362,55.837,2.611,87.32,2.611c22.335,0,26.105-1.16,26.729-1.516c3.563-2.027,17.838-19.318,31.823-38.543
				c16.128-22.17,26.146-38.917,26.146-43.708C182.469,54.312,148.172,7.659,126.342-20.023z M155.514,105.975
				c-15.096,20.754-28.479,36.539-31.508,38.262c-0.26,0.144-3.189,1.387-26.235,1.387c-30.623,0-76.558-2.102-86.771-2.586
				l-55.162-81.914l56.891-81.011l113.125,0.862c23.199,29.446,55.617,74.082,55.617,81.884
				C181.469,66.288,174.672,79.64,155.514,105.975z"/>
		</g>
	</g>
	<g>
		
			<ellipse transform="matrix(0.84 0.5426 -0.5426 0.84 81.2077 -74.4324)" opacity="0.05" fill="#FFFFFF" enable-background="new    " cx="166.805" cy="100.473" rx="6.983" ry="29.264"/>
		<path opacity="0.05" fill="#FFFFFF" enable-background="new    " d="M152.021,124.166c-0.191,0-0.338-0.034-0.449-0.105
			c-0.57-0.369-1.102-2.619,0.975-8.5c1.862-5.273,5.196-11.754,9.389-18.244c8.311-12.859,16.525-20.545,19.67-20.545
			c0.191,0,0.338,0.034,0.447,0.106c0.572,0.369,1.104,2.62-0.973,8.5c-1.861,5.271-5.195,11.752-9.389,18.243
			C163.385,116.48,155.168,124.166,152.021,124.166L152.021,124.166z"/>
		<path opacity="0.05" fill="#FFFFFF" enable-background="new    " d="M152.301,122.964c-0.123-0.637-0.219-2.556,1.355-7.013
			c1.832-5.192,5.125-11.583,9.268-17.996c8.135-12.591,15.711-19.507,18.403-19.983c0.123,0.637,0.218,2.556-1.356,7.012
			c-1.832,5.19-5.123,11.581-9.267,17.997C162.57,115.572,154.995,122.488,152.301,122.964z"/>
		<path opacity="0.05" fill="#FFFFFF" enable-background="new    " d="M153.492,121.156c0.133-1.008,0.473-2.553,1.271-4.814
			c1.803-5.105,5.051-11.41,9.146-17.748c7.031-10.885,13.216-16.914,16.224-18.815c-0.133,1.008-0.473,2.552-1.271,4.814
			c-1.801,5.102-5.049,11.407-9.146,17.749C162.686,113.227,156.502,119.257,153.492,121.156z"/>
	</g>
	<g>
		
			<ellipse transform="matrix(-0.9276 -0.3735 0.3735 -0.9276 299.6325 239.1592)" opacity="0.02" fill="#FFFFFF" enable-background="new    " cx="172.988" cy="90.548" rx="9.314" ry="12.715"/>
		<path opacity="0.02" fill="#FFFFFF" enable-background="new    " d="M170.885,101.707c-0.771,0-1.519-0.143-2.215-0.423
			c-4.182-1.683-5.643-7.872-3.259-13.795c1.923-4.775,5.907-8.11,9.692-8.11c0.772,0,1.52,0.142,2.217,0.423
			c1.962,0.79,3.396,2.615,4.039,5.14c0.676,2.654,0.397,5.726-0.781,8.654C178.656,98.372,174.67,101.707,170.885,101.707z"/>
		<path opacity="0.02" fill="#FFFFFF" enable-background="new    " d="M170.885,100.57c-0.627,0-1.229-0.114-1.791-0.342
			c-3.599-1.449-4.777-6.974-2.627-12.313c1.752-4.355,5.305-7.397,8.635-7.397c0.629,0,1.232,0.114,1.793,0.341
			c1.617,0.651,2.813,2.201,3.363,4.365c0.615,2.42,0.354,5.243-0.734,7.948C177.771,97.527,174.219,100.57,170.885,100.57z"/>
		<path opacity="0.02" fill="#FFFFFF" enable-background="new    " d="M170.885,99.432c-0.48,0-0.939-0.086-1.363-0.258
			c-1.381-0.556-2.369-1.934-2.783-3.881c-0.45-2.109-0.172-4.579,0.783-6.954c1.56-3.873,4.746-6.685,7.58-6.685
			c0.482,0,0.943,0.087,1.365,0.258c1.274,0.513,2.229,1.788,2.688,3.592c0.557,2.188,0.313,4.76-0.688,7.242
			C176.909,96.621,173.721,99.432,170.885,99.432z"/>
		<path opacity="0.02" fill="#FFFFFF" enable-background="new    " d="M170.885,98.294c-0.334,0-0.65-0.06-0.938-0.175
			c-1.021-0.41-1.764-1.498-2.1-3.063c-0.402-1.894-0.145-4.127,0.729-6.293c1.369-3.405,4.176-5.973,6.525-5.973
			c0.338,0,0.651,0.059,0.938,0.175c0.933,0.375,1.646,1.375,2.015,2.818c0.495,1.952,0.268,4.274-0.644,6.534
			C176.043,95.727,173.236,98.294,170.885,98.294z"/>
		<path opacity="0.02" fill="#FFFFFF" enable-background="new    " d="M170.885,97.156c-0.188,0-0.359-0.03-0.51-0.092
			c-0.65-0.262-1.164-1.08-1.414-2.246c-0.354-1.67-0.117-3.67,0.672-5.629c1.307-3.25,3.855-5.259,5.469-5.259
			c0.189,0,0.361,0.031,0.51,0.091c0.582,0.234,1.068,0.979,1.342,2.046c0.438,1.72,0.227,3.791-0.596,5.83
			C175.051,95.146,172.5,97.156,170.885,97.156z"/>
	</g>
</g>
<g id="red">
	<rect x="166.407" fill="#DE0021" width="44.593" height="65.15"/>
	<g>
		<g>
			<path opacity="0.15" enable-background="new    " d="M141.557-36.541l-0.297-0.387L1.598-37.991L-69.507,63.26l68.89,105.025
				l0.516,0.02c0.453,0.016,45.752,1.678,84.294,1.678c32.675,0,50.624-1.125,54.87-3.441C150.523,160.288,210.08,78.55,210,65.388
				C209.926,52.66,144.35-32.905,141.557-36.541z M132.531,155.314c-10.436,5.692-124.316-0.946-124.316-0.946l-61.18-90.848
				l63.136-89.901l124.315,0.947c0,0,61.111,79.609,61.182,90.85C195.734,76.655,142.967,149.625,132.531,155.314z"/>
			<path opacity="0.15" enable-background="new    " d="M140.588-37.363l-0.297-0.387L0.628-38.813L-70.478,62.438l68.891,105.025
				l0.516,0.02c0.453,0.018,45.752,1.68,84.294,1.68c32.675,0,50.623-1.126,54.871-3.443c11.461-6.252,71.018-87.99,70.938-101.152
				C208.954,51.838,143.379-33.726,140.588-37.363z M131.561,154.494c-10.434,5.693-124.314-0.947-124.314-0.947l-61.18-90.848
				L9.2-27.203l124.315,0.947c0,0,61.11,79.609,61.18,90.85C194.764,75.833,141.996,148.803,131.561,154.494z"/>
			<path opacity="0.15" enable-background="new    " d="M139.646-38.058l-0.299-0.387L-0.314-39.509L-71.42,61.742l68.891,105.025
				l0.516,0.019c0.453,0.017,45.752,1.679,84.294,1.679c32.675,0,50.624-1.126,54.87-3.443
				c11.461-6.252,71.018-87.988,70.938-101.15C208.012,51.143,142.438-34.422,139.646-38.058z M130.619,153.798
				c-10.436,5.692-124.316-0.946-124.316-0.946l-61.18-90.849L8.258-27.899l124.316,0.947c0,0,61.111,79.609,61.18,90.85
				C193.82,75.138,141.055,148.107,130.619,153.798z"/>
			<path opacity="0.15" enable-background="new    " d="M138.645-38.866l-0.297-0.387L-1.315-40.316L-72.421,60.935L-3.53,165.96
				l0.516,0.019c0.453,0.019,45.752,1.681,84.294,1.681c32.675,0,50.623-1.126,54.871-3.443
				c11.461-6.252,71.018-87.99,70.938-101.152C207.012,50.336,141.436-35.229,138.645-38.866z M129.618,152.99
				c-10.435,5.693-124.316-0.946-124.316-0.946l-61.18-90.848L7.258-28.706l124.316,0.947c0,0,61.111,79.609,61.18,90.85
				C192.82,74.33,140.053,147.3,129.618,152.99z"/>
		</g>
		<path fill="#FFFFFF" d="M135.506,162.764c-11.638,6.348-138.65,1.643-138.65,1.643L-71.379,60.382L-0.965-39.884l138.65,1.055
			c0,0,68.16,88.788,68.233,101.325C205.996,75.032,147.143,156.415,135.506,162.764L135.506,162.764z"/>
		<g>
			<path opacity="0.15" enable-background="new    " d="M132.532-27.991l-0.298-0.387L6.907-29.333l-63.833,90.894l61.841,91.83
				l0.495,0.028c0.558,0.033,56.241,3.255,92.906,3.255c18.5,0,28.952-0.795,31.946-2.429c10.284-5.606,63.729-78.966,63.657-90.783
				C193.852,52.016,135.036-24.73,132.532-27.991z M125.762,147.393c-7.838,4.461-116.137-0.886-116.137-0.886L-47.53,61.635
				l58.98-83.987l116.137,0.885c0,0,57.155,72.46,57.155,84.872C184.742,75.818,133.6,142.93,125.762,147.393z"/>
			<path opacity="0.15" enable-background="new    " d="M132.199-28.94l-0.297-0.387L6.574-30.282l-63.833,90.894l61.841,91.83
				l0.495,0.029c0.558,0.032,56.241,3.254,92.906,3.254c18.501,0,28.951-0.795,31.947-2.429
				c10.282-5.606,63.729-78.966,63.655-90.783C193.518,51.067,134.703-25.679,132.199-28.94z M125.428,146.443
				c-7.838,4.461-116.136-0.885-116.136-0.885l-57.155-84.874l58.98-83.987l116.138,0.885c0,0,57.154,72.46,57.154,84.872
				S133.266,141.98,125.428,146.443z"/>
		</g>
		
			<linearGradient id="SVGID_2_" gradientUnits="userSpaceOnUse" x1="59.8716" y1="87.5996" x2="59.8716" y2="150.0994" gradientTransform="matrix(1 0 0 -1 8.3999 150.0996)">
			<stop  offset="0" style="stop-color:#FFFFFF"/>
			<stop  offset="1" style="stop-color:#F6F6F6"/>
		</linearGradient>
		<path fill="url(#SVGID_2_)" d="M129.451,152.418c-10.436,5.693-124.316-0.947-124.316-0.947l-61.18-90.848L7.091-29.278
			l124.316,0.947c0,0,61.11,79.609,61.181,90.85C192.654,73.758,139.887,146.727,129.451,152.418L129.451,152.418z"/>
		
			<linearGradient id="SVGID_3_" gradientUnits="userSpaceOnUse" x1="314.4189" y1="975.6533" x2="406.388" y2="883.6842" gradientTransform="matrix(1 0 0 1 -307.5 -852.5)">
			<stop  offset="0.3559" style="stop-color:#DFDFDC"/>
			<stop  offset="1" style="stop-color:#F8F8F2"/>
		</linearGradient>
		<path fill="url(#SVGID_3_)" d="M125.428,146.443c-7.838,4.461-116.136-0.885-116.136-0.885l-57.155-84.874l58.98-83.987
			l116.138,0.885c0,0,57.154,72.46,57.154,84.872S133.266,141.98,125.428,146.443L125.428,146.443z"/>
		<path display="none" fill="#DB1F1F" d="M-14.328,110.484l4.691-53.668l191.959,0.291c1.005,2.286,1.572,4.116,1.572,5.349
			c0,12.413-50.629,80.024-58.467,84.487c-7.839,4.461-116.138-1.385-116.138-1.385L-14.328,110.484L-14.328,110.484z"/>
		<g>
			<path opacity="0.45" enable-background="new    " d="M127.314-22.016L11.178-22.901l-58.98,83.987l57.155,84.872
				c0,0,108.299,5.347,116.137,0.886c7.838-4.463,58.98-71.576,58.98-83.988S127.314-22.016,127.314-22.016z M124.995,145.975
				c-1.079,0.614-6.054,1.646-27.224,1.646c-32.32,0-82.326-2.369-87.869-2.639l-56.491-83.884l58.284-82.995l115.133,0.877
				c16.047,20.326,56.643,73.909,56.643,83.876C183.469,74.553,132.727,141.572,124.995,145.975z"/>
			<path opacity="0.3" enable-background="new    " d="M126.828-21.02L11.695-21.897l-58.284,82.995l56.491,83.886
				c5.543,0.268,55.549,2.637,87.869,2.637c21.17,0,26.145-1.031,27.224-1.646c7.731-4.399,58.476-71.42,58.476-83.118
				C183.469,52.889,142.875-0.694,126.828-21.02z M124.5,145.105c-0.623,0.354-4.395,1.516-26.729,1.516
				c-31.483,0-79.75-2.249-87.32-2.611l-55.827-82.9l57.587-82.003l114.128,0.87c21.832,27.683,56.129,74.335,56.129,82.88
				c0,4.789-10.019,21.536-26.146,43.706C142.338,125.787,128.063,143.078,124.5,145.105z"/>
			<path opacity="0.15" enable-background="new    " d="M126.342-20.023l-114.129-0.87L-45.375,61.11l55.827,82.9
				c7.57,0.362,55.837,2.611,87.32,2.611c22.335,0,26.105-1.16,26.729-1.516c3.563-2.027,17.838-19.318,31.823-38.543
				c16.128-22.17,26.146-38.917,26.146-43.708C182.469,54.312,148.172,7.659,126.342-20.023z M155.514,105.975
				c-15.096,20.754-28.479,36.539-31.508,38.262c-0.26,0.144-3.189,1.387-26.235,1.387c-30.623,0-76.558-2.102-86.771-2.586
				l-55.162-81.914l56.891-81.011l113.125,0.862c23.199,29.446,55.617,74.082,55.617,81.884
				C181.469,66.288,174.672,79.64,155.514,105.975z"/>
		</g>
	</g>
	<g>
		
			<ellipse transform="matrix(0.84 0.5426 -0.5426 0.84 81.2077 -74.4324)" opacity="0.05" fill="#FFFFFF" enable-background="new    " cx="166.805" cy="100.473" rx="6.983" ry="29.264"/>
		<path opacity="0.05" fill="#FFFFFF" enable-background="new    " d="M152.021,124.166c-0.191,0-0.338-0.034-0.449-0.105
			c-0.57-0.369-1.102-2.619,0.975-8.5c1.862-5.273,5.196-11.754,9.389-18.244c8.311-12.859,16.525-20.545,19.67-20.545
			c0.191,0,0.338,0.034,0.447,0.106c0.572,0.369,1.104,2.62-0.973,8.5c-1.861,5.271-5.195,11.752-9.389,18.243
			C163.385,116.48,155.168,124.166,152.021,124.166L152.021,124.166z"/>
		<path opacity="0.05" fill="#FFFFFF" enable-background="new    " d="M152.301,122.964c-0.123-0.637-0.219-2.556,1.355-7.013
			c1.832-5.192,5.125-11.583,9.268-17.996c8.135-12.591,15.711-19.507,18.403-19.983c0.123,0.637,0.218,2.556-1.356,7.012
			c-1.832,5.19-5.123,11.581-9.267,17.997C162.57,115.572,154.995,122.488,152.301,122.964z"/>
		<path opacity="0.05" fill="#FFFFFF" enable-background="new    " d="M153.492,121.156c0.133-1.008,0.473-2.553,1.271-4.814
			c1.803-5.105,5.051-11.41,9.146-17.748c7.031-10.885,13.216-16.914,16.224-18.815c-0.133,1.008-0.473,2.552-1.271,4.814
			c-1.801,5.102-5.049,11.407-9.146,17.749C162.686,113.227,156.502,119.257,153.492,121.156z"/>
	</g>
	<g>
		
			<ellipse transform="matrix(-0.9276 -0.3735 0.3735 -0.9276 299.6325 239.1592)" opacity="0.02" fill="#FFFFFF" enable-background="new    " cx="172.988" cy="90.548" rx="9.314" ry="12.715"/>
		<path opacity="0.02" fill="#FFFFFF" enable-background="new    " d="M170.885,101.707c-0.771,0-1.519-0.143-2.215-0.423
			c-4.182-1.683-5.643-7.872-3.259-13.795c1.923-4.775,5.907-8.11,9.692-8.11c0.772,0,1.52,0.142,2.217,0.423
			c1.962,0.79,3.396,2.615,4.039,5.14c0.676,2.654,0.397,5.726-0.781,8.654C178.656,98.372,174.67,101.707,170.885,101.707z"/>
		<path opacity="0.02" fill="#FFFFFF" enable-background="new    " d="M170.885,100.57c-0.627,0-1.229-0.114-1.791-0.342
			c-3.599-1.449-4.777-6.974-2.627-12.313c1.752-4.355,5.305-7.397,8.635-7.397c0.629,0,1.232,0.114,1.793,0.341
			c1.617,0.651,2.813,2.201,3.363,4.365c0.615,2.42,0.354,5.243-0.734,7.948C177.771,97.527,174.219,100.57,170.885,100.57z"/>
		<path opacity="0.02" fill="#FFFFFF" enable-background="new    " d="M170.885,99.432c-0.48,0-0.939-0.086-1.363-0.258
			c-1.381-0.556-2.369-1.934-2.783-3.881c-0.45-2.109-0.172-4.579,0.783-6.954c1.56-3.873,4.746-6.685,7.58-6.685
			c0.482,0,0.943,0.087,1.365,0.258c1.274,0.513,2.229,1.788,2.688,3.592c0.557,2.188,0.313,4.76-0.688,7.242
			C176.909,96.621,173.721,99.432,170.885,99.432z"/>
		<path opacity="0.02" fill="#FFFFFF" enable-background="new    " d="M170.885,98.294c-0.334,0-0.65-0.06-0.938-0.175
			c-1.021-0.41-1.764-1.498-2.1-3.063c-0.402-1.894-0.145-4.127,0.729-6.293c1.369-3.405,4.176-5.973,6.525-5.973
			c0.338,0,0.651,0.059,0.938,0.175c0.933,0.375,1.646,1.375,2.015,2.818c0.495,1.952,0.268,4.274-0.644,6.534
			C176.043,95.727,173.236,98.294,170.885,98.294z"/>
		<path opacity="0.02" fill="#FFFFFF" enable-background="new    " d="M170.885,97.156c-0.188,0-0.359-0.03-0.51-0.092
			c-0.65-0.262-1.164-1.08-1.414-2.246c-0.354-1.67-0.117-3.67,0.672-5.629c1.307-3.25,3.855-5.259,5.469-5.259
			c0.189,0,0.361,0.031,0.51,0.091c0.582,0.234,1.068,0.979,1.342,2.046c0.438,1.72,0.227,3.791-0.596,5.83
			C175.051,95.146,172.5,97.156,170.885,97.156z"/>
	</g>
</g>
<g id="notification_red">
	<rect x="166.407" fill="#aa0f0f" width="44.593" height="65.15"/>
	<g>
		<g>
			<path opacity="0.15" enable-background="new    " d="M141.557-36.541l-0.297-0.387L1.598-37.991L-69.507,63.26l68.89,105.025
				l0.516,0.02c0.453,0.016,45.752,1.678,84.294,1.678c32.675,0,50.624-1.125,54.87-3.441C150.523,160.288,210.08,78.55,210,65.388
				C209.926,52.66,144.35-32.905,141.557-36.541z M132.531,155.314c-10.436,5.692-124.316-0.946-124.316-0.946l-61.18-90.848
				l63.136-89.901l124.315,0.947c0,0,61.111,79.609,61.182,90.85C195.734,76.655,142.967,149.625,132.531,155.314z"/>
			<path opacity="0.15" enable-background="new    " d="M140.588-37.363l-0.297-0.387L0.628-38.813L-70.478,62.438l68.891,105.025
				l0.516,0.02c0.453,0.018,45.752,1.68,84.294,1.68c32.675,0,50.623-1.126,54.871-3.443c11.461-6.252,71.018-87.99,70.938-101.152
				C208.954,51.838,143.379-33.726,140.588-37.363z M131.561,154.494c-10.434,5.693-124.314-0.947-124.314-0.947l-61.18-90.848
				L9.2-27.203l124.315,0.947c0,0,61.11,79.609,61.18,90.85C194.764,75.833,141.996,148.803,131.561,154.494z"/>
			<path opacity="0.15" enable-background="new    " d="M139.646-38.058l-0.299-0.387L-0.314-39.509L-71.42,61.742l68.891,105.025
				l0.516,0.019c0.453,0.017,45.752,1.679,84.294,1.679c32.675,0,50.624-1.126,54.87-3.443
				c11.461-6.252,71.018-87.988,70.938-101.15C208.012,51.143,142.438-34.422,139.646-38.058z M130.619,153.798
				c-10.436,5.692-124.316-0.946-124.316-0.946l-61.18-90.849L8.258-27.899l124.316,0.947c0,0,61.111,79.609,61.18,90.85
				C193.82,75.138,141.055,148.107,130.619,153.798z"/>
			<path opacity="0.15" enable-background="new    " d="M138.645-38.866l-0.297-0.387L-1.315-40.316L-72.421,60.935L-3.53,165.96
				l0.516,0.019c0.453,0.019,45.752,1.681,84.294,1.681c32.675,0,50.623-1.126,54.871-3.443
				c11.461-6.252,71.018-87.99,70.938-101.152C207.012,50.336,141.436-35.229,138.645-38.866z M129.618,152.99
				c-10.435,5.693-124.316-0.946-124.316-0.946l-61.18-90.848L7.258-28.706l124.316,0.947c0,0,61.111,79.609,61.18,90.85
				C192.82,74.33,140.053,147.3,129.618,152.99z"/>
		</g>
		<path fill="#FFFFFF" d="M135.506,162.764c-11.638,6.348-138.65,1.643-138.65,1.643L-71.379,60.382L-0.965-39.884l138.65,1.055
			c0,0,68.16,88.788,68.233,101.325C205.996,75.032,147.143,156.415,135.506,162.764L135.506,162.764z"/>
		<g>
			<path opacity="0.15" enable-background="new    " d="M132.532-27.991l-0.298-0.387L6.907-29.333l-63.833,90.894l61.841,91.83
				l0.495,0.028c0.558,0.033,56.241,3.255,92.906,3.255c18.5,0,28.952-0.795,31.946-2.429c10.284-5.606,63.729-78.966,63.657-90.783
				C193.852,52.016,135.036-24.73,132.532-27.991z M125.762,147.393c-7.838,4.461-116.137-0.886-116.137-0.886L-47.53,61.635
				l58.98-83.987l116.137,0.885c0,0,57.155,72.46,57.155,84.872C184.742,75.818,133.6,142.93,125.762,147.393z"/>
			<path opacity="0.15" enable-background="new    " d="M132.199-28.94l-0.297-0.387L6.574-30.282l-63.833,90.894l61.841,91.83
				l0.495,0.029c0.558,0.032,56.241,3.254,92.906,3.254c18.501,0,28.951-0.795,31.947-2.429
				c10.282-5.606,63.729-78.966,63.655-90.783C193.518,51.067,134.703-25.679,132.199-28.94z M125.428,146.443
				c-7.838,4.461-116.136-0.885-116.136-0.885l-57.155-84.874l58.98-83.987l116.138,0.885c0,0,57.154,72.46,57.154,84.872
				S133.266,141.98,125.428,146.443z"/>
		</g>
		
			<linearGradient id="SVGID_2_" gradientUnits="userSpaceOnUse" x1="59.8716" y1="87.5996" x2="59.8716" y2="150.0994" gradientTransform="matrix(1 0 0 -1 8.3999 150.0996)">
			<stop  offset="0" style="stop-color:#FFFFFF"/>
			<stop  offset="1" style="stop-color:#F6F6F6"/>
		</linearGradient>
		<path fill="url(#SVGID_2_)" d="M129.451,152.418c-10.436,5.693-124.316-0.947-124.316-0.947l-61.18-90.848L7.091-29.278
			l124.316,0.947c0,0,61.11,79.609,61.181,90.85C192.654,73.758,139.887,146.727,129.451,152.418L129.451,152.418z"/>
		
			<linearGradient id="SVGID_3_" gradientUnits="userSpaceOnUse" x1="314.4189" y1="975.6533" x2="406.388" y2="883.6842" gradientTransform="matrix(1 0 0 1 -307.5 -852.5)">
			<stop  offset="0.3559" style="stop-color:#DFDFDC"/>
			<stop  offset="1" style="stop-color:#F8F8F2"/>
		</linearGradient>
		<path fill="url(#SVGID_3_)" d="M125.428,146.443c-7.838,4.461-116.136-0.885-116.136-0.885l-57.155-84.874l58.98-83.987
			l116.138,0.885c0,0,57.154,72.46,57.154,84.872S133.266,141.98,125.428,146.443L125.428,146.443z"/>
		<path display="none" fill="#DB1F1F" d="M-14.328,110.484l4.691-53.668l191.959,0.291c1.005,2.286,1.572,4.116,1.572,5.349
			c0,12.413-50.629,80.024-58.467,84.487c-7.839,4.461-116.138-1.385-116.138-1.385L-14.328,110.484L-14.328,110.484z"/>
		<g>
			<path opacity="0.45" enable-background="new    " d="M127.314-22.016L11.178-22.901l-58.98,83.987l57.155,84.872
				c0,0,108.299,5.347,116.137,0.886c7.838-4.463,58.98-71.576,58.98-83.988S127.314-22.016,127.314-22.016z M124.995,145.975
				c-1.079,0.614-6.054,1.646-27.224,1.646c-32.32,0-82.326-2.369-87.869-2.639l-56.491-83.884l58.284-82.995l115.133,0.877
				c16.047,20.326,56.643,73.909,56.643,83.876C183.469,74.553,132.727,141.572,124.995,145.975z"/>
			<path opacity="0.3" enable-background="new    " d="M126.828-21.02L11.695-21.897l-58.284,82.995l56.491,83.886
				c5.543,0.268,55.549,2.637,87.869,2.637c21.17,0,26.145-1.031,27.224-1.646c7.731-4.399,58.476-71.42,58.476-83.118
				C183.469,52.889,142.875-0.694,126.828-21.02z M124.5,145.105c-0.623,0.354-4.395,1.516-26.729,1.516
				c-31.483,0-79.75-2.249-87.32-2.611l-55.827-82.9l57.587-82.003l114.128,0.87c21.832,27.683,56.129,74.335,56.129,82.88
				c0,4.789-10.019,21.536-26.146,43.706C142.338,125.787,128.063,143.078,124.5,145.105z"/>
			<path opacity="0.15" enable-background="new    " d="M126.342-20.023l-114.129-0.87L-45.375,61.11l55.827,82.9
				c7.57,0.362,55.837,2.611,87.32,2.611c22.335,0,26.105-1.16,26.729-1.516c3.563-2.027,17.838-19.318,31.823-38.543
				c16.128-22.17,26.146-38.917,26.146-43.708C182.469,54.312,148.172,7.659,126.342-20.023z M155.514,105.975
				c-15.096,20.754-28.479,36.539-31.508,38.262c-0.26,0.144-3.189,1.387-26.235,1.387c-30.623,0-76.558-2.102-86.771-2.586
				l-55.162-81.914l56.891-81.011l113.125,0.862c23.199,29.446,55.617,74.082,55.617,81.884
				C181.469,66.288,174.672,79.64,155.514,105.975z"/>
		</g>
	</g>
	<g>
		
			<ellipse transform="matrix(0.84 0.5426 -0.5426 0.84 81.2077 -74.4324)" opacity="0.05" fill="#FFFFFF" enable-background="new    " cx="166.805" cy="100.473" rx="6.983" ry="29.264"/>
		<path opacity="0.05" fill="#FFFFFF" enable-background="new    " d="M152.021,124.166c-0.191,0-0.338-0.034-0.449-0.105
			c-0.57-0.369-1.102-2.619,0.975-8.5c1.862-5.273,5.196-11.754,9.389-18.244c8.311-12.859,16.525-20.545,19.67-20.545
			c0.191,0,0.338,0.034,0.447,0.106c0.572,0.369,1.104,2.62-0.973,8.5c-1.861,5.271-5.195,11.752-9.389,18.243
			C163.385,116.48,155.168,124.166,152.021,124.166L152.021,124.166z"/>
		<path opacity="0.05" fill="#FFFFFF" enable-background="new    " d="M152.301,122.964c-0.123-0.637-0.219-2.556,1.355-7.013
			c1.832-5.192,5.125-11.583,9.268-17.996c8.135-12.591,15.711-19.507,18.403-19.983c0.123,0.637,0.218,2.556-1.356,7.012
			c-1.832,5.19-5.123,11.581-9.267,17.997C162.57,115.572,154.995,122.488,152.301,122.964z"/>
		<path opacity="0.05" fill="#FFFFFF" enable-background="new    " d="M153.492,121.156c0.133-1.008,0.473-2.553,1.271-4.814
			c1.803-5.105,5.051-11.41,9.146-17.748c7.031-10.885,13.216-16.914,16.224-18.815c-0.133,1.008-0.473,2.552-1.271,4.814
			c-1.801,5.102-5.049,11.407-9.146,17.749C162.686,113.227,156.502,119.257,153.492,121.156z"/>
	</g>
	<g>
		
			<ellipse transform="matrix(-0.9276 -0.3735 0.3735 -0.9276 299.6325 239.1592)" opacity="0.02" fill="#FFFFFF" enable-background="new    " cx="172.988" cy="90.548" rx="9.314" ry="12.715"/>
		<path opacity="0.02" fill="#FFFFFF" enable-background="new    " d="M170.885,101.707c-0.771,0-1.519-0.143-2.215-0.423
			c-4.182-1.683-5.643-7.872-3.259-13.795c1.923-4.775,5.907-8.11,9.692-8.11c0.772,0,1.52,0.142,2.217,0.423
			c1.962,0.79,3.396,2.615,4.039,5.14c0.676,2.654,0.397,5.726-0.781,8.654C178.656,98.372,174.67,101.707,170.885,101.707z"/>
		<path opacity="0.02" fill="#FFFFFF" enable-background="new    " d="M170.885,100.57c-0.627,0-1.229-0.114-1.791-0.342
			c-3.599-1.449-4.777-6.974-2.627-12.313c1.752-4.355,5.305-7.397,8.635-7.397c0.629,0,1.232,0.114,1.793,0.341
			c1.617,0.651,2.813,2.201,3.363,4.365c0.615,2.42,0.354,5.243-0.734,7.948C177.771,97.527,174.219,100.57,170.885,100.57z"/>
		<path opacity="0.02" fill="#FFFFFF" enable-background="new    " d="M170.885,99.432c-0.48,0-0.939-0.086-1.363-0.258
			c-1.381-0.556-2.369-1.934-2.783-3.881c-0.45-2.109-0.172-4.579,0.783-6.954c1.56-3.873,4.746-6.685,7.58-6.685
			c0.482,0,0.943,0.087,1.365,0.258c1.274,0.513,2.229,1.788,2.688,3.592c0.557,2.188,0.313,4.76-0.688,7.242
			C176.909,96.621,173.721,99.432,170.885,99.432z"/>
		<path opacity="0.02" fill="#FFFFFF" enable-background="new    " d="M170.885,98.294c-0.334,0-0.65-0.06-0.938-0.175
			c-1.021-0.41-1.764-1.498-2.1-3.063c-0.402-1.894-0.145-4.127,0.729-6.293c1.369-3.405,4.176-5.973,6.525-5.973
			c0.338,0,0.651,0.059,0.938,0.175c0.933,0.375,1.646,1.375,2.015,2.818c0.495,1.952,0.268,4.274-0.644,6.534
			C176.043,95.727,173.236,98.294,170.885,98.294z"/>
		<path opacity="0.02" fill="#FFFFFF" enable-background="new    " d="M170.885,97.156c-0.188,0-0.359-0.03-0.51-0.092
			c-0.65-0.262-1.164-1.08-1.414-2.246c-0.354-1.67-0.117-3.67,0.672-5.629c1.307-3.25,3.855-5.259,5.469-5.259
			c0.189,0,0.361,0.031,0.51,0.091c0.582,0.234,1.068,0.979,1.342,2.046c0.438,1.72,0.227,3.791-0.596,5.83
			C175.051,95.146,172.5,97.156,170.885,97.156z"/>
	</g>
</g>
<g id="notification_feedback">
	<rect x="166.407" fill="#2c2c2c" width="44.593" height="65.15"/>
	<g>
		<g>
			<path opacity="0.15" enable-background="new    " d="M141.557-36.541l-0.297-0.387L1.598-37.991L-69.507,63.26l68.89,105.025
				l0.516,0.02c0.453,0.016,45.752,1.678,84.294,1.678c32.675,0,50.624-1.125,54.87-3.441C150.523,160.288,210.08,78.55,210,65.388
				C209.926,52.66,144.35-32.905,141.557-36.541z M132.531,155.314c-10.436,5.692-124.316-0.946-124.316-0.946l-61.18-90.848
				l63.136-89.901l124.315,0.947c0,0,61.111,79.609,61.182,90.85C195.734,76.655,142.967,149.625,132.531,155.314z"/>
			<path opacity="0.15" enable-background="new    " d="M140.588-37.363l-0.297-0.387L0.628-38.813L-70.478,62.438l68.891,105.025
				l0.516,0.02c0.453,0.018,45.752,1.68,84.294,1.68c32.675,0,50.623-1.126,54.871-3.443c11.461-6.252,71.018-87.99,70.938-101.152
				C208.954,51.838,143.379-33.726,140.588-37.363z M131.561,154.494c-10.434,5.693-124.314-0.947-124.314-0.947l-61.18-90.848
				L9.2-27.203l124.315,0.947c0,0,61.11,79.609,61.18,90.85C194.764,75.833,141.996,148.803,131.561,154.494z"/>
			<path opacity="0.15" enable-background="new    " d="M139.646-38.058l-0.299-0.387L-0.314-39.509L-71.42,61.742l68.891,105.025
				l0.516,0.019c0.453,0.017,45.752,1.679,84.294,1.679c32.675,0,50.624-1.126,54.87-3.443
				c11.461-6.252,71.018-87.988,70.938-101.15C208.012,51.143,142.438-34.422,139.646-38.058z M130.619,153.798
				c-10.436,5.692-124.316-0.946-124.316-0.946l-61.18-90.849L8.258-27.899l124.316,0.947c0,0,61.111,79.609,61.18,90.85
				C193.82,75.138,141.055,148.107,130.619,153.798z"/>
			<path opacity="0.15" enable-background="new    " d="M138.645-38.866l-0.297-0.387L-1.315-40.316L-72.421,60.935L-3.53,165.96
				l0.516,0.019c0.453,0.019,45.752,1.681,84.294,1.681c32.675,0,50.623-1.126,54.871-3.443
				c11.461-6.252,71.018-87.99,70.938-101.152C207.012,50.336,141.436-35.229,138.645-38.866z M129.618,152.99
				c-10.435,5.693-124.316-0.946-124.316-0.946l-61.18-90.848L7.258-28.706l124.316,0.947c0,0,61.111,79.609,61.18,90.85
				C192.82,74.33,140.053,147.3,129.618,152.99z"/>
		</g>
		<path fill="#FFFFFF" d="M135.506,162.764c-11.638,6.348-138.65,1.643-138.65,1.643L-71.379,60.382L-0.965-39.884l138.65,1.055
			c0,0,68.16,88.788,68.233,101.325C205.996,75.032,147.143,156.415,135.506,162.764L135.506,162.764z"/>
		<g>
			<path opacity="0.15" enable-background="new    " d="M132.532-27.991l-0.298-0.387L6.907-29.333l-63.833,90.894l61.841,91.83
				l0.495,0.028c0.558,0.033,56.241,3.255,92.906,3.255c18.5,0,28.952-0.795,31.946-2.429c10.284-5.606,63.729-78.966,63.657-90.783
				C193.852,52.016,135.036-24.73,132.532-27.991z M125.762,147.393c-7.838,4.461-116.137-0.886-116.137-0.886L-47.53,61.635
				l58.98-83.987l116.137,0.885c0,0,57.155,72.46,57.155,84.872C184.742,75.818,133.6,142.93,125.762,147.393z"/>
			<path opacity="0.15" enable-background="new    " d="M132.199-28.94l-0.297-0.387L6.574-30.282l-63.833,90.894l61.841,91.83
				l0.495,0.029c0.558,0.032,56.241,3.254,92.906,3.254c18.501,0,28.951-0.795,31.947-2.429
				c10.282-5.606,63.729-78.966,63.655-90.783C193.518,51.067,134.703-25.679,132.199-28.94z M125.428,146.443
				c-7.838,4.461-116.136-0.885-116.136-0.885l-57.155-84.874l58.98-83.987l116.138,0.885c0,0,57.154,72.46,57.154,84.872
				S133.266,141.98,125.428,146.443z"/>
		</g>
		
			<linearGradient id="SVGID_2_" gradientUnits="userSpaceOnUse" x1="59.8716" y1="87.5996" x2="59.8716" y2="150.0994" gradientTransform="matrix(1 0 0 -1 8.3999 150.0996)">
			<stop  offset="0" style="stop-color:#FFFFFF"/>
			<stop  offset="1" style="stop-color:#F6F6F6"/>
		</linearGradient>
		<path fill="url(#SVGID_2_)" d="M129.451,152.418c-10.436,5.693-124.316-0.947-124.316-0.947l-61.18-90.848L7.091-29.278
			l124.316,0.947c0,0,61.11,79.609,61.181,90.85C192.654,73.758,139.887,146.727,129.451,152.418L129.451,152.418z"/>
		
			<linearGradient id="SVGID_3_" gradientUnits="userSpaceOnUse" x1="314.4189" y1="975.6533" x2="406.388" y2="883.6842" gradientTransform="matrix(1 0 0 1 -307.5 -852.5)">
			<stop  offset="0.3559" style="stop-color:#DFDFDC"/>
			<stop  offset="1" style="stop-color:#F8F8F2"/>
		</linearGradient>
		<path fill="url(#SVGID_3_)" d="M125.428,146.443c-7.838,4.461-116.136-0.885-116.136-0.885l-57.155-84.874l58.98-83.987
			l116.138,0.885c0,0,57.154,72.46,57.154,84.872S133.266,141.98,125.428,146.443L125.428,146.443z"/>
		<path display="none" fill="#DB1F1F" d="M-14.328,110.484l4.691-53.668l191.959,0.291c1.005,2.286,1.572,4.116,1.572,5.349
			c0,12.413-50.629,80.024-58.467,84.487c-7.839,4.461-116.138-1.385-116.138-1.385L-14.328,110.484L-14.328,110.484z"/>
		<g>
			<path opacity="0.45" enable-background="new    " d="M127.314-22.016L11.178-22.901l-58.98,83.987l57.155,84.872
				c0,0,108.299,5.347,116.137,0.886c7.838-4.463,58.98-71.576,58.98-83.988S127.314-22.016,127.314-22.016z M124.995,145.975
				c-1.079,0.614-6.054,1.646-27.224,1.646c-32.32,0-82.326-2.369-87.869-2.639l-56.491-83.884l58.284-82.995l115.133,0.877
				c16.047,20.326,56.643,73.909,56.643,83.876C183.469,74.553,132.727,141.572,124.995,145.975z"/>
			<path opacity="0.3" enable-background="new    " d="M126.828-21.02L11.695-21.897l-58.284,82.995l56.491,83.886
				c5.543,0.268,55.549,2.637,87.869,2.637c21.17,0,26.145-1.031,27.224-1.646c7.731-4.399,58.476-71.42,58.476-83.118
				C183.469,52.889,142.875-0.694,126.828-21.02z M124.5,145.105c-0.623,0.354-4.395,1.516-26.729,1.516
				c-31.483,0-79.75-2.249-87.32-2.611l-55.827-82.9l57.587-82.003l114.128,0.87c21.832,27.683,56.129,74.335,56.129,82.88
				c0,4.789-10.019,21.536-26.146,43.706C142.338,125.787,128.063,143.078,124.5,145.105z"/>
			<path opacity="0.15" enable-background="new    " d="M126.342-20.023l-114.129-0.87L-45.375,61.11l55.827,82.9
				c7.57,0.362,55.837,2.611,87.32,2.611c22.335,0,26.105-1.16,26.729-1.516c3.563-2.027,17.838-19.318,31.823-38.543
				c16.128-22.17,26.146-38.917,26.146-43.708C182.469,54.312,148.172,7.659,126.342-20.023z M155.514,105.975
				c-15.096,20.754-28.479,36.539-31.508,38.262c-0.26,0.144-3.189,1.387-26.235,1.387c-30.623,0-76.558-2.102-86.771-2.586
				l-55.162-81.914l56.891-81.011l113.125,0.862c23.199,29.446,55.617,74.082,55.617,81.884
				C181.469,66.288,174.672,79.64,155.514,105.975z"/>
		</g>
	</g>
	<g>
		
			<ellipse transform="matrix(0.84 0.5426 -0.5426 0.84 81.2077 -74.4324)" opacity="0.05" fill="#FFFFFF" enable-background="new    " cx="166.805" cy="100.473" rx="6.983" ry="29.264"/>
		<path opacity="0.05" fill="#FFFFFF" enable-background="new    " d="M152.021,124.166c-0.191,0-0.338-0.034-0.449-0.105
			c-0.57-0.369-1.102-2.619,0.975-8.5c1.862-5.273,5.196-11.754,9.389-18.244c8.311-12.859,16.525-20.545,19.67-20.545
			c0.191,0,0.338,0.034,0.447,0.106c0.572,0.369,1.104,2.62-0.973,8.5c-1.861,5.271-5.195,11.752-9.389,18.243
			C163.385,116.48,155.168,124.166,152.021,124.166L152.021,124.166z"/>
		<path opacity="0.05" fill="#FFFFFF" enable-background="new    " d="M152.301,122.964c-0.123-0.637-0.219-2.556,1.355-7.013
			c1.832-5.192,5.125-11.583,9.268-17.996c8.135-12.591,15.711-19.507,18.403-19.983c0.123,0.637,0.218,2.556-1.356,7.012
			c-1.832,5.19-5.123,11.581-9.267,17.997C162.57,115.572,154.995,122.488,152.301,122.964z"/>
		<path opacity="0.05" fill="#FFFFFF" enable-background="new    " d="M153.492,121.156c0.133-1.008,0.473-2.553,1.271-4.814
			c1.803-5.105,5.051-11.41,9.146-17.748c7.031-10.885,13.216-16.914,16.224-18.815c-0.133,1.008-0.473,2.552-1.271,4.814
			c-1.801,5.102-5.049,11.407-9.146,17.749C162.686,113.227,156.502,119.257,153.492,121.156z"/>
	</g>
	<g>
		
			<ellipse transform="matrix(-0.9276 -0.3735 0.3735 -0.9276 299.6325 239.1592)" opacity="0.02" fill="#FFFFFF" enable-background="new    " cx="172.988" cy="90.548" rx="9.314" ry="12.715"/>
		<path opacity="0.02" fill="#FFFFFF" enable-background="new    " d="M170.885,101.707c-0.771,0-1.519-0.143-2.215-0.423
			c-4.182-1.683-5.643-7.872-3.259-13.795c1.923-4.775,5.907-8.11,9.692-8.11c0.772,0,1.52,0.142,2.217,0.423
			c1.962,0.79,3.396,2.615,4.039,5.14c0.676,2.654,0.397,5.726-0.781,8.654C178.656,98.372,174.67,101.707,170.885,101.707z"/>
		<path opacity="0.02" fill="#FFFFFF" enable-background="new    " d="M170.885,100.57c-0.627,0-1.229-0.114-1.791-0.342
			c-3.599-1.449-4.777-6.974-2.627-12.313c1.752-4.355,5.305-7.397,8.635-7.397c0.629,0,1.232,0.114,1.793,0.341
			c1.617,0.651,2.813,2.201,3.363,4.365c0.615,2.42,0.354,5.243-0.734,7.948C177.771,97.527,174.219,100.57,170.885,100.57z"/>
		<path opacity="0.02" fill="#FFFFFF" enable-background="new    " d="M170.885,99.432c-0.48,0-0.939-0.086-1.363-0.258
			c-1.381-0.556-2.369-1.934-2.783-3.881c-0.45-2.109-0.172-4.579,0.783-6.954c1.56-3.873,4.746-6.685,7.58-6.685
			c0.482,0,0.943,0.087,1.365,0.258c1.274,0.513,2.229,1.788,2.688,3.592c0.557,2.188,0.313,4.76-0.688,7.242
			C176.909,96.621,173.721,99.432,170.885,99.432z"/>
		<path opacity="0.02" fill="#FFFFFF" enable-background="new    " d="M170.885,98.294c-0.334,0-0.65-0.06-0.938-0.175
			c-1.021-0.41-1.764-1.498-2.1-3.063c-0.402-1.894-0.145-4.127,0.729-6.293c1.369-3.405,4.176-5.973,6.525-5.973
			c0.338,0,0.651,0.059,0.938,0.175c0.933,0.375,1.646,1.375,2.015,2.818c0.495,1.952,0.268,4.274-0.644,6.534
			C176.043,95.727,173.236,98.294,170.885,98.294z"/>
		<path opacity="0.02" fill="#FFFFFF" enable-background="new    " d="M170.885,97.156c-0.188,0-0.359-0.03-0.51-0.092
			c-0.65-0.262-1.164-1.08-1.414-2.246c-0.354-1.67-0.117-3.67,0.672-5.629c1.307-3.25,3.855-5.259,5.469-5.259
			c0.189,0,0.361,0.031,0.51,0.091c0.582,0.234,1.068,0.979,1.342,2.046c0.438,1.72,0.227,3.791-0.596,5.83
			C175.051,95.146,172.5,97.156,170.885,97.156z"/>
	</g>
</g>
<g id="normal">
	<rect x="166" y="2" opacity="0.05" enable-background="new    " width="45" height="62.5"/>
	<rect x="166" y="1" opacity="0.05" enable-background="new    " width="45" height="62.5"/>
	
		<linearGradient id="SVGID_1_" gradientUnits="userSpaceOnUse" x1="180.1006" y1="87.6006" x2="180.1006" y2="150.101" gradientTransform="matrix(1 0 0 -1 8.3999 150.0996)">
		<stop  offset="0" style="stop-color:#FFFFFF"/>
		<stop  offset="1" style="stop-color:#F6F6F6"/>
	</linearGradient>
	<rect x="166" fill="url(#SVGID_1_)" width="45" height="66"/>
	<g>
		<g>
			<path opacity="0.15" enable-background="new    " d="M141.557-36.541l-0.297-0.387L1.598-37.991L-69.507,63.26l68.89,105.025
				l0.516,0.02c0.453,0.016,45.752,1.678,84.294,1.678c32.675,0,50.624-1.125,54.87-3.441C150.523,160.288,210.08,78.55,210,65.388
				C209.926,52.66,144.35-32.905,141.557-36.541z M132.531,155.314c-10.436,5.692-124.316-0.946-124.316-0.946l-61.18-90.848
				l63.136-89.901l124.315,0.947c0,0,61.111,79.609,61.182,90.85C195.734,76.655,142.967,149.625,132.531,155.314z"/>
			<path opacity="0.15" enable-background="new    " d="M140.588-37.363l-0.297-0.387L0.628-38.813L-70.478,62.438l68.891,105.025
				l0.516,0.02c0.453,0.018,45.752,1.68,84.294,1.68c32.675,0,50.623-1.126,54.871-3.443c11.461-6.252,71.018-87.99,70.938-101.152
				C208.954,51.838,143.379-33.726,140.588-37.363z M131.561,154.494c-10.434,5.693-124.314-0.947-124.314-0.947l-61.18-90.848
				L9.2-27.203l124.315,0.947c0,0,61.11,79.609,61.18,90.85C194.764,75.833,141.996,148.803,131.561,154.494z"/>
			<path opacity="0.15" enable-background="new    " d="M139.646-38.058l-0.299-0.387L-0.314-39.509L-71.42,61.742l68.891,105.025
				l0.516,0.019c0.453,0.017,45.752,1.679,84.294,1.679c32.675,0,50.624-1.126,54.87-3.443
				c11.461-6.252,71.018-87.988,70.938-101.15C208.012,51.143,142.438-34.422,139.646-38.058z M130.619,153.798
				c-10.436,5.692-124.316-0.946-124.316-0.946l-61.18-90.849L8.258-27.899l124.316,0.947c0,0,61.111,79.609,61.18,90.85
				C193.82,75.138,141.055,148.107,130.619,153.798z"/>
			<path opacity="0.15" enable-background="new    " d="M138.645-38.866l-0.297-0.387L-1.315-40.316L-72.421,60.935L-3.53,165.96
				l0.516,0.019c0.453,0.019,45.752,1.681,84.294,1.681c32.675,0,50.623-1.126,54.871-3.443
				c11.461-6.252,71.018-87.99,70.938-101.152C207.012,50.336,141.436-35.229,138.645-38.866z M129.618,152.99
				c-10.435,5.693-124.316-0.946-124.316-0.946l-61.18-90.848L7.258-28.706l124.316,0.947c0,0,61.111,79.609,61.18,90.85
				C192.82,74.33,140.053,147.3,129.618,152.99z"/>
		</g>
		<path fill="#FFFFFF" d="M135.506,162.764c-11.638,6.348-138.65,1.643-138.65,1.643L-71.379,60.382L-0.965-39.884l138.65,1.055
			c0,0,68.16,88.788,68.233,101.325C205.996,75.032,147.143,156.415,135.506,162.764L135.506,162.764z"/>
		<g>
			<path opacity="0.15" enable-background="new    " d="M132.532-27.991l-0.298-0.387L6.907-29.333l-63.833,90.894l61.841,91.83
				l0.495,0.028c0.558,0.033,56.241,3.255,92.906,3.255c18.5,0,28.952-0.795,31.946-2.429c10.284-5.606,63.729-78.966,63.657-90.783
				C193.852,52.016,135.036-24.73,132.532-27.991z M125.762,147.393c-7.838,4.461-116.137-0.886-116.137-0.886L-47.53,61.635
				l58.98-83.987l116.137,0.885c0,0,57.155,72.46,57.155,84.872C184.742,75.818,133.6,142.93,125.762,147.393z"/>
			<path opacity="0.15" enable-background="new    " d="M132.199-28.94l-0.297-0.387L6.574-30.282l-63.833,90.894l61.841,91.83
				l0.495,0.029c0.558,0.032,56.241,3.254,92.906,3.254c18.501,0,28.951-0.795,31.947-2.429
				c10.282-5.606,63.729-78.966,63.655-90.783C193.518,51.067,134.703-25.679,132.199-28.94z M125.428,146.443
				c-7.838,4.461-116.136-0.885-116.136-0.885l-57.155-84.874l58.98-83.987l116.138,0.885c0,0,57.154,72.46,57.154,84.872
				S133.266,141.98,125.428,146.443z"/>
		</g>
		
			<linearGradient id="SVGID_2_" gradientUnits="userSpaceOnUse" x1="59.8716" y1="87.5996" x2="59.8716" y2="150.0994" gradientTransform="matrix(1 0 0 -1 8.3999 150.0996)">
			<stop  offset="0" style="stop-color:#FFFFFF"/>
			<stop  offset="1" style="stop-color:#F6F6F6"/>
		</linearGradient>
		<path fill="url(#SVGID_2_)" d="M129.451,152.418c-10.436,5.693-124.316-0.947-124.316-0.947l-61.18-90.848L7.091-29.278
			l124.316,0.947c0,0,61.11,79.609,61.181,90.85C192.654,73.758,139.887,146.727,129.451,152.418L129.451,152.418z"/>
		
			<linearGradient id="SVGID_3_" gradientUnits="userSpaceOnUse" x1="314.4189" y1="975.6533" x2="406.388" y2="883.6842" gradientTransform="matrix(1 0 0 1 -307.5 -852.5)">
			<stop  offset="0.3559" style="stop-color:#DFDFDC"/>
			<stop  offset="1" style="stop-color:#F8F8F2"/>
		</linearGradient>
		<path fill="url(#SVGID_3_)" d="M125.428,146.443c-7.838,4.461-116.136-0.885-116.136-0.885l-57.155-84.874l58.98-83.987
			l116.138,0.885c0,0,57.154,72.46,57.154,84.872S133.266,141.98,125.428,146.443L125.428,146.443z"/>
		<path display="none" fill="#DB1F1F" d="M-14.328,110.484l4.691-53.668l191.959,0.291c1.005,2.286,1.572,4.116,1.572,5.349
			c0,12.413-50.629,80.024-58.467,84.487c-7.839,4.461-116.138-1.385-116.138-1.385L-14.328,110.484L-14.328,110.484z"/>
		<g>
			<path opacity="0.45" enable-background="new    " d="M127.314-22.016L11.178-22.901l-58.98,83.987l57.155,84.872
				c0,0,108.299,5.347,116.137,0.886c7.838-4.463,58.98-71.576,58.98-83.988S127.314-22.016,127.314-22.016z M124.995,145.975
				c-1.079,0.614-6.054,1.646-27.224,1.646c-32.32,0-82.326-2.369-87.869-2.639l-56.491-83.884l58.284-82.995l115.133,0.877
				c16.047,20.326,56.643,73.909,56.643,83.876C183.469,74.553,132.727,141.572,124.995,145.975z"/>
			<path opacity="0.3" enable-background="new    " d="M126.828-21.02L11.695-21.897l-58.284,82.995l56.491,83.886
				c5.543,0.268,55.549,2.637,87.869,2.637c21.17,0,26.145-1.031,27.224-1.646c7.731-4.399,58.476-71.42,58.476-83.118
				C183.469,52.889,142.875-0.694,126.828-21.02z M124.5,145.105c-0.623,0.354-4.395,1.516-26.729,1.516
				c-31.483,0-79.75-2.249-87.32-2.611l-55.827-82.9l57.587-82.003l114.128,0.87c21.832,27.683,56.129,74.335,56.129,82.88
				c0,4.789-10.019,21.536-26.146,43.706C142.338,125.787,128.063,143.078,124.5,145.105z"/>
			<path opacity="0.15" enable-background="new    " d="M126.342-20.023l-114.129-0.87L-45.375,61.11l55.827,82.9
				c7.57,0.362,55.837,2.611,87.32,2.611c22.335,0,26.105-1.16,26.729-1.516c3.563-2.027,17.838-19.318,31.823-38.543
				c16.128-22.17,26.146-38.917,26.146-43.708C182.469,54.312,148.172,7.659,126.342-20.023z M155.514,105.975
				c-15.096,20.754-28.479,36.539-31.508,38.262c-0.26,0.144-3.189,1.387-26.235,1.387c-30.623,0-76.558-2.102-86.771-2.586
				l-55.162-81.914l56.891-81.011l113.125,0.862c23.199,29.446,55.617,74.082,55.617,81.884
				C181.469,66.288,174.672,79.64,155.514,105.975z"/>
		</g>
	</g>
	<g>
		
			<ellipse transform="matrix(0.84 0.5426 -0.5426 0.84 81.2077 -74.4324)" opacity="0.05" fill="#FFFFFF" enable-background="new    " cx="166.805" cy="100.473" rx="6.983" ry="29.264"/>
		<path opacity="0.05" fill="#FFFFFF" enable-background="new    " d="M152.021,124.166c-0.191,0-0.338-0.034-0.449-0.105
			c-0.57-0.369-1.102-2.619,0.975-8.5c1.862-5.273,5.196-11.754,9.389-18.244c8.311-12.859,16.525-20.545,19.67-20.545
			c0.191,0,0.338,0.034,0.447,0.106c0.572,0.369,1.104,2.62-0.973,8.5c-1.861,5.271-5.195,11.752-9.389,18.243
			C163.385,116.48,155.168,124.166,152.021,124.166L152.021,124.166z"/>
		<path opacity="0.05" fill="#FFFFFF" enable-background="new    " d="M152.301,122.964c-0.123-0.637-0.219-2.556,1.355-7.013
			c1.832-5.192,5.125-11.583,9.268-17.996c8.135-12.591,15.711-19.507,18.403-19.983c0.123,0.637,0.218,2.556-1.356,7.012
			c-1.832,5.19-5.123,11.581-9.267,17.997C162.57,115.572,154.995,122.488,152.301,122.964z"/>
		<path opacity="0.05" fill="#FFFFFF" enable-background="new    " d="M153.492,121.156c0.133-1.008,0.473-2.553,1.271-4.814
			c1.803-5.105,5.051-11.41,9.146-17.748c7.031-10.885,13.216-16.914,16.224-18.815c-0.133,1.008-0.473,2.552-1.271,4.814
			c-1.801,5.102-5.049,11.407-9.146,17.749C162.686,113.227,156.502,119.257,153.492,121.156z"/>
	</g>
	<g>
		
			<ellipse transform="matrix(-0.9276 -0.3735 0.3735 -0.9276 299.6325 239.1592)" opacity="0.02" fill="#FFFFFF" enable-background="new    " cx="172.988" cy="90.548" rx="9.314" ry="12.715"/>
		<path opacity="0.02" fill="#FFFFFF" enable-background="new    " d="M170.885,101.707c-0.771,0-1.519-0.143-2.215-0.423
			c-4.182-1.683-5.643-7.872-3.259-13.795c1.923-4.775,5.907-8.11,9.692-8.11c0.772,0,1.52,0.142,2.217,0.423
			c1.962,0.79,3.396,2.615,4.039,5.14c0.676,2.654,0.397,5.726-0.781,8.654C178.656,98.372,174.67,101.707,170.885,101.707z"/>
		<path opacity="0.02" fill="#FFFFFF" enable-background="new    " d="M170.885,100.57c-0.627,0-1.229-0.114-1.791-0.342
			c-3.599-1.449-4.777-6.974-2.627-12.313c1.752-4.355,5.305-7.397,8.635-7.397c0.629,0,1.232,0.114,1.793,0.341
			c1.617,0.651,2.813,2.201,3.363,4.365c0.615,2.42,0.354,5.243-0.734,7.948C177.771,97.527,174.219,100.57,170.885,100.57z"/>
		<path opacity="0.02" fill="#FFFFFF" enable-background="new    " d="M170.885,99.432c-0.48,0-0.939-0.086-1.363-0.258
			c-1.381-0.556-2.369-1.934-2.783-3.881c-0.45-2.109-0.172-4.579,0.783-6.954c1.56-3.873,4.746-6.685,7.58-6.685
			c0.482,0,0.943,0.087,1.365,0.258c1.274,0.513,2.229,1.788,2.688,3.592c0.557,2.188,0.313,4.76-0.688,7.242
			C176.909,96.621,173.721,99.432,170.885,99.432z"/>
		<path opacity="0.02" fill="#FFFFFF" enable-background="new    " d="M170.885,98.294c-0.334,0-0.65-0.06-0.938-0.175
			c-1.021-0.41-1.764-1.498-2.1-3.063c-0.402-1.894-0.145-4.127,0.729-6.293c1.369-3.405,4.176-5.973,6.525-5.973
			c0.338,0,0.651,0.059,0.938,0.175c0.933,0.375,1.646,1.375,2.015,2.818c0.495,1.952,0.268,4.274-0.644,6.534
			C176.043,95.727,173.236,98.294,170.885,98.294z"/>
		<path opacity="0.02" fill="#FFFFFF" enable-background="new    " d="M170.885,97.156c-0.188,0-0.359-0.03-0.51-0.092
			c-0.65-0.262-1.164-1.08-1.414-2.246c-0.354-1.67-0.117-3.67,0.672-5.629c1.307-3.25,3.855-5.259,5.469-5.259
			c0.189,0,0.361,0.031,0.51,0.091c0.582,0.234,1.068,0.979,1.342,2.046c0.438,1.72,0.227,3.791-0.596,5.83
			C175.051,95.146,172.5,97.156,170.885,97.156z"/>
	</g>
</g>
</svg>
