<?xml version="1.0" encoding="utf-8"?>
<!-- Generator: Adobe Illustrator 16.0.2, SVG Export Plug-In . SVG Version: 6.00 Build 0)  -->
<!DOCTYPE svg PUBLIC "-//W3C//DTD SVG 1.1//EN" "http://www.w3.org/Graphics/SVG/1.1/DTD/svg11.dtd">
<svg version="1.1" id="Layer_1" xmlns="http://www.w3.org/2000/svg" xmlns:xlink="http://www.w3.org/1999/xlink" x="0px" y="0px"
	 width="144px" height="84px" viewBox="0 0 144 84" enable-background="new 0 0 144 84" xml:space="preserve">
<path opacity="0.05" enable-background="new    " d="M138.4,80.7C131.8,84.1-0.2,82.3-0.2,82.3l-68.2-104L2-122l138.6,1.1
	c0,0,68.2,88.8,68.2,101.3C208.9-7,150,74.4,138.4,80.7L138.4,80.7z M-15,0v-63h825V0H-15L-15,0z"/>
<path opacity="0.05" enable-background="new    " d="M138.2,80.2C131.6,83.6-0.4,81.8-0.4,81.8l-68.2-104L1.8-122.5l138.601,1.1
	c0,0,68.199,88.8,68.199,101.3C208.7-7.5,149.8,73.9,138.2,80.2L138.2,80.2z M-15.2,0v-63h825.001V0H-15.2L-15.2,0z"/>
<path opacity="0.05" enable-background="new    " d="M137.9,79.2C131.3,82.6-0.7,80.8-0.7,80.8L-69-23.2L1.4-123.5l138.6,1.1
	c0,0,68.2,88.8,68.2,101.3C208.4-8.5,149.6,72.9,137.9,79.2L137.9,79.2z M-15.5,0v-63h825V0H-15.5L-15.5,0z"/>
<path opacity="0.05" enable-background="new    " d="M137.6,78.2C131,81.6-1,79.8-1,79.8l-68.2-104L1.2-124.5l138.6,1.1
	c0,0,68.2,88.8,68.2,101.3C208.1-9.5,149.2,71.9,137.6,78.2L137.6,78.2z M-15.8,0v-63h824.999V0H-15.8L-15.8,0z"/>
<linearGradient id="SVGID_1_" gradientUnits="userSpaceOnUse" x1="-119.7993" y1="-2205.79" x2="758.6006" y2="-2205.79" gradientTransform="matrix(1 0 0 -1 50.3994 -2228.4023)">
	<stop  offset="0" style="stop-color:#FFFFFF"/>
	<stop  offset="1" style="stop-color:#F6F6F6"/>
</linearGradient>
<path fill="url(#SVGID_1_)" d="M137.4,77.7C130.8,81.1-1.2,79.3-1.2,79.3l-68.2-104L1-125l138.6,1.1c0,0,68.2,88.8,68.2,101.3
	C207.9-10,149,71.4,137.4,77.7L137.4,77.7z M-16,61V-2h825v63H-16L-16,61z"/>
</svg>
