<?xml version="1.0" encoding="utf-8"?>
<!-- Generator: Adobe Illustrator 17.1.0, SVG Export Plug-In . SVG Version: 6.00 Build 0)  -->
<!DOCTYPE svg PUBLIC "-//W3C//DTD SVG 1.1//EN" "http://www.w3.org/Graphics/SVG/1.1/DTD/svg11.dtd">
<svg version="1.1" id="r2c_e" xmlns="http://www.w3.org/2000/svg" xmlns:xlink="http://www.w3.org/1999/xlink" x="0px" y="0px"
	 width="1600px" height="480px" viewBox="0 0 1600 480" enable-background="new 0 0 1600 480" xml:space="preserve">
<linearGradient id="patch_1_" gradientUnits="userSpaceOnUse" x1="1063.063" y1="480.499" x2="1063.063" y2="245.7656">
	<stop  offset="0" style="stop-color:#181410"/>
	<stop  offset="1" style="stop-color:#383630"/>
</linearGradient>
<path id="patch" fill="url(#patch_1_)" d="M1066.218,389.132c-4.505-2.964-9.014-5.922-13.523-8.881
	c-17.425-11.434-35.444-23.257-52.945-35.213c-11.782-8.048-22.258-15.502-32.027-22.789c-9.152-6.827-19.787-15.034-29.264-24.135
	c-4.96-4.762-8.59-9.013-11.424-13.378c-2.735-4.213-5.535-10.364-3.339-15.747c1.582-3.876,5.417-7.328,11.396-10.261
	c5.933-2.909,12.3-4.76,17.183-6.047c9.516-2.508,19.922-4.488,33.742-6.421l-0.069-0.495h-3.532
	c-12.114,1.769-21.649,3.629-30.531,5.949c-4.973,1.298-11.464,3.167-17.577,6.114c-6.309,3.041-10.43,6.664-12.248,10.77
	c-2.027,4.575-1.042,10.341,2.849,16.672c2.721,4.431,6.248,8.739,11.099,13.559c9.196,9.137,19.575,17.369,28.517,24.217
	c9.519,7.29,19.745,14.753,31.265,22.814c17.078,11.951,34.673,23.767,51.688,35.193c4.42,2.969,8.841,5.938,13.257,8.911
	l130.745,88.04l3.704,2.494h9.911L1066.218,389.132z"/>
<linearGradient id="road_1_" gradientUnits="userSpaceOnUse" x1="1149.5815" y1="479.999" x2="1149.5815" y2="245.7656">
	<stop  offset="0" style="stop-color:#181410"/>
	<stop  offset="1" style="stop-color:#383630"/>
</linearGradient>
<path id="road" fill="url(#road_1_)" d="M1305.153,446.575c-23.965-11.117-47.93-22.235-71.895-33.353
	c-24.019-11.142-48.038-22.285-72.057-33.427c-23.973-11.121-47.955-22.223-71.824-33.567
	c-23.752-11.288-47.398-22.837-70.591-35.241c-11.269-6.027-22.483-12.304-33.1-19.431c-4.793-3.218-9.499-6.646-13.791-10.516
	c-3.251-2.932-6.599-6.383-8.094-10.589c-4.014-11.294,12.729-16.398,20.558-18.652c9.641-2.776,19.543-4.573,29.474-6.033h-27.887
	c-11.382,1.588-22.753,3.516-33.868,6.432c-5.923,1.554-11.861,3.398-17.381,6.081c-4.612,2.242-9.736,5.617-11.824,10.522
	c-2.315,5.44,0.161,11.556,3.1,16.208c3.136,4.963,7.071,9.373,11.261,13.465c8.977,8.767,18.89,16.618,28.89,24.175
	c10.372,7.839,20.953,15.409,31.646,22.802c21.697,15.001,43.749,29.485,65.707,44.099c22.05,14.675,44.099,29.35,66.149,44.025
	c22.044,14.672,44.088,29.343,66.133,44.014c1.207,0.803,2.413,1.606,3.62,2.409c26.447,0,171.522,0,177.822,0
	C1353.186,468.858,1329.169,457.716,1305.153,446.575z"/>
<linearGradient id="edge_1_" gradientUnits="userSpaceOnUse" x1="1184.3506" y1="479.999" x2="1184.3506" y2="245.7656">
	<stop  offset="0" style="stop-color:#181410"/>
	<stop  offset="1" style="stop-color:#383630"/>
</linearGradient>
<path id="edge" fill="url(#edge_1_)" d="M1405.511,479.999c-25.187-11.141-50.375-22.283-75.562-33.424
	c-25.134-11.117-50.267-22.235-75.401-33.353c-25.19-11.142-50.38-22.285-75.57-33.427c-25.142-11.121-50.29-22.223-75.352-33.567
	c-24.938-11.288-49.799-22.837-74.295-35.241c-11.902-6.027-23.776-12.304-35.142-19.431c-5.131-3.218-10.198-6.646-14.896-10.516
	c-3.559-2.932-7.27-6.383-9.207-10.589c-5.201-11.294,11.006-16.398,18.597-18.652c9.349-2.776,19.062-4.573,28.84-6.033h-3.691
	c-9.931,1.46-19.833,3.256-29.474,6.033c-7.829,2.254-24.572,7.358-20.558,18.652c1.495,4.206,4.843,7.657,8.094,10.589
	c4.292,3.87,8.998,7.298,13.791,10.516c10.617,7.128,21.831,13.404,33.1,19.431c23.192,12.404,46.839,23.953,70.591,35.241
	c23.869,11.344,47.851,22.446,71.824,33.567c24.019,11.142,48.038,22.285,72.057,33.427c23.965,11.118,47.93,22.235,71.895,33.353
	c24.016,11.141,48.033,22.282,72.049,33.424H1405.511z"/>
<g id="line">
	<path fill="#FFFFFF" stroke="#FFFFFF" stroke-width="0.2" stroke-miterlimit="10" d="M1003.189,350.372
		c17.15,11.875,34.482,23.491,51.797,35.128h4.79c-17.721-11.637-35.459-23.252-53.023-35.128H1003.189z"/>
	<path fill="#FFFFFF" stroke="#FFFFFF" stroke-width="0.2" stroke-miterlimit="10" d="M938.322,298.672h-1.758
		c4.266,4.225,8.753,8.238,13.363,12.109h2.181C947.362,306.91,942.736,302.897,938.322,298.672z"/>
	<path fill="#FFFFFF" stroke="#FFFFFF" stroke-width="0.2" stroke-miterlimit="10" d="M922.578,275.372h-0.945
		c0.259,2.162,0.97,4.298,1.897,6.293h1.165C923.698,279.671,922.912,277.535,922.578,275.372z"/>
	<path fill="#FFFFFF" stroke="#FFFFFF" stroke-width="0.2" stroke-miterlimit="10" d="M928.505,262.209h-0.485
		c-1.448,1.121-2.771,2.385-3.844,3.81h0.619C925.818,264.595,927.097,263.33,928.505,262.209z"/>
	<path fill="#FFFFFF" stroke="#FFFFFF" stroke-width="0.2" stroke-miterlimit="10" d="M947.372,253.536h-0.183
		c-2.505,0.74-4.991,1.562-7.43,2.5h0.27C942.436,255.098,944.893,254.275,947.372,253.536z"/>
	<path fill="#FFFFFF" stroke="#FFFFFF" stroke-width="0.2" stroke-miterlimit="10" d="M974.071,247.583h-0.038
		c-3.109,0.521-6.211,1.081-9.302,1.701h0.063C967.874,248.665,970.969,248.105,974.071,247.583z"/>
	<path fill="#FFFFFF" stroke="#FFFFFF" stroke-width="0.2" stroke-miterlimit="10" d="M1013.834,245.766
		c-9.957,1.46-19.846,3.256-29.535,6.033c-7.868,2.254-24.7,7.358-20.883,18.652c1.421,4.206,4.709,7.657,7.909,10.589
		c4.224,3.87,8.871,7.298,13.607,10.516c10.492,7.128,21.597,13.404,32.761,19.431c22.976,12.404,46.421,23.953,69.976,35.241
		c23.671,11.344,47.459,22.446,71.238,33.567c23.824,11.142,47.649,22.285,71.473,33.427c23.771,11.118,47.542,22.235,71.313,33.353
		c23.822,11.141,47.644,22.282,71.465,33.424h8.089c-24.211-11.141-48.422-22.283-72.632-33.424
		c-24.159-11.117-48.318-22.235-72.478-33.353c-24.213-11.142-48.427-22.285-72.64-33.427
		c-24.167-11.121-48.342-22.223-72.41-33.567c-23.949-11.288-47.797-22.837-71.206-35.241
		c-11.374-6.027-22.698-12.304-33.439-19.431c-4.849-3.218-9.615-6.646-13.975-10.516c-3.302-2.932-6.71-6.383-8.279-10.589
		c-4.211-11.294,12.443-16.398,20.232-18.652C994.013,249.022,1003.928,247.226,1013.834,245.766"/>
</g>
</svg>
