<?xml version="1.0" encoding="utf-8"?>
<!-- Generator: Adobe Illustrator 17.1.0, SVG Export Plug-In . SVG Version: 6.00 Build 0)  -->
<!DOCTYPE svg PUBLIC "-//W3C//DTD SVG 1.1//EN" "http://www.w3.org/Graphics/SVG/1.1/DTD/svg11.dtd">
<svg version="1.1" id="highlight_l1s_center" xmlns="http://www.w3.org/2000/svg" xmlns:xlink="http://www.w3.org/1999/xlink"
	 x="0px" y="0px" width="1600px" height="480px" viewBox="0 0 1600 480" enable-background="new 0 0 1600 480" xml:space="preserve"
	>
<g id="shadow" opacity="0.4">
	<path stroke="#000000" stroke-width="0.2" stroke-miterlimit="10" d="M749.237,283.111l-21.537,7.425
		c-0.32,0.11-0.241,0.584,0.098,0.584h32.371c0.295,0,0.413-0.381,0.17-0.547l-10.834-7.425
		C749.426,283.093,749.327,283.08,749.237,283.111z"/>
	<path stroke="#000000" stroke-width="0.2" stroke-miterlimit="10" d="M738.971,289.806
		c-51.32,64.731-102.64,129.462-153.96,194.193c13.03,0,26.059,0,39.089,0c41.989-64.731,83.978-129.462,125.967-194.193H738.971z"
		/>
</g>
<path fill="#FFFFFF" stroke="#FFFFFF" stroke-width="0.2" stroke-miterlimit="10" d="M749.237,279.111l-21.537,7.425
	c-0.32,0.11-0.241,0.584,0.098,0.584h32.371c0.295,0,0.413-0.381,0.17-0.547l-10.834-7.425
	C749.426,279.093,749.327,279.08,749.237,279.111z"/>
<path fill="#FFFFFF" stroke="#FFFFFF" stroke-width="0.2" stroke-miterlimit="10" d="M738.971,285.806
	c-51.32,64.731-102.64,129.462-153.96,194.193c13.03,0,26.059,0,39.089,0c41.989-64.731,83.978-129.462,125.967-194.193H738.971z"/>
</svg>
