<?xml version="1.0" encoding="utf-8"?>
<!-- Generator: Adobe Illustrator 17.1.0, SVG Export Plug-In . SVG Version: 6.00 Build 0)  -->
<!DOCTYPE svg PUBLIC "-//W3C//DTD SVG 1.1//EN" "http://www.w3.org/Graphics/SVG/1.1/DTD/svg11.dtd">
<svg version="1.1" id="highlight_l2s_center" xmlns="http://www.w3.org/2000/svg" xmlns:xlink="http://www.w3.org/1999/xlink"
	 x="0px" y="0px" width="1600px" height="480px" viewBox="0 0 1600 480" enable-background="new 0 0 1600 480" xml:space="preserve"
	>
<g id="patch" opacity="0.4">
	<path stroke="#000000" stroke-width="0.2" stroke-miterlimit="10" d="M698.56,283.116l-26.848,7.414
		c-0.337,0.093-0.27,0.589,0.08,0.589h32.322c0.246,0,0.388-0.28,0.241-0.478l-5.474-7.414
		C698.808,283.127,698.68,283.083,698.56,283.116z"/>
	<path stroke="#000000" stroke-width="0.2" stroke-miterlimit="10" d="M389.566,483.999c13.03,0,26.059,0,39.089,0
		c88.643-64.731,177.287-129.462,265.93-194.193h-11.096C585.515,354.537,487.54,419.268,389.566,483.999z"/>
</g>
<path fill="#FFFFFF" stroke="#FFFFFF" stroke-width="0.2" stroke-miterlimit="10" d="M698.56,279.116l-26.848,7.414
	c-0.337,0.093-0.27,0.589,0.08,0.589h32.322c0.246,0,0.388-0.28,0.241-0.478l-5.474-7.414
	C698.808,279.127,698.68,279.083,698.56,279.116z"/>
<path fill="#FFFFFF" stroke="#FFFFFF" stroke-width="0.2" stroke-miterlimit="10" d="M389.566,479.999c13.03,0,26.059,0,39.089,0
	c88.643-64.731,177.287-129.462,265.93-194.193h-11.096C585.515,350.537,487.54,415.268,389.566,479.999z"/>
</svg>
