<?xml version="1.0" encoding="utf-8"?>
<!-- Generator: Adobe Illustrator 17.1.0, SVG Export Plug-In . SVG Version: 6.00 Build 0)  -->
<!DOCTYPE svg PUBLIC "-//W3C//DTD SVG 1.1//EN" "http://www.w3.org/Graphics/SVG/1.1/DTD/svg11.dtd">
<svg version="1.1" id="r2c_center_e" xmlns="http://www.w3.org/2000/svg" xmlns:xlink="http://www.w3.org/1999/xlink" x="0px"
	 y="0px" width="1600px" height="480px" viewBox="0 0 1600 480" enable-background="new 0 0 1600 480" xml:space="preserve">
<linearGradient id="patch_1_" gradientUnits="userSpaceOnUse" x1="1028.5502" y1="480.499" x2="1028.5502" y2="245.7656">
	<stop  offset="0" style="stop-color:#181410"/>
	<stop  offset="1" style="stop-color:#383630"/>
</linearGradient>
<path id="patch" fill="url(#patch_1_)" d="M1097.798,471.196c-22.392-21.851-40.392-39.789-56.648-56.454
	c-17.528-17.966-36.135-37.46-53.446-58.266c-7.355-8.837-15.841-19.418-23.007-30.885c-6.378-10.205-12.289-21.2-12.348-32.462
	c-0.028-5.504,1.481-10.571,4.366-14.651c2.743-3.882,6.86-7.44,12.237-10.578c5.459-3.186,11.318-5.396,15.813-6.965
	c5.544-1.936,11.48-3.64,18.147-5.209c16.533-3.89,34.405-6.808,57.954-9.463c0.004,0,0.011-0.001,0.015-0.001l-0.056-0.497h-4.388
	c-21.47,2.517-38.269,5.318-53.994,8.987c-6.755,1.577-12.784,3.29-18.431,5.238c-4.593,1.584-10.587,3.816-16.229,7.044
	c-5.609,3.207-9.957,6.859-12.922,10.856c-3.151,4.25-4.907,9.516-5.077,15.227c-0.342,11.513,5.253,22.66,11.35,32.992
	c6.795,11.516,14.937,22.132,22.006,30.998c16.603,20.825,34.546,40.34,51.464,58.326c15.677,16.666,33.057,34.61,54.695,56.471
	l8.506,8.594h9.526L1097.798,471.196z"/>
<linearGradient id="road_1_" gradientUnits="userSpaceOnUse" x1="1123.6373" y1="479.999" x2="1123.6373" y2="245.7656">
	<stop  offset="0" style="stop-color:#181410"/>
	<stop  offset="1" style="stop-color:#383630"/>
</linearGradient>
<path id="road" fill="url(#road_1_)" d="M1227.31,439.81c-22.811-13.433-45.556-26.974-68.199-40.688
	c-22.497-13.625-44.936-27.416-66.895-41.897c-21.563-14.219-43.353-28.584-62.745-45.725c-4.385-3.876-8.714-7.874-12.564-12.29
	c-3.77-4.325-7.334-9.258-9.159-14.753c-1.785-5.376-0.804-10.888,2.912-15.192c3.565-4.128,8.806-6.908,13.746-9.03
	c11.318-4.862,23.676-7.384,35.734-9.618c10.917-2.023,21.916-3.537,32.938-4.852h-32.252c-19.531,2.197-39.022,4.993-58.148,9.475
	c-6.175,1.447-12.296,3.143-18.289,5.223c-5.505,1.91-10.967,4.084-16.023,7.005c-4.757,2.749-9.333,6.237-12.581,10.721
	c-3.142,4.338-4.653,9.617-4.719,14.943c-0.144,11.732,5.929,22.975,11.852,32.724c6.631,10.915,14.45,21.051,22.506,30.94
	c16.519,20.276,34.37,39.418,52.455,58.294c18.288,19.088,36.912,37.838,55.672,56.462c2.836,2.815,5.671,5.63,8.507,8.445
	c26.467,0,182.4,0,194.153,0C1273.214,466.654,1250.221,453.303,1227.31,439.81z"/>
<linearGradient id="edge_1_" gradientUnits="userSpaceOnUse" x1="1165.7015" y1="479.999" x2="1165.7015" y2="245.7656">
	<stop  offset="0" style="stop-color:#181410"/>
	<stop  offset="1" style="stop-color:#383630"/>
</linearGradient>
<path id="edge" fill="url(#edge_1_)" d="M1324.52,479.999c-24.399-13.345-48.796-26.696-73.125-40.189
	c-24.223-13.433-48.391-26.974-72.476-40.688c-23.929-13.625-47.817-27.416-71.299-41.897
	c-23.057-14.219-46.357-28.584-67.551-45.725c-4.793-3.876-9.541-7.874-13.856-12.29c-4.225-4.325-8.308-9.258-10.71-14.753
	c-2.35-5.376-1.949-10.888,1.315-15.192c3.131-4.128,8.079-6.908,12.797-9.03c10.807-4.862,22.9-7.384,34.723-9.618
	c10.704-2.023,21.544-3.537,32.428-4.852h-3.691c-11.022,1.315-22.021,2.829-32.938,4.852c-12.058,2.234-24.416,4.756-35.734,9.618
	c-4.94,2.122-10.181,4.902-13.746,9.03c-3.716,4.304-4.697,9.815-2.912,15.192c1.825,5.495,5.389,10.429,9.159,14.753
	c3.85,4.417,8.179,8.414,12.564,12.29c19.392,17.141,41.183,31.505,62.745,45.725c21.959,14.481,44.398,28.272,66.895,41.897
	c22.643,13.714,45.388,27.255,68.199,40.688c22.911,13.492,45.904,26.844,68.901,40.189H1324.52z"/>
<g id="line">
	<path fill="#FFFFFF" stroke="#FFFFFF" stroke-width="0.2" stroke-miterlimit="10" d="M952.336,298.672h-1.758
		c0.525,4.135,1.71,8.186,3.281,12.109h2.181C954.331,306.858,953.005,302.807,952.336,298.672z"/>
	<path fill="#FFFFFF" stroke="#FFFFFF" stroke-width="0.2" stroke-miterlimit="10" d="M983.531,356.797
		c7.814,9.801,15.948,19.334,24.268,28.703h4.79c-8.647-9.369-17.114-18.902-25.27-28.703c-1.77-2.127-3.526-4.269-5.265-6.425
		h-3.563C980.154,352.528,981.835,354.67,983.531,356.797z"/>
	<path fill="#FFFFFF" stroke="#FFFFFF" stroke-width="0.2" stroke-miterlimit="10" d="M1045.918,247.583h-0.049
		c-3.977,0.524-7.946,1.094-11.91,1.701h0.084C1037.995,248.678,1041.953,248.108,1045.918,247.583z"/>
	<path fill="#FFFFFF" stroke="#FFFFFF" stroke-width="0.2" stroke-miterlimit="10" d="M956.306,278.19
		c0.699-0.989,1.474-1.922,2.291-2.817h-0.945c-0.849,0.895-1.656,1.828-2.39,2.817c-0.818,1.102-1.529,2.266-2.141,3.475h1.165
		C954.857,280.456,955.527,279.292,956.306,278.19z"/>
	<path fill="#FFFFFF" stroke="#FFFFFF" stroke-width="0.2" stroke-miterlimit="10" d="M979.86,262.209h-0.485
		c-2.941,1.128-5.839,2.375-8.644,3.81h0.618C974.103,264.584,976.958,263.337,979.86,262.209z"/>
	<path fill="#FFFFFF" stroke="#FFFFFF" stroke-width="0.2" stroke-miterlimit="10" d="M1002.799,255.24
		c2.546-0.599,5.1-1.163,7.661-1.705h-0.187c-2.576,0.541-5.149,1.106-7.716,1.705c-1.087,0.254-2.17,0.526-3.253,0.795h0.27
		C1000.648,255.766,1001.721,255.494,1002.799,255.24z"/>
	<path fill="#FFFFFF" stroke="#FFFFFF" stroke-width="0.2" stroke-miterlimit="10" d="M1093.078,245.766
		c-11.045,1.315-22.026,2.829-32.978,4.852c-12.097,2.234-24.499,4.756-35.901,9.618c-4.978,2.122-10.267,4.902-13.904,9.03
		c-3.792,4.304-4.869,9.815-3.177,15.192c1.729,5.495,5.207,10.429,8.902,14.753c3.773,4.417,8.032,8.414,12.349,12.29
		c19.093,17.141,40.633,31.505,61.947,45.725c21.706,14.481,43.904,28.272,66.164,41.897c22.404,13.714,44.913,27.255,67.489,40.688
		c22.676,13.492,45.435,26.844,68.199,40.189h8.089c-23.23-13.345-46.456-26.696-69.602-40.189
		c-23.045-13.433-46.027-26.974-68.909-40.688c-22.735-13.625-45.414-27.416-67.626-41.897
		c-21.811-14.219-43.852-28.584-63.543-45.725c-4.453-3.876-8.851-7.874-12.779-12.29c-3.846-4.325-7.496-9.258-9.417-14.753
		c-1.879-5.376-0.994-10.888,2.647-15.192c3.493-4.128,8.685-6.908,13.588-9.03c11.233-4.862,23.547-7.384,35.566-9.618
		C1071.061,248.595,1082.078,247.081,1093.078,245.766"/>
</g>
</svg>
