<?xml version="1.0" encoding="utf-8"?>
<!-- Generator: Adobe Illustrator 17.1.0, SVG Export Plug-In . SVG Version: 6.00 Build 0)  -->
<!DOCTYPE svg PUBLIC "-//W3C//DTD SVG 1.1//EN" "http://www.w3.org/Graphics/SVG/1.1/DTD/svg11.dtd">
<svg version="1.1" id="highlight_l1s" xmlns="http://www.w3.org/2000/svg" xmlns:xlink="http://www.w3.org/1999/xlink" x="0px"
	 y="0px" width="1600px" height="480px" viewBox="0 0 1600 480" enable-background="new 0 0 1600 480" xml:space="preserve">
<g id="shadow" opacity="0.4">
	<path stroke="#000000" stroke-width="0.2" stroke-miterlimit="10" d="M720.989,299.444l-27.495,10.665
		c-0.31,0.12-0.223,0.58,0.109,0.58l38.197-0.046c0.268,0,0.401-0.324,0.211-0.513l-10.703-10.619
		C721.225,299.427,721.099,299.401,720.989,299.444z"/>
	<path stroke="#000000" stroke-width="0.2" stroke-miterlimit="10" d="M707.345,308.813
		c-17.168,20.099-134.128,157.019-149.646,175.186c11.933,0,23.866,0,35.798,0c15.508-21.456,115.345-159.595,126.624-175.201
		L707.345,308.813z"/>
</g>
<path fill="#FFFFFF" stroke="#FFFFFF" stroke-width="0.2" stroke-miterlimit="10" d="M720.989,295.444l-27.495,10.665
	c-0.31,0.12-0.223,0.58,0.109,0.58l38.197-0.046c0.268,0,0.401-0.324,0.211-0.513l-10.703-10.619
	C721.225,295.427,721.099,295.401,720.989,295.444z"/>
<path fill="#FFFFFF" stroke="#FFFFFF" stroke-width="0.2" stroke-miterlimit="10" d="M707.345,304.813
	c-17.168,20.099-134.128,157.019-149.646,175.186c11.933,0,23.866,0,35.798,0c15.508-21.456,115.345-159.595,126.624-175.201
	L707.345,304.813z"/>
</svg>
