<?xml version="1.0" encoding="utf-8"?>
<!-- Generator: Adobe Illustrator 17.1.0, SVG Export Plug-In . SVG Version: 6.00 Build 0)  -->
<!DOCTYPE svg PUBLIC "-//W3C//DTD SVG 1.1//EN" "http://www.w3.org/Graphics/SVG/1.1/DTD/svg11.dtd">
<svg version="1.1" id="l2c" xmlns="http://www.w3.org/2000/svg" xmlns:xlink="http://www.w3.org/1999/xlink" x="0px" y="0px"
	 width="1600px" height="480px" viewBox="0 0 1600 480" enable-background="new 0 0 1600 480" xml:space="preserve">
<g id="patch">
	<linearGradient id="SVGID_1_" gradientUnits="userSpaceOnUse" x1="584.498" y1="480.499" x2="584.498" y2="245.7656">
		<stop  offset="0" style="stop-color:#181410"/>
		<stop  offset="1" style="stop-color:#383630"/>
	</linearGradient>
	<path fill="url(#SVGID_1_)" d="M684.503,272.307c-1.823-3.787-5.105-7.064-10.037-10.019c-10.044-6.017-22.084-8.961-32.581-11.248
		c-9.131-1.99-18.987-3.682-30.754-5.274h-3.806l-0.064,0.496c13.509,1.754,24.408,3.583,34.298,5.755
		c10.338,2.271,22.181,5.189,31.886,11.127c4.654,2.849,7.698,5.983,9.305,9.584c2.611,5.85,1.111,12.182-0.607,16.464
		c-1.914,4.772-4.746,9.569-9.183,15.554c-4.053,5.467-8.557,10.468-12.028,14.213c-18.081,19.504-38.047,37.216-57.357,54.345
		L482.729,480.499h9.6l116.292-106.453c18.731-17.146,38.1-34.877,55.529-54.415c3.355-3.762,7.707-8.786,11.601-14.3
		c4.28-6.059,6.981-10.926,8.76-15.781C686.145,285.087,687.47,278.473,684.503,272.307z"/>
	<linearGradient id="SVGID_2_" gradientUnits="userSpaceOnUse" x1="472.9709" y1="480.499" x2="472.9709" y2="245.7656">
		<stop  offset="0" style="stop-color:#181410"/>
		<stop  offset="1" style="stop-color:#383630"/>
	</linearGradient>
	<path fill="url(#SVGID_2_)" d="M627.756,256.352c-5.396-2.414-11.138-3.955-16.54-5.261c-8.438-2.039-17.634-3.747-28.69-5.325
		h-3.617l-0.067,0.495c0,0,0.002,0.001,0.003,0.001c12.708,1.73,22.883,3.574,32.021,5.801c5.309,1.295,10.944,2.82,16.181,5.2
		c4.568,2.076,9.539,4.808,11.768,9.315c2.015,4.075,1.021,8.818-3.038,14.501c-3.621,5.069-8.42,9.392-12.637,12.952
		c-9.968,8.417-21.021,15.764-31.486,22.567c-11.366,7.389-22.932,14.347-33.737,20.767c-21.561,12.81-43.792,25.293-65.291,37.366
		L304.314,480.499h10.133l183.112-104.904c21.079-12.073,42.876-24.559,63.997-37.372c10.586-6.423,21.917-13.386,33.046-20.789
		c10.255-6.821,21.081-14.188,30.799-22.644c4.14-3.602,8.845-7.979,12.351-13.139c4.086-6.015,4.931-11.094,2.584-15.529
		C637.805,261.34,632.557,258.499,627.756,256.352z"/>
</g>
<linearGradient id="road_1_" gradientUnits="userSpaceOnUse" x1="497.7399" y1="479.999" x2="497.7399" y2="245.7656">
	<stop  offset="0" style="stop-color:#181410"/>
	<stop  offset="1" style="stop-color:#383630"/>
</linearGradient>
<path id="road" fill="url(#road_1_)" d="M683.629,272.523c-1.979-4.266-5.722-7.415-9.672-9.806
	c-9.72-5.885-21.243-8.785-32.235-11.189c-11.36-2.485-22.866-4.268-34.397-5.763H578.91c10.79,1.466,21.547,3.243,32.132,5.812
	c5.564,1.351,11.128,2.871,16.361,5.23c4.608,2.078,9.778,4.864,12.175,9.549c2.667,5.21,0.257,10.602-2.818,15.014
	c-3.442,4.939-7.939,9.14-12.493,13.043c-9.732,8.341-20.447,15.572-31.142,22.605c-10.955,7.203-22.152,14.03-33.391,20.777
	c-22.584,13.558-45.518,26.52-68.428,39.515c-23.015,13.054-46.029,26.109-69.044,39.163
	c-23.028,13.062-46.056,26.124-69.083,39.186c-14.303,8.113-28.605,16.228-42.909,24.339c26.442,0,52.884,0,79.325,0
	c26.446,0,52.892,0,79.338,0c6.386,0,12.772,0,19.158,0c19.684-17.734,39.367-35.47,59.051-53.206
	c19.651-17.706,39.302-35.411,58.953-53.117c19.409-17.487,38.847-35.033,56.443-54.379c4.154-4.567,8.192-9.251,11.814-14.255
	c3.509-4.847,6.82-10.057,8.972-15.665C685.391,283.991,686.127,277.908,683.629,272.523z"/>
<g id="line">
	<path fill="#FFFFFF" stroke="#FFFFFF" stroke-width="0.2" stroke-miterlimit="10" d="M650.4,253.536h-0.183
		c2.894,0.74,5.78,1.56,8.618,2.5h0.27C656.234,255.096,653.319,254.275,650.4,253.536z"/>
	<path fill="#FFFFFF" stroke="#FFFFFF" stroke-width="0.2" stroke-miterlimit="10" d="M620.252,247.583h-0.036
		c3.396,0.523,6.784,1.09,10.162,1.701h0.057C627.047,248.673,623.653,248.106,620.252,247.583z"/>
	<path fill="#FFFFFF" stroke="#FFFFFF" stroke-width="0.2" stroke-miterlimit="10" d="M675.343,305.043
		c1.453-2.056,2.862-4.182,4.167-6.371h-1.758c-1.382,2.189-2.865,4.315-4.39,6.371c-1.454,1.961-2.985,3.862-4.547,5.738h2.181
		C672.493,308.905,673.957,307.004,675.343,305.043z"/>
	<path fill="#FFFFFF" stroke="#FFFFFF" stroke-width="0.2" stroke-miterlimit="10" d="M633.376,350.372h-3.563
		c-8.539,7.876-17.221,15.6-25.906,23.304c-4.443,3.941-8.886,7.882-13.329,11.823h4.79c4.305-3.941,8.611-7.882,12.916-11.823
		C616.699,365.973,625.111,358.248,633.376,350.372z"/>
	<path fill="#FFFFFF" stroke="#FFFFFF" stroke-width="0.2" stroke-miterlimit="10" d="M685.111,275.372h-0.945
		c0.494,2.059,0.592,4.179,0.39,6.293h1.165C685.849,279.552,685.677,277.431,685.111,275.372z"/>
	<path fill="#FFFFFF" stroke="#FFFFFF" stroke-width="0.2" stroke-miterlimit="10" d="M674.209,262.717
		c-0.292-0.175-0.59-0.339-0.885-0.508h-0.485c0.289,0.17,0.581,0.333,0.867,0.508c1.579,0.966,3.115,2.064,4.52,3.301h0.618
		C677.396,264.781,675.822,263.684,674.209,262.717z"/>
	<path fill="#FFFFFF" stroke="#FFFFFF" stroke-width="0.2" stroke-miterlimit="10" d="M591.117,247.583h-0.035
		c3.146,0.518,6.283,1.086,9.409,1.701h0.057C597.412,248.669,594.269,248.102,591.117,247.583z"/>
	<path fill="#FFFFFF" stroke="#FFFFFF" stroke-width="0.2" stroke-miterlimit="10" d="M637.338,281.37
		c1.26-1.854,2.394-3.883,3.086-5.998h-0.945c-0.767,2.115-1.971,4.143-3.296,5.998c-0.072,0.1-0.15,0.195-0.222,0.295h1.165
		C637.195,281.565,637.27,281.47,637.338,281.37z"/>
	<path fill="#FFFFFF" stroke="#FFFFFF" stroke-width="0.2" stroke-miterlimit="10" d="M540.184,350.372h-3.563
		c-15.791,9.095-31.68,18.015-47.566,26.938c-4.86,2.73-9.72,5.46-14.581,8.189h4.79c4.765-2.73,9.53-5.46,14.295-8.189
		C509.133,368.388,524.711,359.467,540.184,350.372z"/>
	<path fill="#FFFFFF" stroke="#FFFFFF" stroke-width="0.2" stroke-miterlimit="10" d="M636.558,262.209h-0.485
		c1.203,1.11,2.238,2.368,3.008,3.81h0.618C638.878,264.577,637.799,263.319,636.558,262.209z"/>
	<path fill="#FFFFFF" stroke="#FFFFFF" stroke-width="0.2" stroke-miterlimit="10" d="M619.96,298.672h-1.758
		c-5.434,4.259-11.088,8.253-16.823,12.109h2.181C609.16,306.925,614.674,302.931,619.96,298.672z"/>
	<path fill="#FFFFFF" stroke="#FFFFFF" stroke-width="0.2" stroke-miterlimit="10" d="M618.498,253.536h-0.183
		c2.424,0.723,4.818,1.535,7.151,2.5h0.27C623.369,255.071,620.947,254.259,618.498,253.536z"/>
</g>
</svg>
