<?xml version="1.0" encoding="utf-8"?>
<!-- Generator: Adobe Illustrator 17.1.0, SVG Export Plug-In . SVG Version: 6.00 Build 0)  -->
<!DOCTYPE svg PUBLIC "-//W3C//DTD SVG 1.1//EN" "http://www.w3.org/Graphics/SVG/1.1/DTD/svg11.dtd">
<svg version="1.1" id="highlight_r2s" xmlns="http://www.w3.org/2000/svg" xmlns:xlink="http://www.w3.org/1999/xlink" x="0px"
	 y="0px" width="1600px" height="480px" viewBox="0 0 1600 480" enable-background="new 0 0 1600 480" xml:space="preserve">
<g id="shadow" opacity="0.4">
	<path stroke="#000000" stroke-width="0.2" stroke-miterlimit="10" d="M951.215,299.539l0.492,10.551
		c0.008,0.16,0.14,0.286,0.3,0.286l37.772-0.046c0.349,0,0.416-0.497,0.079-0.589l-38.264-10.505
		C951.398,299.181,951.206,299.335,951.215,299.539z"/>
	<path stroke="#000000" stroke-width="0.2" stroke-miterlimit="10" d="M974.806,308.495l-12.696,0.015
		c23.207,13.071,300.398,169.204,311.557,175.489c11.933,0,23.866,0,35.798,0C1285.853,471.616,992.004,317.514,974.806,308.495z"/>
</g>
<path fill="#FFFFFF" stroke="#FFFFFF" stroke-width="0.2" stroke-miterlimit="10" d="M951.215,295.539l0.492,10.551
	c0.008,0.16,0.14,0.286,0.3,0.286l37.772-0.046c0.349,0,0.416-0.497,0.079-0.589l-38.264-10.505
	C951.398,295.181,951.206,295.335,951.215,295.539z"/>
<path fill="#FFFFFF" stroke="#FFFFFF" stroke-width="0.2" stroke-miterlimit="10" d="M974.806,304.495l-12.696,0.015
	c23.207,13.071,300.398,169.204,311.557,175.489c11.933,0,23.866,0,35.798,0C1285.853,467.616,992.004,313.514,974.806,304.495z"/>
</svg>
