<?xml version="1.0" encoding="utf-8"?>
<!-- Generator: Adobe Illustrator 17.1.0, SVG Export Plug-In . SVG Version: 6.00 Build 0)  -->
<!DOCTYPE svg PUBLIC "-//W3C//DTD SVG 1.1//EN" "http://www.w3.org/Graphics/SVG/1.1/DTD/svg11.dtd">
<svg version="1.1" id="r4c_center_e" xmlns="http://www.w3.org/2000/svg" xmlns:xlink="http://www.w3.org/1999/xlink" x="0px"
	 y="0px" width="1600px" height="480px" viewBox="0 0 1600 480" enable-background="new 0 0 1600 480" xml:space="preserve">
<linearGradient id="patch_1_" gradientUnits="userSpaceOnUse" x1="1276.173" y1="480.499" x2="1276.173" y2="245.7656">
	<stop  offset="0" style="stop-color:#181410"/>
	<stop  offset="1" style="stop-color:#383630"/>
</linearGradient>
<path id="patch" fill="url(#patch_1_)" d="M1485.543,475.794c-7.212-2.933-14.423-5.865-21.632-8.805
	c-23.979-9.779-48.853-19.97-73.929-30.287c-26.896-11.067-51.085-21.105-73.949-30.688c-22.153-9.285-47.911-20.107-73.266-31.056
	c-21.952-9.478-47.809-20.733-73.135-32.353c-26.707-12.253-48.938-22.894-70.625-34.995c-9.904-5.526-21.377-12.306-31.369-20.687
	c-3.101-2.602-6.944-6.151-9.167-10.55c-1.105-2.187-1.577-4.255-1.4-6.148c0.193-2.083,1.218-4.035,3.131-5.97
	c3.999-4.044,9.713-6.246,14.754-7.992c6.375-2.21,12.903-3.696,18.448-4.859c9.104-1.909,18.975-3.494,32.001-5.139
	c0.013-0.002,0.025-0.003,0.038-0.005l-0.063-0.496v0h-3.917c-11.126,1.461-20.001,2.922-28.354,4.661
	c-5.616,1.169-12.235,2.664-18.741,4.893c-5.206,1.781-11.12,4.033-15.416,8.229c-2.152,2.102-3.342,4.251-3.639,6.569
	c-0.267,2.083,0.161,4.336,1.271,6.696c2.146,4.563,5.96,8.207,9.044,10.872c9.763,8.437,21.05,15.247,30.803,20.797
	c21.291,12.117,43.171,22.768,69.473,35.031c24.922,11.62,50.396,22.88,72.026,32.362c24.997,10.958,50.371,21.778,72.192,31.06
	c22.525,9.581,46.366,19.62,72.884,30.689c24.595,10.269,49.113,20.459,72.874,30.289c7.023,2.905,14.049,5.804,21.075,8.702
	l9.318,3.845l10.835,0.038L1485.543,475.794z"/>
<linearGradient id="road_1_" gradientUnits="userSpaceOnUse" x1="1328.0681" y1="479.999" x2="1328.0681" y2="245.7656">
	<stop  offset="0" style="stop-color:#181410"/>
	<stop  offset="1" style="stop-color:#383630"/>
</linearGradient>
<path id="road" fill="url(#road_1_)" d="M1524.236,428.89c-25.069-8.047-50.13-16.118-75.174-24.244
	c-25.131-8.155-50.25-16.349-75.339-24.636c-25.22-8.33-50.429-16.699-75.563-25.285c-25.029-8.551-50.016-17.217-74.89-26.212
	c-24.703-8.933-49.451-18.068-73.469-28.729c-11.618-5.157-23.236-10.487-34-17.292c-4.853-3.068-10.027-6.471-13.165-11.414
	c-1.505-2.371-2.05-4.981-0.867-7.617c1.114-2.48,3.601-4.196,5.87-5.539c3.483-2.062,7.37-3.372,11.22-4.562
	c4.269-1.319,8.612-2.386,12.985-3.302c8.643-1.81,17.393-3.118,26.143-4.293h-32.607c-10.763,1.355-21.505,2.932-32.125,5.151
	c-6.264,1.309-12.54,2.79-18.595,4.875c-5.309,1.829-11.032,4.085-15.087,8.114c-1.737,1.726-3.109,3.793-3.383,6.275
	c-0.245,2.221,0.372,4.437,1.34,6.42c2.066,4.235,5.559,7.688,9.106,10.707c9.48,8.07,20.264,14.643,31.085,20.741
	c22.738,12.812,46.37,24.061,70.048,35.012c24.042,11.119,48.292,21.791,72.581,32.358c24.172,10.516,48.444,20.804,72.729,31.057
	c24.435,10.316,48.913,20.533,73.416,30.689c24.452,10.134,48.918,20.232,73.402,30.288c10.201,4.19,20.408,8.365,30.612,12.547
	c26.359,0,99.352,0,109.49,0c0-8.962,0-17.923,0-26.885C1574.732,445.079,1549.481,436.994,1524.236,428.89z"/>
<linearGradient id="edge_1_" gradientUnits="userSpaceOnUse" x1="1364.0115" y1="453.1143" x2="1364.0115" y2="245.7656">
	<stop  offset="0" style="stop-color:#181410"/>
	<stop  offset="1" style="stop-color:#383630"/>
</linearGradient>
<path id="edge" fill="url(#edge_1_)" d="M1626.896,453.114c-26.111-8.035-52.212-16.12-78.309-24.224
	c-25.915-8.047-51.824-16.118-77.722-24.244c-25.989-8.155-51.969-16.349-77.928-24.636c-26.095-8.33-52.184-16.699-78.221-25.285
	c-25.928-8.551-51.825-17.217-77.644-26.212c-25.641-8.933-51.35-18.068-76.489-28.729c-12.16-5.157-24.338-10.487-35.817-17.292
	c-5.175-3.068-10.708-6.471-14.365-11.414c-1.754-2.371-2.574-4.981-1.667-7.617c0.853-2.48,3.16-4.196,5.288-5.539
	c3.267-2.062,7.016-3.372,10.741-4.562c4.13-1.319,8.362-2.386,12.638-3.302c8.453-1.81,17.065-3.118,25.692-4.293h-5.103
	c-8.75,1.175-17.5,2.483-26.143,4.293c-4.372,0.916-8.716,1.983-12.985,3.302c-3.85,1.19-7.737,2.5-11.22,4.562
	c-2.269,1.343-4.756,3.059-5.87,5.539c-1.184,2.636-0.638,5.246,0.867,7.617c3.138,4.943,8.313,8.346,13.165,11.414
	c10.764,6.805,22.381,12.136,34,17.292c24.018,10.661,48.767,19.796,73.469,28.729c24.874,8.995,49.86,17.661,74.89,26.212
	c25.134,8.587,50.343,16.956,75.563,25.285c25.089,8.286,50.207,16.481,75.339,24.636c25.043,8.126,50.105,16.197,75.174,24.244
	c25.245,8.103,50.496,16.189,75.763,24.224H1626.896z"/>
<g id="line">
	<path fill="#FFFFFF" stroke="#FFFFFF" stroke-width="0.2" stroke-miterlimit="10" d="M1238.132,375.418
		c7.719,3.384,15.452,6.738,23.19,10.082h4.79c-7.855-3.343-15.704-6.698-23.542-10.082c-19.058-8.229-38.089-16.528-57.025-25.046
		h-3.563C1200.619,358.89,1219.361,367.19,1238.132,375.418z"/>
	<path fill="#FFFFFF" stroke="#FFFFFF" stroke-width="0.2" stroke-miterlimit="10" d="M1112.135,247.583h-0.031
		c-3.478,0.521-6.95,1.082-10.415,1.701h0.05C1105.193,248.666,1108.661,248.104,1112.135,247.583z"/>
	<path fill="#FFFFFF" stroke="#FFFFFF" stroke-width="0.2" stroke-miterlimit="10" d="M1098.764,308.048
		c-5.326-2.972-10.642-6.06-15.81-9.376h-1.758c5.052,3.316,10.26,6.405,15.482,9.376c1.624,0.924,3.264,1.824,4.897,2.732h2.181
		C1102.092,309.872,1100.421,308.973,1098.764,308.048z"/>
	<path fill="#FFFFFF" stroke="#FFFFFF" stroke-width="0.2" stroke-miterlimit="10" d="M1058.025,276.601
		c-0.202-0.4-0.385-0.811-0.555-1.228h-0.945c0.155,0.417,0.324,0.828,0.512,1.228c0.859,1.827,1.996,3.501,3.281,5.064h1.165
		C1060.143,280.101,1058.948,278.428,1058.025,276.601z"/>
	<path fill="#FFFFFF" stroke="#FFFFFF" stroke-width="0.2" stroke-miterlimit="10" d="M1074.792,255.792
		c2.45-0.849,4.944-1.578,7.453-2.256h-0.183c-2.534,0.678-5.053,1.407-7.532,2.256c-0.23,0.079-0.464,0.164-0.696,0.244h0.27
		C1074.333,255.955,1074.564,255.87,1074.792,255.792z"/>
	<path fill="#FFFFFF" stroke="#FFFFFF" stroke-width="0.2" stroke-miterlimit="10" d="M1059.846,263.905
		c0.601-0.608,1.252-1.164,1.924-1.696h-0.486c-0.69,0.532-1.36,1.088-1.983,1.696c-0.67,0.654-1.286,1.357-1.813,2.113h0.619
		C1058.607,265.263,1059.2,264.559,1059.846,263.905z"/>
	<path fill="#FFFFFF" stroke="#FFFFFF" stroke-width="0.2" stroke-miterlimit="10" d="M1157.988,245.766
		c-8.771,1.175-17.734,2.483-26.408,4.293c-4.388,0.916-8.75,1.983-13.042,3.302c-3.871,1.19-7.781,2.5-11.3,4.562
		c-2.292,1.343-4.81,3.059-5.967,5.539c-1.23,2.636-0.73,5.246,0.734,7.617c3.052,4.943,8.167,8.346,12.966,11.414
		c10.645,6.805,22.17,12.136,33.698,17.292c23.832,10.661,48.422,19.796,72.968,28.729c24.717,8.995,49.552,17.661,74.432,26.212
		c24.984,8.587,50.047,16.956,75.122,25.285c24.944,8.286,49.92,16.481,74.909,24.636c24.902,8.126,49.822,16.197,74.751,24.244
		c25.104,8.103,56.399,18.137,81.525,26.172l1.434-1.948c-25.407-8.035-50.799-16.12-76.185-24.224
		c-25.209-8.047-50.412-16.118-75.597-24.244c-25.274-8.155-50.536-16.349-75.769-24.636c-25.365-8.33-50.72-16.699-76.004-25.285
		c-25.178-8.551-50.316-17.217-75.347-26.212c-24.859-8.933-49.766-18.068-73.971-28.729c-11.708-5.157-23.419-10.487-34.302-17.292
		c-4.906-3.068-10.14-6.471-13.365-11.414c-1.546-2.371-2.137-4.981-1-7.617c1.07-2.48,3.528-4.196,5.773-5.539
		c3.447-2.062,7.312-3.372,11.141-4.562c4.246-1.319,8.571-2.386,12.927-3.302C1140.721,248.249,1149.259,246.941,1157.988,245.766"
		/>
</g>
</svg>
