<?xml version="1.0" encoding="utf-8"?>
<!-- Generator: Adobe Illustrator 17.1.0, SVG Export Plug-In . SVG Version: 6.00 Build 0)  -->
<!DOCTYPE svg PUBLIC "-//W3C//DTD SVG 1.1//EN" "http://www.w3.org/Graphics/SVG/1.1/DTD/svg11.dtd">
<svg version="1.1" id="highlight_r4c" xmlns="http://www.w3.org/2000/svg" xmlns:xlink="http://www.w3.org/1999/xlink" x="0px"
	 y="0px" width="1600px" height="480px" viewBox="0 0 1600 480" enable-background="new 0 0 1600 480" xml:space="preserve">
<g id="shadow" opacity="0.4">
	<path stroke="#000000" stroke-width="0.2" stroke-miterlimit="10" d="M1079.841,299.645l6.35,10.245
		c0.054,0.088,0.15,0.141,0.253,0.142l38.372,0.304c0.358,0.003,0.419-0.51,0.071-0.592l-44.721-10.549
		C1079.905,299.133,1079.7,299.417,1079.841,299.645z"/>
	<path stroke="#000000" stroke-width="0.2" stroke-miterlimit="10" d="M1109.361,308.387l-12.955-0.089
		c8.087,3.256,16.228,6.371,24.4,9.409c7.995,2.973,16.023,5.856,24.067,8.693c8.193,2.89,16.401,5.741,24.622,8.55
		c8.476,2.897,16.962,5.764,25.454,8.613c8.358,2.803,16.725,5.577,25.095,8.344c8.317,2.749,16.64,5.478,24.965,8.203
		c8.204,2.685,16.412,5.357,24.621,8.024c8.477,2.754,16.957,5.501,25.438,8.243c8.127,2.628,16.257,5.251,24.387,7.87
		c8.8,2.835,17.6,5.667,26.401,8.496c8.496,2.731,16.992,5.459,25.489,8.186c8.357,2.682,16.715,5.363,25.072,8.042
		c7.899,2.533,15.799,5.065,23.698,7.596c8.967,2.873,17.933,5.747,26.9,8.619c8.495,2.722,16.991,5.444,25.486,8.166
		c8.289,2.656,16.578,5.312,24.867,7.968c8.581,2.749,17.161,5.5,25.741,8.25c8.483,2.719,16.966,5.439,25.45,8.16
		c7.765,2.49,15.529,4.98,23.294,7.472c8.814,2.828,17.628,5.657,26.442,8.485c0.568,0.182,1.135,0.364,1.702,0.547
		c0-3.543,0-7.086,0-10.629c-8.67-2.67-17.341-5.337-26.012-8.005c-7.948-2.446-15.896-4.891-23.844-7.335
		c-8.326-2.561-16.652-5.121-24.978-7.682c-8.511-2.617-17.021-5.233-25.532-7.85c-8.697-2.674-17.395-5.348-26.092-8.022
		c-8.914-2.741-17.828-5.481-26.742-8.222c-7.788-2.395-15.576-4.79-23.364-7.186c-8.845-2.721-17.689-5.443-26.533-8.166
		c-8.495-2.615-16.99-5.234-25.484-7.852c-8.024-2.474-16.047-4.949-24.07-7.429c-8.75-2.704-17.5-5.411-26.248-8.121
		c-8.286-2.567-16.57-5.139-24.852-7.717c-8.544-2.659-17.086-5.325-25.626-7.996c-8.39-2.625-16.776-5.262-25.16-7.907
		c-8.192-2.585-16.381-5.179-24.564-7.795c-8.271-2.644-16.541-5.295-24.799-7.979c-8.382-2.724-16.759-5.464-25.121-8.248
		c-8.45-2.813-16.888-5.664-25.307-8.569c-8.121-2.802-16.217-5.677-24.285-8.628
		C1117.365,311.425,1113.359,309.916,1109.361,308.387z"/>
</g>
<path fill="#FFFFFF" stroke="#FFFFFF" stroke-width="0.2" stroke-miterlimit="10" d="M1079.841,295.645l6.35,10.245
	c0.054,0.088,0.15,0.141,0.253,0.142l38.372,0.304c0.358,0.003,0.419-0.51,0.071-0.592l-44.721-10.549
	C1079.905,295.133,1079.7,295.417,1079.841,295.645z"/>
<path fill="#FFFFFF" stroke="#FFFFFF" stroke-width="0.2" stroke-miterlimit="10" d="M1109.361,304.387l-12.955-0.089
	c8.087,3.256,16.228,6.371,24.4,9.409c7.995,2.973,16.023,5.856,24.067,8.693c8.193,2.89,16.401,5.741,24.622,8.55
	c8.476,2.897,16.962,5.764,25.454,8.613c8.358,2.803,16.725,5.577,25.095,8.344c8.317,2.749,16.64,5.478,24.965,8.203
	c8.204,2.685,16.412,5.357,24.621,8.024c8.477,2.754,16.957,5.501,25.438,8.243c8.127,2.628,16.257,5.251,24.387,7.87
	c8.8,2.835,17.6,5.667,26.401,8.496c8.496,2.731,16.992,5.459,25.489,8.186c8.357,2.682,16.715,5.363,25.072,8.042
	c7.899,2.533,15.799,5.065,23.698,7.596c8.967,2.873,17.933,5.747,26.9,8.619c8.495,2.722,16.991,5.444,25.486,8.166
	c8.289,2.656,16.578,5.312,24.867,7.968c8.581,2.749,17.161,5.5,25.741,8.25c8.483,2.719,16.966,5.439,25.45,8.16
	c7.765,2.49,15.529,4.98,23.294,7.472c8.814,2.828,17.628,5.657,26.442,8.485c0.568,0.182,1.135,0.364,1.702,0.547
	c0-3.543,0-7.086,0-10.629c-8.67-2.67-17.341-5.337-26.012-8.005c-7.948-2.446-15.896-4.891-23.844-7.335
	c-8.326-2.561-16.652-5.121-24.978-7.682c-8.511-2.617-17.021-5.233-25.532-7.85c-8.697-2.674-17.395-5.348-26.092-8.022
	c-8.914-2.741-17.828-5.481-26.742-8.222c-7.788-2.395-15.576-4.79-23.364-7.186c-8.845-2.721-17.689-5.443-26.533-8.166
	c-8.495-2.615-16.99-5.234-25.484-7.852c-8.024-2.474-16.047-4.949-24.07-7.429c-8.75-2.704-17.5-5.411-26.248-8.121
	c-8.286-2.567-16.57-5.139-24.852-7.717c-8.544-2.659-17.086-5.325-25.626-7.996c-8.39-2.625-16.776-5.262-25.16-7.907
	c-8.192-2.585-16.381-5.179-24.564-7.795c-8.271-2.644-16.541-5.295-24.799-7.979c-8.382-2.724-16.759-5.464-25.121-8.248
	c-8.45-2.813-16.888-5.664-25.307-8.569c-8.121-2.802-16.217-5.677-24.285-8.628
	C1117.365,307.425,1113.359,305.916,1109.361,304.387z"/>
</svg>
