<?xml version="1.0" encoding="utf-8"?>
<!-- Generator: Adobe Illustrator 17.1.0, SVG Export Plug-In . SVG Version: 6.00 Build 0)  -->
<!DOCTYPE svg PUBLIC "-//W3C//DTD SVG 1.1//EN" "http://www.w3.org/Graphics/SVG/1.1/DTD/svg11.dtd">
<svg version="1.1" id="highlight_l3c_center" xmlns="http://www.w3.org/2000/svg" xmlns:xlink="http://www.w3.org/1999/xlink"
	 x="0px" y="0px" width="1600px" height="480px" viewBox="0 0 1600 480" enable-background="new 0 0 1600 480" xml:space="preserve"
	>
<g id="patch" opacity="0.4">
	<path stroke="#000000" stroke-width="0.2" stroke-miterlimit="10" d="M566.632,283.29l-21.695,7.573
		c-0.322,0.112-0.237,0.589,0.104,0.583l33.459-0.612c0.302-0.006,0.408-0.404,0.147-0.558l-11.763-6.961
		C566.807,283.27,566.715,283.261,566.632,283.29z"/>
	<path stroke="#000000" stroke-width="0.2" stroke-miterlimit="10" d="M557.351,289.917c-2.915,5.086-8.031,8.792-12.655,12.216
		c-5.164,3.824-10.546,7.354-16.003,10.741c-11.085,6.879-22.475,13.271-33.915,19.538c-22.995,12.597-46.356,24.527-69.789,36.285
		c-23.541,11.812-47.188,23.414-70.9,34.878c-23.798,11.505-47.644,22.908-71.525,34.239c-23.895,11.337-47.826,22.6-71.786,33.798
		c-8.844,4.134-17.691,8.263-26.54,12.387c13.04,0,26.079,0,39.119,0c23.652-11.815,47.281-23.677,70.868-35.622
		c23.544-11.924,47.062-23.901,70.499-36.034c23.42-12.123,46.794-24.334,70.042-36.783c23.226-12.437,46.363-25.064,69.132-38.324
		c11.201-6.523,22.319-13.195,33.176-20.279c5.372-3.505,10.677-7.126,15.797-10.993c4.678-3.534,9.624-7.262,13.282-11.891
		c1.062-1.344,2.021-2.798,2.693-4.378L557.351,289.917z"/>
</g>
<path fill="#FFFFFF" stroke="#FFFFFF" stroke-width="0.2" stroke-miterlimit="10" d="M566.632,279.29l-21.695,7.573
	c-0.322,0.112-0.237,0.589,0.104,0.583l33.459-0.612c0.302-0.006,0.408-0.404,0.147-0.558l-11.763-6.961
	C566.807,279.27,566.715,279.261,566.632,279.29z"/>
<path fill="#FFFFFF" stroke="#FFFFFF" stroke-width="0.2" stroke-miterlimit="10" d="M557.351,285.917
	c-2.915,5.086-8.031,8.792-12.655,12.216c-5.164,3.824-10.546,7.354-16.003,10.741c-11.085,6.879-22.475,13.271-33.915,19.538
	c-22.995,12.597-46.356,24.527-69.789,36.285c-23.541,11.812-47.188,23.414-70.9,34.878c-23.798,11.505-47.644,22.908-71.525,34.239
	c-23.895,11.337-47.826,22.6-71.786,33.798c-8.844,4.134-17.691,8.263-26.54,12.387c13.04,0,26.079,0,39.119,0
	c23.652-11.815,47.281-23.677,70.868-35.622c23.544-11.924,47.062-23.901,70.499-36.034c23.42-12.123,46.794-24.334,70.042-36.783
	c23.226-12.437,46.363-25.064,69.132-38.324c11.201-6.523,22.319-13.195,33.176-20.279c5.372-3.505,10.677-7.126,15.797-10.993
	c4.678-3.534,9.624-7.262,13.282-11.891c1.062-1.344,2.021-2.798,2.693-4.378L557.351,285.917z"/>
</svg>
