<?xml version="1.0" encoding="utf-8"?>
<!-- Generator: Adobe Illustrator 17.1.0, SVG Export Plug-In . SVG Version: 6.00 Build 0)  -->
<!DOCTYPE svg PUBLIC "-//W3C//DTD SVG 1.1//EN" "http://www.w3.org/Graphics/SVG/1.1/DTD/svg11.dtd">
<svg version="1.1" id="ycs_center_new1" xmlns="http://www.w3.org/2000/svg" xmlns:xlink="http://www.w3.org/1999/xlink" x="0px"
	 y="0px" width="1600px" height="480px" viewBox="0 0 1600 480" enable-background="new 0 0 1600 480" xml:space="preserve">
<g id="patch">
	<linearGradient id="SVGID_1_" gradientUnits="userSpaceOnUse" x1="742.8586" y1="479.999" x2="742.8586" y2="245.7656">
		<stop  offset="0" style="stop-color:#181410"/>
		<stop  offset="1" style="stop-color:#383630"/>
	</linearGradient>
	<path fill="url(#SVGID_1_)" d="M786.784,245.766c-4.927,13.13-67.948,181.195-87.851,234.233h8.089
		C725.073,426.96,782.315,258.896,786.784,245.766"/>
	<linearGradient id="SVGID_2_" gradientUnits="userSpaceOnUse" x1="857.2656" y1="480.499" x2="857.2656" y2="245.7656">
		<stop  offset="0" style="stop-color:#181410"/>
		<stop  offset="1" style="stop-color:#383630"/>
	</linearGradient>
	<path fill="url(#SVGID_2_)" d="M901.535,479.823c-14.644-39.025-29.277-78.051-43.91-117.075
		c-14.622-38.994-29.242-77.988-43.875-116.982h-0.557l-0.45,0.161c13.139,38.604,26.287,77.206,39.437,115.809
		c13.446,39.475,26.892,78.95,40.326,118.425l0.115,0.339h9.169L901.535,479.823z"/>
</g>
<g id="road_1_">
	<linearGradient id="SVGID_3_" gradientUnits="userSpaceOnUse" x1="800.0001" y1="479.999" x2="800.0001" y2="245.7656">
		<stop  offset="0" style="stop-color:#181410"/>
		<stop  offset="1" style="stop-color:#383630"/>
	</linearGradient>
	<path fill="url(#SVGID_3_)" d="M897.023,479.999c-27.935-78.078-55.871-156.156-83.807-234.233h-26.432
		c-4.698,13.13-9.396,26.26-14.094,39.39c-4.261,11.909-8.522,23.818-12.783,35.727c-18.977,53.039-37.953,106.078-56.93,159.116
		C767.659,479.999,832.341,479.999,897.023,479.999z"/>
	<linearGradient id="SVGID_4_" gradientUnits="userSpaceOnUse" x1="778.5395" y1="479.999" x2="778.5395" y2="245.7656">
		<stop  offset="0" style="stop-color:#181410"/>
		<stop  offset="1" style="stop-color:#383630"/>
	</linearGradient>
	<path fill="url(#SVGID_4_)" d="M896.966,479.999c-8.918-24.385-18.608-48.613-30.703-71.617
		c-11.317-21.523-25.696-42.094-46.685-55.123c-10.612-6.587-22.351-10.85-34.279-14.373c-6.024-1.779-12.298-3.147-18.087-5.621
		c-4.393-1.877-8.88-5.074-7.83-10.479c0.19-0.976,0.219-0.938,0.526-1.904l12.782-35.725c1.031-2.697,1.747-4.81,1.516-7.754
		c-0.422-5.396-5.017-9.644-9.188-12.522c-4.783-3.3-10.173-5.615-15.647-7.5c-11.98-4.125-24.48-6.633-36.969-8.629
		c-7.417-1.185-14.868-2.152-22.334-2.986h-29.956c1.811,0.207,3.623,0.4,5.432,0.626c12.828,1.601,25.753,3.642,38.168,7.324
		c5.619,1.666,11.393,3.758,16.274,7.069c4.644,3.15,8.203,8.028,6.375,13.844c-1.681,5.348-6.754,8.943-10.69,12.601
		c-4.881,4.536-9.761,9.072-14.638,13.611c-4.826,4.492-9.643,8.994-14.436,13.521c-2.174,2.054-4.35,4.104-6.544,6.138
		c-1.924,1.783-3.841,3.685-5.058,6.04c-1.365,2.642-1.443,5.578,0.434,7.997c1.678,2.162,4.224,3.562,6.609,4.804
		c5.204,2.709,10.826,4.455,16.278,6.574c9.855,3.831,19.269,9.464,23.641,19.546c4.852,11.188,4.094,24.077,2.468,35.878
		c-1.774,12.871-4.89,25.557-8.501,38.024c-3.633,12.544-7.65,24.963-11.871,37.32c-0.378,1.105-0.756,2.21-1.133,3.315"/>
</g>
<linearGradient id="edge2_2_" gradientUnits="userSpaceOnUse" x1="721.603" y1="479.999" x2="721.603" y2="245.7656">
	<stop  offset="0" style="stop-color:#181410"/>
	<stop  offset="1" style="stop-color:#383630"/>
</linearGradient>
<path id="edge2_1_" fill="url(#edge2_2_)" d="M674.611,479.999c0.494-1.105,0.988-2.21,1.482-3.315
	c5.52-12.357,10.842-24.776,15.793-37.32c4.921-12.468,9.371-25.153,12.497-38.024c2.867-11.802,4.979-24.691,1.303-35.878
	c-3.313-10.081-12.134-15.715-21.586-19.546c-5.23-2.119-10.668-3.865-15.587-6.574c-2.254-1.242-4.654-2.641-6.104-4.804
	c-1.623-2.419-1.236-5.356,0.406-7.997c1.464-2.355,3.582-4.257,5.693-6.04c2.407-2.033,4.799-4.084,7.189-6.138
	c5.269-4.528,10.559-9.029,15.857-13.521c5.354-4.539,10.711-9.076,16.069-13.611c4.321-3.658,9.772-7.254,12.015-12.601
	c2.439-5.816-0.607-10.694-4.92-13.844c-4.533-3.311-10.088-5.403-15.531-7.069c-12.029-3.681-24.739-5.722-37.399-7.324
	c-1.785-0.226-3.577-0.419-5.367-0.626h3.691c1.811,0.207,3.623,0.4,5.432,0.626c12.828,1.601,25.753,3.642,38.168,7.324
	c5.619,1.666,11.393,3.758,16.274,7.069c4.644,3.15,8.203,8.028,6.375,13.844c-1.681,5.348-6.754,8.943-10.69,12.601
	c-4.881,4.536-9.761,9.072-14.638,13.611c-4.826,4.492-9.643,8.994-14.436,13.521c-2.174,2.054-4.35,4.104-6.544,6.138
	c-1.924,1.783-3.841,3.685-5.058,6.04c-1.365,2.642-1.443,5.578,0.434,7.997c1.678,2.162,4.224,3.562,6.609,4.804
	c5.204,2.709,10.826,4.455,16.278,6.574c9.855,3.831,19.269,9.464,23.641,19.546c4.852,11.188,4.094,24.077,2.468,35.878
	c-1.774,12.871-4.89,25.557-8.501,38.024c-3.633,12.544-7.65,24.963-11.871,37.32c-0.378,1.105-0.756,2.21-1.133,3.315H674.611z
	 M783.093,245.766c-1.107,2.391-4.599,9.936-9.707,20.97c-0.888-0.67-1.789-1.29-2.668-1.856c-5.13-3.3-10.763-5.615-16.436-7.5
	c-12.413-4.125-25.177-6.633-37.876-8.629c-7.541-1.185-15.094-2.152-22.648-2.986h-3.691c7.466,0.833,14.917,1.8,22.334,2.986
	c12.49,1.996,24.99,4.504,36.969,8.629c5.475,1.885,10.864,4.2,15.647,7.5c2.286,1.578,4.696,3.569,6.48,5.934
	c1.471,1.949,2.517,4.15,2.708,6.588c0.165,2.105-0.159,3.786-0.731,5.558c1.553-4.341,3.01-8.413,4.346-12.146
	c4.744-13.26,8.005-22.372,8.962-25.048H783.093z"/>
<g id="line2">
	<path fill="#FFFFFF" stroke="#FFFFFF" stroke-width="0.2" stroke-miterlimit="10" d="M660.113,245.766
		c1.807,0.207,3.661,0.4,5.466,0.626c12.801,1.601,25.689,3.642,38.041,7.324c5.59,1.666,11.327,3.758,16.151,7.069
		c4.589,3.15,8.063,8.028,6.133,13.844c-1.774,5.348-6.91,8.943-10.91,12.601c-4.96,4.536-9.919,9.072-14.876,13.611
		c-4.905,4.492-9.8,8.994-14.672,13.521c-2.21,2.054-4.422,4.104-6.651,6.138c-1.955,1.783-3.906,3.685-5.164,6.04
		c-1.411,2.642-1.541,5.578,0.294,7.997c1.64,2.162,4.162,3.562,6.525,4.804c5.157,2.709,10.748,4.455,16.163,6.574
		c9.788,3.831,19.104,9.464,23.3,19.546c4.657,11.188,3.674,24.077,1.841,35.878c-1.998,12.871-5.337,25.557-9.165,38.024
		c-3.851,12.544-8.086,24.963-12.522,37.32c-0.397,1.105-0.794,2.21-1.191,3.315h8.089c0.359-1.105,0.717-2.21,1.076-3.315
		c4.005-12.357,7.806-24.776,11.219-37.32c3.393-12.468,6.288-25.153,7.837-38.024c1.42-11.802,1.953-24.691-3.094-35.878
		c-4.548-10.081-14.06-15.715-23.982-19.546c-5.489-2.119-11.142-3.865-16.393-6.574c-2.407-1.242-4.977-2.641-6.693-4.804
		c-1.919-2.419-1.892-5.356-0.574-7.997c1.175-2.355,3.06-4.257,4.953-6.04c2.158-2.033,4.298-4.084,6.437-6.138
		c4.714-4.528,9.452-9.029,14.2-13.521c4.798-4.539,9.599-9.076,14.401-13.611c3.872-3.658,8.883-7.254,10.47-12.601
		c1.726-5.816-1.917-10.694-6.616-13.844c-4.939-3.311-10.75-5.403-16.398-7.069c-12.48-3.681-25.44-5.722-38.296-7.324
		C663.699,246.166,661.927,245.972,660.113,245.766"/>
	<path fill="#FFFFFF" stroke="#FFFFFF" stroke-width="0.2" stroke-miterlimit="10" d="M774.751,277.85
		c-0.01-0.147-0.022-0.296-0.036-0.448c-0.516-5.396-5.185-9.644-9.406-12.522c-4.841-3.3-10.271-5.615-15.778-7.5
		c-12.052-4.125-24.596-6.633-37.12-8.629c-7.437-1.185-14.861-2.152-22.342-2.986c7.452,0.833,14.93,1.8,22.326,2.986
		c12.455,1.996,24.911,4.504,36.819,8.629c5.442,1.885,10.791,4.2,15.516,7.5c4.121,2.878,8.641,7.127,8.969,12.522
		c0.179,2.944-0.61,5.057-1.688,7.754h1.359c7.121-20.911,12.204-35.836,13.414-39.391
		C785.611,248.891,781.143,260.805,774.751,277.85L774.751,277.85z"/>
	<path fill="#FFFFFF" stroke="#FFFFFF" stroke-width="0.2" stroke-miterlimit="10" d="M758.183,329.75h-2.896
		c-2.523,6.729-5.113,13.633-7.734,20.622h3.606C753.54,343.383,755.891,336.479,758.183,329.75z"/>
	<path fill="#FFFFFF" stroke="#FFFFFF" stroke-width="0.2" stroke-miterlimit="10" d="M768.767,298.672h-1.825
		c-1.464,3.905-2.982,7.95-4.541,12.109h2.242C766.06,306.622,767.437,302.577,768.767,298.672z"/>
	<path fill="#FFFFFF" stroke="#FFFFFF" stroke-width="0.2" stroke-miterlimit="10" d="M848.837,350.372
		c3.988,11.709,7.974,23.418,11.962,35.128h4.825c-4.391-11.709-8.784-23.418-13.175-35.128H848.837z"/>
	<path fill="#FFFFFF" stroke="#FFFFFF" stroke-width="0.2" stroke-miterlimit="10" d="M833.059,298.672h-1.827
		c1.375,4.036,2.749,8.073,4.123,12.109h2.245C836.087,306.744,834.573,302.708,833.059,298.672z"/>
	<path fill="#FFFFFF" stroke="#FFFFFF" stroke-width="0.2" stroke-miterlimit="10" d="M824.32,275.372h-1.022
		c0.714,2.097,1.429,4.195,2.143,6.293h1.24C825.894,279.568,825.107,277.47,824.32,275.372z"/>
	<path fill="#FFFFFF" stroke="#FFFFFF" stroke-width="0.2" stroke-miterlimit="10" d="M819.383,262.209h-0.568
		c0.432,1.27,0.865,2.54,1.297,3.81h0.699C820.336,264.749,819.86,263.479,819.383,262.209z"/>
	<path fill="#FFFFFF" stroke="#FFFFFF" stroke-width="0.2" stroke-miterlimit="10" d="M816.13,253.536h-0.268
		c0.284,0.833,0.568,1.667,0.851,2.5h0.355C816.755,255.202,816.443,254.369,816.13,253.536z"/>
	<path fill="#FFFFFF" stroke="#FFFFFF" stroke-width="0.2" stroke-miterlimit="10" d="M813.898,247.583h-0.063
		c0.193,0.567,0.386,1.134,0.579,1.701h0.121C814.323,248.717,814.111,248.15,813.898,247.583z"/>
</g>
</svg>
