<?xml version="1.0" encoding="utf-8"?>
<!-- Generator: Adobe Illustrator 17.1.0, SVG Export Plug-In . SVG Version: 6.00 Build 0)  -->
<!DOCTYPE svg PUBLIC "-//W3C//DTD SVG 1.1//EN" "http://www.w3.org/Graphics/SVG/1.1/DTD/svg11.dtd">
<svg version="1.1" id="r1c_e" xmlns="http://www.w3.org/2000/svg" xmlns:xlink="http://www.w3.org/1999/xlink" x="0px" y="0px"
	 width="1600px" height="480px" viewBox="0 0 1600 480" enable-background="new 0 0 1600 480" xml:space="preserve">
<linearGradient id="patch_1_" gradientUnits="userSpaceOnUse" x1="950.3929" y1="480.499" x2="950.3929" y2="245.7656">
	<stop  offset="0" style="stop-color:#181410"/>
	<stop  offset="1" style="stop-color:#383630"/>
</linearGradient>
<path id="patch" fill="url(#patch_1_)" d="M967.771,412.525c-4.794-5.53-9.606-11.047-14.418-16.563
	c-12.369-14.181-25.159-28.843-37.428-43.517c-9.548-11.419-17.069-21.215-23.673-30.828c-7.012-10.208-13.99-21.17-15.586-33.061
	c-0.456-3.4-0.396-6.263,0.185-8.752c0.586-2.513,1.726-4.986,3.387-7.354c2.655-3.784,6.539-6.998,11.873-9.826
	c10.533-5.583,22.501-8.578,33.865-10.983c9.663-2.044,19.969-3.803,31.505-5.375c0.013-0.002,0.025-0.004,0.038-0.006l-0.067-0.495
	v0h-3.615c-10.069,1.432-19.32,3.04-28.167,4.897c-11.519,2.42-23.671,5.437-34.51,11.077c-5.574,2.901-9.686,6.214-12.567,10.127
	c-1.82,2.47-3.102,5.059-3.809,7.694c-0.699,2.607-0.869,5.587-0.52,9.111c1.202,12.109,7.865,23.189,14.587,33.501
	c6.284,9.64,13.482,19.46,22.652,30.904c11.76,14.678,24.038,29.342,35.912,43.521c4.622,5.521,9.244,11.04,13.847,16.572
	l56.015,67.327h9.418L967.771,412.525z"/>
<linearGradient id="road_1_" gradientUnits="userSpaceOnUse" x1="1037.3055" y1="479.999" x2="1037.3055" y2="245.7656">
	<stop  offset="0" style="stop-color:#181410"/>
	<stop  offset="1" style="stop-color:#383630"/>
</linearGradient>
<path id="road" fill="url(#road_1_)" d="M1133.623,436.235c-22.01-14.649-44.02-29.297-66.03-43.946
	c-22.002-14.644-44.124-29.126-65.88-44.136c-10.806-7.456-21.571-14.99-32.097-22.838c-10.151-7.568-20.318-15.335-29.505-24.069
	c-4.462-4.242-8.752-8.619-12.426-13.573c-3.41-4.598-6.617-10.378-5.615-16.318c0.938-5.563,5.543-9.132,10.131-11.8
	c5.111-2.972,10.727-4.936,16.406-6.506c12.234-3.382,24.789-5.519,37.345-7.284h-28.499c-10.609,1.443-21.171,3.182-31.629,5.387
	c-11.647,2.455-23.588,5.463-34.189,11.031c-4.69,2.463-9.1,5.64-12.222,9.98c-1.631,2.268-2.915,4.811-3.596,7.527
	c-0.726,2.898-0.693,5.981-0.348,8.932c1.426,12.223,8.39,23.27,15.088,33.277c7.157,10.692,15.016,20.914,23.162,30.866
	c16.612,20.292,33.826,40.1,50.803,60.086c17.136,20.174,34.272,40.347,51.408,60.521c1.876,2.209,3.752,4.417,5.628,6.626
	c26.528,0,171.633,0,177.822,0C1177.461,465.411,1155.542,450.823,1133.623,436.235z"/>
<linearGradient id="edge_1_" gradientUnits="userSpaceOnUse" x1="1074.7863" y1="479.999" x2="1074.7863" y2="245.7656">
	<stop  offset="0" style="stop-color:#181410"/>
	<stop  offset="1" style="stop-color:#383630"/>
</linearGradient>
<path id="edge" fill="url(#edge_1_)" d="M1227.689,479.999c-23.452-14.588-46.905-29.176-70.357-43.764
	c-23.55-14.649-47.099-29.297-70.649-43.946c-23.542-14.644-47.186-29.126-70.519-44.136c-11.59-7.456-23.146-14.99-34.498-22.838
	c-10.946-7.568-21.93-15.335-32.034-24.069c-4.908-4.242-9.658-8.619-13.853-13.573c-3.893-4.598-7.708-10.378-7.33-16.318
	c0.354-5.563,4.583-9.132,8.89-11.8c4.798-2.972,10.208-4.936,15.722-6.506c11.878-3.382,24.209-5.519,36.579-7.284h-3.691
	c-12.556,1.765-25.111,3.902-37.345,7.284c-5.679,1.57-11.295,3.534-16.406,6.506c-4.588,2.668-9.192,6.237-10.131,11.8
	c-1.002,5.939,2.205,11.72,5.615,16.318c3.674,4.954,7.964,9.331,12.426,13.573c9.186,8.733,19.354,16.5,29.505,24.069
	c10.526,7.848,21.291,15.382,32.097,22.838c21.755,15.01,43.877,29.492,65.88,44.136c22.01,14.649,44.02,29.297,66.03,43.946
	c21.919,14.588,43.838,29.176,65.757,43.764H1227.689z"/>
<g id="line">
	<path fill="#FFFFFF" stroke="#FFFFFF" stroke-width="0.2" stroke-miterlimit="10" d="M985.951,245.766
		c-12.587,1.765-25.135,3.902-37.428,7.284c-5.706,1.57-11.357,3.534-16.519,6.506c-4.634,2.668-9.301,6.237-10.337,11.8
		c-1.105,5.939,2,11.72,5.33,16.318c3.588,4.954,7.802,9.331,12.189,13.573c9.034,8.733,19.066,16.5,29.085,24.069
		c10.389,7.848,21.022,15.382,31.699,22.838c21.493,15.01,43.363,29.492,65.109,44.136c21.754,14.649,43.509,29.297,65.263,43.946
		c21.664,14.588,43.329,29.176,64.993,43.764h8.089c-22.173-14.588-44.347-29.176-66.521-43.764
		c-22.266-14.649-44.531-29.297-66.797-43.946c-22.258-14.644-44.633-29.126-66.65-44.136c-10.937-7.456-21.833-14.99-32.496-22.838
		c-10.283-7.568-20.586-15.335-29.925-24.069c-4.536-4.242-8.903-8.619-12.663-13.573c-3.49-4.598-6.798-10.378-5.9-16.318
		c0.841-5.563,5.384-9.132,9.925-11.8c5.059-2.972,10.641-4.936,16.292-6.506C960.864,249.668,973.426,247.531,985.951,245.766"/>
	<path fill="#FFFFFF" stroke="#FFFFFF" stroke-width="0.2" stroke-miterlimit="10" d="M911.895,352.766
		c8.828,11.019,17.838,21.894,26.89,32.734h4.792c-9.431-10.84-18.822-21.715-28.035-32.734c-0.665-0.795-1.324-1.595-1.985-2.393
		h-3.563C910.627,351.171,911.258,351.971,911.895,352.766z"/>
	<path fill="#FFFFFF" stroke="#FFFFFF" stroke-width="0.2" stroke-miterlimit="10" d="M945.287,247.583h-0.033
		c-3.312,0.531-6.618,1.094-9.917,1.701h0.055C938.681,248.677,941.98,248.114,945.287,247.583z"/>
	<path fill="#FFFFFF" stroke="#FFFFFF" stroke-width="0.2" stroke-miterlimit="10" d="M878.752,298.672h-1.758
		c1.404,4.183,3.313,8.217,5.467,12.109h2.181C882.352,306.889,880.302,302.854,878.752,298.672z"/>
	<path fill="#FFFFFF" stroke="#FFFFFF" stroke-width="0.2" stroke-miterlimit="10" d="M876.364,279.691
		c0.35-1.499,0.889-2.943,1.565-4.319h-0.934c-0.725,1.378-1.324,2.818-1.727,4.319c-0.174,0.65-0.305,1.309-0.408,1.974h1.165
		C876.105,281,876.213,280.341,876.364,279.691z"/>
	<path fill="#FFFFFF" stroke="#FFFFFF" stroke-width="0.2" stroke-miterlimit="10" d="M915.527,253.536h-0.183
		c-2.968,0.749-5.925,1.572-8.845,2.5h0.27C909.657,255.107,912.585,254.285,915.527,253.536z"/>
	<path fill="#FFFFFF" stroke="#FFFFFF" stroke-width="0.2" stroke-miterlimit="10" d="M891.831,262.209h-0.486
		c-2.126,1.109-4.19,2.371-6.115,3.81h0.618C887.724,264.58,889.744,263.318,891.831,262.209z"/>
</g>
</svg>
