<?xml version="1.0" encoding="utf-8"?>
<!-- Generator: Adobe Illustrator 17.1.0, SVG Export Plug-In . SVG Version: 6.00 Build 0)  -->
<!DOCTYPE svg PUBLIC "-//W3C//DTD SVG 1.1//EN" "http://www.w3.org/Graphics/SVG/1.1/DTD/svg11.dtd">
<svg version="1.1" id="l4c_e" xmlns="http://www.w3.org/2000/svg" xmlns:xlink="http://www.w3.org/1999/xlink" x="0px" y="0px"
	 width="1600px" height="480px" viewBox="0 0 1600 480" enable-background="new 0 0 1600 480" xml:space="preserve">
<linearGradient id="patch_1_" gradientUnits="userSpaceOnUse" x1="363.426" y1="480.499" x2="363.426" y2="245.7656">
	<stop  offset="0" style="stop-color:#181410"/>
	<stop  offset="1" style="stop-color:#383630"/>
</linearGradient>
<path id="patch" fill="url(#patch_1_)" d="M600.911,264.98c-0.319-2.219-1.698-4.417-3.986-6.357
	c-4.64-3.937-10.971-5.784-16.058-7.269c-9.341-2.728-18.701-4.376-26.964-5.589h-3.539l-0.069,0.495
	c0.003,0.001,0.01,0.002,0.015,0.002c9.059,1.266,19.724,2.975,30.153,6.051c4.943,1.458,11.095,3.271,15.437,7.067
	c1.417,1.238,3.164,3.237,3.435,5.726c0.272,2.492-1.162,4.92-2.601,6.967c-2.751,3.915-6.937,7.627-12.795,11.348
	c-4.552,2.891-9.975,6.271-15.678,9.423c-21.671,11.971-44.688,22.237-66.948,32.166l-4.404,1.965
	c-25.979,11.6-52.83,22.733-73.32,31.138c-13.82,5.669-27.631,11.36-41.442,17.052c-10.754,4.432-21.509,8.863-32.267,13.284
	l-224.007,92.051h10.721l218.576-91.126c10.624-4.43,21.242-8.869,31.861-13.309c13.593-5.684,27.187-11.367,40.79-17.027
	c20.203-8.407,46.674-19.546,72.261-31.15l4.343-1.968c21.93-9.937,44.606-20.211,65.895-32.202
	c5.614-3.162,10.936-6.554,15.402-9.455c5.842-3.793,9.989-7.596,12.679-11.624C599.869,270.438,601.317,267.807,600.911,264.98z"/>
<linearGradient id="road_1_" gradientUnits="userSpaceOnUse" x1="300.0865" y1="479.999" x2="300.0865" y2="245.7656">
	<stop  offset="0" style="stop-color:#181410"/>
	<stop  offset="1" style="stop-color:#383630"/>
</linearGradient>
<path id="road" fill="url(#road_1_)" d="M600.124,265.052c-0.308-2.433-1.901-4.492-3.709-6.049
	c-4.363-3.756-10.324-5.578-15.749-7.17c-9.864-2.894-20.092-4.645-30.301-6.068h-28.786c1.66,0.252,3.319,0.514,4.976,0.789
	c6.312,1.047,12.61,2.311,18.774,4.041c3.013,0.845,6.012,1.82,8.87,3.104c2.452,1.101,5.227,2.495,6.875,4.699
	c3.856,5.157-1.806,10.416-5.634,13.385c-4.853,3.765-10.305,6.761-15.757,9.558c-11.405,5.851-23.326,10.762-35.229,15.496
	c-24.543,9.761-49.462,18.588-74.419,27.225c-25.003,8.654-50.089,17.061-75.202,25.393c-25.192,8.358-50.428,16.583-75.666,24.802
	c-25.134,8.184-50.265,16.377-75.398,24.566c-25.159,8.197-50.318,16.395-75.476,24.592c-25.124,8.186-50.249,16.372-75.373,24.558
	c-17.64,5.747-35.28,11.495-52.919,17.242c0.002,4.928-0.001,9.856,0,14.784c26.529,0,114.828,0,132.447,0
	c24.352-10.079,48.705-20.159,73.057-30.238c24.48-10.132,48.96-20.264,73.44-30.396c24.526-10.151,49.052-20.302,73.577-30.453
	c24.399-10.099,48.774-20.253,73.18-30.336c24.634-10.177,49.187-20.522,72.79-31.144c23.871-10.742,47.919-21.391,70.794-34.15
	c5.292-2.952,10.437-6.161,15.54-9.438c4.807-3.087,9.545-6.826,12.736-11.482C599.009,270.25,600.458,267.695,600.124,265.052z"/>
<linearGradient id="edge_1_" gradientUnits="userSpaceOnUse" x1="267.4153" y1="465.2151" x2="267.4153" y2="245.7656">
	<stop  offset="0" style="stop-color:#181410"/>
	<stop  offset="1" style="stop-color:#383630"/>
</linearGradient>
<path id="edge" fill="url(#edge_1_)" d="M-27.532,465.215c18.244-5.747,36.488-11.495,54.732-17.242
	c25.985-8.186,51.97-16.372,77.955-24.558c26.02-8.197,52.041-16.395,78.061-24.592c25.993-8.189,51.985-16.381,77.979-24.566
	c26.102-8.218,52.202-16.443,78.273-24.802c25.988-8.332,51.958-16.739,77.87-25.393c25.864-8.638,51.711-17.464,77.28-27.225
	c12.401-4.734,24.838-9.646,36.858-15.496c5.746-2.797,11.513-5.793,16.762-9.558c4.14-2.969,10.354-8.228,7.04-13.385
	c-1.416-2.204-4.045-3.598-6.381-4.699c-2.723-1.284-5.62-2.258-8.544-3.104c-5.982-1.729-12.147-2.993-18.349-4.041
	c-1.628-0.275-3.259-0.537-4.893-0.789h4.467c1.66,0.252,3.319,0.514,4.976,0.789c6.312,1.047,12.61,2.311,18.774,4.041
	c3.013,0.845,6.012,1.82,8.87,3.104c2.452,1.101,5.227,2.495,6.875,4.699c3.856,5.157-1.806,10.416-5.634,13.385
	c-4.853,3.765-10.305,6.761-15.757,9.558c-11.405,5.851-23.326,10.762-35.229,15.496c-24.543,9.761-49.462,18.588-74.419,27.225
	c-25.003,8.654-50.089,17.061-75.202,25.393c-25.192,8.358-50.428,16.583-75.666,24.802c-25.134,8.184-50.265,16.377-75.398,24.566
	c-25.159,8.197-50.318,16.395-75.476,24.592c-25.124,8.186-50.249,16.372-75.373,24.558c-17.64,5.747-35.28,11.495-52.919,17.242
	H-27.532z"/>
<g id="line">
	<path fill="#FFFFFF" stroke="#FFFFFF" stroke-width="0.2" stroke-miterlimit="10" d="M562.047,247.583h-0.035
		c2.875,0.507,5.737,1.073,8.581,1.701h0.058C567.797,248.656,564.928,248.09,562.047,247.583z"/>
	<path fill="#FFFFFF" stroke="#FFFFFF" stroke-width="0.2" stroke-miterlimit="10" d="M447.208,350.372h-3.563
		c-6.606,2.747-13.233,5.482-19.867,8.203c-21.818,8.949-43.616,17.952-65.425,26.925h4.79
		c21.496-8.973,42.979-17.975,64.485-26.925C434.166,355.854,440.697,353.12,447.208,350.372z"/>
	<path fill="#FFFFFF" stroke="#FFFFFF" stroke-width="0.2" stroke-miterlimit="10" d="M595.644,275.372h-0.945
		c-2.141,2.342-4.638,4.426-7.259,6.293h1.165C591.16,279.798,593.585,277.715,595.644,275.372z"/>
	<path fill="#FFFFFF" stroke="#FFFFFF" stroke-width="0.2" stroke-miterlimit="10" d="M600.416,265.052
		c-0.147-1.018-0.526-1.965-1.041-2.843h-0.485c0.485,0.878,0.831,1.825,0.942,2.843c0.035,0.324,0.042,0.646,0.028,0.967h0.619
		C600.481,265.698,600.463,265.376,600.416,265.052z"/>
	<path fill="#FFFFFF" stroke="#FFFFFF" stroke-width="0.2" stroke-miterlimit="10" d="M586.171,253.536h-0.183
		c2.004,0.699,3.976,1.511,5.83,2.5h0.27C590.199,255.046,588.199,254.235,586.171,253.536z"/>
	<path fill="#FFFFFF" stroke="#FFFFFF" stroke-width="0.2" stroke-miterlimit="10" d="M560.183,298.672h-1.758
		c-8.093,4.218-16.294,8.229-24.559,12.109h2.181C544.176,306.9,552.238,302.89,560.183,298.672z"/>
	<path fill="#FFFFFF" stroke="#FFFFFF" stroke-width="0.2" stroke-miterlimit="10" d="M521.578,245.766
		c1.656,0.252,3.225,0.514,4.877,0.789c6.294,1.047,12.57,2.311,18.704,4.041c2.998,0.845,5.981,1.82,8.816,3.104
		c2.433,1.101,5.183,2.495,6.793,4.699c3.766,5.157-1.988,10.416-5.867,13.385c-4.919,3.765-10.423,6.761-15.924,9.558
		c-11.507,5.851-23.514,10.762-35.499,15.496c-24.713,9.761-49.787,18.588-74.894,27.225c-25.154,8.654-50.387,17.061-75.645,25.393
		c-25.338,8.358-50.717,16.583-76.099,24.802c-25.277,8.184-50.551,16.377-75.826,24.566c-25.302,8.197-50.604,16.395-75.906,24.592
		c-25.267,8.186-50.535,16.372-75.802,24.558c-24.688,7.999-42.429,13.746-53.22,17.242l0.883,2.254
		c17.54-5.747,42.026-13.749,59.566-19.496c24.982-8.186,49.963-16.372,74.945-24.558c25.016-8.197,50.031-16.395,75.047-24.592
		c24.99-8.189,49.978-16.381,74.969-24.566c25.094-8.218,50.187-16.443,75.233-24.802c24.967-8.332,49.906-16.739,74.758-25.393
		c24.806-8.638,49.571-17.464,73.943-27.225c11.82-4.734,23.656-9.646,34.958-15.496c5.403-2.797,10.803-5.793,15.59-9.558
		c3.776-2.969,9.346-8.228,5.4-13.385c-1.686-2.204-4.486-3.598-6.957-4.699c-2.88-1.284-5.896-2.258-8.924-3.104
		c-6.194-1.729-12.514-2.993-18.845-4.041C524.991,246.28,523.243,246.018,521.578,245.766"/>
</g>
</svg>
