<?xml version="1.0" encoding="utf-8"?>
<!-- Generator: Adobe Illustrator 17.1.0, SVG Export Plug-In . SVG Version: 6.00 Build 0)  -->
<!DOCTYPE svg PUBLIC "-//W3C//DTD SVG 1.1//EN" "http://www.w3.org/Graphics/SVG/1.1/DTD/svg11.dtd">
<svg version="1.1" id="highlight_r4c_center" xmlns="http://www.w3.org/2000/svg" xmlns:xlink="http://www.w3.org/1999/xlink"
	 x="0px" y="0px" width="1600px" height="480px" viewBox="0 0 1600 480" enable-background="new 0 0 1600 480" xml:space="preserve"
	>
<g id="shadow" opacity="0.4">
	<path stroke="#000000" stroke-width="0.2" stroke-miterlimit="10" d="M1085,283.374l-6.86,6.94
		c-0.185,0.188-0.056,0.506,0.208,0.511l33.847,0.618c0.352,0.006,0.425-0.494,0.086-0.589l-26.987-7.558
		C1085.189,283.267,1085.076,283.297,1085,283.374z"/>
	<path stroke="#000000" stroke-width="0.2" stroke-miterlimit="10" d="M1100.343,289.924l-11.677-0.237
		c4.292,4.298,9.744,7.357,15.002,10.304c5.632,3.157,11.395,6.079,17.209,8.884c11.716,5.65,23.618,10.924,35.568,16.057
		c24.359,10.462,48.932,20.421,73.572,30.198c24.625,9.772,49.319,19.374,74.057,28.856c24.686,9.462,49.403,18.841,74.141,28.167
		c24.636,9.288,49.3,18.504,73.979,27.677c24.888,9.25,49.786,18.471,74.699,27.654c14.963,5.515,29.93,11.02,44.9,16.516
		c9.402,0,18.804,0,28.206,0l0-3.804c-25.007-8.718-49.999-17.479-74.985-26.256c-25-8.782-49.991-17.593-74.961-26.459
		c-24.9-8.842-49.788-17.715-74.655-26.649c-24.924-8.955-49.827-17.97-74.684-27.107c-24.827-9.125-49.621-18.34-74.338-27.76
		c-24.599-9.376-49.158-18.91-73.394-29.194c-9.275-3.935-18.493-8-27.606-12.299c-4.366-2.06-8.708-4.178-12.929-6.525
		C1108.237,295.606,1103.985,293.1,1100.343,289.924z"/>
</g>
<path fill="#FFFFFF" stroke="#FFFFFF" stroke-width="0.2" stroke-miterlimit="10" d="M1085,279.374l-6.86,6.94
	c-0.185,0.188-0.056,0.506,0.208,0.511l33.847,0.618c0.352,0.006,0.425-0.494,0.086-0.589l-26.987-7.558
	C1085.189,279.267,1085.076,279.297,1085,279.374z"/>
<path fill="#FFFFFF" stroke="#FFFFFF" stroke-width="0.2" stroke-miterlimit="10" d="M1100.343,285.924l-11.677-0.237
	c4.292,4.298,9.744,7.357,15.002,10.304c5.632,3.157,11.395,6.079,17.209,8.884c11.716,5.65,23.618,10.924,35.568,16.057
	c24.359,10.462,48.932,20.421,73.572,30.198c24.625,9.772,49.319,19.374,74.057,28.856c24.686,9.462,49.403,18.841,74.141,28.167
	c24.636,9.288,49.3,18.504,73.979,27.677c24.888,9.25,49.786,18.471,74.699,27.654c14.963,5.515,29.93,11.02,44.9,16.516
	c9.402,0,18.804,0,28.206,0l0-3.804c-25.007-8.718-49.999-17.479-74.985-26.256c-25-8.782-49.991-17.593-74.961-26.459
	c-24.9-8.842-49.788-17.715-74.655-26.649c-24.924-8.955-49.827-17.97-74.684-27.107c-24.827-9.125-49.621-18.34-74.338-27.76
	c-24.599-9.376-49.158-18.91-73.394-29.194c-9.275-3.935-18.493-8-27.606-12.299c-4.366-2.06-8.708-4.178-12.929-6.525
	C1108.237,291.606,1103.985,289.1,1100.343,285.924z"/>
</svg>
