<?xml version="1.0" encoding="utf-8"?>
<!-- Generator: Adobe Illustrator 17.1.0, SVG Export Plug-In . SVG Version: 6.00 Build 0)  -->
<!DOCTYPE svg PUBLIC "-//W3C//DTD SVG 1.1//EN" "http://www.w3.org/Graphics/SVG/1.1/DTD/svg11.dtd">
<svg version="1.1" id="l3s" xmlns="http://www.w3.org/2000/svg" xmlns:xlink="http://www.w3.org/1999/xlink" x="0px" y="0px"
	 width="1600px" height="480px" viewBox="0 0 1600 480" enable-background="new 0 0 1600 480" xml:space="preserve">
<g id="patch">
	<linearGradient id="SVGID_1_" gradientUnits="userSpaceOnUse" x1="513.8875" y1="480.499" x2="513.8875" y2="245.7656">
		<stop  offset="0" style="stop-color:#181410"/>
		<stop  offset="1" style="stop-color:#383630"/>
	</linearGradient>
	<path fill="url(#SVGID_1_)" d="M722.194,245.766c-40.282,22.624-201.513,113.192-311.357,174.896l-106.524,59.838h10.133
		l139.721-80.037c104.724-59.988,235.215-134.738,269.296-154.263l-0.246-0.434H722.194z"/>
	<linearGradient id="SVGID_2_" gradientUnits="userSpaceOnUse" x1="412.2146" y1="480.499" x2="412.2146" y2="245.7656">
		<stop  offset="0" style="stop-color:#181410"/>
		<stop  offset="1" style="stop-color:#383630"/>
	</linearGradient>
	<path fill="url(#SVGID_2_)" d="M697.051,245.766c-60.632,24.914-307.356,126.309-455.448,187.171l-115.734,47.563h10.721
		l0.092-0.038c14.014-5.843,246.879-102.919,411.736-171.644l150.139-62.589l0.002-0.001l-0.191-0.462H697.051z"/>
</g>
<linearGradient id="road_1_" gradientUnits="userSpaceOnUse" x1="427.8298" y1="479.999" x2="427.8298" y2="245.7656">
	<stop  offset="0" style="stop-color:#181410"/>
	<stop  offset="1" style="stop-color:#383630"/>
</linearGradient>
<path id="road" fill="url(#road_1_)" d="M698.368,245.766c-82.648,34.205-545.904,225.948-565.922,234.233
	c26.559,0,171.679,0,177.822,0c21.141-11.992,354.999-201.365,412.946-234.233H698.368z"/>
<g id="line">
	<path fill="#FFFFFF" stroke="#FFFFFF" stroke-width="0.2" stroke-miterlimit="10" d="M720.041,247.583h-0.063
		c-0.958,0.538-1.964,1.103-3.028,1.701h0.123C718.115,248.686,719.101,248.122,720.041,247.583z"/>
	<path fill="#FFFFFF" stroke="#FFFFFF" stroke-width="0.2" stroke-miterlimit="10" d="M709.65,253.536h-0.27
		c-1.425,0.8-2.909,1.634-4.451,2.5h0.357C706.799,255.169,708.254,254.336,709.65,253.536z"/>
	<path fill="#FFFFFF" stroke="#FFFFFF" stroke-width="0.2" stroke-miterlimit="10" d="M630.858,298.672h-1.832
		c-6.982,3.922-14.184,7.968-21.557,12.109h2.25C616.949,306.639,624.011,302.594,630.858,298.672z"/>
	<path fill="#FFFFFF" stroke="#FFFFFF" stroke-width="0.2" stroke-miterlimit="10" d="M536.987,350.372
		c-20.876,11.727-41.99,23.587-62.534,35.128h4.828c20.146-11.54,40.851-23.401,61.323-35.128H536.987z"/>
	<path fill="#FFFFFF" stroke="#FFFFFF" stroke-width="0.2" stroke-miterlimit="10" d="M671.531,275.372h-1.026
		c-3.616,2.031-7.354,4.131-11.202,6.293h1.244C664.319,279.503,667.985,277.404,671.531,275.372z"/>
	<path fill="#FFFFFF" stroke="#FFFFFF" stroke-width="0.2" stroke-miterlimit="10" d="M694.51,262.209h-0.571
		c-2.184,1.227-4.445,2.497-6.782,3.81h0.703C690.151,264.706,692.368,263.436,694.51,262.209z"/>
	<path fill="#FFFFFF" stroke="#FFFFFF" stroke-width="0.2" stroke-miterlimit="10" d="M694.008,247.583h-0.063
		c-1.31,0.538-2.692,1.106-4.139,1.701h0.123C691.354,248.689,692.716,248.122,694.008,247.583z"/>
	<path fill="#FFFFFF" stroke="#FFFFFF" stroke-width="0.2" stroke-miterlimit="10" d="M679.729,253.536h-0.27
		c-1.949,0.801-3.978,1.635-6.084,2.5h0.357C675.808,255.17,677.807,254.337,679.729,253.536z"/>
	<path fill="#FFFFFF" stroke="#FFFFFF" stroke-width="0.2" stroke-miterlimit="10" d="M571.457,298.672h-1.832
		c-9.548,3.924-19.388,7.968-29.465,12.109h2.25C552.344,306.639,562.045,302.596,571.457,298.672z"/>
	<path fill="#FFFFFF" stroke="#FFFFFF" stroke-width="0.2" stroke-miterlimit="10" d="M443.821,350.372
		c-28.546,11.731-57.405,23.591-85.476,35.128h4.828c27.673-11.536,56.123-23.396,84.264-35.128H443.821z"/>
	<path fill="#FFFFFF" stroke="#FFFFFF" stroke-width="0.2" stroke-miterlimit="10" d="M627.347,275.372h-1.027
		c-4.945,2.032-10.054,4.132-15.312,6.293h1.244C617.436,279.504,622.472,277.405,627.347,275.372z"/>
	<path fill="#FFFFFF" stroke="#FFFFFF" stroke-width="0.2" stroke-miterlimit="10" d="M658.923,262.209h-0.571
		c-2.983,1.226-6.083,2.5-9.27,3.81h0.703C652.927,264.709,655.983,263.435,658.923,262.209z"/>
</g>
</svg>
