<?xml version="1.0" encoding="utf-8"?>
<!-- Generator: Adobe Illustrator 17.1.0, SVG Export Plug-In . SVG Version: 6.00 Build 0)  -->
<!DOCTYPE svg PUBLIC "-//W3C//DTD SVG 1.1//EN" "http://www.w3.org/Graphics/SVG/1.1/DTD/svg11.dtd">
<svg version="1.1" id="highlight_r0c_new1" xmlns="http://www.w3.org/2000/svg" xmlns:xlink="http://www.w3.org/1999/xlink" x="0px"
	 y="0px" width="1600px" height="480px" viewBox="0 0 1600 480" enable-background="new 0 0 1600 480" xml:space="preserve">
<g id="shadow" opacity="0.4">
	<path stroke="#000000" stroke-width="0.2" stroke-miterlimit="10" d="M836.555,299.37l-13.419,10.636
		c-0.223,0.177-0.098,0.535,0.187,0.535l38.085-0.046c0.326,0,0.417-0.447,0.118-0.576l-24.666-10.59
		C836.758,299.286,836.641,299.302,836.555,299.37z"/>
	<path stroke="#000000" stroke-width="0.2" stroke-miterlimit="10" d="M835.315,308.673c2.103,4.366,3.99,9.098,4.157,14.001
		c0.18,5.285-2.221,9.745-6.57,12.718c-4.818,3.294-10.748,4.803-16.274,6.436c-5.68,1.679-11.322,3.526-16.665,6.11
		c-5.22,2.525-10.058,5.751-14.243,9.775c-4.106,3.947-7.604,8.504-10.578,13.352c-6.556,10.686-11.289,22.427-15.439,34.219
		c-4.331,12.305-7.907,24.885-11.27,37.484c-3.383,12.675-6.505,25.429-9.452,38.212c-0.233,1.01-0.465,2.02-0.698,3.029
		c11.932,0,23.864,0,35.796,0c2.606-26.144,5.509-52.375,10.962-78.103c2.543-11.997,5.736-23.985,11.284-34.984
		c2.565-5.085,5.705-9.979,9.679-14.084c3.804-3.929,8.46-6.93,13.401-9.228c4.868-2.264,10.018-3.761,15.123-5.378
		c5.015-1.589,10.461-3.144,14.634-6.485c3.656-2.927,5.559-7.192,5.056-11.868c-0.594-5.528-3.311-10.562-6.17-15.225
		L835.315,308.673z"/>
</g>
<path fill="#FFFFFF" stroke="#FFFFFF" stroke-width="0.2" stroke-miterlimit="10" d="M836.555,295.37l-13.419,10.636
	c-0.223,0.177-0.098,0.535,0.187,0.535l38.085-0.046c0.326,0,0.417-0.447,0.118-0.576l-24.666-10.59
	C836.758,295.286,836.641,295.302,836.555,295.37z"/>
<path fill="#FFFFFF" stroke="#FFFFFF" stroke-width="0.2" stroke-miterlimit="10" d="M835.315,304.673
	c2.103,4.366,3.99,9.098,4.157,14.001c0.18,5.285-2.221,9.745-6.57,12.718c-4.818,3.294-10.748,4.803-16.274,6.436
	c-5.68,1.679-11.322,3.526-16.665,6.11c-5.22,2.525-10.058,5.751-14.243,9.775c-4.106,3.947-7.604,8.504-10.578,13.352
	c-6.556,10.686-11.289,22.427-15.439,34.219c-4.331,12.305-7.907,24.885-11.27,37.484c-3.383,12.675-6.505,25.429-9.452,38.212
	c-0.233,1.01-0.465,2.02-0.698,3.029c11.932,0,23.864,0,35.796,0c2.606-26.144,5.509-52.375,10.962-78.103
	c2.543-11.997,5.736-23.985,11.284-34.984c2.565-5.085,5.705-9.979,9.679-14.084c3.804-3.929,8.46-6.93,13.401-9.228
	c4.868-2.264,10.018-3.761,15.123-5.378c5.015-1.589,10.461-3.144,14.634-6.485c3.656-2.927,5.559-7.192,5.056-11.868
	c-0.594-5.528-3.311-10.562-6.17-15.225L835.315,304.673z"/>
</svg>
