<?xml version="1.0" encoding="utf-8"?>
<!-- Generator: Adobe Illustrator 17.1.0, SVG Export Plug-In . SVG Version: 6.00 Build 0)  -->
<!DOCTYPE svg PUBLIC "-//W3C//DTD SVG 1.1//EN" "http://www.w3.org/Graphics/SVG/1.1/DTD/svg11.dtd">
<svg version="1.1" id="ycs_center_el" xmlns="http://www.w3.org/2000/svg" xmlns:xlink="http://www.w3.org/1999/xlink" x="0px"
	 y="0px" width="1600px" height="480px" viewBox="0 0 1600 480" enable-background="new 0 0 1600 480" xml:space="preserve">
<linearGradient id="patch_1_" gradientUnits="userSpaceOnUse" x1="857.2656" y1="480.499" x2="857.2656" y2="245.7656">
	<stop  offset="0" style="stop-color:#181410"/>
	<stop  offset="1" style="stop-color:#383630"/>
</linearGradient>
<path id="patch" fill="url(#patch_1_)" d="M901.535,479.823c-14.644-39.025-29.277-78.051-43.91-117.075
	c-14.622-38.994-29.242-77.988-43.875-116.982h-0.557l-0.45,0.161c13.139,38.604,26.287,77.206,39.437,115.809
	c13.446,39.475,26.892,78.95,40.326,118.425l0.115,0.339h9.169L901.535,479.823z"/>
<g id="road_1_">
	<linearGradient id="SVGID_1_" gradientUnits="userSpaceOnUse" x1="800.0001" y1="479.999" x2="800.0001" y2="245.7656">
		<stop  offset="0" style="stop-color:#181410"/>
		<stop  offset="1" style="stop-color:#383630"/>
	</linearGradient>
	<path fill="url(#SVGID_1_)" d="M786.784,245.766c-27.936,78.078-55.871,156.156-83.806,234.233c64.682,0,129.363,0,194.045,0
		c-27.935-78.078-55.871-156.156-83.807-234.233H786.784z"/>
	<linearGradient id="SVGID_2_" gradientUnits="userSpaceOnUse" x1="728.5586" y1="479.999" x2="728.5587" y2="245.7656">
		<stop  offset="0" style="stop-color:#181410"/>
		<stop  offset="1" style="stop-color:#383630"/>
	</linearGradient>
	<path fill="url(#SVGID_2_)" d="M816.294,339.934c-7.132-10.308-15.005-20.187-23.799-29.132
		c-8.655-8.803-18.39-16.479-28.796-23.11c-21.561-13.739-46.155-21.869-70.892-27.74c-25.532-6.059-51.605-9.797-77.657-12.772
		c-4.344-0.496-8.691-0.964-13.04-1.415h-31.322c17.459,1.885,34.878,4.172,52.151,7.311c12.752,2.318,25.5,5.067,37.875,8.954
		c11.743,3.688,23.381,8.28,33.579,15.28c9.364,6.427,16.979,14.948,21.582,25.385c5.071,11.5,6.327,24.293,6.211,36.748
		c-0.122,13.1-1.929,26.273-4.287,39.138c-2.369,12.924-5.067,25.797-8.251,38.545c-5.269,21.095-11.172,42.058-17.45,62.873
		c26.497,0,52.994,0,79.491,0c26.297,0,52.595,0,78.892,0c11.916,0,23.833,0,35.749,0c-10.057-24.275-20.475-48.45-31.912-72.111
		C843.11,384.495,831.101,361.335,816.294,339.934z"/>
</g>
<linearGradient id="edge__l_1_" gradientUnits="userSpaceOnUse" x1="676.9405" y1="479.999" x2="676.9405" y2="245.7656">
	<stop  offset="0" style="stop-color:#181410"/>
	<stop  offset="1" style="stop-color:#383630"/>
</linearGradient>
<path id="edge__l" fill="url(#edge__l_1_)" d="M663.888,479.999c8.466-20.815,16.572-41.779,24.058-62.873
	c4.524-12.748,8.575-25.622,12.303-38.545c3.711-12.865,6.902-26.038,8.401-39.138c1.425-12.454,1.514-25.248-2.349-36.748
	c-3.506-10.437-10.225-18.957-18.914-25.385c-9.462-7-20.617-11.592-31.973-15.28c-11.966-3.886-24.425-6.636-36.934-8.954
	c-16.943-3.14-34.121-5.426-51.383-7.311h3.691c17.459,1.885,34.878,4.172,52.151,7.311c12.752,2.318,25.5,5.067,37.875,8.954
	c11.743,3.688,23.381,8.28,33.579,15.28c9.364,6.427,16.979,14.948,21.582,25.385c5.071,11.5,6.327,24.293,6.211,36.748
	c-0.122,13.1-1.929,26.273-4.287,39.138c-2.369,12.924-5.067,25.797-8.251,38.545c-5.269,21.095-11.172,42.058-17.45,62.873H663.888
	z M783.093,245.766c-5.907,12.762-11.815,25.524-17.722,38.286c-21.275-11.561-44.365-18.769-67.383-24.098
	c-26.169-6.059-52.635-9.797-78.999-12.772c-4.396-0.496-8.793-0.964-13.189-1.415h-3.691c4.349,0.451,8.696,0.919,13.04,1.415
	c26.052,2.975,52.125,6.713,77.657,12.772c24.733,5.87,49.323,13.999,70.882,27.733c0.003,0.002,0.007,0.004,0.01,0.006
	c2.207,1.406,4.377,2.87,6.52,4.372c0.522-1.459,1.044-2.919,1.566-4.378c5-13.974,9.999-27.947,14.999-41.921H783.093z"/>
<g id="line__l_1_">
	<path fill="#FFFFFF" stroke="#FFFFFF" stroke-width="0.2" stroke-miterlimit="10" d="M570.788,245.766
		c17.427,1.885,34.85,4.172,52.068,7.311c12.712,2.318,25.412,5.067,37.719,8.954c11.679,3.688,23.237,8.28,33.312,15.28
		c9.252,6.427,16.718,14.948,21.139,25.385c4.87,11.5,5.903,24.293,5.57,36.748c-0.351,13.1-2.387,26.273-4.97,39.138
		c-2.595,12.924-5.518,25.797-8.924,38.545c-5.637,21.095-11.906,42.058-18.547,62.873h8.089
		c5.915-20.815,11.452-41.779,16.352-62.873c2.962-12.748,5.435-25.622,7.579-38.545c2.134-12.865,3.71-26.038,3.604-39.138
		c-0.101-12.454-1.581-25.248-6.853-36.748c-4.785-10.437-12.549-18.957-22.025-25.385c-10.32-7-22.038-11.592-33.846-15.28
		c-12.443-3.886-25.239-6.636-38.031-8.954C605.694,249.937,588.28,247.651,570.788,245.766"/>
	<path fill="#FFFFFF" stroke="#FFFFFF" stroke-width="0.2" stroke-miterlimit="10" d="M813.898,247.583h-0.063
		c0.193,0.567,0.386,1.134,0.579,1.701h0.121C814.323,248.717,814.111,248.15,813.898,247.583z"/>
	<path fill="#FFFFFF" stroke="#FFFFFF" stroke-width="0.2" stroke-miterlimit="10" d="M824.32,275.372h-1.022
		c0.714,2.097,1.429,4.195,2.143,6.293h1.24C825.894,279.568,825.107,277.47,824.32,275.372z"/>
	<path fill="#FFFFFF" stroke="#FFFFFF" stroke-width="0.2" stroke-miterlimit="10" d="M833.059,298.672h-1.827
		c1.375,4.036,2.749,8.073,4.123,12.109h2.245C836.087,306.744,834.573,302.708,833.059,298.672z"/>
	<path fill="#FFFFFF" stroke="#FFFFFF" stroke-width="0.2" stroke-miterlimit="10" d="M848.837,350.372
		c3.988,11.709,7.974,23.418,11.962,35.128h4.825c-4.391-11.709-8.784-23.418-13.175-35.128H848.837z"/>
	<path fill="#FFFFFF" stroke="#FFFFFF" stroke-width="0.2" stroke-miterlimit="10" d="M816.13,253.536h-0.268
		c0.284,0.833,0.568,1.667,0.851,2.5h0.355C816.755,255.202,816.443,254.369,816.13,253.536z"/>
	<path fill="#FFFFFF" stroke="#FFFFFF" stroke-width="0.2" stroke-miterlimit="10" d="M819.383,262.209h-0.568
		c0.432,1.27,0.865,2.54,1.297,3.81h0.699C820.336,264.749,819.86,263.479,819.383,262.209z"/>
	<path fill="#FFFFFF" stroke="#FFFFFF" stroke-width="0.2" stroke-miterlimit="10" d="M786.784,245.766
		c-5.683,15.144-11.364,30.288-17.044,45.432l-0.006-0.005c-1.762-1.198-3.545-2.364-5.348-3.5
		c-21.801-13.739-46.537-21.869-71.376-27.74c-25.638-6.059-51.776-9.797-77.88-12.772c-4.353-0.496-8.664-0.964-13.02-1.415
		c4.341,0.451,8.724,0.919,13.06,1.415c26,2.975,52.008,6.713,77.434,12.772c24.635,5.87,49.086,14.001,70.408,27.74
		c2.172,1.399,4.313,2.845,6.419,4.338c0.433,0.307,0.864,0.615,1.294,0.926l-0.005-0.003
		C770.819,292.661,781.53,261.202,786.784,245.766"/>
</g>
</svg>
