<?xml version="1.0" encoding="utf-8"?>
<!-- Generator: Adobe Illustrator 17.1.0, SVG Export Plug-In . SVG Version: 6.00 Build 0)  -->
<!DOCTYPE svg PUBLIC "-//W3C//DTD SVG 1.1//EN" "http://www.w3.org/Graphics/SVG/1.1/DTD/svg11.dtd">
<svg version="1.1" id="highlight_l0c_new2" xmlns="http://www.w3.org/2000/svg" xmlns:xlink="http://www.w3.org/1999/xlink" x="0px"
	 y="0px" width="1600px" height="480px" viewBox="0 0 1600 480" enable-background="new 0 0 1600 480" xml:space="preserve">
<g id="shadow" opacity="0.4">
	<path stroke="#000000" stroke-width="0.2" stroke-miterlimit="10" d="M720.976,299.444l-27.496,10.666
		c-0.31,0.12-0.223,0.58,0.109,0.58l38.197-0.046c0.268,0,0.401-0.324,0.211-0.513l-10.701-10.619
		C721.211,299.427,721.086,299.401,720.976,299.444z"/>
	<path stroke="#000000" stroke-width="0.2" stroke-miterlimit="10" d="M707.332,308.811c-3.252,3.795-6.51,8.069-7.743,13.003
		c-1.341,5.368,0.908,10.105,5.154,13.434c4.543,3.563,10.368,5.432,15.846,7c6.149,1.76,12.428,3.008,18.73,4.078
		c12.81,2.176,25.704,3.838,38.439,6.45c12.357,2.535,24.376,6.101,35.783,11.544c5.522,2.635,10.892,5.622,15.931,9.097
		c5,3.449,9.697,7.318,14.228,11.358c9.383,8.366,17.395,18.023,24.977,28.017c15.649,20.628,28.556,43.325,40.867,66.051
		c0.929,1.715,1.853,3.433,2.767,5.156c11.94,0,23.88,0,35.82,0c-14.361-21.679-29.384-42.981-45.942-63.047
		c-15.87-19.232-33.885-37.643-55.522-50.365c-10.814-6.359-22.382-11.224-34.402-14.786c-12.494-3.703-25.328-5.984-38.184-8.01
		c-12.52-1.974-25.172-3.487-37.48-6.597c-9.155-2.313-22.936-7.036-22.518-18.648c0.186-5.178,3.079-9.686,6.023-13.746
		L707.332,308.811z"/>
</g>
<path fill="#FFFFFF" stroke="#FFFFFF" stroke-width="0.2" stroke-miterlimit="10" d="M720.976,295.444l-27.496,10.666
	c-0.31,0.12-0.223,0.58,0.109,0.58l38.197-0.046c0.268,0,0.401-0.324,0.211-0.513l-10.701-10.619
	C721.211,295.427,721.086,295.401,720.976,295.444z"/>
<path fill="#FFFFFF" stroke="#FFFFFF" stroke-width="0.2" stroke-miterlimit="10" d="M707.332,304.811
	c-3.252,3.795-6.51,8.069-7.743,13.003c-1.341,5.368,0.908,10.105,5.154,13.434c4.543,3.563,10.368,5.432,15.846,7
	c6.149,1.76,12.428,3.008,18.73,4.078c12.81,2.176,25.704,3.838,38.439,6.45c12.357,2.535,24.376,6.101,35.783,11.544
	c5.522,2.635,10.892,5.622,15.931,9.097c5,3.449,9.697,7.318,14.228,11.358c9.383,8.366,17.395,18.023,24.977,28.017
	c15.649,20.628,28.556,43.325,40.867,66.051c0.929,1.715,1.853,3.433,2.767,5.156c11.94,0,23.88,0,35.82,0
	c-14.361-21.679-29.384-42.981-45.942-63.047c-15.87-19.232-33.885-37.643-55.522-50.365c-10.814-6.359-22.382-11.224-34.402-14.786
	c-12.494-3.703-25.328-5.984-38.184-8.01c-12.52-1.974-25.172-3.487-37.48-6.597c-9.155-2.313-22.936-7.036-22.518-18.648
	c0.186-5.178,3.079-9.686,6.023-13.746L707.332,304.811z"/>
</svg>
