<?xml version="1.0" encoding="utf-8"?>
<!-- Generator: Adobe Illustrator 17.1.0, SVG Export Plug-In . SVG Version: 6.00 Build 0)  -->
<!DOCTYPE svg PUBLIC "-//W3C//DTD SVG 1.1//EN" "http://www.w3.org/Graphics/SVG/1.1/DTD/svg11.dtd">
<svg version="1.1" id="highlight_r2c" xmlns="http://www.w3.org/2000/svg" xmlns:xlink="http://www.w3.org/1999/xlink" x="0px"
	 y="0px" width="1600px" height="480px" viewBox="0 0 1600 480" enable-background="new 0 0 1600 480" xml:space="preserve">
<g id="shadow" opacity="0.4">
	<path stroke="#000000" stroke-width="0.2" stroke-miterlimit="10" d="M964.79,299.338l-7.177,10.383
		c-0.137,0.198,0.004,0.469,0.244,0.471l38.428,0.308c0.34,0.003,0.422-0.474,0.099-0.584l-31.252-10.691
		C965.007,299.181,964.866,299.228,964.79,299.338z"/>
	<path stroke="#000000" stroke-width="0.2" stroke-miterlimit="10" d="M969.712,308.448c9.703,8.295,20.372,15.412,31.109,22.281
		c11.066,7.08,22.349,13.827,33.691,20.455c22.807,13.327,45.852,26.247,68.924,39.108c22.959,12.798,45.959,25.523,68.956,38.254
		c23.078,12.776,46.155,25.554,69.22,38.355c10.262,5.695,20.522,11.395,30.78,17.098c11.934,0,23.869,0,35.803,0
		c-23.475-12.162-46.96-24.306-70.451-36.438c-23.521-12.147-47.05-24.279-70.571-36.428
		c-23.443-12.109-46.882-24.227-70.248-36.486c-23.376-12.264-46.746-24.58-69.671-37.673
		c-15.309-8.743-30.682-17.678-44.684-28.437L969.712,308.448z"/>
</g>
<path fill="#FFFFFF" stroke="#FFFFFF" stroke-width="0.2" stroke-miterlimit="10" d="M964.79,295.338l-7.177,10.383
	c-0.137,0.198,0.004,0.469,0.244,0.471l38.428,0.308c0.34,0.003,0.422-0.474,0.099-0.584l-31.252-10.691
	C965.007,295.181,964.866,295.228,964.79,295.338z"/>
<path fill="#FFFFFF" stroke="#FFFFFF" stroke-width="0.2" stroke-miterlimit="10" d="M969.712,304.448
	c9.703,8.295,20.372,15.412,31.109,22.281c11.066,7.08,22.349,13.827,33.691,20.455c22.807,13.327,45.852,26.247,68.924,39.108
	c22.959,12.798,45.959,25.523,68.956,38.254c23.078,12.776,46.155,25.554,69.22,38.355c10.262,5.695,20.522,11.395,30.78,17.098
	c11.934,0,23.869,0,35.803,0c-23.475-12.162-46.96-24.306-70.451-36.438c-23.521-12.147-47.05-24.279-70.571-36.428
	c-23.443-12.109-46.882-24.227-70.248-36.486c-23.376-12.264-46.746-24.58-69.671-37.673c-15.309-8.743-30.682-17.678-44.684-28.437
	L969.712,304.448z"/>
</svg>
