<?xml version="1.0" encoding="utf-8"?>
<!-- Generator: Adobe Illustrator 17.1.0, SVG Export Plug-In . SVG Version: 6.00 Build 0)  -->
<!DOCTYPE svg PUBLIC "-//W3C//DTD SVG 1.1//EN" "http://www.w3.org/Graphics/SVG/1.1/DTD/svg11.dtd">
<svg version="1.1" id="l3c_center_e" xmlns="http://www.w3.org/2000/svg" xmlns:xlink="http://www.w3.org/1999/xlink" x="0px"
	 y="0px" width="1600px" height="480px" viewBox="0 0 1600 480" enable-background="new 0 0 1600 480" xml:space="preserve">
<linearGradient id="patch_1_" gradientUnits="userSpaceOnUse" x1="445.8712" y1="480.499" x2="445.8712" y2="245.7656">
	<stop  offset="0" style="stop-color:#181410"/>
	<stop  offset="1" style="stop-color:#383630"/>
</linearGradient>
<path id="patch" fill="url(#patch_1_)" d="M589.829,268.881c-3.939-4.461-9.663-7.242-14.208-9.167
	c-11.686-4.945-24.211-7.48-36.039-9.653c-8.518-1.564-17.683-2.944-28.55-4.295h-4.124l-0.059,0.496
	c0.005-0.001,0.015,0.002,0.022,0.003c12.776,1.529,23.088,3.049,32.452,4.779c11.697,2.163,24.072,4.685,35.492,9.59
	c4.039,1.736,9.836,4.547,13.529,8.901c3.494,4.12,4.44,9.497,2.596,14.753c-1.613,4.598-4.611,9.269-9.435,14.7
	c-4.064,4.577-8.583,8.642-12.861,12.351c-20.223,17.533-43.224,32.489-63.518,45.686c-24.075,15.654-48.715,30.576-67.492,41.827
	c-21.763,13.039-44.897,26.701-68.76,40.606c-24.078,14.031-48.475,28.06-69.452,40.107l-1.625,0.934h10.099l0.117-0.068
	c20.577-12.061,44.503-26.101,68.056-40.111c23.389-13.912,46.05-27.576,67.353-40.612c18.392-11.256,42.522-26.185,66.063-41.848
	c19.86-13.213,42.37-28.19,62.033-45.77c4.172-3.731,8.577-7.821,12.521-12.445c4.721-5.534,7.616-10.313,9.109-15.04
	C594.918,279.006,593.708,273.274,589.829,268.881z"/>
<linearGradient id="road_1_" gradientUnits="userSpaceOnUse" x1="351.2294" y1="479.999" x2="351.2294" y2="245.7656">
	<stop  offset="0" style="stop-color:#181410"/>
	<stop  offset="1" style="stop-color:#383630"/>
</linearGradient>
<path id="road" fill="url(#road_1_)" d="M589.089,269.212c-3.586-4.143-8.904-6.92-13.871-9.037
	c-11.366-4.846-23.669-7.393-35.767-9.622c-10.788-1.988-21.654-3.486-32.544-4.787h-32.286c10.794,1.358,21.567,2.938,32.218,5.158
	c6.27,1.307,12.552,2.787,18.616,4.867c5.319,1.825,11.043,4.072,15.126,8.08c1.758,1.726,3.156,3.796,3.441,6.294
	c0.255,2.233-0.366,4.463-1.34,6.457c-2.097,4.291-5.652,7.764-9.246,10.819c-9.523,8.096-20.386,14.69-31.262,20.789
	c-22.892,12.837-46.643,24.1-70.451,35.114c-23.987,11.097-48.179,21.755-72.42,32.284c-24.309,10.557-48.709,20.906-73.128,31.204
	c-24.393,10.288-48.821,20.494-73.28,30.623c-24.376,10.094-48.76,20.168-73.168,30.185c-10.052,4.125-20.108,8.238-30.162,12.359
	c26.545,0,182.523,0,194.152,0c22.95-13.315,45.889-26.648,68.754-40.109c22.766-13.403,45.458-26.927,68.056-40.61
	c22.464-13.602,44.835-27.405,66.777-41.837c21.591-14.201,43.341-28.619,62.775-45.727c4.436-3.905,8.806-7.933,12.691-12.396
	c3.795-4.359,7.427-9.331,9.272-14.866C593.827,279.099,592.797,273.496,589.089,269.212z"/>
<linearGradient id="edge_1_" gradientUnits="userSpaceOnUse" x1="312.6666" y1="479.999" x2="312.6666" y2="245.7656">
	<stop  offset="0" style="stop-color:#181410"/>
	<stop  offset="1" style="stop-color:#383630"/>
</linearGradient>
<path id="edge" fill="url(#edge_1_)" d="M81.254,479.999c10.487-4.121,20.976-8.234,31.461-12.359
	c25.46-10.017,50.904-20.09,76.34-30.185c25.524-10.129,51.025-20.335,76.499-30.623c25.502-10.299,50.989-20.647,76.408-31.204
	c25.348-10.528,50.66-21.186,75.813-32.284c24.966-11.015,49.901-22.278,74.142-35.114c11.517-6.099,23.073-12.694,33.447-20.789
	c3.916-3.056,7.836-6.529,10.383-10.819c1.184-1.994,2.039-4.224,2.019-6.457c-0.023-2.497-1.203-4.568-2.78-6.294
	c-3.661-4.009-9.149-6.256-14.277-8.08c-5.845-2.08-11.972-3.559-18.104-4.867c-10.417-2.221-21.025-3.8-31.676-5.158h3.691
	c10.794,1.358,21.567,2.938,32.218,5.158c6.27,1.307,12.552,2.787,18.616,4.867c5.319,1.825,11.043,4.072,15.126,8.08
	c1.758,1.726,3.156,3.796,3.441,6.294c0.255,2.233-0.366,4.463-1.34,6.457c-2.097,4.291-5.652,7.764-9.246,10.819
	c-9.523,8.096-20.386,14.69-31.262,20.789c-22.892,12.837-46.643,24.1-70.451,35.114c-23.987,11.097-48.179,21.755-72.42,32.284
	c-24.309,10.557-48.709,20.906-73.128,31.204c-24.393,10.288-48.821,20.494-73.28,30.623c-24.376,10.094-48.76,20.168-73.168,30.185
	c-10.052,4.125-20.108,8.238-30.162,12.359H81.254z"/>
<g id="line">
	<path fill="#FFFFFF" stroke="#FFFFFF" stroke-width="0.2" stroke-miterlimit="10" d="M520.913,247.583h-0.028
		c3.747,0.526,7.487,1.086,11.217,1.701h0.047C528.409,248.669,524.663,248.109,520.913,247.583z"/>
	<path fill="#FFFFFF" stroke="#FFFFFF" stroke-width="0.2" stroke-miterlimit="10" d="M583.66,299.32
		c0.181-0.212,0.359-0.433,0.539-0.648h-1.758c-0.188,0.215-0.373,0.436-0.562,0.648c-3.65,4.11-7.708,7.845-11.844,11.461h2.181
		C576.225,307.165,580.153,303.43,583.66,299.32z"/>
	<path fill="#FFFFFF" stroke="#FFFFFF" stroke-width="0.2" stroke-miterlimit="10" d="M519.79,350.372h-3.563
		c-3.607,2.37-7.22,4.724-10.829,7.071c-14.747,9.589-29.68,18.897-44.7,28.057h4.79c14.7-9.159,29.308-18.468,43.72-28.057
		C512.736,355.097,516.266,352.742,519.79,350.372z"/>
	<path fill="#FFFFFF" stroke="#FFFFFF" stroke-width="0.2" stroke-miterlimit="10" d="M592.853,275.372h-0.945
		c0.507,2.03,0.58,4.159,0.219,6.293h1.165C593.578,279.531,593.43,277.402,592.853,275.372z"/>
	<path fill="#FFFFFF" stroke="#FFFFFF" stroke-width="0.2" stroke-miterlimit="10" d="M554.165,253.536h-0.183
		c3.176,0.741,6.33,1.567,9.446,2.5h0.27C560.55,255.103,557.367,254.276,554.165,253.536z"/>
	<path fill="#FFFFFF" stroke="#FFFFFF" stroke-width="0.2" stroke-miterlimit="10" d="M579.816,262.209h-0.485
		c2.115,1.093,4.174,2.346,6.028,3.81h0.618C584.072,264.555,581.969,263.302,579.816,262.209z"/>
	<path fill="#FFFFFF" stroke="#FFFFFF" stroke-width="0.2" stroke-miterlimit="10" d="M474.621,245.766
		c10.77,1.358,21.56,2.938,32.172,5.158c6.247,1.307,12.503,2.787,18.531,4.867c5.287,1.825,10.972,4.072,14.985,8.08
		c1.727,1.726,3.089,3.796,3.331,6.294c0.216,2.233-0.444,4.463-1.453,6.457c-2.172,4.291-5.787,7.764-9.435,10.819
		c-9.665,8.096-20.643,14.69-31.625,20.789c-23.116,12.837-47.064,24.1-71.064,35.114c-24.181,11.097-48.558,21.755-72.984,32.284
		c-24.493,10.557-49.074,20.906-73.673,31.204c-24.572,10.288-49.179,20.494-73.815,30.623
		c-24.552,10.094-49.112,20.168-73.695,30.185c-10.124,4.125-20.252,8.238-30.378,12.359h8.089
		c9.982-4.121,19.966-8.234,29.946-12.359c24.233-10.017,48.442-20.09,72.641-30.185c24.282-10.129,48.532-20.335,72.746-30.623
		c24.239-10.299,48.459-20.647,72.583-31.204c24.058-10.528,48.063-21.186,71.857-32.284c23.616-11.015,47.17-22.278,69.838-35.114
		c10.77-6.099,21.518-12.694,30.9-20.789c3.541-3.056,7.035-6.529,9.057-10.819c0.94-1.994,1.522-4.224,1.227-6.457
		c-0.329-2.497-1.763-4.568-3.551-6.294c-4.153-4.009-9.916-6.256-15.267-8.08c-6.1-2.08-12.408-3.559-18.701-4.867
		C496.195,248.703,485.439,247.124,474.621,245.766"/>
</g>
</svg>
