<?xml version="1.0" encoding="utf-8"?>
<!-- Generator: Adobe Illustrator 17.1.0, SVG Export Plug-In . SVG Version: 6.00 Build 0)  -->
<!DOCTYPE svg PUBLIC "-//W3C//DTD SVG 1.1//EN" "http://www.w3.org/Graphics/SVG/1.1/DTD/svg11.dtd">
<svg version="1.1" id="r2s_e" xmlns="http://www.w3.org/2000/svg" xmlns:xlink="http://www.w3.org/1999/xlink" x="0px" y="0px"
	 width="1600px" height="480px" viewBox="0 0 1600 480" enable-background="new 0 0 1600 480" xml:space="preserve">
<linearGradient id="patch_1_" gradientUnits="userSpaceOnUse" x1="1026.127" y1="480.499" x2="1026.127" y2="245.7656">
	<stop  offset="0" style="stop-color:#181410"/>
	<stop  offset="1" style="stop-color:#383630"/>
</linearGradient>
<path id="patch" fill="url(#patch_1_)" d="M1166.001,454.776c-82.339-54.18-273.633-180.054-317.652-209.011h-0.913l-0.276,0.415
	l192.633,129.696c78.415,52.796,150.859,101.571,155.263,104.537l0.127,0.085h9.911L1166.001,454.776z"/>
<linearGradient id="road_1_" gradientUnits="userSpaceOnUse" x1="1112.3204" y1="479.999" x2="1112.3204" y2="245.7656">
	<stop  offset="0" style="stop-color:#181410"/>
	<stop  offset="1" style="stop-color:#383630"/>
</linearGradient>
<path id="road" fill="url(#road_1_)" d="M1377.202,479.999c-22.019-10.215-433.737-201.216-504.917-234.233h-24.846
	c53.428,35.556,342.946,228.247,351.94,234.233C1225.723,479.999,1370.715,479.999,1377.202,479.999z"/>
<linearGradient id="edge_1_" gradientUnits="userSpaceOnUse" x1="1138.8982" y1="479.999" x2="1138.8982" y2="245.7656">
	<stop  offset="0" style="stop-color:#181410"/>
	<stop  offset="1" style="stop-color:#383630"/>
</linearGradient>
<path id="edge" fill="url(#edge_1_)" d="M875.976,245.766c74.649,33.017,506.443,224.018,529.535,234.233h-28.309
	c-22.019-10.215-433.737-201.216-504.917-234.233H875.976z"/>
<g id="line">
	<path fill="#FFFFFF" stroke="#FFFFFF" stroke-width="0.2" stroke-miterlimit="10" d="M872.285,245.766
		c70.603,33.017,479.031,224.018,500.872,234.233h8.089C1359.048,469.784,944.041,278.783,872.285,245.766"/>
	<path fill="#FFFFFF" stroke="#FFFFFF" stroke-width="0.2" stroke-miterlimit="10" d="M850.202,247.583h-0.063
		c0.8,0.539,1.647,1.109,2.526,1.701h0.123C851.888,248.692,851.021,248.122,850.202,247.583z"/>
	<path fill="#FFFFFF" stroke="#FFFFFF" stroke-width="0.2" stroke-miterlimit="10" d="M927.85,298.672h-1.832
		c5.828,3.924,11.837,7.97,17.985,12.109h2.251C939.962,306.642,933.813,302.596,927.85,298.672z"/>
	<path fill="#FFFFFF" stroke="#FFFFFF" stroke-width="0.2" stroke-miterlimit="10" d="M859.25,253.536h-0.27
		c1.191,0.802,2.429,1.636,3.713,2.5h0.357C861.736,255.171,860.469,254.338,859.25,253.536z"/>
	<path fill="#FFFFFF" stroke="#FFFFFF" stroke-width="0.2" stroke-miterlimit="10" d="M1002.806,350.372
		c17.43,11.735,35.044,23.594,52.174,35.128h4.829c-17.528-11.533-35.551-23.392-53.385-35.128H1002.806z"/>
	<path fill="#FFFFFF" stroke="#FFFFFF" stroke-width="0.2" stroke-miterlimit="10" d="M872.433,262.209h-0.571
		c1.825,1.229,3.71,2.498,5.658,3.81h0.703C876.229,264.707,874.3,263.438,872.433,262.209z"/>
	<path fill="#FFFFFF" stroke="#FFFFFF" stroke-width="0.2" stroke-miterlimit="10" d="M892.439,275.372h-1.027
		c3.021,2.034,6.137,4.132,9.346,6.293h1.245C898.719,279.504,895.53,277.406,892.439,275.372z"/>
</g>
</svg>
