<?xml version="1.0" encoding="utf-8"?>
<!-- Generator: Adobe Illustrator 17.1.0, SVG Export Plug-In . SVG Version: 6.00 Build 0)  -->
<!DOCTYPE svg PUBLIC "-//W3C//DTD SVG 1.1//EN" "http://www.w3.org/Graphics/SVG/1.1/DTD/svg11.dtd">
<svg version="1.1" id="ycc_center" xmlns="http://www.w3.org/2000/svg" xmlns:xlink="http://www.w3.org/1999/xlink" x="0px" y="0px"
	 width="1600px" height="480px" viewBox="0 0 1600 480" enable-background="new 0 0 1600 480" xml:space="preserve">
<g id="patch">
	<linearGradient id="SVGID_1_" gradientUnits="userSpaceOnUse" x1="647.5077" y1="480.499" x2="647.5077" y2="245.7656">
		<stop  offset="0" style="stop-color:#181410"/>
		<stop  offset="1" style="stop-color:#383630"/>
	</linearGradient>
	<path fill="url(#SVGID_1_)" d="M724.276,339.439c-0.124-15.215-2.315-26.957-6.898-36.952c-4.584-10-12.26-18.85-22.199-25.591
		c-8.939-6.063-19.418-10.796-33.978-15.344c-10.756-3.358-22.859-6.208-38.091-8.968c-14.455-2.619-29.735-4.802-47.754-6.819
		h-4.57l-0.054,0.497c0.009,0.001,0.019,0.002,0.027,0.003c20.049,2.169,36.573,4.489,52.004,7.304
		c15.094,2.751,27.06,5.592,37.658,8.938c14.301,4.517,24.534,9.209,33.178,15.214c9.688,6.731,16.741,15.199,20.963,25.17
		c4.177,9.86,5.934,21.471,5.53,36.539c-0.303,11.295-1.879,23.704-4.96,39.053c-2.798,13.935-5.715,26.532-8.917,38.515
		c-5.245,19.627-11.31,40.186-18.541,62.85l-0.208,0.652h9.151l0.103-0.363c6.442-22.672,11.793-43.245,16.358-62.896
		c2.791-12.014,5.272-24.633,7.585-38.576C723.221,363.258,724.369,350.794,724.276,339.439z"/>
	<linearGradient id="SVGID_2_" gradientUnits="userSpaceOnUse" x1="952.5095" y1="480.499" x2="952.5095" y2="245.7656">
		<stop  offset="0" style="stop-color:#181410"/>
		<stop  offset="1" style="stop-color:#383630"/>
	</linearGradient>
	<path fill="url(#SVGID_2_)" d="M1024.686,245.766c-12.542,1.41-23.876,2.916-34.502,4.587c-14.75,2.32-26.981,4.739-38.493,7.613
		c-14.766,3.686-26.197,7.689-35.978,12.6c-12.033,6.042-20.929,13.176-27.193,21.81c-6.529,8.997-10.584,20.355-12.054,33.758
		c-1.223,11.165-0.926,23.588,0.937,39.097c1.446,12.046,3.605,24.645,6.6,38.514c5.167,23.943,11.473,48.932,19.275,76.393
		l0.104,0.363h9.15l-0.208-0.652c-8.754-27.438-15.926-52.405-21.925-76.331c-3.471-13.836-6.063-26.404-7.926-38.422
		c-2.392-15.43-3.12-27.78-2.292-38.869c0.987-13.226,4.589-24.42,10.703-33.271c5.869-8.497,14.397-15.528,26.074-21.495
		c9.539-4.876,20.766-8.855,35.329-12.521c11.383-2.867,23.503-5.28,38.142-7.596c11.673-1.847,24.384-3.508,38.859-5.078
		l-0.054-0.497H1024.686z"/>
</g>
<g id="road_1_">
	<linearGradient id="SVGID_3_" gradientUnits="userSpaceOnUse" x1="871.4521" y1="479.999" x2="871.4521" y2="245.7656">
		<stop  offset="0" style="stop-color:#181410"/>
		<stop  offset="1" style="stop-color:#383630"/>
	</linearGradient>
	<path fill="url(#SVGID_3_)" d="M997.686,245.766c-14.882,1.536-29.737,3.32-44.526,5.555c-25.82,3.901-51.523,8.913-76.301,17.295
		c-23.592,7.98-45.797,20.111-64.092,37.136c-18.548,17.262-32.869,38.452-45.427,60.315
		c-12.934,22.517-24.121,46.049-34.681,69.759c-6.52,14.639-12.855,29.369-18.989,44.174c26.58,0,53.161,0,79.741,0
		c26.453,0,52.905,0,79.358,0c11.678,0,23.356,0,35.034,0c-7.613-25.242-14.611-50.684-20.601-76.362
		c-2.962-12.698-5.486-25.546-7.263-38.467c-1.767-12.852-2.809-26.03-1.616-38.982c1.098-11.92,4.395-23.662,11.375-33.518
		c6.743-9.522,16.317-16.429,26.636-21.657c11.237-5.692,23.469-9.506,35.655-12.561c12.643-3.17,25.447-5.575,38.318-7.605
		c12.927-2.039,25.915-3.672,38.928-5.081H997.686z"/>
	<linearGradient id="SVGID_4_" gradientUnits="userSpaceOnUse" x1="784.2368" y1="479.999" x2="784.2368" y2="245.7656">
		<stop  offset="0" style="stop-color:#181410"/>
		<stop  offset="1" style="stop-color:#383630"/>
	</linearGradient>
	<path fill="url(#SVGID_4_)" d="M854.417,407.888c11.437,23.661,21.855,47.836,31.912,72.111c-11.916,0-23.833,0-35.749,0
		c-26.297,0-52.595,0-78.892,0c-26.497,0-52.994,0-79.491,0c6.278-20.815,12.181-41.779,17.45-62.873
		c3.184-12.748,5.882-25.622,8.251-38.545c2.359-12.865,4.165-26.038,4.287-39.138c0.116-12.454-1.14-25.248-6.211-36.748
		c-4.603-10.437-12.218-18.957-21.582-25.385c-10.198-7-21.836-11.592-33.579-15.28c-12.375-3.886-25.123-6.636-37.875-8.954
		c-17.273-3.14-34.691-5.426-52.151-7.311h31.322c4.349,0.451,8.696,0.919,13.04,1.415c26.052,2.975,52.125,6.713,77.657,12.772
		c24.737,5.87,49.331,14.001,70.892,27.74c10.406,6.631,20.141,14.306,28.796,23.11c8.794,8.945,16.668,18.824,23.799,29.132
		C831.101,361.335,843.11,384.495,854.417,407.888z M993.995,245.766c-15.043,1.536-30.086,3.32-45.11,5.555
		c-26.23,3.901-52.46,8.913-78.119,17.295c-24.431,7.98-47.911,20.111-67.995,37.136c-0.924,0.783-1.831,1.583-2.739,2.382
		c-8.77-7.692-18.274-14.491-28.237-20.441c-23.005-13.739-48.453-21.869-73.808-27.74c-26.169-6.059-52.635-9.797-78.999-12.772
		c-4.396-0.496-8.793-0.964-13.189-1.415h-3.691c4.349,0.451,8.696,0.919,13.04,1.415c26.052,2.975,52.125,6.713,77.657,12.772
		c24.737,5.87,49.331,14.001,70.892,27.74c10.406,6.631,20.141,14.306,28.796,23.11c0.725,0.737,1.434,1.491,2.147,2.241
		c1.83,1.926,3.62,3.89,5.37,5.891c1.755-2,3.553-3.964,5.392-5.891c2.382-2.496,4.83-4.934,7.364-7.292
		c18.294-17.025,40.5-29.156,64.092-37.136c24.778-8.381,50.481-13.394,76.301-17.295c14.789-2.234,29.645-4.019,44.526-5.555
		H993.995z"/>
</g>
<g id="line_l_1_">
	<path fill="#FFFFFF" stroke="#FFFFFF" stroke-width="0.2" stroke-miterlimit="10" d="M886.891,298.672h-1.758
		c-2.116,3.857-3.785,7.92-5.07,12.109h2.181C883.382,306.592,884.909,302.529,886.891,298.672z"/>
	<path fill="#FFFFFF" stroke="#FFFFFF" stroke-width="0.2" stroke-miterlimit="10" d="M877.899,365.17
		c0.817,6.801,1.845,13.581,3.031,20.33h4.79c-1.422-6.749-2.687-13.529-3.741-20.33c-0.759-4.895-1.41-9.838-1.876-14.798h-3.563
		C876.832,355.332,877.311,360.275,877.899,365.17z"/>
	<path fill="#FFFFFF" stroke="#FFFFFF" stroke-width="0.2" stroke-miterlimit="10" d="M974.759,253.536h-0.183
		c-4.142,0.774-8.274,1.602-12.393,2.5h0.27C966.541,255.138,970.644,254.309,974.759,253.536z"/>
	<path fill="#FFFFFF" stroke="#FFFFFF" stroke-width="0.2" stroke-miterlimit="10" d="M938.751,262.209h-0.485
		c-3.692,1.146-7.349,2.415-10.954,3.81h0.618C931.487,264.624,935.099,263.355,938.751,262.209z"/>
	<path fill="#FFFFFF" stroke="#FFFFFF" stroke-width="0.2" stroke-miterlimit="10" d="M909.068,275.372h-0.945
		c-3.069,1.904-6.019,3.992-8.787,6.293h1.165C903.189,279.365,906.065,277.277,909.068,275.372z"/>
	<path fill="#FFFFFF" stroke="#FFFFFF" stroke-width="0.2" stroke-miterlimit="10" d="M1013.698,247.583h-0.032
		c-4.301,0.535-8.598,1.094-12.892,1.701h0.051C1005.109,248.677,1009.402,248.118,1013.698,247.583z"/>
	<path fill="#FFFFFF" stroke="#FFFFFF" stroke-width="0.2" stroke-miterlimit="10" d="M602.11,245.766
		c4.341,0.451,8.724,0.919,13.06,1.415c26,2.975,52.008,6.713,77.434,12.772c24.635,5.87,49.086,14.001,70.408,27.74
		c10.29,6.631,19.891,14.306,28.393,23.11c2.982,3.088,5.852,6.287,8.619,9.577l-0.008,0.006c0.409-0.485,0.816-0.971,1.23-1.452
		c3.949-4.592,8.109-9.005,12.526-13.183c17.997-17.025,39.991-29.156,63.443-37.136c24.631-8.381,50.248-13.394,75.999-17.295
		c14.75-2.234,29.619-4.019,44.473-5.555c-14.908,1.536-29.751,3.32-44.579,5.555c-25.888,3.901-51.679,8.913-76.603,17.295
		c-23.731,7.98-46.148,20.111-64.74,37.136c-4.105,3.76-8.003,7.715-11.739,11.813l0.001-0.001
		c-2.094-2.305-4.241-4.561-6.442-6.761c-8.809-8.803-18.678-16.479-29.199-23.11c-21.801-13.739-46.537-21.869-71.376-27.74
		c-25.638-6.059-51.776-9.797-77.88-12.772C610.777,246.685,606.466,246.217,602.11,245.766"/>
	<path fill="#FFFFFF" stroke="#FFFFFF" stroke-width="0.2" stroke-miterlimit="10" d="M586.464,247.583h-0.044
		c4.276,0.532,8.547,1.097,12.812,1.701h0.073C595.029,248.681,590.749,248.115,586.464,247.583z"/>
	<path fill="#FFFFFF" stroke="#FFFFFF" stroke-width="0.2" stroke-miterlimit="10" d="M625.492,253.536h-0.183
		c4.145,0.775,8.286,1.599,12.41,2.5h0.27C633.833,255.135,629.664,254.311,625.492,253.536z"/>
	<path fill="#FFFFFF" stroke="#FFFFFF" stroke-width="0.2" stroke-miterlimit="10" d="M716.924,302.695
		c-0.63-1.375-1.316-2.715-2.047-4.023h-1.758c0.685,1.308,1.324,2.648,1.906,4.023c1.115,2.633,2.021,5.336,2.763,8.085h2.181
		C719.131,308.032,718.131,305.328,716.924,302.695z"/>
	<path fill="#FFFFFF" stroke="#FFFFFF" stroke-width="0.2" stroke-miterlimit="10" d="M723.488,350.372h-3.563
		c-0.866,9.468-2.435,18.919-4.301,28.208c-0.464,2.309-0.951,4.614-1.437,6.919h4.79c0.405-2.305,0.812-4.61,1.195-6.919
		C721.713,369.291,722.953,359.84,723.488,350.372z"/>
	<path fill="#FFFFFF" stroke="#FFFFFF" stroke-width="0.2" stroke-miterlimit="10" d="M661.606,262.209h-0.485
		c3.646,1.161,7.273,2.422,10.85,3.81h0.619C668.963,264.631,665.292,263.37,661.606,262.209z"/>
	<path fill="#FFFFFF" stroke="#FFFFFF" stroke-width="0.2" stroke-miterlimit="10" d="M694.899,277.311
		c-0.994-0.674-2.012-1.307-3.031-1.938h-0.945c0.997,0.631,1.993,1.264,2.963,1.938c1.953,1.357,3.821,2.813,5.603,4.354h1.165
		C698.818,280.123,696.899,278.667,694.899,277.311z"/>
</g>
</svg>
