<?xml version="1.0" encoding="utf-8"?>
<!-- Generator: Adobe Illustrator 17.1.0, SVG Export Plug-In . SVG Version: 6.00 Build 0)  -->
<!DOCTYPE svg PUBLIC "-//W3C//DTD SVG 1.1//EN" "http://www.w3.org/Graphics/SVG/1.1/DTD/svg11.dtd">
<svg version="1.1" id="ycs_center" xmlns="http://www.w3.org/2000/svg" xmlns:xlink="http://www.w3.org/1999/xlink" x="0px" y="0px"
	 width="1600px" height="480px" viewBox="0 0 1600 480" enable-background="new 0 0 1600 480" xml:space="preserve">
<g id="patch">
	<linearGradient id="SVGID_1_" gradientUnits="userSpaceOnUse" x1="647.5077" y1="480.499" x2="647.5077" y2="245.7656">
		<stop  offset="0" style="stop-color:#181410"/>
		<stop  offset="1" style="stop-color:#383630"/>
	</linearGradient>
	<path fill="url(#SVGID_1_)" d="M724.276,339.439c-0.124-15.215-2.315-26.957-6.898-36.952c-4.584-10-12.26-18.85-22.199-25.591
		c-8.939-6.063-19.418-10.796-33.978-15.344c-10.756-3.358-22.859-6.208-38.091-8.968c-14.455-2.619-29.735-4.802-47.754-6.819
		h-4.57l-0.054,0.497c0.009,0.001,0.019,0.002,0.027,0.003c20.049,2.169,36.573,4.489,52.004,7.304
		c15.094,2.751,27.06,5.592,37.658,8.938c14.301,4.517,24.534,9.209,33.178,15.214c9.688,6.731,16.741,15.199,20.963,25.17
		c4.177,9.86,5.934,21.471,5.53,36.539c-0.303,11.295-1.879,23.704-4.96,39.053c-2.798,13.935-5.715,26.532-8.917,38.515
		c-5.245,19.627-11.31,40.186-18.541,62.85l-0.208,0.652h9.151l0.103-0.363c6.442-22.672,11.793-43.245,16.358-62.896
		c2.791-12.014,5.272-24.633,7.585-38.576C723.221,363.258,724.369,350.794,724.276,339.439z"/>
	<linearGradient id="SVGID_2_" gradientUnits="userSpaceOnUse" x1="857.2656" y1="480.499" x2="857.2656" y2="245.7656">
		<stop  offset="0" style="stop-color:#181410"/>
		<stop  offset="1" style="stop-color:#383630"/>
	</linearGradient>
	<path fill="url(#SVGID_2_)" d="M901.535,479.823c-14.644-39.025-29.277-78.051-43.91-117.075
		c-14.622-38.994-29.242-77.988-43.875-116.982h-0.557l-0.45,0.161c13.139,38.604,26.287,77.206,39.437,115.809
		c13.446,39.475,26.892,78.95,40.326,118.425l0.115,0.339h9.169L901.535,479.823z"/>
</g>
<g id="road_1_">
	<linearGradient id="SVGID_3_" gradientUnits="userSpaceOnUse" x1="800.0001" y1="479.999" x2="800.0001" y2="245.7656">
		<stop  offset="0" style="stop-color:#181410"/>
		<stop  offset="1" style="stop-color:#383630"/>
	</linearGradient>
	<path fill="url(#SVGID_3_)" d="M786.784,245.766c-27.936,78.078-55.871,156.156-83.806,234.233c64.682,0,129.363,0,194.045,0
		c-27.935-78.078-55.871-156.156-83.807-234.233H786.784z"/>
	<linearGradient id="SVGID_4_" gradientUnits="userSpaceOnUse" x1="728.5586" y1="479.999" x2="728.5587" y2="245.7656">
		<stop  offset="0" style="stop-color:#181410"/>
		<stop  offset="1" style="stop-color:#383630"/>
	</linearGradient>
	<path fill="url(#SVGID_4_)" d="M854.417,407.888c11.437,23.661,21.855,47.836,31.912,72.111c-11.916,0-23.833,0-35.749,0
		c-26.297,0-52.595,0-78.892,0c-26.497,0-52.994,0-79.491,0c6.278-20.815,12.181-41.779,17.45-62.873
		c3.184-12.748,5.882-25.622,8.251-38.545c2.359-12.865,4.165-26.038,4.287-39.138c0.116-12.454-1.14-25.248-6.211-36.748
		c-4.603-10.437-12.218-18.957-21.582-25.385c-10.198-7-21.836-11.592-33.579-15.28c-12.375-3.886-25.123-6.636-37.875-8.954
		c-17.273-3.14-34.691-5.426-52.151-7.311h31.322c4.349,0.451,8.696,0.919,13.04,1.415c26.052,2.975,52.125,6.713,77.657,12.772
		c24.737,5.87,49.331,14.001,70.892,27.74c10.406,6.631,20.141,14.306,28.796,23.11c8.794,8.945,16.668,18.824,23.799,29.132
		C831.101,361.335,843.11,384.495,854.417,407.888z M783.093,245.766c-5.907,12.762-11.815,25.524-17.722,38.286
		c-21.275-11.561-44.365-18.769-67.383-24.098c-26.169-6.059-52.635-9.797-78.999-12.772c-4.396-0.496-8.793-0.964-13.189-1.415
		h-3.691c4.349,0.451,8.696,0.919,13.04,1.415c26.052,2.975,52.125,6.713,77.657,12.772c24.733,5.87,49.323,13.999,70.882,27.733
		c0.003,0.002,0.007,0.004,0.01,0.006c2.207,1.406,4.377,2.87,6.52,4.372c0.522-1.459,1.044-2.919,1.566-4.378
		c5-13.974,9.999-27.947,14.999-41.921H783.093z"/>
</g>
<g id="line__l_1_">
	<path fill="#FFFFFF" stroke="#FFFFFF" stroke-width="0.2" stroke-miterlimit="10" d="M694.899,277.311
		c-0.994-0.674-2.012-1.307-3.031-1.938h-0.945c0.997,0.631,1.993,1.264,2.963,1.938c1.953,1.357,3.821,2.813,5.603,4.354h1.165
		C698.818,280.123,696.899,278.667,694.899,277.311z"/>
	<path fill="#FFFFFF" stroke="#FFFFFF" stroke-width="0.2" stroke-miterlimit="10" d="M586.464,247.583h-0.044
		c4.276,0.532,8.547,1.097,12.812,1.701h0.073C595.029,248.681,590.749,248.115,586.464,247.583z"/>
	<path fill="#FFFFFF" stroke="#FFFFFF" stroke-width="0.2" stroke-miterlimit="10" d="M723.488,350.372h-3.563
		c-0.866,9.468-2.435,18.919-4.301,28.208c-0.464,2.309-0.951,4.614-1.437,6.919h4.79c0.405-2.305,0.812-4.61,1.195-6.919
		C721.713,369.291,722.953,359.84,723.488,350.372z"/>
	<path fill="#FFFFFF" stroke="#FFFFFF" stroke-width="0.2" stroke-miterlimit="10" d="M661.606,262.209h-0.485
		c3.646,1.161,7.273,2.422,10.85,3.81h0.619C668.963,264.631,665.292,263.37,661.606,262.209z"/>
	<path fill="#FFFFFF" stroke="#FFFFFF" stroke-width="0.2" stroke-miterlimit="10" d="M716.924,302.695
		c-0.63-1.375-1.316-2.715-2.047-4.023h-1.758c0.685,1.308,1.324,2.648,1.906,4.023c1.115,2.633,2.021,5.336,2.763,8.085h2.181
		C719.131,308.032,718.131,305.328,716.924,302.695z"/>
	<path fill="#FFFFFF" stroke="#FFFFFF" stroke-width="0.2" stroke-miterlimit="10" d="M625.492,253.536h-0.183
		c4.145,0.775,8.286,1.599,12.41,2.5h0.27C633.833,255.135,629.664,254.311,625.492,253.536z"/>
	<path fill="#FFFFFF" stroke="#FFFFFF" stroke-width="0.2" stroke-miterlimit="10" d="M813.898,247.583h-0.063
		c0.193,0.567,0.386,1.134,0.579,1.701h0.121C814.323,248.717,814.111,248.15,813.898,247.583z"/>
	<path fill="#FFFFFF" stroke="#FFFFFF" stroke-width="0.2" stroke-miterlimit="10" d="M833.059,298.672h-1.827
		c1.375,4.036,2.749,8.073,4.123,12.109h2.245C836.087,306.744,834.573,302.708,833.059,298.672z"/>
	<path fill="#FFFFFF" stroke="#FFFFFF" stroke-width="0.2" stroke-miterlimit="10" d="M824.32,275.372h-1.022
		c0.714,2.097,1.429,4.195,2.143,6.293h1.24C825.894,279.568,825.107,277.47,824.32,275.372z"/>
	<path fill="#FFFFFF" stroke="#FFFFFF" stroke-width="0.2" stroke-miterlimit="10" d="M848.837,350.372
		c3.988,11.709,7.974,23.418,11.962,35.128h4.825c-4.391-11.709-8.784-23.418-13.175-35.128H848.837z"/>
	<path fill="#FFFFFF" stroke="#FFFFFF" stroke-width="0.2" stroke-miterlimit="10" d="M816.13,253.536h-0.268
		c0.284,0.833,0.568,1.667,0.851,2.5h0.355C816.755,255.202,816.443,254.369,816.13,253.536z"/>
	<path fill="#FFFFFF" stroke="#FFFFFF" stroke-width="0.2" stroke-miterlimit="10" d="M819.383,262.209h-0.568
		c0.432,1.27,0.865,2.54,1.297,3.81h0.699C820.336,264.749,819.86,263.479,819.383,262.209z"/>
	<path fill="#FFFFFF" stroke="#FFFFFF" stroke-width="0.2" stroke-miterlimit="10" d="M786.784,245.766
		c-5.683,15.144-11.364,30.288-17.044,45.432l-0.006-0.005c-1.762-1.198-3.545-2.364-5.348-3.5
		c-21.801-13.739-46.537-21.869-71.376-27.74c-25.638-6.059-51.776-9.797-77.88-12.772c-4.353-0.496-8.664-0.964-13.02-1.415
		c4.341,0.451,8.724,0.919,13.06,1.415c26,2.975,52.008,6.713,77.434,12.772c24.635,5.87,49.086,14.001,70.408,27.74
		c2.172,1.399,4.313,2.845,6.419,4.338c0.433,0.307,0.864,0.615,1.294,0.926l-0.005-0.003
		C770.819,292.661,781.53,261.202,786.784,245.766"/>
</g>
</svg>
