<?xml version="1.0" encoding="utf-8"?>
<!-- Generator: Adobe Illustrator 17.1.0, SVG Export Plug-In . SVG Version: 6.00 Build 0)  -->
<!DOCTYPE svg PUBLIC "-//W3C//DTD SVG 1.1//EN" "http://www.w3.org/Graphics/SVG/1.1/DTD/svg11.dtd">
<svg version="1.1" id="l4c_center_e" xmlns="http://www.w3.org/2000/svg" xmlns:xlink="http://www.w3.org/1999/xlink" x="0px"
	 y="0px" width="1600px" height="480px" viewBox="0 0 1600 480" enable-background="new 0 0 1600 480" xml:space="preserve">
<linearGradient id="SVGID_1_" gradientUnits="userSpaceOnUse" x1="323.8162" y1="480.499" x2="323.8162" y2="245.7656">
	<stop  offset="0" style="stop-color:#181410"/>
	<stop  offset="1" style="stop-color:#383630"/>
</linearGradient>
<path fill="url(#SVGID_1_)" d="M543.923,267.475c-2.248-5.044-7.664-7.776-12.563-9.942c-11.745-5.191-24.929-7.4-36.562-9.349
	c-1.173-0.196-2.346-0.388-3.519-0.573c-0.023-0.004-0.046-0.008-0.069-0.011c-1.461-0.232-2.926-0.456-4.392-0.673
	c-0.016-0.003-0.031-0.005-0.047-0.008c-2.644-0.392-5.378-0.772-8.259-1.153h-3.893l-0.063,0.496c0,0,0,0,0,0
	c0.016,0.002,0.032,0.004,0.049,0.006c4.364,0.554,8.268,1.087,11.929,1.628c0.03,0.004,0.06,0.009,0.09,0.013
	c1.456,0.216,2.911,0.438,4.367,0.669c0.021,0.003,0.041,0.007,0.062,0.01c1.19,0.188,2.38,0.383,3.566,0.583
	c11.505,1.938,24.546,4.136,35.995,9.275c4.652,2.089,9.778,4.712,11.713,9.423c2.162,5.261-1.809,11.046-5.521,14.974
	c-4.141,4.382-9.272,8.127-14.2,11.521c-5.555,3.828-11.411,7.316-16.406,10.225c-12.068,7.025-24.273,13.255-34.621,18.422
	c-22.389,11.183-44.989,21.464-72.035,33.462c-25.526,11.323-51.196,22.315-72.939,31.575
	c-24.761,10.545-49.802,20.979-73.33,30.761c-22.865,9.507-46.151,19.078-68.67,28.334l-5.479,2.252
	c-21.391,8.793-43.171,17.654-64.235,26.223l-12,4.883h10.743l9.756-4.026c20.71-8.547,42.125-17.385,63.154-26.154l5.428-2.264
	c22.188-9.253,45.132-18.82,67.658-28.324c23.193-9.786,47.877-20.222,72.264-30.765c21.424-9.261,46.714-20.255,71.851-31.581
	c26.643-12.006,48.897-22.294,70.908-33.482c10.179-5.173,22.183-11.41,34.034-18.453c4.91-2.917,10.663-6.418,16.114-10.266
	c4.854-3.426,9.905-7.21,13.956-11.661C542.53,279.377,546.489,273.229,543.923,267.475z"/>
<linearGradient id="road_1_" gradientUnits="userSpaceOnUse" x1="271.9202" y1="479.999" x2="271.9202" y2="245.7656">
	<stop  offset="0" style="stop-color:#181410"/>
	<stop  offset="1" style="stop-color:#383630"/>
</linearGradient>
<path id="road" fill="url(#road_1_)" d="M543.129,267.678c-2.104-4.911-7.528-7.634-12.14-9.688
	c-11.381-5.07-24.067-7.261-36.279-9.313c-6.674-1.121-13.376-2.061-20.089-2.911h-32.587c12.546,1.677,25.256,3.493,37.414,7.078
	c7.41,2.185,25.353,7.919,17.588,18.849c-3.149,4.433-7.986,7.792-12.525,10.644c-5.361,3.368-10.929,6.367-16.591,9.195
	c-11.651,5.819-23.651,10.902-35.699,15.834c-24.385,9.984-49.185,18.991-74.015,27.798c-24.961,8.853-50.014,17.442-75.11,25.906
	c-24.954,8.417-49.947,16.717-74.97,24.924c-25.016,8.204-50.052,16.35-75.099,24.459c-25.257,8.177-50.537,16.285-75.816,24.393
	c-19.061,6.114-38.13,12.203-57.207,18.27c0,8.961,0,17.923,0,26.885c26.554,0,53.107,0,79.661,0c9.943,0,19.886,0,29.829,0
	c24.458-10.023,48.922-20.031,73.343-30.142c24.552-10.165,49.108-20.321,73.617-30.587c24.298-10.177,48.588-20.375,72.797-30.762
	c24.195-10.381,48.359-20.833,72.395-31.579c24.01-10.734,47.98-21.636,71.472-33.471c11.604-5.846,23.124-11.849,34.327-18.437
	c5.517-3.244,11.008-6.583,16.26-10.244c4.94-3.444,9.969-7.161,14.077-11.59C541.433,279.246,545.513,273.242,543.129,267.678z"/>
<linearGradient id="edge_1_" gradientUnits="userSpaceOnUse" x1="236.024" y1="453.1145" x2="236.024" y2="245.7656">
	<stop  offset="0" style="stop-color:#181410"/>
	<stop  offset="1" style="stop-color:#383630"/>
</linearGradient>
<path id="edge" fill="url(#edge_1_)" d="M-26.896,453.115c19.714-6.067,39.423-12.156,59.127-18.27
	c26.132-8.108,52.263-16.217,78.38-24.393c25.9-8.109,51.791-16.254,77.67-24.459c25.886-8.207,51.752-16.507,77.59-24.924
	c25.985-8.465,51.941-17.053,77.833-25.906c25.756-8.807,51.503-17.815,76.937-27.798c12.566-4.932,25.101-10.015,37.363-15.834
	c5.959-2.828,11.842-5.827,17.557-9.195c4.839-2.851,10.029-6.211,13.644-10.644c8.914-10.929-8.426-16.664-15.607-18.849
	c-11.781-3.585-24.3-5.401-36.67-7.078h5.103c12.546,1.677,25.256,3.493,37.414,7.078c7.41,2.185,25.353,7.919,17.588,18.849
	c-3.149,4.433-7.986,7.792-12.525,10.644c-5.361,3.368-10.929,6.367-16.591,9.195c-11.651,5.819-23.651,10.902-35.699,15.834
	c-24.385,9.984-49.185,18.991-74.015,27.798c-24.961,8.853-50.014,17.442-75.11,25.906c-24.954,8.417-49.947,16.717-74.97,24.924
	c-25.016,8.204-50.052,16.35-75.099,24.459c-25.257,8.177-50.537,16.285-75.816,24.393c-19.061,6.114-38.13,12.203-57.207,18.27
	H-26.896z"/>
<g id="line">
	<path fill="#FFFFFF" stroke="#FFFFFF" stroke-width="0.2" stroke-miterlimit="10" d="M442.033,245.766
		c12.517,1.677,25.005,3.493,37.1,7.078c7.372,2.185,25.215,7.919,17.259,18.849c-3.227,4.433-8.122,7.792-12.711,10.644
		c-5.42,3.368-11.041,6.367-16.751,9.195c-11.752,5.819-23.841,10.902-35.975,15.834c-24.56,9.984-49.517,18.991-74.501,27.798
		c-25.116,8.853-50.319,17.442-75.562,25.906c-25.1,8.417-50.239,16.717-75.405,24.924c-25.16,8.204-50.337,16.35-75.526,24.459
		c-25.4,8.177-50.821,16.285-76.242,24.393c-19.168,6.114-38.343,12.203-57.526,18.27L-3,455.292
		c18.97-6.067,44.744-14.333,63.698-20.447c25.138-8.108,50.276-16.217,75.391-24.393c24.906-8.109,49.799-16.254,74.672-24.459
		c24.88-8.207,49.729-16.507,74.535-24.924c24.948-8.465,49.851-17.053,74.658-25.906c24.676-8.807,49.319-17.815,73.53-27.798
		c11.961-4.932,23.873-10.015,35.422-15.834c5.612-2.828,11.128-5.827,16.431-9.195c4.49-2.851,9.268-6.211,12.34-10.644
		c7.574-10.929-10.469-16.664-17.917-18.849C467.54,249.259,454.608,247.442,442.033,245.766"/>
	<path fill="#FFFFFF" stroke="#FFFFFF" stroke-width="0.2" stroke-miterlimit="10" d="M488.143,247.636
		c0.674,0.102,1.348,0.202,2.022,0.307C489.492,247.839,488.818,247.738,488.143,247.636z"/>
	<path fill="#FFFFFF" stroke="#FFFFFF" stroke-width="0.2" stroke-miterlimit="10" d="M487.789,247.583L487.789,247.583
		c0.118,0.018,0.236,0.035,0.354,0.053C488.025,247.618,487.907,247.601,487.789,247.583z"/>
	<path fill="#FFFFFF" stroke="#FFFFFF" stroke-width="0.2" stroke-miterlimit="10" d="M494.716,248.677
		c-1.518-0.254-3.034-0.496-4.55-0.733c1.515,0.237,3.028,0.479,4.537,0.733c1.186,0.2,2.378,0.402,3.571,0.607h0.034
		C497.108,249.079,495.909,248.877,494.716,248.677z"/>
	<path fill="#FFFFFF" stroke="#FFFFFF" stroke-width="0.2" stroke-miterlimit="10" d="M418.011,350.372h-3.563
		c-4.897,2.195-9.797,4.381-14.701,6.556c-21.889,9.71-43.881,19.177-65.902,28.572h4.79c21.694-9.395,43.355-18.861,64.905-28.572
		C408.367,354.753,413.191,352.568,418.011,350.372z"/>
	<path fill="#FFFFFF" stroke="#FFFFFF" stroke-width="0.2" stroke-miterlimit="10" d="M538.845,262.209h-0.486
		c1.408,1.084,2.651,2.334,3.573,3.81h0.618C541.577,264.543,540.29,263.293,538.845,262.209z"/>
	<path fill="#FFFFFF" stroke="#FFFFFF" stroke-width="0.2" stroke-miterlimit="10" d="M508.432,305.02
		c3.459-2.055,6.899-4.159,10.281-6.348h-1.758c-3.458,2.189-6.972,4.293-10.502,6.348c-3.39,1.973-6.814,3.881-10.253,5.761h2.181
		C501.754,308.901,505.111,306.993,508.432,305.02z"/>
	<path fill="#FFFFFF" stroke="#FFFFFF" stroke-width="0.2" stroke-miterlimit="10" d="M543.457,275.372h-0.945
		c-0.921,2.284-2.413,4.444-3.98,6.293h1.165C541.199,279.816,542.616,277.657,543.457,275.372z"/>
	<path fill="#FFFFFF" stroke="#FFFFFF" stroke-width="0.2" stroke-miterlimit="10" d="M518.455,253.536h-0.183
		c2.624,0.733,5.213,1.557,7.751,2.5h0.27C523.723,255.093,521.104,254.269,518.455,253.536z"/>
</g>
</svg>
