<?xml version="1.0" encoding="utf-8"?>
<!-- Generator: Adobe Illustrator 17.1.0, SVG Export Plug-In . SVG Version: 6.00 Build 0)  -->
<!DOCTYPE svg PUBLIC "-//W3C//DTD SVG 1.1//EN" "http://www.w3.org/Graphics/SVG/1.1/DTD/svg11.dtd">
<svg version="1.1" id="highlight_l4s_center" xmlns="http://www.w3.org/2000/svg" xmlns:xlink="http://www.w3.org/1999/xlink"
	 x="0px" y="0px" width="1600px" height="480px" viewBox="0 0 1600 480" enable-background="new 0 0 1600 480" xml:space="preserve"
	>
<g id="patch" opacity="0.4">
	<path stroke="#000000" stroke-width="0.2" stroke-miterlimit="10" d="M559.789,291.12h31.907c0.098,0,0.189-0.048,0.245-0.127
		l5.146-7.319c0.156-0.221-0.038-0.519-0.304-0.467l-37.054,7.319C559.375,290.595,559.426,291.12,559.789,291.12z"/>
	<path stroke="#000000" stroke-width="0.2" stroke-miterlimit="10" d="M572.526,289.806
		C381.684,354.387,190.843,418.969,0.001,483.551l0,0.448c12.588,0,25.177,0,37.765,0
		c181.952-64.731,363.904-129.463,545.857-194.193H572.526z"/>
</g>
<path fill="#FFFFFF" stroke="#FFFFFF" stroke-width="0.2" stroke-miterlimit="10" d="M559.789,287.12h31.907
	c0.098,0,0.189-0.048,0.245-0.127l5.146-7.319c0.156-0.221-0.038-0.519-0.304-0.467l-37.054,7.319
	C559.375,286.595,559.426,287.12,559.789,287.12z"/>
<path fill="#FFFFFF" stroke="#FFFFFF" stroke-width="0.2" stroke-miterlimit="10" d="M572.526,285.806
	C381.684,350.387,190.843,414.969,0.001,479.551l0,0.448c12.588,0,25.177,0,37.765,0
	c181.952-64.731,363.904-129.463,545.857-194.193H572.526z"/>
</svg>
