<?xml version="1.0" encoding="utf-8"?>
<!-- Generator: Adobe Illustrator 17.1.0, SVG Export Plug-In . SVG Version: 6.00 Build 0)  -->
<!DOCTYPE svg PUBLIC "-//W3C//DTD SVG 1.1//EN" "http://www.w3.org/Graphics/SVG/1.1/DTD/svg11.dtd">
<svg version="1.1" id="highlight_r1s" xmlns="http://www.w3.org/2000/svg" xmlns:xlink="http://www.w3.org/1999/xlink" x="0px"
	 y="0px" width="1600px" height="480px" viewBox="0 0 1600 480" enable-background="new 0 0 1600 480" xml:space="preserve">
<g id="shadow" opacity="0.4">
	<path stroke="#000000" stroke-width="0.2" stroke-miterlimit="10" d="M893.687,299.392l-6.464,10.605
		c-0.122,0.2,0.022,0.456,0.257,0.456l37.972-0.046c0.34,0,0.417-0.476,0.095-0.584l-31.508-10.559
		C893.906,299.219,893.76,299.273,893.687,299.392z"/>
	<path stroke="#000000" stroke-width="0.2" stroke-miterlimit="10" d="M898.568,308.586
		c19.715,17.634,189.832,169.801,196.106,175.413c11.933,0,23.866,0,35.798,0c-20.698-16.565-208.242-166.667-219.188-175.429
		L898.568,308.586z"/>
</g>
<path fill="#FFFFFF" stroke="#FFFFFF" stroke-width="0.2" stroke-miterlimit="10" d="M893.687,295.392l-6.464,10.605
	c-0.122,0.2,0.022,0.456,0.257,0.456l37.972-0.046c0.34,0,0.417-0.476,0.095-0.584l-31.508-10.559
	C893.906,295.219,893.76,295.273,893.687,295.392z"/>
<path fill="#FFFFFF" stroke="#FFFFFF" stroke-width="0.2" stroke-miterlimit="10" d="M898.568,304.586
	c19.715,17.634,189.832,169.801,196.106,175.413c11.933,0,23.866,0,35.798,0c-20.698-16.565-208.242-166.667-219.188-175.429
	L898.568,304.586z"/>
</svg>
