<?xml version="1.0" encoding="utf-8"?>
<!-- Generator: Adobe Illustrator 17.1.0, SVG Export Plug-In . SVG Version: 6.00 Build 0)  -->
<!DOCTYPE svg PUBLIC "-//W3C//DTD SVG 1.1//EN" "http://www.w3.org/Graphics/SVG/1.1/DTD/svg11.dtd">
<svg version="1.1" id="highlight_r3s" xmlns="http://www.w3.org/2000/svg" xmlns:xlink="http://www.w3.org/1999/xlink" x="0px"
	 y="0px" width="1600px" height="480px" viewBox="0 0 1600 480" enable-background="new 0 0 1600 480" xml:space="preserve">
<g id="shadow" opacity="0.4">
	<path stroke="#000000" stroke-width="0.2" stroke-miterlimit="10" d="M1008.951,299.707l7.353,10.463
		c0.056,0.08,0.148,0.128,0.246,0.128l37.454-0.045c0.357,0,0.415-0.511,0.068-0.592l-44.806-10.417
		C1008.996,299.18,1008.793,299.482,1008.951,299.707z"/>
	<path stroke="#000000" stroke-width="0.2" stroke-miterlimit="10" d="M1452.658,483.999c9.429,0,18.858,0,28.287,0
		c2.504,0,5.008,0,7.512,0c-8.309-3.24-447.669-174.582-450.228-175.58l-12.677,0.015
		C1033.524,311.711,1448.568,482.317,1452.658,483.999z"/>
</g>
<path fill="#FFFFFF" stroke="#FFFFFF" stroke-width="0.2" stroke-miterlimit="10" d="M1008.951,295.707l7.353,10.463
	c0.056,0.08,0.148,0.128,0.246,0.128l37.454-0.045c0.357,0,0.415-0.511,0.068-0.592l-44.806-10.417
	C1008.996,295.18,1008.793,295.482,1008.951,295.707z"/>
<path fill="#FFFFFF" stroke="#FFFFFF" stroke-width="0.2" stroke-miterlimit="10" d="M1452.658,479.999c9.429,0,18.858,0,28.287,0
	c2.504,0,5.008,0,7.512,0c-8.309-3.24-447.669-174.582-450.228-175.58l-12.677,0.015
	C1033.524,307.711,1448.568,478.317,1452.658,479.999z"/>
</svg>
