<?xml version="1.0" encoding="utf-8"?>
<!-- Generator: Adobe Illustrator 17.1.0, SVG Export Plug-In . SVG Version: 6.00 Build 0)  -->
<!DOCTYPE svg PUBLIC "-//W3C//DTD SVG 1.1//EN" "http://www.w3.org/Graphics/SVG/1.1/DTD/svg11.dtd">
<svg version="1.1" id="ycs_new1" xmlns="http://www.w3.org/2000/svg" xmlns:xlink="http://www.w3.org/1999/xlink" x="0px" y="0px"
	 width="1600px" height="480px" viewBox="0 0 1600 480" enable-background="new 0 0 1600 480" xml:space="preserve">
<g id="patch">
	<linearGradient id="SVGID_1_" gradientUnits="userSpaceOnUse" x1="822.7639" y1="479.999" x2="822.7639" y2="245.7656">
		<stop  offset="0" style="stop-color:#181410"/>
		<stop  offset="1" style="stop-color:#383630"/>
	</linearGradient>
	<path fill="url(#SVGID_1_)" d="M797.749,245.766c2.349,13.13,32.268,180.152,41.942,234.233h8.089
		C836.217,425.918,800.556,258.896,797.749,245.766"/>
	<linearGradient id="SVGID_2_" gradientUnits="userSpaceOnUse" x1="924.4526" y1="480.499" x2="924.4526" y2="245.7656">
		<stop  offset="0" style="stop-color:#181410"/>
		<stop  offset="1" style="stop-color:#383630"/>
	</linearGradient>
	<path fill="url(#SVGID_2_)" d="M1025.979,479.672c-33.842-39.039-67.673-78.078-101.504-117.117
		c-33.737-38.93-67.473-77.859-101.22-116.789h-0.669l-0.377,0.319c32.479,39.039,64.97,78.078,97.46,117.117
		s64.98,78.077,97.459,117.116l0.15,0.181h9.418L1025.979,479.672z"/>
</g>
<g id="road_1_">
	<linearGradient id="SVGID_3_" gradientUnits="userSpaceOnUse" x1="909.6528" y1="479.999" x2="909.6528" y2="245.7656">
		<stop  offset="0" style="stop-color:#181410"/>
		<stop  offset="1" style="stop-color:#383630"/>
	</linearGradient>
	<path fill="url(#SVGID_3_)" d="M811.882,317.755c10.618,54.081,21.235,108.163,31.853,162.244c59.274,0,118.548,0,177.822,0
		c-66.321-78.078-132.642-156.156-198.964-234.233h-24.845c2.578,13.13,5.156,26.261,7.733,39.391L811.882,317.755z"/>
	<linearGradient id="SVGID_4_" gradientUnits="userSpaceOnUse" x1="837.595" y1="479.999" x2="837.595" y2="245.7656">
		<stop  offset="0" style="stop-color:#181410"/>
		<stop  offset="1" style="stop-color:#383630"/>
	</linearGradient>
	<path fill="url(#SVGID_4_)" d="M682.907,245.766h-29.274c19.829,1.62,39.646,3.919,59.075,8.088
		c6.222,1.335,12.394,2.94,18.416,5.004c5.786,1.983,11.451,4.357,16.535,7.799c4.394,2.975,8.751,7.464,8.575,13.15
		c-0.096,3.102-1.623,5.67-2.883,8.414c-1.389,3.024-2.777,6.047-4.164,9.072c-2.743,5.982-5.467,11.974-8.126,17.994
		c-1.204,2.725-2.865,5.611-3.121,8.63c-0.24,2.82,1.341,5.168,3.405,6.921c4.378,3.719,10.338,5.522,15.72,7.224
		c6.04,1.911,12.192,3.456,18.196,5.482c10.958,3.698,21.207,9.578,29.023,18.201c8.039,8.869,13.706,19.756,18.051,30.834
		c9.442,24.081,14.07,49.778,18.985,75.064c0.801,4.12,1.608,8.239,2.417,12.357c26.323,0,171.238,0,177.822,0
		c-17.011-20.029-33.829-40.243-51.522-59.679c-17.271-18.974-35.435-37.353-55.993-52.793
		c-10.002-7.512-20.761-14.107-32.136-19.331c-11.543-5.3-23.707-8.998-36.004-12.093c-6.196-1.559-12.458-2.877-18.607-4.618
		c-5.098-1.443-11.241-3.615-13.764-8.736c-1.317-2.674-1.863-6.358-2.484-9.247l-5.565-28.347c-0.313-1.48-0.832-2.933-1.502-4.281
		c-2.539-5.114-7.539-8.642-12.322-11.477c-5.322-3.155-11.06-5.594-16.891-7.637c-12.083-4.235-24.701-6.978-37.292-9.203
		C719.424,249.367,701.183,247.31,682.907,245.766z"/>
</g>
<linearGradient id="edge_2_" gradientUnits="userSpaceOnUse" x1="746.8386" y1="479.999" x2="746.8386" y2="245.7656">
	<stop  offset="0" style="stop-color:#181410"/>
	<stop  offset="1" style="stop-color:#383630"/>
</linearGradient>
<path id="edge_1_" fill="url(#edge_2_)" d="M805.482,285.156c-0.313-1.48-0.832-2.933-1.502-4.281
	c-1.676-3.376-4.427-6.058-7.477-8.309c-1.57-1.159-3.219-2.205-4.844-3.169c-5.322-3.155-11.06-5.594-16.891-7.637
	c-12.083-4.235-24.701-6.978-37.292-9.203c-18.052-3.19-36.293-5.247-54.569-6.792h3.691c18.438,1.544,36.895,3.601,55.283,6.792
	c12.824,2.225,25.731,4.968,38.259,9.203c5.442,1.84,10.842,4.005,15.991,6.72c-1.093-11.982-1.842-20.194-2.072-22.715h3.691
	c0.55,2.799,2.475,12.609,5.264,26.811C805.229,283.868,805.482,285.156,805.482,285.156z M649.942,245.766
	c19.658,1.62,39.234,3.919,58.224,8.088c6.082,1.335,12.085,2.94,17.89,5.004c5.577,1.983,10.993,4.357,15.715,7.799
	c4.081,2.975,7.967,7.464,7.193,13.15c-0.422,3.102-2.219,5.67-3.768,8.414c-1.706,3.024-3.413,6.047-5.117,9.072
	c-3.372,5.982-6.725,11.974-10.017,17.994c-1.49,2.725-3.454,5.611-4.028,8.63c-0.536,2.82,0.798,5.168,2.677,6.921
	c3.988,3.719,9.758,5.522,14.961,7.224c5.839,1.911,11.828,3.456,17.619,5.482c10.569,3.698,20.2,9.578,27.11,18.201
	c7.107,8.869,11.63,19.756,14.81,30.834c6.911,24.081,8.838,49.778,11.095,75.064c0.368,4.12,0.742,8.239,1.118,12.357h28.309
	c-0.809-4.118-1.616-8.237-2.417-12.357c-4.915-25.286-9.542-50.983-18.985-75.064c-4.344-11.078-10.011-21.965-18.051-30.834
	c-7.816-8.623-18.065-14.503-29.023-18.201c-6.004-2.026-12.156-3.571-18.196-5.482c-5.382-1.703-11.342-3.505-15.72-7.224
	c-2.064-1.753-3.644-4.101-3.405-6.921c0.256-3.018,1.917-5.904,3.121-8.63c2.659-6.02,5.383-12.011,8.126-17.994
	c1.387-3.025,2.775-6.048,4.164-9.072c1.26-2.744,2.787-5.312,2.883-8.414c0.177-5.687-4.181-10.175-8.575-13.15
	c-5.084-3.442-10.749-5.816-16.535-7.799c-6.023-2.064-12.194-3.669-18.416-5.004c-19.428-4.169-39.246-6.468-59.075-8.088H649.942z
	"/>
<g id="line_1_">
	<path fill="#FFFFFF" stroke="#FFFFFF" stroke-width="0.2" stroke-miterlimit="10" d="M824.169,247.583h-0.063
		c0.472,0.567,0.944,1.134,1.415,1.701h0.122C825.151,248.717,824.66,248.15,824.169,247.583z"/>
	<path fill="#FFFFFF" stroke="#FFFFFF" stroke-width="0.2" stroke-miterlimit="10" d="M868.447,298.672h-1.827
		c3.359,4.036,6.718,8.073,10.077,12.109h2.245C875.444,306.744,871.945,302.708,868.447,298.672z"/>
	<path fill="#FFFFFF" stroke="#FFFFFF" stroke-width="0.2" stroke-miterlimit="10" d="M909.643,350.372
		c9.745,11.709,19.487,23.418,29.232,35.128h4.825c-10.147-11.709-20.298-23.418-30.445-35.128H909.643z"/>
	<path fill="#FFFFFF" stroke="#FFFFFF" stroke-width="0.2" stroke-miterlimit="10" d="M848.254,275.372h-1.022
		c1.745,2.097,3.491,4.195,5.236,6.293h1.24C851.889,279.568,850.072,277.47,848.254,275.372z"/>
	<path fill="#FFFFFF" stroke="#FFFFFF" stroke-width="0.2" stroke-miterlimit="10" d="M829.328,253.536h-0.268
		c0.693,0.833,1.387,1.667,2.08,2.5h0.355C830.772,255.202,830.05,254.369,829.328,253.536z"/>
	<path fill="#FFFFFF" stroke="#FFFFFF" stroke-width="0.2" stroke-miterlimit="10" d="M836.845,262.209h-0.568
		c1.057,1.27,2.114,2.54,3.17,3.81h0.699C839.046,264.749,837.946,263.479,836.845,262.209z"/>
	<path fill="#FFFFFF" stroke="#FFFFFF" stroke-width="0.2" stroke-miterlimit="10" d="M653.633,245.766
		c19.8,1.62,39.622,3.919,58.978,8.088c6.199,1.335,12.342,2.94,18.329,5.004c5.751,1.983,11.375,4.357,16.399,7.799
		c4.342,2.975,8.621,7.464,8.345,13.15c-0.151,3.102-1.722,5.67-3.03,8.414c-1.441,3.024-2.883,6.047-4.322,9.072
		c-2.847,5.982-5.973,11.846-8.44,17.994c-0.755,1.881-2.648,5.077-3.272,8.63c-0.49,2.792,1.251,5.168,3.284,6.921
		c4.314,3.719,10.242,5.522,15.594,7.224c6.007,1.911,12.131,3.456,18.1,5.482c10.893,3.698,21.04,9.578,28.705,18.201
		c7.884,8.869,13.362,19.756,17.512,30.834c9.022,24.081,13.201,49.778,17.675,75.064c0.729,4.12,1.464,8.239,2.201,12.357h8.089
		c-0.881-4.118-1.76-8.237-2.633-12.357c-5.356-25.286-10.432-50.983-20.295-75.064c-4.537-11.078-10.395-21.965-18.589-30.834
		c-7.966-8.623-18.318-14.503-29.341-18.201c-6.039-2.026-12.218-3.571-18.291-5.482c-5.412-1.703-11.403-3.505-15.846-7.224
		c-2.094-1.753-3.716-4.101-3.525-6.921c0.204-3.018,1.814-5.904,2.97-8.63c2.554-6.02,5.173-12.011,7.812-17.994
		c1.334-3.025,2.67-6.048,4.006-9.072c1.212-2.744,2.694-5.312,2.736-8.414c0.077-5.687-4.358-10.175-8.804-13.15
		c-5.144-3.442-10.85-5.816-16.671-7.799c-6.059-2.064-12.258-3.669-18.504-5.004C693.303,249.685,673.49,247.386,653.633,245.766"
		/>
	<path fill="#FFFFFF" stroke="#FFFFFF" stroke-width="0.2" stroke-miterlimit="10" d="M806.125,285.157
		c-2.807-13.13-5.57-26.261-8.377-39.391c2.02,11.295,4.069,22.589,6.099,33.884c-2.938-4.801-7.711-8.286-11.821-10.252
		c-5.624-2.69-11.158-5.594-17.024-7.637c-12.157-4.235-24.823-6.978-37.452-9.203c-18.108-3.19-36.341-5.247-54.644-6.792
		c18.249,1.544,36.498,3.601,54.495,6.792c12.552,2.225,25.122,4.968,37.131,9.203c5.794,2.043,11.49,4.482,16.757,7.637
		c4.734,2.835,9.672,6.363,12.122,11.477c0.646,1.348,1.139,2.801,1.427,4.281h0c0,0,0,0,0,0H806.125z"/>
	<path fill="#FFFFFF" stroke="#FFFFFF" stroke-width="0.2" stroke-miterlimit="10" d="M815.659,329.75h-2.843
		c1.23,6.874,2.459,13.748,3.689,20.622h3.563C818.598,343.498,817.128,336.624,815.659,329.75z"/>
	<polygon fill="#FFFFFF" stroke="#FFFFFF" stroke-width="0.2" stroke-miterlimit="10" points="809.015,298.672 807.256,298.672 
		809.422,310.781 811.603,310.781 	"/>
</g>
</svg>
