<?xml version="1.0" encoding="utf-8"?>
<!-- Generator: Adobe Illustrator 17.1.0, SVG Export Plug-In . SVG Version: 6.00 Build 0)  -->
<!DOCTYPE svg PUBLIC "-//W3C//DTD SVG 1.1//EN" "http://www.w3.org/Graphics/SVG/1.1/DTD/svg11.dtd">
<svg version="1.1" id="highlight_r0c" xmlns="http://www.w3.org/2000/svg" xmlns:xlink="http://www.w3.org/1999/xlink" x="0px"
	 y="0px" width="1600px" height="480px" viewBox="0 0 1600 480" enable-background="new 0 0 1600 480" xml:space="preserve">
<g id="patch" opacity="0.4">
	<path stroke="#000000" stroke-width="0.2" stroke-miterlimit="10" d="M849.905,299.35l-20.894,10.435
		c-0.282,0.141-0.184,0.566,0.132,0.568l38.162,0.31c0.303,0.002,0.418-0.395,0.161-0.555l-17.269-10.745
		C850.109,299.309,849.998,299.303,849.905,299.35z"/>
	<path stroke="#000000" stroke-width="0.2" stroke-miterlimit="10" d="M842.621,308.6c-1.809,12.561,2.188,25.344,6.44,37.019
		c4.446,12.208,9.847,24.054,15.369,35.805c11.231,23.9,23.074,47.512,34.683,71.229c5.109,10.438,10.199,20.885,15.26,31.346
		c11.934,0,23.869,0,35.803,0c-13.851-22.514-27.853-44.933-41.808-67.382c-13.835-22.257-28.051-44.441-40.075-67.75
		c-3.226-6.254-6.224-12.64-8.651-19.25c-2.464-6.708-4.349-13.728-4.261-20.927L842.621,308.6z"/>
</g>
<path fill="#FFFFFF" stroke="#FFFFFF" stroke-width="0.2" stroke-miterlimit="10" d="M849.905,295.35l-20.894,10.435
	c-0.282,0.141-0.184,0.566,0.132,0.568l38.162,0.31c0.303,0.002,0.418-0.395,0.161-0.555l-17.269-10.745
	C850.109,295.309,849.998,295.303,849.905,295.35z"/>
<path fill="#FFFFFF" stroke="#FFFFFF" stroke-width="0.2" stroke-miterlimit="10" d="M842.621,304.6
	c-1.809,12.561,2.188,25.344,6.44,37.019c4.446,12.208,9.847,24.054,15.369,35.805c11.231,23.9,23.074,47.512,34.683,71.229
	c5.109,10.438,10.199,20.885,15.26,31.346c11.934,0,23.869,0,35.803,0c-13.851-22.514-27.853-44.933-41.808-67.382
	c-13.835-22.257-28.051-44.441-40.075-67.75c-3.226-6.254-6.224-12.64-8.651-19.25c-2.464-6.708-4.349-13.728-4.261-20.927
	L842.621,304.6z"/>
</svg>
