<?xml version="1.0" encoding="utf-8"?>
<!-- Generator: Adobe Illustrator 17.1.0, SVG Export Plug-In . SVG Version: 6.00 Build 0)  -->
<!DOCTYPE svg PUBLIC "-//W3C//DTD SVG 1.1//EN" "http://www.w3.org/Graphics/SVG/1.1/DTD/svg11.dtd">
<svg version="1.1" id="highlight_r1c" xmlns="http://www.w3.org/2000/svg" xmlns:xlink="http://www.w3.org/1999/xlink" x="0px"
	 y="0px" width="1600px" height="480px" viewBox="0 0 1600 480" enable-background="new 0 0 1600 480" xml:space="preserve">
<g id="shadow" opacity="0.4">
	<path stroke="#000000" stroke-width="0.2" stroke-miterlimit="10" d="M907.387,299.317l-14.025,10.414
		c-0.231,0.172-0.111,0.539,0.176,0.541l38.315,0.309c0.326,0.003,0.422-0.443,0.124-0.574l-24.29-10.723
		C907.589,299.24,907.474,299.253,907.387,299.317z"/>
	<path stroke="#000000" stroke-width="0.2" stroke-miterlimit="10" d="M1093.383,483.999c11.934,0,23.869,0,35.803,0
		c-20.714-16.275-41.461-32.507-62.22-48.724c-20.823-16.267-41.682-32.49-62.399-48.892
		c-20.543-16.264-41.191-32.525-60.529-50.225c-9.102-8.331-18.289-17.115-25.012-27.545l-12.81-0.09
		c5.536,10.794,14.034,19.932,22.39,28.597c8.969,9.302,18.426,18.132,27.964,26.844c19.455,17.77,39.361,35.044,59.225,52.353
		c20.001,17.429,40.023,34.834,60.001,52.289C1081.662,473.733,1087.524,478.865,1093.383,483.999z"/>
</g>
<path fill="#FFFFFF" stroke="#FFFFFF" stroke-width="0.2" stroke-miterlimit="10" d="M907.387,295.317l-14.025,10.414
	c-0.231,0.172-0.111,0.539,0.176,0.541l38.315,0.309c0.326,0.003,0.422-0.443,0.124-0.574l-24.29-10.723
	C907.589,295.24,907.474,295.253,907.387,295.317z"/>
<path fill="#FFFFFF" stroke="#FFFFFF" stroke-width="0.2" stroke-miterlimit="10" d="M1093.383,479.999c11.934,0,23.869,0,35.803,0
	c-20.714-16.275-41.461-32.507-62.22-48.724c-20.823-16.267-41.682-32.49-62.399-48.892c-20.543-16.264-41.191-32.525-60.529-50.225
	c-9.102-8.331-18.289-17.115-25.012-27.545l-12.81-0.09c5.536,10.794,14.034,19.932,22.39,28.597
	c8.969,9.302,18.426,18.132,27.964,26.844c19.455,17.77,39.361,35.044,59.225,52.353c20.001,17.429,40.023,34.834,60.001,52.289
	C1081.662,469.733,1087.524,474.865,1093.383,479.999z"/>
</svg>
