<?xml version="1.0" encoding="utf-8"?>
<!-- Generator: Adobe Illustrator 17.1.0, SVG Export Plug-In . SVG Version: 6.00 Build 0)  -->
<!DOCTYPE svg PUBLIC "-//W3C//DTD SVG 1.1//EN" "http://www.w3.org/Graphics/SVG/1.1/DTD/svg11.dtd">
<svg version="1.1" id="highlight_r1s_center" xmlns="http://www.w3.org/2000/svg" xmlns:xlink="http://www.w3.org/1999/xlink"
	 x="0px" y="0px" width="1600px" height="480px" viewBox="0 0 1600 480" enable-background="new 0 0 1600 480" xml:space="preserve"
	>
<g id="shadow" opacity="0.4">
	<path stroke="#000000" stroke-width="0.2" stroke-miterlimit="10" d="M850.496,283.147l-10.834,7.425
		c-0.243,0.167-0.125,0.547,0.17,0.547h32.371c0.339,0,0.418-0.473,0.098-0.584l-21.537-7.425
		C850.673,283.08,850.574,283.093,850.496,283.147z"/>
	<path stroke="#000000" stroke-width="0.2" stroke-miterlimit="10" d="M1014.989,483.999
		c-51.32-64.731-102.64-129.462-153.96-194.193h-11.096c41.989,64.731,83.978,129.462,125.967,194.193
		C988.93,483.999,1001.959,483.999,1014.989,483.999z"/>
</g>
<path fill="#FFFFFF" stroke="#FFFFFF" stroke-width="0.2" stroke-miterlimit="10" d="M850.496,279.147l-10.834,7.425
	c-0.243,0.167-0.125,0.547,0.17,0.547h32.371c0.339,0,0.418-0.473,0.098-0.584l-21.537-7.425
	C850.673,279.08,850.574,279.093,850.496,279.147z"/>
<path fill="#FFFFFF" stroke="#FFFFFF" stroke-width="0.2" stroke-miterlimit="10" d="M1014.989,479.999
	c-51.32-64.731-102.64-129.462-153.96-194.193h-11.096c41.989,64.731,83.978,129.462,125.967,194.193
	C988.93,479.999,1001.959,479.999,1014.989,479.999z"/>
</svg>
