<?xml version="1.0" encoding="utf-8"?>
<!-- Generator: Adobe Illustrator 17.1.0, SVG Export Plug-In . SVG Version: 6.00 Build 0)  -->
<!DOCTYPE svg PUBLIC "-//W3C//DTD SVG 1.1//EN" "http://www.w3.org/Graphics/SVG/1.1/DTD/svg11.dtd">
<svg version="1.1" id="l1c" xmlns="http://www.w3.org/2000/svg" xmlns:xlink="http://www.w3.org/1999/xlink" x="0px" y="0px"
	 width="1600px" height="480px" viewBox="0 0 1600 480" enable-background="new 0 0 1600 480" xml:space="preserve">
<g id="patch">
	<linearGradient id="SVGID_1_" gradientUnits="userSpaceOnUse" x1="687.597" y1="480.499" x2="687.597" y2="245.7656">
		<stop  offset="0" style="stop-color:#181410"/>
		<stop  offset="1" style="stop-color:#383630"/>
	</linearGradient>
	<path fill="url(#SVGID_1_)" d="M735.697,282.872c-2.341-4.478-5.646-8.5-9.822-11.958c-9.428-7.806-21.638-11.947-32.338-14.97
		c-11.096-3.134-23.364-5.681-38.61-8.017l-0.934-0.143c-2.918-0.444-5.849-0.866-8.782-1.269c-0.011-0.001-0.022-0.003-0.034-0.004
		c-1.903-0.262-3.814-0.501-5.721-0.747h-3.861l-0.062,0.496c0,0,0,0,0,0c3.176,0.396,6.361,0.81,9.542,1.246
		c0.016,0.002,0.032,0.004,0.047,0.007c2.907,0.399,5.811,0.817,8.72,1.259l0.928,0.143c15.123,2.329,27.264,4.868,38.21,7.99
		c10.493,2.993,22.435,7.089,31.449,14.773c3.953,3.37,7.035,7.287,9.161,11.644c2.284,4.681,3.385,10.162,3.271,16.292
		c-0.231,12.477-4.291,24.612-8.43,35.974c-4.385,12.04-9.909,23.887-15.658,35.974l-3.236,6.805
		c-4.645,9.767-9.29,19.534-13.924,29.307l-34.536,72.825h9.206l31.812-72.41c4.376-9.963,8.765-19.92,13.153-29.877l2.747-6.233
		c5.337-12.111,10.458-23.983,14.436-36.063c3.769-11.442,7.431-23.67,7.223-36.3C739.55,293.328,738.219,287.694,735.697,282.872z"
		/>
	<linearGradient id="SVGID_2_" gradientUnits="userSpaceOnUse" x1="584.5869" y1="480.499" x2="584.5869" y2="245.7656">
		<stop  offset="0" style="stop-color:#181410"/>
		<stop  offset="1" style="stop-color:#383630"/>
	</linearGradient>
	<path fill="url(#SVGID_2_)" d="M683.829,270.937c-2.564-3.917-6.38-7.188-11.666-10.004c-10.472-5.577-22.489-8.336-33.9-10.684
		c-8.11-1.67-16.775-3.109-26.994-4.483h-3.828l-0.064,0.496c11.974,1.543,21.696,3.121,30.598,4.966
		c11.257,2.333,23.098,5.072,33.258,10.586c5.034,2.731,8.616,5.892,10.953,9.66c3.141,5.068,2.278,10.97,1.001,15.026
		c-1.435,4.561-3.835,9.149-7.781,14.88c-3.784,5.493-8.135,10.533-11.503,14.31c-7.584,8.503-16.263,17.306-27.314,27.701
		c-15.024,14.136-30.757,28.02-45.973,41.446c-4.395,3.878-8.789,7.756-13.172,11.644l-94.716,84.019h9.601l90.971-83.275
		c4.241-3.882,8.492-7.753,12.744-11.624c14.759-13.438,30.021-27.334,44.569-41.486c10.71-10.418,19.102-19.241,26.408-27.766
		c3.255-3.799,7.457-8.87,11.079-14.411c3.804-5.817,6.082-10.49,7.386-15.151C686.676,282.528,687.355,276.323,683.829,270.937z"/>
</g>
<linearGradient id="road_1_" gradientUnits="userSpaceOnUse" x1="613.1745" y1="479.999" x2="613.1745" y2="245.7656">
	<stop  offset="0" style="stop-color:#181410"/>
	<stop  offset="1" style="stop-color:#383630"/>
</linearGradient>
<path id="road" fill="url(#road_1_)" d="M734.647,283.104c-2.3-4.55-5.596-8.531-9.493-11.805
	c-9.012-7.57-20.727-11.704-31.896-14.874c-12.589-3.573-25.486-6.019-38.411-8.004c-6.406-0.984-12.827-1.856-19.258-2.657h-28.152
	c10.279,1.322,20.535,2.878,30.681,4.973c11.417,2.357,23.231,5.073,33.58,10.636c4.44,2.387,8.572,5.539,11.31,9.836
	c2.979,4.674,2.856,10.284,1.323,15.44c-1.6,5.383-4.471,10.375-7.584,15.013c-3.397,5.061-7.282,9.775-11.291,14.359
	c-8.469,9.685-17.566,18.843-26.86,27.733c-18.981,18.156-38.717,35.521-58.229,53.1c-19.609,17.668-39.218,35.336-58.828,53.004
	c-11.15,10.046-22.3,20.093-33.45,30.139c26.374,0,171.43,0,177.822,0c10.978-24.037,21.959-48.074,32.938-72.111
	c5.5-12.041,11.017-24.075,16.53-36.11c5.412-11.813,10.786-23.733,15.047-36.018c4.022-11.598,7.816-23.74,7.829-36.136
	C738.263,293.892,737.246,288.247,734.647,283.104z"/>
<g id="line">
	<path fill="#FFFFFF" stroke="#FFFFFF" stroke-width="0.2" stroke-miterlimit="10" d="M645.89,247.12
		c1.064,0.147,2.123,0.31,3.186,0.463h0.002C648.015,247.431,646.952,247.268,645.89,247.12z"/>
	<path fill="#FFFFFF" stroke="#FFFFFF" stroke-width="0.2" stroke-miterlimit="10" d="M654.85,248.422
		c-1.927-0.295-3.849-0.562-5.773-0.838h-0.002c1.925,0.276,3.854,0.543,5.771,0.838c1.798,0.277,3.595,0.566,5.391,0.862h0.034
		C658.465,248.987,656.658,248.699,654.85,248.422z"/>
	<path fill="#FFFFFF" stroke="#FFFFFF" stroke-width="0.2" stroke-miterlimit="10" d="M739.153,299.624
		c-0.005-0.318-0.026-0.634-0.037-0.952h-1.758c0.001,0.317,0.01,0.634,0.004,0.952c-0.069,3.745-0.488,7.466-1.148,11.157h2.181
		C738.926,307.09,739.215,303.369,739.153,299.624z"/>
	<path fill="#FFFFFF" stroke="#FFFFFF" stroke-width="0.2" stroke-miterlimit="10" d="M726.614,350.372h-3.563
		c-3.11,7.21-6.458,14.328-9.824,21.405c-2.175,4.574-4.346,9.149-6.521,13.722h4.79c2.015-4.574,4.027-9.149,6.042-13.722
		C720.656,364.7,723.755,357.582,726.614,350.372z"/>
	<path fill="#FFFFFF" stroke="#FFFFFF" stroke-width="0.2" stroke-miterlimit="10" d="M729.821,275.372h-0.945
		c1.687,1.933,3.172,4.038,4.41,6.293h1.165C733.134,279.41,731.576,277.306,729.821,275.372z"/>
	<path fill="#FFFFFF" stroke="#FFFFFF" stroke-width="0.2" stroke-miterlimit="10" d="M682.069,253.536h-0.183
		c3.286,0.767,6.556,1.597,9.805,2.5h0.27C688.681,255.133,685.382,254.303,682.069,253.536z"/>
	<path fill="#FFFFFF" stroke="#FFFFFF" stroke-width="0.2" stroke-miterlimit="10" d="M710.25,262.209h-0.486
		c2.579,1.132,5.091,2.394,7.498,3.81h0.618C715.424,264.603,712.868,263.341,710.25,262.209z"/>
	<path fill="#FFFFFF" stroke="#FFFFFF" stroke-width="0.2" stroke-miterlimit="10" d="M620.329,247.583H620.3
		c3.433,0.527,6.862,1.081,10.276,1.701h0.048C627.2,248.664,623.767,248.11,620.329,247.583z"/>
	<path fill="#FFFFFF" stroke="#FFFFFF" stroke-width="0.2" stroke-miterlimit="10" d="M629.83,350.372
		c-12.889,11.905-26.051,23.517-39.208,35.128h4.79c12.752-11.611,25.508-23.223,37.982-35.128H629.83z"/>
	<path fill="#FFFFFF" stroke="#FFFFFF" stroke-width="0.2" stroke-miterlimit="10" d="M650.584,253.536h-0.183
		c2.877,0.74,5.734,1.561,8.542,2.5h0.27C656.372,255.097,653.486,254.276,650.584,253.536z"/>
	<path fill="#FFFFFF" stroke="#FFFFFF" stroke-width="0.2" stroke-miterlimit="10" d="M673.421,262.209h-0.485
		c1.862,1.107,3.633,2.371,5.242,3.81h0.618C677.137,264.58,675.322,263.316,673.421,262.209z"/>
	<path fill="#FFFFFF" stroke="#FFFFFF" stroke-width="0.2" stroke-miterlimit="10" d="M685.297,275.372h-0.945
		c0.509,2.041,0.602,4.167,0.376,6.293h1.165C686.044,279.539,685.877,277.413,685.297,275.372z"/>
	<path fill="#FFFFFF" stroke="#FFFFFF" stroke-width="0.2" stroke-miterlimit="10" d="M677.681,301.663
		c0.641-0.98,1.266-1.979,1.875-2.991h-1.758c-0.644,1.012-1.304,2.011-1.979,2.991c-2.177,3.16-4.553,6.175-7.017,9.118h2.181
		C673.344,307.838,675.615,304.823,677.681,301.663z"/>
</g>
</svg>
