<?xml version="1.0" encoding="utf-8"?>
<!-- Generator: Adobe Illustrator 17.1.0, SVG Export Plug-In . SVG Version: 6.00 Build 0)  -->
<!DOCTYPE svg PUBLIC "-//W3C//DTD SVG 1.1//EN" "http://www.w3.org/Graphics/SVG/1.1/DTD/svg11.dtd">
<svg version="1.1" id="highlight_r0s" xmlns="http://www.w3.org/2000/svg" xmlns:xlink="http://www.w3.org/1999/xlink" x="0px"
	 y="0px" width="1600px" height="480px" viewBox="0 0 1600 480" enable-background="new 0 0 1600 480" xml:space="preserve">
<g id="shadow" opacity="0.4">
	<path stroke="#000000" stroke-width="0.2" stroke-miterlimit="10" d="M836.206,299.36l-13.462,10.636
		c-0.223,0.176-0.098,0.536,0.186,0.535l38.086-0.046c0.326,0,0.417-0.447,0.118-0.576l-24.624-10.59
		C836.409,299.277,836.292,299.292,836.206,299.36z"/>
	<path stroke="#000000" stroke-width="0.2" stroke-miterlimit="10" d="M834.927,308.661
		c11.078,24.048,75.971,164.948,80.756,175.338c11.933,0,23.866,0,35.798,0c-13.501-22.803-96.234-162.542-103.818-175.353
		L834.927,308.661z"/>
</g>
<path fill="#FFFFFF" stroke="#FFFFFF" stroke-width="0.2" stroke-miterlimit="10" d="M836.206,295.36l-13.462,10.636
	c-0.223,0.176-0.098,0.536,0.186,0.535l38.086-0.046c0.326,0,0.417-0.447,0.118-0.576l-24.624-10.59
	C836.409,295.277,836.292,295.292,836.206,295.36z"/>
<path fill="#FFFFFF" stroke="#FFFFFF" stroke-width="0.2" stroke-miterlimit="10" d="M834.927,304.661
	c11.078,24.048,75.971,164.948,80.756,175.338c11.933,0,23.866,0,35.798,0c-13.501-22.803-96.234-162.542-103.818-175.353
	L834.927,304.661z"/>
</svg>
