<?xml version="1.0" encoding="utf-8"?>
<!-- Generator: Adobe Illustrator 17.1.0, SVG Export Plug-In . SVG Version: 6.00 Build 0)  -->
<!DOCTYPE svg PUBLIC "-//W3C//DTD SVG 1.1//EN" "http://www.w3.org/Graphics/SVG/1.1/DTD/svg11.dtd">
<svg version="1.1" id="r1c" xmlns="http://www.w3.org/2000/svg" xmlns:xlink="http://www.w3.org/1999/xlink" x="0px" y="0px"
	 width="1600px" height="480px" viewBox="0 0 1600 480" enable-background="new 0 0 1600 480" xml:space="preserve">
<g id="patch">
	<linearGradient id="SVGID_1_" gradientUnits="userSpaceOnUse" x1="1063.0173" y1="480.499" x2="1063.0173" y2="245.7656">
		<stop  offset="0" style="stop-color:#181410"/>
		<stop  offset="1" style="stop-color:#383630"/>
	</linearGradient>
	<path fill="url(#SVGID_1_)" d="M1070.38,391.871c-5.312-3.495-10.63-6.98-15.948-10.466
		c-16.684-10.935-33.936-22.241-50.694-33.666c-9.813-6.689-21.348-14.633-32.481-22.827c-9.932-7.31-20.421-15.187-29.879-24.031
		c-4.005-3.744-8.634-8.276-12.606-13.51c-4.609-6.071-6.508-11.285-5.805-15.939c0.848-5.598,5.62-9.057,9.684-11.444
		c4.322-2.539,9.462-4.591,16.174-6.456c13.133-3.647,26.777-5.802,37.197-7.271l-0.069-0.495h-3.524
		c-9.889,1.445-22.069,3.51-34.036,6.802c-6.863,1.889-12.149,3.973-16.636,6.556c-4.338,2.498-9.461,6.135-10.579,12.142
		c-0.919,4.937,0.853,10.399,5.416,16.702c3.834,5.292,8.342,9.864,12.247,13.639c9.192,8.886,19.432,16.782,29.131,24.108
		c10.832,8.183,22.11,16.143,31.714,22.849c16.373,11.435,33.239,22.747,49.55,33.687c5.191,3.482,10.383,6.964,15.566,10.455
		l130.256,87.71l0.127,0.085h9.911L1070.38,391.871z"/>
	<linearGradient id="SVGID_2_" gradientUnits="userSpaceOnUse" x1="950.3929" y1="480.499" x2="950.3929" y2="245.7656">
		<stop  offset="0" style="stop-color:#181410"/>
		<stop  offset="1" style="stop-color:#383630"/>
	</linearGradient>
	<path fill="url(#SVGID_2_)" d="M967.771,412.525c-4.794-5.53-9.606-11.047-14.418-16.563
		c-12.369-14.181-25.159-28.843-37.428-43.517c-9.548-11.419-17.069-21.215-23.673-30.828c-7.012-10.208-13.99-21.17-15.586-33.061
		c-0.456-3.4-0.396-6.263,0.185-8.752c0.586-2.513,1.726-4.986,3.387-7.354c2.655-3.784,6.539-6.998,11.873-9.826
		c10.533-5.583,22.501-8.578,33.865-10.983c9.663-2.044,19.969-3.803,31.505-5.375c0.013-0.002,0.025-0.004,0.038-0.006
		l-0.067-0.495v0h-3.615c-10.069,1.432-19.32,3.04-28.167,4.897c-11.519,2.42-23.671,5.437-34.51,11.077
		c-5.574,2.901-9.686,6.214-12.567,10.127c-1.82,2.47-3.102,5.059-3.809,7.694c-0.699,2.607-0.869,5.587-0.52,9.111
		c1.202,12.109,7.865,23.189,14.587,33.501c6.284,9.64,13.482,19.46,22.652,30.904c11.76,14.678,24.038,29.342,35.912,43.521
		c4.622,5.521,9.244,11.04,13.847,16.572l56.015,67.327h9.418L967.771,412.525z"/>
</g>
<linearGradient id="road_1_" gradientUnits="userSpaceOnUse" x1="1037.3055" y1="479.999" x2="1037.3055" y2="245.7656">
	<stop  offset="0" style="stop-color:#181410"/>
	<stop  offset="1" style="stop-color:#383630"/>
</linearGradient>
<path id="road" fill="url(#road_1_)" d="M1133.623,436.235c-22.01-14.649-44.02-29.297-66.03-43.946
	c-22.002-14.644-44.124-29.126-65.88-44.136c-10.806-7.456-21.571-14.99-32.097-22.838c-10.151-7.568-20.318-15.335-29.505-24.069
	c-4.462-4.242-8.752-8.619-12.426-13.573c-3.41-4.598-6.617-10.378-5.615-16.318c0.938-5.563,5.543-9.132,10.131-11.8
	c5.111-2.972,10.727-4.936,16.406-6.506c12.234-3.382,24.789-5.519,37.345-7.284h-28.499c-10.609,1.443-21.171,3.182-31.629,5.387
	c-11.647,2.455-23.588,5.463-34.189,11.031c-4.69,2.463-9.1,5.64-12.222,9.98c-1.631,2.268-2.915,4.811-3.596,7.527
	c-0.726,2.898-0.693,5.981-0.348,8.932c1.426,12.223,8.39,23.27,15.088,33.277c7.157,10.692,15.016,20.914,23.162,30.866
	c16.612,20.292,33.826,40.1,50.803,60.086c17.136,20.174,34.272,40.347,51.408,60.521c1.876,2.209,3.752,4.417,5.628,6.626
	c26.528,0,171.633,0,177.822,0C1177.461,465.411,1155.542,450.823,1133.623,436.235z"/>
<g id="line">
	<path fill="#FFFFFF" stroke="#FFFFFF" stroke-width="0.2" stroke-miterlimit="10" d="M974.094,247.583h-0.042
		c-3.132,0.521-6.256,1.085-9.371,1.701h0.07C967.855,248.669,970.971,248.104,974.094,247.583z"/>
	<path fill="#FFFFFF" stroke="#FFFFFF" stroke-width="0.2" stroke-miterlimit="10" d="M1003.186,350.372
		c17.127,11.9,34.464,23.505,51.785,35.128h4.79c-17.726-11.623-35.469-23.227-53.011-35.128H1003.186z"/>
	<path fill="#FFFFFF" stroke="#FFFFFF" stroke-width="0.2" stroke-miterlimit="10" d="M941.035,301.246
		c-0.91-0.851-1.81-1.709-2.702-2.575h-1.758c0.862,0.865,1.732,1.724,2.612,2.575c3.416,3.303,6.976,6.466,10.623,9.534h2.181
		C948.237,307.713,944.567,304.549,941.035,301.246z"/>
	<path fill="#FFFFFF" stroke="#FFFFFF" stroke-width="0.2" stroke-miterlimit="10" d="M922.474,275.372h-0.945
		c0.226,2.17,0.908,4.285,1.847,6.293h1.165C923.531,279.657,922.775,277.543,922.474,275.372z"/>
	<path fill="#FFFFFF" stroke="#FFFFFF" stroke-width="0.2" stroke-miterlimit="10" d="M928.442,262.209h-0.485
		c-1.463,1.116-2.804,2.372-3.884,3.81h0.618C925.721,264.581,927.018,263.325,928.442,262.209z"/>
	<path fill="#FFFFFF" stroke="#FFFFFF" stroke-width="0.2" stroke-miterlimit="10" d="M947,253.536h-0.183
		c-2.499,0.727-4.977,1.546-7.402,2.5h0.27C942.076,255.081,944.526,254.263,947,253.536z"/>
	<path fill="#FFFFFF" stroke="#FFFFFF" stroke-width="0.2" stroke-miterlimit="10" d="M878.752,298.672h-1.758
		c1.404,4.183,3.313,8.217,5.467,12.109h2.181C882.352,306.889,880.302,302.854,878.752,298.672z"/>
	<path fill="#FFFFFF" stroke="#FFFFFF" stroke-width="0.2" stroke-miterlimit="10" d="M911.895,352.766
		c8.828,11.019,17.838,21.894,26.89,32.734h4.792c-9.431-10.84-18.822-21.715-28.035-32.734c-0.665-0.795-1.324-1.595-1.985-2.393
		h-3.563C910.627,351.171,911.258,351.971,911.895,352.766z"/>
	<path fill="#FFFFFF" stroke="#FFFFFF" stroke-width="0.2" stroke-miterlimit="10" d="M915.527,253.536h-0.183
		c-2.968,0.749-5.925,1.572-8.845,2.5h0.27C909.657,255.107,912.585,254.285,915.527,253.536z"/>
	<path fill="#FFFFFF" stroke="#FFFFFF" stroke-width="0.2" stroke-miterlimit="10" d="M891.831,262.209h-0.486
		c-2.126,1.109-4.19,2.371-6.115,3.81h0.618C887.724,264.58,889.744,263.318,891.831,262.209z"/>
	<path fill="#FFFFFF" stroke="#FFFFFF" stroke-width="0.2" stroke-miterlimit="10" d="M945.287,247.583h-0.033
		c-3.312,0.531-6.618,1.094-9.917,1.701h0.055C938.681,248.677,941.98,248.114,945.287,247.583z"/>
	<path fill="#FFFFFF" stroke="#FFFFFF" stroke-width="0.2" stroke-miterlimit="10" d="M876.364,279.691
		c0.35-1.499,0.889-2.943,1.565-4.319h-0.934c-0.725,1.378-1.324,2.818-1.727,4.319c-0.174,0.65-0.305,1.309-0.408,1.974h1.165
		C876.105,281,876.213,280.341,876.364,279.691z"/>
</g>
</svg>
