<?xml version="1.0" encoding="utf-8"?>
<!-- Generator: Adobe Illustrator 17.1.0, SVG Export Plug-In . SVG Version: 6.00 Build 0)  -->
<!DOCTYPE svg PUBLIC "-//W3C//DTD SVG 1.1//EN" "http://www.w3.org/Graphics/SVG/1.1/DTD/svg11.dtd">
<svg version="1.1" id="ysc_new1_e" xmlns="http://www.w3.org/2000/svg" xmlns:xlink="http://www.w3.org/1999/xlink" x="0px" y="0px"
	 width="1600px" height="480px" viewBox="0 0 1600 480" enable-background="new 0 0 1600 480" xml:space="preserve">
<linearGradient id="patch_1_" gradientUnits="userSpaceOnUse" x1="822.7639" y1="479.999" x2="822.7639" y2="245.7656">
	<stop  offset="0" style="stop-color:#181410"/>
	<stop  offset="1" style="stop-color:#383630"/>
</linearGradient>
<path id="patch" fill="url(#patch_1_)" d="M797.749,245.766c5.7,31.863,37.7,210.518,41.942,234.233h8.089
	C842.709,456.283,804.561,277.629,797.749,245.766"/>
<g id="road">
	<linearGradient id="SVGID_1_" gradientUnits="userSpaceOnUse" x1="803.1264" y1="479.999" x2="803.1264" y2="245.7656">
		<stop  offset="0" style="stop-color:#181410"/>
		<stop  offset="1" style="stop-color:#383630"/>
	</linearGradient>
	<path fill="url(#SVGID_1_)" d="M910.641,245.766c-10.077,0.934-20.132,2.062-30.147,3.473c-12.831,1.808-25.663,3.991-38.178,7.399
		c-5.753,1.567-11.435,3.452-16.935,5.763c-5.026,2.112-9.955,4.7-14.022,8.38c-1.989,1.8-3.783,3.858-4.94,6.298
		c-1.266,2.669-1.449,5.219-0.939,8.077c2.822,14.446,5.609,28.626,6.492,33.065l0.339,1.768c0.431,2.937-0.274,5.547-2.542,7.54
		c-4.233,3.72-10.401,4.809-15.679,6.227c-12.143,3.262-24.316,6.529-35.603,12.202c-10.74,5.398-20.353,12.567-28.688,21.219
		c-8.577,8.903-15.792,19-22.331,29.465c-13.793,22.076-24.455,45.883-35.237,69.517c-2.105,4.614-4.213,9.227-6.32,13.84
		c26.453,0,171.508,0,177.822,0c-5.073-25.834-10.927-51.681-12.627-78.018c-0.416-6.45-0.415-12.931,0.195-19.37
		c0.544-5.737,1.497-11.457,3.59-16.85c1.958-5.045,4.849-9.704,8.843-13.387c4.073-3.755,8.951-6.485,14.037-8.617
		c5.552-2.328,11.362-3.952,17.017-6.003c4.547-1.65,10.41-3.412,13.058-7.821c1.516-2.524,0.955-5.269-0.534-7.663
		c-1.649-2.65-3.894-4.998-5.888-7.39c-4.208-5.051-8.466-10.061-12.73-15.065c-4.225-4.958-8.449-9.917-12.674-14.876
		c-1.8-2.113-3.448-4.402-4.136-7.137c-0.669-2.662-0.117-5.322,1.244-7.673c2.71-4.682,7.937-7.707,12.711-9.885
		c5.687-2.593,11.721-4.458,17.771-5.99c12.602-3.192,25.568-5.058,38.462-6.599c6.078-0.727,12.169-1.341,18.266-1.89H910.641z"/>
	<linearGradient id="SVGID_2_" gradientUnits="userSpaceOnUse" x1="754.8237" y1="479.999" x2="754.8237" y2="245.7656">
		<stop  offset="0" style="stop-color:#181410"/>
		<stop  offset="1" style="stop-color:#383630"/>
	</linearGradient>
	<path fill="url(#SVGID_2_)" d="M772.904,245.766c-17.898,39.189-103.741,227.117-106.992,234.233c26.555,0,171.541,0,177.822,0
		c-4.656-23.716-39.73-202.37-45.986-234.233H772.904z"/>
</g>
<linearGradient id="edge_1_" gradientUnits="userSpaceOnUse" x1="790.817" y1="479.999" x2="790.817" y2="245.7656">
	<stop  offset="0" style="stop-color:#181410"/>
	<stop  offset="1" style="stop-color:#383630"/>
</linearGradient>
<path id="edge" fill="url(#edge_1_)" d="M843.735,479.999c-5.073-25.834-10.927-51.681-12.627-78.018
	c-0.416-6.45-0.415-12.931,0.195-19.37c0.544-5.737,1.497-11.457,3.59-16.85c1.958-5.045,4.849-9.704,8.843-13.387
	c4.073-3.755,8.951-6.485,14.037-8.617c5.552-2.328,11.362-3.952,17.017-6.003c4.547-1.65,10.41-3.412,13.058-7.821
	c1.516-2.524,0.955-5.269-0.534-7.663c-1.649-2.65-3.894-4.998-5.888-7.39c-4.208-5.051-8.466-10.061-12.73-15.065
	c-4.225-4.958-8.449-9.917-12.674-14.876c-1.8-2.113-3.448-4.402-4.136-7.137c-0.669-2.662-0.117-5.322,1.244-7.673
	c2.71-4.682,7.937-7.707,12.711-9.885c5.687-2.593,11.721-4.458,17.771-5.99c12.602-3.192,25.568-5.058,38.462-6.599
	c6.078-0.727,12.169-1.341,18.266-1.89h3.691c-6.039,0.548-12.065,1.163-18.067,1.89c-12.732,1.541-25.502,3.408-37.768,6.599
	c-5.889,1.532-11.727,3.397-17.141,5.99c-4.546,2.177-9.455,5.203-11.672,9.885c-1.114,2.351-1.387,5.011-0.438,7.673
	c0.975,2.735,2.864,5.024,4.886,7.137c4.746,4.959,9.492,9.918,14.238,14.876c4.79,5.004,9.574,10.014,14.314,15.065
	c2.245,2.393,4.737,4.74,6.664,7.39c1.74,2.394,2.59,5.139,1.34,7.663c-2.184,4.409-7.862,6.171-12.236,7.821
	c-5.438,2.051-11.078,3.675-16.386,6.003c-4.862,2.132-9.453,4.862-13.131,8.617c-3.607,3.683-6.008,8.342-7.436,13.387
	c-1.526,5.393-1.878,11.113-1.819,16.85c0.066,6.438,0.746,12.919,1.84,19.37c4.468,26.337,13.039,52.184,20.827,78.018H843.735z
	 M769.214,245.766c-22.017,39.189-127.612,227.117-131.61,234.233h28.309c3.251-7.117,89.093-195.045,106.992-234.233H769.214z
	 M906.951,245.766c-10.175,0.934-20.349,2.062-30.512,3.473c-13.021,1.808-26.083,3.991-38.955,7.399
	c-5.918,1.567-11.798,3.452-17.54,5.763c-4.029,1.621-8.027,3.529-11.684,5.99c-3.035-10.068-5.408-17.942-6.82-22.625h-3.691
	c0.286,1.458,2.272,11.571,5.271,26.846c0.76,3.869,1.584,8.068,2.463,12.544c-0.51-2.858-0.327-5.408,0.939-8.077
	c0.786-1.658,1.871-3.137,3.106-4.481c0.583-0.634,1.196-1.24,1.833-1.817c4.067-3.681,8.996-6.268,14.022-8.38
	c5.499-2.311,11.181-4.196,16.935-5.763c12.515-3.408,25.347-5.591,38.178-7.399c10.015-1.411,20.07-2.538,30.147-3.473H906.951z"/>
<g id="line_1_">
	<path fill="#FFFFFF" stroke="#FFFFFF" stroke-width="0.2" stroke-miterlimit="10" d="M772.904,245.766
		c-18.582,39.189-107.661,227.117-111.036,234.233h8.089C673.083,472.882,755.69,284.954,772.904,245.766"/>
	<path display="none" fill="#FFFFFF" stroke="#FFFFFF" stroke-width="0.2" stroke-miterlimit="10" d="M797.749,245.766
		c5.7,31.863,37.7,210.518,41.942,234.233h8.089C842.709,456.283,804.561,277.629,797.749,245.766"/>
	<path fill="#FFFFFF" stroke="#FFFFFF" stroke-width="0.2" stroke-miterlimit="10" d="M809.051,298.672h-1.831
		c0.702,3.923,1.426,7.965,2.168,12.109h2.249C810.642,306.121,809.704,301.73,809.051,298.672z"/>
	<path fill="#FFFFFF" stroke="#FFFFFF" stroke-width="0.2" stroke-miterlimit="10" d="M815.689,329.75h-2.903
		c1.211,6.763,2.447,13.665,3.693,20.622h3.614C818.607,343.415,817.133,336.513,815.689,329.75z"/>
	<path fill="#FFFFFF" stroke="#FFFFFF" stroke-width="0.2" stroke-miterlimit="10" d="M811.753,270.781
		c4.002-3.681,8.886-6.268,13.875-8.38c5.459-2.311,11.108-4.196,16.834-5.763c12.455-3.408,25.249-5.591,38.049-7.399
		c9.99-1.411,20.07-2.538,30.13-3.473c-10.093,0.934-20.124,2.062-30.163,3.473c-12.863,1.808-25.733,3.991-38.307,7.399
		c-5.781,1.567-11.495,3.452-17.035,5.763c-5.063,2.112-10.037,4.7-14.168,8.38c-2.02,1.8-3.85,3.858-5.049,6.298
		c-0.423,0.86-0.722,1.708-0.933,2.558c-3.307-15.481-5.888-27.562-7.237-33.872c1.26,7.042,3.805,21.262,7.051,39.391h1.364
		c-0.059-0.275-0.119-0.556-0.177-0.829c-0.378-2.527-0.164-4.84,0.936-7.248C808.037,274.639,809.796,272.581,811.753,270.781z"/>
	<path fill="#FFFFFF" stroke="#FFFFFF" stroke-width="0.2" stroke-miterlimit="10" d="M940.34,245.766
		c-6.106,0.548-12.163,1.163-18.254,1.89c-12.921,1.541-25.919,3.408-38.577,6.599c-6.076,1.532-12.143,3.397-17.875,5.99
		c-4.812,2.177-10.092,5.203-12.884,9.885c-1.402,2.351-2.001,5.011-1.378,7.673c0.64,2.735,2.248,5.024,4.011,7.137
		c4.138,4.959,8.276,9.918,12.415,14.876c4.177,5.004,8.347,10.014,12.467,15.065c1.951,2.393,4.156,4.74,5.759,7.39
		c1.447,2.394,1.96,5.139,0.4,7.663c-2.725,4.409-8.619,6.171-13.195,7.821c-5.69,2.051-11.528,3.675-17.121,6.003
		c-5.123,2.132-10.049,4.862-14.187,8.617c-4.059,3.683-7.031,8.342-9.077,13.387c-2.187,5.393-3.24,11.113-3.884,16.85
		c-0.723,6.438-0.837,12.919-0.534,19.37c1.24,26.337,6.643,52.184,11.266,78.018h8.089c-5.524-25.834-11.83-51.681-13.989-78.018
		c-0.529-6.45-0.641-12.931-0.143-19.37c0.444-5.737,1.297-11.457,3.296-16.85c1.87-5.045,4.679-9.704,8.609-13.387
		c4.008-3.755,8.838-6.485,13.887-8.617c5.512-2.328,11.294-3.952,16.912-6.003c4.519-1.65,10.351-3.412,12.922-7.821
		c1.472-2.524,0.863-5.269-0.668-7.663c-1.695-2.65-3.982-4.998-6.017-7.39c-4.297-5.051-8.642-10.061-12.993-15.065
		c-4.312-4.958-8.623-9.917-12.934-14.876c-1.837-2.113-3.525-4.402-4.26-7.137c-0.716-2.662-0.209-5.322,1.11-7.673
		c2.628-4.682,7.802-7.707,12.539-9.885c5.641-2.593,11.643-4.458,17.666-5.99c12.547-3.192,25.479-5.058,38.347-6.599
		C928.129,246.929,934.253,246.314,940.34,245.766"/>
</g>
</svg>
