<?xml version="1.0" encoding="utf-8"?>
<!-- Generator: Adobe Illustrator 17.1.0, SVG Export Plug-In . SVG Version: 6.00 Build 0)  -->
<!DOCTYPE svg PUBLIC "-//W3C//DTD SVG 1.1//EN" "http://www.w3.org/Graphics/SVG/1.1/DTD/svg11.dtd">
<svg version="1.1" id="l3c" xmlns="http://www.w3.org/2000/svg" xmlns:xlink="http://www.w3.org/1999/xlink" x="0px" y="0px"
	 width="1600px" height="480px" viewBox="0 0 1600 480" enable-background="new 0 0 1600 480" xml:space="preserve">
<g id="patch">
	<linearGradient id="SVGID_1_" gradientUnits="userSpaceOnUse" x1="472.9441" y1="480.499" x2="472.9441" y2="245.7656">
		<stop  offset="0" style="stop-color:#181410"/>
		<stop  offset="1" style="stop-color:#383630"/>
	</linearGradient>
	<path fill="url(#SVGID_1_)" d="M624.892,255.276c-8.194-3.043-17.298-5.346-29.521-7.466c-0.001-0.001-0.002-0.001-0.003-0.001
		c-2.185-0.381-4.371-0.74-6.554-1.088c-1.9-0.301-3.97-0.611-6.378-0.956h-3.578l-0.069,0.495l2.096,0.294
		c0.003,0,0.007,0.001,0.01,0.001c2.579,0.365,5.139,0.746,7.724,1.154c2.191,0.346,4.387,0.705,6.581,1.086
		c0.001,0,0.002,0,0.003,0c12.083,2.109,21.052,4.397,29.078,7.417c11.673,4.391,16.793,10.19,15.22,17.238
		c-1.216,5.449-5.51,10.148-9.438,14.125c-3.797,3.844-8.251,7.681-14.018,12.075c-9.654,7.355-19.718,13.992-31.857,21.694
		c-21.148,13.414-42.719,25.878-68.6,40.467c-17.09,9.634-34.196,19.236-51.303,28.84l-111.216,62.461
		c-15.697,8.815-31.394,17.631-47.089,26.45l-1.666,0.936h10.132l0.115-0.066c15.361-8.804,30.725-17.604,46.087-26.404
		l109.19-62.551c16.746-9.588,33.492-19.177,50.22-28.796c25.386-14.597,46.534-27.068,67.231-40.494
		c11.894-7.717,21.747-14.367,31.171-21.745c5.652-4.426,10.005-8.292,13.7-12.17c3.886-4.078,8.123-8.906,9.199-14.619
		C642.774,266.156,637.079,259.802,624.892,255.276z"/>
	<linearGradient id="SVGID_2_" gradientUnits="userSpaceOnUse" x1="363.5025" y1="480.499" x2="363.5025" y2="245.7656">
		<stop  offset="0" style="stop-color:#181410"/>
		<stop  offset="1" style="stop-color:#383630"/>
	</linearGradient>
	<path fill="url(#SVGID_2_)" d="M594.045,256.504c-2.662-1.561-5.467-2.64-7.86-3.489c-10.464-3.716-21.642-5.677-32.385-7.249
		h-3.499l-0.07,0.495c11.736,1.667,24.14,3.634,35.437,7.695c2.318,0.833,5.03,1.891,7.566,3.408
		c1.829,1.096,4.403,2.84,5.628,5.331c2.355,4.788-2.015,10.188-6.096,13.875c-4.689,4.236-10.111,7.732-14.826,10.677
		c-4.9,3.062-10.197,6.066-16.668,9.456c-24.008,12.578-48.486,23.396-71.5,33.396c-21.288,9.253-44.561,19.083-73.239,30.937
		c-17.74,7.332-35.795,14.744-53.255,21.911l-237.407,97.552h10.721l231.734-96.606c17.227-7.175,35.041-14.594,52.542-21.934
		c28.271-11.855,51.205-21.688,72.176-30.943c21.688-9.57,46.803-20.835,70.4-33.428c6.375-3.402,11.587-6.419,16.404-9.496
		c4.647-2.967,9.991-6.492,14.593-10.785c6.028-5.622,8.036-10.832,5.806-15.065C598.813,259.518,596.021,257.663,594.045,256.504z"
		/>
</g>
<linearGradient id="road_1_" gradientUnits="userSpaceOnUse" x1="386.5618" y1="479.999" x2="386.5618" y2="245.7656">
	<stop  offset="0" style="stop-color:#181410"/>
	<stop  offset="1" style="stop-color:#383630"/>
</linearGradient>
<path id="road" fill="url(#road_1_)" d="M624.587,255.745c-11.526-4.308-23.755-6.608-35.871-8.529
	c-3.281-0.52-6.568-0.995-9.859-1.451h-28.555c11.995,1.699,24.198,3.637,35.626,7.72c2.653,0.948,5.285,2.01,7.714,3.45
	c2.296,1.361,4.677,3.106,5.917,5.539c2.724,5.348-2.279,11.091-5.957,14.467c-4.465,4.098-9.597,7.501-14.709,10.73
	c-5.373,3.394-10.919,6.506-16.536,9.476c-23.108,12.218-47.016,22.931-70.95,33.412c-24.127,10.566-48.392,20.816-72.707,30.939
	c-24.472,10.189-48.979,20.294-73.472,30.432c-24.525,10.151-49.051,20.302-73.576,30.453
	c-24.439,10.115-48.879,20.231-73.318,30.346c-21.962,9.09-43.924,18.18-65.886,27.27c26.419,0,171.347,0,177.822,0
	c23.107-13.112,46.219-26.217,69.328-39.325c23.055-13.077,46.109-26.154,69.164-39.231c23.023-13.06,46.058-26.099,69.061-39.195
	c22.891-13.032,45.739-26.257,67.915-40.481c10.736-6.886,21.414-13.918,31.514-21.719c4.855-3.749,9.582-7.715,13.858-12.121
	c3.854-3.971,8.17-8.779,9.32-14.367C642.408,263.953,631.988,258.511,624.587,255.745z"/>
<g id="line">
	<path fill="#FFFFFF" stroke="#FFFFFF" stroke-width="0.2" stroke-miterlimit="10" d="M562.111,247.583h-0.041
		c2.94,0.504,5.871,1.065,8.781,1.701h0.069C567.998,248.649,565.059,248.087,562.111,247.583z"/>
	<path fill="#FFFFFF" stroke="#FFFFFF" stroke-width="0.2" stroke-miterlimit="10" d="M447.012,350.372h-3.563
		c-8.9,3.728-17.807,7.44-26.724,11.126c-19.435,8.033-38.89,16.016-58.344,24.002h4.79c19.175-7.986,38.352-15.969,57.506-24.002
		C429.465,357.812,438.242,354.101,447.012,350.372z"/>
	<path fill="#FFFFFF" stroke="#FFFFFF" stroke-width="0.2" stroke-miterlimit="10" d="M599.806,262.474
		c-0.048-0.092-0.109-0.176-0.16-0.265h-0.485c0.048,0.09,0.106,0.174,0.151,0.265c0.577,1.172,0.765,2.363,0.694,3.544h0.618
		C600.654,264.838,600.424,263.647,599.806,262.474z"/>
	<path fill="#FFFFFF" stroke="#FFFFFF" stroke-width="0.2" stroke-miterlimit="10" d="M594.102,276.942
		c0.511-0.477,1.048-1.006,1.585-1.569h-0.945c-0.557,0.564-1.112,1.092-1.64,1.569c-1.861,1.681-3.835,3.24-5.869,4.723h1.165
		C590.38,280.182,592.3,278.623,594.102,276.942z"/>
	<path fill="#FFFFFF" stroke="#FFFFFF" stroke-width="0.2" stroke-miterlimit="10" d="M586.155,253.536h-0.183
		c2.006,0.724,3.993,1.522,5.885,2.5h0.27C590.201,255.058,588.186,254.26,586.155,253.536z"/>
	<path fill="#FFFFFF" stroke="#FFFFFF" stroke-width="0.2" stroke-miterlimit="10" d="M560.297,298.672h-1.758
		c-8.101,4.189-16.286,8.215-24.534,12.109h2.181C544.298,306.887,552.342,302.861,560.297,298.672z"/>
	<path fill="#FFFFFF" stroke="#FFFFFF" stroke-width="0.2" stroke-miterlimit="10" d="M540.292,350.372h-3.563
		c-6.951,3.989-13.92,7.944-20.896,11.876c-13.775,7.765-27.562,15.51-41.35,23.252h4.79c13.518-7.742,27.034-15.487,40.538-23.252
		C526.65,358.316,533.481,354.362,540.292,350.372z"/>
	<path fill="#FFFFFF" stroke="#FFFFFF" stroke-width="0.2" stroke-miterlimit="10" d="M595.233,248.302
		c1.78,0.31,3.558,0.637,5.334,0.982h0.034C598.813,248.939,597.024,248.612,595.233,248.302z"/>
	<path fill="#FFFFFF" stroke="#FFFFFF" stroke-width="0.2" stroke-miterlimit="10" d="M590.981,247.583h-0.025
		c1.425,0.231,2.851,0.471,4.277,0.719C593.815,248.055,592.398,247.815,590.981,247.583z"/>
	<path fill="#FFFFFF" stroke="#FFFFFF" stroke-width="0.2" stroke-miterlimit="10" d="M640.408,275.372h-0.945
		c-0.782,2.233-2.029,4.331-3.492,6.293h1.165C638.53,279.704,639.704,277.605,640.408,275.372z"/>
	<path fill="#FFFFFF" stroke="#FFFFFF" stroke-width="0.2" stroke-miterlimit="10" d="M636.4,262.209h-0.486
		c1.241,1.137,2.296,2.404,3.059,3.81h0.618C638.781,264.613,637.681,263.346,636.4,262.209z"/>
	<path fill="#FFFFFF" stroke="#FFFFFF" stroke-width="0.2" stroke-miterlimit="10" d="M624.717,255.745
		c-2.182-0.81-4.394-1.53-6.619-2.209h-0.183c2.201,0.679,4.388,1.399,6.542,2.209c0.249,0.094,0.502,0.191,0.757,0.291h0.27
		C625.226,255.936,624.969,255.838,624.717,255.745z"/>
	<path fill="#FFFFFF" stroke="#FFFFFF" stroke-width="0.2" stroke-miterlimit="10" d="M618.155,300.048
		c0.577-0.452,1.144-0.918,1.717-1.377h-1.758c-0.589,0.458-1.172,0.925-1.765,1.377c-4.897,3.732-9.925,7.284-15.025,10.732h2.181
		C608.484,307.333,613.388,303.78,618.155,300.048z"/>
</g>
</svg>
