<?xml version="1.0" encoding="utf-8"?>
<!-- Generator: Adobe Illustrator 17.1.0, SVG Export Plug-In . SVG Version: 6.00 Build 0)  -->
<!DOCTYPE svg PUBLIC "-//W3C//DTD SVG 1.1//EN" "http://www.w3.org/Graphics/SVG/1.1/DTD/svg11.dtd">
<svg version="1.1" id="highlight_l1c_center" xmlns="http://www.w3.org/2000/svg" xmlns:xlink="http://www.w3.org/1999/xlink"
	 x="0px" y="0px" width="1600px" height="480px" viewBox="0 0 1600 480" enable-background="new 0 0 1600 480" xml:space="preserve"
	>
<g id="shadow" opacity="0.4">
	<path stroke="#000000" stroke-width="0.2" stroke-miterlimit="10" d="M671.166,283.32l-10.966,7.587
		c-0.244,0.169-0.121,0.552,0.176,0.547l32.626-0.598c0.339-0.006,0.409-0.481,0.087-0.585l-21.661-6.989
		C671.34,283.252,671.243,283.266,671.166,283.32z"/>
	<path stroke="#000000" stroke-width="0.2" stroke-miterlimit="10" d="M670.879,289.915c7.24,8.671,4.768,21.368,1.859,31.243
		c-3.575,12.137-9.232,23.718-15.055,34.912c-12.005,23.08-25.974,45.126-40.232,66.863c-13.536,20.636-27.589,40.931-41.858,61.066
		c13.039,0,26.077,0,39.116,0c12.909-22.871,25.49-45.934,37.304-69.392c5.865-11.646,11.505-23.401,16.8-35.318
		c5.23-11.772,10.168-23.746,14.079-36.028c2.989-9.387,5.617-18.98,6.279-28.849c0.594-8.854-0.645-18.124-7.121-24.714
		L670.879,289.915z"/>
</g>
<path fill="#FFFFFF" stroke="#FFFFFF" stroke-width="0.2" stroke-miterlimit="10" d="M671.166,279.32l-10.966,7.587
	c-0.244,0.169-0.121,0.552,0.176,0.547l32.626-0.598c0.339-0.006,0.409-0.481,0.087-0.585l-21.661-6.989
	C671.34,279.252,671.243,279.266,671.166,279.32z"/>
<path fill="#FFFFFF" stroke="#FFFFFF" stroke-width="0.2" stroke-miterlimit="10" d="M670.879,285.915
	c7.24,8.671,4.768,21.368,1.859,31.243c-3.575,12.137-9.232,23.718-15.055,34.912c-12.005,23.08-25.974,45.126-40.232,66.863
	c-13.536,20.636-27.589,40.931-41.858,61.066c13.039,0,26.077,0,39.116,0c12.909-22.871,25.49-45.934,37.304-69.392
	c5.865-11.646,11.505-23.401,16.8-35.318c5.23-11.772,10.168-23.746,14.079-36.028c2.989-9.387,5.617-18.98,6.279-28.849
	c0.594-8.854-0.645-18.124-7.121-24.714L670.879,285.915z"/>
</svg>
