<?xml version="1.0" encoding="utf-8"?>
<!-- Generator: Adobe Illustrator 17.1.0, SVG Export Plug-In . SVG Version: 6.00 Build 0)  -->
<!DOCTYPE svg PUBLIC "-//W3C//DTD SVG 1.1//EN" "http://www.w3.org/Graphics/SVG/1.1/DTD/svg11.dtd">
<svg version="1.1" id="highlight_r4s" xmlns="http://www.w3.org/2000/svg" xmlns:xlink="http://www.w3.org/1999/xlink" x="0px"
	 y="0px" width="1600px" height="480px" viewBox="0 0 1600 480" enable-background="new 0 0 1600 480" xml:space="preserve">
<g id="shadow" opacity="0.4">
	<path stroke="#000000" stroke-width="0.2" stroke-miterlimit="10" d="M1066.814,299.807l14.069,10.354
		c0.052,0.038,0.114,0.058,0.178,0.058l37.061-0.045c0.362,0,0.414-0.523,0.059-0.594l-51.13-10.309
		C1066.737,299.207,1066.556,299.616,1066.814,299.807z"/>
	<path stroke="#000000" stroke-width="0.2" stroke-miterlimit="10" d="M1599.999,463.062
		c-8.889-2.759-491.902-152.687-498.446-154.719l-12.657,0.015c8.208,2.656,508.195,164.457,511.103,165.397
		C1599.999,470.192,1599.997,466.627,1599.999,463.062z"/>
</g>
<path fill="#FFFFFF" stroke="#FFFFFF" stroke-width="0.2" stroke-miterlimit="10" d="M1066.814,295.807l14.069,10.354
	c0.052,0.038,0.114,0.058,0.178,0.058l37.061-0.045c0.362,0,0.414-0.523,0.059-0.594l-51.13-10.309
	C1066.737,295.207,1066.556,295.616,1066.814,295.807z"/>
<path fill="#FFFFFF" stroke="#FFFFFF" stroke-width="0.2" stroke-miterlimit="10" d="M1599.999,459.062
	c-8.889-2.759-491.902-152.687-498.446-154.719l-12.657,0.015c8.208,2.656,508.195,164.457,511.103,165.397
	C1599.999,466.192,1599.997,462.627,1599.999,459.062z"/>
</svg>
