<?xml version="1.0" encoding="utf-8"?>
<!-- Generator: Adobe Illustrator 17.1.0, SVG Export Plug-In . SVG Version: 6.00 Build 0)  -->
<!DOCTYPE svg PUBLIC "-//W3C//DTD SVG 1.1//EN" "http://www.w3.org/Graphics/SVG/1.1/DTD/svg11.dtd">
<svg version="1.1" id="highlight_r0c_new2" xmlns="http://www.w3.org/2000/svg" xmlns:xlink="http://www.w3.org/1999/xlink" x="0px"
	 y="0px" width="1600px" height="480px" viewBox="0 0 1600 480" enable-background="new 0 0 1600 480" xml:space="preserve">
<g id="shadow" opacity="0.4">
	<path stroke="#000000" stroke-width="0.2" stroke-miterlimit="10" d="M893.687,299.392l-6.464,10.605
		c-0.122,0.2,0.022,0.456,0.257,0.456l37.972-0.046c0.34,0,0.417-0.476,0.095-0.584l-31.508-10.559
		C893.906,299.219,893.76,299.273,893.687,299.392z"/>
	<path stroke="#000000" stroke-width="0.2" stroke-miterlimit="10" d="M898.571,308.588c4.234,3.78,8.721,8.012,11.242,13.185
		c1.155,2.369,1.946,5.177,1.156,7.784c-0.71,2.345-2.224,4.296-4.126,5.808c-4.427,3.518-10.152,5.195-15.549,6.53
		c-6.276,1.553-12.644,2.684-19.019,3.74c-24.488,4.055-50.385,7.623-71.354,21.97c-20.411,13.965-32.809,36.229-42.061,58.593
		c-3.86,9.331-7.1,18.904-10.186,28.514c-3.113,9.696-5.988,19.448-8.616,29.286c11.933,0,23.867,0,35.8,0
		c1.767-13.026,3.838-26.081,6.616-38.932c2.708-12.527,5.896-25.094,10.674-37.009c4.389-10.943,9.95-21.815,17.931-30.599
		c7.859-8.649,17.782-15.083,28.647-19.296c11.825-4.584,24.488-6.918,36.943-9.055c6.481-1.112,12.976-2.15,19.427-3.427
		c6.195-1.227,12.456-2.582,18.371-4.837c6.112-2.33,14.201-7.036,11.766-14.868c-1.087-3.498-3.451-6.614-5.909-9.267
		c-2.759-2.978-5.876-5.612-9.043-8.142L898.571,308.588z"/>
</g>
<path fill="#FFFFFF" stroke="#FFFFFF" stroke-width="0.2" stroke-miterlimit="10" d="M893.687,295.392l-6.464,10.605
	c-0.122,0.2,0.022,0.456,0.257,0.456l37.972-0.046c0.34,0,0.417-0.476,0.095-0.584l-31.508-10.559
	C893.906,295.219,893.76,295.273,893.687,295.392z"/>
<path fill="#FFFFFF" stroke="#FFFFFF" stroke-width="0.2" stroke-miterlimit="10" d="M898.571,304.588
	c4.234,3.78,8.721,8.012,11.242,13.185c1.155,2.369,1.946,5.177,1.156,7.784c-0.71,2.345-2.224,4.296-4.126,5.808
	c-4.427,3.518-10.152,5.195-15.549,6.53c-6.276,1.553-12.644,2.684-19.019,3.74c-24.488,4.055-50.385,7.623-71.354,21.97
	c-20.411,13.965-32.809,36.229-42.061,58.593c-3.86,9.331-7.1,18.904-10.186,28.514c-3.113,9.696-5.988,19.448-8.616,29.286
	c11.933,0,23.867,0,35.8,0c1.767-13.026,3.838-26.081,6.616-38.932c2.708-12.527,5.896-25.094,10.674-37.009
	c4.389-10.943,9.95-21.815,17.931-30.599c7.859-8.649,17.782-15.083,28.647-19.296c11.825-4.584,24.488-6.918,36.943-9.055
	c6.481-1.112,12.976-2.15,19.427-3.427c6.195-1.227,12.456-2.582,18.371-4.837c6.112-2.33,14.201-7.036,11.766-14.868
	c-1.087-3.498-3.451-6.614-5.909-9.267c-2.759-2.978-5.876-5.612-9.043-8.142L898.571,304.588z"/>
</svg>
