<?xml version="1.0" encoding="utf-8"?>
<!-- Generator: Adobe Illustrator 17.1.0, SVG Export Plug-In . SVG Version: 6.00 Build 0)  -->
<!DOCTYPE svg PUBLIC "-//W3C//DTD SVG 1.1//EN" "http://www.w3.org/Graphics/SVG/1.1/DTD/svg11.dtd">
<svg version="1.1" id="r1c_center" xmlns="http://www.w3.org/2000/svg" xmlns:xlink="http://www.w3.org/1999/xlink" x="0px" y="0px"
	 width="1600px" height="480px" viewBox="0 0 1600 480" enable-background="new 0 0 1600 480" xml:space="preserve">
<g id="patch">
	<linearGradient id="SVGID_1_" gradientUnits="userSpaceOnUse" x1="952.5581" y1="480.499" x2="952.5581" y2="245.7656">
		<stop  offset="0" style="stop-color:#181410"/>
		<stop  offset="1" style="stop-color:#383630"/>
	</linearGradient>
	<path fill="url(#SVGID_1_)" d="M1029.08,245.766h-4.592c-18.076,2.015-33.274,4.199-47.498,6.822
		c-10.627,1.961-24.557,4.753-38.052,8.978c-14.583,4.565-25.041,9.296-33.91,15.341c-10.128,6.902-17.625,15.582-22.282,25.797
		c-5.775,12.665-6.644,26.28-6.755,36.728c-0.152,14.313,1.713,28.356,3.355,38.99c1.735,11.23,4.094,23.101,7.647,38.488
		c4.699,20.352,10.198,41.624,16.344,63.227l0.103,0.363h9.151l-0.208-0.652c-6.893-21.577-13.129-42.833-18.537-63.179
		c-4.084-15.362-6.852-27.21-8.975-38.416c-2.007-10.6-4.354-24.593-4.699-38.828c-0.252-10.346,0.135-23.823,5.396-36.319
		c4.227-10.041,11.306-18.578,21.04-25.375c8.574-5.985,18.785-10.677,33.109-15.21c13.294-4.208,27.088-6.992,37.62-8.948
		c15.187-2.818,31.638-5.141,51.768-7.306c0.01-0.001,0.019-0.002,0.028-0.003L1029.08,245.766L1029.08,245.766z"/>
	<linearGradient id="SVGID_2_" gradientUnits="userSpaceOnUse" x1="1028.3712" y1="480.499" x2="1028.3712" y2="245.7656">
		<stop  offset="0" style="stop-color:#181410"/>
		<stop  offset="1" style="stop-color:#383630"/>
	</linearGradient>
	<path fill="url(#SVGID_2_)" d="M1106.387,479.64c-20.678-19.973-39.102-38.191-56.323-55.695
		c-16.811-17.087-36.244-37.04-54.132-57.621c-7.579-8.721-16.393-19.118-24.301-30.114c-3.908-5.433-7.264-10.61-10.26-15.828
		c-3.534-6.154-5.888-11.341-7.407-16.321c-2.111-6.924-2.49-12.707-1.157-17.68c1.318-4.924,4.318-9.541,8.675-13.354
		c3.682-3.221,8.148-5.941,14.058-8.561c5.062-2.242,10.631-4.231,17.026-6.082c13.209-3.822,26.63-6.202,38.016-8.025
		c9.098-1.457,18.806-2.758,30.547-4.095c0.005,0,0.01-0.001,0.015-0.001l-0.057-0.497h-4.352
		c-9.681,1.143-18.343,2.328-26.365,3.604c-11.479,1.829-25.021,4.216-38.414,8.053c-6.503,1.862-12.184,3.867-17.365,6.128
		c-6.094,2.659-10.736,5.43-14.609,8.719c-4.64,3.938-7.911,8.723-9.46,13.836c-1.563,5.159-1.389,11.123,0.532,18.23
		c1.365,5.056,3.564,10.309,6.92,16.531c2.832,5.25,6.024,10.456,9.761,15.916c7.547,11.027,16.017,21.448,23.308,30.188
		c17.183,20.598,35.934,40.566,52.161,57.667c16.626,17.521,34.419,35.745,54.396,55.714l0.146,0.146h9.532L1106.387,479.64z"/>
</g>
<linearGradient id="road_1_" gradientUnits="userSpaceOnUse" x1="990.0363" y1="479.999" x2="990.0363" y2="245.7656">
	<stop  offset="0" style="stop-color:#181410"/>
	<stop  offset="1" style="stop-color:#383630"/>
</linearGradient>
<path id="road" fill="url(#road_1_)" d="M1046.635,424.295c-18.161-18.792-36.196-37.742-53.146-57.644
	c-8.29-9.734-16.456-19.679-23.804-30.15c-3.594-5.121-6.966-10.404-10.01-15.871c-2.908-5.223-5.509-10.665-7.165-16.425
	c-1.656-5.76-2.521-12.095-0.849-17.954c1.535-5.38,4.863-9.977,9.067-13.6c4.25-3.662,9.22-6.392,14.336-8.641
	c5.571-2.45,11.351-4.424,17.196-6.106c12.51-3.601,25.372-5.987,38.216-8.038c10.168-1.624,20.381-2.937,30.611-4.099h-32.005
	c-17.386,1.866-34.736,4.136-51.916,7.315c-12.737,2.357-25.47,5.07-37.836,8.962c-11.71,3.685-23.355,8.272-33.511,15.276
	c-9.451,6.518-17.033,15.034-21.662,25.591c-5.053,11.525-6.157,24.067-6.072,36.526c0.089,13.079,1.816,26.036,4.029,38.91
	c2.22,12.915,5.153,25.738,8.311,38.452c5.267,21.209,11.123,42.281,17.441,63.202c26.319,0,182.065,0,194.132,0
	C1083.323,461.655,1064.825,443.118,1046.635,424.295z"/>
<g id="line">
	<path fill="#FFFFFF" stroke="#FFFFFF" stroke-width="0.2" stroke-miterlimit="10" d="M885.107,302.91
		c0.612-1.453,1.285-2.863,2.007-4.238h-1.758c-0.77,1.375-1.493,2.786-2.155,4.238c-1.174,2.576-2.143,5.205-2.955,7.871h2.181
		C883.146,308.115,884.023,305.486,885.107,302.91z"/>
	<path fill="#FFFFFF" stroke="#FFFFFF" stroke-width="0.2" stroke-miterlimit="10" d="M879.841,378.345
		c0.369,2.389,0.77,4.773,1.184,7.155h4.79c-0.498-2.382-0.982-4.767-1.434-7.155c-1.757-9.275-3.251-18.595-4.073-27.972h-3.563
		C877.24,359.749,878.408,369.069,879.841,378.345z"/>
	<path fill="#FFFFFF" stroke="#FFFFFF" stroke-width="0.2" stroke-miterlimit="10" d="M906.323,277.319
		c0.97-0.677,1.967-1.313,2.964-1.947h-0.945c-1.02,0.633-2.038,1.269-3.032,1.947c-1.995,1.36-3.905,2.812-5.731,4.346h1.165
		C902.515,280.131,904.375,278.679,906.323,277.319z"/>
	<path fill="#FFFFFF" stroke="#FFFFFF" stroke-width="0.2" stroke-miterlimit="10" d="M939.059,262.209h-0.485
		c-3.681,1.161-7.35,2.422-10.975,3.81h0.618C931.793,264.631,935.418,263.37,939.059,262.209z"/>
	<path fill="#FFFFFF" stroke="#FFFFFF" stroke-width="0.2" stroke-miterlimit="10" d="M1013.395,247.583h-0.044
		c-4.274,0.53-8.543,1.096-12.806,1.701h0.072C1004.871,248.679,1009.131,248.114,1013.395,247.583z"/>
	<path fill="#FFFFFF" stroke="#FFFFFF" stroke-width="0.2" stroke-miterlimit="10" d="M974.845,253.536h-0.183
		c-4.151,0.781-8.3,1.604-12.435,2.5h0.27C966.601,255.14,970.721,254.317,974.845,253.536z"/>
	<path fill="#FFFFFF" stroke="#FFFFFF" stroke-width="0.2" stroke-miterlimit="10" d="M1046.23,247.583h-0.021
		c-3.983,0.525-7.962,1.096-11.94,1.701h0.041C1038.275,248.68,1042.248,248.109,1046.23,247.583z"/>
	<path fill="#FFFFFF" stroke="#FFFFFF" stroke-width="0.2" stroke-miterlimit="10" d="M991.424,366.651
		c5.318,6.375,10.758,12.643,16.27,18.849h4.79c-5.729-6.205-11.387-12.474-16.928-18.849c-4.644-5.344-9.247-10.756-13.705-16.279
		h-3.563C982.552,355.896,986.966,361.307,991.424,366.651z"/>
	<path fill="#FFFFFF" stroke="#FFFFFF" stroke-width="0.2" stroke-miterlimit="10" d="M958.394,275.372h-0.945
		c-1.779,1.9-3.312,4.007-4.529,6.293h1.165C955.222,279.38,956.682,277.272,958.394,275.372z"/>
	<path fill="#FFFFFF" stroke="#FFFFFF" stroke-width="0.2" stroke-miterlimit="10" d="M953.485,304.205
		c-0.549-1.799-1.021-3.654-1.364-5.533h-1.758c0.277,1.879,0.685,3.734,1.17,5.533c0.605,2.238,1.356,4.427,2.21,6.576h2.181
		C954.996,308.632,954.168,306.443,953.485,304.205z"/>
	<path fill="#FFFFFF" stroke="#FFFFFF" stroke-width="0.2" stroke-miterlimit="10" d="M1010.235,253.536h-0.183
		c-3.666,0.759-7.317,1.589-10.948,2.5h0.27C1002.974,255.125,1006.596,254.295,1010.235,253.536z"/>
	<path fill="#FFFFFF" stroke="#FFFFFF" stroke-width="0.2" stroke-miterlimit="10" d="M975.337,264.009
		c1.424-0.631,2.864-1.229,4.315-1.8h-0.485c-1.471,0.571-2.931,1.169-4.378,1.8c-1.438,0.628-2.863,1.298-4.267,2.01h0.619
		C972.52,265.307,973.921,264.637,975.337,264.009z"/>
</g>
</svg>
