<?xml version="1.0" encoding="utf-8"?>
<!-- Generator: Adobe Illustrator 17.1.0, SVG Export Plug-In . SVG Version: 6.00 Build 0)  -->
<!DOCTYPE svg PUBLIC "-//W3C//DTD SVG 1.1//EN" "http://www.w3.org/Graphics/SVG/1.1/DTD/svg11.dtd">
<svg version="1.1" id="l0c_e" xmlns="http://www.w3.org/2000/svg" xmlns:xlink="http://www.w3.org/1999/xlink" x="0px" y="0px"
	 width="1600px" height="480px" viewBox="0 0 1600 480" enable-background="new 0 0 1600 480" xml:space="preserve">
<linearGradient id="patch_1_" gradientUnits="userSpaceOnUse" x1="742.0654" y1="480.499" x2="742.0654" y2="245.7656">
	<stop  offset="0" style="stop-color:#181410"/>
	<stop  offset="1" style="stop-color:#383630"/>
</linearGradient>
<path id="patch" fill="url(#patch_1_)" d="M739.034,309.603c-1.752,13.12-6.219,25.903-10.357,36.679
	c-4.132,10.757-8.844,21.459-13.4,31.809l-44.993,102.409h-9.206l48.768-102.831c4.912-10.337,9.991-21.026,14.489-31.76
	c4.492-10.72,9.38-23.434,11.573-36.455c2.297-13.64,0.235-24.596-6.128-32.563c-7.434-9.31-19.514-14.315-27.953-17.271
	c-10.291-3.604-21.685-6.395-36.945-9.051c-9.135-1.589-18.669-2.997-29.147-4.306l0.062-0.496h3.964
	c8.853,1.15,17.183,2.404,25.354,3.816c15.408,2.665,26.949,5.47,37.42,9.092c8.658,2.996,21.084,8.077,29.008,17.583
	C738.373,284.453,740.894,295.672,739.034,309.603z M831.587,401.864c-0.837-3.914-1.667-7.83-2.498-11.745L828.003,385h-5.792
	l1.109,6.253c0.639,3.602,1.277,7.203,1.921,10.804l13.957,78.03l0.073,0.412h9.126L831.587,401.864z"/>
<linearGradient id="road_1_" gradientUnits="userSpaceOnUse" x1="739.7651" y1="479.999" x2="739.7651" y2="245.7656">
	<stop  offset="0" style="stop-color:#181410"/>
	<stop  offset="1" style="stop-color:#383630"/>
</linearGradient>
<path id="road" fill="url(#road_1_)" d="M726.502,346.101c-4.868,12.122-10.369,23.951-15.794,35.829
	c-5.506,12.055-11.013,24.11-16.519,36.165c-9.425,20.635-18.851,41.269-28.276,61.904c26.547,0,171.648,0,177.822,0
	c-5.107-26.01-10.213-52.02-15.319-78.03c-2.53-12.886-4.981-25.791-7.639-38.652c-2.63-12.727-5.619-25.383-9.953-37.652
	c-3.997-11.315-9.179-22.527-16.632-32.005c-7.339-9.333-16.552-16.908-26.991-22.532c-11.079-5.969-23.158-10.101-35.277-13.378
	c-12.606-3.408-25.473-5.819-38.359-7.89c-9.831-1.58-19.699-2.923-29.589-4.096h-28.181c9.766,1.217,19.505,2.628,29.202,4.31
	c12.547,2.176,25.138,4.879,37.183,9.071c10.361,3.606,21.395,8.745,28.483,17.43c7.586,9.296,8.533,21.519,6.805,32.959
	C735.567,322.133,731.232,334.322,726.502,346.101z"/>
<linearGradient id="edge_1_" gradientUnits="userSpaceOnUse" x1="727.2143" y1="479.999" x2="727.2143" y2="245.7656">
	<stop  offset="0" style="stop-color:#181410"/>
	<stop  offset="1" style="stop-color:#383630"/>
</linearGradient>
<path id="edge" fill="url(#edge_1_)" d="M637.603,479.999c11.594-20.635,23.188-41.269,34.782-61.904
	c6.773-12.055,13.547-24.11,20.32-36.165c6.674-11.878,13.418-23.707,19.56-35.829c5.968-11.779,11.584-23.968,14.81-36.565
	c2.93-11.44,3.268-23.663-3.341-32.959c-6.175-8.686-16.669-13.824-26.651-17.43c-11.604-4.192-23.911-6.895-36.229-9.071
	c-9.52-1.682-19.112-3.092-28.749-4.31h3.691c9.766,1.217,19.505,2.628,29.202,4.31c12.547,2.176,25.138,4.879,37.183,9.071
	c10.361,3.606,21.395,8.745,28.483,17.43c7.586,9.296,8.533,21.519,6.805,32.959c-1.902,12.597-6.237,24.786-10.967,36.565
	c-4.868,12.122-10.369,23.951-15.794,35.829c-5.506,12.055-11.013,24.11-16.519,36.165c-9.425,20.635-18.851,41.269-28.276,61.904
	H637.603z M808.513,300.595c-1.762-2.39-3.617-4.713-5.597-6.934c-1.586-1.779-3.252-3.474-4.957-5.124
	c-7.235-7.005-15.476-12.856-24.402-17.407c-11.706-5.969-24.22-10.101-36.683-13.378c-12.964-3.408-26.085-5.819-39.188-7.89
	c-9.997-1.58-20.006-2.923-30.019-4.096h-3.691c9.89,1.173,19.758,2.516,29.589,4.096c12.886,2.071,25.753,4.482,38.359,7.89
	c12.119,3.276,24.198,7.409,35.277,13.378c10.439,5.624,19.652,13.199,26.991,22.532c1.746,2.221,3.357,4.544,4.868,6.934
	c4.937,7.811,8.703,16.407,11.764,25.071c4.334,12.268,7.324,24.924,9.953,37.652c0.525,2.539,1.036,5.081,1.547,7.623
	C817.72,347.491,813.117,324.043,808.513,300.595z"/>
<g id="line">
	<path fill="#FFFFFF" stroke="#FFFFFF" stroke-width="0.2" stroke-miterlimit="10" d="M635.795,245.766
		c9.744,1.217,19.504,2.628,29.171,4.31c12.509,2.176,25.053,4.879,37.025,9.071c10.298,3.606,21.242,8.745,28.179,17.43
		c7.424,9.296,8.157,21.519,6.23,32.959c-2.122,12.597-6.669,24.786-11.605,36.565c-5.079,12.122-10.787,23.951-16.42,35.829
		c-5.717,12.055-11.434,24.11-17.151,36.165c-9.785,20.635-19.571,41.269-29.357,61.904h8.089
		c9.065-20.635,18.13-41.269,27.195-61.904c5.296-12.055,10.592-24.11,15.888-36.165c5.218-11.878,10.513-23.707,15.169-35.829
		c4.524-11.779,8.646-23.968,10.329-36.565c1.528-11.44,0.368-23.663-7.381-32.959c-7.24-8.686-18.363-13.824-28.787-17.43
		c-12.118-4.192-24.756-6.895-37.341-9.071C655.302,248.393,645.582,246.983,635.795,245.766"/>
	<path fill="#FFFFFF" stroke="#FFFFFF" stroke-width="0.2" stroke-miterlimit="10" d="M822.784,363.317
		c-2.852-12.727-6.062-25.383-10.61-37.652c-4.195-11.315-9.572-22.527-17.19-32.005c-7.501-9.333-16.847-16.908-27.384-22.532
		c-11.183-5.969-23.334-10.101-35.51-13.378c-12.665-3.408-25.575-5.819-38.497-7.89c-9.858-1.58-19.705-2.923-29.616-4.096
		c9.87,1.173,19.758,2.516,29.562,4.096c12.85,2.071,25.675,4.482,38.221,7.89c12.062,3.276,24.069,7.409,35.043,13.378
		c10.341,5.624,19.422,13.199,26.597,22.532c7.287,9.478,12.273,20.69,16.073,32.005c4.12,12.268,6.888,24.924,9.296,37.652
		c1.397,7.384,2.724,14.782,4.039,22.183h4.79C826.025,378.099,824.439,370.701,822.784,363.317z"/>
</g>
</svg>
