<?xml version="1.0" encoding="utf-8"?>
<!-- Generator: Adobe Illustrator 17.1.0, SVG Export Plug-In . SVG Version: 6.00 Build 0)  -->
<!DOCTYPE svg PUBLIC "-//W3C//DTD SVG 1.1//EN" "http://www.w3.org/Graphics/SVG/1.1/DTD/svg11.dtd">
<svg version="1.1" id="l2s_e" xmlns="http://www.w3.org/2000/svg" xmlns:xlink="http://www.w3.org/1999/xlink" x="0px" y="0px"
	 width="1600px" height="480px" viewBox="0 0 1600 480" enable-background="new 0 0 1600 480" xml:space="preserve">
<linearGradient id="patch_1_" gradientUnits="userSpaceOnUse" x1="615.5623" y1="480.499" x2="615.5623" y2="245.7656">
	<stop  offset="0" style="stop-color:#181410"/>
	<stop  offset="1" style="stop-color:#383630"/>
</linearGradient>
<path id="patch" fill="url(#patch_1_)" d="M747.305,245.766c-24.685,21.896-118.123,104.796-187.075,165.974l-77.5,68.76h9.6
	l0.143-0.131c8.638-7.907,59.572-54.523,114.228-104.547c59.216-54.195,122.8-112.391,141.696-129.687l-0.332-0.369H747.305z"/>
<linearGradient id="road_1_" gradientUnits="userSpaceOnUse" x1="529.163" y1="479.999" x2="529.163" y2="245.7656">
	<stop  offset="0" style="stop-color:#181410"/>
	<stop  offset="1" style="stop-color:#383630"/>
</linearGradient>
<path id="road" fill="url(#road_1_)" d="M723.214,245.766c-62.587,35.5-410.707,232.963-412.946,234.233
	c26.476,0,171.511,0,177.822,0c18.283-16.474,223.05-200.973,259.968-234.233H723.214z"/>
<linearGradient id="edge_1_" gradientUnits="userSpaceOnUse" x1="502.5861" y1="479.999" x2="502.5861" y2="245.7656">
	<stop  offset="0" style="stop-color:#181410"/>
	<stop  offset="1" style="stop-color:#383630"/>
</linearGradient>
<path id="edge" fill="url(#edge_1_)" d="M281.958,479.999c2.373-1.27,371.247-198.734,437.565-234.233h3.691
	c-62.587,35.5-410.707,232.963-412.946,234.233H281.958z"/>
<g id="line">
	<path fill="#FFFFFF" stroke="#FFFFFF" stroke-width="0.2" stroke-miterlimit="10" d="M690.254,298.672h-1.831
		c-4.421,3.923-8.981,7.968-13.648,12.109h2.249C681.548,306.639,685.968,302.594,690.254,298.672z"/>
	<path fill="#FFFFFF" stroke="#FFFFFF" stroke-width="0.2" stroke-miterlimit="10" d="M630.149,350.372
		c-13.216,11.725-26.581,23.584-39.592,35.128h4.827c12.613-11.544,25.57-23.402,38.381-35.128H630.149z"/>
	<path fill="#FFFFFF" stroke="#FFFFFF" stroke-width="0.2" stroke-miterlimit="10" d="M715.711,275.372h-1.026
		c-2.291,2.032-4.656,4.131-7.093,6.293h1.244C711.197,279.503,713.49,277.405,715.711,275.372z"/>
	<path fill="#FFFFFF" stroke="#FFFFFF" stroke-width="0.2" stroke-miterlimit="10" d="M730.093,262.209h-0.571
		c-1.384,1.228-2.815,2.497-4.294,3.81h0.703C727.364,264.706,728.751,263.437,730.093,262.209z"/>
	<path fill="#FFFFFF" stroke="#FFFFFF" stroke-width="0.2" stroke-miterlimit="10" d="M746.072,247.583h-0.063
		c-0.608,0.539-1.245,1.105-1.917,1.701h0.123C744.866,248.688,745.483,248.122,746.072,247.583z"/>
	<path fill="#FFFFFF" stroke="#FFFFFF" stroke-width="0.2" stroke-miterlimit="10" d="M739.569,253.536h-0.27
		c-0.903,0.801-1.842,1.634-2.818,2.5h0.357C737.783,255.17,738.694,254.337,739.569,253.536z"/>
	<path fill="#FFFFFF" stroke="#FFFFFF" stroke-width="0.2" stroke-miterlimit="10" d="M723.214,245.766
		c-63.206,35.5-414.729,232.963-416.99,234.233h8.089C316.529,478.729,661.247,281.265,723.214,245.766"/>
</g>
</svg>
