<?xml version="1.0" encoding="utf-8"?>
<!-- Generator: Adobe Illustrator 17.1.0, SVG Export Plug-In . SVG Version: 6.00 Build 0)  -->
<!DOCTYPE svg PUBLIC "-//W3C//DTD SVG 1.1//EN" "http://www.w3.org/Graphics/SVG/1.1/DTD/svg11.dtd">
<svg version="1.1" id="ycc_center_er" xmlns="http://www.w3.org/2000/svg" xmlns:xlink="http://www.w3.org/1999/xlink" x="0px"
	 y="0px" width="1600px" height="480px" viewBox="0 0 1600 480" enable-background="new 0 0 1600 480" xml:space="preserve">
<linearGradient id="patch_1_" gradientUnits="userSpaceOnUse" x1="647.5077" y1="480.499" x2="647.5077" y2="245.7656">
	<stop  offset="0" style="stop-color:#181410"/>
	<stop  offset="1" style="stop-color:#383630"/>
</linearGradient>
<path id="patch" fill="url(#patch_1_)" d="M724.276,339.439c-0.124-15.215-2.315-26.957-6.898-36.952
	c-4.584-10-12.26-18.85-22.199-25.591c-8.939-6.063-19.418-10.796-33.978-15.344c-10.756-3.358-22.859-6.208-38.091-8.968
	c-14.455-2.619-29.735-4.802-47.754-6.819h-4.57l-0.054,0.497c0.009,0.001,0.019,0.002,0.027,0.003
	c20.049,2.169,36.573,4.489,52.004,7.304c15.094,2.751,27.06,5.592,37.658,8.938c14.301,4.517,24.534,9.209,33.178,15.214
	c9.688,6.731,16.741,15.199,20.963,25.17c4.177,9.86,5.934,21.471,5.53,36.539c-0.303,11.295-1.879,23.704-4.96,39.053
	c-2.798,13.935-5.715,26.532-8.917,38.515c-5.245,19.627-11.31,40.186-18.541,62.85l-0.208,0.652h9.151l0.103-0.363
	c6.442-22.672,11.793-43.245,16.358-62.896c2.791-12.014,5.272-24.633,7.585-38.576
	C723.221,363.258,724.369,350.794,724.276,339.439z"/>
<g id="road_1_">
	<linearGradient id="SVGID_1_" gradientUnits="userSpaceOnUse" x1="871.4521" y1="479.999" x2="871.4521" y2="245.7656">
		<stop  offset="0" style="stop-color:#181410"/>
		<stop  offset="1" style="stop-color:#383630"/>
	</linearGradient>
	<path fill="url(#SVGID_1_)" d="M997.686,245.766c-14.882,1.536-29.737,3.32-44.526,5.555c-25.82,3.901-51.523,8.913-76.301,17.295
		c-23.592,7.98-45.797,20.111-64.092,37.136c-18.548,17.262-32.869,38.452-45.427,60.315
		c-12.934,22.517-24.121,46.049-34.681,69.759c-6.52,14.639-12.855,29.369-18.989,44.174c26.58,0,53.161,0,79.741,0
		c26.453,0,52.905,0,79.358,0c11.678,0,23.356,0,35.034,0c-7.613-25.242-14.611-50.684-20.601-76.362
		c-2.962-12.698-5.486-25.546-7.263-38.467c-1.767-12.852-2.809-26.03-1.616-38.982c1.098-11.92,4.395-23.662,11.375-33.518
		c6.743-9.522,16.317-16.429,26.636-21.657c11.237-5.692,23.469-9.506,35.655-12.561c12.643-3.17,25.447-5.575,38.318-7.605
		c12.927-2.039,25.915-3.672,38.928-5.081H997.686z"/>
	<linearGradient id="SVGID_2_" gradientUnits="userSpaceOnUse" x1="728.5586" y1="479.999" x2="728.5587" y2="245.7656">
		<stop  offset="0" style="stop-color:#181410"/>
		<stop  offset="1" style="stop-color:#383630"/>
	</linearGradient>
	<path fill="url(#SVGID_2_)" d="M816.294,339.934c-7.132-10.308-15.005-20.187-23.799-29.132
		c-8.655-8.803-18.39-16.479-28.796-23.11c-21.561-13.739-46.155-21.869-70.892-27.74c-25.532-6.059-51.605-9.797-77.657-12.772
		c-4.344-0.496-8.691-0.964-13.04-1.415h-31.322c17.459,1.885,34.878,4.172,52.151,7.311c12.752,2.318,25.5,5.067,37.875,8.954
		c11.743,3.688,23.381,8.28,33.579,15.28c9.364,6.427,16.979,14.948,21.582,25.385c5.071,11.5,6.327,24.293,6.211,36.748
		c-0.122,13.1-1.929,26.273-4.287,39.138c-2.369,12.924-5.067,25.797-8.251,38.545c-5.269,21.095-11.172,42.058-17.45,62.873
		c26.497,0,52.994,0,79.491,0c26.297,0,52.595,0,78.892,0c11.916,0,23.833,0,35.749,0c-10.057-24.275-20.475-48.45-31.912-72.111
		C843.11,384.495,831.101,361.335,816.294,339.934z"/>
</g>
<linearGradient id="edgel_1_" gradientUnits="userSpaceOnUse" x1="817.5171" y1="479.999" x2="817.5171" y2="245.7656">
	<stop  offset="0" style="stop-color:#181410"/>
	<stop  offset="1" style="stop-color:#383630"/>
</linearGradient>
<path id="edgel" fill="url(#edgel_1_)" d="M1032.925,245.766c-12.864,1.409-25.681,3.042-38.394,5.081
	c-12.658,2.03-25.209,4.435-37.519,7.605c-11.864,3.055-23.696,6.869-34.334,12.561c-9.769,5.227-18.617,12.135-24.359,21.657
	c-5.944,9.857-8.007,21.599-7.852,33.518c0.168,12.952,2.595,26.13,5.713,38.982c3.135,12.921,7.009,25.769,11.306,38.467
	c8.689,25.678,18.361,51.119,28.627,76.362h-28.309c-7.613-25.242-14.611-50.684-20.601-76.362
	c-2.962-12.698-5.486-25.546-7.263-38.467c-1.767-12.852-2.809-26.03-1.616-38.982c1.098-11.92,4.395-23.662,11.375-33.518
	c6.743-9.522,16.317-16.429,26.636-21.657c11.237-5.692,23.469-9.506,35.655-12.561c12.643-3.17,25.447-5.575,38.318-7.605
	c12.927-2.039,25.915-3.672,38.928-5.081H1032.925z M993.995,245.766c-15.043,1.536-30.086,3.32-45.11,5.555
	c-26.23,3.901-52.46,8.913-78.119,17.295c-24.431,7.98-47.911,20.111-67.995,37.136c-0.924,0.783-1.831,1.583-2.739,2.382
	c-8.77-7.692-18.274-14.491-28.237-20.441c-23.005-13.739-48.453-21.869-73.808-27.74c-26.169-6.059-52.635-9.797-78.999-12.772
	c-4.396-0.496-8.793-0.964-13.189-1.415h-3.691c4.349,0.451,8.696,0.919,13.04,1.415c26.052,2.975,52.125,6.713,77.657,12.772
	c24.737,5.87,49.331,14.001,70.892,27.74c10.406,6.631,20.141,14.306,28.796,23.11c0.725,0.737,1.434,1.491,2.147,2.241
	c1.83,1.926,3.62,3.89,5.37,5.891c1.755-2,3.553-3.964,5.392-5.891c2.382-2.496,4.83-4.934,7.364-7.292
	c18.294-17.025,40.5-29.156,64.092-37.136c24.778-8.381,50.481-13.394,76.301-17.295c14.789-2.234,29.645-4.019,44.526-5.555
	H993.995z"/>
<g id="line_l_1_">
	<path fill="#FFFFFF" stroke="#FFFFFF" stroke-width="0.2" stroke-miterlimit="10" d="M1029.234,245.766
		c-13.037,1.409-26.009,3.042-38.972,5.081c-12.907,2.03-25.752,4.435-38.451,7.605c-12.239,3.055-24.538,6.869-35.874,12.561
		c-10.41,5.227-20.105,12.135-27.014,21.657c-7.152,9.857-10.654,21.599-11.96,33.518c-1.419,12.952-0.608,26.13,0.936,38.982
		c1.551,12.921,3.85,25.769,6.591,38.467c5.542,25.678,12.096,51.119,19.269,76.362h8.089
		c-8.054-25.242-15.496-50.684-21.934-76.362c-3.184-12.698-5.932-25.546-7.934-38.467c-1.992-12.852-3.263-26.03-2.296-38.982
		c0.89-11.92,3.982-23.662,10.79-33.518c6.577-9.522,16.03-16.429,26.258-21.657c11.137-5.692,23.303-9.506,35.435-12.561
		c12.588-3.17,25.349-5.575,38.185-7.605C1003.242,248.808,1016.246,247.175,1029.234,245.766"/>
	<path fill="#FFFFFF" stroke="#FFFFFF" stroke-width="0.2" stroke-miterlimit="10" d="M602.11,245.766
		c4.341,0.451,8.724,0.919,13.06,1.415c26,2.975,52.008,6.713,77.434,12.772c24.635,5.87,49.086,14.001,70.408,27.74
		c10.29,6.631,19.891,14.306,28.393,23.11c2.982,3.088,5.852,6.287,8.619,9.577l-0.008,0.006c0.409-0.485,0.816-0.971,1.23-1.452
		c3.949-4.592,8.109-9.005,12.526-13.183c17.997-17.025,39.991-29.156,63.443-37.136c24.631-8.381,50.248-13.394,75.999-17.295
		c14.75-2.234,29.619-4.019,44.473-5.555c-14.908,1.536-29.751,3.32-44.579,5.555c-25.888,3.901-51.679,8.913-76.603,17.295
		c-23.731,7.98-46.148,20.111-64.74,37.136c-4.105,3.76-8.003,7.715-11.739,11.813l0.001-0.001
		c-2.094-2.305-4.241-4.561-6.442-6.761c-8.809-8.803-18.678-16.479-29.199-23.11c-21.801-13.739-46.537-21.869-71.376-27.74
		c-25.638-6.059-51.776-9.797-77.88-12.772C610.777,246.685,606.466,246.217,602.11,245.766"/>
	<path fill="#FFFFFF" stroke="#FFFFFF" stroke-width="0.2" stroke-miterlimit="10" d="M586.464,247.583h-0.044
		c4.276,0.532,8.547,1.097,12.812,1.701h0.073C595.029,248.681,590.749,248.115,586.464,247.583z"/>
	<path fill="#FFFFFF" stroke="#FFFFFF" stroke-width="0.2" stroke-miterlimit="10" d="M723.488,350.372h-3.563
		c-0.866,9.468-2.435,18.919-4.301,28.208c-0.464,2.309-0.951,4.614-1.437,6.919h4.79c0.405-2.305,0.812-4.61,1.195-6.919
		C721.713,369.291,722.953,359.84,723.488,350.372z"/>
	<path fill="#FFFFFF" stroke="#FFFFFF" stroke-width="0.2" stroke-miterlimit="10" d="M716.924,302.695
		c-0.63-1.375-1.316-2.715-2.047-4.023h-1.758c0.685,1.308,1.324,2.648,1.906,4.023c1.115,2.633,2.021,5.336,2.763,8.085h2.181
		C719.131,308.032,718.131,305.328,716.924,302.695z"/>
	<path fill="#FFFFFF" stroke="#FFFFFF" stroke-width="0.2" stroke-miterlimit="10" d="M694.899,277.311
		c-0.994-0.674-2.012-1.307-3.031-1.938h-0.945c0.997,0.631,1.993,1.264,2.963,1.938c1.953,1.357,3.821,2.813,5.603,4.354h1.165
		C698.818,280.123,696.899,278.667,694.899,277.311z"/>
	<path fill="#FFFFFF" stroke="#FFFFFF" stroke-width="0.2" stroke-miterlimit="10" d="M625.492,253.536h-0.183
		c4.145,0.775,8.286,1.599,12.41,2.5h0.27C633.833,255.135,629.664,254.311,625.492,253.536z"/>
	<path fill="#FFFFFF" stroke="#FFFFFF" stroke-width="0.2" stroke-miterlimit="10" d="M661.606,262.209h-0.485
		c3.646,1.161,7.273,2.422,10.85,3.81h0.619C668.963,264.631,665.292,263.37,661.606,262.209z"/>
</g>
</svg>
