<?xml version="1.0" encoding="utf-8"?>
<!-- Generator: Adobe Illustrator 17.1.0, SVG Export Plug-In . SVG Version: 6.00 Build 0)  -->
<!DOCTYPE svg PUBLIC "-//W3C//DTD SVG 1.1//EN" "http://www.w3.org/Graphics/SVG/1.1/DTD/svg11.dtd">
<svg version="1.1" id="highlight_l2c" xmlns="http://www.w3.org/2000/svg" xmlns:xlink="http://www.w3.org/1999/xlink" x="0px"
	 y="0px" width="1600px" height="480px" viewBox="0 0 1600 480" enable-background="new 0 0 1600 480" xml:space="preserve">
<g id="patch" opacity="0.4">
	<path stroke="#000000" stroke-width="0.2" stroke-miterlimit="10" d="M649.462,299.56l-27.291,10.818
		c-0.309,0.123-0.219,0.582,0.114,0.579l38.657-0.404c0.272-0.003,0.4-0.337,0.2-0.521l-11.366-10.414
		C649.69,299.54,649.569,299.518,649.462,299.56z"/>
	<path stroke="#000000" stroke-width="0.2" stroke-miterlimit="10" d="M648.502,308.831l-12.923,0.121
		c-8.381,9.227-18.266,17.007-28.181,24.503c-10.42,7.878-21.121,15.381-31.908,22.746c-21.826,14.901-43.954,29.355-66.096,43.78
		c-22.228,14.481-44.501,28.891-66.758,43.326c-20.885,13.545-41.762,27.103-62.618,40.692c11.932,0,23.864,0,35.796,0
		c21.619-15.407,43.27-30.769,64.928-46.122c21.571-15.291,43.165-30.552,64.67-45.935c21.305-15.24,42.658-30.468,63.29-46.615
		c7.215-5.646,14.341-11.409,21.225-17.455C636.597,322.012,643.045,315.86,648.502,308.831z"/>
</g>
<path fill="#FFFFFF" stroke="#FFFFFF" stroke-width="0.2" stroke-miterlimit="10" d="M649.462,295.56l-27.291,10.818
	c-0.309,0.123-0.219,0.582,0.114,0.579l38.657-0.404c0.272-0.003,0.4-0.337,0.2-0.521l-11.366-10.414
	C649.69,295.54,649.569,295.518,649.462,295.56z"/>
<path fill="#FFFFFF" stroke="#FFFFFF" stroke-width="0.2" stroke-miterlimit="10" d="M648.502,304.831l-12.923,0.121
	c-8.381,9.227-18.266,17.007-28.181,24.503c-10.42,7.878-21.121,15.381-31.908,22.746c-21.826,14.901-43.954,29.355-66.096,43.78
	c-22.228,14.481-44.501,28.891-66.758,43.326c-20.885,13.545-41.762,27.103-62.618,40.692c11.932,0,23.864,0,35.796,0
	c21.619-15.407,43.27-30.769,64.928-46.122c21.571-15.291,43.165-30.552,64.67-45.935c21.305-15.24,42.658-30.468,63.29-46.615
	c7.215-5.646,14.341-11.409,21.225-17.455C636.597,318.012,643.045,311.86,648.502,304.831z"/>
</svg>
