<?xml version="1.0" encoding="utf-8"?>
<!-- Generator: Adobe Illustrator 17.1.0, SVG Export Plug-In . SVG Version: 6.00 Build 0)  -->
<!DOCTYPE svg PUBLIC "-//W3C//DTD SVG 1.1//EN" "http://www.w3.org/Graphics/SVG/1.1/DTD/svg11.dtd">
<svg version="1.1" id="r3c" xmlns="http://www.w3.org/2000/svg" xmlns:xlink="http://www.w3.org/1999/xlink" x="0px" y="0px"
	 width="1600px" height="480px" viewBox="0 0 1600 480" enable-background="new 0 0 1600 480" xml:space="preserve">
<g id="patch">
	<linearGradient id="SVGID_1_" gradientUnits="userSpaceOnUse" x1="1281.3551" y1="480.499" x2="1281.3551" y2="245.7656">
		<stop  offset="0" style="stop-color:#181410"/>
		<stop  offset="1" style="stop-color:#383630"/>
	</linearGradient>
	<path fill="url(#SVGID_1_)" d="M1258.014,372.944c-25.513-9.027-50.474-17.873-75.359-26.847
		c-23.759-8.565-49.244-17.839-74.629-27.61l-0.101-0.039c-24.144-9.294-49.108-18.904-72.744-30.411
		c-4.967-2.42-10.804-5.35-16.432-8.739c-4.653-2.804-9.929-5.982-13.601-10.231c-2.065-2.391-3.013-4.512-2.896-6.486
		c0.141-2.355,1.831-4.212,3.225-5.354c4.35-3.565,10.36-5.21,15.663-6.66c5.965-1.632,12.632-3,20.98-4.305
		c0.002-0.001,0.004-0.001,0.006-0.001l-0.077-0.494v0h-3.152c-6.909,1.148-12.719,2.382-18.083,3.835
		c-5.449,1.477-11.626,3.15-16.265,6.848c-2.278,1.815-3.59,3.91-3.792,6.056c-0.212,2.249,0.733,4.606,2.891,7.209
		c3.627,4.373,8.863,7.596,13.483,10.439c5.543,3.41,11.302,6.353,16.205,8.782c23.267,11.523,47.911,21.14,71.744,30.44
		l0.116,0.045c25.044,9.772,50.215,19.049,73.685,27.618c24.51,8.95,49.191,17.808,74.427,26.849l297.501,106.583l11.17,0.029
		L1258.014,372.944z"/>
	<linearGradient id="SVGID_2_" gradientUnits="userSpaceOnUse" x1="1173.0566" y1="480.499" x2="1173.0566" y2="245.7656">
		<stop  offset="0" style="stop-color:#181410"/>
		<stop  offset="1" style="stop-color:#383630"/>
	</linearGradient>
	<path fill="url(#SVGID_2_)" d="M1181.041,387.321c-17.839-8.206-35.679-16.412-53.509-24.638
		c-29.294-13.515-51.539-24.057-72.126-34.179c-13.924-6.847-25.181-12.583-35.426-18.054c-10.97-5.855-22.594-12.187-33.521-19.517
		c-5.765-3.868-10.457-7.266-14.619-11.274c-3.201-3.084-7.586-7.309-7.592-12.508c-0.009-7.768,9.546-11.171,15.868-13.424
		c11.053-3.938,22.819-5.849,33.924-7.468l-0.072-0.495h-3.414c-10.141,1.524-20.739,3.427-30.945,7.021
		c-6.259,2.202-16.733,5.889-17.02,14.351c-0.19,5.628,4.222,10.026,7.443,13.238c4.073,4.061,8.688,7.489,14.362,11.387
		c10.705,7.355,22.135,13.701,32.924,19.57c10.052,5.469,21.118,11.21,34.826,18.068c20.246,10.129,42.13,20.674,70.956,34.19
		c17.665,8.282,35.339,16.545,53.014,24.809l196.829,92.053l10.583,0.047L1181.041,387.321z"/>
</g>
<linearGradient id="road_1_" gradientUnits="userSpaceOnUse" x1="1259.2213" y1="479.999" x2="1259.2213" y2="245.7656">
	<stop  offset="0" style="stop-color:#181410"/>
	<stop  offset="1" style="stop-color:#383630"/>
</linearGradient>
<path id="road" fill="url(#road_1_)" d="M1480.308,453.397c-25.024-8.909-50.047-17.819-75.071-26.728
	c-24.98-8.894-49.961-17.788-74.941-26.681c-24.878-8.857-49.756-17.715-74.633-26.572c-24.984-8.895-49.963-17.802-74.893-26.847
	c-24.794-8.996-49.563-18.084-74.157-27.615c-24.378-9.448-48.866-18.936-72.352-30.468c-5.541-2.721-11.043-5.548-16.318-8.76
	c-4.747-2.89-9.911-6.046-13.541-10.333c-1.586-1.873-3.093-4.289-2.897-6.843c0.18-2.345,1.741-4.285,3.506-5.711
	c4.469-3.612,10.521-5.273,15.967-6.756c6.908-1.881,13.98-3.212,21.072-4.317h-28.081c-11.495,1.672-23.16,3.615-34.106,7.492
	c-6.31,2.235-16.31,5.777-16.443,13.896c-0.086,5.244,4.032,9.448,7.521,12.867c4.369,4.281,9.44,7.901,14.49,11.33
	c10.624,7.212,21.927,13.456,33.221,19.543c11.591,6.247,23.331,12.211,35.126,18.06c23.678,11.743,47.577,23.039,71.541,34.184
	c24.013,11.168,48.044,22.3,72.068,33.445c23.971,11.12,47.941,22.24,71.912,33.36c23.986,11.127,47.972,22.254,71.958,33.382
	c11.982,5.558,23.963,11.117,35.945,16.675c26.497,0,171.644,0,177.822,0C1530.119,471.132,1505.213,462.265,1480.308,453.397z"/>
<g id="line">
	<path fill="#FFFFFF" stroke="#FFFFFF" stroke-width="0.2" stroke-miterlimit="10" d="M1253.479,373.416
		c11.243,4.028,22.486,8.056,33.73,12.084h4.79c-11.384-4.028-22.768-8.056-34.151-12.084c-21.592-7.64-43.176-15.306-64.734-23.044
		h-3.563C1210.837,358.11,1232.153,365.776,1253.479,373.416z"/>
	<path fill="#FFFFFF" stroke="#FFFFFF" stroke-width="0.2" stroke-miterlimit="10" d="M1057.262,298.672h-1.758
		c9.614,4.221,19.333,8.22,29.094,12.109h2.181C1076.882,306.892,1067.023,302.892,1057.262,298.672z"/>
	<path fill="#FFFFFF" stroke="#FFFFFF" stroke-width="0.2" stroke-miterlimit="10" d="M1018.492,279.726
		c-2.258-1.36-4.606-2.785-6.85-4.354h-0.945c2.188,1.568,4.487,2.993,6.698,4.354c1.081,0.665,2.177,1.304,3.276,1.939h1.165
		C1020.714,281.03,1019.595,280.391,1018.492,279.726z"/>
	<path fill="#FFFFFF" stroke="#FFFFFF" stroke-width="0.2" stroke-miterlimit="10" d="M1001.754,262.55
		c0.007-0.116,0.032-0.227,0.046-0.341h-0.486c-0.018,0.114-0.047,0.225-0.058,0.341c-0.113,1.202,0.159,2.37,0.633,3.468h0.619
		C1001.996,264.92,1001.682,263.752,1001.754,262.55z"/>
	<path fill="#FFFFFF" stroke="#FFFFFF" stroke-width="0.2" stroke-miterlimit="10" d="M1031.724,247.583h-0.021
		c-2.538,0.506-5.062,1.08-7.576,1.701h0.043C1026.671,248.664,1029.188,248.089,1031.724,247.583z"/>
	<path fill="#FFFFFF" stroke="#FFFFFF" stroke-width="0.2" stroke-miterlimit="10" d="M1010.62,253.536h-0.183
		c-1.571,0.703-3.064,1.533-4.454,2.5h0.27C1007.609,255.069,1009.073,254.238,1010.62,253.536z"/>
	<path fill="#FFFFFF" stroke="#FFFFFF" stroke-width="0.2" stroke-miterlimit="10" d="M1002.554,247.583h-0.04
		c-2.868,0.506-5.726,1.067-8.566,1.701h0.068C996.845,248.651,999.694,248.089,1002.554,247.583z"/>
	<path fill="#FFFFFF" stroke="#FFFFFF" stroke-width="0.2" stroke-miterlimit="10" d="M1123.314,363.138
		c15.926,7.468,31.862,14.913,47.797,22.362h4.79c-16.195-7.45-32.391-14.895-48.578-22.362
		c-9.156-4.224-18.297-8.482-27.427-12.765h-3.563C1105.313,354.656,1114.306,358.914,1123.314,363.138z"/>
	<path fill="#FFFFFF" stroke="#FFFFFF" stroke-width="0.2" stroke-miterlimit="10" d="M997.812,298.672h-1.758
		c6.979,4.243,14.138,8.211,21.3,12.109h2.181C1012.237,306.883,1004.94,302.915,997.812,298.672z"/>
	<path fill="#FFFFFF" stroke="#FFFFFF" stroke-width="0.2" stroke-miterlimit="10" d="M971.495,280.02
		c-1.463-1.409-3.031-2.954-4.374-4.648h-0.945c1.284,1.694,2.798,3.239,4.212,4.648c0.561,0.56,1.136,1.107,1.72,1.645h1.165
		C972.669,281.127,972.076,280.58,971.495,280.02z"/>
	<path fill="#FFFFFF" stroke="#FFFFFF" stroke-width="0.2" stroke-miterlimit="10" d="M979.17,253.536h-0.183
		c-1.932,0.684-4.13,1.491-6.266,2.5h0.27C975.092,255.026,977.262,254.219,979.17,253.536z"/>
	<path fill="#FFFFFF" stroke="#FFFFFF" stroke-width="0.2" stroke-miterlimit="10" d="M965.18,262.209h-0.485
		c-0.75,1.134-1.274,2.398-1.492,3.81h0.618C963.99,264.607,964.469,263.343,965.18,262.209z"/>
</g>
</svg>
