<?xml version="1.0" encoding="utf-8"?>
<!-- Generator: Adobe Illustrator 17.1.0, SVG Export Plug-In . SVG Version: 6.00 Build 0)  -->
<!DOCTYPE svg PUBLIC "-//W3C//DTD SVG 1.1//EN" "http://www.w3.org/Graphics/SVG/1.1/DTD/svg11.dtd">
<svg version="1.1" id="highlight_l3c" xmlns="http://www.w3.org/2000/svg" xmlns:xlink="http://www.w3.org/1999/xlink" x="0px"
	 y="0px" width="1600px" height="480px" viewBox="0 0 1600 480" enable-background="new 0 0 1600 480" xml:space="preserve">
<g id="patch" opacity="0.4">
	<path stroke="#000000" stroke-width="0.2" stroke-miterlimit="10" d="M591.54,299.634l-34.376,10.812
		c-0.329,0.104-0.252,0.59,0.093,0.586l38.874-0.404c0.214-0.002,0.357-0.222,0.272-0.419l-4.498-10.408
		C591.845,299.66,591.687,299.588,591.54,299.634z"/>
	<path stroke="#000000" stroke-width="0.2" stroke-miterlimit="10" d="M571.49,309.028c-10.902,6.96-22.286,13.158-33.757,19.121
		c-11.634,6.048-23.4,11.845-35.207,17.547c-23.817,11.502-47.821,22.614-71.846,33.672c-23.949,11.023-47.943,21.946-71.939,32.867
		c-24.027,10.935-48.062,21.854-72.093,32.782c-24.129,10.972-48.252,21.954-72.372,32.946c-4.412,2.011-8.824,4.022-13.236,6.035
		c11.932,0,23.864,0,35.796,0c23.815-11.558,47.641-23.092,71.47-34.621c23.802-11.517,47.612-23.018,71.413-34.537
		c23.72-11.479,47.439-22.963,71.109-34.547c23.652-11.576,47.274-23.221,70.674-35.299c10.777-5.562,21.499-11.236,32.09-17.146
		c10.547-5.886,20.997-12.029,30.91-18.942L571.49,309.028z"/>
</g>
<path fill="#FFFFFF" stroke="#FFFFFF" stroke-width="0.2" stroke-miterlimit="10" d="M591.54,295.634l-34.376,10.812
	c-0.329,0.104-0.252,0.59,0.093,0.586l38.874-0.404c0.214-0.002,0.357-0.222,0.272-0.419l-4.498-10.408
	C591.845,295.66,591.687,295.588,591.54,295.634z"/>
<path fill="#FFFFFF" stroke="#FFFFFF" stroke-width="0.2" stroke-miterlimit="10" d="M571.49,305.028
	c-10.902,6.96-22.286,13.158-33.757,19.121c-11.634,6.048-23.4,11.845-35.207,17.547c-23.817,11.502-47.821,22.614-71.846,33.672
	c-23.949,11.023-47.943,21.946-71.939,32.867c-24.027,10.935-48.062,21.854-72.093,32.782
	c-24.129,10.972-48.252,21.954-72.372,32.946c-4.412,2.011-8.824,4.022-13.236,6.035c11.932,0,23.864,0,35.796,0
	c23.815-11.558,47.641-23.092,71.47-34.621c23.802-11.517,47.612-23.018,71.413-34.537c23.72-11.479,47.439-22.963,71.109-34.547
	c23.652-11.576,47.274-23.221,70.674-35.299c10.777-5.562,21.499-11.236,32.09-17.146c10.547-5.886,20.997-12.029,30.91-18.942
	L571.49,305.028z"/>
</svg>
