<?xml version="1.0" encoding="utf-8"?>
<!-- Generator: Adobe Illustrator 17.1.0, SVG Export Plug-In . SVG Version: 6.00 Build 0)  -->
<!DOCTYPE svg PUBLIC "-//W3C//DTD SVG 1.1//EN" "http://www.w3.org/Graphics/SVG/1.1/DTD/svg11.dtd">
<svg version="1.1" id="r2s_center_e" xmlns="http://www.w3.org/2000/svg" xmlns:xlink="http://www.w3.org/1999/xlink" x="0px"
	 y="0px" width="1600px" height="480px" viewBox="0 0 1600 480" enable-background="new 0 0 1600 480" xml:space="preserve">
<linearGradient id="patch_1_" gradientUnits="userSpaceOnUse" x1="967.8511" y1="480.499" x2="967.8511" y2="245.7656">
	<stop  offset="0" style="stop-color:#181410"/>
	<stop  offset="1" style="stop-color:#383630"/>
</linearGradient>
<path id="patch" fill="url(#patch_1_)" d="M1095.45,479.631c-42.586-39.041-85.161-78.081-127.736-117.121
	c-42.438-38.915-84.877-77.83-127.326-116.744h-0.745l-0.339,0.363c41.223,39.04,82.456,78.079,123.69,117.119
	c41.231,39.038,82.464,78.076,123.685,117.114l0.145,0.137h9.573L1095.45,479.631z"/>
<linearGradient id="road_1_" gradientUnits="userSpaceOnUse" x1="1062.3806" y1="479.999" x2="1062.3806" y2="245.7656">
	<stop  offset="0" style="stop-color:#181410"/>
	<stop  offset="1" style="stop-color:#383630"/>
</linearGradient>
<path id="road" fill="url(#road_1_)" d="M1285.113,479.999c-139.677-78.078-279.355-156.156-419.033-234.233h-26.432
	c83.806,78.078,167.614,156.155,251.419,234.233C1155.75,479.999,1220.431,479.999,1285.113,479.999z"/>
<linearGradient id="edge_1_" gradientUnits="userSpaceOnUse" x1="1089.7515" y1="479.999" x2="1089.7515" y2="245.7656">
	<stop  offset="0" style="stop-color:#181410"/>
	<stop  offset="1" style="stop-color:#383630"/>
</linearGradient>
<path id="edge" fill="url(#edge_1_)" d="M1313.422,479.999c-147.884-78.078-295.768-156.156-443.651-234.233h-3.691
	c139.678,78.078,279.355,156.155,419.033,234.233H1313.422z"/>
<g id="line">
	<path fill="#FFFFFF" stroke="#FFFFFF" stroke-width="0.2" stroke-miterlimit="10" d="M897.35,298.672h-1.827
		c4.263,4.036,8.525,8.073,12.788,12.109h2.245C906.154,306.744,901.752,302.708,897.35,298.672z"/>
	<path fill="#FFFFFF" stroke="#FFFFFF" stroke-width="0.2" stroke-miterlimit="10" d="M950.125,350.372
		c12.367,11.709,24.731,23.418,37.098,35.128h4.825c-12.77-11.709-25.542-23.418-38.311-35.128H950.125z"/>
	<path fill="#FFFFFF" stroke="#FFFFFF" stroke-width="0.2" stroke-miterlimit="10" d="M848.123,253.536h-0.268
		c0.88,0.833,1.76,1.667,2.64,2.5h0.355C849.94,255.202,849.032,254.369,848.123,253.536z"/>
	<path fill="#FFFFFF" stroke="#FFFFFF" stroke-width="0.2" stroke-miterlimit="10" d="M857.582,262.209h-0.568
		c1.341,1.27,2.682,2.54,4.023,3.81h0.699C860.352,264.749,858.967,263.479,857.582,262.209z"/>
	<path fill="#FFFFFF" stroke="#FFFFFF" stroke-width="0.2" stroke-miterlimit="10" d="M871.939,275.372h-1.022
		c2.215,2.097,4.43,4.195,6.646,6.293h1.24C876.514,279.568,874.226,277.47,871.939,275.372z"/>
	<path fill="#FFFFFF" stroke="#FFFFFF" stroke-width="0.2" stroke-miterlimit="10" d="M841.631,247.583h-0.063
		c0.599,0.567,1.197,1.134,1.796,1.701h0.122C842.867,248.717,842.249,248.15,841.631,247.583z"/>
	<path fill="#FFFFFF" stroke="#FFFFFF" stroke-width="0.2" stroke-miterlimit="10" d="M866.08,245.766
		c138.315,78.078,276.674,156.155,414.988,234.233h8.089C1148.117,401.921,1007.121,323.843,866.08,245.766"/>
</g>
</svg>
