<?xml version="1.0" encoding="utf-8"?>
<!-- Generator: Adobe Illustrator 17.1.0, SVG Export Plug-In . SVG Version: 6.00 Build 0)  -->
<!DOCTYPE svg PUBLIC "-//W3C//DTD SVG 1.1//EN" "http://www.w3.org/Graphics/SVG/1.1/DTD/svg11.dtd">
<svg version="1.1" id="highlight_r0c_center_new1" xmlns="http://www.w3.org/2000/svg" xmlns:xlink="http://www.w3.org/1999/xlink"
	 x="0px" y="0px" width="1600px" height="480px" viewBox="0 0 1600 480" enable-background="new 0 0 1600 480" xml:space="preserve"
	>
<g id="shadow" opacity="0.4">
	<path stroke="#000000" stroke-width="0.2" stroke-miterlimit="10" d="M861.609,298.112l-12.329,11.493
		c-0.199,0.186-0.068,0.519,0.205,0.519h41.325c0.331,0,0.418-0.457,0.111-0.579l-28.996-11.493
		C861.816,298.01,861.694,298.033,861.609,298.112z"/>
	<path stroke="#000000" stroke-width="0.2" stroke-miterlimit="10" d="M784.724,483.999c13.032,0,26.065,0,39.097,0
		c-0.296-13.171-0.432-26.368-0.137-39.54c0.294-13.152,0.734-26.33,2.415-39.389c1.536-11.932,3.614-24.103,9.129-34.928
		c2.501-4.909,5.781-9.417,10.065-12.919c4.427-3.619,9.593-6.156,14.89-8.233c4.495-1.762,9.129-3.141,13.626-4.891
		c3.851-1.498,7.836-3.412,10.52-6.662c3.364-4.074,3.263-9.176,1.424-13.921c-2.151-5.552-5.828-10.556-9.572-15.13
		c-0.077-0.095-0.154-0.189-0.232-0.284l-13.73,0.005c5.461,8.152,12.948,21.124,3.641,29.418
		c-4.289,3.822-10.217,5.571-15.564,7.328c-5.528,1.817-11.096,3.59-16.359,6.098c-5.242,2.499-10.066,5.843-14.2,9.928
		c-4.291,4.24-7.668,9.376-10.56,14.644c-5.941,10.82-9.339,23.102-12.25,35.031c-2.948,12.079-5.12,24.362-7.079,36.635
		C787.898,459.419,786.221,471.704,784.724,483.999z"/>
</g>
<path fill="#FFFFFF" stroke="#FFFFFF" stroke-width="0.2" stroke-miterlimit="10" d="M861.609,294.112l-12.329,11.493
	c-0.199,0.186-0.068,0.519,0.205,0.519h41.325c0.331,0,0.418-0.457,0.111-0.579l-28.996-11.493
	C861.816,294.01,861.694,294.033,861.609,294.112z"/>
<path fill="#FFFFFF" stroke="#FFFFFF" stroke-width="0.2" stroke-miterlimit="10" d="M784.724,479.999c13.032,0,26.065,0,39.097,0
	c-0.296-13.171-0.432-26.368-0.137-39.54c0.294-13.152,0.734-26.33,2.415-39.389c1.536-11.932,3.614-24.103,9.129-34.928
	c2.501-4.909,5.781-9.417,10.065-12.919c4.427-3.619,9.593-6.156,14.89-8.233c4.495-1.762,9.129-3.141,13.626-4.891
	c3.851-1.498,7.836-3.412,10.52-6.662c3.364-4.074,3.263-9.176,1.424-13.921c-2.151-5.552-5.828-10.556-9.572-15.13
	c-0.077-0.095-0.154-0.189-0.232-0.284l-13.73,0.005c5.461,8.152,12.948,21.124,3.641,29.418
	c-4.289,3.822-10.217,5.571-15.564,7.328c-5.528,1.817-11.096,3.59-16.359,6.098c-5.242,2.499-10.066,5.843-14.2,9.928
	c-4.291,4.24-7.668,9.376-10.56,14.644c-5.941,10.82-9.339,23.102-12.25,35.031c-2.948,12.079-5.12,24.362-7.079,36.635
	C787.898,455.419,786.221,467.704,784.724,479.999z"/>
</svg>
