<?xml version="1.0" encoding="utf-8"?>
<!-- Generator: Adobe Illustrator 17.1.0, SVG Export Plug-In . SVG Version: 6.00 Build 0)  -->
<!DOCTYPE svg PUBLIC "-//W3C//DTD SVG 1.1//EN" "http://www.w3.org/Graphics/SVG/1.1/DTD/svg11.dtd">
<svg version="1.1" id="highlight_l0c" xmlns="http://www.w3.org/2000/svg" xmlns:xlink="http://www.w3.org/1999/xlink" x="0px"
	 y="0px" width="1600px" height="480px" viewBox="0 0 1600 480" enable-background="new 0 0 1600 480" xml:space="preserve">
<g id="shadow" opacity="0.4">
	<path stroke="#000000" stroke-width="0.2" stroke-miterlimit="10" d="M764.927,299.482l-13.051,10.793
		c-0.218,0.18-0.088,0.534,0.194,0.531l38.092-0.403c0.326-0.003,0.413-0.452,0.112-0.577l-25.041-10.39
		C765.131,299.393,765.013,299.411,764.927,299.482z"/>
	<path stroke="#000000" stroke-width="0.2" stroke-miterlimit="10" d="M763.455,308.799c4.796,11.766,4.572,24.921,3.288,37.348
		c-1.346,13.026-3.915,25.917-6.592,38.724c-5.417,25.915-11.572,51.676-17.376,77.506c-1.619,7.204-3.221,14.411-4.808,21.622
		c11.932,0,23.864,0,35.796,0c2.342-26.435,4.998-52.84,7.442-79.266c1.219-13.181,2.382-26.383,2.975-39.61
		c0.58-12.917,0.754-26.189-1.812-38.921c-1.227-6.09-3.214-12.047-6.169-17.524L763.455,308.799z"/>
</g>
<path fill="#FFFFFF" stroke="#FFFFFF" stroke-width="0.2" stroke-miterlimit="10" d="M764.927,295.482l-13.051,10.793
	c-0.218,0.18-0.088,0.534,0.194,0.531l38.092-0.403c0.326-0.003,0.413-0.452,0.112-0.577l-25.041-10.39
	C765.131,295.393,765.013,295.411,764.927,295.482z"/>
<path fill="#FFFFFF" stroke="#FFFFFF" stroke-width="0.2" stroke-miterlimit="10" d="M763.455,304.799
	c4.796,11.766,4.572,24.921,3.288,37.348c-1.346,13.026-3.915,25.917-6.592,38.724c-5.417,25.915-11.572,51.676-17.376,77.506
	c-1.619,7.204-3.221,14.411-4.808,21.622c11.932,0,23.864,0,35.796,0c2.342-26.435,4.998-52.84,7.442-79.266
	c1.219-13.181,2.382-26.383,2.975-39.61c0.58-12.917,0.754-26.189-1.812-38.921c-1.227-6.09-3.214-12.047-6.169-17.524
	L763.455,304.799z"/>
</svg>
