<?xml version="1.0" encoding="utf-8"?>
<!-- Generator: Adobe Illustrator 17.1.0, SVG Export Plug-In . SVG Version: 6.00 Build 0)  -->
<!DOCTYPE svg PUBLIC "-//W3C//DTD SVG 1.1//EN" "http://www.w3.org/Graphics/SVG/1.1/DTD/svg11.dtd">
<svg version="1.1" id="highlight_r1c_center" xmlns="http://www.w3.org/2000/svg" xmlns:xlink="http://www.w3.org/1999/xlink"
	 x="0px" y="0px" width="1600px" height="480px" viewBox="0 0 1600 480" enable-background="new 0 0 1600 480" xml:space="preserve"
	>
<g id="shadow" opacity="0.4">
	<path stroke="#000000" stroke-width="0.2" stroke-miterlimit="10" d="M927.907,283.263l-20.695,7.02
		c-0.319,0.108-0.245,0.578,0.091,0.584l32.652,0.566c0.303,0.005,0.422-0.391,0.166-0.553l-11.957-7.585
		C928.088,283.245,927.993,283.233,927.907,283.263z"/>
	<path stroke="#000000" stroke-width="0.2" stroke-miterlimit="10" d="M985.175,483.999c13.039,0,26.077,0,39.116,0
		c-15.13-21.341-29.981-42.881-44.309-64.769c-14.246-21.763-28.193-43.94-39.884-67.2c-5.085-10.117-9.858-20.497-13.103-31.369
		c-2.921-9.786-5.03-22.253,2.193-30.746l-11.171-0.219c-8.074,8.088-8.217,20.551-6.652,31.137
		c1.867,12.63,6.142,25.013,10.709,36.89c9.386,24.411,21.001,47.983,33.073,71.16C964.812,447.441,974.888,465.781,985.175,483.999
		z"/>
</g>
<path fill="#FFFFFF" stroke="#FFFFFF" stroke-width="0.2" stroke-miterlimit="10" d="M927.907,279.263l-20.695,7.02
	c-0.319,0.108-0.245,0.578,0.091,0.584l32.652,0.566c0.303,0.005,0.422-0.391,0.166-0.553l-11.957-7.585
	C928.088,279.245,927.993,279.233,927.907,279.263z"/>
<path fill="#FFFFFF" stroke="#FFFFFF" stroke-width="0.2" stroke-miterlimit="10" d="M985.175,479.999c13.039,0,26.077,0,39.116,0
	c-15.13-21.341-29.981-42.881-44.309-64.769c-14.246-21.763-28.193-43.94-39.884-67.2c-5.085-10.117-9.858-20.497-13.103-31.369
	c-2.921-9.786-5.03-22.253,2.193-30.746l-11.171-0.219c-8.074,8.088-8.217,20.551-6.652,31.137
	c1.867,12.63,6.142,25.013,10.709,36.89c9.386,24.411,21.001,47.983,33.073,71.16C964.812,443.441,974.888,461.781,985.175,479.999z
	"/>
</svg>
