<?xml version="1.0" encoding="utf-8"?>
<!-- Generator: Adobe Illustrator 17.1.0, SVG Export Plug-In . SVG Version: 6.00 Build 0)  -->
<!DOCTYPE svg PUBLIC "-//W3C//DTD SVG 1.1//EN" "http://www.w3.org/Graphics/SVG/1.1/DTD/svg11.dtd">
<svg version="1.1" id="r4s_center_e" xmlns="http://www.w3.org/2000/svg" xmlns:xlink="http://www.w3.org/1999/xlink" x="0px"
	 y="0px" width="1600px" height="480px" viewBox="0 0 1600 480" enable-background="new 0 0 1600 480" xml:space="preserve">
<linearGradient id="patch_1_" gradientUnits="userSpaceOnUse" x1="1189.0728" y1="480.499" x2="1189.0728" y2="245.7656">
	<stop  offset="0" style="stop-color:#181410"/>
	<stop  offset="1" style="stop-color:#383630"/>
</linearGradient>
<path id="patch" fill="url(#patch_1_)" d="M1483.387,479.534c-98.261-38.961-196.511-77.923-294.76-116.885
	c-98.244-38.96-196.497-77.922-294.758-116.884h-1.357l-0.185,0.464c98.116,39.45,196.244,78.9,294.371,118.352
	c96.081,38.627,192.161,77.255,288.23,115.882l10.892,0.036L1483.387,479.534z"/>
<linearGradient id="road_1_" gradientUnits="userSpaceOnUse" x1="1246.2557" y1="479.9991" x2="1246.2559" y2="245.7656">
	<stop  offset="0" style="stop-color:#181410"/>
	<stop  offset="1" style="stop-color:#383630"/>
</linearGradient>
<path id="road" fill="url(#road_1_)" d="M918.945,245.766h-26.432c195.549,78.077,391.097,156.156,586.646,234.233
	c40.28,0,80.561,0,120.841,0c0-7.578,0-15.156,0-22.733C1372.981,386.766,1145.963,316.265,918.945,245.766z"/>
<linearGradient id="edge_1_" gradientUnits="userSpaceOnUse" x1="1273.0293" y1="457.2656" x2="1273.0293" y2="245.7656">
	<stop  offset="0" style="stop-color:#181410"/>
	<stop  offset="1" style="stop-color:#383630"/>
</linearGradient>
<path id="edge" fill="url(#edge_1_)" d="M1627.114,457.266c-234.428-70.5-468.856-141-703.284-211.5h-4.885
	c227.018,70.5,454.036,141,681.054,211.5H1627.114z"/>
<g id="line">
	<path fill="#FFFFFF" stroke="#FFFFFF" stroke-width="0.2" stroke-miterlimit="10" d="M897.096,247.583h-0.063
		c1.41,0.567,2.82,1.134,4.23,1.701h0.121C899.956,248.717,898.526,248.15,897.096,247.583z"/>
	<path fill="#FFFFFF" stroke="#FFFFFF" stroke-width="0.2" stroke-miterlimit="10" d="M1025.931,298.672h-1.827
		c10.039,4.036,20.078,8.073,30.118,12.109h2.245C1046.289,306.744,1036.11,302.708,1025.931,298.672z"/>
	<path fill="#FFFFFF" stroke="#FFFFFF" stroke-width="0.2" stroke-miterlimit="10" d="M967.175,275.372h-1.022
		c5.217,2.097,10.434,4.195,15.651,6.293h1.24C977.754,279.567,972.465,277.47,967.175,275.372z"/>
	<path fill="#FFFFFF" stroke="#FFFFFF" stroke-width="0.2" stroke-miterlimit="10" d="M1152.698,350.372
		c29.125,11.709,58.247,23.418,87.372,35.128h4.825c-29.527-11.709-59.057-23.418-88.585-35.128H1152.698z"/>
	<path fill="#FFFFFF" stroke="#FFFFFF" stroke-width="0.2" stroke-miterlimit="10" d="M933.98,262.209h-0.568
		c3.158,1.27,6.317,2.54,9.475,3.81h0.699C940.384,264.749,937.182,263.479,933.98,262.209z"/>
	<path fill="#FFFFFF" stroke="#FFFFFF" stroke-width="0.2" stroke-miterlimit="10" d="M912.107,253.536h-0.268
		c2.073,0.833,4.146,1.667,6.218,2.5h0.355C916.31,255.202,914.209,254.369,912.107,253.536z"/>
	<path fill="#FFFFFF" stroke="#FFFFFF" stroke-width="0.2" stroke-miterlimit="10" d="M918.945,245.766
		c225.788,70.5,457.809,142.985,683.597,213.484l1.303-1.984C1375.596,386.766,1147.193,316.265,918.945,245.766"/>
</g>
</svg>
