<?xml version="1.0" encoding="utf-8"?>
<!-- Generator: Adobe Illustrator 17.1.0, SVG Export Plug-In . SVG Version: 6.00 Build 0)  -->
<!DOCTYPE svg PUBLIC "-//W3C//DTD SVG 1.1//EN" "http://www.w3.org/Graphics/SVG/1.1/DTD/svg11.dtd">
<svg version="1.1" id="highlight_l3s" xmlns="http://www.w3.org/2000/svg" xmlns:xlink="http://www.w3.org/1999/xlink" x="0px"
	 y="0px" width="1600px" height="480px" viewBox="0 0 1600 480" enable-background="new 0 0 1600 480" xml:space="preserve">
<g id="patch" opacity="0.4">
	<path stroke="#000000" stroke-width="0.2" stroke-miterlimit="10" d="M563.892,310.847l38.058-0.046
		c0.131,0,0.247-0.086,0.286-0.211l3.274-10.578c0.069-0.224-0.134-0.438-0.361-0.379l-41.332,10.625
		C563.475,310.344,563.539,310.847,563.892,310.847z"/>
	<path stroke="#000000" stroke-width="0.2" stroke-miterlimit="10" d="M199.715,483.999c11.933,0,23.866,0,35.798,0
		c23.711-11.638,356.427-174.931,356.666-175.048l-12.816,0.015c-24.129,11.123-336.88,155.315-360.881,166.381
		C212.226,478.231,205.97,481.115,199.715,483.999z"/>
</g>
<path fill="#FFFFFF" stroke="#FFFFFF" stroke-width="0.2" stroke-miterlimit="10" d="M563.892,306.847l38.058-0.046
	c0.131,0,0.247-0.086,0.286-0.211l3.274-10.578c0.069-0.224-0.134-0.438-0.361-0.379l-41.332,10.625
	C563.475,306.344,563.539,306.847,563.892,306.847z"/>
<path fill="#FFFFFF" stroke="#FFFFFF" stroke-width="0.2" stroke-miterlimit="10" d="M199.715,479.999c11.933,0,23.866,0,35.798,0
	c23.711-11.638,356.427-174.931,356.666-175.048l-12.816,0.015c-24.129,11.123-336.88,155.315-360.881,166.381
	C212.226,474.231,205.97,477.115,199.715,479.999z"/>
</svg>
