<?xml version="1.0" encoding="utf-8"?>
<!-- Generator: Adobe Illustrator 17.1.0, SVG Export Plug-In . SVG Version: 6.00 Build 0)  -->
<!DOCTYPE svg PUBLIC "-//W3C//DTD SVG 1.1//EN" "http://www.w3.org/Graphics/SVG/1.1/DTD/svg11.dtd">
<svg version="1.1" id="highlight_r3c_center" xmlns="http://www.w3.org/2000/svg" xmlns:xlink="http://www.w3.org/1999/xlink"
	 x="0px" y="0px" width="1600px" height="480px" viewBox="0 0 1600 480" enable-background="new 0 0 1600 480" xml:space="preserve"
	>
<g id="shadow" opacity="0.4">
	<path stroke="#000000" stroke-width="0.2" stroke-miterlimit="10" d="M1033.154,283.316l-11.873,6.958
		c-0.261,0.153-0.157,0.553,0.146,0.559l33.461,0.616c0.341,0.006,0.426-0.47,0.105-0.583l-21.588-7.573
		C1033.321,283.263,1033.23,283.272,1033.154,283.316z"/>
	<path stroke="#000000" stroke-width="0.2" stroke-miterlimit="10" d="M1031.423,289.695c2.207,5.102,6.986,9.027,11.179,12.479
		c4.894,4.029,10.083,7.718,15.33,11.268c10.725,7.257,21.802,14.01,32.961,20.575c22.736,13.375,45.857,26.083,69.076,38.596
		c23.267,12.539,46.68,24.81,70.146,36.972c23.409,12.133,46.88,24.144,70.396,36.068c23.537,11.935,47.108,23.804,70.713,35.604
		c1.829,0.914,3.658,1.828,5.487,2.743c13.04,0,26.079,0,39.119,0c-23.973-11.176-47.929-22.39-71.846-33.684
		c-23.918-11.294-47.815-22.631-71.655-34.088c-23.854-11.463-47.663-23.02-71.395-34.735
		c-23.672-11.686-47.248-23.571-70.635-35.818c-11.592-6.07-23.117-12.266-34.533-18.661c-11.243-6.299-22.398-12.801-33.128-19.947
		c-3.829-2.55-7.574-5.221-11.151-8.116c-3.253-2.633-6.444-5.372-8.568-9.033L1031.423,289.695z"/>
</g>
<path fill="#FFFFFF" stroke="#FFFFFF" stroke-width="0.2" stroke-miterlimit="10" d="M1033.154,279.316l-11.873,6.958
	c-0.261,0.153-0.157,0.553,0.146,0.559l33.461,0.616c0.341,0.006,0.426-0.47,0.105-0.583l-21.588-7.573
	C1033.321,279.263,1033.23,279.272,1033.154,279.316z"/>
<path fill="#FFFFFF" stroke="#FFFFFF" stroke-width="0.2" stroke-miterlimit="10" d="M1031.423,285.695
	c2.207,5.102,6.986,9.027,11.179,12.479c4.894,4.029,10.083,7.718,15.33,11.268c10.725,7.257,21.802,14.01,32.961,20.575
	c22.736,13.375,45.857,26.083,69.076,38.596c23.267,12.539,46.68,24.81,70.146,36.972c23.409,12.133,46.88,24.144,70.396,36.068
	c23.537,11.935,47.108,23.804,70.713,35.604c1.829,0.914,3.658,1.828,5.487,2.743c13.04,0,26.079,0,39.119,0
	c-23.973-11.176-47.929-22.39-71.846-33.684c-23.918-11.294-47.815-22.631-71.655-34.088c-23.854-11.463-47.663-23.02-71.395-34.735
	c-23.672-11.686-47.248-23.571-70.635-35.818c-11.592-6.07-23.117-12.266-34.533-18.661c-11.243-6.299-22.398-12.801-33.128-19.947
	c-3.829-2.55-7.574-5.221-11.151-8.116c-3.253-2.633-6.444-5.372-8.568-9.033L1031.423,285.695z"/>
</svg>
