<?xml version="1.0" encoding="utf-8"?>
<!-- Generator: Adobe Illustrator 17.1.0, SVG Export Plug-In . SVG Version: 6.00 Build 0)  -->
<!DOCTYPE svg PUBLIC "-//W3C//DTD SVG 1.1//EN" "http://www.w3.org/Graphics/SVG/1.1/DTD/svg11.dtd">
<svg version="1.1" id="l1c_e" xmlns="http://www.w3.org/2000/svg" xmlns:xlink="http://www.w3.org/1999/xlink" x="0px" y="0px"
	 width="1600px" height="480px" viewBox="0 0 1600 480" enable-background="new 0 0 1600 480" xml:space="preserve">
<linearGradient id="patch_1_" gradientUnits="userSpaceOnUse" x1="687.68" y1="480.499" x2="687.68" y2="245.7656">
	<stop  offset="0" style="stop-color:#181410"/>
	<stop  offset="1" style="stop-color:#383630"/>
</linearGradient>
<path id="patch" fill="url(#patch_1_)" d="M739.034,309.603c-1.752,13.12-6.219,25.903-10.357,36.679
	c-4.132,10.757-8.844,21.459-13.4,31.809l-44.993,102.409h-9.206l48.768-102.831c4.912-10.337,9.991-21.026,14.489-31.76
	c4.492-10.72,9.38-23.434,11.573-36.455c2.297-13.64,0.235-24.596-6.128-32.563c-7.434-9.31-19.514-14.315-27.953-17.271
	c-10.291-3.604-21.685-6.395-36.945-9.051c-9.135-1.589-18.669-2.997-29.147-4.306l0.062-0.496h3.964
	c8.853,1.15,17.183,2.404,25.354,3.816c15.408,2.665,26.949,5.47,37.42,9.092c8.658,2.996,21.084,8.077,29.008,17.583
	C738.373,284.453,740.894,295.672,739.034,309.603z"/>
<linearGradient id="road_1_" gradientUnits="userSpaceOnUse" x1="613.1739" y1="479.999" x2="613.1739" y2="245.7656">
	<stop  offset="0" style="stop-color:#181410"/>
	<stop  offset="1" style="stop-color:#383630"/>
</linearGradient>
<path id="road" fill="url(#road_1_)" d="M734.647,283.104c-2.3-4.551-5.596-8.531-9.492-11.805
	c-9.012-7.569-20.728-11.704-31.896-14.874c-12.589-3.573-25.486-6.018-38.411-8.004c-6.404-0.984-12.824-1.856-19.254-2.656
	h-28.153c10.277,1.321,20.533,2.877,30.678,4.972c11.416,2.358,23.232,5.073,33.58,10.636c4.44,2.387,8.572,5.539,11.31,9.836
	c2.979,4.674,2.856,10.284,1.323,15.44c-1.6,5.383-4.471,10.375-7.584,15.013c-3.397,5.061-7.282,9.775-11.291,14.359
	c-8.469,9.685-17.566,18.843-26.86,27.733c-18.981,18.156-38.717,35.52-58.229,53.1c-19.609,17.668-39.218,35.336-58.828,53.004
	c-11.151,10.047-22.301,20.094-33.451,30.14c26.505,0,171.562,0,177.822,0c10.979-24.037,21.959-48.074,32.939-72.112
	c5.5-12.041,11.017-24.075,16.53-36.11c5.412-11.813,10.786-23.733,15.047-36.018c4.022-11.598,7.816-23.74,7.829-36.136
	C738.263,293.891,737.246,288.247,734.647,283.104z"/>
<linearGradient id="edge_1_" gradientUnits="userSpaceOnUse" x1="572.5875" y1="479.999" x2="572.5875" y2="245.7656">
	<stop  offset="0" style="stop-color:#181410"/>
	<stop  offset="1" style="stop-color:#383630"/>
</linearGradient>
<path id="edge" fill="url(#edge_1_)" d="M459.781,479.999c12.207-10.046,24.413-20.093,36.619-30.14
	c21.466-17.668,42.932-35.336,64.399-53.004c21.359-17.58,42.921-34.944,63.81-53.1c10.229-8.89,20.288-18.048,29.775-27.733
	c4.491-4.585,8.871-9.298,12.8-14.359c3.601-4.638,6.997-9.63,9.162-15.013c2.074-5.156,2.787-10.766,0.299-15.44
	c-2.287-4.297-6.087-7.45-10.277-9.836c-9.764-5.563-21.294-8.278-32.463-10.636c-9.925-2.095-20.017-3.651-30.155-4.972h3.691
	c10.277,1.321,20.533,2.877,30.678,4.972c11.416,2.358,23.232,5.073,33.58,10.636c4.44,2.387,8.572,5.539,11.31,9.836
	c2.979,4.674,2.856,10.284,1.323,15.44c-1.6,5.383-4.471,10.375-7.584,15.013c-3.397,5.061-7.282,9.775-11.291,14.359
	c-8.469,9.685-17.566,18.843-26.86,27.733c-18.981,18.156-38.717,35.52-58.229,53.1c-19.609,17.668-39.218,35.336-58.828,53.004
	c-11.151,10.047-22.301,20.094-33.451,30.14H459.781z"/>
<g id="line">
	<path fill="#FFFFFF" stroke="#FFFFFF" stroke-width="0.2" stroke-miterlimit="10" d="M726.614,350.372h-3.563
		c-3.11,7.21-6.458,14.328-9.824,21.405c-2.175,4.574-4.346,9.149-6.521,13.722h4.79c2.015-4.574,4.027-9.149,6.042-13.722
		C720.656,364.7,723.755,357.582,726.614,350.372z"/>
	<path fill="#FFFFFF" stroke="#FFFFFF" stroke-width="0.2" stroke-miterlimit="10" d="M654.85,248.422
		c-1.927-0.295-3.849-0.562-5.773-0.838h-0.002c1.925,0.276,3.853,0.549,5.771,0.838c1.946,0.293,3.664,0.573,5.391,0.862h0.034
		C658.465,248.987,656.658,248.699,654.85,248.422z"/>
	<path fill="#FFFFFF" stroke="#FFFFFF" stroke-width="0.2" stroke-miterlimit="10" d="M729.821,275.372h-0.945
		c1.687,1.933,3.172,4.038,4.41,6.293h1.165C733.134,279.41,731.576,277.306,729.821,275.372z"/>
	<path fill="#FFFFFF" stroke="#FFFFFF" stroke-width="0.2" stroke-miterlimit="10" d="M710.25,262.209h-0.486
		c2.579,1.132,5.091,2.394,7.498,3.81h0.618C715.424,264.603,712.868,263.341,710.25,262.209z"/>
	<path fill="#FFFFFF" stroke="#FFFFFF" stroke-width="0.2" stroke-miterlimit="10" d="M682.069,253.536h-0.183
		c3.286,0.767,6.556,1.597,9.805,2.5h0.27C688.681,255.133,685.382,254.303,682.069,253.536z"/>
	<path fill="#FFFFFF" stroke="#FFFFFF" stroke-width="0.2" stroke-miterlimit="10" d="M739.153,299.624
		c-0.005-0.318-0.026-0.634-0.037-0.952h-1.758c0.001,0.317,0.01,0.634,0.004,0.952c-0.069,3.745-0.488,7.466-1.148,11.157h2.181
		C738.926,307.09,739.215,303.369,739.153,299.624z"/>
	<path fill="#FFFFFF" stroke="#FFFFFF" stroke-width="0.2" stroke-miterlimit="10" d="M607.442,245.766
		c10.254,1.321,20.527,2.877,30.635,4.972c11.375,2.358,23.143,5.073,33.395,10.636c4.398,2.387,8.475,5.539,11.139,9.836
		c2.897,4.674,2.676,10.284,1.054,15.44c-1.694,5.383-4.652,10.375-7.846,15.013c-3.486,5.061-7.453,9.775-11.542,14.359
		c-8.638,9.685-17.895,18.843-27.344,27.733c-19.298,18.156-39.337,35.52-59.156,53.1c-19.918,17.668-39.835,35.336-59.753,53.004
		c-11.326,10.047-22.651,20.094-33.978,30.14h8.089c10.975-10.046,21.95-20.093,32.925-30.14
		c19.301-17.668,38.602-35.336,57.903-53.004c19.204-17.58,38.638-34.944,57.302-53.1c9.139-8.89,18.076-18.048,26.376-27.733
		c3.929-4.585,7.731-9.298,11.04-14.359c3.032-4.638,5.816-9.63,7.322-15.013c1.442-5.156,1.467-10.766-1.593-15.44
		c-2.813-4.297-7-7.45-11.482-9.836c-10.446-5.563-22.308-8.278-33.766-10.636C627.981,248.643,617.742,247.087,607.442,245.766"/>
</g>
</svg>
