<?xml version="1.0" encoding="utf-8"?>
<!-- Generator: Adobe Illustrator 17.1.0, SVG Export Plug-In . SVG Version: 6.00 Build 0)  -->
<!DOCTYPE svg PUBLIC "-//W3C//DTD SVG 1.1//EN" "http://www.w3.org/Graphics/SVG/1.1/DTD/svg11.dtd">
<svg version="1.1" id="highlight_r3c" xmlns="http://www.w3.org/2000/svg" xmlns:xlink="http://www.w3.org/1999/xlink" x="0px"
	 y="0px" width="1600px" height="480px" viewBox="0 0 1600 480" enable-background="new 0 0 1600 480" xml:space="preserve">
<g id="shadow" opacity="0.4">
	<path stroke="#000000" stroke-width="0.2" stroke-miterlimit="10" d="M1022.216,299.468l-0.369,10.334
		c-0.006,0.168,0.128,0.307,0.295,0.309l38.478,0.307c0.348,0.003,0.418-0.491,0.083-0.585l-38.109-10.641
		C1022.408,299.14,1022.223,299.275,1022.216,299.468z"/>
	<path stroke="#000000" stroke-width="0.2" stroke-miterlimit="10" d="M1033.108,308.373c22.869,12.519,46.878,22.977,70.796,33.299
		c24.234,10.458,48.609,20.587,73.015,30.633c24.45,10.064,48.934,20.046,73.427,30.005c24.454,9.943,48.914,19.869,73.374,29.797
		c24.451,9.925,48.902,19.851,73.348,29.788c18.113,7.362,36.223,14.731,54.332,22.104c11.934,0,23.869,0,35.803,0
		c-24.679-9.537-49.36-19.066-74.045-28.587c-24.626-9.499-49.256-18.988-73.886-28.478c-24.733-9.53-49.466-19.057-74.19-28.611
		c-24.746-9.563-49.485-19.146-74.192-28.81c-24.633-9.635-49.234-19.358-73.705-29.398c-24.003-9.848-48.052-19.846-71.172-31.652
		L1033.108,308.373z"/>
</g>
<path fill="#FFFFFF" stroke="#FFFFFF" stroke-width="0.2" stroke-miterlimit="10" d="M1022.216,295.468l-0.369,10.334
	c-0.006,0.168,0.128,0.307,0.295,0.309l38.478,0.307c0.348,0.003,0.418-0.491,0.083-0.585l-38.109-10.641
	C1022.408,295.14,1022.223,295.275,1022.216,295.468z"/>
<path fill="#FFFFFF" stroke="#FFFFFF" stroke-width="0.2" stroke-miterlimit="10" d="M1033.108,304.373
	c22.869,12.519,46.878,22.977,70.796,33.299c24.234,10.458,48.609,20.587,73.015,30.633c24.45,10.064,48.934,20.046,73.427,30.005
	c24.454,9.943,48.914,19.869,73.374,29.797c24.451,9.925,48.902,19.851,73.348,29.788c18.113,7.362,36.223,14.731,54.332,22.104
	c11.934,0,23.869,0,35.803,0c-24.679-9.537-49.36-19.066-74.045-28.587c-24.626-9.499-49.256-18.988-73.886-28.478
	c-24.733-9.53-49.466-19.057-74.19-28.611c-24.746-9.563-49.485-19.146-74.192-28.81c-24.633-9.635-49.234-19.358-73.705-29.398
	c-24.003-9.848-48.052-19.846-71.172-31.652L1033.108,304.373z"/>
</svg>
