<?xml version="1.0" encoding="utf-8"?>
<!-- Generator: Adobe Illustrator 17.1.0, SVG Export Plug-In . SVG Version: 6.00 Build 0)  -->
<!DOCTYPE svg PUBLIC "-//W3C//DTD SVG 1.1//EN" "http://www.w3.org/Graphics/SVG/1.1/DTD/svg11.dtd">
<svg version="1.1" id="r0c" xmlns="http://www.w3.org/2000/svg" xmlns:xlink="http://www.w3.org/1999/xlink" x="0px" y="0px"
	 width="1600px" height="480px" viewBox="0 0 1600 480" enable-background="new 0 0 1600 480" xml:space="preserve">
<linearGradient id="patch_1_" gradientUnits="userSpaceOnUse" x1="917.3784" y1="480.499" x2="917.3784" y2="245.7656">
	<stop  offset="0" style="stop-color:#181410"/>
	<stop  offset="1" style="stop-color:#383630"/>
</linearGradient>
<path id="patch" fill="url(#patch_1_)" d="M809.041,300.691l-0.98,0.193l14.347,67.886L809.041,300.691z M1026.696,480.499h-9.418
	l-50.545-60.754c-5.185-6.231-10.391-12.449-15.598-18.666c-11.428-13.646-23.244-27.758-34.641-41.818
	c-7.147-8.817-15.51-19.345-23.346-30.566c-6.456-9.245-13.565-20.306-17.343-32.247c-2.179-6.888-2.436-12.978-0.765-18.1
	c1.558-4.771,5.021-9.242,10.017-12.93c3.825-2.823,8.482-5.215,14.656-7.528c5.429-2.034,11.291-3.816,17.924-5.447
	c12.43-3.058,25.866-5.16,36.715-6.677h3.413l0.005,0.066c0.001,0.014,0.001,0.027,0.002,0.04l0.03,0.423l-0.578,0.082
	c-0.027,0.005-0.052,0.008-0.075,0.011c-11.268,1.549-25.896,3.747-39.112,7.025c-6.539,1.622-12.303,3.393-17.619,5.412
	c-6.004,2.279-10.501,4.629-14.15,7.394c-3.276,2.482-7.534,6.652-9.217,12.424c-1.435,4.918-0.971,10.802,1.378,17.488
	c4.148,11.813,11.594,22.796,18.329,31.981c8.207,11.193,16.924,21.705,24.368,30.511c11.882,14.055,24.188,28.162,36.089,41.805
	c5.425,6.219,10.849,12.437,16.253,18.671L1026.696,480.499z M839.271,480.499h9.126L828.084,385.5h-5.809L839.271,480.499z"/>
<linearGradient id="road_1_" gradientUnits="userSpaceOnUse" x1="915.0542" y1="479.999" x2="915.0543" y2="245.7656">
	<stop  offset="0" style="stop-color:#181410"/>
	<stop  offset="1" style="stop-color:#383630"/>
</linearGradient>
<path id="road" fill="url(#road_1_)" d="M1021.557,479.999c-6.283,0-151.256,0-177.822,0c-3.776-19.234-7.552-38.468-11.328-57.702
	c-2.544-12.956-5.087-25.912-7.631-38.868c-2.524-12.856-5.169-25.688-6.976-38.67c-3.211-23.068-4.581-50.515,13.566-68.099
	c8.418-8.156,19.686-13.289,30.645-17.045c12.116-4.153,24.741-6.9,37.328-9.183c10.171-1.845,20.401-3.362,30.662-4.667h28.067
	c-0.656,0.088-1.313,0.165-1.969,0.255c-12.827,1.759-25.683,3.801-38.261,6.908c-6.014,1.485-11.974,3.242-17.772,5.429
	c-5.062,1.909-10.054,4.21-14.405,7.463c-4.297,3.213-8.01,7.483-9.617,12.683c-1.796,5.811-0.809,12.147,1.076,17.793
	c3.87,11.596,10.766,22.234,17.837,32.111c7.523,10.51,15.617,20.586,23.857,30.538c16.855,20.357,34.181,40.337,51.29,60.48
	C987.256,439.617,1004.407,459.808,1021.557,479.999z M926.31,245.766c-10.397,1.305-20.787,2.822-31.152,4.667
	c-12.827,2.283-25.74,5.03-38.293,9.183c-11.354,3.756-23.162,8.889-32.437,17.045c-4.093,3.599-7.4,7.616-10.083,11.92
	c-2.41,3.865-4.309,7.962-5.794,12.208c4.057,20.665,8.747,44.552,13.366,68.079c-1.543-8.006-2.992-16.028-4.117-24.108
	c-1.964-14.106-3.23-29.846,0.225-43.971c2.195-8.974,6.291-17.297,13.341-24.128c8.418-8.156,19.686-13.289,30.645-17.045
	c12.116-4.153,24.741-6.9,37.328-9.183c10.171-1.845,20.401-3.362,30.662-4.667H926.31z"/>
<g id="line">
	<path fill="#FFFFFF" stroke="#FFFFFF" stroke-width="0.2" stroke-miterlimit="10" d="M878.843,298.672h-1.758
		c1.477,4.157,3.326,8.191,5.416,12.109h2.181C882.455,306.862,880.464,302.829,878.843,298.672z"/>
	<path fill="#FFFFFF" stroke="#FFFFFF" stroke-width="0.2" stroke-miterlimit="10" d="M916.884,358.946
		c7.222,8.91,14.542,17.743,21.889,26.554h4.79c-7.654-8.811-15.283-17.644-22.816-26.554c-2.404-2.844-4.79-5.703-7.16-8.574
		h-3.563C912.293,353.244,914.579,356.103,916.884,358.946z"/>
	<path fill="#FFFFFF" stroke="#FFFFFF" stroke-width="0.2" stroke-miterlimit="10" d="M876.572,278.503
		c0.317-1.088,0.746-2.125,1.235-3.131h-0.945c-0.524,1.005-0.989,2.043-1.344,3.131c-0.339,1.039-0.586,2.096-0.759,3.162h1.165
		C876.059,280.599,876.269,279.542,876.572,278.503z"/>
	<path fill="#FFFFFF" stroke="#FFFFFF" stroke-width="0.2" stroke-miterlimit="10" d="M915.588,253.536h-0.183
		c-2.927,0.757-5.836,1.587-8.722,2.5h0.27C909.807,255.123,912.688,254.293,915.588,253.536z"/>
	<path fill="#FFFFFF" stroke="#FFFFFF" stroke-width="0.2" stroke-miterlimit="10" d="M885.967,265.82
		c1.793-1.359,3.706-2.544,5.687-3.611h-0.485c-2.018,1.067-3.972,2.252-5.813,3.611c-0.086,0.064-0.168,0.134-0.254,0.199h0.619
		C885.804,265.954,885.884,265.884,885.967,265.82z"/>
	<path fill="#FFFFFF" stroke="#FFFFFF" stroke-width="0.2" stroke-miterlimit="10" d="M945.499,247.583h-0.041
		c-3.401,0.526-6.818,1.091-10.227,1.701h0.07C938.699,248.674,942.107,248.109,945.499,247.583z"/>
	<path fill="#FFFFFF" stroke="#FFFFFF" stroke-width="0.2" stroke-miterlimit="10" d="M827.134,383.429
		c-2.748-12.856-5.617-25.688-7.651-38.67c-3.614-23.068-5.463-50.515,12.378-68.099c8.275-8.156,19.454-13.289,30.348-17.045
		c12.044-4.153,24.621-6.9,37.168-9.183c10.139-1.845,20.387-3.362,30.625-4.667c-10.283,1.305-20.495,2.822-30.699,4.667
		c-12.627,2.283-25.299,5.03-37.488,9.183c-11.025,3.756-22.383,8.889-30.943,17.045c-18.454,17.583-17.564,45.031-14.755,68.099
		c1.581,12.982,4.002,25.814,6.301,38.67c0.123,0.69,0.247,1.381,0.371,2.071h4.79C827.429,384.81,827.282,384.119,827.134,383.429z
		"/>
</g>
</svg>
