<?xml version="1.0" encoding="utf-8"?>
<!-- Generator: Adobe Illustrator 17.1.0, SVG Export Plug-In . SVG Version: 6.00 Build 0)  -->
<!DOCTYPE svg PUBLIC "-//W3C//DTD SVG 1.1//EN" "http://www.w3.org/Graphics/SVG/1.1/DTD/svg11.dtd">
<svg version="1.1" id="r2c_center" xmlns="http://www.w3.org/2000/svg" xmlns:xlink="http://www.w3.org/1999/xlink" x="0px" y="0px"
	 width="1600px" height="480px" viewBox="0 0 1600 480" enable-background="new 0 0 1600 480" xml:space="preserve">
<g id="patch">
	<linearGradient id="SVGID_1_" gradientUnits="userSpaceOnUse" x1="1028.5502" y1="480.499" x2="1028.5502" y2="245.7656">
		<stop  offset="0" style="stop-color:#181410"/>
		<stop  offset="1" style="stop-color:#383630"/>
	</linearGradient>
	<path fill="url(#SVGID_1_)" d="M1097.798,471.196c-22.392-21.851-40.392-39.789-56.648-56.454
		c-17.528-17.966-36.135-37.46-53.446-58.266c-7.355-8.837-15.841-19.418-23.007-30.885c-6.378-10.205-12.289-21.2-12.348-32.462
		c-0.028-5.504,1.481-10.571,4.366-14.651c2.743-3.882,6.86-7.44,12.237-10.578c5.459-3.186,11.318-5.396,15.813-6.965
		c5.544-1.936,11.48-3.64,18.147-5.209c16.533-3.89,34.405-6.808,57.954-9.463c0.004,0,0.011-0.001,0.015-0.001l-0.056-0.497h-4.388
		c-21.47,2.517-38.269,5.318-53.994,8.987c-6.755,1.577-12.784,3.29-18.431,5.238c-4.593,1.584-10.587,3.816-16.229,7.044
		c-5.609,3.207-9.957,6.859-12.922,10.856c-3.151,4.25-4.907,9.516-5.077,15.227c-0.342,11.513,5.253,22.66,11.35,32.992
		c6.795,11.516,14.937,22.132,22.006,30.998c16.603,20.825,34.546,40.34,51.464,58.326c15.677,16.666,33.057,34.61,54.695,56.471
		l8.506,8.594h9.526L1097.798,471.196z"/>
	<linearGradient id="SVGID_2_" gradientUnits="userSpaceOnUse" x1="1153.9872" y1="480.499" x2="1153.9872" y2="245.7656">
		<stop  offset="0" style="stop-color:#181410"/>
		<stop  offset="1" style="stop-color:#383630"/>
	</linearGradient>
	<path fill="url(#SVGID_2_)" d="M1300.504,479.565c-24.822-14.26-47.193-27.126-69.599-40.187
		c-25.03-14.591-47.569-27.898-68.904-40.686c-21.616-12.954-44.768-26.994-67.61-41.887l-0.088-0.057
		c-21.515-14.027-43.762-28.531-63.4-45.626c-4.238-3.689-8.714-7.726-12.732-12.245c-4.745-5.336-7.706-9.971-9.319-14.587
		c-1.836-5.254-0.903-10.613,2.558-14.703c3.698-4.373,9.422-7.171,13.404-8.895c11.187-4.842,23.65-7.391,35.459-9.586
		c9.43-1.752,19.868-3.292,32.853-4.845c0.004-0.001,0.009-0.001,0.013-0.002l-0.06-0.496v0h-4.126
		c-11.063,1.374-20.354,2.774-28.943,4.36c-11.94,2.205-24.556,4.767-36.007,9.649c-4.135,1.763-10.093,4.63-14.082,9.16
		c-3.844,4.363-5.039,10.075-3.279,15.672c1.493,4.747,4.353,9.49,8.999,14.929c3.903,4.568,8.265,8.629,12.396,12.337
		c19.097,17.144,40.869,31.669,62.003,45.769c22.349,14.908,45.016,28.952,66.181,41.907c20.892,12.788,42.97,26.099,67.494,40.691
		c21.991,13.085,43.898,25.943,68.202,40.19l0.117,0.068h10.098L1300.504,479.565z"/>
</g>
<linearGradient id="road_1_" gradientUnits="userSpaceOnUse" x1="1123.6373" y1="479.999" x2="1123.6373" y2="245.7656">
	<stop  offset="0" style="stop-color:#181410"/>
	<stop  offset="1" style="stop-color:#383630"/>
</linearGradient>
<path id="road" fill="url(#road_1_)" d="M1227.31,439.81c-22.811-13.433-45.556-26.974-68.199-40.688
	c-22.497-13.625-44.936-27.416-66.895-41.897c-21.563-14.219-43.353-28.584-62.745-45.725c-4.385-3.876-8.714-7.874-12.564-12.29
	c-3.77-4.325-7.334-9.258-9.159-14.753c-1.785-5.376-0.804-10.888,2.912-15.192c3.565-4.128,8.806-6.908,13.746-9.03
	c11.318-4.862,23.676-7.384,35.734-9.618c10.917-2.023,21.916-3.537,32.938-4.852h-32.252c-19.531,2.197-39.022,4.993-58.148,9.475
	c-6.175,1.447-12.296,3.143-18.289,5.223c-5.505,1.91-10.967,4.084-16.023,7.005c-4.757,2.749-9.333,6.237-12.581,10.721
	c-3.142,4.338-4.653,9.617-4.719,14.943c-0.144,11.732,5.929,22.975,11.852,32.724c6.631,10.915,14.45,21.051,22.506,30.94
	c16.519,20.276,34.37,39.418,52.455,58.294c18.288,19.088,36.912,37.838,55.672,56.462c2.836,2.815,5.671,5.63,8.507,8.445
	c26.467,0,182.4,0,194.153,0C1273.214,466.654,1250.221,453.303,1227.31,439.81z"/>
<g id="line">
	<path fill="#FFFFFF" stroke="#FFFFFF" stroke-width="0.2" stroke-miterlimit="10" d="M952.336,298.672h-1.758
		c0.525,4.135,1.71,8.186,3.281,12.109h2.181C954.331,306.858,953.005,302.807,952.336,298.672z"/>
	<path fill="#FFFFFF" stroke="#FFFFFF" stroke-width="0.2" stroke-miterlimit="10" d="M983.531,356.797
		c7.814,9.801,15.948,19.334,24.268,28.703h4.79c-8.647-9.369-17.114-18.902-25.27-28.703c-1.77-2.127-3.526-4.269-5.265-6.425
		h-3.563C980.154,352.528,981.835,354.67,983.531,356.797z"/>
	<path fill="#FFFFFF" stroke="#FFFFFF" stroke-width="0.2" stroke-miterlimit="10" d="M1045.918,247.583h-0.049
		c-3.977,0.524-7.946,1.094-11.91,1.701h0.084C1037.995,248.678,1041.953,248.108,1045.918,247.583z"/>
	<path fill="#FFFFFF" stroke="#FFFFFF" stroke-width="0.2" stroke-miterlimit="10" d="M979.86,262.209h-0.485
		c-2.941,1.128-5.839,2.375-8.644,3.81h0.618C974.103,264.584,976.958,263.337,979.86,262.209z"/>
	<path fill="#FFFFFF" stroke="#FFFFFF" stroke-width="0.2" stroke-miterlimit="10" d="M1002.799,255.24
		c2.546-0.599,5.1-1.163,7.661-1.705h-0.187c-2.576,0.541-5.149,1.106-7.716,1.705c-1.087,0.254-2.17,0.526-3.253,0.795h0.27
		C1000.648,255.766,1001.721,255.494,1002.799,255.24z"/>
	<path fill="#FFFFFF" stroke="#FFFFFF" stroke-width="0.2" stroke-miterlimit="10" d="M956.306,278.19
		c0.699-0.989,1.474-1.922,2.291-2.817h-0.945c-0.849,0.895-1.656,1.828-2.39,2.817c-0.818,1.102-1.529,2.266-2.141,3.475h1.165
		C954.857,280.456,955.527,279.292,956.306,278.19z"/>
	<path fill="#FFFFFF" stroke="#FFFFFF" stroke-width="0.2" stroke-miterlimit="10" d="M1090.315,357.225
		c14.513,9.682,29.249,19.053,44.073,28.275h4.79c-15.146-9.222-30.209-18.592-45.06-28.275c-3.492-2.276-6.989-4.558-10.482-6.853
		h-3.563C1083.485,352.667,1086.903,354.949,1090.315,357.225z"/>
	<path fill="#FFFFFF" stroke="#FFFFFF" stroke-width="0.2" stroke-miterlimit="10" d="M1079.08,247.583h-0.028
		c-3.761,0.527-7.518,1.084-11.27,1.701h0.047C1071.57,248.668,1075.322,248.11,1079.08,247.583z"/>
	<path fill="#FFFFFF" stroke="#FFFFFF" stroke-width="0.2" stroke-miterlimit="10" d="M1045.875,253.536h-0.183
		c-3.227,0.74-6.434,1.566-9.607,2.5h0.27C1039.496,255.102,1042.675,254.276,1045.875,253.536z"/>
	<path fill="#FFFFFF" stroke="#FFFFFF" stroke-width="0.2" stroke-miterlimit="10" d="M1007.864,275.372h-0.945
		c-0.577,2.026-0.719,4.151-0.426,6.293h1.165C1007.291,279.524,1007.358,277.399,1007.864,275.372z"/>
	<path fill="#FFFFFF" stroke="#FFFFFF" stroke-width="0.2" stroke-miterlimit="10" d="M1017.795,299.211
		c-0.157-0.177-0.311-0.36-0.467-0.539h-1.758c0.15,0.179,0.297,0.362,0.448,0.539c3.542,4.146,7.515,7.917,11.559,11.57h2.181
		C1025.586,307.127,1021.482,303.356,1017.795,299.211z"/>
	<path fill="#FFFFFF" stroke="#FFFFFF" stroke-width="0.2" stroke-miterlimit="10" d="M1020.448,262.209h-0.485
		c-2.145,1.093-4.237,2.348-6.137,3.81h0.618C1016.293,264.557,1018.341,263.303,1020.448,262.209z"/>
</g>
</svg>
