<?xml version="1.0" encoding="utf-8"?>
<!-- Generator: Adobe Illustrator 17.1.0, SVG Export Plug-In . SVG Version: 6.00 Build 0)  -->
<!DOCTYPE svg PUBLIC "-//W3C//DTD SVG 1.1//EN" "http://www.w3.org/Graphics/SVG/1.1/DTD/svg11.dtd">
<svg version="1.1" id="ysc_center_new1" xmlns="http://www.w3.org/2000/svg" xmlns:xlink="http://www.w3.org/1999/xlink" x="0px"
	 y="0px" width="1600px" height="480px" viewBox="0 0 1600 480" enable-background="new 0 0 1600 480" xml:space="preserve">
<g id="patch">
	<linearGradient id="SVGID_1_" gradientUnits="userSpaceOnUse" x1="742.7344" y1="480.499" x2="742.7344" y2="245.7656">
		<stop  offset="0" style="stop-color:#181410"/>
		<stop  offset="1" style="stop-color:#383630"/>
	</linearGradient>
	<path fill="url(#SVGID_1_)" d="M786.25,245.766c-14.705,39.188-29.398,78.374-44.092,117.561
		c-14.561,38.832-29.122,77.665-43.693,116.497l-0.253,0.676h9.168l0.115-0.339c13.432-39.467,26.875-78.933,40.317-118.398
		c13.152-38.611,26.304-77.224,39.445-115.835l-0.45-0.161H786.25z"/>
	<linearGradient id="SVGID_2_" gradientUnits="userSpaceOnUse" x1="857.1415" y1="479.999" x2="857.1415" y2="245.7656">
		<stop  offset="0" style="stop-color:#181410"/>
		<stop  offset="1" style="stop-color:#383630"/>
	</linearGradient>
	<path fill="url(#SVGID_2_)" d="M813.216,245.766c4.468,13.129,61.536,180.679,79.762,234.233h8.089
		C880.971,426.445,818.143,258.895,813.216,245.766"/>
</g>
<g id="road_1_">
	<linearGradient id="SVGID_3_" gradientUnits="userSpaceOnUse" x1="800.0001" y1="479.999" x2="800.0001" y2="245.7656">
		<stop  offset="0" style="stop-color:#181410"/>
		<stop  offset="1" style="stop-color:#383630"/>
	</linearGradient>
	<path fill="url(#SVGID_3_)" d="M786.784,245.766c-27.936,78.078-55.871,156.156-83.806,234.233c64.682,0,129.363,0,194.045,0
		c-19.161-53.554-38.322-107.108-57.483-160.662c-4.077-11.395-8.154-22.79-12.231-34.185c-4.697-13.129-9.395-26.258-14.092-39.387
		H786.784z"/>
	<linearGradient id="SVGID_4_" gradientUnits="userSpaceOnUse" x1="821.3962" y1="479.999" x2="821.3962" y2="245.7656">
		<stop  offset="0" style="stop-color:#181410"/>
		<stop  offset="1" style="stop-color:#383630"/>
	</linearGradient>
	<path fill="url(#SVGID_4_)" d="M909.611,245.766c-9.2,1.057-18.372,2.328-27.492,3.904c-12.229,2.113-24.715,4.753-36.238,9.47
		c-9.363,3.833-23.544,11.549-19.244,23.856c0.252,0.721,0.415,1.436,0.671,2.156l12.29,34.35c0.86,2.472,1.484,3.607,1.058,6.278
		c-0.408,2.558-2.363,4.501-4.476,5.823c-2.07,1.296-4.396,2.113-6.699,2.888c-3.001,1.011-6.043,1.887-9.089,2.751
		c-12.038,3.417-23.92,7.186-34.987,13.125c-10.562,5.668-19.845,13.301-27.812,22.239c-8.212,9.214-14.995,19.753-20.997,30.508
		c-6.24,11.181-11.732,22.796-16.803,34.548c-6.001,13.908-16.76,42.336-16.76,42.336c26.498,0,182.264,0,194.047,0
		c-8.465-24.755-16.777-49.757-21.07-75.632c-1.955-11.781-2.957-24.301,0.894-35.822c1.679-5.024,4.403-9.708,8.37-13.268
		c4.242-3.808,9.353-6.439,14.585-8.608c5.47-2.268,11.163-4.017,16.525-6.542c3.709-1.747,9.448-4.558,9.742-9.297
		c0.153-2.473-1.326-4.925-2.824-6.772c-1.689-2.081-3.742-3.854-5.679-5.696c-4.695-4.465-9.409-8.909-14.149-13.327
		c-4.774-4.449-9.556-8.889-14.335-13.332c-2.287-2.126-4.553-4.276-6.876-6.362c-2.079-1.868-4.199-3.723-5.943-5.919
		c-1.705-2.147-3.01-4.662-3.227-7.435c-0.223-2.845,0.886-5.324,2.702-7.459c3.638-4.277,9.154-6.76,14.285-8.738
		c11.651-4.492,24.319-6.559,36.625-8.339c4.343-0.628,8.696-1.181,13.054-1.684H909.611z"/>
</g>
<linearGradient id="edge_2_" gradientUnits="userSpaceOnUse" x1="878.3327" y1="479.999" x2="878.3327" y2="245.7656">
	<stop  offset="0" style="stop-color:#181410"/>
	<stop  offset="1" style="stop-color:#383630"/>
</linearGradient>
<path id="edge_1_" fill="url(#edge_2_)" d="M943.449,245.766c-4.306,0.503-8.601,1.056-12.877,1.684
	c-12.119,1.78-24.57,3.847-35.749,8.339c-4.923,1.978-10.178,4.461-13.366,8.738c-1.591,2.134-2.439,4.614-1.918,7.459
	c0.508,2.772,2.077,5.287,4.008,7.435c1.975,2.196,4.29,4.051,6.566,5.919c2.542,2.087,5.034,4.237,7.544,6.362
	c5.246,4.443,10.495,8.883,15.737,13.332c5.204,4.418,10.385,8.862,15.55,13.327c2.131,1.842,4.37,3.614,6.277,5.696
	c1.693,1.847,3.429,4.299,3.536,6.772c0.204,4.739-5.24,7.55-8.765,9.297c-5.096,2.525-10.605,4.274-15.837,6.542
	c-5.004,2.169-9.839,4.8-13.681,8.608c-3.592,3.561-5.824,8.244-6.975,13.268c-2.64,11.522-0.322,24.042,2.871,35.822
	c7.013,25.876,17.953,50.877,29.019,75.632H897.08c-8.465-24.755-16.777-49.757-21.07-75.632
	c-1.955-11.781-2.957-24.301,0.894-35.822c1.679-5.024,4.403-9.708,8.37-13.268c4.242-3.808,9.353-6.439,14.585-8.608
	c5.47-2.268,11.163-4.017,16.525-6.542c3.709-1.747,9.448-4.558,9.742-9.297c0.153-2.473-1.326-4.925-2.824-6.772
	c-1.689-2.081-3.742-3.854-5.679-5.696c-4.695-4.465-9.409-8.909-14.149-13.327c-4.774-4.449-9.556-8.889-14.335-13.332
	c-2.287-2.126-4.553-4.276-6.876-6.362c-2.079-1.868-4.199-3.723-5.943-5.919c-1.705-2.147-3.01-4.662-3.227-7.435
	c-0.223-2.845,0.886-5.324,2.702-7.459c3.638-4.277,9.154-6.76,14.285-8.738c11.651-4.492,24.319-6.559,36.625-8.339
	c4.343-0.628,8.696-1.181,13.054-1.684H943.449z M905.921,245.766c-9.311,1.057-18.617,2.328-27.903,3.904
	c-12.451,2.113-25.215,4.753-37.233,9.47c-4.377,1.718-9.801,4.219-14.187,7.561c-5.098-11.014-8.584-18.545-9.691-20.936h-3.691
	c0.959,2.681,4.225,11.808,8.975,25.083c1.555,4.346,3.273,9.147,5.118,14.303c-0.256-0.72-0.419-1.434-0.671-2.156
	c-1.645-4.709-0.58-8.743,1.881-12.147c3.971-5.493,11.583-9.342,17.364-11.709c11.523-4.718,24.009-7.357,36.238-9.47
	c9.12-1.576,18.292-2.847,27.492-3.904H905.921z"/>
<g id="line_1_">
	<path fill="#FFFFFF" stroke="#FFFFFF" stroke-width="0.2" stroke-miterlimit="10" d="M786.165,247.583h-0.063
		c-0.213,0.567-0.425,1.134-0.638,1.701h0.121C785.779,248.717,785.972,248.15,786.165,247.583z"/>
	<path fill="#FFFFFF" stroke="#FFFFFF" stroke-width="0.2" stroke-miterlimit="10" d="M768.768,298.672h-1.827
		c-1.514,4.036-3.028,8.073-4.542,12.109h2.245C766.019,306.744,767.394,302.708,768.768,298.672z"/>
	<path fill="#FFFFFF" stroke="#FFFFFF" stroke-width="0.2" stroke-miterlimit="10" d="M776.702,275.372h-1.022
		c-0.787,2.097-1.573,4.195-2.36,6.293h1.24C775.273,279.568,775.988,277.47,776.702,275.372z"/>
	<path fill="#FFFFFF" stroke="#FFFFFF" stroke-width="0.2" stroke-miterlimit="10" d="M747.55,350.372
		c-4.391,11.709-8.784,23.418-13.175,35.128h4.825c3.988-11.709,7.973-23.418,11.962-35.128H747.55z"/>
	<path fill="#FFFFFF" stroke="#FFFFFF" stroke-width="0.2" stroke-miterlimit="10" d="M781.185,262.209h-0.568
		c-0.476,1.27-0.952,2.54-1.429,3.81h0.699C780.32,264.749,780.752,263.479,781.185,262.209z"/>
	<path fill="#FFFFFF" stroke="#FFFFFF" stroke-width="0.2" stroke-miterlimit="10" d="M784.138,253.536h-0.268
		c-0.313,0.833-0.625,1.667-0.938,2.5h0.355C783.57,255.202,783.854,254.369,784.138,253.536z"/>
	<path fill="#FFFFFF" stroke="#FFFFFF" stroke-width="0.2" stroke-miterlimit="10" d="M939.759,245.766
		c-4.368,0.503-8.686,1.056-13.039,1.684c-12.337,1.78-25.041,3.847-36.771,8.339c-5.165,1.978-10.724,4.461-14.437,8.738
		c-1.853,2.134-3.005,4.614-2.832,7.459c0.169,2.772,1.429,5.287,3.097,7.435c1.706,2.196,3.794,4.051,5.84,5.919
		c2.286,2.087,4.515,4.237,6.765,6.362c4.702,4.443,9.407,8.883,14.103,13.332c4.663,4.418,9.299,8.862,13.916,13.327
		c1.905,1.842,3.927,3.614,5.579,5.696c1.466,1.847,2.903,4.299,2.706,6.772c-0.377,4.739-6.165,7.55-9.905,9.297
		c-5.406,2.525-11.129,4.274-16.639,6.542c-5.27,2.169-10.427,4.8-14.736,8.608c-4.029,3.561-6.834,8.244-8.601,13.268
		c-4.052,11.522-3.268,24.042-1.519,35.822c3.842,25.876,11.717,50.877,19.75,75.632h8.089
		c-8.897-24.755-17.645-49.757-22.39-75.632c-2.16-11.781-3.381-24.301,0.269-35.822c1.592-5.024,4.234-9.708,8.138-13.268
		c4.175-3.808,9.241-6.439,14.435-8.608c5.43-2.268,11.093-4.017,16.41-6.542c3.678-1.747,9.369-4.558,9.58-9.297
		c0.11-2.473-1.411-4.925-2.943-6.772c-1.725-2.081-3.809-3.854-5.778-5.696c-4.773-4.465-9.565-8.909-14.382-13.327
		c-4.851-4.449-9.711-8.889-14.568-13.332c-2.324-2.126-4.628-4.276-6.987-6.362c-2.112-1.868-4.264-3.723-6.047-5.919
		c-1.743-2.147-3.091-4.662-3.356-7.435c-0.272-2.845,0.793-5.324,2.571-7.459c3.564-4.277,9.036-6.76,14.132-8.738
		c11.573-4.492,24.205-6.559,36.479-8.339C931.021,246.822,935.409,246.268,939.759,245.766"/>
	<path fill="#FFFFFF" stroke="#FFFFFF" stroke-width="0.2" stroke-miterlimit="10" d="M844.713,329.75h-2.896
		c2.292,6.729,4.643,13.632,7.023,20.622h3.606C849.825,343.382,847.236,336.479,844.713,329.75z"/>
	<path fill="#FFFFFF" stroke="#FFFFFF" stroke-width="0.2" stroke-miterlimit="10" d="M833.058,298.672h-1.825
		c1.33,3.905,2.707,7.95,4.124,12.109h2.242C836.039,306.621,834.522,302.577,833.058,298.672z"/>
	<path fill="#FFFFFF" stroke="#FFFFFF" stroke-width="0.2" stroke-miterlimit="10" d="M825.334,278.075
		c-6.436-17.163-10.938-29.166-12.117-32.309c1.211,3.559,6.293,18.481,13.414,39.391h1.359c-0.269-0.72-0.482-1.438-0.747-2.16
		c-4.515-12.307,9.532-20.023,18.828-23.856c11.441-4.718,23.88-7.357,36.073-9.47c9.093-1.576,18.287-2.847,27.468-3.904
		c-9.218,1.057-18.368,2.328-27.516,3.904c-12.266,2.113-24.798,4.753-36.403,9.47c-8.105,3.295-19.819,9.457-20.357,18.937
		L825.334,278.075z"/>
</g>
</svg>
