<?xml version="1.0" encoding="utf-8"?>
<!-- Generator: Adobe Illustrator 17.1.0, SVG Export Plug-In . SVG Version: 6.00 Build 0)  -->
<!DOCTYPE svg PUBLIC "-//W3C//DTD SVG 1.1//EN" "http://www.w3.org/Graphics/SVG/1.1/DTD/svg11.dtd">
<svg version="1.1" id="highlight_r4s_center" xmlns="http://www.w3.org/2000/svg" xmlns:xlink="http://www.w3.org/1999/xlink"
	 x="0px" y="0px" width="1600px" height="480px" viewBox="0 0 1600 480" enable-background="new 0 0 1600 480" xml:space="preserve"
	>
<g id="shadow" opacity="0.4">
	<path stroke="#000000" stroke-width="0.2" stroke-miterlimit="10" d="M1002.912,283.673l5.146,7.319
		c0.056,0.08,0.148,0.127,0.245,0.127h31.907c0.363,0,0.414-0.524,0.058-0.594l-37.054-7.319
		C1002.95,283.154,1002.756,283.452,1002.912,283.673z"/>
	<path stroke="#000000" stroke-width="0.2" stroke-miterlimit="10" d="M1027.474,289.806h-11.096
		c181.952,64.731,363.905,129.462,545.857,194.193c12.588,0,25.177,0,37.765,0v-0.448
		C1409.157,418.968,1218.315,354.388,1027.474,289.806z"/>
</g>
<path fill="#FFFFFF" stroke="#FFFFFF" stroke-width="0.2" stroke-miterlimit="10" d="M1002.912,279.673l5.146,7.319
	c0.056,0.08,0.148,0.127,0.245,0.127h31.907c0.363,0,0.414-0.524,0.058-0.594l-37.054-7.319
	C1002.95,279.154,1002.756,279.452,1002.912,279.673z"/>
<path fill="#FFFFFF" stroke="#FFFFFF" stroke-width="0.2" stroke-miterlimit="10" d="M1027.474,285.806h-11.096
	c181.952,64.731,363.905,129.462,545.857,194.193c12.588,0,25.177,0,37.765,0v-0.448
	C1409.157,414.968,1218.315,350.388,1027.474,285.806z"/>
</svg>
