<?xml version="1.0" encoding="utf-8"?>
<!-- Generator: Adobe Illustrator 17.1.0, SVG Export Plug-In . SVG Version: 6.00 Build 0)  -->
<!DOCTYPE svg PUBLIC "-//W3C//DTD SVG 1.1//EN" "http://www.w3.org/Graphics/SVG/1.1/DTD/svg11.dtd">
<svg version="1.1" id="highlight_l0s" xmlns="http://www.w3.org/2000/svg" xmlns:xlink="http://www.w3.org/1999/xlink" x="0px"
	 y="0px" width="1600px" height="480px" viewBox="0 0 1600 480" enable-background="new 0 0 1600 480" xml:space="preserve">
<g id="shadow" opacity="0.4">
	<path stroke="#000000" stroke-width="0.2" stroke-miterlimit="10" d="M778.65,299.389l-20.477,10.655
		c-0.279,0.145-0.175,0.567,0.139,0.566l38.158-0.046c0.304,0,0.415-0.401,0.154-0.557l-17.68-10.609
		C778.853,299.344,778.743,299.341,778.65,299.389z"/>
	<path stroke="#000000" stroke-width="0.2" stroke-miterlimit="10" d="M736.691,483.999c11.933,0,23.866,0,35.798,0
		c1.728-26.452,11.093-169.769,11.453-175.277l-12.756,0.015C766.085,334.657,737.971,477.494,736.691,483.999z"/>
</g>
<path fill="#FFFFFF" stroke="#FFFFFF" stroke-width="0.2" stroke-miterlimit="10" d="M778.65,295.389l-20.477,10.655
	c-0.279,0.145-0.175,0.567,0.139,0.566l38.158-0.046c0.304,0,0.415-0.401,0.154-0.557l-17.68-10.609
	C778.853,295.344,778.743,295.341,778.65,295.389z"/>
<path fill="#FFFFFF" stroke="#FFFFFF" stroke-width="0.2" stroke-miterlimit="10" d="M736.691,479.999c11.933,0,23.866,0,35.798,0
	c1.728-26.452,11.093-169.769,11.453-175.277l-12.756,0.015C766.085,330.657,737.971,473.494,736.691,479.999z"/>
</svg>
