<?xml version="1.0" encoding="utf-8"?>
<!-- Generator: Adobe Illustrator 17.1.0, SVG Export Plug-In . SVG Version: 6.00 Build 0)  -->
<!DOCTYPE svg PUBLIC "-//W3C//DTD SVG 1.1//EN" "http://www.w3.org/Graphics/SVG/1.1/DTD/svg11.dtd">
<svg version="1.1" id="highlight_l2c_center" xmlns="http://www.w3.org/2000/svg" xmlns:xlink="http://www.w3.org/1999/xlink"
	 x="0px" y="0px" width="1600px" height="480px" viewBox="0 0 1600 480" enable-background="new 0 0 1600 480" xml:space="preserve"
	>
<g id="patch" opacity="0.4">
	<path stroke="#000000" stroke-width="0.2" stroke-miterlimit="10" d="M619.152,283.286l-16.78,7.582
		c-0.297,0.134-0.197,0.579,0.129,0.573l33.049-0.591c0.323-0.006,0.41-0.448,0.113-0.576l-16.269-6.991
		C619.317,283.25,619.229,283.251,619.152,283.286z"/>
	<path stroke="#000000" stroke-width="0.2" stroke-miterlimit="10" d="M380.181,483.999c13.039,0,26.077,0,39.116,0
		c20.802-16.186,41.512-32.488,62.077-48.973c20.577-16.495,40.976-33.212,61.069-50.293c19.821-16.849,39.583-34.03,57.636-52.789
		c5.946-6.178,11.813-12.488,16.889-19.413c2.517-3.434,4.89-7.006,6.732-10.854c1.759-3.676,3.053-7.953,1.737-11.983l-11.33,0.224
		c1.047,5.873-3.013,11.63-6.311,16.092c-3.668,4.963-7.9,9.514-12.244,13.887c-8.98,9.039-18.617,17.417-28.37,25.606
		c-20.08,16.86-40.93,32.796-61.9,48.526c-21.079,15.812-42.406,31.294-63.829,46.636
		C421.115,455.229,400.68,469.659,380.181,483.999z"/>
</g>
<path fill="#FFFFFF" stroke="#FFFFFF" stroke-width="0.2" stroke-miterlimit="10" d="M619.152,279.286l-16.78,7.582
	c-0.297,0.134-0.197,0.579,0.129,0.573l33.049-0.591c0.323-0.006,0.41-0.448,0.113-0.576l-16.269-6.991
	C619.317,279.25,619.229,279.251,619.152,279.286z"/>
<path fill="#FFFFFF" stroke="#FFFFFF" stroke-width="0.2" stroke-miterlimit="10" d="M380.181,479.999c13.039,0,26.077,0,39.116,0
	c20.802-16.186,41.512-32.488,62.077-48.973c20.577-16.495,40.976-33.212,61.069-50.293c19.821-16.849,39.583-34.03,57.636-52.789
	c5.946-6.178,11.813-12.488,16.889-19.413c2.517-3.434,4.89-7.006,6.732-10.854c1.759-3.676,3.053-7.953,1.737-11.983l-11.33,0.224
	c1.047,5.873-3.013,11.63-6.311,16.092c-3.668,4.963-7.9,9.514-12.244,13.887c-8.98,9.039-18.617,17.417-28.37,25.606
	c-20.08,16.86-40.93,32.796-61.9,48.526c-21.079,15.812-42.406,31.294-63.829,46.636
	C421.115,451.229,400.68,465.659,380.181,479.999z"/>
</svg>
