<?xml version="1.0" encoding="utf-8"?>
<!-- Generator: Adobe Illustrator 17.1.0, SVG Export Plug-In . SVG Version: 6.00 Build 0)  -->
<!DOCTYPE svg PUBLIC "-//W3C//DTD SVG 1.1//EN" "http://www.w3.org/Graphics/SVG/1.1/DTD/svg11.dtd">
<svg version="1.1" id="highlight_l4c" xmlns="http://www.w3.org/2000/svg" xmlns:xlink="http://www.w3.org/1999/xlink" x="0px"
	 y="0px" width="1600px" height="480px" viewBox="0 0 1600 480" enable-background="new 0 0 1600 480" xml:space="preserve">
<g id="patch" opacity="0.4">
	<path stroke="#000000" stroke-width="0.2" stroke-miterlimit="10" d="M492.134,311.108l38.989-0.402
		c0.139-0.001,0.259-0.098,0.289-0.234l2.357-10.375c0.05-0.219-0.151-0.413-0.368-0.357l-41.346,10.778
		C491.713,310.607,491.78,311.112,492.134,311.108z"/>
	<path stroke="#000000" stroke-width="0.2" stroke-miterlimit="10" d="M507.301,309.104c-23.958,10.773-48.553,20.109-73.15,29.304
		c-24.789,9.266-49.697,18.213-74.621,27.107c-24.976,8.912-49.987,17.727-75.006,26.52c-24.868,8.741-49.745,17.457-74.623,26.168
		c-24.923,8.727-49.849,17.449-74.773,26.174c-24.979,8.744-49.956,17.493-74.931,26.248c-12.711,4.456-25.421,8.914-38.131,13.373
		c11.932,0,23.864,0,35.796,0c24.849-9.139,49.701-18.272,74.555-27.398c24.836-9.119,49.674-18.232,74.511-27.345
		c24.718-9.069,49.435-18.139,74.147-27.225c24.772-9.108,49.539-18.23,74.28-27.424c24.75-9.198,49.48-18.453,74.129-27.919
		c24.569-9.436,49.113-19.02,73.215-29.604c5.942-2.609,11.849-5.301,17.704-8.1L507.301,309.104z"/>
</g>
<path fill="#FFFFFF" stroke="#FFFFFF" stroke-width="0.2" stroke-miterlimit="10" d="M492.134,307.108l38.989-0.402
	c0.139-0.001,0.259-0.098,0.289-0.234l2.357-10.375c0.05-0.219-0.151-0.413-0.368-0.357l-41.346,10.778
	C491.713,306.607,491.78,307.112,492.134,307.108z"/>
<path fill="#FFFFFF" stroke="#FFFFFF" stroke-width="0.2" stroke-miterlimit="10" d="M507.301,305.104
	c-23.958,10.773-48.553,20.109-73.15,29.304c-24.789,9.266-49.697,18.213-74.621,27.107c-24.976,8.912-49.987,17.727-75.006,26.52
	c-24.868,8.741-49.745,17.457-74.623,26.168c-24.923,8.727-49.849,17.449-74.773,26.174c-24.979,8.744-49.956,17.493-74.931,26.248
	c-12.711,4.456-25.421,8.914-38.131,13.373c11.932,0,23.864,0,35.796,0c24.849-9.139,49.701-18.272,74.555-27.398
	c24.836-9.119,49.674-18.232,74.511-27.345c24.718-9.069,49.435-18.139,74.147-27.225c24.772-9.108,49.539-18.23,74.28-27.424
	c24.75-9.198,49.48-18.453,74.129-27.919c24.569-9.436,49.113-19.02,73.215-29.604c5.942-2.609,11.849-5.301,17.704-8.1
	L507.301,305.104z"/>
</svg>
