<?xml version="1.0" encoding="utf-8"?>
<!-- Generator: Adobe Illustrator 17.1.0, SVG Export Plug-In . SVG Version: 6.00 Build 0)  -->
<!DOCTYPE svg PUBLIC "-//W3C//DTD SVG 1.1//EN" "http://www.w3.org/Graphics/SVG/1.1/DTD/svg11.dtd">
<svg version="1.1" id="ycs_center_new2_e" xmlns="http://www.w3.org/2000/svg" xmlns:xlink="http://www.w3.org/1999/xlink" x="0px"
	 y="0px" width="1600px" height="480px" viewBox="0 0 1600 480" enable-background="new 0 0 1600 480" xml:space="preserve">
<linearGradient id="patch_1_" gradientUnits="userSpaceOnUse" x1="742.8586" y1="479.999" x2="742.8586" y2="245.7656">
	<stop  offset="0" style="stop-color:#181410"/>
	<stop  offset="1" style="stop-color:#383630"/>
</linearGradient>
<path id="patch" fill="url(#patch_1_)" d="M786.784,245.766c-4.927,13.13-67.948,181.195-87.851,234.233h8.089
	C725.073,426.96,782.315,258.896,786.784,245.766"/>
<g id="road">
	<linearGradient id="SVGID_1_" gradientUnits="userSpaceOnUse" x1="800.0001" y1="479.999" x2="800.0001" y2="245.7656">
		<stop  offset="0" style="stop-color:#181410"/>
		<stop  offset="1" style="stop-color:#383630"/>
	</linearGradient>
	<path fill="url(#SVGID_1_)" d="M897.023,479.999c-27.935-78.078-55.871-156.156-83.807-234.233h-26.432
		c-4.698,13.13-9.396,26.26-14.094,39.39c-4.261,11.909-8.522,23.818-12.783,35.727c-18.977,53.039-37.953,106.078-56.93,159.116
		C767.659,479.999,832.341,479.999,897.023,479.999z"/>
	<linearGradient id="SVGID_2_" gradientUnits="userSpaceOnUse" x1="742.3639" y1="479.999" x2="742.3639" y2="245.7656">
		<stop  offset="0" style="stop-color:#181410"/>
		<stop  offset="1" style="stop-color:#383630"/>
	</linearGradient>
	<path fill="url(#SVGID_2_)" d="M820.514,338.17c-13.009-1.881-26.085-3.375-39.06-5.483c-5.873-0.954-12.152-1.804-17.539-4.475
		c-2.333-1.157-4.649-3.045-4.299-5.93c0.057-0.472,0.162-0.939,0.292-1.401l12.782-35.725c1.031-2.697,1.747-4.81,1.516-7.754
		c-0.422-5.396-5.017-9.644-9.188-12.522c-4.783-3.3-10.173-5.615-15.647-7.5c-11.98-4.125-24.48-6.633-36.969-8.629
		c-7.417-1.185-14.868-2.152-22.334-2.986h-59.777c5.968,0.685,11.921,1.491,17.838,2.503c6.301,1.077,12.601,2.406,18.713,4.292
		c5.067,1.564,10.889,3.549,14.638,7.49c7.197,7.566-2.624,15.722-8.804,19.687c-5.16,3.31-10.583,6.217-15.963,9.15
		c-5.721,3.12-11.406,6.304-17.095,9.482c-11.501,6.423-22.951,12.941-34.471,19.329c-4.822,2.674-10.246,5.206-14.153,9.196
		c-1.582,1.615-3.256,3.906-3.289,6.265c-0.031,2.177,1.411,4.043,2.928,5.457c3.929,3.662,9.11,5.781,14.082,7.592
		c5.957,2.169,12.038,3.924,18.197,5.418c12.695,3.081,25.562,5.444,38.399,7.846c11.749,2.199,24.192,4.183,34.719,10.18
		c4.913,2.799,9.14,6.553,12.484,11.115c3.618,4.938,5.781,10.419,7.176,16.347c1.442,6.127,1.724,12.371,1.439,18.643
		c-0.289,6.369-0.935,12.73-2.054,19.007c-2.278,12.772-5.86,25.361-9.785,37.715c-0.798,2.512-1.621,5.015-2.437,7.521
		c13.192,0,103.725,0,194.17,0c-16.382-45.788-32.765-91.576-49.147-137.364L820.514,338.17z"/>
</g>
<linearGradient id="edge_1_" gradientUnits="userSpaceOnUse" x1="750.0636" y1="479.999" x2="750.0636" y2="245.7656">
	<stop  offset="0" style="stop-color:#181410"/>
	<stop  offset="1" style="stop-color:#383630"/>
</linearGradient>
<path id="edge" fill="url(#edge_1_)" d="M630.292,245.766c5.968,0.685,11.921,1.491,17.838,2.503
	c6.301,1.077,12.601,2.406,18.713,4.292c5.067,1.564,10.889,3.549,14.638,7.49c7.197,7.566-2.624,15.722-8.804,19.687
	c-5.16,3.31-10.583,6.217-15.963,9.15c-5.721,3.12-11.406,6.304-17.095,9.482c-11.501,6.423-22.951,12.941-34.471,19.329
	c-4.822,2.674-10.246,5.206-14.153,9.196c-1.582,1.615-3.256,3.906-3.289,6.265c-0.031,2.177,1.411,4.043,2.928,5.457
	c3.929,3.662,9.11,5.781,14.082,7.592c5.957,2.169,12.038,3.924,18.197,5.418c12.695,3.081,25.562,5.444,38.399,7.846
	c11.749,2.199,24.192,4.183,34.719,10.18c4.913,2.799,9.14,6.553,12.484,11.115c3.618,4.938,5.781,10.419,7.176,16.347
	c1.442,6.127,1.724,12.371,1.439,18.643c-0.289,6.369-0.935,12.73-2.054,19.007c-2.278,12.772-5.86,25.361-9.785,37.715
	c-0.798,2.512-1.621,5.015-2.437,7.521h-28.309c1.079-2.506,2.166-5.009,3.227-7.521c5.223-12.353,10.128-24.942,13.749-37.715
	c1.779-6.278,3.093-12.638,4.052-19.007c0.944-6.272,1.319-12.515,0.521-18.643c-0.772-5.928-2.359-11.409-5.458-16.347
	c-2.864-4.563-6.697-8.317-11.315-11.115c-9.897-5.996-22.13-7.981-33.649-10.18c-12.584-2.403-25.203-4.766-37.574-7.846
	c-6.002-1.495-11.899-3.249-17.628-5.418c-4.782-1.81-9.74-3.929-13.284-7.592c-1.368-1.414-2.614-3.28-2.354-5.457
	c0.281-2.359,2.197-4.65,3.948-6.265c4.327-3.99,10.016-6.522,15.12-9.196c12.191-6.388,24.326-12.906,36.502-19.329
	c6.023-3.177,12.042-6.362,18.091-9.482c5.687-2.933,11.416-5.84,16.924-9.15c6.597-3.965,17.275-12.121,10.873-19.687
	c-3.334-3.941-8.947-5.926-13.85-7.49c-5.915-1.886-12.075-3.214-18.262-4.292c-5.81-1.012-11.679-1.818-17.575-2.503H630.292z
	 M783.093,245.766c-1.107,2.391-4.599,9.936-9.707,20.97c-0.888-0.67-1.789-1.29-2.668-1.856c-5.13-3.3-10.763-5.615-16.436-7.5
	c-12.413-4.125-25.177-6.633-37.876-8.629c-7.541-1.185-15.094-2.152-22.648-2.986h-3.691c7.466,0.833,14.917,1.8,22.334,2.986
	c12.49,1.996,24.99,4.504,36.969,8.629c5.475,1.885,10.864,4.2,15.647,7.5c2.286,1.578,4.696,3.569,6.48,5.934
	c1.471,1.949,2.517,4.15,2.708,6.588c0.165,2.105-0.159,3.786-0.731,5.558c1.553-4.341,3.01-8.413,4.346-12.146
	c4.744-13.26,8.005-22.372,8.962-25.048H783.093z M813.216,245.766c27.935,78.078,55.871,156.155,83.807,234.233h28.309
	c-36.141-78.078-72.284-156.156-108.425-234.233H813.216z"/>
<g id="line">
	<path fill="#FFFFFF" stroke="#FFFFFF" stroke-width="0.2" stroke-miterlimit="10" d="M813.216,245.766
		c26.573,78.078,53.19,156.155,79.762,234.233h8.089C871.769,401.921,842.514,323.843,813.216,245.766"/>
	<path fill="#FFFFFF" stroke="#FFFFFF" stroke-width="0.2" stroke-miterlimit="10" d="M674.402,247.583h-0.025
		c1.57,0.228,3.139,0.468,4.707,0.719C677.525,248.051,675.964,247.811,674.402,247.583z"/>
	<path fill="#FFFFFF" stroke="#FFFFFF" stroke-width="0.2" stroke-miterlimit="10" d="M679.084,248.302
		c1.915,0.308,3.828,0.631,5.736,0.982h0.034C682.935,248.933,681.01,248.61,679.084,248.302z"/>
	<path fill="#FFFFFF" stroke="#FFFFFF" stroke-width="0.2" stroke-miterlimit="10" d="M701.951,300.842
		c0.765-0.724,1.531-1.446,2.296-2.17h-1.758c-0.79,0.724-1.581,1.446-2.372,2.17c-3.605,3.302-7.195,6.62-10.785,9.939h2.181
		C694.987,307.462,698.461,304.144,701.951,300.842z"/>
	<path fill="#FFFFFF" stroke="#FFFFFF" stroke-width="0.2" stroke-miterlimit="10" d="M726.567,275.372h-0.945
		c-0.96,2.392-2.585,4.432-4.443,6.293h1.165C724.137,279.804,725.691,277.764,726.567,275.372z"/>
	<path fill="#FFFFFF" stroke="#FFFFFF" stroke-width="0.2" stroke-miterlimit="10" d="M703.808,253.716
		c-0.215-0.063-0.432-0.117-0.648-0.18h-0.183c0.213,0.062,0.429,0.117,0.641,0.18c2.287,0.682,4.595,1.442,6.859,2.32h0.27
		C708.454,255.157,706.118,254.397,703.808,253.716z"/>
	<path fill="#FFFFFF" stroke="#FFFFFF" stroke-width="0.2" stroke-miterlimit="10" d="M722.1,262.209h-0.486
		c1.301,1.122,2.434,2.399,3.277,3.81h0.619C724.618,264.609,723.44,263.331,722.1,262.209z"/>
	<path fill="#FFFFFF" stroke="#FFFFFF" stroke-width="0.2" stroke-miterlimit="10" d="M630.292,245.766
		c5.956,0.685,11.94,1.491,17.839,2.503c6.282,1.077,12.559,2.406,18.638,4.292c5.04,1.564,10.827,3.549,14.507,7.49
		c7.065,7.566-2.898,15.722-9.148,19.687c-5.218,3.31-10.692,6.217-16.122,9.15c-5.776,3.12-11.516,6.304-17.26,9.482
		c-11.613,6.423-23.177,12.941-34.808,19.329c-4.869,2.674-10.336,5.206-14.314,9.196c-1.61,1.615-3.325,3.906-3.399,6.265
		c-0.069,2.177,1.34,4.043,2.833,5.457c3.865,3.662,9.009,5.781,13.949,7.592c5.919,2.169,11.969,3.924,18.103,5.418
		c12.642,3.081,25.467,5.444,38.262,7.846c11.711,2.199,24.119,4.183,34.541,10.18c4.864,2.799,9.026,6.553,12.29,11.115
		c3.532,4.938,5.599,10.419,6.891,16.347c1.336,6.127,1.508,12.371,1.113,18.643c-0.401,6.369-1.157,12.73-2.386,19.007
		c-2.501,12.772-6.303,25.361-10.443,37.715c-0.842,2.512-1.709,5.015-2.568,7.521h8.089c0.772-2.506,1.552-5.009,2.306-7.521
		c3.709-12.353,7.071-24.942,9.126-37.715c1.01-6.278,1.544-12.638,1.723-19.007c0.176-6.272-0.215-12.515-1.764-18.643
		c-1.499-5.928-3.757-11.409-7.461-16.347c-3.423-4.563-7.716-8.317-12.678-11.115c-10.632-5.996-23.108-7.981-34.896-10.18
		c-12.879-2.403-25.787-4.766-38.536-7.846c-6.186-1.495-12.297-3.249-18.292-5.418c-5.004-1.81-10.222-3.929-14.214-7.592
		c-1.542-1.414-3.016-3.28-3.023-5.457c-0.008-2.359,1.627-4.65,3.18-6.265c3.838-3.99,9.217-6.522,13.993-9.196
		c11.408-6.388,22.745-12.906,34.133-19.329c5.634-3.177,11.263-6.362,16.929-9.482c5.328-2.933,10.7-5.84,15.803-9.15
		c6.111-3.965,15.789-12.121,8.461-19.687c-3.817-3.941-9.674-5.926-14.768-7.49c-6.146-1.886-12.469-3.214-18.788-4.292
		C642.195,247.257,636.272,246.451,630.292,245.766"/>
	<path fill="#FFFFFF" stroke="#FFFFFF" stroke-width="0.2" stroke-miterlimit="10" d="M774.751,277.85
		c-0.01-0.147-0.022-0.296-0.036-0.448c-0.516-5.396-5.185-9.644-9.406-12.522c-4.841-3.3-10.271-5.615-15.778-7.5
		c-12.052-4.125-24.596-6.633-37.12-8.629c-7.437-1.185-14.861-2.152-22.342-2.986c7.452,0.833,14.93,1.8,22.326,2.986
		c12.455,1.996,24.911,4.504,36.819,8.629c5.442,1.885,10.791,4.2,15.516,7.5c4.121,2.878,8.641,7.127,8.969,12.522
		c0.179,2.944-0.61,5.057-1.688,7.754h1.359c7.121-20.911,12.204-35.836,13.414-39.391
		C785.611,248.891,781.143,260.805,774.751,277.85L774.751,277.85z"/>
	<path fill="#FFFFFF" stroke="#FFFFFF" stroke-width="0.2" stroke-miterlimit="10" d="M758.183,329.75h-2.896
		c-2.523,6.729-5.113,13.633-7.734,20.622h3.606C753.54,343.383,755.891,336.479,758.183,329.75z"/>
	<path fill="#FFFFFF" stroke="#FFFFFF" stroke-width="0.2" stroke-miterlimit="10" d="M768.767,298.672h-1.825
		c-1.464,3.905-2.982,7.95-4.541,12.109h2.242C766.06,306.622,767.437,302.577,768.767,298.672z"/>
</g>
</svg>
