<?xml version="1.0" encoding="utf-8"?>
<!-- Generator: Adobe Illustrator 17.1.0, SVG Export Plug-In . SVG Version: 6.00 Build 0)  -->
<!DOCTYPE svg PUBLIC "-//W3C//DTD SVG 1.1//EN" "http://www.w3.org/Graphics/SVG/1.1/DTD/svg11.dtd">
<svg version="1.1" id="highlight_l3s_center" xmlns="http://www.w3.org/2000/svg" xmlns:xlink="http://www.w3.org/1999/xlink"
	 x="0px" y="0px" width="1600px" height="480px" viewBox="0 0 1600 480" enable-background="new 0 0 1600 480" xml:space="preserve"
	>
<g id="patch" opacity="0.4">
	<path stroke="#000000" stroke-width="0.2" stroke-miterlimit="10" d="M647.778,283.145l-32.056,7.383
		c-0.348,0.08-0.29,0.592,0.067,0.592h32.185c0.168,0,0.303-0.138,0.3-0.305l-0.13-7.383
		C648.142,283.241,647.964,283.102,647.778,283.145z"/>
	<path stroke="#000000" stroke-width="0.2" stroke-miterlimit="10" d="M628.008,289.806
		C483.379,354.537,338.75,419.268,194.122,483.999c13.03,0,26.059,0,39.089,0c135.298-64.731,270.596-129.462,405.893-194.193
		H628.008z"/>
</g>
<path fill="#FFFFFF" stroke="#FFFFFF" stroke-width="0.2" stroke-miterlimit="10" d="M647.778,279.145l-32.056,7.383
	c-0.348,0.08-0.29,0.592,0.067,0.592h32.185c0.168,0,0.303-0.138,0.3-0.305l-0.13-7.383
	C648.142,279.241,647.964,279.102,647.778,279.145z"/>
<path fill="#FFFFFF" stroke="#FFFFFF" stroke-width="0.2" stroke-miterlimit="10" d="M628.008,285.806
	C483.379,350.537,338.75,415.268,194.122,479.999c13.03,0,26.059,0,39.089,0c135.298-64.731,270.596-129.462,405.893-194.193
	H628.008z"/>
</svg>
