<?xml version="1.0" encoding="utf-8"?>
<!-- Generator: Adobe Illustrator 17.1.0, SVG Export Plug-In . SVG Version: 6.00 Build 0)  -->
<!DOCTYPE svg PUBLIC "-//W3C//DTD SVG 1.1//EN" "http://www.w3.org/Graphics/SVG/1.1/DTD/svg11.dtd">
<svg version="1.1" id="r3c_center_e" xmlns="http://www.w3.org/2000/svg" xmlns:xlink="http://www.w3.org/1999/xlink" x="0px"
	 y="0px" width="1600px" height="480px" viewBox="0 0 1600 480" enable-background="new 0 0 1600 480" xml:space="preserve">
<linearGradient id="SVGID_1_" gradientUnits="userSpaceOnUse" x1="1154.0908" y1="480.499" x2="1154.0908" y2="245.7656">
	<stop  offset="0" style="stop-color:#181410"/>
	<stop  offset="1" style="stop-color:#383630"/>
</linearGradient>
<path fill="url(#SVGID_1_)" d="M1295.046,476.388c-25.746-14.785-48.283-27.811-68.9-39.819
	c-24.287-14.146-46.771-27.463-68.74-40.714c-27.154-16.378-47.935-29.32-67.378-41.965c-12.261-7.975-22.909-15.232-32.553-22.188
	c-9.363-6.753-20.256-14.855-30.06-23.745c-4.922-4.462-8.914-8.736-12.205-13.065c-3.097-4.073-6.354-8.962-7.041-14.327
	c-1.136-8.853,6.016-16.115,21.255-21.586c12.867-4.621,26.605-7.228,37.136-8.981c7.884-1.313,16.352-2.501,26.647-3.735
	l-0.06-0.496h-4.133c-8.38,1.042-15.67,2.087-22.661,3.245c-10.633,1.761-24.519,4.379-37.622,9.025
	c-15.927,5.647-23.56,13.265-22.686,22.639c0.522,5.604,3.692,10.633,6.725,14.813c3.173,4.376,7.057,8.694,11.871,13.204
	c9.526,8.921,20.166,17.046,29.316,23.817c9.418,6.968,19.826,14.234,31.819,22.215c19.023,12.659,39.361,25.607,65.941,41.983
	c21.514,13.255,43.538,26.575,67.331,40.722c20.11,11.957,42.195,24.983,67.516,39.823l5.539,3.246h10.099L1295.046,476.388z"/>
<linearGradient id="road_1_" gradientUnits="userSpaceOnUse" x1="1248.7267" y1="479.999" x2="1248.7267" y2="245.7656">
	<stop  offset="0" style="stop-color:#181410"/>
	<stop  offset="1" style="stop-color:#383630"/>
</linearGradient>
<path id="road" fill="url(#road_1_)" d="M1417.011,449.824c-24.55-10.112-49.072-20.293-73.56-30.553
	c-24.407-10.226-48.813-20.459-73.13-30.897c-24.361-10.456-48.695-20.974-72.895-31.798
	c-23.926-10.702-47.738-21.668-71.194-33.368c-11.568-5.77-23.072-11.76-34.213-18.323c-5.47-3.222-10.888-6.579-16.089-10.221
	c-4.917-3.443-9.924-7.133-14.015-11.552c-3.642-3.934-7.658-9.961-5.227-15.488c2.151-4.892,7.58-7.596,12.203-9.644
	c11.403-5.052,24.096-7.244,36.323-9.296c6.7-1.124,13.427-2.067,20.166-2.919h-32.229c-8.921,1.068-17.828,2.266-26.691,3.738
	c-12.623,2.097-25.306,4.695-37.38,9.004c-9.483,3.384-23.319,9.92-21.968,22.121c0.599,5.414,3.709,10.29,6.885,14.566
	c3.552,4.783,7.661,9.1,12.038,13.133c9.312,8.58,19.471,16.317,29.687,23.78c10.521,7.685,21.302,15.041,32.187,22.201
	c21.939,14.433,44.238,28.307,66.659,41.974c22.567,13.756,45.257,27.314,68.036,40.718c22.69,13.352,45.435,26.61,68.208,39.821
	c1.826,1.059,3.651,2.118,5.477,3.177c26.471,0,182.28,0,194.152,0C1465.952,469.963,1441.478,459.902,1417.011,449.824z"/>
<linearGradient id="edge_1_" gradientUnits="userSpaceOnUse" x1="1287.3452" y1="479.999" x2="1287.3452" y2="245.7656">
	<stop  offset="0" style="stop-color:#181410"/>
	<stop  offset="1" style="stop-color:#383630"/>
</linearGradient>
<path id="edge" fill="url(#edge_1_)" d="M1518.746,479.999c-25.539-10.036-51.071-20.097-76.598-30.175
	c-25.612-10.112-51.205-20.293-76.771-30.553c-25.482-10.226-50.963-20.459-76.378-30.897c-25.46-10.456-50.9-20.974-76.237-31.798
	c-25.051-10.702-50.015-21.668-74.702-33.368c-12.174-5.77-24.308-11.76-36.139-18.323c-5.808-3.222-11.579-6.579-17.164-10.221
	c-5.278-3.443-10.674-7.133-15.229-11.552c-4.056-3.934-8.705-9.961-6.855-15.488c1.637-4.892,6.782-7.596,11.189-9.644
	c10.872-5.052,23.335-7.244,35.346-9.296c6.582-1.124,13.21-2.067,19.859-2.919h-3.691c-6.739,0.852-13.466,1.795-20.166,2.919
	c-12.227,2.052-24.92,4.244-36.323,9.296c-4.623,2.048-10.051,4.752-12.203,9.644c-2.43,5.527,1.585,11.554,5.227,15.488
	c4.091,4.419,9.099,8.11,14.015,11.552c5.202,3.642,10.62,6.998,16.089,10.221c11.141,6.563,22.645,12.553,34.213,18.323
	c23.457,11.7,47.268,22.666,71.194,33.368c24.2,10.825,48.534,21.342,72.895,31.798c24.318,10.438,48.723,20.671,73.13,30.897
	c24.488,10.259,49.011,20.441,73.56,30.553c24.467,10.078,48.942,20.139,73.426,30.175H1518.746z"/>
<g id="line">
	<path fill="#FFFFFF" stroke="#FFFFFF" stroke-width="0.2" stroke-miterlimit="10" d="M1027.079,308.327
		c-3.343-3.032-6.537-6.225-9.462-9.656h-1.758c2.805,3.43,5.888,6.624,9.125,9.656c0.884,0.828,1.782,1.641,2.681,2.453h2.181
		C1028.919,309.968,1027.992,309.155,1027.079,308.327z"/>
	<path fill="#FFFFFF" stroke="#FFFFFF" stroke-width="0.2" stroke-miterlimit="10" d="M1086.055,354.308
		c16.011,10.655,32.226,21.004,48.542,31.192h4.79c-16.672-10.188-33.247-20.536-49.631-31.192
		c-2.003-1.302-3.998-2.619-5.993-3.936h-3.563C1082.149,351.689,1084.097,353.006,1086.055,354.308z"/>
	<path fill="#FFFFFF" stroke="#FFFFFF" stroke-width="0.2" stroke-miterlimit="10" d="M1079.094,247.583h-0.016
		c-3.754,0.525-7.505,1.091-11.255,1.701h0.037C1071.593,248.675,1075.339,248.108,1079.094,247.583z"/>
	<path fill="#FFFFFF" stroke="#FFFFFF" stroke-width="0.2" stroke-miterlimit="10" d="M1020.639,262.209h-0.486
		c-2.143,1.1-4.236,2.364-6.118,3.81h0.618C1016.485,264.573,1018.534,263.309,1020.639,262.209z"/>
	<path fill="#FFFFFF" stroke="#FFFFFF" stroke-width="0.2" stroke-miterlimit="10" d="M1007.672,280.628
		c-0.241-1.884-0.116-3.633,0.299-5.256h-0.945c-0.472,1.623-0.658,3.372-0.483,5.256c0.032,0.348,0.076,0.693,0.129,1.037h1.165
		C1007.773,281.322,1007.717,280.976,1007.672,280.628z"/>
	<path fill="#FFFFFF" stroke="#FFFFFF" stroke-width="0.2" stroke-miterlimit="10" d="M1046.179,253.536h-0.183
		c-3.159,0.753-6.298,1.582-9.41,2.5h0.27C1039.936,255.117,1043.046,254.288,1046.179,253.536z"/>
	<path fill="#FFFFFF" stroke="#FFFFFF" stroke-width="0.2" stroke-miterlimit="10" d="M1125.376,245.766
		c-6.754,0.852-13.453,1.795-20.172,2.919c-12.263,2.052-24.994,4.244-36.485,9.296c-4.658,2.048-10.134,4.752-12.371,9.644
		c-2.527,5.527,1.383,11.554,4.957,15.488c4.014,4.419,8.957,8.11,13.814,11.552c5.138,3.642,10.498,6.998,15.911,10.221
		c11.026,6.563,22.426,12.553,33.893,18.323c23.253,11.7,46.873,22.666,70.612,33.368c24.011,10.825,48.162,21.342,72.34,31.798
		c24.135,10.438,48.362,20.671,72.591,30.897c24.309,10.259,48.654,20.441,73.027,30.553c24.292,10.078,48.59,20.139,72.9,30.175
		h8.089c-24.66-10.036-49.31-20.097-73.953-30.175c-24.726-10.112-49.426-20.293-74.094-30.553
		c-24.586-10.226-49.17-20.459-73.67-30.897c-24.543-10.456-49.061-20.974-73.45-31.798c-24.113-10.702-48.116-21.668-71.777-33.368
		c-11.668-5.77-23.278-11.76-34.533-18.323c-5.526-3.222-11.002-6.579-16.268-10.221c-4.977-3.443-10.049-7.133-14.217-11.552
		c-3.711-3.934-7.832-9.961-5.498-15.488c2.066-4.892,7.447-7.596,12.034-9.644c11.315-5.052,23.97-7.244,36.161-9.296
		C1111.898,247.561,1118.653,246.618,1125.376,245.766"/>
</g>
</svg>
