<?xml version="1.0" encoding="utf-8"?>
<!-- Generator: Adobe Illustrator 17.1.0, SVG Export Plug-In . SVG Version: 6.00 Build 0)  -->
<!DOCTYPE svg PUBLIC "-//W3C//DTD SVG 1.1//EN" "http://www.w3.org/Graphics/SVG/1.1/DTD/svg11.dtd">
<svg version="1.1" id="l3c_e" xmlns="http://www.w3.org/2000/svg" xmlns:xlink="http://www.w3.org/1999/xlink" x="0px" y="0px"
	 width="1600px" height="480px" viewBox="0 0 1600 480" enable-background="new 0 0 1600 480" xml:space="preserve">
<linearGradient id="patch_1_" gradientUnits="userSpaceOnUse" x1="472.9434" y1="480.499" x2="472.9434" y2="245.7656">
	<stop  offset="0" style="stop-color:#181410"/>
	<stop  offset="1" style="stop-color:#383630"/>
</linearGradient>
<path id="patch" fill="url(#patch_1_)" d="M624.891,255.275c-8.196-3.044-17.3-5.346-29.518-7.465c-0.001,0-0.002-0.001-0.003-0.001
	c-2.185-0.381-4.373-0.74-6.556-1.088c-2.116-0.336-4.254-0.648-6.388-0.956h-3.507l-0.069,0.495l2.039,0.286
	c0.003,0,0.006,0.001,0.01,0.001c2.578,0.367,5.136,0.754,7.72,1.162c2.192,0.346,4.389,0.705,6.583,1.086c0.002,0,0.002,0,0.003,0
	c12.079,2.108,21.046,4.396,29.075,7.416c11.673,4.393,16.794,10.192,15.221,17.238c-1.217,5.451-5.51,10.149-9.438,14.126
	c-3.802,3.848-8.256,7.685-14.018,12.074c-9.659,7.36-19.721,13.996-31.858,21.694c-21.134,13.405-42.708,25.872-68.6,40.467
	c-17.195,9.693-34.407,19.355-51.62,29.019l-113.69,63.851c-14.767,8.293-29.534,16.586-44.299,24.883l-1.666,0.936h10.132
	l0.115-0.066c14.504-8.313,29.011-16.622,43.517-24.932l111.452-63.846c16.85-9.648,33.699-19.296,50.531-28.975
	c25.398-14.604,46.551-27.078,67.231-40.494c11.891-7.714,21.742-14.363,31.171-21.745c5.647-4.421,10-8.287,13.7-12.169
	c3.886-4.077,8.123-8.906,9.199-14.62C642.774,266.156,637.079,259.802,624.891,255.275z"/>
<linearGradient id="road_1_" gradientUnits="userSpaceOnUse" x1="386.5606" y1="479.999" x2="386.5606" y2="245.7656">
	<stop  offset="0" style="stop-color:#181410"/>
	<stop  offset="1" style="stop-color:#383630"/>
</linearGradient>
<path id="road" fill="url(#road_1_)" d="M624.587,255.744c-11.526-4.308-23.755-6.608-35.871-8.528
	c-3.26-0.517-6.526-0.998-9.797-1.45h-28.615c11.994,1.699,24.197,3.637,35.623,7.719c2.653,0.948,5.285,2.011,7.714,3.45
	c2.296,1.36,4.677,3.106,5.917,5.539c2.724,5.348-2.279,11.091-5.957,14.467c-4.465,4.098-9.597,7.501-14.709,10.73
	c-5.373,3.394-10.919,6.506-16.536,9.476c-23.089,12.208-46.979,22.913-70.893,33.387c-24.09,10.551-48.318,20.785-72.596,30.894
	c-24.501,10.202-49.038,20.319-73.561,30.469c-24.494,10.138-48.989,20.276-73.483,30.414
	c-24.539,10.157-49.079,20.313-73.618,30.47c-21.92,9.073-43.84,18.145-65.76,27.218c26.419,0,52.838,0,79.257,0
	c26.379,0,52.758,0,79.137,0c6.476,0,12.952,0,19.429,0c23.108-13.113,46.22-26.217,69.33-39.326
	c23.054-13.077,46.109-26.154,69.164-39.231c23.023-13.06,46.058-26.099,69.061-39.195c22.891-13.032,45.74-26.256,67.915-40.481
	c10.736-6.886,21.414-13.918,31.514-21.719c4.855-3.749,9.582-7.715,13.858-12.121c3.854-3.97,8.17-8.779,9.32-14.367
	C642.408,263.953,631.988,258.51,624.587,255.744z"/>
<linearGradient id="edge_1_" gradientUnits="userSpaceOnUse" x1="352.2376" y1="479.999" x2="352.2376" y2="245.7656">
	<stop  offset="0" style="stop-color:#181410"/>
	<stop  offset="1" style="stop-color:#383630"/>
</linearGradient>
<path id="edge" fill="url(#edge_1_)" d="M104.137,479.999c22.874-9.073,45.747-18.145,68.621-27.218
	c25.607-10.157,51.214-20.313,76.82-30.47c25.56-10.138,51.12-20.276,76.68-30.414c25.59-10.15,51.19-20.267,76.764-30.469
	c25.341-10.109,50.644-20.344,75.843-30.894c25.015-10.473,50.029-21.179,74.402-33.387c5.929-2.97,11.802-6.082,17.532-9.476
	c5.451-3.228,10.94-6.631,15.836-10.73c4.033-3.376,9.64-9.119,7.478-14.467c-0.984-2.433-3.182-4.179-5.335-5.539
	c-2.278-1.44-4.798-2.502-7.352-3.45c-10.997-4.082-22.996-6.02-34.812-7.719h3.691c11.994,1.699,24.197,3.637,35.623,7.719
	c2.653,0.948,5.285,2.011,7.714,3.45c2.296,1.36,4.677,3.106,5.917,5.539c2.724,5.348-2.279,11.091-5.957,14.467
	c-4.465,4.098-9.597,7.501-14.709,10.73c-5.373,3.394-10.919,6.506-16.536,9.476c-23.089,12.208-46.979,22.913-70.893,33.387
	c-24.09,10.551-48.318,20.785-72.596,30.894c-24.501,10.202-49.038,20.319-73.561,30.469
	c-24.494,10.138-48.989,20.276-73.483,30.414c-24.539,10.157-49.079,20.313-73.618,30.47c-21.92,9.073-43.84,18.145-65.76,27.218
	H104.137z"/>
<g id="line">
	<path fill="#FFFFFF" stroke="#FFFFFF" stroke-width="0.2" stroke-miterlimit="10" d="M550.305,245.766
		c11.965,1.699,24.177,3.637,35.533,7.719c2.637,0.948,5.25,2.011,7.654,3.45c2.272,1.36,4.623,3.106,5.82,5.539
		c2.631,5.348-2.472,11.091-6.21,14.467c-4.537,4.098-9.728,7.501-14.896,10.73c-5.432,3.394-11.032,6.506-16.701,9.476
		c-23.302,12.208-47.378,22.913-71.475,33.387c-24.274,10.551-48.681,20.785-73.135,30.894
		c-24.68,10.202-49.393,20.319-74.093,30.469c-24.671,10.138-49.343,20.276-74.014,30.414c-24.717,10.157-49.433,20.313-74.15,30.47
		c-22.078,9.073-44.157,18.145-66.235,27.218h8.089c21.762-9.073,43.523-18.145,65.285-27.218
		c24.362-10.157,48.724-20.313,73.086-30.47c24.317-10.138,48.635-20.276,72.952-30.414c24.346-10.15,48.706-20.267,73.03-30.469
		c24.102-10.109,48.151-20.344,72.057-30.894c23.731-10.473,47.434-21.179,70.31-33.387c5.565-2.97,11.056-6.082,16.37-9.476
		c5.055-3.228,10.128-6.631,14.521-10.73c3.619-3.376,8.522-9.119,5.705-14.467c-1.282-2.433-3.694-4.179-6.014-5.539
		c-2.455-1.44-5.104-2.502-7.774-3.45C574.52,249.402,562.329,247.464,550.305,245.766"/>
	<path fill="#FFFFFF" stroke="#FFFFFF" stroke-width="0.2" stroke-miterlimit="10" d="M595.248,248.304
		c1.776,0.31,3.549,0.636,5.32,0.98h0.034C598.82,248.94,597.035,248.614,595.248,248.304z"/>
	<path fill="#FFFFFF" stroke="#FFFFFF" stroke-width="0.2" stroke-miterlimit="10" d="M590.984,247.583h-0.025
		c1.43,0.232,2.859,0.473,4.29,0.721C593.827,248.056,592.405,247.815,590.984,247.583z"/>
	<path fill="#FFFFFF" stroke="#FFFFFF" stroke-width="0.2" stroke-miterlimit="10" d="M618.155,300.048
		c0.577-0.452,1.144-0.918,1.716-1.376h-1.758c-0.589,0.458-1.172,0.924-1.764,1.376c-4.897,3.732-9.926,7.284-15.026,10.733h2.181
		C608.483,307.332,613.388,303.78,618.155,300.048z"/>
	<path fill="#FFFFFF" stroke="#FFFFFF" stroke-width="0.2" stroke-miterlimit="10" d="M540.291,350.372h-3.563
		c-6.951,3.989-13.919,7.943-20.894,11.875c-13.776,7.765-27.563,15.511-41.352,23.253h4.79
		c13.519-7.742,27.035-15.487,40.54-23.253C526.649,358.316,533.48,354.361,540.291,350.372z"/>
	<path fill="#FFFFFF" stroke="#FFFFFF" stroke-width="0.2" stroke-miterlimit="10" d="M636.401,262.209h-0.485
		c1.241,1.137,2.296,2.404,3.059,3.81h0.618C638.781,264.613,637.682,263.346,636.401,262.209z"/>
	<path fill="#FFFFFF" stroke="#FFFFFF" stroke-width="0.2" stroke-miterlimit="10" d="M624.717,255.744
		c-2.182-0.81-4.393-1.529-6.617-2.208h-0.183c2.2,0.679,4.387,1.398,6.54,2.208c0.25,0.094,0.503,0.191,0.759,0.292h0.27
		C625.227,255.936,624.97,255.838,624.717,255.744z"/>
	<path fill="#FFFFFF" stroke="#FFFFFF" stroke-width="0.2" stroke-miterlimit="10" d="M640.408,275.372h-0.945
		c-0.782,2.233-2.029,4.331-3.492,6.293h1.165C638.53,279.704,639.704,277.605,640.408,275.372z"/>
</g>
</svg>
