<?xml version="1.0" encoding="utf-8"?>
<!-- Generator: Adobe Illustrator 17.1.0, SVG Export Plug-In . SVG Version: 6.00 Build 0)  -->
<!DOCTYPE svg PUBLIC "-//W3C//DTD SVG 1.1//EN" "http://www.w3.org/Graphics/SVG/1.1/DTD/svg11.dtd">
<svg version="1.1" xmlns="http://www.w3.org/2000/svg" xmlns:xlink="http://www.w3.org/1999/xlink" x="0px" y="0px"
	 viewBox="0 0 120 120" xml:space="preserve">
<g id="Layer_1" display="none">
	<circle display="inline" opacity="0.5" fill="#DE2127" cx="60" cy="60" r="60"/>
	<rect x="6.5" y="6.5" display="inline" opacity="0.5" fill="#3B50A0" width="107" height="107"/>
</g>
<g id="disabled" opacity="0.2">
	<g>
		<g>
			<path fill-rule="evenodd" clip-rule="evenodd" fill="#3a3a3a" d="M30.109,90.841l18.19-8.84V28.959l-18.19,8.84V90.841z
				 M50.899,82.001l18.19,8.84V37.8l-18.19-8.84V82.001z M71.688,90.841l18.19-8.84V28.959l-18.19,8.84V90.841z M117.461,35.075
				l-15.497-11.901c-1.648-1.266-4.031-0.085-4.023,1.992l0.075,19.464c0.008,2.002,2.247,3.183,3.903,2.059l3.165-2.147
				c1.643,4.818,2.543,9.98,2.543,15.354c0,10.118-3.166,19.494-8.554,27.206c-0.688,0.985-0.559,2.322,0.291,3.172l2.443,2.443
				c1.088,1.088,2.901,0.949,3.796-0.302c6.561-9.168,10.43-20.389,10.43-32.519c0-6.731-1.193-13.181-3.375-19.157l4.045-1.302
				C118.623,38.82,119.06,36.303,117.461,35.075z M18.08,73.31l-3.104,2.105c-1.679-4.865-2.598-10.084-2.598-15.519
				c0-9.865,3.007-19.027,8.151-26.627c0.666-0.984,0.529-2.302-0.31-3.142l-2.465-2.465c-1.096-1.096-2.927-0.946-3.813,0.326
				c-6.299,9.054-10,20.046-10,31.908c0,6.803,1.22,13.319,3.447,19.348l-4.092,1.318c-1.918,0.618-2.355,3.135-0.757,4.362
				l15.497,11.901c1.648,1.265,4.031,0.085,4.023-1.992l-0.075-19.464C21.975,73.368,19.736,72.186,18.08,73.31z"/>
		</g>
	</g>
</g>
<g id="active">
	<g>
		<g>
			<path fill-rule="evenodd" clip-rule="evenodd" fill="#3a3a3a" d="M30.109,90.841l18.19-8.84V28.959l-18.19,8.84V90.841z
				 M50.899,82.001l18.19,8.84V37.8l-18.19-8.84V82.001z M71.688,90.841l18.19-8.84V28.959l-18.19,8.84V90.841z M117.461,35.075
				l-15.497-11.901c-1.648-1.266-4.031-0.085-4.023,1.992l0.075,19.464c0.008,2.002,2.247,3.183,3.903,2.059l3.165-2.147
				c1.643,4.818,2.543,9.98,2.543,15.354c0,10.118-3.166,19.494-8.554,27.206c-0.688,0.985-0.559,2.322,0.291,3.172l2.443,2.443
				c1.088,1.088,2.901,0.949,3.796-0.302c6.561-9.168,10.43-20.389,10.43-32.519c0-6.731-1.193-13.181-3.375-19.157l4.045-1.302
				C118.623,38.82,119.06,36.303,117.461,35.075z M18.08,73.31l-3.104,2.105c-1.679-4.865-2.598-10.084-2.598-15.519
				c0-9.865,3.007-19.027,8.151-26.627c0.666-0.984,0.529-2.302-0.31-3.142l-2.465-2.465c-1.096-1.096-2.927-0.946-3.813,0.326
				c-6.299,9.054-10,20.046-10,31.908c0,6.803,1.22,13.319,3.447,19.348l-4.092,1.318c-1.918,0.618-2.355,3.135-0.757,4.362
				l15.497,11.901c1.648,1.265,4.031,0.085,4.023-1.992l-0.075-19.464C21.975,73.368,19.736,72.186,18.08,73.31z"/>
		</g>
	</g>
</g>
<g id="normal">
	<g>
		<g>
			<path fill-rule="evenodd" clip-rule="evenodd" fill="#3a3a3a" d="M30.109,90.841l18.19-8.84V28.959l-18.19,8.84V90.841z
				 M50.899,82.001l18.19,8.84V37.8l-18.19-8.84V82.001z M71.688,90.841l18.19-8.84V28.959l-18.19,8.84V90.841z M117.461,35.075
				l-15.497-11.901c-1.648-1.266-4.031-0.085-4.023,1.992l0.075,19.464c0.008,2.002,2.247,3.183,3.903,2.059l3.165-2.147
				c1.643,4.818,2.543,9.98,2.543,15.354c0,10.118-3.166,19.494-8.554,27.206c-0.688,0.985-0.559,2.322,0.291,3.172l2.443,2.443
				c1.088,1.088,2.901,0.949,3.796-0.302c6.561-9.168,10.43-20.389,10.43-32.519c0-6.731-1.193-13.181-3.375-19.157l4.045-1.302
				C118.623,38.82,119.06,36.303,117.461,35.075z M18.08,73.31l-3.104,2.105c-1.679-4.865-2.598-10.084-2.598-15.519
				c0-9.865,3.007-19.027,8.151-26.627c0.666-0.984,0.529-2.302-0.31-3.142l-2.465-2.465c-1.096-1.096-2.927-0.946-3.813,0.326
				c-6.299,9.054-10,20.046-10,31.908c0,6.803,1.22,13.319,3.447,19.348l-4.092,1.318c-1.918,0.618-2.355,3.135-0.757,4.362
				l15.497,11.901c1.648,1.265,4.031,0.085,4.023-1.992l-0.075-19.464C21.975,73.368,19.736,72.186,18.08,73.31z"/>
		</g>
	</g>
</g>
</svg>
