<?xml version="1.0" encoding="utf-8"?>
<!-- Generator: Adobe Illustrator 16.0.2, SVG Export Plug-In . SVG Version: 6.00 Build 0)  -->
<!DOCTYPE svg PUBLIC "-//W3C//DTD SVG 1.1//EN" "http://www.w3.org/Graphics/SVG/1.1/DTD/svg11.dtd">
<svg version="1.1" id="Capa_1" xmlns="http://www.w3.org/2000/svg" xmlns:xlink="http://www.w3.org/1999/xlink" x="0px" y="0px"
	 width="114px" height="114px" viewBox="0 0 114 114" xml:space="preserve">
<g id="visibility">
	<g>
		<path fill="black" d="M19.275,79.713L33.638,65.35c-0.933-2.607-1.439-5.417-1.439-8.344c0-13.702,11.105-24.796,24.796-24.796
			c2.926,0,5.735,0.508,8.343,1.44l9.808-9.808c-5.725-1.806-11.826-2.773-18.139-2.773c-24.265,0-45.179,14.304-54.785,34.945
			c-0.295,0.626-0.295,1.357,0,1.994C6.175,66.495,12.041,73.918,19.275,79.713z"/>
		<path fill="black" d="M94.725,34.299L80.361,48.662c0.933,2.608,1.44,5.417,1.44,8.344c0,13.702-11.106,24.796-24.795,24.796
			c-2.927,0-5.736-0.508-8.345-1.439l-9.807,9.808c5.724,1.806,11.825,2.773,18.14,2.773c24.264,0,45.177-14.304,54.784-34.946
			c0.295-0.625,0.295-1.357,0-1.994C107.825,47.518,101.959,40.094,94.725,34.299z"/>
		<path fill="black" d="M57.006,72.88c8.768,0,15.873-7.105,15.873-15.874c0-0.271-0.012-0.555-0.023-0.826L56.18,72.856
			C56.452,72.868,56.723,72.88,57.006,72.88z"/>
		<path fill="black" d="M57.006,41.145c-8.77,0-15.874,7.104-15.874,15.873c0,0.271,0.012,0.555,0.023,0.826l16.676-16.676
			C57.549,41.145,57.278,41.145,57.006,41.145z"/>
		<path fill="black" d="M23.111,82.546l-7.459,7.459c-2.302,2.301-2.302,6.042,0,8.344c1.156,1.156,2.667,1.723,4.178,1.723
			s3.021-0.578,4.178-1.723l9.961-9.961l10.174-10.174l6.621-6.62l20.841-20.843l6.621-6.621L90.9,31.455l7.459-7.459
			c2.302-2.302,2.302-6.043,0-8.345c-1.156-1.156-2.667-1.723-4.178-1.723s-3.021,0.578-4.178,1.723l-9.961,9.961L69.87,35.786
			l-6.621,6.621L42.407,63.249l-6.621,6.621L23.111,82.546z"/>
	</g>
</g>
</svg>
