<?xml version="1.0" encoding="utf-8"?>
<!-- Generator: Adobe Illustrator 16.0.0, SVG Export Plug-In . SVG Version: 6.00 Build 0)  -->
<!DOCTYPE svg PUBLIC "-//W3C//DTD SVG 1.1//EN" "http://www.w3.org/Graphics/SVG/1.1/DTD/svg11.dtd">
<svg version="1.1" id="Calque_1" xmlns="http://www.w3.org/2000/svg" xmlns:xlink="http://www.w3.org/1999/xlink" x="0px" y="0px"
	 width="114px" height="114px" viewBox="0 0 114 114" xml:space="preserve">
<g id="normal">
	<g>
		<path fill="#2D2D2D" d="M86.43,110.891c-12.172,0-22.074-9.9-22.074-22.07c0-12.171,9.902-22.072,22.074-22.072
			c12.17,0,22.071,9.901,22.071,22.072C108.501,100.99,98.6,110.891,86.43,110.891z"/>
		<path fill="#2D2D2D" d="M27.27,65.286L2.222,40.788l34.676-5.11L52.474,4.311l15.572,31.367l34.678,5.11l-25.049,24.5l1.475,8.706
			l-2.156,1.547c-3.617,2.597-6.079,6.6-6.754,10.983l-0.903,5.875l-16.863-8.812L21.418,99.814L27.27,65.286z"/>
	</g>
	<path fill="#FFFFFF" d="M74.514,72.086c-4.466,3.205-7.604,8.118-8.477,13.791l-13.564-7.088L27.042,92.078l4.792-28.275
		L11.325,43.744l28.392-4.184l12.756-25.688L65.227,39.56l28.394,4.184L73.111,63.803L74.514,72.086L74.514,72.086z"/>
	<polygon fill="#FFFFFF" points="84.863,98.148 84.863,79.99 88.495,79.99 88.495,98.148 	"/>
	<polygon fill="#FFFFFF" points="77.6,90.887 77.6,87.254 95.76,87.254 95.76,90.887 	"/>
	<g>
		<g>
			<path fill="#FFFFFF" d="M86.68,71.25c-9.844,0-17.822,7.979-17.822,17.82c0,9.841,7.979,17.818,17.822,17.818
				c9.844,0,17.819-7.979,17.819-17.818C104.499,79.229,96.521,71.25,86.68,71.25z M86.68,103.593
				c-8.022,0-14.525-6.5-14.525-14.522c0-8.021,6.503-14.522,14.525-14.522c8.023,0,14.523,6.501,14.523,14.522
				C101.203,97.093,94.703,103.593,86.68,103.593z"/>
		</g>
	</g>
</g>
</svg>
