<?xml version="1.0" encoding="utf-8"?>
<!-- Generator: Adobe Illustrator 16.0.0, SVG Export Plug-In . SVG Version: 6.00 Build 0)  -->
<!DOCTYPE svg PUBLIC "-//W3C//DTD SVG 1.1//EN" "http://www.w3.org/Graphics/SVG/1.1/DTD/svg11.dtd">
<svg version="1.1" id="Calque_1" xmlns="http://www.w3.org/2000/svg" xmlns:xlink="http://www.w3.org/1999/xlink" x="0px" y="0px"
	 width="114px" height="114px" viewBox="0 0 114 114" xml:space="preserve">
<g id="normal">
	<g>
		<path fill="#FFFFFF" d="M86.43,110.891c-12.172,0-22.074-9.9-22.074-22.07c0-12.171,9.902-22.072,22.074-22.072
			c12.17,0,22.071,9.901,22.071,22.072C108.501,100.99,98.6,110.891,86.43,110.891z"/>
		<path fill="#FFFFFF" d="M27.27,65.286L2.222,40.788l34.676-5.11L52.474,4.311l15.572,31.367l34.678,5.11l-25.049,24.5l1.475,8.706
			l-2.156,1.547c-3.617,2.597-6.079,6.6-6.754,10.983l-0.903,5.875l-16.863-8.812L21.418,99.814L27.27,65.286z"/>
	</g>
	<path fill="#2d2d2d" d="M74.514,72.086c-4.466,3.205-7.604,8.118-8.477,13.791l-13.564-7.088L27.042,92.078l4.792-28.275
		L11.325,43.744l28.392-4.184l12.756-25.688L65.227,39.56l28.396,4.184L73.111,63.803L74.514,72.086L74.514,72.086z"/>
	<path fill="#2d2d2d" d="M100.158,76.402c-7.111-7.114-18.645-7.114-25.758,0c-7.113,7.113-7.113,18.645,0,25.758
		c7.113,7.115,18.646,7.115,25.758,0C107.273,95.049,107.273,83.516,100.158,76.402z M97.982,99.982
		c-0.396,0.396-0.922,0.611-1.481,0.611c-0.562,0-1.089-0.217-1.483-0.611l-7.738-7.736l-7.734,7.736
		c-0.791,0.791-2.172,0.791-2.965,0c-0.816-0.816-0.816-2.146,0-2.963l7.734-7.738l-7.738-7.741c-0.817-0.815-0.817-2.146,0-2.965
		c0.791-0.792,2.171-0.792,2.965-0.001l7.743,7.742l7.733-7.736c0.791-0.792,2.174-0.792,2.967-0.002
		c0.816,0.816,0.816,2.148,0,2.965l-7.734,7.738l7.732,7.738c0.396,0.395,0.615,0.922,0.615,1.481
		C98.596,99.063,98.379,99.588,97.982,99.982z"/>
</g>
</svg>
