<?xml version="1.0" encoding="utf-8"?>
<!-- Generator: Adobe Illustrator 16.0.2, SVG Export Plug-In . SVG Version: 6.00 Build 0)  -->
<!DOCTYPE svg PUBLIC "-//W3C//DTD SVG 1.1//EN" "http://www.w3.org/Graphics/SVG/1.1/DTD/svg11.dtd">
<svg version="1.1" id="Слой_1" xmlns="http://www.w3.org/2000/svg" xmlns:xlink="http://www.w3.org/1999/xlink" x="0px" y="0px"
	 width="96.986px" height="97.02px" viewBox="0 0 96.986 97.02" enable-background="new 0 0 96.986 97.02" xml:space="preserve">
<g id="Слой_1_1_">
	<path opacity="0.4" fill="none" stroke="#898989" stroke-width="2" stroke-miterlimit="10" enable-background="new    " d="
		M95.844,49.839c0.01,26.229-21.245,47.5-47.479,47.51c-26.229,0.01-47.5-21.245-47.511-47.475c0-0.018,0-0.023,0-0.035
		C0.845,23.61,22.1,2.339,48.331,2.329c26.229-0.016,47.5,21.242,47.515,47.475C95.844,49.815,95.844,49.827,95.844,49.839z"/>
	
		<radialGradient id="SVGID_1_" cx="-700.3723" cy="-1493.6902" r="27.3569" gradientTransform="matrix(1.7364 0 0 -1.7364 1264.4758 -2543.8059)" gradientUnits="userSpaceOnUse">
		<stop  offset="0" style="stop-color:#ff0000"/>
		<stop  offset="0.3764" style="stop-color:#e50000"/>
		<stop  offset="1" style="stop-color:#bd1429"/>
	</radialGradient>
	<path fill="url(#SVGID_1_)" d="M95.844,49.839c0.01,26.229-21.245,47.5-47.479,47.51c-26.229,0.01-47.5-21.245-47.511-47.475
		c0-0.018,0-0.023,0-0.035C0.845,23.61,22.1,2.339,48.331,2.329c26.229-0.016,47.5,21.242,47.515,47.475
		C95.844,49.815,95.844,49.827,95.844,49.839z"/>
	
		<radialGradient id="SVGID_2_" cx="-708.8093" cy="-1495.698" r="42.1094" fx="-706.6501" fy="-1481.6621" gradientTransform="matrix(1.7363 -0.0103 -0.0103 -1.7363 1262.6646 -2558.2671)" gradientUnits="userSpaceOnUse">
		<stop  offset="0" style="stop-color:#000000;stop-opacity:0"/>
		<stop  offset="0.3854" style="stop-color:#ff0000;stop-opacity:0"/>
		<stop  offset="1" style="stop-color:#bd1429;stop-opacity:0.8"/>
	</radialGradient>
	<path fill="url(#SVGID_2_)" d="M96.124,49.486c0.164,26.229-20.965,47.625-47.188,47.79C22.702,97.441,1.306,76.312,1.141,50.083
		c0.001-0.014,0-0.023,0-0.035C0.975,23.819,22.104,2.423,48.332,2.258C74.56,2.093,95.958,23.221,96.123,49.451
		C96.122,49.462,96.123,49.473,96.124,49.486z"/>
</g>
<linearGradient id="path5492_1_" gradientUnits="userSpaceOnUse" x1="-1760.9788" y1="432.6516" x2="-1760.6387" y2="431.9226" gradientTransform="matrix(142.796 0 0 -66.6088 251485.1563 28832.4688)">
	<stop  offset="0" style="stop-color:#FFFFFF"/>
	<stop  offset="0.6285" style="stop-color:#FFFFFF;stop-opacity:0"/>
</linearGradient>
<path id="path5492" opacity="0.8" fill="url(#path5492_1_)" enable-background="new    " d="M91.318,42.302
	c0,21.366-10.695-14.363-44.188-6.085C23.903,41.956,5.385,63.668,5.385,42.302S24.635,3.596,48.351,3.596
	C72.069,3.596,91.318,20.936,91.318,42.302z"/>
<path id="dp_path011" fill="#FFFFFF" stroke="#555555" stroke-width="2" d="M57.109,32.477H25.602l2.077-13.889h45.284l-0.104,9.479
	c-5.549,6.167-9.792,13.389-12.736,21.681c-2.674,7.611-4.014,15.417-4.014,23.424c0,0.451,0,0.917,0,1.41l0.083,4.006H36.859
	l0.402-5.174c1.063-13.284,5.848-24.818,14.354-34.603L57.109,32.477z"/>
</svg>
