<?xml version="1.0" encoding="utf-8"?>
<!-- Generator: Adobe Illustrator 16.0.2, SVG Export Plug-In . SVG Version: 6.00 Build 0)  -->
<!DOCTYPE svg PUBLIC "-//W3C//DTD SVG 1.1//EN" "http://www.w3.org/Graphics/SVG/1.1/DTD/svg11.dtd">
<svg version="1.1" id="Layer_1" xmlns="http://www.w3.org/2000/svg" xmlns:xlink="http://www.w3.org/1999/xlink" x="0px" y="0px"
	 width="120px" height="120px" viewBox="0 0 120 120" enable-background="new 0 0 120 120" xml:space="preserve">
<g id="black_white">
	<path fill="#FFFFFF" d="M37.44,68.893l-0.3-51.245l55.506,24.313L37.44,68.893L37.44,68.893z M27.354,101.203V16.975h6.588v84.228
		H27.354L27.354,101.203z M69.232,90.396l-17.027,12.627v-6.313H41.873V84.083h10.332V77.77L69.232,90.396L69.232,90.396z"/>
</g>
<g id="blue">
	
		<radialGradient id="SVGID_1_" cx="267.3525" cy="-2463.7383" r="11.9295" gradientTransform="matrix(1.3753 0 0 -0.1457 -273.2091 -266.0768)" gradientUnits="userSpaceOnUse">
		<stop  offset="0" style="stop-color:#000000;stop-opacity:0.42"/>
		<stop  offset="0.3095" style="stop-color:#020202;stop-opacity:0.29"/>
		<stop  offset="0.462" style="stop-color:#0A0A0A;stop-opacity:0.226"/>
		<stop  offset="0.5803" style="stop-color:#171717;stop-opacity:0.1763"/>
		<stop  offset="0.6808" style="stop-color:#2A2A2A;stop-opacity:0.1341"/>
		<stop  offset="0.7701" style="stop-color:#424242;stop-opacity:0.0965"/>
		<stop  offset="0.8516" style="stop-color:#606060;stop-opacity:0.0623"/>
		<stop  offset="0.9258" style="stop-color:#838383;stop-opacity:0.0312"/>
		<stop  offset="0.9946" style="stop-color:#ABABAB;stop-opacity:0.0022"/>
		<stop  offset="1" style="stop-color:#AEAEAE;stop-opacity:0"/>
	</radialGradient>
	<path fill="url(#SVGID_1_)" fill-opacity="0.5" d="M94.479,89.7c-12.713,0-23.02,1.429-23.02,3.188s10.307,3.189,23.02,3.189
		c12.715,0,23.021-1.43,23.021-3.189S107.193,89.7,94.479,89.7L94.479,89.7z"/>
	
		<radialGradient id="SVGID_2_" cx="321.6006" cy="-1222.4912" r="4.8708" gradientTransform="matrix(1 0 0 -0.29 -237.5996 -261.6329)" gradientUnits="userSpaceOnUse">
		<stop  offset="0.6962" style="stop-color:#000000;stop-opacity:0.14"/>
		<stop  offset="0.8155" style="stop-color:#424242;stop-opacity:0.085"/>
		<stop  offset="1" style="stop-color:#AEAEAE;stop-opacity:0"/>
	</radialGradient>
	<path fill="url(#SVGID_2_)" d="M83.999,90.7c-3.606,0-6.531,0.979-6.531,2.188s2.925,2.189,6.531,2.189
		c3.608,0,6.533-0.98,6.533-2.189S87.607,90.7,83.999,90.7L83.999,90.7z"/>
	
		<linearGradient id="SVGID_3_" gradientUnits="userSpaceOnUse" x1="248.3926" y1="-326.4731" x2="299.0723" y2="-326.4731" gradientTransform="matrix(1 0 0 -1 -237.5996 -239.9004)">
		<stop  offset="0.1654" style="stop-color:#000000;stop-opacity:0.6"/>
		<stop  offset="0.7805" style="stop-color:#000000;stop-opacity:0"/>
	</linearGradient>
	<path fill="url(#SVGID_3_)" d="M61.188,88.186c-0.146,0.965-0.082,1.391-0.274,1.547c-0.022,0.021-0.05,0.033-0.078,0.041
		c-0.015,0.002-0.028,0.004-0.045,0.006c-0.015,0-0.03-0.002-0.048-0.004c-0.064-0.01-0.145-0.045-0.237-0.104
		c-0.185-0.12-0.426,0.091-0.879,0.035c-20.24-1.562-33.887-1.999-46.945-2.13c-0.953,0.131-1.542-0.666-1.792-1.702
		c-0.063-0.261-0.096-0.508-0.096-0.737c0.001-0.229,0.035-0.438,0.109-0.619c0.074-0.182,0.188-0.334,0.346-0.447
		c0.08-0.059,0.17-0.104,0.272-0.143c0.05-0.018,0.104-0.031,0.162-0.045c0.056-0.013,0.117-0.021,0.18-0.027
		c13.755-0.685,24.264-0.969,48.531,1.336c0.371,0.259,0.623-0.06,0.791,0.182c0.086,0.122,0.147,0.242,0.192,0.367
		c0.022,0.063,0.04,0.125,0.054,0.189c0.016,0.063,0.026,0.127,0.032,0.194c0.054,0.532-0.114,1.161-0.271,2.063l0,0h-0.004V88.186z
		"/>
	
		<linearGradient id="SVGID_4_" gradientUnits="userSpaceOnUse" x1="261.7285" y1="-288.6289" x2="234.677" y2="-304.247" gradientTransform="matrix(1 0 0 -1 -237.5996 -239.9004)">
		<stop  offset="0" style="stop-color:#3B3B3B"/>
		<stop  offset="0.1001" style="stop-color:#4A4A4A"/>
		<stop  offset="0.5229" style="stop-color:#858585"/>
		<stop  offset="0.8349" style="stop-color:#AAAAAA"/>
		<stop  offset="1" style="stop-color:#B8B8B8"/>
	</linearGradient>
	<path fill="url(#SVGID_4_)" d="M13.154,87.54h-0.015c-0.013,0-0.027,0-0.038-0.002c-2.536-0.062-4.239-1.595-4.239-3.819v-0.055
		c0-0.016,0-0.03,0.001-0.046c0.091-3.964,0.179-8.192,0.179-12.464c0-11.884-0.618-25.907-5.2-39.794
		c-0.203-0.557-0.431-1.291-0.431-2.076c0-1.488,0.903-3.169,3.44-3.425c0.008-0.002,0.011-0.002,0.011-0.002s0,0-0.001,0
		c-0.003,0-0.01,0-0.01,0s0,0,0.002,0c0.001,0,0.005,0,0.009,0l0.542-0.027c2.878,0,5.282,2.199,5.766,4.282
		c1.747,6.241,2.95,12.804,3.677,20.054c0.596,5.943,0.873,12.314,0.873,20.048c0,4.574-0.1,9.229-0.2,13.604
		c-0.051,2.227-1.767,3.723-4.268,3.723L13.154,87.54"/>
	
		<linearGradient id="SVGID_5_" gradientUnits="userSpaceOnUse" x1="243.0127" y1="-296.5859" x2="253.3193" y2="-296.5859" gradientTransform="matrix(1 0 0 -1 -237.5996 -239.9004)">
		<stop  offset="0" style="stop-color:#B8B8B8"/>
		<stop  offset="0.304" style="stop-color:#B6B6B6;stop-opacity:0.8541"/>
		<stop  offset="0.4738" style="stop-color:#AEAEAE;stop-opacity:0.7726"/>
		<stop  offset="0.6106" style="stop-color:#A0A0A0;stop-opacity:0.7069"/>
		<stop  offset="0.7297" style="stop-color:#8C8C8C;stop-opacity:0.6497"/>
		<stop  offset="0.8374" style="stop-color:#737373;stop-opacity:0.598"/>
		<stop  offset="0.9354" style="stop-color:#545454;stop-opacity:0.551"/>
		<stop  offset="1" style="stop-color:#3B3B3B;stop-opacity:0.52"/>
	</linearGradient>
	<path fill="url(#SVGID_5_)" d="M7.054,27.848c2.056-0.209,3.911,1.48,4.177,2.753c4.94,17.619,4.702,35.392,4.29,53.172
		c-0.03,1.285-1.085,1.795-2.372,1.767c-1.288-0.031-2.317-0.59-2.287-1.876c0.41-17.779,0.623-35.547-5.128-52.957
		C5.287,29.49,4.997,28.058,7.054,27.848L7.054,27.848L7.054,27.848z"/>
	<path fill="#4E4E4E" d="M7.187,30.07c0,0,2.018-0.381,3.533-0.506c0.261,0.348,0.442,0.707,0.511,1.038
		c0.993,3.541,1.768,7.087,2.383,10.639C10.853,35.76,7.187,30.07,7.187,30.07L7.187,30.07z M15.646,63.754
		c0.08,3.346,0.09,6.688,0.056,10.035c-1.544-4.227-3.144-8.243-3.144-8.243L15.646,63.754L15.646,63.754z"/>
	
		<linearGradient id="SVGID_6_" gradientUnits="userSpaceOnUse" x1="245.1406" y1="-285.0811" x2="314.5449" y2="-285.0811" gradientTransform="matrix(1 0 0 -1 -237.5996 -239.9004)">
		<stop  offset="0" style="stop-color:#FFFEBF"/>
		<stop  offset="0.1137" style="stop-color:#FFFDB9"/>
		<stop  offset="0.2626" style="stop-color:#FFFCA9"/>
		<stop  offset="0.4311" style="stop-color:#FFF98E"/>
		<stop  offset="0.6139" style="stop-color:#FFF568"/>
		<stop  offset="0.807" style="stop-color:#FFF038"/>
		<stop  offset="1" style="stop-color:#FFEA00"/>
	</linearGradient>
	<path fill="url(#SVGID_6_)" d="M12.971,64.939l0.045-0.487c0-0.001,0-0.001,0-0.003v-0.004c0-0.002,0.001-0.004,0.001-0.006
		c0.2-1.123,0.436-2.334,0.686-3.614c0.91-4.667,2.04-10.474,2.04-15.632c0-3.384-0.493-6.165-1.467-8.262
		c-1.068-2.306-2.726-3.866-5.064-4.77c-0.573-0.179-0.937-0.495-1.14-0.733l0.019,0.021c-0.237-0.267-0.402-0.589-0.487-0.934
		c-0.001-0.011-0.063-0.517-0.063-0.517s0.086-0.61,0.086-0.613v-0.002c0-0.001,0.001-0.004,0.001-0.006
		c0.002-0.005,0.003-0.011,0.007-0.019c0.208-0.695,0.724-1.26,1.534-1.68L9.16,27.684c5.917-3.114,12.059-4.691,18.257-4.691
		c0.974,0,1.952,0.04,2.908,0.118H30.31c4.874,0.367,9.163,1.363,13.311,2.329c1.085,0.251,2.111,0.49,3.136,0.716
		c0.037,0.008,0.541,0.109,0.541,0.109c4.388,0.889,8.531,1.728,12.507,1.728c4.898,0,9.254-1.31,13.707-4.122
		c0.455-0.296,0.898-0.44,1.354-0.44c1.116,0,2.009,0.846,2.075,1.967c0.002,0.038,0.004,0.078,0.004,0.117v0.013
		c0,0.521-0.176,1.032-0.582,1.706c-2.338,3.838-3.426,7.334-3.426,11.009c0,2.082,0.32,4.032,0.66,6.098
		c0,0,0.137,0.838,0.139,0.854c0.021,0.093,0.344,1.715,0.344,1.715c0.514,2.545,1.001,4.951,1.001,7.388
		c0,2.591-0.571,4.878-1.749,6.992c-0.366,0.653-1.096,1.382-1.777,1.776c-0.005,0.004-0.01,0.008-0.015,0.011
		c-2.144,1.222-4.347,2.114-6.549,2.657c-1.042,0.256-2.11,0.44-3.179,0.552c-0.52,0.055-1.047,0.092-1.564,0.11l-0.76,0.02
		c-0.016,0-0.012,0-0.026,0h-0.178l-0.569-0.005c-3.161-0.065-6.197-0.818-9.133-1.548c-0.826-0.204-1.68-0.416-2.524-0.609
		c-3.065-0.695-6.073-1.033-9.191-1.033c-7.02,0-13.285,1.727-19.917,3.559l-1.767,0.486c-0.009,0.002-0.016,0.004-0.025,0.006
		c-0.245,0.064-0.492,0.097-0.729,0.097C14.051,67.365,12.971,66.299,12.971,64.939 M13.01,64.479v0.002V64.479 M7.604,30.528
		L7.604,30.528L7.604,30.528 M7.583,30.428c-0.001-0.006-0.001-0.008-0.001-0.008S7.582,30.423,7.583,30.428 M7.632,29.351
		C7.632,29.35,7.632,29.35,7.632,29.351C7.632,29.35,7.632,29.349,7.632,29.351"/>
	<path fill="#FFF300" d="M10.09,29.453c7.21-3.792,14.145-4.838,20.07-4.348c5.983,0.45,11.243,1.925,16.18,3.006
		c9.982,2.018,18.143,3.836,28.253-2.559c0.229-0.152,0.345-0.157,0.353-0.039c0.008,0.119-0.096,0.357-0.293,0.684
		c-5.034,8.265-3.789,13.722-2.889,19.322c1.043,5.429,2.434,10.098-0.18,14.796c-0.195,0.347-0.676,0.812-1.036,1.022
		c-2.071,1.183-4.075,1.972-6.034,2.453c-0.979,0.239-1.945,0.405-2.906,0.505c-0.479,0.051-0.957,0.083-1.435,0.102
		c-0.237,0.01-0.476,0.015-0.712,0.018c-0.236,0.002-0.475,0-0.712-0.005c-3.784-0.078-7.426-1.231-11.246-2.104
		c-12.163-2.762-21.84,0.291-31.849,3.028c-0.447,0.119-0.75-0.104-0.673-0.517C16.853,54.267,22.189,34.92,9.84,30.26
		c-0.119-0.032-0.202-0.079-0.25-0.135c-0.024-0.027-0.039-0.058-0.045-0.089c-0.006-0.034-0.005-0.067,0.006-0.104
		C9.595,29.788,9.778,29.615,10.09,29.453L10.09,29.453L10.09,29.453L10.09,29.453L10.09,29.453L10.09,29.453z"/>
	
		<linearGradient id="SVGID_7_" gradientUnits="userSpaceOnUse" x1="263.8799" y1="-258.1265" x2="297.577" y2="-308.0846" gradientTransform="matrix(1 0 0 -1 -237.5996 -239.9004)">
		<stop  offset="0" style="stop-color:#000000;stop-opacity:0"/>
		<stop  offset="0.4385" style="stop-color:#000000;stop-opacity:0.62"/>
		<stop  offset="0.7192" style="stop-color:#000000;stop-opacity:0.14"/>
		<stop  offset="1" style="stop-color:#000000;stop-opacity:0.62"/>
	</linearGradient>
	<path fill="url(#SVGID_7_)" fill-opacity="0.75" d="M9.663,29.453c7.21-3.792,14.145-4.838,20.07-4.348
		c5.982,0.45,11.243,1.925,16.179,3.006c9.982,2.018,18.143,3.836,28.254-2.559c0.229-0.152,0.346-0.157,0.354-0.039
		c0.008,0.118-0.096,0.357-0.293,0.684c-5.035,8.265-3.789,13.722-2.891,19.322c1.044,5.429,2.438,10.098-0.178,14.796
		c-0.197,0.347-0.678,0.812-1.038,1.022c-2.072,1.183-4.074,1.972-6.032,2.453c-0.979,0.239-1.947,0.405-2.906,0.505
		c-0.479,0.051-0.957,0.083-1.435,0.102c-0.238,0.01-0.476,0.015-0.712,0.018c-0.239,0.002-0.477,0-0.711-0.005
		c-3.785-0.078-7.427-1.231-11.246-2.104c-12.164-2.762-21.842,0.291-31.85,3.028c-0.447,0.119-0.75-0.104-0.674-0.517
		c1.87-10.549,7.206-29.896-5.141-34.556c-0.119-0.032-0.202-0.079-0.25-0.135c-0.024-0.027-0.04-0.058-0.046-0.089
		c-0.006-0.034-0.003-0.067,0.006-0.104C9.167,29.788,9.349,29.615,9.663,29.453L9.663,29.453L9.663,29.453L9.663,29.453
		L9.663,29.453L9.663,29.453z"/>
	<path fill="#70B7E0" d="M81.609,93.029c-0.692-0.332-1.133-1.032-1.133-1.801c0,0,0-6.121,0-8.771c-2.681,0-9.018,0-9.018,0
		c-1.104,0-2-0.896-2-2.001V64.462c0-1.104,0.896-2,2-2c0,0,6.337,0,9.018,0c0-2.619,0-8.48,0-8.48c0-0.758,0.428-1.45,1.104-1.789
		c0.282-0.141,0.589-0.211,0.896-0.211c0.424,0,0.846,0.135,1.197,0.399l24.07,18.02c0.497,0.373,0.793,0.951,0.803,1.57
		c0,0.01,0,0.021,0,0.029c0,0.609-0.277,1.186-0.753,1.564L83.725,92.791c-0.363,0.289-0.804,0.438-1.248,0.438
		C82.184,93.229,81.887,93.163,81.609,93.029"/>
	<g>
		
			<linearGradient id="SVGID_8_" gradientUnits="userSpaceOnUse" x1="326.6045" y1="-331.1284" x2="326.6045" y2="-293.8823" gradientTransform="matrix(1 0 0 -1 -237.5996 -239.9004)">
			<stop  offset="0" style="stop-color:#48A2FB"/>
			<stop  offset="0.1758" style="stop-color:#059CF4"/>
			<stop  offset="0.4969" style="stop-color:#0398EF"/>
			<stop  offset="0.782" style="stop-color:#0293E7"/>
			<stop  offset="1" style="stop-color:#0189D8"/>
		</linearGradient>
		<polygon fill="url(#SVGID_8_)" points="82.477,91.229 106.548,72.002 82.477,53.982 82.477,64.462 71.46,64.462 71.46,80.456 
			82.477,80.456 		"/>
	</g>
	
		<linearGradient id="SVGID_9_" gradientUnits="userSpaceOnUse" x1="325.9707" y1="-312.9409" x2="325.9707" y2="-296.8774" gradientTransform="matrix(1 0 0 -1 -237.5996 -239.9004)">
		<stop  offset="0" style="stop-color:#FFFFFF;stop-opacity:0"/>
		<stop  offset="1" style="stop-color:#FFFFFF;stop-opacity:0.8"/>
	</linearGradient>
	<path fill="url(#SVGID_9_)" d="M73.46,72.912c0-1.999,0-5.27,0-7.449c2.681,0,9.017,0,9.017,0c1.105,0,2.002-0.896,2.002-2
		c0,0,0-3.426,0-6.486c4.332,3.243,15.844,11.864,18.801,14.078c-0.229,0.184-0.323,0.258-0.492,0.395
		c-3.916-0.711-7.367-1.068-10.27-1.068c-2.785,0-4.98,0.325-6.713,0.994c-2.904,1.121-5.988,1.666-9.428,1.666
		C75.434,73.04,74.458,72.997,73.46,72.912"/>
</g>
<g id="green">
	
		<radialGradient id="SVGID_10_" cx="267.3525" cy="-2463.7383" r="11.9295" gradientTransform="matrix(1.3753 0 0 -0.1457 -273.2091 -266.0768)" gradientUnits="userSpaceOnUse">
		<stop  offset="0" style="stop-color:#000000;stop-opacity:0.42"/>
		<stop  offset="0.3095" style="stop-color:#020202;stop-opacity:0.29"/>
		<stop  offset="0.462" style="stop-color:#0A0A0A;stop-opacity:0.226"/>
		<stop  offset="0.5803" style="stop-color:#171717;stop-opacity:0.1763"/>
		<stop  offset="0.6808" style="stop-color:#2A2A2A;stop-opacity:0.1341"/>
		<stop  offset="0.7701" style="stop-color:#424242;stop-opacity:0.0965"/>
		<stop  offset="0.8516" style="stop-color:#606060;stop-opacity:0.0623"/>
		<stop  offset="0.9258" style="stop-color:#838383;stop-opacity:0.0312"/>
		<stop  offset="0.9946" style="stop-color:#ABABAB;stop-opacity:0.0022"/>
		<stop  offset="1" style="stop-color:#AEAEAE;stop-opacity:0"/>
	</radialGradient>
	<path fill="url(#SVGID_10_)" fill-opacity="0.5" d="M94.479,89.7c-12.713,0-23.02,1.429-23.02,3.188s10.307,3.189,23.02,3.189
		c12.715,0,23.021-1.43,23.021-3.189S107.193,89.7,94.479,89.7L94.479,89.7z"/>
	
		<radialGradient id="SVGID_11_" cx="321.6006" cy="-1222.4912" r="4.8708" gradientTransform="matrix(1 0 0 -0.29 -237.5996 -261.6329)" gradientUnits="userSpaceOnUse">
		<stop  offset="0.6962" style="stop-color:#000000;stop-opacity:0.14"/>
		<stop  offset="0.8155" style="stop-color:#424242;stop-opacity:0.085"/>
		<stop  offset="1" style="stop-color:#AEAEAE;stop-opacity:0"/>
	</radialGradient>
	<path fill="url(#SVGID_11_)" d="M83.999,90.7c-3.606,0-6.531,0.979-6.531,2.188s2.925,2.189,6.531,2.189
		c3.608,0,6.533-0.98,6.533-2.189S87.607,90.7,83.999,90.7L83.999,90.7z"/>
	
		<linearGradient id="SVGID_12_" gradientUnits="userSpaceOnUse" x1="248.3926" y1="-326.4731" x2="299.0723" y2="-326.4731" gradientTransform="matrix(1 0 0 -1 -237.5996 -239.9004)">
		<stop  offset="0.1654" style="stop-color:#000000;stop-opacity:0.6"/>
		<stop  offset="0.7805" style="stop-color:#000000;stop-opacity:0"/>
	</linearGradient>
	<path fill="url(#SVGID_12_)" d="M61.188,88.186c-0.146,0.965-0.082,1.391-0.274,1.547c-0.022,0.021-0.05,0.033-0.078,0.041
		c-0.015,0.002-0.028,0.004-0.045,0.006c-0.015,0-0.03-0.002-0.048-0.004c-0.064-0.01-0.145-0.045-0.237-0.104
		c-0.185-0.12-0.426,0.091-0.879,0.035c-20.24-1.562-33.887-1.999-46.945-2.13c-0.953,0.131-1.542-0.666-1.792-1.702
		c-0.063-0.261-0.096-0.508-0.096-0.737c0.001-0.229,0.035-0.438,0.109-0.619c0.074-0.182,0.188-0.334,0.346-0.447
		c0.08-0.059,0.17-0.104,0.272-0.143c0.05-0.018,0.104-0.031,0.162-0.045c0.056-0.013,0.117-0.021,0.18-0.027
		c13.755-0.685,24.264-0.969,48.531,1.336c0.371,0.259,0.623-0.06,0.791,0.182c0.086,0.122,0.147,0.242,0.192,0.367
		c0.022,0.063,0.04,0.125,0.054,0.189c0.016,0.063,0.026,0.127,0.032,0.194c0.054,0.532-0.114,1.161-0.271,2.063l0,0h-0.004V88.186z
		"/>
	
		<linearGradient id="SVGID_13_" gradientUnits="userSpaceOnUse" x1="261.7285" y1="-288.6289" x2="234.677" y2="-304.247" gradientTransform="matrix(1 0 0 -1 -237.5996 -239.9004)">
		<stop  offset="0" style="stop-color:#3B3B3B"/>
		<stop  offset="0.1001" style="stop-color:#4A4A4A"/>
		<stop  offset="0.5229" style="stop-color:#858585"/>
		<stop  offset="0.8349" style="stop-color:#AAAAAA"/>
		<stop  offset="1" style="stop-color:#B8B8B8"/>
	</linearGradient>
	<path fill="url(#SVGID_13_)" d="M13.154,87.54h-0.015c-0.013,0-0.027,0-0.038-0.002c-2.536-0.062-4.239-1.595-4.239-3.819v-0.055
		c0-0.016,0-0.03,0.001-0.046c0.091-3.964,0.179-8.192,0.179-12.464c0-11.884-0.618-25.907-5.2-39.794
		c-0.203-0.557-0.431-1.291-0.431-2.076c0-1.488,0.903-3.169,3.44-3.425c0.008-0.002,0.011-0.002,0.011-0.002s0,0-0.001,0
		c-0.003,0-0.01,0-0.01,0s0,0,0.002,0c0.001,0,0.005,0,0.009,0l0.542-0.027c2.878,0,5.282,2.199,5.766,4.282
		c1.747,6.241,2.95,12.804,3.677,20.054c0.596,5.943,0.873,12.314,0.873,20.048c0,4.574-0.1,9.229-0.2,13.604
		c-0.051,2.227-1.767,3.723-4.268,3.723L13.154,87.54"/>
	
		<linearGradient id="SVGID_14_" gradientUnits="userSpaceOnUse" x1="243.0127" y1="-296.5859" x2="253.3193" y2="-296.5859" gradientTransform="matrix(1 0 0 -1 -237.5996 -239.9004)">
		<stop  offset="0" style="stop-color:#B8B8B8"/>
		<stop  offset="0.304" style="stop-color:#B6B6B6;stop-opacity:0.8541"/>
		<stop  offset="0.4738" style="stop-color:#AEAEAE;stop-opacity:0.7726"/>
		<stop  offset="0.6106" style="stop-color:#A0A0A0;stop-opacity:0.7069"/>
		<stop  offset="0.7297" style="stop-color:#8C8C8C;stop-opacity:0.6497"/>
		<stop  offset="0.8374" style="stop-color:#737373;stop-opacity:0.598"/>
		<stop  offset="0.9354" style="stop-color:#545454;stop-opacity:0.551"/>
		<stop  offset="1" style="stop-color:#3B3B3B;stop-opacity:0.52"/>
	</linearGradient>
	<path fill="url(#SVGID_14_)" d="M7.054,27.848c2.056-0.209,3.911,1.48,4.177,2.753c4.94,17.619,4.702,35.392,4.29,53.172
		c-0.03,1.285-1.085,1.795-2.372,1.767c-1.288-0.031-2.317-0.59-2.287-1.876c0.41-17.779,0.623-35.547-5.128-52.957
		C5.287,29.49,4.997,28.058,7.054,27.848L7.054,27.848L7.054,27.848z"/>
	<path fill="#4E4E4E" d="M7.187,30.07c0,0,2.018-0.381,3.533-0.506c0.261,0.348,0.442,0.707,0.511,1.038
		c0.993,3.541,1.768,7.087,2.383,10.639C10.853,35.76,7.187,30.07,7.187,30.07L7.187,30.07z M15.646,63.754
		c0.08,3.346,0.09,6.688,0.056,10.035c-1.544-4.227-3.144-8.243-3.144-8.243L15.646,63.754L15.646,63.754z"/>
	
		<linearGradient id="SVGID_15_" gradientUnits="userSpaceOnUse" x1="245.1406" y1="-285.0811" x2="314.5449" y2="-285.0811" gradientTransform="matrix(1 0 0 -1 -237.5996 -239.9004)">
		<stop  offset="0" style="stop-color:#FFFEBF"/>
		<stop  offset="0.1137" style="stop-color:#FFFDB9"/>
		<stop  offset="0.2626" style="stop-color:#FFFCA9"/>
		<stop  offset="0.4311" style="stop-color:#FFF98E"/>
		<stop  offset="0.6139" style="stop-color:#FFF568"/>
		<stop  offset="0.807" style="stop-color:#FFF038"/>
		<stop  offset="1" style="stop-color:#FFEA00"/>
	</linearGradient>
	<path fill="url(#SVGID_15_)" d="M12.971,64.939l0.045-0.487c0-0.001,0-0.001,0-0.003v-0.004c0-0.002,0.001-0.004,0.001-0.006
		c0.2-1.123,0.436-2.334,0.686-3.614c0.91-4.667,2.04-10.474,2.04-15.632c0-3.384-0.493-6.165-1.467-8.262
		c-1.068-2.306-2.726-3.866-5.064-4.77c-0.573-0.179-0.937-0.495-1.14-0.733l0.019,0.021c-0.237-0.267-0.402-0.589-0.487-0.934
		c-0.001-0.011-0.063-0.517-0.063-0.517s0.086-0.61,0.086-0.613v-0.002c0-0.001,0.001-0.004,0.001-0.006
		c0.002-0.005,0.003-0.011,0.007-0.019c0.208-0.695,0.724-1.26,1.534-1.68L9.16,27.684c5.917-3.114,12.059-4.691,18.257-4.691
		c0.974,0,1.952,0.04,2.908,0.118H30.31c4.874,0.367,9.163,1.363,13.311,2.329c1.085,0.251,2.111,0.49,3.136,0.716
		c0.037,0.008,0.541,0.109,0.541,0.109c4.388,0.889,8.531,1.728,12.507,1.728c4.898,0,9.254-1.31,13.707-4.122
		c0.455-0.296,0.898-0.44,1.354-0.44c1.116,0,2.009,0.846,2.075,1.967c0.002,0.038,0.004,0.078,0.004,0.117v0.013
		c0,0.521-0.176,1.032-0.582,1.706c-2.338,3.838-3.426,7.334-3.426,11.009c0,2.082,0.32,4.032,0.66,6.098
		c0,0,0.137,0.838,0.139,0.854c0.021,0.093,0.344,1.715,0.344,1.715c0.514,2.545,1.001,4.951,1.001,7.388
		c0,2.591-0.571,4.878-1.749,6.992c-0.366,0.653-1.096,1.382-1.777,1.776c-0.005,0.004-0.01,0.008-0.015,0.011
		c-2.144,1.222-4.347,2.114-6.549,2.657c-1.042,0.256-2.11,0.44-3.179,0.552c-0.52,0.055-1.047,0.092-1.564,0.11l-0.76,0.02
		c-0.016,0-0.012,0-0.026,0h-0.178l-0.569-0.005c-3.161-0.065-6.197-0.818-9.133-1.548c-0.826-0.204-1.68-0.416-2.524-0.609
		c-3.065-0.695-6.073-1.033-9.191-1.033c-7.02,0-13.285,1.727-19.917,3.559l-1.767,0.486c-0.009,0.002-0.016,0.004-0.025,0.006
		c-0.245,0.064-0.492,0.097-0.729,0.097C14.051,67.365,12.971,66.299,12.971,64.939 M13.01,64.479v0.002V64.479 M7.604,30.528
		L7.604,30.528L7.604,30.528 M7.583,30.428c-0.001-0.006-0.001-0.008-0.001-0.008S7.582,30.423,7.583,30.428 M7.632,29.351
		C7.632,29.35,7.632,29.35,7.632,29.351C7.632,29.35,7.632,29.349,7.632,29.351"/>
	<path fill="#FFF300" d="M10.09,29.453c7.21-3.792,14.145-4.838,20.07-4.348c5.983,0.45,11.243,1.925,16.18,3.006
		c9.982,2.018,18.143,3.836,28.253-2.559c0.229-0.152,0.345-0.157,0.353-0.039c0.008,0.119-0.096,0.357-0.293,0.684
		c-5.034,8.265-3.789,13.722-2.889,19.322c1.043,5.429,2.434,10.098-0.18,14.796c-0.195,0.347-0.676,0.812-1.036,1.022
		c-2.071,1.183-4.075,1.972-6.034,2.453c-0.979,0.239-1.945,0.405-2.906,0.505c-0.479,0.051-0.957,0.083-1.435,0.102
		c-0.237,0.01-0.476,0.015-0.712,0.018c-0.236,0.002-0.475,0-0.712-0.005c-3.784-0.078-7.426-1.231-11.246-2.104
		c-12.163-2.762-21.84,0.291-31.849,3.028c-0.447,0.119-0.75-0.104-0.673-0.517C16.853,54.267,22.189,34.92,9.84,30.26
		c-0.119-0.032-0.202-0.079-0.25-0.135c-0.024-0.027-0.039-0.058-0.045-0.089c-0.006-0.034-0.005-0.067,0.006-0.104
		C9.595,29.788,9.778,29.615,10.09,29.453L10.09,29.453L10.09,29.453L10.09,29.453L10.09,29.453L10.09,29.453z"/>
	
		<linearGradient id="SVGID_16_" gradientUnits="userSpaceOnUse" x1="263.8799" y1="-258.1265" x2="297.577" y2="-308.0846" gradientTransform="matrix(1 0 0 -1 -237.5996 -239.9004)">
		<stop  offset="0" style="stop-color:#000000;stop-opacity:0"/>
		<stop  offset="0.4385" style="stop-color:#000000;stop-opacity:0.62"/>
		<stop  offset="0.7192" style="stop-color:#000000;stop-opacity:0.14"/>
		<stop  offset="1" style="stop-color:#000000;stop-opacity:0.62"/>
	</linearGradient>
	<path fill="url(#SVGID_16_)" fill-opacity="0.75" d="M9.663,29.453c7.21-3.792,14.145-4.838,20.07-4.348
		c5.982,0.45,11.243,1.925,16.179,3.006c9.982,2.018,18.143,3.836,28.254-2.559c0.229-0.152,0.346-0.157,0.354-0.039
		c0.008,0.118-0.096,0.357-0.293,0.684c-5.035,8.265-3.789,13.722-2.891,19.322c1.044,5.429,2.438,10.098-0.178,14.796
		c-0.197,0.347-0.678,0.812-1.038,1.022c-2.072,1.183-4.074,1.972-6.032,2.453c-0.979,0.239-1.947,0.405-2.906,0.505
		c-0.479,0.051-0.957,0.083-1.435,0.102c-0.238,0.01-0.476,0.015-0.712,0.018c-0.239,0.002-0.477,0-0.711-0.005
		c-3.785-0.078-7.427-1.231-11.246-2.104c-12.164-2.762-21.842,0.291-31.85,3.028c-0.447,0.119-0.75-0.104-0.674-0.517
		c1.87-10.549,7.206-29.896-5.141-34.556c-0.119-0.032-0.202-0.079-0.25-0.135c-0.024-0.027-0.04-0.058-0.046-0.089
		c-0.006-0.034-0.003-0.067,0.006-0.104C9.167,29.788,9.349,29.615,9.663,29.453L9.663,29.453L9.663,29.453L9.663,29.453
		L9.663,29.453L9.663,29.453z"/>
	<path fill="#03FC30" d="M81.609,93.029c-0.692-0.332-1.133-1.032-1.133-1.801c0,0,0-6.121,0-8.771c-2.681,0-9.018,0-9.018,0
		c-1.104,0-2-0.896-2-2.001V64.462c0-1.104,0.896-2,2-2c0,0,6.337,0,9.018,0c0-2.619,0-8.48,0-8.48c0-0.758,0.428-1.45,1.104-1.789
		c0.282-0.141,0.589-0.211,0.896-0.211c0.424,0,0.846,0.135,1.197,0.399l24.07,18.02c0.497,0.373,0.793,0.951,0.803,1.57
		c0,0.01,0,0.021,0,0.029c0,0.609-0.277,1.186-0.753,1.564L83.725,92.791c-0.363,0.289-0.804,0.438-1.248,0.438
		C82.184,93.229,81.887,93.163,81.609,93.029"/>
	<g>
		
			<linearGradient id="SVGID_17_" gradientUnits="userSpaceOnUse" x1="326.6045" y1="-331.1284" x2="326.6045" y2="-293.8823" gradientTransform="matrix(1 0 0 -1 -237.5996 -239.9004)">
			<stop  offset="0" style="stop-color:#00DF34"/>
			<stop  offset="0.1758" style="stop-color:#00CD26"/>
			<stop  offset="0.4969" style="stop-color:#00B211"/>
			<stop  offset="0.782" style="stop-color:#00A204"/>
			<stop  offset="1" style="stop-color:#009C00"/>
		</linearGradient>
		<polygon fill="url(#SVGID_17_)" points="82.477,91.229 106.548,72.002 82.477,53.982 82.477,64.462 71.46,64.462 71.46,80.456 
			82.477,80.456 		"/>
	</g>
	
		<linearGradient id="SVGID_18_" gradientUnits="userSpaceOnUse" x1="325.9707" y1="-312.9409" x2="325.9707" y2="-296.8774" gradientTransform="matrix(1 0 0 -1 -237.5996 -239.9004)">
		<stop  offset="0" style="stop-color:#FFFFFF;stop-opacity:0"/>
		<stop  offset="1" style="stop-color:#FFFFFF;stop-opacity:0.8"/>
	</linearGradient>
	<path fill="url(#SVGID_18_)" d="M73.46,72.912c0-1.999,0-5.27,0-7.449c2.681,0,9.017,0,9.017,0c1.105,0,2.002-0.896,2.002-2
		c0,0,0-3.426,0-6.486c4.332,3.243,15.844,11.864,18.801,14.078c-0.229,0.184-0.323,0.258-0.492,0.395
		c-3.916-0.711-7.367-1.068-10.27-1.068c-2.785,0-4.98,0.325-6.713,0.994c-2.904,1.121-5.988,1.666-9.428,1.666
		C75.434,73.04,74.458,72.997,73.46,72.912"/>
</g>
<g id="kia">
	
		<radialGradient id="SVGID_19_" cx="267.3525" cy="-2463.7383" r="11.9295" gradientTransform="matrix(1.3753 0 0 -0.1457 -273.2091 -266.0768)" gradientUnits="userSpaceOnUse">
		<stop  offset="0" style="stop-color:#000000;stop-opacity:0.42"/>
		<stop  offset="0.3095" style="stop-color:#020202;stop-opacity:0.29"/>
		<stop  offset="0.462" style="stop-color:#0A0A0A;stop-opacity:0.226"/>
		<stop  offset="0.5803" style="stop-color:#171717;stop-opacity:0.1763"/>
		<stop  offset="0.6808" style="stop-color:#2A2A2A;stop-opacity:0.1341"/>
		<stop  offset="0.7701" style="stop-color:#424242;stop-opacity:0.0965"/>
		<stop  offset="0.8516" style="stop-color:#606060;stop-opacity:0.0623"/>
		<stop  offset="0.9258" style="stop-color:#838383;stop-opacity:0.0312"/>
		<stop  offset="0.9946" style="stop-color:#ABABAB;stop-opacity:0.0022"/>
		<stop  offset="1" style="stop-color:#AEAEAE;stop-opacity:0"/>
	</radialGradient>
	<path fill="url(#SVGID_19_)" fill-opacity="0.5" d="M94.479,89.7c-12.713,0-23.02,1.429-23.02,3.188s10.307,3.189,23.02,3.189
		c12.715,0,23.021-1.43,23.021-3.189S107.193,89.7,94.479,89.7L94.479,89.7z"/>
	
		<radialGradient id="SVGID_20_" cx="321.6006" cy="-1222.4912" r="4.8708" gradientTransform="matrix(1 0 0 -0.29 -237.5996 -261.6329)" gradientUnits="userSpaceOnUse">
		<stop  offset="0.6962" style="stop-color:#000000;stop-opacity:0.14"/>
		<stop  offset="0.8155" style="stop-color:#424242;stop-opacity:0.085"/>
		<stop  offset="1" style="stop-color:#AEAEAE;stop-opacity:0"/>
	</radialGradient>
	<path fill="url(#SVGID_20_)" d="M83.999,90.7c-3.606,0-6.531,0.979-6.531,2.188s2.925,2.189,6.531,2.189
		c3.608,0,6.533-0.98,6.533-2.189S87.607,90.7,83.999,90.7L83.999,90.7z"/>
	
		<linearGradient id="SVGID_21_" gradientUnits="userSpaceOnUse" x1="248.3926" y1="-326.4731" x2="299.0723" y2="-326.4731" gradientTransform="matrix(1 0 0 -1 -237.5996 -239.9004)">
		<stop  offset="0.1654" style="stop-color:#000000;stop-opacity:0.6"/>
		<stop  offset="0.7805" style="stop-color:#000000;stop-opacity:0"/>
	</linearGradient>
	<path fill="url(#SVGID_21_)" d="M61.188,88.186c-0.146,0.965-0.082,1.391-0.274,1.547c-0.022,0.021-0.05,0.033-0.078,0.041
		c-0.015,0.002-0.028,0.004-0.045,0.006c-0.015,0-0.03-0.002-0.048-0.004c-0.064-0.01-0.145-0.045-0.237-0.104
		c-0.185-0.12-0.426,0.091-0.879,0.035c-20.24-1.562-33.887-1.999-46.945-2.13c-0.953,0.131-1.542-0.666-1.792-1.702
		c-0.063-0.261-0.096-0.508-0.096-0.737c0.001-0.229,0.035-0.438,0.109-0.619c0.074-0.182,0.188-0.334,0.346-0.447
		c0.08-0.059,0.17-0.104,0.272-0.143c0.05-0.018,0.104-0.031,0.162-0.045c0.056-0.013,0.117-0.021,0.18-0.027
		c13.755-0.685,24.264-0.969,48.531,1.336c0.371,0.259,0.623-0.06,0.791,0.182c0.086,0.122,0.147,0.242,0.192,0.367
		c0.022,0.063,0.04,0.125,0.054,0.189c0.016,0.063,0.026,0.127,0.032,0.194c0.054,0.532-0.114,1.161-0.271,2.063l0,0h-0.004V88.186z
		"/>
	
		<linearGradient id="SVGID_22_" gradientUnits="userSpaceOnUse" x1="261.7285" y1="-288.6289" x2="234.677" y2="-304.247" gradientTransform="matrix(1 0 0 -1 -237.5996 -239.9004)">
		<stop  offset="0" style="stop-color:#3B3B3B"/>
		<stop  offset="0.1001" style="stop-color:#4A4A4A"/>
		<stop  offset="0.5229" style="stop-color:#858585"/>
		<stop  offset="0.8349" style="stop-color:#AAAAAA"/>
		<stop  offset="1" style="stop-color:#B8B8B8"/>
	</linearGradient>
	<path fill="url(#SVGID_22_)" d="M13.154,87.54h-0.015c-0.013,0-0.027,0-0.038-0.002c-2.536-0.062-4.239-1.595-4.239-3.819v-0.055
		c0-0.016,0-0.03,0.001-0.046c0.091-3.964,0.179-8.192,0.179-12.464c0-11.884-0.618-25.907-5.2-39.794
		c-0.203-0.557-0.431-1.291-0.431-2.076c0-1.488,0.903-3.169,3.44-3.425c0.008-0.002,0.011-0.002,0.011-0.002s0,0-0.001,0
		c-0.003,0-0.01,0-0.01,0s0,0,0.002,0c0.001,0,0.005,0,0.009,0l0.542-0.027c2.878,0,5.282,2.199,5.766,4.282
		c1.747,6.241,2.95,12.804,3.677,20.054c0.596,5.943,0.873,12.314,0.873,20.048c0,4.574-0.1,9.229-0.2,13.604
		c-0.051,2.227-1.767,3.723-4.268,3.723L13.154,87.54"/>
	
		<linearGradient id="SVGID_23_" gradientUnits="userSpaceOnUse" x1="243.0127" y1="-296.5859" x2="253.3193" y2="-296.5859" gradientTransform="matrix(1 0 0 -1 -237.5996 -239.9004)">
		<stop  offset="0" style="stop-color:#B8B8B8"/>
		<stop  offset="0.304" style="stop-color:#B6B6B6;stop-opacity:0.8541"/>
		<stop  offset="0.4738" style="stop-color:#AEAEAE;stop-opacity:0.7726"/>
		<stop  offset="0.6106" style="stop-color:#A0A0A0;stop-opacity:0.7069"/>
		<stop  offset="0.7297" style="stop-color:#8C8C8C;stop-opacity:0.6497"/>
		<stop  offset="0.8374" style="stop-color:#737373;stop-opacity:0.598"/>
		<stop  offset="0.9354" style="stop-color:#545454;stop-opacity:0.551"/>
		<stop  offset="1" style="stop-color:#3B3B3B;stop-opacity:0.52"/>
	</linearGradient>
	<path fill="url(#SVGID_23_)" d="M7.054,27.848c2.056-0.209,3.911,1.48,4.177,2.753c4.94,17.619,4.702,35.392,4.29,53.172
		c-0.03,1.285-1.085,1.795-2.372,1.767c-1.288-0.031-2.317-0.59-2.287-1.876c0.41-17.779,0.623-35.547-5.128-52.957
		C5.287,29.49,4.997,28.058,7.054,27.848L7.054,27.848L7.054,27.848z"/>
	<path fill="#4E4E4E" d="M7.187,30.07c0,0,2.018-0.381,3.533-0.506c0.261,0.348,0.442,0.707,0.511,1.038
		c0.993,3.541,1.768,7.087,2.383,10.639C10.853,35.76,7.187,30.07,7.187,30.07L7.187,30.07z M15.646,63.754
		c0.08,3.346,0.09,6.688,0.056,10.035c-1.544-4.227-3.144-8.243-3.144-8.243L15.646,63.754L15.646,63.754z"/>
	
		<linearGradient id="SVGID_24_" gradientUnits="userSpaceOnUse" x1="245.1406" y1="-285.0811" x2="314.5449" y2="-285.0811" gradientTransform="matrix(1 0 0 -1 -237.5996 -239.9004)">
		<stop  offset="0" style="stop-color:#FFFEBF"/>
		<stop  offset="0.1137" style="stop-color:#FFFDB9"/>
		<stop  offset="0.2626" style="stop-color:#FFFCA9"/>
		<stop  offset="0.4311" style="stop-color:#FFF98E"/>
		<stop  offset="0.6139" style="stop-color:#FFF568"/>
		<stop  offset="0.807" style="stop-color:#FFF038"/>
		<stop  offset="1" style="stop-color:#FFEA00"/>
	</linearGradient>
	<path fill="url(#SVGID_24_)" d="M12.971,64.939l0.045-0.487c0-0.001,0-0.001,0-0.003v-0.004c0-0.002,0.001-0.004,0.001-0.006
		c0.2-1.123,0.436-2.334,0.686-3.614c0.91-4.667,2.04-10.474,2.04-15.632c0-3.384-0.493-6.165-1.467-8.262
		c-1.068-2.306-2.726-3.866-5.064-4.77c-0.573-0.179-0.937-0.495-1.14-0.733l0.019,0.021c-0.237-0.267-0.402-0.589-0.487-0.934
		c-0.001-0.011-0.063-0.517-0.063-0.517s0.086-0.61,0.086-0.613v-0.002c0-0.001,0.001-0.004,0.001-0.006
		c0.002-0.005,0.003-0.011,0.007-0.019c0.208-0.695,0.724-1.26,1.534-1.68L9.16,27.684c5.917-3.114,12.059-4.691,18.257-4.691
		c0.974,0,1.952,0.04,2.908,0.118H30.31c4.874,0.367,9.163,1.363,13.311,2.329c1.085,0.251,2.111,0.49,3.136,0.716
		c0.037,0.008,0.541,0.109,0.541,0.109c4.388,0.889,8.531,1.728,12.507,1.728c4.898,0,9.254-1.31,13.707-4.122
		c0.455-0.296,0.898-0.44,1.354-0.44c1.116,0,2.009,0.846,2.075,1.967c0.002,0.038,0.004,0.078,0.004,0.117v0.013
		c0,0.521-0.176,1.032-0.582,1.706c-2.338,3.838-3.426,7.334-3.426,11.009c0,2.082,0.32,4.032,0.66,6.098
		c0,0,0.137,0.838,0.139,0.854c0.021,0.093,0.344,1.715,0.344,1.715c0.514,2.545,1.001,4.951,1.001,7.388
		c0,2.591-0.571,4.878-1.749,6.992c-0.366,0.653-1.096,1.382-1.777,1.776c-0.005,0.004-0.01,0.008-0.015,0.011
		c-2.144,1.222-4.347,2.114-6.549,2.657c-1.042,0.256-2.11,0.44-3.179,0.552c-0.52,0.055-1.047,0.092-1.564,0.11l-0.76,0.02
		c-0.016,0-0.012,0-0.026,0h-0.178l-0.569-0.005c-3.161-0.065-6.197-0.818-9.133-1.548c-0.826-0.204-1.68-0.416-2.524-0.609
		c-3.065-0.695-6.073-1.033-9.191-1.033c-7.02,0-13.285,1.727-19.917,3.559l-1.767,0.486c-0.009,0.002-0.016,0.004-0.025,0.006
		c-0.245,0.064-0.492,0.097-0.729,0.097C14.051,67.365,12.971,66.299,12.971,64.939 M13.01,64.479v0.002V64.479 M7.604,30.528
		L7.604,30.528L7.604,30.528 M7.583,30.428c-0.001-0.006-0.001-0.008-0.001-0.008S7.582,30.423,7.583,30.428 M7.632,29.351
		C7.632,29.35,7.632,29.35,7.632,29.351C7.632,29.35,7.632,29.349,7.632,29.351"/>
	<path fill="#FFF300" d="M10.09,29.453c7.21-3.792,14.145-4.838,20.07-4.348c5.983,0.45,11.243,1.925,16.18,3.006
		c9.982,2.018,18.143,3.836,28.253-2.559c0.229-0.152,0.345-0.157,0.353-0.039c0.008,0.119-0.096,0.357-0.293,0.684
		c-5.034,8.265-3.789,13.722-2.889,19.322c1.043,5.429,2.434,10.098-0.18,14.796c-0.195,0.347-0.676,0.812-1.036,1.022
		c-2.071,1.183-4.075,1.972-6.034,2.453c-0.979,0.239-1.945,0.405-2.906,0.505c-0.479,0.051-0.957,0.083-1.435,0.102
		c-0.237,0.01-0.476,0.015-0.712,0.018c-0.236,0.002-0.475,0-0.712-0.005c-3.784-0.078-7.426-1.231-11.246-2.104
		c-12.163-2.762-21.84,0.291-31.849,3.028c-0.447,0.119-0.75-0.104-0.673-0.517C16.853,54.267,22.189,34.92,9.84,30.26
		c-0.119-0.032-0.202-0.079-0.25-0.135c-0.024-0.027-0.039-0.058-0.045-0.089c-0.006-0.034-0.005-0.067,0.006-0.104
		C9.595,29.788,9.778,29.615,10.09,29.453L10.09,29.453L10.09,29.453L10.09,29.453L10.09,29.453L10.09,29.453z"/>
	
		<linearGradient id="SVGID_25_" gradientUnits="userSpaceOnUse" x1="263.8799" y1="-258.1265" x2="297.577" y2="-308.0846" gradientTransform="matrix(1 0 0 -1 -237.5996 -239.9004)">
		<stop  offset="0" style="stop-color:#000000;stop-opacity:0"/>
		<stop  offset="0.4385" style="stop-color:#000000;stop-opacity:0.62"/>
		<stop  offset="0.7192" style="stop-color:#000000;stop-opacity:0.14"/>
		<stop  offset="1" style="stop-color:#000000;stop-opacity:0.62"/>
	</linearGradient>
	<path fill="url(#SVGID_25_)" fill-opacity="0.75" d="M9.663,29.453c7.21-3.792,14.145-4.838,20.07-4.348
		c5.982,0.45,11.243,1.925,16.179,3.006c9.982,2.018,18.143,3.836,28.254-2.559c0.229-0.152,0.346-0.157,0.354-0.039
		c0.008,0.118-0.096,0.357-0.293,0.684c-5.035,8.265-3.789,13.722-2.891,19.322c1.044,5.429,2.438,10.098-0.178,14.796
		c-0.197,0.347-0.678,0.812-1.038,1.022c-2.072,1.183-4.074,1.972-6.032,2.453c-0.979,0.239-1.947,0.405-2.906,0.505
		c-0.479,0.051-0.957,0.083-1.435,0.102c-0.238,0.01-0.476,0.015-0.712,0.018c-0.239,0.002-0.477,0-0.711-0.005
		c-3.785-0.078-7.427-1.231-11.246-2.104c-12.164-2.762-21.842,0.291-31.85,3.028c-0.447,0.119-0.75-0.104-0.674-0.517
		c1.87-10.549,7.206-29.896-5.141-34.556c-0.119-0.032-0.202-0.079-0.25-0.135c-0.024-0.027-0.04-0.058-0.046-0.089
		c-0.006-0.034-0.003-0.067,0.006-0.104C9.167,29.788,9.349,29.615,9.663,29.453L9.663,29.453L9.663,29.453L9.663,29.453
		L9.663,29.453L9.663,29.453z"/>
	<path fill="#9E171E" d="M81.609,93.029c-0.692-0.332-1.133-1.032-1.133-1.801c0,0,0-6.121,0-8.771c-2.681,0-9.018,0-9.018,0
		c-1.104,0-2-0.896-2-2.001V64.462c0-1.104,0.896-2,2-2c0,0,6.337,0,9.018,0c0-2.619,0-8.48,0-8.48c0-0.758,0.428-1.45,1.104-1.789
		c0.282-0.141,0.589-0.211,0.896-0.211c0.424,0,0.846,0.135,1.197,0.399l24.07,18.02c0.497,0.373,0.793,0.951,0.803,1.57
		c0,0.01,0,0.021,0,0.029c0,0.609-0.277,1.186-0.753,1.564L83.725,92.791c-0.363,0.289-0.804,0.438-1.248,0.438
		C82.184,93.229,81.887,93.163,81.609,93.029"/>
	<g>
		
			<linearGradient id="SVGID_26_" gradientUnits="userSpaceOnUse" x1="326.6045" y1="-331.1284" x2="326.6045" y2="-293.8823" gradientTransform="matrix(1 0 0 -1 -237.5996 -239.9004)">
			<stop  offset="0" style="stop-color:#FFFFFF"/>
			<stop  offset="0.1758" style="stop-color:#E7E9EA"/>
			<stop  offset="0.4969" style="stop-color:#CDD2D5"/>
			<stop  offset="0.782" style="stop-color:#C5CACC"/>
			<stop  offset="1" style="stop-color:#BABDC0"/>
		</linearGradient>
		<polygon fill="url(#SVGID_26_)" points="82.477,91.229 106.548,72.002 82.477,53.982 82.477,64.462 71.46,64.462 71.46,80.456 
			82.477,80.456 		"/>
	</g>
	
		<linearGradient id="SVGID_27_" gradientUnits="userSpaceOnUse" x1="325.9707" y1="-312.9409" x2="325.9707" y2="-296.8774" gradientTransform="matrix(1 0 0 -1 -237.5996 -239.9004)">
		<stop  offset="0" style="stop-color:#FFFFFF;stop-opacity:0"/>
		<stop  offset="1" style="stop-color:#FFFFFF;stop-opacity:0.8"/>
	</linearGradient>
	<path fill="url(#SVGID_27_)" d="M73.46,72.912c0-1.999,0-5.27,0-7.449c2.681,0,9.017,0,9.017,0c1.105,0,2.002-0.896,2.002-2
		c0,0,0-3.426,0-6.486c4.332,3.243,15.844,11.864,18.801,14.078c-0.229,0.184-0.323,0.258-0.492,0.395
		c-3.916-0.711-7.367-1.068-10.27-1.068c-2.785,0-4.98,0.325-6.713,0.994c-2.904,1.121-5.988,1.666-9.428,1.666
		C75.434,73.04,74.458,72.997,73.46,72.912"/>
</g>
<g id="orange">
	
		<radialGradient id="SVGID_28_" cx="267.3525" cy="-2463.7383" r="11.9295" gradientTransform="matrix(1.3753 0 0 -0.1457 -273.2091 -266.0768)" gradientUnits="userSpaceOnUse">
		<stop  offset="0" style="stop-color:#000000;stop-opacity:0.42"/>
		<stop  offset="0.3095" style="stop-color:#020202;stop-opacity:0.29"/>
		<stop  offset="0.462" style="stop-color:#0A0A0A;stop-opacity:0.226"/>
		<stop  offset="0.5803" style="stop-color:#171717;stop-opacity:0.1763"/>
		<stop  offset="0.6808" style="stop-color:#2A2A2A;stop-opacity:0.1341"/>
		<stop  offset="0.7701" style="stop-color:#424242;stop-opacity:0.0965"/>
		<stop  offset="0.8516" style="stop-color:#606060;stop-opacity:0.0623"/>
		<stop  offset="0.9258" style="stop-color:#838383;stop-opacity:0.0312"/>
		<stop  offset="0.9946" style="stop-color:#ABABAB;stop-opacity:0.0022"/>
		<stop  offset="1" style="stop-color:#AEAEAE;stop-opacity:0"/>
	</radialGradient>
	<path fill="url(#SVGID_28_)" fill-opacity="0.5" d="M94.479,89.7c-12.713,0-23.02,1.429-23.02,3.188s10.307,3.189,23.02,3.189
		c12.715,0,23.021-1.43,23.021-3.189S107.193,89.7,94.479,89.7L94.479,89.7z"/>
	
		<radialGradient id="SVGID_29_" cx="321.6006" cy="-1222.4912" r="4.8708" gradientTransform="matrix(1 0 0 -0.29 -237.5996 -261.6329)" gradientUnits="userSpaceOnUse">
		<stop  offset="0.6962" style="stop-color:#000000;stop-opacity:0.14"/>
		<stop  offset="0.8155" style="stop-color:#424242;stop-opacity:0.085"/>
		<stop  offset="1" style="stop-color:#AEAEAE;stop-opacity:0"/>
	</radialGradient>
	<path fill="url(#SVGID_29_)" d="M83.999,90.7c-3.606,0-6.531,0.979-6.531,2.188s2.925,2.189,6.531,2.189
		c3.608,0,6.533-0.98,6.533-2.189S87.607,90.7,83.999,90.7L83.999,90.7z"/>
	
		<linearGradient id="SVGID_30_" gradientUnits="userSpaceOnUse" x1="248.3926" y1="-326.4731" x2="299.0723" y2="-326.4731" gradientTransform="matrix(1 0 0 -1 -237.5996 -239.9004)">
		<stop  offset="0.1654" style="stop-color:#000000;stop-opacity:0.6"/>
		<stop  offset="0.7805" style="stop-color:#000000;stop-opacity:0"/>
	</linearGradient>
	<path fill="url(#SVGID_30_)" d="M61.188,88.186c-0.146,0.965-0.082,1.391-0.274,1.547c-0.022,0.021-0.05,0.033-0.078,0.041
		c-0.015,0.002-0.028,0.004-0.045,0.006c-0.015,0-0.03-0.002-0.048-0.004c-0.064-0.01-0.145-0.045-0.237-0.104
		c-0.185-0.12-0.426,0.091-0.879,0.035c-20.24-1.562-33.887-1.999-46.945-2.13c-0.953,0.131-1.542-0.666-1.792-1.702
		c-0.063-0.261-0.096-0.508-0.096-0.737c0.001-0.229,0.035-0.438,0.109-0.619c0.074-0.182,0.188-0.334,0.346-0.447
		c0.08-0.059,0.17-0.104,0.272-0.143c0.05-0.018,0.104-0.031,0.162-0.045c0.056-0.013,0.117-0.021,0.18-0.027
		c13.755-0.685,24.264-0.969,48.531,1.336c0.371,0.259,0.623-0.06,0.791,0.182c0.086,0.122,0.147,0.242,0.192,0.367
		c0.022,0.063,0.04,0.125,0.054,0.189c0.016,0.063,0.026,0.127,0.032,0.194c0.054,0.532-0.114,1.161-0.271,2.063l0,0h-0.004V88.186z
		"/>
	
		<linearGradient id="SVGID_31_" gradientUnits="userSpaceOnUse" x1="261.7285" y1="-288.6289" x2="234.677" y2="-304.247" gradientTransform="matrix(1 0 0 -1 -237.5996 -239.9004)">
		<stop  offset="0" style="stop-color:#3B3B3B"/>
		<stop  offset="0.1001" style="stop-color:#4A4A4A"/>
		<stop  offset="0.5229" style="stop-color:#858585"/>
		<stop  offset="0.8349" style="stop-color:#AAAAAA"/>
		<stop  offset="1" style="stop-color:#B8B8B8"/>
	</linearGradient>
	<path fill="url(#SVGID_31_)" d="M13.154,87.54h-0.015c-0.013,0-0.027,0-0.038-0.002c-2.536-0.062-4.239-1.595-4.239-3.819v-0.055
		c0-0.016,0-0.03,0.001-0.046c0.091-3.964,0.179-8.192,0.179-12.464c0-11.884-0.618-25.907-5.2-39.794
		c-0.203-0.557-0.431-1.291-0.431-2.076c0-1.488,0.903-3.169,3.44-3.425c0.008-0.002,0.011-0.002,0.011-0.002s0,0-0.001,0
		c-0.003,0-0.01,0-0.01,0s0,0,0.002,0c0.001,0,0.005,0,0.009,0l0.542-0.027c2.878,0,5.282,2.199,5.766,4.282
		c1.747,6.241,2.95,12.804,3.677,20.054c0.596,5.943,0.873,12.314,0.873,20.048c0,4.574-0.1,9.229-0.2,13.604
		c-0.051,2.227-1.767,3.723-4.268,3.723L13.154,87.54"/>
	
		<linearGradient id="SVGID_32_" gradientUnits="userSpaceOnUse" x1="243.0127" y1="-296.5859" x2="253.3193" y2="-296.5859" gradientTransform="matrix(1 0 0 -1 -237.5996 -239.9004)">
		<stop  offset="0" style="stop-color:#B8B8B8"/>
		<stop  offset="0.304" style="stop-color:#B6B6B6;stop-opacity:0.8541"/>
		<stop  offset="0.4738" style="stop-color:#AEAEAE;stop-opacity:0.7726"/>
		<stop  offset="0.6106" style="stop-color:#A0A0A0;stop-opacity:0.7069"/>
		<stop  offset="0.7297" style="stop-color:#8C8C8C;stop-opacity:0.6497"/>
		<stop  offset="0.8374" style="stop-color:#737373;stop-opacity:0.598"/>
		<stop  offset="0.9354" style="stop-color:#545454;stop-opacity:0.551"/>
		<stop  offset="1" style="stop-color:#3B3B3B;stop-opacity:0.52"/>
	</linearGradient>
	<path fill="url(#SVGID_32_)" d="M7.054,27.848c2.056-0.209,3.911,1.48,4.177,2.753c4.94,17.619,4.702,35.392,4.29,53.172
		c-0.03,1.285-1.085,1.795-2.372,1.767c-1.288-0.031-2.317-0.59-2.287-1.876c0.41-17.779,0.623-35.547-5.128-52.957
		C5.287,29.49,4.997,28.058,7.054,27.848L7.054,27.848L7.054,27.848z"/>
	<path fill="#4E4E4E" d="M7.187,30.07c0,0,2.018-0.381,3.533-0.506c0.261,0.348,0.442,0.707,0.511,1.038
		c0.993,3.541,1.768,7.087,2.383,10.639C10.853,35.76,7.187,30.07,7.187,30.07L7.187,30.07z M15.646,63.754
		c0.08,3.346,0.09,6.688,0.056,10.035c-1.544-4.227-3.144-8.243-3.144-8.243L15.646,63.754L15.646,63.754z"/>
	
		<linearGradient id="SVGID_33_" gradientUnits="userSpaceOnUse" x1="245.1406" y1="-285.0811" x2="314.5449" y2="-285.0811" gradientTransform="matrix(1 0 0 -1 -237.5996 -239.9004)">
		<stop  offset="0" style="stop-color:#FFFEBF"/>
		<stop  offset="0.1137" style="stop-color:#FFFDB9"/>
		<stop  offset="0.2626" style="stop-color:#FFFCA9"/>
		<stop  offset="0.4311" style="stop-color:#FFF98E"/>
		<stop  offset="0.6139" style="stop-color:#FFF568"/>
		<stop  offset="0.807" style="stop-color:#FFF038"/>
		<stop  offset="1" style="stop-color:#FFEA00"/>
	</linearGradient>
	<path fill="url(#SVGID_33_)" d="M12.971,64.939l0.045-0.487c0-0.001,0-0.001,0-0.003v-0.004c0-0.002,0.001-0.004,0.001-0.006
		c0.2-1.123,0.436-2.334,0.686-3.614c0.91-4.667,2.04-10.474,2.04-15.632c0-3.384-0.493-6.165-1.467-8.262
		c-1.068-2.306-2.726-3.866-5.064-4.77c-0.573-0.179-0.937-0.495-1.14-0.733l0.019,0.021c-0.237-0.267-0.402-0.589-0.487-0.934
		c-0.001-0.011-0.063-0.517-0.063-0.517s0.086-0.61,0.086-0.613v-0.002c0-0.001,0.001-0.004,0.001-0.006
		c0.002-0.005,0.003-0.011,0.007-0.019c0.208-0.695,0.724-1.26,1.534-1.68L9.16,27.684c5.917-3.114,12.059-4.691,18.257-4.691
		c0.974,0,1.952,0.04,2.908,0.118H30.31c4.874,0.367,9.163,1.363,13.311,2.329c1.085,0.251,2.111,0.49,3.136,0.716
		c0.037,0.008,0.541,0.109,0.541,0.109c4.388,0.889,8.531,1.728,12.507,1.728c4.898,0,9.254-1.31,13.707-4.122
		c0.455-0.296,0.898-0.44,1.354-0.44c1.116,0,2.009,0.846,2.075,1.967c0.002,0.038,0.004,0.078,0.004,0.117v0.013
		c0,0.521-0.176,1.032-0.582,1.706c-2.338,3.838-3.426,7.334-3.426,11.009c0,2.082,0.32,4.032,0.66,6.098
		c0,0,0.137,0.838,0.139,0.854c0.021,0.093,0.344,1.715,0.344,1.715c0.514,2.545,1.001,4.951,1.001,7.388
		c0,2.591-0.571,4.878-1.749,6.992c-0.366,0.653-1.096,1.382-1.777,1.776c-0.005,0.004-0.01,0.008-0.015,0.011
		c-2.144,1.222-4.347,2.114-6.549,2.657c-1.042,0.256-2.11,0.44-3.179,0.552c-0.52,0.055-1.047,0.092-1.564,0.11l-0.76,0.02
		c-0.016,0-0.012,0-0.026,0h-0.178l-0.569-0.005c-3.161-0.065-6.197-0.818-9.133-1.548c-0.826-0.204-1.68-0.416-2.524-0.609
		c-3.065-0.695-6.073-1.033-9.191-1.033c-7.02,0-13.285,1.727-19.917,3.559l-1.767,0.486c-0.009,0.002-0.016,0.004-0.025,0.006
		c-0.245,0.064-0.492,0.097-0.729,0.097C14.051,67.365,12.971,66.299,12.971,64.939 M13.01,64.479v0.002V64.479 M7.604,30.528
		L7.604,30.528L7.604,30.528 M7.583,30.428c-0.001-0.006-0.001-0.008-0.001-0.008S7.582,30.423,7.583,30.428 M7.632,29.351
		C7.632,29.35,7.632,29.35,7.632,29.351C7.632,29.35,7.632,29.349,7.632,29.351"/>
	<path fill="#FFF300" d="M10.09,29.453c7.21-3.792,14.145-4.838,20.07-4.348c5.983,0.45,11.243,1.925,16.18,3.006
		c9.982,2.018,18.143,3.836,28.253-2.559c0.229-0.152,0.345-0.157,0.353-0.039c0.008,0.119-0.096,0.357-0.293,0.684
		c-5.034,8.265-3.789,13.722-2.889,19.322c1.043,5.429,2.434,10.098-0.18,14.796c-0.195,0.347-0.676,0.812-1.036,1.022
		c-2.071,1.183-4.075,1.972-6.034,2.453c-0.979,0.239-1.945,0.405-2.906,0.505c-0.479,0.051-0.957,0.083-1.435,0.102
		c-0.237,0.01-0.476,0.015-0.712,0.018c-0.236,0.002-0.475,0-0.712-0.005c-3.784-0.078-7.426-1.231-11.246-2.104
		c-12.163-2.762-21.84,0.291-31.849,3.028c-0.447,0.119-0.75-0.104-0.673-0.517C16.853,54.267,22.189,34.92,9.84,30.26
		c-0.119-0.032-0.202-0.079-0.25-0.135c-0.024-0.027-0.039-0.058-0.045-0.089c-0.006-0.034-0.005-0.067,0.006-0.104
		C9.595,29.788,9.778,29.615,10.09,29.453L10.09,29.453L10.09,29.453L10.09,29.453L10.09,29.453L10.09,29.453z"/>
	
		<linearGradient id="SVGID_34_" gradientUnits="userSpaceOnUse" x1="263.8799" y1="-258.1265" x2="297.577" y2="-308.0846" gradientTransform="matrix(1 0 0 -1 -237.5996 -239.9004)">
		<stop  offset="0" style="stop-color:#000000;stop-opacity:0"/>
		<stop  offset="0.4385" style="stop-color:#000000;stop-opacity:0.62"/>
		<stop  offset="0.7192" style="stop-color:#000000;stop-opacity:0.14"/>
		<stop  offset="1" style="stop-color:#000000;stop-opacity:0.62"/>
	</linearGradient>
	<path fill="url(#SVGID_34_)" fill-opacity="0.75" d="M9.663,29.453c7.21-3.792,14.145-4.838,20.07-4.348
		c5.982,0.45,11.243,1.925,16.179,3.006c9.982,2.018,18.143,3.836,28.254-2.559c0.229-0.152,0.346-0.157,0.354-0.039
		c0.008,0.118-0.096,0.357-0.293,0.684c-5.035,8.265-3.789,13.722-2.891,19.322c1.044,5.429,2.438,10.098-0.178,14.796
		c-0.197,0.347-0.678,0.812-1.038,1.022c-2.072,1.183-4.074,1.972-6.032,2.453c-0.979,0.239-1.947,0.405-2.906,0.505
		c-0.479,0.051-0.957,0.083-1.435,0.102c-0.238,0.01-0.476,0.015-0.712,0.018c-0.239,0.002-0.477,0-0.711-0.005
		c-3.785-0.078-7.427-1.231-11.246-2.104c-12.164-2.762-21.842,0.291-31.85,3.028c-0.447,0.119-0.75-0.104-0.674-0.517
		c1.87-10.549,7.206-29.896-5.141-34.556c-0.119-0.032-0.202-0.079-0.25-0.135c-0.024-0.027-0.04-0.058-0.046-0.089
		c-0.006-0.034-0.003-0.067,0.006-0.104C9.167,29.788,9.349,29.615,9.663,29.453L9.663,29.453L9.663,29.453L9.663,29.453
		L9.663,29.453L9.663,29.453z"/>
	<path fill="#FFE035" d="M81.609,93.029c-0.692-0.332-1.133-1.032-1.133-1.801c0,0,0-6.121,0-8.771c-2.681,0-9.018,0-9.018,0
		c-1.104,0-2-0.896-2-2.001V64.462c0-1.104,0.896-2,2-2c0,0,6.337,0,9.018,0c0-2.619,0-8.48,0-8.48c0-0.758,0.428-1.45,1.104-1.789
		c0.282-0.141,0.589-0.211,0.896-0.211c0.424,0,0.846,0.135,1.197,0.399l24.07,18.02c0.497,0.373,0.793,0.951,0.803,1.57
		c0,0.01,0,0.021,0,0.029c0,0.609-0.277,1.186-0.753,1.564L83.725,92.791c-0.363,0.289-0.804,0.438-1.248,0.438
		C82.184,93.229,81.887,93.163,81.609,93.029"/>
	<g>
		
			<linearGradient id="SVGID_35_" gradientUnits="userSpaceOnUse" x1="326.6045" y1="-331.1284" x2="326.6045" y2="-293.8823" gradientTransform="matrix(1 0 0 -1 -237.5996 -239.9004)">
			<stop  offset="0" style="stop-color:#FEDF34"/>
			<stop  offset="0.1758" style="stop-color:#FECD26"/>
			<stop  offset="0.4969" style="stop-color:#FFB211"/>
			<stop  offset="0.782" style="stop-color:#FFA204"/>
			<stop  offset="1" style="stop-color:#FF9C00"/>
		</linearGradient>
		<polygon fill="url(#SVGID_35_)" points="82.477,91.229 106.548,72.002 82.477,53.982 82.477,64.462 71.46,64.462 71.46,80.456 
			82.477,80.456 		"/>
	</g>
	
		<linearGradient id="SVGID_36_" gradientUnits="userSpaceOnUse" x1="325.9707" y1="-312.9409" x2="325.9707" y2="-296.8774" gradientTransform="matrix(1 0 0 -1 -237.5996 -239.9004)">
		<stop  offset="0" style="stop-color:#FFFFFF;stop-opacity:0"/>
		<stop  offset="1" style="stop-color:#FFFFFF;stop-opacity:0.8"/>
	</linearGradient>
	<path fill="url(#SVGID_36_)" d="M73.46,72.912c0-1.999,0-5.27,0-7.449c2.681,0,9.017,0,9.017,0c1.105,0,2.002-0.896,2.002-2
		c0,0,0-3.426,0-6.486c4.332,3.243,15.844,11.864,18.801,14.078c-0.229,0.184-0.323,0.258-0.492,0.395
		c-3.916-0.711-7.367-1.068-10.27-1.068c-2.785,0-4.98,0.325-6.713,0.994c-2.904,1.121-5.988,1.666-9.428,1.666
		C75.434,73.04,74.458,72.997,73.46,72.912"/>
</g>
<g id="red">
	
		<radialGradient id="SVGID_37_" cx="267.3525" cy="-2463.7383" r="11.9295" gradientTransform="matrix(1.3753 0 0 -0.1457 -273.2091 -266.0768)" gradientUnits="userSpaceOnUse">
		<stop  offset="0" style="stop-color:#000000;stop-opacity:0.42"/>
		<stop  offset="0.3095" style="stop-color:#020202;stop-opacity:0.29"/>
		<stop  offset="0.462" style="stop-color:#0A0A0A;stop-opacity:0.226"/>
		<stop  offset="0.5803" style="stop-color:#171717;stop-opacity:0.1763"/>
		<stop  offset="0.6808" style="stop-color:#2A2A2A;stop-opacity:0.1341"/>
		<stop  offset="0.7701" style="stop-color:#424242;stop-opacity:0.0965"/>
		<stop  offset="0.8516" style="stop-color:#606060;stop-opacity:0.0623"/>
		<stop  offset="0.9258" style="stop-color:#838383;stop-opacity:0.0312"/>
		<stop  offset="0.9946" style="stop-color:#ABABAB;stop-opacity:0.0022"/>
		<stop  offset="1" style="stop-color:#AEAEAE;stop-opacity:0"/>
	</radialGradient>
	<path fill="url(#SVGID_37_)" fill-opacity="0.5" d="M94.479,89.7c-12.713,0-23.02,1.429-23.02,3.188s10.307,3.189,23.02,3.189
		c12.715,0,23.021-1.43,23.021-3.189S107.193,89.7,94.479,89.7L94.479,89.7z"/>
	
		<radialGradient id="SVGID_38_" cx="321.6006" cy="-1222.4912" r="4.8708" gradientTransform="matrix(1 0 0 -0.29 -237.5996 -261.6329)" gradientUnits="userSpaceOnUse">
		<stop  offset="0.6962" style="stop-color:#000000;stop-opacity:0.14"/>
		<stop  offset="0.8155" style="stop-color:#424242;stop-opacity:0.085"/>
		<stop  offset="1" style="stop-color:#AEAEAE;stop-opacity:0"/>
	</radialGradient>
	<path fill="url(#SVGID_38_)" d="M83.999,90.7c-3.606,0-6.531,0.979-6.531,2.188s2.925,2.189,6.531,2.189
		c3.608,0,6.533-0.98,6.533-2.189S87.607,90.7,83.999,90.7L83.999,90.7z"/>
	
		<linearGradient id="SVGID_39_" gradientUnits="userSpaceOnUse" x1="248.3926" y1="-326.4731" x2="299.0723" y2="-326.4731" gradientTransform="matrix(1 0 0 -1 -237.5996 -239.9004)">
		<stop  offset="0.1654" style="stop-color:#000000;stop-opacity:0.6"/>
		<stop  offset="0.7805" style="stop-color:#000000;stop-opacity:0"/>
	</linearGradient>
	<path fill="url(#SVGID_39_)" d="M61.188,88.186c-0.146,0.965-0.082,1.391-0.274,1.547c-0.022,0.021-0.05,0.033-0.078,0.041
		c-0.015,0.002-0.028,0.004-0.045,0.006c-0.015,0-0.03-0.002-0.048-0.004c-0.064-0.01-0.145-0.045-0.237-0.104
		c-0.185-0.12-0.426,0.091-0.879,0.035c-20.24-1.562-33.887-1.999-46.945-2.13c-0.953,0.131-1.542-0.666-1.792-1.702
		c-0.063-0.261-0.096-0.508-0.096-0.737c0.001-0.229,0.035-0.438,0.109-0.619c0.074-0.182,0.188-0.334,0.346-0.447
		c0.08-0.059,0.17-0.104,0.272-0.143c0.05-0.018,0.104-0.031,0.162-0.045c0.056-0.013,0.117-0.021,0.18-0.027
		c13.755-0.685,24.264-0.969,48.531,1.336c0.371,0.259,0.623-0.06,0.791,0.182c0.086,0.122,0.147,0.242,0.192,0.367
		c0.022,0.063,0.04,0.125,0.054,0.189c0.016,0.063,0.026,0.127,0.032,0.194c0.054,0.532-0.114,1.161-0.271,2.063l0,0h-0.004V88.186z
		"/>
	
		<linearGradient id="SVGID_40_" gradientUnits="userSpaceOnUse" x1="261.7285" y1="-288.6289" x2="234.677" y2="-304.247" gradientTransform="matrix(1 0 0 -1 -237.5996 -239.9004)">
		<stop  offset="0" style="stop-color:#3B3B3B"/>
		<stop  offset="0.1001" style="stop-color:#4A4A4A"/>
		<stop  offset="0.5229" style="stop-color:#858585"/>
		<stop  offset="0.8349" style="stop-color:#AAAAAA"/>
		<stop  offset="1" style="stop-color:#B8B8B8"/>
	</linearGradient>
	<path fill="url(#SVGID_40_)" d="M13.154,87.54h-0.015c-0.013,0-0.027,0-0.038-0.002c-2.536-0.062-4.239-1.595-4.239-3.819v-0.055
		c0-0.016,0-0.03,0.001-0.046c0.091-3.964,0.179-8.192,0.179-12.464c0-11.884-0.618-25.907-5.2-39.794
		c-0.203-0.557-0.431-1.291-0.431-2.076c0-1.488,0.903-3.169,3.44-3.425c0.008-0.002,0.011-0.002,0.011-0.002s0,0-0.001,0
		c-0.003,0-0.01,0-0.01,0s0,0,0.002,0c0.001,0,0.005,0,0.009,0l0.542-0.027c2.878,0,5.282,2.199,5.766,4.282
		c1.747,6.241,2.95,12.804,3.677,20.054c0.596,5.943,0.873,12.314,0.873,20.048c0,4.574-0.1,9.229-0.2,13.604
		c-0.051,2.227-1.767,3.723-4.268,3.723L13.154,87.54"/>
	
		<linearGradient id="SVGID_41_" gradientUnits="userSpaceOnUse" x1="243.0127" y1="-296.5859" x2="253.3193" y2="-296.5859" gradientTransform="matrix(1 0 0 -1 -237.5996 -239.9004)">
		<stop  offset="0" style="stop-color:#B8B8B8"/>
		<stop  offset="0.304" style="stop-color:#B6B6B6;stop-opacity:0.8541"/>
		<stop  offset="0.4738" style="stop-color:#AEAEAE;stop-opacity:0.7726"/>
		<stop  offset="0.6106" style="stop-color:#A0A0A0;stop-opacity:0.7069"/>
		<stop  offset="0.7297" style="stop-color:#8C8C8C;stop-opacity:0.6497"/>
		<stop  offset="0.8374" style="stop-color:#737373;stop-opacity:0.598"/>
		<stop  offset="0.9354" style="stop-color:#545454;stop-opacity:0.551"/>
		<stop  offset="1" style="stop-color:#3B3B3B;stop-opacity:0.52"/>
	</linearGradient>
	<path fill="url(#SVGID_41_)" d="M7.054,27.848c2.056-0.209,3.911,1.48,4.177,2.753c4.94,17.619,4.702,35.392,4.29,53.172
		c-0.03,1.285-1.085,1.795-2.372,1.767c-1.288-0.031-2.317-0.59-2.287-1.876c0.41-17.779,0.623-35.547-5.128-52.957
		C5.287,29.49,4.997,28.058,7.054,27.848L7.054,27.848L7.054,27.848z"/>
	<path fill="#4E4E4E" d="M7.187,30.07c0,0,2.018-0.381,3.533-0.506c0.261,0.348,0.442,0.707,0.511,1.038
		c0.993,3.541,1.768,7.087,2.383,10.639C10.853,35.76,7.187,30.07,7.187,30.07L7.187,30.07z M15.646,63.754
		c0.08,3.346,0.09,6.688,0.056,10.035c-1.544-4.227-3.144-8.243-3.144-8.243L15.646,63.754L15.646,63.754z"/>
	
		<linearGradient id="SVGID_42_" gradientUnits="userSpaceOnUse" x1="245.1406" y1="-285.0811" x2="314.5449" y2="-285.0811" gradientTransform="matrix(1 0 0 -1 -237.5996 -239.9004)">
		<stop  offset="0" style="stop-color:#FFFEBF"/>
		<stop  offset="0.1137" style="stop-color:#FFFDB9"/>
		<stop  offset="0.2626" style="stop-color:#FFFCA9"/>
		<stop  offset="0.4311" style="stop-color:#FFF98E"/>
		<stop  offset="0.6139" style="stop-color:#FFF568"/>
		<stop  offset="0.807" style="stop-color:#FFF038"/>
		<stop  offset="1" style="stop-color:#FFEA00"/>
	</linearGradient>
	<path fill="url(#SVGID_42_)" d="M12.971,64.939l0.045-0.487c0-0.001,0-0.001,0-0.003v-0.004c0-0.002,0.001-0.004,0.001-0.006
		c0.2-1.123,0.436-2.334,0.686-3.614c0.91-4.667,2.04-10.474,2.04-15.632c0-3.384-0.493-6.165-1.467-8.262
		c-1.068-2.306-2.726-3.866-5.064-4.77c-0.573-0.179-0.937-0.495-1.14-0.733l0.019,0.021c-0.237-0.267-0.402-0.589-0.487-0.934
		c-0.001-0.011-0.063-0.517-0.063-0.517s0.086-0.61,0.086-0.613v-0.002c0-0.001,0.001-0.004,0.001-0.006
		c0.002-0.005,0.003-0.011,0.007-0.019c0.208-0.695,0.724-1.26,1.534-1.68L9.16,27.684c5.917-3.114,12.059-4.691,18.257-4.691
		c0.974,0,1.952,0.04,2.908,0.118H30.31c4.874,0.367,9.163,1.363,13.311,2.329c1.085,0.251,2.111,0.49,3.136,0.716
		c0.037,0.008,0.541,0.109,0.541,0.109c4.388,0.889,8.531,1.728,12.507,1.728c4.898,0,9.254-1.31,13.707-4.122
		c0.455-0.296,0.898-0.44,1.354-0.44c1.116,0,2.009,0.846,2.075,1.967c0.002,0.038,0.004,0.078,0.004,0.117v0.013
		c0,0.521-0.176,1.032-0.582,1.706c-2.338,3.838-3.426,7.334-3.426,11.009c0,2.082,0.32,4.032,0.66,6.098
		c0,0,0.137,0.838,0.139,0.854c0.021,0.093,0.344,1.715,0.344,1.715c0.514,2.545,1.001,4.951,1.001,7.388
		c0,2.591-0.571,4.878-1.749,6.992c-0.366,0.653-1.096,1.382-1.777,1.776c-0.005,0.004-0.01,0.008-0.015,0.011
		c-2.144,1.222-4.347,2.114-6.549,2.657c-1.042,0.256-2.11,0.44-3.179,0.552c-0.52,0.055-1.047,0.092-1.564,0.11l-0.76,0.02
		c-0.016,0-0.012,0-0.026,0h-0.178l-0.569-0.005c-3.161-0.065-6.197-0.818-9.133-1.548c-0.826-0.204-1.68-0.416-2.524-0.609
		c-3.065-0.695-6.073-1.033-9.191-1.033c-7.02,0-13.285,1.727-19.917,3.559l-1.767,0.486c-0.009,0.002-0.016,0.004-0.025,0.006
		c-0.245,0.064-0.492,0.097-0.729,0.097C14.051,67.365,12.971,66.299,12.971,64.939 M13.01,64.479v0.002V64.479 M7.604,30.528
		L7.604,30.528L7.604,30.528 M7.583,30.428c-0.001-0.006-0.001-0.008-0.001-0.008S7.582,30.423,7.583,30.428 M7.632,29.351
		C7.632,29.35,7.632,29.35,7.632,29.351C7.632,29.35,7.632,29.349,7.632,29.351"/>
	<path fill="#FFF300" d="M10.09,29.453c7.21-3.792,14.145-4.838,20.07-4.348c5.983,0.45,11.243,1.925,16.18,3.006
		c9.982,2.018,18.143,3.836,28.253-2.559c0.229-0.152,0.345-0.157,0.353-0.039c0.008,0.119-0.096,0.357-0.293,0.684
		c-5.034,8.265-3.789,13.722-2.889,19.322c1.043,5.429,2.434,10.098-0.18,14.796c-0.195,0.347-0.676,0.812-1.036,1.022
		c-2.071,1.183-4.075,1.972-6.034,2.453c-0.979,0.239-1.945,0.405-2.906,0.505c-0.479,0.051-0.957,0.083-1.435,0.102
		c-0.237,0.01-0.476,0.015-0.712,0.018c-0.236,0.002-0.475,0-0.712-0.005c-3.784-0.078-7.426-1.231-11.246-2.104
		c-12.163-2.762-21.84,0.291-31.849,3.028c-0.447,0.119-0.75-0.104-0.673-0.517C16.853,54.267,22.189,34.92,9.84,30.26
		c-0.119-0.032-0.202-0.079-0.25-0.135c-0.024-0.027-0.039-0.058-0.045-0.089c-0.006-0.034-0.005-0.067,0.006-0.104
		C9.595,29.788,9.778,29.615,10.09,29.453L10.09,29.453L10.09,29.453L10.09,29.453L10.09,29.453L10.09,29.453z"/>
	
		<linearGradient id="SVGID_43_" gradientUnits="userSpaceOnUse" x1="263.8799" y1="-258.1265" x2="297.577" y2="-308.0846" gradientTransform="matrix(1 0 0 -1 -237.5996 -239.9004)">
		<stop  offset="0" style="stop-color:#000000;stop-opacity:0"/>
		<stop  offset="0.4385" style="stop-color:#000000;stop-opacity:0.62"/>
		<stop  offset="0.7192" style="stop-color:#000000;stop-opacity:0.14"/>
		<stop  offset="1" style="stop-color:#000000;stop-opacity:0.62"/>
	</linearGradient>
	<path fill="url(#SVGID_43_)" fill-opacity="0.75" d="M9.663,29.453c7.21-3.792,14.145-4.838,20.07-4.348
		c5.982,0.45,11.243,1.925,16.179,3.006c9.982,2.018,18.143,3.836,28.254-2.559c0.229-0.152,0.346-0.157,0.354-0.039
		c0.008,0.118-0.096,0.357-0.293,0.684c-5.035,8.265-3.789,13.722-2.891,19.322c1.044,5.429,2.438,10.098-0.178,14.796
		c-0.197,0.347-0.678,0.812-1.038,1.022c-2.072,1.183-4.074,1.972-6.032,2.453c-0.979,0.239-1.947,0.405-2.906,0.505
		c-0.479,0.051-0.957,0.083-1.435,0.102c-0.238,0.01-0.476,0.015-0.712,0.018c-0.239,0.002-0.477,0-0.711-0.005
		c-3.785-0.078-7.427-1.231-11.246-2.104c-12.164-2.762-21.842,0.291-31.85,3.028c-0.447,0.119-0.75-0.104-0.674-0.517
		c1.87-10.549,7.206-29.896-5.141-34.556c-0.119-0.032-0.202-0.079-0.25-0.135c-0.024-0.027-0.04-0.058-0.046-0.089
		c-0.006-0.034-0.003-0.067,0.006-0.104C9.167,29.788,9.349,29.615,9.663,29.453L9.663,29.453L9.663,29.453L9.663,29.453
		L9.663,29.453L9.663,29.453z"/>
	<path fill="#FC7E7E" d="M81.609,93.029c-0.692-0.332-1.133-1.032-1.133-1.801c0,0,0-6.121,0-8.771c-2.681,0-9.018,0-9.018,0
		c-1.104,0-2-0.896-2-2.001V64.462c0-1.104,0.896-2,2-2c0,0,6.337,0,9.018,0c0-2.619,0-8.48,0-8.48c0-0.758,0.428-1.45,1.104-1.789
		c0.282-0.141,0.589-0.211,0.896-0.211c0.424,0,0.846,0.135,1.197,0.399l24.07,18.02c0.497,0.373,0.793,0.951,0.803,1.57
		c0,0.01,0,0.021,0,0.029c0,0.609-0.277,1.186-0.753,1.564L83.725,92.791c-0.363,0.289-0.804,0.438-1.248,0.438
		C82.184,93.229,81.887,93.163,81.609,93.029"/>
	<g>
		
			<linearGradient id="SVGID_44_" gradientUnits="userSpaceOnUse" x1="326.6045" y1="-331.1284" x2="326.6045" y2="-293.8823" gradientTransform="matrix(1 0 0 -1 -237.5996 -239.9004)">
			<stop  offset="0" style="stop-color:#FF0000"/>
			<stop  offset="0.1758" style="stop-color:#F60303"/>
			<stop  offset="0.4969" style="stop-color:#EC0404"/>
			<stop  offset="0.782" style="stop-color:#E30101"/>
			<stop  offset="1" style="stop-color:#D60202"/>
		</linearGradient>
		<polygon fill="url(#SVGID_44_)" points="82.477,91.229 106.548,72.002 82.477,53.982 82.477,64.462 71.46,64.462 71.46,80.456 
			82.477,80.456 		"/>
	</g>
	
		<linearGradient id="SVGID_45_" gradientUnits="userSpaceOnUse" x1="325.9707" y1="-312.9409" x2="325.9707" y2="-296.8774" gradientTransform="matrix(1 0 0 -1 -237.5996 -239.9004)">
		<stop  offset="0" style="stop-color:#FFFFFF;stop-opacity:0"/>
		<stop  offset="1" style="stop-color:#FFFFFF;stop-opacity:0.8"/>
	</linearGradient>
	<path fill="url(#SVGID_45_)" d="M73.46,72.912c0-1.999,0-5.27,0-7.449c2.681,0,9.017,0,9.017,0c1.105,0,2.002-0.896,2.002-2
		c0,0,0-3.426,0-6.486c4.332,3.243,15.844,11.864,18.801,14.078c-0.229,0.184-0.323,0.258-0.492,0.395
		c-3.916-0.711-7.367-1.068-10.27-1.068c-2.785,0-4.98,0.325-6.713,0.994c-2.904,1.121-5.988,1.666-9.428,1.666
		C75.434,73.04,74.458,72.997,73.46,72.912"/>
</g>
</svg>
