<?xml version="1.0" encoding="utf-8"?>
<!-- Generator: Adobe Illustrator 16.0.2, SVG Export Plug-In . SVG Version: 6.00 Build 0)  -->
<!DOCTYPE svg PUBLIC "-//W3C//DTD SVG 1.1//EN" "http://www.w3.org/Graphics/SVG/1.1/DTD/svg11.dtd">
<svg version="1.1" id="Layer_1" xmlns="http://www.w3.org/2000/svg" xmlns:xlink="http://www.w3.org/1999/xlink" x="0px" y="0px"
	 width="120px" height="120px" viewBox="0 0 120 120" enable-background="new 0 0 120 120" xml:space="preserve">
<g id="black_white">
	<path fill="#FFFFFF" d="M37.624,69.42L37.33,18.198l54.182-0.096l0.057,51.25L37.624,69.42L37.624,69.42z M56.045,21.834H40.584
		v14.339h15.461V21.834L56.045,21.834z M56.045,51.026H40.582l0.002,14.341l15.461-0.002V51.026L56.045,51.026z M71.627,36.43
		H56.166v14.339h15.461V36.43L71.627,36.43z M87.211,21.834L71.75,21.832v14.341h15.461V21.834L87.211,21.834z M87.211,51.026H71.75
		v14.339h15.461V51.026L87.211,51.026z M28.432,17.904h6.432v84.194h-6.432V17.904L28.432,17.904z M53.487,76.84l17.027,12.626
		l-17.027,12.628v-6.313H43.155V83.152h10.332V76.84L53.487,76.84z"/>
</g>
<g id="blue">
	
		<radialGradient id="SVGID_6_" cx="267.3525" cy="-2463.7383" r="11.9295" gradientTransform="matrix(1.3753 0 0 -0.1457 -273.2091 -266.0768)" gradientUnits="userSpaceOnUse">
		<stop  offset="0" style="stop-color:#000000;stop-opacity:0.42"/>
		<stop  offset="0.3095" style="stop-color:#020202;stop-opacity:0.29"/>
		<stop  offset="0.462" style="stop-color:#0A0A0A;stop-opacity:0.226"/>
		<stop  offset="0.5803" style="stop-color:#171717;stop-opacity:0.1763"/>
		<stop  offset="0.6808" style="stop-color:#2A2A2A;stop-opacity:0.1341"/>
		<stop  offset="0.7701" style="stop-color:#424242;stop-opacity:0.0965"/>
		<stop  offset="0.8516" style="stop-color:#606060;stop-opacity:0.0623"/>
		<stop  offset="0.9258" style="stop-color:#838383;stop-opacity:0.0312"/>
		<stop  offset="0.9946" style="stop-color:#ABABAB;stop-opacity:0.0022"/>
		<stop  offset="1" style="stop-color:#AEAEAE;stop-opacity:0"/>
	</radialGradient>
	<path fill="url(#SVGID_6_)" fill-opacity="0.5" d="M94.479,89.7c-12.713,0-23.02,1.429-23.02,3.188s10.307,3.189,23.02,3.189
		c12.715,0,23.021-1.43,23.021-3.189S107.193,89.7,94.479,89.7L94.479,89.7z"/>
	
		<radialGradient id="SVGID_7_" cx="321.6006" cy="-1222.4912" r="4.8708" gradientTransform="matrix(1 0 0 -0.29 -237.5996 -261.6329)" gradientUnits="userSpaceOnUse">
		<stop  offset="0.6962" style="stop-color:#000000;stop-opacity:0.14"/>
		<stop  offset="0.8155" style="stop-color:#424242;stop-opacity:0.085"/>
		<stop  offset="1" style="stop-color:#AEAEAE;stop-opacity:0"/>
	</radialGradient>
	<path fill="url(#SVGID_7_)" d="M83.999,90.7c-3.606,0-6.531,0.979-6.531,2.188s2.925,2.189,6.531,2.189
		c3.608,0,6.533-0.98,6.533-2.189S87.607,90.7,83.999,90.7L83.999,90.7z"/>
	
		<linearGradient id="SVGID_8_" gradientUnits="userSpaceOnUse" x1="248.3926" y1="-326.4731" x2="299.0723" y2="-326.4731" gradientTransform="matrix(1 0 0 -1 -237.5996 -239.9004)">
		<stop  offset="0.1654" style="stop-color:#000000;stop-opacity:0.6"/>
		<stop  offset="0.7805" style="stop-color:#000000;stop-opacity:0"/>
	</linearGradient>
	<path fill="url(#SVGID_8_)" d="M61.188,88.186c-0.146,0.965-0.082,1.391-0.274,1.547c-0.022,0.021-0.05,0.033-0.078,0.041
		c-0.015,0.002-0.028,0.004-0.045,0.006c-0.015,0-0.03-0.002-0.048-0.004c-0.064-0.01-0.145-0.045-0.237-0.104
		c-0.185-0.12-0.426,0.091-0.879,0.035c-20.24-1.562-33.887-1.999-46.945-2.13c-0.953,0.131-1.542-0.666-1.792-1.702
		c-0.063-0.261-0.096-0.508-0.096-0.737c0.001-0.229,0.035-0.438,0.109-0.619c0.074-0.182,0.188-0.334,0.346-0.447
		c0.08-0.059,0.17-0.104,0.272-0.143c0.05-0.018,0.104-0.031,0.162-0.045c0.056-0.013,0.117-0.021,0.18-0.027
		c13.755-0.685,24.264-0.969,48.531,1.336c0.371,0.259,0.623-0.06,0.791,0.182c0.086,0.122,0.147,0.242,0.192,0.367
		c0.022,0.063,0.04,0.125,0.054,0.189c0.016,0.063,0.026,0.127,0.032,0.194c0.054,0.532-0.114,1.161-0.271,2.063l0,0h-0.004V88.186z
		"/>
	
		<linearGradient id="SVGID_9_" gradientUnits="userSpaceOnUse" x1="261.7285" y1="-288.6289" x2="234.677" y2="-304.247" gradientTransform="matrix(1 0 0 -1 -237.5996 -239.9004)">
		<stop  offset="0" style="stop-color:#3B3B3B"/>
		<stop  offset="0.1001" style="stop-color:#4A4A4A"/>
		<stop  offset="0.5229" style="stop-color:#858585"/>
		<stop  offset="0.8349" style="stop-color:#AAAAAA"/>
		<stop  offset="1" style="stop-color:#B8B8B8"/>
	</linearGradient>
	<path fill="url(#SVGID_9_)" d="M13.154,87.54h-0.015c-0.013,0-0.027,0-0.038-0.002c-2.536-0.062-4.239-1.595-4.239-3.819v-0.055
		c0-0.016,0-0.03,0.001-0.046c0.091-3.964,0.179-8.192,0.179-12.464c0-11.884-0.618-25.907-5.2-39.794
		c-0.203-0.557-0.431-1.291-0.431-2.076c0-1.488,0.903-3.169,3.44-3.425c0.008-0.002,0.011-0.002,0.011-0.002s0,0-0.001,0
		c-0.003,0-0.01,0-0.01,0s0,0,0.002,0c0.001,0,0.005,0,0.009,0l0.542-0.027c2.878,0,5.282,2.199,5.766,4.282
		c1.747,6.241,2.95,12.804,3.677,20.054c0.596,5.943,0.873,12.314,0.873,20.048c0,4.574-0.1,9.229-0.2,13.604
		c-0.051,2.227-1.767,3.723-4.268,3.723L13.154,87.54"/>
	
		<linearGradient id="SVGID_10_" gradientUnits="userSpaceOnUse" x1="243.0127" y1="-296.5859" x2="253.3193" y2="-296.5859" gradientTransform="matrix(1 0 0 -1 -237.5996 -239.9004)">
		<stop  offset="0" style="stop-color:#B8B8B8"/>
		<stop  offset="0.304" style="stop-color:#B6B6B6;stop-opacity:0.8541"/>
		<stop  offset="0.4738" style="stop-color:#AEAEAE;stop-opacity:0.7726"/>
		<stop  offset="0.6106" style="stop-color:#A0A0A0;stop-opacity:0.7069"/>
		<stop  offset="0.7297" style="stop-color:#8C8C8C;stop-opacity:0.6497"/>
		<stop  offset="0.8374" style="stop-color:#737373;stop-opacity:0.598"/>
		<stop  offset="0.9354" style="stop-color:#545454;stop-opacity:0.551"/>
		<stop  offset="1" style="stop-color:#3B3B3B;stop-opacity:0.52"/>
	</linearGradient>
	<path fill="url(#SVGID_10_)" d="M7.054,27.848c2.056-0.209,3.911,1.48,4.177,2.753c4.94,17.619,4.702,35.392,4.29,53.172
		c-0.03,1.285-1.085,1.795-2.372,1.767c-1.288-0.031-2.317-0.59-2.287-1.876c0.41-17.779,0.623-35.547-5.128-52.957
		C5.287,29.49,4.997,28.058,7.054,27.848L7.054,27.848L7.054,27.848z"/>
	<path fill="#4E4E4E" d="M7.187,30.07c0,0,2.018-0.381,3.533-0.506c0.261,0.348,0.442,0.707,0.511,1.038
		c0.993,3.541,1.768,7.087,2.383,10.639C10.853,35.76,7.187,30.07,7.187,30.07L7.187,30.07z M15.646,63.754
		c0.08,3.346,0.09,6.688,0.056,10.035c-1.544-4.227-3.144-8.243-3.144-8.243L15.646,63.754L15.646,63.754z"/>
	
		<linearGradient id="SVGID_11_" gradientUnits="userSpaceOnUse" x1="245.6406" y1="-285.0771" x2="314.0449" y2="-285.0771" gradientTransform="matrix(1 0 0 -1 -237.5996 -239.9004)">
		<stop  offset="0" style="stop-color:#FFFFFF"/>
		<stop  offset="0.8615" style="stop-color:#000000"/>
	</linearGradient>
	<path fill="url(#SVGID_11_)" d="M13.471,64.939c0,0,0.035-0.383,0.037-0.394c0.2-1.124,0.436-2.34,0.687-3.625
		c0.913-4.688,2.048-10.522,2.048-15.729c0-3.456-0.508-6.307-1.512-8.474c-1.134-2.444-2.896-4.094-5.386-5.042
		c-0.359-0.114-0.653-0.305-0.881-0.563c-0.183-0.207-0.311-0.455-0.375-0.721c-0.002-0.008-0.048-0.397-0.048-0.397
		s0.067-0.473,0.067-0.476v-0.001c0.001-0.003,0.003-0.008,0.006-0.02c0.168-0.561,0.601-1.025,1.285-1.38
		c5.837-3.068,11.902-4.628,18.017-4.628c0.961,0,1.925,0.04,2.867,0.119l-0.011-0.002c4.836,0.364,9.106,1.357,13.236,2.317
		c1.086,0.251,2.112,0.492,3.139,0.716c0.019,0.003,0.551,0.112,0.551,0.112c4.414,0.894,8.581,1.738,12.607,1.738
		c5,0,9.446-1.337,13.986-4.209l-0.025,0.018c0.24-0.158,0.616-0.372,1.101-0.372c0.849,0,1.526,0.644,1.575,1.496
		c0.002,0.029,0.004,0.059,0.004,0.088v0.013c0,0.423-0.152,0.855-0.51,1.446c-2.388,3.92-3.498,7.499-3.498,11.269
		c0,2.122,0.324,4.093,0.666,6.18c0,0,0.129,0.785,0.138,0.834c0.008,0.037,0.349,1.752,0.349,1.752
		c0.51,2.521,0.991,4.9,0.991,7.289c0,2.503-0.552,4.711-1.687,6.749c-0.363,0.648-1.074,1.289-1.593,1.588
		c-0.003,0.004-0.008,0.006-0.011,0.01c-2.132,1.215-4.23,2.066-6.419,2.604c-1.021,0.251-2.067,0.433-3.11,0.541
		c-0.511,0.053-1.025,0.088-1.531,0.106l-0.748,0.021c-0.014,0-0.008,0-0.021,0h-0.178l-0.561-0.007
		c-3.104-0.064-6.113-0.811-9.022-1.531c-0.828-0.205-1.685-0.418-2.532-0.611c-3.104-0.705-6.148-1.048-9.303-1.048
		c-7.087,0-13.384,1.736-20.049,3.576l-1.767,0.485c-0.006,0.004-0.011,0.004-0.018,0.005c-0.205,0.055-0.408,0.081-0.604,0.081
		C14.313,66.866,13.471,66.038,13.471,64.939 M13.503,64.563L13.503,64.563L13.503,64.563 M13.508,64.532
		C13.508,64.531,13.508,64.531,13.508,64.532L13.508,64.532 M8.09,30.404L8.09,30.404L8.09,30.404 M8.074,30.324
		c0,0,0,0.001,0,0.003C8.074,30.324,8.074,30.324,8.074,30.324 M8.112,29.496v0.002V29.496"/>
	<path fill="#FFFFFF" d="M9.994,29.868c7.074-3.722,13.878-4.75,19.692-4.268c5.871,0.44,11.031,1.89,15.876,2.95
		c9.795,1.979,17.801,3.765,27.724-2.513C73.51,25.89,73.624,25.885,73.63,26c0.009,0.115-0.093,0.351-0.288,0.671
		c-4.939,8.11-3.716,13.465-2.833,18.963c1.023,5.327,2.39,9.909-0.176,14.52c-0.192,0.339-0.663,0.797-1.019,1.002
		c-2.033,1.16-3.998,1.935-5.92,2.406c-0.961,0.237-1.908,0.397-2.852,0.496c-0.471,0.049-0.939,0.082-1.406,0.1
		c-0.234,0.009-0.468,0.016-0.701,0.018c-0.231,0.002-0.465,0-0.695-0.005c-3.714-0.077-7.287-1.209-11.035-2.065
		c-11.936-2.709-21.43,0.285-31.252,2.975c-0.438,0.115-0.735-0.104-0.66-0.51c1.835-10.353,7.071-29.336-5.044-33.91
		c-0.117-0.032-0.199-0.077-0.245-0.131C9.48,30.5,9.465,30.47,9.459,30.438s-0.005-0.066,0.006-0.101
		C9.509,30.194,9.687,30.026,9.994,29.868L9.994,29.868L9.994,29.868L9.994,29.868L9.994,29.868L9.994,29.868z"/>
	<path fill="#FFFFFF" d="M17.138,61.494c0.938-4.814,2.106-10.805,2.106-16.301c0-3.951-0.586-7.135-1.792-9.736
		c-1.113-2.4-2.756-4.26-4.9-5.549c4.862-2.268,9.853-3.415,14.865-3.415c0.879,0,1.76,0.036,2.62,0.106
		C30.04,26.6,30.043,26.6,30.048,26.6c4.606,0.346,8.762,1.313,12.78,2.247c1.1,0.256,2.14,0.498,3.192,0.729
		c0.006,0.002,0.014,0.003,0.022,0.005l0.562,0.114c4.563,0.924,8.874,1.798,13.201,1.798c4.149,0,7.947-0.818,11.689-2.542
		c-1.395,3.107-2.059,6.127-2.059,9.289c0,2.367,0.36,4.553,0.709,6.666l0.138,0.852c0.003,0.018,0.005,0.027,0.008,0.045
		l0.358,1.799c0.479,2.369,0.931,4.606,0.931,6.694c0,2.006-0.415,3.688-1.306,5.291c0.004-0.006,0.004-0.011,0.004-0.011
		c-0.069,0.116-0.338,0.38-0.483,0.466l0.011-0.008c-1.888,1.077-3.736,1.829-5.65,2.301c-0.885,0.218-1.793,0.375-2.7,0.468
		c-0.445,0.047-0.894,0.079-1.336,0.096c-0.005,0-0.55,0.013-0.679,0.016c-0.031,0-0.155,0-0.155,0l-0.507-0.003
		c-2.761-0.058-5.478-0.731-8.354-1.444c-0.843-0.208-1.71-0.425-2.585-0.624c-3.33-0.757-6.59-1.125-9.973-1.125
		c-7.494,0-14.282,1.874-20.847,3.687c0,0-0.197,0.053-0.264,0.07C16.877,62.837,17.005,62.178,17.138,61.494 M10.231,28.813
		c0.001,0,0.005,0.001,0.008,0.001C10.236,28.814,10.234,28.813,10.231,28.813 M75.417,26.806c-0.001,0.001-0.003,0.001-0.004,0.003
		C75.414,26.807,75.416,26.806,75.417,26.806 M75.422,26.803L75.43,26.8C75.43,26.799,75.426,26.801,75.422,26.803 M73.497,25.184
		c0,0,0,0.004-0.003,0.011C73.495,25.188,73.497,25.184,73.497,25.184"/>
	<defs>
		<filter id="Adobe_OpacityMaskFilter" filterUnits="userSpaceOnUse" x="8.817" y="23.894" width="67.397" height="41.572">
			<feColorMatrix  type="matrix" values="1 0 0 0 0  0 1 0 0 0  0 0 1 0 0  0 0 0 1 0"/>
		</filter>
	</defs>
	<mask maskUnits="userSpaceOnUse" x="8.817" y="23.894" width="67.397" height="41.572" id="SVGID_1_">
		<g filter="url(#Adobe_OpacityMaskFilter)">
			<path fill="#FFFFFF" d="M9.994,29.868c7.074-3.722,13.878-4.75,19.692-4.268c5.871,0.44,11.031,1.89,15.876,2.95
				c9.795,1.979,17.801,3.765,27.724-2.513C73.51,25.89,73.624,25.885,73.63,26c0.009,0.115-0.093,0.351-0.288,0.671
				c-4.939,8.11-3.716,13.465-2.833,18.963c1.023,5.327,2.39,9.909-0.176,14.52c-0.192,0.339-0.663,0.797-1.019,1.002
				c-2.033,1.16-3.998,1.935-5.92,2.406c-0.961,0.237-1.908,0.397-2.852,0.496c-0.471,0.049-0.939,0.082-1.406,0.1
				c-0.234,0.009-0.468,0.016-0.701,0.018c-0.231,0.002-0.465,0-0.695-0.005c-3.714-0.077-7.287-1.209-11.035-2.065
				c-11.936-2.709-21.43,0.285-31.252,2.975c-0.438,0.115-0.735-0.104-0.66-0.51c1.835-10.353,7.071-29.336-5.044-33.91
				c-0.117-0.032-0.199-0.077-0.245-0.131C9.48,30.5,9.465,30.47,9.459,30.438s-0.005-0.066,0.006-0.101
				C9.509,30.194,9.687,30.026,9.994,29.868L9.994,29.868L9.994,29.868L9.994,29.868L9.994,29.868L9.994,29.868z"/>
		</g>
	</mask>
	<path mask="url(#SVGID_1_)" d="M26.75,63.229c0.064-0.006,0.125-0.013,0.189-0.018C26.877,63.216,26.813,63.223,26.75,63.229
		L26.75,63.229z M32.543,62.971c-0.098,0.002-0.196,0.002-0.293,0.002C32.348,62.971,32.446,62.973,32.543,62.971L32.543,62.971z
		 M75.941,24.631c-0.334,0.559-0.644,1.113-0.938,1.663c-0.104,0.195-0.2,0.387-0.302,0.58c-0.184,0.355-0.361,0.709-0.529,1.06
		c-0.109,0.228-0.217,0.452-0.316,0.678c-0.129,0.282-0.248,0.562-0.365,0.842c-0.122,0.285-0.245,0.572-0.355,0.855
		c-0.002,0.003-0.002,0.006-0.003,0.01c-1.099,2.808-1.7,5.459-1.889,7.934c-3.284,1.404-7.5,1.968-12.037,2.584
		c-0.108-5.4,1.851-9.728,3.282-12.192c2.596-0.368,5.177-0.999,7.705-1.935c0.047-0.016,0.091-0.034,0.137-0.051
		c0.529-0.198,1.059-0.41,1.583-0.637c0.124-0.053,0.248-0.106,0.373-0.16c0.474-0.211,0.94-0.437,1.409-0.673
		c0.136-0.069,0.275-0.131,0.412-0.202c0.592-0.308,1.18-0.631,1.761-0.98c0.22-0.144,0.333-0.147,0.345-0.032
		C76.223,24.088,76.129,24.318,75.941,24.631L75.941,24.631z M49.585,28.64c0.021-0.036,0.039-0.067,0.059-0.103
		c4.184,0.53,8.542,0.653,12.874,0.059c-0.01,0.018-0.018,0.03-0.029,0.048C58.148,29.261,53.779,29.162,49.585,28.64L49.585,28.64z
		 M35.245,38.793c0.493-5.871,1.348-9.87,2.107-12.46c2.766,0.5,5.393,1.077,7.939,1.627c1.403,0.272,2.839,0.498,4.293,0.679
		c-1.696,3.011-3.583,7.421-3.729,12.375C42.558,40.369,38.895,39.445,35.245,38.793L35.245,38.793z M24.571,25.182L24.571,25.182
		c1.719-0.104,3.373-0.078,4.933,0.072C27.944,25.104,26.29,25.078,24.571,25.182L24.571,25.182z M24.303,38.266
		c-4.319,0.412-7.868,1.313-9.46,1.773c-0.051-0.228-0.115-0.445-0.173-0.669c-0.024-0.088-0.045-0.176-0.067-0.263
		c-0.778-2.923-2.021-5.458-3.939-7.276c-0.003-0.003-0.007-0.006-0.01-0.009c-0.489-0.461-1.007-0.892-1.587-1.254
		c-0.107-0.042-0.179-0.098-0.218-0.162c-0.019-0.032-0.029-0.067-0.032-0.104c-0.001-0.035,0.005-0.074,0.019-0.114
		c0.058-0.16,0.249-0.344,0.564-0.511c0.82-0.445,1.633-0.841,2.442-1.214c0.256-0.119,0.511-0.228,0.764-0.338
		c0.572-0.25,1.14-0.479,1.707-0.694c0.263-0.101,0.527-0.205,0.788-0.298c0.732-0.259,1.462-0.493,2.181-0.7
		c0.313-0.09,0.622-0.159,0.931-0.239c0.434-0.112,0.87-0.218,1.297-0.311c0.389-0.083,0.772-0.159,1.156-0.228
		c0.32-0.058,0.637-0.105,0.955-0.153c1.002-0.151,1.989-0.265,2.95-0.322C24.46,28.023,24.27,32.585,24.303,38.266L24.303,38.266z
		 M35.245,38.793c-0.155,1.852-0.277,3.879-0.344,6.113c0.008,2.188,0.025,4.192,0.049,6.042c-2.761-0.289-5.684-0.356-8.96,0.091
		c-0.477,0.07-0.934,0.149-1.387,0.23c-0.003-1.818-0.04-3.733-0.135-5.761c-0.104-2.561-0.152-4.987-0.165-7.244
		c1.525-0.146,3.144-0.23,4.811-0.213C31.106,38.14,33.174,38.425,35.245,38.793L35.245,38.793z M45.856,41.014
		c3.089,0.605,5.857,0.961,7.992,0.609c1.813-0.304,3.607-0.549,5.357-0.787c0.021,1.112,0.122,2.263,0.343,3.459
		c0.655,2.817,1.39,5.195,1.685,7.863c-2.305,0.372-4.723,0.69-7.215,0.907c-2.372,0.16-4.574,0.042-6.704-0.204
		c-0.048-2.285-0.317-4.62-0.967-6.777C45.93,44.354,45.809,42.659,45.856,41.014L45.856,41.014z M73.152,50.436
		c0.578,3.182,0.55,6.185-1.231,9.071c-0.209,0.34-0.731,2.315-1.129,2.505c-2.282,1.059-4.538,1.104-6.769,1.68
		c-1.115,0.289-1.916,0.295-3.023,0.466c-0.344,0.053-1.193-0.058-1.537-0.013c1.657-5.016,2.112-8.896,1.77-11.984
		c4.49-0.722,8.537-1.661,11.756-2.537C73.049,49.896,73.1,50.166,73.152,50.436L73.152,50.436z M46.248,63.695
		c-0.858-0.064-1.717-0.129-2.583-0.192c-1.371-0.116-2.742-0.222-4.116-0.308c-0.069-0.004-0.138-0.01-0.207-0.014
		c-1.379-0.084-2.758-0.148-4.139-0.185c-0.07-2.775-0.184-6.728-0.253-12.049c4.288,0.448,8.184,1.432,12.362,1.914
		C47.405,57.194,46.699,61.33,46.248,63.695L46.248,63.695z M24.06,63.527L24.06,63.527c0.001,0,0.003,0,0.005,0
		C24.063,63.527,24.062,63.527,24.06,63.527L24.06,63.527z M24.044,63.529c-0.648,0.089-1.295,0.193-1.942,0.307
		c-0.125,0.021-0.253,0.047-0.378,0.068c-0.506,0.094-1.012,0.195-1.517,0.307c-0.202,0.045-0.402,0.088-0.604,0.135
		c-0.466,0.106-0.931,0.227-1.394,0.35c-0.195,0.052-0.387,0.1-0.581,0.152c-0.641,0.18-1.28,0.37-1.917,0.582
		c-0.397,0.121-0.705-0.074-0.682-0.455c0.157-3.022,0.525-6.891,0.69-10.97c2.031-0.937,5.018-2.037,8.884-2.734
		c0.008,5.114-0.284,9.333-0.543,12.256C24.055,63.527,24.049,63.529,24.044,63.529L24.044,63.529z M37.369,26.28
		c-0.005,0.02-0.011,0.034-0.016,0.053c-2.482-0.45-5.075-0.839-7.849-1.079C32.282,25.494,34.88,25.857,37.369,26.28L37.369,26.28z
		 M47.799,63.803c-0.508-0.035-1.015-0.066-1.526-0.105C46.786,63.734,47.29,63.768,47.799,63.803L47.799,63.803z M49.784,63.926
		c0.429,0.025,0.856,0.045,1.284,0.063C50.642,63.973,50.213,63.949,49.784,63.926L49.784,63.926z M54.231,64.066
		c-0.334-0.002-0.671-0.012-1.006-0.017C53.56,64.057,53.898,64.066,54.231,64.066L54.231,64.066z"/>
	
		<linearGradient id="SVGID_12_" gradientUnits="userSpaceOnUse" x1="263.8975" y1="-258.752" x2="296.9634" y2="-307.7743" gradientTransform="matrix(1 0 0 -1 -237.5996 -239.9004)">
		<stop  offset="0" style="stop-color:#000000;stop-opacity:0"/>
		<stop  offset="0.4385" style="stop-color:#000000;stop-opacity:0.62"/>
		<stop  offset="0.7192" style="stop-color:#000000;stop-opacity:0.14"/>
		<stop  offset="1" style="stop-color:#000000;stop-opacity:0.62"/>
	</linearGradient>
	<path fill="url(#SVGID_12_)" fill-opacity="0.75" d="M9.994,29.868c7.074-3.722,13.878-4.75,19.692-4.268
		c5.871,0.44,11.031,1.89,15.876,2.95c9.795,1.979,17.801,3.765,27.724-2.513C73.51,25.89,73.624,25.885,73.63,26
		c0.009,0.115-0.093,0.351-0.288,0.671c-4.939,8.11-3.716,13.465-2.833,18.963c1.023,5.327,2.39,9.909-0.176,14.52
		c-0.192,0.339-0.663,0.797-1.019,1.002c-2.033,1.16-3.998,1.935-5.92,2.406c-0.961,0.237-1.908,0.397-2.852,0.496
		c-0.471,0.049-0.939,0.082-1.406,0.1c-0.234,0.009-0.468,0.016-0.701,0.018c-0.231,0.002-0.465,0-0.695-0.005
		c-3.714-0.077-7.287-1.209-11.035-2.065c-11.936-2.709-21.43,0.285-31.252,2.975c-0.438,0.115-0.735-0.104-0.66-0.51
		c1.835-10.353,7.071-29.336-5.044-33.91c-0.117-0.032-0.199-0.077-0.245-0.131C9.48,30.5,9.465,30.47,9.459,30.438
		s-0.005-0.066,0.006-0.101C9.509,30.194,9.687,30.026,9.994,29.868L9.994,29.868L9.994,29.868L9.994,29.868L9.994,29.868
		L9.994,29.868z"/>
	<path fill="#70B7E0" d="M81.609,93.029c-0.692-0.332-1.133-1.032-1.133-1.801c0,0,0-6.121,0-8.771c-2.681,0-9.018,0-9.018,0
		c-1.104,0-2-0.896-2-2.001V64.462c0-1.104,0.896-2,2-2c0,0,6.337,0,9.018,0c0-2.619,0-8.48,0-8.48c0-0.758,0.428-1.45,1.104-1.789
		c0.282-0.141,0.589-0.211,0.896-0.211c0.424,0,0.846,0.135,1.197,0.399l24.07,18.02c0.497,0.373,0.793,0.951,0.803,1.57
		c0,0.01,0,0.021,0,0.029c0,0.609-0.277,1.186-0.753,1.564L83.725,92.791c-0.363,0.289-0.804,0.438-1.248,0.438
		C82.184,93.229,81.887,93.163,81.609,93.029"/>
	<g>
		
			<linearGradient id="SVGID_13_" gradientUnits="userSpaceOnUse" x1="326.6045" y1="-331.1284" x2="326.6045" y2="-293.8823" gradientTransform="matrix(1 0 0 -1 -237.5996 -239.9004)">
			<stop  offset="0" style="stop-color:#48A2FB"/>
			<stop  offset="0.1758" style="stop-color:#059CF4"/>
			<stop  offset="0.4969" style="stop-color:#0398EF"/>
			<stop  offset="0.782" style="stop-color:#0293E7"/>
			<stop  offset="1" style="stop-color:#0189D8"/>
		</linearGradient>
		<polygon fill="url(#SVGID_13_)" points="82.477,91.229 106.548,72.002 82.477,53.982 82.477,64.462 71.46,64.462 71.46,80.456 
			82.477,80.456 		"/>
	</g>
	
		<linearGradient id="SVGID_14_" gradientUnits="userSpaceOnUse" x1="325.9707" y1="-312.9409" x2="325.9707" y2="-296.8774" gradientTransform="matrix(1 0 0 -1 -237.5996 -239.9004)">
		<stop  offset="0" style="stop-color:#FFFFFF;stop-opacity:0"/>
		<stop  offset="1" style="stop-color:#FFFFFF;stop-opacity:0.8"/>
	</linearGradient>
	<path fill="url(#SVGID_14_)" d="M73.46,72.912c0-1.999,0-5.27,0-7.449c2.681,0,9.017,0,9.017,0c1.105,0,2.002-0.896,2.002-2
		c0,0,0-3.426,0-6.486c4.332,3.243,15.844,11.864,18.801,14.078c-0.229,0.184-0.323,0.258-0.492,0.395
		c-3.916-0.711-7.367-1.068-10.27-1.068c-2.785,0-4.98,0.325-6.713,0.994c-2.904,1.121-5.988,1.666-9.428,1.666
		C75.434,73.04,74.458,72.997,73.46,72.912"/>
</g>
<g id="green">
	
		<radialGradient id="SVGID_15_" cx="267.3525" cy="-2463.7383" r="11.9295" gradientTransform="matrix(1.3753 0 0 -0.1457 -273.2091 -266.0768)" gradientUnits="userSpaceOnUse">
		<stop  offset="0" style="stop-color:#000000;stop-opacity:0.42"/>
		<stop  offset="0.3095" style="stop-color:#020202;stop-opacity:0.29"/>
		<stop  offset="0.462" style="stop-color:#0A0A0A;stop-opacity:0.226"/>
		<stop  offset="0.5803" style="stop-color:#171717;stop-opacity:0.1763"/>
		<stop  offset="0.6808" style="stop-color:#2A2A2A;stop-opacity:0.1341"/>
		<stop  offset="0.7701" style="stop-color:#424242;stop-opacity:0.0965"/>
		<stop  offset="0.8516" style="stop-color:#606060;stop-opacity:0.0623"/>
		<stop  offset="0.9258" style="stop-color:#838383;stop-opacity:0.0312"/>
		<stop  offset="0.9946" style="stop-color:#ABABAB;stop-opacity:0.0022"/>
		<stop  offset="1" style="stop-color:#AEAEAE;stop-opacity:0"/>
	</radialGradient>
	<path fill="url(#SVGID_15_)" fill-opacity="0.5" d="M94.479,89.7c-12.713,0-23.02,1.429-23.02,3.188s10.307,3.189,23.02,3.189
		c12.715,0,23.021-1.43,23.021-3.189S107.193,89.7,94.479,89.7L94.479,89.7z"/>
	
		<radialGradient id="SVGID_16_" cx="321.6006" cy="-1222.4912" r="4.8708" gradientTransform="matrix(1 0 0 -0.29 -237.5996 -261.6329)" gradientUnits="userSpaceOnUse">
		<stop  offset="0.6962" style="stop-color:#000000;stop-opacity:0.14"/>
		<stop  offset="0.8155" style="stop-color:#424242;stop-opacity:0.085"/>
		<stop  offset="1" style="stop-color:#AEAEAE;stop-opacity:0"/>
	</radialGradient>
	<path fill="url(#SVGID_16_)" d="M83.999,90.7c-3.606,0-6.531,0.979-6.531,2.188s2.925,2.189,6.531,2.189
		c3.608,0,6.533-0.98,6.533-2.189S87.607,90.7,83.999,90.7L83.999,90.7z"/>
	
		<linearGradient id="SVGID_17_" gradientUnits="userSpaceOnUse" x1="248.3926" y1="-326.4731" x2="299.0723" y2="-326.4731" gradientTransform="matrix(1 0 0 -1 -237.5996 -239.9004)">
		<stop  offset="0.1654" style="stop-color:#000000;stop-opacity:0.6"/>
		<stop  offset="0.7805" style="stop-color:#000000;stop-opacity:0"/>
	</linearGradient>
	<path fill="url(#SVGID_17_)" d="M61.188,88.186c-0.146,0.965-0.082,1.391-0.274,1.547c-0.022,0.021-0.05,0.033-0.078,0.041
		c-0.015,0.002-0.028,0.004-0.045,0.006c-0.015,0-0.03-0.002-0.048-0.004c-0.064-0.01-0.145-0.045-0.237-0.104
		c-0.185-0.12-0.426,0.091-0.879,0.035c-20.24-1.562-33.887-1.999-46.945-2.13c-0.953,0.131-1.542-0.666-1.792-1.702
		c-0.063-0.261-0.096-0.508-0.096-0.737c0.001-0.229,0.035-0.438,0.109-0.619c0.074-0.182,0.188-0.334,0.346-0.447
		c0.08-0.059,0.17-0.104,0.272-0.143c0.05-0.018,0.104-0.031,0.162-0.045c0.056-0.013,0.117-0.021,0.18-0.027
		c13.755-0.685,24.264-0.969,48.531,1.336c0.371,0.259,0.623-0.06,0.791,0.182c0.086,0.122,0.147,0.242,0.192,0.367
		c0.022,0.063,0.04,0.125,0.054,0.189c0.016,0.063,0.026,0.127,0.032,0.194c0.054,0.532-0.114,1.161-0.271,2.063l0,0h-0.004V88.186z
		"/>
	
		<linearGradient id="SVGID_18_" gradientUnits="userSpaceOnUse" x1="261.7285" y1="-288.6289" x2="234.677" y2="-304.247" gradientTransform="matrix(1 0 0 -1 -237.5996 -239.9004)">
		<stop  offset="0" style="stop-color:#3B3B3B"/>
		<stop  offset="0.1001" style="stop-color:#4A4A4A"/>
		<stop  offset="0.5229" style="stop-color:#858585"/>
		<stop  offset="0.8349" style="stop-color:#AAAAAA"/>
		<stop  offset="1" style="stop-color:#B8B8B8"/>
	</linearGradient>
	<path fill="url(#SVGID_18_)" d="M13.154,87.54h-0.015c-0.013,0-0.027,0-0.038-0.002c-2.536-0.062-4.239-1.595-4.239-3.819v-0.055
		c0-0.016,0-0.03,0.001-0.046c0.091-3.964,0.179-8.192,0.179-12.464c0-11.884-0.618-25.907-5.2-39.794
		c-0.203-0.557-0.431-1.291-0.431-2.076c0-1.488,0.903-3.169,3.44-3.425c0.008-0.002,0.011-0.002,0.011-0.002s0,0-0.001,0
		c-0.003,0-0.01,0-0.01,0s0,0,0.002,0c0.001,0,0.005,0,0.009,0l0.542-0.027c2.878,0,5.282,2.199,5.766,4.282
		c1.747,6.241,2.95,12.804,3.677,20.054c0.596,5.943,0.873,12.314,0.873,20.048c0,4.574-0.1,9.229-0.2,13.604
		c-0.051,2.227-1.767,3.723-4.268,3.723L13.154,87.54"/>
	
		<linearGradient id="SVGID_19_" gradientUnits="userSpaceOnUse" x1="243.0127" y1="-296.5859" x2="253.3193" y2="-296.5859" gradientTransform="matrix(1 0 0 -1 -237.5996 -239.9004)">
		<stop  offset="0" style="stop-color:#B8B8B8"/>
		<stop  offset="0.304" style="stop-color:#B6B6B6;stop-opacity:0.8541"/>
		<stop  offset="0.4738" style="stop-color:#AEAEAE;stop-opacity:0.7726"/>
		<stop  offset="0.6106" style="stop-color:#A0A0A0;stop-opacity:0.7069"/>
		<stop  offset="0.7297" style="stop-color:#8C8C8C;stop-opacity:0.6497"/>
		<stop  offset="0.8374" style="stop-color:#737373;stop-opacity:0.598"/>
		<stop  offset="0.9354" style="stop-color:#545454;stop-opacity:0.551"/>
		<stop  offset="1" style="stop-color:#3B3B3B;stop-opacity:0.52"/>
	</linearGradient>
	<path fill="url(#SVGID_19_)" d="M7.054,27.848c2.056-0.209,3.911,1.48,4.177,2.753c4.94,17.619,4.702,35.392,4.29,53.172
		c-0.03,1.285-1.085,1.795-2.372,1.767c-1.288-0.031-2.317-0.59-2.287-1.876c0.41-17.779,0.623-35.547-5.128-52.957
		C5.287,29.49,4.997,28.058,7.054,27.848L7.054,27.848L7.054,27.848z"/>
	<path fill="#4E4E4E" d="M7.187,30.07c0,0,2.018-0.381,3.533-0.506c0.261,0.348,0.442,0.707,0.511,1.038
		c0.993,3.541,1.768,7.087,2.383,10.639C10.853,35.76,7.187,30.07,7.187,30.07L7.187,30.07z M15.646,63.754
		c0.08,3.346,0.09,6.688,0.056,10.035c-1.544-4.227-3.144-8.243-3.144-8.243L15.646,63.754L15.646,63.754z"/>
	
		<linearGradient id="SVGID_20_" gradientUnits="userSpaceOnUse" x1="245.6406" y1="-285.0771" x2="314.0449" y2="-285.0771" gradientTransform="matrix(1 0 0 -1 -237.5996 -239.9004)">
		<stop  offset="0" style="stop-color:#FFFFFF"/>
		<stop  offset="0.8615" style="stop-color:#000000"/>
	</linearGradient>
	<path fill="url(#SVGID_20_)" d="M13.471,64.939c0,0,0.035-0.383,0.037-0.394c0.2-1.124,0.436-2.34,0.687-3.625
		c0.913-4.688,2.048-10.522,2.048-15.729c0-3.456-0.508-6.307-1.512-8.474c-1.134-2.444-2.896-4.094-5.386-5.042
		c-0.359-0.114-0.653-0.305-0.881-0.563c-0.183-0.207-0.311-0.455-0.375-0.721c-0.002-0.008-0.048-0.397-0.048-0.397
		s0.067-0.473,0.067-0.476v-0.001c0.001-0.003,0.003-0.008,0.006-0.02c0.168-0.561,0.601-1.025,1.285-1.38
		c5.837-3.068,11.902-4.628,18.017-4.628c0.961,0,1.925,0.04,2.867,0.119l-0.011-0.002c4.836,0.364,9.106,1.357,13.236,2.317
		c1.086,0.251,2.112,0.492,3.139,0.716c0.019,0.003,0.551,0.112,0.551,0.112c4.414,0.894,8.581,1.738,12.607,1.738
		c5,0,9.446-1.337,13.986-4.209l-0.025,0.018c0.24-0.158,0.616-0.372,1.101-0.372c0.849,0,1.526,0.644,1.575,1.496
		c0.002,0.029,0.004,0.059,0.004,0.088v0.013c0,0.423-0.152,0.855-0.51,1.446c-2.388,3.92-3.498,7.499-3.498,11.269
		c0,2.122,0.324,4.093,0.666,6.18c0,0,0.129,0.785,0.138,0.834c0.008,0.037,0.349,1.752,0.349,1.752
		c0.51,2.521,0.991,4.9,0.991,7.289c0,2.503-0.552,4.711-1.687,6.749c-0.363,0.648-1.074,1.289-1.593,1.588
		c-0.003,0.004-0.008,0.006-0.011,0.01c-2.132,1.215-4.23,2.066-6.419,2.604c-1.021,0.251-2.067,0.433-3.11,0.541
		c-0.511,0.053-1.025,0.088-1.531,0.106l-0.748,0.021c-0.014,0-0.008,0-0.021,0h-0.178l-0.561-0.007
		c-3.104-0.064-6.113-0.811-9.022-1.531c-0.828-0.205-1.685-0.418-2.532-0.611c-3.104-0.705-6.148-1.048-9.303-1.048
		c-7.087,0-13.384,1.736-20.049,3.576l-1.767,0.485c-0.006,0.004-0.011,0.004-0.018,0.005c-0.205,0.055-0.408,0.081-0.604,0.081
		C14.313,66.866,13.471,66.038,13.471,64.939 M13.503,64.563L13.503,64.563L13.503,64.563 M13.508,64.532
		C13.508,64.531,13.508,64.531,13.508,64.532L13.508,64.532 M8.09,30.404L8.09,30.404L8.09,30.404 M8.074,30.324
		c0,0,0,0.001,0,0.003C8.074,30.324,8.074,30.324,8.074,30.324 M8.112,29.496v0.002V29.496"/>
	<path fill="#FFFFFF" d="M9.994,29.868c7.074-3.722,13.878-4.75,19.692-4.268c5.871,0.44,11.031,1.89,15.876,2.95
		c9.795,1.979,17.801,3.765,27.724-2.513C73.51,25.89,73.624,25.885,73.63,26c0.009,0.115-0.093,0.351-0.288,0.671
		c-4.939,8.11-3.716,13.465-2.833,18.963c1.023,5.327,2.39,9.909-0.176,14.52c-0.192,0.339-0.663,0.797-1.019,1.002
		c-2.033,1.16-3.998,1.935-5.92,2.406c-0.961,0.237-1.908,0.397-2.852,0.496c-0.471,0.049-0.939,0.082-1.406,0.1
		c-0.234,0.009-0.468,0.016-0.701,0.018c-0.231,0.002-0.465,0-0.695-0.005c-3.714-0.077-7.287-1.209-11.035-2.065
		c-11.936-2.709-21.43,0.285-31.252,2.975c-0.438,0.115-0.735-0.104-0.66-0.51c1.835-10.353,7.071-29.336-5.044-33.91
		c-0.117-0.032-0.199-0.077-0.245-0.131C9.48,30.5,9.465,30.47,9.459,30.438s-0.005-0.066,0.006-0.101
		C9.509,30.194,9.687,30.026,9.994,29.868L9.994,29.868L9.994,29.868L9.994,29.868L9.994,29.868L9.994,29.868z"/>
	<path fill="#FFFFFF" d="M17.138,61.494c0.938-4.814,2.106-10.805,2.106-16.301c0-3.951-0.586-7.135-1.792-9.736
		c-1.113-2.4-2.756-4.26-4.9-5.549c4.862-2.268,9.853-3.415,14.865-3.415c0.879,0,1.76,0.036,2.62,0.106
		C30.04,26.6,30.043,26.6,30.048,26.6c4.606,0.346,8.762,1.313,12.78,2.247c1.1,0.256,2.14,0.498,3.192,0.729
		c0.006,0.002,0.014,0.003,0.022,0.005l0.562,0.114c4.563,0.924,8.874,1.798,13.201,1.798c4.149,0,7.947-0.818,11.689-2.542
		c-1.395,3.107-2.059,6.127-2.059,9.289c0,2.367,0.36,4.553,0.709,6.666l0.138,0.852c0.003,0.018,0.005,0.027,0.008,0.045
		l0.358,1.799c0.479,2.369,0.931,4.606,0.931,6.694c0,2.006-0.415,3.688-1.306,5.291c0.004-0.006,0.004-0.011,0.004-0.011
		c-0.069,0.116-0.338,0.38-0.483,0.466l0.011-0.008c-1.888,1.077-3.736,1.829-5.65,2.301c-0.885,0.218-1.793,0.375-2.7,0.468
		c-0.445,0.047-0.894,0.079-1.336,0.096c-0.005,0-0.55,0.013-0.679,0.016c-0.031,0-0.155,0-0.155,0l-0.507-0.003
		c-2.761-0.058-5.478-0.731-8.354-1.444c-0.843-0.208-1.71-0.425-2.585-0.624c-3.33-0.757-6.59-1.125-9.973-1.125
		c-7.494,0-14.282,1.874-20.847,3.687c0,0-0.197,0.053-0.264,0.07C16.877,62.837,17.005,62.178,17.138,61.494 M10.231,28.813
		c0.001,0,0.005,0.001,0.008,0.001C10.236,28.814,10.234,28.813,10.231,28.813 M75.417,26.806c-0.001,0.001-0.003,0.001-0.004,0.003
		C75.414,26.807,75.416,26.806,75.417,26.806 M75.422,26.803L75.43,26.8C75.43,26.799,75.426,26.801,75.422,26.803 M73.497,25.184
		c0,0,0,0.004-0.003,0.011C73.495,25.188,73.497,25.184,73.497,25.184"/>
	<defs>
		<filter id="Adobe_OpacityMaskFilter_1_" filterUnits="userSpaceOnUse" x="8.817" y="23.894" width="67.397" height="41.572">
			<feColorMatrix  type="matrix" values="1 0 0 0 0  0 1 0 0 0  0 0 1 0 0  0 0 0 1 0"/>
		</filter>
	</defs>
	<mask maskUnits="userSpaceOnUse" x="8.817" y="23.894" width="67.397" height="41.572" id="SVGID_2_">
		<g filter="url(#Adobe_OpacityMaskFilter_1_)">
			<path fill="#FFFFFF" d="M9.994,29.868c7.074-3.722,13.878-4.75,19.692-4.268c5.871,0.44,11.031,1.89,15.876,2.95
				c9.795,1.979,17.801,3.765,27.724-2.513C73.51,25.89,73.624,25.885,73.63,26c0.009,0.115-0.093,0.351-0.288,0.671
				c-4.939,8.11-3.716,13.465-2.833,18.963c1.023,5.327,2.39,9.909-0.176,14.52c-0.192,0.339-0.663,0.797-1.019,1.002
				c-2.033,1.16-3.998,1.935-5.92,2.406c-0.961,0.237-1.908,0.397-2.852,0.496c-0.471,0.049-0.939,0.082-1.406,0.1
				c-0.234,0.009-0.468,0.016-0.701,0.018c-0.231,0.002-0.465,0-0.695-0.005c-3.714-0.077-7.287-1.209-11.035-2.065
				c-11.936-2.709-21.43,0.285-31.252,2.975c-0.438,0.115-0.735-0.104-0.66-0.51c1.835-10.353,7.071-29.336-5.044-33.91
				c-0.117-0.032-0.199-0.077-0.245-0.131C9.48,30.5,9.465,30.47,9.459,30.438s-0.005-0.066,0.006-0.101
				C9.509,30.194,9.687,30.026,9.994,29.868L9.994,29.868L9.994,29.868L9.994,29.868L9.994,29.868L9.994,29.868z"/>
		</g>
	</mask>
	<path mask="url(#SVGID_2_)" d="M26.75,63.229c0.064-0.006,0.125-0.013,0.189-0.018C26.877,63.216,26.813,63.223,26.75,63.229
		L26.75,63.229z M32.543,62.971c-0.098,0.002-0.196,0.002-0.293,0.002C32.348,62.971,32.446,62.973,32.543,62.971L32.543,62.971z
		 M75.941,24.631c-0.334,0.559-0.644,1.113-0.938,1.663c-0.104,0.195-0.2,0.387-0.302,0.58c-0.184,0.355-0.361,0.709-0.529,1.06
		c-0.109,0.228-0.217,0.452-0.316,0.678c-0.129,0.282-0.248,0.562-0.365,0.842c-0.122,0.285-0.245,0.572-0.355,0.855
		c-0.002,0.003-0.002,0.006-0.003,0.01c-1.099,2.808-1.7,5.459-1.889,7.934c-3.284,1.404-7.5,1.968-12.037,2.584
		c-0.108-5.4,1.851-9.728,3.282-12.192c2.596-0.368,5.177-0.999,7.705-1.935c0.047-0.016,0.091-0.034,0.137-0.051
		c0.529-0.198,1.059-0.41,1.583-0.637c0.124-0.053,0.248-0.106,0.373-0.16c0.474-0.211,0.94-0.437,1.409-0.673
		c0.136-0.069,0.275-0.131,0.412-0.202c0.592-0.308,1.18-0.631,1.761-0.98c0.22-0.144,0.333-0.147,0.345-0.032
		C76.223,24.088,76.129,24.318,75.941,24.631L75.941,24.631z M49.585,28.64c0.021-0.036,0.039-0.067,0.059-0.103
		c4.184,0.53,8.542,0.653,12.874,0.059c-0.01,0.018-0.018,0.03-0.029,0.048C58.148,29.261,53.779,29.162,49.585,28.64L49.585,28.64z
		 M35.245,38.793c0.493-5.871,1.348-9.87,2.107-12.46c2.766,0.5,5.393,1.077,7.939,1.627c1.403,0.272,2.839,0.498,4.293,0.679
		c-1.696,3.011-3.583,7.421-3.729,12.375C42.558,40.369,38.895,39.445,35.245,38.793L35.245,38.793z M24.571,25.182L24.571,25.182
		c1.719-0.104,3.373-0.078,4.933,0.072C27.944,25.104,26.29,25.078,24.571,25.182L24.571,25.182z M24.303,38.266
		c-4.319,0.412-7.868,1.313-9.46,1.773c-0.051-0.228-0.115-0.445-0.173-0.669c-0.024-0.088-0.045-0.176-0.067-0.263
		c-0.778-2.923-2.021-5.458-3.939-7.276c-0.003-0.003-0.007-0.006-0.01-0.009c-0.489-0.461-1.007-0.892-1.587-1.254
		c-0.107-0.042-0.179-0.098-0.218-0.162c-0.019-0.032-0.029-0.067-0.032-0.104c-0.001-0.035,0.005-0.074,0.019-0.114
		c0.058-0.16,0.249-0.344,0.564-0.511c0.82-0.445,1.633-0.841,2.442-1.214c0.256-0.119,0.511-0.228,0.764-0.338
		c0.572-0.25,1.14-0.479,1.707-0.694c0.263-0.101,0.527-0.205,0.788-0.298c0.732-0.259,1.462-0.493,2.181-0.7
		c0.313-0.09,0.622-0.159,0.931-0.239c0.434-0.112,0.87-0.218,1.297-0.311c0.389-0.083,0.772-0.159,1.156-0.228
		c0.32-0.058,0.637-0.105,0.955-0.153c1.002-0.151,1.989-0.265,2.95-0.322C24.46,28.023,24.27,32.585,24.303,38.266L24.303,38.266z
		 M35.245,38.793c-0.155,1.852-0.277,3.879-0.344,6.113c0.008,2.188,0.025,4.192,0.049,6.042c-2.761-0.289-5.684-0.356-8.96,0.091
		c-0.477,0.07-0.934,0.149-1.387,0.23c-0.003-1.818-0.04-3.733-0.135-5.761c-0.104-2.561-0.152-4.987-0.165-7.244
		c1.525-0.146,3.144-0.23,4.811-0.213C31.106,38.14,33.174,38.425,35.245,38.793L35.245,38.793z M45.856,41.014
		c3.089,0.605,5.857,0.961,7.992,0.609c1.813-0.304,3.607-0.549,5.357-0.787c0.021,1.112,0.122,2.263,0.343,3.459
		c0.655,2.817,1.39,5.195,1.685,7.863c-2.305,0.372-4.723,0.69-7.215,0.907c-2.372,0.16-4.574,0.042-6.704-0.204
		c-0.048-2.285-0.317-4.62-0.967-6.777C45.93,44.354,45.809,42.659,45.856,41.014L45.856,41.014z M73.152,50.436
		c0.578,3.182,0.55,6.185-1.231,9.071c-0.209,0.34-0.731,2.315-1.129,2.505c-2.282,1.059-4.538,1.104-6.769,1.68
		c-1.115,0.289-1.916,0.295-3.023,0.466c-0.344,0.053-1.193-0.058-1.537-0.013c1.657-5.016,2.112-8.896,1.77-11.984
		c4.49-0.722,8.537-1.661,11.756-2.537C73.049,49.896,73.1,50.166,73.152,50.436L73.152,50.436z M46.248,63.695
		c-0.858-0.064-1.717-0.129-2.583-0.192c-1.371-0.116-2.742-0.222-4.116-0.308c-0.069-0.004-0.138-0.01-0.207-0.014
		c-1.379-0.084-2.758-0.148-4.139-0.185c-0.07-2.775-0.184-6.728-0.253-12.049c4.288,0.448,8.184,1.432,12.362,1.914
		C47.405,57.194,46.699,61.33,46.248,63.695L46.248,63.695z M24.06,63.527L24.06,63.527c0.001,0,0.003,0,0.005,0
		C24.063,63.527,24.062,63.527,24.06,63.527L24.06,63.527z M24.044,63.529c-0.648,0.089-1.295,0.193-1.942,0.307
		c-0.125,0.021-0.253,0.047-0.378,0.068c-0.506,0.094-1.012,0.195-1.517,0.307c-0.202,0.045-0.402,0.088-0.604,0.135
		c-0.466,0.106-0.931,0.227-1.394,0.35c-0.195,0.052-0.387,0.1-0.581,0.152c-0.641,0.18-1.28,0.37-1.917,0.582
		c-0.397,0.121-0.705-0.074-0.682-0.455c0.157-3.022,0.525-6.891,0.69-10.97c2.031-0.937,5.018-2.037,8.884-2.734
		c0.008,5.114-0.284,9.333-0.543,12.256C24.055,63.527,24.049,63.529,24.044,63.529L24.044,63.529z M37.369,26.28
		c-0.005,0.02-0.011,0.034-0.016,0.053c-2.482-0.45-5.075-0.839-7.849-1.079C32.282,25.494,34.88,25.857,37.369,26.28L37.369,26.28z
		 M47.799,63.803c-0.508-0.035-1.015-0.066-1.526-0.105C46.786,63.734,47.29,63.768,47.799,63.803L47.799,63.803z M49.784,63.926
		c0.429,0.025,0.856,0.045,1.284,0.063C50.642,63.973,50.213,63.949,49.784,63.926L49.784,63.926z M54.231,64.066
		c-0.334-0.002-0.671-0.012-1.006-0.017C53.56,64.057,53.898,64.066,54.231,64.066L54.231,64.066z"/>
	
		<linearGradient id="SVGID_21_" gradientUnits="userSpaceOnUse" x1="263.8975" y1="-258.752" x2="296.9634" y2="-307.7743" gradientTransform="matrix(1 0 0 -1 -237.5996 -239.9004)">
		<stop  offset="0" style="stop-color:#000000;stop-opacity:0"/>
		<stop  offset="0.4385" style="stop-color:#000000;stop-opacity:0.62"/>
		<stop  offset="0.7192" style="stop-color:#000000;stop-opacity:0.14"/>
		<stop  offset="1" style="stop-color:#000000;stop-opacity:0.62"/>
	</linearGradient>
	<path fill="url(#SVGID_21_)" fill-opacity="0.75" d="M9.994,29.868c7.074-3.722,13.878-4.75,19.692-4.268
		c5.871,0.44,11.031,1.89,15.876,2.95c9.795,1.979,17.801,3.765,27.724-2.513C73.51,25.89,73.624,25.885,73.63,26
		c0.009,0.115-0.093,0.351-0.288,0.671c-4.939,8.11-3.716,13.465-2.833,18.963c1.023,5.327,2.39,9.909-0.176,14.52
		c-0.192,0.339-0.663,0.797-1.019,1.002c-2.033,1.16-3.998,1.935-5.92,2.406c-0.961,0.237-1.908,0.397-2.852,0.496
		c-0.471,0.049-0.939,0.082-1.406,0.1c-0.234,0.009-0.468,0.016-0.701,0.018c-0.231,0.002-0.465,0-0.695-0.005
		c-3.714-0.077-7.287-1.209-11.035-2.065c-11.936-2.709-21.43,0.285-31.252,2.975c-0.438,0.115-0.735-0.104-0.66-0.51
		c1.835-10.353,7.071-29.336-5.044-33.91c-0.117-0.032-0.199-0.077-0.245-0.131C9.48,30.5,9.465,30.47,9.459,30.438
		s-0.005-0.066,0.006-0.101C9.509,30.194,9.687,30.026,9.994,29.868L9.994,29.868L9.994,29.868L9.994,29.868L9.994,29.868
		L9.994,29.868z"/>
	<path fill="#03FC30" d="M81.609,93.029c-0.692-0.332-1.133-1.032-1.133-1.801c0,0,0-6.121,0-8.771c-2.681,0-9.018,0-9.018,0
		c-1.104,0-2-0.896-2-2.001V64.462c0-1.104,0.896-2,2-2c0,0,6.337,0,9.018,0c0-2.619,0-8.48,0-8.48c0-0.758,0.428-1.45,1.104-1.789
		c0.282-0.141,0.589-0.211,0.896-0.211c0.424,0,0.846,0.135,1.197,0.399l24.07,18.02c0.497,0.373,0.793,0.951,0.803,1.57
		c0,0.01,0,0.021,0,0.029c0,0.609-0.277,1.186-0.753,1.564L83.725,92.791c-0.363,0.289-0.804,0.438-1.248,0.438
		C82.184,93.229,81.887,93.163,81.609,93.029"/>
	<g>
		
			<linearGradient id="SVGID_22_" gradientUnits="userSpaceOnUse" x1="326.6045" y1="-331.1284" x2="326.6045" y2="-293.8823" gradientTransform="matrix(1 0 0 -1 -237.5996 -239.9004)">
			<stop  offset="0" style="stop-color:#00DF34"/>
			<stop  offset="0.1758" style="stop-color:#00CD26"/>
			<stop  offset="0.4969" style="stop-color:#00B211"/>
			<stop  offset="0.782" style="stop-color:#00A204"/>
			<stop  offset="1" style="stop-color:#009C00"/>
		</linearGradient>
		<polygon fill="url(#SVGID_22_)" points="82.477,91.229 106.548,72.002 82.477,53.982 82.477,64.462 71.46,64.462 71.46,80.456 
			82.477,80.456 		"/>
	</g>
	
		<linearGradient id="SVGID_23_" gradientUnits="userSpaceOnUse" x1="325.9707" y1="-312.9409" x2="325.9707" y2="-296.8774" gradientTransform="matrix(1 0 0 -1 -237.5996 -239.9004)">
		<stop  offset="0" style="stop-color:#FFFFFF;stop-opacity:0"/>
		<stop  offset="1" style="stop-color:#FFFFFF;stop-opacity:0.8"/>
	</linearGradient>
	<path fill="url(#SVGID_23_)" d="M73.46,72.912c0-1.999,0-5.27,0-7.449c2.681,0,9.017,0,9.017,0c1.105,0,2.002-0.896,2.002-2
		c0,0,0-3.426,0-6.486c4.332,3.243,15.844,11.864,18.801,14.078c-0.229,0.184-0.323,0.258-0.492,0.395
		c-3.916-0.711-7.367-1.068-10.27-1.068c-2.785,0-4.98,0.325-6.713,0.994c-2.904,1.121-5.988,1.666-9.428,1.666
		C75.434,73.04,74.458,72.997,73.46,72.912"/>
</g>
<g id="kia">
	
		<radialGradient id="SVGID_24_" cx="267.3525" cy="-2463.7383" r="11.9295" gradientTransform="matrix(1.3753 0 0 -0.1457 -273.2091 -266.0768)" gradientUnits="userSpaceOnUse">
		<stop  offset="0" style="stop-color:#000000;stop-opacity:0.42"/>
		<stop  offset="0.3095" style="stop-color:#020202;stop-opacity:0.29"/>
		<stop  offset="0.462" style="stop-color:#0A0A0A;stop-opacity:0.226"/>
		<stop  offset="0.5803" style="stop-color:#171717;stop-opacity:0.1763"/>
		<stop  offset="0.6808" style="stop-color:#2A2A2A;stop-opacity:0.1341"/>
		<stop  offset="0.7701" style="stop-color:#424242;stop-opacity:0.0965"/>
		<stop  offset="0.8516" style="stop-color:#606060;stop-opacity:0.0623"/>
		<stop  offset="0.9258" style="stop-color:#838383;stop-opacity:0.0312"/>
		<stop  offset="0.9946" style="stop-color:#ABABAB;stop-opacity:0.0022"/>
		<stop  offset="1" style="stop-color:#AEAEAE;stop-opacity:0"/>
	</radialGradient>
	<path fill="url(#SVGID_24_)" fill-opacity="0.5" d="M94.479,89.7c-12.713,0-23.02,1.429-23.02,3.188s10.307,3.189,23.02,3.189
		c12.715,0,23.021-1.43,23.021-3.189S107.193,89.7,94.479,89.7L94.479,89.7z"/>
	
		<radialGradient id="SVGID_25_" cx="321.6006" cy="-1222.4912" r="4.8708" gradientTransform="matrix(1 0 0 -0.29 -237.5996 -261.6329)" gradientUnits="userSpaceOnUse">
		<stop  offset="0.6962" style="stop-color:#000000;stop-opacity:0.14"/>
		<stop  offset="0.8155" style="stop-color:#424242;stop-opacity:0.085"/>
		<stop  offset="1" style="stop-color:#AEAEAE;stop-opacity:0"/>
	</radialGradient>
	<path fill="url(#SVGID_25_)" d="M83.999,90.7c-3.606,0-6.531,0.979-6.531,2.188s2.925,2.189,6.531,2.189
		c3.608,0,6.533-0.98,6.533-2.189S87.607,90.7,83.999,90.7L83.999,90.7z"/>
	
		<linearGradient id="SVGID_26_" gradientUnits="userSpaceOnUse" x1="248.3926" y1="-326.4731" x2="299.0723" y2="-326.4731" gradientTransform="matrix(1 0 0 -1 -237.5996 -239.9004)">
		<stop  offset="0.1654" style="stop-color:#000000;stop-opacity:0.6"/>
		<stop  offset="0.7805" style="stop-color:#000000;stop-opacity:0"/>
	</linearGradient>
	<path fill="url(#SVGID_26_)" d="M61.188,88.186c-0.146,0.965-0.082,1.391-0.274,1.547c-0.022,0.021-0.05,0.033-0.078,0.041
		c-0.015,0.002-0.028,0.004-0.045,0.006c-0.015,0-0.03-0.002-0.048-0.004c-0.064-0.01-0.145-0.045-0.237-0.104
		c-0.185-0.12-0.426,0.091-0.879,0.035c-20.24-1.562-33.887-1.999-46.945-2.13c-0.953,0.131-1.542-0.666-1.792-1.702
		c-0.063-0.261-0.096-0.508-0.096-0.737c0.001-0.229,0.035-0.438,0.109-0.619c0.074-0.182,0.188-0.334,0.346-0.447
		c0.08-0.059,0.17-0.104,0.272-0.143c0.05-0.018,0.104-0.031,0.162-0.045c0.056-0.013,0.117-0.021,0.18-0.027
		c13.755-0.685,24.264-0.969,48.531,1.336c0.371,0.259,0.623-0.06,0.791,0.182c0.086,0.122,0.147,0.242,0.192,0.367
		c0.022,0.063,0.04,0.125,0.054,0.189c0.016,0.063,0.026,0.127,0.032,0.194c0.054,0.532-0.114,1.161-0.271,2.063l0,0h-0.004V88.186z
		"/>
	
		<linearGradient id="SVGID_27_" gradientUnits="userSpaceOnUse" x1="261.7285" y1="-288.6289" x2="234.677" y2="-304.247" gradientTransform="matrix(1 0 0 -1 -237.5996 -239.9004)">
		<stop  offset="0" style="stop-color:#3B3B3B"/>
		<stop  offset="0.1001" style="stop-color:#4A4A4A"/>
		<stop  offset="0.5229" style="stop-color:#858585"/>
		<stop  offset="0.8349" style="stop-color:#AAAAAA"/>
		<stop  offset="1" style="stop-color:#B8B8B8"/>
	</linearGradient>
	<path fill="url(#SVGID_27_)" d="M13.154,87.54h-0.015c-0.013,0-0.027,0-0.038-0.002c-2.536-0.062-4.239-1.595-4.239-3.819v-0.055
		c0-0.016,0-0.03,0.001-0.046c0.091-3.964,0.179-8.192,0.179-12.464c0-11.884-0.618-25.907-5.2-39.794
		c-0.203-0.557-0.431-1.291-0.431-2.076c0-1.488,0.903-3.169,3.44-3.425c0.008-0.002,0.011-0.002,0.011-0.002s0,0-0.001,0
		c-0.003,0-0.01,0-0.01,0s0,0,0.002,0c0.001,0,0.005,0,0.009,0l0.542-0.027c2.878,0,5.282,2.199,5.766,4.282
		c1.747,6.241,2.95,12.804,3.677,20.054c0.596,5.943,0.873,12.314,0.873,20.048c0,4.574-0.1,9.229-0.2,13.604
		c-0.051,2.227-1.767,3.723-4.268,3.723L13.154,87.54"/>
	
		<linearGradient id="SVGID_28_" gradientUnits="userSpaceOnUse" x1="243.0127" y1="-296.5859" x2="253.3193" y2="-296.5859" gradientTransform="matrix(1 0 0 -1 -237.5996 -239.9004)">
		<stop  offset="0" style="stop-color:#B8B8B8"/>
		<stop  offset="0.304" style="stop-color:#B6B6B6;stop-opacity:0.8541"/>
		<stop  offset="0.4738" style="stop-color:#AEAEAE;stop-opacity:0.7726"/>
		<stop  offset="0.6106" style="stop-color:#A0A0A0;stop-opacity:0.7069"/>
		<stop  offset="0.7297" style="stop-color:#8C8C8C;stop-opacity:0.6497"/>
		<stop  offset="0.8374" style="stop-color:#737373;stop-opacity:0.598"/>
		<stop  offset="0.9354" style="stop-color:#545454;stop-opacity:0.551"/>
		<stop  offset="1" style="stop-color:#3B3B3B;stop-opacity:0.52"/>
	</linearGradient>
	<path fill="url(#SVGID_28_)" d="M7.054,27.848c2.056-0.209,3.911,1.48,4.177,2.753c4.94,17.619,4.702,35.392,4.29,53.172
		c-0.03,1.285-1.085,1.795-2.372,1.767c-1.288-0.031-2.317-0.59-2.287-1.876c0.41-17.779,0.623-35.547-5.128-52.957
		C5.287,29.49,4.997,28.058,7.054,27.848L7.054,27.848L7.054,27.848z"/>
	<path fill="#4E4E4E" d="M7.187,30.07c0,0,2.018-0.381,3.533-0.506c0.261,0.348,0.442,0.707,0.511,1.038
		c0.993,3.541,1.768,7.087,2.383,10.639C10.853,35.76,7.187,30.07,7.187,30.07L7.187,30.07z M15.646,63.754
		c0.08,3.346,0.09,6.688,0.056,10.035c-1.544-4.227-3.144-8.243-3.144-8.243L15.646,63.754L15.646,63.754z"/>
	
		<linearGradient id="SVGID_29_" gradientUnits="userSpaceOnUse" x1="245.6406" y1="-285.0771" x2="314.0449" y2="-285.0771" gradientTransform="matrix(1 0 0 -1 -237.5996 -239.9004)">
		<stop  offset="0" style="stop-color:#FFFFFF"/>
		<stop  offset="0.8615" style="stop-color:#000000"/>
	</linearGradient>
	<path fill="url(#SVGID_29_)" d="M13.471,64.939c0,0,0.035-0.383,0.037-0.394c0.2-1.124,0.436-2.34,0.687-3.625
		c0.913-4.688,2.048-10.522,2.048-15.729c0-3.456-0.508-6.307-1.512-8.474c-1.134-2.444-2.896-4.094-5.386-5.042
		c-0.359-0.114-0.653-0.305-0.881-0.563c-0.183-0.207-0.311-0.455-0.375-0.721c-0.002-0.008-0.048-0.397-0.048-0.397
		s0.067-0.473,0.067-0.476v-0.001c0.001-0.003,0.003-0.008,0.006-0.02c0.168-0.561,0.601-1.025,1.285-1.38
		c5.837-3.068,11.902-4.628,18.017-4.628c0.961,0,1.925,0.04,2.867,0.119l-0.011-0.002c4.836,0.364,9.106,1.357,13.236,2.317
		c1.086,0.251,2.112,0.492,3.139,0.716c0.019,0.003,0.551,0.112,0.551,0.112c4.414,0.894,8.581,1.738,12.607,1.738
		c5,0,9.446-1.337,13.986-4.209l-0.025,0.018c0.24-0.158,0.616-0.372,1.101-0.372c0.849,0,1.526,0.644,1.575,1.496
		c0.002,0.029,0.004,0.059,0.004,0.088v0.013c0,0.423-0.152,0.855-0.51,1.446c-2.388,3.92-3.498,7.499-3.498,11.269
		c0,2.122,0.324,4.093,0.666,6.18c0,0,0.129,0.785,0.138,0.834c0.008,0.037,0.349,1.752,0.349,1.752
		c0.51,2.521,0.991,4.9,0.991,7.289c0,2.503-0.552,4.711-1.687,6.749c-0.363,0.648-1.074,1.289-1.593,1.588
		c-0.003,0.004-0.008,0.006-0.011,0.01c-2.132,1.215-4.23,2.066-6.419,2.604c-1.021,0.251-2.067,0.433-3.11,0.541
		c-0.511,0.053-1.025,0.088-1.531,0.106l-0.748,0.021c-0.014,0-0.008,0-0.021,0h-0.178l-0.561-0.007
		c-3.104-0.064-6.113-0.811-9.022-1.531c-0.828-0.205-1.685-0.418-2.532-0.611c-3.104-0.705-6.148-1.048-9.303-1.048
		c-7.087,0-13.384,1.736-20.049,3.576l-1.767,0.485c-0.006,0.004-0.011,0.004-0.018,0.005c-0.205,0.055-0.408,0.081-0.604,0.081
		C14.313,66.866,13.471,66.038,13.471,64.939 M13.503,64.563L13.503,64.563L13.503,64.563 M13.508,64.532
		C13.508,64.531,13.508,64.531,13.508,64.532L13.508,64.532 M8.09,30.404L8.09,30.404L8.09,30.404 M8.074,30.324
		c0,0,0,0.001,0,0.003C8.074,30.324,8.074,30.324,8.074,30.324 M8.112,29.496v0.002V29.496"/>
	<path fill="#FFFFFF" d="M9.994,29.868c7.074-3.722,13.878-4.75,19.692-4.268c5.871,0.44,11.031,1.89,15.876,2.95
		c9.795,1.979,17.801,3.765,27.724-2.513C73.51,25.89,73.624,25.885,73.63,26c0.009,0.115-0.093,0.351-0.288,0.671
		c-4.939,8.11-3.716,13.465-2.833,18.963c1.023,5.327,2.39,9.909-0.176,14.52c-0.192,0.339-0.663,0.797-1.019,1.002
		c-2.033,1.16-3.998,1.935-5.92,2.406c-0.961,0.237-1.908,0.397-2.852,0.496c-0.471,0.049-0.939,0.082-1.406,0.1
		c-0.234,0.009-0.468,0.016-0.701,0.018c-0.231,0.002-0.465,0-0.695-0.005c-3.714-0.077-7.287-1.209-11.035-2.065
		c-11.936-2.709-21.43,0.285-31.252,2.975c-0.438,0.115-0.735-0.104-0.66-0.51c1.835-10.353,7.071-29.336-5.044-33.91
		c-0.117-0.032-0.199-0.077-0.245-0.131C9.48,30.5,9.465,30.47,9.459,30.438s-0.005-0.066,0.006-0.101
		C9.509,30.194,9.687,30.026,9.994,29.868L9.994,29.868L9.994,29.868L9.994,29.868L9.994,29.868L9.994,29.868z"/>
	<path fill="#FFFFFF" d="M17.138,61.494c0.938-4.814,2.106-10.805,2.106-16.301c0-3.951-0.586-7.135-1.792-9.736
		c-1.113-2.4-2.756-4.26-4.9-5.549c4.862-2.268,9.853-3.415,14.865-3.415c0.879,0,1.76,0.036,2.62,0.106
		C30.04,26.6,30.043,26.6,30.048,26.6c4.606,0.346,8.762,1.313,12.78,2.247c1.1,0.256,2.14,0.498,3.192,0.729
		c0.006,0.002,0.014,0.003,0.022,0.005l0.562,0.114c4.563,0.924,8.874,1.798,13.201,1.798c4.149,0,7.947-0.818,11.689-2.542
		c-1.395,3.107-2.059,6.127-2.059,9.289c0,2.367,0.36,4.553,0.709,6.666l0.138,0.852c0.003,0.018,0.005,0.027,0.008,0.045
		l0.358,1.799c0.479,2.369,0.931,4.606,0.931,6.694c0,2.006-0.415,3.688-1.306,5.291c0.004-0.006,0.004-0.011,0.004-0.011
		c-0.069,0.116-0.338,0.38-0.483,0.466l0.011-0.008c-1.888,1.077-3.736,1.829-5.65,2.301c-0.885,0.218-1.793,0.375-2.7,0.468
		c-0.445,0.047-0.894,0.079-1.336,0.096c-0.005,0-0.55,0.013-0.679,0.016c-0.031,0-0.155,0-0.155,0l-0.507-0.003
		c-2.761-0.058-5.478-0.731-8.354-1.444c-0.843-0.208-1.71-0.425-2.585-0.624c-3.33-0.757-6.59-1.125-9.973-1.125
		c-7.494,0-14.282,1.874-20.847,3.687c0,0-0.197,0.053-0.264,0.07C16.877,62.837,17.005,62.178,17.138,61.494 M10.231,28.813
		c0.001,0,0.005,0.001,0.008,0.001C10.236,28.814,10.234,28.813,10.231,28.813 M75.417,26.806c-0.001,0.001-0.003,0.001-0.004,0.003
		C75.414,26.807,75.416,26.806,75.417,26.806 M75.422,26.803L75.43,26.8C75.43,26.799,75.426,26.801,75.422,26.803 M73.497,25.184
		c0,0,0,0.004-0.003,0.011C73.495,25.188,73.497,25.184,73.497,25.184"/>
	<defs>
		<filter id="Adobe_OpacityMaskFilter_2_" filterUnits="userSpaceOnUse" x="8.817" y="23.894" width="67.397" height="41.572">
			<feColorMatrix  type="matrix" values="1 0 0 0 0  0 1 0 0 0  0 0 1 0 0  0 0 0 1 0"/>
		</filter>
	</defs>
	<mask maskUnits="userSpaceOnUse" x="8.817" y="23.894" width="67.397" height="41.572" id="SVGID_3_">
		<g filter="url(#Adobe_OpacityMaskFilter_2_)">
			<path fill="#FFFFFF" d="M9.994,29.868c7.074-3.722,13.878-4.75,19.692-4.268c5.871,0.44,11.031,1.89,15.876,2.95
				c9.795,1.979,17.801,3.765,27.724-2.513C73.51,25.89,73.624,25.885,73.63,26c0.009,0.115-0.093,0.351-0.288,0.671
				c-4.939,8.11-3.716,13.465-2.833,18.963c1.023,5.327,2.39,9.909-0.176,14.52c-0.192,0.339-0.663,0.797-1.019,1.002
				c-2.033,1.16-3.998,1.935-5.92,2.406c-0.961,0.237-1.908,0.397-2.852,0.496c-0.471,0.049-0.939,0.082-1.406,0.1
				c-0.234,0.009-0.468,0.016-0.701,0.018c-0.231,0.002-0.465,0-0.695-0.005c-3.714-0.077-7.287-1.209-11.035-2.065
				c-11.936-2.709-21.43,0.285-31.252,2.975c-0.438,0.115-0.735-0.104-0.66-0.51c1.835-10.353,7.071-29.336-5.044-33.91
				c-0.117-0.032-0.199-0.077-0.245-0.131C9.48,30.5,9.465,30.47,9.459,30.438s-0.005-0.066,0.006-0.101
				C9.509,30.194,9.687,30.026,9.994,29.868L9.994,29.868L9.994,29.868L9.994,29.868L9.994,29.868L9.994,29.868z"/>
		</g>
	</mask>
	<path mask="url(#SVGID_3_)" d="M26.75,63.229c0.064-0.006,0.125-0.013,0.189-0.018C26.877,63.216,26.813,63.223,26.75,63.229
		L26.75,63.229z M32.543,62.971c-0.098,0.002-0.196,0.002-0.293,0.002C32.348,62.971,32.446,62.973,32.543,62.971L32.543,62.971z
		 M75.941,24.631c-0.334,0.559-0.644,1.113-0.938,1.663c-0.104,0.195-0.2,0.387-0.302,0.58c-0.184,0.355-0.361,0.709-0.529,1.06
		c-0.109,0.228-0.217,0.452-0.316,0.678c-0.129,0.282-0.248,0.562-0.365,0.842c-0.122,0.285-0.245,0.572-0.355,0.855
		c-0.002,0.003-0.002,0.006-0.003,0.01c-1.099,2.808-1.7,5.459-1.889,7.934c-3.284,1.404-7.5,1.968-12.037,2.584
		c-0.108-5.4,1.851-9.728,3.282-12.192c2.596-0.368,5.177-0.999,7.705-1.935c0.047-0.016,0.091-0.034,0.137-0.051
		c0.529-0.198,1.059-0.41,1.583-0.637c0.124-0.053,0.248-0.106,0.373-0.16c0.474-0.211,0.94-0.437,1.409-0.673
		c0.136-0.069,0.275-0.131,0.412-0.202c0.592-0.308,1.18-0.631,1.761-0.98c0.22-0.144,0.333-0.147,0.345-0.032
		C76.223,24.088,76.129,24.318,75.941,24.631L75.941,24.631z M49.585,28.64c0.021-0.036,0.039-0.067,0.059-0.103
		c4.184,0.53,8.542,0.653,12.874,0.059c-0.01,0.018-0.018,0.03-0.029,0.048C58.148,29.261,53.779,29.162,49.585,28.64L49.585,28.64z
		 M35.245,38.793c0.493-5.871,1.348-9.87,2.107-12.46c2.766,0.5,5.393,1.077,7.939,1.627c1.403,0.272,2.839,0.498,4.293,0.679
		c-1.696,3.011-3.583,7.421-3.729,12.375C42.558,40.369,38.895,39.445,35.245,38.793L35.245,38.793z M24.571,25.182L24.571,25.182
		c1.719-0.104,3.373-0.078,4.933,0.072C27.944,25.104,26.29,25.078,24.571,25.182L24.571,25.182z M24.303,38.266
		c-4.319,0.412-7.868,1.313-9.46,1.773c-0.051-0.228-0.115-0.445-0.173-0.669c-0.024-0.088-0.045-0.176-0.067-0.263
		c-0.778-2.923-2.021-5.458-3.939-7.276c-0.003-0.003-0.007-0.006-0.01-0.009c-0.489-0.461-1.007-0.892-1.587-1.254
		c-0.107-0.042-0.179-0.098-0.218-0.162c-0.019-0.032-0.029-0.067-0.032-0.104c-0.001-0.035,0.005-0.074,0.019-0.114
		c0.058-0.16,0.249-0.344,0.564-0.511c0.82-0.445,1.633-0.841,2.442-1.214c0.256-0.119,0.511-0.228,0.764-0.338
		c0.572-0.25,1.14-0.479,1.707-0.694c0.263-0.101,0.527-0.205,0.788-0.298c0.732-0.259,1.462-0.493,2.181-0.7
		c0.313-0.09,0.622-0.159,0.931-0.239c0.434-0.112,0.87-0.218,1.297-0.311c0.389-0.083,0.772-0.159,1.156-0.228
		c0.32-0.058,0.637-0.105,0.955-0.153c1.002-0.151,1.989-0.265,2.95-0.322C24.46,28.023,24.27,32.585,24.303,38.266L24.303,38.266z
		 M35.245,38.793c-0.155,1.852-0.277,3.879-0.344,6.113c0.008,2.188,0.025,4.192,0.049,6.042c-2.761-0.289-5.684-0.356-8.96,0.091
		c-0.477,0.07-0.934,0.149-1.387,0.23c-0.003-1.818-0.04-3.733-0.135-5.761c-0.104-2.561-0.152-4.987-0.165-7.244
		c1.525-0.146,3.144-0.23,4.811-0.213C31.106,38.14,33.174,38.425,35.245,38.793L35.245,38.793z M45.856,41.014
		c3.089,0.605,5.857,0.961,7.992,0.609c1.813-0.304,3.607-0.549,5.357-0.787c0.021,1.112,0.122,2.263,0.343,3.459
		c0.655,2.817,1.39,5.195,1.685,7.863c-2.305,0.372-4.723,0.69-7.215,0.907c-2.372,0.16-4.574,0.042-6.704-0.204
		c-0.048-2.285-0.317-4.62-0.967-6.777C45.93,44.354,45.809,42.659,45.856,41.014L45.856,41.014z M73.152,50.436
		c0.578,3.182,0.55,6.185-1.231,9.071c-0.209,0.34-0.731,2.315-1.129,2.505c-2.282,1.059-4.538,1.104-6.769,1.68
		c-1.115,0.289-1.916,0.295-3.023,0.466c-0.344,0.053-1.193-0.058-1.537-0.013c1.657-5.016,2.112-8.896,1.77-11.984
		c4.49-0.722,8.537-1.661,11.756-2.537C73.049,49.896,73.1,50.166,73.152,50.436L73.152,50.436z M46.248,63.695
		c-0.858-0.064-1.717-0.129-2.583-0.192c-1.371-0.116-2.742-0.222-4.116-0.308c-0.069-0.004-0.138-0.01-0.207-0.014
		c-1.379-0.084-2.758-0.148-4.139-0.185c-0.07-2.775-0.184-6.728-0.253-12.049c4.288,0.448,8.184,1.432,12.362,1.914
		C47.405,57.194,46.699,61.33,46.248,63.695L46.248,63.695z M24.06,63.527L24.06,63.527c0.001,0,0.003,0,0.005,0
		C24.063,63.527,24.062,63.527,24.06,63.527L24.06,63.527z M24.044,63.529c-0.648,0.089-1.295,0.193-1.942,0.307
		c-0.125,0.021-0.253,0.047-0.378,0.068c-0.506,0.094-1.012,0.195-1.517,0.307c-0.202,0.045-0.402,0.088-0.604,0.135
		c-0.466,0.106-0.931,0.227-1.394,0.35c-0.195,0.052-0.387,0.1-0.581,0.152c-0.641,0.18-1.28,0.37-1.917,0.582
		c-0.397,0.121-0.705-0.074-0.682-0.455c0.157-3.022,0.525-6.891,0.69-10.97c2.031-0.937,5.018-2.037,8.884-2.734
		c0.008,5.114-0.284,9.333-0.543,12.256C24.055,63.527,24.049,63.529,24.044,63.529L24.044,63.529z M37.369,26.28
		c-0.005,0.02-0.011,0.034-0.016,0.053c-2.482-0.45-5.075-0.839-7.849-1.079C32.282,25.494,34.88,25.857,37.369,26.28L37.369,26.28z
		 M47.799,63.803c-0.508-0.035-1.015-0.066-1.526-0.105C46.786,63.734,47.29,63.768,47.799,63.803L47.799,63.803z M49.784,63.926
		c0.429,0.025,0.856,0.045,1.284,0.063C50.642,63.973,50.213,63.949,49.784,63.926L49.784,63.926z M54.231,64.066
		c-0.334-0.002-0.671-0.012-1.006-0.017C53.56,64.057,53.898,64.066,54.231,64.066L54.231,64.066z"/>
	
		<linearGradient id="SVGID_30_" gradientUnits="userSpaceOnUse" x1="263.8975" y1="-258.752" x2="296.9634" y2="-307.7743" gradientTransform="matrix(1 0 0 -1 -237.5996 -239.9004)">
		<stop  offset="0" style="stop-color:#000000;stop-opacity:0"/>
		<stop  offset="0.4385" style="stop-color:#000000;stop-opacity:0.62"/>
		<stop  offset="0.7192" style="stop-color:#000000;stop-opacity:0.14"/>
		<stop  offset="1" style="stop-color:#000000;stop-opacity:0.62"/>
	</linearGradient>
	<path fill="url(#SVGID_30_)" fill-opacity="0.75" d="M9.994,29.868c7.074-3.722,13.878-4.75,19.692-4.268
		c5.871,0.44,11.031,1.89,15.876,2.95c9.795,1.979,17.801,3.765,27.724-2.513C73.51,25.89,73.624,25.885,73.63,26
		c0.009,0.115-0.093,0.351-0.288,0.671c-4.939,8.11-3.716,13.465-2.833,18.963c1.023,5.327,2.39,9.909-0.176,14.52
		c-0.192,0.339-0.663,0.797-1.019,1.002c-2.033,1.16-3.998,1.935-5.92,2.406c-0.961,0.237-1.908,0.397-2.852,0.496
		c-0.471,0.049-0.939,0.082-1.406,0.1c-0.234,0.009-0.468,0.016-0.701,0.018c-0.231,0.002-0.465,0-0.695-0.005
		c-3.714-0.077-7.287-1.209-11.035-2.065c-11.936-2.709-21.43,0.285-31.252,2.975c-0.438,0.115-0.735-0.104-0.66-0.51
		c1.835-10.353,7.071-29.336-5.044-33.91c-0.117-0.032-0.199-0.077-0.245-0.131C9.48,30.5,9.465,30.47,9.459,30.438
		s-0.005-0.066,0.006-0.101C9.509,30.194,9.687,30.026,9.994,29.868L9.994,29.868L9.994,29.868L9.994,29.868L9.994,29.868
		L9.994,29.868z"/>
	<path fill="#9E171E" d="M81.609,93.029c-0.692-0.332-1.133-1.032-1.133-1.801c0,0,0-6.121,0-8.771c-2.681,0-9.018,0-9.018,0
		c-1.104,0-2-0.896-2-2.001V64.462c0-1.104,0.896-2,2-2c0,0,6.337,0,9.018,0c0-2.619,0-8.48,0-8.48c0-0.758,0.428-1.45,1.104-1.789
		c0.282-0.141,0.589-0.211,0.896-0.211c0.424,0,0.846,0.135,1.197,0.399l24.07,18.02c0.497,0.373,0.793,0.951,0.803,1.57
		c0,0.01,0,0.021,0,0.029c0,0.609-0.277,1.186-0.753,1.564L83.725,92.791c-0.363,0.289-0.804,0.438-1.248,0.438
		C82.184,93.229,81.887,93.163,81.609,93.029"/>
	<g>
		
			<linearGradient id="SVGID_31_" gradientUnits="userSpaceOnUse" x1="326.6045" y1="-331.1284" x2="326.6045" y2="-293.8823" gradientTransform="matrix(1 0 0 -1 -237.5996 -239.9004)">
			<stop  offset="0" style="stop-color:#FFFFFF"/>
			<stop  offset="0.1758" style="stop-color:#E7E9EA"/>
			<stop  offset="0.4969" style="stop-color:#CDD2D5"/>
			<stop  offset="0.782" style="stop-color:#C5CACC"/>
			<stop  offset="1" style="stop-color:#BABDC0"/>
		</linearGradient>
		<polygon fill="url(#SVGID_31_)" points="82.477,91.229 106.548,72.002 82.477,53.982 82.477,64.462 71.46,64.462 71.46,80.456 
			82.477,80.456 		"/>
	</g>
	
		<linearGradient id="SVGID_32_" gradientUnits="userSpaceOnUse" x1="325.9707" y1="-312.9409" x2="325.9707" y2="-296.8774" gradientTransform="matrix(1 0 0 -1 -237.5996 -239.9004)">
		<stop  offset="0" style="stop-color:#FFFFFF;stop-opacity:0"/>
		<stop  offset="1" style="stop-color:#FFFFFF;stop-opacity:0.8"/>
	</linearGradient>
	<path fill="url(#SVGID_32_)" d="M73.46,72.912c0-1.999,0-5.27,0-7.449c2.681,0,9.017,0,9.017,0c1.105,0,2.002-0.896,2.002-2
		c0,0,0-3.426,0-6.486c4.332,3.243,15.844,11.864,18.801,14.078c-0.229,0.184-0.323,0.258-0.492,0.395
		c-3.916-0.711-7.367-1.068-10.27-1.068c-2.785,0-4.98,0.325-6.713,0.994c-2.904,1.121-5.988,1.666-9.428,1.666
		C75.434,73.04,74.458,72.997,73.46,72.912"/>
</g>
<g id="orange">
	
		<radialGradient id="SVGID_33_" cx="267.3525" cy="-2463.7383" r="11.9295" gradientTransform="matrix(1.3753 0 0 -0.1457 -273.2091 -266.0768)" gradientUnits="userSpaceOnUse">
		<stop  offset="0" style="stop-color:#000000;stop-opacity:0.42"/>
		<stop  offset="0.3095" style="stop-color:#020202;stop-opacity:0.29"/>
		<stop  offset="0.462" style="stop-color:#0A0A0A;stop-opacity:0.226"/>
		<stop  offset="0.5803" style="stop-color:#171717;stop-opacity:0.1763"/>
		<stop  offset="0.6808" style="stop-color:#2A2A2A;stop-opacity:0.1341"/>
		<stop  offset="0.7701" style="stop-color:#424242;stop-opacity:0.0965"/>
		<stop  offset="0.8516" style="stop-color:#606060;stop-opacity:0.0623"/>
		<stop  offset="0.9258" style="stop-color:#838383;stop-opacity:0.0312"/>
		<stop  offset="0.9946" style="stop-color:#ABABAB;stop-opacity:0.0022"/>
		<stop  offset="1" style="stop-color:#AEAEAE;stop-opacity:0"/>
	</radialGradient>
	<path fill="url(#SVGID_33_)" fill-opacity="0.5" d="M94.479,89.7c-12.713,0-23.02,1.429-23.02,3.188s10.307,3.189,23.02,3.189
		c12.715,0,23.021-1.43,23.021-3.189S107.193,89.7,94.479,89.7L94.479,89.7z"/>
	
		<radialGradient id="SVGID_34_" cx="321.6006" cy="-1222.4912" r="4.8708" gradientTransform="matrix(1 0 0 -0.29 -237.5996 -261.6329)" gradientUnits="userSpaceOnUse">
		<stop  offset="0.6962" style="stop-color:#000000;stop-opacity:0.14"/>
		<stop  offset="0.8155" style="stop-color:#424242;stop-opacity:0.085"/>
		<stop  offset="1" style="stop-color:#AEAEAE;stop-opacity:0"/>
	</radialGradient>
	<path fill="url(#SVGID_34_)" d="M83.999,90.7c-3.606,0-6.531,0.979-6.531,2.188s2.925,2.189,6.531,2.189
		c3.608,0,6.533-0.98,6.533-2.189S87.607,90.7,83.999,90.7L83.999,90.7z"/>
	
		<linearGradient id="SVGID_35_" gradientUnits="userSpaceOnUse" x1="248.3926" y1="-326.4731" x2="299.0723" y2="-326.4731" gradientTransform="matrix(1 0 0 -1 -237.5996 -239.9004)">
		<stop  offset="0.1654" style="stop-color:#000000;stop-opacity:0.6"/>
		<stop  offset="0.7805" style="stop-color:#000000;stop-opacity:0"/>
	</linearGradient>
	<path fill="url(#SVGID_35_)" d="M61.188,88.186c-0.146,0.965-0.082,1.391-0.274,1.547c-0.022,0.021-0.05,0.033-0.078,0.041
		c-0.015,0.002-0.028,0.004-0.045,0.006c-0.015,0-0.03-0.002-0.048-0.004c-0.064-0.01-0.145-0.045-0.237-0.104
		c-0.185-0.12-0.426,0.091-0.879,0.035c-20.24-1.562-33.887-1.999-46.945-2.13c-0.953,0.131-1.542-0.666-1.792-1.702
		c-0.063-0.261-0.096-0.508-0.096-0.737c0.001-0.229,0.035-0.438,0.109-0.619c0.074-0.182,0.188-0.334,0.346-0.447
		c0.08-0.059,0.17-0.104,0.272-0.143c0.05-0.018,0.104-0.031,0.162-0.045c0.056-0.013,0.117-0.021,0.18-0.027
		c13.755-0.685,24.264-0.969,48.531,1.336c0.371,0.259,0.623-0.06,0.791,0.182c0.086,0.122,0.147,0.242,0.192,0.367
		c0.022,0.063,0.04,0.125,0.054,0.189c0.016,0.063,0.026,0.127,0.032,0.194c0.054,0.532-0.114,1.161-0.271,2.063l0,0h-0.004V88.186z
		"/>
	
		<linearGradient id="SVGID_36_" gradientUnits="userSpaceOnUse" x1="261.7285" y1="-288.6289" x2="234.677" y2="-304.247" gradientTransform="matrix(1 0 0 -1 -237.5996 -239.9004)">
		<stop  offset="0" style="stop-color:#3B3B3B"/>
		<stop  offset="0.1001" style="stop-color:#4A4A4A"/>
		<stop  offset="0.5229" style="stop-color:#858585"/>
		<stop  offset="0.8349" style="stop-color:#AAAAAA"/>
		<stop  offset="1" style="stop-color:#B8B8B8"/>
	</linearGradient>
	<path fill="url(#SVGID_36_)" d="M13.154,87.54h-0.015c-0.013,0-0.027,0-0.038-0.002c-2.536-0.062-4.239-1.595-4.239-3.819v-0.055
		c0-0.016,0-0.03,0.001-0.046c0.091-3.964,0.179-8.192,0.179-12.464c0-11.884-0.618-25.907-5.2-39.794
		c-0.203-0.557-0.431-1.291-0.431-2.076c0-1.488,0.903-3.169,3.44-3.425c0.008-0.002,0.011-0.002,0.011-0.002s0,0-0.001,0
		c-0.003,0-0.01,0-0.01,0s0,0,0.002,0c0.001,0,0.005,0,0.009,0l0.542-0.027c2.878,0,5.282,2.199,5.766,4.282
		c1.747,6.241,2.95,12.804,3.677,20.054c0.596,5.943,0.873,12.314,0.873,20.048c0,4.574-0.1,9.229-0.2,13.604
		c-0.051,2.227-1.767,3.723-4.268,3.723L13.154,87.54"/>
	
		<linearGradient id="SVGID_37_" gradientUnits="userSpaceOnUse" x1="243.0127" y1="-296.5859" x2="253.3193" y2="-296.5859" gradientTransform="matrix(1 0 0 -1 -237.5996 -239.9004)">
		<stop  offset="0" style="stop-color:#B8B8B8"/>
		<stop  offset="0.304" style="stop-color:#B6B6B6;stop-opacity:0.8541"/>
		<stop  offset="0.4738" style="stop-color:#AEAEAE;stop-opacity:0.7726"/>
		<stop  offset="0.6106" style="stop-color:#A0A0A0;stop-opacity:0.7069"/>
		<stop  offset="0.7297" style="stop-color:#8C8C8C;stop-opacity:0.6497"/>
		<stop  offset="0.8374" style="stop-color:#737373;stop-opacity:0.598"/>
		<stop  offset="0.9354" style="stop-color:#545454;stop-opacity:0.551"/>
		<stop  offset="1" style="stop-color:#3B3B3B;stop-opacity:0.52"/>
	</linearGradient>
	<path fill="url(#SVGID_37_)" d="M7.054,27.848c2.056-0.209,3.911,1.48,4.177,2.753c4.94,17.619,4.702,35.392,4.29,53.172
		c-0.03,1.285-1.085,1.795-2.372,1.767c-1.288-0.031-2.317-0.59-2.287-1.876c0.41-17.779,0.623-35.547-5.128-52.957
		C5.287,29.49,4.997,28.058,7.054,27.848L7.054,27.848L7.054,27.848z"/>
	<path fill="#4E4E4E" d="M7.187,30.07c0,0,2.018-0.381,3.533-0.506c0.261,0.348,0.442,0.707,0.511,1.038
		c0.993,3.541,1.768,7.087,2.383,10.639C10.853,35.76,7.187,30.07,7.187,30.07L7.187,30.07z M15.646,63.754
		c0.08,3.346,0.09,6.688,0.056,10.035c-1.544-4.227-3.144-8.243-3.144-8.243L15.646,63.754L15.646,63.754z"/>
	
		<linearGradient id="SVGID_38_" gradientUnits="userSpaceOnUse" x1="245.6406" y1="-285.0771" x2="314.0449" y2="-285.0771" gradientTransform="matrix(1 0 0 -1 -237.5996 -239.9004)">
		<stop  offset="0" style="stop-color:#FFFFFF"/>
		<stop  offset="0.8615" style="stop-color:#000000"/>
	</linearGradient>
	<path fill="url(#SVGID_38_)" d="M13.471,64.939c0,0,0.035-0.383,0.037-0.394c0.2-1.124,0.436-2.34,0.687-3.625
		c0.913-4.688,2.048-10.522,2.048-15.729c0-3.456-0.508-6.307-1.512-8.474c-1.134-2.444-2.896-4.094-5.386-5.042
		c-0.359-0.114-0.653-0.305-0.881-0.563c-0.183-0.207-0.311-0.455-0.375-0.721c-0.002-0.008-0.048-0.397-0.048-0.397
		s0.067-0.473,0.067-0.476v-0.001c0.001-0.003,0.003-0.008,0.006-0.02c0.168-0.561,0.601-1.025,1.285-1.38
		c5.837-3.068,11.902-4.628,18.017-4.628c0.961,0,1.925,0.04,2.867,0.119l-0.011-0.002c4.836,0.364,9.106,1.357,13.236,2.317
		c1.086,0.251,2.112,0.492,3.139,0.716c0.019,0.003,0.551,0.112,0.551,0.112c4.414,0.894,8.581,1.738,12.607,1.738
		c5,0,9.446-1.337,13.986-4.209l-0.025,0.018c0.24-0.158,0.616-0.372,1.101-0.372c0.849,0,1.526,0.644,1.575,1.496
		c0.002,0.029,0.004,0.059,0.004,0.088v0.013c0,0.423-0.152,0.855-0.51,1.446c-2.388,3.92-3.498,7.499-3.498,11.269
		c0,2.122,0.324,4.093,0.666,6.18c0,0,0.129,0.785,0.138,0.834c0.008,0.037,0.349,1.752,0.349,1.752
		c0.51,2.521,0.991,4.9,0.991,7.289c0,2.503-0.552,4.711-1.687,6.749c-0.363,0.648-1.074,1.289-1.593,1.588
		c-0.003,0.004-0.008,0.006-0.011,0.01c-2.132,1.215-4.23,2.066-6.419,2.604c-1.021,0.251-2.067,0.433-3.11,0.541
		c-0.511,0.053-1.025,0.088-1.531,0.106l-0.748,0.021c-0.014,0-0.008,0-0.021,0h-0.178l-0.561-0.007
		c-3.104-0.064-6.113-0.811-9.022-1.531c-0.828-0.205-1.685-0.418-2.532-0.611c-3.104-0.705-6.148-1.048-9.303-1.048
		c-7.087,0-13.384,1.736-20.049,3.576l-1.767,0.485c-0.006,0.004-0.011,0.004-0.018,0.005c-0.205,0.055-0.408,0.081-0.604,0.081
		C14.313,66.866,13.471,66.038,13.471,64.939 M13.503,64.563L13.503,64.563L13.503,64.563 M13.508,64.532
		C13.508,64.531,13.508,64.531,13.508,64.532L13.508,64.532 M8.09,30.404L8.09,30.404L8.09,30.404 M8.074,30.324
		c0,0,0,0.001,0,0.003C8.074,30.324,8.074,30.324,8.074,30.324 M8.112,29.496v0.002V29.496"/>
	<path fill="#FFFFFF" d="M9.994,29.868c7.074-3.722,13.878-4.75,19.692-4.268c5.871,0.44,11.031,1.89,15.876,2.95
		c9.795,1.979,17.801,3.765,27.724-2.513C73.51,25.89,73.624,25.885,73.63,26c0.009,0.115-0.093,0.351-0.288,0.671
		c-4.939,8.11-3.716,13.465-2.833,18.963c1.023,5.327,2.39,9.909-0.176,14.52c-0.192,0.339-0.663,0.797-1.019,1.002
		c-2.033,1.16-3.998,1.935-5.92,2.406c-0.961,0.237-1.908,0.397-2.852,0.496c-0.471,0.049-0.939,0.082-1.406,0.1
		c-0.234,0.009-0.468,0.016-0.701,0.018c-0.231,0.002-0.465,0-0.695-0.005c-3.714-0.077-7.287-1.209-11.035-2.065
		c-11.936-2.709-21.43,0.285-31.252,2.975c-0.438,0.115-0.735-0.104-0.66-0.51c1.835-10.353,7.071-29.336-5.044-33.91
		c-0.117-0.032-0.199-0.077-0.245-0.131C9.48,30.5,9.465,30.47,9.459,30.438s-0.005-0.066,0.006-0.101
		C9.509,30.194,9.687,30.026,9.994,29.868L9.994,29.868L9.994,29.868L9.994,29.868L9.994,29.868L9.994,29.868z"/>
	<path fill="#FFFFFF" d="M17.138,61.494c0.938-4.814,2.106-10.805,2.106-16.301c0-3.951-0.586-7.135-1.792-9.736
		c-1.113-2.4-2.756-4.26-4.9-5.549c4.862-2.268,9.853-3.415,14.865-3.415c0.879,0,1.76,0.036,2.62,0.106
		C30.04,26.6,30.043,26.6,30.048,26.6c4.606,0.346,8.762,1.313,12.78,2.247c1.1,0.256,2.14,0.498,3.192,0.729
		c0.006,0.002,0.014,0.003,0.022,0.005l0.562,0.114c4.563,0.924,8.874,1.798,13.201,1.798c4.149,0,7.947-0.818,11.689-2.542
		c-1.395,3.107-2.059,6.127-2.059,9.289c0,2.367,0.36,4.553,0.709,6.666l0.138,0.852c0.003,0.018,0.005,0.027,0.008,0.045
		l0.358,1.799c0.479,2.369,0.931,4.606,0.931,6.694c0,2.006-0.415,3.688-1.306,5.291c0.004-0.006,0.004-0.011,0.004-0.011
		c-0.069,0.116-0.338,0.38-0.483,0.466l0.011-0.008c-1.888,1.077-3.736,1.829-5.65,2.301c-0.885,0.218-1.793,0.375-2.7,0.468
		c-0.445,0.047-0.894,0.079-1.336,0.096c-0.005,0-0.55,0.013-0.679,0.016c-0.031,0-0.155,0-0.155,0l-0.507-0.003
		c-2.761-0.058-5.478-0.731-8.354-1.444c-0.843-0.208-1.71-0.425-2.585-0.624c-3.33-0.757-6.59-1.125-9.973-1.125
		c-7.494,0-14.282,1.874-20.847,3.687c0,0-0.197,0.053-0.264,0.07C16.877,62.837,17.005,62.178,17.138,61.494 M10.231,28.813
		c0.001,0,0.005,0.001,0.008,0.001C10.236,28.814,10.234,28.813,10.231,28.813 M75.417,26.806c-0.001,0.001-0.003,0.001-0.004,0.003
		C75.414,26.807,75.416,26.806,75.417,26.806 M75.422,26.803L75.43,26.8C75.43,26.799,75.426,26.801,75.422,26.803 M73.497,25.184
		c0,0,0,0.004-0.003,0.011C73.495,25.188,73.497,25.184,73.497,25.184"/>
	<defs>
		<filter id="Adobe_OpacityMaskFilter_3_" filterUnits="userSpaceOnUse" x="8.817" y="23.894" width="67.397" height="41.572">
			<feColorMatrix  type="matrix" values="1 0 0 0 0  0 1 0 0 0  0 0 1 0 0  0 0 0 1 0"/>
		</filter>
	</defs>
	<mask maskUnits="userSpaceOnUse" x="8.817" y="23.894" width="67.397" height="41.572" id="SVGID_4_">
		<g filter="url(#Adobe_OpacityMaskFilter_3_)">
			<path fill="#FFFFFF" d="M9.994,29.868c7.074-3.722,13.878-4.75,19.692-4.268c5.871,0.44,11.031,1.89,15.876,2.95
				c9.795,1.979,17.801,3.765,27.724-2.513C73.51,25.89,73.624,25.885,73.63,26c0.009,0.115-0.093,0.351-0.288,0.671
				c-4.939,8.11-3.716,13.465-2.833,18.963c1.023,5.327,2.39,9.909-0.176,14.52c-0.192,0.339-0.663,0.797-1.019,1.002
				c-2.033,1.16-3.998,1.935-5.92,2.406c-0.961,0.237-1.908,0.397-2.852,0.496c-0.471,0.049-0.939,0.082-1.406,0.1
				c-0.234,0.009-0.468,0.016-0.701,0.018c-0.231,0.002-0.465,0-0.695-0.005c-3.714-0.077-7.287-1.209-11.035-2.065
				c-11.936-2.709-21.43,0.285-31.252,2.975c-0.438,0.115-0.735-0.104-0.66-0.51c1.835-10.353,7.071-29.336-5.044-33.91
				c-0.117-0.032-0.199-0.077-0.245-0.131C9.48,30.5,9.465,30.47,9.459,30.438s-0.005-0.066,0.006-0.101
				C9.509,30.194,9.687,30.026,9.994,29.868L9.994,29.868L9.994,29.868L9.994,29.868L9.994,29.868L9.994,29.868z"/>
		</g>
	</mask>
	<path mask="url(#SVGID_4_)" d="M26.75,63.229c0.064-0.006,0.125-0.013,0.189-0.018C26.877,63.216,26.813,63.223,26.75,63.229
		L26.75,63.229z M32.543,62.971c-0.098,0.002-0.196,0.002-0.293,0.002C32.348,62.971,32.446,62.973,32.543,62.971L32.543,62.971z
		 M75.941,24.631c-0.334,0.559-0.644,1.113-0.938,1.663c-0.104,0.195-0.2,0.387-0.302,0.58c-0.184,0.355-0.361,0.709-0.529,1.06
		c-0.109,0.228-0.217,0.452-0.316,0.678c-0.129,0.282-0.248,0.562-0.365,0.842c-0.122,0.285-0.245,0.572-0.355,0.855
		c-0.002,0.003-0.002,0.006-0.003,0.01c-1.099,2.808-1.7,5.459-1.889,7.934c-3.284,1.404-7.5,1.968-12.037,2.584
		c-0.108-5.4,1.851-9.728,3.282-12.192c2.596-0.368,5.177-0.999,7.705-1.935c0.047-0.016,0.091-0.034,0.137-0.051
		c0.529-0.198,1.059-0.41,1.583-0.637c0.124-0.053,0.248-0.106,0.373-0.16c0.474-0.211,0.94-0.437,1.409-0.673
		c0.136-0.069,0.275-0.131,0.412-0.202c0.592-0.308,1.18-0.631,1.761-0.98c0.22-0.144,0.333-0.147,0.345-0.032
		C76.223,24.088,76.129,24.318,75.941,24.631L75.941,24.631z M49.585,28.64c0.021-0.036,0.039-0.067,0.059-0.103
		c4.184,0.53,8.542,0.653,12.874,0.059c-0.01,0.018-0.018,0.03-0.029,0.048C58.148,29.261,53.779,29.162,49.585,28.64L49.585,28.64z
		 M35.245,38.793c0.493-5.871,1.348-9.87,2.107-12.46c2.766,0.5,5.393,1.077,7.939,1.627c1.403,0.272,2.839,0.498,4.293,0.679
		c-1.696,3.011-3.583,7.421-3.729,12.375C42.558,40.369,38.895,39.445,35.245,38.793L35.245,38.793z M24.571,25.182L24.571,25.182
		c1.719-0.104,3.373-0.078,4.933,0.072C27.944,25.104,26.29,25.078,24.571,25.182L24.571,25.182z M24.303,38.266
		c-4.319,0.412-7.868,1.313-9.46,1.773c-0.051-0.228-0.115-0.445-0.173-0.669c-0.024-0.088-0.045-0.176-0.067-0.263
		c-0.778-2.923-2.021-5.458-3.939-7.276c-0.003-0.003-0.007-0.006-0.01-0.009c-0.489-0.461-1.007-0.892-1.587-1.254
		c-0.107-0.042-0.179-0.098-0.218-0.162c-0.019-0.032-0.029-0.067-0.032-0.104c-0.001-0.035,0.005-0.074,0.019-0.114
		c0.058-0.16,0.249-0.344,0.564-0.511c0.82-0.445,1.633-0.841,2.442-1.214c0.256-0.119,0.511-0.228,0.764-0.338
		c0.572-0.25,1.14-0.479,1.707-0.694c0.263-0.101,0.527-0.205,0.788-0.298c0.732-0.259,1.462-0.493,2.181-0.7
		c0.313-0.09,0.622-0.159,0.931-0.239c0.434-0.112,0.87-0.218,1.297-0.311c0.389-0.083,0.772-0.159,1.156-0.228
		c0.32-0.058,0.637-0.105,0.955-0.153c1.002-0.151,1.989-0.265,2.95-0.322C24.46,28.023,24.27,32.585,24.303,38.266L24.303,38.266z
		 M35.245,38.793c-0.155,1.852-0.277,3.879-0.344,6.113c0.008,2.188,0.025,4.192,0.049,6.042c-2.761-0.289-5.684-0.356-8.96,0.091
		c-0.477,0.07-0.934,0.149-1.387,0.23c-0.003-1.818-0.04-3.733-0.135-5.761c-0.104-2.561-0.152-4.987-0.165-7.244
		c1.525-0.146,3.144-0.23,4.811-0.213C31.106,38.14,33.174,38.425,35.245,38.793L35.245,38.793z M45.856,41.014
		c3.089,0.605,5.857,0.961,7.992,0.609c1.813-0.304,3.607-0.549,5.357-0.787c0.021,1.112,0.122,2.263,0.343,3.459
		c0.655,2.817,1.39,5.195,1.685,7.863c-2.305,0.372-4.723,0.69-7.215,0.907c-2.372,0.16-4.574,0.042-6.704-0.204
		c-0.048-2.285-0.317-4.62-0.967-6.777C45.93,44.354,45.809,42.659,45.856,41.014L45.856,41.014z M73.152,50.436
		c0.578,3.182,0.55,6.185-1.231,9.071c-0.209,0.34-0.731,2.315-1.129,2.505c-2.282,1.059-4.538,1.104-6.769,1.68
		c-1.115,0.289-1.916,0.295-3.023,0.466c-0.344,0.053-1.193-0.058-1.537-0.013c1.657-5.016,2.112-8.896,1.77-11.984
		c4.49-0.722,8.537-1.661,11.756-2.537C73.049,49.896,73.1,50.166,73.152,50.436L73.152,50.436z M46.248,63.695
		c-0.858-0.064-1.717-0.129-2.583-0.192c-1.371-0.116-2.742-0.222-4.116-0.308c-0.069-0.004-0.138-0.01-0.207-0.014
		c-1.379-0.084-2.758-0.148-4.139-0.185c-0.07-2.775-0.184-6.728-0.253-12.049c4.288,0.448,8.184,1.432,12.362,1.914
		C47.405,57.194,46.699,61.33,46.248,63.695L46.248,63.695z M24.06,63.527L24.06,63.527c0.001,0,0.003,0,0.005,0
		C24.063,63.527,24.062,63.527,24.06,63.527L24.06,63.527z M24.044,63.529c-0.648,0.089-1.295,0.193-1.942,0.307
		c-0.125,0.021-0.253,0.047-0.378,0.068c-0.506,0.094-1.012,0.195-1.517,0.307c-0.202,0.045-0.402,0.088-0.604,0.135
		c-0.466,0.106-0.931,0.227-1.394,0.35c-0.195,0.052-0.387,0.1-0.581,0.152c-0.641,0.18-1.28,0.37-1.917,0.582
		c-0.397,0.121-0.705-0.074-0.682-0.455c0.157-3.022,0.525-6.891,0.69-10.97c2.031-0.937,5.018-2.037,8.884-2.734
		c0.008,5.114-0.284,9.333-0.543,12.256C24.055,63.527,24.049,63.529,24.044,63.529L24.044,63.529z M37.369,26.28
		c-0.005,0.02-0.011,0.034-0.016,0.053c-2.482-0.45-5.075-0.839-7.849-1.079C32.282,25.494,34.88,25.857,37.369,26.28L37.369,26.28z
		 M47.799,63.803c-0.508-0.035-1.015-0.066-1.526-0.105C46.786,63.734,47.29,63.768,47.799,63.803L47.799,63.803z M49.784,63.926
		c0.429,0.025,0.856,0.045,1.284,0.063C50.642,63.973,50.213,63.949,49.784,63.926L49.784,63.926z M54.231,64.066
		c-0.334-0.002-0.671-0.012-1.006-0.017C53.56,64.057,53.898,64.066,54.231,64.066L54.231,64.066z"/>
	
		<linearGradient id="SVGID_39_" gradientUnits="userSpaceOnUse" x1="263.8975" y1="-258.752" x2="296.9634" y2="-307.7743" gradientTransform="matrix(1 0 0 -1 -237.5996 -239.9004)">
		<stop  offset="0" style="stop-color:#000000;stop-opacity:0"/>
		<stop  offset="0.4385" style="stop-color:#000000;stop-opacity:0.62"/>
		<stop  offset="0.7192" style="stop-color:#000000;stop-opacity:0.14"/>
		<stop  offset="1" style="stop-color:#000000;stop-opacity:0.62"/>
	</linearGradient>
	<path fill="url(#SVGID_39_)" fill-opacity="0.75" d="M9.994,29.868c7.074-3.722,13.878-4.75,19.692-4.268
		c5.871,0.44,11.031,1.89,15.876,2.95c9.795,1.979,17.801,3.765,27.724-2.513C73.51,25.89,73.624,25.885,73.63,26
		c0.009,0.115-0.093,0.351-0.288,0.671c-4.939,8.11-3.716,13.465-2.833,18.963c1.023,5.327,2.39,9.909-0.176,14.52
		c-0.192,0.339-0.663,0.797-1.019,1.002c-2.033,1.16-3.998,1.935-5.92,2.406c-0.961,0.237-1.908,0.397-2.852,0.496
		c-0.471,0.049-0.939,0.082-1.406,0.1c-0.234,0.009-0.468,0.016-0.701,0.018c-0.231,0.002-0.465,0-0.695-0.005
		c-3.714-0.077-7.287-1.209-11.035-2.065c-11.936-2.709-21.43,0.285-31.252,2.975c-0.438,0.115-0.735-0.104-0.66-0.51
		c1.835-10.353,7.071-29.336-5.044-33.91c-0.117-0.032-0.199-0.077-0.245-0.131C9.48,30.5,9.465,30.47,9.459,30.438
		s-0.005-0.066,0.006-0.101C9.509,30.194,9.687,30.026,9.994,29.868L9.994,29.868L9.994,29.868L9.994,29.868L9.994,29.868
		L9.994,29.868z"/>
	<path fill="#FFE035" d="M81.609,93.029c-0.692-0.332-1.133-1.032-1.133-1.801c0,0,0-6.121,0-8.771c-2.681,0-9.018,0-9.018,0
		c-1.104,0-2-0.896-2-2.001V64.462c0-1.104,0.896-2,2-2c0,0,6.337,0,9.018,0c0-2.619,0-8.48,0-8.48c0-0.758,0.428-1.45,1.104-1.789
		c0.282-0.141,0.589-0.211,0.896-0.211c0.424,0,0.846,0.135,1.197,0.399l24.07,18.02c0.497,0.373,0.793,0.951,0.803,1.57
		c0,0.01,0,0.021,0,0.029c0,0.609-0.277,1.186-0.753,1.564L83.725,92.791c-0.363,0.289-0.804,0.438-1.248,0.438
		C82.184,93.229,81.887,93.163,81.609,93.029"/>
	<g>
		
			<linearGradient id="SVGID_40_" gradientUnits="userSpaceOnUse" x1="326.6045" y1="-331.1284" x2="326.6045" y2="-293.8823" gradientTransform="matrix(1 0 0 -1 -237.5996 -239.9004)">
			<stop  offset="0" style="stop-color:#FEDF34"/>
			<stop  offset="0.1758" style="stop-color:#FECD26"/>
			<stop  offset="0.4969" style="stop-color:#FFB211"/>
			<stop  offset="0.782" style="stop-color:#FFA204"/>
			<stop  offset="1" style="stop-color:#FF9C00"/>
		</linearGradient>
		<polygon fill="url(#SVGID_40_)" points="82.477,91.229 106.548,72.002 82.477,53.982 82.477,64.462 71.46,64.462 71.46,80.456 
			82.477,80.456 		"/>
	</g>
	
		<linearGradient id="SVGID_41_" gradientUnits="userSpaceOnUse" x1="325.9707" y1="-312.9409" x2="325.9707" y2="-296.8774" gradientTransform="matrix(1 0 0 -1 -237.5996 -239.9004)">
		<stop  offset="0" style="stop-color:#FFFFFF;stop-opacity:0"/>
		<stop  offset="1" style="stop-color:#FFFFFF;stop-opacity:0.8"/>
	</linearGradient>
	<path fill="url(#SVGID_41_)" d="M73.46,72.912c0-1.999,0-5.27,0-7.449c2.681,0,9.017,0,9.017,0c1.105,0,2.002-0.896,2.002-2
		c0,0,0-3.426,0-6.486c4.332,3.243,15.844,11.864,18.801,14.078c-0.229,0.184-0.323,0.258-0.492,0.395
		c-3.916-0.711-7.367-1.068-10.27-1.068c-2.785,0-4.98,0.325-6.713,0.994c-2.904,1.121-5.988,1.666-9.428,1.666
		C75.434,73.04,74.458,72.997,73.46,72.912"/>
</g>
<g id="red">
	
		<radialGradient id="SVGID_42_" cx="267.3525" cy="-2463.7383" r="11.9295" gradientTransform="matrix(1.3753 0 0 -0.1457 -273.2091 -266.0768)" gradientUnits="userSpaceOnUse">
		<stop  offset="0" style="stop-color:#000000;stop-opacity:0.42"/>
		<stop  offset="0.3095" style="stop-color:#020202;stop-opacity:0.29"/>
		<stop  offset="0.462" style="stop-color:#0A0A0A;stop-opacity:0.226"/>
		<stop  offset="0.5803" style="stop-color:#171717;stop-opacity:0.1763"/>
		<stop  offset="0.6808" style="stop-color:#2A2A2A;stop-opacity:0.1341"/>
		<stop  offset="0.7701" style="stop-color:#424242;stop-opacity:0.0965"/>
		<stop  offset="0.8516" style="stop-color:#606060;stop-opacity:0.0623"/>
		<stop  offset="0.9258" style="stop-color:#838383;stop-opacity:0.0312"/>
		<stop  offset="0.9946" style="stop-color:#ABABAB;stop-opacity:0.0022"/>
		<stop  offset="1" style="stop-color:#AEAEAE;stop-opacity:0"/>
	</radialGradient>
	<path fill="url(#SVGID_42_)" fill-opacity="0.5" d="M94.479,89.7c-12.713,0-23.02,1.429-23.02,3.188s10.307,3.189,23.02,3.189
		c12.715,0,23.021-1.43,23.021-3.189S107.193,89.7,94.479,89.7L94.479,89.7z"/>
	
		<radialGradient id="SVGID_43_" cx="321.6006" cy="-1222.4912" r="4.8708" gradientTransform="matrix(1 0 0 -0.29 -237.5996 -261.6329)" gradientUnits="userSpaceOnUse">
		<stop  offset="0.6962" style="stop-color:#000000;stop-opacity:0.14"/>
		<stop  offset="0.8155" style="stop-color:#424242;stop-opacity:0.085"/>
		<stop  offset="1" style="stop-color:#AEAEAE;stop-opacity:0"/>
	</radialGradient>
	<path fill="url(#SVGID_43_)" d="M83.999,90.7c-3.606,0-6.531,0.979-6.531,2.188s2.925,2.189,6.531,2.189
		c3.608,0,6.533-0.98,6.533-2.189S87.607,90.7,83.999,90.7L83.999,90.7z"/>
	
		<linearGradient id="SVGID_44_" gradientUnits="userSpaceOnUse" x1="248.3926" y1="-326.4731" x2="299.0723" y2="-326.4731" gradientTransform="matrix(1 0 0 -1 -237.5996 -239.9004)">
		<stop  offset="0.1654" style="stop-color:#000000;stop-opacity:0.6"/>
		<stop  offset="0.7805" style="stop-color:#000000;stop-opacity:0"/>
	</linearGradient>
	<path fill="url(#SVGID_44_)" d="M61.188,88.186c-0.146,0.965-0.082,1.391-0.274,1.547c-0.022,0.021-0.05,0.033-0.078,0.041
		c-0.015,0.002-0.028,0.004-0.045,0.006c-0.015,0-0.03-0.002-0.048-0.004c-0.064-0.01-0.145-0.045-0.237-0.104
		c-0.185-0.12-0.426,0.091-0.879,0.035c-20.24-1.562-33.887-1.999-46.945-2.13c-0.953,0.131-1.542-0.666-1.792-1.702
		c-0.063-0.261-0.096-0.508-0.096-0.737c0.001-0.229,0.035-0.438,0.109-0.619c0.074-0.182,0.188-0.334,0.346-0.447
		c0.08-0.059,0.17-0.104,0.272-0.143c0.05-0.018,0.104-0.031,0.162-0.045c0.056-0.013,0.117-0.021,0.18-0.027
		c13.755-0.685,24.264-0.969,48.531,1.336c0.371,0.259,0.623-0.06,0.791,0.182c0.086,0.122,0.147,0.242,0.192,0.367
		c0.022,0.063,0.04,0.125,0.054,0.189c0.016,0.063,0.026,0.127,0.032,0.194c0.054,0.532-0.114,1.161-0.271,2.063l0,0h-0.004V88.186z
		"/>
	
		<linearGradient id="SVGID_45_" gradientUnits="userSpaceOnUse" x1="261.7285" y1="-288.6289" x2="234.677" y2="-304.247" gradientTransform="matrix(1 0 0 -1 -237.5996 -239.9004)">
		<stop  offset="0" style="stop-color:#3B3B3B"/>
		<stop  offset="0.1001" style="stop-color:#4A4A4A"/>
		<stop  offset="0.5229" style="stop-color:#858585"/>
		<stop  offset="0.8349" style="stop-color:#AAAAAA"/>
		<stop  offset="1" style="stop-color:#B8B8B8"/>
	</linearGradient>
	<path fill="url(#SVGID_45_)" d="M13.154,87.54h-0.015c-0.013,0-0.027,0-0.038-0.002c-2.536-0.062-4.239-1.595-4.239-3.819v-0.055
		c0-0.016,0-0.03,0.001-0.046c0.091-3.964,0.179-8.192,0.179-12.464c0-11.884-0.618-25.907-5.2-39.794
		c-0.203-0.557-0.431-1.291-0.431-2.076c0-1.488,0.903-3.169,3.44-3.425c0.008-0.002,0.011-0.002,0.011-0.002s0,0-0.001,0
		c-0.003,0-0.01,0-0.01,0s0,0,0.002,0c0.001,0,0.005,0,0.009,0l0.542-0.027c2.878,0,5.282,2.199,5.766,4.282
		c1.747,6.241,2.95,12.804,3.677,20.054c0.596,5.943,0.873,12.314,0.873,20.048c0,4.574-0.1,9.229-0.2,13.604
		c-0.051,2.227-1.767,3.723-4.268,3.723L13.154,87.54"/>
	
		<linearGradient id="SVGID_46_" gradientUnits="userSpaceOnUse" x1="243.0127" y1="-296.5859" x2="253.3193" y2="-296.5859" gradientTransform="matrix(1 0 0 -1 -237.5996 -239.9004)">
		<stop  offset="0" style="stop-color:#B8B8B8"/>
		<stop  offset="0.304" style="stop-color:#B6B6B6;stop-opacity:0.8541"/>
		<stop  offset="0.4738" style="stop-color:#AEAEAE;stop-opacity:0.7726"/>
		<stop  offset="0.6106" style="stop-color:#A0A0A0;stop-opacity:0.7069"/>
		<stop  offset="0.7297" style="stop-color:#8C8C8C;stop-opacity:0.6497"/>
		<stop  offset="0.8374" style="stop-color:#737373;stop-opacity:0.598"/>
		<stop  offset="0.9354" style="stop-color:#545454;stop-opacity:0.551"/>
		<stop  offset="1" style="stop-color:#3B3B3B;stop-opacity:0.52"/>
	</linearGradient>
	<path fill="url(#SVGID_46_)" d="M7.054,27.848c2.056-0.209,3.911,1.48,4.177,2.753c4.94,17.619,4.702,35.392,4.29,53.172
		c-0.03,1.285-1.085,1.795-2.372,1.767c-1.288-0.031-2.317-0.59-2.287-1.876c0.41-17.779,0.623-35.547-5.128-52.957
		C5.287,29.49,4.997,28.058,7.054,27.848L7.054,27.848L7.054,27.848z"/>
	<path fill="#4E4E4E" d="M7.187,30.07c0,0,2.018-0.381,3.533-0.506c0.261,0.348,0.442,0.707,0.511,1.038
		c0.993,3.541,1.768,7.087,2.383,10.639C10.853,35.76,7.187,30.07,7.187,30.07L7.187,30.07z M15.646,63.754
		c0.08,3.346,0.09,6.688,0.056,10.035c-1.544-4.227-3.144-8.243-3.144-8.243L15.646,63.754L15.646,63.754z"/>
	
		<linearGradient id="SVGID_47_" gradientUnits="userSpaceOnUse" x1="245.6406" y1="-285.0771" x2="314.0449" y2="-285.0771" gradientTransform="matrix(1 0 0 -1 -237.5996 -239.9004)">
		<stop  offset="0" style="stop-color:#FFFFFF"/>
		<stop  offset="0.8615" style="stop-color:#000000"/>
	</linearGradient>
	<path fill="url(#SVGID_47_)" d="M13.471,64.939c0,0,0.035-0.383,0.037-0.394c0.2-1.124,0.436-2.34,0.687-3.625
		c0.913-4.688,2.048-10.522,2.048-15.729c0-3.456-0.508-6.307-1.512-8.474c-1.134-2.444-2.896-4.094-5.386-5.042
		c-0.359-0.114-0.653-0.305-0.881-0.563c-0.183-0.207-0.311-0.455-0.375-0.721c-0.002-0.008-0.048-0.397-0.048-0.397
		s0.067-0.473,0.067-0.476v-0.001c0.001-0.003,0.003-0.008,0.006-0.02c0.168-0.561,0.601-1.025,1.285-1.38
		c5.837-3.068,11.902-4.628,18.017-4.628c0.961,0,1.925,0.04,2.867,0.119l-0.011-0.002c4.836,0.364,9.106,1.357,13.236,2.317
		c1.086,0.251,2.112,0.492,3.139,0.716c0.019,0.003,0.551,0.112,0.551,0.112c4.414,0.894,8.581,1.738,12.607,1.738
		c5,0,9.446-1.337,13.986-4.209l-0.025,0.018c0.24-0.158,0.616-0.372,1.101-0.372c0.849,0,1.526,0.644,1.575,1.496
		c0.002,0.029,0.004,0.059,0.004,0.088v0.013c0,0.423-0.152,0.855-0.51,1.446c-2.388,3.92-3.498,7.499-3.498,11.269
		c0,2.122,0.324,4.093,0.666,6.18c0,0,0.129,0.785,0.138,0.834c0.008,0.037,0.349,1.752,0.349,1.752
		c0.51,2.521,0.991,4.9,0.991,7.289c0,2.503-0.552,4.711-1.687,6.749c-0.363,0.648-1.074,1.289-1.593,1.588
		c-0.003,0.004-0.008,0.006-0.011,0.01c-2.132,1.215-4.23,2.066-6.419,2.604c-1.021,0.251-2.067,0.433-3.11,0.541
		c-0.511,0.053-1.025,0.088-1.531,0.106l-0.748,0.021c-0.014,0-0.008,0-0.021,0h-0.178l-0.561-0.007
		c-3.104-0.064-6.113-0.811-9.022-1.531c-0.828-0.205-1.685-0.418-2.532-0.611c-3.104-0.705-6.148-1.048-9.303-1.048
		c-7.087,0-13.384,1.736-20.049,3.576l-1.767,0.485c-0.006,0.004-0.011,0.004-0.018,0.005c-0.205,0.055-0.408,0.081-0.604,0.081
		C14.313,66.866,13.471,66.038,13.471,64.939 M13.503,64.563L13.503,64.563L13.503,64.563 M13.508,64.532
		C13.508,64.531,13.508,64.531,13.508,64.532L13.508,64.532 M8.09,30.404L8.09,30.404L8.09,30.404 M8.074,30.324
		c0,0,0,0.001,0,0.003C8.074,30.324,8.074,30.324,8.074,30.324 M8.112,29.496v0.002V29.496"/>
	<path fill="#FFFFFF" d="M9.994,29.868c7.074-3.722,13.878-4.75,19.692-4.268c5.871,0.44,11.031,1.89,15.876,2.95
		c9.795,1.979,17.801,3.765,27.724-2.513C73.51,25.89,73.624,25.885,73.63,26c0.009,0.115-0.093,0.351-0.288,0.671
		c-4.939,8.11-3.716,13.465-2.833,18.963c1.023,5.327,2.39,9.909-0.176,14.52c-0.192,0.339-0.663,0.797-1.019,1.002
		c-2.033,1.16-3.998,1.935-5.92,2.406c-0.961,0.237-1.908,0.397-2.852,0.496c-0.471,0.049-0.939,0.082-1.406,0.1
		c-0.234,0.009-0.468,0.016-0.701,0.018c-0.231,0.002-0.465,0-0.695-0.005c-3.714-0.077-7.287-1.209-11.035-2.065
		c-11.936-2.709-21.43,0.285-31.252,2.975c-0.438,0.115-0.735-0.104-0.66-0.51c1.835-10.353,7.071-29.336-5.044-33.91
		c-0.117-0.032-0.199-0.077-0.245-0.131C9.48,30.5,9.465,30.47,9.459,30.438s-0.005-0.066,0.006-0.101
		C9.509,30.194,9.687,30.026,9.994,29.868L9.994,29.868L9.994,29.868L9.994,29.868L9.994,29.868L9.994,29.868z"/>
	<path fill="#FFFFFF" d="M17.138,61.494c0.938-4.814,2.106-10.805,2.106-16.301c0-3.951-0.586-7.135-1.792-9.736
		c-1.113-2.4-2.756-4.26-4.9-5.549c4.862-2.268,9.853-3.415,14.865-3.415c0.879,0,1.76,0.036,2.62,0.106
		C30.04,26.6,30.043,26.6,30.048,26.6c4.606,0.346,8.762,1.313,12.78,2.247c1.1,0.256,2.14,0.498,3.192,0.729
		c0.006,0.002,0.014,0.003,0.022,0.005l0.562,0.114c4.563,0.924,8.874,1.798,13.201,1.798c4.149,0,7.947-0.818,11.689-2.542
		c-1.395,3.107-2.059,6.127-2.059,9.289c0,2.367,0.36,4.553,0.709,6.666l0.138,0.852c0.003,0.018,0.005,0.027,0.008,0.045
		l0.358,1.799c0.479,2.369,0.931,4.606,0.931,6.694c0,2.006-0.415,3.688-1.306,5.291c0.004-0.006,0.004-0.011,0.004-0.011
		c-0.069,0.116-0.338,0.38-0.483,0.466l0.011-0.008c-1.888,1.077-3.736,1.829-5.65,2.301c-0.885,0.218-1.793,0.375-2.7,0.468
		c-0.445,0.047-0.894,0.079-1.336,0.096c-0.005,0-0.55,0.013-0.679,0.016c-0.031,0-0.155,0-0.155,0l-0.507-0.003
		c-2.761-0.058-5.478-0.731-8.354-1.444c-0.843-0.208-1.71-0.425-2.585-0.624c-3.33-0.757-6.59-1.125-9.973-1.125
		c-7.494,0-14.282,1.874-20.847,3.687c0,0-0.197,0.053-0.264,0.07C16.877,62.837,17.005,62.178,17.138,61.494 M10.231,28.813
		c0.001,0,0.005,0.001,0.008,0.001C10.236,28.814,10.234,28.813,10.231,28.813 M75.417,26.806c-0.001,0.001-0.003,0.001-0.004,0.003
		C75.414,26.807,75.416,26.806,75.417,26.806 M75.422,26.803L75.43,26.8C75.43,26.799,75.426,26.801,75.422,26.803 M73.497,25.184
		c0,0,0,0.004-0.003,0.011C73.495,25.188,73.497,25.184,73.497,25.184"/>
	<defs>
		<filter id="Adobe_OpacityMaskFilter_4_" filterUnits="userSpaceOnUse" x="8.817" y="23.894" width="67.397" height="41.572">
			<feColorMatrix  type="matrix" values="1 0 0 0 0  0 1 0 0 0  0 0 1 0 0  0 0 0 1 0"/>
		</filter>
	</defs>
	<mask maskUnits="userSpaceOnUse" x="8.817" y="23.894" width="67.397" height="41.572" id="SVGID_5_">
		<g filter="url(#Adobe_OpacityMaskFilter_4_)">
			<path fill="#FFFFFF" d="M9.994,29.868c7.074-3.722,13.878-4.75,19.692-4.268c5.871,0.44,11.031,1.89,15.876,2.95
				c9.795,1.979,17.801,3.765,27.724-2.513C73.51,25.89,73.624,25.885,73.63,26c0.009,0.115-0.093,0.351-0.288,0.671
				c-4.939,8.11-3.716,13.465-2.833,18.963c1.023,5.327,2.39,9.909-0.176,14.52c-0.192,0.339-0.663,0.797-1.019,1.002
				c-2.033,1.16-3.998,1.935-5.92,2.406c-0.961,0.237-1.908,0.397-2.852,0.496c-0.471,0.049-0.939,0.082-1.406,0.1
				c-0.234,0.009-0.468,0.016-0.701,0.018c-0.231,0.002-0.465,0-0.695-0.005c-3.714-0.077-7.287-1.209-11.035-2.065
				c-11.936-2.709-21.43,0.285-31.252,2.975c-0.438,0.115-0.735-0.104-0.66-0.51c1.835-10.353,7.071-29.336-5.044-33.91
				c-0.117-0.032-0.199-0.077-0.245-0.131C9.48,30.5,9.465,30.47,9.459,30.438s-0.005-0.066,0.006-0.101
				C9.509,30.194,9.687,30.026,9.994,29.868L9.994,29.868L9.994,29.868L9.994,29.868L9.994,29.868L9.994,29.868z"/>
		</g>
	</mask>
	<path mask="url(#SVGID_5_)" d="M26.75,63.229c0.064-0.006,0.125-0.013,0.189-0.018C26.877,63.216,26.813,63.223,26.75,63.229
		L26.75,63.229z M32.543,62.971c-0.098,0.002-0.196,0.002-0.293,0.002C32.348,62.971,32.446,62.973,32.543,62.971L32.543,62.971z
		 M75.941,24.631c-0.334,0.559-0.644,1.113-0.938,1.663c-0.104,0.195-0.2,0.387-0.302,0.58c-0.184,0.355-0.361,0.709-0.529,1.06
		c-0.109,0.228-0.217,0.452-0.316,0.678c-0.129,0.282-0.248,0.562-0.365,0.842c-0.122,0.285-0.245,0.572-0.355,0.855
		c-0.002,0.003-0.002,0.006-0.003,0.01c-1.099,2.808-1.7,5.459-1.889,7.934c-3.284,1.404-7.5,1.968-12.037,2.584
		c-0.108-5.4,1.851-9.728,3.282-12.192c2.596-0.368,5.177-0.999,7.705-1.935c0.047-0.016,0.091-0.034,0.137-0.051
		c0.529-0.198,1.059-0.41,1.583-0.637c0.124-0.053,0.248-0.106,0.373-0.16c0.474-0.211,0.94-0.437,1.409-0.673
		c0.136-0.069,0.275-0.131,0.412-0.202c0.592-0.308,1.18-0.631,1.761-0.98c0.22-0.144,0.333-0.147,0.345-0.032
		C76.223,24.088,76.129,24.318,75.941,24.631L75.941,24.631z M49.585,28.64c0.021-0.036,0.039-0.067,0.059-0.103
		c4.184,0.53,8.542,0.653,12.874,0.059c-0.01,0.018-0.018,0.03-0.029,0.048C58.148,29.261,53.779,29.162,49.585,28.64L49.585,28.64z
		 M35.245,38.793c0.493-5.871,1.348-9.87,2.107-12.46c2.766,0.5,5.393,1.077,7.939,1.627c1.403,0.272,2.839,0.498,4.293,0.679
		c-1.696,3.011-3.583,7.421-3.729,12.375C42.558,40.369,38.895,39.445,35.245,38.793L35.245,38.793z M24.571,25.182L24.571,25.182
		c1.719-0.104,3.373-0.078,4.933,0.072C27.944,25.104,26.29,25.078,24.571,25.182L24.571,25.182z M24.303,38.266
		c-4.319,0.412-7.868,1.313-9.46,1.773c-0.051-0.228-0.115-0.445-0.173-0.669c-0.024-0.088-0.045-0.176-0.067-0.263
		c-0.778-2.923-2.021-5.458-3.939-7.276c-0.003-0.003-0.007-0.006-0.01-0.009c-0.489-0.461-1.007-0.892-1.587-1.254
		c-0.107-0.042-0.179-0.098-0.218-0.162c-0.019-0.032-0.029-0.067-0.032-0.104c-0.001-0.035,0.005-0.074,0.019-0.114
		c0.058-0.16,0.249-0.344,0.564-0.511c0.82-0.445,1.633-0.841,2.442-1.214c0.256-0.119,0.511-0.228,0.764-0.338
		c0.572-0.25,1.14-0.479,1.707-0.694c0.263-0.101,0.527-0.205,0.788-0.298c0.732-0.259,1.462-0.493,2.181-0.7
		c0.313-0.09,0.622-0.159,0.931-0.239c0.434-0.112,0.87-0.218,1.297-0.311c0.389-0.083,0.772-0.159,1.156-0.228
		c0.32-0.058,0.637-0.105,0.955-0.153c1.002-0.151,1.989-0.265,2.95-0.322C24.46,28.023,24.27,32.585,24.303,38.266L24.303,38.266z
		 M35.245,38.793c-0.155,1.852-0.277,3.879-0.344,6.113c0.008,2.188,0.025,4.192,0.049,6.042c-2.761-0.289-5.684-0.356-8.96,0.091
		c-0.477,0.07-0.934,0.149-1.387,0.23c-0.003-1.818-0.04-3.733-0.135-5.761c-0.104-2.561-0.152-4.987-0.165-7.244
		c1.525-0.146,3.144-0.23,4.811-0.213C31.106,38.14,33.174,38.425,35.245,38.793L35.245,38.793z M45.856,41.014
		c3.089,0.605,5.857,0.961,7.992,0.609c1.813-0.304,3.607-0.549,5.357-0.787c0.021,1.112,0.122,2.263,0.343,3.459
		c0.655,2.817,1.39,5.195,1.685,7.863c-2.305,0.372-4.723,0.69-7.215,0.907c-2.372,0.16-4.574,0.042-6.704-0.204
		c-0.048-2.285-0.317-4.62-0.967-6.777C45.93,44.354,45.809,42.659,45.856,41.014L45.856,41.014z M73.152,50.436
		c0.578,3.182,0.55,6.185-1.231,9.071c-0.209,0.34-0.731,2.315-1.129,2.505c-2.282,1.059-4.538,1.104-6.769,1.68
		c-1.115,0.289-1.916,0.295-3.023,0.466c-0.344,0.053-1.193-0.058-1.537-0.013c1.657-5.016,2.112-8.896,1.77-11.984
		c4.49-0.722,8.537-1.661,11.756-2.537C73.049,49.896,73.1,50.166,73.152,50.436L73.152,50.436z M46.248,63.695
		c-0.858-0.064-1.717-0.129-2.583-0.192c-1.371-0.116-2.742-0.222-4.116-0.308c-0.069-0.004-0.138-0.01-0.207-0.014
		c-1.379-0.084-2.758-0.148-4.139-0.185c-0.07-2.775-0.184-6.728-0.253-12.049c4.288,0.448,8.184,1.432,12.362,1.914
		C47.405,57.194,46.699,61.33,46.248,63.695L46.248,63.695z M24.06,63.527L24.06,63.527c0.001,0,0.003,0,0.005,0
		C24.063,63.527,24.062,63.527,24.06,63.527L24.06,63.527z M24.044,63.529c-0.648,0.089-1.295,0.193-1.942,0.307
		c-0.125,0.021-0.253,0.047-0.378,0.068c-0.506,0.094-1.012,0.195-1.517,0.307c-0.202,0.045-0.402,0.088-0.604,0.135
		c-0.466,0.106-0.931,0.227-1.394,0.35c-0.195,0.052-0.387,0.1-0.581,0.152c-0.641,0.18-1.28,0.37-1.917,0.582
		c-0.397,0.121-0.705-0.074-0.682-0.455c0.157-3.022,0.525-6.891,0.69-10.97c2.031-0.937,5.018-2.037,8.884-2.734
		c0.008,5.114-0.284,9.333-0.543,12.256C24.055,63.527,24.049,63.529,24.044,63.529L24.044,63.529z M37.369,26.28
		c-0.005,0.02-0.011,0.034-0.016,0.053c-2.482-0.45-5.075-0.839-7.849-1.079C32.282,25.494,34.88,25.857,37.369,26.28L37.369,26.28z
		 M47.799,63.803c-0.508-0.035-1.015-0.066-1.526-0.105C46.786,63.734,47.29,63.768,47.799,63.803L47.799,63.803z M49.784,63.926
		c0.429,0.025,0.856,0.045,1.284,0.063C50.642,63.973,50.213,63.949,49.784,63.926L49.784,63.926z M54.231,64.066
		c-0.334-0.002-0.671-0.012-1.006-0.017C53.56,64.057,53.898,64.066,54.231,64.066L54.231,64.066z"/>
	
		<linearGradient id="SVGID_48_" gradientUnits="userSpaceOnUse" x1="263.8975" y1="-258.752" x2="296.9634" y2="-307.7743" gradientTransform="matrix(1 0 0 -1 -237.5996 -239.9004)">
		<stop  offset="0" style="stop-color:#000000;stop-opacity:0"/>
		<stop  offset="0.4385" style="stop-color:#000000;stop-opacity:0.62"/>
		<stop  offset="0.7192" style="stop-color:#000000;stop-opacity:0.14"/>
		<stop  offset="1" style="stop-color:#000000;stop-opacity:0.62"/>
	</linearGradient>
	<path fill="url(#SVGID_48_)" fill-opacity="0.75" d="M9.994,29.868c7.074-3.722,13.878-4.75,19.692-4.268
		c5.871,0.44,11.031,1.89,15.876,2.95c9.795,1.979,17.801,3.765,27.724-2.513C73.51,25.89,73.624,25.885,73.63,26
		c0.009,0.115-0.093,0.351-0.288,0.671c-4.939,8.11-3.716,13.465-2.833,18.963c1.023,5.327,2.39,9.909-0.176,14.52
		c-0.192,0.339-0.663,0.797-1.019,1.002c-2.033,1.16-3.998,1.935-5.92,2.406c-0.961,0.237-1.908,0.397-2.852,0.496
		c-0.471,0.049-0.939,0.082-1.406,0.1c-0.234,0.009-0.468,0.016-0.701,0.018c-0.231,0.002-0.465,0-0.695-0.005
		c-3.714-0.077-7.287-1.209-11.035-2.065c-11.936-2.709-21.43,0.285-31.252,2.975c-0.438,0.115-0.735-0.104-0.66-0.51
		c1.835-10.353,7.071-29.336-5.044-33.91c-0.117-0.032-0.199-0.077-0.245-0.131C9.48,30.5,9.465,30.47,9.459,30.438
		s-0.005-0.066,0.006-0.101C9.509,30.194,9.687,30.026,9.994,29.868L9.994,29.868L9.994,29.868L9.994,29.868L9.994,29.868
		L9.994,29.868z"/>
	<path fill="#FC7E7E" d="M81.609,93.029c-0.692-0.332-1.133-1.032-1.133-1.801c0,0,0-6.121,0-8.771c-2.681,0-9.018,0-9.018,0
		c-1.104,0-2-0.896-2-2.001V64.462c0-1.104,0.896-2,2-2c0,0,6.337,0,9.018,0c0-2.619,0-8.48,0-8.48c0-0.758,0.428-1.45,1.104-1.789
		c0.282-0.141,0.589-0.211,0.896-0.211c0.424,0,0.846,0.135,1.197,0.399l24.07,18.02c0.497,0.373,0.793,0.951,0.803,1.57
		c0,0.01,0,0.021,0,0.029c0,0.609-0.277,1.186-0.753,1.564L83.725,92.791c-0.363,0.289-0.804,0.438-1.248,0.438
		C82.184,93.229,81.887,93.163,81.609,93.029"/>
	<g>
		
			<linearGradient id="SVGID_49_" gradientUnits="userSpaceOnUse" x1="326.6045" y1="-331.1284" x2="326.6045" y2="-293.8823" gradientTransform="matrix(1 0 0 -1 -237.5996 -239.9004)">
			<stop  offset="0" style="stop-color:#FF0000"/>
			<stop  offset="0.1758" style="stop-color:#F60303"/>
			<stop  offset="0.4969" style="stop-color:#EC0404"/>
			<stop  offset="0.782" style="stop-color:#E30101"/>
			<stop  offset="1" style="stop-color:#D60202"/>
		</linearGradient>
		<polygon fill="url(#SVGID_49_)" points="82.477,91.229 106.548,72.002 82.477,53.982 82.477,64.462 71.46,64.462 71.46,80.456 
			82.477,80.456 		"/>
	</g>
	
		<linearGradient id="SVGID_50_" gradientUnits="userSpaceOnUse" x1="325.9707" y1="-312.9409" x2="325.9707" y2="-296.8774" gradientTransform="matrix(1 0 0 -1 -237.5996 -239.9004)">
		<stop  offset="0" style="stop-color:#FFFFFF;stop-opacity:0"/>
		<stop  offset="1" style="stop-color:#FFFFFF;stop-opacity:0.8"/>
	</linearGradient>
	<path fill="url(#SVGID_50_)" d="M73.46,72.912c0-1.999,0-5.27,0-7.449c2.681,0,9.017,0,9.017,0c1.105,0,2.002-0.896,2.002-2
		c0,0,0-3.426,0-6.486c4.332,3.243,15.844,11.864,18.801,14.078c-0.229,0.184-0.323,0.258-0.492,0.395
		c-3.916-0.711-7.367-1.068-10.27-1.068c-2.785,0-4.98,0.325-6.713,0.994c-2.904,1.121-5.988,1.666-9.428,1.666
		C75.434,73.04,74.458,72.997,73.46,72.912"/>
</g>
</svg>
