<?xml version="1.0" encoding="utf-8"?>
<!-- Generator: Adobe Illustrator 16.0.2, SVG Export Plug-In . SVG Version: 6.00 Build 0)  -->
<!DOCTYPE svg PUBLIC "-//W3C//DTD SVG 1.1//EN" "http://www.w3.org/Graphics/SVG/1.1/DTD/svg11.dtd">
<svg version="1.1" id="Layer_1" xmlns="http://www.w3.org/2000/svg" xmlns:xlink="http://www.w3.org/1999/xlink" x="0px" y="0px"
	 width="120px" height="120px" viewBox="0 0 120 120" enable-background="new 0 0 120 120" xml:space="preserve">
<g id="black_white">
	<path fill="#FFFFFF" d="M59.999,105.6C34.732,105.6,14.25,85.184,14.25,60c0-25.185,20.482-45.6,45.749-45.6
		c25.269,0,45.75,20.414,45.75,45.6C105.75,85.184,85.268,105.6,59.999,105.6L59.999,105.6z M60.148,100.389
		c2.823,0,5.592-1.166,5.592-4.813c0-2.598-1.871-3.563-3.723-4.148c-1.871-0.582-3.722-0.785-3.722-1.891
		c0-0.947,0.898-1.229,1.618-1.229c1.025,0,2.122,0.424,2.068,1.731h3.346c-0.02-3.241-2.59-4.632-5.142-4.632
		c-2.41,0-5.232,1.229-5.232,4.369c0,2.638,1.923,3.564,3.757,4.147c1.854,0.585,3.688,0.826,3.688,2.095
		c0,1.067-1.043,1.471-2.05,1.471c-1.421,0-2.356-0.545-2.428-2.236h-3.344C54.592,98.939,57.2,100.389,60.148,100.389
		L60.148,100.389z M34.143,51.485l-1.816,10.511h-0.035l-1.888-10.511h-3.145l-1.889,10.51h-0.037l-1.816-10.511h-3.344l3.47,14.377
		h3.398l1.762-9.905h0.035l1.763,9.905h3.344l3.541-14.377L34.143,51.485L34.143,51.485z M65.827,19.602H62.68v8.86h-0.035
		l-4.459-8.86h-3.434v14.377h3.147v-8.96h0.035l4.459,8.96h3.435V19.602L65.827,19.602z M70.243,61.516L53.774,45.099
		c-1.949-1.943-3.933-0.77-5.882,1.172c-1.949,1.944-3.126,3.921-1.177,5.863L63.186,68.55l10.588,3.517L70.243,61.516
		L70.243,61.516z M99.161,59.902v-2.9h-6.292v-2.516h6.887v-3.001h-10.23v14.376h10.41v-3.221H92.87v-2.739H99.161L99.161,59.902z"
		/>
</g>
<g id="blue">
	<path fill-opacity="0.1" d="M43.191,103.309c-5.477-2.317-10.395-5.634-14.619-9.855c-4.223-4.225-7.54-9.143-9.855-14.619
		c-2.401-5.673-3.616-11.697-3.616-17.904c0-6.208,1.215-12.23,3.616-17.904c2.316-5.477,5.632-10.396,9.855-14.619
		c4.224-4.223,9.142-7.538,14.619-9.855c5.673-2.399,11.696-3.615,17.905-3.615c6.207,0,12.229,1.215,17.902,3.615
		c5.477,2.317,10.396,5.632,14.618,9.855c4.224,4.223,7.54,9.142,9.856,14.619c2.399,5.672,3.614,11.696,3.614,17.904
		c0,6.207-1.215,12.231-3.614,17.904c-2.316,5.479-5.634,10.396-9.856,14.619c-4.224,4.223-9.142,7.538-14.618,9.855
		c-5.673,2.398-11.695,3.613-17.902,3.613C54.887,106.922,48.864,105.707,43.191,103.309"/>
	<path fill="#70B7E0" d="M41.191,101.309c-5.477-2.317-10.395-5.634-14.619-9.855c-4.223-4.225-7.54-9.143-9.855-14.619
		c-2.401-5.673-3.616-11.697-3.616-17.905c0-6.208,1.215-12.231,3.616-17.903c2.316-5.477,5.632-10.396,9.855-14.619
		c4.224-4.223,9.142-7.538,14.619-9.855c5.673-2.399,11.696-3.615,17.904-3.615c6.208,0,12.23,1.215,17.903,3.615
		c5.477,2.317,10.396,5.632,14.618,9.855c4.224,4.223,7.54,9.142,9.856,14.619c2.399,5.672,3.614,11.696,3.614,17.903
		c0,6.208-1.215,12.232-3.614,17.905c-2.316,5.479-5.634,10.396-9.856,14.619c-4.224,4.223-9.142,7.538-14.618,9.855
		c-5.673,2.398-11.695,3.613-17.903,3.613C52.887,104.922,46.864,103.707,41.191,101.309"/>
	<g>
		
			<linearGradient id="SVGID_1_" gradientUnits="userSpaceOnUse" x1="296.6953" y1="-341.8237" x2="296.6952" y2="-255.8364" gradientTransform="matrix(1 0 0 -1 -237.5996 -239.9004)">
			<stop  offset="0" style="stop-color:#48A2FB"/>
			<stop  offset="0.1758" style="stop-color:#059CF4"/>
			<stop  offset="0.4969" style="stop-color:#0398EF"/>
			<stop  offset="0.782" style="stop-color:#0293E7"/>
			<stop  offset="1" style="stop-color:#0189D8"/>
		</linearGradient>
		<path fill="url(#SVGID_1_)" d="M59.095,15.936c23.744,0,42.994,19.249,42.994,42.993c0,23.746-19.25,42.995-42.994,42.995
			c-23.744,0-42.995-19.25-42.995-42.996C16.1,35.184,35.351,15.936,59.095,15.936L59.095,15.936z"/>
	</g>
	
		<linearGradient id="SVGID_2_" gradientUnits="userSpaceOnUse" x1="296.6953" y1="-283.9473" x2="296.6953" y2="-257.4883" gradientTransform="matrix(1 0 0 -1 -237.5996 -239.9004)">
		<stop  offset="0" style="stop-color:#FFFFFF;stop-opacity:0"/>
		<stop  offset="1" style="stop-color:#FFFFFF;stop-opacity:0.8"/>
	</linearGradient>
	<path fill="url(#SVGID_2_)" d="M59.095,17.588c15.068,0,28.111,8.269,28.111,13.23c0,7.306-13.043,13.229-28.111,13.229
		c-15.069,0-28.112-5.922-28.112-13.229C30.983,25.857,44.026,17.588,59.095,17.588L59.095,17.588z"/>
	<path fill="#00598C" d="M61.354,42.5c3.51,3.507,17.541,36.248,17.541,36.248S46.154,64.717,42.647,61.209
		c-3.509-3.508-4.678-9.354,2.338-16.37C52,37.824,57.847,38.993,61.354,42.5L61.354,42.5z"/>
	<path fill="#FFEAEA" d="M63.377,68.586c-15.916-7.281-18.294-9.189-18.609-9.499h0.002c-1.269-1.267-1.913-2.708-1.913-4.282
		c0-2.353,1.47-5.066,4.25-7.844c2.779-2.78,5.492-4.249,7.844-4.249c1.574,0,3.014,0.642,4.281,1.911
		c0.31,0.314,2.217,2.692,9.5,18.607c1.588,3.472,3.111,6.888,4.358,9.715C70.264,71.697,66.848,70.173,63.377,68.586"/>
	<polygon fill="#00598C" points="98.253,66.45 98.253,63.699 92.777,63.699 92.777,60.057 97.822,60.057 97.822,57.304 
		92.777,57.304 92.777,54.775 98.253,54.775 98.253,52.022 89.568,52.022 89.568,66.45 	"/>
	<polygon fill="#00598C" points="31.435,52.022 29.572,61.702 27.527,52.022 24.329,52.022 22.173,61.702 20.405,52.022 
		17.06,52.022 20.311,66.45 23.845,66.45 25.845,57.527 27.907,66.45 31.443,66.45 34.694,52.022 	"/>
	<path fill="#00598C" d="M62.559,99.13c1.002-0.873,1.506-2.026,1.506-3.46c0-1.001-0.219-1.807-0.651-2.416
		c-0.435-0.611-1.099-1.098-1.988-1.459c-0.454-0.182-0.881-0.324-1.28-0.427c-0.398-0.104-0.813-0.209-1.246-0.32
		c-0.667-0.174-1.117-0.368-1.349-0.586c-0.234-0.216-0.349-0.508-0.349-0.876c0-0.253,0.072-0.48,0.219-0.684
		c0.146-0.203,0.32-0.357,0.522-0.461c0.246-0.129,0.481-0.215,0.706-0.262c0.224-0.046,0.478-0.068,0.759-0.068
		c0.724,0,1.431,0.16,2.116,0.477c0.688,0.314,1.27,0.703,1.746,1.163h0.285v-3.294c-0.598-0.298-1.275-0.533-2.031-0.708
		s-1.517-0.263-2.279-0.263c-1.525,0-2.795,0.42-3.812,1.256c-1.019,0.836-1.526,1.93-1.526,3.279c0,1,0.214,1.836,0.647,2.5
		c0.431,0.664,1.144,1.194,2.138,1.588c0.431,0.168,0.895,0.312,1.394,0.427c0.496,0.116,0.964,0.239,1.401,0.368
		c0.349,0.104,0.651,0.27,0.905,0.494c0.252,0.226,0.379,0.52,0.379,0.881c0,0.324-0.078,0.584-0.233,0.781
		c-0.155,0.195-0.345,0.351-0.568,0.461c-0.184,0.096-0.426,0.168-0.729,0.213c-0.301,0.045-0.545,0.066-0.729,0.066
		c-0.73,0-1.483-0.164-2.26-0.492c-0.775-0.33-1.486-0.804-2.13-1.416h-0.293v3.43c0.639,0.318,1.329,0.582,2.074,0.795
		c0.745,0.214,1.608,0.32,2.591,0.32C60.199,100.438,61.557,100.001,62.559,99.13L62.559,99.13z"/>
	<polygon fill="#00598C" points="64.456,20.604 61.506,20.604 61.506,28.869 57.409,20.604 53.452,20.604 53.452,35.032 
		56.4,35.032 56.4,24.975 61.352,35.032 64.456,35.032 	"/>
</g>
<g id="green">
	<path fill-opacity="0.1" d="M43.191,103.309c-5.477-2.317-10.395-5.634-14.619-9.855c-4.223-4.225-7.54-9.143-9.855-14.619
		c-2.401-5.673-3.616-11.697-3.616-17.904c0-6.208,1.215-12.23,3.616-17.904c2.316-5.477,5.632-10.396,9.855-14.619
		c4.224-4.223,9.142-7.538,14.619-9.855c5.673-2.399,11.696-3.615,17.905-3.615c6.207,0,12.229,1.215,17.902,3.615
		c5.477,2.317,10.396,5.632,14.618,9.855c4.224,4.223,7.54,9.142,9.856,14.619c2.399,5.672,3.614,11.696,3.614,17.904
		c0,6.207-1.215,12.231-3.614,17.904c-2.316,5.479-5.634,10.396-9.856,14.619c-4.224,4.223-9.142,7.538-14.618,9.855
		c-5.673,2.398-11.695,3.613-17.902,3.613C54.887,106.922,48.864,105.707,43.191,103.309"/>
	<path fill="#03FC30" d="M41.191,101.309c-5.477-2.317-10.395-5.634-14.619-9.855c-4.223-4.225-7.54-9.143-9.855-14.619
		c-2.401-5.673-3.616-11.697-3.616-17.905c0-6.208,1.215-12.231,3.616-17.903c2.316-5.477,5.632-10.396,9.855-14.619
		c4.224-4.223,9.142-7.538,14.619-9.855c5.673-2.399,11.696-3.615,17.904-3.615c6.208,0,12.23,1.215,17.903,3.615
		c5.477,2.317,10.396,5.632,14.618,9.855c4.224,4.223,7.54,9.142,9.856,14.619c2.399,5.672,3.614,11.696,3.614,17.903
		c0,6.208-1.215,12.232-3.614,17.905c-2.316,5.479-5.634,10.396-9.856,14.619c-4.224,4.223-9.142,7.538-14.618,9.855
		c-5.673,2.398-11.695,3.613-17.903,3.613C52.887,104.922,46.864,103.707,41.191,101.309"/>
	<g>
		
			<linearGradient id="SVGID_3_" gradientUnits="userSpaceOnUse" x1="296.6953" y1="-341.8237" x2="296.6952" y2="-255.8364" gradientTransform="matrix(1 0 0 -1 -237.5996 -239.9004)">
			<stop  offset="0" style="stop-color:#00DF34"/>
			<stop  offset="0.1758" style="stop-color:#00CD26"/>
			<stop  offset="0.4969" style="stop-color:#00B211"/>
			<stop  offset="0.782" style="stop-color:#00A204"/>
			<stop  offset="1" style="stop-color:#009C00"/>
		</linearGradient>
		<path fill="url(#SVGID_3_)" d="M59.095,15.936c23.744,0,42.994,19.249,42.994,42.993c0,23.746-19.25,42.995-42.994,42.995
			c-23.744,0-42.995-19.25-42.995-42.996C16.1,35.184,35.351,15.936,59.095,15.936L59.095,15.936z"/>
	</g>
	
		<linearGradient id="SVGID_4_" gradientUnits="userSpaceOnUse" x1="296.6953" y1="-283.9473" x2="296.6953" y2="-257.4883" gradientTransform="matrix(1 0 0 -1 -237.5996 -239.9004)">
		<stop  offset="0" style="stop-color:#FFFFFF;stop-opacity:0"/>
		<stop  offset="1" style="stop-color:#FFFFFF;stop-opacity:0.8"/>
	</linearGradient>
	<path fill="url(#SVGID_4_)" d="M59.095,17.588c15.068,0,28.111,8.269,28.111,13.23c0,7.306-13.043,13.229-28.111,13.229
		c-15.069,0-28.112-5.922-28.112-13.229C30.983,25.857,44.026,17.588,59.095,17.588L59.095,17.588z"/>
	<path fill="#015911" d="M61.354,42.5c3.51,3.507,17.541,36.248,17.541,36.248S46.154,64.717,42.647,61.209
		c-3.509-3.508-4.678-9.354,2.338-16.37C52,37.824,57.847,38.993,61.354,42.5L61.354,42.5z"/>
	<path fill="#FFEAEA" d="M63.377,68.586c-15.916-7.281-18.294-9.189-18.609-9.499h0.002c-1.269-1.267-1.913-2.708-1.913-4.282
		c0-2.353,1.47-5.066,4.25-7.844c2.779-2.78,5.492-4.249,7.844-4.249c1.574,0,3.014,0.642,4.281,1.911
		c0.31,0.314,2.217,2.692,9.5,18.607c1.588,3.472,3.111,6.888,4.358,9.715C70.264,71.697,66.848,70.173,63.377,68.586"/>
	<polygon fill="#015911" points="98.253,66.45 98.253,63.699 92.777,63.699 92.777,60.057 97.822,60.057 97.822,57.304 
		92.777,57.304 92.777,54.775 98.253,54.775 98.253,52.022 89.568,52.022 89.568,66.45 	"/>
	<polygon fill="#015911" points="31.435,52.022 29.572,61.702 27.527,52.022 24.329,52.022 22.173,61.702 20.405,52.022 
		17.06,52.022 20.311,66.45 23.845,66.45 25.845,57.527 27.907,66.45 31.443,66.45 34.694,52.022 	"/>
	<path fill="#015911" d="M62.559,99.13c1.002-0.873,1.506-2.026,1.506-3.46c0-1.001-0.219-1.807-0.651-2.416
		c-0.435-0.611-1.099-1.098-1.988-1.459c-0.454-0.182-0.881-0.324-1.28-0.427c-0.398-0.104-0.813-0.209-1.246-0.32
		c-0.667-0.174-1.117-0.368-1.349-0.586c-0.234-0.216-0.349-0.508-0.349-0.876c0-0.253,0.072-0.48,0.219-0.684
		c0.146-0.203,0.32-0.357,0.522-0.461c0.246-0.129,0.481-0.215,0.706-0.262c0.224-0.046,0.478-0.068,0.759-0.068
		c0.724,0,1.431,0.16,2.116,0.477c0.688,0.314,1.27,0.703,1.746,1.163h0.285v-3.294c-0.598-0.298-1.275-0.533-2.031-0.708
		s-1.517-0.263-2.279-0.263c-1.525,0-2.795,0.42-3.812,1.256c-1.019,0.836-1.526,1.93-1.526,3.279c0,1,0.214,1.836,0.647,2.5
		c0.431,0.664,1.144,1.194,2.138,1.588c0.431,0.168,0.895,0.312,1.394,0.427c0.496,0.116,0.964,0.239,1.401,0.368
		c0.349,0.104,0.651,0.27,0.905,0.494c0.252,0.226,0.379,0.52,0.379,0.881c0,0.324-0.078,0.584-0.233,0.781
		c-0.155,0.195-0.345,0.351-0.568,0.461c-0.184,0.096-0.426,0.168-0.729,0.213c-0.301,0.045-0.545,0.066-0.729,0.066
		c-0.73,0-1.483-0.164-2.26-0.492c-0.775-0.33-1.486-0.804-2.13-1.416h-0.293v3.43c0.639,0.318,1.329,0.582,2.074,0.795
		c0.745,0.214,1.608,0.32,2.591,0.32C60.199,100.438,61.557,100.001,62.559,99.13L62.559,99.13z"/>
	<polygon fill="#015911" points="64.456,20.604 61.506,20.604 61.506,28.869 57.409,20.604 53.452,20.604 53.452,35.032 
		56.4,35.032 56.4,24.975 61.352,35.032 64.456,35.032 	"/>
</g>
<g id="kia">
	<path fill-opacity="0.1" d="M43.191,103.309c-5.477-2.317-10.395-5.634-14.619-9.855c-4.223-4.225-7.54-9.143-9.855-14.619
		c-2.401-5.673-3.616-11.697-3.616-17.904c0-6.208,1.215-12.23,3.616-17.904c2.316-5.477,5.632-10.396,9.855-14.619
		c4.224-4.223,9.142-7.538,14.619-9.855c5.673-2.399,11.696-3.615,17.905-3.615c6.207,0,12.229,1.215,17.902,3.615
		c5.477,2.317,10.396,5.632,14.618,9.855c4.224,4.223,7.54,9.142,9.856,14.619c2.399,5.672,3.614,11.696,3.614,17.904
		c0,6.207-1.215,12.231-3.614,17.904c-2.316,5.479-5.634,10.396-9.856,14.619c-4.224,4.223-9.142,7.538-14.618,9.855
		c-5.673,2.398-11.695,3.613-17.902,3.613C54.887,106.922,48.864,105.707,43.191,103.309"/>
	<path fill="#9E171E" d="M41.191,101.309c-5.477-2.317-10.395-5.634-14.619-9.855c-4.223-4.225-7.54-9.143-9.855-14.619
		c-2.401-5.673-3.616-11.697-3.616-17.905c0-6.208,1.215-12.231,3.616-17.903c2.316-5.477,5.632-10.396,9.855-14.619
		c4.224-4.223,9.142-7.538,14.619-9.855c5.673-2.399,11.696-3.615,17.904-3.615c6.208,0,12.23,1.215,17.903,3.615
		c5.477,2.317,10.396,5.632,14.618,9.855c4.224,4.223,7.54,9.142,9.856,14.619c2.399,5.672,3.614,11.696,3.614,17.903
		c0,6.208-1.215,12.232-3.614,17.905c-2.316,5.479-5.634,10.396-9.856,14.619c-4.224,4.223-9.142,7.538-14.618,9.855
		c-5.673,2.398-11.695,3.613-17.903,3.613C52.887,104.922,46.864,103.707,41.191,101.309"/>
	<g>
		
			<linearGradient id="SVGID_5_" gradientUnits="userSpaceOnUse" x1="296.6953" y1="-341.8237" x2="296.6952" y2="-255.8364" gradientTransform="matrix(1 0 0 -1 -237.5996 -239.9004)">
			<stop  offset="0" style="stop-color:#FFFFFF"/>
			<stop  offset="0.1758" style="stop-color:#E7E9EA"/>
			<stop  offset="0.4969" style="stop-color:#CDD2D5"/>
			<stop  offset="0.782" style="stop-color:#C5CACC"/>
			<stop  offset="1" style="stop-color:#BABDC0"/>
		</linearGradient>
		<path fill="url(#SVGID_5_)" d="M59.095,15.936c23.744,0,42.994,19.249,42.994,42.993c0,23.746-19.25,42.995-42.994,42.995
			c-23.744,0-42.995-19.25-42.995-42.996C16.1,35.184,35.351,15.936,59.095,15.936L59.095,15.936z"/>
	</g>
	
		<linearGradient id="SVGID_6_" gradientUnits="userSpaceOnUse" x1="296.6953" y1="-283.9473" x2="296.6953" y2="-257.4883" gradientTransform="matrix(1 0 0 -1 -237.5996 -239.9004)">
		<stop  offset="0" style="stop-color:#FFFFFF;stop-opacity:0"/>
		<stop  offset="1" style="stop-color:#FFFFFF;stop-opacity:0.8"/>
	</linearGradient>
	<path fill="url(#SVGID_6_)" d="M59.095,17.588c15.068,0,28.111,8.269,28.111,13.23c0,7.306-13.043,13.229-28.111,13.229
		c-15.069,0-28.112-5.922-28.112-13.229C30.983,25.857,44.026,17.588,59.095,17.588L59.095,17.588z"/>
	<path fill="#9E171E" d="M61.354,42.5c3.51,3.507,17.541,36.248,17.541,36.248S46.154,64.717,42.647,61.209
		c-3.509-3.508-4.678-9.354,2.338-16.37C52,37.824,57.847,38.993,61.354,42.5L61.354,42.5z"/>
	<path fill="#FFEAEA" d="M63.377,68.586c-15.916-7.281-18.294-9.189-18.609-9.499h0.002c-1.269-1.267-1.913-2.708-1.913-4.282
		c0-2.353,1.47-5.066,4.25-7.844c2.779-2.78,5.492-4.249,7.844-4.249c1.574,0,3.014,0.642,4.281,1.911
		c0.31,0.314,2.217,2.692,9.5,18.607c1.588,3.472,3.111,6.888,4.358,9.715C70.264,71.697,66.848,70.173,63.377,68.586"/>
	<polygon fill="#9E171E" points="98.253,66.45 98.253,63.699 92.777,63.699 92.777,60.057 97.822,60.057 97.822,57.304 
		92.777,57.304 92.777,54.775 98.253,54.775 98.253,52.022 89.568,52.022 89.568,66.45 	"/>
	<polygon fill="#9E171E" points="31.435,52.022 29.572,61.702 27.527,52.022 24.329,52.022 22.173,61.702 20.405,52.022 
		17.06,52.022 20.311,66.45 23.845,66.45 25.845,57.527 27.907,66.45 31.443,66.45 34.694,52.022 	"/>
	<path fill="#9E171E" d="M62.559,99.13c1.002-0.873,1.506-2.026,1.506-3.46c0-1.001-0.219-1.807-0.651-2.416
		c-0.435-0.611-1.099-1.098-1.988-1.459c-0.454-0.182-0.881-0.324-1.28-0.427c-0.398-0.104-0.813-0.209-1.246-0.32
		c-0.667-0.174-1.117-0.368-1.349-0.586c-0.234-0.216-0.349-0.508-0.349-0.876c0-0.253,0.072-0.48,0.219-0.684
		c0.146-0.203,0.32-0.357,0.522-0.461c0.246-0.129,0.481-0.215,0.706-0.262c0.224-0.046,0.478-0.068,0.759-0.068
		c0.724,0,1.431,0.16,2.116,0.477c0.688,0.314,1.27,0.703,1.746,1.163h0.285v-3.294c-0.598-0.298-1.275-0.533-2.031-0.708
		s-1.517-0.263-2.279-0.263c-1.525,0-2.795,0.42-3.812,1.256c-1.019,0.836-1.526,1.93-1.526,3.279c0,1,0.214,1.836,0.647,2.5
		c0.431,0.664,1.144,1.194,2.138,1.588c0.431,0.168,0.895,0.312,1.394,0.427c0.496,0.116,0.964,0.239,1.401,0.368
		c0.349,0.104,0.651,0.27,0.905,0.494c0.252,0.226,0.379,0.52,0.379,0.881c0,0.324-0.078,0.584-0.233,0.781
		c-0.155,0.195-0.345,0.351-0.568,0.461c-0.184,0.096-0.426,0.168-0.729,0.213c-0.301,0.045-0.545,0.066-0.729,0.066
		c-0.73,0-1.483-0.164-2.26-0.492c-0.775-0.33-1.486-0.804-2.13-1.416h-0.293v3.43c0.639,0.318,1.329,0.582,2.074,0.795
		c0.745,0.214,1.608,0.32,2.591,0.32C60.199,100.438,61.557,100.001,62.559,99.13L62.559,99.13z"/>
	<polygon fill="#9E171E" points="64.456,20.604 61.506,20.604 61.506,28.869 57.409,20.604 53.452,20.604 53.452,35.032 
		56.4,35.032 56.4,24.975 61.352,35.032 64.456,35.032 	"/>
</g>
<g id="orange">
	<path fill-opacity="0.1" d="M43.191,103.309c-5.477-2.317-10.395-5.634-14.619-9.855c-4.223-4.225-7.54-9.143-9.855-14.619
		c-2.401-5.673-3.616-11.697-3.616-17.904c0-6.208,1.215-12.23,3.616-17.904c2.316-5.477,5.632-10.396,9.855-14.619
		c4.224-4.223,9.142-7.538,14.619-9.855c5.673-2.399,11.696-3.615,17.905-3.615c6.207,0,12.229,1.215,17.902,3.615
		c5.477,2.317,10.396,5.632,14.618,9.855c4.224,4.223,7.54,9.142,9.856,14.619c2.399,5.672,3.614,11.696,3.614,17.904
		c0,6.207-1.215,12.231-3.614,17.904c-2.316,5.479-5.634,10.396-9.856,14.619c-4.224,4.223-9.142,7.538-14.618,9.855
		c-5.673,2.398-11.695,3.613-17.902,3.613C54.887,106.922,48.864,105.707,43.191,103.309"/>
	<path fill="#FFE035" d="M41.191,101.309c-5.477-2.317-10.395-5.634-14.619-9.855c-4.223-4.225-7.54-9.143-9.855-14.619
		c-2.401-5.673-3.616-11.697-3.616-17.905c0-6.208,1.215-12.231,3.616-17.903c2.316-5.477,5.632-10.396,9.855-14.619
		c4.224-4.223,9.142-7.538,14.619-9.855c5.673-2.399,11.696-3.615,17.904-3.615c6.208,0,12.23,1.215,17.903,3.615
		c5.477,2.317,10.396,5.632,14.618,9.855c4.224,4.223,7.54,9.142,9.856,14.619c2.399,5.672,3.614,11.696,3.614,17.903
		c0,6.208-1.215,12.232-3.614,17.905c-2.316,5.479-5.634,10.396-9.856,14.619c-4.224,4.223-9.142,7.538-14.618,9.855
		c-5.673,2.398-11.695,3.613-17.903,3.613C52.887,104.922,46.864,103.707,41.191,101.309"/>
	<g>
		
			<linearGradient id="SVGID_7_" gradientUnits="userSpaceOnUse" x1="296.6953" y1="-341.8237" x2="296.6952" y2="-255.8364" gradientTransform="matrix(1 0 0 -1 -237.5996 -239.9004)">
			<stop  offset="0" style="stop-color:#FEDF34"/>
			<stop  offset="0.1758" style="stop-color:#FECD26"/>
			<stop  offset="0.4969" style="stop-color:#FFB211"/>
			<stop  offset="0.782" style="stop-color:#FFA204"/>
			<stop  offset="1" style="stop-color:#FF9C00"/>
		</linearGradient>
		<path fill="url(#SVGID_7_)" d="M59.095,15.936c23.744,0,42.994,19.249,42.994,42.993c0,23.746-19.25,42.995-42.994,42.995
			c-23.744,0-42.995-19.25-42.995-42.996C16.1,35.184,35.351,15.936,59.095,15.936L59.095,15.936z"/>
	</g>
	
		<linearGradient id="SVGID_8_" gradientUnits="userSpaceOnUse" x1="296.6953" y1="-283.9473" x2="296.6953" y2="-257.4883" gradientTransform="matrix(1 0 0 -1 -237.5996 -239.9004)">
		<stop  offset="0" style="stop-color:#FFFFFF;stop-opacity:0"/>
		<stop  offset="1" style="stop-color:#FFFFFF;stop-opacity:0.8"/>
	</linearGradient>
	<path fill="url(#SVGID_8_)" d="M59.095,17.588c15.068,0,28.111,8.269,28.111,13.23c0,7.306-13.043,13.229-28.111,13.229
		c-15.069,0-28.112-5.922-28.112-13.229C30.983,25.857,44.026,17.588,59.095,17.588L59.095,17.588z"/>
	<path fill="#A43C10" d="M61.354,42.5c3.51,3.507,17.541,36.248,17.541,36.248S46.154,64.717,42.647,61.209
		c-3.509-3.508-4.678-9.354,2.338-16.37C52,37.824,57.847,38.993,61.354,42.5L61.354,42.5z"/>
	<path fill="#FFEAEA" d="M63.377,68.586c-15.916-7.281-18.294-9.189-18.609-9.499h0.002c-1.269-1.267-1.913-2.708-1.913-4.282
		c0-2.353,1.47-5.066,4.25-7.844c2.779-2.78,5.492-4.249,7.844-4.249c1.574,0,3.014,0.642,4.281,1.911
		c0.31,0.314,2.217,2.692,9.5,18.607c1.588,3.472,3.111,6.888,4.358,9.715C70.264,71.697,66.848,70.173,63.377,68.586"/>
	<polygon fill="#A43C10" points="98.253,66.45 98.253,63.699 92.777,63.699 92.777,60.057 97.822,60.057 97.822,57.304 
		92.777,57.304 92.777,54.775 98.253,54.775 98.253,52.022 89.568,52.022 89.568,66.45 	"/>
	<polygon fill="#A43C10" points="31.435,52.022 29.572,61.702 27.527,52.022 24.329,52.022 22.173,61.702 20.405,52.022 
		17.06,52.022 20.311,66.45 23.845,66.45 25.845,57.527 27.907,66.45 31.443,66.45 34.694,52.022 	"/>
	<path fill="#A43C10" d="M62.559,99.13c1.002-0.873,1.506-2.026,1.506-3.46c0-1.001-0.219-1.807-0.651-2.416
		c-0.435-0.611-1.099-1.098-1.988-1.459c-0.454-0.182-0.881-0.324-1.28-0.427c-0.398-0.104-0.813-0.209-1.246-0.32
		c-0.667-0.174-1.117-0.368-1.349-0.586c-0.234-0.216-0.349-0.508-0.349-0.876c0-0.253,0.072-0.48,0.219-0.684
		c0.146-0.203,0.32-0.357,0.522-0.461c0.246-0.129,0.481-0.215,0.706-0.262c0.224-0.046,0.478-0.068,0.759-0.068
		c0.724,0,1.431,0.16,2.116,0.477c0.688,0.314,1.27,0.703,1.746,1.163h0.285v-3.294c-0.598-0.298-1.275-0.533-2.031-0.708
		s-1.517-0.263-2.279-0.263c-1.525,0-2.795,0.42-3.812,1.256c-1.019,0.836-1.526,1.93-1.526,3.279c0,1,0.214,1.836,0.647,2.5
		c0.431,0.664,1.144,1.194,2.138,1.588c0.431,0.168,0.895,0.312,1.394,0.427c0.496,0.116,0.964,0.239,1.401,0.368
		c0.349,0.104,0.651,0.27,0.905,0.494c0.252,0.226,0.379,0.52,0.379,0.881c0,0.324-0.078,0.584-0.233,0.781
		c-0.155,0.195-0.345,0.351-0.568,0.461c-0.184,0.096-0.426,0.168-0.729,0.213c-0.301,0.045-0.545,0.066-0.729,0.066
		c-0.73,0-1.483-0.164-2.26-0.492c-0.775-0.33-1.486-0.804-2.13-1.416h-0.293v3.43c0.639,0.318,1.329,0.582,2.074,0.795
		c0.745,0.214,1.608,0.32,2.591,0.32C60.199,100.438,61.557,100.001,62.559,99.13L62.559,99.13z"/>
	<polygon fill="#A43C10" points="64.456,20.604 61.506,20.604 61.506,28.869 57.409,20.604 53.452,20.604 53.452,35.032 
		56.4,35.032 56.4,24.975 61.352,35.032 64.456,35.032 	"/>
</g>
<g id="red">
	<path fill-opacity="0.1" d="M43.191,103.309c-5.477-2.317-10.395-5.634-14.619-9.855c-4.223-4.225-7.54-9.143-9.855-14.619
		c-2.401-5.673-3.616-11.697-3.616-17.904c0-6.208,1.215-12.23,3.616-17.904c2.316-5.477,5.632-10.396,9.855-14.619
		c4.224-4.223,9.142-7.538,14.619-9.855c5.673-2.399,11.696-3.615,17.905-3.615c6.207,0,12.229,1.215,17.902,3.615
		c5.477,2.317,10.396,5.632,14.618,9.855c4.224,4.223,7.54,9.142,9.856,14.619c2.399,5.672,3.614,11.696,3.614,17.904
		c0,6.207-1.215,12.231-3.614,17.904c-2.316,5.479-5.634,10.396-9.856,14.619c-4.224,4.223-9.142,7.538-14.618,9.855
		c-5.673,2.398-11.695,3.613-17.902,3.613C54.887,106.922,48.864,105.707,43.191,103.309"/>
	<path fill="#FC7E7E" d="M41.191,101.309c-5.477-2.317-10.395-5.634-14.619-9.855c-4.223-4.225-7.54-9.143-9.855-14.619
		c-2.401-5.673-3.616-11.697-3.616-17.905c0-6.208,1.215-12.231,3.616-17.903c2.316-5.477,5.632-10.396,9.855-14.619
		c4.224-4.223,9.142-7.538,14.619-9.855c5.673-2.399,11.696-3.615,17.904-3.615c6.208,0,12.23,1.215,17.903,3.615
		c5.477,2.317,10.396,5.632,14.618,9.855c4.224,4.223,7.54,9.142,9.856,14.619c2.399,5.672,3.614,11.696,3.614,17.903
		c0,6.208-1.215,12.232-3.614,17.905c-2.316,5.479-5.634,10.396-9.856,14.619c-4.224,4.223-9.142,7.538-14.618,9.855
		c-5.673,2.398-11.695,3.613-17.903,3.613C52.887,104.922,46.864,103.707,41.191,101.309"/>
	<g>
		
			<linearGradient id="SVGID_9_" gradientUnits="userSpaceOnUse" x1="296.6953" y1="-341.8237" x2="296.6952" y2="-255.8364" gradientTransform="matrix(1 0 0 -1 -237.5996 -239.9004)">
			<stop  offset="0" style="stop-color:#FF0000"/>
			<stop  offset="0.1758" style="stop-color:#F60303"/>
			<stop  offset="0.4969" style="stop-color:#EC0404"/>
			<stop  offset="0.782" style="stop-color:#E30101"/>
			<stop  offset="1" style="stop-color:#D60202"/>
		</linearGradient>
		<path fill="url(#SVGID_9_)" d="M59.095,15.936c23.744,0,42.994,19.249,42.994,42.993c0,23.746-19.25,42.995-42.994,42.995
			c-23.744,0-42.995-19.25-42.995-42.996C16.1,35.184,35.351,15.936,59.095,15.936L59.095,15.936z"/>
	</g>
	
		<linearGradient id="SVGID_10_" gradientUnits="userSpaceOnUse" x1="296.6953" y1="-283.9473" x2="296.6953" y2="-257.4883" gradientTransform="matrix(1 0 0 -1 -237.5996 -239.9004)">
		<stop  offset="0" style="stop-color:#FFFFFF;stop-opacity:0"/>
		<stop  offset="1" style="stop-color:#FFFFFF;stop-opacity:0.8"/>
	</linearGradient>
	<path fill="url(#SVGID_10_)" d="M59.095,17.588c15.068,0,28.111,8.269,28.111,13.23c0,7.306-13.043,13.229-28.111,13.229
		c-15.069,0-28.112-5.922-28.112-13.229C30.983,25.857,44.026,17.588,59.095,17.588L59.095,17.588z"/>
	<path fill="#940202" d="M61.354,42.5c3.51,3.507,17.541,36.248,17.541,36.248S46.154,64.717,42.647,61.209
		c-3.509-3.508-4.678-9.354,2.338-16.37C52,37.824,57.847,38.993,61.354,42.5L61.354,42.5z"/>
	<path fill="#FFEAEA" d="M63.377,68.586c-15.916-7.281-18.294-9.189-18.609-9.499h0.002c-1.269-1.267-1.913-2.708-1.913-4.282
		c0-2.353,1.47-5.066,4.25-7.844c2.779-2.78,5.492-4.249,7.844-4.249c1.574,0,3.014,0.642,4.281,1.911
		c0.31,0.314,2.217,2.692,9.5,18.607c1.588,3.472,3.111,6.888,4.358,9.715C70.264,71.697,66.848,70.173,63.377,68.586"/>
	<polygon fill="#940202" points="98.253,66.45 98.253,63.699 92.777,63.699 92.777,60.057 97.822,60.057 97.822,57.304 
		92.777,57.304 92.777,54.775 98.253,54.775 98.253,52.022 89.568,52.022 89.568,66.45 	"/>
	<polygon fill="#940202" points="31.435,52.022 29.572,61.702 27.527,52.022 24.329,52.022 22.173,61.702 20.405,52.022 
		17.06,52.022 20.311,66.45 23.845,66.45 25.845,57.527 27.907,66.45 31.443,66.45 34.694,52.022 	"/>
	<path fill="#940202" d="M62.559,99.13c1.002-0.873,1.506-2.026,1.506-3.46c0-1.001-0.219-1.807-0.651-2.416
		c-0.435-0.611-1.099-1.098-1.988-1.459c-0.454-0.182-0.881-0.324-1.28-0.427c-0.398-0.104-0.813-0.209-1.246-0.32
		c-0.667-0.174-1.117-0.368-1.349-0.586c-0.234-0.216-0.349-0.508-0.349-0.876c0-0.253,0.072-0.48,0.219-0.684
		c0.146-0.203,0.32-0.357,0.522-0.461c0.246-0.129,0.481-0.215,0.706-0.262c0.224-0.046,0.478-0.068,0.759-0.068
		c0.724,0,1.431,0.16,2.116,0.477c0.688,0.314,1.27,0.703,1.746,1.163h0.285v-3.294c-0.598-0.298-1.275-0.533-2.031-0.708
		s-1.517-0.263-2.279-0.263c-1.525,0-2.795,0.42-3.812,1.256c-1.019,0.836-1.526,1.93-1.526,3.279c0,1,0.214,1.836,0.647,2.5
		c0.431,0.664,1.144,1.194,2.138,1.588c0.431,0.168,0.895,0.312,1.394,0.427c0.496,0.116,0.964,0.239,1.401,0.368
		c0.349,0.104,0.651,0.27,0.905,0.494c0.252,0.226,0.379,0.52,0.379,0.881c0,0.324-0.078,0.584-0.233,0.781
		c-0.155,0.195-0.345,0.351-0.568,0.461c-0.184,0.096-0.426,0.168-0.729,0.213c-0.301,0.045-0.545,0.066-0.729,0.066
		c-0.73,0-1.483-0.164-2.26-0.492c-0.775-0.33-1.486-0.804-2.13-1.416h-0.293v3.43c0.639,0.318,1.329,0.582,2.074,0.795
		c0.745,0.214,1.608,0.32,2.591,0.32C60.199,100.438,61.557,100.001,62.559,99.13L62.559,99.13z"/>
	<polygon fill="#940202" points="64.456,20.604 61.506,20.604 61.506,28.869 57.409,20.604 53.452,20.604 53.452,35.032 
		56.4,35.032 56.4,24.975 61.352,35.032 64.456,35.032 	"/>
</g>
</svg>
