<?xml version="1.0" encoding="utf-8"?>
<!-- Generator: Adobe Illustrator 16.0.2, SVG Export Plug-In . SVG Version: 6.00 Build 0)  -->
<!DOCTYPE svg PUBLIC "-//W3C//DTD SVG 1.1//EN" "http://www.w3.org/Graphics/SVG/1.1/DTD/svg11.dtd">
<svg version="1.1" id="Layer_1" xmlns="http://www.w3.org/2000/svg" xmlns:xlink="http://www.w3.org/1999/xlink" x="0px" y="0px"
	 width="120px" height="120px" viewBox="0 0 120 120" enable-background="new 0 0 120 120" xml:space="preserve">
<g id="black_white">
	<path fill="#FFFFFF" d="M93.258,50.371v5.28h-4.785v-5.28H32.238v5.28h-4.786v-5.28h-7.085v-4.56h79.267v4.56H93.258L93.258,50.371
		z M63.426,21.236H75.71l3.254,18.563H63.426V21.236L63.426,21.236z M44.318,21.236h12.284v18.563H41.063L44.318,21.236
		L44.318,21.236z M56.601,54.741v44.022h-25.87l7.726-44.085L56.601,54.741L56.601,54.741z M89.299,98.764H63.426v-44l18.172,0.062
		L89.299,98.764L89.299,98.764z"/>
</g>
<g id="blue">
	<path fill-opacity="0.1" d="M31.33,106.922c-8.949,0-16.229-7.279-16.229-16.229V31.164c0-8.948,7.28-16.228,16.229-16.228h59.527
		c8.949,0,16.229,7.28,16.229,16.228v59.529c0,8.947-7.28,16.229-16.229,16.229H31.33"/>
	<path fill="#70B7E0" d="M29.33,104.922c-8.949,0-16.229-7.279-16.229-16.229V29.164c0-8.948,7.28-16.228,16.229-16.228h59.527
		c8.949,0,16.229,7.28,16.229,16.228v59.529c0,8.947-7.28,16.229-16.229,16.229H29.33"/>
	<g>
		
			<linearGradient id="SVGID_1_" gradientUnits="userSpaceOnUse" x1="296.6943" y1="-341.8228" x2="296.6942" y2="-255.8354" gradientTransform="matrix(1 0 0 -1 -237.5996 -239.9004)">
			<stop  offset="0" style="stop-color:#48A2FB"/>
			<stop  offset="0.1758" style="stop-color:#059CF4"/>
			<stop  offset="0.4969" style="stop-color:#0398EF"/>
			<stop  offset="0.782" style="stop-color:#0293E7"/>
			<stop  offset="1" style="stop-color:#0189D8"/>
		</linearGradient>
		<path fill="url(#SVGID_1_)" d="M88.857,101.923H29.33c-7.306,0-13.23-5.923-13.23-13.229V29.164
			c0-7.306,5.924-13.229,13.23-13.229h59.527c7.308,0,13.23,5.922,13.23,13.229v59.529C102.089,96,96.165,101.923,88.857,101.923
			L88.857,101.923z"/>
	</g>
	<path fill="#70B7E0" d="M60.749,52.314V30.818h8.267l4.777,21.496H60.749L60.749,52.314z M44.396,52.314l4.777-21.496h8.267v21.496
		H44.396L44.396,52.314z M57.44,55.621v34.727H35.944l7.716-34.727H57.44L57.44,55.621z M74.527,55.621l7.717,34.727H60.749V55.621
		H74.527L74.527,55.621z"/>
	<path fill="#FFFFFF" d="M63.748,87.348c0-4.533,0-24.193,0-28.727c2.854,0,5.96,0,8.373,0c0.807,3.625,5.184,23.322,6.384,28.727
		C74.264,87.348,67.293,87.348,63.748,87.348 M39.684,87.348c1.201-5.404,5.578-25.103,6.384-28.727c2.414,0,5.521,0,8.373,0
		c0,4.533,0,24.193,0,28.727C50.896,87.348,43.925,87.348,39.684,87.348 M63.748,49.314c0-3.722,0-11.774,0-15.496
		c1.322,0,1.682,0,2.859,0c0.672,3.017,2.474,11.127,3.443,15.496C67.475,49.314,65.98,49.314,63.748,49.314 M48.137,49.314
		c0.971-4.369,2.772-12.479,3.443-15.496c1.18,0,1.538,0,2.86,0c0,3.722,0,11.774,0,15.496
		C52.208,49.314,50.715,49.314,48.137,49.314"/>
	<path fill="#70B7E0" d="M29.33,58.928v-9.921h59.527v9.921H29.33L29.33,58.928z M73.979,62.236v-8.269h8.267v8.269H73.979
		L73.979,62.236z M35.944,62.236v-8.269h8.267v8.269H35.944L35.944,62.236z"/>
	<path fill="#FFFFFF" d="M76.977,59.237c0-0.053,0-0.309,0-0.309c0-1.658-1.342-3-2.998-3H44.211c-1.657,0-3,1.342-3,3
		c0,0,0,0.256,0,0.309c-1.049,0-1.219,0-2.268,0c0-0.053,0-0.309,0-0.309c0-1.658-1.342-3-3-3c0,0-1.822,0-3.614,0
		c0-1.654,0-2.268,0-3.922c5.123,0,48.405,0,53.528,0c0,1.654,0,2.268,0,3.922c-1.793,0-3.614,0-3.614,0
		c-1.657,0-2.999,1.342-2.999,3c0,0,0,0.256,0,0.309C78.195,59.237,78.025,59.237,76.977,59.237"/>
	
		<linearGradient id="SVGID_2_" gradientUnits="userSpaceOnUse" x1="297.291" y1="-282.6055" x2="297.291" y2="-257.9302" gradientTransform="matrix(1 0 0 -1 -237.5996 -239.9004)">
		<stop  offset="0" style="stop-color:#FFFFFF;stop-opacity:0"/>
		<stop  offset="1" style="stop-color:#FFFFFF;stop-opacity:0.8"/>
	</linearGradient>
	<path fill="url(#SVGID_2_)" d="M36.279,34.888c-10.953-3.797-15.283-8.096-16.986-10.74c1.672-3.347,4.899-5.653,8.636-6.118
		c0.237,0,61.958,0,61.958,0l0.297,0.01c0,0,0.086,0.005,0.168,0.008c5.557,0.737,9.737,5.503,9.737,11.116c0,0,0,10.497,0,13.541
		C72.244,42.546,50.784,39.917,36.279,34.888"/>
</g>
<g id="green">
	<path fill-opacity="0.1" d="M31.33,106.922c-8.949,0-16.229-7.279-16.229-16.229V31.164c0-8.948,7.28-16.228,16.229-16.228h59.527
		c8.949,0,16.229,7.28,16.229,16.228v59.529c0,8.947-7.28,16.229-16.229,16.229H31.33"/>
	<path fill="#03FC30" d="M29.33,104.922c-8.949,0-16.229-7.279-16.229-16.229V29.164c0-8.948,7.28-16.228,16.229-16.228h59.527
		c8.949,0,16.229,7.28,16.229,16.228v59.529c0,8.947-7.28,16.229-16.229,16.229H29.33"/>
	<g>
		
			<linearGradient id="SVGID_3_" gradientUnits="userSpaceOnUse" x1="296.6943" y1="-341.8228" x2="296.6942" y2="-255.8354" gradientTransform="matrix(1 0 0 -1 -237.5996 -239.9004)">
			<stop  offset="0" style="stop-color:#00DF34"/>
			<stop  offset="0.1758" style="stop-color:#00CD26"/>
			<stop  offset="0.4969" style="stop-color:#00B211"/>
			<stop  offset="0.782" style="stop-color:#00A204"/>
			<stop  offset="1" style="stop-color:#009C00"/>
		</linearGradient>
		<path fill="url(#SVGID_3_)" d="M88.857,101.923H29.33c-7.306,0-13.23-5.923-13.23-13.229V29.164
			c0-7.306,5.924-13.229,13.23-13.229h59.527c7.308,0,13.23,5.922,13.23,13.229v59.529C102.089,96,96.165,101.923,88.857,101.923
			L88.857,101.923z"/>
	</g>
	<path fill="#03FC30" d="M60.749,52.314V30.818h8.267l4.777,21.496H60.749L60.749,52.314z M44.396,52.314l4.777-21.496h8.267v21.496
		H44.396L44.396,52.314z M57.44,55.621v34.727H35.944l7.716-34.727H57.44L57.44,55.621z M74.527,55.621l7.717,34.727H60.749V55.621
		H74.527L74.527,55.621z"/>
	<path fill="#FFFFFF" d="M63.748,87.348c0-4.533,0-24.193,0-28.727c2.854,0,5.96,0,8.373,0c0.807,3.625,5.184,23.322,6.384,28.727
		C74.264,87.348,67.293,87.348,63.748,87.348 M39.684,87.348c1.201-5.404,5.578-25.103,6.384-28.727c2.414,0,5.521,0,8.373,0
		c0,4.533,0,24.193,0,28.727C50.896,87.348,43.925,87.348,39.684,87.348 M63.748,49.314c0-3.722,0-11.774,0-15.496
		c1.322,0,1.682,0,2.859,0c0.672,3.017,2.474,11.127,3.443,15.496C67.475,49.314,65.98,49.314,63.748,49.314 M48.137,49.314
		c0.971-4.369,2.772-12.479,3.443-15.496c1.18,0,1.538,0,2.86,0c0,3.722,0,11.774,0,15.496
		C52.208,49.314,50.715,49.314,48.137,49.314"/>
	<path fill="#03FC30" d="M29.33,58.928v-9.921h59.527v9.921H29.33L29.33,58.928z M73.979,62.236v-8.269h8.267v8.269H73.979
		L73.979,62.236z M35.944,62.236v-8.269h8.267v8.269H35.944L35.944,62.236z"/>
	<path fill="#FFFFFF" d="M76.977,59.237c0-0.053,0-0.309,0-0.309c0-1.658-1.342-3-2.998-3H44.211c-1.657,0-3,1.342-3,3
		c0,0,0,0.256,0,0.309c-1.049,0-1.219,0-2.268,0c0-0.053,0-0.309,0-0.309c0-1.658-1.342-3-3-3c0,0-1.822,0-3.614,0
		c0-1.654,0-2.268,0-3.922c5.123,0,48.405,0,53.528,0c0,1.654,0,2.268,0,3.922c-1.793,0-3.614,0-3.614,0
		c-1.657,0-2.999,1.342-2.999,3c0,0,0,0.256,0,0.309C78.195,59.237,78.025,59.237,76.977,59.237"/>
	
		<linearGradient id="SVGID_4_" gradientUnits="userSpaceOnUse" x1="297.291" y1="-282.6055" x2="297.291" y2="-257.9302" gradientTransform="matrix(1 0 0 -1 -237.5996 -239.9004)">
		<stop  offset="0" style="stop-color:#FFFFFF;stop-opacity:0"/>
		<stop  offset="1" style="stop-color:#FFFFFF;stop-opacity:0.8"/>
	</linearGradient>
	<path fill="url(#SVGID_4_)" d="M36.279,34.888c-10.953-3.797-15.283-8.096-16.986-10.74c1.672-3.347,4.899-5.653,8.636-6.118
		c0.237,0,61.958,0,61.958,0l0.297,0.01c0,0,0.086,0.005,0.168,0.008c5.557,0.737,9.737,5.503,9.737,11.116c0,0,0,10.497,0,13.541
		C72.244,42.546,50.784,39.917,36.279,34.888"/>
</g>
<g id="kia">
	<path fill-opacity="0.1" d="M31.33,106.922c-8.949,0-16.229-7.279-16.229-16.229V31.164c0-8.948,7.28-16.228,16.229-16.228h59.527
		c8.949,0,16.229,7.28,16.229,16.228v59.529c0,8.947-7.28,16.229-16.229,16.229H31.33"/>
	<path fill="#9E171E" d="M29.33,104.922c-8.949,0-16.229-7.279-16.229-16.229V29.164c0-8.948,7.28-16.228,16.229-16.228h59.527
		c8.949,0,16.229,7.28,16.229,16.228v59.529c0,8.947-7.28,16.229-16.229,16.229H29.33"/>
	<g>
		
			<linearGradient id="SVGID_5_" gradientUnits="userSpaceOnUse" x1="296.6943" y1="-341.8228" x2="296.6942" y2="-255.8354" gradientTransform="matrix(1 0 0 -1 -237.5996 -239.9004)">
			<stop  offset="0" style="stop-color:#FFFFFF"/>
			<stop  offset="0.1758" style="stop-color:#E7E9EA"/>
			<stop  offset="0.4969" style="stop-color:#CDD2D5"/>
			<stop  offset="0.782" style="stop-color:#C5CACC"/>
			<stop  offset="1" style="stop-color:#BABDC0"/>
		</linearGradient>
		<path fill="url(#SVGID_5_)" d="M88.857,101.923H29.33c-7.306,0-13.23-5.923-13.23-13.229V29.164
			c0-7.306,5.924-13.229,13.23-13.229h59.527c7.308,0,13.23,5.922,13.23,13.229v59.529C102.089,96,96.165,101.923,88.857,101.923
			L88.857,101.923z"/>
	</g>
	<path fill="#9E171E" d="M60.749,52.314V30.818h8.267l4.777,21.496H60.749L60.749,52.314z M44.396,52.314l4.777-21.496h8.267v21.496
		H44.396L44.396,52.314z M57.44,55.621v34.727H35.944l7.716-34.727H57.44L57.44,55.621z M74.527,55.621l7.717,34.727H60.749V55.621
		H74.527L74.527,55.621z"/>
	<path fill="#FFFFFF" d="M63.748,87.348c0-4.533,0-24.193,0-28.727c2.854,0,5.96,0,8.373,0c0.807,3.625,5.184,23.322,6.384,28.727
		C74.264,87.348,67.293,87.348,63.748,87.348 M39.684,87.348c1.201-5.404,5.578-25.103,6.384-28.727c2.414,0,5.521,0,8.373,0
		c0,4.533,0,24.193,0,28.727C50.896,87.348,43.925,87.348,39.684,87.348 M63.748,49.314c0-3.722,0-11.774,0-15.496
		c1.322,0,1.682,0,2.859,0c0.672,3.017,2.474,11.127,3.443,15.496C67.475,49.314,65.98,49.314,63.748,49.314 M48.137,49.314
		c0.971-4.369,2.772-12.479,3.443-15.496c1.18,0,1.538,0,2.86,0c0,3.722,0,11.774,0,15.496
		C52.208,49.314,50.715,49.314,48.137,49.314"/>
	<path fill="#9E171E" d="M29.33,58.928v-9.921h59.527v9.921H29.33L29.33,58.928z M73.979,62.236v-8.269h8.267v8.269H73.979
		L73.979,62.236z M35.944,62.236v-8.269h8.267v8.269H35.944L35.944,62.236z"/>
	<path fill="#FFFFFF" d="M76.977,59.237c0-0.053,0-0.309,0-0.309c0-1.658-1.342-3-2.998-3H44.211c-1.657,0-3,1.342-3,3
		c0,0,0,0.256,0,0.309c-1.049,0-1.219,0-2.268,0c0-0.053,0-0.309,0-0.309c0-1.658-1.342-3-3-3c0,0-1.822,0-3.614,0
		c0-1.654,0-2.268,0-3.922c5.123,0,48.405,0,53.528,0c0,1.654,0,2.268,0,3.922c-1.793,0-3.614,0-3.614,0
		c-1.657,0-2.999,1.342-2.999,3c0,0,0,0.256,0,0.309C78.195,59.237,78.025,59.237,76.977,59.237"/>
	
		<linearGradient id="SVGID_6_" gradientUnits="userSpaceOnUse" x1="297.291" y1="-282.6055" x2="297.291" y2="-257.9302" gradientTransform="matrix(1 0 0 -1 -237.5996 -239.9004)">
		<stop  offset="0" style="stop-color:#FFFFFF;stop-opacity:0"/>
		<stop  offset="1" style="stop-color:#FFFFFF;stop-opacity:0.8"/>
	</linearGradient>
	<path fill="url(#SVGID_6_)" d="M36.279,34.888c-10.953-3.797-15.283-8.096-16.986-10.74c1.672-3.347,4.899-5.653,8.636-6.118
		c0.237,0,61.958,0,61.958,0l0.297,0.01c0,0,0.086,0.005,0.168,0.008c5.557,0.737,9.737,5.503,9.737,11.116c0,0,0,10.497,0,13.541
		C72.244,42.546,50.784,39.917,36.279,34.888"/>
</g>
<g id="orange">
	<path fill-opacity="0.1" d="M31.33,106.922c-8.949,0-16.229-7.279-16.229-16.229V31.164c0-8.948,7.28-16.228,16.229-16.228h59.527
		c8.949,0,16.229,7.28,16.229,16.228v59.529c0,8.947-7.28,16.229-16.229,16.229H31.33"/>
	<path fill="#FFE035" d="M29.33,104.922c-8.949,0-16.229-7.279-16.229-16.229V29.164c0-8.948,7.28-16.228,16.229-16.228h59.527
		c8.949,0,16.229,7.28,16.229,16.228v59.529c0,8.947-7.28,16.229-16.229,16.229H29.33"/>
	<g>
		
			<linearGradient id="SVGID_7_" gradientUnits="userSpaceOnUse" x1="296.6943" y1="-341.8228" x2="296.6942" y2="-255.8354" gradientTransform="matrix(1 0 0 -1 -237.5996 -239.9004)">
			<stop  offset="0" style="stop-color:#FEDF34"/>
			<stop  offset="0.1758" style="stop-color:#FECD26"/>
			<stop  offset="0.4969" style="stop-color:#FFB211"/>
			<stop  offset="0.782" style="stop-color:#FFA204"/>
			<stop  offset="1" style="stop-color:#FF9C00"/>
		</linearGradient>
		<path fill="url(#SVGID_7_)" d="M88.857,101.923H29.33c-7.306,0-13.23-5.923-13.23-13.229V29.164
			c0-7.306,5.924-13.229,13.23-13.229h59.527c7.308,0,13.23,5.922,13.23,13.229v59.529C102.089,96,96.165,101.923,88.857,101.923
			L88.857,101.923z"/>
	</g>
	<path fill="#FFE035" d="M60.749,52.314V30.818h8.267l4.777,21.496H60.749L60.749,52.314z M44.396,52.314l4.777-21.496h8.267v21.496
		H44.396L44.396,52.314z M57.44,55.621v34.727H35.944l7.716-34.727H57.44L57.44,55.621z M74.527,55.621l7.717,34.727H60.749V55.621
		H74.527L74.527,55.621z"/>
	<path fill="#FFFFFF" d="M63.748,87.348c0-4.533,0-24.193,0-28.727c2.854,0,5.96,0,8.373,0c0.807,3.625,5.184,23.322,6.384,28.727
		C74.264,87.348,67.293,87.348,63.748,87.348 M39.684,87.348c1.201-5.404,5.578-25.103,6.384-28.727c2.414,0,5.521,0,8.373,0
		c0,4.533,0,24.193,0,28.727C50.896,87.348,43.925,87.348,39.684,87.348 M63.748,49.314c0-3.722,0-11.774,0-15.496
		c1.322,0,1.682,0,2.859,0c0.672,3.017,2.474,11.127,3.443,15.496C67.475,49.314,65.98,49.314,63.748,49.314 M48.137,49.314
		c0.971-4.369,2.772-12.479,3.443-15.496c1.18,0,1.538,0,2.86,0c0,3.722,0,11.774,0,15.496
		C52.208,49.314,50.715,49.314,48.137,49.314"/>
	<path fill="#FFE035" d="M29.33,58.928v-9.921h59.527v9.921H29.33L29.33,58.928z M73.979,62.236v-8.269h8.267v8.269H73.979
		L73.979,62.236z M35.944,62.236v-8.269h8.267v8.269H35.944L35.944,62.236z"/>
	<path fill="#FFFFFF" d="M76.977,59.237c0-0.053,0-0.309,0-0.309c0-1.658-1.342-3-2.998-3H44.211c-1.657,0-3,1.342-3,3
		c0,0,0,0.256,0,0.309c-1.049,0-1.219,0-2.268,0c0-0.053,0-0.309,0-0.309c0-1.658-1.342-3-3-3c0,0-1.822,0-3.614,0
		c0-1.654,0-2.268,0-3.922c5.123,0,48.405,0,53.528,0c0,1.654,0,2.268,0,3.922c-1.793,0-3.614,0-3.614,0
		c-1.657,0-2.999,1.342-2.999,3c0,0,0,0.256,0,0.309C78.195,59.237,78.025,59.237,76.977,59.237"/>
	
		<linearGradient id="SVGID_8_" gradientUnits="userSpaceOnUse" x1="297.291" y1="-282.6055" x2="297.291" y2="-257.9302" gradientTransform="matrix(1 0 0 -1 -237.5996 -239.9004)">
		<stop  offset="0" style="stop-color:#FFFFFF;stop-opacity:0"/>
		<stop  offset="1" style="stop-color:#FFFFFF;stop-opacity:0.8"/>
	</linearGradient>
	<path fill="url(#SVGID_8_)" d="M36.279,34.888c-10.953-3.797-15.283-8.096-16.986-10.74c1.672-3.347,4.899-5.653,8.636-6.118
		c0.237,0,61.958,0,61.958,0l0.297,0.01c0,0,0.086,0.005,0.168,0.008c5.557,0.737,9.737,5.503,9.737,11.116c0,0,0,10.497,0,13.541
		C72.244,42.546,50.784,39.917,36.279,34.888"/>
</g>
<g id="red">
	<path fill-opacity="0.1" d="M31.33,106.922c-8.949,0-16.229-7.279-16.229-16.229V31.164c0-8.948,7.28-16.228,16.229-16.228h59.527
		c8.949,0,16.229,7.28,16.229,16.228v59.529c0,8.947-7.28,16.229-16.229,16.229H31.33"/>
	<path fill="#FC7E7E" d="M29.33,104.922c-8.949,0-16.229-7.279-16.229-16.229V29.164c0-8.948,7.28-16.228,16.229-16.228h59.527
		c8.949,0,16.229,7.28,16.229,16.228v59.529c0,8.947-7.28,16.229-16.229,16.229H29.33"/>
	<g>
		
			<linearGradient id="SVGID_9_" gradientUnits="userSpaceOnUse" x1="296.6943" y1="-341.8228" x2="296.6942" y2="-255.8354" gradientTransform="matrix(1 0 0 -1 -237.5996 -239.9004)">
			<stop  offset="0" style="stop-color:#FF0000"/>
			<stop  offset="0.1758" style="stop-color:#F60303"/>
			<stop  offset="0.4969" style="stop-color:#EC0404"/>
			<stop  offset="0.782" style="stop-color:#E30101"/>
			<stop  offset="1" style="stop-color:#D60202"/>
		</linearGradient>
		<path fill="url(#SVGID_9_)" d="M88.857,101.923H29.33c-7.306,0-13.23-5.923-13.23-13.229V29.164
			c0-7.306,5.924-13.229,13.23-13.229h59.527c7.308,0,13.23,5.922,13.23,13.229v59.529C102.089,96,96.165,101.923,88.857,101.923
			L88.857,101.923z"/>
	</g>
	<path fill="#FC7E7E" d="M60.749,52.314V30.818h8.267l4.777,21.496H60.749L60.749,52.314z M44.396,52.314l4.777-21.496h8.267v21.496
		H44.396L44.396,52.314z M57.44,55.621v34.727H35.944l7.716-34.727H57.44L57.44,55.621z M74.527,55.621l7.717,34.727H60.749V55.621
		H74.527L74.527,55.621z"/>
	<path fill="#FFFFFF" d="M63.748,87.348c0-4.533,0-24.193,0-28.727c2.854,0,5.96,0,8.373,0c0.807,3.625,5.184,23.322,6.384,28.727
		C74.264,87.348,67.293,87.348,63.748,87.348 M39.684,87.348c1.201-5.404,5.578-25.103,6.384-28.727c2.414,0,5.521,0,8.373,0
		c0,4.533,0,24.193,0,28.727C50.896,87.348,43.925,87.348,39.684,87.348 M63.748,49.314c0-3.722,0-11.774,0-15.496
		c1.322,0,1.682,0,2.859,0c0.672,3.017,2.474,11.127,3.443,15.496C67.475,49.314,65.98,49.314,63.748,49.314 M48.137,49.314
		c0.971-4.369,2.772-12.479,3.443-15.496c1.18,0,1.538,0,2.86,0c0,3.722,0,11.774,0,15.496
		C52.208,49.314,50.715,49.314,48.137,49.314"/>
	<path fill="#FC7E7E" d="M29.33,58.928v-9.921h59.527v9.921H29.33L29.33,58.928z M73.979,62.236v-8.269h8.267v8.269H73.979
		L73.979,62.236z M35.944,62.236v-8.269h8.267v8.269H35.944L35.944,62.236z"/>
	<path fill="#FFFFFF" d="M76.977,59.237c0-0.053,0-0.309,0-0.309c0-1.658-1.342-3-2.998-3H44.211c-1.657,0-3,1.342-3,3
		c0,0,0,0.256,0,0.309c-1.049,0-1.219,0-2.268,0c0-0.053,0-0.309,0-0.309c0-1.658-1.342-3-3-3c0,0-1.822,0-3.614,0
		c0-1.654,0-2.268,0-3.922c5.123,0,48.405,0,53.528,0c0,1.654,0,2.268,0,3.922c-1.793,0-3.614,0-3.614,0
		c-1.657,0-2.999,1.342-2.999,3c0,0,0,0.256,0,0.309C78.195,59.237,78.025,59.237,76.977,59.237"/>
	
		<linearGradient id="SVGID_10_" gradientUnits="userSpaceOnUse" x1="297.291" y1="-282.6055" x2="297.291" y2="-257.9302" gradientTransform="matrix(1 0 0 -1 -237.5996 -239.9004)">
		<stop  offset="0" style="stop-color:#FFFFFF;stop-opacity:0"/>
		<stop  offset="1" style="stop-color:#FFFFFF;stop-opacity:0.8"/>
	</linearGradient>
	<path fill="url(#SVGID_10_)" d="M36.279,34.888c-10.953-3.797-15.283-8.096-16.986-10.74c1.672-3.347,4.899-5.653,8.636-6.118
		c0.237,0,61.958,0,61.958,0l0.297,0.01c0,0,0.086,0.005,0.168,0.008c5.557,0.737,9.737,5.503,9.737,11.116c0,0,0,10.497,0,13.541
		C72.244,42.546,50.784,39.917,36.279,34.888"/>
</g>
</svg>
