<?xml version="1.0" encoding="utf-8"?>
<!-- Generator: Adobe Illustrator 17.0.1, SVG Export Plug-In . SVG Version: 6.00 Build 0)  -->
<!DOCTYPE svg PUBLIC "-//W3C//DTD SVG 1.1//EN" "http://www.w3.org/Graphics/SVG/1.1/DTD/svg11.dtd">
<svg version="1.1" id="Layer_1" xmlns="http://www.w3.org/2000/svg" xmlns:xlink="http://www.w3.org/1999/xlink" x="0px" y="0px"
	 width="210px" height="174px" viewBox="0 0 210 174" enable-background="new 0 0 210 174" xml:space="preserve">
<g>
	<g>
		<path opacity="0.15" fill-rule="evenodd" clip-rule="evenodd" d="M76.445-44.016c58.223,0,105.422,47.199,105.422,105.422
			c0,58.223-47.199,105.422-105.422,105.422c-30.927,0-106.246-0.033-106.246-0.033s0.823-78.093,0.823-105.39
			C-28.977,3.183,18.222-44.016,76.445-44.016z"/>
		<path opacity="0.15" fill-rule="evenodd" clip-rule="evenodd" d="M77.445-43.016c58.223,0,105.422,47.199,105.422,105.422
			c0,58.223-47.199,105.422-105.422,105.422c-30.927,0-106.246-0.033-106.246-0.033s0.823-78.093,0.823-105.39
			C-27.977,4.183,19.222-43.016,77.445-43.016z"/>
		<path opacity="0.15" fill-rule="evenodd" clip-rule="evenodd" d="M78.445-42.016c58.223,0,105.422,47.199,105.422,105.422
			c0,58.223-47.199,105.422-105.422,105.422c-30.927,0-106.246-0.033-106.246-0.033s0.823-78.093,0.823-105.39
			C-26.977,5.183,20.222-42.016,78.445-42.016z"/>
	</g>
	<linearGradient id="SVGID_1_" gradientUnits="userSpaceOnUse" x1="40.9241" y1="167.8248" x2="106.4868" y2="-36.1852">
		<stop  offset="0.1" style="stop-color:#FFFFFF"/>
		<stop  offset="0.29" style="stop-color:#FFFFFF"/>
		<stop  offset="0.43" style="stop-color:#FFFFFF"/>
		<stop  offset="0.45" style="stop-color:#FFFFFF"/>
		<stop  offset="0.62" style="stop-color:#FFFFFF"/>
		<stop  offset="0.87" style="stop-color:#FFFFFF"/>
	</linearGradient>
	<path fill-rule="evenodd" clip-rule="evenodd" fill="url(#SVGID_1_)" d="M75.445-45.016c58.223,0,105.422,47.199,105.422,105.422
		c0,58.223-47.199,105.422-105.422,105.422c-30.927,0-106.246-0.033-106.246-0.033s0.823-78.093,0.823-105.39
		C-29.977,2.183,17.222-45.016,75.445-45.016z"/>
	<path fill-rule="evenodd" clip-rule="evenodd" fill="#1E1E1E" d="M75.406-34.937c52.657,0,95.343,42.687,95.343,95.343
		c0,52.657-42.687,95.343-95.343,95.343c-27.97,0-96.088-0.029-96.088-0.029s0.744-70.627,0.744-95.314
		C-19.938,7.75,22.749-34.937,75.406-34.937z"/>
	<g>
		<path opacity="0.3" fill-rule="evenodd" clip-rule="evenodd" d="M74.409-35.815c-53.142,0-96.222,43.08-96.222,96.221
			c0,24.914-0.751,96.192-0.751,96.192s68.745,0.03,96.973,0.03c53.142,0,96.222-43.08,96.222-96.222
			C170.631,7.265,127.551-35.815,74.409-35.815z M74.401,154.638c-27.644,0-94.967-0.029-94.967-0.029s0.736-69.803,0.736-94.203
			c0-52.043,42.189-94.232,94.232-94.232s94.232,42.189,94.232,94.232C168.633,112.449,126.444,154.638,74.401,154.638z"/>
		<g opacity="0.1">
			<g>
				<polygon fill-rule="evenodd" clip-rule="evenodd" fill="#FFFFFF" points="170.749,59.482 170.749,57.482 81.672,57.49 
					144.877,-5.715 143.463,-7.13 79.817,56.517 79.817,-34.763 77.817,-34.763 77.817,56.54 11.202,-10.075 9.788,-8.661 
					75.939,57.49 -19.606,57.499 -19.606,59.499 76.843,59.49 -19.606,155.939 -18.192,157.354 77.817,61.345 77.817,156.022 
					79.817,156.022 79.817,61.368 144.532,126.083 145.946,124.669 80.767,59.49 				"/>
			</g>
		</g>
	</g>
</g>
<g>
	
		<ellipse transform="matrix(-0.84 -0.5426 0.5426 -0.84 250.367 274.7728)" opacity="0.05" fill="#FFFFFF" cx="165.701" cy="100.468" rx="6.982" ry="29.262"/>
	<path opacity="0.05" fill="#FFFFFF" d="M150.909,124.166c-0.192,0-0.339-0.034-0.449-0.106c-0.572-0.368-1.102-2.619,0.973-8.5
		c1.863-5.274,5.197-11.753,9.39-18.243c8.309-12.861,16.524-20.547,19.668-20.547c0.192,0,0.339,0.034,0.449,0.106
		c0.572,0.369,1.103,2.62-0.973,8.5c-1.862,5.273-5.196,11.752-9.389,18.243C162.271,116.48,154.054,124.166,150.909,124.166
		L150.909,124.166z"/>
	<path opacity="0.05" fill="#FFFFFF" d="M151.187,122.964c-0.123-0.637-0.218-2.556,1.356-7.013
		c1.833-5.192,5.125-11.583,9.268-17.996c8.134-12.591,15.711-19.507,18.403-19.983c0.123,0.637,0.218,2.556-1.356,7.012
		c-1.832,5.19-5.124,11.581-9.267,17.996C161.458,115.572,153.882,122.488,151.187,122.964z"/>
	<path opacity="0.05" fill="#FFFFFF" d="M152.379,121.157c0.133-1.009,0.473-2.553,1.272-4.815
		c1.802-5.106,5.051-11.41,9.147-17.749c7.031-10.884,13.215-16.913,16.224-18.814c-0.133,1.008-0.473,2.552-1.272,4.814
		c-1.801,5.103-5.049,11.407-9.145,17.749C161.573,113.227,155.389,119.257,152.379,121.157z"/>
</g>
<g>
	
		<ellipse transform="matrix(0.9276 0.3735 -0.3735 0.9276 46.2563 -57.6446)" opacity="0.02" fill="#FFFFFF" cx="171.882" cy="90.543" rx="9.313" ry="12.716"/>
	<path opacity="0.02" fill="#FFFFFF" d="M169.772,101.707c-0.773,0-1.519-0.142-2.216-0.423c-4.18-1.683-5.642-7.872-3.258-13.795
		c1.922-4.775,5.908-8.11,9.692-8.11c0.774,0,1.52,0.142,2.217,0.423c1.962,0.79,3.397,2.615,4.04,5.14
		c0.675,2.653,0.398,5.726-0.782,8.654C177.543,98.372,173.557,101.707,169.772,101.707z"/>
	<path opacity="0.02" fill="#FFFFFF" d="M169.772,100.57c-0.628,0-1.23-0.114-1.791-0.341c-3.599-1.449-4.778-6.973-2.628-12.314
		c1.753-4.355,5.305-7.397,8.636-7.397c0.628,0,1.231,0.114,1.792,0.341c1.618,0.651,2.812,2.201,3.364,4.365
		c0.615,2.42,0.354,5.243-0.735,7.948C176.657,97.528,173.105,100.57,169.772,100.57z"/>
	<path opacity="0.02" fill="#FFFFFF" d="M169.772,99.432c-0.481,0-0.941-0.087-1.364-0.258c-1.381-0.556-2.369-1.934-2.784-3.881
		c-0.45-2.11-0.172-4.579,0.784-6.954c1.559-3.873,4.747-6.685,7.581-6.685c0.482,0,0.942,0.087,1.365,0.258
		c1.274,0.513,2.229,1.788,2.688,3.592c0.555,2.187,0.311,4.759-0.689,7.242C175.796,96.621,172.607,99.432,169.772,99.432z"/>
	<path opacity="0.02" fill="#FFFFFF" d="M169.772,98.294c-0.335,0-0.651-0.059-0.938-0.175c-1.02-0.41-1.764-1.498-2.099-3.063
		c-0.403-1.892-0.144-4.127,0.728-6.292c1.37-3.404,4.175-5.972,6.526-5.972c0.337,0,0.652,0.059,0.938,0.175
		c0.932,0.375,1.645,1.375,2.014,2.818c0.497,1.954,0.268,4.276-0.642,6.536C174.929,95.727,172.123,98.294,169.772,98.294z"/>
	<path opacity="0.02" fill="#FFFFFF" d="M169.772,97.157c-0.189,0-0.36-0.031-0.511-0.092c-0.649-0.262-1.163-1.08-1.413-2.246
		c-0.355-1.671-0.118-3.671,0.671-5.63c1.306-3.248,3.857-5.259,5.47-5.259c0.189,0,0.36,0.031,0.509,0.091
		c0.581,0.234,1.068,0.979,1.341,2.046c0.437,1.72,0.226,3.791-0.595,5.83C173.937,95.146,171.386,97.157,169.772,97.157z"/>
</g>
</svg>
