<?xml version="1.0" encoding="utf-8"?>
<!-- Generator: Adobe Illustrator 16.0.2, SVG Export Plug-In . SVG Version: 6.00 Build 0)  -->
<!DOCTYPE svg PUBLIC "-//W3C//DTD SVG 1.1//EN" "http://www.w3.org/Graphics/SVG/1.1/DTD/svg11.dtd">
<svg version="1.1" id="Layer_1" xmlns="http://www.w3.org/2000/svg" xmlns:xlink="http://www.w3.org/1999/xlink" x="0px" y="0px"
	 width="120px" height="120px" viewBox="0 0 120 120" enable-background="new 0 0 120 120" xml:space="preserve">
<g id="black_white">
	<g>
		<path fill="#999999" d="M112.51,42.334v8.452H83.199c-4.361-3.539-8.166-6-13.193-8.452H112.51z"/>
		<path fill="#999999" d="M92.609,30.886h8.453v42.504c-2.598-5.274-4.729-8.592-8.453-13.193V30.886z"/>
		<g>
			<g>
				<path fill="#3A3A3A" d="M43.486,36.11v20.9c23.694,0,42.901,19.207,42.901,42.9h20.899
					C107.286,64.674,78.723,36.11,43.486,36.11z M40.496,20.461L7.25,45.052c-1.013,0.75-1.013,2.266,0,3.015l33.246,24.591
					c1.238,0.916,2.991,0.031,2.991-1.508V21.968C43.486,20.429,41.734,19.546,40.496,20.461z"/>
			</g>
		</g>
	</g>
</g>
<g id="blue">
	<path fill="#7B7B7B" d="M92.082,103.499V19.5h17v83.999H92.082L92.082,103.499z M33.082,45.5v-17H115v17H33.082L33.082,45.5z"/>
	
		<radialGradient id="SVGID_1_" cx="312.6406" cy="-300.3999" r="40.4831" gradientTransform="matrix(1 0 0 -1 -237.5996 -239.9004)" gradientUnits="userSpaceOnUse">
		<stop  offset="0.16" style="stop-color:#EAEAEA"/>
		<stop  offset="0.4512" style="stop-color:#CACACA"/>
		<stop  offset="0.78" style="stop-color:#AAAAAA"/>
	</radialGradient>
	<path fill="url(#SVGID_1_)" d="M94.082,101.5c0-3.729,0-56,0-56c0-1.104-0.895-2-2-2c0,0-53.269,0-57.001,0
		c0-2.699,0-10.303,0-13.001c3.732,0,57.001,0,57.001,0c1.105,0,2-0.896,2-1.999c0,0,0-6.139,0-9.001c2.699,0,10.303,0,13.002,0
		c0,2.862,0,9.001,0,9.001c0,1.104,0.895,1.999,1.998,1.999c0,0,3.242,0,5.918,0c0,2.699,0,10.303,0,13.001
		c-2.676,0-5.918,0-5.918,0c-1.104,0-1.998,0.896-1.998,2c0,0,0,52.271,0,56C104.385,101.5,96.781,101.5,94.082,101.5"/>
	<path fill-opacity="0.1" d="M88.262,108.834c-1.658,0-3-1.343-3-3c0-5.779-0.648-11.664-1.875-17.016
		c-1.389-6.065-3.49-11.459-6.244-16.035C71.17,62.859,62.413,57.2,51.085,55.935c0,3.883,0,11.105,0,11.276
		c0.03,0.225,0.045,0.452,0.045,0.682c0,2.813-2.291,5.104-5.104,5.104c-1.446,0-2.824-0.618-3.783-1.68
		C41.66,70.891,9.814,47.512,9.521,47.295C7.958,46.381,7,44.72,7,42.893c0-1.797,0.934-3.44,2.458-4.363
		c0.167-0.12,32.129-23.318,32.756-23.773c0.962-1.079,2.346-1.707,3.812-1.707c2.813,0,5.104,2.29,5.104,5.104
		c0,0.223-0.015,0.448-0.045,0.673c0,0.372,0,7.556,0,11.143c9.579,0.586,18.251,2.869,25.815,6.8
		c7.768,4.037,14.389,9.815,19.68,17.176c4.881,6.791,8.602,14.886,11.063,24.059c2.299,8.565,3.463,17.931,3.463,27.828
		c0,1.657-1.342,3-3,3L88.262,108.834"/>
	<path fill="#00598C" d="M86.262,106.834c-1.658,0-3-1.343-3-3c0-5.779-0.648-11.664-1.875-17.016
		c-1.389-6.065-3.49-11.459-6.244-16.035C69.17,60.859,60.413,55.2,49.085,53.935c0,3.884,0,11.105,0,11.276
		c0.03,0.225,0.045,0.452,0.045,0.682c0,2.813-2.291,5.104-5.104,5.104c-1.446,0-2.824-0.618-3.783-1.68
		C39.66,68.891,7.814,45.512,7.521,45.295C5.958,44.381,5,42.72,5,40.893c0-1.797,0.934-3.44,2.458-4.363
		c0.167-0.12,32.129-23.318,32.756-23.773c0.962-1.079,2.346-1.707,3.812-1.707c2.813,0,5.104,2.29,5.104,5.104
		c0,0.223-0.015,0.448-0.045,0.673c0,0.372,0,7.556,0,11.143c9.579,0.586,18.251,2.869,25.815,6.8
		c7.768,4.037,14.389,9.815,19.68,17.176c4.881,6.791,8.602,14.886,11.063,24.059c2.299,8.565,3.463,17.931,3.463,27.828
		c0,1.657-1.342,3-3,3L86.262,106.834"/>
	<g>
		
			<linearGradient id="SVGID_2_" gradientUnits="userSpaceOnUse" x1="294.6533" y1="-343.7339" x2="294.6533" y2="-253.9502" gradientTransform="matrix(1 0 0 -1 -237.5996 -239.9004)">
			<stop  offset="0" style="stop-color:#48A2FB"/>
			<stop  offset="0.1758" style="stop-color:#059CF4"/>
			<stop  offset="0.4969" style="stop-color:#0398EF"/>
			<stop  offset="0.782" style="stop-color:#0293E7"/>
			<stop  offset="1" style="stop-color:#0189D8"/>
		</linearGradient>
		<path fill="url(#SVGID_2_)" d="M42.967,67.598L8.977,42.642l0.159-3.623l33.787-24.518l3.163,2.061v48.762L42.967,67.598
			L42.967,67.598z M44.026,67.997c-1.161,0-2.103-0.94-2.103-2.104c0-1.16,0.942-2.103,2.103-2.103c1.161,0,2.104,0.94,2.104,2.103
			C46.13,67.057,45.187,67.997,44.026,67.997L44.026,67.997z M44.026,18.257c-1.161,0-2.103-0.942-2.103-2.103
			c0-1.163,0.942-2.104,2.103-2.104c1.161,0,2.104,0.942,2.104,2.104C46.13,17.315,45.187,18.257,44.026,18.257L44.026,18.257z
			 M10.104,42.997C8.941,42.997,8,42.056,8,40.893c0-1.161,0.942-2.103,2.104-2.103c1.161,0,2.103,0.942,2.103,2.103
			C12.207,42.056,11.265,42.997,10.104,42.997L10.104,42.997z M86.262,103.834c0-23.15-9.82-53.173-42.223-53.173V30.818
			c44.293,0,62.066,34.985,62.066,73.016H86.262L86.262,103.834z"/>
	</g>
	
		<linearGradient id="SVGID_3_" gradientUnits="userSpaceOnUse" x1="268.3242" y1="-274.8516" x2="268.3242" y2="-255.0083" gradientTransform="matrix(1 0 0 -1 -237.5996 -239.9004)">
		<stop  offset="0" style="stop-color:#FFFFFF;stop-opacity:0"/>
		<stop  offset="1" style="stop-color:#FFFFFF;stop-opacity:0.8"/>
	</linearGradient>
	<path fill="url(#SVGID_3_)" d="M44.78,15.108c0,0-0.12,12.026,0,13.229c-13.781-3.962-28.111,6.614-28.111,6.614l26.457-19.843
		H44.78L44.78,15.108z"/>
</g>
<g id="green">
	<path fill="#7B7B7B" d="M92.082,103.499V19.5h17v83.999H92.082L92.082,103.499z M33.082,45.5v-17H115v17H33.082L33.082,45.5z"/>
	
		<radialGradient id="SVGID_4_" cx="312.6406" cy="-300.3999" r="40.4831" gradientTransform="matrix(1 0 0 -1 -237.5996 -239.9004)" gradientUnits="userSpaceOnUse">
		<stop  offset="0.16" style="stop-color:#EAEAEA"/>
		<stop  offset="0.4512" style="stop-color:#CACACA"/>
		<stop  offset="0.78" style="stop-color:#AAAAAA"/>
	</radialGradient>
	<path fill="url(#SVGID_4_)" d="M94.082,101.5c0-3.729,0-56,0-56c0-1.104-0.895-2-2-2c0,0-53.269,0-57.001,0
		c0-2.699,0-10.303,0-13.001c3.732,0,57.001,0,57.001,0c1.105,0,2-0.896,2-1.999c0,0,0-6.139,0-9.001c2.699,0,10.303,0,13.002,0
		c0,2.862,0,9.001,0,9.001c0,1.104,0.895,1.999,1.998,1.999c0,0,3.242,0,5.918,0c0,2.699,0,10.303,0,13.001
		c-2.676,0-5.918,0-5.918,0c-1.104,0-1.998,0.896-1.998,2c0,0,0,52.271,0,56C104.385,101.5,96.781,101.5,94.082,101.5"/>
	<path fill-opacity="0.1" d="M88.262,108.834c-1.658,0-3-1.343-3-3c0-5.779-0.648-11.664-1.875-17.016
		c-1.389-6.065-3.49-11.459-6.244-16.035C71.17,62.859,62.413,57.2,51.085,55.935c0,3.883,0,11.105,0,11.276
		c0.03,0.225,0.045,0.452,0.045,0.682c0,2.813-2.291,5.104-5.104,5.104c-1.446,0-2.824-0.618-3.783-1.68
		C41.66,70.891,9.814,47.512,9.521,47.295C7.958,46.381,7,44.72,7,42.893c0-1.797,0.934-3.44,2.458-4.363
		c0.167-0.12,32.129-23.318,32.756-23.773c0.962-1.079,2.346-1.707,3.812-1.707c2.813,0,5.104,2.29,5.104,5.104
		c0,0.223-0.015,0.448-0.045,0.673c0,0.372,0,7.556,0,11.143c9.579,0.586,18.251,2.869,25.815,6.8
		c7.768,4.037,14.389,9.815,19.68,17.176c4.881,6.791,8.602,14.886,11.063,24.059c2.299,8.565,3.463,17.931,3.463,27.828
		c0,1.657-1.342,3-3,3L88.262,108.834"/>
	<path fill="#015911" d="M86.262,106.834c-1.658,0-3-1.343-3-3c0-5.779-0.648-11.664-1.875-17.016
		c-1.389-6.065-3.49-11.459-6.244-16.035C69.17,60.859,60.413,55.2,49.085,53.935c0,3.884,0,11.105,0,11.276
		c0.03,0.225,0.045,0.452,0.045,0.682c0,2.813-2.291,5.104-5.104,5.104c-1.446,0-2.824-0.618-3.783-1.68
		C39.66,68.891,7.814,45.512,7.521,45.295C5.958,44.381,5,42.72,5,40.893c0-1.797,0.934-3.44,2.458-4.363
		c0.167-0.12,32.129-23.318,32.756-23.773c0.962-1.079,2.346-1.707,3.812-1.707c2.813,0,5.104,2.29,5.104,5.104
		c0,0.223-0.015,0.448-0.045,0.673c0,0.372,0,7.556,0,11.143c9.579,0.586,18.251,2.869,25.815,6.8
		c7.768,4.037,14.389,9.815,19.68,17.176c4.881,6.791,8.602,14.886,11.063,24.059c2.299,8.565,3.463,17.931,3.463,27.828
		c0,1.657-1.342,3-3,3L86.262,106.834"/>
	<g>
		
			<linearGradient id="SVGID_5_" gradientUnits="userSpaceOnUse" x1="294.6533" y1="-343.7339" x2="294.6533" y2="-253.9502" gradientTransform="matrix(1 0 0 -1 -237.5996 -239.9004)">
			<stop  offset="0" style="stop-color:#00DF34"/>
			<stop  offset="0.1758" style="stop-color:#00CD26"/>
			<stop  offset="0.4969" style="stop-color:#00B211"/>
			<stop  offset="0.782" style="stop-color:#00A204"/>
			<stop  offset="1" style="stop-color:#009C00"/>
		</linearGradient>
		<path fill="url(#SVGID_5_)" d="M42.967,67.598L8.977,42.642l0.159-3.623l33.787-24.518l3.163,2.061v48.762L42.967,67.598
			L42.967,67.598z M44.026,67.997c-1.161,0-2.103-0.94-2.103-2.104c0-1.16,0.942-2.103,2.103-2.103c1.161,0,2.104,0.94,2.104,2.103
			C46.13,67.057,45.187,67.997,44.026,67.997L44.026,67.997z M44.026,18.257c-1.161,0-2.103-0.942-2.103-2.103
			c0-1.163,0.942-2.104,2.103-2.104c1.161,0,2.104,0.942,2.104,2.104C46.13,17.315,45.187,18.257,44.026,18.257L44.026,18.257z
			 M10.104,42.997C8.941,42.997,8,42.056,8,40.893c0-1.161,0.942-2.103,2.104-2.103c1.161,0,2.103,0.942,2.103,2.103
			C12.207,42.056,11.265,42.997,10.104,42.997L10.104,42.997z M86.262,103.834c0-23.15-9.82-53.173-42.223-53.173V30.818
			c44.293,0,62.066,34.985,62.066,73.016H86.262L86.262,103.834z"/>
	</g>
	
		<linearGradient id="SVGID_6_" gradientUnits="userSpaceOnUse" x1="268.3242" y1="-274.8516" x2="268.3242" y2="-255.0083" gradientTransform="matrix(1 0 0 -1 -237.5996 -239.9004)">
		<stop  offset="0" style="stop-color:#FFFFFF;stop-opacity:0"/>
		<stop  offset="1" style="stop-color:#FFFFFF;stop-opacity:0.8"/>
	</linearGradient>
	<path fill="url(#SVGID_6_)" d="M44.78,15.108c0,0-0.12,12.026,0,13.229c-13.781-3.962-28.111,6.614-28.111,6.614l26.457-19.843
		H44.78L44.78,15.108z"/>
</g>
<g id="kia">
	<path fill="#7B7B7B" d="M92.082,103.499V19.5h17v83.999H92.082L92.082,103.499z M33.082,45.5v-17H115v17H33.082L33.082,45.5z"/>
	
		<radialGradient id="SVGID_7_" cx="312.6406" cy="-300.3999" r="40.4831" gradientTransform="matrix(1 0 0 -1 -237.5996 -239.9004)" gradientUnits="userSpaceOnUse">
		<stop  offset="0.16" style="stop-color:#EAEAEA"/>
		<stop  offset="0.4512" style="stop-color:#CACACA"/>
		<stop  offset="0.78" style="stop-color:#AAAAAA"/>
	</radialGradient>
	<path fill="url(#SVGID_7_)" d="M94.082,101.5c0-3.729,0-56,0-56c0-1.104-0.895-2-2-2c0,0-53.269,0-57.001,0
		c0-2.699,0-10.303,0-13.001c3.732,0,57.001,0,57.001,0c1.105,0,2-0.896,2-1.999c0,0,0-6.139,0-9.001c2.699,0,10.303,0,13.002,0
		c0,2.862,0,9.001,0,9.001c0,1.104,0.895,1.999,1.998,1.999c0,0,3.242,0,5.918,0c0,2.699,0,10.303,0,13.001
		c-2.676,0-5.918,0-5.918,0c-1.104,0-1.998,0.896-1.998,2c0,0,0,52.271,0,56C104.385,101.5,96.781,101.5,94.082,101.5"/>
	<path fill-opacity="0.1" d="M88.262,108.834c-1.658,0-3-1.343-3-3c0-5.779-0.648-11.664-1.875-17.016
		c-1.389-6.065-3.49-11.459-6.244-16.035C71.17,62.859,62.413,57.2,51.085,55.935c0,3.883,0,11.105,0,11.276
		c0.03,0.225,0.045,0.452,0.045,0.682c0,2.813-2.291,5.104-5.104,5.104c-1.446,0-2.824-0.618-3.783-1.68
		C41.66,70.891,9.814,47.512,9.521,47.295C7.958,46.381,7,44.72,7,42.893c0-1.797,0.934-3.44,2.458-4.363
		c0.167-0.12,32.129-23.318,32.756-23.773c0.962-1.079,2.346-1.707,3.812-1.707c2.813,0,5.104,2.29,5.104,5.104
		c0,0.223-0.015,0.448-0.045,0.673c0,0.372,0,7.556,0,11.143c9.579,0.586,18.251,2.869,25.815,6.8
		c7.768,4.037,14.389,9.815,19.68,17.176c4.881,6.791,8.602,14.886,11.063,24.059c2.299,8.565,3.463,17.931,3.463,27.828
		c0,1.657-1.342,3-3,3L88.262,108.834"/>
	<path fill="#171e9e" d="M86.262,106.834c-1.658,0-3-1.343-3-3c0-5.779-0.648-11.664-1.875-17.016
		c-1.389-6.065-3.49-11.459-6.244-16.035C69.17,60.859,60.413,55.2,49.085,53.935c0,3.884,0,11.105,0,11.276
		c0.03,0.225,0.045,0.452,0.045,0.682c0,2.813-2.291,5.104-5.104,5.104c-1.446,0-2.824-0.618-3.783-1.68
		C39.66,68.891,7.814,45.512,7.521,45.295C5.958,44.381,5,42.72,5,40.893c0-1.797,0.934-3.44,2.458-4.363
		c0.167-0.12,32.129-23.318,32.756-23.773c0.962-1.079,2.346-1.707,3.812-1.707c2.813,0,5.104,2.29,5.104,5.104
		c0,0.223-0.015,0.448-0.045,0.673c0,0.372,0,7.556,0,11.143c9.579,0.586,18.251,2.869,25.815,6.8
		c7.768,4.037,14.389,9.815,19.68,17.176c4.881,6.791,8.602,14.886,11.063,24.059c2.299,8.565,3.463,17.931,3.463,27.828
		c0,1.657-1.342,3-3,3L86.262,106.834"/>
	<g>
		
			<linearGradient id="SVGID_8_" gradientUnits="userSpaceOnUse" x1="294.6533" y1="-343.7339" x2="294.6533" y2="-253.9502" gradientTransform="matrix(1 0 0 -1 -237.5996 -239.9004)">
			<stop  offset="0" style="stop-color:#FFFFFF"/>
			<stop  offset="0.1758" style="stop-color:#E7E9EA"/>
			<stop  offset="0.4969" style="stop-color:#CDD2D5"/>
			<stop  offset="0.782" style="stop-color:#C5CACC"/>
			<stop  offset="1" style="stop-color:#BABDC0"/>
		</linearGradient>
		<path fill="url(#SVGID_8_)" d="M42.967,67.598L8.977,42.642l0.159-3.623l33.787-24.518l3.163,2.061v48.762L42.967,67.598
			L42.967,67.598z M44.026,67.997c-1.161,0-2.103-0.94-2.103-2.104c0-1.16,0.942-2.103,2.103-2.103c1.161,0,2.104,0.94,2.104,2.103
			C46.13,67.057,45.187,67.997,44.026,67.997L44.026,67.997z M44.026,18.257c-1.161,0-2.103-0.942-2.103-2.103
			c0-1.163,0.942-2.104,2.103-2.104c1.161,0,2.104,0.942,2.104,2.104C46.13,17.315,45.187,18.257,44.026,18.257L44.026,18.257z
			 M10.104,42.997C8.941,42.997,8,42.056,8,40.893c0-1.161,0.942-2.103,2.104-2.103c1.161,0,2.103,0.942,2.103,2.103
			C12.207,42.056,11.265,42.997,10.104,42.997L10.104,42.997z M86.262,103.834c0-23.15-9.82-53.173-42.223-53.173V30.818
			c44.293,0,62.066,34.985,62.066,73.016H86.262L86.262,103.834z"/>
	</g>
	
		<linearGradient id="SVGID_9_" gradientUnits="userSpaceOnUse" x1="268.3242" y1="-274.8516" x2="268.3242" y2="-255.0083" gradientTransform="matrix(1 0 0 -1 -237.5996 -239.9004)">
		<stop  offset="0" style="stop-color:#FFFFFF;stop-opacity:0"/>
		<stop  offset="1" style="stop-color:#FFFFFF;stop-opacity:0.8"/>
	</linearGradient>
	<path fill="url(#SVGID_9_)" d="M44.78,15.108c0,0-0.12,12.026,0,13.229c-13.781-3.962-28.111,6.614-28.111,6.614l26.457-19.843
		H44.78L44.78,15.108z"/>
</g>
<g id="orange">
	<path fill="#7B7B7B" d="M92.082,103.499V19.5h17v83.999H92.082L92.082,103.499z M33.082,45.5v-17H115v17H33.082L33.082,45.5z"/>
	
		<radialGradient id="SVGID_10_" cx="312.6406" cy="-300.3999" r="40.4831" gradientTransform="matrix(1 0 0 -1 -237.5996 -239.9004)" gradientUnits="userSpaceOnUse">
		<stop  offset="0.16" style="stop-color:#EAEAEA"/>
		<stop  offset="0.4512" style="stop-color:#CACACA"/>
		<stop  offset="0.78" style="stop-color:#AAAAAA"/>
	</radialGradient>
	<path fill="url(#SVGID_10_)" d="M94.082,101.5c0-3.729,0-56,0-56c0-1.104-0.895-2-2-2c0,0-53.269,0-57.001,0
		c0-2.699,0-10.303,0-13.001c3.732,0,57.001,0,57.001,0c1.105,0,2-0.896,2-1.999c0,0,0-6.139,0-9.001c2.699,0,10.303,0,13.002,0
		c0,2.862,0,9.001,0,9.001c0,1.104,0.895,1.999,1.998,1.999c0,0,3.242,0,5.918,0c0,2.699,0,10.303,0,13.001
		c-2.676,0-5.918,0-5.918,0c-1.104,0-1.998,0.896-1.998,2c0,0,0,52.271,0,56C104.385,101.5,96.781,101.5,94.082,101.5"/>
	<path fill-opacity="0.1" d="M88.262,108.834c-1.658,0-3-1.343-3-3c0-5.779-0.648-11.664-1.875-17.016
		c-1.389-6.065-3.49-11.459-6.244-16.035C71.17,62.859,62.413,57.2,51.085,55.935c0,3.883,0,11.105,0,11.276
		c0.03,0.225,0.045,0.452,0.045,0.682c0,2.813-2.291,5.104-5.104,5.104c-1.446,0-2.824-0.618-3.783-1.68
		C41.66,70.891,9.814,47.512,9.521,47.295C7.958,46.381,7,44.72,7,42.893c0-1.797,0.934-3.44,2.458-4.363
		c0.167-0.12,32.129-23.318,32.756-23.773c0.962-1.079,2.346-1.707,3.812-1.707c2.813,0,5.104,2.29,5.104,5.104
		c0,0.223-0.015,0.448-0.045,0.673c0,0.372,0,7.556,0,11.143c9.579,0.586,18.251,2.869,25.815,6.8
		c7.768,4.037,14.389,9.815,19.68,17.176c4.881,6.791,8.602,14.886,11.063,24.059c2.299,8.565,3.463,17.931,3.463,27.828
		c0,1.657-1.342,3-3,3L88.262,108.834"/>
	<path fill="#A43C10" d="M86.262,106.834c-1.658,0-3-1.343-3-3c0-5.779-0.648-11.664-1.875-17.016
		c-1.389-6.065-3.49-11.459-6.244-16.035C69.17,60.859,60.413,55.2,49.085,53.935c0,3.884,0,11.105,0,11.276
		c0.03,0.225,0.045,0.452,0.045,0.682c0,2.813-2.291,5.104-5.104,5.104c-1.446,0-2.824-0.618-3.783-1.68
		C39.66,68.891,7.814,45.512,7.521,45.295C5.958,44.381,5,42.72,5,40.893c0-1.797,0.934-3.44,2.458-4.363
		c0.167-0.12,32.129-23.318,32.756-23.773c0.962-1.079,2.346-1.707,3.812-1.707c2.813,0,5.104,2.29,5.104,5.104
		c0,0.223-0.015,0.448-0.045,0.673c0,0.372,0,7.556,0,11.143c9.579,0.586,18.251,2.869,25.815,6.8
		c7.768,4.037,14.389,9.815,19.68,17.176c4.881,6.791,8.602,14.886,11.063,24.059c2.299,8.565,3.463,17.931,3.463,27.828
		c0,1.657-1.342,3-3,3L86.262,106.834"/>
	<g>
		
			<linearGradient id="SVGID_11_" gradientUnits="userSpaceOnUse" x1="294.6533" y1="-343.7339" x2="294.6533" y2="-253.9502" gradientTransform="matrix(1 0 0 -1 -237.5996 -239.9004)">
			<stop  offset="0" style="stop-color:#FEDF34"/>
			<stop  offset="0.1758" style="stop-color:#FECD26"/>
			<stop  offset="0.4969" style="stop-color:#FFB211"/>
			<stop  offset="0.782" style="stop-color:#FFA204"/>
			<stop  offset="1" style="stop-color:#FF9C00"/>
		</linearGradient>
		<path fill="url(#SVGID_11_)" d="M42.967,67.598L8.977,42.642l0.159-3.623l33.787-24.518l3.163,2.061v48.762L42.967,67.598
			L42.967,67.598z M44.026,67.997c-1.161,0-2.103-0.94-2.103-2.104c0-1.16,0.942-2.103,2.103-2.103c1.161,0,2.104,0.94,2.104,2.103
			C46.13,67.057,45.187,67.997,44.026,67.997L44.026,67.997z M44.026,18.257c-1.161,0-2.103-0.942-2.103-2.103
			c0-1.163,0.942-2.104,2.103-2.104c1.161,0,2.104,0.942,2.104,2.104C46.13,17.315,45.187,18.257,44.026,18.257L44.026,18.257z
			 M10.104,42.997C8.941,42.997,8,42.056,8,40.893c0-1.161,0.942-2.103,2.104-2.103c1.161,0,2.103,0.942,2.103,2.103
			C12.207,42.056,11.265,42.997,10.104,42.997L10.104,42.997z M86.262,103.834c0-23.15-9.82-53.173-42.223-53.173V30.818
			c44.293,0,62.066,34.985,62.066,73.016H86.262L86.262,103.834z"/>
	</g>
	
		<linearGradient id="SVGID_12_" gradientUnits="userSpaceOnUse" x1="268.3242" y1="-274.8516" x2="268.3242" y2="-255.0083" gradientTransform="matrix(1 0 0 -1 -237.5996 -239.9004)">
		<stop  offset="0" style="stop-color:#FFFFFF;stop-opacity:0"/>
		<stop  offset="1" style="stop-color:#FFFFFF;stop-opacity:0.8"/>
	</linearGradient>
	<path fill="url(#SVGID_12_)" d="M44.78,15.108c0,0-0.12,12.026,0,13.229c-13.781-3.962-28.111,6.614-28.111,6.614l26.457-19.843
		H44.78L44.78,15.108z"/>
</g>
<g id="red">
	<path fill="#7B7B7B" d="M92.082,103.499V19.5h17v83.999H92.082L92.082,103.499z M33.082,45.5v-17H115v17H33.082L33.082,45.5z"/>
	
		<radialGradient id="SVGID_13_" cx="312.6406" cy="-300.3999" r="40.4831" gradientTransform="matrix(1 0 0 -1 -237.5996 -239.9004)" gradientUnits="userSpaceOnUse">
		<stop  offset="0.16" style="stop-color:#EAEAEA"/>
		<stop  offset="0.4512" style="stop-color:#CACACA"/>
		<stop  offset="0.78" style="stop-color:#AAAAAA"/>
	</radialGradient>
	<path fill="url(#SVGID_13_)" d="M94.082,101.5c0-3.729,0-56,0-56c0-1.104-0.895-2-2-2c0,0-53.269,0-57.001,0
		c0-2.699,0-10.303,0-13.001c3.732,0,57.001,0,57.001,0c1.105,0,2-0.896,2-1.999c0,0,0-6.139,0-9.001c2.699,0,10.303,0,13.002,0
		c0,2.862,0,9.001,0,9.001c0,1.104,0.895,1.999,1.998,1.999c0,0,3.242,0,5.918,0c0,2.699,0,10.303,0,13.001
		c-2.676,0-5.918,0-5.918,0c-1.104,0-1.998,0.896-1.998,2c0,0,0,52.271,0,56C104.385,101.5,96.781,101.5,94.082,101.5"/>
	<path fill-opacity="0.1" d="M88.262,108.834c-1.658,0-3-1.343-3-3c0-5.779-0.648-11.664-1.875-17.016
		c-1.389-6.065-3.49-11.459-6.244-16.035C71.17,62.859,62.413,57.2,51.085,55.935c0,3.883,0,11.105,0,11.276
		c0.03,0.225,0.045,0.452,0.045,0.682c0,2.813-2.291,5.104-5.104,5.104c-1.446,0-2.824-0.618-3.783-1.68
		C41.66,70.891,9.814,47.512,9.521,47.295C7.958,46.381,7,44.72,7,42.893c0-1.797,0.934-3.44,2.458-4.363
		c0.167-0.12,32.129-23.318,32.756-23.773c0.962-1.079,2.346-1.707,3.812-1.707c2.813,0,5.104,2.29,5.104,5.104
		c0,0.223-0.015,0.448-0.045,0.673c0,0.372,0,7.556,0,11.143c9.579,0.586,18.251,2.869,25.815,6.8
		c7.768,4.037,14.389,9.815,19.68,17.176c4.881,6.791,8.602,14.886,11.063,24.059c2.299,8.565,3.463,17.931,3.463,27.828
		c0,1.657-1.342,3-3,3L88.262,108.834"/>
	<path fill="#940202" d="M86.262,106.834c-1.658,0-3-1.343-3-3c0-5.779-0.648-11.664-1.875-17.016
		c-1.389-6.065-3.49-11.459-6.244-16.035C69.17,60.859,60.413,55.2,49.085,53.935c0,3.884,0,11.105,0,11.276
		c0.03,0.225,0.045,0.452,0.045,0.682c0,2.813-2.291,5.104-5.104,5.104c-1.446,0-2.824-0.618-3.783-1.68
		C39.66,68.891,7.814,45.512,7.521,45.295C5.958,44.381,5,42.72,5,40.893c0-1.797,0.934-3.44,2.458-4.363
		c0.167-0.12,32.129-23.318,32.756-23.773c0.962-1.079,2.346-1.707,3.812-1.707c2.813,0,5.104,2.29,5.104,5.104
		c0,0.223-0.015,0.448-0.045,0.673c0,0.372,0,7.556,0,11.143c9.579,0.586,18.251,2.869,25.815,6.8
		c7.768,4.037,14.389,9.815,19.68,17.176c4.881,6.791,8.602,14.886,11.063,24.059c2.299,8.565,3.463,17.931,3.463,27.828
		c0,1.657-1.342,3-3,3L86.262,106.834"/>
	<g>
		
			<linearGradient id="SVGID_14_" gradientUnits="userSpaceOnUse" x1="294.6533" y1="-343.7339" x2="294.6533" y2="-253.9502" gradientTransform="matrix(1 0 0 -1 -237.5996 -239.9004)">
			<stop  offset="0" style="stop-color:#FF0000"/>
			<stop  offset="0.1758" style="stop-color:#F60303"/>
			<stop  offset="0.4969" style="stop-color:#EC0404"/>
			<stop  offset="0.782" style="stop-color:#E30101"/>
			<stop  offset="1" style="stop-color:#D60202"/>
		</linearGradient>
		<path fill="url(#SVGID_14_)" d="M42.967,67.598L8.977,42.642l0.159-3.623l33.787-24.518l3.163,2.061v48.762L42.967,67.598
			L42.967,67.598z M44.026,67.997c-1.161,0-2.103-0.94-2.103-2.104c0-1.16,0.942-2.103,2.103-2.103c1.161,0,2.104,0.94,2.104,2.103
			C46.13,67.057,45.187,67.997,44.026,67.997L44.026,67.997z M44.026,18.257c-1.161,0-2.103-0.942-2.103-2.103
			c0-1.163,0.942-2.104,2.103-2.104c1.161,0,2.104,0.942,2.104,2.104C46.13,17.315,45.187,18.257,44.026,18.257L44.026,18.257z
			 M10.104,42.997C8.941,42.997,8,42.056,8,40.893c0-1.161,0.942-2.103,2.104-2.103c1.161,0,2.103,0.942,2.103,2.103
			C12.207,42.056,11.265,42.997,10.104,42.997L10.104,42.997z M86.262,103.834c0-23.15-9.82-53.173-42.223-53.173V30.818
			c44.293,0,62.066,34.985,62.066,73.016H86.262L86.262,103.834z"/>
	</g>
	
		<linearGradient id="SVGID_15_" gradientUnits="userSpaceOnUse" x1="268.3242" y1="-274.8516" x2="268.3242" y2="-255.0083" gradientTransform="matrix(1 0 0 -1 -237.5996 -239.9004)">
		<stop  offset="0" style="stop-color:#FFFFFF;stop-opacity:0"/>
		<stop  offset="1" style="stop-color:#FFFFFF;stop-opacity:0.8"/>
	</linearGradient>
	<path fill="url(#SVGID_15_)" d="M44.78,15.108c0,0-0.12,12.026,0,13.229c-13.781-3.962-28.111,6.614-28.111,6.614l26.457-19.843
		H44.78L44.78,15.108z"/>
</g>
</svg>
