<?xml version="1.0" encoding="utf-8"?>
<!-- Generator: Adobe Illustrator 16.0.2, SVG Export Plug-In . SVG Version: 6.00 Build 0)  -->
<!DOCTYPE svg PUBLIC "-//W3C//DTD SVG 1.1//EN" "http://www.w3.org/Graphics/SVG/1.1/DTD/svg11.dtd">
<svg version="1.1" id="Layer_1" xmlns="http://www.w3.org/2000/svg" xmlns:xlink="http://www.w3.org/1999/xlink" x="0px" y="0px"
	 width="120px" height="120px" viewBox="0 0 120 120" enable-background="new 0 0 120 120" xml:space="preserve">
<g id="black_white">
	<g>
		<g>
			<path fill="#3A3A3A" d="M53.784,18.539L20.539,43.13c-1.013,0.75-1.013,2.266,0,3.015l33.246,24.591
				c1.238,0.916,2.991,0.031,2.991-1.508V20.046C56.775,18.507,55.022,17.623,53.784,18.539z M89.775,34.188h-33v20.9h22.55v46.744
				h20.899V44.638C100.225,38.866,95.547,34.188,89.775,34.188z"/>
		</g>
	</g>
</g>
<g id="blue">
	<path fill-opacity="0.1" d="M82.001,106.848c-1.658,0-3-1.344-3-3c0,0,0-39.887,0-45.16c-3.489-0.002-9.649-0.004-9.649-0.004
		s-4.287,0-7.304-0.002c0,3.666,0,10.705,0,10.854c0.028,0.221,0.043,0.44,0.043,0.664c0,2.813-2.29,5.104-5.104,5.104
		c-1.448,0-2.827-0.623-3.788-1.687c-3.15-2.318-30.232-22.25-32.615-24.003c-1.576-0.913-2.542-2.58-2.542-4.416
		c0-1.795,0.931-3.437,2.452-4.361c0.16-0.117,32.065-23.325,32.684-23.774c0.962-1.08,2.345-1.708,3.809-1.708
		c2.814,0,5.104,2.289,5.104,5.103c0,0.219-0.015,0.442-0.043,0.665c0,0.364,0,7.067,0,10.671
		c5.399,0.013,12.351,0.026,18.978,0.026c4.117,0,7.759-0.006,10.824-0.016c0.004,0,0.008,0,0.01,0h0.053
		c5.193,0,9.22,2.421,11.339,6.817c1.487,3.089,1.53,6.092,1.53,6.424c0,0,0.027,8.751,0.029,9.239
		c0.008,0.088,0.012,0.178,0.012,0.269v49.292c0,1.657-1.342,3-3,3H82.001 M20.426,49.499c-0.002-0.001-0.003-0.003-0.005-0.003
		L20.426,49.499"/>
	<path fill="#00598C" d="M80.001,104.848c-1.658,0-3-1.344-3-3c0,0,0-39.887,0-45.161c-3.489-0.001-9.649-0.003-9.649-0.003
		s-4.287,0-7.304-0.002c0,3.666,0,10.705,0,10.854c0.028,0.221,0.043,0.44,0.043,0.664c0,2.813-2.291,5.104-5.104,5.104
		c-1.448,0-2.827-0.623-3.788-1.687c-3.15-2.318-30.232-22.25-32.615-24.003c-1.576-0.913-2.542-2.58-2.542-4.416
		c0-1.795,0.931-3.437,2.452-4.361c0.16-0.117,32.065-23.325,32.684-23.774c0.962-1.08,2.345-1.708,3.809-1.708
		c2.813,0,5.104,2.289,5.104,5.103c0,0.219-0.015,0.442-0.043,0.665c0,0.364,0,7.067,0,10.671
		c5.399,0.013,12.351,0.026,18.978,0.026c4.117,0,7.759-0.006,10.824-0.016c0.004,0,0.008,0,0.01,0h0.053
		c5.193,0,9.22,2.421,11.339,6.817c1.487,3.089,1.53,6.092,1.53,6.424c0,0,0.027,8.751,0.029,9.239
		c0.008,0.088,0.012,0.178,0.012,0.269v49.292c0,1.657-1.342,3-3,3H80.001 M18.426,47.499c-0.002-0.001-0.003-0.003-0.005-0.003
		L18.426,47.499"/>
	
		<linearGradient id="SVGID_1_" gradientUnits="userSpaceOnUse" x1="297.0332" y1="-341.7476" x2="297.0332" y2="-256.2583" gradientTransform="matrix(1 0 0 -1 -237.5996 -239.9004)">
		<stop  offset="0" style="stop-color:#48A2FB"/>
		<stop  offset="0.1758" style="stop-color:#059CF4"/>
		<stop  offset="0.4969" style="stop-color:#0398EF"/>
		<stop  offset="0.782" style="stop-color:#0293E7"/>
		<stop  offset="1" style="stop-color:#0189D8"/>
	</linearGradient>
	<path fill="url(#SVGID_1_)" d="M53.928,69.902L20.019,44.948l0.159-3.623l33.706-24.518l3.165,2.063v48.761L53.928,69.902
		L53.928,69.902z M54.987,70.305c-1.161,0-2.103-0.943-2.103-2.104c0-1.161,0.942-2.104,2.103-2.104
		c1.163,0,2.104,0.942,2.104,2.104C57.091,69.361,56.149,70.305,54.987,70.305L54.987,70.305z M54.987,20.565
		c-1.161,0-2.103-0.942-2.103-2.104c0-1.161,0.942-2.103,2.103-2.103c1.163,0,2.104,0.941,2.104,2.103S56.149,20.565,54.987,20.565
		L54.987,20.565z M21.146,45.305c-1.163,0-2.104-0.943-2.104-2.104c0-1.161,0.942-2.104,2.104-2.104
		c1.161,0,2.103,0.943,2.103,2.104C23.249,44.362,22.308,45.305,21.146,45.305L21.146,45.305z M80.001,101.848V52.555h19.821v49.292
		H80.001L80.001,101.848z M51.827,53.679V32.77c0,0,23.866,0.086,38.032,0.035c9.923-0.035,9.923,10.242,9.923,10.242l0.032,10.647
		L51.827,53.679L51.827,53.679z"/>
	
		<linearGradient id="SVGID_2_" gradientUnits="userSpaceOnUse" x1="278.6787" y1="-277.9863" x2="278.6787" y2="-258.1436" gradientTransform="matrix(1 0 0 -1 -237.5996 -239.9004)">
		<stop  offset="0" style="stop-color:#FFFFFF;stop-opacity:0"/>
		<stop  offset="1" style="stop-color:#FFFFFF;stop-opacity:0.8"/>
	</linearGradient>
	<path fill="url(#SVGID_2_)" d="M55.134,18.243c0,0-0.12,12.026,0,13.229c-13.781-3.962-28.111,6.614-28.111,6.614L53.48,18.243
		H55.134L55.134,18.243z"/>
</g>
<g id="green">
	<path fill-opacity="0.1" d="M82.001,106.848c-1.658,0-3-1.344-3-3c0,0,0-39.887,0-45.16c-3.489-0.002-9.649-0.004-9.649-0.004
		s-4.287,0-7.304-0.002c0,3.666,0,10.705,0,10.854c0.028,0.221,0.043,0.44,0.043,0.664c0,2.813-2.29,5.104-5.104,5.104
		c-1.448,0-2.827-0.623-3.788-1.687c-3.15-2.318-30.232-22.25-32.615-24.003c-1.576-0.913-2.542-2.58-2.542-4.416
		c0-1.795,0.931-3.437,2.452-4.361c0.16-0.117,32.065-23.325,32.684-23.774c0.962-1.08,2.345-1.708,3.809-1.708
		c2.814,0,5.104,2.289,5.104,5.103c0,0.219-0.015,0.442-0.043,0.665c0,0.364,0,7.067,0,10.671
		c5.399,0.013,12.351,0.026,18.978,0.026c4.117,0,7.759-0.006,10.824-0.016c0.004,0,0.008,0,0.01,0h0.053
		c5.193,0,9.22,2.421,11.339,6.817c1.487,3.089,1.53,6.092,1.53,6.424c0,0,0.027,8.751,0.029,9.239
		c0.008,0.088,0.012,0.178,0.012,0.269v49.292c0,1.657-1.342,3-3,3H82.001 M20.426,49.499c-0.002-0.001-0.003-0.003-0.005-0.003
		L20.426,49.499"/>
	<path fill="#015911" d="M80.001,104.848c-1.658,0-3-1.344-3-3c0,0,0-39.887,0-45.161c-3.489-0.001-9.649-0.003-9.649-0.003
		s-4.287,0-7.304-0.002c0,3.666,0,10.705,0,10.854c0.028,0.221,0.043,0.44,0.043,0.664c0,2.813-2.291,5.104-5.104,5.104
		c-1.448,0-2.827-0.623-3.788-1.687c-3.15-2.318-30.232-22.25-32.615-24.003c-1.576-0.913-2.542-2.58-2.542-4.416
		c0-1.795,0.931-3.437,2.452-4.361c0.16-0.117,32.065-23.325,32.684-23.774c0.962-1.08,2.345-1.708,3.809-1.708
		c2.813,0,5.104,2.289,5.104,5.103c0,0.219-0.015,0.442-0.043,0.665c0,0.364,0,7.067,0,10.671
		c5.399,0.013,12.351,0.026,18.978,0.026c4.117,0,7.759-0.006,10.824-0.016c0.004,0,0.008,0,0.01,0h0.053
		c5.193,0,9.22,2.421,11.339,6.817c1.487,3.089,1.53,6.092,1.53,6.424c0,0,0.027,8.751,0.029,9.239
		c0.008,0.088,0.012,0.178,0.012,0.269v49.292c0,1.657-1.342,3-3,3H80.001 M18.426,47.499c-0.002-0.001-0.003-0.003-0.005-0.003
		L18.426,47.499"/>
	
		<linearGradient id="SVGID_3_" gradientUnits="userSpaceOnUse" x1="297.0332" y1="-341.7476" x2="297.0332" y2="-256.2583" gradientTransform="matrix(1 0 0 -1 -237.5996 -239.9004)">
		<stop  offset="0" style="stop-color:#00DF34"/>
		<stop  offset="0.1758" style="stop-color:#00CD26"/>
		<stop  offset="0.4969" style="stop-color:#00B211"/>
		<stop  offset="0.782" style="stop-color:#00A204"/>
		<stop  offset="1" style="stop-color:#009C00"/>
	</linearGradient>
	<path fill="url(#SVGID_3_)" d="M53.928,69.902L20.019,44.948l0.159-3.623l33.706-24.518l3.165,2.063v48.761L53.928,69.902
		L53.928,69.902z M54.987,70.305c-1.161,0-2.103-0.943-2.103-2.104c0-1.161,0.942-2.104,2.103-2.104
		c1.163,0,2.104,0.942,2.104,2.104C57.091,69.361,56.149,70.305,54.987,70.305L54.987,70.305z M54.987,20.565
		c-1.161,0-2.103-0.942-2.103-2.104c0-1.161,0.942-2.103,2.103-2.103c1.163,0,2.104,0.941,2.104,2.103S56.149,20.565,54.987,20.565
		L54.987,20.565z M21.146,45.305c-1.163,0-2.104-0.943-2.104-2.104c0-1.161,0.942-2.104,2.104-2.104
		c1.161,0,2.103,0.943,2.103,2.104C23.249,44.362,22.308,45.305,21.146,45.305L21.146,45.305z M80.001,101.848V52.555h19.821v49.292
		H80.001L80.001,101.848z M51.827,53.679V32.77c0,0,23.866,0.086,38.032,0.035c9.923-0.035,9.923,10.242,9.923,10.242l0.032,10.647
		L51.827,53.679L51.827,53.679z"/>
	
		<linearGradient id="SVGID_4_" gradientUnits="userSpaceOnUse" x1="278.6787" y1="-277.9863" x2="278.6787" y2="-258.1436" gradientTransform="matrix(1 0 0 -1 -237.5996 -239.9004)">
		<stop  offset="0" style="stop-color:#FFFFFF;stop-opacity:0"/>
		<stop  offset="1" style="stop-color:#FFFFFF;stop-opacity:0.8"/>
	</linearGradient>
	<path fill="url(#SVGID_4_)" d="M55.134,18.243c0,0-0.12,12.026,0,13.229c-13.781-3.962-28.111,6.614-28.111,6.614L53.48,18.243
		H55.134L55.134,18.243z"/>
</g>
<g id="kia">
	<path fill-opacity="0.1" d="M82.001,106.848c-1.658,0-3-1.344-3-3c0,0,0-39.887,0-45.16c-3.489-0.002-9.649-0.004-9.649-0.004
		s-4.287,0-7.304-0.002c0,3.666,0,10.705,0,10.854c0.028,0.221,0.043,0.44,0.043,0.664c0,2.813-2.29,5.104-5.104,5.104
		c-1.448,0-2.827-0.623-3.788-1.687c-3.15-2.318-30.232-22.25-32.615-24.003c-1.576-0.913-2.542-2.58-2.542-4.416
		c0-1.795,0.931-3.437,2.452-4.361c0.16-0.117,32.065-23.325,32.684-23.774c0.962-1.08,2.345-1.708,3.809-1.708
		c2.814,0,5.104,2.289,5.104,5.103c0,0.219-0.015,0.442-0.043,0.665c0,0.364,0,7.067,0,10.671
		c5.399,0.013,12.351,0.026,18.978,0.026c4.117,0,7.759-0.006,10.824-0.016c0.004,0,0.008,0,0.01,0h0.053
		c5.193,0,9.22,2.421,11.339,6.817c1.487,3.089,1.53,6.092,1.53,6.424c0,0,0.027,8.751,0.029,9.239
		c0.008,0.088,0.012,0.178,0.012,0.269v49.292c0,1.657-1.342,3-3,3H82.001 M20.426,49.499c-0.002-0.001-0.003-0.003-0.005-0.003
		L20.426,49.499"/>
	<path fill="#171e9e" d="M80.001,104.848c-1.658,0-3-1.344-3-3c0,0,0-39.887,0-45.161c-3.489-0.001-9.649-0.003-9.649-0.003
		s-4.287,0-7.304-0.002c0,3.666,0,10.705,0,10.854c0.028,0.221,0.043,0.44,0.043,0.664c0,2.813-2.291,5.104-5.104,5.104
		c-1.448,0-2.827-0.623-3.788-1.687c-3.15-2.318-30.232-22.25-32.615-24.003c-1.576-0.913-2.542-2.58-2.542-4.416
		c0-1.795,0.931-3.437,2.452-4.361c0.16-0.117,32.065-23.325,32.684-23.774c0.962-1.08,2.345-1.708,3.809-1.708
		c2.813,0,5.104,2.289,5.104,5.103c0,0.219-0.015,0.442-0.043,0.665c0,0.364,0,7.067,0,10.671
		c5.399,0.013,12.351,0.026,18.978,0.026c4.117,0,7.759-0.006,10.824-0.016c0.004,0,0.008,0,0.01,0h0.053
		c5.193,0,9.22,2.421,11.339,6.817c1.487,3.089,1.53,6.092,1.53,6.424c0,0,0.027,8.751,0.029,9.239
		c0.008,0.088,0.012,0.178,0.012,0.269v49.292c0,1.657-1.342,3-3,3H80.001 M18.426,47.499c-0.002-0.001-0.003-0.003-0.005-0.003
		L18.426,47.499"/>
	
		<linearGradient id="SVGID_5_" gradientUnits="userSpaceOnUse" x1="297.0332" y1="-341.7476" x2="297.0332" y2="-256.2583" gradientTransform="matrix(1 0 0 -1 -237.5996 -239.9004)">
		<stop  offset="0" style="stop-color:#FFFFFF"/>
		<stop  offset="0.1758" style="stop-color:#E7E9EA"/>
		<stop  offset="0.4969" style="stop-color:#CDD2D5"/>
		<stop  offset="0.782" style="stop-color:#C5CACC"/>
		<stop  offset="1" style="stop-color:#BABDC0"/>
	</linearGradient>
	<path fill="url(#SVGID_5_)" d="M53.928,69.902L20.019,44.948l0.159-3.623l33.706-24.518l3.165,2.063v48.761L53.928,69.902
		L53.928,69.902z M54.987,70.305c-1.161,0-2.103-0.943-2.103-2.104c0-1.161,0.942-2.104,2.103-2.104
		c1.163,0,2.104,0.942,2.104,2.104C57.091,69.361,56.149,70.305,54.987,70.305L54.987,70.305z M54.987,20.565
		c-1.161,0-2.103-0.942-2.103-2.104c0-1.161,0.942-2.103,2.103-2.103c1.163,0,2.104,0.941,2.104,2.103S56.149,20.565,54.987,20.565
		L54.987,20.565z M21.146,45.305c-1.163,0-2.104-0.943-2.104-2.104c0-1.161,0.942-2.104,2.104-2.104
		c1.161,0,2.103,0.943,2.103,2.104C23.249,44.362,22.308,45.305,21.146,45.305L21.146,45.305z M80.001,101.848V52.555h19.821v49.292
		H80.001L80.001,101.848z M51.827,53.679V32.77c0,0,23.866,0.086,38.032,0.035c9.923-0.035,9.923,10.242,9.923,10.242l0.032,10.647
		L51.827,53.679L51.827,53.679z"/>
	
		<linearGradient id="SVGID_6_" gradientUnits="userSpaceOnUse" x1="278.6787" y1="-277.9863" x2="278.6787" y2="-258.1436" gradientTransform="matrix(1 0 0 -1 -237.5996 -239.9004)">
		<stop  offset="0" style="stop-color:#FFFFFF;stop-opacity:0"/>
		<stop  offset="1" style="stop-color:#FFFFFF;stop-opacity:0.8"/>
	</linearGradient>
	<path fill="url(#SVGID_6_)" d="M55.134,18.243c0,0-0.12,12.026,0,13.229c-13.781-3.962-28.111,6.614-28.111,6.614L53.48,18.243
		H55.134L55.134,18.243z"/>
</g>
<g id="orange">
	<path fill-opacity="0.1" d="M82.001,106.848c-1.658,0-3-1.344-3-3c0,0,0-39.887,0-45.16c-3.489-0.002-9.649-0.004-9.649-0.004
		s-4.287,0-7.304-0.002c0,3.666,0,10.705,0,10.854c0.028,0.221,0.043,0.44,0.043,0.664c0,2.813-2.29,5.104-5.104,5.104
		c-1.448,0-2.827-0.623-3.788-1.687c-3.15-2.318-30.232-22.25-32.615-24.003c-1.576-0.913-2.542-2.58-2.542-4.416
		c0-1.795,0.931-3.437,2.452-4.361c0.16-0.117,32.065-23.325,32.684-23.774c0.962-1.08,2.345-1.708,3.809-1.708
		c2.814,0,5.104,2.289,5.104,5.103c0,0.219-0.015,0.442-0.043,0.665c0,0.364,0,7.067,0,10.671
		c5.399,0.013,12.351,0.026,18.978,0.026c4.117,0,7.759-0.006,10.824-0.016c0.004,0,0.008,0,0.01,0h0.053
		c5.193,0,9.22,2.421,11.339,6.817c1.487,3.089,1.53,6.092,1.53,6.424c0,0,0.027,8.751,0.029,9.239
		c0.008,0.088,0.012,0.178,0.012,0.269v49.292c0,1.657-1.342,3-3,3H82.001 M20.426,49.499c-0.002-0.001-0.003-0.003-0.005-0.003
		L20.426,49.499"/>
	<path fill="#A43C10" d="M80.001,104.848c-1.658,0-3-1.344-3-3c0,0,0-39.887,0-45.161c-3.489-0.001-9.649-0.003-9.649-0.003
		s-4.287,0-7.304-0.002c0,3.666,0,10.705,0,10.854c0.028,0.221,0.043,0.44,0.043,0.664c0,2.813-2.291,5.104-5.104,5.104
		c-1.448,0-2.827-0.623-3.788-1.687c-3.15-2.318-30.232-22.25-32.615-24.003c-1.576-0.913-2.542-2.58-2.542-4.416
		c0-1.795,0.931-3.437,2.452-4.361c0.16-0.117,32.065-23.325,32.684-23.774c0.962-1.08,2.345-1.708,3.809-1.708
		c2.813,0,5.104,2.289,5.104,5.103c0,0.219-0.015,0.442-0.043,0.665c0,0.364,0,7.067,0,10.671
		c5.399,0.013,12.351,0.026,18.978,0.026c4.117,0,7.759-0.006,10.824-0.016c0.004,0,0.008,0,0.01,0h0.053
		c5.193,0,9.22,2.421,11.339,6.817c1.487,3.089,1.53,6.092,1.53,6.424c0,0,0.027,8.751,0.029,9.239
		c0.008,0.088,0.012,0.178,0.012,0.269v49.292c0,1.657-1.342,3-3,3H80.001 M18.426,47.499c-0.002-0.001-0.003-0.003-0.005-0.003
		L18.426,47.499"/>
	
		<linearGradient id="SVGID_7_" gradientUnits="userSpaceOnUse" x1="297.0332" y1="-341.7476" x2="297.0332" y2="-256.2583" gradientTransform="matrix(1 0 0 -1 -237.5996 -239.9004)">
		<stop  offset="0" style="stop-color:#FEDF34"/>
		<stop  offset="0.1758" style="stop-color:#FECD26"/>
		<stop  offset="0.4969" style="stop-color:#FFB211"/>
		<stop  offset="0.782" style="stop-color:#FFA204"/>
		<stop  offset="1" style="stop-color:#FF9C00"/>
	</linearGradient>
	<path fill="url(#SVGID_7_)" d="M53.928,69.902L20.019,44.948l0.159-3.623l33.706-24.518l3.165,2.063v48.761L53.928,69.902
		L53.928,69.902z M54.987,70.305c-1.161,0-2.103-0.943-2.103-2.104c0-1.161,0.942-2.104,2.103-2.104
		c1.163,0,2.104,0.942,2.104,2.104C57.091,69.361,56.149,70.305,54.987,70.305L54.987,70.305z M54.987,20.565
		c-1.161,0-2.103-0.942-2.103-2.104c0-1.161,0.942-2.103,2.103-2.103c1.163,0,2.104,0.941,2.104,2.103S56.149,20.565,54.987,20.565
		L54.987,20.565z M21.146,45.305c-1.163,0-2.104-0.943-2.104-2.104c0-1.161,0.942-2.104,2.104-2.104
		c1.161,0,2.103,0.943,2.103,2.104C23.249,44.362,22.308,45.305,21.146,45.305L21.146,45.305z M80.001,101.848V52.555h19.821v49.292
		H80.001L80.001,101.848z M51.827,53.679V32.77c0,0,23.866,0.086,38.032,0.035c9.923-0.035,9.923,10.242,9.923,10.242l0.032,10.647
		L51.827,53.679L51.827,53.679z"/>
	
		<linearGradient id="SVGID_8_" gradientUnits="userSpaceOnUse" x1="278.6787" y1="-277.9863" x2="278.6787" y2="-258.1436" gradientTransform="matrix(1 0 0 -1 -237.5996 -239.9004)">
		<stop  offset="0" style="stop-color:#FFFFFF;stop-opacity:0"/>
		<stop  offset="1" style="stop-color:#FFFFFF;stop-opacity:0.8"/>
	</linearGradient>
	<path fill="url(#SVGID_8_)" d="M55.134,18.243c0,0-0.12,12.026,0,13.229c-13.781-3.962-28.111,6.614-28.111,6.614L53.48,18.243
		H55.134L55.134,18.243z"/>
</g>
<g id="red">
	<path fill-opacity="0.1" d="M82.001,106.848c-1.658,0-3-1.344-3-3c0,0,0-39.887,0-45.16c-3.489-0.002-9.649-0.004-9.649-0.004
		s-4.287,0-7.304-0.002c0,3.666,0,10.705,0,10.854c0.028,0.221,0.043,0.44,0.043,0.664c0,2.813-2.29,5.104-5.104,5.104
		c-1.448,0-2.827-0.623-3.788-1.687c-3.15-2.318-30.232-22.25-32.615-24.003c-1.576-0.913-2.542-2.58-2.542-4.416
		c0-1.795,0.931-3.437,2.452-4.361c0.16-0.117,32.065-23.325,32.684-23.774c0.962-1.08,2.345-1.708,3.809-1.708
		c2.814,0,5.104,2.289,5.104,5.103c0,0.219-0.015,0.442-0.043,0.665c0,0.364,0,7.067,0,10.671
		c5.399,0.013,12.351,0.026,18.978,0.026c4.117,0,7.759-0.006,10.824-0.016c0.004,0,0.008,0,0.01,0h0.053
		c5.193,0,9.22,2.421,11.339,6.817c1.487,3.089,1.53,6.092,1.53,6.424c0,0,0.027,8.751,0.029,9.239
		c0.008,0.088,0.012,0.178,0.012,0.269v49.292c0,1.657-1.342,3-3,3H82.001 M20.426,49.499c-0.002-0.001-0.003-0.003-0.005-0.003
		L20.426,49.499"/>
	<path fill="#940202" d="M80.001,104.848c-1.658,0-3-1.344-3-3c0,0,0-39.887,0-45.161c-3.489-0.001-9.649-0.003-9.649-0.003
		s-4.287,0-7.304-0.002c0,3.666,0,10.705,0,10.854c0.028,0.221,0.043,0.44,0.043,0.664c0,2.813-2.291,5.104-5.104,5.104
		c-1.448,0-2.827-0.623-3.788-1.687c-3.15-2.318-30.232-22.25-32.615-24.003c-1.576-0.913-2.542-2.58-2.542-4.416
		c0-1.795,0.931-3.437,2.452-4.361c0.16-0.117,32.065-23.325,32.684-23.774c0.962-1.08,2.345-1.708,3.809-1.708
		c2.813,0,5.104,2.289,5.104,5.103c0,0.219-0.015,0.442-0.043,0.665c0,0.364,0,7.067,0,10.671
		c5.399,0.013,12.351,0.026,18.978,0.026c4.117,0,7.759-0.006,10.824-0.016c0.004,0,0.008,0,0.01,0h0.053
		c5.193,0,9.22,2.421,11.339,6.817c1.487,3.089,1.53,6.092,1.53,6.424c0,0,0.027,8.751,0.029,9.239
		c0.008,0.088,0.012,0.178,0.012,0.269v49.292c0,1.657-1.342,3-3,3H80.001 M18.426,47.499c-0.002-0.001-0.003-0.003-0.005-0.003
		L18.426,47.499"/>
	
		<linearGradient id="SVGID_9_" gradientUnits="userSpaceOnUse" x1="297.0332" y1="-341.7476" x2="297.0332" y2="-256.2583" gradientTransform="matrix(1 0 0 -1 -237.5996 -239.9004)">
		<stop  offset="0" style="stop-color:#FF0000"/>
		<stop  offset="0.1758" style="stop-color:#F60303"/>
		<stop  offset="0.4969" style="stop-color:#EC0404"/>
		<stop  offset="0.782" style="stop-color:#E30101"/>
		<stop  offset="1" style="stop-color:#D60202"/>
	</linearGradient>
	<path fill="url(#SVGID_9_)" d="M53.928,69.902L20.019,44.948l0.159-3.623l33.706-24.518l3.165,2.063v48.761L53.928,69.902
		L53.928,69.902z M54.987,70.305c-1.161,0-2.103-0.943-2.103-2.104c0-1.161,0.942-2.104,2.103-2.104
		c1.163,0,2.104,0.942,2.104,2.104C57.091,69.361,56.149,70.305,54.987,70.305L54.987,70.305z M54.987,20.565
		c-1.161,0-2.103-0.942-2.103-2.104c0-1.161,0.942-2.103,2.103-2.103c1.163,0,2.104,0.941,2.104,2.103S56.149,20.565,54.987,20.565
		L54.987,20.565z M21.146,45.305c-1.163,0-2.104-0.943-2.104-2.104c0-1.161,0.942-2.104,2.104-2.104
		c1.161,0,2.103,0.943,2.103,2.104C23.249,44.362,22.308,45.305,21.146,45.305L21.146,45.305z M80.001,101.848V52.555h19.821v49.292
		H80.001L80.001,101.848z M51.827,53.679V32.77c0,0,23.866,0.086,38.032,0.035c9.923-0.035,9.923,10.242,9.923,10.242l0.032,10.647
		L51.827,53.679L51.827,53.679z"/>
	
		<linearGradient id="SVGID_10_" gradientUnits="userSpaceOnUse" x1="278.6787" y1="-277.9863" x2="278.6787" y2="-258.1436" gradientTransform="matrix(1 0 0 -1 -237.5996 -239.9004)">
		<stop  offset="0" style="stop-color:#FFFFFF;stop-opacity:0"/>
		<stop  offset="1" style="stop-color:#FFFFFF;stop-opacity:0.8"/>
	</linearGradient>
	<path fill="url(#SVGID_10_)" d="M55.134,18.243c0,0-0.12,12.026,0,13.229c-13.781-3.962-28.111,6.614-28.111,6.614L53.48,18.243
		H55.134L55.134,18.243z"/>
</g>
</svg>
