<?xml version="1.0" encoding="utf-8"?>
<!-- Generator: Adobe Illustrator 16.0.2, SVG Export Plug-In . SVG Version: 6.00 Build 0)  -->
<!DOCTYPE svg PUBLIC "-//W3C//DTD SVG 1.1//EN" "http://www.w3.org/Graphics/SVG/1.1/DTD/svg11.dtd">
<svg version="1.1" id="Layer_1" xmlns="http://www.w3.org/2000/svg" xmlns:xlink="http://www.w3.org/1999/xlink" x="0px" y="0px"
	 width="120px" height="120px" viewBox="0 0 120 120" enable-background="new 0 0 120 120" xml:space="preserve">
<g id="black_white">
	<g>
		<rect x="62.534" y="75.828" fill="#999999" width="30.853" height="8.451"/>
		<path fill="#3A3A3A" d="M79.182,51.241l-24.59-33.245c-0.75-1.013-2.266-1.013-3.015,0L26.985,51.241
			c-0.916,1.238-0.032,2.991,1.508,2.991h14.141v48.534h20.9V54.232h14.141C79.214,54.232,80.098,52.479,79.182,51.241z"/>
	</g>
</g>
<g id="blue">
	<polygon fill="#7B7B7B" points="51.454,88.693 51.454,72.158 99.408,72.158 99.408,88.693 	"/>
	
		<linearGradient id="SVGID_1_" gradientUnits="userSpaceOnUse" x1="291.0547" y1="-320.3262" x2="337.0078" y2="-320.3262" gradientTransform="matrix(1 0 0 -1 -237.5996 -239.9004)">
		<stop  offset="0.22" style="stop-color:#AAAAAA"/>
		<stop  offset="0.5488" style="stop-color:#CACACA"/>
		<stop  offset="0.84" style="stop-color:#EAEAEA"/>
	</linearGradient>
	<path fill="url(#SVGID_1_)" d="M53.454,86.693c0-2.668,0-9.869,0-12.535c3.514,0,42.438,0,45.953,0c0,2.666,0,9.867,0,12.535
		C95.895,86.693,56.968,86.693,53.454,86.693"/>
	<path fill-opacity="0.1" d="M44.013,106.798c-1.658,0-3-1.342-3-2.999c0,0,0-39.675,0-44.947c-3.794,0-11.64,0-11.791,0
		c-0.221,0.029-0.443,0.045-0.665,0.045c-2.814,0-5.104-2.292-5.104-5.104c0-1.462,0.631-2.851,1.712-3.813
		c0.434-0.582,23.75-31.835,23.991-32.157c0.915-1.562,2.574-2.519,4.401-2.519c1.786,0,3.419,0.92,4.345,2.426
		c0.107,0.144,23.286,31.586,23.752,32.221c1.103,0.962,1.744,2.359,1.744,3.842c0,2.814-2.289,5.104-5.104,5.104
		c-0.218,0-0.438-0.016-0.658-0.045c-0.357,0-7.884,0-11.632,0c0,5.272,0,44.947,0,44.947c0,1.657-1.342,2.999-2.999,2.999H44.013"
		/>
	<path fill="#00598C" d="M42.013,104.798c-1.658,0-3-1.342-3-2.999c0,0,0-39.675,0-44.947c-3.794,0-11.64,0-11.791,0
		c-0.221,0.029-0.443,0.043-0.665,0.043c-2.814,0-5.104-2.291-5.104-5.104c0-1.462,0.631-2.851,1.712-3.813
		c0.434-0.582,23.75-31.835,23.991-32.157c0.915-1.562,2.574-2.519,4.401-2.519c1.786,0,3.419,0.92,4.345,2.426
		c0.107,0.144,23.286,31.586,23.752,32.221c1.103,0.962,1.744,2.359,1.744,3.842c0,2.814-2.289,5.104-5.104,5.104
		c-0.218,0-0.438-0.015-0.658-0.043c-0.357,0-7.884,0-11.632,0c0,5.272,0,44.947,0,44.947c0,1.657-1.342,2.999-2.999,2.999H42.013"
		/>
	<g>
		
			<linearGradient id="SVGID_2_" gradientUnits="userSpaceOnUse" x1="289.0273" y1="-341.6987" x2="289.0273" y2="-256.2026" gradientTransform="matrix(1 0 0 -1 -237.5996 -239.9004)">
			<stop  offset="0" style="stop-color:#48A2FB"/>
			<stop  offset="0.1758" style="stop-color:#059CF4"/>
			<stop  offset="0.4969" style="stop-color:#0398EF"/>
			<stop  offset="0.782" style="stop-color:#0293E7"/>
			<stop  offset="1" style="stop-color:#0189D8"/>
		</linearGradient>
		<path fill="url(#SVGID_2_)" d="M75.889,53.853H27.126l-2.272-3.12l24.957-33.454l3.623,0.157L77.95,50.688L75.889,53.853
			L75.889,53.853z M42.013,101.799V53.555h18.994v48.244H42.013L42.013,101.799z M26.558,53.896c-1.163,0-2.104-0.941-2.104-2.104
			c0-1.161,0.942-2.103,2.104-2.103c1.161,0,2.103,0.941,2.103,2.103S27.719,53.896,26.558,53.896L26.558,53.896z M76.296,53.896
			c-1.161,0-2.103-0.941-2.103-2.104c0-1.161,0.94-2.103,2.103-2.103c1.163,0,2.104,0.941,2.104,2.103S77.459,53.896,76.296,53.896
			L76.296,53.896z M51.558,20.509c-1.163,0-2.104-0.941-2.104-2.104c0-1.161,0.942-2.103,2.104-2.103
			c1.161,0,2.103,0.941,2.103,2.103C53.661,19.567,52.719,20.509,51.558,20.509L51.558,20.509z"/>
	</g>
	
		<linearGradient id="SVGID_3_" gradientUnits="userSpaceOnUse" x1="293.5879" y1="-283.8315" x2="293.5879" y2="-259.6934" gradientTransform="matrix(1 0 0 -1 -237.5996 -239.9004)">
		<stop  offset="0" style="stop-color:#FFFFFF;stop-opacity:0"/>
		<stop  offset="1" style="stop-color:#FFFFFF;stop-opacity:0.8"/>
	</linearGradient>
	<path fill="url(#SVGID_3_)" d="M50.739,19.793c0,0-7.718,9.604-9.793,12.125c19.156-2.101,30.083,12.013,30.083,12.013
		L52.02,19.812L50.739,19.793L50.739,19.793z"/>
</g>
<g id="green">
	<polygon fill="#7B7B7B" points="51.454,88.693 51.454,72.158 99.408,72.158 99.408,88.693 	"/>
	
		<linearGradient id="SVGID_4_" gradientUnits="userSpaceOnUse" x1="291.0547" y1="-320.3262" x2="337.0078" y2="-320.3262" gradientTransform="matrix(1 0 0 -1 -237.5996 -239.9004)">
		<stop  offset="0.22" style="stop-color:#AAAAAA"/>
		<stop  offset="0.5488" style="stop-color:#CACACA"/>
		<stop  offset="0.84" style="stop-color:#EAEAEA"/>
	</linearGradient>
	<path fill="url(#SVGID_4_)" d="M53.454,86.693c0-2.668,0-9.869,0-12.535c3.514,0,42.438,0,45.953,0c0,2.666,0,9.867,0,12.535
		C95.895,86.693,56.968,86.693,53.454,86.693"/>
	<path fill-opacity="0.1" d="M44.013,106.798c-1.658,0-3-1.342-3-2.999c0,0,0-39.675,0-44.947c-3.794,0-11.64,0-11.791,0
		c-0.221,0.029-0.443,0.045-0.665,0.045c-2.814,0-5.104-2.292-5.104-5.104c0-1.462,0.631-2.851,1.712-3.813
		c0.434-0.582,23.75-31.835,23.991-32.157c0.915-1.562,2.574-2.519,4.401-2.519c1.786,0,3.419,0.92,4.345,2.426
		c0.107,0.144,23.286,31.586,23.752,32.221c1.103,0.962,1.744,2.359,1.744,3.842c0,2.814-2.289,5.104-5.104,5.104
		c-0.218,0-0.438-0.016-0.658-0.045c-0.357,0-7.884,0-11.632,0c0,5.272,0,44.947,0,44.947c0,1.657-1.342,2.999-2.999,2.999H44.013"
		/>
	<path fill="#015911" d="M42.013,104.798c-1.658,0-3-1.342-3-2.999c0,0,0-39.675,0-44.947c-3.794,0-11.64,0-11.791,0
		c-0.221,0.029-0.443,0.043-0.665,0.043c-2.814,0-5.104-2.291-5.104-5.104c0-1.462,0.631-2.851,1.712-3.813
		c0.434-0.582,23.75-31.835,23.991-32.157c0.915-1.562,2.574-2.519,4.401-2.519c1.786,0,3.419,0.92,4.345,2.426
		c0.107,0.144,23.286,31.586,23.752,32.221c1.103,0.962,1.744,2.359,1.744,3.842c0,2.814-2.289,5.104-5.104,5.104
		c-0.218,0-0.438-0.015-0.658-0.043c-0.357,0-7.884,0-11.632,0c0,5.272,0,44.947,0,44.947c0,1.657-1.342,2.999-2.999,2.999H42.013"
		/>
	<g>
		
			<linearGradient id="SVGID_5_" gradientUnits="userSpaceOnUse" x1="289.0273" y1="-341.6987" x2="289.0273" y2="-256.2026" gradientTransform="matrix(1 0 0 -1 -237.5996 -239.9004)">
			<stop  offset="0" style="stop-color:#00DF34"/>
			<stop  offset="0.1758" style="stop-color:#00CD26"/>
			<stop  offset="0.4969" style="stop-color:#00B211"/>
			<stop  offset="0.782" style="stop-color:#00A204"/>
			<stop  offset="1" style="stop-color:#009C00"/>
		</linearGradient>
		<path fill="url(#SVGID_5_)" d="M75.889,53.853H27.126l-2.272-3.12l24.957-33.454l3.623,0.157L77.95,50.688L75.889,53.853
			L75.889,53.853z M42.013,101.799V53.555h18.994v48.244H42.013L42.013,101.799z M26.558,53.896c-1.163,0-2.104-0.941-2.104-2.104
			c0-1.161,0.942-2.103,2.104-2.103c1.161,0,2.103,0.941,2.103,2.103S27.719,53.896,26.558,53.896L26.558,53.896z M76.296,53.896
			c-1.161,0-2.103-0.941-2.103-2.104c0-1.161,0.94-2.103,2.103-2.103c1.163,0,2.104,0.941,2.104,2.103S77.459,53.896,76.296,53.896
			L76.296,53.896z M51.558,20.509c-1.163,0-2.104-0.941-2.104-2.104c0-1.161,0.942-2.103,2.104-2.103
			c1.161,0,2.103,0.941,2.103,2.103C53.661,19.567,52.719,20.509,51.558,20.509L51.558,20.509z"/>
	</g>
	
		<linearGradient id="SVGID_6_" gradientUnits="userSpaceOnUse" x1="293.5879" y1="-283.8315" x2="293.5879" y2="-259.6934" gradientTransform="matrix(1 0 0 -1 -237.5996 -239.9004)">
		<stop  offset="0" style="stop-color:#FFFFFF;stop-opacity:0"/>
		<stop  offset="1" style="stop-color:#FFFFFF;stop-opacity:0.8"/>
	</linearGradient>
	<path fill="url(#SVGID_6_)" d="M50.739,19.793c0,0-7.718,9.604-9.793,12.125c19.156-2.101,30.083,12.013,30.083,12.013
		L52.02,19.812L50.739,19.793L50.739,19.793z"/>
</g>
<g id="kia">
	<polygon fill="#7B7B7B" points="51.454,88.693 51.454,72.158 99.408,72.158 99.408,88.693 	"/>
	
		<linearGradient id="SVGID_7_" gradientUnits="userSpaceOnUse" x1="291.0547" y1="-320.3262" x2="337.0078" y2="-320.3262" gradientTransform="matrix(1 0 0 -1 -237.5996 -239.9004)">
		<stop  offset="0.22" style="stop-color:#AAAAAA"/>
		<stop  offset="0.5488" style="stop-color:#CACACA"/>
		<stop  offset="0.84" style="stop-color:#EAEAEA"/>
	</linearGradient>
	<path fill="url(#SVGID_7_)" d="M53.454,86.693c0-2.668,0-9.869,0-12.535c3.514,0,42.438,0,45.953,0c0,2.666,0,9.867,0,12.535
		C95.895,86.693,56.968,86.693,53.454,86.693"/>
	<path fill-opacity="0.1" d="M44.013,106.798c-1.658,0-3-1.342-3-2.999c0,0,0-39.675,0-44.947c-3.794,0-11.64,0-11.791,0
		c-0.221,0.029-0.443,0.045-0.665,0.045c-2.814,0-5.104-2.292-5.104-5.104c0-1.462,0.631-2.851,1.712-3.813
		c0.434-0.582,23.75-31.835,23.991-32.157c0.915-1.562,2.574-2.519,4.401-2.519c1.786,0,3.419,0.92,4.345,2.426
		c0.107,0.144,23.286,31.586,23.752,32.221c1.103,0.962,1.744,2.359,1.744,3.842c0,2.814-2.289,5.104-5.104,5.104
		c-0.218,0-0.438-0.016-0.658-0.045c-0.357,0-7.884,0-11.632,0c0,5.272,0,44.947,0,44.947c0,1.657-1.342,2.999-2.999,2.999H44.013"
		/>
	<path fill="#171e9e" d="M42.013,104.798c-1.658,0-3-1.342-3-2.999c0,0,0-39.675,0-44.947c-3.794,0-11.64,0-11.791,0
		c-0.221,0.029-0.443,0.043-0.665,0.043c-2.814,0-5.104-2.291-5.104-5.104c0-1.462,0.631-2.851,1.712-3.813
		c0.434-0.582,23.75-31.835,23.991-32.157c0.915-1.562,2.574-2.519,4.401-2.519c1.786,0,3.419,0.92,4.345,2.426
		c0.107,0.144,23.286,31.586,23.752,32.221c1.103,0.962,1.744,2.359,1.744,3.842c0,2.814-2.289,5.104-5.104,5.104
		c-0.218,0-0.438-0.015-0.658-0.043c-0.357,0-7.884,0-11.632,0c0,5.272,0,44.947,0,44.947c0,1.657-1.342,2.999-2.999,2.999H42.013"
		/>
	<g>
		
			<linearGradient id="SVGID_8_" gradientUnits="userSpaceOnUse" x1="289.0273" y1="-341.6987" x2="289.0273" y2="-256.2026" gradientTransform="matrix(1 0 0 -1 -237.5996 -239.9004)">
			<stop  offset="0" style="stop-color:#FFFFFF"/>
			<stop  offset="0.1758" style="stop-color:#E7E9EA"/>
			<stop  offset="0.4969" style="stop-color:#CDD2D5"/>
			<stop  offset="0.782" style="stop-color:#C5CACC"/>
			<stop  offset="1" style="stop-color:#BABDC0"/>
		</linearGradient>
		<path fill="url(#SVGID_8_)" d="M75.889,53.853H27.126l-2.272-3.12l24.957-33.454l3.623,0.157L77.95,50.688L75.889,53.853
			L75.889,53.853z M42.013,101.799V53.555h18.994v48.244H42.013L42.013,101.799z M26.558,53.896c-1.163,0-2.104-0.941-2.104-2.104
			c0-1.161,0.942-2.103,2.104-2.103c1.161,0,2.103,0.941,2.103,2.103S27.719,53.896,26.558,53.896L26.558,53.896z M76.296,53.896
			c-1.161,0-2.103-0.941-2.103-2.104c0-1.161,0.94-2.103,2.103-2.103c1.163,0,2.104,0.941,2.104,2.103S77.459,53.896,76.296,53.896
			L76.296,53.896z M51.558,20.509c-1.163,0-2.104-0.941-2.104-2.104c0-1.161,0.942-2.103,2.104-2.103
			c1.161,0,2.103,0.941,2.103,2.103C53.661,19.567,52.719,20.509,51.558,20.509L51.558,20.509z"/>
	</g>
	
		<linearGradient id="SVGID_9_" gradientUnits="userSpaceOnUse" x1="293.5879" y1="-283.8315" x2="293.5879" y2="-259.6934" gradientTransform="matrix(1 0 0 -1 -237.5996 -239.9004)">
		<stop  offset="0" style="stop-color:#FFFFFF;stop-opacity:0"/>
		<stop  offset="1" style="stop-color:#FFFFFF;stop-opacity:0.8"/>
	</linearGradient>
	<path fill="url(#SVGID_9_)" d="M50.739,19.793c0,0-7.718,9.604-9.793,12.125c19.156-2.101,30.083,12.013,30.083,12.013
		L52.02,19.812L50.739,19.793L50.739,19.793z"/>
</g>
<g id="orange">
	<polygon fill="#7B7B7B" points="51.454,88.693 51.454,72.158 99.408,72.158 99.408,88.693 	"/>
	
		<linearGradient id="SVGID_10_" gradientUnits="userSpaceOnUse" x1="291.0547" y1="-320.3262" x2="337.0078" y2="-320.3262" gradientTransform="matrix(1 0 0 -1 -237.5996 -239.9004)">
		<stop  offset="0.22" style="stop-color:#AAAAAA"/>
		<stop  offset="0.5488" style="stop-color:#CACACA"/>
		<stop  offset="0.84" style="stop-color:#EAEAEA"/>
	</linearGradient>
	<path fill="url(#SVGID_10_)" d="M53.454,86.693c0-2.668,0-9.869,0-12.535c3.514,0,42.438,0,45.953,0c0,2.666,0,9.867,0,12.535
		C95.895,86.693,56.968,86.693,53.454,86.693"/>
	<path fill-opacity="0.1" d="M44.013,106.798c-1.658,0-3-1.342-3-2.999c0,0,0-39.675,0-44.947c-3.794,0-11.64,0-11.791,0
		c-0.221,0.029-0.443,0.045-0.665,0.045c-2.814,0-5.104-2.292-5.104-5.104c0-1.462,0.631-2.851,1.712-3.813
		c0.434-0.582,23.75-31.835,23.991-32.157c0.915-1.562,2.574-2.519,4.401-2.519c1.786,0,3.419,0.92,4.345,2.426
		c0.107,0.144,23.286,31.586,23.752,32.221c1.103,0.962,1.744,2.359,1.744,3.842c0,2.814-2.289,5.104-5.104,5.104
		c-0.218,0-0.438-0.016-0.658-0.045c-0.357,0-7.884,0-11.632,0c0,5.272,0,44.947,0,44.947c0,1.657-1.342,2.999-2.999,2.999H44.013"
		/>
	<path fill="#A43C10" d="M42.013,104.798c-1.658,0-3-1.342-3-2.999c0,0,0-39.675,0-44.947c-3.794,0-11.64,0-11.791,0
		c-0.221,0.029-0.443,0.043-0.665,0.043c-2.814,0-5.104-2.291-5.104-5.104c0-1.462,0.631-2.851,1.712-3.813
		c0.434-0.582,23.75-31.835,23.991-32.157c0.915-1.562,2.574-2.519,4.401-2.519c1.786,0,3.419,0.92,4.345,2.426
		c0.107,0.144,23.286,31.586,23.752,32.221c1.103,0.962,1.744,2.359,1.744,3.842c0,2.814-2.289,5.104-5.104,5.104
		c-0.218,0-0.438-0.015-0.658-0.043c-0.357,0-7.884,0-11.632,0c0,5.272,0,44.947,0,44.947c0,1.657-1.342,2.999-2.999,2.999H42.013"
		/>
	<g>
		
			<linearGradient id="SVGID_11_" gradientUnits="userSpaceOnUse" x1="289.0273" y1="-341.6987" x2="289.0273" y2="-256.2026" gradientTransform="matrix(1 0 0 -1 -237.5996 -239.9004)">
			<stop  offset="0" style="stop-color:#FEDF34"/>
			<stop  offset="0.1758" style="stop-color:#FECD26"/>
			<stop  offset="0.4969" style="stop-color:#FFB211"/>
			<stop  offset="0.782" style="stop-color:#FFA204"/>
			<stop  offset="1" style="stop-color:#FF9C00"/>
		</linearGradient>
		<path fill="url(#SVGID_11_)" d="M75.889,53.853H27.126l-2.272-3.12l24.957-33.454l3.623,0.157L77.95,50.688L75.889,53.853
			L75.889,53.853z M42.013,101.799V53.555h18.994v48.244H42.013L42.013,101.799z M26.558,53.896c-1.163,0-2.104-0.941-2.104-2.104
			c0-1.161,0.942-2.103,2.104-2.103c1.161,0,2.103,0.941,2.103,2.103S27.719,53.896,26.558,53.896L26.558,53.896z M76.296,53.896
			c-1.161,0-2.103-0.941-2.103-2.104c0-1.161,0.94-2.103,2.103-2.103c1.163,0,2.104,0.941,2.104,2.103S77.459,53.896,76.296,53.896
			L76.296,53.896z M51.558,20.509c-1.163,0-2.104-0.941-2.104-2.104c0-1.161,0.942-2.103,2.104-2.103
			c1.161,0,2.103,0.941,2.103,2.103C53.661,19.567,52.719,20.509,51.558,20.509L51.558,20.509z"/>
	</g>
	
		<linearGradient id="SVGID_12_" gradientUnits="userSpaceOnUse" x1="293.5879" y1="-283.8315" x2="293.5879" y2="-259.6934" gradientTransform="matrix(1 0 0 -1 -237.5996 -239.9004)">
		<stop  offset="0" style="stop-color:#FFFFFF;stop-opacity:0"/>
		<stop  offset="1" style="stop-color:#FFFFFF;stop-opacity:0.8"/>
	</linearGradient>
	<path fill="url(#SVGID_12_)" d="M50.739,19.793c0,0-7.718,9.604-9.793,12.125c19.156-2.101,30.083,12.013,30.083,12.013
		L52.02,19.812L50.739,19.793L50.739,19.793z"/>
</g>
<g id="red">
	<polygon fill="#7B7B7B" points="51.454,88.693 51.454,72.158 99.408,72.158 99.408,88.693 	"/>
	
		<linearGradient id="SVGID_13_" gradientUnits="userSpaceOnUse" x1="291.0547" y1="-320.3262" x2="337.0078" y2="-320.3262" gradientTransform="matrix(1 0 0 -1 -237.5996 -239.9004)">
		<stop  offset="0.22" style="stop-color:#AAAAAA"/>
		<stop  offset="0.5488" style="stop-color:#CACACA"/>
		<stop  offset="0.84" style="stop-color:#EAEAEA"/>
	</linearGradient>
	<path fill="url(#SVGID_13_)" d="M53.454,86.693c0-2.668,0-9.869,0-12.535c3.514,0,42.438,0,45.953,0c0,2.666,0,9.867,0,12.535
		C95.895,86.693,56.968,86.693,53.454,86.693"/>
	<path fill-opacity="0.1" d="M44.013,106.798c-1.658,0-3-1.342-3-2.999c0,0,0-39.675,0-44.947c-3.794,0-11.64,0-11.791,0
		c-0.221,0.029-0.443,0.045-0.665,0.045c-2.814,0-5.104-2.292-5.104-5.104c0-1.462,0.631-2.851,1.712-3.813
		c0.434-0.582,23.75-31.835,23.991-32.157c0.915-1.562,2.574-2.519,4.401-2.519c1.786,0,3.419,0.92,4.345,2.426
		c0.107,0.144,23.286,31.586,23.752,32.221c1.103,0.962,1.744,2.359,1.744,3.842c0,2.814-2.289,5.104-5.104,5.104
		c-0.218,0-0.438-0.016-0.658-0.045c-0.357,0-7.884,0-11.632,0c0,5.272,0,44.947,0,44.947c0,1.657-1.342,2.999-2.999,2.999H44.013"
		/>
	<path fill="#940202" d="M42.013,104.798c-1.658,0-3-1.342-3-2.999c0,0,0-39.675,0-44.947c-3.794,0-11.64,0-11.791,0
		c-0.221,0.029-0.443,0.043-0.665,0.043c-2.814,0-5.104-2.291-5.104-5.104c0-1.462,0.631-2.851,1.712-3.813
		c0.434-0.582,23.75-31.835,23.991-32.157c0.915-1.562,2.574-2.519,4.401-2.519c1.786,0,3.419,0.92,4.345,2.426
		c0.107,0.144,23.286,31.586,23.752,32.221c1.103,0.962,1.744,2.359,1.744,3.842c0,2.814-2.289,5.104-5.104,5.104
		c-0.218,0-0.438-0.015-0.658-0.043c-0.357,0-7.884,0-11.632,0c0,5.272,0,44.947,0,44.947c0,1.657-1.342,2.999-2.999,2.999H42.013"
		/>
	<g>
		
			<linearGradient id="SVGID_14_" gradientUnits="userSpaceOnUse" x1="289.0273" y1="-341.6987" x2="289.0273" y2="-256.2026" gradientTransform="matrix(1 0 0 -1 -237.5996 -239.9004)">
			<stop  offset="0" style="stop-color:#FF0000"/>
			<stop  offset="0.1758" style="stop-color:#F60303"/>
			<stop  offset="0.4969" style="stop-color:#EC0404"/>
			<stop  offset="0.782" style="stop-color:#E30101"/>
			<stop  offset="1" style="stop-color:#D60202"/>
		</linearGradient>
		<path fill="url(#SVGID_14_)" d="M75.889,53.853H27.126l-2.272-3.12l24.957-33.454l3.623,0.157L77.95,50.688L75.889,53.853
			L75.889,53.853z M42.013,101.799V53.555h18.994v48.244H42.013L42.013,101.799z M26.558,53.896c-1.163,0-2.104-0.941-2.104-2.104
			c0-1.161,0.942-2.103,2.104-2.103c1.161,0,2.103,0.941,2.103,2.103S27.719,53.896,26.558,53.896L26.558,53.896z M76.296,53.896
			c-1.161,0-2.103-0.941-2.103-2.104c0-1.161,0.94-2.103,2.103-2.103c1.163,0,2.104,0.941,2.104,2.103S77.459,53.896,76.296,53.896
			L76.296,53.896z M51.558,20.509c-1.163,0-2.104-0.941-2.104-2.104c0-1.161,0.942-2.103,2.104-2.103
			c1.161,0,2.103,0.941,2.103,2.103C53.661,19.567,52.719,20.509,51.558,20.509L51.558,20.509z"/>
	</g>
	
		<linearGradient id="SVGID_15_" gradientUnits="userSpaceOnUse" x1="293.5879" y1="-283.8315" x2="293.5879" y2="-259.6934" gradientTransform="matrix(1 0 0 -1 -237.5996 -239.9004)">
		<stop  offset="0" style="stop-color:#FFFFFF;stop-opacity:0"/>
		<stop  offset="1" style="stop-color:#FFFFFF;stop-opacity:0.8"/>
	</linearGradient>
	<path fill="url(#SVGID_15_)" d="M50.739,19.793c0,0-7.718,9.604-9.793,12.125c19.156-2.101,30.083,12.013,30.083,12.013
		L52.02,19.812L50.739,19.793L50.739,19.793z"/>
</g>
</svg>
