<?xml version="1.0" encoding="utf-8"?>
<!-- Generator: Adobe Illustrator 16.0.2, SVG Export Plug-In . SVG Version: 6.00 Build 0)  -->
<!DOCTYPE svg PUBLIC "-//W3C//DTD SVG 1.1//EN" "http://www.w3.org/Graphics/SVG/1.1/DTD/svg11.dtd">
<svg version="1.1" id="Layer_1" xmlns="http://www.w3.org/2000/svg" xmlns:xlink="http://www.w3.org/1999/xlink" x="0px" y="0px"
	 width="120px" height="120px" viewBox="0 0 120 120" enable-background="new 0 0 120 120" xml:space="preserve">
<g id="black_white">
	<path fill="#3A3A3A" d="M54.979,70.785l-0.33-56.37l61.057,26.744L54.979,70.785L54.979,70.785z M43.885,106.325v-92.65h7.245
		v92.65H43.885L43.885,106.325z M23.024,99.07v6.945L4.294,92.123l18.73-13.889v6.943h11.365V99.07H23.024L23.024,99.07z"/>
</g>
<g id="blue">
	
		<radialGradient id="SVGID_1_" cx="218.3018" cy="-2463.7383" r="11.9304" gradientTransform="matrix(1.3753 0 0 -0.1457 -273.2091 -266.0768)" gradientUnits="userSpaceOnUse">
		<stop  offset="0" style="stop-color:#000000;stop-opacity:0.42"/>
		<stop  offset="0.3095" style="stop-color:#020202;stop-opacity:0.29"/>
		<stop  offset="0.462" style="stop-color:#0A0A0A;stop-opacity:0.226"/>
		<stop  offset="0.5803" style="stop-color:#171717;stop-opacity:0.1763"/>
		<stop  offset="0.6808" style="stop-color:#2A2A2A;stop-opacity:0.1341"/>
		<stop  offset="0.7701" style="stop-color:#424242;stop-opacity:0.0965"/>
		<stop  offset="0.8516" style="stop-color:#606060;stop-opacity:0.0623"/>
		<stop  offset="0.9258" style="stop-color:#838383;stop-opacity:0.0312"/>
		<stop  offset="0.9946" style="stop-color:#ABABAB;stop-opacity:0.0022"/>
		<stop  offset="1" style="stop-color:#AEAEAE;stop-opacity:0"/>
	</radialGradient>
	<path fill="url(#SVGID_1_)" fill-opacity="0.5" d="M27.02,89.7C14.307,89.7,4,91.129,4,92.891c0,1.76,10.307,3.188,23.02,3.188
		c12.714,0,23.021-1.429,23.021-3.188C50.041,91.13,39.733,89.7,27.02,89.7L27.02,89.7z"/>
	
		<radialGradient id="SVGID_2_" cx="269.6006" cy="-1222.4912" r="4.8708" gradientTransform="matrix(1 0 0 -0.29 -237.5996 -261.6329)" gradientUnits="userSpaceOnUse">
		<stop  offset="0.6962" style="stop-color:#000000;stop-opacity:0.14"/>
		<stop  offset="0.8155" style="stop-color:#424242;stop-opacity:0.085"/>
		<stop  offset="1" style="stop-color:#AEAEAE;stop-opacity:0"/>
	</radialGradient>
	<path fill="url(#SVGID_2_)" d="M31.999,90.7c-3.607,0-6.531,0.979-6.531,2.188s2.924,2.189,6.531,2.189
		c3.609,0,6.533-0.98,6.533-2.189S35.608,90.7,31.999,90.7L31.999,90.7z"/>
	<path fill="#00598C" d="M30.307,92.791L6.236,73.564C5.761,73.186,5.483,72.609,5.483,72c0-0.009,0-0.021,0-0.029
		c0.01-0.619,0.306-1.197,0.802-1.57l24.071-18.02c0.353-0.264,0.773-0.399,1.198-0.399c0.306,0,0.612,0.07,0.895,0.211
		c0.677,0.339,1.105,1.031,1.105,1.789c0,0,0,5.861,0,8.48c2.68,0,9.017,0,9.017,0c1.105,0,2,0.896,2,2v15.994
		c0,1.104-0.896,2.001-2,2.001c0,0-6.337,0-9.017,0c0,2.65,0,8.771,0,8.771c0,0.769-0.44,1.469-1.134,1.801
		c-0.275,0.134-0.572,0.199-0.866,0.199C31.109,93.229,30.669,93.08,30.307,92.791"/>
	<g>
		
			<linearGradient id="SVGID_3_" gradientUnits="userSpaceOnUse" x1="262.627" y1="-331.1284" x2="262.627" y2="-293.8823" gradientTransform="matrix(1 0 0 -1 -237.5996 -239.9004)">
			<stop  offset="0" style="stop-color:#48A2FB"/>
			<stop  offset="0.1758" style="stop-color:#059CF4"/>
			<stop  offset="0.4969" style="stop-color:#0398EF"/>
			<stop  offset="0.782" style="stop-color:#0293E7"/>
			<stop  offset="1" style="stop-color:#0189D8"/>
		</linearGradient>
		<polygon fill="url(#SVGID_3_)" points="31.555,91.229 7.484,72.002 31.555,53.982 31.555,64.462 42.571,64.462 42.571,80.456 
			31.555,80.456 		"/>
	</g>
	
		<linearGradient id="SVGID_4_" gradientUnits="userSpaceOnUse" x1="263.2627" y1="-312.939" x2="263.2627" y2="-296.8765" gradientTransform="matrix(1 0 0 -1 -237.5996 -239.9004)">
		<stop  offset="0" style="stop-color:#FFFFFF;stop-opacity:0"/>
		<stop  offset="1" style="stop-color:#FFFFFF;stop-opacity:0.8"/>
	</linearGradient>
	<path fill="url(#SVGID_4_)" d="M28.228,71.374c-1.729-0.669-3.927-0.994-6.713-0.994c-2.897,0-6.347,0.36-10.269,1.067
		c-0.169-0.137-0.263-0.209-0.493-0.395c2.957-2.213,14.47-10.833,18.802-14.077c0,3.061,0,6.486,0,6.486c0,1.104,0.895,2,2,2
		c0,0,6.337,0,9.017,0c0,2.181,0,5.45,0,7.449c-0.998,0.085-1.973,0.128-2.917,0.128C34.215,73.04,31.132,72.495,28.228,71.374"/>
	
		<linearGradient id="SVGID_5_" gradientUnits="userSpaceOnUse" x1="288.3926" y1="-326.4731" x2="339.0703" y2="-326.4731" gradientTransform="matrix(1 0 0 -1 -237.5996 -239.9004)">
		<stop  offset="0.1654" style="stop-color:#000000;stop-opacity:0.6"/>
		<stop  offset="0.7805" style="stop-color:#000000;stop-opacity:0"/>
	</linearGradient>
	<path fill="url(#SVGID_5_)" d="M101.188,88.186c-0.146,0.965-0.084,1.391-0.274,1.547c-0.024,0.021-0.052,0.033-0.079,0.041
		c-0.014,0.002-0.027,0.004-0.044,0.006c-0.017,0-0.031-0.002-0.049-0.004c-0.067-0.01-0.144-0.045-0.236-0.104
		c-0.185-0.12-0.427,0.091-0.88,0.035c-20.238-1.562-33.887-1.999-46.945-2.13c-0.955,0.131-1.542-0.666-1.794-1.702
		c-0.061-0.261-0.094-0.508-0.094-0.737c0-0.229,0.035-0.438,0.109-0.619c0.074-0.182,0.188-0.334,0.346-0.447
		c0.079-0.059,0.17-0.104,0.271-0.143c0.051-0.018,0.105-0.031,0.162-0.045c0.058-0.013,0.117-0.021,0.181-0.027
		c13.755-0.685,24.265-0.969,48.53,1.336c0.368,0.259,0.623-0.06,0.791,0.182c0.086,0.122,0.147,0.242,0.192,0.367
		c0.022,0.063,0.04,0.125,0.056,0.189c0.014,0.063,0.023,0.127,0.031,0.194C101.514,86.656,101.344,87.284,101.188,88.186
		L101.188,88.186L101.188,88.186L101.188,88.186z"/>
	
		<linearGradient id="SVGID_6_" gradientUnits="userSpaceOnUse" x1="301.7305" y1="-288.6309" x2="274.6798" y2="-304.2485" gradientTransform="matrix(1 0 0 -1 -237.5996 -239.9004)">
		<stop  offset="0" style="stop-color:#3B3B3B"/>
		<stop  offset="0.1001" style="stop-color:#4A4A4A"/>
		<stop  offset="0.5229" style="stop-color:#858585"/>
		<stop  offset="0.8349" style="stop-color:#AAAAAA"/>
		<stop  offset="1" style="stop-color:#B8B8B8"/>
	</linearGradient>
	<path fill="url(#SVGID_6_)" d="M53.154,87.54H53.14c-0.013,0-0.027,0-0.038-0.002c-2.536-0.062-4.239-1.595-4.239-3.819v-0.055
		c0-0.016,0-0.03,0.001-0.046c0.091-3.961,0.179-8.187,0.179-12.454c0-11.894-0.618-25.925-5.205-39.816
		c-0.187-0.518-0.426-1.273-0.426-2.061c0-1.486,0.903-3.168,3.437-3.427c0.009-0.002,0.013-0.002,0.013-0.002H46.86
		c-0.003,0-0.01,0-0.01,0s0,0,0.001,0c0.002,0,0.006,0,0.011,0l0.542-0.027c2.878,0,5.282,2.199,5.766,4.282
		c1.747,6.241,2.95,12.804,3.677,20.054c0.596,5.943,0.873,12.313,0.873,20.048c0,4.574-0.1,9.229-0.2,13.604
		c-0.051,2.228-1.767,3.724-4.268,3.724L53.154,87.54"/>
	
		<linearGradient id="SVGID_7_" gradientUnits="userSpaceOnUse" x1="283.0127" y1="-296.5859" x2="293.3193" y2="-296.5859" gradientTransform="matrix(1 0 0 -1 -237.5996 -239.9004)">
		<stop  offset="0" style="stop-color:#B8B8B8"/>
		<stop  offset="0.304" style="stop-color:#B6B6B6;stop-opacity:0.8541"/>
		<stop  offset="0.4738" style="stop-color:#AEAEAE;stop-opacity:0.7726"/>
		<stop  offset="0.6106" style="stop-color:#A0A0A0;stop-opacity:0.7069"/>
		<stop  offset="0.7297" style="stop-color:#8C8C8C;stop-opacity:0.6497"/>
		<stop  offset="0.8374" style="stop-color:#737373;stop-opacity:0.598"/>
		<stop  offset="0.9354" style="stop-color:#545454;stop-opacity:0.551"/>
		<stop  offset="1" style="stop-color:#3B3B3B;stop-opacity:0.52"/>
	</linearGradient>
	<path fill="url(#SVGID_7_)" d="M47.054,27.848c2.055-0.209,3.911,1.48,4.177,2.753c4.94,17.619,4.702,35.392,4.29,53.172
		c-0.03,1.285-1.085,1.795-2.372,1.767c-1.288-0.031-2.317-0.59-2.287-1.876c0.41-17.779,0.622-35.547-5.129-52.957
		C45.286,29.49,44.998,28.058,47.054,27.848L47.054,27.848L47.054,27.848z"/>
	<path fill="#4E4E4E" d="M47.187,30.07c0,0,2.018-0.381,3.533-0.506c0.261,0.348,0.442,0.707,0.511,1.038
		c0.993,3.543,1.77,7.09,2.384,10.644C50.854,35.763,47.187,30.07,47.187,30.07L47.187,30.07z M55.646,63.754
		c0.08,3.346,0.09,6.691,0.056,10.039c-1.544-4.227-3.146-8.247-3.146-8.247L55.646,63.754L55.646,63.754z"/>
	
		<linearGradient id="SVGID_8_" gradientUnits="userSpaceOnUse" x1="285.1426" y1="-285.0815" x2="354.543" y2="-285.0815" gradientTransform="matrix(1 0 0 -1 -237.5996 -239.9004)">
		<stop  offset="0" style="stop-color:#FFFEBF"/>
		<stop  offset="0.1137" style="stop-color:#FFFDB9"/>
		<stop  offset="0.2626" style="stop-color:#FFFCA9"/>
		<stop  offset="0.4311" style="stop-color:#FFF98E"/>
		<stop  offset="0.6139" style="stop-color:#FFF568"/>
		<stop  offset="0.807" style="stop-color:#FFF038"/>
		<stop  offset="1" style="stop-color:#FFEA00"/>
	</linearGradient>
	<path fill="url(#SVGID_8_)" d="M52.97,64.938l0.048-0.498c0-0.004,0-0.006,0-0.008c0.2-1.123,0.437-2.332,0.686-3.615
		c0.91-4.663,2.04-10.466,2.04-15.624c0-3.384-0.493-6.165-1.467-8.262c-1.068-2.306-2.726-3.866-5.064-4.77
		c-0.573-0.179-0.937-0.495-1.14-0.733l0.019,0.021c-0.237-0.267-0.402-0.589-0.487-0.934c-0.001-0.011-0.063-0.517-0.063-0.517
		s0.086-0.61,0.086-0.613v-0.002c0-0.001,0.001-0.004,0.001-0.006c0.002-0.005,0.003-0.011,0.006-0.019
		c0.21-0.698,0.728-1.264,1.538-1.682l-0.014,0.008c5.917-3.114,12.06-4.691,18.257-4.691c0.975,0,1.952,0.04,2.908,0.118h-0.014
		c4.873,0.367,9.162,1.363,13.31,2.329c1.086,0.251,2.11,0.49,3.136,0.716c0.037,0.008,0.542,0.109,0.542,0.109
		c4.388,0.889,8.531,1.728,12.507,1.728c4.898,0,9.254-1.31,13.707-4.122c0.454-0.296,0.897-0.44,1.354-0.44
		c1.116,0,2.008,0.846,2.075,1.967c0.002,0.038,0.002,0.078,0.002,0.117v0.013c0,0.521-0.174,1.032-0.58,1.706
		c-2.37,3.892-3.426,7.284-3.426,11.005c0,2.082,0.319,4.034,0.66,6.102c0,0,0.133,0.814,0.137,0.846
		c0.017,0.08,0.346,1.723,0.346,1.723c0.514,2.545,1.001,4.951,1.001,7.388c0,2.591-0.572,4.878-1.749,6.992
		c-0.002,0.005-0.005,0.01-0.01,0.015c-0.363,0.645-1.092,1.369-1.77,1.764c-0.005,0.002-0.01,0.007-0.014,0.01
		c-2.145,1.222-4.348,2.115-6.549,2.658c-1.041,0.255-2.109,0.439-3.178,0.551c-0.521,0.055-1.047,0.092-1.566,0.111l-0.76,0.019
		c-0.016,0-0.012,0-0.026,0h-0.178l-0.57-0.005c-3.159-0.064-6.196-0.818-9.132-1.547c-0.826-0.205-1.68-0.416-2.523-0.61
		c-3.064-0.696-6.072-1.034-9.19-1.034c-7.021,0-13.284,1.729-19.917,3.559l-1.767,0.488c-0.009,0-0.016,0.002-0.025,0.006
		c-0.245,0.063-0.492,0.096-0.729,0.096C54.051,67.365,52.97,66.299,52.97,64.938 M53.008,64.479L53.008,64.479L53.008,64.479
		 M47.605,30.528L47.605,30.528L47.605,30.528 M47.584,30.428c-0.001-0.006-0.001-0.008-0.001-0.008S47.583,30.423,47.584,30.428
		 M47.632,29.351C47.632,29.35,47.632,29.35,47.632,29.351C47.632,29.35,47.632,29.349,47.632,29.351"/>
	<path fill="#FFF300" d="M50.09,29.453c7.21-3.792,14.145-4.838,20.071-4.348c5.981,0.45,11.241,1.925,16.18,3.006
		c9.981,2.018,18.142,3.836,28.255-2.559c0.227-0.152,0.344-0.157,0.35-0.039c0.009,0.119-0.094,0.357-0.293,0.684
		c-5.034,8.265-3.786,13.722-2.887,19.322c1.043,5.429,2.435,10.098-0.181,14.796c-0.196,0.347-0.676,0.812-1.036,1.022
		c-2.072,1.183-4.074,1.972-6.033,2.453c-0.979,0.239-1.947,0.405-2.906,0.505c-0.479,0.051-0.959,0.083-1.435,0.102
		c-0.239,0.01-0.476,0.015-0.713,0.018c-0.237,0.002-0.476,0-0.711-0.005c-3.784-0.078-7.427-1.231-11.246-2.104
		c-12.163-2.762-21.84,0.291-31.849,3.028c-0.447,0.119-0.75-0.104-0.674-0.517c1.872-10.549,7.208-29.896-5.141-34.556
		c-0.119-0.032-0.202-0.079-0.25-0.135c-0.024-0.027-0.039-0.058-0.045-0.089c-0.006-0.034-0.005-0.067,0.006-0.104
		C49.596,29.788,49.776,29.615,50.09,29.453L50.09,29.453L50.09,29.453L50.09,29.453L50.09,29.453L50.09,29.453z"/>
	
		<linearGradient id="SVGID_9_" gradientUnits="userSpaceOnUse" x1="303.8789" y1="-258.126" x2="337.5761" y2="-308.0841" gradientTransform="matrix(1 0 0 -1 -237.5996 -239.9004)">
		<stop  offset="0" style="stop-color:#000000;stop-opacity:0"/>
		<stop  offset="0.4385" style="stop-color:#000000;stop-opacity:0.62"/>
		<stop  offset="0.7192" style="stop-color:#000000;stop-opacity:0.14"/>
		<stop  offset="1" style="stop-color:#000000;stop-opacity:0.62"/>
	</linearGradient>
	<path fill="url(#SVGID_9_)" fill-opacity="0.75" d="M49.661,29.453c7.212-3.792,14.146-4.838,20.069-4.348
		c5.983,0.45,11.244,1.925,16.181,3.006c9.981,2.018,18.144,3.836,28.254-2.559c0.229-0.152,0.345-0.157,0.353-0.039
		c0.008,0.119-0.095,0.357-0.295,0.684c-5.033,8.265-3.785,13.722-2.887,19.322c1.042,5.429,2.436,10.098-0.18,14.796
		c-0.195,0.347-0.676,0.812-1.036,1.022c-2.072,1.183-4.076,1.972-6.033,2.453c-0.979,0.239-1.946,0.405-2.905,0.505
		c-0.48,0.051-0.959,0.083-1.437,0.102c-0.236,0.01-0.476,0.015-0.712,0.018c-0.237,0.002-0.475,0-0.713-0.005
		c-3.783-0.078-7.426-1.231-11.243-2.104c-12.165-2.762-21.841,0.291-31.851,3.028c-0.447,0.119-0.748-0.104-0.673-0.517
		c1.871-10.549,7.207-29.896-5.142-34.556c-0.119-0.032-0.202-0.079-0.249-0.135c-0.025-0.027-0.04-0.058-0.046-0.089
		c-0.006-0.034-0.005-0.067,0.006-0.104C49.167,29.788,49.349,29.615,49.661,29.453L49.661,29.453L49.661,29.453L49.661,29.453
		L49.661,29.453L49.661,29.453z"/>
</g>
<g id="green">
	
		<radialGradient id="SVGID_10_" cx="218.3018" cy="-2463.7383" r="11.9304" gradientTransform="matrix(1.3753 0 0 -0.1457 -273.2091 -266.0768)" gradientUnits="userSpaceOnUse">
		<stop  offset="0" style="stop-color:#000000;stop-opacity:0.42"/>
		<stop  offset="0.3095" style="stop-color:#020202;stop-opacity:0.29"/>
		<stop  offset="0.462" style="stop-color:#0A0A0A;stop-opacity:0.226"/>
		<stop  offset="0.5803" style="stop-color:#171717;stop-opacity:0.1763"/>
		<stop  offset="0.6808" style="stop-color:#2A2A2A;stop-opacity:0.1341"/>
		<stop  offset="0.7701" style="stop-color:#424242;stop-opacity:0.0965"/>
		<stop  offset="0.8516" style="stop-color:#606060;stop-opacity:0.0623"/>
		<stop  offset="0.9258" style="stop-color:#838383;stop-opacity:0.0312"/>
		<stop  offset="0.9946" style="stop-color:#ABABAB;stop-opacity:0.0022"/>
		<stop  offset="1" style="stop-color:#AEAEAE;stop-opacity:0"/>
	</radialGradient>
	<path fill="url(#SVGID_10_)" fill-opacity="0.5" d="M27.02,89.7C14.307,89.7,4,91.129,4,92.891c0,1.76,10.307,3.188,23.02,3.188
		c12.714,0,23.021-1.429,23.021-3.188C50.041,91.13,39.733,89.7,27.02,89.7L27.02,89.7z"/>
	
		<radialGradient id="SVGID_11_" cx="269.6006" cy="-1222.4912" r="4.8708" gradientTransform="matrix(1 0 0 -0.29 -237.5996 -261.6329)" gradientUnits="userSpaceOnUse">
		<stop  offset="0.6962" style="stop-color:#000000;stop-opacity:0.14"/>
		<stop  offset="0.8155" style="stop-color:#424242;stop-opacity:0.085"/>
		<stop  offset="1" style="stop-color:#AEAEAE;stop-opacity:0"/>
	</radialGradient>
	<path fill="url(#SVGID_11_)" d="M31.999,90.7c-3.607,0-6.531,0.979-6.531,2.188s2.924,2.189,6.531,2.189
		c3.609,0,6.533-0.98,6.533-2.189S35.608,90.7,31.999,90.7L31.999,90.7z"/>
	<path fill="#015911" d="M30.307,92.791L6.236,73.564C5.761,73.186,5.483,72.609,5.483,72c0-0.009,0-0.021,0-0.029
		c0.01-0.619,0.306-1.197,0.802-1.57l24.071-18.02c0.353-0.264,0.773-0.399,1.198-0.399c0.306,0,0.612,0.07,0.895,0.211
		c0.677,0.339,1.105,1.031,1.105,1.789c0,0,0,5.861,0,8.48c2.68,0,9.017,0,9.017,0c1.105,0,2,0.896,2,2v15.994
		c0,1.104-0.896,2.001-2,2.001c0,0-6.337,0-9.017,0c0,2.65,0,8.771,0,8.771c0,0.769-0.44,1.469-1.134,1.801
		c-0.275,0.134-0.572,0.199-0.866,0.199C31.109,93.229,30.669,93.08,30.307,92.791"/>
	<g>
		
			<linearGradient id="SVGID_12_" gradientUnits="userSpaceOnUse" x1="262.627" y1="-331.1284" x2="262.627" y2="-293.8823" gradientTransform="matrix(1 0 0 -1 -237.5996 -239.9004)">
			<stop  offset="0" style="stop-color:#00DF34"/>
			<stop  offset="0.1758" style="stop-color:#00CD26"/>
			<stop  offset="0.4969" style="stop-color:#00B211"/>
			<stop  offset="0.782" style="stop-color:#00A204"/>
			<stop  offset="1" style="stop-color:#009C00"/>
		</linearGradient>
		<polygon fill="url(#SVGID_12_)" points="31.555,91.229 7.484,72.002 31.555,53.982 31.555,64.462 42.571,64.462 42.571,80.456 
			31.555,80.456 		"/>
	</g>
	
		<linearGradient id="SVGID_13_" gradientUnits="userSpaceOnUse" x1="263.2627" y1="-312.939" x2="263.2627" y2="-296.8765" gradientTransform="matrix(1 0 0 -1 -237.5996 -239.9004)">
		<stop  offset="0" style="stop-color:#FFFFFF;stop-opacity:0"/>
		<stop  offset="1" style="stop-color:#FFFFFF;stop-opacity:0.8"/>
	</linearGradient>
	<path fill="url(#SVGID_13_)" d="M28.228,71.374c-1.729-0.669-3.927-0.994-6.713-0.994c-2.897,0-6.347,0.36-10.269,1.067
		c-0.169-0.137-0.263-0.209-0.493-0.395c2.957-2.213,14.47-10.833,18.802-14.077c0,3.061,0,6.486,0,6.486c0,1.104,0.895,2,2,2
		c0,0,6.337,0,9.017,0c0,2.181,0,5.45,0,7.449c-0.998,0.085-1.973,0.128-2.917,0.128C34.215,73.04,31.132,72.495,28.228,71.374"/>
	
		<linearGradient id="SVGID_14_" gradientUnits="userSpaceOnUse" x1="288.3926" y1="-326.4731" x2="339.0703" y2="-326.4731" gradientTransform="matrix(1 0 0 -1 -237.5996 -239.9004)">
		<stop  offset="0.1654" style="stop-color:#000000;stop-opacity:0.6"/>
		<stop  offset="0.7805" style="stop-color:#000000;stop-opacity:0"/>
	</linearGradient>
	<path fill="url(#SVGID_14_)" d="M101.188,88.186c-0.146,0.965-0.084,1.391-0.274,1.547c-0.024,0.021-0.052,0.033-0.079,0.041
		c-0.014,0.002-0.027,0.004-0.044,0.006c-0.017,0-0.031-0.002-0.049-0.004c-0.067-0.01-0.144-0.045-0.236-0.104
		c-0.185-0.12-0.427,0.091-0.88,0.035c-20.238-1.562-33.887-1.999-46.945-2.13c-0.955,0.131-1.542-0.666-1.794-1.702
		c-0.061-0.261-0.094-0.508-0.094-0.737c0-0.229,0.035-0.438,0.109-0.619c0.074-0.182,0.188-0.334,0.346-0.447
		c0.079-0.059,0.17-0.104,0.271-0.143c0.051-0.018,0.105-0.031,0.162-0.045c0.058-0.013,0.117-0.021,0.181-0.027
		c13.755-0.685,24.265-0.969,48.53,1.336c0.368,0.259,0.623-0.06,0.791,0.182c0.086,0.122,0.147,0.242,0.192,0.367
		c0.022,0.063,0.04,0.125,0.056,0.189c0.014,0.063,0.023,0.127,0.031,0.194C101.514,86.656,101.344,87.284,101.188,88.186
		L101.188,88.186L101.188,88.186L101.188,88.186z"/>
	
		<linearGradient id="SVGID_15_" gradientUnits="userSpaceOnUse" x1="301.7305" y1="-288.6309" x2="274.6798" y2="-304.2485" gradientTransform="matrix(1 0 0 -1 -237.5996 -239.9004)">
		<stop  offset="0" style="stop-color:#3B3B3B"/>
		<stop  offset="0.1001" style="stop-color:#4A4A4A"/>
		<stop  offset="0.5229" style="stop-color:#858585"/>
		<stop  offset="0.8349" style="stop-color:#AAAAAA"/>
		<stop  offset="1" style="stop-color:#B8B8B8"/>
	</linearGradient>
	<path fill="url(#SVGID_15_)" d="M53.154,87.54H53.14c-0.013,0-0.027,0-0.038-0.002c-2.536-0.062-4.239-1.595-4.239-3.819v-0.055
		c0-0.016,0-0.03,0.001-0.046c0.091-3.961,0.179-8.187,0.179-12.454c0-11.894-0.618-25.925-5.205-39.816
		c-0.187-0.518-0.426-1.273-0.426-2.061c0-1.486,0.903-3.168,3.437-3.427c0.009-0.002,0.013-0.002,0.013-0.002H46.86
		c-0.003,0-0.01,0-0.01,0s0,0,0.001,0c0.002,0,0.006,0,0.011,0l0.542-0.027c2.878,0,5.282,2.199,5.766,4.282
		c1.747,6.241,2.95,12.804,3.677,20.054c0.596,5.943,0.873,12.313,0.873,20.048c0,4.574-0.1,9.229-0.2,13.604
		c-0.051,2.228-1.767,3.724-4.268,3.724L53.154,87.54"/>
	
		<linearGradient id="SVGID_16_" gradientUnits="userSpaceOnUse" x1="283.0127" y1="-296.5859" x2="293.3193" y2="-296.5859" gradientTransform="matrix(1 0 0 -1 -237.5996 -239.9004)">
		<stop  offset="0" style="stop-color:#B8B8B8"/>
		<stop  offset="0.304" style="stop-color:#B6B6B6;stop-opacity:0.8541"/>
		<stop  offset="0.4738" style="stop-color:#AEAEAE;stop-opacity:0.7726"/>
		<stop  offset="0.6106" style="stop-color:#A0A0A0;stop-opacity:0.7069"/>
		<stop  offset="0.7297" style="stop-color:#8C8C8C;stop-opacity:0.6497"/>
		<stop  offset="0.8374" style="stop-color:#737373;stop-opacity:0.598"/>
		<stop  offset="0.9354" style="stop-color:#545454;stop-opacity:0.551"/>
		<stop  offset="1" style="stop-color:#3B3B3B;stop-opacity:0.52"/>
	</linearGradient>
	<path fill="url(#SVGID_16_)" d="M47.054,27.848c2.055-0.209,3.911,1.48,4.177,2.753c4.94,17.619,4.702,35.392,4.29,53.172
		c-0.03,1.285-1.085,1.795-2.372,1.767c-1.288-0.031-2.317-0.59-2.287-1.876c0.41-17.779,0.622-35.547-5.129-52.957
		C45.286,29.49,44.998,28.058,47.054,27.848L47.054,27.848L47.054,27.848z"/>
	<path fill="#4E4E4E" d="M47.187,30.07c0,0,2.018-0.381,3.533-0.506c0.261,0.348,0.442,0.707,0.511,1.038
		c0.993,3.543,1.77,7.09,2.384,10.644C50.854,35.763,47.187,30.07,47.187,30.07L47.187,30.07z M55.646,63.754
		c0.08,3.346,0.09,6.691,0.056,10.039c-1.544-4.227-3.146-8.247-3.146-8.247L55.646,63.754L55.646,63.754z"/>
	
		<linearGradient id="SVGID_17_" gradientUnits="userSpaceOnUse" x1="285.1426" y1="-285.0815" x2="354.543" y2="-285.0815" gradientTransform="matrix(1 0 0 -1 -237.5996 -239.9004)">
		<stop  offset="0" style="stop-color:#FFFEBF"/>
		<stop  offset="0.1137" style="stop-color:#FFFDB9"/>
		<stop  offset="0.2626" style="stop-color:#FFFCA9"/>
		<stop  offset="0.4311" style="stop-color:#FFF98E"/>
		<stop  offset="0.6139" style="stop-color:#FFF568"/>
		<stop  offset="0.807" style="stop-color:#FFF038"/>
		<stop  offset="1" style="stop-color:#FFEA00"/>
	</linearGradient>
	<path fill="url(#SVGID_17_)" d="M52.97,64.938l0.048-0.498c0-0.004,0-0.006,0-0.008c0.2-1.123,0.437-2.332,0.686-3.615
		c0.91-4.663,2.04-10.466,2.04-15.624c0-3.384-0.493-6.165-1.467-8.262c-1.068-2.306-2.726-3.866-5.064-4.77
		c-0.573-0.179-0.937-0.495-1.14-0.733l0.019,0.021c-0.237-0.267-0.402-0.589-0.487-0.934c-0.001-0.011-0.063-0.517-0.063-0.517
		s0.086-0.61,0.086-0.613v-0.002c0-0.001,0.001-0.004,0.001-0.006c0.002-0.005,0.003-0.011,0.006-0.019
		c0.21-0.698,0.728-1.264,1.538-1.682l-0.014,0.008c5.917-3.114,12.06-4.691,18.257-4.691c0.975,0,1.952,0.04,2.908,0.118h-0.014
		c4.873,0.367,9.162,1.363,13.31,2.329c1.086,0.251,2.11,0.49,3.136,0.716c0.037,0.008,0.542,0.109,0.542,0.109
		c4.388,0.889,8.531,1.728,12.507,1.728c4.898,0,9.254-1.31,13.707-4.122c0.454-0.296,0.897-0.44,1.354-0.44
		c1.116,0,2.008,0.846,2.075,1.967c0.002,0.038,0.002,0.078,0.002,0.117v0.013c0,0.521-0.174,1.032-0.58,1.706
		c-2.37,3.892-3.426,7.284-3.426,11.005c0,2.082,0.319,4.034,0.66,6.102c0,0,0.133,0.814,0.137,0.846
		c0.017,0.08,0.346,1.723,0.346,1.723c0.514,2.545,1.001,4.951,1.001,7.388c0,2.591-0.572,4.878-1.749,6.992
		c-0.002,0.005-0.005,0.01-0.01,0.015c-0.363,0.645-1.092,1.369-1.77,1.764c-0.005,0.002-0.01,0.007-0.014,0.01
		c-2.145,1.222-4.348,2.115-6.549,2.658c-1.041,0.255-2.109,0.439-3.178,0.551c-0.521,0.055-1.047,0.092-1.566,0.111l-0.76,0.019
		c-0.016,0-0.012,0-0.026,0h-0.178l-0.57-0.005c-3.159-0.064-6.196-0.818-9.132-1.547c-0.826-0.205-1.68-0.416-2.523-0.61
		c-3.064-0.696-6.072-1.034-9.19-1.034c-7.021,0-13.284,1.729-19.917,3.559l-1.767,0.488c-0.009,0-0.016,0.002-0.025,0.006
		c-0.245,0.063-0.492,0.096-0.729,0.096C54.051,67.365,52.97,66.299,52.97,64.938 M53.008,64.479L53.008,64.479L53.008,64.479
		 M47.605,30.528L47.605,30.528L47.605,30.528 M47.584,30.428c-0.001-0.006-0.001-0.008-0.001-0.008S47.583,30.423,47.584,30.428
		 M47.632,29.351C47.632,29.35,47.632,29.35,47.632,29.351C47.632,29.35,47.632,29.349,47.632,29.351"/>
	<path fill="#FFF300" d="M50.09,29.453c7.21-3.792,14.145-4.838,20.071-4.348c5.981,0.45,11.241,1.925,16.18,3.006
		c9.981,2.018,18.142,3.836,28.255-2.559c0.227-0.152,0.344-0.157,0.35-0.039c0.009,0.119-0.094,0.357-0.293,0.684
		c-5.034,8.265-3.786,13.722-2.887,19.322c1.043,5.429,2.435,10.098-0.181,14.796c-0.196,0.347-0.676,0.812-1.036,1.022
		c-2.072,1.183-4.074,1.972-6.033,2.453c-0.979,0.239-1.947,0.405-2.906,0.505c-0.479,0.051-0.959,0.083-1.435,0.102
		c-0.239,0.01-0.476,0.015-0.713,0.018c-0.237,0.002-0.476,0-0.711-0.005c-3.784-0.078-7.427-1.231-11.246-2.104
		c-12.163-2.762-21.84,0.291-31.849,3.028c-0.447,0.119-0.75-0.104-0.674-0.517c1.872-10.549,7.208-29.896-5.141-34.556
		c-0.119-0.032-0.202-0.079-0.25-0.135c-0.024-0.027-0.039-0.058-0.045-0.089c-0.006-0.034-0.005-0.067,0.006-0.104
		C49.596,29.788,49.776,29.615,50.09,29.453L50.09,29.453L50.09,29.453L50.09,29.453L50.09,29.453L50.09,29.453z"/>
	
		<linearGradient id="SVGID_18_" gradientUnits="userSpaceOnUse" x1="303.8789" y1="-258.126" x2="337.5761" y2="-308.0841" gradientTransform="matrix(1 0 0 -1 -237.5996 -239.9004)">
		<stop  offset="0" style="stop-color:#000000;stop-opacity:0"/>
		<stop  offset="0.4385" style="stop-color:#000000;stop-opacity:0.62"/>
		<stop  offset="0.7192" style="stop-color:#000000;stop-opacity:0.14"/>
		<stop  offset="1" style="stop-color:#000000;stop-opacity:0.62"/>
	</linearGradient>
	<path fill="url(#SVGID_18_)" fill-opacity="0.75" d="M49.661,29.453c7.212-3.792,14.146-4.838,20.069-4.348
		c5.983,0.45,11.244,1.925,16.181,3.006c9.981,2.018,18.144,3.836,28.254-2.559c0.229-0.152,0.345-0.157,0.353-0.039
		c0.008,0.119-0.095,0.357-0.295,0.684c-5.033,8.265-3.785,13.722-2.887,19.322c1.042,5.429,2.436,10.098-0.18,14.796
		c-0.195,0.347-0.676,0.812-1.036,1.022c-2.072,1.183-4.076,1.972-6.033,2.453c-0.979,0.239-1.946,0.405-2.905,0.505
		c-0.48,0.051-0.959,0.083-1.437,0.102c-0.236,0.01-0.476,0.015-0.712,0.018c-0.237,0.002-0.475,0-0.713-0.005
		c-3.783-0.078-7.426-1.231-11.243-2.104c-12.165-2.762-21.841,0.291-31.851,3.028c-0.447,0.119-0.748-0.104-0.673-0.517
		c1.871-10.549,7.207-29.896-5.142-34.556c-0.119-0.032-0.202-0.079-0.249-0.135c-0.025-0.027-0.04-0.058-0.046-0.089
		c-0.006-0.034-0.005-0.067,0.006-0.104C49.167,29.788,49.349,29.615,49.661,29.453L49.661,29.453L49.661,29.453L49.661,29.453
		L49.661,29.453L49.661,29.453z"/>
</g>
<g id="kia">
	
		<radialGradient id="SVGID_19_" cx="218.3018" cy="-2463.7383" r="11.9304" gradientTransform="matrix(1.3753 0 0 -0.1457 -273.2091 -266.0768)" gradientUnits="userSpaceOnUse">
		<stop  offset="0" style="stop-color:#000000;stop-opacity:0.42"/>
		<stop  offset="0.3095" style="stop-color:#020202;stop-opacity:0.29"/>
		<stop  offset="0.462" style="stop-color:#0A0A0A;stop-opacity:0.226"/>
		<stop  offset="0.5803" style="stop-color:#171717;stop-opacity:0.1763"/>
		<stop  offset="0.6808" style="stop-color:#2A2A2A;stop-opacity:0.1341"/>
		<stop  offset="0.7701" style="stop-color:#424242;stop-opacity:0.0965"/>
		<stop  offset="0.8516" style="stop-color:#606060;stop-opacity:0.0623"/>
		<stop  offset="0.9258" style="stop-color:#838383;stop-opacity:0.0312"/>
		<stop  offset="0.9946" style="stop-color:#ABABAB;stop-opacity:0.0022"/>
		<stop  offset="1" style="stop-color:#AEAEAE;stop-opacity:0"/>
	</radialGradient>
	<path fill="url(#SVGID_19_)" fill-opacity="0.5" d="M27.02,89.7C14.307,89.7,4,91.129,4,92.891c0,1.76,10.307,3.188,23.02,3.188
		c12.714,0,23.021-1.429,23.021-3.188C50.041,91.13,39.733,89.7,27.02,89.7L27.02,89.7z"/>
	
		<radialGradient id="SVGID_20_" cx="269.6006" cy="-1222.4912" r="4.8708" gradientTransform="matrix(1 0 0 -0.29 -237.5996 -261.6329)" gradientUnits="userSpaceOnUse">
		<stop  offset="0.6962" style="stop-color:#000000;stop-opacity:0.14"/>
		<stop  offset="0.8155" style="stop-color:#424242;stop-opacity:0.085"/>
		<stop  offset="1" style="stop-color:#AEAEAE;stop-opacity:0"/>
	</radialGradient>
	<path fill="url(#SVGID_20_)" d="M31.999,90.7c-3.607,0-6.531,0.979-6.531,2.188s2.924,2.189,6.531,2.189
		c3.609,0,6.533-0.98,6.533-2.189S35.608,90.7,31.999,90.7L31.999,90.7z"/>
	<path fill="#171e9e" d="M30.307,92.791L6.236,73.564C5.761,73.186,5.483,72.609,5.483,72c0-0.009,0-0.021,0-0.029
		c0.01-0.619,0.306-1.197,0.802-1.57l24.071-18.02c0.353-0.264,0.773-0.399,1.198-0.399c0.306,0,0.612,0.07,0.895,0.211
		c0.677,0.339,1.105,1.031,1.105,1.789c0,0,0,5.861,0,8.48c2.68,0,9.017,0,9.017,0c1.105,0,2,0.896,2,2v15.994
		c0,1.104-0.896,2.001-2,2.001c0,0-6.337,0-9.017,0c0,2.65,0,8.771,0,8.771c0,0.769-0.44,1.469-1.134,1.801
		c-0.275,0.134-0.572,0.199-0.866,0.199C31.109,93.229,30.669,93.08,30.307,92.791"/>
	<g>
		
			<linearGradient id="SVGID_21_" gradientUnits="userSpaceOnUse" x1="262.627" y1="-331.1284" x2="262.627" y2="-293.8823" gradientTransform="matrix(1 0 0 -1 -237.5996 -239.9004)">
			<stop  offset="0" style="stop-color:#FFFFFF"/>
			<stop  offset="0.1758" style="stop-color:#E7E9EA"/>
			<stop  offset="0.4969" style="stop-color:#CDD2D5"/>
			<stop  offset="0.782" style="stop-color:#C5CACC"/>
			<stop  offset="1" style="stop-color:#BABDC0"/>
		</linearGradient>
		<polygon fill="url(#SVGID_21_)" points="31.555,91.229 7.484,72.002 31.555,53.982 31.555,64.462 42.571,64.462 42.571,80.456 
			31.555,80.456 		"/>
	</g>
	
		<linearGradient id="SVGID_22_" gradientUnits="userSpaceOnUse" x1="263.2627" y1="-312.939" x2="263.2627" y2="-296.8765" gradientTransform="matrix(1 0 0 -1 -237.5996 -239.9004)">
		<stop  offset="0" style="stop-color:#FFFFFF;stop-opacity:0"/>
		<stop  offset="1" style="stop-color:#FFFFFF;stop-opacity:0.8"/>
	</linearGradient>
	<path fill="url(#SVGID_22_)" d="M28.228,71.374c-1.729-0.669-3.927-0.994-6.713-0.994c-2.897,0-6.347,0.36-10.269,1.067
		c-0.169-0.137-0.263-0.209-0.493-0.395c2.957-2.213,14.47-10.833,18.802-14.077c0,3.061,0,6.486,0,6.486c0,1.104,0.895,2,2,2
		c0,0,6.337,0,9.017,0c0,2.181,0,5.45,0,7.449c-0.998,0.085-1.973,0.128-2.917,0.128C34.215,73.04,31.132,72.495,28.228,71.374"/>
	
		<linearGradient id="SVGID_23_" gradientUnits="userSpaceOnUse" x1="288.3926" y1="-326.4731" x2="339.0703" y2="-326.4731" gradientTransform="matrix(1 0 0 -1 -237.5996 -239.9004)">
		<stop  offset="0.1654" style="stop-color:#000000;stop-opacity:0.6"/>
		<stop  offset="0.7805" style="stop-color:#000000;stop-opacity:0"/>
	</linearGradient>
	<path fill="url(#SVGID_23_)" d="M101.188,88.186c-0.146,0.965-0.084,1.391-0.274,1.547c-0.024,0.021-0.052,0.033-0.079,0.041
		c-0.014,0.002-0.027,0.004-0.044,0.006c-0.017,0-0.031-0.002-0.049-0.004c-0.067-0.01-0.144-0.045-0.236-0.104
		c-0.185-0.12-0.427,0.091-0.88,0.035c-20.238-1.562-33.887-1.999-46.945-2.13c-0.955,0.131-1.542-0.666-1.794-1.702
		c-0.061-0.261-0.094-0.508-0.094-0.737c0-0.229,0.035-0.438,0.109-0.619c0.074-0.182,0.188-0.334,0.346-0.447
		c0.079-0.059,0.17-0.104,0.271-0.143c0.051-0.018,0.105-0.031,0.162-0.045c0.058-0.013,0.117-0.021,0.181-0.027
		c13.755-0.685,24.265-0.969,48.53,1.336c0.368,0.259,0.623-0.06,0.791,0.182c0.086,0.122,0.147,0.242,0.192,0.367
		c0.022,0.063,0.04,0.125,0.056,0.189c0.014,0.063,0.023,0.127,0.031,0.194C101.514,86.656,101.344,87.284,101.188,88.186
		L101.188,88.186L101.188,88.186L101.188,88.186z"/>
	
		<linearGradient id="SVGID_24_" gradientUnits="userSpaceOnUse" x1="301.7305" y1="-288.6309" x2="274.6798" y2="-304.2485" gradientTransform="matrix(1 0 0 -1 -237.5996 -239.9004)">
		<stop  offset="0" style="stop-color:#3B3B3B"/>
		<stop  offset="0.1001" style="stop-color:#4A4A4A"/>
		<stop  offset="0.5229" style="stop-color:#858585"/>
		<stop  offset="0.8349" style="stop-color:#AAAAAA"/>
		<stop  offset="1" style="stop-color:#B8B8B8"/>
	</linearGradient>
	<path fill="url(#SVGID_24_)" d="M53.154,87.54H53.14c-0.013,0-0.027,0-0.038-0.002c-2.536-0.062-4.239-1.595-4.239-3.819v-0.055
		c0-0.016,0-0.03,0.001-0.046c0.091-3.961,0.179-8.187,0.179-12.454c0-11.894-0.618-25.925-5.205-39.816
		c-0.187-0.518-0.426-1.273-0.426-2.061c0-1.486,0.903-3.168,3.437-3.427c0.009-0.002,0.013-0.002,0.013-0.002H46.86
		c-0.003,0-0.01,0-0.01,0s0,0,0.001,0c0.002,0,0.006,0,0.011,0l0.542-0.027c2.878,0,5.282,2.199,5.766,4.282
		c1.747,6.241,2.95,12.804,3.677,20.054c0.596,5.943,0.873,12.313,0.873,20.048c0,4.574-0.1,9.229-0.2,13.604
		c-0.051,2.228-1.767,3.724-4.268,3.724L53.154,87.54"/>
	
		<linearGradient id="SVGID_25_" gradientUnits="userSpaceOnUse" x1="283.0127" y1="-296.5859" x2="293.3193" y2="-296.5859" gradientTransform="matrix(1 0 0 -1 -237.5996 -239.9004)">
		<stop  offset="0" style="stop-color:#B8B8B8"/>
		<stop  offset="0.304" style="stop-color:#B6B6B6;stop-opacity:0.8541"/>
		<stop  offset="0.4738" style="stop-color:#AEAEAE;stop-opacity:0.7726"/>
		<stop  offset="0.6106" style="stop-color:#A0A0A0;stop-opacity:0.7069"/>
		<stop  offset="0.7297" style="stop-color:#8C8C8C;stop-opacity:0.6497"/>
		<stop  offset="0.8374" style="stop-color:#737373;stop-opacity:0.598"/>
		<stop  offset="0.9354" style="stop-color:#545454;stop-opacity:0.551"/>
		<stop  offset="1" style="stop-color:#3B3B3B;stop-opacity:0.52"/>
	</linearGradient>
	<path fill="url(#SVGID_25_)" d="M47.054,27.848c2.055-0.209,3.911,1.48,4.177,2.753c4.94,17.619,4.702,35.392,4.29,53.172
		c-0.03,1.285-1.085,1.795-2.372,1.767c-1.288-0.031-2.317-0.59-2.287-1.876c0.41-17.779,0.622-35.547-5.129-52.957
		C45.286,29.49,44.998,28.058,47.054,27.848L47.054,27.848L47.054,27.848z"/>
	<path fill="#4E4E4E" d="M47.187,30.07c0,0,2.018-0.381,3.533-0.506c0.261,0.348,0.442,0.707,0.511,1.038
		c0.993,3.543,1.77,7.09,2.384,10.644C50.854,35.763,47.187,30.07,47.187,30.07L47.187,30.07z M55.646,63.754
		c0.08,3.346,0.09,6.691,0.056,10.039c-1.544-4.227-3.146-8.247-3.146-8.247L55.646,63.754L55.646,63.754z"/>
	
		<linearGradient id="SVGID_26_" gradientUnits="userSpaceOnUse" x1="285.1426" y1="-285.0815" x2="354.543" y2="-285.0815" gradientTransform="matrix(1 0 0 -1 -237.5996 -239.9004)">
		<stop  offset="0" style="stop-color:#FFFEBF"/>
		<stop  offset="0.1137" style="stop-color:#FFFDB9"/>
		<stop  offset="0.2626" style="stop-color:#FFFCA9"/>
		<stop  offset="0.4311" style="stop-color:#FFF98E"/>
		<stop  offset="0.6139" style="stop-color:#FFF568"/>
		<stop  offset="0.807" style="stop-color:#FFF038"/>
		<stop  offset="1" style="stop-color:#FFEA00"/>
	</linearGradient>
	<path fill="url(#SVGID_26_)" d="M52.97,64.938l0.048-0.498c0-0.004,0-0.006,0-0.008c0.2-1.123,0.437-2.332,0.686-3.615
		c0.91-4.663,2.04-10.466,2.04-15.624c0-3.384-0.493-6.165-1.467-8.262c-1.068-2.306-2.726-3.866-5.064-4.77
		c-0.573-0.179-0.937-0.495-1.14-0.733l0.019,0.021c-0.237-0.267-0.402-0.589-0.487-0.934c-0.001-0.011-0.063-0.517-0.063-0.517
		s0.086-0.61,0.086-0.613v-0.002c0-0.001,0.001-0.004,0.001-0.006c0.002-0.005,0.003-0.011,0.006-0.019
		c0.21-0.698,0.728-1.264,1.538-1.682l-0.014,0.008c5.917-3.114,12.06-4.691,18.257-4.691c0.975,0,1.952,0.04,2.908,0.118h-0.014
		c4.873,0.367,9.162,1.363,13.31,2.329c1.086,0.251,2.11,0.49,3.136,0.716c0.037,0.008,0.542,0.109,0.542,0.109
		c4.388,0.889,8.531,1.728,12.507,1.728c4.898,0,9.254-1.31,13.707-4.122c0.454-0.296,0.897-0.44,1.354-0.44
		c1.116,0,2.008,0.846,2.075,1.967c0.002,0.038,0.002,0.078,0.002,0.117v0.013c0,0.521-0.174,1.032-0.58,1.706
		c-2.37,3.892-3.426,7.284-3.426,11.005c0,2.082,0.319,4.034,0.66,6.102c0,0,0.133,0.814,0.137,0.846
		c0.017,0.08,0.346,1.723,0.346,1.723c0.514,2.545,1.001,4.951,1.001,7.388c0,2.591-0.572,4.878-1.749,6.992
		c-0.002,0.005-0.005,0.01-0.01,0.015c-0.363,0.645-1.092,1.369-1.77,1.764c-0.005,0.002-0.01,0.007-0.014,0.01
		c-2.145,1.222-4.348,2.115-6.549,2.658c-1.041,0.255-2.109,0.439-3.178,0.551c-0.521,0.055-1.047,0.092-1.566,0.111l-0.76,0.019
		c-0.016,0-0.012,0-0.026,0h-0.178l-0.57-0.005c-3.159-0.064-6.196-0.818-9.132-1.547c-0.826-0.205-1.68-0.416-2.523-0.61
		c-3.064-0.696-6.072-1.034-9.19-1.034c-7.021,0-13.284,1.729-19.917,3.559l-1.767,0.488c-0.009,0-0.016,0.002-0.025,0.006
		c-0.245,0.063-0.492,0.096-0.729,0.096C54.051,67.365,52.97,66.299,52.97,64.938 M53.008,64.479L53.008,64.479L53.008,64.479
		 M47.605,30.528L47.605,30.528L47.605,30.528 M47.584,30.428c-0.001-0.006-0.001-0.008-0.001-0.008S47.583,30.423,47.584,30.428
		 M47.632,29.351C47.632,29.35,47.632,29.35,47.632,29.351C47.632,29.35,47.632,29.349,47.632,29.351"/>
	<path fill="#FFF300" d="M50.09,29.453c7.21-3.792,14.145-4.838,20.071-4.348c5.981,0.45,11.241,1.925,16.18,3.006
		c9.981,2.018,18.142,3.836,28.255-2.559c0.227-0.152,0.344-0.157,0.35-0.039c0.009,0.119-0.094,0.357-0.293,0.684
		c-5.034,8.265-3.786,13.722-2.887,19.322c1.043,5.429,2.435,10.098-0.181,14.796c-0.196,0.347-0.676,0.812-1.036,1.022
		c-2.072,1.183-4.074,1.972-6.033,2.453c-0.979,0.239-1.947,0.405-2.906,0.505c-0.479,0.051-0.959,0.083-1.435,0.102
		c-0.239,0.01-0.476,0.015-0.713,0.018c-0.237,0.002-0.476,0-0.711-0.005c-3.784-0.078-7.427-1.231-11.246-2.104
		c-12.163-2.762-21.84,0.291-31.849,3.028c-0.447,0.119-0.75-0.104-0.674-0.517c1.872-10.549,7.208-29.896-5.141-34.556
		c-0.119-0.032-0.202-0.079-0.25-0.135c-0.024-0.027-0.039-0.058-0.045-0.089c-0.006-0.034-0.005-0.067,0.006-0.104
		C49.596,29.788,49.776,29.615,50.09,29.453L50.09,29.453L50.09,29.453L50.09,29.453L50.09,29.453L50.09,29.453z"/>
	
		<linearGradient id="SVGID_27_" gradientUnits="userSpaceOnUse" x1="303.8789" y1="-258.126" x2="337.5761" y2="-308.0841" gradientTransform="matrix(1 0 0 -1 -237.5996 -239.9004)">
		<stop  offset="0" style="stop-color:#000000;stop-opacity:0"/>
		<stop  offset="0.4385" style="stop-color:#000000;stop-opacity:0.62"/>
		<stop  offset="0.7192" style="stop-color:#000000;stop-opacity:0.14"/>
		<stop  offset="1" style="stop-color:#000000;stop-opacity:0.62"/>
	</linearGradient>
	<path fill="url(#SVGID_27_)" fill-opacity="0.75" d="M49.661,29.453c7.212-3.792,14.146-4.838,20.069-4.348
		c5.983,0.45,11.244,1.925,16.181,3.006c9.981,2.018,18.144,3.836,28.254-2.559c0.229-0.152,0.345-0.157,0.353-0.039
		c0.008,0.119-0.095,0.357-0.295,0.684c-5.033,8.265-3.785,13.722-2.887,19.322c1.042,5.429,2.436,10.098-0.18,14.796
		c-0.195,0.347-0.676,0.812-1.036,1.022c-2.072,1.183-4.076,1.972-6.033,2.453c-0.979,0.239-1.946,0.405-2.905,0.505
		c-0.48,0.051-0.959,0.083-1.437,0.102c-0.236,0.01-0.476,0.015-0.712,0.018c-0.237,0.002-0.475,0-0.713-0.005
		c-3.783-0.078-7.426-1.231-11.243-2.104c-12.165-2.762-21.841,0.291-31.851,3.028c-0.447,0.119-0.748-0.104-0.673-0.517
		c1.871-10.549,7.207-29.896-5.142-34.556c-0.119-0.032-0.202-0.079-0.249-0.135c-0.025-0.027-0.04-0.058-0.046-0.089
		c-0.006-0.034-0.005-0.067,0.006-0.104C49.167,29.788,49.349,29.615,49.661,29.453L49.661,29.453L49.661,29.453L49.661,29.453
		L49.661,29.453L49.661,29.453z"/>
</g>
<g id="orange">
	
		<radialGradient id="SVGID_28_" cx="218.3018" cy="-2463.7383" r="11.9304" gradientTransform="matrix(1.3753 0 0 -0.1457 -273.2091 -266.0768)" gradientUnits="userSpaceOnUse">
		<stop  offset="0" style="stop-color:#000000;stop-opacity:0.42"/>
		<stop  offset="0.3095" style="stop-color:#020202;stop-opacity:0.29"/>
		<stop  offset="0.462" style="stop-color:#0A0A0A;stop-opacity:0.226"/>
		<stop  offset="0.5803" style="stop-color:#171717;stop-opacity:0.1763"/>
		<stop  offset="0.6808" style="stop-color:#2A2A2A;stop-opacity:0.1341"/>
		<stop  offset="0.7701" style="stop-color:#424242;stop-opacity:0.0965"/>
		<stop  offset="0.8516" style="stop-color:#606060;stop-opacity:0.0623"/>
		<stop  offset="0.9258" style="stop-color:#838383;stop-opacity:0.0312"/>
		<stop  offset="0.9946" style="stop-color:#ABABAB;stop-opacity:0.0022"/>
		<stop  offset="1" style="stop-color:#AEAEAE;stop-opacity:0"/>
	</radialGradient>
	<path fill="url(#SVGID_28_)" fill-opacity="0.5" d="M27.02,89.7C14.307,89.7,4,91.129,4,92.891c0,1.76,10.307,3.188,23.02,3.188
		c12.714,0,23.021-1.429,23.021-3.188C50.041,91.13,39.733,89.7,27.02,89.7L27.02,89.7z"/>
	
		<radialGradient id="SVGID_29_" cx="269.6006" cy="-1222.4912" r="4.8708" gradientTransform="matrix(1 0 0 -0.29 -237.5996 -261.6329)" gradientUnits="userSpaceOnUse">
		<stop  offset="0.6962" style="stop-color:#000000;stop-opacity:0.14"/>
		<stop  offset="0.8155" style="stop-color:#424242;stop-opacity:0.085"/>
		<stop  offset="1" style="stop-color:#AEAEAE;stop-opacity:0"/>
	</radialGradient>
	<path fill="url(#SVGID_29_)" d="M31.999,90.7c-3.607,0-6.531,0.979-6.531,2.188s2.924,2.189,6.531,2.189
		c3.609,0,6.533-0.98,6.533-2.189S35.608,90.7,31.999,90.7L31.999,90.7z"/>
	<path fill="#A43C10" d="M30.307,92.791L6.236,73.564C5.761,73.186,5.483,72.609,5.483,72c0-0.009,0-0.021,0-0.029
		c0.01-0.619,0.306-1.197,0.802-1.57l24.071-18.02c0.353-0.264,0.773-0.399,1.198-0.399c0.306,0,0.612,0.07,0.895,0.211
		c0.677,0.339,1.105,1.031,1.105,1.789c0,0,0,5.861,0,8.48c2.68,0,9.017,0,9.017,0c1.105,0,2,0.896,2,2v15.994
		c0,1.104-0.896,2.001-2,2.001c0,0-6.337,0-9.017,0c0,2.65,0,8.771,0,8.771c0,0.769-0.44,1.469-1.134,1.801
		c-0.275,0.134-0.572,0.199-0.866,0.199C31.109,93.229,30.669,93.08,30.307,92.791"/>
	<g>
		
			<linearGradient id="SVGID_30_" gradientUnits="userSpaceOnUse" x1="262.627" y1="-331.1284" x2="262.627" y2="-293.8823" gradientTransform="matrix(1 0 0 -1 -237.5996 -239.9004)">
			<stop  offset="0" style="stop-color:#FEDF34"/>
			<stop  offset="0.1758" style="stop-color:#FECD26"/>
			<stop  offset="0.4969" style="stop-color:#FFB211"/>
			<stop  offset="0.782" style="stop-color:#FFA204"/>
			<stop  offset="1" style="stop-color:#FF9C00"/>
		</linearGradient>
		<polygon fill="url(#SVGID_30_)" points="31.555,91.229 7.484,72.002 31.555,53.982 31.555,64.462 42.571,64.462 42.571,80.456 
			31.555,80.456 		"/>
	</g>
	
		<linearGradient id="SVGID_31_" gradientUnits="userSpaceOnUse" x1="263.2627" y1="-312.939" x2="263.2627" y2="-296.8765" gradientTransform="matrix(1 0 0 -1 -237.5996 -239.9004)">
		<stop  offset="0" style="stop-color:#FFFFFF;stop-opacity:0"/>
		<stop  offset="1" style="stop-color:#FFFFFF;stop-opacity:0.8"/>
	</linearGradient>
	<path fill="url(#SVGID_31_)" d="M28.228,71.374c-1.729-0.669-3.927-0.994-6.713-0.994c-2.897,0-6.347,0.36-10.269,1.067
		c-0.169-0.137-0.263-0.209-0.493-0.395c2.957-2.213,14.47-10.833,18.802-14.077c0,3.061,0,6.486,0,6.486c0,1.104,0.895,2,2,2
		c0,0,6.337,0,9.017,0c0,2.181,0,5.45,0,7.449c-0.998,0.085-1.973,0.128-2.917,0.128C34.215,73.04,31.132,72.495,28.228,71.374"/>
	
		<linearGradient id="SVGID_32_" gradientUnits="userSpaceOnUse" x1="288.3926" y1="-326.4731" x2="339.0703" y2="-326.4731" gradientTransform="matrix(1 0 0 -1 -237.5996 -239.9004)">
		<stop  offset="0.1654" style="stop-color:#000000;stop-opacity:0.6"/>
		<stop  offset="0.7805" style="stop-color:#000000;stop-opacity:0"/>
	</linearGradient>
	<path fill="url(#SVGID_32_)" d="M101.188,88.186c-0.146,0.965-0.084,1.391-0.274,1.547c-0.024,0.021-0.052,0.033-0.079,0.041
		c-0.014,0.002-0.027,0.004-0.044,0.006c-0.017,0-0.031-0.002-0.049-0.004c-0.067-0.01-0.144-0.045-0.236-0.104
		c-0.185-0.12-0.427,0.091-0.88,0.035c-20.238-1.562-33.887-1.999-46.945-2.13c-0.955,0.131-1.542-0.666-1.794-1.702
		c-0.061-0.261-0.094-0.508-0.094-0.737c0-0.229,0.035-0.438,0.109-0.619c0.074-0.182,0.188-0.334,0.346-0.447
		c0.079-0.059,0.17-0.104,0.271-0.143c0.051-0.018,0.105-0.031,0.162-0.045c0.058-0.013,0.117-0.021,0.181-0.027
		c13.755-0.685,24.265-0.969,48.53,1.336c0.368,0.259,0.623-0.06,0.791,0.182c0.086,0.122,0.147,0.242,0.192,0.367
		c0.022,0.063,0.04,0.125,0.056,0.189c0.014,0.063,0.023,0.127,0.031,0.194C101.514,86.656,101.344,87.284,101.188,88.186
		L101.188,88.186L101.188,88.186L101.188,88.186z"/>
	
		<linearGradient id="SVGID_33_" gradientUnits="userSpaceOnUse" x1="301.7305" y1="-288.6309" x2="274.6798" y2="-304.2485" gradientTransform="matrix(1 0 0 -1 -237.5996 -239.9004)">
		<stop  offset="0" style="stop-color:#3B3B3B"/>
		<stop  offset="0.1001" style="stop-color:#4A4A4A"/>
		<stop  offset="0.5229" style="stop-color:#858585"/>
		<stop  offset="0.8349" style="stop-color:#AAAAAA"/>
		<stop  offset="1" style="stop-color:#B8B8B8"/>
	</linearGradient>
	<path fill="url(#SVGID_33_)" d="M53.154,87.54H53.14c-0.013,0-0.027,0-0.038-0.002c-2.536-0.062-4.239-1.595-4.239-3.819v-0.055
		c0-0.016,0-0.03,0.001-0.046c0.091-3.961,0.179-8.187,0.179-12.454c0-11.894-0.618-25.925-5.205-39.816
		c-0.187-0.518-0.426-1.273-0.426-2.061c0-1.486,0.903-3.168,3.437-3.427c0.009-0.002,0.013-0.002,0.013-0.002H46.86
		c-0.003,0-0.01,0-0.01,0s0,0,0.001,0c0.002,0,0.006,0,0.011,0l0.542-0.027c2.878,0,5.282,2.199,5.766,4.282
		c1.747,6.241,2.95,12.804,3.677,20.054c0.596,5.943,0.873,12.313,0.873,20.048c0,4.574-0.1,9.229-0.2,13.604
		c-0.051,2.228-1.767,3.724-4.268,3.724L53.154,87.54"/>
	
		<linearGradient id="SVGID_34_" gradientUnits="userSpaceOnUse" x1="283.0127" y1="-296.5859" x2="293.3193" y2="-296.5859" gradientTransform="matrix(1 0 0 -1 -237.5996 -239.9004)">
		<stop  offset="0" style="stop-color:#B8B8B8"/>
		<stop  offset="0.304" style="stop-color:#B6B6B6;stop-opacity:0.8541"/>
		<stop  offset="0.4738" style="stop-color:#AEAEAE;stop-opacity:0.7726"/>
		<stop  offset="0.6106" style="stop-color:#A0A0A0;stop-opacity:0.7069"/>
		<stop  offset="0.7297" style="stop-color:#8C8C8C;stop-opacity:0.6497"/>
		<stop  offset="0.8374" style="stop-color:#737373;stop-opacity:0.598"/>
		<stop  offset="0.9354" style="stop-color:#545454;stop-opacity:0.551"/>
		<stop  offset="1" style="stop-color:#3B3B3B;stop-opacity:0.52"/>
	</linearGradient>
	<path fill="url(#SVGID_34_)" d="M47.054,27.848c2.055-0.209,3.911,1.48,4.177,2.753c4.94,17.619,4.702,35.392,4.29,53.172
		c-0.03,1.285-1.085,1.795-2.372,1.767c-1.288-0.031-2.317-0.59-2.287-1.876c0.41-17.779,0.622-35.547-5.129-52.957
		C45.286,29.49,44.998,28.058,47.054,27.848L47.054,27.848L47.054,27.848z"/>
	<path fill="#4E4E4E" d="M47.187,30.07c0,0,2.018-0.381,3.533-0.506c0.261,0.348,0.442,0.707,0.511,1.038
		c0.993,3.543,1.77,7.09,2.384,10.644C50.854,35.763,47.187,30.07,47.187,30.07L47.187,30.07z M55.646,63.754
		c0.08,3.346,0.09,6.691,0.056,10.039c-1.544-4.227-3.146-8.247-3.146-8.247L55.646,63.754L55.646,63.754z"/>
	
		<linearGradient id="SVGID_35_" gradientUnits="userSpaceOnUse" x1="285.1426" y1="-285.0815" x2="354.543" y2="-285.0815" gradientTransform="matrix(1 0 0 -1 -237.5996 -239.9004)">
		<stop  offset="0" style="stop-color:#FFFEBF"/>
		<stop  offset="0.1137" style="stop-color:#FFFDB9"/>
		<stop  offset="0.2626" style="stop-color:#FFFCA9"/>
		<stop  offset="0.4311" style="stop-color:#FFF98E"/>
		<stop  offset="0.6139" style="stop-color:#FFF568"/>
		<stop  offset="0.807" style="stop-color:#FFF038"/>
		<stop  offset="1" style="stop-color:#FFEA00"/>
	</linearGradient>
	<path fill="url(#SVGID_35_)" d="M52.97,64.938l0.048-0.498c0-0.004,0-0.006,0-0.008c0.2-1.123,0.437-2.332,0.686-3.615
		c0.91-4.663,2.04-10.466,2.04-15.624c0-3.384-0.493-6.165-1.467-8.262c-1.068-2.306-2.726-3.866-5.064-4.77
		c-0.573-0.179-0.937-0.495-1.14-0.733l0.019,0.021c-0.237-0.267-0.402-0.589-0.487-0.934c-0.001-0.011-0.063-0.517-0.063-0.517
		s0.086-0.61,0.086-0.613v-0.002c0-0.001,0.001-0.004,0.001-0.006c0.002-0.005,0.003-0.011,0.006-0.019
		c0.21-0.698,0.728-1.264,1.538-1.682l-0.014,0.008c5.917-3.114,12.06-4.691,18.257-4.691c0.975,0,1.952,0.04,2.908,0.118h-0.014
		c4.873,0.367,9.162,1.363,13.31,2.329c1.086,0.251,2.11,0.49,3.136,0.716c0.037,0.008,0.542,0.109,0.542,0.109
		c4.388,0.889,8.531,1.728,12.507,1.728c4.898,0,9.254-1.31,13.707-4.122c0.454-0.296,0.897-0.44,1.354-0.44
		c1.116,0,2.008,0.846,2.075,1.967c0.002,0.038,0.002,0.078,0.002,0.117v0.013c0,0.521-0.174,1.032-0.58,1.706
		c-2.37,3.892-3.426,7.284-3.426,11.005c0,2.082,0.319,4.034,0.66,6.102c0,0,0.133,0.814,0.137,0.846
		c0.017,0.08,0.346,1.723,0.346,1.723c0.514,2.545,1.001,4.951,1.001,7.388c0,2.591-0.572,4.878-1.749,6.992
		c-0.002,0.005-0.005,0.01-0.01,0.015c-0.363,0.645-1.092,1.369-1.77,1.764c-0.005,0.002-0.01,0.007-0.014,0.01
		c-2.145,1.222-4.348,2.115-6.549,2.658c-1.041,0.255-2.109,0.439-3.178,0.551c-0.521,0.055-1.047,0.092-1.566,0.111l-0.76,0.019
		c-0.016,0-0.012,0-0.026,0h-0.178l-0.57-0.005c-3.159-0.064-6.196-0.818-9.132-1.547c-0.826-0.205-1.68-0.416-2.523-0.61
		c-3.064-0.696-6.072-1.034-9.19-1.034c-7.021,0-13.284,1.729-19.917,3.559l-1.767,0.488c-0.009,0-0.016,0.002-0.025,0.006
		c-0.245,0.063-0.492,0.096-0.729,0.096C54.051,67.365,52.97,66.299,52.97,64.938 M53.008,64.479L53.008,64.479L53.008,64.479
		 M47.605,30.528L47.605,30.528L47.605,30.528 M47.584,30.428c-0.001-0.006-0.001-0.008-0.001-0.008S47.583,30.423,47.584,30.428
		 M47.632,29.351C47.632,29.35,47.632,29.35,47.632,29.351C47.632,29.35,47.632,29.349,47.632,29.351"/>
	<path fill="#FFF300" d="M50.09,29.453c7.21-3.792,14.145-4.838,20.071-4.348c5.981,0.45,11.241,1.925,16.18,3.006
		c9.981,2.018,18.142,3.836,28.255-2.559c0.227-0.152,0.344-0.157,0.35-0.039c0.009,0.119-0.094,0.357-0.293,0.684
		c-5.034,8.265-3.786,13.722-2.887,19.322c1.043,5.429,2.435,10.098-0.181,14.796c-0.196,0.347-0.676,0.812-1.036,1.022
		c-2.072,1.183-4.074,1.972-6.033,2.453c-0.979,0.239-1.947,0.405-2.906,0.505c-0.479,0.051-0.959,0.083-1.435,0.102
		c-0.239,0.01-0.476,0.015-0.713,0.018c-0.237,0.002-0.476,0-0.711-0.005c-3.784-0.078-7.427-1.231-11.246-2.104
		c-12.163-2.762-21.84,0.291-31.849,3.028c-0.447,0.119-0.75-0.104-0.674-0.517c1.872-10.549,7.208-29.896-5.141-34.556
		c-0.119-0.032-0.202-0.079-0.25-0.135c-0.024-0.027-0.039-0.058-0.045-0.089c-0.006-0.034-0.005-0.067,0.006-0.104
		C49.596,29.788,49.776,29.615,50.09,29.453L50.09,29.453L50.09,29.453L50.09,29.453L50.09,29.453L50.09,29.453z"/>
	
		<linearGradient id="SVGID_36_" gradientUnits="userSpaceOnUse" x1="303.8789" y1="-258.126" x2="337.5761" y2="-308.0841" gradientTransform="matrix(1 0 0 -1 -237.5996 -239.9004)">
		<stop  offset="0" style="stop-color:#000000;stop-opacity:0"/>
		<stop  offset="0.4385" style="stop-color:#000000;stop-opacity:0.62"/>
		<stop  offset="0.7192" style="stop-color:#000000;stop-opacity:0.14"/>
		<stop  offset="1" style="stop-color:#000000;stop-opacity:0.62"/>
	</linearGradient>
	<path fill="url(#SVGID_36_)" fill-opacity="0.75" d="M49.661,29.453c7.212-3.792,14.146-4.838,20.069-4.348
		c5.983,0.45,11.244,1.925,16.181,3.006c9.981,2.018,18.144,3.836,28.254-2.559c0.229-0.152,0.345-0.157,0.353-0.039
		c0.008,0.119-0.095,0.357-0.295,0.684c-5.033,8.265-3.785,13.722-2.887,19.322c1.042,5.429,2.436,10.098-0.18,14.796
		c-0.195,0.347-0.676,0.812-1.036,1.022c-2.072,1.183-4.076,1.972-6.033,2.453c-0.979,0.239-1.946,0.405-2.905,0.505
		c-0.48,0.051-0.959,0.083-1.437,0.102c-0.236,0.01-0.476,0.015-0.712,0.018c-0.237,0.002-0.475,0-0.713-0.005
		c-3.783-0.078-7.426-1.231-11.243-2.104c-12.165-2.762-21.841,0.291-31.851,3.028c-0.447,0.119-0.748-0.104-0.673-0.517
		c1.871-10.549,7.207-29.896-5.142-34.556c-0.119-0.032-0.202-0.079-0.249-0.135c-0.025-0.027-0.04-0.058-0.046-0.089
		c-0.006-0.034-0.005-0.067,0.006-0.104C49.167,29.788,49.349,29.615,49.661,29.453L49.661,29.453L49.661,29.453L49.661,29.453
		L49.661,29.453L49.661,29.453z"/>
</g>
<g id="red">
	
		<radialGradient id="SVGID_37_" cx="218.3018" cy="-2463.7383" r="11.9304" gradientTransform="matrix(1.3753 0 0 -0.1457 -273.2091 -266.0768)" gradientUnits="userSpaceOnUse">
		<stop  offset="0" style="stop-color:#000000;stop-opacity:0.42"/>
		<stop  offset="0.3095" style="stop-color:#020202;stop-opacity:0.29"/>
		<stop  offset="0.462" style="stop-color:#0A0A0A;stop-opacity:0.226"/>
		<stop  offset="0.5803" style="stop-color:#171717;stop-opacity:0.1763"/>
		<stop  offset="0.6808" style="stop-color:#2A2A2A;stop-opacity:0.1341"/>
		<stop  offset="0.7701" style="stop-color:#424242;stop-opacity:0.0965"/>
		<stop  offset="0.8516" style="stop-color:#606060;stop-opacity:0.0623"/>
		<stop  offset="0.9258" style="stop-color:#838383;stop-opacity:0.0312"/>
		<stop  offset="0.9946" style="stop-color:#ABABAB;stop-opacity:0.0022"/>
		<stop  offset="1" style="stop-color:#AEAEAE;stop-opacity:0"/>
	</radialGradient>
	<path fill="url(#SVGID_37_)" fill-opacity="0.5" d="M27.02,89.7C14.307,89.7,4,91.129,4,92.891c0,1.76,10.307,3.188,23.02,3.188
		c12.714,0,23.021-1.429,23.021-3.188C50.041,91.13,39.733,89.7,27.02,89.7L27.02,89.7z"/>
	
		<radialGradient id="SVGID_38_" cx="269.6006" cy="-1222.4912" r="4.8708" gradientTransform="matrix(1 0 0 -0.29 -237.5996 -261.6329)" gradientUnits="userSpaceOnUse">
		<stop  offset="0.6962" style="stop-color:#000000;stop-opacity:0.14"/>
		<stop  offset="0.8155" style="stop-color:#424242;stop-opacity:0.085"/>
		<stop  offset="1" style="stop-color:#AEAEAE;stop-opacity:0"/>
	</radialGradient>
	<path fill="url(#SVGID_38_)" d="M31.999,90.7c-3.607,0-6.531,0.979-6.531,2.188s2.924,2.189,6.531,2.189
		c3.609,0,6.533-0.98,6.533-2.189S35.608,90.7,31.999,90.7L31.999,90.7z"/>
	<path fill="#940202" d="M30.307,92.791L6.236,73.564C5.761,73.186,5.483,72.609,5.483,72c0-0.009,0-0.021,0-0.029
		c0.01-0.619,0.306-1.197,0.802-1.57l24.071-18.02c0.353-0.264,0.773-0.399,1.198-0.399c0.306,0,0.612,0.07,0.895,0.211
		c0.677,0.339,1.105,1.031,1.105,1.789c0,0,0,5.861,0,8.48c2.68,0,9.017,0,9.017,0c1.105,0,2,0.896,2,2v15.994
		c0,1.104-0.896,2.001-2,2.001c0,0-6.337,0-9.017,0c0,2.65,0,8.771,0,8.771c0,0.769-0.44,1.469-1.134,1.801
		c-0.275,0.134-0.572,0.199-0.866,0.199C31.109,93.229,30.669,93.08,30.307,92.791"/>
	<g>
		
			<linearGradient id="SVGID_39_" gradientUnits="userSpaceOnUse" x1="262.627" y1="-331.1284" x2="262.627" y2="-293.8823" gradientTransform="matrix(1 0 0 -1 -237.5996 -239.9004)">
			<stop  offset="0" style="stop-color:#FF0000"/>
			<stop  offset="0.1758" style="stop-color:#F60303"/>
			<stop  offset="0.4969" style="stop-color:#EC0404"/>
			<stop  offset="0.782" style="stop-color:#E30101"/>
			<stop  offset="1" style="stop-color:#D60202"/>
		</linearGradient>
		<polygon fill="url(#SVGID_39_)" points="31.555,91.229 7.484,72.002 31.555,53.982 31.555,64.462 42.571,64.462 42.571,80.456 
			31.555,80.456 		"/>
	</g>
	
		<linearGradient id="SVGID_40_" gradientUnits="userSpaceOnUse" x1="263.2627" y1="-312.939" x2="263.2627" y2="-296.8765" gradientTransform="matrix(1 0 0 -1 -237.5996 -239.9004)">
		<stop  offset="0" style="stop-color:#FFFFFF;stop-opacity:0"/>
		<stop  offset="1" style="stop-color:#FFFFFF;stop-opacity:0.8"/>
	</linearGradient>
	<path fill="url(#SVGID_40_)" d="M28.228,71.374c-1.729-0.669-3.927-0.994-6.713-0.994c-2.897,0-6.347,0.36-10.269,1.067
		c-0.169-0.137-0.263-0.209-0.493-0.395c2.957-2.213,14.47-10.833,18.802-14.077c0,3.061,0,6.486,0,6.486c0,1.104,0.895,2,2,2
		c0,0,6.337,0,9.017,0c0,2.181,0,5.45,0,7.449c-0.998,0.085-1.973,0.128-2.917,0.128C34.215,73.04,31.132,72.495,28.228,71.374"/>
	
		<linearGradient id="SVGID_41_" gradientUnits="userSpaceOnUse" x1="288.3926" y1="-326.4731" x2="339.0703" y2="-326.4731" gradientTransform="matrix(1 0 0 -1 -237.5996 -239.9004)">
		<stop  offset="0.1654" style="stop-color:#000000;stop-opacity:0.6"/>
		<stop  offset="0.7805" style="stop-color:#000000;stop-opacity:0"/>
	</linearGradient>
	<path fill="url(#SVGID_41_)" d="M101.188,88.186c-0.146,0.965-0.084,1.391-0.274,1.547c-0.024,0.021-0.052,0.033-0.079,0.041
		c-0.014,0.002-0.027,0.004-0.044,0.006c-0.017,0-0.031-0.002-0.049-0.004c-0.067-0.01-0.144-0.045-0.236-0.104
		c-0.185-0.12-0.427,0.091-0.88,0.035c-20.238-1.562-33.887-1.999-46.945-2.13c-0.955,0.131-1.542-0.666-1.794-1.702
		c-0.061-0.261-0.094-0.508-0.094-0.737c0-0.229,0.035-0.438,0.109-0.619c0.074-0.182,0.188-0.334,0.346-0.447
		c0.079-0.059,0.17-0.104,0.271-0.143c0.051-0.018,0.105-0.031,0.162-0.045c0.058-0.013,0.117-0.021,0.181-0.027
		c13.755-0.685,24.265-0.969,48.53,1.336c0.368,0.259,0.623-0.06,0.791,0.182c0.086,0.122,0.147,0.242,0.192,0.367
		c0.022,0.063,0.04,0.125,0.056,0.189c0.014,0.063,0.023,0.127,0.031,0.194C101.514,86.656,101.344,87.284,101.188,88.186
		L101.188,88.186L101.188,88.186L101.188,88.186z"/>
	
		<linearGradient id="SVGID_42_" gradientUnits="userSpaceOnUse" x1="301.7305" y1="-288.6309" x2="274.6798" y2="-304.2485" gradientTransform="matrix(1 0 0 -1 -237.5996 -239.9004)">
		<stop  offset="0" style="stop-color:#3B3B3B"/>
		<stop  offset="0.1001" style="stop-color:#4A4A4A"/>
		<stop  offset="0.5229" style="stop-color:#858585"/>
		<stop  offset="0.8349" style="stop-color:#AAAAAA"/>
		<stop  offset="1" style="stop-color:#B8B8B8"/>
	</linearGradient>
	<path fill="url(#SVGID_42_)" d="M53.154,87.54H53.14c-0.013,0-0.027,0-0.038-0.002c-2.536-0.062-4.239-1.595-4.239-3.819v-0.055
		c0-0.016,0-0.03,0.001-0.046c0.091-3.961,0.179-8.187,0.179-12.454c0-11.894-0.618-25.925-5.205-39.816
		c-0.187-0.518-0.426-1.273-0.426-2.061c0-1.486,0.903-3.168,3.437-3.427c0.009-0.002,0.013-0.002,0.013-0.002H46.86
		c-0.003,0-0.01,0-0.01,0s0,0,0.001,0c0.002,0,0.006,0,0.011,0l0.542-0.027c2.878,0,5.282,2.199,5.766,4.282
		c1.747,6.241,2.95,12.804,3.677,20.054c0.596,5.943,0.873,12.313,0.873,20.048c0,4.574-0.1,9.229-0.2,13.604
		c-0.051,2.228-1.767,3.724-4.268,3.724L53.154,87.54"/>
	
		<linearGradient id="SVGID_43_" gradientUnits="userSpaceOnUse" x1="283.0127" y1="-296.5859" x2="293.3193" y2="-296.5859" gradientTransform="matrix(1 0 0 -1 -237.5996 -239.9004)">
		<stop  offset="0" style="stop-color:#B8B8B8"/>
		<stop  offset="0.304" style="stop-color:#B6B6B6;stop-opacity:0.8541"/>
		<stop  offset="0.4738" style="stop-color:#AEAEAE;stop-opacity:0.7726"/>
		<stop  offset="0.6106" style="stop-color:#A0A0A0;stop-opacity:0.7069"/>
		<stop  offset="0.7297" style="stop-color:#8C8C8C;stop-opacity:0.6497"/>
		<stop  offset="0.8374" style="stop-color:#737373;stop-opacity:0.598"/>
		<stop  offset="0.9354" style="stop-color:#545454;stop-opacity:0.551"/>
		<stop  offset="1" style="stop-color:#3B3B3B;stop-opacity:0.52"/>
	</linearGradient>
	<path fill="url(#SVGID_43_)" d="M47.054,27.848c2.055-0.209,3.911,1.48,4.177,2.753c4.94,17.619,4.702,35.392,4.29,53.172
		c-0.03,1.285-1.085,1.795-2.372,1.767c-1.288-0.031-2.317-0.59-2.287-1.876c0.41-17.779,0.622-35.547-5.129-52.957
		C45.286,29.49,44.998,28.058,47.054,27.848L47.054,27.848L47.054,27.848z"/>
	<path fill="#4E4E4E" d="M47.187,30.07c0,0,2.018-0.381,3.533-0.506c0.261,0.348,0.442,0.707,0.511,1.038
		c0.993,3.543,1.77,7.09,2.384,10.644C50.854,35.763,47.187,30.07,47.187,30.07L47.187,30.07z M55.646,63.754
		c0.08,3.346,0.09,6.691,0.056,10.039c-1.544-4.227-3.146-8.247-3.146-8.247L55.646,63.754L55.646,63.754z"/>
	
		<linearGradient id="SVGID_44_" gradientUnits="userSpaceOnUse" x1="285.1426" y1="-285.0815" x2="354.543" y2="-285.0815" gradientTransform="matrix(1 0 0 -1 -237.5996 -239.9004)">
		<stop  offset="0" style="stop-color:#FFFEBF"/>
		<stop  offset="0.1137" style="stop-color:#FFFDB9"/>
		<stop  offset="0.2626" style="stop-color:#FFFCA9"/>
		<stop  offset="0.4311" style="stop-color:#FFF98E"/>
		<stop  offset="0.6139" style="stop-color:#FFF568"/>
		<stop  offset="0.807" style="stop-color:#FFF038"/>
		<stop  offset="1" style="stop-color:#FFEA00"/>
	</linearGradient>
	<path fill="url(#SVGID_44_)" d="M52.97,64.938l0.048-0.498c0-0.004,0-0.006,0-0.008c0.2-1.123,0.437-2.332,0.686-3.615
		c0.91-4.663,2.04-10.466,2.04-15.624c0-3.384-0.493-6.165-1.467-8.262c-1.068-2.306-2.726-3.866-5.064-4.77
		c-0.573-0.179-0.937-0.495-1.14-0.733l0.019,0.021c-0.237-0.267-0.402-0.589-0.487-0.934c-0.001-0.011-0.063-0.517-0.063-0.517
		s0.086-0.61,0.086-0.613v-0.002c0-0.001,0.001-0.004,0.001-0.006c0.002-0.005,0.003-0.011,0.006-0.019
		c0.21-0.698,0.728-1.264,1.538-1.682l-0.014,0.008c5.917-3.114,12.06-4.691,18.257-4.691c0.975,0,1.952,0.04,2.908,0.118h-0.014
		c4.873,0.367,9.162,1.363,13.31,2.329c1.086,0.251,2.11,0.49,3.136,0.716c0.037,0.008,0.542,0.109,0.542,0.109
		c4.388,0.889,8.531,1.728,12.507,1.728c4.898,0,9.254-1.31,13.707-4.122c0.454-0.296,0.897-0.44,1.354-0.44
		c1.116,0,2.008,0.846,2.075,1.967c0.002,0.038,0.002,0.078,0.002,0.117v0.013c0,0.521-0.174,1.032-0.58,1.706
		c-2.37,3.892-3.426,7.284-3.426,11.005c0,2.082,0.319,4.034,0.66,6.102c0,0,0.133,0.814,0.137,0.846
		c0.017,0.08,0.346,1.723,0.346,1.723c0.514,2.545,1.001,4.951,1.001,7.388c0,2.591-0.572,4.878-1.749,6.992
		c-0.002,0.005-0.005,0.01-0.01,0.015c-0.363,0.645-1.092,1.369-1.77,1.764c-0.005,0.002-0.01,0.007-0.014,0.01
		c-2.145,1.222-4.348,2.115-6.549,2.658c-1.041,0.255-2.109,0.439-3.178,0.551c-0.521,0.055-1.047,0.092-1.566,0.111l-0.76,0.019
		c-0.016,0-0.012,0-0.026,0h-0.178l-0.57-0.005c-3.159-0.064-6.196-0.818-9.132-1.547c-0.826-0.205-1.68-0.416-2.523-0.61
		c-3.064-0.696-6.072-1.034-9.19-1.034c-7.021,0-13.284,1.729-19.917,3.559l-1.767,0.488c-0.009,0-0.016,0.002-0.025,0.006
		c-0.245,0.063-0.492,0.096-0.729,0.096C54.051,67.365,52.97,66.299,52.97,64.938 M53.008,64.479L53.008,64.479L53.008,64.479
		 M47.605,30.528L47.605,30.528L47.605,30.528 M47.584,30.428c-0.001-0.006-0.001-0.008-0.001-0.008S47.583,30.423,47.584,30.428
		 M47.632,29.351C47.632,29.35,47.632,29.35,47.632,29.351C47.632,29.35,47.632,29.349,47.632,29.351"/>
	<path fill="#FFF300" d="M50.09,29.453c7.21-3.792,14.145-4.838,20.071-4.348c5.981,0.45,11.241,1.925,16.18,3.006
		c9.981,2.018,18.142,3.836,28.255-2.559c0.227-0.152,0.344-0.157,0.35-0.039c0.009,0.119-0.094,0.357-0.293,0.684
		c-5.034,8.265-3.786,13.722-2.887,19.322c1.043,5.429,2.435,10.098-0.181,14.796c-0.196,0.347-0.676,0.812-1.036,1.022
		c-2.072,1.183-4.074,1.972-6.033,2.453c-0.979,0.239-1.947,0.405-2.906,0.505c-0.479,0.051-0.959,0.083-1.435,0.102
		c-0.239,0.01-0.476,0.015-0.713,0.018c-0.237,0.002-0.476,0-0.711-0.005c-3.784-0.078-7.427-1.231-11.246-2.104
		c-12.163-2.762-21.84,0.291-31.849,3.028c-0.447,0.119-0.75-0.104-0.674-0.517c1.872-10.549,7.208-29.896-5.141-34.556
		c-0.119-0.032-0.202-0.079-0.25-0.135c-0.024-0.027-0.039-0.058-0.045-0.089c-0.006-0.034-0.005-0.067,0.006-0.104
		C49.596,29.788,49.776,29.615,50.09,29.453L50.09,29.453L50.09,29.453L50.09,29.453L50.09,29.453L50.09,29.453z"/>
	
		<linearGradient id="SVGID_45_" gradientUnits="userSpaceOnUse" x1="303.8789" y1="-258.126" x2="337.5761" y2="-308.0841" gradientTransform="matrix(1 0 0 -1 -237.5996 -239.9004)">
		<stop  offset="0" style="stop-color:#000000;stop-opacity:0"/>
		<stop  offset="0.4385" style="stop-color:#000000;stop-opacity:0.62"/>
		<stop  offset="0.7192" style="stop-color:#000000;stop-opacity:0.14"/>
		<stop  offset="1" style="stop-color:#000000;stop-opacity:0.62"/>
	</linearGradient>
	<path fill="url(#SVGID_45_)" fill-opacity="0.75" d="M49.661,29.453c7.212-3.792,14.146-4.838,20.069-4.348
		c5.983,0.45,11.244,1.925,16.181,3.006c9.981,2.018,18.144,3.836,28.254-2.559c0.229-0.152,0.345-0.157,0.353-0.039
		c0.008,0.119-0.095,0.357-0.295,0.684c-5.033,8.265-3.785,13.722-2.887,19.322c1.042,5.429,2.436,10.098-0.18,14.796
		c-0.195,0.347-0.676,0.812-1.036,1.022c-2.072,1.183-4.076,1.972-6.033,2.453c-0.979,0.239-1.946,0.405-2.905,0.505
		c-0.48,0.051-0.959,0.083-1.437,0.102c-0.236,0.01-0.476,0.015-0.712,0.018c-0.237,0.002-0.475,0-0.713-0.005
		c-3.783-0.078-7.426-1.231-11.243-2.104c-12.165-2.762-21.841,0.291-31.851,3.028c-0.447,0.119-0.748-0.104-0.673-0.517
		c1.871-10.549,7.207-29.896-5.142-34.556c-0.119-0.032-0.202-0.079-0.249-0.135c-0.025-0.027-0.04-0.058-0.046-0.089
		c-0.006-0.034-0.005-0.067,0.006-0.104C49.167,29.788,49.349,29.615,49.661,29.453L49.661,29.453L49.661,29.453L49.661,29.453
		L49.661,29.453L49.661,29.453z"/>
</g>
</svg>
