<?xml version="1.0" encoding="utf-8"?>
<!-- Generator: Adobe Illustrator 16.0.2, SVG Export Plug-In . SVG Version: 6.00 Build 0)  -->
<!DOCTYPE svg PUBLIC "-//W3C//DTD SVG 1.1//EN" "http://www.w3.org/Graphics/SVG/1.1/DTD/svg11.dtd">
<svg version="1.1" id="Layer_1" xmlns="http://www.w3.org/2000/svg" xmlns:xlink="http://www.w3.org/1999/xlink" x="0px" y="0px"
	 width="225px" height="225px" viewBox="0 0 225 225" xml:space="preserve">
<g id="_x23_000000ff">
	<path d="M50.54,2.34c55.13,0.1,110.271,0.01,165.399,0.04c-0.049,59.57-0.16,119.14,0.061,178.7
		c-27.46,14.15-55.279,27.67-82.859,41.62c0.09-13.82,0.029-27.64,0.039-41.46c-27.54,0.08-55.08-0.02-82.61,0.05
		c0.01-18.31,0.08-36.62-0.04-54.92c4.56,0.09,9.12,0.069,13.69,0.01c-0.06,13.79-0.03,27.58-0.02,41.37
		c22.99,0.04,45.98-0.029,68.97,0.04c0.02-41.229,0.03-82.46,0-123.69l0.359-0.61c18.25-9.12,36.591-18.13,54.74-27.45
		c-41.359-0.09-82.72-0.02-124.08-0.03c0.01,18.35-0.03,36.7,0.02,55.05c-4.56,0-9.11,0.02-13.67-0.01
		C50.62,48.15,50.62,25.24,50.54,2.34z"/>
	<path d="M78,57.53c13.93,13.54,27.4,27.56,41.35,41.08c-13.709,13.89-27.59,27.621-41.37,41.44c0.05-9.229,0-18.46,0.03-27.7
		c-23.01,0-46.02,0.01-69.03,0C9.21,103.24,9.18,94.11,9,85c23,0,46,0,69,0C78.01,75.84,77.99,66.69,78,57.53z"/>
</g>
</svg>
