<?xml version="1.0" encoding="UTF-8" ?>
<!DOCTYPE svg PUBLIC "-//W3C//DTD SVG 1.1//EN" "http://www.w3.org/Graphics/SVG/1.1/DTD/svg11.dtd">
<svg width="500pt" height="500pt" viewBox="0 0 500 500" version="1.1" xmlns="http://www.w3.org/2000/svg">
<g id="#000000ff">
<path fill="black" opacity="1.00" d=" M 241.77 9.77 C 243.27 6.55 244.60 3.25 246.31 0.12 C 277.76 69.56 309.39 138.91 340.89 208.32 C 309.31 192.36 277.77 176.34 246.18 160.40 C 214.64 176.38 183.11 192.35 151.55 208.30 C 181.59 142.11 211.70 75.95 241.77 9.77 Z" />
<path fill="black" opacity="1.00" d=" M 80.28 120.33 C 106.06 86.52 142.35 60.86 182.87 47.96 C 175.91 63.30 168.92 78.63 161.96 93.98 C 160.61 96.79 159.83 100.31 156.68 101.67 C 112.77 128.42 82.31 176.06 76.95 227.26 C 83.58 227.37 90.23 227.06 96.86 227.41 C 106.17 228.12 114.00 236.65 113.86 245.99 C 114.22 255.41 106.46 264.18 97.07 264.97 C 90.37 265.36 83.66 265.01 76.95 265.14 C 81.51 306.86 102.42 346.39 133.98 373.99 C 159.89 396.90 192.90 411.63 227.29 415.48 C 227.40 408.76 227.10 402.03 227.43 395.32 C 228.15 385.64 237.40 377.76 247.04 378.37 C 256.35 378.58 264.66 386.66 265.06 395.98 C 265.35 402.47 265.09 408.97 265.18 415.47 C 299.42 411.63 332.31 396.99 358.16 374.22 C 389.89 346.61 410.86 306.98 415.48 265.14 C 408.64 265.04 401.79 265.31 394.96 265.03 C 385.83 264.39 378.13 256.13 377.90 247.03 C 377.23 237.32 385.26 228.08 394.95 227.38 C 401.79 227.08 408.64 227.37 415.48 227.26 C 410.13 176.45 380.10 129.12 336.70 102.27 C 335.12 101.22 333.18 100.35 332.49 98.44 C 324.86 81.61 317.18 64.80 309.56 47.97 C 356.89 62.98 398.31 95.56 424.21 137.90 C 440.84 164.87 451.07 195.71 453.96 227.26 C 461.41 227.42 468.89 226.97 476.33 227.49 C 486.87 228.60 494.73 239.77 492.26 250.07 C 490.73 258.18 483.28 264.67 475.03 265.04 C 467.81 265.28 460.58 265.04 453.36 265.14 C 451.27 287.38 445.73 309.29 436.72 329.74 C 422.09 363.16 398.45 392.57 368.99 414.09 C 338.80 436.30 302.49 449.96 265.18 453.36 C 265.03 460.92 265.46 468.51 264.95 476.06 C 264.05 485.36 255.34 492.99 246.01 492.65 C 236.68 492.78 228.15 485.01 227.42 475.72 C 227.10 468.27 227.40 460.81 227.28 453.37 C 201.74 450.98 176.62 443.97 153.66 432.50 C 121.56 416.57 93.74 392.16 73.72 362.44 C 54.18 333.63 42.22 299.80 39.05 265.14 C 31.70 265.07 24.35 265.23 17.01 265.09 C 9.34 264.89 2.52 259.34 0.00 252.22 L 0.00 240.17 C 2.50 233.04 9.36 227.57 17.00 227.32 C 24.15 227.16 31.30 227.33 38.46 227.26 C 41.93 188.61 56.62 151.08 80.28 120.33 Z" />
</g>
</svg>
