<svg version="1.1" xmlns="http://www.w3.org/2000/svg" xmlns:xlink="http://www.w3.org/1999/xlink" width="120" height="120" viewBox="0 0 120 120">
<g id="normal">
<path fill="gold" d="M102.398,117.5H17.602c-8.34,0-15.102-6.761-15.102-15.102V17.602C2.5,9.261,9.261,2.5,17.602,2.5h84.797c8.34,0,15.102,6.761,15.102,15.102v84.797C117.5,110.739,110.739,117.5,102.398,117.5z"/>
<path fill="#3B672A" d="M80.774,32C71.435,19.403,61.962,9.211,61.867,9.109C61.384,8.591,60.708,8.297,60,8.297c-0.708,0-1.384,0.294-1.867,0.812C58.038,9.211,48.565,19.403,39.226,32C26.468,49.208,20,62.565,20,71.701c0,22.056,17.944,40.001,40,40.001c22.056,0,40-17.945,40-40.001C100,62.565,93.531,49.208,80.774,32z M63.995,98.758c-2.097,0.496-4.258,0.747-6.424,0.747c-15.393,0-27.916-12.523-27.916-27.916c0-2.122,0.653-5.967,3.766-12.232c0.313-0.63,1.033-0.942,1.707-0.742c0.674,0.2,1.105,0.857,1.023,1.555c-0.071,0.603-0.107,1.17-0.107,1.687c0,16.499,11.735,30.832,27.903,34.078c0.666,0.134,1.149,0.714,1.16,1.393C65.119,98.006,64.656,98.602,63.995,98.758z"/>
</g>
</svg>