<svg viewBox="0 0 114 114">
<g id="normal">
</g>
<g id="active" opacity=".4">
	<path fill="#FFFFFF" d="M104.177,102.038c-3.221,3.287-8.436,3.287-11.653,0l-8.705-9.099c0,0,3.703-2.661,6.526-5.864
	c2.698-3.059,4.524-6.666,4.524-6.666l9.309,9.743C107.394,93.433,107.394,98.759,104.177,102.038L104.177,102.038z M86.266,83.366
	c-2.937,2.974-6.482,5.363-6.482,5.363c-16.405,11.061-38.766,9.224-53.202-5.499c-16.486-16.829-16.486-44.203,0-61.024
	c16.49-16.825,43.323-16.825,59.806,0c14.554,14.848,16.24,37.905,5.109,54.682C91.497,76.887,89.185,80.417,86.266,83.366
	L86.266,83.366z M79.085,29.652c-12.463-12.717-32.741-12.717-45.204,0s-12.463,33.414,0,46.124
	c12.463,12.717,32.741,12.717,45.204,0C91.552,63.066,91.552,42.369,79.085,29.652L79.085,29.652z M37.591,56.959v-9.644H75.61
	v9.644H37.591L37.591,56.959z"/>
</g>
<g id="disabled">
</g>
</svg>
