<?xml version="1.0" encoding="utf-8"?>
<!-- Generator: Adobe Illustrator 16.0.2, SVG Export Plug-In . SVG Version: 6.00 Build 0)  -->
<!DOCTYPE svg PUBLIC "-//W3C//DTD SVG 1.1//EN" "http://www.w3.org/Graphics/SVG/1.1/DTD/svg11.dtd">
<svg version="1.1" id="Capa_1" xmlns="http://www.w3.org/2000/svg" xmlns:xlink="http://www.w3.org/1999/xlink" x="0px" y="0px"
	 width="120px" height="120px" viewBox="0 0 120 120" xml:space="preserve">
<path fill="#FFFFFF" d="M103.979,26.464C99.276,15.693,92.356,10,83.965,10c-8.39,0-15.31,5.693-20.01,16.467
	c-3.584,8.211-5.681,18.988-5.984,30.604h-8.359L38.774,46.209c-0.55-0.549-1.292-0.857-2.068-0.857H12.924
	c-1.014,0-1.955,0.526-2.487,1.389c-0.532,0.865-0.581,1.943-0.129,2.852L15.502,60l-5.195,10.408
	c-0.452,0.908-0.403,1.986,0.129,2.852c0.532,0.863,1.474,1.389,2.487,1.389h23.782c0.776,0,1.518-0.309,2.068-0.857L49.612,62.93
	h8.359c0.302,11.617,2.399,22.395,5.982,30.605C68.654,104.307,75.575,110,83.965,110c8.392,0,15.312-5.693,20.012-16.467
	C107.861,84.635,110,72.725,110,59.998S107.861,35.363,103.979,26.464z M30.857,62.93h10.485l-5.848,5.859h-17.84l3.733-7.479
	c0.412-0.824,0.412-1.797,0-2.621l-3.733-7.479h17.84l5.848,5.859H30.858c-1.614,0-2.924,1.313-2.924,2.93
	C27.934,61.617,29.244,62.93,30.857,62.93z M98.62,91.186c-2.579,5.91-7.217,12.955-14.655,12.955s-12.074-7.043-14.653-12.953
	c-3.224-7.385-5.185-17.553-5.489-28.258h5.714c0.194,8.414,1.231,16.205,2.967,22.186c3.155,10.883,7.977,13.166,11.461,13.166
	c3.49,0,8.311-2.281,11.467-13.152c1.936-6.666,2.999-15.584,2.999-25.113c0-9.532-1.065-18.458-3.001-25.131
	c-3.156-10.883-7.977-13.166-11.465-13.166c-3.486,0-8.308,2.282-11.463,13.153c-1.737,5.982-2.772,13.777-2.967,22.199h-5.712
	c0.304-10.703,2.268-20.871,5.489-28.256c2.579-5.911,7.215-12.956,14.653-12.956c7.44,0,12.076,7.043,14.655,12.953
	c3.517,8.055,5.532,19.422,5.532,31.186C104.152,71.762,102.135,83.129,98.62,91.186z M83.879,74.648
	c1.616,0,2.924-1.313,2.924-2.93V48.281c0-1.617-1.308-2.93-2.924-2.93c-1.614,0-2.924,1.313-2.924,2.93v8.789h-5.569
	c0.194-7.801,1.166-15.17,2.731-20.563c1.598-5.508,3.84-8.93,5.848-8.93s4.247,3.426,5.848,8.941
	c1.761,6.068,2.771,14.633,2.771,23.496c0,8.859-1.008,17.416-2.768,23.477c-1.599,5.508-3.841,8.93-5.851,8.93
	c-2.006,0-4.248-3.426-5.846-8.941c-1.565-5.393-2.536-12.758-2.733-20.551h5.569v8.789C80.955,73.336,82.265,74.648,83.879,74.648z
	"/>
</svg>
