<?xml version="1.0" encoding="utf-8"?>
<!-- Generator: Adobe Illustrator 16.0.0, SVG Export Plug-In . SVG Version: 6.00 Build 0)  -->
<!DOCTYPE svg PUBLIC "-//W3C//DTD SVG 1.1//EN" "http://www.w3.org/Graphics/SVG/1.1/DTD/svg11.dtd">
<svg version="1.1" id="Слой_1" xmlns="http://www.w3.org/2000/svg" xmlns:xlink="http://www.w3.org/1999/xlink" x="0px" y="0px"
	 width="96.987px" height="97.02px" viewBox="-0.143 1.329 96.987 97.02" enable-background="new -0.143 1.329 96.987 97.02"
	 xml:space="preserve">
<linearGradient id="SVGID_1_" gradientUnits="userSpaceOnUse" x1="35.1941" y1="31.2087" x2="57.8606" y2="70.4683">
	<stop  offset="0" style="stop-color:#5E8C47"/>
	<stop  offset="0.3764" style="stop-color:#489656"/>
	<stop  offset="1" style="stop-color:#006122"/>
</linearGradient>
<path fill="url(#SVGID_1_)" d="M77.372,42.367c-2.816-1.705-9.014-0.617-12.151-0.617H36.361H23.392
	c-3.43,0-9.418-0.849-9.418,3.771c0,3.548,0,7.097,0,10.644c0,4.649,6.67,3.652,10.032,3.652c1.011,0,12.224,0.109,12.475,0.111
	c0.294,0.002,20.817-0.111,21.914-0.111h14.54c1.494,0,3.128,0.176,4.438-0.615c2.015-1.224,1.775-3.26,1.775-5.146
	C79.146,51.137,80.593,44.32,77.372,42.367z"/>
<linearGradient id="SVGID_2_" gradientUnits="userSpaceOnUse" x1="-399.4143" y1="680.4114" x2="-391.0074" y2="672.0045" gradientTransform="matrix(4.5215 0 0 -4.5215 1833.3582 3108.2612)">
	<stop  offset="0" style="stop-color:#7CB95E"/>
	<stop  offset="0.3764" style="stop-color:#52AD51"/>
	<stop  offset="1" style="stop-color:#007A2A"/>
</linearGradient>
<path fill="url(#SVGID_2_)" d="M76.517,43.048c-2.75-1.565-8.799-0.566-11.865-0.566H36.477H23.814
	c-3.349,0-9.195-0.778-9.194,3.462c0,3.255,0.001,6.513,0.001,9.769c0,4.27,6.512,3.354,9.795,3.354
	c0.986,0,11.935,0.101,12.181,0.102c0.288,0.003,20.325-0.102,21.396-0.102h14.197c1.458,0,3.053,0.16,4.329-0.564
	c1.969-1.121,1.734-2.992,1.734-4.725C78.254,51.098,79.665,44.839,76.517,43.048L76.517,43.048z"/>
<linearGradient id="SVGID_3_" gradientUnits="userSpaceOnUse" x1="16.6028" y1="44.5667" x2="16.6028" y2="57.6716">
	<stop  offset="0" style="stop-color:#BBD62B"/>
	<stop  offset="0.1452" style="stop-color:#B7D62B"/>
	<stop  offset="0.2917" style="stop-color:#ABD529"/>
	<stop  offset="0.4389" style="stop-color:#97D427"/>
	<stop  offset="0.5866" style="stop-color:#7AD225"/>
	<stop  offset="0.7348" style="stop-color:#56D021"/>
	<stop  offset="0.8812" style="stop-color:#2ACD1D"/>
	<stop  offset="1" style="stop-color:#00CB19"/>
</linearGradient>
<path fill="url(#SVGID_3_)" d="M16.819,44.567c1.242,0,0.66,11.506,0.392,12.689c-0.447,1.963-1.489-3.646-1.516-4.124
	C15.654,52.365,15.265,44.566,16.819,44.567"/>
<linearGradient id="SVGID_4_" gradientUnits="userSpaceOnUse" x1="76.2644" y1="57.6711" x2="76.2644" y2="44.5671">
	<stop  offset="0" style="stop-color:#133B0D"/>
	<stop  offset="0.1331" style="stop-color:#12410E"/>
	<stop  offset="0.3134" style="stop-color:#10520F"/>
	<stop  offset="0.5209" style="stop-color:#0C6F11"/>
	<stop  offset="0.7485" style="stop-color:#079615"/>
	<stop  offset="0.9901" style="stop-color:#00C919"/>
	<stop  offset="1" style="stop-color:#00CB19"/>
</linearGradient>
<path fill="url(#SVGID_4_)" d="M76.48,44.567c1.242,0,0.659,11.506,0.393,12.689c-0.448,1.963-1.488-3.646-1.515-4.124
	C75.316,52.365,74.928,44.566,76.48,44.567"/>
<linearGradient id="SVGID_5_" gradientUnits="userSpaceOnUse" x1="17.1169" y1="44.1028" x2="76.2234" y2="44.1028">
	<stop  offset="0" style="stop-color:#BBD62B"/>
	<stop  offset="0.0071" style="stop-color:#B9D62B"/>
	<stop  offset="0.2003" style="stop-color:#81D325"/>
	<stop  offset="0.3881" style="stop-color:#53D021"/>
	<stop  offset="0.5662" style="stop-color:#2FCE1E"/>
	<stop  offset="0.7323" style="stop-color:#15CC1B"/>
	<stop  offset="0.8816" style="stop-color:#05CB1A"/>
	<stop  offset="1" style="stop-color:#00CB19"/>
</linearGradient>
<path fill="url(#SVGID_5_)" d="M17.117,43.813c0.005-0.902,59.104-0.722,59.106,0.001C76.223,44.586,17.128,46.053,17.117,43.813"/>
<linearGradient id="SVGID_6_" gradientUnits="userSpaceOnUse" x1="76.4919" y1="57.4573" x2="17.5315" y2="57.4573">
	<stop  offset="0" style="stop-color:#004222"/>
	<stop  offset="0.2748" style="stop-color:#006420"/>
	<stop  offset="0.8786" style="stop-color:#00B91A"/>
	<stop  offset="1" style="stop-color:#00CB19"/>
</linearGradient>
<path fill="url(#SVGID_6_)" d="M17.531,57.16c-0.004-0.901,37.012-0.507,40.041-0.503c5.664,0.008,12.458-0.177,17.957,0.274
	c4.246,0.35-6.886,0.906-7.51,0.928C62.93,58.03,17.513,59.197,17.531,57.16"/>
</svg>
