<?xml version="1.0" encoding="utf-8"?>
<!-- Generator: Adobe Illustrator 17.1.0, SVG Export Plug-In . SVG Version: 6.00 Build 0)  -->
<!DOCTYPE svg PUBLIC "-//W3C//DTD SVG 1.1//EN" "http://www.w3.org/Graphics/SVG/1.1/DTD/svg11.dtd">
<svg version="1.1" xmlns="http://www.w3.org/2000/svg" xmlns:xlink="http://www.w3.org/1999/xlink" x="0px" y="0px" width="350px"
	 height="358px" viewBox="0 0 350 358" enable-background="new 0 0 350 358" xml:space="preserve">
<g id="normal">
	<g>
		
			<linearGradient id="SVGID_1_" gradientUnits="userSpaceOnUse" x1="175.0078" y1="5.5" x2="175.0078" y2="352.5" gradientTransform="matrix(-1 0 0 1 350 0)">
			<stop  offset="0.55" style="stop-color:#000000"/>
			<stop  offset="1" style="stop-color:#191617"/>
		</linearGradient>
		<path opacity="0.27" fill-rule="evenodd" clip-rule="evenodd" fill="url(#SVGID_1_)" d="M9.125,352.5
			c-2.55,0-4.625-2.075-4.625-4.625V10.125C4.5,7.575,6.575,5.5,9.125,5.5H298.01c2.12,0,3.964,1.436,4.483,3.491L345.484,179
			l-42.991,170.009c-0.52,2.056-2.363,3.491-4.483,3.491H9.125z"/>
		<path fill="#555655" d="M298.01,6c1.891,0,3.536,1.28,3.999,3.114L344.969,179l-42.96,169.886
			c-0.464,1.833-2.108,3.114-3.999,3.114H9.125C6.85,352,5,350.15,5,347.875V10.125C5,7.85,6.85,6,9.125,6H298.01 M298.01,5H9.125
			C6.295,5,4,7.295,4,10.125v337.75C4,350.705,6.295,353,9.125,353H298.01c2.347,0,4.393-1.594,4.969-3.869L346,179L302.978,8.869
			C302.403,6.594,300.356,5,298.01,5L298.01,5z"/>
	</g>
</g>
<g id="active">
	<g>
		<path fill-rule="evenodd" clip-rule="evenodd" fill="#454248" d="M9.125,352.5c-2.55,0-4.625-2.075-4.625-4.625V10.125
			C4.5,7.575,6.575,5.5,9.125,5.5H298.01c2.12,0,3.964,1.436,4.483,3.491L345.484,179l-42.991,170.009
			c-0.52,2.056-2.363,3.491-4.483,3.491H9.125z"/>
		<path fill="#555655" d="M298.01,6c1.891,0,3.536,1.28,3.999,3.114L344.969,179l-42.96,169.886
			c-0.464,1.833-2.108,3.114-3.999,3.114H9.125C6.85,352,5,350.15,5,347.875V10.125C5,7.85,6.85,6,9.125,6H298.01 M298.01,5H9.125
			C6.295,5,4,7.295,4,10.125v337.75C4,350.705,6.295,353,9.125,353H298.01c2.347,0,4.393-1.594,4.969-3.869L346,179L302.978,8.869
			C302.403,6.594,300.356,5,298.01,5L298.01,5z"/>
	</g>
</g>
<g id="disabled">
	<g>
		
			<linearGradient id="SVGID_2_" gradientUnits="userSpaceOnUse" x1="175.0078" y1="5.5" x2="175.0078" y2="352.5" gradientTransform="matrix(-1 0 0 1 350 0)">
			<stop  offset="0.55" style="stop-color:#000000"/>
			<stop  offset="1" style="stop-color:#191617"/>
		</linearGradient>
		<path opacity="0.33" fill-rule="evenodd" clip-rule="evenodd" fill="url(#SVGID_2_)" d="M9.125,352.5
			c-2.55,0-4.625-2.075-4.625-4.625V10.125C4.5,7.575,6.575,5.5,9.125,5.5H298.01c2.12,0,3.964,1.436,4.483,3.491L345.484,179
			l-42.991,170.009c-0.52,2.056-2.363,3.491-4.483,3.491H9.125z"/>
		<path fill="#555655" d="M298.01,6c1.891,0,3.536,1.28,3.999,3.114L344.969,179l-42.96,169.886
			c-0.464,1.833-2.108,3.114-3.999,3.114H9.125C6.85,352,5,350.15,5,347.875V10.125C5,7.85,6.85,6,9.125,6H298.01 M298.01,5H9.125
			C6.295,5,4,7.295,4,10.125v337.75C4,350.705,6.295,353,9.125,353H298.01c2.347,0,4.393-1.594,4.969-3.869L346,179L302.978,8.869
			C302.403,6.594,300.356,5,298.01,5L298.01,5z"/>
	</g>
</g>
</svg>
