<?xml version="1.0" encoding="utf-8"?>
<!-- Generator: Adobe Illustrator 18.0.0, SVG Export Plug-In . SVG Version: 6.00 Build 0)  -->
<!DOCTYPE svg PUBLIC "-//W3C//DTD SVG 1.1//EN" "http://www.w3.org/Graphics/SVG/1.1/DTD/svg11.dtd">
<svg version="1.1" xmlns="http://www.w3.org/2000/svg" xmlns:xlink="http://www.w3.org/1999/xlink" x="0px" y="0px" width="354px"
	 height="120px" viewBox="0 0 354 120" enable-background="new 0 0 354 120" xml:space="preserve">
<g id="normal">
	<g>
		<linearGradient id="SVGID_1_" gradientUnits="userSpaceOnUse" x1="177.0011" y1="9" x2="177.0011" y2="111.1665">
			<stop  offset="0.55" style="stop-color:#000000;stop-opacity:0.08"/>
			<stop  offset="1" style="stop-color:#191617;stop-opacity:0.35"/>
		</linearGradient>
		<path fill-rule="evenodd" clip-rule="evenodd" fill="url(#SVGID_1_)" d="M44.107,111.167c-2.78,0-5.45-1.317-7.142-3.523
			L3.238,63.658c-1.65-2.153-1.648-5.159,0.006-7.309l33.72-43.836C38.656,10.313,41.323,9,44.098,9H351c0.551,0,1,0.449,1,1
			v100.167c0,0.551-0.449,1-1,1H44.107z"/>
		<path fill="#4A4A4A" d="M351,10v100.167H44.107c-2.471,0-4.845-1.171-6.348-3.132L4.032,63.049
			c-1.376-1.794-1.374-4.299,0.005-6.091l33.72-43.836C39.261,11.167,41.631,10,44.098,10H351 M351,8H44.098
			c-3.105,0-6.033,1.442-7.926,3.903L2.452,55.739c-1.933,2.513-1.936,6.011-0.007,8.527l33.727,43.985
			c1.892,2.468,4.826,3.915,7.936,3.915H351c1.105,0,2-0.895,2-2V10C353,8.895,352.105,8,351,8L351,8z"/>
	</g>
</g>
<g id="active">
	<g>
		<path fill-rule="evenodd" clip-rule="evenodd" fill="#454248" d="M44.107,111.167c-2.78,0-5.45-1.317-7.142-3.523L3.238,63.658
			c-1.65-2.153-1.648-5.159,0.006-7.309l33.72-43.836C38.656,10.313,41.323,9,44.098,9H351c0.551,0,1,0.449,1,1v100.167
			c0,0.551-0.449,1-1,1H44.107z"/>
		<path fill="#454248" d="M351,10v100.167H44.107c-2.471,0-4.845-1.171-6.348-3.132L4.032,63.049
			c-1.376-1.794-1.374-4.299,0.005-6.091l33.72-43.836C39.261,11.167,41.631,10,44.098,10H351 M351,8H44.098
			c-3.105,0-6.033,1.442-7.926,3.903L2.452,55.739c-1.933,2.513-1.936,6.011-0.007,8.527l33.727,43.985
			c1.892,2.468,4.826,3.915,7.936,3.915H351c1.105,0,2-0.895,2-2V10C353,8.895,352.105,8,351,8L351,8z"/>
	</g>
</g>
<g id="disabled">
	<g opacity="0.2">
		<linearGradient id="SVGID_2_" gradientUnits="userSpaceOnUse" x1="177.0011" y1="9" x2="177.0011" y2="111.1665">
			<stop  offset="0.55" style="stop-color:#000000;stop-opacity:0.08"/>
			<stop  offset="1" style="stop-color:#191617;stop-opacity:0.35"/>
		</linearGradient>
		<path fill-rule="evenodd" clip-rule="evenodd" fill="url(#SVGID_2_)" d="M44.107,111.167c-2.78,0-5.45-1.317-7.142-3.523
			L3.238,63.658c-1.65-2.153-1.648-5.159,0.006-7.309l33.72-43.836C38.656,10.313,41.323,9,44.098,9H351c0.551,0,1,0.449,1,1
			v100.167c0,0.551-0.449,1-1,1H44.107z"/>
		<path fill="#4A4A4A" d="M351,10v100.167H44.107c-2.471,0-4.845-1.171-6.348-3.132L4.032,63.049
			c-1.376-1.794-1.374-4.299,0.005-6.091l33.72-43.836C39.261,11.167,41.631,10,44.098,10H351 M351,8H44.098
			c-3.105,0-6.033,1.442-7.926,3.903L2.452,55.739c-1.933,2.513-1.936,6.011-0.007,8.527l33.727,43.985
			c1.892,2.468,4.826,3.915,7.936,3.915H351c1.105,0,2-0.895,2-2V10C353,8.895,352.105,8,351,8L351,8z"/>
	</g>
</g>
</svg>
