<?xml version="1.0" encoding="utf-8"?>
<!-- Generator: Adobe Illustrator 16.0.2, SVG Export Plug-In . SVG Version: 6.00 Build 0)  -->
<!DOCTYPE svg PUBLIC "-//W3C//DTD SVG 1.1//EN" "http://www.w3.org/Graphics/SVG/1.1/DTD/svg11.dtd">
<svg version="1.1" id="Layer_1" xmlns="http://www.w3.org/2000/svg" xmlns:xlink="http://www.w3.org/1999/xlink" x="0px" y="0px"
	 width="120px" height="120px" viewBox="0 0 120 120" enable-background="new 0 0 120 120" xml:space="preserve">
<g id="black_white">
	<g>
		<g>
			<path fill="#FFFFFF" d="M32.812,58.052c-1.891,1.891-3.061,4.504-3.061,7.389v39.164h20.9V69.771l20.274-20.274L56.146,34.718
				L32.812,58.052z M88.096,15.415l-40.896,6.12c-1.523,0.228-2.137,2.092-1.049,3.181l34.778,34.777
				c1.088,1.089,2.952,0.474,3.18-1.049l6.121-40.897C90.414,16.301,89.342,15.229,88.096,15.415z"/>
		</g>
	</g>
</g>
<g id="blue">
	<path fill-opacity="0.1" d="M30.996,107.788c-1.658,0-3-1.343-3-3c0,0,0-35.149,0-35.646c-0.095-0.6-0.143-1.205-0.143-1.803
		c0-3.244,1.353-6.23,4.021-8.882C38.28,52.1,47.601,42.999,53.727,37.033c-2.598-2.598-7.46-7.46-7.708-7.708
		c-0.173-0.133-0.338-0.278-0.493-0.432c-0.964-0.966-1.495-2.247-1.495-3.61c0-1.368,0.532-2.65,1.499-3.613
		c0.966-0.962,2.246-1.491,3.605-1.491c0.109,0,0.218,0.005,0.327,0.011c0.762-0.117,39.438-6.02,39.646-6.052
		c0.392-0.095,0.793-0.143,1.197-0.143c1.363,0,2.646,0.53,3.61,1.494c0.964,0.966,1.494,2.247,1.494,3.61
		c0,0.433-0.056,0.858-0.16,1.271c-0.056,0.369-1.955,13.296-1.955,13.296s-3.79,25.785-3.894,26.498
		c0.004,0.096,0.008,0.191,0.008,0.289c0,1.359-0.528,2.641-1.491,3.605c-0.962,0.967-2.245,1.498-3.61,1.498
		c-1.363,0-2.645-0.529-3.609-1.494c-0.157-0.156-0.303-0.322-0.436-0.496c-0.103-0.102-5.519-5.518-8.182-8.18
		c-0.661,0.662-15.519,15.527-17.077,17.084c0,2.305,0,32.316,0,32.316c0,1.658-1.342,3-3,3L30.996,107.788"/>
	<path fill="#70B7E0" d="M28.996,105.788c-1.658,0-3-1.343-3-3c0,0,0-35.149,0-35.646c-0.095-0.6-0.143-1.205-0.143-1.803
		c0-3.244,1.353-6.23,4.021-8.882C36.28,50.1,45.601,40.999,51.727,35.033c-2.598-2.598-7.46-7.46-7.708-7.708
		c-0.173-0.133-0.338-0.278-0.493-0.432c-0.964-0.966-1.495-2.247-1.495-3.61c0-1.368,0.532-2.65,1.499-3.613
		c0.966-0.962,2.246-1.491,3.605-1.491c0.109,0,0.218,0.005,0.327,0.011c0.762-0.117,39.438-6.02,39.646-6.052
		c0.392-0.095,0.793-0.143,1.197-0.143c1.363,0,2.646,0.53,3.61,1.494c0.964,0.966,1.494,2.247,1.494,3.61
		c0,0.433-0.056,0.858-0.16,1.271c-0.056,0.369-1.955,13.296-1.955,13.296s-3.79,25.785-3.894,26.497
		c0.004,0.096,0.008,0.192,0.008,0.29c0,1.359-0.528,2.639-1.491,3.605c-0.962,0.967-2.245,1.498-3.61,1.498
		c-1.363,0-2.645-0.529-3.609-1.494c-0.157-0.156-0.303-0.322-0.436-0.496c-0.103-0.102-5.519-5.518-8.182-8.18
		c-0.661,0.662-15.519,15.527-17.077,17.084c0,2.305,0,32.316,0,32.316c0,1.658-1.342,3-3,3L28.996,105.788"/>
	
		<linearGradient id="SVGID_1_" gradientUnits="userSpaceOnUse" x1="297.2324" y1="-342.688" x2="297.2324" y2="-254.8955" gradientTransform="matrix(1 0 0 -1 -237.5996 -239.9004)">
		<stop  offset="0" style="stop-color:#48A2FB"/>
		<stop  offset="0.1758" style="stop-color:#059CF4"/>
		<stop  offset="0.4969" style="stop-color:#0398EF"/>
		<stop  offset="0.782" style="stop-color:#0293E7"/>
		<stop  offset="1" style="stop-color:#0189D8"/>
	</linearGradient>
	<path fill="url(#SVGID_1_)" d="M84.259,58.91l-3.812,0.599L45.968,25.03l0.778-3.696l40.918-6.246l2.674,2.45L84.259,58.91
		L84.259,58.91z M83.793,59.941c-0.82,0.82-2.152,0.82-2.975,0c-0.821-0.821-0.821-2.154,0-2.977c0.822-0.822,2.152-0.822,2.975,0
		C84.613,57.787,84.613,59.12,83.793,59.941L83.793,59.941z M48.622,24.771c-0.821,0.821-2.152,0.821-2.974,0
		c-0.821-0.822-0.821-2.154,0-2.976c0.822-0.822,2.153-0.822,2.974,0C49.444,22.616,49.444,23.949,48.622,24.771L48.622,24.771z
		 M89.794,18.587c-0.821,0.822-2.153,0.822-2.976,0c-0.821-0.821-0.821-2.154,0-2.976c0.82-0.821,2.154-0.821,2.976,0
		C90.615,16.433,90.615,17.766,89.794,18.587L89.794,18.587z M28.996,102.788V66.197l21.009-11.989v48.58H28.996L28.996,102.788z
		 M39.596,79.645l-7.633-7.051c0,0-7.015-7.017,0.025-14.006c10.054-9.982,27.499-26.92,27.499-26.92L73.52,45.701L39.596,79.645
		L39.596,79.645z"/>
	
		<linearGradient id="SVGID_2_" gradientUnits="userSpaceOnUse" x1="306.5293" y1="-273.0874" x2="306.5293" y2="-256.1533" gradientTransform="matrix(1 0 0 -1 -237.5996 -239.9004)">
		<stop  offset="0" style="stop-color:#FFFFFF;stop-opacity:0"/>
		<stop  offset="1" style="stop-color:#FFFFFF;stop-opacity:0.8"/>
	</linearGradient>
	<path fill="url(#SVGID_2_)" d="M87.018,16.253c0,0-37.449,5.753-38.552,6.248c34.81-5.035,39.362,10.686,39.362,10.686l1.563-14.98
		L87.018,16.253L87.018,16.253z"/>
</g>
<g id="green">
	<path fill-opacity="0.1" d="M30.996,107.788c-1.658,0-3-1.343-3-3c0,0,0-35.149,0-35.646c-0.095-0.6-0.143-1.205-0.143-1.803
		c0-3.244,1.353-6.23,4.021-8.882C38.28,52.1,47.601,42.999,53.727,37.033c-2.598-2.598-7.46-7.46-7.708-7.708
		c-0.173-0.133-0.338-0.278-0.493-0.432c-0.964-0.966-1.495-2.247-1.495-3.61c0-1.368,0.532-2.65,1.499-3.613
		c0.966-0.962,2.246-1.491,3.605-1.491c0.109,0,0.218,0.005,0.327,0.011c0.762-0.117,39.438-6.02,39.646-6.052
		c0.392-0.095,0.793-0.143,1.197-0.143c1.363,0,2.646,0.53,3.61,1.494c0.964,0.966,1.494,2.247,1.494,3.61
		c0,0.433-0.056,0.858-0.16,1.271c-0.056,0.369-1.955,13.296-1.955,13.296s-3.79,25.785-3.894,26.498
		c0.004,0.096,0.008,0.191,0.008,0.289c0,1.359-0.528,2.641-1.491,3.605c-0.962,0.967-2.245,1.498-3.61,1.498
		c-1.363,0-2.645-0.529-3.609-1.494c-0.157-0.156-0.303-0.322-0.436-0.496c-0.103-0.102-5.519-5.518-8.182-8.18
		c-0.661,0.662-15.519,15.527-17.077,17.084c0,2.305,0,32.316,0,32.316c0,1.658-1.342,3-3,3L30.996,107.788"/>
	<path fill="#03FC30" d="M28.996,105.788c-1.658,0-3-1.343-3-3c0,0,0-35.149,0-35.646c-0.095-0.6-0.143-1.205-0.143-1.803
		c0-3.244,1.353-6.23,4.021-8.882C36.28,50.1,45.601,40.999,51.727,35.033c-2.598-2.598-7.46-7.46-7.708-7.708
		c-0.173-0.133-0.338-0.278-0.493-0.432c-0.964-0.966-1.495-2.247-1.495-3.61c0-1.368,0.532-2.65,1.499-3.613
		c0.966-0.962,2.246-1.491,3.605-1.491c0.109,0,0.218,0.005,0.327,0.011c0.762-0.117,39.438-6.02,39.646-6.052
		c0.392-0.095,0.793-0.143,1.197-0.143c1.363,0,2.646,0.53,3.61,1.494c0.964,0.966,1.494,2.247,1.494,3.61
		c0,0.433-0.056,0.858-0.16,1.271c-0.056,0.369-1.955,13.296-1.955,13.296s-3.79,25.785-3.894,26.497
		c0.004,0.096,0.008,0.192,0.008,0.29c0,1.359-0.528,2.639-1.491,3.605c-0.962,0.967-2.245,1.498-3.61,1.498
		c-1.363,0-2.645-0.529-3.609-1.494c-0.157-0.156-0.303-0.322-0.436-0.496c-0.103-0.102-5.519-5.518-8.182-8.18
		c-0.661,0.662-15.519,15.527-17.077,17.084c0,2.305,0,32.316,0,32.316c0,1.658-1.342,3-3,3L28.996,105.788"/>
	
		<linearGradient id="SVGID_3_" gradientUnits="userSpaceOnUse" x1="297.2324" y1="-342.688" x2="297.2324" y2="-254.8955" gradientTransform="matrix(1 0 0 -1 -237.5996 -239.9004)">
		<stop  offset="0" style="stop-color:#00DF34"/>
		<stop  offset="0.1758" style="stop-color:#00CD26"/>
		<stop  offset="0.4969" style="stop-color:#00B211"/>
		<stop  offset="0.782" style="stop-color:#00A204"/>
		<stop  offset="1" style="stop-color:#009C00"/>
	</linearGradient>
	<path fill="url(#SVGID_3_)" d="M84.259,58.91l-3.812,0.599L45.968,25.03l0.778-3.696l40.918-6.246l2.674,2.45L84.259,58.91
		L84.259,58.91z M83.793,59.941c-0.82,0.82-2.152,0.82-2.975,0c-0.821-0.821-0.821-2.154,0-2.977c0.822-0.822,2.152-0.822,2.975,0
		C84.613,57.787,84.613,59.12,83.793,59.941L83.793,59.941z M48.622,24.771c-0.821,0.821-2.152,0.821-2.974,0
		c-0.821-0.822-0.821-2.154,0-2.976c0.822-0.822,2.153-0.822,2.974,0C49.444,22.616,49.444,23.949,48.622,24.771L48.622,24.771z
		 M89.794,18.587c-0.821,0.822-2.153,0.822-2.976,0c-0.821-0.821-0.821-2.154,0-2.976c0.82-0.821,2.154-0.821,2.976,0
		C90.615,16.433,90.615,17.766,89.794,18.587L89.794,18.587z M28.996,102.788V66.197l21.009-11.989v48.58H28.996L28.996,102.788z
		 M39.596,79.645l-7.633-7.051c0,0-7.015-7.017,0.025-14.006c10.054-9.982,27.499-26.92,27.499-26.92L73.52,45.701L39.596,79.645
		L39.596,79.645z"/>
	
		<linearGradient id="SVGID_4_" gradientUnits="userSpaceOnUse" x1="306.5293" y1="-273.0874" x2="306.5293" y2="-256.1533" gradientTransform="matrix(1 0 0 -1 -237.5996 -239.9004)">
		<stop  offset="0" style="stop-color:#FFFFFF;stop-opacity:0"/>
		<stop  offset="1" style="stop-color:#FFFFFF;stop-opacity:0.8"/>
	</linearGradient>
	<path fill="url(#SVGID_4_)" d="M87.018,16.253c0,0-37.449,5.753-38.552,6.248c34.81-5.035,39.362,10.686,39.362,10.686l1.563-14.98
		L87.018,16.253L87.018,16.253z"/>
</g>
<g id="kia">
	<path fill-opacity="0.1" d="M30.996,107.788c-1.658,0-3-1.343-3-3c0,0,0-35.149,0-35.646c-0.095-0.6-0.143-1.205-0.143-1.803
		c0-3.244,1.353-6.23,4.021-8.882C38.28,52.1,47.601,42.999,53.727,37.033c-2.598-2.598-7.46-7.46-7.708-7.708
		c-0.173-0.133-0.338-0.278-0.493-0.432c-0.964-0.966-1.495-2.247-1.495-3.61c0-1.368,0.532-2.65,1.499-3.613
		c0.966-0.962,2.246-1.491,3.605-1.491c0.109,0,0.218,0.005,0.327,0.011c0.762-0.117,39.438-6.02,39.646-6.052
		c0.392-0.095,0.793-0.143,1.197-0.143c1.363,0,2.646,0.53,3.61,1.494c0.964,0.966,1.494,2.247,1.494,3.61
		c0,0.433-0.056,0.858-0.16,1.271c-0.056,0.369-1.955,13.296-1.955,13.296s-3.79,25.785-3.894,26.498
		c0.004,0.096,0.008,0.191,0.008,0.289c0,1.359-0.528,2.641-1.491,3.605c-0.962,0.967-2.245,1.498-3.61,1.498
		c-1.363,0-2.645-0.529-3.609-1.494c-0.157-0.156-0.303-0.322-0.436-0.496c-0.103-0.102-5.519-5.518-8.182-8.18
		c-0.661,0.662-15.519,15.527-17.077,17.084c0,2.305,0,32.316,0,32.316c0,1.658-1.342,3-3,3L30.996,107.788"/>
	<path fill="#000000" d="M28.996,105.788c-1.658,0-3-1.343-3-3c0,0,0-35.149,0-35.646c-0.095-0.6-0.143-1.205-0.143-1.803
		c0-3.244,1.353-6.23,4.021-8.882C36.28,50.1,45.601,40.999,51.727,35.033c-2.598-2.598-7.46-7.46-7.708-7.708
		c-0.173-0.133-0.338-0.278-0.493-0.432c-0.964-0.966-1.495-2.247-1.495-3.61c0-1.368,0.532-2.65,1.499-3.613
		c0.966-0.962,2.246-1.491,3.605-1.491c0.109,0,0.218,0.005,0.327,0.011c0.762-0.117,39.438-6.02,39.646-6.052
		c0.392-0.095,0.793-0.143,1.197-0.143c1.363,0,2.646,0.53,3.61,1.494c0.964,0.966,1.494,2.247,1.494,3.61
		c0,0.433-0.056,0.858-0.16,1.271c-0.056,0.369-1.955,13.296-1.955,13.296s-3.79,25.785-3.894,26.497
		c0.004,0.096,0.008,0.192,0.008,0.29c0,1.359-0.528,2.639-1.491,3.605c-0.962,0.967-2.245,1.498-3.61,1.498
		c-1.363,0-2.645-0.529-3.609-1.494c-0.157-0.156-0.303-0.322-0.436-0.496c-0.103-0.102-5.519-5.518-8.182-8.18
		c-0.661,0.662-15.519,15.527-17.077,17.084c0,2.305,0,32.316,0,32.316c0,1.658-1.342,3-3,3L28.996,105.788"/>
	
		<linearGradient id="SVGID_5_" gradientUnits="userSpaceOnUse" x1="297.2324" y1="-342.688" x2="297.2324" y2="-254.8955" gradientTransform="matrix(1 0 0 -1 -237.5996 -239.9004)">
		<stop  offset="0" style="stop-color:#FFFFFF"/>
		<stop  offset="0.1758" style="stop-color:#E7E9EA"/>
		<stop  offset="0.4969" style="stop-color:#CDD2D5"/>
		<stop  offset="0.782" style="stop-color:#C5CACC"/>
		<stop  offset="1" style="stop-color:#BABDC0"/>
	</linearGradient>
	<path fill="url(#SVGID_5_)" d="M84.259,58.91l-3.812,0.599L45.968,25.03l0.778-3.696l40.918-6.246l2.674,2.45L84.259,58.91
		L84.259,58.91z M83.793,59.941c-0.82,0.82-2.152,0.82-2.975,0c-0.821-0.821-0.821-2.154,0-2.977c0.822-0.822,2.152-0.822,2.975,0
		C84.613,57.787,84.613,59.12,83.793,59.941L83.793,59.941z M48.622,24.771c-0.821,0.821-2.152,0.821-2.974,0
		c-0.821-0.822-0.821-2.154,0-2.976c0.822-0.822,2.153-0.822,2.974,0C49.444,22.616,49.444,23.949,48.622,24.771L48.622,24.771z
		 M89.794,18.587c-0.821,0.822-2.153,0.822-2.976,0c-0.821-0.821-0.821-2.154,0-2.976c0.82-0.821,2.154-0.821,2.976,0
		C90.615,16.433,90.615,17.766,89.794,18.587L89.794,18.587z M28.996,102.788V66.197l21.009-11.989v48.58H28.996L28.996,102.788z
		 M39.596,79.645l-7.633-7.051c0,0-7.015-7.017,0.025-14.006c10.054-9.982,27.499-26.92,27.499-26.92L73.52,45.701L39.596,79.645
		L39.596,79.645z"/>
	
		<linearGradient id="SVGID_6_" gradientUnits="userSpaceOnUse" x1="306.5293" y1="-273.0874" x2="306.5293" y2="-256.1533" gradientTransform="matrix(1 0 0 -1 -237.5996 -239.9004)">
		<stop  offset="0" style="stop-color:#FFFFFF;stop-opacity:0"/>
		<stop  offset="1" style="stop-color:#FFFFFF;stop-opacity:0.8"/>
	</linearGradient>
	<path fill="url(#SVGID_6_)" d="M87.018,16.253c0,0-37.449,5.753-38.552,6.248c34.81-5.035,39.362,10.686,39.362,10.686l1.563-14.98
		L87.018,16.253L87.018,16.253z"/>
</g>
<g id="orange">
	<path fill-opacity="0.1" d="M30.996,107.788c-1.658,0-3-1.343-3-3c0,0,0-35.149,0-35.646c-0.095-0.6-0.143-1.205-0.143-1.803
		c0-3.244,1.353-6.23,4.021-8.882C38.28,52.1,47.601,42.999,53.727,37.033c-2.598-2.598-7.46-7.46-7.708-7.708
		c-0.173-0.133-0.338-0.278-0.493-0.432c-0.964-0.966-1.495-2.247-1.495-3.61c0-1.368,0.532-2.65,1.499-3.613
		c0.966-0.962,2.246-1.491,3.605-1.491c0.109,0,0.218,0.005,0.327,0.011c0.762-0.117,39.438-6.02,39.646-6.052
		c0.392-0.095,0.793-0.143,1.197-0.143c1.363,0,2.646,0.53,3.61,1.494c0.964,0.966,1.494,2.247,1.494,3.61
		c0,0.433-0.056,0.858-0.16,1.271c-0.056,0.369-1.955,13.296-1.955,13.296s-3.79,25.785-3.894,26.498
		c0.004,0.096,0.008,0.191,0.008,0.289c0,1.359-0.528,2.641-1.491,3.605c-0.962,0.967-2.245,1.498-3.61,1.498
		c-1.363,0-2.645-0.529-3.609-1.494c-0.157-0.156-0.303-0.322-0.436-0.496c-0.103-0.102-5.519-5.518-8.182-8.18
		c-0.661,0.662-15.519,15.527-17.077,17.084c0,2.305,0,32.316,0,32.316c0,1.658-1.342,3-3,3L30.996,107.788"/>
	<path fill="#FFE035" d="M28.996,105.788c-1.658,0-3-1.343-3-3c0,0,0-35.149,0-35.646c-0.095-0.6-0.143-1.205-0.143-1.803
		c0-3.244,1.353-6.23,4.021-8.882C36.28,50.1,45.601,40.999,51.727,35.033c-2.598-2.598-7.46-7.46-7.708-7.708
		c-0.173-0.133-0.338-0.278-0.493-0.432c-0.964-0.966-1.495-2.247-1.495-3.61c0-1.368,0.532-2.65,1.499-3.613
		c0.966-0.962,2.246-1.491,3.605-1.491c0.109,0,0.218,0.005,0.327,0.011c0.762-0.117,39.438-6.02,39.646-6.052
		c0.392-0.095,0.793-0.143,1.197-0.143c1.363,0,2.646,0.53,3.61,1.494c0.964,0.966,1.494,2.247,1.494,3.61
		c0,0.433-0.056,0.858-0.16,1.271c-0.056,0.369-1.955,13.296-1.955,13.296s-3.79,25.785-3.894,26.497
		c0.004,0.096,0.008,0.192,0.008,0.29c0,1.359-0.528,2.639-1.491,3.605c-0.962,0.967-2.245,1.498-3.61,1.498
		c-1.363,0-2.645-0.529-3.609-1.494c-0.157-0.156-0.303-0.322-0.436-0.496c-0.103-0.102-5.519-5.518-8.182-8.18
		c-0.661,0.662-15.519,15.527-17.077,17.084c0,2.305,0,32.316,0,32.316c0,1.658-1.342,3-3,3L28.996,105.788"/>
	
		<linearGradient id="SVGID_7_" gradientUnits="userSpaceOnUse" x1="297.2324" y1="-342.688" x2="297.2324" y2="-254.8955" gradientTransform="matrix(1 0 0 -1 -237.5996 -239.9004)">
		<stop  offset="0" style="stop-color:#FEDF34"/>
		<stop  offset="0.1758" style="stop-color:#FECD26"/>
		<stop  offset="0.4969" style="stop-color:#FFB211"/>
		<stop  offset="0.782" style="stop-color:#FFA204"/>
		<stop  offset="1" style="stop-color:#FF9C00"/>
	</linearGradient>
	<path fill="url(#SVGID_7_)" d="M84.259,58.91l-3.812,0.599L45.968,25.03l0.778-3.696l40.918-6.246l2.674,2.45L84.259,58.91
		L84.259,58.91z M83.793,59.941c-0.82,0.82-2.152,0.82-2.975,0c-0.821-0.821-0.821-2.154,0-2.977c0.822-0.822,2.152-0.822,2.975,0
		C84.613,57.787,84.613,59.12,83.793,59.941L83.793,59.941z M48.622,24.771c-0.821,0.821-2.152,0.821-2.974,0
		c-0.821-0.822-0.821-2.154,0-2.976c0.822-0.822,2.153-0.822,2.974,0C49.444,22.616,49.444,23.949,48.622,24.771L48.622,24.771z
		 M89.794,18.587c-0.821,0.822-2.153,0.822-2.976,0c-0.821-0.821-0.821-2.154,0-2.976c0.82-0.821,2.154-0.821,2.976,0
		C90.615,16.433,90.615,17.766,89.794,18.587L89.794,18.587z M28.996,102.788V66.197l21.009-11.989v48.58H28.996L28.996,102.788z
		 M39.596,79.645l-7.633-7.051c0,0-7.015-7.017,0.025-14.006c10.054-9.982,27.499-26.92,27.499-26.92L73.52,45.701L39.596,79.645
		L39.596,79.645z"/>
	
		<linearGradient id="SVGID_8_" gradientUnits="userSpaceOnUse" x1="306.5293" y1="-273.0874" x2="306.5293" y2="-256.1533" gradientTransform="matrix(1 0 0 -1 -237.5996 -239.9004)">
		<stop  offset="0" style="stop-color:#FFFFFF;stop-opacity:0"/>
		<stop  offset="1" style="stop-color:#FFFFFF;stop-opacity:0.8"/>
	</linearGradient>
	<path fill="url(#SVGID_8_)" d="M87.018,16.253c0,0-37.449,5.753-38.552,6.248c34.81-5.035,39.362,10.686,39.362,10.686l1.563-14.98
		L87.018,16.253L87.018,16.253z"/>
</g>
<g id="red">
	<path fill-opacity="0.1" d="M30.996,107.788c-1.658,0-3-1.343-3-3c0,0,0-35.149,0-35.646c-0.095-0.6-0.143-1.205-0.143-1.803
		c0-3.244,1.353-6.23,4.021-8.882C38.28,52.1,47.601,42.999,53.727,37.033c-2.598-2.598-7.46-7.46-7.708-7.708
		c-0.173-0.133-0.338-0.278-0.493-0.432c-0.964-0.966-1.495-2.247-1.495-3.61c0-1.368,0.532-2.65,1.499-3.613
		c0.966-0.962,2.246-1.491,3.605-1.491c0.109,0,0.218,0.005,0.327,0.011c0.762-0.117,39.438-6.02,39.646-6.052
		c0.392-0.095,0.793-0.143,1.197-0.143c1.363,0,2.646,0.53,3.61,1.494c0.964,0.966,1.494,2.247,1.494,3.61
		c0,0.433-0.056,0.858-0.16,1.271c-0.056,0.369-1.955,13.296-1.955,13.296s-3.79,25.785-3.894,26.498
		c0.004,0.096,0.008,0.191,0.008,0.289c0,1.359-0.528,2.641-1.491,3.605c-0.962,0.967-2.245,1.498-3.61,1.498
		c-1.363,0-2.645-0.529-3.609-1.494c-0.157-0.156-0.303-0.322-0.436-0.496c-0.103-0.102-5.519-5.518-8.182-8.18
		c-0.661,0.662-15.519,15.527-17.077,17.084c0,2.305,0,32.316,0,32.316c0,1.658-1.342,3-3,3L30.996,107.788"/>
	<path fill="#FC7E7E" d="M28.996,105.788c-1.658,0-3-1.343-3-3c0,0,0-35.149,0-35.646c-0.095-0.6-0.143-1.205-0.143-1.803
		c0-3.244,1.353-6.23,4.021-8.882C36.28,50.1,45.601,40.999,51.727,35.033c-2.598-2.598-7.46-7.46-7.708-7.708
		c-0.173-0.133-0.338-0.278-0.493-0.432c-0.964-0.966-1.495-2.247-1.495-3.61c0-1.368,0.532-2.65,1.499-3.613
		c0.966-0.962,2.246-1.491,3.605-1.491c0.109,0,0.218,0.005,0.327,0.011c0.762-0.117,39.438-6.02,39.646-6.052
		c0.392-0.095,0.793-0.143,1.197-0.143c1.363,0,2.646,0.53,3.61,1.494c0.964,0.966,1.494,2.247,1.494,3.61
		c0,0.433-0.056,0.858-0.16,1.271c-0.056,0.369-1.955,13.296-1.955,13.296s-3.79,25.785-3.894,26.497
		c0.004,0.096,0.008,0.192,0.008,0.29c0,1.359-0.528,2.639-1.491,3.605c-0.962,0.967-2.245,1.498-3.61,1.498
		c-1.363,0-2.645-0.529-3.609-1.494c-0.157-0.156-0.303-0.322-0.436-0.496c-0.103-0.102-5.519-5.518-8.182-8.18
		c-0.661,0.662-15.519,15.527-17.077,17.084c0,2.305,0,32.316,0,32.316c0,1.658-1.342,3-3,3L28.996,105.788"/>
	
		<linearGradient id="SVGID_9_" gradientUnits="userSpaceOnUse" x1="297.2324" y1="-342.688" x2="297.2324" y2="-254.8955" gradientTransform="matrix(1 0 0 -1 -237.5996 -239.9004)">
		<stop  offset="0" style="stop-color:#FF0000"/>
		<stop  offset="0.1758" style="stop-color:#F60303"/>
		<stop  offset="0.4969" style="stop-color:#EC0404"/>
		<stop  offset="0.782" style="stop-color:#E30101"/>
		<stop  offset="1" style="stop-color:#D60202"/>
	</linearGradient>
	<path fill="url(#SVGID_9_)" d="M84.259,58.91l-3.812,0.599L45.968,25.03l0.778-3.696l40.918-6.246l2.674,2.45L84.259,58.91
		L84.259,58.91z M83.793,59.941c-0.82,0.82-2.152,0.82-2.975,0c-0.821-0.821-0.821-2.154,0-2.977c0.822-0.822,2.152-0.822,2.975,0
		C84.613,57.787,84.613,59.12,83.793,59.941L83.793,59.941z M48.622,24.771c-0.821,0.821-2.152,0.821-2.974,0
		c-0.821-0.822-0.821-2.154,0-2.976c0.822-0.822,2.153-0.822,2.974,0C49.444,22.616,49.444,23.949,48.622,24.771L48.622,24.771z
		 M89.794,18.587c-0.821,0.822-2.153,0.822-2.976,0c-0.821-0.821-0.821-2.154,0-2.976c0.82-0.821,2.154-0.821,2.976,0
		C90.615,16.433,90.615,17.766,89.794,18.587L89.794,18.587z M28.996,102.788V66.197l21.009-11.989v48.58H28.996L28.996,102.788z
		 M39.596,79.645l-7.633-7.051c0,0-7.015-7.017,0.025-14.006c10.054-9.982,27.499-26.92,27.499-26.92L73.52,45.701L39.596,79.645
		L39.596,79.645z"/>
	
		<linearGradient id="SVGID_10_" gradientUnits="userSpaceOnUse" x1="306.5293" y1="-273.0874" x2="306.5293" y2="-256.1533" gradientTransform="matrix(1 0 0 -1 -237.5996 -239.9004)">
		<stop  offset="0" style="stop-color:#FFFFFF;stop-opacity:0"/>
		<stop  offset="1" style="stop-color:#FFFFFF;stop-opacity:0.8"/>
	</linearGradient>
	<path fill="url(#SVGID_10_)" d="M87.018,16.253c0,0-37.449,5.753-38.552,6.248c34.81-5.035,39.362,10.686,39.362,10.686
		l1.563-14.98L87.018,16.253L87.018,16.253z"/>
</g>
</svg>
