<?xml version="1.0" encoding="iso-8859-1"?>
<!-- Generator: Adobe Illustrator 17.1.0, SVG Export Plug-In . SVG Version: 6.00 Build 0)  -->
<!DOCTYPE svg PUBLIC "-//W3C//DTD SVG 1.1//EN" "http://www.w3.org/Graphics/SVG/1.1/DTD/svg11.dtd">
<svg version="1.1" xmlns="http://www.w3.org/2000/svg" xmlns:xlink="http://www.w3.org/1999/xlink" x="0px" y="0px" width="120px"
	 height="120px" viewBox="0 0 120 120" enable-background="new 0 0 120 120" xml:space="preserve">
<g id="Layer_4" display="none">
	<circle display="inline" opacity="0.5" fill="#DF1F26" cx="60" cy="60" r="60"/>
	<rect x="6.5" y="6.5" display="inline" opacity="0.5" fill="#3B4FA1" width="107" height="107"/>
</g>
<g id="normal">
	<path fill="#FFFFFF" d="M109.933,108.744v2.378c0,1.314-1.064,2.378-2.378,2.378l-95.11,0c-1.314,0-2.378-1.064-2.378-2.378
		l0-2.378c0-1.314,1.064-2.378,2.378-2.378l95.11,0C108.869,106.367,109.933,107.431,109.933,108.744L109.933,108.744z
		 M31.091,42.167l-0.001,57.067c0.001,1.313-1.064,2.378-2.378,2.378l-16.268-0.001c-1.313,0.001-2.378-1.064-2.378-2.378
		l0.001-57.065c-0.001-1.313,1.064-2.378,2.378-2.378l16.268-0.001C30.027,39.79,31.092,40.853,31.091,42.167L31.091,42.167z
		 M57.373,18.39l-0.001,80.843c0,1.314-1.064,2.378-2.378,2.378l-16.268-0.001c-1.313,0.001-2.378-1.064-2.378-2.378L36.347,18.39
		c0-1.314,1.066-2.379,2.378-2.378l16.27,0.001C56.308,16.011,57.373,17.077,57.373,18.39L57.373,18.39z M83.652,56.433l0.001,42.8
		c0,1.314-1.066,2.379-2.378,2.378l-16.27,0.001c-1.314,0-2.379-1.066-2.378-2.378l0.001-42.801
		c-0.001-1.313,1.064-2.378,2.378-2.378l16.268-0.001C82.588,54.056,83.653,55.121,83.652,56.433L83.652,56.433z M109.933,8.879
		l0,90.354c0,1.314-1.064,2.378-2.378,2.378l-16.268,0.001c-1.314,0-2.378-1.064-2.378-2.378l0-90.356
		c-0.001-1.311,1.065-2.376,2.378-2.378l16.268,0.001C108.869,6.501,109.933,7.565,109.933,8.879L109.933,8.879z"/>
</g>
<g id="active">
	<path fill="#FFFFFF" d="M109.933,108.744v2.378c0,1.314-1.064,2.378-2.378,2.378l-95.11,0c-1.314,0-2.378-1.064-2.378-2.378
		l0-2.378c0-1.314,1.064-2.378,2.378-2.378l95.11,0C108.869,106.367,109.933,107.431,109.933,108.744L109.933,108.744z
		 M31.091,42.167l-0.001,57.067c0.001,1.313-1.064,2.378-2.378,2.378l-16.268-0.001c-1.313,0.001-2.378-1.064-2.378-2.378
		l0.001-57.065c-0.001-1.313,1.064-2.378,2.378-2.378l16.268-0.001C30.027,39.79,31.092,40.853,31.091,42.167L31.091,42.167z
		 M57.373,18.39l-0.001,80.843c0,1.314-1.064,2.378-2.378,2.378l-16.268-0.001c-1.313,0.001-2.378-1.064-2.378-2.378L36.347,18.39
		c0-1.314,1.066-2.379,2.378-2.378l16.27,0.001C56.308,16.011,57.373,17.077,57.373,18.39L57.373,18.39z M83.652,56.433l0.001,42.8
		c0,1.314-1.066,2.379-2.378,2.378l-16.27,0.001c-1.314,0-2.379-1.066-2.378-2.378l0.001-42.801
		c-0.001-1.313,1.064-2.378,2.378-2.378l16.268-0.001C82.588,54.056,83.653,55.121,83.652,56.433L83.652,56.433z M109.933,8.879
		l0,90.354c0,1.314-1.064,2.378-2.378,2.378l-16.268,0.001c-1.314,0-2.378-1.064-2.378-2.378l0-90.356
		c-0.001-1.311,1.065-2.376,2.378-2.378l16.268,0.001C108.869,6.501,109.933,7.565,109.933,8.879L109.933,8.879z"/>
</g>
<g id="disabled" opacity="0.2">
	<path fill="#FFFFFF" d="M109.933,108.744v2.378c0,1.314-1.064,2.378-2.378,2.378l-95.11,0c-1.314,0-2.378-1.064-2.378-2.378
		l0-2.378c0-1.314,1.064-2.378,2.378-2.378l95.11,0C108.869,106.367,109.933,107.431,109.933,108.744L109.933,108.744z
		 M31.091,42.167l-0.001,57.067c0.001,1.313-1.064,2.378-2.378,2.378l-16.268-0.001c-1.313,0.001-2.378-1.064-2.378-2.378
		l0.001-57.065c-0.001-1.313,1.064-2.378,2.378-2.378l16.268-0.001C30.027,39.79,31.092,40.853,31.091,42.167L31.091,42.167z
		 M57.373,18.39l-0.001,80.843c0,1.314-1.064,2.378-2.378,2.378l-16.268-0.001c-1.313,0.001-2.378-1.064-2.378-2.378L36.347,18.39
		c0-1.314,1.066-2.379,2.378-2.378l16.27,0.001C56.308,16.011,57.373,17.077,57.373,18.39L57.373,18.39z M83.652,56.433l0.001,42.8
		c0,1.314-1.066,2.379-2.378,2.378l-16.27,0.001c-1.314,0-2.379-1.066-2.378-2.378l0.001-42.801
		c-0.001-1.313,1.064-2.378,2.378-2.378l16.268-0.001C82.588,54.056,83.653,55.121,83.652,56.433L83.652,56.433z M109.933,8.879
		l0,90.354c0,1.314-1.064,2.378-2.378,2.378l-16.268,0.001c-1.314,0-2.378-1.064-2.378-2.378l0-90.356
		c-0.001-1.311,1.065-2.376,2.378-2.378l16.268,0.001C108.869,6.501,109.933,7.565,109.933,8.879L109.933,8.879z"/>
</g>
</svg>
