<?xml version="1.0" encoding="iso-8859-1"?>
<!-- Generator: Adobe Illustrator 17.1.0, SVG Export Plug-In . SVG Version: 6.00 Build 0)  -->
<!DOCTYPE svg PUBLIC "-//W3C//DTD SVG 1.1//EN" "http://www.w3.org/Graphics/SVG/1.1/DTD/svg11.dtd">
<svg version="1.1" xmlns="http://www.w3.org/2000/svg" xmlns:xlink="http://www.w3.org/1999/xlink" x="0px" y="0px" width="120px"
	 height="120px" viewBox="0 0 120 120" enable-background="new 0 0 120 120" xml:space="preserve">
<g id="Layer_4" display="none">
	<circle display="inline" opacity="0.5" fill="#DF1F26" cx="60" cy="60" r="60"/>
	<rect x="6.5" y="6.5" display="inline" opacity="0.5" fill="#3B4FA1" width="107" height="107"/>
</g>
<g id="normal">
	<path fill-rule="evenodd" clip-rule="evenodd" fill="#FFFFFF" d="M113.5,52.299c0.017,8.388-1.682,11.367-3.723,12.398
		l-1.612,0.896l0.016,7.787c0.005,2.526-0.601,3.276-3.033,3.271l-5.462-0.008c-2.432-0.005-3.043-0.756-3.048-3.282l-0.016-7.787
		l-9.058-0.015c-0.794-1.414-2.678-2.955-2.678-2.955l-8.394-22.043l-0.002-0.001c-1.739-4.176-6.844-6.385-9.069-6.387
		l-22.831-0.04l5.69-15.086c1.517-3.673,6.006-5.602,7.964-5.6l36.049,0.063c1.959,0.004,6.455,1.947,7.987,5.626l0.002,0.001
		l7.392,19.414c0,0,1.785,1.457,2.438,2.734C112.769,42.559,113.482,43.696,113.5,52.299L113.5,52.299z M100.205,45.425
		c-3.294-0.006-5.959,2.688-5.952,6.02c0.007,3.33,2.683,6.033,5.976,6.039c3.294,0.006,5.957-2.69,5.952-6.02
		C106.174,48.134,103.499,45.431,100.205,45.425L100.205,45.425z M69.582,49.038l0.002,0l7.393,19.413c0,0,1.785,1.457,2.438,2.734
		c0.655,1.277,1.367,2.414,1.385,11.016c0.018,8.387-1.681,11.369-3.723,12.398l-1.61,0.896l0.016,7.787
		c0.005,2.528-0.603,3.276-3.034,3.273l-5.461-0.01c-2.433-0.003-3.042-0.754-3.048-3.282l-0.016-7.787l-40.496-0.07l0.016,7.789
		c0.005,2.526-0.6,3.276-3.033,3.271l-5.461-0.009c-2.433-0.005-3.043-0.756-3.048-3.282l-0.016-7.787l-1.614-0.902
		c-2.046-1.037-3.756-4.023-3.773-12.41c-0.018-8.602,0.69-9.738,1.34-11.011c0.648-1.275,2.427-2.726,2.427-2.726l7.314-19.389
		c1.517-3.673,6.006-5.602,7.966-5.599l36.047,0.061C63.554,43.414,68.049,45.359,69.582,49.038L69.582,49.038z M19.378,74.753
		c-3.799-0.007-6.871,3.1-6.864,6.94c0.009,3.839,3.094,6.957,6.892,6.964c3.797,0.006,6.871-3.1,6.862-6.94
		C26.261,77.878,23.175,74.761,19.378,74.753L19.378,74.753z M60.994,81.777c0.007,3.84,3.092,6.957,6.89,6.964
		c3.799,0.005,6.871-3.102,6.864-6.94c-0.009-3.839-3.095-6.958-6.892-6.964C64.058,74.83,60.985,77.937,60.994,81.777
		L60.994,81.777z"/>
</g>
<g id="active">
	<path fill-rule="evenodd" clip-rule="evenodd" fill="#FFFFFF" d="M113.5,52.299c0.017,8.388-1.682,11.367-3.723,12.398
		l-1.612,0.896l0.016,7.787c0.005,2.526-0.601,3.276-3.033,3.271l-5.462-0.008c-2.432-0.005-3.043-0.756-3.048-3.282l-0.016-7.787
		l-9.058-0.015c-0.794-1.414-2.678-2.955-2.678-2.955l-8.394-22.043l-0.002-0.001c-1.739-4.176-6.844-6.385-9.069-6.387
		l-22.831-0.04l5.69-15.086c1.517-3.673,6.006-5.602,7.964-5.6l36.049,0.063c1.959,0.004,6.455,1.947,7.987,5.626l0.002,0.001
		l7.392,19.414c0,0,1.785,1.457,2.438,2.734C112.769,42.559,113.482,43.696,113.5,52.299L113.5,52.299z M100.205,45.425
		c-3.294-0.006-5.959,2.688-5.952,6.02c0.007,3.33,2.683,6.033,5.976,6.039c3.294,0.006,5.957-2.69,5.952-6.02
		C106.174,48.134,103.499,45.431,100.205,45.425L100.205,45.425z M69.582,49.038l0.002,0l7.393,19.413c0,0,1.785,1.457,2.438,2.734
		c0.655,1.277,1.367,2.414,1.385,11.016c0.018,8.387-1.681,11.369-3.723,12.398l-1.61,0.896l0.016,7.787
		c0.005,2.528-0.603,3.276-3.034,3.273l-5.461-0.01c-2.433-0.003-3.042-0.754-3.048-3.282l-0.016-7.787l-40.496-0.07l0.016,7.789
		c0.005,2.526-0.6,3.276-3.033,3.271l-5.461-0.009c-2.433-0.005-3.043-0.756-3.048-3.282l-0.016-7.787l-1.614-0.902
		c-2.046-1.037-3.756-4.023-3.773-12.41c-0.018-8.602,0.69-9.738,1.34-11.011c0.648-1.275,2.427-2.726,2.427-2.726l7.314-19.389
		c1.517-3.673,6.006-5.602,7.966-5.599l36.047,0.061C63.554,43.414,68.049,45.359,69.582,49.038L69.582,49.038z M19.378,74.753
		c-3.799-0.007-6.871,3.1-6.864,6.94c0.009,3.839,3.094,6.957,6.892,6.964c3.797,0.006,6.871-3.1,6.862-6.94
		C26.261,77.878,23.175,74.761,19.378,74.753L19.378,74.753z M60.994,81.777c0.007,3.84,3.092,6.957,6.89,6.964
		c3.799,0.005,6.871-3.102,6.864-6.94c-0.009-3.839-3.095-6.958-6.892-6.964C64.058,74.83,60.985,77.937,60.994,81.777
		L60.994,81.777z"/>
</g>
<g id="disabled" opacity="0.2">
	<path fill-rule="evenodd" clip-rule="evenodd" fill="#FFFFFF" d="M113.5,52.299c0.017,8.388-1.682,11.367-3.723,12.398
		l-1.612,0.896l0.016,7.787c0.005,2.526-0.601,3.276-3.033,3.271l-5.462-0.008c-2.432-0.005-3.043-0.756-3.048-3.282l-0.016-7.787
		l-9.058-0.015c-0.794-1.414-2.678-2.955-2.678-2.955l-8.394-22.043l-0.002-0.001c-1.739-4.176-6.844-6.385-9.069-6.387
		l-22.831-0.04l5.69-15.086c1.517-3.673,6.006-5.602,7.964-5.6l36.049,0.063c1.959,0.004,6.455,1.947,7.987,5.626l0.002,0.001
		l7.392,19.414c0,0,1.785,1.457,2.438,2.734C112.769,42.559,113.482,43.696,113.5,52.299L113.5,52.299z M100.205,45.425
		c-3.294-0.006-5.959,2.688-5.952,6.02c0.007,3.33,2.683,6.033,5.976,6.039c3.294,0.006,5.957-2.69,5.952-6.02
		C106.174,48.134,103.499,45.431,100.205,45.425L100.205,45.425z M69.582,49.038l0.002,0l7.393,19.413c0,0,1.785,1.457,2.438,2.734
		c0.655,1.277,1.367,2.414,1.385,11.016c0.018,8.387-1.681,11.369-3.723,12.398l-1.61,0.896l0.016,7.787
		c0.005,2.528-0.603,3.276-3.034,3.273l-5.461-0.01c-2.433-0.003-3.042-0.754-3.048-3.282l-0.016-7.787l-40.496-0.07l0.016,7.789
		c0.005,2.526-0.6,3.276-3.033,3.271l-5.461-0.009c-2.433-0.005-3.043-0.756-3.048-3.282l-0.016-7.787l-1.614-0.902
		c-2.046-1.037-3.756-4.023-3.773-12.41c-0.018-8.602,0.69-9.738,1.34-11.011c0.648-1.275,2.427-2.726,2.427-2.726l7.314-19.389
		c1.517-3.673,6.006-5.602,7.966-5.599l36.047,0.061C63.554,43.414,68.049,45.359,69.582,49.038L69.582,49.038z M19.378,74.753
		c-3.799-0.007-6.871,3.1-6.864,6.94c0.009,3.839,3.094,6.957,6.892,6.964c3.797,0.006,6.871-3.1,6.862-6.94
		C26.261,77.878,23.175,74.761,19.378,74.753L19.378,74.753z M60.994,81.777c0.007,3.84,3.092,6.957,6.89,6.964
		c3.799,0.005,6.871-3.102,6.864-6.94c-0.009-3.839-3.095-6.958-6.892-6.964C64.058,74.83,60.985,77.937,60.994,81.777
		L60.994,81.777z"/>
</g>
</svg>
