<?xml version="1.0" encoding="iso-8859-1"?>
<!-- Generator: Adobe Illustrator 17.1.0, SVG Export Plug-In . SVG Version: 6.00 Build 0)  -->
<!DOCTYPE svg PUBLIC "-//W3C//DTD SVG 1.1//EN" "http://www.w3.org/Graphics/SVG/1.1/DTD/svg11.dtd">
<svg version="1.1" xmlns="http://www.w3.org/2000/svg" xmlns:xlink="http://www.w3.org/1999/xlink" x="0px" y="0px" width="120px"
	 height="120px" viewBox="0 0 120 120" enable-background="new 0 0 120 120" xml:space="preserve">
<g id="Layer_2" display="none">
	<circle display="inline" opacity="0.5" fill="#DF1F26" cx="60" cy="60" r="60"/>
	<rect x="6.5" y="6.5" display="inline" opacity="0.5" fill="#3B4FA1" width="107" height="107"/>
</g>
<g id="normal" opacity="0.7">
	<g>
		<g>
			<path fill-rule="evenodd" clip-rule="evenodd" fill="#FFFFFF" d="M25.955,53.515l68.187,0.064v-6.89L25.955,47.03V53.515z
				 M97.288,21.091H22.712c-8.954,0-16.212,7.259-16.212,16.212v45.394c0,8.954,7.258,16.212,16.212,16.212h74.576
				c8.954,0,16.212-7.259,16.212-16.212V37.303C113.5,28.349,106.242,21.091,97.288,21.091z M106.972,79.454
				c0,7.162-6.041,12.969-13.492,12.969H26.52c-7.452,0-13.492-5.807-13.492-12.969V40.546c0-7.162,6.041-12.969,13.492-12.969
				h66.96c7.451,0,13.492,5.806,13.492,12.969V79.454z M25.955,72.97l68.187,0.064v-6.89l-68.187,0.341V72.97z"/>
		</g>
	</g>
</g>
<g id="active" opacity="0.7">
	<g>
		<g>
			<path fill-rule="evenodd" clip-rule="evenodd" fill="#FFFFFF" d="M25.955,53.515l68.187,0.064v-6.89L25.955,47.03V53.515z
				 M97.288,21.091H22.712c-8.954,0-16.212,7.259-16.212,16.212v45.394c0,8.954,7.258,16.212,16.212,16.212h74.576
				c8.954,0,16.212-7.259,16.212-16.212V37.303C113.5,28.349,106.242,21.091,97.288,21.091z M106.972,79.454
				c0,7.162-6.041,12.969-13.492,12.969H26.52c-7.452,0-13.492-5.807-13.492-12.969V40.546c0-7.162,6.041-12.969,13.492-12.969
				h66.96c7.451,0,13.492,5.806,13.492,12.969V79.454z M25.955,72.97l68.187,0.064v-6.89l-68.187,0.341V72.97z"/>
		</g>
	</g>
</g>
<g id="disabled" opacity="0.2">
	<g>
		<g>
			<path fill-rule="evenodd" clip-rule="evenodd" fill="#FFFFFF" d="M25.955,53.515l68.187,0.064v-6.89L25.955,47.03V53.515z
				 M97.288,21.091H22.712c-8.954,0-16.212,7.259-16.212,16.212v45.394c0,8.954,7.258,16.212,16.212,16.212h74.576
				c8.954,0,16.212-7.259,16.212-16.212V37.303C113.5,28.349,106.242,21.091,97.288,21.091z M106.972,79.454
				c0,7.162-6.041,12.969-13.492,12.969H26.52c-7.452,0-13.492-5.807-13.492-12.969V40.546c0-7.162,6.041-12.969,13.492-12.969
				h66.96c7.451,0,13.492,5.806,13.492,12.969V79.454z M25.955,72.97l68.187,0.064v-6.89l-68.187,0.341V72.97z"/>
		</g>
	</g>
</g>
</svg>
