<?xml version="1.0" encoding="iso-8859-1"?>
<!-- Generator: Adobe Illustrator 17.1.0, SVG Export Plug-In . SVG Version: 6.00 Build 0)  -->
<!DOCTYPE svg PUBLIC "-//W3C//DTD SVG 1.1//EN" "http://www.w3.org/Graphics/SVG/1.1/DTD/svg11.dtd">
<svg version="1.1" xmlns="http://www.w3.org/2000/svg" xmlns:xlink="http://www.w3.org/1999/xlink" x="0px" y="0px" width="120px"
	 height="120px" viewBox="0 0 120 120" enable-background="new 0 0 120 120" xml:space="preserve">
<g id="Layer_2" display="none">
	<circle display="inline" opacity="0.5" fill="#DF1F26" cx="60" cy="60" r="60"/>
	<rect x="6.5" y="6.5" display="inline" opacity="0.5" fill="#3B4FA1" width="107" height="107"/>
</g>
<g id="normal">
	<g>
		<g>
			<path fill-rule="evenodd" clip-rule="evenodd" fill="#FFFFFF" d="M85.052,61.468c-5.748,8.375-14.517,13.731-24.346,13.731
				c-9.864,0-18.658-5.394-24.406-13.821c-10.437,3.362-18.222,7.39-18.222,7.39v16.124C26.924,98.769,43.021,108,60.698,108
				c17.714,0,32.388-9.182,41.224-23.108V68.768C101.922,68.768,94.843,64.812,85.052,61.468z M60.706,64.135
				c12.154,0,22.008-11.659,22.008-26.042c0-14.382-9.853-26.042-22.008-26.042c-12.155,0-22.008,11.659-22.008,26.042
				C38.698,52.476,48.551,64.135,60.706,64.135z"/>
		</g>
	</g>
</g>
<g id="active">
	<g>
		<g>
			<path fill-rule="evenodd" clip-rule="evenodd" fill="#FFFFFF" d="M85.052,61.468c-5.748,8.375-14.517,13.731-24.346,13.731
				c-9.864,0-18.658-5.394-24.406-13.821c-10.437,3.362-18.222,7.39-18.222,7.39v16.124C26.924,98.769,43.021,108,60.698,108
				c17.714,0,32.388-9.182,41.224-23.108V68.768C101.922,68.768,94.843,64.812,85.052,61.468z M60.706,64.135
				c12.154,0,22.008-11.659,22.008-26.042c0-14.382-9.853-26.042-22.008-26.042c-12.155,0-22.008,11.659-22.008,26.042
				C38.698,52.476,48.551,64.135,60.706,64.135z"/>
		</g>
	</g>
</g>
<g id="disabled" opacity="0.2">
	<g>
		<g>
			<path fill-rule="evenodd" clip-rule="evenodd" fill="#FFFFFF" d="M85.052,61.468c-5.748,8.375-14.517,13.731-24.346,13.731
				c-9.864,0-18.658-5.394-24.406-13.821c-10.437,3.362-18.222,7.39-18.222,7.39v16.124C26.924,98.769,43.021,108,60.698,108
				c17.714,0,32.388-9.182,41.224-23.108V68.768C101.922,68.768,94.843,64.812,85.052,61.468z M60.706,64.135
				c12.154,0,22.008-11.659,22.008-26.042c0-14.382-9.853-26.042-22.008-26.042c-12.155,0-22.008,11.659-22.008,26.042
				C38.698,52.476,48.551,64.135,60.706,64.135z"/>
		</g>
	</g>
</g>
</svg>
