<?xml version="1.0" encoding="iso-8859-1"?>
<!-- Generator: Adobe Illustrator 17.1.0, SVG Export Plug-In . SVG Version: 6.00 Build 0)  -->
<!DOCTYPE svg PUBLIC "-//W3C//DTD SVG 1.1//EN" "http://www.w3.org/Graphics/SVG/1.1/DTD/svg11.dtd">
<svg version="1.1" xmlns="http://www.w3.org/2000/svg" xmlns:xlink="http://www.w3.org/1999/xlink" x="0px" y="0px" width="120px"
	 height="120px" viewBox="-3 -3 120 120" enable-background="new -3 -3 120 120" xml:space="preserve">
<g id="Layer_2" display="none">
	<circle display="inline" opacity="0.5" fill="#DF1F26" cx="57" cy="57" r="60"/>
	<rect x="3.5" y="3.5" display="inline" opacity="0.5" fill="#3B4FA1" width="107" height="107"/>
</g>
<g id="normal">
	<path fill="#FFFFFF" d="M58.029,73.829c12.934,0,23.063-3.173,30.387-9.517c7.324-6.345,10.987-14.881,10.987-25.611
		c0-10.729-3.664-19.28-10.986-25.649C81.091,6.685,70.963,3.5,58.031,3.5l-43.432,0l-0.002,107l24.914-0.001L39.51,73.827
		L58.029,73.829L58.029,73.829z M39.509,22.608l18.52-0.001c5.536,0.001,9.675,1.496,12.418,4.483
		c2.743,2.987,4.116,6.908,4.115,11.758c0,4.752-1.385,8.585-4.151,11.499c-2.769,2.915-6.897,4.373-12.383,4.372L39.511,54.72
		L39.509,22.608L39.509,22.608z"/>
</g>
<g id="active">
	<path fill="#FFFFFF" d="M58.029,73.829c12.934,0,23.063-3.173,30.387-9.517c7.324-6.345,10.987-14.881,10.987-25.611
		c0-10.729-3.664-19.28-10.986-25.649C81.091,6.685,70.963,3.5,58.031,3.5l-43.432,0l-0.002,107l24.914-0.001L39.51,73.827
		L58.029,73.829L58.029,73.829z M39.509,22.608l18.52-0.001c5.536,0.001,9.675,1.496,12.418,4.483
		c2.743,2.987,4.116,6.908,4.115,11.758c0,4.752-1.385,8.585-4.151,11.499c-2.769,2.915-6.897,4.373-12.383,4.372L39.511,54.72
		L39.509,22.608L39.509,22.608z"/>
</g>
<g id="disabled" opacity="0.2">
	<path fill="#FFFFFF" d="M58.029,73.829c12.934,0,23.063-3.173,30.387-9.517c7.324-6.345,10.987-14.881,10.987-25.611
		c0-10.729-3.664-19.28-10.986-25.649C81.091,6.685,70.963,3.5,58.031,3.5l-43.432,0l-0.002,107l24.914-0.001L39.51,73.827
		L58.029,73.829L58.029,73.829z M39.509,22.608l18.52-0.001c5.536,0.001,9.675,1.496,12.418,4.483
		c2.743,2.987,4.116,6.908,4.115,11.758c0,4.752-1.385,8.585-4.151,11.499c-2.769,2.915-6.897,4.373-12.383,4.372L39.511,54.72
		L39.509,22.608L39.509,22.608z"/>
</g>
</svg>
