<?xml version="1.0" encoding="iso-8859-1"?>
<!-- Generator: Adobe Illustrator 17.1.0, SVG Export Plug-In . SVG Version: 6.00 Build 0)  -->
<!DOCTYPE svg PUBLIC "-//W3C//DTD SVG 1.1//EN" "http://www.w3.org/Graphics/SVG/1.1/DTD/svg11.dtd">
<svg version="1.1" xmlns="http://www.w3.org/2000/svg" xmlns:xlink="http://www.w3.org/1999/xlink" x="0px" y="0px" width="120px"
	 height="120px" viewBox="0 0 120 120" enable-background="new 0 0 120 120" xml:space="preserve">
<g id="Layer_4" display="none">
	<circle display="inline" opacity="0.5" fill="#DF1F26" cx="60" cy="60" r="60"/>
	<rect x="6.5" y="6.5" display="inline" opacity="0.5" fill="#3B4FA1" width="107" height="107"/>
</g>
<g id="normal">
	<path fill="#FFFFFF" d="M106.577,33.699C75.167,62.45,82.847,97.79,82.847,113.5H57.228l1.473-0.05
		C58.679,112.782,57.165,46.968,106.577,33.699L106.577,33.699z M55.753,113.5H32.876c1.214-65.087,54.704-78.505,67.742-81.004
		C54.533,49.29,55.714,112.081,55.753,113.5L55.753,113.5z M32.665,19.137h-2.902c-4.862,0-7.63,1.89-7.63,6.615
		c0,4.389,3.85,5.943,7.63,6.887l2.902,0.743c8.169,2.161,16.002,5.198,16.002,14.989c0,10.127-7.022,14.784-16.002,15.189h-2.902
		c-9.723-0.203-16.473-5.738-16.338-15.798h7.696c-0.068,5.941,2.498,9.519,8.642,9.722h2.902c4.862-0.338,8.304-2.634,8.304-8.034
		c0-5.065-4.118-6.617-8.304-7.696l-2.902-0.608c-7.36-2.025-15.327-4.997-15.327-14.854c0-8.575,7.293-13.234,15.327-13.234h2.902
		c8.102,0,14.786,4.254,14.786,13.166h-7.696C39.552,21.701,37.459,19.137,32.665,19.137L32.665,19.137z M28.881,68.685V6.5h5.895
		v62.185H28.881L28.881,68.685z"/>
</g>
<g id="active">
	<path fill="#FFFFFF" d="M106.577,33.699C75.167,62.45,82.847,97.79,82.847,113.5H57.228l1.473-0.05
		C58.679,112.782,57.165,46.968,106.577,33.699L106.577,33.699z M55.753,113.5H32.876c1.214-65.087,54.704-78.505,67.742-81.004
		C54.533,49.29,55.714,112.081,55.753,113.5L55.753,113.5z M32.665,19.137h-2.902c-4.862,0-7.63,1.89-7.63,6.615
		c0,4.389,3.85,5.943,7.63,6.887l2.902,0.743c8.169,2.161,16.002,5.198,16.002,14.989c0,10.127-7.022,14.784-16.002,15.189h-2.902
		c-9.723-0.203-16.473-5.738-16.338-15.798h7.696c-0.068,5.941,2.498,9.519,8.642,9.722h2.902c4.862-0.338,8.304-2.634,8.304-8.034
		c0-5.065-4.118-6.617-8.304-7.696l-2.902-0.608c-7.36-2.025-15.327-4.997-15.327-14.854c0-8.575,7.293-13.234,15.327-13.234h2.902
		c8.102,0,14.786,4.254,14.786,13.166h-7.696C39.552,21.701,37.459,19.137,32.665,19.137L32.665,19.137z M28.881,68.685V6.5h5.895
		v62.185H28.881L28.881,68.685z"/>
</g>
<g id="disabled" opacity="0.2">
	<path fill="#FFFFFF" d="M106.577,33.699C75.167,62.45,82.847,97.79,82.847,113.5H57.228l1.473-0.05
		C58.679,112.782,57.165,46.968,106.577,33.699L106.577,33.699z M55.753,113.5H32.876c1.214-65.087,54.704-78.505,67.742-81.004
		C54.533,49.29,55.714,112.081,55.753,113.5L55.753,113.5z M32.665,19.137h-2.902c-4.862,0-7.63,1.89-7.63,6.615
		c0,4.389,3.85,5.943,7.63,6.887l2.902,0.743c8.169,2.161,16.002,5.198,16.002,14.989c0,10.127-7.022,14.784-16.002,15.189h-2.902
		c-9.723-0.203-16.473-5.738-16.338-15.798h7.696c-0.068,5.941,2.498,9.519,8.642,9.722h2.902c4.862-0.338,8.304-2.634,8.304-8.034
		c0-5.065-4.118-6.617-8.304-7.696l-2.902-0.608c-7.36-2.025-15.327-4.997-15.327-14.854c0-8.575,7.293-13.234,15.327-13.234h2.902
		c8.102,0,14.786,4.254,14.786,13.166h-7.696C39.552,21.701,37.459,19.137,32.665,19.137L32.665,19.137z M28.881,68.685V6.5h5.895
		v62.185H28.881L28.881,68.685z"/>
</g>
</svg>
