<?xml version="1.0" encoding="iso-8859-1"?>
<!-- Generator: Adobe Illustrator 17.1.0, SVG Export Plug-In . SVG Version: 6.00 Build 0)  -->
<!DOCTYPE svg PUBLIC "-//W3C//DTD SVG 1.1//EN" "http://www.w3.org/Graphics/SVG/1.1/DTD/svg11.dtd">
<svg version="1.1" xmlns="http://www.w3.org/2000/svg" xmlns:xlink="http://www.w3.org/1999/xlink" x="0px" y="0px" width="120px"
	 height="120px" viewBox="0 0 120 120" enable-background="new 0 0 120 120" xml:space="preserve">
<g id="Layer_2" display="none">
	<circle display="inline" opacity="0.5" fill="#DF1F26" cx="60" cy="60" r="60"/>
	<rect x="6.5" y="6.5" display="inline" opacity="0.5" fill="#3B4FA1" width="107" height="107"/>
</g>
<g id="normal">
	<path fill="#FFFFFF" d="M105.857,52.333H32.485l17.656-17.711c1.506-1.509,2.216-3.311,2.216-5.289
		c0-3.772-3.106-7.667-7.643-7.667c-2.029,0-3.799,0.74-5.274,2.222L9.029,54.395C7.776,55.653,6.5,57.205,6.5,59.999
		c0,2.796,1.066,4.14,2.468,5.548L39.44,96.112c1.475,1.483,3.244,2.222,5.274,2.222c4.54,0,7.643-3.894,7.643-7.667
		c0-1.978-0.71-3.78-2.216-5.289L32.485,67.667h73.372c4.219,0,7.643-3.435,7.643-7.668C113.5,55.768,110.076,52.333,105.857,52.333
		L105.857,52.333z"/>
</g>
<g id="active">
	<path fill="#FFFFFF" d="M105.857,52.333H32.485l17.656-17.711c1.506-1.509,2.216-3.311,2.216-5.289
		c0-3.772-3.106-7.667-7.643-7.667c-2.029,0-3.799,0.74-5.274,2.222L9.029,54.395C7.776,55.653,6.5,57.205,6.5,59.999
		c0,2.796,1.066,4.14,2.468,5.548L39.44,96.112c1.475,1.483,3.244,2.222,5.274,2.222c4.54,0,7.643-3.894,7.643-7.667
		c0-1.978-0.71-3.78-2.216-5.289L32.485,67.667h73.372c4.219,0,7.643-3.435,7.643-7.668C113.5,55.768,110.076,52.333,105.857,52.333
		L105.857,52.333z"/>
</g>
<g id="disabled" opacity="0.2">
	<path fill="#FFFFFF" d="M105.857,52.333H32.485l17.656-17.711c1.506-1.509,2.216-3.311,2.216-5.289
		c0-3.772-3.106-7.667-7.643-7.667c-2.029,0-3.799,0.74-5.274,2.222L9.029,54.395C7.776,55.653,6.5,57.205,6.5,59.999
		c0,2.796,1.066,4.14,2.468,5.548L39.44,96.112c1.475,1.483,3.244,2.222,5.274,2.222c4.54,0,7.643-3.894,7.643-7.667
		c0-1.978-0.71-3.78-2.216-5.289L32.485,67.667h73.372c4.219,0,7.643-3.435,7.643-7.668C113.5,55.768,110.076,52.333,105.857,52.333
		L105.857,52.333z"/>
</g>
</svg>
