<?xml version="1.0" encoding="utf-8"?>
<!-- Generator: Adobe Illustrator 17.1.0, SVG Export Plug-In . SVG Version: 6.00 Build 0)  -->
<!DOCTYPE svg PUBLIC "-//W3C//DTD SVG 1.1//EN" "http://www.w3.org/Graphics/SVG/1.1/DTD/svg11.dtd">
<svg version="1.1" xmlns="http://www.w3.org/2000/svg" xmlns:xlink="http://www.w3.org/1999/xlink" x="0px" y="0px" width="120px"
	 height="120px" viewBox="0 0 120 120" enable-background="new 0 0 120 120" xml:space="preserve">
<g id="Layer_2" display="none">
	<circle display="inline" opacity="0.5" fill="#DF1F26" cx="60" cy="60" r="60"/>
	<rect x="6.5" y="6.5" display="inline" opacity="0.5" fill="#3B4FA1" width="107" height="107"/>
</g>
<g id="normal">
	<path fill="#727272" d="M97.831,22.169c-20.892-20.892-54.766-20.892-75.661,0c-20.892,20.892-20.892,54.766,0,75.661
		c20.895,20.892,54.769,20.892,75.661,0C118.723,76.938,118.723,43.065,97.831,22.169z M91.437,91.433
		c-1.163,1.163-2.71,1.805-4.354,1.805c-1.643,0-3.191-0.641-4.354-1.803L60.002,68.708L37.276,91.433
		c-2.324,2.327-6.38,2.325-8.71,0.002c-2.399-2.403-2.399-6.307-0.002-8.709l22.727-22.729L28.556,37.263
		c-2.4-2.396-2.401-6.302-0.002-8.707c2.324-2.327,6.379-2.326,8.708-0.003l22.739,22.737l22.725-22.726
		c2.323-2.323,6.382-2.322,8.709-0.003c2.401,2.402,2.403,6.309,0.004,8.712L68.712,59.997l22.721,22.727
		c1.165,1.163,1.806,2.711,1.806,4.358C93.24,88.727,92.601,90.271,91.437,91.433z"/>
</g>
<g id="active">
	<path fill="#727272" d="M97.831,22.169c-20.892-20.892-54.766-20.892-75.661,0c-20.892,20.892-20.892,54.766,0,75.661
		c20.895,20.892,54.769,20.892,75.661,0C118.723,76.938,118.723,43.065,97.831,22.169z M91.437,91.433
		c-1.163,1.163-2.71,1.805-4.354,1.805c-1.643,0-3.191-0.641-4.354-1.803L60.002,68.708L37.276,91.433
		c-2.324,2.327-6.38,2.325-8.71,0.002c-2.399-2.403-2.399-6.307-0.002-8.709l22.727-22.729L28.556,37.263
		c-2.4-2.396-2.401-6.302-0.002-8.707c2.324-2.327,6.379-2.326,8.708-0.003l22.739,22.737l22.725-22.726
		c2.323-2.323,6.382-2.322,8.709-0.003c2.401,2.402,2.403,6.309,0.004,8.712L68.712,59.997l22.721,22.727
		c1.165,1.163,1.806,2.711,1.806,4.358C93.24,88.727,92.601,90.271,91.437,91.433z"/>
</g>
<g id="disabled" opacity="0.2">
	<path fill="#727272" d="M97.831,22.169c-20.892-20.892-54.766-20.892-75.661,0c-20.892,20.892-20.892,54.766,0,75.661
		c20.895,20.892,54.769,20.892,75.661,0C118.723,76.938,118.723,43.065,97.831,22.169z M91.437,91.433
		c-1.163,1.163-2.71,1.805-4.354,1.805c-1.643,0-3.191-0.641-4.354-1.803L60.002,68.708L37.276,91.433
		c-2.324,2.327-6.38,2.325-8.71,0.002c-2.399-2.403-2.399-6.307-0.002-8.709l22.727-22.729L28.556,37.263
		c-2.4-2.396-2.401-6.302-0.002-8.707c2.324-2.327,6.379-2.326,8.708-0.003l22.739,22.737l22.725-22.726
		c2.323-2.323,6.382-2.322,8.709-0.003c2.401,2.402,2.403,6.309,0.004,8.712L68.712,59.997l22.721,22.727
		c1.165,1.163,1.806,2.711,1.806,4.358C93.24,88.727,92.601,90.271,91.437,91.433z"/>
</g>
</svg>
