<?xml version="1.0" encoding="iso-8859-1"?>
<!-- Generator: Adobe Illustrator 17.1.0, SVG Export Plug-In . SVG Version: 6.00 Build 0)  -->
<!DOCTYPE svg PUBLIC "-//W3C//DTD SVG 1.1//EN" "http://www.w3.org/Graphics/SVG/1.1/DTD/svg11.dtd">
<svg version="1.1" xmlns="http://www.w3.org/2000/svg" xmlns:xlink="http://www.w3.org/1999/xlink" x="0px" y="0px" width="120px"
	 height="120px" viewBox="0 0 120 120" enable-background="new 0 0 120 120" xml:space="preserve">
<g id="Layer_4" display="none">
	<circle display="inline" opacity="0.5" fill="#DF1F26" cx="60.125" cy="60" r="60"/>
	<rect x="6.625" y="6.5" display="inline" opacity="0.5" fill="#3B4FA1" width="107" height="107"/>
</g>
<g id="normal">
	<g>
		<g>
			<path fill-rule="evenodd" clip-rule="evenodd" fill="#FFFFFF" d="M65.284,70.912c2.158-1.584,4.112-3.425,5.79-5.507l8.481,3.245
				c1.047-1.505,1.976-3.092,2.809-4.739l-6.972-5.658c1.07-2.492,1.794-5.16,2.172-7.94l8.924-1.424
				c0.064-0.916,0.14-1.828,0.14-2.76c0-0.913-0.076-1.807-0.137-2.705L77.571,42c-0.375-2.784-1.095-5.458-2.164-7.954l6.975-5.661
				c-0.83-1.646-1.753-3.233-2.796-4.736L71.1,26.895c-1.681-2.092-3.638-3.943-5.803-5.533l3.218-8.413
				c-1.57-1.014-3.219-1.911-4.931-2.698l-5.75,7.084c-2.358-0.877-4.839-1.501-7.43-1.775l-1.41-8.841
				c-0.624-0.029-1.239-0.094-1.87-0.094c-1.321,0-2.625,0.071-3.912,0.198l-1.445,9.056c-2.404,0.423-4.715,1.109-6.891,2.056
				l-5.667-6.982c-1.777,0.907-3.47,1.943-5.079,3.098l3.259,8.518c-1.742,1.461-3.299,3.124-4.681,4.932l-8.472-3.241
				c-1.118,1.678-2.084,3.461-2.938,5.306l7.079,5.746c-0.763,2.026-1.314,4.151-1.635,6.354l-8.965,1.43
				C7.7,44.1,7.623,45.105,7.623,46.128c0,1.042,0.077,2.065,0.156,3.086l8.97,1.431c0.324,2.2,0.877,4.32,1.641,6.343l-7.073,5.741
				c0.858,1.847,1.825,3.632,2.947,5.311l8.471-3.241c1.378,1.798,2.932,3.454,4.667,4.907l-3.255,8.51
				c1.613,1.157,3.312,2.194,5.094,3.101l5.662-6.977c2.166,0.941,4.466,1.62,6.857,2.042l1.444,9.048
				c1.29,0.127,2.597,0.198,3.921,0.198c0.635,0,1.252-0.065,1.879-0.095l1.409-8.833c2.578-0.274,5.046-0.893,7.393-1.763
				l5.747,7.08c1.718-0.788,3.371-1.686,4.946-2.703L65.284,70.912z M47.141,62.386c-8.973,0-16.246-7.274-16.246-16.246
				s7.274-16.246,16.246-16.246c8.972,0,16.246,7.274,16.246,16.246S56.113,62.386,47.141,62.386z M111.444,96.053
				c0.555-1.911,0.871-3.92,0.933-5.994l-6.535-1.672c-0.067-1.235-0.258-2.428-0.566-3.583l5.699-3.608
				c-0.694-1.93-1.606-3.755-2.743-5.421l-6.299,2.504c-0.764-0.939-1.615-1.789-2.554-2.553l2.504-6.299
				c-1.667-1.137-3.493-2.048-5.424-2.741l-3.607,5.7c-1.153-0.307-2.344-0.497-3.577-0.563l-1.671-6.535
				c-2.077,0.062-4.088,0.379-6.001,0.935l0.43,6.718c-1.147,0.442-2.241,0.98-3.258,1.641L73.615,70.3
				c-1.61,1.247-3.055,2.691-4.303,4.3l4.28,5.158c-0.662,1.018-1.202,2.113-1.644,3.261l-6.721-0.43
				c-0.557,1.911-0.873,3.92-0.937,5.995l6.537,1.672c0.066,1.237,0.256,2.431,0.564,3.586l-5.703,3.612
				c0.692,1.928,1.601,3.752,2.736,5.417l6.304-2.504c0.766,0.943,1.619,1.796,2.561,2.562l-2.504,6.305
				c1.664,1.135,3.486,2.044,5.414,2.737l3.612-5.702c1.158,0.309,2.354,0.501,3.593,0.567l1.674,6.537
				c2.073-0.063,4.079-0.379,5.989-0.935l-0.428-6.721c1.152-0.443,2.251-0.984,3.271-1.648l5.159,4.278
				c1.607-1.247,3.048-2.689,4.294-4.297l-4.279-5.16c0.663-1.02,1.202-2.117,1.645-3.268L111.444,96.053z M88.335,99.639
				c-5.696,0-10.313-4.617-10.313-10.313c0-5.695,4.617-10.312,10.313-10.312c5.695,0,10.312,4.617,10.312,10.312
				C98.647,95.022,94.03,99.639,88.335,99.639z"/>
		</g>
	</g>
</g>
<g id="active">
	<g>
		<g>
			<path fill-rule="evenodd" clip-rule="evenodd" fill="#FFFFFF" d="M65.284,70.912c2.158-1.584,4.112-3.425,5.79-5.507l8.481,3.245
				c1.047-1.505,1.976-3.092,2.809-4.739l-6.972-5.658c1.07-2.492,1.794-5.16,2.172-7.94l8.924-1.424
				c0.064-0.916,0.14-1.828,0.14-2.76c0-0.913-0.076-1.807-0.137-2.705L77.571,42c-0.375-2.784-1.095-5.458-2.164-7.954l6.975-5.661
				c-0.83-1.646-1.753-3.233-2.796-4.736L71.1,26.895c-1.681-2.092-3.638-3.943-5.803-5.533l3.218-8.413
				c-1.57-1.014-3.219-1.911-4.931-2.698l-5.75,7.084c-2.358-0.877-4.839-1.501-7.43-1.775l-1.41-8.841
				c-0.624-0.029-1.239-0.094-1.87-0.094c-1.321,0-2.625,0.071-3.912,0.198l-1.445,9.056c-2.404,0.423-4.715,1.109-6.891,2.056
				l-5.667-6.982c-1.777,0.907-3.47,1.943-5.079,3.098l3.259,8.518c-1.742,1.461-3.299,3.124-4.681,4.932l-8.472-3.241
				c-1.118,1.678-2.084,3.461-2.938,5.306l7.079,5.746c-0.763,2.026-1.314,4.151-1.635,6.354l-8.965,1.43
				C7.7,44.1,7.623,45.105,7.623,46.128c0,1.042,0.077,2.065,0.156,3.086l8.97,1.431c0.324,2.2,0.877,4.32,1.641,6.343l-7.073,5.741
				c0.858,1.847,1.825,3.632,2.947,5.311l8.471-3.241c1.378,1.798,2.932,3.454,4.667,4.907l-3.255,8.51
				c1.613,1.157,3.312,2.194,5.094,3.101l5.662-6.977c2.166,0.941,4.466,1.62,6.857,2.042l1.444,9.048
				c1.29,0.127,2.597,0.198,3.921,0.198c0.635,0,1.252-0.065,1.879-0.095l1.409-8.833c2.578-0.274,5.046-0.893,7.393-1.763
				l5.747,7.08c1.718-0.788,3.371-1.686,4.946-2.703L65.284,70.912z M47.141,62.386c-8.973,0-16.246-7.274-16.246-16.246
				s7.274-16.246,16.246-16.246c8.972,0,16.246,7.274,16.246,16.246S56.113,62.386,47.141,62.386z M111.444,96.053
				c0.555-1.911,0.871-3.92,0.933-5.994l-6.535-1.672c-0.067-1.235-0.258-2.428-0.566-3.583l5.699-3.608
				c-0.694-1.93-1.606-3.755-2.743-5.421l-6.299,2.504c-0.764-0.939-1.615-1.789-2.554-2.553l2.504-6.299
				c-1.667-1.137-3.493-2.048-5.424-2.741l-3.607,5.7c-1.153-0.307-2.344-0.497-3.577-0.563l-1.671-6.535
				c-2.077,0.062-4.088,0.379-6.001,0.935l0.43,6.718c-1.147,0.442-2.241,0.98-3.258,1.641L73.615,70.3
				c-1.61,1.247-3.055,2.691-4.303,4.3l4.28,5.158c-0.662,1.018-1.202,2.113-1.644,3.261l-6.721-0.43
				c-0.557,1.911-0.873,3.92-0.937,5.995l6.537,1.672c0.066,1.237,0.256,2.431,0.564,3.586l-5.703,3.612
				c0.692,1.928,1.601,3.752,2.736,5.417l6.304-2.504c0.766,0.943,1.619,1.796,2.561,2.562l-2.504,6.305
				c1.664,1.135,3.486,2.044,5.414,2.737l3.612-5.702c1.158,0.309,2.354,0.501,3.593,0.567l1.674,6.537
				c2.073-0.063,4.079-0.379,5.989-0.935l-0.428-6.721c1.152-0.443,2.251-0.984,3.271-1.648l5.159,4.278
				c1.607-1.247,3.048-2.689,4.294-4.297l-4.279-5.16c0.663-1.02,1.202-2.117,1.645-3.268L111.444,96.053z M88.335,99.639
				c-5.696,0-10.313-4.617-10.313-10.313c0-5.695,4.617-10.312,10.313-10.312c5.695,0,10.312,4.617,10.312,10.312
				C98.647,95.022,94.03,99.639,88.335,99.639z"/>
		</g>
	</g>
</g>
<g id="disabled" opacity="0.2">
	<g>
		<g>
			<path fill-rule="evenodd" clip-rule="evenodd" fill="#FFFFFF" d="M65.284,70.912c2.158-1.584,4.112-3.425,5.79-5.507l8.481,3.245
				c1.047-1.505,1.976-3.092,2.809-4.739l-6.972-5.658c1.07-2.492,1.794-5.16,2.172-7.94l8.924-1.424
				c0.064-0.916,0.14-1.828,0.14-2.76c0-0.913-0.076-1.807-0.137-2.705L77.571,42c-0.375-2.784-1.095-5.458-2.164-7.954l6.975-5.661
				c-0.83-1.646-1.753-3.233-2.796-4.736L71.1,26.895c-1.681-2.092-3.638-3.943-5.803-5.533l3.218-8.413
				c-1.57-1.014-3.219-1.911-4.931-2.698l-5.75,7.084c-2.358-0.877-4.839-1.501-7.43-1.775l-1.41-8.841
				c-0.624-0.029-1.239-0.094-1.87-0.094c-1.321,0-2.625,0.071-3.912,0.198l-1.445,9.056c-2.404,0.423-4.715,1.109-6.891,2.056
				l-5.667-6.982c-1.777,0.907-3.47,1.943-5.079,3.098l3.259,8.518c-1.742,1.461-3.299,3.124-4.681,4.932l-8.472-3.241
				c-1.118,1.678-2.084,3.461-2.938,5.306l7.079,5.746c-0.763,2.026-1.314,4.151-1.635,6.354l-8.965,1.43
				C7.7,44.1,7.623,45.105,7.623,46.128c0,1.042,0.077,2.065,0.156,3.086l8.97,1.431c0.324,2.2,0.877,4.32,1.641,6.343l-7.073,5.741
				c0.858,1.847,1.825,3.632,2.947,5.311l8.471-3.241c1.378,1.798,2.932,3.454,4.667,4.907l-3.255,8.51
				c1.613,1.157,3.312,2.194,5.094,3.101l5.662-6.977c2.166,0.941,4.466,1.62,6.857,2.042l1.444,9.048
				c1.29,0.127,2.597,0.198,3.921,0.198c0.635,0,1.252-0.065,1.879-0.095l1.409-8.833c2.578-0.274,5.046-0.893,7.393-1.763
				l5.747,7.08c1.718-0.788,3.371-1.686,4.946-2.703L65.284,70.912z M47.141,62.386c-8.973,0-16.246-7.274-16.246-16.246
				s7.274-16.246,16.246-16.246c8.972,0,16.246,7.274,16.246,16.246S56.113,62.386,47.141,62.386z M111.444,96.053
				c0.555-1.911,0.871-3.92,0.933-5.994l-6.535-1.672c-0.067-1.235-0.258-2.428-0.566-3.583l5.699-3.608
				c-0.694-1.93-1.606-3.755-2.743-5.421l-6.299,2.504c-0.764-0.939-1.615-1.789-2.554-2.553l2.504-6.299
				c-1.667-1.137-3.493-2.048-5.424-2.741l-3.607,5.7c-1.153-0.307-2.344-0.497-3.577-0.563l-1.671-6.535
				c-2.077,0.062-4.088,0.379-6.001,0.935l0.43,6.718c-1.147,0.442-2.241,0.98-3.258,1.641L73.615,70.3
				c-1.61,1.247-3.055,2.691-4.303,4.3l4.28,5.158c-0.662,1.018-1.202,2.113-1.644,3.261l-6.721-0.43
				c-0.557,1.911-0.873,3.92-0.937,5.995l6.537,1.672c0.066,1.237,0.256,2.431,0.564,3.586l-5.703,3.612
				c0.692,1.928,1.601,3.752,2.736,5.417l6.304-2.504c0.766,0.943,1.619,1.796,2.561,2.562l-2.504,6.305
				c1.664,1.135,3.486,2.044,5.414,2.737l3.612-5.702c1.158,0.309,2.354,0.501,3.593,0.567l1.674,6.537
				c2.073-0.063,4.079-0.379,5.989-0.935l-0.428-6.721c1.152-0.443,2.251-0.984,3.271-1.648l5.159,4.278
				c1.607-1.247,3.048-2.689,4.294-4.297l-4.279-5.16c0.663-1.02,1.202-2.117,1.645-3.268L111.444,96.053z M88.335,99.639
				c-5.696,0-10.313-4.617-10.313-10.313c0-5.695,4.617-10.312,10.313-10.312c5.695,0,10.312,4.617,10.312,10.312
				C98.647,95.022,94.03,99.639,88.335,99.639z"/>
		</g>
	</g>
</g>
</svg>
