<?xml version="1.0" encoding="iso-8859-1"?>
<!-- Generator: Adobe Illustrator 17.1.0, SVG Export Plug-In . SVG Version: 6.00 Build 0)  -->
<!DOCTYPE svg PUBLIC "-//W3C//DTD SVG 1.1//EN" "http://www.w3.org/Graphics/SVG/1.1/DTD/svg11.dtd">
<svg version="1.1" xmlns="http://www.w3.org/2000/svg" xmlns:xlink="http://www.w3.org/1999/xlink" x="0px" y="0px" width="120px"
	 height="120px" viewBox="0 0 120 120" enable-background="new 0 0 120 120" xml:space="preserve">
<g id="Layer_2" display="none">
	<circle display="inline" opacity="0.5" fill="#DF1F26" cx="60" cy="60" r="60"/>
	<rect x="6.5" y="6.5" display="inline" opacity="0.5" fill="#3B4FA1" width="107" height="107"/>
</g>
<g id="normal">
	<path fill="#FFFFFF" d="M19.704,49.754l48.509-39.699l13.669,52.462L19.704,49.754L19.704,49.754z M94.161,94.606L71.207,8.512
		L77.75,6.75l22.954,86.095L94.161,94.606L94.161,94.606z"/>
</g>
<g id="active">
	<path fill="#FFFFFF" d="M19.704,49.754l48.509-39.699l13.669,52.462L19.704,49.754L19.704,49.754z M94.161,94.606L71.207,8.512
		L77.75,6.75l22.954,86.095L94.161,94.606L94.161,94.606z"/>
</g>
<g id="disabled" opacity="0.2">
	<path fill="#FFFFFF" d="M19.704,49.754l48.509-39.699l13.669,52.462L19.704,49.754L19.704,49.754z M94.161,94.606L71.207,8.512
		L77.75,6.75l22.954,86.095L94.161,94.606L94.161,94.606z"/>
</g>
</svg>
