<?xml version="1.0" encoding="iso-8859-1"?>
<!-- Generator: Adobe Illustrator 17.1.0, SVG Export Plug-In . SVG Version: 6.00 Build 0)  -->
<!DOCTYPE svg PUBLIC "-//W3C//DTD SVG 1.1//EN" "http://www.w3.org/Graphics/SVG/1.1/DTD/svg11.dtd">
<svg version="1.1" xmlns="http://www.w3.org/2000/svg" xmlns:xlink="http://www.w3.org/1999/xlink" x="0px" y="0px" width="120px"
	 height="120px" viewBox="0 0 120 120" enable-background="new 0 0 120 120" xml:space="preserve">
<g id="Layer_2" display="none">
	<circle display="inline" opacity="0.5" fill="#DF1F26" cx="60" cy="60" r="60"/>
	<rect x="6.5" y="6.5" display="inline" opacity="0.5" fill="#3B4FA1" width="107" height="107"/>
</g>
<g id="normal">
	<g>
		<path fill="#FFFFFF" d="M56.209,107.321L27.905,82.551V37.328L56.335,12.46l3.653,1.589v91.989L56.209,107.321L56.209,107.321z
			 M34.858,83.304H12.18c-3.136,0-5.68-2.542-5.68-5.68V42.119c0-3.138,2.544-5.68,5.68-5.68h22.678c3.138,0,5.68,2.542,5.68,5.68
			v35.505C40.538,80.763,37.996,83.304,34.858,83.304L34.858,83.304z M57.798,108.08c-1.2,0-2.175-0.975-2.175-2.175
			c0-1.2,0.975-2.175,2.175-2.175c1.2,0,2.175,0.975,2.175,2.175C59.973,107.105,58.999,108.08,57.798,108.08L57.798,108.08z
			 M57.798,16.268c-1.2,0-2.175-0.972-2.175-2.175c0-1.2,0.975-2.173,2.175-2.173c1.2,0,2.175,0.972,2.175,2.173
			C59.973,15.295,58.999,16.268,57.798,16.268L57.798,16.268z"/>
		<path fill-rule="evenodd" clip-rule="evenodd" fill="#FF6519" d="M94.834,96.764c-0.002,0.002-0.002,0.002-0.004,0.004
			l-5.799-5.799c0.002-0.002,0.007-0.004,0.009-0.007c17.537-17.535,17.535-45.972,0.002-63.507l5.793-5.793
			C115.574,42.4,115.574,76.024,94.834,96.764L94.834,96.764z M77.75,79.665c11.302-11.302,11.307-29.62,0.009-40.927l5.317-5.317
			c14.235,14.239,14.235,37.328-0.004,51.568c-0.004,0.004-0.007,0.007-0.011,0.011l-5.324-5.324
			C77.741,79.671,77.746,79.669,77.75,79.665L77.75,79.665z"/>
	</g>
</g>
<g id="active">
	<g>
		<path fill="#FFFFFF" d="M56.209,107.321L27.905,82.551V37.328L56.335,12.46l3.653,1.589v91.989L56.209,107.321L56.209,107.321z
			 M34.858,83.304H12.18c-3.136,0-5.68-2.542-5.68-5.68V42.119c0-3.138,2.544-5.68,5.68-5.68h22.678c3.138,0,5.68,2.542,5.68,5.68
			v35.505C40.538,80.763,37.996,83.304,34.858,83.304L34.858,83.304z M57.798,108.08c-1.2,0-2.175-0.975-2.175-2.175
			c0-1.2,0.975-2.175,2.175-2.175c1.2,0,2.175,0.975,2.175,2.175C59.973,107.105,58.999,108.08,57.798,108.08L57.798,108.08z
			 M57.798,16.268c-1.2,0-2.175-0.972-2.175-2.175c0-1.2,0.975-2.173,2.175-2.173c1.2,0,2.175,0.972,2.175,2.173
			C59.973,15.295,58.999,16.268,57.798,16.268L57.798,16.268z"/>
		<path fill-rule="evenodd" clip-rule="evenodd" fill="#FF6519" d="M94.834,96.764c-0.002,0.002-0.002,0.002-0.004,0.004
			l-5.799-5.799c0.002-0.002,0.007-0.004,0.009-0.007c17.537-17.535,17.535-45.972,0.002-63.507l5.793-5.793
			C115.574,42.4,115.574,76.024,94.834,96.764L94.834,96.764z M77.75,79.665c11.302-11.302,11.307-29.62,0.009-40.927l5.317-5.317
			c14.235,14.239,14.235,37.328-0.004,51.568c-0.004,0.004-0.007,0.007-0.011,0.011l-5.324-5.324
			C77.741,79.671,77.746,79.669,77.75,79.665L77.75,79.665z"/>
	</g>
</g>
<g id="disabled" opacity="0.2">
	<g>
		<path fill="#FFFFFF" d="M56.209,107.321L27.905,82.551V37.328L56.335,12.46l3.653,1.589v91.989L56.209,107.321L56.209,107.321z
			 M34.858,83.304H12.18c-3.136,0-5.68-2.542-5.68-5.68V42.119c0-3.138,2.544-5.68,5.68-5.68h22.678c3.138,0,5.68,2.542,5.68,5.68
			v35.505C40.538,80.763,37.996,83.304,34.858,83.304L34.858,83.304z M57.798,108.08c-1.2,0-2.175-0.975-2.175-2.175
			c0-1.2,0.975-2.175,2.175-2.175c1.2,0,2.175,0.975,2.175,2.175C59.973,107.105,58.999,108.08,57.798,108.08L57.798,108.08z
			 M57.798,16.268c-1.2,0-2.175-0.972-2.175-2.175c0-1.2,0.975-2.173,2.175-2.173c1.2,0,2.175,0.972,2.175,2.173
			C59.973,15.295,58.999,16.268,57.798,16.268L57.798,16.268z"/>
		<path fill-rule="evenodd" clip-rule="evenodd" fill="#FF6519" d="M94.834,96.764c-0.002,0.002-0.002,0.002-0.004,0.004
			l-5.799-5.799c0.002-0.002,0.007-0.004,0.009-0.007c17.537-17.535,17.535-45.972,0.002-63.507l5.793-5.793
			C115.574,42.4,115.574,76.024,94.834,96.764L94.834,96.764z M77.75,79.665c11.302-11.302,11.307-29.62,0.009-40.927l5.317-5.317
			c14.235,14.239,14.235,37.328-0.004,51.568c-0.004,0.004-0.007,0.007-0.011,0.011l-5.324-5.324
			C77.741,79.671,77.746,79.669,77.75,79.665L77.75,79.665z"/>
	</g>
</g>
</svg>
