<?xml version="1.0" encoding="iso-8859-1"?>
<!-- Generator: Adobe Illustrator 17.1.0, SVG Export Plug-In . SVG Version: 6.00 Build 0)  -->
<!DOCTYPE svg PUBLIC "-//W3C//DTD SVG 1.1//EN" "http://www.w3.org/Graphics/SVG/1.1/DTD/svg11.dtd">
<svg version="1.1" xmlns="http://www.w3.org/2000/svg" xmlns:xlink="http://www.w3.org/1999/xlink" x="0px" y="0px" width="120px"
	 height="120px" viewBox="0 0 120 120" enable-background="new 0 0 120 120" xml:space="preserve">
<g id="Layer_7" display="none">
	<circle display="inline" opacity="0.5" fill="#DF1F26" cx="60" cy="60" r="60"/>
	<rect x="6.5" y="6.5" display="inline" opacity="0.5" fill="#3B4FA1" width="107" height="107"/>
</g>
<g id="bt">
	<g>
		<polygon fill="#FFFFFF" points="62.129,72.412 69.478,65.059 62.129,57.546 		"/>
		<polygon fill="#FFFFFF" points="62.129,29.125 62.129,43.99 69.478,36.64 		"/>
		<path fill="#FFFFFF" d="M96.461,6.5H23.539c-4.629,0-8.416,3.83-8.416,8.513v95.028c0.284,2.277,1.546,3.46,3.06,3.46
			c0.77,0,1.642-0.3,2.549-0.906c5.579-5.498,11.164-10.997,16.742-16.496h58.987c4.631,0,8.416-3.83,8.416-8.512V15.013
			C104.877,10.33,101.092,6.5,96.461,6.5z M56.574,86.622V58.038L44.487,70.124l-4.329-4.329L54.94,51.014l-14.7-14.703l4.329-4.329
			L56.574,43.99V15.567l21.237,20.909L63.436,50.849l14.457,14.457L56.574,86.622z"/>
	</g>
</g>
<g id="usb">
	<g>
		<rect x="50.416" y="22.688" fill="#FFFFFF" width="6.83" height="6.83"/>
		<rect x="62.344" y="22.688" fill="#FFFFFF" width="6.83" height="6.83"/>
		<path fill="#FFFFFF" d="M96.461,6.5H23.539c-4.629,0-8.416,3.83-8.416,8.513v95.028c0.284,2.277,1.546,3.46,3.06,3.46
			c0.77,0,1.642-0.3,2.549-0.906c5.579-5.498,11.164-10.997,16.742-16.496h58.987c4.631,0,8.416-3.83,8.416-8.512V15.013
			C104.877,10.33,101.092,6.5,96.461,6.5z M46.305,16.162h26.609v21.857H46.305V16.162z M73.282,86.083
			c0-2.609-3.412-3.918-7.872-5.359l-0.142-0.045c-3.717-1.202-7.881-5.03-8.275-9.762c-0.065-0.778-0.098-1.524-0.111-2.223
			c-7.299-1.418-12.811-7.837-12.811-15.551V39.262h31.698v13.881c0,8.094-6.071,14.757-13.905,15.718
			c0.014,0.526,0.037,1.07,0.084,1.644c0.214,2.565,3.003,4.847,4.85,5.443l0.141,0.046c4.506,1.455,11.316,3.655,11.316,10.09
			H73.282z"/>
	</g>
</g>
<g id="wifi">
	<path fill="#FFFFFF" d="M96.461,6.5H23.539c-4.629,0-8.416,3.83-8.416,8.513v95.028c0.284,2.277,1.546,3.46,3.06,3.46
		c0.77,0,1.642-0.3,2.549-0.906c5.579-5.498,11.164-10.997,16.742-16.496h58.987c4.631,0,8.416-3.83,8.416-8.512V15.013
		C104.877,10.33,101.092,6.5,96.461,6.5z M64.667,76.717c-2.365,2.401-6.205,2.401-8.575,0c-2.367-2.398-2.367-6.29,0-8.688
		c2.37-2.4,6.21-2.4,8.575,0C67.036,70.427,67.036,74.318,64.667,76.717z M72.877,59.139c-0.06-0.063-0.11-0.131-0.171-0.193
		c-6.624-6.742-17.245-6.903-24.081-0.521l-5.313-6.191c9.947-9.135,25.232-8.914,34.897,0.699L72.877,59.139z M86.639,43.118
		C72.139,29.322,49.655,29.086,34.89,42.422l-5.074-5.912c17.67-15.891,44.489-15.652,61.889,0.711L86.639,43.118z"/>
</g>
<g id="connected">
	<g>
		<path fill="#FFFFFF" d="M96.459,6.5H23.542c-2.343,0-3.325,0.673-3.507,0.816c9.421,6.97,16.87,12.721,17.632,13.467
			c1.794,1.752,2.601,4.467,1.96,6.605c-0.331,1.107-1.346,3.053-4.421,3.65c-1.385,0.266-4.64,1.594-5.304,3.806
			c-0.641,2.136,1.394,4.703,3.214,6.481c1.823,1.781,4.448,3.761,6.583,3.069c2.201-0.711,3.468-3.976,3.708-5.358
			c0.533-3.072,2.455-4.127,3.554-4.482c2.126-0.685,4.866,0.057,6.663,1.812l0.618,0.597c2.252,2.162,4.389,4.214,7.156,11.349
			l0.752,1.841c3.175,8.239,5.44,10.45,7.838,12.791c0.722,0.706,1.938,1.104,2.656,0.873c0.161-0.053,0.653-0.211,0.854-1.375
			c0.408-2.345,2.273-7.129,6.407-8.465c3.241-1.046,6.8,0.305,10.593,4.008c3.789,3.7,5.217,7.223,4.245,10.469
			c-1.247,4.163-6.012,6.123-8.357,6.578c-1.172,0.226-1.32,0.719-1.369,0.882c-0.215,0.715,0.21,1.913,0.928,2.615
			c1.501,1.465,9.296,7.999,17.349,13.929c-0.008,0.011-0.017,0.021-0.025,0.031c0.01,0.007,0.02,0.015,0.03,0.022
			c0.958-1.382,1.576-3.116,1.576-4.923V15.015C104.877,10.333,101.088,6.504,96.459,6.5z"/>
		<path fill="#FFFFFF" d="M83.166,81.377c-1.795-1.754-2.601-4.471-1.96-6.608c0.332-1.107,1.349-3.052,4.425-3.646
			c1.381-0.267,4.636-1.6,5.299-3.811c0.64-2.136-1.394-4.703-3.212-6.479c-1.824-1.782-4.452-3.761-6.587-3.068
			c-2.2,0.711-3.468,3.976-3.708,5.358c-0.533,3.071-2.454,4.126-3.552,4.482c-2.129,0.688-4.868-0.058-6.664-1.813
			c-2.296-2.242-4.661-4.551-7.587-11.306l-1.248-2.896c-2.81-7.841-4.609-9.569-6.886-11.756l-0.643-0.62
			c-0.722-0.706-1.939-1.104-2.656-0.872c-0.161,0.052-0.653,0.212-0.855,1.376c-0.408,2.344-2.273,7.129-6.407,8.464
			c-3.234,1.04-6.797-0.306-10.589-4.01c-3.792-3.702-5.221-7.227-4.246-10.474c1.25-4.164,6.017-6.119,8.362-6.571
			c1.165-0.226,1.313-0.72,1.362-0.883c0.215-0.716-0.21-1.914-0.928-2.615c-1.183-1.155-8.72-6.95-18.01-13.786
			c-0.095,0.116-1.751,2.246-1.751,5.171v32.679v39.894c0,0.112,0,0.229,0.006,0.342l-0.006-0.003l0.122,22.133
			c0.284,2.284,1.425,3.44,2.939,3.44c0.768,0,1.641-0.303,2.549-0.903c5.577-5.502,11.164-11.003,16.742-16.497h58.984
			c2.389,0,4.132-1.105,3.831-0.948c-0.007-0.005-0.013-0.01-0.02-0.015c-0.011,0.006-0.021,0.013-0.031,0.019
			C92.028,89.064,84.424,82.605,83.166,81.377z"/>
	</g>
</g>
<g id="disconnected">
	<g>
		<path fill="#FFFFFF" d="M96.459,6.5H23.542c-2.343,0-3.325,0.673-3.507,0.816c9.421,6.97,16.87,12.721,17.632,13.467
			c1.794,1.752,2.601,4.467,1.96,6.605c-0.331,1.107-1.346,3.053-4.421,3.65c-1.385,0.266-4.64,1.594-5.304,3.806
			c-0.641,2.136,1.394,4.703,3.214,6.481c1.823,1.781,4.448,3.761,6.583,3.069c2.201-0.711,3.468-3.976,3.708-5.358
			c0.533-3.072,2.455-4.127,3.554-4.482c2.126-0.685,4.866,0.057,6.663,1.812l0.618,0.597c2.252,2.162,4.389,4.214,7.156,11.349
			l0.752,1.841c3.175,8.239,5.44,10.45,7.838,12.791c0.722,0.706,1.938,1.104,2.656,0.873c0.161-0.053,0.653-0.211,0.854-1.375
			c0.408-2.345,2.273-7.129,6.407-8.465c3.241-1.046,6.8,0.305,10.593,4.008c3.789,3.7,5.217,7.223,4.245,10.469
			c-1.247,4.163-6.012,6.123-8.357,6.578c-1.172,0.226-1.32,0.719-1.369,0.882c-0.215,0.715,0.21,1.913,0.928,2.615
			c1.501,1.465,9.296,7.999,17.349,13.929c-0.008,0.011-0.017,0.021-0.025,0.031c0.01,0.007,0.02,0.015,0.03,0.022
			c0.958-1.382,1.576-3.116,1.576-4.923V15.015C104.877,10.333,101.088,6.504,96.459,6.5z"/>
		<path fill="#FFFFFF" d="M83.166,81.377c-1.795-1.754-2.601-4.471-1.96-6.608c0.332-1.107,1.349-3.052,4.425-3.646
			c1.381-0.267,4.636-1.6,5.299-3.811c0.64-2.136-1.394-4.703-3.212-6.479c-1.824-1.782-4.452-3.761-6.587-3.068
			c-2.2,0.711-3.468,3.976-3.708,5.358c-0.533,3.071-2.454,4.126-3.552,4.482c-2.129,0.688-4.868-0.058-6.664-1.813
			c-2.296-2.242-4.661-4.551-7.587-11.306l-1.248-2.896c-2.81-7.841-4.609-9.569-6.886-11.756l-0.643-0.62
			c-0.722-0.706-1.939-1.104-2.656-0.872c-0.161,0.052-0.653,0.212-0.855,1.376c-0.408,2.344-2.273,7.129-6.407,8.464
			c-3.234,1.04-6.797-0.306-10.589-4.01c-3.792-3.702-5.221-7.227-4.246-10.474c1.25-4.164,6.017-6.119,8.362-6.571
			c1.165-0.226,1.313-0.72,1.362-0.883c0.215-0.716-0.21-1.914-0.928-2.615c-1.183-1.155-8.72-6.95-18.01-13.786
			c-0.095,0.116-1.751,2.246-1.751,5.171v32.679v39.894c0,0.112,0,0.229,0.006,0.342l-0.006-0.003l0.122,22.133
			c0.284,2.284,1.425,3.44,2.939,3.44c0.768,0,1.641-0.303,2.549-0.903c5.577-5.502,11.164-11.003,16.742-16.497h58.984
			c2.389,0,4.132-1.105,3.831-0.948c-0.007-0.005-0.013-0.01-0.02-0.015c-0.011,0.006-0.021,0.013-0.031,0.019
			C92.028,89.064,84.424,82.605,83.166,81.377z"/>
	</g>
</g>
<g id="connectable">
	<g>
		<path fill="#FFFFFF" d="M96.772,6.5h-71.58c-2.3,0-3.264,0.661-3.443,0.801c9.248,6.843,16.561,12.488,17.308,13.219
			c1.761,1.719,2.553,4.385,1.924,6.484c-0.325,1.087-1.321,2.997-4.339,3.583c-1.36,0.261-4.555,1.565-5.207,3.736
			c-0.63,2.097,1.368,4.617,3.155,6.362c1.789,1.748,4.366,3.692,6.463,3.012c2.16-0.697,3.404-3.903,3.64-5.259
			c0.523-3.016,2.41-4.051,3.488-4.4c2.087-0.673,4.776,0.056,6.541,1.779l0.607,0.586c2.211,2.122,4.308,4.136,7.025,11.141
			l0.738,1.807c3.117,8.087,5.34,10.258,7.694,12.557c0.709,0.693,1.903,1.084,2.608,0.857c0.158-0.052,0.641-0.207,0.839-1.35
			c0.401-2.302,2.232-6.999,6.29-8.31c3.181-1.027,6.675,0.3,10.398,3.935c3.719,3.632,5.121,7.09,4.167,10.277
			c-1.224,4.087-5.902,6.011-8.204,6.458c-1.151,0.221-1.296,0.706-1.343,0.865c-0.211,0.702,0.206,1.878,0.911,2.567
			c1.473,1.438,9.126,7.853,17.031,13.673c-0.007,0.011-0.017,0.02-0.024,0.031c0.01,0.007,0.019,0.014,0.029,0.022
			c0.941-1.357,1.547-3.059,1.547-4.833V14.858C105.035,10.262,101.316,6.504,96.772,6.5z"/>
		<path fill="#FFFFFF" d="M81.759,81.966c-1.762-1.722-2.553-4.389-1.924-6.486c0.326-1.087,1.324-2.996,4.344-3.579
			c1.356-0.262,4.551-1.57,5.202-3.741c0.628-2.097-1.368-4.616-3.154-6.36c-1.791-1.749-4.37-3.692-6.466-3.011
			c-2.159,0.698-3.404,3.903-3.64,5.259c-0.523,3.015-2.409,4.05-3.487,4.4c-2.09,0.676-4.778-0.057-6.542-1.779
			c-2.254-2.2-4.575-4.467-7.448-11.099l-1.225-2.842c-2.758-7.697-4.525-9.394-6.76-11.541l-0.631-0.609
			c-0.709-0.693-1.904-1.084-2.608-0.856c-0.158,0.051-0.641,0.208-0.84,1.351c-0.401,2.301-2.232,6.998-6.29,8.309
			c-3.175,1.021-6.672-0.301-10.395-3.936c-3.722-3.634-5.125-7.094-4.168-10.282c1.227-4.088,5.906-6.006,8.209-6.45
			c1.144-0.222,1.289-0.707,1.337-0.866c0.211-0.703-0.206-1.879-0.911-2.567c-1.161-1.134-8.56-6.822-17.68-13.533
			c-0.093,0.114-1.719,2.205-1.719,5.076v32.079v39.162c0,0.11,0,0.225,0.006,0.336l-0.006-0.003l0.12,21.727
			c0.279,2.242,1.399,3.377,2.885,3.377c0.754,0,1.611-0.298,2.502-0.887c5.475-5.401,10.959-10.801,16.434-16.194h57.902
			c2.345,0,4.056-1.085,3.76-0.93c-0.007-0.005-0.013-0.01-0.02-0.015c-0.011,0.006-0.02,0.013-0.031,0.019
			C90.459,89.512,82.994,83.172,81.759,81.966z"/>
	</g>
</g>
</svg>
