<?xml version="1.0" encoding="utf-8"?>
<!-- Generator: Adobe Illustrator 17.1.0, SVG Export Plug-In . SVG Version: 6.00 Build 0)  -->
<!DOCTYPE svg PUBLIC "-//W3C//DTD SVG 1.1//EN" "http://www.w3.org/Graphics/SVG/1.1/DTD/svg11.dtd">
<svg version="1.1" xmlns="http://www.w3.org/2000/svg" xmlns:xlink="http://www.w3.org/1999/xlink" x="0px" y="0px"
	 viewBox="0 0 120 120" enable-background="new 0 0 120 120" xml:space="preserve">
<g id="Layer_2" display="none">
	<circle display="inline" opacity="0.5" fill="#DF1F26" cx="60" cy="60" r="60"/>
	<rect x="6.5" y="6.5" display="inline" opacity="0.5" fill="#3B4FA1" width="107" height="107"/>
</g>
<g id="normal">
	<path fill="#FFFFFF" d="M113.5,43.959L108,17.29L89.675,37.682l7.277,1.947l-2.839,10.453c-0.113,0.414-0.539,0.659-0.954,0.548
		l-23.508-6.322l-18.502-4.874c0,0-4.887-1.699-9.69,1.107c-4.62,2.701-7.291,14.092-7.291,14.092L29.21,72.827L24.5,89.13
		c-0.161,0.557-0.736,0.883-1.297,0.735L6.5,85.464l5.636,12.102l19.044,5.06c1.324,0.352,2.682-0.435,3.036-1.758l2.025-7.568
		L41.1,75.958l4.833-17.624l1.923-6.967c0.146-0.529,0.692-0.84,1.221-0.696l17.542,4.768l24.207,6.744l-0.003,0.011l8.163,2.225
		c1.102,0.3,2.238-0.349,2.539-1.451l5.613-20.593l-1.062-0.372L113.5,43.959z"/>
</g>
<g id="active">
	<path fill="#FFFFFF" d="M113.5,43.959L108,17.29L89.675,37.682l7.277,1.947l-2.839,10.453c-0.113,0.414-0.539,0.659-0.954,0.548
		l-23.508-6.322l-18.502-4.874c0,0-4.887-1.699-9.69,1.107c-4.62,2.701-7.291,14.092-7.291,14.092L29.21,72.827L24.5,89.13
		c-0.161,0.557-0.736,0.883-1.297,0.735L6.5,85.464l5.636,12.102l19.044,5.06c1.324,0.352,2.682-0.435,3.036-1.758l2.025-7.568
		L41.1,75.958l4.833-17.624l1.923-6.967c0.146-0.529,0.692-0.84,1.221-0.696l17.542,4.768l24.207,6.744l-0.003,0.011l8.163,2.225
		c1.102,0.3,2.238-0.349,2.539-1.451l5.613-20.593l-1.062-0.372L113.5,43.959z"/>
</g>
<g id="disabled" opacity="0.6">
	<path fill="#FFFFFF" d="M113.5,43.959L108,17.29L89.675,37.682l7.277,1.947l-2.839,10.453c-0.113,0.414-0.539,0.659-0.954,0.548
		l-23.508-6.322l-18.502-4.874c0,0-4.887-1.699-9.69,1.107c-4.62,2.701-7.291,14.092-7.291,14.092L29.21,72.827L24.5,89.13
		c-0.161,0.557-0.736,0.883-1.297,0.735L6.5,85.464l5.636,12.102l19.044,5.06c1.324,0.352,2.682-0.435,3.036-1.758l2.025-7.568
		L41.1,75.958l4.833-17.624l1.923-6.967c0.146-0.529,0.692-0.84,1.221-0.696l17.542,4.768l24.207,6.744l-0.003,0.011l8.163,2.225
		c1.102,0.3,2.238-0.349,2.539-1.451l5.613-20.593l-1.062-0.372L113.5,43.959z"/>
</g>
</svg>
