<?xml version="1.0" encoding="iso-8859-1"?>
<!-- Generator: Adobe Illustrator 17.1.0, SVG Export Plug-In . SVG Version: 6.00 Build 0)  -->
<!DOCTYPE svg PUBLIC "-//W3C//DTD SVG 1.1//EN" "http://www.w3.org/Graphics/SVG/1.1/DTD/svg11.dtd">
<svg version="1.1" xmlns="http://www.w3.org/2000/svg" xmlns:xlink="http://www.w3.org/1999/xlink" x="0px" y="0px" width="120px"
	 height="120px" viewBox="0 0 120 120" enable-background="new 0 0 120 120" xml:space="preserve">
<g id="Layer_4" display="none">
	<circle display="inline" opacity="0.5" fill="#DF1F26" cx="60" cy="60" r="60"/>
	<rect x="6.5" y="6.5" display="inline" opacity="0.5" fill="#3B4FA1" width="107" height="107"/>
</g>
<g id="normal">
	<g>
		<path fill-rule="evenodd" clip-rule="evenodd" fill="#FFFFFF" d="M61.026,60.17c21.455,0.033,11.26,45.541,30.623,45.541
			c0.375,0.151,0.752,0.301,1.128,0.452c34.66,0,11.796-49.208,11.795-64.806c-2.48-0.677-4.962-1.354-7.443-2.029
			c0,11.904,19.603,60.17-4.127,60.292C78.13,95.222,91.286,57.52,61.252,51.598c-0.151,2.444-0.752,4.21-0.902,6.316
			C60.576,57.764,60.801,60.32,61.026,60.17L61.026,60.17z"/>
		<path fill-rule="evenodd" clip-rule="evenodd" fill="#FFFFFF" d="M105.891,31.083l-0.417,0.416l0.001,8.439
			c0,1.407-1.14,2.548-2.547,2.548l-3.025,0c-1.407,0-2.548-1.14-2.548-2.547L97.354,31.5L86.668,20.812
			c-1.358-1.358-1.455-3.46-0.22-4.697l2.239-2.238c1.236-1.236,3.337-1.138,4.695,0.22l9.441,9.44l0.103,0.001
			c1.407,0,2.548,1.14,2.548,2.547l0,0.105l0.197,0.196C107.029,27.744,107.127,29.847,105.891,31.083L105.891,31.083z
			 M64.076,100.761c-16.503,0.001-30.624,0.001-45.857,0.001l0-89.08c0-2.862,2.274-5.182,5.076-5.182l35.702,0
			c2.805,0.001,5.079,2.321,5.079,5.182L64.076,100.761L64.076,100.761z M23.334,14.143c0.001,10.657,0,19.482,0.001,25.477
			l35.625,0c0-7.993,0-15.485,0.002-25.476L23.334,14.143L23.334,14.143z M76.815,108.405l0,2.547c0,1.407-1.14,2.548-2.547,2.548
			l-63.69-0.001c-1.407,0-2.548-1.14-2.548-2.547l0.001-2.547c0-1.409,1.14-2.548,2.547-2.548l63.69,0.001
			C75.673,105.856,76.815,106.998,76.815,108.405L76.815,108.405z"/>
	</g>
</g>
<g id="active">
	<g>
		<path fill-rule="evenodd" clip-rule="evenodd" fill="#FFFFFF" d="M61.026,60.17c21.455,0.033,11.26,45.541,30.623,45.541
			c0.375,0.151,0.752,0.301,1.128,0.452c34.66,0,11.796-49.208,11.795-64.806c-2.48-0.677-4.962-1.354-7.443-2.029
			c0,11.904,19.603,60.17-4.127,60.292C78.13,95.222,91.286,57.52,61.252,51.598c-0.151,2.444-0.752,4.21-0.902,6.316
			C60.576,57.764,60.801,60.32,61.026,60.17L61.026,60.17z"/>
		<path fill-rule="evenodd" clip-rule="evenodd" fill="#FFFFFF" d="M105.891,31.083l-0.417,0.416l0.001,8.439
			c0,1.407-1.14,2.548-2.547,2.548l-3.025,0c-1.407,0-2.548-1.14-2.548-2.547L97.354,31.5L86.668,20.812
			c-1.358-1.358-1.455-3.46-0.22-4.697l2.239-2.238c1.236-1.236,3.337-1.138,4.695,0.22l9.441,9.44l0.103,0.001
			c1.407,0,2.548,1.14,2.548,2.547l0,0.105l0.197,0.196C107.029,27.744,107.127,29.847,105.891,31.083L105.891,31.083z
			 M64.076,100.761c-16.503,0.001-30.624,0.001-45.857,0.001l0-89.08c0-2.862,2.274-5.182,5.076-5.182l35.702,0
			c2.805,0.001,5.079,2.321,5.079,5.182L64.076,100.761L64.076,100.761z M23.334,14.143c0.001,10.657,0,19.482,0.001,25.477
			l35.625,0c0-7.993,0-15.485,0.002-25.476L23.334,14.143L23.334,14.143z M76.815,108.405l0,2.547c0,1.407-1.14,2.548-2.547,2.548
			l-63.69-0.001c-1.407,0-2.548-1.14-2.548-2.547l0.001-2.547c0-1.409,1.14-2.548,2.547-2.548l63.69,0.001
			C75.673,105.856,76.815,106.998,76.815,108.405L76.815,108.405z"/>
	</g>
</g>
<g id="disabled" opacity="0.2">
	<g>
		<path fill-rule="evenodd" clip-rule="evenodd" fill="#FFFFFF" d="M61.026,60.17c21.455,0.033,11.26,45.541,30.623,45.541
			c0.375,0.151,0.752,0.301,1.128,0.452c34.66,0,11.796-49.208,11.795-64.806c-2.48-0.677-4.962-1.354-7.443-2.029
			c0,11.904,19.603,60.17-4.127,60.292C78.13,95.222,91.286,57.52,61.252,51.598c-0.151,2.444-0.752,4.21-0.902,6.316
			C60.576,57.764,60.801,60.32,61.026,60.17L61.026,60.17z"/>
		<path fill-rule="evenodd" clip-rule="evenodd" fill="#FFFFFF" d="M105.891,31.083l-0.417,0.416l0.001,8.439
			c0,1.407-1.14,2.548-2.547,2.548l-3.025,0c-1.407,0-2.548-1.14-2.548-2.547L97.354,31.5L86.668,20.812
			c-1.358-1.358-1.455-3.46-0.22-4.697l2.239-2.238c1.236-1.236,3.337-1.138,4.695,0.22l9.441,9.44l0.103,0.001
			c1.407,0,2.548,1.14,2.548,2.547l0,0.105l0.197,0.196C107.029,27.744,107.127,29.847,105.891,31.083L105.891,31.083z
			 M64.076,100.761c-16.503,0.001-30.624,0.001-45.857,0.001l0-89.08c0-2.862,2.274-5.182,5.076-5.182l35.702,0
			c2.805,0.001,5.079,2.321,5.079,5.182L64.076,100.761L64.076,100.761z M23.334,14.143c0.001,10.657,0,19.482,0.001,25.477
			l35.625,0c0-7.993,0-15.485,0.002-25.476L23.334,14.143L23.334,14.143z M76.815,108.405l0,2.547c0,1.407-1.14,2.548-2.547,2.548
			l-63.69-0.001c-1.407,0-2.548-1.14-2.548-2.547l0.001-2.547c0-1.409,1.14-2.548,2.547-2.548l63.69,0.001
			C75.673,105.856,76.815,106.998,76.815,108.405L76.815,108.405z"/>
	</g>
</g>
</svg>
