<?xml version="1.0" encoding="utf-8"?>
<!-- Generator: Adobe Illustrator 17.1.0, SVG Export Plug-In . SVG Version: 6.00 Build 0)  -->
<!DOCTYPE svg PUBLIC "-//W3C//DTD SVG 1.1//EN" "http://www.w3.org/Graphics/SVG/1.1/DTD/svg11.dtd">
<svg version="1.1" xmlns="http://www.w3.org/2000/svg" xmlns:xlink="http://www.w3.org/1999/xlink" x="0px" y="0px"
	 viewBox="0 0 120 120" enable-background="new 0 0 120 120" xml:space="preserve">
<g id="Layer_2" display="none">
	<circle display="inline" opacity="0.5" fill="#DF1F26" cx="60" cy="60" r="60"/>
	<rect x="6.5" y="6.5" display="inline" opacity="0.5" fill="#3B4FA1" width="107" height="107"/>
</g>
<g id="normal">
	<g>
		<path display="none" fill="#FFFFFF" d="M113.5,43.959L108,17.29L89.675,37.682l7.277,1.947l-2.839,10.453
			c-0.113,0.414-0.539,0.659-0.954,0.548l-23.508-6.322l-18.502-4.874c0,0-4.887-1.699-9.69,1.107
			c-4.62,2.701-7.291,14.092-7.291,14.092L29.21,72.827L24.5,89.13c-0.161,0.557-0.736,0.883-1.297,0.735L6.5,85.464l5.636,12.102
			l19.044,5.06c1.324,0.352,2.682-0.435,3.036-1.758l2.025-7.568L41.1,75.958l4.833-17.624l1.923-6.967
			c0.146-0.529,0.692-0.84,1.221-0.696l17.542,4.768l24.207,6.744l-0.003,0.011l8.163,2.225c1.102,0.3,2.238-0.349,2.539-1.451
			l5.613-20.593l-1.062-0.372L113.5,43.959z"/>
		<g>
			<polygon fill="#FFFFFF" points="107.188,41.708 106.721,42.173 113.5,43.959 108,17.29 96.047,30.59 			"/>
			<path fill="#FFFFFF" d="M87.578,61.278l3.248,0.905l-0.003,0.011l8.163,2.226c1.102,0.3,2.238-0.349,2.539-1.451l5.613-20.593
				l-0.458-0.16L87.578,61.278z"/>
			<path fill="#FFFFFF" d="M16.813,97.006l25.492-25.439l0.952-3.472l-10.03-10.009L29.21,72.827L24.5,89.13
				c-0.161,0.557-0.736,0.883-1.297,0.735L6.5,85.464l5.636,12.102l7.14,1.897L16.813,97.006z"/>
			<path fill="#FFFFFF" d="M62.001,51.91l7.625-7.609l-18.477-4.867c0,0-0.805-0.274-2.07-0.42L62.001,51.91z"/>
		</g>
		<path fill="#FA0000" d="M89.706,103.148L28.139,41.707l6.158-6.143l61.565,61.441L89.706,103.148L89.706,103.148z M34.297,103.148
			l-6.158-6.143l61.567-61.441l6.156,6.143L34.297,103.148L34.297,103.148z"/>
	</g>
</g>
<g id="active">
	<g>
		<path display="none" fill="#FFFFFF" d="M113.5,43.959L108,17.29L89.675,37.682l7.277,1.947l-2.839,10.453
			c-0.113,0.414-0.539,0.659-0.954,0.548l-23.508-6.322l-18.502-4.874c0,0-4.887-1.699-9.69,1.107
			c-4.62,2.701-7.291,14.092-7.291,14.092L29.21,72.827L24.5,89.13c-0.161,0.557-0.736,0.883-1.297,0.735L6.5,85.464l5.636,12.102
			l19.044,5.06c1.324,0.352,2.682-0.435,3.036-1.758l2.025-7.568L41.1,75.958l4.833-17.624l1.923-6.967
			c0.146-0.529,0.692-0.84,1.221-0.696l17.542,4.768l24.207,6.744l-0.003,0.011l8.163,2.225c1.102,0.3,2.238-0.349,2.539-1.451
			l5.613-20.593l-1.062-0.372L113.5,43.959z"/>
		<g>
			<polygon fill="#FFFFFF" points="107.188,41.708 106.721,42.173 113.5,43.959 108,17.29 96.047,30.59 			"/>
			<path fill="#FFFFFF" d="M87.578,61.278l3.248,0.905l-0.003,0.011l8.163,2.226c1.102,0.3,2.238-0.349,2.539-1.451l5.613-20.593
				l-0.458-0.16L87.578,61.278z"/>
			<path fill="#FFFFFF" d="M16.813,97.006l25.492-25.439l0.952-3.472l-10.03-10.009L29.21,72.827L24.5,89.13
				c-0.161,0.557-0.736,0.883-1.297,0.735L6.5,85.464l5.636,12.102l7.14,1.897L16.813,97.006z"/>
			<path fill="#FFFFFF" d="M62.001,51.91l7.625-7.609l-18.477-4.867c0,0-0.805-0.274-2.07-0.42L62.001,51.91z"/>
		</g>
		<path fill="#FA0000" d="M89.706,103.148L28.139,41.707l6.158-6.143l61.565,61.441L89.706,103.148L89.706,103.148z M34.297,103.148
			l-6.158-6.143l61.567-61.441l6.156,6.143L34.297,103.148L34.297,103.148z"/>
	</g>
</g>
<g id="disabled" opacity="0.6">
	<g>
		<path display="none" fill="#FFFFFF" d="M113.5,43.959L108,17.29L89.675,37.682l7.277,1.947l-2.839,10.453
			c-0.113,0.414-0.539,0.659-0.954,0.548l-23.508-6.322l-18.502-4.874c0,0-4.887-1.699-9.69,1.107
			c-4.62,2.701-7.291,14.092-7.291,14.092L29.21,72.827L24.5,89.13c-0.161,0.557-0.736,0.883-1.297,0.735L6.5,85.464l5.636,12.102
			l19.044,5.06c1.324,0.352,2.682-0.435,3.036-1.758l2.025-7.568L41.1,75.958l4.833-17.624l1.923-6.967
			c0.146-0.529,0.692-0.84,1.221-0.696l17.542,4.768l24.207,6.744l-0.003,0.011l8.163,2.225c1.102,0.3,2.238-0.349,2.539-1.451
			l5.613-20.593l-1.062-0.372L113.5,43.959z"/>
		<g>
			<polygon fill="#FFFFFF" points="107.188,41.708 106.721,42.173 113.5,43.959 108,17.29 96.047,30.59 			"/>
			<path fill="#FFFFFF" d="M87.578,61.278l3.248,0.905l-0.003,0.011l8.163,2.226c1.102,0.3,2.238-0.349,2.539-1.451l5.613-20.593
				l-0.458-0.16L87.578,61.278z"/>
			<path fill="#FFFFFF" d="M16.813,97.006l25.492-25.439l0.952-3.472l-10.03-10.009L29.21,72.827L24.5,89.13
				c-0.161,0.557-0.736,0.883-1.297,0.735L6.5,85.464l5.636,12.102l7.14,1.897L16.813,97.006z"/>
			<path fill="#FFFFFF" d="M62.001,51.91l7.625-7.609l-18.477-4.867c0,0-0.805-0.274-2.07-0.42L62.001,51.91z"/>
		</g>
		<path fill="#FA0000" d="M89.706,103.148L28.139,41.707l6.158-6.143l61.565,61.441L89.706,103.148L89.706,103.148z M34.297,103.148
			l-6.158-6.143l61.567-61.441l6.156,6.143L34.297,103.148L34.297,103.148z"/>
	</g>
</g>
</svg>
