<?xml version="1.0" encoding="iso-8859-1"?>
<!-- Generator: Adobe Illustrator 17.1.0, SVG Export Plug-In . SVG Version: 6.00 Build 0)  -->
<!DOCTYPE svg PUBLIC "-//W3C//DTD SVG 1.1//EN" "http://www.w3.org/Graphics/SVG/1.1/DTD/svg11.dtd">
<svg version="1.1" xmlns="http://www.w3.org/2000/svg" xmlns:xlink="http://www.w3.org/1999/xlink" x="0px" y="0px" width="120px"
	 height="120px" viewBox="0 0 120 120" enable-background="new 0 0 120 120" xml:space="preserve">
<g id="Layer_4" display="none">
	<circle display="inline" opacity="0.5" fill="#DF1F26" cx="60" cy="60" r="60"/>
	<rect x="6.5" y="6.5" display="inline" opacity="0.5" fill="#3B4FA1" width="107" height="107"/>
</g>
<g id="normal">
	<path fill-rule="evenodd" clip-rule="evenodd" fill="#FFFFFF" d="M6.5,12.132C6.5,9.034,9.043,6.5,12.152,6.5h95.697
		c3.108,0,5.652,2.534,5.652,5.632v95.737c0,3.097-2.543,5.632-5.652,5.632H12.152c-3.108,0-5.652-2.534-5.652-5.632V12.132z"/>
</g>
<g id="active">
	<path fill-rule="evenodd" clip-rule="evenodd" fill="#FFFFFF" d="M6.5,12.132C6.5,9.034,9.043,6.5,12.152,6.5h95.697
		c3.108,0,5.652,2.534,5.652,5.632v95.737c0,3.097-2.543,5.632-5.652,5.632H12.152c-3.108,0-5.652-2.534-5.652-5.632V12.132z"/>
</g>
<g id="disabled" opacity="0.2">
	<path fill-rule="evenodd" clip-rule="evenodd" fill="#FFFFFF" d="M6.5,12.132C6.5,9.034,9.043,6.5,12.152,6.5h95.697
		c3.108,0,5.652,2.534,5.652,5.632v95.737c0,3.097-2.543,5.632-5.652,5.632H12.152c-3.108,0-5.652-2.534-5.652-5.632V12.132z"/>
</g>
</svg>
