<?xml version="1.0" encoding="UTF-8" standalone="no"?>
<svg
   xmlns:dc="http://purl.org/dc/elements/1.1/"
   xmlns:cc="http://creativecommons.org/ns#"
   xmlns:rdf="http://www.w3.org/1999/02/22-rdf-syntax-ns#"
   xmlns:svg="http://www.w3.org/2000/svg"
   xmlns="http://www.w3.org/2000/svg"
   id="svg71"
   width="750pt"
   viewBox="0 0 750 750"
   version="1.1"
   height="750pt">
  <g
     id="surface1">
    <path
       id="path2"
       fill="#FFFFFF"
       d="M 712.5,0 H 37.5 C 16.792969,0 0,16.792969 0,37.5 v 150 C 0,208.20703 16.792969,225 37.5,225 h 675 c 20.70703,0 37.5,-16.79297 37.5,-37.5 V 37.5 C 750,16.792969 733.20703,0 712.5,0 Z M 725,187.5 c 0,6.90625 -5.59375,12.5 -12.5,12.5 H 37.5 C 30.59375,200 25,194.40625 25,187.5 V 37.5 C 25,30.59375 30.59375,25 37.5,25 h 675 c 6.90625,0 12.5,5.59375 12.5,12.5 z m 0,0" />
    <path
       id="path4"
       fill="#FFFFFF"
       d="M 662.5,75 C 641.79297,75 625,91.792969 625,112.5 625,133.20703 641.79297,150 662.5,150 683.20703,150 700,133.20703 700,112.5 700,91.792969 683.20703,75 662.5,75 Z m 0,50 c -6.90625,0 -12.5,-5.59375 -12.5,-12.5 0,-6.90625 5.59375,-12.5 12.5,-12.5 6.90625,0 12.5,5.59375 12.5,12.5 0,6.90625 -5.59375,12.5 -12.5,12.5 z m 0,0" />
    <path
       id="path6"
       fill="#FFFFFF"
       d="M 562.5,75 C 541.79297,75 525,91.792969 525,112.5 525,133.20703 541.79297,150 562.5,150 583.20703,150 600,133.20703 600,112.5 600,91.792969 583.20703,75 562.5,75 Z m 0,50 c -6.90625,0 -12.5,-5.59375 -12.5,-12.5 0,-6.90625 5.59375,-12.5 12.5,-12.5 6.90625,0 12.5,5.59375 12.5,12.5 0,6.90625 -5.59375,12.5 -12.5,12.5 z m 0,0" />
    <path
       id="path8"
       fill="#FFFFFF"
       d="M 462.5,75 C 441.79297,75 425,91.792969 425,112.5 425,133.20703 441.79297,150 462.5,150 483.20703,150 500,133.20703 500,112.5 500,91.792969 483.20703,75 462.5,75 Z m 0,50 c -6.90625,0 -12.5,-5.59375 -12.5,-12.5 0,-6.90625 5.59375,-12.5 12.5,-12.5 6.90625,0 12.5,5.59375 12.5,12.5 0,6.90625 -5.59375,12.5 -12.5,12.5 z m 0,0" />
    <path
       id="path10"
       fill="#FFFFFF"
       d="m 50,125 h 25 v 50 H 50 Z m 0,0" />
    <path
       id="path12"
       fill="#FFFFFF"
       d="m 100,125 h 25 v 50 h -25 z m 0,0" />
    <path
       id="path14"
       fill="#FFFFFF"
       d="m 150,125 h 25 v 50 h -25 z m 0,0" />
    <path
       id="path16"
       fill="#FFFFFF"
       d="m 200,125 h 25 v 50 h -25 z m 0,0" />
    <path
       id="path18"
       fill="#FFFFFF"
       d="m 250,125 h 25 v 50 h -25 z m 0,0" />
    <path
       id="path20"
       fill="#FFFFFF"
       d="m 300,125 h 25 v 50 h -25 z m 0,0" />
    <path
       id="path22"
       fill="#FFFFFF"
       d="m 50,50 h 25 v 50 H 50 Z m 0,0" />
    <path
       id="path24"
       fill="#FFFFFF"
       d="m 100,50 h 25 v 50 h -25 z m 0,0" />
    <path
       id="path26"
       fill="#FFFFFF"
       d="m 150,50 h 25 v 50 h -25 z m 0,0" />
    <path
       id="path28"
       fill="#FFFFFF"
       d="m 200,50 h 25 v 50 h -25 z m 0,0" />
    <path
       id="path30"
       fill="#FFFFFF"
       d="m 250,50 h 25 v 50 h -25 z m 0,0" />
    <path
       id="path32"
       fill="#FFFFFF"
       d="m 300,50 h 25 v 50 h -25 z m 0,0" />
    <path
       id="path34"
       fill="#FFFFFF"
       d="M 712.5,525 H 37.5 C 16.792969,525 0,541.79297 0,562.5 v 150 C 0,733.20703 16.792969,750 37.5,750 h 675 c 20.70703,0 37.5,-16.79297 37.5,-37.5 v -150 C 750,541.79297 733.20703,525 712.5,525 Z M 725,712.5 c 0,6.90625 -5.59375,12.5 -12.5,12.5 H 37.5 C 30.59375,725 25,719.40625 25,712.5 v -150 C 25,555.59375 30.59375,550 37.5,550 h 675 c 6.90625,0 12.5,5.59375 12.5,12.5 z m 0,0" />
    <path
       id="path36"
       fill="#FFFFFF"
       d="m 662.5,600 c -20.70703,0 -37.5,16.79297 -37.5,37.5 0,20.70703 16.79297,37.5 37.5,37.5 20.70703,0 37.5,-16.79297 37.5,-37.5 0,-20.70703 -16.79297,-37.5 -37.5,-37.5 z m 0,50 c -6.90625,0 -12.5,-5.59375 -12.5,-12.5 0,-6.90625 5.59375,-12.5 12.5,-12.5 6.90625,0 12.5,5.59375 12.5,12.5 0,6.90625 -5.59375,12.5 -12.5,12.5 z m 0,0" />
    <path
       id="path38"
       fill="#FFFFFF"
       d="m 562.5,600 c -20.70703,0 -37.5,16.79297 -37.5,37.5 0,20.70703 16.79297,37.5 37.5,37.5 20.70703,0 37.5,-16.79297 37.5,-37.5 0,-20.70703 -16.79297,-37.5 -37.5,-37.5 z m 0,50 c -6.90625,0 -12.5,-5.59375 -12.5,-12.5 0,-6.90625 5.59375,-12.5 12.5,-12.5 6.90625,0 12.5,5.59375 12.5,12.5 0,6.90625 -5.59375,12.5 -12.5,12.5 z m 0,0" />
    <path
       id="path40"
       fill="#FFFFFF"
       d="m 462.5,600 c -20.70703,0 -37.5,16.79297 -37.5,37.5 0,20.70703 16.79297,37.5 37.5,37.5 20.70703,0 37.5,-16.79297 37.5,-37.5 0,-20.70703 -16.79297,-37.5 -37.5,-37.5 z m 0,50 c -6.90625,0 -12.5,-5.59375 -12.5,-12.5 0,-6.90625 5.59375,-12.5 12.5,-12.5 6.90625,0 12.5,5.59375 12.5,12.5 0,6.90625 -5.59375,12.5 -12.5,12.5 z m 0,0" />
    <path
       id="path42"
       fill="#FFFFFF"
       d="m 512.5,500 h 100 c 6.90625,0 12.5,-5.59375 12.5,-12.5 v -100 h 50 c 5.05469,0 9.61328,-3.04688 11.54687,-7.71484 1.9336,-4.66797 0.85938,-10.05079 -2.71093,-13.6211 l -112.5,-112.5 c -4.88282,-4.8789 -12.78907,-4.8789 -17.67188,0 l -112.5,112.5 c -3.57031,3.57031 -4.64453,8.95313 -2.71094,13.6211 1.9336,4.66796 6.49219,7.71484 11.54688,7.71484 h 50 v 100 c 0,6.90625 5.59375,12.5 12.5,12.5 z M 480.17578,362.5 562.5,280.17578 644.82422,362.5 H 612.5 c -6.90625,0 -12.5,5.59375 -12.5,12.5 V 475 H 525 V 375 c 0,-6.90625 -5.59375,-12.5 -12.5,-12.5 z m 0,0" />
    <path
       id="path44"
       fill="#FFFFFF"
       d="m 237.5,250 h -100 c -6.90625,0 -12.5,5.59375 -12.5,12.5 v 100 H 75 c -5.054688,0 -9.613281,3.04687 -11.546875,7.71484 -1.933594,4.66797 -0.859375,10.05078 2.710937,13.6211 l 112.499998,112.5 c 4.88281,4.8789 12.78906,4.8789 17.67188,0 l 112.5,-112.5 c 3.57031,-3.57032 4.64453,-8.95313 2.71093,-13.6211 C 309.61328,365.54687 305.05469,362.5 300,362.5 h -50 v -100 C 250,255.59375 244.40625,250 237.5,250 Z M 269.82422,387.5 187.5,469.82422 105.17578,387.5 H 137.5 c 6.90625,0 12.5,-5.59375 12.5,-12.5 V 275 h 75 v 100 c 0,6.90625 5.59375,12.5 12.5,12.5 z m 0,0" />
    <path
       id="path46"
       fill="#FFFFFF"
       d="m 50,650 h 25 v 50 H 50 Z m 0,0" />
    <path
       id="path48"
       fill="#FFFFFF"
       d="m 100,650 h 25 v 50 h -25 z m 0,0" />
    <path
       id="path50"
       fill="#FFFFFF"
       d="m 150,650 h 25 v 50 h -25 z m 0,0" />
    <path
       id="path52"
       fill="#FFFFFF"
       d="m 200,650 h 25 v 50 h -25 z m 0,0" />
    <path
       id="path54"
       fill="#FFFFFF"
       d="m 250,650 h 25 v 50 h -25 z m 0,0" />
    <path
       id="path56"
       fill="#FFFFFF"
       d="m 300,650 h 25 v 50 h -25 z m 0,0" />
    <path
       id="path58"
       fill="#FFFFFF"
       d="m 50,575 h 25 v 50 H 50 Z m 0,0" />
    <path
       id="path60"
       fill="#FFFFFF"
       d="m 100,575 h 25 v 50 h -25 z m 0,0" />
    <path
       id="path62"
       fill="#FFFFFF"
       d="m 150,575 h 25 v 50 h -25 z m 0,0" />
    <path
       id="path64"
       fill="#FFFFFF"
       d="m 200,575 h 25 v 50 h -25 z m 0,0" />
    <path
       id="path66"
       fill="#FFFFFF"
       d="m 250,575 h 25 v 50 h -25 z m 0,0" />
    <path
       id="path68"
       fill="#FFFFFF"
       d="m 300,575 h 25 v 50 h -25 z m 0,0" />
  </g>
</svg>
