<?xml version="1.0" encoding="iso-8859-1"?>
<!-- Generator: Adobe Illustrator 17.1.0, SVG Export Plug-In . SVG Version: 6.00 Build 0)  -->
<!DOCTYPE svg PUBLIC "-//W3C//DTD SVG 1.1//EN" "http://www.w3.org/Graphics/SVG/1.1/DTD/svg11.dtd">
<svg version="1.1" xmlns="http://www.w3.org/2000/svg" xmlns:xlink="http://www.w3.org/1999/xlink" x="0px" y="0px" width="120px"
	 height="120px" viewBox="0 0 120 120" enable-background="new 0 0 120 120" xml:space="preserve">
<g id="Layer_2" display="none">
	<circle display="inline" opacity="0.5" fill="#DF1F26" cx="60" cy="60" r="60"/>
	<rect x="6.5" y="6.5" display="inline" opacity="0.5" fill="#3B4FA1" width="107" height="107"/>
</g>
<g id="normal">
	<g>
		<path fill="#EB6900" d="M100.629,24.115l-0.255,82.669c-0.012,3.573-2.947,6.479-6.558,6.49L20.069,113.5l-8.756-9.769
			l73.973-0.226c2.87-0.009,5.205-2.319,5.214-5.16l0.203-65.726C90.712,29.778,100.641,20.542,100.629,24.115L100.629,24.115z
			 M82.757,32.306L95.802,6.5l12.885,25.727L82.757,32.306L82.757,32.306z"/>
		<path fill-rule="evenodd" clip-rule="evenodd" fill="#FFFFFF" d="M82.747,61.806c0.002,0.169,0.007,0.338,0.006,0.508
			c0.001,1.936-0.162,3.834-0.47,5.682c-1.887,0.407-4.263,0.776-7.127,1.108c-0.408,1.615-0.957,3.172-1.633,4.659
			c2.029,2.049,3.653,3.822,4.872,5.319c-1.014,1.815-2.187,3.53-3.501,5.123c-1.839-0.593-4.083-1.461-6.733-2.607
			c-1.147,1.179-2.397,2.255-3.737,3.216c0.732,2.791,1.254,5.14,1.562,7.046c-1.767,1.058-3.636,1.96-5.59,2.692
			c-1.296-1.432-2.805-3.306-4.526-5.622c-1.565,0.442-3.187,0.748-4.85,0.906c-0.76,2.782-1.484,5.075-2.169,6.881
			c-0.17,0.003-0.338,0.007-0.508,0.006c-1.936,0.001-3.834-0.162-5.682-0.47c-0.407-1.887-0.776-4.263-1.11-7.127
			c-1.613-0.409-3.17-0.957-4.657-1.633c-2.05,2.029-3.823,3.653-5.32,4.873c-1.813-1.015-3.529-2.187-5.122-3.502
			c0.593-1.839,1.461-4.083,2.607-6.733c-1.179-1.147-2.255-2.397-3.216-3.737c-2.793,0.733-5.141,1.255-7.048,1.562
			c-1.056-1.768-1.96-3.636-2.691-5.59c1.432-1.296,3.304-2.804,5.622-4.526c-0.442-1.565-0.748-3.187-0.908-4.85
			c-2.782-0.76-5.075-1.484-6.879-2.169c-0.002-0.169-0.007-0.338-0.006-0.508c-0.001-1.936,0.162-3.834,0.469-5.681
			c1.887-0.407,4.263-0.776,7.129-1.109c0.406-1.615,0.956-3.172,1.633-4.659c-2.029-2.05-3.655-3.823-4.874-5.318
			c1.016-1.815,2.187-3.53,3.503-5.124c1.839,0.593,4.083,1.461,6.733,2.607c1.147-1.179,2.397-2.255,3.737-3.216
			c-0.734-2.792-1.255-5.141-1.562-7.048c1.766-1.056,3.636-1.96,5.59-2.691c1.296,1.432,2.805,3.304,4.526,5.622
			c1.565-0.442,3.185-0.748,4.849-0.908c0.76-2.783,1.482-5.075,2.169-6.879c0.169-0.002,0.338-0.007,0.508-0.006
			c1.936-0.001,3.832,0.163,5.681,0.469c0.407,1.887,0.776,4.263,1.109,7.129c1.613,0.407,3.172,0.956,4.659,1.633
			c2.049-2.029,3.821-3.654,5.318-4.874c1.815,1.016,3.531,2.187,5.124,3.503c-0.593,1.839-1.461,4.083-2.607,6.733
			c1.179,1.147,2.255,2.397,3.215,3.738c2.792-0.734,5.141-1.255,7.048-1.562c1.058,1.766,1.96,3.636,2.692,5.59
			c-1.432,1.296-3.306,2.805-5.622,4.526c0.442,1.565,0.748,3.185,0.908,4.85C78.649,60.397,80.941,61.119,82.747,61.806
			L82.747,61.806z M48.342,43.503c-10.389,0-18.81,8.422-18.81,18.811c0,10.389,8.422,18.81,18.811,18.81
			c10.387-0.001,18.81-8.422,18.81-18.811C67.152,51.925,58.731,43.504,48.342,43.503L48.342,43.503z"/>
	</g>
</g>
<g id="active">
	<g>
		<path fill="#EB6900" d="M100.629,24.115l-0.255,82.669c-0.012,3.573-2.947,6.479-6.558,6.49L20.069,113.5l-8.756-9.769
			l73.973-0.226c2.87-0.009,5.205-2.319,5.214-5.16l0.203-65.726C90.712,29.778,100.641,20.542,100.629,24.115L100.629,24.115z
			 M82.757,32.306L95.802,6.5l12.885,25.727L82.757,32.306L82.757,32.306z"/>
		<path fill-rule="evenodd" clip-rule="evenodd" fill="#FFFFFF" d="M82.747,61.806c0.002,0.169,0.007,0.338,0.006,0.508
			c0.001,1.936-0.162,3.834-0.47,5.682c-1.887,0.407-4.263,0.776-7.127,1.108c-0.408,1.615-0.957,3.172-1.633,4.659
			c2.029,2.049,3.653,3.822,4.872,5.319c-1.014,1.815-2.187,3.53-3.501,5.123c-1.839-0.593-4.083-1.461-6.733-2.607
			c-1.147,1.179-2.397,2.255-3.737,3.216c0.732,2.791,1.254,5.14,1.562,7.046c-1.767,1.058-3.636,1.96-5.59,2.692
			c-1.296-1.432-2.805-3.306-4.526-5.622c-1.565,0.442-3.187,0.748-4.85,0.906c-0.76,2.782-1.484,5.075-2.169,6.881
			c-0.17,0.003-0.338,0.007-0.508,0.006c-1.936,0.001-3.834-0.162-5.682-0.47c-0.407-1.887-0.776-4.263-1.11-7.127
			c-1.613-0.409-3.17-0.957-4.657-1.633c-2.05,2.029-3.823,3.653-5.32,4.873c-1.813-1.015-3.529-2.187-5.122-3.502
			c0.593-1.839,1.461-4.083,2.607-6.733c-1.179-1.147-2.255-2.397-3.216-3.737c-2.793,0.733-5.141,1.255-7.048,1.562
			c-1.056-1.768-1.96-3.636-2.691-5.59c1.432-1.296,3.304-2.804,5.622-4.526c-0.442-1.565-0.748-3.187-0.908-4.85
			c-2.782-0.76-5.075-1.484-6.879-2.169c-0.002-0.169-0.007-0.338-0.006-0.508c-0.001-1.936,0.162-3.834,0.469-5.681
			c1.887-0.407,4.263-0.776,7.129-1.109c0.406-1.615,0.956-3.172,1.633-4.659c-2.029-2.05-3.655-3.823-4.874-5.318
			c1.016-1.815,2.187-3.53,3.503-5.124c1.839,0.593,4.083,1.461,6.733,2.607c1.147-1.179,2.397-2.255,3.737-3.216
			c-0.734-2.792-1.255-5.141-1.562-7.048c1.766-1.056,3.636-1.96,5.59-2.691c1.296,1.432,2.805,3.304,4.526,5.622
			c1.565-0.442,3.185-0.748,4.849-0.908c0.76-2.783,1.482-5.075,2.169-6.879c0.169-0.002,0.338-0.007,0.508-0.006
			c1.936-0.001,3.832,0.163,5.681,0.469c0.407,1.887,0.776,4.263,1.109,7.129c1.613,0.407,3.172,0.956,4.659,1.633
			c2.049-2.029,3.821-3.654,5.318-4.874c1.815,1.016,3.531,2.187,5.124,3.503c-0.593,1.839-1.461,4.083-2.607,6.733
			c1.179,1.147,2.255,2.397,3.215,3.738c2.792-0.734,5.141-1.255,7.048-1.562c1.058,1.766,1.96,3.636,2.692,5.59
			c-1.432,1.296-3.306,2.805-5.622,4.526c0.442,1.565,0.748,3.185,0.908,4.85C78.649,60.397,80.941,61.119,82.747,61.806
			L82.747,61.806z M48.342,43.503c-10.389,0-18.81,8.422-18.81,18.811c0,10.389,8.422,18.81,18.811,18.81
			c10.387-0.001,18.81-8.422,18.81-18.811C67.152,51.925,58.731,43.504,48.342,43.503L48.342,43.503z"/>
	</g>
</g>
<g id="disabled" opacity="0.2">
	<g>
		<path fill="#EB6900" d="M100.629,24.115l-0.255,82.669c-0.012,3.573-2.947,6.479-6.558,6.49L20.069,113.5l-8.756-9.769
			l73.973-0.226c2.87-0.009,5.205-2.319,5.214-5.16l0.203-65.726C90.712,29.778,100.641,20.542,100.629,24.115L100.629,24.115z
			 M82.757,32.306L95.802,6.5l12.885,25.727L82.757,32.306L82.757,32.306z"/>
		<path fill-rule="evenodd" clip-rule="evenodd" fill="#FFFFFF" d="M82.747,61.806c0.002,0.169,0.007,0.338,0.006,0.508
			c0.001,1.936-0.162,3.834-0.47,5.682c-1.887,0.407-4.263,0.776-7.127,1.108c-0.408,1.615-0.957,3.172-1.633,4.659
			c2.029,2.049,3.653,3.822,4.872,5.319c-1.014,1.815-2.187,3.53-3.501,5.123c-1.839-0.593-4.083-1.461-6.733-2.607
			c-1.147,1.179-2.397,2.255-3.737,3.216c0.732,2.791,1.254,5.14,1.562,7.046c-1.767,1.058-3.636,1.96-5.59,2.692
			c-1.296-1.432-2.805-3.306-4.526-5.622c-1.565,0.442-3.187,0.748-4.85,0.906c-0.76,2.782-1.484,5.075-2.169,6.881
			c-0.17,0.003-0.338,0.007-0.508,0.006c-1.936,0.001-3.834-0.162-5.682-0.47c-0.407-1.887-0.776-4.263-1.11-7.127
			c-1.613-0.409-3.17-0.957-4.657-1.633c-2.05,2.029-3.823,3.653-5.32,4.873c-1.813-1.015-3.529-2.187-5.122-3.502
			c0.593-1.839,1.461-4.083,2.607-6.733c-1.179-1.147-2.255-2.397-3.216-3.737c-2.793,0.733-5.141,1.255-7.048,1.562
			c-1.056-1.768-1.96-3.636-2.691-5.59c1.432-1.296,3.304-2.804,5.622-4.526c-0.442-1.565-0.748-3.187-0.908-4.85
			c-2.782-0.76-5.075-1.484-6.879-2.169c-0.002-0.169-0.007-0.338-0.006-0.508c-0.001-1.936,0.162-3.834,0.469-5.681
			c1.887-0.407,4.263-0.776,7.129-1.109c0.406-1.615,0.956-3.172,1.633-4.659c-2.029-2.05-3.655-3.823-4.874-5.318
			c1.016-1.815,2.187-3.53,3.503-5.124c1.839,0.593,4.083,1.461,6.733,2.607c1.147-1.179,2.397-2.255,3.737-3.216
			c-0.734-2.792-1.255-5.141-1.562-7.048c1.766-1.056,3.636-1.96,5.59-2.691c1.296,1.432,2.805,3.304,4.526,5.622
			c1.565-0.442,3.185-0.748,4.849-0.908c0.76-2.783,1.482-5.075,2.169-6.879c0.169-0.002,0.338-0.007,0.508-0.006
			c1.936-0.001,3.832,0.163,5.681,0.469c0.407,1.887,0.776,4.263,1.109,7.129c1.613,0.407,3.172,0.956,4.659,1.633
			c2.049-2.029,3.821-3.654,5.318-4.874c1.815,1.016,3.531,2.187,5.124,3.503c-0.593,1.839-1.461,4.083-2.607,6.733
			c1.179,1.147,2.255,2.397,3.215,3.738c2.792-0.734,5.141-1.255,7.048-1.562c1.058,1.766,1.96,3.636,2.692,5.59
			c-1.432,1.296-3.306,2.805-5.622,4.526c0.442,1.565,0.748,3.185,0.908,4.85C78.649,60.397,80.941,61.119,82.747,61.806
			L82.747,61.806z M48.342,43.503c-10.389,0-18.81,8.422-18.81,18.811c0,10.389,8.422,18.81,18.811,18.81
			c10.387-0.001,18.81-8.422,18.81-18.811C67.152,51.925,58.731,43.504,48.342,43.503L48.342,43.503z"/>
	</g>
</g>
</svg>
