<?xml version="1.0" encoding="utf-8"?>
<!-- Generator: Adobe Illustrator 17.1.0, SVG Export Plug-In . SVG Version: 6.00 Build 0)  -->
<!DOCTYPE svg PUBLIC "-//W3C//DTD SVG 1.1//EN" "http://www.w3.org/Graphics/SVG/1.1/DTD/svg11.dtd">
<svg version="1.1" xmlns="http://www.w3.org/2000/svg" xmlns:xlink="http://www.w3.org/1999/xlink" x="0px" y="0px"
	 viewBox="0 0 120 120" enable-background="new 0 0 120 120" xml:space="preserve">
<g id="Layer_4" display="none">
	<circle display="inline" opacity="0.5" fill="#DF1F26" cx="60" cy="60" r="60"/>
	<rect x="6.5" y="6.5" display="inline" opacity="0.5" fill="#3B4FA1" width="107" height="107"/>
</g>
<g id="normal">
	<g>
		<g>
			<path fill-rule="evenodd" clip-rule="evenodd" fill="#FFFFFF" d="M14.539,10.775c0-2.304-1.857-4.17-4.148-4.17
				s-4.148,1.866-4.148,4.17c0,2.302,1.857,4.169,4.148,4.169S14.539,13.077,14.539,10.775z M22.9,11.059l-4.239-0.295
				c-0.38,4.176-3.531,7.538-7.59,8.226l0.296,4.273C17.538,22.413,22.369,17.358,22.9,11.059z M32.342,11.716l-4.979-0.346
				c-0.62,8.589-7.241,15.494-15.678,16.49l0.347,5.007C22.946,31.697,31.554,22.796,32.342,11.716z M37.057,12.044
				c-0.43,13.669-11.193,24.714-24.702,25.496l0.368,5.305c16.134-0.968,28.994-14.123,29.6-30.435L37.057,12.044z"/>
		</g>
	</g>
</g>
<g id="active">
	<g>
		<g>
			<path fill-rule="evenodd" clip-rule="evenodd" fill="#FFFFFF" d="M22.9,11.059l-4.239-0.295c-0.38,4.176-3.531,7.538-7.59,8.226
				l0.296,4.273C17.538,22.413,22.369,17.358,22.9,11.059z M14.539,10.775c0-2.304-1.857-4.17-4.148-4.17s-4.148,1.866-4.148,4.17
				c0,2.302,1.857,4.169,4.148,4.169S14.539,13.077,14.539,10.775z M32.342,11.716l-4.979-0.346
				c-0.62,8.589-7.241,15.494-15.678,16.49l0.347,5.007C22.946,31.697,31.554,22.796,32.342,11.716z M37.057,12.044
				c-0.43,13.669-11.193,24.714-24.702,25.496l0.368,5.305c16.134-0.968,28.994-14.123,29.6-30.435L37.057,12.044z"/>
		</g>
	</g>
</g>
<g id="disabled" opacity="0.2">
	<g>
		<g>
			<path fill-rule="evenodd" clip-rule="evenodd" fill="#FFFFFF" d="M14.539,10.775c0-2.304-1.857-4.17-4.148-4.17
				s-4.148,1.866-4.148,4.17c0,2.302,1.857,4.169,4.148,4.169S14.539,13.077,14.539,10.775z M22.9,11.059l-4.239-0.295
				c-0.38,4.176-3.531,7.538-7.59,8.226l0.296,4.273C17.538,22.413,22.369,17.358,22.9,11.059z M32.342,11.716l-4.979-0.346
				c-0.62,8.589-7.241,15.494-15.678,16.49l0.347,5.007C22.946,31.697,31.554,22.796,32.342,11.716z M37.057,12.044
				c-0.43,13.669-11.193,24.714-24.702,25.496l0.368,5.305c16.134-0.968,28.994-14.123,29.6-30.435L37.057,12.044z"/>
		</g>
	</g>
</g>
</svg>
