<?xml version="1.0" encoding="iso-8859-1"?>
<!-- Generator: Adobe Illustrator 17.1.0, SVG Export Plug-In . SVG Version: 6.00 Build 0)  -->
<!DOCTYPE svg PUBLIC "-//W3C//DTD SVG 1.1//EN" "http://www.w3.org/Graphics/SVG/1.1/DTD/svg11.dtd">
<svg version="1.1" xmlns="http://www.w3.org/2000/svg" xmlns:xlink="http://www.w3.org/1999/xlink" x="0px" y="0px" width="120px"
	 height="120px" viewBox="0 0 120 120" enable-background="new 0 0 120 120" xml:space="preserve">
<g id="Layer_2" display="none">
	<circle display="inline" opacity="0.5" fill="#DF1F26" cx="60" cy="60" r="60"/>
	<rect x="6.5" y="6.5" display="inline" opacity="0.5" fill="#3B4FA1" width="107" height="107"/>
</g>
<g id="normal">
	<g>
		<path fill="#FFFFFF" d="M58.505,92.043H36.373l14.31-53.482h9.823L58.505,92.043L58.505,92.043z M65.644,92.043l-2.001-53.482
			h9.823l14.31,53.482H65.644L65.644,92.043z M54.665,89.067v-4.857h14.999v4.857H54.665L54.665,89.067z M54.665,72.989v-4.857
			h14.999v4.857H54.665L54.665,72.989z M54.665,59.323v-4.858h14.999v4.858H54.665L54.665,59.323z M54.665,47.149v-4.857h14.999
			v4.857H54.665L54.665,47.149z"/>
		<path fill="#FFFFFF" d="M30.626,90.145H12.748c-0.666,0-1.204-0.535-1.204-1.197V76.971h20.289v11.977
			C31.833,89.611,31.292,90.145,30.626,90.145L30.626,90.145z M33.89,74.532H9.467c-0.466-0.475-0.466-1.247,0-1.722l11.365-9.969
			c0.468-0.475,1.224-0.475,1.689,0l11.367,9.969C34.355,73.285,34.355,74.056,33.89,74.532L33.89,74.532z"/>
		<path fill="#FFFFFF" d="M108.935,78.036H91.793c-0.638,0-1.157-0.513-1.157-1.148V65.403h19.456v11.485
			C110.092,77.523,109.573,78.036,108.935,78.036L108.935,78.036z M112.064,63.064H88.645c-0.446-0.456-0.446-1.196,0-1.651
			l10.9-9.559c0.447-0.456,1.172-0.456,1.62,0l10.899,9.559C112.512,61.868,112.512,62.608,112.064,63.064L112.064,63.064z"/>
		<path fill="#FFFFFF" d="M88.358,44.844h-7.462c-0.278,0-0.503-0.223-0.503-0.5v-4.998h8.467v4.998
			C88.861,44.621,88.636,44.844,88.358,44.844L88.358,44.844z M89.72,38.329H79.526c-0.194-0.199-0.194-0.52,0-0.72l4.744-4.16
			c0.194-0.199,0.511-0.199,0.705,0l4.744,4.16C89.914,37.808,89.914,38.129,89.72,38.329L89.72,38.329z"/>
		<path fill="#FFFFFF" d="M39.346,57.434H28.153c-0.416,0-0.755-0.244-0.755-0.544v-5.453h12.702v5.453
			C40.101,57.19,39.764,57.434,39.346,57.434L39.346,57.434z M41.389,50.326h-15.29c-0.292-0.217-0.292-0.569,0-0.784l7.116-4.539
			c0.292-0.217,0.764-0.217,1.057,0l7.116,4.539C41.681,49.757,41.681,50.109,41.389,50.326L41.389,50.326z"/>
	</g>
</g>
<g id="active">
	<g>
		<path fill="#FFFFFF" d="M58.505,92.043H36.373l14.31-53.482h9.823L58.505,92.043L58.505,92.043z M65.644,92.043l-2.001-53.482
			h9.823l14.31,53.482H65.644L65.644,92.043z M54.665,89.067v-4.857h14.999v4.857H54.665L54.665,89.067z M54.665,72.989v-4.857
			h14.999v4.857H54.665L54.665,72.989z M54.665,59.323v-4.858h14.999v4.858H54.665L54.665,59.323z M54.665,47.149v-4.857h14.999
			v4.857H54.665L54.665,47.149z"/>
		<path fill="#FFFFFF" d="M30.626,90.145H12.748c-0.666,0-1.204-0.535-1.204-1.197V76.971h20.289v11.977
			C31.833,89.611,31.292,90.145,30.626,90.145L30.626,90.145z M33.89,74.532H9.467c-0.466-0.475-0.466-1.247,0-1.722l11.365-9.969
			c0.468-0.475,1.224-0.475,1.689,0l11.367,9.969C34.355,73.285,34.355,74.056,33.89,74.532L33.89,74.532z"/>
		<path fill="#FFFFFF" d="M108.935,78.036H91.793c-0.638,0-1.157-0.513-1.157-1.148V65.403h19.456v11.485
			C110.092,77.523,109.573,78.036,108.935,78.036L108.935,78.036z M112.064,63.064H88.645c-0.446-0.456-0.446-1.196,0-1.651
			l10.9-9.559c0.447-0.456,1.172-0.456,1.62,0l10.899,9.559C112.512,61.868,112.512,62.608,112.064,63.064L112.064,63.064z"/>
		<path fill="#FFFFFF" d="M88.358,44.844h-7.462c-0.278,0-0.503-0.223-0.503-0.5v-4.998h8.467v4.998
			C88.861,44.621,88.636,44.844,88.358,44.844L88.358,44.844z M89.72,38.329H79.526c-0.194-0.199-0.194-0.52,0-0.72l4.744-4.16
			c0.194-0.199,0.511-0.199,0.705,0l4.744,4.16C89.914,37.808,89.914,38.129,89.72,38.329L89.72,38.329z"/>
		<path fill="#FFFFFF" d="M39.346,57.434H28.153c-0.416,0-0.755-0.244-0.755-0.544v-5.453h12.702v5.453
			C40.101,57.19,39.764,57.434,39.346,57.434L39.346,57.434z M41.389,50.326h-15.29c-0.292-0.217-0.292-0.569,0-0.784l7.116-4.539
			c0.292-0.217,0.764-0.217,1.057,0l7.116,4.539C41.681,49.757,41.681,50.109,41.389,50.326L41.389,50.326z"/>
	</g>
</g>
<g id="disabled" opacity="0.2">
	<g>
		<path fill="#FFFFFF" d="M58.505,92.043H36.373l14.31-53.482h9.823L58.505,92.043L58.505,92.043z M65.644,92.043l-2.001-53.482
			h9.823l14.31,53.482H65.644L65.644,92.043z M54.665,89.067v-4.857h14.999v4.857H54.665L54.665,89.067z M54.665,72.989v-4.857
			h14.999v4.857H54.665L54.665,72.989z M54.665,59.323v-4.858h14.999v4.858H54.665L54.665,59.323z M54.665,47.149v-4.857h14.999
			v4.857H54.665L54.665,47.149z"/>
		<path fill="#FFFFFF" d="M30.626,90.145H12.748c-0.666,0-1.204-0.535-1.204-1.197V76.971h20.289v11.977
			C31.833,89.611,31.292,90.145,30.626,90.145L30.626,90.145z M33.89,74.532H9.467c-0.466-0.475-0.466-1.247,0-1.722l11.365-9.969
			c0.468-0.475,1.224-0.475,1.689,0l11.367,9.969C34.355,73.285,34.355,74.056,33.89,74.532L33.89,74.532z"/>
		<path fill="#FFFFFF" d="M108.935,78.036H91.793c-0.638,0-1.157-0.513-1.157-1.148V65.403h19.456v11.485
			C110.092,77.523,109.573,78.036,108.935,78.036L108.935,78.036z M112.064,63.064H88.645c-0.446-0.456-0.446-1.196,0-1.651
			l10.9-9.559c0.447-0.456,1.172-0.456,1.62,0l10.899,9.559C112.512,61.868,112.512,62.608,112.064,63.064L112.064,63.064z"/>
		<path fill="#FFFFFF" d="M88.358,44.844h-7.462c-0.278,0-0.503-0.223-0.503-0.5v-4.998h8.467v4.998
			C88.861,44.621,88.636,44.844,88.358,44.844L88.358,44.844z M89.72,38.329H79.526c-0.194-0.199-0.194-0.52,0-0.72l4.744-4.16
			c0.194-0.199,0.511-0.199,0.705,0l4.744,4.16C89.914,37.808,89.914,38.129,89.72,38.329L89.72,38.329z"/>
		<path fill="#FFFFFF" d="M39.346,57.434H28.153c-0.416,0-0.755-0.244-0.755-0.544v-5.453h12.702v5.453
			C40.101,57.19,39.764,57.434,39.346,57.434L39.346,57.434z M41.389,50.326h-15.29c-0.292-0.217-0.292-0.569,0-0.784l7.116-4.539
			c0.292-0.217,0.764-0.217,1.057,0l7.116,4.539C41.681,49.757,41.681,50.109,41.389,50.326L41.389,50.326z"/>
	</g>
</g>
</svg>
