<?xml version="1.0" encoding="iso-8859-1"?>
<!-- Generator: Adobe Illustrator 17.1.0, SVG Export Plug-In . SVG Version: 6.00 Build 0)  -->
<!DOCTYPE svg PUBLIC "-//W3C//DTD SVG 1.1//EN" "http://www.w3.org/Graphics/SVG/1.1/DTD/svg11.dtd">
<svg version="1.1" xmlns="http://www.w3.org/2000/svg" xmlns:xlink="http://www.w3.org/1999/xlink" x="0px" y="0px" width="120px"
	 height="120px" viewBox="0 0 120 120" enable-background="new 0 0 120 120" xml:space="preserve">
<g id="Layer_2" display="none">
	<circle display="inline" opacity="0.5" fill="#DF1F26" cx="60" cy="60" r="60"/>
	<rect x="6.5" y="6.5" display="inline" opacity="0.5" fill="#3B4FA1" width="107" height="107"/>
</g>
<g id="normal">
	<path fill="#FFFFFF" d="M104.159,103.789H15.841c-4.976,0-9.012-3.909-9.012-8.733V38.553c0-4.824,4.036-8.735,9.012-8.735h88.317
		c4.976,0,9.012,3.911,9.012,8.735v56.503C113.17,99.88,109.135,103.789,104.159,103.789L104.159,103.789z M51.879,57.529H15.841
		c-4.976,0-9.01-3.911-9.01-8.733V24.945c0-4.824,4.033-8.733,9.01-8.733h36.038c4.976,0,9.009,3.909,9.009,8.733v23.851
		C60.889,53.618,56.855,57.529,51.879,57.529L51.879,57.529z"/>
</g>
<g id="active">
	<path fill="#FFFFFF" d="M104.159,103.789H15.841c-4.976,0-9.012-3.909-9.012-8.733V38.553c0-4.824,4.036-8.735,9.012-8.735h88.317
		c4.976,0,9.012,3.911,9.012,8.735v56.503C113.17,99.88,109.135,103.789,104.159,103.789L104.159,103.789z M51.879,57.529H15.841
		c-4.976,0-9.01-3.911-9.01-8.733V24.945c0-4.824,4.033-8.733,9.01-8.733h36.038c4.976,0,9.009,3.909,9.009,8.733v23.851
		C60.889,53.618,56.855,57.529,51.879,57.529L51.879,57.529z"/>
</g>
<g id="disabled" opacity="0.2">
	<path fill="#FFFFFF" d="M104.159,103.789H15.841c-4.976,0-9.012-3.909-9.012-8.733V38.553c0-4.824,4.036-8.735,9.012-8.735h88.317
		c4.976,0,9.012,3.911,9.012,8.735v56.503C113.17,99.88,109.135,103.789,104.159,103.789L104.159,103.789z M51.879,57.529H15.841
		c-4.976,0-9.01-3.911-9.01-8.733V24.945c0-4.824,4.033-8.733,9.01-8.733h36.038c4.976,0,9.009,3.909,9.009,8.733v23.851
		C60.889,53.618,56.855,57.529,51.879,57.529L51.879,57.529z"/>
</g>
</svg>
