<?xml version="1.0" encoding="iso-8859-1"?>
<!-- Generator: Adobe Illustrator 17.1.0, SVG Export Plug-In . SVG Version: 6.00 Build 0)  -->
<!DOCTYPE svg PUBLIC "-//W3C//DTD SVG 1.1//EN" "http://www.w3.org/Graphics/SVG/1.1/DTD/svg11.dtd">
<svg version="1.1" xmlns="http://www.w3.org/2000/svg" xmlns:xlink="http://www.w3.org/1999/xlink" x="0px" y="0px" width="120px"
	 height="120px" viewBox="0 0 120 120" enable-background="new 0 0 120 120" xml:space="preserve">
<g id="Layer_2" display="none">
	<circle display="inline" opacity="0.5" fill="#DF1F26" cx="60" cy="60" r="60"/>
	<rect x="6.5" y="6.5" display="inline" opacity="0.5" fill="#3B4FA1" width="107" height="107"/>
</g>
<g id="normal">
	<g>
		<g>
			<path fill-rule="evenodd" clip-rule="evenodd" fill="#FFFFFF" d="M60,6.5C30.453,6.5,6.5,30.453,6.5,60
				c0,29.547,23.953,53.5,53.5,53.5s53.5-23.953,53.5-53.5C113.5,30.453,89.547,6.5,60,6.5z M87.095,61.912l-38.27,25.505
				c-2.349,1.566-5.495-0.118-5.495-2.942V35.524c0-2.762,3.026-4.457,5.382-3.014l38.27,23.447
				C89.182,57.305,89.243,60.481,87.095,61.912z"/>
		</g>
	</g>
</g>
<g id="active">
	<g>
		<g>
			<path fill-rule="evenodd" clip-rule="evenodd" fill="#FFFFFF" d="M60,6.5C30.453,6.5,6.5,30.453,6.5,60
				c0,29.547,23.953,53.5,53.5,53.5s53.5-23.953,53.5-53.5C113.5,30.453,89.547,6.5,60,6.5z M87.095,61.912l-38.27,25.505
				c-2.349,1.566-5.495-0.118-5.495-2.942V35.524c0-2.762,3.026-4.457,5.382-3.014l38.27,23.447
				C89.182,57.305,89.243,60.481,87.095,61.912z"/>
		</g>
	</g>
</g>
<g id="disabled" opacity="0.2">
	<g>
		<g>
			<path fill-rule="evenodd" clip-rule="evenodd" fill="#FFFFFF" d="M60,6.5C30.453,6.5,6.5,30.453,6.5,60
				c0,29.547,23.953,53.5,53.5,53.5s53.5-23.953,53.5-53.5C113.5,30.453,89.547,6.5,60,6.5z M87.095,61.912l-38.27,25.505
				c-2.349,1.566-5.495-0.118-5.495-2.942V35.524c0-2.762,3.026-4.457,5.382-3.014l38.27,23.447
				C89.182,57.305,89.243,60.481,87.095,61.912z"/>
		</g>
	</g>
</g>
</svg>
