<?xml version="1.0" encoding="iso-8859-1"?>
<!-- Generator: Adobe Illustrator 17.1.0, SVG Export Plug-In . SVG Version: 6.00 Build 0)  -->
<!DOCTYPE svg PUBLIC "-//W3C//DTD SVG 1.1//EN" "http://www.w3.org/Graphics/SVG/1.1/DTD/svg11.dtd">
<svg version="1.1" xmlns="http://www.w3.org/2000/svg" xmlns:xlink="http://www.w3.org/1999/xlink" x="0px" y="0px" width="120px"
	 height="120px" viewBox="0 0 120 120" enable-background="new 0 0 120 120" xml:space="preserve">
<g id="Layer_4" display="none">
	<circle display="inline" opacity="0.5" fill="#DF1F26" cx="60" cy="60" r="60"/>
	<rect x="6.5" y="6.5" display="inline" opacity="0.5" fill="#3B4FA1" width="107" height="107"/>
</g>
<g id="normal">
	<path fill-rule="evenodd" clip-rule="evenodd" fill="#F1DE0E" d="M67.226,59.993c0,12.543,30.123,10.242,30.123,29.567
		c-0.173-0.144,0.234,23.94,0.234,23.94h-74.9c0,0-0.267-23.904-0.267-24.701c0-17.558,29.968-15.253,29.968-28.251
		c0-13.002-29.968-11.634-29.968-30.74c0-3.218,0.267-23.308,0.267-23.308h74.9c0,0,0,21.4-0.303,23.619
		C97.28,49.174,67.226,47.449,67.226,59.993L67.226,59.993z M33.383,92.1c0.501,0.332,0,10.7,0,10.7h53.5c0,0-0.501-0.336,0-10.7
		c0.501-10.365-20.898-10.365-26.75-21.4C55.285,81.735,33.885,81.735,33.383,92.1L33.383,92.1z M86.883,17.2h-53.5v10.7h53.5V17.2
		L86.883,17.2z"/>
</g>
<g id="active">
	<path fill-rule="evenodd" clip-rule="evenodd" fill="#F1DE0E" d="M67.226,59.993c0,12.543,30.123,10.242,30.123,29.567
		c-0.173-0.144,0.234,23.94,0.234,23.94h-74.9c0,0-0.267-23.904-0.267-24.701c0-17.558,29.968-15.253,29.968-28.251
		c0-13.002-29.968-11.634-29.968-30.74c0-3.218,0.267-23.308,0.267-23.308h74.9c0,0,0,21.4-0.303,23.619
		C97.28,49.174,67.226,47.449,67.226,59.993L67.226,59.993z M33.383,92.1c0.501,0.332,0,10.7,0,10.7h53.5c0,0-0.501-0.336,0-10.7
		c0.501-10.365-20.898-10.365-26.75-21.4C55.285,81.735,33.885,81.735,33.383,92.1L33.383,92.1z M86.883,17.2h-53.5v10.7h53.5V17.2
		L86.883,17.2z"/>
</g>
<g id="disabled" opacity="0.2">
	<path fill-rule="evenodd" clip-rule="evenodd" fill="#F1DE0E" d="M67.226,59.993c0,12.543,30.123,10.242,30.123,29.567
		c-0.173-0.144,0.234,23.94,0.234,23.94h-74.9c0,0-0.267-23.904-0.267-24.701c0-17.558,29.968-15.253,29.968-28.251
		c0-13.002-29.968-11.634-29.968-30.74c0-3.218,0.267-23.308,0.267-23.308h74.9c0,0,0,21.4-0.303,23.619
		C97.28,49.174,67.226,47.449,67.226,59.993L67.226,59.993z M33.383,92.1c0.501,0.332,0,10.7,0,10.7h53.5c0,0-0.501-0.336,0-10.7
		c0.501-10.365-20.898-10.365-26.75-21.4C55.285,81.735,33.885,81.735,33.383,92.1L33.383,92.1z M86.883,17.2h-53.5v10.7h53.5V17.2
		L86.883,17.2z"/>
</g>
</svg>
