<?xml version="1.0" encoding="utf-8"?>
<!-- Generator: Adobe Illustrator 18.0.0, SVG Export Plug-In . SVG Version: 6.00 Build 0)  -->
<!DOCTYPE svg PUBLIC "-//W3C//DTD SVG 1.1//EN" "http://www.w3.org/Graphics/SVG/1.1/DTD/svg11.dtd">
<svg version="1.1" xmlns="http://www.w3.org/2000/svg" xmlns:xlink="http://www.w3.org/1999/xlink" x="0px" y="0px" width="120px"
	 height="120px" viewBox="0 0 120 120" enable-background="new 0 0 120 120" xml:space="preserve">
<g id="Layer_2" display="none">
	<circle display="inline" opacity="0.5" fill="#DF2228" cx="60" cy="60" r="60"/>
	<rect x="6.5" y="6.5" display="inline" opacity="0.5" fill="#3C50A2" width="107" height="107"/>
</g>
<g id="normal">
	<g>
		<g>
			<path fill="#FFFFFF" d="M101.611,9.658v100.684H113.5V9.658H101.611z M59.697,50.898H6.5v17.833h53.106l-0.093,18.205
				l37.231-26.455L59.79,32.785L59.697,50.898z"/>
		</g>
	</g>
</g>
<g id="active">
	<g>
		<g>
			<path fill="#FFFFFF" d="M101.611,9.658v100.684H113.5V9.658H101.611z M59.697,50.898H6.5v17.833h53.106l-0.093,18.205
				l37.231-26.455L59.79,32.785L59.697,50.898z"/>
		</g>
	</g>
</g>
<g id="disabled" opacity="0.2">
	<g>
		<g>
			<path fill="#FFFFFF" d="M101.611,9.658v100.684H113.5V9.658H101.611z M59.697,50.898H6.5v17.833h53.106l-0.093,18.205
				l37.231-26.455L59.79,32.785L59.697,50.898z"/>
		</g>
	</g>
</g>
</svg>
