<?xml version="1.0" encoding="utf-8"?>
<!-- Generator: Adobe Illustrator 17.0.0, SVG Export Plug-In . SVG Version: 6.00 Build 0)  -->
<!DOCTYPE svg PUBLIC "-//W3C//DTD SVG 1.1//EN" "http://www.w3.org/Graphics/SVG/1.1/DTD/svg11.dtd">
<svg version="1.1" id="Layer_1" xmlns="http://www.w3.org/2000/svg" xmlns:xlink="http://www.w3.org/1999/xlink" x="0px" y="0px"
	 width="66px" height="66px" viewBox="0 0 66 66" enable-background="new 0 0 66 66" xml:space="preserve">
<g id="phase11">
	<path id="phase10" fill="#FFFFFF" d="M37.853,58.499H27.354v-17.5l-12.141-15.75L8.104,32.25v-21h22.749l-7.001,6.999l14,17.5
		V58.499L37.853,58.499z M49.994,25.249l-12.141,15.75l-10.499-5.25l14-17.5l-7.001-6.999h22.749v21L49.994,25.249L49.994,25.249z"
		/>
</g>
<g id="phase10_1_">
	<path id="phase9" fill="#FFFFFF" d="M39.462,23.497L27.354,38.249v19.25h-12.25V34.749l15.608-19.107L22.281,8.5h26.072v22.749
		L39.462,23.497L39.462,23.497z M29.005,55.749l6.999-6.999l-10.487-8.251l0.459-11.994C27.247,29.49,43.005,41.75,43.005,41.75
		l6.999-7.001v21H29.005L29.005,55.749z"/>
</g>
<g id="phase9_1_">
	<path id="phase8" fill="#FFFFFF" d="M39.462,23.497L27.354,38.249v19.25h-12.25V34.749l15.608-19.107L22.281,8.5h26.072v22.749
		L39.462,23.497L39.462,23.497z M29.005,55.749l6.999-6.999l-10.487-8.251l0.459-11.994C27.247,29.49,43.005,41.75,43.005,41.75
		l6.999-7.001v21H29.005L29.005,55.749z"/>
</g>
<g id="phase8_1_">
	<path id="phase7" fill="#FFFFFF" d="M38.853,23.499v35H28.354v-35h-7.001L33.603,9.5l12.25,13.999H38.853L38.853,23.499z
		 M30.104,58.499L14.353,42.75L9.104,48V30.5h17.5l-5.251,5.25l8.751,8.751V58.499L30.104,58.499z M52.645,42.75l-15.75,15.749V44.5
		l8.751-8.751l-5.25-5.25h17.5V48L52.645,42.75L52.645,42.75z"/>
</g>
<g id="phase7_1_">
	<path id="phase6" fill="#FFFFFF" d="M45.854,23.499v35L33.603,58.5V23.499h-6.999L39.747,9.5l13.107,13.999H45.854L45.854,23.499z
		 M35.353,44.5l-1.75,14l-14-15.75L14.353,48V30.5h17.5l-5.25,5.25L35.353,44.5L35.353,44.5z"/>
</g>
<g id="phase6_1_">
	<path id="phase5" fill="#FFFFFF" d="M33.603,22.5v35h-12.25v-35h-6.999l13.107-14l13.143,14H33.603L33.603,22.5z M47.604,41.75
		l-14,15.75l-1.75-14l8.749-8.751l-5.25-5.25h17.5v17.5L47.604,41.75L47.604,41.75z"/>
</g>
<g id="phase5_1_">
	<path id="phase4" fill-rule="evenodd" clip-rule="evenodd" fill="#FFFFFF" d="M38.853,55.749l-0.013-22.95L28.354,40l6.999,6.999
		h-21V26l6.999,6.999c0,0,18.558-14.709,19.829-15.695c5.649-4.382,9.921-0.437,9.921,6.805c0,3.861,0,31.64,0,31.64H38.853
		L38.853,55.749z"/>
</g>
<g id="phase4_1_">
	<polygon id="phase3" fill-rule="evenodd" clip-rule="evenodd" fill="#FFFFFF" points="33.603,57.5 33.603,32.999 27.174,24.82 
		19.603,31.249 19.603,10.25 42.354,10.25 35.353,17.249 45.854,29.5 45.854,57.5 33.603,57.5 	"/>
</g>
<g id="phase3_1_">
	<path id="phase2" fill-rule="evenodd" clip-rule="evenodd" fill="#FFFFFF" d="M28.354,54.5l0.013-22.951l10.487,7.201l-6.999,6.999
		h21v-21l-6.999,6.999c0,0-18.558-14.708-19.829-15.694c-5.649-4.384-9.922-0.438-9.922,6.804c0,3.863,0,31.641,0,31.641H28.354
		L28.354,54.5z"/>
</g>
<g id="phase2_1_">
	<polygon id="phase1" fill-rule="evenodd" clip-rule="evenodd" fill="#FFFFFF" points="31.853,56.5 31.853,31.999 38.283,23.82 
		45.854,30.249 45.854,9.25 23.103,9.25 30.104,16.249 19.603,28.499 19.603,56.5 31.853,56.5 	"/>
</g>
<g id="phase1_1_">
	<polygon id="phase0" fill-rule="evenodd" clip-rule="evenodd" fill="#FFFFFF" points="40.603,56.5 40.603,26.75 49.353,26.75 
		34.461,7.5 19.603,26.75 28.354,26.75 28.354,56.5 40.603,56.5 	"/>
</g>
<g id="phase0_1_">
	<rect x="4.667" y="5.75" fill="none" width="51.083" height="51.333"/>
</g>
</svg>
