<?xml version="1.0" encoding="utf-8"?>
<!-- Generator: Adobe Illustrator 16.0.2, SVG Export Plug-In . SVG Version: 6.00 Build 0)  -->
<!DOCTYPE svg PUBLIC "-//W3C//DTD SVG 1.1//EN" "http://www.w3.org/Graphics/SVG/1.1/DTD/svg11.dtd">
<svg version="1.1" id="Layer_1" xmlns="http://www.w3.org/2000/svg" xmlns:xlink="http://www.w3.org/1999/xlink" x="0px" y="0px"
	 width="80px" height="80px" viewBox="0 0 80 80" enable-background="new 0 0 80 80" xml:space="preserve">
<g id="group">
	<path fill="#FFFFFF" d="M61.335,59.318H18.666c-1.745,0-3.16-1.397-3.16-3.121V32.002c0-1.113,0.595-2.085,1.484-2.638
		l2.792,14.845c0,1.972,3.057,3.567,5.052,3.567h13.157v0.395c0,1.156,0.285,2.095,1.455,2.095h1.123
		c1.172,0,1.396-0.938,1.396-2.095v-0.395h13.202c1.995,0,5.052-1.596,5.052-3.567l2.792-14.845c0.89,0.553,1.484,1.524,1.484,2.638
		v24.195C64.496,57.921,63.081,59.318,61.335,59.318L61.335,59.318z M57.849,43.378c0,0.863-2.147,1.562-3.021,1.562H41.965v-0.475
		c0-1.155-0.224-2.094-1.395-2.094h-1.124c-1.171,0-1.455,0.938-1.455,2.094v0.475H25.174c-0.873,0-3.021-0.698-3.021-1.562
		l-2.877-14.486l-0.002-0.012l-0.003-0.015h10.86v-4.132c0-2.239,1.837-4.052,4.102-4.052H45.77c2.265,0,4.102,1.813,4.102,4.052
		v4.132h10.86l-0.004,0.014l-0.002,0.012L57.849,43.378L57.849,43.378z M47.18,25.113c0-0.979-0.804-1.773-1.796-1.773H34.618
		c-0.992,0-1.795,0.794-1.795,1.773v3.752H47.18V25.113L47.18,25.113z"/>
</g>
<g id="disabled">
	<path fill="#FFFFFF" d="M61.335,59.318H18.666c-1.745,0-3.16-1.397-3.16-3.121V32.002c0-1.113,0.595-2.085,1.484-2.638
		l2.792,14.845c0,1.972,3.057,3.567,5.052,3.567h13.157v0.395c0,1.156,0.285,2.095,1.455,2.095h1.123
		c1.172,0,1.396-0.938,1.396-2.095v-0.395h13.202c1.995,0,5.052-1.596,5.052-3.567l2.792-14.845c0.89,0.553,1.484,1.524,1.484,2.638
		v24.195C64.496,57.921,63.081,59.318,61.335,59.318L61.335,59.318z M57.849,43.378c0,0.863-2.147,1.562-3.021,1.562H41.965v-0.475
		c0-1.155-0.224-2.094-1.395-2.094h-1.124c-1.171,0-1.455,0.938-1.455,2.094v0.475H25.174c-0.873,0-3.021-0.698-3.021-1.562
		l-2.877-14.486l-0.002-0.012l-0.003-0.015h10.86v-4.132c0-2.239,1.837-4.052,4.102-4.052H45.77c2.265,0,4.102,1.813,4.102,4.052
		v4.132h10.86l-0.004,0.014l-0.002,0.012L57.849,43.378L57.849,43.378z M47.18,25.113c0-0.979-0.804-1.773-1.796-1.773H34.618
		c-0.992,0-1.795,0.794-1.795,1.773v3.752H47.18V25.113L47.18,25.113z"/>
</g>
<g id="normal">
	<path fill="#FFFFFF" d="M61.335,59.318H18.666c-1.745,0-3.16-1.397-3.16-3.121V32.002c0-1.113,0.595-2.085,1.484-2.638
		l2.792,14.845c0,1.972,3.057,3.567,5.052,3.567h13.157v0.395c0,1.156,0.285,2.095,1.455,2.095h1.123
		c1.172,0,1.396-0.938,1.396-2.095v-0.395h13.202c1.995,0,5.052-1.596,5.052-3.567l2.792-14.845c0.89,0.553,1.484,1.524,1.484,2.638
		v24.195C64.496,57.921,63.081,59.318,61.335,59.318L61.335,59.318z M57.849,43.378c0,0.863-2.147,1.562-3.021,1.562H41.965v-0.475
		c0-1.155-0.224-2.094-1.395-2.094h-1.124c-1.171,0-1.455,0.938-1.455,2.094v0.475H25.174c-0.873,0-3.021-0.698-3.021-1.562
		l-2.877-14.486l-0.002-0.012l-0.003-0.015h10.86v-4.132c0-2.239,1.837-4.052,4.102-4.052H45.77c2.265,0,4.102,1.813,4.102,4.052
		v4.132h10.86l-0.004,0.014l-0.002,0.012L57.849,43.378L57.849,43.378z M47.18,25.113c0-0.979-0.804-1.773-1.796-1.773H34.618
		c-0.992,0-1.795,0.794-1.795,1.773v3.752H47.18V25.113L47.18,25.113z"/>
</g>
</svg>
