<?xml version="1.0" encoding="utf-8"?>
<!-- Generator: Adobe Illustrator 16.0.3, SVG Export Plug-In . SVG Version: 6.00 Build 0)  -->
<!DOCTYPE svg PUBLIC "-//W3C//DTD SVG 1.1//EN" "http://www.w3.org/Graphics/SVG/1.1/DTD/svg11.dtd">
<svg version="1.1" id="roundabout_x5F_dir_x5F_right"
	 xmlns="http://www.w3.org/2000/svg" xmlns:xlink="http://www.w3.org/1999/xlink" x="0px" y="0px" width="114px" height="114px"
	 viewBox="0 0 114 114" enable-background="new 0 0 114 114" xml:space="preserve">
<g id="phase11">
	
		<linearGradient id="SVGID_1_" gradientUnits="userSpaceOnUse" x1="23.0762" y1="47.3711" x2="90.0625" y2="47.3711" gradientTransform="matrix(1 0 0 -1 0.0449 113.7598)">
		<stop  offset="0" style="stop-color:#000000"/>
		<stop  offset="0.4504" style="stop-color:#000000"/>
		<stop  offset="0.6315" style="stop-color:#000000"/>
		<stop  offset="0.84" style="stop-color:#000000"/>
		<stop  offset="1" style="stop-color:#000000"/>
	</linearGradient>
	<path fill="url(#SVGID_1_)" d="M63.406,108.912H50.51c-0.553,0-1-0.446-1-0.999c0,0,0-5.611,0-8.608
		c-1.897,0.528-19.474,5.379-19.474,5.379c-0.088,0.022-0.18,0.037-0.269,0.037c-0.175,0-0.347-0.048-0.5-0.136
		c-0.232-0.135-0.402-0.356-0.47-0.617l-5.646-21.931c-0.021-0.083-0.03-0.165-0.03-0.248c0-0.311,0.141-0.605,0.394-0.798
		c0.18-0.136,0.391-0.203,0.605-0.203c0.172,0,0.345,0.043,0.5,0.133c0,0,5.984,3.456,7.371,4.257
		c0.705-1.219,1.856-2.832,2.441-3.844c-3.253-2.991-5.655-6.475-7.512-10.475c-2.043-4.402-3.021-8.948-3.021-13.836
		c0-8.91,3.138-16.919,9.44-23.221c6.302-6.301,14.522-9.937,23.435-9.937c8.914,0,17.251,3.304,23.554,9.604
		c6.302,6.302,9.779,14.643,9.779,23.553c0,3.934-0.647,7.783-1.984,11.444c-1.292,3.539-3.225,6.795-5.627,9.716
		c-4.65,5.653-11.001,9.49-18.081,11.149c0,1.474-0.011,18.58-0.011,18.58C64.406,108.466,63.959,108.912,63.406,108.912
		 M49.567,87.23c0-0.006,0-0.014,0-0.02c0-0.167,0.042-0.332,0.124-0.479l6.673-12.403c0.173-0.315,0.501-0.515,0.862-0.519
		c4.438-0.063,8.6-1.836,11.717-4.994c3.123-3.161,4.844-7.353,4.844-11.795c0-9.265-7.537-16.801-16.801-16.801
		c-9.264,0-16.801,7.536-16.801,16.801c0,0.506,0.027,1.03,0.082,1.601l0.042,0.329c0,0,0.032,0.227,0.033,0.23
		c0.034,0.275,0.083,0.642,0.15,0.998l0.107,0.491l0.035,0.149c0.082,0.346,0.147,0.604,0.217,0.844
		c0.073,0.255,0.146,0.486,0.224,0.716c0,0,0.24,0.662,0.242,0.665c0.105,0.276,0.211,0.546,0.326,0.803l0.16,0.336
		c0,0,0.067,0.137,0.069,0.142c0.15,0.31,0.291,0.604,0.448,0.884c-0.001-0.004-0.001-0.005-0.001-0.005v0.001
		c0,0,0.008,0.014,0.013,0.021c0-0.002-0.004-0.002-0.004-0.004c0.002,0.004,0.005,0.008,0.005,0.008s0-0.002,0-0.004
		c0.015,0.021,0.032,0.056,0.032,0.056c0.438,0.772,0.943,1.52,1.502,2.22c0.002,0.002,0.004,0.005,0.005,0.008
		c2.582,3.223,6.254,5.373,10.338,6.055c0.322,0.056,0.598,0.263,0.738,0.557c0.064,0.137,0.097,0.284,0.097,0.434
		c0,0.168-0.044,0.338-0.13,0.491c0,0-3.378,5.966-3.535,6.244c-0.022,0.067-0.049,0.135-0.086,0.197L47.409,88.2
		c-0.024,0.042-0.05,0.077-0.08,0.114c-0.119,0.207-1.779,2.903-2.551,4.244c1.142,0.658,3.169,1.813,4.759,2.73 M43.981,67.68
		l-0.003-0.003C43.98,67.68,43.981,67.68,43.981,67.68"/>
	
		<linearGradient id="SVGID_2_" gradientUnits="userSpaceOnUse" x1="-1396.812" y1="588.3955" x2="-1396.812" y2="507.3447" gradientTransform="matrix(-1 0 0 1 -1339.9102 -481.4805)">
		<stop  offset="0" style="stop-color:#FFFFFF"/>
		<stop  offset="0.1758" style="stop-color:#E7E9EA"/>
		<stop  offset="0.4969" style="stop-color:#CDD2D5"/>
		<stop  offset="0.782" style="stop-color:#C5CACC"/>
		<stop  offset="1" style="stop-color:#BABDC0"/>
	</linearGradient>
	<path fill="url(#SVGID_2_)" d="M62.407,106.914c-1.56,0-9.34,0-10.898,0c0-3.793,0.063-21.167,0.063-19.453
		c0.237-0.432,5.784-10.835,6.28-11.736c4.744-0.213,9.125-2.127,12.479-5.521c3.495-3.538,5.418-8.206,5.418-13.181
		c0-10.366-8.396-18.771-18.761-18.771s-18.74,8.404-18.74,18.771c0,0.568,0.028,1.155,0.088,1.792l0.056,0.428
		c0,0,0.026,0.186,0.026,0.189c0.04,0.309,0.093,0.709,0.169,1.113l0.127,0.585c0,0,0.035,0.144,0.035,0.147
		c0.09,0.381,0.163,0.671,0.242,0.941c0.081,0.283,0.163,0.547,0.25,0.803c0,0,0.271,0.736,0.271,0.737
		c0.112,0.295,0.233,0.608,0.371,0.911l0.188,0.396l0.063,0.127c0.153,0.317,0.313,0.647,0.498,0.978
		c0.002,0.004,0.003,0.007,0.005,0.011c0.002,0.002,0.002,0.002,0.003,0.004c0.018,0.03,0.052,0.088,0.058,0.1
		c0.487,0.857,1.049,1.688,1.671,2.468l-0.112-0.178c0,0,0.186,0.262,0.188,0.263c-0.005-0.005-0.059-0.064-0.065-0.072
		c2.594,3.238,6.125,5.469,10.137,6.449c-0.894,1.579-2.95,5.234-2.95,5.234c-0.034,0.059-0.06,0.117-0.08,0.183
		c-0.16,0.275-3.558,6.146-3.718,6.42c-0.036,0.046-0.068,0.097-0.099,0.146l-3.119,5.229c-0.092,0.157-0.135,0.329-0.135,0.498
		c0,0.349,0.18,0.685,0.501,0.868c0,0,3.799,2.193,6.105,3.523c-3.49,0.974-16.94,4.72-18.536,5.164
		c-0.413-1.604-3.894-15.127-4.798-18.637c2.317,1.34,6.175,3.565,6.175,3.565c0.157,0.091,0.328,0.135,0.498,0.135
		c0.347,0,0.683-0.181,0.868-0.502l3.375-5.452c0.09-0.156,0.135-0.328,0.135-0.499c0-0.28-0.118-0.558-0.341-0.753
		c-3.331-2.918-5.805-6.326-7.659-10.322c-1.921-4.137-2.836-8.396-2.836-12.993c0-8.377,2.932-15.883,8.857-21.805
		c5.924-5.924,13.643-9.354,22.02-9.354c8.379,0,16.215,3.099,22.14,9.021c5.924,5.922,9.196,13.76,9.196,22.137
		c0,3.698-0.608,7.319-1.865,10.759c-1.215,3.324-3.035,6.384-5.295,9.13c-4.535,5.515-10.802,9.085-17.748,10.53
		c-0.465,0.098-0.796,0.507-0.796,0.979C62.407,88.423,62.407,105.117,62.407,106.914 M40.627,66.17
		c0-0.002-0.001-0.004-0.001-0.004S40.626,66.168,40.627,66.17"/>
</g>
<g id="phase10">
	
		<linearGradient id="SVGID_3_" gradientUnits="userSpaceOnUse" x1="8.9082" y1="47.3965" x2="90.0723" y2="47.3965" gradientTransform="matrix(1 0 0 -1 0.0449 113.7598)">
		<stop  offset="0" style="stop-color:#000000"/>
		<stop  offset="0.4504" style="stop-color:#000000"/>
		<stop  offset="0.6315" style="stop-color:#000000"/>
		<stop  offset="0.84" style="stop-color:#000000"/>
		<stop  offset="1" style="stop-color:#000000"/>
	</linearGradient>
	<path fill="url(#SVGID_3_)" d="M63.42,108.848c0.553,0,1-0.447,1-1c0,0,0-17.043,0-18.511c7.035-1.69,13.479-5.537,18.094-11.177
		c2.387-2.914,4.284-6.18,5.565-9.705c1.325-3.648,2.038-7.482,2.038-11.399c0-8.912-3.537-17.34-9.84-23.641
		c-6.303-6.302-14.758-9.538-23.67-9.538c-8.912,0-17.114,3.783-23.416,10.085c-6.302,6.301-9.282,14.182-9.282,23.094
		c0,3.299,0.354,6.417,1.344,9.625c-1.029,0.594-2.855,1.488-4.101,2.209c-0.801-1.389-4.257-7.373-4.257-7.373
		c-0.182-0.313-0.513-0.498-0.865-0.498c-0.042,0-0.083,0.002-0.127,0.008c-0.4,0.05-0.729,0.334-0.839,0.724L8.99,83.566
		c-0.024,0.088-0.037,0.178-0.037,0.268c0,0.174,0.047,0.346,0.135,0.499c0.135,0.231,0.357,0.401,0.616,0.47l21.93,5.646
		c0.083,0.021,0.165,0.029,0.248,0.029c0.31,0,0.606-0.143,0.798-0.396c0.135-0.181,0.203-0.392,0.203-0.604
		c0-0.17-0.043-0.345-0.133-0.498c0,0-3.418-5.924-4.217-7.309c1.061-0.609,17.63-10.111,17.63-10.111
		c0.285-0.164,0.471-0.455,0.498-0.781c0.001-0.029,0.003-0.057,0.003-0.084c0-0.297-0.132-0.581-0.362-0.771
		c-3.547-2.934-5.688-7.001-6.045-11.539c0-0.004,0-0.009,0-0.012c-0.045-0.506-0.067-0.924-0.067-1.318
		c0-9.265,7.409-16.854,16.673-16.84c9.429,0.015,16.929,7.575,16.929,16.84c0,9.263-7.479,16.738-16.929,16.722
		c-0.508-0.002-1.035-0.026-1.608-0.082c-0.01,0-0.341-0.045-0.341-0.045l-0.263-0.036c-0.343-0.046-0.669-0.091-0.984-0.148
		c-0.004-0.002-0.435-0.098-0.435-0.098l-0.183-0.044c-0.378-0.088-0.66-0.16-0.914-0.235c-0.004,0-0.613-0.194-0.613-0.194
		l-0.035-0.012c-0.282-0.097-0.534-0.188-0.763-0.279c-0.118-0.045-0.243-0.068-0.367-0.068c-0.201,0-0.4,0.063-0.569,0.18
		c-0.27,0.188-0.43,0.493-0.43,0.818c0,0.008,0,0.016,0,0.023l0.101,4.935c0,0.041,0,13.03,0,13.03l-0.006,16.328
		c0,0.553,0.446,1,0.999,1H63.42"/>
	
		<linearGradient id="SVGID_4_" gradientUnits="userSpaceOnUse" x1="-1389.5674" y1="588.3311" x2="-1389.5674" y2="507.3584" gradientTransform="matrix(-1 0 0 1 -1339.9102 -481.4805)">
		<stop  offset="0" style="stop-color:#FFFFFF"/>
		<stop  offset="0.1758" style="stop-color:#E7E9EA"/>
		<stop  offset="0.4969" style="stop-color:#CDD2D5"/>
		<stop  offset="0.782" style="stop-color:#C5CACC"/>
		<stop  offset="1" style="stop-color:#BABDC0"/>
	</linearGradient>
	<path fill="url(#SVGID_4_)" d="M62.421,106.85c0-1.797,0-18.398,0-18.398c0-0.473,0.329-0.881,0.79-0.979
		c6.905-1.479,13.26-5.253,17.727-10.574c2.275-2.715,4.059-5.813,5.264-9.125c1.247-3.429,1.919-7.031,1.919-10.715
		c0-8.377-3.331-16.303-9.257-22.227c-5.924-5.924-13.879-8.953-22.254-8.953c-8.377,0-16.078,3.576-22.002,9.5
		c-5.924,5.924-8.698,13.303-8.698,21.68c0,3.351,0.455,6.512,1.543,9.762c0.035,0.104,0.051,0.211,0.051,0.314
		c0,0.352-0.185,0.686-0.5,0.867l-5.716,3.121c-0.157,0.092-0.328,0.135-0.498,0.135c-0.347,0-0.683-0.18-0.868-0.501
		c0,0-2.226-3.854-3.565-6.176c-0.972,3.489-4.718,16.944-5.161,18.539c1.602,0.413,15.128,3.896,18.635,4.797
		c-1.331-2.306-3.526-6.106-3.526-6.106c-0.091-0.158-0.135-0.328-0.135-0.498c0-0.348,0.18-0.685,0.502-0.869
		c0,0,3.379-1.953,3.76-2.172c0.057-0.054,0.119-0.102,0.186-0.14c0,0,11.271-6.417,13.353-7.612
		c-3.335-3.192-5.291-7.365-5.652-11.979v0.012c-0.052-0.566-0.074-1.043-0.074-1.498c0-10.366,8.256-18.79,18.623-18.79
		c10.365,0,18.849,8.424,18.849,18.79c0,10.367-8.481,18.72-18.849,18.72c-0.572,0-1.159-0.066-1.797-0.127
		c-0.002-0.002-0.447-0.061-0.447-0.061l-0.224-0.031c-0.362-0.049-0.733-0.097-1.104-0.168c-0.004,0-0.528-0.117-0.528-0.117
		l-0.169-0.039c-0.414-0.098-0.731-0.18-1.026-0.266c0,0-0.078-0.025-0.181-0.06c0.028,1.424,0.07,3.538,0.07,3.538
		c0,0.007,0,0.015,0,0.021V91.52c0,0-0.007,13.567-0.007,15.33C53.012,106.85,60.861,106.85,62.421,106.85"/>
</g>
<g id="phase9">
	
		<linearGradient id="SVGID_5_" gradientUnits="userSpaceOnUse" x1="1.8872" y1="47.4219" x2="90.0605" y2="47.4219" gradientTransform="matrix(1 0 0 -1 0.0449 113.7598)">
		<stop  offset="0" style="stop-color:#000000"/>
		<stop  offset="0.4504" style="stop-color:#000000"/>
		<stop  offset="0.6315" style="stop-color:#000000"/>
		<stop  offset="0.84" style="stop-color:#000000"/>
		<stop  offset="1" style="stop-color:#000000"/>
	</linearGradient>
	<path fill="url(#SVGID_5_)" d="M63.406,108.799c0.551,0,0.996-0.447,0.996-1c0,0,0-16.966,0-18.438
		c7.065-1.656,13.354-5.443,17.998-11.101c2.396-2.922,4.375-6.196,5.664-9.735c1.336-3.662,2.041-7.517,2.041-11.449
		c0-8.911-3.498-17.339-9.785-23.641c-6.283-6.303-14.619-9.558-23.508-9.558c-3.934,0-7.786,0.751-11.448,2.096
		c-3.537,1.3-6.742,3.214-9.66,5.631c-5.65,4.679-9.391,10.869-11.023,17.979c-1.17,0-3.211,0-4.628,0c0-1.601,0-8.513,0-8.513
		c0-0.402-0.241-0.766-0.611-0.923c-0.125-0.053-0.257-0.078-0.387-0.078c-0.257,0-0.507,0.1-0.698,0.287L2.232,56.21
		c-0.192,0.188-0.3,0.445-0.3,0.714c0,0.27,0.107,0.525,0.3,0.715l16.125,15.855c0.191,0.188,0.441,0.287,0.698,0.287
		c0.13,0,0.262-0.026,0.387-0.079c0.37-0.156,0.611-0.521,0.611-0.922c0-0.001,0-7.327,0-8.943c0.631,0,1.283-0.002,1.283-0.002
		c0.059,0,0.116-0.005,0.172-0.015c0.334,0,18.677,0,18.677,0c0.324,0,0.626-0.155,0.813-0.42c0.122-0.172,0.184-0.375,0.184-0.58
		c0-0.11-0.018-0.221-0.054-0.328c-0.619-1.791-0.935-3.639-0.935-5.488c0-2.058,0.355-4.047,1.112-6.011
		c0.142-0.363,0.298-0.727,0.482-1.116c0.002-0.002,0.005-0.012,0.008-0.016c0,0.001-0.001,0.003-0.001,0.003
		s0.001-0.002,0.001-0.003c0.002-0.004,0.004-0.009,0.004-0.009l0.039-0.083l-0.012,0.027c0.688-1.434,1.534-2.749,2.592-3.931
		c0.002-0.004,0.22-0.244,0.22-0.244c0.259-0.276,0.483-0.508,0.693-0.711c0.002,0,0.238-0.216,0.238-0.216l0.056-0.052
		c0.376-0.343,0.782-0.697,1.213-1.022c0-0.001,0.175-0.135,0.175-0.135l0.337-0.251c0.007-0.005,0.482-0.313,0.482-0.313
		l0.133-0.083c0.003-0.002,0.621-0.382,0.621-0.382l0.609-0.333c0.227-0.115,0.476-0.237,0.788-0.38l0.181-0.083l0.332-0.139
		c0.438-0.182,0.889-0.396,1.341-0.539l0.152-0.044l0.188-0.053c0.372-0.108,0.747-0.206,1.114-0.286l0.396-0.089l0.107-0.021
		c0.373-0.069,0.718-0.122,1.052-0.162c0.002,0,0.152-0.019,0.152-0.019l0.337-0.039c0.565-0.053,1.071-0.078,1.545-0.078
		c9.239,0,16.912,7.547,16.912,16.81c0,9.265-7.673,16.781-16.912,16.781c-0.484,0-0.994-0.025-1.561-0.08
		c-0.003,0-0.355-0.041-0.355-0.041l-0.137-0.019c-0.392-0.051-0.735-0.103-1.053-0.162c-0.005,0-0.514-0.104-0.514-0.104
		c-0.33-0.071-0.668-0.16-1.032-0.267l-0.218-0.063l-0.244-0.068c-0.29-0.095-0.582-0.207-0.889-0.326l-0.097-0.036
		c-0.115-0.045-0.237-0.067-0.359-0.067c-0.197,0-0.395,0.059-0.563,0.176c-0.271,0.187-0.433,0.494-0.433,0.824l0.063,34.247
		c0,0.554,0.445,1,0.996,1h12.922"/>
	
		<linearGradient id="SVGID_6_" gradientUnits="userSpaceOnUse" x1="-1386.1333" y1="588.2803" x2="-1386.1333" y2="507.3574" gradientTransform="matrix(-1 0 0 1 -1339.9102 -481.4805)">
		<stop  offset="0" style="stop-color:#FFFFFF"/>
		<stop  offset="0.1758" style="stop-color:#E7E9EA"/>
		<stop  offset="0.4969" style="stop-color:#CDD2D5"/>
		<stop  offset="0.782" style="stop-color:#C5CACC"/>
		<stop  offset="1" style="stop-color:#BABDC0"/>
	</linearGradient>
	<path fill="url(#SVGID_6_)" d="M62.41,106.799c-1.557,0-9.371,0-10.927,0c0-1.794-0.063-29.646-0.063-31.914
		c0.021,0.008,0.064,0.018,0.064,0.018s0.182,0.053,0.186,0.054c0.409,0.12,0.786,0.218,1.16,0.302c0,0,0.574,0.115,0.577,0.116
		c0.359,0.065,0.743,0.125,1.168,0.178l0.129,0.019l0.432,0.053c0.626,0.059,1.197,0.086,1.745,0.086
		c10.34,0,18.827-8.336,18.827-18.702c0-10.365-8.487-18.73-18.827-18.73c-0.535,0-1.102,0.027-1.73,0.085l-0.401,0.046
		l-0.139,0.018c-0.378,0.045-0.764,0.104-1.186,0.184l-0.105,0.02c0,0-0.451,0.089-0.454,0.089c-0.414,0.092-0.836,0.2-1.257,0.325
		l-0.135,0.037c0,0-0.235,0.077-0.243,0.079c-0.504,0.161-0.975,0.344-1.462,0.544l-0.415,0.187c0,0-0.166,0.076-0.171,0.078
		c-0.343,0.157-0.648,0.313-0.904,0.444l-0.683,0.371l-0.633,0.394l-0.129,0.08c-0.202,0.13-0.351,0.36-0.554,0.36l-0.429,0.317
		c0,0-0.155,0.12-0.156,0.12c-0.479,0.364-0.923,0.738-1.33,1.112l-0.057,0.048c0,0-0.286,0.263-0.286,0.264
		c-0.239,0.229-0.492,0.487-0.767,0.782L43,44.541c-1.185,1.323-2.145,2.797-2.914,4.398c-0.002,0.005-0.006,0.016-0.01,0.022
		c-0.001,0.003-0.003,0.008-0.003,0.008s-0.02,0.042-0.031,0.064v-0.002c0,0.002-0.002,0.002-0.002,0.003l0.002-0.001
		c-0.003,0.005-0.008,0.014-0.008,0.016l0.001-0.003c0,0.001-0.003,0.003-0.003,0.005l0.002-0.002l-0.002,0.003
		c-0.198,0.425-0.373,0.827-0.528,1.23c-0.846,2.193-1.228,4.417-1.228,6.722c0,1.62,0.203,3.234,0.625,4.816
		c-2.372,0-17.564,0-17.564,0c-0.059,0-0.116,0.006-0.173,0.016c-0.29,0-2.111,0.001-2.111,0.001c-0.551,0-0.995,0.447-0.995,1
		c0,0,0,4.81,0,7.563C15.481,67.865,5.533,58.084,4.355,56.924c1.178-1.159,11.126-10.938,13.705-13.473c0,2.677,0,7.132,0,7.132
		c0,0.552,0.444,0.999,0.995,0.999h6.5c0.475,0,0.882-0.335,0.977-0.799c1.417-6.979,4.93-13.072,10.44-17.637
		c2.743-2.272,5.751-4.073,9.078-5.294c3.441-1.266,7.062-1.975,10.761-1.975c8.356,0,16.171,3.048,22.08,8.972
		c5.907,5.924,9.201,13.85,9.201,22.227c0,3.699-0.676,7.32-1.93,10.764c-1.213,3.327-3.088,6.405-5.344,9.153
		c-4.527,5.515-10.686,9.026-17.617,10.47c-0.463,0.096-0.793,0.504-0.793,0.979C62.41,88.441,62.41,105.005,62.41,106.799
		 M40.078,48.962c-0.001,0.002-0.001,0.002-0.001,0.004C40.077,48.966,40.077,48.964,40.078,48.962"/>
</g>
<g id="phase8">
	
		<linearGradient id="SVGID_7_" gradientUnits="userSpaceOnUse" x1="9.146" y1="47.6982" x2="90.0664" y2="47.6982" gradientTransform="matrix(1 0 0 -1 0.0449 113.7598)">
		<stop  offset="0" style="stop-color:#000000"/>
		<stop  offset="0.4504" style="stop-color:#000000"/>
		<stop  offset="0.6315" style="stop-color:#000000"/>
		<stop  offset="0.84" style="stop-color:#000000"/>
		<stop  offset="1" style="stop-color:#000000"/>
	</linearGradient>
	<path fill="url(#SVGID_7_)" d="M63.436,108.859c0.553,0,1-0.446,1-1c0,0,0-17.045,0-18.521c7.084-1.652,13.356-5.449,18.014-11.104
		c2.406-2.924,4.293-6.121,5.586-9.66c1.34-3.665,2.076-7.518,2.076-11.453c0-8.912-3.422-17.289-9.723-23.592
		c-6.303-6.302-14.643-9.665-23.553-9.665c-4.823,0-9.417,1.025-13.77,3.014c-3.957,1.806-7.463,4.464-10.448,7.635
		c-1.031-0.596-2.588-1.719-3.847-2.446c0.799-1.384,4.217-7.306,4.217-7.306c0.09-0.155,0.133-0.328,0.133-0.5
		c0-0.215-0.069-0.428-0.203-0.604c-0.192-0.253-0.488-0.394-0.798-0.394c-0.083,0-0.165,0.01-0.248,0.03l-21.93,5.646
		c-0.26,0.067-0.482,0.237-0.616,0.47c-0.089,0.153-0.135,0.325-0.135,0.5c0,0.089,0.013,0.179,0.037,0.268l6.074,21.815
		c0.108,0.389,0.439,0.674,0.839,0.724c0.043,0.005,0.085,0.008,0.127,0.008c0.352,0,0.684-0.188,0.864-0.499
		c0,0,3.456-5.983,4.257-7.372c1.258,0.725,17.607,9.788,17.607,9.788c0.155,0.09,0.328,0.134,0.503,0.134
		c0.143,0,0.286-0.03,0.419-0.091c0.295-0.136,0.506-0.408,0.564-0.73c1.45-7.99,8.302-13.762,16.412-13.762
		c9.264,0,16.897,7.508,16.897,16.772c0,5.042-2.316,9.862-6.219,13.071c-3.008,2.494-6.834,3.779-10.741,3.779
		c-2.19,0-4.334-0.49-6.369-1.325c-0.122-0.052-0.25-0.073-0.378-0.073c-0.208,0-0.415,0.063-0.588,0.188
		c-0.261,0.188-0.415,0.491-0.415,0.813c0,0.022,0.002,0.046,0.004,0.069c0,0,0.347,4.871,0.351,4.914c0,0.101,0,10.447,0,10.447
		v2.82v16.191c0,0.553,0.446,1,0.999,1H63.436"/>
	
		<linearGradient id="SVGID_8_" gradientUnits="userSpaceOnUse" x1="-1389.6802" y1="588.3428" x2="-1389.6802" y2="507.3037" gradientTransform="matrix(-1 0 0 1 -1339.9102 -481.4805)">
		<stop  offset="0" style="stop-color:#FFFFFF"/>
		<stop  offset="0.1758" style="stop-color:#E7E9EA"/>
		<stop  offset="0.4969" style="stop-color:#CDD2D5"/>
		<stop  offset="0.782" style="stop-color:#C5CACC"/>
		<stop  offset="1" style="stop-color:#BABDC0"/>
	</linearGradient>
	<path fill="url(#SVGID_8_)" d="M62.436,106.861c0-1.795,0-18.424,0-18.424c0-0.476,0.332-0.883,0.797-0.979
		c6.955-1.44,13.129-4.979,17.672-10.496c2.264-2.748,4.035-5.75,5.253-9.076c1.259-3.442,1.954-7.063,1.954-10.766
		c0-8.377-3.215-16.253-9.139-22.177c-5.923-5.925-13.76-9.081-22.137-9.081c-4.534,0-8.848,1.054-12.94,2.922
		c-3.952,1.803-7.355,4.48-10.271,7.73c-0.195,0.218-0.469,0.331-0.746,0.331c-0.172,0-0.343-0.043-0.498-0.133l-5.476-3.416
		c-0.321-0.186-0.501-0.521-0.501-0.867c0-0.17,0.043-0.342,0.135-0.498c0,0,2.195-3.803,3.526-6.108
		c-3.509,0.903-17.032,4.385-18.636,4.798c0.444,1.594,4.19,15.048,5.162,18.539c1.339-2.319,3.565-6.176,3.565-6.176
		c0.186-0.321,0.521-0.501,0.867-0.501c0.17,0,0.342,0.043,0.498,0.135c0,0,15.328,8.52,17.345,9.691
		c2.131-8.226,9.421-14.05,18.027-14.05c10.367,0,18.828,8.336,18.828,18.702c0,5.643-2.533,10.938-6.896,14.527
		c-3.36,2.787-7.622,4.217-11.994,4.217c-1.924,0-3.814-0.303-5.641-0.878c0.104,1.438,0.242,3.45,0.242,3.45
		c0.001,0.021,0.001,0.048,0.001,0.072v10.496v2.819c0,0,0,13.435,0,15.19C52.996,106.861,60.874,106.861,62.436,106.861"/>
</g>
<g id="phase7">
	
		<linearGradient id="SVGID_9_" gradientUnits="userSpaceOnUse" x1="23.2671" y1="54.749" x2="90.084" y2="54.749" gradientTransform="matrix(1 0 0 -1 0.0449 113.7598)">
		<stop  offset="0" style="stop-color:#000000"/>
		<stop  offset="0.4504" style="stop-color:#000000"/>
		<stop  offset="0.6315" style="stop-color:#000000"/>
		<stop  offset="0.84" style="stop-color:#000000"/>
		<stop  offset="1" style="stop-color:#000000"/>
	</linearGradient>
	<path fill="url(#SVGID_9_)" d="M63.453,108.788c0.553,0,1-0.447,1-1c0,0,0-16.974,0-18.449c7.102-1.644,13.35-5.463,18.02-11.124
		c2.414-2.925,4.344-6.204,5.644-9.75c1.343-3.669,2.013-7.527,2.013-11.469c0-8.912-3.449-17.192-9.752-23.494
		c-6.301-6.302-14.543-9.624-23.456-9.624c-3.363,0-6.688,0.504-9.897,1.501c-0.594-1.032-1.336-2.744-2.054-3.988
		c1.384-0.8,7.305-4.219,7.305-4.219c0.313-0.181,0.5-0.513,0.5-0.864c0-0.042-0.004-0.084-0.009-0.127
		c-0.049-0.4-0.334-0.731-0.724-0.839L30.225,9.267c-0.088-0.023-0.178-0.036-0.268-0.036c-0.175,0-0.346,0.046-0.5,0.134
		c-0.232,0.135-0.401,0.357-0.469,0.617l-5.646,21.93c-0.021,0.083-0.03,0.165-0.03,0.248c0,0.309,0.141,0.605,0.394,0.798
		c0.18,0.134,0.391,0.203,0.605,0.203c0.172,0,0.345-0.043,0.5-0.133c0,0,5.984-3.456,7.371-4.257
		c0.69,1.196,10.104,17.547,10.104,17.547c0.165,0.285,0.461,0.47,0.789,0.495c0.025,0.002,0.052,0.003,0.077,0.003
		c0.301,0,0.589-0.138,0.779-0.373c2.614-3.232,6.235-5.368,10.34-6.019c0.467-0.073,0.851-0.126,1.24-0.158c0.005,0,0.01,0,0.014,0
		c0.503-0.048,0.958-0.072,1.394-0.072c9.265,0,16.88,7.537,16.88,16.801c0,9.266-7.615,16.802-16.88,16.802
		c-2.104,0-4.182-0.4-6.174-1.189c-0.118-0.047-0.245-0.068-0.368-0.068c-0.198,0-0.394,0.061-0.563,0.174
		c-0.271,0.186-0.437,0.493-0.437,0.823c0,0.002,0,0.004,0,0.005l0.016,18.984l0.025,15.268c0,0.555,0.448,0.998,1,0.998h13.035"/>
	
		<linearGradient id="SVGID_10_" gradientUnits="userSpaceOnUse" x1="-1396.9136" y1="588.2725" x2="-1396.9136" y2="492.9502" gradientTransform="matrix(-1 0 0 1 -1339.9102 -481.4805)">
		<stop  offset="0" style="stop-color:#FFFFFF"/>
		<stop  offset="0.1758" style="stop-color:#E7E9EA"/>
		<stop  offset="0.4969" style="stop-color:#CDD2D5"/>
		<stop  offset="0.782" style="stop-color:#C5CACC"/>
		<stop  offset="1" style="stop-color:#BABDC0"/>
	</linearGradient>
	<path fill="url(#SVGID_10_)" d="M62.454,106.789c0-1.796,0-18.362,0-18.362c0-0.476,0.333-0.885,0.799-0.981
		c6.97-1.428,13.269-5.318,17.679-10.504c2.31-2.715,4.084-5.834,5.305-9.164c1.264-3.447,1.895-7.074,1.895-10.78
		c0-8.377-3.242-16.156-9.169-22.08c-5.924-5.924-13.663-9.039-22.041-9.039c-3.417,0-6.795,0.556-10.038,1.65
		c-0.106,0.035-0.213,0.053-0.318,0.053c-0.35,0-0.686-0.184-0.868-0.501l-2.959-5.556c-0.091-0.157-0.135-0.328-0.135-0.498
		c0-0.346,0.18-0.683,0.502-0.868c0,0,3.802-2.195,6.107-3.526c-3.491-0.973-16.945-4.718-18.539-5.162
		c-0.413,1.604-3.893,15.125-4.796,18.634c2.317-1.339,6.175-3.564,6.175-3.564c0.152-0.089,0.324-0.133,0.498-0.133
		c0.087,0,0.177,0.011,0.262,0.033c0.256,0.068,0.474,0.235,0.606,0.466c0,0,8.76,15.219,9.953,17.289
		c2.841-3.014,6.468-5.014,10.589-5.668c0.002,0,0.011-0.001,0.013-0.001c0.503-0.079,0.931-0.138,1.381-0.173h-0.015
		c0.566-0.053,1.084-0.079,1.582-0.079c10.366,0,18.817,8.355,18.817,18.722c0,10.365-8.451,18.723-18.817,18.723
		c-1.878,0-3.736-0.283-5.541-0.846c0.002,2.423,0.015,17.648,0.015,17.648s0.021,12.525,0.023,14.27
		C52.977,106.789,60.891,106.789,62.454,106.789"/>
</g>
<g id="phase6">
	
		<linearGradient id="SVGID_11_" gradientUnits="userSpaceOnUse" x1="40.0391" y1="58.334" x2="90.0693" y2="58.334" gradientTransform="matrix(1 0 0 -1 0.0449 113.7598)">
		<stop  offset="0" style="stop-color:#000000"/>
		<stop  offset="0.4504" style="stop-color:#000000"/>
		<stop  offset="0.6315" style="stop-color:#000000"/>
		<stop  offset="0.84" style="stop-color:#000000"/>
		<stop  offset="1" style="stop-color:#000000"/>
	</linearGradient>
	<path fill="url(#SVGID_11_)" d="M63.456,108.786H50.41c-0.553,0-0.999-0.446-0.999-0.999V92.609c0-0.084,0.011-0.166,0.03-0.243
		c0-0.474,0-18.815,0-18.815c0-0.33,0.161-0.638,0.433-0.824c0.169-0.115,0.366-0.177,0.566-0.177c0.12,0,0.243,0.023,0.358,0.067
		c1.949,0.748,3.971,1.188,6.008,1.188c9.264,0,16.977-7.548,16.977-16.812c0-0.471-0.025-0.975-0.078-1.54l-0.038-0.341
		l-0.021-0.154c-0.043-0.371-0.102-0.733-0.164-1.079l-0.012-0.069c0,0-0.076-0.386-0.078-0.391
		c-0.088-0.403-0.188-0.802-0.305-1.182l-0.048-0.173c0,0-0.032-0.117-0.033-0.12c-0.137-0.438-0.295-0.871-0.485-1.332
		l-0.158-0.356l-0.09-0.195c-0.135-0.298-0.25-0.534-0.362-0.754c0,0-0.326-0.604-0.326-0.605c0,0-0.382-0.628-0.383-0.628
		l-0.117-0.188c0,0-0.272-0.426-0.276-0.429c-0.229-0.328-0.474-0.657-0.748-1c-0.136-0.168-0.281-0.331-0.438-0.504
		c0,0-0.105-0.122-0.107-0.122l-0.101-0.11c0,0-0.272-0.303-0.274-0.303c-0.195-0.206-0.408-0.418-0.654-0.646
		c0,0-0.283-0.258-0.286-0.262c-0.849-0.764-1.772-1.439-2.741-2.007c0.002,0.002,0.008,0.004,0.008,0.004l-0.082-0.048l-0.015-0.01
		l0.011,0.008c-0.299-0.175-0.625-0.348-0.992-0.528l-0.09-0.044c0,0-0.098-0.046-0.1-0.046c-2.29-1.093-4.893-1.646-7.389-1.646
		c-2.015,0-4.036,0.436-6.006,1.197c-0.117,0.045-0.238,0.067-0.36,0.067c-0.198,0-0.396-0.06-0.565-0.175
		c-0.272-0.186-0.434-0.495-0.434-0.825l0.006-15.195c0,0,0-3.442,0-5.028c-1.595,0-8.366,0-8.366,0
		c-0.401,0-0.766-0.24-0.922-0.611c-0.054-0.125-0.079-0.258-0.079-0.388c0-0.258,0.1-0.51,0.287-0.7l15.854-16.17
		c0.189-0.192,0.445-0.3,0.714-0.3c0.27,0,0.525,0.107,0.715,0.3l15.854,16.17c0.188,0.19,0.286,0.442,0.286,0.7
		c0,0.13-0.024,0.263-0.078,0.388c-0.155,0.371-0.521,0.611-0.923,0.611c0,0-6.836,0-8.436,0c0,1.431-0.004,3.281-0.004,4.461
		c7.1,1.645,13.422,5.428,18.09,11.088c2.41,2.924,4.343,6.204,5.639,9.746c1.342,3.669,2.032,7.525,2.032,11.467
		c0,3.932-0.679,7.779-2.015,11.441c-1.291,3.535-3.223,6.81-5.623,9.729c-4.646,5.65-10.945,9.51-18.021,11.172
		c0,1.475,0,18.448,0,18.448C64.455,108.34,64.009,108.786,63.456,108.786 M65.445,42.499c0,0,0.002,0,0.004,0.001
		C65.447,42.5,65.447,42.499,65.445,42.499"/>
	
		<linearGradient id="SVGID_12_" gradientUnits="userSpaceOnUse" x1="-1405.6968" y1="588.2695" x2="-1405.6968" y2="485.9727" gradientTransform="matrix(-1 0 0 1 -1339.9102 -481.4805)">
		<stop  offset="0" style="stop-color:#FFFFFF"/>
		<stop  offset="0.1758" style="stop-color:#E7E9EA"/>
		<stop  offset="0.4969" style="stop-color:#CDD2D5"/>
		<stop  offset="0.782" style="stop-color:#C5CACC"/>
		<stop  offset="1" style="stop-color:#BABDC0"/>
	</linearGradient>
	<path fill="url(#SVGID_12_)" d="M62.457,106.788c0-1.796,0-18.358,0-18.358c0-0.475,0.331-0.883,0.794-0.979
		c6.944-1.45,13.147-5.041,17.681-10.555c2.256-2.746,4.075-5.821,5.289-9.146c1.256-3.438,1.893-7.059,1.893-10.754
		c0-3.706-0.648-7.331-1.908-10.778c-1.221-3.331-3.036-6.414-5.305-9.162c-4.555-5.52-10.778-9.144-17.748-10.574
		c-0.463-0.097-0.799-0.505-0.799-0.978c0-0.001,0-0.001,0-0.003l0.006-6.266c0-0.553,0.447-0.999,1-0.999c0,0,4.393,0,7.055,0
		C67.878,15.65,58.096,5.674,56.936,4.492c-1.159,1.182-10.94,11.158-13.475,13.743c2.65,0,6.986,0,6.986,0
		c0.552,0,0.999,0.446,0.999,0.999v6.027c0,0-0.005,11.485-0.007,13.794c1.769-0.539,3.568-0.804,5.367-0.804
		c2.797,0,5.6,0.56,8.162,1.78c0.009,0.005,0.099,0.048,0.099,0.048l0.106,0.052c0.414,0.203,0.78,0.396,1.121,0.596
		c0.006,0.003,0.007,0.003,0.013,0.008l0.03,0.02l0.019,0.009c0.004,0.004,0.011,0.007,0.017,0.009
		c1.087,0.637,2.121,1.395,3.071,2.248l0.318,0.29c0.274,0.256,0.516,0.496,0.741,0.733c0,0.002,0.313,0.343,0.313,0.343
		l0.095,0.105c0.003,0.005,0.112,0.125,0.112,0.125c0.166,0.186,0.338,0.377,0.504,0.585c0.309,0.384,0.582,0.749,0.838,1.117
		c0,0.002,0.33,0.51,0.33,0.51l0.106,0.175c0,0.001,0.429,0.708,0.429,0.708c0.002,0,0.373,0.685,0.373,0.685
		c0.123,0.239,0.252,0.507,0.399,0.835c0.002,0.003,0.085,0.183,0.085,0.183l0.195,0.441c0.21,0.51,0.388,0.998,0.543,1.49
		c0,0.001,0.061,0.209,0.061,0.209l0.027,0.106c0.129,0.432,0.244,0.879,0.343,1.329c0,0.003,0.093,0.463,0.093,0.463l0.012,0.067
		c0.072,0.378,0.133,0.783,0.185,1.197c0,0.002,0.019,0.147,0.019,0.147l0.045,0.405c0.061,0.626,0.086,1.189,0.086,1.723
		c0,10.367-8.521,18.711-18.887,18.711c-1.812,0-3.611-0.297-5.367-0.825c0,2.399,0,17.729,0,17.729c0,0.084-0.011,0.166-0.03,0.244
		c0,0.438,0,12.222,0,13.936C52.973,106.788,60.895,106.788,62.457,106.788"/>
</g>
<g id="phase5">
	
		<linearGradient id="SVGID_13_" gradientUnits="userSpaceOnUse" x1="49.4463" y1="54.8262" x2="90.1484" y2="54.8262" gradientTransform="matrix(1 0 0 -1 0.0449 113.7598)">
		<stop  offset="0" style="stop-color:#000000"/>
		<stop  offset="0.4504" style="stop-color:#000000"/>
		<stop  offset="0.6315" style="stop-color:#000000"/>
		<stop  offset="0.84" style="stop-color:#000000"/>
		<stop  offset="1" style="stop-color:#000000"/>
	</linearGradient>
	<path fill="url(#SVGID_13_)" d="M63.395,108.785c0.551,0,0.998-0.447,0.998-1c0,0,0-16.96,0-18.43
		c7.066-1.668,13.494-5.558,18.133-11.205c2.398-2.922,4.277-6.192,5.566-9.728c1.335-3.655,2.012-7.503,2.012-11.432
		c0-4.866-1.035-9.559-3.061-13.945c-1.84-3.989-4.404-7.491-7.629-10.482c0.594-1.026,1.258-2.659,1.977-3.902
		c1.383,0.799,7.305,4.217,7.305,4.217c0.154,0.09,0.328,0.133,0.498,0.133c0.217,0,0.43-0.068,0.605-0.203
		c0.254-0.192,0.395-0.488,0.395-0.798c0-0.083-0.01-0.165-0.028-0.248l-5.649-21.93c-0.064-0.259-0.236-0.481-0.469-0.616
		c-0.154-0.088-0.324-0.135-0.5-0.135c-0.09,0-0.181,0.013-0.27,0.037l-21.814,6.076c-0.389,0.109-0.674,0.438-0.723,0.839
		c-0.006,0.044-0.008,0.085-0.008,0.127c0,0.353,0.188,0.684,0.498,0.864c0,0,5.984,3.456,7.373,4.257
		c-0.766,1.323-9.982,17.595-9.982,17.595c-0.088,0.154-0.133,0.327-0.133,0.5c0,0.148,0.031,0.298,0.1,0.436
		c0.145,0.298,0.426,0.506,0.754,0.554c4.149,0.61,7.969,2.72,10.609,5.94c0.298,0.362,0.593,0.756,0.875,1.168l0.216,0.343
		l0.132,0.209c0,0.002,0.021,0.037,0.021,0.037c0.152,0.24,0.295,0.468,0.424,0.698c0.001,0,0.328,0.631,0.328,0.631
		c0.113,0.226,0.242,0.487,0.359,0.748c0,0.002,0.266,0.648,0.266,0.648c0.105,0.267,0.209,0.544,0.302,0.823
		c0.001,0,0.198,0.626,0.198,0.626c0.082,0.286,0.162,0.596,0.236,0.916c0,0.003,0.026,0.118,0.026,0.118l0.106,0.485
		c0.061,0.311,0.104,0.633,0.154,1.021l0.033,0.243l0.042,0.323c0.056,0.573,0.081,1.099,0.081,1.604
		c0,9.265-7.613,16.831-16.879,16.831c-2.045,0-4.072-0.391-6.025-1.146c-0.115-0.045-0.238-0.065-0.358-0.065
		c-0.2,0-0.397,0.061-0.565,0.176c-0.272,0.188-0.434,0.495-0.434,0.824v15.187l0.003,19.03c0,0.553,0.447,1,0.999,1H63.395"/>
	
		<linearGradient id="SVGID_14_" gradientUnits="userSpaceOnUse" x1="-1409.7104" y1="588.2676" x2="-1409.7104" y2="492.8027" gradientTransform="matrix(-1 0 0 1 -1339.9102 -481.4805)">
		<stop  offset="0" style="stop-color:#FFFFFF"/>
		<stop  offset="0.1758" style="stop-color:#E7E9EA"/>
		<stop  offset="0.4969" style="stop-color:#CDD2D5"/>
		<stop  offset="0.782" style="stop-color:#C5CACC"/>
		<stop  offset="1" style="stop-color:#BABDC0"/>
	</linearGradient>
	<path fill="url(#SVGID_14_)" d="M62.395,106.786c-1.559,0-9.339,0-10.896,0c0-1.794-0.004-18.031-0.004-18.031s0-11.538,0-13.845
		c1.759,0.529,3.565,0.818,5.385,0.818c10.367,0,18.879-8.414,18.879-18.78c0-0.568-0.027-1.156-0.089-1.793l-0.058-0.426
		l-0.027-0.205c-0.057-0.427-0.104-0.783-0.174-1.148l-0.124-0.561l-0.026-0.11c-0.082-0.357-0.172-0.703-0.267-1.028
		c0,0-0.222-0.7-0.222-0.703c-0.105-0.313-0.219-0.621-0.338-0.923l-0.301-0.724c-0.135-0.301-0.277-0.59-0.398-0.828
		c0,0-0.368-0.713-0.368-0.714c-0.153-0.274-0.317-0.533-0.476-0.783c0,0-0.022-0.04-0.024-0.042l-0.116-0.19
		c0,0-0.271-0.423-0.271-0.426c-0.313-0.458-0.644-0.898-0.979-1.306c-2.65-3.233-6.396-5.415-10.467-6.336
		c1.132-1.962,9.805-17.286,9.805-17.286c0.094-0.157,0.137-0.329,0.137-0.498c0-0.347-0.182-0.683-0.502-0.868
		c0,0-3.854-2.227-6.176-3.565c3.49-0.972,16.939-4.718,18.538-5.163c0.413,1.604,3.896,15.13,4.798,18.637
		c-2.307-1.331-6.105-3.526-6.105-3.526c-0.158-0.092-0.33-0.135-0.498-0.135c-0.348,0-0.686,0.18-0.869,0.5l-2.899,5.506
		c-0.09,0.156-0.133,0.328-0.133,0.499c0,0.28,0.117,0.556,0.338,0.752c3.304,2.918,5.929,6.349,7.765,10.331
		c1.902,4.123,2.877,8.533,2.877,13.108c0,3.693-0.637,7.309-1.891,10.746c-1.212,3.32-3.059,6.396-5.313,9.142
		c-4.524,5.511-10.776,9.093-17.713,10.55c-0.463,0.099-0.795,0.506-0.795,0.979C62.395,88.408,62.395,104.991,62.395,106.786
		 M66.8,27.298c0.001,0,0.003,0,0.003,0l-0.011-0.003C66.795,27.297,66.797,27.297,66.8,27.298"/>
</g>
<g id="phase4">
	
		<linearGradient id="SVGID_15_" gradientUnits="userSpaceOnUse" x1="49.3511" y1="47.813" x2="104.5752" y2="47.813" gradientTransform="matrix(1 0 0 -1 0.0449 113.7598)">
		<stop  offset="0" style="stop-color:#000000"/>
		<stop  offset="0.4504" style="stop-color:#000000"/>
		<stop  offset="0.6315" style="stop-color:#000000"/>
		<stop  offset="0.84" style="stop-color:#000000"/>
		<stop  offset="1" style="stop-color:#000000"/>
	</linearGradient>
	<path fill="url(#SVGID_15_)" d="M63.467,108.7H50.395c-0.552,0-0.999-0.446-0.999-0.999l0.007-7.338v-26.83
		c0-0.33,0.161-0.639,0.434-0.824c0.17-0.116,0.367-0.175,0.566-0.175c0.122,0,0.243,0.022,0.36,0.067
		c1.959,0.756,3.992,1.209,6.049,1.209c9.265,0,16.997-7.295,16.997-16.82c0-0.45-0.022-0.914-0.072-1.422c0-0.005,0-0.008,0-0.011
		c-0.041-0.477-0.11-0.935-0.174-1.321c-0.676-4.086-2.937-7.829-6.17-10.422c-0.006-0.004-0.018-0.012-0.018-0.012
		s0.008,0.005,0.01,0.007l-0.002-0.002c-0.005-0.003-0.025-0.018-0.025-0.018c-0.258-0.189-0.403-0.487-0.403-0.804
		c0-0.018,0-0.037,0.002-0.055c0.021-0.338,0.211-0.639,0.504-0.809c0,0,16.308-9.298,17.619-10.056
		c-0.802-1.387-4.259-7.372-4.259-7.372c-0.09-0.155-0.133-0.328-0.133-0.499c0-0.215,0.068-0.427,0.203-0.606
		c0.192-0.253,0.488-0.394,0.799-0.394c0.082,0,0.164,0.01,0.248,0.031l21.932,5.645c0.26,0.067,0.48,0.237,0.615,0.47
		c0.088,0.153,0.136,0.325,0.136,0.5c0,0.089-0.015,0.181-0.037,0.269l-6.076,21.816c-0.106,0.387-0.438,0.672-0.838,0.722
		c-0.044,0.005-0.086,0.008-0.127,0.008c-0.354,0-0.685-0.188-0.865-0.499c0,0-3.419-5.921-4.219-7.305
		c-1.213,0.699-2.813,1.611-3.819,2.191c0.983,3.188,1.479,6.489,1.479,9.827c0,3.92-0.614,7.759-1.943,11.408
		c-1.284,3.527-3.194,6.884-5.586,9.8c-4.618,5.641-11.073,9.554-18.12,11.237c0,1.47,0,18.385,0,18.385
		C64.466,108.254,64.02,108.7,63.467,108.7"/>
	
		<linearGradient id="SVGID_16_" gradientUnits="userSpaceOnUse" x1="-1416.7988" y1="588.1836" x2="-1416.7988" y2="507.2373" gradientTransform="matrix(-1 0 0 1 -1339.9102 -481.4805)">
		<stop  offset="0" style="stop-color:#FFFFFF"/>
		<stop  offset="0.1758" style="stop-color:#E7E9EA"/>
		<stop  offset="0.4969" style="stop-color:#CDD2D5"/>
		<stop  offset="0.782" style="stop-color:#C5CACC"/>
		<stop  offset="1" style="stop-color:#BABDC0"/>
	</linearGradient>
	<path fill="url(#SVGID_16_)" d="M62.467,106.702c-1.563,0-9.506,0-11.071,0c0.002-1.491,0.005-6.339,0.005-6.339s0-22.94,0-25.458
		c1.766,0.536,3.581,0.819,5.41,0.817c10.548-0.021,18.927-8.348,18.927-18.715c0-0.514-0.025-1.042-0.079-1.614v0.012
		c-0.048-0.546-0.127-1.074-0.193-1.479c-0.68-4.119-2.782-7.914-5.825-10.738c1.976-1.139,17.303-9.89,17.303-9.89
		c0.322-0.186,0.502-0.522,0.502-0.868c0-0.17-0.045-0.341-0.135-0.498c0,0-2.228-3.858-3.564-6.176
		c3.509,0.903,17.031,4.384,18.636,4.797c-0.444,1.597-4.19,15.048-5.164,18.537c-1.329-2.306-3.524-6.106-3.524-6.106
		c-0.188-0.321-0.522-0.501-0.869-0.501c-0.17,0-0.34,0.043-0.497,0.135l-5.445,3.095c-0.313,0.183-0.499,0.518-0.499,0.868
		c0,0.105,0.016,0.213,0.053,0.316c1.08,3.221,1.666,6.576,1.666,9.972c0,3.687-0.595,7.295-1.845,10.726
		c-1.205,3.314-3.006,6.436-5.252,9.178c-4.506,5.502-10.825,9.179-17.741,10.648c-0.462,0.1-0.791,0.508-0.791,0.979
		C62.467,88.4,62.467,104.906,62.467,106.702"/>
</g>
<g id="phase3">
	
		<linearGradient id="SVGID_17_" gradientUnits="userSpaceOnUse" x1="49.4141" y1="39.2207" x2="112.0234" y2="39.2207" gradientTransform="matrix(1 0 0 -1 0.0449 113.7598)">
		<stop  offset="0" style="stop-color:#000000"/>
		<stop  offset="0.4504" style="stop-color:#000000"/>
		<stop  offset="0.6315" style="stop-color:#000000"/>
		<stop  offset="0.84" style="stop-color:#000000"/>
		<stop  offset="1" style="stop-color:#000000"/>
	</linearGradient>
	<path fill="url(#SVGID_17_)" d="M63.42,108.771c0.553,0,0.998-0.446,0.998-1c0,0,0-16.963,0-18.439
		c6.207-1.439,11.852-4.611,16.335-9.209c4.485-4.6,7.438-10.035,8.718-16.279c1.117,0,3.113,0.004,4.43,0.006
		c0,1.596,0,8.436,0,8.436c0,0.398,0.236,0.761,0.604,0.919c0.127,0.055,0.261,0.08,0.394,0.08c0.252,0,0.5-0.095,0.689-0.273
		l16.169-15.368c0.198-0.188,0.312-0.45,0.312-0.724c0-0.002,0-0.005,0-0.007c0-0.271-0.109-0.528-0.305-0.716l-16.17-15.611
		c-0.189-0.184-0.441-0.281-0.695-0.281c-0.133,0-0.264,0.026-0.391,0.08c-0.369,0.155-0.607,0.517-0.607,0.92c0,0,0,6.912,0,8.513
		c-1.159,0-1.825,0-1.825,0L73.673,49.82c-0.327,0-0.634,0.16-0.821,0.429c-0.117,0.17-0.178,0.368-0.178,0.57
		c0,0.117,0.02,0.235,0.063,0.35c0.684,1.833,1.066,3.934,1.066,5.837c0,9.266-7.693,16.803-16.957,16.803
		c-2.038,0-4.059-0.43-6.008-1.178c-0.115-0.045-0.239-0.066-0.359-0.066c-0.2,0-0.396,0.063-0.566,0.178
		c-0.271,0.188-0.433,0.492-0.433,0.822l-0.021,34.209c0,0.555,0.446,1,0.999,1H63.42"/>
	
		<linearGradient id="SVGID_18_" gradientUnits="userSpaceOnUse" x1="-1420.4507" y1="588.2549" x2="-1420.4507" y2="525.1387" gradientTransform="matrix(-1 0 0 1 -1339.9102 -481.4805)">
		<stop  offset="0" style="stop-color:#FFFFFF"/>
		<stop  offset="0.1758" style="stop-color:#E7E9EA"/>
		<stop  offset="0.4969" style="stop-color:#CDD2D5"/>
		<stop  offset="0.782" style="stop-color:#C5CACC"/>
		<stop  offset="1" style="stop-color:#BABDC0"/>
	</linearGradient>
	<path fill="url(#SVGID_18_)" d="M62.42,106.773c0-1.795,0-18.347,0-18.347c0-0.474,0.333-0.884,0.797-0.979
		c6.129-1.264,11.67-4.236,16.065-8.741c4.401-4.513,7.225-9.868,8.327-16.039c0.088-0.476,0.5-0.823,0.981-0.823
		c0.002,0,0.002,0,0.005,0l6.303,0.006c0.554,0,1,0.445,1,0.998c0,0,0,4.463,0,7.105c2.564-2.439,12.498-11.883,13.725-13.046
		c-1.216-1.174-11.148-10.764-13.725-13.249c0,2.666,0,7.157,0,7.157c0,0.553-0.446,0.999-1,0.999h-2.823
		c0,0-14.709,0.003-17.078,0.003c0.495,1.703,0.735,3.441,0.735,5.188c0,10.366-8.521,18.731-18.886,18.731
		c-1.812,0-3.612-0.297-5.367-0.825c0,2.526-0.021,30.563-0.021,31.862C53.018,106.773,60.859,106.773,62.42,106.773"/>
</g>
<g id="phase2">
	
		<linearGradient id="SVGID_19_" gradientUnits="userSpaceOnUse" x1="49.4312" y1="30.2656" x2="104.6367" y2="30.2656" gradientTransform="matrix(1 0 0 -1 0.0449 113.7598)">
		<stop  offset="0" style="stop-color:#000000"/>
		<stop  offset="0.4504" style="stop-color:#000000"/>
		<stop  offset="0.6315" style="stop-color:#000000"/>
		<stop  offset="0.84" style="stop-color:#000000"/>
		<stop  offset="1" style="stop-color:#000000"/>
	</linearGradient>
	<path fill="url(#SVGID_19_)" d="M63.396,108.59H50.499c-0.553,0-0.999-0.445-0.999-0.999l-0.024-34.024
		c0-0.327,0.159-0.633,0.428-0.82c0.17-0.118,0.369-0.18,0.572-0.18c0.117,0,0.234,0.021,0.347,0.063
		c1.893,0.699,3.846,1.143,5.805,1.143c4.101,0,8.257-1.354,11.322-4.068c3.038-2.691,5.131-6.426,5.657-10.434
		c0.043-0.33,0.25-0.619,0.549-0.768c0.14-0.068,0.292-0.104,0.443-0.104c0.172,0,0.344,0.043,0.498,0.132
		c0,0,16.242,9.579,17.426,10.264c0.8-1.383,4.218-7.304,4.218-7.304c0.18-0.313,0.514-0.501,0.866-0.501
		c0.043,0,0.082,0.003,0.125,0.008c0.398,0.052,0.729,0.338,0.838,0.726l6.076,21.815c0.022,0.089,0.035,0.179,0.035,0.271
		c0,0.174-0.045,0.346-0.134,0.5c-0.136,0.23-0.356,0.399-0.616,0.469L82,90.418c-0.082,0.021-0.167,0.03-0.248,0.03
		c-0.309,0-0.605-0.142-0.797-0.394c-0.137-0.18-0.203-0.393-0.203-0.604c0-0.173,0.043-0.345,0.133-0.5
		c0,0,3.456-5.985,4.256-7.372c-1.117-0.646-2.781-1.673-3.705-2.206c-0.162,0.174-0.322,0.344-0.482,0.51l0.012-0.012
		c-4.713,4.976-10.598,8.032-16.564,9.47c0,1.465,0,18.252,0,18.252C64.396,108.145,63.949,108.59,63.396,108.59"/>
	
		<linearGradient id="SVGID_20_" gradientUnits="userSpaceOnUse" x1="-1416.8721" y1="588.0732" x2="-1416.8721" y2="542.4521" gradientTransform="matrix(-1 0 0 1 -1339.9102 -481.4805)">
		<stop  offset="0" style="stop-color:#FFFFFF"/>
		<stop  offset="0.1758" style="stop-color:#E7E9EA"/>
		<stop  offset="0.4969" style="stop-color:#CDD2D5"/>
		<stop  offset="0.782" style="stop-color:#C5CACC"/>
		<stop  offset="1" style="stop-color:#BABDC0"/>
	</linearGradient>
	<path fill="url(#SVGID_20_)" d="M62.396,106.592c0-1.795,0-18.13,0-18.13c0-0.471,0.328-0.878,0.789-0.978
		c6.139-1.321,11.918-4.334,16.322-8.99c0.006-0.003,0.01-0.008,0.014-0.012c0.264-0.271,0.529-0.558,0.795-0.852
		c0.002,0,0.11-0.12,0.11-0.12l0.056-0.059c0.203-0.216,0.498-0.337,0.787-0.337c0.164,0,0.328,0.037,0.474,0.121l5.263,3.104
		c0.322,0.185,0.502,0.521,0.502,0.866c0,0.17-0.043,0.342-0.135,0.499c0,0-2.227,3.858-3.564,6.179
		c3.504-0.904,17.031-4.387,18.637-4.8c-0.441-1.596-4.189-15.049-5.162-18.538c-1.33,2.307-3.525,6.105-3.525,6.105
		c-0.188,0.322-0.521,0.502-0.865,0.502c-0.17,0-0.344-0.043-0.5-0.135c0,0-15.086-8.922-17.05-10.049
		c-0.831,3.922-3.034,7.536-6.065,10.219c-3.432,3.041-8.059,4.523-12.646,4.523c-1.733,0-3.461-0.257-5.152-0.745
		c0,2.269,0.023,29.825,0.023,31.618C53.057,106.592,60.839,106.592,62.396,106.592"/>
</g>
<g id="phase1">
	
		<linearGradient id="SVGID_21_" gradientUnits="userSpaceOnUse" x1="49.4531" y1="25.8193" x2="90.7207" y2="25.8193" gradientTransform="matrix(1 0 0 -1 0.0449 113.7598)">
		<stop  offset="0" style="stop-color:#000000"/>
		<stop  offset="0.4504" style="stop-color:#000000"/>
		<stop  offset="0.6315" style="stop-color:#000000"/>
		<stop  offset="0.84" style="stop-color:#000000"/>
		<stop  offset="1" style="stop-color:#000000"/>
	</linearGradient>
	<path fill="url(#SVGID_21_)" d="M63.396,108.65H50.497c-0.553,0-0.999-0.445-0.999-0.998l0.016-34.078
		c0-0.33,0.162-0.639,0.433-0.823c0.17-0.117,0.367-0.178,0.567-0.178c0.12,0,0.241,0.022,0.356,0.067
		c1.937,0.739,3.958,1.137,6.009,1.137c5.07,0,9.904-2.188,13.125-6.176c0.189-0.236,0.475-0.371,0.773-0.371
		c0.027,0,0.056,0.002,0.082,0.002c0.328,0.025,0.623,0.213,0.789,0.498c0,0,9.684,16.201,10.313,17.295
		c1.385-0.799,7.307-4.219,7.307-4.219c0.153-0.092,0.328-0.135,0.5-0.135c0.215,0,0.426,0.069,0.604,0.203
		c0.252,0.191,0.395,0.489,0.395,0.798c0,0.083-0.011,0.165-0.029,0.248l-5.646,21.933c-0.068,0.26-0.238,0.48-0.47,0.617
		c-0.153,0.088-0.325,0.135-0.5,0.135c-0.089,0-0.181-0.015-0.269-0.037c0,0-17.225-4.762-19.473-5.389
		c0,1.881,0.016,8.473,0.016,8.473C64.395,108.205,63.948,108.65,63.396,108.65 M64.389,95.166c1.721-0.995,3.695-2.13,4.788-2.762
		c-0.671-1.16-1.55-2.825-2.112-3.803c-0.938,0.307-1.815,0.558-2.66,0.758C64.404,90.477,64.389,92.996,64.389,95.166"/>
	
		<linearGradient id="SVGID_22_" gradientUnits="userSpaceOnUse" x1="-1409.7583" y1="588.1338" x2="-1409.7583" y2="551.3135" gradientTransform="matrix(-1 0 0 1 -1339.9102 -481.4805)">
		<stop  offset="0" style="stop-color:#FFFFFF"/>
		<stop  offset="0.1758" style="stop-color:#E7E9EA"/>
		<stop  offset="0.4969" style="stop-color:#CDD2D5"/>
		<stop  offset="0.782" style="stop-color:#C5CACC"/>
		<stop  offset="1" style="stop-color:#BABDC0"/>
	</linearGradient>
	<path fill="url(#SVGID_22_)" d="M62.396,106.652c0-1.557,0-18.187,0-18.187c0-0.476,0.332-0.884,0.799-0.979
		c1.223-0.25,2.525-0.617,3.986-1.127c0.105-0.036,0.219-0.058,0.326-0.058c0.352,0,0.686,0.187,0.867,0.503l3.032,5.467
		c0.091,0.155,0.134,0.328,0.134,0.498c0,0.347-0.18,0.683-0.5,0.869c0,0-3.975,2.293-6.174,3.563
		c3.25,0.904,16.928,4.715,18.535,5.163c0.414-1.604,3.896-15.126,4.8-18.636c-2.308,1.33-6.106,3.525-6.106,3.525
		c-0.156,0.092-0.328,0.135-0.498,0.135c-0.348,0-0.684-0.18-0.867-0.5c0,0-8.941-14.983-10.135-17.057
		c-3.559,3.788-8.518,5.911-13.719,5.911c-1.82,0-3.619-0.267-5.366-0.788c0,2.488-0.017,30.145-0.017,31.693
		C53.055,106.652,60.838,106.652,62.396,106.652"/>
</g>
<g id="phase0">
	
		<linearGradient id="SVGID_23_" gradientUnits="userSpaceOnUse" x1="23.8721" y1="45.8491" x2="90.0625" y2="45.8491" gradientTransform="matrix(1 0 0 -1 0.0449 113.7598)">
		<stop  offset="0" style="stop-color:#000000"/>
		<stop  offset="0.4504" style="stop-color:#000000"/>
		<stop  offset="0.6315" style="stop-color:#000000"/>
		<stop  offset="0.84" style="stop-color:#000000"/>
		<stop  offset="1" style="stop-color:#000000"/>
	</linearGradient>
	<path fill="url(#SVGID_23_)" d="M57.787,111.637l15.854-16.169c0.188-0.19,0.287-0.442,0.287-0.7c0-0.129-0.025-0.263-0.078-0.388
		c-0.156-0.371-0.521-0.61-0.923-0.61c0,0-6.911,0-8.514,0c0-1.033,0.045-15.274,0.045-15.274c0-2.312-1.659-4.271-3.881-4.715
		c-0.015-0.015-0.591-0.171-1.431-0.152c-0.734,0.017-1.418,0.146-2.364,0.146c-9.266,0-16.567-7.518-16.567-16.778
		c0-9.265,7.497-16.802,16.763-16.802c9.264,0,16.801,7.537,16.801,16.802c0,5.489-2.896,10.772-7.424,13.921
		c-0.275,0.191-0.428,0.504-0.428,0.82c0,0.174,0.045,0.351,0.139,0.509c0,0,5.002,8.356,5.057,8.448
		c0.006,0.017,0.012,0.031,0.012,0.031l0.143,0.293c0.865,1.463,2.459,2.371,4.16,2.371c0.86,0,1.709-0.229,2.453-0.668
		c0.422-0.253,0.808-0.572,1.146-0.959c0.021-0.018,0.045-0.035,0.065-0.055c3.436-3.1,6.121-6.777,8.026-10.957
		c1.979-4.335,2.979-8.957,2.979-13.755c0-8.913-3.489-17.202-9.791-23.504c-6.301-6.303-14.621-9.626-23.533-9.605
		c-8.721,0.021-16.792,3.303-23.095,9.605c-6.302,6.302-9.771,14.591-9.771,23.504c0,3.959,0.688,7.833,2.04,11.516
		c1.311,3.558,3.206,6.847,5.64,9.777c4.711,5.675,10.704,9.396,17.851,11.002c-0.002,1.003-0.005,3.287-0.007,4.479
		c-1.587,0-8.224,0-8.224,0c-0.402,0-0.766,0.238-0.923,0.609c-0.053,0.125-0.078,0.26-0.078,0.389c0,0.258,0.1,0.51,0.286,0.699
		l15.855,16.169c0.189,0.192,0.445,0.3,0.714,0.3C57.342,111.936,57.598,111.829,57.787,111.637"/>
	
		<linearGradient id="SVGID_24_" gradientUnits="userSpaceOnUse" x1="-1396.9224" y1="590.9902" x2="-1396.9224" y2="507.3662" gradientTransform="matrix(-1 0 0 1 -1339.9102 -481.4805)">
		<stop  offset="0" style="stop-color:#FFFFFF"/>
		<stop  offset="0.1758" style="stop-color:#E7E9EA"/>
		<stop  offset="0.4969" style="stop-color:#CDD2D5"/>
		<stop  offset="0.782" style="stop-color:#C5CACC"/>
		<stop  offset="1" style="stop-color:#BABDC0"/>
	</linearGradient>
	<path fill="url(#SVGID_24_)" d="M70.548,95.768c-2.677,0-7.134,0-7.134,0c-0.553,0-0.999-0.447-0.999-1l0.036-16.207l0.009-0.071
		c0-1.468-1.159-2.697-2.638-2.798c-0.135-0.01-2.168,0.082-3.039,0.082c-10.367,0-18.547-8.414-18.547-18.778
		c0-10.366,8.375-18.8,18.742-18.8c10.366,0,18.799,8.434,18.799,18.8c0,5.834-2.92,11.456-7.527,15.013
		c0.762,1.289,4.574,7.697,4.574,7.697c0.02,0.031,0.021,0.037,0.037,0.072l0.072,0.158c0,0,0.021,0.051,0.021,0.057
		c0.516,0.861,1.422,1.381,2.434,1.381c0.504,0,0.979-0.156,1.412-0.414c0.283-0.166,0.563-0.374,0.785-0.657
		c0.08-0.102,0.182-0.185,0.289-0.245c3.152-2.885,5.672-6.271,7.436-10.135c1.855-4.07,2.799-8.415,2.799-12.925
		c0-8.378-3.283-16.166-9.207-22.09c-5.924-5.924-13.742-9.01-22.119-9.021c-8.033-0.01-16.314,3.615-21.681,9.021
		c-5.902,5.945-9.186,13.712-9.186,22.09c0,3.723,0.646,7.364,1.92,10.826c1.229,3.344,3.013,6.435,5.3,9.188
		c4.596,5.534,10.491,8.998,17.508,10.392c0.466,0.095,0.804,0.502,0.804,0.979c0,0.001,0,0.001,0,0.003l-0.01,6.387
		c0,0.552-0.448,0.998-0.999,0.998c0,0-4.222,0-6.842,0c2.535,2.584,12.315,12.56,13.475,13.739
		C58.232,108.326,68.014,98.352,70.548,95.768"/>
</g>
</svg>
