<?xml version="1.0" encoding="utf-8"?>
<!-- Generator: Adobe Illustrator 17.1.0, SVG Export Plug-In . SVG Version: 6.00 Build 0)  -->
<!DOCTYPE svg PUBLIC "-//W3C//DTD SVG 1.1//EN" "http://www.w3.org/Graphics/SVG/1.1/DTD/svg11.dtd">
<svg version="1.1" id="Layer_1" xmlns="http://www.w3.org/2000/svg" xmlns:xlink="http://www.w3.org/1999/xlink" x="0px" y="0px"
	 viewBox="0 0 800 60" enable-background="new 0 0 800 60" xml:space="preserve">
<g id="shadow">
	<rect y="41.667" opacity="0.1" fill-rule="evenodd" clip-rule="evenodd" width="800" height="15.214"/>
	<rect y="41.667" opacity="0.1" fill-rule="evenodd" clip-rule="evenodd" width="800" height="14.214"/>
	<rect y="41.667" opacity="0.1" fill-rule="evenodd" clip-rule="evenodd" width="800" height="13.214"/>
	<rect y="41.667" opacity="0.1" fill-rule="evenodd" clip-rule="evenodd" width="800" height="12.214"/>
</g>
<g id="normal">
	<path display="none" fill-rule="evenodd" clip-rule="evenodd" fill="#231F20" d="M1094.889-10.361
		C1083.72,11.474,800,37.472,800,37.472s-173.544,7.454-424.439,7.454S-0.001,36.539-0.001,36.539S-395.101,0.067-410.49-29.042
		c-0.451,1.225-0.612,2.462-0.44,3.712C-406.897,3.978,0,44.649,0,44.649s173.5,5.277,375.561,5.277S800,44.472,800,44.472
		s283.72-27.998,294.889-49.833c1.035-2.024,1.179-4.053,0.459-6.082C1095.22-11.083,1095.074-10.722,1094.889-10.361z"/>
	<path display="none" fill-rule="evenodd" clip-rule="evenodd" fill="#FF5818" d="M1094.889-7.361
		C1083.72,14.474,800,40.472,800,40.472s-173.544,7.454-424.439,7.454S-0.001,39.539-0.001,39.539S-395.101,3.067-410.49-26.042
		c-0.451,1.225-0.612,2.462-0.44,3.712C-406.897,6.978,0,47.649,0,47.649s173.5,5.277,375.561,5.277S800,47.472,800,47.472
		s283.72-27.998,294.889-49.833c1.035-2.024,1.179-4.053,0.459-6.082C1095.22-8.083,1095.074-7.722,1094.889-7.361z"/>
	<rect y="41.667" fill-rule="evenodd" clip-rule="evenodd" fill="#FF5818" width="800" height="11.214"/>
	<rect y="41.6" fill-rule="evenodd" clip-rule="evenodd" width="800" height="5.281"/>
</g>
</svg>
