<?xml version="1.0" encoding="utf-8"?>
<!-- Generator: Adobe Illustrator 17.0.1, SVG Export Plug-In . SVG Version: 6.00 Build 0)  -->
<!DOCTYPE svg PUBLIC "-//W3C//DTD SVG 1.1//EN" "http://www.w3.org/Graphics/SVG/1.1/DTD/svg11.dtd">
<svg version="1.1" id="Layer_1" xmlns="http://www.w3.org/2000/svg" xmlns:xlink="http://www.w3.org/1999/xlink" x="0px" y="0px"
	 width="114px" height="90px" viewBox="0 0 114 90" enable-background="new 0 0 114 90" xml:space="preserve">
<g>
	<g>
		<path fill-rule="evenodd" clip-rule="evenodd" fill="#0DB353" d="M83.724,42.167c-0.486-0.947-1.816-2.025-1.816-2.025
			l-5.491-14.394h-0.001c-1.139-2.727-4.493-4.164-5.956-4.164H43.54c-1.463,0-4.818,1.437-5.956,4.164l-5.492,14.394
			c0,0-1.331,1.079-1.817,2.025c-0.486,0.946-1.017,1.789-1.017,8.171c0,6.223,1.273,8.436,2.799,9.203l1.204,0.667v5.778
			c0,1.875,0.454,2.431,2.271,2.431h4.077c1.818,0,2.271-0.557,2.271-2.431v-5.778h30.24v5.777c0,1.875,0.454,2.432,2.27,2.432
			h4.079c1.816,0,2.271-0.557,2.271-2.431v-5.778l1.204-0.667c1.526-0.766,2.799-2.98,2.799-9.203
			C84.742,43.956,84.211,43.113,83.724,42.167z M38.885,55.207c-2.836,0-5.136-2.309-5.136-5.158c0-2.849,2.299-5.158,5.136-5.158
			s5.136,2.309,5.136,5.158C44.021,52.897,41.721,55.207,38.885,55.207z M75.087,55.207c-2.836,0-5.135-2.309-5.135-5.158
			c0-2.849,2.299-5.158,5.136-5.158c2.836,0,5.136,2.309,5.136,5.158C80.223,52.897,77.924,55.207,75.087,55.207z"/>
	</g>
</g>
</svg>
