<?xml version="1.0" encoding="utf-8"?>
<!-- Generator: Adobe Illustrator 18.0.0, SVG Export Plug-In . SVG Version: 6.00 Build 0)  -->
<!DOCTYPE svg PUBLIC "-//W3C//DTD SVG 1.1//EN" "http://www.w3.org/Graphics/SVG/1.1/DTD/svg11.dtd">
<svg version="1.1" id="Layer_1" xmlns="http://www.w3.org/2000/svg" xmlns:xlink="http://www.w3.org/1999/xlink" x="0px" y="0px"
	 width="640px" height="60px" viewBox="0 0 640 60" enable-background="new 0 0 640 60" xml:space="preserve">
<g id="Layer_1_1_">
	<g display="none" opacity="0.1">
		<g display="inline">
			<path d="M325.7-82.9C-106.1-91.4-497-62.7-490.9-18.3C-486.9,11-80,51.3-80,51.3s173.5,5.6,375.6,5.6S720,52.9,720,52.9
				s283.7-29.4,294.9-51.2C1033.9-35.5,753.5-74.5,325.7-82.9z"/>
		</g>
	</g>
	<g display="none" opacity="0.1">
		<g display="inline">
			<path d="M325.7-83.9C-106.1-92.4-497-63.7-490.9-19.3C-486.9,10-80,50.3-80,50.3s173.5,5.6,375.6,5.6S720,51.9,720,51.9
				s283.7-29.4,294.9-51.2C1033.9-36.5,753.5-75.5,325.7-83.9z"/>
		</g>
	</g>
	<g display="none" opacity="0.1">
		<g display="inline">
			<path d="M325.7-84.9C-106.1-93.4-497-64.7-490.9-20.3C-486.9,9-80,49.3-80,49.3s173.5,5.6,375.6,5.6S720,50.9,720,50.9
				s283.7-29.4,294.9-51.2C1033.9-37.5,753.5-76.5,325.7-84.9z"/>
		</g>
	</g>
	<g display="none" opacity="0.1">
		<g display="inline">
			<path d="M325.7-85.9C-106.1-94.4-497-65.7-490.9-21.3C-486.9,8-80,48.3-80,48.3s173.5,5.6,375.6,5.6S720,49.9,720,49.9
				s283.7-29.4,294.9-51.2C1033.9-38.5,753.5-77.5,325.7-85.9z"/>
		</g>
	</g>
	<g display="none">
		<g display="inline">
			<path fill="#FF5818" d="M325.7-86.9C-106.1-95.4-497-66.7-490.9-22.3c4,29.3,410.9,70,410.9,70s173.5,5.3,375.6,5.3
				S720,47.5,720,47.5s283.7-28,294.9-49.8C1033.9-39.5,753.5-78.5,325.7-86.9z"/>
		</g>
	</g>
	<g>
		<g>
			<path display="none" fill="#2C2C2C" d="M325.7-91.9c-431.7-8.5-822.7,20.2-816.6,64.6C-486.9,2-80,39.5-80,39.5
				s124.7,8.4,375.6,8.4S720,40.5,720,40.5s283.7-26,294.9-47.8C1033.9-44.5,753.5-83.5,325.7-91.9z"/>
			<rect x="-80" y="0" fill="#2C2C2C" width="800" height="46.9"/>
		</g>
	</g>
</g>
<g id="Layer_2">
</g>
</svg>
