<?xml version="1.0" encoding="utf-8"?>
<!-- Generator: Adobe Illustrator 16.0.2, SVG Export Plug-In . SVG Version: 6.00 Build 0)  -->
<!DOCTYPE svg PUBLIC "-//W3C//DTD SVG 1.1//EN" "http://www.w3.org/Graphics/SVG/1.1/DTD/svg11.dtd">
<svg version="1.1" id="Layer_1" xmlns="http://www.w3.org/2000/svg" xmlns:xlink="http://www.w3.org/1999/xlink" x="0px" y="0px"
	width="132px" height="132px" viewBox="0 0 132 132" xml:space="preserve">
<g id="path">
	<g>
		<path fill="#575757" d="M66,1C30.1,1,1,30.1,1,66c0,35.9,29.1,65,65,65c35.9,0,65-29.1,65-65C131,30.1,101.9,1,66,1z M66,115.2
			c-27.2,0-49.2-22-49.2-49.2s22-49.2,49.2-49.2s49.2,22,49.2,49.2S93.2,115.2,66,115.2z"/>
	</g>
	<circle fill="#FFFFFF" cx="66" cy="66" r="49.2"/>
	<g id="LWPOLYLINE_6_">
		<path fill="#AAAAAA" d="M48,40l0.4-0.1l0.4-0.2l0.3-0.3l0.3-0.3l0.2-0.8l0.1-0.9V34h1.6v7.2h-1.5v-1.6c-0.3,1-1.2,1.8-2.3,1.7
			c-0.1,0-0.2,0-0.3,0c-1.2-0.1-2-1.1-1.9-2.3v-5.1H47v4.6c-0.1,0.6,0.3,1.1,0.9,1.2C47.9,40,48,40,48,40z"/>
	</g>
	<g id="LWPOLYLINE_7_">
		<path fill="#AAAAAA" d="M70.1,108.3H68.9V105c0.1-0.5-0.301-1-0.801-1.1H68c-0.8,0.1-1.3,0.8-1.2,1.6l0,0v2.8h-1.2V102.9h1.1v1.3
			c0.2-0.8,0.899-1.3,1.7-1.4c0.1,0,0.199,0,0.3,0c1,0.2,1.6,1.101,1.5,2v3.5H70.1z"/>
	</g>
	<g id="LWPOLYLINE_8_">
		<path fill="#AAAAAA" d="M57.1,34v1.6l-0.7,0.1L55.8,36l-0.5,0.5L55,37.2L54.9,38v3.4h-1.6v-7.2h1.5V36c0.2-1,1.1-1.8,2.1-2H57
			H57.1z"/>
	</g>
	<g id="LWPOLYLINE_9_">
		<path fill="#AAAAAA" d="M99.1,97.9H97.9V94.6c0.1-0.5-0.301-1-0.801-1.1H97c-0.8,0.1-1.3,0.8-1.2,1.6l0,0V97.9h-1.2v-5.4H95.7v1.3
			c0.2-0.8,0.899-1.3,1.7-1.399c0.1,0,0.199,0,0.3,0c1,0.199,1.6,1.1,1.5,2v3.5H99.1z"/>
	</g>
	<g>
		<path fill="#AAAAAA" d="M72.3,36.6L72,35.5l-0.5-0.8l-0.8-0.6L69.8,34c-1,0-1.899,0.6-2.2,1.5v-1.4H66v9.7h1.6v-3.5
			c0.4,0.8,1.2,1.2,2,1.2l0.7-0.1l0.601-0.2l0.5-0.4l0.399-0.5l0.5-1.2l0.101-1.3L72.3,36.6z M70.7,38.5l-0.2,0.7l-0.2,0.3L70,39.8
			L69.6,40H69.2c-0.9,0-1.601-0.7-1.601-1.6v-0.9c0,0,0,0,0-0.1c-0.1-1,0.7-1.8,1.601-1.9H69.6l0.4,0.2l0.3,0.3l0.2,0.3l0.2,0.7
			l0.1,0.8L70.7,38.5z"/>
	</g>
	<g id="LWPOLYLINE_11_">
		<path fill="#AAAAAA" d="M71.9,94.1V97.9h-1.2v-3.4c0.1-0.5-0.3-1-0.8-1c-0.101,0-0.101,0-0.2,0c-0.7,0-1.3,0.7-1.3,1.4V95v2.8
			h-1.2V94.4c0.1-0.5-0.2-1-0.7-1c-0.1,0-0.1,0-0.2,0c-0.8,0-1.4,0.699-1.3,1.5c0,0,0,0,0,0.1v2.8h-1.2V92.4H65V93.6
			c0.3-0.8,1-1.3,1.8-1.3s1.4,0.5,1.601,1.3c0.3-0.699,1-1.199,1.8-1.3h0.1C71.1,92.4,71.9,93.2,71.9,94.1z"/>
	</g>
	<g id="LWPOLYLINE_12_">
		<polygon fill="#AAAAAA" points="39.3,33 39.3,35.6 42.9,35.6 42.9,37.1 39.3,37.1 39.3,39.9 43.8,39.9 43.8,41.4 37.5,41.4 
			37.5,31.5 43.8,31.5 43.8,33 		"/>
	</g>
	<g id="LWPOLYLINE_13_">
		<path fill="#AAAAAA" d="M94,41.4v-4.5c0.1-0.7-0.3-1.3-1-1.4h-0.1c-1,0.2-1.801,1.1-1.601,2.2l0,0v3.7h-1.6v-7.2h1.5v1.7
			c0.3-1,1.2-1.7,2.2-1.8c0.1,0,0.199,0,0.399,0c1.3,0.2,2.2,1.4,2,2.7v4.7H94V41.4z"/>
	</g>
	<g id="LWPOLYLINE_14_">
		<polygon fill="#AAAAAA" points="37.3,96.8 40.5,96.8 40.5,97.9 36,97.9 36,90.5 37.3,90.5 		"/>
	</g>
	<g id="LWPOLYLINE_15_">
		<polygon fill="#AAAAAA" points="53.1,92.5 54.1,92.5 52.5,97.9 51.4,97.9 50.5,94.1 49.5,97.9 48.3,97.9 46.6,92.5 47.9,92.5 
			49,96.2 50,92.5 51.1,92.5 52,96.1 		"/>
	</g>
	<g id="LWPOLYLINE_16_">
		<polygon fill="#AAAAAA" points="59.1,93.6 61.8,93.6 61.8,94.7 59.1,94.7 59.1,96.8 62.5,96.8 62.5,97.9 57.8,97.9 57.8,90.5 
			62.5,90.5 62.5,91.7 59.1,91.7 		"/>
	</g>
	<g id="LWPOLYLINE_17_">
		<polygon fill="#AAAAAA" points="81.8,79.8 81.8,85.7 108.3,85.7 108.3,76.8 93.1,76.8 107.4,52.2 107.4,46.3 82.7,46.3 82.7,55.2 
			96,55.2 		"/>
	</g>
	<g id="LWPOLYLINE_18_">
		<polygon fill="#AAAAAA" points="54.9,107.2 58.8,107.2 58.8,108.3 53.3,108.3 53.3,107.3 57.2,102.1 53.6,102.1 53.6,101 
			58.7,101 58.7,102.1 		"/>
	</g>
	<g id="LWPOLYLINE_19_">
		<rect x="73.3" y="90.5" fill="#AAAAAA" width="1.2" height="1.3"/>
	</g>
	<g id="LWPOLYLINE_20_">
		<rect x="73.3" y="92.5" fill="#AAAAAA" width="1.2" height="5.4"/>
	</g>
	<g id="LWPOLYLINE_21_">
		<rect x="86" y="90.5" fill="#AAAAAA" width="1.2" height="1.3"/>
	</g>
	<g id="LWPOLYLINE_22_">
		<rect x="86" y="92.5" fill="#AAAAAA" width="1.2" height="5.4"/>
	</g>
	<g id="LWPOLYLINE_23_">
		<polygon fill="#AAAAAA" points="75.8,55.2 75.8,46.3 53.2,46.3 53.2,85.7 75.8,85.7 75.8,76.8 62.1,76.8 62.1,70.2 73.9,70.2 
			73.9,61.8 62.1,61.8 62.1,55.2 		"/>
	</g>
	<g id="LWPOLYLINE_24_">
		<polygon fill="#AAAAAA" points="47.3,85.7 47.3,76.8 34.5,76.8 34.5,46.3 25.6,46.3 25.6,85.7 		"/>
	</g>
	<g>
		<path fill="#AAAAAA" d="M87.8,40.7l-0.1-0.8v-3.3v-0.7L87.6,35.2L87.2,34.6l-0.7-0.5L85.7,34h-0.9c-1.5-0.2-2.899,0.6-3.3,2.1
			l1.4,0.3c0.199-0.7,1-1.1,1.699-1h0.5l0.5,0.1l0.2,0.1l0.2,0.2l0.1,0.5v0.5H85.9H85.6L84.2,36.9l-1.4,0.3l-0.6,0.3L81.7,38
			l-0.3,0.6L81.3,39.3c0,1.2,1,2.2,2.2,2.2c0.1,0,0.1,0,0.2,0c1.1,0.1,2.1-0.6,2.399-1.6l0.101,0.7l0.2,0.8H88L87.8,40.7z
			 M86.1,38.4c0,0.1,0,0.1,0,0.2C86,39.5,85.2,40.3,84.2,40.2c0,0,0,0-0.101,0c-0.6,0.1-1.199-0.4-1.199-1l0.1-0.5l0.3-0.4l0.4-0.2
			L84.1,38l0.9-0.1h0.9v0.5H86.1z"/>
	</g>
	<g>
		<path fill="#AAAAAA" d="M64.5,105.6c0.1-1.399-0.9-2.699-2.3-2.8c-0.1,0-0.1,0-0.2,0c-1.4,0-2.6,1.2-2.6,2.601
			c0,0.1,0,0.1,0,0.199c-0.1,1.4,0.9,2.7,2.3,2.801h0.1c1.4,0,2.6-1.2,2.6-2.7C64.5,105.7,64.5,105.7,64.5,105.6z M63.2,106.2
			l-0.2,0.6l-0.2,0.3l-0.3,0.2l-0.6,0.101l-0.6-0.2l-0.4-0.4l-0.2-0.6l-0.1-0.601l0.1-0.6l0.2-0.6l0.2-0.301l0.2-0.199l0.6-0.101
			l0.6,0.101l0.2,0.199l0.2,0.301l0.2,0.6l0.1,0.6V106.2z"/>
	</g>
	<g>
		<path fill="#AAAAAA" d="M74.1,102.8c-0.1,0-0.199,0-0.199,0c-1.4,0-2.601,1.2-2.601,2.601c0,0.1,0,0.199,0,0.199
			c-0.1,1.4,0.9,2.601,2.3,2.801c0.101,0,0.2,0,0.301,0c1.1,0,2.1-0.7,2.399-1.7l-1.2-0.101c-0.199,0.5-0.699,0.9-1.199,0.801
			c-0.101,0-0.2,0-0.301,0c-0.699-0.2-1.199-0.9-1-1.601H76.4v-0.1C76.4,104.3,75.5,103,74.1,102.8z M72.5,105
			c0-0.7,0.6-1.3,1.3-1.3c0,0,0,0,0.101,0c0.699,0,1.199,0.6,1.199,1.3H72.5z"/>
	</g>
	<g id="LWPOLYLINE_30_">
		<path fill="#AAAAAA" d="M80.1,105.1L79,104.9l-0.5-0.101l-0.2-0.1l-0.1-0.101v-0.1v-0.1l0.1-0.101l0.101-0.1l0.1-0.101l0.6-0.1
			l0.5,0.1l0.2,0.2l0.101,0.3L81,104.4c-0.2-0.9-1.1-1.5-2.1-1.4c-1-0.1-1.9,0.6-2,1.6c0,0.101,0,0.101,0,0.2
			c0,0.9,0.699,1.601,1.6,1.601l1,0.199c0.3,0,0.5,0.2,0.6,0.5v0.2l-0.1,0.2l-0.1,0.1l-0.2,0.101l-0.7,0.1
			c-0.5,0.101-0.9-0.2-1.1-0.6l-1.2,0.2c0.3,1,1.3,1.6,2.3,1.399l0.7-0.1l0.7-0.2l0.5-0.3l0.3-0.5l0.1-0.601
			C81.4,105.9,80.9,105.2,80.1,105.1z"/>
	</g>
	<g>
		<path fill="#AAAAAA" d="M46.1,95.2c0.1-1.4-0.9-2.7-2.3-2.8c-0.1,0-0.1,0-0.2,0C42.2,92.4,41,93.6,41,95c0,0.1,0,0.1,0,0.2
			c0,1.399,1,2.7,2.4,2.8h0.1c1.4,0,2.6-1.2,2.6-2.7V95.2z M44.8,95.8L44.6,96.4l-0.2,0.3l-0.3,0.2L43.6,97L43,96.8L42.6,96.4
			L42.4,95.8l-0.1-0.6l0.1-0.601l0.2-0.6l0.2-0.3l0.2-0.2l0.6-0.1l0.6,0.1l0.2,0.2l0.2,0.3l0.2,0.6l0.1,0.601L44.8,95.8z"/>
	</g>
	<g>
		<path fill="#AAAAAA" d="M77.3,34c-0.1,0-0.2,0-0.3,0c-1.9,0-3.5,1.6-3.5,3.5c0,0.1,0,0.2,0,0.3c-0.2,1.9,1.2,3.5,3,3.7
			c0.1,0,0.2,0,0.3,0c1.5,0.1,2.8-0.9,3.2-2.3l-1.6-0.1c-0.2,0.7-0.9,1.1-1.601,1.1c-0.1,0-0.2,0-0.3,0c-1-0.2-1.6-1.2-1.4-2.2H80.2
			v-0.2C80.4,35.9,79.1,34.2,77.3,34z M75.2,36.9c0-1,0.8-1.8,1.7-1.8H77c0.9,0,1.6,0.8,1.6,1.8H75.2z"/>
	</g>
	<g id="LWPOLYLINE_34_">
		<path fill="#AAAAAA" d="M78.7,94.7L77.6,94.5l-0.5-0.1L76.9,94.3L76.8,94.2V94.1V94l0.101-0.1L77,93.8l0.1-0.1L77.7,93.6
			l0.5,0.101l0.2,0.2l0.1,0.3l1.1-0.2c-0.199-0.9-1.1-1.5-2.1-1.4c-1-0.1-1.9,0.601-2,1.601c0,0.1,0,0.1,0,0.2
			c0,0.899,0.7,1.6,1.6,1.6l1,0.2c0.301,0,0.5,0.2,0.601,0.5v0.2L78.6,97.1L78.5,97.2l-0.2,0.1L77.7,97c-0.5,0.1-0.9-0.2-1.101-0.6
			L75.4,96.6c0.3,1,1.3,1.601,2.3,1.4l0.7-0.1l0.699-0.2l0.5-0.3l0.301-0.5L80,96.3C80,95.5,79.4,94.8,78.7,94.7z"/>
	</g>
	<g id="LWPOLYLINE_35_">
		<path fill="#AAAAAA" d="M83.7,94.7L82.6,94.5l-0.5-0.1L81.9,94.3L81.8,94.2V94.1V94l0.101-0.1L82,93.8l0.1-0.1L82.7,93.6
			l0.5,0.101l0.2,0.2l0.1,0.3l1.1-0.2c-0.199-0.9-1.1-1.5-2.1-1.4c-1-0.1-1.9,0.601-2,1.601c0,0.1,0,0.1,0,0.2
			c0,0.899,0.7,1.6,1.6,1.6l1,0.2c0.301,0,0.5,0.2,0.601,0.5v0.2L83.6,97.1L83.5,97.2l-0.2,0.1L82.7,97c-0.5,0.1-0.9-0.2-1.101-0.6
			L80.4,96.6c0.3,1,1.3,1.601,2.3,1.4l0.7-0.1l0.699-0.2l0.5-0.3l0.301-0.5L85,96.3C85,95.5,84.5,94.8,83.7,94.7z"/>
	</g>
	<g>
		<path fill="#AAAAAA" d="M93.4,95.2c0.1-1.4-0.9-2.7-2.301-2.8c-0.1,0-0.1,0-0.199,0C89.5,92.4,88.3,93.6,88.3,95
			c0,0.1,0,0.1,0,0.2c-0.1,1.399,0.9,2.7,2.3,2.8H90.7c1.399,0,2.6-1.2,2.6-2.7C93.4,95.3,93.4,95.2,93.4,95.2z M92.1,95.8
			L91.9,96.4l-0.2,0.3l-0.3,0.2L90.9,97L90.3,96.8L89.9,96.4L89.7,95.8L89.6,95.2L89.7,94.6l0.2-0.6l0.199-0.3l0.2-0.2l0.601-0.1
			l0.6,0.1l0.2,0.2l0.2,0.3l0.199,0.6L92.2,95.2L92.1,95.8z"/>
	</g>
	<g>
		<path fill="#AAAAAA" d="M64.5,37.7c0.2-1.9-1.2-3.5-3.1-3.7c-0.1,0-0.1,0-0.2,0c-1.9,0-3.4,1.6-3.4,3.5c0,0.1,0,0.2,0,0.2
			c-0.2,1.9,1.2,3.6,3.1,3.8c0.1,0,0.1,0,0.2,0c1.9,0,3.5-1.6,3.4-3.5C64.5,37.9,64.5,37.8,64.5,37.7z M62.8,38.6l-0.3,0.8l-0.2,0.3
			L61.9,40l-0.4,0.1h-0.4h-0.4l-0.4-0.2L60,39.7l-0.2-0.3l-0.3-0.8l-0.1-0.8l0.1-0.8l0.3-0.8l0.2-0.3l0.3-0.3l0.4-0.1h0.4h0.4
			l0.4,0.1l0.3,0.3l0.2,0.3l0.3,0.8l0.1,0.8V38.6z"/>
	</g>
</g>
</svg>
