<svg version="1.1" id="Layer_1" xmlns="http://www.w3.org/2000/svg" xmlns:xlink="http://www.w3.org/1999/xlink" x="0px" y="0px"
	width="120" height="120"  viewBox="0 0 120 120" xml:space="preserve">
<g id="disabled"><path fill="#575757" d="M60,4.5C29.4,4.5,4.5,29.4,4.5,60s24.9,55.5,55.5,55.5s55.5-24.9,55.5-55.5S90.6,4.5,60,4.5z M60,102c-23.3,0-42-18.8-42-42s18.7-42,42-42s42,18.8,42,42S83.3,102,60,102z"/><circle fill="#FFFFFF" cx="60" cy="60" r="42"/><path d="M44.6,37.8l0.4-0.1l0.4-0.2l0.3-0.3l0.3-0.3l0.2-0.7l0.1-0.7v-2.9h1.4v6.2h-1.3v-1.4c-0.3,0.8-1,1.5-2,1.5c-0.1,0-0.2,0-0.3,0c-1-0.1-1.7-0.9-1.6-2v-4.4H44v3.9c-0.1,0.5,0.3,0.9,0.7,1C44.5,37.8,44.6,37.8,44.6,37.8z"/><path d="M63.5,96.2h-1v-2.8c0.1-0.5-0.3-0.8-0.7-0.9h-0.1c-0.7,0.1-1.1,0.7-1,1.4l0,0v2.4h-1v-4.6h0.9v1.1c0.2-0.7,0.7-1.1,1.5-1.2c0.1,0,0.2,0,0.3,0c0.8,0.2,1.4,0.9,1.3,1.7L63.5,96.2L63.5,96.2z"/><path d="M52.4,32.6V34l-0.6,0.1l-0.5,0.3l-0.5,0.5l-0.2,0.5l-0.1,0.7V39h-1.4v-6.2h1.3v1.5C50.6,33.6,51.4,32.8,52.4,32.6L52.4,32.6L52.4,32.6z"/><path d="M88.3,87.3h-1v-2.8c0.1-0.5-0.3-0.8-0.7-0.9h-0.1c-0.7,0.1-1.1,0.7-1,1.4l0,0v2.4h-1v-4.6h0.9v1.1c0.2-0.7,0.7-1.1,1.5-1.2c0.1,0,0.2,0,0.3,0c0.8,0.2,1.4,0.9,1.3,1.7L88.3,87.3L88.3,87.3z"/><path d="M65.4,34.9L65.1,34l-0.5-0.7l-0.7-0.5l-0.6-0.1c-0.8,0-1.6,0.5-1.9,1.3v-1.2H60v8.3h1.4v-3c0.4,0.7,1,1,1.7,1h0.5l0.5-0.2l0.5-0.4L65,38l0.5-1l0.1-1.1L65.4,34.9z M64,36.6l-0.2,0.6l-0.2,0.2l-0.3,0.3L63,37.8h-0.3c-0.7,0-1.4-0.6-1.4-1.4v-0.7c0,0,0,0,0-0.1c-0.1-0.8,0.6-1.5,1.4-1.6h0.4l0.4,0.2l0.3,0.3l0.2,0.3l0.2,0.6l0.1,0.7L64,36.6z"/><path d="M65,84v3.3h-1v-2.9c0.1-0.5-0.3-0.8-0.7-0.8c-0.1,0-0.1,0-0.2,0c-0.6,0-1.1,0.6-1.1,1.2v0.1v2.4h-1v-2.9c0.1-0.5-0.2-0.8-0.6-0.8c-0.1,0-0.1,0-0.2,0c-0.7,0-1.2,0.6-1.1,1.3c0,0,0,0,0,0.1v2.4h-1v-4.6h1v1c0.3-0.7,0.8-1.1,1.5-1.1s1.2,0.5,1.4,1.1c0.3-0.6,0.8-1,1.5-1.1h0.1C64.4,82.6,65,83.3,65,84z"/><polygon points="37.2,31.8 37.2,34 40.3,34 40.3,35.3 37.2,35.3 37.2,37.7 41,37.7 41,39 35.6,39 35.6,30.6 41,30.6 41,31.8"/><path d="M83.9,39v-3.8c0.1-0.6-0.3-1.1-0.8-1.2H83c-0.8,0.2-1.5,0.9-1.4,1.9l0,0V39h-1.4v-6.2h1.3v1.5c0.3-0.8,1-1.5,1.9-1.5c0.1,0,0.2,0,0.4,0c1.1,0.2,1.9,1.2,1.7,2.3v4L83.9,39L83.9,39z"/><polygon points="35.5,86.4 38.2,86.4 38.2,87.3 34.4,87.3 34.4,80.9 35.5,80.9"/><polygon points="49,82.6 49.8,82.6 48.5,87.3 47.5,87.3 46.7,84 45.9,87.3 44.9,87.3 43.5,82.6 44.5,82.6 45.5,85.8 46.4,82.6 47.3,82.6 48,85.7"/><polygon points="54.1,83.6 56.5,83.6 56.5,84.6 54.1,84.6 54.1,86.4 57,86.4 57,87.3 53,87.3 53,80.9 57,80.9 57,82 54.1,82"/><polygon points="73.5,71.8 73.5,76.8 96.2,76.8 96.2,69.3 83.2,69.3 95.4,48.2 95.4,43.2 74.3,43.2 74.3,50.7 85.6,50.7"/><polygon points="50.5,95.2 53.8,95.2 53.8,96.2 49.2,96.2 49.2,95.3 52.5,90.8 49.4,90.8 49.4,89.9 53.7,89.9 53.7,90.8"/><rect x="66.3" y="80.9" width="1" height="1.1"/><rect x="66.3" y="82.6" width="1" height="4.6"/><rect x="77.1" y="80.9" width="1" height="1.1"/><rect x="77.1" y="82.6" width="1" height="4.6"/><polygon points="68.4,50.7 68.4,43.2 49.1,43.2 49.1,76.8 68.4,76.8 68.4,69.3 56.6,69.3 56.6,63.6 66.7,63.6 66.7,56.5 56.6,56.5 56.6,50.7"/><polygon points="44,76.8 44,69.3 33.1,69.3 33.1,43.2 25.5,43.2 25.5,76.8"/><path d="M78.6,38.4l-0.1-0.7v-2.8v-0.6l-0.1-0.6L78,33.2l-0.6-0.5l-0.6,0.1h-0.7c-1.3-0.2-2.5,0.5-2.8,1.8l1.2,0.3c0.2-0.6,0.8-0.9,1.5-0.8h0.5l0.5,0.1v-0.1l0.2,0.2l0.1,0.5v0.5h-0.2h-0.3l-1.2,0.1l-1.3,0.1l-0.5,0.3l-0.4,0.3l-0.3,0.5v0.5c0,1,0.8,1.9,1.9,1.9c0.1,0,0.1,0,0.2,0c0.9,0.1,1.8-0.5,2.1-1.4l0.1,0.6l0.2,0.7H79L78.6,38.4z M77.2,36.5c0,0.1,0,0.1,0,0.2c-0.1,0.7-0.7,1.5-1.6,1.4c0,0,0,0-0.1,0c-0.5,0.1-1-0.4-1-0.8l0.1-0.5l0.3-0.4l0.4-0.2l0.4-0.1l0.7-0.1H77v0.5C77,36.5,77.2,36.5,77.2,36.5z"/><path d="M58.7,93.8c0.1-1.2-0.7-2.3-2-2.4c-0.1,0-0.1,0-0.2,0c-1.2,0-2.2,1-2.2,2.2c0,0.1,0,0.1,0,0.2c-0.1,1.2,0.7,2.3,2,2.4h0.1C57.6,96.3,58.6,95.2,58.7,93.8C58.7,93.9,58.7,93.9,58.7,93.8z M57.6,94.4l-0.2,0.5l-0.2,0.3L57,95.4l-0.5,0.1L56,95.3l-0.4-0.4l-0.1-0.5l-0.1-0.5l0.1-0.5l0.2-0.5l0.2-0.3l0.2-0.2l0.5-0.1l0.5,0.1l0.2,0.2l0.2,0.3l0.2,0.5l0.1,0.5L57.6,94.4L57.6,94.4z"/><path d="M66.9,91.5c-0.1,0-0.2,0-0.2,0c-1.2,0-2.2,1-2.2,2.2c0,0.1,0,0.2,0,0.2c-0.1,1.2,0.7,2.2,2,2.4c0.1,0,0.2,0,0.3,0c0.9,0,1.8-0.6,2.1-1.5l-1-0.1c-0.2,0.5-0.6,0.7-1,0.7c-0.1,0-0.2,0-0.3,0c-0.6-0.2-1-0.7-0.8-1.4h3.3v-0.1C68.9,92.7,68.1,91.6,66.9,91.5z M65.5,93.4c0-0.6,0.5-1.1,1.1-1.1c0,0,0,0,0.1,0c0.6,0,1,0.5,1,1.1H65.5z"/><path d="M72.1,93.5l-0.9-0.2l-0.5-0.1l-0.2-0.1L70.4,93v-0.1v-0.1l0.1-0.1l0.1-0.1l0.1-0.1l0.5-0.1l0.5,0.1l0.2,0.2L72,93l0.9-0.2c-0.2-0.7-0.9-1.3-1.8-1.2c-0.8-0.1-1.6,0.5-1.7,1.4c0,0.1,0,0.1,0,0.2c0,0.7,0.6,1.4,1.4,1.4l0.8,0.2c0.3,0,0.5,0.2,0.5,0.5v0.2L72,95.6l-0.1,0.1l-0.2,0.1l-0.6,0.1c-0.5,0.1-0.7-0.2-0.9-0.5l-1,0.2c0.3,0.8,1.1,1.4,2,1.2l0.6-0.1l0.6-0.2l0.5-0.3l0.3-0.5l0.1-0.5C73.2,94.1,72.7,93.5,72.1,93.5z"/><path d="M43,84.9c0.1-1.2-0.7-2.3-2-2.4c-0.1,0-0.1,0-0.2,0c-1.2,0-2.2,1-2.2,2.2c0,0.1,0,0.1,0,0.2c0,1.2,0.8,2.3,2.1,2.4h0.1C42,87.4,43,86.4,43,84.9L43,84.9z M41.9,85.5L41.7,86l-0.2,0.3l-0.3,0.2l-0.5,0.1l-0.5-0.2L40,86l-0.2-0.5L39.7,85l0.1-0.5L40,84l0.2-0.3l0.2-0.2l0.5-0.1l0.5,0.1l0.2,0.2l0.2,0.3l0.2,0.5l0.1,0.5L41.9,85.5z"/><path d="M69.6,32.6c-0.1,0-0.2,0-0.3,0c-1.6,0-3,1.4-3,3c0,0.1,0,0.2,0,0.3c-0.2,1.6,1,3,2.5,3.2c0.1,0,0.2,0,0.3,0c1.3,0.1,2.4-0.7,2.7-2L70.4,37c-0.2,0.6-0.7,0.9-1.4,0.9c-0.1,0-0.2,0-0.3,0c-0.8-0.2-1.4-1-1.2-1.9h4.4v-0.2C72.3,34.3,71.2,32.8,69.6,32.6z M67.8,35.1c0-0.8,0.7-1.5,1.5-1.5h0.1c0.7,0,1.4,0.7,1.4,1.5H67.8z"/><path d="M70.8,84.6l-0.9-0.2l-0.5-0.1l-0.2-0.1l0-0.1V84v-0.1l0.1-0.1l0.1-0.1l0.1-0.1l0.5-0.1l0.5,0.1l0.2,0.2l0.1,0.3l0.9-0.2c-0.2-0.7-0.9-1.3-1.8-1.2c-0.8-0.1-1.6,0.5-1.7,1.4c0,0.1,0,0.1,0,0.2c0,0.7,0.6,1.4,1.4,1.4l0.8,0.2c0.3,0,0.5,0.2,0.5,0.5v0.2l-0.1,0.2l-0.1,0.1L70.5,87L70,86.5c-0.5,0.1-0.7-0.2-0.9-0.5l-1,0.2c0.3,0.8,1.1,1.4,2,1.2l0.6-0.1l0.6-0.2l0.5-0.3l0.3-0.5l0.1-0.5C72,85.2,71.5,84.6,70.8,84.6z"/><path d="M75.1,84.6l-0.9-0.2l-0.5-0.1l-0.2-0.1v-0.1V84v-0.1l0.1-0.1l0.1-0.1l0.1-0.1l0.5-0.1l0.5,0.1l0.2,0.2l0,0.3l0.9-0.2c-0.2-0.7-0.9-1.3-1.8-1.2c-0.8-0.1-1.6,0.5-1.7,1.4c0,0.1,0,0.1,0,0.2c0,0.7,0.6,1.4,1.4,1.4l0.8,0.2c0.3,0,0.5,0.2,0.5,0.5v0.2H75l-0.1,0.1l-0.2,0.1l-0.5-0.3c-0.5,0.1-0.7-0.2-0.9-0.5l-1,0.2c0.3,0.8,1.1,1.4,2,1.2l0.6-0.1l0.6-0.2l0.5-0.3l0.3-0.5l0.1-0.5C76.3,85.2,75.8,84.6,75.1,84.6z"/><path d="M83.5,84.9c0.1-1.2-0.7-2.3-2-2.4c-0.1,0-0.1,0-0.2,0c-1.2,0-2.2,1-2.2,2.2c0,0.1,0,0.1,0,0.2c-0.1,1.2,0.7,2.3,2,2.4h0.1C82.3,87.4,83.4,86.4,83.5,84.9C83.5,85,83.5,84.9,83.5,84.9z M82.3,85.5L82.1,86L82,86.3l-0.3,0.2l-0.5,0.1l-0.5-0.2L80.3,86l-0.2-0.5L80,85l0.1-0.5l0.2-0.5l0.2-0.3l0.2-0.2l0.5-0.1l0.5,0.3l0.2,0.2l0.2,0.3l0.2,0.5l0.1,0.5L82.3,85.5z"/><path d="M58.7,35.8c0.2-1.6-1-3-2.6-3.2c-0.1,0-0.1,0-0.2,0c-1.6,0-2.9,1.4-2.9,3c0,0.1,0,0.2,0,0.2c-0.2,1.6,1,3.1,2.6,3.3c0.1,0,0.1,0,0.2,0c1.6,0,3-1.4,2.9-3C58.7,36,58.7,35.9,58.7,35.8z M57.3,36.6L57,37.3l-0.2,0.3l-0.4,0.3L56,38h-0.4h-0.3l-0.4-0.2l-0.3-0.2l-0.2-0.3l-0.3-0.7L54,35.9l0.1-0.7l0.3-0.7l0.2-0.3l0.3-0.3l0.4-0.1h0.4h0.4l0.4,0.1l0.3,0.3l0.2,0.3l0.3,0.7l0.1,0.7L57.3,36.6z"/><ellipse opacity="0.4" fill="#FFFFFF" enable-background="new    " cx="60" cy="22" rx="31.5" ry="16"/></g><g id="normal"><path fill="#D9241B" d="M60,4.5C29.4,4.5,4.5,29.4,4.5,60s24.9,55.5,55.5,55.5s55.5-24.9,55.5-55.5S90.6,4.5,60,4.5z M60,102c-23.3,0-42-18.8-42-42s18.7-42,42-42s42,18.8,42,42S83.3,102,60,102z"/><circle fill="#FFFFFF" cx="60" cy="60" r="42"/><path d="M44.6,37.8l0.4-0.1l0.4-0.2l0.3-0.3l0.3-0.3l0.2-0.7l0.1-0.7v-2.9h1.4v6.2h-1.3v-1.4c-0.3,0.8-1,1.5-2,1.5c-0.1,0-0.2,0-0.3,0c-1-0.1-1.7-0.9-1.6-2v-4.4H44v3.9c-0.1,0.5,0.3,0.9,0.7,1C44.5,37.8,44.6,37.8,44.6,37.8z"/><path d="M63.5,96.2h-1v-2.8c0.1-0.5-0.3-0.8-0.7-0.9h-0.1c-0.7,0.1-1.1,0.7-1,1.4l0,0v2.4h-1v-4.6h0.9v1.1c0.2-0.7,0.7-1.1,1.5-1.2c0.1,0,0.2,0,0.3,0c0.8,0.2,1.4,0.9,1.3,1.7L63.5,96.2L63.5,96.2z"/><path d="M52.4,32.6V34l-0.6,0.1l-0.5,0.3l-0.5,0.5l-0.2,0.5l-0.1,0.7V39h-1.4v-6.2h1.3v1.5C50.6,33.6,51.4,32.8,52.4,32.6L52.4,32.6L52.4,32.6z"/><path d="M88.3,87.3h-1v-2.8c0.1-0.5-0.3-0.8-0.7-0.9h-0.1c-0.7,0.1-1.1,0.7-1,1.4l0,0v2.4h-1v-4.6h0.9v1.1c0.2-0.7,0.7-1.1,1.5-1.2c0.1,0,0.2,0,0.3,0c0.8,0.2,1.4,0.9,1.3,1.7L88.3,87.3L88.3,87.3z"/><path d="M65.4,34.9L65.1,34l-0.5-0.7l-0.7-0.5l-0.6-0.1c-0.8,0-1.6,0.5-1.9,1.3v-1.2H60v8.3h1.4v-3c0.4,0.7,1,1,1.7,1h0.5l0.5-0.2l0.5-0.4L65,38l0.5-1l0.1-1.1L65.4,34.9z M64,36.6l-0.2,0.6l-0.2,0.2l-0.3,0.3L63,37.8h-0.3c-0.7,0-1.4-0.6-1.4-1.4v-0.7c0,0,0,0,0-0.1c-0.1-0.8,0.6-1.5,1.4-1.6h0.4l0.4,0.2l0.3,0.3l0.2,0.3l0.2,0.6l0.1,0.7L64,36.6z"/><path d="M65,84v3.3h-1v-2.9c0.1-0.5-0.3-0.8-0.7-0.8c-0.1,0-0.1,0-0.2,0c-0.6,0-1.1,0.6-1.1,1.2v0.1v2.4h-1v-2.9c0.1-0.5-0.2-0.8-0.6-0.8c-0.1,0-0.1,0-0.2,0c-0.7,0-1.2,0.6-1.1,1.3c0,0,0,0,0,0.1v2.4h-1v-4.6h1v1c0.3-0.7,0.8-1.1,1.5-1.1s1.2,0.5,1.4,1.1c0.3-0.6,0.8-1,1.5-1.1h0.1C64.4,82.6,65,83.3,65,84z"/><polygon points="37.2,31.8 37.2,34 40.3,34 40.3,35.3 37.2,35.3 37.2,37.7 41,37.7 41,39 35.6,39 35.6,30.6 41,30.6 41,31.8"/><path d="M83.9,39v-3.8c0.1-0.6-0.3-1.1-0.8-1.2H83c-0.8,0.2-1.5,0.9-1.4,1.9l0,0V39h-1.4v-6.2h1.3v1.5c0.3-0.8,1-1.5,1.9-1.5c0.1,0,0.2,0,0.4,0c1.1,0.2,1.9,1.2,1.7,2.3v4L83.9,39L83.9,39z"/><polygon points="35.5,86.4 38.2,86.4 38.2,87.3 34.4,87.3 34.4,80.9 35.5,80.9"/><polygon points="49,82.6 49.8,82.6 48.5,87.3 47.5,87.3 46.7,84 45.9,87.3 44.9,87.3 43.5,82.6 44.5,82.6 45.5,85.8 46.4,82.6 47.3,82.6 48,85.7"/><polygon points="54.1,83.6 56.5,83.6 56.5,84.6 54.1,84.6 54.1,86.4 57,86.4 57,87.3 53,87.3 53,80.9 57,80.9 57,82 54.1,82"/><polygon points="73.5,71.8 73.5,76.8 96.2,76.8 96.2,69.3 83.2,69.3 95.4,48.2 95.4,43.2 74.3,43.2 74.3,50.7 85.6,50.7"/><polygon points="50.5,95.2 53.8,95.2 53.8,96.2 49.2,96.2 49.2,95.3 52.5,90.8 49.4,90.8 49.4,89.9 53.7,89.9 53.7,90.8"/><rect x="66.3" y="80.9" width="1" height="1.1"/><rect x="66.3" y="82.6" width="1" height="4.6"/><rect x="77.1" y="80.9" width="1" height="1.1"/><rect x="77.1" y="82.6" width="1" height="4.6"/><polygon points="68.4,50.7 68.4,43.2 49.1,43.2 49.1,76.8 68.4,76.8 68.4,69.3 56.6,69.3 56.6,63.6 66.7,63.6 66.7,56.5 56.6,56.5 56.6,50.7"/><polygon points="44,76.8 44,69.3 33.1,69.3 33.1,43.2 25.5,43.2 25.5,76.8"/><path d="M78.6,38.4l-0.1-0.7v-2.8v-0.6l-0.1-0.6L78,33.2l-0.6-0.5l-0.6,0.1h-0.7c-1.3-0.2-2.5,0.5-2.8,1.8l1.2,0.3c0.2-0.6,0.8-0.9,1.5-0.8h0.5l0.5,0.1v-0.1l0.2,0.2l0.1,0.5v0.5h-0.2h-0.3l-1.2,0.1l-1.3,0.1l-0.5,0.3l-0.4,0.3l-0.3,0.5v0.5c0,1,0.8,1.9,1.9,1.9c0.1,0,0.1,0,0.2,0c0.9,0.1,1.8-0.5,2.1-1.4l0.1,0.6l0.2,0.7H79L78.6,38.4z M77.2,36.5c0,0.1,0,0.1,0,0.2c-0.1,0.7-0.7,1.5-1.6,1.4c0,0,0,0-0.1,0c-0.5,0.1-1-0.4-1-0.8l0.1-0.5l0.3-0.4l0.4-0.2l0.4-0.1l0.7-0.1H77v0.5C77,36.5,77.2,36.5,77.2,36.5z"/><path d="M58.7,93.8c0.1-1.2-0.7-2.3-2-2.4c-0.1,0-0.1,0-0.2,0c-1.2,0-2.2,1-2.2,2.2c0,0.1,0,0.1,0,0.2c-0.1,1.2,0.7,2.3,2,2.4h0.1C57.6,96.3,58.6,95.2,58.7,93.8C58.7,93.9,58.7,93.9,58.7,93.8z M57.6,94.4l-0.2,0.5l-0.2,0.3L57,95.4l-0.5,0.1L56,95.3l-0.4-0.4l-0.1-0.5l-0.1-0.5l0.1-0.5l0.2-0.5l0.2-0.3l0.2-0.2l0.5-0.1l0.5,0.1l0.2,0.2l0.2,0.3l0.2,0.5l0.1,0.5L57.6,94.4L57.6,94.4z"/><path d="M66.9,91.5c-0.1,0-0.2,0-0.2,0c-1.2,0-2.2,1-2.2,2.2c0,0.1,0,0.2,0,0.2c-0.1,1.2,0.7,2.2,2,2.4c0.1,0,0.2,0,0.3,0c0.9,0,1.8-0.6,2.1-1.5l-1-0.1c-0.2,0.5-0.6,0.7-1,0.7c-0.1,0-0.2,0-0.3,0c-0.6-0.2-1-0.7-0.8-1.4h3.3v-0.1C68.9,92.7,68.1,91.6,66.9,91.5z M65.5,93.4c0-0.6,0.5-1.1,1.1-1.1c0,0,0,0,0.1,0c0.6,0,1,0.5,1,1.1H65.5z"/><path d="M72.1,93.5l-0.9-0.2l-0.5-0.1l-0.2-0.1L70.4,93v-0.1v-0.1l0.1-0.1l0.1-0.1l0.1-0.1l0.5-0.1l0.5,0.1l0.2,0.2L72,93l0.9-0.2c-0.2-0.7-0.9-1.3-1.8-1.2c-0.8-0.1-1.6,0.5-1.7,1.4c0,0.1,0,0.1,0,0.2c0,0.7,0.6,1.4,1.4,1.4l0.8,0.2c0.3,0,0.5,0.2,0.5,0.5v0.2L72,95.6l-0.1,0.1l-0.2,0.1l-0.6,0.1c-0.5,0.1-0.7-0.2-0.9-0.5l-1,0.2c0.3,0.8,1.1,1.4,2,1.2l0.6-0.1l0.6-0.2l0.5-0.3l0.3-0.5l0.1-0.5C73.2,94.1,72.7,93.5,72.1,93.5z"/><path d="M43,84.9c0.1-1.2-0.7-2.3-2-2.4c-0.1,0-0.1,0-0.2,0c-1.2,0-2.2,1-2.2,2.2c0,0.1,0,0.1,0,0.2c0,1.2,0.8,2.3,2.1,2.4h0.1C42,87.4,43,86.4,43,84.9L43,84.9z M41.9,85.5L41.7,86l-0.2,0.3l-0.3,0.2l-0.5,0.1l-0.5-0.2L40,86l-0.2-0.5L39.7,85l0.1-0.5L40,84l0.2-0.3l0.2-0.2l0.5-0.1l0.5,0.1l0.2,0.2l0.2,0.3l0.2,0.5l0.1,0.5L41.9,85.5z"/><path d="M69.6,32.6c-0.1,0-0.2,0-0.3,0c-1.6,0-3,1.4-3,3c0,0.1,0,0.2,0,0.3c-0.2,1.6,1,3,2.5,3.2c0.1,0,0.2,0,0.3,0c1.3,0.1,2.4-0.7,2.7-2L70.4,37c-0.2,0.6-0.7,0.9-1.4,0.9c-0.1,0-0.2,0-0.3,0c-0.8-0.2-1.4-1-1.2-1.9h4.4v-0.2C72.3,34.3,71.2,32.8,69.6,32.6z M67.8,35.1c0-0.8,0.7-1.5,1.5-1.5h0.1c0.7,0,1.4,0.7,1.4,1.5H67.8z"/><path d="M70.8,84.6l-0.9-0.2l-0.5-0.1l-0.2-0.1l0-0.1V84v-0.1l0.1-0.1l0.1-0.1l0.1-0.1l0.5-0.1l0.5,0.1l0.2,0.2l0.1,0.3l0.9-0.2c-0.2-0.7-0.9-1.3-1.8-1.2c-0.8-0.1-1.6,0.5-1.7,1.4c0,0.1,0,0.1,0,0.2c0,0.7,0.6,1.4,1.4,1.4l0.8,0.2c0.3,0,0.5,0.2,0.5,0.5v0.2l-0.1,0.2l-0.1,0.1L70.5,87L70,86.5c-0.5,0.1-0.7-0.2-0.9-0.5l-1,0.2c0.3,0.8,1.1,1.4,2,1.2l0.6-0.1l0.6-0.2l0.5-0.3l0.3-0.5l0.1-0.5C72,85.2,71.5,84.6,70.8,84.6z"/><path d="M75.1,84.6l-0.9-0.2l-0.5-0.1l-0.2-0.1v-0.1V84v-0.1l0.1-0.1l0.1-0.1l0.1-0.1l0.5-0.1l0.5,0.1l0.2,0.2l0,0.3l0.9-0.2c-0.2-0.7-0.9-1.3-1.8-1.2c-0.8-0.1-1.6,0.5-1.7,1.4c0,0.1,0,0.1,0,0.2c0,0.7,0.6,1.4,1.4,1.4l0.8,0.2c0.3,0,0.5,0.2,0.5,0.5v0.2H75l-0.1,0.1l-0.2,0.1l-0.5-0.3c-0.5,0.1-0.7-0.2-0.9-0.5l-1,0.2c0.3,0.8,1.1,1.4,2,1.2l0.6-0.1l0.6-0.2l0.5-0.3l0.3-0.5l0.1-0.5C76.3,85.2,75.8,84.6,75.1,84.6z"/><path d="M83.5,84.9c0.1-1.2-0.7-2.3-2-2.4c-0.1,0-0.1,0-0.2,0c-1.2,0-2.2,1-2.2,2.2c0,0.1,0,0.1,0,0.2c-0.1,1.2,0.7,2.3,2,2.4h0.1C82.3,87.4,83.4,86.4,83.5,84.9C83.5,85,83.5,84.9,83.5,84.9z M82.3,85.5L82.1,86L82,86.3l-0.3,0.2l-0.5,0.1l-0.5-0.2L80.3,86l-0.2-0.5L80,85l0.1-0.5l0.2-0.5l0.2-0.3l0.2-0.2l0.5-0.1l0.5,0.3l0.2,0.2l0.2,0.3l0.2,0.5l0.1,0.5L82.3,85.5z"/><path d="M58.7,35.8c0.2-1.6-1-3-2.6-3.2c-0.1,0-0.1,0-0.2,0c-1.6,0-2.9,1.4-2.9,3c0,0.1,0,0.2,0,0.2c-0.2,1.6,1,3.1,2.6,3.3c0.1,0,0.1,0,0.2,0c1.6,0,3-1.4,2.9-3C58.7,36,58.7,35.9,58.7,35.8z M57.3,36.6L57,37.3l-0.2,0.3l-0.4,0.3L56,38h-0.4h-0.3l-0.4-0.2l-0.3-0.2l-0.2-0.3l-0.3-0.7L54,35.9l0.1-0.7l0.3-0.7l0.2-0.3l0.3-0.3l0.4-0.1h0.4h0.4l0.4,0.1l0.3,0.3l0.2,0.3l0.3,0.7l0.1,0.7L57.3,36.6z"/><ellipse opacity="0.4" fill="#FFFFFF" enable-background="new    " cx="60" cy="22" rx="31.5" ry="16"/></g></svg>