<svg version="1.1" id="Layer_1" xmlns="http://www.w3.org/2000/svg" xmlns:xlink="http://www.w3.org/1999/xlink" x="0px" y="0px"
	width="120" height="120"  viewBox="0 0 120 120" xml:space="preserve">
<g id="disabled"><path fill="#FEFEFE" d="M105.2,4.8H14.8c-5.5,0-10.1,4.5-10.1,10v90.5c0,5.5,4.5,10,10,10h90.5c5.5,0,10-4.5,10-10V14.9C115.4,9.3,110.8,4.8,105.2,4.8z"/><path fill="#575757" d="M103.5,6.9h-87c-5.4,0-9.7,4.4-9.7,9.7v86.8c0,5.4,4.4,9.7,9.7,9.7h86.8c5.4,0,9.7-4.4,9.7-9.7V16.6C113.1,11.4,108.7,6.9,103.5,6.9z"/><path fill="#FFFFFF" d="M100.8,10.1H19.2c-5,0-9.1,4.1-9.1,9.1v81.7c0,5,4.1,9.1,9.1,9.1h81.7c5,0,9.1-4.1,9.1-9.1V19.3C109.9,14.3,105.8,10.1,100.8,10.1z"/><path fill="#575757" d="M60,46.2c-14.5,0-26.4,11.8-26.4,26.4S45.5,98.8,60,98.8S86.4,87,86.4,72.4S74.5,46.2,60,46.2z M60,91.9c-10.7,0-19.5-8.7-19.5-19.5S49.3,53,60,53s19.5,8.7,19.5,19.5S70.7,91.9,60,91.9z"/><path d="M45.1,24v-1.4l2.5-2.8c0.4-0.5,0.7-0.8,0.9-1c-0.2,0-0.5,0-0.8,0h-2.4v-1.5h5.5v1.3l-2.5,2.9l-0.9,1c0.5,0,0.8,0,0.9,0H51V24L45.1,24L45.1,24z"/><path d="M51.8,20.6c0-0.5,0.2-1.2,0.5-1.7s0.7-1,1.2-1.3c0.5-0.3,1.1-0.5,1.7-0.5c1,0,1.8,0.4,2.5,1c0.6,0.6,1,1.5,1,2.5s-0.4,1.8-1,2.5s-1.5,1-2.5,1c-0.6,0-1.2-0.2-1.7-0.5s-1-0.6-1.3-1.2C51.9,21.9,51.8,21.4,51.8,20.6z M53.5,20.8c0,0.6,0.2,1.2,0.5,1.5c0.3,0.4,0.7,0.5,1.2,0.5s0.8-0.2,1.2-0.5c0.4-0.4,0.5-0.8,0.5-1.5c0-0.6-0.2-1.2-0.5-1.5s-0.8-0.5-1.2-0.5c-0.5,0-0.8,0.2-1.2,0.5C53.6,19.6,53.5,20,53.5,20.8z"/><path d="M66,24h-1.7v-3.4c0-0.7,0-1.2-0.1-1.4c-0.1-0.2-0.2-0.4-0.4-0.5c-0.2-0.1-0.4-0.2-0.6-0.2c-0.3,0-0.5,0.1-0.8,0.3c-0.3,0.2-0.4,0.4-0.5,0.6c-0.1,0.3-0.1,0.8-0.1,1.5v3h-1.7v-6.6h1.6v1c0.5-0.7,1.3-1.1,2.2-1.1c0.4,0,0.7,0.1,1.1,0.2c0.4,0.2,0.5,0.3,0.7,0.5c0.2,0.2,0.3,0.5,0.4,0.7c0.1,0.3,0.1,0.6,0.1,1.2v4H66V24z"/><path d="M69,19.5l-1.5-0.3c0.2-0.6,0.5-1.1,0.9-1.5s1.1-0.5,1.9-0.5s1.4,0.1,1.7,0.3c0.4,0.2,0.6,0.5,0.8,0.7c0.2,0.3,0.3,0.8,0.3,1.5v2c0,0.5,0,1,0.1,1.3s0.2,0.5,0.3,0.9h-1.7c-0.1-0.1-0.1-0.3-0.2-0.5c0-0.1-0.1-0.2-0.1-0.2c-0.3,0.3-0.6,0.5-1,0.6C70.1,24,69.8,24,69.4,24c-0.6,0-1.2-0.2-1.6-0.5c-0.5-0.4-0.5-0.7-0.5-1.3c0-0.4,0.1-0.7,0.3-1c0.2-0.3,0.5-0.5,0.7-0.6c0.4-0.2,0.8-0.3,1.4-0.4c0.8-0.2,1.4-0.3,1.7-0.5v-0.2c0-0.4-0.1-0.5-0.3-0.7c-0.2,0-0.5,0-0.9,0c-0.3,0-0.5,0.1-0.7,0.2S69.2,19.1,69,19.5z M71.4,20.9c-0.2,0.1-0.5,0.2-1.1,0.3c-0.5,0.1-0.8,0.2-0.9,0.3C69.1,21.6,69,21.8,69,22s0.1,0.5,0.3,0.6c0.2,0.2,0.5,0.3,0.7,0.3c0.3,0,0.6-0.1,0.9-0.3c0.2-0.2,0.4-0.4,0.5-0.5c0-0.2,0.1-0.5,0.1-0.8L71.4,20.9L71.4,20.9z"/><path d="M18.6,32.5v1.3h-1.2v2.6c0,0.5,0,0.8,0,0.9s0.1,0.2,0.2,0.2s0.2,0.1,0.3,0.1c0.2,0,0.4-0.1,0.7-0.2l0.2,1.4C18.4,39,17.9,39,17.4,39c-0.3,0-0.6-0.1-0.8-0.2c-0.2-0.1-0.5-0.3-0.5-0.5c-0.1-0.2-0.2-0.4-0.3-0.6c0-0.2-0.1-0.6-0.1-1.3v-2.9h-0.8v-1.4h0.8v-1.3l1.7-1v2.4L18.6,32.5L18.6,32.5z"/><path d="M21.5,39h-1.7v-6.6h1.6v0.9c0.3-0.5,0.5-0.7,0.7-0.9c0.2-0.2,0.5-0.2,0.7-0.2c0.4,0,0.8,0.1,1.2,0.4l-0.5,1.5c-0.3-0.2-0.5-0.3-0.8-0.3s-0.5,0.1-0.6,0.2c-0.2,0.1-0.3,0.4-0.4,0.7c-0.1,0.4-0.2,1.1-0.2,2.2C21.5,37,21.5,39,21.5,39z"/><path d="M26.1,34.5l-1.5-0.3c0.2-0.6,0.5-1.1,0.9-1.5s1.1-0.5,1.9-0.5s1.4,0.1,1.7,0.3c0.4,0.2,0.6,0.5,0.8,0.7c0.2,0.3,0.3,0.8,0.3,1.5v2c0,0.5,0,1,0.1,1.3s0.2,0.5,0.3,0.9h-1.7c-0.1-0.1-0.1-0.3-0.2-0.5c0-0.1-0.1-0.2-0.1-0.2c-0.3,0.3-0.6,0.5-1,0.6S27,39,26.6,39c-0.6,0-1.2-0.2-1.6-0.5c-0.5-0.4-0.5-0.8-0.5-1.4c0-0.4,0.1-0.7,0.3-1c0.2-0.3,0.5-0.5,0.7-0.6c0.3-0.1,0.8-0.3,1.4-0.4c0.8-0.2,1.4-0.3,1.7-0.5v-0.2c0-0.4-0.1-0.5-0.3-0.7c-0.3,0-0.6,0-1,0c-0.3,0-0.5,0.1-0.7,0.2C26.4,34,26.2,34.2,26.1,34.5z M28.5,35.8c-0.2,0.1-0.5,0.2-1.1,0.3c-0.5,0.1-0.8,0.2-0.9,0.3c-0.3,0.2-0.4,0.4-0.4,0.6s0.1,0.5,0.3,0.6c0.2,0.2,0.5,0.3,0.7,0.3c0.3,0,0.6-0.1,0.9-0.3c0.2-0.2,0.4-0.4,0.5-0.5c0.1-0.2,0.1-0.5,0.1-0.8L28.5,35.8L28.5,35.8z"/><path d="M31.1,32.5h1V32c0-0.5,0.1-1,0.2-1.3c0.1-0.3,0.4-0.5,0.6-0.6c0.3-0.2,0.7-0.3,1.2-0.3s1,0.1,1.5,0.2l-0.3,1.2c-0.3-0.1-0.5-0.1-0.8-0.1S34,31.2,34,31.3c-0.1,0.1-0.2,0.4-0.2,0.6v0.5H35v1.4h-1.3V39H32v-5.2h-1L31.1,32.5L31.1,32.5z"/><path d="M35.4,32.5h1V32c0-0.5,0.1-1,0.2-1.3c0.1-0.3,0.4-0.5,0.6-0.6c0.3-0.2,0.7-0.3,1.2-0.3s1,0.1,1.5,0.2l-0.3,1.2c-0.3-0.1-0.5-0.1-0.8-0.1s-0.5,0.1-0.5,0.2c-0.1,0.1-0.2,0.4-0.2,0.6v0.5h1.3v1.4H38V39h-1.7v-5.2h-1L35.4,32.5L35.4,32.5z"/><path d="M40.4,31.5v-1.6h1.7v1.6H40.4z M40.4,39v-6.6h1.7V39H40.4z"/><path d="M49.6,34.5l-1.7,0.3c-0.1-0.4-0.2-0.6-0.4-0.8c-0.1-0.2-0.5-0.2-0.8-0.2c-0.5,0-0.8,0.2-1,0.5s-0.4,0.8-0.4,1.5c0,0.8,0.1,1.4,0.4,1.6c0.3,0.3,0.6,0.5,1.1,0.5c0.4,0,0.6-0.1,0.8-0.3s0.4-0.5,0.5-1l1.7,0.3c-0.2,0.8-0.5,1.4-1,1.8c-0.5,0.5-1.4,0.5-2.2,0.5c-1,0-1.7-0.3-2.3-0.9c-0.5-0.6-0.8-1.5-0.8-2.5c0-1.1,0.3-1.9,0.9-2.5s1.4-0.9,2.4-0.9c0.8,0,1.5,0.2,1.9,0.5C49.2,33.2,49.5,33.8,49.6,34.5z"/><path d="M50.5,35.7c0-0.5,0.2-1.2,0.5-1.7s0.7-1,1.2-1.3s1.1-0.5,1.7-0.5c1,0,1.8,0.4,2.5,1c0.6,0.6,1,1.5,1,2.5s-0.4,1.8-1,2.5s-1.5,1.1-2.5,1.1c-0.6,0-1.2-0.2-1.7-0.5s-1-0.6-1.3-1.2C50.6,37,50.5,36.5,50.5,35.7z M52.4,35.8c0,0.6,0.2,1.2,0.5,1.5c0.3,0.4,0.7,0.5,1.2,0.5s0.8-0.2,1.2-0.5c0.4-0.4,0.5-0.8,0.5-1.5c0-0.6-0.2-1.2-0.5-1.5s-0.8-0.6-1.3-0.6s-0.8,0.2-1.2,0.5C52.4,34.7,52.4,35,52.4,35.8z"/><path d="M62.3,39v-9.1H64V39H62.3z"/><path d="M65.8,31.5v-1.6h1.7v1.6H65.8z M65.8,39v-6.6h1.7V39H65.8z"/><path d="M69.2,32.5h1.6v0.9c0.5-0.7,1.3-1.1,2.1-1.1c0.5,0,0.8,0.1,1.1,0.3c0.3,0.2,0.5,0.5,0.7,0.8c0.3-0.4,0.6-0.6,0.9-0.8s0.7-0.3,1.1-0.3c0.5,0,0.9,0.1,1.3,0.3s0.5,0.5,0.7,0.9c0.1,0.3,0.2,0.7,0.2,1.4V39h-1.7v-3.7c0-0.6-0.1-1.1-0.2-1.3c-0.2-0.3-0.5-0.4-0.7-0.4c-0.3,0-0.5,0.1-0.7,0.2c-0.3,0.1-0.4,0.4-0.5,0.6c-0.1,0.3-0.2,0.7-0.2,1.3V39h-1.7v-3.6c0-0.6,0-1.1-0.1-1.3c-0.1-0.2-0.2-0.4-0.3-0.5c-0.1-0.1-0.3-0.2-0.5-0.2s-0.5,0.1-0.7,0.2s-0.4,0.4-0.5,0.6c-0.1,0.3-0.2,0.7-0.2,1.4v3.2h-1.7L69.2,32.5L69.2,32.5z"/><path d="M80.6,31.5v-1.6h1.7v1.6H80.6z M80.6,39v-6.6h1.7V39H80.6z"/><path d="M87.2,32.5v1.3H86v2.6c0,0.5,0,0.8,0,0.9s0.1,0.2,0.2,0.2c0.1,0.1,0.2,0.1,0.3,0.1c0.2,0,0.4-0.1,0.7-0.2l0.2,1.4C87,39,86.5,39,86,39c-0.3,0-0.6-0.1-0.8-0.2c-0.2-0.1-0.5-0.3-0.5-0.5c-0.1-0.2-0.2-0.4-0.3-0.6c0-0.2-0.1-0.6-0.1-1.3v-2.9h-0.8v-1.4h0.8v-1.3l1.7-1v2.4L87.2,32.5L87.2,32.5z"/><path d="M89.7,34.5l-1.5-0.3c0.2-0.6,0.5-1.1,0.9-1.5s1.1-0.5,1.9-0.5s1.4,0.1,1.7,0.3c0.4,0.2,0.6,0.5,0.8,0.7c0.2,0.3,0.3,0.8,0.3,1.5v2c0,0.5,0,1,0.1,1.3s0.2,0.5,0.3,0.9h-1.7c0-0.1-0.1-0.3-0.2-0.5c0-0.1-0.1-0.2-0.1-0.2c-0.3,0.3-0.6,0.5-1,0.6s-0.6,0.3-1,0.3c-0.6,0-1.2-0.2-1.6-0.5c-0.4-0.3-0.6-0.8-0.6-1.3c0-0.4,0.1-0.7,0.3-1c0.2-0.3,0.5-0.5,0.7-0.6c0.4-0.2,0.8-0.3,1.4-0.4c0.8-0.2,1.4-0.3,1.7-0.5v-0.2c0-0.4-0.1-0.5-0.3-0.7c-0.2-0.1-0.4-0.1-0.9-0.1c-0.3,0-0.5,0.1-0.7,0.2C90,34,89.8,34.2,89.7,34.5z M92.1,35.8c-0.2,0.1-0.5,0.2-1.1,0.3c-0.5,0.1-0.8,0.2-0.9,0.3c-0.3,0.2-0.4,0.4-0.4,0.6s0.1,0.5,0.3,0.6c0.2,0.2,0.5,0.3,0.7,0.3s0.6-0.1,0.9-0.3c0.2-0.2,0.4-0.4,0.5-0.5c0-0.2,0.1-0.5,0.1-0.8L92.1,35.8L92.1,35.8z"/><path d="M98.5,32.5v1.3h-1.2v2.6c0,0.5,0,0.8,0,0.9s0.1,0.2,0.2,0.2c0.1,0.1,0.2,0.1,0.3,0.1c0.2,0,0.4-0.1,0.7-0.2l0.2,1.4C98.3,39,97.8,39,97.3,39c-0.3,0-0.6-0.1-0.8-0.2c-0.2-0.1-0.5-0.3-0.5-0.5c-0.1-0.2-0.2-0.4-0.3-0.6c0-0.2-0.1-0.6-0.1-1.3v-2.9h-0.8v-1.4h0.8v-1.3l1.7-1v2.4L98.5,32.5L98.5,32.5z"/><path d="M99.4,35.7c0-0.5,0.2-1.2,0.5-1.7s0.7-1,1.2-1.3s1.1-0.5,1.7-0.5c1,0,1.8,0.4,2.5,1c0.6,0.6,1,1.5,1,2.5s-0.4,1.8-1,2.5c-0.6,0.6-1.5,1-2.5,1c-0.6,0-1.2-0.2-1.7-0.5s-1-0.6-1.3-1.2C99.5,36.8,99.4,36.5,99.4,35.7z M101.1,35.8c0,0.6,0.2,1.2,0.5,1.5c0.3,0.4,0.7,0.5,1.2,0.5s0.8-0.2,1.2-0.5c0.3-0.4,0.5-0.8,0.5-1.5c0-0.6-0.2-1.2-0.5-1.5c-0.3-0.4-0.7-0.5-1.2-0.5s-0.8,0.2-1.2,0.5S101.1,35,101.1,35.8z"/><polygon opacity="0.4" fill="#FFFFFF" enable-background="new    " points="54.4,46.8 53.3,47 51.4,47.7 49.2,48.5 47.5,49.3 45.8,50.3 44.5,51.2 43.1,52.3 41.7,53.5 40.4,54.8 48.5,56.8 49.5,56.2 50.7,55.5 51.6,55 52.3,54.8 53.2,54.3 54,54 55,53.8 55.8,53.5 56.8,53.3 57.5,53.3 58.4,53.2 59.2,53 60.4,53 61.5,53.2 62.4,53.3 63.2,53.3 64.4,53.5 65.4,53.8 66.4,54.2 67.4,54.5 68.4,55 69.4,55.5 70.3,56 71.8,57 80.2,55.7 79.5,54.8 78.9,54.2 77.8,53.2 77,52.5 76,51.7 74.7,50.8 73.4,49.8 71.8,49 70.5,48.3 69.5,48 68.5,47.5 67.6,47.3 66.5,47 65.7,46.8 64.7,46.7 63.6,46.5 62.3,46.3 61.4,46.2 60.6,46.2 60.3,46.2 59.3,46.2 58.5,46.2 57.6,46.3 56.5,46.3"/></g><g id="normal"><path fill="#FEFEFE" d="M105.2,4.8H14.8c-5.5,0-10.1,4.5-10.1,10v90.5c0,5.5,4.5,10,10,10h90.5c5.5,0,10-4.5,10-10V14.9C115.4,9.3,110.8,4.8,105.2,4.8z"/><path d="M103.5,6.9h-87c-5.4,0-9.7,4.4-9.7,9.7v86.8c0,5.4,4.4,9.7,9.7,9.7h86.8c5.4,0,9.7-4.4,9.7-9.7V16.6C113.1,11.4,108.7,6.9,103.5,6.9z"/><path fill="#FFFFFF" d="M100.8,10.1H19.2c-5,0-9.1,4.1-9.1,9.1v81.7c0,5,4.1,9.1,9.1,9.1h81.7c5,0,9.1-4.1,9.1-9.1V19.3C109.9,14.3,105.8,10.1,100.8,10.1z"/><path fill="#D9241B" d="M60,46.2c-14.5,0-26.4,11.8-26.4,26.4S45.5,98.8,60,98.8S86.4,87,86.4,72.4S74.5,46.2,60,46.2z M60,91.9c-10.7,0-19.5-8.7-19.5-19.5S49.3,53,60,53s19.5,8.7,19.5,19.5S70.7,91.9,60,91.9z"/><path d="M45.1,24v-1.4l2.5-2.8c0.4-0.5,0.7-0.8,0.9-1c-0.2,0-0.5,0-0.8,0h-2.4v-1.5h5.5v1.3l-2.5,2.9l-0.9,1c0.5,0,0.8,0,0.9,0H51V24L45.1,24L45.1,24z"/><path d="M51.8,20.6c0-0.5,0.2-1.2,0.5-1.7s0.7-1,1.2-1.3c0.5-0.3,1.1-0.5,1.7-0.5c1,0,1.8,0.4,2.5,1c0.6,0.6,1,1.5,1,2.5s-0.4,1.8-1,2.5s-1.5,1-2.5,1c-0.6,0-1.2-0.2-1.7-0.5s-1-0.6-1.3-1.2C51.9,21.9,51.8,21.4,51.8,20.6z M53.5,20.8c0,0.6,0.2,1.2,0.5,1.5c0.3,0.4,0.7,0.5,1.2,0.5s0.8-0.2,1.2-0.5c0.4-0.4,0.5-0.8,0.5-1.5c0-0.6-0.2-1.2-0.5-1.5s-0.8-0.5-1.2-0.5c-0.5,0-0.8,0.2-1.2,0.5C53.6,19.6,53.5,20,53.5,20.8z"/><path d="M66,24h-1.7v-3.4c0-0.7,0-1.2-0.1-1.4c-0.1-0.2-0.2-0.4-0.4-0.5c-0.2-0.1-0.4-0.2-0.6-0.2c-0.3,0-0.5,0.1-0.8,0.3c-0.3,0.2-0.4,0.4-0.5,0.6c-0.1,0.3-0.1,0.8-0.1,1.5v3h-1.7v-6.6h1.6v1c0.5-0.7,1.3-1.1,2.2-1.1c0.4,0,0.7,0.1,1.1,0.2c0.4,0.2,0.5,0.3,0.7,0.5c0.2,0.2,0.3,0.5,0.4,0.7c0.1,0.3,0.1,0.6,0.1,1.2v4H66V24z"/><path d="M69,19.5l-1.5-0.3c0.2-0.6,0.5-1.1,0.9-1.5s1.1-0.5,1.9-0.5s1.4,0.1,1.7,0.3c0.4,0.2,0.6,0.5,0.8,0.7c0.2,0.3,0.3,0.8,0.3,1.5v2c0,0.5,0,1,0.1,1.3s0.2,0.5,0.3,0.9h-1.7c-0.1-0.1-0.1-0.3-0.2-0.5c0-0.1-0.1-0.2-0.1-0.2c-0.3,0.3-0.6,0.5-1,0.6C70.1,24,69.8,24,69.4,24c-0.6,0-1.2-0.2-1.6-0.5c-0.5-0.4-0.5-0.7-0.5-1.3c0-0.4,0.1-0.7,0.3-1c0.2-0.3,0.5-0.5,0.7-0.6c0.4-0.2,0.8-0.3,1.4-0.4c0.8-0.2,1.4-0.3,1.7-0.5v-0.2c0-0.4-0.1-0.5-0.3-0.7c-0.2,0-0.5,0-0.9,0c-0.3,0-0.5,0.1-0.7,0.2S69.2,19.1,69,19.5z M71.4,20.9c-0.2,0.1-0.5,0.2-1.1,0.3c-0.5,0.1-0.8,0.2-0.9,0.3C69.1,21.6,69,21.8,69,22s0.1,0.5,0.3,0.6c0.2,0.2,0.5,0.3,0.7,0.3c0.3,0,0.6-0.1,0.9-0.3c0.2-0.2,0.4-0.4,0.5-0.5c0-0.2,0.1-0.5,0.1-0.8L71.4,20.9L71.4,20.9z"/><path d="M18.6,32.5v1.3h-1.2v2.6c0,0.5,0,0.8,0,0.9s0.1,0.2,0.2,0.2s0.2,0.1,0.3,0.1c0.2,0,0.4-0.1,0.7-0.2l0.2,1.4C18.4,39,17.9,39,17.4,39c-0.3,0-0.6-0.1-0.8-0.2c-0.2-0.1-0.5-0.3-0.5-0.5c-0.1-0.2-0.2-0.4-0.3-0.6c0-0.2-0.1-0.6-0.1-1.3v-2.9h-0.8v-1.4h0.8v-1.3l1.7-1v2.4L18.6,32.5L18.6,32.5z"/><path d="M21.5,39h-1.7v-6.6h1.6v0.9c0.3-0.5,0.5-0.7,0.7-0.9c0.2-0.2,0.5-0.2,0.7-0.2c0.4,0,0.8,0.1,1.2,0.4l-0.5,1.5c-0.3-0.2-0.5-0.3-0.8-0.3s-0.5,0.1-0.6,0.2c-0.2,0.1-0.3,0.4-0.4,0.7c-0.1,0.4-0.2,1.1-0.2,2.2C21.5,37,21.5,39,21.5,39z"/><path d="M26.1,34.5l-1.5-0.3c0.2-0.6,0.5-1.1,0.9-1.5s1.1-0.5,1.9-0.5s1.4,0.1,1.7,0.3c0.4,0.2,0.6,0.5,0.8,0.7c0.2,0.3,0.3,0.8,0.3,1.5v2c0,0.5,0,1,0.1,1.3s0.2,0.5,0.3,0.9h-1.7c-0.1-0.1-0.1-0.3-0.2-0.5c0-0.1-0.1-0.2-0.1-0.2c-0.3,0.3-0.6,0.5-1,0.6S27,39,26.6,39c-0.6,0-1.2-0.2-1.6-0.5c-0.5-0.4-0.5-0.8-0.5-1.4c0-0.4,0.1-0.7,0.3-1c0.2-0.3,0.5-0.5,0.7-0.6c0.3-0.1,0.8-0.3,1.4-0.4c0.8-0.2,1.4-0.3,1.7-0.5v-0.2c0-0.4-0.1-0.5-0.3-0.7c-0.3,0-0.6,0-1,0c-0.3,0-0.5,0.1-0.7,0.2C26.4,34,26.2,34.2,26.1,34.5z M28.5,35.8c-0.2,0.1-0.5,0.2-1.1,0.3c-0.5,0.1-0.8,0.2-0.9,0.3c-0.3,0.2-0.4,0.4-0.4,0.6s0.1,0.5,0.3,0.6c0.2,0.2,0.5,0.3,0.7,0.3c0.3,0,0.6-0.1,0.9-0.3c0.2-0.2,0.4-0.4,0.5-0.5c0.1-0.2,0.1-0.5,0.1-0.8L28.5,35.8L28.5,35.8z"/><path d="M31.1,32.5h1V32c0-0.5,0.1-1,0.2-1.3c0.1-0.3,0.4-0.5,0.6-0.6c0.3-0.2,0.7-0.3,1.2-0.3s1,0.1,1.5,0.2l-0.3,1.2c-0.3-0.1-0.5-0.1-0.8-0.1S34,31.2,34,31.3c-0.1,0.1-0.2,0.4-0.2,0.6v0.5H35v1.4h-1.3V39H32v-5.2h-1L31.1,32.5L31.1,32.5z"/><path d="M35.4,32.5h1V32c0-0.5,0.1-1,0.2-1.3c0.1-0.3,0.4-0.5,0.6-0.6c0.3-0.2,0.7-0.3,1.2-0.3s1,0.1,1.5,0.2l-0.3,1.2c-0.3-0.1-0.5-0.1-0.8-0.1s-0.5,0.1-0.5,0.2c-0.1,0.1-0.2,0.4-0.2,0.6v0.5h1.3v1.4H38V39h-1.7v-5.2h-1L35.4,32.5L35.4,32.5z"/><path d="M40.4,31.5v-1.6h1.7v1.6H40.4z M40.4,39v-6.6h1.7V39H40.4z"/><path d="M49.6,34.5l-1.7,0.3c-0.1-0.4-0.2-0.6-0.4-0.8c-0.1-0.2-0.5-0.2-0.8-0.2c-0.5,0-0.8,0.2-1,0.5s-0.4,0.8-0.4,1.5c0,0.8,0.1,1.4,0.4,1.6c0.3,0.3,0.6,0.5,1.1,0.5c0.4,0,0.6-0.1,0.8-0.3s0.4-0.5,0.5-1l1.7,0.3c-0.2,0.8-0.5,1.4-1,1.8c-0.5,0.5-1.4,0.5-2.2,0.5c-1,0-1.7-0.3-2.3-0.9c-0.5-0.6-0.8-1.5-0.8-2.5c0-1.1,0.3-1.9,0.9-2.5s1.4-0.9,2.4-0.9c0.8,0,1.5,0.2,1.9,0.5C49.2,33.2,49.5,33.8,49.6,34.5z"/><path d="M50.5,35.7c0-0.5,0.2-1.2,0.5-1.7s0.7-1,1.2-1.3s1.1-0.5,1.7-0.5c1,0,1.8,0.4,2.5,1c0.6,0.6,1,1.5,1,2.5s-0.4,1.8-1,2.5s-1.5,1.1-2.5,1.1c-0.6,0-1.2-0.2-1.7-0.5s-1-0.6-1.3-1.2C50.6,37,50.5,36.5,50.5,35.7z M52.4,35.8c0,0.6,0.2,1.2,0.5,1.5c0.3,0.4,0.7,0.5,1.2,0.5s0.8-0.2,1.2-0.5c0.4-0.4,0.5-0.8,0.5-1.5c0-0.6-0.2-1.2-0.5-1.5s-0.8-0.6-1.3-0.6s-0.8,0.2-1.2,0.5C52.4,34.7,52.4,35,52.4,35.8z"/><path d="M62.3,39v-9.1H64V39H62.3z"/><path d="M65.8,31.5v-1.6h1.7v1.6H65.8z M65.8,39v-6.6h1.7V39H65.8z"/><path d="M69.2,32.5h1.6v0.9c0.5-0.7,1.3-1.1,2.1-1.1c0.5,0,0.8,0.1,1.1,0.3c0.3,0.2,0.5,0.5,0.7,0.8c0.3-0.4,0.6-0.6,0.9-0.8s0.7-0.3,1.1-0.3c0.5,0,0.9,0.1,1.3,0.3s0.5,0.5,0.7,0.9c0.1,0.3,0.2,0.7,0.2,1.4V39h-1.7v-3.7c0-0.6-0.1-1.1-0.2-1.3c-0.2-0.3-0.5-0.4-0.7-0.4c-0.3,0-0.5,0.1-0.7,0.2c-0.3,0.1-0.4,0.4-0.5,0.6c-0.1,0.3-0.2,0.7-0.2,1.3V39h-1.7v-3.6c0-0.6,0-1.1-0.1-1.3c-0.1-0.2-0.2-0.4-0.3-0.5c-0.1-0.1-0.3-0.2-0.5-0.2s-0.5,0.1-0.7,0.2s-0.4,0.4-0.5,0.6c-0.1,0.3-0.2,0.7-0.2,1.4v3.2h-1.7L69.2,32.5L69.2,32.5z"/><path d="M80.6,31.5v-1.6h1.7v1.6H80.6z M80.6,39v-6.6h1.7V39H80.6z"/><path d="M87.2,32.5v1.3H86v2.6c0,0.5,0,0.8,0,0.9s0.1,0.2,0.2,0.2c0.1,0.1,0.2,0.1,0.3,0.1c0.2,0,0.4-0.1,0.7-0.2l0.2,1.4C87,39,86.5,39,86,39c-0.3,0-0.6-0.1-0.8-0.2c-0.2-0.1-0.5-0.3-0.5-0.5c-0.1-0.2-0.2-0.4-0.3-0.6c0-0.2-0.1-0.6-0.1-1.3v-2.9h-0.8v-1.4h0.8v-1.3l1.7-1v2.4L87.2,32.5L87.2,32.5z"/><path d="M89.7,34.5l-1.5-0.3c0.2-0.6,0.5-1.1,0.9-1.5s1.1-0.5,1.9-0.5s1.4,0.1,1.7,0.3c0.4,0.2,0.6,0.5,0.8,0.7c0.2,0.3,0.3,0.8,0.3,1.5v2c0,0.5,0,1,0.1,1.3s0.2,0.5,0.3,0.9h-1.7c0-0.1-0.1-0.3-0.2-0.5c0-0.1-0.1-0.2-0.1-0.2c-0.3,0.3-0.6,0.5-1,0.6s-0.6,0.3-1,0.3c-0.6,0-1.2-0.2-1.6-0.5c-0.4-0.3-0.6-0.8-0.6-1.3c0-0.4,0.1-0.7,0.3-1c0.2-0.3,0.5-0.5,0.7-0.6c0.4-0.2,0.8-0.3,1.4-0.4c0.8-0.2,1.4-0.3,1.7-0.5v-0.2c0-0.4-0.1-0.5-0.3-0.7c-0.2-0.1-0.4-0.1-0.9-0.1c-0.3,0-0.5,0.1-0.7,0.2C90,34,89.8,34.2,89.7,34.5z M92.1,35.8c-0.2,0.1-0.5,0.2-1.1,0.3c-0.5,0.1-0.8,0.2-0.9,0.3c-0.3,0.2-0.4,0.4-0.4,0.6s0.1,0.5,0.3,0.6c0.2,0.2,0.5,0.3,0.7,0.3s0.6-0.1,0.9-0.3c0.2-0.2,0.4-0.4,0.5-0.5c0-0.2,0.1-0.5,0.1-0.8L92.1,35.8L92.1,35.8z"/><path d="M98.5,32.5v1.3h-1.2v2.6c0,0.5,0,0.8,0,0.9s0.1,0.2,0.2,0.2c0.1,0.1,0.2,0.1,0.3,0.1c0.2,0,0.4-0.1,0.7-0.2l0.2,1.4C98.3,39,97.8,39,97.3,39c-0.3,0-0.6-0.1-0.8-0.2c-0.2-0.1-0.5-0.3-0.5-0.5c-0.1-0.2-0.2-0.4-0.3-0.6c0-0.2-0.1-0.6-0.1-1.3v-2.9h-0.8v-1.4h0.8v-1.3l1.7-1v2.4L98.5,32.5L98.5,32.5z"/><path d="M99.4,35.7c0-0.5,0.2-1.2,0.5-1.7s0.7-1,1.2-1.3s1.1-0.5,1.7-0.5c1,0,1.8,0.4,2.5,1c0.6,0.6,1,1.5,1,2.5s-0.4,1.8-1,2.5c-0.6,0.6-1.5,1-2.5,1c-0.6,0-1.2-0.2-1.7-0.5s-1-0.6-1.3-1.2C99.5,36.8,99.4,36.5,99.4,35.7z M101.1,35.8c0,0.6,0.2,1.2,0.5,1.5c0.3,0.4,0.7,0.5,1.2,0.5s0.8-0.2,1.2-0.5c0.3-0.4,0.5-0.8,0.5-1.5c0-0.6-0.2-1.2-0.5-1.5c-0.3-0.4-0.7-0.5-1.2-0.5s-0.8,0.2-1.2,0.5S101.1,35,101.1,35.8z"/><polygon opacity="0.4" fill="#FFFFFF" enable-background="new    " points="54.4,46.8 53.3,47 51.4,47.7 49.2,48.5 47.5,49.3 45.8,50.3 44.5,51.2 43.1,52.3 41.7,53.5 40.4,54.8 48.5,56.8 49.5,56.2 50.7,55.5 51.6,55 52.3,54.8 53.2,54.3 54,54 55,53.8 55.8,53.5 56.8,53.3 57.5,53.3 58.4,53.2 59.2,53 60.4,53 61.5,53.2 62.4,53.3 63.2,53.3 64.4,53.5 65.4,53.8 66.4,54.2 67.4,54.5 68.4,55 69.4,55.5 70.3,56 71.8,57 80.2,55.7 79.5,54.8 78.9,54.2 77.8,53.2 77,52.5 76,51.7 74.7,50.8 73.4,49.8 71.8,49 70.5,48.3 69.5,48 68.5,47.5 67.6,47.3 66.5,47 65.7,46.8 64.7,46.7 63.6,46.5 62.3,46.3 61.4,46.2 60.6,46.2 60.3,46.2 59.3,46.2 58.5,46.2 57.6,46.3 56.5,46.3"/></g></svg>