<svg version="1.1" id="Layer_1" xmlns="http://www.w3.org/2000/svg" xmlns:xlink="http://www.w3.org/1999/xlink" x="0px" y="0px"
	width="120" height="120"  viewBox="0 0 120 120" xml:space="preserve">
<g id="disabled"><path fill="#FFFFFF" d="M105.2,4.8H14.8c-2.7,0-5,2.3-5,5v100.4c0,2.7,2.3,5,5,5h90.4c2.7,0,5-2.3,5-5V9.8C110.2,7.1,107.9,4.8,105.2,4.8z M108.5,110.2c0,1.8-1.5,3.4-3.4,3.4H14.8c-1.8,0-3.4-1.5-3.4-3.4V9.8c0-1.8,1.5-3.4,3.4-3.4h90.4c1.8,0,3.4,1.5,3.4,3.4C108.5,9.8,108.5,110.2,108.5,110.2z"/><path fill="#57646F" d="M105.2,6.4H14.8c-1.8,0-3.4,1.5-3.4,3.4v100.4c0,1.8,1.5,3.4,3.4,3.4h90.4c1.8,0,3.4-1.5,3.4-3.4V9.8C108.5,8,107,6.4,105.2,6.4z"/><path fill="#D0D0D0" stroke="#000000" stroke-width="4" stroke-miterlimit="10" d="M44.1,87.1c-1-0.2-1.8-2.5-2.7-3c-0.5-0.3-1.7,0-2.3,0c-1.1,0-3.2,0.1-4.2,0c-1.1-0.1-3.2-0.4-4.3-0.7c-1.1-0.3-3-1.7-4-2.5c-0.7-0.5-2.1-1.9-2.5-2.7c-0.4-0.9,0-3.8,0-3.8l3.1-3.5l4.2-4.5l2.6-3.5l1.9-3.8l3.5-3.8c0,0-1.8-1.5-2.2-2.2c-0.3-0.5-0.2-1.8,0-2.5c0.3-1.2,2.5-4.4,2.5-4.4l2.7-3.3l2.3-3.3c0,0,1.5-2.1,1.6-2.9c0.2-0.6,0-2.7,0-2.7s-0.3-1.7,0-2.2c0.5-0.8,2.8-1.3,3.8-1.1c0.5,0.1,1.3,1.1,1.8,1.3c0.8,0.2,2.2-1,3-1.3s3.5,0,3.5,0S61,30,61.9,30c0.7,0.1,2.7,0.9,2.7,0.9l2.5,0.7c0,0,2,0.7,2.7,0.8c1.6,0.3,4.9,0.1,6.5,0c1.8-0.1,5.3-0.8,7.1-0.8c1.3,0,3.7,0.5,4.9,0.8c1.3,0.3,4,0.4,5.1,1.1c0.5,0.4,1.2,1.5,1.4,2.2c0.2,0.5,0.3,1.8,0,2.3c-0.9,1.8-5.1,3.5-6.7,4.8c-0.7,0.6-2.3,1.8-2.8,2.6c-0.5,0.7-1.1,2.3-1.4,3.2c-0.3,1.1-0.5,3.4-1,4.4c-0.4,0.8-1.5,2.4-2.4,2.8c-0.6,0.5-2.4,0.6-3,1.1c-0.5,0.3-1.4,1.1-1.6,1.6c-0.4,0.7-0.5,2.4-0.7,3.2c-0.2,1.3-0.4,3.8-0.4,5c-0.1,1.2-0.1,3.6-0.3,4.8c-0.2,1.2-0.6,3.6-1.2,4.6c-0.7,1.3-3,3.2-4.1,4.3c-1.1,1-3.5,2.9-4.5,3.9c-1.1,1.2-2.6,4-4,4.9c-0.5,0.4-1.8,1-2.5,0.8c-1.3-0.4-3.6-3.9-3.6-3.9s-1.9-1.8-2.7-2.2c-0.6-0.3-2.1-0.3-2.7,0C48,84.5,45.6,87.4,44.1,87.1z"/><polygon fill="none" stroke="#57646F" stroke-width="3" stroke-miterlimit="10" points="57.7,46.7 57.5,46.7 48.5,65.4 64.1,65.4"/><path opacity="0.3" fill="#FFFFFF" enable-background="new    " d="M105.2,6.4H14.8c-1.8,0-3.4,1.5-3.4,3.4v9.5c2.9,0.8,89.7,11.7,97.1,12.7V9.8C108.5,8,107,6.4,105.2,6.4z"/></g><g id="normal"><path fill="#FFFFFF" d="M105.2,4.8H14.8c-2.7,0-5,2.3-5,5v100.4c0,2.7,2.3,5,5,5h90.4c2.7,0,5-2.3,5-5V9.8C110.2,7.1,107.9,4.8,105.2,4.8z M108.5,110.2c0,1.8-1.5,3.4-3.4,3.4H14.8c-1.8,0-3.4-1.5-3.4-3.4V9.8c0-1.8,1.5-3.4,3.4-3.4h90.4c1.8,0,3.4,1.5,3.4,3.4C108.5,9.8,108.5,110.2,108.5,110.2z"/><path fill="#084CA1" d="M105.2,6.4H14.8c-1.8,0-3.4,1.5-3.4,3.4v100.4c0,1.8,1.5,3.4,3.4,3.4h90.4c1.8,0,3.4-1.5,3.4-3.4V9.8C108.5,8,107,6.4,105.2,6.4z"/><path fill="#FBB03B" stroke="#D5272D" stroke-width="4" stroke-miterlimit="10" d="M44.1,87.1c-1-0.2-1.8-2.5-2.7-3c-0.5-0.3-1.7,0-2.3,0c-1.1,0-3.2,0.1-4.2,0c-1.1-0.1-3.2-0.4-4.3-0.7c-1.1-0.3-3-1.7-4-2.5c-0.7-0.5-2.1-1.9-2.5-2.7c-0.4-0.9,0-3.8,0-3.8l3.1-3.5l4.2-4.5l2.6-3.5l1.9-3.8l3.5-3.8c0,0-1.8-1.5-2.2-2.2c-0.3-0.5-0.2-1.8,0-2.5c0.3-1.2,2.5-4.4,2.5-4.4l2.7-3.3l2.3-3.3c0,0,1.5-2.1,1.6-2.9c0.2-0.6,0-2.7,0-2.7s-0.3-1.7,0-2.2c0.5-0.8,2.8-1.3,3.8-1.1c0.5,0.1,1.3,1.1,1.8,1.3c0.8,0.2,2.2-1,3-1.3s3.5,0,3.5,0S61,30,61.9,30c0.7,0.1,2.7,0.9,2.7,0.9l2.5,0.7c0,0,2,0.7,2.7,0.8c1.6,0.3,4.9,0.1,6.5,0c1.8-0.1,5.3-0.8,7.1-0.8c1.3,0,3.7,0.5,4.9,0.8c1.3,0.3,4,0.4,5.1,1.1c0.5,0.4,1.2,1.5,1.4,2.2c0.2,0.5,0.3,1.8,0,2.3c-0.9,1.8-5.1,3.5-6.7,4.8c-0.7,0.6-2.3,1.8-2.8,2.6c-0.5,0.7-1.1,2.3-1.4,3.2c-0.3,1.1-0.5,3.4-1,4.4c-0.4,0.8-1.5,2.4-2.4,2.8c-0.6,0.5-2.4,0.6-3,1.1c-0.5,0.3-1.4,1.1-1.6,1.6c-0.4,0.7-0.5,2.4-0.7,3.2c-0.2,1.3-0.4,3.8-0.4,5c-0.1,1.2-0.1,3.6-0.3,4.8c-0.2,1.2-0.6,3.6-1.2,4.6c-0.7,1.3-3,3.2-4.1,4.3c-1.1,1-3.5,2.9-4.5,3.9c-1.1,1.2-2.6,4-4,4.9c-0.5,0.4-1.8,1-2.5,0.8c-1.3-0.4-3.6-3.9-3.6-3.9s-1.9-1.8-2.7-2.2c-0.6-0.3-2.1-0.3-2.7,0C48,84.5,45.6,87.4,44.1,87.1z"/><polygon fill="none" stroke="#000000" stroke-width="3" stroke-miterlimit="10" points="57.7,46.7 57.5,46.7 48.5,65.4 64.1,65.4"/><path opacity="0.3" fill="#FFFFFF" enable-background="new    " d="M105.2,6.4H14.8c-1.8,0-3.4,1.5-3.4,3.4v9.5c2.9,0.8,89.7,11.7,97.1,12.7V9.8C108.5,8,107,6.4,105.2,6.4z"/></g></svg>