<svg version="1.1" id="Layer_1" xmlns="http://www.w3.org/2000/svg" xmlns:xlink="http://www.w3.org/1999/xlink" x="0px" y="0px"
	width="120" height="120"  viewBox="0 0 120 120" xml:space="preserve">
<g id="disabled"><path fill="#FFFFFF" d="M105.2,4.8H14.8c-2.7,0-5,2.3-5,5v100.4c0,2.7,2.3,5,5,5h90.4c2.7,0,5-2.3,5-5V9.8C110.2,7.1,107.9,4.8,105.2,4.8z M108.5,110.2c0,1.8-1.5,3.4-3.4,3.4H14.8c-1.8,0-3.4-1.5-3.4-3.4V9.8c0-1.8,1.5-3.4,3.4-3.4h90.4c1.8,0,3.4,1.5,3.4,3.4C108.5,9.8,108.5,110.2,108.5,110.2z"/><path fill="#FFFFFF" d="M105.2,6.4H14.8c-1.8,0-3.4,1.5-3.4,3.4v100.4c0,1.8,1.5,3.4,3.4,3.4h90.4c1.8,0,3.4-1.5,3.4-3.4V9.8C108.5,8,107,6.4,105.2,6.4z"/><path fill="#575757" d="M104.6,6.5H15.4c-2.6,0-4,1.4-4,4v99c0,2.6,1.4,4,4,4h89.3c2.6,0,4-1.3,4-4V10.4C108.6,7.9,107.3,6.5,104.6,6.5z M105.2,106.8c0,1.8-1.5,3.3-3.3,3.3H18.1c-1.8,0-3.3-1.5-3.3-3.3v-87c0-1.8,1.5-3.3,3.3-3.3h83.8c1.8,0,3.3,1.5,3.3,3.3C105.2,19.8,105.2,106.8,105.2,106.8z"/><path fill="#575757" d="M60,40c-14.4,0-26.1,11.6-26.1,26.1S45.6,92.2,60,92.2s26.1-11.6,26.1-26.1S74.4,40,60,40z M60,85.3c-10.5,0-19.2-8.6-19.2-19.2S49.5,46.9,60,46.9s19.2,8.6,19.2,19.2S70.5,85.3,60,85.3z"/><path d="M27.8,27.9v-1.4l4.1-4.8h-3.6v-1.3H34v1.2l-4.3,5h4.5v1.3C34.2,27.9,27.8,27.9,27.8,27.9z"/><path d="M34.8,25.1c0-0.5,0.1-0.9,0.4-1.4c0.3-0.5,0.6-0.8,1-1c0.5-0.3,0.9-0.4,1.5-0.4c0.8,0,1.5,0.3,2.1,0.8c0.5,0.5,0.8,1.2,0.8,2s-0.3,1.5-0.8,2s-1.3,0.8-2.1,0.8c-0.5,0-1-0.1-1.5-0.4s-0.8-0.5-1.1-1C34.9,26.3,34.8,25.7,34.8,25.1z M36.3,25.2c0,0.5,0.1,0.9,0.4,1.3c0.3,0.3,0.6,0.5,1,0.5s0.7-0.2,1-0.5s0.4-0.7,0.4-1.3c0-0.5-0.1-0.9-0.4-1.3c-0.3-0.3-0.6-0.5-1-0.5s-0.7,0.2-1,0.5C36.5,24.2,36.3,24.6,36.3,25.2z"/><path d="M46.9,27.9h-1.5v-2.7c0-0.5,0-1-0.1-1.2s-0.2-0.3-0.3-0.4s-0.3-0.2-0.5-0.2s-0.5,0.1-0.7,0.2c-0.2,0.2-0.4,0.3-0.5,0.5s-0.1,0.6-0.1,1.3v2.5h-1.5v-5.5h1.4v0.8c0.5-0.6,1.1-0.9,1.9-0.9c0.4,0,0.6,0.1,0.9,0.2s0.5,0.3,0.6,0.5c0.2,0.2,0.3,0.4,0.3,0.6s0.1,0.5,0.1,1L46.9,27.9L46.9,27.9z"/><path d="M49.5,24.1l-1.4-0.2c0.2-0.5,0.5-0.9,0.8-1.2c0.4-0.3,0.9-0.4,1.6-0.4c0.6,0,1.2,0.1,1.5,0.3c0.4,0.2,0.5,0.4,0.7,0.5c0.1,0.3,0.2,0.6,0.2,1.3V26c0,0.5,0,0.8,0.1,1.1c0.1,0.2,0.2,0.5,0.3,0.7h-1.5c0-0.1-0.1-0.3-0.2-0.5c0-0.1,0-0.2-0.1-0.2c-0.3,0.3-0.5,0.5-0.8,0.5c-0.3,0.1-0.6,0.2-0.9,0.2c-0.5,0-1-0.2-1.4-0.5c-0.2,0-0.4-0.5-0.4-1c0-0.3,0.1-0.5,0.3-0.8s0.4-0.5,0.6-0.5s0.6-0.3,1.2-0.4c0.7-0.1,1.2-0.3,1.5-0.4V24c0-0.3-0.1-0.5-0.2-0.5c-0.1-0.1-0.5-0.2-0.8-0.2s-0.5,0.1-0.6,0.2C49.8,23.7,49.6,23.9,49.5,24.1z M51.5,25.3c-0.2,0.1-0.5,0.1-0.9,0.2c-0.5,0.1-0.6,0.2-0.8,0.3c-0.2,0.1-0.3,0.3-0.3,0.5s0.1,0.4,0.3,0.5C50,27,50.2,27,50.4,27c0.3,0,0.5-0.1,0.7-0.3c0.2-0.1,0.3-0.3,0.4-0.5c0-0.1,0.1-0.4,0.1-0.7L51.5,25.3L51.5,25.3z"/><path d="M57.5,20.3h3.1c0.6,0,1.1,0,1.4,0.1c0.3,0.1,0.5,0.2,0.8,0.3c0.3,0.1,0.5,0.4,0.6,0.6s0.3,0.5,0.3,0.9s-0.1,0.6-0.3,1s-0.5,0.5-0.8,0.6c0.5,0.1,0.8,0.4,1.1,0.6c0.3,0.4,0.4,0.7,0.4,1.1s-0.1,0.6-0.3,1s-0.4,0.5-0.6,0.7c-0.3,0.2-0.6,0.3-1.1,0.4c-0.3,0-0.9,0-1.9,0.1h-2.6C57.5,27.8,57.5,20.3,57.5,20.3z M59.2,21.6v1.7h1c0.6,0,1,0,1.2,0c0.3,0,0.5-0.1,0.6-0.3s0.3-0.4,0.3-0.5c0-0.3-0.1-0.5-0.2-0.5c-0.1-0.2-0.4-0.3-0.6-0.3c-0.2,0-0.6,0-1.4,0L59.2,21.6C59.2,21.7,59.2,21.6,59.2,21.6z M59.2,24.6v2h1.5c0.5,0,0.9,0,1.1-0.1c0.3,0,0.5-0.2,0.5-0.3c0.1-0.1,0.2-0.4,0.2-0.6s-0.1-0.5-0.2-0.5c-0.1-0.1-0.3-0.3-0.5-0.4s-0.6-0.1-1.4-0.1H59.2z"/><path d="M66.5,24.1l-1.4-0.2c0.2-0.5,0.5-0.9,0.8-1.2c0.4-0.3,0.9-0.4,1.6-0.4c0.6,0,1.2,0.1,1.5,0.3c0.4,0.2,0.5,0.4,0.7,0.5c0.1,0.3,0.2,0.6,0.2,1.3V26c0,0.5,0,0.8,0.1,1.1c0.1,0.2,0.2,0.5,0.3,0.7h-1.5c0-0.1-0.1-0.3-0.2-0.5c0-0.1,0-0.2-0.1-0.2c-0.3,0.3-0.5,0.5-0.8,0.5c-0.3,0.1-0.6,0.2-0.9,0.2c-0.5,0-1-0.2-1.4-0.5c-0.2,0-0.4-0.5-0.4-1c0-0.3,0.1-0.5,0.3-0.8c0.2-0.3,0.4-0.5,0.6-0.5s0.6-0.3,1.2-0.4c0.7-0.1,1.2-0.3,1.5-0.4V24c0-0.3-0.1-0.5-0.2-0.5c-0.1-0.1-0.5-0.2-0.8-0.2s-0.5,0.1-0.6,0.2C66.7,23.7,66.6,23.9,66.5,24.1z M68.5,25.3c-0.2,0.1-0.5,0.1-0.9,0.2c-0.5,0.1-0.7,0.2-0.8,0.3c-0.2,0.1-0.3,0.3-0.3,0.5s0.1,0.4,0.3,0.5C67,27,67.2,27,67.4,27s0.5-0.1,0.7-0.3c0.2-0.1,0.3-0.3,0.4-0.5c0-0.1,0.1-0.4,0.1-0.7L68.5,25.3L68.5,25.3z"/><path d="M71.5,21.7v-1.4H73v1.4H71.5z M71.5,27.9v-5.5H73v5.5H71.5z"/><path d="M73.8,27.9l2-2.8l-2-2.6h1.8l1,1.5l1.1-1.5h1.7L77.5,25l2.1,2.8h-1.8l-1.2-1.7l-1.1,1.7L73.8,27.9L73.8,27.9z"/><path d="M83.9,26.2l1.5,0.3c-0.2,0.5-0.5,0.9-0.9,1.2s-0.9,0.5-1.5,0.5c-1,0-1.7-0.3-2.2-0.9c-0.4-0.5-0.5-1.1-0.5-1.9c0-0.9,0.3-1.6,0.7-2.1s1.1-0.7,1.8-0.7c0.8,0,1.5,0.3,2,0.8s0.7,1.4,0.7,2.5h-3.7c0,0.5,0.1,0.7,0.4,1s0.5,0.4,0.8,0.4s0.5-0.1,0.6-0.2C83.6,26.6,83.8,26.4,83.9,26.2z M83.9,24.7c0-0.5-0.1-0.7-0.4-0.9c-0.3-0.2-0.5-0.4-0.8-0.4s-0.6,0.1-0.8,0.4c-0.2,0.3-0.3,0.5-0.3,0.9H83.9z"/><path d="M86.1,26.3l1.5-0.2c0.1,0.3,0.2,0.5,0.4,0.6c0.2,0.2,0.5,0.2,0.8,0.2c0.4,0,0.6-0.1,0.9-0.2c0.1-0.1,0.2-0.2,0.2-0.4c0-0.1,0-0.2-0.1-0.3c-0.1-0.1-0.3-0.1-0.5-0.2c-1.2-0.3-2-0.5-2.3-0.7c-0.5-0.3-0.6-0.7-0.6-1.2s0.2-0.9,0.5-1.2c0.4-0.4,1-0.5,1.8-0.5s1.4,0.1,1.7,0.4s0.6,0.6,0.8,1.1L89.7,24c-0.1-0.2-0.2-0.4-0.4-0.5c-0.2-0.1-0.5-0.2-0.7-0.2c-0.4,0-0.6,0.1-0.8,0.2c-0.1,0.1-0.2,0.2-0.2,0.3s0.1,0.2,0.2,0.3c0.1,0.1,0.6,0.3,1.4,0.4c0.7,0.1,1.4,0.4,1.6,0.6c0.3,0.3,0.5,0.6,0.5,1.1s-0.2,0.9-0.6,1.3c-0.5,0.4-1.1,0.5-1.9,0.5c-0.7,0-1.4-0.2-1.8-0.5C86.5,27.4,86.3,26.8,86.1,26.3z"/><path d="M32.9,36.6v-7.5h5.8v1.3h-4.2V32h3.9v1.3h-3.9v2h4.4v1.3H32.9z"/><path d="M40.1,31.2h1.4v0.7c0.5-0.5,1.1-0.9,1.7-0.9c0.4,0,0.6,0.1,0.9,0.2c0.3,0.1,0.5,0.4,0.6,0.6c0.3-0.3,0.5-0.5,0.8-0.6s0.6-0.2,0.9-0.2c0.5,0,0.7,0.1,1.1,0.3c0.4,0.2,0.5,0.4,0.6,0.7c0.1,0.3,0.2,0.6,0.2,1.1v3.5h-1.5v-3.1c0-0.5-0.1-0.9-0.2-1c-0.2-0.2-0.4-0.3-0.6-0.3c-0.2,0-0.4,0.1-0.6,0.2c-0.3,0.1-0.3,0.3-0.4,0.5c0,0.4,0,0.7,0,1.2v2.5h-1.5v-3c0-0.5,0-0.9-0.1-1c-0.1-0.2-0.1-0.3-0.3-0.4c-0.1-0.1-0.3-0.1-0.5-0.1c-0.3,0-0.5,0.1-0.6,0.2c-0.2,0.1-0.3,0.3-0.4,0.5c-0.1,0.3-0.1,0.6-0.1,1.1v2.6H40L40.1,31.2L40.1,31.2z"/><path d="M49.9,30.4V29h1.5v1.4H49.9z M49.9,36.6v-5.5h1.5v5.5H49.9z"/><path d="M52.5,35.1l1.5-0.2c0.1,0.3,0.2,0.5,0.4,0.6c0.2,0.2,0.5,0.2,0.8,0.2c0.4,0,0.6-0.1,0.9-0.2c0.1-0.1,0.2-0.2,0.2-0.4c0-0.1,0-0.2-0.1-0.3s-0.3-0.1-0.5-0.2c-1.2-0.3-2-0.5-2.3-0.7c-0.5-0.3-0.6-0.7-0.6-1.2s0.2-0.9,0.5-1.2c0.4-0.4,1-0.5,1.8-0.5s1.4,0.1,1.7,0.4c0.4,0.3,0.6,0.6,0.8,1.1l-1.5,0.3c-0.1-0.2-0.2-0.4-0.4-0.5s-0.5-0.4-0.8-0.4c-0.4,0-0.6,0.1-0.8,0.2c-0.1,0.1-0.2,0.2-0.2,0.3s0.1,0.2,0.2,0.3c0.1,0.1,0.6,0.3,1.4,0.4c0.7,0.1,1.4,0.4,1.6,0.6c0.3,0.3,0.5,0.6,0.5,1.1s-0.2,0.9-0.6,1.3c-0.5,0.4-1.1,0.5-1.9,0.5c-0.7,0-1.4-0.2-1.8-0.5C52.8,36,52.5,35.6,52.5,35.1z"/><path d="M58.5,35.1l1.5-0.2c0.1,0.3,0.2,0.5,0.4,0.6s0.5,0.2,0.8,0.2c0.4,0,0.6-0.1,0.9-0.2c0.1-0.1,0.2-0.2,0.2-0.4c0-0.1,0-0.2-0.1-0.3s-0.3-0.1-0.5-0.2c-1.2-0.3-2-0.5-2.3-0.7c-0.5-0.3-0.6-0.7-0.6-1.2s0.2-0.9,0.5-1.2c0.4-0.4,1-0.5,1.8-0.5s1.4,0.1,1.7,0.4c0.4,0.3,0.6,0.6,0.8,1.1l-1.5,0.3c-0.1-0.2-0.2-0.4-0.4-0.5s-0.4-0.4-0.7-0.4c-0.4,0-0.6,0.1-0.8,0.2c-0.1,0.1-0.2,0.2-0.2,0.3s0.1,0.2,0.2,0.3c0.1,0.1,0.6,0.3,1.4,0.4c0.7,0.1,1.4,0.4,1.6,0.6c0.3,0.3,0.5,0.6,0.5,1.1s-0.2,0.9-0.6,1.3c-0.5,0.4-1.1,0.5-1.9,0.5c-0.7,0-1.4-0.2-1.8-0.5C58.9,36,58.6,35.6,58.5,35.1z"/><path d="M65.1,30.4V29h1.5v1.4H65.1z M65.1,36.6v-5.5h1.5v5.5H65.1z"/><path d="M67.7,33.8c0-0.5,0.1-0.9,0.4-1.4c0.3-0.5,0.6-0.8,1-1c0.5-0.3,0.9-0.4,1.5-0.4c0.8,0,1.5,0.3,2.1,0.8c0.5,0.5,0.8,1.2,0.8,2s-0.3,1.5-0.8,2s-1.3,0.8-2.1,0.8c-0.5,0-1-0.1-1.5-0.4c-0.5-0.2-0.8-0.5-1.1-1C67.9,35,67.7,34.4,67.7,33.8z M69.3,33.9c0,0.5,0.1,0.9,0.4,1.3c0.3,0.3,0.6,0.5,1,0.5s0.7-0.2,1-0.5s0.4-0.7,0.4-1.3c0-0.5-0.1-0.9-0.4-1.3c-0.3-0.3-0.6-0.5-1-0.5s-0.7,0.2-1,0.5C69.5,33,69.3,33.3,69.3,33.9z"/><path d="M79.9,36.6h-1.5v-2.7c0-0.5,0-1-0.1-1.2s-0.2-0.3-0.3-0.4c-0.1-0.1-0.3-0.2-0.5-0.2c-0.3,0-0.5,0.1-0.7,0.2c-0.2,0.2-0.4,0.3-0.5,0.5c-0.1,0.2-0.1,0.6-0.1,1.3v2.5h-1.5v-5.5h1.4v0.8c0.5-0.6,1.1-0.9,1.9-0.9c0.4,0,0.6,0.1,0.9,0.2s0.5,0.3,0.6,0.5c0.2,0.2,0.3,0.4,0.3,0.6c0.1,0.2,0.1,0.5,0.1,1L79.9,36.6L79.9,36.6z"/><path d="M80.9,35.1l1.5-0.2c0.1,0.3,0.2,0.5,0.4,0.6c0.2,0.2,0.5,0.2,0.8,0.2c0.4,0,0.6-0.1,0.9-0.2c0.1-0.1,0.2-0.2,0.2-0.4c0-0.1,0-0.2-0.1-0.3s-0.3-0.1-0.5-0.2c-1.2-0.3-2-0.5-2.3-0.7c-0.5-0.3-0.6-0.7-0.6-1.2s0.2-0.9,0.5-1.2c0.4-0.4,1-0.5,1.8-0.5s1.4,0.1,1.7,0.4s0.6,0.6,0.8,1.1l-1.5,0.3c-0.1-0.2-0.2-0.4-0.4-0.5c-0.2-0.1-0.5-0.4-0.7-0.4c-0.4,0-0.6,0.1-0.8,0.2c-0.1,0.1-0.2,0.2-0.2,0.3s0.1,0.2,0.2,0.3c0.1,0.1,0.6,0.3,1.4,0.4c0.7,0.1,1.4,0.4,1.6,0.6c0.3,0.3,0.5,0.6,0.5,1.1s-0.2,0.9-0.6,1.3c-0.5,0.4-1.1,0.5-1.9,0.5c-0.7,0-1.4-0.2-1.8-0.5C81.4,36,81.1,35.6,80.9,35.1z"/><path d="M28.2,100.3v-5h1.1v4.1h2.5v0.8L28.2,100.3L28.2,100.3z"/><path d="M33.3,97.8l-0.9-0.2c0.1-0.4,0.3-0.6,0.5-0.8c0.3-0.2,0.6-0.3,1.1-0.3s0.8,0.1,1,0.2c0.2,0.1,0.4,0.3,0.5,0.4c0.1,0.2,0.1,0.5,0.1,0.8V99c0,0.3,0,0.5,0.1,0.7s0.1,0.3,0.2,0.5h-1c0-0.1-0.1-0.2-0.1-0.3s0-0.1,0-0.1c-0.2,0.2-0.4,0.3-0.5,0.4c-0.2,0.1-0.4,0.1-0.6,0.1c-0.4,0-0.7-0.1-0.9-0.3c-0.2-0.2-0.4-0.5-0.4-0.7s0.1-0.4,0.2-0.5c0.1-0.2,0.3-0.3,0.5-0.4c0.2-0.1,0.5-0.2,0.8-0.2c0.5-0.1,0.8-0.2,1-0.3v-0.1c0-0.2-0.1-0.3-0.2-0.4c-0.1-0.1-0.3-0.1-0.5-0.1s-0.3,0-0.5,0.1C33.5,97.5,33.4,97.6,33.3,97.8z M34.6,98.6c-0.1,0-0.4,0.1-0.6,0.2c-0.3,0.1-0.5,0.1-0.5,0.2c-0.1,0.1-0.2,0.2-0.2,0.4c0,0.1,0.1,0.3,0.2,0.4c0.1,0.1,0.3,0.2,0.4,0.2c0.2,0,0.4-0.1,0.5-0.2c0.1-0.1,0.2-0.2,0.3-0.3c0-0.1,0-0.3,0-0.5v-0.4H34.6z"/><path d="M36.5,100.3v-5h1v1.8c0.3-0.4,0.6-0.5,1.1-0.5s0.8,0.2,1.2,0.5s0.5,0.8,0.5,1.4c0,0.6-0.2,1.1-0.5,1.5c-0.3,0.4-0.6,0.5-1.1,0.5c-0.2,0-0.5-0.1-0.6-0.2c-0.2-0.1-0.4-0.3-0.5-0.5v0.5C37.6,100.3,36.5,100.3,36.5,100.3z M37.5,98.4c0,0.4,0.1,0.6,0.2,0.8c0.2,0.3,0.4,0.4,0.7,0.4c0.2,0,0.4-0.1,0.5-0.3c0.2-0.2,0.3-0.5,0.3-0.8c0-0.5-0.1-0.7-0.3-0.9c-0.2-0.2-0.4-0.3-0.6-0.3c-0.3,0-0.5,0.1-0.6,0.3C37.5,97.8,37.5,98.1,37.5,98.4z"/><path d="M40.8,98.4c0-0.3,0.1-0.6,0.3-0.9s0.4-0.5,0.7-0.7c0.4-0.2,0.6-0.3,1-0.3c0.5,0,1,0.2,1.4,0.5c0.4,0.4,0.5,0.8,0.5,1.4c0,0.5-0.2,1-0.5,1.4c-0.4,0.4-0.8,0.5-1.4,0.5c-0.4,0-0.6-0.1-1-0.2c-0.4-0.1-0.5-0.4-0.7-0.6C40.9,99.3,40.8,98.9,40.8,98.4z M41.8,98.5c0,0.4,0.1,0.6,0.3,0.8c0.2,0.2,0.4,0.3,0.6,0.3c0.3,0,0.5-0.1,0.6-0.3c0.2-0.2,0.3-0.5,0.3-0.8c0-0.4-0.1-0.6-0.3-0.8s-0.4-0.3-0.6-0.3c-0.3,0-0.5,0.1-0.6,0.3C41.9,97.9,41.8,98.2,41.8,98.5z"/><path d="M46.5,100.3h-1v-3.6h0.9v0.5c0.2-0.3,0.3-0.4,0.5-0.5c0.2-0.1,0.3-0.1,0.5-0.1c0.3,0,0.5,0.1,0.6,0.2l-0.3,0.8c-0.2-0.1-0.4-0.2-0.5-0.2c-0.2,0-0.3,0-0.4,0.1c-0.1,0.1-0.2,0.2-0.3,0.4c-0.1,0.2-0.1,0.6-0.1,1.2C46.5,99.2,46.5,100.3,46.5,100.3z"/><path d="M49.1,97.8l-0.9-0.2c0.1-0.4,0.3-0.6,0.5-0.8c0.3-0.2,0.6-0.3,1.1-0.3s0.8,0.1,1,0.2c0.2,0.1,0.4,0.3,0.5,0.4c0.1,0.2,0.1,0.5,0.1,0.8V99c0,0.3,0,0.5,0.1,0.7s0.1,0.3,0.2,0.5h-1c0-0.1-0.1-0.2-0.1-0.3s0-0.1,0-0.1c-0.2,0.2-0.4,0.3-0.5,0.4c-0.2,0.1-0.4,0.1-0.6,0.1c-0.4,0-0.7-0.1-0.9-0.3c-0.2-0.2-0.4-0.5-0.4-0.7s0.1-0.4,0.2-0.5c0.1-0.2,0.3-0.3,0.5-0.4c0.2-0.1,0.5-0.2,0.8-0.2c0.5-0.1,0.8-0.2,1-0.3v-0.1c0-0.2-0.1-0.3-0.2-0.4c-0.1-0.1-0.3-0.1-0.5-0.1s-0.3,0-0.5,0.1C49.2,97.5,49.1,97.6,49.1,97.8z M50.4,98.6c-0.1,0-0.4,0.1-0.6,0.2c-0.3,0.1-0.5,0.1-0.5,0.2c-0.1,0.1-0.2,0.2-0.2,0.4c0,0.1,0.1,0.3,0.2,0.4c0.1,0.1,0.3,0.2,0.4,0.2c0.2,0,0.4-0.1,0.5-0.2c0.1-0.1,0.2-0.2,0.3-0.3c0-0.1,0-0.3,0-0.5v-0.4H50.4z"/><path d="M52.3,100.3v-5h1v1.8c0.3-0.4,0.6-0.5,1.1-0.5s0.8,0.2,1.2,0.5s0.5,0.8,0.5,1.4c0,0.6-0.2,1.1-0.5,1.5c-0.3,0.4-0.6,0.5-1.1,0.5c-0.2,0-0.5-0.1-0.6-0.2c-0.2-0.1-0.4-0.3-0.5-0.5v0.5C53.4,100.3,52.3,100.3,52.3,100.3z M53.3,98.4c0,0.4,0.1,0.6,0.2,0.8c0.2,0.3,0.4,0.4,0.7,0.4c0.2,0,0.4-0.1,0.5-0.3c0.2-0.2,0.3-0.5,0.3-0.8c0-0.5-0.1-0.7-0.3-0.9c-0.2-0.2-0.4-0.3-0.6-0.3s-0.5,0.1-0.6,0.3C53.3,97.8,53.3,98.1,53.3,98.4z"/><path d="M56.8,100.3v-5h1v5H56.8z"/><path d="M61,99.2l1,0.2c-0.1,0.4-0.4,0.6-0.6,0.8c-0.3,0.2-0.6,0.3-1,0.3c-0.6,0-1.2-0.2-1.5-0.6c-0.3-0.4-0.4-0.7-0.4-1.3s0.2-1.1,0.5-1.5c0.3-0.4,0.7-0.5,1.3-0.5s1,0.2,1.4,0.5c0.4,0.4,0.5,0.9,0.5,1.6h-2.5c0,0.3,0.1,0.5,0.3,0.6c0.2,0.2,0.4,0.3,0.5,0.3s0.3,0,0.4-0.1C60.9,99.4,60.9,99.3,61,99.2z M61.1,98.2c0-0.3-0.1-0.5-0.2-0.6c-0.2-0.2-0.3-0.2-0.5-0.2s-0.4,0.1-0.5,0.3c-0.2,0.2-0.2,0.4-0.2,0.6L61.1,98.2C61.1,98.3,61.1,98.2,61.1,98.2z"/><path d="M62.5,99.3l1-0.2c0,0.2,0.1,0.4,0.3,0.5c0.1,0.1,0.3,0.2,0.5,0.2s0.5,0,0.5-0.2c0.1-0.1,0.1-0.2,0.1-0.3s0-0.1-0.1-0.2c-0.1,0-0.2-0.1-0.4-0.1c-0.8-0.2-1.3-0.4-1.5-0.5c-0.3-0.2-0.5-0.5-0.5-0.8s0.1-0.5,0.4-0.8c0.3-0.2,0.6-0.4,1.2-0.4c0.6,0,0.9,0.1,1.2,0.3c0.3,0.2,0.5,0.4,0.5,0.7l-0.9,0.2c0-0.2-0.1-0.3-0.3-0.4c-0.1-0.1-0.3-0.1-0.5-0.1c-0.3,0-0.5,0-0.5,0.1c-0.1,0.1-0.1,0.1-0.1,0.2c0,0.1,0,0.1,0.1,0.2c0.1,0.1,0.4,0.2,0.9,0.3c0.5,0.1,0.9,0.3,1.1,0.5s0.3,0.4,0.3,0.7c0,0.4-0.2,0.6-0.5,0.8c-0.3,0.3-0.7,0.4-1.3,0.4c-0.5,0-0.9-0.1-1.2-0.3C62.8,99.9,62.6,99.6,62.5,99.3z"/><path d="M72.4,100.3h-0.9v-0.5c-0.2,0.2-0.4,0.4-0.5,0.5c-0.2,0.1-0.5,0.2-0.6,0.2c-0.5,0-0.8-0.2-1.1-0.5c-0.3-0.4-0.5-0.8-0.5-1.4c0-0.6,0.2-1.1,0.5-1.4c0.3-0.4,0.6-0.5,1.2-0.5c0.5,0,0.8,0.2,1.1,0.5v-1.8h1L72.4,100.3L72.4,100.3z M69.7,98.4c0,0.4,0.1,0.6,0.2,0.8c0.2,0.3,0.4,0.4,0.6,0.4s0.5-0.1,0.5-0.3c0.2-0.2,0.3-0.5,0.3-0.8c0-0.5-0.1-0.7-0.3-0.9c-0.2-0.2-0.4-0.3-0.6-0.3c-0.3,0-0.5,0.1-0.6,0.3C69.8,97.8,69.7,98.1,69.7,98.4z"/><path d="M73.4,96.2v-0.9h1v0.9H73.4z M73.4,100.3v-3.6h1v3.6H73.4z"/><path d="M75.4,100.3v-5h1v5H75.4z"/><path d="M77.5,100.3v-5h1v5H77.5z"/><path d="M81.9,100.3v-0.5c-0.2,0.2-0.3,0.4-0.5,0.5c-0.3,0.1-0.5,0.2-0.7,0.2s-0.5-0.1-0.7-0.2c-0.3-0.1-0.4-0.3-0.5-0.5s-0.1-0.5-0.1-0.8v-2.3h1v1.6c0,0.5,0,0.8,0.1,0.9c0,0.1,0.1,0.2,0.2,0.3s0.2,0.1,0.4,0.1c0.2,0,0.4,0,0.5-0.1c0.1-0.1,0.3-0.2,0.3-0.4c0-0.2,0.1-0.5,0.1-1v-1.5h1v3.6L81.9,100.3L81.9,100.3z"/><path d="M87.3,100.3h-1v-1.8c0-0.4,0-0.6-0.1-0.7c-0.1-0.1-0.1-0.2-0.2-0.3s-0.2-0.1-0.4-0.1c-0.2,0-0.4,0-0.5,0.2s-0.3,0.2-0.3,0.4c0,0.2-0.1,0.5-0.1,0.8v1.6h-1v-3.6h0.9v0.5c0.4-0.5,0.7-0.6,1.3-0.6c0.2,0,0.5,0,0.6,0.1c0.2,0.1,0.4,0.2,0.5,0.3c0.1,0.1,0.2,0.3,0.2,0.4c0,0.1,0.1,0.4,0.1,0.6V100.3L87.3,100.3z"/><path d="M88,99.3l1-0.2c0,0.2,0.1,0.4,0.3,0.5c0.1,0.1,0.3,0.2,0.5,0.2c0.3,0,0.5,0,0.5-0.2c0.1-0.1,0.1-0.2,0.1-0.3s0-0.1-0.1-0.2c-0.1,0-0.2-0.1-0.4-0.1c-0.8-0.2-1.3-0.4-1.5-0.5c-0.3-0.2-0.5-0.5-0.5-0.8s0.1-0.5,0.4-0.8s0.6-0.4,1.2-0.4c0.5,0,0.9,0.1,1.2,0.3c0.3,0.2,0.5,0.4,0.5,0.7l-0.9,0.2c0-0.2-0.1-0.3-0.3-0.4c-0.1-0.1-0.3-0.1-0.5-0.1c-0.3,0-0.5,0-0.5,0.1c0,0.1,0,0.1,0,0.2c0,0.1,0,0.1,0.1,0.2c0.1,0.1,0.4,0.2,0.9,0.3c0.5,0.1,0.9,0.3,1.1,0.5s0.3,0.4,0.3,0.7c0,0.4-0.2,0.6-0.5,0.8c-0.3,0.3-0.7,0.4-1.3,0.4s-0.9-0.1-1.2-0.3C88.3,99.9,88.1,99.6,88,99.3z"/><path d="M30.7,104.3l-0.9-0.2c0.1-0.4,0.3-0.6,0.5-0.8c0.3-0.2,0.6-0.3,1.1-0.3s0.8,0.1,1,0.2c0.2,0.1,0.4,0.3,0.5,0.4c0.1,0.1,0.1,0.5,0.1,0.8v1.1c0,0.3,0,0.5,0.1,0.7c0,0.2,0.1,0.3,0.2,0.5h-1c0-0.1-0.1-0.2-0.1-0.3s0-0.1,0-0.1c-0.2,0.2-0.4,0.3-0.5,0.4c-0.2,0.1-0.4,0.1-0.6,0.1c-0.4,0-0.7-0.1-0.9-0.3c-0.2-0.2-0.4-0.5-0.4-0.7s0.1-0.4,0.2-0.5c0.1-0.2,0.3-0.3,0.5-0.4c0.2-0.1,0.5-0.2,0.8-0.2c0.5-0.1,0.8-0.2,1-0.3v-0.1c0-0.2-0.1-0.3-0.2-0.4c-0.1-0.1-0.3-0.1-0.5-0.1s-0.3,0-0.5,0.1C30.8,104,30.7,104.1,30.7,104.3z M32,105.1c-0.1,0-0.4,0.1-0.6,0.2c-0.3,0.1-0.5,0.1-0.5,0.2c-0.1,0.1-0.2,0.2-0.2,0.4c0,0.1,0.1,0.3,0.2,0.4c0.1,0.1,0.3,0.2,0.4,0.2c0.2,0,0.4-0.1,0.5-0.2c0.1-0.1,0.2-0.2,0.3-0.3c0-0.1,0-0.3,0-0.5L32,105.1L32,105.1z"/><path d="M39.5,106.8h-0.9v-0.5c-0.2,0.2-0.4,0.4-0.5,0.5c-0.2,0.1-0.5,0.2-0.6,0.2c-0.5,0-0.8-0.2-1.1-0.5c-0.3-0.4-0.5-0.8-0.5-1.4c0-0.6,0.2-1.1,0.5-1.4s0.6-0.5,1.2-0.5c0.5,0,0.8,0.2,1.1,0.5v-1.8h1L39.5,106.8L39.5,106.8z M36.8,104.9c0,0.4,0.1,0.6,0.2,0.8c0.2,0.3,0.4,0.4,0.6,0.4c0.3,0,0.5-0.1,0.5-0.3c0.2-0.2,0.3-0.5,0.3-0.8c0-0.5-0.1-0.7-0.3-0.9c-0.2-0.2-0.4-0.3-0.6-0.3c-0.3,0-0.5,0.1-0.6,0.3C36.9,104.3,36.8,104.5,36.8,104.9z"/><path d="M40.5,102.7v-0.9h1v0.9H40.5z M40.5,106.8v-3.6h1v3.6H40.5z"/><path d="M43.5,106.8l-1.5-3.6h1.1l0.7,1.8l0.2,0.6c0.1-0.2,0.1-0.3,0.1-0.3c0-0.1,0.1-0.2,0.1-0.3l0.7-1.8h1l-1.5,3.6L43.5,106.8L43.5,106.8z"/><path d="M48.7,105.6l1,0.2c-0.1,0.4-0.4,0.6-0.6,0.8c-0.3,0.2-0.6,0.3-1,0.3c-0.6,0-1.2-0.2-1.5-0.6c-0.3-0.4-0.4-0.7-0.4-1.3c0-0.6,0.2-1.1,0.5-1.5c0.3-0.4,0.7-0.5,1.3-0.5s1,0.2,1.4,0.5c0.4,0.4,0.5,0.9,0.5,1.6h-2.5c0,0.3,0.1,0.5,0.3,0.6c0.2,0.1,0.4,0.3,0.5,0.3c0.2,0,0.3,0,0.4-0.1C48.5,106,48.6,105.8,48.7,105.6z M48.7,104.6c0-0.3-0.1-0.5-0.2-0.6c-0.1-0.2-0.3-0.2-0.5-0.2s-0.4,0.1-0.5,0.3c-0.2,0.2-0.2,0.4-0.2,0.6L48.7,104.6L48.7,104.6z"/><path d="M54,106.8h-1V105c0-0.4,0-0.6-0.1-0.7c-0.1-0.1-0.1-0.2-0.2-0.3c-0.1-0.1-0.2-0.1-0.4-0.1s-0.4,0-0.5,0.2s-0.3,0.2-0.3,0.4c0,0.2-0.1,0.5-0.1,0.8v1.6h-1v-3.6h0.9v0.5c0.4-0.4,0.7-0.6,1.3-0.6c0.2,0,0.5,0,0.6,0.1c0.2,0.1,0.4,0.2,0.5,0.3c0.1,0.1,0.2,0.3,0.2,0.4c0,0.1,0.1,0.4,0.1,0.6V106.8L54,106.8z"/><path d="M58.5,106.8h-0.9v-0.5c-0.2,0.2-0.4,0.4-0.5,0.5c-0.2,0.1-0.5,0.2-0.6,0.2c-0.5,0-0.8-0.2-1.1-0.5s-0.5-0.8-0.5-1.4c0-0.6,0.2-1.1,0.5-1.4s0.6-0.5,1.2-0.5c0.5,0,0.8,0.2,1.1,0.5v-1.8h1L58.5,106.8L58.5,106.8z M55.8,104.9c0,0.4,0.1,0.6,0.2,0.8c0.2,0.3,0.4,0.4,0.6,0.4c0.3,0,0.5-0.1,0.5-0.3c0.2-0.2,0.3-0.5,0.3-0.8c0-0.5-0.1-0.7-0.3-0.9c-0.2-0.2-0.4-0.3-0.6-0.3c-0.3,0-0.5,0.1-0.6,0.3C55.9,104.3,55.8,104.5,55.8,104.9z"/><path d="M60.5,106.8h-1v-3.6h0.9v0.5c0.2-0.3,0.3-0.4,0.5-0.5c0.2-0.1,0.3-0.1,0.5-0.1c0.3,0,0.5,0.1,0.6,0.2l-0.3,0.8c-0.2-0.1-0.4-0.2-0.5-0.2c-0.2,0-0.3,0-0.4,0.1c-0.1,0.1-0.2,0.2-0.3,0.4c-0.1,0.2-0.1,0.6-0.1,1.2C60.5,105.6,60.5,106.8,60.5,106.8z"/><path d="M64.5,105.6l1,0.2c-0.1,0.4-0.4,0.6-0.6,0.8c-0.3,0.2-0.6,0.3-1,0.3c-0.6,0-1.2-0.2-1.5-0.6c-0.3-0.4-0.4-0.7-0.4-1.3c0-0.6,0.2-1.1,0.5-1.5c0.3-0.4,0.7-0.5,1.3-0.5s1,0.2,1.4,0.5c0.4,0.4,0.5,0.9,0.5,1.6H63c0,0.3,0.1,0.5,0.3,0.6c0.2,0.2,0.4,0.3,0.5,0.3s0.3,0,0.4-0.1C64.4,106,64.5,105.8,64.5,105.6z M64.5,104.6c0-0.3-0.1-0.5-0.2-0.6c-0.1-0.2-0.3-0.2-0.5-0.2c-0.2,0-0.4,0.1-0.5,0.3c-0.2,0.2-0.2,0.4-0.2,0.6L64.5,104.6L64.5,104.6z"/><path d="M66,105.7l1-0.2c0,0.2,0.1,0.4,0.3,0.5c0.1,0.1,0.3,0.2,0.5,0.2c0.3,0,0.5,0,0.5-0.2c0.1-0.1,0.1-0.2,0.1-0.3c0-0.1,0-0.1-0.1-0.2c-0.1,0-0.2-0.1-0.4-0.1c-0.8-0.2-1.3-0.4-1.5-0.5c-0.3-0.2-0.5-0.5-0.5-0.8s0.1-0.5,0.4-0.8c0.3-0.2,0.6-0.4,1.2-0.4c0.5,0,0.9,0.1,1.2,0.3c0.3,0.2,0.5,0.4,0.5,0.7l-0.9,0.2c0-0.2-0.1-0.3-0.3-0.4c-0.1-0.1-0.3-0.1-0.5-0.1c-0.3,0-0.5,0-0.5,0.1c-0.1,0.1-0.1,0.1-0.1,0.2c0,0.1,0,0.1,0.1,0.2c0.1,0.1,0.4,0.2,0.9,0.3c0.5,0.1,0.9,0.3,1.1,0.5s0.3,0.4,0.3,0.7c0,0.4-0.2,0.6-0.5,0.8c-0.3,0.3-0.7,0.4-1.3,0.4c-0.5,0-0.9-0.1-1.2-0.3C66.3,106.3,66.1,106.1,66,105.7z"/><path d="M72.2,102.7v-0.9h3.5v0.7c-0.3,0.3-0.5,0.6-0.8,1.2c-0.3,0.5-0.5,1-0.6,1.5c-0.2,0.5-0.3,1.1-0.2,1.5h-1c0-0.7,0.2-1.4,0.5-2.1s0.6-1.4,1.1-1.9H72.2L72.2,102.7z"/><path d="M76.9,105.4v-1h2v1H76.9z"/><path d="M84,105.9v0.9h-3.5c0-0.4,0.2-0.6,0.4-1c0.2-0.3,0.5-0.7,1.1-1.2c0.5-0.4,0.7-0.6,0.8-0.8c0.2-0.2,0.2-0.4,0.2-0.5c0-0.1-0.1-0.4-0.2-0.5c-0.1-0.1-0.3-0.2-0.5-0.2s-0.4,0.1-0.5,0.2c-0.1,0.1-0.2,0.4-0.2,0.6l-1-0.1c0.1-0.5,0.3-0.9,0.5-1.1c0.3-0.3,0.7-0.4,1.2-0.4s0.9,0.1,1.2,0.4c0.3,0.3,0.5,0.6,0.5,1c0,0.2,0,0.5-0.1,0.6c-0.1,0.2-0.2,0.5-0.4,0.6c-0.1,0.2-0.4,0.4-0.6,0.6c-0.3,0.3-0.5,0.5-0.6,0.5c-0.1,0.1-0.2,0.2-0.2,0.3L84,105.9L84,105.9z"/><path d="M86.4,101.8c0.5,0,0.9,0.2,1.2,0.5c0.4,0.4,0.5,1.1,0.5,2c0,0.9-0.2,1.6-0.5,2c-0.3,0.4-0.6,0.5-1.2,0.5c-0.5,0-0.9-0.2-1.2-0.5c-0.3-0.4-0.5-1-0.5-2c0-0.9,0.2-1.6,0.5-2C85.5,101.9,85.9,101.8,86.4,101.8z M86.4,102.5c-0.1,0-0.3,0-0.4,0.1c-0.1,0.1-0.2,0.2-0.2,0.4c-0.1,0.3-0.1,0.6-0.1,1.3c0,0.5,0,1,0.1,1.2s0.2,0.4,0.3,0.5c0.1,0.1,0.2,0.1,0.4,0.1s0.3,0,0.4-0.1c0.1-0.1,0.2-0.2,0.2-0.4c0.1-0.3,0.1-0.6,0.1-1.3c0-0.5,0-1-0.1-1.2s-0.2-0.4-0.3-0.5C86.6,102.6,86.5,102.5,86.4,102.5z"/><path d="M90,101.8v1.8c0.4-0.4,0.7-0.5,1.2-0.5c0.3,0,0.5,0,0.6,0.1c0.2,0.1,0.4,0.2,0.5,0.3s0.2,0.3,0.2,0.5s0.1,0.4,0.1,0.7v2.1h-1v-2c0-0.4,0-0.6-0.1-0.7c0-0.1-0.1-0.2-0.2-0.3s-0.2-0.1-0.4-0.1c-0.2,0-0.3,0-0.5,0.1c-0.2,0.1-0.2,0.2-0.3,0.4c-0.1,0.2-0.1,0.4-0.1,0.7v1.8h-1v-5L90,101.8L90,101.8z"/><polygon opacity="0.4" fill="#FFFFFF" enable-background="new    " points="54.4,40.6 53.4,40.9 51.5,41.4 49.3,42.3 47.7,43.1 46,44.2 44.7,45 43.3,46.1 42,47.3 40.5,48.6 48.6,50.6 49.5,49.9 50.8,49.3 51.7,48.7 52.4,48.4 53.3,48.1 54.1,47.8 55,47.5 55.8,47.3 56.9,47.2 57.5,47 58.5,46.9 59.2,46.9 60.4,46.9 61.5,46.9 62.4,47 63.2,47.2 64.3,47.3 65.4,47.5 66.3,47.9 67.3,48.3 68.3,48.7 69.3,49.3 70.2,49.8 71.6,50.8 80,49.3 79.3,48.6 78.6,47.9 77.6,46.9 76.8,46.3 75.8,45.4 74.5,44.5 73.2,43.6 71.6,42.8 70.3,42.2 69.5,41.8 68.4,41.4 67.5,41.2 66.5,40.9 65.6,40.6 64.7,40.5 63.6,40.3 62.3,40.1 61.3,40 60.6,40 60.3,40 59.3,40 58.5,40 57.6,40.1 56.6,40.3"/></g><g id="normal"><path fill="#FFFFFF" d="M105.2,4.8H14.8c-2.7,0-5,2.3-5,5v100.4c0,2.7,2.3,5,5,5h90.4c2.7,0,5-2.3,5-5V9.8C110.2,7.1,107.9,4.8,105.2,4.8z M108.5,110.2c0,1.8-1.5,3.4-3.4,3.4H14.8c-1.8,0-3.4-1.5-3.4-3.4V9.8c0-1.8,1.5-3.4,3.4-3.4h90.4c1.8,0,3.4,1.5,3.4,3.4C108.5,9.8,108.5,110.2,108.5,110.2z"/><path fill="#FFFFFF" d="M105.2,6.4H14.8c-1.8,0-3.4,1.5-3.4,3.4v100.4c0,1.8,1.5,3.4,3.4,3.4h90.4c1.8,0,3.4-1.5,3.4-3.4V9.8C108.5,8,107,6.4,105.2,6.4z"/><path fill="#04B2BC" d="M104.6,6.5H15.4c-2.6,0-4,1.4-4,4v99c0,2.6,1.4,4,4,4h89.3c2.6,0,4-1.3,4-4V10.4C108.6,7.9,107.3,6.5,104.6,6.5z M105.2,106.8c0,1.8-1.5,3.3-3.3,3.3H18.1c-1.8,0-3.3-1.5-3.3-3.3v-87c0-1.8,1.5-3.3,3.3-3.3h83.8c1.8,0,3.3,1.5,3.3,3.3C105.2,19.8,105.2,106.8,105.2,106.8z"/><path fill="#FF0000" d="M60,40c-14.4,0-26.1,11.6-26.1,26.1S45.6,92.2,60,92.2s26.1-11.6,26.1-26.1S74.4,40,60,40z M60,85.3c-10.5,0-19.2-8.6-19.2-19.2S49.5,46.9,60,46.9s19.2,8.6,19.2,19.2S70.5,85.3,60,85.3z"/><path d="M27.8,27.9v-1.4l4.1-4.8h-3.6v-1.3H34v1.2l-4.3,5h4.5v1.3C34.2,27.9,27.8,27.9,27.8,27.9z"/><path d="M34.8,25.1c0-0.5,0.1-0.9,0.4-1.4c0.3-0.5,0.6-0.8,1-1c0.5-0.3,0.9-0.4,1.5-0.4c0.8,0,1.5,0.3,2.1,0.8c0.5,0.5,0.8,1.2,0.8,2s-0.3,1.5-0.8,2s-1.3,0.8-2.1,0.8c-0.5,0-1-0.1-1.5-0.4s-0.8-0.5-1.1-1C34.9,26.3,34.8,25.7,34.8,25.1z M36.3,25.2c0,0.5,0.1,0.9,0.4,1.3c0.3,0.3,0.6,0.5,1,0.5s0.7-0.2,1-0.5s0.4-0.7,0.4-1.3c0-0.5-0.1-0.9-0.4-1.3c-0.3-0.3-0.6-0.5-1-0.5s-0.7,0.2-1,0.5C36.5,24.2,36.3,24.6,36.3,25.2z"/><path d="M46.9,27.9h-1.5v-2.7c0-0.5,0-1-0.1-1.2s-0.2-0.3-0.3-0.4s-0.3-0.2-0.5-0.2s-0.5,0.1-0.7,0.2c-0.2,0.2-0.4,0.3-0.5,0.5s-0.1,0.6-0.1,1.3v2.5h-1.5v-5.5h1.4v0.8c0.5-0.6,1.1-0.9,1.9-0.9c0.4,0,0.6,0.1,0.9,0.2s0.5,0.3,0.6,0.5c0.2,0.2,0.3,0.4,0.3,0.6s0.1,0.5,0.1,1L46.9,27.9L46.9,27.9z"/><path d="M49.5,24.1l-1.4-0.2c0.2-0.5,0.5-0.9,0.8-1.2c0.4-0.3,0.9-0.4,1.6-0.4c0.6,0,1.2,0.1,1.5,0.3c0.4,0.2,0.5,0.4,0.7,0.5c0.1,0.3,0.2,0.6,0.2,1.3V26c0,0.5,0,0.8,0.1,1.1c0.1,0.2,0.2,0.5,0.3,0.7h-1.5c0-0.1-0.1-0.3-0.2-0.5c0-0.1,0-0.2-0.1-0.2c-0.3,0.3-0.5,0.5-0.8,0.5c-0.3,0.1-0.6,0.2-0.9,0.2c-0.5,0-1-0.2-1.4-0.5c-0.2,0-0.4-0.5-0.4-1c0-0.3,0.1-0.5,0.3-0.8s0.4-0.5,0.6-0.5s0.6-0.3,1.2-0.4c0.7-0.1,1.2-0.3,1.5-0.4V24c0-0.3-0.1-0.5-0.2-0.5c-0.1-0.1-0.5-0.2-0.8-0.2s-0.5,0.1-0.6,0.2C49.8,23.7,49.6,23.9,49.5,24.1z M51.5,25.3c-0.2,0.1-0.5,0.1-0.9,0.2c-0.5,0.1-0.6,0.2-0.8,0.3c-0.2,0.1-0.3,0.3-0.3,0.5s0.1,0.4,0.3,0.5C50,27,50.2,27,50.4,27c0.3,0,0.5-0.1,0.7-0.3c0.2-0.1,0.3-0.3,0.4-0.5c0-0.1,0.1-0.4,0.1-0.7L51.5,25.3L51.5,25.3z"/><path d="M57.5,20.3h3.1c0.6,0,1.1,0,1.4,0.1c0.3,0.1,0.5,0.2,0.8,0.3c0.3,0.1,0.5,0.4,0.6,0.6s0.3,0.5,0.3,0.9s-0.1,0.6-0.3,1s-0.5,0.5-0.8,0.6c0.5,0.1,0.8,0.4,1.1,0.6c0.3,0.4,0.4,0.7,0.4,1.1s-0.1,0.6-0.3,1s-0.4,0.5-0.6,0.7c-0.3,0.2-0.6,0.3-1.1,0.4c-0.3,0-0.9,0-1.9,0.1h-2.6C57.5,27.8,57.5,20.3,57.5,20.3z M59.2,21.6v1.7h1c0.6,0,1,0,1.2,0c0.3,0,0.5-0.1,0.6-0.3s0.3-0.4,0.3-0.5c0-0.3-0.1-0.5-0.2-0.5c-0.1-0.2-0.4-0.3-0.6-0.3c-0.2,0-0.6,0-1.4,0L59.2,21.6C59.2,21.7,59.2,21.6,59.2,21.6z M59.2,24.6v2h1.5c0.5,0,0.9,0,1.1-0.1c0.3,0,0.5-0.2,0.5-0.3c0.1-0.1,0.2-0.4,0.2-0.6s-0.1-0.5-0.2-0.5c-0.1-0.1-0.3-0.3-0.5-0.4s-0.6-0.1-1.4-0.1H59.2z"/><path d="M66.5,24.1l-1.4-0.2c0.2-0.5,0.5-0.9,0.8-1.2c0.4-0.3,0.9-0.4,1.6-0.4c0.6,0,1.2,0.1,1.5,0.3c0.4,0.2,0.5,0.4,0.7,0.5c0.1,0.3,0.2,0.6,0.2,1.3V26c0,0.5,0,0.8,0.1,1.1c0.1,0.2,0.2,0.5,0.3,0.7h-1.5c0-0.1-0.1-0.3-0.2-0.5c0-0.1,0-0.2-0.1-0.2c-0.3,0.3-0.5,0.5-0.8,0.5c-0.3,0.1-0.6,0.2-0.9,0.2c-0.5,0-1-0.2-1.4-0.5c-0.2,0-0.4-0.5-0.4-1c0-0.3,0.1-0.5,0.3-0.8c0.2-0.3,0.4-0.5,0.6-0.5s0.6-0.3,1.2-0.4c0.7-0.1,1.2-0.3,1.5-0.4V24c0-0.3-0.1-0.5-0.2-0.5c-0.1-0.1-0.5-0.2-0.8-0.2s-0.5,0.1-0.6,0.2C66.7,23.7,66.6,23.9,66.5,24.1z M68.5,25.3c-0.2,0.1-0.5,0.1-0.9,0.2c-0.5,0.1-0.7,0.2-0.8,0.3c-0.2,0.1-0.3,0.3-0.3,0.5s0.1,0.4,0.3,0.5C67,27,67.2,27,67.4,27s0.5-0.1,0.7-0.3c0.2-0.1,0.3-0.3,0.4-0.5c0-0.1,0.1-0.4,0.1-0.7L68.5,25.3L68.5,25.3z"/><path d="M71.5,21.7v-1.4H73v1.4H71.5z M71.5,27.9v-5.5H73v5.5H71.5z"/><path d="M73.8,27.9l2-2.8l-2-2.6h1.8l1,1.5l1.1-1.5h1.7L77.5,25l2.1,2.8h-1.8l-1.2-1.7l-1.1,1.7L73.8,27.9L73.8,27.9z"/><path d="M83.9,26.2l1.5,0.3c-0.2,0.5-0.5,0.9-0.9,1.2s-0.9,0.5-1.5,0.5c-1,0-1.7-0.3-2.2-0.9c-0.4-0.5-0.5-1.1-0.5-1.9c0-0.9,0.3-1.6,0.7-2.1s1.1-0.7,1.8-0.7c0.8,0,1.5,0.3,2,0.8s0.7,1.4,0.7,2.5h-3.7c0,0.5,0.1,0.7,0.4,1s0.5,0.4,0.8,0.4s0.5-0.1,0.6-0.2C83.6,26.6,83.8,26.4,83.9,26.2z M83.9,24.7c0-0.5-0.1-0.7-0.4-0.9c-0.3-0.2-0.5-0.4-0.8-0.4s-0.6,0.1-0.8,0.4c-0.2,0.3-0.3,0.5-0.3,0.9H83.9z"/><path d="M86.1,26.3l1.5-0.2c0.1,0.3,0.2,0.5,0.4,0.6c0.2,0.2,0.5,0.2,0.8,0.2c0.4,0,0.6-0.1,0.9-0.2c0.1-0.1,0.2-0.2,0.2-0.4c0-0.1,0-0.2-0.1-0.3c-0.1-0.1-0.3-0.1-0.5-0.2c-1.2-0.3-2-0.5-2.3-0.7c-0.5-0.3-0.6-0.7-0.6-1.2s0.2-0.9,0.5-1.2c0.4-0.4,1-0.5,1.8-0.5s1.4,0.1,1.7,0.4s0.6,0.6,0.8,1.1L89.7,24c-0.1-0.2-0.2-0.4-0.4-0.5c-0.2-0.1-0.5-0.2-0.7-0.2c-0.4,0-0.6,0.1-0.8,0.2c-0.1,0.1-0.2,0.2-0.2,0.3s0.1,0.2,0.2,0.3c0.1,0.1,0.6,0.3,1.4,0.4c0.7,0.1,1.4,0.4,1.6,0.6c0.3,0.3,0.5,0.6,0.5,1.1s-0.2,0.9-0.6,1.3c-0.5,0.4-1.1,0.5-1.9,0.5c-0.7,0-1.4-0.2-1.8-0.5C86.5,27.4,86.3,26.8,86.1,26.3z"/><path d="M32.9,36.6v-7.5h5.8v1.3h-4.2V32h3.9v1.3h-3.9v2h4.4v1.3H32.9z"/><path d="M40.1,31.2h1.4v0.7c0.5-0.5,1.1-0.9,1.7-0.9c0.4,0,0.6,0.1,0.9,0.2c0.3,0.1,0.5,0.4,0.6,0.6c0.3-0.3,0.5-0.5,0.8-0.6s0.6-0.2,0.9-0.2c0.5,0,0.7,0.1,1.1,0.3c0.4,0.2,0.5,0.4,0.6,0.7c0.1,0.3,0.2,0.6,0.2,1.1v3.5h-1.5v-3.1c0-0.5-0.1-0.9-0.2-1c-0.2-0.2-0.4-0.3-0.6-0.3c-0.2,0-0.4,0.1-0.6,0.2c-0.3,0.1-0.3,0.3-0.4,0.5c0,0.4,0,0.7,0,1.2v2.5h-1.5v-3c0-0.5,0-0.9-0.1-1c-0.1-0.2-0.1-0.3-0.3-0.4c-0.1-0.1-0.3-0.1-0.5-0.1c-0.3,0-0.5,0.1-0.6,0.2c-0.2,0.1-0.3,0.3-0.4,0.5c-0.1,0.3-0.1,0.6-0.1,1.1v2.6H40L40.1,31.2L40.1,31.2z"/><path d="M49.9,30.4V29h1.5v1.4H49.9z M49.9,36.6v-5.5h1.5v5.5H49.9z"/><path d="M52.5,35.1l1.5-0.2c0.1,0.3,0.2,0.5,0.4,0.6c0.2,0.2,0.5,0.2,0.8,0.2c0.4,0,0.6-0.1,0.9-0.2c0.1-0.1,0.2-0.2,0.2-0.4c0-0.1,0-0.2-0.1-0.3s-0.3-0.1-0.5-0.2c-1.2-0.3-2-0.5-2.3-0.7c-0.5-0.3-0.6-0.7-0.6-1.2s0.2-0.9,0.5-1.2c0.4-0.4,1-0.5,1.8-0.5s1.4,0.1,1.7,0.4c0.4,0.3,0.6,0.6,0.8,1.1l-1.5,0.3c-0.1-0.2-0.2-0.4-0.4-0.5s-0.5-0.4-0.8-0.4c-0.4,0-0.6,0.1-0.8,0.2c-0.1,0.1-0.2,0.2-0.2,0.3s0.1,0.2,0.2,0.3c0.1,0.1,0.6,0.3,1.4,0.4c0.7,0.1,1.4,0.4,1.6,0.6c0.3,0.3,0.5,0.6,0.5,1.1s-0.2,0.9-0.6,1.3c-0.5,0.4-1.1,0.5-1.9,0.5c-0.7,0-1.4-0.2-1.8-0.5C52.8,36,52.5,35.6,52.5,35.1z"/><path d="M58.5,35.1l1.5-0.2c0.1,0.3,0.2,0.5,0.4,0.6s0.5,0.2,0.8,0.2c0.4,0,0.6-0.1,0.9-0.2c0.1-0.1,0.2-0.2,0.2-0.4c0-0.1,0-0.2-0.1-0.3s-0.3-0.1-0.5-0.2c-1.2-0.3-2-0.5-2.3-0.7c-0.5-0.3-0.6-0.7-0.6-1.2s0.2-0.9,0.5-1.2c0.4-0.4,1-0.5,1.8-0.5s1.4,0.1,1.7,0.4c0.4,0.3,0.6,0.6,0.8,1.1l-1.5,0.3c-0.1-0.2-0.2-0.4-0.4-0.5s-0.4-0.4-0.7-0.4c-0.4,0-0.6,0.1-0.8,0.2c-0.1,0.1-0.2,0.2-0.2,0.3s0.1,0.2,0.2,0.3c0.1,0.1,0.6,0.3,1.4,0.4c0.7,0.1,1.4,0.4,1.6,0.6c0.3,0.3,0.5,0.6,0.5,1.1s-0.2,0.9-0.6,1.3c-0.5,0.4-1.1,0.5-1.9,0.5c-0.7,0-1.4-0.2-1.8-0.5C58.9,36,58.6,35.6,58.5,35.1z"/><path d="M65.1,30.4V29h1.5v1.4H65.1z M65.1,36.6v-5.5h1.5v5.5H65.1z"/><path d="M67.7,33.8c0-0.5,0.1-0.9,0.4-1.4c0.3-0.5,0.6-0.8,1-1c0.5-0.3,0.9-0.4,1.5-0.4c0.8,0,1.5,0.3,2.1,0.8c0.5,0.5,0.8,1.2,0.8,2s-0.3,1.5-0.8,2s-1.3,0.8-2.1,0.8c-0.5,0-1-0.1-1.5-0.4c-0.5-0.2-0.8-0.5-1.1-1C67.9,35,67.7,34.4,67.7,33.8z M69.3,33.9c0,0.5,0.1,0.9,0.4,1.3c0.3,0.3,0.6,0.5,1,0.5s0.7-0.2,1-0.5s0.4-0.7,0.4-1.3c0-0.5-0.1-0.9-0.4-1.3c-0.3-0.3-0.6-0.5-1-0.5s-0.7,0.2-1,0.5C69.5,33,69.3,33.3,69.3,33.9z"/><path d="M79.9,36.6h-1.5v-2.7c0-0.5,0-1-0.1-1.2s-0.2-0.3-0.3-0.4c-0.1-0.1-0.3-0.2-0.5-0.2c-0.3,0-0.5,0.1-0.7,0.2c-0.2,0.2-0.4,0.3-0.5,0.5c-0.1,0.2-0.1,0.6-0.1,1.3v2.5h-1.5v-5.5h1.4v0.8c0.5-0.6,1.1-0.9,1.9-0.9c0.4,0,0.6,0.1,0.9,0.2s0.5,0.3,0.6,0.5c0.2,0.2,0.3,0.4,0.3,0.6c0.1,0.2,0.1,0.5,0.1,1L79.9,36.6L79.9,36.6z"/><path d="M80.9,35.1l1.5-0.2c0.1,0.3,0.2,0.5,0.4,0.6c0.2,0.2,0.5,0.2,0.8,0.2c0.4,0,0.6-0.1,0.9-0.2c0.1-0.1,0.2-0.2,0.2-0.4c0-0.1,0-0.2-0.1-0.3s-0.3-0.1-0.5-0.2c-1.2-0.3-2-0.5-2.3-0.7c-0.5-0.3-0.6-0.7-0.6-1.2s0.2-0.9,0.5-1.2c0.4-0.4,1-0.5,1.8-0.5s1.4,0.1,1.7,0.4s0.6,0.6,0.8,1.1l-1.5,0.3c-0.1-0.2-0.2-0.4-0.4-0.5c-0.2-0.1-0.5-0.4-0.7-0.4c-0.4,0-0.6,0.1-0.8,0.2c-0.1,0.1-0.2,0.2-0.2,0.3s0.1,0.2,0.2,0.3c0.1,0.1,0.6,0.3,1.4,0.4c0.7,0.1,1.4,0.4,1.6,0.6c0.3,0.3,0.5,0.6,0.5,1.1s-0.2,0.9-0.6,1.3c-0.5,0.4-1.1,0.5-1.9,0.5c-0.7,0-1.4-0.2-1.8-0.5C81.4,36,81.1,35.6,80.9,35.1z"/><path d="M28.2,100.3v-5h1.1v4.1h2.5v0.8L28.2,100.3L28.2,100.3z"/><path d="M33.3,97.8l-0.9-0.2c0.1-0.4,0.3-0.6,0.5-0.8c0.3-0.2,0.6-0.3,1.1-0.3s0.8,0.1,1,0.2c0.2,0.1,0.4,0.3,0.5,0.4c0.1,0.2,0.1,0.5,0.1,0.8V99c0,0.3,0,0.5,0.1,0.7s0.1,0.3,0.2,0.5h-1c0-0.1-0.1-0.2-0.1-0.3s0-0.1,0-0.1c-0.2,0.2-0.4,0.3-0.5,0.4c-0.2,0.1-0.4,0.1-0.6,0.1c-0.4,0-0.7-0.1-0.9-0.3c-0.2-0.2-0.4-0.5-0.4-0.7s0.1-0.4,0.2-0.5c0.1-0.2,0.3-0.3,0.5-0.4c0.2-0.1,0.5-0.2,0.8-0.2c0.5-0.1,0.8-0.2,1-0.3v-0.1c0-0.2-0.1-0.3-0.2-0.4c-0.1-0.1-0.3-0.1-0.5-0.1s-0.3,0-0.5,0.1C33.5,97.5,33.4,97.6,33.3,97.8z M34.6,98.6c-0.1,0-0.4,0.1-0.6,0.2c-0.3,0.1-0.5,0.1-0.5,0.2c-0.1,0.1-0.2,0.2-0.2,0.4c0,0.1,0.1,0.3,0.2,0.4c0.1,0.1,0.3,0.2,0.4,0.2c0.2,0,0.4-0.1,0.5-0.2c0.1-0.1,0.2-0.2,0.3-0.3c0-0.1,0-0.3,0-0.5v-0.4H34.6z"/><path d="M36.5,100.3v-5h1v1.8c0.3-0.4,0.6-0.5,1.1-0.5s0.8,0.2,1.2,0.5s0.5,0.8,0.5,1.4c0,0.6-0.2,1.1-0.5,1.5c-0.3,0.4-0.6,0.5-1.1,0.5c-0.2,0-0.5-0.1-0.6-0.2c-0.2-0.1-0.4-0.3-0.5-0.5v0.5C37.6,100.3,36.5,100.3,36.5,100.3z M37.5,98.4c0,0.4,0.1,0.6,0.2,0.8c0.2,0.3,0.4,0.4,0.7,0.4c0.2,0,0.4-0.1,0.5-0.3c0.2-0.2,0.3-0.5,0.3-0.8c0-0.5-0.1-0.7-0.3-0.9c-0.2-0.2-0.4-0.3-0.6-0.3c-0.3,0-0.5,0.1-0.6,0.3C37.5,97.8,37.5,98.1,37.5,98.4z"/><path d="M40.8,98.4c0-0.3,0.1-0.6,0.3-0.9s0.4-0.5,0.7-0.7c0.4-0.2,0.6-0.3,1-0.3c0.5,0,1,0.2,1.4,0.5c0.4,0.4,0.5,0.8,0.5,1.4c0,0.5-0.2,1-0.5,1.4c-0.4,0.4-0.8,0.5-1.4,0.5c-0.4,0-0.6-0.1-1-0.2c-0.4-0.1-0.5-0.4-0.7-0.6C40.9,99.3,40.8,98.9,40.8,98.4z M41.8,98.5c0,0.4,0.1,0.6,0.3,0.8c0.2,0.2,0.4,0.3,0.6,0.3c0.3,0,0.5-0.1,0.6-0.3c0.2-0.2,0.3-0.5,0.3-0.8c0-0.4-0.1-0.6-0.3-0.8s-0.4-0.3-0.6-0.3c-0.3,0-0.5,0.1-0.6,0.3C41.9,97.9,41.8,98.2,41.8,98.5z"/><path d="M46.5,100.3h-1v-3.6h0.9v0.5c0.2-0.3,0.3-0.4,0.5-0.5c0.2-0.1,0.3-0.1,0.5-0.1c0.3,0,0.5,0.1,0.6,0.2l-0.3,0.8c-0.2-0.1-0.4-0.2-0.5-0.2c-0.2,0-0.3,0-0.4,0.1c-0.1,0.1-0.2,0.2-0.3,0.4c-0.1,0.2-0.1,0.6-0.1,1.2C46.5,99.2,46.5,100.3,46.5,100.3z"/><path d="M49.1,97.8l-0.9-0.2c0.1-0.4,0.3-0.6,0.5-0.8c0.3-0.2,0.6-0.3,1.1-0.3s0.8,0.1,1,0.2c0.2,0.1,0.4,0.3,0.5,0.4c0.1,0.2,0.1,0.5,0.1,0.8V99c0,0.3,0,0.5,0.1,0.7s0.1,0.3,0.2,0.5h-1c0-0.1-0.1-0.2-0.1-0.3s0-0.1,0-0.1c-0.2,0.2-0.4,0.3-0.5,0.4c-0.2,0.1-0.4,0.1-0.6,0.1c-0.4,0-0.7-0.1-0.9-0.3c-0.2-0.2-0.4-0.5-0.4-0.7s0.1-0.4,0.2-0.5c0.1-0.2,0.3-0.3,0.5-0.4c0.2-0.1,0.5-0.2,0.8-0.2c0.5-0.1,0.8-0.2,1-0.3v-0.1c0-0.2-0.1-0.3-0.2-0.4c-0.1-0.1-0.3-0.1-0.5-0.1s-0.3,0-0.5,0.1C49.2,97.5,49.1,97.6,49.1,97.8z M50.4,98.6c-0.1,0-0.4,0.1-0.6,0.2c-0.3,0.1-0.5,0.1-0.5,0.2c-0.1,0.1-0.2,0.2-0.2,0.4c0,0.1,0.1,0.3,0.2,0.4c0.1,0.1,0.3,0.2,0.4,0.2c0.2,0,0.4-0.1,0.5-0.2c0.1-0.1,0.2-0.2,0.3-0.3c0-0.1,0-0.3,0-0.5v-0.4H50.4z"/><path d="M52.3,100.3v-5h1v1.8c0.3-0.4,0.6-0.5,1.1-0.5s0.8,0.2,1.2,0.5s0.5,0.8,0.5,1.4c0,0.6-0.2,1.1-0.5,1.5c-0.3,0.4-0.6,0.5-1.1,0.5c-0.2,0-0.5-0.1-0.6-0.2c-0.2-0.1-0.4-0.3-0.5-0.5v0.5C53.4,100.3,52.3,100.3,52.3,100.3z M53.3,98.4c0,0.4,0.1,0.6,0.2,0.8c0.2,0.3,0.4,0.4,0.7,0.4c0.2,0,0.4-0.1,0.5-0.3c0.2-0.2,0.3-0.5,0.3-0.8c0-0.5-0.1-0.7-0.3-0.9c-0.2-0.2-0.4-0.3-0.6-0.3s-0.5,0.1-0.6,0.3C53.3,97.8,53.3,98.1,53.3,98.4z"/><path d="M56.8,100.3v-5h1v5H56.8z"/><path d="M61,99.2l1,0.2c-0.1,0.4-0.4,0.6-0.6,0.8c-0.3,0.2-0.6,0.3-1,0.3c-0.6,0-1.2-0.2-1.5-0.6c-0.3-0.4-0.4-0.7-0.4-1.3s0.2-1.1,0.5-1.5c0.3-0.4,0.7-0.5,1.3-0.5s1,0.2,1.4,0.5c0.4,0.4,0.5,0.9,0.5,1.6h-2.5c0,0.3,0.1,0.5,0.3,0.6c0.2,0.2,0.4,0.3,0.5,0.3s0.3,0,0.4-0.1C60.9,99.4,60.9,99.3,61,99.2z M61.1,98.2c0-0.3-0.1-0.5-0.2-0.6c-0.2-0.2-0.3-0.2-0.5-0.2s-0.4,0.1-0.5,0.3c-0.2,0.2-0.2,0.4-0.2,0.6L61.1,98.2C61.1,98.3,61.1,98.2,61.1,98.2z"/><path d="M62.5,99.3l1-0.2c0,0.2,0.1,0.4,0.3,0.5c0.1,0.1,0.3,0.2,0.5,0.2s0.5,0,0.5-0.2c0.1-0.1,0.1-0.2,0.1-0.3s0-0.1-0.1-0.2c-0.1,0-0.2-0.1-0.4-0.1c-0.8-0.2-1.3-0.4-1.5-0.5c-0.3-0.2-0.5-0.5-0.5-0.8s0.1-0.5,0.4-0.8c0.3-0.2,0.6-0.4,1.2-0.4c0.6,0,0.9,0.1,1.2,0.3c0.3,0.2,0.5,0.4,0.5,0.7l-0.9,0.2c0-0.2-0.1-0.3-0.3-0.4c-0.1-0.1-0.3-0.1-0.5-0.1c-0.3,0-0.5,0-0.5,0.1c-0.1,0.1-0.1,0.1-0.1,0.2c0,0.1,0,0.1,0.1,0.2c0.1,0.1,0.4,0.2,0.9,0.3c0.5,0.1,0.9,0.3,1.1,0.5s0.3,0.4,0.3,0.7c0,0.4-0.2,0.6-0.5,0.8c-0.3,0.3-0.7,0.4-1.3,0.4c-0.5,0-0.9-0.1-1.2-0.3C62.8,99.9,62.6,99.6,62.5,99.3z"/><path d="M72.4,100.3h-0.9v-0.5c-0.2,0.2-0.4,0.4-0.5,0.5c-0.2,0.1-0.5,0.2-0.6,0.2c-0.5,0-0.8-0.2-1.1-0.5c-0.3-0.4-0.5-0.8-0.5-1.4c0-0.6,0.2-1.1,0.5-1.4c0.3-0.4,0.6-0.5,1.2-0.5c0.5,0,0.8,0.2,1.1,0.5v-1.8h1L72.4,100.3L72.4,100.3z M69.7,98.4c0,0.4,0.1,0.6,0.2,0.8c0.2,0.3,0.4,0.4,0.6,0.4s0.5-0.1,0.5-0.3c0.2-0.2,0.3-0.5,0.3-0.8c0-0.5-0.1-0.7-0.3-0.9c-0.2-0.2-0.4-0.3-0.6-0.3c-0.3,0-0.5,0.1-0.6,0.3C69.8,97.8,69.7,98.1,69.7,98.4z"/><path d="M73.4,96.2v-0.9h1v0.9H73.4z M73.4,100.3v-3.6h1v3.6H73.4z"/><path d="M75.4,100.3v-5h1v5H75.4z"/><path d="M77.5,100.3v-5h1v5H77.5z"/><path d="M81.9,100.3v-0.5c-0.2,0.2-0.3,0.4-0.5,0.5c-0.3,0.1-0.5,0.2-0.7,0.2s-0.5-0.1-0.7-0.2c-0.3-0.1-0.4-0.3-0.5-0.5s-0.1-0.5-0.1-0.8v-2.3h1v1.6c0,0.5,0,0.8,0.1,0.9c0,0.1,0.1,0.2,0.2,0.3s0.2,0.1,0.4,0.1c0.2,0,0.4,0,0.5-0.1c0.1-0.1,0.3-0.2,0.3-0.4c0-0.2,0.1-0.5,0.1-1v-1.5h1v3.6L81.9,100.3L81.9,100.3z"/><path d="M87.3,100.3h-1v-1.8c0-0.4,0-0.6-0.1-0.7c-0.1-0.1-0.1-0.2-0.2-0.3s-0.2-0.1-0.4-0.1c-0.2,0-0.4,0-0.5,0.2s-0.3,0.2-0.3,0.4c0,0.2-0.1,0.5-0.1,0.8v1.6h-1v-3.6h0.9v0.5c0.4-0.5,0.7-0.6,1.3-0.6c0.2,0,0.5,0,0.6,0.1c0.2,0.1,0.4,0.2,0.5,0.3c0.1,0.1,0.2,0.3,0.2,0.4c0,0.1,0.1,0.4,0.1,0.6V100.3L87.3,100.3z"/><path d="M88,99.3l1-0.2c0,0.2,0.1,0.4,0.3,0.5c0.1,0.1,0.3,0.2,0.5,0.2c0.3,0,0.5,0,0.5-0.2c0.1-0.1,0.1-0.2,0.1-0.3s0-0.1-0.1-0.2c-0.1,0-0.2-0.1-0.4-0.1c-0.8-0.2-1.3-0.4-1.5-0.5c-0.3-0.2-0.5-0.5-0.5-0.8s0.1-0.5,0.4-0.8s0.6-0.4,1.2-0.4c0.5,0,0.9,0.1,1.2,0.3c0.3,0.2,0.5,0.4,0.5,0.7l-0.9,0.2c0-0.2-0.1-0.3-0.3-0.4c-0.1-0.1-0.3-0.1-0.5-0.1c-0.3,0-0.5,0-0.5,0.1c0,0.1,0,0.1,0,0.2c0,0.1,0,0.1,0.1,0.2c0.1,0.1,0.4,0.2,0.9,0.3c0.5,0.1,0.9,0.3,1.1,0.5s0.3,0.4,0.3,0.7c0,0.4-0.2,0.6-0.5,0.8c-0.3,0.3-0.7,0.4-1.3,0.4s-0.9-0.1-1.2-0.3C88.3,99.9,88.1,99.6,88,99.3z"/><path d="M30.7,104.3l-0.9-0.2c0.1-0.4,0.3-0.6,0.5-0.8c0.3-0.2,0.6-0.3,1.1-0.3s0.8,0.1,1,0.2c0.2,0.1,0.4,0.3,0.5,0.4c0.1,0.1,0.1,0.5,0.1,0.8v1.1c0,0.3,0,0.5,0.1,0.7c0,0.2,0.1,0.3,0.2,0.5h-1c0-0.1-0.1-0.2-0.1-0.3s0-0.1,0-0.1c-0.2,0.2-0.4,0.3-0.5,0.4c-0.2,0.1-0.4,0.1-0.6,0.1c-0.4,0-0.7-0.1-0.9-0.3c-0.2-0.2-0.4-0.5-0.4-0.7s0.1-0.4,0.2-0.5c0.1-0.2,0.3-0.3,0.5-0.4c0.2-0.1,0.5-0.2,0.8-0.2c0.5-0.1,0.8-0.2,1-0.3v-0.1c0-0.2-0.1-0.3-0.2-0.4c-0.1-0.1-0.3-0.1-0.5-0.1s-0.3,0-0.5,0.1C30.8,104,30.7,104.1,30.7,104.3z M32,105.1c-0.1,0-0.4,0.1-0.6,0.2c-0.3,0.1-0.5,0.1-0.5,0.2c-0.1,0.1-0.2,0.2-0.2,0.4c0,0.1,0.1,0.3,0.2,0.4c0.1,0.1,0.3,0.2,0.4,0.2c0.2,0,0.4-0.1,0.5-0.2c0.1-0.1,0.2-0.2,0.3-0.3c0-0.1,0-0.3,0-0.5L32,105.1L32,105.1z"/><path d="M39.5,106.8h-0.9v-0.5c-0.2,0.2-0.4,0.4-0.5,0.5c-0.2,0.1-0.5,0.2-0.6,0.2c-0.5,0-0.8-0.2-1.1-0.5c-0.3-0.4-0.5-0.8-0.5-1.4c0-0.6,0.2-1.1,0.5-1.4s0.6-0.5,1.2-0.5c0.5,0,0.8,0.2,1.1,0.5v-1.8h1L39.5,106.8L39.5,106.8z M36.8,104.9c0,0.4,0.1,0.6,0.2,0.8c0.2,0.3,0.4,0.4,0.6,0.4c0.3,0,0.5-0.1,0.5-0.3c0.2-0.2,0.3-0.5,0.3-0.8c0-0.5-0.1-0.7-0.3-0.9c-0.2-0.2-0.4-0.3-0.6-0.3c-0.3,0-0.5,0.1-0.6,0.3C36.9,104.3,36.8,104.5,36.8,104.9z"/><path d="M40.5,102.7v-0.9h1v0.9H40.5z M40.5,106.8v-3.6h1v3.6H40.5z"/><path d="M43.5,106.8l-1.5-3.6h1.1l0.7,1.8l0.2,0.6c0.1-0.2,0.1-0.3,0.1-0.3c0-0.1,0.1-0.2,0.1-0.3l0.7-1.8h1l-1.5,3.6L43.5,106.8L43.5,106.8z"/><path d="M48.7,105.6l1,0.2c-0.1,0.4-0.4,0.6-0.6,0.8c-0.3,0.2-0.6,0.3-1,0.3c-0.6,0-1.2-0.2-1.5-0.6c-0.3-0.4-0.4-0.7-0.4-1.3c0-0.6,0.2-1.1,0.5-1.5c0.3-0.4,0.7-0.5,1.3-0.5s1,0.2,1.4,0.5c0.4,0.4,0.5,0.9,0.5,1.6h-2.5c0,0.3,0.1,0.5,0.3,0.6c0.2,0.1,0.4,0.3,0.5,0.3c0.2,0,0.3,0,0.4-0.1C48.5,106,48.6,105.8,48.7,105.6z M48.7,104.6c0-0.3-0.1-0.5-0.2-0.6c-0.1-0.2-0.3-0.2-0.5-0.2s-0.4,0.1-0.5,0.3c-0.2,0.2-0.2,0.4-0.2,0.6L48.7,104.6L48.7,104.6z"/><path d="M54,106.8h-1V105c0-0.4,0-0.6-0.1-0.7c-0.1-0.1-0.1-0.2-0.2-0.3c-0.1-0.1-0.2-0.1-0.4-0.1s-0.4,0-0.5,0.2s-0.3,0.2-0.3,0.4c0,0.2-0.1,0.5-0.1,0.8v1.6h-1v-3.6h0.9v0.5c0.4-0.4,0.7-0.6,1.3-0.6c0.2,0,0.5,0,0.6,0.1c0.2,0.1,0.4,0.2,0.5,0.3c0.1,0.1,0.2,0.3,0.2,0.4c0,0.1,0.1,0.4,0.1,0.6V106.8L54,106.8z"/><path d="M58.5,106.8h-0.9v-0.5c-0.2,0.2-0.4,0.4-0.5,0.5c-0.2,0.1-0.5,0.2-0.6,0.2c-0.5,0-0.8-0.2-1.1-0.5s-0.5-0.8-0.5-1.4c0-0.6,0.2-1.1,0.5-1.4s0.6-0.5,1.2-0.5c0.5,0,0.8,0.2,1.1,0.5v-1.8h1L58.5,106.8L58.5,106.8z M55.8,104.9c0,0.4,0.1,0.6,0.2,0.8c0.2,0.3,0.4,0.4,0.6,0.4c0.3,0,0.5-0.1,0.5-0.3c0.2-0.2,0.3-0.5,0.3-0.8c0-0.5-0.1-0.7-0.3-0.9c-0.2-0.2-0.4-0.3-0.6-0.3c-0.3,0-0.5,0.1-0.6,0.3C55.9,104.3,55.8,104.5,55.8,104.9z"/><path d="M60.5,106.8h-1v-3.6h0.9v0.5c0.2-0.3,0.3-0.4,0.5-0.5c0.2-0.1,0.3-0.1,0.5-0.1c0.3,0,0.5,0.1,0.6,0.2l-0.3,0.8c-0.2-0.1-0.4-0.2-0.5-0.2c-0.2,0-0.3,0-0.4,0.1c-0.1,0.1-0.2,0.2-0.3,0.4c-0.1,0.2-0.1,0.6-0.1,1.2C60.5,105.6,60.5,106.8,60.5,106.8z"/><path d="M64.5,105.6l1,0.2c-0.1,0.4-0.4,0.6-0.6,0.8c-0.3,0.2-0.6,0.3-1,0.3c-0.6,0-1.2-0.2-1.5-0.6c-0.3-0.4-0.4-0.7-0.4-1.3c0-0.6,0.2-1.1,0.5-1.5c0.3-0.4,0.7-0.5,1.3-0.5s1,0.2,1.4,0.5c0.4,0.4,0.5,0.9,0.5,1.6H63c0,0.3,0.1,0.5,0.3,0.6c0.2,0.2,0.4,0.3,0.5,0.3s0.3,0,0.4-0.1C64.4,106,64.5,105.8,64.5,105.6z M64.5,104.6c0-0.3-0.1-0.5-0.2-0.6c-0.1-0.2-0.3-0.2-0.5-0.2c-0.2,0-0.4,0.1-0.5,0.3c-0.2,0.2-0.2,0.4-0.2,0.6L64.5,104.6L64.5,104.6z"/><path d="M66,105.7l1-0.2c0,0.2,0.1,0.4,0.3,0.5c0.1,0.1,0.3,0.2,0.5,0.2c0.3,0,0.5,0,0.5-0.2c0.1-0.1,0.1-0.2,0.1-0.3c0-0.1,0-0.1-0.1-0.2c-0.1,0-0.2-0.1-0.4-0.1c-0.8-0.2-1.3-0.4-1.5-0.5c-0.3-0.2-0.5-0.5-0.5-0.8s0.1-0.5,0.4-0.8c0.3-0.2,0.6-0.4,1.2-0.4c0.5,0,0.9,0.1,1.2,0.3c0.3,0.2,0.5,0.4,0.5,0.7l-0.9,0.2c0-0.2-0.1-0.3-0.3-0.4c-0.1-0.1-0.3-0.1-0.5-0.1c-0.3,0-0.5,0-0.5,0.1c-0.1,0.1-0.1,0.1-0.1,0.2c0,0.1,0,0.1,0.1,0.2c0.1,0.1,0.4,0.2,0.9,0.3c0.5,0.1,0.9,0.3,1.1,0.5s0.3,0.4,0.3,0.7c0,0.4-0.2,0.6-0.5,0.8c-0.3,0.3-0.7,0.4-1.3,0.4c-0.5,0-0.9-0.1-1.2-0.3C66.3,106.3,66.1,106.1,66,105.7z"/><path d="M72.2,102.7v-0.9h3.5v0.7c-0.3,0.3-0.5,0.6-0.8,1.2c-0.3,0.5-0.5,1-0.6,1.5c-0.2,0.5-0.3,1.1-0.2,1.5h-1c0-0.7,0.2-1.4,0.5-2.1s0.6-1.4,1.1-1.9H72.2L72.2,102.7z"/><path d="M76.9,105.4v-1h2v1H76.9z"/><path d="M84,105.9v0.9h-3.5c0-0.4,0.2-0.6,0.4-1c0.2-0.3,0.5-0.7,1.1-1.2c0.5-0.4,0.7-0.6,0.8-0.8c0.2-0.2,0.2-0.4,0.2-0.5c0-0.1-0.1-0.4-0.2-0.5c-0.1-0.1-0.3-0.2-0.5-0.2s-0.4,0.1-0.5,0.2c-0.1,0.1-0.2,0.4-0.2,0.6l-1-0.1c0.1-0.5,0.3-0.9,0.5-1.1c0.3-0.3,0.7-0.4,1.2-0.4s0.9,0.1,1.2,0.4c0.3,0.3,0.5,0.6,0.5,1c0,0.2,0,0.5-0.1,0.6c-0.1,0.2-0.2,0.5-0.4,0.6c-0.1,0.2-0.4,0.4-0.6,0.6c-0.3,0.3-0.5,0.5-0.6,0.5c-0.1,0.1-0.2,0.2-0.2,0.3L84,105.9L84,105.9z"/><path d="M86.4,101.8c0.5,0,0.9,0.2,1.2,0.5c0.4,0.4,0.5,1.1,0.5,2c0,0.9-0.2,1.6-0.5,2c-0.3,0.4-0.6,0.5-1.2,0.5c-0.5,0-0.9-0.2-1.2-0.5c-0.3-0.4-0.5-1-0.5-2c0-0.9,0.2-1.6,0.5-2C85.5,101.9,85.9,101.8,86.4,101.8z M86.4,102.5c-0.1,0-0.3,0-0.4,0.1c-0.1,0.1-0.2,0.2-0.2,0.4c-0.1,0.3-0.1,0.6-0.1,1.3c0,0.5,0,1,0.1,1.2s0.2,0.4,0.3,0.5c0.1,0.1,0.2,0.1,0.4,0.1s0.3,0,0.4-0.1c0.1-0.1,0.2-0.2,0.2-0.4c0.1-0.3,0.1-0.6,0.1-1.3c0-0.5,0-1-0.1-1.2s-0.2-0.4-0.3-0.5C86.6,102.6,86.5,102.5,86.4,102.5z"/><path d="M90,101.8v1.8c0.4-0.4,0.7-0.5,1.2-0.5c0.3,0,0.5,0,0.6,0.1c0.2,0.1,0.4,0.2,0.5,0.3s0.2,0.3,0.2,0.5s0.1,0.4,0.1,0.7v2.1h-1v-2c0-0.4,0-0.6-0.1-0.7c0-0.1-0.1-0.2-0.2-0.3s-0.2-0.1-0.4-0.1c-0.2,0-0.3,0-0.5,0.1c-0.2,0.1-0.2,0.2-0.3,0.4c-0.1,0.2-0.1,0.4-0.1,0.7v1.8h-1v-5L90,101.8L90,101.8z"/><polygon opacity="0.4" fill="#FFFFFF" enable-background="new    " points="54.4,40.6 53.4,40.9 51.5,41.4 49.3,42.3 47.7,43.1 46,44.2 44.7,45 43.3,46.1 42,47.3 40.5,48.6 48.6,50.6 49.5,49.9 50.8,49.3 51.7,48.7 52.4,48.4 53.3,48.1 54.1,47.8 55,47.5 55.8,47.3 56.9,47.2 57.5,47 58.5,46.9 59.2,46.9 60.4,46.9 61.5,46.9 62.4,47 63.2,47.2 64.3,47.3 65.4,47.5 66.3,47.9 67.3,48.3 68.3,48.7 69.3,49.3 70.2,49.8 71.6,50.8 80,49.3 79.3,48.6 78.6,47.9 77.6,46.9 76.8,46.3 75.8,45.4 74.5,44.5 73.2,43.6 71.6,42.8 70.3,42.2 69.5,41.8 68.4,41.4 67.5,41.2 66.5,40.9 65.6,40.6 64.7,40.5 63.6,40.3 62.3,40.1 61.3,40 60.6,40 60.3,40 59.3,40 58.5,40 57.6,40.1 56.6,40.3"/></g></svg>