<svg version="1.1" id="Layer_1" xmlns="http://www.w3.org/2000/svg" xmlns:xlink="http://www.w3.org/1999/xlink" x="0px" y="0px"
	width="120" height="120"  viewBox="0 0 120 120" xml:space="preserve">
<g id="disabled"><path fill="#FFFFFF" d="M116.3,107.8V12.2c0-4.7-3.8-8.5-8.5-8.5H12.1c-4.7,0-8.5,3.8-8.5,8.5v95.7c0,4.7,3.8,8.5,8.5,8.5h95.7C112.4,116.3,116.3,112.5,116.3,107.8z"/><path d="M107.8,6.2H12.1c-3.4,0-6,2.6-6,6v95.7c0,3.4,2.6,6,6,6h95.7c3.4,0,6-2.6,6-6V12.2C113.8,8.8,111.1,6.2,107.8,6.2z M111.3,107.8c0,1.9-1.5,3.5-3.5,3.5H12.1c-1.9,0-3.5-1.5-3.5-3.5V12.2c0-1.9,1.5-3.5,3.5-3.5h95.7c1.9,0,3.5,1.5,3.5,3.5L111.3,107.8C111.3,107.8,111.3,107.8,111.3,107.8z"/><path d="M59,97.1l-0.5-1.6L57.8,94l-0.7-1l-0.9-0.8l-1.1-0.6L54,91.1L52.7,91l-1.3,0.1l-1.2,0.4L49,92.1L48,92.9l-0.9,1.3l-0.7,1.5L46,97.2l-0.1,1.6l0.1,1.7l0.5,1.6l0.7,1.5l0.7,1l0.9,0.8l1.1,0.7l1.3,0.4l1.3,0.1l1.3-0.1l1.2-0.4l1.1-0.6l0.9-0.8l0.9-1.3l0.7-1.5l0.4-1.6l0.1-1.6L59,97.1z M56.2,100.1l-0.2,1.2l-0.5,1.2l-0.5,0.7l-0.7,0.6l-0.8,0.4l-0.9,0.1l-0.9-0.1l-0.8-0.4l-0.7-0.6l-0.5-0.7l-0.5-1.2l-0.2-1.2l-0.1-1.2l0.1-1.3l0.2-1.3l0.5-1.2l0.5-0.7l0.7-0.6l0.8-0.4l0.9-0.1l0.9,0.1l0.8,0.4l0.7,0.6l0.5,0.7l0.5,1.2l0.2,1.2l0.1,1.2L56.2,100.1z"/><polygon points="73.3,91.2 73.3,106.5 70.4,106.5 64.8,96.7 64.5,96.2 64.4,96 64.3,95.6 64,95.3 64,106.5 61.8,106.5 61.8,91.2 64.9,91.2 70.1,100.2 70.5,101.1 70.8,101.6 70.8,91.2"/><polygon points="36.5,104.2 44.7,104.2 44.7,106.5 33.2,106.5 33.2,104.3 41.2,93.5 33.5,93.5 33.5,91.2 44.5,91.2 44.5,93.5"/><polygon points="79.4,99.8 79.4,104.2 86.4,104.2 86.4,106.5 76.6,106.5 76.6,91.2 86.4,91.2 86.4,93.5 79.4,93.5 79.4,97.5 84.9,97.5 84.9,99.8"/><path fill="#575757" d="M60,13.4C40.2,13.4,24,29.5,24,49.3S40.2,85.2,60,85.2s35.9-16.1,35.9-35.9S79.8,13.4,60,13.4z M60,75.8c-14.6,0-26.5-11.9-26.5-26.5S45.4,22.8,60,22.8s26.5,11.9,26.5,26.4S74.5,75.8,60,75.8z"/><polygon opacity="0.4" fill="#FFFFFF" enable-background="new    " points="30.1,29.3 39.5,32.4 41.5,30.4 42.5,29.3 44,28.2 45.5,27.2 47.2,26.2 48.5,25.4 50.3,24.6 52.9,23.8 54.5,23.3 57,23 58.9,22.8 60.5,22.8 61.5,22.9 63.2,23 64,23.1 65.3,23.3 66.6,23.6 68.1,24.1 69.8,24.7 71.3,25.3 73.1,26.3 74.3,27 75.3,27.6 76.8,28.8 77.8,29.7 78.6,30.5 79.4,31.3 80.5,32.7 89.9,29.7 89.1,28.4 88.1,27.2 87,25.7 85.6,24.2 84.4,23.2 83.4,22.2 82.5,21.4 81,20.3 79.6,19.3 78.4,18.5 76.5,17.5 75.1,16.8 73.6,16.2 72.4,15.7 71.3,15.2 70.3,15 68.5,14.4 67.1,14.2 65.4,13.9 63.8,13.6 62.2,13.5 60.8,13.4 58.8,13.4 56.9,13.5 55.3,13.7 54,13.9 52.2,14.2 50.4,14.7 48.5,15.3 46.7,16 45.5,16.5 43.9,17.2 42,18.2 40,19.5 38.5,20.6 36.9,21.8 35,23.6 33,25.5 31.6,27.2"/><path d="M37.7,44.2v6.5v0.6l0.2,0.6l0.4,0.5l0.6,0.4l0.7,0.1l0.6-0.1l0.6-0.3l0.5-0.5l0.2-0.7l0.1-0.7V44H43v6.6c0,0.3,0.1,0.5,0,0.7c-0.2,1.9-1.7,3.3-3.5,3.1c-0.3,0-0.5,0-0.7,0c-1.8-0.3-3.1-1.9-2.9-3.6v-6.7H37.7L37.7,44.2z"/><polygon points="62.2,46.9 63.7,46.9 64.9,51.9 66.4,46.9 67.8,46.9 65.5,54.3 64,54.3 62.8,49.2 61.5,54.3 59.8,54.3 57.5,46.9 59.3,46.9 60.8,52"/><rect x="77.1" y="44.2" width="1.7" height="10.3"/><path d="M81.3,44.9l1.5-0.2v2.2h1.5v1.5h-1.5V52v0.4l0.1,0.4l0.3,0.3l0.5,0.2h0.5h0.3h0.2v1.3l-0.7,0.1h-0.5c-0.2,0-0.3,0-0.5,0c-1.1-0.2-1.9-1.3-1.7-2.4v-3.8h-1V47h1.1L81.3,44.9z"/><path d="M56.4,54.3V49c0-1.3-1-2.4-2.3-2.4c-0.1,0-0.1,0-0.2,0c-1.1,0-2.1,0.7-2.5,1.8c-0.2-1-1.1-1.8-2.2-1.8c-1.1,0-2.2,0.7-2.5,1.8v-1.6H45v7.5h1.7v-3.9v-0.1c-0.1-1.1,0.7-2.1,1.9-2.1c0.1,0,0.2,0,0.3,0c0.7,0.1,1.2,0.7,1,1.5v4.6h1.7v-3.9c0-0.1,0-0.2,0-0.2c-0.1-1,0.7-1.9,1.8-2c0.1,0,0.2,0,0.3,0c0.7,0.1,1.2,0.7,1.1,1.5v4.6C54.5,54.3,56.4,54.3,56.4,54.3z"/><path d="M72.4,46.8c-0.1,0-0.2,0-0.3,0c-2,0-3.5,1.6-3.5,3.5c0,0.1,0,0.2,0,0.4c-0.2,2,1.2,3.6,3.2,3.8c0.1,0,0.2,0,0.4,0c1.5,0.1,2.9-0.9,3.4-2.4l-1.7-0.2c-0.3,0.7-0.9,1.2-1.6,1.1c-0.1,0-0.2,0-0.3,0c-1-0.2-1.7-1.2-1.5-2.2h5.3v-0.1C75.8,48.7,74.3,47,72.4,46.8z M70.3,49.7c0-1,0.7-1.8,1.8-1.9h0.1c0.9,0.1,1.7,0.8,1.6,1.9H70.3z"/></g><g id="normal"><path fill="#FFFFFF" d="M116.3,107.8V12.2c0-4.7-3.8-8.5-8.5-8.5H12.1c-4.7,0-8.5,3.8-8.5,8.5v95.7c0,4.7,3.8,8.5,8.5,8.5h95.7C112.4,116.3,116.3,112.5,116.3,107.8z"/><path d="M107.8,6.2H12.1c-3.4,0-6,2.6-6,6v95.7c0,3.4,2.6,6,6,6h95.7c3.4,0,6-2.6,6-6V12.2C113.8,8.8,111.1,6.2,107.8,6.2z M111.3,107.8c0,1.9-1.5,3.5-3.5,3.5H12.1c-1.9,0-3.5-1.5-3.5-3.5V12.2c0-1.9,1.5-3.5,3.5-3.5h95.7c1.9,0,3.5,1.5,3.5,3.5L111.3,107.8C111.3,107.8,111.3,107.8,111.3,107.8z"/><path d="M59,97.1l-0.5-1.6L57.8,94l-0.7-1l-0.9-0.8l-1.1-0.6L54,91.1L52.7,91l-1.3,0.1l-1.2,0.4L49,92.1L48,92.9l-0.9,1.3l-0.7,1.5L46,97.2l-0.1,1.6l0.1,1.7l0.5,1.6l0.7,1.5l0.7,1l0.9,0.8l1.1,0.7l1.3,0.4l1.3,0.1l1.3-0.1l1.2-0.4l1.1-0.6l0.9-0.8l0.9-1.3l0.7-1.5l0.4-1.6l0.1-1.6L59,97.1z M56.2,100.1l-0.2,1.2l-0.5,1.2l-0.5,0.7l-0.7,0.6l-0.8,0.4l-0.9,0.1l-0.9-0.1l-0.8-0.4l-0.7-0.6l-0.5-0.7l-0.5-1.2l-0.2-1.2l-0.1-1.2l0.1-1.3l0.2-1.3l0.5-1.2l0.5-0.7l0.7-0.6l0.8-0.4l0.9-0.1l0.9,0.1l0.8,0.4l0.7,0.6l0.5,0.7l0.5,1.2l0.2,1.2l0.1,1.2L56.2,100.1z"/><polygon points="73.3,91.2 73.3,106.5 70.4,106.5 64.8,96.7 64.5,96.2 64.4,96 64.3,95.6 64,95.3 64,106.5 61.8,106.5 61.8,91.2 64.9,91.2 70.1,100.2 70.5,101.1 70.8,101.6 70.8,91.2"/><polygon points="36.5,104.2 44.7,104.2 44.7,106.5 33.2,106.5 33.2,104.3 41.2,93.5 33.5,93.5 33.5,91.2 44.5,91.2 44.5,93.5 			"/><polygon points="79.4,99.8 79.4,104.2 86.4,104.2 86.4,106.5 76.6,106.5 76.6,91.2 86.4,91.2 86.4,93.5 79.4,93.5 79.4,97.5 84.9,97.5 84.9,99.8"/><path fill="#D9241B" d="M60,13.4C40.2,13.4,24,29.5,24,49.3S40.2,85.2,60,85.2s35.9-16.1,35.9-35.9S79.8,13.4,60,13.4z M60,75.8c-14.6,0-26.5-11.9-26.5-26.5S45.4,22.8,60,22.8s26.5,11.9,26.5,26.4S74.5,75.8,60,75.8z"/><polygon opacity="0.4" fill="#FFFFFF" enable-background="new    " points="30.1,29.3 39.5,32.4 41.5,30.4 42.5,29.3 44,28.2 45.5,27.2 47.2,26.2 48.5,25.4 50.3,24.6 52.9,23.8 54.5,23.3 57,23 58.9,22.8 60.5,22.8 61.5,22.9 63.2,23 64,23.1 65.3,23.3 66.6,23.6 68.1,24.1 69.8,24.7 71.3,25.3 73.1,26.3 74.3,27 75.3,27.6 76.8,28.8 77.8,29.7 78.6,30.5 79.4,31.3 80.5,32.7 89.9,29.7 89.1,28.4 88.1,27.2 87,25.7 85.6,24.2 84.4,23.2 83.4,22.2 82.5,21.4 81,20.3 79.6,19.3 78.4,18.5 76.5,17.5 75.1,16.8 73.6,16.2 72.4,15.7 71.3,15.2 70.3,15 68.5,14.4 67.1,14.2 65.4,13.9 63.8,13.6 62.2,13.5 60.8,13.4 58.8,13.4 56.9,13.5 55.3,13.7 54,13.9 52.2,14.2 50.4,14.7 48.5,15.3 46.7,16 45.5,16.5 43.9,17.2 42,18.2 40,19.5 38.5,20.6 36.9,21.8 35,23.6 33,25.5 31.6,27.2"/><path d="M37.7,44.2v6.5v0.6l0.2,0.6l0.4,0.5l0.6,0.4l0.7,0.1l0.6-0.1l0.6-0.3l0.5-0.5l0.2-0.7l0.1-0.7V44H43v6.6c0,0.3,0.1,0.5,0,0.7c-0.2,1.9-1.7,3.3-3.5,3.1c-0.3,0-0.5,0-0.7,0c-1.8-0.3-3.1-1.9-2.9-3.6v-6.7H37.7L37.7,44.2z"/><polygon points="62.2,46.9 63.7,46.9 64.9,51.9 66.4,46.9 67.8,46.9 65.5,54.3 64,54.3 62.8,49.2 61.5,54.3 59.8,54.3 57.5,46.9 59.3,46.9 60.8,52"/><rect x="77.1" y="44.2" width="1.7" height="10.3"/><path d="M81.3,44.9l1.5-0.2v2.2h1.5v1.5h-1.5V52v0.4l0.1,0.4l0.3,0.3l0.5,0.2h0.5h0.3h0.2v1.3l-0.7,0.1h-0.5c-0.2,0-0.3,0-0.5,0c-1.1-0.2-1.9-1.3-1.7-2.4v-3.8h-1V47h1.1L81.3,44.9z"/><path d="M56.4,54.3V49c0-1.3-1-2.4-2.3-2.4c-0.1,0-0.1,0-0.2,0c-1.1,0-2.1,0.7-2.5,1.8c-0.2-1-1.1-1.8-2.2-1.8c-1.1,0-2.2,0.7-2.5,1.8v-1.6H45v7.5h1.7v-3.9v-0.1c-0.1-1.1,0.7-2.1,1.9-2.1c0.1,0,0.2,0,0.3,0c0.7,0.1,1.2,0.7,1,1.5v4.6h1.7v-3.9c0-0.1,0-0.2,0-0.2c-0.1-1,0.7-1.9,1.8-2c0.1,0,0.2,0,0.3,0c0.7,0.1,1.2,0.7,1.1,1.5v4.6C54.5,54.3,56.4,54.3,56.4,54.3z"/><path d="M72.4,46.8c-0.1,0-0.2,0-0.3,0c-2,0-3.5,1.6-3.5,3.5c0,0.1,0,0.2,0,0.4c-0.2,2,1.2,3.6,3.2,3.8c0.1,0,0.2,0,0.4,0c1.5,0.1,2.9-0.9,3.4-2.4l-1.7-0.2c-0.3,0.7-0.9,1.2-1.6,1.1c-0.1,0-0.2,0-0.3,0c-1-0.2-1.7-1.2-1.5-2.2h5.3v-0.1C75.8,48.7,74.3,47,72.4,46.8z M70.3,49.7c0-1,0.7-1.8,1.8-1.9h0.1c0.9,0.1,1.7,0.8,1.6,1.9H70.3z"/></g></svg>