<svg version="1.1" id="Layer_1" xmlns="http://www.w3.org/2000/svg" xmlns:xlink="http://www.w3.org/1999/xlink" x="0px" y="0px"
	width="120" height="120"  viewBox="0 0 120 120" xml:space="preserve">
<g id="disabled"><path d="M105.2,4.8H14.8c-2.7,0-5,2.3-5,5v100.4c0,2.7,2.3,5,5,5h90.4c2.7,0,5-2.3,5-5V9.8C110.2,7.1,107.9,4.8,105.2,4.8z M108.5,110.2c0,1.8-1.5,3.4-3.4,3.4H14.8c-1.8,0-3.4-1.5-3.4-3.4V9.8c0-1.8,1.5-3.4,3.4-3.4h90.4c1.8,0,3.4,1.5,3.4,3.4C108.5,9.8,108.5,110.2,108.5,110.2z"/><path fill="#FFFFFF" d="M105.2,6.4H14.8c-1.8,0-3.4,1.5-3.4,3.4v100.4c0,1.8,1.5,3.4,3.4,3.4h90.4c1.8,0,3.4-1.5,3.4-3.4V9.8C108.5,8,107,6.4,105.2,6.4z"/><path fill="#575757" d="M60,36.3c-18.9,0-34.3,15.4-34.3,34.3s15.4,34.3,34.3,34.3s34.3-15.4,34.3-34.3S78.9,36.3,60,36.3z M60,95.9c-13.9,0-25.3-11.4-25.3-25.3S46.1,45.3,60,45.3s25.3,11.4,25.3,25.3S73.9,95.9,60,95.9z"/><path fill="#A29E9F" d="M80.1,74.3v3.9c0,0-0.2,0.6-1.5,0.6c-1.5,0-1.7-0.6-1.7-0.6v-3.9H64.5v3.9c0,0-0.3,0.6-1.7,0.6c-1.5,0-1.5-0.6-1.5-0.6v-3.9H60v-5.2l3.9-6.5h14.4l3.3,6.5v5.2H80.1L80.1,74.3z M76.8,63.8H65l-1.3,3.9h14.5L76.8,63.8L76.8,63.8z"/><path fill="#A29E9F" d="M40.5,59.9c0-1.2,0.5-2,1.7-2.2c0.5-0.1,1.1,0.2,1.6,0.3c0.4,0.1,0.8,0.4,1.2,0.3c0.8-0.1,1.3,0.5,1.6,0.9c0.3,0.3,0.5,0.3,0.7,0.3c1-0.2,2,0.6,1.8,1.6c-0.1,0.5-0.3,0.9-0.6,1.2c-0.4,0.3-0.6,0.5-0.9,0.9c-0.5,0.8-1.4,1-2.3,0.8c-0.5-0.1-1.2-0.1-1.8,0c-0.6,0.1-1.3,0.2-1.7-0.4c-0.1-0.1-0.3-0.1-0.5-0.1c-1.3,0.4-2.3-0.1-2.5-1.1C38.5,61.3,39.2,60.2,40.5,59.9C40.5,60,40.5,60,40.5,59.9z"/><path fill="#A29E9F" d="M47.7,67.3c0-0.8,0.5-1.4,1.3-1.5c0.4-0.1,0.7,0.1,1.1,0.2c0.3,0.1,0.5,0.3,0.8,0.2c0.5,0,0.9,0.3,1.2,0.6c0.2,0.2,0.4,0.2,0.5,0.2c0.7-0.1,1.4,0.5,1.3,1.2c-0.1,0.3-0.2,0.6-0.5,0.8c-0.3,0.2-0.5,0.4-0.6,0.6c-0.3,0.5-0.9,0.6-1.5,0.5c-0.4-0.1-0.8-0.1-1.3,0c-0.5,0.1-0.9,0.1-1.3-0.3c-0.1,0-0.2,0-0.2,0c-0.9,0.3-1.6,0-1.8-0.7C46.4,68.3,46.8,67.5,47.7,67.3C47.6,67.4,47.6,67.4,47.7,67.3z"/><path fill="#A29E9F" d="M53.7,74c0-0.5,0.3-1,0.8-1.1c0.3,0,0.5,0.1,0.8,0.2c0.2,0.1,0.4,0.2,0.5,0.2c0.4,0,0.6,0.2,0.8,0.5c0.1,0.2,0.2,0.2,0.4,0.1c0.5-0.1,1,0.3,0.9,0.8c0,0.2-0.2,0.5-0.3,0.5c-0.2,0.1-0.4,0.3-0.5,0.5c-0.2,0.4-0.6,0.5-1.1,0.4c-0.3-0.1-0.6-0.1-0.9,0c-0.4,0.1-0.6,0.1-0.8-0.2c0,0-0.2-0.1-0.2,0c-0.6,0.2-1.1,0-1.3-0.5C52.7,74.7,53,74.2,53.7,74L53.7,74z"/><path d="M34.7,27.5v-2.4l6.8-8.5h-6.1v-2.2H45v2l-7.1,8.8h7.4v2.2L34.7,27.5L34.7,27.5z"/><path d="M46.5,21.1c0-1.4,0.2-2.5,0.6-3.4c0.3-0.6,0.7-1.3,1.2-1.8c0.5-0.5,1.1-0.9,1.7-1.2c0.8-0.4,1.7-0.5,2.8-0.5c1.9,0,3.5,0.6,4.6,1.8c1.2,1.2,1.7,2.8,1.7,5c0,2.1-0.5,3.7-1.7,4.9c-1.2,1.2-2.6,1.8-4.5,1.8s-3.5-0.5-4.6-1.7S46.5,23.2,46.5,21.1z M49.2,21c0,1.5,0.4,2.6,1,3.4s1.5,1.2,2.6,1.2s1.9-0.4,2.5-1.1s1-1.9,1-3.4s-0.4-2.6-1-3.4c-0.6-0.7-1.5-1.1-2.6-1.1s-2,0.4-2.6,1.1C49.5,18.4,49.2,19.5,49.2,21z"/><path d="M61.2,27.5v-13h2.5l5.4,8.7v-8.7h2.5v13H69L63.7,19v8.5H61.2z"/><path d="M74.3,27.5v-13h9.6v2.2h-7v2.9h6.5v2.2h-6.5v3.5h7.3v2.2H74.3z"/><polygon opacity="0.4" fill="#FFFFFF" enable-background="new    " points="52.6,37.2 51.3,37.5 48.8,38.3 45.9,39.4 43.8,40.3 41.5,41.8 39.9,42.9 38,44.3 36.3,45.9 34.5,47.7 45,50.3 46.3,49.3 47.9,48.4 49.1,47.8 50,47.4 51.2,47 52.2,46.5 53.5,46.2 54.5,45.9 55.9,45.7 56.8,45.5 57.9,45.4 58.9,45.3 60.5,45.3 61.9,45.4 63.1,45.5 64.2,45.7 65.6,45.9 67,46.3 68.3,46.7 69.5,47.3 70.9,47.8 72.2,48.4 73.4,49.3 75.4,50.5 86.3,48.6 85.4,47.6 84.5,46.7 83.2,45.4 82.1,44.5 80.8,43.4 79.2,42.3 77.4,41.1 75.4,40 73.5,39.2 72.5,38.7 71,38.2 69.9,37.8 68.5,37.4 67.5,37.2 66.2,37 64.7,36.7 63,36.4 61.7,36.3 60.8,36.3 60.4,36.3 59.1,36.3 58,36.3 56.9,36.4 55.5,36.6"/></g><g id="normal"><path d="M105.2,4.8H14.8c-2.7,0-5,2.3-5,5v100.4c0,2.7,2.3,5,5,5h90.4c2.7,0,5-2.3,5-5V9.8C110.2,7.1,107.9,4.8,105.2,4.8z M108.5,110.2c0,1.8-1.5,3.4-3.4,3.4H14.8c-1.8,0-3.4-1.5-3.4-3.4V9.8c0-1.8,1.5-3.4,3.4-3.4h90.4c1.8,0,3.4,1.5,3.4,3.4C108.5,9.8,108.5,110.2,108.5,110.2z"/><path fill="#FFFFFF" d="M105.2,6.4H14.8c-1.8,0-3.4,1.5-3.4,3.4v100.4c0,1.8,1.5,3.4,3.4,3.4h90.4c1.8,0,3.4-1.5,3.4-3.4V9.8C108.5,8,107,6.4,105.2,6.4z"/><path fill="#CB0000" d="M60,36.3c-18.9,0-34.3,15.4-34.3,34.3s15.4,34.3,34.3,34.3s34.3-15.4,34.3-34.3S78.9,36.3,60,36.3z M60,95.9c-13.9,0-25.3-11.4-25.3-25.3S46.1,45.3,60,45.3s25.3,11.4,25.3,25.3S73.9,95.9,60,95.9z"/><path fill="#A29E9F" d="M80.1,74.3v3.9c0,0-0.2,0.6-1.5,0.6c-1.5,0-1.7-0.6-1.7-0.6v-3.9H64.5v3.9c0,0-0.3,0.6-1.7,0.6c-1.5,0-1.5-0.6-1.5-0.6v-3.9H60v-5.2l3.9-6.5h14.4l3.3,6.5v5.2H80.1L80.1,74.3z M76.8,63.8H65l-1.3,3.9h14.5L76.8,63.8L76.8,63.8z"/><path d="M40.5,59.9c0-1.2,0.5-2,1.7-2.2c0.5-0.1,1.1,0.2,1.6,0.3c0.4,0.1,0.8,0.4,1.2,0.3c0.8-0.1,1.3,0.5,1.6,0.9c0.3,0.3,0.5,0.3,0.7,0.3c1-0.2,2,0.6,1.8,1.6c-0.1,0.5-0.3,0.9-0.6,1.2c-0.4,0.3-0.6,0.5-0.9,0.9c-0.5,0.8-1.4,1-2.3,0.8c-0.5-0.1-1.2-0.1-1.8,0c-0.6,0.1-1.3,0.2-1.7-0.4c-0.1-0.1-0.3-0.1-0.5-0.1c-1.3,0.4-2.3-0.1-2.5-1.1C38.5,61.3,39.2,60.2,40.5,59.9C40.5,60,40.5,60,40.5,59.9z"/><path d="M47.7,67.3c0-0.8,0.5-1.4,1.3-1.5c0.4-0.1,0.7,0.1,1.1,0.2c0.3,0.1,0.5,0.3,0.8,0.2c0.5,0,0.9,0.3,1.2,0.6c0.2,0.2,0.4,0.2,0.5,0.2c0.7-0.1,1.4,0.5,1.3,1.2c-0.1,0.3-0.2,0.6-0.5,0.8c-0.3,0.2-0.5,0.4-0.6,0.6c-0.3,0.5-0.9,0.6-1.5,0.5c-0.4-0.1-0.8-0.1-1.3,0c-0.5,0.1-0.9,0.1-1.3-0.3c-0.1,0-0.2,0-0.2,0c-0.9,0.3-1.6,0-1.8-0.7C46.4,68.3,46.8,67.5,47.7,67.3C47.6,67.4,47.6,67.4,47.7,67.3z"/><path d="M53.7,74c0-0.5,0.3-1,0.8-1.1c0.3,0,0.5,0.1,0.8,0.2c0.2,0.1,0.4,0.2,0.5,0.2c0.4,0,0.6,0.2,0.8,0.5c0.1,0.2,0.2,0.2,0.4,0.1c0.5-0.1,1,0.3,0.9,0.8c0,0.2-0.2,0.5-0.3,0.5c-0.2,0.1-0.4,0.3-0.5,0.5c-0.2,0.4-0.6,0.5-1.1,0.4c-0.3-0.1-0.6-0.1-0.9,0c-0.4,0.1-0.6,0.1-0.8-0.2c0,0-0.2-0.1-0.2,0c-0.6,0.2-1.1,0-1.3-0.5C52.7,74.7,53,74.2,53.7,74L53.7,74z"/><path d="M34.7,27.5v-2.4l6.8-8.5h-6.1v-2.2H45v2l-7.1,8.8h7.4v2.2L34.7,27.5L34.7,27.5z"/><path d="M46.5,21.1c0-1.4,0.2-2.5,0.6-3.4c0.3-0.6,0.7-1.3,1.2-1.8c0.5-0.5,1.1-0.9,1.7-1.2c0.8-0.4,1.7-0.5,2.8-0.5c1.9,0,3.5,0.6,4.6,1.8c1.2,1.2,1.7,2.8,1.7,5c0,2.1-0.5,3.7-1.7,4.9c-1.2,1.2-2.6,1.8-4.5,1.8s-3.5-0.5-4.6-1.7S46.5,23.2,46.5,21.1z M49.2,21c0,1.5,0.4,2.6,1,3.4s1.5,1.2,2.6,1.2s1.9-0.4,2.5-1.1s1-1.9,1-3.4s-0.4-2.6-1-3.4c-0.6-0.7-1.5-1.1-2.6-1.1s-2,0.4-2.6,1.1C49.5,18.4,49.2,19.5,49.2,21z"/><path d="M61.2,27.5v-13h2.5l5.4,8.7v-8.7h2.5v13H69L63.7,19v8.5H61.2z"/><path d="M74.3,27.5v-13h9.6v2.2h-7v2.9h6.5v2.2h-6.5v3.5h7.3v2.2H74.3z"/><polygon opacity="0.4" fill="#FFFFFF" enable-background="new    " points="52.6,37.2 51.3,37.5 48.8,38.3 45.9,39.4 43.8,40.3 41.5,41.8 39.9,42.9 38,44.3 36.3,45.9 34.5,47.7 45,50.3 46.3,49.3 47.9,48.4 49.1,47.8 50,47.4 51.2,47 52.2,46.5 53.5,46.2 54.5,45.9 55.9,45.7 56.8,45.5 57.9,45.4 58.9,45.3 60.5,45.3 61.9,45.4 63.1,45.5 64.2,45.7 65.6,45.9 67,46.3 68.3,46.7 69.5,47.3 70.9,47.8 72.2,48.4 73.4,49.3 75.4,50.5 86.3,48.6 85.4,47.6 84.5,46.7 83.2,45.4 82.1,44.5 80.8,43.4 79.2,42.3 77.4,41.1 75.4,40 73.5,39.2 72.5,38.7 71,38.2 69.9,37.8 68.5,37.4 67.5,37.2 66.2,37 64.7,36.7 63,36.4 61.7,36.3 60.8,36.3 60.4,36.3 59.1,36.3 58,36.3 56.9,36.4 55.5,36.6"/></g></svg>