<?xml version="1.0" encoding="utf-8"?>
<!-- Generator: Adobe Illustrator 19.2.1, SVG Export Plug-In . SVG Version: 6.00 Build 0)  -->
<svg version="1.1" xmlns="http://www.w3.org/2000/svg" xmlns:xlink="http://www.w3.org/1999/xlink" x="0px" y="0px" width="25px"
	 height="25px" viewBox="0 0 25 25" enable-background="new 0 0 25 25" xml:space="preserve">
<g id="phase4">
	<g>
		<path fill-rule="evenodd" clip-rule="evenodd" fill="#0D61BF" d="M12.501,0C5.608,0,0,5.608,0,12.5C0,19.392,5.608,25,12.501,25
			S25,19.392,25,12.5C25,5.608,19.393,0,12.501,0z M12.501,22.891c-5.724,0-10.382-4.662-10.382-10.391
			c0-5.729,4.658-10.391,10.382-10.391s10.38,4.662,10.38,10.391C22.881,18.229,18.225,22.891,12.501,22.891z"/>
		<path opacity="0.42" fill-rule="evenodd" clip-rule="evenodd" fill="#022263" d="M12.501,2.109
			C6.777,2.109,2.119,6.771,2.119,12.5c0,5.729,4.658,10.391,10.382,10.391c5.724,0,10.38-4.662,10.38-10.391
			C22.881,6.771,18.225,2.109,12.501,2.109z"/>
		<path fill-rule="evenodd" clip-rule="evenodd" fill="#0D61BF" d="M12.324,8.086c2.485,0,4.5,2.015,4.5,4.5
			c0,2.485-2.015,4.5-4.5,4.5s-4.5-2.015-4.5-4.5C7.824,10.1,9.839,8.086,12.324,8.086L12.324,8.086z"/>
	</g>
</g>
<g id="phase3">
	<g>
		<path display="none" fill-rule="evenodd" clip-rule="evenodd" fill="#BF0D2B" d="M12.501,0C5.608,0,0,5.608,0,12.5
			C0,19.392,5.608,25,12.501,25S25,19.392,25,12.5C25,5.608,19.393,0,12.501,0z M12.501,22.891c-5.724,0-10.382-4.662-10.382-10.391
			c0-5.729,4.658-10.391,10.382-10.391s10.38,4.662,10.38,10.391C22.881,18.229,18.225,22.891,12.501,22.891z"/>
		<path opacity="0.42" fill-rule="evenodd" clip-rule="evenodd" fill="#630212" d="M2.119,12.5c0-5.729,4.658-10.391,10.382-10.391
			c5.724,0,10.38,4.662,10.38,10.391s-4.656,10.391-10.38,10.391C6.777,22.891,2.119,18.229,2.119,12.5"/>
		<path fill-rule="evenodd" clip-rule="evenodd" fill="#BF0D2B" d="M12.324,8.086c2.485,0,4.5,2.015,4.5,4.5
			c0,2.485-2.015,4.5-4.5,4.5s-4.5-2.015-4.5-4.5C7.824,10.1,9.839,8.086,12.324,8.086L12.324,8.086z"/>
	</g>
</g>
<g id="phase2">
	<g>
		<path display="none" fill-rule="evenodd" clip-rule="evenodd" fill="#E6E6E6" d="M12.501,0C5.608,0,0,5.608,0,12.5
			C0,19.392,5.608,25,12.501,25S25,19.392,25,12.5C25,5.608,19.393,0,12.501,0z M12.501,22.891c-5.724,0-10.382-4.662-10.382-10.391
			c0-5.729,4.658-10.391,10.382-10.391s10.38,4.662,10.38,10.391C22.881,18.229,18.225,22.891,12.501,22.891z"/>
		<path opacity="0.42" fill-rule="evenodd" clip-rule="evenodd" fill="#F8F8F8" d="M2.119,12.5c0-5.729,4.658-10.391,10.382-10.391
			c5.724,0,10.38,4.662,10.38,10.391s-4.656,10.391-10.38,10.391C6.777,22.891,2.119,18.229,2.119,12.5"/>
		<path fill-rule="evenodd" clip-rule="evenodd" fill="#E6E6E6" d="M12.324,8.086c2.485,0,4.5,2.015,4.5,4.5
			c0,2.485-2.015,4.5-4.5,4.5s-4.5-2.015-4.5-4.5C7.824,10.1,9.839,8.086,12.324,8.086L12.324,8.086z"/>
	</g>
</g>
<g id="phase1">
	<g>
		<path display="none" fill-rule="evenodd" clip-rule="evenodd" fill="#E6E6E6" d="M12.501,0C5.608,0,0,5.608,0,12.5
			C0,19.392,5.608,25,12.501,25S25,19.392,25,12.5C25,5.608,19.393,0,12.501,0z M12.501,22.891c-5.724,0-10.382-4.662-10.382-10.391
			c0-5.729,4.658-10.391,10.382-10.391s10.38,4.662,10.38,10.391C22.881,18.229,18.225,22.891,12.501,22.891z"/>
		<path opacity="0.42" fill-rule="evenodd" clip-rule="evenodd" fill="#F8F8F8" d="M2.119,12.5c0-5.729,4.658-10.391,10.382-10.391
			c5.724,0,10.38,4.662,10.38,10.391s-4.656,10.391-10.38,10.391C6.777,22.891,2.119,18.229,2.119,12.5"/>
		<path fill-rule="evenodd" clip-rule="evenodd" fill="#E6E6E6" d="M12.324,8.086c2.485,0,4.5,2.015,4.5,4.5
			c0,2.485-2.015,4.5-4.5,4.5s-4.5-2.015-4.5-4.5C7.824,10.1,9.839,8.086,12.324,8.086L12.324,8.086z"/>
	</g>
</g>
<g id="phase0">
	<g>
		<path fill-rule="evenodd" clip-rule="evenodd" fill="#65BF0D" d="M12.501,0C5.608,0,0,5.608,0,12.5C0,19.392,5.608,25,12.501,25
			S25,19.392,25,12.5C25,5.608,19.393,0,12.501,0z M12.501,22.891c-5.724,0-10.382-4.662-10.382-10.391
			c0-5.729,4.658-10.391,10.382-10.391s10.38,4.662,10.38,10.391C22.881,18.229,18.225,22.891,12.501,22.891z"/>
		<path opacity="0.42" fill-rule="evenodd" clip-rule="evenodd" fill="#336302" d="M2.119,12.5c0-5.729,4.658-10.391,10.382-10.391
			c5.724,0,10.38,4.662,10.38,10.391s-4.656,10.391-10.38,10.391C6.777,22.891,2.119,18.229,2.119,12.5"/>
		<path fill-rule="evenodd" clip-rule="evenodd" fill="#65BF0D" d="M12.324,8.086c2.485,0,4.5,2.015,4.5,4.5
			c0,2.485-2.015,4.5-4.5,4.5s-4.5-2.015-4.5-4.5C7.824,10.1,9.839,8.086,12.324,8.086L12.324,8.086z"/>
	</g>
</g>
</svg>
