<?xml version="1.0" encoding="utf-8"?>
<!-- Generator: Adobe Illustrator 16.0.2, SVG Export Plug-In . SVG Version: 6.00 Build 0)  -->
<!DOCTYPE svg PUBLIC "-//W3C//DTD SVG 1.1//EN" "http://www.w3.org/Graphics/SVG/1.1/DTD/svg11.dtd">
<svg version="1.1" id="Layer_1" xmlns="http://www.w3.org/2000/svg" xmlns:xlink="http://www.w3.org/1999/xlink" x="0px" y="0px"
	 width="800px" height="72px" viewBox="0 0 800 72" enable-background="new 0 0 800 72" xml:space="preserve">
<g>
	<g>
		<polygon points="800,76 800,65 0,65 0,76 799,76 		"/>
	</g>
	<path display="none" d="M163,64c-26.021,0.029-39.07-64-63-64C56.973,0-10,0-10,0v73c0,0,77.541,0,173,0
		C163.007,73,163.01,64,163,64L163,64z"/>
	<path display="none" d="M637,64c26.018,0.031,39.069-64,63-64c43.028,0,110,0,110,0v72c0,0-77.541,0-173,0
		C636.991,72,636.988,64,637,64L637,64z"/>
</g>
<g>
	<path fill="#FFFFFF" d="M799,65v9H1v-9H799 M800,64H0v11h799h1V64L800,64z"/>
</g>
</svg>
