<?xml version="1.0" encoding="utf-8"?>
<!-- Generator: Adobe Illustrator 16.0.2, SVG Export Plug-In . SVG Version: 6.00 Build 0)  -->
<!DOCTYPE svg PUBLIC "-//W3C//DTD SVG 1.1//EN" "http://www.w3.org/Graphics/SVG/1.1/DTD/svg11.dtd">
<svg version="1.1" id="Layer_1" xmlns="http://www.w3.org/2000/svg" xmlns:xlink="http://www.w3.org/1999/xlink" x="0px" y="0px"
	 width="120px" height="120px" viewBox="0 0 120 120" enable-background="new 0 0 120 120" xml:space="preserve">
<g id="black_white">
	<g>
		
			<linearGradient id="SVGID_1_" gradientUnits="userSpaceOnUse" x1="297.5996" y1="-345.6118" x2="297.5996" y2="-254.1885" gradientTransform="matrix(1 0 0 -1 -237.5996 -239.9004)">
			<stop  offset="0" style="stop-color:#0369B0"/>
			<stop  offset="1" style="stop-color:#1E7FC3"/>
		</linearGradient>
		<ellipse fill="url(#SVGID_1_)" cx="59.999" cy="60" rx="45.839" ry="45.712"/>
		<path fill="#FFFFFF" d="M78.055,44.427c-7.804-8.864-20.951-11.065-30.845-6.196l2.63,4.225l-15.266-0.793l4.893-15.866
			l2.662,4.274c3.696-1.734,7.636-2.857,11.621-3.389l2.18-0.227c11.571-0.927,23.196,3,29.968,11.006
			C82.199,41.057,81.734,41.437,78.055,44.427L78.055,44.427z M95.367,60.038c-0.338,4.062-1.329,8.024-2.857,11.733l-0.89,1.996
			c-4.974,10.461-14.188,18.547-24.526,20.398c-1.279-4.988-1.377-5.581-2.136-10.253c11.597-2.317,20.051-12.577,20.763-23.558
			l-4.964,0.163l8.312-12.793l11.343,12.149L95.367,60.038L95.367,60.038z M42.704,90.938c-3.355-2.324-6.3-5.166-8.755-8.34
			l-1.286-1.771c-6.592-9.529-8.996-21.532-5.429-31.383c4.971,1.393,5.535,1.605,9.969,3.288
			c-3.794,11.172,0.881,23.606,10.056,29.718l2.343-4.366l6.946,13.581l-16.225,3.709L42.704,90.938z"/>
	</g>
</g>
<g id="blue">
	<path fill-opacity="0.1" d="M43.191,103.309c-5.477-2.317-10.395-5.634-14.619-9.855c-4.223-4.225-7.54-9.143-9.855-14.619
		c-2.401-5.673-3.616-11.697-3.616-17.904c0-6.208,1.215-12.23,3.616-17.904c2.316-5.477,5.632-10.395,9.855-14.619
		c4.224-4.223,9.142-7.538,14.619-9.855c5.673-2.399,11.696-3.615,17.905-3.615c6.207,0,12.23,1.215,17.902,3.615
		c5.477,2.317,10.396,5.632,14.618,9.855c4.224,4.223,7.54,9.142,9.856,14.619c2.399,5.672,3.614,11.696,3.614,17.904
		c0,6.207-1.215,12.232-3.614,17.904c-2.316,5.479-5.634,10.396-9.856,14.619c-4.224,4.223-9.142,7.538-14.618,9.855
		c-5.673,2.398-11.695,3.613-17.902,3.613C54.887,106.922,48.864,105.707,43.191,103.309"/>
	<path fill="#70B7E0" d="M41.191,101.309c-5.477-2.317-10.395-5.634-14.619-9.855c-4.223-4.225-7.54-9.143-9.856-14.619
		C14.315,71.161,13.1,65.137,13.1,58.929c0-6.208,1.215-12.231,3.616-17.903c2.316-5.477,5.632-10.395,9.856-14.619
		c4.224-4.223,9.142-7.538,14.619-9.855c5.673-2.399,11.696-3.615,17.904-3.615c6.208,0,12.231,1.215,17.903,3.615
		c5.477,2.317,10.396,5.632,14.618,9.855c4.224,4.223,7.54,9.142,9.856,14.619c2.399,5.672,3.614,11.696,3.614,17.903
		c0,6.208-1.215,12.232-3.614,17.905c-2.316,5.479-5.634,10.396-9.856,14.619c-4.224,4.223-9.142,7.538-14.618,9.855
		c-5.673,2.398-11.695,3.613-17.903,3.613C52.887,104.922,46.864,103.707,41.191,101.309"/>
	<g>
		
			<linearGradient id="SVGID_3_" gradientUnits="userSpaceOnUse" x1="296.6953" y1="-341.8237" x2="296.6953" y2="-255.8364" gradientTransform="matrix(1 0 0 -1 -237.5996 -239.9004)">
			<stop  offset="0" style="stop-color:#48A2FB"/>
			<stop  offset="0.1758" style="stop-color:#059CF4"/>
			<stop  offset="0.4969" style="stop-color:#0398EF"/>
			<stop  offset="0.782" style="stop-color:#0293E7"/>
			<stop  offset="1" style="stop-color:#0189D8"/>
		</linearGradient>
		<path fill="url(#SVGID_3_)" d="M59.095,15.936c23.744,0,42.994,19.249,42.994,42.993c0,23.746-19.25,42.995-42.994,42.995
			c-23.744,0-42.995-19.249-42.995-42.995C16.1,35.184,35.351,15.936,59.095,15.936L59.095,15.936z"/>
	</g>
	
		<linearGradient id="SVGID_4_" gradientUnits="userSpaceOnUse" x1="296.6953" y1="-283.9473" x2="296.6953" y2="-257.4883" gradientTransform="matrix(1 0 0 -1 -237.5996 -239.9004)">
		<stop  offset="0" style="stop-color:#FFFFFF;stop-opacity:0"/>
		<stop  offset="1" style="stop-color:#FFFFFF;stop-opacity:0.8"/>
	</linearGradient>
	<path fill="url(#SVGID_4_)" d="M59.095,17.588c15.068,0,28.111,8.268,28.111,13.23c0,7.306-13.043,13.229-28.111,13.229
		c-15.069,0-28.112-5.922-28.112-13.229C30.983,25.857,44.026,17.588,59.095,17.588L59.095,17.588z"/>
	<path display="none" fill="#70B7E0" d="M37.688,95.372c-0.243-0.315-0.366-0.697-0.366-1.08c0-0.287,0.07-0.576,0.211-0.841
		c0,0,0.958-1.785,1.665-3.104c-2.918-2.203-5.55-4.804-7.842-7.752c-0.176-0.168-1.93-2.664-1.928-2.697
		c-4.486-6.785-6.951-14.604-6.951-22.105c0-3.686,0.596-7.198,1.769-10.443c0.259-0.72,0.94-1.175,1.671-1.175
		c0.16,0,0.32,0.022,0.481,0.066c5.101,1.432,5.682,1.652,10.194,3.367c0.709,0.268,1.147,0.943,1.147,1.663
		c0,0.19-0.03,0.382-0.093,0.573c-0.824,2.426-1.24,4.97-1.24,7.561c0,4,0.996,8.011,2.883,11.609
		c1.564,2.979,3.685,5.574,6.198,7.594c0.674-1.256,1.392-2.599,1.392-2.599c0.31-0.579,0.915-0.938,1.571-0.938
		c0.005,0,0.009,0,0.015,0c0.663,0.007,1.267,0.38,1.568,0.969l6.997,13.702c0.129,0.252,0.194,0.53,0.194,0.81
		c0,0.258-0.056,0.514-0.166,0.752c-0.233,0.498-0.682,0.86-1.216,0.982L39.5,96.025c-0.132,0.031-0.267,0.047-0.399,0.047
		C38.554,96.072,38.028,95.818,37.688,95.372 M64.346,93.516c-1.313-5.125-1.414-5.738-2.187-10.5
		c-0.017-0.097-0.022-0.193-0.022-0.287c0-0.834,0.586-1.574,1.43-1.744c5.184-1.037,10.002-3.885,13.57-8.022
		c3.037-3.521,5.022-7.774,5.701-12.153c-1.428,0.047-2.949,0.1-2.949,0.1c-0.021,0-0.039,0.001-0.059,0.001
		c-0.643,0-1.234-0.345-1.549-0.906c-0.153-0.272-0.232-0.575-0.232-0.876c0-0.337,0.096-0.673,0.287-0.967l8.371-12.908
		c0.299-0.459,0.794-0.755,1.338-0.804c0.055-0.004,0.104-0.007,0.157-0.007c0.489,0,0.962,0.204,1.301,0.568l11.425,12.256
		c0.313,0.335,0.479,0.771,0.479,1.213c0,0.229-0.047,0.462-0.137,0.683c-0.269,0.646-0.889,1.073-1.586,1.095
		c0,0-2.029,0.066-3.525,0.115c-0.446,3.627-1.381,7.203-2.79,10.658c-0.056,0.232-0.97,2.262-1.375,3.023
		c-2.72,5.098-6.163,9.77-10.397,13.348c-4.611,3.899-9.871,6.469-15.212,7.428c-0.108,0.02-0.213,0.027-0.315,0.027
		C65.27,94.854,64.547,94.314,64.346,93.516 M75.771,44.065c-4.578-5.211-11.324-8.2-18.504-8.2c-2.994,0-5.942,0.542-8.631,1.58
		c0.756,1.217,1.565,2.518,1.565,2.518c0.179,0.288,0.269,0.613,0.269,0.939c0,0.312-0.083,0.626-0.249,0.906
		c-0.32,0.543-0.903,0.875-1.532,0.875c-0.031,0-0.061-0.001-0.092-0.003l-15.377-0.8c-0.547-0.028-1.051-0.308-1.365-0.756
		c-0.213-0.304-0.322-0.661-0.322-1.022c0-0.175,0.025-0.351,0.078-0.522l4.927-16.007c0.205-0.667,0.781-1.153,1.472-1.242
		c0.077-0.01,0.153-0.015,0.229-0.015c0.61,0,1.185,0.312,1.511,0.838c0,0,1.074,1.725,1.864,2.996
		c3.365-1.423,6.936-2.4,10.638-2.907c0.227-0.067,2.602-0.339,3.306-0.348c0.602-0.007,1.762-0.05,2.629-0.05
		c5.473,0,10.905,1.043,15.709,3.016c4.998,2.051,9.311,5.112,12.47,8.853c0.282,0.333,0.42,0.743,0.42,1.149
		c0,0.465-0.181,0.926-0.537,1.274c-3.793,3.697-4.272,4.087-8.019,7.135c-0.33,0.267-0.729,0.399-1.123,0.399
		C76.613,44.67,76.121,44.465,75.771,44.065"/>
	<path fill="#70B7E0" d="M39.101,95.055c-0.235,0-0.461-0.111-0.604-0.299c-0.103-0.134-0.158-0.297-0.158-0.464
		c0-0.125,0.032-0.25,0.092-0.362l1.663-3.103c0.237-0.442,0.116-0.99-0.284-1.292c-2.845-2.146-5.418-4.691-7.651-7.563
		c-0.03-0.039-0.063-0.076-0.099-0.111c-0.171-0.202-1.535-2.137-1.742-2.455c-0.013-0.023-0.027-0.047-0.042-0.068
		c-4.374-6.613-6.782-14.266-6.782-21.545c0-3.564,0.574-6.962,1.708-10.098c0.109-0.302,0.396-0.503,0.715-0.503
		c0.069,0,0.138,0.01,0.21,0.03c5.053,1.418,5.628,1.637,10.104,3.337c0.296,0.112,0.493,0.398,0.493,0.712
		c0,0.085-0.014,0.169-0.041,0.25c-0.857,2.523-1.293,5.177-1.293,7.883c0,4.163,1.037,8.338,3,12.081
		c1.617,3.082,3.851,5.818,6.462,7.916c0.182,0.146,0.408,0.225,0.637,0.225c0.067,0,0.136-0.008,0.203-0.021
		c0.296-0.06,0.551-0.248,0.694-0.516l1.392-2.6c0.132-0.246,0.391-0.4,0.674-0.4c0.291,0.003,0.548,0.162,0.678,0.415l6.996,13.701
		c0.055,0.106,0.083,0.228,0.083,0.347c0,0.112-0.024,0.223-0.073,0.325c-0.097,0.208-0.292,0.365-0.519,0.418l-16.344,3.742
		C39.214,95.049,39.158,95.055,39.101,95.055z M66.066,93.836c-0.349,0-0.651-0.234-0.735-0.57
		c-1.306-5.095-1.403-5.701-2.168-10.412c-0.007-0.045-0.011-0.086-0.011-0.125c0-0.36,0.26-0.676,0.615-0.748
		c5.401-1.078,10.424-4.047,14.139-8.354c3.168-3.67,5.221-8.049,5.936-12.661c0.047-0.299-0.043-0.604-0.242-0.831
		c-0.195-0.218-0.472-0.343-0.763-0.343c-0.012,0-2.983,0.1-2.983,0.1c-0.299,0-0.553-0.146-0.687-0.387
		c-0.065-0.118-0.103-0.249-0.103-0.378c0-0.147,0.043-0.289,0.121-0.411l8.375-12.911c0.125-0.194,0.342-0.323,0.574-0.344
		c0.006,0,0.01,0,0.016,0c0.27,0,0.467,0.088,0.606,0.24l11.427,12.257c0.131,0.142,0.203,0.326,0.203,0.52
		c0,0.098-0.021,0.201-0.061,0.298c-0.112,0.27-0.378,0.454-0.676,0.463l-3.527,0.115c-0.501,0.017-0.916,0.396-0.977,0.892
		c-0.436,3.536-1.352,7.034-2.723,10.399c-0.02,0.051-0.035,0.1-0.049,0.15c-0.074,0.217-0.893,2.046-1.283,2.777
		c-2.876,5.395-6.293,9.785-10.156,13.05c-4.475,3.784-9.568,6.274-14.733,7.203C66.166,93.83,66.116,93.836,66.066,93.836z
		 M77.107,43.653c-0.221,0-0.428-0.095-0.572-0.258c-4.771-5.433-11.795-8.547-19.269-8.547c-3.093,0-6.205,0.57-8.998,1.648
		c-0.282,0.109-0.501,0.339-0.598,0.626s-0.059,0.603,0.101,0.86l1.565,2.518c0.075,0.121,0.115,0.26,0.115,0.402
		c0,0.136-0.037,0.269-0.105,0.387c-0.138,0.233-0.389,0.376-0.658,0.376l-15.417-0.801c-0.232-0.013-0.451-0.133-0.583-0.323
		c-0.092-0.131-0.139-0.282-0.139-0.44c0-0.076,0.011-0.151,0.033-0.223l4.927-16.008c0.088-0.286,0.335-0.494,0.629-0.532
		c0.03-0.004,0.065-0.006,0.1-0.006c0.262,0,0.51,0.137,0.646,0.357c0.039,0.062,1.089,1.748,1.865,2.997
		c0.191,0.306,0.522,0.479,0.864,0.479c0.133,0,0.268-0.026,0.396-0.08c3.282-1.389,6.774-2.343,10.379-2.836
		c0.051-0.007,0.102-0.018,0.151-0.032c0.255-0.052,2.402-0.298,3.031-0.306c0.228-0.003,0.536-0.011,0.877-0.019
		c0.556-0.015,1.204-0.031,1.739-0.031c5.341,0,10.639,1.017,15.326,2.94c4.848,1.989,9.022,4.952,12.076,8.568
		c0.116,0.138,0.182,0.313,0.182,0.493c0,0.207-0.084,0.401-0.23,0.547c-3.758,3.661-4.232,4.049-7.939,7.065
		C77.416,43.624,77.23,43.653,77.107,43.653z"/>
	<path fill="#FFFFFF" d="M43.071,90.656c0.142-0.268,0.21-0.555,0.21-0.84c0-0.566-0.271-1.119-0.765-1.463
		c-3.171-2.203-6.006-4.908-8.424-8.039c-0.057-0.074-0.117-0.144-0.185-0.205c0,0-0.891-1.266-1.055-1.506
		c-4.395-6.362-6.815-13.754-6.815-20.813c0-2.679,0.351-5.249,1.045-7.66c2.974,0.85,4.075,1.226,6.694,2.213
		c-0.617,2.291-0.929,4.658-0.929,7.059c0,9.348,4.696,18.287,12.254,23.33c0.295,0.197,0.64,0.301,0.988,0.301
		c0.143,0,0.289-0.02,0.432-0.055c0.487-0.121,0.899-0.442,1.137-0.885c0,0,0.426-0.796,0.754-1.406
		c1.519,2.977,3.294,6.455,4.41,8.639c-2.424,0.557-6.614,1.514-10.301,2.357C42.716,91.32,43.071,90.656,43.071,90.656
		 M65.939,84.083c5.313-1.429,10.193-4.509,13.891-8.796c3.992-4.627,6.396-10.385,6.773-16.211
		c0.004-0.038,0.004-0.077,0.004-0.114c0-0.461-0.178-0.906-0.502-1.237c-0.334-0.347-0.795-0.542-1.275-0.542
		c-0.02,0-0.039,0.002-0.061,0.002c0,0-0.9,0.03-1.592,0.052c1.818-2.806,3.943-6.083,5.276-8.136
		c1.694,1.817,4.622,4.958,7.2,7.725c-0.413,0.014-1.168,0.039-1.168,0.039c-0.901,0.03-1.641,0.73-1.715,1.63
		c-0.321,3.849-1.246,7.651-2.752,11.31c-0.033,0.086-0.063,0.174-0.086,0.262c0.002,0-0.646,1.402-0.771,1.668
		C84.52,81.518,76.277,88.75,67.37,90.975C66.618,87.982,66.393,86.844,65.939,84.083 M57.266,32.306
		c-4.224,0-8.378,0.947-12.014,2.739c-0.45,0.222-0.787,0.624-0.924,1.107c-0.046,0.162-0.069,0.325-0.069,0.489
		c0,0.33,0.091,0.654,0.269,0.94c0,0,0.479,0.772,0.851,1.368c-3.341-0.174-7.244-0.378-9.693-0.504
		c0.731-2.375,1.994-6.482,3.105-10.092c0.22,0.354,0.62,0.997,0.62,0.997c0.334,0.537,0.913,0.839,1.511,0.839
		c0.255,0,0.513-0.054,0.757-0.169c3.495-1.641,7.257-2.739,11.185-3.266c0.09-0.012,0.179-0.031,0.268-0.057
		c0,0,1.451-0.155,1.691-0.155c0.047,0,0.094-0.001,0.141-0.006c1.076-0.087,2.161-0.129,3.223-0.129
		c9.678,0,18.641,3.479,24.347,9.378c-2.22,2.145-3.097,2.907-5.265,4.679C72.072,35.258,64.879,32.306,57.266,32.306"/>
</g>
<g id="green">
	<path fill-opacity="0.1" d="M43.191,103.309c-5.477-2.317-10.395-5.634-14.619-9.855c-4.223-4.225-7.54-9.143-9.855-14.619
		c-2.401-5.673-3.616-11.697-3.616-17.904c0-6.208,1.215-12.23,3.616-17.904c2.316-5.477,5.632-10.395,9.855-14.619
		c4.224-4.223,9.142-7.538,14.619-9.855c5.673-2.399,11.696-3.615,17.905-3.615c6.207,0,12.23,1.215,17.902,3.615
		c5.477,2.317,10.396,5.632,14.618,9.855c4.224,4.223,7.54,9.142,9.856,14.619c2.399,5.672,3.614,11.696,3.614,17.904
		c0,6.207-1.215,12.232-3.614,17.904c-2.316,5.479-5.634,10.396-9.856,14.619c-4.224,4.223-9.142,7.538-14.618,9.855
		c-5.673,2.398-11.695,3.613-17.902,3.613C54.887,106.922,48.864,105.707,43.191,103.309"/>
	<path fill="#03FC30" d="M41.191,101.309c-5.477-2.317-10.395-5.634-14.619-9.855c-4.223-4.225-7.54-9.143-9.856-14.619
		C14.315,71.161,13.1,65.137,13.1,58.929c0-6.208,1.215-12.231,3.616-17.903c2.316-5.477,5.632-10.395,9.856-14.619
		c4.224-4.223,9.142-7.538,14.619-9.855c5.673-2.399,11.696-3.615,17.904-3.615c6.208,0,12.231,1.215,17.903,3.615
		c5.477,2.317,10.396,5.632,14.618,9.855c4.224,4.223,7.54,9.142,9.856,14.619c2.399,5.672,3.614,11.696,3.614,17.903
		c0,6.208-1.215,12.232-3.614,17.905c-2.316,5.479-5.634,10.396-9.856,14.619c-4.224,4.223-9.142,7.538-14.618,9.855
		c-5.673,2.398-11.695,3.613-17.903,3.613C52.887,104.922,46.864,103.707,41.191,101.309"/>
	<g>
		
			<linearGradient id="SVGID_5_" gradientUnits="userSpaceOnUse" x1="296.6953" y1="-341.8237" x2="296.6953" y2="-255.8364" gradientTransform="matrix(1 0 0 -1 -237.5996 -239.9004)">
			<stop  offset="0" style="stop-color:#00DF34"/>
			<stop  offset="0.1758" style="stop-color:#00CD26"/>
			<stop  offset="0.4969" style="stop-color:#00B211"/>
			<stop  offset="0.782" style="stop-color:#00A204"/>
			<stop  offset="1" style="stop-color:#009C00"/>
		</linearGradient>
		<path fill="url(#SVGID_5_)" d="M59.095,15.936c23.744,0,42.994,19.249,42.994,42.993c0,23.746-19.25,42.995-42.994,42.995
			c-23.744,0-42.995-19.249-42.995-42.995C16.1,35.184,35.351,15.936,59.095,15.936L59.095,15.936z"/>
	</g>
	
		<linearGradient id="SVGID_6_" gradientUnits="userSpaceOnUse" x1="296.6953" y1="-283.9473" x2="296.6953" y2="-257.4883" gradientTransform="matrix(1 0 0 -1 -237.5996 -239.9004)">
		<stop  offset="0" style="stop-color:#FFFFFF;stop-opacity:0"/>
		<stop  offset="1" style="stop-color:#FFFFFF;stop-opacity:0.8"/>
	</linearGradient>
	<path fill="url(#SVGID_6_)" d="M59.095,17.588c15.068,0,28.111,8.268,28.111,13.23c0,7.306-13.043,13.229-28.111,13.229
		c-15.069,0-28.112-5.922-28.112-13.229C30.983,25.857,44.026,17.588,59.095,17.588L59.095,17.588z"/>
	<path display="none" fill="#03FC30" d="M37.688,95.372c-0.243-0.315-0.366-0.697-0.366-1.08c0-0.287,0.07-0.576,0.211-0.841
		c0,0,0.958-1.785,1.665-3.104c-2.918-2.203-5.55-4.804-7.842-7.752c-0.176-0.168-1.93-2.664-1.928-2.697
		c-4.486-6.785-6.951-14.604-6.951-22.105c0-3.686,0.596-7.198,1.769-10.443c0.259-0.72,0.94-1.175,1.671-1.175
		c0.16,0,0.32,0.022,0.481,0.066c5.101,1.432,5.682,1.652,10.194,3.367c0.709,0.268,1.147,0.943,1.147,1.663
		c0,0.19-0.03,0.382-0.093,0.573c-0.824,2.426-1.24,4.97-1.24,7.561c0,4,0.996,8.011,2.883,11.609
		c1.564,2.979,3.685,5.574,6.198,7.594c0.674-1.256,1.392-2.599,1.392-2.599c0.31-0.579,0.915-0.938,1.571-0.938
		c0.005,0,0.009,0,0.015,0c0.663,0.007,1.267,0.38,1.568,0.969l6.997,13.702c0.129,0.252,0.194,0.53,0.194,0.81
		c0,0.258-0.056,0.514-0.166,0.752c-0.233,0.498-0.682,0.86-1.216,0.982L39.5,96.025c-0.132,0.031-0.267,0.047-0.399,0.047
		C38.554,96.072,38.028,95.818,37.688,95.372 M64.346,93.516c-1.313-5.125-1.414-5.738-2.187-10.5
		c-0.017-0.097-0.022-0.193-0.022-0.287c0-0.834,0.586-1.574,1.43-1.744c5.184-1.037,10.002-3.885,13.57-8.022
		c3.037-3.521,5.022-7.774,5.701-12.153c-1.428,0.047-2.949,0.1-2.949,0.1c-0.021,0-0.039,0.001-0.059,0.001
		c-0.643,0-1.234-0.345-1.549-0.906c-0.153-0.272-0.232-0.575-0.232-0.876c0-0.337,0.096-0.673,0.287-0.967l8.371-12.908
		c0.299-0.459,0.794-0.755,1.338-0.804c0.055-0.004,0.104-0.007,0.157-0.007c0.489,0,0.962,0.204,1.301,0.568l11.425,12.256
		c0.313,0.335,0.479,0.771,0.479,1.213c0,0.229-0.047,0.462-0.137,0.683c-0.269,0.646-0.889,1.073-1.586,1.095
		c0,0-2.029,0.066-3.525,0.115c-0.446,3.627-1.381,7.203-2.79,10.658c-0.056,0.232-0.97,2.262-1.375,3.023
		c-2.72,5.098-6.163,9.77-10.397,13.348c-4.611,3.899-9.871,6.469-15.212,7.428c-0.108,0.02-0.213,0.027-0.315,0.027
		C65.27,94.854,64.547,94.314,64.346,93.516 M75.771,44.065c-4.578-5.211-11.324-8.2-18.504-8.2c-2.994,0-5.942,0.542-8.631,1.58
		c0.756,1.217,1.565,2.518,1.565,2.518c0.179,0.288,0.269,0.613,0.269,0.939c0,0.312-0.083,0.626-0.249,0.906
		c-0.32,0.543-0.903,0.875-1.532,0.875c-0.031,0-0.061-0.001-0.092-0.003l-15.377-0.8c-0.547-0.028-1.051-0.308-1.365-0.756
		c-0.213-0.304-0.322-0.661-0.322-1.022c0-0.175,0.025-0.351,0.078-0.522l4.927-16.007c0.205-0.667,0.781-1.153,1.472-1.242
		c0.077-0.01,0.153-0.015,0.229-0.015c0.61,0,1.185,0.312,1.511,0.838c0,0,1.074,1.725,1.864,2.996
		c3.365-1.423,6.936-2.4,10.638-2.907c0.227-0.067,2.602-0.339,3.306-0.348c0.602-0.007,1.762-0.05,2.629-0.05
		c5.473,0,10.905,1.043,15.709,3.016c4.998,2.051,9.311,5.112,12.47,8.853c0.282,0.333,0.42,0.743,0.42,1.149
		c0,0.465-0.181,0.926-0.537,1.274c-3.793,3.697-4.272,4.087-8.019,7.135c-0.33,0.267-0.729,0.399-1.123,0.399
		C76.613,44.67,76.121,44.465,75.771,44.065"/>
	<path fill="#03FC30" d="M39.101,95.055c-0.235,0-0.461-0.111-0.604-0.299c-0.103-0.134-0.158-0.297-0.158-0.464
		c0-0.125,0.032-0.25,0.092-0.362l1.663-3.103c0.237-0.442,0.116-0.99-0.284-1.292c-2.845-2.146-5.418-4.691-7.651-7.563
		c-0.03-0.039-0.063-0.076-0.099-0.111c-0.171-0.202-1.535-2.137-1.742-2.455c-0.013-0.023-0.027-0.047-0.042-0.068
		c-4.374-6.613-6.782-14.266-6.782-21.545c0-3.564,0.574-6.962,1.708-10.098c0.109-0.302,0.396-0.503,0.715-0.503
		c0.069,0,0.138,0.01,0.21,0.03c5.053,1.418,5.628,1.637,10.104,3.337c0.296,0.112,0.493,0.398,0.493,0.712
		c0,0.085-0.014,0.169-0.041,0.25c-0.857,2.523-1.293,5.177-1.293,7.883c0,4.163,1.037,8.338,3,12.081
		c1.617,3.082,3.851,5.818,6.462,7.916c0.182,0.146,0.408,0.225,0.637,0.225c0.067,0,0.136-0.008,0.203-0.021
		c0.296-0.06,0.551-0.248,0.694-0.516l1.392-2.6c0.132-0.246,0.391-0.4,0.674-0.4c0.291,0.003,0.548,0.162,0.678,0.415l6.996,13.701
		c0.055,0.106,0.083,0.228,0.083,0.347c0,0.112-0.024,0.223-0.073,0.325c-0.097,0.208-0.292,0.365-0.519,0.418l-16.344,3.742
		C39.214,95.049,39.158,95.055,39.101,95.055z M66.066,93.836c-0.349,0-0.651-0.234-0.735-0.57
		c-1.306-5.095-1.403-5.701-2.168-10.412c-0.007-0.045-0.011-0.086-0.011-0.125c0-0.36,0.26-0.676,0.615-0.748
		c5.401-1.078,10.424-4.047,14.139-8.354c3.168-3.67,5.221-8.049,5.936-12.661c0.047-0.299-0.043-0.604-0.242-0.831
		c-0.195-0.218-0.472-0.343-0.763-0.343c-0.012,0-2.983,0.1-2.983,0.1c-0.299,0-0.553-0.146-0.687-0.387
		c-0.065-0.118-0.103-0.249-0.103-0.378c0-0.147,0.043-0.289,0.121-0.411l8.375-12.911c0.125-0.194,0.342-0.323,0.574-0.344
		c0.006,0,0.01,0,0.016,0c0.27,0,0.467,0.088,0.606,0.24l11.427,12.257c0.131,0.142,0.203,0.326,0.203,0.52
		c0,0.098-0.021,0.201-0.061,0.298c-0.112,0.27-0.378,0.454-0.676,0.463l-3.527,0.115c-0.501,0.017-0.916,0.396-0.977,0.892
		c-0.436,3.536-1.352,7.034-2.723,10.399c-0.02,0.051-0.035,0.1-0.049,0.15c-0.074,0.217-0.893,2.046-1.283,2.777
		c-2.876,5.395-6.293,9.785-10.156,13.05c-4.475,3.784-9.568,6.274-14.733,7.203C66.166,93.83,66.116,93.836,66.066,93.836z
		 M77.107,43.653c-0.221,0-0.428-0.095-0.572-0.258c-4.771-5.433-11.795-8.547-19.269-8.547c-3.093,0-6.205,0.57-8.998,1.648
		c-0.282,0.109-0.501,0.339-0.598,0.626s-0.059,0.603,0.101,0.86l1.565,2.518c0.075,0.121,0.115,0.26,0.115,0.402
		c0,0.136-0.037,0.269-0.105,0.387c-0.138,0.233-0.389,0.376-0.658,0.376l-15.417-0.801c-0.232-0.013-0.451-0.133-0.583-0.323
		c-0.092-0.131-0.139-0.282-0.139-0.44c0-0.076,0.011-0.151,0.033-0.223l4.927-16.008c0.088-0.286,0.335-0.494,0.629-0.532
		c0.03-0.004,0.065-0.006,0.1-0.006c0.262,0,0.51,0.137,0.646,0.357c0.039,0.062,1.089,1.748,1.865,2.997
		c0.191,0.306,0.522,0.479,0.864,0.479c0.133,0,0.268-0.026,0.396-0.08c3.282-1.389,6.774-2.343,10.379-2.836
		c0.051-0.007,0.102-0.018,0.151-0.032c0.255-0.052,2.402-0.298,3.031-0.306c0.228-0.003,0.536-0.011,0.877-0.019
		c0.556-0.015,1.204-0.031,1.739-0.031c5.341,0,10.639,1.017,15.326,2.94c4.848,1.989,9.022,4.952,12.076,8.568
		c0.116,0.138,0.182,0.313,0.182,0.493c0,0.207-0.084,0.401-0.23,0.547c-3.758,3.661-4.232,4.049-7.939,7.065
		C77.416,43.624,77.23,43.653,77.107,43.653z"/>
	<path fill="#FFFFFF" d="M43.071,90.656c0.142-0.268,0.21-0.555,0.21-0.84c0-0.566-0.271-1.119-0.765-1.463
		c-3.171-2.203-6.006-4.908-8.424-8.039c-0.057-0.074-0.117-0.144-0.185-0.205c0,0-0.891-1.266-1.055-1.506
		c-4.395-6.362-6.815-13.754-6.815-20.813c0-2.679,0.351-5.249,1.045-7.66c2.974,0.85,4.075,1.226,6.694,2.213
		c-0.617,2.291-0.929,4.658-0.929,7.059c0,9.348,4.696,18.287,12.254,23.33c0.295,0.197,0.64,0.301,0.988,0.301
		c0.143,0,0.289-0.02,0.432-0.055c0.487-0.121,0.899-0.442,1.137-0.885c0,0,0.426-0.796,0.754-1.406
		c1.519,2.977,3.294,6.455,4.41,8.639c-2.424,0.557-6.614,1.514-10.301,2.357C42.716,91.32,43.071,90.656,43.071,90.656
		 M65.939,84.083c5.313-1.429,10.193-4.509,13.891-8.796c3.992-4.627,6.396-10.385,6.773-16.211
		c0.004-0.038,0.004-0.077,0.004-0.114c0-0.461-0.178-0.906-0.502-1.237c-0.334-0.347-0.795-0.542-1.275-0.542
		c-0.02,0-0.039,0.002-0.061,0.002c0,0-0.9,0.03-1.592,0.052c1.818-2.806,3.943-6.083,5.276-8.136
		c1.694,1.817,4.622,4.958,7.2,7.725c-0.413,0.014-1.168,0.039-1.168,0.039c-0.901,0.03-1.641,0.73-1.715,1.63
		c-0.321,3.849-1.246,7.651-2.752,11.31c-0.033,0.086-0.063,0.174-0.086,0.262c0.002,0-0.646,1.402-0.771,1.668
		C84.52,81.518,76.277,88.75,67.37,90.975C66.618,87.982,66.393,86.844,65.939,84.083 M57.266,32.306
		c-4.224,0-8.378,0.947-12.014,2.739c-0.45,0.222-0.787,0.624-0.924,1.107c-0.046,0.162-0.069,0.325-0.069,0.489
		c0,0.33,0.091,0.654,0.269,0.94c0,0,0.479,0.772,0.851,1.368c-3.341-0.174-7.244-0.378-9.693-0.504
		c0.731-2.375,1.994-6.482,3.105-10.092c0.22,0.354,0.62,0.997,0.62,0.997c0.334,0.537,0.913,0.839,1.511,0.839
		c0.255,0,0.513-0.054,0.757-0.169c3.495-1.641,7.257-2.739,11.185-3.266c0.09-0.012,0.179-0.031,0.268-0.057
		c0,0,1.451-0.155,1.691-0.155c0.047,0,0.094-0.001,0.141-0.006c1.076-0.087,2.161-0.129,3.223-0.129
		c9.678,0,18.641,3.479,24.347,9.378c-2.22,2.145-3.097,2.907-5.265,4.679C72.072,35.258,64.879,32.306,57.266,32.306"/>
</g>
<g id="kia">
	<path fill-opacity="0.1" d="M43.191,103.309c-5.477-2.317-10.395-5.634-14.619-9.855c-4.223-4.225-7.54-9.143-9.855-14.619
		c-2.401-5.673-3.616-11.697-3.616-17.904c0-6.208,1.215-12.23,3.616-17.904c2.316-5.477,5.632-10.395,9.855-14.619
		c4.224-4.223,9.142-7.538,14.619-9.855c5.673-2.399,11.696-3.615,17.905-3.615c6.207,0,12.23,1.215,17.902,3.615
		c5.477,2.317,10.396,5.632,14.618,9.855c4.224,4.223,7.54,9.142,9.856,14.619c2.399,5.672,3.614,11.696,3.614,17.904
		c0,6.207-1.215,12.232-3.614,17.904c-2.316,5.479-5.634,10.396-9.856,14.619c-4.224,4.223-9.142,7.538-14.618,9.855
		c-5.673,2.398-11.695,3.613-17.902,3.613C54.887,106.922,48.864,105.707,43.191,103.309"/>
	<path fill="#000000" d="M41.191,101.309c-5.477-2.317-10.395-5.634-14.619-9.855c-4.223-4.225-7.54-9.143-9.856-14.619
		C14.315,71.161,13.1,65.137,13.1,58.929c0-6.208,1.215-12.231,3.616-17.903c2.316-5.477,5.632-10.395,9.856-14.619
		c4.224-4.223,9.142-7.538,14.619-9.855c5.673-2.399,11.696-3.615,17.904-3.615c6.208,0,12.231,1.215,17.903,3.615
		c5.477,2.317,10.396,5.632,14.618,9.855c4.224,4.223,7.54,9.142,9.856,14.619c2.399,5.672,3.614,11.696,3.614,17.903
		c0,6.208-1.215,12.232-3.614,17.905c-2.316,5.479-5.634,10.396-9.856,14.619c-4.224,4.223-9.142,7.538-14.618,9.855
		c-5.673,2.398-11.695,3.613-17.903,3.613C52.887,104.922,46.864,103.707,41.191,101.309"/>
	<g>
		
			<linearGradient id="SVGID_7_" gradientUnits="userSpaceOnUse" x1="296.6953" y1="-341.8237" x2="296.6953" y2="-255.8364" gradientTransform="matrix(1 0 0 -1 -237.5996 -239.9004)">
			<stop  offset="0" style="stop-color:#FFFFFF"/>
			<stop  offset="0.1758" style="stop-color:#E7E9EA"/>
			<stop  offset="0.4969" style="stop-color:#CDD2D5"/>
			<stop  offset="0.782" style="stop-color:#C5CACC"/>
			<stop  offset="1" style="stop-color:#BABDC0"/>
		</linearGradient>
		<path fill="url(#SVGID_7_)" d="M59.095,15.936c23.744,0,42.994,19.249,42.994,42.993c0,23.746-19.25,42.995-42.994,42.995
			c-23.744,0-42.995-19.249-42.995-42.995C16.1,35.184,35.351,15.936,59.095,15.936L59.095,15.936z"/>
	</g>
	
		<linearGradient id="SVGID_8_" gradientUnits="userSpaceOnUse" x1="296.6953" y1="-283.9473" x2="296.6953" y2="-257.4883" gradientTransform="matrix(1 0 0 -1 -237.5996 -239.9004)">
		<stop  offset="0" style="stop-color:#FFFFFF;stop-opacity:0"/>
		<stop  offset="1" style="stop-color:#FFFFFF;stop-opacity:0.8"/>
	</linearGradient>
	<path fill="url(#SVGID_8_)" d="M59.095,17.588c15.068,0,28.111,8.268,28.111,13.23c0,7.306-13.043,13.229-28.111,13.229
		c-15.069,0-28.112-5.922-28.112-13.229C30.983,25.857,44.026,17.588,59.095,17.588L59.095,17.588z"/>
	<path display="none" fill="#000000" d="M37.688,95.372c-0.243-0.315-0.366-0.697-0.366-1.08c0-0.287,0.07-0.576,0.211-0.841
		c0,0,0.958-1.785,1.665-3.104c-2.918-2.203-5.55-4.804-7.842-7.752c-0.176-0.168-1.93-2.664-1.928-2.697
		c-4.486-6.785-6.951-14.604-6.951-22.105c0-3.686,0.596-7.198,1.769-10.443c0.259-0.72,0.94-1.175,1.671-1.175
		c0.16,0,0.32,0.022,0.481,0.066c5.101,1.432,5.682,1.652,10.194,3.367c0.709,0.268,1.147,0.943,1.147,1.663
		c0,0.19-0.03,0.382-0.093,0.573c-0.824,2.426-1.24,4.97-1.24,7.561c0,4,0.996,8.011,2.883,11.609
		c1.564,2.979,3.685,5.574,6.198,7.594c0.674-1.256,1.392-2.599,1.392-2.599c0.31-0.579,0.915-0.938,1.571-0.938
		c0.005,0,0.009,0,0.015,0c0.663,0.007,1.267,0.38,1.568,0.969l6.997,13.702c0.129,0.252,0.194,0.53,0.194,0.81
		c0,0.258-0.056,0.514-0.166,0.752c-0.233,0.498-0.682,0.86-1.216,0.982L39.5,96.025c-0.132,0.031-0.267,0.047-0.399,0.047
		C38.554,96.072,38.028,95.818,37.688,95.372 M64.346,93.516c-1.313-5.125-1.414-5.738-2.187-10.5
		c-0.017-0.097-0.022-0.193-0.022-0.287c0-0.834,0.586-1.574,1.43-1.744c5.184-1.037,10.002-3.885,13.57-8.022
		c3.037-3.521,5.022-7.774,5.701-12.153c-1.428,0.047-2.949,0.1-2.949,0.1c-0.021,0-0.039,0.001-0.059,0.001
		c-0.643,0-1.234-0.345-1.549-0.906c-0.153-0.272-0.232-0.575-0.232-0.876c0-0.337,0.096-0.673,0.287-0.967l8.371-12.908
		c0.299-0.459,0.794-0.755,1.338-0.804c0.055-0.004,0.104-0.007,0.157-0.007c0.489,0,0.962,0.204,1.301,0.568l11.425,12.256
		c0.313,0.335,0.479,0.771,0.479,1.213c0,0.229-0.047,0.462-0.137,0.683c-0.269,0.646-0.889,1.073-1.586,1.095
		c0,0-2.029,0.066-3.525,0.115c-0.446,3.627-1.381,7.203-2.79,10.658c-0.056,0.232-0.97,2.262-1.375,3.023
		c-2.72,5.098-6.163,9.77-10.397,13.348c-4.611,3.899-9.871,6.469-15.212,7.428c-0.108,0.02-0.213,0.027-0.315,0.027
		C65.27,94.854,64.547,94.314,64.346,93.516 M75.771,44.065c-4.578-5.211-11.324-8.2-18.504-8.2c-2.994,0-5.942,0.542-8.631,1.58
		c0.756,1.217,1.565,2.518,1.565,2.518c0.179,0.288,0.269,0.613,0.269,0.939c0,0.312-0.083,0.626-0.249,0.906
		c-0.32,0.543-0.903,0.875-1.532,0.875c-0.031,0-0.061-0.001-0.092-0.003l-15.377-0.8c-0.547-0.028-1.051-0.308-1.365-0.756
		c-0.213-0.304-0.322-0.661-0.322-1.022c0-0.175,0.025-0.351,0.078-0.522l4.927-16.007c0.205-0.667,0.781-1.153,1.472-1.242
		c0.077-0.01,0.153-0.015,0.229-0.015c0.61,0,1.185,0.312,1.511,0.838c0,0,1.074,1.725,1.864,2.996
		c3.365-1.423,6.936-2.4,10.638-2.907c0.227-0.067,2.602-0.339,3.306-0.348c0.602-0.007,1.762-0.05,2.629-0.05
		c5.473,0,10.905,1.043,15.709,3.016c4.998,2.051,9.311,5.112,12.47,8.853c0.282,0.333,0.42,0.743,0.42,1.149
		c0,0.465-0.181,0.926-0.537,1.274c-3.793,3.697-4.272,4.087-8.019,7.135c-0.33,0.267-0.729,0.399-1.123,0.399
		C76.613,44.67,76.121,44.465,75.771,44.065"/>
	<path fill="#000000" d="M39.101,95.055c-0.235,0-0.461-0.111-0.604-0.299c-0.103-0.134-0.158-0.297-0.158-0.464
		c0-0.125,0.032-0.25,0.092-0.362l1.663-3.103c0.237-0.442,0.116-0.99-0.284-1.292c-2.845-2.146-5.418-4.691-7.651-7.563
		c-0.03-0.039-0.063-0.076-0.099-0.111c-0.171-0.202-1.535-2.137-1.742-2.455c-0.013-0.023-0.027-0.047-0.042-0.068
		c-4.374-6.613-6.782-14.266-6.782-21.545c0-3.564,0.574-6.962,1.708-10.098c0.109-0.302,0.396-0.503,0.715-0.503
		c0.069,0,0.138,0.01,0.21,0.03c5.053,1.418,5.628,1.637,10.104,3.337c0.296,0.112,0.493,0.398,0.493,0.712
		c0,0.085-0.014,0.169-0.041,0.25c-0.857,2.523-1.293,5.177-1.293,7.883c0,4.163,1.037,8.338,3,12.081
		c1.617,3.082,3.851,5.818,6.462,7.916c0.182,0.146,0.408,0.225,0.637,0.225c0.067,0,0.136-0.008,0.203-0.021
		c0.296-0.06,0.551-0.248,0.694-0.516l1.392-2.6c0.132-0.246,0.391-0.4,0.674-0.4c0.291,0.003,0.548,0.162,0.678,0.415l6.996,13.701
		c0.055,0.106,0.083,0.228,0.083,0.347c0,0.112-0.024,0.223-0.073,0.325c-0.097,0.208-0.292,0.365-0.519,0.418l-16.344,3.742
		C39.214,95.049,39.158,95.055,39.101,95.055z M66.066,93.836c-0.349,0-0.651-0.234-0.735-0.57
		c-1.306-5.095-1.403-5.701-2.168-10.412c-0.007-0.045-0.011-0.086-0.011-0.125c0-0.36,0.26-0.676,0.615-0.748
		c5.401-1.078,10.424-4.047,14.139-8.354c3.168-3.67,5.221-8.049,5.936-12.661c0.047-0.299-0.043-0.604-0.242-0.831
		c-0.195-0.218-0.472-0.343-0.763-0.343c-0.012,0-2.983,0.1-2.983,0.1c-0.299,0-0.553-0.146-0.687-0.387
		c-0.065-0.118-0.103-0.249-0.103-0.378c0-0.147,0.043-0.289,0.121-0.411l8.375-12.911c0.125-0.194,0.342-0.323,0.574-0.344
		c0.006,0,0.01,0,0.016,0c0.27,0,0.467,0.088,0.606,0.24l11.427,12.257c0.131,0.142,0.203,0.326,0.203,0.52
		c0,0.098-0.021,0.201-0.061,0.298c-0.112,0.27-0.378,0.454-0.676,0.463l-3.527,0.115c-0.501,0.017-0.916,0.396-0.977,0.892
		c-0.436,3.536-1.352,7.034-2.723,10.399c-0.02,0.051-0.035,0.1-0.049,0.15c-0.074,0.217-0.893,2.046-1.283,2.777
		c-2.876,5.395-6.293,9.785-10.156,13.05c-4.475,3.784-9.568,6.274-14.733,7.203C66.166,93.83,66.116,93.836,66.066,93.836z
		 M77.107,43.653c-0.221,0-0.428-0.095-0.572-0.258c-4.771-5.433-11.795-8.547-19.269-8.547c-3.093,0-6.205,0.57-8.998,1.648
		c-0.282,0.109-0.501,0.339-0.598,0.626s-0.059,0.603,0.101,0.86l1.565,2.518c0.075,0.121,0.115,0.26,0.115,0.402
		c0,0.136-0.037,0.269-0.105,0.387c-0.138,0.233-0.389,0.376-0.658,0.376l-15.417-0.801c-0.232-0.013-0.451-0.133-0.583-0.323
		c-0.092-0.131-0.139-0.282-0.139-0.44c0-0.076,0.011-0.151,0.033-0.223l4.927-16.008c0.088-0.286,0.335-0.494,0.629-0.532
		c0.03-0.004,0.065-0.006,0.1-0.006c0.262,0,0.51,0.137,0.646,0.357c0.039,0.062,1.089,1.748,1.865,2.997
		c0.191,0.306,0.522,0.479,0.864,0.479c0.133,0,0.268-0.026,0.396-0.08c3.282-1.389,6.774-2.343,10.379-2.836
		c0.051-0.007,0.102-0.018,0.151-0.032c0.255-0.052,2.402-0.298,3.031-0.306c0.228-0.003,0.536-0.011,0.877-0.019
		c0.556-0.015,1.204-0.031,1.739-0.031c5.341,0,10.639,1.017,15.326,2.94c4.848,1.989,9.022,4.952,12.076,8.568
		c0.116,0.138,0.182,0.313,0.182,0.493c0,0.207-0.084,0.401-0.23,0.547c-3.758,3.661-4.232,4.049-7.939,7.065
		C77.416,43.624,77.23,43.653,77.107,43.653z"/>
	<path fill="#FFFFFF" d="M43.071,90.656c0.142-0.268,0.21-0.555,0.21-0.84c0-0.566-0.271-1.119-0.765-1.463
		c-3.171-2.203-6.006-4.908-8.424-8.039c-0.057-0.074-0.117-0.144-0.185-0.205c0,0-0.891-1.266-1.055-1.506
		c-4.395-6.362-6.815-13.754-6.815-20.813c0-2.679,0.351-5.249,1.045-7.66c2.974,0.85,4.075,1.226,6.694,2.213
		c-0.617,2.291-0.929,4.658-0.929,7.059c0,9.348,4.696,18.287,12.254,23.33c0.295,0.197,0.64,0.301,0.988,0.301
		c0.143,0,0.289-0.02,0.432-0.055c0.487-0.121,0.899-0.442,1.137-0.885c0,0,0.426-0.796,0.754-1.406
		c1.519,2.977,3.294,6.455,4.41,8.639c-2.424,0.557-6.614,1.514-10.301,2.357C42.716,91.32,43.071,90.656,43.071,90.656
		 M65.939,84.083c5.313-1.429,10.193-4.509,13.891-8.796c3.992-4.627,6.396-10.385,6.773-16.211
		c0.004-0.038,0.004-0.077,0.004-0.114c0-0.461-0.178-0.906-0.502-1.237c-0.334-0.347-0.795-0.542-1.275-0.542
		c-0.02,0-0.039,0.002-0.061,0.002c0,0-0.9,0.03-1.592,0.052c1.818-2.806,3.943-6.083,5.276-8.136
		c1.694,1.817,4.622,4.958,7.2,7.725c-0.413,0.014-1.168,0.039-1.168,0.039c-0.901,0.03-1.641,0.73-1.715,1.63
		c-0.321,3.849-1.246,7.651-2.752,11.31c-0.033,0.086-0.063,0.174-0.086,0.262c0.002,0-0.646,1.402-0.771,1.668
		C84.52,81.518,76.277,88.75,67.37,90.975C66.618,87.982,66.393,86.844,65.939,84.083 M57.266,32.306
		c-4.224,0-8.378,0.947-12.014,2.739c-0.45,0.222-0.787,0.624-0.924,1.107c-0.046,0.162-0.069,0.325-0.069,0.489
		c0,0.33,0.091,0.654,0.269,0.94c0,0,0.479,0.772,0.851,1.368c-3.341-0.174-7.244-0.378-9.693-0.504
		c0.731-2.375,1.994-6.482,3.105-10.092c0.22,0.354,0.62,0.997,0.62,0.997c0.334,0.537,0.913,0.839,1.511,0.839
		c0.255,0,0.513-0.054,0.757-0.169c3.495-1.641,7.257-2.739,11.185-3.266c0.09-0.012,0.179-0.031,0.268-0.057
		c0,0,1.451-0.155,1.691-0.155c0.047,0,0.094-0.001,0.141-0.006c1.076-0.087,2.161-0.129,3.223-0.129
		c9.678,0,18.641,3.479,24.347,9.378c-2.22,2.145-3.097,2.907-5.265,4.679C72.072,35.258,64.879,32.306,57.266,32.306"/>
</g>
<g id="orange">
	<path fill-opacity="0.1" d="M43.191,103.309c-5.477-2.317-10.395-5.634-14.619-9.855c-4.223-4.225-7.54-9.143-9.855-14.619
		c-2.401-5.673-3.616-11.697-3.616-17.904c0-6.208,1.215-12.23,3.616-17.904c2.316-5.477,5.632-10.395,9.855-14.619
		c4.224-4.223,9.142-7.538,14.619-9.855c5.673-2.399,11.696-3.615,17.905-3.615c6.207,0,12.23,1.215,17.902,3.615
		c5.477,2.317,10.396,5.632,14.618,9.855c4.224,4.223,7.54,9.142,9.856,14.619c2.399,5.672,3.614,11.696,3.614,17.904
		c0,6.207-1.215,12.232-3.614,17.904c-2.316,5.479-5.634,10.396-9.856,14.619c-4.224,4.223-9.142,7.538-14.618,9.855
		c-5.673,2.398-11.695,3.613-17.902,3.613C54.887,106.922,48.864,105.707,43.191,103.309"/>
	<path fill="#FFE035" d="M41.191,101.309c-5.477-2.317-10.395-5.634-14.619-9.855c-4.223-4.225-7.54-9.143-9.856-14.619
		C14.315,71.161,13.1,65.137,13.1,58.929c0-6.208,1.215-12.231,3.616-17.903c2.316-5.477,5.632-10.395,9.856-14.619
		c4.224-4.223,9.142-7.538,14.619-9.855c5.673-2.399,11.696-3.615,17.904-3.615c6.208,0,12.231,1.215,17.903,3.615
		c5.477,2.317,10.396,5.632,14.618,9.855c4.224,4.223,7.54,9.142,9.856,14.619c2.399,5.672,3.614,11.696,3.614,17.903
		c0,6.208-1.215,12.232-3.614,17.905c-2.316,5.479-5.634,10.396-9.856,14.619c-4.224,4.223-9.142,7.538-14.618,9.855
		c-5.673,2.398-11.695,3.613-17.903,3.613C52.887,104.922,46.864,103.707,41.191,101.309"/>
	<g>
		
			<linearGradient id="SVGID_9_" gradientUnits="userSpaceOnUse" x1="296.6953" y1="-341.8237" x2="296.6953" y2="-255.8364" gradientTransform="matrix(1 0 0 -1 -237.5996 -239.9004)">
			<stop  offset="0" style="stop-color:#FEDF34"/>
			<stop  offset="0.1758" style="stop-color:#FECD26"/>
			<stop  offset="0.4969" style="stop-color:#FFB211"/>
			<stop  offset="0.782" style="stop-color:#FFA204"/>
			<stop  offset="1" style="stop-color:#FF9C00"/>
		</linearGradient>
		<path fill="url(#SVGID_9_)" d="M59.095,15.936c23.744,0,42.994,19.249,42.994,42.993c0,23.746-19.25,42.995-42.994,42.995
			c-23.744,0-42.995-19.249-42.995-42.995C16.1,35.184,35.351,15.936,59.095,15.936L59.095,15.936z"/>
	</g>
	
		<linearGradient id="SVGID_10_" gradientUnits="userSpaceOnUse" x1="296.6953" y1="-283.9473" x2="296.6953" y2="-257.4883" gradientTransform="matrix(1 0 0 -1 -237.5996 -239.9004)">
		<stop  offset="0" style="stop-color:#FFFFFF;stop-opacity:0"/>
		<stop  offset="1" style="stop-color:#FFFFFF;stop-opacity:0.8"/>
	</linearGradient>
	<path fill="url(#SVGID_10_)" d="M59.095,17.588c15.068,0,28.111,8.268,28.111,13.23c0,7.306-13.043,13.229-28.111,13.229
		c-15.069,0-28.112-5.922-28.112-13.229C30.983,25.857,44.026,17.588,59.095,17.588L59.095,17.588z"/>
	<path display="none" fill="#FFE035" d="M37.688,95.372c-0.243-0.315-0.366-0.697-0.366-1.08c0-0.287,0.07-0.576,0.211-0.841
		c0,0,0.958-1.785,1.665-3.104c-2.918-2.203-5.55-4.804-7.842-7.752c-0.176-0.168-1.93-2.664-1.928-2.697
		c-4.486-6.785-6.951-14.604-6.951-22.105c0-3.686,0.596-7.198,1.769-10.443c0.259-0.72,0.94-1.175,1.671-1.175
		c0.16,0,0.32,0.022,0.481,0.066c5.101,1.432,5.682,1.652,10.194,3.367c0.709,0.268,1.147,0.943,1.147,1.663
		c0,0.19-0.03,0.382-0.093,0.573c-0.824,2.426-1.24,4.97-1.24,7.561c0,4,0.996,8.011,2.883,11.609
		c1.564,2.979,3.685,5.574,6.198,7.594c0.674-1.256,1.392-2.599,1.392-2.599c0.31-0.579,0.915-0.938,1.571-0.938
		c0.005,0,0.009,0,0.015,0c0.663,0.007,1.267,0.38,1.568,0.969l6.997,13.702c0.129,0.252,0.194,0.53,0.194,0.81
		c0,0.258-0.056,0.514-0.166,0.752c-0.233,0.498-0.682,0.86-1.216,0.982L39.5,96.025c-0.132,0.031-0.267,0.047-0.399,0.047
		C38.554,96.072,38.028,95.818,37.688,95.372 M64.346,93.516c-1.313-5.125-1.414-5.738-2.187-10.5
		c-0.017-0.097-0.022-0.193-0.022-0.287c0-0.834,0.586-1.574,1.43-1.744c5.184-1.037,10.002-3.885,13.57-8.022
		c3.037-3.521,5.022-7.774,5.701-12.153c-1.428,0.047-2.949,0.1-2.949,0.1c-0.021,0-0.039,0.001-0.059,0.001
		c-0.643,0-1.234-0.345-1.549-0.906c-0.153-0.272-0.232-0.575-0.232-0.876c0-0.337,0.096-0.673,0.287-0.967l8.371-12.908
		c0.299-0.459,0.794-0.755,1.338-0.804c0.055-0.004,0.104-0.007,0.157-0.007c0.489,0,0.962,0.204,1.301,0.568l11.425,12.256
		c0.313,0.335,0.479,0.771,0.479,1.213c0,0.229-0.047,0.462-0.137,0.683c-0.269,0.646-0.889,1.073-1.586,1.095
		c0,0-2.029,0.066-3.525,0.115c-0.446,3.627-1.381,7.203-2.79,10.658c-0.056,0.232-0.97,2.262-1.375,3.023
		c-2.72,5.098-6.163,9.77-10.397,13.348c-4.611,3.899-9.871,6.469-15.212,7.428c-0.108,0.02-0.213,0.027-0.315,0.027
		C65.27,94.854,64.547,94.314,64.346,93.516 M75.771,44.065c-4.578-5.211-11.324-8.2-18.504-8.2c-2.994,0-5.942,0.542-8.631,1.58
		c0.756,1.217,1.565,2.518,1.565,2.518c0.179,0.288,0.269,0.613,0.269,0.939c0,0.312-0.083,0.626-0.249,0.906
		c-0.32,0.543-0.903,0.875-1.532,0.875c-0.031,0-0.061-0.001-0.092-0.003l-15.377-0.8c-0.547-0.028-1.051-0.308-1.365-0.756
		c-0.213-0.304-0.322-0.661-0.322-1.022c0-0.175,0.025-0.351,0.078-0.522l4.927-16.007c0.205-0.667,0.781-1.153,1.472-1.242
		c0.077-0.01,0.153-0.015,0.229-0.015c0.61,0,1.185,0.312,1.511,0.838c0,0,1.074,1.725,1.864,2.996
		c3.365-1.423,6.936-2.4,10.638-2.907c0.227-0.067,2.602-0.339,3.306-0.348c0.602-0.007,1.762-0.05,2.629-0.05
		c5.473,0,10.905,1.043,15.709,3.016c4.998,2.051,9.311,5.112,12.47,8.853c0.282,0.333,0.42,0.743,0.42,1.149
		c0,0.465-0.181,0.926-0.537,1.274c-3.793,3.697-4.272,4.087-8.019,7.135c-0.33,0.267-0.729,0.399-1.123,0.399
		C76.613,44.67,76.121,44.465,75.771,44.065"/>
	<path fill="#FFE035" d="M39.101,95.055c-0.235,0-0.461-0.111-0.604-0.299c-0.103-0.134-0.158-0.297-0.158-0.464
		c0-0.125,0.032-0.25,0.092-0.362l1.663-3.103c0.237-0.442,0.116-0.99-0.284-1.292c-2.845-2.146-5.418-4.691-7.651-7.563
		c-0.03-0.039-0.063-0.076-0.099-0.111c-0.171-0.202-1.535-2.137-1.742-2.455c-0.013-0.023-0.027-0.047-0.042-0.068
		c-4.374-6.613-6.782-14.266-6.782-21.545c0-3.564,0.574-6.962,1.708-10.098c0.109-0.302,0.396-0.503,0.715-0.503
		c0.069,0,0.138,0.01,0.21,0.03c5.053,1.418,5.628,1.637,10.104,3.337c0.296,0.112,0.493,0.398,0.493,0.712
		c0,0.085-0.014,0.169-0.041,0.25c-0.857,2.523-1.293,5.177-1.293,7.883c0,4.163,1.037,8.338,3,12.081
		c1.617,3.082,3.851,5.818,6.462,7.916c0.182,0.146,0.408,0.225,0.637,0.225c0.067,0,0.136-0.008,0.203-0.021
		c0.296-0.06,0.551-0.248,0.694-0.516l1.392-2.6c0.132-0.246,0.391-0.4,0.674-0.4c0.291,0.003,0.548,0.162,0.678,0.415l6.996,13.701
		c0.055,0.106,0.083,0.228,0.083,0.347c0,0.112-0.024,0.223-0.073,0.325c-0.097,0.208-0.292,0.365-0.519,0.418l-16.344,3.742
		C39.214,95.049,39.158,95.055,39.101,95.055z M66.066,93.836c-0.349,0-0.651-0.234-0.735-0.57
		c-1.306-5.095-1.403-5.701-2.168-10.412c-0.007-0.045-0.011-0.086-0.011-0.125c0-0.36,0.26-0.676,0.615-0.748
		c5.401-1.078,10.424-4.047,14.139-8.354c3.168-3.67,5.221-8.049,5.936-12.661c0.047-0.299-0.043-0.604-0.242-0.831
		c-0.195-0.218-0.472-0.343-0.763-0.343c-0.012,0-2.983,0.1-2.983,0.1c-0.299,0-0.553-0.146-0.687-0.387
		c-0.065-0.118-0.103-0.249-0.103-0.378c0-0.147,0.043-0.289,0.121-0.411l8.375-12.911c0.125-0.194,0.342-0.323,0.574-0.344
		c0.006,0,0.01,0,0.016,0c0.27,0,0.467,0.088,0.606,0.24l11.427,12.257c0.131,0.142,0.203,0.326,0.203,0.52
		c0,0.098-0.021,0.201-0.061,0.298c-0.112,0.27-0.378,0.454-0.676,0.463l-3.527,0.115c-0.501,0.017-0.916,0.396-0.977,0.892
		c-0.436,3.536-1.352,7.034-2.723,10.399c-0.02,0.051-0.035,0.1-0.049,0.15c-0.074,0.217-0.893,2.046-1.283,2.777
		c-2.876,5.395-6.293,9.785-10.156,13.05c-4.475,3.784-9.568,6.274-14.733,7.203C66.166,93.83,66.116,93.836,66.066,93.836z
		 M77.107,43.653c-0.221,0-0.428-0.095-0.572-0.258c-4.771-5.433-11.795-8.547-19.269-8.547c-3.093,0-6.205,0.57-8.998,1.648
		c-0.282,0.109-0.501,0.339-0.598,0.626s-0.059,0.603,0.101,0.86l1.565,2.518c0.075,0.121,0.115,0.26,0.115,0.402
		c0,0.136-0.037,0.269-0.105,0.387c-0.138,0.233-0.389,0.376-0.658,0.376l-15.417-0.801c-0.232-0.013-0.451-0.133-0.583-0.323
		c-0.092-0.131-0.139-0.282-0.139-0.44c0-0.076,0.011-0.151,0.033-0.223l4.927-16.008c0.088-0.286,0.335-0.494,0.629-0.532
		c0.03-0.004,0.065-0.006,0.1-0.006c0.262,0,0.51,0.137,0.646,0.357c0.039,0.062,1.089,1.748,1.865,2.997
		c0.191,0.306,0.522,0.479,0.864,0.479c0.133,0,0.268-0.026,0.396-0.08c3.282-1.389,6.774-2.343,10.379-2.836
		c0.051-0.007,0.102-0.018,0.151-0.032c0.255-0.052,2.402-0.298,3.031-0.306c0.228-0.003,0.536-0.011,0.877-0.019
		c0.556-0.015,1.204-0.031,1.739-0.031c5.341,0,10.639,1.017,15.326,2.94c4.848,1.989,9.022,4.952,12.076,8.568
		c0.116,0.138,0.182,0.313,0.182,0.493c0,0.207-0.084,0.401-0.23,0.547c-3.758,3.661-4.232,4.049-7.939,7.065
		C77.416,43.624,77.23,43.653,77.107,43.653z"/>
	<path fill="#FFFFFF" d="M43.071,90.656c0.142-0.268,0.21-0.555,0.21-0.84c0-0.566-0.271-1.119-0.765-1.463
		c-3.171-2.203-6.006-4.908-8.424-8.039c-0.057-0.074-0.117-0.144-0.185-0.205c0,0-0.891-1.266-1.055-1.506
		c-4.395-6.362-6.815-13.754-6.815-20.813c0-2.679,0.351-5.249,1.045-7.66c2.974,0.85,4.075,1.226,6.694,2.213
		c-0.617,2.291-0.929,4.658-0.929,7.059c0,9.348,4.696,18.287,12.254,23.33c0.295,0.197,0.64,0.301,0.988,0.301
		c0.143,0,0.289-0.02,0.432-0.055c0.487-0.121,0.899-0.442,1.137-0.885c0,0,0.426-0.796,0.754-1.406
		c1.519,2.977,3.294,6.455,4.41,8.639c-2.424,0.557-6.614,1.514-10.301,2.357C42.716,91.32,43.071,90.656,43.071,90.656
		 M65.939,84.083c5.313-1.429,10.193-4.509,13.891-8.796c3.992-4.627,6.396-10.385,6.773-16.211
		c0.004-0.038,0.004-0.077,0.004-0.114c0-0.461-0.178-0.906-0.502-1.237c-0.334-0.347-0.795-0.542-1.275-0.542
		c-0.02,0-0.039,0.002-0.061,0.002c0,0-0.9,0.03-1.592,0.052c1.818-2.806,3.943-6.083,5.276-8.136
		c1.694,1.817,4.622,4.958,7.2,7.725c-0.413,0.014-1.168,0.039-1.168,0.039c-0.901,0.03-1.641,0.73-1.715,1.63
		c-0.321,3.849-1.246,7.651-2.752,11.31c-0.033,0.086-0.063,0.174-0.086,0.262c0.002,0-0.646,1.402-0.771,1.668
		C84.52,81.518,76.277,88.75,67.37,90.975C66.618,87.982,66.393,86.844,65.939,84.083 M57.266,32.306
		c-4.224,0-8.378,0.947-12.014,2.739c-0.45,0.222-0.787,0.624-0.924,1.107c-0.046,0.162-0.069,0.325-0.069,0.489
		c0,0.33,0.091,0.654,0.269,0.94c0,0,0.479,0.772,0.851,1.368c-3.341-0.174-7.244-0.378-9.693-0.504
		c0.731-2.375,1.994-6.482,3.105-10.092c0.22,0.354,0.62,0.997,0.62,0.997c0.334,0.537,0.913,0.839,1.511,0.839
		c0.255,0,0.513-0.054,0.757-0.169c3.495-1.641,7.257-2.739,11.185-3.266c0.09-0.012,0.179-0.031,0.268-0.057
		c0,0,1.451-0.155,1.691-0.155c0.047,0,0.094-0.001,0.141-0.006c1.076-0.087,2.161-0.129,3.223-0.129
		c9.678,0,18.641,3.479,24.347,9.378c-2.22,2.145-3.097,2.907-5.265,4.679C72.072,35.258,64.879,32.306,57.266,32.306"/>
</g>
<g id="red">
	<path fill-opacity="0.1" d="M43.191,103.309c-5.477-2.317-10.395-5.634-14.619-9.855c-4.223-4.225-7.54-9.143-9.855-14.619
		c-2.401-5.673-3.616-11.697-3.616-17.904c0-6.208,1.215-12.23,3.616-17.904c2.316-5.477,5.632-10.395,9.855-14.619
		c4.224-4.223,9.142-7.538,14.619-9.855c5.673-2.399,11.696-3.615,17.905-3.615c6.207,0,12.23,1.215,17.902,3.615
		c5.477,2.317,10.396,5.632,14.618,9.855c4.224,4.223,7.54,9.142,9.856,14.619c2.399,5.672,3.614,11.696,3.614,17.904
		c0,6.207-1.215,12.232-3.614,17.904c-2.316,5.479-5.634,10.396-9.856,14.619c-4.224,4.223-9.142,7.538-14.618,9.855
		c-5.673,2.398-11.695,3.613-17.902,3.613C54.887,106.922,48.864,105.707,43.191,103.309"/>
	<path fill="#FC7E7E" d="M41.191,101.309c-5.477-2.317-10.395-5.634-14.619-9.855c-4.223-4.225-7.54-9.143-9.856-14.619
		C14.315,71.161,13.1,65.137,13.1,58.929c0-6.208,1.215-12.231,3.616-17.903c2.316-5.477,5.632-10.395,9.856-14.619
		c4.224-4.223,9.142-7.538,14.619-9.855c5.673-2.399,11.696-3.615,17.904-3.615c6.208,0,12.231,1.215,17.903,3.615
		c5.477,2.317,10.396,5.632,14.618,9.855c4.224,4.223,7.54,9.142,9.856,14.619c2.399,5.672,3.614,11.696,3.614,17.903
		c0,6.208-1.215,12.232-3.614,17.905c-2.316,5.479-5.634,10.396-9.856,14.619c-4.224,4.223-9.142,7.538-14.618,9.855
		c-5.673,2.398-11.695,3.613-17.903,3.613C52.887,104.922,46.864,103.707,41.191,101.309"/>
	<g>
		
			<linearGradient id="SVGID_11_" gradientUnits="userSpaceOnUse" x1="296.6953" y1="-341.8237" x2="296.6953" y2="-255.8364" gradientTransform="matrix(1 0 0 -1 -237.5996 -239.9004)">
			<stop  offset="0" style="stop-color:#FF0000"/>
			<stop  offset="0.1758" style="stop-color:#F60303"/>
			<stop  offset="0.4969" style="stop-color:#EC0404"/>
			<stop  offset="0.782" style="stop-color:#E30101"/>
			<stop  offset="1" style="stop-color:#D60202"/>
		</linearGradient>
		<path fill="url(#SVGID_11_)" d="M59.095,15.936c23.744,0,42.994,19.249,42.994,42.993c0,23.746-19.25,42.995-42.994,42.995
			c-23.744,0-42.995-19.249-42.995-42.995C16.1,35.184,35.351,15.936,59.095,15.936L59.095,15.936z"/>
	</g>
	
		<linearGradient id="SVGID_12_" gradientUnits="userSpaceOnUse" x1="296.6953" y1="-283.9473" x2="296.6953" y2="-257.4883" gradientTransform="matrix(1 0 0 -1 -237.5996 -239.9004)">
		<stop  offset="0" style="stop-color:#FFFFFF;stop-opacity:0"/>
		<stop  offset="1" style="stop-color:#FFFFFF;stop-opacity:0.8"/>
	</linearGradient>
	<path fill="url(#SVGID_12_)" d="M59.095,17.588c15.068,0,28.111,8.268,28.111,13.23c0,7.306-13.043,13.229-28.111,13.229
		c-15.069,0-28.112-5.922-28.112-13.229C30.983,25.857,44.026,17.588,59.095,17.588L59.095,17.588z"/>
	<path display="none" fill="#FC7E7E" d="M37.688,95.372c-0.243-0.315-0.366-0.697-0.366-1.08c0-0.287,0.07-0.576,0.211-0.841
		c0,0,0.958-1.785,1.665-3.104c-2.918-2.203-5.55-4.804-7.842-7.752c-0.176-0.168-1.93-2.664-1.928-2.697
		c-4.486-6.785-6.951-14.604-6.951-22.105c0-3.686,0.596-7.198,1.769-10.443c0.259-0.72,0.94-1.175,1.671-1.175
		c0.16,0,0.32,0.022,0.481,0.066c5.101,1.432,5.682,1.652,10.194,3.367c0.709,0.268,1.147,0.943,1.147,1.663
		c0,0.19-0.03,0.382-0.093,0.573c-0.824,2.426-1.24,4.97-1.24,7.561c0,4,0.996,8.011,2.883,11.609
		c1.564,2.979,3.685,5.574,6.198,7.594c0.674-1.256,1.392-2.599,1.392-2.599c0.31-0.579,0.915-0.938,1.571-0.938
		c0.005,0,0.009,0,0.015,0c0.663,0.007,1.267,0.38,1.568,0.969l6.997,13.702c0.129,0.252,0.194,0.53,0.194,0.81
		c0,0.258-0.056,0.514-0.166,0.752c-0.233,0.498-0.682,0.86-1.216,0.982L39.5,96.025c-0.132,0.031-0.267,0.047-0.399,0.047
		C38.554,96.072,38.028,95.818,37.688,95.372 M64.346,93.516c-1.313-5.125-1.414-5.738-2.187-10.5
		c-0.017-0.097-0.022-0.193-0.022-0.287c0-0.834,0.586-1.574,1.43-1.744c5.184-1.037,10.002-3.885,13.57-8.022
		c3.037-3.521,5.022-7.774,5.701-12.153c-1.428,0.047-2.949,0.1-2.949,0.1c-0.021,0-0.039,0.001-0.059,0.001
		c-0.643,0-1.234-0.345-1.549-0.906c-0.153-0.272-0.232-0.575-0.232-0.876c0-0.337,0.096-0.673,0.287-0.967l8.371-12.908
		c0.299-0.459,0.794-0.755,1.338-0.804c0.055-0.004,0.104-0.007,0.157-0.007c0.489,0,0.962,0.204,1.301,0.568l11.425,12.256
		c0.313,0.335,0.479,0.771,0.479,1.213c0,0.229-0.047,0.462-0.137,0.683c-0.269,0.646-0.889,1.073-1.586,1.095
		c0,0-2.029,0.066-3.525,0.115c-0.446,3.627-1.381,7.203-2.79,10.658c-0.056,0.232-0.97,2.262-1.375,3.023
		c-2.72,5.098-6.163,9.77-10.397,13.348c-4.611,3.899-9.871,6.469-15.212,7.428c-0.108,0.02-0.213,0.027-0.315,0.027
		C65.27,94.854,64.547,94.314,64.346,93.516 M75.771,44.065c-4.578-5.211-11.324-8.2-18.504-8.2c-2.994,0-5.942,0.542-8.631,1.58
		c0.756,1.217,1.565,2.518,1.565,2.518c0.179,0.288,0.269,0.613,0.269,0.939c0,0.312-0.083,0.626-0.249,0.906
		c-0.32,0.543-0.903,0.875-1.532,0.875c-0.031,0-0.061-0.001-0.092-0.003l-15.377-0.8c-0.547-0.028-1.051-0.308-1.365-0.756
		c-0.213-0.304-0.322-0.661-0.322-1.022c0-0.175,0.025-0.351,0.078-0.522l4.927-16.007c0.205-0.667,0.781-1.153,1.472-1.242
		c0.077-0.01,0.153-0.015,0.229-0.015c0.61,0,1.185,0.312,1.511,0.838c0,0,1.074,1.725,1.864,2.996
		c3.365-1.423,6.936-2.4,10.638-2.907c0.227-0.067,2.602-0.339,3.306-0.348c0.602-0.007,1.762-0.05,2.629-0.05
		c5.473,0,10.905,1.043,15.709,3.016c4.998,2.051,9.311,5.112,12.47,8.853c0.282,0.333,0.42,0.743,0.42,1.149
		c0,0.465-0.181,0.926-0.537,1.274c-3.793,3.697-4.272,4.087-8.019,7.135c-0.33,0.267-0.729,0.399-1.123,0.399
		C76.613,44.67,76.121,44.465,75.771,44.065"/>
	<path fill="#FC7E7E" d="M39.101,95.055c-0.235,0-0.461-0.111-0.604-0.299c-0.103-0.134-0.158-0.297-0.158-0.464
		c0-0.125,0.032-0.25,0.092-0.362l1.663-3.103c0.237-0.442,0.116-0.99-0.284-1.292c-2.845-2.146-5.418-4.691-7.651-7.563
		c-0.03-0.039-0.063-0.076-0.099-0.111c-0.171-0.202-1.535-2.137-1.742-2.455c-0.013-0.023-0.027-0.047-0.042-0.068
		c-4.374-6.613-6.782-14.266-6.782-21.545c0-3.564,0.574-6.962,1.708-10.098c0.109-0.302,0.396-0.503,0.715-0.503
		c0.069,0,0.138,0.01,0.21,0.03c5.053,1.418,5.628,1.637,10.104,3.337c0.296,0.112,0.493,0.398,0.493,0.712
		c0,0.085-0.014,0.169-0.041,0.25c-0.857,2.523-1.293,5.177-1.293,7.883c0,4.163,1.037,8.338,3,12.081
		c1.617,3.082,3.851,5.818,6.462,7.916c0.182,0.146,0.408,0.225,0.637,0.225c0.067,0,0.136-0.008,0.203-0.021
		c0.296-0.06,0.551-0.248,0.694-0.516l1.392-2.6c0.132-0.246,0.391-0.4,0.674-0.4c0.291,0.003,0.548,0.162,0.678,0.415l6.996,13.701
		c0.055,0.106,0.083,0.228,0.083,0.347c0,0.112-0.024,0.223-0.073,0.325c-0.097,0.208-0.292,0.365-0.519,0.418l-16.344,3.742
		C39.214,95.049,39.158,95.055,39.101,95.055z M66.066,93.836c-0.349,0-0.651-0.234-0.735-0.57
		c-1.306-5.095-1.403-5.701-2.168-10.412c-0.007-0.045-0.011-0.086-0.011-0.125c0-0.36,0.26-0.676,0.615-0.748
		c5.401-1.078,10.424-4.047,14.139-8.354c3.168-3.67,5.221-8.049,5.936-12.661c0.047-0.299-0.043-0.604-0.242-0.831
		c-0.195-0.218-0.472-0.343-0.763-0.343c-0.012,0-2.983,0.1-2.983,0.1c-0.299,0-0.553-0.146-0.687-0.387
		c-0.065-0.118-0.103-0.249-0.103-0.378c0-0.147,0.043-0.289,0.121-0.411l8.375-12.911c0.125-0.194,0.342-0.323,0.574-0.344
		c0.006,0,0.01,0,0.016,0c0.27,0,0.467,0.088,0.606,0.24l11.427,12.257c0.131,0.142,0.203,0.326,0.203,0.52
		c0,0.098-0.021,0.201-0.061,0.298c-0.112,0.27-0.378,0.454-0.676,0.463l-3.527,0.115c-0.501,0.017-0.916,0.396-0.977,0.892
		c-0.436,3.536-1.352,7.034-2.723,10.399c-0.02,0.051-0.035,0.1-0.049,0.15c-0.074,0.217-0.893,2.046-1.283,2.777
		c-2.876,5.395-6.293,9.785-10.156,13.05c-4.475,3.784-9.568,6.274-14.733,7.203C66.166,93.83,66.116,93.836,66.066,93.836z
		 M77.107,43.653c-0.221,0-0.428-0.095-0.572-0.258c-4.771-5.433-11.795-8.547-19.269-8.547c-3.093,0-6.205,0.57-8.998,1.648
		c-0.282,0.109-0.501,0.339-0.598,0.626s-0.059,0.603,0.101,0.86l1.565,2.518c0.075,0.121,0.115,0.26,0.115,0.402
		c0,0.136-0.037,0.269-0.105,0.387c-0.138,0.233-0.389,0.376-0.658,0.376l-15.417-0.801c-0.232-0.013-0.451-0.133-0.583-0.323
		c-0.092-0.131-0.139-0.282-0.139-0.44c0-0.076,0.011-0.151,0.033-0.223l4.927-16.008c0.088-0.286,0.335-0.494,0.629-0.532
		c0.03-0.004,0.065-0.006,0.1-0.006c0.262,0,0.51,0.137,0.646,0.357c0.039,0.062,1.089,1.748,1.865,2.997
		c0.191,0.306,0.522,0.479,0.864,0.479c0.133,0,0.268-0.026,0.396-0.08c3.282-1.389,6.774-2.343,10.379-2.836
		c0.051-0.007,0.102-0.018,0.151-0.032c0.255-0.052,2.402-0.298,3.031-0.306c0.228-0.003,0.536-0.011,0.877-0.019
		c0.556-0.015,1.204-0.031,1.739-0.031c5.341,0,10.639,1.017,15.326,2.94c4.848,1.989,9.022,4.952,12.076,8.568
		c0.116,0.138,0.182,0.313,0.182,0.493c0,0.207-0.084,0.401-0.23,0.547c-3.758,3.661-4.232,4.049-7.939,7.065
		C77.416,43.624,77.23,43.653,77.107,43.653z"/>
	<path fill="#FFFFFF" d="M43.071,90.656c0.142-0.268,0.21-0.555,0.21-0.84c0-0.566-0.271-1.119-0.765-1.463
		c-3.171-2.203-6.006-4.908-8.424-8.039c-0.057-0.074-0.117-0.144-0.185-0.205c0,0-0.891-1.266-1.055-1.506
		c-4.395-6.362-6.815-13.754-6.815-20.813c0-2.679,0.351-5.249,1.045-7.66c2.974,0.85,4.075,1.226,6.694,2.213
		c-0.617,2.291-0.929,4.658-0.929,7.059c0,9.348,4.696,18.287,12.254,23.33c0.295,0.197,0.64,0.301,0.988,0.301
		c0.143,0,0.289-0.02,0.432-0.055c0.487-0.121,0.899-0.442,1.137-0.885c0,0,0.426-0.796,0.754-1.406
		c1.519,2.977,3.294,6.455,4.41,8.639c-2.424,0.557-6.614,1.514-10.301,2.357C42.716,91.32,43.071,90.656,43.071,90.656
		 M65.939,84.083c5.313-1.429,10.193-4.509,13.891-8.796c3.992-4.627,6.396-10.385,6.773-16.211
		c0.004-0.038,0.004-0.077,0.004-0.114c0-0.461-0.178-0.906-0.502-1.237c-0.334-0.347-0.795-0.542-1.275-0.542
		c-0.02,0-0.039,0.002-0.061,0.002c0,0-0.9,0.03-1.592,0.052c1.818-2.806,3.943-6.083,5.276-8.136
		c1.694,1.817,4.622,4.958,7.2,7.725c-0.413,0.014-1.168,0.039-1.168,0.039c-0.901,0.03-1.641,0.73-1.715,1.63
		c-0.321,3.849-1.246,7.651-2.752,11.31c-0.033,0.086-0.063,0.174-0.086,0.262c0.002,0-0.646,1.402-0.771,1.668
		C84.52,81.518,76.277,88.75,67.37,90.975C66.618,87.982,66.393,86.844,65.939,84.083 M57.266,32.306
		c-4.224,0-8.378,0.947-12.014,2.739c-0.45,0.222-0.787,0.624-0.924,1.107c-0.046,0.162-0.069,0.325-0.069,0.489
		c0,0.33,0.091,0.654,0.269,0.94c0,0,0.479,0.772,0.851,1.368c-3.341-0.174-7.244-0.378-9.693-0.504
		c0.731-2.375,1.994-6.482,3.105-10.092c0.22,0.354,0.62,0.997,0.62,0.997c0.334,0.537,0.913,0.839,1.511,0.839
		c0.255,0,0.513-0.054,0.757-0.169c3.495-1.641,7.257-2.739,11.185-3.266c0.09-0.012,0.179-0.031,0.268-0.057
		c0,0,1.451-0.155,1.691-0.155c0.047,0,0.094-0.001,0.141-0.006c1.076-0.087,2.161-0.129,3.223-0.129
		c9.678,0,18.641,3.479,24.347,9.378c-2.22,2.145-3.097,2.907-5.265,4.679C72.072,35.258,64.879,32.306,57.266,32.306"/>
</g>
</svg>
