<?xml version="1.0" encoding="utf-8"?>
<!-- Generator: Adobe Illustrator 16.0.2, SVG Export Plug-In . SVG Version: 6.00 Build 0)  -->
<!DOCTYPE svg PUBLIC "-//W3C//DTD SVG 1.1//EN" "http://www.w3.org/Graphics/SVG/1.1/DTD/svg11.dtd">
<svg version="1.1" id="Layer_1" xmlns="http://www.w3.org/2000/svg" xmlns:xlink="http://www.w3.org/1999/xlink" x="0px" y="0px"
	 width="120px" height="120px" viewBox="0 0 120 120" enable-background="new 0 0 120 120" xml:space="preserve">
<g id="black_white">
	<g>
		<path fill="#999999" d="M73.583,55.899l20.142-20.142l5.976,5.976C98.968,42.465,86.463,54.971,79,62.434
			c-0.469-1.211-1.307-2.42-2.572-3.672C75.523,57.865,74.582,56.892,73.583,55.899z"/>
		<path fill="#FFFFFF" d="M22.453,15.415l40.896,6.12c1.523,0.228,2.137,2.092,1.049,3.181L54.4,34.715l23.336,23.337
			c1.892,1.891,3.062,4.504,3.062,7.389v39.164h-20.9V69.771L39.62,49.494l-9.999,9.999c-1.089,1.089-2.953,0.474-3.181-1.049
			l-6.12-40.897C20.134,16.301,21.206,15.229,22.453,15.415z"/>
	</g>
</g>
<g id="blue">
	<path fill-opacity="0.1" d="M59.996,107.855c-1.658,0-3-1.342-3-2.998c0,0,0-28.84,0-31.148c-1.135-1.127-3.554-3.529-3.554-3.529
		c-0.32-0.318-0.562-0.701-0.711-1.117c-1.403-1.404-10.636-10.643-13.669-13.677c-2.665,2.665-8.094,8.093-8.187,8.187
		c-0.128,0.166-0.269,0.326-0.419,0.479c-0.002,0.002-0.005,0.006-0.008,0.008c-0.962,0.967-2.245,1.5-3.611,1.5
		c-1.363,0-2.644-0.531-3.61-1.494c-0.964-0.967-1.494-2.248-1.494-3.61c0-0.099,0.003-0.192,0.008-0.289
		c-0.104-0.713-3.893-26.498-3.893-26.498s-1.901-12.926-1.956-13.294c-0.107-0.415-0.16-0.842-0.16-1.273
		c0-1.368,0.532-2.65,1.499-3.613c0.966-0.963,2.246-1.491,3.605-1.491c0.409,0,0.811,0.048,1.203,0.143
		c0.215,0.032,38.882,5.937,39.643,6.052c0.108-0.006,0.219-0.011,0.327-0.011c1.362,0,2.642,0.53,3.607,1.494
		c0.965,0.966,1.493,2.247,1.493,3.61c0,1.36-0.527,2.639-1.489,3.605c-0.159,0.159-0.327,0.306-0.502,0.442
		c-0.248,0.249-5.209,5.21-7.796,7.796c3.593,3.611,8.079,8.115,12.444,12.484c3.379-3.378,17.613-17.603,17.613-17.603
		c0.586-0.584,1.354-0.877,2.12-0.877s1.534,0.292,2.12,0.877l14.031,14.031c0.564,0.563,0.881,1.325,0.881,2.121
		c0,0.001,0,0.005,0,0.006c-0.002,0.798-0.32,1.563-0.887,2.124c-0.133,0.131-12.873,12.782-22.66,22.591c0,2.303,0,31.979,0,31.979
		c0,1.656-1.342,2.998-2.998,2.998h-19.99"/>
	<path fill="#70B7E0" d="M57.996,105.855c-1.657,0-3-1.342-3-2.998c0,0,0-28.84,0-31.148c-1.135-1.127-3.554-3.529-3.554-3.529
		c-0.32-0.318-0.562-0.701-0.711-1.117c-1.403-1.404-10.636-10.643-13.669-13.677c-2.665,2.665-8.094,8.093-8.187,8.187
		c-0.128,0.166-0.269,0.326-0.419,0.479c-0.002,0.002-0.005,0.006-0.008,0.008c-0.962,0.967-2.245,1.5-3.611,1.5
		c-1.363,0-2.644-0.531-3.61-1.494c-0.964-0.967-1.494-2.248-1.494-3.61c0-0.098,0.003-0.194,0.008-0.29
		c-0.104-0.712-3.893-26.497-3.893-26.497s-1.901-12.926-1.956-13.294c-0.107-0.415-0.16-0.842-0.16-1.273
		c0-1.368,0.532-2.65,1.499-3.613c0.966-0.963,2.246-1.491,3.605-1.491c0.409,0,0.811,0.048,1.203,0.143
		c0.215,0.032,38.882,5.937,39.643,6.052c0.108-0.006,0.219-0.011,0.327-0.011c1.362,0,2.642,0.53,3.607,1.494
		c0.965,0.966,1.493,2.247,1.493,3.61c0,1.36-0.527,2.639-1.489,3.605c-0.159,0.159-0.327,0.306-0.502,0.442
		c-0.248,0.249-5.209,5.21-7.796,7.796c3.592,3.611,8.079,8.115,12.444,12.484c3.379-3.378,17.613-17.603,17.613-17.603
		c0.586-0.584,1.354-0.877,2.12-0.877s1.534,0.292,2.12,0.877l14.031,14.031c0.564,0.563,0.881,1.325,0.881,2.121
		c0,0.001,0,0.005,0,0.006c-0.002,0.798-0.32,1.563-0.887,2.124c-0.133,0.131-12.873,12.782-22.66,22.591c0,2.303,0,31.979,0,31.979
		c0,1.656-1.342,2.998-2.998,2.998h-19.99"/>
	<g>
		
			<linearGradient id="SVGID_1_" gradientUnits="userSpaceOnUse" x1="296.7324" y1="-342.7573" x2="296.7324" y2="-254.8955" gradientTransform="matrix(1 0 0 -1 -237.5996 -239.9004)">
			<stop  offset="0" style="stop-color:#48A2FB"/>
			<stop  offset="0.1758" style="stop-color:#059CF4"/>
			<stop  offset="0.4969" style="stop-color:#0398EF"/>
			<stop  offset="0.782" style="stop-color:#0293E7"/>
			<stop  offset="1" style="stop-color:#0189D8"/>
		</linearGradient>
		<path fill="url(#SVGID_1_)" d="M26.694,59.509l-3.812-0.599l-6.08-41.372l2.673-2.45l40.917,6.246l0.778,3.696L26.694,59.509
			L26.694,59.509z M26.323,59.941c-0.822,0.82-2.152,0.82-2.974,0c-0.822-0.821-0.822-2.154,0-2.977
			c0.822-0.822,2.152-0.822,2.974,0C27.144,57.787,27.144,59.12,26.323,59.941L26.323,59.941z M61.493,24.771
			c-0.821,0.821-2.152,0.821-2.974,0c-0.822-0.822-0.822-2.154,0-2.976c0.821-0.822,2.152-0.822,2.974,0
			C62.314,22.616,62.314,23.949,61.493,24.771L61.493,24.771z M20.323,18.587c-0.821,0.822-2.154,0.822-2.976,0
			c-0.821-0.821-0.821-2.154,0-2.976c0.822-0.821,2.154-0.821,2.976,0C21.145,16.433,21.145,17.766,20.323,18.587L20.323,18.587z
			 M57.996,102.857V54.208l19.99,11.989v36.66H57.996L57.996,102.857z M74.548,72.594l-7.002,7.051L33.624,45.701l14.031-14.033
			c0,0,16.813,16.938,26.867,26.92C81.563,65.577,74.548,72.594,74.548,72.594L74.548,72.594z M74.611,73.027
			c-6.988,7.041-14.006,0.025-14.006,0.025l-7.049-7.003l33.942-33.921l14.033,14.031C101.531,46.16,84.594,62.973,74.611,73.027
			L74.611,73.027z"/>
	</g>
	
		<linearGradient id="SVGID_2_" gradientUnits="userSpaceOnUse" x1="274.7129" y1="-273.0874" x2="274.7129" y2="-256.1533" gradientTransform="matrix(1 0 0 -1 -237.5996 -239.9004)">
		<stop  offset="0" style="stop-color:#FFFFFF;stop-opacity:0"/>
		<stop  offset="1" style="stop-color:#FFFFFF;stop-opacity:0.8"/>
	</linearGradient>
	<path fill="url(#SVGID_2_)" d="M19.023,16.253c0,0,37.448,5.753,38.552,6.248c-34.811-5.035-39.362,10.686-39.362,10.686
		l-1.563-14.98L19.023,16.253L19.023,16.253z"/>
</g>
<g id="green">
	<path fill-opacity="0.1" d="M59.996,107.855c-1.658,0-3-1.342-3-2.998c0,0,0-28.84,0-31.148c-1.135-1.127-3.554-3.529-3.554-3.529
		c-0.32-0.318-0.562-0.701-0.711-1.117c-1.403-1.404-10.636-10.643-13.669-13.677c-2.665,2.665-8.094,8.093-8.187,8.187
		c-0.128,0.166-0.269,0.326-0.419,0.479c-0.002,0.002-0.005,0.006-0.008,0.008c-0.962,0.967-2.245,1.5-3.611,1.5
		c-1.363,0-2.644-0.531-3.61-1.494c-0.964-0.967-1.494-2.248-1.494-3.61c0-0.099,0.003-0.192,0.008-0.289
		c-0.104-0.713-3.893-26.498-3.893-26.498s-1.901-12.926-1.956-13.294c-0.107-0.415-0.16-0.842-0.16-1.273
		c0-1.368,0.532-2.65,1.499-3.613c0.966-0.963,2.246-1.491,3.605-1.491c0.409,0,0.811,0.048,1.203,0.143
		c0.215,0.032,38.882,5.937,39.643,6.052c0.108-0.006,0.219-0.011,0.327-0.011c1.362,0,2.642,0.53,3.607,1.494
		c0.965,0.966,1.493,2.247,1.493,3.61c0,1.36-0.527,2.639-1.489,3.605c-0.159,0.159-0.327,0.306-0.502,0.442
		c-0.248,0.249-5.209,5.21-7.796,7.796c3.593,3.611,8.079,8.115,12.444,12.484c3.379-3.378,17.613-17.603,17.613-17.603
		c0.586-0.584,1.354-0.877,2.12-0.877s1.534,0.292,2.12,0.877l14.031,14.031c0.564,0.563,0.881,1.325,0.881,2.121
		c0,0.001,0,0.005,0,0.006c-0.002,0.798-0.32,1.563-0.887,2.124c-0.133,0.131-12.873,12.782-22.66,22.591c0,2.303,0,31.979,0,31.979
		c0,1.656-1.342,2.998-2.998,2.998h-19.99"/>
	<path fill="#03FC30" d="M57.996,105.855c-1.657,0-3-1.342-3-2.998c0,0,0-28.84,0-31.148c-1.135-1.127-3.554-3.529-3.554-3.529
		c-0.32-0.318-0.562-0.701-0.711-1.117c-1.403-1.404-10.636-10.643-13.669-13.677c-2.665,2.665-8.094,8.093-8.187,8.187
		c-0.128,0.166-0.269,0.326-0.419,0.479c-0.002,0.002-0.005,0.006-0.008,0.008c-0.962,0.967-2.245,1.5-3.611,1.5
		c-1.363,0-2.644-0.531-3.61-1.494c-0.964-0.967-1.494-2.248-1.494-3.61c0-0.098,0.003-0.194,0.008-0.29
		c-0.104-0.712-3.893-26.497-3.893-26.497s-1.901-12.926-1.956-13.294c-0.107-0.415-0.16-0.842-0.16-1.273
		c0-1.368,0.532-2.65,1.499-3.613c0.966-0.963,2.246-1.491,3.605-1.491c0.409,0,0.811,0.048,1.203,0.143
		c0.215,0.032,38.882,5.937,39.643,6.052c0.108-0.006,0.219-0.011,0.327-0.011c1.362,0,2.642,0.53,3.607,1.494
		c0.965,0.966,1.493,2.247,1.493,3.61c0,1.36-0.527,2.639-1.489,3.605c-0.159,0.159-0.327,0.306-0.502,0.442
		c-0.248,0.249-5.209,5.21-7.796,7.796c3.592,3.611,8.079,8.115,12.444,12.484c3.379-3.378,17.613-17.603,17.613-17.603
		c0.586-0.584,1.354-0.877,2.12-0.877s1.534,0.292,2.12,0.877l14.031,14.031c0.564,0.563,0.881,1.325,0.881,2.121
		c0,0.001,0,0.005,0,0.006c-0.002,0.798-0.32,1.563-0.887,2.124c-0.133,0.131-12.873,12.782-22.66,22.591c0,2.303,0,31.979,0,31.979
		c0,1.656-1.342,2.998-2.998,2.998h-19.99"/>
	<g>
		
			<linearGradient id="SVGID_3_" gradientUnits="userSpaceOnUse" x1="296.7324" y1="-342.7573" x2="296.7324" y2="-254.8955" gradientTransform="matrix(1 0 0 -1 -237.5996 -239.9004)">
			<stop  offset="0" style="stop-color:#00DF34"/>
			<stop  offset="0.1758" style="stop-color:#00CD26"/>
			<stop  offset="0.4969" style="stop-color:#00B211"/>
			<stop  offset="0.782" style="stop-color:#00A204"/>
			<stop  offset="1" style="stop-color:#009C00"/>
		</linearGradient>
		<path fill="url(#SVGID_3_)" d="M26.694,59.509l-3.812-0.599l-6.08-41.372l2.673-2.45l40.917,6.246l0.778,3.696L26.694,59.509
			L26.694,59.509z M26.323,59.941c-0.822,0.82-2.152,0.82-2.974,0c-0.822-0.821-0.822-2.154,0-2.977
			c0.822-0.822,2.152-0.822,2.974,0C27.144,57.787,27.144,59.12,26.323,59.941L26.323,59.941z M61.493,24.771
			c-0.821,0.821-2.152,0.821-2.974,0c-0.822-0.822-0.822-2.154,0-2.976c0.821-0.822,2.152-0.822,2.974,0
			C62.314,22.616,62.314,23.949,61.493,24.771L61.493,24.771z M20.323,18.587c-0.821,0.822-2.154,0.822-2.976,0
			c-0.821-0.821-0.821-2.154,0-2.976c0.822-0.821,2.154-0.821,2.976,0C21.145,16.433,21.145,17.766,20.323,18.587L20.323,18.587z
			 M57.996,102.857V54.208l19.99,11.989v36.66H57.996L57.996,102.857z M74.548,72.594l-7.002,7.051L33.624,45.701l14.031-14.033
			c0,0,16.813,16.938,26.867,26.92C81.563,65.577,74.548,72.594,74.548,72.594L74.548,72.594z M74.611,73.027
			c-6.988,7.041-14.006,0.025-14.006,0.025l-7.049-7.003l33.942-33.921l14.033,14.031C101.531,46.16,84.594,62.973,74.611,73.027
			L74.611,73.027z"/>
	</g>
	
		<linearGradient id="SVGID_4_" gradientUnits="userSpaceOnUse" x1="274.7129" y1="-273.0874" x2="274.7129" y2="-256.1533" gradientTransform="matrix(1 0 0 -1 -237.5996 -239.9004)">
		<stop  offset="0" style="stop-color:#FFFFFF;stop-opacity:0"/>
		<stop  offset="1" style="stop-color:#FFFFFF;stop-opacity:0.8"/>
	</linearGradient>
	<path fill="url(#SVGID_4_)" d="M19.023,16.253c0,0,37.448,5.753,38.552,6.248c-34.811-5.035-39.362,10.686-39.362,10.686
		l-1.563-14.98L19.023,16.253L19.023,16.253z"/>
</g>
<g id="kia">
	<path fill-opacity="0.1" d="M59.996,107.855c-1.658,0-3-1.342-3-2.998c0,0,0-28.84,0-31.148c-1.135-1.127-3.554-3.529-3.554-3.529
		c-0.32-0.318-0.562-0.701-0.711-1.117c-1.403-1.404-10.636-10.643-13.669-13.677c-2.665,2.665-8.094,8.093-8.187,8.187
		c-0.128,0.166-0.269,0.326-0.419,0.479c-0.002,0.002-0.005,0.006-0.008,0.008c-0.962,0.967-2.245,1.5-3.611,1.5
		c-1.363,0-2.644-0.531-3.61-1.494c-0.964-0.967-1.494-2.248-1.494-3.61c0-0.099,0.003-0.192,0.008-0.289
		c-0.104-0.713-3.893-26.498-3.893-26.498s-1.901-12.926-1.956-13.294c-0.107-0.415-0.16-0.842-0.16-1.273
		c0-1.368,0.532-2.65,1.499-3.613c0.966-0.963,2.246-1.491,3.605-1.491c0.409,0,0.811,0.048,1.203,0.143
		c0.215,0.032,38.882,5.937,39.643,6.052c0.108-0.006,0.219-0.011,0.327-0.011c1.362,0,2.642,0.53,3.607,1.494
		c0.965,0.966,1.493,2.247,1.493,3.61c0,1.36-0.527,2.639-1.489,3.605c-0.159,0.159-0.327,0.306-0.502,0.442
		c-0.248,0.249-5.209,5.21-7.796,7.796c3.593,3.611,8.079,8.115,12.444,12.484c3.379-3.378,17.613-17.603,17.613-17.603
		c0.586-0.584,1.354-0.877,2.12-0.877s1.534,0.292,2.12,0.877l14.031,14.031c0.564,0.563,0.881,1.325,0.881,2.121
		c0,0.001,0,0.005,0,0.006c-0.002,0.798-0.32,1.563-0.887,2.124c-0.133,0.131-12.873,12.782-22.66,22.591c0,2.303,0,31.979,0,31.979
		c0,1.656-1.342,2.998-2.998,2.998h-19.99"/>
	<path fill="#000000" d="M57.996,105.855c-1.657,0-3-1.342-3-2.998c0,0,0-28.84,0-31.148c-1.135-1.127-3.554-3.529-3.554-3.529
		c-0.32-0.318-0.562-0.701-0.711-1.117c-1.403-1.404-10.636-10.643-13.669-13.677c-2.665,2.665-8.094,8.093-8.187,8.187
		c-0.128,0.166-0.269,0.326-0.419,0.479c-0.002,0.002-0.005,0.006-0.008,0.008c-0.962,0.967-2.245,1.5-3.611,1.5
		c-1.363,0-2.644-0.531-3.61-1.494c-0.964-0.967-1.494-2.248-1.494-3.61c0-0.098,0.003-0.194,0.008-0.29
		c-0.104-0.712-3.893-26.497-3.893-26.497s-1.901-12.926-1.956-13.294c-0.107-0.415-0.16-0.842-0.16-1.273
		c0-1.368,0.532-2.65,1.499-3.613c0.966-0.963,2.246-1.491,3.605-1.491c0.409,0,0.811,0.048,1.203,0.143
		c0.215,0.032,38.882,5.937,39.643,6.052c0.108-0.006,0.219-0.011,0.327-0.011c1.362,0,2.642,0.53,3.607,1.494
		c0.965,0.966,1.493,2.247,1.493,3.61c0,1.36-0.527,2.639-1.489,3.605c-0.159,0.159-0.327,0.306-0.502,0.442
		c-0.248,0.249-5.209,5.21-7.796,7.796c3.592,3.611,8.079,8.115,12.444,12.484c3.379-3.378,17.613-17.603,17.613-17.603
		c0.586-0.584,1.354-0.877,2.12-0.877s1.534,0.292,2.12,0.877l14.031,14.031c0.564,0.563,0.881,1.325,0.881,2.121
		c0,0.001,0,0.005,0,0.006c-0.002,0.798-0.32,1.563-0.887,2.124c-0.133,0.131-12.873,12.782-22.66,22.591c0,2.303,0,31.979,0,31.979
		c0,1.656-1.342,2.998-2.998,2.998h-19.99"/>
	<g>
		
			<linearGradient id="SVGID_5_" gradientUnits="userSpaceOnUse" x1="296.7324" y1="-342.7573" x2="296.7324" y2="-254.8955" gradientTransform="matrix(1 0 0 -1 -237.5996 -239.9004)">
			<stop  offset="0" style="stop-color:#FFFFFF"/>
			<stop  offset="0.1758" style="stop-color:#E7E9EA"/>
			<stop  offset="0.4969" style="stop-color:#CDD2D5"/>
			<stop  offset="0.782" style="stop-color:#C5CACC"/>
			<stop  offset="1" style="stop-color:#BABDC0"/>
		</linearGradient>
		<path fill="url(#SVGID_5_)" d="M26.694,59.509l-3.812-0.599l-6.08-41.372l2.673-2.45l40.917,6.246l0.778,3.696L26.694,59.509
			L26.694,59.509z M26.323,59.941c-0.822,0.82-2.152,0.82-2.974,0c-0.822-0.821-0.822-2.154,0-2.977
			c0.822-0.822,2.152-0.822,2.974,0C27.144,57.787,27.144,59.12,26.323,59.941L26.323,59.941z M61.493,24.771
			c-0.821,0.821-2.152,0.821-2.974,0c-0.822-0.822-0.822-2.154,0-2.976c0.821-0.822,2.152-0.822,2.974,0
			C62.314,22.616,62.314,23.949,61.493,24.771L61.493,24.771z M20.323,18.587c-0.821,0.822-2.154,0.822-2.976,0
			c-0.821-0.821-0.821-2.154,0-2.976c0.822-0.821,2.154-0.821,2.976,0C21.145,16.433,21.145,17.766,20.323,18.587L20.323,18.587z
			 M57.996,102.857V54.208l19.99,11.989v36.66H57.996L57.996,102.857z M74.548,72.594l-7.002,7.051L33.624,45.701l14.031-14.033
			c0,0,16.813,16.938,26.867,26.92C81.563,65.577,74.548,72.594,74.548,72.594L74.548,72.594z M74.611,73.027
			c-6.988,7.041-14.006,0.025-14.006,0.025l-7.049-7.003l33.942-33.921l14.033,14.031C101.531,46.16,84.594,62.973,74.611,73.027
			L74.611,73.027z"/>
	</g>
	
		<linearGradient id="SVGID_6_" gradientUnits="userSpaceOnUse" x1="274.7129" y1="-273.0874" x2="274.7129" y2="-256.1533" gradientTransform="matrix(1 0 0 -1 -237.5996 -239.9004)">
		<stop  offset="0" style="stop-color:#FFFFFF;stop-opacity:0"/>
		<stop  offset="1" style="stop-color:#FFFFFF;stop-opacity:0.8"/>
	</linearGradient>
	<path fill="url(#SVGID_6_)" d="M19.023,16.253c0,0,37.448,5.753,38.552,6.248c-34.811-5.035-39.362,10.686-39.362,10.686
		l-1.563-14.98L19.023,16.253L19.023,16.253z"/>
</g>
<g id="orange">
	<path fill-opacity="0.1" d="M59.996,107.855c-1.658,0-3-1.342-3-2.998c0,0,0-28.84,0-31.148c-1.135-1.127-3.554-3.529-3.554-3.529
		c-0.32-0.318-0.562-0.701-0.711-1.117c-1.403-1.404-10.636-10.643-13.669-13.677c-2.665,2.665-8.094,8.093-8.187,8.187
		c-0.128,0.166-0.269,0.326-0.419,0.479c-0.002,0.002-0.005,0.006-0.008,0.008c-0.962,0.967-2.245,1.5-3.611,1.5
		c-1.363,0-2.644-0.531-3.61-1.494c-0.964-0.967-1.494-2.248-1.494-3.61c0-0.099,0.003-0.192,0.008-0.289
		c-0.104-0.713-3.893-26.498-3.893-26.498s-1.901-12.926-1.956-13.294c-0.107-0.415-0.16-0.842-0.16-1.273
		c0-1.368,0.532-2.65,1.499-3.613c0.966-0.963,2.246-1.491,3.605-1.491c0.409,0,0.811,0.048,1.203,0.143
		c0.215,0.032,38.882,5.937,39.643,6.052c0.108-0.006,0.219-0.011,0.327-0.011c1.362,0,2.642,0.53,3.607,1.494
		c0.965,0.966,1.493,2.247,1.493,3.61c0,1.36-0.527,2.639-1.489,3.605c-0.159,0.159-0.327,0.306-0.502,0.442
		c-0.248,0.249-5.209,5.21-7.796,7.796c3.593,3.611,8.079,8.115,12.444,12.484c3.379-3.378,17.613-17.603,17.613-17.603
		c0.586-0.584,1.354-0.877,2.12-0.877s1.534,0.292,2.12,0.877l14.031,14.031c0.564,0.563,0.881,1.325,0.881,2.121
		c0,0.001,0,0.005,0,0.006c-0.002,0.798-0.32,1.563-0.887,2.124c-0.133,0.131-12.873,12.782-22.66,22.591c0,2.303,0,31.979,0,31.979
		c0,1.656-1.342,2.998-2.998,2.998h-19.99"/>
	<path fill="#FFE035" d="M57.996,105.855c-1.657,0-3-1.342-3-2.998c0,0,0-28.84,0-31.148c-1.135-1.127-3.554-3.529-3.554-3.529
		c-0.32-0.318-0.562-0.701-0.711-1.117c-1.403-1.404-10.636-10.643-13.669-13.677c-2.665,2.665-8.094,8.093-8.187,8.187
		c-0.128,0.166-0.269,0.326-0.419,0.479c-0.002,0.002-0.005,0.006-0.008,0.008c-0.962,0.967-2.245,1.5-3.611,1.5
		c-1.363,0-2.644-0.531-3.61-1.494c-0.964-0.967-1.494-2.248-1.494-3.61c0-0.098,0.003-0.194,0.008-0.29
		c-0.104-0.712-3.893-26.497-3.893-26.497s-1.901-12.926-1.956-13.294c-0.107-0.415-0.16-0.842-0.16-1.273
		c0-1.368,0.532-2.65,1.499-3.613c0.966-0.963,2.246-1.491,3.605-1.491c0.409,0,0.811,0.048,1.203,0.143
		c0.215,0.032,38.882,5.937,39.643,6.052c0.108-0.006,0.219-0.011,0.327-0.011c1.362,0,2.642,0.53,3.607,1.494
		c0.965,0.966,1.493,2.247,1.493,3.61c0,1.36-0.527,2.639-1.489,3.605c-0.159,0.159-0.327,0.306-0.502,0.442
		c-0.248,0.249-5.209,5.21-7.796,7.796c3.592,3.611,8.079,8.115,12.444,12.484c3.379-3.378,17.613-17.603,17.613-17.603
		c0.586-0.584,1.354-0.877,2.12-0.877s1.534,0.292,2.12,0.877l14.031,14.031c0.564,0.563,0.881,1.325,0.881,2.121
		c0,0.001,0,0.005,0,0.006c-0.002,0.798-0.32,1.563-0.887,2.124c-0.133,0.131-12.873,12.782-22.66,22.591c0,2.303,0,31.979,0,31.979
		c0,1.656-1.342,2.998-2.998,2.998h-19.99"/>
	<g>
		
			<linearGradient id="SVGID_7_" gradientUnits="userSpaceOnUse" x1="296.7324" y1="-342.7573" x2="296.7324" y2="-254.8955" gradientTransform="matrix(1 0 0 -1 -237.5996 -239.9004)">
			<stop  offset="0" style="stop-color:#FEDF34"/>
			<stop  offset="0.1758" style="stop-color:#FECD26"/>
			<stop  offset="0.4969" style="stop-color:#FFB211"/>
			<stop  offset="0.782" style="stop-color:#FFA204"/>
			<stop  offset="1" style="stop-color:#FF9C00"/>
		</linearGradient>
		<path fill="url(#SVGID_7_)" d="M26.694,59.509l-3.812-0.599l-6.08-41.372l2.673-2.45l40.917,6.246l0.778,3.696L26.694,59.509
			L26.694,59.509z M26.323,59.941c-0.822,0.82-2.152,0.82-2.974,0c-0.822-0.821-0.822-2.154,0-2.977
			c0.822-0.822,2.152-0.822,2.974,0C27.144,57.787,27.144,59.12,26.323,59.941L26.323,59.941z M61.493,24.771
			c-0.821,0.821-2.152,0.821-2.974,0c-0.822-0.822-0.822-2.154,0-2.976c0.821-0.822,2.152-0.822,2.974,0
			C62.314,22.616,62.314,23.949,61.493,24.771L61.493,24.771z M20.323,18.587c-0.821,0.822-2.154,0.822-2.976,0
			c-0.821-0.821-0.821-2.154,0-2.976c0.822-0.821,2.154-0.821,2.976,0C21.145,16.433,21.145,17.766,20.323,18.587L20.323,18.587z
			 M57.996,102.857V54.208l19.99,11.989v36.66H57.996L57.996,102.857z M74.548,72.594l-7.002,7.051L33.624,45.701l14.031-14.033
			c0,0,16.813,16.938,26.867,26.92C81.563,65.577,74.548,72.594,74.548,72.594L74.548,72.594z M74.611,73.027
			c-6.988,7.041-14.006,0.025-14.006,0.025l-7.049-7.003l33.942-33.921l14.033,14.031C101.531,46.16,84.594,62.973,74.611,73.027
			L74.611,73.027z"/>
	</g>
	
		<linearGradient id="SVGID_8_" gradientUnits="userSpaceOnUse" x1="274.7129" y1="-273.0874" x2="274.7129" y2="-256.1533" gradientTransform="matrix(1 0 0 -1 -237.5996 -239.9004)">
		<stop  offset="0" style="stop-color:#FFFFFF;stop-opacity:0"/>
		<stop  offset="1" style="stop-color:#FFFFFF;stop-opacity:0.8"/>
	</linearGradient>
	<path fill="url(#SVGID_8_)" d="M19.023,16.253c0,0,37.448,5.753,38.552,6.248c-34.811-5.035-39.362,10.686-39.362,10.686
		l-1.563-14.98L19.023,16.253L19.023,16.253z"/>
</g>
<g id="red">
	<path fill-opacity="0.1" d="M59.996,107.855c-1.658,0-3-1.342-3-2.998c0,0,0-28.84,0-31.148c-1.135-1.127-3.554-3.529-3.554-3.529
		c-0.32-0.318-0.562-0.701-0.711-1.117c-1.403-1.404-10.636-10.643-13.669-13.677c-2.665,2.665-8.094,8.093-8.187,8.187
		c-0.128,0.166-0.269,0.326-0.419,0.479c-0.002,0.002-0.005,0.006-0.008,0.008c-0.962,0.967-2.245,1.5-3.611,1.5
		c-1.363,0-2.644-0.531-3.61-1.494c-0.964-0.967-1.494-2.248-1.494-3.61c0-0.099,0.003-0.192,0.008-0.289
		c-0.104-0.713-3.893-26.498-3.893-26.498s-1.901-12.926-1.956-13.294c-0.107-0.415-0.16-0.842-0.16-1.273
		c0-1.368,0.532-2.65,1.499-3.613c0.966-0.963,2.246-1.491,3.605-1.491c0.409,0,0.811,0.048,1.203,0.143
		c0.215,0.032,38.882,5.937,39.643,6.052c0.108-0.006,0.219-0.011,0.327-0.011c1.362,0,2.642,0.53,3.607,1.494
		c0.965,0.966,1.493,2.247,1.493,3.61c0,1.36-0.527,2.639-1.489,3.605c-0.159,0.159-0.327,0.306-0.502,0.442
		c-0.248,0.249-5.209,5.21-7.796,7.796c3.593,3.611,8.079,8.115,12.444,12.484c3.379-3.378,17.613-17.603,17.613-17.603
		c0.586-0.584,1.354-0.877,2.12-0.877s1.534,0.292,2.12,0.877l14.031,14.031c0.564,0.563,0.881,1.325,0.881,2.121
		c0,0.001,0,0.005,0,0.006c-0.002,0.798-0.32,1.563-0.887,2.124c-0.133,0.131-12.873,12.782-22.66,22.591c0,2.303,0,31.979,0,31.979
		c0,1.656-1.342,2.998-2.998,2.998h-19.99"/>
	<path fill="#FC7E7E" d="M57.996,105.855c-1.657,0-3-1.342-3-2.998c0,0,0-28.84,0-31.148c-1.135-1.127-3.554-3.529-3.554-3.529
		c-0.32-0.318-0.562-0.701-0.711-1.117c-1.403-1.404-10.636-10.643-13.669-13.677c-2.665,2.665-8.094,8.093-8.187,8.187
		c-0.128,0.166-0.269,0.326-0.419,0.479c-0.002,0.002-0.005,0.006-0.008,0.008c-0.962,0.967-2.245,1.5-3.611,1.5
		c-1.363,0-2.644-0.531-3.61-1.494c-0.964-0.967-1.494-2.248-1.494-3.61c0-0.098,0.003-0.194,0.008-0.29
		c-0.104-0.712-3.893-26.497-3.893-26.497s-1.901-12.926-1.956-13.294c-0.107-0.415-0.16-0.842-0.16-1.273
		c0-1.368,0.532-2.65,1.499-3.613c0.966-0.963,2.246-1.491,3.605-1.491c0.409,0,0.811,0.048,1.203,0.143
		c0.215,0.032,38.882,5.937,39.643,6.052c0.108-0.006,0.219-0.011,0.327-0.011c1.362,0,2.642,0.53,3.607,1.494
		c0.965,0.966,1.493,2.247,1.493,3.61c0,1.36-0.527,2.639-1.489,3.605c-0.159,0.159-0.327,0.306-0.502,0.442
		c-0.248,0.249-5.209,5.21-7.796,7.796c3.592,3.611,8.079,8.115,12.444,12.484c3.379-3.378,17.613-17.603,17.613-17.603
		c0.586-0.584,1.354-0.877,2.12-0.877s1.534,0.292,2.12,0.877l14.031,14.031c0.564,0.563,0.881,1.325,0.881,2.121
		c0,0.001,0,0.005,0,0.006c-0.002,0.798-0.32,1.563-0.887,2.124c-0.133,0.131-12.873,12.782-22.66,22.591c0,2.303,0,31.979,0,31.979
		c0,1.656-1.342,2.998-2.998,2.998h-19.99"/>
	<g>
		
			<linearGradient id="SVGID_9_" gradientUnits="userSpaceOnUse" x1="296.7324" y1="-342.7573" x2="296.7324" y2="-254.8955" gradientTransform="matrix(1 0 0 -1 -237.5996 -239.9004)">
			<stop  offset="0" style="stop-color:#FF0000"/>
			<stop  offset="0.1758" style="stop-color:#F60303"/>
			<stop  offset="0.4969" style="stop-color:#EC0404"/>
			<stop  offset="0.782" style="stop-color:#E30101"/>
			<stop  offset="1" style="stop-color:#D60202"/>
		</linearGradient>
		<path fill="url(#SVGID_9_)" d="M26.694,59.509l-3.812-0.599l-6.08-41.372l2.673-2.45l40.917,6.246l0.778,3.696L26.694,59.509
			L26.694,59.509z M26.323,59.941c-0.822,0.82-2.152,0.82-2.974,0c-0.822-0.821-0.822-2.154,0-2.977
			c0.822-0.822,2.152-0.822,2.974,0C27.144,57.787,27.144,59.12,26.323,59.941L26.323,59.941z M61.493,24.771
			c-0.821,0.821-2.152,0.821-2.974,0c-0.822-0.822-0.822-2.154,0-2.976c0.821-0.822,2.152-0.822,2.974,0
			C62.314,22.616,62.314,23.949,61.493,24.771L61.493,24.771z M20.323,18.587c-0.821,0.822-2.154,0.822-2.976,0
			c-0.821-0.821-0.821-2.154,0-2.976c0.822-0.821,2.154-0.821,2.976,0C21.145,16.433,21.145,17.766,20.323,18.587L20.323,18.587z
			 M57.996,102.857V54.208l19.99,11.989v36.66H57.996L57.996,102.857z M74.548,72.594l-7.002,7.051L33.624,45.701l14.031-14.033
			c0,0,16.813,16.938,26.867,26.92C81.563,65.577,74.548,72.594,74.548,72.594L74.548,72.594z M74.611,73.027
			c-6.988,7.041-14.006,0.025-14.006,0.025l-7.049-7.003l33.942-33.921l14.033,14.031C101.531,46.16,84.594,62.973,74.611,73.027
			L74.611,73.027z"/>
	</g>
	
		<linearGradient id="SVGID_10_" gradientUnits="userSpaceOnUse" x1="274.7129" y1="-273.0874" x2="274.7129" y2="-256.1533" gradientTransform="matrix(1 0 0 -1 -237.5996 -239.9004)">
		<stop  offset="0" style="stop-color:#FFFFFF;stop-opacity:0"/>
		<stop  offset="1" style="stop-color:#FFFFFF;stop-opacity:0.8"/>
	</linearGradient>
	<path fill="url(#SVGID_10_)" d="M19.023,16.253c0,0,37.448,5.753,38.552,6.248c-34.811-5.035-39.362,10.686-39.362,10.686
		l-1.563-14.98L19.023,16.253L19.023,16.253z"/>
</g>
</svg>
