<?xml version="1.0" encoding="utf-8"?>
<!-- Generator: Adobe Illustrator 16.0.2, SVG Export Plug-In . SVG Version: 6.00 Build 0)  -->
<!DOCTYPE svg PUBLIC "-//W3C//DTD SVG 1.1//EN" "http://www.w3.org/Graphics/SVG/1.1/DTD/svg11.dtd">
<svg version="1.1" id="Layer_1" xmlns="http://www.w3.org/2000/svg" xmlns:xlink="http://www.w3.org/1999/xlink" x="0px" y="0px"
	 width="120px" height="120px" viewBox="0 0 120 120" enable-background="new 0 0 120 120" xml:space="preserve">
<g id="black_white">
	<g>
		<rect x="47.527" y="6.325" fill="#FFFFFF" width="24.946" height="107.349"/>
		
			<linearGradient id="SVGID_1_" gradientUnits="userSpaceOnUse" x1="297.6006" y1="-654.3486" x2="297.6006" y2="131.6525" gradientTransform="matrix(1 0 0 -1 -237.5996 -239.9004)">
			<stop  offset="0" style="stop-color:#0369B0"/>
			<stop  offset="1" style="stop-color:#1E7FC3"/>
		</linearGradient>
		<path fill="url(#SVGID_1_)" d="M86.346,21.838H33.654c-6.495,0-11.761,5.262-11.761,11.754v52.817
			c0,6.491,5.266,11.754,11.761,11.754h52.692c6.495,0,11.762-5.263,11.762-11.754V33.592C98.107,27.1,92.841,21.838,86.346,21.838z
			"/>
		<path fill="#FFFFFF" d="M77.331,84.928c0-2.718,0-8.076,0-8.076c0-1.217-0.985-2.201-2.2-2.201H45.058
			c-1.216,0-2.2,0.986-2.2,2.201c0,0,0,5.358,0,8.076c-2.479,0-6.587,0-9.065,0c0-2.718,0-8.076,0-8.076
			c0-1.217-0.985-2.201-2.2-2.201c0,0-0.372,0-0.74,0c-0.562-0.522-1.094-1.02-1.698-1.582c0-1.187,0-3.543,0-3.543v-3.002v-7.502
			c0-2.856,1.651-3.884,1.911-4.029c0.003-0.002,0.007-0.003,0.011-0.005c0.403-0.21,0.756-0.55,0.965-0.95
			c0,0,8.801-16.871,9.894-18.966c2.399,0,33.968,0,36.369,0c1.092,2.095,9.893,18.966,9.893,18.966
			c0.343,0.654,0.986,1.089,1.71,1.168c0.271,0.164,0.927,1.124,0.927,3.816v7.502v3.002c0,0,0,2.406,0,3.574
			c-0.563,0.549-1.041,1.016-1.589,1.551c-0.313,0-0.646,0-0.646,0c-1.216,0-2.199,0.984-2.199,2.199c0,0,0,5.359,0,8.078
			C83.918,84.928,79.811,84.928,77.331,84.928 M32.358,64.277c0,2.451,2.015,4.445,4.49,4.445c2.477,0,4.492-1.994,4.492-4.445
			c0-2.449-2.015-4.442-4.492-4.442C34.373,59.835,32.358,61.828,32.358,64.277 M45.683,61.262
			c-0.396,0.676-0.396,1.367-0.396,2.035v0.227v0.229c0,0.853,0,1.915,0.832,2.763c0.87,0.885,2.026,0.885,2.87,0.885H71.07
			c0.847,0,2.007,0,2.877-0.893c0.826-0.847,0.826-1.91,0.826-2.764v-0.221v-0.217c0-0.668,0-1.359-0.39-2.033
			c-0.491-0.852-1.334-1.282-2.502-1.282l-0.347,0.005l-0.465,0.005H48.988l-0.463-0.005l-0.347-0.005
			C47.015,59.99,46.176,60.418,45.683,61.262 M78.9,64.277c0,2.451,2.016,4.445,4.49,4.445c2.478,0,4.492-1.994,4.492-4.445
			c0-2.449-2.015-4.442-4.492-4.442C80.916,59.835,78.9,61.828,78.9,64.277 M42.972,41.056L39.97,52.887
			c-0.046,0.178-0.069,0.359-0.069,0.541c0,0.484,0.16,0.962,0.463,1.351c0.418,0.536,1.059,0.849,1.737,0.849h36.033
			c0.679,0,1.319-0.314,1.737-0.849c0.303-0.389,0.463-0.867,0.463-1.351c0-0.181-0.023-0.363-0.068-0.541l-3.004-11.831
			c-0.248-0.976-1.127-1.659-2.133-1.659H45.103C44.097,39.396,43.218,40.08,42.972,41.056 M31.072,54.989
			c-0.002,0-0.002,0.002-0.004,0.002C31.07,54.991,31.07,54.989,31.072,54.989"/>
	</g>
</g>
<g id="blue">
	<path fill-opacity="0.1" d="M31.33,106.922c-8.949,0-16.229-7.279-16.229-16.229V31.164c0-8.948,7.28-16.228,16.229-16.228h59.527
		c8.949,0,16.229,7.28,16.229,16.228v59.529c0,8.947-7.28,16.229-16.229,16.229H31.33"/>
	<path fill="#70B7E0" d="M29.33,104.922c-8.949,0-16.229-7.279-16.229-16.229V29.164c0-8.948,7.28-16.228,16.229-16.228h59.527
		c8.949,0,16.229,7.28,16.229,16.228v59.529c0,8.947-7.28,16.229-16.229,16.229H29.33"/>
	<g>
		
			<linearGradient id="SVGID_2_" gradientUnits="userSpaceOnUse" x1="296.6943" y1="-341.8228" x2="296.6942" y2="-255.8354" gradientTransform="matrix(1 0 0 -1 -237.5996 -239.9004)">
			<stop  offset="0" style="stop-color:#48A2FB"/>
			<stop  offset="0.1758" style="stop-color:#059CF4"/>
			<stop  offset="0.4969" style="stop-color:#0398EF"/>
			<stop  offset="0.782" style="stop-color:#0293E7"/>
			<stop  offset="1" style="stop-color:#0189D8"/>
		</linearGradient>
		<path fill="url(#SVGID_2_)" d="M88.857,101.923H29.33c-7.306,0-13.23-5.923-13.23-13.229V29.164
			c0-7.306,5.924-13.229,13.23-13.229h59.527c7.308,0,13.23,5.922,13.23,13.229v59.529C102.089,96,96.165,101.923,88.857,101.923
			L88.857,101.923z"/>
	</g>
	<path fill="#70B7E0" d="M92.158,77.118h-1.696v11.575H75.63V77.118H42.506v11.575h-14.83V77.118h-1.768l-3.193-3.308v-4.959v-3.309
		v-8.269c0-4.961,3.309-6.614,3.309-6.614l11.574-21.497h42.995L92.167,50.66c0,0,3.308,0,3.308,6.614v8.269v3.309v4.959
		L92.158,77.118L92.158,77.118z M33.467,60.598c-1.395,0-2.524,1.106-2.524,2.471c0,1.367,1.129,2.474,2.524,2.474
		c1.394,0,2.522-1.106,2.522-2.474C35.989,61.704,34.86,60.598,33.467,60.598L33.467,60.598z M47.519,63.891H70.67
		c1.699,0,1.652,0.045,1.652-1.652c0-1.699,0.047-1.654-1.652-1.654H47.519c-1.699,0-1.652-0.045-1.652,1.654
		C45.866,63.936,45.819,63.891,47.519,63.891L47.519,63.891z M75.63,39.085H42.559l-3.307,11.576h39.686L75.63,39.085L75.63,39.085z
		 M84.729,60.598c-1.396,0-2.523,1.106-2.523,2.471c0,1.367,1.129,2.474,2.523,2.474s2.522-1.106,2.522-2.474
		C87.251,61.704,86.122,60.598,84.729,60.598L84.729,60.598z"/>
	<path fill="#FFFFFF" d="M78.63,85.693c0-3.293,0-8.575,0-8.575c0-1.657-1.342-3-3-3H42.506c-1.657,0-3,1.343-3,3
		c0,0,0,5.282,0,8.575c-2.849,0-5.981,0-8.831,0c0-3.293,0-8.575,0-8.575c0-1.657-1.342-3-3-3c0,0-0.294,0-0.493,0
		c-0.588-0.608-0.898-0.931-1.469-1.521c0-1.384,0-3.746,0-3.746v-3.309v-8.269c0-2.822,1.486-3.828,1.714-3.965
		c-0.018,0.01-0.064,0.035-0.064,0.035c0.528-0.278,1.017-0.735,1.3-1.262c0,0,9.267-17.211,10.726-19.92c3.147,0,36.263,0,39.41,0
		c1.459,2.708,10.725,19.92,10.725,19.92c0.451,0.839,1.27,1.404,2.194,1.544c0.242,0.253,0.755,1.274,0.755,3.648v8.269v3.309
		c0,0,0,2.317,0,3.715c-0.606,0.604-0.951,0.947-1.557,1.552c-0.18,0-0.455,0-0.455,0c-1.658,0-3,1.343-3,3c0,0,0,5.282,0,8.575
		C84.611,85.693,81.48,85.693,78.63,85.693 M27.943,63.068c0,3.017,2.478,5.473,5.523,5.473c3.045,0,5.522-2.456,5.522-5.473
		c0-3.019-2.478-5.471-5.522-5.471C30.421,57.597,27.943,60.051,27.943,63.068 M43.941,58.645c-1.075,1.07-1.075,2.382-1.075,3.343
		v0.25v0.248c0,0.959,0,2.271,1.073,3.341c1.068,1.063,2.378,1.063,3.336,1.063h0.243H70.67h0.244c0.957,0,2.268,0,3.336-1.063
		c1.072-1.068,1.072-2.382,1.072-3.341v-0.248v-0.25c0-0.961,0-2.272-1.074-3.343c-1.068-1.062-2.378-1.062-3.336-1.062H70.67
		H47.519h-0.242C46.319,57.583,45.009,57.583,43.941,58.645 M79.205,63.068c0,3.017,2.479,5.473,5.523,5.473
		c3.043,0,5.521-2.456,5.521-5.473c0-3.019-2.478-5.471-5.521-5.471C81.684,57.597,79.205,60.051,79.205,63.068 M39.674,38.261
		l-3.307,11.576c-0.077,0.271-0.115,0.549-0.115,0.825c0,0.646,0.208,1.28,0.605,1.807c0.565,0.751,1.453,1.193,2.395,1.193h39.686
		c0.941,0,1.83-0.442,2.395-1.193c0.396-0.527,0.605-1.161,0.605-1.807c0-0.275-0.039-0.554-0.115-0.825l-3.307-11.576
		c-0.369-1.288-1.547-2.175-2.886-2.175H42.559C41.22,36.086,40.043,36.973,39.674,38.261 M91.666,53.581
		c0.002,0,0.002,0.002,0.003,0.002C91.668,53.583,91.666,53.581,91.666,53.581"/>
	
		<linearGradient id="SVGID_3_" gradientUnits="userSpaceOnUse" x1="297.291" y1="-282.6055" x2="297.291" y2="-257.9302" gradientTransform="matrix(1 0 0 -1 -237.5996 -239.9004)">
		<stop  offset="0" style="stop-color:#FFFFFF;stop-opacity:0"/>
		<stop  offset="1" style="stop-color:#FFFFFF;stop-opacity:0.8"/>
	</linearGradient>
	<path fill="url(#SVGID_3_)" d="M36.279,34.888c-10.953-3.797-15.283-8.096-16.986-10.74c1.672-3.347,4.899-5.653,8.636-6.118
		c0.237,0,61.958,0,61.958,0l0.297,0.01c0,0,0.086,0.005,0.168,0.008c5.557,0.737,9.737,5.503,9.737,11.116c0,0,0,10.497,0,13.541
		C72.244,42.546,50.784,39.917,36.279,34.888"/>
</g>
<g id="green">
	<path fill-opacity="0.1" d="M31.33,106.922c-8.949,0-16.229-7.279-16.229-16.229V31.164c0-8.948,7.28-16.228,16.229-16.228h59.527
		c8.949,0,16.229,7.28,16.229,16.228v59.529c0,8.947-7.28,16.229-16.229,16.229H31.33"/>
	<path fill="#03FC30" d="M29.33,104.922c-8.949,0-16.229-7.279-16.229-16.229V29.164c0-8.948,7.28-16.228,16.229-16.228h59.527
		c8.949,0,16.229,7.28,16.229,16.228v59.529c0,8.947-7.28,16.229-16.229,16.229H29.33"/>
	<g>
		
			<linearGradient id="SVGID_4_" gradientUnits="userSpaceOnUse" x1="296.6943" y1="-341.8228" x2="296.6942" y2="-255.8354" gradientTransform="matrix(1 0 0 -1 -237.5996 -239.9004)">
			<stop  offset="0" style="stop-color:#00DF34"/>
			<stop  offset="0.1758" style="stop-color:#00CD26"/>
			<stop  offset="0.4969" style="stop-color:#00B211"/>
			<stop  offset="0.782" style="stop-color:#00A204"/>
			<stop  offset="1" style="stop-color:#009C00"/>
		</linearGradient>
		<path fill="url(#SVGID_4_)" d="M88.857,101.923H29.33c-7.306,0-13.23-5.923-13.23-13.229V29.164
			c0-7.306,5.924-13.229,13.23-13.229h59.527c7.308,0,13.23,5.922,13.23,13.229v59.529C102.089,96,96.165,101.923,88.857,101.923
			L88.857,101.923z"/>
	</g>
	<path fill="#03FC30" d="M92.158,77.118h-1.696v11.575H75.63V77.118H42.506v11.575h-14.83V77.118h-1.768l-3.193-3.308v-4.959v-3.309
		v-8.269c0-4.961,3.309-6.614,3.309-6.614l11.574-21.497h42.995L92.167,50.66c0,0,3.308,0,3.308,6.614v8.269v3.309v4.959
		L92.158,77.118L92.158,77.118z M33.467,60.598c-1.395,0-2.524,1.106-2.524,2.471c0,1.367,1.129,2.474,2.524,2.474
		c1.394,0,2.522-1.106,2.522-2.474C35.989,61.704,34.86,60.598,33.467,60.598L33.467,60.598z M47.519,63.891H70.67
		c1.699,0,1.652,0.045,1.652-1.652c0-1.699,0.047-1.654-1.652-1.654H47.519c-1.699,0-1.652-0.045-1.652,1.654
		C45.866,63.936,45.819,63.891,47.519,63.891L47.519,63.891z M75.63,39.085H42.559l-3.307,11.576h39.686L75.63,39.085L75.63,39.085z
		 M84.729,60.598c-1.396,0-2.523,1.106-2.523,2.471c0,1.367,1.129,2.474,2.523,2.474s2.522-1.106,2.522-2.474
		C87.251,61.704,86.122,60.598,84.729,60.598L84.729,60.598z"/>
	<path fill="#FFFFFF" d="M78.63,85.693c0-3.293,0-8.575,0-8.575c0-1.657-1.342-3-3-3H42.506c-1.657,0-3,1.343-3,3
		c0,0,0,5.282,0,8.575c-2.849,0-5.981,0-8.831,0c0-3.293,0-8.575,0-8.575c0-1.657-1.342-3-3-3c0,0-0.294,0-0.493,0
		c-0.588-0.608-0.898-0.931-1.469-1.521c0-1.384,0-3.746,0-3.746v-3.309v-8.269c0-2.822,1.486-3.828,1.714-3.965
		c-0.018,0.01-0.064,0.035-0.064,0.035c0.528-0.278,1.017-0.735,1.3-1.262c0,0,9.267-17.211,10.726-19.92c3.147,0,36.263,0,39.41,0
		c1.459,2.708,10.725,19.92,10.725,19.92c0.451,0.839,1.27,1.404,2.194,1.544c0.242,0.253,0.755,1.274,0.755,3.648v8.269v3.309
		c0,0,0,2.317,0,3.715c-0.606,0.604-0.951,0.947-1.557,1.552c-0.18,0-0.455,0-0.455,0c-1.658,0-3,1.343-3,3c0,0,0,5.282,0,8.575
		C84.611,85.693,81.48,85.693,78.63,85.693 M27.943,63.068c0,3.017,2.478,5.473,5.523,5.473c3.045,0,5.522-2.456,5.522-5.473
		c0-3.019-2.478-5.471-5.522-5.471C30.421,57.597,27.943,60.051,27.943,63.068 M43.941,58.645c-1.075,1.07-1.075,2.382-1.075,3.343
		v0.25v0.248c0,0.959,0,2.271,1.073,3.341c1.068,1.063,2.378,1.063,3.336,1.063h0.243H70.67h0.244c0.957,0,2.268,0,3.336-1.063
		c1.072-1.068,1.072-2.382,1.072-3.341v-0.248v-0.25c0-0.961,0-2.272-1.074-3.343c-1.068-1.062-2.378-1.062-3.336-1.062H70.67
		H47.519h-0.242C46.319,57.583,45.009,57.583,43.941,58.645 M79.205,63.068c0,3.017,2.479,5.473,5.523,5.473
		c3.043,0,5.521-2.456,5.521-5.473c0-3.019-2.478-5.471-5.521-5.471C81.684,57.597,79.205,60.051,79.205,63.068 M39.674,38.261
		l-3.307,11.576c-0.077,0.271-0.115,0.549-0.115,0.825c0,0.646,0.208,1.28,0.605,1.807c0.565,0.751,1.453,1.193,2.395,1.193h39.686
		c0.941,0,1.83-0.442,2.395-1.193c0.396-0.527,0.605-1.161,0.605-1.807c0-0.275-0.039-0.554-0.115-0.825l-3.307-11.576
		c-0.369-1.288-1.547-2.175-2.886-2.175H42.559C41.22,36.086,40.043,36.973,39.674,38.261 M91.666,53.581
		c0.002,0,0.002,0.002,0.003,0.002C91.668,53.583,91.666,53.581,91.666,53.581"/>
	
		<linearGradient id="SVGID_5_" gradientUnits="userSpaceOnUse" x1="297.291" y1="-282.6055" x2="297.291" y2="-257.9302" gradientTransform="matrix(1 0 0 -1 -237.5996 -239.9004)">
		<stop  offset="0" style="stop-color:#FFFFFF;stop-opacity:0"/>
		<stop  offset="1" style="stop-color:#FFFFFF;stop-opacity:0.8"/>
	</linearGradient>
	<path fill="url(#SVGID_5_)" d="M36.279,34.888c-10.953-3.797-15.283-8.096-16.986-10.74c1.672-3.347,4.899-5.653,8.636-6.118
		c0.237,0,61.958,0,61.958,0l0.297,0.01c0,0,0.086,0.005,0.168,0.008c5.557,0.737,9.737,5.503,9.737,11.116c0,0,0,10.497,0,13.541
		C72.244,42.546,50.784,39.917,36.279,34.888"/>
</g>
<g id="kia">
	<path fill-opacity="0.1" d="M31.33,106.922c-8.949,0-16.229-7.279-16.229-16.229V31.164c0-8.948,7.28-16.228,16.229-16.228h59.527
		c8.949,0,16.229,7.28,16.229,16.228v59.529c0,8.947-7.28,16.229-16.229,16.229H31.33"/>
	<path fill="#000000" d="M29.33,104.922c-8.949,0-16.229-7.279-16.229-16.229V29.164c0-8.948,7.28-16.228,16.229-16.228h59.527
		c8.949,0,16.229,7.28,16.229,16.228v59.529c0,8.947-7.28,16.229-16.229,16.229H29.33"/>
	<g>
		
			<linearGradient id="SVGID_6_" gradientUnits="userSpaceOnUse" x1="296.6943" y1="-341.8228" x2="296.6942" y2="-255.8354" gradientTransform="matrix(1 0 0 -1 -237.5996 -239.9004)">
			<stop  offset="0" style="stop-color:#FFFFFF"/>
			<stop  offset="0.1758" style="stop-color:#E7E9EA"/>
			<stop  offset="0.4969" style="stop-color:#CDD2D5"/>
			<stop  offset="0.782" style="stop-color:#C5CACC"/>
			<stop  offset="1" style="stop-color:#BABDC0"/>
		</linearGradient>
		<path fill="url(#SVGID_6_)" d="M88.857,101.923H29.33c-7.306,0-13.23-5.923-13.23-13.229V29.164
			c0-7.306,5.924-13.229,13.23-13.229h59.527c7.308,0,13.23,5.922,13.23,13.229v59.529C102.089,96,96.165,101.923,88.857,101.923
			L88.857,101.923z"/>
	</g>
	<path fill="#000000" d="M92.158,77.118h-1.696v11.575H75.63V77.118H42.506v11.575h-14.83V77.118h-1.768l-3.193-3.308v-4.959v-3.309
		v-8.269c0-4.961,3.309-6.614,3.309-6.614l11.574-21.497h42.995L92.167,50.66c0,0,3.308,0,3.308,6.614v8.269v3.309v4.959
		L92.158,77.118L92.158,77.118z M33.467,60.598c-1.395,0-2.524,1.106-2.524,2.471c0,1.367,1.129,2.474,2.524,2.474
		c1.394,0,2.522-1.106,2.522-2.474C35.989,61.704,34.86,60.598,33.467,60.598L33.467,60.598z M47.519,63.891H70.67
		c1.699,0,1.652,0.045,1.652-1.652c0-1.699,0.047-1.654-1.652-1.654H47.519c-1.699,0-1.652-0.045-1.652,1.654
		C45.866,63.936,45.819,63.891,47.519,63.891L47.519,63.891z M75.63,39.085H42.559l-3.307,11.576h39.686L75.63,39.085L75.63,39.085z
		 M84.729,60.598c-1.396,0-2.523,1.106-2.523,2.471c0,1.367,1.129,2.474,2.523,2.474s2.522-1.106,2.522-2.474
		C87.251,61.704,86.122,60.598,84.729,60.598L84.729,60.598z"/>
	<path fill="#FFFFFF" d="M78.63,85.693c0-3.293,0-8.575,0-8.575c0-1.657-1.342-3-3-3H42.506c-1.657,0-3,1.343-3,3
		c0,0,0,5.282,0,8.575c-2.849,0-5.981,0-8.831,0c0-3.293,0-8.575,0-8.575c0-1.657-1.342-3-3-3c0,0-0.294,0-0.493,0
		c-0.588-0.608-0.898-0.931-1.469-1.521c0-1.384,0-3.746,0-3.746v-3.309v-8.269c0-2.822,1.486-3.828,1.714-3.965
		c-0.018,0.01-0.064,0.035-0.064,0.035c0.528-0.278,1.017-0.735,1.3-1.262c0,0,9.267-17.211,10.726-19.92c3.147,0,36.263,0,39.41,0
		c1.459,2.708,10.725,19.92,10.725,19.92c0.451,0.839,1.27,1.404,2.194,1.544c0.242,0.253,0.755,1.274,0.755,3.648v8.269v3.309
		c0,0,0,2.317,0,3.715c-0.606,0.604-0.951,0.947-1.557,1.552c-0.18,0-0.455,0-0.455,0c-1.658,0-3,1.343-3,3c0,0,0,5.282,0,8.575
		C84.611,85.693,81.48,85.693,78.63,85.693 M27.943,63.068c0,3.017,2.478,5.473,5.523,5.473c3.045,0,5.522-2.456,5.522-5.473
		c0-3.019-2.478-5.471-5.522-5.471C30.421,57.597,27.943,60.051,27.943,63.068 M43.941,58.645c-1.075,1.07-1.075,2.382-1.075,3.343
		v0.25v0.248c0,0.959,0,2.271,1.073,3.341c1.068,1.063,2.378,1.063,3.336,1.063h0.243H70.67h0.244c0.957,0,2.268,0,3.336-1.063
		c1.072-1.068,1.072-2.382,1.072-3.341v-0.248v-0.25c0-0.961,0-2.272-1.074-3.343c-1.068-1.062-2.378-1.062-3.336-1.062H70.67
		H47.519h-0.242C46.319,57.583,45.009,57.583,43.941,58.645 M79.205,63.068c0,3.017,2.479,5.473,5.523,5.473
		c3.043,0,5.521-2.456,5.521-5.473c0-3.019-2.478-5.471-5.521-5.471C81.684,57.597,79.205,60.051,79.205,63.068 M39.674,38.261
		l-3.307,11.576c-0.077,0.271-0.115,0.549-0.115,0.825c0,0.646,0.208,1.28,0.605,1.807c0.565,0.751,1.453,1.193,2.395,1.193h39.686
		c0.941,0,1.83-0.442,2.395-1.193c0.396-0.527,0.605-1.161,0.605-1.807c0-0.275-0.039-0.554-0.115-0.825l-3.307-11.576
		c-0.369-1.288-1.547-2.175-2.886-2.175H42.559C41.22,36.086,40.043,36.973,39.674,38.261 M91.666,53.581
		c0.002,0,0.002,0.002,0.003,0.002C91.668,53.583,91.666,53.581,91.666,53.581"/>
	
		<linearGradient id="SVGID_7_" gradientUnits="userSpaceOnUse" x1="297.291" y1="-282.6055" x2="297.291" y2="-257.9302" gradientTransform="matrix(1 0 0 -1 -237.5996 -239.9004)">
		<stop  offset="0" style="stop-color:#FFFFFF;stop-opacity:0"/>
		<stop  offset="1" style="stop-color:#FFFFFF;stop-opacity:0.8"/>
	</linearGradient>
	<path fill="url(#SVGID_7_)" d="M36.279,34.888c-10.953-3.797-15.283-8.096-16.986-10.74c1.672-3.347,4.899-5.653,8.636-6.118
		c0.237,0,61.958,0,61.958,0l0.297,0.01c0,0,0.086,0.005,0.168,0.008c5.557,0.737,9.737,5.503,9.737,11.116c0,0,0,10.497,0,13.541
		C72.244,42.546,50.784,39.917,36.279,34.888"/>
</g>
<g id="orange">
	<path fill-opacity="0.1" d="M31.33,106.922c-8.949,0-16.229-7.279-16.229-16.229V31.164c0-8.948,7.28-16.228,16.229-16.228h59.527
		c8.949,0,16.229,7.28,16.229,16.228v59.529c0,8.947-7.28,16.229-16.229,16.229H31.33"/>
	<path fill="#FFE035" d="M29.33,104.922c-8.949,0-16.229-7.279-16.229-16.229V29.164c0-8.948,7.28-16.228,16.229-16.228h59.527
		c8.949,0,16.229,7.28,16.229,16.228v59.529c0,8.947-7.28,16.229-16.229,16.229H29.33"/>
	<g>
		
			<linearGradient id="SVGID_8_" gradientUnits="userSpaceOnUse" x1="296.6943" y1="-341.8228" x2="296.6942" y2="-255.8354" gradientTransform="matrix(1 0 0 -1 -237.5996 -239.9004)">
			<stop  offset="0" style="stop-color:#FEDF34"/>
			<stop  offset="0.1758" style="stop-color:#FECD26"/>
			<stop  offset="0.4969" style="stop-color:#FFB211"/>
			<stop  offset="0.782" style="stop-color:#FFA204"/>
			<stop  offset="1" style="stop-color:#FF9C00"/>
		</linearGradient>
		<path fill="url(#SVGID_8_)" d="M88.857,101.923H29.33c-7.306,0-13.23-5.923-13.23-13.229V29.164
			c0-7.306,5.924-13.229,13.23-13.229h59.527c7.308,0,13.23,5.922,13.23,13.229v59.529C102.089,96,96.165,101.923,88.857,101.923
			L88.857,101.923z"/>
	</g>
	<path fill="#FFE035" d="M92.158,77.118h-1.696v11.575H75.63V77.118H42.506v11.575h-14.83V77.118h-1.768l-3.193-3.308v-4.959v-3.309
		v-8.269c0-4.961,3.309-6.614,3.309-6.614l11.574-21.497h42.995L92.167,50.66c0,0,3.308,0,3.308,6.614v8.269v3.309v4.959
		L92.158,77.118L92.158,77.118z M33.467,60.598c-1.395,0-2.524,1.106-2.524,2.471c0,1.367,1.129,2.474,2.524,2.474
		c1.394,0,2.522-1.106,2.522-2.474C35.989,61.704,34.86,60.598,33.467,60.598L33.467,60.598z M47.519,63.891H70.67
		c1.699,0,1.652,0.045,1.652-1.652c0-1.699,0.047-1.654-1.652-1.654H47.519c-1.699,0-1.652-0.045-1.652,1.654
		C45.866,63.936,45.819,63.891,47.519,63.891L47.519,63.891z M75.63,39.085H42.559l-3.307,11.576h39.686L75.63,39.085L75.63,39.085z
		 M84.729,60.598c-1.396,0-2.523,1.106-2.523,2.471c0,1.367,1.129,2.474,2.523,2.474s2.522-1.106,2.522-2.474
		C87.251,61.704,86.122,60.598,84.729,60.598L84.729,60.598z"/>
	<path fill="#FFFFFF" d="M78.63,85.693c0-3.293,0-8.575,0-8.575c0-1.657-1.342-3-3-3H42.506c-1.657,0-3,1.343-3,3
		c0,0,0,5.282,0,8.575c-2.849,0-5.981,0-8.831,0c0-3.293,0-8.575,0-8.575c0-1.657-1.342-3-3-3c0,0-0.294,0-0.493,0
		c-0.588-0.608-0.898-0.931-1.469-1.521c0-1.384,0-3.746,0-3.746v-3.309v-8.269c0-2.822,1.486-3.828,1.714-3.965
		c-0.018,0.01-0.064,0.035-0.064,0.035c0.528-0.278,1.017-0.735,1.3-1.262c0,0,9.267-17.211,10.726-19.92c3.147,0,36.263,0,39.41,0
		c1.459,2.708,10.725,19.92,10.725,19.92c0.451,0.839,1.27,1.404,2.194,1.544c0.242,0.253,0.755,1.274,0.755,3.648v8.269v3.309
		c0,0,0,2.317,0,3.715c-0.606,0.604-0.951,0.947-1.557,1.552c-0.18,0-0.455,0-0.455,0c-1.658,0-3,1.343-3,3c0,0,0,5.282,0,8.575
		C84.611,85.693,81.48,85.693,78.63,85.693 M27.943,63.068c0,3.017,2.478,5.473,5.523,5.473c3.045,0,5.522-2.456,5.522-5.473
		c0-3.019-2.478-5.471-5.522-5.471C30.421,57.597,27.943,60.051,27.943,63.068 M43.941,58.645c-1.075,1.07-1.075,2.382-1.075,3.343
		v0.25v0.248c0,0.959,0,2.271,1.073,3.341c1.068,1.063,2.378,1.063,3.336,1.063h0.243H70.67h0.244c0.957,0,2.268,0,3.336-1.063
		c1.072-1.068,1.072-2.382,1.072-3.341v-0.248v-0.25c0-0.961,0-2.272-1.074-3.343c-1.068-1.062-2.378-1.062-3.336-1.062H70.67
		H47.519h-0.242C46.319,57.583,45.009,57.583,43.941,58.645 M79.205,63.068c0,3.017,2.479,5.473,5.523,5.473
		c3.043,0,5.521-2.456,5.521-5.473c0-3.019-2.478-5.471-5.521-5.471C81.684,57.597,79.205,60.051,79.205,63.068 M39.674,38.261
		l-3.307,11.576c-0.077,0.271-0.115,0.549-0.115,0.825c0,0.646,0.208,1.28,0.605,1.807c0.565,0.751,1.453,1.193,2.395,1.193h39.686
		c0.941,0,1.83-0.442,2.395-1.193c0.396-0.527,0.605-1.161,0.605-1.807c0-0.275-0.039-0.554-0.115-0.825l-3.307-11.576
		c-0.369-1.288-1.547-2.175-2.886-2.175H42.559C41.22,36.086,40.043,36.973,39.674,38.261 M91.666,53.581
		c0.002,0,0.002,0.002,0.003,0.002C91.668,53.583,91.666,53.581,91.666,53.581"/>
	
		<linearGradient id="SVGID_9_" gradientUnits="userSpaceOnUse" x1="297.291" y1="-282.6055" x2="297.291" y2="-257.9302" gradientTransform="matrix(1 0 0 -1 -237.5996 -239.9004)">
		<stop  offset="0" style="stop-color:#FFFFFF;stop-opacity:0"/>
		<stop  offset="1" style="stop-color:#FFFFFF;stop-opacity:0.8"/>
	</linearGradient>
	<path fill="url(#SVGID_9_)" d="M36.279,34.888c-10.953-3.797-15.283-8.096-16.986-10.74c1.672-3.347,4.899-5.653,8.636-6.118
		c0.237,0,61.958,0,61.958,0l0.297,0.01c0,0,0.086,0.005,0.168,0.008c5.557,0.737,9.737,5.503,9.737,11.116c0,0,0,10.497,0,13.541
		C72.244,42.546,50.784,39.917,36.279,34.888"/>
</g>
<g id="red">
	<path fill-opacity="0.1" d="M31.33,106.922c-8.949,0-16.229-7.279-16.229-16.229V31.164c0-8.948,7.28-16.228,16.229-16.228h59.527
		c8.949,0,16.229,7.28,16.229,16.228v59.529c0,8.947-7.28,16.229-16.229,16.229H31.33"/>
	<path fill="#FC7E7E" d="M29.33,104.922c-8.949,0-16.229-7.279-16.229-16.229V29.164c0-8.948,7.28-16.228,16.229-16.228h59.527
		c8.949,0,16.229,7.28,16.229,16.228v59.529c0,8.947-7.28,16.229-16.229,16.229H29.33"/>
	<g>
		
			<linearGradient id="SVGID_10_" gradientUnits="userSpaceOnUse" x1="296.6943" y1="-341.8228" x2="296.6942" y2="-255.8354" gradientTransform="matrix(1 0 0 -1 -237.5996 -239.9004)">
			<stop  offset="0" style="stop-color:#FF0000"/>
			<stop  offset="0.1758" style="stop-color:#F60303"/>
			<stop  offset="0.4969" style="stop-color:#EC0404"/>
			<stop  offset="0.782" style="stop-color:#E30101"/>
			<stop  offset="1" style="stop-color:#D60202"/>
		</linearGradient>
		<path fill="url(#SVGID_10_)" d="M88.857,101.923H29.33c-7.306,0-13.23-5.923-13.23-13.229V29.164
			c0-7.306,5.924-13.229,13.23-13.229h59.527c7.308,0,13.23,5.922,13.23,13.229v59.529C102.089,96,96.165,101.923,88.857,101.923
			L88.857,101.923z"/>
	</g>
	<path fill="#FC7E7E" d="M92.158,77.118h-1.696v11.575H75.63V77.118H42.506v11.575h-14.83V77.118h-1.768l-3.193-3.308v-4.959v-3.309
		v-8.269c0-4.961,3.309-6.614,3.309-6.614l11.574-21.497h42.995L92.167,50.66c0,0,3.308,0,3.308,6.614v8.269v3.309v4.959
		L92.158,77.118L92.158,77.118z M33.467,60.598c-1.395,0-2.524,1.106-2.524,2.471c0,1.367,1.129,2.474,2.524,2.474
		c1.394,0,2.522-1.106,2.522-2.474C35.989,61.704,34.86,60.598,33.467,60.598L33.467,60.598z M47.519,63.891H70.67
		c1.699,0,1.652,0.045,1.652-1.652c0-1.699,0.047-1.654-1.652-1.654H47.519c-1.699,0-1.652-0.045-1.652,1.654
		C45.866,63.936,45.819,63.891,47.519,63.891L47.519,63.891z M75.63,39.085H42.559l-3.307,11.576h39.686L75.63,39.085L75.63,39.085z
		 M84.729,60.598c-1.396,0-2.523,1.106-2.523,2.471c0,1.367,1.129,2.474,2.523,2.474s2.522-1.106,2.522-2.474
		C87.251,61.704,86.122,60.598,84.729,60.598L84.729,60.598z"/>
	<path fill="#FFFFFF" d="M78.63,85.693c0-3.293,0-8.575,0-8.575c0-1.657-1.342-3-3-3H42.506c-1.657,0-3,1.343-3,3
		c0,0,0,5.282,0,8.575c-2.849,0-5.981,0-8.831,0c0-3.293,0-8.575,0-8.575c0-1.657-1.342-3-3-3c0,0-0.294,0-0.493,0
		c-0.588-0.608-0.898-0.931-1.469-1.521c0-1.384,0-3.746,0-3.746v-3.309v-8.269c0-2.822,1.486-3.828,1.714-3.965
		c-0.018,0.01-0.064,0.035-0.064,0.035c0.528-0.278,1.017-0.735,1.3-1.262c0,0,9.267-17.211,10.726-19.92c3.147,0,36.263,0,39.41,0
		c1.459,2.708,10.725,19.92,10.725,19.92c0.451,0.839,1.27,1.404,2.194,1.544c0.242,0.253,0.755,1.274,0.755,3.648v8.269v3.309
		c0,0,0,2.317,0,3.715c-0.606,0.604-0.951,0.947-1.557,1.552c-0.18,0-0.455,0-0.455,0c-1.658,0-3,1.343-3,3c0,0,0,5.282,0,8.575
		C84.611,85.693,81.48,85.693,78.63,85.693 M27.943,63.068c0,3.017,2.478,5.473,5.523,5.473c3.045,0,5.522-2.456,5.522-5.473
		c0-3.019-2.478-5.471-5.522-5.471C30.421,57.597,27.943,60.051,27.943,63.068 M43.941,58.645c-1.075,1.07-1.075,2.382-1.075,3.343
		v0.25v0.248c0,0.959,0,2.271,1.073,3.341c1.068,1.063,2.378,1.063,3.336,1.063h0.243H70.67h0.244c0.957,0,2.268,0,3.336-1.063
		c1.072-1.068,1.072-2.382,1.072-3.341v-0.248v-0.25c0-0.961,0-2.272-1.074-3.343c-1.068-1.062-2.378-1.062-3.336-1.062H70.67
		H47.519h-0.242C46.319,57.583,45.009,57.583,43.941,58.645 M79.205,63.068c0,3.017,2.479,5.473,5.523,5.473
		c3.043,0,5.521-2.456,5.521-5.473c0-3.019-2.478-5.471-5.521-5.471C81.684,57.597,79.205,60.051,79.205,63.068 M39.674,38.261
		l-3.307,11.576c-0.077,0.271-0.115,0.549-0.115,0.825c0,0.646,0.208,1.28,0.605,1.807c0.565,0.751,1.453,1.193,2.395,1.193h39.686
		c0.941,0,1.83-0.442,2.395-1.193c0.396-0.527,0.605-1.161,0.605-1.807c0-0.275-0.039-0.554-0.115-0.825l-3.307-11.576
		c-0.369-1.288-1.547-2.175-2.886-2.175H42.559C41.22,36.086,40.043,36.973,39.674,38.261 M91.666,53.581
		c0.002,0,0.002,0.002,0.003,0.002C91.668,53.583,91.666,53.581,91.666,53.581"/>
	
		<linearGradient id="SVGID_11_" gradientUnits="userSpaceOnUse" x1="297.291" y1="-282.6055" x2="297.291" y2="-257.9302" gradientTransform="matrix(1 0 0 -1 -237.5996 -239.9004)">
		<stop  offset="0" style="stop-color:#FFFFFF;stop-opacity:0"/>
		<stop  offset="1" style="stop-color:#FFFFFF;stop-opacity:0.8"/>
	</linearGradient>
	<path fill="url(#SVGID_11_)" d="M36.279,34.888c-10.953-3.797-15.283-8.096-16.986-10.74c1.672-3.347,4.899-5.653,8.636-6.118
		c0.237,0,61.958,0,61.958,0l0.297,0.01c0,0,0.086,0.005,0.168,0.008c5.557,0.737,9.737,5.503,9.737,11.116c0,0,0,10.497,0,13.541
		C72.244,42.546,50.784,39.917,36.279,34.888"/>
</g>
</svg>
