<?xml version="1.0" encoding="utf-8"?>
<!-- Generator: Adobe Illustrator 16.0.2, SVG Export Plug-In . SVG Version: 6.00 Build 0)  -->
<!DOCTYPE svg PUBLIC "-//W3C//DTD SVG 1.1//EN" "http://www.w3.org/Graphics/SVG/1.1/DTD/svg11.dtd">
<svg version="1.1" id="Layer_1" xmlns="http://www.w3.org/2000/svg" xmlns:xlink="http://www.w3.org/1999/xlink" x="0px" y="0px"
	 width="120px" height="120px" viewBox="0 0 120 120" enable-background="new 0 0 120 120" xml:space="preserve">
<g id="black_white">
	<g>
		<path fill="#999999" d="M87.303,29.513V12.167h8.451V38C93.553,34.852,90.589,31.845,87.303,29.513z"/>
		<path fill="#999999" d="M47.842,30.469V12.167H39.39v26.744C41.676,35.669,44.5,32.827,47.842,30.469z"/>
		<path fill="#FFFFFF" d="M102.676,56.751c0-18.985-15.39-34.375-34.375-34.375c-18.95,0-34.316,15.334-34.372,34.271h-0.003v0.104
			l0,0l0,0v13.761H19.203c-1.54,0-2.423,1.754-1.508,2.991l24.591,33.246c0.75,1.013,2.266,1.013,3.015,0l24.592-33.246
			c0.916-1.237,0.031-2.991-1.509-2.991H54.826V56.751l0,0c0-7.442,6.033-13.475,13.475-13.475c7.42,0,13.436,5.997,13.473,13.407
			h-0.008v51.15h20.9V56.751H102.676L102.676,56.751z"/>
	</g>
</g>
<g id="blue">
	<path fill="#7B7B7B" d="M83.645,90.693V9.668h16.535v81.025H83.645L83.645,90.693z M35.689,90.693V9.668h16.536v81.025H35.689
		L35.689,90.693z"/>
	
		<linearGradient id="SVGID_1_" gradientUnits="userSpaceOnUse" x1="305.5342" y1="-249.5684" x2="305.5342" y2="-328.5942" gradientTransform="matrix(1 0 0 -1 -237.5996 -239.9004)">
		<stop  offset="0" style="stop-color:#EAEAEA"/>
		<stop  offset="0.5" style="stop-color:#AAAAAA"/>
	</linearGradient>
	<path fill="url(#SVGID_1_)" d="M85.645,88.693c0-3.709,0-75.316,0-79.025c2.666,0,9.867,0,12.535,0c0,3.709,0,75.316,0,79.025
		C95.512,88.693,88.311,88.693,85.645,88.693 M37.689,88.693c0-3.709,0-75.316,0-79.025c2.667,0,9.868,0,12.535,0
		c0,3.709,0,75.316,0,79.025C47.558,88.693,40.356,88.693,37.689,88.693"/>
	<path fill-opacity="0.1" d="M84.016,110.818c-1.658,0-3-1.342-3-3V56.866c0-6.121-4.998-11.102-11.143-11.102
		c-5.301,0-9.828,3.72-10.863,8.882c0,0.428,0,8.32,0,12.124c3.628,0,10.468,0,10.615,0c0.221-0.027,0.441-0.043,0.664-0.043
		c2.814,0,5.104,2.291,5.104,5.104c0,1.464-0.631,2.851-1.713,3.813c-0.425,0.567-13.41,17.942-13.41,17.942
		s-10.359,13.858-10.589,14.169c-0.917,1.551-2.574,2.501-4.391,2.501c-1.788,0-3.421-0.922-4.347-2.429
		c-0.114-0.154-23.286-31.523-23.75-32.152c-1.104-0.963-1.746-2.359-1.746-3.846c0-2.813,2.29-5.104,5.104-5.104
		c0.218,0,0.439,0.015,0.658,0.043c0.36,0,8.032,0,11.801,0c0-3.535,0-9.905,0-9.905v-0.218V54.66c0-0.295,0.045-0.584,0.127-0.858
		c0.75-9.064,4.809-17.471,11.479-23.727c6.856-6.43,15.824-9.971,25.256-9.971c19.403,0,35.612,14.904,37.062,33.997
		c0.033,0.181,0.053,0.368,0.053,0.559c0,0,0,0.155,0,0.242c0.035,0.648,0.053,1.309,0.053,1.963c0,0.192-0.018,0.381-0.053,0.564
		c0,1.104,0,50.389,0,50.389c0,1.658-1.342,3-3,3H84.016"/>
	<path fill="#70B7E0" d="M82.016,108.818c-1.658,0-3-1.342-3-3V54.866c0-6.121-4.998-11.102-11.143-11.102
		c-5.301,0-9.829,3.72-10.863,8.882c0,0.428,0,8.32,0,12.124c3.628,0,10.468,0,10.615,0c0.221-0.027,0.441-0.043,0.664-0.043
		c2.814,0,5.104,2.291,5.104,5.104c0,1.464-0.631,2.851-1.713,3.813c-0.425,0.567-13.41,17.942-13.41,17.942
		s-10.359,13.858-10.589,14.169c-0.917,1.551-2.574,2.501-4.391,2.501c-1.788,0-3.421-0.922-4.347-2.429
		c-0.114-0.154-23.286-31.523-23.75-32.152c-1.104-0.963-1.746-2.359-1.746-3.846c0-2.813,2.29-5.104,5.104-5.104
		c0.218,0,0.439,0.015,0.658,0.043c0.36,0,8.032,0,11.801,0c0-3.535,0-9.905,0-9.905v-0.218V52.66c0-0.295,0.045-0.584,0.127-0.858
		c0.75-9.064,4.809-17.471,11.479-23.727c6.856-6.43,15.825-9.971,25.256-9.971c19.403,0,35.612,14.904,37.062,33.997
		c0.033,0.181,0.053,0.368,0.053,0.559c0,0,0,0.155,0,0.242c0.035,0.648,0.053,1.309,0.053,1.963c0,0.192-0.018,0.381-0.053,0.564
		c0,1.104,0,50.389,0,50.389c0,1.658-1.342,3-3,3H82.016"/>
	<g>
		
			<linearGradient id="SVGID_2_" gradientUnits="userSpaceOnUse" x1="296.8438" y1="-345.7202" x2="296.8437" y2="-261.0054" gradientTransform="matrix(1 0 0 -1 -237.5996 -239.9004)">
			<stop  offset="0" style="stop-color:#48A2FB"/>
			<stop  offset="0.1758" style="stop-color:#059CF4"/>
			<stop  offset="0.4969" style="stop-color:#0398EF"/>
			<stop  offset="0.782" style="stop-color:#0293E7"/>
			<stop  offset="1" style="stop-color:#0189D8"/>
		</linearGradient>
		<path fill="url(#SVGID_2_)" d="M45.039,104.279l-3.624-0.155l-24.516-33.19l2.061-3.164h48.761l2.272,3.119L45.039,104.279
			L45.039,104.279z M68.289,71.934c-1.161,0-2.104-0.941-2.104-2.104s0.941-2.104,2.104-2.104c1.163,0,2.104,0.941,2.104,2.104
			C70.395,70.991,69.452,71.934,68.289,71.934L68.289,71.934z M18.551,71.934c-1.163,0-2.104-0.941-2.104-2.104
			s0.942-2.104,2.104-2.104c1.161,0,2.103,0.941,2.103,2.104C20.654,70.991,19.712,71.934,18.551,71.934L18.551,71.934z
			 M43.29,105.258c-1.161,0-2.103-0.941-2.103-2.104s0.942-2.104,2.103-2.104c1.163,0,2.104,0.941,2.104,2.104
			C45.394,104.314,44.453,105.258,43.29,105.258L43.29,105.258z M82.016,105.818V49.354l19.973,3.307v53.159H82.016V105.818z
			 M34.011,70.852v-18.19l20-9.921v28.112H34.011L34.011,70.852z M82.016,54.866c0-7.788-6.315-14.101-14.143-14.101
			c-7.825,0-14.081,6.313-14.081,14.101H34.011c0-18.646,15.126-33.761,33.862-33.761c18.736,0,34.167,15.114,34.167,33.761
			C101.986,54.866,82.016,54.866,82.016,54.866L82.016,54.866z"/>
	</g>
	
		<linearGradient id="SVGID_3_" gradientUnits="userSpaceOnUse" x1="305.1465" y1="-277.2495" x2="305.1465" y2="-261.1426" gradientTransform="matrix(1 0 0 -1 -237.5996 -239.9004)">
		<stop  offset="0" style="stop-color:#FFFFFF;stop-opacity:0"/>
		<stop  offset="1" style="stop-color:#FFFFFF;stop-opacity:0.8"/>
	</linearGradient>
	<path fill="url(#SVGID_3_)" d="M67.546,21.242c-11.537,0-21.522,5.685-21.522,9.095c0,2.724,2.936,5.168,7.463,6.835
		c3.821,1.406,3.235-6.009,14.085-6.009c10.85,0,10.97,7.279,14.893,5.676c4.035-1.651,6.604-3.954,6.604-6.502
		C89.068,26.927,79.084,21.242,67.546,21.242L67.546,21.242z"/>
</g>
<g id="green">
	<path fill="#7B7B7B" d="M83.645,90.693V9.668h16.535v81.025H83.645L83.645,90.693z M35.689,90.693V9.668h16.536v81.025H35.689
		L35.689,90.693z"/>
	
		<linearGradient id="SVGID_4_" gradientUnits="userSpaceOnUse" x1="305.5342" y1="-249.5684" x2="305.5342" y2="-328.5942" gradientTransform="matrix(1 0 0 -1 -237.5996 -239.9004)">
		<stop  offset="0" style="stop-color:#EAEAEA"/>
		<stop  offset="0.5" style="stop-color:#AAAAAA"/>
	</linearGradient>
	<path fill="url(#SVGID_4_)" d="M85.645,88.693c0-3.709,0-75.316,0-79.025c2.666,0,9.867,0,12.535,0c0,3.709,0,75.316,0,79.025
		C95.512,88.693,88.311,88.693,85.645,88.693 M37.689,88.693c0-3.709,0-75.316,0-79.025c2.667,0,9.868,0,12.535,0
		c0,3.709,0,75.316,0,79.025C47.558,88.693,40.356,88.693,37.689,88.693"/>
	<path fill-opacity="0.1" d="M84.016,110.818c-1.658,0-3-1.342-3-3V56.866c0-6.121-4.998-11.102-11.143-11.102
		c-5.301,0-9.828,3.72-10.863,8.882c0,0.428,0,8.32,0,12.124c3.628,0,10.468,0,10.615,0c0.221-0.027,0.441-0.043,0.664-0.043
		c2.814,0,5.104,2.291,5.104,5.104c0,1.464-0.631,2.851-1.713,3.813c-0.425,0.567-13.41,17.942-13.41,17.942
		s-10.359,13.858-10.589,14.169c-0.917,1.551-2.574,2.501-4.391,2.501c-1.788,0-3.421-0.922-4.347-2.429
		c-0.114-0.154-23.286-31.523-23.75-32.152c-1.104-0.963-1.746-2.359-1.746-3.846c0-2.813,2.29-5.104,5.104-5.104
		c0.218,0,0.439,0.015,0.658,0.043c0.36,0,8.032,0,11.801,0c0-3.535,0-9.905,0-9.905v-0.218V54.66c0-0.295,0.045-0.584,0.127-0.858
		c0.75-9.064,4.809-17.471,11.479-23.727c6.856-6.43,15.824-9.971,25.256-9.971c19.403,0,35.612,14.904,37.062,33.997
		c0.033,0.181,0.053,0.368,0.053,0.559c0,0,0,0.155,0,0.242c0.035,0.648,0.053,1.309,0.053,1.963c0,0.192-0.018,0.381-0.053,0.564
		c0,1.104,0,50.389,0,50.389c0,1.658-1.342,3-3,3H84.016"/>
	<path fill="#03FC30" d="M82.016,108.818c-1.658,0-3-1.342-3-3V54.866c0-6.121-4.998-11.102-11.143-11.102
		c-5.301,0-9.829,3.72-10.863,8.882c0,0.428,0,8.32,0,12.124c3.628,0,10.468,0,10.615,0c0.221-0.027,0.441-0.043,0.664-0.043
		c2.814,0,5.104,2.291,5.104,5.104c0,1.464-0.631,2.851-1.713,3.813c-0.425,0.567-13.41,17.942-13.41,17.942
		s-10.359,13.858-10.589,14.169c-0.917,1.551-2.574,2.501-4.391,2.501c-1.788,0-3.421-0.922-4.347-2.429
		c-0.114-0.154-23.286-31.523-23.75-32.152c-1.104-0.963-1.746-2.359-1.746-3.846c0-2.813,2.29-5.104,5.104-5.104
		c0.218,0,0.439,0.015,0.658,0.043c0.36,0,8.032,0,11.801,0c0-3.535,0-9.905,0-9.905v-0.218V52.66c0-0.295,0.045-0.584,0.127-0.858
		c0.75-9.064,4.809-17.471,11.479-23.727c6.856-6.43,15.825-9.971,25.256-9.971c19.403,0,35.612,14.904,37.062,33.997
		c0.033,0.181,0.053,0.368,0.053,0.559c0,0,0,0.155,0,0.242c0.035,0.648,0.053,1.309,0.053,1.963c0,0.192-0.018,0.381-0.053,0.564
		c0,1.104,0,50.389,0,50.389c0,1.658-1.342,3-3,3H82.016"/>
	<g>
		
			<linearGradient id="SVGID_5_" gradientUnits="userSpaceOnUse" x1="296.8438" y1="-345.7202" x2="296.8437" y2="-261.0054" gradientTransform="matrix(1 0 0 -1 -237.5996 -239.9004)">
			<stop  offset="0" style="stop-color:#00DF34"/>
			<stop  offset="0.1758" style="stop-color:#00CD26"/>
			<stop  offset="0.4969" style="stop-color:#00B211"/>
			<stop  offset="0.782" style="stop-color:#00A204"/>
			<stop  offset="1" style="stop-color:#009C00"/>
		</linearGradient>
		<path fill="url(#SVGID_5_)" d="M45.039,104.279l-3.624-0.155l-24.516-33.19l2.061-3.164h48.761l2.272,3.119L45.039,104.279
			L45.039,104.279z M68.289,71.934c-1.161,0-2.104-0.941-2.104-2.104s0.941-2.104,2.104-2.104c1.163,0,2.104,0.941,2.104,2.104
			C70.395,70.991,69.452,71.934,68.289,71.934L68.289,71.934z M18.551,71.934c-1.163,0-2.104-0.941-2.104-2.104
			s0.942-2.104,2.104-2.104c1.161,0,2.103,0.941,2.103,2.104C20.654,70.991,19.712,71.934,18.551,71.934L18.551,71.934z
			 M43.29,105.258c-1.161,0-2.103-0.941-2.103-2.104s0.942-2.104,2.103-2.104c1.163,0,2.104,0.941,2.104,2.104
			C45.394,104.314,44.453,105.258,43.29,105.258L43.29,105.258z M82.016,105.818V49.354l19.973,3.307v53.159H82.016V105.818z
			 M34.011,70.852v-18.19l20-9.921v28.112H34.011L34.011,70.852z M82.016,54.866c0-7.788-6.315-14.101-14.143-14.101
			c-7.825,0-14.081,6.313-14.081,14.101H34.011c0-18.646,15.126-33.761,33.862-33.761c18.736,0,34.167,15.114,34.167,33.761
			C101.986,54.866,82.016,54.866,82.016,54.866L82.016,54.866z"/>
	</g>
	
		<linearGradient id="SVGID_6_" gradientUnits="userSpaceOnUse" x1="305.1465" y1="-277.2495" x2="305.1465" y2="-261.1426" gradientTransform="matrix(1 0 0 -1 -237.5996 -239.9004)">
		<stop  offset="0" style="stop-color:#FFFFFF;stop-opacity:0"/>
		<stop  offset="1" style="stop-color:#FFFFFF;stop-opacity:0.8"/>
	</linearGradient>
	<path fill="url(#SVGID_6_)" d="M67.546,21.242c-11.537,0-21.522,5.685-21.522,9.095c0,2.724,2.936,5.168,7.463,6.835
		c3.821,1.406,3.235-6.009,14.085-6.009c10.85,0,10.97,7.279,14.893,5.676c4.035-1.651,6.604-3.954,6.604-6.502
		C89.068,26.927,79.084,21.242,67.546,21.242L67.546,21.242z"/>
</g>
<g id="kia">
	<path fill="#7B7B7B" d="M83.645,90.693V9.668h16.535v81.025H83.645L83.645,90.693z M35.689,90.693V9.668h16.536v81.025H35.689
		L35.689,90.693z"/>
	
		<linearGradient id="SVGID_7_" gradientUnits="userSpaceOnUse" x1="305.5342" y1="-249.5684" x2="305.5342" y2="-328.5942" gradientTransform="matrix(1 0 0 -1 -237.5996 -239.9004)">
		<stop  offset="0" style="stop-color:#EAEAEA"/>
		<stop  offset="0.5" style="stop-color:#AAAAAA"/>
	</linearGradient>
	<path fill="url(#SVGID_7_)" d="M85.645,88.693c0-3.709,0-75.316,0-79.025c2.666,0,9.867,0,12.535,0c0,3.709,0,75.316,0,79.025
		C95.512,88.693,88.311,88.693,85.645,88.693 M37.689,88.693c0-3.709,0-75.316,0-79.025c2.667,0,9.868,0,12.535,0
		c0,3.709,0,75.316,0,79.025C47.558,88.693,40.356,88.693,37.689,88.693"/>
	<path fill-opacity="0.1" d="M84.016,110.818c-1.658,0-3-1.342-3-3V56.866c0-6.121-4.998-11.102-11.143-11.102
		c-5.301,0-9.828,3.72-10.863,8.882c0,0.428,0,8.32,0,12.124c3.628,0,10.468,0,10.615,0c0.221-0.027,0.441-0.043,0.664-0.043
		c2.814,0,5.104,2.291,5.104,5.104c0,1.464-0.631,2.851-1.713,3.813c-0.425,0.567-13.41,17.942-13.41,17.942
		s-10.359,13.858-10.589,14.169c-0.917,1.551-2.574,2.501-4.391,2.501c-1.788,0-3.421-0.922-4.347-2.429
		c-0.114-0.154-23.286-31.523-23.75-32.152c-1.104-0.963-1.746-2.359-1.746-3.846c0-2.813,2.29-5.104,5.104-5.104
		c0.218,0,0.439,0.015,0.658,0.043c0.36,0,8.032,0,11.801,0c0-3.535,0-9.905,0-9.905v-0.218V54.66c0-0.295,0.045-0.584,0.127-0.858
		c0.75-9.064,4.809-17.471,11.479-23.727c6.856-6.43,15.824-9.971,25.256-9.971c19.403,0,35.612,14.904,37.062,33.997
		c0.033,0.181,0.053,0.368,0.053,0.559c0,0,0,0.155,0,0.242c0.035,0.648,0.053,1.309,0.053,1.963c0,0.192-0.018,0.381-0.053,0.564
		c0,1.104,0,50.389,0,50.389c0,1.658-1.342,3-3,3H84.016"/>
	<path fill="#000000" d="M82.016,108.818c-1.658,0-3-1.342-3-3V54.866c0-6.121-4.998-11.102-11.143-11.102
		c-5.301,0-9.829,3.72-10.863,8.882c0,0.428,0,8.32,0,12.124c3.628,0,10.468,0,10.615,0c0.221-0.027,0.441-0.043,0.664-0.043
		c2.814,0,5.104,2.291,5.104,5.104c0,1.464-0.631,2.851-1.713,3.813c-0.425,0.567-13.41,17.942-13.41,17.942
		s-10.359,13.858-10.589,14.169c-0.917,1.551-2.574,2.501-4.391,2.501c-1.788,0-3.421-0.922-4.347-2.429
		c-0.114-0.154-23.286-31.523-23.75-32.152c-1.104-0.963-1.746-2.359-1.746-3.846c0-2.813,2.29-5.104,5.104-5.104
		c0.218,0,0.439,0.015,0.658,0.043c0.36,0,8.032,0,11.801,0c0-3.535,0-9.905,0-9.905v-0.218V52.66c0-0.295,0.045-0.584,0.127-0.858
		c0.75-9.064,4.809-17.471,11.479-23.727c6.856-6.43,15.825-9.971,25.256-9.971c19.403,0,35.612,14.904,37.062,33.997
		c0.033,0.181,0.053,0.368,0.053,0.559c0,0,0,0.155,0,0.242c0.035,0.648,0.053,1.309,0.053,1.963c0,0.192-0.018,0.381-0.053,0.564
		c0,1.104,0,50.389,0,50.389c0,1.658-1.342,3-3,3H82.016"/>
	<g>
		
			<linearGradient id="SVGID_8_" gradientUnits="userSpaceOnUse" x1="296.8438" y1="-345.7202" x2="296.8437" y2="-261.0054" gradientTransform="matrix(1 0 0 -1 -237.5996 -239.9004)">
			<stop  offset="0" style="stop-color:#FFFFFF"/>
			<stop  offset="0.1758" style="stop-color:#E7E9EA"/>
			<stop  offset="0.4969" style="stop-color:#CDD2D5"/>
			<stop  offset="0.782" style="stop-color:#C5CACC"/>
			<stop  offset="1" style="stop-color:#BABDC0"/>
		</linearGradient>
		<path fill="url(#SVGID_8_)" d="M45.039,104.279l-3.624-0.155l-24.516-33.19l2.061-3.164h48.761l2.272,3.119L45.039,104.279
			L45.039,104.279z M68.289,71.934c-1.161,0-2.104-0.941-2.104-2.104s0.941-2.104,2.104-2.104c1.163,0,2.104,0.941,2.104,2.104
			C70.395,70.991,69.452,71.934,68.289,71.934L68.289,71.934z M18.551,71.934c-1.163,0-2.104-0.941-2.104-2.104
			s0.942-2.104,2.104-2.104c1.161,0,2.103,0.941,2.103,2.104C20.654,70.991,19.712,71.934,18.551,71.934L18.551,71.934z
			 M43.29,105.258c-1.161,0-2.103-0.941-2.103-2.104s0.942-2.104,2.103-2.104c1.163,0,2.104,0.941,2.104,2.104
			C45.394,104.314,44.453,105.258,43.29,105.258L43.29,105.258z M82.016,105.818V49.354l19.973,3.307v53.159H82.016V105.818z
			 M34.011,70.852v-18.19l20-9.921v28.112H34.011L34.011,70.852z M82.016,54.866c0-7.788-6.315-14.101-14.143-14.101
			c-7.825,0-14.081,6.313-14.081,14.101H34.011c0-18.646,15.126-33.761,33.862-33.761c18.736,0,34.167,15.114,34.167,33.761
			C101.986,54.866,82.016,54.866,82.016,54.866L82.016,54.866z"/>
	</g>
	
		<linearGradient id="SVGID_9_" gradientUnits="userSpaceOnUse" x1="305.1465" y1="-277.2495" x2="305.1465" y2="-261.1426" gradientTransform="matrix(1 0 0 -1 -237.5996 -239.9004)">
		<stop  offset="0" style="stop-color:#FFFFFF;stop-opacity:0"/>
		<stop  offset="1" style="stop-color:#FFFFFF;stop-opacity:0.8"/>
	</linearGradient>
	<path fill="url(#SVGID_9_)" d="M67.546,21.242c-11.537,0-21.522,5.685-21.522,9.095c0,2.724,2.936,5.168,7.463,6.835
		c3.821,1.406,3.235-6.009,14.085-6.009c10.85,0,10.97,7.279,14.893,5.676c4.035-1.651,6.604-3.954,6.604-6.502
		C89.068,26.927,79.084,21.242,67.546,21.242L67.546,21.242z"/>
</g>
<g id="orange">
	<path fill="#7B7B7B" d="M83.645,90.693V9.668h16.535v81.025H83.645L83.645,90.693z M35.689,90.693V9.668h16.536v81.025H35.689
		L35.689,90.693z"/>
	
		<linearGradient id="SVGID_10_" gradientUnits="userSpaceOnUse" x1="305.5342" y1="-249.5684" x2="305.5342" y2="-328.5942" gradientTransform="matrix(1 0 0 -1 -237.5996 -239.9004)">
		<stop  offset="0" style="stop-color:#EAEAEA"/>
		<stop  offset="0.5" style="stop-color:#AAAAAA"/>
	</linearGradient>
	<path fill="url(#SVGID_10_)" d="M85.645,88.693c0-3.709,0-75.316,0-79.025c2.666,0,9.867,0,12.535,0c0,3.709,0,75.316,0,79.025
		C95.512,88.693,88.311,88.693,85.645,88.693 M37.689,88.693c0-3.709,0-75.316,0-79.025c2.667,0,9.868,0,12.535,0
		c0,3.709,0,75.316,0,79.025C47.558,88.693,40.356,88.693,37.689,88.693"/>
	<path fill-opacity="0.1" d="M84.016,110.818c-1.658,0-3-1.342-3-3V56.866c0-6.121-4.998-11.102-11.143-11.102
		c-5.301,0-9.828,3.72-10.863,8.882c0,0.428,0,8.32,0,12.124c3.628,0,10.468,0,10.615,0c0.221-0.027,0.441-0.043,0.664-0.043
		c2.814,0,5.104,2.291,5.104,5.104c0,1.464-0.631,2.851-1.713,3.813c-0.425,0.567-13.41,17.942-13.41,17.942
		s-10.359,13.858-10.589,14.169c-0.917,1.551-2.574,2.501-4.391,2.501c-1.788,0-3.421-0.922-4.347-2.429
		c-0.114-0.154-23.286-31.523-23.75-32.152c-1.104-0.963-1.746-2.359-1.746-3.846c0-2.813,2.29-5.104,5.104-5.104
		c0.218,0,0.439,0.015,0.658,0.043c0.36,0,8.032,0,11.801,0c0-3.535,0-9.905,0-9.905v-0.218V54.66c0-0.295,0.045-0.584,0.127-0.858
		c0.75-9.064,4.809-17.471,11.479-23.727c6.856-6.43,15.824-9.971,25.256-9.971c19.403,0,35.612,14.904,37.062,33.997
		c0.033,0.181,0.053,0.368,0.053,0.559c0,0,0,0.155,0,0.242c0.035,0.648,0.053,1.309,0.053,1.963c0,0.192-0.018,0.381-0.053,0.564
		c0,1.104,0,50.389,0,50.389c0,1.658-1.342,3-3,3H84.016"/>
	<path fill="#FFE035" d="M82.016,108.818c-1.658,0-3-1.342-3-3V54.866c0-6.121-4.998-11.102-11.143-11.102
		c-5.301,0-9.829,3.72-10.863,8.882c0,0.428,0,8.32,0,12.124c3.628,0,10.468,0,10.615,0c0.221-0.027,0.441-0.043,0.664-0.043
		c2.814,0,5.104,2.291,5.104,5.104c0,1.464-0.631,2.851-1.713,3.813c-0.425,0.567-13.41,17.942-13.41,17.942
		s-10.359,13.858-10.589,14.169c-0.917,1.551-2.574,2.501-4.391,2.501c-1.788,0-3.421-0.922-4.347-2.429
		c-0.114-0.154-23.286-31.523-23.75-32.152c-1.104-0.963-1.746-2.359-1.746-3.846c0-2.813,2.29-5.104,5.104-5.104
		c0.218,0,0.439,0.015,0.658,0.043c0.36,0,8.032,0,11.801,0c0-3.535,0-9.905,0-9.905v-0.218V52.66c0-0.295,0.045-0.584,0.127-0.858
		c0.75-9.064,4.809-17.471,11.479-23.727c6.856-6.43,15.825-9.971,25.256-9.971c19.403,0,35.612,14.904,37.062,33.997
		c0.033,0.181,0.053,0.368,0.053,0.559c0,0,0,0.155,0,0.242c0.035,0.648,0.053,1.309,0.053,1.963c0,0.192-0.018,0.381-0.053,0.564
		c0,1.104,0,50.389,0,50.389c0,1.658-1.342,3-3,3H82.016"/>
	<g>
		
			<linearGradient id="SVGID_11_" gradientUnits="userSpaceOnUse" x1="296.8438" y1="-345.7202" x2="296.8437" y2="-261.0054" gradientTransform="matrix(1 0 0 -1 -237.5996 -239.9004)">
			<stop  offset="0" style="stop-color:#FEDF34"/>
			<stop  offset="0.1758" style="stop-color:#FECD26"/>
			<stop  offset="0.4969" style="stop-color:#FFB211"/>
			<stop  offset="0.782" style="stop-color:#FFA204"/>
			<stop  offset="1" style="stop-color:#FF9C00"/>
		</linearGradient>
		<path fill="url(#SVGID_11_)" d="M45.039,104.279l-3.624-0.155l-24.516-33.19l2.061-3.164h48.761l2.272,3.119L45.039,104.279
			L45.039,104.279z M68.289,71.934c-1.161,0-2.104-0.941-2.104-2.104s0.941-2.104,2.104-2.104c1.163,0,2.104,0.941,2.104,2.104
			C70.395,70.991,69.452,71.934,68.289,71.934L68.289,71.934z M18.551,71.934c-1.163,0-2.104-0.941-2.104-2.104
			s0.942-2.104,2.104-2.104c1.161,0,2.103,0.941,2.103,2.104C20.654,70.991,19.712,71.934,18.551,71.934L18.551,71.934z
			 M43.29,105.258c-1.161,0-2.103-0.941-2.103-2.104s0.942-2.104,2.103-2.104c1.163,0,2.104,0.941,2.104,2.104
			C45.394,104.314,44.453,105.258,43.29,105.258L43.29,105.258z M82.016,105.818V49.354l19.973,3.307v53.159H82.016V105.818z
			 M34.011,70.852v-18.19l20-9.921v28.112H34.011L34.011,70.852z M82.016,54.866c0-7.788-6.315-14.101-14.143-14.101
			c-7.825,0-14.081,6.313-14.081,14.101H34.011c0-18.646,15.126-33.761,33.862-33.761c18.736,0,34.167,15.114,34.167,33.761
			C101.986,54.866,82.016,54.866,82.016,54.866L82.016,54.866z"/>
	</g>
	
		<linearGradient id="SVGID_12_" gradientUnits="userSpaceOnUse" x1="305.1465" y1="-277.2495" x2="305.1465" y2="-261.1426" gradientTransform="matrix(1 0 0 -1 -237.5996 -239.9004)">
		<stop  offset="0" style="stop-color:#FFFFFF;stop-opacity:0"/>
		<stop  offset="1" style="stop-color:#FFFFFF;stop-opacity:0.8"/>
	</linearGradient>
	<path fill="url(#SVGID_12_)" d="M67.546,21.242c-11.537,0-21.522,5.685-21.522,9.095c0,2.724,2.936,5.168,7.463,6.835
		c3.821,1.406,3.235-6.009,14.085-6.009c10.85,0,10.97,7.279,14.893,5.676c4.035-1.651,6.604-3.954,6.604-6.502
		C89.068,26.927,79.084,21.242,67.546,21.242L67.546,21.242z"/>
</g>
<g id="red">
	<path fill="#7B7B7B" d="M83.645,90.693V9.668h16.535v81.025H83.645L83.645,90.693z M35.689,90.693V9.668h16.536v81.025H35.689
		L35.689,90.693z"/>
	
		<linearGradient id="SVGID_13_" gradientUnits="userSpaceOnUse" x1="305.5342" y1="-249.5684" x2="305.5342" y2="-328.5942" gradientTransform="matrix(1 0 0 -1 -237.5996 -239.9004)">
		<stop  offset="0" style="stop-color:#EAEAEA"/>
		<stop  offset="0.5" style="stop-color:#AAAAAA"/>
	</linearGradient>
	<path fill="url(#SVGID_13_)" d="M85.645,88.693c0-3.709,0-75.316,0-79.025c2.666,0,9.867,0,12.535,0c0,3.709,0,75.316,0,79.025
		C95.512,88.693,88.311,88.693,85.645,88.693 M37.689,88.693c0-3.709,0-75.316,0-79.025c2.667,0,9.868,0,12.535,0
		c0,3.709,0,75.316,0,79.025C47.558,88.693,40.356,88.693,37.689,88.693"/>
	<path fill-opacity="0.1" d="M84.016,110.818c-1.658,0-3-1.342-3-3V56.866c0-6.121-4.998-11.102-11.143-11.102
		c-5.301,0-9.828,3.72-10.863,8.882c0,0.428,0,8.32,0,12.124c3.628,0,10.468,0,10.615,0c0.221-0.027,0.441-0.043,0.664-0.043
		c2.814,0,5.104,2.291,5.104,5.104c0,1.464-0.631,2.851-1.713,3.813c-0.425,0.567-13.41,17.942-13.41,17.942
		s-10.359,13.858-10.589,14.169c-0.917,1.551-2.574,2.501-4.391,2.501c-1.788,0-3.421-0.922-4.347-2.429
		c-0.114-0.154-23.286-31.523-23.75-32.152c-1.104-0.963-1.746-2.359-1.746-3.846c0-2.813,2.29-5.104,5.104-5.104
		c0.218,0,0.439,0.015,0.658,0.043c0.36,0,8.032,0,11.801,0c0-3.535,0-9.905,0-9.905v-0.218V54.66c0-0.295,0.045-0.584,0.127-0.858
		c0.75-9.064,4.809-17.471,11.479-23.727c6.856-6.43,15.824-9.971,25.256-9.971c19.403,0,35.612,14.904,37.062,33.997
		c0.033,0.181,0.053,0.368,0.053,0.559c0,0,0,0.155,0,0.242c0.035,0.648,0.053,1.309,0.053,1.963c0,0.192-0.018,0.381-0.053,0.564
		c0,1.104,0,50.389,0,50.389c0,1.658-1.342,3-3,3H84.016"/>
	<path fill="#FC7E7E" d="M82.016,108.818c-1.658,0-3-1.342-3-3V54.866c0-6.121-4.998-11.102-11.143-11.102
		c-5.301,0-9.829,3.72-10.863,8.882c0,0.428,0,8.32,0,12.124c3.628,0,10.468,0,10.615,0c0.221-0.027,0.441-0.043,0.664-0.043
		c2.814,0,5.104,2.291,5.104,5.104c0,1.464-0.631,2.851-1.713,3.813c-0.425,0.567-13.41,17.942-13.41,17.942
		s-10.359,13.858-10.589,14.169c-0.917,1.551-2.574,2.501-4.391,2.501c-1.788,0-3.421-0.922-4.347-2.429
		c-0.114-0.154-23.286-31.523-23.75-32.152c-1.104-0.963-1.746-2.359-1.746-3.846c0-2.813,2.29-5.104,5.104-5.104
		c0.218,0,0.439,0.015,0.658,0.043c0.36,0,8.032,0,11.801,0c0-3.535,0-9.905,0-9.905v-0.218V52.66c0-0.295,0.045-0.584,0.127-0.858
		c0.75-9.064,4.809-17.471,11.479-23.727c6.856-6.43,15.825-9.971,25.256-9.971c19.403,0,35.612,14.904,37.062,33.997
		c0.033,0.181,0.053,0.368,0.053,0.559c0,0,0,0.155,0,0.242c0.035,0.648,0.053,1.309,0.053,1.963c0,0.192-0.018,0.381-0.053,0.564
		c0,1.104,0,50.389,0,50.389c0,1.658-1.342,3-3,3H82.016"/>
	<g>
		
			<linearGradient id="SVGID_14_" gradientUnits="userSpaceOnUse" x1="296.8438" y1="-345.7202" x2="296.8437" y2="-261.0054" gradientTransform="matrix(1 0 0 -1 -237.5996 -239.9004)">
			<stop  offset="0" style="stop-color:#FF0000"/>
			<stop  offset="0.1758" style="stop-color:#F60303"/>
			<stop  offset="0.4969" style="stop-color:#EC0404"/>
			<stop  offset="0.782" style="stop-color:#E30101"/>
			<stop  offset="1" style="stop-color:#D60202"/>
		</linearGradient>
		<path fill="url(#SVGID_14_)" d="M45.039,104.279l-3.624-0.155l-24.516-33.19l2.061-3.164h48.761l2.272,3.119L45.039,104.279
			L45.039,104.279z M68.289,71.934c-1.161,0-2.104-0.941-2.104-2.104s0.941-2.104,2.104-2.104c1.163,0,2.104,0.941,2.104,2.104
			C70.395,70.991,69.452,71.934,68.289,71.934L68.289,71.934z M18.551,71.934c-1.163,0-2.104-0.941-2.104-2.104
			s0.942-2.104,2.104-2.104c1.161,0,2.103,0.941,2.103,2.104C20.654,70.991,19.712,71.934,18.551,71.934L18.551,71.934z
			 M43.29,105.258c-1.161,0-2.103-0.941-2.103-2.104s0.942-2.104,2.103-2.104c1.163,0,2.104,0.941,2.104,2.104
			C45.394,104.314,44.453,105.258,43.29,105.258L43.29,105.258z M82.016,105.818V49.354l19.973,3.307v53.159H82.016V105.818z
			 M34.011,70.852v-18.19l20-9.921v28.112H34.011L34.011,70.852z M82.016,54.866c0-7.788-6.315-14.101-14.143-14.101
			c-7.825,0-14.081,6.313-14.081,14.101H34.011c0-18.646,15.126-33.761,33.862-33.761c18.736,0,34.167,15.114,34.167,33.761
			C101.986,54.866,82.016,54.866,82.016,54.866L82.016,54.866z"/>
	</g>
	
		<linearGradient id="SVGID_15_" gradientUnits="userSpaceOnUse" x1="305.1465" y1="-277.2495" x2="305.1465" y2="-261.1426" gradientTransform="matrix(1 0 0 -1 -237.5996 -239.9004)">
		<stop  offset="0" style="stop-color:#FFFFFF;stop-opacity:0"/>
		<stop  offset="1" style="stop-color:#FFFFFF;stop-opacity:0.8"/>
	</linearGradient>
	<path fill="url(#SVGID_15_)" d="M67.546,21.242c-11.537,0-21.522,5.685-21.522,9.095c0,2.724,2.936,5.168,7.463,6.835
		c3.821,1.406,3.235-6.009,14.085-6.009c10.85,0,10.97,7.279,14.893,5.676c4.035-1.651,6.604-3.954,6.604-6.502
		C89.068,26.927,79.084,21.242,67.546,21.242L67.546,21.242z"/>
</g>
</svg>
