<?xml version="1.0" encoding="utf-8"?>
<!-- Generator: Adobe Illustrator 16.0.2, SVG Export Plug-In . SVG Version: 6.00 Build 0)  -->
<!DOCTYPE svg PUBLIC "-//W3C//DTD SVG 1.1//EN" "http://www.w3.org/Graphics/SVG/1.1/DTD/svg11.dtd">
<svg version="1.1" id="Layer_1" xmlns="http://www.w3.org/2000/svg" xmlns:xlink="http://www.w3.org/1999/xlink" x="0px" y="0px"
	 width="120px" height="120px" viewBox="0 0 120 120" enable-background="new 0 0 120 120" xml:space="preserve">
<g id="black_white">
	<g>
		<path fill="#FFFFFF" d="M93.596,7.472H26.403c-10.439,0-18.932,8.494-18.932,18.933v67.193c0,10.438,8.493,18.932,18.932,18.932
			h67.193c10.438,0,18.932-8.493,18.932-18.932V26.405C112.527,15.966,104.034,7.472,93.596,7.472z"/>
		
			<linearGradient id="SVGID_1_" gradientUnits="userSpaceOnUse" x1="297.5996" y1="-348.4272" x2="297.5996" y2="-251.3735" gradientTransform="matrix(1 0 0 -1 -237.5996 -239.9004)">
			<stop  offset="0" style="stop-color:#0369B0"/>
			<stop  offset="1" style="stop-color:#1E7FC3"/>
		</linearGradient>
		<path fill="url(#SVGID_1_)" d="M93.596,11.473H26.403c-8.246,0-14.931,6.686-14.931,14.932v67.193
			c0,8.246,6.685,14.93,14.931,14.93h67.193c8.247,0,14.932-6.684,14.932-14.93V26.405C108.527,18.159,101.843,11.473,93.596,11.473
			z M66,21.707c3.619,0,6.555,3.125,6.555,6.979S69.619,35.664,66,35.664c-3.62,0-6.555-3.124-6.555-6.978
			C59.444,24.832,62.379,21.707,66,21.707z M84.538,57.918c-0.585,1.43-2.177,2.097-3.556,1.49l-9.984-4.398
			c-0.364-0.16-0.673-0.397-0.926-0.679c-0.446-0.184-0.855-0.484-1.165-0.912l-2.513-3.459l-5.192,16.036l8.171,6.623
			c0.352,0.283,0.628,0.626,0.861,0.99c1.123,0.627,1.947,1.783,2.115,3.195l1.982,16.754c0.273,2.313-1.313,4.418-3.543,4.703
			c-2.229,0.283-4.26-1.361-4.532-3.675l-1.806-15.259c-0.028-0.021-0.061-0.035-0.088-0.059l-8.547-6.928
			c-0.016-0.013-0.027-0.029-0.043-0.042l-1.762,5.63c-0.131,0.508-0.356,0.961-0.632,1.368c0.031,0.955-0.23,1.925-0.842,2.737
			l-10.018,13.3c-1.383,1.836-3.939,2.162-5.709,0.728c-1.77-1.436-2.085-4.088-0.701-5.922l9.723-12.912
			c-0.048-0.504-0.024-1.023,0.11-1.541l2.882-9.209c0.066-0.254,0.159-0.492,0.264-0.723c-0.143-1.395-0.019-2.896,0.426-4.378
			l5.257-16.237l-5.905,2.333c-0.05,0.153-0.107,0.304-0.185,0.451l-5.244,9.944c-0.725,1.373-2.381,1.907-3.698,1.193
			c-1.317-0.714-1.801-2.404-1.076-3.778l5.244-9.944c0.036-0.068,0.084-0.125,0.125-0.189c0.175-1.028,0.847-1.943,1.811-2.294
			l12.622-4.988c0.459-0.167,0.92-0.175,1.346-0.068c0.998-0.228,2.186-0.156,3.636,0.309c2.57,1.154,3.761,2.555,4.17,4.185
			l5.469,7.528c0.01,0.004,0.021,0.005,0.031,0.01l9.984,4.396C84.479,54.836,85.123,56.486,84.538,57.918z"/>
		<path fill="#FFFFFF" d="M66,35.664c-3.62,0-6.555-3.124-6.555-6.978S62.38,21.707,66,21.707c3.619,0,6.555,3.125,6.555,6.979
			S69.618,35.664,66,35.664L66,35.664z M66.855,48.532l-5.664,17.489c-1.342,4.474-5.045,7.059-8.27,5.776
			c-3.225-1.282-4.751-5.948-3.408-10.421l5.663-17.49c1.343-4.473,3.302-7.367,8.27-5.777
			C68.861,40.54,68.199,44.059,66.855,48.532L66.855,48.532z M70.072,78.542c-1.383,1.837-3.939,2.163-5.711,0.728l-8.546-6.928
			c-1.77-1.436-2.085-4.087-0.701-5.923c1.383-1.836,3.939-2.162,5.711-0.728l8.547,6.929
			C71.143,74.053,71.456,76.705,70.072,78.542L70.072,78.542z M56.893,68.719l-2.882,9.211c-0.596,2.311-2.887,3.682-5.115,3.063
			c-2.229-0.619-3.55-2.996-2.954-5.307l2.882-9.209c0.596-2.312,2.887-3.684,5.115-3.063S57.489,66.409,56.893,68.719
			L56.893,68.719z M70.789,98.262c-2.229,0.283-4.26-1.361-4.532-3.675l-1.983-16.753c-0.272-2.313,1.313-4.419,3.541-4.702
			c2.23-0.284,4.261,1.361,4.533,3.675l1.983,16.752C74.605,95.871,73.02,97.977,70.789,98.262L70.789,98.262z M52.536,82.034
			l-10.018,13.3c-1.383,1.836-3.939,2.162-5.709,0.727c-1.77-1.435-2.085-4.086-0.701-5.922l10.018-13.302
			c1.383-1.836,3.939-2.163,5.709-0.728C53.605,77.544,53.92,80.195,52.536,82.034L52.536,82.034z M72.704,53.973
			c-1.196,0.935-2.897,0.687-3.798-0.553l-6.529-8.987c-0.9-1.242-0.662-3.005,0.534-3.94s2.897-0.687,3.798,0.553l6.529,8.987
			C74.139,51.273,73.9,53.036,72.704,53.973L72.704,53.973z M59.773,43.163l-12.622,4.988c-1.343,0.489-2.724-0.3-3.086-1.76
			c-0.361-1.462,0.434-3.044,1.777-3.534l12.622-4.988c1.343-0.49,2.724,0.3,3.085,1.76C61.911,41.091,61.116,42.674,59.773,43.163
			L59.773,43.163z M84.538,57.918c-0.585,1.43-2.177,2.097-3.556,1.49l-9.984-4.398c-1.378-0.606-2.021-2.258-1.438-3.688
			c0.586-1.43,2.178-2.097,3.556-1.49l9.985,4.396C84.479,54.836,85.123,56.486,84.538,57.918L84.538,57.918z M48.681,47.925
			l-5.244,9.944c-0.725,1.373-2.381,1.907-3.698,1.193c-1.318-0.714-1.801-2.404-1.076-3.778l5.244-9.944
			c0.725-1.373,2.379-1.908,3.699-1.194C48.924,44.86,49.406,46.552,48.681,47.925L48.681,47.925z"/>
	</g>
</g>
<g id="blue">
	<path fill-opacity="0.1" d="M43.191,103.309c-5.477-2.317-10.395-5.634-14.619-9.855c-4.223-4.225-7.54-9.143-9.855-14.619
		c-2.401-5.673-3.616-11.697-3.616-17.904c0-6.208,1.215-12.23,3.616-17.904c2.316-5.477,5.632-10.396,9.855-14.619
		c4.224-4.223,9.142-7.538,14.619-9.855c5.673-2.399,11.696-3.615,17.905-3.615c6.207,0,12.229,1.215,17.902,3.615
		c5.477,2.317,10.396,5.632,14.618,9.855c4.224,4.223,7.54,9.142,9.856,14.619c2.399,5.672,3.614,11.696,3.614,17.904
		c0,6.207-1.215,12.231-3.614,17.904c-2.316,5.479-5.634,10.396-9.856,14.619c-4.224,4.223-9.142,7.538-14.618,9.855
		c-5.673,2.398-11.695,3.613-17.902,3.613C54.887,106.922,48.864,105.707,43.191,103.309"/>
	<path fill="#FFFFFF" d="M41.191,101.309c-5.477-2.317-10.395-5.634-14.619-9.855c-4.223-4.225-7.54-9.143-9.855-14.619
		c-2.401-5.673-3.616-11.697-3.616-17.905c0-6.208,1.215-12.231,3.616-17.903c2.316-5.477,5.632-10.396,9.855-14.619
		c4.224-4.223,9.142-7.538,14.619-9.855c5.673-2.399,11.696-3.615,17.904-3.615c6.208,0,12.23,1.215,17.903,3.615
		c5.477,2.317,10.396,5.632,14.618,9.855c4.224,4.223,7.54,9.142,9.856,14.619c2.399,5.672,3.614,11.696,3.614,17.903
		c0,6.208-1.215,12.232-3.614,17.905c-2.316,5.479-5.634,10.396-9.856,14.619c-4.224,4.223-9.142,7.538-14.618,9.855
		c-5.673,2.398-11.695,3.613-17.903,3.613C52.887,104.922,46.864,103.707,41.191,101.309"/>
	
		<linearGradient id="SVGID_2_" gradientUnits="userSpaceOnUse" x1="296.6953" y1="-341.8237" x2="296.6952" y2="-255.8364" gradientTransform="matrix(1 0 0 -1 -237.5996 -239.9004)">
		<stop  offset="0.16" style="stop-color:#3E8CE8"/>
		<stop  offset="0.1933" style="stop-color:#3984E6"/>
		<stop  offset="0.3612" style="stop-color:#205EDD"/>
		<stop  offset="0.517" style="stop-color:#0E43D6"/>
		<stop  offset="0.6547" style="stop-color:#0433D2"/>
		<stop  offset="0.76" style="stop-color:#002DD1"/>
	</linearGradient>
	<path fill="url(#SVGID_2_)" d="M59.095,15.936c23.744,0,42.994,19.249,42.994,42.993c0,23.746-19.25,42.995-42.994,42.995
		c-23.744,0-42.995-19.25-42.995-42.996C16.1,35.184,35.351,15.936,59.095,15.936L59.095,15.936z"/>
	
		<linearGradient id="SVGID_3_" gradientUnits="userSpaceOnUse" x1="296.6953" y1="-283.9473" x2="296.6953" y2="-257.4883" gradientTransform="matrix(1 0 0 -1 -237.5996 -239.9004)">
		<stop  offset="0" style="stop-color:#FFFFFF;stop-opacity:0"/>
		<stop  offset="1" style="stop-color:#FFFFFF;stop-opacity:0.8"/>
	</linearGradient>
	<path fill="url(#SVGID_3_)" d="M59.095,17.588c15.068,0,28.111,8.269,28.111,13.23c0,7.306-13.043,13.229-28.111,13.229
		c-15.069,0-28.112-5.922-28.112-13.229C30.983,25.857,44.026,17.588,59.095,17.588L59.095,17.588z"/>
	<path fill-opacity="0.1" d="M68.667,63.092L67.93,62.6l-0.861-6.278l-5.533,6.524l-0.491,1.23l2.336,2.34l8.854,6.275l3.32,14.154
		l-7.256,1.477L66.207,75.77l-10.699-5.785L56,80.693L39.52,83.77l-1.23-5.539l11.683-3.322l-0.984-6.521l-0.492-6.646l1.722-3.446
		l3.689-4.801l3.075-4.431l-0.247-0.861l-5.165,0.738l-6.887,7.753l-3.689-2.707l8.609-11.57l12.914-0.492
		c0,0,0.736,0.37,0.736,1.108c0,0.739,2.338,2.708,3.691,3.323c1.353,0.615,3.197,1.108,3.197,1.108l1.229,2.461l1.23,6.769
		l9.963-1.969l0.859,5.417L68.667,63.092L68.667,63.092z M70.295,46.466c-3.734,0-6.766-3.029-6.766-6.765
		c0-3.736,3.029-6.765,6.766-6.765s6.766,3.029,6.766,6.765C77.061,43.437,74.029,46.466,70.295,46.466L70.295,46.466z"/>
	<path fill="#FFFFFF" d="M66.667,61.092L65.93,60.6l-0.861-6.278l-5.533,6.524l-0.491,1.23l2.336,2.34l8.854,6.275l3.32,14.154
		l-7.256,1.477L64.207,73.77l-10.699-5.785L54,78.693L37.52,81.77l-1.23-5.539l11.683-3.322l-0.984-6.521l-0.492-6.646l1.722-3.446
		l3.689-4.801l3.075-4.431l-0.247-0.861l-5.165,0.738l-6.887,7.753l-3.689-2.707l8.609-11.57l12.914-0.492
		c0,0,0.736,0.37,0.736,1.108c0,0.739,2.338,2.708,3.691,3.323c1.353,0.615,3.197,1.108,3.197,1.108l1.229,2.461l1.23,6.769
		l9.963-1.969l0.859,5.417L66.667,61.092L66.667,61.092z M68.295,44.466c-3.734,0-6.766-3.029-6.766-6.765
		c0-3.736,3.029-6.765,6.766-6.765s6.766,3.029,6.766,6.765C75.061,41.437,72.029,44.466,68.295,44.466L68.295,44.466z"/>
</g>
<g id="green">
	<path fill-opacity="0.1" d="M43.191,103.309c-5.477-2.317-10.395-5.634-14.619-9.855c-4.223-4.225-7.54-9.143-9.855-14.619
		c-2.401-5.673-3.616-11.697-3.616-17.904c0-6.208,1.215-12.23,3.616-17.904c2.316-5.477,5.632-10.396,9.855-14.619
		c4.224-4.223,9.142-7.538,14.619-9.855c5.673-2.399,11.696-3.615,17.905-3.615c6.207,0,12.229,1.215,17.902,3.615
		c5.477,2.317,10.396,5.632,14.618,9.855c4.224,4.223,7.54,9.142,9.856,14.619c2.399,5.672,3.614,11.696,3.614,17.904
		c0,6.207-1.215,12.231-3.614,17.904c-2.316,5.479-5.634,10.396-9.856,14.619c-4.224,4.223-9.142,7.538-14.618,9.855
		c-5.673,2.398-11.695,3.613-17.902,3.613C54.887,106.922,48.864,105.707,43.191,103.309"/>
	<path fill="#FFFFFF" d="M41.191,101.309c-5.477-2.317-10.395-5.634-14.619-9.855c-4.223-4.225-7.54-9.143-9.855-14.619
		c-2.401-5.673-3.616-11.697-3.616-17.905c0-6.208,1.215-12.231,3.616-17.903c2.316-5.477,5.632-10.396,9.855-14.619
		c4.224-4.223,9.142-7.538,14.619-9.855c5.673-2.399,11.696-3.615,17.904-3.615c6.208,0,12.23,1.215,17.903,3.615
		c5.477,2.317,10.396,5.632,14.618,9.855c4.224,4.223,7.54,9.142,9.856,14.619c2.399,5.672,3.614,11.696,3.614,17.903
		c0,6.208-1.215,12.232-3.614,17.905c-2.316,5.479-5.634,10.396-9.856,14.619c-4.224,4.223-9.142,7.538-14.618,9.855
		c-5.673,2.398-11.695,3.613-17.903,3.613C52.887,104.922,46.864,103.707,41.191,101.309"/>
	
		<linearGradient id="SVGID_4_" gradientUnits="userSpaceOnUse" x1="296.6953" y1="-341.8237" x2="296.6952" y2="-255.8364" gradientTransform="matrix(1 0 0 -1 -237.5996 -239.9004)">
		<stop  offset="0.16" style="stop-color:#3E8CE8"/>
		<stop  offset="0.1933" style="stop-color:#3984E6"/>
		<stop  offset="0.3612" style="stop-color:#205EDD"/>
		<stop  offset="0.517" style="stop-color:#0E43D6"/>
		<stop  offset="0.6547" style="stop-color:#0433D2"/>
		<stop  offset="0.76" style="stop-color:#002DD1"/>
	</linearGradient>
	<path fill="url(#SVGID_4_)" d="M59.095,15.936c23.744,0,42.994,19.249,42.994,42.993c0,23.746-19.25,42.995-42.994,42.995
		c-23.744,0-42.995-19.25-42.995-42.996C16.1,35.184,35.351,15.936,59.095,15.936L59.095,15.936z"/>
	
		<linearGradient id="SVGID_5_" gradientUnits="userSpaceOnUse" x1="296.6953" y1="-283.9473" x2="296.6953" y2="-257.4883" gradientTransform="matrix(1 0 0 -1 -237.5996 -239.9004)">
		<stop  offset="0" style="stop-color:#FFFFFF;stop-opacity:0"/>
		<stop  offset="1" style="stop-color:#FFFFFF;stop-opacity:0.8"/>
	</linearGradient>
	<path fill="url(#SVGID_5_)" d="M59.095,17.588c15.068,0,28.111,8.269,28.111,13.23c0,7.306-13.043,13.229-28.111,13.229
		c-15.069,0-28.112-5.922-28.112-13.229C30.983,25.857,44.026,17.588,59.095,17.588L59.095,17.588z"/>
	<path fill-opacity="0.1" d="M68.667,63.092L67.93,62.6l-0.861-6.278l-5.533,6.524l-0.491,1.23l2.336,2.34l8.854,6.275l3.32,14.154
		l-7.256,1.477L66.207,75.77l-10.699-5.785L56,80.693L39.52,83.77l-1.23-5.539l11.683-3.322l-0.984-6.521l-0.492-6.646l1.722-3.446
		l3.689-4.801l3.075-4.431l-0.247-0.861l-5.165,0.738l-6.887,7.753l-3.689-2.707l8.609-11.57l12.914-0.492
		c0,0,0.736,0.37,0.736,1.108c0,0.739,2.338,2.708,3.691,3.323c1.353,0.615,3.197,1.108,3.197,1.108l1.229,2.461l1.23,6.769
		l9.963-1.969l0.859,5.417L68.667,63.092L68.667,63.092z M70.295,46.466c-3.734,0-6.766-3.029-6.766-6.765
		c0-3.736,3.029-6.765,6.766-6.765s6.766,3.029,6.766,6.765C77.061,43.437,74.029,46.466,70.295,46.466L70.295,46.466z"/>
	<path fill="#FFFFFF" d="M66.667,61.092L65.93,60.6l-0.861-6.278l-5.533,6.524l-0.491,1.23l2.336,2.34l8.854,6.275l3.32,14.154
		l-7.256,1.477L64.207,73.77l-10.699-5.785L54,78.693L37.52,81.77l-1.23-5.539l11.683-3.322l-0.984-6.521l-0.492-6.646l1.722-3.446
		l3.689-4.801l3.075-4.431l-0.247-0.861l-5.165,0.738l-6.887,7.753l-3.689-2.707l8.609-11.57l12.914-0.492
		c0,0,0.736,0.37,0.736,1.108c0,0.739,2.338,2.708,3.691,3.323c1.353,0.615,3.197,1.108,3.197,1.108l1.229,2.461l1.23,6.769
		l9.963-1.969l0.859,5.417L66.667,61.092L66.667,61.092z M68.295,44.466c-3.734,0-6.766-3.029-6.766-6.765
		c0-3.736,3.029-6.765,6.766-6.765s6.766,3.029,6.766,6.765C75.061,41.437,72.029,44.466,68.295,44.466L68.295,44.466z"/>
</g>
<g id="kia">
	<path fill-opacity="0.1" d="M43.191,103.309c-5.477-2.317-10.395-5.634-14.619-9.855c-4.223-4.225-7.54-9.143-9.855-14.619
		c-2.401-5.673-3.616-11.697-3.616-17.904c0-6.208,1.215-12.23,3.616-17.904c2.316-5.477,5.632-10.396,9.855-14.619
		c4.224-4.223,9.142-7.538,14.619-9.855c5.673-2.399,11.696-3.615,17.905-3.615c6.207,0,12.229,1.215,17.902,3.615
		c5.477,2.317,10.396,5.632,14.618,9.855c4.224,4.223,7.54,9.142,9.856,14.619c2.399,5.672,3.614,11.696,3.614,17.904
		c0,6.207-1.215,12.231-3.614,17.904c-2.316,5.479-5.634,10.396-9.856,14.619c-4.224,4.223-9.142,7.538-14.618,9.855
		c-5.673,2.398-11.695,3.613-17.902,3.613C54.887,106.922,48.864,105.707,43.191,103.309"/>
	<path fill="#FFFFFF" d="M41.191,101.309c-5.477-2.317-10.395-5.634-14.619-9.855c-4.223-4.225-7.54-9.143-9.855-14.619
		c-2.401-5.673-3.616-11.697-3.616-17.905c0-6.208,1.215-12.231,3.616-17.903c2.316-5.477,5.632-10.396,9.855-14.619
		c4.224-4.223,9.142-7.538,14.619-9.855c5.673-2.399,11.696-3.615,17.904-3.615c6.208,0,12.23,1.215,17.903,3.615
		c5.477,2.317,10.396,5.632,14.618,9.855c4.224,4.223,7.54,9.142,9.856,14.619c2.399,5.672,3.614,11.696,3.614,17.903
		c0,6.208-1.215,12.232-3.614,17.905c-2.316,5.479-5.634,10.396-9.856,14.619c-4.224,4.223-9.142,7.538-14.618,9.855
		c-5.673,2.398-11.695,3.613-17.903,3.613C52.887,104.922,46.864,103.707,41.191,101.309"/>
	
		<linearGradient id="SVGID_6_" gradientUnits="userSpaceOnUse" x1="296.6953" y1="-341.8237" x2="296.6952" y2="-255.8364" gradientTransform="matrix(1 0 0 -1 -237.5996 -239.9004)">
		<stop  offset="0.16" style="stop-color:#3E8CE8"/>
		<stop  offset="0.1933" style="stop-color:#3984E6"/>
		<stop  offset="0.3612" style="stop-color:#205EDD"/>
		<stop  offset="0.517" style="stop-color:#0E43D6"/>
		<stop  offset="0.6547" style="stop-color:#0433D2"/>
		<stop  offset="0.76" style="stop-color:#002DD1"/>
	</linearGradient>
	<path fill="url(#SVGID_6_)" d="M59.095,15.936c23.744,0,42.994,19.249,42.994,42.993c0,23.746-19.25,42.995-42.994,42.995
		c-23.744,0-42.995-19.25-42.995-42.996C16.1,35.184,35.351,15.936,59.095,15.936L59.095,15.936z"/>
	
		<linearGradient id="SVGID_7_" gradientUnits="userSpaceOnUse" x1="296.6953" y1="-283.9473" x2="296.6953" y2="-257.4883" gradientTransform="matrix(1 0 0 -1 -237.5996 -239.9004)">
		<stop  offset="0" style="stop-color:#FFFFFF;stop-opacity:0"/>
		<stop  offset="1" style="stop-color:#FFFFFF;stop-opacity:0.8"/>
	</linearGradient>
	<path fill="url(#SVGID_7_)" d="M59.095,17.588c15.068,0,28.111,8.269,28.111,13.23c0,7.306-13.043,13.229-28.111,13.229
		c-15.069,0-28.112-5.922-28.112-13.229C30.983,25.857,44.026,17.588,59.095,17.588L59.095,17.588z"/>
	<path fill-opacity="0.1" d="M68.667,63.092L67.93,62.6l-0.861-6.278l-5.533,6.524l-0.491,1.23l2.336,2.34l8.854,6.275l3.32,14.154
		l-7.256,1.477L66.207,75.77l-10.699-5.785L56,80.693L39.52,83.77l-1.23-5.539l11.683-3.322l-0.984-6.521l-0.492-6.646l1.722-3.446
		l3.689-4.801l3.075-4.431l-0.247-0.861l-5.165,0.738l-6.887,7.753l-3.689-2.707l8.609-11.57l12.914-0.492
		c0,0,0.736,0.37,0.736,1.108c0,0.739,2.338,2.708,3.691,3.323c1.353,0.615,3.197,1.108,3.197,1.108l1.229,2.461l1.23,6.769
		l9.963-1.969l0.859,5.417L68.667,63.092L68.667,63.092z M70.295,46.466c-3.734,0-6.766-3.029-6.766-6.765
		c0-3.736,3.029-6.765,6.766-6.765s6.766,3.029,6.766,6.765C77.061,43.437,74.029,46.466,70.295,46.466L70.295,46.466z"/>
	<path fill="#FFFFFF" d="M66.667,61.092L65.93,60.6l-0.861-6.278l-5.533,6.524l-0.491,1.23l2.336,2.34l8.854,6.275l3.32,14.154
		l-7.256,1.477L64.207,73.77l-10.699-5.785L54,78.693L37.52,81.77l-1.23-5.539l11.683-3.322l-0.984-6.521l-0.492-6.646l1.722-3.446
		l3.689-4.801l3.075-4.431l-0.247-0.861l-5.165,0.738l-6.887,7.753l-3.689-2.707l8.609-11.57l12.914-0.492
		c0,0,0.736,0.37,0.736,1.108c0,0.739,2.338,2.708,3.691,3.323c1.353,0.615,3.197,1.108,3.197,1.108l1.229,2.461l1.23,6.769
		l9.963-1.969l0.859,5.417L66.667,61.092L66.667,61.092z M68.295,44.466c-3.734,0-6.766-3.029-6.766-6.765
		c0-3.736,3.029-6.765,6.766-6.765s6.766,3.029,6.766,6.765C75.061,41.437,72.029,44.466,68.295,44.466L68.295,44.466z"/>
</g>
<g id="orange">
	<path fill-opacity="0.1" d="M43.191,103.309c-5.477-2.317-10.395-5.634-14.619-9.855c-4.223-4.225-7.54-9.143-9.855-14.619
		c-2.401-5.673-3.616-11.697-3.616-17.904c0-6.208,1.215-12.23,3.616-17.904c2.316-5.477,5.632-10.396,9.855-14.619
		c4.224-4.223,9.142-7.538,14.619-9.855c5.673-2.399,11.696-3.615,17.905-3.615c6.207,0,12.229,1.215,17.902,3.615
		c5.477,2.317,10.396,5.632,14.618,9.855c4.224,4.223,7.54,9.142,9.856,14.619c2.399,5.672,3.614,11.696,3.614,17.904
		c0,6.207-1.215,12.231-3.614,17.904c-2.316,5.479-5.634,10.396-9.856,14.619c-4.224,4.223-9.142,7.538-14.618,9.855
		c-5.673,2.398-11.695,3.613-17.902,3.613C54.887,106.922,48.864,105.707,43.191,103.309"/>
	<path fill="#FFFFFF" d="M41.191,101.309c-5.477-2.317-10.395-5.634-14.619-9.855c-4.223-4.225-7.54-9.143-9.855-14.619
		c-2.401-5.673-3.616-11.697-3.616-17.905c0-6.208,1.215-12.231,3.616-17.903c2.316-5.477,5.632-10.396,9.855-14.619
		c4.224-4.223,9.142-7.538,14.619-9.855c5.673-2.399,11.696-3.615,17.904-3.615c6.208,0,12.23,1.215,17.903,3.615
		c5.477,2.317,10.396,5.632,14.618,9.855c4.224,4.223,7.54,9.142,9.856,14.619c2.399,5.672,3.614,11.696,3.614,17.903
		c0,6.208-1.215,12.232-3.614,17.905c-2.316,5.479-5.634,10.396-9.856,14.619c-4.224,4.223-9.142,7.538-14.618,9.855
		c-5.673,2.398-11.695,3.613-17.903,3.613C52.887,104.922,46.864,103.707,41.191,101.309"/>
	
		<linearGradient id="SVGID_8_" gradientUnits="userSpaceOnUse" x1="296.6953" y1="-341.8237" x2="296.6952" y2="-255.8364" gradientTransform="matrix(1 0 0 -1 -237.5996 -239.9004)">
		<stop  offset="0.16" style="stop-color:#3E8CE8"/>
		<stop  offset="0.1933" style="stop-color:#3984E6"/>
		<stop  offset="0.3612" style="stop-color:#205EDD"/>
		<stop  offset="0.517" style="stop-color:#0E43D6"/>
		<stop  offset="0.6547" style="stop-color:#0433D2"/>
		<stop  offset="0.76" style="stop-color:#002DD1"/>
	</linearGradient>
	<path fill="url(#SVGID_8_)" d="M59.095,15.936c23.744,0,42.994,19.249,42.994,42.993c0,23.746-19.25,42.995-42.994,42.995
		c-23.744,0-42.995-19.25-42.995-42.996C16.1,35.184,35.351,15.936,59.095,15.936L59.095,15.936z"/>
	
		<linearGradient id="SVGID_9_" gradientUnits="userSpaceOnUse" x1="296.6953" y1="-283.9473" x2="296.6953" y2="-257.4883" gradientTransform="matrix(1 0 0 -1 -237.5996 -239.9004)">
		<stop  offset="0" style="stop-color:#FFFFFF;stop-opacity:0"/>
		<stop  offset="1" style="stop-color:#FFFFFF;stop-opacity:0.8"/>
	</linearGradient>
	<path fill="url(#SVGID_9_)" d="M59.095,17.588c15.068,0,28.111,8.269,28.111,13.23c0,7.306-13.043,13.229-28.111,13.229
		c-15.069,0-28.112-5.922-28.112-13.229C30.983,25.857,44.026,17.588,59.095,17.588L59.095,17.588z"/>
	<path fill-opacity="0.1" d="M68.667,63.092L67.93,62.6l-0.861-6.278l-5.533,6.524l-0.491,1.23l2.336,2.34l8.854,6.275l3.32,14.154
		l-7.256,1.477L66.207,75.77l-10.699-5.785L56,80.693L39.52,83.77l-1.23-5.539l11.683-3.322l-0.984-6.521l-0.492-6.646l1.722-3.446
		l3.689-4.801l3.075-4.431l-0.247-0.861l-5.165,0.738l-6.887,7.753l-3.689-2.707l8.609-11.57l12.914-0.492
		c0,0,0.736,0.37,0.736,1.108c0,0.739,2.338,2.708,3.691,3.323c1.353,0.615,3.197,1.108,3.197,1.108l1.229,2.461l1.23,6.769
		l9.963-1.969l0.859,5.417L68.667,63.092L68.667,63.092z M70.295,46.466c-3.734,0-6.766-3.029-6.766-6.765
		c0-3.736,3.029-6.765,6.766-6.765s6.766,3.029,6.766,6.765C77.061,43.437,74.029,46.466,70.295,46.466L70.295,46.466z"/>
	<path fill="#FFFFFF" d="M66.667,61.092L65.93,60.6l-0.861-6.278l-5.533,6.524l-0.491,1.23l2.336,2.34l8.854,6.275l3.32,14.154
		l-7.256,1.477L64.207,73.77l-10.699-5.785L54,78.693L37.52,81.77l-1.23-5.539l11.683-3.322l-0.984-6.521l-0.492-6.646l1.722-3.446
		l3.689-4.801l3.075-4.431l-0.247-0.861l-5.165,0.738l-6.887,7.753l-3.689-2.707l8.609-11.57l12.914-0.492
		c0,0,0.736,0.37,0.736,1.108c0,0.739,2.338,2.708,3.691,3.323c1.353,0.615,3.197,1.108,3.197,1.108l1.229,2.461l1.23,6.769
		l9.963-1.969l0.859,5.417L66.667,61.092L66.667,61.092z M68.295,44.466c-3.734,0-6.766-3.029-6.766-6.765
		c0-3.736,3.029-6.765,6.766-6.765s6.766,3.029,6.766,6.765C75.061,41.437,72.029,44.466,68.295,44.466L68.295,44.466z"/>
</g>
<g id="red">
	<path fill-opacity="0.1" d="M43.191,103.309c-5.477-2.317-10.395-5.634-14.619-9.855c-4.223-4.225-7.54-9.143-9.855-14.619
		c-2.401-5.673-3.616-11.697-3.616-17.904c0-6.208,1.215-12.23,3.616-17.904c2.316-5.477,5.632-10.396,9.855-14.619
		c4.224-4.223,9.142-7.538,14.619-9.855c5.673-2.399,11.696-3.615,17.905-3.615c6.207,0,12.229,1.215,17.902,3.615
		c5.477,2.317,10.396,5.632,14.618,9.855c4.224,4.223,7.54,9.142,9.856,14.619c2.399,5.672,3.614,11.696,3.614,17.904
		c0,6.207-1.215,12.231-3.614,17.904c-2.316,5.479-5.634,10.396-9.856,14.619c-4.224,4.223-9.142,7.538-14.618,9.855
		c-5.673,2.398-11.695,3.613-17.902,3.613C54.887,106.922,48.864,105.707,43.191,103.309"/>
	<path fill="#FFFFFF" d="M41.191,101.309c-5.477-2.317-10.395-5.634-14.619-9.855c-4.223-4.225-7.54-9.143-9.855-14.619
		c-2.401-5.673-3.616-11.697-3.616-17.905c0-6.208,1.215-12.231,3.616-17.903c2.316-5.477,5.632-10.396,9.855-14.619
		c4.224-4.223,9.142-7.538,14.619-9.855c5.673-2.399,11.696-3.615,17.904-3.615c6.208,0,12.23,1.215,17.903,3.615
		c5.477,2.317,10.396,5.632,14.618,9.855c4.224,4.223,7.54,9.142,9.856,14.619c2.399,5.672,3.614,11.696,3.614,17.903
		c0,6.208-1.215,12.232-3.614,17.905c-2.316,5.479-5.634,10.396-9.856,14.619c-4.224,4.223-9.142,7.538-14.618,9.855
		c-5.673,2.398-11.695,3.613-17.903,3.613C52.887,104.922,46.864,103.707,41.191,101.309"/>
	
		<linearGradient id="SVGID_10_" gradientUnits="userSpaceOnUse" x1="296.6953" y1="-341.8237" x2="296.6952" y2="-255.8364" gradientTransform="matrix(1 0 0 -1 -237.5996 -239.9004)">
		<stop  offset="0.16" style="stop-color:#3E8CE8"/>
		<stop  offset="0.1933" style="stop-color:#3984E6"/>
		<stop  offset="0.3612" style="stop-color:#205EDD"/>
		<stop  offset="0.517" style="stop-color:#0E43D6"/>
		<stop  offset="0.6547" style="stop-color:#0433D2"/>
		<stop  offset="0.76" style="stop-color:#002DD1"/>
	</linearGradient>
	<path fill="url(#SVGID_10_)" d="M59.095,15.936c23.744,0,42.994,19.249,42.994,42.993c0,23.746-19.25,42.995-42.994,42.995
		c-23.744,0-42.995-19.25-42.995-42.996C16.1,35.184,35.351,15.936,59.095,15.936L59.095,15.936z"/>
	
		<linearGradient id="SVGID_11_" gradientUnits="userSpaceOnUse" x1="296.6953" y1="-283.9473" x2="296.6953" y2="-257.4883" gradientTransform="matrix(1 0 0 -1 -237.5996 -239.9004)">
		<stop  offset="0" style="stop-color:#FFFFFF;stop-opacity:0"/>
		<stop  offset="1" style="stop-color:#FFFFFF;stop-opacity:0.8"/>
	</linearGradient>
	<path fill="url(#SVGID_11_)" d="M59.095,17.588c15.068,0,28.111,8.269,28.111,13.23c0,7.306-13.043,13.229-28.111,13.229
		c-15.069,0-28.112-5.922-28.112-13.229C30.983,25.857,44.026,17.588,59.095,17.588L59.095,17.588z"/>
	<path fill-opacity="0.1" d="M68.667,63.092L67.93,62.6l-0.861-6.278l-5.533,6.524l-0.491,1.23l2.336,2.34l8.854,6.275l3.32,14.154
		l-7.256,1.477L66.207,75.77l-10.699-5.785L56,80.693L39.52,83.77l-1.23-5.539l11.683-3.322l-0.984-6.521l-0.492-6.646l1.722-3.446
		l3.689-4.801l3.075-4.431l-0.247-0.861l-5.165,0.738l-6.887,7.753l-3.689-2.707l8.609-11.57l12.914-0.492
		c0,0,0.736,0.37,0.736,1.108c0,0.739,2.338,2.708,3.691,3.323c1.353,0.615,3.197,1.108,3.197,1.108l1.229,2.461l1.23,6.769
		l9.963-1.969l0.859,5.417L68.667,63.092L68.667,63.092z M70.295,46.466c-3.734,0-6.766-3.029-6.766-6.765
		c0-3.736,3.029-6.765,6.766-6.765s6.766,3.029,6.766,6.765C77.061,43.437,74.029,46.466,70.295,46.466L70.295,46.466z"/>
	<path fill="#FFFFFF" d="M66.667,61.092L65.93,60.6l-0.861-6.278l-5.533,6.524l-0.491,1.23l2.336,2.34l8.854,6.275l3.32,14.154
		l-7.256,1.477L64.207,73.77l-10.699-5.785L54,78.693L37.52,81.77l-1.23-5.539l11.683-3.322l-0.984-6.521l-0.492-6.646l1.722-3.446
		l3.689-4.801l3.075-4.431l-0.247-0.861l-5.165,0.738l-6.887,7.753l-3.689-2.707l8.609-11.57l12.914-0.492
		c0,0,0.736,0.37,0.736,1.108c0,0.739,2.338,2.708,3.691,3.323c1.353,0.615,3.197,1.108,3.197,1.108l1.229,2.461l1.23,6.769
		l9.963-1.969l0.859,5.417L66.667,61.092L66.667,61.092z M68.295,44.466c-3.734,0-6.766-3.029-6.766-6.765
		c0-3.736,3.029-6.765,6.766-6.765s6.766,3.029,6.766,6.765C75.061,41.437,72.029,44.466,68.295,44.466L68.295,44.466z"/>
</g>
</svg>
