<?xml version="1.0" encoding="utf-8"?>
<!-- Generator: Adobe Illustrator 16.0.2, SVG Export Plug-In . SVG Version: 6.00 Build 0)  -->
<!DOCTYPE svg PUBLIC "-//W3C//DTD SVG 1.1//EN" "http://www.w3.org/Graphics/SVG/1.1/DTD/svg11.dtd">
<svg version="1.1" id="Layer_1" xmlns="http://www.w3.org/2000/svg" xmlns:xlink="http://www.w3.org/1999/xlink" x="0px" y="0px"
	 width="120px" height="120px" viewBox="0 0 120 120" enable-background="new 0 0 120 120" xml:space="preserve">
<g id="black_white">
	<path fill="#FFFFFF" d="M109.874,103.938H10.126c-1.312,0-2.375-1.063-2.375-2.375v-2.375c0-0.436,0.127-0.836,0.33-1.187
		c-0.203-0.351-0.33-0.753-0.33-1.188V65.938c0-1.312,1.063-2.375,2.375-2.375h42.749c1.312,0,2.375,1.063,2.375,2.375v30.875
		h54.624c1.312,0,2.375,1.063,2.375,2.375v2.375C112.249,102.874,111.186,103.938,109.874,103.938L109.874,103.938z M105.352,85.325
		l-0.927,0.508v4.397c0,1.428-0.349,1.851-1.749,1.851h-3.141c-1.4,0-1.749-0.423-1.749-1.851v-4.397H74.494v4.397
		c0,1.428-0.35,1.851-1.749,1.851h-3.142c-1.399,0-1.748-0.423-1.748-1.851v-4.397l-0.93-0.508
		c-1.174-0.583-2.156-2.269-2.156-7.003c0-4.857,0.41-5.5,0.785-6.219c0.375-0.722,1.4-1.543,1.4-1.543l4.229-10.954h0.002
		c0.877-2.076,3.461-3.169,4.588-3.169h20.732c1.127,0,3.711,1.094,4.588,3.169l4.23,10.954c0,0,1.025,0.822,1.4,1.543
		c0.375,0.719,0.782,1.36,0.782,6.219C107.507,83.057,106.527,84.742,105.352,85.325L105.352,85.325z M72.208,74.175
		c-2.185,0-3.956,1.759-3.956,3.925c0,2.168,1.771,3.926,3.956,3.926s3.956-1.758,3.956-3.926
		C76.164,75.934,74.393,74.175,72.208,74.175L72.208,74.175z M100.092,74.175c-2.184,0-3.955,1.759-3.955,3.925
		c0,2.168,1.771,3.926,3.955,3.926c2.186,0,3.956-1.758,3.956-3.926C104.048,75.934,102.277,74.175,100.092,74.175L100.092,74.175z
		 M36.25,46.938h-9.5v-19h-7.125L31.5,16.063l11.875,11.875H36.25V46.938L36.25,46.938z"/>
</g>
<g id="blue">
	<path fill-opacity="0.1" d="M31.33,106.922c-8.949,0-16.229-7.279-16.229-16.229V31.164c0-8.948,7.28-16.228,16.229-16.228h59.527
		c8.949,0,16.229,7.28,16.229,16.228v59.529c0,8.947-7.28,16.229-16.229,16.229H31.33"/>
	<path fill="#70B7E0" d="M29.33,104.922c-8.949,0-16.229-7.279-16.229-16.229V29.164c0-8.948,7.28-16.228,16.229-16.228h59.527
		c8.949,0,16.229,7.28,16.229,16.228v59.529c0,8.947-7.28,16.229-16.229,16.229H29.33"/>
	<g>
		
			<linearGradient id="SVGID_1_" gradientUnits="userSpaceOnUse" x1="296.6943" y1="-341.8228" x2="296.6942" y2="-255.8354" gradientTransform="matrix(1 0 0 -1 -237.5996 -239.9004)">
			<stop  offset="0" style="stop-color:#48A2FB"/>
			<stop  offset="0.1758" style="stop-color:#059CF4"/>
			<stop  offset="0.4969" style="stop-color:#0398EF"/>
			<stop  offset="0.782" style="stop-color:#0293E7"/>
			<stop  offset="1" style="stop-color:#0189D8"/>
		</linearGradient>
		<path fill="url(#SVGID_1_)" d="M88.857,101.923H29.33c-7.306,0-13.23-5.923-13.23-13.229V29.164
			c0-7.306,5.924-13.229,13.23-13.229h59.527c7.308,0,13.23,5.922,13.23,13.229v59.529C102.089,96,96.165,101.923,88.857,101.923
			L88.857,101.923z"/>
	</g>
	<path fill="#70B7E0" d="M26.001,90.501V84.5h65.998v6.001H26.001L26.001,90.501z M26.001,90.501V72.499H59v18.002H26.001
		L26.001,90.501z M47.001,47.461v15.035H36.999V47.461h-5.687l10.626-14.527l10.626,14.527H47.001L47.001,47.461z"/>
	<path fill="#FFFFFF" d="M28.001,88.5c0-2.766,0-11.234,0-14c3.302,0,25.696,0,28.999,0c0,2.777,0,10,0,10c0,1.104,0.896,2,2,2
		c0,0,27.469,0,30.999,0c0,0.889,0,1.111,0,2C86.355,88.5,31.645,88.5,28.001,88.5 M38.999,60.496c0-3.008,0-13.035,0-13.035
		c0-1.105-0.895-2-2-2c0,0-1.003,0-1.746,0c2.287-3.126,4.961-6.784,6.685-9.14c1.723,2.356,4.397,6.014,6.685,9.14
		c-0.669,0-1.621,0-1.621,0c-1.105,0-2,0.896-2,2c0,0,0,10.027,0,13.035C43.081,60.496,40.919,60.496,38.999,60.496"/>
	<path fill="#70B7E0" d="M78.066,85.725c-1.105,0-2.002-0.896-2.002-2.002c0,0,0-0.424,0-0.684c-1.416,0-2.26,0-3.678,0
		c0,0.26,0,0.684,0,0.684c0,1.105-0.896,2.002-2,2.002h-3.441c-1.104,0-2-0.896-2-2.002c0,0,0-0.738,0-1.464
		c-0.217-0.216-0.572-0.571-0.572-0.571c-0.376-0.375-0.588-0.883-0.588-1.416v-1.148v-0.768v-1.918
		c0-1.621,0.609-2.549,1.309-3.043c0.479-0.889,2.381-4.422,2.381-4.422c0.348-0.65,1.025-1.054,1.762-1.054h9.97
		c0.733,0,1.412,0.403,1.762,1.054c0,0,2.126,3.949,2.478,4.603c0.646,0.583,1.213,1.545,1.213,2.862v1.918v0.768v1.148
		c0,0.521-0.202,1.019-0.563,1.392c0,0-0.396,0.411-0.59,0.608c0,0.722,0,1.451,0,1.451c0,1.105-0.896,2.002-2,2.002H78.066"/>
	<path fill="#FFFFFF" d="M81.914,81.039h-0.409v2.684h-3.438v-2.684h-7.68v2.684h-3.439v-2.684h-0.393l-0.77-0.768v-1.149v-0.769
		v-1.916c0-1.533,0.766-1.533,0.766-1.533l2.686-4.984h9.97l2.685,4.984c0,0,0.768,0.384,0.768,1.533v1.916v0.769v1.149
		L81.914,81.039L81.914,81.039z M71.537,78.473h5.367c0.395,0,0.384-0.271,0.384-0.666c0-0.394,0.011-0.602-0.384-0.602h-5.367
		c-0.395,0-0.385,0.208-0.385,0.602C71.152,78.201,71.143,78.473,71.537,78.473L71.537,78.473z M68.275,77.208
		c-0.321,0-0.584,0.256-0.584,0.573c0,0.316,0.263,0.572,0.584,0.572c0.324,0,0.586-0.256,0.586-0.572
		C68.861,77.464,68.6,77.208,68.275,77.208L68.275,77.208z M78.055,72.221h-7.668l-0.767,2.686h9.202L78.055,72.221L78.055,72.221z
		 M80.162,77.208c-0.323,0-0.584,0.256-0.584,0.573c0,0.316,0.261,0.572,0.584,0.572c0.324,0,0.587-0.256,0.587-0.572
		C80.749,77.464,80.486,77.208,80.162,77.208L80.162,77.208z"/>
	
		<linearGradient id="SVGID_2_" gradientUnits="userSpaceOnUse" x1="297.291" y1="-282.6055" x2="297.291" y2="-257.9302" gradientTransform="matrix(1 0 0 -1 -237.5996 -239.9004)">
		<stop  offset="0" style="stop-color:#FFFFFF;stop-opacity:0"/>
		<stop  offset="1" style="stop-color:#FFFFFF;stop-opacity:0.8"/>
	</linearGradient>
	<path fill="url(#SVGID_2_)" d="M36.279,34.888c-10.953-3.797-15.283-8.096-16.986-10.74c1.672-3.347,4.899-5.653,8.636-6.118
		c0.237,0,61.958,0,61.958,0l0.297,0.01c0,0,0.086,0.005,0.168,0.008c5.557,0.737,9.737,5.503,9.737,11.116c0,0,0,10.497,0,13.541
		C72.244,42.546,50.784,39.917,36.279,34.888"/>
</g>
<g id="green">
	<path fill-opacity="0.1" d="M31.33,106.922c-8.949,0-16.229-7.279-16.229-16.229V31.164c0-8.948,7.28-16.228,16.229-16.228h59.527
		c8.949,0,16.229,7.28,16.229,16.228v59.529c0,8.947-7.28,16.229-16.229,16.229H31.33"/>
	<path fill="#03FC30" d="M29.33,104.922c-8.949,0-16.229-7.279-16.229-16.229V29.164c0-8.948,7.28-16.228,16.229-16.228h59.527
		c8.949,0,16.229,7.28,16.229,16.228v59.529c0,8.947-7.28,16.229-16.229,16.229H29.33"/>
	<g>
		
			<linearGradient id="SVGID_3_" gradientUnits="userSpaceOnUse" x1="296.6943" y1="-341.8228" x2="296.6942" y2="-255.8354" gradientTransform="matrix(1 0 0 -1 -237.5996 -239.9004)">
			<stop  offset="0" style="stop-color:#00DF34"/>
			<stop  offset="0.1758" style="stop-color:#00CD26"/>
			<stop  offset="0.4969" style="stop-color:#00B211"/>
			<stop  offset="0.782" style="stop-color:#00A204"/>
			<stop  offset="1" style="stop-color:#009C00"/>
		</linearGradient>
		<path fill="url(#SVGID_3_)" d="M88.857,101.923H29.33c-7.306,0-13.23-5.923-13.23-13.229V29.164
			c0-7.306,5.924-13.229,13.23-13.229h59.527c7.308,0,13.23,5.922,13.23,13.229v59.529C102.089,96,96.165,101.923,88.857,101.923
			L88.857,101.923z"/>
	</g>
	<path fill="#03FC30" d="M26.001,90.501V84.5h65.998v6.001H26.001L26.001,90.501z M26.001,90.501V72.499H59v18.002H26.001
		L26.001,90.501z M47.001,47.461v15.035H36.999V47.461h-5.687l10.626-14.527l10.626,14.527H47.001L47.001,47.461z"/>
	<path fill="#FFFFFF" d="M28.001,88.5c0-2.766,0-11.234,0-14c3.302,0,25.696,0,28.999,0c0,2.777,0,10,0,10c0,1.104,0.896,2,2,2
		c0,0,27.469,0,30.999,0c0,0.889,0,1.111,0,2C86.355,88.5,31.645,88.5,28.001,88.5 M38.999,60.496c0-3.008,0-13.035,0-13.035
		c0-1.105-0.895-2-2-2c0,0-1.003,0-1.746,0c2.287-3.126,4.961-6.784,6.685-9.14c1.723,2.356,4.397,6.014,6.685,9.14
		c-0.669,0-1.621,0-1.621,0c-1.105,0-2,0.896-2,2c0,0,0,10.027,0,13.035C43.081,60.496,40.919,60.496,38.999,60.496"/>
	<path fill="#03FC30" d="M78.066,85.725c-1.105,0-2.002-0.896-2.002-2.002c0,0,0-0.424,0-0.684c-1.416,0-2.26,0-3.678,0
		c0,0.26,0,0.684,0,0.684c0,1.105-0.896,2.002-2,2.002h-3.441c-1.104,0-2-0.896-2-2.002c0,0,0-0.738,0-1.464
		c-0.217-0.216-0.572-0.571-0.572-0.571c-0.376-0.375-0.588-0.883-0.588-1.416v-1.148v-0.768v-1.918
		c0-1.621,0.609-2.549,1.309-3.043c0.479-0.889,2.381-4.422,2.381-4.422c0.348-0.65,1.025-1.054,1.762-1.054h9.97
		c0.733,0,1.412,0.403,1.762,1.054c0,0,2.126,3.949,2.478,4.603c0.646,0.583,1.213,1.545,1.213,2.862v1.918v0.768v1.148
		c0,0.521-0.202,1.019-0.563,1.392c0,0-0.396,0.411-0.59,0.608c0,0.722,0,1.451,0,1.451c0,1.105-0.896,2.002-2,2.002H78.066"/>
	<path fill="#FFFFFF" d="M81.914,81.039h-0.409v2.684h-3.438v-2.684h-7.68v2.684h-3.439v-2.684h-0.393l-0.77-0.768v-1.149v-0.769
		v-1.916c0-1.533,0.766-1.533,0.766-1.533l2.686-4.984h9.97l2.685,4.984c0,0,0.768,0.384,0.768,1.533v1.916v0.769v1.149
		L81.914,81.039L81.914,81.039z M71.537,78.473h5.367c0.395,0,0.384-0.271,0.384-0.666c0-0.394,0.011-0.602-0.384-0.602h-5.367
		c-0.395,0-0.385,0.208-0.385,0.602C71.152,78.201,71.143,78.473,71.537,78.473L71.537,78.473z M68.275,77.208
		c-0.321,0-0.584,0.256-0.584,0.573c0,0.316,0.263,0.572,0.584,0.572c0.324,0,0.586-0.256,0.586-0.572
		C68.861,77.464,68.6,77.208,68.275,77.208L68.275,77.208z M78.055,72.221h-7.668l-0.767,2.686h9.202L78.055,72.221L78.055,72.221z
		 M80.162,77.208c-0.323,0-0.584,0.256-0.584,0.573c0,0.316,0.261,0.572,0.584,0.572c0.324,0,0.587-0.256,0.587-0.572
		C80.749,77.464,80.486,77.208,80.162,77.208L80.162,77.208z"/>
	
		<linearGradient id="SVGID_4_" gradientUnits="userSpaceOnUse" x1="297.291" y1="-282.6055" x2="297.291" y2="-257.9302" gradientTransform="matrix(1 0 0 -1 -237.5996 -239.9004)">
		<stop  offset="0" style="stop-color:#FFFFFF;stop-opacity:0"/>
		<stop  offset="1" style="stop-color:#FFFFFF;stop-opacity:0.8"/>
	</linearGradient>
	<path fill="url(#SVGID_4_)" d="M36.279,34.888c-10.953-3.797-15.283-8.096-16.986-10.74c1.672-3.347,4.899-5.653,8.636-6.118
		c0.237,0,61.958,0,61.958,0l0.297,0.01c0,0,0.086,0.005,0.168,0.008c5.557,0.737,9.737,5.503,9.737,11.116c0,0,0,10.497,0,13.541
		C72.244,42.546,50.784,39.917,36.279,34.888"/>
</g>
<g id="kia">
	<path fill-opacity="0.1" d="M31.33,106.922c-8.949,0-16.229-7.279-16.229-16.229V31.164c0-8.948,7.28-16.228,16.229-16.228h59.527
		c8.949,0,16.229,7.28,16.229,16.228v59.529c0,8.947-7.28,16.229-16.229,16.229H31.33"/>
	<path fill="#000000" d="M29.33,104.922c-8.949,0-16.229-7.279-16.229-16.229V29.164c0-8.948,7.28-16.228,16.229-16.228h59.527
		c8.949,0,16.229,7.28,16.229,16.228v59.529c0,8.947-7.28,16.229-16.229,16.229H29.33"/>
	<g>
		
			<linearGradient id="SVGID_5_" gradientUnits="userSpaceOnUse" x1="296.6943" y1="-341.8228" x2="296.6942" y2="-255.8354" gradientTransform="matrix(1 0 0 -1 -237.5996 -239.9004)">
			<stop  offset="0" style="stop-color:#FFFFFF"/>
			<stop  offset="0.1758" style="stop-color:#E7E9EA"/>
			<stop  offset="0.4969" style="stop-color:#CDD2D5"/>
			<stop  offset="0.782" style="stop-color:#C5CACC"/>
			<stop  offset="1" style="stop-color:#BABDC0"/>
		</linearGradient>
		<path fill="url(#SVGID_5_)" d="M88.857,101.923H29.33c-7.306,0-13.23-5.923-13.23-13.229V29.164
			c0-7.306,5.924-13.229,13.23-13.229h59.527c7.308,0,13.23,5.922,13.23,13.229v59.529C102.089,96,96.165,101.923,88.857,101.923
			L88.857,101.923z"/>
	</g>
	<path fill="#000000" d="M26.001,90.501V84.5h65.998v6.001H26.001L26.001,90.501z M26.001,90.501V72.499H59v18.002H26.001
		L26.001,90.501z M47.001,47.461v15.035H36.999V47.461h-5.687l10.626-14.527l10.626,14.527H47.001L47.001,47.461z"/>
	<path fill="#FFFFFF" d="M28.001,88.5c0-2.766,0-11.234,0-14c3.302,0,25.696,0,28.999,0c0,2.777,0,10,0,10c0,1.104,0.896,2,2,2
		c0,0,27.469,0,30.999,0c0,0.889,0,1.111,0,2C86.355,88.5,31.645,88.5,28.001,88.5 M38.999,60.496c0-3.008,0-13.035,0-13.035
		c0-1.105-0.895-2-2-2c0,0-1.003,0-1.746,0c2.287-3.126,4.961-6.784,6.685-9.14c1.723,2.356,4.397,6.014,6.685,9.14
		c-0.669,0-1.621,0-1.621,0c-1.105,0-2,0.896-2,2c0,0,0,10.027,0,13.035C43.081,60.496,40.919,60.496,38.999,60.496"/>
	<path fill="#000000" d="M78.066,85.725c-1.105,0-2.002-0.896-2.002-2.002c0,0,0-0.424,0-0.684c-1.416,0-2.26,0-3.678,0
		c0,0.26,0,0.684,0,0.684c0,1.105-0.896,2.002-2,2.002h-3.441c-1.104,0-2-0.896-2-2.002c0,0,0-0.738,0-1.464
		c-0.217-0.216-0.572-0.571-0.572-0.571c-0.376-0.375-0.588-0.883-0.588-1.416v-1.148v-0.768v-1.918
		c0-1.621,0.609-2.549,1.309-3.043c0.479-0.889,2.381-4.422,2.381-4.422c0.348-0.65,1.025-1.054,1.762-1.054h9.97
		c0.733,0,1.412,0.403,1.762,1.054c0,0,2.126,3.949,2.478,4.603c0.646,0.583,1.213,1.545,1.213,2.862v1.918v0.768v1.148
		c0,0.521-0.202,1.019-0.563,1.392c0,0-0.396,0.411-0.59,0.608c0,0.722,0,1.451,0,1.451c0,1.105-0.896,2.002-2,2.002H78.066"/>
	<path fill="#FFFFFF" d="M81.914,81.039h-0.409v2.684h-3.438v-2.684h-7.68v2.684h-3.439v-2.684h-0.393l-0.77-0.768v-1.149v-0.769
		v-1.916c0-1.533,0.766-1.533,0.766-1.533l2.686-4.984h9.97l2.685,4.984c0,0,0.768,0.384,0.768,1.533v1.916v0.769v1.149
		L81.914,81.039L81.914,81.039z M71.537,78.473h5.367c0.395,0,0.384-0.271,0.384-0.666c0-0.394,0.011-0.602-0.384-0.602h-5.367
		c-0.395,0-0.385,0.208-0.385,0.602C71.152,78.201,71.143,78.473,71.537,78.473L71.537,78.473z M68.275,77.208
		c-0.321,0-0.584,0.256-0.584,0.573c0,0.316,0.263,0.572,0.584,0.572c0.324,0,0.586-0.256,0.586-0.572
		C68.861,77.464,68.6,77.208,68.275,77.208L68.275,77.208z M78.055,72.221h-7.668l-0.767,2.686h9.202L78.055,72.221L78.055,72.221z
		 M80.162,77.208c-0.323,0-0.584,0.256-0.584,0.573c0,0.316,0.261,0.572,0.584,0.572c0.324,0,0.587-0.256,0.587-0.572
		C80.749,77.464,80.486,77.208,80.162,77.208L80.162,77.208z"/>
	
		<linearGradient id="SVGID_6_" gradientUnits="userSpaceOnUse" x1="297.291" y1="-282.6055" x2="297.291" y2="-257.9302" gradientTransform="matrix(1 0 0 -1 -237.5996 -239.9004)">
		<stop  offset="0" style="stop-color:#FFFFFF;stop-opacity:0"/>
		<stop  offset="1" style="stop-color:#FFFFFF;stop-opacity:0.8"/>
	</linearGradient>
	<path fill="url(#SVGID_6_)" d="M36.279,34.888c-10.953-3.797-15.283-8.096-16.986-10.74c1.672-3.347,4.899-5.653,8.636-6.118
		c0.237,0,61.958,0,61.958,0l0.297,0.01c0,0,0.086,0.005,0.168,0.008c5.557,0.737,9.737,5.503,9.737,11.116c0,0,0,10.497,0,13.541
		C72.244,42.546,50.784,39.917,36.279,34.888"/>
</g>
<g id="orange">
	<path fill-opacity="0.1" d="M31.33,106.922c-8.949,0-16.229-7.279-16.229-16.229V31.164c0-8.948,7.28-16.228,16.229-16.228h59.527
		c8.949,0,16.229,7.28,16.229,16.228v59.529c0,8.947-7.28,16.229-16.229,16.229H31.33"/>
	<path fill="#FFE035" d="M29.33,104.922c-8.949,0-16.229-7.279-16.229-16.229V29.164c0-8.948,7.28-16.228,16.229-16.228h59.527
		c8.949,0,16.229,7.28,16.229,16.228v59.529c0,8.947-7.28,16.229-16.229,16.229H29.33"/>
	<g>
		
			<linearGradient id="SVGID_7_" gradientUnits="userSpaceOnUse" x1="296.6943" y1="-341.8228" x2="296.6942" y2="-255.8354" gradientTransform="matrix(1 0 0 -1 -237.5996 -239.9004)">
			<stop  offset="0" style="stop-color:#FEDF34"/>
			<stop  offset="0.1758" style="stop-color:#FECD26"/>
			<stop  offset="0.4969" style="stop-color:#FFB211"/>
			<stop  offset="0.782" style="stop-color:#FFA204"/>
			<stop  offset="1" style="stop-color:#FF9C00"/>
		</linearGradient>
		<path fill="url(#SVGID_7_)" d="M88.857,101.923H29.33c-7.306,0-13.23-5.923-13.23-13.229V29.164
			c0-7.306,5.924-13.229,13.23-13.229h59.527c7.308,0,13.23,5.922,13.23,13.229v59.529C102.089,96,96.165,101.923,88.857,101.923
			L88.857,101.923z"/>
	</g>
	<path fill="#FFE035" d="M26.001,90.501V84.5h65.998v6.001H26.001L26.001,90.501z M26.001,90.501V72.499H59v18.002H26.001
		L26.001,90.501z M47.001,47.461v15.035H36.999V47.461h-5.687l10.626-14.527l10.626,14.527H47.001L47.001,47.461z"/>
	<path fill="#FFFFFF" d="M28.001,88.5c0-2.766,0-11.234,0-14c3.302,0,25.696,0,28.999,0c0,2.777,0,10,0,10c0,1.104,0.896,2,2,2
		c0,0,27.469,0,30.999,0c0,0.889,0,1.111,0,2C86.355,88.5,31.645,88.5,28.001,88.5 M38.999,60.496c0-3.008,0-13.035,0-13.035
		c0-1.105-0.895-2-2-2c0,0-1.003,0-1.746,0c2.287-3.126,4.961-6.784,6.685-9.14c1.723,2.356,4.397,6.014,6.685,9.14
		c-0.669,0-1.621,0-1.621,0c-1.105,0-2,0.896-2,2c0,0,0,10.027,0,13.035C43.081,60.496,40.919,60.496,38.999,60.496"/>
	<path fill="#FFE035" d="M78.066,85.725c-1.105,0-2.002-0.896-2.002-2.002c0,0,0-0.424,0-0.684c-1.416,0-2.26,0-3.678,0
		c0,0.26,0,0.684,0,0.684c0,1.105-0.896,2.002-2,2.002h-3.441c-1.104,0-2-0.896-2-2.002c0,0,0-0.738,0-1.464
		c-0.217-0.216-0.572-0.571-0.572-0.571c-0.376-0.375-0.588-0.883-0.588-1.416v-1.148v-0.768v-1.918
		c0-1.621,0.609-2.549,1.309-3.043c0.479-0.889,2.381-4.422,2.381-4.422c0.348-0.65,1.025-1.054,1.762-1.054h9.97
		c0.733,0,1.412,0.403,1.762,1.054c0,0,2.126,3.949,2.478,4.603c0.646,0.583,1.213,1.545,1.213,2.862v1.918v0.768v1.148
		c0,0.521-0.202,1.019-0.563,1.392c0,0-0.396,0.411-0.59,0.608c0,0.722,0,1.451,0,1.451c0,1.105-0.896,2.002-2,2.002H78.066"/>
	<path fill="#FFFFFF" d="M81.914,81.039h-0.409v2.684h-3.438v-2.684h-7.68v2.684h-3.439v-2.684h-0.393l-0.77-0.768v-1.149v-0.769
		v-1.916c0-1.533,0.766-1.533,0.766-1.533l2.686-4.984h9.97l2.685,4.984c0,0,0.768,0.384,0.768,1.533v1.916v0.769v1.149
		L81.914,81.039L81.914,81.039z M71.537,78.473h5.367c0.395,0,0.384-0.271,0.384-0.666c0-0.394,0.011-0.602-0.384-0.602h-5.367
		c-0.395,0-0.385,0.208-0.385,0.602C71.152,78.201,71.143,78.473,71.537,78.473L71.537,78.473z M68.275,77.208
		c-0.321,0-0.584,0.256-0.584,0.573c0,0.316,0.263,0.572,0.584,0.572c0.324,0,0.586-0.256,0.586-0.572
		C68.861,77.464,68.6,77.208,68.275,77.208L68.275,77.208z M78.055,72.221h-7.668l-0.767,2.686h9.202L78.055,72.221L78.055,72.221z
		 M80.162,77.208c-0.323,0-0.584,0.256-0.584,0.573c0,0.316,0.261,0.572,0.584,0.572c0.324,0,0.587-0.256,0.587-0.572
		C80.749,77.464,80.486,77.208,80.162,77.208L80.162,77.208z"/>
	
		<linearGradient id="SVGID_8_" gradientUnits="userSpaceOnUse" x1="297.291" y1="-282.6055" x2="297.291" y2="-257.9302" gradientTransform="matrix(1 0 0 -1 -237.5996 -239.9004)">
		<stop  offset="0" style="stop-color:#FFFFFF;stop-opacity:0"/>
		<stop  offset="1" style="stop-color:#FFFFFF;stop-opacity:0.8"/>
	</linearGradient>
	<path fill="url(#SVGID_8_)" d="M36.279,34.888c-10.953-3.797-15.283-8.096-16.986-10.74c1.672-3.347,4.899-5.653,8.636-6.118
		c0.237,0,61.958,0,61.958,0l0.297,0.01c0,0,0.086,0.005,0.168,0.008c5.557,0.737,9.737,5.503,9.737,11.116c0,0,0,10.497,0,13.541
		C72.244,42.546,50.784,39.917,36.279,34.888"/>
</g>
<g id="red">
	<path fill-opacity="0.1" d="M31.33,106.922c-8.949,0-16.229-7.279-16.229-16.229V31.164c0-8.948,7.28-16.228,16.229-16.228h59.527
		c8.949,0,16.229,7.28,16.229,16.228v59.529c0,8.947-7.28,16.229-16.229,16.229H31.33"/>
	<path fill="#FC7E7E" d="M29.33,104.922c-8.949,0-16.229-7.279-16.229-16.229V29.164c0-8.948,7.28-16.228,16.229-16.228h59.527
		c8.949,0,16.229,7.28,16.229,16.228v59.529c0,8.947-7.28,16.229-16.229,16.229H29.33"/>
	<g>
		
			<linearGradient id="SVGID_9_" gradientUnits="userSpaceOnUse" x1="296.6943" y1="-341.8228" x2="296.6942" y2="-255.8354" gradientTransform="matrix(1 0 0 -1 -237.5996 -239.9004)">
			<stop  offset="0" style="stop-color:#FF0000"/>
			<stop  offset="0.1758" style="stop-color:#F60303"/>
			<stop  offset="0.4969" style="stop-color:#EC0404"/>
			<stop  offset="0.782" style="stop-color:#E30101"/>
			<stop  offset="1" style="stop-color:#D60202"/>
		</linearGradient>
		<path fill="url(#SVGID_9_)" d="M88.857,101.923H29.33c-7.306,0-13.23-5.923-13.23-13.229V29.164
			c0-7.306,5.924-13.229,13.23-13.229h59.527c7.308,0,13.23,5.922,13.23,13.229v59.529C102.089,96,96.165,101.923,88.857,101.923
			L88.857,101.923z"/>
	</g>
	<path fill="#FC7E7E" d="M26.001,90.501V84.5h65.998v6.001H26.001L26.001,90.501z M26.001,90.501V72.499H59v18.002H26.001
		L26.001,90.501z M47.001,47.461v15.035H36.999V47.461h-5.687l10.626-14.527l10.626,14.527H47.001L47.001,47.461z"/>
	<path fill="#FFFFFF" d="M28.001,88.5c0-2.766,0-11.234,0-14c3.302,0,25.696,0,28.999,0c0,2.777,0,10,0,10c0,1.104,0.896,2,2,2
		c0,0,27.469,0,30.999,0c0,0.889,0,1.111,0,2C86.355,88.5,31.645,88.5,28.001,88.5 M38.999,60.496c0-3.008,0-13.035,0-13.035
		c0-1.105-0.895-2-2-2c0,0-1.003,0-1.746,0c2.287-3.126,4.961-6.784,6.685-9.14c1.723,2.356,4.397,6.014,6.685,9.14
		c-0.669,0-1.621,0-1.621,0c-1.105,0-2,0.896-2,2c0,0,0,10.027,0,13.035C43.081,60.496,40.919,60.496,38.999,60.496"/>
	<path fill="#FC7E7E" d="M78.066,85.725c-1.105,0-2.002-0.896-2.002-2.002c0,0,0-0.424,0-0.684c-1.416,0-2.26,0-3.678,0
		c0,0.26,0,0.684,0,0.684c0,1.105-0.896,2.002-2,2.002h-3.441c-1.104,0-2-0.896-2-2.002c0,0,0-0.738,0-1.464
		c-0.217-0.216-0.572-0.571-0.572-0.571c-0.376-0.375-0.588-0.883-0.588-1.416v-1.148v-0.768v-1.918
		c0-1.621,0.609-2.549,1.309-3.043c0.479-0.889,2.381-4.422,2.381-4.422c0.348-0.65,1.025-1.054,1.762-1.054h9.97
		c0.733,0,1.412,0.403,1.762,1.054c0,0,2.126,3.949,2.478,4.603c0.646,0.583,1.213,1.545,1.213,2.862v1.918v0.768v1.148
		c0,0.521-0.202,1.019-0.563,1.392c0,0-0.396,0.411-0.59,0.608c0,0.722,0,1.451,0,1.451c0,1.105-0.896,2.002-2,2.002H78.066"/>
	<path fill="#FFFFFF" d="M81.914,81.039h-0.409v2.684h-3.438v-2.684h-7.68v2.684h-3.439v-2.684h-0.393l-0.77-0.768v-1.149v-0.769
		v-1.916c0-1.533,0.766-1.533,0.766-1.533l2.686-4.984h9.97l2.685,4.984c0,0,0.768,0.384,0.768,1.533v1.916v0.769v1.149
		L81.914,81.039L81.914,81.039z M71.537,78.473h5.367c0.395,0,0.384-0.271,0.384-0.666c0-0.394,0.011-0.602-0.384-0.602h-5.367
		c-0.395,0-0.385,0.208-0.385,0.602C71.152,78.201,71.143,78.473,71.537,78.473L71.537,78.473z M68.275,77.208
		c-0.321,0-0.584,0.256-0.584,0.573c0,0.316,0.263,0.572,0.584,0.572c0.324,0,0.586-0.256,0.586-0.572
		C68.861,77.464,68.6,77.208,68.275,77.208L68.275,77.208z M78.055,72.221h-7.668l-0.767,2.686h9.202L78.055,72.221L78.055,72.221z
		 M80.162,77.208c-0.323,0-0.584,0.256-0.584,0.573c0,0.316,0.261,0.572,0.584,0.572c0.324,0,0.587-0.256,0.587-0.572
		C80.749,77.464,80.486,77.208,80.162,77.208L80.162,77.208z"/>
	
		<linearGradient id="SVGID_10_" gradientUnits="userSpaceOnUse" x1="297.291" y1="-282.6055" x2="297.291" y2="-257.9302" gradientTransform="matrix(1 0 0 -1 -237.5996 -239.9004)">
		<stop  offset="0" style="stop-color:#FFFFFF;stop-opacity:0"/>
		<stop  offset="1" style="stop-color:#FFFFFF;stop-opacity:0.8"/>
	</linearGradient>
	<path fill="url(#SVGID_10_)" d="M36.279,34.888c-10.953-3.797-15.283-8.096-16.986-10.74c1.672-3.347,4.899-5.653,8.636-6.118
		c0.237,0,61.958,0,61.958,0l0.297,0.01c0,0,0.086,0.005,0.168,0.008c5.557,0.737,9.737,5.503,9.737,11.116c0,0,0,10.497,0,13.541
		C72.244,42.546,50.784,39.917,36.279,34.888"/>
</g>
</svg>
