<?xml version="1.0" encoding="utf-8"?>
<!-- Generator: Adobe Illustrator 17.0.1, SVG Export Plug-In . SVG Version: 6.00 Build 0)  -->
<!DOCTYPE svg PUBLIC "-//W3C//DTD SVG 1.1//EN" "http://www.w3.org/Graphics/SVG/1.1/DTD/svg11.dtd">
<svg version="1.1" xmlns="http://www.w3.org/2000/svg" xmlns:xlink="http://www.w3.org/1999/xlink" x="0px" y="0px" width="114px"
	 height="114px" viewBox="0 0 114 114" enable-background="new 0 0 114 114" xml:space="preserve">
<g id="normal">
	<path fill-rule="evenodd" clip-rule="evenodd" fill="#FFFFFF" d="M102.456,25.032l-0.242,27.516l-24.149-13.55l9.186-5.259
		c-6.946-8.485-17.639-13.908-29.66-13.876c-15.86,0.043-29.479,9.563-35.232,23.052h-0.046c-0.49,1.659-2.045,2.878-3.906,2.878
		c-1.856,0-3.405-1.211-3.901-2.86l-0.841,0.002c0.229-0.673,0.506-1.323,0.766-1.981c0.078-0.335,0.207-0.645,0.364-0.943
		c6.946-16.459,23.504-28.094,42.818-28.145c15.037-0.042,28.352,6.959,36.753,17.801L102.456,25.032L102.456,25.032z
		 M27.667,80.264c6.946,8.52,17.658,13.97,29.71,13.938c15.895-0.043,29.537-9.604,35.267-23.142h0.016
		c0.495-1.645,2.027-2.852,3.863-2.852c1.829,0,3.357,1.201,3.856,2.836l0.924-0.002c-6.137,17.993-23.505,31.017-43.95,31.073
		c-15.038,0.04-28.353-6.96-36.755-17.806l-8.137,4.656l0.25-27.504l24.156,13.539L27.667,80.264L27.667,80.264z"/>
</g>
<g id="active">
	<path fill-rule="evenodd" clip-rule="evenodd" fill="#FFFFFF" d="M102.456,25.032l-0.242,27.516l-24.149-13.55l9.186-5.259
		c-6.946-8.485-17.639-13.908-29.66-13.876c-15.86,0.043-29.479,9.563-35.232,23.052h-0.046c-0.49,1.659-2.045,2.878-3.906,2.878
		c-1.856,0-3.405-1.211-3.901-2.86l-0.841,0.002c0.229-0.673,0.506-1.323,0.766-1.981c0.078-0.335,0.207-0.645,0.364-0.943
		c6.946-16.459,23.504-28.094,42.818-28.145c15.037-0.042,28.352,6.959,36.753,17.801L102.456,25.032L102.456,25.032z
		 M27.667,80.264c6.946,8.52,17.658,13.97,29.71,13.938c15.895-0.043,29.537-9.604,35.267-23.142h0.016
		c0.495-1.645,2.027-2.852,3.863-2.852c1.829,0,3.357,1.201,3.856,2.836l0.924-0.002c-6.137,17.993-23.505,31.017-43.95,31.073
		c-15.038,0.04-28.353-6.96-36.755-17.806l-8.137,4.656l0.25-27.504l24.156,13.539L27.667,80.264L27.667,80.264z"/>
</g>
<g id="disabled" opacity="0.6">
	<path fill-rule="evenodd" clip-rule="evenodd" fill="#FFFFFF" d="M102.456,25.032l-0.242,27.516l-24.149-13.55l9.186-5.259
		c-6.946-8.485-17.639-13.908-29.66-13.876c-15.86,0.043-29.479,9.563-35.232,23.052h-0.046c-0.49,1.659-2.045,2.878-3.906,2.878
		c-1.856,0-3.405-1.211-3.901-2.86l-0.841,0.002c0.229-0.673,0.506-1.323,0.766-1.981c0.078-0.335,0.207-0.645,0.364-0.943
		c6.946-16.459,23.504-28.094,42.818-28.145c15.037-0.042,28.352,6.959,36.753,17.801L102.456,25.032L102.456,25.032z
		 M27.667,80.264c6.946,8.52,17.658,13.97,29.71,13.938c15.895-0.043,29.537-9.604,35.267-23.142h0.016
		c0.495-1.645,2.027-2.852,3.863-2.852c1.829,0,3.357,1.201,3.856,2.836l0.924-0.002c-6.137,17.993-23.505,31.017-43.95,31.073
		c-15.038,0.04-28.353-6.96-36.755-17.806l-8.137,4.656l0.25-27.504l24.156,13.539L27.667,80.264L27.667,80.264z"/>
</g>
</svg>
