<?xml version="1.0" encoding="utf-8"?>
<!-- Generator: Adobe Illustrator 16.0.2, SVG Export Plug-In . SVG Version: 6.00 Build 0)  -->
<!DOCTYPE svg PUBLIC "-//W3C//DTD SVG 1.1//EN" "http://www.w3.org/Graphics/SVG/1.1/DTD/svg11.dtd">
<svg version="1.1" id="Layer_1" xmlns="http://www.w3.org/2000/svg" xmlns:xlink="http://www.w3.org/1999/xlink" x="0px" y="0px"
	 width="120px" height="120px" viewBox="0 0 120 120" enable-background="new 0 0 120 120" xml:space="preserve">
<g id="black_white">
	<g>
		<g>
			<path fill="#3A3A3A" d="M87.188,58.052L63.854,34.718L49.075,49.497L69.35,69.771v34.834h20.899V65.441
				C90.249,62.557,89.079,59.943,87.188,58.052z M72.801,21.535l-40.897-6.12c-1.247-0.187-2.319,0.885-2.132,2.132l6.12,40.897
				c0.228,1.523,2.092,2.137,3.181,1.049L73.85,24.716C74.938,23.627,74.324,21.763,72.801,21.535z"/>
		</g>
	</g>
</g>
<g id="blue">
	<path fill-opacity="0.1" d="M72.001,107.803c-1.658,0-3-1.343-3-3c0,0,0-30.467,0-32.773c-1.505-1.506-11.029-11.036-11.029-11.036
		s-4.172-4.174-6.603-6.607c-2.665,2.665-8.094,8.094-8.187,8.186c-0.128,0.168-0.269,0.328-0.42,0.48
		c-0.001,0.002-0.004,0.004-0.008,0.008c-0.962,0.967-2.245,1.5-3.613,1.5c-1.363,0-2.644-0.531-3.61-1.494
		c-0.964-0.967-1.494-2.248-1.494-3.61c0-0.099,0.003-0.2,0.009-0.302c-0.101-0.688-1.459-9.919-1.459-9.919
		s-4.335-29.487-4.39-29.862c-0.106-0.413-0.16-0.839-0.16-1.271c0-1.368,0.532-2.651,1.499-3.613
		c0.966-0.962,2.245-1.491,3.605-1.491c0.408,0,0.811,0.048,1.203,0.142c0.215,0.032,38.88,5.937,39.64,6.052
		c0.108-0.006,0.219-0.011,0.326-0.011c1.363,0,2.646,0.53,3.61,1.494c0.964,0.966,1.494,2.247,1.494,3.61
		c0,1.36-0.528,2.64-1.491,3.605c-0.158,0.159-0.326,0.306-0.501,0.44c-0.243,0.244-5.182,5.181-7.772,7.772
		c5.727,5.709,14.998,14.95,21.451,21.357c2.643,2.624,3.98,5.58,3.98,8.788c0,0.498-0.033,1.006-0.102,1.517
		c0,0.438,0,37.041,0,37.041c0,1.656-1.342,3-3,3H72.001"/>
	<path fill="#00598C" d="M70.001,105.803c-1.658,0-3-1.343-3-3c0,0,0-30.467,0-32.773c-1.505-1.506-11.029-11.036-11.029-11.036
		s-4.172-4.174-6.603-6.607c-2.665,2.665-8.094,8.094-8.187,8.186c-0.128,0.168-0.269,0.328-0.42,0.48
		c-0.001,0.002-0.004,0.004-0.008,0.008c-0.962,0.967-2.245,1.5-3.613,1.5c-1.363,0-2.644-0.531-3.61-1.494
		c-0.964-0.967-1.494-2.248-1.494-3.61c0-0.099,0.003-0.2,0.009-0.301c-0.101-0.688-1.459-9.92-1.459-9.92
		s-4.335-29.487-4.39-29.862c-0.106-0.413-0.16-0.839-0.16-1.271c0-1.368,0.532-2.651,1.499-3.613
		c0.966-0.962,2.245-1.491,3.605-1.491c0.408,0,0.811,0.048,1.203,0.142c0.215,0.032,38.88,5.937,39.64,6.052
		c0.108-0.006,0.219-0.011,0.326-0.011c1.363,0,2.646,0.53,3.61,1.494c0.964,0.966,1.494,2.247,1.494,3.61
		c0,1.36-0.528,2.64-1.491,3.605c-0.158,0.159-0.326,0.306-0.501,0.44c-0.243,0.244-5.182,5.181-7.772,7.772
		c5.727,5.709,14.998,14.95,21.451,21.357c2.643,2.624,3.98,5.58,3.98,8.788c0,0.498-0.033,1.006-0.102,1.517
		c0,0.438,0,37.041,0,37.041c0,1.656-1.342,3-3,3H70.001"/>
	<g>
		
			<linearGradient id="SVGID_1_" gradientUnits="userSpaceOnUse" x1="297.1602" y1="-342.7026" x2="297.1602" y2="-253.896" gradientTransform="matrix(1 0 0 -1 -237.5996 -239.9004)">
			<stop  offset="0" style="stop-color:#48A2FB"/>
			<stop  offset="0.1758" style="stop-color:#059CF4"/>
			<stop  offset="0.4969" style="stop-color:#0398EF"/>
			<stop  offset="0.782" style="stop-color:#0293E7"/>
			<stop  offset="1" style="stop-color:#0189D8"/>
		</linearGradient>
		<path fill="url(#SVGID_1_)" d="M39,58.51l-3.812-0.601l-6.079-41.371l2.673-2.45l40.919,6.246l0.777,3.694L39,58.51L39,58.51z
			 M38.629,58.941c-0.822,0.822-2.154,0.822-2.976,0c-0.822-0.821-0.822-2.153,0-2.976c0.821-0.821,2.154-0.821,2.976,0
			C39.45,56.788,39.45,58.121,38.629,58.941L38.629,58.941z M73.8,23.771c-0.821,0.822-2.153,0.822-2.976,0
			c-0.822-0.821-0.822-2.154,0-2.976c0.82-0.821,2.152-0.821,2.976,0C74.621,21.617,74.621,22.95,73.8,23.771L73.8,23.771z
			 M32.629,17.586c-0.822,0.822-2.154,0.822-2.976,0c-0.822-0.821-0.822-2.152,0-2.974c0.822-0.822,2.154-0.822,2.976,0
			C33.451,15.434,33.451,16.765,32.629,17.586L32.629,17.586z M70.001,102.803V53.208l19.981,11.989v37.605H70.001L70.001,102.803z
			 M86.854,71.594l-7.002,7.051L45.928,44.7l14.031-14.031c0,0,16.977,16.938,27.029,26.918
			C94.029,64.578,86.854,71.594,86.854,71.594L86.854,71.594z"/>
	</g>
	
		<linearGradient id="SVGID_2_" gradientUnits="userSpaceOnUse" x1="288.6719" y1="-272.0874" x2="288.6719" y2="-255.1543" gradientTransform="matrix(1 0 0 -1 -237.5996 -239.9004)">
		<stop  offset="0" style="stop-color:#FFFFFF;stop-opacity:0"/>
		<stop  offset="1" style="stop-color:#FFFFFF;stop-opacity:0.8"/>
	</linearGradient>
	<path fill="url(#SVGID_2_)" d="M32.982,15.254c0,0,37.448,5.752,38.551,6.248c-34.811-5.035-39.362,10.685-39.362,10.685
		L30.61,17.205L32.982,15.254L32.982,15.254z"/>
</g>
<g id="green">
	<path fill-opacity="0.1" d="M72.001,107.803c-1.658,0-3-1.343-3-3c0,0,0-30.467,0-32.773c-1.505-1.506-11.029-11.036-11.029-11.036
		s-4.172-4.174-6.603-6.607c-2.665,2.665-8.094,8.094-8.187,8.186c-0.128,0.168-0.269,0.328-0.42,0.48
		c-0.001,0.002-0.004,0.004-0.008,0.008c-0.962,0.967-2.245,1.5-3.613,1.5c-1.363,0-2.644-0.531-3.61-1.494
		c-0.964-0.967-1.494-2.248-1.494-3.61c0-0.099,0.003-0.2,0.009-0.302c-0.101-0.688-1.459-9.919-1.459-9.919
		s-4.335-29.487-4.39-29.862c-0.106-0.413-0.16-0.839-0.16-1.271c0-1.368,0.532-2.651,1.499-3.613
		c0.966-0.962,2.245-1.491,3.605-1.491c0.408,0,0.811,0.048,1.203,0.142c0.215,0.032,38.88,5.937,39.64,6.052
		c0.108-0.006,0.219-0.011,0.326-0.011c1.363,0,2.646,0.53,3.61,1.494c0.964,0.966,1.494,2.247,1.494,3.61
		c0,1.36-0.528,2.64-1.491,3.605c-0.158,0.159-0.326,0.306-0.501,0.44c-0.243,0.244-5.182,5.181-7.772,7.772
		c5.727,5.709,14.998,14.95,21.451,21.357c2.643,2.624,3.98,5.58,3.98,8.788c0,0.498-0.033,1.006-0.102,1.517
		c0,0.438,0,37.041,0,37.041c0,1.656-1.342,3-3,3H72.001"/>
	<path fill="#015911" d="M70.001,105.803c-1.658,0-3-1.343-3-3c0,0,0-30.467,0-32.773c-1.505-1.506-11.029-11.036-11.029-11.036
		s-4.172-4.174-6.603-6.607c-2.665,2.665-8.094,8.094-8.187,8.186c-0.128,0.168-0.269,0.328-0.42,0.48
		c-0.001,0.002-0.004,0.004-0.008,0.008c-0.962,0.967-2.245,1.5-3.613,1.5c-1.363,0-2.644-0.531-3.61-1.494
		c-0.964-0.967-1.494-2.248-1.494-3.61c0-0.099,0.003-0.2,0.009-0.301c-0.101-0.688-1.459-9.92-1.459-9.92
		s-4.335-29.487-4.39-29.862c-0.106-0.413-0.16-0.839-0.16-1.271c0-1.368,0.532-2.651,1.499-3.613
		c0.966-0.962,2.245-1.491,3.605-1.491c0.408,0,0.811,0.048,1.203,0.142c0.215,0.032,38.88,5.937,39.64,6.052
		c0.108-0.006,0.219-0.011,0.326-0.011c1.363,0,2.646,0.53,3.61,1.494c0.964,0.966,1.494,2.247,1.494,3.61
		c0,1.36-0.528,2.64-1.491,3.605c-0.158,0.159-0.326,0.306-0.501,0.44c-0.243,0.244-5.182,5.181-7.772,7.772
		c5.727,5.709,14.998,14.95,21.451,21.357c2.643,2.624,3.98,5.58,3.98,8.788c0,0.498-0.033,1.006-0.102,1.517
		c0,0.438,0,37.041,0,37.041c0,1.656-1.342,3-3,3H70.001"/>
	<g>
		
			<linearGradient id="SVGID_3_" gradientUnits="userSpaceOnUse" x1="297.1602" y1="-342.7026" x2="297.1602" y2="-253.896" gradientTransform="matrix(1 0 0 -1 -237.5996 -239.9004)">
			<stop  offset="0" style="stop-color:#00DF34"/>
			<stop  offset="0.1758" style="stop-color:#00CD26"/>
			<stop  offset="0.4969" style="stop-color:#00B211"/>
			<stop  offset="0.782" style="stop-color:#00A204"/>
			<stop  offset="1" style="stop-color:#009C00"/>
		</linearGradient>
		<path fill="url(#SVGID_3_)" d="M39,58.51l-3.812-0.601l-6.079-41.371l2.673-2.45l40.919,6.246l0.777,3.694L39,58.51L39,58.51z
			 M38.629,58.941c-0.822,0.822-2.154,0.822-2.976,0c-0.822-0.821-0.822-2.153,0-2.976c0.821-0.821,2.154-0.821,2.976,0
			C39.45,56.788,39.45,58.121,38.629,58.941L38.629,58.941z M73.8,23.771c-0.821,0.822-2.153,0.822-2.976,0
			c-0.822-0.821-0.822-2.154,0-2.976c0.82-0.821,2.152-0.821,2.976,0C74.621,21.617,74.621,22.95,73.8,23.771L73.8,23.771z
			 M32.629,17.586c-0.822,0.822-2.154,0.822-2.976,0c-0.822-0.821-0.822-2.152,0-2.974c0.822-0.822,2.154-0.822,2.976,0
			C33.451,15.434,33.451,16.765,32.629,17.586L32.629,17.586z M70.001,102.803V53.208l19.981,11.989v37.605H70.001L70.001,102.803z
			 M86.854,71.594l-7.002,7.051L45.928,44.7l14.031-14.031c0,0,16.977,16.938,27.029,26.918
			C94.029,64.578,86.854,71.594,86.854,71.594L86.854,71.594z"/>
	</g>
	
		<linearGradient id="SVGID_4_" gradientUnits="userSpaceOnUse" x1="288.6719" y1="-272.0874" x2="288.6719" y2="-255.1543" gradientTransform="matrix(1 0 0 -1 -237.5996 -239.9004)">
		<stop  offset="0" style="stop-color:#FFFFFF;stop-opacity:0"/>
		<stop  offset="1" style="stop-color:#FFFFFF;stop-opacity:0.8"/>
	</linearGradient>
	<path fill="url(#SVGID_4_)" d="M32.982,15.254c0,0,37.448,5.752,38.551,6.248c-34.811-5.035-39.362,10.685-39.362,10.685
		L30.61,17.205L32.982,15.254L32.982,15.254z"/>
</g>
<g id="kia">
	<path fill-opacity="0.1" d="M72.001,107.803c-1.658,0-3-1.343-3-3c0,0,0-30.467,0-32.773c-1.505-1.506-11.029-11.036-11.029-11.036
		s-4.172-4.174-6.603-6.607c-2.665,2.665-8.094,8.094-8.187,8.186c-0.128,0.168-0.269,0.328-0.42,0.48
		c-0.001,0.002-0.004,0.004-0.008,0.008c-0.962,0.967-2.245,1.5-3.613,1.5c-1.363,0-2.644-0.531-3.61-1.494
		c-0.964-0.967-1.494-2.248-1.494-3.61c0-0.099,0.003-0.2,0.009-0.302c-0.101-0.688-1.459-9.919-1.459-9.919
		s-4.335-29.487-4.39-29.862c-0.106-0.413-0.16-0.839-0.16-1.271c0-1.368,0.532-2.651,1.499-3.613
		c0.966-0.962,2.245-1.491,3.605-1.491c0.408,0,0.811,0.048,1.203,0.142c0.215,0.032,38.88,5.937,39.64,6.052
		c0.108-0.006,0.219-0.011,0.326-0.011c1.363,0,2.646,0.53,3.61,1.494c0.964,0.966,1.494,2.247,1.494,3.61
		c0,1.36-0.528,2.64-1.491,3.605c-0.158,0.159-0.326,0.306-0.501,0.44c-0.243,0.244-5.182,5.181-7.772,7.772
		c5.727,5.709,14.998,14.95,21.451,21.357c2.643,2.624,3.98,5.58,3.98,8.788c0,0.498-0.033,1.006-0.102,1.517
		c0,0.438,0,37.041,0,37.041c0,1.656-1.342,3-3,3H72.001"/>
	<path fill="#000000" d="M70.001,105.803c-1.658,0-3-1.343-3-3c0,0,0-30.467,0-32.773c-1.505-1.506-11.029-11.036-11.029-11.036
		s-4.172-4.174-6.603-6.607c-2.665,2.665-8.094,8.094-8.187,8.186c-0.128,0.168-0.269,0.328-0.42,0.48
		c-0.001,0.002-0.004,0.004-0.008,0.008c-0.962,0.967-2.245,1.5-3.613,1.5c-1.363,0-2.644-0.531-3.61-1.494
		c-0.964-0.967-1.494-2.248-1.494-3.61c0-0.099,0.003-0.2,0.009-0.301c-0.101-0.688-1.459-9.92-1.459-9.92
		s-4.335-29.487-4.39-29.862c-0.106-0.413-0.16-0.839-0.16-1.271c0-1.368,0.532-2.651,1.499-3.613
		c0.966-0.962,2.245-1.491,3.605-1.491c0.408,0,0.811,0.048,1.203,0.142c0.215,0.032,38.88,5.937,39.64,6.052
		c0.108-0.006,0.219-0.011,0.326-0.011c1.363,0,2.646,0.53,3.61,1.494c0.964,0.966,1.494,2.247,1.494,3.61
		c0,1.36-0.528,2.64-1.491,3.605c-0.158,0.159-0.326,0.306-0.501,0.44c-0.243,0.244-5.182,5.181-7.772,7.772
		c5.727,5.709,14.998,14.95,21.451,21.357c2.643,2.624,3.98,5.58,3.98,8.788c0,0.498-0.033,1.006-0.102,1.517
		c0,0.438,0,37.041,0,37.041c0,1.656-1.342,3-3,3H70.001"/>
	<g>
		
			<linearGradient id="SVGID_5_" gradientUnits="userSpaceOnUse" x1="297.1602" y1="-342.7026" x2="297.1602" y2="-253.896" gradientTransform="matrix(1 0 0 -1 -237.5996 -239.9004)">
			<stop  offset="0" style="stop-color:#FFFFFF"/>
			<stop  offset="0.1758" style="stop-color:#E7E9EA"/>
			<stop  offset="0.4969" style="stop-color:#CDD2D5"/>
			<stop  offset="0.782" style="stop-color:#C5CACC"/>
			<stop  offset="1" style="stop-color:#BABDC0"/>
		</linearGradient>
		<path fill="url(#SVGID_5_)" d="M39,58.51l-3.812-0.601l-6.079-41.371l2.673-2.45l40.919,6.246l0.777,3.694L39,58.51L39,58.51z
			 M38.629,58.941c-0.822,0.822-2.154,0.822-2.976,0c-0.822-0.821-0.822-2.153,0-2.976c0.821-0.821,2.154-0.821,2.976,0
			C39.45,56.788,39.45,58.121,38.629,58.941L38.629,58.941z M73.8,23.771c-0.821,0.822-2.153,0.822-2.976,0
			c-0.822-0.821-0.822-2.154,0-2.976c0.82-0.821,2.152-0.821,2.976,0C74.621,21.617,74.621,22.95,73.8,23.771L73.8,23.771z
			 M32.629,17.586c-0.822,0.822-2.154,0.822-2.976,0c-0.822-0.821-0.822-2.152,0-2.974c0.822-0.822,2.154-0.822,2.976,0
			C33.451,15.434,33.451,16.765,32.629,17.586L32.629,17.586z M70.001,102.803V53.208l19.981,11.989v37.605H70.001L70.001,102.803z
			 M86.854,71.594l-7.002,7.051L45.928,44.7l14.031-14.031c0,0,16.977,16.938,27.029,26.918
			C94.029,64.578,86.854,71.594,86.854,71.594L86.854,71.594z"/>
	</g>
	
		<linearGradient id="SVGID_6_" gradientUnits="userSpaceOnUse" x1="288.6719" y1="-272.0874" x2="288.6719" y2="-255.1543" gradientTransform="matrix(1 0 0 -1 -237.5996 -239.9004)">
		<stop  offset="0" style="stop-color:#FFFFFF;stop-opacity:0"/>
		<stop  offset="1" style="stop-color:#FFFFFF;stop-opacity:0.8"/>
	</linearGradient>
	<path fill="url(#SVGID_6_)" d="M32.982,15.254c0,0,37.448,5.752,38.551,6.248c-34.811-5.035-39.362,10.685-39.362,10.685
		L30.61,17.205L32.982,15.254L32.982,15.254z"/>
</g>
<g id="orange">
	<path fill-opacity="0.1" d="M72.001,107.803c-1.658,0-3-1.343-3-3c0,0,0-30.467,0-32.773c-1.505-1.506-11.029-11.036-11.029-11.036
		s-4.172-4.174-6.603-6.607c-2.665,2.665-8.094,8.094-8.187,8.186c-0.128,0.168-0.269,0.328-0.42,0.48
		c-0.001,0.002-0.004,0.004-0.008,0.008c-0.962,0.967-2.245,1.5-3.613,1.5c-1.363,0-2.644-0.531-3.61-1.494
		c-0.964-0.967-1.494-2.248-1.494-3.61c0-0.099,0.003-0.2,0.009-0.302c-0.101-0.688-1.459-9.919-1.459-9.919
		s-4.335-29.487-4.39-29.862c-0.106-0.413-0.16-0.839-0.16-1.271c0-1.368,0.532-2.651,1.499-3.613
		c0.966-0.962,2.245-1.491,3.605-1.491c0.408,0,0.811,0.048,1.203,0.142c0.215,0.032,38.88,5.937,39.64,6.052
		c0.108-0.006,0.219-0.011,0.326-0.011c1.363,0,2.646,0.53,3.61,1.494c0.964,0.966,1.494,2.247,1.494,3.61
		c0,1.36-0.528,2.64-1.491,3.605c-0.158,0.159-0.326,0.306-0.501,0.44c-0.243,0.244-5.182,5.181-7.772,7.772
		c5.727,5.709,14.998,14.95,21.451,21.357c2.643,2.624,3.98,5.58,3.98,8.788c0,0.498-0.033,1.006-0.102,1.517
		c0,0.438,0,37.041,0,37.041c0,1.656-1.342,3-3,3H72.001"/>
	<path fill="#A43C10" d="M70.001,105.803c-1.658,0-3-1.343-3-3c0,0,0-30.467,0-32.773c-1.505-1.506-11.029-11.036-11.029-11.036
		s-4.172-4.174-6.603-6.607c-2.665,2.665-8.094,8.094-8.187,8.186c-0.128,0.168-0.269,0.328-0.42,0.48
		c-0.001,0.002-0.004,0.004-0.008,0.008c-0.962,0.967-2.245,1.5-3.613,1.5c-1.363,0-2.644-0.531-3.61-1.494
		c-0.964-0.967-1.494-2.248-1.494-3.61c0-0.099,0.003-0.2,0.009-0.301c-0.101-0.688-1.459-9.92-1.459-9.92
		s-4.335-29.487-4.39-29.862c-0.106-0.413-0.16-0.839-0.16-1.271c0-1.368,0.532-2.651,1.499-3.613
		c0.966-0.962,2.245-1.491,3.605-1.491c0.408,0,0.811,0.048,1.203,0.142c0.215,0.032,38.88,5.937,39.64,6.052
		c0.108-0.006,0.219-0.011,0.326-0.011c1.363,0,2.646,0.53,3.61,1.494c0.964,0.966,1.494,2.247,1.494,3.61
		c0,1.36-0.528,2.64-1.491,3.605c-0.158,0.159-0.326,0.306-0.501,0.44c-0.243,0.244-5.182,5.181-7.772,7.772
		c5.727,5.709,14.998,14.95,21.451,21.357c2.643,2.624,3.98,5.58,3.98,8.788c0,0.498-0.033,1.006-0.102,1.517
		c0,0.438,0,37.041,0,37.041c0,1.656-1.342,3-3,3H70.001"/>
	<g>
		
			<linearGradient id="SVGID_7_" gradientUnits="userSpaceOnUse" x1="297.1602" y1="-342.7026" x2="297.1602" y2="-253.896" gradientTransform="matrix(1 0 0 -1 -237.5996 -239.9004)">
			<stop  offset="0" style="stop-color:#FEDF34"/>
			<stop  offset="0.1758" style="stop-color:#FECD26"/>
			<stop  offset="0.4969" style="stop-color:#FFB211"/>
			<stop  offset="0.782" style="stop-color:#FFA204"/>
			<stop  offset="1" style="stop-color:#FF9C00"/>
		</linearGradient>
		<path fill="url(#SVGID_7_)" d="M39,58.51l-3.812-0.601l-6.079-41.371l2.673-2.45l40.919,6.246l0.777,3.694L39,58.51L39,58.51z
			 M38.629,58.941c-0.822,0.822-2.154,0.822-2.976,0c-0.822-0.821-0.822-2.153,0-2.976c0.821-0.821,2.154-0.821,2.976,0
			C39.45,56.788,39.45,58.121,38.629,58.941L38.629,58.941z M73.8,23.771c-0.821,0.822-2.153,0.822-2.976,0
			c-0.822-0.821-0.822-2.154,0-2.976c0.82-0.821,2.152-0.821,2.976,0C74.621,21.617,74.621,22.95,73.8,23.771L73.8,23.771z
			 M32.629,17.586c-0.822,0.822-2.154,0.822-2.976,0c-0.822-0.821-0.822-2.152,0-2.974c0.822-0.822,2.154-0.822,2.976,0
			C33.451,15.434,33.451,16.765,32.629,17.586L32.629,17.586z M70.001,102.803V53.208l19.981,11.989v37.605H70.001L70.001,102.803z
			 M86.854,71.594l-7.002,7.051L45.928,44.7l14.031-14.031c0,0,16.977,16.938,27.029,26.918
			C94.029,64.578,86.854,71.594,86.854,71.594L86.854,71.594z"/>
	</g>
	
		<linearGradient id="SVGID_8_" gradientUnits="userSpaceOnUse" x1="288.6719" y1="-272.0874" x2="288.6719" y2="-255.1543" gradientTransform="matrix(1 0 0 -1 -237.5996 -239.9004)">
		<stop  offset="0" style="stop-color:#FFFFFF;stop-opacity:0"/>
		<stop  offset="1" style="stop-color:#FFFFFF;stop-opacity:0.8"/>
	</linearGradient>
	<path fill="url(#SVGID_8_)" d="M32.982,15.254c0,0,37.448,5.752,38.551,6.248c-34.811-5.035-39.362,10.685-39.362,10.685
		L30.61,17.205L32.982,15.254L32.982,15.254z"/>
</g>
<g id="red">
	<path fill-opacity="0.1" d="M72.001,107.803c-1.658,0-3-1.343-3-3c0,0,0-30.467,0-32.773c-1.505-1.506-11.029-11.036-11.029-11.036
		s-4.172-4.174-6.603-6.607c-2.665,2.665-8.094,8.094-8.187,8.186c-0.128,0.168-0.269,0.328-0.42,0.48
		c-0.001,0.002-0.004,0.004-0.008,0.008c-0.962,0.967-2.245,1.5-3.613,1.5c-1.363,0-2.644-0.531-3.61-1.494
		c-0.964-0.967-1.494-2.248-1.494-3.61c0-0.099,0.003-0.2,0.009-0.302c-0.101-0.688-1.459-9.919-1.459-9.919
		s-4.335-29.487-4.39-29.862c-0.106-0.413-0.16-0.839-0.16-1.271c0-1.368,0.532-2.651,1.499-3.613
		c0.966-0.962,2.245-1.491,3.605-1.491c0.408,0,0.811,0.048,1.203,0.142c0.215,0.032,38.88,5.937,39.64,6.052
		c0.108-0.006,0.219-0.011,0.326-0.011c1.363,0,2.646,0.53,3.61,1.494c0.964,0.966,1.494,2.247,1.494,3.61
		c0,1.36-0.528,2.64-1.491,3.605c-0.158,0.159-0.326,0.306-0.501,0.44c-0.243,0.244-5.182,5.181-7.772,7.772
		c5.727,5.709,14.998,14.95,21.451,21.357c2.643,2.624,3.98,5.58,3.98,8.788c0,0.498-0.033,1.006-0.102,1.517
		c0,0.438,0,37.041,0,37.041c0,1.656-1.342,3-3,3H72.001"/>
	<path fill="#940202" d="M70.001,105.803c-1.658,0-3-1.343-3-3c0,0,0-30.467,0-32.773c-1.505-1.506-11.029-11.036-11.029-11.036
		s-4.172-4.174-6.603-6.607c-2.665,2.665-8.094,8.094-8.187,8.186c-0.128,0.168-0.269,0.328-0.42,0.48
		c-0.001,0.002-0.004,0.004-0.008,0.008c-0.962,0.967-2.245,1.5-3.613,1.5c-1.363,0-2.644-0.531-3.61-1.494
		c-0.964-0.967-1.494-2.248-1.494-3.61c0-0.099,0.003-0.2,0.009-0.301c-0.101-0.688-1.459-9.92-1.459-9.92
		s-4.335-29.487-4.39-29.862c-0.106-0.413-0.16-0.839-0.16-1.271c0-1.368,0.532-2.651,1.499-3.613
		c0.966-0.962,2.245-1.491,3.605-1.491c0.408,0,0.811,0.048,1.203,0.142c0.215,0.032,38.88,5.937,39.64,6.052
		c0.108-0.006,0.219-0.011,0.326-0.011c1.363,0,2.646,0.53,3.61,1.494c0.964,0.966,1.494,2.247,1.494,3.61
		c0,1.36-0.528,2.64-1.491,3.605c-0.158,0.159-0.326,0.306-0.501,0.44c-0.243,0.244-5.182,5.181-7.772,7.772
		c5.727,5.709,14.998,14.95,21.451,21.357c2.643,2.624,3.98,5.58,3.98,8.788c0,0.498-0.033,1.006-0.102,1.517
		c0,0.438,0,37.041,0,37.041c0,1.656-1.342,3-3,3H70.001"/>
	<g>
		
			<linearGradient id="SVGID_9_" gradientUnits="userSpaceOnUse" x1="297.1602" y1="-342.7026" x2="297.1602" y2="-253.896" gradientTransform="matrix(1 0 0 -1 -237.5996 -239.9004)">
			<stop  offset="0" style="stop-color:#FF0000"/>
			<stop  offset="0.1758" style="stop-color:#F60303"/>
			<stop  offset="0.4969" style="stop-color:#EC0404"/>
			<stop  offset="0.782" style="stop-color:#E30101"/>
			<stop  offset="1" style="stop-color:#D60202"/>
		</linearGradient>
		<path fill="url(#SVGID_9_)" d="M39,58.51l-3.812-0.601l-6.079-41.371l2.673-2.45l40.919,6.246l0.777,3.694L39,58.51L39,58.51z
			 M38.629,58.941c-0.822,0.822-2.154,0.822-2.976,0c-0.822-0.821-0.822-2.153,0-2.976c0.821-0.821,2.154-0.821,2.976,0
			C39.45,56.788,39.45,58.121,38.629,58.941L38.629,58.941z M73.8,23.771c-0.821,0.822-2.153,0.822-2.976,0
			c-0.822-0.821-0.822-2.154,0-2.976c0.82-0.821,2.152-0.821,2.976,0C74.621,21.617,74.621,22.95,73.8,23.771L73.8,23.771z
			 M32.629,17.586c-0.822,0.822-2.154,0.822-2.976,0c-0.822-0.821-0.822-2.152,0-2.974c0.822-0.822,2.154-0.822,2.976,0
			C33.451,15.434,33.451,16.765,32.629,17.586L32.629,17.586z M70.001,102.803V53.208l19.981,11.989v37.605H70.001L70.001,102.803z
			 M86.854,71.594l-7.002,7.051L45.928,44.7l14.031-14.031c0,0,16.977,16.938,27.029,26.918
			C94.029,64.578,86.854,71.594,86.854,71.594L86.854,71.594z"/>
	</g>
	
		<linearGradient id="SVGID_10_" gradientUnits="userSpaceOnUse" x1="288.6719" y1="-272.0874" x2="288.6719" y2="-255.1543" gradientTransform="matrix(1 0 0 -1 -237.5996 -239.9004)">
		<stop  offset="0" style="stop-color:#FFFFFF;stop-opacity:0"/>
		<stop  offset="1" style="stop-color:#FFFFFF;stop-opacity:0.8"/>
	</linearGradient>
	<path fill="url(#SVGID_10_)" d="M32.982,15.254c0,0,37.448,5.752,38.551,6.248c-34.811-5.035-39.362,10.685-39.362,10.685
		L30.61,17.205L32.982,15.254L32.982,15.254z"/>
</g>
</svg>
