<?xml version="1.0" encoding="utf-8"?>
<!-- Generator: Adobe Illustrator 16.0.2, SVG Export Plug-In . SVG Version: 6.00 Build 0)  -->
<!DOCTYPE svg PUBLIC "-//W3C//DTD SVG 1.1//EN" "http://www.w3.org/Graphics/SVG/1.1/DTD/svg11.dtd">
<svg version="1.1" id="Layer_1" xmlns="http://www.w3.org/2000/svg" xmlns:xlink="http://www.w3.org/1999/xlink" x="0px" y="0px"
	 width="144px" height="84px" viewBox="0 0 144 84" enable-background="new 0 0 144 84" xml:space="preserve">
<path opacity="1" fill="#000000" enable-background="new    " d="M135.4,80.7C128.8,84.1-3.2,82.3-3.2,82.3l-68.2-104L-1-122
	l138.6,1.1c0,0,68.2,88.8,68.2,101.3C205.9-7,147,74.4,135.4,80.7L135.4,80.7z M-18,0v-63h825V0H-18L-18,0z"/>
<path opacity="1" fill="#000000" enable-background="new    " d="M135.2,80.2C128.6,83.6-3.4,81.8-3.4,81.8l-68.2-104l70.4-100.3
	l138.601,1.1c0,0,68.199,88.8,68.199,101.3C205.7-7.5,146.8,73.9,135.2,80.2L135.2,80.2z M-18.2,0v-63h825.001V0H-18.2L-18.2,0z"/>
<path opacity="1" fill="#000000" enable-background="new    " d="M134.9,79.2C128.3,82.6-3.7,80.8-3.7,80.8L-72-23.2l70.4-100.3
	l138.6,1.1c0,0,68.2,88.8,68.2,101.3C205.4-8.5,146.6,72.9,134.9,79.2L134.9,79.2z M-18.5,0v-63h825V0H-18.5L-18.5,0z"/>
<path opacity="1" fill="#000000" enable-background="new    " d="M134.6,78.2C128,81.6-4,79.8-4,79.8l-68.2-104l70.4-100.3
	l138.6,1.1c0,0,68.2,88.8,68.2,101.3C205.1-9.5,146.2,71.9,134.6,78.2L134.6,78.2z M-18.8,0v-63h824.999V0H-18.8L-18.8,0z"/>
<linearGradient id="SVGID_1_" gradientUnits="userSpaceOnUse" x1="-105.9995" y1="-1448.9893" x2="772.4004" y2="-1448.9893" gradientTransform="matrix(1 0 0 -1 33.5996 -1471.6016)">
	<stop  offset="0" style="stop-color:#FFFFFF"/>
	<stop  offset="1" style="stop-color:#FFFFFF"/>
</linearGradient>
<path fill="url(#SVGID_1_)" d="M134.4,77.7C127.8,81.1-4.2,79.3-4.2,79.3l-68.2-104L-2-125l138.6,1.1c0,0,68.2,88.8,68.2,101.3
	C204.9-10,146,71.4,134.4,77.7L134.4,77.7z M-19,61V-2h825v63H-19L-19,61z"/>
</svg>
