<?xml version="1.0" encoding="UTF-8"?>
<!DOCTYPE svg PUBLIC "-//W3C//DTD SVG 1.1//EN" "http://www.w3.org/Graphics/SVG/1.1/DTD/svg11.dtd">
<!-- Creator: CorelDRAW X7 -->
<svg xmlns="http://www.w3.org/2000/svg" xml:space="preserve" width="0.866748in" height="0.866748in" version="1.1" style="shape-rendering:geometricPrecision; text-rendering:geometricPrecision; image-rendering:optimizeQuality; fill-rule:evenodd; clip-rule:evenodd"
viewBox="0 0 90 90"
 xmlns:xlink="http://www.w3.org/1999/xlink">
 <defs>
  <style type="text/css">
   <![CDATA[
    .fil1 {fill:none}
    .fil0 {fill:black}
   ]]>
  </style>
 </defs>
 <g id="Layer_x0020_1">
  <metadata id="CorelCorpID_0Corel-Layer"/>
  <g id="_2299867672944">
   <path class="fil0" d="M67 15l6 16 3 -3c8,13 6,31 -6,42 -12,13 -31,14 -45,4l1 5 -7 -2c17,13 40,12 55,-3 14,-14 16,-35 6,-50l4 -4 -17 -5zm-47 5c-12,11 -14,29 -6,42l3 -3 6 16 -17 -5 4 -4c-10,-16 -8,-36 6,-50 15,-15 38,-16 55,-3l-7 -2 1 4c-14,-9 -33,-8 -45,5zm10 27l11 -26 19 0 -15 20 14 0 -29 32 13 -26 -13 0z"/>
   <polygon class="fil1" points="0,0 90,0 90,90 0,90 "/>
  </g>
 </g>
</svg>
