<?xml version="1.0" encoding="UTF-8"?>
<!DOCTYPE svg PUBLIC "-//W3C//DTD SVG 1.1//EN" "http://www.w3.org/Graphics/SVG/1.1/DTD/svg11.dtd">
<!-- Creator: CorelDRAW X7 -->
<svg xmlns="http://www.w3.org/2000/svg" xml:space="preserve" width="0.866748in" height="0.866748in" version="1.1" style="shape-rendering:geometricPrecision; text-rendering:geometricPrecision; image-rendering:optimizeQuality; fill-rule:evenodd; clip-rule:evenodd"
viewBox="0 0 123 123"
 xmlns:xlink="http://www.w3.org/1999/xlink">
 <defs>
  <style type="text/css">
   <![CDATA[
    .fil1 {fill:none}
    .fil0 {fill:black}
    .fil2 {fill:#959699}
   ]]>
  </style>
 </defs>
 <g id="Layer_x0020_1">
  <metadata id="CorelCorpID_0Corel-Layer"/>
  <g id="_2299867699376">
   <path class="fil0" d="M37 114c5,-1 8,-6 7,-11 -1,-6 -7,-9 -12,-7 -5,1 -8,6 -7,11 2,6 7,9 12,7zm54 -80l-1 21 -5 -4 -36 48 -11 -8 37 -47 -5 -4 21 -6zm8 1c5,-1 8,-6 7,-11 -2,-6 -7,-9 -12,-7 -5,1 -8,6 -7,11 2,6 7,9 12,7z"/>
   <polygon class="fil1" points="0,0 123,0 123,123 0,123 "/>
   <path class="fil2" d="M105 33l-1 24 6 -3c3,21 -8,43 -28,52 -12,5 -25,6 -36,2 -1,2 -3,5 -5,6 14,5 30,5 44,-1 24,-11 37,-37 32,-62l6 -3 -18 -15z"/>
  </g>
 </g>
</svg>
