<svg viewBox="0 0 120 120">
<svg width="120" height="120" xmlns="http://www.w3.org/2000/svg"><linearGradient id="a" x1=".5" y1="0" x2=".5" y2="1"><stop offset=".003" stop-color="#FFF"/><stop offset="1" stop-color="#DBE1DC"/></linearGradient><path fill="#fff" d="M19.258 2.124h81.412c5.302 1.512 10.024 5.845 10.039 11.51.007 23.888-.06 47.777.03 71.658.074 2.836-.216 5.78-1.577 8.334-1.792 3.422-5.592 5.686-9.503 5.882-20.866 0-41.725-.007-62.59.007-5.63 5.18-11.051 10.57-16.546 15.88-1.183 1.288-3.19 1.317-4.425 2.481H14.99c-2.38-.824-4.358-2.264-5.242-4.63.052-3.537-.566-7.039-.491-10.57.044-29.95.022-59.909.037-89.86.424-5.31 4.975-9.195 9.964-10.692m-7.294 12.298c-.097 12.784.066 25.567-.484 38.343-.111 13.753.097 27.513.067 41.274.729 6.084.305 12.226.417 18.346.75 2.033 2.558 3.039 4.736 2.626 1.755-1.063 3.243-2.46 4.64-3.92 4.797-4.616 9.772-9.051 14.538-13.688 21 .007 42 .007 63-.044 3.339-.145 6.365-2.17 8.09-4.89 1.02-1.968 1.086-4.24 1.376-6.381-.044-17.385.536-34.777-.044-52.161-.023-6.75-.647-13.485-.454-20.235.431-4.739-4.224-8.61-8.834-8.805-25.834-.13-51.674-.08-77.508-.087-5.153-.159-10.202 4.486-9.54 9.622z"/><path fill="url(#a)" d="M11.964 14.422c-.662-5.136 4.387-9.78 9.54-9.622 25.834.008 51.674-.043 77.508.087 4.61.196 9.265 4.066 8.834 8.805-.193 6.75.431 13.485.454 20.235.58 17.384 0 34.776.044 52.16-.29 2.142-.357 4.414-1.375 6.382-1.726 2.72-4.752 4.745-8.091 4.89-21 .05-42 .05-63 .044-4.766 4.637-9.741 9.072-14.537 13.687-1.398 1.462-2.886 2.858-4.64 3.921-2.18.413-3.986-.593-4.738-2.626-.111-6.12.313-12.262-.416-18.346.03-13.76-.178-27.52-.067-41.274.55-12.776.387-25.56.484-38.343z"/><path d="M34.073 14.871c2.992-.322 6.147-.422 9.125.158.69 2.941 2.294 5.561 3.33 8.381 4.125 10.293 8.53 20.478 12.684 30.757-2.919-.057-5.845-.036-8.764-.065-1.177-3.013-2.331-6.04-3.728-8.968-5.456-.007-10.92.107-16.375-.072-1.677 2.892-2.449 6.149-3.963 9.105-2.897-.072-5.802-.05-8.699 0 4.699-11.617 9.662-23.127 14.36-34.744.662-1.524 1.089-3.163 2.03-4.552m4.286 9.098c-1.632 5.003-3.683 9.892-5.816 14.709 3.949-.029 7.905-.043 11.853.014-2.272-4.796-3.94-9.849-6.036-14.723h-.001zm32.26 20.177c10.01-.014 20.027.014 30.043-.021.006 2.347 0 4.695-.053 7.036-6.916-.058-13.832-.015-20.748-.022.013 3.157.033 6.313-.033 9.463 6.022.071 12.043-.022 18.058.05-.02 2.312-.02 4.624-.02 6.936-6.002.014-12.003-.008-18.005.014 0 5.655 0 11.31-.013 16.964-3.074.014-6.141.007-9.208.014-.014-13.478.013-26.956-.02-40.434h-.001z"/></svg>