<?xml version="1.0" encoding="utf-8"?>
<!-- Generator: Adobe Illustrator 16.0.2, SVG Export Plug-In . SVG Version: 6.00 Build 0)  -->
<!DOCTYPE svg PUBLIC "-//W3C//DTD SVG 1.1//EN" "http://www.w3.org/Graphics/SVG/1.1/DTD/svg11.dtd">
<svg version="1.1" id="Layer_1" xmlns="http://www.w3.org/2000/svg" xmlns:xlink="http://www.w3.org/1999/xlink" x="0px" y="0px"
	 width="132px" height="132px" viewBox="0 0 132 132" xml:space="preserve">
<g>
	<g id="LWPOLYLINE_3_">
		
			<linearGradient id="SVGID_1_" gradientUnits="userSpaceOnUse" x1="70.3398" y1="-539.1611" x2="11.2598" y2="-598.2411" gradientTransform="matrix(1 0 0 -1 25.1997 -502.7012)">
			<stop  offset="0" style="stop-color:#00ABF7"/>
			<stop  offset="1" style="stop-color:#1A1E7F"/>
		</linearGradient>
		<path fill="url(#SVGID_1_)" d="M38.688,96.346c-1.676,0-3.035-1.131-3.035-2.527V38.183c0-1.397,1.359-2.529,3.035-2.529h54.623
			c1.676,0,3.035,1.133,3.035,2.529v55.636c0,1.396-1.359,2.527-3.035,2.527H38.688L38.688,96.346z"/>
	</g>
	<g>
		<path fill="#FFFFFF" d="M87.517,62.224c-2.109-4.989-7.863-7.325-12.854-5.217c-3.168,1.339-5.404,4.239-5.891,7.644h-8.53v3.816
			h4.485c-0.729,1.84-2.538,3.016-4.513,2.932c-2.562-0.107-4.551-2.271-4.44-4.833c0.015-0.349,0.015-0.698,0-1.047
			c-0.068-1.628,0.722-3.175,2.083-4.071c2.141-1.411,5.02-0.819,6.429,1.321l4.378-2.026c-2.927-4.559-8.995-5.88-13.553-2.953
			c-4.559,2.927-5.88,8.996-2.953,13.554c2.928,4.559,8.995,5.879,13.554,2.951c1.663-1.066,2.965-2.613,3.734-4.436
			c2.109,4.99,7.863,7.324,12.854,5.217S89.625,67.215,87.517,62.224z M83.118,66.957c-0.108,2.563-2.271,4.551-4.833,4.441
			s-4.55-2.271-4.441-4.832c0.015-0.35,0.015-0.699,0-1.048c-0.006-0.13-0.006-0.262,0-0.393c0.108-2.562,2.272-4.549,4.834-4.44
			c2.562,0.108,4.55,2.272,4.44,4.833c-0.016,0.349-0.016,0.698,0,1.048C83.124,66.697,83.124,66.828,83.118,66.957z"/>
	</g>
	<g id="CIRCLE">
		<path fill="#FFFFFF" d="M46.958,59.416c0-0.539-0.438-0.977-0.978-0.977s-0.979,0.438-0.979,0.977c0,0.54,0.438,0.979,0.979,0.979
			S46.958,59.957,46.958,59.416L46.958,59.416z"/>
	</g>
	<g>
		<path fill="#FFFFFF" d="M45.981,56.159c-1.8,0-3.258,1.458-3.258,3.258c0,1.8,1.458,3.258,3.258,3.258
			c1.799,0,3.257-1.459,3.257-3.258C49.237,57.617,47.779,56.159,45.981,56.159z M45.981,61.316c-1.05,0-1.901-0.851-1.901-1.9
			c0-1.049,0.853-1.899,1.901-1.899s1.898,0.851,1.898,1.899C47.88,60.466,47.03,61.316,45.981,61.316z"/>
	</g>
	<g id="LWPOLYLINE_2_">
		<path fill="#FFFFFF" d="M43.698,75.85V63.177c1.402,0.851,3.161,0.851,4.563,0v12.675h-4.563V75.85z"/>
	</g>
</g>
<g>
	<g>
		
			<linearGradient id="SVGID_2_" gradientUnits="userSpaceOnUse" x1="-4.2295" y1="-586.8901" x2="78.9198" y2="-662.5681" gradientTransform="matrix(1 0 0 -1 25.1997 -502.7012)">
			<stop  offset="0" style="stop-color:#3A7C06"/>
			<stop  offset="0.168" style="stop-color:#41850C"/>
			<stop  offset="0.438" style="stop-color:#549C1D"/>
			<stop  offset="0.7744" style="stop-color:#74C239"/>
			<stop  offset="1" style="stop-color:#8CE04E"/>
		</linearGradient>
		<path fill="url(#SVGID_2_)" d="M16.017,81.887l16.794-0.297c0,0,8.63,33.445,39.958,36.194
			C27.064,124.654,16.058,83.676,16.017,81.887z"/>
		
			<linearGradient id="SVGID_3_" gradientUnits="userSpaceOnUse" x1="63.6577" y1="-673.2256" x2="88.2599" y2="-659.9373" gradientTransform="matrix(1 0 0 1 25.1997 768.5664)">
			<stop  offset="0.0109" style="stop-color:#3A7C06"/>
			<stop  offset="1" style="stop-color:#233C17"/>
		</linearGradient>
		<path fill="url(#SVGID_3_)" d="M126,80.563l-9.992,0.306l-1.105-0.005c-11.481,43.15-58.552,44.15-78.209,30.434
			c34.191,17.794,57.229-8.824,60.81-30.457l-11.925,0.256l-0.78-1.244l24.321-17.945l15.893,17.592l-4.104-0.198l4.289,0.396
			L126,80.563z"/>
		
			<linearGradient id="SVGID_4_" gradientUnits="userSpaceOnUse" x1="86.1211" y1="-704.4688" x2="40.9736" y2="-655.7703" gradientTransform="matrix(1 0 0 1 25.1997 768.5664)">
			<stop  offset="0" style="stop-color:#3A7C06"/>
			<stop  offset="0.168" style="stop-color:#41850C"/>
			<stop  offset="0.438" style="stop-color:#549C1D"/>
			<stop  offset="0.7744" style="stop-color:#74C239"/>
			<stop  offset="1" style="stop-color:#8CE04E"/>
		</linearGradient>
		<path fill="url(#SVGID_4_)" d="M37.271,111.674c19.846,13.848,67.838,13.588,78.736-30.808L126,80.563l-15.896-17.593
			L85.578,81.094c0,0,4.688-0.228,12.896-0.277C95.602,102.691,72.13,129.816,37.271,111.674z"/>
		<path opacity="0.3" fill="#FFFFFF" enable-background="new    " d="M36.692,111.295c0,0,12.116,7.604,26.772,6.051
			c11.793-0.974,30.128-10.465,35.011-36.527l-12.896,0.275l24.525-18.124l0.867,0.958L88.139,80.4h11.295
			c0,0-5.238,33.666-35.288,37.185C64.146,117.585,50.002,119.79,36.692,111.295z"/>
	</g>
	<g>
		
			<linearGradient id="SVGID_5_" gradientUnits="userSpaceOnUse" x1="81.0703" y1="-558.8076" x2="3.2225" y2="-447.218" gradientTransform="matrix(1 0 0 -1 25.1997 -502.7012)">
			<stop  offset="0" style="stop-color:#3A7C06"/>
			<stop  offset="0.168" style="stop-color:#41850C"/>
			<stop  offset="0.438" style="stop-color:#549C1D"/>
			<stop  offset="0.7744" style="stop-color:#74C239"/>
			<stop  offset="1" style="stop-color:#8CE04E"/>
		</linearGradient>
		<path fill="url(#SVGID_5_)" d="M115.98,50.114l-16.793,0.297c0,0-8.627-33.445-39.958-36.194
			C104.932,7.347,115.939,48.325,115.98,50.114z"/>
		
			<linearGradient id="SVGID_6_" gradientUnits="userSpaceOnUse" x1="-6503.0869" y1="-6345.3672" x2="-6478.4844" y2="-6332.0786" gradientTransform="matrix(-1 0 0 -1 -6459.9473 -6308.7051)">
			<stop  offset="0.0109" style="stop-color:#3A7C06"/>
			<stop  offset="1" style="stop-color:#233C17"/>
		</linearGradient>
		<path fill="url(#SVGID_6_)" d="M6,51.438l9.99-0.305l1.107,0.003C28.579,7.988,75.646,6.989,95.307,20.706
			C61.115,2.911,38.078,29.531,34.494,51.163l11.924-0.257l0.783,1.245L22.88,70.096L6.986,52.504l4.106,0.197l-4.29-0.396L6,51.438
			z"/>
		
			<linearGradient id="SVGID_7_" gradientUnits="userSpaceOnUse" x1="-6480.6255" y1="-6376.6099" x2="-6525.7744" y2="-6327.9102" gradientTransform="matrix(-1 0 0 -1 -6459.9473 -6308.7051)">
			<stop  offset="0" style="stop-color:#3A7C06"/>
			<stop  offset="0.168" style="stop-color:#41850C"/>
			<stop  offset="0.438" style="stop-color:#549C1D"/>
			<stop  offset="0.7744" style="stop-color:#74C239"/>
			<stop  offset="1" style="stop-color:#8CE04E"/>
		</linearGradient>
		<path fill="url(#SVGID_7_)" d="M94.729,20.326C74.881,6.479,26.888,6.739,15.99,51.134L6,51.439l15.893,17.592l24.525-18.125
			c0,0-4.684,0.229-12.894,0.276C36.396,29.31,59.869,2.184,94.729,20.326z"/>
		<path opacity="0.3" fill="#FFFFFF" enable-background="new    " d="M95.307,20.706c0,0-12.117-7.604-26.773-6.049
			c-11.797,0.972-30.128,10.463-35.01,36.527l12.894-0.277L21.892,69.031l-0.864-0.959L43.86,51.6H32.565
			c0,0,5.238-33.665,35.285-37.185C67.852,14.415,81.996,12.211,95.307,20.706z"/>
	</g>
</g>
</svg>
