<?xml version="1.0" encoding="UTF-8" ?>
<!DOCTYPE svg PUBLIC "-//W3C//DTD SVG 1.1//EN" "http://www.w3.org/Graphics/SVG/1.1/DTD/svg11.dtd">
<svg width="250pt" height="199pt" viewBox="0 0 250 199" version="1.1" xmlns="http://www.w3.org/2000/svg">
<g id="normal">
<path fill="#3a3129" opacity="1.00" d=" M 104.57 0.00 L 104.83 0.00 C 103.29 3.69 102.34 8.37 105.29 11.65 C 110.50 17.40 119.48 18.98 126.67 16.51 C 129.69 15.66 131.60 13.04 133.25 10.55 C 132.77 12.24 132.30 13.94 131.84 15.63 C 134.56 13.84 137.90 12.33 139.28 9.16 C 140.57 6.34 139.60 3.21 139.37 0.28 C 141.06 3.37 142.80 6.90 141.69 10.51 C 140.93 13.96 137.85 15.98 135.13 17.83 C 138.38 16.67 141.85 15.76 144.53 13.48 C 146.69 11.63 147.72 8.89 149.07 6.46 C 148.53 10.75 146.61 14.63 143.87 17.93 C 146.26 18.39 148.52 17.78 150.30 16.09 C 149.81 17.00 149.33 17.91 148.85 18.82 C 156.67 22.36 162.58 30.19 162.64 38.93 C 163.09 47.18 158.32 54.95 151.45 59.26 C 152.74 60.92 154.00 62.61 155.17 64.37 C 155.91 63.31 156.39 61.61 157.97 61.59 C 161.25 61.26 162.54 64.90 163.76 67.26 C 168.81 78.75 170.75 91.87 168.34 104.24 C 167.78 104.02 166.64 103.58 166.08 103.37 C 165.51 106.67 164.64 109.94 163.07 112.92 C 162.24 112.35 161.41 111.78 160.59 111.22 C 158.69 115.13 156.73 119.88 152.01 120.98 C 151.61 120.49 150.82 119.52 150.42 119.03 C 148.59 120.73 146.68 122.36 144.77 123.97 C 145.12 124.38 145.82 125.19 146.17 125.60 C 148.42 123.99 151.12 123.68 153.40 125.41 C 154.76 124.80 156.17 123.54 157.77 124.21 C 159.47 124.64 159.89 126.48 160.24 127.95 C 160.32 129.54 160.32 131.14 160.31 132.74 C 160.60 136.19 158.78 139.18 157.64 142.30 C 157.31 141.92 156.65 141.17 156.32 140.79 C 155.33 139.68 154.22 138.69 153.13 137.69 C 152.11 139.24 151.17 140.85 150.27 142.48 C 150.03 142.10 149.55 141.34 149.30 140.96 C 148.58 139.78 147.65 138.75 146.76 137.71 C 145.35 139.18 144.13 140.81 143.08 142.55 C 141.47 139.46 139.31 136.44 139.79 132.75 C 139.77 131.16 139.78 129.58 139.78 127.99 C 134.45 128.45 129.40 130.59 124.03 130.74 C 117.67 131.14 111.47 129.41 105.32 128.04 C 105.37 129.61 105.42 131.18 105.44 132.76 C 105.79 136.24 104.04 139.32 102.78 142.43 C 101.50 140.63 99.91 139.10 98.20 137.73 C 97.39 139.07 96.56 140.42 96.11 141.94 C 95.44 141.27 94.76 140.61 94.08 139.97 C 93.36 139.25 92.64 138.54 91.92 137.84 C 90.60 139.27 89.39 140.79 88.26 142.38 C 86.65 139.35 84.52 136.39 85.01 132.75 C 84.97 131.03 84.95 129.30 84.95 127.57 C 85.08 127.18 85.33 126.39 85.46 125.99 C 86.97 123.52 89.83 123.91 92.00 125.26 C 94.26 123.69 96.79 124.05 98.88 125.71 C 99.16 125.34 99.72 124.60 100.00 124.24 C 98.22 122.81 96.45 121.37 94.67 119.95 C 93.18 120.17 91.40 121.22 90.13 119.89 C 87.34 117.70 85.95 114.32 84.51 111.19 C 84.06 111.67 83.15 112.62 82.69 113.09 C 80.64 110.22 79.85 106.78 79.34 103.35 C 78.47 103.63 77.60 103.90 76.73 104.18 C 75.80 101.89 75.13 99.47 75.12 96.98 C 74.75 86.27 76.66 75.36 81.40 65.69 C 81.93 64.69 82.50 63.72 83.09 62.75 C 85.24 60.95 87.53 61.84 89.58 63.28 C 90.42 62.15 91.26 61.02 92.10 59.90 C 86.15 56.52 81.30 50.89 80.12 44.01 C 78.70 37.63 80.72 31.07 84.22 25.72 C 85.03 24.96 85.84 24.20 86.66 23.44 C 85.82 22.47 84.75 21.67 84.20 20.49 C 85.10 21.29 85.95 22.15 86.83 22.99 C 88.44 21.89 90.06 20.79 91.68 19.70 C 90.42 17.61 89.29 15.44 88.26 13.23 C 90.87 15.64 93.48 18.96 97.51 18.25 C 94.48 14.78 93.61 10.21 94.52 5.74 C 95.48 8.02 96.19 10.44 97.50 12.56 C 99.18 15.14 102.39 15.88 105.04 17.08 C 103.14 14.67 100.80 12.23 100.65 8.98 C 100.23 5.49 102.32 2.43 104.57 0.00 M 103.75 20.10 C 107.57 21.18 111.25 23.02 113.83 26.11 C 118.89 31.61 120.39 39.18 121.37 46.34 C 121.39 35.49 126.88 22.94 138.33 20.15 C 130.72 19.56 122.77 24.36 121.26 32.14 C 120.22 29.28 119.01 26.32 116.63 24.29 C 113.16 21.12 108.34 20.04 103.75 20.10 M 98.46 26.70 C 91.94 28.36 87.47 35.40 88.81 42.01 C 89.85 49.01 97.12 54.21 104.08 52.92 C 111.41 51.98 116.81 44.21 115.11 37.01 C 113.87 29.60 105.65 24.52 98.46 26.70 M 136.45 26.62 C 129.94 28.32 125.53 35.42 126.94 42.02 C 128.06 49.31 135.98 54.51 143.13 52.63 C 150.36 51.16 155.18 43.01 152.99 35.94 C 151.28 28.97 143.32 24.47 136.45 26.62 M 115.26 52.29 C 114.87 56.21 118.21 59.11 120.96 61.37 C 123.79 59.21 127.03 56.25 126.72 52.36 C 124.86 48.01 117.23 48.04 115.26 52.29 M 99.31 68.33 C 97.79 70.33 97.98 72.93 98.40 75.27 C 99.65 74.19 100.64 72.77 100.69 71.06 C 100.67 69.97 101.13 67.76 99.31 68.33 M 113.01 74.44 C 115.15 72.85 115.37 70.25 114.76 67.84 C 111.91 68.84 111.89 72.11 113.01 74.44 M 127.23 67.84 C 126.86 69.94 126.73 72.25 128.19 74.00 C 131.07 73.10 129.77 68.50 127.23 67.84 M 141.47 68.42 C 140.91 70.84 141.40 73.79 143.67 75.18 C 143.87 73.06 144.56 68.15 141.47 68.42 M 120.32 76.34 C 118.83 78.92 118.98 82.19 120.13 84.87 C 122.61 85.90 122.51 82.62 122.74 81.05 C 122.66 79.44 122.78 75.76 120.32 76.34 M 105.93 86.09 C 107.81 83.26 109.08 78.71 106.18 76.12 C 104.63 79.22 103.80 83.02 105.93 86.09 M 135.96 86.04 C 138.35 83.12 137.33 79.18 135.82 76.12 C 132.95 78.68 134.23 83.16 135.96 86.04 M 165.25 76.90 C 165.66 79.62 166.85 82.43 165.73 85.15 C 166.15 85.07 167.00 84.91 167.43 84.83 C 166.79 82.16 166.15 79.49 165.25 76.90 M 94.04 77.52 C 93.51 80.20 91.81 84.49 94.70 86.24 C 94.98 83.38 96.15 79.97 94.04 77.52 M 147.29 86.23 C 150.17 84.50 148.45 80.26 148.02 77.57 C 145.72 79.88 147.09 83.41 147.29 86.23 M 77.55 98.34 C 77.63 91.71 78.13 85.11 78.72 78.52 C 76.99 84.97 76.86 91.73 77.55 98.34 M 81.43 81.81 C 80.73 86.29 80.67 90.87 81.39 95.36 C 82.47 90.92 82.34 86.26 81.43 81.81 M 162.21 81.56 C 161.92 86.46 161.51 91.49 162.66 96.32 C 162.79 91.47 163.99 86.17 162.21 81.56 M 166.58 87.30 C 167.11 91.28 166.87 95.32 167.58 99.28 C 168.22 94.67 167.91 90.00 168.16 85.36 C 167.62 86.00 167.09 86.64 166.58 87.30 M 96.89 93.03 C 96.99 94.56 96.73 96.88 98.80 97.11 C 99.15 94.38 99.12 91.61 98.64 88.89 C 96.85 89.44 96.96 91.51 96.89 93.03 M 112.06 98.18 C 114.61 95.50 113.80 91.61 112.90 88.42 C 109.40 90.34 110.61 95.28 112.06 98.18 M 129.07 88.45 C 128.21 91.64 127.41 95.48 129.91 98.19 C 131.45 95.34 132.62 90.27 129.07 88.45 M 143.28 97.19 C 146.42 95.85 144.71 91.52 144.61 88.92 C 141.64 90.42 143.32 94.58 143.28 97.19 M 81.60 107.61 C 81.73 103.72 81.28 99.84 81.08 95.96 C 80.45 99.84 80.66 103.80 81.60 107.61 M 164.42 95.50 C 164.00 99.79 163.23 104.03 162.97 108.33 C 165.58 104.63 165.38 99.73 164.42 95.50 M 104.06 100.48 C 103.42 103.13 103.05 106.56 105.66 108.31 C 106.16 105.65 106.67 102.24 104.06 100.48 M 120.91 108.92 C 123.16 106.99 123.03 103.72 121.80 101.28 C 118.64 101.95 119.95 106.74 120.91 108.92 M 137.20 100.70 C 136.46 103.23 135.95 105.95 137.07 108.46 C 138.71 106.44 140.35 101.99 137.20 100.70 M 84.89 106.66 C 85.74 111.07 87.81 115.32 91.08 118.45 C 88.84 114.61 86.67 110.74 84.89 106.66 M 152.89 119.03 C 156.41 115.68 158.98 111.36 160.16 106.64 C 157.98 110.91 155.52 115.02 152.89 119.03 M 114.76 116.14 C 114.96 114.26 114.65 112.40 113.72 110.74 C 112.08 112.48 112.38 115.27 114.76 116.14 M 128.99 111.97 C 128.94 113.34 128.91 114.71 128.87 116.08 C 129.42 115.80 130.50 115.24 131.04 114.96 C 131.03 113.66 131.01 112.37 130.99 111.07 C 130.49 111.30 129.49 111.74 128.99 111.97 Z" />
<path fill="#ffc229" opacity="1.00" d=" M 103.75 20.10 C 108.34 20.04 113.16 21.12 116.63 24.29 C 119.01 26.32 120.22 29.28 121.26 32.14 C 122.77 24.36 130.72 19.56 138.33 20.15 C 126.88 22.94 121.39 35.49 121.37 46.34 C 120.39 39.18 118.89 31.61 113.83 26.11 C 111.25 23.02 107.57 21.18 103.75 20.10 Z" />
<path fill="#ffc229" opacity="1.00" d=" M 97.29 42.71 C 95.04 38.79 98.81 34.74 102.65 34.15 C 102.32 34.51 101.67 35.22 101.34 35.58 C 100.19 36.89 98.09 37.96 98.51 40.04 C 98.66 43.18 102.96 44.28 104.80 41.81 C 105.83 41.00 106.87 40.19 107.93 39.41 C 107.78 40.82 107.70 42.23 107.63 43.65 C 104.82 46.39 99.01 46.87 97.29 42.71 Z" />
<path fill="#ffc229" opacity="1.00" d=" M 135.66 37.53 C 136.86 34.89 139.89 34.49 142.40 34.00 C 142.03 34.44 141.28 35.32 140.91 35.76 C 139.79 36.14 138.67 36.49 137.54 36.82 C 136.66 39.01 136.37 41.93 138.98 43.04 C 140.01 43.52 141.20 43.32 142.31 43.42 C 143.48 41.93 144.41 39.60 146.77 39.89 C 146.25 42.07 145.56 44.78 143.10 45.50 C 140.94 45.93 138.37 45.93 136.70 44.27 C 134.94 42.55 135.08 39.73 135.66 37.53 Z" />
<path fill="#ffc229" opacity="1.00" d=" M 115.26 52.29 C 117.23 48.04 124.86 48.01 126.72 52.36 C 127.03 56.25 123.79 59.21 120.96 61.37 C 118.21 59.11 114.87 56.21 115.26 52.29 Z" />
<path fill="#ffc229" opacity="1.00" d=" M 99.31 68.33 C 101.13 67.76 100.67 69.97 100.69 71.06 C 100.64 72.77 99.65 74.19 98.40 75.27 C 97.98 72.93 97.79 70.33 99.31 68.33 Z" />
<path fill="#ffc229" opacity="1.00" d=" M 113.01 74.44 C 111.89 72.11 111.91 68.84 114.76 67.84 C 115.37 70.25 115.15 72.85 113.01 74.44 Z" />
<path fill="#ffc229" opacity="1.00" d=" M 127.23 67.84 C 129.77 68.50 131.07 73.10 128.19 74.00 C 126.73 72.25 126.86 69.94 127.23 67.84 Z" />
<path fill="#ffc229" opacity="1.00" d=" M 141.47 68.42 C 144.56 68.15 143.87 73.06 143.67 75.18 C 141.40 73.79 140.91 70.84 141.47 68.42 Z" />
<path fill="#ffc229" opacity="1.00" d=" M 120.32 76.34 C 122.78 75.76 122.66 79.44 122.74 81.05 C 122.51 82.62 122.61 85.90 120.13 84.87 C 118.98 82.19 118.83 78.92 120.32 76.34 Z" />
<path fill="#ffc229" opacity="1.00" d=" M 105.93 86.09 C 103.80 83.02 104.63 79.22 106.18 76.12 C 109.08 78.71 107.81 83.26 105.93 86.09 Z" />
<path fill="#ffc229" opacity="1.00" d=" M 135.96 86.04 C 134.23 83.16 132.95 78.68 135.82 76.12 C 137.33 79.18 138.35 83.12 135.96 86.04 Z" />
<path fill="#ffc229" opacity="1.00" d=" M 165.25 76.90 C 166.15 79.49 166.79 82.16 167.43 84.83 C 167.00 84.91 166.15 85.07 165.73 85.15 C 166.85 82.43 165.66 79.62 165.25 76.90 Z" />
<path fill="#ffc229" opacity="1.00" d=" M 94.04 77.52 C 96.15 79.97 94.98 83.38 94.70 86.24 C 91.81 84.49 93.51 80.20 94.04 77.52 Z" />
<path fill="#ffc229" opacity="1.00" d=" M 147.29 86.23 C 147.09 83.41 145.72 79.88 148.02 77.57 C 148.45 80.26 150.17 84.50 147.29 86.23 Z" />
<path fill="#ffc229" opacity="1.00" d=" M 77.55 98.34 C 76.86 91.73 76.99 84.97 78.72 78.52 C 78.13 85.11 77.63 91.71 77.55 98.34 Z" />
<path fill="#ffc229" opacity="1.00" d=" M 96.89 93.03 C 96.96 91.51 96.85 89.44 98.64 88.89 C 99.12 91.61 99.15 94.38 98.80 97.11 C 96.73 96.88 96.99 94.56 96.89 93.03 Z" />
<path fill="#ffc229" opacity="1.00" d=" M 112.06 98.18 C 110.61 95.28 109.40 90.34 112.90 88.42 C 113.80 91.61 114.61 95.50 112.06 98.18 Z" />
<path fill="#ffc229" opacity="1.00" d=" M 129.07 88.45 C 132.62 90.27 131.45 95.34 129.91 98.19 C 127.41 95.48 128.21 91.64 129.07 88.45 Z" />
<path fill="#ffc229" opacity="1.00" d=" M 143.28 97.19 C 143.32 94.58 141.64 90.42 144.61 88.92 C 144.71 91.52 146.42 95.85 143.28 97.19 Z" />
<path fill="#ffc229" opacity="1.00" d=" M 81.60 107.61 C 80.66 103.80 80.45 99.84 81.08 95.96 C 81.28 99.84 81.73 103.72 81.60 107.61 Z" />
<path fill="#ffc229" opacity="1.00" d=" M 104.06 100.48 C 106.67 102.24 106.16 105.65 105.66 108.31 C 103.05 106.56 103.42 103.13 104.06 100.48 Z" />
<path fill="#ffc229" opacity="1.00" d=" M 120.91 108.92 C 119.95 106.74 118.64 101.95 121.80 101.28 C 123.03 103.72 123.16 106.99 120.91 108.92 Z" />
<path fill="#ffc229" opacity="1.00" d=" M 137.20 100.70 C 140.35 101.99 138.71 106.44 137.07 108.46 C 135.95 105.95 136.46 103.23 137.20 100.70 Z" />
<path fill="#ffc229" opacity="1.00" d=" M 84.89 106.66 C 86.67 110.74 88.84 114.61 91.08 118.45 C 87.81 115.32 85.74 111.07 84.89 106.66 Z" />
<path fill="#ffc229" opacity="1.00" d=" M 152.89 119.03 C 155.52 115.02 157.98 110.91 160.16 106.64 C 158.98 111.36 156.41 115.68 152.89 119.03 Z" />
<path fill="#ffc229" opacity="1.00" d=" M 114.76 116.14 C 112.38 115.27 112.08 112.48 113.72 110.74 C 114.65 112.40 114.96 114.26 114.76 116.14 Z" />
<path fill="#ffffff" opacity="1.00" d=" M 98.46 26.70 C 105.65 24.52 113.87 29.60 115.11 37.01 C 116.81 44.21 111.41 51.98 104.08 52.92 C 97.12 54.21 89.85 49.01 88.81 42.01 C 87.47 35.40 91.94 28.36 98.46 26.70 M 99.09 33.09 C 94.93 34.64 93.61 40.50 96.21 43.93 C 98.94 47.84 105.87 47.60 108.21 43.40 C 109.37 41.54 108.70 39.26 108.68 37.23 C 108.38 37.94 108.13 38.66 107.93 39.41 C 106.87 40.19 105.83 41.00 104.80 41.81 L 105.97 40.70 C 103.39 40.14 101.51 38.35 101.34 35.58 C 101.67 35.22 102.32 34.51 102.65 34.15 C 103.33 33.97 103.60 33.26 104.04 32.78 C 102.39 32.80 100.71 32.74 99.09 33.09 Z" />
<path fill="#ffffff" opacity="1.00" d=" M 136.45 26.62 C 143.32 24.47 151.28 28.97 152.99 35.94 C 155.18 43.01 150.36 51.16 143.13 52.63 C 135.98 54.51 128.06 49.31 126.94 42.02 C 125.53 35.42 129.94 28.32 136.45 26.62 M 137.22 33.11 C 131.35 35.51 132.32 46.22 139.05 46.58 C 143.40 47.57 148.21 43.85 146.97 39.19 L 146.77 39.89 C 144.41 39.60 143.48 41.93 142.31 43.42 C 141.20 43.32 140.01 43.52 138.98 43.04 C 141.19 43.90 143.02 42.40 144.12 40.63 C 142.29 39.57 141.16 37.86 140.91 35.76 C 141.28 35.32 142.03 34.44 142.40 34.00 C 142.77 33.77 143.49 33.30 143.85 33.06 C 141.65 32.89 139.39 32.58 137.22 33.11 Z" />
<path fill="#7b4929" opacity="1.00" d=" M 99.09 33.09 C 100.71 32.74 102.39 32.80 104.04 32.78 C 103.60 33.26 103.33 33.97 102.65 34.15 C 98.81 34.74 95.04 38.79 97.29 42.71 C 99.01 46.87 104.82 46.39 107.63 43.65 C 107.70 42.23 107.78 40.82 107.93 39.41 C 108.13 38.66 108.38 37.94 108.68 37.23 C 108.70 39.26 109.37 41.54 108.21 43.40 C 105.87 47.60 98.94 47.84 96.21 43.93 C 93.61 40.50 94.93 34.64 99.09 33.09 Z" />
<path fill="#7b4929" opacity="1.00" d=" M 137.22 33.11 C 139.39 32.58 141.65 32.89 143.85 33.06 C 143.49 33.30 142.77 33.77 142.40 34.00 C 139.89 34.49 136.86 34.89 135.66 37.53 C 135.08 39.73 134.94 42.55 136.70 44.27 C 138.37 45.93 140.94 45.93 143.10 45.50 C 145.56 44.78 146.25 42.07 146.77 39.89 L 146.97 39.19 C 148.21 43.85 143.40 47.57 139.05 46.58 C 132.32 46.22 131.35 35.51 137.22 33.11 Z" />
<path fill="#7b4929" opacity="1.00" d=" M 7.34 128.44 C 8.94 126.87 11.09 128.15 12.83 128.68 C 14.94 127.63 17.14 127.68 19.25 128.71 C 21.32 127.65 23.58 127.63 25.70 128.55 C 27.83 127.69 30.03 127.67 32.14 128.57 C 34.22 127.63 36.41 127.72 38.50 128.56 C 40.64 127.60 42.90 127.63 45.00 128.69 C 47.09 127.60 49.30 127.72 51.41 128.71 C 53.43 127.67 55.64 127.64 57.66 128.69 C 59.77 127.72 61.98 127.64 64.08 128.68 C 66.15 127.67 68.38 127.65 70.42 128.76 C 72.47 127.68 74.70 127.62 76.76 128.71 C 78.97 127.54 81.29 127.75 83.47 128.89 C 83.84 128.56 84.58 127.90 84.95 127.57 C 84.95 129.30 84.97 131.03 85.01 132.75 C 61.17 132.77 37.32 132.72 13.48 132.79 C 19.83 139.54 26.36 146.12 32.76 152.82 C 26.29 159.54 19.78 166.22 13.33 172.96 C 89.38 172.96 165.44 172.86 241.49 172.95 C 235.09 166.18 228.53 159.56 222.10 152.81 C 228.53 146.12 235.01 139.47 241.44 132.77 C 214.39 132.71 187.35 132.79 160.31 132.74 C 160.32 131.14 160.32 129.54 160.24 127.95 C 162.11 127.74 163.94 128.05 165.70 128.67 C 167.81 127.73 170.01 127.66 172.11 128.66 C 174.19 127.63 176.41 127.73 178.49 128.74 C 180.52 127.65 182.72 127.64 184.77 128.69 C 186.88 127.66 189.10 127.66 191.21 128.70 C 193.24 127.61 195.46 127.66 197.49 128.74 C 199.57 127.70 201.78 127.59 203.85 128.69 C 205.97 127.65 208.19 127.67 210.30 128.73 C 212.31 127.58 214.52 127.70 216.54 128.75 C 218.61 127.68 220.83 127.63 222.91 128.67 C 225.00 127.65 227.20 127.73 229.29 128.70 C 231.32 127.64 233.54 127.64 235.57 128.69 C 237.68 127.79 239.89 127.60 241.98 128.68 C 244.06 127.76 247.16 126.85 248.40 129.49 C 250.01 132.32 247.29 134.69 244.72 135.28 C 244.12 137.58 242.53 139.12 240.27 139.78 C 239.63 142.08 238.02 143.64 235.75 144.31 C 235.08 146.53 233.56 148.10 231.36 148.81 C 230.58 150.13 229.79 151.44 228.95 152.73 C 229.79 154.10 230.58 155.51 231.33 156.94 C 232.34 157.35 233.37 157.76 234.38 158.22 C 234.77 159.45 235.15 160.70 235.53 161.94 C 235.89 161.90 236.62 161.80 236.98 161.75 C 238.78 162.46 239.62 164.14 240.30 165.83 C 242.51 166.55 244.18 168.02 244.66 170.37 C 246.66 171.03 249.34 172.17 248.80 174.82 C 248.60 177.65 245.40 178.58 243.12 177.52 L 242.27 176.67 C 240.13 178.04 237.79 178.13 235.57 176.89 C 233.58 178.06 231.37 178.02 229.38 176.88 C 227.28 177.97 225.06 178.07 222.97 176.95 C 220.87 178.08 218.63 177.98 216.53 176.90 C 214.52 177.97 212.33 178.10 210.35 176.92 C 208.21 178.00 205.96 178.08 203.84 176.93 C 201.76 178.09 199.52 177.97 197.45 176.84 C 195.47 178.04 193.26 178.08 191.26 176.93 C 189.12 178.04 186.86 178.03 184.72 176.93 C 182.70 178.07 180.48 178.04 178.50 176.84 C 176.46 177.99 174.21 178.09 172.16 176.92 C 170.03 178.10 167.77 177.99 165.63 176.92 C 163.65 178.06 161.45 178.03 159.47 176.89 C 157.37 177.98 155.12 178.10 153.03 176.95 C 150.92 178.09 148.67 177.95 146.56 176.90 C 144.58 178.07 142.39 178.01 140.41 176.89 C 138.31 177.96 136.07 178.09 133.98 176.95 C 131.87 178.10 129.64 177.97 127.54 176.88 C 125.56 178.07 123.36 178.00 121.36 176.92 C 119.22 177.98 116.97 178.08 114.85 176.93 C 112.80 178.09 110.56 178.00 108.54 176.81 C 106.54 178.07 104.29 178.08 102.26 176.92 C 100.13 178.03 97.88 178.03 95.75 176.92 C 93.75 178.07 91.55 178.04 89.56 176.86 C 87.49 177.96 85.25 178.09 83.17 176.94 C 81.06 178.06 78.82 178.01 76.70 176.93 C 74.69 178.06 72.48 178.00 70.47 176.90 C 68.39 177.96 66.17 178.10 64.10 176.94 C 61.99 178.04 59.76 177.99 57.65 176.93 C 55.64 178.01 53.43 178.07 51.45 176.90 C 49.34 177.98 47.10 178.09 45.00 176.94 C 42.90 178.05 40.64 178.01 38.47 177.14 C 36.40 177.95 34.22 177.96 32.14 177.19 C 30.02 177.97 27.81 177.96 25.69 177.14 C 23.57 178.01 21.32 178.03 19.28 176.92 C 17.17 178.03 14.93 178.04 12.81 176.93 C 11.14 177.49 9.19 178.65 7.54 177.36 C 5.79 176.30 6.04 174.04 6.42 172.34 C 7.58 171.32 9.09 170.86 10.47 170.24 C 10.52 169.63 10.62 168.39 10.67 167.77 C 11.91 167.14 13.16 166.52 14.40 165.90 C 15.14 164.61 15.88 163.32 16.75 162.11 C 17.36 161.98 18.59 161.73 19.20 161.60 C 19.68 159.21 21.19 157.51 23.53 156.82 C 24.32 155.48 25.09 154.14 25.87 152.81 C 25.09 151.46 24.33 150.10 23.57 148.74 C 21.28 148.17 19.83 146.52 19.11 144.33 C 16.81 143.66 15.30 142.01 14.61 139.76 C 12.38 139.12 10.85 137.57 10.12 135.38 C 8.60 134.59 7.10 133.73 5.92 132.46 C 6.22 131.08 6.08 129.37 7.34 128.44 Z" />
<path fill="#7b4929" opacity="1.00" d=" M 105.32 128.04 C 111.47 129.41 117.67 131.14 124.03 130.74 C 129.40 130.59 134.45 128.45 139.78 127.99 C 139.78 129.58 139.77 131.16 139.79 132.75 C 128.34 132.75 116.89 132.74 105.44 132.76 C 105.42 131.18 105.37 129.61 105.32 128.04 Z" />
<path fill="#7b4929" opacity="1.00" d=" M 94.08 139.97 C 94.76 140.61 95.44 141.27 96.11 141.94 C 95.97 145.06 95.63 148.18 95.57 151.31 C 97.48 148.72 99.41 145.98 99.76 142.68 C 100.83 142.67 102.98 142.65 104.06 142.64 C 101.69 144.82 99.85 147.47 98.29 150.27 C 100.66 155.15 102.37 160.47 106.03 164.60 C 104.16 164.56 102.29 164.53 100.43 164.50 C 99.36 160.84 97.75 157.37 95.82 154.09 C 95.51 157.59 95.31 161.20 96.52 164.57 C 94.60 164.55 92.68 164.55 90.76 164.56 C 92.53 157.43 91.74 149.86 91.18 142.60 C 92.28 142.61 94.46 142.63 95.55 142.64 C 95.19 141.97 94.45 140.63 94.08 139.97 Z" />
<path fill="#7b4929" opacity="1.00" d=" M 149.30 140.96 C 149.55 141.34 150.03 142.10 150.27 142.48 C 152.54 142.59 154.80 142.65 157.07 142.69 L 156.32 140.79 C 156.65 141.17 157.31 141.92 157.64 142.30 C 157.90 144.10 158.13 145.92 158.33 147.74 C 157.83 146.95 156.84 145.37 156.34 144.58 C 155.72 144.46 154.49 144.23 153.87 144.11 C 153.91 150.95 153.05 157.89 154.52 164.63 C 152.71 164.59 150.89 164.56 149.08 164.54 C 150.44 157.88 149.51 151.05 149.72 144.32 C 149.09 144.33 147.82 144.35 147.18 144.37 C 146.55 145.60 145.94 146.84 145.32 148.08 C 145.32 146.22 145.33 144.37 145.34 142.51 C 146.92 142.58 148.51 142.65 150.09 142.71 L 149.30 140.96 Z" />
<path fill="#7b4929" opacity="1.00" d=" M 68.20 142.60 C 70.11 142.62 72.02 142.61 73.93 142.56 C 72.59 145.89 73.13 149.53 73.09 153.01 C 73.18 156.86 72.62 160.81 73.81 164.55 C 71.94 164.54 70.06 164.54 68.19 164.56 C 69.56 160.84 68.98 156.85 69.07 152.98 C 69.04 149.51 69.47 145.92 68.20 142.60 Z" />
<path fill="#7b4929" opacity="1.00" d=" M 118.44 142.58 C 121.91 142.30 124.77 145.22 125.50 148.43 C 126.26 151.86 126.24 155.49 125.54 158.94 C 124.89 162.01 122.35 164.95 119.01 164.90 C 115.62 165.06 113.00 162.04 112.26 158.97 C 111.55 155.64 111.61 152.16 112.23 148.83 C 112.83 145.78 115.20 142.89 118.44 142.58 M 118.15 144.13 C 116.35 147.05 116.51 150.65 116.41 153.95 C 116.52 157.04 116.36 160.42 118.05 163.15 C 120.00 164.49 120.73 161.40 120.98 160.07 C 121.57 154.85 122.13 149.11 119.78 144.24 C 119.37 144.21 118.56 144.16 118.15 144.13 Z" />
<path fill="#7b4929" opacity="1.00" d=" M 35.88 142.60 C 40.22 142.63 44.57 142.65 48.91 142.63 C 48.94 144.35 48.98 146.08 49.04 147.80 C 48.06 145.94 46.92 143.92 44.47 144.16 C 44.83 150.92 43.49 157.90 45.29 164.50 C 43.33 164.51 41.37 164.55 39.41 164.63 C 41.73 158.14 39.95 151.02 40.51 144.26 C 38.04 143.78 36.96 145.64 36.14 147.62 C 36.05 145.94 35.96 144.27 35.88 142.60 Z" />
<path fill="#7b4929" opacity="1.00" d=" M 51.25 142.56 C 54.44 142.78 57.79 142.18 60.86 143.23 C 64.73 145.29 64.59 151.13 61.13 153.53 C 62.70 157.23 62.72 161.69 65.92 164.52 C 64.19 164.47 62.47 164.44 60.74 164.41 C 59.73 160.78 59.70 156.30 56.32 153.92 C 56.13 157.45 55.82 161.07 56.97 164.49 C 55.02 164.52 53.07 164.58 51.13 164.67 C 52.78 161.31 52.09 157.54 52.19 153.95 C 52.14 150.14 52.65 146.21 51.25 142.56 M 56.32 143.84 C 56.17 147.00 56.16 150.17 56.28 153.33 C 61.12 152.42 60.95 144.94 56.32 143.84 Z" />
<path fill="#7b4929" opacity="1.00" d=" M 76.84 149.83 C 77.26 146.91 78.78 143.49 81.94 142.78 C 83.99 142.68 86.02 143.05 88.06 143.27 C 87.99 145.25 88.00 147.28 87.19 149.14 C 86.22 147.61 85.43 145.95 84.25 144.57 C 82.57 143.47 81.35 145.54 81.27 147.02 C 80.59 151.92 80.21 157.22 82.08 161.91 C 84.09 164.71 86.38 161.29 86.73 159.14 C 87.27 159.21 88.35 159.34 88.89 159.41 C 87.99 161.13 87.64 163.54 85.63 164.38 C 82.64 165.90 79.08 163.94 77.84 161.06 C 76.30 157.55 76.34 153.55 76.84 149.83 Z" />
<path fill="#7b4929" opacity="1.00" d=" M 127.03 142.60 C 130.71 142.93 135.51 141.38 138.16 144.77 C 140.44 147.62 139.29 151.71 136.54 153.78 C 138.43 157.27 138.47 161.57 141.29 164.58 C 139.67 164.53 138.05 164.50 136.43 164.48 C 135.15 161.00 135.48 156.18 131.88 154.10 C 131.84 157.60 131.27 161.29 132.80 164.57 C 130.93 164.54 129.06 164.54 127.20 164.55 C 128.16 160.41 127.75 156.14 127.81 151.93 C 127.81 148.81 128.13 145.59 127.03 142.60 M 131.83 144.11 C 131.79 147.17 131.79 150.25 131.87 153.32 C 136.64 152.63 136.67 144.62 131.83 144.11 Z" />
<path fill="#7b4929" opacity="1.00" d=" M 160.21 142.57 C 163.89 143.03 168.68 141.32 171.44 144.58 C 173.79 147.26 172.96 151.48 170.21 153.54 C 171.76 157.24 171.75 161.75 175.06 164.49 C 173.33 164.49 171.60 164.49 169.87 164.49 C 168.76 160.89 168.77 156.36 165.39 153.98 C 165.23 157.50 164.80 161.14 166.06 164.52 C 164.03 164.53 162.00 164.58 159.98 164.70 C 162.09 161.50 161.16 157.60 161.31 154.01 C 161.14 150.19 162.02 146.13 160.21 142.57 M 165.39 143.85 C 165.24 146.99 165.21 150.14 165.31 153.28 C 170.16 152.49 170.00 144.90 165.39 143.85 Z" />
<path fill="#7b4929" opacity="1.00" d=" M 176.27 142.50 C 179.98 142.62 183.70 142.62 187.41 142.63 C 187.42 144.18 187.42 145.72 187.41 147.27 C 186.77 146.31 186.14 145.36 185.50 144.41 C 184.10 144.38 182.69 144.36 181.29 144.35 C 181.20 147.23 181.15 150.13 181.61 152.98 C 182.94 152.15 184.20 151.21 185.37 150.16 C 185.27 152.19 185.22 154.21 185.24 156.24 C 184.35 154.68 183.01 153.84 181.23 153.96 C 181.20 156.92 181.21 159.88 181.21 162.85 C 182.68 162.77 184.17 162.79 185.63 162.53 C 187.04 161.79 187.03 159.83 187.82 158.61 C 188.13 160.59 188.27 162.58 188.33 164.59 C 184.24 164.50 180.14 164.38 176.06 164.69 C 177.93 161.41 177.12 157.59 177.24 154.01 C 177.15 150.16 177.81 146.16 176.27 142.50 Z" />
<path fill="#7b4929" opacity="1.00" d=" M 194.95 142.60 C 196.23 142.63 197.52 142.66 198.82 142.70 C 200.30 148.45 201.93 154.17 203.41 159.92 C 203.79 161.66 204.74 163.16 205.81 164.56 C 203.71 164.52 201.62 164.54 199.53 164.61 C 199.90 162.57 199.58 160.54 199.05 158.57 C 197.23 158.56 195.40 158.53 193.58 158.49 C 192.78 160.42 192.40 162.47 192.69 164.56 C 191.73 164.57 189.82 164.58 188.87 164.59 C 191.08 161.60 191.58 157.85 192.59 154.37 C 193.56 150.48 195.20 146.68 194.95 142.60 M 196.21 148.65 C 195.39 151.51 194.60 154.38 193.83 157.25 C 195.41 157.25 196.99 157.25 198.57 157.25 C 197.83 154.37 197.06 151.50 196.21 148.65 Z" />
<path fill="#7b4929" opacity="1.00" d=" M 204.85 142.59 C 209.19 142.65 213.53 142.63 217.87 142.61 C 217.89 144.39 217.92 146.18 217.95 147.96 C 217.37 146.84 216.79 145.71 216.22 144.59 C 215.28 144.48 214.35 144.37 213.42 144.27 C 213.58 151.01 212.87 157.82 213.89 164.52 C 212.04 164.53 210.19 164.55 208.34 164.59 C 210.69 158.09 208.87 150.94 209.43 144.17 C 206.93 143.92 205.58 145.77 205.14 148.03 C 205.05 146.21 204.95 144.40 204.85 142.59 Z" />
<path fill="#7b4929" opacity="1.00" d=" M 5.62 152.00 C 6.64 149.64 8.86 148.44 11.38 148.33 C 13.08 149.80 14.12 151.76 14.48 153.97 C 13.22 156.08 11.06 157.19 8.62 157.16 C 6.92 155.92 5.94 154.06 5.62 152.00 Z" />
<path fill="#7b4929" opacity="1.00" d=" M 240.31 152.63 C 241.14 151.02 241.92 148.90 244.01 148.67 C 247.27 147.84 250.27 151.79 248.58 154.70 C 247.70 156.75 245.32 156.96 243.40 157.19 C 241.95 155.98 240.89 154.42 240.31 152.63 Z" />
<path fill="#7b4929" opacity="1.00" d=" M 112.57 183.65 C 113.61 186.06 115.39 187.85 118.20 187.86 C 116.98 189.11 115.93 190.55 115.79 192.37 C 115.66 192.89 115.39 193.93 115.26 194.44 C 114.63 194.01 113.38 193.15 112.75 192.72 C 112.20 193.01 111.09 193.59 110.54 193.88 C 110.19 194.06 109.50 194.42 109.15 194.61 C 109.38 193.22 109.62 191.85 109.85 190.47 C 108.94 189.59 108.03 188.71 107.13 187.83 C 108.40 187.59 109.66 187.37 110.93 187.15 C 111.48 185.98 112.03 184.81 112.57 183.65 Z" />
<path fill="#7b4929" opacity="1.00" d=" M 125.60 187.14 C 126.28 185.89 126.96 184.64 127.66 183.40 C 128.11 184.63 128.57 185.87 129.02 187.11 C 130.40 187.32 131.78 187.53 133.16 187.74 C 132.22 188.73 131.30 189.73 130.39 190.76 L 130.64 192.43 L 130.70 192.69 C 130.81 193.14 131.02 194.04 131.13 194.49 C 128.92 193.23 126.46 192.47 124.29 194.37 C 124.56 191.80 124.00 189.41 121.90 187.74 C 123.13 187.54 124.37 187.34 125.60 187.14 Z" />
<path fill="#7b4929" opacity="1.00" d=" M 140.27 187.28 C 140.90 186.01 141.53 184.75 142.16 183.48 C 142.75 184.71 143.35 185.93 143.94 187.16 C 145.29 187.37 146.64 187.58 147.99 187.79 C 147.03 188.70 146.07 189.61 145.11 190.52 C 145.31 191.88 145.51 193.24 145.71 194.61 C 144.51 193.97 143.31 193.34 142.12 192.71 C 141.39 193.15 139.94 194.03 139.22 194.46 L 139.14 193.56 C 139.37 191.20 138.24 189.27 136.74 187.58 C 137.62 187.51 139.39 187.36 140.27 187.28 Z" />
<path fill="#000000" opacity="1.00" d=" M 137.54 36.82 C 138.67 36.49 139.79 36.14 140.91 35.76 C 141.16 37.86 142.29 39.57 144.12 40.63 C 143.02 42.40 141.19 43.90 138.98 43.04 C 136.37 41.93 136.66 39.01 137.54 36.82 Z" />
<path fill="#000000" opacity="1.00" d=" M 98.51 40.04 C 98.09 37.96 100.19 36.89 101.34 35.58 C 101.51 38.35 103.39 40.14 105.97 40.70 L 104.80 41.81 C 102.96 44.28 98.66 43.18 98.51 40.04 Z" />
<path fill="#2f251b" opacity="0.85" d=" M 81.43 81.81 C 82.34 86.26 82.47 90.92 81.39 95.36 C 80.67 90.87 80.73 86.29 81.43 81.81 Z" />
<path fill="#2f251d" opacity="0.84" d=" M 162.21 81.56 C 163.99 86.17 162.79 91.47 162.66 96.32 C 161.51 91.49 161.92 86.46 162.21 81.56 Z" />
<path fill="#a57e29" opacity="1.00" d=" M 166.58 87.30 C 167.09 86.64 167.62 86.00 168.16 85.36 C 167.91 90.00 168.22 94.67 167.58 99.28 C 166.87 95.32 167.11 91.28 166.58 87.30 Z" />
<path fill="#8f6e29" opacity="1.00" d=" M 164.42 95.50 C 165.38 99.73 165.58 104.63 162.97 108.33 C 163.23 104.03 164.00 99.79 164.42 95.50 Z" />
<path fill="#e4ae29" opacity="1.00" d=" M 128.99 111.97 C 129.49 111.74 130.49 111.30 130.99 111.07 C 131.01 112.37 131.03 113.66 131.04 114.96 C 130.50 115.24 129.42 115.80 128.87 116.08 C 128.91 114.71 128.94 113.34 128.99 111.97 Z" />
<path fill="#ffc631" opacity="1.00" d=" M 13.48 132.79 C 37.32 132.72 61.17 132.77 85.01 132.75 C 84.52 136.39 86.65 139.35 88.26 142.38 C 89.39 140.79 90.60 139.27 91.92 137.84 C 92.64 138.54 93.36 139.25 94.08 139.97 C 94.45 140.63 95.19 141.97 95.55 142.64 C 94.46 142.63 92.28 142.61 91.18 142.60 C 91.74 149.86 92.53 157.43 90.76 164.56 C 92.68 164.55 94.60 164.55 96.52 164.57 C 95.31 161.20 95.51 157.59 95.82 154.09 C 97.75 157.37 99.36 160.84 100.43 164.50 C 102.29 164.53 104.16 164.56 106.03 164.60 C 102.37 160.47 100.66 155.15 98.29 150.27 C 99.85 147.47 101.69 144.82 104.06 142.64 C 102.98 142.65 100.83 142.67 99.76 142.68 C 99.41 145.98 97.48 148.72 95.57 151.31 C 95.63 148.18 95.97 145.06 96.11 141.94 C 96.56 140.42 97.39 139.07 98.20 137.73 C 99.91 139.10 101.50 140.63 102.78 142.43 C 104.04 139.32 105.79 136.24 105.44 132.76 C 116.89 132.74 128.34 132.75 139.79 132.75 C 139.31 136.44 141.47 139.46 143.08 142.55 C 144.13 140.81 145.35 139.18 146.76 137.71 C 147.65 138.75 148.58 139.78 149.30 140.96 L 150.09 142.71 C 148.51 142.65 146.92 142.58 145.34 142.51 C 145.33 144.37 145.32 146.22 145.32 148.08 C 145.94 146.84 146.55 145.60 147.18 144.37 C 147.82 144.35 149.09 144.33 149.72 144.32 C 149.51 151.05 150.44 157.88 149.08 164.54 C 150.89 164.56 152.71 164.59 154.52 164.63 C 153.05 157.89 153.91 150.95 153.87 144.11 C 154.49 144.23 155.72 144.46 156.34 144.58 C 156.84 145.37 157.83 146.95 158.33 147.74 C 158.13 145.92 157.90 144.10 157.64 142.30 C 158.78 139.18 160.60 136.19 160.31 132.74 C 187.35 132.79 214.39 132.71 241.44 132.77 C 235.01 139.47 228.53 146.12 222.10 152.81 C 228.53 159.56 235.09 166.18 241.49 172.95 C 165.44 172.86 89.38 172.96 13.33 172.96 C 19.78 166.22 26.29 159.54 32.76 152.82 C 26.36 146.12 19.83 139.54 13.48 132.79 M 68.20 142.60 C 69.47 145.92 69.04 149.51 69.07 152.98 C 68.98 156.85 69.56 160.84 68.19 164.56 C 70.06 164.54 71.94 164.54 73.81 164.55 C 72.62 160.81 73.18 156.86 73.09 153.01 C 73.13 149.53 72.59 145.89 73.93 142.56 C 72.02 142.61 70.11 142.62 68.20 142.60 M 118.44 142.58 C 115.20 142.89 112.83 145.78 112.23 148.83 C 111.61 152.16 111.55 155.64 112.26 158.97 C 113.00 162.04 115.62 165.06 119.01 164.90 C 122.35 164.95 124.89 162.01 125.54 158.94 C 126.24 155.49 126.26 151.86 125.50 148.43 C 124.77 145.22 121.91 142.30 118.44 142.58 M 35.88 142.60 C 35.96 144.27 36.05 145.94 36.14 147.62 C 36.96 145.64 38.04 143.78 40.51 144.26 C 39.95 151.02 41.73 158.14 39.41 164.63 C 41.37 164.55 43.33 164.51 45.29 164.50 C 43.49 157.90 44.83 150.92 44.47 144.16 C 46.92 143.92 48.06 145.94 49.04 147.80 C 48.98 146.08 48.94 144.35 48.91 142.63 C 44.57 142.65 40.22 142.63 35.88 142.60 M 51.25 142.56 C 52.65 146.21 52.14 150.14 52.19 153.95 C 52.09 157.54 52.78 161.31 51.13 164.67 C 53.07 164.58 55.02 164.52 56.97 164.49 C 55.82 161.07 56.13 157.45 56.32 153.92 C 59.70 156.30 59.73 160.78 60.74 164.41 C 62.47 164.44 64.19 164.47 65.92 164.52 C 62.72 161.69 62.70 157.23 61.13 153.53 C 64.59 151.13 64.73 145.29 60.86 143.23 C 57.79 142.18 54.44 142.78 51.25 142.56 M 76.84 149.83 C 76.34 153.55 76.30 157.55 77.84 161.06 C 79.08 163.94 82.64 165.90 85.63 164.38 C 87.64 163.54 87.99 161.13 88.89 159.41 C 88.35 159.34 87.27 159.21 86.73 159.14 C 86.38 161.29 84.09 164.71 82.08 161.91 C 80.21 157.22 80.59 151.92 81.27 147.02 C 81.35 145.54 82.57 143.47 84.25 144.57 C 85.43 145.95 86.22 147.61 87.19 149.14 C 88.00 147.28 87.99 145.25 88.06 143.27 C 86.02 143.05 83.99 142.68 81.94 142.78 C 78.78 143.49 77.26 146.91 76.84 149.83 M 127.03 142.60 C 128.13 145.59 127.81 148.81 127.81 151.93 C 127.75 156.14 128.16 160.41 127.20 164.55 C 129.06 164.54 130.93 164.54 132.80 164.57 C 131.27 161.29 131.84 157.60 131.88 154.10 C 135.48 156.18 135.15 161.00 136.43 164.48 C 138.05 164.50 139.67 164.53 141.29 164.58 C 138.47 161.57 138.43 157.27 136.54 153.78 C 139.29 151.71 140.44 147.62 138.16 144.77 C 135.51 141.38 130.71 142.93 127.03 142.60 M 160.21 142.57 C 162.02 146.13 161.14 150.19 161.31 154.01 C 161.16 157.60 162.09 161.50 159.98 164.70 C 162.00 164.58 164.03 164.53 166.06 164.52 C 164.80 161.14 165.23 157.50 165.39 153.98 C 168.77 156.36 168.76 160.89 169.87 164.49 C 171.60 164.49 173.33 164.49 175.06 164.49 C 171.75 161.75 171.76 157.24 170.21 153.54 C 172.96 151.48 173.79 147.26 171.44 144.58 C 168.68 141.32 163.89 143.03 160.21 142.57 M 176.27 142.50 C 177.81 146.16 177.15 150.16 177.24 154.01 C 177.12 157.59 177.93 161.41 176.06 164.69 C 180.14 164.38 184.24 164.50 188.33 164.59 C 188.27 162.58 188.13 160.59 187.82 158.61 C 187.03 159.83 187.04 161.79 185.63 162.53 C 184.17 162.79 182.68 162.77 181.21 162.85 C 181.21 159.88 181.20 156.92 181.23 153.96 C 183.01 153.84 184.35 154.68 185.24 156.24 C 185.22 154.21 185.27 152.19 185.37 150.16 C 184.20 151.21 182.94 152.15 181.61 152.98 C 181.15 150.13 181.20 147.23 181.29 144.35 C 182.69 144.36 184.10 144.38 185.50 144.41 C 186.14 145.36 186.77 146.31 187.41 147.27 C 187.42 145.72 187.42 144.18 187.41 142.63 C 183.70 142.62 179.98 142.62 176.27 142.50 M 194.95 142.60 C 195.20 146.68 193.56 150.48 192.59 154.37 C 191.58 157.85 191.08 161.60 188.87 164.59 C 189.82 164.58 191.73 164.57 192.69 164.56 C 192.40 162.47 192.78 160.42 193.58 158.49 C 195.40 158.53 197.23 158.56 199.05 158.57 C 199.58 160.54 199.90 162.57 199.53 164.61 C 201.62 164.54 203.71 164.52 205.81 164.56 C 204.74 163.16 203.79 161.66 203.41 159.92 C 201.93 154.17 200.30 148.45 198.82 142.70 C 197.52 142.66 196.23 142.63 194.95 142.60 M 204.85 142.59 C 204.95 144.40 205.05 146.21 205.14 148.03 C 205.58 145.77 206.93 143.92 209.43 144.17 C 208.87 150.94 210.69 158.09 208.34 164.59 C 210.19 164.55 212.04 164.53 213.89 164.52 C 212.87 157.82 213.58 151.01 213.42 144.27 C 214.35 144.37 215.28 144.48 216.22 144.59 C 216.79 145.71 217.37 146.84 217.95 147.96 C 217.92 146.18 217.89 144.39 217.87 142.61 C 213.53 142.63 209.19 142.65 204.85 142.59 Z" />
<path fill="#ffc631" opacity="1.00" d=" M 153.13 137.69 C 154.22 138.69 155.33 139.68 156.32 140.79 L 157.07 142.69 C 154.80 142.65 152.54 142.59 150.27 142.48 C 151.17 140.85 152.11 139.24 153.13 137.69 Z" />
<path fill="#ffc631" opacity="1.00" d=" M 56.32 143.84 C 60.95 144.94 61.12 152.42 56.28 153.33 C 56.16 150.17 56.17 147.00 56.32 143.84 Z" />
<path fill="#ffc631" opacity="1.00" d=" M 118.15 144.13 C 118.56 144.16 119.37 144.21 119.78 144.24 C 122.13 149.11 121.57 154.85 120.98 160.07 C 120.73 161.40 120.00 164.49 118.05 163.15 C 116.36 160.42 116.52 157.04 116.41 153.95 C 116.51 150.65 116.35 147.05 118.15 144.13 Z" />
<path fill="#ffc631" opacity="1.00" d=" M 165.39 143.85 C 170.00 144.90 170.16 152.49 165.31 153.28 C 165.21 150.14 165.24 146.99 165.39 143.85 Z" />
<path fill="#ffc631" opacity="1.00" d=" M 131.83 144.11 C 136.67 144.62 136.64 152.63 131.87 153.32 C 131.79 150.25 131.79 147.17 131.83 144.11 Z" />
<path fill="#ffc631" opacity="1.00" d=" M 196.21 148.65 C 197.06 151.50 197.83 154.37 198.57 157.25 C 196.99 157.25 195.41 157.25 193.83 157.25 C 194.60 154.38 195.39 151.51 196.21 148.65 Z" />
</g>
</svg>
