<?xml version="1.0" encoding="utf-8"?>
<!-- Generator: Adobe Illustrator 18.0.0, SVG Export Plug-In . SVG Version: 6.00 Build 0)  -->
<!DOCTYPE svg PUBLIC "-//W3C//DTD SVG 1.1//EN" "http://www.w3.org/Graphics/SVG/1.1/DTD/svg11.dtd">
<svg version="1.1" xmlns="http://www.w3.org/2000/svg" xmlns:xlink="http://www.w3.org/1999/xlink" x="0px" y="0px" width="120px"
	 height="120px" viewBox="0 0 120 120" enable-background="new 0 0 120 120" xml:space="preserve">
<g id="Layer_4" display="none">
	<circle display="inline" opacity="0.5" fill="#DF1F26" cx="60" cy="60" r="60"/>
	<rect x="6.5" y="6.5" display="inline" opacity="0.5" fill="#3B4FA1" width="107" height="107"/>
</g>
<g id="normal">
	<g>
		<path fill="#A6A6A6" d="M105.852,49.514c0.208,0.612,0.327,1.266,0.329,1.949c0.005,3.33-2.658,6.026-5.952,6.02
			c-0.699-0.001-1.367-0.13-1.991-0.355l-8.433,8.433l5.949,0.01l17.653-17.653c-0.131-2.863-0.391-4.333-0.692-5.267
			L105.852,49.514z"/>
		<path fill="#A6A6A6" d="M100.205,45.425c1.16,0.002,2.239,0.344,3.156,0.924l7.096-7.096c-0.437-0.418-0.782-0.704-0.782-0.704
			l-1.233-3.239L97.83,45.921C98.558,45.602,99.36,45.423,100.205,45.425z"/>
		<path fill="#A6A6A6" d="M96.632,70.35l0.006,3.01c0.002,1.151,0.143,1.92,0.512,2.431l15.57-15.57
			c0.433-1.647,0.712-3.831,0.767-6.726L96.632,70.35z"/>
		<path fill="#A6A6A6" d="M25.01,43.392c-2.146,0.287-6.037,2.184-7.43,5.556l-1.135,3.009L25.01,43.392z"/>
		<path fill="#A6A6A6" d="M105.148,76.65c2.432,0.005,3.038-0.745,3.033-3.271l-0.006-2.957l-6.223,6.223L105.148,76.65z"/>
		<path fill="#A6A6A6" d="M79.092,47.387l24.587-24.587l-1.396-3.666l-0.002-0.001c-0.087-0.208-0.185-0.408-0.29-0.605
			L77.449,43.072L79.092,47.387z"/>
		<path fill="#A6A6A6" d="M80.48,74.887l-5.827,5.827c0.056,0.355,0.094,0.717,0.095,1.088c0.007,3.838-3.065,6.946-6.864,6.94
			c-0.393-0.001-0.776-0.042-1.151-0.107l-6.834,6.834l4.025,0.007l0.004,1.923L80.786,80.54
			C80.749,77.95,80.636,76.169,80.48,74.887z"/>
		<path fill="#A6A6A6" d="M75.467,95.494l1.61-0.896c1.662-0.837,3.097-2.97,3.563-8.257l-16.7,16.7l0,0.219
			c0.005,2.313,0.533,3.13,2.483,3.256l9.048-9.048L75.467,95.494z"/>
		<path fill="#A6A6A6" d="M36.65,43.368l-5.949-0.01L13.019,61.039l-2.753,7.297c0,0-1.778,1.451-2.427,2.726
			c-0.25,0.49-0.508,0.964-0.731,1.846L36.65,43.368z"/>
		<path fill="#A6A6A6" d="M23.432,97.089l-9.325,9.325c0.254,0.027,0.533,0.041,0.844,0.041l5.065,0.008l3.428-3.428L23.432,97.089z
			"/>
		<path fill="#A6A6A6" d="M15.962,75.672l32.284-32.284l-5.949-0.01L6.527,79.147c-0.02,0.866-0.029,1.835-0.027,2.927
			c0.002,1.078,0.033,2.064,0.088,2.971l6.875-6.875C14.068,77.133,14.929,76.27,15.962,75.672z"/>
		<path fill="#A6A6A6" d="M13.015,84.275l-5.707,5.707c0.517,1.945,1.244,3.149,2.074,3.885l6.317-6.317
			C14.499,86.771,13.553,85.629,13.015,84.275z"/>
		<path fill="#A6A6A6" d="M94.253,51.445c-0.002-0.88,0.187-1.714,0.521-2.467L83.855,59.896l1.031,2.707
			c0,0,0.537,0.443,1.156,1.065l9.091-9.091C94.581,53.663,94.255,52.593,94.253,51.445z"/>
		<path fill="#A6A6A6" d="M68.101,46.764c-1.007-1.104-2.259-1.944-3.452-2.507L26.192,82.714c-0.43,3.065-2.835,5.476-5.878,5.878
			l-8.423,8.423l0.012,5.947L68.101,46.764z"/>
		<polygon fill="#A6A6A6" points="51.53,34.144 57.48,34.154 78.154,13.48 72.204,13.47 		"/>
		<polygon fill="#A6A6A6" points="47.414,26.645 44.59,34.132 45.884,34.134 66.558,13.46 60.609,13.45 		"/>
		<polygon fill="#A6A6A6" points="74.954,63.141 73.311,58.825 36.708,95.427 42.657,95.438 		"/>
		<path fill="#A6A6A6" d="M75.483,103.281l0-0.167l-3.439,3.439l0.405,0.001C74.88,106.558,75.488,105.809,75.483,103.281z"/>
		<path fill="#A6A6A6" d="M63.016,86.694c-1.045-1.056-1.75-2.451-1.954-4.005L48.303,95.448l5.949,0.01L63.016,86.694z"/>
		<path fill="#A6A6A6" d="M72.725,36.18c1.133,0.772,2.203,1.76,3,2.959l23.601-23.601c-1.372-1.014-2.889-1.657-4.052-1.907
			L72.725,36.18z"/>
		<polygon fill="#A6A6A6" points="80.652,51.484 82.295,55.799 106.882,31.213 105.239,26.897 		"/>
		<polygon fill="#A6A6A6" points="31.062,95.418 71.751,54.729 70.107,50.413 25.113,95.407 		"/>
		<path fill="#A6A6A6" d="M63.126,34.164l4.295,0.007c0.399,0,0.893,0.075,1.441,0.216L89.749,13.5L83.8,13.49L63.126,34.164z"/>
		<path fill="#A6A6A6" d="M53.892,43.397L22.004,75.286c1.332,0.559,2.449,1.529,3.208,2.752l34.63-34.63L53.892,43.397z"/>
		<path fill="#A6A6A6" d="M76.977,68.451l-0.462-1.214l-7.68,7.68c1.533,0.224,2.904,0.952,3.939,2.02l6.301-6.301
			C78.288,69.525,76.977,68.451,76.977,68.451z"/>
	</g>
</g>
<g id="active">
	<g>
		<path fill="#A6A6A6" d="M105.852,49.514c0.208,0.612,0.327,1.266,0.329,1.949c0.005,3.33-2.658,6.026-5.952,6.02
			c-0.699-0.001-1.367-0.13-1.991-0.355l-8.433,8.433l5.949,0.01l17.653-17.653c-0.131-2.863-0.391-4.333-0.692-5.267
			L105.852,49.514z"/>
		<path fill="#A6A6A6" d="M100.205,45.425c1.16,0.002,2.239,0.344,3.156,0.924l7.096-7.096c-0.437-0.418-0.782-0.704-0.782-0.704
			l-1.233-3.239L97.83,45.921C98.558,45.602,99.36,45.423,100.205,45.425z"/>
		<path fill="#A6A6A6" d="M96.632,70.35l0.006,3.01c0.002,1.151,0.143,1.92,0.512,2.431l15.57-15.57
			c0.433-1.647,0.712-3.831,0.767-6.726L96.632,70.35z"/>
		<path fill="#A6A6A6" d="M25.01,43.392c-2.146,0.287-6.037,2.184-7.43,5.556l-1.135,3.009L25.01,43.392z"/>
		<path fill="#A6A6A6" d="M105.148,76.65c2.432,0.005,3.038-0.745,3.033-3.271l-0.006-2.957l-6.223,6.223L105.148,76.65z"/>
		<path fill="#A6A6A6" d="M79.092,47.387l24.587-24.587l-1.396-3.666l-0.002-0.001c-0.087-0.208-0.185-0.408-0.29-0.605
			L77.449,43.072L79.092,47.387z"/>
		<path fill="#A6A6A6" d="M80.48,74.887l-5.827,5.827c0.056,0.355,0.094,0.717,0.095,1.088c0.007,3.838-3.065,6.946-6.864,6.94
			c-0.393-0.001-0.776-0.042-1.151-0.107l-6.834,6.834l4.025,0.007l0.004,1.923L80.786,80.54
			C80.749,77.95,80.636,76.169,80.48,74.887z"/>
		<path fill="#A6A6A6" d="M75.467,95.494l1.61-0.896c1.662-0.837,3.097-2.97,3.563-8.257l-16.7,16.7l0,0.219
			c0.005,2.313,0.533,3.13,2.483,3.256l9.048-9.048L75.467,95.494z"/>
		<path fill="#A6A6A6" d="M36.65,43.368l-5.949-0.01L13.019,61.039l-2.753,7.297c0,0-1.778,1.451-2.427,2.726
			c-0.25,0.49-0.508,0.964-0.731,1.846L36.65,43.368z"/>
		<path fill="#A6A6A6" d="M23.432,97.089l-9.325,9.325c0.254,0.027,0.533,0.041,0.844,0.041l5.065,0.008l3.428-3.428L23.432,97.089z
			"/>
		<path fill="#A6A6A6" d="M15.962,75.672l32.284-32.284l-5.949-0.01L6.527,79.147c-0.02,0.866-0.029,1.835-0.027,2.927
			c0.002,1.078,0.033,2.064,0.088,2.971l6.875-6.875C14.068,77.133,14.929,76.27,15.962,75.672z"/>
		<path fill="#A6A6A6" d="M13.015,84.275l-5.707,5.707c0.517,1.945,1.244,3.149,2.074,3.885l6.317-6.317
			C14.499,86.771,13.553,85.629,13.015,84.275z"/>
		<path fill="#A6A6A6" d="M94.253,51.445c-0.002-0.88,0.187-1.714,0.521-2.467L83.855,59.896l1.031,2.707
			c0,0,0.537,0.443,1.156,1.065l9.091-9.091C94.581,53.663,94.255,52.593,94.253,51.445z"/>
		<path fill="#A6A6A6" d="M68.101,46.764c-1.007-1.104-2.259-1.944-3.452-2.507L26.192,82.714c-0.43,3.065-2.835,5.476-5.878,5.878
			l-8.423,8.423l0.012,5.947L68.101,46.764z"/>
		<polygon fill="#A6A6A6" points="51.53,34.144 57.48,34.154 78.154,13.48 72.204,13.47 		"/>
		<polygon fill="#A6A6A6" points="47.414,26.645 44.59,34.132 45.884,34.134 66.558,13.46 60.609,13.45 		"/>
		<polygon fill="#A6A6A6" points="74.954,63.141 73.311,58.825 36.708,95.427 42.657,95.438 		"/>
		<path fill="#A6A6A6" d="M75.483,103.281l0-0.167l-3.439,3.439l0.405,0.001C74.88,106.558,75.488,105.809,75.483,103.281z"/>
		<path fill="#A6A6A6" d="M63.016,86.694c-1.045-1.056-1.75-2.451-1.954-4.005L48.303,95.448l5.949,0.01L63.016,86.694z"/>
		<path fill="#A6A6A6" d="M72.725,36.18c1.133,0.772,2.203,1.76,3,2.959l23.601-23.601c-1.372-1.014-2.889-1.657-4.052-1.907
			L72.725,36.18z"/>
		<polygon fill="#A6A6A6" points="80.652,51.484 82.295,55.799 106.882,31.213 105.239,26.897 		"/>
		<polygon fill="#A6A6A6" points="31.062,95.418 71.751,54.729 70.107,50.413 25.113,95.407 		"/>
		<path fill="#A6A6A6" d="M63.126,34.164l4.295,0.007c0.399,0,0.893,0.075,1.441,0.216L89.749,13.5L83.8,13.49L63.126,34.164z"/>
		<path fill="#A6A6A6" d="M53.892,43.397L22.004,75.286c1.332,0.559,2.449,1.529,3.208,2.752l34.63-34.63L53.892,43.397z"/>
		<path fill="#A6A6A6" d="M76.977,68.451l-0.462-1.214l-7.68,7.68c1.533,0.224,2.904,0.952,3.939,2.02l6.301-6.301
			C78.288,69.525,76.977,68.451,76.977,68.451z"/>
	</g>
</g>
<g id="disabled" opacity="0.2">
	<g>
		<path fill="#A6A6A6" d="M105.852,49.514c0.208,0.612,0.327,1.266,0.329,1.949c0.005,3.33-2.658,6.026-5.952,6.02
			c-0.699-0.001-1.367-0.13-1.991-0.355l-8.433,8.433l5.949,0.01l17.653-17.653c-0.131-2.863-0.391-4.333-0.692-5.267
			L105.852,49.514z"/>
		<path fill="#A6A6A6" d="M100.205,45.425c1.16,0.002,2.239,0.344,3.156,0.924l7.096-7.096c-0.437-0.418-0.782-0.704-0.782-0.704
			l-1.233-3.239L97.83,45.921C98.558,45.602,99.36,45.423,100.205,45.425z"/>
		<path fill="#A6A6A6" d="M96.632,70.35l0.006,3.01c0.002,1.151,0.143,1.92,0.512,2.431l15.57-15.57
			c0.433-1.647,0.712-3.831,0.767-6.726L96.632,70.35z"/>
		<path fill="#A6A6A6" d="M25.01,43.392c-2.146,0.287-6.037,2.184-7.43,5.556l-1.135,3.009L25.01,43.392z"/>
		<path fill="#A6A6A6" d="M105.148,76.65c2.432,0.005,3.038-0.745,3.033-3.271l-0.006-2.957l-6.223,6.223L105.148,76.65z"/>
		<path fill="#A6A6A6" d="M79.092,47.387l24.587-24.587l-1.396-3.666l-0.002-0.001c-0.087-0.208-0.185-0.408-0.29-0.605
			L77.449,43.072L79.092,47.387z"/>
		<path fill="#A6A6A6" d="M80.48,74.887l-5.827,5.827c0.056,0.355,0.094,0.717,0.095,1.088c0.007,3.838-3.065,6.946-6.864,6.94
			c-0.393-0.001-0.776-0.042-1.151-0.107l-6.834,6.834l4.025,0.007l0.004,1.923L80.786,80.54
			C80.749,77.95,80.636,76.169,80.48,74.887z"/>
		<path fill="#A6A6A6" d="M75.467,95.494l1.61-0.896c1.662-0.837,3.097-2.97,3.563-8.257l-16.7,16.7l0,0.219
			c0.005,2.313,0.533,3.13,2.483,3.256l9.048-9.048L75.467,95.494z"/>
		<path fill="#A6A6A6" d="M36.65,43.368l-5.949-0.01L13.019,61.039l-2.753,7.297c0,0-1.778,1.451-2.427,2.726
			c-0.25,0.49-0.508,0.964-0.731,1.846L36.65,43.368z"/>
		<path fill="#A6A6A6" d="M23.432,97.089l-9.325,9.325c0.254,0.027,0.533,0.041,0.844,0.041l5.065,0.008l3.428-3.428L23.432,97.089z
			"/>
		<path fill="#A6A6A6" d="M15.962,75.672l32.284-32.284l-5.949-0.01L6.527,79.147c-0.02,0.866-0.029,1.835-0.027,2.927
			c0.002,1.078,0.033,2.064,0.088,2.971l6.875-6.875C14.068,77.133,14.929,76.27,15.962,75.672z"/>
		<path fill="#A6A6A6" d="M13.015,84.275l-5.707,5.707c0.517,1.945,1.244,3.149,2.074,3.885l6.317-6.317
			C14.499,86.771,13.553,85.629,13.015,84.275z"/>
		<path fill="#A6A6A6" d="M94.253,51.445c-0.002-0.88,0.187-1.714,0.521-2.467L83.855,59.896l1.031,2.707
			c0,0,0.537,0.443,1.156,1.065l9.091-9.091C94.581,53.663,94.255,52.593,94.253,51.445z"/>
		<path fill="#A6A6A6" d="M68.101,46.764c-1.007-1.104-2.259-1.944-3.452-2.507L26.192,82.714c-0.43,3.065-2.835,5.476-5.878,5.878
			l-8.423,8.423l0.012,5.947L68.101,46.764z"/>
		<polygon fill="#A6A6A6" points="51.53,34.144 57.48,34.154 78.154,13.48 72.204,13.47 		"/>
		<polygon fill="#A6A6A6" points="47.414,26.645 44.59,34.132 45.884,34.134 66.558,13.46 60.609,13.45 		"/>
		<polygon fill="#A6A6A6" points="74.954,63.141 73.311,58.825 36.708,95.427 42.657,95.438 		"/>
		<path fill="#A6A6A6" d="M75.483,103.281l0-0.167l-3.439,3.439l0.405,0.001C74.88,106.558,75.488,105.809,75.483,103.281z"/>
		<path fill="#A6A6A6" d="M63.016,86.694c-1.045-1.056-1.75-2.451-1.954-4.005L48.303,95.448l5.949,0.01L63.016,86.694z"/>
		<path fill="#A6A6A6" d="M72.725,36.18c1.133,0.772,2.203,1.76,3,2.959l23.601-23.601c-1.372-1.014-2.889-1.657-4.052-1.907
			L72.725,36.18z"/>
		<polygon fill="#A6A6A6" points="80.652,51.484 82.295,55.799 106.882,31.213 105.239,26.897 		"/>
		<polygon fill="#A6A6A6" points="31.062,95.418 71.751,54.729 70.107,50.413 25.113,95.407 		"/>
		<path fill="#A6A6A6" d="M63.126,34.164l4.295,0.007c0.399,0,0.893,0.075,1.441,0.216L89.749,13.5L83.8,13.49L63.126,34.164z"/>
		<path fill="#A6A6A6" d="M53.892,43.397L22.004,75.286c1.332,0.559,2.449,1.529,3.208,2.752l34.63-34.63L53.892,43.397z"/>
		<path fill="#A6A6A6" d="M76.977,68.451l-0.462-1.214l-7.68,7.68c1.533,0.224,2.904,0.952,3.939,2.02l6.301-6.301
			C78.288,69.525,76.977,68.451,76.977,68.451z"/>
	</g>
</g>
</svg>
