<?xml version="1.0" encoding="utf-8"?>
<!-- Generator: Adobe Illustrator 17.0.0, SVG Export Plug-In . SVG Version: 6.00 Build 0)  -->
<!DOCTYPE svg PUBLIC "-//W3C//DTD SVG 1.1//EN" "http://www.w3.org/Graphics/SVG/1.1/DTD/svg11.dtd">
<svg version="1.1" xmlns="http://www.w3.org/2000/svg" xmlns:xlink="http://www.w3.org/1999/xlink" x="0px" y="0px" width="114px"
	 height="114px" viewBox="0 0 114 114" enable-background="new 0 0 114 114" xml:space="preserve">
<g id="normal">
	<path fill-rule="evenodd" clip-rule="evenodd" fill="#A6A6A6" d="M95.954,56.531h-4.356c0,0-0.355-0.373-0.778-0.931
		c-0.195-1.741-0.708-3.355-1.398-4.815c0-0.601,0-1.006,0-1.006h-0.516c-2.675-4.856-7.08-7.803-7.08-7.803H67.509
		c-0.067-1.893-1.515-3.41-3.302-3.41s-3.233,1.517-3.301,3.41h-4.382c0-3.017,0-5.9,0-7.95c0-6.751,6.532-17.3,6.532-17.3h28.541
		c0,0,6.534,10.549,6.534,17.3c0,4.451,0,12.812,0,17.995C98.132,54.7,95.954,56.531,95.954,56.531L95.954,56.531z M87.243,21.227
		c-4.354,0-15.476,0-19.832,0c-4.355,0-6.532,13.193-6.532,13.193h32.896C93.775,34.42,91.598,21.227,87.243,21.227L87.243,21.227z
		 M90.571,38.333c-1.831,0-3.313,1.587-3.313,3.544c0,1.957,1.482,3.542,3.313,3.542c1.83,0,3.314-1.585,3.314-3.542
		C93.886,39.92,92.401,38.333,90.571,38.333L90.571,38.333z M86.255,57.991c0,7.351,0,19.605,0,19.605h-7.353v-4.9H69.98
		c0-0.59,0-1.157,0-1.674c0-3.911-1.616-8.756-3.468-13.03h14.84c0,0-2.45-9.803-7.351-9.803c-3.055,0-8.011,0-12.5,0
		c-0.247-0.418-0.39-0.647-0.39-0.647H47.314c1.222-1.158,2.181-1.803,2.181-1.803h29.407
		C78.902,45.738,86.255,50.639,86.255,57.991L86.255,57.991z M77.748,62.473c-2.062,0-3.73,1.727-3.73,3.857
		c0,2.132,1.669,3.86,3.73,3.86c2.06,0,3.729-1.729,3.729-3.86C81.478,64.199,79.808,62.473,77.748,62.473L77.748,62.473z
		 M65.839,71.538c0,4.136,0,17.682,0,17.682c0-0.001-1.368,1.973-1.368,3.159c0,3.103-2.523,5.221-2.523,5.221h-5.043
		c0,0-2.607-2.584-2.607-4.781c0-1.624,0.085-3.037,0.085-3.037H29.109c0,0,0,1.049,0,2.377c0,2.3-2.521,5.441-2.521,5.441h-5.045
		c0,0-2.521-1.92-2.521-4.781c0-1.107-1.37-3.684-1.37-3.684s0-13.295,0-17.597c0-7.818,7.566-20.033,7.566-20.033h33.054
		C58.273,51.505,65.839,63.72,65.839,71.538L65.839,71.538z M57.085,84.733c2.119,0,3.837-1.837,3.837-4.104
		c0-2.268-1.718-4.104-3.837-4.104c-2.121,0-3.839,1.837-3.839,4.104C53.246,82.896,54.964,84.733,57.085,84.733L57.085,84.733z
		 M26.554,85.004c2.119,0,3.837-1.837,3.837-4.103c0-2.269-1.718-4.105-3.837-4.105c-2.121,0-3.839,1.837-3.839,4.105
		C22.715,83.167,24.433,85.004,26.554,85.004L26.554,85.004z M53.23,56.716c-5.045,0-17.922,0-22.966,0
		c-5.045,0-7.566,15.279-7.566,15.279h38.097C60.796,71.995,58.273,56.716,53.23,56.716L53.23,56.716z"/>
</g>
<g id="active">
	<path fill-rule="evenodd" clip-rule="evenodd" fill="#A6A6A6" d="M95.954,56.531h-4.356c0,0-0.355-0.373-0.778-0.931
		c-0.195-1.741-0.708-3.355-1.398-4.815c0-0.601,0-1.006,0-1.006h-0.516c-2.675-4.856-7.08-7.803-7.08-7.803H67.509
		c-0.067-1.893-1.515-3.41-3.302-3.41s-3.233,1.517-3.301,3.41h-4.382c0-3.017,0-5.9,0-7.95c0-6.751,6.532-17.3,6.532-17.3h28.541
		c0,0,6.534,10.549,6.534,17.3c0,4.451,0,12.812,0,17.995C98.132,54.7,95.954,56.531,95.954,56.531L95.954,56.531z M87.243,21.227
		c-4.354,0-15.476,0-19.832,0c-4.355,0-6.532,13.193-6.532,13.193h32.896C93.775,34.42,91.598,21.227,87.243,21.227L87.243,21.227z
		 M90.571,38.333c-1.831,0-3.313,1.587-3.313,3.544c0,1.957,1.482,3.542,3.313,3.542c1.83,0,3.314-1.585,3.314-3.542
		C93.886,39.92,92.401,38.333,90.571,38.333L90.571,38.333z M86.255,57.991c0,7.351,0,19.605,0,19.605h-7.353v-4.9H69.98
		c0-0.59,0-1.157,0-1.674c0-3.911-1.616-8.756-3.468-13.03h14.84c0,0-2.45-9.803-7.351-9.803c-3.055,0-8.011,0-12.5,0
		c-0.247-0.418-0.39-0.647-0.39-0.647H47.314c1.222-1.158,2.181-1.803,2.181-1.803h29.407
		C78.902,45.738,86.255,50.639,86.255,57.991L86.255,57.991z M77.748,62.473c-2.062,0-3.73,1.727-3.73,3.857
		c0,2.132,1.669,3.86,3.73,3.86c2.06,0,3.729-1.729,3.729-3.86C81.478,64.199,79.808,62.473,77.748,62.473L77.748,62.473z
		 M65.839,71.538c0,4.136,0,17.682,0,17.682c0-0.001-1.368,1.973-1.368,3.159c0,3.103-2.523,5.221-2.523,5.221h-5.043
		c0,0-2.607-2.584-2.607-4.781c0-1.624,0.085-3.037,0.085-3.037H29.109c0,0,0,1.049,0,2.377c0,2.3-2.521,5.441-2.521,5.441h-5.045
		c0,0-2.521-1.92-2.521-4.781c0-1.107-1.37-3.684-1.37-3.684s0-13.295,0-17.597c0-7.818,7.566-20.033,7.566-20.033h33.054
		C58.273,51.505,65.839,63.72,65.839,71.538L65.839,71.538z M57.085,84.733c2.119,0,3.837-1.837,3.837-4.104
		c0-2.268-1.718-4.104-3.837-4.104c-2.121,0-3.839,1.837-3.839,4.104C53.246,82.896,54.964,84.733,57.085,84.733L57.085,84.733z
		 M26.554,85.004c2.119,0,3.837-1.837,3.837-4.103c0-2.269-1.718-4.105-3.837-4.105c-2.121,0-3.839,1.837-3.839,4.105
		C22.715,83.167,24.433,85.004,26.554,85.004L26.554,85.004z M53.23,56.716c-5.045,0-17.922,0-22.966,0
		c-5.045,0-7.566,15.279-7.566,15.279h38.097C60.796,71.995,58.273,56.716,53.23,56.716L53.23,56.716z"/>
</g>
<g id="disabled" opacity="0.6">
	<path fill-rule="evenodd" clip-rule="evenodd" fill="#A6A6A6" d="M95.954,56.531h-4.356c0,0-0.355-0.373-0.778-0.931
		c-0.195-1.741-0.708-3.355-1.398-4.815c0-0.601,0-1.006,0-1.006h-0.516c-2.675-4.856-7.08-7.803-7.08-7.803H67.509
		c-0.067-1.893-1.515-3.41-3.302-3.41s-3.233,1.517-3.301,3.41h-4.382c0-3.017,0-5.9,0-7.95c0-6.751,6.532-17.3,6.532-17.3h28.541
		c0,0,6.534,10.549,6.534,17.3c0,4.451,0,12.812,0,17.995C98.132,54.7,95.954,56.531,95.954,56.531L95.954,56.531z M87.243,21.227
		c-4.354,0-15.476,0-19.832,0c-4.355,0-6.532,13.193-6.532,13.193h32.896C93.775,34.42,91.598,21.227,87.243,21.227L87.243,21.227z
		 M90.571,38.333c-1.831,0-3.313,1.587-3.313,3.544c0,1.957,1.482,3.542,3.313,3.542c1.83,0,3.314-1.585,3.314-3.542
		C93.886,39.92,92.401,38.333,90.571,38.333L90.571,38.333z M86.255,57.991c0,7.351,0,19.605,0,19.605h-7.353v-4.9H69.98
		c0-0.59,0-1.157,0-1.674c0-3.911-1.616-8.756-3.468-13.03h14.84c0,0-2.45-9.803-7.351-9.803c-3.055,0-8.011,0-12.5,0
		c-0.247-0.418-0.39-0.647-0.39-0.647H47.314c1.222-1.158,2.181-1.803,2.181-1.803h29.407
		C78.902,45.738,86.255,50.639,86.255,57.991L86.255,57.991z M77.748,62.473c-2.062,0-3.73,1.727-3.73,3.857
		c0,2.132,1.669,3.86,3.73,3.86c2.06,0,3.729-1.729,3.729-3.86C81.478,64.199,79.808,62.473,77.748,62.473L77.748,62.473z
		 M65.839,71.538c0,4.136,0,17.682,0,17.682c0-0.001-1.368,1.973-1.368,3.159c0,3.103-2.523,5.221-2.523,5.221h-5.043
		c0,0-2.607-2.584-2.607-4.781c0-1.624,0.085-3.037,0.085-3.037H29.109c0,0,0,1.049,0,2.377c0,2.3-2.521,5.441-2.521,5.441h-5.045
		c0,0-2.521-1.92-2.521-4.781c0-1.107-1.37-3.684-1.37-3.684s0-13.295,0-17.597c0-7.818,7.566-20.033,7.566-20.033h33.054
		C58.273,51.505,65.839,63.72,65.839,71.538L65.839,71.538z M57.085,84.733c2.119,0,3.837-1.837,3.837-4.104
		c0-2.268-1.718-4.104-3.837-4.104c-2.121,0-3.839,1.837-3.839,4.104C53.246,82.896,54.964,84.733,57.085,84.733L57.085,84.733z
		 M26.554,85.004c2.119,0,3.837-1.837,3.837-4.103c0-2.269-1.718-4.105-3.837-4.105c-2.121,0-3.839,1.837-3.839,4.105
		C22.715,83.167,24.433,85.004,26.554,85.004L26.554,85.004z M53.23,56.716c-5.045,0-17.922,0-22.966,0
		c-5.045,0-7.566,15.279-7.566,15.279h38.097C60.796,71.995,58.273,56.716,53.23,56.716L53.23,56.716z"/>
</g>
</svg>
