<?xml version="1.0" encoding="utf-8"?>
<!-- Generator: Adobe Illustrator 17.0.1, SVG Export Plug-In . SVG Version: 6.00 Build 0)  -->
<!DOCTYPE svg PUBLIC "-//W3C//DTD SVG 1.1//EN" "http://www.w3.org/Graphics/SVG/1.1/DTD/svg11.dtd">
<svg version="1.1" xmlns="http://www.w3.org/2000/svg" xmlns:xlink="http://www.w3.org/1999/xlink" x="0px" y="0px" width="114px"
	 height="114px" viewBox="0 0 114 114" enable-background="new 0 0 114 114" xml:space="preserve">
<g id="disabled">
	<g>
		
			<radialGradient id="SVGID_1_" cx="8.4029" cy="64.731" r="16.0015" gradientTransform="matrix(-1.6502 0 0 0.2075 87.3554 58.4493)" gradientUnits="userSpaceOnUse">
			<stop  offset="0.6962" style="stop-color:#000000;stop-opacity:0.25"/>
			<stop  offset="0.8858" style="stop-color:#6F6F6F;stop-opacity:0.0939"/>
			<stop  offset="1" style="stop-color:#AEAEAE;stop-opacity:0"/>
		</radialGradient>
		<path fill="url(#SVGID_1_)" d="M37.07,71.882c0,2.002,16.34,3.625,36.416,3.625c20.082,0,36.422-1.623,36.422-3.625
			c0-2.002-16.34-3.625-36.422-3.625C53.41,68.257,37.07,69.88,37.07,71.882z"/>
		<g>
			<path d="M79.382,30.773c-3.284-5.725-8.658-5.725-11.942,0.001L49.7,61.705c-3.284,5.725-0.57,10.408,6.03,10.408l35.366-0.004
				c6.6,0,9.312-4.685,6.028-10.41L79.382,30.773z"/>
		</g>
		<path fill-rule="evenodd" clip-rule="evenodd" fill="#AAAAAA" d="M77.959,31.9c-2.459-4.288-6.482-4.288-8.943,0.001
			L51.552,62.409c-2.471,4.289-0.443,7.798,4.507,7.797l34.865-0.003c4.949-0.001,6.977-3.51,4.506-7.799L77.959,31.9z"/>
		<path d="M89.807,54.24c-2.098-3.685-5.533-9.699-7.639-13.369l-4.922-8.566c-2.105-3.666-5.553-3.666-7.66,0l-4.922,8.566
			c-2.105,3.67-5.553,9.685-7.658,13.369l-4.944,8.6c-2.117,3.666-0.384,6.666,3.85,6.666h9.845c4.213,0,11.107,0,15.32,0H90.9
			c4.217,0,5.941-3,3.834-6.666L89.807,54.24z"/>
		<g>
			<radialGradient id="SVGID_2_" cx="73.4912" cy="49.3247" r="17.8552" gradientUnits="userSpaceOnUse">
				<stop  offset="0" style="stop-color:#FFFFFF;stop-opacity:0"/>
				<stop  offset="1" style="stop-color:#000000"/>
			</radialGradient>
			<polygon opacity="0.3" fill-rule="evenodd" clip-rule="evenodd" fill="url(#SVGID_2_)" points="73.488,32.712 54.475,65.938 
				92.508,65.934 73.488,32.712 			"/>
		</g>
		<path fill-rule="evenodd" clip-rule="evenodd" fill="#AAAAAA" d="M91.563,65.439c0,0-33.771,0-35.032,0
			c-0.24-0.046-0.483-0.07-0.73-0.07c-0.149,0-0.298,0.01-0.448,0.027c0.046-0.068,0.088-0.14,0.129-0.211l7.364-12.778
			l10.322-17.922c0.002-0.003,0.139-0.226,0.139-0.226c0.055-0.089,0.121-0.204,0.182-0.317c0.076,0.162,0.166,0.323,0.248,0.46
			l0.162,0.264l9.133,15.857c0,0,8.361,14.505,8.601,14.918C91.605,65.439,91.582,65.439,91.563,65.439"/>
		<linearGradient id="SVGID_3_" gradientUnits="userSpaceOnUse" x1="63.8742" y1="49.3282" x2="91.079" y2="66.3276">
			<stop  offset="0" style="stop-color:#000000"/>
			<stop  offset="0.0357" style="stop-color:#3A3A3A"/>
			<stop  offset="0.0698" style="stop-color:#6B6B6B"/>
			<stop  offset="0.0996" style="stop-color:#8D8D8D"/>
			<stop  offset="0.124" style="stop-color:#A3A3A3"/>
			<stop  offset="0.14" style="stop-color:#AAAAAA"/>
		</linearGradient>
		<path fill="url(#SVGID_3_)" fill-opacity="0.5" d="M91.563,65.439c0,0-33.771,0-35.032,0c-0.24-0.046-0.483-0.07-0.73-0.07
			c-0.149,0-0.298,0.01-0.448,0.027c0.046-0.068,0.088-0.14,0.129-0.211l7.364-12.778l10.322-17.922
			c0.002-0.003,0.139-0.226,0.139-0.226c0.055-0.089,0.121-0.204,0.182-0.317c0.076,0.162,0.166,0.323,0.248,0.46l0.162,0.264
			l9.133,15.857c0,0,8.361,14.505,8.601,14.918C91.605,65.439,91.582,65.439,91.563,65.439"/>
		<path d="M69.752,58.599c0,3.57,0,6.455,0,6.455h-3.195c0,0,0-2.857,0-6.406c0-1.53,3.195-3.189,3.195-4.803c0-4.518,0-8.68,0-8.68
			h3.193c0,0,0,4.162,0,8.68C72.945,55.44,69.752,57.081,69.752,58.599L69.752,58.599z M79.334,65.054c0,0,0-2.857,0-6.406
			c0-1.53-3.193-3.189-3.193-4.803c0-4.518,0-8.68,0-8.68h3.193c0,0,0,4.162,0,8.68c0,1.631,3.193,3.309,3.193,4.853
			c0,3.526,0,6.356,0,6.356H79.334L79.334,65.054z"/>
	</g>
	<g>
		
			<radialGradient id="SVGID_4_" cx="17.4366" cy="77.3781" r="16.0167" gradientTransform="matrix(-1.6502 0 0 0.2075 87.3554 64.989)" gradientUnits="userSpaceOnUse">
			<stop  offset="0.6962" style="stop-color:#000000;stop-opacity:0.25"/>
			<stop  offset="0.8858" style="stop-color:#6F6F6F;stop-opacity:0.0939"/>
			<stop  offset="1" style="stop-color:#AEAEAE;stop-opacity:0"/>
		</radialGradient>
		<path fill="url(#SVGID_4_)" d="M22.126,81.046c0,2.002,16.34,3.625,36.489,3.625c20.082,0,36.422-1.623,36.422-3.625
			s-16.34-3.625-36.422-3.625C38.466,77.421,22.126,79.044,22.126,81.046z"/>
		<g>
			<path d="M64.515,39.979c-3.287-5.723-8.669-5.726-11.961-0.005L34.771,70.877c-3.292,5.721-0.585,10.4,6.015,10.4l35.439-0.004
				c6.6,0,9.312-4.684,6.024-10.407L64.515,39.979z"/>
		</g>
		<path fill-rule="evenodd" clip-rule="evenodd" fill="#AAAAAA" d="M63.088,41.109c-2.459-4.288-6.483-4.288-8.954,0.001
			L36.608,71.573c-2.471,4.289-0.443,7.798,4.507,7.797l34.938-0.003c4.949-0.001,6.977-3.51,4.506-7.799L63.088,41.109z"/>
		<path d="M74.936,63.431c-2.098-3.667-5.533-9.681-7.639-13.351l-4.922-8.566c-2.105-3.666-5.553-3.666-7.668,0l-4.946,8.566
			c-2.117,3.67-5.58,9.684-7.696,13.351l-4.948,8.573c-2.117,3.666-0.384,6.666,3.85,6.666h9.891c4.233,0,11.134,0,15.347,0h9.824
			c4.217,0,5.941-3,3.834-6.666L74.936,63.431z"/>
		<g>
			<radialGradient id="SVGID_5_" cx="58.5838" cy="58.5112" r="17.8641" gradientUnits="userSpaceOnUse">
				<stop  offset="0" style="stop-color:#FFFFFF;stop-opacity:0"/>
				<stop  offset="1" style="stop-color:#000000"/>
			</radialGradient>
			<polygon opacity="0.3" fill-rule="evenodd" clip-rule="evenodd" fill="url(#SVGID_5_)" points="58.617,41.921 39.531,75.102 
				77.637,75.098 58.617,41.921 			"/>
		</g>
		<path fill-rule="evenodd" clip-rule="evenodd" fill="#AAAAAA" d="M76.691,74.604c0,0-33.837,0-35.104,0
			c-0.24-0.046-0.484-0.07-0.73-0.07c-0.149,0-0.298,0.01-0.448,0.027c0.046-0.068,0.088-0.14,0.129-0.211l7.396-12.743
			l10.363-17.912c0.002-0.003,0.139-0.226,0.139-0.226c0.055-0.089,0.121-0.204,0.182-0.317c0.076,0.162,0.166,0.323,0.248,0.46
			l0.162,0.264l9.133,15.857c0,0,8.361,14.46,8.602,14.873C76.734,74.604,76.711,74.604,76.691,74.604"/>
		<linearGradient id="SVGID_6_" gradientUnits="userSpaceOnUse" x1="49.003" y1="58.5373" x2="76.1877" y2="75.5242">
			<stop  offset="0" style="stop-color:#000000"/>
			<stop  offset="0.0357" style="stop-color:#3A3A3A"/>
			<stop  offset="0.0698" style="stop-color:#6B6B6B"/>
			<stop  offset="0.0996" style="stop-color:#8D8D8D"/>
			<stop  offset="0.124" style="stop-color:#A3A3A3"/>
			<stop  offset="0.14" style="stop-color:#AAAAAA"/>
		</linearGradient>
		<path fill="url(#SVGID_6_)" fill-opacity="0.5" d="M76.691,74.604c0,0-33.837,0-35.104,0c-0.24-0.046-0.484-0.07-0.73-0.07
			c-0.149,0-0.298,0.01-0.448,0.027c0.046-0.068,0.088-0.14,0.129-0.211l7.396-12.743l10.363-17.912
			c0.002-0.003,0.139-0.226,0.139-0.226c0.055-0.089,0.121-0.204,0.182-0.317c0.076,0.162,0.166,0.323,0.248,0.46l0.162,0.264
			l9.133,15.857c0,0,8.361,14.46,8.602,14.873C76.734,74.604,76.711,74.604,76.691,74.604"/>
		<g>
			<path d="M48.494,73.09h21.65v-3.299h-21.65V73.09z M49.059,70.355H69.58v2.17H49.059V70.355z"/>
			<path d="M48.494,63.636v5.195h21.65v-5.195H48.494z M69.58,68.267H49.059V64.2H69.58V68.267z"/>
		</g>
		<g>
			<polygon points="64.287,63.636 61.383,63.636 56.252,68.831 59.156,68.831 			"/>
			<polygon points="58.207,69.791 55.304,69.791 52.045,73.09 54.95,73.09 			"/>
			<polygon points="49.241,69.791 48.494,70.548 48.494,73.09 48.888,73.09 52.146,69.791 			"/>
			<polygon points="64.27,69.791 61.365,69.791 58.107,73.09 61.012,73.09 			"/>
			<polygon points="50.19,68.831 53.094,68.831 58.225,63.636 55.321,63.636 			"/>
			<polygon points="70.145,69.969 70.145,69.791 67.428,69.791 64.17,73.09 67.063,73.09 			"/>
			<polygon points="52.163,63.636 48.494,63.636 48.494,67.351 			"/>
			<polygon points="62.314,68.831 65.219,68.831 70.145,63.844 70.145,63.636 67.445,63.636 			"/>
			<polygon points="70.145,67.041 68.375,68.831 70.145,68.831 			"/>
		</g>
	</g>
	<g>
		
			<radialGradient id="SVGID_7_" cx="28.3389" cy="89.7499" r="16.0349" gradientTransform="matrix(-1.6502 0 0 0.2075 87.3554 71.3865)" gradientUnits="userSpaceOnUse">
			<stop  offset="0.6962" style="stop-color:#000000;stop-opacity:0.25"/>
			<stop  offset="0.8858" style="stop-color:#6F6F6F;stop-opacity:0.0939"/>
			<stop  offset="1" style="stop-color:#AEAEAE;stop-opacity:0"/>
		</radialGradient>
		<ellipse fill="url(#SVGID_7_)" cx="40.591" cy="90.011" rx="36.499" ry="3.625"/>
		<g>
			<path d="M46.505,48.979c-3.295-5.719-8.687-5.718-11.982,0L16.742,79.846c-3.295,5.719-0.591,10.396,6.009,10.396l35.526-0.004
				c6.6,0,9.304-4.68,6.009-10.398L46.505,48.979z"/>
		</g>
		<path fill-rule="evenodd" clip-rule="evenodd" fill="#AAAAAA" d="M45.086,50.118c-2.471-4.288-6.515-4.288-8.986,0.001
			L18.573,80.538c-2.471,4.289-0.443,7.798,4.507,7.797l35.025-0.003c4.949-0.001,6.977-3.51,4.506-7.799L45.086,50.118z"/>
		<path d="M56.989,72.396c-2.106-3.667-5.557-9.652-7.674-13.307l-4.946-8.566c-2.116-3.666-5.58-3.666-7.697,0l-4.946,8.566
			c-2.117,3.654-5.58,9.64-7.696,13.307l-4.948,8.573c-2.117,3.666-0.384,6.666,3.85,6.666h9.891c4.233,0,11.161,0,15.395,0h9.864
			c4.217,0,5.941-3,3.834-6.666L56.989,72.396z"/>
		<g>
			<radialGradient id="SVGID_8_" cx="40.5928" cy="67.498" r="17.8773" gradientUnits="userSpaceOnUse">
				<stop  offset="0" style="stop-color:#FFFFFF;stop-opacity:0"/>
				<stop  offset="1" style="stop-color:#000000"/>
			</radialGradient>
			<polygon opacity="0.3" fill-rule="evenodd" clip-rule="evenodd" fill="url(#SVGID_8_)" points="40.593,50.93 21.496,84.066 
				59.689,84.063 40.593,50.93 			"/>
		</g>
		<path fill-rule="evenodd" clip-rule="evenodd" fill="#AAAAAA" d="M58.744,83.568c0,0-33.925,0-35.191,0
			c-0.24-0.046-0.484-0.07-0.73-0.07c-0.149,0-0.298,0.01-0.448,0.027c0.046-0.068,0.088-0.14,0.129-0.211l7.396-12.743
			l10.372-17.868c0.001-0.003,0.139-0.226,0.139-0.226c0.055-0.089,0.122-0.204,0.183-0.317c0.077,0.162,0.167,0.323,0.25,0.46
			l0.163,0.264l9.177,15.814c0,0,8.392,14.46,8.632,14.873C58.787,83.568,58.764,83.568,58.744,83.568"/>
		<linearGradient id="SVGID_9_" gradientUnits="userSpaceOnUse" x1="30.987" y1="67.5326" x2="58.2074" y2="84.5418">
			<stop  offset="0" style="stop-color:#000000"/>
			<stop  offset="0.0357" style="stop-color:#3A3A3A"/>
			<stop  offset="0.0698" style="stop-color:#6B6B6B"/>
			<stop  offset="0.0996" style="stop-color:#8D8D8D"/>
			<stop  offset="0.124" style="stop-color:#A3A3A3"/>
			<stop  offset="0.14" style="stop-color:#AAAAAA"/>
		</linearGradient>
		<path fill="url(#SVGID_9_)" fill-opacity="0.5" d="M58.744,83.568c0,0-33.925,0-35.191,0c-0.24-0.046-0.484-0.07-0.73-0.07
			c-0.149,0-0.298,0.01-0.448,0.027c0.046-0.068,0.088-0.14,0.129-0.211l7.396-12.743l10.372-17.868
			c0.001-0.003,0.139-0.226,0.139-0.226c0.055-0.089,0.122-0.204,0.183-0.317c0.077,0.162,0.167,0.323,0.25,0.46l0.163,0.264
			l9.177,15.814c0,0,8.392,14.46,8.632,14.873C58.787,83.568,58.764,83.568,58.744,83.568"/>
		<path d="M47.643,72.382c-0.134-0.235-0.504-0.504-0.504-0.504l-1.526-3.586l0,0c-0.315-0.681-1.248-1.038-1.654-1.038H36.48
			c-0.407,0-1.339,0.357-1.654,1.038l-1.526,3.586c0,0-0.37,0.269-0.504,0.504c-0.134,0.237-0.283,0.447-0.283,2.037
			c0,1.551,0.354,2.102,0.778,2.294l0.334,0.165v1.439c0,0.468,0.126,0.607,0.631,0.607h1.132c0.504,0,0.631-0.14,0.631-0.607
			v-1.439h8.4v1.439c0,0.468,0.126,0.607,0.631,0.607h1.132c0.504,0,0.631-0.14,0.631-0.607v-1.439l0.335-0.165
			c0.424-0.192,0.778-0.743,0.778-2.294C47.926,72.829,47.777,72.619,47.643,72.382L47.643,72.382z M35.495,75.166
			c-0.543,0-0.985-0.397-0.985-0.886c0-0.488,0.442-0.888,0.985-0.888c0.542,0,0.983,0.399,0.983,0.888
			C36.479,74.769,36.037,75.166,35.495,75.166L35.495,75.166z M44.979,75.166c-0.542,0-0.983-0.397-0.983-0.886
			c0-0.488,0.442-0.888,0.983-0.888c0.542,0,0.985,0.399,0.985,0.888C45.964,74.769,45.522,75.166,44.979,75.166L44.979,75.166z
			 M46.075,71.878H34.363c0,0-0.28,0.023-0.194-0.247c0.071-0.228,1.078-2.48,1.29-3.099c0.084-0.213,0.571-0.701,1.228-0.665h7.064
			c0.657-0.036,1.144,0.452,1.229,0.665c0.211,0.618,1.219,2.871,1.289,3.099C46.354,71.901,46.075,71.878,46.075,71.878
			L46.075,71.878z"/>
	</g>
</g>
<g id="normal">
	<g>
		
			<radialGradient id="SVGID_10_" cx="8.4029" cy="64.731" r="16.0015" gradientTransform="matrix(-1.6502 0 0 0.2075 87.3554 58.4493)" gradientUnits="userSpaceOnUse">
			<stop  offset="0.6962" style="stop-color:#000000;stop-opacity:0.25"/>
			<stop  offset="0.8858" style="stop-color:#6F6F6F;stop-opacity:0.0939"/>
			<stop  offset="1" style="stop-color:#AEAEAE;stop-opacity:0"/>
		</radialGradient>
		<path fill="url(#SVGID_10_)" d="M37.07,71.882c0,2.002,16.34,3.625,36.416,3.625c20.082,0,36.422-1.623,36.422-3.625
			c0-2.002-16.34-3.625-36.422-3.625C53.41,68.257,37.07,69.88,37.07,71.882z"/>
		<g>
			<path d="M79.382,30.773c-3.284-5.725-8.658-5.725-11.942,0.001L49.7,61.705c-3.284,5.725-0.57,10.408,6.03,10.408l35.366-0.004
				c6.6,0,9.312-4.685,6.028-10.41L79.382,30.773z"/>
		</g>
		<path fill-rule="evenodd" clip-rule="evenodd" fill="#E99D47" d="M77.959,31.9c-2.459-4.288-6.482-4.288-8.943,0.001
			L51.552,62.409c-2.471,4.289-0.443,7.798,4.507,7.797l34.865-0.003c4.949-0.001,6.977-3.51,4.506-7.799L77.959,31.9z"/>
		<path d="M89.807,54.24c-2.098-3.685-5.533-9.699-7.639-13.369l-4.922-8.566c-2.105-3.666-5.553-3.666-7.66,0l-4.922,8.566
			c-2.105,3.67-5.553,9.685-7.658,13.369l-4.944,8.6c-2.117,3.666-0.384,6.666,3.85,6.666h9.845c4.213,0,11.107,0,15.32,0H90.9
			c4.217,0,5.941-3,3.834-6.666L89.807,54.24z"/>
		<g>
			<radialGradient id="SVGID_11_" cx="73.4912" cy="49.3247" r="17.8552" gradientUnits="userSpaceOnUse">
				<stop  offset="0" style="stop-color:#FFFFFF;stop-opacity:0"/>
				<stop  offset="1" style="stop-color:#000000"/>
			</radialGradient>
			<polygon opacity="0.3" fill-rule="evenodd" clip-rule="evenodd" fill="url(#SVGID_11_)" points="73.488,32.712 54.475,65.938 
				92.508,65.934 73.488,32.712 			"/>
		</g>
		<path fill-rule="evenodd" clip-rule="evenodd" fill="#E99D47" d="M91.563,65.439c0,0-33.771,0-35.032,0
			c-0.24-0.046-0.483-0.07-0.73-0.07c-0.149,0-0.298,0.01-0.448,0.027c0.046-0.068,0.088-0.14,0.129-0.211l7.364-12.778
			l10.322-17.922c0.002-0.003,0.139-0.226,0.139-0.226c0.055-0.089,0.121-0.204,0.182-0.317c0.076,0.162,0.166,0.323,0.248,0.46
			l0.162,0.264l9.133,15.857c0,0,8.361,14.505,8.601,14.918C91.605,65.439,91.582,65.439,91.563,65.439"/>
		<linearGradient id="SVGID_12_" gradientUnits="userSpaceOnUse" x1="63.8742" y1="49.3282" x2="91.079" y2="66.3276">
			<stop  offset="0" style="stop-color:#000000"/>
			<stop  offset="0.0263" style="stop-color:#3C2812"/>
			<stop  offset="0.0561" style="stop-color:#795125"/>
			<stop  offset="0.0835" style="stop-color:#A97234"/>
			<stop  offset="0.1075" style="stop-color:#CC893E"/>
			<stop  offset="0.1272" style="stop-color:#E19845"/>
			<stop  offset="0.14" style="stop-color:#E99D47"/>
		</linearGradient>
		<path fill="url(#SVGID_12_)" fill-opacity="0.5" d="M91.563,65.439c0,0-33.771,0-35.032,0c-0.24-0.046-0.483-0.07-0.73-0.07
			c-0.149,0-0.298,0.01-0.448,0.027c0.046-0.068,0.088-0.14,0.129-0.211l7.364-12.778l10.322-17.922
			c0.002-0.003,0.139-0.226,0.139-0.226c0.055-0.089,0.121-0.204,0.182-0.317c0.076,0.162,0.166,0.323,0.248,0.46l0.162,0.264
			l9.133,15.857c0,0,8.361,14.505,8.601,14.918C91.605,65.439,91.582,65.439,91.563,65.439"/>
		<path d="M69.752,58.599c0,3.57,0,6.455,0,6.455h-3.195c0,0,0-2.857,0-6.406c0-1.53,3.195-3.189,3.195-4.803c0-4.518,0-8.68,0-8.68
			h3.193c0,0,0,4.162,0,8.68C72.945,55.44,69.752,57.081,69.752,58.599L69.752,58.599z M79.334,65.054c0,0,0-2.857,0-6.406
			c0-1.53-3.193-3.189-3.193-4.803c0-4.518,0-8.68,0-8.68h3.193c0,0,0,4.162,0,8.68c0,1.631,3.193,3.309,3.193,4.853
			c0,3.526,0,6.356,0,6.356H79.334L79.334,65.054z"/>
	</g>
	<g>
		
			<radialGradient id="SVGID_13_" cx="17.4366" cy="77.3781" r="16.0167" gradientTransform="matrix(-1.6502 0 0 0.2075 87.3554 64.989)" gradientUnits="userSpaceOnUse">
			<stop  offset="0.6962" style="stop-color:#000000;stop-opacity:0.25"/>
			<stop  offset="0.8858" style="stop-color:#6F6F6F;stop-opacity:0.0939"/>
			<stop  offset="1" style="stop-color:#AEAEAE;stop-opacity:0"/>
		</radialGradient>
		<path fill="url(#SVGID_13_)" d="M22.126,81.046c0,2.002,16.34,3.625,36.489,3.625c20.082,0,36.422-1.623,36.422-3.625
			s-16.34-3.625-36.422-3.625C38.466,77.421,22.126,79.044,22.126,81.046z"/>
		<g>
			<path d="M64.515,39.979c-3.287-5.723-8.669-5.726-11.961-0.005L34.771,70.877c-3.292,5.721-0.585,10.4,6.015,10.4l35.439-0.004
				c6.6,0,9.312-4.684,6.024-10.407L64.515,39.979z"/>
		</g>
		<path fill-rule="evenodd" clip-rule="evenodd" fill="#E99D47" d="M63.088,41.109c-2.459-4.288-6.483-4.288-8.954,0.001
			L36.608,71.573c-2.471,4.289-0.443,7.798,4.507,7.797l34.938-0.003c4.949-0.001,6.977-3.51,4.506-7.799L63.088,41.109z"/>
		<path d="M74.936,63.431c-2.098-3.667-5.533-9.681-7.639-13.351l-4.922-8.566c-2.105-3.666-5.553-3.666-7.668,0l-4.946,8.566
			c-2.117,3.67-5.58,9.684-7.696,13.351l-4.948,8.573c-2.117,3.666-0.384,6.666,3.85,6.666h9.891c4.233,0,11.134,0,15.347,0h9.824
			c4.217,0,5.941-3,3.834-6.666L74.936,63.431z"/>
		<g>
			<radialGradient id="SVGID_14_" cx="58.5838" cy="58.5112" r="17.8641" gradientUnits="userSpaceOnUse">
				<stop  offset="0" style="stop-color:#FFFFFF;stop-opacity:0"/>
				<stop  offset="1" style="stop-color:#000000"/>
			</radialGradient>
			<polygon opacity="0.3" fill-rule="evenodd" clip-rule="evenodd" fill="url(#SVGID_14_)" points="58.617,41.921 39.531,75.102 
				77.637,75.098 58.617,41.921 			"/>
		</g>
		<path fill-rule="evenodd" clip-rule="evenodd" fill="#E99D47" d="M76.691,74.604c0,0-33.837,0-35.104,0
			c-0.24-0.046-0.484-0.07-0.73-0.07c-0.149,0-0.298,0.01-0.448,0.027c0.046-0.068,0.088-0.14,0.129-0.211l7.396-12.743
			l10.363-17.912c0.002-0.003,0.139-0.226,0.139-0.226c0.055-0.089,0.121-0.204,0.182-0.317c0.076,0.162,0.166,0.323,0.248,0.46
			l0.162,0.264l9.133,15.857c0,0,8.361,14.46,8.602,14.873C76.734,74.604,76.711,74.604,76.691,74.604"/>
		<linearGradient id="SVGID_15_" gradientUnits="userSpaceOnUse" x1="49.003" y1="58.5373" x2="76.1877" y2="75.5242">
			<stop  offset="0" style="stop-color:#000000"/>
			<stop  offset="0.0263" style="stop-color:#3C2812"/>
			<stop  offset="0.0561" style="stop-color:#795125"/>
			<stop  offset="0.0835" style="stop-color:#A97234"/>
			<stop  offset="0.1075" style="stop-color:#CC893E"/>
			<stop  offset="0.1272" style="stop-color:#E19845"/>
			<stop  offset="0.14" style="stop-color:#E99D47"/>
		</linearGradient>
		<path fill="url(#SVGID_15_)" fill-opacity="0.5" d="M76.691,74.604c0,0-33.837,0-35.104,0c-0.24-0.046-0.484-0.07-0.73-0.07
			c-0.149,0-0.298,0.01-0.448,0.027c0.046-0.068,0.088-0.14,0.129-0.211l7.396-12.743l10.363-17.912
			c0.002-0.003,0.139-0.226,0.139-0.226c0.055-0.089,0.121-0.204,0.182-0.317c0.076,0.162,0.166,0.323,0.248,0.46l0.162,0.264
			l9.133,15.857c0,0,8.361,14.46,8.602,14.873C76.734,74.604,76.711,74.604,76.691,74.604"/>
		<g>
			<path d="M48.494,73.09h21.65v-3.299h-21.65V73.09z M49.059,70.355H69.58v2.17H49.059V70.355z"/>
			<path d="M48.494,63.636v5.195h21.65v-5.195H48.494z M69.58,68.267H49.059V64.2H69.58V68.267z"/>
		</g>
		<g>
			<polygon points="64.287,63.636 61.383,63.636 56.252,68.831 59.156,68.831 			"/>
			<polygon points="58.207,69.791 55.304,69.791 52.045,73.09 54.95,73.09 			"/>
			<polygon points="49.241,69.791 48.494,70.548 48.494,73.09 48.888,73.09 52.146,69.791 			"/>
			<polygon points="64.27,69.791 61.365,69.791 58.107,73.09 61.012,73.09 			"/>
			<polygon points="50.19,68.831 53.094,68.831 58.225,63.636 55.321,63.636 			"/>
			<polygon points="70.145,69.969 70.145,69.791 67.428,69.791 64.17,73.09 67.063,73.09 			"/>
			<polygon points="52.163,63.636 48.494,63.636 48.494,67.351 			"/>
			<polygon points="62.314,68.831 65.219,68.831 70.145,63.844 70.145,63.636 67.445,63.636 			"/>
			<polygon points="70.145,67.041 68.375,68.831 70.145,68.831 			"/>
		</g>
	</g>
	<g>
		
			<radialGradient id="SVGID_16_" cx="28.3389" cy="89.7502" r="16.0349" gradientTransform="matrix(-1.6502 0 0 0.2075 87.3554 71.3864)" gradientUnits="userSpaceOnUse">
			<stop  offset="0.6962" style="stop-color:#000000;stop-opacity:0.25"/>
			<stop  offset="0.8858" style="stop-color:#6F6F6F;stop-opacity:0.0939"/>
			<stop  offset="1" style="stop-color:#AEAEAE;stop-opacity:0"/>
		</radialGradient>
		<ellipse fill="url(#SVGID_16_)" cx="40.591" cy="90.011" rx="36.499" ry="3.625"/>
		<g>
			<path d="M46.505,48.979c-3.295-5.719-8.687-5.718-11.982,0L16.742,79.846c-3.295,5.719-0.591,10.396,6.009,10.396l35.526-0.004
				c6.6,0,9.304-4.68,6.009-10.398L46.505,48.979z"/>
		</g>
		<path fill-rule="evenodd" clip-rule="evenodd" fill="#E99D47" d="M45.086,50.118c-2.471-4.288-6.515-4.288-8.986,0.001
			L18.573,80.538c-2.471,4.289-0.443,7.798,4.507,7.797l35.025-0.003c4.949-0.001,6.977-3.51,4.506-7.799L45.086,50.118z"/>
		<path d="M56.989,72.396c-2.106-3.667-5.557-9.652-7.674-13.307l-4.946-8.566c-2.116-3.666-5.58-3.666-7.697,0l-4.946,8.566
			c-2.117,3.654-5.58,9.64-7.696,13.307l-4.948,8.573c-2.117,3.666-0.384,6.666,3.85,6.666h9.891c4.233,0,11.161,0,15.395,0h9.864
			c4.217,0,5.941-3,3.834-6.666L56.989,72.396z"/>
		<g>
			<radialGradient id="SVGID_17_" cx="40.5928" cy="67.498" r="17.8773" gradientUnits="userSpaceOnUse">
				<stop  offset="0" style="stop-color:#FFFFFF;stop-opacity:0"/>
				<stop  offset="1" style="stop-color:#000000"/>
			</radialGradient>
			<polygon opacity="0.3" fill-rule="evenodd" clip-rule="evenodd" fill="url(#SVGID_17_)" points="40.593,50.93 21.496,84.066 
				59.689,84.063 40.593,50.93 			"/>
		</g>
		<path fill-rule="evenodd" clip-rule="evenodd" fill="#E99D47" d="M58.744,83.568c0,0-33.925,0-35.191,0
			c-0.24-0.046-0.484-0.07-0.73-0.07c-0.149,0-0.298,0.01-0.448,0.027c0.046-0.068,0.088-0.14,0.129-0.211l7.396-12.743
			l10.372-17.868c0.001-0.003,0.139-0.226,0.139-0.226c0.055-0.089,0.122-0.204,0.183-0.317c0.077,0.162,0.167,0.323,0.25,0.46
			l0.163,0.264l9.177,15.814c0,0,8.392,14.46,8.632,14.873C58.787,83.568,58.764,83.568,58.744,83.568"/>
		<linearGradient id="SVGID_18_" gradientUnits="userSpaceOnUse" x1="30.987" y1="67.5326" x2="58.2074" y2="84.5418">
			<stop  offset="0" style="stop-color:#000000"/>
			<stop  offset="0.0263" style="stop-color:#3C2812"/>
			<stop  offset="0.0561" style="stop-color:#795125"/>
			<stop  offset="0.0835" style="stop-color:#A97234"/>
			<stop  offset="0.1075" style="stop-color:#CC893E"/>
			<stop  offset="0.1272" style="stop-color:#E19845"/>
			<stop  offset="0.14" style="stop-color:#E99D47"/>
		</linearGradient>
		<path fill="url(#SVGID_18_)" fill-opacity="0.5" d="M58.744,83.568c0,0-33.925,0-35.191,0c-0.24-0.046-0.484-0.07-0.73-0.07
			c-0.149,0-0.298,0.01-0.448,0.027c0.046-0.068,0.088-0.14,0.129-0.211l7.396-12.743l10.372-17.868
			c0.001-0.003,0.139-0.226,0.139-0.226c0.055-0.089,0.122-0.204,0.183-0.317c0.077,0.162,0.167,0.323,0.25,0.46l0.163,0.264
			l9.177,15.814c0,0,8.392,14.46,8.632,14.873C58.787,83.568,58.764,83.568,58.744,83.568"/>
		<path d="M47.643,72.382c-0.134-0.235-0.504-0.504-0.504-0.504l-1.526-3.586l0,0c-0.315-0.681-1.248-1.038-1.654-1.038H36.48
			c-0.407,0-1.339,0.357-1.654,1.038l-1.526,3.586c0,0-0.37,0.269-0.504,0.504c-0.134,0.237-0.283,0.447-0.283,2.037
			c0,1.551,0.354,2.102,0.778,2.294l0.334,0.165v1.439c0,0.468,0.126,0.607,0.631,0.607h1.132c0.504,0,0.631-0.14,0.631-0.607
			v-1.439h8.4v1.439c0,0.468,0.126,0.607,0.631,0.607h1.132c0.504,0,0.631-0.14,0.631-0.607v-1.439l0.335-0.165
			c0.424-0.192,0.778-0.743,0.778-2.294C47.926,72.829,47.777,72.619,47.643,72.382L47.643,72.382z M35.495,75.166
			c-0.543,0-0.985-0.397-0.985-0.886c0-0.488,0.442-0.888,0.985-0.888c0.542,0,0.983,0.399,0.983,0.888
			C36.479,74.769,36.037,75.166,35.495,75.166L35.495,75.166z M44.979,75.166c-0.542,0-0.983-0.397-0.983-0.886
			c0-0.488,0.442-0.888,0.983-0.888c0.542,0,0.985,0.399,0.985,0.888C45.964,74.769,45.522,75.166,44.979,75.166L44.979,75.166z
			 M46.075,71.878H34.363c0,0-0.28,0.023-0.194-0.247c0.071-0.228,1.078-2.48,1.29-3.099c0.084-0.213,0.571-0.701,1.228-0.665h7.064
			c0.657-0.036,1.144,0.452,1.229,0.665c0.211,0.618,1.219,2.871,1.289,3.099C46.354,71.901,46.075,71.878,46.075,71.878
			L46.075,71.878z"/>
	</g>
</g>
</svg>
