<?xml version="1.0" encoding="utf-8"?>
<!-- Generator: Adobe Illustrator 17.0.0, SVG Export Plug-In . SVG Version: 6.00 Build 0)  -->
<!DOCTYPE svg PUBLIC "-//W3C//DTD SVG 1.1//EN" "http://www.w3.org/Graphics/SVG/1.1/DTD/svg11.dtd">
<svg version="1.1" xmlns="http://www.w3.org/2000/svg" xmlns:xlink="http://www.w3.org/1999/xlink" x="0px" y="0px" width="114px"
	 height="114px" viewBox="0 0 114 114" enable-background="new 0 0 114 114" xml:space="preserve">
<g id="normal">
	<path fill-rule="evenodd" clip-rule="evenodd" fill="#A6A6A6" d="M40.375,52.25L38,54.625c0,0-0.086,0.187-0.232,0.509
		c-0.059,0.095-0.13,0.184-0.179,0.283l-0.133,0.404c-1.744,3.848-7.077,15.677-6.581,15.429c0.143-0.072,0.216,0.716,0.247,1.944
		h-6.608v4.75c0,1.203-0.152,1.973-1.536,1.973h-3.53c-1.384,0-1.728-0.77-1.728-1.973v-2.86l-1.36-0.428
		c-1.161-0.493-2.708-4.561-2.708-8.555c0-4.097,0.405-4.92,0.775-5.527c0.37-0.609,1.382-1.3,1.382-1.3l4.182-12.777
		c0.866-1.75,3.421-2.862,4.534-2.862h7.236L40.375,52.25L40.375,52.25z M22.553,63.179c-1.887,0-3.422,1.661-3.422,3.257
		c0,1.597,1.536,3.4,3.422,3.4c1.885,0,3.421-1.803,3.421-3.4C25.974,64.839,24.438,63.179,22.553,63.179L22.553,63.179z"/>
	<path fill-rule="evenodd" clip-rule="evenodd" fill="#A6A6A6" d="M49.056,33.483c-1.38,5.902,3.772,8.229,3.772,8.229l8.868,8.163
		H47.5l-4.25,0.85l-2.918-2.832c0,0-10.908-7.232-8.03-19.702c2.876-12.471,19.265-14.153,19.265-14.153l51.799-0.022l0.037,15.296
		l-38.305-0.058C65.097,29.255,50.437,27.583,49.056,33.483L49.056,33.483z M30.874,87.876L38,95.001h9.5l4.75,2.375v2.021
		L8.285,99.374L8.243,84.908l21.162,0.029L30.874,87.876L30.874,87.876z"/>
	<path fill-rule="evenodd" clip-rule="evenodd" fill="#A6A6A6" d="M62.346,64.221c-1.113,0-3.667,1.111-4.534,2.862l-4.18,12.777
		c0,0-1.014,0.692-1.384,1.3c-0.309,0.508-0.641,1.195-0.742,3.792h-6.971v4.75c0,1.204-0.152,1.975-1.536,1.975h-3.53
		c-1.384,0-1.73-0.77-1.73-1.975v-2.86l-1.358-0.428c-1.161-0.493-2.708-4.561-2.708-8.555c0-4.097,0.404-4.92,0.775-5.528
		c0.37-0.607,1.382-1.299,1.382-1.299l4.182-12.777c0.866-1.75,3.421-2.862,4.534-2.862h25.491c1.113,0,3.667,1.111,4.534,2.862
		l1.952,5.966H62.346L62.346,64.221z M42.575,74.939c-1.887,0-3.422,1.659-3.422,3.256s1.536,3.4,3.422,3.4
		c1.885,0,3.419-1.803,3.419-3.4S44.46,74.939,42.575,74.939L42.575,74.939z M60.374,83.766c1.017,0,1.922,0.492,2.55,1.187h-5.101
		C58.451,84.258,59.356,83.766,60.374,83.766L60.374,83.766z"/>
	<path fill-rule="evenodd" clip-rule="evenodd" fill="#A6A6A6" d="M100.158,84.091c-0.37-0.607-1.382-1.3-1.382-1.3l-4.182-12.777
		c-0.866-1.75-3.421-2.862-4.535-2.862h-25.49c-1.115,0-3.667,1.111-4.536,2.862l-4.18,12.777c0,0-1.012,0.693-1.384,1.3
		c-0.37,0.607-0.774,1.43-0.774,5.527c0,3.996,1.547,8.062,2.708,8.555l1.358,0.428v2.86c0,1.204,0.346,1.975,1.73,1.975h3.53
		c1.384,0,1.536-0.77,1.536-1.975v-4.75h25.565v4.75c0,1.204-0.04,1.975,1.344,1.975h4.249c1.384,0,2.21-0.77,2.21-1.975v-2.86
		l1.358-0.428c1.163-0.493,1.65-4.56,1.65-8.555C100.933,85.521,100.529,84.698,100.158,84.091L100.158,84.091z M62.596,93.353
		c-1.887,0-3.421-1.803-3.421-3.4s1.534-3.256,3.421-3.256c1.887,0,3.421,1.659,3.421,3.256S64.482,93.353,62.596,93.353
		L62.596,93.353z M92.534,93.353c-1.887,0-3.421-1.803-3.421-3.4s1.534-3.256,3.421-3.256c1.887,0,3.421,1.659,3.421,3.256
		S94.421,93.353,92.534,93.353L92.534,93.353z"/>
</g>
<g id="active">
	<path fill-rule="evenodd" clip-rule="evenodd" fill="#A6A6A6" d="M40.375,52.25L38,54.625c0,0-0.086,0.187-0.232,0.509
		c-0.059,0.095-0.13,0.184-0.179,0.283l-0.133,0.404c-1.744,3.848-7.077,15.677-6.581,15.429c0.143-0.072,0.216,0.716,0.247,1.944
		h-6.608v4.75c0,1.203-0.152,1.973-1.536,1.973h-3.53c-1.384,0-1.728-0.77-1.728-1.973v-2.86l-1.36-0.428
		c-1.161-0.493-2.708-4.561-2.708-8.555c0-4.097,0.405-4.92,0.775-5.527c0.37-0.609,1.382-1.3,1.382-1.3l4.182-12.777
		c0.866-1.75,3.421-2.862,4.534-2.862h7.236L40.375,52.25L40.375,52.25z M22.553,63.179c-1.887,0-3.422,1.661-3.422,3.257
		c0,1.597,1.536,3.4,3.422,3.4c1.885,0,3.421-1.803,3.421-3.4C25.974,64.839,24.438,63.179,22.553,63.179L22.553,63.179z"/>
	<path fill-rule="evenodd" clip-rule="evenodd" fill="#A6A6A6" d="M49.056,33.483c-1.38,5.902,3.772,8.229,3.772,8.229l8.868,8.163
		H47.5l-4.25,0.85l-2.918-2.832c0,0-10.908-7.232-8.03-19.702c2.876-12.471,19.265-14.153,19.265-14.153l51.799-0.022l0.037,15.296
		l-38.305-0.058C65.097,29.255,50.437,27.583,49.056,33.483L49.056,33.483z M30.874,87.876L38,95.001h9.5l4.75,2.375v2.021
		L8.285,99.374L8.243,84.908l21.162,0.029L30.874,87.876L30.874,87.876z"/>
	<path fill-rule="evenodd" clip-rule="evenodd" fill="#A6A6A6" d="M62.346,64.221c-1.113,0-3.667,1.111-4.534,2.862l-4.18,12.777
		c0,0-1.014,0.692-1.384,1.3c-0.309,0.508-0.641,1.195-0.742,3.792h-6.971v4.75c0,1.204-0.152,1.975-1.536,1.975h-3.53
		c-1.384,0-1.73-0.77-1.73-1.975v-2.86l-1.358-0.428c-1.161-0.493-2.708-4.561-2.708-8.555c0-4.097,0.404-4.92,0.775-5.528
		c0.37-0.607,1.382-1.299,1.382-1.299l4.182-12.777c0.866-1.75,3.421-2.862,4.534-2.862h25.491c1.113,0,3.667,1.111,4.534,2.862
		l1.952,5.966H62.346L62.346,64.221z M42.575,74.939c-1.887,0-3.422,1.659-3.422,3.256s1.536,3.4,3.422,3.4
		c1.885,0,3.419-1.803,3.419-3.4S44.46,74.939,42.575,74.939L42.575,74.939z M60.374,83.766c1.017,0,1.922,0.492,2.55,1.187h-5.101
		C58.451,84.258,59.356,83.766,60.374,83.766L60.374,83.766z"/>
	<path fill-rule="evenodd" clip-rule="evenodd" fill="#A6A6A6" d="M100.158,84.091c-0.37-0.607-1.382-1.3-1.382-1.3l-4.182-12.777
		c-0.866-1.75-3.421-2.862-4.535-2.862h-25.49c-1.115,0-3.667,1.111-4.536,2.862l-4.18,12.777c0,0-1.012,0.693-1.384,1.3
		c-0.37,0.607-0.774,1.43-0.774,5.527c0,3.996,1.547,8.062,2.708,8.555l1.358,0.428v2.86c0,1.204,0.346,1.975,1.73,1.975h3.53
		c1.384,0,1.536-0.77,1.536-1.975v-4.75h25.565v4.75c0,1.204-0.04,1.975,1.344,1.975h4.249c1.384,0,2.21-0.77,2.21-1.975v-2.86
		l1.358-0.428c1.163-0.493,1.65-4.56,1.65-8.555C100.933,85.521,100.529,84.698,100.158,84.091L100.158,84.091z M62.596,93.353
		c-1.887,0-3.421-1.803-3.421-3.4s1.534-3.256,3.421-3.256c1.887,0,3.421,1.659,3.421,3.256S64.482,93.353,62.596,93.353
		L62.596,93.353z M92.534,93.353c-1.887,0-3.421-1.803-3.421-3.4s1.534-3.256,3.421-3.256c1.887,0,3.421,1.659,3.421,3.256
		S94.421,93.353,92.534,93.353L92.534,93.353z"/>
</g>
<g id="disabled" opacity="0.6">
	<path fill-rule="evenodd" clip-rule="evenodd" fill="#A6A6A6" d="M40.375,52.25L38,54.625c0,0-0.086,0.187-0.232,0.509
		c-0.059,0.095-0.13,0.184-0.179,0.283l-0.133,0.404c-1.744,3.848-7.077,15.677-6.581,15.429c0.143-0.072,0.216,0.716,0.247,1.944
		h-6.608v4.75c0,1.203-0.152,1.973-1.536,1.973h-3.53c-1.384,0-1.728-0.77-1.728-1.973v-2.86l-1.36-0.428
		c-1.161-0.493-2.708-4.561-2.708-8.555c0-4.097,0.405-4.92,0.775-5.527c0.37-0.609,1.382-1.3,1.382-1.3l4.182-12.777
		c0.866-1.75,3.421-2.862,4.534-2.862h7.236L40.375,52.25L40.375,52.25z M22.553,63.179c-1.887,0-3.422,1.661-3.422,3.257
		c0,1.597,1.536,3.4,3.422,3.4c1.885,0,3.421-1.803,3.421-3.4C25.974,64.839,24.438,63.179,22.553,63.179L22.553,63.179z"/>
	<path fill-rule="evenodd" clip-rule="evenodd" fill="#A6A6A6" d="M49.056,33.483c-1.38,5.902,3.772,8.229,3.772,8.229l8.868,8.163
		H47.5l-4.25,0.85l-2.918-2.832c0,0-10.908-7.232-8.03-19.702c2.876-12.471,19.265-14.153,19.265-14.153l51.799-0.022l0.037,15.296
		l-38.305-0.058C65.097,29.255,50.437,27.583,49.056,33.483L49.056,33.483z M30.874,87.876L38,95.001h9.5l4.75,2.375v2.021
		L8.285,99.374L8.243,84.908l21.162,0.029L30.874,87.876L30.874,87.876z"/>
	<path fill-rule="evenodd" clip-rule="evenodd" fill="#A6A6A6" d="M62.346,64.221c-1.113,0-3.667,1.111-4.534,2.862l-4.18,12.777
		c0,0-1.014,0.692-1.384,1.3c-0.309,0.508-0.641,1.195-0.742,3.792h-6.971v4.75c0,1.204-0.152,1.975-1.536,1.975h-3.53
		c-1.384,0-1.73-0.77-1.73-1.975v-2.86l-1.358-0.428c-1.161-0.493-2.708-4.561-2.708-8.555c0-4.097,0.404-4.92,0.775-5.528
		c0.37-0.607,1.382-1.299,1.382-1.299l4.182-12.777c0.866-1.75,3.421-2.862,4.534-2.862h25.491c1.113,0,3.667,1.111,4.534,2.862
		l1.952,5.966H62.346L62.346,64.221z M42.575,74.939c-1.887,0-3.422,1.659-3.422,3.256s1.536,3.4,3.422,3.4
		c1.885,0,3.419-1.803,3.419-3.4S44.46,74.939,42.575,74.939L42.575,74.939z M60.374,83.766c1.017,0,1.922,0.492,2.55,1.187h-5.101
		C58.451,84.258,59.356,83.766,60.374,83.766L60.374,83.766z"/>
	<path fill-rule="evenodd" clip-rule="evenodd" fill="#A6A6A6" d="M100.158,84.091c-0.37-0.607-1.382-1.3-1.382-1.3l-4.182-12.777
		c-0.866-1.75-3.421-2.862-4.535-2.862h-25.49c-1.115,0-3.667,1.111-4.536,2.862l-4.18,12.777c0,0-1.012,0.693-1.384,1.3
		c-0.37,0.607-0.774,1.43-0.774,5.527c0,3.996,1.547,8.062,2.708,8.555l1.358,0.428v2.86c0,1.204,0.346,1.975,1.73,1.975h3.53
		c1.384,0,1.536-0.77,1.536-1.975v-4.75h25.565v4.75c0,1.204-0.04,1.975,1.344,1.975h4.249c1.384,0,2.21-0.77,2.21-1.975v-2.86
		l1.358-0.428c1.163-0.493,1.65-4.56,1.65-8.555C100.933,85.521,100.529,84.698,100.158,84.091L100.158,84.091z M62.596,93.353
		c-1.887,0-3.421-1.803-3.421-3.4s1.534-3.256,3.421-3.256c1.887,0,3.421,1.659,3.421,3.256S64.482,93.353,62.596,93.353
		L62.596,93.353z M92.534,93.353c-1.887,0-3.421-1.803-3.421-3.4s1.534-3.256,3.421-3.256c1.887,0,3.421,1.659,3.421,3.256
		S94.421,93.353,92.534,93.353L92.534,93.353z"/>
</g>
</svg>
