<?xml version="1.0" encoding="utf-8"?>
<!-- Generator: Adobe Illustrator 17.0.0, SVG Export Plug-In . SVG Version: 6.00 Build 0)  -->
<!DOCTYPE svg PUBLIC "-//W3C//DTD SVG 1.1//EN" "http://www.w3.org/Graphics/SVG/1.1/DTD/svg11.dtd">
<svg version="1.1" xmlns="http://www.w3.org/2000/svg" xmlns:xlink="http://www.w3.org/1999/xlink" x="0px" y="0px" width="114px"
	 height="114px" viewBox="0 0 114 114" enable-background="new 0 0 114 114" xml:space="preserve">
<g id="normal">
	<g>
		<g>
			<path fill-rule="evenodd" clip-rule="evenodd" fill="#A6A6A6" d="M80.383,47.881H64.534l-0.052,0.28l-0.291,0.46l1.682,1.68
				h9.669c4.84,0,7.26,9.68,7.26,9.68h-7.239l4.549,4.544c1.287,0.325,2.299,1.345,2.659,2.656l4.871,4.867V59.981
				C87.643,52.721,80.383,47.881,80.383,47.881z M24.876,73.809c0,0,1.853-11.215,5.559-14.302
				c-1.432-1.292-2.764-2.821-3.882-4.553c-1.933,3.378-6.659,12.264-6.659,18.407c0,4.247,0,17.377,0,17.377
				s1.354,2.544,1.354,3.635c0,2.828,2.489,4.724,2.489,4.724l4.982,0c0,0,2.489-3.101,2.489-5.375c0-1.31,0-2.347,0-2.347h24.961
				c0,0-0.084,1.397-0.084,2.999c0,2.173,2.573,4.724,2.573,4.724l4.982,0c0,0,2.489-2.093,2.489-5.157
				c0-1.172,1.354-3.119,1.354-3.119s0-4.896,0-9.668l-7.362-7.345H24.876z M28.682,86.659c-2.093,0-3.788-1.816-3.788-4.054
				c0-2.238,1.696-4.054,3.788-4.054c2.092,0,3.792,1.816,3.792,4.054C32.474,84.843,30.775,86.659,28.682,86.659z M62.628,82.339
				c0,2.238-1.7,4.05-3.792,4.05c-2.092,0-3.792-1.812-3.792-4.05s1.7-4.054,3.792-4.054C60.928,78.285,62.628,80.101,62.628,82.339
				z M92.919,19.23H64.735c0,0-2.896,4.678-4.808,9.77c1.362,1.411,2.488,2.931,3.345,4.443c0.945-3.859,2.866-9.77,5.764-9.77
				h19.582c4.301,0,6.452,13.028,6.452,13.028H64.711c0.276,0.89,0.442,1.741,0.48,2.52c0.025,0.51,0.03,1.068,0.024,1.646
				c0.211-0.046,0.43-0.072,0.655-0.072c1.765,0,3.173,1.507,3.246,3.37h14.152c0,0,4.349,2.911,6.991,7.704h0.509
				c0,0,0,0.4,0,0.986c0.684,1.448,1.186,3.042,1.379,4.764c0.418,0.553,0.771,0.921,0.771,0.921h4.301c0,0,2.151-1.809,2.151-4.454
				V36.312C99.371,29.645,92.919,19.23,92.919,19.23z M91.908,47.564c-1.809,0-3.275-1.565-3.275-3.497
				c0-1.932,1.467-3.501,3.275-3.501c1.805,0,3.272,1.569,3.272,3.501C95.179,46,93.713,47.564,91.908,47.564z"/>
		</g>
	</g>
	<path fill-rule="evenodd" clip-rule="evenodd" fill="#A6A6A6" d="M92.03,91.043c-4.238,4.231-9.726,0.66-9.726,0.66L52.898,62.368
		c2.071-1.449,4.121-3.084,5.95-4.91c1.701-1.698,3.195-3.557,4.511-5.427l29.332,29.301C92.691,81.331,96.564,86.517,92.03,91.043
		L92.03,91.043z M55.826,54.44c-2.439,2.436-5.24,4.531-7.963,6.278c-2.457,0.447-5.452,0.645-7.596,0.54
		c-2.881-0.139-8.784-3.298-11.947-9.191c-2.236-4.167-4.334-12.415-2.137-12.951L36.76,49.674c0,0,4.692,2.212,10.37-3.456
		c5.679-5.668,3.462-10.352,3.462-10.352l-10.576-10.56c0.593-2.247,11.107,1.135,12.972,2.133
		c5.905,3.158,9.068,9.052,9.207,11.928c0.101,2.066-0.094,5.167-0.557,7.679C60.036,49.573,58.107,52.164,55.826,54.44
		L55.826,54.44z"/>
</g>
<g id="active">
	<g>
		<g>
			<path fill-rule="evenodd" clip-rule="evenodd" fill="#A6A6A6" d="M80.383,47.881H64.534l-0.052,0.28l-0.291,0.46l1.682,1.68
				h9.669c4.84,0,7.26,9.68,7.26,9.68h-7.239l4.549,4.544c1.287,0.325,2.299,1.345,2.659,2.656l4.871,4.867V59.981
				C87.643,52.721,80.383,47.881,80.383,47.881z M24.876,73.809c0,0,1.853-11.215,5.559-14.302
				c-1.432-1.292-2.764-2.821-3.882-4.553c-1.933,3.378-6.659,12.264-6.659,18.407c0,4.247,0,17.377,0,17.377
				s1.354,2.544,1.354,3.635c0,2.828,2.489,4.724,2.489,4.724l4.982,0c0,0,2.489-3.101,2.489-5.375c0-1.31,0-2.347,0-2.347h24.961
				c0,0-0.084,1.397-0.084,2.999c0,2.173,2.573,4.724,2.573,4.724l4.982,0c0,0,2.489-2.093,2.489-5.157
				c0-1.172,1.354-3.119,1.354-3.119s0-4.896,0-9.668l-7.362-7.345H24.876z M28.682,86.659c-2.093,0-3.788-1.816-3.788-4.054
				c0-2.238,1.696-4.054,3.788-4.054c2.092,0,3.792,1.816,3.792,4.054C32.474,84.843,30.775,86.659,28.682,86.659z M62.628,82.339
				c0,2.238-1.7,4.05-3.792,4.05c-2.092,0-3.792-1.812-3.792-4.05s1.7-4.054,3.792-4.054C60.928,78.285,62.628,80.101,62.628,82.339
				z M92.919,19.23H64.735c0,0-2.896,4.678-4.808,9.77c1.362,1.411,2.488,2.931,3.345,4.443c0.945-3.859,2.866-9.77,5.764-9.77
				h19.582c4.301,0,6.452,13.028,6.452,13.028H64.711c0.276,0.89,0.442,1.741,0.48,2.52c0.025,0.51,0.03,1.068,0.024,1.646
				c0.211-0.046,0.43-0.072,0.655-0.072c1.765,0,3.173,1.507,3.246,3.37h14.152c0,0,4.349,2.911,6.991,7.704h0.509
				c0,0,0,0.4,0,0.986c0.684,1.448,1.186,3.042,1.379,4.764c0.418,0.553,0.771,0.921,0.771,0.921h4.301c0,0,2.151-1.809,2.151-4.454
				V36.312C99.371,29.645,92.919,19.23,92.919,19.23z M91.908,47.564c-1.809,0-3.275-1.565-3.275-3.497
				c0-1.932,1.467-3.501,3.275-3.501c1.805,0,3.272,1.569,3.272,3.501C95.179,46,93.713,47.564,91.908,47.564z"/>
		</g>
	</g>
	<path fill-rule="evenodd" clip-rule="evenodd" fill="#A6A6A6" d="M92.03,91.043c-4.238,4.231-9.726,0.66-9.726,0.66L52.898,62.368
		c2.071-1.449,4.121-3.084,5.95-4.91c1.701-1.698,3.195-3.557,4.511-5.427l29.332,29.301C92.691,81.331,96.564,86.517,92.03,91.043
		L92.03,91.043z M55.826,54.44c-2.439,2.436-5.24,4.531-7.963,6.278c-2.457,0.447-5.452,0.645-7.596,0.54
		c-2.881-0.139-8.784-3.298-11.947-9.191c-2.236-4.167-4.334-12.415-2.137-12.951L36.76,49.674c0,0,4.692,2.212,10.37-3.456
		c5.679-5.668,3.462-10.352,3.462-10.352l-10.576-10.56c0.593-2.247,11.107,1.135,12.972,2.133
		c5.905,3.158,9.068,9.052,9.207,11.928c0.101,2.066-0.094,5.167-0.557,7.679C60.036,49.573,58.107,52.164,55.826,54.44
		L55.826,54.44z"/>
</g>
<g id="disabled" opacity="0.6">
	<g>
		<g>
			<path fill-rule="evenodd" clip-rule="evenodd" fill="#A6A6A6" d="M80.383,47.881H64.534l-0.052,0.28l-0.291,0.46l1.682,1.68
				h9.669c4.84,0,7.26,9.68,7.26,9.68h-7.239l4.549,4.544c1.287,0.325,2.299,1.345,2.659,2.656l4.871,4.867V59.981
				C87.643,52.721,80.383,47.881,80.383,47.881z M24.876,73.809c0,0,1.853-11.215,5.559-14.302
				c-1.432-1.292-2.764-2.821-3.882-4.553c-1.933,3.378-6.659,12.264-6.659,18.407c0,4.247,0,17.377,0,17.377
				s1.354,2.544,1.354,3.635c0,2.828,2.489,4.724,2.489,4.724l4.982,0c0,0,2.489-3.101,2.489-5.375c0-1.31,0-2.347,0-2.347h24.961
				c0,0-0.084,1.397-0.084,2.999c0,2.173,2.573,4.724,2.573,4.724l4.982,0c0,0,2.489-2.093,2.489-5.157
				c0-1.172,1.354-3.119,1.354-3.119s0-4.896,0-9.668l-7.362-7.345H24.876z M28.682,86.659c-2.093,0-3.788-1.816-3.788-4.054
				c0-2.238,1.696-4.054,3.788-4.054c2.092,0,3.792,1.816,3.792,4.054C32.474,84.843,30.775,86.659,28.682,86.659z M62.628,82.339
				c0,2.238-1.7,4.05-3.792,4.05c-2.092,0-3.792-1.812-3.792-4.05s1.7-4.054,3.792-4.054C60.928,78.285,62.628,80.101,62.628,82.339
				z M92.919,19.23H64.735c0,0-2.896,4.678-4.808,9.77c1.362,1.411,2.488,2.931,3.345,4.443c0.945-3.859,2.866-9.77,5.764-9.77
				h19.582c4.301,0,6.452,13.028,6.452,13.028H64.711c0.276,0.89,0.442,1.741,0.48,2.52c0.025,0.51,0.03,1.068,0.024,1.646
				c0.211-0.046,0.43-0.072,0.655-0.072c1.765,0,3.173,1.507,3.246,3.37h14.152c0,0,4.349,2.911,6.991,7.704h0.509
				c0,0,0,0.4,0,0.986c0.684,1.448,1.186,3.042,1.379,4.764c0.418,0.553,0.771,0.921,0.771,0.921h4.301c0,0,2.151-1.809,2.151-4.454
				V36.312C99.371,29.645,92.919,19.23,92.919,19.23z M91.908,47.564c-1.809,0-3.275-1.565-3.275-3.497
				c0-1.932,1.467-3.501,3.275-3.501c1.805,0,3.272,1.569,3.272,3.501C95.179,46,93.713,47.564,91.908,47.564z"/>
		</g>
	</g>
	<path fill-rule="evenodd" clip-rule="evenodd" fill="#A6A6A6" d="M92.03,91.043c-4.238,4.231-9.726,0.66-9.726,0.66L52.898,62.368
		c2.071-1.449,4.121-3.084,5.95-4.91c1.701-1.698,3.195-3.557,4.511-5.427l29.332,29.301C92.691,81.331,96.564,86.517,92.03,91.043
		L92.03,91.043z M55.826,54.44c-2.439,2.436-5.24,4.531-7.963,6.278c-2.457,0.447-5.452,0.645-7.596,0.54
		c-2.881-0.139-8.784-3.298-11.947-9.191c-2.236-4.167-4.334-12.415-2.137-12.951L36.76,49.674c0,0,4.692,2.212,10.37-3.456
		c5.679-5.668,3.462-10.352,3.462-10.352l-10.576-10.56c0.593-2.247,11.107,1.135,12.972,2.133
		c5.905,3.158,9.068,9.052,9.207,11.928c0.101,2.066-0.094,5.167-0.557,7.679C60.036,49.573,58.107,52.164,55.826,54.44
		L55.826,54.44z"/>
</g>
</svg>
