<?xml version="1.0" encoding="utf-8"?>
<!-- Generator: Adobe Illustrator 16.2.0, SVG Export Plug-In . SVG Version: 6.00 Build 0)  -->
<!DOCTYPE svg PUBLIC "-//W3C//DTD SVG 1.1//EN" "http://www.w3.org/Graphics/SVG/1.1/DTD/svg11.dtd">
<svg version="1.1" id="normal" xmlns="http://www.w3.org/2000/svg" xmlns:xlink="http://www.w3.org/1999/xlink" x="0px" y="0px"
	 width="66px" height="66px" viewBox="-1 -1 66 66" enable-background="new -1 -1 66 66" xml:space="preserve">
<path fill="#FF0000" d="M56.727,39.934c-3.574-6.191-9.422-16.326-12.998-22.518l-5.155-8.931c-3.575-6.192-9.425-6.192-13,0
	l-5.156,8.931c-3.575,6.192-9.424,16.325-12.999,22.518l-5.16,8.939C-1.316,55.064,1.61,60.132,8.76,60.132h10.313
	c7.15,0,18.85,0,26,0h10.313c7.149,0,10.075-5.065,6.502-11.259L56.727,39.934z"/>
<path fill="none" d="M53.497,38.253c-2.75-4.764-7.249-12.558-9.999-17.321L37.072,9.803c-2.75-4.763-7.25-4.763-10,0l-6.425,11.129
	c-2.75,4.763-7.25,12.557-9.999,17.321L4.22,49.391c-2.75,4.764-0.499,8.661,5.001,8.661h12.851c5.5,0,14.5,0,20,0h12.852
	c5.5,0,7.751-3.897,5.001-8.661L53.497,38.253z"/>
<path fill="#FFFFFF" d="M32.852,9.709c3.721,6.452,21.242,36.259,25.336,43.359c0.412,0.718-0.049,1.48-0.773,1.48
	c-7.993,0-43.052,0-50.755,0c-0.768,0-1.054-0.771-0.635-1.502c4.098-7.104,21.436-36.68,25.271-43.33
	C31.71,9,32.397,8.921,32.852,9.709L32.852,9.709z"/>
<g>
	<path d="M53.502,46.617H41.881c0,0,0.012,3.879-2.583,3.879c-2.593,0-4.094-2.977-4.094-2.977l-3.653-0.902l2.582-6.469h6.456
		l3.875-3.879h5.165l0.695,1.859l-3.123,0.284l0.648,3.577l3.566-0.325L51.2,40.469L53.502,46.617L53.502,46.617z"/>
	<polygon points="34.133,34.979 36.716,31.098 39.298,33.684 35.425,36.271 34.133,34.979 	"/>
	<polygon points="30.26,23.339 32.843,23.339 32.843,36.271 30.26,36.271 30.26,23.339 	"/>
	<path d="M27.677,46.617c0,0-1.279,3.879-3.874,3.879c-2.594,0-3.873-3.879-3.873-3.879h-9.039l3.587-6.469h5.452l-2.583-2.586
		h-1.434l1.434-2.586h1.292l3.668,5.389l6.661,1.076l1.292,5.176H27.677L27.677,46.617z"/>
	<polygon points="21.22,31.098 22.512,28.512 28.969,36.271 27.677,37.564 21.22,31.098 	"/>
</g>
<path fill="none" d="M33.837,13.954c3.146,5.454,17.957,30.649,21.417,36.653c0.35,0.604-0.04,1.25-0.652,1.25
	c-6.759,0-36.39,0-42.9,0c-0.649,0-0.891-0.651-0.536-1.269c3.463-6.006,18.12-31.007,21.358-36.628
	C32.874,13.355,33.454,13.288,33.837,13.954L33.837,13.954z"/>
</svg>
