<?xml version="1.0" encoding="utf-8"?>
<!-- Generator: Adobe Illustrator 16.2.0, SVG Export Plug-In . SVG Version: 6.00 Build 0)  -->
<!DOCTYPE svg PUBLIC "-//W3C//DTD SVG 1.1//EN" "http://www.w3.org/Graphics/SVG/1.1/DTD/svg11.dtd">
<svg version="1.1" id="normal" xmlns="http://www.w3.org/2000/svg" xmlns:xlink="http://www.w3.org/1999/xlink" x="0px" y="0px"
	 width="66px" height="66px" viewBox="0 0 66 66" enable-background="new 0 0 66 66" xml:space="preserve">
<path fill-rule="evenodd" clip-rule="evenodd" fill="#FF0000" d="M57.727,40.934c-3.574-6.192-9.423-16.326-12.998-22.518
	l-5.156-8.931c-3.575-6.192-9.425-6.192-13,0l-5.156,8.931c-3.575,6.192-9.424,16.325-12.999,22.518l-5.16,8.939
	C-0.316,56.065,2.61,61.132,9.76,61.132h10.313c7.15,0,18.85,0,26,0h10.313c7.15,0,10.076-5.066,6.502-11.259L57.727,40.934z"/>
<path display="none" d="M54.497,39.253c-2.75-4.764-7.249-12.558-9.999-17.321l-6.426-11.129c-2.75-4.763-7.25-4.763-10,0
	l-6.425,11.129c-2.75,4.763-7.25,12.557-9.999,17.321L5.22,50.391c-2.75,4.764-0.499,8.661,5.001,8.661h12.851c5.5,0,14.5,0,20,0
	h12.852c5.5,0,7.751-3.897,5.001-8.661L54.497,39.253z"/>
<path fill="#ffb723" d="M33.852,10.709c3.72,6.452,21.242,36.259,25.335,43.359c0.412,0.718-0.049,1.481-0.773,1.481
	c-7.993,0-43.052,0-50.755,0c-0.768,0-1.054-0.772-0.635-1.502c4.098-7.104,21.436-36.68,25.271-43.33
	C32.71,10,33.397,9.921,33.852,10.709L33.852,10.709z"/>
<polygon points="30.711,38.854 33.422,42.476 20.51,52.175 17.798,48.554 30.711,38.854 "/>
<path d="M25.582,38.079c0-5.545,4.506-10.058,10.045-10.058c5.537,0,10.043,4.513,10.043,10.058c0,5.544-4.506,10.057-10.043,10.057
	C30.088,48.136,25.582,43.623,25.582,38.079"/>
<path fill-rule="evenodd" clip-rule="evenodd" fill="#E40000" d="M27.583,38.079c0-4.442,3.607-8.056,8.043-8.056
	c4.435,0,8.042,3.614,8.042,8.056c0,4.441-3.607,8.056-8.042,8.056C31.191,46.135,27.583,42.521,27.583,38.079"/>
<path fill="none" d="M34.837,14.954c3.145,5.454,17.957,30.65,21.417,36.653c0.35,0.605-0.04,1.251-0.653,1.251
	c-6.758,0-36.389,0-42.9,0c-0.649,0-0.891-0.652-0.536-1.269c3.463-6.006,18.12-31.007,21.359-36.628
	C33.874,14.355,34.454,14.288,34.837,14.954L34.837,14.954z"/>
</svg>
