<?xml version="1.0" encoding="utf-8"?>
<!-- Generator: Adobe Illustrator 16.2.0, SVG Export Plug-In . SVG Version: 6.00 Build 0)  -->
<!DOCTYPE svg PUBLIC "-//W3C//DTD SVG 1.1//EN" "http://www.w3.org/Graphics/SVG/1.1/DTD/svg11.dtd">
<svg version="1.1" id="normal" xmlns="http://www.w3.org/2000/svg" xmlns:xlink="http://www.w3.org/1999/xlink" x="0px" y="0px"
	 width="66px" height="66px" viewBox="0 0 66 66" enable-background="new 0 0 66 66" xml:space="preserve">
<path fill="#F89934" d="M57.727,40.934c-3.574-6.192-9.423-16.326-12.998-22.518l-5.156-8.931c-3.575-6.192-9.425-6.192-13,0
	l-5.156,8.931c-3.575,6.192-9.424,16.325-12.999,22.518l-5.16,8.939C-0.316,56.065,2.61,61.132,9.76,61.132h10.313
	c7.15,0,18.85,0,26,0h10.313c7.15,0,10.076-5.066,6.502-11.259L57.727,40.934z"/>
<path d="M54.497,39.253c-2.75-4.764-7.249-12.558-9.999-17.321l-6.426-11.129c-2.75-4.763-7.25-4.763-10,0l-6.425,11.129
	c-2.75,4.763-7.25,12.557-9.999,17.321L5.22,50.391c-2.75,4.764-0.499,8.661,5.001,8.661h12.851c5.5,0,14.5,0,20,0h12.852
	c5.5,0,7.751-3.897,5.001-8.661L54.497,39.253z"/>
<path fill="#F89934" d="M33.822,11.718c3.578,6.207,20.434,34.877,24.37,41.708c0.396,0.69-0.047,1.426-0.744,1.426
	c-7.688,0-41.412,0-48.822,0c-0.738,0-1.013-0.743-0.61-1.445c3.941-6.833,20.62-35.283,24.308-41.68
	C32.725,11.036,33.386,10.96,33.822,11.718L33.822,11.718z"/>
<defs>
	<filter id="Adobe_OpacityMaskFilter" filterUnits="userSpaceOnUse" x="17.24" y="23.563" width="33.992" height="28.97">
		
			<feColorMatrix  type="matrix" values="-1 0 0 0 1  0 -1 0 0 1  0 0 -1 0 1  0 0 0 1 0" color-interpolation-filters="sRGB" result="source"/>
	</filter>
</defs>
<mask maskUnits="userSpaceOnUse" x="17.24" y="23.563" width="33.992" height="28.97" id="SVGID_1_">
	<g filter="url(#Adobe_OpacityMaskFilter)">
		<path d="M34.837,14.954c3.145,5.454,17.957,30.65,21.417,36.653c0.35,0.605-0.04,1.251-0.653,1.251c-6.758,0-36.389,0-42.9,0
			c-0.649,0-0.891-0.652-0.536-1.269c3.463-6.006,18.12-31.007,21.359-36.628C33.874,14.355,34.454,14.288,34.837,14.954
			L34.837,14.954z"/>
	</g>
</mask>
<path mask="url(#SVGID_1_)" d="M50.188,47.899l-2.174,0.432c0.155,0.233,0.268,0.498,0.268,0.8c0,0.815-0.661,1.479-1.476,1.479
	c-0.816,0-1.477-0.663-1.477-1.479c0-0.099,0.038-0.185,0.057-0.277l-3.563,0.709l-3.874,0.8l-0.055,0.01
	c0.104,0.203,0.178,0.424,0.178,0.668c0,0.815-0.661,1.479-1.476,1.479c-0.815,0-1.477-0.663-1.477-1.479
	c0-0.059,0.026-0.106,0.033-0.163l-0.218,0.041c0,0-1.168,0.43-1.845,0.061c-0.676-0.369-0.122-2.032-0.122-2.032l4.12-0.74
	l0.48-3.013l-0.665,0.919l-2.091,1.664l-4.858,1.602l1.67-1.271H29.68c-0.388-1.996-2.137-3.505-4.244-3.505
	c-2.107,0-3.857,1.509-4.245,3.505H17.24v-6.198h16.332v4.718l1.241-0.944l0.554-6.406l0.738,4.989l3.873-2.403l-2.354,3.258
	c0.445-0.088,7.166-1.407,7.582-1.349c0.43,0.063,1.168,1.664,1.6,1.911c0.43,0.245,3.442-0.37,3.627-0.247
	c0.185,0.124,0.678,1.478,0.678,1.478l0.122,0.556L50.188,47.899L50.188,47.899z M33.617,30.029c-0.266,0-0.482-0.275-0.482-0.616
	l-0.48-5.235c0-0.339,0.432-0.614,0.963-0.614c0.532,0,0.964,0.275,0.964,0.614l-0.48,5.235
	C34.101,29.754,33.885,30.029,33.617,30.029L33.617,30.029z M32.874,31.666v-0.07c0-0.414,0.334-0.749,0.748-0.749
	c0.412,0,0.747,0.335,0.747,0.749v0.07c0,0.415-0.335,0.749-0.747,0.749C33.208,32.415,32.874,32.081,32.874,31.666L32.874,31.666z
	 M27.651,35.859h5.921v4.949h-5.921V35.859L27.651,35.859z M17.24,35.859h9.146v4.949H17.24V35.859L17.24,35.859z M25.435,45.34
	c1.983,0,3.592,1.611,3.592,3.597c0,1.986-1.609,3.597-3.592,3.597c-1.982,0-3.59-1.61-3.59-3.597
	C21.845,46.951,23.453,45.34,25.435,45.34L25.435,45.34z"/>
<path fill="#FFFFFF" d="M46.866,49.793c-0.433,0-0.783-0.352-0.783-0.784c0-0.435,0.351-0.787,0.783-0.787
	c0.434,0,0.783,0.353,0.783,0.787C47.649,49.441,47.3,49.793,46.866,49.793L46.866,49.793z M43.85,45.012l1.219-0.253l1.199,1.431
	l-1.99,0.458L43.85,45.012L43.85,45.012z M40.446,45.716l2.905-0.603l0.432,1.646l-2.892,0.665L40.446,45.716L40.446,45.716z
	 M39.949,45.818l0.448,1.721l-3.205,0.736c-0.424,0.414-0.988,0.687-1.626,0.687c-1.298,0-2.353-1.056-2.353-2.356
	c0-0.787,0.388-1.479,0.98-1.906c0.363-0.835,1.19-1.42,2.156-1.42c1.3,0,2.352,1.056,2.352,2.356c0,0.156-0.026,0.307-0.056,0.453
	L39.949,45.818L39.949,45.818z M25.419,50.439c-0.891,0-1.614-0.725-1.614-1.617s0.723-1.616,1.614-1.616s1.615,0.724,1.615,1.616
	S26.311,50.439,25.419,50.439L25.419,50.439z M36.581,50.439c0.408,0,0.737,0.331,0.737,0.739s-0.329,0.739-0.737,0.739
	c-0.407,0-0.738-0.331-0.738-0.739S36.174,50.439,36.581,50.439L36.581,50.439z"/>
<path fill="none" d="M34.837,14.954c3.145,5.454,17.957,30.65,21.417,36.653c0.35,0.605-0.04,1.251-0.653,1.251
	c-6.758,0-36.389,0-42.9,0c-0.649,0-0.891-0.652-0.536-1.269c3.463-6.006,18.12-31.007,21.359-36.628
	C33.874,14.355,34.454,14.288,34.837,14.954L34.837,14.954z"/>
</svg>
