<?xml version="1.0" encoding="utf-8"?>
<!-- Generator: Adobe Illustrator 16.2.0, SVG Export Plug-In . SVG Version: 6.00 Build 0)  -->
<!DOCTYPE svg PUBLIC "-//W3C//DTD SVG 1.1//EN" "http://www.w3.org/Graphics/SVG/1.1/DTD/svg11.dtd">
<svg version="1.1" xmlns="http://www.w3.org/2000/svg" xmlns:xlink="http://www.w3.org/1999/xlink" x="0px" y="0px" width="96px"
	 height="96px" viewBox="0 0 96 96" enable-background="new 0 0 96 96" xml:space="preserve">
<g id="disabled">
	<path fill-opacity="0.1" d="M52.906,9.227l35.763,35.859c2.175,2.18,2.175,5.713,0,7.894L52.971,88.772
		c-2.174,2.181-5.7,2.181-7.874,0L9.333,52.914c-2.177-2.181-2.177-5.714,0-7.895L45.029,9.227
		C47.206,7.046,50.73,7.046,52.906,9.227L52.906,9.227z"/>
	<path fill="#AAAAAA" d="M51.906,8.227l35.763,35.859c2.175,2.18,2.175,5.713,0,7.894L51.971,87.772c-2.174,2.181-5.7,2.181-7.874,0
		L8.333,51.914c-2.177-2.181-2.177-5.714,0-7.895L44.029,8.227C46.206,6.046,49.73,6.046,51.906,8.227L51.906,8.227z"/>
	<path fill-rule="evenodd" clip-rule="evenodd" d="M84.698,51.147L50.963,84.933c-2.085,2.09-4.045,2.09-6.132,0L11.098,51.147
		c-2.086-2.088-2.086-4.051,0-6.141l33.733-33.787c2.086-2.089,4.047-2.089,6.132,0l33.735,33.787
		C86.784,47.096,86.784,49.059,84.698,51.147L84.698,51.147z M81.63,46.542l-32.199-32.25c-0.947-0.95-2.12-0.95-3.067,0
		l-32.199,32.25c-0.948,0.948-0.948,2.121,0,3.07l32.199,32.25c0.948,0.947,2.12,0.947,3.067,0l32.199-32.25
		C82.578,48.663,82.578,47.49,81.63,46.542L81.63,46.542z"/>
	<path fill-rule="evenodd" clip-rule="evenodd" d="M27.964,40.398v13.82h39.867v-13.82H27.964z M66.831,53.219
		c-1.854,0-36.013,0-37.866,0c0-1.588,0-10.232,0-11.82c1.853,0,36.013,0,37.866,0C66.831,42.986,66.831,51.631,66.831,53.219z"/>
	<g>
		<polygon points="32.571,54.219 38.125,54.219 51.409,40.398 45.856,40.398 		"/>
		<polygon points="62.761,40.398 57.209,40.398 43.923,54.219 49.475,54.219 		"/>
		<polygon points="27.964,47.011 27.964,52.786 39.874,40.398 34.321,40.398 		"/>
		<polygon points="61.011,54.219 67.831,47.125 67.831,41.349 55.458,54.219 		"/>
	</g>
</g>
<g id="normal">
	<path fill-opacity="0.1" d="M52.906,9.227l35.763,35.859c2.175,2.18,2.175,5.713,0,7.894L52.971,88.772
		c-2.174,2.181-5.7,2.181-7.874,0L9.333,52.914c-2.177-2.181-2.177-5.714,0-7.895L45.029,9.227
		C47.206,7.046,50.73,7.046,52.906,9.227L52.906,9.227z"/>
	<path fill="#F89934" d="M51.906,8.227l35.763,35.859c2.175,2.18,2.175,5.713,0,7.894L51.971,87.772c-2.174,2.181-5.7,2.181-7.874,0
		L8.333,51.914c-2.177-2.181-2.177-5.714,0-7.895L44.029,8.227C46.206,6.046,49.73,6.046,51.906,8.227L51.906,8.227z"/>
	<path fill-rule="evenodd" clip-rule="evenodd" d="M84.698,51.147L50.963,84.933c-2.085,2.09-4.045,2.09-6.132,0L11.098,51.147
		c-2.086-2.088-2.086-4.051,0-6.141l33.733-33.787c2.086-2.089,4.047-2.089,6.132,0l33.735,33.787
		C86.784,47.096,86.784,49.059,84.698,51.147L84.698,51.147z M81.63,46.542l-32.199-32.25c-0.947-0.95-2.12-0.95-3.067,0
		l-32.199,32.25c-0.948,0.948-0.948,2.121,0,3.07l32.199,32.25c0.948,0.947,2.12,0.947,3.067,0l32.199-32.25
		C82.578,48.663,82.578,47.49,81.63,46.542L81.63,46.542z"/>
	<path fill-rule="evenodd" clip-rule="evenodd" d="M27.964,40.398v13.82h39.867v-13.82H27.964z M66.831,53.219
		c-1.854,0-36.013,0-37.866,0c0-1.588,0-10.232,0-11.82c1.853,0,36.013,0,37.866,0C66.831,42.986,66.831,51.631,66.831,53.219z"/>
	<g>
		<polygon points="32.571,54.219 38.125,54.219 51.409,40.398 45.856,40.398 		"/>
		<polygon points="62.761,40.398 57.209,40.398 43.923,54.219 49.475,54.219 		"/>
		<polygon points="27.964,47.011 27.964,52.786 39.874,40.398 34.321,40.398 		"/>
		<polygon points="61.011,54.219 67.831,47.125 67.831,41.349 55.458,54.219 		"/>
	</g>
</g>
</svg>
