<?xml version="1.0" encoding="utf-8"?>
<!-- Generator: Adobe Illustrator 16.2.0, SVG Export Plug-In . SVG Version: 6.00 Build 0)  -->
<!DOCTYPE svg PUBLIC "-//W3C//DTD SVG 1.1//EN" "http://www.w3.org/Graphics/SVG/1.1/DTD/svg11.dtd">
<svg version="1.1" xmlns="http://www.w3.org/2000/svg" xmlns:xlink="http://www.w3.org/1999/xlink" x="0px" y="0px" width="96px"
	 height="96px" viewBox="0 0 96 96" enable-background="new 0 0 96 96" xml:space="preserve">
<g id="disabled">
	<path fill-opacity="0.1" d="M52.906,9.228l35.763,35.859c2.175,2.18,2.175,5.713,0,7.894L52.971,88.772
		c-2.174,2.181-5.7,2.181-7.874,0L9.333,52.914c-2.177-2.181-2.177-5.714,0-7.894L45.029,9.228
		C47.206,7.047,50.73,7.047,52.906,9.228L52.906,9.228z"/>
	<path fill-rule="evenodd" clip-rule="evenodd" fill="#BEBEBE" d="M51.906,8.228l35.763,35.859c2.175,2.18,2.175,5.713,0,7.894
		L51.971,87.772c-2.174,2.181-5.7,2.181-7.874,0L8.333,51.914c-2.177-2.181-2.177-5.714,0-7.894L44.029,8.228
		C46.206,6.047,49.73,6.047,51.906,8.228L51.906,8.228z"/>
	<path fill-rule="evenodd" clip-rule="evenodd" d="M84.698,51.147L50.963,84.933c-2.085,2.09-4.046,2.09-6.132,0L11.098,51.147
		c-2.086-2.088-2.086-4.051,0-6.141L44.831,11.22c2.086-2.089,4.047-2.089,6.132,0l33.735,33.787
		C86.784,47.097,86.784,49.059,84.698,51.147L84.698,51.147z M81.63,46.542l-32.199-32.25c-0.947-0.95-2.12-0.95-3.067,0
		l-32.199,32.25c-0.948,0.948-0.948,2.121,0,3.07l32.199,32.25c0.947,0.947,2.12,0.947,3.067,0l32.199-32.25
		C82.578,48.663,82.578,47.49,81.63,46.542L81.63,46.542z"/>
	<path fill-rule="evenodd" clip-rule="evenodd" d="M52.497,52.684c0,3.02-1.585,6.144-4.601,6.144c-3.015,0-4.6-3.124-4.6-6.144
		l-1.532-24.57c0-3.02,3.117-6.144,6.132-6.144c3.016,0,6.135,3.124,6.135,6.144L52.497,52.684L52.497,52.684z M47.88,73.682
		c-3.474,0-6.288-2.818-6.288-6.296s2.814-6.296,6.288-6.296c3.471,0,6.286,2.818,6.286,6.296S51.351,73.682,47.88,73.682
		L47.88,73.682z"/>
</g>
<g id="normal">
	<path fill-opacity="0.1" d="M52.906,9.228l35.763,35.859c2.175,2.18,2.175,5.713,0,7.894L52.971,88.772
		c-2.174,2.181-5.7,2.181-7.874,0L9.333,52.914c-2.177-2.181-2.177-5.714,0-7.894L45.029,9.228
		C47.206,7.047,50.73,7.047,52.906,9.228L52.906,9.228z"/>
	<path fill-rule="evenodd" clip-rule="evenodd" fill="#FFC000" d="M51.906,8.228l35.763,35.859c2.175,2.18,2.175,5.713,0,7.894
		L51.971,87.772c-2.174,2.181-5.7,2.181-7.874,0L8.333,51.914c-2.177-2.181-2.177-5.714,0-7.894L44.029,8.228
		C46.206,6.047,49.73,6.047,51.906,8.228L51.906,8.228z"/>
	<path fill-rule="evenodd" clip-rule="evenodd" d="M84.698,51.147L50.963,84.933c-2.085,2.09-4.046,2.09-6.132,0L11.098,51.147
		c-2.086-2.088-2.086-4.051,0-6.141L44.831,11.22c2.086-2.089,4.047-2.089,6.132,0l33.735,33.787
		C86.784,47.097,86.784,49.059,84.698,51.147L84.698,51.147z M81.63,46.542l-32.199-32.25c-0.947-0.95-2.12-0.95-3.067,0
		l-32.199,32.25c-0.948,0.948-0.948,2.121,0,3.07l32.199,32.25c0.947,0.947,2.12,0.947,3.067,0l32.199-32.25
		C82.578,48.663,82.578,47.49,81.63,46.542L81.63,46.542z"/>
	<path fill-rule="evenodd" clip-rule="evenodd" d="M52.497,52.684c0,3.02-1.585,6.144-4.601,6.144c-3.015,0-4.6-3.124-4.6-6.144
		l-1.532-24.57c0-3.02,3.117-6.144,6.132-6.144c3.016,0,6.135,3.124,6.135,6.144L52.497,52.684L52.497,52.684z M47.88,73.682
		c-3.474,0-6.288-2.818-6.288-6.296s2.814-6.296,6.288-6.296c3.471,0,6.286,2.818,6.286,6.296S51.351,73.682,47.88,73.682
		L47.88,73.682z"/>
</g>
</svg>
