<?xml version="1.0" encoding="utf-8"?>
<!-- Generator: Adobe Illustrator 16.2.0, SVG Export Plug-In . SVG Version: 6.00 Build 0)  -->
<!DOCTYPE svg PUBLIC "-//W3C//DTD SVG 1.1//EN" "http://www.w3.org/Graphics/SVG/1.1/DTD/svg11.dtd">
<svg version="1.1" xmlns="http://www.w3.org/2000/svg" xmlns:xlink="http://www.w3.org/1999/xlink" x="0px" y="0px" width="96px"
	 height="96px" viewBox="0 0 96 96" enable-background="new 0 0 96 96" xml:space="preserve">
<g id="disabled">
	<g>
		<path fill-opacity="0.1" d="M47.207,10.607l23.945,24.011c1.456,1.459,1.456,3.824,0,5.284L47.25,63.867
			c-1.455,1.461-3.817,1.461-5.271,0L18.033,39.859c-1.458-1.461-1.458-3.826,0-5.287l23.901-23.965
			C43.391,9.148,45.75,9.148,47.207,10.607L47.207,10.607z"/>
		<path fill="#AAAAAA" d="M46.537,9.938l23.944,24.01c1.456,1.459,1.456,3.825,0,5.286L46.58,63.198c-1.455,1.46-3.816,1.46-5.271,0
			L17.363,39.19c-1.458-1.461-1.458-3.828,0-5.287L41.264,9.938C42.721,8.478,45.08,8.478,46.537,9.938L46.537,9.938z"/>
		<path fill-rule="evenodd" clip-rule="evenodd" d="M68.493,38.676L45.906,61.297c-1.396,1.399-2.709,1.399-4.105,0L19.213,38.676
			c-1.396-1.398-1.396-2.713,0-4.113l22.587-22.621c1.396-1.399,2.709-1.399,4.105,0l22.587,22.621
			C69.89,35.963,69.89,37.276,68.493,38.676L68.493,38.676z M66.439,35.592L44.879,13.998c-0.633-0.635-1.419-0.635-2.053,0
			l-21.56,21.594c-0.634,0.636-0.634,1.421,0,2.057l21.56,21.593c0.634,0.634,1.42,0.634,2.053,0l21.561-21.593
			C67.073,37.013,67.073,36.228,66.439,35.592L66.439,35.592z"/>
		<g>
			<path fill-rule="evenodd" clip-rule="evenodd" d="M33.666,33.784c-1.795,0-3.249-1.458-3.249-3.254
				c0-1.798,1.454-3.255,3.249-3.255c1.794,0,3.249,1.457,3.249,3.255C36.915,32.327,35.46,33.784,33.666,33.784L33.666,33.784z"/>
			<path fill-rule="evenodd" clip-rule="evenodd" d="M38.073,31.922c-1.87,0-3.388-1.52-3.388-3.393
				c0-1.874,1.518-3.393,3.388-3.393c1.871,0,3.387,1.519,3.387,3.393C41.46,30.403,39.944,31.922,38.073,31.922L38.073,31.922z"/>
			<path fill-rule="evenodd" clip-rule="evenodd" d="M41.414,29.599c-0.846,0-1.531-0.686-1.531-1.534s0.686-1.534,1.531-1.534
				s1.531,0.686,1.531,1.534S42.26,29.599,41.414,29.599L41.414,29.599z"/>
			<path fill-rule="evenodd" clip-rule="evenodd" d="M38.862,38.988c-2.512,0-4.548-2.04-4.548-4.556
				c0-2.514,2.036-4.554,4.548-4.554s4.546,2.04,4.546,4.554C43.408,36.948,41.374,38.988,38.862,38.988L38.862,38.988z"/>
			<path fill-rule="evenodd" clip-rule="evenodd" d="M42.436,33.875c-1.514,0-2.739-1.227-2.739-2.742
				c0-1.514,1.226-2.742,2.739-2.742c1.511,0,2.736,1.228,2.736,2.742C45.172,32.648,43.946,33.875,42.436,33.875L42.436,33.875z"/>
			<path fill-rule="evenodd" clip-rule="evenodd" d="M45.404,31.831c-0.794,0-1.438-0.645-1.438-1.441
				c0-0.795,0.645-1.441,1.438-1.441c0.796,0,1.439,0.646,1.439,1.441C46.844,31.187,46.2,31.831,45.404,31.831L45.404,31.831z"/>
			<path fill-rule="evenodd" clip-rule="evenodd" d="M47.956,31.736c-2.357,0-4.269-1.914-4.269-4.276
				c0-2.361,1.911-4.275,4.269-4.275s4.269,1.914,4.269,4.275C52.225,29.822,50.313,31.736,47.956,31.736L47.956,31.736z"/>
			<path fill-rule="evenodd" clip-rule="evenodd" d="M44.198,37.778c-2.384,0-4.315-1.935-4.315-4.321
				c0-2.387,1.932-4.321,4.315-4.321c2.382,0,6.399,1.32,6.399,3.706C50.598,35.229,46.58,37.778,44.198,37.778L44.198,37.778z"/>
			<path fill-rule="evenodd" clip-rule="evenodd" d="M49.303,37.503c-1.257,0-2.275-1.021-2.275-2.277
				c0-1.259,1.019-2.279,2.275-2.279c1.256,0,2.273,1.02,2.273,2.279C51.576,36.482,50.559,37.503,49.303,37.503L49.303,37.503z"/>
			<path fill-rule="evenodd" clip-rule="evenodd" d="M52.457,36.199c-1.922,0-3.479-1.561-3.479-3.486
				c0-1.925,1.558-3.485,3.479-3.485s3.48,1.561,3.48,3.485C55.938,34.639,54.379,36.199,52.457,36.199L52.457,36.199z"/>
			<path fill-rule="evenodd" clip-rule="evenodd" d="M55.021,37.503c-1.256,0-2.274-1.021-2.274-2.277
				c0-1.259,1.019-2.279,2.274-2.279s2.274,1.02,2.274,2.279C57.296,36.482,56.277,37.503,55.021,37.503L55.021,37.503z"/>
		</g>
	</g>
	<g>
		<path fill-opacity="0.1" d="M66.207,22.607l23.945,24.011c1.456,1.459,1.456,3.824,0,5.284L66.25,75.867
			c-1.455,1.461-3.817,1.461-5.271,0L37.033,51.859c-1.458-1.461-1.458-3.826,0-5.287l23.901-23.965
			C62.391,21.148,64.75,21.148,66.207,22.607L66.207,22.607z"/>
		<path fill="#AAAAAA" d="M65.537,21.938l23.944,24.01c1.456,1.459,1.456,3.825,0,5.286L65.58,75.198
			c-1.455,1.46-3.816,1.46-5.271,0L36.363,51.19c-1.458-1.461-1.458-3.828,0-5.287l23.901-23.965
			C61.721,20.478,64.08,20.478,65.537,21.938L65.537,21.938z"/>
		<path fill-rule="evenodd" clip-rule="evenodd" d="M87.493,50.676L64.906,73.297c-1.396,1.399-2.709,1.399-4.105,0L38.213,50.676
			c-1.396-1.398-1.396-2.713,0-4.113l22.587-22.621c1.396-1.399,2.709-1.399,4.105,0l22.587,22.621
			C88.89,47.963,88.89,49.276,87.493,50.676L87.493,50.676z M85.439,47.592L63.879,25.998c-0.633-0.635-1.419-0.635-2.053,0
			l-21.56,21.594c-0.634,0.636-0.634,1.421,0,2.057l21.56,21.593c0.634,0.634,1.42,0.634,2.053,0l21.561-21.593
			C86.073,49.013,86.073,48.228,85.439,47.592L85.439,47.592z"/>
		<path fill-rule="evenodd" clip-rule="evenodd" d="M49.533,44.431v9.175H76v-9.175H49.533z M75.336,52.942
			c-1.23,0-23.908,0-25.138,0c0-1.054,0-6.793,0-7.847c1.229,0,23.907,0,25.138,0C75.336,46.149,75.336,51.889,75.336,52.942z"/>
		<g>
			<polygon points="52.592,53.606 56.279,53.606 65.098,44.431 61.412,44.431 			"/>
			<polygon points="72.635,44.431 68.948,44.431 60.128,53.606 63.814,53.606 			"/>
			<polygon points="49.533,48.821 49.533,52.654 57.44,44.431 53.754,44.431 			"/>
			<polygon points="71.473,53.606 76,48.897 76,45.063 67.786,53.606 			"/>
		</g>
	</g>
	<g>
		<path fill-opacity="0.1" d="M37.207,31.607l23.945,24.011c1.456,1.459,1.456,3.824,0,5.284L37.25,84.867
			c-1.456,1.461-3.818,1.461-5.272,0L8.033,60.859c-1.458-1.461-1.458-3.826,0-5.287l23.9-23.965
			C33.391,30.148,35.75,30.148,37.207,31.607L37.207,31.607z"/>
		<path fill="#AAAAAA" d="M36.537,30.938l23.944,24.01c1.456,1.459,1.456,3.825,0,5.286L36.581,84.198
			c-1.456,1.46-3.816,1.46-5.271,0L7.363,60.19c-1.458-1.461-1.458-3.828,0-5.287l23.901-23.965
			C32.72,29.478,35.081,29.478,36.537,30.938L36.537,30.938z"/>
		<path fill-rule="evenodd" clip-rule="evenodd" d="M58.493,59.676L35.906,82.297c-1.397,1.399-2.709,1.399-4.105,0L9.213,59.676
			c-1.396-1.398-1.396-2.713,0-4.113l22.587-22.621c1.396-1.399,2.708-1.399,4.105,0l22.587,22.621
			C59.89,56.963,59.89,58.276,58.493,59.676L58.493,59.676z M56.439,56.592l-21.56-21.594c-0.634-0.635-1.419-0.635-2.053,0
			l-21.56,21.594c-0.634,0.636-0.634,1.421,0,2.057l21.56,21.593c0.634,0.634,1.419,0.634,2.053,0l21.56-21.593
			C57.073,58.013,57.073,57.228,56.439,56.592L56.439,56.592z"/>
		<path fill-rule="evenodd" clip-rule="evenodd" d="M46.382,60.628c-0.151-0.263-0.502-0.798-0.502-0.798l-1.701-3.994l0,0
			c-0.353-0.756-1.515-0.531-1.967-0.531h-8.141c-0.452,0-1.561-0.225-1.913,0.531l-1.701,3.994c0,0-0.434,0.535-0.584,0.798
			c-0.149,0.263,0,0.591,0,2.361c0,1.727,0.1,2.009,0.573,2.222l0.573,0.284l0.033,1.037c0,0.521,0.422,1,0.985,1l0,0
			c0.562,0,1.018-0.498,1.018-1.02v-1.018H43.23v1.018c0,0.521,0.454,1.02,1.016,1.02l0,0c0.562,0,1.018-0.498,1.018-1.02v-1.018
			l0.627-0.284c0.472-0.213,0.491-0.495,0.491-2.222C46.382,61.219,46.533,60.891,46.382,60.628L46.382,60.628z M32.903,63.49
			c-0.604,0-1.096-0.443-1.096-0.986c0-0.545,0.492-0.988,1.096-0.988c0.605,0,1.097,0.443,1.097,0.988
			C34,63.047,33.508,63.49,32.903,63.49L32.903,63.49z M43.475,63.49c-0.604,0-1.096-0.443-1.096-0.986
			c0-0.545,0.492-0.988,1.096-0.988c0.605,0,1.097,0.443,1.097,0.988C44.572,63.047,44.08,63.49,43.475,63.49L43.475,63.49z
			 M44.247,59.38H32.038c0,0-0.095-0.718,0-1.019c0.079-0.255,0.781-1.351,1.018-2.038c1.016,0,0.284-0.041,1.016,0h7.124
			c0.732-0.041,1.018,0,2.036,0c0.235,0.688,0.937,1.783,1.016,2.038C44.342,58.662,44.247,59.38,44.247,59.38L44.247,59.38z"/>
		<path fill-rule="evenodd" clip-rule="evenodd" d="M37.711,49.195c-0.129-0.222-0.478-0.478-0.478-0.478l-1.443-3.39h-0.001
			c-0.299-0.643-0.813-1.234-1.197-1.234h-7.444c-0.384,0-1.269,0.591-1.568,1.234l-1.443,3.39c0,0-0.35,0.256-0.478,0.478
			c-0.127,0.223-0.267,0.421-0.267,1.925c0,1.467,0.188,2.24,0.588,2.422h1.18v1.181c0,0.441,0.702,1.182,1.18,1.182l0,0
			c0.478,0,1.178-0.74,1.178-1.182v-1.181h5.896v1.181c0,0.441,0.702,1.182,1.18,1.182l0,0c0.476,0,1.178-0.74,1.178-1.182v-1.181
			h1.18c0.402-0.182,1.029-0.955,1.029-2.422C37.978,49.616,37.838,49.418,37.711,49.195L37.711,49.195z M26.211,51.827
			c-0.513,0-0.931-0.377-0.931-0.839s0.418-0.837,0.931-0.837c0.515,0,0.932,0.375,0.932,0.837S26.726,51.827,26.211,51.827
			L26.211,51.827z M35.191,51.827c-0.515,0-0.932-0.377-0.932-0.839s0.417-0.837,0.932-0.837c0.513,0,0.931,0.375,0.931,0.837
			S35.704,51.827,35.191,51.827L35.191,51.827z M35.769,48.817H25.157c0,0-0.281-0.076-0.2-0.333c0.067-0.215,1.02-2.344,1.22-2.93
			c0.081-0.2,0.718-0.314,1.338-0.279h5.896c0.622-0.035,1.697,0.079,1.778,0.279c0.202,0.586,1.153,2.715,1.221,2.93
			C36.491,48.741,35.769,48.817,35.769,48.817L35.769,48.817z"/>
	</g>
</g>
<g id="normal">
	<g>
		<path fill-opacity="0.1" d="M47.207,10.607l23.945,24.011c1.456,1.459,1.456,3.824,0,5.284L47.25,63.867
			c-1.455,1.461-3.817,1.461-5.271,0L18.033,39.859c-1.458-1.461-1.458-3.826,0-5.287l23.901-23.965
			C43.391,9.148,45.75,9.148,47.207,10.607L47.207,10.607z"/>
		<path fill="#F89934" d="M46.537,9.938l23.944,24.01c1.456,1.459,1.456,3.825,0,5.286L46.58,63.198c-1.455,1.46-3.816,1.46-5.271,0
			L17.363,39.19c-1.458-1.461-1.458-3.828,0-5.287L41.264,9.938C42.721,8.478,45.08,8.478,46.537,9.938L46.537,9.938z"/>
		<path fill-rule="evenodd" clip-rule="evenodd" d="M68.493,38.676L45.906,61.297c-1.396,1.399-2.709,1.399-4.105,0L19.213,38.676
			c-1.396-1.398-1.396-2.713,0-4.113l22.587-22.621c1.396-1.399,2.709-1.399,4.105,0l22.587,22.621
			C69.89,35.963,69.89,37.276,68.493,38.676L68.493,38.676z M66.439,35.592L44.879,13.998c-0.633-0.635-1.419-0.635-2.053,0
			l-21.56,21.594c-0.634,0.636-0.634,1.421,0,2.057l21.56,21.593c0.634,0.634,1.42,0.634,2.053,0l21.561-21.593
			C67.073,37.013,67.073,36.228,66.439,35.592L66.439,35.592z"/>
		<g>
			<path fill-rule="evenodd" clip-rule="evenodd" d="M33.666,33.784c-1.795,0-3.249-1.458-3.249-3.254
				c0-1.798,1.454-3.255,3.249-3.255c1.794,0,3.249,1.457,3.249,3.255C36.915,32.327,35.46,33.784,33.666,33.784L33.666,33.784z"/>
			<path fill-rule="evenodd" clip-rule="evenodd" d="M38.073,31.922c-1.87,0-3.388-1.52-3.388-3.393
				c0-1.874,1.518-3.393,3.388-3.393c1.871,0,3.387,1.519,3.387,3.393C41.46,30.403,39.944,31.922,38.073,31.922L38.073,31.922z"/>
			<path fill-rule="evenodd" clip-rule="evenodd" d="M41.414,29.599c-0.846,0-1.531-0.686-1.531-1.534s0.686-1.534,1.531-1.534
				s1.531,0.686,1.531,1.534S42.26,29.599,41.414,29.599L41.414,29.599z"/>
			<path fill-rule="evenodd" clip-rule="evenodd" d="M38.862,38.988c-2.512,0-4.548-2.04-4.548-4.556
				c0-2.514,2.036-4.554,4.548-4.554s4.546,2.04,4.546,4.554C43.408,36.948,41.374,38.988,38.862,38.988L38.862,38.988z"/>
			<path fill-rule="evenodd" clip-rule="evenodd" d="M42.436,33.875c-1.514,0-2.739-1.227-2.739-2.742
				c0-1.514,1.226-2.742,2.739-2.742c1.511,0,2.736,1.228,2.736,2.742C45.172,32.648,43.946,33.875,42.436,33.875L42.436,33.875z"/>
			<path fill-rule="evenodd" clip-rule="evenodd" d="M45.404,31.831c-0.794,0-1.438-0.645-1.438-1.441
				c0-0.795,0.645-1.441,1.438-1.441c0.796,0,1.439,0.646,1.439,1.441C46.844,31.187,46.2,31.831,45.404,31.831L45.404,31.831z"/>
			<path fill-rule="evenodd" clip-rule="evenodd" d="M47.956,31.736c-2.357,0-4.269-1.914-4.269-4.276
				c0-2.361,1.911-4.275,4.269-4.275s4.269,1.914,4.269,4.275C52.225,29.822,50.313,31.736,47.956,31.736L47.956,31.736z"/>
			<path fill-rule="evenodd" clip-rule="evenodd" d="M44.198,37.778c-2.384,0-4.315-1.935-4.315-4.321
				c0-2.387,1.932-4.321,4.315-4.321c2.382,0,6.399,1.32,6.399,3.706C50.598,35.229,46.58,37.778,44.198,37.778L44.198,37.778z"/>
			<path fill-rule="evenodd" clip-rule="evenodd" d="M49.303,37.503c-1.257,0-2.275-1.021-2.275-2.277
				c0-1.259,1.019-2.279,2.275-2.279c1.256,0,2.273,1.02,2.273,2.279C51.576,36.482,50.559,37.503,49.303,37.503L49.303,37.503z"/>
			<path fill-rule="evenodd" clip-rule="evenodd" d="M52.457,36.199c-1.922,0-3.479-1.561-3.479-3.486
				c0-1.925,1.558-3.485,3.479-3.485s3.48,1.561,3.48,3.485C55.938,34.639,54.379,36.199,52.457,36.199L52.457,36.199z"/>
			<path fill-rule="evenodd" clip-rule="evenodd" d="M55.021,37.503c-1.256,0-2.274-1.021-2.274-2.277
				c0-1.259,1.019-2.279,2.274-2.279s2.274,1.02,2.274,2.279C57.296,36.482,56.277,37.503,55.021,37.503L55.021,37.503z"/>
		</g>
	</g>
	<g>
		<path fill-opacity="0.1" d="M66.207,22.607l23.945,24.011c1.456,1.459,1.456,3.824,0,5.284L66.25,75.867
			c-1.455,1.461-3.817,1.461-5.271,0L37.033,51.859c-1.458-1.461-1.458-3.826,0-5.287l23.901-23.965
			C62.391,21.148,64.75,21.148,66.207,22.607L66.207,22.607z"/>
		<path fill="#F89934" d="M65.537,21.938l23.944,24.01c1.456,1.459,1.456,3.825,0,5.286L65.58,75.198
			c-1.455,1.46-3.816,1.46-5.271,0L36.363,51.19c-1.458-1.461-1.458-3.828,0-5.287l23.901-23.965
			C61.721,20.478,64.08,20.478,65.537,21.938L65.537,21.938z"/>
		<path fill-rule="evenodd" clip-rule="evenodd" d="M87.493,50.676L64.906,73.297c-1.396,1.399-2.709,1.399-4.105,0L38.213,50.676
			c-1.396-1.398-1.396-2.713,0-4.113l22.587-22.621c1.396-1.399,2.709-1.399,4.105,0l22.587,22.621
			C88.89,47.963,88.89,49.276,87.493,50.676L87.493,50.676z M85.439,47.592L63.879,25.998c-0.633-0.635-1.419-0.635-2.053,0
			l-21.56,21.594c-0.634,0.636-0.634,1.421,0,2.057l21.56,21.593c0.634,0.634,1.42,0.634,2.053,0l21.561-21.593
			C86.073,49.013,86.073,48.228,85.439,47.592L85.439,47.592z"/>
		<path fill-rule="evenodd" clip-rule="evenodd" d="M49.533,44.431v9.175H76v-9.175H49.533z M75.336,52.942
			c-1.23,0-23.908,0-25.138,0c0-1.054,0-6.793,0-7.847c1.229,0,23.907,0,25.138,0C75.336,46.149,75.336,51.889,75.336,52.942z"/>
		<g>
			<polygon points="52.592,53.606 56.279,53.606 65.098,44.431 61.412,44.431 			"/>
			<polygon points="72.635,44.431 68.948,44.431 60.128,53.606 63.814,53.606 			"/>
			<polygon points="49.533,48.821 49.533,52.654 57.44,44.431 53.754,44.431 			"/>
			<polygon points="71.473,53.606 76,48.897 76,45.063 67.786,53.606 			"/>
		</g>
	</g>
	<g>
		<path fill-opacity="0.1" d="M37.207,31.607l23.945,24.011c1.456,1.459,1.456,3.824,0,5.284L37.25,84.867
			c-1.456,1.461-3.818,1.461-5.272,0L8.033,60.859c-1.458-1.461-1.458-3.826,0-5.287l23.9-23.965
			C33.391,30.148,35.75,30.148,37.207,31.607L37.207,31.607z"/>
		<path fill="#F89934" d="M36.537,30.938l23.944,24.01c1.456,1.459,1.456,3.825,0,5.286L36.581,84.198
			c-1.456,1.46-3.816,1.46-5.271,0L7.363,60.19c-1.458-1.461-1.458-3.828,0-5.287l23.901-23.965
			C32.72,29.478,35.081,29.478,36.537,30.938L36.537,30.938z"/>
		<path fill-rule="evenodd" clip-rule="evenodd" d="M58.493,59.676L35.906,82.297c-1.397,1.399-2.709,1.399-4.105,0L9.213,59.676
			c-1.396-1.398-1.396-2.713,0-4.113l22.587-22.621c1.396-1.399,2.708-1.399,4.105,0l22.587,22.621
			C59.89,56.963,59.89,58.276,58.493,59.676L58.493,59.676z M56.439,56.592l-21.56-21.594c-0.634-0.635-1.419-0.635-2.053,0
			l-21.56,21.594c-0.634,0.636-0.634,1.421,0,2.057l21.56,21.593c0.634,0.634,1.419,0.634,2.053,0l21.56-21.593
			C57.073,58.013,57.073,57.228,56.439,56.592L56.439,56.592z"/>
		<path fill-rule="evenodd" clip-rule="evenodd" d="M46.382,60.628c-0.151-0.263-0.502-0.798-0.502-0.798l-1.701-3.994l0,0
			c-0.353-0.756-1.515-0.531-1.967-0.531h-8.141c-0.452,0-1.561-0.225-1.913,0.531l-1.701,3.994c0,0-0.434,0.535-0.584,0.798
			c-0.149,0.263,0,0.591,0,2.361c0,1.727,0.1,2.009,0.573,2.222l0.573,0.284l0.033,1.037c0,0.521,0.422,1,0.985,1l0,0
			c0.562,0,1.018-0.498,1.018-1.02v-1.018H43.23v1.018c0,0.521,0.454,1.02,1.016,1.02l0,0c0.562,0,1.018-0.498,1.018-1.02v-1.018
			l0.627-0.284c0.472-0.213,0.491-0.495,0.491-2.222C46.382,61.219,46.533,60.891,46.382,60.628L46.382,60.628z M32.903,63.49
			c-0.604,0-1.096-0.443-1.096-0.986c0-0.545,0.492-0.988,1.096-0.988c0.605,0,1.097,0.443,1.097,0.988
			C34,63.047,33.508,63.49,32.903,63.49L32.903,63.49z M43.475,63.49c-0.604,0-1.096-0.443-1.096-0.986
			c0-0.545,0.492-0.988,1.096-0.988c0.605,0,1.097,0.443,1.097,0.988C44.572,63.047,44.08,63.49,43.475,63.49L43.475,63.49z
			 M44.247,59.38H32.038c0,0-0.095-0.718,0-1.019c0.079-0.255,0.781-1.351,1.018-2.038c1.016,0,0.284-0.041,1.016,0h7.124
			c0.732-0.041,1.018,0,2.036,0c0.235,0.688,0.937,1.783,1.016,2.038C44.342,58.662,44.247,59.38,44.247,59.38L44.247,59.38z"/>
		<path fill-rule="evenodd" clip-rule="evenodd" d="M37.711,49.195c-0.129-0.222-0.478-0.478-0.478-0.478l-1.443-3.39h-0.001
			c-0.299-0.643-0.813-1.234-1.197-1.234h-7.444c-0.384,0-1.269,0.591-1.568,1.234l-1.443,3.39c0,0-0.35,0.256-0.478,0.478
			c-0.127,0.223-0.267,0.421-0.267,1.925c0,1.467,0.188,2.24,0.588,2.422h1.18v1.181c0,0.441,0.702,1.182,1.18,1.182l0,0
			c0.478,0,1.178-0.74,1.178-1.182v-1.181h5.896v1.181c0,0.441,0.702,1.182,1.18,1.182l0,0c0.476,0,1.178-0.74,1.178-1.182v-1.181
			h1.18c0.402-0.182,1.029-0.955,1.029-2.422C37.978,49.616,37.838,49.418,37.711,49.195L37.711,49.195z M26.211,51.827
			c-0.513,0-0.931-0.377-0.931-0.839s0.418-0.837,0.931-0.837c0.515,0,0.932,0.375,0.932,0.837S26.726,51.827,26.211,51.827
			L26.211,51.827z M35.191,51.827c-0.515,0-0.932-0.377-0.932-0.839s0.417-0.837,0.932-0.837c0.513,0,0.931,0.375,0.931,0.837
			S35.704,51.827,35.191,51.827L35.191,51.827z M35.769,48.817H25.157c0,0-0.281-0.076-0.2-0.333c0.067-0.215,1.02-2.344,1.22-2.93
			c0.081-0.2,0.718-0.314,1.338-0.279h5.896c0.622-0.035,1.697,0.079,1.778,0.279c0.202,0.586,1.153,2.715,1.221,2.93
			C36.491,48.741,35.769,48.817,35.769,48.817L35.769,48.817z"/>
	</g>
</g>
</svg>
