<?xml version="1.0" encoding="utf-8"?>
<!-- Generator: Adobe Illustrator 16.2.0, SVG Export Plug-In . SVG Version: 6.00 Build 0)  -->
<!DOCTYPE svg PUBLIC "-//W3C//DTD SVG 1.1//EN" "http://www.w3.org/Graphics/SVG/1.1/DTD/svg11.dtd">
<svg version="1.1" xmlns="http://www.w3.org/2000/svg" xmlns:xlink="http://www.w3.org/1999/xlink" x="0px" y="0px" width="96px"
	 height="96px" viewBox="0 0 96 96" enable-background="new 0 0 96 96" xml:space="preserve">
<g id="disabled">
	<path fill-opacity="0.1" d="M52.906,9.228l35.763,35.859c2.175,2.18,2.175,5.713,0,7.894L52.971,88.772
		c-2.174,2.181-5.7,2.181-7.874,0L9.333,52.914c-2.177-2.181-2.177-5.714,0-7.894L45.029,9.228
		C47.206,7.047,50.73,7.047,52.906,9.228L52.906,9.228z"/>
	<path fill-rule="evenodd" clip-rule="evenodd" fill="#BEBEBE" d="M51.906,8.228l35.763,35.859c2.175,2.18,2.175,5.713,0,7.894
		L51.971,87.772c-2.174,2.181-5.7,2.181-7.874,0L8.333,51.914c-2.177-2.181-2.177-5.714,0-7.894L44.029,8.228
		C46.206,6.047,49.73,6.047,51.906,8.228L51.906,8.228z"/>
	<path fill-rule="evenodd" clip-rule="evenodd" d="M84.698,51.147L50.963,84.933c-2.085,2.09-4.046,2.09-6.132,0L11.098,51.147
		c-2.086-2.088-2.086-4.051,0-6.141L44.831,11.22c2.086-2.089,4.047-2.089,6.132,0l33.735,33.787
		C86.784,47.097,86.784,49.059,84.698,51.147L84.698,51.147z M81.63,46.542l-32.199-32.25c-0.947-0.95-2.12-0.95-3.067,0
		l-32.199,32.25c-0.948,0.948-0.948,2.121,0,3.07l32.199,32.25c0.947,0.947,2.12,0.947,3.067,0l32.199-32.25
		C82.578,48.663,82.578,47.49,81.63,46.542L81.63,46.542z"/>
	<path fill-rule="evenodd" clip-rule="evenodd" d="M66.446,53.027c-0.225-0.395-0.756-1.201-0.756-1.201l-2.561-6.018l0,0
		c-0.532-1.14-2.283-0.802-2.967-0.802H47.896c-0.683,0-2.354-0.338-2.885,0.802l-2.563,6.018c0,0-0.651,0.807-0.879,1.201
		c-0.227,0.396,0,0.892,0,3.561c0,2.601,0.151,3.026,0.862,3.348l0.864,0.427l0.051,1.564c0,0.784,0.635,1.507,1.483,1.507l0,0
		c0.848,0,1.532-0.751,1.532-1.536v-1.535h15.334v1.535c0,0.785,0.687,1.536,1.534,1.536l0,0c0.846,0,1.532-0.751,1.532-1.536
		v-1.535l0.944-0.427c0.712-0.321,0.738-0.747,0.738-3.348C66.446,53.919,66.674,53.423,66.446,53.027L66.446,53.027z
		 M46.136,57.342c-0.911,0-1.652-0.668-1.652-1.487s0.741-1.486,1.652-1.486c0.91,0,1.651,0.667,1.651,1.486
		S47.046,57.342,46.136,57.342L46.136,57.342z M62.067,57.342c-0.911,0-1.651-0.668-1.651-1.487s0.74-1.486,1.651-1.486
		s1.653,0.667,1.653,1.486S62.979,57.342,62.067,57.342L62.067,57.342z M63.231,51.147h-18.4c0,0-0.144-1.081,0-1.535
		c0.12-0.383,1.178-2.033,1.532-3.07c1.533,0,0.43-0.062,1.533,0h10.734c1.104-0.062,1.532,0,3.066,0
		c0.355,1.037,1.413,2.687,1.534,3.07C63.373,50.066,63.231,51.147,63.231,51.147L63.231,51.147z"/>
	<path fill-rule="evenodd" clip-rule="evenodd" d="M53.38,35.8c-0.192-0.335-0.719-0.719-0.719-0.719l-2.178-5.11l0,0
		c-0.45-0.969-1.226-1.858-1.805-1.858H37.461c-0.579,0-1.913,0.889-2.364,1.858l-2.175,5.11c0,0-0.527,0.384-0.721,0.719
		c-0.192,0.336-0.403,0.635-0.403,2.901c0,2.21,0.284,3.377,0.887,3.649h1.777v1.78c0,0.665,1.058,1.78,1.776,1.78l0,0
		c0.722,0,1.777-1.115,1.777-1.78v-1.78h8.886v1.78c0,0.665,1.058,1.78,1.777,1.78l0,0c0.719,0,1.776-1.115,1.776-1.78v-1.78h1.777
		c0.604-0.271,1.551-1.438,1.551-3.649C53.783,36.436,53.572,36.137,53.38,35.8L53.38,35.8z M36.052,39.767
		c-0.773,0-1.402-0.566-1.402-1.264c0-0.695,0.629-1.262,1.402-1.262c0.772,0,1.403,0.567,1.403,1.262
		C37.455,39.2,36.824,39.767,36.052,39.767L36.052,39.767z M49.582,39.767c-0.773,0-1.402-0.566-1.402-1.264
		c0-0.695,0.629-1.262,1.402-1.262c0.774,0,1.403,0.567,1.403,1.262C50.985,39.2,50.356,39.767,49.582,39.767L49.582,39.767z
		 M50.455,35.232H34.462c0,0-0.423-0.116-0.302-0.502c0.102-0.326,1.537-3.535,1.839-4.416c0.122-0.303,1.08-0.473,2.017-0.42h8.886
		c0.937-0.053,2.559,0.117,2.681,0.42c0.302,0.881,1.737,4.09,1.839,4.416C51.541,35.116,50.455,35.232,50.455,35.232L50.455,35.232
		z"/>
</g>
<g id="normal">
	<path fill-opacity="0.1" d="M52.906,9.228l35.763,35.859c2.175,2.18,2.175,5.713,0,7.894L52.971,88.772
		c-2.174,2.181-5.7,2.181-7.874,0L9.333,52.914c-2.177-2.181-2.177-5.714,0-7.894L45.029,9.228
		C47.206,7.047,50.73,7.047,52.906,9.228L52.906,9.228z"/>
	<path fill-rule="evenodd" clip-rule="evenodd" fill="#FFC000" d="M51.906,8.228l35.763,35.859c2.175,2.18,2.175,5.713,0,7.894
		L51.971,87.772c-2.174,2.181-5.7,2.181-7.874,0L8.333,51.914c-2.177-2.181-2.177-5.714,0-7.894L44.029,8.228
		C46.206,6.047,49.73,6.047,51.906,8.228L51.906,8.228z"/>
	<path fill-rule="evenodd" clip-rule="evenodd" d="M84.698,51.147L50.963,84.933c-2.085,2.09-4.046,2.09-6.132,0L11.098,51.147
		c-2.086-2.088-2.086-4.051,0-6.141L44.831,11.22c2.086-2.089,4.047-2.089,6.132,0l33.735,33.787
		C86.784,47.097,86.784,49.059,84.698,51.147L84.698,51.147z M81.63,46.542l-32.199-32.25c-0.947-0.95-2.12-0.95-3.067,0
		l-32.199,32.25c-0.948,0.948-0.948,2.121,0,3.07l32.199,32.25c0.947,0.947,2.12,0.947,3.067,0l32.199-32.25
		C82.578,48.663,82.578,47.49,81.63,46.542L81.63,46.542z"/>
	<path fill-rule="evenodd" clip-rule="evenodd" d="M66.446,53.027c-0.225-0.395-0.756-1.201-0.756-1.201l-2.561-6.018l0,0
		c-0.532-1.14-2.283-0.802-2.967-0.802H47.896c-0.683,0-2.354-0.338-2.885,0.802l-2.563,6.018c0,0-0.651,0.807-0.879,1.201
		c-0.227,0.396,0,0.892,0,3.561c0,2.601,0.151,3.026,0.862,3.348l0.864,0.427l0.051,1.564c0,0.784,0.635,1.507,1.483,1.507l0,0
		c0.848,0,1.532-0.751,1.532-1.536v-1.535h15.334v1.535c0,0.785,0.687,1.536,1.534,1.536l0,0c0.846,0,1.532-0.751,1.532-1.536
		v-1.535l0.944-0.427c0.712-0.321,0.738-0.747,0.738-3.348C66.446,53.919,66.674,53.423,66.446,53.027L66.446,53.027z
		 M46.136,57.342c-0.911,0-1.652-0.668-1.652-1.487s0.741-1.486,1.652-1.486c0.91,0,1.651,0.667,1.651,1.486
		S47.046,57.342,46.136,57.342L46.136,57.342z M62.067,57.342c-0.911,0-1.651-0.668-1.651-1.487s0.74-1.486,1.651-1.486
		s1.653,0.667,1.653,1.486S62.979,57.342,62.067,57.342L62.067,57.342z M63.231,51.147h-18.4c0,0-0.144-1.081,0-1.535
		c0.12-0.383,1.178-2.033,1.532-3.07c1.533,0,0.43-0.062,1.533,0h10.734c1.104-0.062,1.532,0,3.066,0
		c0.355,1.037,1.413,2.687,1.534,3.07C63.373,50.066,63.231,51.147,63.231,51.147L63.231,51.147z"/>
	<path fill-rule="evenodd" clip-rule="evenodd" d="M53.38,35.8c-0.192-0.335-0.719-0.719-0.719-0.719l-2.178-5.11l0,0
		c-0.45-0.969-1.226-1.858-1.805-1.858H37.461c-0.579,0-1.913,0.889-2.364,1.858l-2.175,5.11c0,0-0.527,0.384-0.721,0.719
		c-0.192,0.336-0.403,0.635-0.403,2.901c0,2.21,0.284,3.377,0.887,3.649h1.777v1.78c0,0.665,1.058,1.78,1.776,1.78l0,0
		c0.722,0,1.777-1.115,1.777-1.78v-1.78h8.886v1.78c0,0.665,1.058,1.78,1.777,1.78l0,0c0.719,0,1.776-1.115,1.776-1.78v-1.78h1.777
		c0.604-0.271,1.551-1.438,1.551-3.649C53.783,36.436,53.572,36.137,53.38,35.8L53.38,35.8z M36.052,39.767
		c-0.773,0-1.402-0.566-1.402-1.264c0-0.695,0.629-1.262,1.402-1.262c0.772,0,1.403,0.567,1.403,1.262
		C37.455,39.2,36.824,39.767,36.052,39.767L36.052,39.767z M49.582,39.767c-0.773,0-1.402-0.566-1.402-1.264
		c0-0.695,0.629-1.262,1.402-1.262c0.774,0,1.403,0.567,1.403,1.262C50.985,39.2,50.356,39.767,49.582,39.767L49.582,39.767z
		 M50.455,35.232H34.462c0,0-0.423-0.116-0.302-0.502c0.102-0.326,1.537-3.535,1.839-4.416c0.122-0.303,1.08-0.473,2.017-0.42h8.886
		c0.937-0.053,2.559,0.117,2.681,0.42c0.302,0.881,1.737,4.09,1.839,4.416C51.541,35.116,50.455,35.232,50.455,35.232L50.455,35.232
		z"/>
</g>
</svg>
