<?xml version="1.0" encoding="utf-8"?>
<!-- Generator: Adobe Illustrator 16.2.0, SVG Export Plug-In . SVG Version: 6.00 Build 0)  -->
<!DOCTYPE svg PUBLIC "-//W3C//DTD SVG 1.1//EN" "http://www.w3.org/Graphics/SVG/1.1/DTD/svg11.dtd">
<svg version="1.1" xmlns="http://www.w3.org/2000/svg" xmlns:xlink="http://www.w3.org/1999/xlink" x="0px" y="0px" width="96px"
	 height="96px" viewBox="0 0 96 96" enable-background="new 0 0 96 96" xml:space="preserve">
<g id="disabled">
	<path fill-opacity="0.1" d="M52.906,9.227l35.763,35.859c2.175,2.18,2.175,5.713,0,7.894L52.971,88.772
		c-2.174,2.181-5.7,2.181-7.874,0L9.333,52.914c-2.177-2.181-2.177-5.714,0-7.895L45.029,9.227
		C47.206,7.046,50.73,7.046,52.906,9.227L52.906,9.227z"/>
	<path fill-rule="evenodd" clip-rule="evenodd" fill="#BEBEBE" d="M51.906,8.227l35.763,35.859c2.175,2.18,2.175,5.713,0,7.894
		L51.971,87.772c-2.174,2.181-5.7,2.181-7.874,0L8.333,51.914c-2.177-2.181-2.177-5.714,0-7.895L44.029,8.227
		C46.206,6.046,49.73,6.046,51.906,8.227L51.906,8.227z"/>
	<path fill-rule="evenodd" clip-rule="evenodd" d="M84.698,51.147L50.963,84.933c-2.085,2.09-4.045,2.09-6.132,0L11.098,51.147
		c-2.086-2.088-2.086-4.051,0-6.141l33.733-33.787c2.086-2.089,4.047-2.089,6.132,0l33.735,33.787
		C86.784,47.096,86.784,49.059,84.698,51.147L84.698,51.147z M81.63,46.542l-32.199-32.25c-0.947-0.95-2.12-0.95-3.067,0
		l-32.199,32.25c-0.948,0.948-0.948,2.121,0,3.07l32.199,32.25c0.948,0.947,2.12,0.947,3.067,0l32.199-32.25
		C82.578,48.663,82.578,47.49,81.63,46.542L81.63,46.542z"/>
	<path fill-rule="evenodd" clip-rule="evenodd" d="M30.802,58.808l-2.56-2.562l5.542-5.549l2.558,2.563L30.802,58.808L30.802,58.808
		z M41.657,58.808l-2.558-2.562l5.54-5.549l2.56,2.563L41.657,58.808L41.657,58.808z M52.513,58.808l-2.558-2.562l5.54-5.549
		l2.558,2.563L52.513,58.808L52.513,58.808z M63.368,58.808l-2.559-2.562l5.542-5.549l2.558,2.563L63.368,58.808L63.368,58.808z
		 M33.628,67.076l-2.558-2.563l5.54-5.55l2.56,2.563L33.628,67.076L33.628,67.076z M44.485,67.076l-2.56-2.563l5.542-5.55
		l2.558,2.563L44.485,67.076L44.485,67.076z M55.34,67.076l-2.559-2.563l5.54-5.55l2.56,2.563L55.34,67.076L55.34,67.076z"/>
	<g>
		<path fill-rule="evenodd" clip-rule="evenodd" d="M34.013,42.102c-2.687,0-4.864-2.182-4.864-4.872
			c0-2.691,2.177-4.873,4.864-4.873s4.865,2.182,4.865,4.873C38.878,39.92,36.699,42.102,34.013,42.102L34.013,42.102z"/>
		<path fill-rule="evenodd" clip-rule="evenodd" d="M40.612,39.315c-2.801,0-5.072-2.275-5.072-5.08c0-2.806,2.271-5.08,5.072-5.08
			c2.801,0,5.072,2.274,5.072,5.08C45.684,37.04,43.413,39.315,40.612,39.315L40.612,39.315z"/>
		<path fill-rule="evenodd" clip-rule="evenodd" d="M45.614,35.836c-1.266,0-2.293-1.027-2.293-2.296
			c0-1.269,1.027-2.296,2.293-2.296s2.293,1.027,2.293,2.296C47.907,34.809,46.879,35.836,45.614,35.836L45.614,35.836z"/>
		<path fill-rule="evenodd" clip-rule="evenodd" d="M41.793,49.894c-3.76,0-6.809-3.053-6.809-6.82c0-3.765,3.049-6.818,6.809-6.818
			c3.76,0,6.807,3.054,6.807,6.818C48.601,46.84,45.553,49.894,41.793,49.894L41.793,49.894z"/>
		<path fill-rule="evenodd" clip-rule="evenodd" d="M47.143,42.239c-2.265,0-4.1-1.837-4.1-4.105c0-2.267,1.835-4.106,4.1-4.106
			c2.262,0,4.098,1.839,4.098,4.106C51.241,40.401,49.405,42.239,47.143,42.239L47.143,42.239z"/>
		<path fill-rule="evenodd" clip-rule="evenodd" d="M51.589,39.179c-1.189,0-2.154-0.965-2.154-2.158
			c0-1.191,0.965-2.158,2.154-2.158c1.191,0,2.155,0.967,2.155,2.158C53.744,38.213,52.78,39.179,51.589,39.179L51.589,39.179z"/>
		<path fill-rule="evenodd" clip-rule="evenodd" d="M55.409,39.036c-3.529,0-6.391-2.866-6.391-6.402
			c0-3.535,2.861-6.401,6.391-6.401c3.53,0,6.392,2.866,6.392,6.401C61.801,36.17,58.939,39.036,55.409,39.036L55.409,39.036z"/>
		<path fill-rule="evenodd" clip-rule="evenodd" d="M49.782,48.083c-3.568,0-6.461-2.896-6.461-6.47c0-3.574,2.893-6.47,6.461-6.47
			c3.567,0,9.583,1.977,9.583,5.549C59.365,44.267,53.35,48.083,49.782,48.083L49.782,48.083z"/>
		<path fill-rule="evenodd" clip-rule="evenodd" d="M57.426,47.671c-1.882,0-3.406-1.528-3.406-3.411
			c0-1.883,1.524-3.411,3.406-3.411c1.88,0,3.404,1.528,3.404,3.411C60.83,46.143,59.306,47.671,57.426,47.671L57.426,47.671z"/>
		<path fill-rule="evenodd" clip-rule="evenodd" d="M62.148,45.718c-2.877,0-5.21-2.336-5.21-5.218c0-2.882,2.333-5.219,5.21-5.219
			s5.211,2.337,5.211,5.219C67.359,43.382,65.025,45.718,62.148,45.718L62.148,45.718z"/>
		<path fill-rule="evenodd" clip-rule="evenodd" d="M65.988,47.671c-1.881,0-3.405-1.528-3.405-3.411
			c0-1.883,1.524-3.411,3.405-3.411s3.405,1.528,3.405,3.411C69.394,46.143,67.869,47.671,65.988,47.671L65.988,47.671z"/>
	</g>
</g>
<g id="normal">
	<path fill-opacity="0.1" d="M52.906,9.227l35.763,35.859c2.175,2.18,2.175,5.713,0,7.894L52.971,88.772
		c-2.174,2.181-5.7,2.181-7.874,0L9.333,52.914c-2.177-2.181-2.177-5.714,0-7.895L45.029,9.227
		C47.206,7.046,50.73,7.046,52.906,9.227L52.906,9.227z"/>
	<path fill-rule="evenodd" clip-rule="evenodd" fill="#FFC000" d="M51.906,8.227l35.763,35.859c2.175,2.18,2.175,5.713,0,7.894
		L51.971,87.772c-2.174,2.181-5.7,2.181-7.874,0L8.333,51.914c-2.177-2.181-2.177-5.714,0-7.895L44.029,8.227
		C46.206,6.046,49.73,6.046,51.906,8.227L51.906,8.227z"/>
	<path fill-rule="evenodd" clip-rule="evenodd" d="M84.698,51.147L50.963,84.933c-2.085,2.09-4.045,2.09-6.132,0L11.098,51.147
		c-2.086-2.088-2.086-4.051,0-6.141l33.733-33.787c2.086-2.089,4.047-2.089,6.132,0l33.735,33.787
		C86.784,47.096,86.784,49.059,84.698,51.147L84.698,51.147z M81.63,46.542l-32.199-32.25c-0.947-0.95-2.12-0.95-3.067,0
		l-32.199,32.25c-0.948,0.948-0.948,2.121,0,3.07l32.199,32.25c0.948,0.947,2.12,0.947,3.067,0l32.199-32.25
		C82.578,48.663,82.578,47.49,81.63,46.542L81.63,46.542z"/>
	<path fill-rule="evenodd" clip-rule="evenodd" d="M30.802,58.808l-2.56-2.562l5.542-5.549l2.558,2.563L30.802,58.808L30.802,58.808
		z M41.657,58.808l-2.558-2.562l5.54-5.549l2.56,2.563L41.657,58.808L41.657,58.808z M52.513,58.808l-2.558-2.562l5.54-5.549
		l2.558,2.563L52.513,58.808L52.513,58.808z M63.368,58.808l-2.559-2.562l5.542-5.549l2.558,2.563L63.368,58.808L63.368,58.808z
		 M33.628,67.076l-2.558-2.563l5.54-5.55l2.56,2.563L33.628,67.076L33.628,67.076z M44.485,67.076l-2.56-2.563l5.542-5.55
		l2.558,2.563L44.485,67.076L44.485,67.076z M55.34,67.076l-2.559-2.563l5.54-5.55l2.56,2.563L55.34,67.076L55.34,67.076z"/>
	<g>
		<path fill-rule="evenodd" clip-rule="evenodd" d="M34.013,42.102c-2.687,0-4.864-2.182-4.864-4.872
			c0-2.691,2.177-4.873,4.864-4.873s4.865,2.182,4.865,4.873C38.878,39.92,36.699,42.102,34.013,42.102L34.013,42.102z"/>
		<path fill-rule="evenodd" clip-rule="evenodd" d="M40.612,39.315c-2.801,0-5.072-2.275-5.072-5.08c0-2.806,2.271-5.08,5.072-5.08
			c2.801,0,5.072,2.274,5.072,5.08C45.684,37.04,43.413,39.315,40.612,39.315L40.612,39.315z"/>
		<path fill-rule="evenodd" clip-rule="evenodd" d="M45.614,35.836c-1.266,0-2.293-1.027-2.293-2.296
			c0-1.269,1.027-2.296,2.293-2.296s2.293,1.027,2.293,2.296C47.907,34.809,46.879,35.836,45.614,35.836L45.614,35.836z"/>
		<path fill-rule="evenodd" clip-rule="evenodd" d="M41.793,49.894c-3.76,0-6.809-3.053-6.809-6.82c0-3.765,3.049-6.818,6.809-6.818
			c3.76,0,6.807,3.054,6.807,6.818C48.601,46.84,45.553,49.894,41.793,49.894L41.793,49.894z"/>
		<path fill-rule="evenodd" clip-rule="evenodd" d="M47.143,42.239c-2.265,0-4.1-1.837-4.1-4.105c0-2.267,1.835-4.106,4.1-4.106
			c2.262,0,4.098,1.839,4.098,4.106C51.241,40.401,49.405,42.239,47.143,42.239L47.143,42.239z"/>
		<path fill-rule="evenodd" clip-rule="evenodd" d="M51.589,39.179c-1.189,0-2.154-0.965-2.154-2.158
			c0-1.191,0.965-2.158,2.154-2.158c1.191,0,2.155,0.967,2.155,2.158C53.744,38.213,52.78,39.179,51.589,39.179L51.589,39.179z"/>
		<path fill-rule="evenodd" clip-rule="evenodd" d="M55.409,39.036c-3.529,0-6.391-2.866-6.391-6.402
			c0-3.535,2.861-6.401,6.391-6.401c3.53,0,6.392,2.866,6.392,6.401C61.801,36.17,58.939,39.036,55.409,39.036L55.409,39.036z"/>
		<path fill-rule="evenodd" clip-rule="evenodd" d="M49.782,48.083c-3.568,0-6.461-2.896-6.461-6.47c0-3.574,2.893-6.47,6.461-6.47
			c3.567,0,9.583,1.977,9.583,5.549C59.365,44.267,53.35,48.083,49.782,48.083L49.782,48.083z"/>
		<path fill-rule="evenodd" clip-rule="evenodd" d="M57.426,47.671c-1.882,0-3.406-1.528-3.406-3.411
			c0-1.883,1.524-3.411,3.406-3.411c1.88,0,3.404,1.528,3.404,3.411C60.83,46.143,59.306,47.671,57.426,47.671L57.426,47.671z"/>
		<path fill-rule="evenodd" clip-rule="evenodd" d="M62.148,45.718c-2.877,0-5.21-2.336-5.21-5.218c0-2.882,2.333-5.219,5.21-5.219
			s5.211,2.337,5.211,5.219C67.359,43.382,65.025,45.718,62.148,45.718L62.148,45.718z"/>
		<path fill-rule="evenodd" clip-rule="evenodd" d="M65.988,47.671c-1.881,0-3.405-1.528-3.405-3.411
			c0-1.883,1.524-3.411,3.405-3.411s3.405,1.528,3.405,3.411C69.394,46.143,67.869,47.671,65.988,47.671L65.988,47.671z"/>
	</g>
</g>
</svg>
