<?xml version="1.0" encoding="utf-8"?>
<!-- Generator: Adobe Illustrator 16.2.0, SVG Export Plug-In . SVG Version: 6.00 Build 0)  -->
<!DOCTYPE svg PUBLIC "-//W3C//DTD SVG 1.1//EN" "http://www.w3.org/Graphics/SVG/1.1/DTD/svg11.dtd">
<svg version="1.1" xmlns="http://www.w3.org/2000/svg" xmlns:xlink="http://www.w3.org/1999/xlink" x="0px" y="0px" width="96px"
	 height="96px" viewBox="0 0 96 96" enable-background="new 0 0 96 96" xml:space="preserve">
<g id="disabled">
	
		<radialGradient id="SVGID_1_" cx="-136.4419" cy="-1737.6035" r="26.6293" gradientTransform="matrix(-1.6502 0 0 -0.2075 -177.1563 -277.9141)" gradientUnits="userSpaceOnUse">
		<stop  offset="0.6962" style="stop-color:#000000;stop-opacity:0.25"/>
		<stop  offset="0.8858" style="stop-color:#6F6F6F;stop-opacity:0.0939"/>
		<stop  offset="1" style="stop-color:#AEAEAE;stop-opacity:0"/>
	</radialGradient>
	<path fill="url(#SVGID_1_)" d="M-12.613,82.641c0,3.32,27.129,6.018,60.598,6.018c33.5,0,60.629-2.695,60.629-6.018
		c0-3.324-27.129-6.021-60.629-6.021C14.516,76.619-12.613,79.316-12.613,82.641z"/>
	<path d="M57.807,14.463c-5.47-9.495-14.421-9.494-19.888,0.003L8.386,65.758c-5.467,9.496-0.976,17.264,9.982,17.262l59.012-0.006
		c10.959,0,15.447-7.77,9.977-17.264L57.807,14.463z"/>
	<path fill-rule="evenodd" clip-rule="evenodd" fill="#AAAAAA" d="M18.756,79.781c-4.209,0-7.273-1.291-8.63-3.637
		c-1.356-2.344-0.945-5.646,1.156-9.295l29.14-50.61c2.1-3.648,4.743-5.658,7.441-5.658c2.697,0,5.341,2.009,7.441,5.655
		L84.463,66.84c2.102,3.648,2.514,6.951,1.158,9.299c-1.355,2.344-4.421,3.637-8.633,3.637l-58.227,0.006H18.756z"/>
	<path d="M18.67,77.307c-2.885,0-4.999-0.908-5.952-2.561c-0.952-1.648-0.683-3.932,0.759-6.426l8.215-14.236
		c3.513-6.086,9.262-16.025,12.775-22.099l8.214-14.269c1.439-2.495,3.283-3.87,5.188-3.87c1.905,0,3.746,1.375,5.186,3.871
		l8.231,14.267c3.527,6.075,9.257,16.013,12.752,22.098l8.18,14.234c1.44,2.504,1.705,4.793,0.75,6.445
		c-0.95,1.641-3.049,2.545-5.911,2.545H18.67z"/>
	
		<radialGradient id="SVGID_2_" cx="288.6631" cy="-313.1953" r="29.6996" gradientTransform="matrix(1 0 0 -1 -240.6602 -267.96)" gradientUnits="userSpaceOnUse">
		<stop  offset="0" style="stop-color:#FFFFFF;stop-opacity:0"/>
		<stop  offset="1" style="stop-color:#000000"/>
	</radialGradient>
	<polygon opacity="0.3" fill="url(#SVGID_2_)" enable-background="new    " points="47.992,17.704 16.283,72.768 79.723,72.764 	"/>
	<path fill-rule="evenodd" clip-rule="evenodd" fill="#AAAAAA" d="M78.158,71.941l-60.44-0.012c0,0,0.169-0.289,0.24-0.408
		l12.278-21.158l17.221-29.703c0.001-0.003,0.23-0.375,0.23-0.375c0.09-0.147,0.2-0.339,0.306-0.531
		c0.123,0.271,0.274,0.541,0.414,0.77l0.27,0.438L63.929,47.25c0,0,13.947,24.01,14.34,24.694
		C78.23,71.941,78.188,71.941,78.158,71.941"/>
	<linearGradient id="SVGID_3_" gradientUnits="userSpaceOnUse" x1="32.0195" y1="45.3193" x2="77.246" y2="73.58">
		<stop  offset="0" style="stop-color:#000000"/>
		<stop  offset="0.0357" style="stop-color:#3A3A3A"/>
		<stop  offset="0.0698" style="stop-color:#6B6B6B"/>
		<stop  offset="0.0996" style="stop-color:#8D8D8D"/>
		<stop  offset="0.124" style="stop-color:#A3A3A3"/>
		<stop  offset="0.14" style="stop-color:#AAAAAA"/>
	</linearGradient>
	<path fill="url(#SVGID_3_)" fill-opacity="0.5" d="M78.158,71.941l-60.44-0.012c0,0,0.169-0.289,0.24-0.408l12.278-21.158
		l17.221-29.703c0.001-0.003,0.23-0.375,0.23-0.375c0.09-0.147,0.2-0.339,0.306-0.531c0.123,0.271,0.274,0.541,0.414,0.77
		l0.27,0.438L63.929,47.25c0,0,13.947,24.01,14.34,24.694C78.23,71.941,78.188,71.941,78.158,71.941"/>
	<path d="M19.794,70.883l1.761-2.691l9.723-0.186c0,0,0.836-4.736,1.483-7.521c0.65-2.785,1.483-5.57,2.597-7.059
		c1.112-1.484,2.225-2.135,2.688-2.969c0.465-0.838,0.465-1.395,0.465-1.395s-1.392-1.114-1.763-1.392s-1.205-0.278-1.298-1.485
		c-0.092-1.208,1.669-2.693,2.596-3.065c0.927-0.371,2.596-1.485,3.987-1.485c1.39,0,2.503-0.094,3.15,0.373
		c0.65,0.462,2.319,1.577,2.319,2.32c0,0.744,0,2.414,0.277,3.157c0.278,0.744,1.206,2.322,1.483,3.343
		c0.278,1.021,0.927,3.436,0.927,3.436l2.967,2.6h4.265c0,0,0.834-0.371,0.742-0.742c-0.094-0.373-1.392-0.93-1.298-2.229
		c0.092-1.301,1.112-1.672,1.668-1.951c0.557-0.279,2.04-0.371,2.317-1.484c0.279-1.115,0.371-2.508,0.742-2.972
		c0.37-0.464,0.456-0.835,0.827-1.022c0.37-0.186,14.091,24.605,14.091,24.605L19.794,70.883L19.794,70.883z M40.92,44.513
		c-0.094-0.464-1.021,0.094-1.392,0.186c-0.371,0.094-0.557,1.022-0.557,1.022l0.742,1.3c0,0,1.298-0.929,1.298-1.3
		C41.012,45.35,41.012,44.978,40.92,44.513L40.92,44.513z M42.31,62.527c0-1.857,0-4.271,0-4.271s-1.761-2.229-2.41-2.043
		c-0.648,0.186-1.761,1.578-2.132,2.414s-0.649,3.064-1.206,3.809c-0.557,0.74-2.688,5.197-2.688,5.197l8.529,0.094
		C42.403,67.727,42.31,64.385,42.31,62.527L42.31,62.527z M46.574,50.828c-0.186-0.65-0.37-0.557-1.021-1.301
		c-0.648-0.742-0.648,0.092-0.833,0.557c-0.186,0.465,0,1.578,0,1.578l2.131,1.672C46.852,53.334,46.76,51.477,46.574,50.828
		L46.574,50.828z M56.309,61.133c-0.557-0.555-2.503-2.32-2.503-2.32l-8.808-5.293l-0.37,1.115c0,0,1.02,1.113,1.02,1.578
		s0.463,4.365,0.277,5.943s-0.834,5.477-0.834,5.477l1.761,0.279c0,0,0.928-2.229,1.948-2.322c1.019-0.092,1.483,0.094,1.483,0.094
		s-0.742-1.764,0.277-2.414c1.021-0.648,2.133-2.043,2.781-1.857c0.649,0.186,3.244,0.744,3.244,0.744S56.865,61.691,56.309,61.133
		L56.309,61.133z M48.058,42.378c-1.792,0-3.244-1.455-3.244-3.25c0-1.794,1.452-3.249,3.244-3.249c1.793,0,3.244,1.455,3.244,3.249
		C51.302,40.924,49.851,42.378,48.058,42.378L48.058,42.378z"/>
</g>
<g id="normal">
	
		<radialGradient id="SVGID_4_" cx="-136.4419" cy="-1737.6035" r="26.6293" gradientTransform="matrix(-1.6502 0 0 -0.2075 -177.1563 -277.9141)" gradientUnits="userSpaceOnUse">
		<stop  offset="0.6962" style="stop-color:#000000;stop-opacity:0.25"/>
		<stop  offset="0.8858" style="stop-color:#6F6F6F;stop-opacity:0.0939"/>
		<stop  offset="1" style="stop-color:#AEAEAE;stop-opacity:0"/>
	</radialGradient>
	<path fill="url(#SVGID_4_)" d="M-12.613,82.641c0,3.32,27.129,6.018,60.598,6.018c33.5,0,60.629-2.695,60.629-6.018
		c0-3.324-27.129-6.021-60.629-6.021C14.516,76.619-12.613,79.316-12.613,82.641z"/>
	<path d="M57.807,14.463c-5.47-9.495-14.421-9.494-19.888,0.003L8.386,65.758c-5.467,9.496-0.976,17.264,9.982,17.262l59.012-0.006
		c10.959,0,15.447-7.77,9.977-17.264L57.807,14.463z"/>
	<path fill-rule="evenodd" clip-rule="evenodd" fill="#E99D47" d="M18.756,79.781c-4.209,0-7.273-1.291-8.63-3.637
		c-1.356-2.344-0.945-5.646,1.156-9.295l29.14-50.61c2.1-3.648,4.743-5.658,7.441-5.658c2.697,0,5.341,2.009,7.441,5.655
		L84.463,66.84c2.102,3.648,2.514,6.951,1.158,9.299c-1.355,2.344-4.421,3.637-8.633,3.637l-58.227,0.006H18.756z"/>
	<path d="M18.67,77.307c-2.885,0-4.999-0.908-5.952-2.561c-0.952-1.648-0.683-3.932,0.759-6.426l8.215-14.236
		c3.513-6.086,9.262-16.025,12.775-22.099l8.214-14.269c1.439-2.495,3.283-3.87,5.188-3.87c1.905,0,3.746,1.375,5.186,3.871
		l8.231,14.267c3.527,6.075,9.257,16.013,12.752,22.098l8.18,14.234c1.44,2.504,1.705,4.793,0.75,6.445
		c-0.95,1.641-3.049,2.545-5.911,2.545H18.67z"/>
	
		<radialGradient id="SVGID_5_" cx="288.6631" cy="-313.1953" r="29.6996" gradientTransform="matrix(1 0 0 -1 -240.6602 -267.96)" gradientUnits="userSpaceOnUse">
		<stop  offset="0" style="stop-color:#FFFFFF;stop-opacity:0"/>
		<stop  offset="1" style="stop-color:#000000"/>
	</radialGradient>
	<polygon opacity="0.3" fill="url(#SVGID_5_)" enable-background="new    " points="47.992,17.704 16.283,72.768 79.723,72.764 	"/>
	<path fill-rule="evenodd" clip-rule="evenodd" fill="#E99D47" d="M78.158,71.941l-60.44-0.012c0,0,0.169-0.289,0.24-0.408
		l12.278-21.158l17.221-29.703c0.001-0.003,0.23-0.375,0.23-0.375c0.09-0.147,0.2-0.339,0.306-0.531
		c0.123,0.271,0.274,0.541,0.414,0.77l0.27,0.438L63.929,47.25c0,0,13.947,24.01,14.34,24.694
		C78.23,71.941,78.188,71.941,78.158,71.941"/>
	<linearGradient id="SVGID_6_" gradientUnits="userSpaceOnUse" x1="32.0195" y1="45.3193" x2="77.246" y2="73.58">
		<stop  offset="0" style="stop-color:#000000"/>
		<stop  offset="0.0263" style="stop-color:#3C2812"/>
		<stop  offset="0.0561" style="stop-color:#795125"/>
		<stop  offset="0.0835" style="stop-color:#A97234"/>
		<stop  offset="0.1075" style="stop-color:#CC893E"/>
		<stop  offset="0.1272" style="stop-color:#E19845"/>
		<stop  offset="0.14" style="stop-color:#E99D47"/>
	</linearGradient>
	<path fill="url(#SVGID_6_)" fill-opacity="0.5" d="M78.158,71.941l-60.44-0.012c0,0,0.169-0.289,0.24-0.408l12.278-21.158
		l17.221-29.703c0.001-0.003,0.23-0.375,0.23-0.375c0.09-0.147,0.2-0.339,0.306-0.531c0.123,0.271,0.274,0.541,0.414,0.77
		l0.27,0.438L63.929,47.25c0,0,13.947,24.01,14.34,24.694C78.23,71.941,78.188,71.941,78.158,71.941"/>
	<path d="M19.794,70.883l1.761-2.691l9.723-0.186c0,0,0.836-4.736,1.483-7.521c0.65-2.785,1.483-5.57,2.597-7.059
		c1.112-1.484,2.225-2.135,2.688-2.969c0.465-0.838,0.465-1.395,0.465-1.395s-1.392-1.114-1.763-1.392s-1.205-0.278-1.298-1.485
		c-0.092-1.208,1.669-2.693,2.596-3.065c0.927-0.371,2.596-1.485,3.987-1.485c1.39,0,2.503-0.094,3.15,0.373
		c0.65,0.462,2.319,1.577,2.319,2.32c0,0.744,0,2.414,0.277,3.157c0.278,0.744,1.206,2.322,1.483,3.343
		c0.278,1.021,0.927,3.436,0.927,3.436l2.967,2.6h4.265c0,0,0.834-0.371,0.742-0.742c-0.094-0.373-1.392-0.93-1.298-2.229
		c0.092-1.301,1.112-1.672,1.668-1.951c0.557-0.279,2.04-0.371,2.317-1.484c0.279-1.115,0.371-2.508,0.742-2.972
		c0.37-0.464,0.456-0.835,0.827-1.022c0.37-0.186,14.091,24.605,14.091,24.605L19.794,70.883L19.794,70.883z M40.92,44.513
		c-0.094-0.464-1.021,0.094-1.392,0.186c-0.371,0.094-0.557,1.022-0.557,1.022l0.742,1.3c0,0,1.298-0.929,1.298-1.3
		C41.012,45.35,41.012,44.978,40.92,44.513L40.92,44.513z M42.31,62.527c0-1.857,0-4.271,0-4.271s-1.761-2.229-2.41-2.043
		c-0.648,0.186-1.761,1.578-2.132,2.414s-0.649,3.064-1.206,3.809c-0.557,0.74-2.688,5.197-2.688,5.197l8.529,0.094
		C42.403,67.727,42.31,64.385,42.31,62.527L42.31,62.527z M46.574,50.828c-0.186-0.65-0.37-0.557-1.021-1.301
		c-0.648-0.742-0.648,0.092-0.833,0.557c-0.186,0.465,0,1.578,0,1.578l2.131,1.672C46.852,53.334,46.76,51.477,46.574,50.828
		L46.574,50.828z M56.309,61.133c-0.557-0.555-2.503-2.32-2.503-2.32l-8.808-5.293l-0.37,1.115c0,0,1.02,1.113,1.02,1.578
		s0.463,4.365,0.277,5.943s-0.834,5.477-0.834,5.477l1.761,0.279c0,0,0.928-2.229,1.948-2.322c1.019-0.092,1.483,0.094,1.483,0.094
		s-0.742-1.764,0.277-2.414c1.021-0.648,2.133-2.043,2.781-1.857c0.649,0.186,3.244,0.744,3.244,0.744S56.865,61.691,56.309,61.133
		L56.309,61.133z M48.058,42.378c-1.792,0-3.244-1.455-3.244-3.25c0-1.794,1.452-3.249,3.244-3.249c1.793,0,3.244,1.455,3.244,3.249
		C51.302,40.924,49.851,42.378,48.058,42.378L48.058,42.378z"/>
</g>
</svg>
