<?xml version="1.0" encoding="utf-8"?>
<!-- Generator: Adobe Illustrator 16.2.0, SVG Export Plug-In . SVG Version: 6.00 Build 0)  -->
<!DOCTYPE svg PUBLIC "-//W3C//DTD SVG 1.1//EN" "http://www.w3.org/Graphics/SVG/1.1/DTD/svg11.dtd">
<svg version="1.1" xmlns="http://www.w3.org/2000/svg" xmlns:xlink="http://www.w3.org/1999/xlink" x="0px" y="0px" width="96px"
	 height="96px" viewBox="0 0 96 96" enable-background="new 0 0 96 96" xml:space="preserve">
<g id="disabled">
	
		<radialGradient id="SVGID_1_" cx="-136.4419" cy="-1739.8418" r="26.9854" gradientTransform="matrix(-1.6502 0 0 -0.2075 -177.1565 -277.9142)" gradientUnits="userSpaceOnUse">
		<stop  offset="0.6962" style="stop-color:#000000;stop-opacity:0.25"/>
		<stop  offset="0.8858" style="stop-color:#6F6F6F;stop-opacity:0.0939"/>
		<stop  offset="1" style="stop-color:#AEAEAE;stop-opacity:0"/>
	</radialGradient>
	<path fill="url(#SVGID_1_)" d="M-13.425,83.104c0,3.365,27.493,6.098,61.411,6.098c33.946,0,61.44-2.731,61.44-6.098
		c0-3.369-27.494-6.102-61.44-6.102C14.067,77.003-13.425,79.735-13.425,83.104z"/>
	<path d="M57.938,14.013c-5.543-9.622-14.613-9.621-20.154,0.003L7.855,65.995c-5.541,9.623-0.989,17.496,10.116,17.494
		l59.804-0.006c11.105-0.002,15.654-7.875,10.111-17.496L57.938,14.013z"/>
	
		<linearGradient id="SVGID_2_" gradientUnits="userSpaceOnUse" x1="279.9473" y1="-359.354" x2="312.734" y2="-289.0426" gradientTransform="matrix(1 0 0 -1 -240.6602 -267.96)">
		<stop  offset="0" style="stop-color:#D1D1D1"/>
		<stop  offset="0.5" style="stop-color:#FFFFFF"/>
		<stop  offset="1" style="stop-color:#D1D1D1"/>
	</linearGradient>
	<path fill="url(#SVGID_2_)" d="M55.553,15.929c-4.162-7.215-10.965-7.215-15.122,0L10.941,67.163
		c-4.158,7.22-0.746,13.121,7.582,13.119l58.961-0.006c8.328-0.002,11.738-5.904,7.582-13.119L55.553,15.929z"/>
	<path fill="#4D4D4D" d="M75.605,53.463c-3.545-6.167-9.352-16.24-12.926-22.395l-8.34-14.459c-3.557-6.167-9.387-6.167-12.947,0
		l-8.321,14.459c-3.561,6.155-9.387,16.227-12.948,22.395L11.798,67.89c-3.562,6.166-0.646,11.215,6.478,11.215h16.642
		c7.123,0,18.775,0,25.906,0h16.619c7.1,0,9.994-5.049,6.449-11.215L75.605,53.463z"/>
	
		<radialGradient id="SVGID_3_" cx="288.6621" cy="-313.1582" r="30.0976" gradientTransform="matrix(1 0 0 -1 -240.6602 -267.96)" gradientUnits="userSpaceOnUse">
		<stop  offset="0" style="stop-color:#FFFFFF;stop-opacity:0"/>
		<stop  offset="1" style="stop-color:#000000"/>
	</radialGradient>
	<polygon opacity="0.3" fill="url(#SVGID_3_)" enable-background="new    " points="47.993,17.297 15.858,73.1 80.146,73.096 	"/>
	<path fill="#FFFFFF" d="M78.563,72.262l-61.25-0.013c0,0,0.171-0.291,0.243-0.413l12.443-21.443l17.452-30.098
		c0.002-0.003,0.233-0.38,0.233-0.38c0.092-0.15,0.203-0.345,0.31-0.539c0.125,0.274,0.278,0.548,0.42,0.78l0.271,0.444
		L64.143,47.24c0,0,14.133,24.331,14.533,25.023C78.635,72.262,78.592,72.262,78.563,72.262"/>
	<linearGradient id="SVGID_4_" gradientUnits="userSpaceOnUse" x1="31.8052" y1="45.2822" x2="77.6395" y2="73.9227">
		<stop  offset="0" style="stop-color:#000000"/>
		<stop  offset="0.0025" style="stop-color:#060606"/>
		<stop  offset="0.0328" style="stop-color:#515151"/>
		<stop  offset="0.0612" style="stop-color:#8F8F8F"/>
		<stop  offset="0.087" style="stop-color:#BFBFBF"/>
		<stop  offset="0.1095" style="stop-color:#E2E2E2"/>
		<stop  offset="0.1279" style="stop-color:#F7F7F7"/>
		<stop  offset="0.14" style="stop-color:#FFFFFF"/>
	</linearGradient>
	<path fill="url(#SVGID_4_)" fill-opacity="0.5" d="M78.563,72.262l-61.25-0.013c0,0,0.171-0.291,0.243-0.413l12.443-21.443
		l17.452-30.098c0.002-0.003,0.233-0.38,0.233-0.38c0.092-0.15,0.203-0.345,0.31-0.539c0.125,0.274,0.278,0.548,0.42,0.78
		l0.271,0.444L64.143,47.24c0,0,14.133,24.331,14.533,25.023C78.635,72.262,78.592,72.262,78.563,72.262"/>
	<path d="M34.389,63.073l-1.897-1.9l4.108-4.116l1.897,1.901L34.389,63.073L34.389,63.073z M42.438,63.073l-1.897-1.9l4.109-4.116
		l1.897,1.901L42.438,63.073L42.438,63.073z M50.488,63.073l-1.896-1.9l4.109-4.116l1.896,1.901L50.488,63.073L50.488,63.073z
		 M58.539,63.073l-1.896-1.9l4.107-4.116l1.896,1.901L58.539,63.073L58.539,63.073z M36.485,69.204l-1.897-1.9l4.107-4.116
		l1.898,1.901L36.485,69.204L36.485,69.204z M44.534,69.204l-1.896-1.9l4.108-4.116l1.898,1.901L44.534,69.204L44.534,69.204z
		 M52.584,69.204l-1.896-1.9l4.109-4.116l1.896,1.901L52.584,69.204L52.584,69.204z"/>
	<path d="M37.156,50.869c-1.992,0-3.607-1.619-3.607-3.613c0-1.996,1.615-3.614,3.607-3.614s3.607,1.618,3.607,3.614
		C40.764,49.25,39.148,50.869,37.156,50.869L37.156,50.869z M42.049,48.801c-2.076,0-3.761-1.686-3.761-3.766
		c0-2.081,1.685-3.767,3.761-3.767c2.078,0,3.761,1.687,3.761,3.767C45.81,47.115,44.126,48.801,42.049,48.801L42.049,48.801z
		 M45.759,46.222c-0.939,0-1.7-0.762-1.7-1.704c0-0.94,0.761-1.702,1.7-1.702c0.938,0,1.699,0.762,1.699,1.702
		C47.458,45.46,46.697,46.222,45.759,46.222L45.759,46.222z M42.925,56.646c-2.79,0-5.049-2.264-5.049-5.059
		c0-2.791,2.26-5.055,5.049-5.055c2.788,0,5.049,2.264,5.049,5.055C47.975,54.383,45.713,56.646,42.925,56.646L42.925,56.646z
		 M46.892,50.969c-1.678,0-3.04-1.363-3.04-3.042c0-1.682,1.361-3.045,3.04-3.045s3.04,1.363,3.04,3.045
		C49.932,49.605,48.57,50.969,46.892,50.969L46.892,50.969z M50.19,48.701c-0.883,0-1.598-0.716-1.598-1.601
		c0-0.884,0.715-1.601,1.598-1.601c0.881,0,1.598,0.716,1.598,1.601C51.788,47.985,51.071,48.701,50.19,48.701L50.19,48.701z
		 M53.022,48.596c-2.616,0-4.739-2.128-4.739-4.749c0-2.622,2.123-4.747,4.739-4.747c2.618,0,4.74,2.125,4.74,4.747
		C57.763,46.468,55.641,48.596,53.022,48.596L53.022,48.596z M48.85,55.303c-2.645,0-4.791-2.146-4.791-4.797
		c0-2.651,2.146-4.799,4.791-4.799c2.646,0,4.791,2.148,4.791,4.799C53.641,53.156,51.496,55.303,48.85,55.303L48.85,55.303z
		 M53.475,51.303c-1.334,0-2.416-1.082-2.416-2.419s1.082-2.42,2.416-2.42c1.335,0,2.416,1.083,2.416,2.42
		S54.81,51.303,53.475,51.303L53.475,51.303z M54.517,54.998c-1.395,0-2.524-1.133-2.524-2.529s1.13-2.529,2.524-2.529
		s2.526,1.133,2.526,2.529S55.911,54.998,54.517,54.998L54.517,54.998z M58.02,53.549c-2.134,0-3.864-1.732-3.864-3.869
		c0-2.137,1.73-3.87,3.864-3.87c2.135,0,3.863,1.732,3.863,3.87C61.883,51.816,60.154,53.549,58.02,53.549L58.02,53.549z
		 M60.867,54.998c-1.395,0-2.524-1.133-2.524-2.529s1.13-2.529,2.524-2.529s2.524,1.133,2.524,2.529S62.262,54.998,60.867,54.998
		L60.867,54.998z"/>
	
		<linearGradient id="SVGID_5_" gradientUnits="userSpaceOnUse" x1="282.6279" y1="-327.7827" x2="282.6279" y2="-279.7153" gradientTransform="matrix(1 0 0 -1 -240.6602 -267.96)">
		<stop  offset="0" style="stop-color:#FFFFFF;stop-opacity:0"/>
		<stop  offset="1" style="stop-color:#FFFFFF;stop-opacity:0.6"/>
	</linearGradient>
	<path fill="url(#SVGID_5_)" d="M16.147,59.823c7.408-12.762,19.457-33.535,25.222-43.505c0.145-0.245,0.283-0.47,0.422-0.684
		c1.001-2.283,3.288-3.879,5.952-3.879c2.77,0,5.122,1.724,6.057,4.148c0.146,0.226,0.295,0.46,0.447,0.719
		c3.189,5.529,8.35,14.407,13.539,23.338C54.102,41.923,33.604,46.952,16.147,59.823L16.147,59.823z"/>
</g>
<g id="normal">
	
		<radialGradient id="SVGID_6_" cx="-136.4419" cy="-1739.8418" r="26.9854" gradientTransform="matrix(-1.6502 0 0 -0.2075 -177.1565 -277.9142)" gradientUnits="userSpaceOnUse">
		<stop  offset="0.6962" style="stop-color:#000000;stop-opacity:0.25"/>
		<stop  offset="0.8858" style="stop-color:#6F6F6F;stop-opacity:0.0939"/>
		<stop  offset="1" style="stop-color:#AEAEAE;stop-opacity:0"/>
	</radialGradient>
	<path fill="url(#SVGID_6_)" d="M-13.425,83.104c0,3.365,27.493,6.098,61.411,6.098c33.946,0,61.44-2.731,61.44-6.098
		c0-3.369-27.494-6.102-61.44-6.102C14.067,77.003-13.425,79.735-13.425,83.104z"/>
	<path d="M57.938,14.013c-5.543-9.622-14.613-9.621-20.154,0.003L7.855,65.995c-5.541,9.623-0.989,17.496,10.116,17.494
		l59.804-0.006c11.105-0.002,15.654-7.875,10.111-17.496L57.938,14.013z"/>
	
		<linearGradient id="SVGID_7_" gradientUnits="userSpaceOnUse" x1="279.9473" y1="-359.354" x2="312.734" y2="-289.0426" gradientTransform="matrix(1 0 0 -1 -240.6602 -267.96)">
		<stop  offset="0" style="stop-color:#D1D1D1"/>
		<stop  offset="0.5" style="stop-color:#FFFFFF"/>
		<stop  offset="1" style="stop-color:#D1D1D1"/>
	</linearGradient>
	<path fill="url(#SVGID_7_)" d="M55.553,15.929c-4.162-7.215-10.965-7.215-15.122,0L10.941,67.163
		c-4.158,7.22-0.746,13.121,7.582,13.119l58.961-0.006c8.328-0.002,11.738-5.904,7.582-13.119L55.553,15.929z"/>
	<path fill="#FF0000" d="M75.605,53.463c-3.545-6.167-9.352-16.24-12.926-22.395l-8.34-14.459c-3.557-6.167-9.387-6.167-12.947,0
		l-8.321,14.459c-3.561,6.155-9.387,16.227-12.948,22.395L11.798,67.89c-3.562,6.166-0.646,11.215,6.478,11.215h16.642
		c7.123,0,18.775,0,25.906,0h16.619c7.1,0,9.994-5.049,6.449-11.215L75.605,53.463z"/>
	
		<radialGradient id="SVGID_8_" cx="288.6621" cy="-313.1582" r="30.0976" gradientTransform="matrix(1 0 0 -1 -240.6602 -267.96)" gradientUnits="userSpaceOnUse">
		<stop  offset="0" style="stop-color:#FFFFFF;stop-opacity:0"/>
		<stop  offset="1" style="stop-color:#000000"/>
	</radialGradient>
	<polygon opacity="0.3" fill="url(#SVGID_8_)" enable-background="new    " points="47.993,17.297 15.858,73.1 80.146,73.096 	"/>
	<path fill="#ffb723" d="M78.563,72.262l-61.25-0.013c0,0,0.171-0.291,0.243-0.413l12.443-21.443l17.452-30.098
		c0.002-0.003,0.233-0.38,0.233-0.38c0.092-0.15,0.203-0.345,0.31-0.539c0.125,0.274,0.278,0.548,0.42,0.78l0.271,0.444
		L64.143,47.24c0,0,14.133,24.331,14.533,25.023C78.635,72.262,78.592,72.262,78.563,72.262"/>
	<linearGradient id="SVGID_9_" gradientUnits="userSpaceOnUse" x1="31.8052" y1="45.2822" x2="77.6395" y2="73.9227">
		<stop  offset="0" style="stop-color:#000000"/>
		<stop  offset="0.0025" style="stop-color:#050401"/>
		<stop  offset="0.0328" style="stop-color:#523b0b"/>
		<stop  offset="0.0612" style="stop-color:#8f6714"/>
		<stop  offset="0.087" style="stop-color:#bf891a"/>
		<stop  offset="0.1095" style="stop-color:#e3a31f"/>
		<stop  offset="0.1279" style="stop-color:#f7b122"/>
		<stop  offset="0.14" style="stop-color:#ffb723"/>
	</linearGradient>
	<path fill="url(#SVGID_9_)" fill-opacity="0.5" d="M78.563,72.262l-61.25-0.013c0,0,0.171-0.291,0.243-0.413l12.443-21.443
		l17.452-30.098c0.002-0.003,0.233-0.38,0.233-0.38c0.092-0.15,0.203-0.345,0.31-0.539c0.125,0.274,0.278,0.548,0.42,0.78
		l0.271,0.444L64.143,47.24c0,0,14.133,24.331,14.533,25.023C78.635,72.262,78.592,72.262,78.563,72.262"/>
	<path d="M34.389,63.073l-1.897-1.9l4.108-4.116l1.897,1.901L34.389,63.073L34.389,63.073z M42.438,63.073l-1.897-1.9l4.109-4.116
		l1.897,1.901L42.438,63.073L42.438,63.073z M50.488,63.073l-1.896-1.9l4.109-4.116l1.896,1.901L50.488,63.073L50.488,63.073z
		 M58.539,63.073l-1.896-1.9l4.107-4.116l1.896,1.901L58.539,63.073L58.539,63.073z M36.485,69.204l-1.897-1.9l4.107-4.116
		l1.898,1.901L36.485,69.204L36.485,69.204z M44.534,69.204l-1.896-1.9l4.108-4.116l1.898,1.901L44.534,69.204L44.534,69.204z
		 M52.584,69.204l-1.896-1.9l4.109-4.116l1.896,1.901L52.584,69.204L52.584,69.204z"/>
	<path d="M37.156,50.869c-1.992,0-3.607-1.619-3.607-3.613c0-1.996,1.615-3.614,3.607-3.614s3.607,1.618,3.607,3.614
		C40.764,49.25,39.148,50.869,37.156,50.869L37.156,50.869z M42.049,48.801c-2.076,0-3.761-1.686-3.761-3.766
		c0-2.081,1.685-3.767,3.761-3.767c2.078,0,3.761,1.687,3.761,3.767C45.81,47.115,44.126,48.801,42.049,48.801L42.049,48.801z
		 M45.759,46.222c-0.939,0-1.7-0.762-1.7-1.704c0-0.94,0.761-1.702,1.7-1.702c0.938,0,1.699,0.762,1.699,1.702
		C47.458,45.46,46.697,46.222,45.759,46.222L45.759,46.222z M42.925,56.646c-2.79,0-5.049-2.264-5.049-5.059
		c0-2.791,2.26-5.055,5.049-5.055c2.788,0,5.049,2.264,5.049,5.055C47.975,54.383,45.713,56.646,42.925,56.646L42.925,56.646z
		 M46.892,50.969c-1.678,0-3.04-1.363-3.04-3.042c0-1.682,1.361-3.045,3.04-3.045s3.04,1.363,3.04,3.045
		C49.932,49.605,48.57,50.969,46.892,50.969L46.892,50.969z M50.19,48.701c-0.883,0-1.598-0.716-1.598-1.601
		c0-0.884,0.715-1.601,1.598-1.601c0.881,0,1.598,0.716,1.598,1.601C51.788,47.985,51.071,48.701,50.19,48.701L50.19,48.701z
		 M53.022,48.596c-2.616,0-4.739-2.128-4.739-4.749c0-2.622,2.123-4.747,4.739-4.747c2.618,0,4.74,2.125,4.74,4.747
		C57.763,46.468,55.641,48.596,53.022,48.596L53.022,48.596z M48.85,55.303c-2.645,0-4.791-2.146-4.791-4.797
		c0-2.651,2.146-4.799,4.791-4.799c2.646,0,4.791,2.148,4.791,4.799C53.641,53.156,51.496,55.303,48.85,55.303L48.85,55.303z
		 M53.475,51.303c-1.334,0-2.416-1.082-2.416-2.419s1.082-2.42,2.416-2.42c1.335,0,2.416,1.083,2.416,2.42
		S54.81,51.303,53.475,51.303L53.475,51.303z M54.517,54.998c-1.395,0-2.524-1.133-2.524-2.529s1.13-2.529,2.524-2.529
		s2.526,1.133,2.526,2.529S55.911,54.998,54.517,54.998L54.517,54.998z M58.02,53.549c-2.134,0-3.864-1.732-3.864-3.869
		c0-2.137,1.73-3.87,3.864-3.87c2.135,0,3.863,1.732,3.863,3.87C61.883,51.816,60.154,53.549,58.02,53.549L58.02,53.549z
		 M60.867,54.998c-1.395,0-2.524-1.133-2.524-2.529s1.13-2.529,2.524-2.529s2.524,1.133,2.524,2.529S62.262,54.998,60.867,54.998
		L60.867,54.998z"/>
	
		<linearGradient id="SVGID_10_" gradientUnits="userSpaceOnUse" x1="282.6279" y1="-327.7827" x2="282.6279" y2="-279.7153" gradientTransform="matrix(1 0 0 -1 -240.6602 -267.96)">
		<stop  offset="0" style="stop-color:#FFFFFF;stop-opacity:0"/>
		<stop  offset="1" style="stop-color:#FFFFFF;stop-opacity:0.6"/>
	</linearGradient>
	<path fill="url(#SVGID_10_)" d="M16.147,59.823c7.408-12.762,19.457-33.535,25.222-43.505c0.145-0.245,0.283-0.47,0.422-0.684
		c1.001-2.283,3.288-3.879,5.952-3.879c2.77,0,5.122,1.724,6.057,4.148c0.146,0.226,0.295,0.46,0.447,0.719
		c3.189,5.529,8.35,14.407,13.539,23.338C54.102,41.923,33.604,46.952,16.147,59.823L16.147,59.823z"/>
</g>
</svg>
