<?xml version="1.0" encoding="utf-8"?>
<!-- Generator: Adobe Illustrator 16.2.0, SVG Export Plug-In . SVG Version: 6.00 Build 0)  -->
<!DOCTYPE svg PUBLIC "-//W3C//DTD SVG 1.1//EN" "http://www.w3.org/Graphics/SVG/1.1/DTD/svg11.dtd">
<svg version="1.1" xmlns="http://www.w3.org/2000/svg" xmlns:xlink="http://www.w3.org/1999/xlink" x="0px" y="0px" width="96px"
	 height="96px" viewBox="0 0 96 96" enable-background="new 0 0 96 96" xml:space="preserve">
<g id="disabled">
	<path fill-opacity="0.1" d="M52.906,9.227l35.763,35.859c2.175,2.18,2.175,5.713,0,7.894L52.971,88.772
		c-2.174,2.181-5.7,2.181-7.874,0L9.333,52.914c-2.177-2.181-2.177-5.714,0-7.895L45.029,9.227
		C47.206,7.046,50.73,7.046,52.906,9.227L52.906,9.227z"/>
	<path fill="#AAAAAA" d="M51.906,8.227l35.763,35.859c2.175,2.18,2.175,5.713,0,7.894L51.971,87.772c-2.174,2.181-5.7,2.181-7.874,0
		L8.333,51.914c-2.177-2.181-2.177-5.714,0-7.895L44.029,8.227C46.206,6.046,49.73,6.046,51.906,8.227L51.906,8.227z"/>
	<path fill-rule="evenodd" clip-rule="evenodd" d="M84.698,51.147L50.963,84.933c-2.085,2.09-4.045,2.09-6.132,0L11.098,51.147
		c-2.086-2.088-2.086-4.051,0-6.141l33.733-33.787c2.086-2.089,4.047-2.089,6.132,0l33.735,33.787
		C86.784,47.096,86.784,49.059,84.698,51.147L84.698,51.147z M81.63,46.542l-32.199-32.25c-0.947-0.95-2.12-0.95-3.067,0
		l-32.199,32.25c-0.948,0.948-0.948,2.121,0,3.07l32.199,32.25c0.948,0.947,2.12,0.947,3.067,0l32.199-32.25
		C82.578,48.663,82.578,47.49,81.63,46.542L81.63,46.542z"/>
	<path fill-rule="evenodd" clip-rule="evenodd" d="M45.312,23.784c2.229,0,4.047,1.821,4.047,4.054c0,2.235-1.818,4.057-4.047,4.057
		s-4.049-1.821-4.049-4.057C41.263,25.605,43.083,23.784,45.312,23.784 M38.349,64.924h-2.912l0.615-19.616l0.673-1.683
		l-3.474-3.396c2.868-2.899,5.734-5.799,8.6-8.7c1.453,1.291,2.998,1.574,4.599,1.292l2.072,19.167
		c2.921,2.471,5.847,4.938,8.771,7.409c-2.13-3.917-1.166-8.168,2.548-7.044l9.522,1.866l-9.2,10.75H49.431l3.066-7.678
		l-8.992-7.913l1.326,4.841v10.75l-2.25-0.045l-0.393-9.008l-2.436-4.406L38.349,64.924L38.349,64.924z M44.598,42.56l1.318,7.268
		l-2.607-2.385L44.598,42.56L44.598,42.56z M36.808,39.976l2.297-2.188l-1.232,3.06L36.808,39.976L36.808,39.976z"/>
</g>
<g id="normal">
	<path fill-opacity="0.1" d="M52.906,9.227l35.763,35.859c2.175,2.18,2.175,5.713,0,7.894L52.971,88.772
		c-2.174,2.181-5.7,2.181-7.874,0L9.333,52.914c-2.177-2.181-2.177-5.714,0-7.895L45.029,9.227
		C47.206,7.046,50.73,7.046,52.906,9.227L52.906,9.227z"/>
	<path fill="#F89934" d="M51.906,8.227l35.763,35.859c2.175,2.18,2.175,5.713,0,7.894L51.971,87.772c-2.174,2.181-5.7,2.181-7.874,0
		L8.333,51.914c-2.177-2.181-2.177-5.714,0-7.895L44.029,8.227C46.206,6.046,49.73,6.046,51.906,8.227L51.906,8.227z"/>
	<path fill-rule="evenodd" clip-rule="evenodd" d="M84.698,51.147L50.963,84.933c-2.085,2.09-4.045,2.09-6.132,0L11.098,51.147
		c-2.086-2.088-2.086-4.051,0-6.141l33.733-33.787c2.086-2.089,4.047-2.089,6.132,0l33.735,33.787
		C86.784,47.096,86.784,49.059,84.698,51.147L84.698,51.147z M81.63,46.542l-32.199-32.25c-0.947-0.95-2.12-0.95-3.067,0
		l-32.199,32.25c-0.948,0.948-0.948,2.121,0,3.07l32.199,32.25c0.948,0.947,2.12,0.947,3.067,0l32.199-32.25
		C82.578,48.663,82.578,47.49,81.63,46.542L81.63,46.542z"/>
	<path fill-rule="evenodd" clip-rule="evenodd" d="M45.312,23.784c2.229,0,4.047,1.821,4.047,4.054c0,2.235-1.818,4.057-4.047,4.057
		s-4.049-1.821-4.049-4.057C41.263,25.605,43.083,23.784,45.312,23.784 M38.349,64.924h-2.912l0.615-19.616l0.673-1.683
		l-3.474-3.396c2.868-2.899,5.734-5.799,8.6-8.7c1.453,1.291,2.998,1.574,4.599,1.292l2.072,19.167
		c2.921,2.471,5.847,4.938,8.771,7.409c-2.13-3.917-1.166-8.168,2.548-7.044l9.522,1.866l-9.2,10.75H49.431l3.066-7.678
		l-8.992-7.913l1.326,4.841v10.75l-2.25-0.045l-0.393-9.008l-2.436-4.406L38.349,64.924L38.349,64.924z M44.598,42.56l1.318,7.268
		l-2.607-2.385L44.598,42.56L44.598,42.56z M36.808,39.976l2.297-2.188l-1.232,3.06L36.808,39.976L36.808,39.976z"/>
</g>
</svg>
