<?xml version="1.0" encoding="utf-8"?>
<!-- Generator: Adobe Illustrator 16.2.0, SVG Export Plug-In . SVG Version: 6.00 Build 0)  -->
<!DOCTYPE svg PUBLIC "-//W3C//DTD SVG 1.1//EN" "http://www.w3.org/Graphics/SVG/1.1/DTD/svg11.dtd">
<svg version="1.1" xmlns="http://www.w3.org/2000/svg" xmlns:xlink="http://www.w3.org/1999/xlink" x="0px" y="0px" width="96px"
	 height="96px" viewBox="0 0 96 96" enable-background="new 0 0 96 96" xml:space="preserve">
<g id="disabled">
	
		<radialGradient id="SVGID_1_" cx="-136.4419" cy="-1737.6035" r="26.6293" gradientTransform="matrix(-1.6502 0 0 -0.2075 -177.1563 -277.9141)" gradientUnits="userSpaceOnUse">
		<stop  offset="0.6962" style="stop-color:#000000;stop-opacity:0.25"/>
		<stop  offset="0.8858" style="stop-color:#6F6F6F;stop-opacity:0.0939"/>
		<stop  offset="1" style="stop-color:#AEAEAE;stop-opacity:0"/>
	</radialGradient>
	<path fill="url(#SVGID_1_)" d="M-12.613,82.641c0,3.32,27.129,6.018,60.598,6.018c33.5,0,60.629-2.695,60.629-6.018
		c0-3.324-27.129-6.021-60.629-6.021C14.516,76.619-12.613,79.316-12.613,82.641z"/>
	<path d="M57.807,14.463c-5.47-9.495-14.421-9.494-19.888,0.003L8.386,65.758c-5.467,9.496-0.976,17.264,9.982,17.262l59.012-0.006
		c10.959,0,15.447-7.77,9.977-17.264L57.807,14.463z"/>
	<path fill-rule="evenodd" clip-rule="evenodd" fill="#AAAAAA" d="M18.756,79.781c-4.209,0-7.273-1.291-8.63-3.637
		c-1.356-2.344-0.945-5.646,1.156-9.295l29.14-50.61c2.1-3.648,4.743-5.658,7.441-5.658c2.697,0,5.341,2.009,7.441,5.655
		L84.463,66.84c2.102,3.648,2.514,6.951,1.158,9.299c-1.355,2.344-4.421,3.637-8.633,3.637l-58.227,0.006H18.756z"/>
	<path d="M18.67,77.307c-2.885,0-4.999-0.908-5.952-2.561c-0.952-1.648-0.683-3.932,0.759-6.426l8.215-14.236
		c3.513-6.086,9.262-16.025,12.775-22.099l8.214-14.269c1.439-2.495,3.283-3.87,5.188-3.87c1.905,0,3.746,1.375,5.186,3.871
		l8.231,14.267c3.527,6.075,9.257,16.013,12.752,22.098l8.18,14.234c1.44,2.504,1.705,4.793,0.75,6.445
		c-0.95,1.641-3.049,2.545-5.911,2.545H18.67z"/>
	
		<radialGradient id="SVGID_2_" cx="288.6631" cy="-313.1953" r="29.6996" gradientTransform="matrix(1 0 0 -1 -240.6602 -267.96)" gradientUnits="userSpaceOnUse">
		<stop  offset="0" style="stop-color:#FFFFFF;stop-opacity:0"/>
		<stop  offset="1" style="stop-color:#000000"/>
	</radialGradient>
	<polygon opacity="0.3" fill="url(#SVGID_2_)" enable-background="new    " points="47.992,17.704 16.283,72.768 79.723,72.764 	"/>
	<path fill-rule="evenodd" clip-rule="evenodd" fill="#AAAAAA" d="M78.158,71.941l-60.44-0.012c0,0,0.169-0.289,0.24-0.408
		l12.278-21.158l17.221-29.703c0.001-0.003,0.23-0.375,0.23-0.375c0.09-0.147,0.2-0.339,0.306-0.531
		c0.123,0.271,0.274,0.541,0.414,0.77l0.27,0.438L63.929,47.25c0,0,13.947,24.01,14.34,24.694
		C78.23,71.941,78.188,71.941,78.158,71.941"/>
	<linearGradient id="SVGID_3_" gradientUnits="userSpaceOnUse" x1="32.0195" y1="45.3193" x2="77.246" y2="73.58">
		<stop  offset="0" style="stop-color:#000000"/>
		<stop  offset="0.0357" style="stop-color:#3A3A3A"/>
		<stop  offset="0.0698" style="stop-color:#6B6B6B"/>
		<stop  offset="0.0996" style="stop-color:#8D8D8D"/>
		<stop  offset="0.124" style="stop-color:#A3A3A3"/>
		<stop  offset="0.14" style="stop-color:#AAAAAA"/>
	</linearGradient>
	<path fill="url(#SVGID_3_)" fill-opacity="0.5" d="M78.158,71.941l-60.44-0.012c0,0,0.169-0.289,0.24-0.408l12.278-21.158
		l17.221-29.703c0.001-0.003,0.23-0.375,0.23-0.375c0.09-0.147,0.2-0.339,0.306-0.531c0.123,0.271,0.274,0.541,0.414,0.77
		l0.27,0.438L63.929,47.25c0,0,13.947,24.01,14.34,24.694C78.23,71.941,78.188,71.941,78.158,71.941"/>
	<path fill="none" d="M49.685,23.095c3.929,6.816,22.444,38.312,26.77,45.815c0.438,0.758-0.051,1.564-0.816,1.564
		c-8.448,0-45.486,0-53.625,0c-0.812,0-1.114-0.816-0.67-1.586c4.328-7.508,22.649-38.759,26.698-45.783
		C48.479,22.347,49.204,22.261,49.685,23.095L49.685,23.095z"/>
	<g>
		<path d="M69.179,61.195c-0.231-0.152-3.997,0.617-4.536,0.311c-0.537-0.311-1.46-2.313-1.999-2.387
			c-0.52-0.076-8.934,1.572-9.479,1.68l2.944-4.066l-4.842,3l-0.922-6.234l-0.692,8.008l-1.55,1.178v-5.893H28.385
			c-0.235,0.402-0.471,0.805-0.7,1.197v6.549h4.94c0.483-2.494,2.672-4.385,5.306-4.385c2.634,0,4.823,1.891,5.306,4.385h2.43
			l-2.085,1.586l6.072-2.002l2.613-2.078l0.833-1.152l-0.602,3.77l-5.151,0.924c0,0-0.691,2.08,0.154,2.541
			c0.847,0.463,2.306-0.076,2.306-0.076l0.272-0.051c-0.008,0.07-0.041,0.131-0.041,0.205c0,1.02,0.826,1.848,1.845,1.848
			c1.02,0,1.845-0.828,1.845-1.848c0-0.307-0.09-0.582-0.222-0.836l0.068-0.012l4.842-1l4.451-0.887
			c-0.021,0.115-0.069,0.223-0.069,0.348c0,1.02,0.825,1.848,1.845,1.848c1.019,0,1.845-0.828,1.845-1.848
			c0-0.377-0.141-0.707-0.334-1l2.718-0.541l1.306-0.539l-0.153-0.693C70.023,63.043,69.408,61.35,69.179,61.195z"/>
		<path d="M46.956,34.625l0.599,6.545c0,0.425,0.271,0.769,0.605,0.769c0.333,0,0.604-0.344,0.604-0.769l0.6-6.545
			c0-0.425-0.539-0.769-1.205-0.769C47.495,33.856,46.956,34.2,46.956,34.625z"/>
		<ellipse cx="37.932" cy="65.572" rx="4.488" ry="4.496"/>
		<path d="M39.119,55.412v-6.186h-6.315c-1.237,2.117-2.453,4.197-3.614,6.186H39.119z"/>
		<path d="M49.097,43.984v-0.088c0-0.517-0.418-0.936-0.934-0.936c-0.517,0-0.935,0.418-0.935,0.936v0.088
			c0,0.519,0.418,0.937,0.935,0.937C48.679,44.921,49.097,44.503,49.097,43.984z"/>
		<rect x="40.7" y="49.227" width="7.403" height="6.186"/>
	</g>
	<path fill="#FFFFFF" d="M64.72,66.643c-0.542,0-0.98-0.439-0.98-0.98c0-0.543,0.438-0.982,0.98-0.982
		c0.541,0,0.979,0.439,0.979,0.982C65.699,66.203,65.261,66.643,64.72,66.643L64.72,66.643z M60.948,60.664l1.523-0.314l1.499,1.789
		l-2.488,0.572L60.948,60.664L60.948,60.664z M56.694,61.547l3.633-0.754l0.537,2.061l-3.612,0.83L56.694,61.547L56.694,61.547z
		 M56.073,61.674l0.561,2.152l-4.005,0.92c-0.527,0.518-1.234,0.857-2.034,0.857c-1.623,0-2.94-1.318-2.94-2.945
		c0-0.984,0.486-1.848,1.227-2.383c0.452-1.043,1.487-1.773,2.694-1.773c1.623,0,2.94,1.318,2.94,2.945
		c0,0.193-0.033,0.381-0.07,0.564L56.073,61.674L56.073,61.674z M37.911,67.451c-1.114,0-2.017-0.904-2.017-2.02
		c0-1.117,0.903-2.021,2.017-2.021c1.116,0,2.02,0.904,2.02,2.021C39.93,66.547,39.026,67.451,37.911,67.451L37.911,67.451z
		 M51.864,67.451c0.509,0,0.922,0.414,0.922,0.924s-0.413,0.924-0.922,0.924c-0.511,0-0.923-0.414-0.923-0.924
		S51.354,67.451,51.864,67.451L51.864,67.451z"/>
</g>
<g id="normal">
	
		<radialGradient id="SVGID_4_" cx="-136.4419" cy="-1737.6035" r="26.6293" gradientTransform="matrix(-1.6502 0 0 -0.2075 -177.1563 -277.9141)" gradientUnits="userSpaceOnUse">
		<stop  offset="0.6962" style="stop-color:#000000;stop-opacity:0.25"/>
		<stop  offset="0.8858" style="stop-color:#6F6F6F;stop-opacity:0.0939"/>
		<stop  offset="1" style="stop-color:#AEAEAE;stop-opacity:0"/>
	</radialGradient>
	<path fill="url(#SVGID_4_)" d="M-12.613,82.641c0,3.32,27.129,6.018,60.598,6.018c33.5,0,60.629-2.695,60.629-6.018
		c0-3.324-27.129-6.021-60.629-6.021C14.516,76.619-12.613,79.316-12.613,82.641z"/>
	<path d="M57.807,14.463c-5.47-9.495-14.421-9.494-19.888,0.003L8.386,65.758c-5.467,9.496-0.976,17.264,9.982,17.262l59.012-0.006
		c10.959,0,15.447-7.77,9.977-17.264L57.807,14.463z"/>
	<path fill-rule="evenodd" clip-rule="evenodd" fill="#E99D47" d="M18.756,79.781c-4.209,0-7.273-1.291-8.63-3.637
		c-1.356-2.344-0.945-5.646,1.156-9.295l29.14-50.61c2.1-3.648,4.743-5.658,7.441-5.658c2.697,0,5.341,2.009,7.441,5.655
		L84.463,66.84c2.102,3.648,2.514,6.951,1.158,9.299c-1.355,2.344-4.421,3.637-8.633,3.637l-58.227,0.006H18.756z"/>
	<path d="M18.67,77.307c-2.885,0-4.999-0.908-5.952-2.561c-0.952-1.648-0.683-3.932,0.759-6.426l8.215-14.236
		c3.513-6.086,9.262-16.025,12.775-22.099l8.214-14.269c1.439-2.495,3.283-3.87,5.188-3.87c1.905,0,3.746,1.375,5.186,3.871
		l8.231,14.267c3.527,6.075,9.257,16.013,12.752,22.098l8.18,14.234c1.44,2.504,1.705,4.793,0.75,6.445
		c-0.95,1.641-3.049,2.545-5.911,2.545H18.67z"/>
	
		<radialGradient id="SVGID_5_" cx="288.6631" cy="-313.1953" r="29.6996" gradientTransform="matrix(1 0 0 -1 -240.6602 -267.96)" gradientUnits="userSpaceOnUse">
		<stop  offset="0" style="stop-color:#FFFFFF;stop-opacity:0"/>
		<stop  offset="1" style="stop-color:#000000"/>
	</radialGradient>
	<polygon opacity="0.3" fill="url(#SVGID_5_)" enable-background="new    " points="47.992,17.704 16.283,72.768 79.723,72.764 	"/>
	<path fill-rule="evenodd" clip-rule="evenodd" fill="#E99D47" d="M78.158,71.941l-60.44-0.012c0,0,0.169-0.289,0.24-0.408
		l12.278-21.158l17.221-29.703c0.001-0.003,0.23-0.375,0.23-0.375c0.09-0.147,0.2-0.339,0.306-0.531
		c0.123,0.271,0.274,0.541,0.414,0.77l0.27,0.438L63.929,47.25c0,0,13.947,24.01,14.34,24.694
		C78.23,71.941,78.188,71.941,78.158,71.941"/>
	<linearGradient id="SVGID_6_" gradientUnits="userSpaceOnUse" x1="32.0195" y1="45.3193" x2="77.246" y2="73.58">
		<stop  offset="0" style="stop-color:#000000"/>
		<stop  offset="0.0263" style="stop-color:#3C2812"/>
		<stop  offset="0.0561" style="stop-color:#795125"/>
		<stop  offset="0.0835" style="stop-color:#A97234"/>
		<stop  offset="0.1075" style="stop-color:#CC893E"/>
		<stop  offset="0.1272" style="stop-color:#E19845"/>
		<stop  offset="0.14" style="stop-color:#E99D47"/>
	</linearGradient>
	<path fill="url(#SVGID_6_)" fill-opacity="0.5" d="M78.158,71.941l-60.44-0.012c0,0,0.169-0.289,0.24-0.408l12.278-21.158
		l17.221-29.703c0.001-0.003,0.23-0.375,0.23-0.375c0.09-0.147,0.2-0.339,0.306-0.531c0.123,0.271,0.274,0.541,0.414,0.77
		l0.27,0.438L63.929,47.25c0,0,13.947,24.01,14.34,24.694C78.23,71.941,78.188,71.941,78.158,71.941"/>
	<path fill="none" d="M49.685,23.095c3.929,6.816,22.444,38.312,26.77,45.815c0.438,0.758-0.051,1.564-0.816,1.564
		c-8.448,0-45.486,0-53.625,0c-0.812,0-1.114-0.816-0.67-1.586c4.328-7.508,22.649-38.759,26.698-45.783
		C48.479,22.347,49.204,22.261,49.685,23.095L49.685,23.095z"/>
	<g>
		<path d="M69.179,61.195c-0.231-0.152-3.997,0.617-4.536,0.311c-0.537-0.311-1.46-2.313-1.999-2.387
			c-0.52-0.076-8.934,1.572-9.479,1.68l2.944-4.066l-4.842,3l-0.922-6.234l-0.692,8.008l-1.55,1.178v-5.893H28.385
			c-0.235,0.402-0.471,0.805-0.7,1.197v6.549h4.94c0.483-2.494,2.672-4.385,5.306-4.385c2.634,0,4.823,1.891,5.306,4.385h2.43
			l-2.085,1.586l6.072-2.002l2.613-2.078l0.833-1.152l-0.602,3.77l-5.151,0.924c0,0-0.691,2.08,0.154,2.541
			c0.847,0.463,2.306-0.076,2.306-0.076l0.272-0.051c-0.008,0.07-0.041,0.131-0.041,0.205c0,1.02,0.826,1.848,1.845,1.848
			c1.02,0,1.845-0.828,1.845-1.848c0-0.307-0.09-0.582-0.222-0.836l0.068-0.012l4.842-1l4.451-0.887
			c-0.021,0.115-0.069,0.223-0.069,0.348c0,1.02,0.825,1.848,1.845,1.848c1.019,0,1.845-0.828,1.845-1.848
			c0-0.377-0.141-0.707-0.334-1l2.718-0.541l1.306-0.539l-0.153-0.693C70.023,63.043,69.408,61.35,69.179,61.195z"/>
		<path d="M46.956,34.625l0.599,6.545c0,0.425,0.271,0.769,0.605,0.769c0.333,0,0.604-0.344,0.604-0.769l0.6-6.545
			c0-0.425-0.539-0.769-1.205-0.769C47.495,33.856,46.956,34.2,46.956,34.625z"/>
		<ellipse cx="37.932" cy="65.572" rx="4.488" ry="4.496"/>
		<path d="M39.119,55.412v-6.186h-6.315c-1.237,2.117-2.453,4.197-3.614,6.186H39.119z"/>
		<path d="M49.097,43.984v-0.088c0-0.517-0.418-0.936-0.934-0.936c-0.517,0-0.935,0.418-0.935,0.936v0.088
			c0,0.519,0.418,0.937,0.935,0.937C48.679,44.921,49.097,44.503,49.097,43.984z"/>
		<rect x="40.7" y="49.227" width="7.403" height="6.186"/>
	</g>
	<path fill="#FFFFFF" d="M64.72,66.643c-0.542,0-0.98-0.439-0.98-0.98c0-0.543,0.438-0.982,0.98-0.982
		c0.541,0,0.979,0.439,0.979,0.982C65.699,66.203,65.261,66.643,64.72,66.643L64.72,66.643z M60.948,60.664l1.523-0.314l1.499,1.789
		l-2.488,0.572L60.948,60.664L60.948,60.664z M56.694,61.547l3.633-0.754l0.537,2.061l-3.612,0.83L56.694,61.547L56.694,61.547z
		 M56.073,61.674l0.561,2.152l-4.005,0.92c-0.527,0.518-1.234,0.857-2.034,0.857c-1.623,0-2.94-1.318-2.94-2.945
		c0-0.984,0.486-1.848,1.227-2.383c0.452-1.043,1.487-1.773,2.694-1.773c1.623,0,2.94,1.318,2.94,2.945
		c0,0.193-0.033,0.381-0.07,0.564L56.073,61.674L56.073,61.674z M37.911,67.451c-1.114,0-2.017-0.904-2.017-2.02
		c0-1.117,0.903-2.021,2.017-2.021c1.116,0,2.02,0.904,2.02,2.021C39.93,66.547,39.026,67.451,37.911,67.451L37.911,67.451z
		 M51.864,67.451c0.509,0,0.922,0.414,0.922,0.924s-0.413,0.924-0.922,0.924c-0.511,0-0.923-0.414-0.923-0.924
		S51.354,67.451,51.864,67.451L51.864,67.451z"/>
</g>
</svg>
