<?xml version="1.0" encoding="utf-8"?>
<!-- Generator: Adobe Illustrator 16.2.0, SVG Export Plug-In . SVG Version: 6.00 Build 0)  -->
<!DOCTYPE svg PUBLIC "-//W3C//DTD SVG 1.1//EN" "http://www.w3.org/Graphics/SVG/1.1/DTD/svg11.dtd">
<svg version="1.1" xmlns="http://www.w3.org/2000/svg" xmlns:xlink="http://www.w3.org/1999/xlink" x="0px" y="0px" width="96px"
	 height="96px" viewBox="0 0 96 96" enable-background="new 0 0 96 96" xml:space="preserve">
<g id="disabled">
	
		<radialGradient id="SVGID_1_" cx="-136.4419" cy="-1739.8418" r="26.9854" gradientTransform="matrix(-1.6502 0 0 -0.2075 -177.1565 -277.9142)" gradientUnits="userSpaceOnUse">
		<stop  offset="0.6962" style="stop-color:#000000;stop-opacity:0.25"/>
		<stop  offset="0.8858" style="stop-color:#6F6F6F;stop-opacity:0.0939"/>
		<stop  offset="1" style="stop-color:#AEAEAE;stop-opacity:0"/>
	</radialGradient>
	<path fill="url(#SVGID_1_)" d="M-13.425,83.104c0,3.365,27.493,6.098,61.411,6.098c33.946,0,61.44-2.731,61.44-6.098
		c0-3.369-27.494-6.102-61.44-6.102C14.067,77.003-13.425,79.735-13.425,83.104z"/>
	<path d="M57.938,14.013c-5.543-9.622-14.613-9.621-20.154,0.003L7.855,65.995c-5.541,9.623-0.989,17.496,10.116,17.494
		l59.804-0.006c11.105-0.002,15.654-7.875,10.111-17.496L57.938,14.013z"/>
	
		<linearGradient id="SVGID_2_" gradientUnits="userSpaceOnUse" x1="279.9473" y1="-359.354" x2="312.734" y2="-289.0426" gradientTransform="matrix(1 0 0 -1 -240.6602 -267.96)">
		<stop  offset="0" style="stop-color:#D1D1D1"/>
		<stop  offset="0.5" style="stop-color:#FFFFFF"/>
		<stop  offset="1" style="stop-color:#D1D1D1"/>
	</linearGradient>
	<path fill="url(#SVGID_2_)" d="M55.553,15.929c-4.162-7.215-10.965-7.215-15.122,0L10.941,67.163
		c-4.158,7.22-0.746,13.121,7.582,13.119l58.961-0.006c8.328-0.002,11.738-5.904,7.582-13.119L55.553,15.929z"/>
	<path fill="#4D4D4D" d="M75.605,53.463c-3.545-6.167-9.352-16.24-12.926-22.395l-8.34-14.459c-3.557-6.167-9.387-6.167-12.947,0
		l-8.321,14.459c-3.561,6.155-9.387,16.227-12.948,22.395L11.798,67.89c-3.562,6.166-0.646,11.215,6.478,11.215h16.642
		c7.123,0,18.775,0,25.906,0h16.619c7.1,0,9.994-5.049,6.449-11.215L75.605,53.463z"/>
	
		<radialGradient id="SVGID_3_" cx="288.6621" cy="-313.1582" r="30.0976" gradientTransform="matrix(1 0 0 -1 -240.6602 -267.96)" gradientUnits="userSpaceOnUse">
		<stop  offset="0" style="stop-color:#FFFFFF;stop-opacity:0"/>
		<stop  offset="1" style="stop-color:#000000"/>
	</radialGradient>
	<polygon opacity="0.3" fill="url(#SVGID_3_)" enable-background="new    " points="47.993,17.297 15.858,73.1 80.146,73.096 	"/>
	<path fill="#FFFFFF" d="M78.563,72.262l-61.25-0.013c0,0,0.171-0.291,0.243-0.413l12.443-21.443l17.452-30.098
		c0.002-0.003,0.233-0.38,0.233-0.38c0.092-0.15,0.203-0.345,0.31-0.539c0.125,0.274,0.278,0.548,0.42,0.78l0.271,0.444
		L64.143,47.24c0,0,14.133,24.331,14.533,25.023C78.635,72.262,78.592,72.262,78.563,72.262"/>
	<linearGradient id="SVGID_4_" gradientUnits="userSpaceOnUse" x1="31.8052" y1="45.2822" x2="77.6395" y2="73.9227">
		<stop  offset="0" style="stop-color:#000000"/>
		<stop  offset="0.0025" style="stop-color:#060606"/>
		<stop  offset="0.0328" style="stop-color:#515151"/>
		<stop  offset="0.0612" style="stop-color:#8F8F8F"/>
		<stop  offset="0.087" style="stop-color:#BFBFBF"/>
		<stop  offset="0.1095" style="stop-color:#E2E2E2"/>
		<stop  offset="0.1279" style="stop-color:#F7F7F7"/>
		<stop  offset="0.14" style="stop-color:#FFFFFF"/>
	</linearGradient>
	<path fill="url(#SVGID_4_)" fill-opacity="0.5" d="M78.563,72.262l-61.25-0.013c0,0,0.171-0.291,0.243-0.413l12.443-21.443
		l17.452-30.098c0.002-0.003,0.233-0.38,0.233-0.38c0.092-0.15,0.203-0.345,0.31-0.539c0.125,0.274,0.278,0.548,0.42,0.78
		l0.271,0.444L64.143,47.24c0,0,14.133,24.331,14.533,25.023C78.635,72.262,78.592,72.262,78.563,72.262"/>
	<path d="M51.703,48.089h3.889v1.707c0,0.553,0.15,0.718,0.752,0.718h1.348c0.604,0,0.752-0.165,0.752-0.718v-1.707l0.398-0.195
		c0.508-0.228,0.928-0.88,0.928-2.721c0-1.893-0.174-2.141-0.336-2.423c-0.16-0.279-0.604-0.601-0.604-0.601l-1.816-4.27
		c-0.375-0.809-1.488-1.235-1.973-1.235h-8.892c-0.481,0-1.593,0.426-1.969,1.235l-1.819,4.27c0,0-0.438,0.322-0.6,0.601
		c-0.164,0.282-0.338,0.53-0.338,2.423c0,0.86,0.095,1.454,0.244,1.873h8.18C50.289,47.046,51.254,47.408,51.703,48.089z
		 M43.759,45.009c0-0.582,0.526-1.055,1.176-1.055c0.646,0,1.168,0.473,1.168,1.055s-0.522,1.052-1.168,1.052
		C44.286,46.061,43.759,45.591,43.759,45.009z M57.564,42.149H43.627c0,0-0.331,0.028-0.23-0.294
		c0.086-0.271,1.284-2.953,1.538-3.688c0.101-0.255,0.68-0.837,1.46-0.793h8.402c0.779-0.044,1.361,0.538,1.463,0.793
		c0.252,0.734,1.453,3.416,1.537,3.688C57.898,42.177,57.564,42.149,57.564,42.149z M55.043,45.009c0-0.582,0.527-1.055,1.172-1.055
		c0.646,0,1.174,0.473,1.174,1.055s-0.527,1.052-1.174,1.052C55.57,46.061,55.043,45.591,55.043,45.009z"/>
	<path d="M46.603,58.465h3.793v1.714c0,0.555,0.148,0.719,0.752,0.719h1.348c0.602,0,0.754-0.164,0.754-0.719v-1.714l0.396-0.2
		c0.506-0.228,0.928-0.883,0.928-2.728c0-1.888-0.178-2.135-0.34-2.415c-0.158-0.28-0.6-0.599-0.6-0.599l-1.818-4.248
		c-0.377-0.804-1.488-1.229-1.969-1.229h-8.891c-0.486,0-1.597,0.425-1.975,1.229l-1.817,4.248c0,0-0.44,0.318-0.602,0.599
		c-0.137,0.239-0.285,0.463-0.326,1.696h2.527c0.208-0.292,0.557-0.498,0.972-0.498c0.416,0,0.764,0.206,0.972,0.498h3.125
		c0.569,0,1.877,0.498,2.317,1.45L46.603,58.465z M52.369,52.772H38.432c0,0,0.529-1.71,1.304-3.967
		c0.103-0.251,0.684-0.83,1.466-0.787h8.4c0.781-0.042,1.359,0.536,1.461,0.787C51.84,51.063,52.369,52.772,52.369,52.772z
		 M49.85,55.368c0-0.577,0.523-1.048,1.17-1.048s1.174,0.471,1.174,1.048c0,0.582-0.527,1.058-1.174,1.058S49.85,55.95,49.85,55.368
		z"/>
	<path d="M27.873,65.648c0,2.174,0,2.973,0,2.973h1.484v1.487c0,0.655,0.775,1.486,1.484,1.486c0.708,0,1.484-0.831,1.484-1.486
		v-1.487h11.877v1.487c0,0.655,0.777,1.486,1.484,1.486c0.706,0,1.479-0.831,1.479-1.486v-1.487h1.479c0-1.486,0-0.799,0-2.973
		c0-2.229,0-1.488,0-2.975c0-0.381-1.478-1.486-1.479-1.486l-1.016-4.919c-0.44-0.952-1.748-1.45-2.317-1.45H33.337
		c-0.569,0-1.877,0.498-2.32,1.45l-1.66,4.919c0,0-1.295,1.157-1.484,1.486C27.682,63.005,27.873,63.419,27.873,65.648z
		 M45.872,60.722H31.025l1.485-4.462h11.877L45.872,60.722z M43.834,64.663c0-0.683,0.617-1.241,1.381-1.241
		c0.76,0,1.375,0.559,1.375,1.241c0,0.686-0.615,1.242-1.375,1.242C44.452,65.905,43.834,65.349,43.834,64.663z M30.521,64.663
		c0-0.683,0.621-1.241,1.383-1.241c0.76,0,1.381,0.559,1.381,1.241c0,0.686-0.621,1.242-1.381,1.242
		C31.142,65.905,30.521,65.349,30.521,64.663z"/>
	
		<linearGradient id="SVGID_5_" gradientUnits="userSpaceOnUse" x1="282.6279" y1="-327.7827" x2="282.6279" y2="-279.7153" gradientTransform="matrix(1 0 0 -1 -240.6602 -267.96)">
		<stop  offset="0" style="stop-color:#FFFFFF;stop-opacity:0"/>
		<stop  offset="1" style="stop-color:#FFFFFF;stop-opacity:0.6"/>
	</linearGradient>
	<path fill="url(#SVGID_5_)" d="M16.147,59.823c7.408-12.762,19.457-33.535,25.222-43.505c0.145-0.245,0.283-0.47,0.422-0.684
		c1.001-2.283,3.288-3.879,5.952-3.879c2.77,0,5.122,1.724,6.057,4.148c0.146,0.226,0.295,0.46,0.447,0.719
		c3.189,5.529,8.35,14.407,13.539,23.338C54.102,41.923,33.604,46.952,16.147,59.823L16.147,59.823z"/>
</g>
<g id="normal">
	
		<radialGradient id="SVGID_6_" cx="-136.4419" cy="-1739.8418" r="26.9854" gradientTransform="matrix(-1.6502 0 0 -0.2075 -177.1565 -277.9142)" gradientUnits="userSpaceOnUse">
		<stop  offset="0.6962" style="stop-color:#000000;stop-opacity:0.25"/>
		<stop  offset="0.8858" style="stop-color:#6F6F6F;stop-opacity:0.0939"/>
		<stop  offset="1" style="stop-color:#AEAEAE;stop-opacity:0"/>
	</radialGradient>
	<path fill="url(#SVGID_6_)" d="M-13.425,83.104c0,3.365,27.493,6.098,61.411,6.098c33.946,0,61.44-2.731,61.44-6.098
		c0-3.369-27.494-6.102-61.44-6.102C14.067,77.003-13.425,79.735-13.425,83.104z"/>
	<path d="M57.938,14.013c-5.543-9.622-14.613-9.621-20.154,0.003L7.855,65.995c-5.541,9.623-0.989,17.496,10.116,17.494
		l59.804-0.006c11.105-0.002,15.654-7.875,10.111-17.496L57.938,14.013z"/>
	
		<linearGradient id="SVGID_7_" gradientUnits="userSpaceOnUse" x1="279.9473" y1="-359.354" x2="312.734" y2="-289.0426" gradientTransform="matrix(1 0 0 -1 -240.6602 -267.96)">
		<stop  offset="0" style="stop-color:#D1D1D1"/>
		<stop  offset="0.5" style="stop-color:#FFFFFF"/>
		<stop  offset="1" style="stop-color:#D1D1D1"/>
	</linearGradient>
	<path fill="url(#SVGID_7_)" d="M55.553,15.929c-4.162-7.215-10.965-7.215-15.122,0L10.941,67.163
		c-4.158,7.22-0.746,13.121,7.582,13.119l58.961-0.006c8.328-0.002,11.738-5.904,7.582-13.119L55.553,15.929z"/>
	<path fill="#FF0000" d="M75.605,53.463c-3.545-6.167-9.352-16.24-12.926-22.395l-8.34-14.459c-3.557-6.167-9.387-6.167-12.947,0
		l-8.321,14.459c-3.561,6.155-9.387,16.227-12.948,22.395L11.798,67.89c-3.562,6.166-0.646,11.215,6.478,11.215h16.642
		c7.123,0,18.775,0,25.906,0h16.619c7.1,0,9.994-5.049,6.449-11.215L75.605,53.463z"/>
	
		<radialGradient id="SVGID_8_" cx="288.6621" cy="-313.1582" r="30.0976" gradientTransform="matrix(1 0 0 -1 -240.6602 -267.96)" gradientUnits="userSpaceOnUse">
		<stop  offset="0" style="stop-color:#FFFFFF;stop-opacity:0"/>
		<stop  offset="1" style="stop-color:#000000"/>
	</radialGradient>
	<polygon opacity="0.3" fill="url(#SVGID_8_)" enable-background="new    " points="47.993,17.297 15.858,73.1 80.146,73.096 	"/>
	<path fill="#FFFFFF" d="M78.563,72.262l-61.25-0.013c0,0,0.171-0.291,0.243-0.413l12.443-21.443l17.452-30.098
		c0.002-0.003,0.233-0.38,0.233-0.38c0.092-0.15,0.203-0.345,0.31-0.539c0.125,0.274,0.278,0.548,0.42,0.78l0.271,0.444
		L64.143,47.24c0,0,14.133,24.331,14.533,25.023C78.635,72.262,78.592,72.262,78.563,72.262"/>
	<linearGradient id="SVGID_9_" gradientUnits="userSpaceOnUse" x1="31.8052" y1="45.2822" x2="77.6395" y2="73.9227">
		<stop  offset="0" style="stop-color:#000000"/>
		<stop  offset="0.0025" style="stop-color:#060606"/>
		<stop  offset="0.0328" style="stop-color:#515151"/>
		<stop  offset="0.0612" style="stop-color:#8F8F8F"/>
		<stop  offset="0.087" style="stop-color:#BFBFBF"/>
		<stop  offset="0.1095" style="stop-color:#E2E2E2"/>
		<stop  offset="0.1279" style="stop-color:#F7F7F7"/>
		<stop  offset="0.14" style="stop-color:#FFFFFF"/>
	</linearGradient>
	<path fill="url(#SVGID_9_)" fill-opacity="0.5" d="M78.563,72.262l-61.25-0.013c0,0,0.171-0.291,0.243-0.413l12.443-21.443
		l17.452-30.098c0.002-0.003,0.233-0.38,0.233-0.38c0.092-0.15,0.203-0.345,0.31-0.539c0.125,0.274,0.278,0.548,0.42,0.78
		l0.271,0.444L64.143,47.24c0,0,14.133,24.331,14.533,25.023C78.635,72.262,78.592,72.262,78.563,72.262"/>
	<path d="M51.703,48.089h3.889v1.707c0,0.553,0.15,0.718,0.752,0.718h1.348c0.604,0,0.752-0.165,0.752-0.718v-1.707l0.398-0.195
		c0.508-0.228,0.928-0.88,0.928-2.721c0-1.893-0.174-2.141-0.336-2.423c-0.16-0.279-0.604-0.601-0.604-0.601l-1.816-4.27
		c-0.375-0.809-1.488-1.235-1.973-1.235h-8.892c-0.481,0-1.593,0.426-1.969,1.235l-1.819,4.27c0,0-0.438,0.322-0.6,0.601
		c-0.164,0.282-0.338,0.53-0.338,2.423c0,0.86,0.095,1.454,0.244,1.873h8.18C50.289,47.046,51.254,47.408,51.703,48.089z
		 M43.759,45.009c0-0.582,0.526-1.055,1.176-1.055c0.646,0,1.168,0.473,1.168,1.055s-0.522,1.052-1.168,1.052
		C44.286,46.061,43.759,45.591,43.759,45.009z M57.564,42.149H43.627c0,0-0.331,0.028-0.23-0.294
		c0.086-0.271,1.284-2.953,1.538-3.688c0.101-0.255,0.68-0.837,1.46-0.793h8.402c0.779-0.044,1.361,0.538,1.463,0.793
		c0.252,0.734,1.453,3.416,1.537,3.688C57.898,42.177,57.564,42.149,57.564,42.149z M55.043,45.009c0-0.582,0.527-1.055,1.172-1.055
		c0.646,0,1.174,0.473,1.174,1.055s-0.527,1.052-1.174,1.052C55.57,46.061,55.043,45.591,55.043,45.009z"/>
	<path d="M46.603,58.465h3.793v1.714c0,0.555,0.148,0.719,0.752,0.719h1.348c0.602,0,0.754-0.164,0.754-0.719v-1.714l0.396-0.2
		c0.506-0.228,0.928-0.883,0.928-2.728c0-1.888-0.178-2.135-0.34-2.415c-0.158-0.28-0.6-0.599-0.6-0.599l-1.818-4.248
		c-0.377-0.804-1.488-1.229-1.969-1.229h-8.891c-0.486,0-1.597,0.425-1.975,1.229l-1.817,4.248c0,0-0.44,0.318-0.602,0.599
		c-0.137,0.239-0.285,0.463-0.326,1.696h2.527c0.208-0.292,0.557-0.498,0.972-0.498c0.416,0,0.764,0.206,0.972,0.498h3.125
		c0.569,0,1.877,0.498,2.317,1.45L46.603,58.465z M52.369,52.772H38.432c0,0,0.529-1.71,1.304-3.967
		c0.103-0.251,0.684-0.83,1.466-0.787h8.4c0.781-0.042,1.359,0.536,1.461,0.787C51.84,51.063,52.369,52.772,52.369,52.772z
		 M49.85,55.368c0-0.577,0.523-1.048,1.17-1.048s1.174,0.471,1.174,1.048c0,0.582-0.527,1.058-1.174,1.058S49.85,55.95,49.85,55.368
		z"/>
	<path d="M27.873,65.648c0,2.174,0,2.973,0,2.973h1.484v1.487c0,0.655,0.775,1.486,1.484,1.486c0.708,0,1.484-0.831,1.484-1.486
		v-1.487h11.877v1.487c0,0.655,0.777,1.486,1.484,1.486c0.706,0,1.479-0.831,1.479-1.486v-1.487h1.479c0-1.486,0-0.799,0-2.973
		c0-2.229,0-1.488,0-2.975c0-0.381-1.478-1.486-1.479-1.486l-1.016-4.919c-0.44-0.952-1.748-1.45-2.317-1.45H33.337
		c-0.569,0-1.877,0.498-2.32,1.45l-1.66,4.919c0,0-1.295,1.157-1.484,1.486C27.682,63.005,27.873,63.419,27.873,65.648z
		 M45.872,60.722H31.025l1.485-4.462h11.877L45.872,60.722z M43.834,64.663c0-0.683,0.617-1.241,1.381-1.241
		c0.76,0,1.375,0.559,1.375,1.241c0,0.686-0.615,1.242-1.375,1.242C44.452,65.905,43.834,65.349,43.834,64.663z M30.521,64.663
		c0-0.683,0.621-1.241,1.383-1.241c0.76,0,1.381,0.559,1.381,1.241c0,0.686-0.621,1.242-1.381,1.242
		C31.142,65.905,30.521,65.349,30.521,64.663z"/>
	
		<linearGradient id="SVGID_10_" gradientUnits="userSpaceOnUse" x1="282.6279" y1="-327.7827" x2="282.6279" y2="-279.7153" gradientTransform="matrix(1 0 0 -1 -240.6602 -267.96)">
		<stop  offset="0" style="stop-color:#FFFFFF;stop-opacity:0"/>
		<stop  offset="1" style="stop-color:#FFFFFF;stop-opacity:0.6"/>
	</linearGradient>
	<path fill="url(#SVGID_10_)" d="M16.147,59.823c7.408-12.762,19.457-33.535,25.222-43.505c0.145-0.245,0.283-0.47,0.422-0.684
		c1.001-2.283,3.288-3.879,5.952-3.879c2.77,0,5.122,1.724,6.057,4.148c0.146,0.226,0.295,0.46,0.447,0.719
		c3.189,5.529,8.35,14.407,13.539,23.338C54.102,41.923,33.604,46.952,16.147,59.823L16.147,59.823z"/>
</g>
</svg>
