<?xml version="1.0" encoding="utf-8"?>
<!-- Generator: Adobe Illustrator 16.2.0, SVG Export Plug-In . SVG Version: 6.00 Build 0)  -->
<!DOCTYPE svg PUBLIC "-//W3C//DTD SVG 1.1//EN" "http://www.w3.org/Graphics/SVG/1.1/DTD/svg11.dtd">
<svg version="1.1" xmlns="http://www.w3.org/2000/svg" xmlns:xlink="http://www.w3.org/1999/xlink" x="0px" y="0px" width="96px"
	 height="96px" viewBox="0 0 96 96" enable-background="new 0 0 96 96" xml:space="preserve">
<g id="disabled">
	<path fill-opacity="0.1" d="M52.906,9.228l35.763,35.859c2.175,2.18,2.175,5.713,0,7.894L52.971,88.772
		c-2.174,2.181-5.7,2.181-7.874,0L9.333,52.914c-2.177-2.181-2.177-5.714,0-7.894L45.029,9.228
		C47.206,7.047,50.73,7.047,52.906,9.228L52.906,9.228z"/>
	<path fill-rule="evenodd" clip-rule="evenodd" fill="#BEBEBE" d="M51.906,8.228l35.763,35.859c2.175,2.18,2.175,5.713,0,7.894
		L51.971,87.772c-2.174,2.181-5.7,2.181-7.874,0L8.333,51.914c-2.177-2.181-2.177-5.714,0-7.894L44.029,8.228
		C46.206,6.047,49.73,6.047,51.906,8.228L51.906,8.228z"/>
	<path fill-rule="evenodd" clip-rule="evenodd" d="M84.698,51.147L50.963,84.933c-2.085,2.09-4.046,2.09-6.132,0L11.098,51.147
		c-2.086-2.088-2.086-4.051,0-6.141L44.831,11.22c2.086-2.089,4.047-2.089,6.132,0l33.735,33.787
		C86.784,47.097,86.784,49.059,84.698,51.147L84.698,51.147z M81.63,46.542l-32.199-32.25c-0.947-0.95-2.12-0.95-3.067,0
		l-32.199,32.25c-0.948,0.948-0.948,2.121,0,3.07l32.199,32.25c0.947,0.947,2.12,0.947,3.067,0l32.199-32.25
		C82.578,48.663,82.578,47.49,81.63,46.542L81.63,46.542z"/>
	<path fill-rule="evenodd" clip-rule="evenodd" d="M73.964,55.756H60.163c0,0,0.015,4.606-3.065,4.606
		c-3.081,0-4.862-3.533-4.862-3.533l-4.339-1.073l3.066-7.679h7.668l4.601-4.607h6.132l0.828,2.207l-3.71,0.338l0.771,4.249
		l4.236-0.388l-0.257-1.419L73.964,55.756L73.964,55.756z M50.963,41.934l3.068-4.606l3.066,3.071l-4.601,3.071L50.963,41.934
		L50.963,41.934z M46.363,28.113h3.067V43.47h-3.067V28.113L46.363,28.113z M43.297,55.756c0,0-1.52,4.606-4.601,4.606
		c-3.08,0-4.6-4.606-4.6-4.606H23.364l4.259-7.679h6.474l-3.066-3.07h-1.703l1.703-3.073h1.534l4.355,6.399l7.911,1.279l1.532,6.144
		H43.297L43.297,55.756z M35.631,37.328l1.533-3.072l7.667,9.214l-1.534,1.537L35.631,37.328L35.631,37.328z"/>
</g>
<g id="normal">
	<path fill-opacity="0.1" d="M52.906,9.228l35.763,35.859c2.175,2.18,2.175,5.713,0,7.894L52.971,88.772
		c-2.174,2.181-5.7,2.181-7.874,0L9.333,52.914c-2.177-2.181-2.177-5.714,0-7.894L45.029,9.228
		C47.206,7.047,50.73,7.047,52.906,9.228L52.906,9.228z"/>
	<path fill-rule="evenodd" clip-rule="evenodd" fill="#FFC000" d="M51.906,8.228l35.763,35.859c2.175,2.18,2.175,5.713,0,7.894
		L51.971,87.772c-2.174,2.181-5.7,2.181-7.874,0L8.333,51.914c-2.177-2.181-2.177-5.714,0-7.894L44.029,8.228
		C46.206,6.047,49.73,6.047,51.906,8.228L51.906,8.228z"/>
	<path fill-rule="evenodd" clip-rule="evenodd" d="M84.698,51.147L50.963,84.933c-2.085,2.09-4.046,2.09-6.132,0L11.098,51.147
		c-2.086-2.088-2.086-4.051,0-6.141L44.831,11.22c2.086-2.089,4.047-2.089,6.132,0l33.735,33.787
		C86.784,47.097,86.784,49.059,84.698,51.147L84.698,51.147z M81.63,46.542l-32.199-32.25c-0.947-0.95-2.12-0.95-3.067,0
		l-32.199,32.25c-0.948,0.948-0.948,2.121,0,3.07l32.199,32.25c0.947,0.947,2.12,0.947,3.067,0l32.199-32.25
		C82.578,48.663,82.578,47.49,81.63,46.542L81.63,46.542z"/>
	<path fill-rule="evenodd" clip-rule="evenodd" d="M73.964,55.756H60.163c0,0,0.015,4.606-3.065,4.606
		c-3.081,0-4.862-3.533-4.862-3.533l-4.339-1.073l3.066-7.679h7.668l4.601-4.607h6.132l0.828,2.207l-3.71,0.338l0.771,4.249
		l4.236-0.388l-0.257-1.419L73.964,55.756L73.964,55.756z M50.963,41.934l3.068-4.606l3.066,3.071l-4.601,3.071L50.963,41.934
		L50.963,41.934z M46.363,28.113h3.067V43.47h-3.067V28.113L46.363,28.113z M43.297,55.756c0,0-1.52,4.606-4.601,4.606
		c-3.08,0-4.6-4.606-4.6-4.606H23.364l4.259-7.679h6.474l-3.066-3.07h-1.703l1.703-3.073h1.534l4.355,6.399l7.911,1.279l1.532,6.144
		H43.297L43.297,55.756z M35.631,37.328l1.533-3.072l7.667,9.214l-1.534,1.537L35.631,37.328L35.631,37.328z"/>
</g>
</svg>
