<?xml version="1.0" encoding="utf-8"?>
<!-- Generator: Adobe Illustrator 17.1.0, SVG Export Plug-In . SVG Version: 6.00 Build 0)  -->
<!DOCTYPE svg PUBLIC "-//W3C//DTD SVG 1.1//EN" "http://www.w3.org/Graphics/SVG/1.1/DTD/svg11.dtd">
<svg version="1.1" id="normal" xmlns="http://www.w3.org/2000/svg" xmlns:xlink="http://www.w3.org/1999/xlink" x="0px" y="0px"
	 viewBox="0 0 66 66" enable-background="new 0 0 66 66" xml:space="preserve">
<path fill-rule="evenodd" clip-rule="evenodd" fill="#FFC71C" d="M35.965,2.263L63.61,29.952c1.682,1.683,1.682,4.412,0,6.095
	L36.017,63.684c-1.68,1.683-4.406,1.683-6.086,0L2.286,35.995c-1.682-1.684-1.682-4.412,0-6.095L29.879,2.263
	C31.559,0.58,34.285,0.58,35.965,2.263L35.965,2.263z"/>
<path d="M61.351,35.358L35.339,61.41c-1.608,1.61-3.121,1.61-4.73,0L4.598,35.358c-1.609-1.61-1.609-3.125,0-4.736L30.609,4.571
	c1.609-1.612,3.121-1.612,4.73,0l26.012,26.052C62.959,32.233,62.959,33.748,61.351,35.358L61.351,35.358z M58.986,31.806
	L34.157,6.938c-0.73-0.73-1.636-0.73-2.366,0L6.962,31.806c-0.73,0.732-0.73,1.637,0,2.369l24.829,24.866
	c0.73,0.732,1.635,0.732,2.366,0l24.829-24.866C59.716,33.443,59.716,32.538,58.986,31.806L58.986,31.806z"/>
<path d="M36.521,36.542c0,2.33-1.223,4.738-3.546,4.738c-2.325,0-3.548-2.408-3.548-4.738l-1.182-18.946
	c0-2.328,2.405-4.736,4.73-4.736c2.324,0,4.728,2.408,4.728,4.736L36.521,36.542L36.521,36.542z M32.959,52.733
	c-2.677,0-4.847-2.174-4.847-4.855c0-2.68,2.17-4.854,4.847-4.854c2.678,0,4.849,2.175,4.849,4.854
	C37.809,50.56,35.638,52.733,32.959,52.733L32.959,52.733z"/>
</svg>
