<?xml version="1.0" encoding="utf-8"?>
<!-- Generator: Adobe Illustrator 16.2.0, SVG Export Plug-In . SVG Version: 6.00 Build 0)  -->
<!DOCTYPE svg PUBLIC "-//W3C//DTD SVG 1.1//EN" "http://www.w3.org/Graphics/SVG/1.1/DTD/svg11.dtd">
<svg version="1.1" id="normal" xmlns="http://www.w3.org/2000/svg" xmlns:xlink="http://www.w3.org/1999/xlink" x="0px" y="0px"
	 width="66px" height="66px" viewBox="0 0 66 66" enable-background="new 0 0 66 66" xml:space="preserve">
<path fill="#F89934" d="M57.727,40.934c-3.574-6.192-9.423-16.326-12.998-22.518l-5.156-8.931c-3.575-6.192-9.425-6.192-13,0
	l-5.156,8.931c-3.575,6.192-9.424,16.325-12.999,22.518l-5.16,8.939C-0.316,56.065,2.61,61.132,9.76,61.132h10.313
	c7.15,0,18.85,0,26,0h10.313c7.15,0,10.076-5.066,6.502-11.259L57.727,40.934z"/>
<path d="M54.497,39.253c-2.75-4.764-7.249-12.558-9.999-17.321l-6.426-11.129c-2.75-4.763-7.25-4.763-10,0l-6.425,11.129
	c-2.75,4.763-7.25,12.557-9.999,17.321L5.22,50.391c-2.75,4.764-0.499,8.661,5.001,8.661h12.851c5.5,0,14.5,0,20,0h12.852
	c5.5,0,7.751-3.897,5.001-8.661L54.497,39.253z"/>
<path fill="#F89934" d="M33.822,11.718c3.578,6.207,20.434,34.877,24.37,41.708c0.396,0.69-0.047,1.426-0.744,1.426
	c-7.688,0-41.412,0-48.822,0c-0.738,0-1.013-0.743-0.61-1.445c3.941-6.833,20.62-35.283,24.308-41.68
	C32.725,11.036,33.386,10.96,33.822,11.718L33.822,11.718z"/>
<path d="M10.313,52.911l1.409-2.153l7.779-0.148c0,0,0.667-3.788,1.187-6.017c0.519-2.229,1.187-4.458,2.076-5.646
	s1.779-1.707,2.15-2.377c0.371-0.667,0.371-1.113,0.371-1.113s-1.111-0.891-1.409-1.114c-0.295-0.224-0.963-0.224-1.038-1.188
	c-0.074-0.966,1.335-2.155,2.076-2.452c0.743-0.297,2.077-1.188,3.19-1.188c1.112,0,2.003-0.074,2.522,0.297
	c0.519,0.372,1.853,1.264,1.853,1.858c0,0.594,0,1.931,0.224,2.525c0.222,0.594,0.963,1.857,1.187,2.674
	c0.223,0.817,0.741,2.748,0.741,2.748l2.374,2.08h3.41c0,0,0.668-0.297,0.594-0.594c-0.074-0.298-1.113-0.743-1.038-1.783
	c0.074-1.039,0.89-1.337,1.336-1.561c0.443-0.222,1.631-0.297,1.853-1.188c0.224-0.891,0.297-2.004,0.594-2.376
	c0.298-0.371,0.365-0.67,0.662-0.818S55.688,53.06,55.688,53.06L10.313,52.911L10.313,52.911z M27.214,31.816
	c-0.075-0.372-0.816,0.073-1.113,0.148c-0.295,0.073-0.444,0.816-0.444,0.816l0.593,1.041c0,0,1.039-0.744,1.039-1.041
	C27.288,32.484,27.288,32.187,27.214,31.816L27.214,31.816z M28.326,46.227c0-1.485,0-3.416,0-3.416s-1.409-1.784-1.928-1.636
	c-0.519,0.15-1.409,1.264-1.706,1.933c-0.297,0.668-0.519,2.45-0.965,3.044c-0.444,0.595-2.15,4.161-2.15,4.161l6.824,0.073
	C28.401,50.386,28.326,47.712,28.326,46.227L28.326,46.227z M31.737,36.867c-0.148-0.52-0.297-0.446-0.816-1.04
	c-0.519-0.595-0.519,0.075-0.668,0.445c-0.147,0.372,0,1.264,0,1.264l1.706,1.337C31.959,38.873,31.886,37.388,31.737,36.867
	L31.737,36.867z M39.524,45.112c-0.444-0.446-2.001-1.856-2.001-1.856l-7.046-4.234l-0.297,0.892c0,0,0.816,0.891,0.816,1.262
	c0,0.372,0.371,3.491,0.222,4.755c-0.148,1.262-0.667,4.383-0.667,4.383l1.409,0.222c0,0,0.743-1.782,1.557-1.857
	c0.816-0.073,1.188,0.075,1.188,0.075s-0.593-1.412,0.224-1.931c0.814-0.521,1.704-1.635,2.223-1.485
	c0.521,0.148,2.598,0.594,2.598,0.594S39.97,45.558,39.524,45.112L39.524,45.112z M32.924,30.107c-1.434,0-2.595-1.164-2.595-2.599
	c0-1.437,1.162-2.6,2.595-2.6c1.435,0,2.596,1.163,2.596,2.6C35.52,28.944,34.358,30.107,32.924,30.107L32.924,30.107z"/>
<path fill="none" d="M34.837,14.954c3.145,5.454,17.957,30.65,21.417,36.653c0.35,0.605-0.04,1.251-0.653,1.251
	c-6.758,0-36.389,0-42.9,0c-0.649,0-0.891-0.652-0.536-1.269c3.463-6.006,18.12-31.007,21.359-36.628
	C33.874,14.355,34.454,14.288,34.837,14.954L34.837,14.954z"/>
</svg>
