<?xml version="1.0" encoding="utf-8"?>
<!-- Generator: Adobe Illustrator 16.2.0, SVG Export Plug-In . SVG Version: 6.00 Build 0)  -->
<!DOCTYPE svg PUBLIC "-//W3C//DTD SVG 1.1//EN" "http://www.w3.org/Graphics/SVG/1.1/DTD/svg11.dtd">
<svg version="1.1" id="normal" xmlns="http://www.w3.org/2000/svg" xmlns:xlink="http://www.w3.org/1999/xlink" x="0px" y="0px"
	 width="66px" height="66px" viewBox="0 0 66 66" enable-background="new 0 0 66 66" xml:space="preserve">
<path fill-rule="evenodd" clip-rule="evenodd" fill="#FFC71C" d="M35.965,2.263L63.61,29.952c1.682,1.683,1.682,4.412,0,6.095
	L36.017,63.684c-1.68,1.683-4.406,1.683-6.086,0L2.286,35.995c-1.682-1.684-1.682-4.412,0-6.095L29.879,2.263
	C31.559,0.58,34.285,0.58,35.965,2.263L35.965,2.263z"/>
<path d="M61.351,35.358L35.339,61.41c-1.608,1.61-3.121,1.61-4.729,0L4.598,35.358c-1.609-1.61-1.609-3.125,0-4.736L30.609,4.571
	c1.609-1.612,3.121-1.612,4.729,0l26.012,26.052C62.959,32.233,62.959,33.748,61.351,35.358L61.351,35.358z M58.986,31.806
	L34.157,6.938c-0.73-0.73-1.636-0.73-2.366,0L6.962,31.806c-0.73,0.732-0.73,1.637,0,2.369l24.829,24.866
	c0.73,0.732,1.635,0.732,2.366,0l24.829-24.866C59.716,33.443,59.716,32.538,58.986,31.806L58.986,31.806z"/>
<path d="M29.646,26.434h6.531c0.119-0.335,0.194-0.809,0.194-1.497c0-1.507-0.139-1.706-0.269-1.929
	c-0.129-0.224-0.479-0.479-0.479-0.479l-1.448-3.401c-0.3-0.645-1.185-0.984-1.57-0.984h-7.097c-0.386,0-1.271,0.339-1.572,0.984
	l-1.446,3.401c0,0-0.352,0.255-0.48,0.479s-0.268,0.422-0.268,1.929c0,1.472,0.335,1.994,0.738,2.175l0.317,0.156v1.365
	c0,0.444,0.119,0.575,0.599,0.575h1.074c0.479,0,0.599-0.131,0.599-0.575v-1.365h3.117C28.548,26.73,29.295,26.434,29.646,26.434z
	 M33.575,25.646c-0.515,0-0.933-0.377-0.933-0.84s0.418-0.839,0.933-0.839c0.517,0,0.936,0.376,0.936,0.839
	S34.092,25.646,33.575,25.646z M23.315,22.294c0.067-0.216,1.022-2.352,1.223-2.937c0.082-0.203,0.544-0.666,1.167-0.631h6.705
	c0.624-0.035,1.085,0.428,1.166,0.631c0.202,0.585,1.155,2.721,1.225,2.937c0.08,0.257-0.185,0.235-0.185,0.235H23.5
	C23.5,22.529,23.233,22.551,23.315,22.294z M24.574,25.646c-0.515,0-0.934-0.377-0.934-0.84s0.419-0.839,0.934-0.839
	c0.514,0,0.933,0.376,0.933,0.839S25.088,25.646,24.574,25.646z"/>
<path d="M40.241,31.296c-0.128-0.224-0.479-0.479-0.479-0.479l-1.448-3.399c-0.3-0.644-1.185-0.985-1.571-0.985h-7.097
	c-0.385,0-1.27,0.341-1.57,0.985l-1.448,3.399c0,0-0.35,0.255-0.478,0.479c-0.128,0.224-0.269,0.422-0.269,1.931
	c0,1.47,0.336,1.991,0.738,2.173l0.317,0.158v1.365c0,0.442,0.121,0.573,0.599,0.573h1.074c0.48,0,0.599-0.131,0.599-0.573v-1.365
	h3.034l0.363-1.748c0.354-0.759,1.395-1.157,1.848-1.157h2.488c0.166-0.234,0.443-0.399,0.774-0.399c0.33,0,0.607,0.165,0.773,0.399
	h2.013C40.469,31.667,40.351,31.487,40.241,31.296z M28.711,33.936c-0.515,0-0.934-0.379-0.934-0.842
	c0-0.462,0.419-0.839,0.934-0.839s0.934,0.377,0.934,0.839C29.645,33.557,29.226,33.936,28.711,33.936z M27.637,31.016
	c0,0,0.422-1.367,1.04-3.173c0.081-0.202,0.542-0.665,1.166-0.63h6.705c0.622-0.035,1.085,0.428,1.167,0.63
	c0.617,1.806,1.038,3.173,1.038,3.173H27.637z"/>
<path d="M47.162,38.911c-0.15-0.263-1.183-1.184-1.183-1.184l-1.321-3.917c-0.354-0.759-1.395-1.157-1.848-1.157h-8.358
	c-0.453,0-1.494,0.398-1.848,1.157l-0.813,3.917c0,0-1.182,0.88-1.182,1.184c0,1.184,0,0.593,0,2.369c0,1.73,0,1.184,0,2.367h1.182
	v1.185c0,0.521,0.619,1.184,1.184,1.184c0.563,0,1.182-0.662,1.182-1.184v-1.185h9.458v1.185c0,0.521,0.618,1.184,1.183,1.184
	s1.182-0.662,1.182-1.184v-1.185h1.183c0,0,0-0.637,0-2.367C47.162,39.504,47.313,39.174,47.162,38.911z M34.011,33.804h9.458
	l1.183,3.553H32.828L34.011,33.804z M33.352,41.484c-0.606,0-1.099-0.443-1.099-0.989c0-0.544,0.493-0.988,1.099-0.988
	c0.607,0,1.1,0.444,1.1,0.988C34.451,41.041,33.959,41.484,33.352,41.484z M43.952,41.484c-0.605,0-1.1-0.443-1.1-0.989
	c0-0.544,0.494-0.988,1.1-0.988c0.606,0,1.101,0.444,1.101,0.988C45.053,41.041,44.559,41.484,43.952,41.484z"/>
</svg>
