<?xml version="1.0" encoding="utf-8"?>
<!-- Generator: Adobe Illustrator 16.2.0, SVG Export Plug-In . SVG Version: 6.00 Build 0)  -->
<!DOCTYPE svg PUBLIC "-//W3C//DTD SVG 1.1//EN" "http://www.w3.org/Graphics/SVG/1.1/DTD/svg11.dtd">
<svg version="1.1" id="normal" xmlns="http://www.w3.org/2000/svg" xmlns:xlink="http://www.w3.org/1999/xlink" x="0px" y="0px"
	 width="66px" height="66px" viewBox="0 0 66 66" enable-background="new 0 0 66 66" xml:space="preserve">
<path fill-rule="evenodd" clip-rule="evenodd" fill="#FFC71C" d="M35.965,2.263L63.61,29.952c1.682,1.683,1.682,4.412,0,6.095
	L36.017,63.684c-1.68,1.683-4.406,1.683-6.086,0L2.286,35.995c-1.682-1.684-1.682-4.412,0-6.095L29.879,2.263
	C31.559,0.58,34.285,0.58,35.965,2.263L35.965,2.263z"/>
<path d="M61.351,35.358L35.339,61.41c-1.608,1.61-3.121,1.61-4.729,0L4.598,35.358c-1.609-1.61-1.609-3.125,0-4.736L30.609,4.571
	c1.609-1.612,3.121-1.612,4.729,0l26.012,26.052C62.959,32.233,62.959,33.748,61.351,35.358L61.351,35.358z M58.986,31.806
	L34.157,6.938c-0.73-0.73-1.636-0.73-2.366,0L6.962,31.806c-0.73,0.732-0.73,1.637,0,2.369l24.829,24.866
	c0.73,0.732,1.635,0.732,2.366,0l24.829-24.866C59.716,33.443,59.716,32.538,58.986,31.806L58.986,31.806z"/>
<path d="M44.798,41.798l-1.183,0.666v2.368c0,0.735-0.386,1.184-1.182,1.184h-1.183c-0.797,0-1.184-0.448-1.184-1.184v-2.368H27.063
	v2.368c0,0.735-0.386,1.184-1.182,1.184h-1.182c-0.797,0-1.184-0.448-1.184-1.184v-2.368l-1.182-0.518
	c-0.669-0.302-1.182-1.775-1.182-4.219c0-2.509,0.298-2.174,0.511-2.544c0.212-0.373,0.671-1.009,0.671-1.009l2.533-3.649
	c0.499-1.071,2.738-1.088,3.379-1.088h10.641c0.641,0,2.503,0.017,3.002,1.088l2.408,3.862c0,0,0.583,0.423,0.796,0.796
	c0.214,0.37,0.888,0.035,0.888,2.544C45.979,40.171,45.467,41.496,44.798,41.798L44.798,41.798z M25.921,39.65
	c0.857,0,1.553-0.627,1.553-1.396c0-0.771-0.696-1.397-1.553-1.397c-0.855,0-1.553,0.627-1.553,1.397
	C24.369,39.023,25.066,39.65,25.921,39.65L25.921,39.65z M40.89,31.58c-0.136-0.336-0.968-1.015-2.004-0.957H28.245
	c-1.037-0.058-2.247,0.621-2.381,0.957c-0.333,0.974-1.062,2.236-1.165,2.595c-0.124,0.427,1.182,1.184,1.182,1.184h15.37
	c0,0,1.305-0.757,1.183-1.184C42.329,33.815,41.223,32.554,40.89,31.58L40.89,31.58z M40.89,36.856
	c-0.854,0-1.552,0.627-1.552,1.397c0,0.77,0.697,1.396,1.552,1.396c0.857,0,1.553-0.627,1.553-1.396
	C42.442,37.483,41.747,36.856,40.89,36.856L40.89,36.856z M40.067,28.253h-5.91v-2.369h5.91V28.253L40.067,28.253z M38.655,22.701
	l3.778-2.736v2.369l-3.548,1.184L38.655,22.701L38.655,22.701z M31.792,14.043h2.366v8.29l-1.182,1.184L31.792,14.043L31.792,14.043
	z M32.975,28.253h-5.912v-2.369h5.912V28.253L32.975,28.253z M24.205,22.154l0.494-3.373l4.729,3.552l-1.182,1.184L24.205,22.154
	L24.205,22.154z"/>
</svg>
