<?xml version="1.0" encoding="utf-8"?>
<!-- Generator: Adobe Illustrator 16.2.0, SVG Export Plug-In . SVG Version: 6.00 Build 0)  -->
<!DOCTYPE svg PUBLIC "-//W3C//DTD SVG 1.1//EN" "http://www.w3.org/Graphics/SVG/1.1/DTD/svg11.dtd">
<svg version="1.1" xmlns="http://www.w3.org/2000/svg" xmlns:xlink="http://www.w3.org/1999/xlink" x="0px" y="0px" width="96px"
	 height="96px" viewBox="0 0 96 96" enable-background="new 0 0 96 96" xml:space="preserve">
<g id="disabled">
	<g>
		<path fill-opacity="0.1" d="M47.116,11.87L71.06,35.88c1.456,1.459,1.456,3.825,0,5.286L47.159,65.13
			c-1.455,1.46-3.816,1.46-5.271,0L17.941,41.122c-1.458-1.461-1.458-3.828,0-5.287L41.842,11.87
			C43.299,10.41,45.659,10.41,47.116,11.87L47.116,11.87z"/>
		<path fill-rule="evenodd" clip-rule="evenodd" fill="#BEBEBE" d="M46.116,10.87L70.06,34.88c1.456,1.459,1.456,3.825,0,5.286
			L46.159,64.13c-1.455,1.46-3.816,1.46-5.271,0L16.941,40.122c-1.458-1.461-1.458-3.828,0-5.287L40.842,10.87
			C42.299,9.41,44.659,9.41,46.116,10.87L46.116,10.87z"/>
		<path fill-rule="evenodd" clip-rule="evenodd" d="M68.071,39.607L45.485,62.229c-1.396,1.399-2.709,1.399-4.105,0L18.792,39.607
			c-1.396-1.398-1.396-2.713,0-4.113l22.587-22.62c1.396-1.399,2.709-1.399,4.105,0l22.586,22.62
			C69.468,36.895,69.468,38.208,68.071,39.607L68.071,39.607z M66.018,36.523L44.458,14.93c-0.633-0.635-1.419-0.635-2.053,0
			l-21.56,21.594c-0.634,0.636-0.634,1.421,0,2.057l21.56,21.593c0.634,0.634,1.42,0.634,2.053,0l21.56-21.593
			C66.651,37.944,66.651,37.159,66.018,36.523L66.018,36.523z"/>
		<g>
			<path fill-rule="evenodd" clip-rule="evenodd" d="M33.245,34.716c-1.795,0-3.249-1.457-3.249-3.254
				c0-1.798,1.454-3.255,3.249-3.255c1.794,0,3.249,1.457,3.249,3.255C36.494,33.259,35.039,34.716,33.245,34.716L33.245,34.716z"/>
			<path fill-rule="evenodd" clip-rule="evenodd" d="M37.652,32.854c-1.87,0-3.388-1.52-3.388-3.393
				c0-1.874,1.518-3.393,3.388-3.393c1.871,0,3.387,1.519,3.387,3.393C41.039,31.335,39.523,32.854,37.652,32.854L37.652,32.854z"/>
			<path fill-rule="evenodd" clip-rule="evenodd" d="M40.993,30.531c-0.846,0-1.531-0.687-1.531-1.534s0.686-1.533,1.531-1.533
				s1.531,0.686,1.531,1.533S41.838,30.531,40.993,30.531L40.993,30.531z"/>
			<path fill-rule="evenodd" clip-rule="evenodd" d="M38.441,39.92c-2.512,0-4.548-2.04-4.548-4.556
				c0-2.514,2.036-4.554,4.548-4.554s4.546,2.04,4.546,4.554C42.987,37.88,40.953,39.92,38.441,39.92L38.441,39.92z"/>
			<path fill-rule="evenodd" clip-rule="evenodd" d="M42.014,34.807c-1.514,0-2.739-1.227-2.739-2.741s1.226-2.742,2.739-2.742
				c1.511,0,2.736,1.228,2.736,2.742S43.525,34.807,42.014,34.807L42.014,34.807z"/>
			<path fill-rule="evenodd" clip-rule="evenodd" d="M44.983,32.763c-0.794,0-1.438-0.645-1.438-1.44s0.645-1.441,1.438-1.441
				c0.796,0,1.439,0.646,1.439,1.441S45.779,32.763,44.983,32.763L44.983,32.763z"/>
			<path fill-rule="evenodd" clip-rule="evenodd" d="M47.535,32.668c-2.357,0-4.269-1.914-4.269-4.276
				c0-2.36,1.911-4.274,4.269-4.274c2.357,0,4.268,1.914,4.268,4.274C51.803,30.754,49.892,32.668,47.535,32.668L47.535,32.668z"/>
			<path fill-rule="evenodd" clip-rule="evenodd" d="M43.777,38.71c-2.384,0-4.315-1.935-4.315-4.321s1.932-4.321,4.315-4.321
				c2.382,0,6.399,1.32,6.399,3.706C50.176,36.161,46.159,38.71,43.777,38.71L43.777,38.71z"/>
			<path fill-rule="evenodd" clip-rule="evenodd" d="M48.881,38.435c-1.256,0-2.275-1.021-2.275-2.277
				c0-1.259,1.019-2.278,2.275-2.278c1.256,0,2.273,1.02,2.273,2.278C51.154,37.414,50.137,38.435,48.881,38.435L48.881,38.435z"/>
			<path fill-rule="evenodd" clip-rule="evenodd" d="M52.035,37.131c-1.922,0-3.479-1.561-3.479-3.485s1.558-3.485,3.479-3.485
				s3.48,1.561,3.48,3.485S53.957,37.131,52.035,37.131L52.035,37.131z"/>
			<path fill-rule="evenodd" clip-rule="evenodd" d="M54.6,38.435c-1.256,0-2.274-1.021-2.274-2.277
				c0-1.259,1.019-2.278,2.274-2.278s2.274,1.02,2.274,2.278C56.874,37.414,55.855,38.435,54.6,38.435L54.6,38.435z"/>
		</g>
	</g>
	<g>
		<path fill-opacity="0.1" d="M66.115,23.87L90.06,47.88c1.456,1.459,1.456,3.825,0,5.286L66.158,77.13
			c-1.455,1.46-3.816,1.46-5.271,0L36.941,53.122c-1.458-1.461-1.458-3.827,0-5.287l23.9-23.965
			C62.299,22.41,64.658,22.41,66.115,23.87L66.115,23.87z"/>
		<path fill-rule="evenodd" clip-rule="evenodd" fill="#BEBEBE" d="M65.115,22.87L89.06,46.88c1.456,1.459,1.456,3.825,0,5.286
			L65.158,76.13c-1.455,1.46-3.816,1.46-5.271,0L35.941,52.122c-1.458-1.461-1.458-3.827,0-5.287l23.9-23.965
			C61.299,21.41,63.658,21.41,65.115,22.87L65.115,22.87z"/>
		<path fill-rule="evenodd" clip-rule="evenodd" d="M87.071,51.607L64.484,74.229c-1.396,1.399-2.709,1.399-4.105,0L37.792,51.607
			c-1.396-1.398-1.396-2.713,0-4.113l22.587-22.62c1.396-1.399,2.709-1.399,4.105,0l22.587,22.62
			C88.468,48.895,88.468,50.208,87.071,51.607L87.071,51.607z M85.018,48.523L63.457,26.93c-0.633-0.635-1.419-0.635-2.053,0
			L39.845,48.523c-0.634,0.636-0.634,1.421,0,2.057l21.559,21.593c0.634,0.634,1.42,0.634,2.053,0L85.018,50.58
			C85.651,49.944,85.651,49.159,85.018,48.523L85.018,48.523z"/>
		<path fill-rule="evenodd" clip-rule="evenodd" d="M49.111,45.363v9.175h26.467v-9.175H49.111z M74.914,53.874
			c-1.23,0-23.908,0-25.138,0c0-1.054,0-6.793,0-7.847c1.229,0,23.907,0,25.138,0C74.914,47.081,74.914,52.82,74.914,53.874z"/>
		<g>
			<polygon points="52.17,54.538 55.857,54.538 64.676,45.363 60.99,45.363 			"/>
			<polygon points="72.213,45.363 68.526,45.363 59.706,54.538 63.393,54.538 			"/>
			<polygon points="49.111,49.753 49.111,53.586 57.019,45.363 53.332,45.363 			"/>
			<polygon points="71.051,54.538 75.578,49.829 75.578,45.994 67.364,54.538 			"/>
		</g>
	</g>
	<g>
		<path fill-opacity="0.1" d="M37.116,32.87L61.06,56.88c1.456,1.459,1.456,3.825,0,5.286l-23.9,23.964
			c-1.456,1.46-3.816,1.46-5.271,0L7.941,62.122c-1.458-1.461-1.458-3.828,0-5.287L31.842,32.87
			C33.299,31.41,35.659,31.41,37.116,32.87L37.116,32.87z"/>
		<path fill-rule="evenodd" clip-rule="evenodd" fill="#BEBEBE" d="M36.116,31.87L60.06,55.88c1.456,1.459,1.456,3.825,0,5.286
			l-23.9,23.964c-1.456,1.46-3.816,1.46-5.271,0L6.941,61.122c-1.458-1.461-1.458-3.828,0-5.287L30.842,31.87
			C32.299,30.41,34.659,30.41,36.116,31.87L36.116,31.87z"/>
		<path fill-rule="evenodd" clip-rule="evenodd" d="M58.071,60.607L35.485,83.229c-1.397,1.399-2.709,1.399-4.105,0L8.792,60.607
			c-1.396-1.398-1.396-2.713,0-4.113l22.587-22.62c1.396-1.399,2.708-1.399,4.105,0l22.586,22.62
			C59.468,57.895,59.468,59.208,58.071,60.607L58.071,60.607z M56.018,57.523L34.458,35.93c-0.634-0.635-1.419-0.635-2.053,0
			l-21.56,21.594c-0.634,0.636-0.634,1.421,0,2.057l21.56,21.593c0.634,0.634,1.419,0.634,2.053,0l21.56-21.593
			C56.651,58.944,56.651,58.159,56.018,57.523L56.018,57.523z"/>
		<path fill-rule="evenodd" clip-rule="evenodd" d="M45.961,61.56c-0.151-0.263-0.502-0.798-0.502-0.798l-1.701-3.994l0,0
			c-0.353-0.756-1.515-0.531-1.967-0.531H33.65c-0.452,0-1.561-0.225-1.913,0.531l-1.701,3.994c0,0-0.434,0.535-0.584,0.798
			c-0.149,0.263,0,0.591,0,2.361c0,1.727,0.1,2.009,0.573,2.222l0.573,0.284l0.033,1.037c0,0.521,0.422,1,0.985,1l0,0
			c0.562,0,1.018-0.498,1.018-1.02v-1.018h10.175v1.018c0,0.521,0.454,1.02,1.016,1.02l0,0c0.562,0,1.018-0.498,1.018-1.02v-1.018
			l0.627-0.284c0.472-0.213,0.491-0.495,0.491-2.222C45.961,62.15,46.112,61.822,45.961,61.56L45.961,61.56z M32.481,64.422
			c-0.604,0-1.096-0.443-1.096-0.986c0-0.545,0.492-0.988,1.096-0.988c0.605,0,1.097,0.443,1.097,0.988
			C33.579,63.979,33.086,64.422,32.481,64.422L32.481,64.422z M43.054,64.422c-0.604,0-1.096-0.443-1.096-0.986
			c0-0.545,0.492-0.988,1.096-0.988c0.605,0,1.097,0.443,1.097,0.988C44.151,63.979,43.659,64.422,43.054,64.422L43.054,64.422z
			 M43.825,60.312H31.616c0,0-0.095-0.718,0-1.019c0.079-0.255,0.781-1.351,1.018-2.038c1.016,0,0.284-0.041,1.016,0h7.124
			c0.732-0.041,1.018,0,2.036,0c0.235,0.688,0.937,1.783,1.016,2.038C43.92,59.594,43.825,60.312,43.825,60.312L43.825,60.312z"/>
		<path fill-rule="evenodd" clip-rule="evenodd" d="M37.29,50.127c-0.129-0.222-0.478-0.478-0.478-0.478l-1.443-3.39h-0.001
			c-0.299-0.644-0.813-1.234-1.197-1.234h-7.444c-0.384,0-1.269,0.591-1.568,1.234l-1.443,3.39c0,0-0.35,0.256-0.478,0.478
			c-0.127,0.223-0.267,0.421-0.267,1.925c0,1.467,0.188,2.24,0.588,2.422h1.18v1.181c0,0.441,0.702,1.182,1.18,1.182l0,0
			c0.478,0,1.178-0.74,1.178-1.182v-1.181h5.896v1.181c0,0.441,0.702,1.182,1.18,1.182l0,0c0.476,0,1.178-0.74,1.178-1.182v-1.181
			h1.18c0.402-0.182,1.029-0.955,1.029-2.422C37.556,50.548,37.417,50.35,37.29,50.127L37.29,50.127z M25.79,52.759
			c-0.513,0-0.931-0.377-0.931-0.839s0.418-0.837,0.931-0.837c0.515,0,0.932,0.375,0.932,0.837S26.305,52.759,25.79,52.759
			L25.79,52.759z M34.77,52.759c-0.515,0-0.932-0.377-0.932-0.839s0.417-0.837,0.932-0.837c0.513,0,0.931,0.375,0.931,0.837
			S35.282,52.759,34.77,52.759L34.77,52.759z M35.348,49.749H24.736c0,0-0.281-0.076-0.2-0.333c0.067-0.215,1.02-2.344,1.22-2.93
			c0.081-0.2,0.718-0.314,1.338-0.279h5.896c0.622-0.035,1.697,0.079,1.778,0.279c0.202,0.586,1.153,2.715,1.221,2.93
			C36.07,49.673,35.348,49.749,35.348,49.749L35.348,49.749z"/>
	</g>
</g>
<g id="normal">
	<g>
		<path fill-opacity="0.1" d="M47.116,11.87L71.06,35.88c1.456,1.459,1.456,3.825,0,5.286L47.159,65.13
			c-1.455,1.46-3.816,1.46-5.271,0L17.941,41.122c-1.458-1.461-1.458-3.828,0-5.287L41.842,11.87
			C43.299,10.41,45.659,10.41,47.116,11.87L47.116,11.87z"/>
		<path fill-rule="evenodd" clip-rule="evenodd" fill="#FFC000" d="M46.116,10.87L70.06,34.88c1.456,1.459,1.456,3.825,0,5.286
			L46.159,64.13c-1.455,1.46-3.816,1.46-5.271,0L16.941,40.122c-1.458-1.461-1.458-3.828,0-5.287L40.842,10.87
			C42.299,9.41,44.659,9.41,46.116,10.87L46.116,10.87z"/>
		<path fill-rule="evenodd" clip-rule="evenodd" d="M68.071,39.607L45.485,62.229c-1.396,1.399-2.709,1.399-4.105,0L18.792,39.607
			c-1.396-1.398-1.396-2.713,0-4.113l22.587-22.62c1.396-1.399,2.709-1.399,4.105,0l22.586,22.62
			C69.468,36.895,69.468,38.208,68.071,39.607L68.071,39.607z M66.018,36.523L44.458,14.93c-0.633-0.635-1.419-0.635-2.053,0
			l-21.56,21.594c-0.634,0.636-0.634,1.421,0,2.057l21.56,21.593c0.634,0.634,1.42,0.634,2.053,0l21.56-21.593
			C66.651,37.944,66.651,37.159,66.018,36.523L66.018,36.523z"/>
		<g>
			<path fill-rule="evenodd" clip-rule="evenodd" d="M33.245,34.716c-1.795,0-3.249-1.457-3.249-3.254
				c0-1.798,1.454-3.255,3.249-3.255c1.794,0,3.249,1.457,3.249,3.255C36.494,33.259,35.039,34.716,33.245,34.716L33.245,34.716z"/>
			<path fill-rule="evenodd" clip-rule="evenodd" d="M37.652,32.854c-1.87,0-3.388-1.52-3.388-3.393
				c0-1.874,1.518-3.393,3.388-3.393c1.871,0,3.387,1.519,3.387,3.393C41.039,31.335,39.523,32.854,37.652,32.854L37.652,32.854z"/>
			<path fill-rule="evenodd" clip-rule="evenodd" d="M40.993,30.531c-0.846,0-1.531-0.687-1.531-1.534s0.686-1.533,1.531-1.533
				s1.531,0.686,1.531,1.533S41.838,30.531,40.993,30.531L40.993,30.531z"/>
			<path fill-rule="evenodd" clip-rule="evenodd" d="M38.441,39.92c-2.512,0-4.548-2.04-4.548-4.556
				c0-2.514,2.036-4.554,4.548-4.554s4.546,2.04,4.546,4.554C42.987,37.88,40.953,39.92,38.441,39.92L38.441,39.92z"/>
			<path fill-rule="evenodd" clip-rule="evenodd" d="M42.014,34.807c-1.514,0-2.739-1.227-2.739-2.741s1.226-2.742,2.739-2.742
				c1.511,0,2.736,1.228,2.736,2.742S43.525,34.807,42.014,34.807L42.014,34.807z"/>
			<path fill-rule="evenodd" clip-rule="evenodd" d="M44.983,32.763c-0.794,0-1.438-0.645-1.438-1.44s0.645-1.441,1.438-1.441
				c0.796,0,1.439,0.646,1.439,1.441S45.779,32.763,44.983,32.763L44.983,32.763z"/>
			<path fill-rule="evenodd" clip-rule="evenodd" d="M47.535,32.668c-2.357,0-4.269-1.914-4.269-4.276
				c0-2.36,1.911-4.274,4.269-4.274c2.357,0,4.268,1.914,4.268,4.274C51.803,30.754,49.892,32.668,47.535,32.668L47.535,32.668z"/>
			<path fill-rule="evenodd" clip-rule="evenodd" d="M43.777,38.71c-2.384,0-4.315-1.935-4.315-4.321s1.932-4.321,4.315-4.321
				c2.382,0,6.399,1.32,6.399,3.706C50.176,36.161,46.159,38.71,43.777,38.71L43.777,38.71z"/>
			<path fill-rule="evenodd" clip-rule="evenodd" d="M48.881,38.435c-1.256,0-2.275-1.021-2.275-2.277
				c0-1.259,1.019-2.278,2.275-2.278c1.256,0,2.273,1.02,2.273,2.278C51.154,37.414,50.137,38.435,48.881,38.435L48.881,38.435z"/>
			<path fill-rule="evenodd" clip-rule="evenodd" d="M52.035,37.131c-1.922,0-3.479-1.561-3.479-3.485s1.558-3.485,3.479-3.485
				s3.48,1.561,3.48,3.485S53.957,37.131,52.035,37.131L52.035,37.131z"/>
			<path fill-rule="evenodd" clip-rule="evenodd" d="M54.6,38.435c-1.256,0-2.274-1.021-2.274-2.277
				c0-1.259,1.019-2.278,2.274-2.278s2.274,1.02,2.274,2.278C56.874,37.414,55.855,38.435,54.6,38.435L54.6,38.435z"/>
		</g>
	</g>
	<g>
		<path fill-opacity="0.1" d="M66.115,23.87L90.06,47.88c1.456,1.459,1.456,3.825,0,5.286L66.158,77.13
			c-1.455,1.46-3.816,1.46-5.271,0L36.941,53.122c-1.458-1.461-1.458-3.827,0-5.287l23.9-23.965
			C62.299,22.41,64.658,22.41,66.115,23.87L66.115,23.87z"/>
		<path fill-rule="evenodd" clip-rule="evenodd" fill="#FFC000" d="M65.115,22.87L89.06,46.88c1.456,1.459,1.456,3.825,0,5.286
			L65.158,76.13c-1.455,1.46-3.816,1.46-5.271,0L35.941,52.122c-1.458-1.461-1.458-3.827,0-5.287l23.9-23.965
			C61.299,21.41,63.658,21.41,65.115,22.87L65.115,22.87z"/>
		<path fill-rule="evenodd" clip-rule="evenodd" d="M87.071,51.607L64.484,74.229c-1.396,1.399-2.709,1.399-4.105,0L37.792,51.607
			c-1.396-1.398-1.396-2.713,0-4.113l22.587-22.62c1.396-1.399,2.709-1.399,4.105,0l22.587,22.62
			C88.468,48.895,88.468,50.208,87.071,51.607L87.071,51.607z M85.018,48.523L63.457,26.93c-0.633-0.635-1.419-0.635-2.053,0
			L39.845,48.523c-0.634,0.636-0.634,1.421,0,2.057l21.559,21.593c0.634,0.634,1.42,0.634,2.053,0L85.018,50.58
			C85.651,49.944,85.651,49.159,85.018,48.523L85.018,48.523z"/>
		<path fill-rule="evenodd" clip-rule="evenodd" d="M49.111,45.363v9.175h26.467v-9.175H49.111z M74.914,53.874
			c-1.23,0-23.908,0-25.138,0c0-1.054,0-6.793,0-7.847c1.229,0,23.907,0,25.138,0C74.914,47.081,74.914,52.82,74.914,53.874z"/>
		<g>
			<polygon points="52.17,54.538 55.857,54.538 64.676,45.363 60.99,45.363 			"/>
			<polygon points="72.213,45.363 68.526,45.363 59.706,54.538 63.393,54.538 			"/>
			<polygon points="49.111,49.753 49.111,53.586 57.019,45.363 53.332,45.363 			"/>
			<polygon points="71.051,54.538 75.578,49.829 75.578,45.994 67.364,54.538 			"/>
		</g>
	</g>
	<g>
		<path fill-opacity="0.1" d="M37.116,32.87L61.06,56.88c1.456,1.459,1.456,3.825,0,5.286l-23.9,23.964
			c-1.456,1.46-3.816,1.46-5.271,0L7.941,62.122c-1.458-1.461-1.458-3.828,0-5.287L31.842,32.87
			C33.299,31.41,35.659,31.41,37.116,32.87L37.116,32.87z"/>
		<path fill-rule="evenodd" clip-rule="evenodd" fill="#FFC000" d="M36.116,31.87L60.06,55.88c1.456,1.459,1.456,3.825,0,5.286
			l-23.9,23.964c-1.456,1.46-3.816,1.46-5.271,0L6.941,61.122c-1.458-1.461-1.458-3.828,0-5.287L30.842,31.87
			C32.299,30.41,34.659,30.41,36.116,31.87L36.116,31.87z"/>
		<path fill-rule="evenodd" clip-rule="evenodd" d="M58.071,60.607L35.485,83.229c-1.397,1.399-2.709,1.399-4.105,0L8.792,60.607
			c-1.396-1.398-1.396-2.713,0-4.113l22.587-22.62c1.396-1.399,2.708-1.399,4.105,0l22.586,22.62
			C59.468,57.895,59.468,59.208,58.071,60.607L58.071,60.607z M56.018,57.523L34.458,35.93c-0.634-0.635-1.419-0.635-2.053,0
			l-21.56,21.594c-0.634,0.636-0.634,1.421,0,2.057l21.56,21.593c0.634,0.634,1.419,0.634,2.053,0l21.56-21.593
			C56.651,58.944,56.651,58.159,56.018,57.523L56.018,57.523z"/>
		<path fill-rule="evenodd" clip-rule="evenodd" d="M45.961,61.56c-0.151-0.263-0.502-0.798-0.502-0.798l-1.701-3.994l0,0
			c-0.353-0.756-1.515-0.531-1.967-0.531H33.65c-0.452,0-1.561-0.225-1.913,0.531l-1.701,3.994c0,0-0.434,0.535-0.584,0.798
			c-0.149,0.263,0,0.591,0,2.361c0,1.727,0.1,2.009,0.573,2.222l0.573,0.284l0.033,1.037c0,0.521,0.422,1,0.985,1l0,0
			c0.562,0,1.018-0.498,1.018-1.02v-1.018h10.175v1.018c0,0.521,0.454,1.02,1.016,1.02l0,0c0.562,0,1.018-0.498,1.018-1.02v-1.018
			l0.627-0.284c0.472-0.213,0.491-0.495,0.491-2.222C45.961,62.15,46.112,61.822,45.961,61.56L45.961,61.56z M32.481,64.422
			c-0.604,0-1.096-0.443-1.096-0.986c0-0.545,0.492-0.988,1.096-0.988c0.605,0,1.097,0.443,1.097,0.988
			C33.579,63.979,33.086,64.422,32.481,64.422L32.481,64.422z M43.054,64.422c-0.604,0-1.096-0.443-1.096-0.986
			c0-0.545,0.492-0.988,1.096-0.988c0.605,0,1.097,0.443,1.097,0.988C44.151,63.979,43.659,64.422,43.054,64.422L43.054,64.422z
			 M43.825,60.312H31.616c0,0-0.095-0.718,0-1.019c0.079-0.255,0.781-1.351,1.018-2.038c1.016,0,0.284-0.041,1.016,0h7.124
			c0.732-0.041,1.018,0,2.036,0c0.235,0.688,0.937,1.783,1.016,2.038C43.92,59.594,43.825,60.312,43.825,60.312L43.825,60.312z"/>
		<path fill-rule="evenodd" clip-rule="evenodd" d="M37.29,50.127c-0.129-0.222-0.478-0.478-0.478-0.478l-1.443-3.39h-0.001
			c-0.299-0.644-0.813-1.234-1.197-1.234h-7.444c-0.384,0-1.269,0.591-1.568,1.234l-1.443,3.39c0,0-0.35,0.256-0.478,0.478
			c-0.127,0.223-0.267,0.421-0.267,1.925c0,1.467,0.188,2.24,0.588,2.422h1.18v1.181c0,0.441,0.702,1.182,1.18,1.182l0,0
			c0.478,0,1.178-0.74,1.178-1.182v-1.181h5.896v1.181c0,0.441,0.702,1.182,1.18,1.182l0,0c0.476,0,1.178-0.74,1.178-1.182v-1.181
			h1.18c0.402-0.182,1.029-0.955,1.029-2.422C37.556,50.548,37.417,50.35,37.29,50.127L37.29,50.127z M25.79,52.759
			c-0.513,0-0.931-0.377-0.931-0.839s0.418-0.837,0.931-0.837c0.515,0,0.932,0.375,0.932,0.837S26.305,52.759,25.79,52.759
			L25.79,52.759z M34.77,52.759c-0.515,0-0.932-0.377-0.932-0.839s0.417-0.837,0.932-0.837c0.513,0,0.931,0.375,0.931,0.837
			S35.282,52.759,34.77,52.759L34.77,52.759z M35.348,49.749H24.736c0,0-0.281-0.076-0.2-0.333c0.067-0.215,1.02-2.344,1.22-2.93
			c0.081-0.2,0.718-0.314,1.338-0.279h5.896c0.622-0.035,1.697,0.079,1.778,0.279c0.202,0.586,1.153,2.715,1.221,2.93
			C36.07,49.673,35.348,49.749,35.348,49.749L35.348,49.749z"/>
	</g>
</g>
</svg>
