<?xml version="1.0" encoding="utf-8"?>
<!-- Generator: Adobe Illustrator 16.2.0, SVG Export Plug-In . SVG Version: 6.00 Build 0)  -->
<!DOCTYPE svg PUBLIC "-//W3C//DTD SVG 1.1//EN" "http://www.w3.org/Graphics/SVG/1.1/DTD/svg11.dtd">
<svg version="1.1" xmlns="http://www.w3.org/2000/svg" xmlns:xlink="http://www.w3.org/1999/xlink" x="0px" y="0px" width="96px"
	 height="96px" viewBox="0 0 96 96" enable-background="new 0 0 96 96" xml:space="preserve">
<g id="disabled">
	
		<radialGradient id="SVGID_1_" cx="-136.4419" cy="-1737.6035" r="26.6293" gradientTransform="matrix(-1.6502 0 0 -0.2075 -177.1563 -277.9141)" gradientUnits="userSpaceOnUse">
		<stop  offset="0.6962" style="stop-color:#000000;stop-opacity:0.25"/>
		<stop  offset="0.8858" style="stop-color:#6F6F6F;stop-opacity:0.0939"/>
		<stop  offset="1" style="stop-color:#AEAEAE;stop-opacity:0"/>
	</radialGradient>
	<path fill="url(#SVGID_1_)" d="M-12.613,82.641c0,3.32,27.129,6.018,60.598,6.018c33.5,0,60.629-2.695,60.629-6.018
		c0-3.324-27.129-6.021-60.629-6.021C14.516,76.619-12.613,79.316-12.613,82.641z"/>
	<path d="M57.807,14.463c-5.47-9.495-14.421-9.494-19.888,0.003L8.386,65.758c-5.467,9.496-0.976,17.264,9.982,17.262l59.012-0.006
		c10.959,0,15.447-7.77,9.977-17.264L57.807,14.463z"/>
	<path fill-rule="evenodd" clip-rule="evenodd" fill="#AAAAAA" d="M18.756,79.781c-4.209,0-7.273-1.291-8.63-3.637
		c-1.356-2.344-0.945-5.646,1.156-9.295l29.14-50.61c2.1-3.648,4.743-5.658,7.441-5.658c2.697,0,5.341,2.009,7.441,5.655
		L84.463,66.84c2.102,3.648,2.514,6.951,1.158,9.299c-1.355,2.344-4.421,3.637-8.633,3.637l-58.227,0.006H18.756z"/>
	<path d="M18.67,77.307c-2.885,0-4.999-0.908-5.952-2.561c-0.952-1.648-0.683-3.932,0.759-6.426l8.215-14.236
		c3.513-6.086,9.262-16.025,12.775-22.099l8.214-14.269c1.439-2.495,3.283-3.87,5.188-3.87c1.905,0,3.746,1.375,5.186,3.871
		l8.231,14.267c3.527,6.075,9.257,16.013,12.752,22.098l8.18,14.234c1.44,2.504,1.705,4.793,0.75,6.445
		c-0.95,1.641-3.049,2.545-5.911,2.545H18.67z"/>
	
		<radialGradient id="SVGID_2_" cx="288.6631" cy="-313.1953" r="29.6996" gradientTransform="matrix(1 0 0 -1 -240.6602 -267.96)" gradientUnits="userSpaceOnUse">
		<stop  offset="0" style="stop-color:#FFFFFF;stop-opacity:0"/>
		<stop  offset="1" style="stop-color:#000000"/>
	</radialGradient>
	<polygon opacity="0.3" fill="url(#SVGID_2_)" enable-background="new    " points="47.992,17.704 16.283,72.768 79.723,72.764 	"/>
	<path fill-rule="evenodd" clip-rule="evenodd" fill="#AAAAAA" d="M78.158,71.941l-60.44-0.012c0,0,0.169-0.289,0.24-0.408
		l12.278-21.158l17.221-29.703c0.001-0.003,0.23-0.375,0.23-0.375c0.09-0.147,0.2-0.339,0.306-0.531
		c0.123,0.271,0.274,0.541,0.414,0.77l0.27,0.438L63.929,47.25c0,0,13.947,24.01,14.34,24.694
		C78.23,71.941,78.188,71.941,78.158,71.941"/>
	<linearGradient id="SVGID_3_" gradientUnits="userSpaceOnUse" x1="32.0195" y1="45.3193" x2="77.246" y2="73.58">
		<stop  offset="0" style="stop-color:#000000"/>
		<stop  offset="0.0357" style="stop-color:#3A3A3A"/>
		<stop  offset="0.0698" style="stop-color:#6B6B6B"/>
		<stop  offset="0.0996" style="stop-color:#8D8D8D"/>
		<stop  offset="0.124" style="stop-color:#A3A3A3"/>
		<stop  offset="0.14" style="stop-color:#AAAAAA"/>
	</linearGradient>
	<path fill="url(#SVGID_3_)" fill-opacity="0.5" d="M78.158,71.941l-60.44-0.012c0,0,0.169-0.289,0.24-0.408l12.278-21.158
		l17.221-29.703c0.001-0.003,0.23-0.375,0.23-0.375c0.09-0.147,0.2-0.339,0.306-0.531c0.123,0.271,0.274,0.541,0.414,0.77
		l0.27,0.438L63.929,47.25c0,0,13.947,24.01,14.34,24.694C78.23,71.941,78.188,71.941,78.158,71.941"/>
	<path d="M39.953,58.402c0,5.994,0,10.75,0,10.75h-4.6c0,0,0-4.795,0-10.75c0-2.57,6.134-6.143,6.134-7.68
		c0-7.582,0-15.356,0-15.356h4.599c0,0,0,7.775,0,15.356C46.086,53.402,39.953,56.865,39.953,58.402L39.953,58.402z M56.819,69.152
		c0,0,0-4.795,0-10.75c0-1.537-6.134-4.971-6.134-7.68c0-7.582,0-15.356,0-15.356h4.602c0,0,0,7.775,0,15.356
		c0,1.537,6.133,5.086,6.133,7.68c0,5.918,0,10.75,0,10.75H56.819L56.819,69.152z"/>
</g>
<g id="normal">
	
		<radialGradient id="SVGID_4_" cx="-136.4419" cy="-1737.6035" r="26.6293" gradientTransform="matrix(-1.6502 0 0 -0.2075 -177.1563 -277.9141)" gradientUnits="userSpaceOnUse">
		<stop  offset="0.6962" style="stop-color:#000000;stop-opacity:0.25"/>
		<stop  offset="0.8858" style="stop-color:#6F6F6F;stop-opacity:0.0939"/>
		<stop  offset="1" style="stop-color:#AEAEAE;stop-opacity:0"/>
	</radialGradient>
	<path fill="url(#SVGID_4_)" d="M-12.613,82.641c0,3.32,27.129,6.018,60.598,6.018c33.5,0,60.629-2.695,60.629-6.018
		c0-3.324-27.129-6.021-60.629-6.021C14.516,76.619-12.613,79.316-12.613,82.641z"/>
	<path d="M57.807,14.463c-5.47-9.495-14.421-9.494-19.888,0.003L8.386,65.758c-5.467,9.496-0.976,17.264,9.982,17.262l59.012-0.006
		c10.959,0,15.447-7.77,9.977-17.264L57.807,14.463z"/>
	<path fill-rule="evenodd" clip-rule="evenodd" fill="#E99D47" d="M18.756,79.781c-4.209,0-7.273-1.291-8.63-3.637
		c-1.356-2.344-0.945-5.646,1.156-9.295l29.14-50.61c2.1-3.648,4.743-5.658,7.441-5.658c2.697,0,5.341,2.009,7.441,5.655
		L84.463,66.84c2.102,3.648,2.514,6.951,1.158,9.299c-1.355,2.344-4.421,3.637-8.633,3.637l-58.227,0.006H18.756z"/>
	<path d="M18.67,77.307c-2.885,0-4.999-0.908-5.952-2.561c-0.952-1.648-0.683-3.932,0.759-6.426l8.215-14.236
		c3.513-6.086,9.262-16.025,12.775-22.099l8.214-14.269c1.439-2.495,3.283-3.87,5.188-3.87c1.905,0,3.746,1.375,5.186,3.871
		l8.231,14.267c3.527,6.075,9.257,16.013,12.752,22.098l8.18,14.234c1.44,2.504,1.705,4.793,0.75,6.445
		c-0.95,1.641-3.049,2.545-5.911,2.545H18.67z"/>
	
		<radialGradient id="SVGID_5_" cx="288.6631" cy="-313.1953" r="29.6996" gradientTransform="matrix(1 0 0 -1 -240.6602 -267.96)" gradientUnits="userSpaceOnUse">
		<stop  offset="0" style="stop-color:#FFFFFF;stop-opacity:0"/>
		<stop  offset="1" style="stop-color:#000000"/>
	</radialGradient>
	<polygon opacity="0.3" fill="url(#SVGID_5_)" enable-background="new    " points="47.992,17.704 16.283,72.768 79.723,72.764 	"/>
	<path fill-rule="evenodd" clip-rule="evenodd" fill="#E99D47" d="M78.158,71.941l-60.44-0.012c0,0,0.169-0.289,0.24-0.408
		l12.278-21.158l17.221-29.703c0.001-0.003,0.23-0.375,0.23-0.375c0.09-0.147,0.2-0.339,0.306-0.531
		c0.123,0.271,0.274,0.541,0.414,0.77l0.27,0.438L63.929,47.25c0,0,13.947,24.01,14.34,24.694
		C78.23,71.941,78.188,71.941,78.158,71.941"/>
	<linearGradient id="SVGID_6_" gradientUnits="userSpaceOnUse" x1="32.0195" y1="45.3193" x2="77.246" y2="73.58">
		<stop  offset="0" style="stop-color:#000000"/>
		<stop  offset="0.0263" style="stop-color:#3C2812"/>
		<stop  offset="0.0561" style="stop-color:#795125"/>
		<stop  offset="0.0835" style="stop-color:#A97234"/>
		<stop  offset="0.1075" style="stop-color:#CC893E"/>
		<stop  offset="0.1272" style="stop-color:#E19845"/>
		<stop  offset="0.14" style="stop-color:#E99D47"/>
	</linearGradient>
	<path fill="url(#SVGID_6_)" fill-opacity="0.5" d="M78.158,71.941l-60.44-0.012c0,0,0.169-0.289,0.24-0.408l12.278-21.158
		l17.221-29.703c0.001-0.003,0.23-0.375,0.23-0.375c0.09-0.147,0.2-0.339,0.306-0.531c0.123,0.271,0.274,0.541,0.414,0.77
		l0.27,0.438L63.929,47.25c0,0,13.947,24.01,14.34,24.694C78.23,71.941,78.188,71.941,78.158,71.941"/>
	<path d="M39.953,58.402c0,5.994,0,10.75,0,10.75h-4.6c0,0,0-4.795,0-10.75c0-2.57,6.134-6.143,6.134-7.68
		c0-7.582,0-15.356,0-15.356h4.599c0,0,0,7.775,0,15.356C46.086,53.402,39.953,56.865,39.953,58.402L39.953,58.402z M56.819,69.152
		c0,0,0-4.795,0-10.75c0-1.537-6.134-4.971-6.134-7.68c0-7.582,0-15.356,0-15.356h4.602c0,0,0,7.775,0,15.356
		c0,1.537,6.133,5.086,6.133,7.68c0,5.918,0,10.75,0,10.75H56.819L56.819,69.152z"/>
</g>
</svg>
