<?xml version="1.0" encoding="utf-8"?>
<!-- Generator: Adobe Illustrator 16.2.0, SVG Export Plug-In . SVG Version: 6.00 Build 0)  -->
<!DOCTYPE svg PUBLIC "-//W3C//DTD SVG 1.1//EN" "http://www.w3.org/Graphics/SVG/1.1/DTD/svg11.dtd">
<svg version="1.1" id="normal" xmlns="http://www.w3.org/2000/svg" xmlns:xlink="http://www.w3.org/1999/xlink" x="0px" y="0px"
	 width="66px" height="66px" viewBox="0 0 66 66" enable-background="new 0 0 66 66" xml:space="preserve">
<path fill="#F89934" d="M57.727,40.934c-3.574-6.192-9.423-16.326-12.998-22.518l-5.156-8.931c-3.575-6.192-9.425-6.192-13,0
	l-5.156,8.931c-3.575,6.192-9.424,16.325-12.999,22.518l-5.16,8.939C-0.316,56.065,2.61,61.132,9.76,61.132h10.313
	c7.15,0,18.85,0,26,0h10.313c7.15,0,10.076-5.066,6.502-11.259L57.727,40.934z"/>
<path d="M54.497,39.253c-2.75-4.764-7.249-12.558-9.999-17.321l-6.426-11.129c-2.75-4.763-7.25-4.763-10,0l-6.425,11.129
	c-2.75,4.763-7.25,12.557-9.999,17.321L5.22,50.391c-2.75,4.764-0.499,8.661,5.001,8.661h12.851c5.5,0,14.5,0,20,0h12.852
	c5.5,0,7.751-3.897,5.001-8.661L54.497,39.253z"/>
<path fill="#F89934" d="M33.822,11.718c3.578,6.207,20.434,34.877,24.37,41.708c0.396,0.69-0.047,1.426-0.744,1.426
	c-7.688,0-41.412,0-48.822,0c-0.738,0-1.013-0.743-0.61-1.445c3.941-6.833,20.62-35.283,24.308-41.68
	C32.725,11.036,33.386,10.96,33.822,11.718L33.822,11.718z"/>
<g>
	<polygon points="24.369,45.646 28.842,45.646 36.111,38.285 31.639,38.285 	"/>
	<polygon points="44.697,38.285 40.225,38.285 32.955,45.646 37.428,45.646 	"/>
	<polygon points="17.853,43.549 17.853,45.646 20.254,45.646 27.524,38.285 23.052,38.285 	"/>
	<polygon points="41.542,45.646 46.016,45.646 48.521,43.109 48.521,38.579 	"/>
	<polygon points="44.672,47.006 40.198,47.006 35.587,51.676 40.06,51.676 	"/>
	<polygon points="48.521,47.256 44.155,51.676 48.521,51.676 	"/>
	<polygon points="18.911,47.006 17.853,47.006 17.853,48.077 	"/>
	<polygon points="36.084,47.006 31.612,47.006 27,51.676 31.472,51.676 	"/>
	<polygon points="27.498,47.006 23.026,47.006 18.414,51.676 22.886,51.676 	"/>
</g>
<g>
	<path d="M17.853,51.676h30.667v-4.67H17.853V51.676z M18.366,47.555h29.657v3.623H18.366V47.555z"/>
	<path d="M17.853,38.285v7.36h30.667v-7.36H17.853z M47.923,45.067H18.371v-6.204h29.552V45.067z"/>
</g>
<path fill="none" d="M34.837,14.954c3.145,5.454,17.957,30.65,21.417,36.653c0.35,0.605-0.04,1.251-0.653,1.251
	c-6.758,0-36.389,0-42.9,0c-0.649,0-0.891-0.652-0.536-1.269c3.463-6.006,18.12-31.007,21.359-36.628
	C33.874,14.355,34.454,14.288,34.837,14.954L34.837,14.954z"/>
</svg>
