<?xml version="1.0" encoding="utf-8"?>
<!-- Generator: Adobe Illustrator 16.2.0, SVG Export Plug-In . SVG Version: 6.00 Build 0)  -->
<!DOCTYPE svg PUBLIC "-//W3C//DTD SVG 1.1//EN" "http://www.w3.org/Graphics/SVG/1.1/DTD/svg11.dtd">
<svg version="1.1" id="normal" xmlns="http://www.w3.org/2000/svg" xmlns:xlink="http://www.w3.org/1999/xlink" x="0px" y="0px"
	 width="66px" height="66px" viewBox="0 0 66 66" enable-background="new 0 0 66 66" xml:space="preserve">
<path fill-rule="evenodd" clip-rule="evenodd" fill="#FF0000" d="M57.727,40.934c-3.574-6.192-9.423-16.326-12.998-22.518
	l-5.156-8.931c-3.575-6.192-9.425-6.192-13,0l-5.156,8.931c-3.575,6.192-9.424,16.325-12.999,22.518l-5.16,8.939
	C-0.316,56.065,2.61,61.132,9.76,61.132h10.313c7.15,0,18.85,0,26,0h10.313c7.15,0,10.076-5.066,6.502-11.259L57.727,40.934z"/>
<path fill="none" d="M54.497,39.253c-2.75-4.764-7.249-12.558-9.999-17.321l-6.426-11.129c-2.75-4.763-7.25-4.763-10,0
	l-6.425,11.129c-2.75,4.763-7.25,12.557-9.999,17.321L5.22,50.391c-2.75,4.764-0.499,8.661,5.001,8.661h12.851c5.5,0,14.5,0,20,0
	h12.852c5.5,0,7.751-3.897,5.001-8.661L54.497,39.253z"/>
<path fill="#FFFFFF" d="M33.852,10.709c3.72,6.452,21.242,36.259,25.335,43.359c0.412,0.718-0.049,1.481-0.773,1.481
	c-7.993,0-43.052,0-50.755,0c-0.768,0-1.054-0.772-0.635-1.502c4.098-7.104,21.436-36.68,25.271-43.33
	C32.71,10,33.397,9.921,33.852,10.709L33.852,10.709z"/>
<path d="M19.529,45.03c-0.166,0.286,0,0.647,0,2.587c0,1.89,0.021,2.199,0.538,2.433l0.754,0.153v1.293
	c0,0.569-0.031,1.249,0.584,1.249h1.222c0.616,0,0.771-0.168,0.771-0.737v-1.756l10.359-0.049v1.293
	c0,0.569,0.068,1.249,0.687,1.249h1.059c0.616,0,0.837-0.68,0.837-1.249v-1.293l0.664-0.153c0.518-0.233,0.627-0.543,0.627-2.433
	c0-1.939,0.166-2.301,0-2.587c-0.164-0.287-0.64-0.874-0.64-0.874l-1.86-4.373c-0.387-0.827-2.169-1.22-2.668-1.22h-7.767
	c-0.496,0-2.367,0.393-2.754,1.22l0,0l-1.862,4.373C20.078,44.156,19.693,44.743,19.529,45.03L19.529,45.03z M34.311,48.164
	c-0.661,0-1.2-0.484-1.2-1.08s0.539-1.081,1.2-1.081c0.663,0,1.201,0.485,1.201,1.081S34.974,48.164,34.311,48.164L34.311,48.164z
	 M22.712,48.164c-0.663,0-1.201-0.484-1.201-1.08s0.538-1.081,1.201-1.081c0.661,0,1.199,0.485,1.199,1.081
	S23.374,48.164,22.712,48.164L22.712,48.164z M22.112,43.737c0,0-0.104-0.963,0-1.295c0.088-0.276,0.343-1.61,0.601-2.365
	c0.104-0.258,1.179-0.265,1.981-0.221h7.767c0.806-0.044,1.791-0.037,1.896,0.221c0.258,0.755,0.604,2.089,0.689,2.365
	c0.104,0.332,0,1.295,0,1.295H22.112L22.112,43.737z"/>
<path d="M29.028,32.511c-0.142,0.244-0.295,0.461-0.295,2.109c0,1.604,0.691,2.453,1.132,2.65h1.298v1.293
	c0,0.484,0.771,1.293,1.297,1.293l0,0c0.525,0,1.295-0.809,1.295-1.293v-1.293h6.456v1.293c0,0.484,0.769,1.293,1.29,1.293l0,0
	c0.523,0,1.292-0.809,1.292-1.293v-1.293h1.292c0.438-0.197,0.644-1.046,0.644-2.65c0-1.648-0.151-1.866-0.292-2.109
	c-0.141-0.244-0.524-0.522-0.524-0.522l-1.581-3.713c-0.326-0.704-1.296-1.35-1.717-1.35h-8.154c-0.424,0-0.989,0.646-1.318,1.35
	h-0.002l-1.588,3.713C29.553,31.988,29.167,32.267,29.028,32.511L29.028,32.511z M41.639,35.393c-0.563,0-1.02-0.411-1.02-0.918
	c0-0.505,0.457-0.918,1.02-0.918s1.021,0.413,1.021,0.918C42.659,34.981,42.201,35.393,41.639,35.393L41.639,35.393z M31.802,35.393
	c-0.565,0-1.027-0.411-1.027-0.918c0-0.505,0.461-0.918,1.027-0.918c0.564,0,1.024,0.413,1.024,0.918
	C32.826,34.981,32.366,35.393,31.802,35.393L31.802,35.393z M31.164,32.098c0,0-0.794-0.084-0.706-0.364
	c0.076-0.236,1.124-2.569,1.344-3.208c0.089-0.221,1.272-0.344,1.954-0.307h6.456c0.681-0.038,1.376,0.086,1.466,0.307
	c0.219,0.64,1.262,2.973,1.336,3.208c0.088,0.28-0.22,0.364-0.22,0.364H31.164L31.164,32.098z"/>
<path fill="none" d="M34.837,14.954c3.145,5.454,17.957,30.65,21.417,36.653c0.35,0.605-0.04,1.251-0.653,1.251
	c-6.758,0-36.389,0-42.9,0c-0.649,0-0.891-0.652-0.536-1.269c3.463-6.006,18.12-31.007,21.359-36.628
	C33.874,14.355,34.454,14.288,34.837,14.954L34.837,14.954z"/>
</svg>
