<?xml version="1.0" encoding="utf-8"?>
<!-- Generator: Adobe Illustrator 16.2.0, SVG Export Plug-In . SVG Version: 6.00 Build 0)  -->
<!DOCTYPE svg PUBLIC "-//W3C//DTD SVG 1.1//EN" "http://www.w3.org/Graphics/SVG/1.1/DTD/svg11.dtd">
<svg version="1.1" id="normal" xmlns="http://www.w3.org/2000/svg" xmlns:xlink="http://www.w3.org/1999/xlink" x="0px" y="0px"
	 width="66px" height="66px" viewBox="0 0 66 66" enable-background="new 0 0 66 66" xml:space="preserve">
<path fill-rule="evenodd" clip-rule="evenodd" fill="#FF0000" d="M57.727,40.934c-3.574-6.192-9.423-16.326-12.998-22.518
	l-5.156-8.931c-3.575-6.192-9.425-6.192-13,0l-5.156,8.931c-3.575,6.192-9.424,16.325-12.999,22.518l-5.16,8.939
	C-0.316,56.065,2.61,61.132,9.76,61.132h10.313c7.15,0,18.85,0,26,0h10.313c7.15,0,10.076-5.066,6.502-11.259L57.727,40.934z"/>
<path fill="none" d="M54.497,39.253c-2.75-4.764-7.249-12.558-9.999-17.321l-6.426-11.129c-2.75-4.763-7.25-4.763-10,0
	l-6.425,11.129c-2.75,4.763-7.25,12.557-9.999,17.321L5.22,50.391c-2.75,4.764-0.499,8.661,5.001,8.661h12.851c5.5,0,14.5,0,20,0
	h12.852c5.5,0,7.751-3.897,5.001-8.661L54.497,39.253z"/>
<path fill="#FFFFFF" d="M33.852,10.709c3.72,6.452,21.242,36.259,25.335,43.359c0.412,0.718-0.049,1.481-0.773,1.481
	c-7.993,0-43.052,0-50.755,0c-0.768,0-1.054-0.772-0.635-1.502c4.098-7.104,21.436-36.68,25.271-43.33
	C32.71,10,33.397,9.921,33.852,10.709L33.852,10.709z"/>
<polygon points="17.056,38.563 49.337,38.563 49.337,51.496 17.056,51.496 17.056,38.563 "/>
<g>
	<polygon fill-rule="evenodd" clip-rule="evenodd" fill="#FFD400" points="36.964,38.914 36.521,38.563 32.583,38.563 
		20.068,51.095 20.575,51.496 24.399,51.496 	"/>
	<polygon fill-rule="evenodd" clip-rule="evenodd" fill="#FFD400" points="49.337,44.627 49.337,39.889 38.148,51.095 
		38.655,51.496 42.479,51.496 	"/>
	<polygon fill-rule="evenodd" clip-rule="evenodd" fill="#FFD400" points="17.056,45.061 17.056,49.798 27.923,38.914 27.48,38.563 
		23.542,38.563 	"/>
	<polygon fill-rule="evenodd" clip-rule="evenodd" fill="#FFD400" points="46.003,38.914 45.561,38.563 41.621,38.563 
		29.108,51.095 29.615,51.496 33.438,51.496 	"/>
</g>
<path d="M17.056,38.563v12.933h32.281V38.563H17.056z M48.412,50.727H17.976V39.433h30.437V50.727z"/>
<path fill="none" d="M34.837,14.954c3.145,5.454,17.957,30.65,21.417,36.653c0.35,0.605-0.04,1.251-0.653,1.251
	c-6.758,0-36.389,0-42.9,0c-0.649,0-0.891-0.652-0.536-1.269c3.463-6.006,18.12-31.007,21.359-36.628
	C33.874,14.355,34.454,14.288,34.837,14.954L34.837,14.954z"/>
</svg>
