<?xml version="1.0" encoding="utf-8"?>
<!-- Generator: Adobe Illustrator 16.2.0, SVG Export Plug-In . SVG Version: 6.00 Build 0)  -->
<!DOCTYPE svg PUBLIC "-//W3C//DTD SVG 1.1//EN" "http://www.w3.org/Graphics/SVG/1.1/DTD/svg11.dtd">
<svg version="1.1" xmlns="http://www.w3.org/2000/svg" xmlns:xlink="http://www.w3.org/1999/xlink" x="0px" y="0px" width="96px"
	 height="96px" viewBox="0 0 96 96" enable-background="new 0 0 96 96" xml:space="preserve">
<g id="disabled">
	
		<radialGradient id="SVGID_1_" cx="-136.4419" cy="-1737.6035" r="26.6293" gradientTransform="matrix(-1.6502 0 0 -0.2075 -177.1563 -277.9141)" gradientUnits="userSpaceOnUse">
		<stop  offset="0.6962" style="stop-color:#000000;stop-opacity:0.25"/>
		<stop  offset="0.8858" style="stop-color:#6F6F6F;stop-opacity:0.0939"/>
		<stop  offset="1" style="stop-color:#AEAEAE;stop-opacity:0"/>
	</radialGradient>
	<path fill="url(#SVGID_1_)" d="M-12.613,82.641c0,3.32,27.129,6.018,60.598,6.018c33.5,0,60.629-2.695,60.629-6.018
		c0-3.324-27.129-6.021-60.629-6.021C14.516,76.619-12.613,79.316-12.613,82.641z"/>
	<path d="M57.807,14.463c-5.47-9.495-14.421-9.494-19.888,0.003L8.386,65.758c-5.467,9.496-0.976,17.264,9.982,17.262l59.012-0.006
		c10.959,0,15.447-7.77,9.977-17.264L57.807,14.463z"/>
	<path fill-rule="evenodd" clip-rule="evenodd" fill="#AAAAAA" d="M18.756,79.781c-4.209,0-7.273-1.291-8.63-3.637
		c-1.356-2.344-0.945-5.646,1.156-9.295l29.14-50.61c2.1-3.648,4.743-5.658,7.441-5.658c2.697,0,5.341,2.009,7.441,5.655
		L84.463,66.84c2.102,3.648,2.514,6.951,1.158,9.299c-1.355,2.344-4.421,3.637-8.633,3.637l-58.227,0.006H18.756z"/>
	<path d="M18.67,77.307c-2.885,0-4.999-0.908-5.952-2.561c-0.952-1.648-0.683-3.932,0.759-6.426l8.215-14.236
		c3.513-6.086,9.262-16.025,12.775-22.099l8.214-14.269c1.439-2.495,3.283-3.87,5.188-3.87c1.905,0,3.746,1.375,5.186,3.871
		l8.231,14.267c3.527,6.075,9.257,16.013,12.752,22.098l8.18,14.234c1.44,2.504,1.705,4.793,0.75,6.445
		c-0.95,1.641-3.049,2.545-5.911,2.545H18.67z"/>
	
		<radialGradient id="SVGID_2_" cx="288.6631" cy="-313.1953" r="29.6996" gradientTransform="matrix(1 0 0 -1 -240.6602 -267.96)" gradientUnits="userSpaceOnUse">
		<stop  offset="0" style="stop-color:#FFFFFF;stop-opacity:0"/>
		<stop  offset="1" style="stop-color:#000000"/>
	</radialGradient>
	<polygon opacity="0.3" fill="url(#SVGID_2_)" enable-background="new    " points="47.992,17.704 16.283,72.768 79.723,72.764 	"/>
	<path fill-rule="evenodd" clip-rule="evenodd" fill="#AAAAAA" d="M78.158,71.941l-60.44-0.012c0,0,0.169-0.289,0.24-0.408
		l12.278-21.158l17.221-29.703c0.001-0.003,0.23-0.375,0.23-0.375c0.09-0.147,0.2-0.339,0.306-0.531
		c0.123,0.271,0.274,0.541,0.414,0.77l0.27,0.438L63.929,47.25c0,0,13.947,24.01,14.34,24.694
		C78.23,71.941,78.188,71.941,78.158,71.941"/>
	<linearGradient id="SVGID_3_" gradientUnits="userSpaceOnUse" x1="32.0195" y1="45.3193" x2="77.246" y2="73.58">
		<stop  offset="0" style="stop-color:#000000"/>
		<stop  offset="0.0357" style="stop-color:#3A3A3A"/>
		<stop  offset="0.0698" style="stop-color:#6B6B6B"/>
		<stop  offset="0.0996" style="stop-color:#8D8D8D"/>
		<stop  offset="0.124" style="stop-color:#A3A3A3"/>
		<stop  offset="0.14" style="stop-color:#AAAAAA"/>
	</linearGradient>
	<path fill="url(#SVGID_3_)" fill-opacity="0.5" d="M78.158,71.941l-60.44-0.012c0,0,0.169-0.289,0.24-0.408l12.278-21.158
		l17.221-29.703c0.001-0.003,0.23-0.375,0.23-0.375c0.09-0.147,0.2-0.339,0.306-0.531c0.123,0.271,0.274,0.541,0.414,0.77
		l0.27,0.438L63.929,47.25c0,0,13.947,24.01,14.34,24.694C78.23,71.941,78.188,71.941,78.158,71.941"/>
	<path d="M66.787,59.938c-0.195-0.342-0.652-1.037-0.652-1.037l-2.211-5.191l0,0c-0.459-0.986-2.682-1.451-3.271-1.451h-9.2
		c-0.589,0-2.704,0.465-3.163,1.451L46.08,58.9c0,0-0.564,0.695-0.759,1.037c-0.197,0.342,0,0.77,0,3.07
		c0,2.246,0.13,2.613,0.745,2.891l0.788,0.182v1.537c0,0.676,0.262,1.482,0.994,1.482h1.258c0.731,0,0.816-0.807,0.816-1.482V66.08
		l12.272,0.059v2.084c0,0.676,0.183,0.877,0.915,0.877h1.449c0.732,0,0.695-0.807,0.695-1.482V66.08l0.896-0.182
		c0.615-0.277,0.639-0.645,0.639-2.891C66.787,60.707,66.982,60.279,66.787,59.938L66.787,59.938z M49.26,63.66
		c-0.786,0-1.426-0.576-1.426-1.283s0.64-1.283,1.426-1.283s1.426,0.576,1.426,1.283S50.046,63.66,49.26,63.66L49.26,63.66z
		 M63.006,63.66c-0.784,0-1.424-0.576-1.424-1.283s0.64-1.283,1.424-1.283c0.788,0,1.427,0.576,1.427,1.283
		S63.794,63.66,63.006,63.66L63.006,63.66z M63.72,58.402H48.387c0,0-0.124-1.145,0-1.535c0.104-0.332,0.513-1.916,0.819-2.811
		c0.124-0.307,1.296-0.314,2.247-0.262h9.2c0.952-0.053,2.229-0.045,2.353,0.262c0.307,0.895,0.61,2.479,0.714,2.811
		C63.843,57.258,63.72,58.402,63.72,58.402L63.72,58.402z"/>
	<path d="M55.51,45.072c-0.165-0.291-0.621-0.621-0.621-0.621l-1.877-4.41l0,0c-0.389-0.835-1.059-1.604-1.559-1.604h-9.678
		c-0.5,0-1.651,0.769-2.041,1.604l-1.877,4.41c0,0-0.456,0.33-0.623,0.621c-0.165,0.289-0.348,0.547-0.348,2.502
		c0,1.906,0.245,2.914,0.766,3.148h1.534v1.535c0,0.576,0.912,1.537,1.534,1.537l0,0c0.621,0,1.533-0.961,1.533-1.537v-1.535h7.668
		v1.535c0,0.576,0.911,1.537,1.532,1.537l0,0c0.621,0,1.533-0.961,1.533-1.537v-1.535h1.534c0.521-0.234,1.339-1.242,1.339-3.148
		C55.859,45.619,55.677,45.36,55.51,45.072L55.51,45.072z M40.559,48.494c-0.668,0-1.212-0.49-1.212-1.09
		c0-0.602,0.543-1.091,1.212-1.091c0.667,0,1.21,0.489,1.21,1.091C41.769,48.004,41.226,48.494,40.559,48.494L40.559,48.494z
		 M52.234,48.494c-0.669,0-1.212-0.49-1.212-1.09c0-0.602,0.543-1.091,1.212-1.091c0.667,0,1.21,0.489,1.21,1.091
		C53.444,48.004,52.901,48.494,52.234,48.494L52.234,48.494z M52.986,44.581h-13.8c0,0-0.365-0.102-0.26-0.434
		c0.087-0.281,1.327-3.05,1.586-3.81c0.106-0.262,0.932-0.41,1.741-0.365h7.668c0.808-0.044,2.207,0.104,2.312,0.365
		c0.261,0.759,1.499,3.528,1.588,3.81C53.925,44.479,52.986,44.581,52.986,44.581L52.986,44.581z"/>
</g>
<g id="normal">
	
		<radialGradient id="SVGID_4_" cx="-136.4419" cy="-1737.6035" r="26.6293" gradientTransform="matrix(-1.6502 0 0 -0.2075 -177.1563 -277.9141)" gradientUnits="userSpaceOnUse">
		<stop  offset="0.6962" style="stop-color:#000000;stop-opacity:0.25"/>
		<stop  offset="0.8858" style="stop-color:#6F6F6F;stop-opacity:0.0939"/>
		<stop  offset="1" style="stop-color:#AEAEAE;stop-opacity:0"/>
	</radialGradient>
	<path fill="url(#SVGID_4_)" d="M-12.613,82.641c0,3.32,27.129,6.018,60.598,6.018c33.5,0,60.629-2.695,60.629-6.018
		c0-3.324-27.129-6.021-60.629-6.021C14.516,76.619-12.613,79.316-12.613,82.641z"/>
	<path d="M57.807,14.463c-5.47-9.495-14.421-9.494-19.888,0.003L8.386,65.758c-5.467,9.496-0.976,17.264,9.982,17.262l59.012-0.006
		c10.959,0,15.447-7.77,9.977-17.264L57.807,14.463z"/>
	<path fill-rule="evenodd" clip-rule="evenodd" fill="#E99D47" d="M18.756,79.781c-4.209,0-7.273-1.291-8.63-3.637
		c-1.356-2.344-0.945-5.646,1.156-9.295l29.14-50.61c2.1-3.648,4.743-5.658,7.441-5.658c2.697,0,5.341,2.009,7.441,5.655
		L84.463,66.84c2.102,3.648,2.514,6.951,1.158,9.299c-1.355,2.344-4.421,3.637-8.633,3.637l-58.227,0.006H18.756z"/>
	<path d="M18.67,77.307c-2.885,0-4.999-0.908-5.952-2.561c-0.952-1.648-0.683-3.932,0.759-6.426l8.215-14.236
		c3.513-6.086,9.262-16.025,12.775-22.099l8.214-14.269c1.439-2.495,3.283-3.87,5.188-3.87c1.905,0,3.746,1.375,5.186,3.871
		l8.231,14.267c3.527,6.075,9.257,16.013,12.752,22.098l8.18,14.234c1.44,2.504,1.705,4.793,0.75,6.445
		c-0.95,1.641-3.049,2.545-5.911,2.545H18.67z"/>
	
		<radialGradient id="SVGID_5_" cx="288.6631" cy="-313.1953" r="29.6996" gradientTransform="matrix(1 0 0 -1 -240.6602 -267.96)" gradientUnits="userSpaceOnUse">
		<stop  offset="0" style="stop-color:#FFFFFF;stop-opacity:0"/>
		<stop  offset="1" style="stop-color:#000000"/>
	</radialGradient>
	<polygon opacity="0.3" fill="url(#SVGID_5_)" enable-background="new    " points="47.992,17.704 16.283,72.768 79.723,72.764 	"/>
	<path fill-rule="evenodd" clip-rule="evenodd" fill="#E99D47" d="M78.158,71.941l-60.44-0.012c0,0,0.169-0.289,0.24-0.408
		l12.278-21.158l17.221-29.703c0.001-0.003,0.23-0.375,0.23-0.375c0.09-0.147,0.2-0.339,0.306-0.531
		c0.123,0.271,0.274,0.541,0.414,0.77l0.27,0.438L63.929,47.25c0,0,13.947,24.01,14.34,24.694
		C78.23,71.941,78.188,71.941,78.158,71.941"/>
	<linearGradient id="SVGID_6_" gradientUnits="userSpaceOnUse" x1="32.0195" y1="45.3193" x2="77.246" y2="73.58">
		<stop  offset="0" style="stop-color:#000000"/>
		<stop  offset="0.0263" style="stop-color:#3C2812"/>
		<stop  offset="0.0561" style="stop-color:#795125"/>
		<stop  offset="0.0835" style="stop-color:#A97234"/>
		<stop  offset="0.1075" style="stop-color:#CC893E"/>
		<stop  offset="0.1272" style="stop-color:#E19845"/>
		<stop  offset="0.14" style="stop-color:#E99D47"/>
	</linearGradient>
	<path fill="url(#SVGID_6_)" fill-opacity="0.5" d="M78.158,71.941l-60.44-0.012c0,0,0.169-0.289,0.24-0.408l12.278-21.158
		l17.221-29.703c0.001-0.003,0.23-0.375,0.23-0.375c0.09-0.147,0.2-0.339,0.306-0.531c0.123,0.271,0.274,0.541,0.414,0.77
		l0.27,0.438L63.929,47.25c0,0,13.947,24.01,14.34,24.694C78.23,71.941,78.188,71.941,78.158,71.941"/>
	<path d="M66.787,59.938c-0.195-0.342-0.652-1.037-0.652-1.037l-2.211-5.191l0,0c-0.459-0.986-2.682-1.451-3.271-1.451h-9.2
		c-0.589,0-2.704,0.465-3.163,1.451L46.08,58.9c0,0-0.564,0.695-0.759,1.037c-0.197,0.342,0,0.77,0,3.07
		c0,2.246,0.13,2.613,0.745,2.891l0.788,0.182v1.537c0,0.676,0.262,1.482,0.994,1.482h1.258c0.731,0,0.816-0.807,0.816-1.482V66.08
		l12.272,0.059v2.084c0,0.676,0.183,0.877,0.915,0.877h1.449c0.732,0,0.695-0.807,0.695-1.482V66.08l0.896-0.182
		c0.615-0.277,0.639-0.645,0.639-2.891C66.787,60.707,66.982,60.279,66.787,59.938L66.787,59.938z M49.26,63.66
		c-0.786,0-1.426-0.576-1.426-1.283s0.64-1.283,1.426-1.283s1.426,0.576,1.426,1.283S50.046,63.66,49.26,63.66L49.26,63.66z
		 M63.006,63.66c-0.784,0-1.424-0.576-1.424-1.283s0.64-1.283,1.424-1.283c0.788,0,1.427,0.576,1.427,1.283
		S63.794,63.66,63.006,63.66L63.006,63.66z M63.72,58.402H48.387c0,0-0.124-1.145,0-1.535c0.104-0.332,0.513-1.916,0.819-2.811
		c0.124-0.307,1.296-0.314,2.247-0.262h9.2c0.952-0.053,2.229-0.045,2.353,0.262c0.307,0.895,0.61,2.479,0.714,2.811
		C63.843,57.258,63.72,58.402,63.72,58.402L63.72,58.402z"/>
	<path d="M55.51,45.072c-0.165-0.291-0.621-0.621-0.621-0.621l-1.877-4.41l0,0c-0.389-0.835-1.059-1.604-1.559-1.604h-9.678
		c-0.5,0-1.651,0.769-2.041,1.604l-1.877,4.41c0,0-0.456,0.33-0.623,0.621c-0.165,0.289-0.348,0.547-0.348,2.502
		c0,1.906,0.245,2.914,0.766,3.148h1.534v1.535c0,0.576,0.912,1.537,1.534,1.537l0,0c0.621,0,1.533-0.961,1.533-1.537v-1.535h7.668
		v1.535c0,0.576,0.911,1.537,1.532,1.537l0,0c0.621,0,1.533-0.961,1.533-1.537v-1.535h1.534c0.521-0.234,1.339-1.242,1.339-3.148
		C55.859,45.619,55.677,45.36,55.51,45.072L55.51,45.072z M40.559,48.494c-0.668,0-1.212-0.49-1.212-1.09
		c0-0.602,0.543-1.091,1.212-1.091c0.667,0,1.21,0.489,1.21,1.091C41.769,48.004,41.226,48.494,40.559,48.494L40.559,48.494z
		 M52.234,48.494c-0.669,0-1.212-0.49-1.212-1.09c0-0.602,0.543-1.091,1.212-1.091c0.667,0,1.21,0.489,1.21,1.091
		C53.444,48.004,52.901,48.494,52.234,48.494L52.234,48.494z M52.986,44.581h-13.8c0,0-0.365-0.102-0.26-0.434
		c0.087-0.281,1.327-3.05,1.586-3.81c0.106-0.262,0.932-0.41,1.741-0.365h7.668c0.808-0.044,2.207,0.104,2.312,0.365
		c0.261,0.759,1.499,3.528,1.588,3.81C53.925,44.479,52.986,44.581,52.986,44.581L52.986,44.581z"/>
</g>
</svg>
