<?xml version="1.0" encoding="utf-8"?>
<!-- Generator: Adobe Illustrator 16.0.2, SVG Export Plug-In . SVG Version: 6.00 Build 0)  -->
<!DOCTYPE svg PUBLIC "-//W3C//DTD SVG 1.1//EN" "http://www.w3.org/Graphics/SVG/1.1/DTD/svg11.dtd">
<svg version="1.1" id="Layer_1" xmlns="http://www.w3.org/2000/svg" xmlns:xlink="http://www.w3.org/1999/xlink" x="0px" y="0px"
	 width="198px" height="114px" viewBox="0 0 198 114" xml:space="preserve">
<g id="phase2">
	<path fill="#A43C11" d="M110.307,89.791L86.236,70.564c-0.475-0.379-0.753-0.955-0.753-1.564c0-0.01,0-0.021,0-0.029
		c0.01-0.619,0.306-1.197,0.802-1.57l24.07-18.02c0.354-0.264,0.771-0.399,1.199-0.399c0.305,0,0.609,0.07,0.895,0.211
		c0.677,0.339,1.105,1.031,1.105,1.789c0,0,0,5.861,0,8.48c2.68,0,9.016,0,9.016,0c1.104,0,2,0.896,2,2v15.994
		c0,1.104-0.896,2.001-2,2.001c0,0-6.336,0-9.016,0c0,2.65,0,8.771,0,8.771c0,0.769-0.441,1.469-1.137,1.801
		c-0.273,0.134-0.57,0.199-0.863,0.199C111.109,90.229,110.669,90.08,110.307,89.791"/>
	
		<linearGradient id="SVGID_7_" gradientUnits="userSpaceOnUse" x1="430.127" y1="-939.6284" x2="430.127" y2="-902.3823" gradientTransform="matrix(1 0 0 -1 -325.0996 -851.4004)">
		<stop  offset="0" style="stop-color:#F6DF30"/>
		<stop  offset="0.1758" style="stop-color:#FCCD23"/>
		<stop  offset="0.4969" style="stop-color:#F9B211"/>
		<stop  offset="0.782" style="stop-color:#F8A20F"/>
		<stop  offset="1" style="stop-color:#F79C0F"/>
	</linearGradient>
	<polygon fill="url(#SVGID_7_)" points="111.555,88.229 87.484,69.002 111.555,50.982 111.555,61.462 122.57,61.462 122.57,77.456 
		111.555,77.456 	"/>
	
		<linearGradient id="SVGID_8_" gradientUnits="userSpaceOnUse" x1="430.7637" y1="-921.437" x2="430.7637" y2="-905.3745" gradientTransform="matrix(1 0 0 -1 -325.0996 -851.4004)">
		<stop  offset="0" style="stop-color:#FFFFFF;stop-opacity:0"/>
		<stop  offset="1" style="stop-color:#FFFFFF;stop-opacity:0.8"/>
	</linearGradient>
	<path fill="url(#SVGID_8_)" d="M108.229,68.374c-1.729-0.669-3.928-0.994-6.713-0.994c-2.896,0-6.348,0.36-10.27,1.067
		c-0.169-0.137-0.263-0.209-0.493-0.395c2.957-2.215,14.47-10.833,18.802-14.079c0,3.061,0,6.486,0,6.486c0,1.104,0.896,2,2,2
		c0,0,6.338,0,9.018,0c0,2.183,0,5.45,0,7.449c-0.996,0.085-1.973,0.128-2.918,0.128C114.215,70.04,111.132,69.495,108.229,68.374"
		/>
	
		<linearGradient id="SVGID_9_" gradientUnits="userSpaceOnUse" x1="455.8945" y1="-934.9736" x2="506.5713" y2="-934.9736" gradientTransform="matrix(1 0 0 -1 -325.0996 -851.4004)">
		<stop  offset="0.1654" style="stop-color:#000000;stop-opacity:0.6"/>
		<stop  offset="0.7805" style="stop-color:#000000;stop-opacity:0"/>
	</linearGradient>
	<path fill="url(#SVGID_9_)" d="M181.188,85.186c-0.146,0.965-0.084,1.393-0.272,1.547c-0.022,0.021-0.054,0.033-0.079,0.041
		c-0.016,0.002-0.025,0.004-0.044,0.006c-0.019,0-0.03-0.002-0.049-0.004c-0.067-0.01-0.146-0.045-0.236-0.104
		c-0.187-0.119-0.427,0.092-0.88,0.035c-20.236-1.563-33.889-1.999-46.943-2.13c-0.955,0.131-1.541-0.666-1.793-1.702
		c-0.063-0.262-0.097-0.508-0.097-0.736s0.035-0.438,0.106-0.619c0.074-0.183,0.188-0.334,0.349-0.447
		c0.079-0.059,0.17-0.104,0.271-0.143c0.051-0.019,0.104-0.031,0.162-0.045c0.06-0.014,0.116-0.021,0.183-0.027
		c13.755-0.686,24.265-0.969,48.528,1.336c0.367,0.26,0.623-0.061,0.791,0.183c0.086,0.122,0.146,0.242,0.191,0.367
		c0.021,0.063,0.04,0.125,0.057,0.188c0.014,0.063,0.022,0.127,0.03,0.193C181.514,83.656,181.344,84.284,181.188,85.186
		L181.188,85.186L181.188,85.186L181.188,85.186z"/>
	
		<linearGradient id="SVGID_10_" gradientUnits="userSpaceOnUse" x1="469.2305" y1="-897.1318" x2="442.1798" y2="-912.7495" gradientTransform="matrix(1 0 0 -1 -325.0996 -851.4004)">
		<stop  offset="0" style="stop-color:#3B3B3B"/>
		<stop  offset="0.1001" style="stop-color:#4A4A4A"/>
		<stop  offset="0.5229" style="stop-color:#858585"/>
		<stop  offset="0.8349" style="stop-color:#AAAAAA"/>
		<stop  offset="1" style="stop-color:#B8B8B8"/>
	</linearGradient>
	<path fill="url(#SVGID_10_)" d="M133.154,84.54h-0.014c-0.016,0-0.027,0-0.039-0.002c-2.535-0.062-4.238-1.595-4.238-3.819v-0.055
		c0-0.016,0-0.029,0-0.046c0.092-3.962,0.18-8.187,0.18-12.454c0-11.894-0.618-25.925-5.205-39.816
		c-0.188-0.518-0.426-1.273-0.426-2.061c0-1.486,0.902-3.168,3.438-3.427c0.008-0.002,0.012-0.002,0.012-0.002h-0.002
		c-0.002,0-0.01,0-0.01,0s0,0,0.002,0s0.006,0,0.01,0l0.543-0.027c2.88,0,5.281,2.199,5.768,4.282
		c1.747,6.241,2.95,12.804,3.68,20.054c0.596,5.943,0.873,12.313,0.873,20.048c0,4.574-0.103,9.229-0.201,13.604
		c-0.051,2.229-1.769,3.726-4.27,3.726L133.154,84.54"/>
	
		<linearGradient id="SVGID_11_" gradientUnits="userSpaceOnUse" x1="450.5117" y1="-905.0859" x2="460.8193" y2="-905.0859" gradientTransform="matrix(1 0 0 -1 -325.0996 -851.4004)">
		<stop  offset="0" style="stop-color:#B8B8B8"/>
		<stop  offset="0.304" style="stop-color:#B6B6B6;stop-opacity:0.8541"/>
		<stop  offset="0.4738" style="stop-color:#AEAEAE;stop-opacity:0.7726"/>
		<stop  offset="0.6106" style="stop-color:#A0A0A0;stop-opacity:0.7069"/>
		<stop  offset="0.7297" style="stop-color:#8C8C8C;stop-opacity:0.6497"/>
		<stop  offset="0.8374" style="stop-color:#737373;stop-opacity:0.598"/>
		<stop  offset="0.9354" style="stop-color:#545454;stop-opacity:0.551"/>
		<stop  offset="1" style="stop-color:#3B3B3B;stop-opacity:0.52"/>
	</linearGradient>
	<path fill="url(#SVGID_11_)" d="M127.055,24.848c2.055-0.209,3.91,1.48,4.176,2.753c4.94,17.619,4.703,35.392,4.291,53.172
		c-0.028,1.285-1.086,1.795-2.373,1.767c-1.287-0.03-2.314-0.59-2.287-1.876c0.41-17.779,0.623-35.547-5.129-52.957
		C125.286,26.49,124.998,25.058,127.055,24.848L127.055,24.848L127.055,24.848z"/>
	<path fill="#4E4E4E" d="M127.188,27.07c0,0,2.02-0.381,3.533-0.506c0.26,0.348,0.441,0.707,0.51,1.038
		c0.994,3.543,1.771,7.09,2.387,10.644C130.854,32.763,127.188,27.07,127.188,27.07L127.188,27.07z M135.646,60.754
		c0.08,3.346,0.09,6.691,0.056,10.039c-1.544-4.227-3.146-8.247-3.146-8.247L135.646,60.754L135.646,60.754z"/>
	
		<linearGradient id="SVGID_12_" gradientUnits="userSpaceOnUse" x1="453.1426" y1="-893.5786" x2="521.541" y2="-893.5786" gradientTransform="matrix(1 0 0 -1 -325.0996 -851.4004)">
		<stop  offset="0" style="stop-color:#FFFFFF"/>
		<stop  offset="0.8615" style="stop-color:#000000"/>
	</linearGradient>
	<path fill="url(#SVGID_12_)" d="M133.471,61.938c0,0,0.036-0.385,0.038-0.396c0.2-1.124,0.437-2.338,0.685-3.626
		c0.916-4.685,2.053-10.516,2.053-15.72c0-3.456-0.51-6.307-1.514-8.474c-1.135-2.444-2.896-4.094-5.387-5.042
		c-0.359-0.114-0.652-0.305-0.881-0.563c-0.183-0.207-0.311-0.455-0.375-0.721c-0.002-0.008-0.048-0.397-0.048-0.397
		s0.067-0.473,0.067-0.476V26.52c0-0.003,0.002-0.008,0.006-0.02c0.168-0.563,0.602-1.028,1.287-1.382l-0.01,0.006
		c5.846-3.073,11.91-4.633,18.022-4.633c0.961,0,1.925,0.04,2.867,0.119l-0.015-0.002c4.838,0.364,9.106,1.357,13.237,2.317
		c1.085,0.251,2.112,0.492,3.14,0.716c0.021,0.003,0.551,0.112,0.551,0.112c4.414,0.894,8.58,1.738,12.605,1.738
		c5.002,0,9.446-1.337,13.986-4.209l-0.025,0.018c0.24-0.158,0.616-0.372,1.104-0.372c0.849,0,1.523,0.644,1.572,1.496
		c0.002,0.029,0.004,0.059,0.004,0.088v0.013c0,0.423-0.149,0.855-0.51,1.446c-2.388,3.92-3.496,7.499-3.496,11.265
		c0,2.122,0.322,4.093,0.666,6.182c0,0,0.127,0.788,0.137,0.836c0.009,0.037,0.351,1.752,0.351,1.752
		c0.511,2.521,0.991,4.9,0.991,7.289c0,2.503-0.555,4.711-1.688,6.749c-0.002,0.003-0.002,0.009-0.004,0.011
		c-0.322,0.565-0.988,1.23-1.589,1.577c-0.003,0.005-0.008,0.005-0.012,0.009c-2.131,1.215-4.229,2.067-6.419,2.605
		c-1.02,0.251-2.064,0.434-3.11,0.541c-0.509,0.053-1.022,0.088-1.53,0.107l-0.748,0.02c-0.015,0-0.008,0-0.021,0h-0.178
		l-0.563-0.008c-3.104-0.063-6.111-0.811-9.021-1.53c-0.827-0.205-1.686-0.418-2.531-0.61c-3.104-0.705-6.146-1.049-9.303-1.049
		c-7.088,0-13.385,1.736-20.051,3.576l-1.768,0.484c-0.006,0.004-0.011,0.004-0.02,0.006c-0.203,0.055-0.406,0.082-0.604,0.082
		C134.313,63.866,133.471,63.036,133.471,61.938 M133.505,61.555c0,0.004-0.001,0.008-0.001,0.01
		C133.503,61.563,133.503,61.561,133.505,61.555 M133.506,61.544L133.506,61.544L133.506,61.544 M133.508,61.531
		c0-0.004,0.001-0.008,0.001-0.008s0,0.004-0.001,0.011V61.531 M128.09,27.404L128.09,27.404L128.09,27.404 M128.074,27.324
		c0,0,0,0.001,0,0.003C128.074,27.324,128.074,27.324,128.074,27.324 M128.113,26.496v0.002V26.496"/>
	<defs>
		<filter id="Adobe_OpacityMaskFilter" filterUnits="userSpaceOnUse" x="130.23" y="22.184" width="65.199" height="38.294">
			<feColorMatrix  type="matrix" values="1 0 0 0 0  0 1 0 0 0  0 0 1 0 0  0 0 0 1 0"/>
		</filter>
	</defs>
	<mask maskUnits="userSpaceOnUse" x="130.23" y="22.184" width="65.199" height="38.294" id="SVGID_2_">
		<g filter="url(#Adobe_OpacityMaskFilter)">
			<path fill="none" d="M129.993,26.868c7.075-3.722,13.878-4.75,19.694-4.268c5.869,0.44,11.028,1.89,15.875,2.95
				c9.795,1.979,17.801,3.765,27.723-2.513c0.225-0.147,0.339-0.152,0.347-0.037c0.007,0.115-0.093,0.351-0.288,0.671
				c-4.939,8.11-3.718,13.465-2.834,18.963c1.022,5.327,2.389,9.909-0.176,14.52c-0.191,0.339-0.663,0.797-1.018,1.002
				c-2.033,1.16-3.998,1.935-5.92,2.406c-0.961,0.235-1.912,0.396-2.854,0.496c-0.472,0.049-0.938,0.082-1.405,0.1
				c-0.232,0.009-0.469,0.016-0.699,0.018s-0.467,0-0.695-0.005c-3.715-0.077-7.287-1.209-11.034-2.065
				c-11.938-2.708-21.433,0.285-31.252,2.977c-0.438,0.113-0.733-0.104-0.662-0.512c1.837-10.351,7.073-29.334-5.045-33.908
				c-0.115-0.032-0.196-0.077-0.245-0.131c-0.021-0.027-0.039-0.058-0.045-0.09c-0.005-0.032-0.003-0.066,0.006-0.101
				C129.507,27.194,129.688,27.026,129.993,26.868L129.993,26.868L129.993,26.868L129.993,26.868L129.993,26.868L129.993,26.868z"/>
		</g>
	</mask>
	<path mask="url(#SVGID_2_)" fill="#FFFFFF" d="M137.139,58.488c0.938-4.813,2.106-10.801,2.106-16.295
		c0-3.951-0.586-7.135-1.792-9.736c-1.113-2.4-2.758-4.262-4.904-5.551c4.859-2.266,9.854-3.413,14.868-3.413
		c0.88,0,1.761,0.036,2.62,0.106c0.004,0.001,0.007,0.001,0.012,0.001c4.605,0.346,8.762,1.313,12.78,2.247
		c1.101,0.256,2.14,0.498,3.19,0.729c0.008,0.002,0.016,0.003,0.021,0.005l0.563,0.114c4.563,0.924,8.873,1.798,13.198,1.798
		c4.15,0,7.947-0.818,11.69-2.542c-1.396,3.105-2.061,6.125-2.061,9.286c0,2.367,0.359,4.553,0.707,6.669l0.139,0.852
		c0.005,0.016,0.007,0.027,0.01,0.045l0.357,1.799c0.479,2.369,0.933,4.606,0.933,6.694c0,2.006-0.415,3.688-1.308,5.291
		l0.006-0.011l0.002-0.003c-0.07,0.115-0.34,0.383-0.486,0.469l0.014-0.008c-1.891,1.077-3.736,1.829-5.65,2.301
		c-0.885,0.218-1.795,0.375-2.701,0.468c-0.441,0.047-0.895,0.079-1.336,0.096c-0.006,0-0.551,0.015-0.678,0.018
		c-0.031,0-0.156,0-0.156,0l-0.508-0.003c-2.76-0.06-5.479-0.729-8.354-1.442c-0.843-0.209-1.711-0.427-2.585-0.625
		c-3.33-0.758-6.59-1.125-9.975-1.125c-7.491,0-14.28,1.875-20.846,3.686c0,0-0.197,0.055-0.268,0.072
		C136.876,59.837,137.006,59.172,137.139,58.488 M130.23,25.813c0.002,0,0.006,0.001,0.008,0.001
		C130.236,25.814,130.234,25.813,130.23,25.813 M195.418,23.806c-0.002,0.001-0.003,0.001-0.005,0.003
		C195.415,23.807,195.416,23.806,195.418,23.806 M195.423,23.803l0.007-0.003C195.43,23.799,195.426,23.801,195.423,23.803
		 M193.498,22.184c0,0,0,0.004-0.004,0.011C193.496,22.188,193.498,22.184,193.498,22.184"/>
	<path fill="#FFFFFF" d="M129.993,26.868c7.075-3.722,13.878-4.75,19.694-4.268c5.869,0.44,11.028,1.89,15.875,2.95
		c9.795,1.979,17.801,3.765,27.723-2.513c0.225-0.147,0.339-0.152,0.347-0.037c0.007,0.115-0.093,0.351-0.288,0.671
		c-4.939,8.11-3.718,13.465-2.834,18.963c1.022,5.327,2.389,9.909-0.176,14.52c-0.191,0.339-0.663,0.797-1.018,1.002
		c-2.033,1.16-3.998,1.935-5.92,2.406c-0.961,0.235-1.912,0.396-2.854,0.496c-0.472,0.049-0.938,0.082-1.405,0.1
		c-0.232,0.009-0.469,0.016-0.699,0.018s-0.467,0-0.695-0.005c-3.715-0.077-7.287-1.209-11.034-2.065
		c-11.938-2.708-21.433,0.285-31.252,2.977c-0.438,0.113-0.733-0.104-0.662-0.512c1.837-10.351,7.073-29.334-5.045-33.908
		c-0.115-0.032-0.196-0.077-0.245-0.131c-0.021-0.027-0.039-0.058-0.045-0.09c-0.005-0.032-0.003-0.066,0.006-0.101
		C129.507,27.194,129.688,27.026,129.993,26.868L129.993,26.868L129.993,26.868L129.993,26.868L129.993,26.868L129.993,26.868z"/>
	<defs>
		<filter id="Adobe_OpacityMaskFilter_1_" filterUnits="userSpaceOnUse" x="128.818" y="20.894" width="67.393" height="41.573">
			<feColorMatrix  type="matrix" values="1 0 0 0 0  0 1 0 0 0  0 0 1 0 0  0 0 0 1 0"/>
		</filter>
	</defs>
	<mask maskUnits="userSpaceOnUse" x="128.818" y="20.894" width="67.393" height="41.573" id="SVGID_1_">
		<g filter="url(#Adobe_OpacityMaskFilter_1_)">
			<path fill="#FFFFFF" d="M129.993,26.868c7.075-3.722,13.878-4.75,19.694-4.268c5.869,0.44,11.028,1.89,15.875,2.95
				c9.795,1.979,17.801,3.765,27.723-2.513c0.225-0.147,0.339-0.152,0.347-0.037c0.007,0.115-0.093,0.351-0.288,0.671
				c-4.939,8.11-3.718,13.465-2.834,18.963c1.022,5.327,2.389,9.909-0.176,14.52c-0.191,0.339-0.663,0.797-1.018,1.002
				c-2.033,1.16-3.998,1.935-5.92,2.406c-0.961,0.235-1.912,0.396-2.854,0.496c-0.472,0.049-0.938,0.082-1.405,0.1
				c-0.232,0.009-0.469,0.016-0.699,0.018s-0.467,0-0.695-0.005c-3.715-0.077-7.287-1.209-11.034-2.065
				c-11.938-2.708-21.433,0.285-31.252,2.977c-0.438,0.113-0.733-0.104-0.662-0.512c1.837-10.351,7.073-29.334-5.045-33.908
				c-0.115-0.032-0.196-0.077-0.245-0.131c-0.021-0.027-0.039-0.058-0.045-0.09c-0.005-0.032-0.003-0.066,0.006-0.101
				C129.507,27.194,129.688,27.026,129.993,26.868L129.993,26.868L129.993,26.868L129.993,26.868L129.993,26.868L129.993,26.868z"/>
		</g>
	</mask>
	<path mask="url(#SVGID_1_)" d="M146.697,60.23c0.103-0.01,0.207-0.019,0.31-0.025C146.902,60.215,146.803,60.221,146.697,60.23
		L146.697,60.23z M152.542,59.971c-0.099,0-0.194,0-0.292,0.002C152.348,59.971,152.445,59.973,152.542,59.971L152.542,59.971z
		 M195.941,21.631c-0.334,0.56-0.646,1.113-0.939,1.664c-0.104,0.192-0.202,0.385-0.302,0.578c-0.183,0.353-0.36,0.704-0.525,1.052
		c-0.114,0.236-0.224,0.472-0.329,0.706c-0.123,0.271-0.236,0.541-0.352,0.809c-0.12,0.286-0.244,0.574-0.354,0.855
		c-0.021,0.047-0.035,0.092-0.055,0.138c-1.066,2.766-1.662,5.379-1.848,7.82c-3.284,1.405-7.504,1.97-12.036,2.586
		c-0.104-5.4,1.853-9.728,3.28-12.193c2.6-0.369,5.186-1.001,7.718-1.938c0.04-0.014,0.082-0.03,0.12-0.045
		c0.521-0.194,1.045-0.406,1.562-0.629c0.144-0.061,0.282-0.12,0.425-0.183c0.442-0.197,0.887-0.411,1.323-0.63
		c0.164-0.082,0.326-0.156,0.488-0.239c0.587-0.305,1.169-0.627,1.747-0.974c0.22-0.144,0.334-0.147,0.345-0.032
		C196.223,21.088,196.129,21.319,195.941,21.631L195.941,21.631z M169.584,25.64c0.021-0.037,0.038-0.067,0.061-0.103
		c4.186,0.531,8.541,0.653,12.871,0.06c-0.01,0.018-0.018,0.03-0.029,0.048C178.145,26.261,173.777,26.162,169.584,25.64
		L169.584,25.64z M155.245,35.792c0.493-5.871,1.349-9.87,2.104-12.458c2.767,0.5,5.395,1.075,7.938,1.627
		c1.399,0.273,2.838,0.498,4.293,0.679c-1.692,3.011-3.581,7.42-3.729,12.373C162.559,37.367,158.896,36.442,155.245,35.792
		L155.245,35.792z M144.57,22.181L144.57,22.181c1.72-0.103,3.373-0.077,4.935,0.074C147.943,22.104,146.29,22.078,144.57,22.181
		L144.57,22.181z M144.305,35.267c-4.338,0.412-7.896,1.318-9.479,1.777c-0.01-0.032-0.018-0.064-0.024-0.096
		c-0.096-0.404-0.194-0.804-0.308-1.194c-0.145-0.508-0.305-1.004-0.475-1.487c-0.043-0.119-0.088-0.236-0.133-0.353
		c-0.223-0.587-0.477-1.146-0.75-1.687c-0.035-0.067-0.068-0.131-0.104-0.197c-0.637-1.211-1.417-2.288-2.358-3.187
		c-0.011-0.011-0.024-0.022-0.034-0.033c-0.486-0.458-0.998-0.884-1.572-1.244c-0.106-0.042-0.18-0.096-0.219-0.161
		c-0.02-0.032-0.029-0.067-0.031-0.104c-0.002-0.037,0.004-0.076,0.021-0.114c0.06-0.161,0.249-0.344,0.563-0.512
		c0.82-0.444,1.632-0.839,2.438-1.211c0.261-0.119,0.517-0.231,0.772-0.342c0.57-0.249,1.139-0.478,1.701-0.693
		c0.262-0.098,0.521-0.204,0.783-0.295c0.731-0.258,1.459-0.494,2.178-0.7c0.328-0.093,0.648-0.165,0.976-0.249
		c0.42-0.107,0.839-0.21,1.253-0.3c0.391-0.083,0.773-0.16,1.16-0.229c0.324-0.058,0.646-0.108,0.969-0.156
		c0.998-0.149,1.98-0.263,2.938-0.321C144.459,25.022,144.27,29.587,144.305,35.267L144.305,35.267z M155.245,35.792
		c-0.155,1.852-0.276,3.878-0.345,6.113c0.008,2.188,0.022,4.192,0.05,6.042c-2.761-0.289-5.685-0.354-8.96,0.092
		c-0.477,0.07-0.936,0.149-1.387,0.231c-0.004-1.816-0.041-3.733-0.137-5.761c-0.104-2.561-0.15-4.987-0.164-7.242
		c1.523-0.146,3.143-0.231,4.811-0.214C151.105,35.14,153.174,35.424,155.245,35.792L155.245,35.792z M165.857,38.013
		c3.088,0.605,5.854,0.962,7.99,0.609c1.813-0.303,3.604-0.547,5.354-0.784c0.021,1.112,0.121,2.262,0.343,3.458
		c0.656,2.817,1.392,5.196,1.687,7.863c-2.307,0.373-4.724,0.69-7.215,0.907c-2.373,0.16-4.574,0.043-6.703-0.202
		c-0.051-2.285-0.318-4.623-0.971-6.779C165.932,41.354,165.809,39.658,165.857,38.013L165.857,38.013z M193.172,47.532
		c0.563,3.148,0.512,6.118-1.25,8.975c-0.21,0.338-0.73,2.315-1.13,2.505c-2.28,1.059-4.538,1.104-6.769,1.68
		c-1.115,0.289-2.021,0.156-3.127,0.328c-0.344,0.053-1.061,0.08-1.402,0.123c1.658-5.018,2.081-8.894,1.736-11.981
		c4.49-0.724,8.537-1.662,11.756-2.538C193.057,46.927,193.111,47.229,193.172,47.532L193.172,47.532z M179.023,60.844
		c0.211-0.021,0.422-0.057,0.633-0.082l0,0C179.445,60.787,179.234,60.82,179.023,60.844L179.023,60.844z M166.247,60.695
		c-0.858-0.063-1.718-0.129-2.583-0.193c-1.367-0.117-2.736-0.219-4.107-0.305c-0.074-0.006-0.145-0.01-0.219-0.016
		c-1.376-0.084-2.758-0.148-4.134-0.187c-0.071-2.774-0.187-6.729-0.254-12.051c4.286,0.448,8.185,1.433,12.362,1.916
		C167.404,54.198,166.697,58.329,166.247,60.695L166.247,60.695z M144.063,60.525L144.063,60.525c0,0,0.004,0,0.006,0
		C144.064,60.525,144.064,60.525,144.063,60.525L144.063,60.525z M144.032,60.529c-0.634,0.088-1.269,0.189-1.899,0.302
		c-0.145,0.024-0.289,0.054-0.434,0.08c-0.502,0.093-1.004,0.194-1.504,0.303c-0.196,0.044-0.395,0.085-0.588,0.13
		c-0.461,0.107-0.924,0.225-1.383,0.348c-0.199,0.055-0.397,0.104-0.599,0.156c-0.642,0.18-1.276,0.371-1.916,0.584
		c-0.396,0.119-0.706-0.074-0.685-0.457c0.156-3.021,0.525-6.894,0.691-10.972c2.035-0.937,5.02-2.036,8.883-2.732
		c0.008,5.115-0.283,9.333-0.543,12.254C144.053,60.527,144.042,60.529,144.032,60.529L144.032,60.529z M157.366,23.28
		c-0.007,0.02-0.011,0.036-0.017,0.055c-2.481-0.449-5.072-0.841-7.848-1.08C152.281,22.496,154.878,22.858,157.366,23.28
		L157.366,23.28z M167.76,60.8c-0.47-0.032-0.941-0.063-1.414-0.098C166.818,60.736,167.288,60.768,167.76,60.8L167.76,60.8z
		 M169.848,60.93c0.4,0.023,0.801,0.043,1.199,0.063C170.648,60.973,170.248,60.953,169.848,60.93L169.848,60.93z M174.23,61.066
		c-0.332-0.002-0.67-0.012-1.006-0.019C173.563,61.057,173.898,61.066,174.23,61.066L174.23,61.066z"/>
	
		<linearGradient id="SVGID_13_" gradientUnits="userSpaceOnUse" x1="471.3984" y1="-867.251" x2="504.4649" y2="-916.2738" gradientTransform="matrix(1 0 0 -1 -325.0996 -851.4004)">
		<stop  offset="0" style="stop-color:#000000;stop-opacity:0"/>
		<stop  offset="0.4385" style="stop-color:#000000;stop-opacity:0.62"/>
		<stop  offset="0.7192" style="stop-color:#000000;stop-opacity:0.14"/>
		<stop  offset="1" style="stop-color:#000000;stop-opacity:0.62"/>
	</linearGradient>
	<path fill="url(#SVGID_13_)" fill-opacity="0.75" d="M129.993,26.868c7.075-3.722,13.878-4.75,19.694-4.268
		c5.869,0.44,11.028,1.89,15.875,2.95c9.795,1.979,17.801,3.765,27.723-2.513c0.225-0.147,0.339-0.152,0.347-0.037
		c0.007,0.115-0.093,0.351-0.288,0.671c-4.939,8.11-3.718,13.465-2.834,18.963c1.022,5.327,2.389,9.909-0.176,14.52
		c-0.191,0.339-0.663,0.797-1.018,1.002c-2.033,1.16-3.998,1.935-5.92,2.406c-0.961,0.235-1.912,0.396-2.854,0.496
		c-0.472,0.049-0.938,0.082-1.405,0.1c-0.232,0.009-0.469,0.016-0.699,0.018s-0.467,0-0.695-0.005
		c-3.715-0.077-7.287-1.209-11.034-2.065c-11.938-2.708-21.433,0.285-31.252,2.977c-0.438,0.113-0.733-0.104-0.662-0.512
		c1.837-10.351,7.073-29.334-5.045-33.908c-0.115-0.032-0.196-0.077-0.245-0.131c-0.021-0.027-0.039-0.058-0.045-0.09
		c-0.005-0.032-0.003-0.066,0.006-0.101C129.507,27.194,129.688,27.026,129.993,26.868L129.993,26.868L129.993,26.868
		L129.993,26.868L129.993,26.868L129.993,26.868z"/>
	
		<linearGradient id="SVGID_14_" gradientUnits="userSpaceOnUse" x1="313.8945" y1="-935.9736" x2="364.5732" y2="-935.9736" gradientTransform="matrix(1 0 0 -1 -305.1001 -851.4004)">
		<stop  offset="0.1654" style="stop-color:#000000;stop-opacity:0.6"/>
		<stop  offset="0.7805" style="stop-color:#000000;stop-opacity:0"/>
	</linearGradient>
	<path fill="url(#SVGID_14_)" d="M59.188,86.186c-0.146,0.965-0.082,1.393-0.274,1.547c-0.022,0.021-0.05,0.033-0.078,0.041
		c-0.015,0.002-0.028,0.004-0.045,0.006c-0.015,0-0.03-0.002-0.048-0.004c-0.064-0.01-0.145-0.045-0.237-0.104
		c-0.185-0.119-0.426,0.092-0.879,0.035c-20.24-1.563-33.887-1.999-46.945-2.13c-0.953,0.131-1.542-0.666-1.792-1.702
		c-0.063-0.262-0.096-0.508-0.096-0.736c0.001-0.229,0.035-0.438,0.109-0.619c0.074-0.183,0.188-0.334,0.346-0.447
		c0.08-0.059,0.17-0.104,0.272-0.143c0.05-0.019,0.104-0.031,0.162-0.045c0.056-0.014,0.117-0.021,0.18-0.027
		c13.755-0.686,24.264-0.969,48.531,1.336c0.371,0.26,0.623-0.061,0.791,0.183c0.086,0.122,0.147,0.242,0.192,0.367
		c0.022,0.063,0.04,0.125,0.054,0.188c0.016,0.063,0.026,0.127,0.032,0.193c0.054,0.531-0.114,1.161-0.271,2.063l0,0h-0.004V86.186z
		"/>
	
		<linearGradient id="SVGID_15_" gradientUnits="userSpaceOnUse" x1="327.2285" y1="-898.1289" x2="300.1771" y2="-913.7471" gradientTransform="matrix(1 0 0 -1 -305.1001 -851.4004)">
		<stop  offset="0" style="stop-color:#3B3B3B"/>
		<stop  offset="0.1001" style="stop-color:#4A4A4A"/>
		<stop  offset="0.5229" style="stop-color:#858585"/>
		<stop  offset="0.8349" style="stop-color:#AAAAAA"/>
		<stop  offset="1" style="stop-color:#B8B8B8"/>
	</linearGradient>
	<path fill="url(#SVGID_15_)" d="M11.154,85.54h-0.015c-0.013,0-0.027,0-0.038-0.002c-2.536-0.062-4.239-1.595-4.239-3.819v-0.055
		c0-0.016,0-0.029,0.001-0.046c0.091-3.964,0.179-8.192,0.179-12.464c0-11.884-0.618-25.907-5.2-39.794
		c-0.203-0.557-0.431-1.291-0.431-2.076c0-1.488,0.903-3.169,3.44-3.425c0.008-0.002,0.011-0.002,0.011-0.002s0,0-0.001,0
		c-0.003,0-0.01,0-0.01,0s0,0,0.002,0c0.001,0,0.005,0,0.009,0l0.542-0.027c2.878,0,5.282,2.199,5.766,4.282
		c1.747,6.241,2.95,12.804,3.677,20.054c0.596,5.943,0.873,12.314,0.873,20.048c0,4.574-0.1,9.229-0.2,13.604
		c-0.051,2.227-1.767,3.723-4.268,3.723L11.154,85.54"/>
	
		<linearGradient id="SVGID_16_" gradientUnits="userSpaceOnUse" x1="308.5127" y1="-906.0859" x2="318.8193" y2="-906.0859" gradientTransform="matrix(1 0 0 -1 -305.1001 -851.4004)">
		<stop  offset="0" style="stop-color:#B8B8B8"/>
		<stop  offset="0.304" style="stop-color:#B6B6B6;stop-opacity:0.8541"/>
		<stop  offset="0.4738" style="stop-color:#AEAEAE;stop-opacity:0.7726"/>
		<stop  offset="0.6106" style="stop-color:#A0A0A0;stop-opacity:0.7069"/>
		<stop  offset="0.7297" style="stop-color:#8C8C8C;stop-opacity:0.6497"/>
		<stop  offset="0.8374" style="stop-color:#737373;stop-opacity:0.598"/>
		<stop  offset="0.9354" style="stop-color:#545454;stop-opacity:0.551"/>
		<stop  offset="1" style="stop-color:#3B3B3B;stop-opacity:0.52"/>
	</linearGradient>
	<path fill="url(#SVGID_16_)" d="M5.054,25.848c2.056-0.209,3.911,1.48,4.177,2.753c4.94,17.619,4.702,35.392,4.29,53.172
		c-0.03,1.285-1.085,1.795-2.372,1.767c-1.288-0.03-2.317-0.59-2.287-1.876c0.41-17.779,0.623-35.547-5.128-52.957
		C3.287,27.49,2.997,26.058,5.054,25.848L5.054,25.848L5.054,25.848z"/>
	<path fill="#4E4E4E" d="M5.187,28.07c0,0,2.018-0.381,3.533-0.506c0.261,0.348,0.442,0.707,0.511,1.038
		c0.993,3.541,1.768,7.087,2.383,10.639C8.853,33.76,5.187,28.07,5.187,28.07L5.187,28.07z M13.646,61.754
		c0.08,3.346,0.09,6.688,0.056,10.035c-1.544-4.227-3.144-8.243-3.144-8.243L13.646,61.754L13.646,61.754z"/>
	
		<linearGradient id="SVGID_17_" gradientUnits="userSpaceOnUse" x1="310.6406" y1="-894.582" x2="380.0449" y2="-894.582" gradientTransform="matrix(1 0 0 -1 -305.1001 -851.4004)">
		<stop  offset="0" style="stop-color:#63C3DB"/>
		<stop  offset="1" style="stop-color:#1BA5C9"/>
	</linearGradient>
	<path fill="url(#SVGID_17_)" d="M10.971,62.939l0.045-0.487c0-0.001,0-0.001,0-0.003v-0.004c0-0.002,0.001-0.004,0.001-0.006
		c0.2-1.123,0.436-2.334,0.686-3.614c0.91-4.667,2.04-10.474,2.04-15.632c0-3.384-0.493-6.165-1.467-8.262
		c-1.068-2.306-2.726-3.866-5.064-4.77c-0.573-0.179-0.937-0.495-1.14-0.733l0.019,0.021c-0.237-0.267-0.402-0.589-0.487-0.934
		c-0.001-0.011-0.063-0.517-0.063-0.517s0.086-0.61,0.086-0.613v-0.002c0-0.001,0.001-0.004,0.001-0.006
		c0.002-0.005,0.003-0.011,0.007-0.019c0.208-0.695,0.724-1.26,1.534-1.68L7.16,25.684c5.917-3.114,12.059-4.691,18.257-4.691
		c0.974,0,1.952,0.04,2.908,0.118H28.31c4.874,0.367,9.163,1.363,13.311,2.329c1.085,0.251,2.111,0.49,3.136,0.716
		c0.037,0.008,0.541,0.109,0.541,0.109c4.388,0.889,8.531,1.728,12.507,1.728c4.898,0,9.254-1.31,13.707-4.122
		c0.455-0.296,0.898-0.44,1.354-0.44c1.116,0,2.009,0.846,2.075,1.967c0.002,0.038,0.004,0.078,0.004,0.117v0.013
		c0,0.521-0.176,1.032-0.582,1.706c-2.338,3.838-3.426,7.334-3.426,11.009c0,2.082,0.32,4.032,0.66,6.098
		c0,0,0.137,0.838,0.139,0.854c0.021,0.093,0.344,1.715,0.344,1.715c0.514,2.545,1.001,4.951,1.001,7.388
		c0,2.591-0.571,4.878-1.749,6.992c-0.366,0.653-1.096,1.382-1.777,1.776c-0.005,0.004-0.01,0.008-0.015,0.011
		c-2.144,1.222-4.347,2.114-6.55,2.657c-1.041,0.256-2.109,0.438-3.178,0.552c-0.52,0.055-1.047,0.092-1.564,0.11l-0.76,0.02
		c-0.016,0-0.012,0-0.026,0h-0.178l-0.569-0.005c-3.161-0.065-6.197-0.817-9.133-1.548c-0.826-0.204-1.68-0.416-2.524-0.609
		c-3.065-0.695-6.073-1.033-9.191-1.033c-7.02,0-13.285,1.727-19.917,3.559l-1.767,0.486c-0.009,0.002-0.016,0.004-0.025,0.006
		c-0.245,0.064-0.492,0.099-0.729,0.099C12.051,65.365,10.971,64.299,10.971,62.939 M11.01,62.479v0.002V62.479 M5.604,28.528
		L5.604,28.528L5.604,28.528 M5.583,28.428c-0.001-0.006-0.001-0.008-0.001-0.008S5.582,28.423,5.583,28.428 M5.632,27.351
		C5.632,27.35,5.632,27.35,5.632,27.351C5.632,27.35,5.632,27.349,5.632,27.351"/>
	<path fill="#1BA5C9" d="M8.09,27.453c7.21-3.792,14.145-4.838,20.07-4.348c5.983,0.45,11.243,1.925,16.18,3.006
		c9.982,2.018,18.143,3.836,28.253-2.559c0.229-0.152,0.345-0.157,0.353-0.039c0.008,0.119-0.096,0.357-0.293,0.684
		c-5.034,8.265-3.789,13.722-2.889,19.322c1.043,5.429,2.434,10.098-0.18,14.795c-0.195,0.348-0.676,0.813-1.036,1.021
		c-2.071,1.185-4.075,1.974-6.034,2.453c-0.979,0.237-1.945,0.403-2.906,0.505c-0.479,0.053-0.957,0.083-1.435,0.104
		c-0.237,0.01-0.476,0.015-0.712,0.018c-0.236,0.002-0.475,0-0.712-0.005c-3.784-0.078-7.426-1.231-11.246-2.104
		c-12.163-2.762-21.84,0.291-31.849,3.028c-0.447,0.119-0.75-0.104-0.673-0.517C14.853,52.267,20.189,32.92,7.84,28.26
		c-0.119-0.032-0.202-0.079-0.25-0.135c-0.024-0.027-0.039-0.058-0.045-0.089c-0.006-0.034-0.005-0.067,0.006-0.104
		C7.595,27.788,7.778,27.615,8.09,27.453L8.09,27.453L8.09,27.453L8.09,27.453L8.09,27.453L8.09,27.453z"/>
	
		<linearGradient id="SVGID_18_" gradientUnits="userSpaceOnUse" x1="329.3809" y1="-867.625" x2="363.0774" y2="-917.5822" gradientTransform="matrix(1 0 0 -1 -305.1001 -851.4004)">
		<stop  offset="0" style="stop-color:#000000;stop-opacity:0"/>
		<stop  offset="0.4385" style="stop-color:#000000;stop-opacity:0.62"/>
		<stop  offset="0.7192" style="stop-color:#000000;stop-opacity:0.14"/>
		<stop  offset="1" style="stop-color:#000000;stop-opacity:0.62"/>
	</linearGradient>
	<path fill="url(#SVGID_18_)" fill-opacity="0.75" d="M7.663,27.453c7.21-3.792,14.145-4.838,20.07-4.348
		c5.982,0.45,11.243,1.925,16.179,3.006c9.982,2.018,18.143,3.836,28.254-2.559c0.229-0.152,0.346-0.157,0.354-0.039
		c0.008,0.118-0.096,0.357-0.293,0.684c-5.035,8.265-3.789,13.722-2.891,19.322c1.044,5.429,2.438,10.098-0.178,14.795
		c-0.197,0.348-0.678,0.813-1.038,1.021c-2.072,1.185-4.074,1.974-6.032,2.453c-0.979,0.237-1.947,0.403-2.906,0.505
		c-0.479,0.053-0.957,0.083-1.435,0.104c-0.238,0.01-0.476,0.015-0.712,0.018c-0.239,0.002-0.477,0-0.711-0.005
		c-3.785-0.078-7.427-1.231-11.246-2.104c-12.164-2.762-21.842,0.291-31.85,3.028c-0.447,0.119-0.75-0.104-0.674-0.517
		c1.87-10.549,7.206-29.896-5.141-34.556c-0.119-0.032-0.202-0.079-0.25-0.135c-0.024-0.027-0.04-0.058-0.046-0.089
		c-0.006-0.034-0.003-0.067,0.006-0.104C7.167,27.788,7.349,27.615,7.663,27.453L7.663,27.453L7.663,27.453L7.663,27.453
		L7.663,27.453L7.663,27.453z"/>
	<path fill="#A43C11" d="M87.609,61.029c-0.692-0.332-1.133-1.032-1.133-1.801c0,0,0-6.123,0-8.771c-2.681,0-9.018,0-9.018,0
		c-1.104,0-2-0.896-2-2.001V32.462c0-1.104,0.896-2,2-2c0,0,6.337,0,9.018,0c0-2.619,0-8.48,0-8.48c0-0.758,0.428-1.45,1.104-1.789
		c0.282-0.141,0.589-0.211,0.896-0.211c0.424,0,0.846,0.135,1.197,0.399l24.07,18.02c0.497,0.373,0.793,0.951,0.803,1.57
		c0,0.01,0,0.021,0,0.029c0,0.609-0.276,1.186-0.753,1.564L89.725,60.791c-0.363,0.289-0.804,0.438-1.248,0.438
		C88.184,61.229,87.887,61.163,87.609,61.029"/>
	
		<linearGradient id="SVGID_19_" gradientUnits="userSpaceOnUse" x1="400.1045" y1="-910.6284" x2="400.1045" y2="-873.3823" gradientTransform="matrix(1 0 0 -1 -305.1001 -851.4004)">
		<stop  offset="0" style="stop-color:#F6DF30"/>
		<stop  offset="0.1758" style="stop-color:#FCCD23"/>
		<stop  offset="0.4969" style="stop-color:#F9B211"/>
		<stop  offset="0.782" style="stop-color:#F8A20F"/>
		<stop  offset="1" style="stop-color:#F79C0F"/>
	</linearGradient>
	<polygon fill="url(#SVGID_19_)" points="88.477,59.229 112.548,40.002 88.477,21.982 88.477,32.462 77.46,32.462 77.46,48.456 
		88.477,48.456 	"/>
	
		<linearGradient id="SVGID_20_" gradientUnits="userSpaceOnUse" x1="399.4707" y1="-892.4424" x2="399.4707" y2="-876.3774" gradientTransform="matrix(1 0 0 -1 -305.1001 -851.4004)">
		<stop  offset="0" style="stop-color:#FFFFFF;stop-opacity:0"/>
		<stop  offset="1" style="stop-color:#FFFFFF;stop-opacity:0.8"/>
	</linearGradient>
	<path fill="url(#SVGID_20_)" d="M79.46,40.912c0-1.999,0-5.27,0-7.449c2.681,0,9.017,0,9.017,0c1.105,0,2.002-0.896,2.002-2
		c0,0,0-3.426,0-6.486c4.332,3.244,15.843,11.864,18.8,14.078c-0.229,0.184-0.322,0.258-0.491,0.395
		c-3.916-0.711-7.367-1.068-10.27-1.068c-2.785,0-4.98,0.325-6.713,0.994c-2.904,1.121-5.988,1.666-9.428,1.666
		C81.434,41.04,80.458,40.997,79.46,40.912"/>
</g>
<g id="phase1">
	<path fill="#A43C11" d="M103.307,89.791L79.236,70.564c-0.475-0.379-0.753-0.955-0.753-1.564c0-0.01,0-0.021,0-0.029
		c0.01-0.619,0.306-1.197,0.802-1.57l24.07-18.02c0.354-0.264,0.771-0.399,1.199-0.399c0.305,0,0.608,0.07,0.895,0.211
		c0.677,0.339,1.105,1.031,1.105,1.789c0,0,0,5.862,0,8.48c2.68,0,9.016,0,9.016,0c1.104,0,2,0.896,2,2v15.994
		c0,1.104-0.896,2.001-2,2.001c0,0-6.336,0-9.016,0c0,2.65,0,8.771,0,8.771c0,0.769-0.441,1.469-1.138,1.801
		c-0.272,0.134-0.569,0.199-0.862,0.199C104.109,90.229,103.669,90.08,103.307,89.791"/>
	
		<linearGradient id="SVGID_21_" gradientUnits="userSpaceOnUse" x1="745.0273" y1="1294.2285" x2="745.0273" y2="1256.9824" gradientTransform="matrix(1 0 0 1 -647 -1206)">
		<stop  offset="0" style="stop-color:#F6DF30"/>
		<stop  offset="0.1758" style="stop-color:#FCCD23"/>
		<stop  offset="0.4969" style="stop-color:#F9B211"/>
		<stop  offset="0.782" style="stop-color:#F8A20F"/>
		<stop  offset="1" style="stop-color:#F79C0F"/>
	</linearGradient>
	<polygon fill="url(#SVGID_21_)" points="104.555,88.229 80.484,69.002 104.555,50.982 104.555,61.462 115.57,61.462 115.57,77.456 
		104.555,77.456 	"/>
	
		<linearGradient id="SVGID_22_" gradientUnits="userSpaceOnUse" x1="745.6641" y1="1276.0352" x2="745.6641" y2="1259.9727" gradientTransform="matrix(1 0 0 1 -647 -1206)">
		<stop  offset="0" style="stop-color:#FFFFFF;stop-opacity:0"/>
		<stop  offset="1" style="stop-color:#FFFFFF;stop-opacity:0.8"/>
	</linearGradient>
	<path fill="url(#SVGID_22_)" d="M101.229,68.374c-1.729-0.669-3.928-0.994-6.711-0.994c-2.896,0-6.348,0.36-10.27,1.067
		c-0.169-0.137-0.263-0.209-0.493-0.395c2.957-2.216,14.47-10.834,18.803-14.08c0,3.061,0,6.486,0,6.486c0,1.104,0.896,2,2,2
		c0,0,6.338,0,9.019,0c0,2.184,0,5.45,0,7.449c-0.997,0.085-1.974,0.128-2.919,0.128C107.215,70.04,104.132,69.495,101.229,68.374"
		/>
	
		<linearGradient id="SVGID_23_" gradientUnits="userSpaceOnUse" x1="777.7949" y1="1289.5732" x2="828.4717" y2="1289.5732" gradientTransform="matrix(1 0 0 1 -647 -1206)">
		<stop  offset="0.1654" style="stop-color:#000000;stop-opacity:0.6"/>
		<stop  offset="0.7805" style="stop-color:#000000;stop-opacity:0"/>
	</linearGradient>
	<path fill="url(#SVGID_23_)" d="M181.188,85.186c-0.146,0.965-0.084,1.394-0.271,1.547c-0.021,0.021-0.055,0.033-0.079,0.041
		c-0.017,0.002-0.024,0.004-0.044,0.006c-0.02,0-0.029-0.002-0.049-0.004c-0.066-0.01-0.146-0.045-0.236-0.104
		c-0.188-0.119-0.427,0.092-0.88,0.035c-20.235-1.563-33.89-1.999-46.942-2.13c-0.955,0.131-1.541-0.666-1.793-1.702
		c-0.063-0.262-0.098-0.508-0.098-0.736c0-0.228,0.035-0.438,0.105-0.619c0.074-0.183,0.188-0.334,0.35-0.447
		c0.079-0.059,0.17-0.104,0.271-0.143c0.051-0.019,0.104-0.031,0.162-0.045c0.06-0.014,0.115-0.021,0.183-0.027
		c13.755-0.686,24.265-0.969,48.528,1.336c0.367,0.261,0.623-0.061,0.791,0.184c0.086,0.122,0.146,0.242,0.19,0.367
		c0.021,0.063,0.04,0.125,0.058,0.188c0.014,0.063,0.021,0.127,0.029,0.193C181.514,83.656,181.344,84.284,181.188,85.186
		L181.188,85.186L181.188,85.186L181.188,85.186z"/>
	
		<linearGradient id="SVGID_24_" gradientUnits="userSpaceOnUse" x1="791.1318" y1="1251.7305" x2="764.0804" y2="1267.3486" gradientTransform="matrix(1 0 0 1 -647 -1206)">
		<stop  offset="0" style="stop-color:#3B3B3B"/>
		<stop  offset="0.1001" style="stop-color:#4A4A4A"/>
		<stop  offset="0.5229" style="stop-color:#858585"/>
		<stop  offset="0.8349" style="stop-color:#AAAAAA"/>
		<stop  offset="1" style="stop-color:#B8B8B8"/>
	</linearGradient>
	<path fill="url(#SVGID_24_)" d="M133.154,84.54h-0.014c-0.017,0-0.027,0-0.039-0.002c-2.535-0.062-4.238-1.595-4.238-3.819v-0.055
		c0-0.016,0-0.029,0-0.046c0.092-3.962,0.18-8.187,0.18-12.454c0-11.895-0.618-25.925-5.205-39.816
		c-0.188-0.518-0.426-1.273-0.426-2.061c0-1.486,0.902-3.168,3.438-3.427c0.008-0.002,0.012-0.002,0.012-0.002h-0.002
		c-0.002,0-0.01,0-0.01,0s0,0,0.002,0s0.006,0,0.01,0l0.543-0.027c2.881,0,5.281,2.199,5.769,4.282
		c1.747,6.241,2.95,12.804,3.681,20.054c0.596,5.943,0.873,12.313,0.873,20.048c0,4.574-0.104,9.229-0.201,13.604
		c-0.051,2.229-1.77,3.727-4.271,3.727L133.154,84.54"/>
	
		<linearGradient id="SVGID_25_" gradientUnits="userSpaceOnUse" x1="772.4121" y1="1259.6855" x2="782.7197" y2="1259.6855" gradientTransform="matrix(1 0 0 1 -647 -1206)">
		<stop  offset="0" style="stop-color:#B8B8B8"/>
		<stop  offset="0.304" style="stop-color:#B6B6B6;stop-opacity:0.8541"/>
		<stop  offset="0.4738" style="stop-color:#AEAEAE;stop-opacity:0.7726"/>
		<stop  offset="0.6106" style="stop-color:#A0A0A0;stop-opacity:0.7069"/>
		<stop  offset="0.7297" style="stop-color:#8C8C8C;stop-opacity:0.6497"/>
		<stop  offset="0.8374" style="stop-color:#737373;stop-opacity:0.598"/>
		<stop  offset="0.9354" style="stop-color:#545454;stop-opacity:0.551"/>
		<stop  offset="1" style="stop-color:#3B3B3B;stop-opacity:0.52"/>
	</linearGradient>
	<path fill="url(#SVGID_25_)" d="M127.055,24.848c2.055-0.209,3.91,1.48,4.176,2.753c4.94,17.619,4.703,35.392,4.291,53.172
		c-0.027,1.285-1.086,1.795-2.373,1.767c-1.287-0.03-2.313-0.59-2.287-1.876c0.41-17.779,0.623-35.547-5.129-52.957
		C125.286,26.49,124.998,25.058,127.055,24.848L127.055,24.848L127.055,24.848z"/>
	<path fill="#4E4E4E" d="M127.188,27.07c0,0,2.021-0.381,3.533-0.506c0.26,0.348,0.441,0.707,0.51,1.038
		c0.994,3.543,1.771,7.09,2.388,10.644C130.854,32.763,127.188,27.07,127.188,27.07L127.188,27.07z M135.646,60.754
		c0.08,3.346,0.09,6.691,0.056,10.039c-1.544-4.227-3.146-8.247-3.146-8.247L135.646,60.754L135.646,60.754z"/>
	
		<linearGradient id="SVGID_26_" gradientUnits="userSpaceOnUse" x1="775.043" y1="1248.1777" x2="843.4395" y2="1248.1777" gradientTransform="matrix(1 0 0 1 -647 -1206)">
		<stop  offset="0" style="stop-color:#FFFFFF"/>
		<stop  offset="0.8615" style="stop-color:#000000"/>
	</linearGradient>
	<path fill="url(#SVGID_26_)" d="M133.471,61.938c0,0,0.036-0.385,0.038-0.396c0.2-1.124,0.437-2.338,0.685-3.626
		c0.916-4.685,2.054-10.516,2.054-15.72c0-3.456-0.511-6.307-1.515-8.474c-1.135-2.444-2.896-4.094-5.387-5.042
		c-0.359-0.114-0.652-0.305-0.881-0.563c-0.184-0.207-0.311-0.455-0.375-0.721c-0.002-0.008-0.048-0.397-0.048-0.397
		s0.067-0.473,0.067-0.476V26.52c0-0.003,0.002-0.008,0.006-0.02c0.168-0.563,0.602-1.028,1.287-1.382l-0.01,0.006
		c5.846-3.073,11.909-4.633,18.021-4.633c0.961,0,1.925,0.04,2.867,0.119l-0.016-0.002c4.838,0.364,9.106,1.357,13.237,2.317
		c1.085,0.251,2.112,0.492,3.14,0.716c0.021,0.003,0.551,0.112,0.551,0.112c4.414,0.894,8.58,1.738,12.605,1.738
		c5.002,0,9.446-1.337,13.986-4.209L193.76,21.3c0.24-0.158,0.616-0.372,1.104-0.372c0.85,0,1.523,0.644,1.572,1.496
		c0.002,0.029,0.004,0.059,0.004,0.088v0.013c0,0.423-0.148,0.855-0.51,1.446c-2.388,3.92-3.496,7.499-3.496,11.265
		c0,2.122,0.322,4.093,0.666,6.182c0,0,0.127,0.788,0.137,0.836c0.01,0.037,0.352,1.752,0.352,1.752
		c0.512,2.521,0.991,4.9,0.991,7.289c0,2.503-0.556,4.711-1.688,6.749c-0.002,0.003-0.002,0.009-0.004,0.011
		c-0.322,0.565-0.988,1.23-1.589,1.577c-0.003,0.005-0.008,0.005-0.012,0.009c-2.132,1.215-4.229,2.067-6.419,2.605
		c-1.02,0.251-2.064,0.434-3.11,0.541c-0.509,0.053-1.022,0.088-1.53,0.107l-0.748,0.02c-0.015,0-0.008,0-0.021,0h-0.179
		l-0.563-0.008c-3.104-0.063-6.111-0.811-9.021-1.53c-0.826-0.205-1.686-0.418-2.53-0.61c-3.104-0.705-6.146-1.049-9.304-1.049
		c-7.088,0-13.385,1.736-20.051,3.576l-1.768,0.484c-0.006,0.004-0.012,0.004-0.02,0.006c-0.203,0.055-0.406,0.082-0.604,0.082
		C134.313,63.866,133.471,63.036,133.471,61.938 M133.505,61.555c0,0.004-0.001,0.008-0.001,0.01
		C133.503,61.563,133.503,61.561,133.505,61.555 M133.506,61.544L133.506,61.544L133.506,61.544 M133.508,61.531
		c0-0.004,0.001-0.008,0.001-0.008s0,0.004-0.001,0.011V61.531 M128.09,27.404L128.09,27.404L128.09,27.404 M128.074,27.324
		c0,0,0,0.001,0,0.003C128.074,27.324,128.074,27.324,128.074,27.324 M128.113,26.496v0.002V26.496"/>
	<defs>
		<filter id="Adobe_OpacityMaskFilter_2_" filterUnits="userSpaceOnUse" x="130.23" y="22.184" width="65.199" height="38.296">
			<feColorMatrix  type="matrix" values="1 0 0 0 0  0 1 0 0 0  0 0 1 0 0  0 0 0 1 0"/>
		</filter>
	</defs>
	<mask maskUnits="userSpaceOnUse" x="130.23" y="22.184" width="65.199" height="38.296" id="SVGID_4_">
		<g filter="url(#Adobe_OpacityMaskFilter_2_)">
			<path fill="none" d="M129.993,26.868c7.075-3.722,13.878-4.75,19.694-4.268c5.869,0.44,11.027,1.89,15.875,2.95
				c9.795,1.979,17.801,3.765,27.723-2.513c0.225-0.147,0.339-0.152,0.347-0.037c0.007,0.115-0.093,0.351-0.288,0.671
				c-4.939,8.11-3.718,13.465-2.834,18.963c1.022,5.327,2.389,9.909-0.176,14.521c-0.191,0.339-0.663,0.797-1.018,1.002
				c-2.033,1.16-3.998,1.935-5.92,2.406c-0.961,0.234-1.912,0.396-2.854,0.496c-0.472,0.049-0.938,0.082-1.405,0.1
				c-0.232,0.009-0.469,0.016-0.699,0.018c-0.229,0.002-0.467,0-0.694-0.005c-3.716-0.077-7.287-1.209-11.034-2.065
				c-11.938-2.707-21.434,0.285-31.252,2.978c-0.438,0.112-0.732-0.104-0.662-0.513c1.837-10.351,7.073-29.333-5.045-33.907
				c-0.115-0.032-0.195-0.077-0.245-0.131c-0.021-0.027-0.039-0.058-0.045-0.09c-0.005-0.032-0.003-0.066,0.006-0.101
				C129.507,27.194,129.688,27.026,129.993,26.868L129.993,26.868L129.993,26.868L129.993,26.868L129.993,26.868L129.993,26.868z"/>
		</g>
	</mask>
	<path mask="url(#SVGID_4_)" fill="#FFFFFF" d="M137.139,58.488c0.938-4.813,2.106-10.801,2.106-16.295
		c0-3.951-0.586-7.135-1.792-9.736c-1.113-2.4-2.758-4.262-4.904-5.551c4.859-2.266,9.854-3.413,14.868-3.413
		c0.88,0,1.761,0.036,2.62,0.106c0.004,0.001,0.007,0.001,0.012,0.001c4.605,0.346,8.762,1.313,12.78,2.247
		c1.101,0.256,2.14,0.498,3.19,0.729c0.008,0.002,0.016,0.003,0.021,0.005l0.563,0.114c4.563,0.924,8.873,1.798,13.197,1.798
		c4.15,0,7.947-0.818,11.69-2.542c-1.396,3.105-2.062,6.125-2.062,9.286c0,2.367,0.359,4.553,0.707,6.669l0.139,0.852
		c0.006,0.016,0.008,0.027,0.011,0.045l0.356,1.799c0.479,2.369,0.934,4.606,0.934,6.694c0,2.006-0.415,3.688-1.309,5.291
		l0.006-0.011l0.002-0.004c-0.069,0.115-0.34,0.384-0.485,0.47l0.015-0.008c-1.892,1.077-3.736,1.829-5.65,2.301
		c-0.885,0.218-1.795,0.375-2.701,0.468c-0.441,0.047-0.895,0.079-1.336,0.096c-0.006,0-0.551,0.016-0.678,0.019
		c-0.031,0-0.156,0-0.156,0l-0.508-0.003c-2.76-0.061-5.479-0.729-8.354-1.443c-0.843-0.207-1.711-0.426-2.585-0.623
		c-3.33-0.759-6.59-1.125-9.975-1.125c-7.491,0-14.28,1.873-20.846,3.686c0,0-0.197,0.055-0.269,0.072
		C136.876,59.837,137.006,59.172,137.139,58.488 M130.23,25.813c0.002,0,0.006,0.001,0.008,0.001
		C130.236,25.814,130.234,25.813,130.23,25.813 M195.418,23.806c-0.002,0.001-0.003,0.001-0.005,0.003
		C195.415,23.807,195.416,23.806,195.418,23.806 M195.423,23.803l0.007-0.003C195.43,23.799,195.426,23.801,195.423,23.803
		 M193.498,22.184c0,0,0,0.004-0.004,0.011C193.496,22.188,193.498,22.184,193.498,22.184"/>
	<path fill="#FFFFFF" d="M129.993,26.868c7.075-3.722,13.878-4.75,19.694-4.268c5.869,0.44,11.027,1.89,15.875,2.95
		c9.795,1.979,17.801,3.765,27.723-2.513c0.225-0.147,0.339-0.152,0.347-0.037c0.007,0.115-0.093,0.351-0.288,0.671
		c-4.939,8.11-3.718,13.465-2.834,18.963c1.022,5.327,2.389,9.909-0.176,14.521c-0.191,0.339-0.663,0.797-1.018,1.002
		c-2.033,1.16-3.998,1.935-5.92,2.406c-0.961,0.234-1.912,0.396-2.854,0.496c-0.472,0.049-0.938,0.082-1.405,0.1
		c-0.232,0.009-0.469,0.016-0.699,0.018c-0.229,0.002-0.467,0-0.694-0.005c-3.716-0.077-7.287-1.209-11.034-2.065
		c-11.938-2.707-21.434,0.285-31.252,2.978c-0.438,0.112-0.732-0.104-0.662-0.513c1.837-10.351,7.073-29.333-5.045-33.907
		c-0.115-0.032-0.195-0.077-0.245-0.131c-0.021-0.027-0.039-0.058-0.045-0.09c-0.005-0.032-0.003-0.066,0.006-0.101
		C129.507,27.194,129.688,27.026,129.993,26.868L129.993,26.868L129.993,26.868L129.993,26.868L129.993,26.868L129.993,26.868z"/>
	<defs>
		<filter id="Adobe_OpacityMaskFilter_3_" filterUnits="userSpaceOnUse" x="128.818" y="20.894" width="67.392" height="41.573">
			<feColorMatrix  type="matrix" values="1 0 0 0 0  0 1 0 0 0  0 0 1 0 0  0 0 0 1 0"/>
		</filter>
	</defs>
	<mask maskUnits="userSpaceOnUse" x="128.818" y="20.894" width="67.392" height="41.573" id="SVGID_3_">
		<g filter="url(#Adobe_OpacityMaskFilter_3_)">
			<path fill="#FFFFFF" d="M129.993,26.868c7.075-3.722,13.878-4.75,19.694-4.268c5.869,0.44,11.027,1.89,15.875,2.95
				c9.795,1.979,17.801,3.765,27.723-2.513c0.225-0.147,0.339-0.152,0.347-0.037c0.007,0.115-0.093,0.351-0.288,0.671
				c-4.939,8.11-3.718,13.465-2.834,18.963c1.022,5.327,2.389,9.909-0.176,14.521c-0.191,0.339-0.663,0.797-1.018,1.002
				c-2.033,1.16-3.998,1.935-5.92,2.406c-0.961,0.234-1.912,0.396-2.854,0.496c-0.472,0.049-0.938,0.082-1.405,0.1
				c-0.232,0.009-0.469,0.016-0.699,0.018c-0.229,0.002-0.467,0-0.694-0.005c-3.716-0.077-7.287-1.209-11.034-2.065
				c-11.938-2.707-21.434,0.285-31.252,2.978c-0.438,0.112-0.732-0.104-0.662-0.513c1.837-10.351,7.073-29.333-5.045-33.907
				c-0.115-0.032-0.195-0.077-0.245-0.131c-0.021-0.027-0.039-0.058-0.045-0.09c-0.005-0.032-0.003-0.066,0.006-0.101
				C129.507,27.194,129.688,27.026,129.993,26.868L129.993,26.868L129.993,26.868L129.993,26.868L129.993,26.868L129.993,26.868z"/>
		</g>
	</mask>
	<path mask="url(#SVGID_3_)" d="M146.697,60.23c0.103-0.01,0.207-0.02,0.31-0.025C146.902,60.215,146.803,60.221,146.697,60.23
		L146.697,60.23z M152.542,59.971c-0.099,0-0.194,0-0.292,0.002C152.348,59.971,152.445,59.973,152.542,59.971L152.542,59.971z
		 M195.941,21.631c-0.334,0.56-0.646,1.113-0.939,1.664c-0.104,0.192-0.202,0.385-0.302,0.578c-0.183,0.353-0.36,0.704-0.525,1.052
		c-0.114,0.236-0.224,0.472-0.329,0.706c-0.123,0.271-0.236,0.541-0.352,0.809c-0.12,0.286-0.244,0.574-0.354,0.855
		c-0.021,0.047-0.035,0.092-0.056,0.138c-1.065,2.766-1.662,5.379-1.849,7.82c-3.283,1.405-7.504,1.97-12.035,2.586
		c-0.104-5.4,1.854-9.728,3.279-12.193c2.601-0.369,5.187-1.001,7.719-1.938c0.039-0.014,0.082-0.03,0.119-0.045
		c0.521-0.194,1.045-0.406,1.563-0.629c0.145-0.061,0.282-0.12,0.426-0.183c0.441-0.197,0.887-0.411,1.322-0.63
		c0.164-0.082,0.326-0.156,0.488-0.239c0.587-0.305,1.169-0.627,1.746-0.974c0.221-0.144,0.334-0.147,0.346-0.032
		C196.223,21.088,196.129,21.319,195.941,21.631L195.941,21.631z M169.584,25.64c0.021-0.037,0.038-0.067,0.061-0.103
		c4.187,0.531,8.541,0.653,12.871,0.06c-0.01,0.018-0.018,0.03-0.029,0.048C178.145,26.261,173.777,26.162,169.584,25.64
		L169.584,25.64z M155.245,35.792c0.493-5.871,1.349-9.87,2.104-12.458c2.767,0.5,5.395,1.075,7.938,1.627
		c1.398,0.273,2.838,0.498,4.293,0.679c-1.691,3.011-3.581,7.42-3.729,12.373C162.559,37.367,158.896,36.442,155.245,35.792
		L155.245,35.792z M144.57,22.181L144.57,22.181c1.72-0.103,3.373-0.077,4.935,0.074C147.943,22.104,146.29,22.078,144.57,22.181
		L144.57,22.181z M144.305,35.267c-4.338,0.412-7.896,1.318-9.479,1.777c-0.01-0.032-0.018-0.064-0.024-0.096
		c-0.096-0.404-0.194-0.804-0.308-1.194c-0.145-0.508-0.305-1.004-0.475-1.487c-0.043-0.119-0.088-0.236-0.133-0.353
		c-0.224-0.587-0.478-1.146-0.75-1.687c-0.035-0.067-0.068-0.131-0.105-0.197c-0.637-1.211-1.416-2.288-2.357-3.187
		c-0.011-0.011-0.023-0.022-0.033-0.033c-0.486-0.458-0.998-0.884-1.572-1.244c-0.106-0.042-0.18-0.096-0.219-0.161
		c-0.021-0.032-0.029-0.067-0.031-0.104c-0.002-0.037,0.004-0.076,0.021-0.114c0.06-0.161,0.249-0.344,0.563-0.512
		c0.82-0.444,1.632-0.839,2.438-1.211c0.262-0.119,0.518-0.231,0.771-0.342c0.57-0.249,1.14-0.478,1.701-0.693
		c0.263-0.098,0.521-0.204,0.783-0.295c0.731-0.258,1.459-0.494,2.178-0.7c0.328-0.093,0.648-0.165,0.977-0.249
		c0.42-0.107,0.839-0.21,1.253-0.3c0.392-0.083,0.772-0.16,1.16-0.229c0.323-0.058,0.646-0.108,0.969-0.156
		c0.998-0.149,1.979-0.263,2.938-0.321C144.459,25.022,144.27,29.587,144.305,35.267L144.305,35.267z M155.245,35.792
		c-0.155,1.852-0.276,3.878-0.345,6.113c0.008,2.188,0.021,4.192,0.05,6.042c-2.761-0.289-5.685-0.354-8.96,0.092
		c-0.477,0.07-0.936,0.149-1.387,0.231c-0.004-1.816-0.041-3.733-0.138-5.761c-0.104-2.561-0.149-4.987-0.163-7.242
		c1.522-0.146,3.143-0.231,4.811-0.214C151.105,35.14,153.174,35.424,155.245,35.792L155.245,35.792z M165.857,38.013
		c3.088,0.605,5.854,0.962,7.99,0.609c1.813-0.303,3.604-0.547,5.354-0.784c0.021,1.112,0.121,2.262,0.343,3.458
		c0.656,2.817,1.392,5.196,1.687,7.863c-2.307,0.373-4.724,0.69-7.215,0.907c-2.373,0.16-4.574,0.043-6.703-0.202
		c-0.051-2.285-0.317-4.623-0.971-6.779C165.932,41.354,165.809,39.658,165.857,38.013L165.857,38.013z M193.172,47.532
		c0.563,3.148,0.512,6.118-1.25,8.975c-0.21,0.339-0.73,2.315-1.13,2.505c-2.28,1.059-4.538,1.104-6.769,1.68
		c-1.115,0.289-2.021,0.156-3.127,0.328c-0.344,0.053-1.062,0.08-1.402,0.123c1.658-5.018,2.081-8.894,1.736-11.98
		c4.49-0.724,8.537-1.662,11.756-2.538C193.057,46.927,193.111,47.229,193.172,47.532L193.172,47.532z M179.023,60.844
		c0.211-0.021,0.422-0.057,0.633-0.082l0,0C179.445,60.787,179.234,60.82,179.023,60.844L179.023,60.844z M166.247,60.695
		c-0.858-0.063-1.718-0.129-2.583-0.193c-1.367-0.117-2.736-0.219-4.107-0.305c-0.074-0.006-0.145-0.01-0.219-0.016
		c-1.376-0.084-2.758-0.148-4.134-0.188c-0.071-2.773-0.187-6.729-0.254-12.051c4.286,0.448,8.185,1.433,12.362,1.916
		C167.404,54.198,166.697,58.329,166.247,60.695L166.247,60.695z M144.063,60.525L144.063,60.525c0,0,0.004,0,0.006,0
		C144.064,60.525,144.064,60.525,144.063,60.525L144.063,60.525z M144.032,60.529c-0.634,0.088-1.269,0.188-1.899,0.302
		c-0.145,0.024-0.289,0.054-0.434,0.08c-0.502,0.093-1.004,0.194-1.504,0.303c-0.196,0.044-0.396,0.085-0.588,0.13
		c-0.461,0.107-0.924,0.225-1.383,0.348c-0.199,0.056-0.397,0.104-0.6,0.156c-0.643,0.18-1.275,0.371-1.916,0.584
		c-0.396,0.119-0.706-0.074-0.686-0.457c0.156-3.021,0.525-6.894,0.691-10.972c2.035-0.937,5.02-2.036,8.883-2.732
		c0.008,5.115-0.283,9.333-0.543,12.254C144.053,60.527,144.042,60.529,144.032,60.529L144.032,60.529z M157.366,23.28
		c-0.007,0.02-0.011,0.036-0.017,0.055c-2.481-0.449-5.072-0.841-7.849-1.08C152.281,22.496,154.878,22.858,157.366,23.28
		L157.366,23.28z M167.76,60.8c-0.47-0.032-0.941-0.063-1.414-0.098C166.818,60.736,167.288,60.768,167.76,60.8L167.76,60.8z
		 M169.848,60.93c0.4,0.023,0.801,0.043,1.199,0.063C170.648,60.973,170.248,60.953,169.848,60.93L169.848,60.93z M174.23,61.066
		c-0.332-0.002-0.67-0.012-1.006-0.02C173.563,61.057,173.898,61.066,174.23,61.066L174.23,61.066z"/>
	
		<linearGradient id="SVGID_27_" gradientUnits="userSpaceOnUse" x1="793.2988" y1="1221.8506" x2="826.3656" y2="1270.8738" gradientTransform="matrix(1 0 0 1 -647 -1206)">
		<stop  offset="0" style="stop-color:#000000;stop-opacity:0"/>
		<stop  offset="0.4385" style="stop-color:#000000;stop-opacity:0.62"/>
		<stop  offset="0.7192" style="stop-color:#000000;stop-opacity:0.14"/>
		<stop  offset="1" style="stop-color:#000000;stop-opacity:0.62"/>
	</linearGradient>
	<path fill="url(#SVGID_27_)" fill-opacity="0.75" d="M129.993,26.868c7.075-3.722,13.878-4.75,19.694-4.268
		c5.869,0.44,11.027,1.89,15.875,2.95c9.795,1.979,17.801,3.765,27.723-2.513c0.225-0.147,0.339-0.152,0.347-0.037
		c0.007,0.115-0.093,0.351-0.288,0.671c-4.939,8.11-3.718,13.465-2.834,18.963c1.022,5.327,2.389,9.909-0.176,14.521
		c-0.191,0.339-0.663,0.797-1.018,1.002c-2.033,1.16-3.998,1.935-5.92,2.406c-0.961,0.234-1.912,0.396-2.854,0.496
		c-0.472,0.049-0.938,0.082-1.405,0.1c-0.232,0.009-0.469,0.016-0.699,0.018c-0.229,0.002-0.467,0-0.694-0.005
		c-3.716-0.077-7.287-1.209-11.034-2.065c-11.938-2.707-21.434,0.285-31.252,2.978c-0.438,0.112-0.732-0.104-0.662-0.513
		c1.837-10.351,7.073-29.333-5.045-33.907c-0.115-0.032-0.195-0.077-0.245-0.131c-0.021-0.027-0.039-0.058-0.045-0.09
		c-0.005-0.032-0.003-0.066,0.006-0.101C129.507,27.194,129.688,27.026,129.993,26.868L129.993,26.868L129.993,26.868
		L129.993,26.868L129.993,26.868L129.993,26.868z"/>
	
		<linearGradient id="SVGID_28_" gradientUnits="userSpaceOnUse" x1="635.7949" y1="1290.5732" x2="686.4736" y2="1290.5732" gradientTransform="matrix(1 0 0 1 -627 -1206)">
		<stop  offset="0.1654" style="stop-color:#000000;stop-opacity:0.6"/>
		<stop  offset="0.7805" style="stop-color:#000000;stop-opacity:0"/>
	</linearGradient>
	<path fill="url(#SVGID_28_)" d="M59.188,86.186c-0.146,0.965-0.082,1.394-0.274,1.547c-0.022,0.021-0.05,0.033-0.078,0.041
		c-0.015,0.002-0.028,0.004-0.045,0.006c-0.015,0-0.03-0.002-0.048-0.004c-0.064-0.01-0.145-0.045-0.237-0.104
		c-0.185-0.119-0.426,0.092-0.879,0.035c-20.24-1.563-33.887-1.999-46.945-2.13c-0.953,0.131-1.542-0.666-1.792-1.702
		c-0.063-0.262-0.096-0.508-0.096-0.736c0.001-0.229,0.035-0.438,0.109-0.619c0.074-0.183,0.188-0.334,0.346-0.447
		c0.08-0.059,0.17-0.104,0.272-0.143c0.05-0.019,0.104-0.031,0.162-0.045c0.056-0.014,0.117-0.021,0.18-0.027
		c13.755-0.686,24.264-0.969,48.531,1.336c0.371,0.261,0.623-0.061,0.791,0.184c0.086,0.122,0.147,0.242,0.192,0.367
		c0.022,0.063,0.04,0.125,0.054,0.188c0.016,0.063,0.026,0.127,0.032,0.193c0.054,0.531-0.114,1.161-0.271,2.063l0,0h-0.004V86.186z
		"/>
	
		<linearGradient id="SVGID_29_" gradientUnits="userSpaceOnUse" x1="649.1289" y1="1252.7295" x2="622.0772" y2="1268.3478" gradientTransform="matrix(1 0 0 1 -627 -1206)">
		<stop  offset="0" style="stop-color:#3B3B3B"/>
		<stop  offset="0.1001" style="stop-color:#4A4A4A"/>
		<stop  offset="0.5229" style="stop-color:#858585"/>
		<stop  offset="0.8349" style="stop-color:#AAAAAA"/>
		<stop  offset="1" style="stop-color:#B8B8B8"/>
	</linearGradient>
	<path fill="url(#SVGID_29_)" d="M11.154,85.54h-0.015c-0.013,0-0.027,0-0.038-0.002c-2.536-0.062-4.239-1.595-4.239-3.819v-0.055
		c0-0.016,0-0.029,0.001-0.046c0.091-3.964,0.179-8.192,0.179-12.464c0-11.885-0.618-25.907-5.2-39.794
		c-0.203-0.557-0.431-1.291-0.431-2.076c0-1.488,0.903-3.169,3.44-3.425c0.008-0.002,0.011-0.002,0.011-0.002s0,0-0.001,0
		c-0.003,0-0.01,0-0.01,0s0,0,0.002,0c0.001,0,0.005,0,0.009,0l0.542-0.027c2.878,0,5.282,2.199,5.766,4.282
		c1.747,6.241,2.95,12.804,3.677,20.054c0.596,5.943,0.873,12.314,0.873,20.048c0,4.574-0.1,9.229-0.2,13.604
		c-0.051,2.227-1.767,3.723-4.268,3.723L11.154,85.54"/>
	
		<linearGradient id="SVGID_30_" gradientUnits="userSpaceOnUse" x1="630.4131" y1="1260.6855" x2="640.7197" y2="1260.6855" gradientTransform="matrix(1 0 0 1 -627 -1206)">
		<stop  offset="0" style="stop-color:#B8B8B8"/>
		<stop  offset="0.304" style="stop-color:#B6B6B6;stop-opacity:0.8541"/>
		<stop  offset="0.4738" style="stop-color:#AEAEAE;stop-opacity:0.7726"/>
		<stop  offset="0.6106" style="stop-color:#A0A0A0;stop-opacity:0.7069"/>
		<stop  offset="0.7297" style="stop-color:#8C8C8C;stop-opacity:0.6497"/>
		<stop  offset="0.8374" style="stop-color:#737373;stop-opacity:0.598"/>
		<stop  offset="0.9354" style="stop-color:#545454;stop-opacity:0.551"/>
		<stop  offset="1" style="stop-color:#3B3B3B;stop-opacity:0.52"/>
	</linearGradient>
	<path fill="url(#SVGID_30_)" d="M5.054,25.848c2.056-0.209,3.911,1.48,4.177,2.753c4.94,17.619,4.702,35.392,4.29,53.172
		c-0.03,1.285-1.085,1.795-2.372,1.767c-1.288-0.03-2.317-0.59-2.287-1.876c0.41-17.779,0.623-35.547-5.128-52.957
		C3.287,27.49,2.997,26.058,5.054,25.848L5.054,25.848L5.054,25.848z"/>
	<path fill="#4E4E4E" d="M5.187,28.07c0,0,2.018-0.381,3.533-0.506c0.261,0.348,0.442,0.707,0.511,1.038
		c0.993,3.541,1.768,7.087,2.383,10.639C8.853,33.76,5.187,28.07,5.187,28.07L5.187,28.07z M13.646,61.754
		c0.08,3.346,0.09,6.688,0.056,10.035c-1.544-4.227-3.144-8.243-3.144-8.243L13.646,61.754L13.646,61.754z"/>
	
		<linearGradient id="SVGID_31_" gradientUnits="userSpaceOnUse" x1="632.541" y1="1249.1816" x2="701.9453" y2="1249.1816" gradientTransform="matrix(1 0 0 1 -627 -1206)">
		<stop  offset="0" style="stop-color:#63C3DB"/>
		<stop  offset="1" style="stop-color:#1BA5C9"/>
	</linearGradient>
	<path fill="url(#SVGID_31_)" d="M10.971,62.939l0.045-0.487c0-0.001,0-0.001,0-0.003v-0.004c0-0.002,0.001-0.004,0.001-0.006
		c0.2-1.123,0.436-2.334,0.686-3.614c0.91-4.667,2.04-10.474,2.04-15.632c0-3.384-0.493-6.165-1.467-8.262
		c-1.068-2.306-2.726-3.866-5.064-4.77c-0.573-0.179-0.937-0.495-1.14-0.733l0.019,0.021c-0.237-0.267-0.402-0.589-0.487-0.934
		c-0.001-0.011-0.063-0.517-0.063-0.517s0.086-0.61,0.086-0.613v-0.002c0-0.001,0.001-0.004,0.001-0.006
		c0.002-0.005,0.003-0.011,0.007-0.019c0.208-0.695,0.724-1.26,1.534-1.68L7.16,25.684c5.917-3.114,12.059-4.691,18.257-4.691
		c0.974,0,1.952,0.04,2.908,0.118H28.31c4.874,0.367,9.163,1.363,13.311,2.329c1.085,0.251,2.111,0.49,3.136,0.716
		c0.037,0.008,0.541,0.109,0.541,0.109c4.388,0.889,8.531,1.728,12.507,1.728c4.898,0,9.254-1.31,13.707-4.122
		c0.455-0.296,0.898-0.44,1.354-0.44c1.116,0,2.009,0.846,2.075,1.967c0.002,0.038,0.004,0.078,0.004,0.117v0.013
		c0,0.521-0.176,1.032-0.582,1.706c-2.338,3.838-3.426,7.334-3.426,11.009c0,2.082,0.32,4.032,0.66,6.098
		c0,0,0.137,0.838,0.139,0.854c0.021,0.093,0.344,1.715,0.344,1.715c0.514,2.545,1.001,4.951,1.001,7.388
		c0,2.591-0.571,4.878-1.749,6.992c-0.366,0.653-1.096,1.382-1.777,1.776c-0.005,0.004-0.01,0.008-0.015,0.011
		c-2.144,1.222-4.347,2.114-6.55,2.657c-1.041,0.256-2.109,0.438-3.178,0.552c-0.52,0.055-1.047,0.092-1.564,0.11l-0.76,0.02
		c-0.016,0-0.012,0-0.026,0h-0.178l-0.569-0.005c-3.161-0.065-6.197-0.817-9.133-1.548c-0.826-0.204-1.68-0.416-2.524-0.609
		c-3.065-0.695-6.073-1.033-9.191-1.033c-7.02,0-13.285,1.727-19.917,3.559l-1.767,0.486c-0.009,0.002-0.016,0.004-0.025,0.006
		c-0.245,0.064-0.492,0.1-0.729,0.1C12.051,65.365,10.971,64.299,10.971,62.939 M11.01,62.479v0.002V62.479 M5.604,28.528
		L5.604,28.528L5.604,28.528 M5.583,28.428c-0.001-0.006-0.001-0.008-0.001-0.008S5.582,28.423,5.583,28.428 M5.632,27.351
		C5.632,27.35,5.632,27.35,5.632,27.351C5.632,27.35,5.632,27.349,5.632,27.351"/>
	<path fill="#1BA5C9" d="M8.09,27.453c7.21-3.792,14.145-4.838,20.07-4.348c5.983,0.45,11.243,1.925,16.18,3.006
		c9.982,2.018,18.143,3.836,28.253-2.559c0.229-0.152,0.345-0.157,0.353-0.039c0.008,0.119-0.096,0.357-0.293,0.684
		c-5.034,8.265-3.789,13.722-2.889,19.322c1.043,5.429,2.434,10.098-0.18,14.795c-0.195,0.348-0.676,0.813-1.036,1.021
		c-2.071,1.185-4.075,1.974-6.034,2.453c-0.979,0.237-1.945,0.403-2.906,0.505c-0.479,0.053-0.957,0.083-1.435,0.104
		c-0.237,0.01-0.476,0.016-0.712,0.019c-0.236,0.002-0.475,0-0.712-0.005c-3.784-0.078-7.426-1.23-11.246-2.104
		c-12.163-2.763-21.84,0.291-31.849,3.027c-0.447,0.119-0.75-0.104-0.673-0.518C14.853,52.267,20.189,32.92,7.84,28.26
		c-0.119-0.032-0.202-0.079-0.25-0.135c-0.024-0.027-0.039-0.058-0.045-0.089c-0.006-0.034-0.005-0.067,0.006-0.104
		C7.595,27.788,7.778,27.615,8.09,27.453L8.09,27.453L8.09,27.453L8.09,27.453L8.09,27.453L8.09,27.453z"/>
	
		<linearGradient id="SVGID_32_" gradientUnits="userSpaceOnUse" x1="651.2813" y1="1222.2256" x2="684.9774" y2="1272.1825" gradientTransform="matrix(1 0 0 1 -627 -1206)">
		<stop  offset="0" style="stop-color:#000000;stop-opacity:0"/>
		<stop  offset="0.4385" style="stop-color:#000000;stop-opacity:0.62"/>
		<stop  offset="0.7192" style="stop-color:#000000;stop-opacity:0.14"/>
		<stop  offset="1" style="stop-color:#000000;stop-opacity:0.62"/>
	</linearGradient>
	<path fill="url(#SVGID_32_)" fill-opacity="0.75" d="M7.663,27.453c7.21-3.792,14.145-4.838,20.07-4.348
		c5.982,0.45,11.243,1.925,16.179,3.006c9.982,2.018,18.143,3.836,28.254-2.559c0.229-0.152,0.346-0.157,0.354-0.039
		c0.008,0.118-0.096,0.357-0.293,0.684c-5.035,8.265-3.789,13.722-2.891,19.322c1.044,5.429,2.438,10.098-0.178,14.795
		c-0.197,0.348-0.678,0.813-1.038,1.021c-2.072,1.185-4.074,1.974-6.032,2.453c-0.979,0.237-1.947,0.403-2.906,0.505
		c-0.479,0.053-0.957,0.083-1.435,0.104c-0.238,0.01-0.476,0.016-0.712,0.019c-0.239,0.002-0.477,0-0.711-0.005
		c-3.785-0.078-7.427-1.23-11.246-2.104c-12.164-2.763-21.842,0.291-31.85,3.027c-0.447,0.119-0.75-0.104-0.674-0.518
		c1.87-10.548,7.206-29.896-5.141-34.555c-0.119-0.032-0.202-0.079-0.25-0.135c-0.024-0.027-0.04-0.058-0.046-0.089
		c-0.006-0.034-0.003-0.067,0.006-0.104C7.167,27.788,7.349,27.615,7.663,27.453L7.663,27.453L7.663,27.453L7.663,27.453
		L7.663,27.453L7.663,27.453z"/>
</g>
<g id="phase0">
	
		<linearGradient id="SVGID_33_" gradientUnits="userSpaceOnUse" x1="777.7949" y1="1289.5732" x2="828.4717" y2="1289.5732" gradientTransform="matrix(1 0 0 1 -647 -1206)">
		<stop  offset="0.1654" style="stop-color:#000000;stop-opacity:0.6"/>
		<stop  offset="0.7805" style="stop-color:#000000;stop-opacity:0"/>
	</linearGradient>
	<path fill="url(#SVGID_33_)" d="M181.188,85.186c-0.146,0.965-0.084,1.394-0.271,1.547c-0.021,0.021-0.055,0.033-0.079,0.041
		c-0.017,0.002-0.024,0.004-0.044,0.006c-0.02,0-0.029-0.002-0.049-0.004c-0.066-0.01-0.146-0.045-0.236-0.104
		c-0.188-0.119-0.427,0.092-0.88,0.035c-20.235-1.563-33.89-1.999-46.942-2.13c-0.955,0.131-1.541-0.666-1.793-1.702
		c-0.063-0.262-0.098-0.508-0.098-0.736c0-0.228,0.035-0.438,0.105-0.619c0.074-0.183,0.188-0.334,0.35-0.447
		c0.079-0.059,0.17-0.104,0.271-0.143c0.051-0.019,0.104-0.031,0.162-0.045c0.06-0.014,0.115-0.021,0.183-0.027
		c13.755-0.686,24.265-0.969,48.528,1.336c0.367,0.261,0.623-0.061,0.791,0.184c0.086,0.122,0.146,0.242,0.19,0.367
		c0.021,0.063,0.04,0.125,0.058,0.188c0.014,0.063,0.021,0.127,0.029,0.193C181.514,83.656,181.344,84.284,181.188,85.186
		L181.188,85.186L181.188,85.186L181.188,85.186z"/>
	
		<linearGradient id="SVGID_34_" gradientUnits="userSpaceOnUse" x1="791.1318" y1="1251.7305" x2="764.0804" y2="1267.3486" gradientTransform="matrix(1 0 0 1 -647 -1206)">
		<stop  offset="0" style="stop-color:#3B3B3B"/>
		<stop  offset="0.1001" style="stop-color:#4A4A4A"/>
		<stop  offset="0.5229" style="stop-color:#858585"/>
		<stop  offset="0.8349" style="stop-color:#AAAAAA"/>
		<stop  offset="1" style="stop-color:#B8B8B8"/>
	</linearGradient>
	<path fill="url(#SVGID_34_)" d="M133.154,84.54h-0.014c-0.017,0-0.027,0-0.039-0.002c-2.535-0.062-4.238-1.595-4.238-3.819v-0.055
		c0-0.016,0-0.029,0-0.046c0.092-3.962,0.18-8.187,0.18-12.454c0-11.895-0.618-25.925-5.205-39.816
		c-0.188-0.518-0.426-1.273-0.426-2.061c0-1.486,0.902-3.168,3.438-3.427c0.008-0.002,0.012-0.002,0.012-0.002h-0.002
		c-0.002,0-0.01,0-0.01,0s0,0,0.002,0s0.006,0,0.01,0l0.543-0.027c2.881,0,5.281,2.199,5.769,4.282
		c1.747,6.241,2.95,12.804,3.681,20.054c0.596,5.943,0.873,12.313,0.873,20.048c0,4.574-0.104,9.229-0.201,13.604
		c-0.051,2.229-1.77,3.727-4.271,3.727L133.154,84.54"/>
	
		<linearGradient id="SVGID_35_" gradientUnits="userSpaceOnUse" x1="772.4121" y1="1259.6855" x2="782.7197" y2="1259.6855" gradientTransform="matrix(1 0 0 1 -647 -1206)">
		<stop  offset="0" style="stop-color:#B8B8B8"/>
		<stop  offset="0.304" style="stop-color:#B6B6B6;stop-opacity:0.8541"/>
		<stop  offset="0.4738" style="stop-color:#AEAEAE;stop-opacity:0.7726"/>
		<stop  offset="0.6106" style="stop-color:#A0A0A0;stop-opacity:0.7069"/>
		<stop  offset="0.7297" style="stop-color:#8C8C8C;stop-opacity:0.6497"/>
		<stop  offset="0.8374" style="stop-color:#737373;stop-opacity:0.598"/>
		<stop  offset="0.9354" style="stop-color:#545454;stop-opacity:0.551"/>
		<stop  offset="1" style="stop-color:#3B3B3B;stop-opacity:0.52"/>
	</linearGradient>
	<path fill="url(#SVGID_35_)" d="M127.055,24.848c2.055-0.209,3.91,1.48,4.176,2.753c4.94,17.619,4.703,35.392,4.291,53.172
		c-0.027,1.285-1.086,1.795-2.373,1.767c-1.287-0.03-2.313-0.59-2.287-1.876c0.41-17.779,0.623-35.547-5.129-52.957
		C125.286,26.49,124.998,25.058,127.055,24.848L127.055,24.848L127.055,24.848z"/>
	<path fill="#4E4E4E" d="M127.188,27.07c0,0,2.021-0.381,3.533-0.506c0.26,0.348,0.441,0.707,0.51,1.038
		c0.994,3.543,1.771,7.09,2.388,10.644C130.854,32.763,127.188,27.07,127.188,27.07L127.188,27.07z M135.646,60.754
		c0.08,3.346,0.09,6.691,0.056,10.039c-1.544-4.227-3.146-8.247-3.146-8.247L135.646,60.754L135.646,60.754z"/>
	
		<linearGradient id="SVGID_36_" gradientUnits="userSpaceOnUse" x1="775.043" y1="1248.1777" x2="843.4395" y2="1248.1777" gradientTransform="matrix(1 0 0 1 -647 -1206)">
		<stop  offset="0" style="stop-color:#FFFFFF"/>
		<stop  offset="0.8615" style="stop-color:#000000"/>
	</linearGradient>
	<path fill="url(#SVGID_36_)" d="M133.471,61.938c0,0,0.036-0.385,0.038-0.396c0.2-1.124,0.437-2.338,0.685-3.626
		c0.916-4.685,2.054-10.516,2.054-15.72c0-3.456-0.511-6.307-1.515-8.474c-1.135-2.444-2.896-4.094-5.387-5.042
		c-0.359-0.114-0.652-0.305-0.881-0.563c-0.184-0.207-0.311-0.455-0.375-0.721c-0.002-0.008-0.048-0.397-0.048-0.397
		s0.067-0.473,0.067-0.476V26.52c0-0.003,0.002-0.008,0.006-0.02c0.168-0.563,0.602-1.028,1.287-1.382l-0.01,0.006
		c5.846-3.073,11.909-4.633,18.021-4.633c0.961,0,1.925,0.04,2.867,0.119l-0.016-0.002c4.838,0.364,9.106,1.357,13.237,2.317
		c1.085,0.251,2.112,0.492,3.14,0.716c0.021,0.003,0.551,0.112,0.551,0.112c4.414,0.894,8.58,1.738,12.605,1.738
		c5.002,0,9.446-1.337,13.986-4.209L193.76,21.3c0.24-0.158,0.616-0.372,1.104-0.372c0.85,0,1.523,0.644,1.572,1.496
		c0.002,0.029,0.004,0.059,0.004,0.088v0.013c0,0.423-0.148,0.855-0.51,1.446c-2.388,3.92-3.496,7.499-3.496,11.265
		c0,2.122,0.322,4.093,0.666,6.182c0,0,0.127,0.788,0.137,0.836c0.01,0.037,0.352,1.752,0.352,1.752
		c0.512,2.521,0.991,4.9,0.991,7.289c0,2.503-0.556,4.711-1.688,6.749c-0.002,0.003-0.002,0.009-0.004,0.011
		c-0.322,0.565-0.988,1.23-1.589,1.577c-0.003,0.005-0.008,0.005-0.012,0.009c-2.132,1.215-4.229,2.067-6.419,2.605
		c-1.02,0.251-2.064,0.434-3.11,0.541c-0.509,0.053-1.022,0.088-1.53,0.107l-0.748,0.02c-0.015,0-0.008,0-0.021,0h-0.179
		l-0.563-0.008c-3.104-0.063-6.111-0.811-9.021-1.53c-0.826-0.205-1.686-0.418-2.53-0.61c-3.104-0.705-6.146-1.049-9.304-1.049
		c-7.088,0-13.385,1.736-20.051,3.576l-1.768,0.484c-0.006,0.004-0.012,0.004-0.02,0.006c-0.203,0.055-0.406,0.082-0.604,0.082
		C134.313,63.866,133.471,63.036,133.471,61.938 M133.505,61.555c0,0.004-0.001,0.008-0.001,0.01
		C133.503,61.563,133.503,61.561,133.505,61.555 M133.506,61.544L133.506,61.544L133.506,61.544 M133.508,61.531
		c0-0.004,0.001-0.008,0.001-0.008s0,0.004-0.001,0.011V61.531 M128.09,27.404L128.09,27.404L128.09,27.404 M128.074,27.324
		c0,0,0,0.001,0,0.003C128.074,27.324,128.074,27.324,128.074,27.324 M128.113,26.496v0.002V26.496"/>
	<defs>
		<filter id="Adobe_OpacityMaskFilter_4_" filterUnits="userSpaceOnUse" x="130.23" y="22.184" width="65.199" height="38.296">
			<feColorMatrix  type="matrix" values="1 0 0 0 0  0 1 0 0 0  0 0 1 0 0  0 0 0 1 0"/>
		</filter>
	</defs>
	<mask maskUnits="userSpaceOnUse" x="130.23" y="22.184" width="65.199" height="38.296" id="SVGID_6_">
		<g filter="url(#Adobe_OpacityMaskFilter_4_)">
			<path fill="none" d="M129.993,26.868c7.075-3.722,13.878-4.75,19.694-4.268c5.869,0.44,11.027,1.89,15.875,2.95
				c9.795,1.979,17.801,3.765,27.723-2.513c0.225-0.147,0.339-0.152,0.347-0.037c0.007,0.115-0.093,0.351-0.288,0.671
				c-4.939,8.11-3.718,13.465-2.834,18.963c1.022,5.327,2.389,9.909-0.176,14.521c-0.191,0.339-0.663,0.797-1.018,1.002
				c-2.033,1.16-3.998,1.935-5.92,2.406c-0.961,0.234-1.912,0.396-2.854,0.496c-0.472,0.049-0.938,0.082-1.405,0.1
				c-0.232,0.009-0.469,0.016-0.699,0.018c-0.229,0.002-0.467,0-0.694-0.005c-3.716-0.077-7.287-1.209-11.034-2.065
				c-11.938-2.707-21.434,0.285-31.252,2.978c-0.438,0.112-0.732-0.104-0.662-0.513c1.837-10.351,7.073-29.333-5.045-33.907
				c-0.115-0.032-0.195-0.077-0.245-0.131c-0.021-0.027-0.039-0.058-0.045-0.09c-0.005-0.032-0.003-0.066,0.006-0.101
				C129.507,27.194,129.688,27.026,129.993,26.868L129.993,26.868L129.993,26.868L129.993,26.868L129.993,26.868L129.993,26.868z"/>
		</g>
	</mask>
	<path mask="url(#SVGID_6_)" fill="#FFFFFF" d="M137.139,58.488c0.938-4.813,2.106-10.801,2.106-16.295
		c0-3.951-0.586-7.135-1.792-9.736c-1.113-2.4-2.758-4.262-4.904-5.551c4.859-2.266,9.854-3.413,14.868-3.413
		c0.88,0,1.761,0.036,2.62,0.106c0.004,0.001,0.007,0.001,0.012,0.001c4.605,0.346,8.762,1.313,12.78,2.247
		c1.101,0.256,2.14,0.498,3.19,0.729c0.008,0.002,0.016,0.003,0.021,0.005l0.563,0.114c4.563,0.924,8.873,1.798,13.197,1.798
		c4.15,0,7.947-0.818,11.69-2.542c-1.396,3.105-2.062,6.125-2.062,9.286c0,2.367,0.359,4.553,0.707,6.669l0.139,0.852
		c0.006,0.016,0.008,0.027,0.011,0.045l0.356,1.799c0.479,2.369,0.934,4.606,0.934,6.694c0,2.006-0.415,3.688-1.309,5.291
		l0.006-0.011l0.002-0.004c-0.069,0.115-0.34,0.384-0.485,0.47l0.015-0.008c-1.892,1.077-3.736,1.829-5.65,2.301
		c-0.885,0.218-1.795,0.375-2.701,0.468c-0.441,0.047-0.895,0.079-1.336,0.096c-0.006,0-0.551,0.016-0.678,0.019
		c-0.031,0-0.156,0-0.156,0l-0.508-0.003c-2.76-0.061-5.479-0.729-8.354-1.443c-0.843-0.207-1.711-0.426-2.585-0.623
		c-3.33-0.759-6.59-1.125-9.975-1.125c-7.491,0-14.28,1.873-20.846,3.686c0,0-0.197,0.055-0.269,0.072
		C136.876,59.837,137.006,59.172,137.139,58.488 M130.23,25.813c0.002,0,0.006,0.001,0.008,0.001
		C130.236,25.814,130.234,25.813,130.23,25.813 M195.418,23.806c-0.002,0.001-0.003,0.001-0.005,0.003
		C195.415,23.807,195.416,23.806,195.418,23.806 M195.423,23.803l0.007-0.003C195.43,23.799,195.426,23.801,195.423,23.803
		 M193.498,22.184c0,0,0,0.004-0.004,0.011C193.496,22.188,193.498,22.184,193.498,22.184"/>
	<path fill="#FFFFFF" d="M129.993,26.868c7.075-3.722,13.878-4.75,19.694-4.268c5.869,0.44,11.027,1.89,15.875,2.95
		c9.795,1.979,17.801,3.765,27.723-2.513c0.225-0.147,0.339-0.152,0.347-0.037c0.007,0.115-0.093,0.351-0.288,0.671
		c-4.939,8.11-3.718,13.465-2.834,18.963c1.022,5.327,2.389,9.909-0.176,14.521c-0.191,0.339-0.663,0.797-1.018,1.002
		c-2.033,1.16-3.998,1.935-5.92,2.406c-0.961,0.234-1.912,0.396-2.854,0.496c-0.472,0.049-0.938,0.082-1.405,0.1
		c-0.232,0.009-0.469,0.016-0.699,0.018c-0.229,0.002-0.467,0-0.694-0.005c-3.716-0.077-7.287-1.209-11.034-2.065
		c-11.938-2.707-21.434,0.285-31.252,2.978c-0.438,0.112-0.732-0.104-0.662-0.513c1.837-10.351,7.073-29.333-5.045-33.907
		c-0.115-0.032-0.195-0.077-0.245-0.131c-0.021-0.027-0.039-0.058-0.045-0.09c-0.005-0.032-0.003-0.066,0.006-0.101
		C129.507,27.194,129.688,27.026,129.993,26.868L129.993,26.868L129.993,26.868L129.993,26.868L129.993,26.868L129.993,26.868z"/>
	<defs>
		<filter id="Adobe_OpacityMaskFilter_5_" filterUnits="userSpaceOnUse" x="128.818" y="20.894" width="67.392" height="41.573">
			<feColorMatrix  type="matrix" values="1 0 0 0 0  0 1 0 0 0  0 0 1 0 0  0 0 0 1 0"/>
		</filter>
	</defs>
	<mask maskUnits="userSpaceOnUse" x="128.818" y="20.894" width="67.392" height="41.573" id="SVGID_5_">
		<g filter="url(#Adobe_OpacityMaskFilter_5_)">
			<path fill="#FFFFFF" d="M129.993,26.868c7.075-3.722,13.878-4.75,19.694-4.268c5.869,0.44,11.027,1.89,15.875,2.95
				c9.795,1.979,17.801,3.765,27.723-2.513c0.225-0.147,0.339-0.152,0.347-0.037c0.007,0.115-0.093,0.351-0.288,0.671
				c-4.939,8.11-3.718,13.465-2.834,18.963c1.022,5.327,2.389,9.909-0.176,14.521c-0.191,0.339-0.663,0.797-1.018,1.002
				c-2.033,1.16-3.998,1.935-5.92,2.406c-0.961,0.234-1.912,0.396-2.854,0.496c-0.472,0.049-0.938,0.082-1.405,0.1
				c-0.232,0.009-0.469,0.016-0.699,0.018c-0.229,0.002-0.467,0-0.694-0.005c-3.716-0.077-7.287-1.209-11.034-2.065
				c-11.938-2.707-21.434,0.285-31.252,2.978c-0.438,0.112-0.732-0.104-0.662-0.513c1.837-10.351,7.073-29.333-5.045-33.907
				c-0.115-0.032-0.195-0.077-0.245-0.131c-0.021-0.027-0.039-0.058-0.045-0.09c-0.005-0.032-0.003-0.066,0.006-0.101
				C129.507,27.194,129.688,27.026,129.993,26.868L129.993,26.868L129.993,26.868L129.993,26.868L129.993,26.868L129.993,26.868z"/>
		</g>
	</mask>
	<path mask="url(#SVGID_5_)" d="M146.697,60.23c0.103-0.01,0.207-0.02,0.31-0.025C146.902,60.215,146.803,60.221,146.697,60.23
		L146.697,60.23z M152.542,59.971c-0.099,0-0.194,0-0.292,0.002C152.348,59.971,152.445,59.973,152.542,59.971L152.542,59.971z
		 M195.941,21.631c-0.334,0.56-0.646,1.113-0.939,1.664c-0.104,0.192-0.202,0.385-0.302,0.578c-0.183,0.353-0.36,0.704-0.525,1.052
		c-0.114,0.236-0.224,0.472-0.329,0.706c-0.123,0.271-0.236,0.541-0.352,0.809c-0.12,0.286-0.244,0.574-0.354,0.855
		c-0.021,0.047-0.035,0.092-0.056,0.138c-1.065,2.766-1.662,5.379-1.849,7.82c-3.283,1.405-7.504,1.97-12.035,2.586
		c-0.104-5.4,1.854-9.728,3.279-12.193c2.601-0.369,5.187-1.001,7.719-1.938c0.039-0.014,0.082-0.03,0.119-0.045
		c0.521-0.194,1.045-0.406,1.563-0.629c0.145-0.061,0.282-0.12,0.426-0.183c0.441-0.197,0.887-0.411,1.322-0.63
		c0.164-0.082,0.326-0.156,0.488-0.239c0.587-0.305,1.169-0.627,1.746-0.974c0.221-0.144,0.334-0.147,0.346-0.032
		C196.223,21.088,196.129,21.319,195.941,21.631L195.941,21.631z M169.584,25.64c0.021-0.037,0.038-0.067,0.061-0.103
		c4.187,0.531,8.541,0.653,12.871,0.06c-0.01,0.018-0.018,0.03-0.029,0.048C178.145,26.261,173.777,26.162,169.584,25.64
		L169.584,25.64z M155.245,35.792c0.493-5.871,1.349-9.87,2.104-12.458c2.767,0.5,5.395,1.075,7.938,1.627
		c1.398,0.273,2.838,0.498,4.293,0.679c-1.691,3.011-3.581,7.42-3.729,12.373C162.559,37.367,158.896,36.442,155.245,35.792
		L155.245,35.792z M144.57,22.181L144.57,22.181c1.72-0.103,3.373-0.077,4.935,0.074C147.943,22.104,146.29,22.078,144.57,22.181
		L144.57,22.181z M144.305,35.267c-4.338,0.412-7.896,1.318-9.479,1.777c-0.01-0.032-0.018-0.064-0.024-0.096
		c-0.096-0.404-0.194-0.804-0.308-1.194c-0.145-0.508-0.305-1.004-0.475-1.487c-0.043-0.119-0.088-0.236-0.133-0.353
		c-0.224-0.587-0.478-1.146-0.75-1.687c-0.035-0.067-0.068-0.131-0.105-0.197c-0.637-1.211-1.416-2.288-2.357-3.187
		c-0.011-0.011-0.023-0.022-0.033-0.033c-0.486-0.458-0.998-0.884-1.572-1.244c-0.106-0.042-0.18-0.096-0.219-0.161
		c-0.021-0.032-0.029-0.067-0.031-0.104c-0.002-0.037,0.004-0.076,0.021-0.114c0.06-0.161,0.249-0.344,0.563-0.512
		c0.82-0.444,1.632-0.839,2.438-1.211c0.262-0.119,0.518-0.231,0.771-0.342c0.57-0.249,1.14-0.478,1.701-0.693
		c0.263-0.098,0.521-0.204,0.783-0.295c0.731-0.258,1.459-0.494,2.178-0.7c0.328-0.093,0.648-0.165,0.977-0.249
		c0.42-0.107,0.839-0.21,1.253-0.3c0.392-0.083,0.772-0.16,1.16-0.229c0.323-0.058,0.646-0.108,0.969-0.156
		c0.998-0.149,1.979-0.263,2.938-0.321C144.459,25.022,144.27,29.587,144.305,35.267L144.305,35.267z M155.245,35.792
		c-0.155,1.852-0.276,3.878-0.345,6.113c0.008,2.188,0.021,4.192,0.05,6.042c-2.761-0.289-5.685-0.354-8.96,0.092
		c-0.477,0.07-0.936,0.149-1.387,0.231c-0.004-1.816-0.041-3.733-0.138-5.761c-0.104-2.561-0.149-4.987-0.163-7.242
		c1.522-0.146,3.143-0.231,4.811-0.214C151.105,35.14,153.174,35.424,155.245,35.792L155.245,35.792z M165.857,38.013
		c3.088,0.605,5.854,0.962,7.99,0.609c1.813-0.303,3.604-0.547,5.354-0.784c0.021,1.112,0.121,2.262,0.343,3.458
		c0.656,2.817,1.392,5.196,1.687,7.863c-2.307,0.373-4.724,0.69-7.215,0.907c-2.373,0.16-4.574,0.043-6.703-0.202
		c-0.051-2.285-0.317-4.623-0.971-6.779C165.932,41.354,165.809,39.658,165.857,38.013L165.857,38.013z M193.172,47.532
		c0.563,3.148,0.512,6.118-1.25,8.975c-0.21,0.339-0.73,2.315-1.13,2.505c-2.28,1.059-4.538,1.104-6.769,1.68
		c-1.115,0.289-2.021,0.156-3.127,0.328c-0.344,0.053-1.062,0.08-1.402,0.123c1.658-5.018,2.081-8.894,1.736-11.98
		c4.49-0.724,8.537-1.662,11.756-2.538C193.057,46.927,193.111,47.229,193.172,47.532L193.172,47.532z M179.023,60.844
		c0.211-0.021,0.422-0.057,0.633-0.082l0,0C179.445,60.787,179.234,60.82,179.023,60.844L179.023,60.844z M166.247,60.695
		c-0.858-0.063-1.718-0.129-2.583-0.193c-1.367-0.117-2.736-0.219-4.107-0.305c-0.074-0.006-0.145-0.01-0.219-0.016
		c-1.376-0.084-2.758-0.148-4.134-0.188c-0.071-2.773-0.187-6.729-0.254-12.051c4.286,0.448,8.185,1.433,12.362,1.916
		C167.404,54.198,166.697,58.329,166.247,60.695L166.247,60.695z M144.063,60.525L144.063,60.525c0,0,0.004,0,0.006,0
		C144.064,60.525,144.064,60.525,144.063,60.525L144.063,60.525z M144.032,60.529c-0.634,0.088-1.269,0.188-1.899,0.302
		c-0.145,0.024-0.289,0.054-0.434,0.08c-0.502,0.093-1.004,0.194-1.504,0.303c-0.196,0.044-0.396,0.085-0.588,0.13
		c-0.461,0.107-0.924,0.225-1.383,0.348c-0.199,0.056-0.397,0.104-0.6,0.156c-0.643,0.18-1.275,0.371-1.916,0.584
		c-0.396,0.119-0.706-0.074-0.686-0.457c0.156-3.021,0.525-6.894,0.691-10.972c2.035-0.937,5.02-2.036,8.883-2.732
		c0.008,5.115-0.283,9.333-0.543,12.254C144.053,60.527,144.042,60.529,144.032,60.529L144.032,60.529z M157.366,23.28
		c-0.007,0.02-0.011,0.036-0.017,0.055c-2.481-0.449-5.072-0.841-7.849-1.08C152.281,22.496,154.878,22.858,157.366,23.28
		L157.366,23.28z M167.76,60.8c-0.47-0.032-0.941-0.063-1.414-0.098C166.818,60.736,167.288,60.768,167.76,60.8L167.76,60.8z
		 M169.848,60.93c0.4,0.023,0.801,0.043,1.199,0.063C170.648,60.973,170.248,60.953,169.848,60.93L169.848,60.93z M174.23,61.066
		c-0.332-0.002-0.67-0.012-1.006-0.02C173.563,61.057,173.898,61.066,174.23,61.066L174.23,61.066z"/>
	
		<linearGradient id="SVGID_37_" gradientUnits="userSpaceOnUse" x1="793.2988" y1="1221.8506" x2="826.3656" y2="1270.8738" gradientTransform="matrix(1 0 0 1 -647 -1206)">
		<stop  offset="0" style="stop-color:#000000;stop-opacity:0"/>
		<stop  offset="0.4385" style="stop-color:#000000;stop-opacity:0.62"/>
		<stop  offset="0.7192" style="stop-color:#000000;stop-opacity:0.14"/>
		<stop  offset="1" style="stop-color:#000000;stop-opacity:0.62"/>
	</linearGradient>
	<path fill="url(#SVGID_37_)" fill-opacity="0.75" d="M129.993,26.868c7.075-3.722,13.878-4.75,19.694-4.268
		c5.869,0.44,11.027,1.89,15.875,2.95c9.795,1.979,17.801,3.765,27.723-2.513c0.225-0.147,0.339-0.152,0.347-0.037
		c0.007,0.115-0.093,0.351-0.288,0.671c-4.939,8.11-3.718,13.465-2.834,18.963c1.022,5.327,2.389,9.909-0.176,14.521
		c-0.191,0.339-0.663,0.797-1.018,1.002c-2.033,1.16-3.998,1.935-5.92,2.406c-0.961,0.234-1.912,0.396-2.854,0.496
		c-0.472,0.049-0.938,0.082-1.405,0.1c-0.232,0.009-0.469,0.016-0.699,0.018c-0.229,0.002-0.467,0-0.694-0.005
		c-3.716-0.077-7.287-1.209-11.034-2.065c-11.938-2.707-21.434,0.285-31.252,2.978c-0.438,0.112-0.732-0.104-0.662-0.513
		c1.837-10.351,7.073-29.333-5.045-33.907c-0.115-0.032-0.195-0.077-0.245-0.131c-0.021-0.027-0.039-0.058-0.045-0.09
		c-0.005-0.032-0.003-0.066,0.006-0.101C129.507,27.194,129.688,27.026,129.993,26.868L129.993,26.868L129.993,26.868
		L129.993,26.868L129.993,26.868L129.993,26.868z"/>
	
		<linearGradient id="SVGID_38_" gradientUnits="userSpaceOnUse" x1="635.7949" y1="1290.5732" x2="686.4736" y2="1290.5732" gradientTransform="matrix(1 0 0 1 -627 -1206)">
		<stop  offset="0.1654" style="stop-color:#000000;stop-opacity:0.6"/>
		<stop  offset="0.7805" style="stop-color:#000000;stop-opacity:0"/>
	</linearGradient>
	<path fill="url(#SVGID_38_)" d="M59.188,86.186c-0.146,0.965-0.082,1.394-0.274,1.547c-0.022,0.021-0.05,0.033-0.078,0.041
		c-0.015,0.002-0.028,0.004-0.045,0.006c-0.015,0-0.03-0.002-0.048-0.004c-0.064-0.01-0.145-0.045-0.237-0.104
		c-0.185-0.119-0.426,0.092-0.879,0.035c-20.24-1.563-33.887-1.999-46.945-2.13c-0.953,0.131-1.542-0.666-1.792-1.702
		c-0.063-0.262-0.096-0.508-0.096-0.736c0.001-0.229,0.035-0.438,0.109-0.619c0.074-0.183,0.188-0.334,0.346-0.447
		c0.08-0.059,0.17-0.104,0.272-0.143c0.05-0.019,0.104-0.031,0.162-0.045c0.056-0.014,0.117-0.021,0.18-0.027
		c13.755-0.686,24.264-0.969,48.531,1.336c0.371,0.261,0.623-0.061,0.791,0.184c0.086,0.122,0.147,0.242,0.192,0.367
		c0.022,0.063,0.04,0.125,0.054,0.188c0.016,0.063,0.026,0.127,0.032,0.193c0.054,0.531-0.114,1.161-0.271,2.063l0,0h-0.004V86.186z
		"/>
	
		<linearGradient id="SVGID_39_" gradientUnits="userSpaceOnUse" x1="649.1289" y1="1252.7295" x2="622.0772" y2="1268.3478" gradientTransform="matrix(1 0 0 1 -627 -1206)">
		<stop  offset="0" style="stop-color:#3B3B3B"/>
		<stop  offset="0.1001" style="stop-color:#4A4A4A"/>
		<stop  offset="0.5229" style="stop-color:#858585"/>
		<stop  offset="0.8349" style="stop-color:#AAAAAA"/>
		<stop  offset="1" style="stop-color:#B8B8B8"/>
	</linearGradient>
	<path fill="url(#SVGID_39_)" d="M11.154,85.54h-0.015c-0.013,0-0.027,0-0.038-0.002c-2.536-0.062-4.239-1.595-4.239-3.819v-0.055
		c0-0.016,0-0.029,0.001-0.046c0.091-3.964,0.179-8.192,0.179-12.464c0-11.885-0.618-25.907-5.2-39.794
		c-0.203-0.557-0.431-1.291-0.431-2.076c0-1.488,0.903-3.169,3.44-3.425c0.008-0.002,0.011-0.002,0.011-0.002s0,0-0.001,0
		c-0.003,0-0.01,0-0.01,0s0,0,0.002,0c0.001,0,0.005,0,0.009,0l0.542-0.027c2.878,0,5.282,2.199,5.766,4.282
		c1.747,6.241,2.95,12.804,3.677,20.054c0.596,5.943,0.873,12.314,0.873,20.048c0,4.574-0.1,9.229-0.2,13.604
		c-0.051,2.227-1.767,3.723-4.268,3.723L11.154,85.54"/>
	
		<linearGradient id="SVGID_40_" gradientUnits="userSpaceOnUse" x1="630.4131" y1="1260.6855" x2="640.7197" y2="1260.6855" gradientTransform="matrix(1 0 0 1 -627 -1206)">
		<stop  offset="0" style="stop-color:#B8B8B8"/>
		<stop  offset="0.304" style="stop-color:#B6B6B6;stop-opacity:0.8541"/>
		<stop  offset="0.4738" style="stop-color:#AEAEAE;stop-opacity:0.7726"/>
		<stop  offset="0.6106" style="stop-color:#A0A0A0;stop-opacity:0.7069"/>
		<stop  offset="0.7297" style="stop-color:#8C8C8C;stop-opacity:0.6497"/>
		<stop  offset="0.8374" style="stop-color:#737373;stop-opacity:0.598"/>
		<stop  offset="0.9354" style="stop-color:#545454;stop-opacity:0.551"/>
		<stop  offset="1" style="stop-color:#3B3B3B;stop-opacity:0.52"/>
	</linearGradient>
	<path fill="url(#SVGID_40_)" d="M5.054,25.848c2.056-0.209,3.911,1.48,4.177,2.753c4.94,17.619,4.702,35.392,4.29,53.172
		c-0.03,1.285-1.085,1.795-2.372,1.767c-1.288-0.03-2.317-0.59-2.287-1.876c0.41-17.779,0.623-35.547-5.128-52.957
		C3.287,27.49,2.997,26.058,5.054,25.848L5.054,25.848L5.054,25.848z"/>
	<path fill="#4E4E4E" d="M5.187,28.07c0,0,2.018-0.381,3.533-0.506c0.261,0.348,0.442,0.707,0.511,1.038
		c0.993,3.541,1.768,7.087,2.383,10.639C8.853,33.76,5.187,28.07,5.187,28.07L5.187,28.07z M13.646,61.754
		c0.08,3.346,0.09,6.688,0.056,10.035c-1.544-4.227-3.144-8.243-3.144-8.243L13.646,61.754L13.646,61.754z"/>
	
		<linearGradient id="SVGID_41_" gradientUnits="userSpaceOnUse" x1="632.541" y1="1249.1816" x2="701.9453" y2="1249.1816" gradientTransform="matrix(1 0 0 1 -627 -1206)">
		<stop  offset="0" style="stop-color:#63C3DB"/>
		<stop  offset="1" style="stop-color:#1BA5C9"/>
	</linearGradient>
	<path fill="url(#SVGID_41_)" d="M10.971,62.939l0.045-0.487c0-0.001,0-0.001,0-0.003v-0.004c0-0.002,0.001-0.004,0.001-0.006
		c0.2-1.123,0.436-2.334,0.686-3.614c0.91-4.667,2.04-10.474,2.04-15.632c0-3.384-0.493-6.165-1.467-8.262
		c-1.068-2.306-2.726-3.866-5.064-4.77c-0.573-0.179-0.937-0.495-1.14-0.733l0.019,0.021c-0.237-0.267-0.402-0.589-0.487-0.934
		c-0.001-0.011-0.063-0.517-0.063-0.517s0.086-0.61,0.086-0.613v-0.002c0-0.001,0.001-0.004,0.001-0.006
		c0.002-0.005,0.003-0.011,0.007-0.019c0.208-0.695,0.724-1.26,1.534-1.68L7.16,25.684c5.917-3.114,12.059-4.691,18.257-4.691
		c0.974,0,1.952,0.04,2.908,0.118H28.31c4.874,0.367,9.163,1.363,13.311,2.329c1.085,0.251,2.111,0.49,3.136,0.716
		c0.037,0.008,0.541,0.109,0.541,0.109c4.388,0.889,8.531,1.728,12.507,1.728c4.898,0,9.254-1.31,13.707-4.122
		c0.455-0.296,0.898-0.44,1.354-0.44c1.116,0,2.009,0.846,2.075,1.967c0.002,0.038,0.004,0.078,0.004,0.117v0.013
		c0,0.521-0.176,1.032-0.582,1.706c-2.338,3.838-3.426,7.334-3.426,11.009c0,2.082,0.32,4.032,0.66,6.098
		c0,0,0.137,0.838,0.139,0.854c0.021,0.093,0.344,1.715,0.344,1.715c0.514,2.545,1.001,4.951,1.001,7.388
		c0,2.591-0.571,4.878-1.749,6.992c-0.366,0.653-1.096,1.382-1.777,1.776c-0.005,0.004-0.01,0.008-0.015,0.011
		c-2.144,1.222-4.347,2.114-6.55,2.657c-1.041,0.256-2.109,0.438-3.178,0.552c-0.52,0.055-1.047,0.092-1.564,0.11l-0.76,0.02
		c-0.016,0-0.012,0-0.026,0h-0.178l-0.569-0.005c-3.161-0.065-6.197-0.817-9.133-1.548c-0.826-0.204-1.68-0.416-2.524-0.609
		c-3.065-0.695-6.073-1.033-9.191-1.033c-7.02,0-13.285,1.727-19.917,3.559l-1.767,0.486c-0.009,0.002-0.016,0.004-0.025,0.006
		c-0.245,0.064-0.492,0.1-0.729,0.1C12.051,65.365,10.971,64.299,10.971,62.939 M11.01,62.479v0.002V62.479 M5.604,28.528
		L5.604,28.528L5.604,28.528 M5.583,28.428c-0.001-0.006-0.001-0.008-0.001-0.008S5.582,28.423,5.583,28.428 M5.632,27.351
		C5.632,27.35,5.632,27.35,5.632,27.351C5.632,27.35,5.632,27.349,5.632,27.351"/>
	<path fill="#1BA5C9" d="M8.09,27.453c7.21-3.792,14.145-4.838,20.07-4.348c5.983,0.45,11.243,1.925,16.18,3.006
		c9.982,2.018,18.143,3.836,28.253-2.559c0.229-0.152,0.345-0.157,0.353-0.039c0.008,0.119-0.096,0.357-0.293,0.684
		c-5.034,8.265-3.789,13.722-2.889,19.322c1.043,5.429,2.434,10.098-0.18,14.795c-0.195,0.348-0.676,0.813-1.036,1.021
		c-2.071,1.185-4.075,1.974-6.034,2.453c-0.979,0.237-1.945,0.403-2.906,0.505c-0.479,0.053-0.957,0.083-1.435,0.104
		c-0.237,0.01-0.476,0.016-0.712,0.019c-0.236,0.002-0.475,0-0.712-0.005c-3.784-0.078-7.426-1.23-11.246-2.104
		c-12.163-2.763-21.84,0.291-31.849,3.027c-0.447,0.119-0.75-0.104-0.673-0.518C14.853,52.267,20.189,32.92,7.84,28.26
		c-0.119-0.032-0.202-0.079-0.25-0.135c-0.024-0.027-0.039-0.058-0.045-0.089c-0.006-0.034-0.005-0.067,0.006-0.104
		C7.595,27.788,7.778,27.615,8.09,27.453L8.09,27.453L8.09,27.453L8.09,27.453L8.09,27.453L8.09,27.453z"/>
	
		<linearGradient id="SVGID_42_" gradientUnits="userSpaceOnUse" x1="651.2813" y1="1222.2256" x2="684.9774" y2="1272.1825" gradientTransform="matrix(1 0 0 1 -627 -1206)">
		<stop  offset="0" style="stop-color:#000000;stop-opacity:0"/>
		<stop  offset="0.4385" style="stop-color:#000000;stop-opacity:0.62"/>
		<stop  offset="0.7192" style="stop-color:#000000;stop-opacity:0.14"/>
		<stop  offset="1" style="stop-color:#000000;stop-opacity:0.62"/>
	</linearGradient>
	<path fill="url(#SVGID_42_)" fill-opacity="0.75" d="M7.663,27.453c7.21-3.792,14.145-4.838,20.07-4.348
		c5.982,0.45,11.243,1.925,16.179,3.006c9.982,2.018,18.143,3.836,28.254-2.559c0.229-0.152,0.346-0.157,0.354-0.039
		c0.008,0.118-0.096,0.357-0.293,0.684c-5.035,8.265-3.789,13.722-2.891,19.322c1.044,5.429,2.438,10.098-0.178,14.795
		c-0.197,0.348-0.678,0.813-1.038,1.021c-2.072,1.185-4.074,1.974-6.032,2.453c-0.979,0.237-1.947,0.403-2.906,0.505
		c-0.479,0.053-0.957,0.083-1.435,0.104c-0.238,0.01-0.476,0.016-0.712,0.019c-0.239,0.002-0.477,0-0.711-0.005
		c-3.785-0.078-7.427-1.23-11.246-2.104c-12.164-2.763-21.842,0.291-31.85,3.027c-0.447,0.119-0.75-0.104-0.674-0.518
		c1.87-10.548,7.206-29.896-5.141-34.555c-0.119-0.032-0.202-0.079-0.25-0.135c-0.024-0.027-0.04-0.058-0.046-0.089
		c-0.006-0.034-0.003-0.067,0.006-0.104C7.167,27.788,7.349,27.615,7.663,27.453L7.663,27.453L7.663,27.453L7.663,27.453
		L7.663,27.453L7.663,27.453z"/>
	<path fill="#A43C11" d="M92.609,90.029c-0.692-0.332-1.133-1.032-1.133-1.801c0,0,0-6.121,0-8.771c-2.681,0-9.018,0-9.018,0
		c-1.104,0-2-0.896-2-2.001V61.462c0-1.104,0.896-2,2-2c0,0,6.337,0,9.018,0c0-2.618,0-8.48,0-8.48c0-0.758,0.428-1.45,1.104-1.789
		c0.282-0.141,0.589-0.211,0.896-0.211c0.424,0,0.846,0.135,1.197,0.399l24.07,18.02c0.497,0.373,0.793,0.951,0.803,1.57
		c0,0.01,0,0.021,0,0.029c0,0.609-0.276,1.186-0.753,1.564L94.725,89.791c-0.363,0.289-0.804,0.438-1.248,0.438
		C93.184,90.229,92.887,90.163,92.609,90.029"/>
	
		<linearGradient id="SVGID_43_" gradientUnits="userSpaceOnUse" x1="727.0039" y1="1294.2285" x2="727.0039" y2="1256.9824" gradientTransform="matrix(1 0 0 1 -627 -1206)">
		<stop  offset="0" style="stop-color:#F6DF30"/>
		<stop  offset="0.1758" style="stop-color:#FCCD23"/>
		<stop  offset="0.4969" style="stop-color:#F9B211"/>
		<stop  offset="0.782" style="stop-color:#F8A20F"/>
		<stop  offset="1" style="stop-color:#F79C0F"/>
	</linearGradient>
	<polygon fill="url(#SVGID_43_)" points="93.477,88.229 117.548,69.002 93.477,50.982 93.477,61.462 82.46,61.462 82.46,77.456 
		93.477,77.456 	"/>
	
		<linearGradient id="SVGID_44_" gradientUnits="userSpaceOnUse" x1="726.3691" y1="1276.043" x2="726.3691" y2="1259.9766" gradientTransform="matrix(1 0 0 1 -627 -1206)">
		<stop  offset="0" style="stop-color:#FFFFFF;stop-opacity:0"/>
		<stop  offset="1" style="stop-color:#FFFFFF;stop-opacity:0.8"/>
	</linearGradient>
	<path fill="url(#SVGID_44_)" d="M84.46,69.912c0-1.999,0-5.27,0-7.449c2.681,0,9.017,0,9.017,0c1.105,0,2.002-0.896,2.002-2
		c0,0,0-3.426,0-6.486c4.332,3.244,15.843,11.864,18.8,14.078c-0.229,0.184-0.322,0.258-0.491,0.396
		c-3.916-0.713-7.367-1.068-10.271-1.068c-2.785,0-4.979,0.325-6.712,0.994c-2.904,1.121-5.988,1.666-9.428,1.666
		C86.434,70.04,85.458,69.997,84.46,69.912"/>
</g>
</svg>
