<?xml version="1.0" encoding="utf-8"?>
<!-- Generator: Adobe Illustrator 17.0.0, SVG Export Plug-In . SVG Version: 6.00 Build 0)  -->
<!DOCTYPE svg PUBLIC "-//W3C//DTD SVG 1.1//EN" "http://www.w3.org/Graphics/SVG/1.1/DTD/svg11.dtd">
<svg version="1.1" xmlns="http://www.w3.org/2000/svg" xmlns:xlink="http://www.w3.org/1999/xlink" x="0px" y="0px" width="114px"
	 height="114px" viewBox="0 0 114 114" enable-background="new 0 0 114 114" xml:space="preserve">
<g id="normal">
	<path fill-rule="evenodd" clip-rule="evenodd" fill="#A6A6A6" d="M47.351,52.985c3.221,3.748,5.2,8.719,5.2,14.191
		c0,9.575-6.015,17.647-14.247,20.216l-0.838,4.699h26.425V49.859h6.123v42.232h26.425l-7.532-42.232h13.629v-4.021H88.189
		l-3.946-22.123H70.014v22.123h-6.123V23.714h-7.596c2.641,3.179,4.228,7.248,4.228,11.685
		C60.523,43.693,54.972,50.682,47.351,52.985L47.351,52.985z"/>
	<path fill-rule="evenodd" clip-rule="evenodd" fill="#A6A6A6" d="M29.974,46.236c0.846-0.117,1.701-0.197,2.578-0.197
		c4.681,0,8.948,1.723,12.22,4.547l0.306-0.682c6.438-1.869,11.142-7.747,11.142-14.72c0-8.477-6.944-15.349-15.511-15.349
		c-8.568,0-15.512,6.872-15.512,15.349C25.197,39.534,27.034,43.448,29.974,46.236L29.974,46.236z"/>
	<polygon fill-rule="evenodd" clip-rule="evenodd" fill="#A6A6A6" points="30.604,95.782 36.477,82.708 24.705,82.651 
		30.604,95.782 	"/>
	<path fill-rule="evenodd" clip-rule="evenodd" fill="#A6A6A6" d="M30.421,85.507c10.058,0,18.211-8.067,18.211-18.017
		c0-9.952-8.153-18.019-18.211-18.019c-10.058,0-18.211,8.067-18.211,18.019C12.21,77.44,20.364,85.507,30.421,85.507L30.421,85.507
		z"/>
</g>
<g id="active">
	<path fill-rule="evenodd" clip-rule="evenodd" fill="#A6A6A6" d="M47.351,52.985c3.221,3.748,5.2,8.719,5.2,14.191
		c0,9.575-6.015,17.647-14.247,20.216l-0.838,4.699h26.425V49.859h6.123v42.232h26.425l-7.532-42.232h13.629v-4.021H88.189
		l-3.946-22.123H70.014v22.123h-6.123V23.714h-7.596c2.641,3.179,4.228,7.248,4.228,11.685
		C60.523,43.693,54.972,50.682,47.351,52.985L47.351,52.985z"/>
	<path fill-rule="evenodd" clip-rule="evenodd" fill="#A6A6A6" d="M29.974,46.236c0.846-0.117,1.701-0.197,2.578-0.197
		c4.681,0,8.948,1.723,12.22,4.547l0.306-0.682c6.438-1.869,11.142-7.747,11.142-14.72c0-8.477-6.944-15.349-15.511-15.349
		c-8.568,0-15.512,6.872-15.512,15.349C25.197,39.534,27.034,43.448,29.974,46.236L29.974,46.236z"/>
	<polygon fill-rule="evenodd" clip-rule="evenodd" fill="#A6A6A6" points="30.604,95.782 36.477,82.708 24.705,82.651 
		30.604,95.782 	"/>
	<path fill-rule="evenodd" clip-rule="evenodd" fill="#A6A6A6" d="M30.421,85.507c10.058,0,18.211-8.067,18.211-18.017
		c0-9.952-8.153-18.019-18.211-18.019c-10.058,0-18.211,8.067-18.211,18.019C12.21,77.44,20.364,85.507,30.421,85.507L30.421,85.507
		z"/>
</g>
<g id="disabled" opacity="0.6">
	<g>
		<g>
			<path fill-rule="evenodd" clip-rule="evenodd" fill="#A6A6A6" d="M102.536,45.837H88.19l-3.946-22.123H70.014v22.123h-6.123
				V23.714h-7.596c2.641,3.179,4.228,7.248,4.228,11.685c0,8.294-5.551,15.283-13.172,17.586c3.221,3.748,5.2,8.719,5.2,14.191
				c0,9.575-6.015,17.647-14.247,20.216l-0.838,4.699l26.425,0V49.859h6.123l0,42.232h26.425l-7.532-42.232h13.629V45.837z
				 M32.553,46.039c4.681,0,8.948,1.723,12.22,4.547l0.306-0.682c6.438-1.869,11.142-7.747,11.142-14.719
				c0-8.477-6.944-15.349-15.511-15.349c-8.568,0-15.512,6.872-15.512,15.349c0,4.35,1.837,8.264,4.777,11.052
				C30.82,46.119,31.675,46.039,32.553,46.039z M48.632,67.49c0-9.952-8.153-18.019-18.211-18.019
				c-10.058,0-18.211,8.067-18.211,18.019c0,8.333,5.727,15.326,13.494,17.385l4.9,10.908L35.55,84.77
				C43.108,82.577,48.632,75.676,48.632,67.49z"/>
		</g>
	</g>
</g>
</svg>
