<svg id="svg" version="1.1" xmlns="http://www.w3.org/2000/svg" xmlns:xlink="http://www.w3.org/1999/xlink" width="400" height="452.48226950354615" viewBox="0, 0, 400,452.48226950354615"><g id="svgg"><path id="path0" d="M198.000 24.000 L 198.000 26.400 195.572 26.400 C 191.958 26.400,192.074 28.131,195.700 28.320 L 198.000 28.440 198.000 30.420 C 198.000 32.265,198.068 32.400,199.000 32.400 C 199.933 32.400,200.000 32.267,200.000 30.400 L 200.000 28.400 202.400 28.400 C 206.037 28.400,206.128 26.509,202.500 26.320 L 200.200 26.200 200.080 23.900 C 199.891 20.272,198.000 20.363,198.000 24.000 M197.478 34.044 C 196.565 34.575,195.905 36.271,196.222 37.270 C 196.665 38.664,201.758 38.161,201.926 36.708 C 202.172 34.569,199.414 32.918,197.478 34.044 M181.168 36.025 C 171.747 37.511,168.841 46.386,174.006 57.900 C 175.526 61.288,175.139 61.167,178.858 59.413 C 182.475 57.707,185.432 56.916,190.500 56.299 L 194.400 55.824 194.400 47.943 L 194.400 40.062 192.121 38.636 C 188.656 36.469,184.556 35.491,181.168 36.025 M212.800 36.033 C 210.174 36.451,207.903 37.322,205.617 38.789 L 203.600 40.083 203.600 47.984 L 203.600 55.885 206.377 56.143 C 211.666 56.635,216.575 58.025,222.233 60.634 C 223.196 61.078,226.212 53.110,226.641 48.990 C 227.477 40.962,220.844 34.753,212.800 36.033 M195.882 39.451 C 195.727 39.606,195.600 43.554,195.600 48.224 C 195.600 57.654,195.741 57.200,192.811 57.200 C 189.174 57.200,181.496 59.213,177.651 61.174 L 175.918 62.058 176.179 63.929 C 176.788 68.291,176.831 68.412,177.608 67.995 C 178.417 67.563,183.344 65.993,187.000 65.004 C 195.344 62.745,213.717 64.469,219.854 68.085 C 221.321 68.950,221.339 68.918,221.823 64.533 L 222.096 62.065 220.356 61.177 C 216.452 59.186,208.855 57.208,205.056 57.194 C 202.351 57.184,202.427 57.442,202.308 47.981 L 202.200 39.400 199.182 39.285 C 197.522 39.221,196.037 39.296,195.882 39.451 M193.565 65.268 C 189.698 65.550,184.488 66.651,181.890 67.736 C 177.169 69.709,179.416 83.597,185.500 90.047 C 188.385 93.105,188.668 93.218,189.970 91.832 C 190.470 91.300,191.402 90.648,192.041 90.383 C 192.681 90.118,193.429 89.429,193.704 88.851 C 193.979 88.273,194.597 87.627,195.077 87.416 C 196.792 86.662,197.140 76.034,195.500 74.495 C 193.019 72.165,188.696 71.402,185.040 72.648 C 182.626 73.471,181.778 72.898,183.546 71.638 C 186.923 69.233,190.663 68.852,194.147 70.557 C 197.471 72.183,197.400 71.980,197.400 79.901 L 197.400 86.880 195.808 88.217 C 194.665 89.177,194.383 89.608,194.808 89.745 C 199.794 91.348,205.701 90.082,202.200 88.161 C 200.411 87.179,199.591 74.139,201.196 72.205 C 203.959 68.875,212.448 68.884,215.216 72.219 C 216.048 73.221,215.301 73.378,213.060 72.672 C 209.030 71.401,205.042 72.122,202.602 74.561 C 200.632 76.531,201.213 86.429,203.366 87.582 C 203.947 87.893,204.526 88.564,204.654 89.073 C 204.782 89.583,205.027 90.000,205.198 90.000 C 205.370 90.000,206.439 90.639,207.574 91.420 L 209.638 92.839 210.867 91.805 C 216.834 86.784,219.591 78.371,218.073 69.816 C 217.521 66.709,205.196 64.422,193.565 65.268 M178.022 69.101 C 177.148 69.810,177.141 69.885,177.655 73.211 L 178.178 76.600 178.648 72.600 C 179.186 68.031,179.206 68.143,178.022 69.101 M219.343 70.700 C 219.480 71.525,219.617 73.370,219.648 74.800 L 219.705 77.400 220.305 73.656 C 220.814 70.479,220.821 69.859,220.352 69.562 C 219.335 68.918,219.094 69.190,219.343 70.700 M192.209 71.113 C 192.847 71.659,194.870 72.437,194.626 72.042 C 194.503 71.842,193.820 71.476,193.110 71.229 C 192.399 70.981,191.994 70.929,192.209 71.113 M205.200 71.218 C 204.762 71.515,204.924 71.552,205.800 71.356 C 207.271 71.027,207.590 70.798,206.567 70.806 C 206.145 70.809,205.530 70.995,205.200 71.218 M191.854 73.967 C 193.131 74.746,195.200 77.157,195.200 77.867 C 195.200 78.565,191.757 80.000,190.082 80.000 C 187.124 80.000,182.883 77.146,183.943 75.869 C 185.717 73.732,189.841 72.740,191.854 73.967 M212.339 74.686 C 214.727 76.166,214.743 76.423,212.559 78.212 C 210.120 80.210,207.396 80.554,204.624 79.212 C 202.456 78.162,202.385 77.700,204.093 75.756 C 206.556 72.950,209.022 72.630,212.339 74.686 M176.400 76.460 C 176.400 78.116,177.614 82.828,178.548 84.800 C 178.913 85.570,179.133 85.906,179.037 85.547 C 178.940 85.188,178.382 82.758,177.797 80.147 C 176.636 74.969,176.400 74.347,176.400 76.460 M220.340 79.800 C 219.757 82.440,219.161 84.960,219.015 85.400 C 218.862 85.859,219.011 85.751,219.363 85.146 C 220.327 83.491,221.661 78.155,221.524 76.500 C 221.427 75.320,221.174 76.025,220.340 79.800 M188.772 76.234 C 188.071 77.079,188.771 78.200,190.000 78.200 C 191.363 78.200,192.014 76.912,191.024 76.177 C 190.022 75.433,189.424 75.448,188.772 76.234 M206.976 76.177 C 205.986 76.912,206.637 78.200,208.000 78.200 C 209.229 78.200,209.929 77.079,209.228 76.234 C 208.576 75.448,207.978 75.433,206.976 76.177 M186.012 76.384 C 185.688 76.589,185.508 76.813,185.612 76.883 C 185.715 76.952,186.179 77.326,186.643 77.715 C 187.471 78.408,187.485 78.399,187.443 77.211 C 187.399 75.960,187.024 75.744,186.012 76.384 M210.486 77.246 L 210.451 78.492 211.430 77.572 C 212.159 76.887,212.280 76.571,211.904 76.332 C 210.950 75.727,210.522 76.003,210.486 77.246 M192.400 77.787 C 192.400 78.144,192.635 78.285,192.998 78.146 C 193.326 78.019,193.496 77.755,193.374 77.558 C 193.025 76.993,192.400 77.140,192.400 77.787 M204.626 77.558 C 204.504 77.755,204.674 78.019,205.002 78.146 C 205.365 78.285,205.600 78.144,205.600 77.787 C 205.600 77.140,204.975 76.993,204.626 77.558 M180.404 85.251 C 180.402 85.389,180.715 86.199,181.100 87.051 C 181.689 88.354,181.835 90.281,182.018 99.200 C 182.373 116.506,184.667 119.200,199.043 119.200 C 213.469 119.200,216.000 116.120,216.000 98.566 C 216.000 90.555,216.080 89.480,216.800 87.800 C 217.937 85.147,217.803 85.108,216.127 87.605 C 215.316 88.812,213.707 90.727,212.550 91.860 L 210.446 93.920 211.223 95.964 C 212.427 99.131,212.243 110.000,210.987 110.000 C 210.678 110.000,210.303 108.971,210.020 107.345 C 209.107 102.105,207.187 99.665,203.694 99.306 C 202.447 99.178,201.316 98.733,200.383 98.004 L 198.966 96.896 197.677 98.048 C 196.789 98.841,195.962 99.200,195.020 99.200 C 191.072 99.200,188.441 102.148,187.436 107.700 C 186.955 110.351,186.101 109.555,185.783 106.158 C 185.426 102.345,185.803 98.527,186.796 95.915 L 187.562 93.898 185.157 91.493 C 183.835 90.171,182.225 88.169,181.580 87.044 C 180.935 85.920,180.406 85.113,180.404 85.251 M192.418 91.524 C 189.031 93.269,187.202 96.549,186.939 101.351 L 186.761 104.600 187.506 103.200 C 189.473 99.499,190.618 98.611,193.999 98.162 C 196.996 97.765,198.400 96.388,198.400 93.845 C 198.400 91.278,195.260 90.060,192.418 91.524 M200.688 91.522 C 197.594 93.006,200.004 97.658,204.134 98.174 C 206.933 98.524,208.769 99.945,209.865 102.609 C 210.956 105.262,211.350 104.810,211.073 101.221 C 210.505 93.853,205.524 89.202,200.688 91.522 M176.512 102.028 C 172.699 102.768,166.020 104.661,165.509 105.146 C 165.349 105.298,172.760 112.962,181.977 122.177 L 198.736 138.933 215.568 122.393 C 224.826 113.297,232.400 105.642,232.400 105.383 C 232.400 104.659,223.744 102.184,218.700 101.464 L 217.200 101.250 217.200 104.446 C 217.200 116.290,212.663 120.213,199.000 120.187 C 185.606 120.160,181.533 116.896,180.912 105.688 C 180.641 100.801,181.055 101.145,176.512 102.028 M154.796 119.404 L 152.619 121.608 157.710 126.710 C 163.658 132.671,163.424 131.949,160.399 135.001 L 157.998 137.423 160.370 139.770 L 162.741 142.117 165.465 139.658 L 168.190 137.199 174.095 143.095 L 180.001 148.991 182.289 146.702 L 184.578 144.413 178.610 138.396 L 172.641 132.380 175.322 129.679 L 178.002 126.977 175.601 124.601 L 173.199 122.224 170.689 124.712 C 167.532 127.841,168.241 128.056,162.400 122.200 C 156.553 116.339,157.485 116.682,154.796 119.404 M235.600 122.200 C 229.759 128.055,230.468 127.840,227.312 124.713 L 224.802 122.225 222.601 124.399 C 219.906 127.061,219.906 126.939,222.600 129.600 C 225.505 132.469,225.618 132.169,219.214 138.595 L 213.629 144.200 215.878 146.531 L 218.128 148.863 224.061 142.940 L 229.993 137.017 232.596 139.596 L 235.199 142.176 237.600 139.800 L 240.002 137.423 237.601 135.001 C 234.576 131.949,234.342 132.671,240.290 126.710 L 245.381 121.608 243.204 119.404 C 240.515 116.682,241.447 116.339,235.600 122.200 M80.900 121.084 C 79.725 121.308,79.761 121.897,81.008 122.878 C 82.473 124.030,83.299 125.840,82.994 127.229 C 82.804 128.090,82.885 128.400,83.298 128.400 C 84.712 128.400,85.834 130.367,85.125 131.602 C 84.460 132.761,85.488 136.353,86.169 135.250 C 88.114 132.103,85.812 121.200,83.202 121.200 C 83.017 121.200,82.626 121.135,82.333 121.056 C 82.040 120.977,81.395 120.990,80.900 121.084 M321.073 121.500 C 320.977 121.665,321.232 123.420,321.639 125.400 C 322.554 129.843,323.094 137.200,322.506 137.200 C 321.976 137.200,321.613 135.831,321.603 133.800 C 321.593 131.545,320.057 122.697,319.596 122.236 C 318.773 121.413,318.600 122.746,318.600 129.901 C 318.600 135.484,318.476 137.369,318.100 137.496 C 317.718 137.626,317.600 136.535,317.600 132.889 C 317.600 126.422,317.292 124.226,316.480 124.897 C 315.220 125.937,314.452 128.514,314.465 131.664 C 314.481 135.495,313.886 136.870,312.049 137.244 C 308.671 137.933,307.202 140.306,307.201 145.076 C 307.200 146.878,307.335 148.433,307.500 148.531 C 308.397 149.065,322.306 146.513,324.522 145.407 C 331.912 141.720,333.197 131.700,326.938 126.571 L 325.164 125.117 325.424 126.258 C 325.567 126.886,326.025 128.544,326.442 129.942 C 327.262 132.691,327.408 135.052,326.816 135.988 C 326.186 136.985,325.927 136.221,324.957 130.513 C 323.630 122.702,322.244 119.486,321.073 121.500 M69.600 122.800 C 68.823 123.577,68.632 124.253,68.779 125.702 C 68.819 126.089,68.461 126.952,67.985 127.621 C 66.816 129.262,66.542 131.599,67.331 133.182 C 67.763 134.049,67.888 135.028,67.732 136.341 C 67.526 138.083,67.611 138.342,68.728 139.397 C 69.663 140.279,69.901 140.793,69.743 141.584 C 69.111 144.743,75.368 145.147,80.573 142.284 C 82.824 141.047,83.209 139.029,81.129 139.373 C 78.436 139.819,71.485 139.810,71.327 139.361 C 71.224 139.064,72.905 138.830,76.487 138.641 C 82.927 138.301,85.637 136.821,84.128 134.469 C 83.659 133.738,83.468 133.733,78.200 134.328 C 74.171 134.783,69.551 134.462,69.302 133.710 C 69.179 133.338,69.897 133.279,72.288 133.463 C 78.854 133.970,85.600 132.127,84.044 130.253 C 83.159 129.187,80.856 128.805,75.300 128.802 C 72.103 128.801,70.000 128.644,70.000 128.408 C 70.000 127.793,71.418 127.603,76.800 127.498 C 81.547 127.405,81.806 127.357,81.921 126.555 C 82.067 125.532,80.243 123.249,79.286 123.258 C 78.909 123.262,76.980 122.981,75.000 122.634 C 70.483 121.842,70.560 121.840,69.600 122.800 M134.138 131.500 C 130.344 137.283,128.014 141.180,126.222 144.741 L 125.145 146.882 127.885 149.741 C 129.392 151.314,136.797 159.119,144.340 167.086 C 151.884 175.054,158.918 182.206,159.973 182.980 C 163.766 185.764,170.649 188.365,174.300 188.393 L 175.200 188.400 175.200 175.698 L 175.200 162.997 156.698 144.498 C 146.523 134.324,138.095 126.000,137.971 126.000 C 137.847 126.000,136.122 128.475,134.138 131.500 M241.298 144.502 L 222.800 163.003 222.800 175.702 L 222.800 188.400 223.700 188.393 C 232.259 188.327,236.581 185.231,254.219 166.527 C 261.650 158.647,268.887 151.009,270.301 149.554 L 272.871 146.908 271.983 145.154 C 269.211 139.680,260.685 126.000,260.045 126.000 C 259.909 126.000,251.472 134.326,241.298 144.502 M87.600 132.952 C 87.600 135.361,87.240 135.943,84.649 137.719 C 83.872 138.251,83.600 138.782,83.600 139.765 C 83.600 140.495,83.240 141.550,82.800 142.109 C 81.551 143.697,81.623 149.371,82.900 150.051 C 84.583 150.946,86.887 152.994,88.846 155.335 L 90.800 157.670 90.800 147.874 L 90.800 138.078 89.473 134.645 C 87.800 130.318,87.600 130.137,87.600 132.952 M92.000 184.195 L 92.000 229.591 122.600 229.592 C 151.426 229.594,153.200 229.554,153.199 228.897 C 153.199 228.514,153.658 217.952,154.219 205.427 C 154.780 192.902,155.186 182.075,155.120 181.367 C 155.001 180.086,125.296 148.034,123.628 147.387 C 122.973 147.133,92.434 138.800,92.158 138.800 C 92.071 138.800,92.000 159.228,92.000 184.195 M289.473 143.161 L 273.946 147.430 258.354 163.916 L 242.763 180.401 243.809 204.501 C 244.385 217.755,244.927 228.824,245.014 229.097 C 245.138 229.487,251.707 229.593,275.586 229.592 L 306.000 229.591 306.000 184.195 C 306.000 148.121,305.897 138.809,305.500 138.846 C 305.225 138.872,298.013 140.813,289.473 143.161 M195.882 180.651 C 195.727 180.806,195.600 184.233,195.600 188.267 L 195.600 195.600 192.000 195.600 L 188.400 195.600 188.400 199.000 L 188.400 202.400 192.000 202.400 L 195.600 202.400 195.600 210.800 L 195.600 219.200 199.000 219.200 L 202.400 219.200 202.400 210.800 L 202.400 202.400 206.000 202.400 L 209.600 202.400 209.600 199.000 L 209.600 195.600 206.009 195.600 L 202.418 195.600 202.309 188.100 L 202.200 180.600 199.182 180.485 C 197.522 180.421,196.037 180.496,195.882 180.651 M239.800 183.073 C 236.304 186.117,230.111 188.786,225.101 189.407 L 222.802 189.692 222.701 280.746 L 222.600 371.800 199.000 371.800 L 175.400 371.800 175.299 280.746 L 175.198 189.692 173.011 189.419 C 168.121 188.808,162.061 186.269,158.238 183.231 C 157.380 182.548,156.614 182.052,156.538 182.129 C 156.301 182.365,154.543 223.200,151.220 305.600 C 149.468 349.050,147.925 386.146,147.792 388.036 L 147.550 391.473 150.275 392.333 C 175.217 400.202,221.350 400.242,247.552 392.417 L 250.505 391.535 250.241 386.667 C 250.097 383.990,248.632 348.590,246.986 308.000 C 243.012 209.986,241.808 182.069,241.543 181.816 C 241.464 181.741,240.680 182.307,239.800 183.073 M121.024 231.300 C 120.942 231.575,119.207 256.855,117.169 287.478 L 113.464 343.157 115.398 346.355 C 122.399 357.936,131.685 364.043,143.260 364.676 L 147.519 364.909 147.760 361.555 C 147.893 359.710,149.074 331.020,150.386 297.800 C 151.698 264.580,152.868 235.915,152.988 234.100 L 153.205 230.800 137.190 230.800 C 124.725 230.800,121.142 230.911,121.024 231.300 M245.200 233.385 C 245.200 234.807,246.370 264.715,247.800 299.846 C 249.230 334.977,250.400 363.964,250.400 364.261 C 250.400 364.665,251.152 364.800,253.417 364.800 C 265.434 364.800,275.825 358.046,283.262 345.400 L 284.673 343.000 280.957 288.400 C 278.913 258.370,277.232 233.125,277.221 232.300 L 277.200 230.800 261.200 230.800 L 245.200 230.800 245.200 233.385 M195.600 279.000 L 195.600 286.400 192.000 286.400 L 188.400 286.400 188.400 289.800 L 188.400 293.200 191.992 293.200 L 195.584 293.200 195.692 301.500 L 195.800 309.800 199.000 309.800 L 202.200 309.800 202.308 301.500 L 202.416 293.200 206.008 293.200 L 209.600 293.200 209.600 289.800 L 209.600 286.400 206.000 286.400 L 202.400 286.400 202.400 279.000 L 202.400 271.600 199.000 271.600 L 195.600 271.600 195.600 279.000 M156.565 398.900 C 155.332 404.322,155.493 411.205,156.917 413.915 C 158.194 416.344,158.393 416.310,160.053 413.367 C 160.726 412.175,161.429 411.200,161.615 411.200 C 162.497 411.200,162.250 412.107,160.730 414.450 C 158.063 418.560,158.517 420.200,162.320 420.200 C 168.816 420.200,174.619 413.607,176.798 403.750 C 177.993 398.344,178.067 398.558,174.900 398.235 C 173.415 398.084,169.090 397.429,165.289 396.780 C 161.488 396.131,158.139 395.600,157.847 395.600 C 157.509 395.600,157.043 396.799,156.565 398.900 M233.600 396.618 C 230.850 397.120,226.755 397.761,224.500 398.041 C 219.708 398.637,219.959 398.140,221.391 404.202 C 223.725 414.078,230.133 420.985,236.315 420.288 C 239.583 419.920,239.833 418.613,237.408 414.585 C 236.009 412.261,235.630 411.010,236.405 411.268 C 236.628 411.343,237.393 412.374,238.106 413.561 C 239.678 416.180,239.888 416.195,241.153 413.779 C 242.786 410.661,242.773 404.071,241.120 397.300 C 240.626 395.275,240.843 395.294,233.600 396.618 " stroke="none" fill="#f2f2f1" fill-rule="evenodd"></path><path id="path1" d="M195.600 16.254 C 153.369 19.617,132.808 69.228,160.668 100.540 C 163.996 104.280,163.817 104.224,168.091 102.855 C 170.947 101.940,179.462 100.000,180.620 100.000 C 180.883 100.000,180.829 90.350,180.561 89.349 C 180.435 88.881,179.916 88.308,179.408 88.077 C 176.872 86.921,174.363 77.320,175.640 73.657 C 176.476 71.260,175.042 63.043,173.028 58.684 C 170.733 53.718,170.200 51.620,170.200 47.560 C 170.200 36.023,182.175 30.776,192.933 37.599 C 195.311 39.106,195.230 39.127,194.949 37.082 C 194.749 35.619,194.869 35.180,195.757 34.124 C 196.506 33.234,196.800 32.427,196.800 31.262 L 196.800 29.640 194.500 29.520 L 192.200 29.400 192.079 27.300 L 191.958 25.200 194.359 25.200 L 196.760 25.200 196.880 22.900 L 197.000 20.600 199.100 20.479 L 201.200 20.358 201.200 22.779 L 201.200 25.200 203.621 25.200 L 206.042 25.200 205.921 27.300 L 205.800 29.400 203.500 29.520 L 201.200 29.640 201.200 31.166 C 201.200 32.136,201.523 33.103,202.087 33.820 C 202.629 34.509,202.999 35.578,203.038 36.573 C 203.120 38.618,203.225 38.653,205.409 37.373 C 221.352 28.030,233.533 41.900,224.719 59.361 C 223.236 62.298,221.706 71.575,222.402 73.406 C 223.777 77.022,221.603 85.490,218.585 88.280 L 217.200 89.559 217.200 94.761 L 217.200 99.964 218.700 100.206 C 222.562 100.829,228.016 102.121,230.718 103.054 L 233.695 104.081 236.078 101.741 C 252.602 85.508,254.471 56.282,240.207 37.167 C 229.504 22.825,212.601 14.900,195.600 16.254 M72.000 38.937 C 72.000 39.452,72.358 43.097,72.796 47.037 C 73.614 54.387,73.832 60.225,73.300 60.519 C 73.135 60.610,70.570 60.449,67.600 60.162 C 64.630 59.874,59.590 59.385,56.400 59.076 C 49.312 58.388,50.000 57.851,50.000 64.075 L 50.000 69.303 52.300 69.052 C 53.565 68.914,56.850 68.611,59.600 68.380 C 62.350 68.148,65.770 67.792,67.200 67.587 C 68.630 67.383,70.655 67.212,71.700 67.208 L 73.600 67.200 73.600 76.200 L 73.600 85.200 72.695 85.200 C 72.197 85.200,65.861 84.840,58.614 84.401 C 51.367 83.961,45.289 83.751,45.106 83.934 C 44.924 84.116,44.825 86.501,44.887 89.233 L 45.000 94.200 50.000 94.102 C 52.750 94.049,56.710 93.830,58.800 93.617 C 60.890 93.404,65.075 93.106,68.100 92.954 L 73.600 92.678 73.600 106.894 L 73.600 121.109 75.853 121.455 C 78.042 121.790,78.146 121.763,79.453 120.527 L 80.800 119.254 80.800 105.969 L 80.800 92.684 86.700 92.971 C 89.945 93.129,93.963 93.413,95.629 93.603 C 97.296 93.793,101.121 94.077,104.129 94.233 L 109.600 94.516 109.600 89.282 C 109.600 86.403,109.439 83.948,109.243 83.827 C 109.047 83.705,102.974 83.965,95.748 84.403 C 88.522 84.841,82.203 85.200,81.705 85.200 L 80.800 85.200 80.800 76.143 L 80.800 67.086 83.900 67.325 C 85.605 67.457,90.690 67.930,95.200 68.378 C 99.710 68.825,103.625 69.193,103.900 69.195 C 104.276 69.199,104.400 67.855,104.400 63.795 L 104.400 58.391 102.900 58.597 C 102.075 58.710,99.240 58.998,96.600 59.236 C 93.960 59.475,89.460 59.900,86.600 60.181 C 83.740 60.462,81.265 60.616,81.100 60.522 C 80.624 60.253,80.757 55.478,81.410 49.400 C 81.741 46.320,82.126 42.495,82.265 40.900 L 82.517 38.000 77.259 38.000 C 72.011 38.000,72.000 38.002,72.000 38.937 M293.600 98.243 C 293.600 127.890,293.677 132.456,294.176 132.264 C 295.463 131.771,304.877 131.128,308.900 131.260 L 313.201 131.400 313.203 130.000 C 313.207 126.845,317.209 120.800,319.294 120.800 C 321.223 120.800,321.200 121.127,321.200 93.730 C 321.200 64.651,321.585 67.560,317.543 66.073 C 314.144 64.824,307.170 64.000,299.986 64.000 L 293.600 64.000 293.600 98.243 M332.427 64.635 C 328.642 65.186,325.553 66.027,323.500 67.064 L 322.400 67.621 322.400 93.653 L 322.400 119.685 323.400 120.471 C 323.950 120.904,324.400 121.528,324.400 121.857 C 324.400 122.187,325.648 123.627,327.172 125.057 C 328.938 126.713,330.209 128.301,330.672 129.428 L 331.400 131.197 337.000 131.213 C 340.080 131.221,344.265 131.464,346.300 131.751 L 350.000 132.274 350.000 98.137 L 350.000 64.000 343.100 64.043 C 339.305 64.067,334.502 64.333,332.427 64.635 M290.900 65.841 L 289.600 66.858 289.600 100.841 L 289.600 134.824 290.814 133.927 C 292.516 132.668,292.431 134.709,292.310 98.112 L 292.200 64.823 290.900 65.841 M351.200 98.780 L 351.200 132.359 352.500 133.574 L 353.800 134.789 353.902 100.923 L 354.005 67.056 353.133 66.128 C 351.129 63.995,351.200 62.794,351.200 98.780 M159.277 107.784 C 152.558 111.054,146.833 115.463,141.744 121.287 L 138.887 124.556 157.328 143.278 C 167.470 153.575,175.866 162.000,175.987 162.000 C 176.107 162.000,181.109 157.094,187.102 151.098 L 197.999 140.196 180.898 123.098 C 171.492 113.694,163.604 106.000,163.369 106.000 C 163.134 106.000,161.293 106.803,159.277 107.784 M205.609 134.200 L 177.405 162.400 199.604 162.400 L 221.803 162.400 240.571 143.629 L 259.338 124.858 256.995 121.994 C 251.652 115.463,238.305 106.000,234.436 106.000 C 234.094 106.000,221.122 118.690,205.609 134.200 M162.804 120.603 L 167.818 125.607 170.197 123.203 C 173.149 120.219,172.800 120.177,176.571 123.971 L 179.723 127.141 177.183 129.787 L 174.642 132.432 180.321 138.121 C 186.989 144.801,186.711 143.866,183.110 147.491 C 179.502 151.123,180.401 151.389,173.709 144.709 L 168.007 139.018 165.692 141.309 C 162.769 144.201,162.712 144.195,159.268 140.643 C 155.824 137.091,155.860 137.695,158.900 134.517 L 161.400 131.903 156.300 127.021 C 150.287 121.265,150.508 122.116,154.090 118.509 C 157.683 114.892,156.887 114.701,162.804 120.603 M244.152 118.407 C 247.496 121.952,247.664 121.323,241.797 127.204 L 236.793 132.218 239.197 134.597 C 242.167 137.536,242.192 137.232,238.691 140.710 C 235.190 144.187,235.214 144.185,232.308 141.309 L 229.993 139.018 224.291 144.709 C 217.599 151.389,218.498 151.123,214.890 147.491 C 211.301 143.877,211.006 144.864,217.685 138.128 L 223.370 132.395 221.085 130.086 C 218.216 127.186,218.214 127.209,221.690 123.709 C 225.165 120.211,224.814 120.240,227.798 123.198 L 230.217 125.595 235.202 120.598 C 241.048 114.738,240.757 114.809,244.152 118.407 M299.000 132.838 C 294.547 133.246,292.752 133.745,291.765 134.850 C 291.002 135.704,291.003 135.705,292.000 135.387 C 292.550 135.211,297.500 135.051,303.000 135.031 L 313.000 134.996 313.122 133.950 C 313.310 132.332,308.588 131.960,299.000 132.838 M332.148 133.300 C 332.281 133.795,332.392 134.380,332.395 134.600 C 332.398 134.853,335.526 135.012,340.900 135.033 C 345.575 135.051,350.109 135.200,350.976 135.365 C 352.405 135.637,352.501 135.604,352.009 135.011 C 350.054 132.656,331.548 131.062,332.148 133.300 M79.228 144.375 C 78.913 144.574,77.518 144.951,76.128 145.214 L 73.600 145.691 73.600 259.178 L 73.600 372.665 74.598 373.199 C 75.840 373.864,78.706 373.893,79.902 373.253 L 80.800 372.772 80.800 258.386 C 80.800 167.141,80.699 144.001,80.300 144.006 C 80.025 144.009,79.542 144.175,79.228 144.375 M176.800 267.200 L 176.800 370.800 199.000 370.800 L 221.200 370.800 221.200 267.200 L 221.200 163.600 199.000 163.600 L 176.800 163.600 176.800 267.200 M203.509 186.900 L 203.618 194.400 207.209 194.400 L 210.800 194.400 210.800 199.000 L 210.800 203.600 207.200 203.600 L 203.600 203.600 203.600 212.000 L 203.600 220.400 199.000 220.400 L 194.400 220.400 194.400 211.966 L 194.400 203.532 190.900 203.654 L 187.400 203.777 187.200 199.253 C 186.962 193.864,186.557 194.400,190.867 194.400 L 194.400 194.400 194.400 187.067 C 194.400 178.407,193.945 179.147,199.179 179.287 L 203.400 179.400 203.509 186.900 M203.600 277.633 L 203.600 285.266 207.300 285.149 L 211.000 285.031 211.117 289.015 C 211.291 294.931,211.509 294.626,207.218 294.460 L 203.600 294.320 203.600 302.773 L 203.600 311.226 199.100 311.113 L 194.600 311.000 194.492 302.700 L 194.384 294.400 190.779 294.400 L 187.175 294.400 187.287 289.712 L 187.400 285.025 190.900 285.146 L 194.400 285.268 194.400 277.901 C 194.400 269.200,193.907 270.000,199.267 270.000 L 203.600 270.000 203.600 277.633 " stroke="none" fill="#f4cd0f" fill-rule="evenodd"></path><path id="path2" d="M1.600 130.900 L 1.600 260.200 2.591 267.693 C 11.341 333.847,37.347 381.205,82.000 412.299 C 97.177 422.867,111.454 429.868,137.283 439.407 C 175.139 453.388,214.339 454.517,252.800 442.734 C 339.225 416.256,385.104 360.721,397.409 267.693 L 398.400 260.200 398.400 130.900 L 398.400 1.600 200.000 1.600 L 1.600 1.600 1.600 130.900 M206.600 15.239 C 247.424 20.410,266.005 72.304,237.707 102.120 C 236.497 103.395,235.589 104.522,235.690 104.624 C 235.792 104.725,237.543 105.620,239.581 106.612 C 251.931 112.623,260.373 121.665,270.752 140.000 C 272.309 142.750,273.721 145.202,273.891 145.448 C 274.107 145.762,278.938 144.597,290.000 141.564 C 306.098 137.149,307.595 136.820,307.606 137.700 C 307.610 138.041,307.706 138.062,307.906 137.766 C 308.068 137.527,308.560 137.112,309.000 136.843 C 309.706 136.412,297.798 136.460,289.600 136.921 L 288.200 137.000 288.100 101.600 L 288.000 66.200 290.300 64.417 L 292.600 62.633 296.800 62.479 C 305.445 62.161,315.807 63.529,319.961 65.535 L 321.583 66.319 324.307 65.211 C 329.142 63.243,338.284 62.139,346.806 62.493 L 351.024 62.668 353.312 64.434 L 355.600 66.200 355.500 101.600 L 355.400 137.000 354.000 136.917 C 353.230 136.871,348.098 136.711,342.597 136.562 L 332.593 136.290 331.657 139.197 C 329.662 145.391,326.112 147.494,314.977 149.083 L 307.600 150.135 307.600 190.254 C 307.600 229.508,307.583 230.381,306.826 230.786 C 306.336 231.048,301.054 231.200,292.426 231.200 L 278.800 231.200 278.800 232.496 C 278.800 233.209,280.434 258.451,282.431 288.589 C 285.917 341.183,286.035 343.434,285.375 344.593 C 277.421 358.550,267.668 365.413,254.566 366.273 C 251.483 366.476,250.800 366.637,250.802 367.160 C 250.802 367.512,251.073 373.280,251.404 379.978 C 251.734 386.675,251.868 392.292,251.701 392.459 C 251.534 392.626,249.323 393.359,246.788 394.088 L 242.179 395.413 242.913 398.806 C 244.477 406.046,243.871 412.996,241.392 416.246 C 240.846 416.961,240.400 417.969,240.400 418.484 C 240.400 422.960,232.710 422.775,227.235 418.168 C 223.587 415.098,220.085 407.444,219.130 400.449 L 219.000 399.498 199.083 399.449 C 179.469 399.401,179.162 399.412,178.993 400.200 C 176.382 412.329,173.542 417.216,167.283 420.348 C 162.291 422.846,157.600 421.979,157.600 418.559 C 157.600 418.085,156.985 416.675,156.232 415.426 C 153.792 411.374,153.513 405.651,155.372 397.803 C 155.684 396.485,155.908 395.394,155.870 395.378 C 155.831 395.362,153.944 394.840,151.676 394.219 C 145.564 392.545,146.013 393.685,146.629 381.400 C 146.916 375.680,147.162 369.992,147.176 368.760 L 147.200 366.521 143.434 366.273 C 130.695 365.437,120.536 358.533,113.484 345.923 L 112.045 343.351 115.819 287.175 C 117.894 256.279,119.594 230.957,119.596 230.905 C 119.598 230.853,113.075 230.763,105.100 230.705 L 90.600 230.600 90.498 195.042 L 90.396 159.484 88.225 156.831 C 86.289 154.464,83.222 151.600,82.624 151.600 C 82.502 151.600,82.356 201.498,82.301 262.484 L 82.200 373.368 80.800 374.319 C 79.091 375.480,75.314 375.437,73.500 374.236 L 72.400 373.508 72.400 259.554 C 72.400 147.382,72.388 145.600,71.631 145.600 C 70.334 145.600,68.400 143.675,68.400 142.385 C 68.400 141.735,67.989 140.798,67.449 140.215 C 66.384 139.066,65.882 137.208,66.246 135.761 C 66.378 135.232,66.192 134.063,65.832 133.164 C 65.078 131.280,65.291 129.274,66.449 127.353 C 66.862 126.667,67.200 125.623,67.200 125.033 C 67.200 122.694,69.745 120.020,71.375 120.646 C 71.934 120.860,72.000 119.479,72.000 107.539 L 72.000 94.192 66.700 94.483 C 63.785 94.644,59.510 94.956,57.200 95.177 C 54.890 95.399,50.912 95.699,48.361 95.845 L 43.722 96.110 43.467 95.155 C 42.980 93.338,43.167 83.396,43.700 82.704 C 44.235 82.010,44.841 82.026,62.600 83.181 C 66.120 83.410,69.675 83.598,70.500 83.599 L 72.000 83.600 72.000 76.142 L 72.000 68.684 69.300 68.928 C 67.815 69.061,63.720 69.461,60.200 69.816 C 56.680 70.171,52.630 70.492,51.200 70.530 L 48.600 70.600 48.490 64.157 C 48.359 56.444,48.129 56.797,53.000 57.248 C 62.187 58.099,69.519 58.839,70.764 59.040 L 72.127 59.260 71.872 53.730 C 71.732 50.689,71.434 47.210,71.211 46.000 C 70.988 44.790,70.759 42.180,70.703 40.200 L 70.600 36.600 77.200 36.600 L 83.800 36.600 83.782 39.000 C 83.771 40.320,83.456 44.359,83.082 47.975 C 82.707 51.591,82.400 55.604,82.400 56.893 L 82.400 59.236 83.700 59.028 C 84.415 58.913,87.880 58.546,91.400 58.212 C 94.920 57.878,99.420 57.449,101.400 57.259 C 103.687 57.040,105.182 57.057,105.500 57.306 C 106.274 57.913,106.208 70.345,105.429 70.644 C 105.115 70.765,100.210 70.398,94.529 69.830 C 88.848 69.261,83.803 68.797,83.317 68.798 C 82.442 68.800,82.433 68.869,82.317 76.252 L 82.200 83.703 87.800 83.431 C 90.880 83.282,95.380 83.001,97.800 82.808 C 100.220 82.614,104.090 82.398,106.400 82.328 L 110.600 82.200 110.710 89.159 L 110.819 96.119 106.110 95.849 C 103.519 95.701,99.510 95.395,97.200 95.169 C 93.119 94.770,82.414 94.119,82.271 94.262 C 82.232 94.301,82.250 100.005,82.311 106.939 L 82.422 119.545 83.745 119.982 C 85.598 120.594,87.090 122.313,87.403 124.200 C 87.673 125.831,91.469 136.330,92.005 136.930 C 92.167 137.111,98.757 139.023,106.650 141.179 C 114.542 143.335,121.646 145.280,122.436 145.500 L 123.873 145.900 126.836 140.656 C 137.323 122.099,146.266 112.491,158.607 106.525 L 162.390 104.696 160.056 102.048 C 130.697 68.739,152.365 16.944,196.600 14.693 C 199.264 14.558,202.703 14.746,206.600 15.239 " stroke="none" fill="#eb0404" fill-rule="evenodd"></path><path id="path3" d="M0.001 130.500 C 0.002 276.729,-0.265 262.472,2.807 280.800 C 15.046 353.824,52.435 404.902,113.424 431.918 C 175.773 459.536,224.141 459.535,286.576 431.914 C 347.502 404.961,384.960 353.789,397.193 280.800 C 400.265 262.472,399.998 276.729,399.999 130.500 L 400.000 0.000 200.000 0.000 L 0.000 0.000 0.001 130.500 M398.798 129.700 L 398.797 258.200 397.824 265.800 C 387.435 347.019,350.170 402.292,287.200 429.887 C 222.803 458.107,178.087 458.238,114.000 430.392 C 49.962 402.568,12.645 347.641,2.176 265.800 L 1.203 258.200 1.202 129.700 L 1.200 1.200 200.000 1.200 L 398.800 1.200 398.798 129.700 M191.800 15.255 C 149.563 20.590,132.011 72.138,161.696 103.667 L 162.701 104.735 159.692 106.047 C 147.673 111.287,137.419 122.151,126.784 140.909 C 124.615 144.735,123.726 145.969,123.244 145.823 C 122.890 145.715,115.700 143.745,107.266 141.446 C 98.832 139.147,91.887 137.205,91.833 137.133 C 91.372 136.518,87.625 125.824,87.410 124.512 C 87.048 122.302,86.016 121.050,83.805 120.141 L 82.003 119.400 82.001 106.673 L 82.000 93.945 85.100 94.178 C 96.517 95.038,107.269 95.765,108.800 95.781 L 110.600 95.800 110.710 89.100 L 110.819 82.400 108.710 82.426 C 107.549 82.440,101.200 82.769,94.600 83.157 C 88.000 83.545,82.465 83.793,82.300 83.708 C 82.135 83.623,82.000 80.127,82.000 75.939 L 82.000 68.325 83.900 68.553 C 86.399 68.854,96.848 69.927,101.400 70.351 C 105.987 70.777,105.600 71.382,105.600 63.776 L 105.600 57.200 104.298 57.200 C 103.582 57.200,99.577 57.546,95.398 57.970 C 91.219 58.393,86.467 58.864,84.837 59.016 L 81.875 59.294 82.132 55.947 C 82.273 54.106,82.748 49.099,83.187 44.819 C 84.137 35.557,84.753 36.414,77.149 36.406 C 69.763 36.398,70.255 35.745,71.203 44.320 C 71.621 48.108,72.089 53.020,72.241 55.234 L 72.519 59.260 69.559 58.994 C 67.932 58.848,63.181 58.384,59.002 57.964 C 54.823 57.544,50.818 57.200,50.102 57.200 L 48.800 57.200 48.800 63.776 C 48.800 67.393,48.935 70.427,49.100 70.517 C 49.514 70.744,56.443 70.109,70.300 68.575 L 72.400 68.342 72.400 75.948 C 72.400 80.130,72.265 83.623,72.100 83.708 C 71.935 83.794,65.715 83.519,58.279 83.097 C 50.842 82.676,44.492 82.432,44.169 82.557 C 43.678 82.745,43.598 83.860,43.690 89.291 L 43.800 95.800 45.600 95.786 C 47.115 95.775,57.847 95.055,69.500 94.184 L 72.400 93.967 72.400 107.383 L 72.400 120.800 71.160 120.800 C 69.330 120.800,67.102 123.125,67.239 124.891 C 67.302 125.700,67.002 126.735,66.454 127.600 C 65.514 129.085,65.511 129.260,66.286 136.270 C 66.522 138.399,66.835 139.386,67.502 140.095 C 67.996 140.621,68.400 141.511,68.400 142.072 C 68.400 143.468,69.761 145.084,71.205 145.401 L 72.400 145.664 72.400 259.561 L 72.400 373.458 74.144 374.329 C 76.284 375.398,78.073 375.422,80.300 374.411 L 82.000 373.639 82.000 262.420 C 82.000 195.039,82.145 151.200,82.368 151.200 C 83.046 151.200,87.324 155.376,89.071 157.744 L 90.800 160.088 90.800 195.444 L 90.800 230.800 105.251 230.800 L 119.703 230.800 119.420 235.100 C 119.264 237.465,117.567 262.778,115.649 291.352 L 112.162 343.304 113.790 346.152 C 121.022 358.809,130.751 365.324,143.800 366.248 L 147.400 366.503 146.849 379.029 C 146.545 385.918,146.394 391.807,146.512 392.115 C 146.630 392.423,148.766 393.266,151.263 393.990 C 153.759 394.714,155.838 395.335,155.885 395.371 C 155.932 395.408,155.620 397.139,155.191 399.219 C 153.730 406.300,154.267 412.777,156.566 415.791 C 157.135 416.537,157.602 417.474,157.605 417.873 C 157.625 420.467,159.112 421.602,162.480 421.596 C 169.795 421.583,176.012 414.192,178.326 402.760 L 179.087 399.000 182.043 399.200 C 183.670 399.310,191.300 399.400,199.000 399.400 C 206.700 399.400,214.336 399.310,215.968 399.200 L 218.936 399.000 219.843 403.231 C 221.523 411.064,224.525 416.406,228.800 419.168 C 234.277 422.708,240.400 422.320,240.400 418.433 C 240.400 417.841,240.856 416.738,241.413 415.983 C 243.720 412.855,244.267 406.286,242.809 399.219 C 242.380 397.139,242.068 395.408,242.115 395.371 C 242.162 395.335,244.221 394.719,246.692 394.003 C 252.371 392.357,251.950 393.456,251.362 381.800 C 251.085 376.300,250.845 370.611,250.829 369.157 L 250.800 366.515 254.306 366.250 C 267.312 365.268,276.306 359.265,284.165 346.322 L 285.949 343.382 282.405 289.591 C 280.455 260.006,278.763 234.677,278.645 233.305 L 278.431 230.810 292.916 230.705 L 307.400 230.600 307.502 190.300 C 307.558 168.135,307.673 150.000,307.757 150.000 C 307.842 150.000,311.126 149.543,315.055 148.985 C 326.097 147.417,329.808 145.218,331.608 139.174 L 332.465 136.295 343.133 136.525 C 349.000 136.651,354.160 136.809,354.600 136.877 C 355.394 136.999,355.401 136.746,355.502 101.729 L 355.604 66.457 353.702 64.929 C 352.656 64.088,351.740 63.265,351.667 63.100 C 351.042 61.695,331.020 63.126,325.430 64.974 L 321.461 66.287 319.041 65.304 C 314.643 63.517,311.946 63.142,301.855 62.914 C 296.301 62.789,292.203 62.851,292.055 63.063 C 291.915 63.263,290.944 64.119,289.898 64.964 L 287.996 66.500 288.098 101.750 C 288.199 136.744,288.206 136.999,289.000 136.881 C 293.534 136.207,309.722 136.411,308.826 137.131 C 308.123 137.697,307.678 137.806,307.226 137.525 C 306.728 137.216,283.138 143.243,274.744 145.824 C 274.244 145.978,273.391 144.801,271.182 140.913 C 260.186 121.563,251.795 112.592,238.875 106.370 L 235.292 104.645 237.947 101.623 C 260.520 75.917,253.425 37.016,223.182 20.664 C 214.486 15.962,202.523 13.900,191.800 15.255 M208.400 17.027 C 247.175 23.493,263.832 74.476,236.078 101.741 L 233.695 104.081 230.718 103.054 C 228.016 102.121,222.562 100.829,218.700 100.206 L 217.200 99.964 217.200 94.761 L 217.200 89.559 218.585 88.280 C 221.603 85.490,223.777 77.022,222.402 73.406 C 221.706 71.575,223.236 62.298,224.719 59.361 C 233.533 41.900,221.352 28.030,205.409 37.373 C 203.225 38.653,203.120 38.618,203.038 36.573 C 202.999 35.578,202.629 34.509,202.087 33.820 C 201.523 33.103,201.200 32.136,201.200 31.166 L 201.200 29.640 203.500 29.520 L 205.800 29.400 205.921 27.300 L 206.042 25.200 203.621 25.200 L 201.200 25.200 201.200 22.779 L 201.200 20.358 199.100 20.479 L 197.000 20.600 196.880 22.900 L 196.760 25.200 194.359 25.200 L 191.958 25.200 192.079 27.300 L 192.200 29.400 194.500 29.520 L 196.800 29.640 196.800 31.262 C 196.800 32.427,196.506 33.234,195.757 34.124 C 194.869 35.180,194.749 35.619,194.949 37.082 C 195.230 39.127,195.311 39.106,192.933 37.599 C 182.175 30.776,170.200 36.023,170.200 47.560 C 170.200 51.620,170.733 53.718,173.028 58.684 C 175.042 63.043,176.476 71.260,175.640 73.657 C 174.363 77.320,176.872 86.921,179.408 88.077 C 179.916 88.308,180.435 88.881,180.561 89.349 C 180.829 90.350,180.883 100.000,180.620 100.000 C 179.462 100.000,170.947 101.940,168.091 102.855 C 163.817 104.224,163.996 104.280,160.668 100.540 C 145.153 83.102,143.884 55.764,157.725 37.091 C 169.657 20.992,188.187 13.656,208.400 17.027 M200.080 23.900 L 200.200 26.200 202.500 26.320 C 206.128 26.509,206.037 28.400,202.400 28.400 L 200.000 28.400 200.000 30.400 C 200.000 32.267,199.933 32.400,199.000 32.400 C 198.068 32.400,198.000 32.265,198.000 30.420 L 198.000 28.440 195.700 28.320 C 192.074 28.131,191.958 26.400,195.572 26.400 L 198.000 26.400 198.000 24.000 C 198.000 20.363,199.891 20.272,200.080 23.900 M201.044 34.608 C 203.000 36.564,202.299 37.778,199.133 37.918 C 196.166 38.048,195.587 37.539,196.368 35.485 C 197.145 33.440,199.445 33.009,201.044 34.608 M187.821 36.649 C 188.933 36.958,190.868 37.852,192.121 38.636 L 194.400 40.062 194.400 47.943 L 194.400 55.824 190.500 56.299 C 185.432 56.916,182.475 57.707,178.858 59.413 C 175.139 61.167,175.526 61.288,174.006 57.900 C 167.539 43.483,174.405 32.922,187.821 36.649 M220.123 37.111 C 225.912 39.650,228.073 45.850,225.791 53.377 C 224.846 56.494,222.709 60.854,222.233 60.634 C 216.575 58.025,211.666 56.635,206.377 56.143 L 203.600 55.885 203.600 47.984 L 203.600 40.083 205.617 38.789 C 210.565 35.614,215.427 35.052,220.123 37.111 M82.265 40.900 C 82.126 42.495,81.741 46.320,81.410 49.400 C 80.757 55.478,80.624 60.253,81.100 60.522 C 81.265 60.616,83.740 60.462,86.600 60.181 C 89.460 59.900,93.960 59.475,96.600 59.236 C 99.240 58.998,102.075 58.710,102.900 58.597 L 104.400 58.391 104.400 63.795 C 104.400 67.855,104.276 69.199,103.900 69.195 C 103.625 69.193,99.710 68.825,95.200 68.378 C 90.690 67.930,85.605 67.457,83.900 67.325 L 80.800 67.086 80.800 76.143 L 80.800 85.200 81.705 85.200 C 82.203 85.200,88.522 84.841,95.748 84.403 C 102.974 83.965,109.047 83.705,109.243 83.827 C 109.439 83.948,109.600 86.403,109.600 89.282 L 109.600 94.516 104.129 94.233 C 101.121 94.077,97.296 93.793,95.629 93.603 C 93.963 93.413,89.945 93.129,86.700 92.971 L 80.800 92.684 80.800 105.969 L 80.800 119.254 79.453 120.527 C 78.146 121.763,78.042 121.790,75.853 121.455 L 73.600 121.109 73.600 106.894 L 73.600 92.678 68.100 92.954 C 65.075 93.106,60.890 93.404,58.800 93.617 C 56.710 93.830,52.750 94.049,50.000 94.102 L 45.000 94.200 44.887 89.233 C 44.825 86.501,44.924 84.116,45.106 83.934 C 45.289 83.751,51.367 83.961,58.614 84.401 C 65.861 84.840,72.197 85.200,72.695 85.200 L 73.600 85.200 73.600 76.200 L 73.600 67.200 71.700 67.208 C 70.655 67.212,68.630 67.383,67.200 67.587 C 65.770 67.792,62.350 68.148,59.600 68.380 C 56.850 68.611,53.565 68.914,52.300 69.052 L 50.000 69.303 50.000 64.075 C 50.000 57.851,49.312 58.388,56.400 59.076 C 76.122 60.989,73.601 61.253,73.596 57.276 C 73.595 55.584,73.235 50.976,72.796 47.037 C 72.358 43.097,72.000 39.452,72.000 38.937 C 72.000 38.002,72.011 38.000,77.259 38.000 L 82.517 38.000 82.265 40.900 M202.308 47.981 C 202.427 57.442,202.351 57.184,205.056 57.194 C 208.855 57.208,216.452 59.186,220.356 61.177 L 222.096 62.065 221.823 64.533 C 221.339 68.918,221.321 68.950,219.854 68.085 C 213.717 64.469,195.344 62.745,187.000 65.004 C 183.344 65.993,178.417 67.563,177.608 67.995 C 176.831 68.412,176.788 68.291,176.179 63.929 L 175.918 62.058 177.651 61.174 C 181.496 59.213,189.174 57.200,192.811 57.200 C 195.741 57.200,195.600 57.654,195.600 48.224 C 195.600 38.416,195.311 39.137,199.182 39.285 L 202.200 39.400 202.308 47.981 M310.829 64.622 C 313.280 64.963,316.301 65.617,317.543 66.073 C 321.585 67.560,321.200 64.651,321.200 93.730 C 321.200 121.127,321.223 120.800,319.294 120.800 C 317.209 120.800,313.207 126.845,313.203 130.000 L 313.201 131.400 308.900 131.260 C 304.877 131.128,295.463 131.771,294.176 132.264 C 293.677 132.456,293.600 127.890,293.600 98.243 L 293.600 64.000 299.986 64.000 C 303.583 64.000,308.319 64.272,310.829 64.622 M350.000 98.137 L 350.000 132.274 346.300 131.751 C 344.265 131.464,340.080 131.221,337.000 131.213 L 331.400 131.197 330.672 129.428 C 330.209 128.301,328.938 126.713,327.172 125.057 C 325.648 123.627,324.400 122.187,324.400 121.857 C 324.400 121.528,323.950 120.904,323.400 120.471 L 322.400 119.685 322.400 93.653 L 322.400 67.621 323.500 67.064 C 327.433 65.076,333.758 64.101,343.100 64.043 L 350.000 64.000 350.000 98.137 M208.000 65.807 C 214.886 66.795,217.738 67.930,218.073 69.816 C 219.591 78.371,216.834 86.784,210.867 91.805 L 209.638 92.839 207.574 91.420 C 206.439 90.639,205.370 90.000,205.198 90.000 C 205.027 90.000,204.782 89.583,204.654 89.073 C 204.526 88.564,203.947 87.893,203.366 87.582 C 201.213 86.429,200.632 76.531,202.602 74.561 C 205.042 72.122,209.030 71.401,213.060 72.672 C 216.660 73.806,216.352 72.418,212.596 70.581 C 209.000 68.821,203.334 69.628,201.196 72.205 C 199.591 74.139,200.411 87.179,202.200 88.161 C 205.701 90.082,199.794 91.348,194.808 89.745 C 194.383 89.608,194.665 89.177,195.808 88.217 L 197.400 86.880 197.400 79.901 C 197.400 71.980,197.471 72.183,194.147 70.557 C 190.663 68.852,186.923 69.233,183.546 71.638 C 181.778 72.898,182.626 73.471,185.040 72.648 C 188.696 71.402,193.019 72.165,195.500 74.495 C 197.140 76.034,196.792 86.662,195.077 87.416 C 194.597 87.627,193.979 88.273,193.704 88.851 C 193.429 89.429,192.681 90.118,192.041 90.383 C 191.402 90.648,190.470 91.300,189.970 91.832 C 188.668 93.218,188.385 93.105,185.500 90.047 C 179.416 83.597,177.169 69.709,181.890 67.736 C 188.008 65.181,198.318 64.419,208.000 65.807 M292.224 132.215 C 292.116 132.663,291.481 133.433,290.814 133.927 L 289.600 134.824 289.600 100.841 L 289.600 66.858 290.900 65.841 L 292.200 64.823 292.310 98.112 C 292.371 116.420,292.332 131.767,292.224 132.215 M353.133 66.128 L 354.005 67.056 353.902 100.923 L 353.800 134.789 352.500 133.574 L 351.200 132.359 351.200 98.780 C 351.200 62.794,351.129 63.995,353.133 66.128 M178.648 72.600 L 178.178 76.600 177.655 73.211 C 177.141 69.885,177.148 69.810,178.022 69.101 C 179.206 68.143,179.186 68.031,178.648 72.600 M220.352 69.562 C 220.821 69.859,220.814 70.479,220.305 73.656 L 219.705 77.400 219.648 74.800 C 219.617 73.370,219.480 71.525,219.343 70.700 C 219.094 69.190,219.335 68.918,220.352 69.562 M194.626 72.042 C 194.750 72.242,194.344 72.191,193.725 71.927 C 192.065 71.221,191.612 70.706,193.110 71.229 C 193.820 71.476,194.503 71.842,194.626 72.042 M207.167 70.944 C 207.075 71.023,206.460 71.208,205.800 71.356 C 204.924 71.552,204.762 71.515,205.200 71.218 C 205.740 70.853,207.568 70.598,207.167 70.944 M186.511 74.219 C 183.297 75.821,183.124 76.243,185.010 77.871 C 187.792 80.274,190.389 80.661,193.456 79.129 C 195.496 78.110,195.540 77.921,194.154 76.104 C 191.875 73.116,189.768 72.596,186.511 74.219 M206.593 73.738 C 205.230 74.354,202.800 76.942,202.800 77.778 C 202.800 78.834,206.245 80.112,208.570 79.919 C 210.775 79.736,214.619 77.261,214.282 76.241 C 213.705 74.495,208.597 72.833,206.593 73.738 M177.797 80.147 C 178.382 82.758,178.940 85.188,179.037 85.547 C 179.133 85.906,178.913 85.570,178.548 84.800 C 177.614 82.828,176.400 78.116,176.400 76.460 C 176.400 74.347,176.636 74.969,177.797 80.147 M220.813 81.047 C 220.353 82.722,219.701 84.567,219.363 85.146 C 219.011 85.751,218.862 85.859,219.015 85.400 C 219.161 84.960,219.757 82.440,220.340 79.800 C 221.174 76.025,221.427 75.320,221.524 76.500 C 221.592 77.326,221.272 79.371,220.813 81.047 M191.024 76.177 C 192.014 76.912,191.363 78.200,190.000 78.200 C 188.771 78.200,188.071 77.079,188.772 76.234 C 189.424 75.448,190.022 75.433,191.024 76.177 M209.228 76.234 C 209.929 77.079,209.229 78.200,208.000 78.200 C 206.637 78.200,205.986 76.912,206.976 76.177 C 207.978 75.433,208.576 75.448,209.228 76.234 M187.443 77.211 C 187.485 78.399,187.471 78.408,186.643 77.715 C 186.179 77.326,185.715 76.952,185.612 76.883 C 185.366 76.718,186.482 76.014,187.000 76.007 C 187.220 76.004,187.419 76.546,187.443 77.211 M211.904 76.332 C 212.280 76.571,212.159 76.887,211.430 77.572 L 210.451 78.492 210.486 77.246 C 210.522 76.003,210.950 75.727,211.904 76.332 M193.374 77.558 C 193.496 77.755,193.326 78.019,192.998 78.146 C 192.635 78.285,192.400 78.144,192.400 77.787 C 192.400 77.140,193.025 76.993,193.374 77.558 M205.600 77.787 C 205.600 78.144,205.365 78.285,205.002 78.146 C 204.674 78.019,204.504 77.755,204.626 77.558 C 204.975 76.993,205.600 77.140,205.600 77.787 M185.157 91.493 L 187.562 93.898 186.796 95.915 C 185.803 98.527,185.426 102.345,185.783 106.158 C 186.101 109.555,186.955 110.351,187.436 107.700 C 188.441 102.148,191.072 99.200,195.020 99.200 C 195.962 99.200,196.789 98.841,197.677 98.048 L 198.966 96.896 200.383 98.004 C 201.316 98.733,202.447 99.178,203.694 99.306 C 207.187 99.665,209.107 102.105,210.020 107.345 C 210.303 108.971,210.678 110.000,210.987 110.000 C 212.243 110.000,212.427 99.131,211.223 95.964 L 210.446 93.920 212.550 91.860 C 213.707 90.727,215.316 88.812,216.127 87.605 C 217.803 85.108,217.937 85.147,216.800 87.800 C 216.080 89.480,216.000 90.555,216.000 98.566 C 216.000 116.120,213.469 119.200,199.043 119.200 C 184.667 119.200,182.373 116.506,182.018 99.200 C 181.835 90.281,181.689 88.354,181.100 87.051 C 180.057 84.743,180.258 84.740,181.580 87.044 C 182.225 88.169,183.835 90.171,185.157 91.493 M197.547 91.571 C 200.309 93.050,197.830 97.654,193.999 98.162 C 190.618 98.611,189.473 99.499,187.506 103.200 L 186.761 104.600 186.939 101.351 C 187.341 94.016,192.767 89.014,197.547 91.571 M206.568 92.101 C 209.491 94.087,210.714 96.563,211.073 101.221 C 211.350 104.810,210.956 105.262,209.865 102.609 C 208.769 99.945,206.933 98.524,204.134 98.174 C 201.013 97.785,199.600 96.437,199.600 93.853 C 199.600 90.933,203.432 89.970,206.568 92.101 M180.912 105.688 C 181.533 116.896,185.606 120.160,199.000 120.187 C 212.663 120.213,217.200 116.290,217.200 104.446 L 217.200 101.250 218.700 101.464 C 223.744 102.184,232.400 104.659,232.400 105.383 C 232.400 105.642,224.826 113.297,215.568 122.393 L 198.736 138.933 181.977 122.177 C 172.760 112.962,165.349 105.298,165.509 105.146 C 166.348 104.351,179.702 101.039,180.442 101.443 C 180.575 101.516,180.786 103.426,180.912 105.688 M180.898 123.098 L 197.999 140.196 187.102 151.098 C 181.109 157.094,176.107 162.000,175.987 162.000 C 175.866 162.000,167.470 153.575,157.328 143.278 L 138.887 124.556 141.744 121.287 C 147.437 114.773,159.846 106.000,163.369 106.000 C 163.604 106.000,171.492 113.694,180.898 123.098 M238.773 107.808 C 245.750 111.204,252.408 116.387,256.995 121.994 L 259.338 124.858 240.571 143.629 L 221.803 162.400 199.604 162.400 L 177.405 162.400 205.609 134.200 C 221.122 118.690,234.094 106.000,234.436 106.000 C 234.778 106.000,236.730 106.814,238.773 107.808 M154.090 118.509 C 150.508 122.116,150.287 121.265,156.300 127.021 L 161.400 131.903 158.900 134.517 C 155.860 137.695,155.824 137.091,159.268 140.643 C 162.712 144.195,162.769 144.201,165.692 141.309 L 168.007 139.018 173.709 144.709 C 180.401 151.389,179.502 151.123,183.110 147.491 C 186.711 143.866,186.989 144.801,180.321 138.121 L 174.642 132.432 177.183 129.787 L 179.723 127.141 176.571 123.971 C 172.800 120.177,173.149 120.219,170.197 123.203 L 167.818 125.607 162.804 120.603 C 156.887 114.701,157.683 114.892,154.090 118.509 M235.202 120.598 L 230.217 125.595 227.798 123.198 C 224.814 120.240,225.165 120.211,221.690 123.709 C 218.214 127.209,218.216 127.186,221.085 130.086 L 223.370 132.395 217.685 138.128 C 211.006 144.864,211.301 143.877,214.890 147.491 C 218.498 151.123,217.599 151.389,224.291 144.709 L 229.993 139.018 232.308 141.309 C 235.214 144.185,235.190 144.187,238.691 140.710 C 242.192 137.232,242.167 137.536,239.197 134.597 L 236.793 132.218 241.797 127.204 C 247.664 121.323,247.496 121.952,244.152 118.407 C 240.757 114.809,241.048 114.738,235.202 120.598 M162.400 122.200 C 168.241 128.056,167.532 127.841,170.689 124.712 L 173.199 122.224 175.601 124.601 L 178.002 126.977 175.322 129.679 L 172.641 132.380 178.610 138.396 L 184.578 144.413 182.289 146.702 L 180.001 148.991 174.095 143.095 L 168.190 137.199 165.465 139.658 L 162.741 142.117 160.370 139.770 L 157.998 137.423 160.399 135.001 C 163.424 131.949,163.658 132.671,157.710 126.710 L 152.619 121.608 154.796 119.404 C 157.485 116.682,156.553 116.339,162.400 122.200 M243.204 119.404 L 245.381 121.608 240.290 126.710 C 234.342 132.671,234.576 131.949,237.601 135.001 L 240.002 137.423 237.600 139.800 L 235.199 142.176 232.596 139.596 L 229.993 137.017 224.061 142.940 L 218.128 148.863 215.878 146.531 L 213.629 144.200 219.214 138.595 C 225.618 132.169,225.505 132.469,222.600 129.600 C 219.906 126.939,219.906 127.061,222.601 124.399 L 224.802 122.225 227.312 124.713 C 230.468 127.840,229.759 128.055,235.600 122.200 C 241.447 116.339,240.515 116.682,243.204 119.404 M83.202 121.200 C 85.812 121.200,88.114 132.103,86.169 135.250 C 85.488 136.353,84.460 132.761,85.125 131.602 C 85.834 130.367,84.712 128.400,83.298 128.400 C 82.885 128.400,82.804 128.090,82.994 127.229 C 83.299 125.840,82.473 124.030,81.008 122.878 C 79.462 121.661,80.301 120.508,82.333 121.056 C 82.626 121.135,83.017 121.200,83.202 121.200 M322.673 121.700 C 323.444 122.903,324.082 125.366,324.957 130.513 C 325.927 136.221,326.186 136.985,326.816 135.988 C 327.408 135.052,327.262 132.691,326.442 129.942 C 326.025 128.544,325.567 126.886,325.424 126.258 L 325.164 125.117 326.938 126.571 C 333.197 131.700,331.912 141.720,324.522 145.407 C 322.306 146.513,308.397 149.065,307.500 148.531 C 307.335 148.433,307.200 146.878,307.201 145.076 C 307.202 140.306,308.671 137.933,312.049 137.244 C 313.886 136.870,314.481 135.495,314.465 131.664 C 314.452 128.514,315.220 125.937,316.480 124.897 C 317.292 124.226,317.600 126.422,317.600 132.889 C 317.600 136.535,317.718 137.626,318.100 137.496 C 318.476 137.369,318.600 135.484,318.600 129.901 C 318.600 122.746,318.773 121.413,319.596 122.236 C 320.057 122.697,321.593 131.545,321.603 133.800 C 321.613 135.831,321.976 137.200,322.506 137.200 C 323.094 137.200,322.554 129.843,321.639 125.400 C 321.232 123.420,320.977 121.665,321.073 121.500 C 321.347 121.028,322.320 121.149,322.673 121.700 M75.000 122.634 C 76.980 122.981,78.909 123.262,79.286 123.258 C 80.243 123.249,82.067 125.532,81.921 126.555 C 81.806 127.357,81.547 127.405,76.800 127.498 C 71.418 127.603,70.000 127.793,70.000 128.408 C 70.000 128.644,72.103 128.801,75.300 128.802 C 80.856 128.805,83.159 129.187,84.044 130.253 C 85.600 132.127,78.854 133.970,72.288 133.463 C 69.897 133.279,69.179 133.338,69.302 133.710 C 69.551 134.462,74.171 134.783,78.200 134.328 C 83.468 133.733,83.659 133.738,84.128 134.469 C 85.637 136.821,82.927 138.301,76.487 138.641 C 72.905 138.830,71.224 139.064,71.327 139.361 C 71.485 139.810,78.436 139.819,81.129 139.373 C 83.209 139.029,82.824 141.047,80.573 142.284 C 75.368 145.147,69.111 144.743,69.743 141.584 C 69.901 140.793,69.663 140.279,68.728 139.397 C 67.611 138.342,67.526 138.083,67.732 136.341 C 67.888 135.028,67.763 134.049,67.331 133.182 C 66.542 131.599,66.816 129.262,67.985 127.621 C 68.461 126.952,68.819 126.089,68.779 125.702 C 68.632 124.253,68.823 123.577,69.600 122.800 C 70.560 121.840,70.483 121.842,75.000 122.634 M156.698 144.498 L 175.200 162.997 175.200 175.698 L 175.200 188.400 174.300 188.393 C 170.649 188.365,163.766 185.764,159.973 182.980 C 158.918 182.206,151.884 175.054,144.340 167.086 C 136.797 159.119,129.392 151.314,127.885 149.741 L 125.145 146.882 126.222 144.741 C 128.604 140.007,137.386 126.000,137.971 126.000 C 138.095 126.000,146.523 134.324,156.698 144.498 M263.284 130.500 C 266.193 134.879,270.186 141.605,271.983 145.154 L 272.871 146.908 270.301 149.554 C 268.887 151.009,261.650 158.647,254.219 166.527 C 236.581 185.231,232.259 188.327,223.700 188.393 L 222.800 188.400 222.800 175.702 L 222.800 163.003 241.298 144.502 C 251.472 134.326,259.909 126.000,260.045 126.000 C 260.182 126.000,261.639 128.025,263.284 130.500 M89.473 134.645 L 90.800 138.078 90.800 147.874 L 90.800 157.670 88.846 155.335 C 86.887 152.994,84.583 150.946,82.900 150.051 C 81.623 149.371,81.551 143.697,82.800 142.109 C 83.240 141.550,83.600 140.495,83.600 139.765 C 83.600 138.782,83.872 138.251,84.649 137.719 C 87.240 135.943,87.600 135.361,87.600 132.952 C 87.600 130.137,87.800 130.318,89.473 134.645 M312.322 132.658 C 313.033 132.848,313.215 133.143,313.122 133.950 L 313.000 134.996 303.000 135.031 C 297.500 135.051,292.550 135.211,292.000 135.387 C 291.003 135.705,291.002 135.704,291.765 134.850 C 293.329 133.099,308.091 131.525,312.322 132.658 M346.061 132.978 C 350.061 133.550,351.088 133.901,352.009 135.011 C 352.501 135.604,352.405 135.637,350.976 135.365 C 350.109 135.200,345.575 135.051,340.900 135.033 C 335.526 135.012,332.398 134.853,332.395 134.600 C 332.392 134.380,332.281 133.795,332.148 133.300 C 331.850 132.188,339.330 132.015,346.061 132.978 M107.658 142.972 C 116.096 145.266,123.283 147.253,123.628 147.387 C 125.296 148.034,155.001 180.086,155.120 181.367 C 155.186 182.075,154.780 192.902,154.219 205.427 C 153.658 217.952,153.199 228.514,153.199 228.897 C 153.200 229.554,151.426 229.594,122.600 229.592 L 92.000 229.591 92.000 184.195 C 92.000 159.228,92.071 138.800,92.158 138.800 C 92.245 138.800,99.220 140.677,107.658 142.972 M306.000 184.195 L 306.000 229.591 275.586 229.592 C 251.707 229.593,245.138 229.487,245.014 229.097 C 244.927 228.824,244.385 217.755,243.809 204.501 L 242.763 180.401 258.354 163.916 L 273.946 147.430 289.473 143.161 C 298.013 140.813,305.225 138.872,305.500 138.846 C 305.897 138.809,306.000 148.121,306.000 184.195 M80.800 258.386 L 80.800 372.772 79.902 373.253 C 78.706 373.893,75.840 373.864,74.598 373.199 L 73.600 372.665 73.600 259.178 L 73.600 145.691 76.128 145.214 C 77.518 144.951,78.913 144.574,79.228 144.375 C 79.542 144.175,80.025 144.009,80.300 144.006 C 80.699 144.001,80.800 167.141,80.800 258.386 M221.200 267.200 L 221.200 370.800 199.000 370.800 L 176.800 370.800 176.800 267.200 L 176.800 163.600 199.000 163.600 L 221.200 163.600 221.200 267.200 M194.679 179.454 C 194.526 179.608,194.400 183.033,194.400 187.067 L 194.400 194.400 190.867 194.400 C 186.557 194.400,186.962 193.864,187.200 199.253 L 187.400 203.777 190.900 203.654 L 194.400 203.532 194.400 211.966 L 194.400 220.400 199.000 220.400 L 203.600 220.400 203.600 212.000 L 203.600 203.600 207.200 203.600 L 210.800 203.600 210.800 199.000 L 210.800 194.400 207.209 194.400 L 203.618 194.400 203.509 186.900 L 203.400 179.400 199.179 179.287 C 196.858 179.225,194.833 179.300,194.679 179.454 M202.309 188.100 L 202.418 195.600 206.009 195.600 L 209.600 195.600 209.600 199.000 L 209.600 202.400 206.000 202.400 L 202.400 202.400 202.400 210.800 L 202.400 219.200 199.000 219.200 L 195.600 219.200 195.600 210.800 L 195.600 202.400 192.000 202.400 L 188.400 202.400 188.400 199.000 L 188.400 195.600 192.000 195.600 L 195.600 195.600 195.600 188.267 C 195.600 179.751,195.330 180.337,199.182 180.485 L 202.200 180.600 202.309 188.100 M242.229 193.876 C 243.230 215.862,243.978 233.803,246.986 308.000 C 248.632 348.590,250.097 383.990,250.241 386.667 L 250.505 391.535 247.552 392.417 C 221.350 400.242,175.217 400.202,150.275 392.333 L 147.550 391.473 147.792 388.036 C 147.925 386.146,149.468 349.050,151.220 305.600 C 154.543 223.200,156.301 182.365,156.538 182.129 C 156.614 182.052,157.380 182.548,158.238 183.231 C 162.061 186.269,168.121 188.808,173.011 189.419 L 175.198 189.692 175.299 280.746 L 175.400 371.800 199.000 371.800 L 222.600 371.800 222.701 280.746 L 222.802 189.692 225.101 189.407 C 230.111 188.786,236.304 186.117,239.800 183.073 C 241.852 181.287,241.606 180.193,242.229 193.876 M152.988 234.100 C 152.868 235.915,151.698 264.580,150.386 297.800 C 149.074 331.020,147.893 359.710,147.760 361.555 L 147.519 364.909 143.260 364.676 C 131.685 364.043,122.399 357.936,115.398 346.355 L 113.464 343.157 117.169 287.478 C 119.207 256.855,120.942 231.575,121.024 231.300 C 121.142 230.911,124.725 230.800,137.190 230.800 L 153.205 230.800 152.988 234.100 M277.221 232.300 C 277.232 233.125,278.913 258.370,280.957 288.400 L 284.673 343.000 283.262 345.400 C 275.825 358.046,265.434 364.800,253.417 364.800 C 251.152 364.800,250.400 364.665,250.400 364.261 C 250.400 363.964,249.230 334.977,247.800 299.846 C 246.370 264.715,245.200 234.807,245.200 233.385 L 245.200 230.800 261.200 230.800 L 277.200 230.800 277.221 232.300 M194.667 270.267 C 194.520 270.413,194.400 273.849,194.400 277.901 L 194.400 285.268 190.900 285.146 L 187.400 285.025 187.287 289.712 L 187.175 294.400 190.779 294.400 L 194.384 294.400 194.492 302.700 L 194.600 311.000 199.100 311.113 L 203.600 311.226 203.600 302.773 L 203.600 294.320 207.218 294.460 C 211.509 294.626,211.291 294.931,211.117 289.015 L 211.000 285.031 207.300 285.149 L 203.600 285.266 203.600 277.633 L 203.600 270.000 199.267 270.000 C 196.883 270.000,194.813 270.120,194.667 270.267 M202.400 279.000 L 202.400 286.400 206.000 286.400 L 209.600 286.400 209.600 289.800 L 209.600 293.200 206.008 293.200 L 202.416 293.200 202.308 301.500 L 202.200 309.800 199.000 309.800 L 195.800 309.800 195.692 301.500 L 195.584 293.200 191.992 293.200 L 188.400 293.200 188.400 289.800 L 188.400 286.400 192.000 286.400 L 195.600 286.400 195.600 279.000 L 195.600 271.600 199.000 271.600 L 202.400 271.600 202.400 279.000 M165.289 396.780 C 169.090 397.429,173.415 398.084,174.900 398.235 C 178.067 398.558,177.993 398.344,176.798 403.750 C 174.619 413.607,168.816 420.200,162.320 420.200 C 158.517 420.200,158.063 418.560,160.730 414.450 C 162.250 412.107,162.497 411.200,161.615 411.200 C 161.429 411.200,160.726 412.175,160.053 413.367 C 158.393 416.310,158.194 416.344,156.917 413.915 C 155.054 410.370,155.804 395.600,157.847 395.600 C 158.139 395.600,161.488 396.131,165.289 396.780 M241.120 397.300 C 242.773 404.071,242.786 410.661,241.153 413.779 C 239.888 416.195,239.678 416.180,238.106 413.561 C 237.393 412.374,236.628 411.343,236.405 411.268 C 235.630 411.010,236.009 412.261,237.408 414.585 C 239.833 418.613,239.583 419.920,236.315 420.288 C 230.133 420.985,223.725 414.078,221.391 404.202 C 219.959 398.140,219.708 398.637,224.500 398.041 C 226.755 397.761,230.850 397.120,233.600 396.618 C 240.843 395.294,240.626 395.275,241.120 397.300 " stroke="none" fill="#ba634d" fill-rule="evenodd"></path><path id="path4" d="M1.299 130.500 L 1.399 259.800 1.500 130.700 L 1.601 1.600 200.000 1.600 L 398.399 1.600 398.500 130.700 L 398.601 259.800 398.701 130.500 L 398.800 1.200 200.000 1.200 L 1.200 1.200 1.299 130.500 M161.781 30.100 L 160.200 31.800 161.900 30.219 C 162.835 29.349,163.600 28.584,163.600 28.519 C 163.600 28.216,163.252 28.519,161.781 30.100 M237.600 32.125 C 237.600 32.194,238.185 32.779,238.900 33.425 L 240.200 34.600 239.025 33.300 C 237.930 32.088,237.600 31.816,237.600 32.125 M83.693 40.000 C 83.693 40.770,83.775 41.085,83.876 40.700 C 83.976 40.315,83.976 39.685,83.876 39.300 C 83.775 38.915,83.693 39.230,83.693 40.000 M70.893 43.600 C 70.893 44.370,70.975 44.685,71.076 44.300 C 71.176 43.915,71.176 43.285,71.076 42.900 C 70.975 42.515,70.893 42.830,70.893 43.600 M72.128 56.800 C 72.128 58.230,72.201 58.815,72.289 58.100 C 72.378 57.385,72.378 56.215,72.289 55.500 C 72.201 54.785,72.128 55.370,72.128 56.800 M82.128 56.800 C 82.128 58.230,82.201 58.815,82.289 58.100 C 82.378 57.385,82.378 56.215,82.289 55.500 C 82.201 54.785,82.128 55.370,82.128 56.800 M48.476 63.876 C 48.434 67.438,48.535 70.437,48.700 70.539 C 48.865 70.642,48.953 68.718,48.895 66.263 C 48.705 58.172,48.552 57.304,48.476 63.876 M105.599 64.081 C 105.489 67.756,105.540 70.622,105.711 70.451 C 105.881 70.279,105.971 67.273,105.909 63.769 L 105.798 57.400 105.599 64.081 M297.100 62.696 C 298.475 62.774,300.725 62.774,302.100 62.696 C 303.475 62.618,302.350 62.554,299.600 62.554 C 296.850 62.554,295.725 62.618,297.100 62.696 M341.500 62.696 C 342.875 62.774,345.125 62.774,346.500 62.696 C 347.875 62.618,346.750 62.554,344.000 62.554 C 341.250 62.554,340.125 62.618,341.500 62.696 M71.100 68.682 C 72.097 68.874,72.565 83.253,71.590 83.737 C 71.365 83.849,71.410 83.894,71.690 83.837 C 72.077 83.759,72.226 81.891,72.309 76.067 L 72.417 68.400 71.309 68.454 C 70.365 68.501,70.334 68.535,71.100 68.682 M82.090 75.900 L 82.181 83.400 82.299 76.127 C 82.416 68.967,82.432 68.851,83.309 68.681 C 84.062 68.536,84.030 68.501,83.100 68.454 L 82.000 68.400 82.090 75.900 M50.500 70.676 C 50.885 70.776,51.515 70.776,51.900 70.676 C 52.285 70.575,51.970 70.493,51.200 70.493 C 50.430 70.493,50.115 70.575,50.500 70.676 M43.845 82.328 C 43.733 82.508,44.173 82.577,44.821 82.482 C 45.470 82.387,46.000 82.240,46.000 82.155 C 46.000 81.850,44.043 82.007,43.845 82.328 M50.707 82.690 C 51.426 82.779,52.506 82.777,53.107 82.686 C 53.708 82.595,53.120 82.522,51.800 82.524 C 50.480 82.526,49.988 82.601,50.707 82.690 M101.507 82.690 C 102.226 82.779,103.306 82.777,103.907 82.686 C 104.508 82.595,103.920 82.522,102.600 82.524 C 101.280 82.526,100.788 82.601,101.507 82.690 M57.300 83.076 C 57.685 83.176,58.315 83.176,58.700 83.076 C 59.085 82.975,58.770 82.893,58.000 82.893 C 57.230 82.893,56.915 82.975,57.300 83.076 M95.700 83.076 C 96.085 83.176,96.715 83.176,97.100 83.076 C 97.485 82.975,97.170 82.893,96.400 82.893 C 95.630 82.893,95.315 82.975,95.700 83.076 M43.360 89.000 C 43.361 92.300,43.422 93.597,43.498 91.882 C 43.573 90.167,43.572 87.467,43.497 85.882 C 43.421 84.297,43.359 85.700,43.360 89.000 M64.500 83.476 C 64.885 83.576,65.515 83.576,65.900 83.476 C 66.285 83.375,65.970 83.293,65.200 83.293 C 64.430 83.293,64.115 83.375,64.500 83.476 M72.180 107.400 C 72.180 114.880,72.234 117.883,72.299 114.074 C 72.365 110.265,72.365 104.145,72.299 100.474 C 72.233 96.803,72.179 99.920,72.180 107.400 M82.178 107.200 C 82.178 114.130,82.233 116.965,82.299 113.500 C 82.366 110.035,82.366 104.365,82.299 100.900 C 82.233 97.435,82.178 100.270,82.178 107.200 M52.300 95.482 C 52.795 95.578,53.605 95.578,54.100 95.482 C 54.595 95.387,54.190 95.309,53.200 95.309 C 52.210 95.309,51.805 95.387,52.300 95.482 M100.505 95.487 C 101.114 95.579,102.014 95.577,102.505 95.482 C 102.997 95.387,102.500 95.311,101.400 95.314 C 100.300 95.317,99.897 95.395,100.505 95.487 M143.586 117.100 L 141.400 119.400 143.700 117.214 C 144.965 116.011,146.000 114.976,146.000 114.914 C 146.000 114.617,145.618 114.963,143.586 117.100 M82.098 262.300 C 82.152 323.405,82.242 355.400,82.298 333.400 C 82.570 226.459,82.571 151.200,82.300 151.200 C 82.135 151.200,82.044 201.195,82.098 262.300 M90.591 195.200 C 90.591 214.670,90.640 222.635,90.700 212.900 C 90.760 203.165,90.760 187.235,90.700 177.500 C 90.640 167.765,90.591 175.730,90.591 195.200 M278.446 231.700 C 278.481 232.369,278.539 232.422,278.675 231.905 C 278.842 231.265,279.947 231.202,292.728 231.100 L 306.600 230.989 292.500 230.895 L 278.400 230.800 278.446 231.700 M250.893 372.400 C 250.893 373.170,250.975 373.485,251.076 373.100 C 251.176 372.715,251.176 372.085,251.076 371.700 C 250.975 371.315,250.893 371.630,250.893 372.400 M146.893 374.400 C 146.893 375.170,146.975 375.485,147.076 375.100 C 147.176 374.715,147.176 374.085,147.076 373.700 C 146.975 373.315,146.893 373.630,146.893 374.400 M251.293 381.200 C 251.293 381.970,251.375 382.285,251.476 381.900 C 251.576 381.515,251.576 380.885,251.476 380.500 C 251.375 380.115,251.293 380.430,251.293 381.200 M146.493 383.200 C 146.493 383.970,146.575 384.285,146.676 383.900 C 146.776 383.515,146.776 382.885,146.676 382.500 C 146.575 382.115,146.493 382.430,146.493 383.200 M251.693 389.600 C 251.693 390.370,251.775 390.685,251.876 390.300 C 251.976 389.915,251.976 389.285,251.876 388.900 C 251.775 388.515,251.693 388.830,251.693 389.600 M341.200 393.000 C 339.561 394.650,338.310 396.000,338.420 396.000 C 338.530 396.000,339.961 394.650,341.600 393.000 C 343.239 391.350,344.490 390.000,344.380 390.000 C 344.270 390.000,342.839 391.350,341.200 393.000 M59.000 393.600 C 60.528 395.140,61.869 396.400,61.979 396.400 C 62.089 396.400,60.928 395.140,59.400 393.600 C 57.872 392.060,56.531 390.800,56.421 390.800 C 56.311 390.800,57.472 392.060,59.000 393.600 M334.975 398.900 L 333.800 400.200 335.100 399.025 C 335.815 398.379,336.400 397.794,336.400 397.725 C 336.400 397.416,336.070 397.688,334.975 398.900 M64.400 398.525 C 64.400 398.594,64.985 399.179,65.700 399.825 L 67.000 401.000 65.825 399.700 C 64.730 398.488,64.400 398.216,64.400 398.525 M154.120 407.200 C 154.120 408.410,154.195 408.905,154.287 408.300 C 154.378 407.695,154.378 406.705,154.287 406.100 C 154.195 405.495,154.120 405.990,154.120 407.200 M243.720 407.200 C 243.720 408.410,243.795 408.905,243.887 408.300 C 243.978 407.695,243.978 406.705,243.887 406.100 C 243.795 405.495,243.720 405.990,243.720 407.200 M188.100 450.687 C 188.705 450.778,189.695 450.778,190.300 450.687 C 190.905 450.595,190.410 450.520,189.200 450.520 C 187.990 450.520,187.495 450.595,188.100 450.687 M209.700 450.687 C 210.305 450.778,211.295 450.778,211.900 450.687 C 212.505 450.595,212.010 450.520,210.800 450.520 C 209.590 450.520,209.095 450.595,209.700 450.687 M197.900 451.095 C 199.055 451.176,200.945 451.176,202.100 451.095 C 203.255 451.014,202.310 450.948,200.000 450.948 C 197.690 450.948,196.745 451.014,197.900 451.095 " stroke="none" fill="#de2820" fill-rule="evenodd"></path></g></svg>