<?xml version="1.0" encoding="utf-8"?>
<!-- Generator: Adobe Illustrator 17.1.0, SVG Export Plug-In . SVG Version: 6.00 Build 0)  -->
<!DOCTYPE svg PUBLIC "-//W3C//DTD SVG 1.1//EN" "http://www.w3.org/Graphics/SVG/1.1/DTD/svg11.dtd">
<svg version="1.1" id="Layer_1" xmlns="http://www.w3.org/2000/svg" xmlns:xlink="http://www.w3.org/1999/xlink" x="0px" y="0px"
	 width="108px" height="66px" viewBox="0 0 108 66" enable-background="new 0 0 108 66" xml:space="preserve">
<path fill="#FFFFFF" d="M111.5,1.9H42.5C21.1,1.9,3.7,19.3,3.7,40.7v25.4c32.6,0,17.4-0.1,38.9-0.1h68.9c21.5,0,10.8,0.1,38.9,0.1
	V40.7C150.3,19.3,132.9,1.9,111.5,1.9z M117.9,66H8.6V42.9C8.6,22.6,25,6.2,45.3,6.2H119L117.9,66z"/>
<path fill="#eeb422" d="M111.5,1.9H42.5C21.1,1.9,3.7,19.3,3.7,40.7v25.4c32.6,0,17.4-0.1,38.9-0.1h68.9c21.5,0,10.8,0.1,38.9,0.1
	V40.7C150.3,19.3,132.9,1.9,111.5,1.9z M117.9,66H8.6V42.9C8.6,22.6,25,6.2,45.3,6.2H119L117.9,66z"/>
<path fill="#FFFFFF" d="M45.3,6.2H119L117.9,66H8.6V42.9C8.6,22.6,25,6.2,45.3,6.2L45.3,6.2z"/>
<path fill="none" d="M45.3,6.2c0,0,54.2,0,62.5,0c0,1.9,0.4,23,0.1,22.9c-8.9,26.2-30,31.1-30,31.1s-45.1,0.5-69.8-9
	C-1.4,47.5,29.5,6.2,45.3,6.2L45.3,6.2z"/>
<linearGradient id="SVGID_1_" gradientUnits="userSpaceOnUse" x1="104.2814" y1="59.8534" x2="15.7018" y2="8.712" gradientTransform="matrix(1 0 0 -1 0 68)">
	<stop  offset="0" style="stop-color:#FFFFFF"/>
	<stop  offset="0.292" style="stop-color:#FFFFFF;stop-opacity:0"/>
</linearGradient>
<path opacity="0.1" fill="url(#SVGID_1_)" enable-background="new    " d="M45.3,9.2c-5.1,0-13.9,6.2-22.4,15.9
	C14.2,35.1,9.4,44.4,9.4,48c0,0.2,0,0.4,0,0.5c9.2,3.5,22.4,6,39.3,7.5c13.4,1.2,25,1.3,28.3,1.3c0,0,0.3,0,0.6,0
	c1.1-0.3,5.5-1.7,10.5-5.3c3.4-2.4,6.5-5.4,9.1-8.8c3.3-4.2,5.9-9.1,7.7-14.6c0-0.3,0-1.1,0-2.8c0-4.5-0.1-12.1-0.2-16.5
	C99.5,9.2,45.3,9.2,45.3,9.2z"/>
</svg>
