<?xml version="1.0" encoding="utf-8"?>
<!-- Generator: Adobe Illustrator 16.0.2, SVG Export Plug-In . SVG Version: 6.00 Build 0)  -->
<!DOCTYPE svg PUBLIC "-//W3C//DTD SVG 1.1//EN" "http://www.w3.org/Graphics/SVG/1.1/DTD/svg11.dtd">
<svg version="1.1" id="Layer_1" xmlns="http://www.w3.org/2000/svg" xmlns:xlink="http://www.w3.org/1999/xlink" x="0px" y="0px"
	 width="120px" height="120px" viewBox="0 0 120 120" enable-background="new 0 0 120 120" xml:space="preserve">
<g id="black_white">
	<path fill="#3A3A3A" d="M65.553,56.73v12.486H55.447V56.731c1.65-0.458,3.338-0.702,5.054-0.702
		C62.216,56.029,63.904,56.273,65.553,56.73z M86.963,104.844c6.38,0,14.852,0,19.7,0c0-9.1,0-64.701,0-73.801
		c-7.589,0-84.736,0-92.326,0c0,9.1,0,64.701,0,73.801c4.85,0,13.321,0,19.702,0c-0.621-3.474-0.94-7.072-0.94-10.68
		c0-10.868,2.792-21.116,7.864-28.855c5.191-7.919,12.129-12.28,19.538-12.28s14.347,4.36,19.537,12.28
		c5.071,7.738,7.864,17.987,7.864,28.855C87.902,97.771,87.584,101.37,86.963,104.844 M55.447,22.043v6h10.106v-6H55.447z
		 M48.609,22.046h23.782c0.743,0,1.172-0.848,0.729-1.446L61.229,4.525c-0.361-0.49-1.096-0.49-1.458,0L47.88,20.6
		C47.438,21.199,47.865,22.046,48.609,22.046z"/>
</g>
<g id="blue">
	<path fill-opacity="0.1" d="M31.33,106.922c-8.949,0-16.229-7.279-16.229-16.229V31.164c0-8.948,7.28-16.228,16.229-16.228h59.527
		c8.949,0,16.229,7.28,16.229,16.228v59.529c0,8.947-7.28,16.229-16.229,16.229H31.33"/>
	<path fill="#00598C" d="M29.33,104.922c-8.949,0-16.229-7.279-16.229-16.229V29.164c0-8.948,7.28-16.228,16.229-16.228h59.527
		c8.949,0,16.229,7.28,16.229,16.228v59.529c0,8.947-7.28,16.229-16.229,16.229H29.33"/>
	<g>
		
			<linearGradient id="SVGID_1_" gradientUnits="userSpaceOnUse" x1="296.6943" y1="-341.8228" x2="296.6942" y2="-255.8354" gradientTransform="matrix(1 0 0 -1 -237.5996 -239.9004)">
			<stop  offset="0" style="stop-color:#48A2FB"/>
			<stop  offset="0.1758" style="stop-color:#059CF4"/>
			<stop  offset="0.4969" style="stop-color:#0398EF"/>
			<stop  offset="0.782" style="stop-color:#0293E7"/>
			<stop  offset="1" style="stop-color:#0189D8"/>
		</linearGradient>
		<path fill="url(#SVGID_1_)" d="M88.857,101.923H29.33c-7.306,0-13.23-5.923-13.23-13.229V29.164
			c0-7.306,5.924-13.229,13.23-13.229h59.527c7.308,0,13.23,5.922,13.23,13.229v59.529C102.089,96,96.165,101.923,88.857,101.923
			L88.857,101.923z"/>
	</g>
	<path fill="#00598C" d="M54.711,79.113c-1.657,0-3-1.342-3-3v-9.028c0-1.317,0.86-2.481,2.121-2.868
		c1.552-0.476,3.121-0.716,4.668-0.716c1.693,0,3.384,0.274,5.025,0.819c1.228,0.406,2.056,1.556,2.056,2.848v8.945
		c0,1.658-1.343,3-3,3H54.711"/>
	<path fill="#FFFFFF" d="M54.711,67.085c1.208-0.37,2.475-0.585,3.79-0.585c1.418,0,2.787,0.238,4.081,0.668v8.945h-7.87
		L54.711,67.085L54.711,67.085z"/>
	<path fill="#00598C" d="M61.859,64.889c-1.131-0.279-2.262-0.423-3.359-0.423c-1.049,0-2.1,0.119-3.123,0.353
		c-0.221,0.051-0.445,0.074-0.668,0.074c-0.672,0-1.334-0.228-1.869-0.654c-0.714-0.568-1.129-1.432-1.129-2.346
		c0,0,0-7.766,0-11.544c-1.14,0-2.213,0-2.308,0c-0.104,0.011-0.218,0.018-0.336,0.018c-2.107,0-3.823-1.715-3.823-3.823
		c0-0.988,0.384-1.923,1.066-2.631c0.292-0.392,9.452-12.677,9.452-12.677s-0.04,0.061-0.07,0.107
		c0.716-1.063,1.893-1.696,3.16-1.696c1.238,0,2.382,0.601,3.098,1.597c0.018,0.022,0.034,0.045,0.051,0.067
		c0,0,8.958,12.154,9.276,12.586c0.693,0.709,1.08,1.648,1.08,2.647c0,2.108-1.715,3.823-3.822,3.823c0,0-0.1-0.013-0.131-0.018
		c-0.01,0-0.021,0-0.029,0c0,0-1.398,0-2.794,0c0,3.791,0,11.628,0,11.628c0,0.922-0.425,1.793-1.149,2.361
		c-0.533,0.417-1.186,0.639-1.849,0.639C62.343,64.977,62.1,64.945,61.859,64.889"/>
	<path fill="#FFFFFF" d="M68.535,47.365c-0.055,0-0.102-0.021-0.152-0.03l-0.008,0.013h-5.794v14.628
		c-1.313-0.326-2.679-0.51-4.081-0.51c-1.297,0-2.566,0.146-3.79,0.426V47.348h-5.42l-0.018-0.024
		c-0.067,0.018-0.131,0.042-0.205,0.042c-0.455,0-0.823-0.368-0.823-0.823c0-0.263,0.131-0.485,0.322-0.636l9.603-12.879h0.006
		c0.146-0.224,0.389-0.383,0.677-0.383c0.315,0,0.58,0.183,0.718,0.444h0.016L69.027,45.9c0.195,0.15,0.33,0.376,0.33,0.644
		C69.357,46.997,68.99,47.365,68.535,47.365L68.535,47.365z"/>
	<path fill="#00598C" d="M72.559,90.785c1.205-2.5,1.893-5.355,1.893-8.391c0-9.81-7.143-17.763-15.95-17.763
		c-8.809,0-15.95,7.953-15.95,17.763c0,3.035,0.687,5.891,1.892,8.391H23.578V54.503h69.843v36.282H72.559L72.559,90.785z"/>
	<path fill="#FFFFFF" d="M76.799,87.786c0.43-1.754,0.65-3.57,0.65-5.392c0-5.484-1.932-10.658-5.438-14.563
		c-3.59-3.997-8.388-6.198-13.511-6.198s-9.921,2.201-13.511,6.198c-3.507,3.905-5.438,9.079-5.438,14.563
		c0,1.82,0.221,3.638,0.65,5.392c-4.412,0-10.271,0-13.624,0c0-4.595,0-25.69,0-30.283c5.249,0,58.597,0,63.845,0
		c0,4.593,0,25.688,0,30.283C87.068,87.786,81.211,87.786,76.799,87.786"/>
	
		<linearGradient id="SVGID_2_" gradientUnits="userSpaceOnUse" x1="297.291" y1="-282.6055" x2="297.291" y2="-257.9302" gradientTransform="matrix(1 0 0 -1 -237.5996 -239.9004)">
		<stop  offset="0" style="stop-color:#FFFFFF;stop-opacity:0"/>
		<stop  offset="1" style="stop-color:#FFFFFF;stop-opacity:0.8"/>
	</linearGradient>
	<path fill="url(#SVGID_2_)" d="M36.279,34.888c-10.953-3.797-15.283-8.096-16.986-10.74c1.672-3.347,4.899-5.653,8.636-6.118
		c0.237,0,61.958,0,61.958,0l0.297,0.01c0,0,0.086,0.005,0.168,0.008c5.557,0.737,9.737,5.503,9.737,11.116c0,0,0,10.497,0,13.541
		C72.244,42.546,50.784,39.917,36.279,34.888"/>
</g>
<g id="green">
	<path fill-opacity="0.1" d="M31.33,106.922c-8.949,0-16.229-7.279-16.229-16.229V31.164c0-8.948,7.28-16.228,16.229-16.228h59.527
		c8.949,0,16.229,7.28,16.229,16.228v59.529c0,8.947-7.28,16.229-16.229,16.229H31.33"/>
	<path fill="#015911" d="M29.33,104.922c-8.949,0-16.229-7.279-16.229-16.229V29.164c0-8.948,7.28-16.228,16.229-16.228h59.527
		c8.949,0,16.229,7.28,16.229,16.228v59.529c0,8.947-7.28,16.229-16.229,16.229H29.33"/>
	<g>
		
			<linearGradient id="SVGID_3_" gradientUnits="userSpaceOnUse" x1="296.6943" y1="-341.8228" x2="296.6942" y2="-255.8354" gradientTransform="matrix(1 0 0 -1 -237.5996 -239.9004)">
			<stop  offset="0" style="stop-color:#00DF34"/>
			<stop  offset="0.1758" style="stop-color:#00CD26"/>
			<stop  offset="0.4969" style="stop-color:#00B211"/>
			<stop  offset="0.782" style="stop-color:#00A204"/>
			<stop  offset="1" style="stop-color:#009C00"/>
		</linearGradient>
		<path fill="url(#SVGID_3_)" d="M88.857,101.923H29.33c-7.306,0-13.23-5.923-13.23-13.229V29.164
			c0-7.306,5.924-13.229,13.23-13.229h59.527c7.308,0,13.23,5.922,13.23,13.229v59.529C102.089,96,96.165,101.923,88.857,101.923
			L88.857,101.923z"/>
	</g>
	<path fill="#015911" d="M54.711,79.113c-1.657,0-3-1.342-3-3v-9.028c0-1.317,0.86-2.481,2.121-2.868
		c1.552-0.476,3.121-0.716,4.668-0.716c1.693,0,3.384,0.274,5.025,0.819c1.228,0.406,2.056,1.556,2.056,2.848v8.945
		c0,1.658-1.343,3-3,3H54.711"/>
	<path fill="#FFFFFF" d="M54.711,67.085c1.208-0.37,2.475-0.585,3.79-0.585c1.418,0,2.787,0.238,4.081,0.668v8.945h-7.87
		L54.711,67.085L54.711,67.085z"/>
	<path fill="#015911" d="M61.859,64.889c-1.131-0.279-2.262-0.423-3.359-0.423c-1.049,0-2.1,0.119-3.123,0.353
		c-0.221,0.051-0.445,0.074-0.668,0.074c-0.672,0-1.334-0.228-1.869-0.654c-0.714-0.568-1.129-1.432-1.129-2.346
		c0,0,0-7.766,0-11.544c-1.14,0-2.213,0-2.308,0c-0.104,0.011-0.218,0.018-0.336,0.018c-2.107,0-3.823-1.715-3.823-3.823
		c0-0.988,0.384-1.923,1.066-2.631c0.292-0.392,9.452-12.677,9.452-12.677s-0.04,0.061-0.07,0.107
		c0.716-1.063,1.893-1.696,3.16-1.696c1.238,0,2.382,0.601,3.098,1.597c0.018,0.022,0.034,0.045,0.051,0.067
		c0,0,8.958,12.154,9.276,12.586c0.693,0.709,1.08,1.648,1.08,2.647c0,2.108-1.715,3.823-3.822,3.823c0,0-0.1-0.013-0.131-0.018
		c-0.01,0-0.021,0-0.029,0c0,0-1.398,0-2.794,0c0,3.791,0,11.628,0,11.628c0,0.922-0.425,1.793-1.149,2.361
		c-0.533,0.417-1.186,0.639-1.849,0.639C62.343,64.977,62.1,64.945,61.859,64.889"/>
	<path fill="#FFFFFF" d="M68.535,47.365c-0.055,0-0.102-0.021-0.152-0.03l-0.008,0.013h-5.794v14.628
		c-1.313-0.326-2.679-0.51-4.081-0.51c-1.297,0-2.566,0.146-3.79,0.426V47.348h-5.42l-0.018-0.024
		c-0.067,0.018-0.131,0.042-0.205,0.042c-0.455,0-0.823-0.368-0.823-0.823c0-0.263,0.131-0.485,0.322-0.636l9.603-12.879h0.006
		c0.146-0.224,0.389-0.383,0.677-0.383c0.315,0,0.58,0.183,0.718,0.444h0.016L69.027,45.9c0.195,0.15,0.33,0.376,0.33,0.644
		C69.357,46.997,68.99,47.365,68.535,47.365L68.535,47.365z"/>
	<path fill="#015911" d="M72.559,90.785c1.205-2.5,1.893-5.355,1.893-8.391c0-9.81-7.143-17.763-15.95-17.763
		c-8.809,0-15.95,7.953-15.95,17.763c0,3.035,0.687,5.891,1.892,8.391H23.578V54.503h69.843v36.282H72.559L72.559,90.785z"/>
	<path fill="#FFFFFF" d="M76.799,87.786c0.43-1.754,0.65-3.57,0.65-5.392c0-5.484-1.932-10.658-5.438-14.563
		c-3.59-3.997-8.388-6.198-13.511-6.198s-9.921,2.201-13.511,6.198c-3.507,3.905-5.438,9.079-5.438,14.563
		c0,1.82,0.221,3.638,0.65,5.392c-4.412,0-10.271,0-13.624,0c0-4.595,0-25.69,0-30.283c5.249,0,58.597,0,63.845,0
		c0,4.593,0,25.688,0,30.283C87.068,87.786,81.211,87.786,76.799,87.786"/>
	
		<linearGradient id="SVGID_4_" gradientUnits="userSpaceOnUse" x1="297.291" y1="-282.6055" x2="297.291" y2="-257.9302" gradientTransform="matrix(1 0 0 -1 -237.5996 -239.9004)">
		<stop  offset="0" style="stop-color:#FFFFFF;stop-opacity:0"/>
		<stop  offset="1" style="stop-color:#FFFFFF;stop-opacity:0.8"/>
	</linearGradient>
	<path fill="url(#SVGID_4_)" d="M36.279,34.888c-10.953-3.797-15.283-8.096-16.986-10.74c1.672-3.347,4.899-5.653,8.636-6.118
		c0.237,0,61.958,0,61.958,0l0.297,0.01c0,0,0.086,0.005,0.168,0.008c5.557,0.737,9.737,5.503,9.737,11.116c0,0,0,10.497,0,13.541
		C72.244,42.546,50.784,39.917,36.279,34.888"/>
</g>
<g id="kia">
	<path fill-opacity="0.1" d="M31.33,106.922c-8.949,0-16.229-7.279-16.229-16.229V31.164c0-8.948,7.28-16.228,16.229-16.228h59.527
		c8.949,0,16.229,7.28,16.229,16.228v59.529c0,8.947-7.28,16.229-16.229,16.229H31.33"/>
	<path fill="#eeb422" d="M29.33,104.922c-8.949,0-16.229-7.279-16.229-16.229V29.164c0-8.948,7.28-16.228,16.229-16.228h59.527
		c8.949,0,16.229,7.28,16.229,16.228v59.529c0,8.947-7.28,16.229-16.229,16.229H29.33"/>
	<g>
		
			<linearGradient id="SVGID_5_" gradientUnits="userSpaceOnUse" x1="296.6943" y1="-341.8228" x2="296.6942" y2="-255.8354" gradientTransform="matrix(1 0 0 -1 -237.5996 -239.9004)">
			<stop  offset="0" style="stop-color:#FFFFFF"/>
			<stop  offset="0.1758" style="stop-color:#E7E9EA"/>
			<stop  offset="0.4969" style="stop-color:#CDD2D5"/>
			<stop  offset="0.782" style="stop-color:#C5CACC"/>
			<stop  offset="1" style="stop-color:#BABDC0"/>
		</linearGradient>
		<path fill="url(#SVGID_5_)" d="M88.857,101.923H29.33c-7.306,0-13.23-5.923-13.23-13.229V29.164
			c0-7.306,5.924-13.229,13.23-13.229h59.527c7.308,0,13.23,5.922,13.23,13.229v59.529C102.089,96,96.165,101.923,88.857,101.923
			L88.857,101.923z"/>
	</g>
	<path fill="#eeb422" d="M54.711,79.113c-1.657,0-3-1.342-3-3v-9.028c0-1.317,0.86-2.481,2.121-2.868
		c1.552-0.476,3.121-0.716,4.668-0.716c1.693,0,3.384,0.274,5.025,0.819c1.228,0.406,2.056,1.556,2.056,2.848v8.945
		c0,1.658-1.343,3-3,3H54.711"/>
	<path fill="#FFFFFF" d="M54.711,67.085c1.208-0.37,2.475-0.585,3.79-0.585c1.418,0,2.787,0.238,4.081,0.668v8.945h-7.87
		L54.711,67.085L54.711,67.085z"/>
	<path fill="#eeb422" d="M61.859,64.889c-1.131-0.279-2.262-0.423-3.359-0.423c-1.049,0-2.1,0.119-3.123,0.353
		c-0.221,0.051-0.445,0.074-0.668,0.074c-0.672,0-1.334-0.228-1.869-0.654c-0.714-0.568-1.129-1.432-1.129-2.346
		c0,0,0-7.766,0-11.544c-1.14,0-2.213,0-2.308,0c-0.104,0.011-0.218,0.018-0.336,0.018c-2.107,0-3.823-1.715-3.823-3.823
		c0-0.988,0.384-1.923,1.066-2.631c0.292-0.392,9.452-12.677,9.452-12.677s-0.04,0.061-0.07,0.107
		c0.716-1.063,1.893-1.696,3.16-1.696c1.238,0,2.382,0.601,3.098,1.597c0.018,0.022,0.034,0.045,0.051,0.067
		c0,0,8.958,12.154,9.276,12.586c0.693,0.709,1.08,1.648,1.08,2.647c0,2.108-1.715,3.823-3.822,3.823c0,0-0.1-0.013-0.131-0.018
		c-0.01,0-0.021,0-0.029,0c0,0-1.398,0-2.794,0c0,3.791,0,11.628,0,11.628c0,0.922-0.425,1.793-1.149,2.361
		c-0.533,0.417-1.186,0.639-1.849,0.639C62.343,64.977,62.1,64.945,61.859,64.889"/>
	<path fill="#FFFFFF" d="M68.535,47.365c-0.055,0-0.102-0.021-0.152-0.03l-0.008,0.013h-5.794v14.628
		c-1.313-0.326-2.679-0.51-4.081-0.51c-1.297,0-2.566,0.146-3.79,0.426V47.348h-5.42l-0.018-0.024
		c-0.067,0.018-0.131,0.042-0.205,0.042c-0.455,0-0.823-0.368-0.823-0.823c0-0.263,0.131-0.485,0.322-0.636l9.603-12.879h0.006
		c0.146-0.224,0.389-0.383,0.677-0.383c0.315,0,0.58,0.183,0.718,0.444h0.016L69.027,45.9c0.195,0.15,0.33,0.376,0.33,0.644
		C69.357,46.997,68.99,47.365,68.535,47.365L68.535,47.365z"/>
	<path fill="#eeb422" d="M72.559,90.785c1.205-2.5,1.893-5.355,1.893-8.391c0-9.81-7.143-17.763-15.95-17.763
		c-8.809,0-15.95,7.953-15.95,17.763c0,3.035,0.687,5.891,1.892,8.391H23.578V54.503h69.843v36.282H72.559L72.559,90.785z"/>
	<path fill="#FFFFFF" d="M76.799,87.786c0.43-1.754,0.65-3.57,0.65-5.392c0-5.484-1.932-10.658-5.438-14.563
		c-3.59-3.997-8.388-6.198-13.511-6.198s-9.921,2.201-13.511,6.198c-3.507,3.905-5.438,9.079-5.438,14.563
		c0,1.82,0.221,3.638,0.65,5.392c-4.412,0-10.271,0-13.624,0c0-4.595,0-25.69,0-30.283c5.249,0,58.597,0,63.845,0
		c0,4.593,0,25.688,0,30.283C87.068,87.786,81.211,87.786,76.799,87.786"/>
	
		<linearGradient id="SVGID_6_" gradientUnits="userSpaceOnUse" x1="297.291" y1="-282.6055" x2="297.291" y2="-257.9302" gradientTransform="matrix(1 0 0 -1 -237.5996 -239.9004)">
		<stop  offset="0" style="stop-color:#FFFFFF;stop-opacity:0"/>
		<stop  offset="1" style="stop-color:#FFFFFF;stop-opacity:0.8"/>
	</linearGradient>
	<path fill="url(#SVGID_6_)" d="M36.279,34.888c-10.953-3.797-15.283-8.096-16.986-10.74c1.672-3.347,4.899-5.653,8.636-6.118
		c0.237,0,61.958,0,61.958,0l0.297,0.01c0,0,0.086,0.005,0.168,0.008c5.557,0.737,9.737,5.503,9.737,11.116c0,0,0,10.497,0,13.541
		C72.244,42.546,50.784,39.917,36.279,34.888"/>
</g>
<g id="orange">
	<path fill-opacity="0.1" d="M31.33,106.922c-8.949,0-16.229-7.279-16.229-16.229V31.164c0-8.948,7.28-16.228,16.229-16.228h59.527
		c8.949,0,16.229,7.28,16.229,16.228v59.529c0,8.947-7.28,16.229-16.229,16.229H31.33"/>
	<path fill="#eeb422" d="M29.33,104.922c-8.949,0-16.229-7.279-16.229-16.229V29.164c0-8.948,7.28-16.228,16.229-16.228h59.527
		c8.949,0,16.229,7.28,16.229,16.228v59.529c0,8.947-7.28,16.229-16.229,16.229H29.33"/>
	<g>
		
			<linearGradient id="SVGID_7_" gradientUnits="userSpaceOnUse" x1="296.6943" y1="-341.8228" x2="296.6942" y2="-255.8354" gradientTransform="matrix(1 0 0 -1 -237.5996 -239.9004)">
			<stop  offset="0" style="stop-color:#FEDF34"/>
			<stop  offset="0.1758" style="stop-color:#FECD26"/>
			<stop  offset="0.4969" style="stop-color:#FFB211"/>
			<stop  offset="0.782" style="stop-color:#FFA204"/>
			<stop  offset="1" style="stop-color:#FF9C00"/>
		</linearGradient>
		<path fill="url(#SVGID_7_)" d="M88.857,101.923H29.33c-7.306,0-13.23-5.923-13.23-13.229V29.164
			c0-7.306,5.924-13.229,13.23-13.229h59.527c7.308,0,13.23,5.922,13.23,13.229v59.529C102.089,96,96.165,101.923,88.857,101.923
			L88.857,101.923z"/>
	</g>
	<path fill="#eeb422" d="M54.711,79.113c-1.657,0-3-1.342-3-3v-9.028c0-1.317,0.86-2.481,2.121-2.868
		c1.552-0.476,3.121-0.716,4.668-0.716c1.693,0,3.384,0.274,5.025,0.819c1.228,0.406,2.056,1.556,2.056,2.848v8.945
		c0,1.658-1.343,3-3,3H54.711"/>
	<path fill="#FFFFFF" d="M54.711,67.085c1.208-0.37,2.475-0.585,3.79-0.585c1.418,0,2.787,0.238,4.081,0.668v8.945h-7.87
		L54.711,67.085L54.711,67.085z"/>
	<path fill="#eeb422" d="M61.859,64.889c-1.131-0.279-2.262-0.423-3.359-0.423c-1.049,0-2.1,0.119-3.123,0.353
		c-0.221,0.051-0.445,0.074-0.668,0.074c-0.672,0-1.334-0.228-1.869-0.654c-0.714-0.568-1.129-1.432-1.129-2.346
		c0,0,0-7.766,0-11.544c-1.14,0-2.213,0-2.308,0c-0.104,0.011-0.218,0.018-0.336,0.018c-2.107,0-3.823-1.715-3.823-3.823
		c0-0.988,0.384-1.923,1.066-2.631c0.292-0.392,9.452-12.677,9.452-12.677s-0.04,0.061-0.07,0.107
		c0.716-1.063,1.893-1.696,3.16-1.696c1.238,0,2.382,0.601,3.098,1.597c0.018,0.022,0.034,0.045,0.051,0.067
		c0,0,8.958,12.154,9.276,12.586c0.693,0.709,1.08,1.648,1.08,2.647c0,2.108-1.715,3.823-3.822,3.823c0,0-0.1-0.013-0.131-0.018
		c-0.01,0-0.021,0-0.029,0c0,0-1.398,0-2.794,0c0,3.791,0,11.628,0,11.628c0,0.922-0.425,1.793-1.149,2.361
		c-0.533,0.417-1.186,0.639-1.849,0.639C62.343,64.977,62.1,64.945,61.859,64.889"/>
	<path fill="#FFFFFF" d="M68.535,47.365c-0.055,0-0.102-0.021-0.152-0.03l-0.008,0.013h-5.794v14.628
		c-1.313-0.326-2.679-0.51-4.081-0.51c-1.297,0-2.566,0.146-3.79,0.426V47.348h-5.42l-0.018-0.024
		c-0.067,0.018-0.131,0.042-0.205,0.042c-0.455,0-0.823-0.368-0.823-0.823c0-0.263,0.131-0.485,0.322-0.636l9.603-12.879h0.006
		c0.146-0.224,0.389-0.383,0.677-0.383c0.315,0,0.58,0.183,0.718,0.444h0.016L69.027,45.9c0.195,0.15,0.33,0.376,0.33,0.644
		C69.357,46.997,68.99,47.365,68.535,47.365L68.535,47.365z"/>
	<path fill="#eeb422" d="M72.559,90.785c1.205-2.5,1.893-5.355,1.893-8.391c0-9.81-7.143-17.763-15.95-17.763
		c-8.809,0-15.95,7.953-15.95,17.763c0,3.035,0.687,5.891,1.892,8.391H23.578V54.503h69.843v36.282H72.559L72.559,90.785z"/>
	<path fill="#FFFFFF" d="M76.799,87.786c0.43-1.754,0.65-3.57,0.65-5.392c0-5.484-1.932-10.658-5.438-14.563
		c-3.59-3.997-8.388-6.198-13.511-6.198s-9.921,2.201-13.511,6.198c-3.507,3.905-5.438,9.079-5.438,14.563
		c0,1.82,0.221,3.638,0.65,5.392c-4.412,0-10.271,0-13.624,0c0-4.595,0-25.69,0-30.283c5.249,0,58.597,0,63.845,0
		c0,4.593,0,25.688,0,30.283C87.068,87.786,81.211,87.786,76.799,87.786"/>
	
		<linearGradient id="SVGID_8_" gradientUnits="userSpaceOnUse" x1="297.291" y1="-282.6055" x2="297.291" y2="-257.9302" gradientTransform="matrix(1 0 0 -1 -237.5996 -239.9004)">
		<stop  offset="0" style="stop-color:#FFFFFF;stop-opacity:0"/>
		<stop  offset="1" style="stop-color:#FFFFFF;stop-opacity:0.8"/>
	</linearGradient>
	<path fill="url(#SVGID_8_)" d="M36.279,34.888c-10.953-3.797-15.283-8.096-16.986-10.74c1.672-3.347,4.899-5.653,8.636-6.118
		c0.237,0,61.958,0,61.958,0l0.297,0.01c0,0,0.086,0.005,0.168,0.008c5.557,0.737,9.737,5.503,9.737,11.116c0,0,0,10.497,0,13.541
		C72.244,42.546,50.784,39.917,36.279,34.888"/>
</g>
<g id="red">
	<path fill-opacity="0.1" d="M31.33,106.922c-8.949,0-16.229-7.279-16.229-16.229V31.164c0-8.948,7.28-16.228,16.229-16.228h59.527
		c8.949,0,16.229,7.28,16.229,16.228v59.529c0,8.947-7.28,16.229-16.229,16.229H31.33"/>
	<path fill="#940202" d="M29.33,104.922c-8.949,0-16.229-7.279-16.229-16.229V29.164c0-8.948,7.28-16.228,16.229-16.228h59.527
		c8.949,0,16.229,7.28,16.229,16.228v59.529c0,8.947-7.28,16.229-16.229,16.229H29.33"/>
	<g>
		
			<linearGradient id="SVGID_9_" gradientUnits="userSpaceOnUse" x1="296.6943" y1="-341.8228" x2="296.6942" y2="-255.8354" gradientTransform="matrix(1 0 0 -1 -237.5996 -239.9004)">
			<stop  offset="0" style="stop-color:#FF0000"/>
			<stop  offset="0.1758" style="stop-color:#F60303"/>
			<stop  offset="0.4969" style="stop-color:#EC0404"/>
			<stop  offset="0.782" style="stop-color:#E30101"/>
			<stop  offset="1" style="stop-color:#D60202"/>
		</linearGradient>
		<path fill="url(#SVGID_9_)" d="M88.857,101.923H29.33c-7.306,0-13.23-5.923-13.23-13.229V29.164
			c0-7.306,5.924-13.229,13.23-13.229h59.527c7.308,0,13.23,5.922,13.23,13.229v59.529C102.089,96,96.165,101.923,88.857,101.923
			L88.857,101.923z"/>
	</g>
	<path fill="#940202" d="M54.711,79.113c-1.657,0-3-1.342-3-3v-9.028c0-1.317,0.86-2.481,2.121-2.868
		c1.552-0.476,3.121-0.716,4.668-0.716c1.693,0,3.384,0.274,5.025,0.819c1.228,0.406,2.056,1.556,2.056,2.848v8.945
		c0,1.658-1.343,3-3,3H54.711"/>
	<path fill="#FFFFFF" d="M54.711,67.085c1.208-0.37,2.475-0.585,3.79-0.585c1.418,0,2.787,0.238,4.081,0.668v8.945h-7.87
		L54.711,67.085L54.711,67.085z"/>
	<path fill="#940202" d="M61.859,64.889c-1.131-0.279-2.262-0.423-3.359-0.423c-1.049,0-2.1,0.119-3.123,0.353
		c-0.221,0.051-0.445,0.074-0.668,0.074c-0.672,0-1.334-0.228-1.869-0.654c-0.714-0.568-1.129-1.432-1.129-2.346
		c0,0,0-7.766,0-11.544c-1.14,0-2.213,0-2.308,0c-0.104,0.011-0.218,0.018-0.336,0.018c-2.107,0-3.823-1.715-3.823-3.823
		c0-0.988,0.384-1.923,1.066-2.631c0.292-0.392,9.452-12.677,9.452-12.677s-0.04,0.061-0.07,0.107
		c0.716-1.063,1.893-1.696,3.16-1.696c1.238,0,2.382,0.601,3.098,1.597c0.018,0.022,0.034,0.045,0.051,0.067
		c0,0,8.958,12.154,9.276,12.586c0.693,0.709,1.08,1.648,1.08,2.647c0,2.108-1.715,3.823-3.822,3.823c0,0-0.1-0.013-0.131-0.018
		c-0.01,0-0.021,0-0.029,0c0,0-1.398,0-2.794,0c0,3.791,0,11.628,0,11.628c0,0.922-0.425,1.793-1.149,2.361
		c-0.533,0.417-1.186,0.639-1.849,0.639C62.343,64.977,62.1,64.945,61.859,64.889"/>
	<path fill="#FFFFFF" d="M68.535,47.365c-0.055,0-0.102-0.021-0.152-0.03l-0.008,0.013h-5.794v14.628
		c-1.313-0.326-2.679-0.51-4.081-0.51c-1.297,0-2.566,0.146-3.79,0.426V47.348h-5.42l-0.018-0.024
		c-0.067,0.018-0.131,0.042-0.205,0.042c-0.455,0-0.823-0.368-0.823-0.823c0-0.263,0.131-0.485,0.322-0.636l9.603-12.879h0.006
		c0.146-0.224,0.389-0.383,0.677-0.383c0.315,0,0.58,0.183,0.718,0.444h0.016L69.027,45.9c0.195,0.15,0.33,0.376,0.33,0.644
		C69.357,46.997,68.99,47.365,68.535,47.365L68.535,47.365z"/>
	<path fill="#940202" d="M72.559,90.785c1.205-2.5,1.893-5.355,1.893-8.391c0-9.81-7.143-17.763-15.95-17.763
		c-8.809,0-15.95,7.953-15.95,17.763c0,3.035,0.687,5.891,1.892,8.391H23.578V54.503h69.843v36.282H72.559L72.559,90.785z"/>
	<path fill="#FFFFFF" d="M76.799,87.786c0.43-1.754,0.65-3.57,0.65-5.392c0-5.484-1.932-10.658-5.438-14.563
		c-3.59-3.997-8.388-6.198-13.511-6.198s-9.921,2.201-13.511,6.198c-3.507,3.905-5.438,9.079-5.438,14.563
		c0,1.82,0.221,3.638,0.65,5.392c-4.412,0-10.271,0-13.624,0c0-4.595,0-25.69,0-30.283c5.249,0,58.597,0,63.845,0
		c0,4.593,0,25.688,0,30.283C87.068,87.786,81.211,87.786,76.799,87.786"/>
	
		<linearGradient id="SVGID_10_" gradientUnits="userSpaceOnUse" x1="297.291" y1="-282.6055" x2="297.291" y2="-257.9302" gradientTransform="matrix(1 0 0 -1 -237.5996 -239.9004)">
		<stop  offset="0" style="stop-color:#FFFFFF;stop-opacity:0"/>
		<stop  offset="1" style="stop-color:#FFFFFF;stop-opacity:0.8"/>
	</linearGradient>
	<path fill="url(#SVGID_10_)" d="M36.279,34.888c-10.953-3.797-15.283-8.096-16.986-10.74c1.672-3.347,4.899-5.653,8.636-6.118
		c0.237,0,61.958,0,61.958,0l0.297,0.01c0,0,0.086,0.005,0.168,0.008c5.557,0.737,9.737,5.503,9.737,11.116c0,0,0,10.497,0,13.541
		C72.244,42.546,50.784,39.917,36.279,34.888"/>
</g>
</svg>
