<?xml version="1.0" encoding="utf-8"?>
<!-- Generator: Adobe Illustrator 16.0.2, SVG Export Plug-In . SVG Version: 6.00 Build 0)  -->
<!DOCTYPE svg PUBLIC "-//W3C//DTD SVG 1.1//EN" "http://www.w3.org/Graphics/SVG/1.1/DTD/svg11.dtd">
<svg version="1.1" id="Layer_1" xmlns="http://www.w3.org/2000/svg" xmlns:xlink="http://www.w3.org/1999/xlink" x="0px" y="0px"
	 width="120px" height="120px" viewBox="0 0 120 120" enable-background="new 0 0 120 120" xml:space="preserve">
<g id="black_white">
	<path fill="#3A3A3A" d="M86.1,52.411L61.508,19.165c-0.75-1.013-2.266-1.013-3.015,0L33.901,52.411
		c-0.916,1.238-0.032,2.991,1.508,2.991H49.55v46.194h20.9V55.402h14.141C86.131,55.401,87.014,53.648,86.1,52.411z"/>
</g>
<g id="blue">
	<path fill-opacity="0.1" d="M50.976,105.814c-1.658,0-3-1.344-3-3c0,0,0-39.674,0-44.946c-3.65,0-10.605,0-10.754,0
		c-0.221,0.028-0.443,0.043-0.665,0.043c-2.814,0-5.103-2.289-5.103-5.102c0-1.464,0.629-2.851,1.71-3.813
		C33.595,48.419,47.85,29.3,47.85,29.3s9.079-12.173,9.313-12.487c0.916-1.555,2.573-2.511,4.396-2.511
		c1.795,0,3.437,0.93,4.359,2.449c0.139,0.186,23.289,31.601,23.747,32.222c1.097,0.962,1.735,2.357,1.735,3.836
		c0,2.813-2.289,5.102-5.104,5.102c-0.22,0-0.441-0.015-0.665-0.043c-0.37,0-7.817,0-11.552,0c0,5.272,0,44.946,0,44.946
		c0,1.656-1.342,3-3,3H50.976"/>
	<path fill="#00598C" d="M48.976,103.814c-1.658,0-3-1.344-3-3c0,0,0-39.674,0-44.946c-3.65,0-10.605,0-10.754,0
		c-0.221,0.029-0.443,0.043-0.665,0.043c-2.814,0-5.103-2.289-5.103-5.102c0-1.464,0.629-2.851,1.71-3.813
		C31.595,46.419,45.85,27.3,45.85,27.3s9.079-12.173,9.313-12.487c0.916-1.555,2.574-2.511,4.396-2.511
		c1.795,0,3.437,0.93,4.359,2.449c0.139,0.186,23.289,31.601,23.747,32.222c1.097,0.962,1.735,2.357,1.735,3.836
		c0,2.813-2.289,5.102-5.104,5.102c-0.22,0-0.441-0.014-0.665-0.043c-0.37,0-7.817,0-11.552,0c0,5.272,0,44.946,0,44.946
		c0,1.656-1.342,3-3,3H48.976"/>
	<g>
		
			<linearGradient id="SVGID_1_" gradientUnits="userSpaceOnUse" x1="297.0283" y1="-340.7144" x2="297.0283" y2="-255.2026" gradientTransform="matrix(1 0 0 -1 -237.5996 -239.9004)">
			<stop  offset="0" style="stop-color:#48A2FB"/>
			<stop  offset="0.1758" style="stop-color:#059CF4"/>
			<stop  offset="0.4969" style="stop-color:#0398EF"/>
			<stop  offset="0.782" style="stop-color:#0293E7"/>
			<stop  offset="1" style="stop-color:#0189D8"/>
		</linearGradient>
		<path fill="url(#SVGID_1_)" d="M83.889,52.868H35.126l-2.271-3.12l24.955-33.47l3.624,0.157L85.95,49.704L83.889,52.868
			L83.889,52.868z M48.976,100.814v-48.26h20.105v48.26H48.976L48.976,100.814z M34.558,52.912c-1.161,0-2.103-0.942-2.103-2.103
			c0-1.163,0.941-2.104,2.103-2.104c1.163,0,2.104,0.941,2.104,2.104C36.662,51.97,35.72,52.912,34.558,52.912L34.558,52.912z
			 M84.298,52.912c-1.163,0-2.104-0.942-2.104-2.103c0-1.163,0.941-2.104,2.104-2.104c1.161,0,2.103,0.941,2.103,2.104
			C86.4,51.97,85.459,52.912,84.298,52.912L84.298,52.912z M59.559,19.509c-1.163,0-2.104-0.941-2.104-2.104
			c0-1.161,0.941-2.103,2.104-2.103c1.162,0,2.104,0.941,2.104,2.103C61.662,18.567,60.721,19.509,59.559,19.509L59.559,19.509z"/>
	</g>
	
		<linearGradient id="SVGID_2_" gradientUnits="userSpaceOnUse" x1="301.5889" y1="-282.8315" x2="301.5889" y2="-258.6934" gradientTransform="matrix(1 0 0 -1 -237.5996 -239.9004)">
		<stop  offset="0" style="stop-color:#FFFFFF;stop-opacity:0"/>
		<stop  offset="1" style="stop-color:#FFFFFF;stop-opacity:0.8"/>
	</linearGradient>
	<path fill="url(#SVGID_2_)" d="M58.741,18.793c0,0-7.719,9.604-9.793,12.125c19.154-2.101,30.082,12.013,30.082,12.013
		L60.02,18.812L58.741,18.793L58.741,18.793z"/>
</g>
<g id="green">
	<path fill-opacity="0.1" d="M50.976,105.814c-1.658,0-3-1.344-3-3c0,0,0-39.674,0-44.946c-3.65,0-10.605,0-10.754,0
		c-0.221,0.028-0.443,0.043-0.665,0.043c-2.814,0-5.103-2.289-5.103-5.102c0-1.464,0.629-2.851,1.71-3.813
		C33.595,48.419,47.85,29.3,47.85,29.3s9.079-12.173,9.313-12.487c0.916-1.555,2.573-2.511,4.396-2.511
		c1.795,0,3.437,0.93,4.359,2.449c0.139,0.186,23.289,31.601,23.747,32.222c1.097,0.962,1.735,2.357,1.735,3.836
		c0,2.813-2.289,5.102-5.104,5.102c-0.22,0-0.441-0.015-0.665-0.043c-0.37,0-7.817,0-11.552,0c0,5.272,0,44.946,0,44.946
		c0,1.656-1.342,3-3,3H50.976"/>
	<path fill="#015911" d="M48.976,103.814c-1.658,0-3-1.344-3-3c0,0,0-39.674,0-44.946c-3.65,0-10.605,0-10.754,0
		c-0.221,0.029-0.443,0.043-0.665,0.043c-2.814,0-5.103-2.289-5.103-5.102c0-1.464,0.629-2.851,1.71-3.813
		C31.595,46.419,45.85,27.3,45.85,27.3s9.079-12.173,9.313-12.487c0.916-1.555,2.574-2.511,4.396-2.511
		c1.795,0,3.437,0.93,4.359,2.449c0.139,0.186,23.289,31.601,23.747,32.222c1.097,0.962,1.735,2.357,1.735,3.836
		c0,2.813-2.289,5.102-5.104,5.102c-0.22,0-0.441-0.014-0.665-0.043c-0.37,0-7.817,0-11.552,0c0,5.272,0,44.946,0,44.946
		c0,1.656-1.342,3-3,3H48.976"/>
	<g>
		
			<linearGradient id="SVGID_3_" gradientUnits="userSpaceOnUse" x1="297.0283" y1="-340.7144" x2="297.0283" y2="-255.2026" gradientTransform="matrix(1 0 0 -1 -237.5996 -239.9004)">
			<stop  offset="0" style="stop-color:#00DF34"/>
			<stop  offset="0.1758" style="stop-color:#00CD26"/>
			<stop  offset="0.4969" style="stop-color:#00B211"/>
			<stop  offset="0.782" style="stop-color:#00A204"/>
			<stop  offset="1" style="stop-color:#009C00"/>
		</linearGradient>
		<path fill="url(#SVGID_3_)" d="M83.889,52.868H35.126l-2.271-3.12l24.955-33.47l3.624,0.157L85.95,49.704L83.889,52.868
			L83.889,52.868z M48.976,100.814v-48.26h20.105v48.26H48.976L48.976,100.814z M34.558,52.912c-1.161,0-2.103-0.942-2.103-2.103
			c0-1.163,0.941-2.104,2.103-2.104c1.163,0,2.104,0.941,2.104,2.104C36.662,51.97,35.72,52.912,34.558,52.912L34.558,52.912z
			 M84.298,52.912c-1.163,0-2.104-0.942-2.104-2.103c0-1.163,0.941-2.104,2.104-2.104c1.161,0,2.103,0.941,2.103,2.104
			C86.4,51.97,85.459,52.912,84.298,52.912L84.298,52.912z M59.559,19.509c-1.163,0-2.104-0.941-2.104-2.104
			c0-1.161,0.941-2.103,2.104-2.103c1.162,0,2.104,0.941,2.104,2.103C61.662,18.567,60.721,19.509,59.559,19.509L59.559,19.509z"/>
	</g>
	
		<linearGradient id="SVGID_4_" gradientUnits="userSpaceOnUse" x1="301.5889" y1="-282.8315" x2="301.5889" y2="-258.6934" gradientTransform="matrix(1 0 0 -1 -237.5996 -239.9004)">
		<stop  offset="0" style="stop-color:#FFFFFF;stop-opacity:0"/>
		<stop  offset="1" style="stop-color:#FFFFFF;stop-opacity:0.8"/>
	</linearGradient>
	<path fill="url(#SVGID_4_)" d="M58.741,18.793c0,0-7.719,9.604-9.793,12.125c19.154-2.101,30.082,12.013,30.082,12.013
		L60.02,18.812L58.741,18.793L58.741,18.793z"/>
</g>
<g id="kia">
	<path fill-opacity="0.1" d="M50.976,105.814c-1.658,0-3-1.344-3-3c0,0,0-39.674,0-44.946c-3.65,0-10.605,0-10.754,0
		c-0.221,0.028-0.443,0.043-0.665,0.043c-2.814,0-5.103-2.289-5.103-5.102c0-1.464,0.629-2.851,1.71-3.813
		C33.595,48.419,47.85,29.3,47.85,29.3s9.079-12.173,9.313-12.487c0.916-1.555,2.573-2.511,4.396-2.511
		c1.795,0,3.437,0.93,4.359,2.449c0.139,0.186,23.289,31.601,23.747,32.222c1.097,0.962,1.735,2.357,1.735,3.836
		c0,2.813-2.289,5.102-5.104,5.102c-0.22,0-0.441-0.015-0.665-0.043c-0.37,0-7.817,0-11.552,0c0,5.272,0,44.946,0,44.946
		c0,1.656-1.342,3-3,3H50.976"/>
	<path fill="#eeb422" d="M48.976,103.814c-1.658,0-3-1.344-3-3c0,0,0-39.674,0-44.946c-3.65,0-10.605,0-10.754,0
		c-0.221,0.029-0.443,0.043-0.665,0.043c-2.814,0-5.103-2.289-5.103-5.102c0-1.464,0.629-2.851,1.71-3.813
		C31.595,46.419,45.85,27.3,45.85,27.3s9.079-12.173,9.313-12.487c0.916-1.555,2.574-2.511,4.396-2.511
		c1.795,0,3.437,0.93,4.359,2.449c0.139,0.186,23.289,31.601,23.747,32.222c1.097,0.962,1.735,2.357,1.735,3.836
		c0,2.813-2.289,5.102-5.104,5.102c-0.22,0-0.441-0.014-0.665-0.043c-0.37,0-7.817,0-11.552,0c0,5.272,0,44.946,0,44.946
		c0,1.656-1.342,3-3,3H48.976"/>
	<g>
		
			<linearGradient id="SVGID_5_" gradientUnits="userSpaceOnUse" x1="297.0283" y1="-340.7144" x2="297.0283" y2="-255.2026" gradientTransform="matrix(1 0 0 -1 -237.5996 -239.9004)">
			<stop  offset="0" style="stop-color:#FFFFFF"/>
			<stop  offset="0.1758" style="stop-color:#E7E9EA"/>
			<stop  offset="0.4969" style="stop-color:#CDD2D5"/>
			<stop  offset="0.782" style="stop-color:#C5CACC"/>
			<stop  offset="1" style="stop-color:#BABDC0"/>
		</linearGradient>
		<path fill="url(#SVGID_5_)" d="M83.889,52.868H35.126l-2.271-3.12l24.955-33.47l3.624,0.157L85.95,49.704L83.889,52.868
			L83.889,52.868z M48.976,100.814v-48.26h20.105v48.26H48.976L48.976,100.814z M34.558,52.912c-1.161,0-2.103-0.942-2.103-2.103
			c0-1.163,0.941-2.104,2.103-2.104c1.163,0,2.104,0.941,2.104,2.104C36.662,51.97,35.72,52.912,34.558,52.912L34.558,52.912z
			 M84.298,52.912c-1.163,0-2.104-0.942-2.104-2.103c0-1.163,0.941-2.104,2.104-2.104c1.161,0,2.103,0.941,2.103,2.104
			C86.4,51.97,85.459,52.912,84.298,52.912L84.298,52.912z M59.559,19.509c-1.163,0-2.104-0.941-2.104-2.104
			c0-1.161,0.941-2.103,2.104-2.103c1.162,0,2.104,0.941,2.104,2.103C61.662,18.567,60.721,19.509,59.559,19.509L59.559,19.509z"/>
	</g>
	
		<linearGradient id="SVGID_6_" gradientUnits="userSpaceOnUse" x1="301.5889" y1="-282.8315" x2="301.5889" y2="-258.6934" gradientTransform="matrix(1 0 0 -1 -237.5996 -239.9004)">
		<stop  offset="0" style="stop-color:#FFFFFF;stop-opacity:0"/>
		<stop  offset="1" style="stop-color:#FFFFFF;stop-opacity:0.8"/>
	</linearGradient>
	<path fill="url(#SVGID_6_)" d="M58.741,18.793c0,0-7.719,9.604-9.793,12.125c19.154-2.101,30.082,12.013,30.082,12.013
		L60.02,18.812L58.741,18.793L58.741,18.793z"/>
</g>
<g id="orange">
	<path fill-opacity="0.1" d="M50.976,105.814c-1.658,0-3-1.344-3-3c0,0,0-39.674,0-44.946c-3.65,0-10.605,0-10.754,0
		c-0.221,0.028-0.443,0.043-0.665,0.043c-2.814,0-5.103-2.289-5.103-5.102c0-1.464,0.629-2.851,1.71-3.813
		C33.595,48.419,47.85,29.3,47.85,29.3s9.079-12.173,9.313-12.487c0.916-1.555,2.573-2.511,4.396-2.511
		c1.795,0,3.437,0.93,4.359,2.449c0.139,0.186,23.289,31.601,23.747,32.222c1.097,0.962,1.735,2.357,1.735,3.836
		c0,2.813-2.289,5.102-5.104,5.102c-0.22,0-0.441-0.015-0.665-0.043c-0.37,0-7.817,0-11.552,0c0,5.272,0,44.946,0,44.946
		c0,1.656-1.342,3-3,3H50.976"/>
	<path fill="#eeb422" d="M48.976,103.814c-1.658,0-3-1.344-3-3c0,0,0-39.674,0-44.946c-3.65,0-10.605,0-10.754,0
		c-0.221,0.029-0.443,0.043-0.665,0.043c-2.814,0-5.103-2.289-5.103-5.102c0-1.464,0.629-2.851,1.71-3.813
		C31.595,46.419,45.85,27.3,45.85,27.3s9.079-12.173,9.313-12.487c0.916-1.555,2.574-2.511,4.396-2.511
		c1.795,0,3.437,0.93,4.359,2.449c0.139,0.186,23.289,31.601,23.747,32.222c1.097,0.962,1.735,2.357,1.735,3.836
		c0,2.813-2.289,5.102-5.104,5.102c-0.22,0-0.441-0.014-0.665-0.043c-0.37,0-7.817,0-11.552,0c0,5.272,0,44.946,0,44.946
		c0,1.656-1.342,3-3,3H48.976"/>
	<g>
		
			<linearGradient id="SVGID_7_" gradientUnits="userSpaceOnUse" x1="297.0283" y1="-340.7144" x2="297.0283" y2="-255.2026" gradientTransform="matrix(1 0 0 -1 -237.5996 -239.9004)">
			<stop  offset="0" style="stop-color:#FEDF34"/>
			<stop  offset="0.1758" style="stop-color:#FECD26"/>
			<stop  offset="0.4969" style="stop-color:#FFB211"/>
			<stop  offset="0.782" style="stop-color:#FFA204"/>
			<stop  offset="1" style="stop-color:#FF9C00"/>
		</linearGradient>
		<path fill="url(#SVGID_7_)" d="M83.889,52.868H35.126l-2.271-3.12l24.955-33.47l3.624,0.157L85.95,49.704L83.889,52.868
			L83.889,52.868z M48.976,100.814v-48.26h20.105v48.26H48.976L48.976,100.814z M34.558,52.912c-1.161,0-2.103-0.942-2.103-2.103
			c0-1.163,0.941-2.104,2.103-2.104c1.163,0,2.104,0.941,2.104,2.104C36.662,51.97,35.72,52.912,34.558,52.912L34.558,52.912z
			 M84.298,52.912c-1.163,0-2.104-0.942-2.104-2.103c0-1.163,0.941-2.104,2.104-2.104c1.161,0,2.103,0.941,2.103,2.104
			C86.4,51.97,85.459,52.912,84.298,52.912L84.298,52.912z M59.559,19.509c-1.163,0-2.104-0.941-2.104-2.104
			c0-1.161,0.941-2.103,2.104-2.103c1.162,0,2.104,0.941,2.104,2.103C61.662,18.567,60.721,19.509,59.559,19.509L59.559,19.509z"/>
	</g>
	
		<linearGradient id="SVGID_8_" gradientUnits="userSpaceOnUse" x1="301.5889" y1="-282.8315" x2="301.5889" y2="-258.6934" gradientTransform="matrix(1 0 0 -1 -237.5996 -239.9004)">
		<stop  offset="0" style="stop-color:#FFFFFF;stop-opacity:0"/>
		<stop  offset="1" style="stop-color:#FFFFFF;stop-opacity:0.8"/>
	</linearGradient>
	<path fill="url(#SVGID_8_)" d="M58.741,18.793c0,0-7.719,9.604-9.793,12.125c19.154-2.101,30.082,12.013,30.082,12.013
		L60.02,18.812L58.741,18.793L58.741,18.793z"/>
</g>
<g id="red">
	<path fill-opacity="0.1" d="M50.976,105.814c-1.658,0-3-1.344-3-3c0,0,0-39.674,0-44.946c-3.65,0-10.605,0-10.754,0
		c-0.221,0.028-0.443,0.043-0.665,0.043c-2.814,0-5.103-2.289-5.103-5.102c0-1.464,0.629-2.851,1.71-3.813
		C33.595,48.419,47.85,29.3,47.85,29.3s9.079-12.173,9.313-12.487c0.916-1.555,2.573-2.511,4.396-2.511
		c1.795,0,3.437,0.93,4.359,2.449c0.139,0.186,23.289,31.601,23.747,32.222c1.097,0.962,1.735,2.357,1.735,3.836
		c0,2.813-2.289,5.102-5.104,5.102c-0.22,0-0.441-0.015-0.665-0.043c-0.37,0-7.817,0-11.552,0c0,5.272,0,44.946,0,44.946
		c0,1.656-1.342,3-3,3H50.976"/>
	<path fill="#940202" d="M48.976,103.814c-1.658,0-3-1.344-3-3c0,0,0-39.674,0-44.946c-3.65,0-10.605,0-10.754,0
		c-0.221,0.029-0.443,0.043-0.665,0.043c-2.814,0-5.103-2.289-5.103-5.102c0-1.464,0.629-2.851,1.71-3.813
		C31.595,46.419,45.85,27.3,45.85,27.3s9.079-12.173,9.313-12.487c0.916-1.555,2.574-2.511,4.396-2.511
		c1.795,0,3.437,0.93,4.359,2.449c0.139,0.186,23.289,31.601,23.747,32.222c1.097,0.962,1.735,2.357,1.735,3.836
		c0,2.813-2.289,5.102-5.104,5.102c-0.22,0-0.441-0.014-0.665-0.043c-0.37,0-7.817,0-11.552,0c0,5.272,0,44.946,0,44.946
		c0,1.656-1.342,3-3,3H48.976"/>
	<g>
		
			<linearGradient id="SVGID_9_" gradientUnits="userSpaceOnUse" x1="297.0283" y1="-340.7144" x2="297.0283" y2="-255.2026" gradientTransform="matrix(1 0 0 -1 -237.5996 -239.9004)">
			<stop  offset="0" style="stop-color:#FF0000"/>
			<stop  offset="0.1758" style="stop-color:#F60303"/>
			<stop  offset="0.4969" style="stop-color:#EC0404"/>
			<stop  offset="0.782" style="stop-color:#E30101"/>
			<stop  offset="1" style="stop-color:#D60202"/>
		</linearGradient>
		<path fill="url(#SVGID_9_)" d="M83.889,52.868H35.126l-2.271-3.12l24.955-33.47l3.624,0.157L85.95,49.704L83.889,52.868
			L83.889,52.868z M48.976,100.814v-48.26h20.105v48.26H48.976L48.976,100.814z M34.558,52.912c-1.161,0-2.103-0.942-2.103-2.103
			c0-1.163,0.941-2.104,2.103-2.104c1.163,0,2.104,0.941,2.104,2.104C36.662,51.97,35.72,52.912,34.558,52.912L34.558,52.912z
			 M84.298,52.912c-1.163,0-2.104-0.942-2.104-2.103c0-1.163,0.941-2.104,2.104-2.104c1.161,0,2.103,0.941,2.103,2.104
			C86.4,51.97,85.459,52.912,84.298,52.912L84.298,52.912z M59.559,19.509c-1.163,0-2.104-0.941-2.104-2.104
			c0-1.161,0.941-2.103,2.104-2.103c1.162,0,2.104,0.941,2.104,2.103C61.662,18.567,60.721,19.509,59.559,19.509L59.559,19.509z"/>
	</g>
	
		<linearGradient id="SVGID_10_" gradientUnits="userSpaceOnUse" x1="301.5889" y1="-282.8315" x2="301.5889" y2="-258.6934" gradientTransform="matrix(1 0 0 -1 -237.5996 -239.9004)">
		<stop  offset="0" style="stop-color:#FFFFFF;stop-opacity:0"/>
		<stop  offset="1" style="stop-color:#FFFFFF;stop-opacity:0.8"/>
	</linearGradient>
	<path fill="url(#SVGID_10_)" d="M58.741,18.793c0,0-7.719,9.604-9.793,12.125c19.154-2.101,30.082,12.013,30.082,12.013
		L60.02,18.812L58.741,18.793L58.741,18.793z"/>
</g>
</svg>
