<?xml version="1.0" encoding="utf-8"?>
<!-- Generator: Adobe Illustrator 16.0.2, SVG Export Plug-In . SVG Version: 6.00 Build 0)  -->
<!DOCTYPE svg PUBLIC "-//W3C//DTD SVG 1.1//EN" "http://www.w3.org/Graphics/SVG/1.1/DTD/svg11.dtd">
<svg version="1.1" id="Layer_1" xmlns="http://www.w3.org/2000/svg" xmlns:xlink="http://www.w3.org/1999/xlink" x="0px" y="0px"
	 width="120px" height="120px" viewBox="0 0 120 120" enable-background="new 0 0 120 120" xml:space="preserve">
<g id="black_white">
	<path fill="#3A3A3A" d="M112.249,101.563c0,1.313-1.063,2.375-2.375,2.375H10.126c-1.312,0-2.375-1.063-2.375-2.375v-2.375
		c0-1.312,1.063-2.375,2.375-2.375H64.75V65.938c0-1.312,1.063-2.375,2.375-2.375h42.749c1.312,0,2.375,1.063,2.375,2.375v30.875
		c0,0.436-0.127,0.838-0.33,1.188c0.203,0.352,0.33,0.751,0.33,1.188V101.563L112.249,101.563z M107.697,52.076l-0.926,0.508v4.396
		c0,1.427-0.352,1.851-1.75,1.851h-3.142c-1.397,0-1.749-0.424-1.749-1.851v-4.396l-23.292-0.002v4.398
		c0,1.427-0.349,1.851-1.749,1.851h-3.139c-1.4,0-1.75-0.424-1.75-1.851v-4.396l-0.928-0.508c-1.176-0.583-2.155-2.269-2.155-7.005
		c0-4.857,0.407-5.498,0.782-6.219c0.375-0.721,1.4-1.541,1.4-1.541l4.23-10.956c0.878-2.076,3.461-3.169,4.588-3.169h20.734
		c1.127,0,3.711,1.094,4.588,3.169h0.002l4.229,10.956c0,0,1.024,0.82,1.397,1.541c0.377,0.721,0.785,1.361,0.785,6.219
		C109.854,49.806,108.873,51.493,107.697,52.076L107.697,52.076z M74.532,40.926c-2.185,0-3.956,1.757-3.954,3.925
		c0,2.167,1.77,3.925,3.954,3.925c2.184,0,3.956-1.758,3.956-3.925C78.488,42.683,76.717,40.926,74.532,40.926L74.532,40.926z
		 M102.416,40.926c-2.184,0-3.954,1.757-3.954,3.925c0,2.167,1.771,3.925,3.954,3.925c2.186,0,3.956-1.758,3.956-3.925
		C106.372,42.683,104.602,40.926,102.416,40.926L102.416,40.926z M21.999,35.063h7.125v-19h9.5v19h7.125L33.874,46.938
		L21.999,35.063L21.999,35.063z"/>
</g>
<g id="blue">
	<path fill-opacity="0.1" d="M31.33,106.922c-8.949,0-16.229-7.279-16.229-16.229V31.164c0-8.948,7.28-16.228,16.229-16.228h59.527
		c8.949,0,16.229,7.28,16.229,16.228v59.529c0,8.947-7.28,16.229-16.229,16.229H31.33"/>
	<path fill="#00598C" d="M29.33,104.922c-8.949,0-16.229-7.279-16.229-16.229V29.164c0-8.948,7.28-16.228,16.229-16.228h59.527
		c8.949,0,16.229,7.28,16.229,16.228v59.529c0,8.947-7.28,16.229-16.229,16.229H29.33"/>
	<g>
		
			<linearGradient id="SVGID_1_" gradientUnits="userSpaceOnUse" x1="296.6943" y1="-341.8228" x2="296.6942" y2="-255.8354" gradientTransform="matrix(1 0 0 -1 -237.5996 -239.9004)">
			<stop  offset="0" style="stop-color:#48A2FB"/>
			<stop  offset="0.1758" style="stop-color:#059CF4"/>
			<stop  offset="0.4969" style="stop-color:#0398EF"/>
			<stop  offset="0.782" style="stop-color:#0293E7"/>
			<stop  offset="1" style="stop-color:#0189D8"/>
		</linearGradient>
		<path fill="url(#SVGID_1_)" d="M88.857,101.923H29.33c-7.306,0-13.23-5.923-13.23-13.229V29.164
			c0-7.306,5.924-13.229,13.23-13.229h59.527c7.308,0,13.23,5.922,13.23,13.229v59.529C102.089,96,96.165,101.923,88.857,101.923
			L88.857,101.923z"/>
	</g>
	<path fill="#00598C" d="M26.001,90.501V84.5h65.998v6.001H26.001L26.001,90.501z M59,90.501V72.499h32.999v18.002H59L59,90.501z
		 M41.938,63.003L31.312,48.475h5.687V33.44h10.003v15.035h5.562L41.938,63.003L41.938,63.003z"/>
	<path fill="#FFFFFF" d="M28.001,88.5c0-0.889,0-1.111,0-2c3.53,0,30.999,0,30.999,0c1.105,0,2-0.896,2-2c0,0,0-7.223,0-10
		c3.303,0,25.695,0,28.999,0c0,2.777,0,10,0,10s0,2.223,0,4C86.355,88.5,31.645,88.5,28.001,88.5 M35.253,50.476
		c0.743,0,1.746,0,1.746,0c1.105,0,2-0.896,2-2c0,0,0-10.027,0-13.035c1.92,0,4.083,0,6.002,0c0,3.008,0,13.035,0,13.035
		c0,1.105,0.896,2,2,2c0,0,0.951,0,1.621,0c-2.287,3.126-4.961,6.784-6.685,9.14C40.214,57.259,37.54,53.602,35.253,50.476"/>
	<path fill="#00598C" d="M79.066,74.6c-1.104,0-2-0.896-2-2c0,0,0-0.425,0-0.685c-1.418,0-2.264,0-3.68,0c0,0.26,0,0.685,0,0.685
		c0,1.104-0.896,2-2.002,2h-3.438c-1.104,0-2-0.896-2-2c0,0,0-0.736,0-1.463c-0.217-0.217-0.575-0.572-0.575-0.572
		c-0.376-0.375-0.588-0.885-0.588-1.416v-1.149V67.23v-1.918c0-1.623,0.61-2.553,1.312-3.047c0.479-0.89,2.379-4.418,2.379-4.418
		c0.35-0.648,1.026-1.052,1.762-1.052h9.969c0.734,0,1.412,0.404,1.762,1.052c0,0,2.127,3.95,2.479,4.6
		c0.646,0.584,1.211,1.548,1.211,2.865v1.918v0.768v1.148c0,0.519-0.2,1.017-0.561,1.39c0,0-0.398,0.413-0.589,0.61
		c0,0.722,0,1.451,0,1.451c0,1.105-0.896,2-2,2h-3.44"/>
	<path fill="#FFFFFF" d="M82.915,69.915h-0.409V72.6h-3.438v-2.685h-7.682V72.6h-3.439v-2.685h-0.393l-0.77-0.769v-1.148V67.23
		v-1.918c0-1.533,0.768-1.533,0.768-1.533l2.684-4.984h9.969l2.686,4.984c0,0,0.767,0.385,0.767,1.533v1.918v0.768v1.148
		L82.915,69.915L82.915,69.915z M72.536,67.348h5.368c0.394,0,0.383-0.271,0.383-0.664c0-0.395,0.011-0.603-0.383-0.603h-5.368
		c-0.396,0-0.384,0.208-0.384,0.603C72.152,67.077,72.143,67.348,72.536,67.348L72.536,67.348z M69.277,66.084
		c-0.324,0-0.588,0.256-0.588,0.572s0.264,0.572,0.588,0.572c0.322,0,0.584-0.256,0.584-0.572S69.602,66.084,69.277,66.084
		L69.277,66.084z M79.055,61.096h-7.668l-0.768,2.684h9.201L79.055,61.096L79.055,61.096z M81.163,66.084
		c-0.323,0-0.586,0.256-0.586,0.572s0.263,0.572,0.586,0.572c0.321,0,0.585-0.256,0.585-0.572S81.484,66.084,81.163,66.084
		L81.163,66.084z"/>
	
		<linearGradient id="SVGID_2_" gradientUnits="userSpaceOnUse" x1="297.291" y1="-282.6055" x2="297.291" y2="-257.9302" gradientTransform="matrix(1 0 0 -1 -237.5996 -239.9004)">
		<stop  offset="0" style="stop-color:#FFFFFF;stop-opacity:0"/>
		<stop  offset="1" style="stop-color:#FFFFFF;stop-opacity:0.8"/>
	</linearGradient>
	<path fill="url(#SVGID_2_)" d="M36.279,34.888c-10.953-3.797-15.283-8.096-16.986-10.74c1.672-3.347,4.899-5.653,8.636-6.118
		c0.237,0,61.958,0,61.958,0l0.297,0.01c0,0,0.086,0.005,0.168,0.008c5.557,0.737,9.737,5.503,9.737,11.116c0,0,0,10.497,0,13.541
		C72.244,42.546,50.784,39.917,36.279,34.888"/>
</g>
<g id="green">
	<path fill-opacity="0.1" d="M31.33,106.922c-8.949,0-16.229-7.279-16.229-16.229V31.164c0-8.948,7.28-16.228,16.229-16.228h59.527
		c8.949,0,16.229,7.28,16.229,16.228v59.529c0,8.947-7.28,16.229-16.229,16.229H31.33"/>
	<path fill="#015911" d="M29.33,104.922c-8.949,0-16.229-7.279-16.229-16.229V29.164c0-8.948,7.28-16.228,16.229-16.228h59.527
		c8.949,0,16.229,7.28,16.229,16.228v59.529c0,8.947-7.28,16.229-16.229,16.229H29.33"/>
	<g>
		
			<linearGradient id="SVGID_3_" gradientUnits="userSpaceOnUse" x1="296.6943" y1="-341.8228" x2="296.6942" y2="-255.8354" gradientTransform="matrix(1 0 0 -1 -237.5996 -239.9004)">
			<stop  offset="0" style="stop-color:#00DF34"/>
			<stop  offset="0.1758" style="stop-color:#00CD26"/>
			<stop  offset="0.4969" style="stop-color:#00B211"/>
			<stop  offset="0.782" style="stop-color:#00A204"/>
			<stop  offset="1" style="stop-color:#009C00"/>
		</linearGradient>
		<path fill="url(#SVGID_3_)" d="M88.857,101.923H29.33c-7.306,0-13.23-5.923-13.23-13.229V29.164
			c0-7.306,5.924-13.229,13.23-13.229h59.527c7.308,0,13.23,5.922,13.23,13.229v59.529C102.089,96,96.165,101.923,88.857,101.923
			L88.857,101.923z"/>
	</g>
	<path fill="#015911" d="M26.001,90.501V84.5h65.998v6.001H26.001L26.001,90.501z M59,90.501V72.499h32.999v18.002H59L59,90.501z
		 M41.938,63.003L31.312,48.475h5.687V33.44h10.003v15.035h5.562L41.938,63.003L41.938,63.003z"/>
	<path fill="#FFFFFF" d="M28.001,88.5c0-0.889,0-1.111,0-2c3.53,0,30.999,0,30.999,0c1.105,0,2-0.896,2-2c0,0,0-7.223,0-10
		c3.303,0,25.695,0,28.999,0c0,2.777,0,10,0,10s0,2.223,0,4C86.355,88.5,31.645,88.5,28.001,88.5 M35.253,50.476
		c0.743,0,1.746,0,1.746,0c1.105,0,2-0.896,2-2c0,0,0-10.027,0-13.035c1.92,0,4.083,0,6.002,0c0,3.008,0,13.035,0,13.035
		c0,1.105,0.896,2,2,2c0,0,0.951,0,1.621,0c-2.287,3.126-4.961,6.784-6.685,9.14C40.214,57.259,37.54,53.602,35.253,50.476"/>
	<path fill="#015911" d="M79.066,74.6c-1.104,0-2-0.896-2-2c0,0,0-0.425,0-0.685c-1.418,0-2.264,0-3.68,0c0,0.26,0,0.685,0,0.685
		c0,1.104-0.896,2-2.002,2h-3.438c-1.104,0-2-0.896-2-2c0,0,0-0.736,0-1.463c-0.217-0.217-0.575-0.572-0.575-0.572
		c-0.376-0.375-0.588-0.885-0.588-1.416v-1.149V67.23v-1.918c0-1.623,0.61-2.553,1.312-3.047c0.479-0.89,2.379-4.418,2.379-4.418
		c0.35-0.648,1.026-1.052,1.762-1.052h9.969c0.734,0,1.412,0.404,1.762,1.052c0,0,2.127,3.95,2.479,4.6
		c0.646,0.584,1.211,1.548,1.211,2.865v1.918v0.768v1.148c0,0.519-0.2,1.017-0.561,1.39c0,0-0.398,0.413-0.589,0.61
		c0,0.722,0,1.451,0,1.451c0,1.105-0.896,2-2,2h-3.44"/>
	<path fill="#FFFFFF" d="M82.915,69.915h-0.409V72.6h-3.438v-2.685h-7.682V72.6h-3.439v-2.685h-0.393l-0.77-0.769v-1.148V67.23
		v-1.918c0-1.533,0.768-1.533,0.768-1.533l2.684-4.984h9.969l2.686,4.984c0,0,0.767,0.385,0.767,1.533v1.918v0.768v1.148
		L82.915,69.915L82.915,69.915z M72.536,67.348h5.368c0.394,0,0.383-0.271,0.383-0.664c0-0.395,0.011-0.603-0.383-0.603h-5.368
		c-0.396,0-0.384,0.208-0.384,0.603C72.152,67.077,72.143,67.348,72.536,67.348L72.536,67.348z M69.277,66.084
		c-0.324,0-0.588,0.256-0.588,0.572s0.264,0.572,0.588,0.572c0.322,0,0.584-0.256,0.584-0.572S69.602,66.084,69.277,66.084
		L69.277,66.084z M79.055,61.096h-7.668l-0.768,2.684h9.201L79.055,61.096L79.055,61.096z M81.163,66.084
		c-0.323,0-0.586,0.256-0.586,0.572s0.263,0.572,0.586,0.572c0.321,0,0.585-0.256,0.585-0.572S81.484,66.084,81.163,66.084
		L81.163,66.084z"/>
	
		<linearGradient id="SVGID_4_" gradientUnits="userSpaceOnUse" x1="297.291" y1="-282.6055" x2="297.291" y2="-257.9302" gradientTransform="matrix(1 0 0 -1 -237.5996 -239.9004)">
		<stop  offset="0" style="stop-color:#FFFFFF;stop-opacity:0"/>
		<stop  offset="1" style="stop-color:#FFFFFF;stop-opacity:0.8"/>
	</linearGradient>
	<path fill="url(#SVGID_4_)" d="M36.279,34.888c-10.953-3.797-15.283-8.096-16.986-10.74c1.672-3.347,4.899-5.653,8.636-6.118
		c0.237,0,61.958,0,61.958,0l0.297,0.01c0,0,0.086,0.005,0.168,0.008c5.557,0.737,9.737,5.503,9.737,11.116c0,0,0,10.497,0,13.541
		C72.244,42.546,50.784,39.917,36.279,34.888"/>
</g>
<g id="kia">
	<path fill-opacity="0.1" d="M31.33,106.922c-8.949,0-16.229-7.279-16.229-16.229V31.164c0-8.948,7.28-16.228,16.229-16.228h59.527
		c8.949,0,16.229,7.28,16.229,16.228v59.529c0,8.947-7.28,16.229-16.229,16.229H31.33"/>
	<path fill="#eeb422" d="M29.33,104.922c-8.949,0-16.229-7.279-16.229-16.229V29.164c0-8.948,7.28-16.228,16.229-16.228h59.527
		c8.949,0,16.229,7.28,16.229,16.228v59.529c0,8.947-7.28,16.229-16.229,16.229H29.33"/>
	<g>
		
			<linearGradient id="SVGID_5_" gradientUnits="userSpaceOnUse" x1="296.6943" y1="-341.8228" x2="296.6942" y2="-255.8354" gradientTransform="matrix(1 0 0 -1 -237.5996 -239.9004)">
			<stop  offset="0" style="stop-color:#FFFFFF"/>
			<stop  offset="0.1758" style="stop-color:#E7E9EA"/>
			<stop  offset="0.4969" style="stop-color:#CDD2D5"/>
			<stop  offset="0.782" style="stop-color:#C5CACC"/>
			<stop  offset="1" style="stop-color:#BABDC0"/>
		</linearGradient>
		<path fill="url(#SVGID_5_)" d="M88.857,101.923H29.33c-7.306,0-13.23-5.923-13.23-13.229V29.164
			c0-7.306,5.924-13.229,13.23-13.229h59.527c7.308,0,13.23,5.922,13.23,13.229v59.529C102.089,96,96.165,101.923,88.857,101.923
			L88.857,101.923z"/>
	</g>
	<path fill="#eeb422" d="M26.001,90.501V84.5h65.998v6.001H26.001L26.001,90.501z M59,90.501V72.499h32.999v18.002H59L59,90.501z
		 M41.938,63.003L31.312,48.475h5.687V33.44h10.003v15.035h5.562L41.938,63.003L41.938,63.003z"/>
	<path fill="#FFFFFF" d="M28.001,88.5c0-0.889,0-1.111,0-2c3.53,0,30.999,0,30.999,0c1.105,0,2-0.896,2-2c0,0,0-7.223,0-10
		c3.303,0,25.695,0,28.999,0c0,2.777,0,10,0,10s0,2.223,0,4C86.355,88.5,31.645,88.5,28.001,88.5 M35.253,50.476
		c0.743,0,1.746,0,1.746,0c1.105,0,2-0.896,2-2c0,0,0-10.027,0-13.035c1.92,0,4.083,0,6.002,0c0,3.008,0,13.035,0,13.035
		c0,1.105,0.896,2,2,2c0,0,0.951,0,1.621,0c-2.287,3.126-4.961,6.784-6.685,9.14C40.214,57.259,37.54,53.602,35.253,50.476"/>
	<path fill="#eeb422" d="M79.066,74.6c-1.104,0-2-0.896-2-2c0,0,0-0.425,0-0.685c-1.418,0-2.264,0-3.68,0c0,0.26,0,0.685,0,0.685
		c0,1.104-0.896,2-2.002,2h-3.438c-1.104,0-2-0.896-2-2c0,0,0-0.736,0-1.463c-0.217-0.217-0.575-0.572-0.575-0.572
		c-0.376-0.375-0.588-0.885-0.588-1.416v-1.149V67.23v-1.918c0-1.623,0.61-2.553,1.312-3.047c0.479-0.89,2.379-4.418,2.379-4.418
		c0.35-0.648,1.026-1.052,1.762-1.052h9.969c0.734,0,1.412,0.404,1.762,1.052c0,0,2.127,3.95,2.479,4.6
		c0.646,0.584,1.211,1.548,1.211,2.865v1.918v0.768v1.148c0,0.519-0.2,1.017-0.561,1.39c0,0-0.398,0.413-0.589,0.61
		c0,0.722,0,1.451,0,1.451c0,1.105-0.896,2-2,2h-3.44"/>
	<path fill="#FFFFFF" d="M82.915,69.915h-0.409V72.6h-3.438v-2.685h-7.682V72.6h-3.439v-2.685h-0.393l-0.77-0.769v-1.148V67.23
		v-1.918c0-1.533,0.768-1.533,0.768-1.533l2.684-4.984h9.969l2.686,4.984c0,0,0.767,0.385,0.767,1.533v1.918v0.768v1.148
		L82.915,69.915L82.915,69.915z M72.536,67.348h5.368c0.394,0,0.383-0.271,0.383-0.664c0-0.395,0.011-0.603-0.383-0.603h-5.368
		c-0.396,0-0.384,0.208-0.384,0.603C72.152,67.077,72.143,67.348,72.536,67.348L72.536,67.348z M69.277,66.084
		c-0.324,0-0.588,0.256-0.588,0.572s0.264,0.572,0.588,0.572c0.322,0,0.584-0.256,0.584-0.572S69.602,66.084,69.277,66.084
		L69.277,66.084z M79.055,61.096h-7.668l-0.768,2.684h9.201L79.055,61.096L79.055,61.096z M81.163,66.084
		c-0.323,0-0.586,0.256-0.586,0.572s0.263,0.572,0.586,0.572c0.321,0,0.585-0.256,0.585-0.572S81.484,66.084,81.163,66.084
		L81.163,66.084z"/>
	
		<linearGradient id="SVGID_6_" gradientUnits="userSpaceOnUse" x1="297.291" y1="-282.6055" x2="297.291" y2="-257.9302" gradientTransform="matrix(1 0 0 -1 -237.5996 -239.9004)">
		<stop  offset="0" style="stop-color:#FFFFFF;stop-opacity:0"/>
		<stop  offset="1" style="stop-color:#FFFFFF;stop-opacity:0.8"/>
	</linearGradient>
	<path fill="url(#SVGID_6_)" d="M36.279,34.888c-10.953-3.797-15.283-8.096-16.986-10.74c1.672-3.347,4.899-5.653,8.636-6.118
		c0.237,0,61.958,0,61.958,0l0.297,0.01c0,0,0.086,0.005,0.168,0.008c5.557,0.737,9.737,5.503,9.737,11.116c0,0,0,10.497,0,13.541
		C72.244,42.546,50.784,39.917,36.279,34.888"/>
</g>
<g id="orange">
	<path fill-opacity="0.1" d="M31.33,106.922c-8.949,0-16.229-7.279-16.229-16.229V31.164c0-8.948,7.28-16.228,16.229-16.228h59.527
		c8.949,0,16.229,7.28,16.229,16.228v59.529c0,8.947-7.28,16.229-16.229,16.229H31.33"/>
	<path fill="#eeb422" d="M29.33,104.922c-8.949,0-16.229-7.279-16.229-16.229V29.164c0-8.948,7.28-16.228,16.229-16.228h59.527
		c8.949,0,16.229,7.28,16.229,16.228v59.529c0,8.947-7.28,16.229-16.229,16.229H29.33"/>
	<g>
		
			<linearGradient id="SVGID_7_" gradientUnits="userSpaceOnUse" x1="296.6943" y1="-341.8228" x2="296.6942" y2="-255.8354" gradientTransform="matrix(1 0 0 -1 -237.5996 -239.9004)">
			<stop  offset="0" style="stop-color:#FEDF34"/>
			<stop  offset="0.1758" style="stop-color:#FECD26"/>
			<stop  offset="0.4969" style="stop-color:#FFB211"/>
			<stop  offset="0.782" style="stop-color:#FFA204"/>
			<stop  offset="1" style="stop-color:#FF9C00"/>
		</linearGradient>
		<path fill="url(#SVGID_7_)" d="M88.857,101.923H29.33c-7.306,0-13.23-5.923-13.23-13.229V29.164
			c0-7.306,5.924-13.229,13.23-13.229h59.527c7.308,0,13.23,5.922,13.23,13.229v59.529C102.089,96,96.165,101.923,88.857,101.923
			L88.857,101.923z"/>
	</g>
	<path fill="#eeb422" d="M26.001,90.501V84.5h65.998v6.001H26.001L26.001,90.501z M59,90.501V72.499h32.999v18.002H59L59,90.501z
		 M41.938,63.003L31.312,48.475h5.687V33.44h10.003v15.035h5.562L41.938,63.003L41.938,63.003z"/>
	<path fill="#FFFFFF" d="M28.001,88.5c0-0.889,0-1.111,0-2c3.53,0,30.999,0,30.999,0c1.105,0,2-0.896,2-2c0,0,0-7.223,0-10
		c3.303,0,25.695,0,28.999,0c0,2.777,0,10,0,10s0,2.223,0,4C86.355,88.5,31.645,88.5,28.001,88.5 M35.253,50.476
		c0.743,0,1.746,0,1.746,0c1.105,0,2-0.896,2-2c0,0,0-10.027,0-13.035c1.92,0,4.083,0,6.002,0c0,3.008,0,13.035,0,13.035
		c0,1.105,0.896,2,2,2c0,0,0.951,0,1.621,0c-2.287,3.126-4.961,6.784-6.685,9.14C40.214,57.259,37.54,53.602,35.253,50.476"/>
	<path fill="#eeb422" d="M79.066,74.6c-1.104,0-2-0.896-2-2c0,0,0-0.425,0-0.685c-1.418,0-2.264,0-3.68,0c0,0.26,0,0.685,0,0.685
		c0,1.104-0.896,2-2.002,2h-3.438c-1.104,0-2-0.896-2-2c0,0,0-0.736,0-1.463c-0.217-0.217-0.575-0.572-0.575-0.572
		c-0.376-0.375-0.588-0.885-0.588-1.416v-1.149V67.23v-1.918c0-1.623,0.61-2.553,1.312-3.047c0.479-0.89,2.379-4.418,2.379-4.418
		c0.35-0.648,1.026-1.052,1.762-1.052h9.969c0.734,0,1.412,0.404,1.762,1.052c0,0,2.127,3.95,2.479,4.6
		c0.646,0.584,1.211,1.548,1.211,2.865v1.918v0.768v1.148c0,0.519-0.2,1.017-0.561,1.39c0,0-0.398,0.413-0.589,0.61
		c0,0.722,0,1.451,0,1.451c0,1.105-0.896,2-2,2h-3.44"/>
	<path fill="#FFFFFF" d="M82.915,69.915h-0.409V72.6h-3.438v-2.685h-7.682V72.6h-3.439v-2.685h-0.393l-0.77-0.769v-1.148V67.23
		v-1.918c0-1.533,0.768-1.533,0.768-1.533l2.684-4.984h9.969l2.686,4.984c0,0,0.767,0.385,0.767,1.533v1.918v0.768v1.148
		L82.915,69.915L82.915,69.915z M72.536,67.348h5.368c0.394,0,0.383-0.271,0.383-0.664c0-0.395,0.011-0.603-0.383-0.603h-5.368
		c-0.396,0-0.384,0.208-0.384,0.603C72.152,67.077,72.143,67.348,72.536,67.348L72.536,67.348z M69.277,66.084
		c-0.324,0-0.588,0.256-0.588,0.572s0.264,0.572,0.588,0.572c0.322,0,0.584-0.256,0.584-0.572S69.602,66.084,69.277,66.084
		L69.277,66.084z M79.055,61.096h-7.668l-0.768,2.684h9.201L79.055,61.096L79.055,61.096z M81.163,66.084
		c-0.323,0-0.586,0.256-0.586,0.572s0.263,0.572,0.586,0.572c0.321,0,0.585-0.256,0.585-0.572S81.484,66.084,81.163,66.084
		L81.163,66.084z"/>
	
		<linearGradient id="SVGID_8_" gradientUnits="userSpaceOnUse" x1="297.291" y1="-282.6055" x2="297.291" y2="-257.9302" gradientTransform="matrix(1 0 0 -1 -237.5996 -239.9004)">
		<stop  offset="0" style="stop-color:#FFFFFF;stop-opacity:0"/>
		<stop  offset="1" style="stop-color:#FFFFFF;stop-opacity:0.8"/>
	</linearGradient>
	<path fill="url(#SVGID_8_)" d="M36.279,34.888c-10.953-3.797-15.283-8.096-16.986-10.74c1.672-3.347,4.899-5.653,8.636-6.118
		c0.237,0,61.958,0,61.958,0l0.297,0.01c0,0,0.086,0.005,0.168,0.008c5.557,0.737,9.737,5.503,9.737,11.116c0,0,0,10.497,0,13.541
		C72.244,42.546,50.784,39.917,36.279,34.888"/>
</g>
<g id="red">
	<path fill-opacity="0.1" d="M31.33,106.922c-8.949,0-16.229-7.279-16.229-16.229V31.164c0-8.948,7.28-16.228,16.229-16.228h59.527
		c8.949,0,16.229,7.28,16.229,16.228v59.529c0,8.947-7.28,16.229-16.229,16.229H31.33"/>
	<path fill="#940202" d="M29.33,104.922c-8.949,0-16.229-7.279-16.229-16.229V29.164c0-8.948,7.28-16.228,16.229-16.228h59.527
		c8.949,0,16.229,7.28,16.229,16.228v59.529c0,8.947-7.28,16.229-16.229,16.229H29.33"/>
	<g>
		
			<linearGradient id="SVGID_9_" gradientUnits="userSpaceOnUse" x1="296.6943" y1="-341.8228" x2="296.6942" y2="-255.8354" gradientTransform="matrix(1 0 0 -1 -237.5996 -239.9004)">
			<stop  offset="0" style="stop-color:#FF0000"/>
			<stop  offset="0.1758" style="stop-color:#F60303"/>
			<stop  offset="0.4969" style="stop-color:#EC0404"/>
			<stop  offset="0.782" style="stop-color:#E30101"/>
			<stop  offset="1" style="stop-color:#D60202"/>
		</linearGradient>
		<path fill="url(#SVGID_9_)" d="M88.857,101.923H29.33c-7.306,0-13.23-5.923-13.23-13.229V29.164
			c0-7.306,5.924-13.229,13.23-13.229h59.527c7.308,0,13.23,5.922,13.23,13.229v59.529C102.089,96,96.165,101.923,88.857,101.923
			L88.857,101.923z"/>
	</g>
	<path fill="#940202" d="M26.001,90.501V84.5h65.998v6.001H26.001L26.001,90.501z M59,90.501V72.499h32.999v18.002H59L59,90.501z
		 M41.938,63.003L31.312,48.475h5.687V33.44h10.003v15.035h5.562L41.938,63.003L41.938,63.003z"/>
	<path fill="#FFFFFF" d="M28.001,88.5c0-0.889,0-1.111,0-2c3.53,0,30.999,0,30.999,0c1.105,0,2-0.896,2-2c0,0,0-7.223,0-10
		c3.303,0,25.695,0,28.999,0c0,2.777,0,10,0,10s0,2.223,0,4C86.355,88.5,31.645,88.5,28.001,88.5 M35.253,50.476
		c0.743,0,1.746,0,1.746,0c1.105,0,2-0.896,2-2c0,0,0-10.027,0-13.035c1.92,0,4.083,0,6.002,0c0,3.008,0,13.035,0,13.035
		c0,1.105,0.896,2,2,2c0,0,0.951,0,1.621,0c-2.287,3.126-4.961,6.784-6.685,9.14C40.214,57.259,37.54,53.602,35.253,50.476"/>
	<path fill="#940202" d="M79.066,74.6c-1.104,0-2-0.896-2-2c0,0,0-0.425,0-0.685c-1.418,0-2.264,0-3.68,0c0,0.26,0,0.685,0,0.685
		c0,1.104-0.896,2-2.002,2h-3.438c-1.104,0-2-0.896-2-2c0,0,0-0.736,0-1.463c-0.217-0.217-0.575-0.572-0.575-0.572
		c-0.376-0.375-0.588-0.885-0.588-1.416v-1.149V67.23v-1.918c0-1.623,0.61-2.553,1.312-3.047c0.479-0.89,2.379-4.418,2.379-4.418
		c0.35-0.648,1.026-1.052,1.762-1.052h9.969c0.734,0,1.412,0.404,1.762,1.052c0,0,2.127,3.95,2.479,4.6
		c0.646,0.584,1.211,1.548,1.211,2.865v1.918v0.768v1.148c0,0.519-0.2,1.017-0.561,1.39c0,0-0.398,0.413-0.589,0.61
		c0,0.722,0,1.451,0,1.451c0,1.105-0.896,2-2,2h-3.44"/>
	<path fill="#FFFFFF" d="M82.915,69.915h-0.409V72.6h-3.438v-2.685h-7.682V72.6h-3.439v-2.685h-0.393l-0.77-0.769v-1.148V67.23
		v-1.918c0-1.533,0.768-1.533,0.768-1.533l2.684-4.984h9.969l2.686,4.984c0,0,0.767,0.385,0.767,1.533v1.918v0.768v1.148
		L82.915,69.915L82.915,69.915z M72.536,67.348h5.368c0.394,0,0.383-0.271,0.383-0.664c0-0.395,0.011-0.603-0.383-0.603h-5.368
		c-0.396,0-0.384,0.208-0.384,0.603C72.152,67.077,72.143,67.348,72.536,67.348L72.536,67.348z M69.277,66.084
		c-0.324,0-0.588,0.256-0.588,0.572s0.264,0.572,0.588,0.572c0.322,0,0.584-0.256,0.584-0.572S69.602,66.084,69.277,66.084
		L69.277,66.084z M79.055,61.096h-7.668l-0.768,2.684h9.201L79.055,61.096L79.055,61.096z M81.163,66.084
		c-0.323,0-0.586,0.256-0.586,0.572s0.263,0.572,0.586,0.572c0.321,0,0.585-0.256,0.585-0.572S81.484,66.084,81.163,66.084
		L81.163,66.084z"/>
	
		<linearGradient id="SVGID_10_" gradientUnits="userSpaceOnUse" x1="297.291" y1="-282.6055" x2="297.291" y2="-257.9302" gradientTransform="matrix(1 0 0 -1 -237.5996 -239.9004)">
		<stop  offset="0" style="stop-color:#FFFFFF;stop-opacity:0"/>
		<stop  offset="1" style="stop-color:#FFFFFF;stop-opacity:0.8"/>
	</linearGradient>
	<path fill="url(#SVGID_10_)" d="M36.279,34.888c-10.953-3.797-15.283-8.096-16.986-10.74c1.672-3.347,4.899-5.653,8.636-6.118
		c0.237,0,61.958,0,61.958,0l0.297,0.01c0,0,0.086,0.005,0.168,0.008c5.557,0.737,9.737,5.503,9.737,11.116c0,0,0,10.497,0,13.541
		C72.244,42.546,50.784,39.917,36.279,34.888"/>
</g>
</svg>
