<?xml version="1.0" encoding="utf-8"?>
<!-- Generator: Adobe Illustrator 16.0.2, SVG Export Plug-In . SVG Version: 6.00 Build 0)  -->
<!DOCTYPE svg PUBLIC "-//W3C//DTD SVG 1.1//EN" "http://www.w3.org/Graphics/SVG/1.1/DTD/svg11.dtd">
<svg version="1.1" id="Layer_1" xmlns="http://www.w3.org/2000/svg" xmlns:xlink="http://www.w3.org/1999/xlink" x="0px" y="0px"
	 width="120px" height="120px" viewBox="0 0 120 120" enable-background="new 0 0 120 120" xml:space="preserve">
<g id="black_white">
	<g>
		<path fill="#999999" d="M46.417,55.899L26.276,35.757L20.3,41.733c0.732,0.732,13.237,13.238,20.7,20.701
			c0.469-1.211,1.307-2.42,2.572-3.672C44.476,57.865,45.418,56.892,46.417,55.899z"/>
		<path fill="#3A3A3A" d="M97.547,15.415l-40.897,6.12c-1.523,0.228-2.137,2.092-1.049,3.181l9.999,9.999L42.264,58.052
			c-1.891,1.891-3.061,4.504-3.061,7.389v39.164h20.9V69.771L80.38,49.494l9.999,9.999c1.089,1.089,2.953,0.474,3.182-1.049
			l6.119-40.897C99.866,16.301,98.794,15.229,97.547,15.415z"/>
	</g>
</g>
<g id="blue">
	<path fill-opacity="0.1" d="M43.01,106.801c-1.658,0-3-1.342-3-3c0,0,0-28.775,0-31.066c-9.886-9.918-23.375-23.307-23.514-23.445
		c-0.565-0.561-0.884-1.326-0.886-2.124c0-0.001,0-0.005,0-0.006c0-0.796,0.315-1.557,0.878-2.121L30.52,31.007
		c0.562-0.561,1.326-0.877,2.12-0.877c0.003,0,0.008,0,0.011,0c0.799,0.001,1.563,0.323,2.125,0.892
		c0,0,14.116,14.287,17.488,17.702c4.399-4.403,8.935-8.959,12.554-12.598c-2.586-2.586-7.551-7.551-7.801-7.801
		c-0.173-0.133-0.338-0.278-0.493-0.432c-0.964-0.966-1.494-2.247-1.494-3.61c0-1.368,0.532-2.65,1.499-3.613
		c0.966-0.962,2.245-1.491,3.604-1.491c0.109,0,0.219,0.005,0.327,0.011c0.761-0.115,39.47-6.025,39.655-6.054
		c0.391-0.095,0.787-0.141,1.189-0.141c1.362,0,2.643,0.53,3.607,1.494c0.964,0.966,1.494,2.247,1.494,3.61
		c0,0.428-0.053,0.852-0.16,1.267c-0.416,2.825-5.256,35.768-5.848,39.798c0.006,0.096,0.009,0.191,0.009,0.289
		c0,1.359-0.528,2.641-1.491,3.605c-0.962,0.967-2.245,1.498-3.613,1.498c-1.361,0-2.644-0.529-3.609-1.494
		c-0.156-0.156-0.303-0.322-0.436-0.496c-0.101-0.102-5.518-5.518-8.181-8.18c-2.702,2.704-8.376,8.379-8.376,8.379
		s-8.213,8.219-9.689,9.694c0,2.298,0,31.34,0,31.34c0,1.658-1.342,3-2.998,3L43.01,106.801"/>
	<path fill="#00598C" d="M41.01,105.801c-1.658,0-3-1.342-3-3c0,0,0-28.775,0-31.066c-9.886-9.918-23.375-23.307-23.514-23.445
		c-0.565-0.561-0.884-1.326-0.886-2.124c0-0.001,0-0.005,0-0.006c0-0.796,0.315-1.557,0.878-2.121L28.52,30.007
		c0.562-0.561,1.326-0.877,2.12-0.877c0.003,0,0.008,0,0.011,0c0.799,0.001,1.563,0.323,2.125,0.892
		c0,0,14.116,14.287,17.488,17.702c4.399-4.403,8.935-8.959,12.554-12.598c-2.586-2.586-7.551-7.551-7.801-7.801
		c-0.173-0.133-0.338-0.278-0.493-0.432c-0.964-0.966-1.494-2.247-1.494-3.61c0-1.368,0.532-2.65,1.499-3.613
		c0.966-0.962,2.245-1.491,3.605-1.491c0.109,0,0.218,0.005,0.327,0.011c0.761-0.115,39.471-6.025,39.655-6.054
		c0.391-0.095,0.788-0.141,1.188-0.141c1.363,0,2.643,0.53,3.608,1.494c0.964,0.966,1.494,2.247,1.494,3.61
		c0,0.428-0.054,0.852-0.16,1.267c-0.416,2.825-5.256,35.768-5.847,39.797c0.004,0.096,0.008,0.192,0.008,0.29
		c0,1.359-0.528,2.639-1.491,3.605c-0.962,0.967-2.245,1.498-3.612,1.498c-1.363,0-2.645-0.529-3.609-1.494
		c-0.157-0.156-0.303-0.322-0.437-0.496c-0.101-0.102-5.518-5.518-8.181-8.18c-2.702,2.704-8.376,8.379-8.376,8.379
		s-8.214,8.219-9.688,9.694c0,2.298,0,31.34,0,31.34c0,1.658-1.343,3-3,3L41.01,105.801"/>
	<g>
		
			<linearGradient id="SVGID_1_" gradientUnits="userSpaceOnUse" x1="296.6094" y1="-342.7007" x2="296.6094" y2="-254.8955" gradientTransform="matrix(1 0 0 -1 -237.5996 -239.9004)">
			<stop  offset="0" style="stop-color:#48A2FB"/>
			<stop  offset="0.1758" style="stop-color:#059CF4"/>
			<stop  offset="0.4969" style="stop-color:#0398EF"/>
			<stop  offset="0.782" style="stop-color:#0293E7"/>
			<stop  offset="1" style="stop-color:#0189D8"/>
		</linearGradient>
		<path fill="url(#SVGID_1_)" d="M95.26,58.91l-3.813,0.599L56.968,25.03l0.78-3.696l40.917-6.246l2.674,2.45L95.26,58.91
			L95.26,58.91z M94.794,59.941c-0.821,0.82-2.153,0.82-2.976,0c-0.822-0.821-0.821-2.154,0-2.977c0.82-0.822,2.154-0.822,2.976,0
			C95.615,57.787,95.615,59.12,94.794,59.941L94.794,59.941z M59.623,24.771c-0.822,0.821-2.154,0.821-2.976,0
			c-0.822-0.822-0.822-2.154,0-2.976c0.821-0.822,2.154-0.822,2.976,0C60.443,22.616,60.443,23.949,59.623,24.771L59.623,24.771z
			 M100.793,18.587c-0.82,0.822-2.152,0.822-2.975,0c-0.821-0.821-0.821-2.154,0-2.976c0.822-0.821,2.152-0.821,2.975,0
			C101.613,16.433,101.613,17.766,100.793,18.587L100.793,18.587z M41.01,102.801V66.197l19.006-11.989v48.593H41.01L41.01,102.801z
			 M50.595,79.645l-7.002-7.051c0,0-7.015-7.017,0.026-14.006c10.054-9.982,26.867-26.92,26.867-26.92l14.031,14.033L50.595,79.645
			L50.595,79.645z M57.104,73.053c0,0-6.584,7.018-13.575-0.025C33.549,62.973,16.611,46.16,16.611,46.16l14.031-14.031
			L64.154,66.05L57.104,73.053L57.104,73.053z"/>
	</g>
	
		<linearGradient id="SVGID_2_" gradientUnits="userSpaceOnUse" x1="317.5283" y1="-273.0874" x2="317.5283" y2="-256.1533" gradientTransform="matrix(1 0 0 -1 -237.5996 -239.9004)">
		<stop  offset="0" style="stop-color:#FFFFFF;stop-opacity:0"/>
		<stop  offset="1" style="stop-color:#FFFFFF;stop-opacity:0.8"/>
	</linearGradient>
	<path fill="url(#SVGID_2_)" d="M98.016,16.253c0,0-37.447,5.753-38.551,6.248c34.811-5.035,39.363,10.686,39.363,10.686
		l1.563-14.98L98.016,16.253L98.016,16.253z"/>
</g>
<g id="green">
	<path fill-opacity="0.1" d="M43.01,106.801c-1.658,0-3-1.342-3-3c0,0,0-28.775,0-31.066c-9.886-9.918-23.375-23.307-23.514-23.445
		c-0.565-0.561-0.884-1.326-0.886-2.124c0-0.001,0-0.005,0-0.006c0-0.796,0.315-1.557,0.878-2.121L30.52,31.007
		c0.562-0.561,1.326-0.877,2.12-0.877c0.003,0,0.008,0,0.011,0c0.799,0.001,1.563,0.323,2.125,0.892
		c0,0,14.116,14.287,17.488,17.702c4.399-4.403,8.935-8.959,12.554-12.598c-2.586-2.586-7.551-7.551-7.801-7.801
		c-0.173-0.133-0.338-0.278-0.493-0.432c-0.964-0.966-1.494-2.247-1.494-3.61c0-1.368,0.532-2.65,1.499-3.613
		c0.966-0.962,2.245-1.491,3.604-1.491c0.109,0,0.219,0.005,0.327,0.011c0.761-0.115,39.47-6.025,39.655-6.054
		c0.391-0.095,0.787-0.141,1.189-0.141c1.362,0,2.643,0.53,3.607,1.494c0.964,0.966,1.494,2.247,1.494,3.61
		c0,0.428-0.053,0.852-0.16,1.267c-0.416,2.825-5.256,35.768-5.848,39.798c0.006,0.096,0.009,0.191,0.009,0.289
		c0,1.359-0.528,2.641-1.491,3.605c-0.962,0.967-2.245,1.498-3.613,1.498c-1.361,0-2.644-0.529-3.609-1.494
		c-0.156-0.156-0.303-0.322-0.436-0.496c-0.101-0.102-5.518-5.518-8.181-8.18c-2.702,2.704-8.376,8.379-8.376,8.379
		s-8.213,8.219-9.689,9.694c0,2.298,0,31.34,0,31.34c0,1.658-1.342,3-2.998,3L43.01,106.801"/>
	<path fill="#015911" d="M41.01,105.801c-1.658,0-3-1.342-3-3c0,0,0-28.775,0-31.066c-9.886-9.918-23.375-23.307-23.514-23.445
		c-0.565-0.561-0.884-1.326-0.886-2.124c0-0.001,0-0.005,0-0.006c0-0.796,0.315-1.557,0.878-2.121L28.52,30.007
		c0.562-0.561,1.326-0.877,2.12-0.877c0.003,0,0.008,0,0.011,0c0.799,0.001,1.563,0.323,2.125,0.892
		c0,0,14.116,14.287,17.488,17.702c4.399-4.403,8.935-8.959,12.554-12.598c-2.586-2.586-7.551-7.551-7.801-7.801
		c-0.173-0.133-0.338-0.278-0.493-0.432c-0.964-0.966-1.494-2.247-1.494-3.61c0-1.368,0.532-2.65,1.499-3.613
		c0.966-0.962,2.245-1.491,3.605-1.491c0.109,0,0.218,0.005,0.327,0.011c0.761-0.115,39.471-6.025,39.655-6.054
		c0.391-0.095,0.788-0.141,1.188-0.141c1.363,0,2.643,0.53,3.608,1.494c0.964,0.966,1.494,2.247,1.494,3.61
		c0,0.428-0.054,0.852-0.16,1.267c-0.416,2.825-5.256,35.768-5.847,39.797c0.004,0.096,0.008,0.192,0.008,0.29
		c0,1.359-0.528,2.639-1.491,3.605c-0.962,0.967-2.245,1.498-3.612,1.498c-1.363,0-2.645-0.529-3.609-1.494
		c-0.157-0.156-0.303-0.322-0.437-0.496c-0.101-0.102-5.518-5.518-8.181-8.18c-2.702,2.704-8.376,8.379-8.376,8.379
		s-8.214,8.219-9.688,9.694c0,2.298,0,31.34,0,31.34c0,1.658-1.343,3-3,3L41.01,105.801"/>
	<g>
		
			<linearGradient id="SVGID_3_" gradientUnits="userSpaceOnUse" x1="296.6094" y1="-342.7007" x2="296.6094" y2="-254.8955" gradientTransform="matrix(1 0 0 -1 -237.5996 -239.9004)">
			<stop  offset="0" style="stop-color:#00DF34"/>
			<stop  offset="0.1758" style="stop-color:#00CD26"/>
			<stop  offset="0.4969" style="stop-color:#00B211"/>
			<stop  offset="0.782" style="stop-color:#00A204"/>
			<stop  offset="1" style="stop-color:#009C00"/>
		</linearGradient>
		<path fill="url(#SVGID_3_)" d="M95.26,58.91l-3.813,0.599L56.968,25.03l0.78-3.696l40.917-6.246l2.674,2.45L95.26,58.91
			L95.26,58.91z M94.794,59.941c-0.821,0.82-2.153,0.82-2.976,0c-0.822-0.821-0.821-2.154,0-2.977c0.82-0.822,2.154-0.822,2.976,0
			C95.615,57.787,95.615,59.12,94.794,59.941L94.794,59.941z M59.623,24.771c-0.822,0.821-2.154,0.821-2.976,0
			c-0.822-0.822-0.822-2.154,0-2.976c0.821-0.822,2.154-0.822,2.976,0C60.443,22.616,60.443,23.949,59.623,24.771L59.623,24.771z
			 M100.793,18.587c-0.82,0.822-2.152,0.822-2.975,0c-0.821-0.821-0.821-2.154,0-2.976c0.822-0.821,2.152-0.821,2.975,0
			C101.613,16.433,101.613,17.766,100.793,18.587L100.793,18.587z M41.01,102.801V66.197l19.006-11.989v48.593H41.01L41.01,102.801z
			 M50.595,79.645l-7.002-7.051c0,0-7.015-7.017,0.026-14.006c10.054-9.982,26.867-26.92,26.867-26.92l14.031,14.033L50.595,79.645
			L50.595,79.645z M57.104,73.053c0,0-6.584,7.018-13.575-0.025C33.549,62.973,16.611,46.16,16.611,46.16l14.031-14.031
			L64.154,66.05L57.104,73.053L57.104,73.053z"/>
	</g>
	
		<linearGradient id="SVGID_4_" gradientUnits="userSpaceOnUse" x1="317.5283" y1="-273.0874" x2="317.5283" y2="-256.1533" gradientTransform="matrix(1 0 0 -1 -237.5996 -239.9004)">
		<stop  offset="0" style="stop-color:#FFFFFF;stop-opacity:0"/>
		<stop  offset="1" style="stop-color:#FFFFFF;stop-opacity:0.8"/>
	</linearGradient>
	<path fill="url(#SVGID_4_)" d="M98.016,16.253c0,0-37.447,5.753-38.551,6.248c34.811-5.035,39.363,10.686,39.363,10.686
		l1.563-14.98L98.016,16.253L98.016,16.253z"/>
</g>
<g id="kia">
	<path fill-opacity="0.1" d="M43.01,106.801c-1.658,0-3-1.342-3-3c0,0,0-28.775,0-31.066c-9.886-9.918-23.375-23.307-23.514-23.445
		c-0.565-0.561-0.884-1.326-0.886-2.124c0-0.001,0-0.005,0-0.006c0-0.796,0.315-1.557,0.878-2.121L30.52,31.007
		c0.562-0.561,1.326-0.877,2.12-0.877c0.003,0,0.008,0,0.011,0c0.799,0.001,1.563,0.323,2.125,0.892
		c0,0,14.116,14.287,17.488,17.702c4.399-4.403,8.935-8.959,12.554-12.598c-2.586-2.586-7.551-7.551-7.801-7.801
		c-0.173-0.133-0.338-0.278-0.493-0.432c-0.964-0.966-1.494-2.247-1.494-3.61c0-1.368,0.532-2.65,1.499-3.613
		c0.966-0.962,2.245-1.491,3.604-1.491c0.109,0,0.219,0.005,0.327,0.011c0.761-0.115,39.47-6.025,39.655-6.054
		c0.391-0.095,0.787-0.141,1.189-0.141c1.362,0,2.643,0.53,3.607,1.494c0.964,0.966,1.494,2.247,1.494,3.61
		c0,0.428-0.053,0.852-0.16,1.267c-0.416,2.825-5.256,35.768-5.848,39.798c0.006,0.096,0.009,0.191,0.009,0.289
		c0,1.359-0.528,2.641-1.491,3.605c-0.962,0.967-2.245,1.498-3.613,1.498c-1.361,0-2.644-0.529-3.609-1.494
		c-0.156-0.156-0.303-0.322-0.436-0.496c-0.101-0.102-5.518-5.518-8.181-8.18c-2.702,2.704-8.376,8.379-8.376,8.379
		s-8.213,8.219-9.689,9.694c0,2.298,0,31.34,0,31.34c0,1.658-1.342,3-2.998,3L43.01,106.801"/>
	<path fill="#eeb422" d="M41.01,105.801c-1.658,0-3-1.342-3-3c0,0,0-28.775,0-31.066c-9.886-9.918-23.375-23.307-23.514-23.445
		c-0.565-0.561-0.884-1.326-0.886-2.124c0-0.001,0-0.005,0-0.006c0-0.796,0.315-1.557,0.878-2.121L28.52,30.007
		c0.562-0.561,1.326-0.877,2.12-0.877c0.003,0,0.008,0,0.011,0c0.799,0.001,1.563,0.323,2.125,0.892
		c0,0,14.116,14.287,17.488,17.702c4.399-4.403,8.935-8.959,12.554-12.598c-2.586-2.586-7.551-7.551-7.801-7.801
		c-0.173-0.133-0.338-0.278-0.493-0.432c-0.964-0.966-1.494-2.247-1.494-3.61c0-1.368,0.532-2.65,1.499-3.613
		c0.966-0.962,2.245-1.491,3.605-1.491c0.109,0,0.218,0.005,0.327,0.011c0.761-0.115,39.471-6.025,39.655-6.054
		c0.391-0.095,0.788-0.141,1.188-0.141c1.363,0,2.643,0.53,3.608,1.494c0.964,0.966,1.494,2.247,1.494,3.61
		c0,0.428-0.054,0.852-0.16,1.267c-0.416,2.825-5.256,35.768-5.847,39.797c0.004,0.096,0.008,0.192,0.008,0.29
		c0,1.359-0.528,2.639-1.491,3.605c-0.962,0.967-2.245,1.498-3.612,1.498c-1.363,0-2.645-0.529-3.609-1.494
		c-0.157-0.156-0.303-0.322-0.437-0.496c-0.101-0.102-5.518-5.518-8.181-8.18c-2.702,2.704-8.376,8.379-8.376,8.379
		s-8.214,8.219-9.688,9.694c0,2.298,0,31.34,0,31.34c0,1.658-1.343,3-3,3L41.01,105.801"/>
	<g>
		
			<linearGradient id="SVGID_5_" gradientUnits="userSpaceOnUse" x1="296.6094" y1="-342.7007" x2="296.6094" y2="-254.8955" gradientTransform="matrix(1 0 0 -1 -237.5996 -239.9004)">
			<stop  offset="0" style="stop-color:#FFFFFF"/>
			<stop  offset="0.1758" style="stop-color:#E7E9EA"/>
			<stop  offset="0.4969" style="stop-color:#CDD2D5"/>
			<stop  offset="0.782" style="stop-color:#C5CACC"/>
			<stop  offset="1" style="stop-color:#BABDC0"/>
		</linearGradient>
		<path fill="url(#SVGID_5_)" d="M95.26,58.91l-3.813,0.599L56.968,25.03l0.78-3.696l40.917-6.246l2.674,2.45L95.26,58.91
			L95.26,58.91z M94.794,59.941c-0.821,0.82-2.153,0.82-2.976,0c-0.822-0.821-0.821-2.154,0-2.977c0.82-0.822,2.154-0.822,2.976,0
			C95.615,57.787,95.615,59.12,94.794,59.941L94.794,59.941z M59.623,24.771c-0.822,0.821-2.154,0.821-2.976,0
			c-0.822-0.822-0.822-2.154,0-2.976c0.821-0.822,2.154-0.822,2.976,0C60.443,22.616,60.443,23.949,59.623,24.771L59.623,24.771z
			 M100.793,18.587c-0.82,0.822-2.152,0.822-2.975,0c-0.821-0.821-0.821-2.154,0-2.976c0.822-0.821,2.152-0.821,2.975,0
			C101.613,16.433,101.613,17.766,100.793,18.587L100.793,18.587z M41.01,102.801V66.197l19.006-11.989v48.593H41.01L41.01,102.801z
			 M50.595,79.645l-7.002-7.051c0,0-7.015-7.017,0.026-14.006c10.054-9.982,26.867-26.92,26.867-26.92l14.031,14.033L50.595,79.645
			L50.595,79.645z M57.104,73.053c0,0-6.584,7.018-13.575-0.025C33.549,62.973,16.611,46.16,16.611,46.16l14.031-14.031
			L64.154,66.05L57.104,73.053L57.104,73.053z"/>
	</g>
	
		<linearGradient id="SVGID_6_" gradientUnits="userSpaceOnUse" x1="317.5283" y1="-273.0874" x2="317.5283" y2="-256.1533" gradientTransform="matrix(1 0 0 -1 -237.5996 -239.9004)">
		<stop  offset="0" style="stop-color:#FFFFFF;stop-opacity:0"/>
		<stop  offset="1" style="stop-color:#FFFFFF;stop-opacity:0.8"/>
	</linearGradient>
	<path fill="url(#SVGID_6_)" d="M98.016,16.253c0,0-37.447,5.753-38.551,6.248c34.811-5.035,39.363,10.686,39.363,10.686
		l1.563-14.98L98.016,16.253L98.016,16.253z"/>
</g>
<g id="orange">
	<path fill-opacity="0.1" d="M43.01,106.801c-1.658,0-3-1.342-3-3c0,0,0-28.775,0-31.066c-9.886-9.918-23.375-23.307-23.514-23.445
		c-0.565-0.561-0.884-1.326-0.886-2.124c0-0.001,0-0.005,0-0.006c0-0.796,0.315-1.557,0.878-2.121L30.52,31.007
		c0.562-0.561,1.326-0.877,2.12-0.877c0.003,0,0.008,0,0.011,0c0.799,0.001,1.563,0.323,2.125,0.892
		c0,0,14.116,14.287,17.488,17.702c4.399-4.403,8.935-8.959,12.554-12.598c-2.586-2.586-7.551-7.551-7.801-7.801
		c-0.173-0.133-0.338-0.278-0.493-0.432c-0.964-0.966-1.494-2.247-1.494-3.61c0-1.368,0.532-2.65,1.499-3.613
		c0.966-0.962,2.245-1.491,3.604-1.491c0.109,0,0.219,0.005,0.327,0.011c0.761-0.115,39.47-6.025,39.655-6.054
		c0.391-0.095,0.787-0.141,1.189-0.141c1.362,0,2.643,0.53,3.607,1.494c0.964,0.966,1.494,2.247,1.494,3.61
		c0,0.428-0.053,0.852-0.16,1.267c-0.416,2.825-5.256,35.768-5.848,39.798c0.006,0.096,0.009,0.191,0.009,0.289
		c0,1.359-0.528,2.641-1.491,3.605c-0.962,0.967-2.245,1.498-3.613,1.498c-1.361,0-2.644-0.529-3.609-1.494
		c-0.156-0.156-0.303-0.322-0.436-0.496c-0.101-0.102-5.518-5.518-8.181-8.18c-2.702,2.704-8.376,8.379-8.376,8.379
		s-8.213,8.219-9.689,9.694c0,2.298,0,31.34,0,31.34c0,1.658-1.342,3-2.998,3L43.01,106.801"/>
	<path fill="#eeb422" d="M41.01,105.801c-1.658,0-3-1.342-3-3c0,0,0-28.775,0-31.066c-9.886-9.918-23.375-23.307-23.514-23.445
		c-0.565-0.561-0.884-1.326-0.886-2.124c0-0.001,0-0.005,0-0.006c0-0.796,0.315-1.557,0.878-2.121L28.52,30.007
		c0.562-0.561,1.326-0.877,2.12-0.877c0.003,0,0.008,0,0.011,0c0.799,0.001,1.563,0.323,2.125,0.892
		c0,0,14.116,14.287,17.488,17.702c4.399-4.403,8.935-8.959,12.554-12.598c-2.586-2.586-7.551-7.551-7.801-7.801
		c-0.173-0.133-0.338-0.278-0.493-0.432c-0.964-0.966-1.494-2.247-1.494-3.61c0-1.368,0.532-2.65,1.499-3.613
		c0.966-0.962,2.245-1.491,3.605-1.491c0.109,0,0.218,0.005,0.327,0.011c0.761-0.115,39.471-6.025,39.655-6.054
		c0.391-0.095,0.788-0.141,1.188-0.141c1.363,0,2.643,0.53,3.608,1.494c0.964,0.966,1.494,2.247,1.494,3.61
		c0,0.428-0.054,0.852-0.16,1.267c-0.416,2.825-5.256,35.768-5.847,39.797c0.004,0.096,0.008,0.192,0.008,0.29
		c0,1.359-0.528,2.639-1.491,3.605c-0.962,0.967-2.245,1.498-3.612,1.498c-1.363,0-2.645-0.529-3.609-1.494
		c-0.157-0.156-0.303-0.322-0.437-0.496c-0.101-0.102-5.518-5.518-8.181-8.18c-2.702,2.704-8.376,8.379-8.376,8.379
		s-8.214,8.219-9.688,9.694c0,2.298,0,31.34,0,31.34c0,1.658-1.343,3-3,3L41.01,105.801"/>
	<g>
		
			<linearGradient id="SVGID_7_" gradientUnits="userSpaceOnUse" x1="296.6094" y1="-342.7007" x2="296.6094" y2="-254.8955" gradientTransform="matrix(1 0 0 -1 -237.5996 -239.9004)">
			<stop  offset="0" style="stop-color:#FEDF34"/>
			<stop  offset="0.1758" style="stop-color:#FECD26"/>
			<stop  offset="0.4969" style="stop-color:#FFB211"/>
			<stop  offset="0.782" style="stop-color:#FFA204"/>
			<stop  offset="1" style="stop-color:#FF9C00"/>
		</linearGradient>
		<path fill="url(#SVGID_7_)" d="M95.26,58.91l-3.813,0.599L56.968,25.03l0.78-3.696l40.917-6.246l2.674,2.45L95.26,58.91
			L95.26,58.91z M94.794,59.941c-0.821,0.82-2.153,0.82-2.976,0c-0.822-0.821-0.821-2.154,0-2.977c0.82-0.822,2.154-0.822,2.976,0
			C95.615,57.787,95.615,59.12,94.794,59.941L94.794,59.941z M59.623,24.771c-0.822,0.821-2.154,0.821-2.976,0
			c-0.822-0.822-0.822-2.154,0-2.976c0.821-0.822,2.154-0.822,2.976,0C60.443,22.616,60.443,23.949,59.623,24.771L59.623,24.771z
			 M100.793,18.587c-0.82,0.822-2.152,0.822-2.975,0c-0.821-0.821-0.821-2.154,0-2.976c0.822-0.821,2.152-0.821,2.975,0
			C101.613,16.433,101.613,17.766,100.793,18.587L100.793,18.587z M41.01,102.801V66.197l19.006-11.989v48.593H41.01L41.01,102.801z
			 M50.595,79.645l-7.002-7.051c0,0-7.015-7.017,0.026-14.006c10.054-9.982,26.867-26.92,26.867-26.92l14.031,14.033L50.595,79.645
			L50.595,79.645z M57.104,73.053c0,0-6.584,7.018-13.575-0.025C33.549,62.973,16.611,46.16,16.611,46.16l14.031-14.031
			L64.154,66.05L57.104,73.053L57.104,73.053z"/>
	</g>
	
		<linearGradient id="SVGID_8_" gradientUnits="userSpaceOnUse" x1="317.5283" y1="-273.0874" x2="317.5283" y2="-256.1533" gradientTransform="matrix(1 0 0 -1 -237.5996 -239.9004)">
		<stop  offset="0" style="stop-color:#FFFFFF;stop-opacity:0"/>
		<stop  offset="1" style="stop-color:#FFFFFF;stop-opacity:0.8"/>
	</linearGradient>
	<path fill="url(#SVGID_8_)" d="M98.016,16.253c0,0-37.447,5.753-38.551,6.248c34.811-5.035,39.363,10.686,39.363,10.686
		l1.563-14.98L98.016,16.253L98.016,16.253z"/>
</g>
<g id="red">
	<path fill-opacity="0.1" d="M43.01,106.801c-1.658,0-3-1.342-3-3c0,0,0-28.775,0-31.066c-9.886-9.918-23.375-23.307-23.514-23.445
		c-0.565-0.561-0.884-1.326-0.886-2.124c0-0.001,0-0.005,0-0.006c0-0.796,0.315-1.557,0.878-2.121L30.52,31.007
		c0.562-0.561,1.326-0.877,2.12-0.877c0.003,0,0.008,0,0.011,0c0.799,0.001,1.563,0.323,2.125,0.892
		c0,0,14.116,14.287,17.488,17.702c4.399-4.403,8.935-8.959,12.554-12.598c-2.586-2.586-7.551-7.551-7.801-7.801
		c-0.173-0.133-0.338-0.278-0.493-0.432c-0.964-0.966-1.494-2.247-1.494-3.61c0-1.368,0.532-2.65,1.499-3.613
		c0.966-0.962,2.245-1.491,3.604-1.491c0.109,0,0.219,0.005,0.327,0.011c0.761-0.115,39.47-6.025,39.655-6.054
		c0.391-0.095,0.787-0.141,1.189-0.141c1.362,0,2.643,0.53,3.607,1.494c0.964,0.966,1.494,2.247,1.494,3.61
		c0,0.428-0.053,0.852-0.16,1.267c-0.416,2.825-5.256,35.768-5.848,39.798c0.006,0.096,0.009,0.191,0.009,0.289
		c0,1.359-0.528,2.641-1.491,3.605c-0.962,0.967-2.245,1.498-3.613,1.498c-1.361,0-2.644-0.529-3.609-1.494
		c-0.156-0.156-0.303-0.322-0.436-0.496c-0.101-0.102-5.518-5.518-8.181-8.18c-2.702,2.704-8.376,8.379-8.376,8.379
		s-8.213,8.219-9.689,9.694c0,2.298,0,31.34,0,31.34c0,1.658-1.342,3-2.998,3L43.01,106.801"/>
	<path fill="#940202" d="M41.01,105.801c-1.658,0-3-1.342-3-3c0,0,0-28.775,0-31.066c-9.886-9.918-23.375-23.307-23.514-23.445
		c-0.565-0.561-0.884-1.326-0.886-2.124c0-0.001,0-0.005,0-0.006c0-0.796,0.315-1.557,0.878-2.121L28.52,30.007
		c0.562-0.561,1.326-0.877,2.12-0.877c0.003,0,0.008,0,0.011,0c0.799,0.001,1.563,0.323,2.125,0.892
		c0,0,14.116,14.287,17.488,17.702c4.399-4.403,8.935-8.959,12.554-12.598c-2.586-2.586-7.551-7.551-7.801-7.801
		c-0.173-0.133-0.338-0.278-0.493-0.432c-0.964-0.966-1.494-2.247-1.494-3.61c0-1.368,0.532-2.65,1.499-3.613
		c0.966-0.962,2.245-1.491,3.605-1.491c0.109,0,0.218,0.005,0.327,0.011c0.761-0.115,39.471-6.025,39.655-6.054
		c0.391-0.095,0.788-0.141,1.188-0.141c1.363,0,2.643,0.53,3.608,1.494c0.964,0.966,1.494,2.247,1.494,3.61
		c0,0.428-0.054,0.852-0.16,1.267c-0.416,2.825-5.256,35.768-5.847,39.797c0.004,0.096,0.008,0.192,0.008,0.29
		c0,1.359-0.528,2.639-1.491,3.605c-0.962,0.967-2.245,1.498-3.612,1.498c-1.363,0-2.645-0.529-3.609-1.494
		c-0.157-0.156-0.303-0.322-0.437-0.496c-0.101-0.102-5.518-5.518-8.181-8.18c-2.702,2.704-8.376,8.379-8.376,8.379
		s-8.214,8.219-9.688,9.694c0,2.298,0,31.34,0,31.34c0,1.658-1.343,3-3,3L41.01,105.801"/>
	<g>
		
			<linearGradient id="SVGID_9_" gradientUnits="userSpaceOnUse" x1="296.6094" y1="-342.7007" x2="296.6094" y2="-254.8955" gradientTransform="matrix(1 0 0 -1 -237.5996 -239.9004)">
			<stop  offset="0" style="stop-color:#FF0000"/>
			<stop  offset="0.1758" style="stop-color:#F60303"/>
			<stop  offset="0.4969" style="stop-color:#EC0404"/>
			<stop  offset="0.782" style="stop-color:#E30101"/>
			<stop  offset="1" style="stop-color:#D60202"/>
		</linearGradient>
		<path fill="url(#SVGID_9_)" d="M95.26,58.91l-3.813,0.599L56.968,25.03l0.78-3.696l40.917-6.246l2.674,2.45L95.26,58.91
			L95.26,58.91z M94.794,59.941c-0.821,0.82-2.153,0.82-2.976,0c-0.822-0.821-0.821-2.154,0-2.977c0.82-0.822,2.154-0.822,2.976,0
			C95.615,57.787,95.615,59.12,94.794,59.941L94.794,59.941z M59.623,24.771c-0.822,0.821-2.154,0.821-2.976,0
			c-0.822-0.822-0.822-2.154,0-2.976c0.821-0.822,2.154-0.822,2.976,0C60.443,22.616,60.443,23.949,59.623,24.771L59.623,24.771z
			 M100.793,18.587c-0.82,0.822-2.152,0.822-2.975,0c-0.821-0.821-0.821-2.154,0-2.976c0.822-0.821,2.152-0.821,2.975,0
			C101.613,16.433,101.613,17.766,100.793,18.587L100.793,18.587z M41.01,102.801V66.197l19.006-11.989v48.593H41.01L41.01,102.801z
			 M50.595,79.645l-7.002-7.051c0,0-7.015-7.017,0.026-14.006c10.054-9.982,26.867-26.92,26.867-26.92l14.031,14.033L50.595,79.645
			L50.595,79.645z M57.104,73.053c0,0-6.584,7.018-13.575-0.025C33.549,62.973,16.611,46.16,16.611,46.16l14.031-14.031
			L64.154,66.05L57.104,73.053L57.104,73.053z"/>
	</g>
	
		<linearGradient id="SVGID_10_" gradientUnits="userSpaceOnUse" x1="317.5283" y1="-273.0874" x2="317.5283" y2="-256.1533" gradientTransform="matrix(1 0 0 -1 -237.5996 -239.9004)">
		<stop  offset="0" style="stop-color:#FFFFFF;stop-opacity:0"/>
		<stop  offset="1" style="stop-color:#FFFFFF;stop-opacity:0.8"/>
	</linearGradient>
	<path fill="url(#SVGID_10_)" d="M98.016,16.253c0,0-37.447,5.753-38.551,6.248c34.811-5.035,39.363,10.686,39.363,10.686
		l1.563-14.98L98.016,16.253L98.016,16.253z"/>
</g>
</svg>
