<?xml version="1.0" encoding="utf-8"?>
<!-- Generator: Adobe Illustrator 16.0.2, SVG Export Plug-In . SVG Version: 6.00 Build 0)  -->
<!DOCTYPE svg PUBLIC "-//W3C//DTD SVG 1.1//EN" "http://www.w3.org/Graphics/SVG/1.1/DTD/svg11.dtd">
<svg version="1.1" id="Layer_1" xmlns="http://www.w3.org/2000/svg" xmlns:xlink="http://www.w3.org/1999/xlink" x="0px" y="0px"
	 width="120px" height="120px" viewBox="0 0 120 120" enable-background="new 0 0 120 120" xml:space="preserve">
<g id="black_white">
	<g>
		<path fill="#3A3A3A" d="M104.995,82.5c0,0,1.565,0,3.01,0v2h-3.01c-3.313,0-5.999,2.688-5.999,6.001v14h-2c0-3.063,0-14,0-14
			C96.996,86.089,100.585,82.5,104.995,82.5z M53.995,84.5c3.315,0,6.001,2.688,6.001,6.001v14h2c0-3.063,0-14,0-14
			c0-4.412-3.589-8.001-8.001-8.001c0,0-26.899,0-42,0v2H53.995z M104.995,35.5c-3.313,0-5.999-2.687-5.999-6V15.499h-2
			c0,6.633,0,14.001,0,14.001c0,4.412,3.589,8.001,7.999,8.001c0,0,1.565,0,3.01,0v-2L104.995,35.5L104.995,35.5z M24.987,51.467
			H12.019v4h18.394C28.739,54.234,26.807,52.81,24.987,51.467z M62.006,51.467H41.038c0,1.412,0,3.025,0,4h20.968
			c1.102,0,1.999-0.898,1.999-2.001C64.005,52.364,63.107,51.467,62.006,51.467z M41.038,37.5c7.437,0,12.957,0,12.957,0
			c4.412,0,8.001-3.589,8.001-8.001c0,0,0-7.367,0-14.001h-2V29.5c0,3.314-2.686,6-6.001,6H41.038
			C41.038,36.182,41.038,36.872,41.038,37.5z M27.7,35.5H11.995v2c3.646,0,8.545,0,13.024,0C25.877,36.86,26.785,36.183,27.7,35.5z"
			/>
		<path fill="#3A3A3A" d="M88.009,57.8l-0.01-0.283l-0.019-0.564c-0.004-0.373-0.055-0.759-0.097-1.14L87.82,55.24
			c-0.026-0.192-0.066-0.385-0.103-0.577c-0.075-0.386-0.133-0.771-0.247-1.155c-0.383-1.536-1.014-3.064-1.875-4.444
			c-0.859-1.384-1.941-2.61-3.13-3.634c-1.188-1.025-2.478-1.867-3.8-2.53c-1.325-0.667-2.678-1.191-4.047-1.585
			c-0.686-0.2-1.375-0.372-2.076-0.511c-0.352-0.07-0.704-0.134-1.064-0.19l-0.557-0.079L70.63,40.5l-0.364-0.035l-0.113-0.011
			h-0.182H38.934v-8.616c0-0.989-1.129-1.553-1.92-0.96L20.231,43.454c-0.64,0.48-0.64,1.44,0,1.92l16.783,12.578
			c0.791,0.593,1.92,0.028,1.92-0.96v-8.49h30.832l0.143,0.017l0.338,0.046c0.232,0.037,0.47,0.08,0.707,0.128
			c0.477,0.094,0.951,0.213,1.419,0.349c0.937,0.267,1.83,0.622,2.649,1.034c0.824,0.41,1.555,0.903,2.184,1.443
			c0.628,0.542,1.146,1.142,1.557,1.797c0.408,0.655,0.711,1.372,0.906,2.164c0.064,0.19,0.085,0.403,0.129,0.607
			c0.018,0.103,0.043,0.202,0.059,0.308l0.033,0.322c0.021,0.214,0.055,0.426,0.055,0.653l0.022,0.69v7.202v33.276h8.05V65.264
			v-7.203C88.016,57.994,88.012,57.893,88.009,57.8z"/>
	</g>
</g>
<g id="blue">
	<path fill="#7B7B7B" d="M104.99,84.5c-3.313,0-5.999,2.688-5.999,6.001v14h-39v-14c0-3.313-2.686-6.001-6-6.001h-42v-49h42
		c3.314,0,6-2.687,6-6v-14h39v14c0,3.314,2.687,6,5.999,6H108v49H104.99L104.99,84.5z"/>
	
		<radialGradient id="SVGID_1_" cx="297.6006" cy="-299.9004" r="46.2831" gradientTransform="matrix(1 0 0 -1 -237.5996 -239.9004)" gradientUnits="userSpaceOnUse">
		<stop  offset="0.14" style="stop-color:#AEAEAE"/>
		<stop  offset="0.96" style="stop-color:#CBCBCB"/>
	</radialGradient>
	<path fill="url(#SVGID_1_)" d="M61.991,104.501c0-3.063,0-14,0-14c0-4.412-3.589-8.001-8.001-8.001c0,0-41.966,0-41.989,0
		c0-4.076,0-40.923,0-45c0.023,0,41.989,0,41.989,0c4.412,0,8.001-3.589,8.001-8.001c0,0,0-10.938,0-14c3.405,0,31.594,0,35,0
		c0,3.063,0,14,0,14c0,4.412,3.589,8.001,7.999,8.001c0,0,1.566,0,3.01,0c0,3.524,0,41.475,0,45c-1.443,0-3.01,0-3.01,0
		c-4.41,0-7.999,3.589-7.999,8.001c0,0,0,10.938,0,14C93.585,104.501,65.396,104.501,61.991,104.501"/>
	<path fill="#4E4E4E" d="M12.014,55.468v-4h49.987c1.103,0,1.999,0.896,1.999,2c0,1.103-0.896,2.001-1.999,2.001H12.014"/>
	<path fill="#FFFFFF" d="M62.001,54.468H12.014v-2.001h49.987c0.552,0,0.999,0.448,0.999,1C63,54.019,62.553,54.468,62.001,54.468
		L62.001,54.468z"/>
	<path fill-opacity="0.1" d="M81.96,102.539c-1.104,0-2.001-0.895-2.001-2V67.264c0,0,0-7.155,0-7.187
		c-0.003-0.085-0.021-0.641-0.021-0.641c-0.002-0.022-0.002-0.043-0.002-0.066v-0.014c0-0.047-0.011-0.149-0.021-0.239l-0.021-0.204
		l0.002,0.011c0,0-0.02-0.189-0.027-0.266c-0.004-0.018-0.01-0.043-0.01-0.043s-0.012-0.061-0.022-0.115c0,0.001,0,0.003,0,0.003
		s-0.004-0.024-0.006-0.031c0,0.003,0.003,0.008,0.003,0.011c-0.001-0.006-0.001-0.009-0.003-0.016
		c-0.002-0.004-0.003-0.014-0.005-0.022v-0.002c0-0.003-0.002-0.006-0.002-0.009v-0.003v0.001c-0.014-0.08-0.041-0.214-0.041-0.214
		l-0.024-0.138c0,0,0.003,0.009,0.007,0.019c-0.012-0.04-0.033-0.11-0.039-0.136c-0.146-0.589-0.365-1.108-0.664-1.588
		s-0.692-0.934-1.168-1.342c-0.525-0.453-1.121-0.847-1.765-1.166c-0.748-0.375-1.521-0.677-2.31-0.901
		c-0.004-0.002-0.008-0.003-0.012-0.003c-0.422-0.123-0.841-0.228-1.248-0.308c-0.008-0.001-0.559-0.103-0.623-0.113
		c-0.056-0.008-0.272-0.037-0.293-0.04h-0.002c0.01,0.001,0.021,0.003,0.021,0.003s-0.019-0.001-0.024-0.003
		c-0.232,0-25.121,0-28.603,0c0,2.192,0,5.623,0,5.844c0.016,0.123,0.022,0.248,0.022,0.372c0,1.698-1.382,3.08-3.08,3.08
		c-0.879,0-1.709-0.375-2.289-1.019c-0.399-0.292-16.356-12.058-16.473-12.144c-0.903-0.559-1.456-1.541-1.456-2.616
		c0-1.092,0.57-2.088,1.499-2.642c1.36-1.016,14.625-10.913,16.446-12.271c0.58-0.631,1.403-1,2.272-1
		c1.697,0,3.08,1.382,3.08,3.082c0,0.123-0.008,0.247-0.022,0.368c0,0.119,0,4.507,0,6.896c3.5,0,28.932,0,28.932,0h0.184
		c0.064,0,0.131,0.003,0.195,0.009l0.114,0.011l0.36,0.035c0.016,0.002,0.031,0.003,0.047,0.005l0.293,0.035
		c0.013,0.002,0.025,0.003,0.039,0.005l0.557,0.079c0.008,0.001,0.018,0.003,0.025,0.005c0.377,0.059,0.754,0.126,1.152,0.207
		c0.739,0.146,1.475,0.327,2.242,0.551c1.495,0.431,2.975,1.009,4.385,1.718c1.514,0.759,2.932,1.703,4.207,2.803
		c1.396,1.203,2.582,2.58,3.523,4.094c0.938,1.5,1.665,3.224,2.107,4.979c0.106,0.376,0.172,0.729,0.229,1.04l0.048,0.253
		l0.004,0.022l0.026,0.144l0.089,0.513c0.008,0.038,0.003,0.019,0.008,0.058l0.063,0.573c0,0.005,0.021,0.168,0.021,0.168
		c0.038,0.353,0.083,0.751,0.091,1.169l-0.002-0.043l0.02,0.563l0.01,0.285c0,0.002,0,0.002,0,0.002v-0.021c0,0,0,0,0,0.001
		l0.006,0.306v0.04v7.203v33.275c0,1.105-0.895,2-2,2H81.96 M79.833,58.496c0-0.001,0-0.001,0-0.003
		C79.833,58.495,79.833,58.495,79.833,58.496 M79.768,58.118c-0.002-0.003-0.002-0.006-0.004-0.01
		C79.766,58.112,79.768,58.118,79.768,58.118 M21.147,43.458c0.001,0,0.003-0.001,0.005-0.003L21.147,43.458"/>
	<path fill="#00598C" d="M79.96,100.539c-1.104,0-2.001-0.895-2.001-2V65.264c0,0,0-7.155,0-7.187
		c-0.003-0.085-0.021-0.641-0.021-0.641c-0.002-0.022-0.002-0.043-0.002-0.066v-0.014c0-0.047-0.011-0.149-0.021-0.239l-0.021-0.204
		l0.002,0.011c0,0-0.02-0.189-0.027-0.266c-0.004-0.018-0.01-0.043-0.01-0.043s-0.012-0.061-0.022-0.115c0,0.001,0,0.003,0,0.003
		s-0.004-0.024-0.006-0.031c0,0.003,0.003,0.008,0.003,0.011c-0.001-0.006-0.001-0.009-0.003-0.016
		c-0.002-0.004-0.003-0.014-0.005-0.022v-0.002c0-0.003-0.002-0.006-0.002-0.009v-0.003v0.001c-0.014-0.08-0.041-0.214-0.041-0.214
		l-0.024-0.138c0,0,0.003,0.009,0.007,0.019c-0.012-0.04-0.033-0.11-0.039-0.136c-0.146-0.589-0.365-1.108-0.664-1.588
		s-0.692-0.934-1.168-1.342c-0.525-0.453-1.121-0.847-1.765-1.166c-0.748-0.375-1.521-0.677-2.31-0.901
		c-0.004-0.002-0.008-0.003-0.012-0.003c-0.422-0.123-0.841-0.228-1.248-0.308c-0.008-0.001-0.559-0.103-0.623-0.113
		c-0.056-0.008-0.272-0.037-0.293-0.04h-0.002c0.01,0.001,0.021,0.003,0.021,0.003s-0.019-0.001-0.024-0.003
		c-0.232,0-25.121,0-28.603,0c0,2.192,0,5.623,0,5.844c0.016,0.123,0.022,0.248,0.022,0.372c0,1.698-1.382,3.08-3.08,3.08
		c-0.879,0-1.709-0.375-2.289-1.017c-0.399-0.293-16.356-12.059-16.473-12.146c-0.903-0.559-1.456-1.541-1.456-2.616
		c0-1.092,0.57-2.088,1.499-2.642c1.36-1.016,14.625-10.913,16.446-12.271c0.58-0.631,1.403-1,2.272-1
		c1.697,0,3.08,1.382,3.08,3.082c0,0.123-0.008,0.247-0.022,0.368c0,0.119,0,4.507,0,6.896c3.5,0,28.932,0,28.932,0h0.184
		c0.064,0,0.131,0.003,0.195,0.009l0.114,0.011l0.36,0.035c0.016,0.002,0.031,0.003,0.047,0.005l0.293,0.035
		c0.013,0.002,0.025,0.003,0.039,0.005l0.557,0.079c0.008,0.001,0.018,0.003,0.025,0.005c0.377,0.059,0.754,0.126,1.152,0.207
		c0.739,0.146,1.475,0.327,2.242,0.551c1.495,0.431,2.975,1.009,4.385,1.718c1.514,0.759,2.932,1.703,4.207,2.803
		c1.396,1.203,2.582,2.58,3.523,4.094c0.938,1.5,1.665,3.224,2.107,4.979c0.106,0.376,0.172,0.729,0.229,1.04l0.048,0.253
		l0.004,0.022l0.026,0.144l0.089,0.513c0.008,0.038,0.003,0.019,0.008,0.058l0.063,0.573c0,0.005,0.021,0.168,0.021,0.168
		c0.038,0.353,0.083,0.751,0.091,1.169l-0.002-0.043l0.02,0.563l0.01,0.285c0,0.002,0,0.002,0,0.002v-0.021c0,0,0,0,0,0.001
		l0.006,0.306v0.04v7.203v33.275c0,1.105-0.895,2-2,2H79.96 M77.833,56.496c0-0.001,0-0.001,0-0.003
		C77.833,56.495,77.833,56.495,77.833,56.496 M77.768,56.118c-0.002-0.003-0.002-0.006-0.004-0.01
		C77.766,56.112,77.768,56.118,77.768,56.118 M19.147,41.458c0.001,0,0.003-0.001,0.005-0.003L19.147,41.458"/>
	<g>
		
			<linearGradient id="SVGID_2_" gradientUnits="userSpaceOnUse" x1="291.4844" y1="-338.439" x2="291.4844" y2="-270.0063" gradientTransform="matrix(1 0 0 -1 -237.5996 -239.9004)">
			<stop  offset="0" style="stop-color:#48A2FB"/>
			<stop  offset="0.1758" style="stop-color:#059CF4"/>
			<stop  offset="0.4969" style="stop-color:#0398EF"/>
			<stop  offset="0.782" style="stop-color:#0293E7"/>
			<stop  offset="1" style="stop-color:#0189D8"/>
		</linearGradient>
		<path fill="url(#SVGID_2_)" d="M79.96,98.539V65.264v-7.203l-0.022-0.69c0.002-0.228-0.033-0.439-0.055-0.653l-0.033-0.322
			c-0.015-0.106-0.039-0.205-0.058-0.308c-0.044-0.204-0.063-0.417-0.129-0.607c-0.196-0.792-0.498-1.509-0.906-2.164
			c-0.409-0.655-0.929-1.254-1.557-1.797c-0.63-0.54-1.358-1.033-2.183-1.443c-0.82-0.412-1.715-0.767-2.65-1.034
			c-0.467-0.136-0.943-0.255-1.42-0.349c-0.236-0.048-0.475-0.091-0.706-0.128l-0.339-0.046l-0.144-0.018h-32.63v-8.049h32.836
			h0.184l0.113,0.011l0.364,0.035l0.292,0.035l0.557,0.079c0.359,0.056,0.713,0.12,1.063,0.19c0.7,0.14,1.392,0.311,2.075,0.511
			c1.371,0.394,2.723,0.919,4.048,1.585c1.321,0.663,2.61,1.505,3.8,2.53c1.188,1.023,2.27,2.25,3.13,3.634
			c0.861,1.38,1.492,2.908,1.875,4.444c0.114,0.384,0.173,0.769,0.247,1.155c0.035,0.192,0.075,0.384,0.104,0.577l0.063,0.573
			c0.042,0.381,0.092,0.767,0.098,1.14l0.019,0.564l0.01,0.283c0.003,0.093,0.007,0.194,0.005,0.261v7.202v33.276L79.96,98.539
			L79.96,98.539z M37.409,57.564L20.342,44.981l-0.082-1.859l17.172-12.809l1.602,1.166v25.027L37.409,57.564L37.409,57.564z
			 M37.976,32.267c-0.598,0-1.081-0.484-1.081-1.08c0-0.598,0.483-1.081,1.081-1.081c0.596,0,1.079,0.483,1.079,1.081
			C39.055,31.783,38.572,32.267,37.976,32.267L37.976,32.267z M37.976,57.796c-0.598,0-1.081-0.483-1.081-1.079
			c0-0.598,0.483-1.081,1.081-1.081c0.596,0,1.079,0.483,1.079,1.081C39.055,57.313,38.572,57.796,37.976,57.796L37.976,57.796z
			 M20.838,45.098c-0.596,0-1.079-0.483-1.079-1.08c0-0.597,0.483-1.079,1.079-1.079c0.598,0,1.081,0.482,1.081,1.079
			C21.919,44.615,21.436,45.098,20.838,45.098L20.838,45.098z"/>
	</g>
</g>
<g id="green">
	<path fill="#7B7B7B" d="M104.99,84.5c-3.313,0-5.999,2.688-5.999,6.001v14h-39v-14c0-3.313-2.686-6.001-6-6.001h-42v-49h42
		c3.314,0,6-2.687,6-6v-14h39v14c0,3.314,2.687,6,5.999,6H108v49H104.99L104.99,84.5z"/>
	
		<radialGradient id="SVGID_3_" cx="297.6006" cy="-299.9004" r="46.2831" gradientTransform="matrix(1 0 0 -1 -237.5996 -239.9004)" gradientUnits="userSpaceOnUse">
		<stop  offset="0.14" style="stop-color:#AEAEAE"/>
		<stop  offset="0.96" style="stop-color:#CBCBCB"/>
	</radialGradient>
	<path fill="url(#SVGID_3_)" d="M61.991,104.501c0-3.063,0-14,0-14c0-4.412-3.589-8.001-8.001-8.001c0,0-41.966,0-41.989,0
		c0-4.076,0-40.923,0-45c0.023,0,41.989,0,41.989,0c4.412,0,8.001-3.589,8.001-8.001c0,0,0-10.938,0-14c3.405,0,31.594,0,35,0
		c0,3.063,0,14,0,14c0,4.412,3.589,8.001,7.999,8.001c0,0,1.566,0,3.01,0c0,3.524,0,41.475,0,45c-1.443,0-3.01,0-3.01,0
		c-4.41,0-7.999,3.589-7.999,8.001c0,0,0,10.938,0,14C93.585,104.501,65.396,104.501,61.991,104.501"/>
	<path fill="#4E4E4E" d="M12.014,55.468v-4h49.987c1.103,0,1.999,0.896,1.999,2c0,1.103-0.896,2.001-1.999,2.001H12.014"/>
	<path fill="#FFFFFF" d="M62.001,54.468H12.014v-2.001h49.987c0.552,0,0.999,0.448,0.999,1C63,54.019,62.553,54.468,62.001,54.468
		L62.001,54.468z"/>
	<path fill-opacity="0.1" d="M81.96,102.539c-1.104,0-2.001-0.895-2.001-2V67.264c0,0,0-7.155,0-7.187
		c-0.003-0.085-0.021-0.641-0.021-0.641c-0.002-0.022-0.002-0.043-0.002-0.066v-0.014c0-0.047-0.011-0.149-0.021-0.239l-0.021-0.204
		l0.002,0.011c0,0-0.02-0.189-0.027-0.266c-0.004-0.018-0.01-0.043-0.01-0.043s-0.012-0.061-0.022-0.115c0,0.001,0,0.003,0,0.003
		s-0.004-0.024-0.006-0.031c0,0.003,0.003,0.008,0.003,0.011c-0.001-0.006-0.001-0.009-0.003-0.016
		c-0.002-0.004-0.003-0.014-0.005-0.022v-0.002c0-0.003-0.002-0.006-0.002-0.009v-0.003v0.001c-0.014-0.08-0.041-0.214-0.041-0.214
		l-0.024-0.138c0,0,0.003,0.009,0.007,0.019c-0.012-0.04-0.033-0.11-0.039-0.136c-0.146-0.589-0.365-1.108-0.664-1.588
		s-0.692-0.934-1.168-1.342c-0.525-0.453-1.121-0.847-1.765-1.166c-0.748-0.375-1.521-0.677-2.31-0.901
		c-0.004-0.002-0.008-0.003-0.012-0.003c-0.422-0.123-0.841-0.228-1.248-0.308c-0.008-0.001-0.559-0.103-0.623-0.113
		c-0.056-0.008-0.272-0.037-0.293-0.04h-0.002c0.01,0.001,0.021,0.003,0.021,0.003s-0.019-0.001-0.024-0.003
		c-0.232,0-25.121,0-28.603,0c0,2.192,0,5.623,0,5.844c0.016,0.123,0.022,0.248,0.022,0.372c0,1.698-1.382,3.08-3.08,3.08
		c-0.879,0-1.709-0.375-2.289-1.019c-0.399-0.292-16.356-12.058-16.473-12.144c-0.903-0.559-1.456-1.541-1.456-2.616
		c0-1.092,0.57-2.088,1.499-2.642c1.36-1.016,14.625-10.913,16.446-12.271c0.58-0.631,1.403-1,2.272-1
		c1.697,0,3.08,1.382,3.08,3.082c0,0.123-0.008,0.247-0.022,0.368c0,0.119,0,4.507,0,6.896c3.5,0,28.932,0,28.932,0h0.184
		c0.064,0,0.131,0.003,0.195,0.009l0.114,0.011l0.36,0.035c0.016,0.002,0.031,0.003,0.047,0.005l0.293,0.035
		c0.013,0.002,0.025,0.003,0.039,0.005l0.557,0.079c0.008,0.001,0.018,0.003,0.025,0.005c0.377,0.059,0.754,0.126,1.152,0.207
		c0.739,0.146,1.475,0.327,2.242,0.551c1.495,0.431,2.975,1.009,4.385,1.718c1.514,0.759,2.932,1.703,4.207,2.803
		c1.396,1.203,2.582,2.58,3.523,4.094c0.938,1.5,1.665,3.224,2.107,4.979c0.106,0.376,0.172,0.729,0.229,1.04l0.048,0.253
		l0.004,0.022l0.026,0.144l0.089,0.513c0.008,0.038,0.003,0.019,0.008,0.058l0.063,0.573c0,0.005,0.021,0.168,0.021,0.168
		c0.038,0.353,0.083,0.751,0.091,1.169l-0.002-0.043l0.02,0.563l0.01,0.285c0,0.002,0,0.002,0,0.002v-0.021c0,0,0,0,0,0.001
		l0.006,0.306v0.04v7.203v33.275c0,1.105-0.895,2-2,2H81.96 M79.833,58.496c0-0.001,0-0.001,0-0.003
		C79.833,58.495,79.833,58.495,79.833,58.496 M79.768,58.118c-0.002-0.003-0.002-0.006-0.004-0.01
		C79.766,58.112,79.768,58.118,79.768,58.118 M21.147,43.458c0.001,0,0.003-0.001,0.005-0.003L21.147,43.458"/>
	<path fill="#015911" d="M79.96,100.539c-1.104,0-2.001-0.895-2.001-2V65.264c0,0,0-7.155,0-7.187
		c-0.003-0.085-0.021-0.641-0.021-0.641c-0.002-0.022-0.002-0.043-0.002-0.066v-0.014c0-0.047-0.011-0.149-0.021-0.239l-0.021-0.204
		l0.002,0.011c0,0-0.02-0.189-0.027-0.266c-0.004-0.018-0.01-0.043-0.01-0.043s-0.012-0.061-0.022-0.115c0,0.001,0,0.003,0,0.003
		s-0.004-0.024-0.006-0.031c0,0.003,0.003,0.008,0.003,0.011c-0.001-0.006-0.001-0.009-0.003-0.016
		c-0.002-0.004-0.003-0.014-0.005-0.022v-0.002c0-0.003-0.002-0.006-0.002-0.009v-0.003v0.001c-0.014-0.08-0.041-0.214-0.041-0.214
		l-0.024-0.138c0,0,0.003,0.009,0.007,0.019c-0.012-0.04-0.033-0.11-0.039-0.136c-0.146-0.589-0.365-1.108-0.664-1.588
		s-0.692-0.934-1.168-1.342c-0.525-0.453-1.121-0.847-1.765-1.166c-0.748-0.375-1.521-0.677-2.31-0.901
		c-0.004-0.002-0.008-0.003-0.012-0.003c-0.422-0.123-0.841-0.228-1.248-0.308c-0.008-0.001-0.559-0.103-0.623-0.113
		c-0.056-0.008-0.272-0.037-0.293-0.04h-0.002c0.01,0.001,0.021,0.003,0.021,0.003s-0.019-0.001-0.024-0.003
		c-0.232,0-25.121,0-28.603,0c0,2.192,0,5.623,0,5.844c0.016,0.123,0.022,0.248,0.022,0.372c0,1.698-1.382,3.08-3.08,3.08
		c-0.879,0-1.709-0.375-2.289-1.017c-0.399-0.293-16.356-12.059-16.473-12.146c-0.903-0.559-1.456-1.541-1.456-2.616
		c0-1.092,0.57-2.088,1.499-2.642c1.36-1.016,14.625-10.913,16.446-12.271c0.58-0.631,1.403-1,2.272-1
		c1.697,0,3.08,1.382,3.08,3.082c0,0.123-0.008,0.247-0.022,0.368c0,0.119,0,4.507,0,6.896c3.5,0,28.932,0,28.932,0h0.184
		c0.064,0,0.131,0.003,0.195,0.009l0.114,0.011l0.36,0.035c0.016,0.002,0.031,0.003,0.047,0.005l0.293,0.035
		c0.013,0.002,0.025,0.003,0.039,0.005l0.557,0.079c0.008,0.001,0.018,0.003,0.025,0.005c0.377,0.059,0.754,0.126,1.152,0.207
		c0.739,0.146,1.475,0.327,2.242,0.551c1.495,0.431,2.975,1.009,4.385,1.718c1.514,0.759,2.932,1.703,4.207,2.803
		c1.396,1.203,2.582,2.58,3.523,4.094c0.938,1.5,1.665,3.224,2.107,4.979c0.106,0.376,0.172,0.729,0.229,1.04l0.048,0.253
		l0.004,0.022l0.026,0.144l0.089,0.513c0.008,0.038,0.003,0.019,0.008,0.058l0.063,0.573c0,0.005,0.021,0.168,0.021,0.168
		c0.038,0.353,0.083,0.751,0.091,1.169l-0.002-0.043l0.02,0.563l0.01,0.285c0,0.002,0,0.002,0,0.002v-0.021c0,0,0,0,0,0.001
		l0.006,0.306v0.04v7.203v33.275c0,1.105-0.895,2-2,2H79.96 M77.833,56.496c0-0.001,0-0.001,0-0.003
		C77.833,56.495,77.833,56.495,77.833,56.496 M77.768,56.118c-0.002-0.003-0.002-0.006-0.004-0.01
		C77.766,56.112,77.768,56.118,77.768,56.118 M19.147,41.458c0.001,0,0.003-0.001,0.005-0.003L19.147,41.458"/>
	<g>
		
			<linearGradient id="SVGID_4_" gradientUnits="userSpaceOnUse" x1="291.4844" y1="-338.439" x2="291.4844" y2="-270.0063" gradientTransform="matrix(1 0 0 -1 -237.5996 -239.9004)">
			<stop  offset="0" style="stop-color:#00DF34"/>
			<stop  offset="0.1758" style="stop-color:#00CD26"/>
			<stop  offset="0.4969" style="stop-color:#00B211"/>
			<stop  offset="0.782" style="stop-color:#00A204"/>
			<stop  offset="1" style="stop-color:#009C00"/>
		</linearGradient>
		<path fill="url(#SVGID_4_)" d="M79.96,98.539V65.264v-7.203l-0.022-0.69c0.002-0.228-0.033-0.439-0.055-0.653l-0.033-0.322
			c-0.015-0.106-0.039-0.205-0.058-0.308c-0.044-0.204-0.063-0.417-0.129-0.607c-0.196-0.792-0.498-1.509-0.906-2.164
			c-0.409-0.655-0.929-1.254-1.557-1.797c-0.63-0.54-1.358-1.033-2.183-1.443c-0.82-0.412-1.715-0.767-2.65-1.034
			c-0.467-0.136-0.943-0.255-1.42-0.349c-0.236-0.048-0.475-0.091-0.706-0.128l-0.339-0.046l-0.144-0.018h-32.63v-8.049h32.836
			h0.184l0.113,0.011l0.364,0.035l0.292,0.035l0.557,0.079c0.359,0.056,0.713,0.12,1.063,0.19c0.7,0.14,1.392,0.311,2.075,0.511
			c1.371,0.394,2.723,0.919,4.048,1.585c1.321,0.663,2.61,1.505,3.8,2.53c1.188,1.023,2.27,2.25,3.13,3.634
			c0.861,1.38,1.492,2.908,1.875,4.444c0.114,0.384,0.173,0.769,0.247,1.155c0.035,0.192,0.075,0.384,0.104,0.577l0.063,0.573
			c0.042,0.381,0.092,0.767,0.098,1.14l0.019,0.564l0.01,0.283c0.003,0.093,0.007,0.194,0.005,0.261v7.202v33.276L79.96,98.539
			L79.96,98.539z M37.409,57.564L20.342,44.981l-0.082-1.859l17.172-12.809l1.602,1.166v25.027L37.409,57.564L37.409,57.564z
			 M37.976,32.267c-0.598,0-1.081-0.484-1.081-1.08c0-0.598,0.483-1.081,1.081-1.081c0.596,0,1.079,0.483,1.079,1.081
			C39.055,31.783,38.572,32.267,37.976,32.267L37.976,32.267z M37.976,57.796c-0.598,0-1.081-0.483-1.081-1.079
			c0-0.598,0.483-1.081,1.081-1.081c0.596,0,1.079,0.483,1.079,1.081C39.055,57.313,38.572,57.796,37.976,57.796L37.976,57.796z
			 M20.838,45.098c-0.596,0-1.079-0.483-1.079-1.08c0-0.597,0.483-1.079,1.079-1.079c0.598,0,1.081,0.482,1.081,1.079
			C21.919,44.615,21.436,45.098,20.838,45.098L20.838,45.098z"/>
	</g>
</g>
<g id="kia">
	<path fill="#7B7B7B" d="M104.99,84.5c-3.313,0-5.999,2.688-5.999,6.001v14h-39v-14c0-3.313-2.686-6.001-6-6.001h-42v-49h42
		c3.314,0,6-2.687,6-6v-14h39v14c0,3.314,2.687,6,5.999,6H108v49H104.99L104.99,84.5z"/>
	
		<radialGradient id="SVGID_5_" cx="297.6006" cy="-299.9004" r="46.2831" gradientTransform="matrix(1 0 0 -1 -237.5996 -239.9004)" gradientUnits="userSpaceOnUse">
		<stop  offset="0.14" style="stop-color:#AEAEAE"/>
		<stop  offset="0.96" style="stop-color:#CBCBCB"/>
	</radialGradient>
	<path fill="url(#SVGID_5_)" d="M61.991,104.501c0-3.063,0-14,0-14c0-4.412-3.589-8.001-8.001-8.001c0,0-41.966,0-41.989,0
		c0-4.076,0-40.923,0-45c0.023,0,41.989,0,41.989,0c4.412,0,8.001-3.589,8.001-8.001c0,0,0-10.938,0-14c3.405,0,31.594,0,35,0
		c0,3.063,0,14,0,14c0,4.412,3.589,8.001,7.999,8.001c0,0,1.566,0,3.01,0c0,3.524,0,41.475,0,45c-1.443,0-3.01,0-3.01,0
		c-4.41,0-7.999,3.589-7.999,8.001c0,0,0,10.938,0,14C93.585,104.501,65.396,104.501,61.991,104.501"/>
	<path fill="#4E4E4E" d="M12.014,55.468v-4h49.987c1.103,0,1.999,0.896,1.999,2c0,1.103-0.896,2.001-1.999,2.001H12.014"/>
	<path fill="#FFFFFF" d="M62.001,54.468H12.014v-2.001h49.987c0.552,0,0.999,0.448,0.999,1C63,54.019,62.553,54.468,62.001,54.468
		L62.001,54.468z"/>
	<path fill-opacity="0.1" d="M81.96,102.539c-1.104,0-2.001-0.895-2.001-2V67.264c0,0,0-7.155,0-7.187
		c-0.003-0.085-0.021-0.641-0.021-0.641c-0.002-0.022-0.002-0.043-0.002-0.066v-0.014c0-0.047-0.011-0.149-0.021-0.239l-0.021-0.204
		l0.002,0.011c0,0-0.02-0.189-0.027-0.266c-0.004-0.018-0.01-0.043-0.01-0.043s-0.012-0.061-0.022-0.115c0,0.001,0,0.003,0,0.003
		s-0.004-0.024-0.006-0.031c0,0.003,0.003,0.008,0.003,0.011c-0.001-0.006-0.001-0.009-0.003-0.016
		c-0.002-0.004-0.003-0.014-0.005-0.022v-0.002c0-0.003-0.002-0.006-0.002-0.009v-0.003v0.001c-0.014-0.08-0.041-0.214-0.041-0.214
		l-0.024-0.138c0,0,0.003,0.009,0.007,0.019c-0.012-0.04-0.033-0.11-0.039-0.136c-0.146-0.589-0.365-1.108-0.664-1.588
		s-0.692-0.934-1.168-1.342c-0.525-0.453-1.121-0.847-1.765-1.166c-0.748-0.375-1.521-0.677-2.31-0.901
		c-0.004-0.002-0.008-0.003-0.012-0.003c-0.422-0.123-0.841-0.228-1.248-0.308c-0.008-0.001-0.559-0.103-0.623-0.113
		c-0.056-0.008-0.272-0.037-0.293-0.04h-0.002c0.01,0.001,0.021,0.003,0.021,0.003s-0.019-0.001-0.024-0.003
		c-0.232,0-25.121,0-28.603,0c0,2.192,0,5.623,0,5.844c0.016,0.123,0.022,0.248,0.022,0.372c0,1.698-1.382,3.08-3.08,3.08
		c-0.879,0-1.709-0.375-2.289-1.019c-0.399-0.292-16.356-12.058-16.473-12.144c-0.903-0.559-1.456-1.541-1.456-2.616
		c0-1.092,0.57-2.088,1.499-2.642c1.36-1.016,14.625-10.913,16.446-12.271c0.58-0.631,1.403-1,2.272-1
		c1.697,0,3.08,1.382,3.08,3.082c0,0.123-0.008,0.247-0.022,0.368c0,0.119,0,4.507,0,6.896c3.5,0,28.932,0,28.932,0h0.184
		c0.064,0,0.131,0.003,0.195,0.009l0.114,0.011l0.36,0.035c0.016,0.002,0.031,0.003,0.047,0.005l0.293,0.035
		c0.013,0.002,0.025,0.003,0.039,0.005l0.557,0.079c0.008,0.001,0.018,0.003,0.025,0.005c0.377,0.059,0.754,0.126,1.152,0.207
		c0.739,0.146,1.475,0.327,2.242,0.551c1.495,0.431,2.975,1.009,4.385,1.718c1.514,0.759,2.932,1.703,4.207,2.803
		c1.396,1.203,2.582,2.58,3.523,4.094c0.938,1.5,1.665,3.224,2.107,4.979c0.106,0.376,0.172,0.729,0.229,1.04l0.048,0.253
		l0.004,0.022l0.026,0.144l0.089,0.513c0.008,0.038,0.003,0.019,0.008,0.058l0.063,0.573c0,0.005,0.021,0.168,0.021,0.168
		c0.038,0.353,0.083,0.751,0.091,1.169l-0.002-0.043l0.02,0.563l0.01,0.285c0,0.002,0,0.002,0,0.002v-0.021c0,0,0,0,0,0.001
		l0.006,0.306v0.04v7.203v33.275c0,1.105-0.895,2-2,2H81.96 M79.833,58.496c0-0.001,0-0.001,0-0.003
		C79.833,58.495,79.833,58.495,79.833,58.496 M79.768,58.118c-0.002-0.003-0.002-0.006-0.004-0.01
		C79.766,58.112,79.768,58.118,79.768,58.118 M21.147,43.458c0.001,0,0.003-0.001,0.005-0.003L21.147,43.458"/>
	<path fill="#eeb422" d="M79.96,100.539c-1.104,0-2.001-0.895-2.001-2V65.264c0,0,0-7.155,0-7.187
		c-0.003-0.085-0.021-0.641-0.021-0.641c-0.002-0.022-0.002-0.043-0.002-0.066v-0.014c0-0.047-0.011-0.149-0.021-0.239l-0.021-0.204
		l0.002,0.011c0,0-0.02-0.189-0.027-0.266c-0.004-0.018-0.01-0.043-0.01-0.043s-0.012-0.061-0.022-0.115c0,0.001,0,0.003,0,0.003
		s-0.004-0.024-0.006-0.031c0,0.003,0.003,0.008,0.003,0.011c-0.001-0.006-0.001-0.009-0.003-0.016
		c-0.002-0.004-0.003-0.014-0.005-0.022v-0.002c0-0.003-0.002-0.006-0.002-0.009v-0.003v0.001c-0.014-0.08-0.041-0.214-0.041-0.214
		l-0.024-0.138c0,0,0.003,0.009,0.007,0.019c-0.012-0.04-0.033-0.11-0.039-0.136c-0.146-0.589-0.365-1.108-0.664-1.588
		s-0.692-0.934-1.168-1.342c-0.525-0.453-1.121-0.847-1.765-1.166c-0.748-0.375-1.521-0.677-2.31-0.901
		c-0.004-0.002-0.008-0.003-0.012-0.003c-0.422-0.123-0.841-0.228-1.248-0.308c-0.008-0.001-0.559-0.103-0.623-0.113
		c-0.056-0.008-0.272-0.037-0.293-0.04h-0.002c0.01,0.001,0.021,0.003,0.021,0.003s-0.019-0.001-0.024-0.003
		c-0.232,0-25.121,0-28.603,0c0,2.192,0,5.623,0,5.844c0.016,0.123,0.022,0.248,0.022,0.372c0,1.698-1.382,3.08-3.08,3.08
		c-0.879,0-1.709-0.375-2.289-1.017c-0.399-0.293-16.356-12.059-16.473-12.146c-0.903-0.559-1.456-1.541-1.456-2.616
		c0-1.092,0.57-2.088,1.499-2.642c1.36-1.016,14.625-10.913,16.446-12.271c0.58-0.631,1.403-1,2.272-1
		c1.697,0,3.08,1.382,3.08,3.082c0,0.123-0.008,0.247-0.022,0.368c0,0.119,0,4.507,0,6.896c3.5,0,28.932,0,28.932,0h0.184
		c0.064,0,0.131,0.003,0.195,0.009l0.114,0.011l0.36,0.035c0.016,0.002,0.031,0.003,0.047,0.005l0.293,0.035
		c0.013,0.002,0.025,0.003,0.039,0.005l0.557,0.079c0.008,0.001,0.018,0.003,0.025,0.005c0.377,0.059,0.754,0.126,1.152,0.207
		c0.739,0.146,1.475,0.327,2.242,0.551c1.495,0.431,2.975,1.009,4.385,1.718c1.514,0.759,2.932,1.703,4.207,2.803
		c1.396,1.203,2.582,2.58,3.523,4.094c0.938,1.5,1.665,3.224,2.107,4.979c0.106,0.376,0.172,0.729,0.229,1.04l0.048,0.253
		l0.004,0.022l0.026,0.144l0.089,0.513c0.008,0.038,0.003,0.019,0.008,0.058l0.063,0.573c0,0.005,0.021,0.168,0.021,0.168
		c0.038,0.353,0.083,0.751,0.091,1.169l-0.002-0.043l0.02,0.563l0.01,0.285c0,0.002,0,0.002,0,0.002v-0.021c0,0,0,0,0,0.001
		l0.006,0.306v0.04v7.203v33.275c0,1.105-0.895,2-2,2H79.96 M77.833,56.496c0-0.001,0-0.001,0-0.003
		C77.833,56.495,77.833,56.495,77.833,56.496 M77.768,56.118c-0.002-0.003-0.002-0.006-0.004-0.01
		C77.766,56.112,77.768,56.118,77.768,56.118 M19.147,41.458c0.001,0,0.003-0.001,0.005-0.003L19.147,41.458"/>
	<g>
		
			<linearGradient id="SVGID_6_" gradientUnits="userSpaceOnUse" x1="291.4844" y1="-338.439" x2="291.4844" y2="-270.0063" gradientTransform="matrix(1 0 0 -1 -237.5996 -239.9004)">
			<stop  offset="0" style="stop-color:#FFFFFF"/>
			<stop  offset="0.1758" style="stop-color:#E7E9EA"/>
			<stop  offset="0.4969" style="stop-color:#CDD2D5"/>
			<stop  offset="0.782" style="stop-color:#C5CACC"/>
			<stop  offset="1" style="stop-color:#BABDC0"/>
		</linearGradient>
		<path fill="url(#SVGID_6_)" d="M79.96,98.539V65.264v-7.203l-0.022-0.69c0.002-0.228-0.033-0.439-0.055-0.653l-0.033-0.322
			c-0.015-0.106-0.039-0.205-0.058-0.308c-0.044-0.204-0.063-0.417-0.129-0.607c-0.196-0.792-0.498-1.509-0.906-2.164
			c-0.409-0.655-0.929-1.254-1.557-1.797c-0.63-0.54-1.358-1.033-2.183-1.443c-0.82-0.412-1.715-0.767-2.65-1.034
			c-0.467-0.136-0.943-0.255-1.42-0.349c-0.236-0.048-0.475-0.091-0.706-0.128l-0.339-0.046l-0.144-0.018h-32.63v-8.049h32.836
			h0.184l0.113,0.011l0.364,0.035l0.292,0.035l0.557,0.079c0.359,0.056,0.713,0.12,1.063,0.19c0.7,0.14,1.392,0.311,2.075,0.511
			c1.371,0.394,2.723,0.919,4.048,1.585c1.321,0.663,2.61,1.505,3.8,2.53c1.188,1.023,2.27,2.25,3.13,3.634
			c0.861,1.38,1.492,2.908,1.875,4.444c0.114,0.384,0.173,0.769,0.247,1.155c0.035,0.192,0.075,0.384,0.104,0.577l0.063,0.573
			c0.042,0.381,0.092,0.767,0.098,1.14l0.019,0.564l0.01,0.283c0.003,0.093,0.007,0.194,0.005,0.261v7.202v33.276L79.96,98.539
			L79.96,98.539z M37.409,57.564L20.342,44.981l-0.082-1.859l17.172-12.809l1.602,1.166v25.027L37.409,57.564L37.409,57.564z
			 M37.976,32.267c-0.598,0-1.081-0.484-1.081-1.08c0-0.598,0.483-1.081,1.081-1.081c0.596,0,1.079,0.483,1.079,1.081
			C39.055,31.783,38.572,32.267,37.976,32.267L37.976,32.267z M37.976,57.796c-0.598,0-1.081-0.483-1.081-1.079
			c0-0.598,0.483-1.081,1.081-1.081c0.596,0,1.079,0.483,1.079,1.081C39.055,57.313,38.572,57.796,37.976,57.796L37.976,57.796z
			 M20.838,45.098c-0.596,0-1.079-0.483-1.079-1.08c0-0.597,0.483-1.079,1.079-1.079c0.598,0,1.081,0.482,1.081,1.079
			C21.919,44.615,21.436,45.098,20.838,45.098L20.838,45.098z"/>
	</g>
</g>
<g id="orange">
	<path fill="#7B7B7B" d="M104.99,84.5c-3.313,0-5.999,2.688-5.999,6.001v14h-39v-14c0-3.313-2.686-6.001-6-6.001h-42v-49h42
		c3.314,0,6-2.687,6-6v-14h39v14c0,3.314,2.687,6,5.999,6H108v49H104.99L104.99,84.5z"/>
	
		<radialGradient id="SVGID_7_" cx="297.6006" cy="-299.9004" r="46.2831" gradientTransform="matrix(1 0 0 -1 -237.5996 -239.9004)" gradientUnits="userSpaceOnUse">
		<stop  offset="0.14" style="stop-color:#AEAEAE"/>
		<stop  offset="0.96" style="stop-color:#CBCBCB"/>
	</radialGradient>
	<path fill="url(#SVGID_7_)" d="M61.991,104.501c0-3.063,0-14,0-14c0-4.412-3.589-8.001-8.001-8.001c0,0-41.966,0-41.989,0
		c0-4.076,0-40.923,0-45c0.023,0,41.989,0,41.989,0c4.412,0,8.001-3.589,8.001-8.001c0,0,0-10.938,0-14c3.405,0,31.594,0,35,0
		c0,3.063,0,14,0,14c0,4.412,3.589,8.001,7.999,8.001c0,0,1.566,0,3.01,0c0,3.524,0,41.475,0,45c-1.443,0-3.01,0-3.01,0
		c-4.41,0-7.999,3.589-7.999,8.001c0,0,0,10.938,0,14C93.585,104.501,65.396,104.501,61.991,104.501"/>
	<path fill="#4E4E4E" d="M12.014,55.468v-4h49.987c1.103,0,1.999,0.896,1.999,2c0,1.103-0.896,2.001-1.999,2.001H12.014"/>
	<path fill="#FFFFFF" d="M62.001,54.468H12.014v-2.001h49.987c0.552,0,0.999,0.448,0.999,1C63,54.019,62.553,54.468,62.001,54.468
		L62.001,54.468z"/>
	<path fill-opacity="0.1" d="M81.96,102.539c-1.104,0-2.001-0.895-2.001-2V67.264c0,0,0-7.155,0-7.187
		c-0.003-0.085-0.021-0.641-0.021-0.641c-0.002-0.022-0.002-0.043-0.002-0.066v-0.014c0-0.047-0.011-0.149-0.021-0.239l-0.021-0.204
		l0.002,0.011c0,0-0.02-0.189-0.027-0.266c-0.004-0.018-0.01-0.043-0.01-0.043s-0.012-0.061-0.022-0.115c0,0.001,0,0.003,0,0.003
		s-0.004-0.024-0.006-0.031c0,0.003,0.003,0.008,0.003,0.011c-0.001-0.006-0.001-0.009-0.003-0.016
		c-0.002-0.004-0.003-0.014-0.005-0.022v-0.002c0-0.003-0.002-0.006-0.002-0.009v-0.003v0.001c-0.014-0.08-0.041-0.214-0.041-0.214
		l-0.024-0.138c0,0,0.003,0.009,0.007,0.019c-0.012-0.04-0.033-0.11-0.039-0.136c-0.146-0.589-0.365-1.108-0.664-1.588
		s-0.692-0.934-1.168-1.342c-0.525-0.453-1.121-0.847-1.765-1.166c-0.748-0.375-1.521-0.677-2.31-0.901
		c-0.004-0.002-0.008-0.003-0.012-0.003c-0.422-0.123-0.841-0.228-1.248-0.308c-0.008-0.001-0.559-0.103-0.623-0.113
		c-0.056-0.008-0.272-0.037-0.293-0.04h-0.002c0.01,0.001,0.021,0.003,0.021,0.003s-0.019-0.001-0.024-0.003
		c-0.232,0-25.121,0-28.603,0c0,2.192,0,5.623,0,5.844c0.016,0.123,0.022,0.248,0.022,0.372c0,1.698-1.382,3.08-3.08,3.08
		c-0.879,0-1.709-0.375-2.289-1.019c-0.399-0.292-16.356-12.058-16.473-12.144c-0.903-0.559-1.456-1.541-1.456-2.616
		c0-1.092,0.57-2.088,1.499-2.642c1.36-1.016,14.625-10.913,16.446-12.271c0.58-0.631,1.403-1,2.272-1
		c1.697,0,3.08,1.382,3.08,3.082c0,0.123-0.008,0.247-0.022,0.368c0,0.119,0,4.507,0,6.896c3.5,0,28.932,0,28.932,0h0.184
		c0.064,0,0.131,0.003,0.195,0.009l0.114,0.011l0.36,0.035c0.016,0.002,0.031,0.003,0.047,0.005l0.293,0.035
		c0.013,0.002,0.025,0.003,0.039,0.005l0.557,0.079c0.008,0.001,0.018,0.003,0.025,0.005c0.377,0.059,0.754,0.126,1.152,0.207
		c0.739,0.146,1.475,0.327,2.242,0.551c1.495,0.431,2.975,1.009,4.385,1.718c1.514,0.759,2.932,1.703,4.207,2.803
		c1.396,1.203,2.582,2.58,3.523,4.094c0.938,1.5,1.665,3.224,2.107,4.979c0.106,0.376,0.172,0.729,0.229,1.04l0.048,0.253
		l0.004,0.022l0.026,0.144l0.089,0.513c0.008,0.038,0.003,0.019,0.008,0.058l0.063,0.573c0,0.005,0.021,0.168,0.021,0.168
		c0.038,0.353,0.083,0.751,0.091,1.169l-0.002-0.043l0.02,0.563l0.01,0.285c0,0.002,0,0.002,0,0.002v-0.021c0,0,0,0,0,0.001
		l0.006,0.306v0.04v7.203v33.275c0,1.105-0.895,2-2,2H81.96 M79.833,58.496c0-0.001,0-0.001,0-0.003
		C79.833,58.495,79.833,58.495,79.833,58.496 M79.768,58.118c-0.002-0.003-0.002-0.006-0.004-0.01
		C79.766,58.112,79.768,58.118,79.768,58.118 M21.147,43.458c0.001,0,0.003-0.001,0.005-0.003L21.147,43.458"/>
	<path fill="#eeb422" d="M79.96,100.539c-1.104,0-2.001-0.895-2.001-2V65.264c0,0,0-7.155,0-7.187
		c-0.003-0.085-0.021-0.641-0.021-0.641c-0.002-0.022-0.002-0.043-0.002-0.066v-0.014c0-0.047-0.011-0.149-0.021-0.239l-0.021-0.204
		l0.002,0.011c0,0-0.02-0.189-0.027-0.266c-0.004-0.018-0.01-0.043-0.01-0.043s-0.012-0.061-0.022-0.115c0,0.001,0,0.003,0,0.003
		s-0.004-0.024-0.006-0.031c0,0.003,0.003,0.008,0.003,0.011c-0.001-0.006-0.001-0.009-0.003-0.016
		c-0.002-0.004-0.003-0.014-0.005-0.022v-0.002c0-0.003-0.002-0.006-0.002-0.009v-0.003v0.001c-0.014-0.08-0.041-0.214-0.041-0.214
		l-0.024-0.138c0,0,0.003,0.009,0.007,0.019c-0.012-0.04-0.033-0.11-0.039-0.136c-0.146-0.589-0.365-1.108-0.664-1.588
		s-0.692-0.934-1.168-1.342c-0.525-0.453-1.121-0.847-1.765-1.166c-0.748-0.375-1.521-0.677-2.31-0.901
		c-0.004-0.002-0.008-0.003-0.012-0.003c-0.422-0.123-0.841-0.228-1.248-0.308c-0.008-0.001-0.559-0.103-0.623-0.113
		c-0.056-0.008-0.272-0.037-0.293-0.04h-0.002c0.01,0.001,0.021,0.003,0.021,0.003s-0.019-0.001-0.024-0.003
		c-0.232,0-25.121,0-28.603,0c0,2.192,0,5.623,0,5.844c0.016,0.123,0.022,0.248,0.022,0.372c0,1.698-1.382,3.08-3.08,3.08
		c-0.879,0-1.709-0.375-2.289-1.017c-0.399-0.293-16.356-12.059-16.473-12.146c-0.903-0.559-1.456-1.541-1.456-2.616
		c0-1.092,0.57-2.088,1.499-2.642c1.36-1.016,14.625-10.913,16.446-12.271c0.58-0.631,1.403-1,2.272-1
		c1.697,0,3.08,1.382,3.08,3.082c0,0.123-0.008,0.247-0.022,0.368c0,0.119,0,4.507,0,6.896c3.5,0,28.932,0,28.932,0h0.184
		c0.064,0,0.131,0.003,0.195,0.009l0.114,0.011l0.36,0.035c0.016,0.002,0.031,0.003,0.047,0.005l0.293,0.035
		c0.013,0.002,0.025,0.003,0.039,0.005l0.557,0.079c0.008,0.001,0.018,0.003,0.025,0.005c0.377,0.059,0.754,0.126,1.152,0.207
		c0.739,0.146,1.475,0.327,2.242,0.551c1.495,0.431,2.975,1.009,4.385,1.718c1.514,0.759,2.932,1.703,4.207,2.803
		c1.396,1.203,2.582,2.58,3.523,4.094c0.938,1.5,1.665,3.224,2.107,4.979c0.106,0.376,0.172,0.729,0.229,1.04l0.048,0.253
		l0.004,0.022l0.026,0.144l0.089,0.513c0.008,0.038,0.003,0.019,0.008,0.058l0.063,0.573c0,0.005,0.021,0.168,0.021,0.168
		c0.038,0.353,0.083,0.751,0.091,1.169l-0.002-0.043l0.02,0.563l0.01,0.285c0,0.002,0,0.002,0,0.002v-0.021c0,0,0,0,0,0.001
		l0.006,0.306v0.04v7.203v33.275c0,1.105-0.895,2-2,2H79.96 M77.833,56.496c0-0.001,0-0.001,0-0.003
		C77.833,56.495,77.833,56.495,77.833,56.496 M77.768,56.118c-0.002-0.003-0.002-0.006-0.004-0.01
		C77.766,56.112,77.768,56.118,77.768,56.118 M19.147,41.458c0.001,0,0.003-0.001,0.005-0.003L19.147,41.458"/>
	<g>
		
			<linearGradient id="SVGID_8_" gradientUnits="userSpaceOnUse" x1="291.4844" y1="-338.439" x2="291.4844" y2="-270.0063" gradientTransform="matrix(1 0 0 -1 -237.5996 -239.9004)">
			<stop  offset="0" style="stop-color:#FEDF34"/>
			<stop  offset="0.1758" style="stop-color:#FECD26"/>
			<stop  offset="0.4969" style="stop-color:#FFB211"/>
			<stop  offset="0.782" style="stop-color:#FFA204"/>
			<stop  offset="1" style="stop-color:#FF9C00"/>
		</linearGradient>
		<path fill="url(#SVGID_8_)" d="M79.96,98.539V65.264v-7.203l-0.022-0.69c0.002-0.228-0.033-0.439-0.055-0.653l-0.033-0.322
			c-0.015-0.106-0.039-0.205-0.058-0.308c-0.044-0.204-0.063-0.417-0.129-0.607c-0.196-0.792-0.498-1.509-0.906-2.164
			c-0.409-0.655-0.929-1.254-1.557-1.797c-0.63-0.54-1.358-1.033-2.183-1.443c-0.82-0.412-1.715-0.767-2.65-1.034
			c-0.467-0.136-0.943-0.255-1.42-0.349c-0.236-0.048-0.475-0.091-0.706-0.128l-0.339-0.046l-0.144-0.018h-32.63v-8.049h32.836
			h0.184l0.113,0.011l0.364,0.035l0.292,0.035l0.557,0.079c0.359,0.056,0.713,0.12,1.063,0.19c0.7,0.14,1.392,0.311,2.075,0.511
			c1.371,0.394,2.723,0.919,4.048,1.585c1.321,0.663,2.61,1.505,3.8,2.53c1.188,1.023,2.27,2.25,3.13,3.634
			c0.861,1.38,1.492,2.908,1.875,4.444c0.114,0.384,0.173,0.769,0.247,1.155c0.035,0.192,0.075,0.384,0.104,0.577l0.063,0.573
			c0.042,0.381,0.092,0.767,0.098,1.14l0.019,0.564l0.01,0.283c0.003,0.093,0.007,0.194,0.005,0.261v7.202v33.276L79.96,98.539
			L79.96,98.539z M37.409,57.564L20.342,44.981l-0.082-1.859l17.172-12.809l1.602,1.166v25.027L37.409,57.564L37.409,57.564z
			 M37.976,32.267c-0.598,0-1.081-0.484-1.081-1.08c0-0.598,0.483-1.081,1.081-1.081c0.596,0,1.079,0.483,1.079,1.081
			C39.055,31.783,38.572,32.267,37.976,32.267L37.976,32.267z M37.976,57.796c-0.598,0-1.081-0.483-1.081-1.079
			c0-0.598,0.483-1.081,1.081-1.081c0.596,0,1.079,0.483,1.079,1.081C39.055,57.313,38.572,57.796,37.976,57.796L37.976,57.796z
			 M20.838,45.098c-0.596,0-1.079-0.483-1.079-1.08c0-0.597,0.483-1.079,1.079-1.079c0.598,0,1.081,0.482,1.081,1.079
			C21.919,44.615,21.436,45.098,20.838,45.098L20.838,45.098z"/>
	</g>
</g>
<g id="red">
	<path fill="#7B7B7B" d="M104.99,84.5c-3.313,0-5.999,2.688-5.999,6.001v14h-39v-14c0-3.313-2.686-6.001-6-6.001h-42v-49h42
		c3.314,0,6-2.687,6-6v-14h39v14c0,3.314,2.687,6,5.999,6H108v49H104.99L104.99,84.5z"/>
	
		<radialGradient id="SVGID_9_" cx="297.6006" cy="-299.9004" r="46.2831" gradientTransform="matrix(1 0 0 -1 -237.5996 -239.9004)" gradientUnits="userSpaceOnUse">
		<stop  offset="0.14" style="stop-color:#AEAEAE"/>
		<stop  offset="0.96" style="stop-color:#CBCBCB"/>
	</radialGradient>
	<path fill="url(#SVGID_9_)" d="M61.991,104.501c0-3.063,0-14,0-14c0-4.412-3.589-8.001-8.001-8.001c0,0-41.966,0-41.989,0
		c0-4.076,0-40.923,0-45c0.023,0,41.989,0,41.989,0c4.412,0,8.001-3.589,8.001-8.001c0,0,0-10.938,0-14c3.405,0,31.594,0,35,0
		c0,3.063,0,14,0,14c0,4.412,3.589,8.001,7.999,8.001c0,0,1.566,0,3.01,0c0,3.524,0,41.475,0,45c-1.443,0-3.01,0-3.01,0
		c-4.41,0-7.999,3.589-7.999,8.001c0,0,0,10.938,0,14C93.585,104.501,65.396,104.501,61.991,104.501"/>
	<path fill="#4E4E4E" d="M12.014,55.468v-4h49.987c1.103,0,1.999,0.896,1.999,2c0,1.103-0.896,2.001-1.999,2.001H12.014"/>
	<path fill="#FFFFFF" d="M62.001,54.468H12.014v-2.001h49.987c0.552,0,0.999,0.448,0.999,1C63,54.019,62.553,54.468,62.001,54.468
		L62.001,54.468z"/>
	<path fill-opacity="0.1" d="M81.96,102.539c-1.104,0-2.001-0.895-2.001-2V67.264c0,0,0-7.155,0-7.187
		c-0.003-0.085-0.021-0.641-0.021-0.641c-0.002-0.022-0.002-0.043-0.002-0.066v-0.014c0-0.047-0.011-0.149-0.021-0.239l-0.021-0.204
		l0.002,0.011c0,0-0.02-0.189-0.027-0.266c-0.004-0.018-0.01-0.043-0.01-0.043s-0.012-0.061-0.022-0.115c0,0.001,0,0.003,0,0.003
		s-0.004-0.024-0.006-0.031c0,0.003,0.003,0.008,0.003,0.011c-0.001-0.006-0.001-0.009-0.003-0.016
		c-0.002-0.004-0.003-0.014-0.005-0.022v-0.002c0-0.003-0.002-0.006-0.002-0.009v-0.003v0.001c-0.014-0.08-0.041-0.214-0.041-0.214
		l-0.024-0.138c0,0,0.003,0.009,0.007,0.019c-0.012-0.04-0.033-0.11-0.039-0.136c-0.146-0.589-0.365-1.108-0.664-1.588
		s-0.692-0.934-1.168-1.342c-0.525-0.453-1.121-0.847-1.765-1.166c-0.748-0.375-1.521-0.677-2.31-0.901
		c-0.004-0.002-0.008-0.003-0.012-0.003c-0.422-0.123-0.841-0.228-1.248-0.308c-0.008-0.001-0.559-0.103-0.623-0.113
		c-0.056-0.008-0.272-0.037-0.293-0.04h-0.002c0.01,0.001,0.021,0.003,0.021,0.003s-0.019-0.001-0.024-0.003
		c-0.232,0-25.121,0-28.603,0c0,2.192,0,5.623,0,5.844c0.016,0.123,0.022,0.248,0.022,0.372c0,1.698-1.382,3.08-3.08,3.08
		c-0.879,0-1.709-0.375-2.289-1.019c-0.399-0.292-16.356-12.058-16.473-12.144c-0.903-0.559-1.456-1.541-1.456-2.616
		c0-1.092,0.57-2.088,1.499-2.642c1.36-1.016,14.625-10.913,16.446-12.271c0.58-0.631,1.403-1,2.272-1
		c1.697,0,3.08,1.382,3.08,3.082c0,0.123-0.008,0.247-0.022,0.368c0,0.119,0,4.507,0,6.896c3.5,0,28.932,0,28.932,0h0.184
		c0.064,0,0.131,0.003,0.195,0.009l0.114,0.011l0.36,0.035c0.016,0.002,0.031,0.003,0.047,0.005l0.293,0.035
		c0.013,0.002,0.025,0.003,0.039,0.005l0.557,0.079c0.008,0.001,0.018,0.003,0.025,0.005c0.377,0.059,0.754,0.126,1.152,0.207
		c0.739,0.146,1.475,0.327,2.242,0.551c1.495,0.431,2.975,1.009,4.385,1.718c1.514,0.759,2.932,1.703,4.207,2.803
		c1.396,1.203,2.582,2.58,3.523,4.094c0.938,1.5,1.665,3.224,2.107,4.979c0.106,0.376,0.172,0.729,0.229,1.04l0.048,0.253
		l0.004,0.022l0.026,0.144l0.089,0.513c0.008,0.038,0.003,0.019,0.008,0.058l0.063,0.573c0,0.005,0.021,0.168,0.021,0.168
		c0.038,0.353,0.083,0.751,0.091,1.169l-0.002-0.043l0.02,0.563l0.01,0.285c0,0.002,0,0.002,0,0.002v-0.021c0,0,0,0,0,0.001
		l0.006,0.306v0.04v7.203v33.275c0,1.105-0.895,2-2,2H81.96 M79.833,58.496c0-0.001,0-0.001,0-0.003
		C79.833,58.495,79.833,58.495,79.833,58.496 M79.768,58.118c-0.002-0.003-0.002-0.006-0.004-0.01
		C79.766,58.112,79.768,58.118,79.768,58.118 M21.147,43.458c0.001,0,0.003-0.001,0.005-0.003L21.147,43.458"/>
	<path fill="#940202" d="M79.96,100.539c-1.104,0-2.001-0.895-2.001-2V65.264c0,0,0-7.155,0-7.187
		c-0.003-0.085-0.021-0.641-0.021-0.641c-0.002-0.022-0.002-0.043-0.002-0.066v-0.014c0-0.047-0.011-0.149-0.021-0.239l-0.021-0.204
		l0.002,0.011c0,0-0.02-0.189-0.027-0.266c-0.004-0.018-0.01-0.043-0.01-0.043s-0.012-0.061-0.022-0.115c0,0.001,0,0.003,0,0.003
		s-0.004-0.024-0.006-0.031c0,0.003,0.003,0.008,0.003,0.011c-0.001-0.006-0.001-0.009-0.003-0.016
		c-0.002-0.004-0.003-0.014-0.005-0.022v-0.002c0-0.003-0.002-0.006-0.002-0.009v-0.003v0.001c-0.014-0.08-0.041-0.214-0.041-0.214
		l-0.024-0.138c0,0,0.003,0.009,0.007,0.019c-0.012-0.04-0.033-0.11-0.039-0.136c-0.146-0.589-0.365-1.108-0.664-1.588
		s-0.692-0.934-1.168-1.342c-0.525-0.453-1.121-0.847-1.765-1.166c-0.748-0.375-1.521-0.677-2.31-0.901
		c-0.004-0.002-0.008-0.003-0.012-0.003c-0.422-0.123-0.841-0.228-1.248-0.308c-0.008-0.001-0.559-0.103-0.623-0.113
		c-0.056-0.008-0.272-0.037-0.293-0.04h-0.002c0.01,0.001,0.021,0.003,0.021,0.003s-0.019-0.001-0.024-0.003
		c-0.232,0-25.121,0-28.603,0c0,2.192,0,5.623,0,5.844c0.016,0.123,0.022,0.248,0.022,0.372c0,1.698-1.382,3.08-3.08,3.08
		c-0.879,0-1.709-0.375-2.289-1.017c-0.399-0.293-16.356-12.059-16.473-12.146c-0.903-0.559-1.456-1.541-1.456-2.616
		c0-1.092,0.57-2.088,1.499-2.642c1.36-1.016,14.625-10.913,16.446-12.271c0.58-0.631,1.403-1,2.272-1
		c1.697,0,3.08,1.382,3.08,3.082c0,0.123-0.008,0.247-0.022,0.368c0,0.119,0,4.507,0,6.896c3.5,0,28.932,0,28.932,0h0.184
		c0.064,0,0.131,0.003,0.195,0.009l0.114,0.011l0.36,0.035c0.016,0.002,0.031,0.003,0.047,0.005l0.293,0.035
		c0.013,0.002,0.025,0.003,0.039,0.005l0.557,0.079c0.008,0.001,0.018,0.003,0.025,0.005c0.377,0.059,0.754,0.126,1.152,0.207
		c0.739,0.146,1.475,0.327,2.242,0.551c1.495,0.431,2.975,1.009,4.385,1.718c1.514,0.759,2.932,1.703,4.207,2.803
		c1.396,1.203,2.582,2.58,3.523,4.094c0.938,1.5,1.665,3.224,2.107,4.979c0.106,0.376,0.172,0.729,0.229,1.04l0.048,0.253
		l0.004,0.022l0.026,0.144l0.089,0.513c0.008,0.038,0.003,0.019,0.008,0.058l0.063,0.573c0,0.005,0.021,0.168,0.021,0.168
		c0.038,0.353,0.083,0.751,0.091,1.169l-0.002-0.043l0.02,0.563l0.01,0.285c0,0.002,0,0.002,0,0.002v-0.021c0,0,0,0,0,0.001
		l0.006,0.306v0.04v7.203v33.275c0,1.105-0.895,2-2,2H79.96 M77.833,56.496c0-0.001,0-0.001,0-0.003
		C77.833,56.495,77.833,56.495,77.833,56.496 M77.768,56.118c-0.002-0.003-0.002-0.006-0.004-0.01
		C77.766,56.112,77.768,56.118,77.768,56.118 M19.147,41.458c0.001,0,0.003-0.001,0.005-0.003L19.147,41.458"/>
	<g>
		
			<linearGradient id="SVGID_10_" gradientUnits="userSpaceOnUse" x1="291.4844" y1="-338.439" x2="291.4844" y2="-270.0063" gradientTransform="matrix(1 0 0 -1 -237.5996 -239.9004)">
			<stop  offset="0" style="stop-color:#FF0000"/>
			<stop  offset="0.1758" style="stop-color:#F60303"/>
			<stop  offset="0.4969" style="stop-color:#EC0404"/>
			<stop  offset="0.782" style="stop-color:#E30101"/>
			<stop  offset="1" style="stop-color:#D60202"/>
		</linearGradient>
		<path fill="url(#SVGID_10_)" d="M79.96,98.539V65.264v-7.203l-0.022-0.69c0.002-0.228-0.033-0.439-0.055-0.653l-0.033-0.322
			c-0.015-0.106-0.039-0.205-0.058-0.308c-0.044-0.204-0.063-0.417-0.129-0.607c-0.196-0.792-0.498-1.509-0.906-2.164
			c-0.409-0.655-0.929-1.254-1.557-1.797c-0.63-0.54-1.358-1.033-2.183-1.443c-0.82-0.412-1.715-0.767-2.65-1.034
			c-0.467-0.136-0.943-0.255-1.42-0.349c-0.236-0.048-0.475-0.091-0.706-0.128l-0.339-0.046l-0.144-0.018h-32.63v-8.049h32.836
			h0.184l0.113,0.011l0.364,0.035l0.292,0.035l0.557,0.079c0.359,0.056,0.713,0.12,1.063,0.19c0.7,0.14,1.392,0.311,2.075,0.511
			c1.371,0.394,2.723,0.919,4.048,1.585c1.321,0.663,2.61,1.505,3.8,2.53c1.188,1.023,2.27,2.25,3.13,3.634
			c0.861,1.38,1.492,2.908,1.875,4.444c0.114,0.384,0.173,0.769,0.247,1.155c0.035,0.192,0.075,0.384,0.104,0.577l0.063,0.573
			c0.042,0.381,0.092,0.767,0.098,1.14l0.019,0.564l0.01,0.283c0.003,0.093,0.007,0.194,0.005,0.261v7.202v33.276L79.96,98.539
			L79.96,98.539z M37.409,57.564L20.342,44.981l-0.082-1.859l17.172-12.809l1.602,1.166v25.027L37.409,57.564L37.409,57.564z
			 M37.976,32.267c-0.598,0-1.081-0.484-1.081-1.08c0-0.598,0.483-1.081,1.081-1.081c0.596,0,1.079,0.483,1.079,1.081
			C39.055,31.783,38.572,32.267,37.976,32.267L37.976,32.267z M37.976,57.796c-0.598,0-1.081-0.483-1.081-1.079
			c0-0.598,0.483-1.081,1.081-1.081c0.596,0,1.079,0.483,1.079,1.081C39.055,57.313,38.572,57.796,37.976,57.796L37.976,57.796z
			 M20.838,45.098c-0.596,0-1.079-0.483-1.079-1.08c0-0.597,0.483-1.079,1.079-1.079c0.598,0,1.081,0.482,1.081,1.079
			C21.919,44.615,21.436,45.098,20.838,45.098L20.838,45.098z"/>
	</g>
</g>
</svg>
