<?xml version="1.0" encoding="utf-8"?>
<!-- Generator: Adobe Illustrator 16.0.2, SVG Export Plug-In . SVG Version: 6.00 Build 0)  -->
<!DOCTYPE svg PUBLIC "-//W3C//DTD SVG 1.1//EN" "http://www.w3.org/Graphics/SVG/1.1/DTD/svg11.dtd">
<svg version="1.1" id="Layer_1" xmlns="http://www.w3.org/2000/svg" xmlns:xlink="http://www.w3.org/1999/xlink" x="0px" y="0px"
	 width="120px" height="120px" viewBox="0 0 120 120" enable-background="new 0 0 120 120" xml:space="preserve">
<g id="black_white">
	<path fill="#3A3A3A" d="M97.84,72.548L81.844,34.415c-0.596-1.42-2.554-1.557-3.341-0.234l-7.194,12.092L38.379,26.68
		c-1.683-1.159-3.719-1.84-5.916-1.84c-5.771,0-10.45,4.679-10.45,10.45v59.87h20.9V53.697l17.709,10.538l-7.267,12.211
		c-0.787,1.324,0.267,2.979,1.799,2.826l41.145-4.133C97.553,75.014,98.328,73.71,97.84,72.548z"/>
</g>
<g id="blue">
	<path fill-opacity="0.1" d="M20.989,100.915c-1.657,0-3-1.343-3-3V38.294c0-0.207,0.022-0.41,0.063-0.607
		c0.213-4.024,2.157-8.038,5.389-11.092c3.272-3.089,7.457-4.86,11.481-4.86c2.18,0,4.225,0.509,6.08,1.514
		c8.336,4.521,22.245,12.818,31.26,18.254c1.057-1.831,2.182-3.776,2.182-3.776c2.129-3.687,2.924-5.063,3.234-5.599
		c0.084-0.205,0.182-0.405,0.293-0.597c0.907-1.578,2.604-2.556,4.424-2.556c0.896,0,1.781,0.237,2.556,0.686
		c1.271,0.732,2.155,1.978,2.442,3.405c0.309,0.703,16.062,36.618,16.123,36.763c0.4,0.743,0.61,1.573,0.61,2.42
		c0,0.89-0.235,1.771-0.681,2.545c-0.898,1.56-2.566,2.533-4.364,2.556c-0.358,0.041-39.253,4.571-39.963,4.654
		c-0.514,0.168-1.057,0.255-1.597,0.255c-0.891,0-1.771-0.235-2.546-0.681c-1.578-0.911-2.554-2.605-2.554-4.426
		c0-0.896,0.237-1.78,0.685-2.555l-0.006,0.01c0.11-0.192,0.235-0.381,0.372-0.559c0.071-0.121,3.688-6.388,5.594-9.689
		c-3.7-1.922-8.784-4.586-14.062-7.43c0,8,0,40.986,0,40.986c0,1.657-1.342,3-3,3H20.989"/>
	<path fill="#00598C" d="M18.989,98.915c-1.657,0-3-1.343-3-3V36.294c0-0.207,0.022-0.41,0.063-0.607
		c0.213-4.024,2.157-8.038,5.389-11.092c3.272-3.089,7.457-4.86,11.481-4.86c2.18,0,4.225,0.509,6.08,1.514
		c8.336,4.521,22.245,12.818,31.26,18.254c1.057-1.831,2.182-3.776,2.182-3.776c2.129-3.687,2.924-5.063,3.234-5.599
		c0.084-0.205,0.182-0.405,0.293-0.597c0.907-1.578,2.604-2.556,4.424-2.556c0.896,0,1.781,0.237,2.556,0.686
		c1.271,0.732,2.155,1.978,2.442,3.405c0.309,0.703,16.062,36.618,16.123,36.763c0.4,0.743,0.61,1.573,0.61,2.42
		c0,0.89-0.235,1.771-0.681,2.545c-0.898,1.56-2.566,2.533-4.364,2.556c-0.358,0.041-39.253,4.571-39.963,4.654
		c-0.514,0.168-1.057,0.255-1.597,0.255c-0.891,0-1.771-0.235-2.546-0.681c-1.578-0.911-2.554-2.605-2.554-4.426
		c0-0.896,0.237-1.78,0.685-2.555l-0.006,0.01c0.11-0.192,0.235-0.381,0.372-0.559c0.071-0.121,3.688-6.388,5.594-9.689
		c-3.7-1.922-8.784-4.586-14.062-7.43c0,8,0,40.986,0,40.986c0,1.657-1.342,3-3,3H18.989"/>
	
		<linearGradient id="SVGID_1_" gradientUnits="userSpaceOnUse" x1="296.6582" y1="-335.8149" x2="296.6582" y2="-262.6338" gradientTransform="matrix(1 0 0 -1 -237.5996 -239.9004)">
		<stop  offset="0" style="stop-color:#48A2FB"/>
		<stop  offset="0.1758" style="stop-color:#059CF4"/>
		<stop  offset="0.4969" style="stop-color:#0398EF"/>
		<stop  offset="0.782" style="stop-color:#0293E7"/>
		<stop  offset="1" style="stop-color:#0189D8"/>
	</linearGradient>
	<path fill="url(#SVGID_1_)" d="M97.124,72.32l-41.535,4.836l-1.565-3.527l24.38-42.228l3.771-0.205l16.623,37.908L97.124,72.32
		L97.124,72.32z M57.346,76.204c-0.582,1.006-1.868,1.351-2.875,0.771c-1.005-0.582-1.35-1.867-0.769-2.875
		c0.58-1.006,1.867-1.351,2.873-0.769C57.581,73.91,57.925,75.197,57.346,76.204L57.346,76.204z M82.214,33.128
		c-0.58,1.007-1.866,1.352-2.873,0.77c-1.006-0.581-1.35-1.867-0.771-2.873c0.58-1.007,1.867-1.352,2.875-0.77
		C82.451,30.836,82.795,32.122,82.214,33.128L82.214,33.128z M98.844,71.295c-0.58,1.008-1.867,1.352-2.873,0.771
		c-1.007-0.582-1.352-1.867-0.771-2.873c0.579-1.006,1.868-1.353,2.874-0.771C99.079,69.003,99.424,70.289,98.844,71.295
		L98.844,71.295z M18.989,95.915V36.294l21.015-6.201v65.822H18.989L18.989,95.915z M65.566,63.363c0,0-46.537-23.625-46.537-26.932
		c0-9.095,10.947-16.665,18.542-12.546c12.455,6.753,37.917,22.293,37.917,22.293L65.566,63.363L65.566,63.363z"/>
	
		<linearGradient id="SVGID_2_" gradientUnits="userSpaceOnUse" x1="276.2852" y1="-280.7832" x2="276.2852" y2="-263.7261" gradientTransform="matrix(1 0 0 -1 -237.5996 -239.9004)">
		<stop  offset="0" style="stop-color:#FFFFFF;stop-opacity:0"/>
		<stop  offset="1" style="stop-color:#FFFFFF;stop-opacity:0.8"/>
	</linearGradient>
	<path fill="url(#SVGID_2_)" d="M31.539,23.831c4.958-0.304,24.944,12.237,25.701,13.179c-23.886-10.949-36.883,3.873-36.883,3.873
		l-0.226-8.264C20.131,32.619,24.785,24.244,31.539,23.831L31.539,23.831z"/>
</g>
<g id="green">
	<path fill-opacity="0.1" d="M20.989,100.915c-1.657,0-3-1.343-3-3V38.294c0-0.207,0.022-0.41,0.063-0.607
		c0.213-4.024,2.157-8.038,5.389-11.092c3.272-3.089,7.457-4.86,11.481-4.86c2.18,0,4.225,0.509,6.08,1.514
		c8.336,4.521,22.245,12.818,31.26,18.254c1.057-1.831,2.182-3.776,2.182-3.776c2.129-3.687,2.924-5.063,3.234-5.599
		c0.084-0.205,0.182-0.405,0.293-0.597c0.907-1.578,2.604-2.556,4.424-2.556c0.896,0,1.781,0.237,2.556,0.686
		c1.271,0.732,2.155,1.978,2.442,3.405c0.309,0.703,16.062,36.618,16.123,36.763c0.4,0.743,0.61,1.573,0.61,2.42
		c0,0.89-0.235,1.771-0.681,2.545c-0.898,1.56-2.566,2.533-4.364,2.556c-0.358,0.041-39.253,4.571-39.963,4.654
		c-0.514,0.168-1.057,0.255-1.597,0.255c-0.891,0-1.771-0.235-2.546-0.681c-1.578-0.911-2.554-2.605-2.554-4.426
		c0-0.896,0.237-1.78,0.685-2.555l-0.006,0.01c0.11-0.192,0.235-0.381,0.372-0.559c0.071-0.121,3.688-6.388,5.594-9.689
		c-3.7-1.922-8.784-4.586-14.062-7.43c0,8,0,40.986,0,40.986c0,1.657-1.342,3-3,3H20.989"/>
	<path fill="#015911" d="M18.989,98.915c-1.657,0-3-1.343-3-3V36.294c0-0.207,0.022-0.41,0.063-0.607
		c0.213-4.024,2.157-8.038,5.389-11.092c3.272-3.089,7.457-4.86,11.481-4.86c2.18,0,4.225,0.509,6.08,1.514
		c8.336,4.521,22.245,12.818,31.26,18.254c1.057-1.831,2.182-3.776,2.182-3.776c2.129-3.687,2.924-5.063,3.234-5.599
		c0.084-0.205,0.182-0.405,0.293-0.597c0.907-1.578,2.604-2.556,4.424-2.556c0.896,0,1.781,0.237,2.556,0.686
		c1.271,0.732,2.155,1.978,2.442,3.405c0.309,0.703,16.062,36.618,16.123,36.763c0.4,0.743,0.61,1.573,0.61,2.42
		c0,0.89-0.235,1.771-0.681,2.545c-0.898,1.56-2.566,2.533-4.364,2.556c-0.358,0.041-39.253,4.571-39.963,4.654
		c-0.514,0.168-1.057,0.255-1.597,0.255c-0.891,0-1.771-0.235-2.546-0.681c-1.578-0.911-2.554-2.605-2.554-4.426
		c0-0.896,0.237-1.78,0.685-2.555l-0.006,0.01c0.11-0.192,0.235-0.381,0.372-0.559c0.071-0.121,3.688-6.388,5.594-9.689
		c-3.7-1.922-8.784-4.586-14.062-7.43c0,8,0,40.986,0,40.986c0,1.657-1.342,3-3,3H18.989"/>
	
		<linearGradient id="SVGID_3_" gradientUnits="userSpaceOnUse" x1="296.6582" y1="-335.8149" x2="296.6582" y2="-262.6338" gradientTransform="matrix(1 0 0 -1 -237.5996 -239.9004)">
		<stop  offset="0" style="stop-color:#00DF34"/>
		<stop  offset="0.1758" style="stop-color:#00CD26"/>
		<stop  offset="0.4969" style="stop-color:#00B211"/>
		<stop  offset="0.782" style="stop-color:#00A204"/>
		<stop  offset="1" style="stop-color:#009C00"/>
	</linearGradient>
	<path fill="url(#SVGID_3_)" d="M97.124,72.32l-41.535,4.836l-1.565-3.527l24.38-42.228l3.771-0.205l16.623,37.908L97.124,72.32
		L97.124,72.32z M57.346,76.204c-0.582,1.006-1.868,1.351-2.875,0.771c-1.005-0.582-1.35-1.867-0.769-2.875
		c0.58-1.006,1.867-1.351,2.873-0.769C57.581,73.91,57.925,75.197,57.346,76.204L57.346,76.204z M82.214,33.128
		c-0.58,1.007-1.866,1.352-2.873,0.77c-1.006-0.581-1.35-1.867-0.771-2.873c0.58-1.007,1.867-1.352,2.875-0.77
		C82.451,30.836,82.795,32.122,82.214,33.128L82.214,33.128z M98.844,71.295c-0.58,1.008-1.867,1.352-2.873,0.771
		c-1.007-0.582-1.352-1.867-0.771-2.873c0.579-1.006,1.868-1.353,2.874-0.771C99.079,69.003,99.424,70.289,98.844,71.295
		L98.844,71.295z M18.989,95.915V36.294l21.015-6.201v65.822H18.989L18.989,95.915z M65.566,63.363c0,0-46.537-23.625-46.537-26.932
		c0-9.095,10.947-16.665,18.542-12.546c12.455,6.753,37.917,22.293,37.917,22.293L65.566,63.363L65.566,63.363z"/>
	
		<linearGradient id="SVGID_4_" gradientUnits="userSpaceOnUse" x1="276.2852" y1="-280.7832" x2="276.2852" y2="-263.7261" gradientTransform="matrix(1 0 0 -1 -237.5996 -239.9004)">
		<stop  offset="0" style="stop-color:#FFFFFF;stop-opacity:0"/>
		<stop  offset="1" style="stop-color:#FFFFFF;stop-opacity:0.8"/>
	</linearGradient>
	<path fill="url(#SVGID_4_)" d="M31.539,23.831c4.958-0.304,24.944,12.237,25.701,13.179c-23.886-10.949-36.883,3.873-36.883,3.873
		l-0.226-8.264C20.131,32.619,24.785,24.244,31.539,23.831L31.539,23.831z"/>
</g>
<g id="kia">
	<path fill-opacity="0.1" d="M20.989,100.915c-1.657,0-3-1.343-3-3V38.294c0-0.207,0.022-0.41,0.063-0.607
		c0.213-4.024,2.157-8.038,5.389-11.092c3.272-3.089,7.457-4.86,11.481-4.86c2.18,0,4.225,0.509,6.08,1.514
		c8.336,4.521,22.245,12.818,31.26,18.254c1.057-1.831,2.182-3.776,2.182-3.776c2.129-3.687,2.924-5.063,3.234-5.599
		c0.084-0.205,0.182-0.405,0.293-0.597c0.907-1.578,2.604-2.556,4.424-2.556c0.896,0,1.781,0.237,2.556,0.686
		c1.271,0.732,2.155,1.978,2.442,3.405c0.309,0.703,16.062,36.618,16.123,36.763c0.4,0.743,0.61,1.573,0.61,2.42
		c0,0.89-0.235,1.771-0.681,2.545c-0.898,1.56-2.566,2.533-4.364,2.556c-0.358,0.041-39.253,4.571-39.963,4.654
		c-0.514,0.168-1.057,0.255-1.597,0.255c-0.891,0-1.771-0.235-2.546-0.681c-1.578-0.911-2.554-2.605-2.554-4.426
		c0-0.896,0.237-1.78,0.685-2.555l-0.006,0.01c0.11-0.192,0.235-0.381,0.372-0.559c0.071-0.121,3.688-6.388,5.594-9.689
		c-3.7-1.922-8.784-4.586-14.062-7.43c0,8,0,40.986,0,40.986c0,1.657-1.342,3-3,3H20.989"/>
	<path fill="#eeb422" d="M18.989,98.915c-1.657,0-3-1.343-3-3V36.294c0-0.207,0.022-0.41,0.063-0.607
		c0.213-4.024,2.157-8.038,5.389-11.092c3.272-3.089,7.457-4.86,11.481-4.86c2.18,0,4.225,0.509,6.08,1.514
		c8.336,4.521,22.245,12.818,31.26,18.254c1.057-1.831,2.182-3.776,2.182-3.776c2.129-3.687,2.924-5.063,3.234-5.599
		c0.084-0.205,0.182-0.405,0.293-0.597c0.907-1.578,2.604-2.556,4.424-2.556c0.896,0,1.781,0.237,2.556,0.686
		c1.271,0.732,2.155,1.978,2.442,3.405c0.309,0.703,16.062,36.618,16.123,36.763c0.4,0.743,0.61,1.573,0.61,2.42
		c0,0.89-0.235,1.771-0.681,2.545c-0.898,1.56-2.566,2.533-4.364,2.556c-0.358,0.041-39.253,4.571-39.963,4.654
		c-0.514,0.168-1.057,0.255-1.597,0.255c-0.891,0-1.771-0.235-2.546-0.681c-1.578-0.911-2.554-2.605-2.554-4.426
		c0-0.896,0.237-1.78,0.685-2.555l-0.006,0.01c0.11-0.192,0.235-0.381,0.372-0.559c0.071-0.121,3.688-6.388,5.594-9.689
		c-3.7-1.922-8.784-4.586-14.062-7.43c0,8,0,40.986,0,40.986c0,1.657-1.342,3-3,3H18.989"/>
	
		<linearGradient id="SVGID_5_" gradientUnits="userSpaceOnUse" x1="296.6582" y1="-335.8149" x2="296.6582" y2="-262.6338" gradientTransform="matrix(1 0 0 -1 -237.5996 -239.9004)">
		<stop  offset="0" style="stop-color:#FFFFFF"/>
		<stop  offset="0.1758" style="stop-color:#E7E9EA"/>
		<stop  offset="0.4969" style="stop-color:#CDD2D5"/>
		<stop  offset="0.782" style="stop-color:#C5CACC"/>
		<stop  offset="1" style="stop-color:#BABDC0"/>
	</linearGradient>
	<path fill="url(#SVGID_5_)" d="M97.124,72.32l-41.535,4.836l-1.565-3.527l24.38-42.228l3.771-0.205l16.623,37.908L97.124,72.32
		L97.124,72.32z M57.346,76.204c-0.582,1.006-1.868,1.351-2.875,0.771c-1.005-0.582-1.35-1.867-0.769-2.875
		c0.58-1.006,1.867-1.351,2.873-0.769C57.581,73.91,57.925,75.197,57.346,76.204L57.346,76.204z M82.214,33.128
		c-0.58,1.007-1.866,1.352-2.873,0.77c-1.006-0.581-1.35-1.867-0.771-2.873c0.58-1.007,1.867-1.352,2.875-0.77
		C82.451,30.836,82.795,32.122,82.214,33.128L82.214,33.128z M98.844,71.295c-0.58,1.008-1.867,1.352-2.873,0.771
		c-1.007-0.582-1.352-1.867-0.771-2.873c0.579-1.006,1.868-1.353,2.874-0.771C99.079,69.003,99.424,70.289,98.844,71.295
		L98.844,71.295z M18.989,95.915V36.294l21.015-6.201v65.822H18.989L18.989,95.915z M65.566,63.363c0,0-46.537-23.625-46.537-26.932
		c0-9.095,10.947-16.665,18.542-12.546c12.455,6.753,37.917,22.293,37.917,22.293L65.566,63.363L65.566,63.363z"/>
	
		<linearGradient id="SVGID_6_" gradientUnits="userSpaceOnUse" x1="276.2852" y1="-280.7832" x2="276.2852" y2="-263.7261" gradientTransform="matrix(1 0 0 -1 -237.5996 -239.9004)">
		<stop  offset="0" style="stop-color:#FFFFFF;stop-opacity:0"/>
		<stop  offset="1" style="stop-color:#FFFFFF;stop-opacity:0.8"/>
	</linearGradient>
	<path fill="url(#SVGID_6_)" d="M31.539,23.831c4.958-0.304,24.944,12.237,25.701,13.179c-23.886-10.949-36.883,3.873-36.883,3.873
		l-0.226-8.264C20.131,32.619,24.785,24.244,31.539,23.831L31.539,23.831z"/>
</g>
<g id="orange">
	<path fill-opacity="0.1" d="M20.989,100.915c-1.657,0-3-1.343-3-3V38.294c0-0.207,0.022-0.41,0.063-0.607
		c0.213-4.024,2.157-8.038,5.389-11.092c3.272-3.089,7.457-4.86,11.481-4.86c2.18,0,4.225,0.509,6.08,1.514
		c8.336,4.521,22.245,12.818,31.26,18.254c1.057-1.831,2.182-3.776,2.182-3.776c2.129-3.687,2.924-5.063,3.234-5.599
		c0.084-0.205,0.182-0.405,0.293-0.597c0.907-1.578,2.604-2.556,4.424-2.556c0.896,0,1.781,0.237,2.556,0.686
		c1.271,0.732,2.155,1.978,2.442,3.405c0.309,0.703,16.062,36.618,16.123,36.763c0.4,0.743,0.61,1.573,0.61,2.42
		c0,0.89-0.235,1.771-0.681,2.545c-0.898,1.56-2.566,2.533-4.364,2.556c-0.358,0.041-39.253,4.571-39.963,4.654
		c-0.514,0.168-1.057,0.255-1.597,0.255c-0.891,0-1.771-0.235-2.546-0.681c-1.578-0.911-2.554-2.605-2.554-4.426
		c0-0.896,0.237-1.78,0.685-2.555l-0.006,0.01c0.11-0.192,0.235-0.381,0.372-0.559c0.071-0.121,3.688-6.388,5.594-9.689
		c-3.7-1.922-8.784-4.586-14.062-7.43c0,8,0,40.986,0,40.986c0,1.657-1.342,3-3,3H20.989"/>
	<path fill="#eeb422" d="M18.989,98.915c-1.657,0-3-1.343-3-3V36.294c0-0.207,0.022-0.41,0.063-0.607
		c0.213-4.024,2.157-8.038,5.389-11.092c3.272-3.089,7.457-4.86,11.481-4.86c2.18,0,4.225,0.509,6.08,1.514
		c8.336,4.521,22.245,12.818,31.26,18.254c1.057-1.831,2.182-3.776,2.182-3.776c2.129-3.687,2.924-5.063,3.234-5.599
		c0.084-0.205,0.182-0.405,0.293-0.597c0.907-1.578,2.604-2.556,4.424-2.556c0.896,0,1.781,0.237,2.556,0.686
		c1.271,0.732,2.155,1.978,2.442,3.405c0.309,0.703,16.062,36.618,16.123,36.763c0.4,0.743,0.61,1.573,0.61,2.42
		c0,0.89-0.235,1.771-0.681,2.545c-0.898,1.56-2.566,2.533-4.364,2.556c-0.358,0.041-39.253,4.571-39.963,4.654
		c-0.514,0.168-1.057,0.255-1.597,0.255c-0.891,0-1.771-0.235-2.546-0.681c-1.578-0.911-2.554-2.605-2.554-4.426
		c0-0.896,0.237-1.78,0.685-2.555l-0.006,0.01c0.11-0.192,0.235-0.381,0.372-0.559c0.071-0.121,3.688-6.388,5.594-9.689
		c-3.7-1.922-8.784-4.586-14.062-7.43c0,8,0,40.986,0,40.986c0,1.657-1.342,3-3,3H18.989"/>
	
		<linearGradient id="SVGID_7_" gradientUnits="userSpaceOnUse" x1="296.6582" y1="-335.8149" x2="296.6582" y2="-262.6338" gradientTransform="matrix(1 0 0 -1 -237.5996 -239.9004)">
		<stop  offset="0" style="stop-color:#FEDF34"/>
		<stop  offset="0.1758" style="stop-color:#FECD26"/>
		<stop  offset="0.4969" style="stop-color:#FFB211"/>
		<stop  offset="0.782" style="stop-color:#FFA204"/>
		<stop  offset="1" style="stop-color:#FF9C00"/>
	</linearGradient>
	<path fill="url(#SVGID_7_)" d="M97.124,72.32l-41.535,4.836l-1.565-3.527l24.38-42.228l3.771-0.205l16.623,37.908L97.124,72.32
		L97.124,72.32z M57.346,76.204c-0.582,1.006-1.868,1.351-2.875,0.771c-1.005-0.582-1.35-1.867-0.769-2.875
		c0.58-1.006,1.867-1.351,2.873-0.769C57.581,73.91,57.925,75.197,57.346,76.204L57.346,76.204z M82.214,33.128
		c-0.58,1.007-1.866,1.352-2.873,0.77c-1.006-0.581-1.35-1.867-0.771-2.873c0.58-1.007,1.867-1.352,2.875-0.77
		C82.451,30.836,82.795,32.122,82.214,33.128L82.214,33.128z M98.844,71.295c-0.58,1.008-1.867,1.352-2.873,0.771
		c-1.007-0.582-1.352-1.867-0.771-2.873c0.579-1.006,1.868-1.353,2.874-0.771C99.079,69.003,99.424,70.289,98.844,71.295
		L98.844,71.295z M18.989,95.915V36.294l21.015-6.201v65.822H18.989L18.989,95.915z M65.566,63.363c0,0-46.537-23.625-46.537-26.932
		c0-9.095,10.947-16.665,18.542-12.546c12.455,6.753,37.917,22.293,37.917,22.293L65.566,63.363L65.566,63.363z"/>
	
		<linearGradient id="SVGID_8_" gradientUnits="userSpaceOnUse" x1="276.2852" y1="-280.7832" x2="276.2852" y2="-263.7261" gradientTransform="matrix(1 0 0 -1 -237.5996 -239.9004)">
		<stop  offset="0" style="stop-color:#FFFFFF;stop-opacity:0"/>
		<stop  offset="1" style="stop-color:#FFFFFF;stop-opacity:0.8"/>
	</linearGradient>
	<path fill="url(#SVGID_8_)" d="M31.539,23.831c4.958-0.304,24.944,12.237,25.701,13.179c-23.886-10.949-36.883,3.873-36.883,3.873
		l-0.226-8.264C20.131,32.619,24.785,24.244,31.539,23.831L31.539,23.831z"/>
</g>
<g id="red">
	<path fill-opacity="0.1" d="M20.989,100.915c-1.657,0-3-1.343-3-3V38.294c0-0.207,0.022-0.41,0.063-0.607
		c0.213-4.024,2.157-8.038,5.389-11.092c3.272-3.089,7.457-4.86,11.481-4.86c2.18,0,4.225,0.509,6.08,1.514
		c8.336,4.521,22.245,12.818,31.26,18.254c1.057-1.831,2.182-3.776,2.182-3.776c2.129-3.687,2.924-5.063,3.234-5.599
		c0.084-0.205,0.182-0.405,0.293-0.597c0.907-1.578,2.604-2.556,4.424-2.556c0.896,0,1.781,0.237,2.556,0.686
		c1.271,0.732,2.155,1.978,2.442,3.405c0.309,0.703,16.062,36.618,16.123,36.763c0.4,0.743,0.61,1.573,0.61,2.42
		c0,0.89-0.235,1.771-0.681,2.545c-0.898,1.56-2.566,2.533-4.364,2.556c-0.358,0.041-39.253,4.571-39.963,4.654
		c-0.514,0.168-1.057,0.255-1.597,0.255c-0.891,0-1.771-0.235-2.546-0.681c-1.578-0.911-2.554-2.605-2.554-4.426
		c0-0.896,0.237-1.78,0.685-2.555l-0.006,0.01c0.11-0.192,0.235-0.381,0.372-0.559c0.071-0.121,3.688-6.388,5.594-9.689
		c-3.7-1.922-8.784-4.586-14.062-7.43c0,8,0,40.986,0,40.986c0,1.657-1.342,3-3,3H20.989"/>
	<path fill="#940202" d="M18.989,98.915c-1.657,0-3-1.343-3-3V36.294c0-0.207,0.022-0.41,0.063-0.607
		c0.213-4.024,2.157-8.038,5.389-11.092c3.272-3.089,7.457-4.86,11.481-4.86c2.18,0,4.225,0.509,6.08,1.514
		c8.336,4.521,22.245,12.818,31.26,18.254c1.057-1.831,2.182-3.776,2.182-3.776c2.129-3.687,2.924-5.063,3.234-5.599
		c0.084-0.205,0.182-0.405,0.293-0.597c0.907-1.578,2.604-2.556,4.424-2.556c0.896,0,1.781,0.237,2.556,0.686
		c1.271,0.732,2.155,1.978,2.442,3.405c0.309,0.703,16.062,36.618,16.123,36.763c0.4,0.743,0.61,1.573,0.61,2.42
		c0,0.89-0.235,1.771-0.681,2.545c-0.898,1.56-2.566,2.533-4.364,2.556c-0.358,0.041-39.253,4.571-39.963,4.654
		c-0.514,0.168-1.057,0.255-1.597,0.255c-0.891,0-1.771-0.235-2.546-0.681c-1.578-0.911-2.554-2.605-2.554-4.426
		c0-0.896,0.237-1.78,0.685-2.555l-0.006,0.01c0.11-0.192,0.235-0.381,0.372-0.559c0.071-0.121,3.688-6.388,5.594-9.689
		c-3.7-1.922-8.784-4.586-14.062-7.43c0,8,0,40.986,0,40.986c0,1.657-1.342,3-3,3H18.989"/>
	
		<linearGradient id="SVGID_9_" gradientUnits="userSpaceOnUse" x1="296.6582" y1="-335.8149" x2="296.6582" y2="-262.6338" gradientTransform="matrix(1 0 0 -1 -237.5996 -239.9004)">
		<stop  offset="0" style="stop-color:#FF0000"/>
		<stop  offset="0.1758" style="stop-color:#F60303"/>
		<stop  offset="0.4969" style="stop-color:#EC0404"/>
		<stop  offset="0.782" style="stop-color:#E30101"/>
		<stop  offset="1" style="stop-color:#D60202"/>
	</linearGradient>
	<path fill="url(#SVGID_9_)" d="M97.124,72.32l-41.535,4.836l-1.565-3.527l24.38-42.228l3.771-0.205l16.623,37.908L97.124,72.32
		L97.124,72.32z M57.346,76.204c-0.582,1.006-1.868,1.351-2.875,0.771c-1.005-0.582-1.35-1.867-0.769-2.875
		c0.58-1.006,1.867-1.351,2.873-0.769C57.581,73.91,57.925,75.197,57.346,76.204L57.346,76.204z M82.214,33.128
		c-0.58,1.007-1.866,1.352-2.873,0.77c-1.006-0.581-1.35-1.867-0.771-2.873c0.58-1.007,1.867-1.352,2.875-0.77
		C82.451,30.836,82.795,32.122,82.214,33.128L82.214,33.128z M98.844,71.295c-0.58,1.008-1.867,1.352-2.873,0.771
		c-1.007-0.582-1.352-1.867-0.771-2.873c0.579-1.006,1.868-1.353,2.874-0.771C99.079,69.003,99.424,70.289,98.844,71.295
		L98.844,71.295z M18.989,95.915V36.294l21.015-6.201v65.822H18.989L18.989,95.915z M65.566,63.363c0,0-46.537-23.625-46.537-26.932
		c0-9.095,10.947-16.665,18.542-12.546c12.455,6.753,37.917,22.293,37.917,22.293L65.566,63.363L65.566,63.363z"/>
	
		<linearGradient id="SVGID_10_" gradientUnits="userSpaceOnUse" x1="276.2852" y1="-280.7832" x2="276.2852" y2="-263.7261" gradientTransform="matrix(1 0 0 -1 -237.5996 -239.9004)">
		<stop  offset="0" style="stop-color:#FFFFFF;stop-opacity:0"/>
		<stop  offset="1" style="stop-color:#FFFFFF;stop-opacity:0.8"/>
	</linearGradient>
	<path fill="url(#SVGID_10_)" d="M31.539,23.831c4.958-0.304,24.944,12.237,25.701,13.179c-23.886-10.949-36.883,3.873-36.883,3.873
		l-0.226-8.264C20.131,32.619,24.785,24.244,31.539,23.831L31.539,23.831z"/>
</g>
</svg>
