<?xml version="1.0" encoding="utf-8"?>
<!-- Generator: Adobe Illustrator 16.0.2, SVG Export Plug-In . SVG Version: 6.00 Build 0)  -->
<!DOCTYPE svg PUBLIC "-//W3C//DTD SVG 1.1//EN" "http://www.w3.org/Graphics/SVG/1.1/DTD/svg11.dtd">
<svg version="1.1" id="Layer_1" xmlns="http://www.w3.org/2000/svg" xmlns:xlink="http://www.w3.org/1999/xlink" x="0px" y="0px"
	 width="120px" height="120px" viewBox="0 0 120 120" enable-background="new 0 0 120 120" xml:space="preserve">
<g id="black_white">
	<g>
		<path fill="#999999" d="M1,38.311v10.376h32.624c4.853-4.345,9.087-7.367,14.683-10.376H1z"/>
		<path fill="#999999" d="M23.149,24.256h-9.407V76.44c2.89-6.477,5.262-10.549,9.407-16.198V24.256z"/>
		<path fill="#3A3A3A" d="M6.813,109h23.263c0-29.09,21.377-52.671,47.748-52.671V30.668C38.606,30.668,6.813,65.738,6.813,109z
			 M118.154,41.648L81.151,11.456c-1.378-1.125-3.328-0.039-3.328,1.851V73.69c0,1.892,1.95,2.976,3.328,1.851l37.003-30.19
			C119.282,44.43,119.282,42.569,118.154,41.648z"/>
	</g>
</g>
<g id="blue">
	<path fill="#7B7B7B" d="M12,103.5v-84h16.999v84H12L12,103.5z M6,45.5v-17h82.001v17H1H6z"/>
	
		<radialGradient id="SVGID_1_" cx="283.6006" cy="-300.4004" r="40.5026" gradientTransform="matrix(1 0 0 -1 -237.5996 -239.9004)" gradientUnits="userSpaceOnUse">
		<stop  offset="0.16" style="stop-color:#EAEAEA"/>
		<stop  offset="0.4512" style="stop-color:#CACACA"/>
		<stop  offset="0.78" style="stop-color:#AAAAAA"/>
	</radialGradient>
	<path fill="url(#SVGID_1_)" d="M14.001,101.5c0-3.729,0-56,0-56c0-1.104-0.896-2-2-2c0,0-3.323,0-6,0c0-2.698,0-10.301,0-13
		c2.677,0,6,0,6,0c1.104,0,2-0.896,2-2c0,0,0-6.136,0-9c2.698,0,10.299,0,12.998,0c0,2.864,0,9,0,9c0,1.104,0.896,2,2,2
		c0,0,53.269,0,57.001,0c0,2.698,0,10.301,0,13c-3.732,0-57.001,0-57.001,0c-1.104,0-2,0.896-2,2c0,0,0,52.271,0,56
		C24.3,101.5,16.699,101.5,14.001,101.5"/>
	<path fill-opacity="0.1" d="M17.895,108.826c-1.658,0-3-1.344-3-3c0-9.965,1.18-19.385,3.507-27.996
		c2.495-9.229,6.268-17.357,11.215-24.161c5.363-7.376,12.075-13.145,19.95-17.143c7.671-3.895,16.462-6.11,26.176-6.603
		c0-3.605,0-10.754,0-11.111c-0.028-0.219-0.043-0.44-0.043-0.658c0-2.814,2.29-5.104,5.104-5.104c1.489,0,2.893,0.648,3.855,1.76
		c0.626,0.466,31.695,23.582,31.895,23.728c1.516,0.924,2.443,2.564,2.443,4.354c0,1.808-0.943,3.459-2.482,4.38
		c-0.3,0.226-31.3,23.553-31.883,23.994c-0.963,1.094-2.355,1.73-3.828,1.73c-2.814,0-5.104-2.291-5.104-5.104
		c0-0.222,0.015-0.443,0.043-0.666c0-0.147,0-7.516,0-11.377c-11.63,1.068-20.613,6.667-26.732,16.672
		c-2.806,4.59-4.948,10.021-6.364,16.138c-1.249,5.396-1.911,11.331-1.911,17.167c0,1.656-1.342,3-3,3H17.895"/>
	<path fill="#00598C" d="M15.14,106.826c-1.658,0-3-1.344-3-3c0-9.965,1.18-19.385,3.507-27.996
		c2.495-9.229,6.268-17.357,11.215-24.161c5.363-7.376,12.075-13.145,19.95-17.143c7.671-3.895,16.463-6.11,26.176-6.603
		c0-3.605,0-10.754,0-11.111c-0.028-0.219-0.043-0.44-0.043-0.658c0-2.814,2.289-5.104,5.104-5.104c1.49,0,2.895,0.648,3.855,1.76
		c0.627,0.466,31.697,23.582,31.895,23.728c1.518,0.924,2.444,2.564,2.444,4.354c0,1.808-0.943,3.459-2.481,4.38
		c-0.301,0.226-31.301,23.553-31.884,23.994c-0.963,1.094-2.356,1.73-3.829,1.73c-2.814,0-5.104-2.291-5.104-5.104
		c0-0.222,0.015-0.443,0.043-0.666c0-0.147,0-7.516,0-11.377c-11.631,1.068-20.613,6.667-26.732,16.672
		c-2.806,4.59-4.948,10.021-6.364,16.138c-1.249,5.396-1.911,11.331-1.911,17.167c0,1.656-1.342,3-3,3H15.14"/>
	<g>
		
			<linearGradient id="SVGID_2_" gradientUnits="userSpaceOnUse" x1="301.793" y1="-343.7261" x2="301.793" y2="-253.9502" gradientTransform="matrix(1 0 0 -1 -237.5996 -239.9004)">
			<stop  offset="0" style="stop-color:#48A2FB"/>
			<stop  offset="0.1758" style="stop-color:#059CF4"/>
			<stop  offset="0.4969" style="stop-color:#0398EF"/>
			<stop  offset="0.782" style="stop-color:#0293E7"/>
			<stop  offset="1" style="stop-color:#0189D8"/>
		</linearGradient>
		<path fill="url(#SVGID_2_)" d="M79.109,67.598l-3.121-2.272V16.563l3.166-2.061l32.955,24.518l0.158,3.623L79.109,67.598
			L79.109,67.598z M78.051,67.997c-1.162,0-2.104-0.94-2.104-2.104c0-1.16,0.941-2.103,2.104-2.103c1.161,0,2.104,0.94,2.104,2.103
			C80.152,67.057,79.212,67.997,78.051,67.997L78.051,67.997z M78.051,18.257c-1.162,0-2.104-0.942-2.104-2.103
			c0-1.163,0.941-2.104,2.104-2.104c1.161,0,2.104,0.942,2.104,2.104C80.152,17.315,79.212,18.257,78.051,18.257L78.051,18.257z
			 M111.141,42.997c-1.16,0-2.103-0.941-2.103-2.104c0-1.161,0.94-2.103,2.103-2.103c1.164,0,2.104,0.942,2.104,2.103
			C113.245,42.056,112.305,42.997,111.141,42.997L111.141,42.997z M34.982,103.826H15.14c0-38.033,17.773-73.008,62.066-73.008
			v19.843C44.803,50.661,34.982,80.676,34.982,103.826L34.982,103.826z"/>
	</g>
	
		<linearGradient id="SVGID_3_" gradientUnits="userSpaceOnUse" x1="328.1211" y1="-274.8516" x2="328.1211" y2="-255.0083" gradientTransform="matrix(1 0 0 -1 -237.5996 -239.9004)">
		<stop  offset="0" style="stop-color:#FFFFFF;stop-opacity:0"/>
		<stop  offset="1" style="stop-color:#FFFFFF;stop-opacity:0.8"/>
	</linearGradient>
	<path fill="url(#SVGID_3_)" d="M76.465,15.108c0,0,0.12,12.026,0,13.229c13.779-3.962,28.111,6.614,28.111,6.614L78.119,15.108
		H76.465L76.465,15.108z"/>
</g>
<g id="green">
	<path fill="#7B7B7B" d="M12,103.5v-84h16.999v84H12L12,103.5z M6,45.5v-17h82.001v17H1H6z"/>
	
		<radialGradient id="SVGID_4_" cx="283.6006" cy="-300.4004" r="40.5026" gradientTransform="matrix(1 0 0 -1 -237.5996 -239.9004)" gradientUnits="userSpaceOnUse">
		<stop  offset="0.16" style="stop-color:#EAEAEA"/>
		<stop  offset="0.4512" style="stop-color:#CACACA"/>
		<stop  offset="0.78" style="stop-color:#AAAAAA"/>
	</radialGradient>
	<path fill="url(#SVGID_4_)" d="M14.001,101.5c0-3.729,0-56,0-56c0-1.104-0.896-2-2-2c0,0-3.323,0-6,0c0-2.698,0-10.301,0-13
		c2.677,0,6,0,6,0c1.104,0,2-0.896,2-2c0,0,0-6.136,0-9c2.698,0,10.299,0,12.998,0c0,2.864,0,9,0,9c0,1.104,0.896,2,2,2
		c0,0,53.269,0,57.001,0c0,2.698,0,10.301,0,13c-3.732,0-57.001,0-57.001,0c-1.104,0-2,0.896-2,2c0,0,0,52.271,0,56
		C24.3,101.5,16.699,101.5,14.001,101.5"/>
	<path fill-opacity="0.1" d="M17.895,108.826c-1.658,0-3-1.344-3-3c0-9.965,1.18-19.385,3.507-27.996
		c2.495-9.229,6.268-17.357,11.215-24.161c5.363-7.376,12.075-13.145,19.95-17.143c7.671-3.895,16.462-6.11,26.176-6.603
		c0-3.605,0-10.754,0-11.111c-0.028-0.219-0.043-0.44-0.043-0.658c0-2.814,2.29-5.104,5.104-5.104c1.489,0,2.893,0.648,3.855,1.76
		c0.626,0.466,31.695,23.582,31.895,23.728c1.516,0.924,2.443,2.564,2.443,4.354c0,1.808-0.943,3.459-2.482,4.38
		c-0.3,0.226-31.3,23.553-31.883,23.994c-0.963,1.094-2.355,1.73-3.828,1.73c-2.814,0-5.104-2.291-5.104-5.104
		c0-0.222,0.015-0.443,0.043-0.666c0-0.147,0-7.516,0-11.377c-11.63,1.068-20.613,6.667-26.732,16.672
		c-2.806,4.59-4.948,10.021-6.364,16.138c-1.249,5.396-1.911,11.331-1.911,17.167c0,1.656-1.342,3-3,3H17.895"/>
	<path fill="#015911" d="M15.14,106.826c-1.658,0-3-1.344-3-3c0-9.965,1.18-19.385,3.507-27.996
		c2.495-9.229,6.268-17.357,11.215-24.161c5.363-7.376,12.075-13.145,19.95-17.143c7.671-3.895,16.463-6.11,26.176-6.603
		c0-3.605,0-10.754,0-11.111c-0.028-0.219-0.043-0.44-0.043-0.658c0-2.814,2.289-5.104,5.104-5.104c1.49,0,2.895,0.648,3.855,1.76
		c0.627,0.466,31.697,23.582,31.895,23.728c1.518,0.924,2.444,2.564,2.444,4.354c0,1.808-0.943,3.459-2.481,4.38
		c-0.301,0.226-31.301,23.553-31.884,23.994c-0.963,1.094-2.356,1.73-3.829,1.73c-2.814,0-5.104-2.291-5.104-5.104
		c0-0.222,0.015-0.443,0.043-0.666c0-0.147,0-7.516,0-11.377c-11.631,1.068-20.613,6.667-26.732,16.672
		c-2.806,4.59-4.948,10.021-6.364,16.138c-1.249,5.396-1.911,11.331-1.911,17.167c0,1.656-1.342,3-3,3H15.14"/>
	<g>
		
			<linearGradient id="SVGID_5_" gradientUnits="userSpaceOnUse" x1="301.793" y1="-343.7261" x2="301.793" y2="-253.9502" gradientTransform="matrix(1 0 0 -1 -237.5996 -239.9004)">
			<stop  offset="0" style="stop-color:#00DF34"/>
			<stop  offset="0.1758" style="stop-color:#00CD26"/>
			<stop  offset="0.4969" style="stop-color:#00B211"/>
			<stop  offset="0.782" style="stop-color:#00A204"/>
			<stop  offset="1" style="stop-color:#009C00"/>
		</linearGradient>
		<path fill="url(#SVGID_5_)" d="M79.109,67.598l-3.121-2.272V16.563l3.166-2.061l32.955,24.518l0.158,3.623L79.109,67.598
			L79.109,67.598z M78.051,67.997c-1.162,0-2.104-0.94-2.104-2.104c0-1.16,0.941-2.103,2.104-2.103c1.161,0,2.104,0.94,2.104,2.103
			C80.152,67.057,79.212,67.997,78.051,67.997L78.051,67.997z M78.051,18.257c-1.162,0-2.104-0.942-2.104-2.103
			c0-1.163,0.941-2.104,2.104-2.104c1.161,0,2.104,0.942,2.104,2.104C80.152,17.315,79.212,18.257,78.051,18.257L78.051,18.257z
			 M111.141,42.997c-1.16,0-2.103-0.941-2.103-2.104c0-1.161,0.94-2.103,2.103-2.103c1.164,0,2.104,0.942,2.104,2.103
			C113.245,42.056,112.305,42.997,111.141,42.997L111.141,42.997z M34.982,103.826H15.14c0-38.033,17.773-73.008,62.066-73.008
			v19.843C44.803,50.661,34.982,80.676,34.982,103.826L34.982,103.826z"/>
	</g>
	
		<linearGradient id="SVGID_6_" gradientUnits="userSpaceOnUse" x1="328.1211" y1="-274.8516" x2="328.1211" y2="-255.0083" gradientTransform="matrix(1 0 0 -1 -237.5996 -239.9004)">
		<stop  offset="0" style="stop-color:#FFFFFF;stop-opacity:0"/>
		<stop  offset="1" style="stop-color:#FFFFFF;stop-opacity:0.8"/>
	</linearGradient>
	<path fill="url(#SVGID_6_)" d="M76.465,15.108c0,0,0.12,12.026,0,13.229c13.779-3.962,28.111,6.614,28.111,6.614L78.119,15.108
		H76.465L76.465,15.108z"/>
</g>
<g id="kia">
	<path fill="#7B7B7B" d="M12,103.5v-84h16.999v84H12L12,103.5z M6,45.5v-17h82.001v17H1H6z"/>
	
		<radialGradient id="SVGID_7_" cx="283.6006" cy="-300.4004" r="40.5026" gradientTransform="matrix(1 0 0 -1 -237.5996 -239.9004)" gradientUnits="userSpaceOnUse">
		<stop  offset="0.16" style="stop-color:#EAEAEA"/>
		<stop  offset="0.4512" style="stop-color:#CACACA"/>
		<stop  offset="0.78" style="stop-color:#AAAAAA"/>
	</radialGradient>
	<path fill="url(#SVGID_7_)" d="M14.001,101.5c0-3.729,0-56,0-56c0-1.104-0.896-2-2-2c0,0-3.323,0-6,0c0-2.698,0-10.301,0-13
		c2.677,0,6,0,6,0c1.104,0,2-0.896,2-2c0,0,0-6.136,0-9c2.698,0,10.299,0,12.998,0c0,2.864,0,9,0,9c0,1.104,0.896,2,2,2
		c0,0,53.269,0,57.001,0c0,2.698,0,10.301,0,13c-3.732,0-57.001,0-57.001,0c-1.104,0-2,0.896-2,2c0,0,0,52.271,0,56
		C24.3,101.5,16.699,101.5,14.001,101.5"/>
	<path fill-opacity="0.1" d="M17.895,108.826c-1.658,0-3-1.344-3-3c0-9.965,1.18-19.385,3.507-27.996
		c2.495-9.229,6.268-17.357,11.215-24.161c5.363-7.376,12.075-13.145,19.95-17.143c7.671-3.895,16.462-6.11,26.176-6.603
		c0-3.605,0-10.754,0-11.111c-0.028-0.219-0.043-0.44-0.043-0.658c0-2.814,2.29-5.104,5.104-5.104c1.489,0,2.893,0.648,3.855,1.76
		c0.626,0.466,31.695,23.582,31.895,23.728c1.516,0.924,2.443,2.564,2.443,4.354c0,1.808-0.943,3.459-2.482,4.38
		c-0.3,0.226-31.3,23.553-31.883,23.994c-0.963,1.094-2.355,1.73-3.828,1.73c-2.814,0-5.104-2.291-5.104-5.104
		c0-0.222,0.015-0.443,0.043-0.666c0-0.147,0-7.516,0-11.377c-11.63,1.068-20.613,6.667-26.732,16.672
		c-2.806,4.59-4.948,10.021-6.364,16.138c-1.249,5.396-1.911,11.331-1.911,17.167c0,1.656-1.342,3-3,3H17.895"/>
	<path fill="#eeb422" d="M15.14,106.826c-1.658,0-3-1.344-3-3c0-9.965,1.18-19.385,3.507-27.996
		c2.495-9.229,6.268-17.357,11.215-24.161c5.363-7.376,12.075-13.145,19.95-17.143c7.671-3.895,16.463-6.11,26.176-6.603
		c0-3.605,0-10.754,0-11.111c-0.028-0.219-0.043-0.44-0.043-0.658c0-2.814,2.289-5.104,5.104-5.104c1.49,0,2.895,0.648,3.855,1.76
		c0.627,0.466,31.697,23.582,31.895,23.728c1.518,0.924,2.444,2.564,2.444,4.354c0,1.808-0.943,3.459-2.481,4.38
		c-0.301,0.226-31.301,23.553-31.884,23.994c-0.963,1.094-2.356,1.73-3.829,1.73c-2.814,0-5.104-2.291-5.104-5.104
		c0-0.222,0.015-0.443,0.043-0.666c0-0.147,0-7.516,0-11.377c-11.631,1.068-20.613,6.667-26.732,16.672
		c-2.806,4.59-4.948,10.021-6.364,16.138c-1.249,5.396-1.911,11.331-1.911,17.167c0,1.656-1.342,3-3,3H15.14"/>
	<g>
		
			<linearGradient id="SVGID_8_" gradientUnits="userSpaceOnUse" x1="301.793" y1="-343.7261" x2="301.793" y2="-253.9502" gradientTransform="matrix(1 0 0 -1 -237.5996 -239.9004)">
			<stop  offset="0" style="stop-color:#FFFFFF"/>
			<stop  offset="0.1758" style="stop-color:#E7E9EA"/>
			<stop  offset="0.4969" style="stop-color:#CDD2D5"/>
			<stop  offset="0.782" style="stop-color:#C5CACC"/>
			<stop  offset="1" style="stop-color:#BABDC0"/>
		</linearGradient>
		<path fill="url(#SVGID_8_)" d="M79.109,67.598l-3.121-2.272V16.563l3.166-2.061l32.955,24.518l0.158,3.623L79.109,67.598
			L79.109,67.598z M78.051,67.997c-1.162,0-2.104-0.94-2.104-2.104c0-1.16,0.941-2.103,2.104-2.103c1.161,0,2.104,0.94,2.104,2.103
			C80.152,67.057,79.212,67.997,78.051,67.997L78.051,67.997z M78.051,18.257c-1.162,0-2.104-0.942-2.104-2.103
			c0-1.163,0.941-2.104,2.104-2.104c1.161,0,2.104,0.942,2.104,2.104C80.152,17.315,79.212,18.257,78.051,18.257L78.051,18.257z
			 M111.141,42.997c-1.16,0-2.103-0.941-2.103-2.104c0-1.161,0.94-2.103,2.103-2.103c1.164,0,2.104,0.942,2.104,2.103
			C113.245,42.056,112.305,42.997,111.141,42.997L111.141,42.997z M34.982,103.826H15.14c0-38.033,17.773-73.008,62.066-73.008
			v19.843C44.803,50.661,34.982,80.676,34.982,103.826L34.982,103.826z"/>
	</g>
	
		<linearGradient id="SVGID_9_" gradientUnits="userSpaceOnUse" x1="328.1211" y1="-274.8516" x2="328.1211" y2="-255.0083" gradientTransform="matrix(1 0 0 -1 -237.5996 -239.9004)">
		<stop  offset="0" style="stop-color:#FFFFFF;stop-opacity:0"/>
		<stop  offset="1" style="stop-color:#FFFFFF;stop-opacity:0.8"/>
	</linearGradient>
	<path fill="url(#SVGID_9_)" d="M76.465,15.108c0,0,0.12,12.026,0,13.229c13.779-3.962,28.111,6.614,28.111,6.614L78.119,15.108
		H76.465L76.465,15.108z"/>
</g>
<g id="orange">
	<path fill="#7B7B7B" d="M12,103.5v-84h16.999v84H12L12,103.5z M6,45.5v-17h82.001v17H1H6z"/>
	
		<radialGradient id="SVGID_10_" cx="283.6006" cy="-300.4004" r="40.5026" gradientTransform="matrix(1 0 0 -1 -237.5996 -239.9004)" gradientUnits="userSpaceOnUse">
		<stop  offset="0.16" style="stop-color:#EAEAEA"/>
		<stop  offset="0.4512" style="stop-color:#CACACA"/>
		<stop  offset="0.78" style="stop-color:#AAAAAA"/>
	</radialGradient>
	<path fill="url(#SVGID_10_)" d="M14.001,101.5c0-3.729,0-56,0-56c0-1.104-0.896-2-2-2c0,0-3.323,0-6,0c0-2.698,0-10.301,0-13
		c2.677,0,6,0,6,0c1.104,0,2-0.896,2-2c0,0,0-6.136,0-9c2.698,0,10.299,0,12.998,0c0,2.864,0,9,0,9c0,1.104,0.896,2,2,2
		c0,0,53.269,0,57.001,0c0,2.698,0,10.301,0,13c-3.732,0-57.001,0-57.001,0c-1.104,0-2,0.896-2,2c0,0,0,52.271,0,56
		C24.3,101.5,16.699,101.5,14.001,101.5"/>
	<path fill-opacity="0.1" d="M17.895,108.826c-1.658,0-3-1.344-3-3c0-9.965,1.18-19.385,3.507-27.996
		c2.495-9.229,6.268-17.357,11.215-24.161c5.363-7.376,12.075-13.145,19.95-17.143c7.671-3.895,16.462-6.11,26.176-6.603
		c0-3.605,0-10.754,0-11.111c-0.028-0.219-0.043-0.44-0.043-0.658c0-2.814,2.29-5.104,5.104-5.104c1.489,0,2.893,0.648,3.855,1.76
		c0.626,0.466,31.695,23.582,31.895,23.728c1.516,0.924,2.443,2.564,2.443,4.354c0,1.808-0.943,3.459-2.482,4.38
		c-0.3,0.226-31.3,23.553-31.883,23.994c-0.963,1.094-2.355,1.73-3.828,1.73c-2.814,0-5.104-2.291-5.104-5.104
		c0-0.222,0.015-0.443,0.043-0.666c0-0.147,0-7.516,0-11.377c-11.63,1.068-20.613,6.667-26.732,16.672
		c-2.806,4.59-4.948,10.021-6.364,16.138c-1.249,5.396-1.911,11.331-1.911,17.167c0,1.656-1.342,3-3,3H17.895"/>
	<path fill="#eeb422" d="M15.14,106.826c-1.658,0-3-1.344-3-3c0-9.965,1.18-19.385,3.507-27.996
		c2.495-9.229,6.268-17.357,11.215-24.161c5.363-7.376,12.075-13.145,19.95-17.143c7.671-3.895,16.463-6.11,26.176-6.603
		c0-3.605,0-10.754,0-11.111c-0.028-0.219-0.043-0.44-0.043-0.658c0-2.814,2.289-5.104,5.104-5.104c1.49,0,2.895,0.648,3.855,1.76
		c0.627,0.466,31.697,23.582,31.895,23.728c1.518,0.924,2.444,2.564,2.444,4.354c0,1.808-0.943,3.459-2.481,4.38
		c-0.301,0.226-31.301,23.553-31.884,23.994c-0.963,1.094-2.356,1.73-3.829,1.73c-2.814,0-5.104-2.291-5.104-5.104
		c0-0.222,0.015-0.443,0.043-0.666c0-0.147,0-7.516,0-11.377c-11.631,1.068-20.613,6.667-26.732,16.672
		c-2.806,4.59-4.948,10.021-6.364,16.138c-1.249,5.396-1.911,11.331-1.911,17.167c0,1.656-1.342,3-3,3H15.14"/>
	<g>
		
			<linearGradient id="SVGID_11_" gradientUnits="userSpaceOnUse" x1="301.793" y1="-343.7261" x2="301.793" y2="-253.9502" gradientTransform="matrix(1 0 0 -1 -237.5996 -239.9004)">
			<stop  offset="0" style="stop-color:#FEDF34"/>
			<stop  offset="0.1758" style="stop-color:#FECD26"/>
			<stop  offset="0.4969" style="stop-color:#FFB211"/>
			<stop  offset="0.782" style="stop-color:#FFA204"/>
			<stop  offset="1" style="stop-color:#FF9C00"/>
		</linearGradient>
		<path fill="url(#SVGID_11_)" d="M79.109,67.598l-3.121-2.272V16.563l3.166-2.061l32.955,24.518l0.158,3.623L79.109,67.598
			L79.109,67.598z M78.051,67.997c-1.162,0-2.104-0.94-2.104-2.104c0-1.16,0.941-2.103,2.104-2.103c1.161,0,2.104,0.94,2.104,2.103
			C80.152,67.057,79.212,67.997,78.051,67.997L78.051,67.997z M78.051,18.257c-1.162,0-2.104-0.942-2.104-2.103
			c0-1.163,0.941-2.104,2.104-2.104c1.161,0,2.104,0.942,2.104,2.104C80.152,17.315,79.212,18.257,78.051,18.257L78.051,18.257z
			 M111.141,42.997c-1.16,0-2.103-0.941-2.103-2.104c0-1.161,0.94-2.103,2.103-2.103c1.164,0,2.104,0.942,2.104,2.103
			C113.245,42.056,112.305,42.997,111.141,42.997L111.141,42.997z M34.982,103.826H15.14c0-38.033,17.773-73.008,62.066-73.008
			v19.843C44.803,50.661,34.982,80.676,34.982,103.826L34.982,103.826z"/>
	</g>
	
		<linearGradient id="SVGID_12_" gradientUnits="userSpaceOnUse" x1="328.1211" y1="-274.8516" x2="328.1211" y2="-255.0083" gradientTransform="matrix(1 0 0 -1 -237.5996 -239.9004)">
		<stop  offset="0" style="stop-color:#FFFFFF;stop-opacity:0"/>
		<stop  offset="1" style="stop-color:#FFFFFF;stop-opacity:0.8"/>
	</linearGradient>
	<path fill="url(#SVGID_12_)" d="M76.465,15.108c0,0,0.12,12.026,0,13.229c13.779-3.962,28.111,6.614,28.111,6.614L78.119,15.108
		H76.465L76.465,15.108z"/>
</g>
<g id="red">
	<path fill="#7B7B7B" d="M12,103.5v-84h16.999v84H12L12,103.5z M6,45.5v-17h82.001v17H1H6z"/>
	
		<radialGradient id="SVGID_13_" cx="283.6006" cy="-300.4004" r="40.5026" gradientTransform="matrix(1 0 0 -1 -237.5996 -239.9004)" gradientUnits="userSpaceOnUse">
		<stop  offset="0.16" style="stop-color:#EAEAEA"/>
		<stop  offset="0.4512" style="stop-color:#CACACA"/>
		<stop  offset="0.78" style="stop-color:#AAAAAA"/>
	</radialGradient>
	<path fill="url(#SVGID_13_)" d="M14.001,101.5c0-3.729,0-56,0-56c0-1.104-0.896-2-2-2c0,0-3.323,0-6,0c0-2.698,0-10.301,0-13
		c2.677,0,6,0,6,0c1.104,0,2-0.896,2-2c0,0,0-6.136,0-9c2.698,0,10.299,0,12.998,0c0,2.864,0,9,0,9c0,1.104,0.896,2,2,2
		c0,0,53.269,0,57.001,0c0,2.698,0,10.301,0,13c-3.732,0-57.001,0-57.001,0c-1.104,0-2,0.896-2,2c0,0,0,52.271,0,56
		C24.3,101.5,16.699,101.5,14.001,101.5"/>
	<path fill-opacity="0.1" d="M17.895,108.826c-1.658,0-3-1.344-3-3c0-9.965,1.18-19.385,3.507-27.996
		c2.495-9.229,6.268-17.357,11.215-24.161c5.363-7.376,12.075-13.145,19.95-17.143c7.671-3.895,16.462-6.11,26.176-6.603
		c0-3.605,0-10.754,0-11.111c-0.028-0.219-0.043-0.44-0.043-0.658c0-2.814,2.29-5.104,5.104-5.104c1.489,0,2.893,0.648,3.855,1.76
		c0.626,0.466,31.695,23.582,31.895,23.728c1.516,0.924,2.443,2.564,2.443,4.354c0,1.808-0.943,3.459-2.482,4.38
		c-0.3,0.226-31.3,23.553-31.883,23.994c-0.963,1.094-2.355,1.73-3.828,1.73c-2.814,0-5.104-2.291-5.104-5.104
		c0-0.222,0.015-0.443,0.043-0.666c0-0.147,0-7.516,0-11.377c-11.63,1.068-20.613,6.667-26.732,16.672
		c-2.806,4.59-4.948,10.021-6.364,16.138c-1.249,5.396-1.911,11.331-1.911,17.167c0,1.656-1.342,3-3,3H17.895"/>
	<path fill="#940202" d="M15.14,106.826c-1.658,0-3-1.344-3-3c0-9.965,1.18-19.385,3.507-27.996
		c2.495-9.229,6.268-17.357,11.215-24.161c5.363-7.376,12.075-13.145,19.95-17.143c7.671-3.895,16.463-6.11,26.176-6.603
		c0-3.605,0-10.754,0-11.111c-0.028-0.219-0.043-0.44-0.043-0.658c0-2.814,2.289-5.104,5.104-5.104c1.49,0,2.895,0.648,3.855,1.76
		c0.627,0.466,31.697,23.582,31.895,23.728c1.518,0.924,2.444,2.564,2.444,4.354c0,1.808-0.943,3.459-2.481,4.38
		c-0.301,0.226-31.301,23.553-31.884,23.994c-0.963,1.094-2.356,1.73-3.829,1.73c-2.814,0-5.104-2.291-5.104-5.104
		c0-0.222,0.015-0.443,0.043-0.666c0-0.147,0-7.516,0-11.377c-11.631,1.068-20.613,6.667-26.732,16.672
		c-2.806,4.59-4.948,10.021-6.364,16.138c-1.249,5.396-1.911,11.331-1.911,17.167c0,1.656-1.342,3-3,3H15.14"/>
	<g>
		
			<linearGradient id="SVGID_14_" gradientUnits="userSpaceOnUse" x1="301.793" y1="-343.7261" x2="301.793" y2="-253.9502" gradientTransform="matrix(1 0 0 -1 -237.5996 -239.9004)">
			<stop  offset="0" style="stop-color:#FF0000"/>
			<stop  offset="0.1758" style="stop-color:#F60303"/>
			<stop  offset="0.4969" style="stop-color:#EC0404"/>
			<stop  offset="0.782" style="stop-color:#E30101"/>
			<stop  offset="1" style="stop-color:#D60202"/>
		</linearGradient>
		<path fill="url(#SVGID_14_)" d="M79.109,67.598l-3.121-2.272V16.563l3.166-2.061l32.955,24.518l0.158,3.623L79.109,67.598
			L79.109,67.598z M78.051,67.997c-1.162,0-2.104-0.94-2.104-2.104c0-1.16,0.941-2.103,2.104-2.103c1.161,0,2.104,0.94,2.104,2.103
			C80.152,67.057,79.212,67.997,78.051,67.997L78.051,67.997z M78.051,18.257c-1.162,0-2.104-0.942-2.104-2.103
			c0-1.163,0.941-2.104,2.104-2.104c1.161,0,2.104,0.942,2.104,2.104C80.152,17.315,79.212,18.257,78.051,18.257L78.051,18.257z
			 M111.141,42.997c-1.16,0-2.103-0.941-2.103-2.104c0-1.161,0.94-2.103,2.103-2.103c1.164,0,2.104,0.942,2.104,2.103
			C113.245,42.056,112.305,42.997,111.141,42.997L111.141,42.997z M34.982,103.826H15.14c0-38.033,17.773-73.008,62.066-73.008
			v19.843C44.803,50.661,34.982,80.676,34.982,103.826L34.982,103.826z"/>
	</g>
	
		<linearGradient id="SVGID_15_" gradientUnits="userSpaceOnUse" x1="328.1211" y1="-274.8516" x2="328.1211" y2="-255.0083" gradientTransform="matrix(1 0 0 -1 -237.5996 -239.9004)">
		<stop  offset="0" style="stop-color:#FFFFFF;stop-opacity:0"/>
		<stop  offset="1" style="stop-color:#FFFFFF;stop-opacity:0.8"/>
	</linearGradient>
	<path fill="url(#SVGID_15_)" d="M76.465,15.108c0,0,0.12,12.026,0,13.229c13.779-3.962,28.111,6.614,28.111,6.614L78.119,15.108
		H76.465L76.465,15.108z"/>
</g>
</svg>
