<?xml version="1.0" encoding="utf-8"?>
<!-- Generator: Adobe Illustrator 16.0.2, SVG Export Plug-In . SVG Version: 6.00 Build 0)  -->
<!DOCTYPE svg PUBLIC "-//W3C//DTD SVG 1.1//EN" "http://www.w3.org/Graphics/SVG/1.1/DTD/svg11.dtd">
<svg version="1.1" id="Layer_1" xmlns="http://www.w3.org/2000/svg" xmlns:xlink="http://www.w3.org/1999/xlink" x="0px" y="0px"
	 width="120px" height="120px" viewBox="0 0 120 120" enable-background="new 0 0 120 120" xml:space="preserve">
<g id="black_white">
	<g>
		<g>
			<path fill="#3A3A3A" d="M99.465,43.13L66.221,18.539c-1.238-0.916-2.992-0.032-2.992,1.508v49.182
				c0,1.541,1.754,2.424,2.992,1.508l33.245-24.59C100.479,45.396,100.479,43.88,99.465,43.13z M19.775,44.638v57.194h20.9V55.088
				h22.55v-20.9h-33C24.453,34.188,19.775,38.866,19.775,44.638z"/>
		</g>
	</g>
</g>
<g id="blue">
	<path fill-opacity="0.1" d="M21,105.784c-1.658,0-3-1.343-3-2.999v-48.23c0-0.096,0.006-0.192,0.014-0.285
		c0.002-0.519,0.027-9.233,0.027-9.233c0-0.064,0.001-0.128,0.006-0.192c0.022-0.328,0.265-3.307,1.941-6.358
		c1.054-1.917,2.447-3.456,4.143-4.576c2.106-1.39,4.619-2.095,7.468-2.095h0.053c0.008,0,8.542,0.013,10.672,0.016
		c7.356,0,14.867-0.015,19.494-0.027c0-3.605,0-10.317,0-10.681c-0.027-0.223-0.043-0.445-0.043-0.665
		c0-2.814,2.289-5.103,5.104-5.103c1.479,0,2.875,0.638,3.837,1.734c0.628,0.461,32.149,23.635,32.313,23.755
		c1.514,0.926,2.439,2.563,2.439,4.353c0,1.823-0.957,3.483-2.518,4.399c-0.305,0.228-7.903,5.879-7.903,5.879
		S71.275,73.16,70.691,73.596c-0.963,1.079-2.351,1.709-3.813,1.709c-2.813,0-5.104-2.289-5.104-5.104
		c0-0.221,0.016-0.443,0.043-0.664c0-0.146,0-7.063,0-10.703c-3.119,0.001-7.75,0.001-7.75,0.001s-5.661,0.002-9.043,0.004
		c0,5.257,0,43.947,0,43.947c0,1.657-1.342,2.999-3,2.999L21,105.784"/>
	<path fill="#00598C" d="M19,103.784c-1.658,0-3-1.343-3-2.999v-48.23c0-0.096,0.006-0.192,0.014-0.285
		c0.002-0.519,0.027-9.233,0.027-9.233c0-0.064,0.001-0.128,0.006-0.192c0.022-0.328,0.265-3.307,1.941-6.358
		c1.054-1.917,2.447-3.456,4.143-4.576c2.106-1.39,4.619-2.095,7.468-2.095h0.053c0.008,0,8.542,0.013,10.672,0.016
		c7.356,0,14.867-0.015,19.496-0.027c0-3.605,0-10.317,0-10.681c-0.029-0.223-0.043-0.445-0.043-0.665
		c0-2.814,2.29-5.103,5.103-5.103c1.479,0,2.875,0.638,3.837,1.734c0.629,0.461,32.149,23.635,32.313,23.755
		c1.515,0.926,2.439,2.563,2.439,4.353c0,1.823-0.957,3.483-2.517,4.399c-0.304,0.228-7.903,5.879-7.903,5.879
		S69.275,71.16,68.691,71.596c-0.963,1.079-2.351,1.709-3.813,1.709c-2.813,0-5.103-2.289-5.103-5.104
		c0-0.221,0.015-0.443,0.043-0.664c0-0.146,0-7.063,0-10.703c-3.12,0.001-7.75,0.001-7.75,0.001s-5.661,0.001-9.043,0.003
		c0,5.256,0,43.948,0,43.948c0,1.657-1.342,2.999-3,2.999L19,103.784"/>
	
		<linearGradient id="SVGID_1_" gradientUnits="userSpaceOnUse" x1="297.334" y1="-340.6851" x2="297.334" y2="-256.2583" gradientTransform="matrix(1 0 0 -1 -237.5996 -239.9004)">
		<stop  offset="0" style="stop-color:#48A2FB"/>
		<stop  offset="0.1758" style="stop-color:#059CF4"/>
		<stop  offset="0.4969" style="stop-color:#0398EF"/>
		<stop  offset="0.782" style="stop-color:#0293E7"/>
		<stop  offset="1" style="stop-color:#0189D8"/>
	</linearGradient>
	<path fill="url(#SVGID_1_)" d="M65.939,69.902l-3.119-2.271v-48.76l3.162-2.063l33.353,24.518l0.157,3.623L65.939,69.902
		L65.939,69.902z M64.88,70.305c-1.161,0-2.103-0.943-2.103-2.104c0-1.161,0.94-2.104,2.103-2.104c1.163,0,2.104,0.942,2.104,2.104
		C66.984,69.361,66.043,70.305,64.88,70.305L64.88,70.305z M64.88,20.565c-1.161,0-2.103-0.942-2.103-2.104
		c0-1.161,0.94-2.103,2.103-2.103c1.163,0,2.104,0.941,2.104,2.103S66.043,20.565,64.88,20.565L64.88,20.565z M98.363,45.305
		c-1.16,0-2.102-0.943-2.102-2.104c0-1.161,0.94-2.104,2.102-2.104c1.164,0,2.104,0.943,2.104,2.104
		C100.468,44.362,99.527,45.305,98.363,45.305L98.363,45.305z M19,100.785v-48.23h21.028v48.23H19L19,100.785z M19.008,53.844
		l0.033-10.797c0,0,0.689-10.267,10.612-10.23c14.167,0.051,38.033-0.037,38.033-0.037v21.05L19.008,53.844L19.008,53.844z"/>
	
		<linearGradient id="SVGID_2_" gradientUnits="userSpaceOnUse" x1="316.0342" y1="-277.9863" x2="316.0342" y2="-258.1436" gradientTransform="matrix(1 0 0 -1 -237.5996 -239.9004)">
		<stop  offset="0" style="stop-color:#FFFFFF;stop-opacity:0"/>
		<stop  offset="1" style="stop-color:#FFFFFF;stop-opacity:0.8"/>
	</linearGradient>
	<path fill="url(#SVGID_2_)" d="M64.379,18.243c0,0,0.118,12.026,0,13.229c13.779-3.962,28.109,6.614,28.109,6.614L66.031,18.243
		H64.379L64.379,18.243z"/>
</g>
<g id="green">
	<path fill-opacity="0.1" d="M21,105.784c-1.658,0-3-1.343-3-2.999v-48.23c0-0.096,0.006-0.192,0.014-0.285
		c0.002-0.519,0.027-9.233,0.027-9.233c0-0.064,0.001-0.128,0.006-0.192c0.022-0.328,0.265-3.307,1.941-6.358
		c1.054-1.917,2.447-3.456,4.143-4.576c2.106-1.39,4.619-2.095,7.468-2.095h0.053c0.008,0,8.542,0.013,10.672,0.016
		c7.356,0,14.867-0.015,19.494-0.027c0-3.605,0-10.317,0-10.681c-0.027-0.223-0.043-0.445-0.043-0.665
		c0-2.814,2.289-5.103,5.104-5.103c1.479,0,2.875,0.638,3.837,1.734c0.628,0.461,32.149,23.635,32.313,23.755
		c1.514,0.926,2.439,2.563,2.439,4.353c0,1.823-0.957,3.483-2.518,4.399c-0.305,0.228-7.903,5.879-7.903,5.879
		S71.275,73.16,70.691,73.596c-0.963,1.079-2.351,1.709-3.813,1.709c-2.813,0-5.104-2.289-5.104-5.104
		c0-0.221,0.016-0.443,0.043-0.664c0-0.146,0-7.063,0-10.703c-3.119,0.001-7.75,0.001-7.75,0.001s-5.661,0.002-9.043,0.004
		c0,5.257,0,43.947,0,43.947c0,1.657-1.342,2.999-3,2.999L21,105.784"/>
	<path fill="#015911" d="M19,103.784c-1.658,0-3-1.343-3-2.999v-48.23c0-0.096,0.006-0.192,0.014-0.285
		c0.002-0.519,0.027-9.233,0.027-9.233c0-0.064,0.001-0.128,0.006-0.192c0.022-0.328,0.265-3.307,1.941-6.358
		c1.054-1.917,2.447-3.456,4.143-4.576c2.106-1.39,4.619-2.095,7.468-2.095h0.053c0.008,0,8.542,0.013,10.672,0.016
		c7.356,0,14.867-0.015,19.496-0.027c0-3.605,0-10.317,0-10.681c-0.029-0.223-0.043-0.445-0.043-0.665
		c0-2.814,2.29-5.103,5.103-5.103c1.479,0,2.875,0.638,3.837,1.734c0.629,0.461,32.149,23.635,32.313,23.755
		c1.515,0.926,2.439,2.563,2.439,4.353c0,1.823-0.957,3.483-2.517,4.399c-0.304,0.228-7.903,5.879-7.903,5.879
		S69.275,71.16,68.691,71.596c-0.963,1.079-2.351,1.709-3.813,1.709c-2.813,0-5.103-2.289-5.103-5.104
		c0-0.221,0.015-0.443,0.043-0.664c0-0.146,0-7.063,0-10.703c-3.12,0.001-7.75,0.001-7.75,0.001s-5.661,0.001-9.043,0.003
		c0,5.256,0,43.948,0,43.948c0,1.657-1.342,2.999-3,2.999L19,103.784"/>
	
		<linearGradient id="SVGID_3_" gradientUnits="userSpaceOnUse" x1="297.334" y1="-340.6851" x2="297.334" y2="-256.2583" gradientTransform="matrix(1 0 0 -1 -237.5996 -239.9004)">
		<stop  offset="0" style="stop-color:#00DF34"/>
		<stop  offset="0.1758" style="stop-color:#00CD26"/>
		<stop  offset="0.4969" style="stop-color:#00B211"/>
		<stop  offset="0.782" style="stop-color:#00A204"/>
		<stop  offset="1" style="stop-color:#009C00"/>
	</linearGradient>
	<path fill="url(#SVGID_3_)" d="M65.939,69.902l-3.119-2.271v-48.76l3.162-2.063l33.353,24.518l0.157,3.623L65.939,69.902
		L65.939,69.902z M64.88,70.305c-1.161,0-2.103-0.943-2.103-2.104c0-1.161,0.94-2.104,2.103-2.104c1.163,0,2.104,0.942,2.104,2.104
		C66.984,69.361,66.043,70.305,64.88,70.305L64.88,70.305z M64.88,20.565c-1.161,0-2.103-0.942-2.103-2.104
		c0-1.161,0.94-2.103,2.103-2.103c1.163,0,2.104,0.941,2.104,2.103S66.043,20.565,64.88,20.565L64.88,20.565z M98.363,45.305
		c-1.16,0-2.102-0.943-2.102-2.104c0-1.161,0.94-2.104,2.102-2.104c1.164,0,2.104,0.943,2.104,2.104
		C100.468,44.362,99.527,45.305,98.363,45.305L98.363,45.305z M19,100.785v-48.23h21.028v48.23H19L19,100.785z M19.008,53.844
		l0.033-10.797c0,0,0.689-10.267,10.612-10.23c14.167,0.051,38.033-0.037,38.033-0.037v21.05L19.008,53.844L19.008,53.844z"/>
	
		<linearGradient id="SVGID_4_" gradientUnits="userSpaceOnUse" x1="316.0342" y1="-277.9863" x2="316.0342" y2="-258.1436" gradientTransform="matrix(1 0 0 -1 -237.5996 -239.9004)">
		<stop  offset="0" style="stop-color:#FFFFFF;stop-opacity:0"/>
		<stop  offset="1" style="stop-color:#FFFFFF;stop-opacity:0.8"/>
	</linearGradient>
	<path fill="url(#SVGID_4_)" d="M64.379,18.243c0,0,0.118,12.026,0,13.229c13.779-3.962,28.109,6.614,28.109,6.614L66.031,18.243
		H64.379L64.379,18.243z"/>
</g>
<g id="kia">
	<path fill-opacity="0.1" d="M21,105.784c-1.658,0-3-1.343-3-2.999v-48.23c0-0.096,0.006-0.192,0.014-0.285
		c0.002-0.519,0.027-9.233,0.027-9.233c0-0.064,0.001-0.128,0.006-0.192c0.022-0.328,0.265-3.307,1.941-6.358
		c1.054-1.917,2.447-3.456,4.143-4.576c2.106-1.39,4.619-2.095,7.468-2.095h0.053c0.008,0,8.542,0.013,10.672,0.016
		c7.356,0,14.867-0.015,19.494-0.027c0-3.605,0-10.317,0-10.681c-0.027-0.223-0.043-0.445-0.043-0.665
		c0-2.814,2.289-5.103,5.104-5.103c1.479,0,2.875,0.638,3.837,1.734c0.628,0.461,32.149,23.635,32.313,23.755
		c1.514,0.926,2.439,2.563,2.439,4.353c0,1.823-0.957,3.483-2.518,4.399c-0.305,0.228-7.903,5.879-7.903,5.879
		S71.275,73.16,70.691,73.596c-0.963,1.079-2.351,1.709-3.813,1.709c-2.813,0-5.104-2.289-5.104-5.104
		c0-0.221,0.016-0.443,0.043-0.664c0-0.146,0-7.063,0-10.703c-3.119,0.001-7.75,0.001-7.75,0.001s-5.661,0.002-9.043,0.004
		c0,5.257,0,43.947,0,43.947c0,1.657-1.342,2.999-3,2.999L21,105.784"/>
	<path fill="#eeb422" d="M19,103.784c-1.658,0-3-1.343-3-2.999v-48.23c0-0.096,0.006-0.192,0.014-0.285
		c0.002-0.519,0.027-9.233,0.027-9.233c0-0.064,0.001-0.128,0.006-0.192c0.022-0.328,0.265-3.307,1.941-6.358
		c1.054-1.917,2.447-3.456,4.143-4.576c2.106-1.39,4.619-2.095,7.468-2.095h0.053c0.008,0,8.542,0.013,10.672,0.016
		c7.356,0,14.867-0.015,19.496-0.027c0-3.605,0-10.317,0-10.681c-0.029-0.223-0.043-0.445-0.043-0.665
		c0-2.814,2.29-5.103,5.103-5.103c1.479,0,2.875,0.638,3.837,1.734c0.629,0.461,32.149,23.635,32.313,23.755
		c1.515,0.926,2.439,2.563,2.439,4.353c0,1.823-0.957,3.483-2.517,4.399c-0.304,0.228-7.903,5.879-7.903,5.879
		S69.275,71.16,68.691,71.596c-0.963,1.079-2.351,1.709-3.813,1.709c-2.813,0-5.103-2.289-5.103-5.104
		c0-0.221,0.015-0.443,0.043-0.664c0-0.146,0-7.063,0-10.703c-3.12,0.001-7.75,0.001-7.75,0.001s-5.661,0.001-9.043,0.003
		c0,5.256,0,43.948,0,43.948c0,1.657-1.342,2.999-3,2.999L19,103.784"/>
	
		<linearGradient id="SVGID_5_" gradientUnits="userSpaceOnUse" x1="297.334" y1="-340.6851" x2="297.334" y2="-256.2583" gradientTransform="matrix(1 0 0 -1 -237.5996 -239.9004)">
		<stop  offset="0" style="stop-color:#FFFFFF"/>
		<stop  offset="0.1758" style="stop-color:#E7E9EA"/>
		<stop  offset="0.4969" style="stop-color:#CDD2D5"/>
		<stop  offset="0.782" style="stop-color:#C5CACC"/>
		<stop  offset="1" style="stop-color:#BABDC0"/>
	</linearGradient>
	<path fill="url(#SVGID_5_)" d="M65.939,69.902l-3.119-2.271v-48.76l3.162-2.063l33.353,24.518l0.157,3.623L65.939,69.902
		L65.939,69.902z M64.88,70.305c-1.161,0-2.103-0.943-2.103-2.104c0-1.161,0.94-2.104,2.103-2.104c1.163,0,2.104,0.942,2.104,2.104
		C66.984,69.361,66.043,70.305,64.88,70.305L64.88,70.305z M64.88,20.565c-1.161,0-2.103-0.942-2.103-2.104
		c0-1.161,0.94-2.103,2.103-2.103c1.163,0,2.104,0.941,2.104,2.103S66.043,20.565,64.88,20.565L64.88,20.565z M98.363,45.305
		c-1.16,0-2.102-0.943-2.102-2.104c0-1.161,0.94-2.104,2.102-2.104c1.164,0,2.104,0.943,2.104,2.104
		C100.468,44.362,99.527,45.305,98.363,45.305L98.363,45.305z M19,100.785v-48.23h21.028v48.23H19L19,100.785z M19.008,53.844
		l0.033-10.797c0,0,0.689-10.267,10.612-10.23c14.167,0.051,38.033-0.037,38.033-0.037v21.05L19.008,53.844L19.008,53.844z"/>
	
		<linearGradient id="SVGID_6_" gradientUnits="userSpaceOnUse" x1="316.0342" y1="-277.9863" x2="316.0342" y2="-258.1436" gradientTransform="matrix(1 0 0 -1 -237.5996 -239.9004)">
		<stop  offset="0" style="stop-color:#FFFFFF;stop-opacity:0"/>
		<stop  offset="1" style="stop-color:#FFFFFF;stop-opacity:0.8"/>
	</linearGradient>
	<path fill="url(#SVGID_6_)" d="M64.379,18.243c0,0,0.118,12.026,0,13.229c13.779-3.962,28.109,6.614,28.109,6.614L66.031,18.243
		H64.379L64.379,18.243z"/>
</g>
<g id="orange">
	<path fill-opacity="0.1" d="M21,105.784c-1.658,0-3-1.343-3-2.999v-48.23c0-0.096,0.006-0.192,0.014-0.285
		c0.002-0.519,0.027-9.233,0.027-9.233c0-0.064,0.001-0.128,0.006-0.192c0.022-0.328,0.265-3.307,1.941-6.358
		c1.054-1.917,2.447-3.456,4.143-4.576c2.106-1.39,4.619-2.095,7.468-2.095h0.053c0.008,0,8.542,0.013,10.672,0.016
		c7.356,0,14.867-0.015,19.494-0.027c0-3.605,0-10.317,0-10.681c-0.027-0.223-0.043-0.445-0.043-0.665
		c0-2.814,2.289-5.103,5.104-5.103c1.479,0,2.875,0.638,3.837,1.734c0.628,0.461,32.149,23.635,32.313,23.755
		c1.514,0.926,2.439,2.563,2.439,4.353c0,1.823-0.957,3.483-2.518,4.399c-0.305,0.228-7.903,5.879-7.903,5.879
		S71.275,73.16,70.691,73.596c-0.963,1.079-2.351,1.709-3.813,1.709c-2.813,0-5.104-2.289-5.104-5.104
		c0-0.221,0.016-0.443,0.043-0.664c0-0.146,0-7.063,0-10.703c-3.119,0.001-7.75,0.001-7.75,0.001s-5.661,0.002-9.043,0.004
		c0,5.257,0,43.947,0,43.947c0,1.657-1.342,2.999-3,2.999L21,105.784"/>
	<path fill="#eeb422" d="M19,103.784c-1.658,0-3-1.343-3-2.999v-48.23c0-0.096,0.006-0.192,0.014-0.285
		c0.002-0.519,0.027-9.233,0.027-9.233c0-0.064,0.001-0.128,0.006-0.192c0.022-0.328,0.265-3.307,1.941-6.358
		c1.054-1.917,2.447-3.456,4.143-4.576c2.106-1.39,4.619-2.095,7.468-2.095h0.053c0.008,0,8.542,0.013,10.672,0.016
		c7.356,0,14.867-0.015,19.496-0.027c0-3.605,0-10.317,0-10.681c-0.029-0.223-0.043-0.445-0.043-0.665
		c0-2.814,2.29-5.103,5.103-5.103c1.479,0,2.875,0.638,3.837,1.734c0.629,0.461,32.149,23.635,32.313,23.755
		c1.515,0.926,2.439,2.563,2.439,4.353c0,1.823-0.957,3.483-2.517,4.399c-0.304,0.228-7.903,5.879-7.903,5.879
		S69.275,71.16,68.691,71.596c-0.963,1.079-2.351,1.709-3.813,1.709c-2.813,0-5.103-2.289-5.103-5.104
		c0-0.221,0.015-0.443,0.043-0.664c0-0.146,0-7.063,0-10.703c-3.12,0.001-7.75,0.001-7.75,0.001s-5.661,0.001-9.043,0.003
		c0,5.256,0,43.948,0,43.948c0,1.657-1.342,2.999-3,2.999L19,103.784"/>
	
		<linearGradient id="SVGID_7_" gradientUnits="userSpaceOnUse" x1="297.334" y1="-340.6851" x2="297.334" y2="-256.2583" gradientTransform="matrix(1 0 0 -1 -237.5996 -239.9004)">
		<stop  offset="0" style="stop-color:#FEDF34"/>
		<stop  offset="0.1758" style="stop-color:#FECD26"/>
		<stop  offset="0.4969" style="stop-color:#FFB211"/>
		<stop  offset="0.782" style="stop-color:#FFA204"/>
		<stop  offset="1" style="stop-color:#FF9C00"/>
	</linearGradient>
	<path fill="url(#SVGID_7_)" d="M65.939,69.902l-3.119-2.271v-48.76l3.162-2.063l33.353,24.518l0.157,3.623L65.939,69.902
		L65.939,69.902z M64.88,70.305c-1.161,0-2.103-0.943-2.103-2.104c0-1.161,0.94-2.104,2.103-2.104c1.163,0,2.104,0.942,2.104,2.104
		C66.984,69.361,66.043,70.305,64.88,70.305L64.88,70.305z M64.88,20.565c-1.161,0-2.103-0.942-2.103-2.104
		c0-1.161,0.94-2.103,2.103-2.103c1.163,0,2.104,0.941,2.104,2.103S66.043,20.565,64.88,20.565L64.88,20.565z M98.363,45.305
		c-1.16,0-2.102-0.943-2.102-2.104c0-1.161,0.94-2.104,2.102-2.104c1.164,0,2.104,0.943,2.104,2.104
		C100.468,44.362,99.527,45.305,98.363,45.305L98.363,45.305z M19,100.785v-48.23h21.028v48.23H19L19,100.785z M19.008,53.844
		l0.033-10.797c0,0,0.689-10.267,10.612-10.23c14.167,0.051,38.033-0.037,38.033-0.037v21.05L19.008,53.844L19.008,53.844z"/>
	
		<linearGradient id="SVGID_8_" gradientUnits="userSpaceOnUse" x1="316.0342" y1="-277.9863" x2="316.0342" y2="-258.1436" gradientTransform="matrix(1 0 0 -1 -237.5996 -239.9004)">
		<stop  offset="0" style="stop-color:#FFFFFF;stop-opacity:0"/>
		<stop  offset="1" style="stop-color:#FFFFFF;stop-opacity:0.8"/>
	</linearGradient>
	<path fill="url(#SVGID_8_)" d="M64.379,18.243c0,0,0.118,12.026,0,13.229c13.779-3.962,28.109,6.614,28.109,6.614L66.031,18.243
		H64.379L64.379,18.243z"/>
</g>
<g id="red">
	<path fill-opacity="0.1" d="M21,105.784c-1.658,0-3-1.343-3-2.999v-48.23c0-0.096,0.006-0.192,0.014-0.285
		c0.002-0.519,0.027-9.233,0.027-9.233c0-0.064,0.001-0.128,0.006-0.192c0.022-0.328,0.265-3.307,1.941-6.358
		c1.054-1.917,2.447-3.456,4.143-4.576c2.106-1.39,4.619-2.095,7.468-2.095h0.053c0.008,0,8.542,0.013,10.672,0.016
		c7.356,0,14.867-0.015,19.494-0.027c0-3.605,0-10.317,0-10.681c-0.027-0.223-0.043-0.445-0.043-0.665
		c0-2.814,2.289-5.103,5.104-5.103c1.479,0,2.875,0.638,3.837,1.734c0.628,0.461,32.149,23.635,32.313,23.755
		c1.514,0.926,2.439,2.563,2.439,4.353c0,1.823-0.957,3.483-2.518,4.399c-0.305,0.228-7.903,5.879-7.903,5.879
		S71.275,73.16,70.691,73.596c-0.963,1.079-2.351,1.709-3.813,1.709c-2.813,0-5.104-2.289-5.104-5.104
		c0-0.221,0.016-0.443,0.043-0.664c0-0.146,0-7.063,0-10.703c-3.119,0.001-7.75,0.001-7.75,0.001s-5.661,0.002-9.043,0.004
		c0,5.257,0,43.947,0,43.947c0,1.657-1.342,2.999-3,2.999L21,105.784"/>
	<path fill="#940202" d="M19,103.784c-1.658,0-3-1.343-3-2.999v-48.23c0-0.096,0.006-0.192,0.014-0.285
		c0.002-0.519,0.027-9.233,0.027-9.233c0-0.064,0.001-0.128,0.006-0.192c0.022-0.328,0.265-3.307,1.941-6.358
		c1.054-1.917,2.447-3.456,4.143-4.576c2.106-1.39,4.619-2.095,7.468-2.095h0.053c0.008,0,8.542,0.013,10.672,0.016
		c7.356,0,14.867-0.015,19.496-0.027c0-3.605,0-10.317,0-10.681c-0.029-0.223-0.043-0.445-0.043-0.665
		c0-2.814,2.29-5.103,5.103-5.103c1.479,0,2.875,0.638,3.837,1.734c0.629,0.461,32.149,23.635,32.313,23.755
		c1.515,0.926,2.439,2.563,2.439,4.353c0,1.823-0.957,3.483-2.517,4.399c-0.304,0.228-7.903,5.879-7.903,5.879
		S69.275,71.16,68.691,71.596c-0.963,1.079-2.351,1.709-3.813,1.709c-2.813,0-5.103-2.289-5.103-5.104
		c0-0.221,0.015-0.443,0.043-0.664c0-0.146,0-7.063,0-10.703c-3.12,0.001-7.75,0.001-7.75,0.001s-5.661,0.001-9.043,0.003
		c0,5.256,0,43.948,0,43.948c0,1.657-1.342,2.999-3,2.999L19,103.784"/>
	
		<linearGradient id="SVGID_9_" gradientUnits="userSpaceOnUse" x1="297.334" y1="-340.6851" x2="297.334" y2="-256.2583" gradientTransform="matrix(1 0 0 -1 -237.5996 -239.9004)">
		<stop  offset="0" style="stop-color:#FF0000"/>
		<stop  offset="0.1758" style="stop-color:#F60303"/>
		<stop  offset="0.4969" style="stop-color:#EC0404"/>
		<stop  offset="0.782" style="stop-color:#E30101"/>
		<stop  offset="1" style="stop-color:#D60202"/>
	</linearGradient>
	<path fill="url(#SVGID_9_)" d="M65.939,69.902l-3.119-2.271v-48.76l3.162-2.063l33.353,24.518l0.157,3.623L65.939,69.902
		L65.939,69.902z M64.88,70.305c-1.161,0-2.103-0.943-2.103-2.104c0-1.161,0.94-2.104,2.103-2.104c1.163,0,2.104,0.942,2.104,2.104
		C66.984,69.361,66.043,70.305,64.88,70.305L64.88,70.305z M64.88,20.565c-1.161,0-2.103-0.942-2.103-2.104
		c0-1.161,0.94-2.103,2.103-2.103c1.163,0,2.104,0.941,2.104,2.103S66.043,20.565,64.88,20.565L64.88,20.565z M98.363,45.305
		c-1.16,0-2.102-0.943-2.102-2.104c0-1.161,0.94-2.104,2.102-2.104c1.164,0,2.104,0.943,2.104,2.104
		C100.468,44.362,99.527,45.305,98.363,45.305L98.363,45.305z M19,100.785v-48.23h21.028v48.23H19L19,100.785z M19.008,53.844
		l0.033-10.797c0,0,0.689-10.267,10.612-10.23c14.167,0.051,38.033-0.037,38.033-0.037v21.05L19.008,53.844L19.008,53.844z"/>
	
		<linearGradient id="SVGID_10_" gradientUnits="userSpaceOnUse" x1="316.0342" y1="-277.9863" x2="316.0342" y2="-258.1436" gradientTransform="matrix(1 0 0 -1 -237.5996 -239.9004)">
		<stop  offset="0" style="stop-color:#FFFFFF;stop-opacity:0"/>
		<stop  offset="1" style="stop-color:#FFFFFF;stop-opacity:0.8"/>
	</linearGradient>
	<path fill="url(#SVGID_10_)" d="M64.379,18.243c0,0,0.118,12.026,0,13.229c13.779-3.962,28.109,6.614,28.109,6.614L66.031,18.243
		H64.379L64.379,18.243z"/>
</g>
</svg>
