<?xml version="1.0" encoding="utf-8"?>
<!-- Generator: Adobe Illustrator 17.1.0, SVG Export Plug-In . SVG Version: 6.00 Build 0)  -->
<!DOCTYPE svg PUBLIC "-//W3C//DTD SVG 1.1//EN" "http://www.w3.org/Graphics/SVG/1.1/DTD/svg11.dtd">
<svg version="1.1" id="Layer_1" xmlns="http://www.w3.org/2000/svg" xmlns:xlink="http://www.w3.org/1999/xlink" x="0px" y="0px"
	 width="420px" height="366px" viewBox="0 0 420 366" enable-background="new 0 0 420 366" xml:space="preserve">
<linearGradient id="SVGID_1_" gradientUnits="userSpaceOnUse" x1="340.15" y1="44" x2="340.15" y2="55.87" gradientTransform="matrix(1 0 0 1 0 236)">
	<stop  offset="0" style="stop-color:#eeb422"/>
	<stop  offset="0.2252" style="stop-color:#ffc125"/>
	<stop  offset="0.544" style="stop-color:#eec900"/>
	<stop  offset="0.8137" style="stop-color:#ffd700"/>
	<stop  offset="1" style="stop-color:#ffd700"/>
</linearGradient>
<polygon fill="url(#SVGID_1_)" points="340,291.9 334.8,280 345.5,280 "/>
<g id="cover">
	<g>
		<g>
			
				<linearGradient id="SVGID_2_" gradientUnits="userSpaceOnUse" x1="295.7594" y1="106.8533" x2="384.4523" y2="-6.6682" gradientTransform="matrix(1 0 0 1 0 236)">
				<stop  offset="0" style="stop-color:#eeb422"/>
				<stop  offset="0.2123" style="stop-color:#FFFFFF"/>
				<stop  offset="0.3113" style="stop-color:#eeb422"/>
				<stop  offset="0.533" style="stop-color:#eeb422"/>
				<stop  offset="0.7547" style="stop-color:#FFFFFF"/>
				<stop  offset="0.8632" style="stop-color:#eeb422"/>
				<stop  offset="1" style="stop-color:#eeb422"/>
			</linearGradient>
			<path fill="url(#SVGID_2_)" d="M340.1,214.1c-39.8,0-72,32.2-72,72s32.2,72,72,72s72-32.2,72-72
				C412.2,246.3,379.9,214.1,340.1,214.1z M340.1,346.8c-33.5,0-60.7-27.2-60.7-60.7s27.2-60.7,60.7-60.7s60.7,27.2,60.7,60.7
				S373.6,346.8,340.1,346.8z"/>
		</g>
	</g>
	<g>
		<g>
			<path fill="#C5C5C5" d="M340.1,218.8c-37.2,0-67.3,30.1-67.3,67.3s30.1,67.3,67.3,67.3s67.3-30.1,67.3-67.3
				S377.3,218.8,340.1,218.8z M340.1,346.8c-33.5,0-60.7-27.2-60.7-60.7s27.2-60.7,60.7-60.7s60.7,27.2,60.7,60.7
				S373.6,346.8,340.1,346.8z"/>
		</g>
	</g>
	<g>
		<g>
			
				<radialGradient id="SVGID_3_" cx="341.391" cy="52.359" r="69.6092" gradientTransform="matrix(1 0 0 1 0 236)" gradientUnits="userSpaceOnUse">
				<stop  offset="3.470000e-002" style="stop-color:#403C3C"/>
				<stop  offset="0.8726" style="stop-color:#403C3C"/>
				<stop  offset="0.9623" style="stop-color:#000000"/>
				<stop  offset="0.9811" style="stop-color:#C5C5C5"/>
			</radialGradient>
			<path fill="url(#SVGID_3_)" d="M340.1,218.8c-37.2,0-67.3,30.1-67.3,67.3s30.1,67.3,67.3,67.3s67.3-30.1,67.3-67.3
				S377.3,218.8,340.1,218.8z M340.1,346.8c-33.5,0-60.7-27.2-60.7-60.7s27.2-60.7,60.7-60.7s60.7,27.2,60.7,60.7
				S373.6,346.8,340.1,346.8z"/>
		</g>
	</g>
	
		<linearGradient id="SVGID_4_" gradientUnits="userSpaceOnUse" x1="279.4" y1="50.2" x2="400.8" y2="50.2" gradientTransform="matrix(1 0 0 1 0 236)">
		<stop  offset="0" style="stop-color:#FFFFFF"/>
		<stop  offset="0.35" style="stop-color:#080808;stop-opacity:0"/>
		<stop  offset="0.65" style="stop-color:#0B0B0B;stop-opacity:0"/>
		<stop  offset="1" style="stop-color:#FFFFFF"/>
	</linearGradient>
	<path fill="url(#SVGID_4_)" d="M340.1,225.5c33.5,0,60.7,27.2,60.7,60.7s-27.2,60.7-60.7,60.7s-60.7-27.2-60.7-60.7
		S306.6,225.5,340.1,225.5L340.1,225.5z"/>
</g>
</svg>
