<?xml version="1.0" encoding="utf-8"?>
<!-- Generator: Adobe Illustrator 16.0.2, SVG Export Plug-In . SVG Version: 6.00 Build 0)  -->
<!DOCTYPE svg PUBLIC "-//W3C//DTD SVG 1.1//EN" "http://www.w3.org/Graphics/SVG/1.1/DTD/svg11.dtd">
<svg version="1.1" id="Layer_1" xmlns="http://www.w3.org/2000/svg" xmlns:xlink="http://www.w3.org/1999/xlink" x="0px" y="0px"
	 width="120px" height="120px" viewBox="0 0 120 120" enable-background="new 0 0 120 120" xml:space="preserve">
<g id="black_white">
	<path fill="#3A3A3A" d="M89.904,84.115H32.026H18.522H9.84V70.609h33.623c0.048,0.002,0.092,0.015,0.139,0.015
		c0.048,0,0.092-0.013,0.139-0.015h30.583c0.048,0.002,0.092,0.015,0.139,0.015s0.092-0.013,0.139-0.015h35.558v13.506h-6.751
		H89.904L89.904,84.115z M96.657,90.867c0,3.729-3.023,6.752-6.753,6.752c-3.729,0-6.752-3.023-6.752-6.752s3.023-6.752,6.752-6.752
		C93.634,84.115,96.657,87.139,96.657,90.867L96.657,90.867z M103.409,84.115c3.728,0,6.751,3.023,6.751,6.752
		s-3.023,6.752-6.751,6.752c-3.729,0-6.752-3.023-6.752-6.752S99.68,84.115,103.409,84.115L103.409,84.115z M25.274,90.867
		c0,3.729-3.023,6.752-6.752,6.752c-3.728,0-6.751-3.023-6.751-6.752s3.023-6.752,6.751-6.752
		C22.251,84.115,25.274,87.139,25.274,90.867L25.274,90.867z M32.026,84.115c3.729,0,6.752,3.023,6.752,6.752
		s-3.023,6.752-6.752,6.752s-6.752-3.023-6.752-6.752S28.297,84.115,32.026,84.115L32.026,84.115z M78.55,63.852
		c0,2.267-1.827,4.1-4.079,4.1c-2.256,0-4.082-1.834-4.082-4.1c0-2.264,1.826-4.099,4.082-4.099
		C76.723,59.753,78.55,61.588,78.55,63.852L78.55,63.852z M47.689,63.852c0,2.267-1.827,4.1-4.082,4.1c-2.253,0-4.08-1.834-4.08-4.1
		c0-2.264,1.827-4.099,4.08-4.099C45.863,59.753,47.689,61.588,47.689,63.852L47.689,63.852z M74.463,57.089
		c-3.548,0-6.423,2.764-6.688,6.257l-17.489-0.033c-0.28-3.478-3.146-6.224-6.684-6.224c-3.527,0-6.388,2.732-6.68,6.198
		l-5.833-0.012c0,0-0.065-1.406,0.014-4.387c0.06-2.243,6.442-6.106,8.215-6.257c4.954-0.423,10.078-0.81,10.078-0.81
		s3.056-3.308,4.061-4.665c0.4-0.22,0.735-1.441,2.975-1.57c5.185-0.259,13.323,0.292,14.488,0.3
		c1.164,0.009,1.729,0.289,2.439,1.393c0.736,1.143,2.973,5.222,2.973,5.222s5.402,0.359,8.546,0.645
		c1.381,0.125,2.097,0.254,2.716,1.79c0.713,1.767,1.379,8.455,1.379,8.455l-7.822-0.017C80.902,59.865,78.021,57.089,74.463,57.089
		L74.463,57.089z M67.718,35.884h-9.647v-7.716h9.647V22.38l9.646,9.645l-9.646,9.647V35.884L67.718,35.884z"/>
</g>
<g id="blue">
	<path fill-opacity="0.1" d="M31.33,106.922c-8.949,0-16.229-7.279-16.229-16.229V31.164c0-8.948,7.28-16.228,16.229-16.228h59.527
		c8.949,0,16.229,7.28,16.229,16.228v59.529c0,8.947-7.28,16.229-16.229,16.229H31.33"/>
	<path fill="#70B7E0" d="M29.33,104.922c-8.949,0-16.229-7.279-16.229-16.229V29.164c0-8.948,7.28-16.228,16.229-16.228h59.527
		c8.949,0,16.229,7.28,16.229,16.228v59.529c0,8.947-7.28,16.229-16.229,16.229H29.33"/>
	<g>
		
			<linearGradient id="SVGID_1_" gradientUnits="userSpaceOnUse" x1="296.6943" y1="-341.8228" x2="296.6942" y2="-255.8354" gradientTransform="matrix(1 0 0 -1 -237.5996 -239.9004)">
			<stop  offset="0" style="stop-color:#48A2FB"/>
			<stop  offset="0.1758" style="stop-color:#059CF4"/>
			<stop  offset="0.4969" style="stop-color:#0398EF"/>
			<stop  offset="0.782" style="stop-color:#0293E7"/>
			<stop  offset="1" style="stop-color:#0189D8"/>
		</linearGradient>
		<path fill="url(#SVGID_1_)" d="M88.857,101.923H29.33c-7.306,0-13.23-5.923-13.23-13.229V29.164
			c0-7.306,5.924-13.229,13.23-13.229h59.527c7.308,0,13.23,5.922,13.23,13.229v59.529C102.089,96,96.165,101.923,88.857,101.923
			L88.857,101.923z"/>
	</g>
	<path fill="#70B7E0" d="M93.798,68.922H24.465c-0.913,0-1.653-0.74-1.653-1.654v-8.247c0-0.915,0.74-1.654,1.653-1.654h69.333
		c0.913,0,1.652,0.74,1.652,1.654v8.247C95.45,68.182,94.711,68.922,93.798,68.922L93.798,68.922z M87.568,83.385
		c-3.523,0-6.379-2.855-6.379-6.38s2.854-6.381,6.379-6.381c3.523,0,6.382,2.856,6.382,6.381S91.093,83.385,87.568,83.385
		L87.568,83.385z M72.768,83.385c-3.523,0-6.381-2.855-6.381-6.38s2.856-6.381,6.381-6.381c3.523,0,6.381,2.856,6.381,6.381
		S76.29,83.385,72.768,83.385L72.768,83.385z M45.04,83.385c-3.523,0-6.38-2.855-6.38-6.38s2.857-6.381,6.38-6.381
		c3.525,0,6.38,2.856,6.38,6.381S48.564,83.385,45.04,83.385L45.04,83.385z M30.238,83.385c-3.525,0-6.382-2.855-6.382-6.38
		s2.857-6.381,6.382-6.381c3.523,0,6.38,2.856,6.38,6.381S33.762,83.385,30.238,83.385L30.238,83.385z"/>
	<path fill="#FFFFFF" d="M84.188,77.005c0-1.864,1.518-3.381,3.381-3.381c1.865,0,3.382,1.517,3.382,3.381s-1.517,3.382-3.382,3.382
		C85.705,80.387,84.188,78.869,84.188,77.005 M69.387,77.005c0-1.864,1.516-3.381,3.381-3.381c1.863,0,3.381,1.517,3.381,3.381
		s-1.518,3.382-3.381,3.382C70.902,80.387,69.387,78.869,69.387,77.005 M41.659,77.005c0-1.864,1.517-3.381,3.381-3.381
		c1.864,0,3.381,1.517,3.381,3.381s-1.517,3.382-3.381,3.382C43.176,80.387,41.659,78.869,41.659,77.005 M26.856,77.005
		c0-1.864,1.518-3.381,3.382-3.381c1.864,0,3.381,1.517,3.381,3.381s-1.517,3.382-3.381,3.382
		C28.374,80.387,26.856,78.869,26.856,77.005 M25.812,67.232c0,0.011,0,0.022,0,0.035V67.232 M25.812,65.922
		c0-1.518,0-4.039,0-5.556c2.538,0,64.1,0,66.639,0c0,1.517,0,4.038,0,5.556C89.912,65.922,28.35,65.922,25.812,65.922
		 M92.451,59.021v0.035C92.451,59.045,92.451,59.032,92.451,59.021 M25.812,59.021c0,0.011,0,0.024,0,0.035V59.021"/>
	<path fill="#70B7E0" d="M89.4,21.927l9.313,9.312c0.646,0.645,0.646,1.692,0,2.338L34.588,97.702c-0.645,0.646-1.692,0.646-2.338,0
		l-9.313-9.313c-0.646-0.646-0.646-1.691,0-2.338l64.125-64.125C87.709,21.28,88.756,21.28,89.4,21.927L89.4,21.927z"/>
	<path fill="#FF2A2A" d="M24.596,87.221c0.49-0.49,63.153-63.151,63.636-63.635c0.451,0.452,8.369,8.37,8.82,8.821
		c-0.482,0.485-63.151,63.151-63.635,63.636C32.967,95.592,25.048,87.672,24.596,87.221"/>
	
		<linearGradient id="SVGID_2_" gradientUnits="userSpaceOnUse" x1="297.291" y1="-282.6055" x2="297.291" y2="-257.9302" gradientTransform="matrix(1 0 0 -1 -237.5996 -239.9004)">
		<stop  offset="0" style="stop-color:#FFFFFF;stop-opacity:0"/>
		<stop  offset="1" style="stop-color:#FFFFFF;stop-opacity:0.8"/>
	</linearGradient>
	<path fill="url(#SVGID_2_)" d="M36.279,34.888c-10.953-3.797-15.283-8.096-16.986-10.74c1.672-3.347,4.899-5.653,8.636-6.118
		c0.237,0,61.958,0,61.958,0l0.297,0.01c0,0,0.086,0.005,0.168,0.008c5.557,0.737,9.737,5.503,9.737,11.116c0,0,0,10.497,0,13.541
		C72.244,42.546,50.784,39.917,36.279,34.888"/>
</g>
<g id="green">
	<path fill-opacity="0.1" d="M31.33,106.922c-8.949,0-16.229-7.279-16.229-16.229V31.164c0-8.948,7.28-16.228,16.229-16.228h59.527
		c8.949,0,16.229,7.28,16.229,16.228v59.529c0,8.947-7.28,16.229-16.229,16.229H31.33"/>
	<path fill="#03FC30" d="M29.33,104.922c-8.949,0-16.229-7.279-16.229-16.229V29.164c0-8.948,7.28-16.228,16.229-16.228h59.527
		c8.949,0,16.229,7.28,16.229,16.228v59.529c0,8.947-7.28,16.229-16.229,16.229H29.33"/>
	<g>
		
			<linearGradient id="SVGID_3_" gradientUnits="userSpaceOnUse" x1="296.6943" y1="-341.8228" x2="296.6942" y2="-255.8354" gradientTransform="matrix(1 0 0 -1 -237.5996 -239.9004)">
			<stop  offset="0" style="stop-color:#00DF34"/>
			<stop  offset="0.1758" style="stop-color:#00CD26"/>
			<stop  offset="0.4969" style="stop-color:#00B211"/>
			<stop  offset="0.782" style="stop-color:#00A204"/>
			<stop  offset="1" style="stop-color:#009C00"/>
		</linearGradient>
		<path fill="url(#SVGID_3_)" d="M88.857,101.923H29.33c-7.306,0-13.23-5.923-13.23-13.229V29.164
			c0-7.306,5.924-13.229,13.23-13.229h59.527c7.308,0,13.23,5.922,13.23,13.229v59.529C102.089,96,96.165,101.923,88.857,101.923
			L88.857,101.923z"/>
	</g>
	<path fill="#03FC30" d="M93.798,68.922H24.465c-0.913,0-1.653-0.74-1.653-1.654v-8.247c0-0.915,0.74-1.654,1.653-1.654h69.333
		c0.913,0,1.652,0.74,1.652,1.654v8.247C95.45,68.182,94.711,68.922,93.798,68.922L93.798,68.922z M87.568,83.385
		c-3.523,0-6.379-2.855-6.379-6.38s2.854-6.381,6.379-6.381c3.523,0,6.382,2.856,6.382,6.381S91.093,83.385,87.568,83.385
		L87.568,83.385z M72.768,83.385c-3.523,0-6.381-2.855-6.381-6.38s2.856-6.381,6.381-6.381c3.523,0,6.381,2.856,6.381,6.381
		S76.29,83.385,72.768,83.385L72.768,83.385z M45.04,83.385c-3.523,0-6.38-2.855-6.38-6.38s2.857-6.381,6.38-6.381
		c3.525,0,6.38,2.856,6.38,6.381S48.564,83.385,45.04,83.385L45.04,83.385z M30.238,83.385c-3.525,0-6.382-2.855-6.382-6.38
		s2.857-6.381,6.382-6.381c3.523,0,6.38,2.856,6.38,6.381S33.762,83.385,30.238,83.385L30.238,83.385z"/>
	<path fill="#FFFFFF" d="M84.188,77.005c0-1.864,1.518-3.381,3.381-3.381c1.865,0,3.382,1.517,3.382,3.381s-1.517,3.382-3.382,3.382
		C85.705,80.387,84.188,78.869,84.188,77.005 M69.387,77.005c0-1.864,1.516-3.381,3.381-3.381c1.863,0,3.381,1.517,3.381,3.381
		s-1.518,3.382-3.381,3.382C70.902,80.387,69.387,78.869,69.387,77.005 M41.659,77.005c0-1.864,1.517-3.381,3.381-3.381
		c1.864,0,3.381,1.517,3.381,3.381s-1.517,3.382-3.381,3.382C43.176,80.387,41.659,78.869,41.659,77.005 M26.856,77.005
		c0-1.864,1.518-3.381,3.382-3.381c1.864,0,3.381,1.517,3.381,3.381s-1.517,3.382-3.381,3.382
		C28.374,80.387,26.856,78.869,26.856,77.005 M25.812,67.232c0,0.011,0,0.022,0,0.035V67.232 M25.812,65.922
		c0-1.518,0-4.039,0-5.556c2.538,0,64.1,0,66.639,0c0,1.517,0,4.038,0,5.556C89.912,65.922,28.35,65.922,25.812,65.922
		 M92.451,59.021v0.035C92.451,59.045,92.451,59.032,92.451,59.021 M25.812,59.021c0,0.011,0,0.024,0,0.035V59.021"/>
	<path fill="#03FC30" d="M89.4,21.927l9.313,9.312c0.646,0.645,0.646,1.692,0,2.338L34.588,97.702c-0.645,0.646-1.692,0.646-2.338,0
		l-9.313-9.313c-0.646-0.646-0.646-1.691,0-2.338l64.125-64.125C87.709,21.28,88.756,21.28,89.4,21.927L89.4,21.927z"/>
	<path fill="#FF2A2A" d="M24.596,87.221c0.49-0.49,63.153-63.151,63.636-63.635c0.451,0.452,8.369,8.37,8.82,8.821
		c-0.482,0.485-63.151,63.151-63.635,63.636C32.967,95.592,25.048,87.672,24.596,87.221"/>
	
		<linearGradient id="SVGID_4_" gradientUnits="userSpaceOnUse" x1="297.291" y1="-282.6055" x2="297.291" y2="-257.9302" gradientTransform="matrix(1 0 0 -1 -237.5996 -239.9004)">
		<stop  offset="0" style="stop-color:#FFFFFF;stop-opacity:0"/>
		<stop  offset="1" style="stop-color:#FFFFFF;stop-opacity:0.8"/>
	</linearGradient>
	<path fill="url(#SVGID_4_)" d="M36.279,34.888c-10.953-3.797-15.283-8.096-16.986-10.74c1.672-3.347,4.899-5.653,8.636-6.118
		c0.237,0,61.958,0,61.958,0l0.297,0.01c0,0,0.086,0.005,0.168,0.008c5.557,0.737,9.737,5.503,9.737,11.116c0,0,0,10.497,0,13.541
		C72.244,42.546,50.784,39.917,36.279,34.888"/>
</g>
<g id="kia">
	<path fill-opacity="0.1" d="M31.33,106.922c-8.949,0-16.229-7.279-16.229-16.229V31.164c0-8.948,7.28-16.228,16.229-16.228h59.527
		c8.949,0,16.229,7.28,16.229,16.228v59.529c0,8.947-7.28,16.229-16.229,16.229H31.33"/>
	<path fill="#179e1e" d="M29.33,104.922c-8.949,0-16.229-7.279-16.229-16.229V29.164c0-8.948,7.28-16.228,16.229-16.228h59.527
		c8.949,0,16.229,7.28,16.229,16.228v59.529c0,8.947-7.28,16.229-16.229,16.229H29.33"/>
	<g>
		
			<linearGradient id="SVGID_5_" gradientUnits="userSpaceOnUse" x1="296.6943" y1="-341.8228" x2="296.6942" y2="-255.8354" gradientTransform="matrix(1 0 0 -1 -237.5996 -239.9004)">
			<stop  offset="0" style="stop-color:#FFFFFF"/>
			<stop  offset="0.1758" style="stop-color:#E7E9EA"/>
			<stop  offset="0.4969" style="stop-color:#CDD2D5"/>
			<stop  offset="0.782" style="stop-color:#C5CACC"/>
			<stop  offset="1" style="stop-color:#BABDC0"/>
		</linearGradient>
		<path fill="url(#SVGID_5_)" d="M88.857,101.923H29.33c-7.306,0-13.23-5.923-13.23-13.229V29.164
			c0-7.306,5.924-13.229,13.23-13.229h59.527c7.308,0,13.23,5.922,13.23,13.229v59.529C102.089,96,96.165,101.923,88.857,101.923
			L88.857,101.923z"/>
	</g>
	<path fill="#179e1e" d="M93.798,68.922H24.465c-0.913,0-1.653-0.74-1.653-1.654v-8.247c0-0.915,0.74-1.654,1.653-1.654h69.333
		c0.913,0,1.652,0.74,1.652,1.654v8.247C95.45,68.182,94.711,68.922,93.798,68.922L93.798,68.922z M87.568,83.385
		c-3.523,0-6.379-2.855-6.379-6.38s2.854-6.381,6.379-6.381c3.523,0,6.382,2.856,6.382,6.381S91.093,83.385,87.568,83.385
		L87.568,83.385z M72.768,83.385c-3.523,0-6.381-2.855-6.381-6.38s2.856-6.381,6.381-6.381c3.523,0,6.381,2.856,6.381,6.381
		S76.29,83.385,72.768,83.385L72.768,83.385z M45.04,83.385c-3.523,0-6.38-2.855-6.38-6.38s2.857-6.381,6.38-6.381
		c3.525,0,6.38,2.856,6.38,6.381S48.564,83.385,45.04,83.385L45.04,83.385z M30.238,83.385c-3.525,0-6.382-2.855-6.382-6.38
		s2.857-6.381,6.382-6.381c3.523,0,6.38,2.856,6.38,6.381S33.762,83.385,30.238,83.385L30.238,83.385z"/>
	<path fill="#FFFFFF" d="M84.188,77.005c0-1.864,1.518-3.381,3.381-3.381c1.865,0,3.382,1.517,3.382,3.381s-1.517,3.382-3.382,3.382
		C85.705,80.387,84.188,78.869,84.188,77.005 M69.387,77.005c0-1.864,1.516-3.381,3.381-3.381c1.863,0,3.381,1.517,3.381,3.381
		s-1.518,3.382-3.381,3.382C70.902,80.387,69.387,78.869,69.387,77.005 M41.659,77.005c0-1.864,1.517-3.381,3.381-3.381
		c1.864,0,3.381,1.517,3.381,3.381s-1.517,3.382-3.381,3.382C43.176,80.387,41.659,78.869,41.659,77.005 M26.856,77.005
		c0-1.864,1.518-3.381,3.382-3.381c1.864,0,3.381,1.517,3.381,3.381s-1.517,3.382-3.381,3.382
		C28.374,80.387,26.856,78.869,26.856,77.005 M25.812,67.232c0,0.011,0,0.022,0,0.035V67.232 M25.812,65.922
		c0-1.518,0-4.039,0-5.556c2.538,0,64.1,0,66.639,0c0,1.517,0,4.038,0,5.556C89.912,65.922,28.35,65.922,25.812,65.922
		 M92.451,59.021v0.035C92.451,59.045,92.451,59.032,92.451,59.021 M25.812,59.021c0,0.011,0,0.024,0,0.035V59.021"/>
	<path fill="#179e1e" d="M89.4,21.927l9.313,9.312c0.646,0.645,0.646,1.692,0,2.338L34.588,97.702c-0.645,0.646-1.692,0.646-2.338,0
		l-9.313-9.313c-0.646-0.646-0.646-1.691,0-2.338l64.125-64.125C87.709,21.28,88.756,21.28,89.4,21.927L89.4,21.927z"/>
	<path fill="#FF2A2A" d="M24.596,87.221c0.49-0.49,63.153-63.151,63.636-63.635c0.451,0.452,8.369,8.37,8.82,8.821
		c-0.482,0.485-63.151,63.151-63.635,63.636C32.967,95.592,25.048,87.672,24.596,87.221"/>
	
		<linearGradient id="SVGID_6_" gradientUnits="userSpaceOnUse" x1="297.291" y1="-282.6055" x2="297.291" y2="-257.9302" gradientTransform="matrix(1 0 0 -1 -237.5996 -239.9004)">
		<stop  offset="0" style="stop-color:#FFFFFF;stop-opacity:0"/>
		<stop  offset="1" style="stop-color:#FFFFFF;stop-opacity:0.8"/>
	</linearGradient>
	<path fill="url(#SVGID_6_)" d="M36.279,34.888c-10.953-3.797-15.283-8.096-16.986-10.74c1.672-3.347,4.899-5.653,8.636-6.118
		c0.237,0,61.958,0,61.958,0l0.297,0.01c0,0,0.086,0.005,0.168,0.008c5.557,0.737,9.737,5.503,9.737,11.116c0,0,0,10.497,0,13.541
		C72.244,42.546,50.784,39.917,36.279,34.888"/>
</g>
<g id="orange">
	<path fill-opacity="0.1" d="M31.33,106.922c-8.949,0-16.229-7.279-16.229-16.229V31.164c0-8.948,7.28-16.228,16.229-16.228h59.527
		c8.949,0,16.229,7.28,16.229,16.228v59.529c0,8.947-7.28,16.229-16.229,16.229H31.33"/>
	<path fill="#FFE035" d="M29.33,104.922c-8.949,0-16.229-7.279-16.229-16.229V29.164c0-8.948,7.28-16.228,16.229-16.228h59.527
		c8.949,0,16.229,7.28,16.229,16.228v59.529c0,8.947-7.28,16.229-16.229,16.229H29.33"/>
	<g>
		
			<linearGradient id="SVGID_7_" gradientUnits="userSpaceOnUse" x1="296.6943" y1="-341.8228" x2="296.6942" y2="-255.8354" gradientTransform="matrix(1 0 0 -1 -237.5996 -239.9004)">
			<stop  offset="0" style="stop-color:#FEDF34"/>
			<stop  offset="0.1758" style="stop-color:#FECD26"/>
			<stop  offset="0.4969" style="stop-color:#FFB211"/>
			<stop  offset="0.782" style="stop-color:#FFA204"/>
			<stop  offset="1" style="stop-color:#FF9C00"/>
		</linearGradient>
		<path fill="url(#SVGID_7_)" d="M88.857,101.923H29.33c-7.306,0-13.23-5.923-13.23-13.229V29.164
			c0-7.306,5.924-13.229,13.23-13.229h59.527c7.308,0,13.23,5.922,13.23,13.229v59.529C102.089,96,96.165,101.923,88.857,101.923
			L88.857,101.923z"/>
	</g>
	<path fill="#FFE035" d="M93.798,68.922H24.465c-0.913,0-1.653-0.74-1.653-1.654v-8.247c0-0.915,0.74-1.654,1.653-1.654h69.333
		c0.913,0,1.652,0.74,1.652,1.654v8.247C95.45,68.182,94.711,68.922,93.798,68.922L93.798,68.922z M87.568,83.385
		c-3.523,0-6.379-2.855-6.379-6.38s2.854-6.381,6.379-6.381c3.523,0,6.382,2.856,6.382,6.381S91.093,83.385,87.568,83.385
		L87.568,83.385z M72.768,83.385c-3.523,0-6.381-2.855-6.381-6.38s2.856-6.381,6.381-6.381c3.523,0,6.381,2.856,6.381,6.381
		S76.29,83.385,72.768,83.385L72.768,83.385z M45.04,83.385c-3.523,0-6.38-2.855-6.38-6.38s2.857-6.381,6.38-6.381
		c3.525,0,6.38,2.856,6.38,6.381S48.564,83.385,45.04,83.385L45.04,83.385z M30.238,83.385c-3.525,0-6.382-2.855-6.382-6.38
		s2.857-6.381,6.382-6.381c3.523,0,6.38,2.856,6.38,6.381S33.762,83.385,30.238,83.385L30.238,83.385z"/>
	<path fill="#FFFFFF" d="M84.188,77.005c0-1.864,1.518-3.381,3.381-3.381c1.865,0,3.382,1.517,3.382,3.381s-1.517,3.382-3.382,3.382
		C85.705,80.387,84.188,78.869,84.188,77.005 M69.387,77.005c0-1.864,1.516-3.381,3.381-3.381c1.863,0,3.381,1.517,3.381,3.381
		s-1.518,3.382-3.381,3.382C70.902,80.387,69.387,78.869,69.387,77.005 M41.659,77.005c0-1.864,1.517-3.381,3.381-3.381
		c1.864,0,3.381,1.517,3.381,3.381s-1.517,3.382-3.381,3.382C43.176,80.387,41.659,78.869,41.659,77.005 M26.856,77.005
		c0-1.864,1.518-3.381,3.382-3.381c1.864,0,3.381,1.517,3.381,3.381s-1.517,3.382-3.381,3.382
		C28.374,80.387,26.856,78.869,26.856,77.005 M25.812,67.232c0,0.011,0,0.022,0,0.035V67.232 M25.812,65.922
		c0-1.518,0-4.039,0-5.556c2.538,0,64.1,0,66.639,0c0,1.517,0,4.038,0,5.556C89.912,65.922,28.35,65.922,25.812,65.922
		 M92.451,59.021v0.035C92.451,59.045,92.451,59.032,92.451,59.021 M25.812,59.021c0,0.011,0,0.024,0,0.035V59.021"/>
	<path fill="#FFE035" d="M89.4,21.927l9.313,9.312c0.646,0.645,0.646,1.692,0,2.338L34.588,97.702c-0.645,0.646-1.692,0.646-2.338,0
		l-9.313-9.313c-0.646-0.646-0.646-1.691,0-2.338l64.125-64.125C87.709,21.28,88.756,21.28,89.4,21.927L89.4,21.927z"/>
	<path fill="#FF2A2A" d="M24.596,87.221c0.49-0.49,63.153-63.151,63.636-63.635c0.451,0.452,8.369,8.37,8.82,8.821
		c-0.482,0.485-63.151,63.151-63.635,63.636C32.967,95.592,25.048,87.672,24.596,87.221"/>
	
		<linearGradient id="SVGID_8_" gradientUnits="userSpaceOnUse" x1="297.291" y1="-282.6055" x2="297.291" y2="-257.9302" gradientTransform="matrix(1 0 0 -1 -237.5996 -239.9004)">
		<stop  offset="0" style="stop-color:#FFFFFF;stop-opacity:0"/>
		<stop  offset="1" style="stop-color:#FFFFFF;stop-opacity:0.8"/>
	</linearGradient>
	<path fill="url(#SVGID_8_)" d="M36.279,34.888c-10.953-3.797-15.283-8.096-16.986-10.74c1.672-3.347,4.899-5.653,8.636-6.118
		c0.237,0,61.958,0,61.958,0l0.297,0.01c0,0,0.086,0.005,0.168,0.008c5.557,0.737,9.737,5.503,9.737,11.116c0,0,0,10.497,0,13.541
		C72.244,42.546,50.784,39.917,36.279,34.888"/>
</g>
<g id="red">
	<path fill-opacity="0.1" d="M31.33,106.922c-8.949,0-16.229-7.279-16.229-16.229V31.164c0-8.948,7.28-16.228,16.229-16.228h59.527
		c8.949,0,16.229,7.28,16.229,16.228v59.529c0,8.947-7.28,16.229-16.229,16.229H31.33"/>
	<path fill="#FC7E7E" d="M29.33,104.922c-8.949,0-16.229-7.279-16.229-16.229V29.164c0-8.948,7.28-16.228,16.229-16.228h59.527
		c8.949,0,16.229,7.28,16.229,16.228v59.529c0,8.947-7.28,16.229-16.229,16.229H29.33"/>
	<g>
		
			<linearGradient id="SVGID_9_" gradientUnits="userSpaceOnUse" x1="296.6943" y1="-341.8228" x2="296.6942" y2="-255.8354" gradientTransform="matrix(1 0 0 -1 -237.5996 -239.9004)">
			<stop  offset="0" style="stop-color:#FF0000"/>
			<stop  offset="0.1758" style="stop-color:#F60303"/>
			<stop  offset="0.4969" style="stop-color:#EC0404"/>
			<stop  offset="0.782" style="stop-color:#E30101"/>
			<stop  offset="1" style="stop-color:#D60202"/>
		</linearGradient>
		<path fill="url(#SVGID_9_)" d="M88.857,101.923H29.33c-7.306,0-13.23-5.923-13.23-13.229V29.164
			c0-7.306,5.924-13.229,13.23-13.229h59.527c7.308,0,13.23,5.922,13.23,13.229v59.529C102.089,96,96.165,101.923,88.857,101.923
			L88.857,101.923z"/>
	</g>
	<path fill="#FC7E7E" d="M93.798,68.922H24.465c-0.913,0-1.653-0.74-1.653-1.654v-8.247c0-0.915,0.74-1.654,1.653-1.654h69.333
		c0.913,0,1.652,0.74,1.652,1.654v8.247C95.45,68.182,94.711,68.922,93.798,68.922L93.798,68.922z M87.568,83.385
		c-3.523,0-6.379-2.855-6.379-6.38s2.854-6.381,6.379-6.381c3.523,0,6.382,2.856,6.382,6.381S91.093,83.385,87.568,83.385
		L87.568,83.385z M72.768,83.385c-3.523,0-6.381-2.855-6.381-6.38s2.856-6.381,6.381-6.381c3.523,0,6.381,2.856,6.381,6.381
		S76.29,83.385,72.768,83.385L72.768,83.385z M45.04,83.385c-3.523,0-6.38-2.855-6.38-6.38s2.857-6.381,6.38-6.381
		c3.525,0,6.38,2.856,6.38,6.381S48.564,83.385,45.04,83.385L45.04,83.385z M30.238,83.385c-3.525,0-6.382-2.855-6.382-6.38
		s2.857-6.381,6.382-6.381c3.523,0,6.38,2.856,6.38,6.381S33.762,83.385,30.238,83.385L30.238,83.385z"/>
	<path fill="#FFFFFF" d="M84.188,77.005c0-1.864,1.518-3.381,3.381-3.381c1.865,0,3.382,1.517,3.382,3.381s-1.517,3.382-3.382,3.382
		C85.705,80.387,84.188,78.869,84.188,77.005 M69.387,77.005c0-1.864,1.516-3.381,3.381-3.381c1.863,0,3.381,1.517,3.381,3.381
		s-1.518,3.382-3.381,3.382C70.902,80.387,69.387,78.869,69.387,77.005 M41.659,77.005c0-1.864,1.517-3.381,3.381-3.381
		c1.864,0,3.381,1.517,3.381,3.381s-1.517,3.382-3.381,3.382C43.176,80.387,41.659,78.869,41.659,77.005 M26.856,77.005
		c0-1.864,1.518-3.381,3.382-3.381c1.864,0,3.381,1.517,3.381,3.381s-1.517,3.382-3.381,3.382
		C28.374,80.387,26.856,78.869,26.856,77.005 M25.812,67.232c0,0.011,0,0.022,0,0.035V67.232 M25.812,65.922
		c0-1.518,0-4.039,0-5.556c2.538,0,64.1,0,66.639,0c0,1.517,0,4.038,0,5.556C89.912,65.922,28.35,65.922,25.812,65.922
		 M92.451,59.021v0.035C92.451,59.045,92.451,59.032,92.451,59.021 M25.812,59.021c0,0.011,0,0.024,0,0.035V59.021"/>
	<path fill="#FC7E7E" d="M89.4,21.927l9.313,9.312c0.646,0.645,0.646,1.692,0,2.338L34.588,97.702c-0.645,0.646-1.692,0.646-2.338,0
		l-9.313-9.313c-0.646-0.646-0.646-1.691,0-2.338l64.125-64.125C87.709,21.28,88.756,21.28,89.4,21.927L89.4,21.927z"/>
	<path fill="#FF2A2A" d="M24.596,87.221c0.49-0.49,63.153-63.151,63.636-63.635c0.451,0.452,8.369,8.37,8.82,8.821
		c-0.482,0.485-63.151,63.151-63.635,63.636C32.967,95.592,25.048,87.672,24.596,87.221"/>
	
		<linearGradient id="SVGID_10_" gradientUnits="userSpaceOnUse" x1="297.291" y1="-282.6055" x2="297.291" y2="-257.9302" gradientTransform="matrix(1 0 0 -1 -237.5996 -239.9004)">
		<stop  offset="0" style="stop-color:#FFFFFF;stop-opacity:0"/>
		<stop  offset="1" style="stop-color:#FFFFFF;stop-opacity:0.8"/>
	</linearGradient>
	<path fill="url(#SVGID_10_)" d="M36.279,34.888c-10.953-3.797-15.283-8.096-16.986-10.74c1.672-3.347,4.899-5.653,8.636-6.118
		c0.237,0,61.958,0,61.958,0l0.297,0.01c0,0,0.086,0.005,0.168,0.008c5.557,0.737,9.737,5.503,9.737,11.116c0,0,0,10.497,0,13.541
		C72.244,42.546,50.784,39.917,36.279,34.888"/>
</g>
</svg>
