<?xml version="1.0" encoding="utf-8"?>
<!-- Generator: Adobe Illustrator 16.0.2, SVG Export Plug-In . SVG Version: 6.00 Build 0)  -->
<!DOCTYPE svg PUBLIC "-//W3C//DTD SVG 1.1//EN" "http://www.w3.org/Graphics/SVG/1.1/DTD/svg11.dtd">
<svg version="1.1" id="Layer_1" xmlns="http://www.w3.org/2000/svg" xmlns:xlink="http://www.w3.org/1999/xlink" x="0px" y="0px"
	 width="120px" height="120px" viewBox="0 0 120 120" enable-background="new 0 0 120 120" xml:space="preserve">
<g id="black_white">
	<path fill="#3A3A3A" d="M112.249,101.563c0,1.313-1.063,2.375-2.375,2.375H10.126c-1.312,0-2.375-1.063-2.375-2.375v-2.375
		c0-1.312,1.063-2.375,2.375-2.375H64.75V65.938c0-1.312,1.063-2.375,2.375-2.375h42.749c1.312,0,2.375,1.063,2.375,2.375v30.875
		c0,0.436-0.127,0.838-0.33,1.188c0.203,0.352,0.33,0.751,0.33,1.188V101.563L112.249,101.563z M93.251,46.938h-9.5v-19h-7.125
		l11.875-11.875l11.874,11.875h-7.124V46.938L93.251,46.938z M53.073,85.325l-0.929,0.508v4.397c0,1.428-0.349,1.851-1.749,1.851
		h-3.141c-1.4,0-1.749-0.423-1.749-1.851v-4.397H22.214v4.397c0,1.428-0.349,1.851-1.749,1.851h-3.141
		c-1.4,0-1.749-0.423-1.749-1.851v-4.397l-0.927-0.508c-1.176-0.583-2.156-2.269-2.156-7.003c0-4.857,0.408-5.5,0.783-6.219
		c0.375-0.722,1.4-1.543,1.4-1.543l4.23-10.954c0.878-2.076,3.461-3.169,4.588-3.169h20.733c1.127,0,3.711,1.094,4.588,3.169h0.002
		l4.228,10.954c0,0,1.025,0.822,1.4,1.543c0.375,0.719,0.785,1.36,0.785,6.219C55.229,83.057,54.247,84.742,53.073,85.325
		L53.073,85.325z M19.908,74.175c-2.184,0-3.956,1.759-3.956,3.925c0,2.168,1.771,3.926,3.956,3.926
		c2.184,0,3.956-1.758,3.956-3.926C23.863,75.934,22.092,74.175,19.908,74.175L19.908,74.175z M47.792,74.175
		c-2.184,0-3.956,1.759-3.956,3.925c0,2.168,1.771,3.926,3.956,3.926c2.184,0,3.956-1.758,3.956-3.926
		C51.747,75.934,49.976,74.175,47.792,74.175L47.792,74.175z"/>
</g>
<g id="blue">
	<path fill-opacity="0.1" d="M31.33,106.922c-8.949,0-16.229-7.279-16.229-16.229V31.164c0-8.948,7.28-16.228,16.229-16.228h59.527
		c8.949,0,16.229,7.28,16.229,16.228v59.529c0,8.947-7.28,16.229-16.229,16.229H31.33"/>
	<path fill="#70B7E0" d="M29.33,104.922c-8.949,0-16.229-7.279-16.229-16.229V29.164c0-8.948,7.28-16.228,16.229-16.228h59.527
		c8.949,0,16.229,7.28,16.229,16.228v59.529c0,8.947-7.28,16.229-16.229,16.229H29.33"/>
	<g>
		
			<linearGradient id="SVGID_1_" gradientUnits="userSpaceOnUse" x1="296.6943" y1="-341.8228" x2="296.6942" y2="-255.8354" gradientTransform="matrix(1 0 0 -1 -237.5996 -239.9004)">
			<stop  offset="0" style="stop-color:#48A2FB"/>
			<stop  offset="0.1758" style="stop-color:#059CF4"/>
			<stop  offset="0.4969" style="stop-color:#0398EF"/>
			<stop  offset="0.782" style="stop-color:#0293E7"/>
			<stop  offset="1" style="stop-color:#0189D8"/>
		</linearGradient>
		<path fill="url(#SVGID_1_)" d="M88.857,101.923H29.33c-7.306,0-13.23-5.923-13.23-13.229V29.164
			c0-7.306,5.924-13.229,13.23-13.229h59.527c7.308,0,13.23,5.922,13.23,13.229v59.529C102.089,96,96.165,101.923,88.857,101.923
			L88.857,101.923z"/>
	</g>
	<path fill="#70B7E0" d="M26.001,90.501V84.5h65.998v6.001H26.001L26.001,90.501z M59,90.501V72.499h32.999v18.002H59L59,90.501z
		 M81.002,47.461v15.035H70.998V47.461h-5.563l10.627-14.527l10.625,14.527H81.002L81.002,47.461z"/>
	<path fill="#FFFFFF" d="M28.001,88.5c0-0.889,0-1.111,0-2c3.53,0,30.999,0,30.999,0c1.105,0,2-0.896,2-2c0,0,0-7.223,0-10
		c3.303,0,25.695,0,28.999,0c0,2.777,0,10,0,10s0,2.223,0,4C86.355,88.5,31.645,88.5,28.001,88.5 M72.999,60.496
		c0-3.008,0-13.035,0-13.035c0-1.105-0.896-2-2.001-2c0.001,0-0.951,0-1.62,0c2.287-3.126,4.961-6.784,6.685-9.14
		c1.725,2.356,4.397,6.014,6.686,9.14c-0.743,0-1.745,0-1.745,0c-1.104,0-2.001,0.896-2.001,2c0,0,0,10.027,0,13.035
		C77.081,60.496,74.919,60.496,72.999,60.496"/>
	<path fill="#70B7E0" d="M47.613,85.725c-1.105,0-2-0.896-2-2.002c0,0,0-0.424,0-0.684c-1.417,0-2.261,0-3.679,0
		c0,0.26,0,0.684,0,0.684c0,1.105-0.895,2.002-2,2.002h-3.438c-1.105,0-2-0.896-2-2.002c0,0,0-0.729,0-1.451
		c-0.192-0.197-0.589-0.608-0.589-0.608c-0.36-0.373-0.562-0.871-0.562-1.392v-1.148v-0.768v-1.918c0-1.317,0.567-2.279,1.212-2.862
		c0.351-0.652,2.478-4.603,2.478-4.603c0.349-0.65,1.026-1.054,1.762-1.054h9.969c0.735,0,1.413,0.403,1.762,1.054
		c0,0,1.903,3.533,2.38,4.422c0.698,0.494,1.309,1.422,1.309,3.043v1.918v0.768v1.148c0,0.533-0.211,1.041-0.588,1.416
		c0,0-0.355,0.355-0.573,0.571c0,0.726,0,1.464,0,1.464c0,1.105-0.896,2.002-2,2.002H47.613"/>
	<path fill="#FFFFFF" d="M51.446,81.039h-0.393v2.684h-3.44v-2.684h-7.679v2.684h-3.438v-2.684h-0.41l-0.742-0.768v-1.149v-0.769
		v-1.916c0-1.149,0.768-1.533,0.768-1.533l2.684-4.984h9.969l2.684,4.984c0,0,0.766,0,0.766,1.533v1.916v0.769v1.149L51.446,81.039
		L51.446,81.039z M37.837,77.208c-0.323,0-0.586,0.256-0.586,0.573c0,0.316,0.263,0.572,0.586,0.572
		c0.324,0,0.584-0.256,0.584-0.572C38.421,77.464,38.161,77.208,37.837,77.208L37.837,77.208z M41.095,78.473h5.368
		c0.394,0,0.384-0.271,0.384-0.666c0-0.394,0.01-0.602-0.384-0.602h-5.368c-0.394,0-0.383,0.208-0.383,0.602
		C40.712,78.201,40.701,78.473,41.095,78.473L41.095,78.473z M47.613,72.221h-7.668l-0.767,2.686h9.202L47.613,72.221L47.613,72.221
		z M49.724,77.208c-0.324,0-0.586,0.256-0.586,0.573c0,0.316,0.263,0.572,0.586,0.572c0.322,0,0.584-0.256,0.584-0.572
		C50.308,77.464,50.046,77.208,49.724,77.208L49.724,77.208z"/>
	
		<linearGradient id="SVGID_2_" gradientUnits="userSpaceOnUse" x1="297.291" y1="-282.6055" x2="297.291" y2="-257.9302" gradientTransform="matrix(1 0 0 -1 -237.5996 -239.9004)">
		<stop  offset="0" style="stop-color:#FFFFFF;stop-opacity:0"/>
		<stop  offset="1" style="stop-color:#FFFFFF;stop-opacity:0.8"/>
	</linearGradient>
	<path fill="url(#SVGID_2_)" d="M36.279,34.888c-10.953-3.797-15.283-8.096-16.986-10.74c1.672-3.347,4.899-5.653,8.636-6.118
		c0.237,0,61.958,0,61.958,0l0.297,0.01c0,0,0.086,0.005,0.168,0.008c5.557,0.737,9.737,5.503,9.737,11.116c0,0,0,10.497,0,13.541
		C72.244,42.546,50.784,39.917,36.279,34.888"/>
</g>
<g id="green">
	<path fill-opacity="0.1" d="M31.33,106.922c-8.949,0-16.229-7.279-16.229-16.229V31.164c0-8.948,7.28-16.228,16.229-16.228h59.527
		c8.949,0,16.229,7.28,16.229,16.228v59.529c0,8.947-7.28,16.229-16.229,16.229H31.33"/>
	<path fill="#03FC30" d="M29.33,104.922c-8.949,0-16.229-7.279-16.229-16.229V29.164c0-8.948,7.28-16.228,16.229-16.228h59.527
		c8.949,0,16.229,7.28,16.229,16.228v59.529c0,8.947-7.28,16.229-16.229,16.229H29.33"/>
	<g>
		
			<linearGradient id="SVGID_3_" gradientUnits="userSpaceOnUse" x1="296.6943" y1="-341.8228" x2="296.6942" y2="-255.8354" gradientTransform="matrix(1 0 0 -1 -237.5996 -239.9004)">
			<stop  offset="0" style="stop-color:#00DF34"/>
			<stop  offset="0.1758" style="stop-color:#00CD26"/>
			<stop  offset="0.4969" style="stop-color:#00B211"/>
			<stop  offset="0.782" style="stop-color:#00A204"/>
			<stop  offset="1" style="stop-color:#009C00"/>
		</linearGradient>
		<path fill="url(#SVGID_3_)" d="M88.857,101.923H29.33c-7.306,0-13.23-5.923-13.23-13.229V29.164
			c0-7.306,5.924-13.229,13.23-13.229h59.527c7.308,0,13.23,5.922,13.23,13.229v59.529C102.089,96,96.165,101.923,88.857,101.923
			L88.857,101.923z"/>
	</g>
	<path fill="#03FC30" d="M26.001,90.501V84.5h65.998v6.001H26.001L26.001,90.501z M59,90.501V72.499h32.999v18.002H59L59,90.501z
		 M81.002,47.461v15.035H70.998V47.461h-5.563l10.627-14.527l10.625,14.527H81.002L81.002,47.461z"/>
	<path fill="#FFFFFF" d="M28.001,88.5c0-0.889,0-1.111,0-2c3.53,0,30.999,0,30.999,0c1.105,0,2-0.896,2-2c0,0,0-7.223,0-10
		c3.303,0,25.695,0,28.999,0c0,2.777,0,10,0,10s0,2.223,0,4C86.355,88.5,31.645,88.5,28.001,88.5 M72.999,60.496
		c0-3.008,0-13.035,0-13.035c0-1.105-0.896-2-2.001-2c0.001,0-0.951,0-1.62,0c2.287-3.126,4.961-6.784,6.685-9.14
		c1.725,2.356,4.397,6.014,6.686,9.14c-0.743,0-1.745,0-1.745,0c-1.104,0-2.001,0.896-2.001,2c0,0,0,10.027,0,13.035
		C77.081,60.496,74.919,60.496,72.999,60.496"/>
	<path fill="#03FC30" d="M47.613,85.725c-1.105,0-2-0.896-2-2.002c0,0,0-0.424,0-0.684c-1.417,0-2.261,0-3.679,0
		c0,0.26,0,0.684,0,0.684c0,1.105-0.895,2.002-2,2.002h-3.438c-1.105,0-2-0.896-2-2.002c0,0,0-0.729,0-1.451
		c-0.192-0.197-0.589-0.608-0.589-0.608c-0.36-0.373-0.562-0.871-0.562-1.392v-1.148v-0.768v-1.918c0-1.317,0.567-2.279,1.212-2.862
		c0.351-0.652,2.478-4.603,2.478-4.603c0.349-0.65,1.026-1.054,1.762-1.054h9.969c0.735,0,1.413,0.403,1.762,1.054
		c0,0,1.903,3.533,2.38,4.422c0.698,0.494,1.309,1.422,1.309,3.043v1.918v0.768v1.148c0,0.533-0.211,1.041-0.588,1.416
		c0,0-0.355,0.355-0.573,0.571c0,0.726,0,1.464,0,1.464c0,1.105-0.896,2.002-2,2.002H47.613"/>
	<path fill="#FFFFFF" d="M51.446,81.039h-0.393v2.684h-3.44v-2.684h-7.679v2.684h-3.438v-2.684h-0.41l-0.742-0.768v-1.149v-0.769
		v-1.916c0-1.149,0.768-1.533,0.768-1.533l2.684-4.984h9.969l2.684,4.984c0,0,0.766,0,0.766,1.533v1.916v0.769v1.149L51.446,81.039
		L51.446,81.039z M37.837,77.208c-0.323,0-0.586,0.256-0.586,0.573c0,0.316,0.263,0.572,0.586,0.572
		c0.324,0,0.584-0.256,0.584-0.572C38.421,77.464,38.161,77.208,37.837,77.208L37.837,77.208z M41.095,78.473h5.368
		c0.394,0,0.384-0.271,0.384-0.666c0-0.394,0.01-0.602-0.384-0.602h-5.368c-0.394,0-0.383,0.208-0.383,0.602
		C40.712,78.201,40.701,78.473,41.095,78.473L41.095,78.473z M47.613,72.221h-7.668l-0.767,2.686h9.202L47.613,72.221L47.613,72.221
		z M49.724,77.208c-0.324,0-0.586,0.256-0.586,0.573c0,0.316,0.263,0.572,0.586,0.572c0.322,0,0.584-0.256,0.584-0.572
		C50.308,77.464,50.046,77.208,49.724,77.208L49.724,77.208z"/>
	
		<linearGradient id="SVGID_4_" gradientUnits="userSpaceOnUse" x1="297.291" y1="-282.6055" x2="297.291" y2="-257.9302" gradientTransform="matrix(1 0 0 -1 -237.5996 -239.9004)">
		<stop  offset="0" style="stop-color:#FFFFFF;stop-opacity:0"/>
		<stop  offset="1" style="stop-color:#FFFFFF;stop-opacity:0.8"/>
	</linearGradient>
	<path fill="url(#SVGID_4_)" d="M36.279,34.888c-10.953-3.797-15.283-8.096-16.986-10.74c1.672-3.347,4.899-5.653,8.636-6.118
		c0.237,0,61.958,0,61.958,0l0.297,0.01c0,0,0.086,0.005,0.168,0.008c5.557,0.737,9.737,5.503,9.737,11.116c0,0,0,10.497,0,13.541
		C72.244,42.546,50.784,39.917,36.279,34.888"/>
</g>
<g id="kia">
	<path fill-opacity="0.1" d="M31.33,106.922c-8.949,0-16.229-7.279-16.229-16.229V31.164c0-8.948,7.28-16.228,16.229-16.228h59.527
		c8.949,0,16.229,7.28,16.229,16.228v59.529c0,8.947-7.28,16.229-16.229,16.229H31.33"/>
	<path fill="#179e1e" d="M29.33,104.922c-8.949,0-16.229-7.279-16.229-16.229V29.164c0-8.948,7.28-16.228,16.229-16.228h59.527
		c8.949,0,16.229,7.28,16.229,16.228v59.529c0,8.947-7.28,16.229-16.229,16.229H29.33"/>
	<g>
		
			<linearGradient id="SVGID_5_" gradientUnits="userSpaceOnUse" x1="296.6943" y1="-341.8228" x2="296.6942" y2="-255.8354" gradientTransform="matrix(1 0 0 -1 -237.5996 -239.9004)">
			<stop  offset="0" style="stop-color:#FFFFFF"/>
			<stop  offset="0.1758" style="stop-color:#E7E9EA"/>
			<stop  offset="0.4969" style="stop-color:#CDD2D5"/>
			<stop  offset="0.782" style="stop-color:#C5CACC"/>
			<stop  offset="1" style="stop-color:#BABDC0"/>
		</linearGradient>
		<path fill="url(#SVGID_5_)" d="M88.857,101.923H29.33c-7.306,0-13.23-5.923-13.23-13.229V29.164
			c0-7.306,5.924-13.229,13.23-13.229h59.527c7.308,0,13.23,5.922,13.23,13.229v59.529C102.089,96,96.165,101.923,88.857,101.923
			L88.857,101.923z"/>
	</g>
	<path fill="#179e1e" d="M26.001,90.501V84.5h65.998v6.001H26.001L26.001,90.501z M59,90.501V72.499h32.999v18.002H59L59,90.501z
		 M81.002,47.461v15.035H70.998V47.461h-5.563l10.627-14.527l10.625,14.527H81.002L81.002,47.461z"/>
	<path fill="#FFFFFF" d="M28.001,88.5c0-0.889,0-1.111,0-2c3.53,0,30.999,0,30.999,0c1.105,0,2-0.896,2-2c0,0,0-7.223,0-10
		c3.303,0,25.695,0,28.999,0c0,2.777,0,10,0,10s0,2.223,0,4C86.355,88.5,31.645,88.5,28.001,88.5 M72.999,60.496
		c0-3.008,0-13.035,0-13.035c0-1.105-0.896-2-2.001-2c0.001,0-0.951,0-1.62,0c2.287-3.126,4.961-6.784,6.685-9.14
		c1.725,2.356,4.397,6.014,6.686,9.14c-0.743,0-1.745,0-1.745,0c-1.104,0-2.001,0.896-2.001,2c0,0,0,10.027,0,13.035
		C77.081,60.496,74.919,60.496,72.999,60.496"/>
	<path fill="#179e1e" d="M47.613,85.725c-1.105,0-2-0.896-2-2.002c0,0,0-0.424,0-0.684c-1.417,0-2.261,0-3.679,0
		c0,0.26,0,0.684,0,0.684c0,1.105-0.895,2.002-2,2.002h-3.438c-1.105,0-2-0.896-2-2.002c0,0,0-0.729,0-1.451
		c-0.192-0.197-0.589-0.608-0.589-0.608c-0.36-0.373-0.562-0.871-0.562-1.392v-1.148v-0.768v-1.918c0-1.317,0.567-2.279,1.212-2.862
		c0.351-0.652,2.478-4.603,2.478-4.603c0.349-0.65,1.026-1.054,1.762-1.054h9.969c0.735,0,1.413,0.403,1.762,1.054
		c0,0,1.903,3.533,2.38,4.422c0.698,0.494,1.309,1.422,1.309,3.043v1.918v0.768v1.148c0,0.533-0.211,1.041-0.588,1.416
		c0,0-0.355,0.355-0.573,0.571c0,0.726,0,1.464,0,1.464c0,1.105-0.896,2.002-2,2.002H47.613"/>
	<path fill="#FFFFFF" d="M51.446,81.039h-0.393v2.684h-3.44v-2.684h-7.679v2.684h-3.438v-2.684h-0.41l-0.742-0.768v-1.149v-0.769
		v-1.916c0-1.149,0.768-1.533,0.768-1.533l2.684-4.984h9.969l2.684,4.984c0,0,0.766,0,0.766,1.533v1.916v0.769v1.149L51.446,81.039
		L51.446,81.039z M37.837,77.208c-0.323,0-0.586,0.256-0.586,0.573c0,0.316,0.263,0.572,0.586,0.572
		c0.324,0,0.584-0.256,0.584-0.572C38.421,77.464,38.161,77.208,37.837,77.208L37.837,77.208z M41.095,78.473h5.368
		c0.394,0,0.384-0.271,0.384-0.666c0-0.394,0.01-0.602-0.384-0.602h-5.368c-0.394,0-0.383,0.208-0.383,0.602
		C40.712,78.201,40.701,78.473,41.095,78.473L41.095,78.473z M47.613,72.221h-7.668l-0.767,2.686h9.202L47.613,72.221L47.613,72.221
		z M49.724,77.208c-0.324,0-0.586,0.256-0.586,0.573c0,0.316,0.263,0.572,0.586,0.572c0.322,0,0.584-0.256,0.584-0.572
		C50.308,77.464,50.046,77.208,49.724,77.208L49.724,77.208z"/>
	
		<linearGradient id="SVGID_6_" gradientUnits="userSpaceOnUse" x1="297.291" y1="-282.6055" x2="297.291" y2="-257.9302" gradientTransform="matrix(1 0 0 -1 -237.5996 -239.9004)">
		<stop  offset="0" style="stop-color:#FFFFFF;stop-opacity:0"/>
		<stop  offset="1" style="stop-color:#FFFFFF;stop-opacity:0.8"/>
	</linearGradient>
	<path fill="url(#SVGID_6_)" d="M36.279,34.888c-10.953-3.797-15.283-8.096-16.986-10.74c1.672-3.347,4.899-5.653,8.636-6.118
		c0.237,0,61.958,0,61.958,0l0.297,0.01c0,0,0.086,0.005,0.168,0.008c5.557,0.737,9.737,5.503,9.737,11.116c0,0,0,10.497,0,13.541
		C72.244,42.546,50.784,39.917,36.279,34.888"/>
</g>
<g id="orange">
	<path fill-opacity="0.1" d="M31.33,106.922c-8.949,0-16.229-7.279-16.229-16.229V31.164c0-8.948,7.28-16.228,16.229-16.228h59.527
		c8.949,0,16.229,7.28,16.229,16.228v59.529c0,8.947-7.28,16.229-16.229,16.229H31.33"/>
	<path fill="#FFE035" d="M29.33,104.922c-8.949,0-16.229-7.279-16.229-16.229V29.164c0-8.948,7.28-16.228,16.229-16.228h59.527
		c8.949,0,16.229,7.28,16.229,16.228v59.529c0,8.947-7.28,16.229-16.229,16.229H29.33"/>
	<g>
		
			<linearGradient id="SVGID_7_" gradientUnits="userSpaceOnUse" x1="296.6943" y1="-341.8228" x2="296.6942" y2="-255.8354" gradientTransform="matrix(1 0 0 -1 -237.5996 -239.9004)">
			<stop  offset="0" style="stop-color:#FEDF34"/>
			<stop  offset="0.1758" style="stop-color:#FECD26"/>
			<stop  offset="0.4969" style="stop-color:#FFB211"/>
			<stop  offset="0.782" style="stop-color:#FFA204"/>
			<stop  offset="1" style="stop-color:#FF9C00"/>
		</linearGradient>
		<path fill="url(#SVGID_7_)" d="M88.857,101.923H29.33c-7.306,0-13.23-5.923-13.23-13.229V29.164
			c0-7.306,5.924-13.229,13.23-13.229h59.527c7.308,0,13.23,5.922,13.23,13.229v59.529C102.089,96,96.165,101.923,88.857,101.923
			L88.857,101.923z"/>
	</g>
	<path fill="#FFE035" d="M26.001,90.501V84.5h65.998v6.001H26.001L26.001,90.501z M59,90.501V72.499h32.999v18.002H59L59,90.501z
		 M81.002,47.461v15.035H70.998V47.461h-5.563l10.627-14.527l10.625,14.527H81.002L81.002,47.461z"/>
	<path fill="#FFFFFF" d="M28.001,88.5c0-0.889,0-1.111,0-2c3.53,0,30.999,0,30.999,0c1.105,0,2-0.896,2-2c0,0,0-7.223,0-10
		c3.303,0,25.695,0,28.999,0c0,2.777,0,10,0,10s0,2.223,0,4C86.355,88.5,31.645,88.5,28.001,88.5 M72.999,60.496
		c0-3.008,0-13.035,0-13.035c0-1.105-0.896-2-2.001-2c0.001,0-0.951,0-1.62,0c2.287-3.126,4.961-6.784,6.685-9.14
		c1.725,2.356,4.397,6.014,6.686,9.14c-0.743,0-1.745,0-1.745,0c-1.104,0-2.001,0.896-2.001,2c0,0,0,10.027,0,13.035
		C77.081,60.496,74.919,60.496,72.999,60.496"/>
	<path fill="#FFE035" d="M47.613,85.725c-1.105,0-2-0.896-2-2.002c0,0,0-0.424,0-0.684c-1.417,0-2.261,0-3.679,0
		c0,0.26,0,0.684,0,0.684c0,1.105-0.895,2.002-2,2.002h-3.438c-1.105,0-2-0.896-2-2.002c0,0,0-0.729,0-1.451
		c-0.192-0.197-0.589-0.608-0.589-0.608c-0.36-0.373-0.562-0.871-0.562-1.392v-1.148v-0.768v-1.918c0-1.317,0.567-2.279,1.212-2.862
		c0.351-0.652,2.478-4.603,2.478-4.603c0.349-0.65,1.026-1.054,1.762-1.054h9.969c0.735,0,1.413,0.403,1.762,1.054
		c0,0,1.903,3.533,2.38,4.422c0.698,0.494,1.309,1.422,1.309,3.043v1.918v0.768v1.148c0,0.533-0.211,1.041-0.588,1.416
		c0,0-0.355,0.355-0.573,0.571c0,0.726,0,1.464,0,1.464c0,1.105-0.896,2.002-2,2.002H47.613"/>
	<path fill="#FFFFFF" d="M51.446,81.039h-0.393v2.684h-3.44v-2.684h-7.679v2.684h-3.438v-2.684h-0.41l-0.742-0.768v-1.149v-0.769
		v-1.916c0-1.149,0.768-1.533,0.768-1.533l2.684-4.984h9.969l2.684,4.984c0,0,0.766,0,0.766,1.533v1.916v0.769v1.149L51.446,81.039
		L51.446,81.039z M37.837,77.208c-0.323,0-0.586,0.256-0.586,0.573c0,0.316,0.263,0.572,0.586,0.572
		c0.324,0,0.584-0.256,0.584-0.572C38.421,77.464,38.161,77.208,37.837,77.208L37.837,77.208z M41.095,78.473h5.368
		c0.394,0,0.384-0.271,0.384-0.666c0-0.394,0.01-0.602-0.384-0.602h-5.368c-0.394,0-0.383,0.208-0.383,0.602
		C40.712,78.201,40.701,78.473,41.095,78.473L41.095,78.473z M47.613,72.221h-7.668l-0.767,2.686h9.202L47.613,72.221L47.613,72.221
		z M49.724,77.208c-0.324,0-0.586,0.256-0.586,0.573c0,0.316,0.263,0.572,0.586,0.572c0.322,0,0.584-0.256,0.584-0.572
		C50.308,77.464,50.046,77.208,49.724,77.208L49.724,77.208z"/>
	
		<linearGradient id="SVGID_8_" gradientUnits="userSpaceOnUse" x1="297.291" y1="-282.6055" x2="297.291" y2="-257.9302" gradientTransform="matrix(1 0 0 -1 -237.5996 -239.9004)">
		<stop  offset="0" style="stop-color:#FFFFFF;stop-opacity:0"/>
		<stop  offset="1" style="stop-color:#FFFFFF;stop-opacity:0.8"/>
	</linearGradient>
	<path fill="url(#SVGID_8_)" d="M36.279,34.888c-10.953-3.797-15.283-8.096-16.986-10.74c1.672-3.347,4.899-5.653,8.636-6.118
		c0.237,0,61.958,0,61.958,0l0.297,0.01c0,0,0.086,0.005,0.168,0.008c5.557,0.737,9.737,5.503,9.737,11.116c0,0,0,10.497,0,13.541
		C72.244,42.546,50.784,39.917,36.279,34.888"/>
</g>
<g id="red">
	<path fill-opacity="0.1" d="M31.33,106.922c-8.949,0-16.229-7.279-16.229-16.229V31.164c0-8.948,7.28-16.228,16.229-16.228h59.527
		c8.949,0,16.229,7.28,16.229,16.228v59.529c0,8.947-7.28,16.229-16.229,16.229H31.33"/>
	<path fill="#FC7E7E" d="M29.33,104.922c-8.949,0-16.229-7.279-16.229-16.229V29.164c0-8.948,7.28-16.228,16.229-16.228h59.527
		c8.949,0,16.229,7.28,16.229,16.228v59.529c0,8.947-7.28,16.229-16.229,16.229H29.33"/>
	<g>
		
			<linearGradient id="SVGID_9_" gradientUnits="userSpaceOnUse" x1="296.6943" y1="-341.8228" x2="296.6942" y2="-255.8354" gradientTransform="matrix(1 0 0 -1 -237.5996 -239.9004)">
			<stop  offset="0" style="stop-color:#FF0000"/>
			<stop  offset="0.1758" style="stop-color:#F60303"/>
			<stop  offset="0.4969" style="stop-color:#EC0404"/>
			<stop  offset="0.782" style="stop-color:#E30101"/>
			<stop  offset="1" style="stop-color:#D60202"/>
		</linearGradient>
		<path fill="url(#SVGID_9_)" d="M88.857,101.923H29.33c-7.306,0-13.23-5.923-13.23-13.229V29.164
			c0-7.306,5.924-13.229,13.23-13.229h59.527c7.308,0,13.23,5.922,13.23,13.229v59.529C102.089,96,96.165,101.923,88.857,101.923
			L88.857,101.923z"/>
	</g>
	<path fill="#FC7E7E" d="M26.001,90.501V84.5h65.998v6.001H26.001L26.001,90.501z M59,90.501V72.499h32.999v18.002H59L59,90.501z
		 M81.002,47.461v15.035H70.998V47.461h-5.563l10.627-14.527l10.625,14.527H81.002L81.002,47.461z"/>
	<path fill="#FFFFFF" d="M28.001,88.5c0-0.889,0-1.111,0-2c3.53,0,30.999,0,30.999,0c1.105,0,2-0.896,2-2c0,0,0-7.223,0-10
		c3.303,0,25.695,0,28.999,0c0,2.777,0,10,0,10s0,2.223,0,4C86.355,88.5,31.645,88.5,28.001,88.5 M72.999,60.496
		c0-3.008,0-13.035,0-13.035c0-1.105-0.896-2-2.001-2c0.001,0-0.951,0-1.62,0c2.287-3.126,4.961-6.784,6.685-9.14
		c1.725,2.356,4.397,6.014,6.686,9.14c-0.743,0-1.745,0-1.745,0c-1.104,0-2.001,0.896-2.001,2c0,0,0,10.027,0,13.035
		C77.081,60.496,74.919,60.496,72.999,60.496"/>
	<path fill="#FC7E7E" d="M47.613,85.725c-1.105,0-2-0.896-2-2.002c0,0,0-0.424,0-0.684c-1.417,0-2.261,0-3.679,0
		c0,0.26,0,0.684,0,0.684c0,1.105-0.895,2.002-2,2.002h-3.438c-1.105,0-2-0.896-2-2.002c0,0,0-0.729,0-1.451
		c-0.192-0.197-0.589-0.608-0.589-0.608c-0.36-0.373-0.562-0.871-0.562-1.392v-1.148v-0.768v-1.918c0-1.317,0.567-2.279,1.212-2.862
		c0.351-0.652,2.478-4.603,2.478-4.603c0.349-0.65,1.026-1.054,1.762-1.054h9.969c0.735,0,1.413,0.403,1.762,1.054
		c0,0,1.903,3.533,2.38,4.422c0.698,0.494,1.309,1.422,1.309,3.043v1.918v0.768v1.148c0,0.533-0.211,1.041-0.588,1.416
		c0,0-0.355,0.355-0.573,0.571c0,0.726,0,1.464,0,1.464c0,1.105-0.896,2.002-2,2.002H47.613"/>
	<path fill="#FFFFFF" d="M51.446,81.039h-0.393v2.684h-3.44v-2.684h-7.679v2.684h-3.438v-2.684h-0.41l-0.742-0.768v-1.149v-0.769
		v-1.916c0-1.149,0.768-1.533,0.768-1.533l2.684-4.984h9.969l2.684,4.984c0,0,0.766,0,0.766,1.533v1.916v0.769v1.149L51.446,81.039
		L51.446,81.039z M37.837,77.208c-0.323,0-0.586,0.256-0.586,0.573c0,0.316,0.263,0.572,0.586,0.572
		c0.324,0,0.584-0.256,0.584-0.572C38.421,77.464,38.161,77.208,37.837,77.208L37.837,77.208z M41.095,78.473h5.368
		c0.394,0,0.384-0.271,0.384-0.666c0-0.394,0.01-0.602-0.384-0.602h-5.368c-0.394,0-0.383,0.208-0.383,0.602
		C40.712,78.201,40.701,78.473,41.095,78.473L41.095,78.473z M47.613,72.221h-7.668l-0.767,2.686h9.202L47.613,72.221L47.613,72.221
		z M49.724,77.208c-0.324,0-0.586,0.256-0.586,0.573c0,0.316,0.263,0.572,0.586,0.572c0.322,0,0.584-0.256,0.584-0.572
		C50.308,77.464,50.046,77.208,49.724,77.208L49.724,77.208z"/>
	
		<linearGradient id="SVGID_10_" gradientUnits="userSpaceOnUse" x1="297.291" y1="-282.6055" x2="297.291" y2="-257.9302" gradientTransform="matrix(1 0 0 -1 -237.5996 -239.9004)">
		<stop  offset="0" style="stop-color:#FFFFFF;stop-opacity:0"/>
		<stop  offset="1" style="stop-color:#FFFFFF;stop-opacity:0.8"/>
	</linearGradient>
	<path fill="url(#SVGID_10_)" d="M36.279,34.888c-10.953-3.797-15.283-8.096-16.986-10.74c1.672-3.347,4.899-5.653,8.636-6.118
		c0.237,0,61.958,0,61.958,0l0.297,0.01c0,0,0.086,0.005,0.168,0.008c5.557,0.737,9.737,5.503,9.737,11.116c0,0,0,10.497,0,13.541
		C72.244,42.546,50.784,39.917,36.279,34.888"/>
</g>
</svg>
