<?xml version="1.0" encoding="utf-8"?>
<!-- Generator: Adobe Illustrator 16.0.2, SVG Export Plug-In . SVG Version: 6.00 Build 0)  -->
<!DOCTYPE svg PUBLIC "-//W3C//DTD SVG 1.1//EN" "http://www.w3.org/Graphics/SVG/1.1/DTD/svg11.dtd">
<svg version="1.1" id="Layer_1" xmlns="http://www.w3.org/2000/svg" xmlns:xlink="http://www.w3.org/1999/xlink" x="0px" y="0px"
	 width="120px" height="120px" viewBox="0 0 120 120" enable-background="new 0 0 120 120" xml:space="preserve">
<g id="black_white">
	<g>
		<path fill="#3A3A3A" d="M18.992,37.501c0,0-4.574,0-6.992,0v-2h6.992c3.313,0,6-2.687,6-6v-14h2c0,3.063,0,14,0,14
			C26.992,33.912,23.404,37.501,18.992,37.501z M18.992,82.5c0,0-4.574,0-6.992,0v2h6.992c3.313,0,6,2.688,6,6v13.999h2
			c0-3.063,0-13.999,0-13.999C26.992,86.088,23.404,82.5,18.992,82.5z M61.992,90.5c0-0.001,0,10.938,0,13.999h2V90.5
			c0-3.313,2.688-6,6-6H108v-2c-3.609,0-38.008,0-38.008,0C65.58,82.5,61.992,86.088,61.992,90.5z M69.992,37.501
			c0,0,3.816,0,9.029,0c0-0.638,0-1.331,0-2h-9.029c-3.313,0-6-2.687-6-6v-14h-2c0,3.063,0,14,0,14
			C61.992,33.912,65.58,37.501,69.992,37.501z M92.131,35.501c0.902,0.673,1.809,1.349,2.682,2c6.393,0,11.862,0,13.188,0v-2H92.131
			z"/>
		<path fill="#3A3A3A" d="M99.725,43.725L82.941,31.147c-0.791-0.593-1.92-0.028-1.92,0.96v8.328c0,0-42.243-0.061-46.641,0
			c-7.732,0.106-12.426,2.526-12.388,11.98c0.024,5.619-0.107,14.474-0.038,16.179c0.182,4.522,4.942,7.121,6.798,8.938
			c3.94,3.855,4.26,5.47,4.26,9.035c0,3.174-0.051,11.982-0.051,11.982l8.059-0.058c0,0,0.006-11.541,0.025-14.005
			c0.029-4.066-0.416-6.033-6.219-11.85c-3.363-3.369-4.897-3.523-4.9-9.609c-0.002-2.031,0.093-8.541,0.063-10.077
			c-0.058-3.019,1.375-4.396,3.835-4.454c1.264-0.029,47.196,0,47.196,0v8.766c0,0.989,1.129,1.553,1.92,0.96l16.783-12.578
			C100.365,45.165,100.365,44.205,99.725,43.725z"/>
	</g>
</g>
<g id="blue">
	<path fill="#7B7B7B" d="M69.991,84.5c-3.313,0-6,2.688-6,6v13.999H24.992V90.5c0-3.313-2.687-6-6-6H12v-49h6.992
		c3.313,0,6-2.687,6-6v-14h38.999v14c0,3.313,2.688,6,6,6h38.008v49H69.991L69.991,84.5z"/>
	
		<radialGradient id="SVGID_1_" cx="297.5996" cy="-299.8999" r="46.2829" gradientTransform="matrix(1 0 0 -1 -237.5996 -239.9004)" gradientUnits="userSpaceOnUse">
		<stop  offset="0.14" style="stop-color:#AEAEAE"/>
		<stop  offset="0.96" style="stop-color:#CBCBCB"/>
	</radialGradient>
	<path fill="url(#SVGID_1_)" d="M26.992,104.499c0-3.063,0-13.999,0-13.999c0-4.412-3.589-8-8-8c0,0-4.574,0-6.992,0
		c0-3.523,0-41.476,0-45c2.417,0,6.992,0,6.992,0c4.411,0,8-3.589,8-8c0,0,0-10.937,0-14c3.406,0,31.593,0,34.999,0
		c0,3.063,0,14,0,14c0,4.411,3.589,8,8,8c0,0,34.397,0,38.008,0c0,3.524,0,41.475,0,45c-3.608,0-38.008,0-38.008,0
		c-4.411,0-8,3.588-8,8c0-0.001,0,10.938,0,13.999C58.585,104.499,30.398,104.499,26.992,104.499"/>
	<path fill-opacity="0.1" d="M34.963,102.549c-0.53,0-1.04-0.21-1.414-0.584c-0.376-0.375-0.588-0.886-0.588-1.416
		c0-0.003,0-0.008,0-0.012c0.001-0.088,0.051-8.84,0.051-11.971c0-2.846,0-4.024-3.66-7.607c-0.328-0.322-0.841-0.73-1.384-1.164
		c-2.322-1.857-5.833-4.664-6.014-9.121c-0.014-0.379-0.022-1.042-0.022-2.027c0-1.371,0.013-3.274,0.027-5.291
		c0.016-2.393,0.035-5.105,0.035-7.431l-0.003-1.504v-0.122c0-5.098,1.316-8.676,4.024-10.937c2.313-1.931,5.597-2.862,10.336-2.928
		c1.297-0.018,6.486-0.027,15.859-0.027c0,0,25.308,0.018,28.81,0.019c0-2.289,0-6.175,0-6.284
		c-0.016-0.122-0.022-0.244-0.022-0.365c0-1.698,1.382-3.08,3.079-3.08c0.865,0,1.688,0.367,2.267,0.996
		c1.994,1.486,15.235,11.364,16.468,12.282c0.918,0.558,1.481,1.545,1.481,2.633c0,1.068-0.549,2.046-1.444,2.608
		c-0.101,0.074-16.104,11.875-16.494,12.162c-0.578,0.636-1.406,1.009-2.276,1.009c-1.697,0-3.079-1.384-3.079-3.081
		c0-0.124,0.006-0.249,0.021-0.372c0-0.228,0-4.143,0-6.443c-0.957,0-1.916,0-1.916,0l-28.709-0.008
		c-11.555,0-14.278,0.007-14.526,0.011c-1.065,0.026-1.882,0.21-1.882,2.281v0.12c0,0.01,0.008,0.958,0.008,0.958
		c0,1.252-0.02,3.223-0.039,5.127c-0.016,1.627-0.03,3.166-0.03,3.994v0.053c0.001,2.088,0.19,3.412,0.613,4.289
		c0.383,0.793,1.017,1.379,2.069,2.353c0.48,0.444,1.027,0.948,1.634,1.558c5.821,5.834,6.805,8.349,6.805,12.939l-0.001,0.173
		v0.147c0,0.002,0,0.016,0,0.018c-0.019,2.428-0.026,13.873-0.026,13.989c-0.001,1.099-0.887,1.989-1.986,1.997l-8.059,0.059
		C34.971,102.549,34.968,102.549,34.963,102.549"/>
	<path fill="#70B7E0" d="M32.963,100.549c-0.53,0-1.04-0.21-1.414-0.584c-0.376-0.375-0.588-0.886-0.588-1.416
		c0-0.003,0-0.008,0-0.012c0.001-0.088,0.051-8.84,0.051-11.971c0-2.846,0-4.024-3.66-7.607c-0.328-0.322-0.841-0.73-1.384-1.164
		c-2.322-1.857-5.833-4.664-6.014-9.121c-0.014-0.379-0.022-1.042-0.022-2.027c0-1.371,0.013-3.274,0.027-5.291
		c0.016-2.393,0.035-5.105,0.035-7.431l-0.003-1.504v-0.122c0-5.098,1.316-8.676,4.024-10.937c2.313-1.931,5.597-2.862,10.336-2.928
		c1.297-0.018,6.486-0.027,15.859-0.027c0,0,25.308,0.018,28.81,0.019c0-2.289,0-6.175,0-6.284
		c-0.016-0.122-0.022-0.244-0.022-0.365c0-1.698,1.382-3.08,3.079-3.08c0.865,0,1.688,0.367,2.267,0.996
		c1.994,1.486,15.235,11.364,16.468,12.282c0.918,0.558,1.481,1.545,1.481,2.633c0,1.068-0.549,2.046-1.444,2.608
		c-0.101,0.074-16.104,11.875-16.494,12.162c-0.578,0.636-1.406,1.007-2.276,1.007c-1.697,0-3.079-1.382-3.079-3.08
		c0-0.124,0.006-0.249,0.021-0.372c0-0.228,0-4.143,0-6.443c-0.957,0-1.916,0-1.916,0l-28.709-0.008
		c-11.555,0-14.278,0.007-14.526,0.011c-1.065,0.026-1.882,0.21-1.882,2.281v0.12c0,0.01,0.008,0.958,0.008,0.958
		c0,1.252-0.02,3.223-0.039,5.126c-0.016,1.627-0.03,3.167-0.03,3.997v0.053c0.001,2.086,0.19,3.412,0.613,4.289
		c0.383,0.793,1.017,1.379,2.069,2.352c0.48,0.445,1.027,0.947,1.634,1.557c5.821,5.834,6.805,8.35,6.805,12.94l-0.001,0.173v0.148
		c0,0.002,0,0.015,0,0.017c-0.019,2.429-0.026,13.873-0.026,13.989c-0.001,1.099-0.887,1.99-1.986,1.998l-8.059,0.058
		C32.971,100.549,32.968,100.549,32.963,100.549"/>
	<g>
		
			<linearGradient id="SVGID_2_" gradientUnits="userSpaceOnUse" x1="298.7148" y1="-338.4497" x2="298.7148" y2="-270.5962" gradientTransform="matrix(1 0 0 -1 -237.5996 -239.9004)">
			<stop  offset="0" style="stop-color:#48A2FB"/>
			<stop  offset="0.1758" style="stop-color:#059CF4"/>
			<stop  offset="0.4969" style="stop-color:#0398EF"/>
			<stop  offset="0.782" style="stop-color:#0293E7"/>
			<stop  offset="1" style="stop-color:#0189D8"/>
		</linearGradient>
		<path fill="url(#SVGID_2_)" d="M87.855,48.497c0,0-52.768-0.029-54.031,0c-2.46,0.058-3.893,1.435-3.835,4.454
			c0.03,1.538-0.064,8.046-0.063,10.078c0.003,6.086,1.538,6.24,4.9,9.609c5.803,5.814,6.248,7.781,6.219,11.85
			c-0.019,2.463-0.025,14.004-0.025,14.004l-8.059,0.058c0,0,0.051-8.81,0.051-11.981c0-3.566-0.32-5.18-4.26-9.037
			c-1.856-1.814-6.616-4.414-6.798-8.936c-0.069-1.705,0.062-10.561,0.038-16.181c-0.038-9.454,4.656-11.874,12.388-11.979
			c4.398-0.061,53.531,0,53.531,0L87.855,48.497L87.855,48.497z M99.713,45.571L82.646,58.155l-1.625-1.059V32.068l1.601-1.166
			l17.172,12.809L99.713,45.571L99.713,45.571z M82.078,32.856c-0.596,0-1.079-0.484-1.079-1.08c0-0.596,0.483-1.08,1.079-1.08
			s1.08,0.484,1.08,1.08C83.158,32.372,82.674,32.856,82.078,32.856L82.078,32.856z M82.078,58.386
			c-0.596,0-1.079-0.483-1.079-1.079c0-0.598,0.483-1.08,1.079-1.08s1.08,0.482,1.08,1.08
			C83.158,57.902,82.674,58.386,82.078,58.386L82.078,58.386z M99.215,45.688c-0.596,0-1.078-0.483-1.078-1.079
			c0-0.596,0.482-1.08,1.078-1.08s1.079,0.483,1.079,1.08C100.294,45.204,99.811,45.688,99.215,45.688L99.215,45.688z"/>
	</g>
</g>
<g id="green">
	<path fill="#7B7B7B" d="M69.991,84.5c-3.313,0-6,2.688-6,6v13.999H24.992V90.5c0-3.313-2.687-6-6-6H12v-49h6.992
		c3.313,0,6-2.687,6-6v-14h38.999v14c0,3.313,2.688,6,6,6h38.008v49H69.991L69.991,84.5z"/>
	
		<radialGradient id="SVGID_3_" cx="297.5996" cy="-299.8999" r="46.2829" gradientTransform="matrix(1 0 0 -1 -237.5996 -239.9004)" gradientUnits="userSpaceOnUse">
		<stop  offset="0.14" style="stop-color:#AEAEAE"/>
		<stop  offset="0.96" style="stop-color:#CBCBCB"/>
	</radialGradient>
	<path fill="url(#SVGID_3_)" d="M26.992,104.499c0-3.063,0-13.999,0-13.999c0-4.412-3.589-8-8-8c0,0-4.574,0-6.992,0
		c0-3.523,0-41.476,0-45c2.417,0,6.992,0,6.992,0c4.411,0,8-3.589,8-8c0,0,0-10.937,0-14c3.406,0,31.593,0,34.999,0
		c0,3.063,0,14,0,14c0,4.411,3.589,8,8,8c0,0,34.397,0,38.008,0c0,3.524,0,41.475,0,45c-3.608,0-38.008,0-38.008,0
		c-4.411,0-8,3.588-8,8c0-0.001,0,10.938,0,13.999C58.585,104.499,30.398,104.499,26.992,104.499"/>
	<path fill-opacity="0.1" d="M34.963,102.549c-0.53,0-1.04-0.21-1.414-0.584c-0.376-0.375-0.588-0.886-0.588-1.416
		c0-0.003,0-0.008,0-0.012c0.001-0.088,0.051-8.84,0.051-11.971c0-2.846,0-4.024-3.66-7.607c-0.328-0.322-0.841-0.73-1.384-1.164
		c-2.322-1.857-5.833-4.664-6.014-9.121c-0.014-0.379-0.022-1.042-0.022-2.027c0-1.371,0.013-3.274,0.027-5.291
		c0.016-2.393,0.035-5.105,0.035-7.431l-0.003-1.504v-0.122c0-5.098,1.316-8.676,4.024-10.937c2.313-1.931,5.597-2.862,10.336-2.928
		c1.297-0.018,6.486-0.027,15.859-0.027c0,0,25.308,0.018,28.81,0.019c0-2.289,0-6.175,0-6.284
		c-0.016-0.122-0.022-0.244-0.022-0.365c0-1.698,1.382-3.08,3.079-3.08c0.865,0,1.688,0.367,2.267,0.996
		c1.994,1.486,15.235,11.364,16.468,12.282c0.918,0.558,1.481,1.545,1.481,2.633c0,1.068-0.549,2.046-1.444,2.608
		c-0.101,0.074-16.104,11.875-16.494,12.162c-0.578,0.636-1.406,1.009-2.276,1.009c-1.697,0-3.079-1.384-3.079-3.081
		c0-0.124,0.006-0.249,0.021-0.372c0-0.228,0-4.143,0-6.443c-0.957,0-1.916,0-1.916,0l-28.709-0.008
		c-11.555,0-14.278,0.007-14.526,0.011c-1.065,0.026-1.882,0.21-1.882,2.281v0.12c0,0.01,0.008,0.958,0.008,0.958
		c0,1.252-0.02,3.223-0.039,5.127c-0.016,1.627-0.03,3.166-0.03,3.994v0.053c0.001,2.088,0.19,3.412,0.613,4.289
		c0.383,0.793,1.017,1.379,2.069,2.353c0.48,0.444,1.027,0.948,1.634,1.558c5.821,5.834,6.805,8.349,6.805,12.939l-0.001,0.173
		v0.147c0,0.002,0,0.016,0,0.018c-0.019,2.428-0.026,13.873-0.026,13.989c-0.001,1.099-0.887,1.989-1.986,1.997l-8.059,0.059
		C34.971,102.549,34.968,102.549,34.963,102.549"/>
	<path fill="#03FC30" d="M32.963,100.549c-0.53,0-1.04-0.21-1.414-0.584c-0.376-0.375-0.588-0.886-0.588-1.416
		c0-0.003,0-0.008,0-0.012c0.001-0.088,0.051-8.84,0.051-11.971c0-2.846,0-4.024-3.66-7.607c-0.328-0.322-0.841-0.73-1.384-1.164
		c-2.322-1.857-5.833-4.664-6.014-9.121c-0.014-0.379-0.022-1.042-0.022-2.027c0-1.371,0.013-3.274,0.027-5.291
		c0.016-2.393,0.035-5.105,0.035-7.431l-0.003-1.504v-0.122c0-5.098,1.316-8.676,4.024-10.937c2.313-1.931,5.597-2.862,10.336-2.928
		c1.297-0.018,6.486-0.027,15.859-0.027c0,0,25.308,0.018,28.81,0.019c0-2.289,0-6.175,0-6.284
		c-0.016-0.122-0.022-0.244-0.022-0.365c0-1.698,1.382-3.08,3.079-3.08c0.865,0,1.688,0.367,2.267,0.996
		c1.994,1.486,15.235,11.364,16.468,12.282c0.918,0.558,1.481,1.545,1.481,2.633c0,1.068-0.549,2.046-1.444,2.608
		c-0.101,0.074-16.104,11.875-16.494,12.162c-0.578,0.636-1.406,1.007-2.276,1.007c-1.697,0-3.079-1.382-3.079-3.08
		c0-0.124,0.006-0.249,0.021-0.372c0-0.228,0-4.143,0-6.443c-0.957,0-1.916,0-1.916,0l-28.709-0.008
		c-11.555,0-14.278,0.007-14.526,0.011c-1.065,0.026-1.882,0.21-1.882,2.281v0.12c0,0.01,0.008,0.958,0.008,0.958
		c0,1.252-0.02,3.223-0.039,5.126c-0.016,1.627-0.03,3.167-0.03,3.997v0.053c0.001,2.086,0.19,3.412,0.613,4.289
		c0.383,0.793,1.017,1.379,2.069,2.352c0.48,0.445,1.027,0.947,1.634,1.557c5.821,5.834,6.805,8.35,6.805,12.94l-0.001,0.173v0.148
		c0,0.002,0,0.015,0,0.017c-0.019,2.429-0.026,13.873-0.026,13.989c-0.001,1.099-0.887,1.99-1.986,1.998l-8.059,0.058
		C32.971,100.549,32.968,100.549,32.963,100.549"/>
	<g>
		
			<linearGradient id="SVGID_4_" gradientUnits="userSpaceOnUse" x1="298.7148" y1="-338.4497" x2="298.7148" y2="-270.5962" gradientTransform="matrix(1 0 0 -1 -237.5996 -239.9004)">
			<stop  offset="0" style="stop-color:#00DF34"/>
			<stop  offset="0.1758" style="stop-color:#00CD26"/>
			<stop  offset="0.4969" style="stop-color:#00B211"/>
			<stop  offset="0.782" style="stop-color:#00A204"/>
			<stop  offset="1" style="stop-color:#009C00"/>
		</linearGradient>
		<path fill="url(#SVGID_4_)" d="M87.855,48.497c0,0-52.768-0.029-54.031,0c-2.46,0.058-3.893,1.435-3.835,4.454
			c0.03,1.538-0.064,8.046-0.063,10.078c0.003,6.086,1.538,6.24,4.9,9.609c5.803,5.814,6.248,7.781,6.219,11.85
			c-0.019,2.463-0.025,14.004-0.025,14.004l-8.059,0.058c0,0,0.051-8.81,0.051-11.981c0-3.566-0.32-5.18-4.26-9.037
			c-1.856-1.814-6.616-4.414-6.798-8.936c-0.069-1.705,0.062-10.561,0.038-16.181c-0.038-9.454,4.656-11.874,12.388-11.979
			c4.398-0.061,53.531,0,53.531,0L87.855,48.497L87.855,48.497z M99.713,45.571L82.646,58.155l-1.625-1.059V32.068l1.601-1.166
			l17.172,12.809L99.713,45.571L99.713,45.571z M82.078,32.856c-0.596,0-1.079-0.484-1.079-1.08c0-0.596,0.483-1.08,1.079-1.08
			s1.08,0.484,1.08,1.08C83.158,32.372,82.674,32.856,82.078,32.856L82.078,32.856z M82.078,58.386
			c-0.596,0-1.079-0.483-1.079-1.079c0-0.598,0.483-1.08,1.079-1.08s1.08,0.482,1.08,1.08
			C83.158,57.902,82.674,58.386,82.078,58.386L82.078,58.386z M99.215,45.688c-0.596,0-1.078-0.483-1.078-1.079
			c0-0.596,0.482-1.08,1.078-1.08s1.079,0.483,1.079,1.08C100.294,45.204,99.811,45.688,99.215,45.688L99.215,45.688z"/>
	</g>
</g>
<g id="kia">
	<path fill="#7B7B7B" d="M69.991,84.5c-3.313,0-6,2.688-6,6v13.999H24.992V90.5c0-3.313-2.687-6-6-6H12v-49h6.992
		c3.313,0,6-2.687,6-6v-14h38.999v14c0,3.313,2.688,6,6,6h38.008v49H69.991L69.991,84.5z"/>
	
		<radialGradient id="SVGID_5_" cx="297.5996" cy="-299.8999" r="46.2829" gradientTransform="matrix(1 0 0 -1 -237.5996 -239.9004)" gradientUnits="userSpaceOnUse">
		<stop  offset="0.14" style="stop-color:#AEAEAE"/>
		<stop  offset="0.96" style="stop-color:#CBCBCB"/>
	</radialGradient>
	<path fill="url(#SVGID_5_)" d="M26.992,104.499c0-3.063,0-13.999,0-13.999c0-4.412-3.589-8-8-8c0,0-4.574,0-6.992,0
		c0-3.523,0-41.476,0-45c2.417,0,6.992,0,6.992,0c4.411,0,8-3.589,8-8c0,0,0-10.937,0-14c3.406,0,31.593,0,34.999,0
		c0,3.063,0,14,0,14c0,4.411,3.589,8,8,8c0,0,34.397,0,38.008,0c0,3.524,0,41.475,0,45c-3.608,0-38.008,0-38.008,0
		c-4.411,0-8,3.588-8,8c0-0.001,0,10.938,0,13.999C58.585,104.499,30.398,104.499,26.992,104.499"/>
	<path fill-opacity="0.1" d="M34.963,102.549c-0.53,0-1.04-0.21-1.414-0.584c-0.376-0.375-0.588-0.886-0.588-1.416
		c0-0.003,0-0.008,0-0.012c0.001-0.088,0.051-8.84,0.051-11.971c0-2.846,0-4.024-3.66-7.607c-0.328-0.322-0.841-0.73-1.384-1.164
		c-2.322-1.857-5.833-4.664-6.014-9.121c-0.014-0.379-0.022-1.042-0.022-2.027c0-1.371,0.013-3.274,0.027-5.291
		c0.016-2.393,0.035-5.105,0.035-7.431l-0.003-1.504v-0.122c0-5.098,1.316-8.676,4.024-10.937c2.313-1.931,5.597-2.862,10.336-2.928
		c1.297-0.018,6.486-0.027,15.859-0.027c0,0,25.308,0.018,28.81,0.019c0-2.289,0-6.175,0-6.284
		c-0.016-0.122-0.022-0.244-0.022-0.365c0-1.698,1.382-3.08,3.079-3.08c0.865,0,1.688,0.367,2.267,0.996
		c1.994,1.486,15.235,11.364,16.468,12.282c0.918,0.558,1.481,1.545,1.481,2.633c0,1.068-0.549,2.046-1.444,2.608
		c-0.101,0.074-16.104,11.875-16.494,12.162c-0.578,0.636-1.406,1.009-2.276,1.009c-1.697,0-3.079-1.384-3.079-3.081
		c0-0.124,0.006-0.249,0.021-0.372c0-0.228,0-4.143,0-6.443c-0.957,0-1.916,0-1.916,0l-28.709-0.008
		c-11.555,0-14.278,0.007-14.526,0.011c-1.065,0.026-1.882,0.21-1.882,2.281v0.12c0,0.01,0.008,0.958,0.008,0.958
		c0,1.252-0.02,3.223-0.039,5.127c-0.016,1.627-0.03,3.166-0.03,3.994v0.053c0.001,2.088,0.19,3.412,0.613,4.289
		c0.383,0.793,1.017,1.379,2.069,2.353c0.48,0.444,1.027,0.948,1.634,1.558c5.821,5.834,6.805,8.349,6.805,12.939l-0.001,0.173
		v0.147c0,0.002,0,0.016,0,0.018c-0.019,2.428-0.026,13.873-0.026,13.989c-0.001,1.099-0.887,1.989-1.986,1.997l-8.059,0.059
		C34.971,102.549,34.968,102.549,34.963,102.549"/>
	<path fill="#179e1e" d="M32.963,100.549c-0.53,0-1.04-0.21-1.414-0.584c-0.376-0.375-0.588-0.886-0.588-1.416
		c0-0.003,0-0.008,0-0.012c0.001-0.088,0.051-8.84,0.051-11.971c0-2.846,0-4.024-3.66-7.607c-0.328-0.322-0.841-0.73-1.384-1.164
		c-2.322-1.857-5.833-4.664-6.014-9.121c-0.014-0.379-0.022-1.042-0.022-2.027c0-1.371,0.013-3.274,0.027-5.291
		c0.016-2.393,0.035-5.105,0.035-7.431l-0.003-1.504v-0.122c0-5.098,1.316-8.676,4.024-10.937c2.313-1.931,5.597-2.862,10.336-2.928
		c1.297-0.018,6.486-0.027,15.859-0.027c0,0,25.308,0.018,28.81,0.019c0-2.289,0-6.175,0-6.284
		c-0.016-0.122-0.022-0.244-0.022-0.365c0-1.698,1.382-3.08,3.079-3.08c0.865,0,1.688,0.367,2.267,0.996
		c1.994,1.486,15.235,11.364,16.468,12.282c0.918,0.558,1.481,1.545,1.481,2.633c0,1.068-0.549,2.046-1.444,2.608
		c-0.101,0.074-16.104,11.875-16.494,12.162c-0.578,0.636-1.406,1.007-2.276,1.007c-1.697,0-3.079-1.382-3.079-3.08
		c0-0.124,0.006-0.249,0.021-0.372c0-0.228,0-4.143,0-6.443c-0.957,0-1.916,0-1.916,0l-28.709-0.008
		c-11.555,0-14.278,0.007-14.526,0.011c-1.065,0.026-1.882,0.21-1.882,2.281v0.12c0,0.01,0.008,0.958,0.008,0.958
		c0,1.252-0.02,3.223-0.039,5.126c-0.016,1.627-0.03,3.167-0.03,3.997v0.053c0.001,2.086,0.19,3.412,0.613,4.289
		c0.383,0.793,1.017,1.379,2.069,2.352c0.48,0.445,1.027,0.947,1.634,1.557c5.821,5.834,6.805,8.35,6.805,12.94l-0.001,0.173v0.148
		c0,0.002,0,0.015,0,0.017c-0.019,2.429-0.026,13.873-0.026,13.989c-0.001,1.099-0.887,1.99-1.986,1.998l-8.059,0.058
		C32.971,100.549,32.968,100.549,32.963,100.549"/>
	<g>
		
			<linearGradient id="SVGID_6_" gradientUnits="userSpaceOnUse" x1="298.7148" y1="-338.4497" x2="298.7148" y2="-270.5962" gradientTransform="matrix(1 0 0 -1 -237.5996 -239.9004)">
			<stop  offset="0" style="stop-color:#FFFFFF"/>
			<stop  offset="0.1758" style="stop-color:#E7E9EA"/>
			<stop  offset="0.4969" style="stop-color:#CDD2D5"/>
			<stop  offset="0.782" style="stop-color:#C5CACC"/>
			<stop  offset="1" style="stop-color:#BABDC0"/>
		</linearGradient>
		<path fill="url(#SVGID_6_)" d="M87.855,48.497c0,0-52.768-0.029-54.031,0c-2.46,0.058-3.893,1.435-3.835,4.454
			c0.03,1.538-0.064,8.046-0.063,10.078c0.003,6.086,1.538,6.24,4.9,9.609c5.803,5.814,6.248,7.781,6.219,11.85
			c-0.019,2.463-0.025,14.004-0.025,14.004l-8.059,0.058c0,0,0.051-8.81,0.051-11.981c0-3.566-0.32-5.18-4.26-9.037
			c-1.856-1.814-6.616-4.414-6.798-8.936c-0.069-1.705,0.062-10.561,0.038-16.181c-0.038-9.454,4.656-11.874,12.388-11.979
			c4.398-0.061,53.531,0,53.531,0L87.855,48.497L87.855,48.497z M99.713,45.571L82.646,58.155l-1.625-1.059V32.068l1.601-1.166
			l17.172,12.809L99.713,45.571L99.713,45.571z M82.078,32.856c-0.596,0-1.079-0.484-1.079-1.08c0-0.596,0.483-1.08,1.079-1.08
			s1.08,0.484,1.08,1.08C83.158,32.372,82.674,32.856,82.078,32.856L82.078,32.856z M82.078,58.386
			c-0.596,0-1.079-0.483-1.079-1.079c0-0.598,0.483-1.08,1.079-1.08s1.08,0.482,1.08,1.08
			C83.158,57.902,82.674,58.386,82.078,58.386L82.078,58.386z M99.215,45.688c-0.596,0-1.078-0.483-1.078-1.079
			c0-0.596,0.482-1.08,1.078-1.08s1.079,0.483,1.079,1.08C100.294,45.204,99.811,45.688,99.215,45.688L99.215,45.688z"/>
	</g>
</g>
<g id="orange">
	<path fill="#7B7B7B" d="M69.991,84.5c-3.313,0-6,2.688-6,6v13.999H24.992V90.5c0-3.313-2.687-6-6-6H12v-49h6.992
		c3.313,0,6-2.687,6-6v-14h38.999v14c0,3.313,2.688,6,6,6h38.008v49H69.991L69.991,84.5z"/>
	
		<radialGradient id="SVGID_7_" cx="297.5996" cy="-299.8999" r="46.2829" gradientTransform="matrix(1 0 0 -1 -237.5996 -239.9004)" gradientUnits="userSpaceOnUse">
		<stop  offset="0.14" style="stop-color:#AEAEAE"/>
		<stop  offset="0.96" style="stop-color:#CBCBCB"/>
	</radialGradient>
	<path fill="url(#SVGID_7_)" d="M26.992,104.499c0-3.063,0-13.999,0-13.999c0-4.412-3.589-8-8-8c0,0-4.574,0-6.992,0
		c0-3.523,0-41.476,0-45c2.417,0,6.992,0,6.992,0c4.411,0,8-3.589,8-8c0,0,0-10.937,0-14c3.406,0,31.593,0,34.999,0
		c0,3.063,0,14,0,14c0,4.411,3.589,8,8,8c0,0,34.397,0,38.008,0c0,3.524,0,41.475,0,45c-3.608,0-38.008,0-38.008,0
		c-4.411,0-8,3.588-8,8c0-0.001,0,10.938,0,13.999C58.585,104.499,30.398,104.499,26.992,104.499"/>
	<path fill-opacity="0.1" d="M34.963,102.549c-0.53,0-1.04-0.21-1.414-0.584c-0.376-0.375-0.588-0.886-0.588-1.416
		c0-0.003,0-0.008,0-0.012c0.001-0.088,0.051-8.84,0.051-11.971c0-2.846,0-4.024-3.66-7.607c-0.328-0.322-0.841-0.73-1.384-1.164
		c-2.322-1.857-5.833-4.664-6.014-9.121c-0.014-0.379-0.022-1.042-0.022-2.027c0-1.371,0.013-3.274,0.027-5.291
		c0.016-2.393,0.035-5.105,0.035-7.431l-0.003-1.504v-0.122c0-5.098,1.316-8.676,4.024-10.937c2.313-1.931,5.597-2.862,10.336-2.928
		c1.297-0.018,6.486-0.027,15.859-0.027c0,0,25.308,0.018,28.81,0.019c0-2.289,0-6.175,0-6.284
		c-0.016-0.122-0.022-0.244-0.022-0.365c0-1.698,1.382-3.08,3.079-3.08c0.865,0,1.688,0.367,2.267,0.996
		c1.994,1.486,15.235,11.364,16.468,12.282c0.918,0.558,1.481,1.545,1.481,2.633c0,1.068-0.549,2.046-1.444,2.608
		c-0.101,0.074-16.104,11.875-16.494,12.162c-0.578,0.636-1.406,1.009-2.276,1.009c-1.697,0-3.079-1.384-3.079-3.081
		c0-0.124,0.006-0.249,0.021-0.372c0-0.228,0-4.143,0-6.443c-0.957,0-1.916,0-1.916,0l-28.709-0.008
		c-11.555,0-14.278,0.007-14.526,0.011c-1.065,0.026-1.882,0.21-1.882,2.281v0.12c0,0.01,0.008,0.958,0.008,0.958
		c0,1.252-0.02,3.223-0.039,5.127c-0.016,1.627-0.03,3.166-0.03,3.994v0.053c0.001,2.088,0.19,3.412,0.613,4.289
		c0.383,0.793,1.017,1.379,2.069,2.353c0.48,0.444,1.027,0.948,1.634,1.558c5.821,5.834,6.805,8.349,6.805,12.939l-0.001,0.173
		v0.147c0,0.002,0,0.016,0,0.018c-0.019,2.428-0.026,13.873-0.026,13.989c-0.001,1.099-0.887,1.989-1.986,1.997l-8.059,0.059
		C34.971,102.549,34.968,102.549,34.963,102.549"/>
	<path fill="#FFE035" d="M32.963,100.549c-0.53,0-1.04-0.21-1.414-0.584c-0.376-0.375-0.588-0.886-0.588-1.416
		c0-0.003,0-0.008,0-0.012c0.001-0.088,0.051-8.84,0.051-11.971c0-2.846,0-4.024-3.66-7.607c-0.328-0.322-0.841-0.73-1.384-1.164
		c-2.322-1.857-5.833-4.664-6.014-9.121c-0.014-0.379-0.022-1.042-0.022-2.027c0-1.371,0.013-3.274,0.027-5.291
		c0.016-2.393,0.035-5.105,0.035-7.431l-0.003-1.504v-0.122c0-5.098,1.316-8.676,4.024-10.937c2.313-1.931,5.597-2.862,10.336-2.928
		c1.297-0.018,6.486-0.027,15.859-0.027c0,0,25.308,0.018,28.81,0.019c0-2.289,0-6.175,0-6.284
		c-0.016-0.122-0.022-0.244-0.022-0.365c0-1.698,1.382-3.08,3.079-3.08c0.865,0,1.688,0.367,2.267,0.996
		c1.994,1.486,15.235,11.364,16.468,12.282c0.918,0.558,1.481,1.545,1.481,2.633c0,1.068-0.549,2.046-1.444,2.608
		c-0.101,0.074-16.104,11.875-16.494,12.162c-0.578,0.636-1.406,1.007-2.276,1.007c-1.697,0-3.079-1.382-3.079-3.08
		c0-0.124,0.006-0.249,0.021-0.372c0-0.228,0-4.143,0-6.443c-0.957,0-1.916,0-1.916,0l-28.709-0.008
		c-11.555,0-14.278,0.007-14.526,0.011c-1.065,0.026-1.882,0.21-1.882,2.281v0.12c0,0.01,0.008,0.958,0.008,0.958
		c0,1.252-0.02,3.223-0.039,5.126c-0.016,1.627-0.03,3.167-0.03,3.997v0.053c0.001,2.086,0.19,3.412,0.613,4.289
		c0.383,0.793,1.017,1.379,2.069,2.352c0.48,0.445,1.027,0.947,1.634,1.557c5.821,5.834,6.805,8.35,6.805,12.94l-0.001,0.173v0.148
		c0,0.002,0,0.015,0,0.017c-0.019,2.429-0.026,13.873-0.026,13.989c-0.001,1.099-0.887,1.99-1.986,1.998l-8.059,0.058
		C32.971,100.549,32.968,100.549,32.963,100.549"/>
	<g>
		
			<linearGradient id="SVGID_8_" gradientUnits="userSpaceOnUse" x1="298.7148" y1="-338.4497" x2="298.7148" y2="-270.5962" gradientTransform="matrix(1 0 0 -1 -237.5996 -239.9004)">
			<stop  offset="0" style="stop-color:#FEDF34"/>
			<stop  offset="0.1758" style="stop-color:#FECD26"/>
			<stop  offset="0.4969" style="stop-color:#FFB211"/>
			<stop  offset="0.782" style="stop-color:#FFA204"/>
			<stop  offset="1" style="stop-color:#FF9C00"/>
		</linearGradient>
		<path fill="url(#SVGID_8_)" d="M87.855,48.497c0,0-52.768-0.029-54.031,0c-2.46,0.058-3.893,1.435-3.835,4.454
			c0.03,1.538-0.064,8.046-0.063,10.078c0.003,6.086,1.538,6.24,4.9,9.609c5.803,5.814,6.248,7.781,6.219,11.85
			c-0.019,2.463-0.025,14.004-0.025,14.004l-8.059,0.058c0,0,0.051-8.81,0.051-11.981c0-3.566-0.32-5.18-4.26-9.037
			c-1.856-1.814-6.616-4.414-6.798-8.936c-0.069-1.705,0.062-10.561,0.038-16.181c-0.038-9.454,4.656-11.874,12.388-11.979
			c4.398-0.061,53.531,0,53.531,0L87.855,48.497L87.855,48.497z M99.713,45.571L82.646,58.155l-1.625-1.059V32.068l1.601-1.166
			l17.172,12.809L99.713,45.571L99.713,45.571z M82.078,32.856c-0.596,0-1.079-0.484-1.079-1.08c0-0.596,0.483-1.08,1.079-1.08
			s1.08,0.484,1.08,1.08C83.158,32.372,82.674,32.856,82.078,32.856L82.078,32.856z M82.078,58.386
			c-0.596,0-1.079-0.483-1.079-1.079c0-0.598,0.483-1.08,1.079-1.08s1.08,0.482,1.08,1.08
			C83.158,57.902,82.674,58.386,82.078,58.386L82.078,58.386z M99.215,45.688c-0.596,0-1.078-0.483-1.078-1.079
			c0-0.596,0.482-1.08,1.078-1.08s1.079,0.483,1.079,1.08C100.294,45.204,99.811,45.688,99.215,45.688L99.215,45.688z"/>
	</g>
</g>
<g id="red">
	<path fill="#7B7B7B" d="M69.991,84.5c-3.313,0-6,2.688-6,6v13.999H24.992V90.5c0-3.313-2.687-6-6-6H12v-49h6.992
		c3.313,0,6-2.687,6-6v-14h38.999v14c0,3.313,2.688,6,6,6h38.008v49H69.991L69.991,84.5z"/>
	
		<radialGradient id="SVGID_9_" cx="297.5996" cy="-299.8999" r="46.2829" gradientTransform="matrix(1 0 0 -1 -237.5996 -239.9004)" gradientUnits="userSpaceOnUse">
		<stop  offset="0.14" style="stop-color:#AEAEAE"/>
		<stop  offset="0.96" style="stop-color:#CBCBCB"/>
	</radialGradient>
	<path fill="url(#SVGID_9_)" d="M26.992,104.499c0-3.063,0-13.999,0-13.999c0-4.412-3.589-8-8-8c0,0-4.574,0-6.992,0
		c0-3.523,0-41.476,0-45c2.417,0,6.992,0,6.992,0c4.411,0,8-3.589,8-8c0,0,0-10.937,0-14c3.406,0,31.593,0,34.999,0
		c0,3.063,0,14,0,14c0,4.411,3.589,8,8,8c0,0,34.397,0,38.008,0c0,3.524,0,41.475,0,45c-3.608,0-38.008,0-38.008,0
		c-4.411,0-8,3.588-8,8c0-0.001,0,10.938,0,13.999C58.585,104.499,30.398,104.499,26.992,104.499"/>
	<path fill-opacity="0.1" d="M34.963,102.549c-0.53,0-1.04-0.21-1.414-0.584c-0.376-0.375-0.588-0.886-0.588-1.416
		c0-0.003,0-0.008,0-0.012c0.001-0.088,0.051-8.84,0.051-11.971c0-2.846,0-4.024-3.66-7.607c-0.328-0.322-0.841-0.73-1.384-1.164
		c-2.322-1.857-5.833-4.664-6.014-9.121c-0.014-0.379-0.022-1.042-0.022-2.027c0-1.371,0.013-3.274,0.027-5.291
		c0.016-2.393,0.035-5.105,0.035-7.431l-0.003-1.504v-0.122c0-5.098,1.316-8.676,4.024-10.937c2.313-1.931,5.597-2.862,10.336-2.928
		c1.297-0.018,6.486-0.027,15.859-0.027c0,0,25.308,0.018,28.81,0.019c0-2.289,0-6.175,0-6.284
		c-0.016-0.122-0.022-0.244-0.022-0.365c0-1.698,1.382-3.08,3.079-3.08c0.865,0,1.688,0.367,2.267,0.996
		c1.994,1.486,15.235,11.364,16.468,12.282c0.918,0.558,1.481,1.545,1.481,2.633c0,1.068-0.549,2.046-1.444,2.608
		c-0.101,0.074-16.104,11.875-16.494,12.162c-0.578,0.636-1.406,1.009-2.276,1.009c-1.697,0-3.079-1.384-3.079-3.081
		c0-0.124,0.006-0.249,0.021-0.372c0-0.228,0-4.143,0-6.443c-0.957,0-1.916,0-1.916,0l-28.709-0.008
		c-11.555,0-14.278,0.007-14.526,0.011c-1.065,0.026-1.882,0.21-1.882,2.281v0.12c0,0.01,0.008,0.958,0.008,0.958
		c0,1.252-0.02,3.223-0.039,5.127c-0.016,1.627-0.03,3.166-0.03,3.994v0.053c0.001,2.088,0.19,3.412,0.613,4.289
		c0.383,0.793,1.017,1.379,2.069,2.353c0.48,0.444,1.027,0.948,1.634,1.558c5.821,5.834,6.805,8.349,6.805,12.939l-0.001,0.173
		v0.147c0,0.002,0,0.016,0,0.018c-0.019,2.428-0.026,13.873-0.026,13.989c-0.001,1.099-0.887,1.989-1.986,1.997l-8.059,0.059
		C34.971,102.549,34.968,102.549,34.963,102.549"/>
	<path fill="#FC7E7E" d="M32.963,100.549c-0.53,0-1.04-0.21-1.414-0.584c-0.376-0.375-0.588-0.886-0.588-1.416
		c0-0.003,0-0.008,0-0.012c0.001-0.088,0.051-8.84,0.051-11.971c0-2.846,0-4.024-3.66-7.607c-0.328-0.322-0.841-0.73-1.384-1.164
		c-2.322-1.857-5.833-4.664-6.014-9.121c-0.014-0.379-0.022-1.042-0.022-2.027c0-1.371,0.013-3.274,0.027-5.291
		c0.016-2.393,0.035-5.105,0.035-7.431l-0.003-1.504v-0.122c0-5.098,1.316-8.676,4.024-10.937c2.313-1.931,5.597-2.862,10.336-2.928
		c1.297-0.018,6.486-0.027,15.859-0.027c0,0,25.308,0.018,28.81,0.019c0-2.289,0-6.175,0-6.284
		c-0.016-0.122-0.022-0.244-0.022-0.365c0-1.698,1.382-3.08,3.079-3.08c0.865,0,1.688,0.367,2.267,0.996
		c1.994,1.486,15.235,11.364,16.468,12.282c0.918,0.558,1.481,1.545,1.481,2.633c0,1.068-0.549,2.046-1.444,2.608
		c-0.101,0.074-16.104,11.875-16.494,12.162c-0.578,0.636-1.406,1.007-2.276,1.007c-1.697,0-3.079-1.382-3.079-3.08
		c0-0.124,0.006-0.249,0.021-0.372c0-0.228,0-4.143,0-6.443c-0.957,0-1.916,0-1.916,0l-28.709-0.008
		c-11.555,0-14.278,0.007-14.526,0.011c-1.065,0.026-1.882,0.21-1.882,2.281v0.12c0,0.01,0.008,0.958,0.008,0.958
		c0,1.252-0.02,3.223-0.039,5.126c-0.016,1.627-0.03,3.167-0.03,3.997v0.053c0.001,2.086,0.19,3.412,0.613,4.289
		c0.383,0.793,1.017,1.379,2.069,2.352c0.48,0.445,1.027,0.947,1.634,1.557c5.821,5.834,6.805,8.35,6.805,12.94l-0.001,0.173v0.148
		c0,0.002,0,0.015,0,0.017c-0.019,2.429-0.026,13.873-0.026,13.989c-0.001,1.099-0.887,1.99-1.986,1.998l-8.059,0.058
		C32.971,100.549,32.968,100.549,32.963,100.549"/>
	<g>
		
			<linearGradient id="SVGID_10_" gradientUnits="userSpaceOnUse" x1="298.7148" y1="-338.4497" x2="298.7148" y2="-270.5962" gradientTransform="matrix(1 0 0 -1 -237.5996 -239.9004)">
			<stop  offset="0" style="stop-color:#FF0000"/>
			<stop  offset="0.1758" style="stop-color:#F60303"/>
			<stop  offset="0.4969" style="stop-color:#EC0404"/>
			<stop  offset="0.782" style="stop-color:#E30101"/>
			<stop  offset="1" style="stop-color:#D60202"/>
		</linearGradient>
		<path fill="url(#SVGID_10_)" d="M87.855,48.497c0,0-52.768-0.029-54.031,0c-2.46,0.058-3.893,1.435-3.835,4.454
			c0.03,1.538-0.064,8.046-0.063,10.078c0.003,6.086,1.538,6.24,4.9,9.609c5.803,5.814,6.248,7.781,6.219,11.85
			c-0.019,2.463-0.025,14.004-0.025,14.004l-8.059,0.058c0,0,0.051-8.81,0.051-11.981c0-3.566-0.32-5.18-4.26-9.037
			c-1.856-1.814-6.616-4.414-6.798-8.936c-0.069-1.705,0.062-10.561,0.038-16.181c-0.038-9.454,4.656-11.874,12.388-11.979
			c4.398-0.061,53.531,0,53.531,0L87.855,48.497L87.855,48.497z M99.713,45.571L82.646,58.155l-1.625-1.059V32.068l1.601-1.166
			l17.172,12.809L99.713,45.571L99.713,45.571z M82.078,32.856c-0.596,0-1.079-0.484-1.079-1.08c0-0.596,0.483-1.08,1.079-1.08
			s1.08,0.484,1.08,1.08C83.158,32.372,82.674,32.856,82.078,32.856L82.078,32.856z M82.078,58.386
			c-0.596,0-1.079-0.483-1.079-1.079c0-0.598,0.483-1.08,1.079-1.08s1.08,0.482,1.08,1.08
			C83.158,57.902,82.674,58.386,82.078,58.386L82.078,58.386z M99.215,45.688c-0.596,0-1.078-0.483-1.078-1.079
			c0-0.596,0.482-1.08,1.078-1.08s1.079,0.483,1.079,1.08C100.294,45.204,99.811,45.688,99.215,45.688L99.215,45.688z"/>
	</g>
</g>
</svg>
