<?xml version="1.0" encoding="utf-8"?>
<!-- Generator: Adobe Illustrator 16.0.2, SVG Export Plug-In . SVG Version: 6.00 Build 0)  -->
<!DOCTYPE svg PUBLIC "-//W3C//DTD SVG 1.1//EN" "http://www.w3.org/Graphics/SVG/1.1/DTD/svg11.dtd">
<svg version="1.1" id="Layer_1" xmlns="http://www.w3.org/2000/svg" xmlns:xlink="http://www.w3.org/1999/xlink" x="0px" y="0px"
	 width="120px" height="120px" viewBox="0 0 120 120" enable-background="new 0 0 120 120" xml:space="preserve">
<g id="black_white">
	<path fill="#3A3A3A" d="M43.27,107.87V96.828h3.84v11.042H43.27L43.27,107.87z M43.27,23.172V12.13h3.84v11.042H43.27L43.27,23.172
		z M43.27,44.435V33.393h3.84v11.042H43.27L43.27,44.435z M43.27,65.669V54.627h3.84v11.042H43.27L43.27,65.669z M104.074,50.955
		L79.482,17.709c-0.75-1.013-2.266-1.013-3.015,0L51.876,50.955c-0.916,1.238-0.032,2.991,1.508,2.991h49.183
		C104.105,53.945,104.988,52.193,104.074,50.955z M88.425,70.45v-16.5H67.525v8.53L25.507,72.904
		c-5.527,0.261-9.932,4.803-9.95,10.39h-0.002v18.78h20.9V91.721l44.861-11.13l-0.055-0.228
		C85.421,78.986,88.425,75.072,88.425,70.45L88.425,70.45L88.425,70.45L88.425,70.45L88.425,70.45z"/>
</g>
<g id="blue">
	<path fill="#4E4E4E" d="M43.172,106.229c-1.105,0-2-0.895-2-2V92.654c0-1.105,0.896-2.002,2-2.002h4.961c1.105,0,2,0.896,2,2.002
		v11.574c0,1.105-0.895,2-2,2H43.172 M43.172,88.04c-1.105,0-2-0.896-2-2V74.466c0-1.104,0.896-2.001,2-2.001h4.961
		c1.105,0,2,0.896,2,2.001V86.04c0,1.104-0.895,2-2,2H43.172 M43.172,69.852c-1.105,0-2-0.896-2-2V56.275c0-1.105,0.896-2,2-2h4.961
		c1.105,0,2,0.895,2,2v11.577c0,1.104-0.895,2-2,2H43.172 M43.172,51.662c-1.105,0-2-0.896-2-2V38.085c0-1.105,0.896-2,2-2h4.961
		c1.105,0,2,0.896,2,2v11.576c0,1.105-0.895,2-2,2L43.172,51.662 M43.172,33.472c-1.105,0-2-0.896-2-2V19.896c0-1.105,0.896-2,2-2
		h4.961c1.105,0,2,0.896,2,2v11.576c0,1.105-0.895,2-2,2H43.172"/>
	<path fill="#FFFFFF" d="M43.172,104.229V92.654h4.961v11.574H43.172L43.172,104.229z M43.172,86.04V74.466h4.961V86.04H43.172
		L43.172,86.04z M43.172,67.852V56.275h4.961v11.577H43.172L43.172,67.852z M43.172,49.661V38.085h4.961v11.576H43.172
		L43.172,49.661z M43.172,31.471V19.896h4.961v11.576L43.172,31.471L43.172,31.471z"/>
	<path fill-opacity="0.1" d="M14,108.848c-1.656,0-3-1.343-3-3l-0.001-19.461c0-0.184,0.018-0.365,0.05-0.543
		c0.37-6.203,3.67-10.681,9.104-12.314c4.968-1.494,21.662-5.875,28.609-7.688L48.73,65.85c0,0,16.663-4.539,20.258-5.52
		c0-1.617,0-2.594,0-4.511c-3.782,0-11.542,0-11.902,0c-0.219,0.029-0.44,0.043-0.658,0.043c-2.814,0-5.104-2.29-5.104-5.104
		c0-1.496,0.652-2.898,1.768-3.863c0.469-0.627,23.586-31.603,23.725-31.79c0.927-1.51,2.562-2.434,4.351-2.434
		c1.808,0,3.459,0.943,4.38,2.482c0.223,0.294,4.705,6.231,4.705,6.231s18.844,24.959,19.281,25.538
		c1.097,0.962,1.736,2.357,1.736,3.835c0,2.814-2.289,5.104-5.104,5.104c-0.223,0-0.443-0.014-0.665-0.043
		c-0.149,0-7.737,0-11.492,0c0,3.892,0,12.415,0,12.415c0,0.082-0.004,0.164-0.01,0.246c0.024,0.353,0.038,0.709,0.038,1.067
		c0,1.604-0.264,3.997-1.521,6.291c-1.479,2.692-3.998,4.625-7.287,5.589c-6.135,1.799-38.992,10.6-40.387,10.973
		c-0.128,0.033-0.258,0.06-0.387,0.076c-0.596,0.16-2.897,0.777-2.897,0.777s-3.283,0.881-5.549,1.486c0,3.158,0,11.107,0,11.107
		c0,1.657-1.342,3-3,3H14"/>
	<path fill="#70B7E0" d="M12,106.848c-1.656,0-3-1.343-3-3L8.999,84.387c0-0.184,0.018-0.365,0.05-0.543
		c0.37-6.203,3.67-10.681,9.104-12.314c4.968-1.494,21.662-5.875,28.609-7.688L46.73,63.85c0,0,16.663-4.539,20.258-5.52
		c0-1.617,0-2.594,0-4.511c-3.782,0-11.542,0-11.902,0c-0.219,0.029-0.44,0.043-0.658,0.043c-2.814,0-5.104-2.29-5.104-5.104
		c0-1.496,0.652-2.898,1.768-3.863c0.469-0.627,23.586-31.603,23.725-31.79c0.927-1.51,2.562-2.434,4.351-2.434
		c1.808,0,3.459,0.943,4.38,2.482c0.223,0.294,4.705,6.231,4.705,6.231s18.844,24.959,19.281,25.538
		c1.097,0.962,1.736,2.357,1.736,3.835c0,2.814-2.289,5.104-5.104,5.104c-0.223,0-0.443-0.014-0.665-0.043
		c-0.149,0-7.737,0-11.492,0c0,3.892,0,12.415,0,12.415c0,0.082-0.004,0.164-0.01,0.246c0.024,0.353,0.038,0.709,0.038,1.067
		c0,1.604-0.264,3.997-1.521,6.291c-1.479,2.692-3.998,4.625-7.287,5.589c-6.135,1.799-38.992,10.6-40.387,10.973
		c-0.128,0.033-0.258,0.06-0.387,0.076c-0.596,0.16-2.897,0.777-2.897,0.777s-3.283,0.881-5.549,1.486c0,3.158,0,11.107,0,11.107
		c0,1.657-1.342,3-3,3H12"/>
	<g>
		
			<linearGradient id="SVGID_1_" gradientUnits="userSpaceOnUse" x1="296.7354" y1="-343.7476" x2="296.7354" y2="-253.5703" gradientTransform="matrix(1 0 0 -1 -237.5996 -239.9004)">
			<stop  offset="0" style="stop-color:#48A2FB"/>
			<stop  offset="0.1758" style="stop-color:#059CF4"/>
			<stop  offset="0.4969" style="stop-color:#0398EF"/>
			<stop  offset="0.782" style="stop-color:#0293E7"/>
			<stop  offset="1" style="stop-color:#0189D8"/>
		</linearGradient>
		<path fill="url(#SVGID_1_)" d="M103.6,50.819H54.838l-2.062-3.165l24.517-32.85l3.624-0.157l24.954,33.052L103.6,50.819
			L103.6,50.819z M104.168,50.862c-1.161,0-2.104-0.941-2.104-2.104c0-1.161,0.941-2.103,2.104-2.103s2.104,0.941,2.104,2.103
			C106.271,49.921,105.33,50.862,104.168,50.862L104.168,50.862z M54.429,50.862c-1.163,0-2.104-0.941-2.104-2.104
			c0-1.161,0.942-2.103,2.104-2.103c1.161,0,2.103,0.941,2.103,2.103C56.532,49.921,55.59,50.862,54.429,50.862L54.429,50.862z
			 M79.168,17.877c-1.161,0-2.104-0.941-2.104-2.104c0-1.161,0.941-2.103,2.104-2.103c1.163,0,2.104,0.942,2.104,2.103
			C81.271,16.936,80.331,17.877,79.168,17.877L79.168,17.877z M12,103.848l-0.002-19.461L31.01,75.43v28.418H12L12,103.848z
			 M24.148,92.279c-0.421,0.016-12.045-5.762-12.045-5.762s-1.397-9.615,6.915-12.117c6.158-1.853,30.77-8.248,30.77-8.248
			l3.562,18.297C53.35,84.449,31.774,90.234,24.148,92.279L24.148,92.279z M69.988,66.232V49.386L89.01,37.397v28.835H69.988
			L69.988,66.232z M82.387,76.548c-6.172,1.81-40.319,10.954-40.319,10.954l-3.562-18.298c0,0,31.083-8.491,38.71-10.536
			c0.421-0.014,11.673,7.032,11.673,7.032S90.622,74.133,82.387,76.548L82.387,76.548z"/>
	</g>
	
		<linearGradient id="SVGID_2_" gradientUnits="userSpaceOnUse" x1="321.3271" y1="-279.5234" x2="321.3271" y2="-255.3862" gradientTransform="matrix(1 0 0 -1 -237.5996 -239.9004)">
		<stop  offset="0" style="stop-color:#FFFFFF;stop-opacity:0"/>
		<stop  offset="1" style="stop-color:#FFFFFF;stop-opacity:0.8"/>
	</linearGradient>
	<path fill="url(#SVGID_2_)" d="M78.479,15.486c0,0-7.72,9.604-9.793,12.124c19.153-2.101,30.082,12.013,30.082,12.013
		L79.757,15.506L78.479,15.486L78.479,15.486z"/>
</g>
<g id="green">
	<path fill="#4E4E4E" d="M43.172,106.229c-1.105,0-2-0.895-2-2V92.654c0-1.105,0.896-2.002,2-2.002h4.961c1.105,0,2,0.896,2,2.002
		v11.574c0,1.105-0.895,2-2,2H43.172 M43.172,88.04c-1.105,0-2-0.896-2-2V74.466c0-1.104,0.896-2.001,2-2.001h4.961
		c1.105,0,2,0.896,2,2.001V86.04c0,1.104-0.895,2-2,2H43.172 M43.172,69.852c-1.105,0-2-0.896-2-2V56.275c0-1.105,0.896-2,2-2h4.961
		c1.105,0,2,0.895,2,2v11.577c0,1.104-0.895,2-2,2H43.172 M43.172,51.662c-1.105,0-2-0.896-2-2V38.085c0-1.105,0.896-2,2-2h4.961
		c1.105,0,2,0.896,2,2v11.576c0,1.105-0.895,2-2,2L43.172,51.662 M43.172,33.472c-1.105,0-2-0.896-2-2V19.896c0-1.105,0.896-2,2-2
		h4.961c1.105,0,2,0.896,2,2v11.576c0,1.105-0.895,2-2,2H43.172"/>
	<path fill="#FFFFFF" d="M43.172,104.229V92.654h4.961v11.574H43.172L43.172,104.229z M43.172,86.04V74.466h4.961V86.04H43.172
		L43.172,86.04z M43.172,67.852V56.275h4.961v11.577H43.172L43.172,67.852z M43.172,49.661V38.085h4.961v11.576H43.172
		L43.172,49.661z M43.172,31.471V19.896h4.961v11.576L43.172,31.471L43.172,31.471z"/>
	<path fill-opacity="0.1" d="M14,108.848c-1.656,0-3-1.343-3-3l-0.001-19.461c0-0.184,0.018-0.365,0.05-0.543
		c0.37-6.203,3.67-10.681,9.104-12.314c4.968-1.494,21.662-5.875,28.609-7.688L48.73,65.85c0,0,16.663-4.539,20.258-5.52
		c0-1.617,0-2.594,0-4.511c-3.782,0-11.542,0-11.902,0c-0.219,0.029-0.44,0.043-0.658,0.043c-2.814,0-5.104-2.29-5.104-5.104
		c0-1.496,0.652-2.898,1.768-3.863c0.469-0.627,23.586-31.603,23.725-31.79c0.927-1.51,2.562-2.434,4.351-2.434
		c1.808,0,3.459,0.943,4.38,2.482c0.223,0.294,4.705,6.231,4.705,6.231s18.844,24.959,19.281,25.538
		c1.097,0.962,1.736,2.357,1.736,3.835c0,2.814-2.289,5.104-5.104,5.104c-0.223,0-0.443-0.014-0.665-0.043
		c-0.149,0-7.737,0-11.492,0c0,3.892,0,12.415,0,12.415c0,0.082-0.004,0.164-0.01,0.246c0.024,0.353,0.038,0.709,0.038,1.067
		c0,1.604-0.264,3.997-1.521,6.291c-1.479,2.692-3.998,4.625-7.287,5.589c-6.135,1.799-38.992,10.6-40.387,10.973
		c-0.128,0.033-0.258,0.06-0.387,0.076c-0.596,0.16-2.897,0.777-2.897,0.777s-3.283,0.881-5.549,1.486c0,3.158,0,11.107,0,11.107
		c0,1.657-1.342,3-3,3H14"/>
	<path fill="#03FC30" d="M12,106.848c-1.656,0-3-1.343-3-3L8.999,84.387c0-0.184,0.018-0.365,0.05-0.543
		c0.37-6.203,3.67-10.681,9.104-12.314c4.968-1.494,21.662-5.875,28.609-7.688L46.73,63.85c0,0,16.663-4.539,20.258-5.52
		c0-1.617,0-2.594,0-4.511c-3.782,0-11.542,0-11.902,0c-0.219,0.029-0.44,0.043-0.658,0.043c-2.814,0-5.104-2.29-5.104-5.104
		c0-1.496,0.652-2.898,1.768-3.863c0.469-0.627,23.586-31.603,23.725-31.79c0.927-1.51,2.562-2.434,4.351-2.434
		c1.808,0,3.459,0.943,4.38,2.482c0.223,0.294,4.705,6.231,4.705,6.231s18.844,24.959,19.281,25.538
		c1.097,0.962,1.736,2.357,1.736,3.835c0,2.814-2.289,5.104-5.104,5.104c-0.223,0-0.443-0.014-0.665-0.043
		c-0.149,0-7.737,0-11.492,0c0,3.892,0,12.415,0,12.415c0,0.082-0.004,0.164-0.01,0.246c0.024,0.353,0.038,0.709,0.038,1.067
		c0,1.604-0.264,3.997-1.521,6.291c-1.479,2.692-3.998,4.625-7.287,5.589c-6.135,1.799-38.992,10.6-40.387,10.973
		c-0.128,0.033-0.258,0.06-0.387,0.076c-0.596,0.16-2.897,0.777-2.897,0.777s-3.283,0.881-5.549,1.486c0,3.158,0,11.107,0,11.107
		c0,1.657-1.342,3-3,3H12"/>
	<g>
		
			<linearGradient id="SVGID_3_" gradientUnits="userSpaceOnUse" x1="296.7354" y1="-343.7476" x2="296.7354" y2="-253.5703" gradientTransform="matrix(1 0 0 -1 -237.5996 -239.9004)">
			<stop  offset="0" style="stop-color:#00DF34"/>
			<stop  offset="0.1758" style="stop-color:#00CD26"/>
			<stop  offset="0.4969" style="stop-color:#00B211"/>
			<stop  offset="0.782" style="stop-color:#00A204"/>
			<stop  offset="1" style="stop-color:#009C00"/>
		</linearGradient>
		<path fill="url(#SVGID_3_)" d="M103.6,50.819H54.838l-2.062-3.165l24.517-32.85l3.624-0.157l24.954,33.052L103.6,50.819
			L103.6,50.819z M104.168,50.862c-1.161,0-2.104-0.941-2.104-2.104c0-1.161,0.941-2.103,2.104-2.103s2.104,0.941,2.104,2.103
			C106.271,49.921,105.33,50.862,104.168,50.862L104.168,50.862z M54.429,50.862c-1.163,0-2.104-0.941-2.104-2.104
			c0-1.161,0.942-2.103,2.104-2.103c1.161,0,2.103,0.941,2.103,2.103C56.532,49.921,55.59,50.862,54.429,50.862L54.429,50.862z
			 M79.168,17.877c-1.161,0-2.104-0.941-2.104-2.104c0-1.161,0.941-2.103,2.104-2.103c1.163,0,2.104,0.942,2.104,2.103
			C81.271,16.936,80.331,17.877,79.168,17.877L79.168,17.877z M12,103.848l-0.002-19.461L31.01,75.43v28.418H12L12,103.848z
			 M24.148,92.279c-0.421,0.016-12.045-5.762-12.045-5.762s-1.397-9.615,6.915-12.117c6.158-1.853,30.77-8.248,30.77-8.248
			l3.562,18.297C53.35,84.449,31.774,90.234,24.148,92.279L24.148,92.279z M69.988,66.232V49.386L89.01,37.397v28.835H69.988
			L69.988,66.232z M82.387,76.548c-6.172,1.81-40.319,10.954-40.319,10.954l-3.562-18.298c0,0,31.083-8.491,38.71-10.536
			c0.421-0.014,11.673,7.032,11.673,7.032S90.622,74.133,82.387,76.548L82.387,76.548z"/>
	</g>
	
		<linearGradient id="SVGID_4_" gradientUnits="userSpaceOnUse" x1="321.3271" y1="-279.5234" x2="321.3271" y2="-255.3862" gradientTransform="matrix(1 0 0 -1 -237.5996 -239.9004)">
		<stop  offset="0" style="stop-color:#FFFFFF;stop-opacity:0"/>
		<stop  offset="1" style="stop-color:#FFFFFF;stop-opacity:0.8"/>
	</linearGradient>
	<path fill="url(#SVGID_4_)" d="M78.479,15.486c0,0-7.72,9.604-9.793,12.124c19.153-2.101,30.082,12.013,30.082,12.013
		L79.757,15.506L78.479,15.486L78.479,15.486z"/>
</g>
<g id="kia">
	<path fill="#4E4E4E" d="M43.172,106.229c-1.105,0-2-0.895-2-2V92.654c0-1.105,0.896-2.002,2-2.002h4.961c1.105,0,2,0.896,2,2.002
		v11.574c0,1.105-0.895,2-2,2H43.172 M43.172,88.04c-1.105,0-2-0.896-2-2V74.466c0-1.104,0.896-2.001,2-2.001h4.961
		c1.105,0,2,0.896,2,2.001V86.04c0,1.104-0.895,2-2,2H43.172 M43.172,69.852c-1.105,0-2-0.896-2-2V56.275c0-1.105,0.896-2,2-2h4.961
		c1.105,0,2,0.895,2,2v11.577c0,1.104-0.895,2-2,2H43.172 M43.172,51.662c-1.105,0-2-0.896-2-2V38.085c0-1.105,0.896-2,2-2h4.961
		c1.105,0,2,0.896,2,2v11.576c0,1.105-0.895,2-2,2L43.172,51.662 M43.172,33.472c-1.105,0-2-0.896-2-2V19.896c0-1.105,0.896-2,2-2
		h4.961c1.105,0,2,0.896,2,2v11.576c0,1.105-0.895,2-2,2H43.172"/>
	<path fill="#FFFFFF" d="M43.172,104.229V92.654h4.961v11.574H43.172L43.172,104.229z M43.172,86.04V74.466h4.961V86.04H43.172
		L43.172,86.04z M43.172,67.852V56.275h4.961v11.577H43.172L43.172,67.852z M43.172,49.661V38.085h4.961v11.576H43.172
		L43.172,49.661z M43.172,31.471V19.896h4.961v11.576L43.172,31.471L43.172,31.471z"/>
	<path fill-opacity="0.1" d="M14,108.848c-1.656,0-3-1.343-3-3l-0.001-19.461c0-0.184,0.018-0.365,0.05-0.543
		c0.37-6.203,3.67-10.681,9.104-12.314c4.968-1.494,21.662-5.875,28.609-7.688L48.73,65.85c0,0,16.663-4.539,20.258-5.52
		c0-1.617,0-2.594,0-4.511c-3.782,0-11.542,0-11.902,0c-0.219,0.029-0.44,0.043-0.658,0.043c-2.814,0-5.104-2.29-5.104-5.104
		c0-1.496,0.652-2.898,1.768-3.863c0.469-0.627,23.586-31.603,23.725-31.79c0.927-1.51,2.562-2.434,4.351-2.434
		c1.808,0,3.459,0.943,4.38,2.482c0.223,0.294,4.705,6.231,4.705,6.231s18.844,24.959,19.281,25.538
		c1.097,0.962,1.736,2.357,1.736,3.835c0,2.814-2.289,5.104-5.104,5.104c-0.223,0-0.443-0.014-0.665-0.043
		c-0.149,0-7.737,0-11.492,0c0,3.892,0,12.415,0,12.415c0,0.082-0.004,0.164-0.01,0.246c0.024,0.353,0.038,0.709,0.038,1.067
		c0,1.604-0.264,3.997-1.521,6.291c-1.479,2.692-3.998,4.625-7.287,5.589c-6.135,1.799-38.992,10.6-40.387,10.973
		c-0.128,0.033-0.258,0.06-0.387,0.076c-0.596,0.16-2.897,0.777-2.897,0.777s-3.283,0.881-5.549,1.486c0,3.158,0,11.107,0,11.107
		c0,1.657-1.342,3-3,3H14"/>
	<path fill="#179e1e" d="M12,106.848c-1.656,0-3-1.343-3-3L8.999,84.387c0-0.184,0.018-0.365,0.05-0.543
		c0.37-6.203,3.67-10.681,9.104-12.314c4.968-1.494,21.662-5.875,28.609-7.688L46.73,63.85c0,0,16.663-4.539,20.258-5.52
		c0-1.617,0-2.594,0-4.511c-3.782,0-11.542,0-11.902,0c-0.219,0.029-0.44,0.043-0.658,0.043c-2.814,0-5.104-2.29-5.104-5.104
		c0-1.496,0.652-2.898,1.768-3.863c0.469-0.627,23.586-31.603,23.725-31.79c0.927-1.51,2.562-2.434,4.351-2.434
		c1.808,0,3.459,0.943,4.38,2.482c0.223,0.294,4.705,6.231,4.705,6.231s18.844,24.959,19.281,25.538
		c1.097,0.962,1.736,2.357,1.736,3.835c0,2.814-2.289,5.104-5.104,5.104c-0.223,0-0.443-0.014-0.665-0.043
		c-0.149,0-7.737,0-11.492,0c0,3.892,0,12.415,0,12.415c0,0.082-0.004,0.164-0.01,0.246c0.024,0.353,0.038,0.709,0.038,1.067
		c0,1.604-0.264,3.997-1.521,6.291c-1.479,2.692-3.998,4.625-7.287,5.589c-6.135,1.799-38.992,10.6-40.387,10.973
		c-0.128,0.033-0.258,0.06-0.387,0.076c-0.596,0.16-2.897,0.777-2.897,0.777s-3.283,0.881-5.549,1.486c0,3.158,0,11.107,0,11.107
		c0,1.657-1.342,3-3,3H12"/>
	<g>
		
			<linearGradient id="SVGID_5_" gradientUnits="userSpaceOnUse" x1="296.7354" y1="-343.7476" x2="296.7354" y2="-253.5703" gradientTransform="matrix(1 0 0 -1 -237.5996 -239.9004)">
			<stop  offset="0" style="stop-color:#FFFFFF"/>
			<stop  offset="0.1758" style="stop-color:#E7E9EA"/>
			<stop  offset="0.4969" style="stop-color:#CDD2D5"/>
			<stop  offset="0.782" style="stop-color:#C5CACC"/>
			<stop  offset="1" style="stop-color:#BABDC0"/>
		</linearGradient>
		<path fill="url(#SVGID_5_)" d="M103.6,50.819H54.838l-2.062-3.165l24.517-32.85l3.624-0.157l24.954,33.052L103.6,50.819
			L103.6,50.819z M104.168,50.862c-1.161,0-2.104-0.941-2.104-2.104c0-1.161,0.941-2.103,2.104-2.103s2.104,0.941,2.104,2.103
			C106.271,49.921,105.33,50.862,104.168,50.862L104.168,50.862z M54.429,50.862c-1.163,0-2.104-0.941-2.104-2.104
			c0-1.161,0.942-2.103,2.104-2.103c1.161,0,2.103,0.941,2.103,2.103C56.532,49.921,55.59,50.862,54.429,50.862L54.429,50.862z
			 M79.168,17.877c-1.161,0-2.104-0.941-2.104-2.104c0-1.161,0.941-2.103,2.104-2.103c1.163,0,2.104,0.942,2.104,2.103
			C81.271,16.936,80.331,17.877,79.168,17.877L79.168,17.877z M12,103.848l-0.002-19.461L31.01,75.43v28.418H12L12,103.848z
			 M24.148,92.279c-0.421,0.016-12.045-5.762-12.045-5.762s-1.397-9.615,6.915-12.117c6.158-1.853,30.77-8.248,30.77-8.248
			l3.562,18.297C53.35,84.449,31.774,90.234,24.148,92.279L24.148,92.279z M69.988,66.232V49.386L89.01,37.397v28.835H69.988
			L69.988,66.232z M82.387,76.548c-6.172,1.81-40.319,10.954-40.319,10.954l-3.562-18.298c0,0,31.083-8.491,38.71-10.536
			c0.421-0.014,11.673,7.032,11.673,7.032S90.622,74.133,82.387,76.548L82.387,76.548z"/>
	</g>
	
		<linearGradient id="SVGID_6_" gradientUnits="userSpaceOnUse" x1="321.3271" y1="-279.5234" x2="321.3271" y2="-255.3862" gradientTransform="matrix(1 0 0 -1 -237.5996 -239.9004)">
		<stop  offset="0" style="stop-color:#FFFFFF;stop-opacity:0"/>
		<stop  offset="1" style="stop-color:#FFFFFF;stop-opacity:0.8"/>
	</linearGradient>
	<path fill="url(#SVGID_6_)" d="M78.479,15.486c0,0-7.72,9.604-9.793,12.124c19.153-2.101,30.082,12.013,30.082,12.013
		L79.757,15.506L78.479,15.486L78.479,15.486z"/>
</g>
<g id="orange">
	<path fill="#4E4E4E" d="M43.172,106.229c-1.105,0-2-0.895-2-2V92.654c0-1.105,0.896-2.002,2-2.002h4.961c1.105,0,2,0.896,2,2.002
		v11.574c0,1.105-0.895,2-2,2H43.172 M43.172,88.04c-1.105,0-2-0.896-2-2V74.466c0-1.104,0.896-2.001,2-2.001h4.961
		c1.105,0,2,0.896,2,2.001V86.04c0,1.104-0.895,2-2,2H43.172 M43.172,69.852c-1.105,0-2-0.896-2-2V56.275c0-1.105,0.896-2,2-2h4.961
		c1.105,0,2,0.895,2,2v11.577c0,1.104-0.895,2-2,2H43.172 M43.172,51.662c-1.105,0-2-0.896-2-2V38.085c0-1.105,0.896-2,2-2h4.961
		c1.105,0,2,0.896,2,2v11.576c0,1.105-0.895,2-2,2L43.172,51.662 M43.172,33.472c-1.105,0-2-0.896-2-2V19.896c0-1.105,0.896-2,2-2
		h4.961c1.105,0,2,0.896,2,2v11.576c0,1.105-0.895,2-2,2H43.172"/>
	<path fill="#FFFFFF" d="M43.172,104.229V92.654h4.961v11.574H43.172L43.172,104.229z M43.172,86.04V74.466h4.961V86.04H43.172
		L43.172,86.04z M43.172,67.852V56.275h4.961v11.577H43.172L43.172,67.852z M43.172,49.661V38.085h4.961v11.576H43.172
		L43.172,49.661z M43.172,31.471V19.896h4.961v11.576L43.172,31.471L43.172,31.471z"/>
	<path fill-opacity="0.1" d="M14,108.848c-1.656,0-3-1.343-3-3l-0.001-19.461c0-0.184,0.018-0.365,0.05-0.543
		c0.37-6.203,3.67-10.681,9.104-12.314c4.968-1.494,21.662-5.875,28.609-7.688L48.73,65.85c0,0,16.663-4.539,20.258-5.52
		c0-1.617,0-2.594,0-4.511c-3.782,0-11.542,0-11.902,0c-0.219,0.029-0.44,0.043-0.658,0.043c-2.814,0-5.104-2.29-5.104-5.104
		c0-1.496,0.652-2.898,1.768-3.863c0.469-0.627,23.586-31.603,23.725-31.79c0.927-1.51,2.562-2.434,4.351-2.434
		c1.808,0,3.459,0.943,4.38,2.482c0.223,0.294,4.705,6.231,4.705,6.231s18.844,24.959,19.281,25.538
		c1.097,0.962,1.736,2.357,1.736,3.835c0,2.814-2.289,5.104-5.104,5.104c-0.223,0-0.443-0.014-0.665-0.043
		c-0.149,0-7.737,0-11.492,0c0,3.892,0,12.415,0,12.415c0,0.082-0.004,0.164-0.01,0.246c0.024,0.353,0.038,0.709,0.038,1.067
		c0,1.604-0.264,3.997-1.521,6.291c-1.479,2.692-3.998,4.625-7.287,5.589c-6.135,1.799-38.992,10.6-40.387,10.973
		c-0.128,0.033-0.258,0.06-0.387,0.076c-0.596,0.16-2.897,0.777-2.897,0.777s-3.283,0.881-5.549,1.486c0,3.158,0,11.107,0,11.107
		c0,1.657-1.342,3-3,3H14"/>
	<path fill="#FFE035" d="M12,106.848c-1.656,0-3-1.343-3-3L8.999,84.387c0-0.184,0.018-0.365,0.05-0.543
		c0.37-6.203,3.67-10.681,9.104-12.314c4.968-1.494,21.662-5.875,28.609-7.688L46.73,63.85c0,0,16.663-4.539,20.258-5.52
		c0-1.617,0-2.594,0-4.511c-3.782,0-11.542,0-11.902,0c-0.219,0.029-0.44,0.043-0.658,0.043c-2.814,0-5.104-2.29-5.104-5.104
		c0-1.496,0.652-2.898,1.768-3.863c0.469-0.627,23.586-31.603,23.725-31.79c0.927-1.51,2.562-2.434,4.351-2.434
		c1.808,0,3.459,0.943,4.38,2.482c0.223,0.294,4.705,6.231,4.705,6.231s18.844,24.959,19.281,25.538
		c1.097,0.962,1.736,2.357,1.736,3.835c0,2.814-2.289,5.104-5.104,5.104c-0.223,0-0.443-0.014-0.665-0.043
		c-0.149,0-7.737,0-11.492,0c0,3.892,0,12.415,0,12.415c0,0.082-0.004,0.164-0.01,0.246c0.024,0.353,0.038,0.709,0.038,1.067
		c0,1.604-0.264,3.997-1.521,6.291c-1.479,2.692-3.998,4.625-7.287,5.589c-6.135,1.799-38.992,10.6-40.387,10.973
		c-0.128,0.033-0.258,0.06-0.387,0.076c-0.596,0.16-2.897,0.777-2.897,0.777s-3.283,0.881-5.549,1.486c0,3.158,0,11.107,0,11.107
		c0,1.657-1.342,3-3,3H12"/>
	<g>
		
			<linearGradient id="SVGID_7_" gradientUnits="userSpaceOnUse" x1="296.7354" y1="-343.7476" x2="296.7354" y2="-253.5703" gradientTransform="matrix(1 0 0 -1 -237.5996 -239.9004)">
			<stop  offset="0" style="stop-color:#FEDF34"/>
			<stop  offset="0.1758" style="stop-color:#FECD26"/>
			<stop  offset="0.4969" style="stop-color:#FFB211"/>
			<stop  offset="0.782" style="stop-color:#FFA204"/>
			<stop  offset="1" style="stop-color:#FF9C00"/>
		</linearGradient>
		<path fill="url(#SVGID_7_)" d="M103.6,50.819H54.838l-2.062-3.165l24.517-32.85l3.624-0.157l24.954,33.052L103.6,50.819
			L103.6,50.819z M104.168,50.862c-1.161,0-2.104-0.941-2.104-2.104c0-1.161,0.941-2.103,2.104-2.103s2.104,0.941,2.104,2.103
			C106.271,49.921,105.33,50.862,104.168,50.862L104.168,50.862z M54.429,50.862c-1.163,0-2.104-0.941-2.104-2.104
			c0-1.161,0.942-2.103,2.104-2.103c1.161,0,2.103,0.941,2.103,2.103C56.532,49.921,55.59,50.862,54.429,50.862L54.429,50.862z
			 M79.168,17.877c-1.161,0-2.104-0.941-2.104-2.104c0-1.161,0.941-2.103,2.104-2.103c1.163,0,2.104,0.942,2.104,2.103
			C81.271,16.936,80.331,17.877,79.168,17.877L79.168,17.877z M12,103.848l-0.002-19.461L31.01,75.43v28.418H12L12,103.848z
			 M24.148,92.279c-0.421,0.016-12.045-5.762-12.045-5.762s-1.397-9.615,6.915-12.117c6.158-1.853,30.77-8.248,30.77-8.248
			l3.562,18.297C53.35,84.449,31.774,90.234,24.148,92.279L24.148,92.279z M69.988,66.232V49.386L89.01,37.397v28.835H69.988
			L69.988,66.232z M82.387,76.548c-6.172,1.81-40.319,10.954-40.319,10.954l-3.562-18.298c0,0,31.083-8.491,38.71-10.536
			c0.421-0.014,11.673,7.032,11.673,7.032S90.622,74.133,82.387,76.548L82.387,76.548z"/>
	</g>
	
		<linearGradient id="SVGID_8_" gradientUnits="userSpaceOnUse" x1="321.3271" y1="-279.5234" x2="321.3271" y2="-255.3862" gradientTransform="matrix(1 0 0 -1 -237.5996 -239.9004)">
		<stop  offset="0" style="stop-color:#FFFFFF;stop-opacity:0"/>
		<stop  offset="1" style="stop-color:#FFFFFF;stop-opacity:0.8"/>
	</linearGradient>
	<path fill="url(#SVGID_8_)" d="M78.479,15.486c0,0-7.72,9.604-9.793,12.124c19.153-2.101,30.082,12.013,30.082,12.013
		L79.757,15.506L78.479,15.486L78.479,15.486z"/>
</g>
<g id="red">
	<path fill="#4E4E4E" d="M43.172,106.229c-1.105,0-2-0.895-2-2V92.654c0-1.105,0.896-2.002,2-2.002h4.961c1.105,0,2,0.896,2,2.002
		v11.574c0,1.105-0.895,2-2,2H43.172 M43.172,88.04c-1.105,0-2-0.896-2-2V74.466c0-1.104,0.896-2.001,2-2.001h4.961
		c1.105,0,2,0.896,2,2.001V86.04c0,1.104-0.895,2-2,2H43.172 M43.172,69.852c-1.105,0-2-0.896-2-2V56.275c0-1.105,0.896-2,2-2h4.961
		c1.105,0,2,0.895,2,2v11.577c0,1.104-0.895,2-2,2H43.172 M43.172,51.662c-1.105,0-2-0.896-2-2V38.085c0-1.105,0.896-2,2-2h4.961
		c1.105,0,2,0.896,2,2v11.576c0,1.105-0.895,2-2,2L43.172,51.662 M43.172,33.472c-1.105,0-2-0.896-2-2V19.896c0-1.105,0.896-2,2-2
		h4.961c1.105,0,2,0.896,2,2v11.576c0,1.105-0.895,2-2,2H43.172"/>
	<path fill="#FFFFFF" d="M43.172,104.229V92.654h4.961v11.574H43.172L43.172,104.229z M43.172,86.04V74.466h4.961V86.04H43.172
		L43.172,86.04z M43.172,67.852V56.275h4.961v11.577H43.172L43.172,67.852z M43.172,49.661V38.085h4.961v11.576H43.172
		L43.172,49.661z M43.172,31.471V19.896h4.961v11.576L43.172,31.471L43.172,31.471z"/>
	<path fill-opacity="0.1" d="M14,108.848c-1.656,0-3-1.343-3-3l-0.001-19.461c0-0.184,0.018-0.365,0.05-0.543
		c0.37-6.203,3.67-10.681,9.104-12.314c4.968-1.494,21.662-5.875,28.609-7.688L48.73,65.85c0,0,16.663-4.539,20.258-5.52
		c0-1.617,0-2.594,0-4.511c-3.782,0-11.542,0-11.902,0c-0.219,0.029-0.44,0.043-0.658,0.043c-2.814,0-5.104-2.29-5.104-5.104
		c0-1.496,0.652-2.898,1.768-3.863c0.469-0.627,23.586-31.603,23.725-31.79c0.927-1.51,2.562-2.434,4.351-2.434
		c1.808,0,3.459,0.943,4.38,2.482c0.223,0.294,4.705,6.231,4.705,6.231s18.844,24.959,19.281,25.538
		c1.097,0.962,1.736,2.357,1.736,3.835c0,2.814-2.289,5.104-5.104,5.104c-0.223,0-0.443-0.014-0.665-0.043
		c-0.149,0-7.737,0-11.492,0c0,3.892,0,12.415,0,12.415c0,0.082-0.004,0.164-0.01,0.246c0.024,0.353,0.038,0.709,0.038,1.067
		c0,1.604-0.264,3.997-1.521,6.291c-1.479,2.692-3.998,4.625-7.287,5.589c-6.135,1.799-38.992,10.6-40.387,10.973
		c-0.128,0.033-0.258,0.06-0.387,0.076c-0.596,0.16-2.897,0.777-2.897,0.777s-3.283,0.881-5.549,1.486c0,3.158,0,11.107,0,11.107
		c0,1.657-1.342,3-3,3H14"/>
	<path fill="#FC7E7E" d="M12,106.848c-1.656,0-3-1.343-3-3L8.999,84.387c0-0.184,0.018-0.365,0.05-0.543
		c0.37-6.203,3.67-10.681,9.104-12.314c4.968-1.494,21.662-5.875,28.609-7.688L46.73,63.85c0,0,16.663-4.539,20.258-5.52
		c0-1.617,0-2.594,0-4.511c-3.782,0-11.542,0-11.902,0c-0.219,0.029-0.44,0.043-0.658,0.043c-2.814,0-5.104-2.29-5.104-5.104
		c0-1.496,0.652-2.898,1.768-3.863c0.469-0.627,23.586-31.603,23.725-31.79c0.927-1.51,2.562-2.434,4.351-2.434
		c1.808,0,3.459,0.943,4.38,2.482c0.223,0.294,4.705,6.231,4.705,6.231s18.844,24.959,19.281,25.538
		c1.097,0.962,1.736,2.357,1.736,3.835c0,2.814-2.289,5.104-5.104,5.104c-0.223,0-0.443-0.014-0.665-0.043
		c-0.149,0-7.737,0-11.492,0c0,3.892,0,12.415,0,12.415c0,0.082-0.004,0.164-0.01,0.246c0.024,0.353,0.038,0.709,0.038,1.067
		c0,1.604-0.264,3.997-1.521,6.291c-1.479,2.692-3.998,4.625-7.287,5.589c-6.135,1.799-38.992,10.6-40.387,10.973
		c-0.128,0.033-0.258,0.06-0.387,0.076c-0.596,0.16-2.897,0.777-2.897,0.777s-3.283,0.881-5.549,1.486c0,3.158,0,11.107,0,11.107
		c0,1.657-1.342,3-3,3H12"/>
	<g>
		
			<linearGradient id="SVGID_9_" gradientUnits="userSpaceOnUse" x1="296.7354" y1="-343.7476" x2="296.7354" y2="-253.5703" gradientTransform="matrix(1 0 0 -1 -237.5996 -239.9004)">
			<stop  offset="0" style="stop-color:#FF0000"/>
			<stop  offset="0.1758" style="stop-color:#F60303"/>
			<stop  offset="0.4969" style="stop-color:#EC0404"/>
			<stop  offset="0.782" style="stop-color:#E30101"/>
			<stop  offset="1" style="stop-color:#D60202"/>
		</linearGradient>
		<path fill="url(#SVGID_9_)" d="M103.6,50.819H54.838l-2.062-3.165l24.517-32.85l3.624-0.157l24.954,33.052L103.6,50.819
			L103.6,50.819z M104.168,50.862c-1.161,0-2.104-0.941-2.104-2.104c0-1.161,0.941-2.103,2.104-2.103s2.104,0.941,2.104,2.103
			C106.271,49.921,105.33,50.862,104.168,50.862L104.168,50.862z M54.429,50.862c-1.163,0-2.104-0.941-2.104-2.104
			c0-1.161,0.942-2.103,2.104-2.103c1.161,0,2.103,0.941,2.103,2.103C56.532,49.921,55.59,50.862,54.429,50.862L54.429,50.862z
			 M79.168,17.877c-1.161,0-2.104-0.941-2.104-2.104c0-1.161,0.941-2.103,2.104-2.103c1.163,0,2.104,0.942,2.104,2.103
			C81.271,16.936,80.331,17.877,79.168,17.877L79.168,17.877z M12,103.848l-0.002-19.461L31.01,75.43v28.418H12L12,103.848z
			 M24.148,92.279c-0.421,0.016-12.045-5.762-12.045-5.762s-1.397-9.615,6.915-12.117c6.158-1.853,30.77-8.248,30.77-8.248
			l3.562,18.297C53.35,84.449,31.774,90.234,24.148,92.279L24.148,92.279z M69.988,66.232V49.386L89.01,37.397v28.835H69.988
			L69.988,66.232z M82.387,76.548c-6.172,1.81-40.319,10.954-40.319,10.954l-3.562-18.298c0,0,31.083-8.491,38.71-10.536
			c0.421-0.014,11.673,7.032,11.673,7.032S90.622,74.133,82.387,76.548L82.387,76.548z"/>
	</g>
	
		<linearGradient id="SVGID_10_" gradientUnits="userSpaceOnUse" x1="321.3271" y1="-279.5234" x2="321.3271" y2="-255.3862" gradientTransform="matrix(1 0 0 -1 -237.5996 -239.9004)">
		<stop  offset="0" style="stop-color:#FFFFFF;stop-opacity:0"/>
		<stop  offset="1" style="stop-color:#FFFFFF;stop-opacity:0.8"/>
	</linearGradient>
	<path fill="url(#SVGID_10_)" d="M78.479,15.486c0,0-7.72,9.604-9.793,12.124c19.153-2.101,30.082,12.013,30.082,12.013
		L79.757,15.506L78.479,15.486L78.479,15.486z"/>
</g>
</svg>
