<?xml version="1.0" encoding="UTF-8" ?>
<!DOCTYPE svg PUBLIC "-//W3C//DTD SVG 1.1//EN" "http://www.w3.org/Graphics/SVG/1.1/DTD/svg11.dtd">
<svg width="300pt" height="300pt" viewBox="0 0 300 300" version="1.1" xmlns="http://www.w3.org/2000/svg">
<g id="#fc858bff">
<path fill="#fc858b" opacity="1.00" d=" M 17.63 0.00 L 282.36 0.00 L 283.81 0.33 C 281.87 0.62 279.92 0.95 277.96 1.00 C 194.98 1.00 112.00 1.00 29.02 1.00 C 24.73 1.05 20.40 1.18 16.17 0.34 L 17.63 0.00 Z" />
</g>
<g id="#fb1c2aff">
<path fill="#fb1c2a" opacity="1.00" d=" M 0.54 13.09 C 3.45 6.81 8.91 0.97 16.17 0.34 C 20.40 1.18 24.73 1.05 29.02 1.00 C 112.00 1.00 194.98 1.00 277.96 1.00 C 279.92 0.95 281.87 0.62 283.81 0.33 C 284.71 0.46 285.61 0.63 286.51 0.83 C 289.51 2.28 292.44 4.01 294.64 6.56 C 296.08 8.46 297.63 10.28 298.96 12.26 C 299.06 12.84 299.27 13.99 299.37 14.57 L 298.97 15.44 C 299.23 15.80 299.74 16.51 300.00 16.86 L 300.00 283.33 C 299.81 283.86 299.42 284.91 299.23 285.44 C 299.18 285.99 299.07 287.08 299.02 287.63 C 297.76 289.83 296.41 291.98 295.00 294.08 C 294.82 294.28 294.46 294.66 294.28 294.86 C 292.07 294.40 290.12 295.85 289.52 297.94 C 287.88 298.64 286.21 299.27 284.47 299.66 C 280.03 298.80 275.49 298.95 270.99 299.00 C 190.00 298.99 109.02 299.01 28.03 299.00 C 23.88 298.90 19.70 298.90 15.60 299.67 C 8.29 298.51 1.63 292.57 0.62 285.12 C 0.67 284.37 0.77 282.86 0.82 282.11 C 1.16 263.10 0.93 244.08 0.97 225.06 C 1.01 160.37 0.97 95.69 0.99 31.00 C 1.03 26.54 1.13 22.06 0.52 17.62 C 1.44 16.33 2.07 14.22 0.54 13.09 M 51.16 18.11 C 43.99 20.33 37.19 25.45 35.09 32.94 C 33.10 40.65 34.22 49.97 40.46 55.49 C 47.27 61.56 56.69 62.62 64.86 65.93 C 68.15 67.28 71.68 70.05 71.36 74.01 C 71.30 77.88 67.55 80.19 64.08 80.64 C 54.80 82.37 45.23 79.85 36.74 76.10 C 36.40 81.90 35.40 87.63 35.09 93.43 C 45.75 96.63 57.12 97.44 68.16 96.13 C 77.25 94.98 87.10 90.79 90.95 81.87 C 94.32 73.44 94.11 62.46 87.35 55.72 C 80.47 49.09 70.55 48.15 61.99 44.92 C 59.05 43.93 55.66 41.75 56.12 38.19 C 55.87 34.52 59.54 32.55 62.62 31.87 C 70.98 30.50 79.64 31.60 87.46 34.85 C 87.70 29.40 88.45 23.99 88.78 18.55 C 76.61 14.97 63.37 14.47 51.16 18.11 M 144.10 15.95 C 137.49 16.63 130.88 18.49 125.42 22.40 C 117.57 27.69 113.00 36.78 111.54 45.95 C 109.51 57.77 110.62 70.67 117.01 81.05 C 122.26 89.58 131.76 94.79 141.54 96.14 C 150.75 97.32 160.51 96.97 169.10 93.11 C 177.33 89.55 183.74 82.32 186.68 73.89 C 190.32 63.13 190.45 51.27 187.35 40.36 C 185.14 32.96 180.60 26.09 174.02 21.89 C 165.26 16.20 154.30 14.93 144.10 15.95 M 223.01 18.43 C 215.98 20.83 209.35 26.20 207.73 33.75 C 206.39 40.89 206.92 49.32 212.46 54.65 C 219.60 62.00 230.50 62.47 239.31 66.73 C 242.55 68.25 245.23 72.16 243.74 75.75 C 242.41 79.86 237.62 80.67 233.90 81.12 C 225.54 81.61 217.14 79.61 209.60 76.03 C 209.08 81.88 208.13 87.70 208.06 93.58 C 213.25 95.00 218.56 95.97 223.92 96.44 C 233.81 97.07 244.29 96.98 253.34 92.44 C 260.03 89.24 264.87 82.53 265.58 75.12 C 266.35 68.59 265.57 61.22 260.68 56.36 C 254.31 49.47 244.52 48.33 236.10 45.41 C 233.01 44.33 229.21 42.74 228.73 39.05 C 228.31 35.39 231.63 32.69 234.90 32.02 C 243.43 30.32 252.26 31.70 260.33 34.74 C 260.49 29.32 261.26 23.94 261.62 18.53 C 249.12 14.96 235.46 14.37 223.01 18.43 M 109.20 132.90 C 108.40 142.71 114.39 152.42 123.25 156.52 C 121.47 157.34 122.18 159.51 121.96 161.02 C 121.90 177.17 122.32 193.34 121.72 209.48 C 116.08 202.35 110.95 194.82 105.33 187.68 C 99.65 181.31 89.83 180.07 82.39 183.97 C 94.06 215.64 106.41 247.07 118.07 278.76 C 141.98 278.95 165.90 278.94 189.81 278.77 C 198.65 265.92 204.44 250.71 204.77 235.02 C 205.02 222.33 204.62 209.65 204.70 196.97 C 205.02 191.33 199.59 186.35 193.99 187.14 C 189.67 187.01 186.17 190.32 184.67 194.14 C 182.80 191.78 181.29 188.81 178.28 187.72 C 174.50 186.50 169.79 186.97 167.01 190.04 C 165.88 191.22 165.27 192.87 163.99 193.89 C 161.98 190.21 158.60 186.57 153.99 187.13 C 149.30 186.72 145.79 190.43 143.79 194.23 C 143.81 181.79 143.79 169.34 143.80 156.89 C 154.53 152.16 161.00 139.38 157.66 128.00 C 154.79 116.12 142.07 107.73 130.01 109.91 C 118.81 111.47 109.53 121.55 109.20 132.90 Z" />
<path fill="#fb1c2a" opacity="1.00" d=" M 145.56 31.84 C 151.00 30.53 157.29 31.56 161.29 35.71 C 166.14 40.82 167.59 48.17 167.68 55.00 C 167.87 62.51 166.59 70.66 161.41 76.44 C 155.38 82.94 143.84 82.70 138.20 75.81 C 132.27 68.33 131.81 58.11 132.93 49.02 C 133.90 41.74 137.93 33.83 145.56 31.84 Z" />
<path fill="#fb1c2a" opacity="1.00" d=" M 117.28 129.05 C 119.81 120.66 129.46 115.04 137.97 117.50 C 146.13 119.29 152.02 127.69 151.14 135.96 C 150.44 140.70 148.17 145.62 143.83 148.04 C 143.07 141.68 146.00 133.46 140.20 128.78 C 134.88 123.85 125.47 127.09 123.71 133.94 C 123.01 138.61 123.60 143.36 123.34 148.06 C 117.68 143.77 114.89 135.85 117.28 129.05 Z" />
</g>
<g id="#ffffffff">
<path fill="#ffffff" opacity="1.00" d=" M 286.51 0.83 C 292.21 2.43 297.14 6.51 298.96 12.26 C 297.63 10.28 296.08 8.46 294.64 6.56 C 292.44 4.01 289.51 2.28 286.51 0.83 Z" />
<path fill="#ffffff" opacity="1.00" d=" M 51.16 18.11 C 63.37 14.47 76.61 14.97 88.78 18.55 C 88.45 23.99 87.70 29.40 87.46 34.85 C 79.64 31.60 70.98 30.50 62.62 31.87 C 59.54 32.55 55.87 34.52 56.12 38.19 C 55.66 41.75 59.05 43.93 61.99 44.92 C 70.55 48.15 80.47 49.09 87.35 55.72 C 94.11 62.46 94.32 73.44 90.95 81.87 C 87.10 90.79 77.25 94.98 68.16 96.13 C 57.12 97.44 45.75 96.63 35.09 93.43 C 35.40 87.63 36.40 81.90 36.74 76.10 C 45.23 79.85 54.80 82.37 64.08 80.64 C 67.55 80.19 71.30 77.88 71.36 74.01 C 71.68 70.05 68.15 67.28 64.86 65.93 C 56.69 62.62 47.27 61.56 40.46 55.49 C 34.22 49.97 33.10 40.65 35.09 32.94 C 37.19 25.45 43.99 20.33 51.16 18.11 Z" />
<path fill="#ffffff" opacity="1.00" d=" M 144.10 15.95 C 154.30 14.93 165.26 16.20 174.02 21.89 C 180.60 26.09 185.14 32.96 187.35 40.36 C 190.45 51.27 190.32 63.13 186.68 73.89 C 183.74 82.32 177.33 89.55 169.10 93.11 C 160.51 96.97 150.75 97.32 141.54 96.14 C 131.76 94.79 122.26 89.58 117.01 81.05 C 110.62 70.67 109.51 57.77 111.54 45.95 C 113.00 36.78 117.57 27.69 125.42 22.40 C 130.88 18.49 137.49 16.63 144.10 15.95 M 145.56 31.84 C 137.93 33.83 133.90 41.74 132.93 49.02 C 131.81 58.11 132.27 68.33 138.20 75.81 C 143.84 82.70 155.38 82.94 161.41 76.44 C 166.59 70.66 167.87 62.51 167.68 55.00 C 167.59 48.17 166.14 40.82 161.29 35.71 C 157.29 31.56 151.00 30.53 145.56 31.84 Z" />
<path fill="#ffffff" opacity="1.00" d=" M 223.01 18.43 C 235.46 14.37 249.12 14.96 261.62 18.53 C 261.26 23.94 260.49 29.32 260.33 34.74 C 252.26 31.70 243.43 30.32 234.90 32.02 C 231.63 32.69 228.31 35.39 228.73 39.05 C 229.21 42.74 233.01 44.33 236.10 45.41 C 244.52 48.33 254.31 49.47 260.68 56.36 C 265.57 61.22 266.35 68.59 265.58 75.12 C 264.87 82.53 260.03 89.24 253.34 92.44 C 244.29 96.98 233.81 97.07 223.92 96.44 C 218.56 95.97 213.25 95.00 208.06 93.58 C 208.13 87.70 209.08 81.88 209.60 76.03 C 217.14 79.61 225.54 81.61 233.90 81.12 C 237.62 80.67 242.41 79.86 243.74 75.75 C 245.23 72.16 242.55 68.25 239.31 66.73 C 230.50 62.47 219.60 62.00 212.46 54.65 C 206.92 49.32 206.39 40.89 207.73 33.75 C 209.35 26.20 215.98 20.83 223.01 18.43 Z" />
<path fill="#ffffff" opacity="1.00" d=" M 109.20 132.90 C 109.53 121.55 118.81 111.47 130.01 109.91 C 142.07 107.73 154.79 116.12 157.66 128.00 C 161.00 139.38 154.53 152.16 143.80 156.89 C 143.79 169.34 143.81 181.79 143.79 194.23 C 145.79 190.43 149.30 186.72 153.99 187.13 C 158.60 186.57 161.98 190.21 163.99 193.89 C 165.27 192.87 165.88 191.22 167.01 190.04 C 169.79 186.97 174.50 186.50 178.28 187.72 C 181.29 188.81 182.80 191.78 184.67 194.14 C 186.17 190.32 189.67 187.01 193.99 187.14 C 199.59 186.35 205.02 191.33 204.70 196.97 C 204.62 209.65 205.02 222.33 204.77 235.02 C 204.44 250.71 198.65 265.92 189.81 278.77 C 165.90 278.94 141.98 278.95 118.07 278.76 C 106.41 247.07 94.06 215.64 82.39 183.97 C 89.83 180.07 99.65 181.31 105.33 187.68 C 110.95 194.82 116.08 202.35 121.72 209.48 C 122.11 209.96 122.87 210.92 123.25 211.40 C 123.43 193.11 123.43 174.81 123.25 156.52 C 114.39 152.42 108.40 142.71 109.20 132.90 M 117.28 129.05 C 114.89 135.85 117.68 143.77 123.34 148.06 C 123.60 143.36 123.01 138.61 123.71 133.94 C 125.47 127.09 134.88 123.85 140.20 128.78 C 146.00 133.46 143.07 141.68 143.83 148.04 C 148.17 145.62 150.44 140.70 151.14 135.96 C 152.02 127.69 146.13 119.29 137.97 117.50 C 129.46 115.04 119.81 120.66 117.28 129.05 Z" />
<path fill="#ffffff" opacity="1.00" d=" M 295.00 294.08 C 296.41 291.98 297.76 289.83 299.02 287.63 C 298.16 290.03 296.86 292.31 295.00 294.08 Z" />
<path fill="#ffffff" opacity="1.00" d=" M 289.52 297.94 C 290.12 295.85 292.07 294.40 294.28 294.86 C 293.09 296.41 291.37 297.39 289.52 297.94 Z" />
</g>
<g id="#c05e63c1">
<path fill="#c05e63" opacity="0.76" d=" M 0.00 13.46 L 0.54 13.09 C 2.07 14.22 1.44 16.33 0.52 17.62 L 0.00 17.21 L 0.00 13.46 Z" />
</g>
<g id="#fc6770ff">
<path fill="#fc6770" opacity="1.00" d=" M 299.37 14.57 L 300.00 14.95 L 300.00 16.86 C 299.74 16.51 299.23 15.80 298.97 15.44 L 299.37 14.57 Z" />
</g>
<g id="#fc3f49ff">
<path fill="#fc3f49" opacity="1.00" d=" M 0.00 17.21 L 0.52 17.62 C 1.13 22.06 1.03 26.54 0.99 31.00 C 0.97 95.69 1.01 160.37 0.97 225.06 C 0.93 244.08 1.16 263.10 0.82 282.11 L 0.00 282.16 L 0.00 17.21 Z" />
</g>
<g id="#fb021bff">
<path fill="#fb021b" opacity="1.00" d=" M 121.96 161.02 C 122.18 159.51 121.47 157.34 123.25 156.52 C 123.43 174.81 123.43 193.11 123.25 211.40 C 122.87 210.92 122.11 209.96 121.72 209.48 C 122.32 193.34 121.90 177.17 121.96 161.02 Z" />
</g>
<g id="#f17076f3">
<path fill="#f17076" opacity="0.95" d=" M 0.00 282.16 L 0.82 282.11 C 0.77 282.86 0.67 284.37 0.62 285.12 L 0.00 284.97 L 0.00 282.16 Z" />
</g>
<g id="#fc616bff">
<path fill="#fc616b" opacity="1.00" d=" M 299.23 285.44 C 299.42 284.91 299.81 283.86 300.00 283.33 L 300.00 285.26 L 299.23 285.44 Z" />
</g>
<g id="#fc848bff">
<path fill="#fc848b" opacity="1.00" d=" M 15.60 299.67 C 19.70 298.90 23.88 298.90 28.03 299.00 C 109.02 299.01 190.00 298.99 270.99 299.00 C 275.49 298.95 280.03 298.80 284.47 299.66 L 283.06 300.00 L 17.09 300.00 L 15.60 299.67 Z" />
</g>
</svg>
