<?xml version="1.0" encoding="utf-8"?>
<!-- Generator: Adobe Illustrator 18.0.0, SVG Export Plug-In . SVG Version: 6.00 Build 0)  -->
<!DOCTYPE svg PUBLIC "-//W3C//DTD SVG 1.1//EN" "http://www.w3.org/Graphics/SVG/1.1/DTD/svg11.dtd">
<svg version="1.1" id="Layer_1" xmlns="http://www.w3.org/2000/svg" xmlns:xlink="http://www.w3.org/1999/xlink" x="0px" y="0px"
	 viewBox="0 0 72 72" xml:space="preserve">
<g>
	<g id="LWPOLYLINE">
		<path fill="#FFFFFF" d="M52.7,55.9l1.9-5.1c4.8-1.3,7.6-6.2,6.3-11s-6.2-7.6-11-6.3c-4.8,1.3-7.6,6.2-6.3,11
			c0.8,3.1,3.3,5.5,6.3,6.3l1.9,5.1c0.1,0.3,0.4,0.4,0.6,0.3C52.5,56.1,52.6,56,52.7,55.9z"/>
	</g>
	<g id="LWPOLYLINE_1_">
		<path fill="#FFFFFF" d="M53,31.1c2.7-3.2,2.3-7.9-0.8-10.6s-7.9-2.3-10.6,0.8c-2.7,3.2-2.3,7.9,0.8,10.6c0.8,0.7,1.8,1.2,2.9,1.5
			C47.5,31.7,50.3,30.9,53,31.1z"/>
	</g>
	<g id="LWPOLYLINE_2_">
		<path fill="#FFFFFF" d="M29.9,36.8c-0.1-0.2-0.1-0.5,0-0.7l5.6-15.4c0.1-0.3,0-0.5-0.3-0.6c-0.1-0.1-0.3,0-0.4,0L8,35.6
			c-0.5,0.3-0.6,0.9-0.4,1.4c0.1,0.2,0.2,0.3,0.4,0.4l26.8,15.5c0.2,0.1,0.5,0.1,0.7-0.2c0.1-0.1,0.1-0.3,0-0.4L29.9,36.8z"/>
	</g>
</g>
</svg>
