<?xml version="1.0" encoding="utf-8"?>
<!-- Svg Vector Icons : http://www.onlinewebfonts.com/icon -->
<!DOCTYPE svg PUBLIC "-//W3C//DTD SVG 1.1//EN" "http://www.w3.org/Graphics/SVG/1.1/DTD/svg11.dtd">
<svg version="1.1" xmlns="http://www.w3.org/2000/svg" xmlns:xlink="http://www.w3.org/1999/xlink" x="0px" y="0px" viewBox="0 0 1000 1000" xml:space="preserve">
<g transform="translate(0.000000,511.000000) scale(0.100000,-0.100000)" >
<path fill="#3A3A3A" d="M2418.2,4800.1c-169.4-115.5-498.7-338.9-729.7-496.7c-254.1-171.4-437.1-308.1-458.2-342.7c-109.8-173.3,121.3-385.1,290.7-267.6c23.1,17.3,50.1,23.1,59.7,15.4c7.7-9.6,107.8-175.2,221.4-367.7l206-348.5L1848.3,2792c-207.9-259.9-371.6-510.2-410.1-627.7c-28.9-82.8-30.8-387-26.9-3163.3l5.8-3070.9l71.2-146.3c125.2-250.3,400.5-471.7,679.6-544.9c100.1-25,467.9-28.9,2965-28.9c2499.1,0,2864.9,3.8,2965,28.9c329.2,86.7,612.3,377.4,681.6,702.8c17.3,78.9,21.2,981.9,17.3,3629.3l-5.8,3523.4l-71.2,148.3c-248.4,523.7-854.8,1186-1249.5,1363.1l-104,48.1H6018.6H4670.8l-127.1-44.3c-150.2-52-319.6-150.2-477.5-279.2l-113.6-90.5l-412,3.9l-410.1,5.8l-121.3,179.1L2888,4607.6l57.8,67.4c127.1,142.5,36.6,335-155.9,335C2739.7,5010,2656.9,4961.9,2418.2,4800.1z M2714.7,4132c96.3-144.4,182.9-252.2,215.6-269.6c44.3-21.2,163.7-27,620-27h568l167.5,144.4c92.4,78.9,221.4,169.4,285,202.2l115.5,57.8h1332.3h1332.3l123.2-78.9c227.2-146.3,591.1-554.5,793.2-887.6c140.6-231,130.9,65.5,125.2-3810.2l-5.8-3492.6l-40.4-86.6c-44.3-96.3-132.9-181-238.8-229.1c-59.7-27-352.3-30.8-2888-36.6c-2878.4-5.8-2988.1-3.8-3126.8,67.4c-84.7,42.4-181,138.6-229.1,227.2l-42.4,77l-5.8,3013.2c-1.9,1657.7,0,3032.4,5.8,3055.5c13.5,53.9,200.2,306.1,437.1,589.1c209.9,248.4,234.9,308.1,179.1,417.8c-19.3,34.7-140.5,246.4-273.4,467.9c-130.9,221.4-234.9,412-231,423.6c7.7,23.1,573.7,415.9,600.7,415.9C2545.3,4372.7,2626.1,4264.9,2714.7,4132z"/>
<path fill="#3A3A3A" d="M5013.6,3400.4c-55.8-28.9-121.3-125.1-121.3-181c0-13.5,13.5-52,30.8-86.6c59.7-127.1,42.4-125.1,1199.5-125.1c1120.5,0,1134,1.9,1203.3,98.2c50,73.2,40.4,179.1-25,252.2l-55.8,63.5l-1085.9,3.9C5204.2,3431.2,5067.5,3427.4,5013.6,3400.4z"/>
<path fill="#3A3A3A" d="M2578,2150.9c-59.7-32.7-111.7-119.4-111.7-182.9c0-52-7.7-38.5,439-837.5c206-369.7,394.7-695,419.7-722c36.6-38.5,65.5-48.1,134.8-48.1c75.1,0,96.3,9.6,144.4,63.5c102,113.6,98.2,123.2-350.4,924.2c-221.4,398.6-423.6,745.1-448.6,770.1C2751.3,2174,2645.4,2189.4,2578,2150.9z"/>
<path fill="#3A3A3A" d="M7462.6,2162.4c-21.2-9.6-52-32.7-71.3-52c-17.3-21.2-213.7-363.9-437.1-762.4c-448.6-800.9-450.5-810.6-350.4-924.2c48.1-53.9,69.3-63.5,144.4-63.5c67.4,0,98.2,11.5,134.8,48.1c63.5,67.4,839.4,1459.4,852.9,1530.6c13.5,82.8-21.2,157.9-94.4,202.2C7574.3,2181.7,7526.1,2187.4,7462.6,2162.4z"/>
<path fill="#3A3A3A" d="M3839.1,106.1c-111.7-38.5-261.8-179.1-321.5-298.4c-48.1-98.2-50.1-109.8-50.1-485.2c0-365.8,1.9-392.8,46.2-485.2c57.8-125.1,163.7-231,288.8-288.8l98.2-46.2h1203.3h1203.3l98.2,46.2c127.1,59.7,231,165.6,290.7,294.6c46.2,100.1,48.1,119.4,46.2,483.3c-1.9,363.9-5.8,383.2-52,479.4C6630.8-71,6480.7,67.6,6361.3,108.1C6230.4,152.4,3964.2,152.4,3839.1,106.1z M6293.9-296.2c40.4-28.9,42.4-38.5,42.4-383.2c0-296.5-5.8-358.1-30.8-383.2c-27-26.9-161.7-30.8-1201.4-30.8s-1174.5,3.8-1201.4,30.8c-25,25-30.8,86.6-30.8,383.2c0,344.6,1.9,354.3,42.4,383.2c38.5,26.9,182.9,30.8,1189.9,30.8C6111-265.4,6255.4-269.3,6293.9-296.2z"/>
<path fill="#3A3A3A" d="M3359.7-1711.4c-48.1-25-63.5-48.1-525.6-878c-207.9-371.6-367.7-677.7-367.7-706.6c0-169.4,211.8-271.5,335-161.7c25,25,215.6,348.5,421.7,718.1c458.2,826,437.1,783.6,437.1,860.6C3658.1-1738.3,3494.5-1647.8,3359.7-1711.4z"/>
<path fill="#3A3A3A" d="M6646.2-1717.2c-57.8-32.7-96.3-102-98.2-175.2c0-67.4,799-1517.2,868.3-1573c53.9-44.3,186.8-44.3,240.7,0c53.9,42.4,84.7,104,84.7,167.5c0,30.8-165.6,350.4-417.8,802.9c-315.8,566-433.2,756.6-471.7,777.8C6788.7-1684.4,6707.9-1684.4,6646.2-1717.2z"/>
</g>
</svg>