<?xml version="1.0" encoding="utf-8"?>
<!-- Generator: Adobe Illustrator 17.0.0, SVG Export Plug-In . SVG Version: 6.00 Build 0)  -->
<!DOCTYPE svg PUBLIC "-//W3C//DTD SVG 1.1//EN" "http://www.w3.org/Graphics/SVG/1.1/DTD/svg11.dtd">
<svg version="1.1" xmlns="http://www.w3.org/2000/svg" xmlns:xlink="http://www.w3.org/1999/xlink" x="0px" y="0px" width="114px"
	 height="114px" viewBox="0 0 114 114" xml:space="preserve">
<g id="normal">
	<polygon fill-rule="evenodd" clip-rule="evenodd" fill="#A6A6A6" points="105.543,101.363 85.543,92.711 65.542,101.363 
		85.543,64.373 105.543,101.363 	"/>
	<path fill="#A6A6A6" d="M58.152,61.97c-1.236,1.236-3.288,1.188-4.584-0.106c-1.294-1.296-1.342-3.347-0.106-4.584
		c1.236-1.236,3.288-1.188,4.584,0.106C59.341,58.682,59.389,60.734,58.152,61.97L58.152,61.97z M65.394,69.212
		c-1.236,1.236-3.285,1.191-4.577-0.101c-1.291-1.291-1.336-3.341-0.099-4.576c1.236-1.236,3.285-1.192,4.577,0.099
		C66.586,65.926,66.631,67.976,65.394,69.212L65.394,69.212z M72.649,76.467c-1.236,1.236-3.29,1.187-4.587-0.111
		c-1.297-1.297-1.347-3.35-0.111-4.587c1.236-1.236,3.29-1.187,4.587,0.111C73.836,73.176,73.886,75.231,72.649,76.467
		L72.649,76.467z"/>
	<path fill-rule="evenodd" clip-rule="evenodd" fill="#A6A6A6" d="M57.358,39.977c0.014-0.136,0.027-0.272,0.035-0.408
		c0.088-1.427-0.135-3.61-0.135-3.61c0,0,0.091-0.367,0.157-1.019c0.067,0.738,0.114,1.481,0.114,2.237
		C57.529,38.125,57.464,39.056,57.358,39.977L57.358,39.977z M56.94,42.321c0.059-0.274,0.135-0.543,0.184-0.82
		C57.049,41.878,56.982,42.161,56.94,42.321L56.94,42.321z M32.989,61.712c-13.526,0-24.532-11.006-24.532-24.535
		c0-4.859,1.438-9.38,3.884-13.196l-0.126,1.64v2.94l1.47,2.273l3.342,1.07l1.07,1.47l3.61,2.273l-0.669,3.477l1.07,4.278
		l3.61,3.208l0.135,4.278l-0.669,3.209l0.669,3.877h1.738l0.668-3.477l3.208-1.47l2.14-3.209l4.68-3.475l0.535-2.273l2.005-2.807
		l-2.807-1.337l-2.005-2.405l-2.54-1.47l-2.54-0.402l-0.937-1.47l-4.01-1.203l-4.01,0.133L19.3,32.304l-0.133-2.94l-3.11-1.369
		l4.765-1.171l1.377,1.637l0.886,0.386l-0.682-2.88l1.176-1.326l4.68-2.764l1.47-2.005l0.402-2.54l-1.738-1.336l-2.807,0.935
		l-1.204,1.337l-1.603-2.007l-1.739-0.266l-1.47,0.935l-2.807,2.005l-0.373,0.229c4.374-4.037,10.197-6.528,16.603-6.528
		c5.876,0,11.273,2.08,15.503,5.538l-0.146-0.042l-1.47,1.07l-2.005,0.4l-2.407,0.267l-0.935,1.962l0.535,2.94l2.362,0.623
		l0.311,0.447v1.782l-0.668,1.871l0.535,3.209l2.405,3.342l0.937,0.935l2.94-0.4l1.872-1.07h1.871l1.337,1.872l0.669,2.673
		l0.266,2.407c0,0,0.018-0.061,0.038-0.144C54.565,53.383,44.751,61.712,32.989,61.712L32.989,61.712z M48.079,25.441l-2.273,0.267
		l-0.98-0.713l1.738-0.758l-0.468-2.652l3.053-0.466l1.07,1.871l-0.625,0.802l1.694-0.49l-0.625-0.847l-0.09-1.336l2.05,1.381
		l0.357,0.98l-2.407,0.98L48.079,25.441L48.079,25.441z"/>
</g>
<g id="active">
	<polygon fill-rule="evenodd" clip-rule="evenodd" fill="#A6A6A6" points="105.543,101.363 85.543,92.711 65.542,101.363 
		85.543,64.373 105.543,101.363 	"/>
	<path fill="#A6A6A6" d="M58.152,61.97c-1.236,1.236-3.288,1.188-4.584-0.106c-1.294-1.296-1.342-3.347-0.106-4.584
		c1.236-1.236,3.288-1.188,4.584,0.106C59.341,58.682,59.389,60.734,58.152,61.97L58.152,61.97z M65.394,69.212
		c-1.236,1.236-3.285,1.191-4.577-0.101c-1.291-1.291-1.336-3.341-0.099-4.576c1.236-1.236,3.285-1.192,4.577,0.099
		C66.586,65.926,66.631,67.976,65.394,69.212L65.394,69.212z M72.649,76.467c-1.236,1.236-3.29,1.187-4.587-0.111
		c-1.297-1.297-1.347-3.35-0.111-4.587c1.236-1.236,3.29-1.187,4.587,0.111C73.836,73.176,73.886,75.231,72.649,76.467
		L72.649,76.467z"/>
	<path fill-rule="evenodd" clip-rule="evenodd" fill="#A6A6A6" d="M57.358,39.977c0.014-0.136,0.027-0.272,0.035-0.408
		c0.088-1.427-0.135-3.61-0.135-3.61c0,0,0.091-0.367,0.157-1.019c0.067,0.738,0.114,1.481,0.114,2.237
		C57.529,38.125,57.464,39.056,57.358,39.977L57.358,39.977z M56.94,42.321c0.059-0.274,0.135-0.543,0.184-0.82
		C57.049,41.878,56.982,42.161,56.94,42.321L56.94,42.321z M32.989,61.712c-13.526,0-24.532-11.006-24.532-24.535
		c0-4.859,1.438-9.38,3.884-13.196l-0.126,1.64v2.94l1.47,2.273l3.342,1.07l1.07,1.47l3.61,2.273l-0.669,3.477l1.07,4.278
		l3.61,3.208l0.135,4.278l-0.669,3.209l0.669,3.877h1.738l0.668-3.477l3.208-1.47l2.14-3.209l4.68-3.475l0.535-2.273l2.005-2.807
		l-2.807-1.337l-2.005-2.405l-2.54-1.47l-2.54-0.402l-0.937-1.47l-4.01-1.203l-4.01,0.133L19.3,32.304l-0.133-2.94l-3.11-1.369
		l4.765-1.171l1.377,1.637l0.886,0.386l-0.682-2.88l1.176-1.326l4.68-2.764l1.47-2.005l0.402-2.54l-1.738-1.336l-2.807,0.935
		l-1.204,1.337l-1.603-2.007l-1.739-0.266l-1.47,0.935l-2.807,2.005l-0.373,0.229c4.374-4.037,10.197-6.528,16.603-6.528
		c5.876,0,11.273,2.08,15.503,5.538l-0.146-0.042l-1.47,1.07l-2.005,0.4l-2.407,0.267l-0.935,1.962l0.535,2.94l2.362,0.623
		l0.311,0.447v1.782l-0.668,1.871l0.535,3.209l2.405,3.342l0.937,0.935l2.94-0.4l1.872-1.07h1.871l1.337,1.872l0.669,2.673
		l0.266,2.407c0,0,0.018-0.061,0.038-0.144C54.565,53.383,44.751,61.712,32.989,61.712L32.989,61.712z M48.079,25.441l-2.273,0.267
		l-0.98-0.713l1.738-0.758l-0.468-2.652l3.053-0.466l1.07,1.871l-0.625,0.802l1.694-0.49l-0.625-0.847l-0.09-1.336l2.05,1.381
		l0.357,0.98l-2.407,0.98L48.079,25.441L48.079,25.441z"/>
</g>
<g id="disabled" opacity="0.6">
	<polygon fill-rule="evenodd" clip-rule="evenodd" fill="#A6A6A6" points="105.543,101.363 85.543,92.711 65.542,101.363 
		85.543,64.373 105.543,101.363 	"/>
	<path fill="#A6A6A6" d="M58.152,61.97c-1.236,1.236-3.288,1.188-4.584-0.106c-1.294-1.296-1.342-3.347-0.106-4.584
		c1.236-1.236,3.288-1.188,4.584,0.106C59.341,58.682,59.389,60.734,58.152,61.97L58.152,61.97z M65.394,69.212
		c-1.236,1.236-3.285,1.191-4.577-0.101c-1.291-1.291-1.336-3.341-0.099-4.576c1.236-1.236,3.285-1.192,4.577,0.099
		C66.586,65.926,66.631,67.976,65.394,69.212L65.394,69.212z M72.649,76.467c-1.236,1.236-3.29,1.187-4.587-0.111
		c-1.297-1.297-1.347-3.35-0.111-4.587c1.236-1.236,3.29-1.187,4.587,0.111C73.836,73.176,73.886,75.231,72.649,76.467
		L72.649,76.467z"/>
	<path fill-rule="evenodd" clip-rule="evenodd" fill="#A6A6A6" d="M57.358,39.977c0.014-0.136,0.027-0.272,0.035-0.408
		c0.088-1.427-0.135-3.61-0.135-3.61c0,0,0.091-0.367,0.157-1.019c0.067,0.738,0.114,1.481,0.114,2.237
		C57.529,38.125,57.464,39.056,57.358,39.977L57.358,39.977z M56.94,42.321c0.059-0.274,0.135-0.543,0.184-0.82
		C57.049,41.878,56.982,42.161,56.94,42.321L56.94,42.321z M32.989,61.712c-13.526,0-24.532-11.006-24.532-24.535
		c0-4.859,1.438-9.38,3.884-13.196l-0.126,1.64v2.94l1.47,2.273l3.342,1.07l1.07,1.47l3.61,2.273l-0.669,3.477l1.07,4.278
		l3.61,3.208l0.135,4.278l-0.669,3.209l0.669,3.877h1.738l0.668-3.477l3.208-1.47l2.14-3.209l4.68-3.475l0.535-2.273l2.005-2.807
		l-2.807-1.337l-2.005-2.405l-2.54-1.47l-2.54-0.402l-0.937-1.47l-4.01-1.203l-4.01,0.133L19.3,32.304l-0.133-2.94l-3.11-1.369
		l4.765-1.171l1.377,1.637l0.886,0.386l-0.682-2.88l1.176-1.326l4.68-2.764l1.47-2.005l0.402-2.54l-1.738-1.336l-2.807,0.935
		l-1.204,1.337l-1.603-2.007l-1.739-0.266l-1.47,0.935l-2.807,2.005l-0.373,0.229c4.374-4.037,10.197-6.528,16.603-6.528
		c5.876,0,11.273,2.08,15.503,5.538l-0.146-0.042l-1.47,1.07l-2.005,0.4l-2.407,0.267l-0.935,1.962l0.535,2.94l2.362,0.623
		l0.311,0.447v1.782l-0.668,1.871l0.535,3.209l2.405,3.342l0.937,0.935l2.94-0.4l1.872-1.07h1.871l1.337,1.872l0.669,2.673
		l0.266,2.407c0,0,0.018-0.061,0.038-0.144C54.565,53.383,44.751,61.712,32.989,61.712L32.989,61.712z M48.079,25.441l-2.273,0.267
		l-0.98-0.713l1.738-0.758l-0.468-2.652l3.053-0.466l1.07,1.871l-0.625,0.802l1.694-0.49l-0.625-0.847l-0.09-1.336l2.05,1.381
		l0.357,0.98l-2.407,0.98L48.079,25.441L48.079,25.441z"/>
</g>
</svg>
